<svg id="Layer_1" data-name="Layer 1" xmlns="http://www.w3.org/2000/svg" viewBox="0 0 250 720"><defs><style>.cls-1{fill:#d4ac76;}</style></defs><title>text</title><path class="cls-1" d="M53.3,67.84,47.69,53.16h2.87l4,10.56,4-10.56h2.78L55.8,67.84Z"/><path class="cls-1" d="M64.83,67.84V53.16h2.75V67.84Z"/><path class="cls-1" d="M76.6,68a7,7,0,0,1-2.77-.58,7.13,7.13,0,0,1-2.38-1.6l1.75-2.09a5.11,5.11,0,0,0,1.62,1.31,4.13,4.13,0,0,0,1.93.51,2.32,2.32,0,0,0,1.56-.5,1.59,1.59,0,0,0,.62-1.27,2.2,2.2,0,0,0-1.62-2l-1.63-.65a6.24,6.24,0,0,1-2.44-1.62,3.73,3.73,0,0,1-.79-2.5,3.82,3.82,0,0,1,1.24-2.79A4.25,4.25,0,0,1,76.81,53a6.32,6.32,0,0,1,4.52,1.67l-1.62,2.05a3.78,3.78,0,0,0-2.9-1.27,2,2,0,0,0-1.32.42,1.32,1.32,0,0,0-.5,1,1.37,1.37,0,0,0,.39,1,3.92,3.92,0,0,0,1.26.76l1.71.68q3.27,1.32,3.33,4.24A4.13,4.13,0,0,1,80.3,66.8,5.37,5.37,0,0,1,76.6,68Z"/><path class="cls-1" d="M85.88,67.84V53.16h1.93L95,62.39V53.16h2.75V67.84H96L88.63,58.5v9.34Z"/><path class="cls-1" d="M103,67.84V53.16h2.75V67.84Z"/><path class="cls-1" d="M111,67.84V53.16H113l7.22,9.23V53.16H123V67.84H121.1l-7.31-9.34v9.34Z"/><path class="cls-1" d="M137.16,61.71V59.26h5.26l0,1.25a7.56,7.56,0,0,1-1.07,3.9,7.42,7.42,0,0,1-2.78,2.7,7.61,7.61,0,0,1-3.75,1,7.62,7.62,0,1,1,0-15.24,7.23,7.23,0,0,1,5.47,2.38l-1.88,1.85a4.74,4.74,0,0,0-3.61-1.59,4.65,4.65,0,0,0-3.51,1.44,5.19,5.19,0,0,0,0,7.08,4.48,4.48,0,0,0,3.33,1.44,5.23,5.23,0,0,0,3.27-1,4.66,4.66,0,0,0,1.73-2.7Z"/><path class="cls-1" d="M150.54,68a7,7,0,0,1-2.77-.58,7.19,7.19,0,0,1-2.37-1.6l1.74-2.09a5.34,5.34,0,0,0,1.62,1.31,4.2,4.2,0,0,0,1.94.51,2.34,2.34,0,0,0,1.56-.5,1.58,1.58,0,0,0,.61-1.27,2.19,2.19,0,0,0-1.61-2l-1.63-.65a6.36,6.36,0,0,1-2.45-1.62,3.78,3.78,0,0,1-.79-2.5,3.83,3.83,0,0,1,1.25-2.79A4.24,4.24,0,0,1,150.75,53a6.34,6.34,0,0,1,4.53,1.67l-1.62,2.05a3.8,3.8,0,0,0-2.91-1.27,2,2,0,0,0-1.31.42,1.32,1.32,0,0,0-.5,1,1.37,1.37,0,0,0,.39,1,3.92,3.92,0,0,0,1.26.76l1.71.68q3.27,1.32,3.33,4.24a4.13,4.13,0,0,1-1.38,3.22A5.38,5.38,0,0,1,150.54,68Z"/><path class="cls-1" d="M168.87,67.84V61.71h-6.29v6.13h-2.75V53.16h2.75v5.91h6.29V53.16h2.76V67.84Z"/><path class="cls-1" d="M186.19,66.52a6,6,0,0,1-8,0,5.17,5.17,0,0,1-1.58-3.88V53.16h2.75v9.12a3.32,3.32,0,0,0,.76,2.26,2.91,2.91,0,0,0,4.18,0,3.26,3.26,0,0,0,.76-2.23V53.16h2.76v9.48A5.18,5.18,0,0,1,186.19,66.52Z"/><path class="cls-1" d="M196.66,68a7,7,0,0,1-2.77-.58,7.13,7.13,0,0,1-2.38-1.6l1.75-2.09a5.22,5.22,0,0,0,1.62,1.31,4.13,4.13,0,0,0,1.93.51,2.37,2.37,0,0,0,1.57-.5,1.61,1.61,0,0,0,.61-1.27,2.2,2.2,0,0,0-1.61-2l-1.64-.65a6.36,6.36,0,0,1-2.45-1.62,3.78,3.78,0,0,1-.78-2.5,3.82,3.82,0,0,1,1.24-2.79A4.25,4.25,0,0,1,196.87,53a6.32,6.32,0,0,1,4.52,1.67l-1.62,2.05a3.78,3.78,0,0,0-2.9-1.27,2,2,0,0,0-1.32.42,1.32,1.32,0,0,0-.5,1,1.37,1.37,0,0,0,.39,1,3.92,3.92,0,0,0,1.26.76l1.71.68q3.27,1.32,3.33,4.24a4.13,4.13,0,0,1-1.38,3.22A5.37,5.37,0,0,1,196.66,68Z"/><path class="cls-1" d="M77,90.64V76h2.75V90.64Z"/><path class="cls-1" d="M92.52,90.64V76h2.66l4.54,7.24,4.6-7.24h2.89V90.64h-2.76v-10l-.22,0-4.56,7-4.44-6.94h0v10Z"/><path class="cls-1" d="M110.46,90.64,116.12,76h2.49l5.64,14.68h-2.83l-.78-2h-6.57l-.78,2Zm6.91-10.57L115,86.16h4.68Z"/><path class="cls-1" d="M127.69,90.64V76h2.75V88h5.4v2.64Z"/><path class="cls-1" d="M139.81,90.64V76h2.66L147,83.2l4.6-7.24h2.89V90.64h-2.76v-10l-.22,0-4.56,7-4.44-6.94h0v10Z"/><path class="cls-1" d="M173.8,83.29a7.31,7.31,0,0,1-2.23,5.38,7.62,7.62,0,1,1,2.23-5.38ZM162.71,86.8a4.84,4.84,0,0,0,6.91,0,5,5,0,0,0,0-7,4.82,4.82,0,0,0-6.91,0,5.09,5.09,0,0,0,0,7Zm2.17-12.35a1.17,1.17,0,0,1-.89.39,1.21,1.21,0,0,1-.91-.39,1.31,1.31,0,0,1-.37-.94A1.27,1.27,0,0,1,164,72.19a1.23,1.23,0,0,1,.89.38,1.3,1.3,0,0,1,.37.94A1.31,1.31,0,0,1,164.88,74.45Zm4.38,0a1.37,1.37,0,0,1-1,.39,1.34,1.34,0,0,1-1-.39,1.27,1.27,0,0,1-.41-.94,1.26,1.26,0,0,1,.41-.94,1.38,1.38,0,0,1,1-.38,1.4,1.4,0,0,1,1,.38,1.29,1.29,0,0,1,.4.94A1.3,1.3,0,0,1,169.26,74.45Z"/></svg>