<svg id="Layer_1" data-name="Layer 1" xmlns="http://www.w3.org/2000/svg" viewBox="0 0 250 720"><defs><style>.cls-1{fill:#d80201;}</style></defs><title>text</title><path class="cls-1" d="M57.81,401,56,388.21l-5.71,13H49.16l-5.49-13L41.59,401H37.53l3.85-21.05h2.75l5.65,13.52,5.89-13.52h2.76L61.87,401Z"/><path class="cls-1" d="M75.54,401.42a10.81,10.81,0,1,1,11.07-10.79A10.73,10.73,0,0,1,75.54,401.42Zm0-17.92a7.13,7.13,0,1,0,6.91,7.1A7,7,0,0,0,75.54,383.5Z"/><path class="cls-1" d="M98,401.48H95.87l-8.8-21.21h4.4L97,394.16l5.58-13.89h4.37Z"/><path class="cls-1" d="M109.39,401V380.27h11.44v3.51h-7.41v4.58h7.13v3.51h-7.13v5.58h7.41V401Z"/><path class="cls-1" d="M148.23,389H145.1l-.43,2.79h3.16l-.53,3.38h-3.16l-.93,5.76h-3.87l.93-5.76h-2.86l-.9,5.76h-3.84l.93-5.76h-3.19l.52-3.38h3.2l.43-2.79H131.4l.53-3.42h3.16l.84-5.33h3.84l-.87,5.33h2.85l.84-5.33h3.88l-.84,5.33h3.13Zm-9.85,0-.44,2.79h2.85l.44-2.79Z"/><path class="cls-1" d="M156.88,401.48c-3.84,0-7.22-2.48-7.44-6.48h4.06a3.37,3.37,0,1,0,3.51-3.63,6.32,6.32,0,0,0-.75.06v-2.91a3.51,3.51,0,0,0,.56,0,2.81,2.81,0,0,0,.09-5.61c-1.76,0-2.6,1.08-2.82,2.73h-3.81c.59-3.91,3-5.93,6.91-5.93,3.44,0,6.3,2.05,6.3,5.71a4.62,4.62,0,0,1-2.39,4.4,5.09,5.09,0,0,1,3.16,5.09C164.26,399.15,160.82,401.48,156.88,401.48Z"/><path class="cls-1" d="M175.05,401.48c-5.71,0-8-6-8-10.85s2.26-10.89,8-10.89,8,6,8,10.86S180.78,401.48,175.05,401.48Zm0-18.17c-3.17,0-4,4.9-4,7.29s.8,7.35,4,7.35,4-5,4-7.35S178.21,383.31,175.05,383.31Z"/><path class="cls-1" d="M184.38,401l6.1-6.91c1.68-1.89,4.75-5,4.75-7.66a3.09,3.09,0,0,0-3.13-3.07c-2,0-3,1.52-3.07,3.41h-4.31c.28-4.18,3-7,7.25-7,3.88,0,7.29,2.55,7.29,6.64,0,2.88-1.89,5.24-3.75,7.22l-3.6,3.85h7.5V401Z"/><path class="cls-1" d="M80.59,421.12a2.27,2.27,0,0,1,0-4.53,2.27,2.27,0,0,1,0,4.53ZM78.7,438V424.53h3.75V438Z"/><path class="cls-1" d="M101.27,438h-7V417.27h5.12c1.67,0,3.72.16,5,1.24a5.54,5.54,0,0,1,1.86,4.25,4.33,4.33,0,0,1-2.26,4.15,4.75,4.75,0,0,1,2.7,1.31,5.57,5.57,0,0,1,1.49,3.87C108.28,436.22,105,438,101.27,438Zm-1.74-17.39H98.35v5.33H99.5c1.8,0,3.13-.71,3.13-2.67S101.33,420.56,99.53,420.56Zm.68,8.4H98.35v5.74h1.74c2,0,4-.47,4-2.89S102.14,429,100.21,429Z"/><path class="cls-1" d="M118.38,438.39c-4.28,0-7.69-2.67-7.69-7.14s3.41-7.16,7.72-7.16,7.63,2.7,7.63,7.13S122.63,438.39,118.38,438.39Zm0-10.92a3.77,3.77,0,1,0,3.81,3.78A3.8,3.8,0,0,0,118.35,427.47Z"/><path class="cls-1" d="M137.69,427.94a3.32,3.32,0,0,0-1.8-.47c-2.54,0-3.22,1.8-3.22,4V438h-3.75V424.53h3.75v2a4.32,4.32,0,0,1,3.91-2.45,4.42,4.42,0,0,1,1.64.31Z"/><path class="cls-1" d="M150.34,438v-1.76a5.19,5.19,0,0,1-4.37,2.2c-4,0-6.61-3.35-6.61-7.2s2.58-7.1,6.52-7.1a5.6,5.6,0,0,1,4.46,2.14v-1.7h3.78V438ZM147,427.47a3.77,3.77,0,1,0,3.75,3.75A3.74,3.74,0,0,0,147,427.47Zm-.53-5.3a2.79,2.79,0,1,1,0-5.58,2.79,2.79,0,0,1,0,5.58Zm0-3.88a1.09,1.09,0,1,0,1.09,1.09A1.07,1.07,0,0,0,146.46,418.29Z"/><path class="cls-1" d="M162,438.39a7.12,7.12,0,0,1-5.12-2.24l2-2.29a4.36,4.36,0,0,0,3.17,1.58,1.58,1.58,0,0,0,1.7-1.49c0-2.29-6-1.14-6-5.67,0-2.73,2.26-4.25,4.8-4.25a6.85,6.85,0,0,1,4.37,1.43l-1.86,2.2a3.7,3.7,0,0,0-2.23-.9c-.65,0-1.42.4-1.42,1.15,0,1.95,6.2,1.08,6.2,5.67C167.61,436.71,164.88,438.39,162,438.39Z"/></svg>