<svg id="Layer_1" data-name="Layer 1" xmlns="http://www.w3.org/2000/svg" viewBox="0 0 250 720"><defs><style>.cls-1{fill:#d4ac76;}</style></defs><title>text</title><path class="cls-1" d="M43,67.84V53.16h5.27a5,5,0,0,1,5.1,5.07,4.65,4.65,0,0,1-1.49,3.54,5.15,5.15,0,0,1-3.66,1.4H45.72v4.67Zm5-12H45.72v4.92H48a2.56,2.56,0,0,0,1.84-.66,2.27,2.27,0,0,0,.71-1.75,2.39,2.39,0,0,0-.73-1.81A2.54,2.54,0,0,0,48,55.8Z"/><path class="cls-1" d="M57.39,67.84V53.16h5.75a4.93,4.93,0,0,1,3.53,1.33A4.58,4.58,0,0,1,68.09,58,4.44,4.44,0,0,1,67,61a4.65,4.65,0,0,1-2.74,1.56l3.95,5.33h-3.1L61.33,62.6H60.14v5.24Zm5.32-12.23H60.14V60.4h2.57a2.7,2.7,0,0,0,1.91-.66,2.2,2.2,0,0,0,.71-1.69,2.28,2.28,0,0,0-.73-1.74A2.61,2.61,0,0,0,62.71,55.61Z"/><path class="cls-1" d="M80.57,61.63H75.13v3.76h6v2.45H72.38V53.16h8.55v2.45h-5.8v3.57h5.44Z"/><path class="cls-1" d="M85.57,67.84V53.16h2.66l4.54,7.24,4.59-7.24h2.89V67.84H97.5V57.79l-.22,0-4.56,7-4.44-6.94h0v10Z"/><path class="cls-1" d="M105.33,67.84V53.16h2.75V67.84Z"/><path class="cls-1" d="M111.5,67.84l5.66-14.68h2.49l5.64,14.68h-2.83l-.78-2h-6.57l-.78,2Zm5.64-16.19a1.2,1.2,0,0,1-.9.39,1.23,1.23,0,0,1-.91-.39,1.31,1.31,0,0,1-.37-.94,1.28,1.28,0,0,1,1.28-1.32,1.2,1.2,0,0,1,.89.39,1.26,1.26,0,0,1,.37.93A1.35,1.35,0,0,1,117.14,51.65Zm1.27,5.62-2.35,6.09h4.68Zm3.1-5.62a1.41,1.41,0,0,1-2,0,1.26,1.26,0,0,1-.4-.94,1.21,1.21,0,0,1,.4-.93,1.41,1.41,0,0,1,2,0,1.21,1.21,0,0,1,.4.93A1.26,1.26,0,0,1,121.51,51.65Z"/><path class="cls-1" d="M128.73,67.84V53.16h5.75A4.94,4.94,0,0,1,138,54.49,4.57,4.57,0,0,1,139.43,58a4.43,4.43,0,0,1-1.05,3,4.68,4.68,0,0,1-2.74,1.56l3.94,5.33h-3.09l-3.82-5.24h-1.18v5.24Zm5.32-12.23h-2.56V60.4h2.56a2.69,2.69,0,0,0,1.91-.66,2.16,2.16,0,0,0,.71-1.69,2.28,2.28,0,0,0-.73-1.74A2.58,2.58,0,0,0,134.05,55.61Z"/><path class="cls-1" d="M151.29,67.84V53.16h1.93l7.22,9.23V53.16h2.76V67.84h-1.84L154,58.5v9.34Z"/><path class="cls-1" d="M176.2,53.16h3l-4.87,8.72v6h-2.75V62l-4.92-8.81h3L173,59.25Z"/><path class="cls-1" d="M181.59,55.8V53.16h12.1V55.8H189v12h-2.76v-12Z"/><path class="cls-1" d="M196.28,55.8V53.16h12.1V55.8h-4.67v12H201v-12Z"/><path class="cls-1" d="M49.27,90.64,43.65,76h2.87l4,10.56,4-10.56h2.79L51.77,90.64Z"/><path class="cls-1" d="M60.79,90.64V76h2.75V90.64Z"/><path class="cls-1" d="M72.56,90.83a7,7,0,0,1-2.77-.58,7.13,7.13,0,0,1-2.38-1.6l1.75-2.1a5.23,5.23,0,0,0,1.62,1.32,4.16,4.16,0,0,0,1.93.51,2.42,2.42,0,0,0,1.57-.5,1.61,1.61,0,0,0,.61-1.27,2.2,2.2,0,0,0-1.61-2l-1.64-.65A6.32,6.32,0,0,1,69.2,82.3a3.75,3.75,0,0,1-.79-2.5A3.82,3.82,0,0,1,69.65,77a4.27,4.27,0,0,1,3.12-1.22,6.3,6.3,0,0,1,4.52,1.67l-1.62,2.05a3.78,3.78,0,0,0-2.9-1.27,2,2,0,0,0-1.32.42,1.31,1.31,0,0,0-.49,1,1.36,1.36,0,0,0,.38,1,3.92,3.92,0,0,0,1.26.76l1.72.68c2.17.87,3.28,2.29,3.32,4.24a4.13,4.13,0,0,1-1.38,3.22A5.35,5.35,0,0,1,72.56,90.83Z"/><path class="cls-1" d="M81.84,90.64V76h1.93L91,85.19V76h2.75V90.64H91.91L84.6,81.3v9.34Z"/><path class="cls-1" d="M99,90.64V76h2.75V90.64Z"/><path class="cls-1" d="M107,90.64V76h1.93l7.23,9.23V76h2.75V90.64h-1.84l-7.32-9.34v9.34Z"/><path class="cls-1" d="M133.12,84.51V82.06h5.26v1.25a7.51,7.51,0,0,1-1.08,3.89,7.37,7.37,0,0,1-2.78,2.71,7.57,7.57,0,0,1-3.74,1,7.62,7.62,0,1,1,0-15.24A7.23,7.23,0,0,1,136.28,78l-1.88,1.85a4.75,4.75,0,0,0-3.61-1.59,4.69,4.69,0,0,0-3.52,1.44,5.19,5.19,0,0,0,0,7.08,4.48,4.48,0,0,0,3.34,1.44,5.18,5.18,0,0,0,3.26-1,4.61,4.61,0,0,0,1.73-2.7Z"/><path class="cls-1" d="M146.51,90.83a7,7,0,0,1-2.77-.58,7.13,7.13,0,0,1-2.38-1.6l1.75-2.1a5.07,5.07,0,0,0,1.61,1.32,4.2,4.2,0,0,0,1.94.51,2.39,2.39,0,0,0,1.56-.5,1.59,1.59,0,0,0,.62-1.27,2.2,2.2,0,0,0-1.62-2l-1.63-.65a6.36,6.36,0,0,1-2.45-1.62A4,4,0,0,1,143.6,77a4.25,4.25,0,0,1,3.12-1.22,6.32,6.32,0,0,1,4.52,1.67l-1.62,2.05a3.78,3.78,0,0,0-2.9-1.27,2,2,0,0,0-1.32.42,1.32,1.32,0,0,0-.5,1,1.37,1.37,0,0,0,.39,1,3.92,3.92,0,0,0,1.26.76l1.71.68c2.18.87,3.29,2.29,3.33,4.24a4.13,4.13,0,0,1-1.38,3.22A5.37,5.37,0,0,1,146.51,90.83Z"/><path class="cls-1" d="M164.83,90.64V84.51h-6.29v6.13h-2.75V76h2.75v5.91h6.29V76h2.76V90.64Z"/><path class="cls-1" d="M182.15,89.32a6,6,0,0,1-8,0,5.21,5.21,0,0,1-1.58-3.88V76h2.75v9.12a3.37,3.37,0,0,0,.76,2.26,2.92,2.92,0,0,0,4.19,0,3.31,3.31,0,0,0,.75-2.23V76h2.76v9.48A5.18,5.18,0,0,1,182.15,89.32Z"/><path class="cls-1" d="M192.62,90.83a7,7,0,0,1-2.77-.58,7.13,7.13,0,0,1-2.38-1.6l1.75-2.1a5.23,5.23,0,0,0,1.62,1.32,4.16,4.16,0,0,0,1.93.51,2.42,2.42,0,0,0,1.57-.5,1.58,1.58,0,0,0,.61-1.27,2.2,2.2,0,0,0-1.61-2l-1.64-.65a6.32,6.32,0,0,1-2.44-1.62,3.75,3.75,0,0,1-.79-2.5A3.79,3.79,0,0,1,189.72,77a4.23,4.23,0,0,1,3.11-1.22,6.3,6.3,0,0,1,4.52,1.67l-1.62,2.05a3.78,3.78,0,0,0-2.9-1.27,2,2,0,0,0-1.32.42,1.31,1.31,0,0,0-.49,1,1.36,1.36,0,0,0,.38,1,3.92,3.92,0,0,0,1.26.76l1.72.68c2.17.87,3.28,2.29,3.32,4.24a4.13,4.13,0,0,1-1.38,3.22A5.35,5.35,0,0,1,192.62,90.83Z"/><path class="cls-1" d="M204.25,90.46a1.29,1.29,0,0,1-1,.43,1.27,1.27,0,0,1-1-.43,1.48,1.48,0,0,1-.4-1,1.53,1.53,0,0,1,.4-1.05,1.27,1.27,0,0,1,1-.43,1.31,1.31,0,0,1,1,.41,1.57,1.57,0,0,1,.41,1.07A1.44,1.44,0,0,1,204.25,90.46Zm-2-3.88L202,76.36h2.6l-.23,10.22Z"/></svg>