<svg id="Layer_1" data-name="Layer 1" xmlns="http://www.w3.org/2000/svg" viewBox="0 0 250 720"><defs><style>.cls-1{fill:#d4ac76;}</style></defs><title>text</title><path class="cls-1" d="M63.64,39.65H57.35V44h6.91v2.84H54.16v-17h9.9v2.84H57.35v4.14h6.29Z"/><path class="cls-1" d="M69.43,46.84v-17h4.85a8.33,8.33,0,0,1,6,2.43,8.18,8.18,0,0,1,2.5,6.13,8,8,0,0,1-2.54,6.07,8.69,8.69,0,0,1-6.16,2.38Zm4.89-14.17H72.38V44h2a4.9,4.9,0,0,0,3.76-1.65,5.77,5.77,0,0,0,1.51-4.05,5.6,5.6,0,0,0-1.53-4A5,5,0,0,0,74.32,32.68Z"/><path class="cls-1" d="M92.16,47.06A8.19,8.19,0,0,1,89,46.39a8.39,8.39,0,0,1-2.75-1.86l2-2.42a6.16,6.16,0,0,0,1.88,1.52,4.79,4.79,0,0,0,2.24.59,2.75,2.75,0,0,0,1.81-.58,1.83,1.83,0,0,0,.71-1.47A2.53,2.53,0,0,0,93,39.81l-1.9-.76a7.28,7.28,0,0,1-2.83-1.88,4.33,4.33,0,0,1-.91-2.89,4.42,4.42,0,0,1,1.44-3.23,4.94,4.94,0,0,1,3.61-1.42,7.33,7.33,0,0,1,5.24,1.94L95.77,34a4.38,4.38,0,0,0-3.36-1.48,2.27,2.27,0,0,0-1.53.49,1.52,1.52,0,0,0-.58,1.2,1.59,1.59,0,0,0,.45,1.17,4.52,4.52,0,0,0,1.46.88l2,.79Q98,38.52,98,41.91a4.76,4.76,0,0,1-1.6,3.72A6.19,6.19,0,0,1,92.16,47.06Z"/><path class="cls-1" d="M113.67,39.74V36.9h6.09l0,1.45a8.71,8.71,0,0,1-1.24,4.51A8.57,8.57,0,0,1,115.28,46a8.79,8.79,0,0,1-4.33,1.11,8.8,8.8,0,0,1-8.84-8.81A8.82,8.82,0,0,1,111,29.46a8.38,8.38,0,0,1,6.34,2.75l-2.18,2.15A5.5,5.5,0,0,0,111,32.52a5.42,5.42,0,0,0-4.07,1.66,6,6,0,0,0,0,8.2A5.19,5.19,0,0,0,110.77,44a6,6,0,0,0,3.78-1.18,5.39,5.39,0,0,0,2-3.13Z"/><path class="cls-1" d="M122.1,46.84l6.56-17h2.88l6.54,17h-3.28l-.9-2.35h-7.61l-.91,2.35Zm8-12.25-2.72,7.06h5.43Z"/><path class="cls-1" d="M138.73,32.9V29.84h14V32.9h-5.41V46.84h-3.19V32.9Z"/><path class="cls-1" d="M153.34,46.84l6.56-17h2.88l6.54,17H166l-.9-2.35h-7.61l-.91,2.35Zm8-12.25-2.72,7.06H164Z"/><path class="cls-1" d="M173.29,46.84v-17h2.24l8.37,10.69V29.84h3.19v17H185L176.48,36V46.84Z"/><path class="cls-1" d="M19.4,73.24v-17h2.24L30,66.93V56.24h3.19v17H31.06L22.59,62.42V73.24Z"/><path class="cls-1" d="M37.4,73.24l6.56-17h2.88l6.54,17H50.09l-.9-2.35H41.58l-.91,2.35Zm6.53-18.75a1.37,1.37,0,0,1-1,.45,1.4,1.4,0,0,1-1-.45,1.51,1.51,0,0,1-.43-1.09,1.48,1.48,0,0,1,1.48-1.52,1.4,1.4,0,0,1,1,.44,1.47,1.47,0,0,1,.43,1.08A1.53,1.53,0,0,1,43.92,54.49ZM45.4,61l-2.72,7.05H48.1ZM49,54.49a1.64,1.64,0,0,1-2.26,0,1.46,1.46,0,0,1-.47-1.09,1.42,1.42,0,0,1,.47-1.08,1.66,1.66,0,0,1,2.26,0,1.42,1.42,0,0,1,.47,1.08A1.46,1.46,0,0,1,49,54.49Z"/><path class="cls-1" d="M57.35,73.24v-17H64a5.73,5.73,0,0,1,4.1,1.54,5.29,5.29,0,0,1,1.64,4,5.11,5.11,0,0,1-1.22,3.45,5.47,5.47,0,0,1-3.17,1.81l4.57,6.17H66.33l-4.41-6.07H60.54v6.07Zm6.16-14.17h-3v5.54h3a3.15,3.15,0,0,0,2.21-.75,2.54,2.54,0,0,0,.83-2,2.67,2.67,0,0,0-.85-2A3,3,0,0,0,63.51,59.08Z"/><path class="cls-1" d="M72.82,73.24l6.56-17h2.88l6.54,17H85.51l-.9-2.35H77l-.91,2.35Zm8-12.25L78.1,68.05h5.42Z"/><path class="cls-1" d="M101.83,73.24v-17h2.95v7.5l6.51-7.5h3.94l-6,6.78,6.13,10.22h-3.67l-4.63-7.76-2.28,2.57v5.19Z"/><path class="cls-1" d="M118.47,73.24l6.56-17h2.88l6.54,17h-3.28l-.9-2.35h-7.61l-.91,2.35Zm8-12.25-2.72,7.05h5.42Z"/><path class="cls-1" d="M138.42,73.24v-17h6.65a5.73,5.73,0,0,1,4.1,1.54,5.29,5.29,0,0,1,1.64,4,5.11,5.11,0,0,1-1.22,3.45,5.47,5.47,0,0,1-3.17,1.81L151,73.24H147.4L143,67.17h-1.37v6.07Zm6.16-14.17h-3v5.54h3a3.15,3.15,0,0,0,2.21-.75,2.54,2.54,0,0,0,.83-2,2.67,2.67,0,0,0-.85-2A3,3,0,0,0,144.58,59.08Z"/><path class="cls-1" d="M155.78,73.24v-17H159V70.19h6.25v3.06Z"/><path class="cls-1" d="M174.4,73.46a8.18,8.18,0,0,1-3.21-.67,8.38,8.38,0,0,1-2.75-1.86l2-2.42A6.17,6.17,0,0,0,172.34,70a4.79,4.79,0,0,0,2.24.59,2.75,2.75,0,0,0,1.81-.58,1.83,1.83,0,0,0,.71-1.47,2.53,2.53,0,0,0-1.87-2.36l-1.9-.76a7.29,7.29,0,0,1-2.83-1.88,4.33,4.33,0,0,1-.91-2.89A4.42,4.42,0,0,1,171,57.46,4.93,4.93,0,0,1,174.64,56,7.32,7.32,0,0,1,179.88,58L178,60.35a4.38,4.38,0,0,0-3.36-1.48,2.27,2.27,0,0,0-1.53.49,1.52,1.52,0,0,0-.57,1.2,1.59,1.59,0,0,0,.45,1.17,4.54,4.54,0,0,0,1.46.88l2,.79q3.78,1.51,3.85,4.91a4.76,4.76,0,0,1-1.6,3.72A6.19,6.19,0,0,1,174.4,73.46Z"/><path class="cls-1" d="M183.45,59.3V56.24h14V59.3h-5.41V73.24h-3.19V59.3Z"/><path class="cls-1" d="M198.06,73.24l6.56-17h2.88l6.54,17h-3.28l-.9-2.35h-7.61l-.91,2.35Zm8-12.25-2.72,7.05h5.42Z"/><path class="cls-1" d="M218,73.24v-17h4.85a8.33,8.33,0,0,1,6,2.43,8.19,8.19,0,0,1,2.5,6.13,8,8,0,0,1-2.54,6.07,8.69,8.69,0,0,1-6.16,2.38Zm4.89-14.17H221V70.41h2a4.9,4.9,0,0,0,3.76-1.65,5.77,5.77,0,0,0,1.51-4.05,5.6,5.6,0,0,0-1.53-4A5,5,0,0,0,222.91,59.08Z"/><path class="cls-1" d="M78,97.25a8.49,8.49,0,0,1-6.3,2.68,8.59,8.59,0,0,1-6.28-2.57,8.8,8.8,0,0,1,0-12.47,8.86,8.86,0,0,1,12.55.07l-2.24,2.18a5.32,5.32,0,0,0-4-1.76,5.4,5.4,0,0,0-4,1.68,5.87,5.87,0,0,0,0,8.14,5.61,5.61,0,0,0,8.11-.1Z"/><path class="cls-1" d="M92.07,92.45H85.77v4.36h6.91v2.84H82.58v-17h9.9v2.84H85.77v4.14h6.29Z"/><path class="cls-1" d="M97.85,99.64v-17h2.24l8.37,10.69V82.64h3.19v17h-2.13L101,88.82V99.64Z"/><path class="cls-1" d="M115.76,85.7V82.64h14V85.7h-5.41V99.64h-3.19V85.7Z"/><path class="cls-1" d="M133.84,99.64v-17h6.65a5.73,5.73,0,0,1,4.1,1.54,5.29,5.29,0,0,1,1.64,4A5.11,5.11,0,0,1,145,91.66a5.47,5.47,0,0,1-3.17,1.81l4.57,6.17h-3.59l-4.41-6.07H137v6.07ZM140,85.48h-3V91h3a3.15,3.15,0,0,0,2.21-.75,2.54,2.54,0,0,0,.83-2,2.67,2.67,0,0,0-.85-2A3,3,0,0,0,140,85.48Z"/><path class="cls-1" d="M162,98.11a6.94,6.94,0,0,1-9.31,0,6,6,0,0,1-1.84-4.5v-11H154V93.2a3.9,3.9,0,0,0,.88,2.62,3.38,3.38,0,0,0,4.85,0,3.82,3.82,0,0,0,.88-2.59V82.64h3.19v11A6,6,0,0,1,162,98.11Z"/><path class="cls-1" d="M169.53,99.64v-17h3.08L177.87,91l5.32-8.38h3.34v17h-3.19V88l-.26,0-5.28,8.14-5.14-8h0V99.64Z"/></svg>