<svg id="Layer_1" data-name="Layer 1" xmlns="http://www.w3.org/2000/svg" viewBox="0 0 250 720"><defs><style>.cls-1{fill:#d80201;}</style></defs><title>text</title><path class="cls-1" d="M50.63,401.45a8.06,8.06,0,0,1-7.1-3.94l2.6-2.51a4.74,4.74,0,0,0,4.34,2.76,2.94,2.94,0,0,0,3.19-2.91c0-4.25-9.08-2.23-9.08-8.9,0-3.66,2.95-6,6.45-6a9.07,9.07,0,0,1,6,2.29L55,385a4.19,4.19,0,0,0-3.35-1.67c-1.33,0-2.88.84-2.88,2.33,0,3.5,9.08,1.77,9.08,9C57.82,398.84,54.72,401.45,50.63,401.45Z"/><path class="cls-1" d="M69,401.39a5.37,5.37,0,0,1-4.5-2.2v8.93H60.8V387.53h3.75v1.71a5.35,5.35,0,0,1,4.4-2.14c4,0,6.63,3.32,6.63,7.16S73,401.39,69,401.39Zm-1.12-10.91a3.77,3.77,0,1,0,3.75,3.75A3.74,3.74,0,0,0,67.93,390.47Z"/><path class="cls-1" d="M88.7,401v-1.77a5.19,5.19,0,0,1-4.37,2.2c-4,0-6.6-3.35-6.6-7.19s2.57-7.1,6.51-7.1a5.59,5.59,0,0,1,4.46,2.14v-1.71h3.78V401ZM82.22,385a2.23,2.23,0,1,1,0-4.46,2.23,2.23,0,1,1,0,4.46Zm3.13,5.46a3.77,3.77,0,1,0,3.75,3.75A3.74,3.74,0,0,0,85.35,390.47ZM88.67,385a2.26,2.26,0,0,1-2.23-2.23A2.23,2.23,0,1,1,88.67,385Z"/><path class="cls-1" d="M105.25,401v-7.44c0-1.83-.4-3.22-2.54-3.22-2.33,0-2.88,1.71-2.88,3.72V401H96.07V387.53h3.75v1.64a5,5,0,0,1,4.22-2.08,4.64,4.64,0,0,1,5,5.33V401Z"/><path class="cls-1" d="M121.77,401v-7.44c0-1.83-.4-3.22-2.54-3.22-2.33,0-2.88,1.71-2.88,3.72V401H112.6V387.53h3.75v1.64a5,5,0,0,1,4.22-2.08,4.64,4.64,0,0,1,5,5.33V401Z"/><path class="cls-1" d="M139.38,401v-1.77a5.19,5.19,0,0,1-4.37,2.2c-4,0-6.6-3.35-6.6-7.19s2.57-7.1,6.51-7.1a5.59,5.59,0,0,1,4.46,2.14v-1.71h3.78V401ZM136,390.47a3.77,3.77,0,1,0,3.75,3.75A3.74,3.74,0,0,0,136,390.47Z"/><path class="cls-1" d="M155.94,401v-7.44c0-1.83-.4-3.22-2.54-3.22-2.33,0-2.88,1.71-2.88,3.72V401h-3.75V387.53h3.75v1.64a5,5,0,0,1,4.22-2.08,4.64,4.64,0,0,1,5,5.33V401Z"/><path class="cls-1" d="M173.54,401v-1.77a5.19,5.19,0,0,1-4.37,2.2c-4,0-6.6-3.35-6.6-7.19s2.57-7.1,6.51-7.1a5.59,5.59,0,0,1,4.46,2.14v-11.5h3.78V401Zm-3.35-10.48a3.77,3.77,0,1,0,3.75,3.75A3.74,3.74,0,0,0,170.19,390.47Z"/><path class="cls-1" d="M184.05,394.84c.06,2.08,1.05,3.6,3.29,3.6a3.52,3.52,0,0,0,3.19-1.8l3.47.56a6.58,6.58,0,0,1-6.6,4.19c-4.34,0-7.19-2.79-7.19-7.16s2.73-7.13,7-7.13,6.85,3,6.85,7.26v.5Zm3.26-5.08a3,3,0,0,0-3.13,2.7h6.36A3.11,3.11,0,0,0,187.31,389.76Z"/><path class="cls-1" d="M197.69,405.29,195.3,405l3.29-8.34,3.47.4Z"/><path class="cls-1" d="M53.36,438v-1.77a5.19,5.19,0,0,1-4.37,2.2c-4,0-6.6-3.35-6.6-7.19s2.57-7.1,6.51-7.1a5.59,5.59,0,0,1,4.46,2.14v-1.71h3.78V438ZM50,427.47a3.77,3.77,0,1,0,3.75,3.75A3.74,3.74,0,0,0,50,427.47Z"/><path class="cls-1" d="M69.91,438v-7.44c0-1.83-.4-3.22-2.54-3.22-2.33,0-2.88,1.71-2.88,3.72V438H60.73V424.53h3.75v1.64a5,5,0,0,1,4.22-2.08,4.64,4.64,0,0,1,5,5.33V438Z"/><path class="cls-1" d="M86.43,438v-7.44c0-1.83-.4-3.22-2.54-3.22C81.57,427.29,81,429,81,431V438H77.26V424.53H81v1.64a5,5,0,0,1,4.22-2.08,4.64,4.64,0,0,1,5,5.33V438Z"/><path class="cls-1" d="M100.76,438.39c-4.28,0-7.69-2.67-7.69-7.13s3.41-7.16,7.72-7.16,7.63,2.7,7.63,7.13S105,438.39,100.76,438.39Zm0-10.91a3.77,3.77,0,1,0,3.81,3.78A3.8,3.8,0,0,0,100.73,427.47Z"/><path class="cls-1" d="M120.07,427.94a3.32,3.32,0,0,0-1.8-.46c-2.54,0-3.22,1.8-3.22,4V438h-3.75V424.53H115v2a4.38,4.38,0,0,1,5.55-2.14Z"/><path class="cls-1" d="M122.45,438V414.73h3.75V438Z"/><path class="cls-1" d="M136.28,438.39c-3.69,0-6.48-1.64-6.48-5.64v-8.22h3.75v7.6c0,1.83.78,3.07,2.73,3.07S139,434,139,432.12v-7.6h3.78v8.22C142.79,436.74,140,438.39,136.28,438.39Z"/><path class="cls-1" d="M155.56,438v-7.44c0-1.83-.4-3.22-2.54-3.22-2.33,0-2.88,1.71-2.88,3.72V438h-3.75V424.53h3.75v1.64a5,5,0,0,1,4.22-2.08,4.64,4.64,0,0,1,5,5.33V438Z"/><path class="cls-1" d="M173.17,438v-1.77a5.19,5.19,0,0,1-4.37,2.2c-4,0-6.6-3.35-6.6-7.19s2.57-7.1,6.51-7.1a5.59,5.59,0,0,1,4.46,2.14v-11.5H177V438Zm-3.35-10.48a3.77,3.77,0,1,0,3.75,3.75A3.74,3.74,0,0,0,169.82,427.47Z"/><path class="cls-1" d="M190.81,438v-1.77a5.19,5.19,0,0,1-4.37,2.2c-4,0-6.6-3.35-6.6-7.19s2.57-7.1,6.51-7.1a5.59,5.59,0,0,1,4.46,2.14v-1.71h3.78V438Zm-3.35-10.48a3.77,3.77,0,1,0,3.75,3.75A3.74,3.74,0,0,0,187.46,427.47Z"/><path class="cls-1" d="M200.26,438.36a2.42,2.42,0,1,1,2.42-2.42A2.42,2.42,0,0,1,200.26,438.36ZM198.34,432V417.27h3.84V432Z"/></svg>