<svg id="Layer_1" data-name="Layer 1" xmlns="http://www.w3.org/2000/svg" viewBox="0 0 250 720"><defs><style>.cls-1{fill:#d80201;}</style></defs><title>text</title><path class="cls-1" d="M32.71,525.22a3.76,3.76,0,0,1-2.56.73H27.49V515.28h1.93a3.67,3.67,0,0,1,2.41.67,2.87,2.87,0,0,1,1,2.22,2.45,2.45,0,0,1-1.05,2.08,2.69,2.69,0,0,1,2,2.69A2.93,2.93,0,0,1,32.71,525.22Zm-3.1-8.82h-.93V520h.9a2.21,2.21,0,0,0,1.52-.4,1.79,1.79,0,0,0,.56-1.39C31.66,516.86,30.82,516.4,29.61,516.4Zm2.09,4.93A3.37,3.37,0,0,0,30,521H28.68v3.84h1.49a2.58,2.58,0,0,0,1.74-.47,1.86,1.86,0,0,0,.69-1.47A1.83,1.83,0,0,0,31.7,521.33Z"/><path class="cls-1" d="M36.25,517.61a.82.82,0,0,1-.82-.81.82.82,0,1,1,1.63,0A.81.81,0,0,1,36.25,517.61Zm-.58,12.09V519.31h1.14V529.7Z"/><path class="cls-1" d="M42.09,526.14a3.5,3.5,0,1,1,3.5-3.48A3.47,3.47,0,0,1,42.09,526.14Zm0-5.95a2.46,2.46,0,1,0,2.35,2.47A2.33,2.33,0,0,0,42.07,520.19ZM40.69,518a.82.82,0,0,1-.8-.8.81.81,0,1,1,.8.8Zm2.79,0a.82.82,0,0,1-.8-.8.8.8,0,1,1,.8.8Z"/><path class="cls-1" d="M50.46,520.46a1,1,0,0,0-.68-.22,1.26,1.26,0,0,0-.57.14c-.74.4-.74,1.35-.74,2.07V526H47.33v-6.64h1.14V520a1.77,1.77,0,0,1,1.51-.88,1.9,1.9,0,0,1,1,.27Z"/><path class="cls-1" d="M56.17,526l-2.69-3-.29.28V526H52.05V514.28h1.14v7.48l2.42-2.45h1.52l-2.85,2.82L57.66,526Z"/><path class="cls-1" d="M63,526v-4c0-1-.24-1.73-1.37-1.73-1.49,0-1.68,1.25-1.68,2.45V526H58.79V514.28h1.14v5.8a2.43,2.43,0,0,1,3.81,0,3.14,3.14,0,0,1,.38,1.78V526Z"/><path class="cls-1" d="M71.37,526V525a2.84,2.84,0,0,1-2.31,1.12,3.29,3.29,0,0,1-3.2-3.53,3.23,3.23,0,0,1,3.19-3.46,2.82,2.82,0,0,1,2.32,1.1v-.94H72.5V526Zm-2.15-5.78a2.48,2.48,0,1,0,2.21,2.44A2.24,2.24,0,0,0,69.22,520.17Z"/><path class="cls-1" d="M80.26,528.42a3.2,3.2,0,0,1-2.65,1.23,3,3,0,0,1-3.24-3h1.14a2,2,0,0,0,2.11,2c1.6,0,2.13-1.21,2.13-2.63v-1a3,3,0,0,1-2.33,1.11,3.5,3.5,0,0,1,0-7,2.84,2.84,0,0,1,2.29,1.09v-.93H80.9v6.5A4,4,0,0,1,80.26,528.42Zm-2.67-8.25a2.29,2.29,0,0,0-2.18,2.52,2.24,2.24,0,0,0,2.18,2.41,2.48,2.48,0,0,0,0-4.93Z"/><path class="cls-1" d="M84.87,526.14a2.37,2.37,0,0,1-2.32-1.69l1-.42a1.48,1.48,0,0,0,1.35,1.07,1,1,0,0,0,1.09-1c0-1.44-3-1-3-3a1.87,1.87,0,0,1,1.94-1.86,2,2,0,0,1,1.82,1.2l-.94.5a1.07,1.07,0,0,0-.93-.66.79.79,0,0,0-.8.74c0,1.16,3.07.86,3.07,3A2.17,2.17,0,0,1,84.87,526.14Z"/><path class="cls-1" d="M91,526.38l-3.26-7.07H89l2,4.47,2-4.47h1.28Z"/><path class="cls-1" d="M100.52,526V525a2.84,2.84,0,0,1-2.31,1.12,3.29,3.29,0,0,1-3.2-3.53,3.23,3.23,0,0,1,3.19-3.46,2.81,2.81,0,0,1,2.32,1.1v-.94h1.14V526Zm-2.15-5.78a2.48,2.48,0,1,0,2.21,2.44A2.24,2.24,0,0,0,98.37,520.17ZM97.05,518a.81.81,0,0,1-.8-.8.8.8,0,1,1,.8.8Zm2.78,0a.82.82,0,0,1-.8-.8.8.8,0,1,1,.8.8Z"/><path class="cls-1" d="M109.42,528.42a3.24,3.24,0,0,1-2.66,1.23,3,3,0,0,1-3.24-3h1.14a2,2,0,0,0,2.11,2c1.61,0,2.13-1.21,2.13-2.63v-1a3,3,0,0,1-2.33,1.11,3.5,3.5,0,0,1,0-7,2.84,2.84,0,0,1,2.29,1.09v-.93h1.16v6.5A4.05,4.05,0,0,1,109.42,528.42Zm-2.68-8.25a2.28,2.28,0,0,0-2.17,2.52,2.23,2.23,0,0,0,2.17,2.41,2.48,2.48,0,0,0,0-4.93Z"/><path class="cls-1" d="M113,522.86a2.14,2.14,0,0,0,2.11,2.24,2.3,2.3,0,0,0,2-1.37l1,.53a3.31,3.31,0,0,1-3,1.88,3.5,3.5,0,0,1-.07-7c2,0,3.17,1.57,3.17,3.49v.22Zm2-2.67a2,2,0,0,0-2,1.71H117A2,2,0,0,0,115.05,520.19Z"/><path class="cls-1" d="M124.1,526V522c0-1-.14-1.86-1.39-1.86-1.47,0-1.65,1.28-1.65,2.45V526h-1.14v-6.64h1.14v.8a2.23,2.23,0,0,1,1.92-1,2.26,2.26,0,0,1,1.89.91,3,3,0,0,1,.38,1.76V526Z"/><path class="cls-1" d="M135.75,522.35l-2.19,2.5H138V526h-6.9l3.89-4.5c.72-.83,1.84-2,1.84-3.18a2.13,2.13,0,1,0-4.26.13h-1.2a4.11,4.11,0,0,1,.23-1.2,3.33,3.33,0,0,1,6.42,1.09C138.06,519.89,136.74,521.23,135.75,522.35Z"/><path class="cls-1" d="M146.38,524.21V526h-1.19v-1.74h-5.47l6.66-9.53v8.44h1.31v1.09Zm-1.19-5.91-3.38,4.82h3.38Z"/><path class="cls-1" d="M149.62,528.39l-.75-.31,1.31-3.7,1.06.39Z"/><path class="cls-1" d="M160.21,526.14a3.25,3.25,0,0,1-3.29-2.75l1.15-.32a2.16,2.16,0,0,0,2.18,1.95,2.1,2.1,0,0,0,2.14-2.11c0-2.51-4.93-1.92-4.93-5.06a2.82,2.82,0,0,1,3-2.75,3.05,3.05,0,0,1,2.76,1.66l-1,.63a2,2,0,0,0-1.82-1.17,1.7,1.7,0,0,0-1.78,1.63c0,2.21,4.93,1.57,4.93,5A3.29,3.29,0,0,1,160.21,526.14Z"/><path class="cls-1" d="M166.05,517.61a.81.81,0,0,1-.81-.81.82.82,0,0,1,.81-.82.82.82,0,0,1,.82.82A.82.82,0,0,1,166.05,517.61Zm-.57,12.09V519.31h1.13V529.7Z"/><path class="cls-1" d="M171.89,526.14a3.5,3.5,0,1,1,3.51-3.48A3.47,3.47,0,0,1,171.89,526.14Zm0-5.95a2.46,2.46,0,1,0,2.35,2.47A2.33,2.33,0,0,0,171.88,520.19ZM170.5,518a.82.82,0,0,1-.8-.8.8.8,0,1,1,.8.8Zm2.79,0a.81.81,0,0,1-.8-.8.8.8,0,1,1,.8.8Z"/><path class="cls-1" d="M184.71,526v-4c0-.85-.14-1.75-1.2-1.75s-1.42,1.12-1.42,2.08V526H181V522c0-.83-.18-1.84-1.22-1.84a1.39,1.39,0,0,0-1.2.72,3.23,3.23,0,0,0-.25,1.44V526h-1.14v-6.64h1.14v.7a1.9,1.9,0,0,1,1.64-.86,2,2,0,0,1,1.83,1.07,2.26,2.26,0,0,1,3.73-.17,3.09,3.09,0,0,1,.37,1.69V526Z"/><path class="cls-1" d="M193.09,526V525a2.81,2.81,0,0,1-2.3,1.12,3.28,3.28,0,0,1-3.2-3.53,3.23,3.23,0,0,1,3.18-3.46,2.8,2.8,0,0,1,2.32,1.1v-.94h1.14V526ZM191,520.17a2.48,2.48,0,1,0,2.21,2.44A2.24,2.24,0,0,0,191,520.17Z"/><path class="cls-1" d="M199.52,520.46a1,1,0,0,0-.67-.22,1.26,1.26,0,0,0-.57.14c-.74.4-.74,1.35-.74,2.07V526H196.4v-6.64h1.14V520a1.77,1.77,0,0,1,1.5-.88,1.91,1.91,0,0,1,1,.27Z"/><path class="cls-1" d="M205.24,526l-2.69-3-.29.28V526h-1.14V514.28h1.14v7.48l2.42-2.45h1.52l-2.85,2.82,3.38,3.82Z"/><path class="cls-1" d="M208.28,522.86a2.14,2.14,0,0,0,2.11,2.24,2.3,2.3,0,0,0,2.05-1.37l1,.53a3.31,3.31,0,0,1-3,1.88,3.5,3.5,0,0,1-.07-7c2,0,3.17,1.57,3.17,3.49v.22Zm2.05-2.67a2,2,0,0,0-2,1.71h3.9A2,2,0,0,0,210.33,520.19Z"/><path class="cls-1" d="M219.38,526V522c0-1-.14-1.86-1.39-1.86-1.47,0-1.65,1.28-1.65,2.45V526H215.2v-6.64h1.14v.8a2.23,2.23,0,0,1,1.92-1,2.26,2.26,0,0,1,1.89.91,3,3,0,0,1,.38,1.76V526Z"/><path class="cls-1" d="M33.93,552.14a3.25,3.25,0,0,1-3.3-2.75l1.15-.32A2.17,2.17,0,0,0,34,551a2.1,2.1,0,0,0,2.14-2.11c0-2.51-4.93-1.92-4.93-5.06a2.83,2.83,0,0,1,3-2.75,3,3,0,0,1,2.75,1.66l-.94.63a2,2,0,0,0-1.83-1.17,1.69,1.69,0,0,0-1.77,1.63c0,2.21,4.93,1.57,4.93,5A3.29,3.29,0,0,1,33.93,552.14Z"/><path class="cls-1" d="M42.28,552.14a3.5,3.5,0,1,1,3.51-3.48A3.47,3.47,0,0,1,42.28,552.14Zm0-5.95a2.46,2.46,0,1,0,2.36,2.47A2.32,2.32,0,0,0,42.26,546.19ZM40.89,544a.82.82,0,0,1-.8-.8.8.8,0,1,1,.8.8Zm2.78,0a.82.82,0,0,1-.8-.8.8.8,0,1,1,.8.8Z"/><path class="cls-1" d="M51.7,552V548c0-1-.14-1.86-1.39-1.86-1.47,0-1.65,1.28-1.65,2.45V552H47.53v-6.64h1.13v.8a2.41,2.41,0,0,1,3.81-.05,3,3,0,0,1,.39,1.76V552Z"/><path class="cls-1" d="M60.1,552V551a2.82,2.82,0,0,1-2.3,1.12,3.51,3.51,0,0,1,0-7,2.85,2.85,0,0,1,2.32,1.1v-6h1.14V552ZM58,546.19a2.47,2.47,0,1,0,2.21,2.42A2.23,2.23,0,0,0,58,546.19Z"/><path class="cls-1" d="M68.49,552V551a2.84,2.84,0,0,1-2.31,1.12,3.29,3.29,0,0,1-3.2-3.53,3.23,3.23,0,0,1,3.19-3.46,2.82,2.82,0,0,1,2.32,1.1v-.94h1.13V552Zm-2.15-5.78a2.48,2.48,0,1,0,2.21,2.44A2.24,2.24,0,0,0,66.34,546.17Z"/><path class="cls-1" d="M77.38,554.42a3.2,3.2,0,0,1-2.65,1.23,3,3,0,0,1-3.24-3h1.14a2,2,0,0,0,2.11,2c1.6,0,2.13-1.21,2.13-2.63v-1a3,3,0,0,1-2.33,1.11,3.5,3.5,0,0,1,0-7,2.84,2.84,0,0,1,2.29,1.09v-.93H78v6.5A4,4,0,0,1,77.38,554.42Zm-2.67-8.25a2.29,2.29,0,0,0-2.18,2.52,2.24,2.24,0,0,0,2.18,2.41,2.48,2.48,0,0,0,0-4.93Z"/><path class="cls-1" d="M88.52,548.35l-2.19,2.5h4.48V552h-6.9l3.89-4.5c.72-.83,1.84-2,1.84-3.18a2.13,2.13,0,1,0-4.26.13h-1.2a4.11,4.11,0,0,1,.23-1.2,3.33,3.33,0,0,1,6.41,1.09C90.82,545.89,89.51,547.23,88.52,548.35Z"/><path class="cls-1" d="M99.06,552.14a2.37,2.37,0,0,1-2.32-1.69l1-.42c.28.59.64,1.07,1.35,1.07a1,1,0,0,0,1.09-1c0-1.44-3-1-3-3a1.87,1.87,0,0,1,1.94-1.86,2,2,0,0,1,1.83,1.2l-1,.5a1.07,1.07,0,0,0-.93-.66.79.79,0,0,0-.8.74c0,1.16,3.08.86,3.08,3A2.18,2.18,0,0,1,99.06,552.14Z"/><path class="cls-1" d="M103.64,548.86a2.14,2.14,0,0,0,2.11,2.24,2.3,2.3,0,0,0,2-1.37l1,.53a3.31,3.31,0,0,1-3,1.88,3.5,3.5,0,0,1-.07-7c2,0,3.17,1.57,3.17,3.49v.22Zm2-2.67a2,2,0,0,0-2,1.71h3.9A2,2,0,0,0,105.69,546.19Z"/><path class="cls-1" d="M114,552.14A2.87,2.87,0,0,1,111.7,551v4.68h-1.13V545.31h1.13v.93a2.89,2.89,0,0,1,2.31-1.09,3.29,3.29,0,0,1,3.2,3.52A3.25,3.25,0,0,1,114,552.14Zm-.17-6a2.29,2.29,0,0,0-2.21,2.5,2.21,2.21,0,1,0,4.4,0A2.3,2.3,0,0,0,113.85,546.17Z"/><path class="cls-1" d="M120.1,546.37V552H119v-5.58h-.69v-1.06H119v-2.4h1.15v2.4h1.17v1.06Z"/><path class="cls-1" d="M123.14,548.86a2.15,2.15,0,0,0,2.11,2.24,2.29,2.29,0,0,0,2-1.37l1,.53a3.31,3.31,0,0,1-3,1.88,3.5,3.5,0,0,1-.06-7,3.18,3.18,0,0,1,3.17,3.49v.22Zm2-2.67a2,2,0,0,0-2,1.71h3.91A2,2,0,0,0,125.19,546.19Z"/><path class="cls-1" d="M137.64,552v-4c0-.85-.14-1.75-1.2-1.75s-1.43,1.12-1.43,2.08V552h-1.13V548c0-.83-.18-1.84-1.22-1.84a1.38,1.38,0,0,0-1.2.72,3.23,3.23,0,0,0-.25,1.44V552h-1.14v-6.64h1.14v.7a1.9,1.9,0,0,1,1.64-.86,2,2,0,0,1,1.83,1.07,2.26,2.26,0,0,1,3.73-.17,3.09,3.09,0,0,1,.37,1.69V552Z"/><path class="cls-1" d="M144.39,552.14a2.85,2.85,0,0,1-2.31-1.12V552H141V540.28h1.13v6a2.89,2.89,0,0,1,2.33-1.1,3.51,3.51,0,0,1,0,7Zm-.16-5.95a2.24,2.24,0,0,0-2.21,2.45,2.21,2.21,0,1,0,2.21-2.45Z"/><path class="cls-1" d="M150.1,548.86a2.15,2.15,0,0,0,2.11,2.24,2.29,2.29,0,0,0,2-1.37l1,.53a3.31,3.31,0,0,1-3,1.88,3.5,3.5,0,0,1-.06-7,3.18,3.18,0,0,1,3.17,3.49v.22Zm2.05-2.67a2,2,0,0,0-2,1.71h3.91A2,2,0,0,0,152.15,546.19Z"/><path class="cls-1" d="M160.15,546.46a1,1,0,0,0-.67-.22,1.34,1.34,0,0,0-.58.14c-.73.4-.73,1.35-.73,2.07V552H157v-6.64h1.14V546a1.76,1.76,0,0,1,1.5-.88,1.9,1.9,0,0,1,1,.27Z"/><path class="cls-1" d="M169.86,552l-2.69-3-.29.28V552h-1.13V540.28h1.13v7.48l2.42-2.45h1.52L168,548.13l3.38,3.82Z"/><path class="cls-1" d="M172.48,552V540.28h1.14V552Z"/><path class="cls-1" d="M183,552V542.4h-1.78l.63-1.12h2.33V552Z"/><path class="cls-1" d="M193.19,548.35l-2.19,2.5h4.48V552h-6.9l3.89-4.5c.72-.83,1.84-2,1.84-3.18a2.13,2.13,0,1,0-4.26.13h-1.2a4.11,4.11,0,0,1,.23-1.2,3.33,3.33,0,0,1,6.41,1.09C195.49,545.89,194.18,547.23,193.19,548.35Z"/><path class="cls-1" d="M196.85,549.06v-1h2.9v1Z"/><path class="cls-1" d="M204,552V542.4h-1.78l.63-1.12h2.33V552Z"/><path class="cls-1" d="M215.78,550.21V552H214.6v-1.74h-5.48l6.66-9.53v8.44h1.31v1.09Zm-1.18-5.91-3.38,4.82h3.38Z"/></svg>