<svg id="Layer_1" data-name="Layer 1" xmlns="http://www.w3.org/2000/svg" viewBox="0 0 250 720"><defs><style>.cls-1{fill:#d80201;}</style></defs><title>text</title><path class="cls-1" d="M28.61,401.45a8.05,8.05,0,0,1-7.1-3.94l2.6-2.51a4.74,4.74,0,0,0,4.34,2.76,2.94,2.94,0,0,0,3.19-2.91c0-4.25-9.08-2.23-9.08-8.9,0-3.66,2.95-6,6.45-6a9.07,9.07,0,0,1,6,2.29L33,385a4.19,4.19,0,0,0-3.35-1.67c-1.33,0-2.88.84-2.88,2.33,0,3.5,9.08,1.77,9.08,9C35.81,398.84,32.71,401.45,28.61,401.45Z"/><path class="cls-1" d="M45.26,401.39c-3.69,0-6.48-1.64-6.48-5.64v-8.22h3.75v7.6c0,1.83.77,3.07,2.73,3.07S48,397,48,395.12v-7.6h3.78v8.22C51.77,399.74,48.95,401.39,45.26,401.39Z"/><path class="cls-1" d="M62,401.39a7.07,7.07,0,0,1-7.32-7.1A7.16,7.16,0,0,1,62,387.09a6.92,6.92,0,0,1,3.41.81v3.72a4.63,4.63,0,0,0-3-1.15,3.77,3.77,0,1,0,0,7.53,4.57,4.57,0,0,0,3-1.15v3.69A7.18,7.18,0,0,1,62,401.39Z"/><path class="cls-1" d="M74.9,401.39a7.07,7.07,0,0,1-7.32-7.1A7.16,7.16,0,0,1,75,387.09a6.92,6.92,0,0,1,3.41.81v3.72a4.63,4.63,0,0,0-3-1.15,3.77,3.77,0,1,0,0,7.53,4.57,4.57,0,0,0,3-1.15v3.69A7.18,7.18,0,0,1,74.9,401.39Z"/><path class="cls-1" d="M84.35,394.84c.06,2.08,1.05,3.6,3.29,3.6a3.52,3.52,0,0,0,3.19-1.8l3.47.56a6.58,6.58,0,0,1-6.6,4.19c-4.34,0-7.19-2.79-7.19-7.16s2.73-7.13,7-7.13,6.85,3,6.85,7.26v.5Zm3.26-5.08a3,3,0,0,0-3.13,2.7h6.36A3.11,3.11,0,0,0,87.61,389.76Zm.06-4.59-1.77-1.24,3.69-4.68L92.32,381Z"/><path class="cls-1" d="M104.1,401.23h-1.74l-6.85-13.7h4.22l3.54,7.57,3.53-7.57H111Z"/><path class="cls-1" d="M114.67,384.12a2.26,2.26,0,1,1,0-4.53,2.26,2.26,0,0,1,0,4.53ZM112.78,401V387.53h3.75V401Z"/><path class="cls-1" d="M124.34,401.39a7.14,7.14,0,0,1-5.12-2.23l2-2.29a4.36,4.36,0,0,0,3.16,1.58,1.58,1.58,0,0,0,1.71-1.49c0-2.29-6-1.15-6-5.67,0-2.73,2.26-4.25,4.81-4.25a6.91,6.91,0,0,1,4.37,1.43l-1.86,2.2a3.74,3.74,0,0,0-2.23-.9c-.65,0-1.43.4-1.43,1.15,0,2,6.2,1.08,6.2,5.67C130,399.71,127.22,401.39,124.34,401.39Z"/><path class="cls-1" d="M141.79,401v-7.44c0-1.83-.4-3.22-2.54-3.22-2.33,0-2.88,1.71-2.88,3.72V401h-3.75V387.53h3.75v1.64a5,5,0,0,1,4.22-2.08,4.64,4.64,0,0,1,5,5.33V401Z"/><path class="cls-1" d="M151,384.12a2.26,2.26,0,1,1,0-4.53,2.26,2.26,0,0,1,0,4.53ZM149.08,401V387.53h3.75V401Z"/><path class="cls-1" d="M165.54,401v-7.44c0-1.83-.4-3.22-2.54-3.22-2.33,0-2.88,1.71-2.88,3.72V401h-3.75V387.53h3.75v1.64a5,5,0,0,1,4.22-2.08,4.64,4.64,0,0,1,5,5.33V401Z"/><path class="cls-1" d="M185.35,405.82a7.32,7.32,0,0,1-5.71,2.36c-3.44,0-6.76-2-7.13-5.64h4.06a3,3,0,0,0,3.19,2.45c2.36,0,3.32-1.64,3.32-3.81v-2a5.58,5.58,0,0,1-4.53,2.23c-4,0-6.39-3.19-6.39-7s2.48-7.32,6.57-7.32a5,5,0,0,1,4.34,2.17v-1.74h3.78v12.93C186.87,402.57,186.77,404.15,185.35,405.82Zm-5.55-15.35a3.77,3.77,0,1,0,3.75,3.75A3.75,3.75,0,0,0,179.8,390.47Z"/><path class="cls-1" d="M208.47,401v-1.77a5.19,5.19,0,0,1-4.37,2.2c-4,0-6.6-3.35-6.6-7.19s2.57-7.1,6.51-7.1a5.6,5.6,0,0,1,4.46,2.14v-1.71h3.78V401Zm-3.35-10.48a3.77,3.77,0,1,0,3.75,3.75A3.75,3.75,0,0,0,205.12,390.47Z"/><path class="cls-1" d="M222.67,401.23h-1.74l-6.85-13.7h4.22l3.53,7.57,3.54-7.57h4.22Z"/><path class="cls-1" d="M28.92,427.75V438H25.17v-10.2H23.71v-3.22h1.46v-4.31a6.55,6.55,0,0,1,.59-3.16,5.32,5.32,0,0,1,4.65-2.7,4.45,4.45,0,0,1,2,.46v3.44a3.75,3.75,0,0,0-1.71-.5c-1.67,0-1.77,1.74-1.77,3v3.75H32.4v3.22Z"/><path class="cls-1" d="M42.9,427.94a3.32,3.32,0,0,0-1.8-.46c-2.54,0-3.22,1.8-3.22,4V438H34.13V424.53h3.75v2a4.38,4.38,0,0,1,5.55-2.14Z"/><path class="cls-1" d="M55.55,438v-1.77a5.19,5.19,0,0,1-4.37,2.2c-4,0-6.6-3.35-6.6-7.19s2.57-7.1,6.51-7.1a5.59,5.59,0,0,1,4.46,2.14v-1.71h3.78V438ZM52.2,427.47A3.77,3.77,0,1,0,56,431.22,3.75,3.75,0,0,0,52.2,427.47Z"/><path class="cls-1" d="M80.07,438V430.6c0-1.58-.25-3.32-2.23-3.32-2.2,0-2.57,2-2.57,3.78V438H71.52v-7.13a6,6,0,0,0-.28-2.23,2.17,2.17,0,0,0-2-1.3,2.45,2.45,0,0,0-2.11,1.21,5.57,5.57,0,0,0-.43,2.57V438H62.93V424.53h3.75V426a5.16,5.16,0,0,1,4.09-2A4.56,4.56,0,0,1,75,426.54a5,5,0,0,1,4.4-2.45A4.42,4.42,0,0,1,83.11,426a5.91,5.91,0,0,1,.71,3.26V438Z"/><path class="cls-1" d="M91.2,427.75V438H87.45v-10.2H86v-3.22h1.49v-4.59H91.2v4.59h2.64v3.22Z"/><path class="cls-1" d="M97.62,421.12a2.26,2.26,0,1,1,0-4.53,2.26,2.26,0,0,1,0,4.53ZM95.73,438V424.53h3.75V438Z"/><path class="cls-1" d="M113.27,438v-1.77a5.19,5.19,0,0,1-4.37,2.2c-4,0-6.6-3.35-6.6-7.19s2.57-7.1,6.51-7.1a5.6,5.6,0,0,1,4.46,2.14v-11.5h3.78V438Zm-3.35-10.48a3.77,3.77,0,1,0,3.75,3.75A3.75,3.75,0,0,0,109.92,427.47Z"/><path class="cls-1" d="M123.78,431.84c.06,2.08,1.05,3.6,3.29,3.6a3.52,3.52,0,0,0,3.19-1.8l3.47.56a6.58,6.58,0,0,1-6.6,4.19c-4.34,0-7.19-2.79-7.19-7.16s2.73-7.13,7-7.13,6.85,3,6.85,7.26v.5Zm3.26-5.08a3,3,0,0,0-3.13,2.7h6.36A3.11,3.11,0,0,0,127,426.76Z"/><path class="cls-1" d="M145.88,438v-7.44c0-1.83-.4-3.22-2.54-3.22-2.33,0-2.88,1.71-2.88,3.72V438h-3.75V424.53h3.75v1.64a5,5,0,0,1,4.22-2.08,4.64,4.64,0,0,1,5,5.33V438Z"/><path class="cls-1" d="M157.51,438.39a7.14,7.14,0,0,1-5.12-2.23l2-2.29a4.36,4.36,0,0,0,3.16,1.58,1.58,1.58,0,0,0,1.71-1.49c0-2.29-6-1.15-6-5.67,0-2.73,2.26-4.25,4.81-4.25a6.92,6.92,0,0,1,4.37,1.43l-1.86,2.2a3.75,3.75,0,0,0-2.23-.9c-.65,0-1.43.4-1.43,1.15,0,2,6.2,1.08,6.2,5.67C163.12,436.71,160.39,438.39,157.51,438.39Z"/><path class="cls-1" d="M180.35,438.23h-1.74l-6.85-13.7H176l3.54,7.57,3.53-7.57h4.22Z"/><path class="cls-1" d="M190.93,421.12a2.26,2.26,0,1,1,0-4.53,2.26,2.26,0,0,1,0,4.53ZM189,438V424.53h3.75V438Z"/><path class="cls-1" d="M196.32,438V414.73h3.75V438Z"/><path class="cls-1" d="M203.67,438V414.73h3.75V438Z"/><path class="cls-1" d="M221.27,438v-1.77a5.19,5.19,0,0,1-4.37,2.2c-4,0-6.6-3.35-6.6-7.19s2.57-7.1,6.51-7.1a5.59,5.59,0,0,1,4.46,2.14v-1.71h3.78V438Zm-3.35-10.48a3.77,3.77,0,1,0,3.75,3.75A3.75,3.75,0,0,0,217.93,427.47Z"/></svg>