<svg id="Layer_1" data-name="Layer 1" xmlns="http://www.w3.org/2000/svg" viewBox="0 0 250 720"><defs><style>.cls-1{fill:#d80201;}</style></defs><title>text</title><path class="cls-1" d="M59.09,526l-4.37-4.9-.31.31V526H53.23V515.28h1.18v4.57L59,515.28h1.6l-5,5,5.15,5.7Z"/><path class="cls-1" d="M64.33,526.38l-3.26-7.07h1.28l2,4.47,2-4.47h1.28Z"/><path class="cls-1" d="M73.65,526V525a2.84,2.84,0,0,1-2.31,1.12,3.29,3.29,0,0,1-3.2-3.53,3.23,3.23,0,0,1,3.19-3.46,2.82,2.82,0,0,1,2.32,1.1v-.94h1.13V526Zm-2.15-5.78a2.48,2.48,0,1,0,2.21,2.44A2.24,2.24,0,0,0,71.5,520.17Z"/><path class="cls-1" d="M80.08,520.46a1,1,0,0,0-.67-.22,1.3,1.3,0,0,0-.58.14c-.74.4-.74,1.35-.74,2.07V526H77v-6.64h1.13V520a1.79,1.79,0,0,1,1.51-.88,1.9,1.9,0,0,1,1,.27Z"/><path class="cls-1" d="M85.85,526V522c0-1-.14-1.86-1.39-1.86-1.47,0-1.65,1.28-1.65,2.45V526H81.68v-6.64h1.13v.8a2.41,2.41,0,0,1,3.81-.05,3,3,0,0,1,.39,1.76V526Z"/><path class="cls-1" d="M94.77,528.42a3.24,3.24,0,0,1-2.66,1.23,3,3,0,0,1-3.23-3H90a2,2,0,0,0,2.12,2c1.6,0,2.13-1.21,2.13-2.63v-1a3,3,0,0,1-2.34,1.11,3.5,3.5,0,0,1,0-7,2.87,2.87,0,0,1,2.29,1.09v-.93h1.15v6.5A4.05,4.05,0,0,1,94.77,528.42Zm-2.68-8.25a2.29,2.29,0,0,0-2.17,2.52,2.23,2.23,0,0,0,2.17,2.41,2.48,2.48,0,0,0,0-4.93Z"/><path class="cls-1" d="M102.66,526V525a2.84,2.84,0,0,1-2.31,1.12,3.29,3.29,0,0,1-3.2-3.53,3.23,3.23,0,0,1,3.18-3.46,2.83,2.83,0,0,1,2.33,1.1v-.94h1.13V526Zm-2.15-5.78a2.48,2.48,0,1,0,2.21,2.44A2.24,2.24,0,0,0,100.51,520.17Z"/><path class="cls-1" d="M107.12,520.37V526H106v-5.58h-.68v-1.06H106v-2.4h1.16v2.4h1.17v1.06Z"/><path class="cls-1" d="M114.46,526V525a2.82,2.82,0,0,1-2.3,1.12,3.28,3.28,0,0,1-3.2-3.53,3.23,3.23,0,0,1,3.18-3.46,2.8,2.8,0,0,1,2.32,1.1v-.94h1.14V526Zm-2.14-5.78a2.48,2.48,0,1,0,2.21,2.44A2.24,2.24,0,0,0,112.32,520.17Z"/><path class="cls-1" d="M122,526V522c0-1-.14-1.86-1.39-1.86-1.48,0-1.65,1.28-1.65,2.45V526h-1.14v-6.64h1.14v.8a2.23,2.23,0,0,1,1.92-1,2.26,2.26,0,0,1,1.89.91,3,3,0,0,1,.38,1.76V526Z"/><path class="cls-1" d="M133.6,522.35l-2.19,2.5h4.48V526H129l3.89-4.5c.72-.83,1.84-2,1.84-3.18a2.13,2.13,0,1,0-4.26.13h-1.2a4.46,4.46,0,0,1,.22-1.2,3.33,3.33,0,0,1,6.42,1.09C135.9,519.89,134.59,521.23,133.6,522.35Z"/><path class="cls-1" d="M141.81,526.13a3.67,3.67,0,0,1-3.7-3.62,4.3,4.3,0,0,1,.88-2.45l3.63-5,.9.67-2.45,3.41a3.57,3.57,0,0,1,1-.14,3.47,3.47,0,0,1,3.42,3.52A3.68,3.68,0,0,1,141.81,526.13Zm0-6.12a2.51,2.51,0,1,0,2.5,2.5A2.5,2.5,0,0,0,141.79,520Z"/><path class="cls-1" d="M154.83,526l-1.25-3H149l-1.28,3h-1.3l4.92-11.19L156.14,526Zm-3.5-8.4-1.83,4.27h3.62Z"/><path class="cls-1" d="M157.39,528.39l-.75-.31,1.31-3.7,1.05.39Z"/><path class="cls-1" d="M171.92,526v-5.22h-5.46V526h-1.18V515.28h1.18v4.35h5.46v-4.35h1.2V526Z"/><path class="cls-1" d="M178.67,526.14a3.5,3.5,0,1,1,3.5-3.48A3.47,3.47,0,0,1,178.67,526.14Zm0-5.95a2.46,2.46,0,1,0,2.36,2.47A2.32,2.32,0,0,0,178.65,520.19ZM177.28,518a.81.81,0,0,1-.8-.8.8.8,0,1,1,.8.8Zm2.78,0a.82.82,0,0,1-.8-.8.8.8,0,1,1,.8.8Z"/><path class="cls-1" d="M187,526.14a3.5,3.5,0,1,1,3.51-3.48A3.47,3.47,0,0,1,187,526.14Zm0-5.95a2.46,2.46,0,1,0,2.35,2.47A2.33,2.33,0,0,0,187,520.19ZM185.61,518a.82.82,0,0,1-.8-.8.8.8,0,1,1,.8.8Zm2.79,0a.81.81,0,0,1-.8-.8.8.8,0,1,1,.8.8Z"/><path class="cls-1" d="M195.37,520.46a1,1,0,0,0-.67-.22,1.34,1.34,0,0,0-.58.14c-.73.4-.73,1.35-.73,2.07V526h-1.14v-6.64h1.14V520a1.77,1.77,0,0,1,1.5-.88,1.94,1.94,0,0,1,1,.27Z"/><path class="cls-1" d="M37.38,552.14a3.25,3.25,0,0,1-3.29-2.75l1.15-.32A2.16,2.16,0,0,0,37.42,551a2.1,2.1,0,0,0,2.14-2.11c0-2.51-4.93-1.92-4.93-5.06a2.82,2.82,0,0,1,3-2.75,3.05,3.05,0,0,1,2.76,1.66l-1,.63a2,2,0,0,0-1.82-1.17,1.7,1.7,0,0,0-1.78,1.63c0,2.21,4.93,1.57,4.93,5A3.29,3.29,0,0,1,37.38,552.14Z"/><path class="cls-1" d="M45.74,552.14a3.5,3.5,0,1,1,3.5-3.48A3.47,3.47,0,0,1,45.74,552.14Zm0-5.95a2.46,2.46,0,1,0,2.35,2.47A2.33,2.33,0,0,0,45.72,546.19ZM44.34,544a.82.82,0,0,1-.8-.8.8.8,0,1,1,.8.8Zm2.79,0a.82.82,0,0,1-.8-.8.8.8,0,1,1,.8.8Z"/><path class="cls-1" d="M55.16,552V548c0-1-.14-1.86-1.39-1.86-1.48,0-1.65,1.28-1.65,2.45V552H51v-6.64h1.14v.8a2.23,2.23,0,0,1,1.92-1,2.26,2.26,0,0,1,1.89.91,3,3,0,0,1,.38,1.76V552Z"/><path class="cls-1" d="M63.56,552V551a2.82,2.82,0,0,1-2.3,1.12,3.51,3.51,0,0,1,0-7,2.87,2.87,0,0,1,2.32,1.1v-6H64.7V552Zm-2.14-5.76a2.47,2.47,0,1,0,2.2,2.42A2.22,2.22,0,0,0,61.42,546.19Z"/><path class="cls-1" d="M71.94,552V551a2.81,2.81,0,0,1-2.3,1.12,3.28,3.28,0,0,1-3.2-3.53,3.23,3.23,0,0,1,3.18-3.46,2.8,2.8,0,0,1,2.32,1.1v-.94h1.14V552Zm-2.14-5.78A2.48,2.48,0,1,0,72,548.61,2.24,2.24,0,0,0,69.8,546.17Z"/><path class="cls-1" d="M80.84,554.42a3.21,3.21,0,0,1-2.66,1.23,3,3,0,0,1-3.23-3h1.14a2,2,0,0,0,2.11,2c1.6,0,2.13-1.21,2.13-2.63v-1A3,3,0,0,1,78,552.13a3.5,3.5,0,0,1,.05-7,2.84,2.84,0,0,1,2.29,1.09v-.93h1.15v6.5A4.05,4.05,0,0,1,80.84,554.42Zm-2.67-8.25A2.29,2.29,0,0,0,76,548.69a2.24,2.24,0,0,0,2.18,2.41,2.48,2.48,0,0,0,0-4.93Z"/><path class="cls-1" d="M90.81,552V542.4H89l.62-1.12H92V552Z"/><path class="cls-1" d="M103.7,548.78c-.46,1.64-1.66,3.35-3.53,3.35s-3-1.63-3.48-3.2a8.22,8.22,0,0,1,0-4.47c.46-1.63,1.66-3.34,3.53-3.34s3,1.61,3.48,3.18a8.26,8.26,0,0,1,0,4.48Zm-3.56-6.58c-1.37,0-2.13,1.56-2.41,2.69a7.48,7.48,0,0,0-.2,1.76,7.15,7.15,0,0,0,.22,1.85c.3,1.13,1.09,2.52,2.43,2.52s2.1-1.45,2.4-2.57a7.12,7.12,0,0,0,.23-1.83C102.81,545.05,102.15,542.2,100.14,542.2Z"/><path class="cls-1" d="M110.93,546.37V552H109.8v-5.58h-.63v-1.06h.63v-2.83a3.88,3.88,0,0,1,.17-1.28,1.86,1.86,0,0,1,1.8-1.11,3,3,0,0,1,.83.15v1.15a2,2,0,0,0-.75-.16c-.84,0-.92.62-.92,1.29v2.79h1.67v1.06Z"/><path class="cls-1" d="M114.39,548.86a2.15,2.15,0,0,0,2.11,2.24,2.29,2.29,0,0,0,2-1.37l1,.53a3.31,3.31,0,0,1-3,1.88,3.5,3.5,0,0,1-.06-7,3.18,3.18,0,0,1,3.17,3.49v.22Zm2-2.67a2,2,0,0,0-2,1.71h3.91A2,2,0,0,0,116.44,546.19Z"/><path class="cls-1" d="M124.76,552.14a2.84,2.84,0,0,1-2.31-1.12V552h-1.13V540.28h1.13v6a2.87,2.87,0,0,1,2.32-1.1,3.51,3.51,0,0,1,0,7Zm-.16-5.95a2.24,2.24,0,0,0-2.21,2.45,2.21,2.21,0,1,0,2.21-2.45Z"/><path class="cls-1" d="M132.82,546.46a1,1,0,0,0-.67-.22,1.34,1.34,0,0,0-.58.14c-.73.4-.73,1.35-.73,2.07V552H129.7v-6.64h1.14V546a1.77,1.77,0,0,1,1.5-.88,1.94,1.94,0,0,1,1,.27Z"/><path class="cls-1" d="M139.09,551.31a2.9,2.9,0,0,1-4.06,0,2.71,2.71,0,0,1-.61-2v-4h1.14v3.87a2.53,2.53,0,0,0,.21,1.25,1.41,1.41,0,0,0,1.29.67,1.44,1.44,0,0,0,1.28-.67,2.57,2.57,0,0,0,.21-1.25v-3.87h1.14v4A2.7,2.7,0,0,1,139.09,551.31Z"/><path class="cls-1" d="M146.93,552V551a2.81,2.81,0,0,1-2.3,1.12,3.28,3.28,0,0,1-3.2-3.53,3.23,3.23,0,0,1,3.18-3.46,2.8,2.8,0,0,1,2.32,1.1v-.94h1.14V552Zm-2.14-5.78a2.48,2.48,0,1,0,2.21,2.44A2.24,2.24,0,0,0,144.79,546.17Z"/><path class="cls-1" d="M153.37,546.46a1,1,0,0,0-.68-.22,1.26,1.26,0,0,0-.57.14c-.74.4-.74,1.35-.74,2.07V552h-1.14v-6.64h1.14V546a1.77,1.77,0,0,1,1.51-.88,1.9,1.9,0,0,1,1,.27Z"/><path class="cls-1" d="M155.54,543.61a.82.82,0,0,1-.82-.81.82.82,0,1,1,1.64,0A.82.82,0,0,1,155.54,543.61ZM155,552v-6.64h1.14V552Z"/><path class="cls-1" d="M166.41,552l-2.69-3-.29.28V552h-1.14V540.28h1.14v7.48l2.42-2.45h1.52l-2.85,2.82,3.37,3.82Z"/><path class="cls-1" d="M169,552V540.28h1.14V552Z"/><path class="cls-1" d="M179.49,552V542.4h-1.77l.62-1.12h2.34V552Z"/><path class="cls-1" d="M188.57,552V542.4h-1.78l.62-1.12h2.34V552Z"/><path class="cls-1" d="M193.39,549.06v-1h2.9v1Z"/><path class="cls-1" d="M200.53,552V542.4h-1.77l.62-1.12h2.34V552Z"/><path class="cls-1" d="M209.57,552.13a3.32,3.32,0,0,1-2.46-1.06,2.78,2.78,0,0,1-.71-1.89h1.16a2,2,0,0,0,.36,1,2.14,2.14,0,0,0,1.68.8,2.08,2.08,0,0,0,2.1-2.12c0-1.4-1-2-2.27-2v-1a2.39,2.39,0,0,0,1.26-.26,1.83,1.83,0,0,0-1-3.38,1.8,1.8,0,0,0-1.46.69,2.58,2.58,0,0,0-.35,1h-1.17c.24-1.73,1.15-2.8,3-2.8a2.86,2.86,0,0,1,3,2.86,2.6,2.6,0,0,1-1.38,2.37,2.74,2.74,0,0,1,1.54,2.58A3.17,3.17,0,0,1,209.57,552.13Z"/></svg>