<svg id="Layer_1" data-name="Layer 1" xmlns="http://www.w3.org/2000/svg" viewBox="0 0 250 720"><defs><style>.cls-1{fill:#d80201;}</style></defs><title>text</title><path class="cls-1" d="M83,401l-1.83-12.74-5.7,13H74.3l-5.49-13L66.73,401H62.67l3.85-21.05h2.76l5.64,13.52,5.89-13.52h2.76L87,401Z"/><path class="cls-1" d="M97.08,401.39c-4.28,0-7.69-2.67-7.69-7.14s3.41-7.16,7.72-7.16,7.63,2.7,7.63,7.13S101.33,401.39,97.08,401.39ZM93.83,385a2.24,2.24,0,1,1,0-4.47,2.24,2.24,0,0,1,0,4.47Zm3.22,5.45a3.77,3.77,0,1,0,3.82,3.78A3.8,3.8,0,0,0,97.05,390.47Zm3.23-5.45A2.28,2.28,0,0,1,98,382.78a2.24,2.24,0,1,1,2.24,2.24Z"/><path class="cls-1" d="M115.78,401.39a5.32,5.32,0,0,1-4.41-2.2V401h-3.75V377.73h3.75v11.5a5.74,5.74,0,0,1,4.5-2.14c3.94,0,6.54,3.35,6.54,7.1S119.81,401.39,115.78,401.39Zm-1-10.92a3.77,3.77,0,1,0,3.75,3.75A3.74,3.74,0,0,0,114.75,390.47Z"/><path class="cls-1" d="M125.26,401V377.73H129V401Z"/><path class="cls-1" d="M135.74,394.84c.06,2.08,1,3.6,3.29,3.6a3.52,3.52,0,0,0,3.19-1.8l3.47.56a6.59,6.59,0,0,1-6.6,4.19c-4.34,0-7.2-2.79-7.2-7.17s2.73-7.13,7-7.13,6.85,3,6.85,7.26v.49Zm3.25-5.08a3,3,0,0,0-3.13,2.7h6.36A3.11,3.11,0,0,0,139,389.76Z"/><path class="cls-1" d="M157.44,390.94a3.35,3.35,0,0,0-1.8-.47c-2.54,0-3.22,1.8-3.22,4V401h-3.75V387.53h3.75v2a4.29,4.29,0,0,1,3.9-2.45,4.47,4.47,0,0,1,1.65.31Z"/><path class="cls-1" d="M170.09,401v-1.76a5.22,5.22,0,0,1-4.38,2.2c-4,0-6.6-3.35-6.6-7.2s2.57-7.1,6.51-7.1a5.62,5.62,0,0,1,4.47,2.14v-1.7h3.78V401Zm-3.35-10.48a3.77,3.77,0,1,0,3.75,3.75A3.74,3.74,0,0,0,166.74,390.47Z"/><path class="cls-1" d="M181.25,390.75V401h-3.76v-10.2H176v-3.22h1.49v-4.59h3.76v4.59h2.63v3.22Z"/><path class="cls-1" d="M55.64,438.23H53.9l-6.85-13.7h4.21l3.54,7.56,3.53-7.56h4.22Z"/><path class="cls-1" d="M66.21,421.12a2.27,2.27,0,1,1,0-4.53,2.27,2.27,0,0,1,0,4.53ZM64.32,438V424.53h3.75V438Z"/><path class="cls-1" d="M75.88,438.39a7.16,7.16,0,0,1-5.12-2.24l2-2.29a4.34,4.34,0,0,0,3.16,1.58A1.59,1.59,0,0,0,77.62,434c0-2.29-6-1.14-6-5.67,0-2.73,2.26-4.25,4.81-4.25a6.87,6.87,0,0,1,4.37,1.43L79,427.66a3.73,3.73,0,0,0-2.23-.9c-.66,0-1.43.4-1.43,1.15,0,1.95,6.2,1.08,6.2,5.67C81.49,436.71,78.76,438.39,75.88,438.39Z"/><path class="cls-1" d="M93.33,438v-7.44c0-1.83-.4-3.22-2.54-3.22-2.33,0-2.88,1.7-2.88,3.72V438H84.15V424.53h3.76v1.64a4.94,4.94,0,0,1,4.21-2.08,4.64,4.64,0,0,1,5,5.34V438Z"/><path class="cls-1" d="M102.51,421.12a2.27,2.27,0,1,1,0-4.53,2.27,2.27,0,0,1,0,4.53ZM100.62,438V424.53h3.75V438Z"/><path class="cls-1" d="M117.08,438v-7.44c0-1.83-.41-3.22-2.54-3.22-2.33,0-2.89,1.7-2.89,3.72V438H107.9V424.53h3.75v1.64a5,5,0,0,1,4.22-2.08,4.64,4.64,0,0,1,5,5.34V438Z"/><path class="cls-1" d="M136.89,442.82a7.32,7.32,0,0,1-5.71,2.36c-3.44,0-6.76-2-7.13-5.65h4.06a3,3,0,0,0,3.2,2.45c2.35,0,3.31-1.64,3.31-3.81v-2a5.57,5.57,0,0,1-4.52,2.24c-4,0-6.39-3.2-6.39-7s2.48-7.32,6.57-7.32a5,5,0,0,1,4.34,2.17v-1.73h3.79v12.93C138.41,439.56,138.31,441.15,136.89,442.82Zm-5.55-15.35a3.77,3.77,0,1,0,3.75,3.75A3.75,3.75,0,0,0,131.34,427.47Z"/><path class="cls-1" d="M146.28,438.39a7.16,7.16,0,0,1-5.12-2.24l2-2.29a4.34,4.34,0,0,0,3.16,1.58A1.58,1.58,0,0,0,148,434c0-2.29-6-1.14-6-5.67,0-2.73,2.26-4.25,4.81-4.25a6.87,6.87,0,0,1,4.37,1.43l-1.86,2.2a3.73,3.73,0,0,0-2.23-.9c-.66,0-1.43.4-1.43,1.15,0,1.95,6.2,1.08,6.2,5.67C151.89,436.71,149.16,438.39,146.28,438.39Z"/><path class="cls-1" d="M163.73,438V430.6c0-1.86-.4-3.31-2.57-3.31-2.33,0-2.85,1.79-2.85,3.78V438h-3.76V414.73h3.76v11.53a4.89,4.89,0,0,1,4.21-2.17,5.13,5.13,0,0,1,3.91,1.65,5.3,5.3,0,0,1,1,3.78V438Z"/><path class="cls-1" d="M177.56,438.39c-3.69,0-6.48-1.65-6.48-5.65v-8.21h3.75v7.59c0,1.83.77,3.07,2.73,3.07s2.73-1.24,2.73-3.07v-7.59h3.78v8.21C184.07,436.74,181.25,438.39,177.56,438.39Z"/><path class="cls-1" d="M191.94,438.39a7.16,7.16,0,0,1-5.12-2.24l2-2.29a4.36,4.36,0,0,0,3.16,1.58,1.59,1.59,0,0,0,1.71-1.49c0-2.29-6-1.14-6-5.67,0-2.73,2.27-4.25,4.81-4.25a6.87,6.87,0,0,1,4.37,1.43l-1.86,2.2a3.73,3.73,0,0,0-2.23-.9c-.65,0-1.43.4-1.43,1.15,0,1.95,6.2,1.08,6.2,5.67C197.55,436.71,194.82,438.39,191.94,438.39Z"/></svg>