<svg id="Layer_1" data-name="Layer 1" xmlns="http://www.w3.org/2000/svg" viewBox="0 0 250 720"><defs><style>.cls-1{fill:#d4ac76;}</style></defs><title>text</title><path class="cls-1" d="M69.4,67.84V53.16h2.55v6.47l5.62-6.47H81L75.79,59l5.3,8.83H77.91l-4-6.71-2,2.22v4.48Z"/><path class="cls-1" d="M83.76,67.84l5.66-14.69h2.49l5.64,14.69H94.72l-.78-2H87.38l-.78,2Zm6.91-10.58-2.35,6.09H93Z"/><path class="cls-1" d="M101,67.84V53.16h5.75a5,5,0,0,1,3.54,1.33A4.57,4.57,0,0,1,111.69,58a4.41,4.41,0,0,1-1.05,3,4.73,4.73,0,0,1-2.74,1.56l3.95,5.33h-3.1l-3.81-5.24h-1.19v5.24Zm5.32-12.24h-2.56V60.4h2.56a2.72,2.72,0,0,0,1.91-.65,2.19,2.19,0,0,0,.71-1.7,2.31,2.31,0,0,0-.73-1.74A2.62,2.62,0,0,0,106.31,55.61Z"/><path class="cls-1" d="M116,67.84V53.16h2.75v12h5.4v2.64Z"/><path class="cls-1" d="M132.07,68a7.05,7.05,0,0,1-2.77-.58,7.22,7.22,0,0,1-2.38-1.61l1.75-2.09a5.33,5.33,0,0,0,1.62,1.31,4.14,4.14,0,0,0,1.93.51,2.38,2.38,0,0,0,1.57-.5,1.58,1.58,0,0,0,.61-1.27,2.19,2.19,0,0,0-1.61-2l-1.64-.66a6.31,6.31,0,0,1-2.44-1.62,3.75,3.75,0,0,1-.79-2.5,3.81,3.81,0,0,1,1.25-2.79A4.26,4.26,0,0,1,132.28,53a6.32,6.32,0,0,1,4.52,1.68l-1.62,2a3.78,3.78,0,0,0-2.9-1.28,2,2,0,0,0-1.32.42,1.31,1.31,0,0,0-.5,1,1.37,1.37,0,0,0,.39,1,3.9,3.9,0,0,0,1.26.76l1.71.69q3.27,1.31,3.33,4.24a4.11,4.11,0,0,1-1.38,3.21A5.35,5.35,0,0,1,132.07,68Z"/><path class="cls-1" d="M139.89,55.8V53.16H152V55.8h-4.67v12h-2.75v-12Z"/><path class="cls-1" d="M152.5,67.84l5.66-14.69h2.49l5.64,14.69h-2.83l-.78-2h-6.57l-.78,2Zm6.91-10.58-2.35,6.09h4.68Z"/><path class="cls-1" d="M169.74,67.84V53.16h4.19a7.2,7.2,0,0,1,5.2,2.1,7.07,7.07,0,0,1,2.16,5.29,6.87,6.87,0,0,1-2.19,5.24,7.5,7.5,0,0,1-5.32,2.05ZM174,55.61h-1.68v9.78H174A4.23,4.23,0,0,0,177.23,64a5,5,0,0,0,1.31-3.5A4.84,4.84,0,0,0,177.21,57,4.31,4.31,0,0,0,174,55.61Z"/><path class="cls-1" d="M84.38,88.57a7.33,7.33,0,0,1-5.44,2.32,7.42,7.42,0,0,1-5.42-2.22,7.6,7.6,0,0,1,0-10.77A7.65,7.65,0,0,1,84.34,78L82.4,79.83a4.6,4.6,0,0,0-3.49-1.52,4.66,4.66,0,0,0-3.48,1.45,5.07,5.07,0,0,0,0,7,4.84,4.84,0,0,0,7-.08Z"/><path class="cls-1" d="M96.56,84.43H91.12v3.76h6v2.45H88.37V76h8.55v2.45H91.12V82h5.43Z"/><path class="cls-1" d="M101.55,90.64V76h1.93l7.23,9.24V76h2.75V90.64h-1.84l-7.31-9.35v9.35Z"/><path class="cls-1" d="M117,78.6V76h12.1V78.6h-4.67v12h-2.75v-12Z"/><path class="cls-1" d="M132.64,90.64V76h5.75a5,5,0,0,1,3.54,1.33,4.57,4.57,0,0,1,1.41,3.48,4.41,4.41,0,0,1-1.05,3,4.72,4.72,0,0,1-2.74,1.56l3.95,5.33h-3.1l-3.81-5.24h-1.19v5.24ZM138,78.41h-2.56V83.2H138a2.72,2.72,0,0,0,1.91-.65,2.19,2.19,0,0,0,.71-1.7,2.31,2.31,0,0,0-.73-1.74A2.62,2.62,0,0,0,138,78.41Z"/><path class="cls-1" d="M156.95,89.32a6,6,0,0,1-8,0,5.21,5.21,0,0,1-1.59-3.89V76h2.75v9.12a3.37,3.37,0,0,0,.76,2.27,2.92,2.92,0,0,0,4.18,0,3.3,3.3,0,0,0,.76-2.24V76h2.75v9.48A5.21,5.21,0,0,1,156.95,89.32Z"/><path class="cls-1" d="M163.46,90.64V76h2.66l4.54,7.24,4.6-7.24h2.89V90.64h-2.75V80.59l-.22,0-4.56,7-4.44-6.94h0v10Z"/></svg>