<svg id="Layer_1" data-name="Layer 1" xmlns="http://www.w3.org/2000/svg" viewBox="0 0 250 720"><defs><style>.cls-1{fill:#d4ac76;}</style></defs><title>text</title><path class="cls-1" d="M14.25,537.26l4-10h1.27l4,10H22l-.61-1.55H16.42l-.62,1.55Zm4.67-7.74-2,4.86h3.86Z"/><path class="cls-1" d="M29,537.39a4.69,4.69,0,0,1-1.88-.4,5,5,0,0,1-1.59-1.08l1-1.14a3.81,3.81,0,0,0,1.16.92A3,3,0,0,0,29,536a1.94,1.94,0,0,0,1.3-.43,1.35,1.35,0,0,0,.5-1.07,1.76,1.76,0,0,0-1.27-1.64l-1.19-.47a4.14,4.14,0,0,1-1.64-1.08,2.37,2.37,0,0,1-.54-1.59,2.53,2.53,0,0,1,.83-1.9,2.86,2.86,0,0,1,2-.79A4.09,4.09,0,0,1,32,528.19l-.84,1.13a2.77,2.77,0,0,0-2.07-.9,1.59,1.59,0,0,0-1.06.35,1.16,1.16,0,0,0-.41.93,1.12,1.12,0,0,0,.3.78,2.8,2.8,0,0,0,1,.62l1.21.49a2.85,2.85,0,0,1,2.11,2.87,2.75,2.75,0,0,1-.89,2.11A3.37,3.37,0,0,1,29,537.39Z"/><path class="cls-1" d="M35.7,537.26v-10h1.4V532l4.19-4.77h1.88l-3.54,4,3.63,6.06H41.52l-2.92-4.9L37.1,534v3.22Z"/><path class="cls-1" d="M46.32,537.26v-10h1.4v10Z"/><path class="cls-1" d="M51.84,537.26v-10h1.44l3.24,5.36,3.29-5.36h1.38v10h-1.4v-7.42l0,0L56.51,535l-3.17-5.12h-.09v7.38Z"/><path class="cls-1" d="M67.77,537.39a4.69,4.69,0,0,1-1.88-.4,5,5,0,0,1-1.59-1.08l1-1.14a3.81,3.81,0,0,0,1.16.92,3,3,0,0,0,1.39.37,1.94,1.94,0,0,0,1.3-.43,1.35,1.35,0,0,0,.5-1.07,1.76,1.76,0,0,0-1.27-1.64l-1.19-.47a4.14,4.14,0,0,1-1.64-1.08,2.37,2.37,0,0,1-.54-1.59,2.53,2.53,0,0,1,.83-1.9,2.86,2.86,0,0,1,2-.79,4.09,4.09,0,0,1,2.92,1.11L70,529.32a2.77,2.77,0,0,0-2.07-.9,1.59,1.59,0,0,0-1.06.35,1.16,1.16,0,0,0-.41.93,1.12,1.12,0,0,0,.3.78,2.8,2.8,0,0,0,1,.62l1.21.49A2.85,2.85,0,0,1,71,534.45a2.75,2.75,0,0,1-.89,2.11A3.37,3.37,0,0,1,67.77,537.39Z"/><path class="cls-1" d="M80,537.26v-10h1.4V532l4.19-4.77h1.88l-3.54,4,3.63,6.06H85.81l-2.92-4.9L81.39,534v3.22Z"/><path class="cls-1" d="M96,527.21h1.62l-3.34,6v4h-1.4v-4l-3.38-6.06h1.68l2.43,4.46Z"/><path class="cls-1" d="M100.52,537.26v-10h3.73a3.14,3.14,0,0,1,2.26.87,3.11,3.11,0,0,1-1.76,5.35l2.91,3.82h-1.73L103,533.42h-1.12v3.83Zm3.54-8.71h-2.14v3.63H104a2,2,0,0,0,1.42-.5,1.82,1.82,0,0,0,0-2.61A2,2,0,0,0,104.06,528.55Z"/><path class="cls-1" d="M110.94,537.26v-10h1.4V532l4.19-4.77h1.88l-3.54,4,3.63,6.06h-1.74l-2.92-4.9-1.5,1.68v3.22Z"/><path class="cls-1" d="M124.51,537.26l-3.92-10h1.58l3,7.72,3-7.72h1.55l-3.93,10Z"/><path class="cls-1" d="M130.6,537.26l4-10h1.27l4,10h-1.55l-.61-1.55h-4.93l-.62,1.55Zm3.63-11.12a.66.66,0,0,1-.5.22.64.64,0,0,1-.5-.22.84.84,0,0,1,0-1.09.64.64,0,0,1,.5-.22.66.66,0,0,1,.5.22.83.83,0,0,1,0,1.09Zm1,3.37-2,4.86h3.86Zm1.75-3.37a.67.67,0,0,1-1,0,.84.84,0,0,1,0-1.09.68.68,0,0,1,1,0,.84.84,0,0,1,0,1.09Z"/><path class="cls-1" d="M148.73,532.89v-1.34h3.34v.7a5.17,5.17,0,0,1-5.2,5.17,4.92,4.92,0,0,1-3.67-1.5,5.42,5.42,0,0,1,0-7.42,4.92,4.92,0,0,1,3.67-1.5,5.4,5.4,0,0,1,2.11.42,5.14,5.14,0,0,1,1.72,1.16l-1,1.06a3.56,3.56,0,0,0-2.79-1.3,3.5,3.5,0,0,0-2.67,1.13,4.05,4.05,0,0,0,0,5.48,3.5,3.5,0,0,0,2.67,1.14,3.57,3.57,0,0,0,2.41-.88,3.81,3.81,0,0,0,1.27-2.32Z"/><path class="cls-1" d="M163.25,537.41a3.09,3.09,0,0,1-2.19-.85,2.8,2.8,0,0,1-.94-2h1.4a1.47,1.47,0,0,0,.52,1.1,1.71,1.71,0,0,0,1.17.46,1.73,1.73,0,0,0,1.25-.48,1.6,1.6,0,0,0,.5-1.2,1.68,1.68,0,0,0-1.71-1.72h-.58v-1.25h.56a1.59,1.59,0,0,0,1.17-.47,1.57,1.57,0,0,0,0-2.23,1.63,1.63,0,0,0-1.18-.45,1.57,1.57,0,0,0-1.15.46,1.52,1.52,0,0,0-.47,1.12h-1.4a2.6,2.6,0,0,1,.87-2,3.27,3.27,0,0,1,4.33,0,2.65,2.65,0,0,1,.87,2,2.26,2.26,0,0,1-.43,1.35,2.35,2.35,0,0,1-1.11.86,2.43,2.43,0,0,1,1.17.89,2.46,2.46,0,0,1,.44,1.46,2.84,2.84,0,0,1-.92,2.13A3.07,3.07,0,0,1,163.25,537.41Z"/><path class="cls-1" d="M172.32,537.41a3.42,3.42,0,0,1-2-.62,3.11,3.11,0,0,1-1.2-1.63l1.27-.49a2,2,0,0,0,2,1.4,2,2,0,0,0,2-2,1.88,1.88,0,0,0-.59-1.41,2,2,0,0,0-1.42-.57,1.87,1.87,0,0,0-1.42.61h-1.4v-5.5h5.63v1.34h-4.23v2.7a2.66,2.66,0,0,1,1.42-.4,3.38,3.38,0,0,1,2.47.92,3.09,3.09,0,0,1,.94,2.3,3.2,3.2,0,0,1-1,2.36A3.33,3.33,0,0,1,172.32,537.41Z"/><path class="cls-1" d="M177.43,539.1l1.16-3.22,1.29.46-1.59,3.09Z"/><path class="cls-1" d="M187.6,537.26l4-10h1.27l4,10h-1.55l-.61-1.55h-4.93l-.62,1.55Zm4.67-7.74-2,4.86h3.86Z"/><path class="cls-1" d="M202.34,537.39a4.69,4.69,0,0,1-1.88-.4,5,5,0,0,1-1.59-1.08l1-1.14a3.81,3.81,0,0,0,1.16.92,3,3,0,0,0,1.39.37,1.94,1.94,0,0,0,1.3-.43,1.35,1.35,0,0,0,.5-1.07,1.76,1.76,0,0,0-1.27-1.64l-1.19-.47a4.14,4.14,0,0,1-1.64-1.08,2.37,2.37,0,0,1-.54-1.59,2.53,2.53,0,0,1,.83-1.9,2.86,2.86,0,0,1,2-.79,4.09,4.09,0,0,1,2.92,1.11l-.84,1.13a2.77,2.77,0,0,0-2.07-.9,1.59,1.59,0,0,0-1.06.35,1.16,1.16,0,0,0-.41.93,1.12,1.12,0,0,0,.3.78,2.8,2.8,0,0,0,1,.62l1.21.49a2.85,2.85,0,0,1,2.11,2.87,2.75,2.75,0,0,1-.89,2.11A3.37,3.37,0,0,1,202.34,537.39Z"/><path class="cls-1" d="M209.05,537.26v-10h1.4V532l4.19-4.77h1.88l-3.54,4,3.63,6.06h-1.74l-2.92-4.9-1.5,1.68v3.22Z"/><path class="cls-1" d="M219.67,537.26v-10h1.4v10Z"/><path class="cls-1" d="M225.2,537.26v-10h1.44l3.24,5.36,3.29-5.36h1.38v10h-1.4v-7.42l0,0L229.86,535l-3.17-5.12h-.09v7.38Z"/><path class="cls-1" d="M25.56,557.39a4.69,4.69,0,0,1-1.88-.4,5,5,0,0,1-1.59-1.08l1-1.14a3.81,3.81,0,0,0,1.16.92,3,3,0,0,0,1.39.37,1.94,1.94,0,0,0,1.3-.43,1.35,1.35,0,0,0,.5-1.07,1.76,1.76,0,0,0-1.27-1.64L25,552.43a4.14,4.14,0,0,1-1.64-1.08,2.37,2.37,0,0,1-.54-1.59,2.53,2.53,0,0,1,.83-1.9,2.86,2.86,0,0,1,2-.79,4.09,4.09,0,0,1,2.92,1.11l-.84,1.13a2.77,2.77,0,0,0-2.07-.9,1.59,1.59,0,0,0-1.06.35,1.16,1.16,0,0,0-.41.93,1.12,1.12,0,0,0,.3.78,2.8,2.8,0,0,0,1,.62l1.21.49a2.85,2.85,0,0,1,2.11,2.87,2.75,2.75,0,0,1-.89,2.11A3.37,3.37,0,0,1,25.56,557.39Z"/><path class="cls-1" d="M36.87,557.44A4.94,4.94,0,0,1,33.24,556a5.4,5.4,0,0,1,0-7.45,5.14,5.14,0,0,1,7.24,0,5.36,5.36,0,0,1,0,7.44A4.94,4.94,0,0,1,36.87,557.44ZM34.24,555a3.64,3.64,0,0,0,5.26,0,4,4,0,0,0,0-5.49,3.61,3.61,0,0,0-5.25,0,4,4,0,0,0,0,5.49Zm1.69-8.83a.66.66,0,0,1-.5.22.64.64,0,0,1-.5-.22.84.84,0,0,1,0-1.09.64.64,0,0,1,.5-.22.66.66,0,0,1,.5.22.82.82,0,0,1,0,1.09Zm2.79,0a.67.67,0,0,1-1,0,.84.84,0,0,1,0-1.09.68.68,0,0,1,1,0,.84.84,0,0,1,0,1.09Z"/><path class="cls-1" d="M45.51,557.26v-10h1l5.44,6.92v-6.92h1.4v10h-.78l-5.64-7.17v7.17Z"/><path class="cls-1" d="M57.53,557.26v-10h2.69a5.06,5.06,0,0,1,3.52,8.62,4.91,4.91,0,0,1-3.57,1.43Zm2.75-8.71H58.93v7.37h1.38a3.25,3.25,0,0,0,2.48-1.08,3.72,3.72,0,0,0,1-2.63,3.58,3.58,0,0,0-1-2.61A3.35,3.35,0,0,0,60.28,548.55Z"/><path class="cls-1" d="M67.19,557.26l4-10h1.27l4,10H74.9l-.61-1.55H69.36l-.62,1.55Zm4.67-7.74-2,4.86h3.86Z"/><path class="cls-1" d="M85.32,552.89v-1.34h3.34v.7a5.17,5.17,0,0,1-5.2,5.17,4.92,4.92,0,0,1-3.67-1.5,5.42,5.42,0,0,1,0-7.42,4.92,4.92,0,0,1,3.67-1.5,5.4,5.4,0,0,1,2.11.42,5.14,5.14,0,0,1,1.72,1.16l-1,1.06a3.56,3.56,0,0,0-2.79-1.3,3.5,3.5,0,0,0-2.67,1.13,4.05,4.05,0,0,0,0,5.48,3.5,3.5,0,0,0,2.67,1.14,3.57,3.57,0,0,0,2.41-.88,3.81,3.81,0,0,0,1.27-2.32Z"/><path class="cls-1" d="M98.7,557.26V549l-1.88,1v-1.34l2.67-1.47h.62v10.1Z"/><path class="cls-1" d="M106.65,557.41a3.42,3.42,0,0,1-2-.62,3.11,3.11,0,0,1-1.2-1.63l1.27-.49a2,2,0,0,0,2,1.4,2,2,0,0,0,2-2,1.88,1.88,0,0,0-.59-1.41,2,2,0,0,0-1.42-.57,1.87,1.87,0,0,0-1.42.61h-1.4v-5.5h5.63v1.34h-4.23v2.7a2.66,2.66,0,0,1,1.42-.4,3.38,3.38,0,0,1,2.47.92,3.09,3.09,0,0,1,.94,2.3,3.2,3.2,0,0,1-1,2.36A3.33,3.33,0,0,1,106.65,557.41Z"/><path class="cls-1" d="M117.65,557.26l4-10H123l4,10h-1.55l-.61-1.55h-4.93l-.62,1.55Zm4.67-7.74-2,4.86h3.86Z"/><path class="cls-1" d="M129.71,557.26v-10h3.43a3.15,3.15,0,0,1,2.33.94,3.24,3.24,0,0,1,.93,2.39,3.15,3.15,0,0,1-1,2.35,3.25,3.25,0,0,1-2.36.94h-2v3.43Zm3.33-8.71h-1.93v3.94h1.94a1.85,1.85,0,0,0,1.94-1.95,2,2,0,0,0-.55-1.43A1.88,1.88,0,0,0,133,548.55Z"/><path class="cls-1" d="M139.73,557.26v-10h3.73a3.14,3.14,0,0,1,2.26.87,3.11,3.11,0,0,1-1.76,5.35l2.91,3.82h-1.73l-2.88-3.83h-1.12v3.83Zm3.54-8.71h-2.14v3.63h2.13a2,2,0,0,0,1.42-.5,1.82,1.82,0,0,0,0-2.61A2,2,0,0,0,143.27,548.55Z"/><path class="cls-1" d="M150.16,557.26v-10h1.4v10Z"/><path class="cls-1" d="M155.68,557.26v-10h1.4v8.71h4.13v1.34Z"/><path class="cls-1" d="M169.73,557.26v-10h1.4V552l4.19-4.77h1.88l-3.54,4,3.63,6.06h-1.74l-2.92-4.9-1.5,1.68v3.22Z"/><path class="cls-1" d="M180.35,557.26v-10h1.4v8.71h4.13v1.34Z"/><path class="cls-1" d="M195.55,557.26V549l-1.88,1v-1.34l2.67-1.47H197v10.1Z"/><path class="cls-1" d="M200.19,557.26v-.88l4-5.3a2,2,0,0,0,.56-1.27,1.45,1.45,0,0,0-.44-1.07,1.53,1.53,0,0,0-1.13-.44,1.41,1.41,0,0,0-1.11.49,1.94,1.94,0,0,0-.46,1.27h-1.4a3,3,0,0,1,.83-2.13,2.83,2.83,0,0,1,2.13-.87,3,3,0,0,1,2.13.79,2.59,2.59,0,0,1,.84,2,3.6,3.6,0,0,1-1.05,2.22L202,556h4.32v1.25Z"/><path class="cls-1" d="M209.16,552.88v-1.25h3.93v1.25Z"/><path class="cls-1" d="M216.9,557.26V549L215,550v-1.34l2.67-1.47h.62v10.1Z"/><path class="cls-1" d="M221.46,555v-.88l3.5-6.86h1.47l-3.31,6.5h2.17V552h1.4v1.69h1.21V555H226.7v2.3h-1.4V555Z"/></svg>