<svg id="Layer_1" data-name="Layer 1" xmlns="http://www.w3.org/2000/svg" viewBox="0 0 250 720"><defs><style>.cls-1{fill:#d80201;}</style></defs><title>text</title><path class="cls-1" d="M32.82,526.14a3.26,3.26,0,0,1-3.3-2.75l1.15-.32a2.17,2.17,0,0,0,2.18,2A2.11,2.11,0,0,0,35,522.91c0-2.51-4.93-1.92-4.93-5.06a2.82,2.82,0,0,1,3-2.75,3,3,0,0,1,2.75,1.67l-.94.62A2,2,0,0,0,33,516.22a1.69,1.69,0,0,0-1.78,1.63c0,2.21,4.93,1.57,4.93,5A3.29,3.29,0,0,1,32.82,526.14Z"/><path class="cls-1" d="M42.2,526l-2.69-3-.29.29V526H38.09V514.28h1.14v7.47l2.42-2.45h1.52l-2.85,2.82L43.69,526Z"/><path class="cls-1" d="M47.13,526.38l-3.27-7.07h1.28l2,4.47,2-4.47h1.28Z"/><path class="cls-1" d="M56.44,526V525a2.84,2.84,0,0,1-2.31,1.12,3.29,3.29,0,0,1-3.2-3.54,3.23,3.23,0,0,1,3.19-3.46,2.81,2.81,0,0,1,2.32,1.1v-.94h1.14V526Zm-2.15-5.78a2.26,2.26,0,0,0-2.19,2.43,2.29,2.29,0,0,0,2.19,2.5,2.27,2.27,0,0,0,2.21-2.5A2.24,2.24,0,0,0,54.3,520.17Z"/><path class="cls-1" d="M64.82,526V525a2.84,2.84,0,0,1-2.31,1.12,3.29,3.29,0,0,1-3.2-3.52,3.25,3.25,0,0,1,3.19-3.47,2.85,2.85,0,0,1,2.32,1.1v-6H66V526Zm-2.15-5.76a2.47,2.47,0,1,0,2.21,2.42A2.23,2.23,0,0,0,62.68,520.19Z"/><path class="cls-1" d="M71.25,520.46a1,1,0,0,0-.67-.22,1.22,1.22,0,0,0-.58.14c-.74.4-.74,1.34-.74,2.06V526H68.13v-6.64h1.14V520a1.78,1.78,0,0,1,1.5-.88,1.9,1.9,0,0,1,1,.27Z"/><path class="cls-1" d="M75.7,526.14a3.5,3.5,0,1,1,3.51-3.49A3.47,3.47,0,0,1,75.7,526.14Zm0-6A2.46,2.46,0,1,0,78,522.66,2.33,2.33,0,0,0,75.69,520.19Z"/><path class="cls-1" d="M85.13,526V522c0-1-.14-1.86-1.39-1.86-1.47,0-1.65,1.28-1.65,2.45V526H80.95v-6.64h1.14v.8a2.24,2.24,0,0,1,1.92-1,2.26,2.26,0,0,1,1.89.91,3,3,0,0,1,.38,1.76V526Z"/><path class="cls-1" d="M90.76,526.38l-3.27-7.07h1.28l2,4.47,2-4.47H94Z"/><path class="cls-1" d="M100.3,526V525A2.84,2.84,0,0,1,98,526.14a3.29,3.29,0,0,1-3.2-3.54A3.23,3.23,0,0,1,98,519.15a2.81,2.81,0,0,1,2.32,1.1v-.94h1.14V526Zm-2.15-5.78A2.26,2.26,0,0,0,96,522.61a2.29,2.29,0,0,0,2.19,2.5,2.27,2.27,0,0,0,2.21-2.5A2.24,2.24,0,0,0,98.15,520.17Zm-1.33-2.23a.81.81,0,0,1-.8-.8.8.8,0,1,1,.8.8Zm2.79,0a.81.81,0,0,1-.8-.8.8.8,0,1,1,.8.8Z"/><path class="cls-1" d="M109.19,528.42a3.22,3.22,0,0,1-2.66,1.23,3,3,0,0,1-3.23-3h1.14a2,2,0,0,0,2.11,2c1.6,0,2.13-1.2,2.13-2.62v-1a3,3,0,0,1-2.34,1.1,3.5,3.5,0,0,1,0-7,2.84,2.84,0,0,1,2.29,1.09v-.93h1.15v6.5A4,4,0,0,1,109.19,528.42Zm-2.67-8.24a2.28,2.28,0,0,0-2.18,2.51,2.24,2.24,0,0,0,2.18,2.42,2.48,2.48,0,0,0,0-4.93Z"/><path class="cls-1" d="M112.77,522.86a2.15,2.15,0,0,0,2.11,2.24,2.29,2.29,0,0,0,2-1.38l1,.53a3.31,3.31,0,0,1-3,1.89,3.51,3.51,0,0,1-.06-7c2,0,3.17,1.57,3.17,3.49v.22Zm2-2.67a2,2,0,0,0-2,1.71h3.91A2,2,0,0,0,114.82,520.19Z"/><path class="cls-1" d="M123.88,526V522c0-1-.14-1.86-1.39-1.86-1.47,0-1.65,1.28-1.65,2.45V526H119.7v-6.64h1.14v.8a2.41,2.41,0,0,1,3.81,0,3,3,0,0,1,.38,1.76V526Z"/><path class="cls-1" d="M135.53,522.35l-2.19,2.5h4.48V526h-6.9l3.89-4.5c.72-.83,1.84-2,1.84-3.19a2.13,2.13,0,0,0-4.26.13h-1.2a4.41,4.41,0,0,1,.22-1.2,3.33,3.33,0,0,1,6.42,1.09C137.83,519.89,136.52,521.23,135.53,522.35Z"/><path class="cls-1" d="M146.52,521.17l-3.63,5-.9-.66,2.46-3.43a3.34,3.34,0,0,1-1,.14,3.45,3.45,0,0,1-3.43-3.51,3.68,3.68,0,0,1,7.36,0A4.29,4.29,0,0,1,146.52,521.17Zm-2.79-5a2.5,2.5,0,1,0,2.51,2.51A2.51,2.51,0,0,0,143.73,516.21Z"/><path class="cls-1" d="M149.4,528.39l-.75-.3,1.31-3.7,1.06.38Z"/><path class="cls-1" d="M160.33,526.59,156,515.28h1.3l3,8.15,3-8.15h1.28Z"/><path class="cls-1" d="M170.2,526V525a2.84,2.84,0,0,1-2.31,1.12,3.29,3.29,0,0,1-3.2-3.54,3.23,3.23,0,0,1,3.19-3.46,2.81,2.81,0,0,1,2.32,1.1v-.94h1.14V526Zm-2.15-5.78a2.26,2.26,0,0,0-2.19,2.43,2.29,2.29,0,0,0,2.19,2.5,2.27,2.27,0,0,0,2.21-2.5A2.24,2.24,0,0,0,168.05,520.17Z"/><path class="cls-1" d="M173.51,526V514.28h1.14V526Z"/><path class="cls-1" d="M176.82,526V514.28H178V526Z"/><path class="cls-1" d="M180.9,522.86A2.15,2.15,0,0,0,183,525.1a2.29,2.29,0,0,0,2-1.38l1,.53a3.31,3.31,0,0,1-3,1.89,3.51,3.51,0,0,1-.06-7c2,0,3.17,1.57,3.17,3.49v.22Zm2-2.67a2,2,0,0,0-2,1.71h3.91A2,2,0,0,0,182.95,520.19Z"/><path class="cls-1" d="M192,526V522c0-1-.14-1.86-1.39-1.86-1.47,0-1.65,1.28-1.65,2.45V526h-1.14v-6.64H189v.8a2.24,2.24,0,0,1,1.92-1,2.26,2.26,0,0,1,1.89.91,3,3,0,0,1,.38,1.76V526Z"/><path class="cls-1" d="M196.48,520.37V526h-1.15v-5.59h-.69v-1.06h.69v-2.4h1.15v2.4h1.17v1.06Z"/><path class="cls-1" d="M203.43,525.31a2.9,2.9,0,0,1-4.07,0,2.72,2.72,0,0,1-.61-2v-4h1.14v3.87a2.55,2.55,0,0,0,.21,1.25,1.57,1.57,0,0,0,2.58,0,2.58,2.58,0,0,0,.21-1.25v-3.87H204v4A2.71,2.71,0,0,1,203.43,525.31Z"/><path class="cls-1" d="M210.37,526V522c0-1-.14-1.86-1.39-1.86-1.47,0-1.65,1.28-1.65,2.45V526h-1.14v-6.64h1.14v.8a2.41,2.41,0,0,1,3.81,0,3,3,0,0,1,.38,1.76V526Z"/><path class="cls-1" d="M218.77,526V525a2.84,2.84,0,0,1-2.3,1.12,3.29,3.29,0,0,1-3.2-3.54,3.23,3.23,0,0,1,3.18-3.46,2.81,2.81,0,0,1,2.32,1.1v-.94h1.14V526Zm-2.14-5.78a2.26,2.26,0,0,0-2.19,2.43,2.29,2.29,0,0,0,2.19,2.5,2.27,2.27,0,0,0,2.21-2.5A2.24,2.24,0,0,0,216.63,520.17Z"/><path class="cls-1" d="M15.27,552.14a3.26,3.26,0,0,1-3.3-2.75l1.15-.32a2.17,2.17,0,0,0,2.18,2,2.11,2.11,0,0,0,2.14-2.11c0-2.51-4.93-1.92-4.93-5.06a2.82,2.82,0,0,1,3-2.75,3,3,0,0,1,2.75,1.67l-.94.62a2,2,0,0,0-1.82-1.17,1.69,1.69,0,0,0-1.78,1.63c0,2.21,4.93,1.57,4.93,5A3.29,3.29,0,0,1,15.27,552.14Z"/><path class="cls-1" d="M23.62,552.14a3.5,3.5,0,1,1,3.51-3.49A3.47,3.47,0,0,1,23.62,552.14Zm0-6A2.46,2.46,0,1,0,26,548.66,2.33,2.33,0,0,0,23.61,546.19Zm-1.38-2.24a.81.81,0,0,1-.8-.8.8.8,0,1,1,.8.8Zm2.79,0a.81.81,0,0,1-.8-.8.8.8,0,1,1,.8.8Z"/><path class="cls-1" d="M33,552V548c0-1-.14-1.86-1.39-1.86-1.47,0-1.65,1.28-1.65,2.45V552H28.87v-6.64H30v.8a2.24,2.24,0,0,1,1.92-1,2.26,2.26,0,0,1,1.89.91,3,3,0,0,1,.38,1.76V552Z"/><path class="cls-1" d="M41.45,552V551a2.84,2.84,0,0,1-2.31,1.12,3.29,3.29,0,0,1-3.2-3.52,3.25,3.25,0,0,1,3.19-3.47,2.85,2.85,0,0,1,2.32,1.1v-6h1.14V552Zm-2.15-5.76a2.47,2.47,0,1,0,2.21,2.42A2.23,2.23,0,0,0,39.3,546.19Z"/><path class="cls-1" d="M49.83,552V551a2.84,2.84,0,0,1-2.31,1.12,3.29,3.29,0,0,1-3.2-3.54,3.23,3.23,0,0,1,3.19-3.46,2.81,2.81,0,0,1,2.32,1.1v-.94H51V552Zm-2.15-5.78a2.26,2.26,0,0,0-2.19,2.43,2.29,2.29,0,0,0,2.19,2.5,2.27,2.27,0,0,0,2.21-2.5A2.24,2.24,0,0,0,47.69,546.17Z"/><path class="cls-1" d="M58.73,554.42a3.22,3.22,0,0,1-2.66,1.23,3,3,0,0,1-3.23-3H54a2,2,0,0,0,2.11,2c1.6,0,2.13-1.2,2.13-2.62v-1a3,3,0,0,1-2.34,1.1,3.5,3.5,0,0,1,0-7,2.84,2.84,0,0,1,2.29,1.09v-.93h1.15v6.5A4,4,0,0,1,58.73,554.42Zm-2.67-8.24a2.28,2.28,0,0,0-2.18,2.51,2.24,2.24,0,0,0,2.18,2.42,2.48,2.48,0,0,0,0-4.93Z"/><path class="cls-1" d="M68.7,552V542.4H66.92l.62-1.12h2.34V552Z"/><path class="cls-1" d="M78.15,552.13A3.13,3.13,0,0,1,74.89,549a2.79,2.79,0,0,1,1.58-2.61,2.68,2.68,0,0,1-1.3-2.34,3,3,0,0,1,6,0,2.83,2.83,0,0,0,.21,4.93A3.1,3.1,0,0,1,78.15,552.13Zm0-5.19a2,2,0,1,0,2.06,2A2.05,2.05,0,0,0,78.12,546.94Zm0-4.74A1.86,1.86,0,1,0,80,544.06,1.86,1.86,0,0,0,78.15,542.21Z"/><path class="cls-1" d="M88.82,546.37V552H87.69v-5.59h-.62v-1.06h.62v-2.83a3.82,3.82,0,0,1,.18-1.28,1.85,1.85,0,0,1,1.79-1.1,2.93,2.93,0,0,1,.83.14v1.15a2.05,2.05,0,0,0-.75-.16c-.83,0-.91.62-.91,1.3v2.79h1.66v1.06Z"/><path class="cls-1" d="M92.28,548.86a2.15,2.15,0,0,0,2.11,2.24,2.29,2.29,0,0,0,2-1.38l1,.53a3.31,3.31,0,0,1-3,1.89,3.51,3.51,0,0,1-.06-7c2,0,3.17,1.57,3.17,3.49v.22Zm2-2.67a2,2,0,0,0-2,1.71h3.91A2,2,0,0,0,94.33,546.19Z"/><path class="cls-1" d="M102.65,552.14a2.83,2.83,0,0,1-2.3-1.12V552H99.21V540.28h1.14v6a2.85,2.85,0,0,1,2.32-1.1,3.25,3.25,0,0,1,3.19,3.47A3.29,3.29,0,0,1,102.65,552.14Zm-.16-6a2.24,2.24,0,0,0-2.21,2.45,2.21,2.21,0,1,0,2.21-2.45Z"/><path class="cls-1" d="M111,547.15v-1.06H118v1.06Z"/><path class="cls-1" d="M124.36,548.86a2.15,2.15,0,0,0,2.11,2.24,2.29,2.29,0,0,0,2-1.38l1,.53a3.31,3.31,0,0,1-3,1.89,3.51,3.51,0,0,1-.06-7c2,0,3.17,1.57,3.17,3.49v.22Zm2-2.67a2,2,0,0,0-2,1.71h3.91A2,2,0,0,0,126.41,546.19Z"/><path class="cls-1" d="M135.46,552V548c0-1-.14-1.86-1.39-1.86-1.47,0-1.65,1.28-1.65,2.45V552h-1.14v-6.64h1.14v.8a2.24,2.24,0,0,1,1.92-1,2.26,2.26,0,0,1,1.89.91,3,3,0,0,1,.38,1.76V552Z"/><path class="cls-1" d="M143.86,552V551a2.84,2.84,0,0,1-2.31,1.12,3.29,3.29,0,0,1-3.2-3.52,3.25,3.25,0,0,1,3.19-3.47,2.85,2.85,0,0,1,2.32,1.1v-6H145V552Zm-2.15-5.76a2.47,2.47,0,1,0,2.21,2.42A2.23,2.23,0,0,0,141.72,546.19Z"/><path class="cls-1" d="M152.25,552V551a2.84,2.84,0,0,1-2.31,1.12,3.29,3.29,0,0,1-3.2-3.54,3.23,3.23,0,0,1,3.19-3.46,2.81,2.81,0,0,1,2.32,1.1v-.94h1.14V552Zm-2.15-5.78a2.26,2.26,0,0,0-2.19,2.43,2.29,2.29,0,0,0,2.19,2.5,2.27,2.27,0,0,0,2.21-2.5A2.24,2.24,0,0,0,150.1,546.17Z"/><path class="cls-1" d="M157.35,552.14a2.37,2.37,0,0,1-2.32-1.7l1-.42c.27.59.64,1.07,1.34,1.07a1,1,0,0,0,1.09-1c0-1.44-3-1-3-3.06a1.87,1.87,0,0,1,1.94-1.86,2,2,0,0,1,1.82,1.2l-.94.5a1.06,1.06,0,0,0-.93-.66.79.79,0,0,0-.8.74c0,1.17,3.07.86,3.07,3A2.18,2.18,0,0,1,157.35,552.14Z"/><path class="cls-1" d="M162.31,546.37V552h-1.15v-5.59h-.69v-1.06h.69v-2.4h1.15v2.4h1.17v1.06Z"/><path class="cls-1" d="M169.72,546.37V552h-1.14v-5.59H168v-1.06h.62v-2.83a3.83,3.83,0,0,1,.18-1.28,1.85,1.85,0,0,1,1.79-1.1,2.92,2.92,0,0,1,.83.14v1.15a2.05,2.05,0,0,0-.75-.16c-.83,0-.91.62-.91,1.3v2.79h1.66v1.06Z"/><path class="cls-1" d="M175.49,552.14a3.5,3.5,0,1,1,3.51-3.49A3.47,3.47,0,0,1,175.49,552.14Zm0-6a2.46,2.46,0,1,0,2.35,2.46A2.33,2.33,0,0,0,175.48,546.19Zm-1.38-2.24a.81.81,0,0,1-.8-.8.8.8,0,1,1,.8.8Zm2.79,0a.81.81,0,0,1-.8-.8.8.8,0,1,1,.8.8Z"/><path class="cls-1" d="M183.86,546.46a1,1,0,0,0-.67-.22,1.22,1.22,0,0,0-.58.14c-.74.4-.74,1.34-.74,2.06V552h-1.14v-6.64h1.14V546a1.77,1.77,0,0,1,1.5-.88,1.9,1.9,0,0,1,1,.27Z"/><path class="cls-1" d="M190.36,552V551a2.84,2.84,0,0,1-2.31,1.12,3.29,3.29,0,0,1-3.2-3.54,3.23,3.23,0,0,1,3.19-3.46,2.81,2.81,0,0,1,2.32,1.1v-.94h1.14V552Zm-2.15-5.78a2.26,2.26,0,0,0-2.19,2.43,2.29,2.29,0,0,0,2.19,2.5,2.27,2.27,0,0,0,2.21-2.5A2.24,2.24,0,0,0,188.21,546.17Z"/><path class="cls-1" d="M197.85,552V548c0-1-.14-1.86-1.39-1.86-1.47,0-1.65,1.28-1.65,2.45V552h-1.14v-6.64h1.14v.8a2.24,2.24,0,0,1,1.92-1,2.26,2.26,0,0,1,1.89.91,3,3,0,0,1,.38,1.76V552Z"/><path class="cls-1" d="M208.74,552v-4c0-.85-.14-1.74-1.2-1.74s-1.42,1.12-1.42,2.08V552H205V548c0-.83-.18-1.84-1.22-1.84a1.37,1.37,0,0,0-1.2.72,3.15,3.15,0,0,0-.26,1.44V552h-1.14v-6.64h1.14v.7a1.89,1.89,0,0,1,1.65-.86,2,2,0,0,1,1.82,1.07,2.26,2.26,0,0,1,3.73-.18,3.11,3.11,0,0,1,.37,1.7V552Z"/><path class="cls-1" d="M217.13,552V551a2.84,2.84,0,0,1-2.31,1.12,3.29,3.29,0,0,1-3.2-3.54,3.23,3.23,0,0,1,3.19-3.46,2.81,2.81,0,0,1,2.32,1.1v-.94h1.14V552ZM215,546.17a2.26,2.26,0,0,0-2.19,2.43,2.29,2.29,0,0,0,2.19,2.5,2.27,2.27,0,0,0,2.21-2.5A2.24,2.24,0,0,0,215,546.17Zm-1.33-2.23a.81.81,0,0,1-.8-.8.8.8,0,1,1,.8.8Zm2.79,0a.81.81,0,0,1-.8-.8.8.8,0,1,1,.8.8Z"/><path class="cls-1" d="M220.44,552V540.28h1.14V552Z"/><path class="cls-1" d="M228.82,552V551a2.84,2.84,0,0,1-2.31,1.12,3.29,3.29,0,0,1-3.2-3.54,3.23,3.23,0,0,1,3.19-3.46,2.81,2.81,0,0,1,2.32,1.1v-.94H230V552Zm-2.15-5.78a2.26,2.26,0,0,0-2.19,2.43,2.29,2.29,0,0,0,2.19,2.5,2.27,2.27,0,0,0,2.21-2.5A2.24,2.24,0,0,0,226.68,546.17Z"/><path class="cls-1" d="M236.31,552V548c0-1-.14-1.86-1.39-1.86-1.47,0-1.65,1.28-1.65,2.45V552h-1.14v-6.64h1.14v.8a2.24,2.24,0,0,1,1.92-1,2.26,2.26,0,0,1,1.89.91,3,3,0,0,1,.38,1.76V552Z"/></svg>