<svg id="Layer_1" data-name="Layer 1" xmlns="http://www.w3.org/2000/svg" viewBox="0 0 250 720"><defs><style>.cls-1{fill:#d4ac76;}</style></defs><title>text</title><path class="cls-1" d="M73.75,45.31a6.94,6.94,0,0,1-9.31,0,6,6,0,0,1-1.84-4.5v-11H65.8V40.4A3.9,3.9,0,0,0,66.67,43a3.38,3.38,0,0,0,4.85,0,3.83,3.83,0,0,0,.88-2.59V29.84h3.19v11A6,6,0,0,1,73.75,45.31Z"/><path class="cls-1" d="M81.29,46.84v-17h6.1a5.78,5.78,0,0,1,5.91,5.87,5.39,5.39,0,0,1-1.73,4.09,5.94,5.94,0,0,1-4.24,1.63H84.48v5.41ZM87.12,32.9H84.48v5.7h2.68a3,3,0,0,0,2.13-.76,2.65,2.65,0,0,0,.81-2,2.79,2.79,0,0,0-.84-2.09A3,3,0,0,0,87.12,32.9Z"/><path class="cls-1" d="M98,46.84v-17h6.1A5.78,5.78,0,0,1,110,35.71a5.39,5.39,0,0,1-1.73,4.09A5.94,5.94,0,0,1,104,41.43h-2.86v5.41Zm5.83-13.95h-2.64v5.7h2.68a3,3,0,0,0,2.13-.76,2.65,2.65,0,0,0,.81-2,2.79,2.79,0,0,0-.84-2.09A3,3,0,0,0,103.81,32.9Z"/><path class="cls-1" d="M113.08,32.9V29.84h14V32.9h-5.41V46.84h-3.19V32.9Z"/><path class="cls-1" d="M127.68,46.84l6.56-17h2.88l6.54,17h-3.28l-.9-2.35h-7.61L131,46.84Zm6.53-18.75a1.37,1.37,0,0,1-1,.45,1.4,1.4,0,0,1-1-.45,1.52,1.52,0,0,1,1-2.61,1.4,1.4,0,0,1,1,.44,1.48,1.48,0,0,1,.44,1.08A1.53,1.53,0,0,1,134.21,28.09Zm1.47,6.51L133,41.65h5.42Zm3.59-6.51a1.64,1.64,0,0,1-2.26,0,1.46,1.46,0,0,1-.47-1.09,1.43,1.43,0,0,1,.47-1.08,1.67,1.67,0,0,1,2.26,0,1.43,1.43,0,0,1,.47,1.08A1.46,1.46,0,0,1,139.27,28.09Z"/><path class="cls-1" d="M161.39,44.45a8.49,8.49,0,0,1-6.3,2.68,8.59,8.59,0,0,1-6.28-2.57,8.8,8.8,0,0,1,0-12.47,8.86,8.86,0,0,1,12.55.07l-2.24,2.18a5.32,5.32,0,0,0-4-1.76,5.4,5.4,0,0,0-4,1.68,5.87,5.87,0,0,0,0,8.14,5.61,5.61,0,0,0,8.11-.1Z"/><path class="cls-1" d="M166,46.84v-17H169v7.5l6.51-7.5h3.94l-6,6.78,6.13,10.22h-3.67l-4.63-7.76L169,41.65v5.19Z"/><path class="cls-1" d="M26.14,73.24v-17H31a8.33,8.33,0,0,1,6,2.43,8.18,8.18,0,0,1,2.5,6.13A8,8,0,0,1,37,70.87a8.68,8.68,0,0,1-6.16,2.38ZM31,59.08H29.09V70.41h2a4.9,4.9,0,0,0,3.76-1.65,5.77,5.77,0,0,0,1.51-4.05,5.6,5.6,0,0,0-1.53-4A5,5,0,0,0,31,59.08Z"/><path class="cls-1" d="M44.49,73.24v-17h3.19v17Z"/><path class="cls-1" d="M51.8,59.3V56.24h14V59.3H60.4V73.24H57.21V59.3Z"/><path class="cls-1" d="M68.8,59.3V56.24h14V59.3H77.4V73.24H74.21V59.3Z"/><path class="cls-1" d="M96.08,73.24v-17h9.26v2.84H99.27v4.64h5.41v2.84H99.27v6.69Z"/><path class="cls-1" d="M110,73.24v-17h6.65a5.73,5.73,0,0,1,4.1,1.54,5.29,5.29,0,0,1,1.64,4,5.11,5.11,0,0,1-1.22,3.45A5.48,5.48,0,0,1,118,67.07l4.57,6.17H119l-4.41-6.07h-1.37v6.07Zm6.16-14.17h-3v5.54h3a3.15,3.15,0,0,0,2.21-.75,2.54,2.54,0,0,0,.83-2,2.67,2.67,0,0,0-.85-2A3,3,0,0,0,116.15,59.08Z"/><path class="cls-1" d="M125.45,73.24l6.56-17h2.88l6.54,17h-3.28l-.9-2.35h-7.61l-.91,2.35Zm8-12.25-2.72,7.05h5.42Z"/><path class="cls-1" d="M145.4,73.24v-17h3.08l5.26,8.38,5.32-8.38h3.34v17h-3.19V61.61l-.26,0-5.28,8.14-5.14-8h0V73.24Z"/><path class="cls-1" d="M166.33,59.3V56.24h14V59.3h-5.41V73.24h-3.19V59.3Z"/><path class="cls-1" d="M184.41,73.24v-17h3.19v17Z"/><path class="cls-1" d="M193.67,73.24v-17h4.85a8.33,8.33,0,0,1,6,2.43A8.19,8.19,0,0,1,207,64.8a8,8,0,0,1-2.54,6.07,8.69,8.69,0,0,1-6.16,2.38Zm4.89-14.17h-1.94V70.41h2a4.9,4.9,0,0,0,3.76-1.65,5.77,5.77,0,0,0,1.51-4.05,5.6,5.6,0,0,0-1.53-4A5,5,0,0,0,198.56,59.08Z"/><path class="cls-1" d="M209.67,73.24l6.56-17h2.88l6.54,17h-3.28l-.9-2.35h-7.61l-.91,2.35Zm8-12.25-2.72,7.05h5.42Z"/><path class="cls-1" d="M74.7,99.64v-17h5.6A5.12,5.12,0,0,1,84,84.06a4.7,4.7,0,0,1,1.46,3.51A4,4,0,0,1,83.57,91a4.73,4.73,0,0,1,1.88,1.52,3.6,3.6,0,0,1,.71,2.16,4.67,4.67,0,0,1-1.49,3.6,5.33,5.33,0,0,1-3.76,1.37Zm5.22-14.17H77.65v4.27h2.54a2.34,2.34,0,0,0,1.69-.63,2.09,2.09,0,0,0,.65-1.57A1.82,1.82,0,0,0,81.81,86,3,3,0,0,0,79.92,85.48Zm.48,6.82H77.65v4.51h2.69a2.75,2.75,0,0,0,1.92-.64A2.12,2.12,0,0,0,83,94.52a2.09,2.09,0,0,0-.66-1.61A2.71,2.71,0,0,0,80.41,92.3Z"/><path class="cls-1" d="M107.74,91.13a8.83,8.83,0,1,1-2.58-6.24A8.46,8.46,0,0,1,107.74,91.13ZM94.9,95.19a5.59,5.59,0,0,0,8,0,5.84,5.84,0,0,0,0-8.14,5.59,5.59,0,0,0-8,0,5.87,5.87,0,0,0,0,8.14Z"/><path class="cls-1" d="M122.11,92.45h-6.29v4.36h6.91v2.84h-10.1v-17h9.9v2.84h-6.71v4.14h6.29Z"/><path class="cls-1" d="M127.89,99.64v-17h2.24l8.37,10.69V82.64h3.19v17h-2.13l-8.47-10.82V99.64Z"/><path class="cls-1" d="M147.76,99.64v-17h4.85a8.33,8.33,0,0,1,6,2.43,8.19,8.19,0,0,1,2.5,6.13,8,8,0,0,1-2.54,6.07,8.69,8.69,0,0,1-6.16,2.38Zm4.89-14.17h-1.94V96.81h2a4.9,4.9,0,0,0,3.76-1.65,5.77,5.77,0,0,0,1.51-4.05,5.6,5.6,0,0,0-1.53-4A5,5,0,0,0,152.65,85.48Z"/><path class="cls-1" d="M175.59,92.45H169.3v4.36h6.91v2.84h-10.1v-17H176v2.84H169.3v4.14h6.29Z"/></svg>