<svg id="Layer_1" data-name="Layer 1" xmlns="http://www.w3.org/2000/svg" viewBox="0 0 250 720"><defs><style>.cls-1{fill:#d80201;}</style></defs><title>text</title><path class="cls-1" d="M44.83,526.14a3.27,3.27,0,0,1-3.3-2.75l1.16-.32A2.16,2.16,0,0,0,44.86,525,2.11,2.11,0,0,0,47,522.91c0-2.51-4.93-1.92-4.93-5.06a2.82,2.82,0,0,1,3-2.75,3,3,0,0,1,2.75,1.66l-.94.63a2,2,0,0,0-1.82-1.17,1.7,1.7,0,0,0-1.78,1.63c0,2.21,4.93,1.57,4.93,5A3.29,3.29,0,0,1,44.83,526.14Z"/><path class="cls-1" d="M54.21,526l-2.69-3-.29.28V526H50.09V514.28h1.14v7.48l2.42-2.45h1.52l-2.85,2.82L55.7,526Z"/><path class="cls-1" d="M59.52,526.14a3.5,3.5,0,1,1,3.5-3.48A3.47,3.47,0,0,1,59.52,526.14Zm0-5.95a2.46,2.46,0,1,0,2.36,2.47A2.32,2.32,0,0,0,59.5,520.19Z"/><path class="cls-1" d="M70.35,528.42a3.2,3.2,0,0,1-2.65,1.23,3,3,0,0,1-3.24-3H65.6a2,2,0,0,0,2.11,2c1.6,0,2.13-1.21,2.13-2.63v-1a3,3,0,0,1-2.34,1.11,3.5,3.5,0,0,1,0-7,2.84,2.84,0,0,1,2.29,1.09v-.93H71v6.5A4.05,4.05,0,0,1,70.35,528.42Zm-2.67-8.25a2.29,2.29,0,0,0-2.18,2.52,2.24,2.24,0,0,0,2.18,2.41,2.48,2.48,0,0,0,0-4.93Z"/><path class="cls-1" d="M75,526.14a2.37,2.37,0,0,1-2.32-1.69l1-.42c.27.59.64,1.07,1.34,1.07a1,1,0,0,0,1.09-1c0-1.44-3-1-3-3A1.87,1.87,0,0,1,75,519.15a2,2,0,0,1,1.82,1.2l-.94.5a1.07,1.07,0,0,0-.93-.66.79.79,0,0,0-.8.74c0,1.16,3.07.86,3.07,3A2.17,2.17,0,0,1,75,526.14Z"/><path class="cls-1" d="M86.34,526v-4c0-.85-.15-1.75-1.2-1.75-1.2,0-1.43,1.12-1.43,2.08V526H82.58V522c0-.83-.18-1.84-1.22-1.84a1.37,1.37,0,0,0-1.2.72,3.1,3.1,0,0,0-.26,1.44V526H78.77v-6.64H79.9v.7a1.9,1.9,0,0,1,1.65-.86,2,2,0,0,1,1.83,1.07,2.25,2.25,0,0,1,3.72-.17,3,3,0,0,1,.37,1.69V526Z"/><path class="cls-1" d="M90.59,529.7H89.31l2.14-4.37-3-6h1.31l2.35,4.75,2.15-4.75H95.5Z"/><path class="cls-1" d="M99.84,520.46a1,1,0,0,0-.67-.22,1.3,1.3,0,0,0-.58.14c-.74.4-.74,1.35-.74,2.07V526H96.72v-6.64h1.13V520a1.79,1.79,0,0,1,1.51-.88,1.9,1.9,0,0,1,1,.27Z"/><path class="cls-1" d="M106.34,526V525a2.84,2.84,0,0,1-2.31,1.12,3.29,3.29,0,0,1-3.2-3.53,3.23,3.23,0,0,1,3.19-3.46,2.82,2.82,0,0,1,2.32,1.1v-.94h1.13V526Zm-2.15-5.78a2.48,2.48,0,1,0,2.21,2.44A2.24,2.24,0,0,0,104.19,520.17Z"/><path class="cls-1" d="M115.23,528.42a3.21,3.21,0,0,1-2.66,1.23,3,3,0,0,1-3.23-3h1.14a2,2,0,0,0,2.11,2c1.6,0,2.13-1.21,2.13-2.63v-1a3,3,0,0,1-2.34,1.11,3.5,3.5,0,0,1,.05-7,2.84,2.84,0,0,1,2.29,1.09v-.93h1.15v6.5A4.05,4.05,0,0,1,115.23,528.42Zm-2.67-8.25a2.29,2.29,0,0,0-2.18,2.52,2.24,2.24,0,0,0,2.18,2.41,2.48,2.48,0,0,0,0-4.93Z"/><path class="cls-1" d="M123.12,526V525a2.82,2.82,0,0,1-2.31,1.12,3.29,3.29,0,0,1-3.2-3.53,3.23,3.23,0,0,1,3.19-3.46,2.8,2.8,0,0,1,2.32,1.1v-.94h1.14V526ZM121,520.17a2.48,2.48,0,1,0,2.2,2.44A2.24,2.24,0,0,0,121,520.17Z"/><path class="cls-1" d="M127.58,520.37V526h-1.15v-5.58h-.69v-1.06h.69v-2.4h1.15v2.4h1.17v1.06Z"/><path class="cls-1" d="M134.93,526V525a2.84,2.84,0,0,1-2.31,1.12,3.29,3.29,0,0,1-3.2-3.53,3.23,3.23,0,0,1,3.19-3.46,2.82,2.82,0,0,1,2.32,1.1v-.94h1.13V526Zm-2.15-5.78a2.48,2.48,0,1,0,2.21,2.44A2.24,2.24,0,0,0,132.78,520.17Z"/><path class="cls-1" d="M142.42,526V522c0-1-.15-1.86-1.4-1.86-1.47,0-1.65,1.28-1.65,2.45V526h-1.13v-6.64h1.13v.8a2.41,2.41,0,0,1,3.81-.05,3,3,0,0,1,.39,1.76V526Z"/><path class="cls-1" d="M152.86,526.13a3.32,3.32,0,0,1-2.46-1.06,2.78,2.78,0,0,1-.71-1.89h1.16a2,2,0,0,0,.36,1,2.14,2.14,0,0,0,1.68.8,2.08,2.08,0,0,0,2.1-2.12c0-1.4-1-2-2.27-2v-1a2.39,2.39,0,0,0,1.26-.26,1.83,1.83,0,0,0-1-3.38,1.8,1.8,0,0,0-1.46.69,2.58,2.58,0,0,0-.35,1H150c.24-1.73,1.15-2.8,3-2.8a2.86,2.86,0,0,1,3,2.86,2.6,2.6,0,0,1-1.38,2.37,2.74,2.74,0,0,1,1.54,2.58A3.17,3.17,0,0,1,152.86,526.13Z"/><path class="cls-1" d="M162.27,526.13a3.68,3.68,0,0,1-3.7-3.62,4.3,4.3,0,0,1,.88-2.45l3.64-5,.89.67-2.45,3.41a3.57,3.57,0,0,1,1-.14,3.47,3.47,0,0,1,3.43,3.52A3.69,3.69,0,0,1,162.27,526.13Zm0-6.12a2.51,2.51,0,1,0,2.5,2.5A2.5,2.5,0,0,0,162.25,520Z"/><path class="cls-1" d="M167.93,528.39l-.75-.31,1.31-3.7,1.06.39Z"/><path class="cls-1" d="M175.82,526V515.28H177v9.57H180V526Z"/><path class="cls-1" d="M185.92,525.31a2.91,2.91,0,0,1-4.07,0,2.71,2.71,0,0,1-.61-2v-4h1.14v3.87a2.53,2.53,0,0,0,.21,1.25,1.41,1.41,0,0,0,1.29.67,1.45,1.45,0,0,0,1.29-.67,2.68,2.68,0,0,0,.2-1.25v-3.87h1.14v4A2.7,2.7,0,0,1,185.92,525.31Z"/><path class="cls-1" d="M188.68,526V514.28h1.14V526Z"/><path class="cls-1" d="M192.76,522.86a2.16,2.16,0,0,0,2.12,2.24,2.3,2.3,0,0,0,2.05-1.37l1,.53a3.32,3.32,0,0,1-3,1.88,3.5,3.5,0,0,1-.06-7,3.18,3.18,0,0,1,3.17,3.49v.22Zm2.05-2.67a2,2,0,0,0-2,1.71h3.91A2,2,0,0,0,194.81,520.19Z"/><path class="cls-1" d="M204.77,526V525a2.84,2.84,0,0,1-2.31,1.12,3.29,3.29,0,0,1-3.2-3.53,3.23,3.23,0,0,1,3.18-3.46,2.83,2.83,0,0,1,2.33,1.1v-.94h1.13V526Zm-2.15-5.78a2.48,2.48,0,1,0,2.21,2.44A2.24,2.24,0,0,0,202.62,520.17Zm0-2.17a1.38,1.38,0,1,1,1.37-1.38A1.36,1.36,0,0,1,202.59,518Zm0-2a.67.67,0,1,0,.67.67A.67.67,0,0,0,202.59,516Z"/><path class="cls-1" d="M30.89,552.14a3.25,3.25,0,0,1-3.3-2.75l1.15-.32A2.17,2.17,0,0,0,30.92,551a2.1,2.1,0,0,0,2.14-2.11c0-2.51-4.93-1.92-4.93-5.06a2.83,2.83,0,0,1,3-2.75,3,3,0,0,1,2.75,1.66l-.94.63a2,2,0,0,0-1.83-1.17,1.7,1.7,0,0,0-1.78,1.63c0,2.21,4.94,1.57,4.94,5A3.29,3.29,0,0,1,30.89,552.14Z"/><path class="cls-1" d="M39.24,552.14a3.5,3.5,0,1,1,3.51-3.48A3.47,3.47,0,0,1,39.24,552.14Zm0-5.95a2.46,2.46,0,1,0,2.36,2.47A2.32,2.32,0,0,0,39.22,546.19ZM37.85,544a.82.82,0,0,1-.8-.8.8.8,0,1,1,.8.8Zm2.78,0a.82.82,0,0,1-.8-.8.8.8,0,1,1,.8.8Z"/><path class="cls-1" d="M48.66,552V548c0-1-.14-1.86-1.39-1.86-1.47,0-1.65,1.28-1.65,2.45V552H44.49v-6.64h1.13v.8a2.41,2.41,0,0,1,3.81-.05,3,3,0,0,1,.39,1.76V552Z"/><path class="cls-1" d="M57.06,552V551a2.82,2.82,0,0,1-2.3,1.12,3.51,3.51,0,0,1,0-7,2.85,2.85,0,0,1,2.32,1.1v-6H58.2V552Zm-2.14-5.76a2.47,2.47,0,1,0,2.21,2.42A2.23,2.23,0,0,0,54.92,546.19Z"/><path class="cls-1" d="M65.45,552V551a2.84,2.84,0,0,1-2.31,1.12,3.29,3.29,0,0,1-3.2-3.53,3.23,3.23,0,0,1,3.19-3.46,2.82,2.82,0,0,1,2.32,1.1v-.94h1.13V552Zm-2.15-5.78a2.48,2.48,0,1,0,2.21,2.44A2.24,2.24,0,0,0,63.3,546.17Z"/><path class="cls-1" d="M74.34,554.42a3.2,3.2,0,0,1-2.65,1.23,3,3,0,0,1-3.24-3h1.14a2,2,0,0,0,2.11,2c1.6,0,2.13-1.21,2.13-2.63v-1a3,3,0,0,1-2.33,1.11,3.5,3.5,0,0,1,0-7,2.84,2.84,0,0,1,2.29,1.09v-.93H75v6.5A4,4,0,0,1,74.34,554.42Zm-2.67-8.25a2.29,2.29,0,0,0-2.18,2.52,2.24,2.24,0,0,0,2.18,2.41,2.48,2.48,0,0,0,0-4.93Z"/><path class="cls-1" d="M84.31,552V542.4H82.53l.63-1.12H85.5V552Z"/><path class="cls-1" d="M93.38,552V542.4H91.61l.62-1.12h2.34V552Z"/><path class="cls-1" d="M107.48,552V548c0-1-.15-1.86-1.39-1.86-1.48,0-1.65,1.28-1.65,2.45V552H103.3v-6.64h1.14v.8a2.23,2.23,0,0,1,1.92-1,2.26,2.26,0,0,1,1.89.91,3,3,0,0,1,.38,1.76V552Z"/><path class="cls-1" d="M113.89,552.14a3.5,3.5,0,1,1,3.51-3.48A3.47,3.47,0,0,1,113.89,552.14Zm0-5.95a2.46,2.46,0,1,0,2.35,2.47A2.33,2.33,0,0,0,113.88,546.19Z"/><path class="cls-1" d="M121.17,552.38l-3.26-7.07h1.28l2,4.47,2-4.47h1.28Z"/><path class="cls-1" d="M126.18,548.86a2.15,2.15,0,0,0,2.11,2.24,2.29,2.29,0,0,0,2.05-1.37l1,.53a3.31,3.31,0,0,1-3,1.88,3.5,3.5,0,0,1-.06-7,3.18,3.18,0,0,1,3.17,3.49v.22Zm2-2.67a2,2,0,0,0-2,1.71h3.91A2,2,0,0,0,128.23,546.19Z"/><path class="cls-1" d="M140.68,552v-4c0-.85-.14-1.75-1.2-1.75s-1.43,1.12-1.43,2.08V552h-1.13V548c0-.83-.18-1.84-1.22-1.84a1.39,1.39,0,0,0-1.2.72,3.23,3.23,0,0,0-.25,1.44V552h-1.14v-6.64h1.14v.7a1.9,1.9,0,0,1,1.64-.86,2,2,0,0,1,1.83,1.07,2.26,2.26,0,0,1,3.73-.17,3.09,3.09,0,0,1,.37,1.69V552Z"/><path class="cls-1" d="M147.43,552.14a2.82,2.82,0,0,1-2.3-1.12V552H144V540.28h1.14v6a2.85,2.85,0,0,1,2.32-1.1,3.51,3.51,0,0,1,0,7Zm-.16-5.95a2.24,2.24,0,0,0-2.21,2.45,2.21,2.21,0,1,0,2.21-2.45Z"/><path class="cls-1" d="M153.14,548.86a2.15,2.15,0,0,0,2.11,2.24,2.29,2.29,0,0,0,2.05-1.37l1,.53a3.31,3.31,0,0,1-3,1.88,3.5,3.5,0,0,1-.06-7,3.18,3.18,0,0,1,3.17,3.49v.22Zm2.05-2.67a2,2,0,0,0-2,1.71h3.91A2,2,0,0,0,155.19,546.19Z"/><path class="cls-1" d="M163.19,546.46a1,1,0,0,0-.67-.22,1.34,1.34,0,0,0-.58.14c-.73.4-.73,1.35-.73,2.07V552h-1.14v-6.64h1.14V546a1.76,1.76,0,0,1,1.5-.88,1.88,1.88,0,0,1,1,.27Z"/><path class="cls-1" d="M172.9,552l-2.69-3-.29.28V552h-1.13V540.28h1.13v7.48l2.42-2.45h1.52L171,548.13l3.38,3.82Z"/><path class="cls-1" d="M175.52,552V540.28h1.14V552Z"/><path class="cls-1" d="M186,552V542.4h-1.78l.63-1.12h2.33V552Z"/><path class="cls-1" d="M196.23,548.35l-2.19,2.5h4.48V552h-6.9l3.89-4.5c.72-.83,1.84-2,1.84-3.18a2.13,2.13,0,1,0-4.26.13h-1.2a4.11,4.11,0,0,1,.23-1.2,3.33,3.33,0,0,1,6.41,1.09C198.53,545.89,197.22,547.23,196.23,548.35Z"/><path class="cls-1" d="M199.89,549.06v-1h2.9v1Z"/><path class="cls-1" d="M207,552V542.4h-1.78l.63-1.12h2.33V552Z"/><path class="cls-1" d="M218.82,550.21V552h-1.18v-1.74h-5.48l6.66-9.53v8.44h1.31v1.09Zm-1.18-5.91-3.38,4.82h3.38Z"/></svg>