<svg id="Layer_1" data-name="Layer 1" xmlns="http://www.w3.org/2000/svg" viewBox="0 0 250 720"><defs><style>.cls-1{fill:#d4ac76;}</style></defs><title>text</title><path class="cls-1" d="M10.68,537.26l-2.87-7.34H9l2.2,5.64,2.2-5.64h1.13l-2.87,7.34Z"/><path class="cls-1" d="M16.34,537.26v-7.34h1v7.34Z"/><path class="cls-1" d="M22,537.35a3.42,3.42,0,0,1-1.37-.29,3.63,3.63,0,0,1-1.16-.79l.72-.83a2.79,2.79,0,0,0,.85.67,2.16,2.16,0,0,0,1,.27,1.42,1.42,0,0,0,.95-.31,1,1,0,0,0,.37-.78,1.28,1.28,0,0,0-.93-1.2l-.87-.34a3,3,0,0,1-1.2-.79,1.73,1.73,0,0,1-.39-1.16,1.85,1.85,0,0,1,.61-1.39,2.09,2.09,0,0,1,1.5-.58,3,3,0,0,1,2.13.81l-.62.83a2,2,0,0,0-1.51-.66,1.16,1.16,0,0,0-.78.26.85.85,0,0,0-.3.68.82.82,0,0,0,.22.57,2.07,2.07,0,0,0,.75.45l.88.35a2.08,2.08,0,0,1,1.54,2.1,2,2,0,0,1-.65,1.55A2.46,2.46,0,0,1,22,537.35Z"/><path class="cls-1" d="M26.7,537.26v-7.34h.72l4,5.06v-5.06h1v7.34h-.57L27.72,532v5.24Z"/><path class="cls-1" d="M35.29,537.26v-7.34h1v7.34Z"/><path class="cls-1" d="M39.14,537.26v-7.34h.72l4,5.06v-5.06h1v7.34h-.57L40.17,532v5.24Z"/><path class="cls-1" d="M52.33,534.07v-1h2.44v.51a3.78,3.78,0,0,1-3.8,3.78,3.59,3.59,0,0,1-2.68-1.1,4,4,0,0,1,0-5.42,3.59,3.59,0,0,1,2.68-1.1,4,4,0,0,1,1.54.3,3.74,3.74,0,0,1,1.26.85l-.76.78a2.6,2.6,0,0,0-2-1,2.56,2.56,0,0,0-1.95.83,3,3,0,0,0,0,4,2.56,2.56,0,0,0,1.95.83,2.61,2.61,0,0,0,1.76-.64,2.78,2.78,0,0,0,.93-1.69Z"/><path class="cls-1" d="M60.88,537.26v-7.34h1v6.37h3v1Z"/><path class="cls-1" d="M66.23,537.26l2.95-7.34h.93L73,537.26H71.87l-.44-1.13h-3.6l-.45,1.13Zm2.65-8.12a.48.48,0,0,1-.37.16.47.47,0,0,1-.36-.16.62.62,0,0,1,0-.8.47.47,0,0,1,.36-.16.48.48,0,0,1,.37.16.6.6,0,0,1,0,.8Zm.76,2.46-1.43,3.55H71Zm1.28-2.46a.49.49,0,0,1-.73,0,.61.61,0,0,1,0-.8.49.49,0,0,1,.73,0,.61.61,0,0,1,0,.8Z"/><path class="cls-1" d="M79.3,534.07v-1h2.44v.51a3.78,3.78,0,0,1-3.8,3.78,3.59,3.59,0,0,1-2.68-1.1,4,4,0,0,1,0-5.42,3.59,3.59,0,0,1,2.68-1.1,4,4,0,0,1,1.54.3,3.74,3.74,0,0,1,1.26.85l-.76.78a2.6,2.6,0,0,0-2-1,2.56,2.56,0,0,0-1.95.83,3,3,0,0,0,0,4,2.56,2.56,0,0,0,1.95.83,2.61,2.61,0,0,0,1.76-.64,2.78,2.78,0,0,0,.93-1.69Z"/><path class="cls-1" d="M88.12,534h-3v2.24h3.23v1H84.07v-7.34h4.2v1H85.1v2.17h3Z"/><path class="cls-1" d="M90.69,537.26v-7.34h.72l4,5.06v-5.06h1v7.34h-.57L91.71,532v5.24Z"/><path class="cls-1" d="M103.88,537.26v-3.18h-3.57v3.18h-1v-7.34h1v3.18h3.57v-3.18h1v7.34Z"/><path class="cls-1" d="M111.83,534h-3v2.24H112v1h-4.26v-7.34H112v1h-3.17v2.17h3Z"/><path class="cls-1" d="M113.62,530.89v-1h5.95v1h-2.46v6.37h-1v-6.37Z"/><path class="cls-1" d="M127.88,537.38a2.56,2.56,0,0,1-1.92-.77,2.67,2.67,0,0,1-.75-1.94v-4.76h1v4.7a1.9,1.9,0,0,0,.44,1.28,1.5,1.5,0,0,0,1.2.51,1.54,1.54,0,0,0,1.21-.5,1.86,1.86,0,0,0,.44-1.28v-4.71h1v4.76a2.67,2.67,0,0,1-.75,1.94A2.58,2.58,0,0,1,127.88,537.38Z"/><path class="cls-1" d="M133.29,537.26v-7.34H134l4,5.06v-5.06h1v7.34h-.57L134.32,532v5.24Z"/><path class="cls-1" d="M141.89,537.26v-7.34h2a3.7,3.7,0,0,1,2.57,6.3,3.59,3.59,0,0,1-2.61,1Zm2-6.37h-1v5.39h1a2.38,2.38,0,0,0,1.81-.79,2.72,2.72,0,0,0,.73-1.92,2.62,2.62,0,0,0-.76-1.91A2.45,2.45,0,0,0,143.9,530.89Z"/><path class="cls-1" d="M153.88,534h-3v2.24h3.23v1h-4.26v-7.34H154v1h-3.17v2.17h3Z"/><path class="cls-1" d="M156.44,537.26v-7.34h2.73a2.29,2.29,0,0,1,1.65.64,2.27,2.27,0,0,1-1.29,3.91l2.13,2.79H160.4l-2.11-2.8h-.82v2.8Zm2.59-6.37h-1.56v2.65H159a1.49,1.49,0,0,0,1-.36,1.33,1.33,0,0,0,0-1.91A1.44,1.44,0,0,0,159,530.89Z"/><path class="cls-1" d="M167.65,537.26v-7.34h2.25a2.34,2.34,0,0,1,1.62.57,1.89,1.89,0,0,1,.64,1.48,1.73,1.73,0,0,1-.87,1.58,1.86,1.86,0,0,1,.79.66,1.72,1.72,0,0,1,.29,1,1.9,1.9,0,0,1-.64,1.5,2.4,2.4,0,0,1-1.64.56Zm2.14-6.37h-1.12v2.23H170a1.11,1.11,0,0,0,.82-.32,1.13,1.13,0,0,0,.33-.84.94.94,0,0,0-.37-.77A1.51,1.51,0,0,0,169.8,530.89ZM170,534h-1.34v2.24H170a1.52,1.52,0,0,0,1-.31,1,1,0,0,0,.37-.84,1,1,0,0,0-.34-.78A1.41,1.41,0,0,0,170,534Z"/><path class="cls-1" d="M178.24,529.91h1.18L177,534.3v3h-1v-2.92l-2.47-4.43h1.23l1.78,3.26Z"/><path class="cls-1" d="M185.55,534.07v-1H188v.51a3.78,3.78,0,0,1-3.8,3.78,3.59,3.59,0,0,1-2.68-1.1,4,4,0,0,1,0-5.42,3.59,3.59,0,0,1,2.68-1.1,4,4,0,0,1,1.54.3,3.74,3.74,0,0,1,1.26.85l-.76.78a2.6,2.6,0,0,0-2-1,2.56,2.56,0,0,0-1.95.83,3,3,0,0,0,0,4,2.56,2.56,0,0,0,1.95.83,2.61,2.61,0,0,0,1.76-.64,2.78,2.78,0,0,0,.93-1.69Z"/><path class="cls-1" d="M195,534.07v-1h2.44v.51a3.78,3.78,0,0,1-3.8,3.78,3.59,3.59,0,0,1-2.68-1.1,4,4,0,0,1,0-5.42,3.59,3.59,0,0,1,2.68-1.1,4,4,0,0,1,1.54.3,3.74,3.74,0,0,1,1.26.85l-.76.78a2.6,2.6,0,0,0-2-1,2.56,2.56,0,0,0-1.95.83,3,3,0,0,0,0,4,2.56,2.56,0,0,0,1.95.83,2.61,2.61,0,0,0,1.76-.64,2.78,2.78,0,0,0,.93-1.69Z"/><path class="cls-1" d="M199.79,537.26v-7.34h.72l4,5.06v-5.06h1v7.34h-.57L200.82,532v5.24Z"/><path class="cls-1" d="M207.54,537.26l2.95-7.34h.93l2.89,7.34h-1.13l-.44-1.13h-3.6l-.45,1.13Zm3.41-5.66-1.43,3.55h2.82Z"/><path class="cls-1" d="M214.55,530.89v-1h5.95v1H218v6.37h-1v-6.37Z"/><path class="cls-1" d="M222.35,537.26v-7.34h1v7.34Z"/><path class="cls-1" d="M229.41,537.39a3.61,3.61,0,0,1-2.65-1.09,3.94,3.94,0,0,1,0-5.45,3.75,3.75,0,0,1,5.29,0,3.91,3.91,0,0,1,0,5.44A3.61,3.61,0,0,1,229.41,537.39Zm-1.92-1.8a2.66,2.66,0,0,0,3.84,0,2.94,2.94,0,0,0,0-4,2.64,2.64,0,0,0-3.84,0,2.94,2.94,0,0,0,0,4Z"/><path class="cls-1" d="M235.53,537.26v-7.34h.72l4,5.06v-5.06h1v7.34h-.57L236.56,532v5.24Z"/><path class="cls-1" d="M12.24,557.26v-8.12h1.13v7h3.34v1.08Z"/><path class="cls-1" d="M22,557.41a4,4,0,0,1-2.93-1.2,4.36,4.36,0,0,1,0-6,4.15,4.15,0,0,1,5.84,0,4.33,4.33,0,0,1,0,6A4,4,0,0,1,22,557.41Zm-2.12-2a2.94,2.94,0,0,0,4.25,0,3.24,3.24,0,0,0,0-4.43,2.92,2.92,0,0,0-4.24,0,3.25,3.25,0,0,0,0,4.43Zm1.37-7.13a.53.53,0,0,1-.41.18.52.52,0,0,1-.4-.18.68.68,0,0,1,0-.88.52.52,0,0,1,.4-.18.53.53,0,0,1,.41.18.67.67,0,0,1,0,.88Zm2.25,0a.54.54,0,0,1-.81,0,.67.67,0,0,1,0-.88.54.54,0,0,1,.81,0,.68.68,0,0,1,0,.88Z"/><path class="cls-1" d="M28.79,557.26v-8.12h3a2.54,2.54,0,0,1,1.83.71,2.51,2.51,0,0,1-1.42,4.32l2.35,3.09h-1.4l-2.33-3.1h-.9v3.1Zm2.86-7H29.92v2.93h1.72a1.64,1.64,0,0,0,1.15-.4,1.47,1.47,0,0,0,0-2.11A1.58,1.58,0,0,0,31.65,550.22Z"/><path class="cls-1" d="M37,557.26v-8.12h2.17a4.09,4.09,0,0,1,2.84,7,4,4,0,0,1-2.88,1.16Zm2.22-7H38.13v6h1.12a2.62,2.62,0,0,0,2-.87,3,3,0,0,0,.81-2.12,2.89,2.89,0,0,0-.84-2.11A2.71,2.71,0,0,0,39.22,550.22Z"/><path class="cls-1" d="M44.59,557.26l3.26-8.12h1l3.2,8.12H50.82L50.33,556h-4l-.5,1.25ZM48.36,551l-1.58,3.92H49.9Z"/><path class="cls-1" d="M59,553.73v-1.08h2.7v.57a4.18,4.18,0,0,1-4.2,4.18,4,4,0,0,1-3-1.21,4.38,4.38,0,0,1,0-6,4,4,0,0,1,3-1.21,4.38,4.38,0,0,1,1.71.34,4.17,4.17,0,0,1,1.39.94l-.84.86a2.87,2.87,0,0,0-2.26-1.05,2.83,2.83,0,0,0-2.15.92,3.27,3.27,0,0,0,0,4.42,2.83,2.83,0,0,0,2.15.92,2.88,2.88,0,0,0,1.95-.71,3.07,3.07,0,0,0,1-1.87Z"/><path class="cls-1" d="M69.41,557.26v-6.67l-1.52.78v-1.08L70,549.1h.5v8.16Z"/><path class="cls-1" d="M75.55,557.38a2.47,2.47,0,0,1-1.79-.73,2.4,2.4,0,0,1-.74-1.78,2.22,2.22,0,0,1,.32-1.16,2.48,2.48,0,0,1,.85-.86,2,2,0,0,1-.28-3.23,2.45,2.45,0,0,1,3.27,0,2,2,0,0,1-.27,3.22,2.48,2.48,0,0,1,.87.85,2.22,2.22,0,0,1,.32,1.17,2.4,2.4,0,0,1-.74,1.78A2.48,2.48,0,0,1,75.55,557.38Zm0-1.08a1.35,1.35,0,0,0,1-.42,1.4,1.4,0,0,0,.41-1,1.33,1.33,0,0,0-.41-1,1.38,1.38,0,0,0-1-.4,1.36,1.36,0,0,0-1,.4,1.33,1.33,0,0,0-.41,1,1.4,1.4,0,0,0,.41,1A1.33,1.33,0,0,0,75.55,556.3Zm0-6.29a1.16,1.16,0,0,0-.85.34,1.14,1.14,0,0,0-.34.84,1.17,1.17,0,0,0,.34.85,1.2,1.2,0,0,0,1.69,0,1.16,1.16,0,0,0,.35-.85,1.13,1.13,0,0,0-.35-.83A1.15,1.15,0,0,0,75.55,550Z"/><path class="cls-1" d="M84.81,557.26v-8.12h.79l4.4,5.59v-5.59h1.13v8.12H90.5l-4.56-5.79v5.79Z"/><path class="cls-1" d="M97.86,557.41a4,4,0,0,1-2.93-1.2,4.36,4.36,0,0,1,0-6,4.15,4.15,0,0,1,5.84,0,4.33,4.33,0,0,1,0,6A4,4,0,0,1,97.86,557.41Zm-2.12-2a2.94,2.94,0,0,0,4.25,0,3.24,3.24,0,0,0,0-4.43,2.92,2.92,0,0,0-4.24,0,3.25,3.25,0,0,0,0,4.43Z"/><path class="cls-1" d="M106.56,557.26l-3.17-8.12h1.27l2.43,6.24,2.44-6.24h1.25l-3.17,8.12Z"/><path class="cls-1" d="M117.28,553.7h-3.34v2.48h3.57v1.08h-4.7v-8.12h4.64v1.08h-3.51v2.39h3.34Z"/><path class="cls-1" d="M120.12,557.26v-8.12h1.17l2.61,4.33,2.66-4.33h1.11v8.12h-1.13v-6l0,0-2.61,4.2-2.56-4.14h-.07v6Z"/><path class="cls-1" d="M130.8,557.26v-8.12h2.48a2.59,2.59,0,0,1,1.79.63,2.09,2.09,0,0,1,.71,1.64,1.91,1.91,0,0,1-1,1.74,2.07,2.07,0,0,1,.87.73A1.9,1.9,0,0,1,136,555a2.1,2.1,0,0,1-.71,1.66,2.64,2.64,0,0,1-1.81.62Zm2.37-7h-1.23v2.47h1.44a1.23,1.23,0,0,0,.9-.36,1.25,1.25,0,0,0,.36-.93,1,1,0,0,0-.41-.85A1.67,1.67,0,0,0,133.16,550.22Zm.25,3.48h-1.49v2.48h1.41a1.68,1.68,0,0,0,1.12-.35,1.16,1.16,0,0,0,.41-.93,1.11,1.11,0,0,0-.37-.87A1.56,1.56,0,0,0,133.42,553.7Z"/><path class="cls-1" d="M143.11,553.7h-3.34v2.48h3.57v1.08h-4.7v-8.12h4.64v1.08h-3.51v2.39h3.34Z"/><path class="cls-1" d="M145.95,557.26v-8.12h3a2.54,2.54,0,0,1,1.83.71,2.51,2.51,0,0,1-1.42,4.32l2.35,3.09h-1.4l-2.33-3.1h-.9v3.1Zm2.86-7h-1.73v2.93h1.72a1.64,1.64,0,0,0,1.15-.4,1.47,1.47,0,0,0,0-2.11A1.58,1.58,0,0,0,148.81,550.22Z"/><path class="cls-1" d="M158.34,557.26v-8.12h1.13V553l3.38-3.85h1.52l-2.86,3.22,2.94,4.9H163l-2.36-4-1.21,1.36v2.6Z"/><path class="cls-1" d="M166.71,557.26v-8.12h1.13v7h3.34v1.08Z"/><path class="cls-1" d="M178.56,557.26v-6.67l-1.52.78v-1.08l2.15-1.19h.5v8.16Z"/><path class="cls-1" d="M183.59,557.26v-6.67l-1.52.78v-1.08l2.15-1.19h.5v8.16Z"/><path class="cls-1" d="M188.33,557.18a.66.66,0,0,1-.48.2.64.64,0,0,1-.48-.2.67.67,0,0,1-.19-.48.67.67,0,0,1,.19-.49.65.65,0,0,1,.48-.19.67.67,0,0,1,.48.19.69.69,0,0,1,0,1Z"/><path class="cls-1" d="M193.1,557.38a2.5,2.5,0,0,1-1.77-.69,2.26,2.26,0,0,1-.76-1.65h1.13a1.19,1.19,0,0,0,.42.89,1.45,1.45,0,0,0,2,0,1.3,1.3,0,0,0,.4-1,1.36,1.36,0,0,0-1.38-1.39h-.46v-1h.45a1.28,1.28,0,0,0,.94-.38,1.27,1.27,0,0,0,0-1.8,1.32,1.32,0,0,0-1-.36,1.27,1.27,0,0,0-.93.37,1.23,1.23,0,0,0-.38.91h-1.13a2.1,2.1,0,0,1,.7-1.62,2.64,2.64,0,0,1,3.5,0,2.14,2.14,0,0,1,.7,1.63,1.83,1.83,0,0,1-.34,1.09,1.9,1.9,0,0,1-.89.69,2,2,0,0,1,.95.72,2,2,0,0,1,.36,1.18,2.3,2.3,0,0,1-.74,1.72A2.48,2.48,0,0,1,193.1,557.38Z"/><path class="cls-1" d="M200.55,557.37a2.59,2.59,0,0,1-2.65-2.66v-3.08a2.53,2.53,0,0,1,.77-1.88,2.73,2.73,0,0,1,3.77,0,2.51,2.51,0,0,1,.77,1.86v3.11a2.54,2.54,0,0,1-.77,1.89A2.58,2.58,0,0,1,200.55,557.37Zm-1.09-1.52a1.57,1.57,0,0,0,2.18,0,1.53,1.53,0,0,0,.43-1.12v-3.1a1.52,1.52,0,0,0-.43-1.11,1.57,1.57,0,0,0-2.18,0,1.54,1.54,0,0,0-.43,1.12v3.09A1.53,1.53,0,0,0,199.46,555.85Z"/><path class="cls-1" d="M205.62,553.72v-1h3.17v1Z"/><path class="cls-1" d="M211.66,557.26v-6.67l-1.52.78v-1.08l2.15-1.19h.5v8.16Z"/><path class="cls-1" d="M217.6,557.38a2.5,2.5,0,0,1-1.77-.69,2.26,2.26,0,0,1-.76-1.65h1.13a1.19,1.19,0,0,0,.42.89,1.45,1.45,0,0,0,2,0,1.3,1.3,0,0,0,.4-1,1.36,1.36,0,0,0-1.38-1.39h-.46v-1h.45a1.28,1.28,0,0,0,.94-.38,1.27,1.27,0,0,0,0-1.8,1.32,1.32,0,0,0-1-.36,1.27,1.27,0,0,0-.93.37,1.23,1.23,0,0,0-.38.91h-1.13a2.1,2.1,0,0,1,.7-1.62,2.64,2.64,0,0,1,3.5,0,2.14,2.14,0,0,1,.7,1.63,1.83,1.83,0,0,1-.34,1.09,1.9,1.9,0,0,1-.89.69,2,2,0,0,1,.95.72,2,2,0,0,1,.36,1.18,2.3,2.3,0,0,1-.74,1.72A2.48,2.48,0,0,1,217.6,557.38Z"/><path class="cls-1" d="M223.09,557.18a.66.66,0,0,1-.48.2.64.64,0,0,1-.48-.2.67.67,0,0,1-.19-.48.67.67,0,0,1,.19-.49.65.65,0,0,1,.48-.19.67.67,0,0,1,.48.19.69.69,0,0,1,0,1Z"/><path class="cls-1" d="M227.86,557.38a2.5,2.5,0,0,1-1.77-.69,2.26,2.26,0,0,1-.76-1.65h1.13a1.19,1.19,0,0,0,.42.89,1.45,1.45,0,0,0,2,0,1.3,1.3,0,0,0,.4-1,1.36,1.36,0,0,0-1.38-1.39h-.46v-1h.45a1.28,1.28,0,0,0,.94-.38,1.27,1.27,0,0,0,0-1.8,1.32,1.32,0,0,0-1-.36,1.27,1.27,0,0,0-.93.37,1.23,1.23,0,0,0-.38.91h-1.13a2.1,2.1,0,0,1,.7-1.62,2.64,2.64,0,0,1,3.5,0,2.14,2.14,0,0,1,.7,1.63,1.83,1.83,0,0,1-.34,1.09,1.9,1.9,0,0,1-.89.69,2,2,0,0,1,.95.72,2,2,0,0,1,.36,1.18,2.3,2.3,0,0,1-.74,1.72A2.48,2.48,0,0,1,227.86,557.38Z"/><path class="cls-1" d="M235.32,557.37a2.59,2.59,0,0,1-2.65-2.66v-3.08a2.53,2.53,0,0,1,.77-1.88,2.73,2.73,0,0,1,3.77,0,2.51,2.51,0,0,1,.77,1.86v3.11a2.54,2.54,0,0,1-.77,1.89A2.58,2.58,0,0,1,235.32,557.37Zm-1.09-1.52a1.57,1.57,0,0,0,2.18,0,1.53,1.53,0,0,0,.43-1.12v-3.1a1.52,1.52,0,0,0-.43-1.11,1.57,1.57,0,0,0-2.18,0,1.54,1.54,0,0,0-.43,1.12v3.09A1.53,1.53,0,0,0,234.23,555.85Z"/></svg>