<svg id="Layer_1" data-name="Layer 1" xmlns="http://www.w3.org/2000/svg" viewBox="0 0 250 720"><defs><style>.cls-1{fill:#d80201;}</style></defs><title>text</title><path class="cls-1" d="M62.43,526l-4.37-4.9-.3.31V526H56.57V515.28h1.19v4.57l4.54-4.57h1.61l-5,5,5.16,5.7Z"/><path class="cls-1" d="M65.37,526V514.28h1.14V526Z"/><path class="cls-1" d="M69.26,517.61a.81.81,0,0,1-.81-.81.82.82,0,0,1,.81-.82.82.82,0,0,1,.82.82A.82.82,0,0,1,69.26,517.61ZM68.69,526v-6.64h1.13V526Z"/><path class="cls-1" d="M75.12,526.14a3.5,3.5,0,1,1,0-7,3.61,3.61,0,0,1,2.06.64v1.5a2.65,2.65,0,0,0-2.08-1.1,2.38,2.38,0,0,0-2.35,2.47,2.34,2.34,0,0,0,2.32,2.44A2.66,2.66,0,0,0,77.23,524v1.51A3.61,3.61,0,0,1,75.12,526.14Z"/><path class="cls-1" d="M83.09,526l-2.69-3-.29.28V526H79V514.28h1.14v7.48l2.42-2.45h1.52l-2.85,2.82L84.58,526Z"/><path class="cls-1" d="M90.43,526V525a2.82,2.82,0,0,1-2.3,1.12,3.28,3.28,0,0,1-3.2-3.53,3.23,3.23,0,0,1,3.18-3.46,2.8,2.8,0,0,1,2.32,1.1v-.94h1.14V526Zm-2.14-5.78a2.48,2.48,0,1,0,2.21,2.44A2.24,2.24,0,0,0,88.29,520.17Z"/><path class="cls-1" d="M98.88,520.37V526H97.74v-5.58h-.62v-1.06h.62v-2.83a3.64,3.64,0,0,1,.18-1.28,1.84,1.84,0,0,1,1.79-1.11,2.9,2.9,0,0,1,.83.15v1.15a1.94,1.94,0,0,0-.75-.16c-.83,0-.91.62-.91,1.29v2.79h1.66v1.06Z"/><path class="cls-1" d="M104.65,526.14a3.5,3.5,0,1,1,3.51-3.48A3.47,3.47,0,0,1,104.65,526.14Zm0-5.95a2.46,2.46,0,1,0,2.35,2.47A2.33,2.33,0,0,0,104.64,520.19ZM103.26,518a.82.82,0,0,1-.8-.8.8.8,0,1,1,.8.8Zm2.79,0a.82.82,0,0,1-.8-.8.8.8,0,1,1,.8.8Z"/><path class="cls-1" d="M113,520.46a1,1,0,0,0-.67-.22,1.34,1.34,0,0,0-.58.14c-.73.4-.73,1.35-.73,2.07V526H109.9v-6.64H111V520a1.77,1.77,0,0,1,1.5-.88,1.94,1.94,0,0,1,1,.27Z"/><path class="cls-1" d="M123.7,526V525a2.84,2.84,0,0,1-2.31,1.12,3.29,3.29,0,0,1-3.2-3.53,3.23,3.23,0,0,1,3.18-3.46,2.83,2.83,0,0,1,2.33,1.1v-.94h1.13V526Zm-2.15-5.78a2.48,2.48,0,1,0,2.21,2.44A2.24,2.24,0,0,0,121.55,520.17Z"/><path class="cls-1" d="M128.16,520.37V526H127v-5.58h-.68v-1.06H127v-2.4h1.16v2.4h1.17v1.06Z"/><path class="cls-1" d="M131.58,520.37V526h-1.15v-5.58h-.69v-1.06h.69v-2.4h1.15v2.4h1.17v1.06Z"/><path class="cls-1" d="M139.65,526.14a2.37,2.37,0,0,1-2.33-1.69l1-.42c.27.59.64,1.07,1.34,1.07a1,1,0,0,0,1.09-1c0-1.44-3-1-3-3a1.87,1.87,0,0,1,1.93-1.86,2,2,0,0,1,1.83,1.2l-1,.5a1.05,1.05,0,0,0-.92-.66.8.8,0,0,0-.81.74c0,1.16,3.08.86,3.08,3A2.18,2.18,0,0,1,139.65,526.14Z"/><path class="cls-1" d="M144.22,522.86a2.15,2.15,0,0,0,2.11,2.24,2.29,2.29,0,0,0,2-1.37l1,.53a3.31,3.31,0,0,1-3,1.88,3.5,3.5,0,0,1-.06-7,3.18,3.18,0,0,1,3.17,3.49v.22Zm2.05-2.67a2,2,0,0,0-2,1.71h3.91A2,2,0,0,0,146.27,520.19Z"/><path class="cls-1" d="M156.3,520.37V526h-1.15v-5.58h-.69v-1.06h.69v-2.4h1.15v2.4h1.17v1.06Z"/><path class="cls-1" d="M161.66,526.14a3.5,3.5,0,1,1,3.51-3.48A3.47,3.47,0,0,1,161.66,526.14Zm0-5.95a2.46,2.46,0,1,0,2.35,2.47A2.33,2.33,0,0,0,161.65,520.19Z"/><path class="cls-1" d="M174.48,526v-4c0-.85-.15-1.75-1.2-1.75s-1.43,1.12-1.43,2.08V526h-1.13V522c0-.83-.18-1.84-1.22-1.84a1.37,1.37,0,0,0-1.2.72,3.23,3.23,0,0,0-.26,1.44V526h-1.13v-6.64H168v.7a1.92,1.92,0,0,1,1.65-.86,2,2,0,0,1,1.83,1.07,2.26,2.26,0,0,1,3.73-.17,3.09,3.09,0,0,1,.37,1.69V526Z"/><path class="cls-1" d="M178.94,520.37V526h-1.15v-5.58h-.69v-1.06h.69v-2.4h1.15v2.4h1.17v1.06Z"/><path class="cls-1" d="M182,522.86a2.15,2.15,0,0,0,2.11,2.24,2.29,2.29,0,0,0,2-1.37l1,.53a3.31,3.31,0,0,1-3,1.88,3.5,3.5,0,0,1-.06-7,3.18,3.18,0,0,1,3.17,3.49v.22Zm2.05-2.67a2,2,0,0,0-2,1.71H186A2,2,0,0,0,184,520.19Z"/><path class="cls-1" d="M192,520.46a1,1,0,0,0-.67-.22,1.3,1.3,0,0,0-.58.14c-.74.4-.74,1.35-.74,2.07V526h-1.13v-6.64H190V520a1.79,1.79,0,0,1,1.51-.88,1.9,1.9,0,0,1,1,.27Z"/><path class="cls-1" d="M56.83,552v-4c0-.85-.14-1.75-1.2-1.75s-1.42,1.12-1.42,2.08V552H53.07V548c0-.83-.17-1.84-1.22-1.84a1.39,1.39,0,0,0-1.2.72,3.23,3.23,0,0,0-.25,1.44V552H49.26v-6.64H50.4v.7a1.9,1.9,0,0,1,1.65-.86,2,2,0,0,1,1.82,1.07,2.14,2.14,0,0,1,1.94-1.07,2.11,2.11,0,0,1,1.79.9,3.09,3.09,0,0,1,.37,1.69V552Z"/><path class="cls-1" d="M60.91,548.86A2.15,2.15,0,0,0,63,551.1a2.29,2.29,0,0,0,2-1.37l1,.53a3.31,3.31,0,0,1-3,1.88,3.5,3.5,0,0,1-.06-7,3.18,3.18,0,0,1,3.17,3.49v.22ZM63,546.19a2,2,0,0,0-2,1.71H64.9A2,2,0,0,0,63,546.19Z"/><path class="cls-1" d="M72.91,552V551a2.82,2.82,0,0,1-2.3,1.12,3.51,3.51,0,0,1,0-7,2.87,2.87,0,0,1,2.32,1.1v-6h1.14V552Zm-2.14-5.76A2.47,2.47,0,1,0,73,548.61,2.23,2.23,0,0,0,70.77,546.19Z"/><path class="cls-1" d="M84.42,552v-4c0-1-.25-1.73-1.38-1.73-1.49,0-1.68,1.25-1.68,2.45V552H80.22V540.28h1.14v5.8a2.35,2.35,0,0,1,1.9-.93,2.32,2.32,0,0,1,1.91.91,3.14,3.14,0,0,1,.38,1.78V552Z"/><path class="cls-1" d="M92.4,551.31a2.91,2.91,0,0,1-4.07,0,2.75,2.75,0,0,1-.6-2v-4h1.13v3.87a2.53,2.53,0,0,0,.21,1.25,1.43,1.43,0,0,0,1.3.67,1.45,1.45,0,0,0,1.28-.67,2.68,2.68,0,0,0,.2-1.25v-3.87H93v4A2.7,2.7,0,0,1,92.4,551.31Z"/><path class="cls-1" d="M97,552.14a2.37,2.37,0,0,1-2.32-1.69l1-.42c.27.59.64,1.07,1.34,1.07a1,1,0,0,0,1.09-1c0-1.44-3-1-3-3A1.87,1.87,0,0,1,97,545.15a2,2,0,0,1,1.82,1.2l-.94.5a1.08,1.08,0,0,0-.93-.66.79.79,0,0,0-.8.74c0,1.16,3.07.86,3.07,3A2.17,2.17,0,0,1,97,552.14Z"/><path class="cls-1" d="M101.9,546.37V552h-1.14v-5.58h-.62v-1.06h.62v-2.83a3.89,3.89,0,0,1,.18-1.28,1.84,1.84,0,0,1,1.79-1.11,3,3,0,0,1,.84.15v1.15a2,2,0,0,0-.76-.16c-.83,0-.91.62-.91,1.29v2.79h1.67v1.06Z"/><path class="cls-1" d="M107.68,552.14a3.5,3.5,0,1,1,3.5-3.48A3.47,3.47,0,0,1,107.68,552.14Zm0-5.95a2.46,2.46,0,1,0,2.36,2.47A2.32,2.32,0,0,0,107.66,546.19ZM106.29,544a.81.81,0,0,1-.8-.8.8.8,0,1,1,.8.8Zm2.78,0a.82.82,0,0,1-.8-.8.8.8,0,1,1,.8.8Z"/><path class="cls-1" d="M116.05,546.46a1,1,0,0,0-.68-.22,1.26,1.26,0,0,0-.57.14c-.74.4-.74,1.35-.74,2.07V552h-1.14v-6.64h1.14V546a1.77,1.77,0,0,1,1.51-.88,1.9,1.9,0,0,1,1,.27Z"/><path class="cls-1" d="M119.44,552.14a2.36,2.36,0,0,1-2.32-1.69l1-.42c.27.59.64,1.07,1.34,1.07a1,1,0,0,0,1.09-1c0-1.44-3-1-3-3a1.87,1.87,0,0,1,1.94-1.86,2,2,0,0,1,1.82,1.2l-.94.5a1.08,1.08,0,0,0-.93-.66.79.79,0,0,0-.8.74c0,1.16,3.07.86,3.07,3A2.17,2.17,0,0,1,119.44,552.14Z"/><path class="cls-1" d="M123.24,552V540.28h1.14V552Z"/><path class="cls-1" d="M131.63,552V551a2.82,2.82,0,0,1-2.3,1.12,3.29,3.29,0,0,1-3.21-3.53,3.23,3.23,0,0,1,3.19-3.46,2.8,2.8,0,0,1,2.32,1.1v-.94h1.14V552Zm-2.14-5.78a2.48,2.48,0,1,0,2.2,2.44A2.24,2.24,0,0,0,129.49,546.17Z"/><path class="cls-1" d="M140.53,554.42a3.24,3.24,0,0,1-2.66,1.23,3,3,0,0,1-3.23-3h1.13a2,2,0,0,0,2.12,2c1.6,0,2.12-1.21,2.12-2.63v-1a3,3,0,0,1-2.33,1.11,3.5,3.5,0,0,1,0-7,2.84,2.84,0,0,1,2.28,1.09v-.93h1.16v6.5A4.05,4.05,0,0,1,140.53,554.42Zm-2.68-8.25a2.29,2.29,0,0,0-2.17,2.52,2.23,2.23,0,0,0,2.17,2.41,2.48,2.48,0,0,0,0-4.93Z"/><path class="cls-1" d="M150.43,552.14a3.5,3.5,0,1,1,3.5-3.48A3.47,3.47,0,0,1,150.43,552.14Zm0-5.95a2.46,2.46,0,1,0,2.36,2.47A2.32,2.32,0,0,0,150.41,546.19Z"/><path class="cls-1" d="M158.78,552.14a3.5,3.5,0,1,1,0-7,3.67,3.67,0,0,1,2.07.64v1.5a2.67,2.67,0,0,0-2.09-1.1,2.38,2.38,0,0,0-2.35,2.47,2.34,2.34,0,0,0,2.32,2.44,2.66,2.66,0,0,0,2.16-1.15v1.51A3.61,3.61,0,0,1,158.78,552.14Z"/><path class="cls-1" d="M166.83,552v-4c0-1-.24-1.73-1.38-1.73-1.49,0-1.68,1.25-1.68,2.45V552h-1.13V540.28h1.13v5.8a2.35,2.35,0,0,1,1.91-.93,2.29,2.29,0,0,1,1.9.91,3.15,3.15,0,0,1,.39,1.78V552Z"/><path class="cls-1" d="M177.6,552.14a2.84,2.84,0,0,1-2.32-1.12v4.68h-1.14V545.31h1.14v.93a2.86,2.86,0,0,1,2.3-1.09,3.29,3.29,0,0,1,3.2,3.52A3.25,3.25,0,0,1,177.6,552.14Zm-.18-6a2.29,2.29,0,0,0-2.21,2.5,2.21,2.21,0,1,0,4.4,0A2.3,2.3,0,0,0,177.42,546.17Z"/><path class="cls-1" d="M185.64,546.46a1,1,0,0,0-.67-.22,1.26,1.26,0,0,0-.57.14c-.74.4-.74,1.35-.74,2.07V552h-1.14v-6.64h1.14V546a1.77,1.77,0,0,1,1.5-.88,1.91,1.91,0,0,1,1,.27Z"/><path class="cls-1" d="M187.82,543.61a.82.82,0,0,1-.82-.81.82.82,0,1,1,1.64,0A.82.82,0,0,1,187.82,543.61Zm-.58,8.34v-6.64h1.14V552Z"/><path class="cls-1" d="M192.36,552.14a2.37,2.37,0,0,1-2.32-1.69l1-.42c.27.59.64,1.07,1.34,1.07a1,1,0,0,0,1.09-1c0-1.44-3-1-3-3a1.87,1.87,0,0,1,1.94-1.86,2,2,0,0,1,1.83,1.2l-1,.5a1.05,1.05,0,0,0-.93-.66.79.79,0,0,0-.8.74c0,1.16,3.08.86,3.08,3A2.18,2.18,0,0,1,192.36,552.14Z"/><path class="cls-1" d="M197.31,552.11a.79.79,0,0,1-.79-.78.81.81,0,0,1,.79-.8.8.8,0,0,1,.8.78A.79.79,0,0,1,197.31,552.11Zm-.58-2.32v-8.51h1.15v8.51Z"/></svg>