<?xml version="1.0" encoding="utf-8"?>
<!-- Generator: Adobe Illustrator 19.1.1, SVG Export Plug-In . SVG Version: 6.00 Build 0)  -->
<svg version="1.1" id="Layer_1" xmlns="http://www.w3.org/2000/svg" xmlns:xlink="http://www.w3.org/1999/xlink" x="0px" y="0px"
	 viewBox="0 0 320 50" style="enable-background:new 0 0 320 50;" xml:space="preserve">
<style type="text/css">
	.st0{fill:#D80201;}
	.st1{fill:#FFFFFF;}
</style>
<path class="st0" d="M104.1,33.4H27.4c-4.1,0-7.4-3.3-7.4-7.4v0c0-4.1,3.3-7.4,7.4-7.4h76.7c4.1,0,7.4,3.3,7.4,7.4v0
	C111.5,30.1,108.2,33.4,104.1,33.4z"/>
<g>
	<path class="st1" d="M37.5,28.9l-2-2.6l-0.1,0.1v2.4h-1.1v-5.7h1.1v2.4l2.1-2.4h1.4l-2.4,2.7l2.6,3.1H37.5z"/>
	<path class="st1" d="M42.2,29.1c-1.7,0-3.1-1.3-3.1-3c0-1.7,1.4-3,3.1-3c1.7,0,3.1,1.3,3.1,3C45.2,27.8,43.8,29.1,42.2,29.1z
		 M42.2,24.1c-1.1,0-1.9,0.9-1.9,2s0.8,2,1.9,2c1.1,0,1.9-0.9,1.9-2C44.1,25,43.2,24.1,42.2,24.1z"/>
	<path class="st1" d="M51.6,28.9l-0.5-3.5L49.5,29h-0.3l-1.5-3.6l-0.6,3.5H46l1.1-5.8h0.8l1.6,3.8l1.6-3.8h0.8l1,5.8H51.6z"/>
	<path class="st1" d="M55.9,28.9v-5.7H57v5.7H55.9z"/>
	<path class="st1" d="M63.8,26.9c-0.3,1.3-1.4,2.1-2.7,2.1c-1.7,0-3-1.2-3-3s1.3-3,3-3c1,0,1.9,0.4,2.5,1.4l-1,0.5
		c-0.3-0.6-0.9-0.9-1.5-0.9c-1.1,0-1.9,0.9-1.9,2c0,1.1,0.8,2,1.9,2c0.7,0,1.4-0.4,1.5-1.2h-1.4v-1h2.6V26
		C63.9,26.3,63.8,26.6,63.8,26.9z"/>
	<path class="st1" d="M68.6,28.9l-0.5-1.2h-2.3l-0.5,1.2H64l2.5-5.9h0.8l2.4,5.9H68.6z M66.9,24.7l-0.8,2.1h1.6L66.9,24.7z
		 M66.9,22.6c-0.4,0-0.8-0.4-0.8-0.8c0-0.4,0.4-0.8,0.8-0.8c0.4,0,0.8,0.4,0.8,0.8C67.7,22.3,67.3,22.6,66.9,22.6z M66.9,21.5
		c-0.2,0-0.3,0.1-0.3,0.3s0.1,0.3,0.3,0.3s0.3-0.1,0.3-0.3S67.1,21.5,66.9,21.5z"/>
	<path class="st1" d="M75.1,29l-3.5-4v3.9h-1.1v-5.9h0.8l3.5,4v-3.9h1.1V29H75.1z"/>
	<path class="st1" d="M82.6,26.9c-0.3,1.3-1.4,2.1-2.7,2.1c-1.7,0-3-1.2-3-3s1.3-3,3-3c1,0,1.9,0.4,2.5,1.4l-1,0.5
		c-0.3-0.6-0.9-0.9-1.5-0.9c-1.1,0-1.9,0.9-1.9,2c0,1.1,0.8,2,1.9,2c0.7,0,1.4-0.4,1.5-1.2H80v-1h2.6V26
		C82.7,26.3,82.7,26.6,82.6,26.9z"/>
</g>
<polygon class="st1" points="94.5,26.8 88.4,26.8 88.4,25.2 94.5,25.2 94.5,22.9 98.8,26 94.5,29 "/>
</svg>
