<?xml version="1.0" encoding="utf-8"?>
<!-- Generator: Adobe Illustrator 19.1.1, SVG Export Plug-In . SVG Version: 6.00 Build 0)  -->
<svg version="1.1" id="Layer_1" xmlns="http://www.w3.org/2000/svg" xmlns:xlink="http://www.w3.org/1999/xlink" x="0px" y="0px"
	 viewBox="0 0 320 50" style="enable-background:new 0 0 320 50;" xml:space="preserve">
<style type="text/css">
	.st0{fill:#D80201;}
	.st1{fill:#FFFFFF;}
</style>
<g>
	<path class="st0" d="M34.2,26.3c-0.5,2.5-2.6,3.9-5.1,3.9c-3.2,0-5.6-2.3-5.6-5.6c0-3.2,2.4-5.6,5.7-5.6c1.9,0,3.6,0.8,4.6,2.5
		l-1.8,1c-0.6-1-1.6-1.6-2.8-1.6c-2.1,0-3.5,1.7-3.5,3.7c0,2,1.4,3.7,3.5,3.7c1.4,0,2.6-0.8,2.8-2.3h-2.5v-1.8h4.9v0.3
		C34.4,25.1,34.3,25.7,34.2,26.3z"/>
	<path class="st0" d="M36,30V18h1.9v12H36z"/>
	<path class="st0" d="M43.4,30.2c-2.2,0-4-1.4-4-3.7c0-2.3,1.8-3.7,4-3.7c2.2,0,3.9,1.4,3.9,3.7C47.3,28.8,45.6,30.2,43.4,30.2z
		 M41.7,21.8c-0.6,0-1.2-0.5-1.2-1.2c0-0.6,0.5-1.2,1.2-1.2c0.6,0,1.2,0.5,1.2,1.2S42.3,21.8,41.7,21.8z M43.4,24.6
		c-1.1,0-2,0.9-2,2c0,1.1,0.9,1.9,2,1.9c1.1,0,2-0.8,2-1.9S44.4,24.6,43.4,24.6z M45,21.8c-0.6,0-1.2-0.5-1.2-1.2
		c0-0.6,0.5-1.2,1.2-1.2c0.6,0,1.2,0.5,1.2,1.2S45.7,21.8,45,21.8z"/>
	<path class="st0" d="M57.7,30v-3.8c0-0.8-0.1-1.7-1.2-1.7c-1.1,0-1.3,1-1.3,2V30h-1.9v-3.7c0-0.4,0-0.8-0.1-1.2
		c-0.2-0.4-0.6-0.7-1-0.7c-0.4,0-0.9,0.2-1.1,0.6c-0.2,0.4-0.2,0.9-0.2,1.3V30h-1.9v-6.9h1.9v0.8c0.6-0.7,1.2-1,2.1-1
		c1,0,1.6,0.4,2.2,1.3c0.5-0.8,1.3-1.3,2.3-1.3c0.8,0,1.5,0.3,1.9,1c0.3,0.5,0.4,1.1,0.4,1.7V30H57.7z"/>
	<path class="st0" d="M63.4,24.7V30h-1.9v-5.3h-0.8v-1.7h0.8v-2.4h1.9v2.4h1.4v1.7H63.4z"/>
	<path class="st0" d="M75.1,30v-0.9c-0.5,0.8-1.3,1.1-2.3,1.1c-2.1,0-3.4-1.7-3.4-3.7c0-1.9,1.3-3.7,3.4-3.7c1,0,1.7,0.4,2.3,1.1
		v-0.9h2V30H75.1z M73.3,24.6c-1.1,0-1.9,0.9-1.9,1.9c0,1.1,0.9,2,1.9,2c1.1,0,1.9-0.9,1.9-2C75.3,25.5,74.4,24.6,73.3,24.6z"/>
	<path class="st0" d="M80.8,24.7V30h-1.9v-5.3h-0.8v-1.7h0.8v-2.4h1.9v2.4h1.4v1.7H80.8z"/>
	<path class="st0" d="M85.1,24.7V30h-1.9v-5.3h-0.8v-1.7h0.8v-2.4h1.9v2.4h1.4v1.7H85.1z"/>
	<path class="st0" d="M93.5,24.7V30h-1.9v-5.3h-0.8v-1.7h0.8v-2.2c0-0.6,0-1.1,0.3-1.6c0.4-0.9,1.4-1.4,2.4-1.4c0.4,0,0.7,0.1,1,0.2
		v1.8c-0.3-0.1-0.6-0.3-0.9-0.3c-0.9,0-0.9,0.9-0.9,1.6v1.9h1.8v1.7H93.5z"/>
	<path class="st0" d="M99.8,30.2c-2.2,0-4-1.4-4-3.7c0-2.3,1.8-3.7,4-3.7c2.2,0,3.9,1.4,3.9,3.7C103.8,28.8,102,30.2,99.8,30.2z
		 M99.8,24.6c-1.1,0-2,0.9-2,2c0,1.1,0.9,1.9,2,1.9c1.1,0,2-0.8,2-1.9S100.9,24.6,99.8,24.6z"/>
	<path class="st0" d="M109.8,24.8c-0.3-0.2-0.6-0.2-0.9-0.2c-1.3,0-1.7,0.9-1.7,2.1V30h-1.9v-6.9h1.9v1c0.4-0.8,1.1-1.3,2-1.3
		c0.3,0,0.6,0,0.8,0.2L109.8,24.8z"/>
	<path class="st0" d="M119.9,30v-3.8c0-0.8-0.1-1.7-1.2-1.7c-1.1,0-1.3,1-1.3,2V30h-1.9v-3.7c0-0.4,0-0.8-0.1-1.2
		c-0.2-0.4-0.6-0.7-1-0.7c-0.4,0-0.9,0.2-1.1,0.6c-0.2,0.4-0.2,0.9-0.2,1.3V30H111v-6.9h1.9v0.8c0.6-0.7,1.2-1,2.1-1
		c1,0,1.6,0.4,2.2,1.3c0.5-0.8,1.3-1.3,2.3-1.3c0.8,0,1.5,0.3,1.9,1c0.3,0.5,0.4,1.1,0.4,1.7V30H119.9z"/>
	<path class="st0" d="M128.9,30v-0.9c-0.5,0.8-1.3,1.1-2.3,1.1c-2.1,0-3.4-1.7-3.4-3.7c0-1.9,1.3-3.7,3.4-3.7c1,0,1.7,0.4,2.3,1.1
		v-0.9h2V30H128.9z M127.2,24.6c-1.1,0-1.9,0.9-1.9,1.9c0,1.1,0.9,2,1.9,2c1.1,0,1.9-0.9,1.9-2C129.1,25.5,128.3,24.6,127.2,24.6z"
		/>
	<path class="st0" d="M141.5,30l-2.6-3l-0.2,0.2V30h-1.9V18h1.9v7.6l2.6-2.5h2.6l-3.2,3l3.5,3.9H141.5z"/>
	<path class="st0" d="M145,30V18h1.9v12H145z"/>
	<path class="st0" d="M154.1,30v-0.9c-0.5,0.8-1.3,1.1-2.3,1.1c-2.1,0-3.4-1.7-3.4-3.7c0-1.9,1.3-3.7,3.4-3.7c1,0,1.7,0.4,2.3,1.1
		v-0.9h2V30H154.1z M152.4,24.6c-1.1,0-1.9,0.9-1.9,1.9c0,1.1,0.9,2,1.9,2s1.9-0.9,1.9-2C154.3,25.5,153.5,24.6,152.4,24.6z"/>
	<path class="st0" d="M162.4,24.8c-0.3-0.2-0.6-0.2-0.9-0.2c-1.3,0-1.7,0.9-1.7,2.1V30h-1.9v-6.9h1.9v1c0.4-0.8,1.1-1.3,2-1.3
		c0.3,0,0.6,0,0.8,0.2L162.4,24.8z"/>
	<path class="st0" d="M166,24.7V30H164v-5.3h-0.8v-1.7h0.8v-2.4h1.9v2.4h1.4v1.7H166z"/>
	<path class="st0" d="M177.6,30v-0.9c-0.5,0.8-1.3,1.1-2.3,1.1c-2.1,0-3.4-1.7-3.4-3.7c0-1.9,1.3-3.7,3.4-3.7c1,0,1.7,0.4,2.3,1.1
		V18h2v12H177.6z M175.9,24.6c-1.1,0-1.9,0.9-1.9,1.9c0,1.1,0.9,2,1.9,2s1.9-0.9,1.9-2C177.9,25.5,177,24.6,175.9,24.6z"/>
	<path class="st0" d="M182.4,21.3c-0.6,0-1.2-0.5-1.2-1.2c0-0.6,0.5-1.2,1.2-1.2c0.6,0,1.2,0.5,1.2,1.2
		C183.5,20.8,183,21.3,182.4,21.3z M181.4,30v-6.9h1.9V30H181.4z"/>
	<path class="st0" d="M187.1,24.7V30h-1.9v-5.3h-0.8v-1.7h0.8v-2.4h1.9v2.4h1.4v1.7H187.1z"/>
	<path class="st0" d="M191.4,24.7V30h-1.9v-5.3h-0.8v-1.7h0.8v-2.4h1.9v2.4h1.4v1.7H191.4z"/>
	<path class="st0" d="M202.6,30v-3.8c0-0.9-0.2-1.7-1.3-1.7c-1.2,0-1.5,0.9-1.5,1.9V30h-1.9v-6.9h1.9v0.8c0.6-0.7,1.2-1.1,2.2-1.1
		c0.7,0,1.5,0.3,2,0.8c0.5,0.6,0.5,1.2,0.5,1.9V30H202.6z"/>
	<path class="st0" d="M208,33.7h-2.2l2.5-4.8l-3.3-5.9h2.3l2.1,3.9l2-3.9h2.2L208,33.7z"/>
	<path class="st0" d="M219.5,30v-0.9c-0.5,0.8-1.3,1.1-2.3,1.1c-2.1,0-3.4-1.7-3.4-3.7c0-1.9,1.3-3.7,3.4-3.7c1,0,1.7,0.4,2.3,1.1
		v-0.9h2V30H219.5z M217.7,24.6c-1.1,0-1.9,0.9-1.9,1.9c0,1.1,0.9,2,1.9,2s1.9-0.9,1.9-2C219.7,25.5,218.8,24.6,217.7,24.6z"/>
	<path class="st0" d="M232,30v-3.8c0-1-0.2-1.7-1.3-1.7c-1.2,0-1.5,0.9-1.5,2V30h-1.9V18h1.9v6c0.6-0.8,1.2-1.1,2.2-1.1
		c0.8,0,1.5,0.3,2,0.8s0.5,1.2,0.5,2V30H232z"/>
	<path class="st0" d="M239.1,30.2c-1.9,0-3.3-0.8-3.3-2.9v-4.2h1.9V27c0,0.9,0.4,1.6,1.4,1.6c1,0,1.4-0.6,1.4-1.6v-3.9h2v4.2
		C242.5,29.4,241.1,30.2,239.1,30.2z"/>
	<path class="st0" d="M246.6,30.2c-1,0-2-0.4-2.6-1.2l1-1.2c0.4,0.5,1,0.8,1.6,0.8c0.4,0,0.9-0.3,0.9-0.8c0-1.2-3.1-0.6-3.1-2.9
		c0-1.4,1.2-2.2,2.5-2.2c0.8,0,1.6,0.2,2.3,0.7l-1,1.1c-0.3-0.3-0.7-0.5-1.2-0.5c-0.3,0-0.7,0.2-0.7,0.6c0,1,3.2,0.6,3.2,2.9
		C249.5,29.4,248.1,30.2,246.6,30.2z"/>
	<path class="st0" d="M254.4,25.1v1.4h-2v-2.8c0.2,0,0.4,0.1,0.6,0.1c1,0,2-0.5,2-1.6c0-0.7-0.5-1.2-1.2-1.2c-0.6,0-1.2,0.5-1.2,1.1
		c0,0.1,0,0.1,0,0.2h-2.1V22c0-1.7,1.6-2.9,3.3-2.9c1.7,0,3.2,1.2,3.2,3C257.1,23.7,255.9,24.7,254.4,25.1z M253.5,30.2
		c-0.7,0-1.3-0.5-1.3-1.2c0-0.7,0.6-1.2,1.2-1.2c0.7,0,1.3,0.5,1.3,1.2C254.7,29.6,254.2,30.2,253.5,30.2z"/>
</g>
</svg>
