<svg id="Layer_1" data-name="Layer 1" xmlns="http://www.w3.org/2000/svg" viewBox="0 0 320 320"><defs><style>.cls-1{fill:#d80201;}</style></defs><title>text</title><path class="cls-1" d="M124.14,194a10.73,10.73,0,0,1-11-10.76,11.06,11.06,0,1,1,11,10.76Zm0-17.93a7.14,7.14,0,1,0,6.91,7.1A7,7,0,0,0,124.14,176Z"/><path class="cls-1" d="M147.51,193.5v-7.44c0-1.83-.4-3.23-2.54-3.23-2.33,0-2.89,1.71-2.89,3.73v6.94h-3.75V180.08h3.75v1.64a5,5,0,0,1,4.22-2.08,4.63,4.63,0,0,1,5,5.33v8.53Z"/><path class="cls-1" d="M159.13,193.93A7.11,7.11,0,0,1,154,191.7l2-2.29a4.36,4.36,0,0,0,3.16,1.58,1.59,1.59,0,0,0,1.71-1.49c0-2.29-6-1.15-6-5.67,0-2.73,2.26-4.25,4.8-4.25a6.92,6.92,0,0,1,4.37,1.42l-1.86,2.21a3.7,3.7,0,0,0-2.23-.9c-.65,0-1.43.4-1.43,1.15,0,1.95,6.21,1.08,6.21,5.67C164.75,192.26,162,193.93,159.13,193.93Z"/><path class="cls-1" d="M177.67,193.5v-1.77a5.17,5.17,0,0,1-4.37,2.2c-4,0-6.6-3.34-6.6-7.19s2.57-7.1,6.51-7.1a5.57,5.57,0,0,1,4.46,2.14v-1.7h3.79V193.5ZM174.32,183a3.77,3.77,0,1,0,3.76,3.75A3.75,3.75,0,0,0,174.32,183Z"/><path class="cls-1" d="M185.05,193.5V170.28h3.75V193.5Z"/><path class="cls-1" d="M202.66,193.5v-1.77a5.19,5.19,0,0,1-4.37,2.2c-4,0-6.61-3.34-6.61-7.19s2.58-7.1,6.51-7.1a5.59,5.59,0,0,1,4.47,2.14v-1.7h3.78V193.5ZM199.31,183a3.77,3.77,0,1,0,3.75,3.75A3.74,3.74,0,0,0,199.31,183Z"/><path class="cls-1" d="M89.36,226.5,82,217.23l-.47.47v8.8h-4V205.82h4v8.74l7.6-8.74h5.08l-8.74,9.55,9.21,11.13Z"/><path class="cls-1" d="M105.82,226.5v-7.44c0-1.83-.41-3.23-2.55-3.23-2.32,0-2.88,1.71-2.88,3.73v6.94H96.64V213.08h3.75v1.64a4.94,4.94,0,0,1,4.22-2.08,4.64,4.64,0,0,1,5,5.33v8.53Z"/><path class="cls-1" d="M123.42,226.5v-1.77a5.17,5.17,0,0,1-4.37,2.2c-4,0-6.6-3.34-6.6-7.19s2.57-7.1,6.51-7.1a5.57,5.57,0,0,1,4.46,2.14v-1.7h3.79V226.5ZM120.07,216a3.77,3.77,0,1,0,3.76,3.75A3.75,3.75,0,0,0,120.07,216Z"/><path class="cls-1" d="M135.08,226.93A7.15,7.15,0,0,1,130,224.7l2-2.29a4.34,4.34,0,0,0,3.16,1.58,1.58,1.58,0,0,0,1.7-1.49c0-2.29-6-1.15-6-5.67,0-2.73,2.26-4.25,4.81-4.25A6.92,6.92,0,0,1,140,214l-1.86,2.21a3.73,3.73,0,0,0-2.23-.9c-.66,0-1.43.4-1.43,1.15,0,1.95,6.2,1.08,6.2,5.67C140.69,225.26,138,226.93,135.08,226.93Z"/><path class="cls-1" d="M147.14,216.3v10.2h-3.75V216.3H141.9v-3.22h1.49v-4.59h3.75v4.59h2.63v3.22Z"/><path class="cls-1" d="M162,226.5v-1.77a5.2,5.2,0,0,1-4.38,2.2c-4,0-6.6-3.34-6.6-7.19s2.57-7.1,6.51-7.1a5.59,5.59,0,0,1,4.47,2.14v-1.7h3.78V226.5ZM158.64,216a3.77,3.77,0,1,0,3.75,3.75A3.74,3.74,0,0,0,158.64,216Zm-.53-5.3a2.79,2.79,0,0,1,0-5.58,2.79,2.79,0,0,1,0,5.58Zm0-3.88a1.09,1.09,0,1,0,1.09,1.09A1.07,1.07,0,0,0,158.11,206.84Z"/><path class="cls-1" d="M173.64,226.93a7.15,7.15,0,0,1-5.12-2.23l2-2.29a4.36,4.36,0,0,0,3.16,1.58,1.59,1.59,0,0,0,1.71-1.49c0-2.29-6-1.15-6-5.67,0-2.73,2.27-4.25,4.81-4.25a6.92,6.92,0,0,1,4.37,1.42l-1.86,2.21a3.7,3.7,0,0,0-2.23-.9c-.65,0-1.43.4-1.43,1.15,0,1.95,6.2,1.08,6.2,5.67C179.25,225.26,176.52,226.93,173.64,226.93Z"/><path class="cls-1" d="M181.92,226.5V203.28h3.75V226.5Z"/><path class="cls-1" d="M191.09,209.66a2.26,2.26,0,1,1,2.24-2.26A2.27,2.27,0,0,1,191.09,209.66ZM189.2,226.5V213.08H193V226.5Z"/><path class="cls-1" d="M206.75,226.5v-1.77a5.17,5.17,0,0,1-4.37,2.2c-4,0-6.61-3.34-6.61-7.19s2.58-7.1,6.51-7.1a5.58,5.58,0,0,1,4.47,2.14v-11.5h3.78V226.5ZM203.4,216a3.77,3.77,0,1,0,3.75,3.75A3.74,3.74,0,0,0,203.4,216Z"/><path class="cls-1" d="M217.26,220.39c.06,2.08,1.05,3.6,3.28,3.6a3.53,3.53,0,0,0,3.2-1.8l3.47.56a6.59,6.59,0,0,1-6.6,4.18c-4.34,0-7.2-2.79-7.2-7.16s2.73-7.13,7-7.13,6.85,3,6.85,7.26v.49Zm3.25-5.08a3,3,0,0,0-3.13,2.69h6.36A3.11,3.11,0,0,0,220.51,215.31Z"/><path class="cls-1" d="M239.36,226.5v-7.44c0-1.83-.4-3.23-2.54-3.23-2.33,0-2.88,1.71-2.88,3.73v6.94h-3.76V213.08h3.76v1.64a4.94,4.94,0,0,1,4.21-2.08,4.63,4.63,0,0,1,5,5.33v8.53Z"/></svg>