<svg id="Layer_1" data-name="Layer 1" xmlns="http://www.w3.org/2000/svg" viewBox="0 0 320 320"><defs><style>.cls-1{fill:#d80201;}</style></defs><title>text</title><path class="cls-1" d="M110.94,176.32v4.59h6.48v3.51h-6.48v9.08h-4V172.82h10.94v3.5Z"/><path class="cls-1" d="M122.62,176.66a2.26,2.26,0,1,1,2.24-2.26A2.27,2.27,0,0,1,122.62,176.66Zm-1.89,16.84V180.08h3.75V193.5Z"/><path class="cls-1" d="M137.19,193.5v-7.44c0-1.83-.4-3.23-2.54-3.23-2.32,0-2.88,1.71-2.88,3.73v6.94H128V180.08h3.75v1.64a4.94,4.94,0,0,1,4.22-2.08,4.64,4.64,0,0,1,5,5.33v8.53Z"/><path class="cls-1" d="M148.32,183.3v10.2h-3.75V183.3h-1.49v-3.22h1.49v-4.59h3.75v4.59H151v3.22Z"/><path class="cls-1" d="M160.66,193.5V170.28h3.75V193.5Z"/><path class="cls-1" d="M178.27,193.5v-1.77a5.17,5.17,0,0,1-4.37,2.2c-4,0-6.61-3.34-6.61-7.19s2.58-7.1,6.51-7.1a5.58,5.58,0,0,1,4.47,2.14v-1.7h3.78V193.5Zm-6.48-15.94a2.23,2.23,0,0,1,0-4.46,2.23,2.23,0,1,1,0,4.46Zm3.13,5.46a3.77,3.77,0,1,0,3.75,3.75A3.74,3.74,0,0,0,174.92,183Zm3.32-5.46a2.26,2.26,0,0,1-2.23-2.23,2.23,2.23,0,1,1,2.23,2.23Z"/><path class="cls-1" d="M198.11,198.37a7.34,7.34,0,0,1-5.71,2.35c-3.44,0-6.76-2-7.13-5.64h4.06a3,3,0,0,0,3.2,2.45c2.35,0,3.32-1.64,3.32-3.81v-2a5.59,5.59,0,0,1-4.53,2.23c-4,0-6.39-3.19-6.39-7s2.48-7.32,6.57-7.32a5,5,0,0,1,4.35,2.17v-1.73h3.78V193C199.63,195.11,199.54,196.69,198.11,198.37ZM192.56,183a3.77,3.77,0,1,0,3.75,3.75A3.74,3.74,0,0,0,192.56,183Z"/><path class="cls-1" d="M206.35,187.39c.07,2.08,1.06,3.6,3.29,3.6a3.5,3.5,0,0,0,3.19-1.8l3.48.56c-1.18,2.88-3.57,4.18-6.61,4.18-4.34,0-7.19-2.79-7.19-7.16s2.73-7.13,7-7.13,6.85,3,6.85,7.26v.49Zm3.26-5.08a3,3,0,0,0-3.13,2.69h6.35A3.1,3.1,0,0,0,209.61,182.31Z"/><path class="cls-1" d="M99.89,226.5v-7.44c0-1.83-.41-3.23-2.55-3.23-2.32,0-2.88,1.71-2.88,3.73v6.94H90.71V213.08h3.75v1.64a5,5,0,0,1,4.22-2.08,4.64,4.64,0,0,1,5,5.33v8.53Z"/><path class="cls-1" d="M117.5,226.5v-1.77a5.2,5.2,0,0,1-4.38,2.2c-4,0-6.6-3.34-6.6-7.19s2.57-7.1,6.51-7.1a5.59,5.59,0,0,1,4.47,2.14v-1.7h3.78V226.5ZM111,210.56a2.23,2.23,0,0,1,0-4.46,2.23,2.23,0,1,1,0,4.46Zm3.14,5.46a3.77,3.77,0,1,0,3.75,3.75A3.75,3.75,0,0,0,114.15,216Zm3.31-5.46a2.26,2.26,0,0,1-2.23-2.23,2.24,2.24,0,1,1,2.23,2.23Z"/><path class="cls-1" d="M133.65,216.49a3.26,3.26,0,0,0-1.8-.47c-2.55,0-3.23,1.8-3.23,4v6.45h-3.75V213.08h3.75v2a4.32,4.32,0,0,1,3.91-2.45,4.23,4.23,0,0,1,1.64.31Z"/><path class="cls-1" d="M146.29,226.5v-1.77a5.17,5.17,0,0,1-4.37,2.2c-4,0-6.6-3.34-6.6-7.19s2.57-7.1,6.51-7.1a5.57,5.57,0,0,1,4.46,2.14v-1.7h3.79V226.5ZM143,216a3.77,3.77,0,1,0,3.75,3.75A3.75,3.75,0,0,0,143,216Z"/><path class="cls-1" d="M170.6,226.5v-7.35c0-1.86-.41-3.32-2.58-3.32-2.32,0-2.85,1.8-2.85,3.79v6.88h-3.75V203.28h3.75v11.53a4.89,4.89,0,0,1,4.22-2.17,5.15,5.15,0,0,1,3.9,1.64,5.3,5.3,0,0,1,1.06,3.79v8.43Z"/><path class="cls-1" d="M188.21,226.5v-1.77a5.2,5.2,0,0,1-4.38,2.2c-4,0-6.6-3.34-6.6-7.19s2.57-7.1,6.51-7.1a5.59,5.59,0,0,1,4.47,2.14v-1.7H192V226.5ZM184.86,216a3.77,3.77,0,1,0,3.75,3.75A3.75,3.75,0,0,0,184.86,216Z"/><path class="cls-1" d="M202.4,226.78h-1.73l-6.86-13.7H198l3.53,7.56,3.54-7.56h4.22Z"/><path class="cls-1" d="M213.59,220.39c.06,2.08,1.06,3.6,3.29,3.6a3.5,3.5,0,0,0,3.19-1.8l3.47.56c-1.17,2.88-3.56,4.18-6.6,4.18-4.34,0-7.19-2.79-7.19-7.16s2.73-7.13,7-7.13,6.85,3,6.85,7.26v.49Zm3.26-5.08a3,3,0,0,0-3.13,2.69h6.35A3.1,3.1,0,0,0,216.85,215.31Z"/><path class="cls-1" d="M230.3,216.3v10.2h-3.75V216.3h-1.49v-3.22h1.49v-4.59h3.75v4.59h2.64v3.22Z"/></svg>