<svg id="Layer_1" data-name="Layer 1" xmlns="http://www.w3.org/2000/svg" viewBox="0 0 980 120"><defs><style>.cls-1{fill:#d4ac76;}</style></defs><title>text</title><path class="cls-1" d="M326.32,83.54h-6V88h6.46v2h-8.51V75.3h8.4v2h-6.35v4.33h6Z"/><path class="cls-1" d="M331.83,90V75.3h5.45a4.6,4.6,0,0,1,3.31,1.27,4.82,4.82,0,0,1,.23,6.39A4.33,4.33,0,0,1,338,84.39L342.26,90h-2.52l-4.22-5.6h-1.63V90ZM337,77.25h-3.12v5.3H337a3,3,0,0,0,2.08-.72,2.51,2.51,0,0,0,.8-1.94,2.47,2.47,0,0,0-.81-1.87A2.86,2.86,0,0,0,337,77.25Z"/><path class="cls-1" d="M345.23,77.25v-2h11.89v2H352.2V90h-2.05V77.25Z"/><path class="cls-1" d="M369.53,90V75.3H371l8,10.11V75.3H381V90h-1.14L371.58,79.5V90Z"/><path class="cls-1" d="M394.75,75.3h2.37l-4.89,8.77V90h-2.05V84.15l-4.94-8.85h2.46l3.55,6.51Z"/><path class="cls-1" d="M398,90l5.9-14.68h1.85L411.51,90h-2.27l-.89-2.26h-7.2L400.24,90Zm6.82-11.31-2.85,7.09h5.64Z"/><path class="cls-1" d="M433,90V83.62h-7.14V90h-2.06V75.3h2.06v6.36H433V75.3h2V90Z"/><path class="cls-1" d="M449.25,83.54h-6V88h6.46v2h-8.51V75.3h8.4v2h-6.35v4.33h6Z"/><path class="cls-1" d="M454.76,90V75.3h2.11l4.73,7.82,4.81-7.82h2V90h-2.05V79.13l-.06,0-4.73,7.59-4.64-7.48h-.13V90Z"/><path class="cls-1" d="M486.52,90,480.79,75.3h2.31l4.4,11.28,4.41-11.28h2.26L488.43,90Z"/><path class="cls-1" d="M495.42,90l5.9-14.68h1.85L509,90h-2.27l-.89-2.26h-7.2L497.69,90Zm5.3-16.24a1,1,0,0,1-.73.32,1,1,0,0,1-.72-.32,1.22,1.22,0,0,1,0-1.6,1,1,0,0,1,.72-.32,1,1,0,0,1,.73.32,1.19,1.19,0,0,1,0,1.6Zm1.52,4.93-2.85,7.09H505Zm2.56-4.93a1,1,0,0,1-.73.32,1,1,0,0,1-.73-.32,1.22,1.22,0,0,1,0-1.6,1,1,0,0,1,.73-.32,1,1,0,0,1,.73.32,1.25,1.25,0,0,1,0,1.6Z"/><path class="cls-1" d="M513,90V75.3h1.43l7.95,10.11V75.3h2.05V90h-1.14L515.09,79.5V90Z"/><path class="cls-1" d="M528.67,77.25v-2h11.9v2h-4.92V90h-2.06V77.25Z"/><path class="cls-1" d="M541.52,90l5.89-14.68h1.86L555.05,90h-2.27l-.89-2.26H544.7L543.79,90Zm6.82-11.31-2.86,7.09h5.65Z"/><path class="cls-1" d="M559.13,90V75.3h5.45a4.6,4.6,0,0,1,3.31,1.27,4.4,4.4,0,0,1,1.33,3.32,4.44,4.44,0,0,1-1.1,3.07,4.33,4.33,0,0,1-2.81,1.43L569.56,90H567l-4.21-5.6h-1.64V90Zm5.18-12.73h-3.13v5.3h3.11a3,3,0,0,0,2.08-.72,2.51,2.51,0,0,0,.8-1.94,2.47,2.47,0,0,0-.81-1.87A2.88,2.88,0,0,0,564.31,77.25Z"/><path class="cls-1" d="M582.31,90V75.3h5a4.6,4.6,0,0,1,3.41,1.37,4.73,4.73,0,0,1,1.36,3.49,4.56,4.56,0,0,1-1.4,3.43A4.73,4.73,0,0,1,587.24,85h-2.88v5Zm4.87-12.73h-2.82V83h2.84A2.71,2.71,0,0,0,590,80.16a2.84,2.84,0,0,0-.81-2.08A2.75,2.75,0,0,0,587.18,77.25Z"/><path class="cls-1" d="M594,90l5.9-14.68h1.85L607.55,90h-2.27l-.89-2.26h-7.2L596.28,90Zm6.82-11.31L598,85.76h5.64Zm1.42-4.37a2,2,0,0,1-1.42.58,2,2,0,0,1-2-2,2,2,0,0,1,2-2,1.92,1.92,0,0,1,1.42.58,1.9,1.9,0,0,1,.58,1.41A1.92,1.92,0,0,1,602.25,74.3Zm-1.42-.6a.72.72,0,0,0,.56-.25.81.81,0,0,0,0-1.15.73.73,0,0,0-.56-.23.79.79,0,0,0-.58.23.83.83,0,0,0,0,1.15A.77.77,0,0,0,600.83,73.7Z"/><path class="cls-1" d="M627.91,83.54h-6V88h6.46v2h-8.51V75.3h8.39v2h-6.34v4.33h6Z"/><path class="cls-1" d="M633.42,90V75.3h5.45a4.6,4.6,0,0,1,3.31,1.27,4.82,4.82,0,0,1,.23,6.39,4.33,4.33,0,0,1-2.81,1.43L643.85,90h-2.53l-4.21-5.6h-1.64V90Zm5.18-12.73h-3.13v5.3h3.11a3,3,0,0,0,2.08-.72,2.51,2.51,0,0,0,.8-1.94,2.47,2.47,0,0,0-.81-1.87A2.88,2.88,0,0,0,638.6,77.25Z"/></svg>