<svg id="Layer_1" data-name="Layer 1" xmlns="http://www.w3.org/2000/svg" viewBox="0 0 160 600"><defs><style>.cls-1{fill:#fff;}</style></defs><title>text</title><path class="cls-1" d="M22,109.52H17.43v-1.6H28.49v1.6H23.91V123H22Z"/><path class="cls-1" d="M31,106.63h1.89v4.46l-.07,2.3a5.35,5.35,0,0,1,3.73-1.84c2.34,0,3.4,1.52,3.4,4.37V123H38v-6.83c0-2.09-.64-3-2.11-3-1.15,0-1.93.6-3.06,1.73V123H31Z"/><path class="cls-1" d="M47.65,111.55c2.85,0,4.46,2,4.46,5.24a6.3,6.3,0,0,1-.07,1H44.5c.14,2.41,1.59,3.93,3.73,3.93a5.06,5.06,0,0,0,2.78-.88l.66,1.25A6.64,6.64,0,0,1,48,123.28c-3,0-5.36-2.19-5.36-5.84S45.1,111.55,47.65,111.55Zm2.81,5c0-2.27-1-3.54-2.76-3.54-1.57,0-3,1.29-3.22,3.54Z"/><path class="cls-1" d="M59.22,120.47a5,5,0,0,0,3.29,1.33c1.47,0,2.21-.78,2.21-1.74,0-1.15-1.34-1.66-2.56-2.12-1.58-.57-3.33-1.33-3.33-3.22s1.42-3.17,3.84-3.17a5.57,5.57,0,0,1,3.47,1.26l-.9,1.2a4.09,4.09,0,0,0-2.55-1c-1.4,0-2,.76-2,1.61,0,1,1.21,1.45,2.48,1.93,1.61.6,3.4,1.27,3.4,3.38,0,1.82-1.45,3.34-4.09,3.34a6.72,6.72,0,0,1-4.16-1.54Z"/><path class="cls-1" d="M71,123.94v3.77H69.16V111.82h1.56l.16,1.29H71a5.77,5.77,0,0,1,3.56-1.56c2.88,0,4.42,2.23,4.42,5.7,0,3.8-2.28,6-4.83,6A5.18,5.18,0,0,1,71,122Zm2.74-2.25c1.84,0,3.19-1.68,3.19-4.44,0-2.46-.82-4.11-2.94-4.11a4.71,4.71,0,0,0-3,1.51v5.87A4.42,4.42,0,0,0,73.78,121.69Z"/><path class="cls-1" d="M86.11,111.55c2.85,0,4.46,2,4.46,5.24a7.62,7.62,0,0,1-.07,1H83c.13,2.41,1.58,3.93,3.72,3.93a5,5,0,0,0,2.78-.88l.67,1.25a6.67,6.67,0,0,1-3.68,1.15c-3,0-5.36-2.19-5.36-5.84S83.55,111.55,86.11,111.55Zm2.8,5c0-2.27-1-3.54-2.76-3.54-1.56,0-3,1.29-3.22,3.54Z"/><path class="cls-1" d="M97.51,111.55c2.85,0,4.46,2,4.46,5.24a7.78,7.78,0,0,1-.06,1H94.36c.14,2.41,1.59,3.93,3.73,3.93a5,5,0,0,0,2.78-.88l.67,1.25a6.67,6.67,0,0,1-3.68,1.15c-3,0-5.36-2.19-5.36-5.84S95,111.55,97.51,111.55Zm2.81,5c0-2.27-1-3.54-2.76-3.54-1.56,0-3,1.29-3.22,3.54Z"/><path class="cls-1" d="M108.78,111.55a4.59,4.59,0,0,1,3.13,1.29l-.09-1.91v-4.3h1.91V123h-1.57l-.16-1.31h-.07a5,5,0,0,1-3.38,1.59c-2.8,0-4.62-2.12-4.62-5.84S106.23,111.55,108.78,111.55Zm.19,10.14a3.8,3.8,0,0,0,2.85-1.54v-5.84a3.9,3.9,0,0,0-2.72-1.17c-1.79,0-3.21,1.72-3.21,4.27S107,121.69,109,121.69Z"/><path class="cls-1" d="M121.8,108.31a1.31,1.31,0,1,1,1.31,1.21A1.22,1.22,0,0,1,121.8,108.31Zm.35,3.51H124V123h-1.88Z"/><path class="cls-1" d="M127.8,111.82h1.57l.16,1.61h.07a5.3,5.3,0,0,1,3.75-1.88c2.34,0,3.4,1.52,3.4,4.37V123h-1.89v-6.83c0-2.09-.64-3-2.11-3-1.15,0-1.93.6-3.06,1.73V123H127.8Z"/><path class="cls-1" d="M31.24,141H29.58v-1.43l1.75-.12.23-3.12h1.59v3.12h3V141h-3v6.2c0,1.38.44,2.17,1.72,2.17a4.35,4.35,0,0,0,1.27-.3l.37,1.42a6.81,6.81,0,0,1-2.07.42c-2.39,0-3.2-1.52-3.2-3.73Z"/><path class="cls-1" d="M38.69,134.23h1.89v4.46l-.07,2.3a5.34,5.34,0,0,1,3.72-1.84c2.35,0,3.41,1.52,3.41,4.37v7.08H45.75v-6.83c0-2.09-.64-3-2.11-3-1.15,0-1.93.6-3.06,1.73v8.09H38.69Z"/><path class="cls-1" d="M55.39,139.15c2.85,0,4.46,2,4.46,5.24a6.3,6.3,0,0,1-.07,1H52.24c.14,2.41,1.59,3.93,3.72,3.93a5.07,5.07,0,0,0,2.79-.88l.66,1.25a6.64,6.64,0,0,1-3.68,1.15c-3,0-5.35-2.19-5.35-5.84S52.84,139.15,55.39,139.15Zm2.8,5c0-2.27-1-3.54-2.75-3.54-1.57,0-3,1.29-3.22,3.54Z"/><path class="cls-1" d="M69.14,151.54v3.77H67.26V139.42h1.56l.16,1.29h.07a5.8,5.8,0,0,1,3.57-1.56c2.87,0,4.41,2.23,4.41,5.7,0,3.8-2.28,6-4.83,6a5.2,5.2,0,0,1-3.1-1.29Zm2.74-2.25c1.84,0,3.2-1.68,3.2-4.44,0-2.46-.83-4.11-3-4.11a4.71,4.71,0,0,0-3,1.51v5.87A4.44,4.44,0,0,0,71.88,149.29Z"/><path class="cls-1" d="M84.37,139.15c2.74,0,5.17,2.14,5.17,5.89s-2.43,5.84-5.17,5.84-5.18-2.14-5.18-5.84S81.63,139.15,84.37,139.15Zm0,10.16c1.93,0,3.22-1.72,3.22-4.27s-1.29-4.33-3.22-4.33-3.22,1.75-3.22,4.33S82.46,149.31,84.37,149.31Z"/><path class="cls-1" d="M91.06,139.42H93l1.66,6.47c.25,1.05.46,2.07.67,3.1h.09c.25-1,.48-2.07.76-3.1l1.72-6.47h1.84l1.75,6.47c.28,1.05.53,2.07.78,3.1h.09c.26-1,.46-2.05.69-3.1l1.64-6.47h1.79l-3,11.18h-2.3l-1.61-6c-.27-1.06-.48-2.09-.76-3.22h-.09c-.25,1.13-.48,2.18-.78,3.24l-1.56,6H94.17Z"/><path class="cls-1" d="M113,139.15c2.85,0,4.46,2,4.46,5.24a7.78,7.78,0,0,1-.06,1h-7.55c.14,2.41,1.59,3.93,3.73,3.93a5,5,0,0,0,2.78-.88l.67,1.25a6.67,6.67,0,0,1-3.68,1.15c-3,0-5.36-2.19-5.36-5.84S110.45,139.15,113,139.15Zm2.81,5c0-2.27-1-3.54-2.76-3.54-1.56,0-3,1.29-3.22,3.54Z"/><path class="cls-1" d="M120.23,139.42h1.56l.16,2H122a3.83,3.83,0,0,1,3.17-2.3,2.79,2.79,0,0,1,1.2.23L126,141a3.26,3.26,0,0,0-1.08-.18c-.94,0-2.07.69-2.83,2.58v7.17h-1.88Z"/><path class="cls-1" d="M39,163.51a1.31,1.31,0,0,1,2.62,0,1.31,1.31,0,0,1-2.62,0Zm.34,3.51h1.89V178.2H39.32Z"/><path class="cls-1" d="M45,167h1.57l.16,1.61h.07a5.26,5.26,0,0,1,3.74-1.88c2.35,0,3.41,1.52,3.41,4.37v7.08H52v-6.83c0-2.09-.64-3-2.11-3-1.15,0-1.94.6-3.06,1.73v8.09H45Z"/><path class="cls-1" d="M57.89,168.57H56.23v-1.43L58,167l.23-3.12h1.58V167h3v1.55h-3v6.2c0,1.38.44,2.17,1.73,2.17a4.22,4.22,0,0,0,1.26-.3l.37,1.42a6.81,6.81,0,0,1-2.07.42c-2.39,0-3.19-1.52-3.19-3.73Z"/><path class="cls-1" d="M65.34,167H66.9l.16,2h.07a3.83,3.83,0,0,1,3.17-2.3,2.79,2.79,0,0,1,1.2.23l-.37,1.65a3.26,3.26,0,0,0-1.08-.18c-.94,0-2.07.69-2.83,2.58v7.17H65.34Z"/><path class="cls-1" d="M79.07,171.12c0-1.43-.49-2.81-2.3-2.81a6,6,0,0,0-3.34,1.2l-.76-1.31a8.29,8.29,0,0,1,4.4-1.45c2.73,0,3.88,1.82,3.88,4.6v6.85H79.39l-.16-1.33h0a6.09,6.09,0,0,1-3.7,1.61,3.05,3.05,0,0,1-3.29-3.18C72.19,172.87,74.31,171.65,79.07,171.12ZM76,177a4.57,4.57,0,0,0,3.06-1.5v-3.1c-3.75.46-5,1.38-5,2.81C74.05,176.43,74.9,177,76,177Z"/><path class="cls-1" d="M88.57,166.75A4.58,4.58,0,0,1,91.69,168l-.09-1.91v-4.3h1.91V178.2H92l-.16-1.31h-.07a5.06,5.06,0,0,1-3.38,1.59c-2.81,0-4.63-2.12-4.63-5.84S86,166.75,88.57,166.75Zm.18,10.14a3.8,3.8,0,0,0,2.85-1.54v-5.84a3.88,3.88,0,0,0-2.71-1.17c-1.8,0-3.22,1.72-3.22,4.27S86.8,176.89,88.75,176.89Z"/><path class="cls-1" d="M103.61,171.12c0-1.43-.49-2.81-2.3-2.81a6,6,0,0,0-3.34,1.2l-.76-1.31a8.29,8.29,0,0,1,4.4-1.45c2.73,0,3.88,1.82,3.88,4.6v6.85h-1.56l-.16-1.33h0a6.09,6.09,0,0,1-3.7,1.61,3.05,3.05,0,0,1-3.29-3.18C96.73,172.87,98.85,171.65,103.61,171.12ZM100.55,177a4.57,4.57,0,0,0,3.06-1.5v-3.1c-3.75.46-5,1.38-5,2.81A1.72,1.72,0,0,0,100.55,177Z"/><path class="cls-1" d="M109.15,181.44c1.27,0,2.07-1,2.53-2.39l.25-.83L107.45,167h2l2.28,6.19c.35,1,.74,2.12,1.08,3.15h.09c.33-1,.65-2.16,1-3.15l2-6.19h1.84l-4.21,12.1c-.78,2.21-1.93,3.89-4.19,3.89a3.93,3.93,0,0,1-1.31-.23l.37-1.5A3.29,3.29,0,0,0,109.15,181.44Z"/><path class="cls-1" d="M45.24,194.62H46.8l.16,1.61H47a4.94,4.94,0,0,1,3.47-1.88,2.93,2.93,0,0,1,3.08,2.14c1.18-1.27,2.33-2.14,3.68-2.14,2.3,0,3.41,1.52,3.41,4.37v7.08H58.78V199c0-2.09-.67-3-2.07-3-.87,0-1.77.58-2.81,1.73v8.09H52V199c0-2.09-.67-3-2.09-3a4.22,4.22,0,0,0-2.81,1.73v8.09H45.24Z"/><path class="cls-1" d="M70.63,198.72c0-1.43-.49-2.81-2.3-2.81a6,6,0,0,0-3.34,1.2l-.76-1.31a8.29,8.29,0,0,1,4.4-1.45c2.73,0,3.88,1.82,3.88,4.6v6.85H71l-.16-1.33h-.05a6.09,6.09,0,0,1-3.7,1.61,3.05,3.05,0,0,1-3.29-3.18C63.75,200.46,65.87,199.25,70.63,198.72Zm-3.06,5.84a4.57,4.57,0,0,0,3.06-1.5V200c-3.75.46-5,1.38-5,2.8A1.72,1.72,0,0,0,67.57,204.56Z"/><path class="cls-1" d="M76.08,194.62h1.56l.16,2h.07a3.83,3.83,0,0,1,3.18-2.3,2.78,2.78,0,0,1,1.19.23l-.37,1.65a3.21,3.21,0,0,0-1.08-.18c-.94,0-2.07.69-2.83,2.58v7.17H76.08Z"/><path class="cls-1" d="M84.06,189.43h1.86v11.08H86l4.76-5.89h2.09l-3.75,4.49,4.26,6.69H91.28L88,200.42l-2.09,2.44v2.94H84.06Z"/><path class="cls-1" d="M99.22,194.35c2.85,0,4.46,2.05,4.46,5.24a7.62,7.62,0,0,1-.07,1H96.06c.14,2.41,1.59,3.93,3.73,3.93a5,5,0,0,0,2.78-.88l.67,1.25a6.67,6.67,0,0,1-3.68,1.15c-3,0-5.36-2.19-5.36-5.85S96.66,194.35,99.22,194.35Zm2.8,5c0-2.27-1-3.54-2.76-3.54-1.56,0-3,1.29-3.22,3.54Z"/><path class="cls-1" d="M106.44,196.17h-1.66v-1.43l1.75-.12.23-3.12h1.59v3.12h3v1.55h-3v6.2c0,1.38.43,2.17,1.72,2.17a4.35,4.35,0,0,0,1.27-.3l.36,1.42a6.81,6.81,0,0,1-2.07.42c-2.39,0-3.19-1.52-3.19-3.73Z"/><path class="cls-1" d="M19.3,218.71a1.32,1.32,0,0,1,2.63,0,1.32,1.32,0,0,1-2.63,0Zm.35,3.51h1.88V233.4H19.65Z"/><path class="cls-1" d="M25,230.87a5,5,0,0,0,3.29,1.33c1.47,0,2.2-.78,2.2-1.74,0-1.15-1.33-1.66-2.55-2.12-1.59-.57-3.33-1.33-3.33-3.22S26,222,28.46,222a5.57,5.57,0,0,1,3.47,1.26l-.9,1.2a4.11,4.11,0,0,0-2.55-1c-1.4,0-2.05.76-2.05,1.61,0,1,1.22,1.45,2.49,1.93,1.61.6,3.4,1.27,3.4,3.38,0,1.82-1.45,3.34-4.09,3.34a6.77,6.77,0,0,1-4.17-1.54Z"/><path class="cls-1" d="M39.24,218.71a1.32,1.32,0,1,1,1.32,1.21A1.23,1.23,0,0,1,39.24,218.71Zm.35,3.51h1.88V233.4H39.59Z"/><path class="cls-1" d="M45.25,222.22h1.56l.16,1.61H47A5.3,5.3,0,0,1,50.79,222c2.34,0,3.4,1.52,3.4,4.37v7.08H52.31v-6.83c0-2.09-.65-3-2.12-3-1.15,0-1.93.6-3.06,1.73v8.09H45.25Z"/><path class="cls-1" d="M62.38,222a4.63,4.63,0,0,1,3.27,1.33l-1,1.22a3.37,3.37,0,0,0-2.25-1c-2,0-3.5,1.75-3.5,4.32s1.41,4.28,3.45,4.28A4,4,0,0,0,65,231l.85,1.24a5.59,5.59,0,0,1-3.64,1.45c-3,0-5.24-2.14-5.24-5.85S59.51,222,62.38,222Z"/><path class="cls-1" d="M68.32,222.22h1.56l.16,2h.07a3.83,3.83,0,0,1,3.17-2.3,2.79,2.79,0,0,1,1.2.23l-.37,1.65a3.26,3.26,0,0,0-1.08-.18c-.94,0-2.07.69-2.83,2.58v7.17H68.32Z"/><path class="cls-1" d="M80.25,222c2.85,0,4.46,2.05,4.46,5.24a6.3,6.3,0,0,1-.07,1H77.1c.14,2.41,1.59,3.93,3.73,3.93a5.06,5.06,0,0,0,2.78-.88l.67,1.25a6.7,6.7,0,0,1-3.68,1.15c-3,0-5.36-2.19-5.36-5.85S77.7,222,80.25,222Zm2.81,5c0-2.27-1-3.54-2.76-3.54-1.57,0-3,1.29-3.22,3.54Z"/><path class="cls-1" d="M93.48,226.32c0-1.43-.49-2.81-2.3-2.81a6,6,0,0,0-3.34,1.2l-.76-1.31a8.29,8.29,0,0,1,4.4-1.45c2.73,0,3.88,1.82,3.88,4.6v6.85H93.8l-.16-1.33h0a6.09,6.09,0,0,1-3.7,1.61,3.05,3.05,0,0,1-3.29-3.18C86.6,228.06,88.72,226.85,93.48,226.32Zm-3.06,5.84a4.57,4.57,0,0,0,3.06-1.5v-3.1c-3.75.46-5,1.38-5,2.8A1.72,1.72,0,0,0,90.42,232.16Z"/><path class="cls-1" d="M98.63,230.87a5,5,0,0,0,3.29,1.33c1.47,0,2.21-.78,2.21-1.74,0-1.15-1.34-1.66-2.56-2.12-1.58-.57-3.33-1.33-3.33-3.22s1.42-3.17,3.84-3.17a5.57,5.57,0,0,1,3.47,1.26l-.9,1.2a4.09,4.09,0,0,0-2.55-1c-1.4,0-2,.76-2,1.61,0,1,1.22,1.45,2.49,1.93,1.61.6,3.4,1.27,3.4,3.38,0,1.82-1.45,3.34-4.09,3.34a6.72,6.72,0,0,1-4.16-1.54Z"/><path class="cls-1" d="M108.22,218.71a1.31,1.31,0,1,1,1.31,1.21A1.22,1.22,0,0,1,108.22,218.71Zm.34,3.51h1.89V233.4h-1.89Z"/><path class="cls-1" d="M114.22,222.22h1.57l.16,1.61H116a5.26,5.26,0,0,1,3.74-1.88c2.35,0,3.41,1.52,3.41,4.37v7.08h-1.89v-6.83c0-2.09-.64-3-2.11-3-1.15,0-1.94.6-3.06,1.73v8.09h-1.89Z"/><path class="cls-1" d="M127.59,233v-.09a2.06,2.06,0,0,1-1-1.82,2.61,2.61,0,0,1,1.22-2.07v-.09a3.94,3.94,0,0,1,2.75-7,4.46,4.46,0,0,1,1.59.27h3.89v1.45h-2.3a3.25,3.25,0,0,1,.92,2.3,3.84,3.84,0,0,1-4.1,3.89,3.89,3.89,0,0,1-1.67-.39,1.69,1.69,0,0,0-.72,1.33c0,.71.46,1.22,2,1.22h2.16c2.6,0,3.91.81,3.91,2.67,0,2.07-2.18,3.86-5.66,3.86-2.73,0-4.62-1.08-4.62-3A3.22,3.22,0,0,1,127.59,233Zm3.26,4.23c2.14,0,3.54-1.1,3.54-2.28s-.8-1.38-2.25-1.38h-1.93a5.33,5.33,0,0,1-1.45-.18,2.33,2.33,0,0,0-1.15,1.89C127.61,236.48,128.83,237.24,130.85,237.24Zm2.09-11.31a2.38,2.38,0,1,0-4.73,0,2.38,2.38,0,1,0,4.73,0Z"/><path class="cls-1" d="M139.38,230.78a1.45,1.45,0,1,1-1.38,1.47A1.39,1.39,0,0,1,139.38,230.78Z"/></svg>