<svg id="Layer_1" data-name="Layer 1" xmlns="http://www.w3.org/2000/svg" viewBox="0 0 160 600"><defs><style>.cls-1{fill:#fff;}</style></defs><title>text</title><path class="cls-1" d="M46.68,144.4H41.19L39.74,149h-2l5.11-15.08h2.16L50.16,149h-2Zm-.48-1.54-.71-2.3c-.53-1.68-1-3.33-1.5-5.08H43.9c-.48,1.75-1,3.4-1.49,5.08l-.74,2.3Z"/><path class="cls-1" d="M52,137.82h1.57l.16,2h.07a3.83,3.83,0,0,1,3.17-2.3,2.83,2.83,0,0,1,1.2.23l-.37,1.65a3.26,3.26,0,0,0-1.08-.18c-.95,0-2.07.69-2.83,2.58V149H52Z"/><path class="cls-1" d="M64,137.55c2.85,0,4.46,2,4.46,5.24a6.3,6.3,0,0,1-.07,1H60.83c.14,2.41,1.59,3.93,3.72,3.93a5.07,5.07,0,0,0,2.79-.88l.66,1.25a6.64,6.64,0,0,1-3.68,1.15c-3,0-5.35-2.19-5.35-5.84S61.43,137.55,64,137.55Zm2.8,5c0-2.27-1-3.54-2.75-3.54-1.57,0-3,1.29-3.22,3.54Z"/><path class="cls-1" d="M75.94,152.24c1.26,0,2.07-1,2.53-2.39l.25-.83-4.48-11.2h2L78.47,144c.34,1,.74,2.12,1.08,3.15h.09c.32-1,.65-2.16.94-3.15l2-6.19h1.84l-4.2,12.1c-.79,2.21-1.93,3.89-4.19,3.89a3.93,3.93,0,0,1-1.31-.23l.37-1.5A3.21,3.21,0,0,0,75.94,152.24Z"/><path class="cls-1" d="M90.84,137.55c2.74,0,5.18,2.14,5.18,5.89s-2.44,5.84-5.18,5.84-5.17-2.14-5.17-5.84S88.11,137.55,90.84,137.55Zm0,10.16c1.93,0,3.22-1.72,3.22-4.27s-1.29-4.33-3.22-4.33-3.22,1.75-3.22,4.33S88.93,147.71,90.84,147.71Z"/><path class="cls-1" d="M98.8,137.82h1.91v6.83c0,2.1.62,3,2.09,3,1.15,0,2-.57,3-1.88v-7.94h1.88V149h-1.56l-.16-1.75h-.07a4.74,4.74,0,0,1-3.68,2c-2.37,0-3.43-1.52-3.43-4.37Z"/><path class="cls-1" d="M111.47,137.82H113l.16,2h.07a3.83,3.83,0,0,1,3.17-2.3,2.83,2.83,0,0,1,1.2.23l-.37,1.65a3.26,3.26,0,0,0-1.08-.18c-.94,0-2.07.69-2.83,2.58V149h-1.89Z"/><path class="cls-1" d="M55.9,167H54.24v-1.43l1.75-.12.23-3.12H57.8v3.12h3V167h-3v6.2c0,1.38.44,2.17,1.73,2.17a4.22,4.22,0,0,0,1.26-.3l.37,1.42a6.81,6.81,0,0,1-2.07.42c-2.39,0-3.19-1.52-3.19-3.73Z"/><path class="cls-1" d="M67.46,165.15c2.74,0,5.18,2.14,5.18,5.89s-2.44,5.84-5.18,5.84-5.17-2.14-5.17-5.84S64.73,165.15,67.46,165.15Zm0,10.16c1.94,0,3.22-1.72,3.22-4.27s-1.28-4.33-3.22-4.33-3.22,1.75-3.22,4.33S65.56,175.31,67.46,175.31Z"/><path class="cls-1" d="M79.93,165.15c2.74,0,5.17,2.14,5.17,5.89s-2.43,5.84-5.17,5.84-5.17-2.14-5.17-5.84S77.19,165.15,79.93,165.15Zm0,10.16c1.93,0,3.22-1.72,3.22-4.27s-1.29-4.33-3.22-4.33-3.22,1.75-3.22,4.33S78,175.31,79.93,175.31Z"/><path class="cls-1" d="M88.05,160.23h1.88v14.25c0,.6.26.83.53.83a1.85,1.85,0,0,0,.42,0l.25,1.42a2.42,2.42,0,0,1-1.08.19c-1.43,0-2-.9-2-2.53Z"/><path class="cls-1" d="M93.62,174.07a5,5,0,0,0,3.28,1.33c1.48,0,2.21-.78,2.21-1.74,0-1.15-1.33-1.66-2.55-2.12-1.59-.57-3.34-1.33-3.34-3.22s1.43-3.17,3.84-3.17a5.58,5.58,0,0,1,3.48,1.26l-.9,1.2a4.11,4.11,0,0,0-2.55-1c-1.41,0-2,.76-2,1.61,0,1,1.22,1.45,2.48,1.93,1.61.6,3.41,1.27,3.41,3.38,0,1.82-1.45,3.34-4.1,3.34a6.76,6.76,0,0,1-4.16-1.54Z"/><path class="cls-1" d="M25.52,189.37a3,3,0,0,0-1.26-.28c-1.06,0-1.56.74-1.56,2.16V193h2.36v1.55H22.7v9.63H20.81v-9.63H19.29v-1.43l1.52-.12v-1.77c0-2.27,1-3.7,3.27-3.7a5,5,0,0,1,1.86.37Z"/><path class="cls-1" d="M33.07,197.12c0-1.43-.49-2.81-2.3-2.81a6,6,0,0,0-3.34,1.2l-.76-1.31a8.29,8.29,0,0,1,4.4-1.45c2.73,0,3.88,1.82,3.88,4.6v6.85H33.39l-.16-1.33h0a6.09,6.09,0,0,1-3.7,1.61,3.05,3.05,0,0,1-3.29-3.18C26.19,198.87,28.31,197.65,33.07,197.12ZM30,203a4.57,4.57,0,0,0,3.06-1.5v-3.1c-3.75.46-5,1.38-5,2.81A1.72,1.72,0,0,0,30,203Z"/><path class="cls-1" d="M38.22,201.67A5,5,0,0,0,41.51,203c1.47,0,2.21-.78,2.21-1.74,0-1.15-1.34-1.66-2.56-2.12-1.58-.57-3.33-1.33-3.33-3.22s1.43-3.17,3.84-3.17A5.57,5.57,0,0,1,45.14,194l-.89,1.2a4.14,4.14,0,0,0-2.56-1c-1.4,0-2,.76-2,1.61,0,1,1.22,1.45,2.48,1.93,1.61.6,3.4,1.27,3.4,3.38,0,1.82-1.45,3.34-4.09,3.34a6.74,6.74,0,0,1-4.16-1.54Z"/><path class="cls-1" d="M48.48,194.57H46.82v-1.43l1.75-.12.23-3.12h1.59V193h3v1.55h-3v6.2c0,1.38.43,2.17,1.72,2.17a4.35,4.35,0,0,0,1.27-.3l.36,1.42a6.75,6.75,0,0,1-2.07.42c-2.39,0-3.19-1.52-3.19-3.73Z"/><path class="cls-1" d="M64.76,192.75c2.85,0,4.46,2.05,4.46,5.24a6.3,6.3,0,0,1-.07,1H61.61c.14,2.41,1.59,3.93,3.73,3.93a5.06,5.06,0,0,0,2.78-.88l.67,1.25a6.7,6.7,0,0,1-3.68,1.15c-3,0-5.36-2.19-5.36-5.84S62.21,192.75,64.76,192.75Zm2.81,5c0-2.27-1-3.54-2.76-3.54-1.57,0-3,1.29-3.22,3.54Z"/><path class="cls-1" d="M72,193h1.57l.16,1.61h.07a5.28,5.28,0,0,1,3.75-1.88c2.34,0,3.4,1.52,3.4,4.37v7.08H79v-6.83c0-2.09-.64-3-2.11-3-1.15,0-1.93.6-3.06,1.73v8.09H72Z"/><path class="cls-1" d="M88.91,192.75c2.74,0,5.17,2.14,5.17,5.89s-2.43,5.84-5.17,5.84-5.17-2.14-5.17-5.84S86.17,192.75,88.91,192.75Zm0,10.16c1.93,0,3.22-1.72,3.22-4.27s-1.29-4.33-3.22-4.33-3.22,1.75-3.22,4.33S87,202.91,88.91,202.91Z"/><path class="cls-1" d="M96.87,193h1.91v6.83c0,2.1.62,3,2.09,3,1.15,0,2-.57,3-1.88V193h1.89V204.2h-1.56l-.17-1.75H104a4.74,4.74,0,0,1-3.68,2c-2.37,0-3.43-1.52-3.43-4.37Z"/><path class="cls-1" d="M110.32,203.81v-.09a2.08,2.08,0,0,1-1-1.82,2.63,2.63,0,0,1,1.21-2.07v-.09a3.95,3.95,0,0,1,2.76-7,4.5,4.5,0,0,1,1.59.27h3.89v1.45h-2.3a3.25,3.25,0,0,1,.92,2.3,3.84,3.84,0,0,1-4.1,3.89,4,4,0,0,1-1.68-.39,1.68,1.68,0,0,0-.71,1.33c0,.71.46,1.22,2,1.22h2.16c2.6,0,3.91.81,3.91,2.67,0,2.07-2.18,3.86-5.66,3.86-2.73,0-4.62-1.08-4.62-3A3.23,3.23,0,0,1,110.32,203.81Zm3.27,4.23c2.14,0,3.54-1.1,3.54-2.28,0-1-.8-1.38-2.25-1.38H113a5.33,5.33,0,0,1-1.45-.18,2.33,2.33,0,0,0-1.15,1.89C110.35,207.28,111.57,208,113.59,208Zm2.09-11.31a2.38,2.38,0,1,0-4.73,0,2.38,2.38,0,1,0,4.73,0Z"/><path class="cls-1" d="M121.13,187.83H123v4.46l-.07,2.3a5.37,5.37,0,0,1,3.73-1.84c2.34,0,3.4,1.52,3.4,4.37v7.08h-1.89v-6.83c0-2.09-.64-3-2.11-3-1.15,0-1.93.6-3.06,1.73v8.09h-1.89Z"/><path class="cls-1" d="M138.45,192.31a2.1,2.1,0,0,0-2.23-2.23,3.5,3.5,0,0,0-2.64,1.34l-1.08-1a5,5,0,0,1,3.86-1.91c2.37,0,3.93,1.4,3.93,3.68,0,3-3.7,4.23-3.33,7.45H135.3C134.8,196.06,138.45,194.75,138.45,192.31Zm-2.27,9.27a1.45,1.45,0,0,1,0,2.9,1.45,1.45,0,0,1,0-2.9Z"/></svg>