<svg id="Layer_1" data-name="Layer 1" xmlns="http://www.w3.org/2000/svg" viewBox="0 0 300 600"><defs><style>.cls-1{fill:#d5ad77;}</style></defs><title>text</title><path class="cls-1" d="M70.83,117.2a12.41,12.41,0,0,1-12.44,12.4,12.42,12.42,0,1,1,8.8-21.19A12,12,0,0,1,70.83,117.2Zm-18.09,5.72a7.88,7.88,0,0,0,11.27,0,8.22,8.22,0,0,0,0-11.47,7.86,7.86,0,0,0-11.27,0,8.27,8.27,0,0,0,0,11.47Zm3.55-20.15a2,2,0,0,1-1.47.63,2,2,0,0,1-1.48-.63,2.14,2.14,0,0,1-.61-1.54,2.08,2.08,0,0,1,2.09-2.14,2,2,0,0,1,1.45.62,2.08,2.08,0,0,1,.61,1.52A2.21,2.21,0,0,1,56.29,102.77Zm7.13,0a2.32,2.32,0,0,1-3.18,0,2.07,2.07,0,0,1-.66-1.54,2,2,0,0,1,.66-1.52,2.35,2.35,0,0,1,3.18,0,2,2,0,0,1,.66,1.52A2.07,2.07,0,0,1,63.42,102.77Z"/><path class="cls-1" d="M77.71,129.19v-24h8.61a8.15,8.15,0,0,1,8.32,8.28,7.6,7.6,0,0,1-2.43,5.77,8.41,8.41,0,0,1-6,2.29h-4v7.62Zm8.22-19.65H82.21v8H86a4.26,4.26,0,0,0,3-1.07,3.75,3.75,0,0,0,1.15-2.87A4,4,0,0,0,89,110.68,4.2,4.2,0,0,0,85.93,109.54Z"/><path class="cls-1" d="M101.24,129.19v-24h8.61a8.15,8.15,0,0,1,8.32,8.28,7.6,7.6,0,0,1-2.43,5.77,8.41,8.41,0,0,1-6,2.29h-4v7.62Zm8.22-19.65h-3.72v8h3.78a4.26,4.26,0,0,0,3-1.07,3.74,3.74,0,0,0,1.14-2.87,4,4,0,0,0-1.17-2.95A4.2,4.2,0,0,0,109.46,109.54Z"/><path class="cls-1" d="M138.13,119.06h-8.86v6.13H139v4H124.77v-24h14v4h-9.45v5.83h8.86Z"/><path class="cls-1" d="M144.15,109.54v-4.31h19.74v4.31h-7.62v19.65h-4.5V109.54Z"/><path class="cls-1" d="M182.59,129.19v-24h4.15v10.56l9.18-10.56h5.55L193,114.79l8.64,14.4h-5.17L190,118.25l-3.21,3.63v7.31Z"/><path class="cls-1" d="M229.74,117.2a12.43,12.43,0,1,1-3.64-8.79A12,12,0,0,1,229.74,117.2Zm-18.09,5.72a7.88,7.88,0,0,0,11.27,0,8.25,8.25,0,0,0,0-11.47,7.86,7.86,0,0,0-11.27,0,8.27,8.27,0,0,0,0,11.47Zm3.54-20.15a2,2,0,0,1-1.46.63,2,2,0,0,1-1.48-.63,2.15,2.15,0,0,1-.62-1.54,2.11,2.11,0,0,1,.6-1.52,2.15,2.15,0,0,1,1.5-.62,2,2,0,0,1,1.45.62,2.12,2.12,0,0,1,.61,1.52A2.18,2.18,0,0,1,215.19,102.77Zm7.13,0a2.32,2.32,0,0,1-3.18,0,2.1,2.1,0,0,1-.65-1.54,2,2,0,0,1,.65-1.52,2.35,2.35,0,0,1,3.18,0,2,2,0,0,1,.66,1.52A2.07,2.07,0,0,1,222.32,102.77Z"/><path class="cls-1" d="M236.62,129.19v-24h8.6a8.16,8.16,0,0,1,8.33,8.28,7.6,7.6,0,0,1-2.43,5.77,8.44,8.44,0,0,1-6,2.29h-4v7.62Zm8.21-19.65h-3.71v8h3.78a4.22,4.22,0,0,0,3-1.07,3.72,3.72,0,0,0,1.15-2.87,3.93,3.93,0,0,0-1.18-2.95A4.17,4.17,0,0,0,244.83,109.54Z"/><path class="cls-1" d="M28.08,166.39v-24h8.61A8.15,8.15,0,0,1,45,150.71a7.6,7.6,0,0,1-2.43,5.77,8.41,8.41,0,0,1-6,2.29h-4v7.62Zm8.22-19.65H32.58v8h3.78a4.26,4.26,0,0,0,3-1.07,3.74,3.74,0,0,0,1.14-2.87,4,4,0,0,0-1.17-3A4.2,4.2,0,0,0,36.3,146.74Z"/><path class="cls-1" d="M51.61,166.39v-24H61a8.09,8.09,0,0,1,5.77,2.18,7.44,7.44,0,0,1,2.31,5.68,7.24,7.24,0,0,1-1.72,4.86,7.76,7.76,0,0,1-4.47,2.55l6.43,8.69h-5L58,157.84H56.11v8.55Zm8.68-20H56.11v7.81h4.18a4.45,4.45,0,0,0,3.12-1.06,3.59,3.59,0,0,0,1.16-2.77,3.79,3.79,0,0,0-1.19-2.84A4.3,4.3,0,0,0,60.29,146.43Z"/><path class="cls-1" d="M76.07,166.39v-24h4.5v24Z"/><path class="cls-1" d="M95.27,166.7a11.56,11.56,0,0,1-4.52-.94,12,12,0,0,1-3.88-2.62l2.85-3.42a8.73,8.73,0,0,0,2.65,2.15,6.69,6.69,0,0,0,3.15.83,3.89,3.89,0,0,0,2.56-.82,2.58,2.58,0,0,0,1-2.07c0-1.49-.87-2.6-2.63-3.32l-2.67-1.07a10.36,10.36,0,0,1-4-2.64,6.12,6.12,0,0,1-1.29-4.08,6.21,6.21,0,0,1,2-4.55,6.94,6.94,0,0,1,5.08-2,10.28,10.28,0,0,1,7.37,2.74l-2.64,3.34a6.16,6.16,0,0,0-4.73-2.08,3.19,3.19,0,0,0-2.15.69,2.13,2.13,0,0,0-.81,1.69,2.24,2.24,0,0,0,.63,1.64,6.38,6.38,0,0,0,2.06,1.24l2.79,1.12q5.33,2.13,5.43,6.91a6.71,6.71,0,0,1-2.26,5.25A8.73,8.73,0,0,1,95.27,166.7Z"/><path class="cls-1" d="M125.58,156.38v-4h8.59l0,2.05a12.24,12.24,0,0,1-1.75,6.35,12,12,0,0,1-4.54,4.42,12.44,12.44,0,0,1-6.11,1.57,12.44,12.44,0,1,1,.07-24.87,11.77,11.77,0,0,1,8.92,3.88l-3.06,3a7.8,7.8,0,0,0-5.9-2.59,7.61,7.61,0,0,0-5.73,2.35,8.48,8.48,0,0,0,0,11.55,7.32,7.32,0,0,0,5.44,2.35,8.52,8.52,0,0,0,5.33-1.67,7.6,7.6,0,0,0,2.82-4.41Z"/><path class="cls-1" d="M137.45,166.39l9.24-24h4.06l9.21,24h-4.62l-1.27-3.31H143.35l-1.28,3.31Zm11.27-17.25-3.83,9.94h7.64Z"/><path class="cls-1" d="M165.57,166.39v-24h9.37a8.11,8.11,0,0,1,5.78,2.18,7.47,7.47,0,0,1,2.3,5.68,7.19,7.19,0,0,1-1.72,4.86,7.7,7.7,0,0,1-4.47,2.55l6.44,8.69h-5.05L172,157.84h-1.94v8.55Zm8.68-20h-4.19v7.81h4.19a4.41,4.41,0,0,0,3.11-1.06,3.57,3.57,0,0,0,1.17-2.77,3.76,3.76,0,0,0-1.2-2.84A4.26,4.26,0,0,0,174.25,146.43Z"/><path class="cls-1" d="M187.36,166.39l9.24-24h4.06l9.21,24h-4.62L204,163.08H193.26L192,166.39Zm11.27-17.25-3.83,9.94h7.64Z"/><path class="cls-1" d="M215.48,166.39v-24h3.15l11.79,15.07V142.43h4.5v24h-3L220,151.14v15.25Z"/><path class="cls-1" d="M240.71,146.74v-4.31h19.75v4.31h-7.63v19.65h-4.49V146.74Z"/><path class="cls-1" d="M266.19,166.39v-24h4.5v24Z"/><path class="cls-1" d="M43.23,203.59v-24h7.88a7.22,7.22,0,0,1,5.24,2,6.6,6.6,0,0,1,2.07,5,5.64,5.64,0,0,1-2.69,4.81,6.64,6.64,0,0,1,2.65,2.15,5,5,0,0,1,1,3,6.58,6.58,0,0,1-2.1,5.08A7.5,7.5,0,0,1,52,203.59Zm7.36-20H47.38v6H51a3.27,3.27,0,0,0,2.38-.88,2.92,2.92,0,0,0,.92-2.21,2.54,2.54,0,0,0-1-2.12A4.17,4.17,0,0,0,50.59,183.63Zm.68,9.61H47.38v6.35h3.8a3.91,3.91,0,0,0,2.71-.9,3,3,0,0,0,1-2.32A2.94,2.94,0,0,0,54,194.1,3.84,3.84,0,0,0,51.27,193.24Z"/><path class="cls-1" d="M79.93,193.46H71.07v6.13H80.8v4H66.57v-24h14v4H71.07v5.83h8.86Z"/><path class="cls-1" d="M86,183.94v-4.31h19.74v4.31H98.07v19.65h-4.5V183.94Z"/><path class="cls-1" d="M106.53,203.59l9.24-24h4.06l9.21,24h-4.62l-1.27-3.31H112.43l-1.28,3.31Zm11.27-17.25L114,196.28h7.64Z"/><path class="cls-1" d="M134.65,203.59v-24h4.49v19.66H148v4.3Z"/><path class="cls-1" d="M152.1,203.59l9.24-24h4.06l9.21,24H170l-1.28-3.31H158l-1.28,3.31Zm11.27-17.25-3.83,9.94h7.64Z"/><path class="cls-1" d="M199.45,203.9a11.52,11.52,0,0,1-4.52-.94,11.72,11.72,0,0,1-3.88-2.62l2.85-3.42a8.82,8.82,0,0,0,2.64,2.15,6.75,6.75,0,0,0,3.16.83,3.85,3.85,0,0,0,2.55-.82,2.57,2.57,0,0,0,1-2.07c0-1.49-.88-2.6-2.63-3.32L198,192.62a10.41,10.41,0,0,1-4-2.64,6.54,6.54,0,0,1,.75-8.63,7,7,0,0,1,5.08-2,10.29,10.29,0,0,1,7.38,2.74l-2.65,3.34a6.15,6.15,0,0,0-4.73-2.08,3.21,3.21,0,0,0-2.15.69,2.13,2.13,0,0,0-.81,1.69,2.24,2.24,0,0,0,.63,1.64,6.5,6.5,0,0,0,2.06,1.24l2.8,1.12q5.33,2.13,5.42,6.91a6.74,6.74,0,0,1-2.25,5.25A8.76,8.76,0,0,1,199.45,203.9Z"/><path class="cls-1" d="M228,193.46h-8.87v6.13h9.73v4H214.59v-24h13.95v4h-9.45v5.83H228Z"/><path class="cls-1" d="M236.11,203.59v-24h3.15l11.79,15.07V179.63h4.49v24h-3L240.6,188.34v15.25Z"/></svg>