<svg id="Layer_1" data-name="Layer 1" xmlns="http://www.w3.org/2000/svg" viewBox="0 0 160 600"><defs><style>.cls-1{fill:#001012;}</style></defs><title>text</title><path class="cls-1" d="M32.84,144.35h2.52v16.43h9.36V163H32.84Z"/><path class="cls-1" d="M55.39,149.78a5.13,5.13,0,0,1,2.06,1.76,6.22,6.22,0,0,1,.91,2.4,16.12,16.12,0,0,1,.2,3H48.67a5.84,5.84,0,0,0,1,3.33,3.22,3.22,0,0,0,2.81,1.25,3.6,3.6,0,0,0,2.83-1.18,3.91,3.91,0,0,0,.84-1.6h2.25a4.81,4.81,0,0,1-.59,1.67,6.11,6.11,0,0,1-1.12,1.51,5.35,5.35,0,0,1-2.56,1.37,8,8,0,0,1-1.85.2A5.66,5.66,0,0,1,48,161.63a7.19,7.19,0,0,1-1.75-5.17A7.88,7.88,0,0,1,48,151.14a5.83,5.83,0,0,1,4.62-2A6,6,0,0,1,55.39,149.78Zm.82,5.34a6,6,0,0,0-.64-2.38,3.29,3.29,0,0,0-3.11-1.65,3.42,3.42,0,0,0-2.62,1.14,4.26,4.26,0,0,0-1.12,2.89Z"/><path class="cls-1" d="M62.81,158.73a3.3,3.3,0,0,0,.58,1.76,3.73,3.73,0,0,0,3.06,1.1,4.53,4.53,0,0,0,2.28-.55,1.83,1.83,0,0,0,1-1.71,1.46,1.46,0,0,0-.79-1.33,9.6,9.6,0,0,0-2-.65l-1.84-.46a9.06,9.06,0,0,1-2.61-1A2.87,2.87,0,0,1,61,153.36a3.9,3.9,0,0,1,1.4-3.12,5.71,5.71,0,0,1,3.79-1.19q3.12,0,4.49,1.8a3.83,3.83,0,0,1,.84,2.46H69.36a2.56,2.56,0,0,0-.56-1.4A3.61,3.61,0,0,0,66,151a3.41,3.41,0,0,0-2,.49,1.54,1.54,0,0,0-.68,1.3,1.62,1.62,0,0,0,.89,1.42,5.57,5.57,0,0,0,1.53.56l1.54.36a12.18,12.18,0,0,1,3.36,1.16A3.05,3.05,0,0,1,72,159.06a4.19,4.19,0,0,1-1.4,3.14,6,6,0,0,1-4.25,1.32q-3.06,0-4.35-1.38a5.18,5.18,0,0,1-1.37-3.41Z"/><path class="cls-1" d="M81.68,144.29H84v7a6.68,6.68,0,0,1,1.46-1.44,4.89,4.89,0,0,1,2.76-.73c2,0,3.3.69,4,2.07a7.1,7.1,0,0,1,.57,3.14V163H90.41v-8.57a4.87,4.87,0,0,0-.38-2.2,2.44,2.44,0,0,0-2.34-1.11,3.89,3.89,0,0,0-2.57,1c-.77.66-1.16,1.89-1.16,3.7V163H81.68Z"/><path class="cls-1" d="M97.26,149.4l3.63,11.07,3.78-11.07h2.5L102.06,163H99.62l-5-13.6Z"/><path class="cls-1" d="M116.42,154.77a1.26,1.26,0,0,0,1.06-.66,2,2,0,0,0,.15-.88,1.87,1.87,0,0,0-.83-1.7,4.47,4.47,0,0,0-2.38-.53,3,3,0,0,0-2.53,1,3.26,3.26,0,0,0-.55,1.6h-2.13a4,4,0,0,1,1.63-3.51,6.68,6.68,0,0,1,3.63-1,7.41,7.41,0,0,1,3.9.92,3.09,3.09,0,0,1,1.48,2.84v7.83a1,1,0,0,0,.15.58c.09.14.3.21.61.21l.35,0,.4-.06v1.69a5.75,5.75,0,0,1-.81.19,5.17,5.17,0,0,1-.76,0,1.89,1.89,0,0,1-1.72-.84,3.35,3.35,0,0,1-.39-1.25,5.68,5.68,0,0,1-2,1.58,6.18,6.18,0,0,1-2.88.68,4.31,4.31,0,0,1-3.09-1.15,3.81,3.81,0,0,1-1.2-2.87,3.68,3.68,0,0,1,1.18-2.93,5.58,5.58,0,0,1,3.1-1.28Zm-4.81,6.17a2.7,2.7,0,0,0,1.72.57,5.21,5.21,0,0,0,2.33-.55,3.15,3.15,0,0,0,1.91-3v-1.84a3.9,3.9,0,0,1-1.08.45,10.45,10.45,0,0,1-1.29.25l-1.39.18a5.22,5.22,0,0,0-1.86.52,2,2,0,0,0-1.06,1.9A1.88,1.88,0,0,0,111.61,160.94Z"/><path class="cls-1" d="M10.54,180.6l3.63,11.07L18,180.6h2.5l-5.12,13.6H12.9l-5-13.6Z"/><path class="cls-1" d="M29.7,186a1.23,1.23,0,0,0,1.05-.66,2.25,2.25,0,0,0-.67-2.58,4.49,4.49,0,0,0-2.38-.53,3,3,0,0,0-2.53,1,3.26,3.26,0,0,0-.55,1.6H22.49a4,4,0,0,1,1.63-3.51,6.63,6.63,0,0,1,3.63-1,7.41,7.41,0,0,1,3.9.92A3.11,3.11,0,0,1,33.13,184v7.83a1.11,1.11,0,0,0,.14.58.73.73,0,0,0,.62.21l.34,0,.41-.06v1.69a6.09,6.09,0,0,1-.81.19,5.17,5.17,0,0,1-.76,0,1.89,1.89,0,0,1-1.72-.84A3.17,3.17,0,0,1,31,192.4,5.77,5.77,0,0,1,29,194a6.18,6.18,0,0,1-2.88.68A4.31,4.31,0,0,1,23,193.51a3.81,3.81,0,0,1-1.2-2.87A3.68,3.68,0,0,1,23,187.71a5.65,5.65,0,0,1,3.1-1.28Zm-4.81,6.17a2.67,2.67,0,0,0,1.71.57,5.22,5.22,0,0,0,2.34-.55,3.14,3.14,0,0,0,1.9-3v-1.84a3.83,3.83,0,0,1-1.07.45,10.25,10.25,0,0,1-1.3.25l-1.38.18a5.22,5.22,0,0,0-1.86.52,2,2,0,0,0-1.06,1.9A1.86,1.86,0,0,0,24.89,192.14Zm3.22-18.58a2.65,2.65,0,1,1,0,5.3,2.65,2.65,0,0,1,0-5.3Zm0,4.25a1.55,1.55,0,0,0,1.13-.47,1.59,1.59,0,0,0,0-2.26,1.55,1.55,0,0,0-1.13-.47,1.6,1.6,0,0,0,0,3.2Z"/><path class="cls-1" d="M36.94,180.6h2.17V183a5.16,5.16,0,0,1,1.31-1.67,3.4,3.4,0,0,1,2.4-1H43l.52.05v2.41l-.37-.05H42.8a3.26,3.26,0,0,0-2.65,1.11,3.86,3.86,0,0,0-.93,2.56v7.82H36.94Z"/><path class="cls-1" d="M53.93,181A5.13,5.13,0,0,1,56,182.74a6.22,6.22,0,0,1,.91,2.4,16.12,16.12,0,0,1,.2,3H47.21a5.84,5.84,0,0,0,1,3.33A3.22,3.22,0,0,0,51,192.71a3.6,3.6,0,0,0,2.83-1.18,3.91,3.91,0,0,0,.84-1.6h2.25a4.81,4.81,0,0,1-.59,1.67,6.11,6.11,0,0,1-1.12,1.51,5.27,5.27,0,0,1-2.56,1.37,8,8,0,0,1-1.85.2,5.66,5.66,0,0,1-4.28-1.85,7.19,7.19,0,0,1-1.75-5.17,7.9,7.9,0,0,1,1.76-5.32,5.83,5.83,0,0,1,4.62-2A6,6,0,0,1,53.93,181Zm.82,5.34a6,6,0,0,0-.64-2.38A3.29,3.29,0,0,0,51,182.29a3.42,3.42,0,0,0-2.62,1.14,4.28,4.28,0,0,0-1.12,2.89Z"/><path class="cls-1" d="M67.17,175.55h2.19v10.83l5.86-5.78h2.92l-5.23,5.06,5.52,8.54H75.51l-4.27-6.92-1.88,1.82v5.1H67.17Z"/><path class="cls-1" d="M82.5,180.6v9a4,4,0,0,0,.32,1.7A2.25,2.25,0,0,0,85,192.55a3.13,3.13,0,0,0,3.16-2.13,8.6,8.6,0,0,0,.46-3.14V180.6h2.28v13.6H88.79l0-2a4.48,4.48,0,0,1-1.08,1.31,4.74,4.74,0,0,1-3.12,1.07c-1.9,0-3.2-.65-3.88-1.94a5.84,5.84,0,0,1-.56-2.78V180.6Z"/><path class="cls-1" d="M94.68,180.6h2.17v1.93a6.13,6.13,0,0,1,2-1.71,5.41,5.41,0,0,1,2.4-.52c1.93,0,3.23.67,3.91,2a7.18,7.18,0,0,1,.56,3.16v8.72h-2.32v-8.57a4.75,4.75,0,0,0-.37-2,2.25,2.25,0,0,0-2.21-1.27,4.43,4.43,0,0,0-1.33.17,3.42,3.42,0,0,0-1.65,1.12,3.34,3.34,0,0,0-.75,1.39,9.65,9.65,0,0,0-.17,2.05v7.12H94.68Z"/><path class="cls-1" d="M116.61,181a6.36,6.36,0,0,1,1.37,1.33v-6.86h2.2V194.2h-2.06v-1.89a4.9,4.9,0,0,1-1.88,1.81,5.31,5.31,0,0,1-2.49.56,5,5,0,0,1-3.92-1.91,7.45,7.45,0,0,1-1.66-5.08,8.79,8.79,0,0,1,1.51-5.15,5,5,0,0,1,4.32-2.18A4.82,4.82,0,0,1,116.61,181Zm-5.11,10.2a3.24,3.24,0,0,0,3,1.47,3.13,3.13,0,0,0,2.6-1.37,6.51,6.51,0,0,0,1-3.91,5.83,5.83,0,0,0-1-3.82,3.26,3.26,0,0,0-2.58-1.24,3.39,3.39,0,0,0-2.79,1.33,6.06,6.06,0,0,0-1.07,3.88A6.83,6.83,0,0,0,111.5,191.22Z"/><path class="cls-1" d="M132,181a5.13,5.13,0,0,1,2.06,1.76,6.07,6.07,0,0,1,.91,2.4,16.12,16.12,0,0,1,.2,3h-9.89a5.92,5.92,0,0,0,1,3.33,3.23,3.23,0,0,0,2.81,1.25,3.6,3.6,0,0,0,2.83-1.18,3.91,3.91,0,0,0,.84-1.6H135a4.81,4.81,0,0,1-.59,1.67,5.87,5.87,0,0,1-1.12,1.51,5.27,5.27,0,0,1-2.56,1.37,7.94,7.94,0,0,1-1.85.2,5.66,5.66,0,0,1-4.28-1.85,7.24,7.24,0,0,1-1.75-5.17,7.86,7.86,0,0,1,1.77-5.32,5.81,5.81,0,0,1,4.62-2A6,6,0,0,1,132,181Zm.82,5.34a5.87,5.87,0,0,0-.64-2.38,3.29,3.29,0,0,0-3.11-1.65,3.44,3.44,0,0,0-2.62,1.14,4.33,4.33,0,0,0-1.12,2.89Z"/><path class="cls-1" d="M138.12,180.6h2.17V183a5.16,5.16,0,0,1,1.31-1.67,3.4,3.4,0,0,1,2.4-1h.21l.52.05v2.41l-.37-.05H144a3.26,3.26,0,0,0-2.65,1.11,3.86,3.86,0,0,0-.93,2.56v7.82h-2.28Z"/><path class="cls-1" d="M16.57,221.13a3.3,3.3,0,0,0,.59,1.76,3.71,3.71,0,0,0,3.06,1.1,4.58,4.58,0,0,0,2.28-.55,1.84,1.84,0,0,0,1-1.71,1.44,1.44,0,0,0-.79-1.33,9.23,9.23,0,0,0-2-.65l-1.85-.46a8.86,8.86,0,0,1-2.6-1,2.88,2.88,0,0,1-1.5-2.57,3.9,3.9,0,0,1,1.41-3.12A5.7,5.7,0,0,1,20,211.45a5.31,5.31,0,0,1,4.49,1.8,3.87,3.87,0,0,1,.83,2.46H23.13a2.64,2.64,0,0,0-.56-1.4,3.63,3.63,0,0,0-2.8-.89,3.43,3.43,0,0,0-2,.49,1.54,1.54,0,0,0-.68,1.3,1.61,1.61,0,0,0,.9,1.42,5.69,5.69,0,0,0,1.52.56l1.54.36a12.16,12.16,0,0,1,3.37,1.16,3,3,0,0,1,1.33,2.75,4.18,4.18,0,0,1-1.39,3.14,6,6,0,0,1-4.25,1.32q-3.08,0-4.35-1.38a5.13,5.13,0,0,1-1.37-3.41Z"/><path class="cls-1" d="M28.22,206.75h2.32v2.59H28.22Zm0,5.12h2.32V225.4H28.22Z"/><path class="cls-1" d="M42.39,212.18a5.13,5.13,0,0,1,2.06,1.76,6.24,6.24,0,0,1,.91,2.39,16.32,16.32,0,0,1,.2,3H35.67a5.84,5.84,0,0,0,1,3.33,3.22,3.22,0,0,0,2.81,1.25,3.6,3.6,0,0,0,2.83-1.18,3.91,3.91,0,0,0,.84-1.6h2.25a4.81,4.81,0,0,1-.59,1.67,6.11,6.11,0,0,1-1.12,1.51,5.35,5.35,0,0,1-2.56,1.37,8,8,0,0,1-1.85.2A5.66,5.66,0,0,1,35,224a7.19,7.19,0,0,1-1.75-5.17A7.88,7.88,0,0,1,35,213.54a5.83,5.83,0,0,1,4.62-2A6,6,0,0,1,42.39,212.18Zm.82,5.34a6,6,0,0,0-.64-2.38,3.29,3.29,0,0,0-3.11-1.65,3.42,3.42,0,0,0-2.62,1.14,4.26,4.26,0,0,0-1.12,2.89Z"/><path class="cls-1" d="M48.52,211.8h2.17v2.35a5.1,5.1,0,0,1,1.3-1.67,3.43,3.43,0,0,1,2.4-1h.22l.52.05V214l-.37-.05h-.38A3.26,3.26,0,0,0,51.73,215a3.86,3.86,0,0,0-.93,2.56v7.82H48.52Z"/><path class="cls-1" d="M74.19,213.16a6.87,6.87,0,0,1,1.8,5.15,8.87,8.87,0,0,1-1.59,5.43,5.73,5.73,0,0,1-4.93,2.14A5.54,5.54,0,0,1,65.05,224a7.51,7.51,0,0,1-1.64-5.1,8.13,8.13,0,0,1,1.72-5.45,5.81,5.81,0,0,1,4.64-2A6.11,6.11,0,0,1,74.19,213.16Zm-1.42,9a8.74,8.74,0,0,0,.83-3.83,6.85,6.85,0,0,0-.6-3.09,3.39,3.39,0,0,0-3.29-1.88,3.23,3.23,0,0,0-3,1.6,7.45,7.45,0,0,0-.94,3.85,6.5,6.5,0,0,0,.94,3.62,3.3,3.3,0,0,0,3,1.44A3.12,3.12,0,0,0,72.77,222.2Z"/><path class="cls-1" d="M78.79,211.8h2.26v1.93a8,8,0,0,1,1.48-1.46,4.44,4.44,0,0,1,2.56-.77,4,4,0,0,1,2.62.8,4.09,4.09,0,0,1,1,1.34A5.16,5.16,0,0,1,90.51,212a5,5,0,0,1,2.31-.52,3.77,3.77,0,0,1,3.73,2,6.41,6.41,0,0,1,.54,2.87v9.05H94.71V216a2.17,2.17,0,0,0-.68-1.86,2.66,2.66,0,0,0-1.65-.51,3.3,3.3,0,0,0-2.32.9,4,4,0,0,0-1,3v7.91H86.77v-8.87a4.59,4.59,0,0,0-.33-2,2,2,0,0,0-2-1,3.35,3.35,0,0,0-2.35,1c-.71.67-1.06,1.88-1.06,3.63v7.21H78.79Z"/><path class="cls-1" d="M117.53,213.16a6.87,6.87,0,0,1,1.8,5.15,8.87,8.87,0,0,1-1.59,5.43,5.73,5.73,0,0,1-4.93,2.14,5.55,5.55,0,0,1-4.42-1.89,7.51,7.51,0,0,1-1.64-5.1,8.08,8.08,0,0,1,1.73-5.45,5.78,5.78,0,0,1,4.64-2A6.09,6.09,0,0,1,117.53,213.16Zm-1.42,9a8.61,8.61,0,0,0,.83-3.83,6.85,6.85,0,0,0-.6-3.09,3.39,3.39,0,0,0-3.29-1.88,3.25,3.25,0,0,0-3,1.6,7.45,7.45,0,0,0-.94,3.85,6.5,6.5,0,0,0,.94,3.62,3.31,3.31,0,0,0,3,1.44A3.12,3.12,0,0,0,116.11,222.2Z"/><path class="cls-1" d="M123.49,221.13a3.3,3.3,0,0,0,.59,1.76,3.71,3.71,0,0,0,3.06,1.1,4.58,4.58,0,0,0,2.28-.55,1.84,1.84,0,0,0,1-1.71,1.44,1.44,0,0,0-.79-1.33,9.23,9.23,0,0,0-2-.65l-1.85-.46a8.86,8.86,0,0,1-2.6-1,2.88,2.88,0,0,1-1.5-2.57,3.9,3.9,0,0,1,1.41-3.12,5.7,5.7,0,0,1,3.79-1.19,5.31,5.31,0,0,1,4.49,1.8,3.87,3.87,0,0,1,.83,2.46H130a2.55,2.55,0,0,0-.55-1.4,3.63,3.63,0,0,0-2.8-.89,3.43,3.43,0,0,0-2,.49,1.54,1.54,0,0,0-.68,1.3,1.61,1.61,0,0,0,.9,1.42,5.69,5.69,0,0,0,1.52.56l1.54.36a12.16,12.16,0,0,1,3.37,1.16,3,3,0,0,1,1.33,2.75,4.18,4.18,0,0,1-1.39,3.14,6,6,0,0,1-4.25,1.32q-3.08,0-4.35-1.38a5.13,5.13,0,0,1-1.37-3.41Z"/><path class="cls-1" d="M136.49,221.13a3.3,3.3,0,0,0,.59,1.76,3.71,3.71,0,0,0,3.06,1.1,4.58,4.58,0,0,0,2.28-.55,1.84,1.84,0,0,0,1-1.71,1.44,1.44,0,0,0-.79-1.33,9.23,9.23,0,0,0-2-.65l-1.85-.46a8.86,8.86,0,0,1-2.6-1,2.88,2.88,0,0,1-1.5-2.57,3.9,3.9,0,0,1,1.41-3.12,5.7,5.7,0,0,1,3.79-1.19,5.31,5.31,0,0,1,4.49,1.8,3.87,3.87,0,0,1,.83,2.46H143a2.55,2.55,0,0,0-.55-1.4,3.63,3.63,0,0,0-2.8-.89,3.43,3.43,0,0,0-2,.49,1.54,1.54,0,0,0-.68,1.3,1.61,1.61,0,0,0,.9,1.42,5.69,5.69,0,0,0,1.52.56l1.54.36a12.16,12.16,0,0,1,3.37,1.16,3,3,0,0,1,1.33,2.75,4.18,4.18,0,0,1-1.39,3.14,6,6,0,0,1-4.25,1.32q-3.08,0-4.35-1.38a5.13,5.13,0,0,1-1.37-3.41Z"/></svg>