<?xml version="1.0" encoding="utf-8"?>
<!-- Generator: Adobe Illustrator 21.1.0, SVG Export Plug-In . SVG Version: 6.00 Build 0)  -->
<svg version="1.1" id="Lager_1" xmlns="http://www.w3.org/2000/svg" xmlns:xlink="http://www.w3.org/1999/xlink" x="0px" y="0px"
	 viewBox="0 0 529.5 167.4" style="enable-background:new 0 0 529.5 167.4;" xml:space="preserve">
<style type="text/css">
	.st0{fill:none;}
	.st1{fill:#D90000;}
</style>
<title>Pictogram byggonline_ny version</title>
<g>
	<rect x="25" y="23.3" class="st0" width="490.3" height="120.8"/>
	<path class="st1" d="M61,131.3c-6.6-2.1-9.8-6.6-9.8-13.4c-6.9,0-11.3-3.2-13.4-9.8c0,0.2-0.1,0.3-0.1,0.5c-1.1,5-2.1,10-3.2,15
		c-0.1,0.3,0,0.6,0.3,0.8c3.3,3.3,6.6,6.6,9.8,9.9c0.3,0.3,0.8,0.5,1.2,0.3c3.5-0.8,7-1.5,10.5-2.3L61,131.3 M100.8,45.9l22.4,22.3
		c0.1-0.1,0.2-0.2,0.3-0.3l6.6-6.8c3.4-3.3,3.5-8.7,0.2-12.2c-0.1-0.1-0.2-0.2-0.3-0.3l-9.8-9.8c-3.3-3.4-8.7-3.5-12.1-0.3
		c-0.1,0.1-0.1,0.1-0.2,0.2l-5.9,5.8L100.8,45.9 M96.6,50l-0.4,0.4l-38,37.4c-4.3,4.2-8.6,8.4-12.8,12.6c-2.7,2.6-2.7,6.9,0,9.6
		c2.6,2.7,6.9,2.7,9.6,0c0.1-0.1,0.1-0.1,0.2-0.2l50.3-50.3c0.1-0.1,0.3-0.3,0.3-0.4L96.6,50 M25,140.4c2.5-11.6,5-23.2,7.5-34.8
		c0.1-0.4,0.3-0.7,0.5-1C56.7,81.3,80.3,58,104,34.8c5.5-5.6,14.6-5.7,20.2-0.2c0.1,0.1,0.2,0.2,0.2,0.2c3.2,3.2,6.5,6.5,9.7,9.7
		c5.7,5.4,6,14.5,0.6,20.2c-0.2,0.2-0.3,0.3-0.5,0.5C111,88.8,87.7,112.4,64.5,136c-0.2,0.2-0.5,0.4-0.8,0.5
		c-12.3,2.6-22.8,4.8-35.1,7.5c-1.7,0.3-3.3-0.8-3.6-2.5C24.9,141.2,24.9,140.8,25,140.4"/>
	<path class="st1" d="M218.7,32.7c0-1.1,0.3-1.5,1.5-1.5h66c1.1,0,1.5,0.3,1.5,1.4v104.5c0,1.1-0.4,1.4-1.4,1.4h-66.1
		c-1.1,0-1.4-0.4-1.4-1.4L218.7,32.7z M293.1,32.8c0-0.7-0.1-1.5-0.2-2.2c-0.8-3-3.5-5.1-6.6-4.9h-66.1c-3.6-0.2-6.8,2.6-7,6.2
		c0,0.3,0,0.5,0,0.8v104.6c-0.1,3.6,2.7,6.7,6.3,6.8c0.1,0,0.3,0,0.4,0h66.4c0.6,0,1.2-0.1,1.8-0.2c3-0.7,5.1-3.5,5-6.7V87.6
		C293.1,69.3,293.1,51.1,293.1,32.8"/>
	<rect x="224" y="42.8" class="st1" width="58.2" height="80.7"/>
	<rect x="25" y="23.3" class="st0" width="490.3" height="120.8"/>
	<g>
		<path class="st1" d="M253.2,126.8c-2.3,0-4.2,1.9-4.3,4.2l0,0l0,0c0,2.3,1.9,4.2,4.3,4.2c2.3,0,4.2-1.9,4.2-4.3
			C257.4,128.7,255.5,126.8,253.2,126.8"/>
		<path class="st1" d="M253.1,39.4c1.3,0,2.3-1,2.3-2.3l0,0c0-1.3-1-2.3-2.3-2.3s-2.3,1-2.4,2.3l0,0
			C250.9,38.3,251.9,39.3,253.1,39.4"/>
		<path class="st1" d="M456,39.7c-2.2-1.6-4.5-3.2-6.7-4.8c-0.2-0.2-0.5-0.3-0.8-0.3s-0.6,0.1-0.8,0.3
			c-12.9,9.2-25.8,18.5-38.8,27.7l-9.1,6.5l-8.3,5.9c-0.4,0.3-0.8,0.4-1.3,0.5c-0.9,0-1.7-0.7-1.8-1.7c0-0.1,0-0.1,0-0.2l0,0
			c0-0.7,0.4-1.3,1-1.7c3.7-2.6,7.4-5.2,11.1-7.9l46.6-33.2c0.8-0.7,2-0.7,2.8,0L502,67.7l1.6,1.1c1.3,0.9,2.6,1.9,4,2.8
			c0.7,0.4,1.1,1.3,0.9,2.1c-0.1,0.8-0.7,1.4-1.5,1.6c-0.1,0-0.3,0.1-0.4,0.1c-0.5,0-0.9-0.2-1.3-0.5l-9.9-7.1L456,39.7z M437.3,97
			c0-0.2,0-0.4,0-0.6c0.2-0.1,0.4-0.1,0.6-0.1h20.9c0.2,0,0.4,0,0.6,0l0,0c0.1,0.2,0.1,0.4,0,0.6v40.4h-22.2V97H437.3z M466.1,96.8
			c0.1-3.2-2-6-5.1-6.8c-0.6-0.2-1.3-0.2-1.9-0.2h-21.4c-3.7-0.1-6.9,2.8-7,6.5c0,0.2,0,0.3,0,0.5c0,8.5,0,22,0,30.5v10.1h-29.3
			v-7.6c0-17.8,0-35.7,0-53.5c0-0.3,0.1-0.6,0.3-0.7c15.9-11.3,31.5-22.4,46.4-33.1c0.2-0.1,0.3-0.1,0.3-0.1c0.1,0,0.2,0.1,0.3,0.2
			c15.4,11,31,22.1,46.4,33c0.3,0.1,0.4,0.4,0.4,0.8c0,17.7,0,35.5,0,53.2v7.8h-29.4v-9.6C466.1,119.1,466.1,105.5,466.1,96.8
			 M426.6,31.6v0.9c0,1.4,0,2.9,0,4.3c0,0.1,0,0.2-0.1,0.3c-3.4,2.4-6.8,4.9-10.1,7.3l-0.8,0.6V31.8c0-0.1,0-0.2,0-0.4
			c0-0.2,0-0.3,0-0.5c0.2,0,0.4,0,0.5,0h9.8c0.2,0,0.4,0,0.6,0.1C426.5,31,426.6,31.1,426.6,31.6 M511.4,66.3l-5-3.6l-2.7-1.9
			l-39.2-28l-10.8-7.7c-1.5-1.1-3.4-1.8-5.3-1.8s-3.7,0.6-5.2,1.8c-2.4,1.8-4.9,3.5-7.3,5.2l-3,2.1v-0.1c0.1-0.8,0-1.6-0.1-2.4
			c-0.6-3.4-3.6-5.8-7-5.6h-10c-0.6,0-1.2,0.1-1.8,0.2c-3.2,0.7-5.4,3.6-5.3,6.9c0,6.3,0,12.1,0,17.8c0,0.3-0.1,0.6-0.4,0.7
			c-7.6,5.4-15.2,10.9-22.8,16.3c-3.9,2.5-5,7.7-2.5,11.7c0.3,0.4,0.6,0.8,0.9,1.1c1.6,1.8,3.9,2.9,6.4,2.9c0.8,0,1.5-0.1,2.3-0.3
			c0.8-0.2,1.5-0.6,2.2-0.9l0.1-0.1v5.9c0,17.9,0,35.7,0,53.6v0.1c0,0.4,0,0.9,0.1,1.3c0.4,1.7,1.6,2.6,3.6,2.6h100.2
			c1.8,0.1,3.3-1.4,3.4-3.2c0-0.1,0-0.1,0-0.2c0-0.2,0-0.4,0-0.7V80.6c0.4,0.2,0.8,0.4,1.2,0.6c4,1.8,8.7,0.2,10.8-3.7
			C516.3,73.7,515.1,68.8,511.4,66.3"/>
		<path class="st1" d="M443.7,112.8c-2.4,0-4.3,1.9-4.3,4.3s1.9,4.3,4.3,4.3h0.1c2.3,0,4.2-1.9,4.3-4.2
			C448,114.8,446.1,112.8,443.7,112.8"/>
	</g>
	<path class="st1" d="M171.2,94.4v13.8h-5.8V94.4H151v-5.3h14.5V75.4h5.8v13.8h14.5v5.3h-14.6V94.4z"/>
	<path class="st1" d="M320,88.2v-5.1h34.7v5.1H320z M320,100.4v-5h34.7v5H320z"/>
</g>
</svg>
