<svg id="Layer_1" data-name="Layer 1" xmlns="http://www.w3.org/2000/svg" viewBox="0 0 980 240"><defs><style>.cls-1{fill:#d80201;}.cls-2{fill:#fff;}</style></defs><title>text</title><rect class="cls-1" x="50.65" y="104.54" width="186.99" height="30.19" rx="15.09"/><path class="cls-2" d="M83.62,125.5H79.68V113.76h2.9a4.66,4.66,0,0,1,2.87.7,3.13,3.13,0,0,1,1.06,2.42,2.46,2.46,0,0,1-1.29,2.36,2.66,2.66,0,0,1,1.54.74,3.15,3.15,0,0,1,.84,2.2C87.6,124.52,85.73,125.5,83.62,125.5Zm-1-9.87H82v3h.65c1,0,1.78-.41,1.78-1.52S83.66,115.63,82.64,115.63ZM83,120.4H82v3.26h1c1.13,0,2.29-.27,2.29-1.64S84.12,120.4,83,120.4Z"/><path class="cls-2" d="M89.71,125.5V113.76h6.5v2H92v2.61h4v2H92v3.16h4.21v2Z"/><path class="cls-2" d="M101.69,125.79a4.57,4.57,0,0,1-4-2.24l1.48-1.43a2.68,2.68,0,0,0,2.46,1.57,1.66,1.66,0,0,0,1.81-1.65c0-2.42-5.15-1.27-5.15-5.06a3.44,3.44,0,0,1,3.66-3.41,5.11,5.11,0,0,1,3.43,1.3l-1.2,1.57a2.37,2.37,0,0,0-1.9-1c-.75,0-1.63.47-1.63,1.32,0,2,5.15,1,5.15,5.1A3.79,3.79,0,0,1,101.69,125.79Z"/><path class="cls-2" d="M111.48,115.75v9.75h-2.29v-9.75h-2.62v-2h7.55v2Z"/><path class="cls-2" d="M123,125.5,122,123h-4.79l-1.08,2.48h-2.43l5.09-12h1.73l5,12Zm-5.39-13a1.29,1.29,0,0,1-1.27-1.26,1.27,1.27,0,1,1,1.27,1.26Zm2,4.48-1.71,4.22h3.36Zm1.92-4.48a1.28,1.28,0,0,1-1.27-1.26,1.27,1.27,0,1,1,1.27,1.26Z"/><path class="cls-2" d="M126.8,125.5V113.76h2.29v9.75h3.61v2Z"/><path class="cls-2" d="M134.28,125.5V113.76h2.29v9.75h3.61v2Z"/><path class="cls-2" d="M153.42,125.5v-5.22h-5v5.22h-2.29V113.76h2.29v4.54h5v-4.54h2.29V125.5Z"/><path class="cls-2" d="M166.37,125.5l-1-2.48h-4.79l-1.07,2.48h-2.43l5.09-12h1.72l5,12Zm-5.39-13a1.28,1.28,0,0,1-1.27-1.26,1.27,1.27,0,1,1,1.27,1.26Zm2,4.48-1.7,4.22h3.36Zm1.92-4.48a1.28,1.28,0,0,1-1.26-1.26,1.27,1.27,0,1,1,1.26,1.26Z"/><path class="cls-2" d="M176,125.5l-3.17-4.71h-.28v4.71h-2.29V113.76h3.39a4.79,4.79,0,0,1,3,.85,3.42,3.42,0,0,1,1.16,2.64,3.87,3.87,0,0,1-.67,2.14,3,3,0,0,1-2,1.17l3.7,4.94Zm-2.77-9.87h-.68v3.54h.65c1.18,0,2.25-.43,2.25-1.78S174.36,115.63,173.18,115.63Z"/><polygon class="cls-2" points="202.85 121.11 190.48 121.11 190.48 117.96 202.85 117.96 202.85 113.19 211.65 119.53 202.85 125.61 202.85 121.11"/></svg>