<svg id="Layer_1" data-name="Layer 1" xmlns="http://www.w3.org/2000/svg" viewBox="0 0 980 120"><defs><style>.cls-1{fill:#d4ac76;}</style></defs><title>text</title><path class="cls-1" d="M355.6,90V78.39h3.1a5.83,5.83,0,0,1,4.06,9.94A5.67,5.67,0,0,1,358.64,90Zm3.17-10h-1.55v8.51h1.59a3.76,3.76,0,0,0,2.86-1.25,4.28,4.28,0,0,0,1.16-3,4.14,4.14,0,0,0-1.2-3A3.88,3.88,0,0,0,358.77,79.93Z"/><path class="cls-1" d="M368.44,90V78.39h1.62V90Z"/><path class="cls-1" d="M373.28,79.93V78.39h9.39v1.54h-3.88V90h-1.62v-10Z"/><path class="cls-1" d="M385,79.93V78.39h9.39v1.54h-3.89V90h-1.62v-10Z"/><path class="cls-1" d="M404.15,90V78.39h1.13l6.28,8v-8h1.62V90h-.9l-6.51-8.28V90Z"/><path class="cls-1" d="M424.06,78.39h1.87l-3.85,6.93V90h-1.62v-4.6l-3.9-7h1.94l2.8,5.14Z"/><path class="cls-1" d="M426.61,90l4.65-11.59h1.47L437.29,90H435.5l-.7-1.78h-5.68L428.4,90ZM432,81.05l-2.25,5.6h4.45Z"/><path class="cls-1" d="M454.24,90V85H448.6v5H447V78.39h1.62v5h5.64v-5h1.62V90Z"/><path class="cls-1" d="M467.09,84.9h-4.77v3.54h5.1V90H460.7V78.39h6.63v1.54h-5v3.42h4.77Z"/><path class="cls-1" d="M471.44,90V78.39h1.67l3.73,6.18,3.8-6.18h1.59V90h-1.62V81.42l-.06,0-3.73,6-3.66-5.91h-.1V90Z"/><path class="cls-1" d="M496.51,90,492,78.39h1.82l3.48,8.91,3.48-8.91h1.78L498,90Z"/><path class="cls-1" d="M503.54,90l4.66-11.59h1.46L514.23,90h-1.8l-.7-1.78h-5.68L505.33,90Zm4.19-12.82a.76.76,0,0,1-.58.25.72.72,0,0,1-.57-.25.95.95,0,0,1,0-1.26.73.73,0,0,1,.57-.26.77.77,0,0,1,.58.26,1,1,0,0,1,0,1.26Zm1.2,3.89-2.26,5.6h4.46Zm2-3.89a.79.79,0,0,1-1.15,0,.95.95,0,0,1,0-1.26.77.77,0,0,1,1.15,0,1,1,0,0,1,0,1.26Z"/><path class="cls-1" d="M517.45,90V78.39h1.13l6.27,8v-8h1.62V90h-.89l-6.52-8.28V90Z"/><path class="cls-1" d="M529.79,79.93V78.39h9.39v1.54h-3.89V90h-1.62v-10Z"/><path class="cls-1" d="M539.93,90l4.66-11.59h1.46L550.62,90h-1.8l-.7-1.78h-5.68L541.72,90Zm5.39-8.93-2.26,5.6h4.46Z"/><path class="cls-1" d="M553.84,90V78.39h4.3a3.59,3.59,0,0,1,2.61,1,3.58,3.58,0,0,1-2,6.17L562.07,90h-2l-3.33-4.42h-1.29V90Zm4.08-10h-2.46v4.19h2.45a2.32,2.32,0,0,0,1.64-.58,2,2,0,0,0,.63-1.52,1.93,1.93,0,0,0-.64-1.48A2.23,2.23,0,0,0,557.92,79.93Z"/><path class="cls-1" d="M572.14,90V78.39h4a3.62,3.62,0,0,1,2.69,1.08,3.74,3.74,0,0,1,1.08,2.76,3.63,3.63,0,0,1-1.11,2.71A3.74,3.74,0,0,1,576,86h-2.28v4Zm3.84-10h-2.23v4.55H576a2.31,2.31,0,0,0,1.6-3.9A2.2,2.2,0,0,0,576,79.93Z"/><path class="cls-1" d="M581.38,90,586,78.39h1.47L592.06,90h-1.79l-.7-1.78h-5.68L583.17,90Zm5.38-8.93-2.25,5.6H589Zm1.12-3.45a1.59,1.59,0,0,1-2.24,0,1.56,1.56,0,0,1-.46-1.12,1.58,1.58,0,1,1,3.15,0A1.55,1.55,0,0,1,587.88,77.6Zm-1.12-.47a.59.59,0,0,0,.44-.2.61.61,0,0,0,.19-.45.58.58,0,0,0-.19-.45.58.58,0,0,0-.44-.19.62.62,0,0,0-.46.19.61.61,0,0,0-.18.45.64.64,0,0,0,.18.45A.63.63,0,0,0,586.76,77.13Z"/><path class="cls-1" d="M601.75,90V78.39h3.1a5.84,5.84,0,0,1,4.06,9.94A5.68,5.68,0,0,1,604.79,90Zm3.16-10h-1.55v8.51H605a3.77,3.77,0,0,0,2.86-1.25,4.27,4.27,0,0,0,1.15-3,4.13,4.13,0,0,0-1.19-3A3.89,3.89,0,0,0,604.91,79.93Z"/><path class="cls-1" d="M614.59,90V78.39h1.62V90Z"/><path class="cls-1" d="M628.21,84.94V83.4h3.85v.81a6,6,0,0,1-6,6,5.66,5.66,0,0,1-4.23-1.74,6.24,6.24,0,0,1,0-8.56,5.69,5.69,0,0,1,4.23-1.73,6.28,6.28,0,0,1,2.44.48,6.18,6.18,0,0,1,2,1.34l-1.2,1.23a4.1,4.1,0,0,0-3.23-1.51A4,4,0,0,0,623,81a4.65,4.65,0,0,0,0,6.32,4,4,0,0,0,3.07,1.31,4.14,4.14,0,0,0,2.78-1,4.32,4.32,0,0,0,1.46-2.68Z"/></svg>