<svg id="Layer_1" data-name="Layer 1" xmlns="http://www.w3.org/2000/svg" viewBox="0 0 300 250"><defs><style>.cls-1{fill:#fff;}</style></defs><title>text</title><path class="cls-1" d="M61.28,144.74v1.76H51.84v-16h2v14.24Z"/><path class="cls-1" d="M71.24,143l1.71.35a4.82,4.82,0,0,1-1.82,2.51,5.31,5.31,0,0,1-3.2,1,5,5,0,0,1-3.93-1.7,7.46,7.46,0,0,1,.06-9.05A5,5,0,0,1,68,134.33a4.74,4.74,0,0,1,3.74,1.61,7.2,7.2,0,0,1,1.44,4.8h-8.6c0,1.79.38,3,1.13,3.62a3.64,3.64,0,0,0,2.38.94A3.25,3.25,0,0,0,71.24,143Zm-.1-3.6a5.36,5.36,0,0,0-.33-1.77,3,3,0,0,0-1-1.32,2.87,2.87,0,0,0-1.75-.54,3.12,3.12,0,0,0-2.32,1,4.08,4.08,0,0,0-1.08,2.65Z"/><path class="cls-1" d="M74.33,143.42l1.75-.36c.39,1.49,1.63,2.24,3.71,2.24a3.53,3.53,0,0,0,1.94-.51,1.65,1.65,0,0,0,.8-1.46c0-.92-.68-1.51-2-1.76L78,141.09a4.49,4.49,0,0,1-2.34-1.1,2.88,2.88,0,0,1-.86-2.17A3.13,3.13,0,0,1,76,135.33a4.82,4.82,0,0,1,3.19-1c2.57,0,4.15,1,4.76,3l-1.69.37a2.89,2.89,0,0,0-3-1.86,3.36,3.36,0,0,0-1.85.47,1.46,1.46,0,0,0-.72,1.29c0,.87.62,1.42,1.84,1.65l2.31.41c2.42.44,3.62,1.61,3.62,3.51a3.14,3.14,0,0,1-1.35,2.64,5.83,5.83,0,0,1-3.58,1Q75.32,146.82,74.33,143.42Z"/><path class="cls-1" d="M102.83,146.5h-1.91l-3.46-6.61-2.57,3v3.66H93.05v-16h1.84v10.25l5.5-6.09h2l-3.7,4.16Z"/><path class="cls-1" d="M113.79,146.5h-1.66v-2.27a4,4,0,0,1-3.77,2.59,3.59,3.59,0,0,1-2.85-1.19,5,5,0,0,1-1-3.4v-7.57h1.84v7.56a3.18,3.18,0,0,0,.73,2.42,2.37,2.37,0,0,0,1.61.66,2.77,2.77,0,0,0,1.61-.5,3.93,3.93,0,0,0,1.2-1.44,4.37,4.37,0,0,0,.48-2v-6.67h1.84Z"/><path class="cls-1" d="M126.8,146.5h-1.72v-7.61a3.07,3.07,0,0,0-.72-2.31,2.45,2.45,0,0,0-1.73-.67,3,3,0,0,0-2.36,1.13,4.41,4.41,0,0,0-1,3v6.5h-1.84V134.66h1.72v2.18a4.25,4.25,0,0,1,3.73-2.51,3.68,3.68,0,0,1,2.26.69,3.61,3.61,0,0,1,1.28,1.54,9.4,9.4,0,0,1,.34,3.09Z"/><path class="cls-1" d="M139.73,130.5v16h-1.67v-2a4,4,0,0,1-3.74,2.35,4.12,4.12,0,0,1-3.41-1.74,7,7,0,0,1-1.34-4.4,7.51,7.51,0,0,1,1.32-4.54,4.17,4.17,0,0,1,3.52-1.81,4.08,4.08,0,0,1,3.48,1.95V130.5Zm-1.84,8.73a3.38,3.38,0,0,0-.95-2.5,3.06,3.06,0,0,0-2.22-.93,2.68,2.68,0,0,0-2.25,1.21,5.78,5.78,0,0,0-.89,3.43,6.58,6.58,0,0,0,.82,3.62,2.53,2.53,0,0,0,2.23,1.24,3,3,0,0,0,2.27-1.08,3.62,3.62,0,0,0,1-2.53Z"/><path class="cls-1" d="M151.22,143l1.71.35a4.82,4.82,0,0,1-1.82,2.51,5.31,5.31,0,0,1-3.2,1,5,5,0,0,1-3.93-1.7,7.46,7.46,0,0,1,.06-9.05,5,5,0,0,1,3.91-1.74,4.74,4.74,0,0,1,3.74,1.61,7.2,7.2,0,0,1,1.44,4.8h-8.6c0,1.79.38,3,1.13,3.62a3.64,3.64,0,0,0,2.38.94A3.25,3.25,0,0,0,151.22,143Zm-.1-3.6a5.36,5.36,0,0,0-.33-1.77,3,3,0,0,0-1-1.32,2.87,2.87,0,0,0-1.75-.54,3.12,3.12,0,0,0-2.32,1,4.08,4.08,0,0,0-1.08,2.65Z"/><path class="cls-1" d="M165.18,146.5h-1.84v-7.19a8.18,8.18,0,0,0-.16-1.9,1.94,1.94,0,0,0-.75-1.09,2.14,2.14,0,0,0-1.36-.47,3,3,0,0,0-2.38,1.16,4.79,4.79,0,0,0-.95,3.11v6.38H155.9v-16h1.84v6.34a3.91,3.91,0,0,1,3.59-2.51,4.09,4.09,0,0,1,1.85.41,3,3,0,0,1,1.25,1.08,4,4,0,0,1,.59,1.32,10,10,0,0,1,.16,2.17Z"/><path class="cls-1" d="M170.76,130.5v2.05h-2V130.5Zm-.06,4.16V146.5h-1.84V134.66Z"/><path class="cls-1" d="M172.77,143.42l1.76-.36c.39,1.49,1.63,2.24,3.71,2.24a3.53,3.53,0,0,0,1.94-.51,1.65,1.65,0,0,0,.8-1.46c0-.92-.68-1.51-2-1.76l-2.5-.48a4.5,4.5,0,0,1-2.33-1.1,2.85,2.85,0,0,1-.87-2.17,3.14,3.14,0,0,1,1.19-2.49,4.82,4.82,0,0,1,3.19-1q3.85,0,4.75,3l-1.68.37a2.89,2.89,0,0,0-3-1.86,3.36,3.36,0,0,0-1.85.47,1.46,1.46,0,0,0-.72,1.29c0,.87.61,1.42,1.84,1.65l2.31.41q3.61.66,3.62,3.51a3.14,3.14,0,0,1-1.35,2.64,5.83,5.83,0,0,1-3.58,1C175.17,146.82,173.44,145.69,172.77,143.42Z"/><path class="cls-1" d="M190.87,145.24v1.45a12.42,12.42,0,0,1-1.69.13c-2.29,0-3.43-1.19-3.43-3.59V136.1h-2.1v-1.44h2.1l.08-3,1.71-.16v3.14h2.65v1.44h-2.65v7.44c0,1.22.63,1.83,1.9,1.83A8.61,8.61,0,0,0,190.87,145.24Z"/><path class="cls-1" d="M196.76,146.82A4.5,4.5,0,0,1,193,145a7.24,7.24,0,0,1-1.37-4.48,6.48,6.48,0,0,1,1.54-4.52,4.94,4.94,0,0,1,3.82-1.69,4.65,4.65,0,0,1,3.86,1.78,6.9,6.9,0,0,1,1.41,4.44,6.63,6.63,0,0,1-1.52,4.52A5,5,0,0,1,196.76,146.82Zm.14-1.52a2.94,2.94,0,0,0,2.36-1.16,5.67,5.67,0,0,0,1-3.61,5.23,5.23,0,0,0-1-3.57,3,3,0,0,0-2.33-1.11,3,3,0,0,0-2.32,1.12,5.46,5.46,0,0,0-.95,3.55,5.65,5.65,0,0,0,.95,3.67A3,3,0,0,0,196.9,145.3Z"/><path class="cls-1" d="M206.83,146.5H205V134.66h1.62v2.76a5.93,5.93,0,0,1,1.71-2.53,3.13,3.13,0,0,1,1.77-.58,7.17,7.17,0,0,1,.72,0v1.76h-.37a3.22,3.22,0,0,0-2.53,1.14,4.64,4.64,0,0,0-1.08,3Z"/><path class="cls-1" d="M214.8,130.5v2.05h-2V130.5Zm-.06,4.16V146.5H212.9V134.66Z"/><path class="cls-1" d="M226.22,143l1.71.35a4.82,4.82,0,0,1-1.82,2.51,5.31,5.31,0,0,1-3.2,1,5,5,0,0,1-3.93-1.7,7.46,7.46,0,0,1,.06-9.05,5,5,0,0,1,3.91-1.74,4.74,4.74,0,0,1,3.74,1.61,7.2,7.2,0,0,1,1.44,4.8h-8.6c0,1.79.38,3,1.13,3.62a3.64,3.64,0,0,0,2.38.94A3.25,3.25,0,0,0,226.22,143Zm-.1-3.6a5.36,5.36,0,0,0-.33-1.77,3,3,0,0,0-1-1.32,2.87,2.87,0,0,0-1.75-.54,3.12,3.12,0,0,0-2.32,1,4.08,4.08,0,0,0-1.08,2.65Z"/><path class="cls-1" d="M240.23,146.5H238.5v-7.61a3.07,3.07,0,0,0-.71-2.31,2.47,2.47,0,0,0-1.73-.67,3,3,0,0,0-2.37,1.13,4.46,4.46,0,0,0-.95,3v6.5H230.9V134.66h1.71v2.18a4.27,4.27,0,0,1,3.74-2.51,3.67,3.67,0,0,1,2.25.69,3.54,3.54,0,0,1,1.28,1.54,9.33,9.33,0,0,1,.35,3.09Z"/><path class="cls-1" d="M63.61,175.29H61.67L53.4,161.35l0,1.06c0,.39,0,.73,0,1v11.88H51.84v-16h2.51l7.73,13,0-1.11c0-.43,0-.82,0-1.16V159.3h1.58Z"/><path class="cls-1" d="M71.69,175.62a4.49,4.49,0,0,1-3.8-1.8,7.24,7.24,0,0,1-1.37-4.48,6.44,6.44,0,0,1,1.54-4.52,4.92,4.92,0,0,1,3.82-1.69,4.65,4.65,0,0,1,3.86,1.78,6.9,6.9,0,0,1,1.41,4.44,6.68,6.68,0,0,1-1.52,4.52A5,5,0,0,1,71.69,175.62Zm.14-1.52a3,3,0,0,0,2.36-1.16,5.67,5.67,0,0,0,.94-3.61,5.29,5.29,0,0,0-1-3.57,3.05,3.05,0,0,0-2.33-1.11,2.94,2.94,0,0,0-2.32,1.12,5.4,5.4,0,0,0-.95,3.55,5.59,5.59,0,0,0,.95,3.67A3,3,0,0,0,71.83,174.1Z"/><path class="cls-1" d="M81.76,175.29H79.92V163.46h1.61v2.76a5.93,5.93,0,0,1,1.72-2.53,3.08,3.08,0,0,1,1.76-.58c.19,0,.43,0,.73,0v1.76h-.38a3.25,3.25,0,0,0-2.53,1.14,4.58,4.58,0,0,0-1.07,3Z"/><path class="cls-1" d="M86.37,172.22l1.76-.36c.39,1.49,1.63,2.24,3.7,2.24a3.46,3.46,0,0,0,2-.52,1.63,1.63,0,0,0,.8-1.45c0-.92-.68-1.51-2-1.76l-2.5-.48a4.5,4.5,0,0,1-2.33-1.1,2.85,2.85,0,0,1-.87-2.17A3.14,3.14,0,0,1,88,164.13a4.75,4.75,0,0,1,3.18-1q3.86,0,4.76,3l-1.69.37a2.88,2.88,0,0,0-3-1.86,3.36,3.36,0,0,0-1.85.47,1.45,1.45,0,0,0-.72,1.29c0,.87.61,1.42,1.84,1.65l2.31.41q3.61.66,3.62,3.51a3.14,3.14,0,0,1-1.35,2.64,5.85,5.85,0,0,1-3.58,1C88.77,175.62,87,174.49,86.37,172.22Z"/><path class="cls-1" d="M108.87,175.29H107l-3.46-6.6-2.57,2.95v3.65H99.1v-16h1.84v10.25l5.5-6.09h2l-3.69,4.16Z"/><path class="cls-1" d="M128.71,175.29h-2v-7.61h-7.42v7.61h-2v-16h2v6.62h7.42V159.3h2Z"/><path class="cls-1" d="M140.67,163.46l-4.75,13.22c-.68,1.9-1.78,2.86-3.29,2.86a5.68,5.68,0,0,1-1.59-.25v-1.44a5.6,5.6,0,0,0,1.23.16,2.15,2.15,0,0,0,1.47-.5,5.64,5.64,0,0,0,1.19-2.46l-4.1-11.59h1.87l3.18,8.89,3.24-8.89Z"/><path class="cls-1" d="M151.75,159.3v16h-1.66v-2a4,4,0,0,1-3.75,2.35,4.12,4.12,0,0,1-3.41-1.74,7,7,0,0,1-1.34-4.4,7.45,7.45,0,0,1,1.33-4.54,4.15,4.15,0,0,1,3.51-1.81,4.08,4.08,0,0,1,3.48,2V159.3ZM149.91,168a3.34,3.34,0,0,0-.95-2.5,3.06,3.06,0,0,0-2.21-.93,2.68,2.68,0,0,0-2.26,1.21,5.78,5.78,0,0,0-.88,3.43,6.67,6.67,0,0,0,.81,3.62,2.53,2.53,0,0,0,2.23,1.24,3,3,0,0,0,2.28-1.08,3.65,3.65,0,0,0,1-2.53Z"/><path class="cls-1" d="M157.27,175.29h-1.84V163.46h1.62v2.76a5.93,5.93,0,0,1,1.71-2.53,3.13,3.13,0,0,1,1.77-.58,7,7,0,0,1,.72,0v1.76h-.37a3.22,3.22,0,0,0-2.53,1.14,4.64,4.64,0,0,0-1.08,3Z"/><path class="cls-1" d="M167.15,175.62a4.49,4.49,0,0,1-3.8-1.8,7.24,7.24,0,0,1-1.37-4.48,6.44,6.44,0,0,1,1.54-4.52,4.92,4.92,0,0,1,3.82-1.69,4.65,4.65,0,0,1,3.86,1.78,6.9,6.9,0,0,1,1.41,4.44,6.68,6.68,0,0,1-1.52,4.52A5,5,0,0,1,167.15,175.62Zm.14-1.52a3,3,0,0,0,2.36-1.16,5.67,5.67,0,0,0,.94-3.61,5.29,5.29,0,0,0-1-3.57,3.05,3.05,0,0,0-2.33-1.11,2.94,2.94,0,0,0-2.32,1.12,5.4,5.4,0,0,0-.95,3.55A5.59,5.59,0,0,0,165,173,3,3,0,0,0,167.29,174.1Z"/><path class="cls-1" d="M55.48,197.38v1.43H50.19v-1.43Z"/><path class="cls-1" d="M65.84,204.1h-2v-16h9.79v1.76H65.84v5H72.3v1.62H65.84Z"/><path class="cls-1" d="M84.36,204.1H82.69v-2.27a4,4,0,0,1-3.76,2.59,3.59,3.59,0,0,1-2.85-1.19,5,5,0,0,1-1-3.4v-7.57h1.84v7.56a3.18,3.18,0,0,0,.73,2.42,2.37,2.37,0,0,0,1.61.66,2.82,2.82,0,0,0,1.62-.5A3.93,3.93,0,0,0,82,201a4.37,4.37,0,0,0,.48-2v-6.67h1.84Z"/><path class="cls-1" d="M89.88,204.1H88v-16h1.84Z"/><path class="cls-1" d="M95.4,204.1H93.56v-16H95.4Z"/><path class="cls-1" d="M106.92,204.1h-1.84V192.26h1.61V195a6,6,0,0,1,1.72-2.54,3.08,3.08,0,0,1,1.76-.58,5.44,5.44,0,0,1,.73.05v1.75h-.38a3.25,3.25,0,0,0-2.53,1.14,4.58,4.58,0,0,0-1.07,3Z"/><path class="cls-1" d="M122.3,204.1h-1.66v-2.27a4,4,0,0,1-3.77,2.59,3.59,3.59,0,0,1-2.85-1.19,5,5,0,0,1-1-3.4v-7.57h1.84v7.56a3.18,3.18,0,0,0,.73,2.42,2.35,2.35,0,0,0,1.61.66,2.79,2.79,0,0,0,1.61-.5A3.93,3.93,0,0,0,120,201a4.37,4.37,0,0,0,.48-2v-6.67h1.84Z"/><path class="cls-1" d="M124.39,201l1.76-.37c.39,1.49,1.62,2.24,3.7,2.24a3.53,3.53,0,0,0,1.94-.51,1.63,1.63,0,0,0,.8-1.46c0-.92-.67-1.51-2-1.76l-2.49-.48a4.42,4.42,0,0,1-2.33-1.1,2.85,2.85,0,0,1-.87-2.17,3.13,3.13,0,0,1,1.18-2.49,4.82,4.82,0,0,1,3.19-1c2.57,0,4.16,1,4.76,3l-1.69.37a2.88,2.88,0,0,0-3-1.85,3.33,3.33,0,0,0-1.84.46,1.46,1.46,0,0,0-.72,1.29c0,.87.61,1.42,1.84,1.65l2.3.42c2.42.43,3.62,1.6,3.62,3.51a3.12,3.12,0,0,1-1.34,2.63,5.88,5.88,0,0,1-3.59,1C126.79,204.42,125.05,203.29,124.39,201Z"/><path class="cls-1" d="M142.48,202.84v1.45a12.42,12.42,0,0,1-1.69.13c-2.28,0-3.43-1.19-3.43-3.59V193.7h-2.1v-1.44h2.1l.08-3,1.71-.16v3.14h2.65v1.44h-2.65v7.44a1.65,1.65,0,0,0,1.9,1.83A8.61,8.61,0,0,0,142.48,202.84Z"/><path class="cls-1" d="M153.83,204.1H152.1v-7.61a3.11,3.11,0,0,0-.71-2.31,2.49,2.49,0,0,0-1.74-.67,3,3,0,0,0-2.36,1.13,4.46,4.46,0,0,0-.95,3v6.5H144.5V192.26h1.71v2.18a4.27,4.27,0,0,1,3.74-2.51,3.67,3.67,0,0,1,2.25.69,3.61,3.61,0,0,1,1.28,1.54,9.33,9.33,0,0,1,.35,3.09Z"/><path class="cls-1" d="M159.4,188.1v2.05h-2V188.1Zm-.06,4.16V204.1H157.5V192.26Z"/><path class="cls-1" d="M172.34,204.1h-1.72v-7.61a3.07,3.07,0,0,0-.72-2.31,2.45,2.45,0,0,0-1.73-.67,3,3,0,0,0-2.36,1.13,4.41,4.41,0,0,0-1,3v6.5H163V192.26h1.71v2.18a4.27,4.27,0,0,1,3.74-2.51,3.81,3.81,0,0,1,3.54,2.23,9.4,9.4,0,0,1,.34,3.09Z"/><path class="cls-1" d="M185.69,190.41v1.46a3.2,3.2,0,0,0-1.69.3,1.49,1.49,0,0,0-.57,1.05,4.32,4.32,0,0,1,1.13,2.86,3.7,3.7,0,0,1-1.23,2.78A4.69,4.69,0,0,1,180,200a4.49,4.49,0,0,1-.8-.07,5.35,5.35,0,0,0-.81-.13,1.37,1.37,0,0,0-.76.31.94.94,0,0,0-.45.8.88.88,0,0,0,.65.92,14,14,0,0,0,3,.27,16.83,16.83,0,0,1,3,.27,3.13,3.13,0,0,1,1.64,1,2.67,2.67,0,0,1,.67,1.82q0,3.39-6,3.39a7.7,7.7,0,0,1-4.12-.85,2.6,2.6,0,0,1-1.29-2.27,2.38,2.38,0,0,1,1.8-2.37,2.24,2.24,0,0,1-1.16-1.91,2.31,2.31,0,0,1,1.65-2.1,3.83,3.83,0,0,1-1.54-3.12,3.64,3.64,0,0,1,1.31-2.88,4.76,4.76,0,0,1,3.2-1.13,5.69,5.69,0,0,1,2.43.51,2.26,2.26,0,0,1,.81-1.61,3.39,3.39,0,0,1,1.94-.45Zm-7.83,13.21a1.77,1.77,0,0,0-1.29,1.62,1.53,1.53,0,0,0,1.06,1.4,6.26,6.26,0,0,0,2.7.5,8.51,8.51,0,0,0,2.79-.43c.85-.28,1.27-.76,1.27-1.44a1.17,1.17,0,0,0-.38-.9,1.78,1.78,0,0,0-1-.45c-.44-.06-1.19-.11-2.27-.14C179.43,203.75,178.48,203.69,177.86,203.62Zm2.2-5a2.62,2.62,0,0,0,1.91-.72,2.46,2.46,0,0,0,.74-1.87,2.5,2.5,0,0,0-.77-1.91,2.55,2.55,0,0,0-1.85-.75,2.7,2.7,0,0,0-1.85.7,2.79,2.79,0,0,0-.09,3.84A2.6,2.6,0,0,0,180.06,198.61Z"/><path class="cls-1" d="M195.71,188.1v2.05h-2V188.1Zm-.06,4.16V204.1h-1.84V192.26Z"/><path class="cls-1" d="M203.72,201l1.76-.37c.39,1.49,1.63,2.24,3.7,2.24a3.54,3.54,0,0,0,1.95-.51,1.65,1.65,0,0,0,.8-1.46c0-.92-.68-1.51-2-1.76l-2.5-.48a4.5,4.5,0,0,1-2.33-1.1,2.85,2.85,0,0,1-.87-2.17,3.14,3.14,0,0,1,1.19-2.49,4.82,4.82,0,0,1,3.19-1c2.57,0,4.15,1,4.75,3l-1.68.37a2.88,2.88,0,0,0-3-1.85,3.36,3.36,0,0,0-1.85.46,1.46,1.46,0,0,0-.72,1.29c0,.87.61,1.42,1.84,1.65l2.31.42q3.62.65,3.62,3.51a3.13,3.13,0,0,1-1.35,2.63,5.85,5.85,0,0,1-3.58,1C206.12,204.42,204.39,203.29,203.72,201Z"/><path class="cls-1" d="M226.22,204.1h-1.9l-3.46-6.61-2.57,2.95v3.66h-1.84v-16h1.84v10.25l5.5-6.09h2l-3.69,4.16Z"/><path class="cls-1" d="M236.6,192.26l-4.75,13.22c-.68,1.9-1.78,2.86-3.29,2.86a5.68,5.68,0,0,1-1.59-.25v-1.44a5.6,5.6,0,0,0,1.23.16,2.15,2.15,0,0,0,1.47-.5,5.55,5.55,0,0,0,1.18-2.46l-4.09-11.59h1.87l3.18,8.89,3.23-8.89Z"/><path class="cls-1" d="M245.91,200.57l1.71.35a4.78,4.78,0,0,1-1.83,2.51,5.27,5.27,0,0,1-3.2,1,5,5,0,0,1-3.92-1.7,7.46,7.46,0,0,1,.06-9.05,5,5,0,0,1,3.91-1.74,4.72,4.72,0,0,1,3.73,1.61,7.15,7.15,0,0,1,1.45,4.8h-8.6c0,1.79.37,3,1.12,3.62a3.66,3.66,0,0,0,2.38.94A3.26,3.26,0,0,0,245.91,200.57Zm-.1-3.6a5.36,5.36,0,0,0-.33-1.77,3.18,3.18,0,0,0-1-1.32,2.87,2.87,0,0,0-1.75-.54,3.16,3.16,0,0,0-2.33,1A4.13,4.13,0,0,0,239.3,197Z"/><path class="cls-1" d="M259.92,204.1h-1.73v-7.61a3.11,3.11,0,0,0-.71-2.31,2.49,2.49,0,0,0-1.74-.67,3,3,0,0,0-2.36,1.13,4.46,4.46,0,0,0-.95,3v6.5h-1.84V192.26h1.71v2.18a4.26,4.26,0,0,1,3.74-2.51,3.67,3.67,0,0,1,2.25.69,3.61,3.61,0,0,1,1.28,1.54,9.33,9.33,0,0,1,.35,3.09Z"/></svg>