<svg id="Layer_1" data-name="Layer 1" xmlns="http://www.w3.org/2000/svg" viewBox="0 0 300 250"><defs><style>.cls-1{fill:#fff;}</style></defs><title>text</title><path class="cls-1" d="M178,181h-5.5c-.45,0-.67-.18-.67-.53v-8.68c0-.36.22-.54.67-.54s.68.18.68.54v8H178c.3,0,.46.2.46.61S178.28,181,178,181Z"/><path class="cls-1" d="M185.36,179.71c.31,0,.46.19.46.56a.6.6,0,0,1-.46.67,11.42,11.42,0,0,1-2.44.18,4.15,4.15,0,0,1-2.45-.56,2.17,2.17,0,0,1-.75-1.87V176a2.15,2.15,0,0,1,.67-1.86,4.77,4.77,0,0,1,2.52-.47,4.72,4.72,0,0,1,2.48.45A2.19,2.19,0,0,1,186,176v1.18a.77.77,0,0,1-.2.57.63.63,0,0,1-.5.21h-4.26v.88c0,.74.64,1.1,1.92,1.1a10.73,10.73,0,0,0,1.47-.09A7.68,7.68,0,0,1,185.36,179.71ZM181.07,176v.77h3.61V176a1,1,0,0,0-.36-.87,3,3,0,0,0-1.43-.23,3.29,3.29,0,0,0-1.43.21A.93.93,0,0,0,181.07,176Z"/><path class="cls-1" d="M192.29,178.8v-.17a.55.55,0,0,0-.35-.52,3.06,3.06,0,0,0-1.23-.16,7.49,7.49,0,0,1-1.93-.28,1.55,1.55,0,0,1-.88-.59,1.92,1.92,0,0,1-.35-1.2v-.12a1.77,1.77,0,0,1,.75-1.69,4.75,4.75,0,0,1,2.3-.44,9.78,9.78,0,0,1,2.29.2.6.6,0,0,1,.46.67c0,.38-.15.56-.46.56a7.69,7.69,0,0,1-.95-.1,11.8,11.8,0,0,0-1.5-.1,4.08,4.08,0,0,0-1.17.13c-.25.09-.37.34-.37.74v.14c0,.54.55.82,1.67.85.46,0,.93.06,1.39.12a2.13,2.13,0,0,1,1.19.52,1.51,1.51,0,0,1,.48,1.25v.18a2,2,0,0,1-.76,1.84,4.61,4.61,0,0,1-2.45.49,11.11,11.11,0,0,1-2.42-.19.62.62,0,0,1-.47-.68c0-.37.16-.55.47-.55s.53,0,1.06.09a11.59,11.59,0,0,0,1.54.1,3.2,3.2,0,0,0,1.22-.2A.88.88,0,0,0,192.29,178.8Z"/><path class="cls-1" d="M200.45,171.49v2.32a9.9,9.9,0,0,1,1.88-.19,7.79,7.79,0,0,1,1.41.1,1.72,1.72,0,0,1,1.5,1.35,8.66,8.66,0,0,1,.13,1.64v3.76c0,.35-.23.53-.68.53s-.67-.18-.67-.53v-3.62a8.27,8.27,0,0,0-.06-1.14.87.87,0,0,0-.31-.59,1.12,1.12,0,0,0-.52-.24q-.28,0-1,0a12.61,12.61,0,0,0-1.72.15v5.47c0,.35-.23.53-.67.53s-.68-.18-.68-.53v-9c0-.36.23-.54.68-.54S200.45,171.13,200.45,171.49Z"/><path class="cls-1" d="M210.45,181.07a1.16,1.16,0,0,1-.72-.24,1.31,1.31,0,0,1-.45-.61l-2.12-5.72a1.15,1.15,0,0,0-.06-.24c0-.35.22-.52.66-.52a.63.63,0,0,1,.66.39l2,5.64h.08l2-5.64a.68.68,0,0,1,.72-.39c.39,0,.58.18.58.52a2.42,2.42,0,0,1,0,.24l-2.13,5.72a1.24,1.24,0,0,1-.46.62A1.18,1.18,0,0,1,210.45,181.07Z"/><path class="cls-1" d="M215.94,175c-.31,0-.47-.18-.47-.55a.62.62,0,0,1,.47-.68,10.66,10.66,0,0,1,2.43-.19,3.56,3.56,0,0,1,2.3.54,2.46,2.46,0,0,1,.61,1.89v2.89c0,.91-.22,1.49-.66,1.77a5.34,5.34,0,0,1-2.53.41,5.19,5.19,0,0,1-2.5-.41A2,2,0,0,1,215,179a2.7,2.7,0,0,1,.48-1.85,2.8,2.8,0,0,1,2-.51h2.49v-.77a.85.85,0,0,0-.35-.77,2.63,2.63,0,0,0-1.22-.2,9.72,9.72,0,0,0-1.53.1A4.82,4.82,0,0,1,215.94,175Zm4,4v-1.27h-2.08a2.61,2.61,0,0,0-1.26.19c-.19.12-.29.41-.29.86s.12.75.36.87a3.48,3.48,0,0,0,1.43.19,4.47,4.47,0,0,0,1.45-.16A.69.69,0,0,0,219.93,179.05Z"/><path class="cls-1" d="M229.69,181.07a1.16,1.16,0,0,1-.72-.24,1.31,1.31,0,0,1-.45-.61l-2.12-5.72a1.15,1.15,0,0,0-.06-.24c0-.35.22-.52.66-.52a.63.63,0,0,1,.66.39l2,5.64h.08l2-5.64a.68.68,0,0,1,.72-.39c.39,0,.58.18.58.52a2.42,2.42,0,0,1,0,.24l-2.13,5.72a1.24,1.24,0,0,1-.46.62A1.18,1.18,0,0,1,229.69,181.07Z"/><path class="cls-1" d="M235.16,175c-.31,0-.47-.18-.47-.55a.62.62,0,0,1,.47-.68,10.66,10.66,0,0,1,2.43-.19,3.54,3.54,0,0,1,2.3.54,2.42,2.42,0,0,1,.61,1.89v2.89c0,.91-.22,1.49-.66,1.77a5.34,5.34,0,0,1-2.53.41,5.09,5.09,0,0,1-2.49-.41c-.42-.28-.62-.86-.62-1.76a2.7,2.7,0,0,1,.48-1.85,2.78,2.78,0,0,1,2-.51h2.47v-.77a.83.83,0,0,0-.34-.77,2.63,2.63,0,0,0-1.22-.2,9.72,9.72,0,0,0-1.53.1A4.84,4.84,0,0,1,235.16,175Zm4,4v-1.27h-2.07a2.56,2.56,0,0,0-1.25.19c-.19.12-.29.41-.29.86s.12.75.36.87a3.48,3.48,0,0,0,1.43.19,4.44,4.44,0,0,0,1.44-.16A.67.67,0,0,0,239.15,179.05Zm-2.61-6.19a1.43,1.43,0,0,1,0-2,1.39,1.39,0,0,1,2,0,1.4,1.4,0,0,1,0,2,1.41,1.41,0,0,1-2,0Zm.39-1a.61.61,0,0,0,.17.43.59.59,0,0,0,.43.17.58.58,0,0,0,.43-.18.6.6,0,0,0-.43-1,.6.6,0,0,0-.43.17A.56.56,0,0,0,236.93,171.87Z"/><path class="cls-1" d="M243.94,176.74v3.73c0,.35-.23.53-.67.53s-.68-.18-.68-.53v-3.91a4.66,4.66,0,0,1,.24-1.87,2.66,2.66,0,0,1,.44-.63,6.77,6.77,0,0,1,3.72-.31.46.46,0,0,1,.33.47.68.68,0,0,1-.18.52.6.6,0,0,1-.46.17l-1-.06a4.36,4.36,0,0,0-1.15.09,1,1,0,0,0-.34.17,1.2,1.2,0,0,0-.16.34,1.5,1.5,0,0,0-.09.52C243.94,176.15,243.94,176.41,243.94,176.74Z"/><path class="cls-1" d="M254,179.71c.31,0,.47.19.47.56a.61.61,0,0,1-.47.67,11.32,11.32,0,0,1-2.43.18,4.17,4.17,0,0,1-2.46-.56,2.19,2.19,0,0,1-.74-1.87V176a2.15,2.15,0,0,1,.67-1.86,4.75,4.75,0,0,1,2.51-.47,4.69,4.69,0,0,1,2.48.45,2.19,2.19,0,0,1,.65,1.88v1.18a.82.82,0,0,1-.2.57.66.66,0,0,1-.51.21h-4.26v.88c0,.74.64,1.1,1.93,1.1a10.58,10.58,0,0,0,1.46-.09A7.68,7.68,0,0,1,254,179.71ZM249.75,176v.77h3.62V176a.93.93,0,0,0-.37-.87,2.88,2.88,0,0,0-1.42-.23,3.31,3.31,0,0,0-1.44.21A1,1,0,0,0,249.75,176Z"/><path class="cls-1" d="M151.38,189.49v5.79l3.35-3.39a.7.7,0,0,1,.5-.23.63.63,0,0,1,.47.19.58.58,0,0,1,.19.44.7.7,0,0,1-.24.5l-1.94,1.8,2.39,3.33a.76.76,0,0,1,.15.45.61.61,0,0,1-.21.44.71.71,0,0,1-.5.2.5.5,0,0,1-.44-.24l-2.35-3.28-1.37,1.28v1.7c0,.35-.23.53-.67.53s-.68-.18-.68-.53v-9c0-.36.23-.54.68-.54S151.38,189.13,151.38,189.49Z"/><path class="cls-1" d="M159.82,197.88h1.4a1.55,1.55,0,0,0,.47-.08.9.9,0,0,0,.38-.23.92.92,0,0,0,.16-.6c0-.3,0-.62,0-1v-3.75c0-.35.23-.53.68-.53s.67.18.67.53v3.92a8.35,8.35,0,0,1-.12,1.62,1.39,1.39,0,0,1-.52.87,1.8,1.8,0,0,1-.91.37,14.67,14.67,0,0,1-3.06,0,1.88,1.88,0,0,1-.91-.37,1.42,1.42,0,0,1-.51-.87,9.23,9.23,0,0,1-.12-1.62v-3.92c0-.35.23-.53.68-.53s.67.18.67.53V196a3.13,3.13,0,0,0,.24,1.63.73.73,0,0,0,.31.16A1.6,1.6,0,0,0,159.82,197.88Z"/><path class="cls-1" d="M167.29,193.1a3.09,3.09,0,0,0-.25,1.63v3.74c0,.35-.22.53-.67.53s-.67-.18-.67-.53v-3.91a7.52,7.52,0,0,1,.13-1.61,1.39,1.39,0,0,1,.53-.88,1.93,1.93,0,0,1,.92-.37,12.78,12.78,0,0,1,1.66-.08,3.86,3.86,0,0,1,2.39.46,1.93,1.93,0,0,1,.58,1.32,9.35,9.35,0,0,1,.06,1.16v3.91c0,.35-.23.53-.68.53s-.67-.18-.67-.53v-3.74a2.94,2.94,0,0,0-.26-1.62,4.75,4.75,0,0,0-3.07,0Z"/><path class="cls-1" d="M180.64,189.49v5.94a9.68,9.68,0,0,1-.16,1.92,2.06,2.06,0,0,1-.6,1.11,2.17,2.17,0,0,1-1,.53,7.82,7.82,0,0,1-1.56.13,7.3,7.3,0,0,1-1.57-.13,2.09,2.09,0,0,1-1-.52,2,2,0,0,1-.59-1.12,10.51,10.51,0,0,1-.16-1.92,9.16,9.16,0,0,1,.17-1.94,2.09,2.09,0,0,1,1.59-1.73,8.22,8.22,0,0,1,1.73-.14,4.63,4.63,0,0,1,1.8.29v-2.42c0-.36.22-.54.67-.54S180.64,189.13,180.64,189.49Zm-5.13,4.23a3.77,3.77,0,0,0-.16,1.34c0,.64,0,1.15.05,1.52a1.88,1.88,0,0,0,.38,1,1.2,1.2,0,0,0,.88.3l.67,0c.88,0,1.39-.11,1.55-.32a2,2,0,0,0,.39-1c0-.37,0-.75,0-1.14a3.91,3.91,0,0,0-.33-2.11,1.81,1.81,0,0,0-.26-.28,1.84,1.84,0,0,0-1-.2h-1a1.15,1.15,0,0,0-.87.31A4,4,0,0,0,175.51,193.72Z"/><path class="cls-1" d="M188.25,197.71c.3,0,.46.19.46.56a.61.61,0,0,1-.46.67,11.49,11.49,0,0,1-2.44.18,4.15,4.15,0,0,1-2.45-.56,2.17,2.17,0,0,1-.75-1.87V194a2.15,2.15,0,0,1,.67-1.86,7,7,0,0,1,5,0,2.19,2.19,0,0,1,.64,1.88v1.18a.77.77,0,0,1-.2.57.63.63,0,0,1-.5.21H184v.88c0,.74.64,1.1,1.92,1.1a10.73,10.73,0,0,0,1.47-.09A7.68,7.68,0,0,1,188.25,197.71ZM184,194v.77h3.61V194a1,1,0,0,0-.36-.87,3,3,0,0,0-1.43-.23,3.38,3.38,0,0,0-1.44.21A1,1,0,0,0,184,194Z"/><path class="cls-1" d="M192.29,194.74v3.73c0,.35-.22.53-.67.53s-.67-.18-.68-.53v-3.91a4.66,4.66,0,0,1,.24-1.87,2.39,2.39,0,0,1,.45-.63,6.73,6.73,0,0,1,3.71-.31.46.46,0,0,1,.33.47.68.68,0,0,1-.18.52.6.6,0,0,1-.46.17l-1-.06a4.41,4.41,0,0,0-1.15.09,1,1,0,0,0-.34.17,1.57,1.57,0,0,0-.16.34,1.5,1.5,0,0,0-.09.52C192.29,194.15,192.29,194.41,192.29,194.74Z"/><path class="cls-1" d="M205,196.8v-.17a.55.55,0,0,0-.35-.52,3.06,3.06,0,0,0-1.23-.16,7.49,7.49,0,0,1-1.93-.28,1.55,1.55,0,0,1-.88-.59,1.92,1.92,0,0,1-.35-1.2v-.12a1.77,1.77,0,0,1,.75-1.69,4.72,4.72,0,0,1,2.3-.44,9.78,9.78,0,0,1,2.29.2.6.6,0,0,1,.46.67c0,.38-.15.56-.46.56a7.69,7.69,0,0,1-1-.1,11.8,11.8,0,0,0-1.5-.1,4.08,4.08,0,0,0-1.17.13c-.25.09-.37.34-.37.74v.14c0,.54.55.82,1.67.85.46,0,.93.06,1.4.12a2.13,2.13,0,0,1,1.18.52,1.51,1.51,0,0,1,.48,1.25v.18a2,2,0,0,1-.76,1.84,4.61,4.61,0,0,1-2.45.49,11.28,11.28,0,0,1-2.43-.19.62.62,0,0,1-.46-.68c0-.37.16-.55.46-.55s.54,0,1.07.09a11.55,11.55,0,0,0,1.53.1,3.22,3.22,0,0,0,1.23-.2A.88.88,0,0,0,205,196.8Z"/><path class="cls-1" d="M208.23,190a.7.7,0,0,1,.22-.52.73.73,0,0,1,.51-.23.71.71,0,0,1,.52.23.76.76,0,0,1,.21.53.7.7,0,0,1-.22.51.67.67,0,0,1-.51.22.7.7,0,0,1-.52-.22A.73.73,0,0,1,208.23,190Zm1.4,2.26v6.21c0,.35-.22.53-.67.53s-.67-.18-.67-.53v-6.21c0-.35.22-.53.67-.53S209.63,191.91,209.63,192.26Z"/><path class="cls-1" d="M217.43,197.71c.3,0,.46.19.46.56a.61.61,0,0,1-.46.67,11.49,11.49,0,0,1-2.44.18,4.15,4.15,0,0,1-2.45-.56,2.17,2.17,0,0,1-.75-1.87V194a2.15,2.15,0,0,1,.67-1.86,7,7,0,0,1,5,0,2.19,2.19,0,0,1,.64,1.88v1.18a.77.77,0,0,1-.2.57.63.63,0,0,1-.5.21h-4.27v.88c0,.74.65,1.1,1.93,1.1a10.73,10.73,0,0,0,1.47-.09A7.68,7.68,0,0,1,217.43,197.71Zm-4.3-3.76v.77h3.62V194a1,1,0,0,0-.36-.87,3,3,0,0,0-1.43-.23,3.38,3.38,0,0,0-1.44.21A1,1,0,0,0,213.13,194Z"/><path class="cls-1" d="M221.47,194.74v3.73c0,.35-.22.53-.67.53s-.67-.18-.68-.53v-3.91a4.66,4.66,0,0,1,.24-1.87,2.39,2.39,0,0,1,.45-.63,6.73,6.73,0,0,1,3.71-.31.46.46,0,0,1,.33.47.68.68,0,0,1-.18.52.6.6,0,0,1-.46.17l-1-.06a4.41,4.41,0,0,0-1.15.09,1,1,0,0,0-.34.17,1.57,1.57,0,0,0-.16.34,1.5,1.5,0,0,0-.09.52C221.47,194.15,221.47,194.41,221.47,194.74Z"/><path class="cls-1" d="M229.53,195.43a9.16,9.16,0,0,1,.17-1.94,2.1,2.1,0,0,1,1.59-1.73,8.87,8.87,0,0,1,3.14,0,2.17,2.17,0,0,1,1,.57,2.47,2.47,0,0,1,.6,1.16,11.78,11.78,0,0,1,0,3.87,2.1,2.1,0,0,1-.6,1.11,2.27,2.27,0,0,1-1,.52,8,8,0,0,1-1.57.13,7.36,7.36,0,0,1-1.57-.13,2.09,2.09,0,0,1-1-.52,2,2,0,0,1-.59-1.12A9.68,9.68,0,0,1,229.53,195.43Zm1.51-1.71a4,4,0,0,0-.16,1.34c0,.64,0,1.15.05,1.52a1.88,1.88,0,0,0,.38,1,1.2,1.2,0,0,0,.88.3l.67,0c.88,0,1.4-.11,1.55-.32a2,2,0,0,0,.39-1c0-.37,0-.75,0-1.14a3.91,3.91,0,0,0-.33-2.11,2.53,2.53,0,0,0-.25-.28,1.88,1.88,0,0,0-1.06-.2h-1a1.17,1.17,0,0,0-.87.31A4,4,0,0,0,231,193.72Z"/><path class="cls-1" d="M245.67,192.85a8.56,8.56,0,0,0-.87,0,.79.79,0,0,0-.47.22.72.72,0,0,0-.24.5,7.36,7.36,0,0,0,0,1v3.92c0,.35-.22.53-.67.53s-.68-.18-.68-.53v-4.12c0-.69-.09-1.11-.27-1.27a1.88,1.88,0,0,0-1.12-.23q-.85,0-1.11,0a.72.72,0,0,0-.46.24.88.88,0,0,0-.22.54c0,.22,0,.58,0,1.07v3.74c0,.35-.23.53-.67.53s-.68-.18-.68-.53v-3.91a4.91,4.91,0,0,1,.34-2.16,1.65,1.65,0,0,1,1.42-.73,11.77,11.77,0,0,1,1.2,0,4.11,4.11,0,0,1,2.28.42,4,4,0,0,1,2.27-.42c.52,0,.92,0,1.2,0a1.69,1.69,0,0,1,1.4.7,5,5,0,0,1,.36,2.2v3.91c0,.35-.22.53-.67.53s-.67-.18-.67-.53v-3.74c0-.49,0-.85,0-1.07a.88.88,0,0,0-.22-.54.74.74,0,0,0-.46-.24C246.37,192.86,246.08,192.85,245.67,192.85Z"/><path class="cls-1" d="M254.25,195.43a9.25,9.25,0,0,1,.16-1.94,2.1,2.1,0,0,1,1.6-1.73,8.82,8.82,0,0,1,3.13,0,2.2,2.2,0,0,1,1,.57,2.46,2.46,0,0,1,.59,1.16,11.78,11.78,0,0,1,0,3.87,2.1,2.1,0,0,1-.6,1.11,2.22,2.22,0,0,1-1,.52,8,8,0,0,1-1.56.13A7.23,7.23,0,0,1,256,199a2.12,2.12,0,0,1-1-.52,2,2,0,0,1-.58-1.12A9,9,0,0,1,254.25,195.43Zm1.5-1.71a4,4,0,0,0-.16,1.34,15,15,0,0,0,.06,1.52,1.8,1.8,0,0,0,.38,1q.18.26.87.3l.68,0c.87,0,1.39-.11,1.55-.32a2.07,2.07,0,0,0,.38-1,10.63,10.63,0,0,0,.05-1.14,4.05,4.05,0,0,0-.32-2.11,2.49,2.49,0,0,0-.26-.28,1.84,1.84,0,0,0-1.05-.2h-1a1.15,1.15,0,0,0-.87.31A3,3,0,0,0,255.75,193.72Z"/><path class="cls-1" d="M267.39,196.8v-.17a.54.54,0,0,0-.36-.52,3,3,0,0,0-1.22-.16,7.43,7.43,0,0,1-1.93-.28,1.55,1.55,0,0,1-.88-.59,1.86,1.86,0,0,1-.35-1.2v-.12a1.77,1.77,0,0,1,.75-1.69,4.72,4.72,0,0,1,2.3-.44,9.78,9.78,0,0,1,2.29.2.61.61,0,0,1,.46.67c0,.38-.16.56-.46.56a7.69,7.69,0,0,1-.95-.1,11.8,11.8,0,0,0-1.5-.1,4.08,4.08,0,0,0-1.17.13c-.25.09-.38.34-.38.74v.14c0,.54.56.82,1.67.85.47,0,.93.06,1.4.12a2.13,2.13,0,0,1,1.19.52,1.51,1.51,0,0,1,.48,1.25v.18a2,2,0,0,1-.76,1.84,4.64,4.64,0,0,1-2.45.49,11.28,11.28,0,0,1-2.43-.19.62.62,0,0,1-.46-.68c0-.37.16-.55.46-.55s.54,0,1.07.09a11.55,11.55,0,0,0,1.53.1,3.26,3.26,0,0,0,1.23-.2A.88.88,0,0,0,267.39,196.8Z"/><path class="cls-1" d="M274.83,196.8v-.17a.53.53,0,0,0-.35-.52,3,3,0,0,0-1.22-.16,7.43,7.43,0,0,1-1.93-.28,1.51,1.51,0,0,1-.88-.59,1.86,1.86,0,0,1-.35-1.2v-.12a1.77,1.77,0,0,1,.75-1.69,4.72,4.72,0,0,1,2.3-.44,9.78,9.78,0,0,1,2.29.2.61.61,0,0,1,.46.67c0,.38-.16.56-.46.56a7.51,7.51,0,0,1-.95-.1,11.8,11.8,0,0,0-1.5-.1,4.08,4.08,0,0,0-1.17.13c-.25.09-.38.34-.38.74v.14c0,.54.56.82,1.67.85.47,0,.93.06,1.4.12a2.13,2.13,0,0,1,1.19.52,1.51,1.51,0,0,1,.48,1.25v.18a2,2,0,0,1-.76,1.84,4.64,4.64,0,0,1-2.45.49,11.28,11.28,0,0,1-2.43-.19.62.62,0,0,1-.46-.68c0-.37.16-.55.46-.55s.54,0,1.07.09a11.44,11.44,0,0,0,1.53.1,3.26,3.26,0,0,0,1.23-.2A.87.87,0,0,0,274.83,196.8Z"/></svg>