<?xml version="1.0" encoding="utf-8"?>
<!-- Generator: Adobe Illustrator 19.1.1, SVG Export Plug-In . SVG Version: 6.00 Build 0)  -->
<svg version="1.1" id="Layer_1" xmlns="http://www.w3.org/2000/svg" xmlns:xlink="http://www.w3.org/1999/xlink" x="0px" y="0px"
	 viewBox="0 0 300 250" style="enable-background:new 0 0 300 250;" xml:space="preserve">
<style type="text/css">
	.st0{fill:#D4AC76;}
</style>
<g>
	<path class="st0" d="M93.2,104.6h-3.7v2.7h3.9v1.2h-5.2v-8.9h5.1v1.2h-3.8v2.6h3.7V104.6z"/>
	<path class="st0" d="M95.6,100.8v-1.2h7.2v1.2h-3v7.7h-1.2v-7.7H95.6z"/>
	<path class="st0" d="M104.6,100.8v-1.2h7.2v1.2h-3v7.7h-1.2v-7.7H104.6z"/>
	<path class="st0" d="M124.8,108.5v-3.9h-4.3v3.9h-1.2v-8.9h1.2v3.9h4.3v-3.9h1.2v8.9H124.8z"/>
	<path class="st0" d="M132.8,108.6c-0.9,0-1.7-0.3-2.3-0.9s-0.9-1.4-0.9-2.3v-5.8h1.2v5.7c0,0.6,0.2,1.1,0.5,1.6
		c0.4,0.4,0.8,0.6,1.5,0.6c0.6,0,1.1-0.2,1.5-0.6c0.4-0.4,0.5-0.9,0.5-1.6v-5.7h1.2v5.8c0,0.9-0.3,1.7-0.9,2.3
		C134.5,108.3,133.8,108.6,132.8,108.6z"/>
	<path class="st0" d="M141.9,108.6c-0.6,0-1.1-0.1-1.7-0.4s-1-0.6-1.4-1l0.9-1c0.3,0.3,0.6,0.6,1,0.8s0.8,0.3,1.2,0.3
		c0.5,0,0.9-0.1,1.1-0.4s0.4-0.6,0.4-0.9c0-0.7-0.4-1.1-1.1-1.5l-1-0.4c-0.7-0.3-1.1-0.6-1.5-1c-0.3-0.4-0.5-0.8-0.5-1.4
		c0-0.7,0.2-1.2,0.7-1.7s1.1-0.7,1.8-0.7c1,0,1.9,0.3,2.6,1l-0.7,1c-0.5-0.5-1.1-0.8-1.8-0.8c-0.4,0-0.7,0.1-0.9,0.3
		c-0.2,0.2-0.4,0.5-0.4,0.8c0,0.3,0.1,0.5,0.3,0.7c0.2,0.2,0.5,0.4,0.9,0.5l1.1,0.4c1.3,0.5,1.9,1.4,1.9,2.5c0,0.8-0.3,1.4-0.8,1.9
		C143.5,108.4,142.8,108.6,141.9,108.6z"/>
	<path class="st0" d="M152.7,108.5v-8.9h4.9v1.2h-3.6v2.8h3.2v1.2h-3.2v3.7H152.7z"/>
	<path class="st0" d="M164.3,108.7c-1.3,0-2.3-0.4-3.2-1.3s-1.3-2-1.3-3.3s0.4-2.4,1.3-3.3s1.9-1.3,3.2-1.3c1.2,0,2.3,0.4,3.2,1.3
		c0.9,0.9,1.3,2,1.3,3.3s-0.4,2.4-1.3,3.3C166.6,108.2,165.5,108.7,164.3,108.7z M161.9,106.5c0.6,0.7,1.4,1,2.3,1s1.7-0.3,2.3-1
		c0.6-0.7,1-1.5,1-2.4c0-0.9-0.3-1.8-1-2.4c-0.6-0.7-1.4-1-2.3-1c-0.9,0-1.7,0.3-2.3,1c-0.6,0.7-1,1.5-1,2.4
		C161,105,161.3,105.8,161.9,106.5z M163.4,98.7c-0.1,0.1-0.3,0.2-0.4,0.2c-0.2,0-0.3-0.1-0.4-0.2c-0.1-0.1-0.2-0.3-0.2-0.5
		s0.1-0.4,0.2-0.5c0.1-0.1,0.3-0.2,0.4-0.2c0.2,0,0.3,0.1,0.4,0.2c0.1,0.1,0.2,0.3,0.2,0.5S163.6,98.5,163.4,98.7z M165.9,98.7
		c-0.1,0.1-0.3,0.2-0.4,0.2c-0.2,0-0.3-0.1-0.4-0.2c-0.1-0.1-0.2-0.3-0.2-0.5s0.1-0.4,0.2-0.5c0.1-0.1,0.3-0.2,0.4-0.2
		c0.2,0,0.3,0.1,0.4,0.2c0.1,0.1,0.2,0.3,0.2,0.5S166,98.5,165.9,98.7z"/>
	<path class="st0" d="M171.9,108.5v-8.9h3.3c0.8,0,1.5,0.3,2,0.8c0.5,0.5,0.8,1.2,0.8,2c0,0.7-0.2,1.4-0.7,1.9
		c-0.4,0.5-1,0.8-1.7,0.9l2.6,3.4h-1.5l-2.6-3.4h-1v3.4H171.9z M175,100.8h-1.9v3.2h1.9c0.5,0,0.9-0.1,1.3-0.4
		c0.3-0.3,0.5-0.7,0.5-1.2c0-0.4-0.2-0.8-0.5-1.1C176,100.9,175.5,100.8,175,100.8z"/>
	<path class="st0" d="M185,108.5l3.6-8.9h1.1l3.5,8.9h-1.4l-0.5-1.4h-4.4l-0.6,1.4H185z M189.1,101.7l-1.7,4.3h3.4L189.1,101.7z"/>
	<path class="st0" d="M195.6,108.5v-8.9h1.2v7.7h3.7v1.2H195.6z"/>
	<path class="st0" d="M203.2,108.5v-8.9h1.2v7.7h3.7v1.2H203.2z"/>
	<path class="st0" d="M210,108.5l3.6-8.9h1.1l3.5,8.9h-1.4l-0.5-1.4h-4.4l-0.5,1.4H210z M214.1,101.7l-1.7,4.3h3.4L214.1,101.7z"/>
	<path class="st0" d="M90.9,123.5l3.6-8.9h1.1l3.5,8.9h-1.4l-0.5-1.4h-4.4l-0.6,1.4H90.9z M95,116.7l-1.7,4.3h3.4L95,116.7z"/>
	<path class="st0" d="M103.9,123.6c-0.6,0-1.1-0.1-1.7-0.4s-1-0.6-1.4-1l0.9-1c0.3,0.3,0.6,0.6,1,0.8s0.8,0.3,1.2,0.3
		c0.5,0,0.9-0.1,1.1-0.4s0.4-0.6,0.4-0.9c0-0.7-0.4-1.1-1.1-1.5l-1-0.4c-0.7-0.3-1.1-0.6-1.5-1c-0.3-0.4-0.5-0.8-0.5-1.4
		c0-0.7,0.2-1.2,0.7-1.7s1.1-0.7,1.8-0.7c1,0,1.9,0.3,2.6,1l-0.7,1c-0.5-0.5-1.1-0.8-1.8-0.8c-0.4,0-0.7,0.1-0.9,0.3
		c-0.2,0.2-0.4,0.5-0.4,0.8c0,0.3,0.1,0.5,0.3,0.7c0.2,0.2,0.5,0.4,0.9,0.5l1.1,0.4c1.3,0.5,1.9,1.4,1.9,2.5c0,0.8-0.3,1.4-0.8,1.9
		C105.5,123.4,104.8,123.6,103.9,123.6z"/>
	<path class="st0" d="M109.8,123.5v-8.9h3c0.8,0,1.5,0.3,2.1,0.8c0.5,0.6,0.8,1.3,0.8,2.1c0,0.8-0.3,1.5-0.8,2.1s-1.3,0.8-2.1,0.8
		h-1.7v3H109.8z M112.8,115.8h-1.7v3.5h1.7c0.5,0,0.9-0.2,1.2-0.5c0.3-0.3,0.5-0.7,0.5-1.3c0-0.5-0.2-0.9-0.5-1.3
		C113.7,116,113.3,115.8,112.8,115.8z"/>
	<path class="st0" d="M123.6,119.6h-3.7v2.7h3.9v1.2h-5.2v-8.9h5.1v1.2h-3.8v2.6h3.7V119.6z"/>
	<path class="st0" d="M126.9,123.5v-8.9h1.2v4.2l3.7-4.2h1.7l-3.1,3.5l3.2,5.4h-1.5l-2.6-4.3l-1.3,1.5v2.9H126.9z"/>
	<path class="st0" d="M135.5,115.8v-1.2h7.2v1.2h-3v7.7h-1.2v-7.7H135.5z"/>
	<path class="st0" d="M150.1,119.6h-3.7v2.7h3.9v1.2h-5.2v-8.9h5.1v1.2h-3.8v2.6h3.7V119.6z"/>
	<path class="st0" d="M153.4,123.5v-8.9h3.3c0.8,0,1.5,0.3,2,0.8c0.5,0.5,0.8,1.2,0.8,2c0,0.7-0.2,1.4-0.7,1.9
		c-0.4,0.5-1,0.8-1.7,0.9l2.6,3.4h-1.5l-2.6-3.4h-1v3.4H153.4z M156.5,115.8h-1.9v3.2h1.9c0.5,0,0.9-0.1,1.3-0.4
		c0.3-0.3,0.5-0.7,0.5-1.2c0-0.4-0.2-0.8-0.5-1.1C157.5,115.9,157,115.8,156.5,115.8z"/>
	<path class="st0" d="M166.5,123.5l3.6-8.9h1.1l3.5,8.9h-1.4l-0.5-1.4h-4.4l-0.6,1.4H166.5z M170.6,116.7l-1.7,4.3h3.4L170.6,116.7z
		"/>
	<path class="st0" d="M178.9,123.5l-3.5-8.9h1.4l2.7,6.8l2.7-6.8h1.4l-3.5,8.9H178.9z"/>
	<path class="st0" d="M190.9,123.5v-8.9h2.4c1.2,0,2.2,0.4,3.1,1.3s1.3,1.9,1.3,3.1c0,1.3-0.4,2.4-1.3,3.2c-0.9,0.8-1.9,1.3-3.2,1.3
		H190.9z M193.4,115.8h-1.2v6.5h1.2c0.9,0,1.6-0.3,2.2-1c0.6-0.6,0.9-1.4,0.9-2.3s-0.3-1.7-0.9-2.3
		C194.9,116.1,194.2,115.8,193.4,115.8z"/>
	<path class="st0" d="M200.8,123.5v-8.9h1.2v8.9H200.8z"/>
	<path class="st0" d="M211.2,119.6v-1.2h3v0.6c0,1.3-0.5,2.4-1.4,3.3c-0.9,0.9-2,1.3-3.2,1.3c-1.3,0-2.4-0.4-3.2-1.3
		c-0.9-0.9-1.3-2-1.3-3.3s0.4-2.4,1.3-3.3c0.9-0.9,1.9-1.3,3.2-1.3c0.7,0,1.3,0.1,1.9,0.4c0.6,0.2,1.1,0.6,1.5,1l-0.9,0.9
		c-0.7-0.8-1.5-1.2-2.5-1.2c-0.9,0-1.7,0.3-2.4,1c-0.6,0.7-0.9,1.5-0.9,2.4s0.3,1.8,0.9,2.4c0.6,0.7,1.4,1,2.4,1
		c0.8,0,1.5-0.3,2.1-0.8c0.6-0.5,1-1.2,1.1-2.1H211.2z"/>
</g>
</svg>
