<svg id="Layer_1" data-name="Layer 1" xmlns="http://www.w3.org/2000/svg" viewBox="0 0 160 600"><defs><style>.cls-1{fill:#d80201;}</style></defs><title>text</title><path class="cls-1" d="M30.1,266.53c-1.82,2-4.67,1.65-7.11,1.65v6.92H19.35V256.42h5.43c1.85,0,3.47.14,4.93,1.43a5.94,5.94,0,0,1,1.9,4.51A6.11,6.11,0,0,1,30.1,266.53Zm-3.19-6.36a4.35,4.35,0,0,0-2.66-.59H23V265h1.48c1.82,0,3.39-.59,3.39-2.69A2.79,2.79,0,0,0,26.91,260.17Z"/><path class="cls-1" d="M41.72,266.05a3,3,0,0,0-1.62-.42c-2.3,0-2.91,1.63-2.91,3.64v5.83H33.8V263h3.39v1.82a3.88,3.88,0,0,1,3.52-2.21,3.83,3.83,0,0,1,1.49.28Z"/><path class="cls-1" d="M45.53,259.89a2,2,0,1,1,2-2A2,2,0,0,1,45.53,259.89ZM43.82,275.1V263h3.39V275.1Z"/><path class="cls-1" d="M54.27,275.49a6.44,6.44,0,0,1-4.62-2l1.79-2.07a3.94,3.94,0,0,0,2.85,1.43,1.43,1.43,0,0,0,1.54-1.35c0-2.07-5.4-1-5.4-5.12,0-2.46,2-3.84,4.34-3.84a6.28,6.28,0,0,1,3.95,1.29l-1.68,2a3.37,3.37,0,0,0-2-.81c-.59,0-1.29.36-1.29,1,0,1.77,5.6,1,5.6,5.13C59.33,274,56.87,275.49,54.27,275.49Z"/><path class="cls-1" d="M78,275.1v-1.6a4.68,4.68,0,0,1-4,2c-3.64,0-6-3-6-6.5s2.32-6.41,5.88-6.41a5,5,0,0,1,4,1.93V254.13h3.42v21Zm-3-9.47A3.41,3.41,0,1,0,78.37,269,3.38,3.38,0,0,0,75,265.63Z"/><path class="cls-1" d="M86.33,259.89a2,2,0,1,1,0-4.09,2,2,0,0,1,0,4.09ZM84.62,275.1V263H88V275.1Z"/><path class="cls-1" d="M99.12,266.05a3,3,0,0,0-1.62-.42c-2.3,0-2.92,1.63-2.92,3.64v5.83H91.2V263h3.38v1.82a3.91,3.91,0,0,1,3.53-2.21,3.86,3.86,0,0,1,1.49.28Z"/><path class="cls-1" d="M104.1,269.58c.06,1.88,1,3.25,3,3.25A3.17,3.17,0,0,0,110,271.2l3.13.51a5.94,5.94,0,0,1-6,3.78,6.08,6.08,0,0,1-6.5-6.47c0-3.86,2.47-6.44,6.36-6.44s6.19,2.69,6.19,6.55v.45ZM107,265a2.74,2.74,0,0,0-2.82,2.43H110A2.81,2.81,0,0,0,107,265Z"/><path class="cls-1" d="M124.1,275.1l-4.57-5.21-.36.36v4.85h-3.39v-21h3.39V267.4L123.7,263h4.6l-5.69,5.32,6.13,6.81Z"/><path class="cls-1" d="M133.67,265.88v9.22h-3.39v-9.22h-1.34V263h1.34v-4.14h3.39V263h2.38v2.91Z"/><path class="cls-1" d="M139.69,275.46a2.19,2.19,0,1,1,2.19-2.18A2.19,2.19,0,0,1,139.69,275.46ZM138,269.75V256.42h3.47v13.33Z"/><path class="cls-1" d="M30.4,311.1l-1.6-4H21.18l-1.7,4H15.61L23.7,292h2.75l7.87,19.07Zm-5.35-13.61-2.72,6.72h5.35Z"/><path class="cls-1" d="M36,311.1v-21h3.39v21Z"/><path class="cls-1" d="M42.6,311.1v-21H46v21Z"/><path class="cls-1" d="M58.51,311.1v-1.6a4.68,4.68,0,0,1-3.95,2c-3.64,0-6-3-6-6.5s2.32-6.41,5.88-6.41a5,5,0,0,1,4,1.93V299h3.41V311.1Zm-3-9.47A3.41,3.41,0,1,0,58.87,305,3.38,3.38,0,0,0,55.48,301.63Z"/><path class="cls-1" d="M80.46,311.1v-6.64c0-1.68-.36-3-2.32-3s-2.58,1.63-2.58,3.42v6.22H72.17v-21h3.39v10.41a4.41,4.41,0,0,1,3.81-2,4.68,4.68,0,0,1,3.53,1.48,4.86,4.86,0,0,1,.95,3.42v7.62Z"/><path class="cls-1" d="M93,311.49c-3.33,0-5.85-1.49-5.85-5.1V299h3.38v6.86c0,1.65.7,2.77,2.47,2.77s2.46-1.12,2.46-2.77V299h3.42v7.42C98.83,310,96.28,311.49,93,311.49Z"/><path class="cls-1" d="M105.94,311.49a6.44,6.44,0,0,1-4.62-2l1.79-2.07a4,4,0,0,0,2.86,1.43,1.43,1.43,0,0,0,1.54-1.35c0-2.07-5.41-1-5.41-5.12,0-2.46,2.05-3.84,4.34-3.84a6.28,6.28,0,0,1,4,1.29l-1.68,2a3.37,3.37,0,0,0-2-.81c-.59,0-1.29.36-1.29,1,0,1.76,5.6,1,5.6,5.12C111,310,108.54,311.49,105.94,311.49Z"/><path class="cls-1" d="M129.68,311.1v-1.6a4.66,4.66,0,0,1-3.94,2c-3.64,0-6-3-6-6.5s2.33-6.41,5.88-6.41a5,5,0,0,1,4,1.93V299h3.42V311.1Zm-5.85-14.4a2,2,0,0,1,0-4,2,2,0,1,1,0,4Zm2.83,4.93a3.41,3.41,0,1,0,3.39,3.39A3.38,3.38,0,0,0,126.66,301.63Zm3-4.93a2,2,0,0,1-2-2,2,2,0,1,1,2,2Z"/><path class="cls-1" d="M144.27,302.05a3,3,0,0,0-1.62-.42c-2.3,0-2.91,1.63-2.91,3.64v5.83h-3.39V299h3.39v1.82a4,4,0,0,1,5-1.93Z"/><path class="cls-1" d="M17.32,340.45a5.72,5.72,0,0,1-5-2.8l1.85-1.78a3.37,3.37,0,0,0,3.08,2,2.09,2.09,0,0,0,2.27-2.07c0-3-6.45-1.58-6.45-6.31a4.31,4.31,0,0,1,4.58-4.27,6.43,6.43,0,0,1,4.29,1.63l-1.5,2A3,3,0,0,0,18,327.58c-.94,0-2,.59-2,1.65,0,2.48,6.44,1.25,6.44,6.38C22.42,338.6,20.22,340.45,17.32,340.45Z"/><path class="cls-1" d="M29.38,340.29H28.14l-4.86-9.72h3l2.51,5.37,2.51-5.37h3Z"/><path class="cls-1" d="M42.38,340.1v-1.26a3.67,3.67,0,0,1-3.1,1.56c-2.86,0-4.69-2.37-4.69-5.1a4.77,4.77,0,0,1,4.62-5,4,4,0,0,1,3.17,1.52v-1.21h2.68v9.53ZM40,332.66a2.68,2.68,0,1,0,2.66,2.66A2.66,2.66,0,0,0,40,332.66Z"/><path class="cls-1" d="M54.13,340.1v-5.28c0-1.3-.29-2.29-1.81-2.29s-2,1.21-2,2.64v4.93H47.61v-9.53h2.66v1.17a3.52,3.52,0,0,1,3-1.48A3.63,3.63,0,0,1,56,331.41a3.68,3.68,0,0,1,.75,2.64v6.05Z"/><path class="cls-1" d="M61.56,335.76c0,1.48.75,2.55,2.33,2.55A2.49,2.49,0,0,0,66.16,337l2.46.39a4.66,4.66,0,0,1-4.68,3,4.78,4.78,0,0,1-5.11-5.08,4.72,4.72,0,0,1,5-5.06c3.14,0,4.86,2.11,4.86,5.15v.35Zm2.31-3.61a2.16,2.16,0,0,0-2.22,1.92h4.51A2.21,2.21,0,0,0,63.87,332.15Z"/><path class="cls-1" d="M77.25,340.1v-5.28c0-1.3-.29-2.29-1.81-2.29s-2,1.21-2,2.64v4.93H70.73v-9.53H73.4v1.17a3.49,3.49,0,0,1,3-1.48,3.63,3.63,0,0,1,2.77,1.15,3.68,3.68,0,0,1,.75,2.64v6.05Z"/><path class="cls-1" d="M94.63,340.1v-5.22c0-1.12-.18-2.35-1.59-2.35-1.56,0-1.82,1.43-1.82,2.68v4.89H88.55V335a4.43,4.43,0,0,0-.19-1.59,1.55,1.55,0,0,0-1.43-.92,1.74,1.74,0,0,0-1.5.86,3.87,3.87,0,0,0-.31,1.82v4.89H82.46v-9.53h2.66v1.08A3.68,3.68,0,0,1,88,330.26,3.26,3.26,0,0,1,91,332a3.53,3.53,0,0,1,3.12-1.74,3.11,3.11,0,0,1,2.66,1.37,4.18,4.18,0,0,1,.51,2.31v6.16Z"/><path class="cls-1" d="M107.12,340.1v-1.26a3.66,3.66,0,0,1-3.1,1.56c-2.86,0-4.69-2.37-4.69-5.1a4.77,4.77,0,0,1,4.62-5,4,4,0,0,1,3.17,1.52v-1.21h2.69v9.53Zm-4.6-11.31a1.59,1.59,0,0,1,0-3.17,1.59,1.59,0,1,1,0,3.17Zm2.23,3.87a2.68,2.68,0,1,0,2.66,2.66A2.66,2.66,0,0,0,104.75,332.66Zm2.35-3.87a1.61,1.61,0,0,1-1.58-1.59,1.59,1.59,0,0,1,3.17,0A1.59,1.59,0,0,1,107.1,328.79Z"/><path class="cls-1" d="M118.58,333a2.37,2.37,0,0,0-1.27-.33c-1.81,0-2.29,1.28-2.29,2.86v4.58h-2.66v-9.53H115V332a3.07,3.07,0,0,1,2.77-1.74,3.15,3.15,0,0,1,1.17.22Z"/><path class="cls-1" d="M126.81,340.1l-3.58-4.1-.29.29v3.81h-2.66V323.62h2.66v10.43l3.56-3.48h3.61l-4.46,4.18,4.81,5.35Z"/><path class="cls-1" d="M134.33,332.86v7.24h-2.66v-7.24h-1v-2.29h1v-3.26h2.66v3.26h1.88v2.29Z"/><path class="cls-1" d="M144.87,340.1v-1.26a3.65,3.65,0,0,1-3.1,1.56c-2.86,0-4.69-2.37-4.69-5.1a4.77,4.77,0,0,1,4.63-5,4,4,0,0,1,3.16,1.52v-1.21h2.69v9.53Zm-2.37-7.44a2.68,2.68,0,1,0,2.66,2.66A2.66,2.66,0,0,0,142.5,332.66Z"/></svg>