<svg id="Layer_1" data-name="Layer 1" xmlns="http://www.w3.org/2000/svg" viewBox="0 0 728 90"><defs><style>.cls-1{fill:#d4ac76;}</style></defs><title>text</title><path class="cls-1" d="M260.27,69.4V60.51h2.38a4.48,4.48,0,0,1,3.11,7.63,4.34,4.34,0,0,1-3.16,1.26Zm2.43-7.71h-1.19v6.52h1.22a2.87,2.87,0,0,0,2.19-1,3.28,3.28,0,0,0,.89-2.32,3.17,3.17,0,0,0-.92-2.31A3,3,0,0,0,262.7,61.7Z"/><path class="cls-1" d="M270.12,69.4V60.51h1.24V69.4Z"/><path class="cls-1" d="M273.83,61.7V60.51H281V61.7h-3V69.4h-1.24V61.7Z"/><path class="cls-1" d="M282.79,61.7V60.51H290V61.7h-3V69.4h-1.24V61.7Z"/><path class="cls-1" d="M297.5,69.4V60.51h.87l4.81,6.12V60.51h1.24V69.4h-.69l-5-6.35V69.4Z"/><path class="cls-1" d="M312.76,60.51h1.43l-3,5.31V69.4H310V65.87l-3-5.36h1.49l2.15,3.95Z"/><path class="cls-1" d="M314.72,69.4l3.57-8.89h1.12l3.5,8.89h-1.37L321,68h-4.36l-.55,1.37Zm4.13-6.85-1.73,4.3h3.42Z"/><path class="cls-1" d="M335.9,69.4V65.55h-4.32V69.4h-1.24V60.51h1.24v3.85h4.32V60.51h1.24V69.4Z"/><path class="cls-1" d="M345.75,65.5H342.1v2.71H346V69.4h-5.15V60.51h5.08V61.7H342.1v2.62h3.66Z"/><path class="cls-1" d="M349.09,69.4V60.51h1.28l2.86,4.74,2.91-4.74h1.22V69.4h-1.24V62.84l0,0-2.86,4.59-2.8-4.53h-.08V69.4Z"/><path class="cls-1" d="M368.31,69.4l-3.47-8.89h1.4l2.66,6.83,2.67-6.83h1.37l-3.48,8.89Z"/><path class="cls-1" d="M373.7,69.4l3.57-8.89h1.12l3.5,8.89h-1.37L380,68h-4.36l-.55,1.37Zm3.21-9.83a.59.59,0,0,1-.44.2.57.57,0,0,1-.44-.2.75.75,0,0,1,0-1,.57.57,0,0,1,.44-.2.59.59,0,0,1,.44.2.73.73,0,0,1,0,1Zm.92,3-1.73,4.3h3.42Zm1.54-3a.6.6,0,0,1-.88,0,.74.74,0,0,1,0-1,.6.6,0,0,1,.88,0,.74.74,0,0,1,0,1Z"/><path class="cls-1" d="M384.36,69.4V60.51h.87L390,66.64V60.51h1.24V69.4h-.69l-5-6.35V69.4Z"/><path class="cls-1" d="M393.82,61.7V60.51H401V61.7h-3V69.4H396.8V61.7Z"/><path class="cls-1" d="M401.6,69.4l3.57-8.89h1.12l3.5,8.89h-1.37L407.88,68h-4.36L403,69.4Zm4.13-6.85L404,66.85h3.42Z"/><path class="cls-1" d="M412.26,69.4V60.51h3.3a2.78,2.78,0,0,1,2,.77,2.91,2.91,0,0,1,.14,3.86A2.63,2.63,0,0,1,416,66l2.57,3.38H417L414.49,66h-1V69.4Zm3.13-7.71H413.5v3.21h1.88a1.8,1.8,0,0,0,1.26-.44,1.61,1.61,0,0,0,0-2.31A1.74,1.74,0,0,0,415.39,61.7Z"/><path class="cls-1" d="M426.29,69.4V60.51h3a2.79,2.79,0,0,1,2.06.83,2.87,2.87,0,0,1,.83,2.11,2.79,2.79,0,0,1-.85,2.08,2.87,2.87,0,0,1-2.09.83h-1.74v3Zm2.95-7.71h-1.71v3.48h1.72A1.64,1.64,0,0,0,431,63.46a1.72,1.72,0,0,0-.49-1.26A1.66,1.66,0,0,0,429.24,61.7Z"/><path class="cls-1" d="M433.37,69.4l3.57-8.89h1.12l3.5,8.89h-1.37L439.66,68H435.3l-.55,1.37Zm4.13-6.85-1.73,4.3h3.42Zm.86-2.64a1.22,1.22,0,1,1,.35-.86A1.17,1.17,0,0,1,438.36,59.91Zm-.86-.36a.46.46,0,0,0,.34-.15.49.49,0,0,0,0-.7.47.47,0,0,0-.34-.14.49.49,0,0,0-.49.5.48.48,0,0,0,.14.34A.47.47,0,0,0,437.5,59.55Z"/><path class="cls-1" d="M449,69.4V60.51h2.38a4.48,4.48,0,0,1,3.11,7.63,4.34,4.34,0,0,1-3.16,1.26Zm2.43-7.71h-1.19v6.52h1.22a2.87,2.87,0,0,0,2.19-1,3.28,3.28,0,0,0,.89-2.32,3.17,3.17,0,0,0-.92-2.31A3,3,0,0,0,451.42,61.7Z"/><path class="cls-1" d="M458.83,69.4V60.51h1.24V69.4Z"/><path class="cls-1" d="M469.28,65.54V64.35h3V65a4.57,4.57,0,0,1-4.6,4.58,4.35,4.35,0,0,1-3.24-1.33,4.79,4.79,0,0,1,0-6.56,4.35,4.35,0,0,1,3.24-1.33,4.79,4.79,0,0,1,1.87.37,4.55,4.55,0,0,1,1.52,1l-.92.94a3.15,3.15,0,0,0-2.47-1.15,3.1,3.1,0,0,0-2.36,1,3.59,3.59,0,0,0,0,4.85,3.1,3.1,0,0,0,2.36,1,3.16,3.16,0,0,0,2.13-.78,3.37,3.37,0,0,0,1.12-2.05Z"/></svg>