<svg id="Layer_1" data-name="Layer 1" xmlns="http://www.w3.org/2000/svg" viewBox="0 0 728 90"><defs><style>.cls-1{fill:#d4ac76;}</style></defs><title>text</title><path class="cls-1" d="M620.66,45V37.27h2.54a2.33,2.33,0,0,1,1.69.65,2.13,2.13,0,0,1,.67,1.6,1.82,1.82,0,0,1-.87,1.55,2.16,2.16,0,0,1,.86.69,1.64,1.64,0,0,1,.32,1,2.12,2.12,0,0,1-.68,1.64,2.42,2.42,0,0,1-1.71.62ZM623,38.56h-1V40.5h1.16a1.06,1.06,0,0,0,.77-.29,1,1,0,0,0,.3-.71.83.83,0,0,0-.33-.69A1.35,1.35,0,0,0,623,38.56Zm.22,3.1H622v2h1.23a1.25,1.25,0,0,0,.87-.29,1,1,0,0,0,.32-.75,1,1,0,0,0-.3-.73A1.23,1.23,0,0,0,623.26,41.66Z"/><path class="cls-1" d="M632.3,41.73h-2.86v2h3.14V45H628V37.27h4.5v1.29h-3v1.88h2.86Z"/><path class="cls-1" d="M636.79,45.1a3.72,3.72,0,0,1-1.46-.3,3.82,3.82,0,0,1-1.25-.84l.92-1.1a2.79,2.79,0,0,0,.85.69,2.17,2.17,0,0,0,1,.27,1.25,1.25,0,0,0,.82-.27.83.83,0,0,0,.32-.67,1.15,1.15,0,0,0-.85-1.07l-.86-.34a3.32,3.32,0,0,1-1.28-.85,2,2,0,0,1-.42-1.31,2,2,0,0,1,.66-1.47,2.24,2.24,0,0,1,1.64-.65,3.33,3.33,0,0,1,2.38.88l-.85,1.08a2,2,0,0,0-1.53-.67,1,1,0,0,0-.69.22.69.69,0,0,0-.26.54.72.72,0,0,0,.2.53,2.06,2.06,0,0,0,.66.4l.9.36a2.39,2.39,0,0,1,1.75,2.23,2.16,2.16,0,0,1-.73,1.69A2.81,2.81,0,0,1,636.79,45.1Z"/><path class="cls-1" d="M640.7,38.66V37.27h6.37v1.39h-2.46V45h-1.45V38.66Z"/><path class="cls-1" d="M647.14,45l3-7.73h1.31l3,7.73h-1.49l-.41-1.07H649L648.63,45Zm3-8.53a.62.62,0,0,1-.47.21.64.64,0,0,1-.48-.21.69.69,0,0,1,.48-1.18.63.63,0,0,1,.47.2.67.67,0,0,1,.2.49A.7.7,0,0,1,650.11,36.47Zm.67,3-1.24,3.21H652Zm1.63-3a.74.74,0,0,1-1,0,.66.66,0,0,1-.21-.49.65.65,0,0,1,.21-.49.76.76,0,0,1,1,0,.65.65,0,0,1,.21.49A.66.66,0,0,1,652.41,36.47Z"/><path class="cls-1" d="M656,45V37.27h1.45v6.34h2.84V45Z"/><path class="cls-1" d="M662.19,45V37.27h1.45v6.34h2.84V45Z"/><path class="cls-1" d="M674.29,45l-3-7.73h1.51L675,42.83l2.1-5.56h1.47L675.6,45Z"/><path class="cls-1" d="M678.7,45l3-7.73H683L686,45h-1.49l-.41-1.07h-3.46L680.19,45Zm3.64-5.57-1.24,3.21h2.47ZM683.46,36a1.11,1.11,0,0,1-1.12,1.11,1.09,1.09,0,0,1-.79-.32,1.12,1.12,0,0,1,0-1.58,1.13,1.13,0,0,1,1.58,0A1.07,1.07,0,0,1,683.46,36Zm-1.4.29a.4.4,0,0,0,.29.12.38.38,0,0,0,.29-.12.4.4,0,0,0,.12-.29.4.4,0,0,0-.12-.29.4.4,0,0,0-.57,0,.41.41,0,0,0,0,.58Z"/><path class="cls-1" d="M687.57,45V37.27h3a2.61,2.61,0,0,1,1.86.7,2.41,2.41,0,0,1,.74,1.83,2.32,2.32,0,0,1-.55,1.57,2.49,2.49,0,0,1-1.44.82l2.08,2.8h-1.63l-2-2.76H689V45Zm2.8-6.44H689v2.52h1.35a1.43,1.43,0,0,0,1-.34,1.15,1.15,0,0,0,.38-.89,1.22,1.22,0,0,0-.38-.92A1.38,1.38,0,0,0,690.37,38.56Z"/><path class="cls-1" d="M631.9,56V48.27h1l3.8,4.86V48.27h1.45V56h-1l-3.85-4.92V56Z"/><path class="cls-1" d="M644.82,48.27h1.56l-2.56,4.59V56h-1.45V52.91l-2.59-4.64h1.59l1.74,3.21Z"/><path class="cls-1" d="M646.25,56l3-7.73h1.31l3,7.73H652l-.41-1.07h-3.46L647.74,56Zm3.64-5.57-1.24,3.21h2.47Z"/><path class="cls-1" d="M659,56V48.27h2.54a2.33,2.33,0,0,1,1.69.65,2.13,2.13,0,0,1,.67,1.6,1.82,1.82,0,0,1-.87,1.55,2.16,2.16,0,0,1,.86.69,1.64,1.64,0,0,1,.32,1,2.12,2.12,0,0,1-.68,1.64,2.42,2.42,0,0,1-1.71.62Zm2.38-6.44h-1V51.5h1.16a1.06,1.06,0,0,0,.77-.29,1,1,0,0,0,.3-.71.83.83,0,0,0-.33-.69A1.35,1.35,0,0,0,661.42,49.56Zm.22,3.1h-1.25v2h1.23a1.25,1.25,0,0,0,.87-.29,1,1,0,0,0,.32-.75,1,1,0,0,0-.3-.73A1.23,1.23,0,0,0,661.64,52.66Z"/><path class="cls-1" d="M673.86,52.13a4,4,0,1,1-1.18-2.83A3.85,3.85,0,0,1,673.86,52.13ZM668,54a2.54,2.54,0,0,0,3.63,0,2.66,2.66,0,0,0,0-3.7,2.54,2.54,0,0,0-3.63,0,2.67,2.67,0,0,0,0,3.7Z"/><path class="cls-1" d="M675.88,56V48.27h1.34v3.41l3-3.41H682l-2.73,3.08L682,56h-1.67l-2.11-3.53-1,1.17V56Z"/></svg>