<svg id="Layer_1" data-name="Layer 1" xmlns="http://www.w3.org/2000/svg" viewBox="0 0 728 90"><defs><style>.cls-1{fill:#d4ac76;}</style></defs><title>text</title><path class="cls-1" d="M222.74,47V21.49H230a12.5,12.5,0,0,1,9,3.65,12.28,12.28,0,0,1,3.75,9.19,11.93,11.93,0,0,1-3.8,9.11A13,13,0,0,1,229.76,47Zm7.33-21.25h-2.91v17h2.95a7.35,7.35,0,0,0,5.64-2.47A8.65,8.65,0,0,0,238,34.2a8.41,8.41,0,0,0-2.3-6A7.48,7.48,0,0,0,230.08,25.75Z"/><path class="cls-1" d="M250.27,47V21.49h4.78V47Z"/><path class="cls-1" d="M261.22,26.08V21.49h21v4.59h-8.12V47h-4.79V26.08Z"/><path class="cls-1" d="M286.73,26.08V21.49h21v4.59h-8.12V47h-4.79V26.08Z"/><path class="cls-1" d="M327.65,47V21.49h4.78V42.41h9.37V47Z"/><path class="cls-1" d="M348.71,47V21.49h4.78V47Z"/><path class="cls-1" d="M369.18,47l-9.75-25.51h5l7,18.34,6.92-18.34h4.84L373.52,47Z"/><path class="cls-1" d="M395,47.33a12.27,12.27,0,0,1-4.81-1,12.58,12.58,0,0,1-4.13-2.79l3-3.64a9.27,9.27,0,0,0,2.81,2.28,7.19,7.19,0,0,0,3.36.89A4.13,4.13,0,0,0,398,42.2a2.74,2.74,0,0,0,1.06-2.2q0-2.38-2.8-3.54l-2.84-1.14a10.93,10.93,0,0,1-4.24-2.81,6.5,6.5,0,0,1-1.37-4.34A6.63,6.63,0,0,1,390,23.32a7.4,7.4,0,0,1,5.41-2.13,11,11,0,0,1,7.85,2.91l-2.82,3.56a6.57,6.57,0,0,0-5-2.21,3.41,3.41,0,0,0-2.29.73,2.27,2.27,0,0,0-.86,1.8,2.38,2.38,0,0,0,.67,1.75A6.78,6.78,0,0,0,395.1,31l3,1.19q5.67,2.27,5.78,7.36a7.14,7.14,0,0,1-2.4,5.58A9.29,9.29,0,0,1,395,47.33Z"/><path class="cls-1" d="M417.89,47l-9.75-25.51h5l7,18.34L427,21.49h4.84L422.23,47Z"/><path class="cls-1" d="M452.13,36.21h-9.44v6.53h10.36V47H437.9V21.49h14.85v4.26H442.69V32h9.44Z"/><path class="cls-1" d="M460.81,47V21.49h10a8.6,8.6,0,0,1,6.14,2.32,7.94,7.94,0,0,1,2.45,6A7.66,7.66,0,0,1,477.56,35a8.21,8.21,0,0,1-4.76,2.72L479.65,47h-5.38l-6.62-9.11h-2.06V47ZM470,25.75h-4.46v8.32H470a4.72,4.72,0,0,0,3.32-1.13A3.81,3.81,0,0,0,474.6,30a4,4,0,0,0-1.27-3A4.56,4.56,0,0,0,470,25.75Z"/><path class="cls-1" d="M486.84,47V21.49h4.42V32.74L501,21.49h5.91l-9,10.18L507.14,47h-5.51l-6.95-11.65-3.41,3.86V47Z"/></svg>