<svg id="Layer_1" data-name="Layer 1" xmlns="http://www.w3.org/2000/svg" viewBox="0 0 980 240"><defs><style>.cls-1{fill:#d80201;}</style></defs><title>text</title><path class="cls-1" d="M273,137.46V122H258.36v15.44H251.6V102.78h6.76v13.41H273V102.78h6.76v34.68Z"/><path class="cls-1" d="M304,137.46v-3a8.72,8.72,0,0,1-7.33,3.69c-6.76,0-11.08-5.62-11.08-12.07,0-6.29,4.32-11.9,10.92-11.9A9.38,9.38,0,0,1,304,117.8v-2.86h6.34v22.52Zm-5.62-17.58a6.32,6.32,0,1,0,6.29,6.3A6.28,6.28,0,0,0,298.35,119.88Z"/><path class="cls-1" d="M316.34,137.46V98.51h6.29v39Z"/><path class="cls-1" d="M340.11,137.93h-2.92l-11.49-23h7.07l5.93,12.69,5.93-12.69h7.07Z"/><path class="cls-1" d="M370.84,137.46v-3a8.72,8.72,0,0,1-7.33,3.69c-6.76,0-11.08-5.62-11.08-12.07,0-6.29,4.32-11.9,10.92-11.9a9.38,9.38,0,0,1,7.49,3.58v-2.86h6.34v22.52Zm-5.62-17.58a6.32,6.32,0,1,0,6.3,6.3A6.28,6.28,0,0,0,365.22,119.88Z"/><path class="cls-1" d="M410.05,138.19a9,9,0,0,1-7.54-3.69v15h-6.3V114.94h6.3v2.86a9,9,0,0,1,7.38-3.58c6.71,0,11.13,5.56,11.13,12C421,132.52,416.65,138.19,410.05,138.19Zm-1.88-18.31a6.32,6.32,0,1,0,6.3,6.3A6.28,6.28,0,0,0,408.17,119.88Z"/><path class="cls-1" d="M440.52,120.66a5.59,5.59,0,0,0-3-.78c-4.26,0-5.41,3-5.41,6.76v10.82H425.8V114.94h6.29v3.38c1.46-2.54,3.54-4.1,6.56-4.1a7.07,7.07,0,0,1,2.75.52Z"/><path class="cls-1" d="M447.59,109.22a3.8,3.8,0,1,1,0-7.59,3.8,3.8,0,0,1,0,7.59Zm-3.17,28.24V114.94h6.29v22.52Z"/><path class="cls-1" d="M463.81,138.19a12,12,0,0,1-8.58-3.75l3.33-3.84a7.33,7.33,0,0,0,5.3,2.65,2.65,2.65,0,0,0,2.86-2.5c0-3.85-10-1.92-10-9.51,0-4.58,3.79-7.13,8.06-7.13a11.62,11.62,0,0,1,7.33,2.39L469,120.2a6.23,6.23,0,0,0-3.74-1.51c-1.1,0-2.4.67-2.4,1.92,0,3.28,10.4,1.82,10.4,9.52C473.22,135.38,468.65,138.19,463.81,138.19Z"/><path class="cls-1" d="M483,127.22c.1,3.48,1.77,6,5.51,6a5.91,5.91,0,0,0,5.36-3l5.82.94c-2,4.83-6,7-11.08,7-7.28,0-12.06-4.68-12.06-12s4.58-12,11.8-12c7.44,0,11.5,5,11.5,12.16v.84Zm5.46-8.53a5.11,5.11,0,0,0-5.25,4.52h10.66C493.19,120.4,491.37,118.69,488.41,118.69Z"/><path class="cls-1" d="M511,120.35v17.11h-6.3V120.35h-2.49v-5.41h2.49v-7.69H511v7.69h4.42v5.41Z"/><path class="cls-1" d="M545.5,138.19A9,9,0,0,1,538,134.5v15h-6.29V114.94H538v2.86a9,9,0,0,1,7.39-3.58c6.71,0,11.13,5.56,11.13,12C556.48,132.52,552.11,138.19,545.5,138.19Zm-1.87-18.31a6.32,6.32,0,1,0,6.29,6.3A6.28,6.28,0,0,0,543.63,119.88Z"/><path class="cls-1" d="M578.47,137.46v-3a8.72,8.72,0,0,1-7.33,3.69c-6.76,0-11.08-5.62-11.08-12.07,0-6.29,4.32-11.9,10.92-11.9a9.38,9.38,0,0,1,7.49,3.58v-2.86h6.34v22.52Zm-5.62-17.58a6.32,6.32,0,1,0,6.3,6.3A6.28,6.28,0,0,0,572.85,119.88ZM572,111a4.68,4.68,0,0,1,0-9.36,4.68,4.68,0,0,1,0,9.36Zm0-6.5a1.82,1.82,0,1,0,1.82,1.82A1.78,1.78,0,0,0,572,104.49Z"/><path class="cls-1" d="M617.52,138.19a8.86,8.86,0,0,1-7.38-3.69v3h-6.3V98.51h6.3V117.8c2.23-2.34,4.26-3.58,7.54-3.58,6.6,0,11,5.61,11,11.9C628.65,132.57,624.28,138.19,617.52,138.19Zm-1.71-18.31a6.32,6.32,0,1,0,6.29,6.3A6.29,6.29,0,0,0,615.81,119.88Z"/><path class="cls-1" d="M648.15,120.66a5.59,5.59,0,0,0-3-.78c-4.26,0-5.41,3-5.41,6.76v10.82h-6.29V114.94h6.29v3.38c1.46-2.54,3.54-4.1,6.56-4.1a7.07,7.07,0,0,1,2.75.52Z"/><path class="cls-1" d="M669.36,137.46v-3a8.69,8.69,0,0,1-7.33,3.69c-6.76,0-11.07-5.62-11.07-12.07,0-6.29,4.31-11.9,10.92-11.9a9.36,9.36,0,0,1,7.48,3.58v-2.86h6.35v22.52Zm-5.61-17.58a6.32,6.32,0,1,0,6.29,6.3A6.28,6.28,0,0,0,663.75,119.88Z"/><path class="cls-1" d="M688.92,138.19a12,12,0,0,1-8.59-3.75l3.33-3.84a7.35,7.35,0,0,0,5.31,2.65,2.66,2.66,0,0,0,2.86-2.5c0-3.85-10-1.92-10-9.51,0-4.58,3.8-7.13,8.06-7.13a11.6,11.6,0,0,1,7.33,2.39l-3.12,3.7a6.23,6.23,0,0,0-3.74-1.51c-1.09,0-2.39.67-2.39,1.92,0,3.28,10.4,1.82,10.4,9.52C698.33,135.38,693.75,138.19,688.92,138.19Z"/><path class="cls-1" d="M718.24,137.46l-8.47-9.67-.68.67v9H702.8V98.51h6.29v24.65l8.42-8.22H726l-10.55,9.88,11.39,12.64Z"/><path class="cls-1" d="M745.7,137.46v-3a8.72,8.72,0,0,1-7.33,3.69c-6.76,0-11.08-5.62-11.08-12.07,0-6.29,4.32-11.9,10.92-11.9a9.38,9.38,0,0,1,7.49,3.58v-2.86H752v22.52Zm-5.62-17.58a6.32,6.32,0,1,0,6.3,6.3A6.28,6.28,0,0,0,740.08,119.88Z"/><path class="cls-1" d="M786.83,137.46V125.14c0-2.66-.41-5.57-3.74-5.57-3.7,0-4.32,3.38-4.32,6.35v11.54h-6.29v-12a10,10,0,0,0-.47-3.74,3.63,3.63,0,0,0-3.38-2.19,4.12,4.12,0,0,0-3.54,2,9.43,9.43,0,0,0-.72,4.32v11.54h-6.3V114.94h6.3v2.55a8.64,8.64,0,0,1,6.86-3.27,7.65,7.65,0,0,1,7,4.1,8.33,8.33,0,0,1,7.38-4.1,7.41,7.41,0,0,1,6.3,3.22,9.92,9.92,0,0,1,1.19,5.46v14.56Z"/><path class="cls-1" d="M802.22,109.22a3.8,3.8,0,1,1,3.75-3.79A3.81,3.81,0,0,1,802.22,109.22Zm-3.17,28.24V114.94h6.29v22.52Z"/><path class="cls-1" d="M826.66,137.46V125c0-3.07-.67-5.41-4.26-5.41-3.9,0-4.84,2.86-4.84,6.24v11.65h-6.29V114.94h6.29v2.76c2.08-2.39,3.85-3.48,7.07-3.48a8.66,8.66,0,0,1,6.56,2.7c1.61,1.87,1.76,3.9,1.76,6.24v14.3Z"/></svg>