<?xml version="1.0" encoding="utf-8"?>
<!-- Generator: Adobe Illustrator 19.2.0, SVG Export Plug-In . SVG Version: 6.00 Build 0)  -->
<svg version="1.1" id="Layer_1" xmlns="http://www.w3.org/2000/svg" xmlns:xlink="http://www.w3.org/1999/xlink" x="0px" y="0px"
	 viewBox="0 0 728 90" enable-background="new 0 0 728 90" xml:space="preserve">
<g>
	<path fill="#00A8DC" d="M376.219,72.798c-0.19-0.68-0.25-1.13-0.27-1.439h-0.04c-0.02,0.31-0.08,0.77-0.28,1.439l-0.79,2.708
		c-0.16,0.05-0.35,0.07-0.569,0.07c-0.21,0-0.41-0.021-0.58-0.07l-1.509-5.117c0,0,0.18-0.07,0.5-0.07c0.34,0,0.43,0.07,0.43,0.07
		l0.95,3.188c0.13,0.43,0.18,0.77,0.21,0.979h0.03c0.04-0.22,0.09-0.54,0.22-0.979l0.92-3.188c0,0,0.24-0.07,0.54-0.07
		c0.33,0,0.49,0.07,0.49,0.07l0.89,3.168c0.13,0.45,0.18,0.79,0.2,1h0.03c0.04-0.21,0.11-0.53,0.25-0.989l0.939-3.179
		c0,0,0.16-0.07,0.44-0.07c0.31,0,0.43,0.07,0.43,0.07l-1.509,5.117c-0.18,0.05-0.36,0.07-0.57,0.07c-0.209,0-0.39-0.021-0.58-0.07
		L376.219,72.798z"/>
	<path fill="#00A8DC" d="M384.188,72.798c-0.19-0.68-0.25-1.13-0.27-1.439h-0.04c-0.02,0.31-0.08,0.77-0.28,1.439l-0.79,2.708
		c-0.16,0.05-0.35,0.07-0.569,0.07c-0.21,0-0.41-0.021-0.58-0.07l-1.509-5.117c0,0,0.18-0.07,0.5-0.07c0.34,0,0.43,0.07,0.43,0.07
		l0.95,3.188c0.13,0.43,0.18,0.77,0.21,0.979h0.03c0.04-0.22,0.09-0.54,0.22-0.979l0.92-3.188c0,0,0.24-0.07,0.54-0.07
		c0.33,0,0.49,0.07,0.49,0.07l0.89,3.168c0.13,0.45,0.18,0.79,0.2,1h0.03c0.04-0.21,0.11-0.53,0.25-0.989l0.939-3.179
		c0,0,0.16-0.07,0.44-0.07c0.31,0,0.43,0.07,0.43,0.07l-1.509,5.117c-0.18,0.05-0.36,0.07-0.57,0.07c-0.209,0-0.39-0.021-0.58-0.07
		L384.188,72.798z"/>
	<path fill="#00A8DC" d="M392.159,72.798c-0.19-0.68-0.25-1.13-0.27-1.439h-0.04c-0.02,0.31-0.08,0.77-0.28,1.439l-0.79,2.708
		c-0.16,0.05-0.35,0.07-0.569,0.07c-0.21,0-0.41-0.021-0.58-0.07l-1.509-5.117c0,0,0.18-0.07,0.5-0.07c0.34,0,0.43,0.07,0.43,0.07
		l0.95,3.188c0.13,0.43,0.18,0.77,0.21,0.979h0.03c0.04-0.22,0.09-0.54,0.22-0.979l0.92-3.188c0,0,0.24-0.07,0.54-0.07
		c0.33,0,0.49,0.07,0.49,0.07l0.89,3.168c0.13,0.45,0.18,0.79,0.2,1h0.03c0.04-0.21,0.11-0.53,0.25-0.989l0.939-3.179
		c0,0,0.16-0.07,0.44-0.07c0.31,0,0.43,0.07,0.43,0.07l-1.509,5.117c-0.18,0.05-0.36,0.07-0.57,0.07c-0.209,0-0.39-0.021-0.58-0.07
		L392.159,72.798z"/>
	<path fill="#00A8DC" d="M397.17,75.506c0,0-0.18,0.07-0.52,0.07c-0.36,0-0.52-0.07-0.52-0.07v-0.939c0,0,0.16-0.07,0.52-0.07
		c0.34,0,0.52,0.07,0.52,0.07V75.506z"/>
	<path fill="#00A8DC" d="M400.37,70.219c1.449,0,1.909,0.649,1.909,1.939v3.348c0,0-0.11,0.07-0.39,0.07c-0.25,0-0.4-0.07-0.4-0.07
		l-0.15-0.64c-0.26,0.53-0.81,0.81-1.569,0.81c-0.939,0-1.549-0.55-1.549-1.669c0-1.09,0.669-1.569,1.919-1.569
		c0.45,0,0.879,0.03,1.139,0.061v-0.37c0-0.68-0.26-1.069-1.029-1.069c-0.7,0-1.339,0.25-1.339,0.25c-0.01-0.011-0.13-0.09-0.23-0.3
		c-0.09-0.21-0.06-0.41-0.06-0.42C398.621,70.589,399.37,70.219,400.37,70.219z M400.27,73.117c-0.67,0-1.02,0.26-1.02,0.89
		c0,0.649,0.33,0.899,0.87,0.899c0.79,0,1.159-0.67,1.159-1.379v-0.35C401.049,73.157,400.649,73.117,400.27,73.117z"/>
	<path fill="#00A8DC" d="M403.661,70.389c0,0,0.17-0.07,0.5-0.07c0.34,0,0.5,0.07,0.5,0.07v3.598c0,0.561,0.29,0.88,0.93,0.88
		c0.439,0,0.859-0.229,1.129-0.64v-3.838c0,0,0.18-0.07,0.5-0.07c0.35,0,0.5,0.07,0.5,0.07v5.117c0,0-0.15,0.07-0.5,0.07
		c-0.32,0-0.5-0.07-0.5-0.07v-0.46c-0.36,0.41-0.89,0.63-1.509,0.63c-1,0-1.549-0.609-1.549-1.509V70.389z"/>
	<path fill="#00A8DC" d="M410.52,73.687c0,0.91,0.29,1.18,1,1.18c0.2,0,0.42-0.04,0.42-0.04s0.07,0.17,0.07,0.4
		c0,0.229-0.05,0.359-0.05,0.359c-0.18,0.05-0.45,0.09-0.72,0.09c-1.229,0-1.719-0.67-1.719-1.938v-2.669h-0.77
		c0,0-0.06-0.14-0.06-0.37c0-0.249,0.06-0.38,0.06-0.38h0.77v-0.909c0.26-0.16,0.63-0.229,1-0.2v1.109h1.299
		c0,0,0.06,0.131,0.06,0.37c0,0.23-0.06,0.38-0.06,0.38h-1.299V73.687z"/>
	<path fill="#00A8DC" d="M414.959,70.219c1.379,0,2.219,0.75,2.219,2.729c0,1.979-0.85,2.729-2.219,2.729
		c-1.37,0-2.219-0.749-2.219-2.729C412.74,70.969,413.59,70.219,414.959,70.219z M414.959,70.988c-0.73,0-1.2,0.42-1.2,1.959
		s0.47,1.959,1.2,1.959c0.729,0,1.189-0.42,1.189-1.959S415.689,70.988,414.959,70.988z"/>
	<path fill="#00A8DC" d="M420.06,70.219c0.979,0,1.409,0.27,1.409,0.27c0,0.261-0.09,0.55-0.26,0.71c0,0-0.479-0.16-1.049-0.16
		c-0.68,0-1.02,0.25-1.02,0.72c0,0.49,0.63,0.61,1.259,0.819c0.65,0.21,1.33,0.521,1.33,1.5c0,1.009-0.63,1.599-1.899,1.599
		c-1.049,0-1.669-0.359-1.669-0.359c0-0.29,0.09-0.57,0.27-0.74c0,0,0.65,0.25,1.349,0.25c0.61,0,0.959-0.229,0.959-0.72
		c0-0.55-0.549-0.669-1.139-0.839c-0.68-0.2-1.419-0.49-1.419-1.479C418.18,70.849,418.79,70.219,420.06,70.219z"/>
	<path fill="#00A8DC" d="M423.67,73.257c0.08,1.189,0.56,1.569,1.389,1.569c0.709,0,1.179-0.29,1.179-0.29
		c0.18,0.16,0.31,0.43,0.32,0.72c0,0-0.57,0.42-1.659,0.42c-1.539,0-2.259-0.949-2.259-2.759c0-1.889,0.89-2.698,2.219-2.698
		c1.229,0,1.979,0.68,1.979,2.009c0,0.63-0.11,1.029-0.11,1.029H423.67z M424.859,71.009c-0.649,0-1.109,0.43-1.189,1.539h2.139
		c0.01-0.08,0.03-0.24,0.03-0.45C425.838,71.508,425.599,71.009,424.859,71.009z"/>
	<path fill="#00A8DC" d="M430.229,70.229c0.37,0,0.65,0.11,0.87,0.25c-0.03,0.36-0.17,0.62-0.44,0.84
		c-0.189-0.14-0.39-0.21-0.62-0.21c-0.39,0-0.77,0.3-1.029,0.76v3.638c0,0-0.17,0.07-0.5,0.07c-0.35,0-0.5-0.07-0.5-0.07v-5.117
		c0,0,0.15-0.07,0.5-0.07c0.33,0,0.5,0.07,0.5,0.07v0.689C429.39,70.449,429.83,70.229,430.229,70.229z"/>
	<path fill="#00A8DC" d="M433.529,73.537c0.19,0.56,0.28,1.069,0.28,1.069h0.04c0,0,0.12-0.489,0.31-1.069l1.089-3.148
		c0,0,0.16-0.07,0.45-0.07c0.31,0,0.47,0.07,0.47,0.07l-1.759,5.117c0,0-0.25,0.07-0.6,0.07c-0.37,0-0.6-0.07-0.6-0.07l-1.799-5.117
		c0,0,0.19-0.07,0.52-0.07c0.35,0,0.52,0.07,0.52,0.07L433.529,73.537z"/>
	<path fill="#00A8DC" d="M438.149,69.31c0,0-0.18,0.069-0.52,0.069c-0.36,0-0.52-0.069-0.52-0.069V68.37c0,0,0.16-0.07,0.52-0.07
		c0.34,0,0.52,0.07,0.52,0.07V69.31z M438.129,75.506c0,0-0.17,0.07-0.5,0.07c-0.35,0-0.5-0.07-0.5-0.07v-5.117
		c0,0,0.15-0.07,0.5-0.07c0.33,0,0.5,0.07,0.5,0.07V75.506z"/>
	<path fill="#00A8DC" d="M440.41,72.947c0,1.31,0.419,1.879,1.379,1.879c0.55,0,0.939-0.17,0.939-0.17
		c0.17,0.15,0.28,0.44,0.29,0.72c0,0-0.44,0.3-1.439,0.3c-1.459,0-2.199-0.949-2.199-2.729s0.74-2.729,2.199-2.729
		c0.959,0,1.339,0.25,1.339,0.25c0,0.27-0.11,0.55-0.29,0.72c0,0-0.35-0.15-0.879-0.15C440.79,71.038,440.41,71.648,440.41,72.947z"
		/>
	<path fill="#00A8DC" d="M444.88,73.257c0.08,1.189,0.56,1.569,1.389,1.569c0.709,0,1.179-0.29,1.179-0.29
		c0.18,0.16,0.31,0.43,0.32,0.72c0,0-0.57,0.42-1.659,0.42c-1.539,0-2.259-0.949-2.259-2.759c0-1.889,0.89-2.698,2.219-2.698
		c1.229,0,1.979,0.68,1.979,2.009c0,0.63-0.11,1.029-0.11,1.029H444.88z M446.069,71.009c-0.649,0-1.109,0.43-1.189,1.539h2.139
		c0.01-0.08,0.03-0.24,0.03-0.45C447.048,71.508,446.809,71.009,446.069,71.009z"/>
	<path fill="#00A8DC" d="M450.219,70.868c0.28-0.409,0.729-0.649,1.439-0.649c1.139,0,1.879,0.689,1.879,2.729
		s-0.74,2.729-1.879,2.729c-0.71,0-1.16-0.24-1.439-0.649v0.479c0,0-0.17,0.07-0.51,0.07c-0.33,0-0.49-0.07-0.49-0.07V68.15
		c0,0,0.16-0.07,0.49-0.07c0.34,0,0.51,0.07,0.51,0.07V70.868z M451.309,71.038c-0.7,0-1.089,0.58-1.089,1.26v1.279
		c0,0.689,0.39,1.279,1.089,1.279c0.8,0,1.199-0.42,1.199-1.909S452.108,71.038,451.309,71.038z"/>
	<path fill="#00A8DC" d="M456.769,70.219c1.379,0,2.219,0.75,2.219,2.729c0,1.979-0.85,2.729-2.219,2.729
		c-1.37,0-2.219-0.749-2.219-2.729C454.55,70.969,455.399,70.219,456.769,70.219z M456.769,70.988c-0.73,0-1.2,0.42-1.2,1.959
		s0.47,1.959,1.2,1.959c0.729,0,1.189-0.42,1.189-1.959S457.499,70.988,456.769,70.988z"/>
	<path fill="#00A8DC" d="M461.479,73.687c0,0.91,0.29,1.18,1,1.18c0.2,0,0.42-0.04,0.42-0.04s0.07,0.17,0.07,0.4
		c0,0.229-0.05,0.359-0.05,0.359c-0.18,0.05-0.45,0.09-0.72,0.09c-1.229,0-1.719-0.67-1.719-1.938v-2.669h-0.77
		c0,0-0.06-0.14-0.06-0.37c0-0.249,0.06-0.38,0.06-0.38h0.77v-0.909c0.26-0.16,0.63-0.229,1-0.2v1.109h1.299
		c0,0,0.06,0.131,0.06,0.37c0,0.23-0.06,0.38-0.06,0.38h-1.299V73.687z"/>
	<path fill="#00A8DC" d="M466.858,70.389c0,0,0.2-0.07,0.509-0.07c0.28,0,0.49,0.061,0.49,0.061l-1.539,2.389l1.769,2.738
		c0,0-0.22,0.08-0.56,0.08s-0.54-0.08-0.54-0.08l-1.5-2.299h-0.56v2.299c0,0-0.2,0.07-0.49,0.07c-0.32,0-0.51-0.07-0.51-0.07V68.13
		c0,0,0.2-0.05,0.51-0.05c0.27,0,0.49,0.05,0.49,0.05v4.328h0.57L466.858,70.389z"/>
	<path fill="#00A8DC" d="M471.319,76.346c-0.36,1.1-0.71,1.729-1.789,1.729c-0.33,0-0.55-0.1-0.55-0.1c0-0.01-0.07-0.17-0.07-0.37
		c0-0.22,0.07-0.39,0.08-0.399c0,0,0.22,0.04,0.45,0.04c0.45,0,0.68-0.12,0.979-1.06l0.209-0.609c-0.1-0.01-0.209-0.021-0.32-0.07
		l-1.899-5.117c0,0,0.19-0.07,0.52-0.07c0.34,0,0.52,0.07,0.52,0.07l1.14,3.038c0.25,0.69,0.35,1.17,0.35,1.17h0.04
		c0,0,0.1-0.47,0.32-1.159l0.989-3.049c0,0,0.16-0.07,0.49-0.07c0.29,0,0.47,0.07,0.47,0.07L471.319,76.346z"/>
	<path fill="#00A8DC" d="M476.418,70.229c0.37,0,0.65,0.11,0.87,0.25c-0.03,0.36-0.17,0.62-0.44,0.84
		c-0.189-0.14-0.39-0.21-0.62-0.21c-0.39,0-0.77,0.3-1.029,0.76v3.638c0,0-0.17,0.07-0.5,0.07c-0.35,0-0.5-0.07-0.5-0.07v-5.117
		c0,0,0.15-0.07,0.5-0.07c0.33,0,0.5,0.07,0.5,0.07v0.689C475.579,70.449,476.019,70.229,476.418,70.229z"/>
	<path fill="#00A8DC" d="M479.889,70.219c1.449,0,1.909,0.649,1.909,1.939v3.348c0,0-0.11,0.07-0.39,0.07c-0.25,0-0.4-0.07-0.4-0.07
		l-0.15-0.64c-0.26,0.53-0.81,0.81-1.569,0.81c-0.939,0-1.549-0.55-1.549-1.669c0-1.09,0.669-1.569,1.919-1.569
		c0.45,0,0.879,0.03,1.139,0.061v-0.37c0-0.68-0.26-1.069-1.029-1.069c-0.7,0-1.339,0.25-1.339,0.25c-0.01-0.011-0.13-0.09-0.23-0.3
		c-0.09-0.21-0.06-0.41-0.06-0.42C478.14,70.589,478.89,70.219,479.889,70.219z M479.789,73.117c-0.67,0-1.02,0.26-1.02,0.89
		c0,0.649,0.33,0.899,0.87,0.899c0.79,0,1.159-0.67,1.159-1.379v-0.35C480.568,73.157,480.169,73.117,479.789,73.117z"/>
	<path fill="#00A8DC" d="M484.179,75.506c0,0-0.18,0.07-0.52,0.07c-0.36,0-0.52-0.07-0.52-0.07v-0.939c0,0,0.16-0.07,0.52-0.07
		c0.34,0,0.52,0.07,0.52,0.07V75.506z"/>
	<path fill="#00A8DC" d="M487.209,70.219c0.979,0,1.409,0.27,1.409,0.27c0,0.261-0.09,0.55-0.26,0.71c0,0-0.479-0.16-1.049-0.16
		c-0.68,0-1.02,0.25-1.02,0.72c0,0.49,0.63,0.61,1.259,0.819c0.65,0.21,1.33,0.521,1.33,1.5c0,1.009-0.63,1.599-1.899,1.599
		c-1.049,0-1.669-0.359-1.669-0.359c0-0.29,0.09-0.57,0.27-0.74c0,0,0.65,0.25,1.349,0.25c0.61,0,0.959-0.229,0.959-0.72
		c0-0.55-0.549-0.669-1.139-0.839c-0.68-0.2-1.419-0.49-1.419-1.479C485.33,70.849,485.939,70.219,487.209,70.219z"/>
	<path fill="#00A8DC" d="M490.819,73.257c0.08,1.189,0.56,1.569,1.389,1.569c0.709,0,1.179-0.29,1.179-0.29
		c0.18,0.16,0.31,0.43,0.32,0.72c0,0-0.57,0.42-1.659,0.42c-1.539,0-2.259-0.949-2.259-2.759c0-1.889,0.89-2.698,2.219-2.698
		c1.229,0,1.979,0.68,1.979,2.009c0,0.63-0.11,1.029-0.11,1.029H490.819z M492.008,71.009c-0.649,0-1.109,0.43-1.189,1.539h2.139
		c0.01-0.08,0.03-0.24,0.03-0.45C492.988,71.508,492.748,71.009,492.008,71.009z"/>
</g>
</svg>
