<?xml version="1.0" encoding="utf-8"?>
<!-- Generator: Adobe Illustrator 19.2.0, SVG Export Plug-In . SVG Version: 6.00 Build 0)  -->
<svg version="1.1" id="Layer_1" xmlns="http://www.w3.org/2000/svg" xmlns:xlink="http://www.w3.org/1999/xlink" x="0px" y="0px"
	 viewBox="0 0 728 90" enable-background="new 0 0 728 90" xml:space="preserve">
<g>
	<path fill="#FFFFFF" d="M661.2,35.364c1.547,0,2.351,1.008,2.351,2.375c0,0.995-0.527,1.547-0.959,1.823
		c0.516,0.264,1.211,0.815,1.211,2.003c0,1.451-0.924,2.435-2.555,2.435h-3.262v-8.636H661.2z M660.936,39.166
		c0.973,0,1.368-0.6,1.368-1.427c0-0.852-0.384-1.428-1.38-1.428h-1.715v2.854H660.936z M661.02,43.053
		c1.08,0,1.523-0.552,1.523-1.487c0-1.008-0.479-1.487-1.535-1.487h-1.799v2.975H661.02z"/>
	<path fill="#FFFFFF" d="M668.531,35.244c2.076,0,3.383,1.332,3.383,4.438c0,3.105-1.283,4.438-3.383,4.438
		c-2.098,0-3.381-1.332-3.381-4.438C665.15,36.6,666.457,35.244,668.531,35.244z M668.531,36.264c-1.271,0-2.098,0.768-2.098,3.419
		c0,2.65,0.827,3.418,2.098,3.418c1.283,0,2.1-0.768,2.1-3.418C670.631,37.031,669.814,36.264,668.531,36.264z"/>
	<path fill="#FFFFFF" d="M678.251,35.448c0.156-0.036,0.372-0.084,0.612-0.084c0.252,0,0.479,0.048,0.659,0.084l-2.723,3.934
		l3.083,4.534c0,0-0.252,0.084-0.721,0.084c-0.443,0-0.707-0.084-0.707-0.084l-2.675-3.91h-0.876v3.91c0,0-0.18,0.084-0.611,0.084
		c-0.383,0-0.611-0.084-0.611-0.084v-8.468c0,0,0.216-0.084,0.623-0.084c0.396,0,0.6,0.084,0.6,0.084v3.574h0.876L678.251,35.448z"
		/>
	<path fill="#FFFFFF" d="M683.939,35.364c0.456,0,0.721,0.084,0.721,0.084l3.01,8.468c0,0-0.216,0.084-0.66,0.084
		c-0.407,0-0.6-0.084-0.6-0.084l-0.743-2.111h-3.55l-0.756,2.111c0,0-0.204,0.084-0.588,0.084c-0.371,0-0.563-0.084-0.563-0.084
		l3.011-8.468C683.221,35.448,683.52,35.364,683.939,35.364z M683.88,36.695c0,0-0.108,0.48-0.312,1.08l-1.104,3.034h2.854
		l-1.092-3.034c-0.216-0.624-0.312-1.08-0.312-1.08H683.88z"/>
	<path fill="#FFFFFF" d="M696.131,35.364c0,0,0.096,0.216,0.096,0.516c0,0.313-0.096,0.54-0.096,0.54h-2.23v7.496
		c0,0-0.217,0.084-0.612,0.084c-0.432,0-0.611-0.084-0.611-0.084V36.42h-2.291c0,0-0.096-0.204-0.096-0.527
		c0-0.3,0.096-0.528,0.096-0.528H696.131z"/>
	<path fill="#FFFFFF" d="M697.609,35.448c0,0,0.204-0.084,0.6-0.084c0.42,0,0.623,0.084,0.623,0.084v8.468
		c0,0-0.215,0.084-0.611,0.084c-0.432,0-0.611-0.084-0.611-0.084V35.448z"/>
	<path fill="#FFFFFF" d="M703.633,35.364c2.219,0,3.525,1.14,3.525,4.318c0,3.178-1.307,4.317-3.525,4.317h-2.663v-8.636H703.633z
		 M703.549,42.98c1.402,0,2.303-0.6,2.303-3.298c0-2.711-0.9-3.299-2.303-3.299h-1.355v6.597H703.549z"/>
	<path fill="#FFFFFF" d="M675.42,52.858c-0.443-0.779-0.707-1.547-0.707-1.547h-0.048c0,0,0.084,0.804,0.084,2.015v4.989
		c0,0-0.18,0.084-0.575,0.084c-0.385,0-0.553-0.084-0.553-0.084v-8.467c0,0,0.252-0.084,0.732-0.084
		c0.479,0,0.719,0.084,0.719,0.084l2.986,5.409c0.432,0.779,0.744,1.595,0.744,1.595h0.036c0,0-0.084-0.888-0.084-2.003v-5.001
		c0,0,0.18-0.084,0.575-0.084c0.396,0,0.553,0.084,0.553,0.084v8.467c0,0-0.229,0.084-0.708,0.084s-0.731-0.084-0.731-0.084
		L675.42,52.858z"/>
	<path fill="#FFFFFF" d="M688.006,55.474c0,1.954-1.199,3.046-3.034,3.046c-1.823,0-3.011-1.115-3.011-3.046v-5.625
		c0,0,0.205-0.084,0.6-0.084c0.408,0,0.612,0.084,0.612,0.084v5.816c0,1.151,0.672,1.823,1.823,1.823
		c1.163,0,1.811-0.672,1.811-1.823v-5.816c0,0,0.192-0.084,0.588-0.084c0.396,0,0.611,0.084,0.611,0.084V55.474z"/>
	<path fill="#FFFFFF" d="M689.978,49.849c0,0,0.192-0.084,0.647-0.084c0.432,0,0.648,0.084,0.648,0.084l-0.205,6.248
		c0,0-0.155,0.097-0.432,0.097c-0.287,0-0.455-0.097-0.455-0.097L689.978,49.849z M691.236,58.315c0,0-0.203,0.084-0.611,0.084
		c-0.432,0-0.611-0.084-0.611-0.084v-1.127c0,0,0.18-0.084,0.611-0.084c0.408,0,0.611,0.084,0.611,0.084V58.315z"/>
</g>
</svg>
