<?xml version="1.0" encoding="utf-8"?>
<!-- Generator: Adobe Illustrator 19.1.1, SVG Export Plug-In . SVG Version: 6.00 Build 0)  -->
<svg version="1.1" id="Layer_1" xmlns="http://www.w3.org/2000/svg" xmlns:xlink="http://www.w3.org/1999/xlink" x="0px" y="0px"
	 viewBox="0 0 728 90" style="enable-background:new 0 0 728 90;" xml:space="preserve">
<style type="text/css">
	.st0{fill:#D4AC76;}
</style>
<g>
	<path class="st0" d="M222.7,47V21.5h7.3c3.5,0,6.5,1.2,9,3.6c2.5,2.4,3.8,5.5,3.8,9.2s-1.3,6.7-3.8,9.1c-2.5,2.4-5.6,3.6-9.2,3.6
		H222.7z M230.1,25.7h-2.9v17h2.9c2.3,0,4.1-0.8,5.6-2.5c1.5-1.6,2.3-3.7,2.3-6.1s-0.8-4.4-2.3-6C234.2,26.6,232.3,25.7,230.1,25.7z
		"/>
	<path class="st0" d="M250.3,47V21.5h4.8V47H250.3z"/>
	<path class="st0" d="M261.2,26.1v-4.6h21v4.6h-8.1V47h-4.8V26.1H261.2z"/>
	<path class="st0" d="M286.7,26.1v-4.6h21v4.6h-8.1V47h-4.8V26.1H286.7z"/>
	<path class="st0" d="M327.7,47V21.5h4.8v20.9h9.4V47H327.7z"/>
	<path class="st0" d="M348.7,47V21.5h4.8V47H348.7z"/>
	<path class="st0" d="M369.2,47l-9.8-25.5h5l7,18.3l6.9-18.3h4.8L373.5,47H369.2z"/>
	<path class="st0" d="M395,47.3c-1.6,0-3.2-0.3-4.8-1c-1.6-0.7-3-1.6-4.1-2.8l3-3.6c0.8,0.9,1.7,1.7,2.8,2.3
		c1.1,0.6,2.3,0.9,3.4,0.9s2-0.3,2.7-0.9c0.7-0.6,1.1-1.3,1.1-2.2c0-1.6-0.9-2.8-2.8-3.5l-2.8-1.1c-1.9-0.8-3.3-1.7-4.2-2.8
		c-0.9-1.1-1.4-2.5-1.4-4.3c0-1.8,0.7-3.4,2.2-4.8c1.4-1.4,3.2-2.1,5.4-2.1c3.2,0,5.8,1,7.9,2.9l-2.8,3.6c-1.4-1.5-3-2.2-5-2.2
		c-1,0-1.7,0.2-2.3,0.7c-0.6,0.5-0.9,1.1-0.9,1.8c0,0.7,0.2,1.3,0.7,1.7s1.2,0.9,2.2,1.3l3,1.2c3.8,1.5,5.7,4,5.8,7.4
		c0,2.3-0.8,4.2-2.4,5.6S397.7,47.3,395,47.3z"/>
	<path class="st0" d="M417.9,47l-9.8-25.5h5l7,18.3l6.9-18.3h4.8L422.2,47H417.9z"/>
	<path class="st0" d="M452.1,36.2h-9.4v6.5h10.4V47h-15.1V21.5h14.8v4.3h-10.1V32h9.4V36.2z"/>
	<path class="st0" d="M460.8,47V21.5h10c2.5,0,4.5,0.8,6.1,2.3c1.6,1.5,2.5,3.6,2.5,6c0,2-0.6,3.8-1.8,5.2c-1.2,1.4-2.8,2.3-4.8,2.7
		l6.9,9.3h-5.4l-6.6-9.1h-2.1V47H460.8z M470,25.7h-4.5v8.3h4.5c1.4,0,2.5-0.4,3.3-1.1s1.2-1.7,1.2-2.9c0-1.2-0.4-2.2-1.3-3
		S471.4,25.7,470,25.7z"/>
	<path class="st0" d="M486.8,47V21.5h4.4v11.2l9.8-11.2h5.9l-9,10.2l9.2,15.3h-5.5l-6.9-11.6l-3.4,3.9V47H486.8z"/>
</g>
</svg>
