<?xml version="1.0" encoding="utf-8"?>
<!-- Generator: Adobe Illustrator 19.1.1, SVG Export Plug-In . SVG Version: 6.00 Build 0)  -->
<svg version="1.1" id="Layer_1" xmlns="http://www.w3.org/2000/svg" xmlns:xlink="http://www.w3.org/1999/xlink" x="0px" y="0px"
	 viewBox="0 0 728 90" style="enable-background:new 0 0 728 90;" xml:space="preserve">
<style type="text/css">
	.st0{fill:#D80201;}
	.st1{fill:#FFFFFF;}
</style>
<g>
	<path class="st0" d="M275,51.4c-2.1,1.7-4.5,2.3-7.2,2.3h-5.7v-20h5.7c5.9,0,10.8,3.8,10.8,10C278.6,46.6,277.3,49.5,275,51.4z
		 M272.5,38.7c-1.5-1.4-3.4-1.6-5.3-1.6h-1v13.2h1c2,0,3.8-0.2,5.3-1.6c1.4-1.2,2.2-3.2,2.2-5C274.6,41.8,273.8,39.9,272.5,38.7z"/>
	<path class="st0" d="M287.9,54.1c-3.6,0-6.3-1.6-6.3-5.5v-7.9h3.6V48c0,1.8,0.8,3,2.6,3c1.9,0,2.6-1.2,2.6-3v-7.3h3.7v7.9
		C294.2,52.5,291.5,54.1,287.9,54.1z"/>
	<path class="st0" d="M309,43.8v9.9h-3.6v-9.9h-1.4v-3.1h1.4v-4.2c0-1.1,0.1-2.1,0.6-3.1c0.8-1.6,2.7-2.6,4.5-2.6
		c0.8,0,1.2,0.1,1.9,0.5v3.3c-0.5-0.3-1-0.5-1.6-0.5c-1.6,0-1.7,1.7-1.7,2.9v3.6h3.4v3.1H309z"/>
	<path class="st0" d="M320.8,54.1c-4.1,0-7.4-2.6-7.4-6.9c0-4.3,3.3-6.9,7.5-6.9c4.1,0,7.4,2.6,7.4,6.9S324.9,54.1,320.8,54.1z
		 M320.7,43.5c-2,0-3.7,1.6-3.7,3.7c0,2,1.7,3.6,3.7,3.6c2,0,3.7-1.6,3.7-3.6C324.4,45.1,322.8,43.5,320.7,43.5z"/>
	<path class="st0" d="M339.4,44c-0.6-0.3-1-0.5-1.7-0.5c-2.5,0-3.1,1.7-3.1,3.9v6.2H331v-13h3.6v1.9c0.8-1.5,2-2.4,3.8-2.4
		c0.6,0,1.1,0.1,1.6,0.3L339.4,44z"/>
	<path class="st0" d="M358.3,53.7v-7.1c0-1.5-0.2-3.2-2.2-3.2c-2.1,0-2.5,2-2.5,3.7v6.7h-3.6v-6.9c0-0.7,0-1.6-0.3-2.2
		c-0.3-0.8-1.1-1.3-2-1.3c-0.8,0-1.6,0.5-2,1.2c-0.4,0.7-0.4,1.7-0.4,2.5v6.7h-3.6v-13h3.6v1.5c1.1-1.2,2.3-1.9,4-1.9
		c1.9,0,3.1,0.8,4,2.4c1-1.6,2.4-2.4,4.3-2.4c1.4,0,2.9,0.6,3.6,1.9c0.6,0.9,0.7,2.1,0.7,3.1v8.4H358.3z"/>
	<path class="st0" d="M375.4,53.7V52c-1,1.4-2.5,2.1-4.2,2.1c-3.9,0-6.4-3.2-6.4-7c0-3.6,2.5-6.9,6.3-6.9c1.8,0,3.1,0.7,4.3,2.1
		v-1.6h3.7v13H375.4z M372.1,43.5c-2,0-3.6,1.6-3.6,3.6s1.6,3.7,3.6,3.7s3.6-1.6,3.6-3.7S374.2,43.5,372.1,43.5z"/>
	<path class="st0" d="M391,44c-0.6-0.3-1.1-0.5-1.7-0.5c-2.5,0-3.1,1.7-3.1,3.9v6.2h-3.6v-13h3.6v1.9c0.8-1.5,2-2.4,3.8-2.4
		c0.6,0,1,0.1,1.6,0.3L391,44z"/>
	<path class="st0" d="M394,54.1c-1.3,0-2.3-1-2.3-2.3s1-2.3,2.3-2.3s2.3,1,2.3,2.3S395.3,54.1,394,54.1z"/>
	<path class="st0" d="M415.9,54.2h-2.1l-8.5-20.5h4.3l5.3,13.4l5.4-13.4h4.2L415.9,54.2z"/>
	<path class="st0" d="M428.1,37.4c-1.2,0-2.2-1-2.2-2.2s1-2.2,2.2-2.2s2.2,1,2.2,2.2S429.3,37.4,428.1,37.4z M426.3,53.7v-13h3.6v13
		H426.3z"/>
	<path class="st0" d="M448.7,54.1c-1.8,0-3.2-0.7-4.3-2.1v1.7h-3.6V31.2h3.6v11.1c1.3-1.3,2.5-2.1,4.3-2.1c3.8,0,6.3,3.2,6.3,6.9
		C455.1,50.8,452.6,54.1,448.7,54.1z M447.7,43.5c-2,0-3.6,1.6-3.6,3.6s1.6,3.7,3.6,3.7s3.6-1.6,3.6-3.7S449.7,43.5,447.7,43.5z"/>
	<path class="st0" d="M460.9,60.6h-4.1l4.8-8.9l-6.1-11h4.2l3.9,7.4l3.7-7.4h4.1L460.9,60.6z"/>
	<path class="st0" d="M485.2,58.4c-1.4,1.6-3.5,2.3-5.5,2.3c-3.3,0-6.5-1.9-6.9-5.5h3.9c0.4,1.6,1.5,2.4,3.1,2.4
		c2.3,0,3.2-1.6,3.2-3.7v-2c-1.2,1.4-2.5,2.2-4.4,2.2c-3.8,0-6.2-3.1-6.2-6.8c0-3.7,2.4-7.1,6.4-7.1c1.9,0,3.1,0.7,4.2,2.1v-1.7h3.7
		v12.5C486.7,55.2,486.6,56.8,485.2,58.4z M479.9,43.5c-2,0-3.6,1.6-3.6,3.6s1.6,3.7,3.6,3.7s3.6-1.6,3.6-3.7S481.9,43.5,479.9,43.5
		z"/>
	<path class="st0" d="M502.3,58.4c-1.4,1.6-3.5,2.3-5.5,2.3c-3.3,0-6.5-1.9-6.9-5.5h3.9c0.4,1.6,1.5,2.4,3.1,2.4
		c2.3,0,3.2-1.6,3.2-3.7v-2c-1.2,1.4-2.5,2.2-4.4,2.2c-3.8,0-6.2-3.1-6.2-6.8c0-3.7,2.4-7.1,6.4-7.1c1.9,0,3.1,0.7,4.2,2.1v-1.7h3.7
		v12.5C503.7,55.2,503.6,56.8,502.3,58.4z M496.9,43.5c-2,0-3.6,1.6-3.6,3.6s1.6,3.7,3.6,3.7s3.6-1.6,3.6-3.7S498.9,43.5,496.9,43.5
		z"/>
	<path class="st0" d="M510.2,47.8c0.1,2,1,3.5,3.2,3.5c1.4,0,2.3-0.6,3.1-1.7l3.4,0.5c-1.1,2.8-3.5,4-6.4,4c-4.2,0-7-2.7-7-6.9
		c0-4.1,2.6-6.9,6.8-6.9c4.3,0,6.6,2.9,6.6,7v0.5H510.2z M513.4,42.8c-1.7,0-2.7,1-3,2.6h6.2C516.1,43.8,515.1,42.8,513.4,42.8z"/>
	<path class="st0" d="M531.2,44c-0.6-0.3-1-0.5-1.7-0.5c-2.5,0-3.1,1.7-3.1,3.9v6.2h-3.6v-13h3.6v1.9c0.8-1.5,2-2.4,3.8-2.4
		c0.6,0,1,0.1,1.6,0.3L531.2,44z"/>
	<path class="st0" d="M534.2,54.1c-1.3,0-2.3-1-2.3-2.3s1-2.3,2.3-2.3s2.3,1,2.3,2.3S535.5,54.1,534.2,54.1z"/>
</g>
</svg>
