<?xml version="1.0" encoding="utf-8"?>
<!-- Generator: Adobe Illustrator 19.1.1, SVG Export Plug-In . SVG Version: 6.00 Build 0)  -->
<svg version="1.1" id="Layer_1" xmlns="http://www.w3.org/2000/svg" xmlns:xlink="http://www.w3.org/1999/xlink" x="0px" y="0px"
	 viewBox="0 0 728 90" style="enable-background:new 0 0 728 90;" xml:space="preserve">
<style type="text/css">
	.st0{fill:#D4AC76;}
</style>
<g>
	<path class="st0" d="M260.3,69.4v-8.9h2.4c1.2,0,2.2,0.4,3.1,1.3c0.9,0.9,1.3,1.9,1.3,3.1c0,1.3-0.4,2.4-1.3,3.2
		c-0.9,0.8-1.9,1.3-3.2,1.3H260.3z M262.7,61.7h-1.2v6.5h1.2c0.9,0,1.6-0.3,2.2-1c0.6-0.6,0.9-1.4,0.9-2.3s-0.3-1.7-0.9-2.3
		C264.3,62,263.6,61.7,262.7,61.7z"/>
	<path class="st0" d="M270.1,69.4v-8.9h1.2v8.9H270.1z"/>
	<path class="st0" d="M273.8,61.7v-1.2h7.2v1.2h-3v7.7h-1.2v-7.7H273.8z"/>
	<path class="st0" d="M282.8,61.7v-1.2h7.2v1.2h-3v7.7h-1.2v-7.7H282.8z"/>
	<path class="st0" d="M297.5,69.4v-8.9h0.9l4.8,6.1v-6.1h1.2v8.9h-0.7l-5-6.3v6.3H297.5z"/>
	<path class="st0" d="M312.8,60.5h1.4l-3,5.3v3.6H310v-3.5l-3-5.4h1.5l2.1,3.9L312.8,60.5z"/>
	<path class="st0" d="M314.7,69.4l3.6-8.9h1.1l3.5,8.9h-1.4L321,68h-4.4l-0.6,1.4H314.7z M318.8,62.6l-1.7,4.3h3.4L318.8,62.6z"/>
	<path class="st0" d="M335.9,69.4v-3.9h-4.3v3.9h-1.2v-8.9h1.2v3.9h4.3v-3.9h1.2v8.9H335.9z"/>
	<path class="st0" d="M345.8,65.5h-3.7v2.7h3.9v1.2h-5.2v-8.9h5.1v1.2h-3.8v2.6h3.7V65.5z"/>
	<path class="st0" d="M349.1,69.4v-8.9h1.3l2.9,4.7l2.9-4.7h1.2v8.9h-1.2v-6.6l0,0l-2.9,4.6l-2.8-4.5h-0.1v6.5H349.1z"/>
	<path class="st0" d="M368.3,69.4l-3.5-8.9h1.4l2.7,6.8l2.7-6.8h1.4l-3.5,8.9H368.3z"/>
	<path class="st0" d="M373.7,69.4l3.6-8.9h1.1l3.5,8.9h-1.4L380,68h-4.4l-0.6,1.4H373.7z M376.9,59.6c-0.1,0.1-0.3,0.2-0.4,0.2
		c-0.2,0-0.3-0.1-0.4-0.2c-0.1-0.1-0.2-0.3-0.2-0.5s0.1-0.4,0.2-0.5c0.1-0.1,0.3-0.2,0.4-0.2c0.2,0,0.3,0.1,0.4,0.2
		c0.1,0.1,0.2,0.3,0.2,0.5S377,59.4,376.9,59.6z M377.8,62.6l-1.7,4.3h3.4L377.8,62.6z M379.4,59.6c-0.1,0.1-0.3,0.2-0.4,0.2
		c-0.2,0-0.3-0.1-0.4-0.2c-0.1-0.1-0.2-0.3-0.2-0.5s0.1-0.4,0.2-0.5c0.1-0.1,0.3-0.2,0.4-0.2c0.2,0,0.3,0.1,0.4,0.2
		c0.1,0.1,0.2,0.3,0.2,0.5S379.5,59.4,379.4,59.6z"/>
	<path class="st0" d="M384.4,69.4v-8.9h0.9l4.8,6.1v-6.1h1.2v8.9h-0.7l-5-6.3v6.3H384.4z"/>
	<path class="st0" d="M393.8,61.7v-1.2h7.2v1.2h-3v7.7h-1.2v-7.7H393.8z"/>
	<path class="st0" d="M401.6,69.4l3.6-8.9h1.1l3.5,8.9h-1.4l-0.5-1.4h-4.4l-0.5,1.4H401.6z M405.7,62.6l-1.7,4.3h3.4L405.7,62.6z"/>
	<path class="st0" d="M412.3,69.4v-8.9h3.3c0.8,0,1.5,0.3,2,0.8c0.5,0.5,0.8,1.2,0.8,2c0,0.7-0.2,1.4-0.7,1.9
		c-0.4,0.5-1,0.8-1.7,0.9l2.6,3.4H417l-2.6-3.4h-1v3.4H412.3z M415.4,61.7h-1.9v3.2h1.9c0.5,0,0.9-0.1,1.3-0.4
		c0.3-0.3,0.5-0.7,0.5-1.2c0-0.4-0.2-0.8-0.5-1.1C416.3,61.9,415.9,61.7,415.4,61.7z"/>
	<path class="st0" d="M426.3,69.4v-8.9h3c0.8,0,1.5,0.3,2.1,0.8c0.5,0.6,0.8,1.3,0.8,2.1c0,0.8-0.3,1.5-0.8,2.1s-1.3,0.8-2.1,0.8
		h-1.7v3H426.3z M429.2,61.7h-1.7v3.5h1.7c0.5,0,0.9-0.2,1.2-0.5c0.3-0.3,0.5-0.7,0.5-1.3c0-0.5-0.2-0.9-0.5-1.3
		C430.2,61.9,429.7,61.7,429.2,61.7z"/>
	<path class="st0" d="M433.4,69.4l3.6-8.9h1.1l3.5,8.9h-1.4l-0.5-1.4h-4.4l-0.6,1.4H433.4z M437.5,62.6l-1.7,4.3h3.4L437.5,62.6z
		 M438.4,59.9c-0.2,0.2-0.5,0.4-0.9,0.4c-0.3,0-0.6-0.1-0.9-0.4c-0.2-0.2-0.4-0.5-0.4-0.9c0-0.3,0.1-0.6,0.4-0.9
		c0.2-0.2,0.5-0.4,0.9-0.4c0.3,0,0.6,0.1,0.9,0.4c0.2,0.2,0.4,0.5,0.4,0.9C438.7,59.4,438.6,59.7,438.4,59.9z M437.5,59.5
		c0.1,0,0.2,0,0.3-0.1c0.1-0.1,0.1-0.2,0.1-0.3c0-0.1,0-0.3-0.1-0.4c-0.1-0.1-0.2-0.1-0.3-0.1c-0.1,0-0.3,0-0.4,0.1
		c-0.1,0.1-0.1,0.2-0.1,0.4c0,0.1,0,0.2,0.1,0.3S437.4,59.5,437.5,59.5z"/>
	<path class="st0" d="M449,69.4v-8.9h2.4c1.2,0,2.2,0.4,3.1,1.3c0.9,0.9,1.3,1.9,1.3,3.1c0,1.3-0.4,2.4-1.3,3.2
		c-0.9,0.8-1.9,1.3-3.2,1.3H449z M451.4,61.7h-1.2v6.5h1.2c0.9,0,1.6-0.3,2.2-1c0.6-0.6,0.9-1.4,0.9-2.3s-0.3-1.7-0.9-2.3
		C453,62,452.3,61.7,451.4,61.7z"/>
	<path class="st0" d="M458.8,69.4v-8.9h1.2v8.9H458.8z"/>
	<path class="st0" d="M469.3,65.5v-1.2h3V65c0,1.3-0.5,2.4-1.4,3.3c-0.9,0.9-2,1.3-3.2,1.3c-1.3,0-2.4-0.4-3.2-1.3
		c-0.9-0.9-1.3-2-1.3-3.3s0.4-2.4,1.3-3.3c0.9-0.9,1.9-1.3,3.2-1.3c0.7,0,1.3,0.1,1.9,0.4c0.6,0.2,1.1,0.6,1.5,1l-0.9,0.9
		c-0.7-0.8-1.5-1.2-2.5-1.2c-0.9,0-1.7,0.3-2.4,1c-0.6,0.7-0.9,1.5-0.9,2.4s0.3,1.8,0.9,2.4c0.6,0.7,1.4,1,2.4,1
		c0.8,0,1.5-0.3,2.1-0.8c0.6-0.5,1-1.2,1.1-2.1H469.3z"/>
</g>
</svg>
