<?xml version="1.0" encoding="utf-8"?>
<!-- Generator: Adobe Illustrator 19.1.1, SVG Export Plug-In . SVG Version: 6.00 Build 0)  -->
<svg version="1.1" id="Layer_1" xmlns="http://www.w3.org/2000/svg" xmlns:xlink="http://www.w3.org/1999/xlink" x="0px" y="0px"
	 viewBox="0 0 728 90" style="enable-background:new 0 0 728 90;" xml:space="preserve">
<style type="text/css">
	.st0{fill:#D80201;}
	.st1{fill:#FFFFFF;}
</style>
<g>
	<path class="st0" d="M224.7,47.5c-0.8,4.1-4.3,6.5-8.4,6.5c-5.4,0-9.3-3.8-9.3-9.2s4-9.3,9.4-9.3c3.2,0,5.9,1.4,7.6,4.2l-3,1.6
		c-1-1.7-2.6-2.6-4.6-2.6c-3.4,0-5.8,2.8-5.8,6.1c0,3.4,2.4,6.1,5.8,6.1c2.3,0,4.3-1.4,4.6-3.8h-4.2v-3h8.1v0.4
		C224.9,45.6,224.8,46.6,224.7,47.5z"/>
	<path class="st0" d="M227.6,53.7V33.8h3.2v19.9H227.6z"/>
	<path class="st0" d="M239.8,54c-3.7,0-6.6-2.3-6.6-6.1c0-3.8,2.9-6.1,6.6-6.1c3.6,0,6.5,2.3,6.5,6.1S243.5,54,239.8,54z M237.1,40
		c-1,0-1.9-0.9-1.9-1.9s0.9-1.9,1.9-1.9c1.1,0,1.9,0.8,1.9,1.9S238.1,40,237.1,40z M239.8,44.7c-1.8,0-3.2,1.5-3.2,3.2
		c0,1.7,1.5,3.2,3.2,3.2c1.8,0,3.3-1.4,3.3-3.2S241.6,44.7,239.8,44.7z M242.6,40c-1,0-1.9-0.9-1.9-1.9c0-1.1,0.8-1.9,1.9-1.9
		c1.1,0,1.9,0.8,1.9,1.9S243.6,40,242.6,40z"/>
	<path class="st0" d="M263.5,53.7v-6.3c0-1.4-0.2-2.8-1.9-2.8c-1.9,0-2.2,1.7-2.2,3.2v5.9h-3.2v-6.1c0-0.6,0-1.4-0.2-1.9
		c-0.3-0.7-1-1.1-1.7-1.1c-0.7,0-1.5,0.4-1.8,1c-0.3,0.6-0.4,1.5-0.4,2.2v5.9h-3.2V42.2h3.2v1.3c1-1.1,2-1.7,3.5-1.7
		c1.6,0,2.7,0.7,3.6,2.1c0.9-1.4,2.1-2.1,3.8-2.1c1.2,0,2.5,0.6,3.2,1.6c0.5,0.8,0.6,1.8,0.6,2.8v7.4H263.5z"/>
	<path class="st0" d="M273,44.9v8.7h-3.2v-8.7h-1.3v-2.8h1.3v-3.9h3.2v3.9h2.3v2.8H273z"/>
	<path class="st0" d="M292.3,53.7v-1.5c-0.9,1.2-2.2,1.9-3.7,1.9c-3.4,0-5.6-2.9-5.6-6.1c0-3.2,2.2-6.1,5.6-6.1
		c1.6,0,2.8,0.6,3.8,1.8v-1.5h3.2v11.5H292.3z M289.5,44.7c-1.8,0-3.2,1.4-3.2,3.2s1.4,3.2,3.2,3.2s3.2-1.5,3.2-3.2
		S291.2,44.7,289.5,44.7z"/>
	<path class="st0" d="M301.9,44.9v8.7h-3.2v-8.7h-1.3v-2.8h1.3v-3.9h3.2v3.9h2.3v2.8H301.9z"/>
	<path class="st0" d="M309,44.9v8.7h-3.2v-8.7h-1.3v-2.8h1.3v-3.9h3.2v3.9h2.3v2.8H309z"/>
	<path class="st0" d="M322.9,44.9v8.7h-3.2v-8.7h-1.2v-2.8h1.2v-3.7c0-1,0.1-1.8,0.5-2.7c0.7-1.4,2.4-2.3,4-2.3
		c0.7,0,1.1,0.1,1.7,0.4v2.9c-0.5-0.2-0.9-0.4-1.5-0.4c-1.4,0-1.5,1.5-1.5,2.6v3.2h3v2.8H322.9z"/>
	<path class="st0" d="M333.3,54c-3.7,0-6.6-2.3-6.6-6.1c0-3.8,2.9-6.1,6.6-6.1c3.6,0,6.5,2.3,6.5,6.1S336.9,54,333.3,54z
		 M333.3,44.7c-1.8,0-3.2,1.5-3.2,3.2c0,1.7,1.5,3.2,3.2,3.2c1.8,0,3.3-1.4,3.3-3.2S335.1,44.7,333.3,44.7z"/>
	<path class="st0" d="M349.8,45.1c-0.5-0.3-0.9-0.4-1.5-0.4c-2.2,0-2.8,1.5-2.8,3.4v5.5h-3.2V42.2h3.2v1.7c0.7-1.3,1.8-2.1,3.3-2.1
		c0.5,0,0.9,0.1,1.4,0.3L349.8,45.1z"/>
	<path class="st0" d="M366.5,53.7v-6.3c0-1.4-0.2-2.8-1.9-2.8c-1.9,0-2.2,1.7-2.2,3.2v5.9h-3.2v-6.1c0-0.6,0-1.4-0.2-1.9
		c-0.3-0.7-1-1.1-1.7-1.1c-0.7,0-1.5,0.4-1.8,1c-0.3,0.6-0.4,1.5-0.4,2.2v5.9h-3.2V42.2h3.2v1.3c1-1.1,2-1.7,3.5-1.7
		c1.6,0,2.7,0.7,3.6,2.1c0.9-1.4,2.1-2.1,3.8-2.1c1.2,0,2.5,0.6,3.2,1.6c0.5,0.8,0.6,1.8,0.6,2.8v7.4H366.5z"/>
	<path class="st0" d="M381.6,53.7v-1.5c-0.9,1.2-2.2,1.9-3.7,1.9c-3.4,0-5.6-2.9-5.6-6.1c0-3.2,2.2-6.1,5.6-6.1
		c1.6,0,2.8,0.6,3.8,1.8v-1.5h3.2v11.5H381.6z M378.7,44.7c-1.8,0-3.2,1.4-3.2,3.2s1.4,3.2,3.2,3.2c1.8,0,3.2-1.5,3.2-3.2
		S380.5,44.7,378.7,44.7z"/>
	<path class="st0" d="M402.4,53.7l-4.3-4.9l-0.3,0.3v4.6h-3.2V33.8h3.2v12.6l4.3-4.2h4.3l-5.4,5l5.8,6.4H402.4z"/>
	<path class="st0" d="M408.2,53.7V33.8h3.2v19.9H408.2z"/>
	<path class="st0" d="M423.2,53.7v-1.5c-0.9,1.2-2.2,1.9-3.7,1.9c-3.4,0-5.6-2.9-5.6-6.1c0-3.2,2.2-6.1,5.6-6.1
		c1.6,0,2.8,0.6,3.8,1.8v-1.5h3.2v11.5H423.2z M420.4,44.7c-1.8,0-3.2,1.4-3.2,3.2s1.4,3.2,3.2,3.2c1.8,0,3.2-1.5,3.2-3.2
		S422.2,44.7,420.4,44.7z"/>
	<path class="st0" d="M437,45.1c-0.5-0.3-0.9-0.4-1.5-0.4c-2.2,0-2.8,1.5-2.8,3.4v5.5h-3.2V42.2h3.2v1.7c0.7-1.3,1.8-2.1,3.3-2.1
		c0.5,0,0.9,0.1,1.4,0.3L437,45.1z"/>
	<path class="st0" d="M442.9,44.9v8.7h-3.2v-8.7h-1.3v-2.8h1.3v-3.9h3.2v3.9h2.3v2.8H442.9z"/>
	<path class="st0" d="M462.2,53.7v-1.5c-0.9,1.2-2.2,1.9-3.7,1.9c-3.4,0-5.6-2.9-5.6-6.1c0-3.2,2.2-6.1,5.6-6.1
		c1.6,0,2.8,0.6,3.8,1.8v-9.8h3.2v19.9H462.2z M459.4,44.7c-1.8,0-3.2,1.4-3.2,3.2s1.4,3.2,3.2,3.2c1.8,0,3.2-1.5,3.2-3.2
		S461.1,44.7,459.4,44.7z"/>
	<path class="st0" d="M470.1,39.3c-1.1,0-1.9-0.9-1.9-1.9c0-1.1,0.9-1.9,1.9-1.9c1.1,0,1.9,0.9,1.9,1.9
		C472,38.4,471.1,39.3,470.1,39.3z M468.5,53.7V42.2h3.2v11.5H468.5z"/>
	<path class="st0" d="M477.9,44.9v8.7h-3.2v-8.7h-1.3v-2.8h1.3v-3.9h3.2v3.9h2.3v2.8H477.9z"/>
	<path class="st0" d="M485.1,44.9v8.7h-3.2v-8.7h-1.3v-2.8h1.3v-3.9h3.2v3.9h2.3v2.8H485.1z"/>
	<path class="st0" d="M503.5,53.7v-6.4c0-1.6-0.3-2.8-2.2-2.8c-2,0-2.5,1.5-2.5,3.2v5.9h-3.2V42.2h3.2v1.4c1.1-1.2,2-1.8,3.6-1.8
		c1.2,0,2.5,0.4,3.3,1.4s0.9,2,0.9,3.2v7.3H503.5z"/>
	<path class="st0" d="M512.5,59.8h-3.6l4.2-7.9l-5.4-9.8h3.7l3.4,6.5l3.3-6.5h3.7L512.5,59.8z"/>
	<path class="st0" d="M531.5,53.7v-1.5c-0.9,1.2-2.2,1.9-3.7,1.9c-3.4,0-5.6-2.9-5.6-6.1c0-3.2,2.2-6.1,5.6-6.1
		c1.6,0,2.8,0.6,3.8,1.8v-1.5h3.2v11.5H531.5z M528.6,44.7c-1.8,0-3.2,1.4-3.2,3.2s1.4,3.2,3.2,3.2c1.8,0,3.2-1.5,3.2-3.2
		S530.4,44.7,528.6,44.7z"/>
	<path class="st0" d="M552.3,53.7v-6.3c0-1.6-0.3-2.8-2.2-2.8c-2,0-2.4,1.5-2.4,3.2v5.9h-3.2V33.8h3.2v9.9c0.9-1.2,2-1.9,3.6-1.9
		c1.2,0,2.5,0.5,3.3,1.4s0.9,2,0.9,3.2v7.2H552.3z"/>
	<path class="st0" d="M564.1,54c-3.2,0-5.5-1.4-5.5-4.8v-7h3.2v6.5c0,1.6,0.7,2.6,2.3,2.6c1.7,0,2.3-1.1,2.3-2.6v-6.5h3.2v7
		C569.6,52.6,567.2,54,564.1,54z"/>
	<path class="st0" d="M576.4,54c-1.6,0-3.2-0.7-4.4-1.9l1.7-2c0.7,0.8,1.6,1.4,2.7,1.4c0.7,0,1.5-0.5,1.5-1.3c0-2-5.1-1-5.1-4.9
		c0-2.3,1.9-3.6,4.1-3.6c1.4,0,2.7,0.4,3.7,1.2l-1.6,1.9c-0.6-0.4-1.2-0.8-1.9-0.8c-0.6,0-1.2,0.3-1.2,1c0,1.7,5.3,0.9,5.3,4.9
		C581.2,52.6,578.8,54,576.4,54z"/>
	<path class="st0" d="M589.4,45.5v2.3h-3.3v-4.7c0.3,0.1,0.6,0.1,0.9,0.1c1.6,0,3.3-0.8,3.3-2.7c0-1.2-0.9-2-2-2
		c-1.1,0-1.9,0.8-1.9,1.9c0,0.1,0,0.2,0,0.3h-3.4v-0.3c0-2.9,2.7-4.7,5.4-4.7c2.8,0,5.4,2,5.4,5C593.8,43.3,591.9,44.9,589.4,45.5z
		 M587.9,54c-1.1,0-2.1-0.9-2.1-2.1c0-1.1,0.9-2.1,2.1-2.1c1.2,0,2.1,0.9,2.1,2.1C589.9,53.1,589,54,587.9,54z"/>
</g>
</svg>
