<svg id="Layer_1" data-name="Layer 1" xmlns="http://www.w3.org/2000/svg" viewBox="0 0 160 600"><defs><style>.cls-1{fill:#d80201;}</style></defs><title>text</title><path class="cls-1" d="M14.27,278.46A6,6,0,0,1,9,275.54l1.93-1.86a3.52,3.52,0,0,0,3.22,2.05,2.19,2.19,0,0,0,2.37-2.16c0-3.15-6.74-1.66-6.74-6.6a4.5,4.5,0,0,1,4.78-4.46,6.7,6.7,0,0,1,4.49,1.7l-1.56,2A3.12,3.12,0,0,0,15,265c-1,0-2.14.62-2.14,1.73,0,2.6,6.74,1.31,6.74,6.67C19.6,276.53,17.3,278.46,14.27,278.46Z"/><path class="cls-1" d="M26.87,278.3H25.58L20.5,268.14h3.13l2.62,5.61,2.62-5.61H32Z"/><path class="cls-1" d="M40.46,278.1v-1.31a3.85,3.85,0,0,1-3.24,1.63c-3,0-4.9-2.48-4.9-5.34a5,5,0,0,1,4.83-5.26,4.15,4.15,0,0,1,3.31,1.58v-1.26h2.81v10ZM38,270.32a2.8,2.8,0,1,0,2.78,2.79A2.78,2.78,0,0,0,38,270.32Z"/><path class="cls-1" d="M52.74,278.1v-5.52c0-1.36-.29-2.39-1.88-2.39s-2.14,1.26-2.14,2.76v5.15H45.94v-10h2.78v1.22a3.67,3.67,0,0,1,3.13-1.54,3.44,3.44,0,0,1,3.68,3.95v6.33Z"/><path class="cls-1" d="M60.52,273.57c0,1.54.78,2.66,2.44,2.66a2.59,2.59,0,0,0,2.36-1.33l2.58.41a4.88,4.88,0,0,1-4.9,3.11,5,5,0,0,1-5.33-5.31,4.93,4.93,0,0,1,5.22-5.29c3.29,0,5.08,2.21,5.08,5.38v.37Zm2.41-3.77a2.26,2.26,0,0,0-2.32,2h4.71A2.3,2.3,0,0,0,62.93,269.8Z"/><path class="cls-1" d="M76.92,278.1v-5.52c0-1.36-.3-2.39-1.89-2.39s-2.14,1.26-2.14,2.76v5.15H70.11v-10h2.78v1.22A3.67,3.67,0,0,1,76,267.82a3.43,3.43,0,0,1,3.68,3.95v6.33Z"/><path class="cls-1" d="M95.08,278.1v-5.45c0-1.18-.18-2.46-1.65-2.46-1.63,0-1.91,1.49-1.91,2.8v5.11H88.74v-5.29a4.39,4.39,0,0,0-.21-1.66,1.6,1.6,0,0,0-1.49-1,1.83,1.83,0,0,0-1.57.89,4.12,4.12,0,0,0-.32,1.91v5.11H82.37v-10h2.78v1.13a3.81,3.81,0,0,1,3-1.45,3.39,3.39,0,0,1,3.1,1.81,3.69,3.69,0,0,1,3.27-1.81,3.28,3.28,0,0,1,2.78,1.42,4.41,4.41,0,0,1,.53,2.42v6.44Z"/><path class="cls-1" d="M108.15,278.1v-1.31a3.85,3.85,0,0,1-3.24,1.63c-3,0-4.9-2.48-4.9-5.34a5,5,0,0,1,4.83-5.26,4.16,4.16,0,0,1,3.31,1.58v-1.26H111v10Zm-4.81-11.82a1.66,1.66,0,0,1,0-3.31,1.66,1.66,0,1,1,0,3.31Zm2.33,4a2.8,2.8,0,1,0,2.78,2.79A2.79,2.79,0,0,0,105.67,270.32Zm2.46-4a1.68,1.68,0,0,1-1.66-1.66,1.66,1.66,0,1,1,1.66,1.66Z"/><path class="cls-1" d="M120.13,270.67a2.48,2.48,0,0,0-1.33-.35c-1.89,0-2.39,1.34-2.39,3v4.79h-2.78v-10h2.78v1.49a3.24,3.24,0,0,1,4.11-1.58Z"/><path class="cls-1" d="M128.73,278.1,125,273.82l-.3.3v4H121.9V260.87h2.79v10.9l3.72-3.63h3.77l-4.66,4.37,5,5.59Z"/><path class="cls-1" d="M136.6,270.53v7.57h-2.78v-7.57h-1.11v-2.39h1.11v-3.4h2.78v3.4h2v2.39Z"/><path class="cls-1" d="M147.62,278.1v-1.31a3.85,3.85,0,0,1-3.24,1.63c-3,0-4.9-2.48-4.9-5.34a5,5,0,0,1,4.83-5.26,4.16,4.16,0,0,1,3.31,1.58v-1.26h2.8v10Zm-2.49-7.78a2.8,2.8,0,1,0,2.79,2.79A2.78,2.78,0,0,0,145.13,270.32Z"/><path class="cls-1" d="M33.61,306.1v-5.45c0-1.38-.3-2.46-1.91-2.46s-2.12,1.33-2.12,2.8v5.11H26.8V288.87h2.78v8.56a3.63,3.63,0,0,1,3.13-1.61,3.8,3.8,0,0,1,2.9,1.22,3.94,3.94,0,0,1,.78,2.8v6.26Z"/><path class="cls-1" d="M43.87,306.42c-2.74,0-4.81-1.22-4.81-4.19v-6.09h2.78v5.63c0,1.36.58,2.28,2,2.28s2-.92,2-2.28v-5.63H48.7v6.09C48.7,305.2,46.6,306.42,43.87,306.42Z"/><path class="cls-1" d="M54.54,306.42a5.29,5.29,0,0,1-3.8-1.66l1.48-1.7a3.21,3.21,0,0,0,2.34,1.17,1.17,1.17,0,0,0,1.27-1.1c0-1.7-4.44-.85-4.44-4.21,0-2,1.68-3.15,3.56-3.15a5.09,5.09,0,0,1,3.24,1.06l-1.38,1.63a2.74,2.74,0,0,0-1.65-.66c-.48,0-1.06.29-1.06.85,0,1.45,4.6.8,4.6,4.2C58.7,305.18,56.68,306.42,54.54,306.42Z"/><path class="cls-1" d="M69.3,298.53v7.57H66.52v-7.57H65.44v-2.39h1.08v-3.2A4.87,4.87,0,0,1,67,290.6a3.94,3.94,0,0,1,3.45-2,3.3,3.3,0,0,1,1.47.34v2.55a2.86,2.86,0,0,0-1.27-.36c-1.24,0-1.31,1.28-1.31,2.23v2.78h2.58v2.39Z"/><path class="cls-1" d="M78.34,306.42c-3.17,0-5.7-2-5.7-5.29s2.53-5.31,5.73-5.31,5.65,2,5.65,5.29S81.49,306.42,78.34,306.42Zm-2.41-12.14a1.66,1.66,0,1,1,0-3.31,1.66,1.66,0,0,1,0,3.31Zm2.39,4a2.8,2.8,0,1,0,2.83,2.81A2.83,2.83,0,0,0,78.32,298.32Zm2.39-4a1.67,1.67,0,0,1-1.65-1.66,1.66,1.66,0,0,1,3.31,0A1.66,1.66,0,0,1,80.71,294.28Z"/><path class="cls-1" d="M92.67,298.67a2.48,2.48,0,0,0-1.33-.35c-1.89,0-2.39,1.34-2.39,3v4.79H86.16v-10H89v1.49a3.24,3.24,0,0,1,4.11-1.58Z"/><path class="cls-1" d="M102.52,301.57c0,1.54.78,2.66,2.43,2.66a2.59,2.59,0,0,0,2.37-1.33l2.58.41a4.9,4.9,0,0,1-4.9,3.11,5,5,0,0,1-5.34-5.31,4.93,4.93,0,0,1,5.22-5.29c3.29,0,5.09,2.21,5.09,5.38v.37Zm2.41-3.77a2.26,2.26,0,0,0-2.32,2h4.71A2.3,2.3,0,0,0,104.93,297.8Z"/><path class="cls-1" d="M118.91,306.1v-5.52c0-1.36-.3-2.39-1.88-2.39-1.73,0-2.14,1.26-2.14,2.76v5.15h-2.78v-10h2.78v1.22a3.67,3.67,0,0,1,3.13-1.54,3.44,3.44,0,0,1,3.68,3.95v6.33Z"/><path class="cls-1" d="M10.71,334.42a5.28,5.28,0,0,1-3.79-1.66l1.47-1.7a3.22,3.22,0,0,0,2.35,1.17,1.17,1.17,0,0,0,1.26-1.1c0-1.7-4.44-.85-4.44-4.21,0-2,1.68-3.15,3.57-3.15a5.11,5.11,0,0,1,3.24,1.06L13,326.46a2.77,2.77,0,0,0-1.66-.67,1,1,0,0,0-1.05.86c0,1.45,4.6.8,4.6,4.2C14.88,333.18,12.85,334.42,10.71,334.42Z"/><path class="cls-1" d="M21.66,334.42c-2.74,0-4.81-1.22-4.81-4.19v-6.09h2.79v5.63c0,1.36.57,2.28,2,2.28s2-.92,2-2.28v-5.63h2.81v6.09C26.49,333.2,24.4,334.42,21.66,334.42Z"/><path class="cls-1" d="M36,334.1v-5.52c0-1.36-.3-2.39-1.89-2.39s-2.14,1.26-2.14,2.76v5.15H29.16v-10h2.78v1.22a3.67,3.67,0,0,1,3.13-1.54,3.43,3.43,0,0,1,3.68,3.95v6.33Z"/><path class="cls-1" d="M49,334.1v-1.31a3.85,3.85,0,0,1-3.24,1.63c-3,0-4.9-2.48-4.9-5.34a5,5,0,0,1,4.83-5.26A4.16,4.16,0,0,1,49,325.4v-8.53h2.8V334.1Zm-2.48-7.78a2.8,2.8,0,1,0,2.78,2.79A2.78,2.78,0,0,0,46.55,326.32Z"/><path class="cls-1" d="M61.61,321.61a1.68,1.68,0,1,1,0-3.36,1.68,1.68,0,0,1,0,3.36Zm-1.4,12.49v-10H63v10Z"/><path class="cls-1" d="M72.42,334.1v-5.52c0-1.36-.3-2.39-1.89-2.39S68.4,327.45,68.4,329v5.15H65.61v-10H68.4v1.22a3.66,3.66,0,0,1,3.12-1.54,3.43,3.43,0,0,1,3.68,3.95v6.33Z"/><path class="cls-1" d="M84.68,334.1v-5.52c0-1.36-.3-2.39-1.89-2.39s-2.14,1.26-2.14,2.76v5.15H77.87v-10h2.78v1.22a3.68,3.68,0,0,1,3.13-1.54,3.43,3.43,0,0,1,3.68,3.95v6.33Z"/><path class="cls-1" d="M92.45,329.57c0,1.54.79,2.66,2.44,2.66a2.61,2.61,0,0,0,2.37-1.33l2.57.41a4.87,4.87,0,0,1-4.89,3.11,5,5,0,0,1-5.34-5.31,4.93,4.93,0,0,1,5.22-5.29c3.29,0,5.08,2.21,5.08,5.38v.37Zm2.42-3.78a2.28,2.28,0,0,0-2.33,2h4.72A2.31,2.31,0,0,0,94.87,325.79Z"/><path class="cls-1" d="M114.76,334.1v-5.45c0-1.18-.18-2.46-1.65-2.46-1.64,0-1.91,1.49-1.91,2.8v5.11h-2.79v-5.29a4.59,4.59,0,0,0-.2-1.66,1.61,1.61,0,0,0-1.5-1,1.81,1.81,0,0,0-1.56.89,4.12,4.12,0,0,0-.32,1.91v5.11H102v-10h2.79v1.13a3.79,3.79,0,0,1,3-1.45,3.4,3.4,0,0,1,3.11,1.81,3.68,3.68,0,0,1,3.26-1.81,3.26,3.26,0,0,1,2.78,1.42,4.41,4.41,0,0,1,.53,2.42v6.44Z"/><path class="cls-1" d="M121.57,321.61a1.68,1.68,0,1,1,0-3.36,1.68,1.68,0,0,1,0,3.36Zm-1.4,12.49v-10H123v10Z"/><path class="cls-1" d="M125.57,334.1V316.87h2.79V334.1Z"/><path class="cls-1" d="M132.38,321.61a1.68,1.68,0,1,1,0-3.36,1.68,1.68,0,0,1,0,3.36Zm-1.4,17.8V324.14h2.78v15.27Z"/><path class="cls-1" d="M141.56,334.42c-3.18,0-5.71-2-5.71-5.29s2.53-5.31,5.73-5.31,5.66,2,5.66,5.29S144.71,334.42,141.56,334.42Zm-2.42-12.14a1.66,1.66,0,0,1,0-3.31,1.66,1.66,0,1,1,0,3.31Zm2.39,4a2.8,2.8,0,1,0,2.83,2.81A2.82,2.82,0,0,0,141.53,326.32Zm2.39-4a1.68,1.68,0,0,1-1.65-1.66,1.66,1.66,0,0,1,3.31,0A1.66,1.66,0,0,1,143.92,322.28Z"/><path class="cls-1" d="M150.92,334.4a1.8,1.8,0,1,1,1.79-1.8A1.81,1.81,0,0,1,150.92,334.4Zm-1.43-4.69V318.76h2.85v10.95Z"/></svg>