<svg id="Layer_1" data-name="Layer 1" xmlns="http://www.w3.org/2000/svg" viewBox="0 0 300 600"><defs><style>.cls-1{fill:#010121;}</style></defs><title>text</title><path class="cls-1" d="M71.13,175.93h1.61V199H71.13Z"/><path class="cls-1" d="M84.25,177.33H76.9v-1.4H93.18v1.4H85.86V199H84.25Z"/><path class="cls-1" d="M104.27,173.83h1.54V197c0,.74.32,1.08.74,1.08a2.71,2.71,0,0,0,.63-.07l.28,1.27a3.43,3.43,0,0,1-1.12.17c-1.37,0-2.07-.84-2.07-2.66Z"/><path class="cls-1" d="M124.43,184.61a10,10,0,0,1,1.82,6c0,5.57-3.5,8.79-7.56,8.79a7.06,7.06,0,0,1-4.93-2l-1.89,2.31L111,199l2-2.46a9.63,9.63,0,0,1-1.82-6c0-5.63,3.5-8.85,7.52-8.85a7.09,7.09,0,0,1,5,2l1.89-2.28.91.74Zm-1.71.28a5.35,5.35,0,0,0-4-1.78c-3.39,0-6,3.08-6,7.49a8.9,8.9,0,0,0,1.26,4.79Zm-8,11.45a5.41,5.41,0,0,0,4,1.75c3.4,0,6-3,6-7.42a8.94,8.94,0,0,0-1.26-4.83Z"/><path class="cls-1" d="M130.1,196a7.76,7.76,0,0,0,5.36,2.14c2.62,0,4-1.54,4-3.33,0-2.1-2.17-3-4.1-3.71-2.55-.91-5.35-1.92-5.35-4.79,0-2.45,1.92-4.48,5.42-4.48a7.78,7.78,0,0,1,4.8,1.75l-.84,1.08a6.36,6.36,0,0,0-4-1.5c-2.59,0-3.78,1.5-3.78,3,0,1.86,2,2.66,4,3.4,2.62,1,5.49,1.85,5.49,5.14,0,2.52-2,4.73-5.67,4.73a9.75,9.75,0,0,1-6.16-2.31Z"/><path class="cls-1" d="M145.47,182.2h1.33l.14,2.59h.1c1.72-1.72,3.47-3,5.78-3,3.46,0,5.07,2.1,5.07,6.44V199h-1.54V188.43c0-3.57-1.12-5.25-3.85-5.25-2,0-3.43,1-5.49,3.15V199h-1.54Z"/><path class="cls-1" d="M163.49,176.77a1.4,1.4,0,1,1,1.4,1.37A1.34,1.34,0,0,1,163.49,176.77Zm.6,5.43h1.54V199h-1.54Z"/><path class="cls-1" d="M172.1,182.2h1.33l.14,2.59h.11c1.71-1.72,3.46-3,5.77-3,3.47,0,5.08,2.1,5.08,6.44V199H183V188.43c0-3.57-1.12-5.25-3.85-5.25-2,0-3.43,1-5.5,3.15V199H172.1Z"/><path class="cls-1" d="M191.81,198.37v-.14a3,3,0,0,1-1.47-2.7,4,4,0,0,1,1.82-3.08v-.14a6.27,6.27,0,0,1-2.1-4.62,5.77,5.77,0,0,1,5.91-5.91,6.06,6.06,0,0,1,2.21.42h5.7v1.29H200a5.59,5.59,0,0,1,1.86,4.24,5.87,5.87,0,0,1-8.65,5.21,3,3,0,0,0-1.36,2.42c0,1.22.7,2.2,3.22,2.2h3.6c3.78,0,5.53,1.19,5.53,3.86,0,2.9-3.11,5.67-7.94,5.67-4.24,0-6.9-1.82-6.9-4.66A5.31,5.31,0,0,1,191.81,198.37Zm4.58,7.46c3.78,0,6.2-2.14,6.2-4.24,0-1.86-1.37-2.55-3.89-2.55h-3.6a10.57,10.57,0,0,1-2.1-.29,4.42,4.42,0,0,0-2.21,3.54C190.79,204.39,192.82,205.83,196.39,205.83Zm3.92-18.14a4.36,4.36,0,1,0-8.71,0,4.37,4.37,0,1,0,8.71,0Z"/><path class="cls-1" d="M213.3,181.78c4,0,6.44,2.83,6.44,7.77a7.61,7.61,0,0,1-.07,1.26H207.56c.07,4.23,2.55,7.28,6.33,7.28a7.46,7.46,0,0,0,4.52-1.51l.63,1.19a9.34,9.34,0,0,1-5.29,1.65c-4.3,0-7.77-3.29-7.77-8.79S209.55,181.78,213.3,181.78Zm5,7.84c0-4.31-1.93-6.51-4.94-6.51s-5.42,2.48-5.77,6.51Z"/><path class="cls-1" d="M224.29,182.2h1.33l.14,3.11h.1c1.12-2.06,2.77-3.53,4.76-3.53a3.46,3.46,0,0,1,1.68.35l-.35,1.4a3.65,3.65,0,0,0-1.54-.28c-1.5,0-3.29,1.15-4.58,4.3V199h-1.54Z"/><path class="cls-1" d="M91.18,238a7.76,7.76,0,0,0,5.36,2.14c2.63,0,4-1.54,4-3.33,0-2.1-2.17-3-4.1-3.71-2.55-.91-5.35-1.92-5.35-4.79,0-2.45,1.92-4.48,5.42-4.48a7.75,7.75,0,0,1,4.8,1.75l-.84,1.08a6.36,6.36,0,0,0-4-1.5c-2.59,0-3.78,1.5-3.78,3,0,1.86,2,2.66,4,3.4,2.62,1,5.49,1.85,5.49,5.14,0,2.52-2,4.73-5.67,4.73a9.75,9.75,0,0,1-6.16-2.31Z"/><path class="cls-1" d="M112.67,223.78c4.06,0,7.57,3.22,7.57,8.85s-3.51,8.79-7.57,8.79-7.52-3.22-7.52-8.79S108.65,223.78,112.67,223.78Zm0,16.27c3.4,0,6-3,6-7.42s-2.56-7.49-6-7.49-5.91,3.05-5.91,7.49S109.28,240.05,112.67,240.05Z"/><path class="cls-1" d="M125.27,224.2h1.33l.14,2.59h.11c1.5-1.72,3.43-3,5.28-3a4.37,4.37,0,0,1,4.66,3.43c1.92-2.1,3.78-3.43,5.71-3.43,3.36,0,5,2.1,5,6.44V241H146V230.43c0-3.57-1.19-5.25-3.74-5.25-1.58,0-3.19,1-5.05,3.15V241h-1.54V230.43c0-3.57-1.19-5.25-3.78-5.25q-2.25,0-5,3.15V241h-1.54Z"/><path class="cls-1" d="M160.66,215.83h1.54v7.28l-.07,3.29c1.71-1.43,3.74-2.62,5.81-2.62,4.48,0,6.72,3.36,6.72,8.57,0,5.71-3.47,9.07-7.42,9.07a8.65,8.65,0,0,1-5-2h-.07L162,241h-1.29Zm6.51,24.22c3.39,0,5.84-3.15,5.84-7.7,0-4.13-1.47-7.21-5.32-7.21-1.68,0-3.5,1-5.49,2.77v10A8,8,0,0,0,167.17,240.05Z"/><path class="cls-1" d="M179.7,215.83h1.54V239c0,.74.31,1.08.73,1.08a2.71,2.71,0,0,0,.63-.07l.28,1.27a3.38,3.38,0,0,1-1.12.17c-1.36,0-2.06-.84-2.06-2.66Z"/><path class="cls-1" d="M187.4,218.77a1.4,1.4,0,1,1,1.4,1.37A1.34,1.34,0,0,1,187.4,218.77Zm.59,5.43h1.54V241H188Z"/><path class="cls-1" d="M196,224.2h1.33l.14,3.11h.1c1.12-2.06,2.77-3.53,4.76-3.53a3.46,3.46,0,0,1,1.68.35l-.35,1.4a3.65,3.65,0,0,0-1.54-.28c-1.5,0-3.29,1.15-4.58,4.3V241H196Z"/><path class="cls-1" d="M111,265.78a7.79,7.79,0,0,1,5.08,2.06l-.07-3.08v-6.93h1.54V283h-1.33l-.14-2.17H116a7.9,7.9,0,0,1-5.47,2.59c-4.23,0-7-3.12-7-8.79C103.54,269.21,107,265.78,111,265.78Zm-.28,16.27c1.86,0,3.5-1,5.29-2.76v-10a7.13,7.13,0,0,0-4.9-2.17c-3.36,0-5.92,3.26-5.92,7.49C105.18,279.08,107.14,282.05,110.71,282.05Z"/><path class="cls-1" d="M123.31,289.23c2.07,0,3.47-1.89,4.31-4.44l.45-1.48-6.89-17.11h1.68l4.06,10.57c.52,1.4,1.19,3.22,1.82,4.69h.14c.52-1.47,1.08-3.29,1.54-4.69L134,266.2h1.58L129,285.1c-.95,2.8-2.63,5.57-5.64,5.57a4.23,4.23,0,0,1-1.71-.35L122,289A3.9,3.9,0,0,0,123.31,289.23Z"/><path class="cls-1" d="M139.24,266.2h1.33l.14,3.11h.1c1.12-2.06,2.77-3.53,4.76-3.53a3.46,3.46,0,0,1,1.68.35l-.35,1.4a3.65,3.65,0,0,0-1.54-.28c-1.5,0-3.29,1.15-4.58,4.3V283h-1.54Z"/><path class="cls-1" d="M155.9,265.78c4,0,6.44,2.83,6.44,7.77a7.61,7.61,0,0,1-.07,1.26H150.16c.07,4.23,2.55,7.28,6.33,7.28a7.46,7.46,0,0,0,4.52-1.51l.63,1.19a9.34,9.34,0,0,1-5.29,1.65c-4.3,0-7.77-3.29-7.77-8.79S152.15,265.78,155.9,265.78Zm5,7.84c0-4.31-1.93-6.51-4.94-6.51s-5.42,2.48-5.77,6.51Z"/><path class="cls-1" d="M166.89,266.2h1.33l.14,3.11h.1c1.12-2.06,2.77-3.53,4.76-3.53a3.46,3.46,0,0,1,1.68.35l-.35,1.4a3.65,3.65,0,0,0-1.54-.28c-1.5,0-3.29,1.15-4.58,4.3V283h-1.54Z"/><path class="cls-1" d="M183.55,265.78c4,0,6.44,2.83,6.44,7.77a7.61,7.61,0,0,1-.07,1.26H177.81c.07,4.23,2.55,7.28,6.33,7.28a7.46,7.46,0,0,0,4.52-1.51l.63,1.19a9.34,9.34,0,0,1-5.29,1.65c-4.3,0-7.77-3.29-7.77-8.79S179.8,265.78,183.55,265.78Zm5,7.84c0-4.31-1.93-6.51-4.94-6.51s-5.42,2.48-5.77,6.51Z"/><path class="cls-1" d="M79.11,307.78c4,0,6.44,2.83,6.44,7.77a7.61,7.61,0,0,1-.07,1.26H73.37c.07,4.23,2.55,7.28,6.33,7.28a7.46,7.46,0,0,0,4.52-1.51l.63,1.2a9.42,9.42,0,0,1-5.29,1.64c-4.3,0-7.77-3.29-7.77-8.79S75.36,307.78,79.11,307.78Zm5,7.84c0-4.31-1.93-6.51-4.94-6.51s-5.42,2.48-5.77,6.51Z"/><path class="cls-1" d="M90.1,308.2h1.33l.14,2.59h.1c1.72-1.72,3.47-3,5.78-3,3.46,0,5.07,2.1,5.07,6.44V325H101V314.43c0-3.57-1.12-5.25-3.85-5.25-2,0-3.43,1.05-5.49,3.15V325H90.1Z"/><path class="cls-1" d="M108.72,308.2h1.33l.14,2.59h.1c1.72-1.72,3.47-3,5.78-3,3.46,0,5.07,2.1,5.07,6.44V325H119.6V314.43c0-3.57-1.12-5.25-3.85-5.25-2,0-3.43,1.05-5.49,3.15V325h-1.54Z"/><path class="cls-1" d="M144.21,314.46c.07-2.55-.67-5.32-4-5.32a9.26,9.26,0,0,0-5.35,2l-.7-1.15a11.21,11.21,0,0,1,6.23-2.17c4,0,5.32,2.87,5.32,6.47V325h-1.3l-.17-2.17h-.07c-1.72,1.37-3.75,2.59-6,2.59-2.66,0-4.9-1.44-4.9-4.62C133.36,317.09,136.75,315.3,144.21,314.46Zm-5.71,9.63c1.93,0,3.64-.95,5.71-2.73v-5.71c-6.9.81-9.24,2.42-9.24,5.08C135,323.14,136.58,324.09,138.5,324.09Z"/><path class="cls-1" d="M151.77,308.2h1.33l.14,2.59h.1c1.72-1.72,3.47-3,5.78-3,3.46,0,5.07,2.1,5.07,6.44V325h-1.54V314.43c0-3.57-1.12-5.25-3.85-5.25-2,0-3.43,1.05-5.49,3.15V325h-1.54Z"/><path class="cls-1" d="M170.77,309.53h-2.62v-1.19l2.66-.14.21-4.87h1.33v4.87h4.86v1.33h-4.86v11c0,2.14.52,3.57,2.83,3.57a5.6,5.6,0,0,0,2.1-.52l.42,1.26a9.38,9.38,0,0,1-2.73.63c-3.25,0-4.2-2.06-4.2-5.08Z"/><path class="cls-1" d="M190.48,314.46c.07-2.55-.67-5.32-4-5.32a9.26,9.26,0,0,0-5.35,2l-.7-1.15a11.21,11.21,0,0,1,6.23-2.17c4,0,5.32,2.87,5.32,6.47V325h-1.3l-.17-2.17h-.07c-1.72,1.37-3.75,2.59-5.95,2.59-2.66,0-4.9-1.44-4.9-4.62C179.63,317.09,183,315.3,190.48,314.46Zm-5.71,9.63c1.93,0,3.64-.95,5.71-2.73v-5.71c-6.9.81-9.24,2.42-9.24,5.08C181.24,323.14,182.85,324.09,184.77,324.09Z"/><path class="cls-1" d="M198.42,309.53H195.8v-1.19l2.66-.14.21-4.87H200v4.87h4.86v1.33H200v11c0,2.14.52,3.57,2.83,3.57a5.6,5.6,0,0,0,2.1-.52l.42,1.26a9.38,9.38,0,0,1-2.73.63c-3.25,0-4.2-2.06-4.2-5.08Z"/><path class="cls-1" d="M209.34,309.53h-2.62v-1.19l2.66-.14.21-4.87h1.33v4.87h4.86v1.33h-4.86v11c0,2.14.52,3.57,2.83,3.57a5.6,5.6,0,0,0,2.1-.52l.42,1.26a9.38,9.38,0,0,1-2.73.63c-3.25,0-4.2-2.06-4.2-5.08Z"/><path class="cls-1" d="M226.67,306.59a3.77,3.77,0,0,0-4-4.1,5.81,5.81,0,0,0-4.51,2.24l-.95-.87a7.29,7.29,0,0,1,5.57-2.73,5.11,5.11,0,0,1,5.46,5.35c0,4.76-5.88,6.9-5.22,12.25h-1.4C220.89,312.92,226.67,310.89,226.67,306.59Zm-4.2,15.64a1.6,1.6,0,0,1,0,3.19,1.48,1.48,0,0,1-1.47-1.58A1.5,1.5,0,0,1,222.47,322.23Z"/></svg>