<svg id="Layer_1" data-name="Layer 1" xmlns="http://www.w3.org/2000/svg" viewBox="0 0 980 140"><defs><style>.cls-1{fill:#d80201;}</style></defs><title>text</title><path class="cls-1" d="M537.66,43.73a9.09,9.09,0,0,1-8-4.45l2.94-2.84a5.35,5.35,0,0,0,4.9,3.12,3.32,3.32,0,0,0,3.6-3.29c0-4.8-10.26-2.52-10.26-10,0-4.13,3.33-6.79,7.28-6.79A10.23,10.23,0,0,1,544.94,22l-2.38,3.12a4.72,4.72,0,0,0-3.78-1.89c-1.5,0-3.26.95-3.26,2.63,0,4,10.26,2,10.26,10.15C545.78,40.79,542.28,43.73,537.66,43.73Z"/><path class="cls-1" d="M558.45,43.66a6.06,6.06,0,0,1-5.08-2.49V51.25h-4.24V28h4.24v1.92a6,6,0,0,1,5-2.42c4.51,0,7.49,3.75,7.49,8.09S562.9,43.66,558.45,43.66Zm-1.26-12.32a4.25,4.25,0,1,0,4.24,4.24A4.23,4.23,0,0,0,557.19,31.34Z"/><path class="cls-1" d="M580.64,43.17v-2a5.86,5.86,0,0,1-4.94,2.49c-4.55,0-7.46-3.78-7.46-8.12s2.91-8,7.35-8a6.32,6.32,0,0,1,5,2.42V28h4.27V43.17Zm-7.32-18a2.52,2.52,0,0,1,0-5,2.52,2.52,0,0,1,0,5Zm3.54,6.16a4.25,4.25,0,1,0,4.24,4.24A4.23,4.23,0,0,0,576.86,31.34Zm3.75-6.16a2.56,2.56,0,0,1-2.52-2.52,2.52,2.52,0,1,1,2.52,2.52Z"/><path class="cls-1" d="M599.33,43.17v-8.4c0-2.07-.46-3.64-2.87-3.64-2.63,0-3.26,1.92-3.26,4.2v7.84H589V28h4.24v1.86A5.6,5.6,0,0,1,598,27.52a5.81,5.81,0,0,1,4.41,1.82,5.83,5.83,0,0,1,1.19,4.2v9.63Z"/><path class="cls-1" d="M618,43.17v-8.4c0-2.07-.46-3.64-2.87-3.64-2.62,0-3.25,1.92-3.25,4.2v7.84h-4.24V28h4.24v1.86a5.59,5.59,0,0,1,4.76-2.35A5.82,5.82,0,0,1,621,29.34a5.83,5.83,0,0,1,1.19,4.2v9.63Z"/><path class="cls-1" d="M637.86,43.17v-2a5.85,5.85,0,0,1-4.94,2.49c-4.55,0-7.46-3.78-7.46-8.12s2.91-8,7.35-8a6.31,6.31,0,0,1,5,2.42V28h4.27V43.17Zm-3.78-11.83a4.25,4.25,0,1,0,4.24,4.24A4.23,4.23,0,0,0,634.08,31.34Z"/><path class="cls-1" d="M656.55,43.17v-8.4c0-2.07-.46-3.64-2.87-3.64-2.63,0-3.26,1.92-3.26,4.2v7.84h-4.24V28h4.24v1.86a5.6,5.6,0,0,1,4.76-2.35,5.81,5.81,0,0,1,4.41,1.82,5.83,5.83,0,0,1,1.19,4.2v9.63Z"/><path class="cls-1" d="M676.43,43.17v-2a5.86,5.86,0,0,1-4.94,2.49c-4.55,0-7.46-3.78-7.46-8.12s2.91-8,7.35-8a6.32,6.32,0,0,1,5,2.42v-13h4.27V43.17Zm-3.78-11.83a4.25,4.25,0,1,0,4.24,4.24A4.23,4.23,0,0,0,672.65,31.34Z"/><path class="cls-1" d="M688.3,36.27c.07,2.35,1.19,4.06,3.71,4.06a4,4,0,0,0,3.61-2l3.92.63c-1.33,3.26-4,4.73-7.46,4.73-4.9,0-8.12-3.15-8.12-8.09s3.08-8.05,7.95-8.05,7.74,3.36,7.74,8.19v.56ZM692,30.53a3.44,3.44,0,0,0-3.54,3h7.18A3.51,3.51,0,0,0,692,30.53Z"/><path class="cls-1" d="M703.7,48.07l-2.7-.31,3.71-9.42,3.92.46Z"/><path class="cls-1" d="M540.74,81.17v-2a5.85,5.85,0,0,1-4.94,2.49c-4.55,0-7.46-3.78-7.46-8.12s2.91-8,7.35-8a6.31,6.31,0,0,1,5,2.42V66H545V81.17ZM537,69.34a4.25,4.25,0,1,0,4.24,4.24A4.23,4.23,0,0,0,537,69.34Z"/><path class="cls-1" d="M559.43,81.17v-8.4c0-2.07-.46-3.64-2.87-3.64-2.62,0-3.25,1.92-3.25,4.2v7.84h-4.24V66h4.24v1.86a5.59,5.59,0,0,1,4.76-2.35,5.24,5.24,0,0,1,5.6,6v9.63Z"/><path class="cls-1" d="M578.09,81.17v-8.4c0-2.07-.46-3.64-2.87-3.64-2.63,0-3.26,1.92-3.26,4.2v7.84h-4.24V66H572v1.86a5.6,5.6,0,0,1,4.76-2.35,5.24,5.24,0,0,1,5.6,6v9.63Z"/><path class="cls-1" d="M594.25,81.66c-4.83,0-8.68-3-8.68-8.05s3.85-8.09,8.72-8.09,8.61,3,8.61,8.05S599.05,81.66,594.25,81.66Zm0-12.32a4.25,4.25,0,1,0,4.31,4.27A4.29,4.29,0,0,0,594.22,69.34Z"/><path class="cls-1" d="M616.06,69.86a3.74,3.74,0,0,0-2-.53c-2.87,0-3.64,2-3.64,4.55v7.28h-4.24V66h4.24v2.28a4.94,4.94,0,0,1,6.27-2.42Z"/><path class="cls-1" d="M618.75,81.17V54.95H623V81.17Z"/><path class="cls-1" d="M634.36,81.66c-4.17,0-7.32-1.86-7.32-6.37V66h4.24v8.58c0,2.06.88,3.46,3.08,3.46s3.08-1.4,3.08-3.46V66h4.27v9.28C641.71,79.8,638.53,81.66,634.36,81.66Z"/><path class="cls-1" d="M656.13,81.17v-8.4c0-2.07-.46-3.64-2.87-3.64-2.63,0-3.26,1.92-3.26,4.2v7.84h-4.24V66H650v1.86a5.6,5.6,0,0,1,4.76-2.35,5.24,5.24,0,0,1,5.6,6v9.63Z"/><path class="cls-1" d="M676,81.17v-2a5.86,5.86,0,0,1-4.94,2.49c-4.55,0-7.46-3.78-7.46-8.12s2.91-8,7.35-8a6.32,6.32,0,0,1,5,2.42v-13h4.27V81.17Zm-3.78-11.83a4.25,4.25,0,1,0,4.24,4.24A4.23,4.23,0,0,0,672.23,69.34Z"/><path class="cls-1" d="M695.93,81.17v-2A5.85,5.85,0,0,1,691,81.66c-4.55,0-7.46-3.78-7.46-8.12s2.91-8,7.35-8a6.31,6.31,0,0,1,5,2.42V66h4.27V81.17Zm-3.78-11.83a4.25,4.25,0,1,0,4.24,4.24A4.23,4.23,0,0,0,692.15,69.34Z"/><path class="cls-1" d="M706.6,81.62a2.73,2.73,0,1,1,2.73-2.73A2.73,2.73,0,0,1,706.6,81.62Zm-2.17-7.14V57.82h4.34V74.48Z"/></svg>