<svg id="Layer_1" data-name="Layer 1" xmlns="http://www.w3.org/2000/svg" viewBox="0 0 980 240"><defs><style>.cls-1{fill:#d80201;}</style></defs><title>text</title><path class="cls-1" d="M296.14,129.56a7.28,7.28,0,0,1-6.15,3.11,9.33,9.33,0,0,1-6.4-2.58l3.24-3.89a3.18,3.18,0,0,0,2.63,1.51c3,0,2.74-3.28,2.74-5.41V104.67h5.33v18.45A11.69,11.69,0,0,1,296.14,129.56Z"/><path class="cls-1" d="M311.64,132.59c-4.88,0-8.57-2.17-8.57-7.46V114.27h5v10c0,2.42,1,4.06,3.61,4.06s3.61-1.64,3.61-4.06v-10h5v10.86C320.25,130.42,316.52,132.59,311.64,132.59Z"/><path class="cls-1" d="M330.66,132.59a9.41,9.41,0,0,1-6.76-3l2.62-3a5.77,5.77,0,0,0,4.18,2.09,2.1,2.1,0,0,0,2.26-2c0-3-7.92-1.52-7.92-7.5,0-3.61,3-5.62,6.36-5.62a9.1,9.1,0,0,1,5.78,1.89l-2.46,2.91a4.91,4.91,0,0,0-3-1.19c-.86,0-1.89.53-1.89,1.51,0,2.59,8.2,1.44,8.2,7.51C338.08,130.38,334.47,132.59,330.66,132.59Z"/><path class="cls-1" d="M346.61,118.53V132h-5V118.53h-2v-4.26h2V108.2h5v6.07h3.49v4.26Z"/><path class="cls-1" d="M375.06,132v-9.84c0-2.42-.53-4.27-3.36-4.27-3.07,0-3.81,2.26-3.81,4.92V132h-5V114.27h5v2.17c1.64-1.89,3-2.75,5.58-2.75a6.83,6.83,0,0,1,5.16,2.13c1.27,1.48,1.4,3.08,1.4,4.92V132Z"/><path class="cls-1" d="M393.35,132.59c-4.88,0-8.57-2.17-8.57-7.46V114.27h5v10c0,2.42,1,4.06,3.61,4.06s3.61-1.64,3.61-4.06v-10h5v10.86C402,130.42,398.23,132.59,393.35,132.59Z"/><path class="cls-1" d="M439.64,132V122.3c0-2.09-.33-4.39-2.95-4.39-2.91,0-3.41,2.67-3.41,5V132h-5v-9.43a7.88,7.88,0,0,0-.37-3,2.86,2.86,0,0,0-2.66-1.73,3.24,3.24,0,0,0-2.79,1.6,7.45,7.45,0,0,0-.57,3.41V132h-5V114.27h5v2a6.8,6.8,0,0,1,5.41-2.58,6,6,0,0,1,5.53,3.24,6.58,6.58,0,0,1,5.83-3.24,5.85,5.85,0,0,1,5,2.54,7.83,7.83,0,0,1,.94,4.31V132Z"/><path class="cls-1" d="M453.5,123.94c.08,2.75,1.39,4.76,4.34,4.76a4.66,4.66,0,0,0,4.23-2.38l4.59.74c-1.56,3.81-4.72,5.53-8.74,5.53-5.74,0-9.51-3.69-9.51-9.47s3.61-9.43,9.31-9.43c5.86,0,9.06,3.94,9.06,9.6v.65Zm4.3-6.72a4,4,0,0,0-4.14,3.56h8.41A4.12,4.12,0,0,0,457.8,117.22Z"/><path class="cls-1" d="M484.16,132v-2.34a6.84,6.84,0,0,1-5.78,2.91c-5.33,0-8.73-4.43-8.73-9.51s3.4-9.39,8.61-9.39a7.41,7.41,0,0,1,5.9,2.83V101.31h5V132Zm-4.42-13.86a5,5,0,1,0,5,5A5,5,0,0,0,479.74,118.16Z"/><path class="cls-1" d="M513.52,109.3V132h-5.33V109.3h-6.11v-4.63h17.59v4.63Z"/><path class="cls-1" d="M532.83,118.78a4.33,4.33,0,0,0-2.38-.62c-3.36,0-4.26,2.38-4.26,5.33V132h-5V114.27h5v2.66a5.79,5.79,0,0,1,7.34-2.83Z"/><path class="cls-1" d="M542.26,141.53h-5.62l6.52-12.18-8.4-15.08h5.78l5.33,10.08L551,114.27h5.66Z"/><path class="cls-1" d="M575.51,138.46a9.7,9.7,0,0,1-7.55,3.11c-4.55,0-8.93-2.62-9.42-7.46h5.37a4,4,0,0,0,4.22,3.24c3.12,0,4.39-2.17,4.39-5v-2.67a7.39,7.39,0,0,1-6,3c-5.25,0-8.45-4.22-8.45-9.22s3.28-9.68,8.7-9.68a6.65,6.65,0,0,1,5.74,2.87v-2.29h5v17.09C577.52,134.15,577.4,136.24,575.51,138.46Zm-7.34-20.3a5,5,0,1,0,5,5A4.95,4.95,0,0,0,568.17,118.16Z"/><path class="cls-1" d="M598.76,138.46a9.7,9.7,0,0,1-7.55,3.11c-4.55,0-8.94-2.62-9.43-7.46h5.37a4,4,0,0,0,4.23,3.24c3.11,0,4.38-2.17,4.38-5v-2.67a7.36,7.36,0,0,1-6,3c-5.25,0-8.45-4.22-8.45-9.22s3.28-9.68,8.69-9.68a6.64,6.64,0,0,1,5.74,2.87v-2.29h5v17.09C600.76,134.15,600.64,136.24,598.76,138.46Zm-7.34-20.3a5,5,0,1,0,5,5A4.95,4.95,0,0,0,591.42,118.16Z"/><path class="cls-1" d="M617.66,132V122.3c0-2.46-.54-4.39-3.41-4.39-3.07,0-3.77,2.38-3.77,5V132h-5V101.31h5v15.25a6.47,6.47,0,0,1,5.58-2.87,6.8,6.8,0,0,1,5.16,2.17c1.27,1.48,1.4,3.16,1.4,5V132Z"/><path class="cls-1" d="M631.51,123.94c.09,2.75,1.4,4.76,4.35,4.76a4.64,4.64,0,0,0,4.22-2.38l4.59.74c-1.55,3.81-4.71,5.53-8.73,5.53-5.74,0-9.51-3.69-9.51-9.47s3.61-9.43,9.31-9.43c5.86,0,9.06,3.94,9.06,9.6v.65Zm4.31-6.72a4,4,0,0,0-4.14,3.56h8.4A4.11,4.11,0,0,0,635.82,117.22Z"/><path class="cls-1" d="M653.61,118.53V132h-5V118.53h-2v-4.26h2V108.2h5v6.07h3.49v4.26Z"/><path class="cls-1" d="M665.34,132.59a9.45,9.45,0,0,1-6.77-3l2.63-3a5.75,5.75,0,0,0,4.18,2.09,2.09,2.09,0,0,0,2.25-2c0-3-7.91-1.52-7.91-7.5,0-3.61,3-5.62,6.36-5.62a9.1,9.1,0,0,1,5.78,1.89l-2.46,2.91a4.94,4.94,0,0,0-2.95-1.19c-.87,0-1.89.53-1.89,1.51,0,2.59,8.2,1.44,8.2,7.51C672.76,130.38,669.15,132.59,665.34,132.59Z"/><path class="cls-1" d="M692.77,138.46a9.7,9.7,0,0,1-7.55,3.11c-4.55,0-8.93-2.62-9.43-7.46h5.37a4,4,0,0,0,4.23,3.24c3.11,0,4.38-2.17,4.38-5v-2.67a7.36,7.36,0,0,1-6,3c-5.25,0-8.45-4.22-8.45-9.22s3.28-9.68,8.69-9.68a6.63,6.63,0,0,1,5.74,2.87v-2.29h5v17.09C694.78,134.15,694.65,136.24,692.77,138.46Zm-7.34-20.3a5,5,0,1,0,5,5A4.95,4.95,0,0,0,685.43,118.16Z"/><path class="cls-1" d="M713.1,132v-2.34a6.84,6.84,0,0,1-5.78,2.91c-5.33,0-8.73-4.43-8.73-9.51s3.4-9.39,8.61-9.39a7.41,7.41,0,0,1,5.9,2.83v-2.25h5V132Zm-4.43-13.86a5,5,0,1,0,5,5A5,5,0,0,0,708.67,118.16Z"/><path class="cls-1" d="M734.46,118.78a4.31,4.31,0,0,0-2.38-.62c-3.36,0-4.26,2.38-4.26,5.33V132h-5V114.27h5v2.66a5.71,5.71,0,0,1,5.17-3.24,5.61,5.61,0,0,1,2.17.41Z"/><path class="cls-1" d="M751.19,132v-2.34a6.84,6.84,0,0,1-5.78,2.91c-5.33,0-8.73-4.43-8.73-9.51s3.4-9.39,8.61-9.39a7.41,7.41,0,0,1,5.9,2.83v-2.25h5V132Zm-4.43-13.86a5,5,0,1,0,5,5A5,5,0,0,0,746.76,118.16Z"/><path class="cls-1" d="M773.08,132v-9.84c0-2.42-.53-4.27-3.36-4.27-3.07,0-3.81,2.26-3.81,4.92V132h-5V114.27h5v2.17c1.64-1.89,3-2.75,5.57-2.75a6.83,6.83,0,0,1,5.17,2.13c1.27,1.48,1.39,3.08,1.39,4.92V132Z"/><path class="cls-1" d="M787.8,118.53V132h-5V118.53h-2v-4.26h2V108.2h5v6.07h3.49v4.26Z"/><path class="cls-1" d="M796.29,109.76a3,3,0,0,1,0-6,3,3,0,0,1,0,6ZM793.79,132V114.27h5V132Z"/><path class="cls-1" d="M806.17,132.55a3.2,3.2,0,1,1,3.2-3.2A3.2,3.2,0,0,1,806.17,132.55Zm-2.54-8.36V104.67h5.08v19.52Z"/></svg>