<svg id="Layer_1" data-name="Layer 1" xmlns="http://www.w3.org/2000/svg" viewBox="0 0 980 240"><defs><style>.cls-1{fill:#d80201;}</style></defs><title>text</title><path class="cls-1" d="M455.24,112.14c-8.86,0-16-6.62-16-15.62s7.2-15.75,16.11-15.75a15.7,15.7,0,0,1,16,15.71C471.31,105.43,464.06,112.14,455.24,112.14Zm0-26a10.35,10.35,0,1,0,10,10.3A10.18,10.18,0,0,0,455.24,86.13Zm-5-8A3.29,3.29,0,0,1,447,74.92a3.25,3.25,0,0,1,3.24-3.19,3.22,3.22,0,1,1,0,6.43Zm10.08,0A3.29,3.29,0,0,1,457,74.92a3.25,3.25,0,0,1,3.24-3.19,3.22,3.22,0,1,1,0,6.43Z"/><path class="cls-1" d="M487.82,112.09a7.79,7.79,0,0,1-6.52-3.19v13h-5.45V92h5.45v2.47a7.76,7.76,0,0,1,6.39-3.1c5.8,0,9.63,4.81,9.63,10.39S493.54,112.09,487.82,112.09ZM486.2,96.25a5.47,5.47,0,1,0,5.45,5.45A5.44,5.44,0,0,0,486.2,96.25Z"/><path class="cls-1" d="M513.43,112.09a7.79,7.79,0,0,1-6.53-3.19v13h-5.44V92h5.44v2.47a7.76,7.76,0,0,1,6.39-3.1c5.81,0,9.63,4.81,9.63,10.39S519.14,112.09,513.43,112.09Zm-1.62-15.84a5.47,5.47,0,1,0,5.44,5.45A5.44,5.44,0,0,0,511.81,96.25Z"/><path class="cls-1" d="M531.61,102.6c.09,3,1.53,5.22,4.77,5.22a5.1,5.1,0,0,0,4.63-2.61l5,.81c-1.71,4.18-5.17,6.07-9.58,6.07-6.3,0-10.44-4-10.44-10.39s4-10.35,10.21-10.35c6.44,0,10,4.32,10,10.53v.72Zm4.72-7.38a4.42,4.42,0,0,0-4.54,3.91H541A4.51,4.51,0,0,0,536.33,95.22Z"/><path class="cls-1" d="M555.86,96.66v14.8h-5.44V96.66h-2.16V92h2.16V85.32h5.44V92h3.83v4.68Z"/><path class="cls-1" d="M587.14,111.46l-7.34-8.37-.58.59v7.78h-5.45V77.76h5.45V99.09L586.51,92h7.38l-9.14,8.55,9.86,10.93Z"/><path class="cls-1" d="M607.16,112.09c-6.21,0-11.16-3.87-11.16-10.35s5-10.39,11.21-10.39,11.07,3.91,11.07,10.35S613.33,112.09,607.16,112.09Zm-4.72-23.76a3.24,3.24,0,0,1,0-6.48,3.24,3.24,0,0,1,0,6.48Zm4.68,7.92a5.47,5.47,0,1,0,5.53,5.49A5.51,5.51,0,0,0,607.12,96.25Zm4.68-7.92a3.28,3.28,0,0,1-3.24-3.24,3.24,3.24,0,1,1,3.24,3.24Z"/><path class="cls-1" d="M634.43,112.09a7.79,7.79,0,0,1-6.52-3.19v13h-5.45V92h5.45v2.47a7.76,7.76,0,0,1,6.39-3.1c5.8,0,9.63,4.81,9.63,10.39S640.15,112.09,634.43,112.09Zm-1.62-15.84a5.47,5.47,0,1,0,5.45,5.45A5.44,5.44,0,0,0,632.81,96.25Z"/><path class="cls-1" d="M305,149.73v-5H324.5v5Z"/><path class="cls-1" d="M358,148.69c-2.93,3.15-7.52,2.66-11.43,2.66v11.11H340.7v-30h8.73c3,0,5.58.22,7.92,2.29a9.57,9.57,0,0,1,3.06,7.25A9.87,9.87,0,0,1,358,148.69Zm-5.13-10.21c-1.13-.9-2.88-.95-4.28-.95h-2v8.73h2.38c2.93,0,5.45-.94,5.45-4.32A4.46,4.46,0,0,0,352.85,138.48Z"/><path class="cls-1" d="M376.65,147.93a4.77,4.77,0,0,0-2.61-.68c-3.69,0-4.68,2.61-4.68,5.85v9.36h-5.44V143h5.44v2.92a6.26,6.26,0,0,1,5.67-3.55,6.15,6.15,0,0,1,2.39.45Z"/><path class="cls-1" d="M382.77,138a3.29,3.29,0,0,1,0-6.57,3.29,3.29,0,0,1,0,6.57ZM380,162.46V143h5.44v19.48Z"/><path class="cls-1" d="M396.81,163.09a10.33,10.33,0,0,1-7.42-3.24l2.88-3.33a6.3,6.3,0,0,0,4.59,2.3,2.29,2.29,0,0,0,2.47-2.16c0-3.33-8.68-1.67-8.68-8.24,0-4,3.28-6.16,7-6.16a10.06,10.06,0,0,1,6.35,2.07l-2.7,3.19a5.45,5.45,0,0,0-3.24-1.3c-.95,0-2.07.58-2.07,1.66,0,2.84,9,1.58,9,8.24C405,160.66,401,163.09,396.81,163.09Z"/><path class="cls-1" d="M426.92,169.53a10.63,10.63,0,0,1-8.28,3.42c-5,0-9.81-2.88-10.35-8.19h5.89a4.35,4.35,0,0,0,4.64,3.55c3.42,0,4.81-2.38,4.81-5.53v-2.93a8.07,8.07,0,0,1-6.57,3.24c-5.76,0-9.27-4.63-9.27-10.12s3.6-10.62,9.54-10.62a7.3,7.3,0,0,1,6.3,3.15V143h5.49v18.76C429.12,164.8,429,167.1,426.92,169.53Zm-8.06-22.28a5.47,5.47,0,1,0,5.45,5.45A5.44,5.44,0,0,0,418.86,147.25Z"/><path class="cls-1" d="M449.24,162.46V159.9a7.55,7.55,0,0,1-6.35,3.19c-5.85,0-9.58-4.86-9.58-10.44s3.73-10.3,9.45-10.3a8.14,8.14,0,0,1,6.48,3.1V143h5.49v19.48Zm-4.86-15.21a5.47,5.47,0,1,0,5.44,5.45A5.44,5.44,0,0,0,444.38,147.25Z"/><path class="cls-1" d="M472.68,147.93a4.77,4.77,0,0,0-2.61-.68c-3.69,0-4.68,2.61-4.68,5.85v9.36H460V143h5.44v2.92a6.26,6.26,0,0,1,5.67-3.55,6.15,6.15,0,0,1,2.39.45Z"/><path class="cls-1" d="M491,162.46V159.9a7.53,7.53,0,0,1-6.34,3.19c-5.85,0-9.59-4.86-9.59-10.44s3.74-10.3,9.45-10.3a8.12,8.12,0,0,1,6.48,3.1V143h5.49v19.48Zm-4.86-15.21a5.47,5.47,0,1,0,5.45,5.45A5.44,5.44,0,0,0,486.18,147.25Z"/><path class="cls-1" d="M515.07,162.46v-10.8c0-2.65-.58-4.68-3.69-4.68-3.37,0-4.18,2.48-4.18,5.4v10.08h-5.45V143h5.45v2.38c1.8-2.07,3.33-3,6.12-3a7.5,7.5,0,0,1,5.67,2.34c1.39,1.62,1.52,3.37,1.52,5.4v12.37Z"/><path class="cls-1" d="M531.22,147.66v14.8h-5.44v-14.8h-2.16V143h2.16v-6.66h5.44V143h3.83v4.68Z"/><path class="cls-1" d="M540.54,138a3.29,3.29,0,1,1,0-6.57,3.29,3.29,0,0,1,0,6.57Zm-2.75,24.43V143h5.45v19.48Z"/><path class="cls-1" d="M558.49,149.73v-5H578v5Z"/><path class="cls-1" d="M604.3,162.46H594.22v-30h7.43c2.43,0,5.4.22,7.33,1.8a8,8,0,0,1,2.7,6.16,6.29,6.29,0,0,1-3.28,6,6.87,6.87,0,0,1,3.91,1.89,8.08,8.08,0,0,1,2.16,5.63C614.47,159.94,609.7,162.46,604.3,162.46Zm-2.52-25.24h-1.71V145h1.67c2.61,0,4.54-1,4.54-3.87S604.39,137.22,601.78,137.22Zm1,12.19h-2.7v8.33h2.52c2.88,0,5.85-.68,5.85-4.19C608.44,150.22,605.56,149.41,602.77,149.41Z"/><path class="cls-1" d="M623.56,153.6c.09,3,1.53,5.22,4.77,5.22a5.13,5.13,0,0,0,4.64-2.61l5,.81c-1.71,4.18-5.18,6.07-9.59,6.07-6.3,0-10.44-4.05-10.44-10.39s4-10.35,10.22-10.35c6.43,0,9.94,4.32,9.94,10.53v.72Zm4.73-7.38a4.42,4.42,0,0,0-4.55,3.91H633A4.52,4.52,0,0,0,628.29,146.22Z"/><path class="cls-1" d="M647.82,147.66v14.8h-5.45v-14.8h-2.16V143h2.16v-6.66h5.45V143h3.82v4.68Z"/><path class="cls-1" d="M669.37,162.46V159.9a7.53,7.53,0,0,1-6.34,3.19c-5.85,0-9.59-4.86-9.59-10.44s3.74-10.3,9.45-10.3a8.12,8.12,0,0,1,6.48,3.1V143h5.49v19.48Zm-4.86-15.21A5.47,5.47,0,1,0,670,152.7,5.44,5.44,0,0,0,664.51,147.25Z"/><path class="cls-1" d="M680.08,162.46v-33.7h5.45v33.7Z"/><path class="cls-1" d="M705.64,162.46V159.9a7.53,7.53,0,0,1-6.34,3.19c-5.85,0-9.59-4.86-9.59-10.44s3.74-10.3,9.45-10.3a8.12,8.12,0,0,1,6.48,3.1V143h5.49v19.48Zm-4.86-15.21a5.47,5.47,0,1,0,5.45,5.45A5.44,5.44,0,0,0,700.78,147.25Z"/><path class="cls-1" d="M733.81,163.09a10.33,10.33,0,0,1-7.42-3.24l2.88-3.33a6.3,6.3,0,0,0,4.59,2.3,2.29,2.29,0,0,0,2.47-2.16c0-3.33-8.68-1.67-8.68-8.24,0-4,3.28-6.16,7-6.16a10.06,10.06,0,0,1,6.35,2.07l-2.7,3.19a5.45,5.45,0,0,0-3.24-1.3c-.95,0-2.07.58-2.07,1.66,0,2.84,9,1.58,9,8.24C742,160.66,738,163.09,733.81,163.09Z"/><path class="cls-1" d="M750.37,153.6c.09,3,1.53,5.22,4.77,5.22a5.13,5.13,0,0,0,4.64-2.61l5,.81c-1.71,4.18-5.18,6.07-9.59,6.07-6.3,0-10.44-4.05-10.44-10.39s4-10.35,10.21-10.35c6.44,0,10,4.32,10,10.53v.72Zm4.73-7.38a4.42,4.42,0,0,0-4.55,3.91h9.23A4.52,4.52,0,0,0,755.1,146.22Z"/><path class="cls-1" d="M782.46,162.46v-10.8c0-2.65-.59-4.68-3.7-4.68-3.37,0-4.18,2.48-4.18,5.4v10.08h-5.44V143h5.44v2.38c1.8-2.07,3.33-3,6.12-3a7.48,7.48,0,0,1,5.67,2.34c1.39,1.62,1.53,3.37,1.53,5.4v12.37Z"/></svg>