<svg id="Layer_1" data-name="Layer 1" xmlns="http://www.w3.org/2000/svg" viewBox="0 0 980 140"><defs><style>.cls-1{fill:#d80201;}</style></defs><title>text</title><path class="cls-1" d="M527,105.48a3.26,3.26,0,0,1-3.3-2.75l1.15-.32a2.17,2.17,0,0,0,2.18,2,2.11,2.11,0,0,0,2.14-2.11c0-2.51-4.93-1.92-4.93-5.06a2.82,2.82,0,0,1,3-2.75A3,3,0,0,1,530,96.1l-.94.62a2,2,0,0,0-1.82-1.17,1.69,1.69,0,0,0-1.78,1.63c0,2.21,4.93,1.57,4.93,5A3.29,3.29,0,0,1,527,105.48Z"/><path class="cls-1" d="M536.39,105.29l-2.69-3-.29.29v2.74h-1.14V93.62h1.14v7.48l2.42-2.45h1.52l-2.85,2.82,3.38,3.83Z"/><path class="cls-1" d="M541.32,105.72l-3.27-7.07h1.28l2,4.47,2-4.47h1.28Z"/><path class="cls-1" d="M550.63,105.29v-.93a2.84,2.84,0,0,1-2.31,1.12,3.29,3.29,0,0,1-3.2-3.54,3.23,3.23,0,0,1,3.19-3.46,2.81,2.81,0,0,1,2.32,1.1v-.94h1.14v6.64Zm-2.15-5.78a2.26,2.26,0,0,0-2.19,2.43,2.29,2.29,0,0,0,2.19,2.5,2.27,2.27,0,0,0,2.21-2.5A2.24,2.24,0,0,0,548.49,99.51Z"/><path class="cls-1" d="M559,105.29v-.93a2.84,2.84,0,0,1-2.31,1.12,3.29,3.29,0,0,1-3.2-3.52,3.25,3.25,0,0,1,3.19-3.47,2.85,2.85,0,0,1,2.32,1.1v-6h1.14v11.67Zm-2.15-5.76a2.47,2.47,0,1,0,2.21,2.42A2.23,2.23,0,0,0,556.87,99.52Z"/><path class="cls-1" d="M565.44,99.8a1,1,0,0,0-.67-.22,1.23,1.23,0,0,0-.58.14c-.74.4-.74,1.34-.74,2.06v3.51h-1.14V98.64h1.14v.72a1.78,1.78,0,0,1,1.5-.88,1.89,1.89,0,0,1,1,.27Z"/><path class="cls-1" d="M569.89,105.48A3.5,3.5,0,1,1,573.4,102,3.47,3.47,0,0,1,569.89,105.48Zm0-6a2.46,2.46,0,1,0,2.35,2.46A2.33,2.33,0,0,0,569.88,99.52Z"/><path class="cls-1" d="M579.32,105.29v-3.92c0-1-.14-1.86-1.39-1.86-1.47,0-1.65,1.28-1.65,2.45v3.33h-1.14V98.64h1.14v.8a2.24,2.24,0,0,1,1.92-1,2.26,2.26,0,0,1,1.89.91,3,3,0,0,1,.38,1.76v4.13Z"/><path class="cls-1" d="M584.95,105.72l-3.27-7.07H583l2,4.47,2-4.47h1.28Z"/><path class="cls-1" d="M594.49,105.29v-.93a2.84,2.84,0,0,1-2.31,1.12,3.29,3.29,0,0,1-3.2-3.54,3.23,3.23,0,0,1,3.19-3.46,2.81,2.81,0,0,1,2.32,1.1v-.94h1.14v6.64Zm-2.15-5.78a2.26,2.26,0,0,0-2.19,2.43,2.29,2.29,0,0,0,2.19,2.5,2.27,2.27,0,0,0,2.21-2.5A2.24,2.24,0,0,0,592.34,99.51ZM591,97.28a.81.81,0,0,1-.8-.8.8.8,0,1,1,.8.8Zm2.79,0a.81.81,0,0,1-.8-.8.8.8,0,1,1,.8.8Z"/><path class="cls-1" d="M603.38,107.75a3.22,3.22,0,0,1-2.66,1.23,3,3,0,0,1-3.23-3h1.14a2,2,0,0,0,2.11,2c1.6,0,2.13-1.2,2.13-2.62v-1a3,3,0,0,1-2.34,1.1,3.5,3.5,0,0,1,0-7,2.84,2.84,0,0,1,2.29,1.09v-.93H604v6.5A4,4,0,0,1,603.38,107.75Zm-2.67-8.24a2.28,2.28,0,0,0-2.18,2.51,2.24,2.24,0,0,0,2.18,2.42,2.48,2.48,0,0,0,0-4.93Z"/><path class="cls-1" d="M607,102.2a2.15,2.15,0,0,0,2.11,2.24,2.29,2.29,0,0,0,2-1.38l1,.53a3.31,3.31,0,0,1-3,1.89,3.51,3.51,0,0,1-.06-7c2,0,3.17,1.57,3.17,3.49v.22Zm2-2.67a2,2,0,0,0-2,1.71h3.91A2,2,0,0,0,609,99.52Z"/><path class="cls-1" d="M618.07,105.29v-3.92c0-1-.14-1.86-1.39-1.86-1.47,0-1.65,1.28-1.65,2.45v3.33h-1.14V98.64H615v.8a2.41,2.41,0,0,1,3.81,0,3,3,0,0,1,.38,1.76v4.13Z"/><path class="cls-1" d="M629.72,101.68l-2.19,2.5H632v1.1h-6.9l3.89-4.5c.72-.83,1.84-2,1.84-3.19a2.13,2.13,0,0,0-4.26.13h-1.2a4.42,4.42,0,0,1,.22-1.2A3.33,3.33,0,0,1,632,97.62C632,99.22,630.71,100.56,629.72,101.68Z"/><path class="cls-1" d="M640.71,100.5l-3.63,5-.9-.66,2.46-3.43a3.35,3.35,0,0,1-1,.14,3.45,3.45,0,0,1-3.43-3.51,3.68,3.68,0,0,1,7.36,0A4.29,4.29,0,0,1,640.71,100.5Zm-2.79-5a2.51,2.51,0,1,0,2.51,2.51A2.51,2.51,0,0,0,637.92,95.54Z"/><path class="cls-1" d="M643.59,107.72l-.75-.3,1.31-3.7,1.06.38Z"/><path class="cls-1" d="M654.52,105.93l-4.32-11.32h1.3l3,8.15,3-8.15h1.28Z"/><path class="cls-1" d="M664.39,105.29v-.93a2.84,2.84,0,0,1-2.31,1.12,3.29,3.29,0,0,1-3.2-3.54,3.23,3.23,0,0,1,3.19-3.46,2.81,2.81,0,0,1,2.32,1.1v-.94h1.14v6.64Zm-2.15-5.78a2.26,2.26,0,0,0-2.19,2.43,2.29,2.29,0,0,0,2.19,2.5,2.27,2.27,0,0,0,2.21-2.5A2.24,2.24,0,0,0,662.24,99.51Z"/><path class="cls-1" d="M667.7,105.29V93.62h1.14v11.67Z"/><path class="cls-1" d="M671,105.29V93.62h1.14v11.67Z"/><path class="cls-1" d="M675.09,102.2a2.15,2.15,0,0,0,2.11,2.24,2.29,2.29,0,0,0,2-1.38l1,.53a3.31,3.31,0,0,1-3,1.89,3.51,3.51,0,0,1-.06-7c2,0,3.17,1.57,3.17,3.49v.22Zm2-2.67a2,2,0,0,0-2,1.71h3.91A2,2,0,0,0,677.14,99.52Z"/><path class="cls-1" d="M686.19,105.29v-3.92c0-1-.14-1.86-1.39-1.86-1.47,0-1.65,1.28-1.65,2.45v3.33H682V98.64h1.14v.8a2.41,2.41,0,0,1,3.81,0,3,3,0,0,1,.38,1.76v4.13Z"/><path class="cls-1" d="M690.67,99.7v5.59h-1.15V99.7h-.69V98.64h.69v-2.4h1.15v2.4h1.17V99.7Z"/><path class="cls-1" d="M697.62,104.65a2.9,2.9,0,0,1-4.07,0,2.72,2.72,0,0,1-.61-2v-4h1.14v3.87a2.55,2.55,0,0,0,.21,1.25,1.57,1.57,0,0,0,2.58,0,2.58,2.58,0,0,0,.21-1.25V98.64h1.14v4A2.71,2.71,0,0,1,697.62,104.65Z"/><path class="cls-1" d="M704.56,105.29v-3.92c0-1-.14-1.86-1.39-1.86-1.47,0-1.65,1.28-1.65,2.45v3.33h-1.14V98.64h1.14v.8a2.24,2.24,0,0,1,1.92-1,2.26,2.26,0,0,1,1.89.91,3,3,0,0,1,.38,1.76v4.13Z"/><path class="cls-1" d="M713,105.29v-.93a2.84,2.84,0,0,1-2.31,1.12,3.29,3.29,0,0,1-3.2-3.54,3.23,3.23,0,0,1,3.19-3.46,2.81,2.81,0,0,1,2.32,1.1v-.94h1.14v6.64Zm-2.15-5.78a2.26,2.26,0,0,0-2.19,2.43,2.29,2.29,0,0,0,2.19,2.5,2.27,2.27,0,0,0,2.21-2.5A2.24,2.24,0,0,0,710.82,99.51Z"/><path class="cls-1" d="M509.46,126.48a3.26,3.26,0,0,1-3.3-2.75l1.15-.32a2.17,2.17,0,0,0,2.18,2,2.11,2.11,0,0,0,2.14-2.11c0-2.51-4.93-1.92-4.93-5.06a2.82,2.82,0,0,1,3-2.75,3,3,0,0,1,2.75,1.67l-.94.62a2,2,0,0,0-1.82-1.17,1.69,1.69,0,0,0-1.78,1.63c0,2.21,4.93,1.57,4.93,5A3.29,3.29,0,0,1,509.46,126.48Z"/><path class="cls-1" d="M517.81,126.48a3.5,3.5,0,1,1,3.51-3.49A3.47,3.47,0,0,1,517.81,126.48Zm0-6a2.46,2.46,0,1,0,2.35,2.46A2.33,2.33,0,0,0,517.8,120.52Zm-1.38-2.24a.81.81,0,0,1-.8-.8.8.8,0,1,1,.8.8Zm2.79,0a.81.81,0,0,1-.8-.8.8.8,0,1,1,.8.8Z"/><path class="cls-1" d="M527.24,126.29v-3.92c0-1-.14-1.86-1.39-1.86-1.47,0-1.65,1.28-1.65,2.45v3.33h-1.14v-6.64h1.14v.8a2.24,2.24,0,0,1,1.92-1,2.26,2.26,0,0,1,1.89.91,3,3,0,0,1,.38,1.76v4.13Z"/><path class="cls-1" d="M535.64,126.29v-.93a2.84,2.84,0,0,1-2.31,1.12,3.29,3.29,0,0,1-3.2-3.52,3.25,3.25,0,0,1,3.19-3.47,2.85,2.85,0,0,1,2.32,1.1v-6h1.14v11.67Zm-2.15-5.76a2.47,2.47,0,1,0,2.21,2.42A2.23,2.23,0,0,0,533.49,120.52Z"/><path class="cls-1" d="M544,126.29v-.93a2.84,2.84,0,0,1-2.31,1.12,3.29,3.29,0,0,1-3.2-3.54,3.23,3.23,0,0,1,3.19-3.46,2.81,2.81,0,0,1,2.32,1.1v-.94h1.14v6.64Zm-2.15-5.78a2.26,2.26,0,0,0-2.19,2.43,2.29,2.29,0,0,0,2.19,2.5,2.27,2.27,0,0,0,2.21-2.5A2.24,2.24,0,0,0,541.88,120.51Z"/><path class="cls-1" d="M552.92,128.75a3.22,3.22,0,0,1-2.66,1.23,3,3,0,0,1-3.23-3h1.14a2,2,0,0,0,2.11,2c1.6,0,2.13-1.2,2.13-2.62v-1a3,3,0,0,1-2.34,1.1,3.5,3.5,0,0,1,0-7,2.84,2.84,0,0,1,2.29,1.09v-.93h1.15v6.5A4,4,0,0,1,552.92,128.75Zm-2.67-8.24a2.28,2.28,0,0,0-2.18,2.51,2.24,2.24,0,0,0,2.18,2.42,2.48,2.48,0,0,0,0-4.93Z"/><path class="cls-1" d="M562.89,126.29v-9.56h-1.78l.62-1.12h2.34v10.68Z"/><path class="cls-1" d="M572.34,126.46a3.13,3.13,0,0,1-3.27-3.12,2.79,2.79,0,0,1,1.58-2.61,2.68,2.68,0,0,1-1.3-2.34,3,3,0,0,1,6,0,2.78,2.78,0,0,1-1.34,2.35,2.77,2.77,0,0,1,1.55,2.58A3.1,3.1,0,0,1,572.34,126.46Zm0-5.19a2,2,0,1,0,2.06,2A2,2,0,0,0,572.31,121.28Zm0-4.74a1.86,1.86,0,1,0,1.86,1.86A1.86,1.86,0,0,0,572.34,116.54Z"/><path class="cls-1" d="M583,120.7v5.59h-1.14V120.7h-.62v-1.06h.62v-2.83a3.81,3.81,0,0,1,.18-1.28,1.85,1.85,0,0,1,1.79-1.1,2.93,2.93,0,0,1,.83.14v1.15a2.05,2.05,0,0,0-.75-.16c-.83,0-.91.62-.91,1.3v2.79h1.66v1.06Z"/><path class="cls-1" d="M586.47,123.2a2.15,2.15,0,0,0,2.11,2.24,2.29,2.29,0,0,0,2-1.38l1,.53a3.31,3.31,0,0,1-3,1.89,3.51,3.51,0,0,1-.06-7c2,0,3.17,1.57,3.17,3.49v.22Zm2-2.67a2,2,0,0,0-2,1.71h3.91A2,2,0,0,0,588.52,120.52Z"/><path class="cls-1" d="M596.84,126.48a2.83,2.83,0,0,1-2.3-1.12v.93H593.4V114.62h1.14v6a2.85,2.85,0,0,1,2.32-1.1A3.25,3.25,0,0,1,600,123,3.29,3.29,0,0,1,596.84,126.48Zm-.16-6a2.24,2.24,0,0,0-2.21,2.45,2.21,2.21,0,1,0,2.21-2.45Z"/><path class="cls-1" d="M605.22,121.48v-1.06h6.95v1.06Z"/><path class="cls-1" d="M618.55,123.2a2.15,2.15,0,0,0,2.11,2.24,2.29,2.29,0,0,0,2-1.38l1,.53a3.31,3.31,0,0,1-3,1.89,3.51,3.51,0,0,1-.06-7c2,0,3.17,1.57,3.17,3.49v.22Zm2-2.67a2,2,0,0,0-2,1.71h3.91A2,2,0,0,0,620.6,120.52Z"/><path class="cls-1" d="M629.65,126.29v-3.92c0-1-.14-1.86-1.39-1.86-1.47,0-1.65,1.28-1.65,2.45v3.33h-1.14v-6.64h1.14v.8a2.41,2.41,0,0,1,3.81,0,3,3,0,0,1,.38,1.76v4.13Z"/><path class="cls-1" d="M638.05,126.29v-.93a2.84,2.84,0,0,1-2.31,1.12,3.29,3.29,0,0,1-3.2-3.52,3.25,3.25,0,0,1,3.19-3.47,2.85,2.85,0,0,1,2.32,1.1v-6h1.14v11.67Zm-2.15-5.76a2.47,2.47,0,1,0,2.21,2.42A2.23,2.23,0,0,0,635.91,120.52Z"/><path class="cls-1" d="M646.44,126.29v-.93a2.84,2.84,0,0,1-2.31,1.12,3.29,3.29,0,0,1-3.2-3.54,3.23,3.23,0,0,1,3.19-3.46,2.81,2.81,0,0,1,2.32,1.1v-.94h1.14v6.64Zm-2.15-5.78a2.26,2.26,0,0,0-2.19,2.43,2.29,2.29,0,0,0,2.19,2.5,2.27,2.27,0,0,0,2.21-2.5A2.24,2.24,0,0,0,644.29,120.51Z"/><path class="cls-1" d="M651.54,126.48a2.37,2.37,0,0,1-2.32-1.7l1-.42c.27.59.64,1.07,1.34,1.07a1,1,0,0,0,1.09-1c0-1.44-3-1-3-3.06a1.87,1.87,0,0,1,1.94-1.86,2,2,0,0,1,1.82,1.2l-.94.5a1.06,1.06,0,0,0-.93-.66.79.79,0,0,0-.8.74c0,1.17,3.07.86,3.07,3A2.18,2.18,0,0,1,651.54,126.48Z"/><path class="cls-1" d="M656.5,120.7v5.59h-1.15V120.7h-.69v-1.06h.69v-2.4h1.15v2.4h1.17v1.06Z"/><path class="cls-1" d="M663.91,120.7v5.59h-1.14V120.7h-.62v-1.06h.62v-2.83a3.81,3.81,0,0,1,.18-1.28,1.85,1.85,0,0,1,1.79-1.1,2.93,2.93,0,0,1,.83.14v1.15a2.05,2.05,0,0,0-.75-.16c-.83,0-.91.62-.91,1.3v2.79h1.66v1.06Z"/><path class="cls-1" d="M669.68,126.48a3.5,3.5,0,1,1,3.51-3.49A3.47,3.47,0,0,1,669.68,126.48Zm0-6A2.46,2.46,0,1,0,672,123,2.33,2.33,0,0,0,669.67,120.52Zm-1.38-2.24a.81.81,0,0,1-.8-.8.8.8,0,1,1,.8.8Zm2.79,0a.81.81,0,0,1-.8-.8.8.8,0,1,1,.8.8Z"/><path class="cls-1" d="M678.05,120.8a1,1,0,0,0-.67-.22,1.23,1.23,0,0,0-.58.14c-.74.4-.74,1.34-.74,2.06v3.51h-1.14v-6.64h1.14v.72a1.78,1.78,0,0,1,1.5-.88,1.89,1.89,0,0,1,1,.27Z"/><path class="cls-1" d="M684.55,126.29v-.93a2.84,2.84,0,0,1-2.31,1.12,3.29,3.29,0,0,1-3.2-3.54,3.23,3.23,0,0,1,3.19-3.46,2.81,2.81,0,0,1,2.32,1.1v-.94h1.14v6.64Zm-2.15-5.78a2.26,2.26,0,0,0-2.19,2.43,2.29,2.29,0,0,0,2.19,2.5,2.27,2.27,0,0,0,2.21-2.5A2.24,2.24,0,0,0,682.4,120.51Z"/><path class="cls-1" d="M692,126.29v-3.92c0-1-.14-1.86-1.39-1.86-1.47,0-1.65,1.28-1.65,2.45v3.33h-1.14v-6.64H689v.8a2.41,2.41,0,0,1,3.81,0,3,3,0,0,1,.38,1.76v4.13Z"/><path class="cls-1" d="M702.93,126.29v-4c0-.85-.14-1.74-1.2-1.74s-1.42,1.12-1.42,2.08v3.7h-1.14v-3.94c0-.83-.18-1.84-1.22-1.84a1.38,1.38,0,0,0-1.2.72,3.16,3.16,0,0,0-.26,1.44v3.62h-1.14v-6.64h1.14v.7a1.89,1.89,0,0,1,1.65-.86,2,2,0,0,1,1.82,1.07,2.26,2.26,0,0,1,3.73-.18,3.11,3.11,0,0,1,.37,1.7v4.21Z"/><path class="cls-1" d="M711.32,126.29v-.93a2.84,2.84,0,0,1-2.31,1.12,3.29,3.29,0,0,1-3.2-3.54,3.23,3.23,0,0,1,3.19-3.46,2.81,2.81,0,0,1,2.32,1.1v-.94h1.14v6.64Zm-2.15-5.78a2.26,2.26,0,0,0-2.19,2.43,2.29,2.29,0,0,0,2.19,2.5,2.27,2.27,0,0,0,2.21-2.5A2.24,2.24,0,0,0,709.17,120.51Zm-1.33-2.23a.81.81,0,0,1-.8-.8.8.8,0,1,1,.8.8Zm2.79,0a.81.81,0,0,1-.8-.8.8.8,0,1,1,.8.8Z"/><path class="cls-1" d="M714.63,126.29V114.62h1.14v11.67Z"/><path class="cls-1" d="M723,126.29v-.93a2.84,2.84,0,0,1-2.31,1.12,3.29,3.29,0,0,1-3.2-3.54,3.23,3.23,0,0,1,3.19-3.46,2.81,2.81,0,0,1,2.32,1.1v-.94h1.14v6.64Zm-2.15-5.78a2.26,2.26,0,0,0-2.19,2.43,2.29,2.29,0,0,0,2.19,2.5,2.27,2.27,0,0,0,2.21-2.5A2.24,2.24,0,0,0,720.87,120.51Z"/><path class="cls-1" d="M730.5,126.29v-3.92c0-1-.14-1.86-1.39-1.86-1.47,0-1.65,1.28-1.65,2.45v3.33h-1.14v-6.64h1.14v.8a2.41,2.41,0,0,1,3.81,0,3,3,0,0,1,.38,1.76v4.13Z"/></svg>