<svg id="Layer_1" data-name="Layer 1" xmlns="http://www.w3.org/2000/svg" viewBox="0 0 980 120"><defs><style>.cls-1{fill:#fff;}</style></defs><title>text</title><path class="cls-1" d="M302,90l4.66-11.59h1.46L312.73,90h-1.8l-.7-1.78h-5.68L303.83,90Zm5.38-8.93-2.25,5.6h4.46Zm1.12-3.45a1.5,1.5,0,0,1-1.12.46,1.48,1.48,0,0,1-1.11-.46,1.52,1.52,0,0,1-.46-1.12,1.57,1.57,0,0,1,1.57-1.57,1.5,1.5,0,0,1,1.12.46,1.48,1.48,0,0,1,.46,1.11A1.52,1.52,0,0,1,308.54,77.6Zm-1.12-.47a.62.62,0,0,0,.45-.2.64.64,0,0,0,.18-.45.63.63,0,0,0-.63-.64.65.65,0,0,0-.64.64.61.61,0,0,0,.19.45A.59.59,0,0,0,307.42,77.13Z"/><path class="cls-1" d="M313.41,79.93V78.39h9.39v1.54h-3.89V90h-1.62v-10Z"/><path class="cls-1" d="M325.09,79.93V78.39h9.39v1.54H330.6V90H329v-10Z"/><path class="cls-1" d="M335.23,90l4.66-11.59h1.46L345.92,90h-1.79l-.7-1.78h-5.69L337,90Zm5.39-8.93-2.25,5.6h4.45Z"/><path class="cls-1" d="M355.6,90V78.39h1.13l6.28,8v-8h1.62V90h-.9l-6.51-8.28V90Z"/><path class="cls-1" d="M375.51,78.39h1.87l-3.85,6.93V90h-1.62v-4.6l-3.9-7H370l2.8,5.14Z"/><path class="cls-1" d="M378.06,90l4.66-11.59h1.46L388.75,90H387l-.7-1.78h-5.68L379.85,90Zm5.38-8.93-2.25,5.6h4.46Z"/><path class="cls-1" d="M405.69,90V85h-5.64v5h-1.62V78.39h1.62v5h5.64v-5h1.62V90Z"/><path class="cls-1" d="M416.09,90.18a4,4,0,0,1-3-1.22,4.21,4.21,0,0,1-1.19-3.06V78.39h1.62V85.8a3,3,0,0,0,.7,2,2.34,2.34,0,0,0,1.89.8,2.46,2.46,0,0,0,1.92-.78,3,3,0,0,0,.7-2V78.39h1.62V85.9A4.2,4.2,0,0,1,419.15,89,4.09,4.09,0,0,1,416.09,90.18Z"/><path class="cls-1" d="M428,90.13a5.36,5.36,0,0,1-2.17-.46A5.71,5.71,0,0,1,424,88.42l1.14-1.31a4.59,4.59,0,0,0,1.34,1.06,3.42,3.42,0,0,0,1.6.42,2.24,2.24,0,0,0,1.5-.5,1.53,1.53,0,0,0,.58-1.23,2,2,0,0,0-1.47-1.9l-1.37-.54a4.68,4.68,0,0,1-1.89-1.25,2.71,2.71,0,0,1-.63-1.83,2.89,2.89,0,0,1,1-2.19,3.3,3.3,0,0,1,2.37-.91,4.68,4.68,0,0,1,3.36,1.28l-1,1.3a3.23,3.23,0,0,0-2.39-1,1.81,1.81,0,0,0-1.23.41,1.39,1.39,0,0,0-.13,2,3.2,3.2,0,0,0,1.18.71l1.39.56a3.31,3.31,0,0,1,2.44,3.32,3.14,3.14,0,0,1-1,2.43A3.84,3.84,0,0,1,428,90.13Z"/><path class="cls-1" d="M442.05,90V78.39h6.33v1.54h-4.71v3.65h4.17v1.54h-4.17V90Z"/><path class="cls-1" d="M457.13,90.19A5.71,5.71,0,0,1,453,88.48a6.24,6.24,0,0,1,0-8.6,5.91,5.91,0,0,1,8.35,0,6.18,6.18,0,0,1,0,8.58A5.68,5.68,0,0,1,457.13,90.19Zm-3-2.84a4.19,4.19,0,0,0,6.07,0,4.66,4.66,0,0,0,0-6.34,4.18,4.18,0,0,0-6.06,0,4.64,4.64,0,0,0,0,6.34ZM456,77.16a.74.74,0,0,1-.57.25.76.76,0,0,1-.58-.25,1,1,0,0,1,0-1.26.77.77,0,0,1,.58-.26.75.75,0,0,1,.57.26.95.95,0,0,1,0,1.26Zm3.22,0a.76.76,0,0,1-.58.25.72.72,0,0,1-.57-.25.95.95,0,0,1,0-1.26.73.73,0,0,1,.57-.26.77.77,0,0,1,.58.26,1,1,0,0,1,0,1.26Z"/><path class="cls-1" d="M467.1,90V78.39h4.3a3.59,3.59,0,0,1,2.61,1A3.46,3.46,0,0,1,475.06,82a3.53,3.53,0,0,1-.86,2.42A3.46,3.46,0,0,1,472,85.57L475.33,90h-2L470,85.56h-1.29V90Zm4.09-10h-2.47v4.19h2.45a2.32,2.32,0,0,0,1.64-.58,2,2,0,0,0,.63-1.52,1.93,1.93,0,0,0-.64-1.48A2.21,2.21,0,0,0,471.19,79.93Z"/><path class="cls-1" d="M491.79,84.9H487v3.54h5.1V90H485.4V78.39H492v1.54h-5v3.42h4.77Z"/><path class="cls-1" d="M496.14,90V78.39h1.13l6.28,8v-8h1.62V90h-.9l-6.51-8.28V90Z"/><path class="cls-1" d="M522.67,84.9H517.9v3.54H523V90h-6.72V78.39h6.63v1.54h-5v3.42h4.77Z"/><path class="cls-1" d="M527,90V78.39h1.13l6.28,8v-8h1.62V90h-.9l-6.51-8.28V90Z"/><path class="cls-1" d="M540.9,90V78.39h1.62v5.5l4.83-5.5h2.17L545.43,83l4.2,7h-2l-3.38-5.66-1.72,1.94V90Z"/><path class="cls-1" d="M553.15,90V78.39h1.62v10h4.77V90Z"/><path class="cls-1" d="M561.9,90l4.65-11.59H568L572.58,90h-1.79l-.7-1.78h-5.68L563.69,90Zm5.38-8.93L565,86.65h4.45Z"/><path class="cls-1" d="M575.8,90V78.39h4.31a3.59,3.59,0,0,1,2.61,1,3.58,3.58,0,0,1-2,6.17L584,90h-2l-3.33-4.42h-1.29V90Zm4.09-10h-2.47v4.19h2.46a2.33,2.33,0,0,0,1.64-.58,2.09,2.09,0,0,0,0-3A2.25,2.25,0,0,0,579.89,79.93Z"/><path class="cls-1" d="M594.22,84.9h-4.77v3.54h5.1V90h-6.72V78.39h6.63v1.54h-5v3.42h4.77Z"/><path class="cls-1" d="M612.1,90V85h-5.64v5h-1.62V78.39h1.62v5h5.64v-5h1.62V90Z"/><path class="cls-1" d="M622.5,90.18a4,4,0,0,1-3-1.22,4.2,4.2,0,0,1-1.18-3.06V78.39h1.62V85.8a3,3,0,0,0,.69,2,2.34,2.34,0,0,0,1.89.8,2.43,2.43,0,0,0,1.92-.78,3,3,0,0,0,.7-2V78.39h1.62V85.9A4.2,4.2,0,0,1,625.56,89,4.07,4.07,0,0,1,622.5,90.18Z"/><path class="cls-1" d="M634.37,90.13a5.39,5.39,0,0,1-2.17-.46,5.71,5.71,0,0,1-1.84-1.25l1.14-1.31a4.59,4.59,0,0,0,1.34,1.06,3.42,3.42,0,0,0,1.6.42,2.21,2.21,0,0,0,1.5-.5,1.53,1.53,0,0,0,.58-1.23,2,2,0,0,0-1.46-1.9l-1.37-.54a4.8,4.8,0,0,1-1.9-1.25,2.76,2.76,0,0,1-.62-1.83,2.92,2.92,0,0,1,1-2.19,3.3,3.3,0,0,1,2.37-.91,4.71,4.71,0,0,1,3.37,1.28l-1,1.3a3.21,3.21,0,0,0-2.39-1,1.84,1.84,0,0,0-1.23.41,1.34,1.34,0,0,0-.47,1.07,1.31,1.31,0,0,0,.34.9,3.29,3.29,0,0,0,1.18.71l1.39.56c1.69.68,2.51,1.79,2.44,3.32a3.16,3.16,0,0,1-1,2.43A3.87,3.87,0,0,1,634.37,90.13Z"/><path class="cls-1" d="M642.12,90V78.39h4.3a3.59,3.59,0,0,1,2.61,1,3.8,3.8,0,0,1,.18,5A3.42,3.42,0,0,1,647,85.57L650.35,90h-2L645,85.56h-1.29V90Zm4.08-10h-2.46v4.19h2.45a2.32,2.32,0,0,0,1.64-.58,2,2,0,0,0,.63-1.52,1.93,1.93,0,0,0-.64-1.48A2.22,2.22,0,0,0,646.2,79.93Z"/><path class="cls-1" d="M660.54,84.9h-4.77v3.54h5.1V90h-6.72V78.39h6.63v1.54h-5v3.42h4.77Z"/><path class="cls-1" d="M667.83,90.13a5.43,5.43,0,0,1-2.17-.46,5.77,5.77,0,0,1-1.83-1.25L665,87.11a4.55,4.55,0,0,0,1.33,1.06,3.45,3.45,0,0,0,1.61.42,2.24,2.24,0,0,0,1.5-.5,1.56,1.56,0,0,0,.58-1.23,2,2,0,0,0-1.47-1.9l-1.37-.54a4.8,4.8,0,0,1-1.9-1.25,2.76,2.76,0,0,1-.62-1.83,2.89,2.89,0,0,1,1-2.19,3.28,3.28,0,0,1,2.36-.91,4.69,4.69,0,0,1,3.37,1.28l-1,1.3a3.23,3.23,0,0,0-2.4-1,1.8,1.8,0,0,0-1.22.41,1.39,1.39,0,0,0-.13,2,3.2,3.2,0,0,0,1.18.71l1.39.56a3.31,3.31,0,0,1,2.44,3.32,3.14,3.14,0,0,1-1,2.43A3.85,3.85,0,0,1,667.83,90.13Z"/><path class="cls-1" d="M674.23,90l4.66-11.59h1.46L684.92,90h-1.79l-.7-1.78h-5.69L676,90Zm5.39-8.93-2.26,5.6h4.46Z"/></svg>