<svg id="Layer_1" data-name="Layer 1" xmlns="http://www.w3.org/2000/svg" viewBox="0 0 980 120"><defs><style>.cls-1{fill:#fff;}</style></defs><title>text</title><path class="cls-1" d="M256.46,61V27h4.47l16.74,21.39V27h6.38V61h-4.27L262.84,39.35V61Z"/><path class="cls-1" d="M292.45,61l13.12-34h5.76L324.4,61h-6.56L316,56.29H300.82L299,61Zm13.06-37.51a2.76,2.76,0,0,1-2.08.9,2.81,2.81,0,0,1-2.1-.9,3,3,0,0,1-.87-2.18,3,3,0,0,1,.85-2.15,3,3,0,0,1,2.12-.88,2.79,2.79,0,0,1,2.06.88,2.93,2.93,0,0,1,.87,2.15A3.09,3.09,0,0,1,305.51,23.49Zm2.94,13L303,50.62h10.85Zm7.18-13a3.28,3.28,0,0,1-4.51,0,2.93,2.93,0,0,1-.93-2.18,2.83,2.83,0,0,1,.93-2.15,3.33,3.33,0,0,1,4.51,0,2.84,2.84,0,0,1,.94,2.15A2.94,2.94,0,0,1,315.63,23.49Z"/><path class="cls-1" d="M332.36,61V27h13.31a11.46,11.46,0,0,1,8.19,3.09,10.59,10.59,0,0,1,3.27,8.06A10.24,10.24,0,0,1,354.7,45a11,11,0,0,1-6.35,3.62L357.49,61h-7.18l-8.82-12.14h-2.75V61Zm12.32-28.34h-5.94V43.75h5.94a6.27,6.27,0,0,0,4.42-1.51,5.05,5.05,0,0,0,1.65-3.92,5.36,5.36,0,0,0-1.69-4A6.08,6.08,0,0,0,344.68,32.66Z"/><path class="cls-1" d="M367.08,61V27h6.16l10.51,16.76L394.4,27h6.69V61h-6.38V37.72l-.51-.07L383.65,53.93,373.36,37.86h.1V61Z"/><path class="cls-1" d="M408.61,61l13.12-34h5.76l13.07,34H434l-1.8-4.71H417L415.17,61Zm16-24.49-5.44,14.11H430Z"/><path class="cls-1" d="M458.13,61.44a16.38,16.38,0,0,1-6.41-1.34,16.86,16.86,0,0,1-5.51-3.72l4-4.85a12.19,12.19,0,0,0,3.76,3,9.48,9.48,0,0,0,4.47,1.19,5.49,5.49,0,0,0,3.63-1.16,3.66,3.66,0,0,0,1.41-2.94q0-3.18-3.73-4.72L456,45.42a14.55,14.55,0,0,1-5.65-3.75,8.65,8.65,0,0,1-1.83-5.78,8.82,8.82,0,0,1,2.89-6.46,9.86,9.86,0,0,1,7.21-2.84,14.67,14.67,0,0,1,10.47,3.89l-3.76,4.74a8.72,8.72,0,0,0-6.71-2.95,4.49,4.49,0,0,0-3.05,1,3,3,0,0,0-1.15,2.39,3.23,3.23,0,0,0,.89,2.34,9.22,9.22,0,0,0,2.92,1.75l4,1.59q7.56,3,7.7,9.82a9.5,9.5,0,0,1-3.2,7.44A12.36,12.36,0,0,1,458.13,61.44Z"/><path class="cls-1" d="M476.24,33.1V27h28V33.1H493.45V61h-6.38V33.1Z"/><path class="cls-1" d="M531.37,46.61H518.79v8.71h13.82V61h-20.2V27h19.8v5.67H518.79v8.28h12.58Z"/><path class="cls-1" d="M569.85,61l-13-34h6.64l9.34,24.45L582.06,27h6.45L575.64,61Z"/><path class="cls-1" d="M590.16,61l13.11-34H609L622.1,61h-6.56l-1.8-4.71H598.53L596.71,61Zm13.05-37.51a2.74,2.74,0,0,1-2.08.9,2.78,2.78,0,0,1-2.09-.9,3,3,0,0,1,2.09-5.21,2.78,2.78,0,0,1,2.06.88,2.93,2.93,0,0,1,.87,2.15A3.05,3.05,0,0,1,603.21,23.49Zm2.95,13-5.44,14.11h10.85Zm7.17-13a3.12,3.12,0,0,1-2.25.9,3.16,3.16,0,0,1-2.26-.9,2.93,2.93,0,0,1-.93-2.18,2.83,2.83,0,0,1,.93-2.15,3.18,3.18,0,0,1,2.26-.88,3.14,3.14,0,0,1,2.25.88,2.81,2.81,0,0,1,.94,2.15A2.9,2.9,0,0,1,613.33,23.49Z"/><path class="cls-1" d="M650.35,46.79V41.11h12.19l0,2.91A17.53,17.53,0,0,1,660,53a17.16,17.16,0,0,1-6.45,6.27,17.59,17.59,0,0,1-8.67,2.22,17.58,17.58,0,0,1-17.68-17.62A17.62,17.62,0,0,1,645,26.24a16.74,16.74,0,0,1,12.67,5.5L653.3,36a11,11,0,0,0-8.36-3.67,10.85,10.85,0,0,0-8.14,3.32,11.36,11.36,0,0,0-3.22,8.19,11.34,11.34,0,0,0,3.24,8.21,10.4,10.4,0,0,0,7.72,3.33,12,12,0,0,0,7.57-2.36,10.74,10.74,0,0,0,4-6.26Z"/><path class="cls-1" d="M691.49,46.61H678.9v8.71h13.82V61h-20.2V27h19.81v5.67H678.9v8.28h12.59Z"/><path class="cls-1" d="M703.06,61V27h4.47l16.74,21.39V27h6.38V61h-4.27L709.44,39.35V61Z"/></svg>