<svg id="Layer_1" data-name="Layer 1" xmlns="http://www.w3.org/2000/svg" viewBox="0 0 740 160"><defs><style>.cls-1{fill:#d4ac76;}</style></defs><title>text</title><path class="cls-1" d="M324.55,121.93l-3.92-10.05h1.58l3,7.72,3-7.72h1.55l-3.93,10.05Z"/><path class="cls-1" d="M338.15,121.93V111.88h1.45l3.23,5.35,3.29-5.35h1.38v10.05h-1.4V114.5l-.05,0-3.23,5.2-3.17-5.12h-.09v7.38Z"/><path class="cls-1" d="M356,122.11a5,5,0,0,1-3.63-1.49,5.4,5.4,0,0,1,0-7.45,5.13,5.13,0,0,1,7.24,0,5.35,5.35,0,0,1,0,7.43A4.93,4.93,0,0,1,356,122.11Zm-2.64-2.47a3.64,3.64,0,0,0,5.27,0,4,4,0,0,0,0-5.49,3.63,3.63,0,0,0-5.26,0,4,4,0,0,0,0,5.49Zm1.69-8.83a.67.67,0,0,1-1,0,.76.76,0,0,1-.2-.55.76.76,0,0,1,.2-.54.67.67,0,0,1,1,0,.81.81,0,0,1,0,1.09Zm2.79,0a.63.63,0,0,1-.5.22.65.65,0,0,1-.5-.22.84.84,0,0,1,0-1.09.65.65,0,0,1,.5-.22.63.63,0,0,1,.5.22.76.76,0,0,1,.2.54A.76.76,0,0,1,357.88,110.81Z"/><path class="cls-1" d="M364.67,121.93V111.88h1.41v8.71h4.13v1.34Z"/><path class="cls-1" d="M373.29,121.93V111.88h1.41v8.71h4.13v1.34Z"/><path class="cls-1" d="M387.45,117.52h-4.13v3.07h4.42v1.34h-5.83V111.88h5.75v1.34h-4.34v3h4.13Z"/><path class="cls-1" d="M391.22,121.93V111.88h2.69a5,5,0,0,1,5,5,4.88,4.88,0,0,1-1.46,3.62,4.94,4.94,0,0,1-3.57,1.43Zm2.75-8.71h-1.35v7.37H394a3.24,3.24,0,0,0,2.48-1.08,3.73,3.73,0,0,0,1-2.63,3.61,3.61,0,0,0-1-2.61A3.36,3.36,0,0,0,394,113.22Z"/><path class="cls-1" d="M400.88,121.93l4-10.05h1.27l4,10.05h-1.55l-.61-1.55h-4.93l-.62,1.55Zm4.66-7.75-2,4.86h3.86Z"/><path class="cls-1" d="M412.93,121.93V111.88h1.4v8.71h4.14v1.34Z"/><path class="cls-1" d="M424.17,122.06a4.65,4.65,0,0,1-1.88-.41,5,5,0,0,1-1.59-1.08l1-1.14a3.78,3.78,0,0,0,1.16.92,3,3,0,0,0,1.39.37,2,2,0,0,0,1.3-.43,1.33,1.33,0,0,0,.5-1.07,1.76,1.76,0,0,0-1.27-1.65l-1.18-.47a4,4,0,0,1-1.65-1.08,2.36,2.36,0,0,1-.54-1.59,2.55,2.55,0,0,1,.83-1.9,2.88,2.88,0,0,1,2-.78,4.1,4.1,0,0,1,2.92,1.11l-.85,1.13a2.77,2.77,0,0,0-2.07-.9,1.59,1.59,0,0,0-1.06.34,1.17,1.17,0,0,0-.41.94,1.11,1.11,0,0,0,.3.77,2.75,2.75,0,0,0,1,.62l1.2.49a2.86,2.86,0,0,1,2.12,2.87,2.74,2.74,0,0,1-.89,2.11A3.36,3.36,0,0,1,424.17,122.06Z"/><path class="cls-1" d="M433.48,121.93l-3.92-10.05h1.57l3,7.72,3-7.72h1.55l-3.93,10.05Z"/><path class="cls-1" d="M441.06,121.83a.83.83,0,0,1-1.19,0,.81.81,0,0,1-.24-.59.82.82,0,0,1,.24-.61.78.78,0,0,1,.59-.24.81.81,0,0,1,.6.24.79.79,0,0,1,.25.61A.78.78,0,0,1,441.06,121.83Z"/><path class="cls-1" d="M451.4,121.93v-8.26l-1.89,1v-1.34l2.67-1.47h.62v10.11Z"/><path class="cls-1" d="M456,119.62v-.88l3.5-6.86h1.47l-3.31,6.5h2.17v-1.69h1.41v1.69h1.21v1.24H461.2v2.31h-1.41v-2.31Z"/><path class="cls-1" d="M464.49,121.93l4-10.05h1.27l4,10.05H472.2l-.61-1.55h-4.93l-.62,1.55Zm4.66-7.75L467.2,119h3.86Z"/><path class="cls-1" d="M475.86,123.77l1.16-3.22,1.29.45-1.59,3.1Z"/><path class="cls-1" d="M498.86,121.93v-4.36H494v4.36h-1.4V111.88H494v4.35h4.89v-4.35h1.4v10.05Z"/><path class="cls-1" d="M508.86,122.11a5,5,0,0,1-3.62-1.49,5.4,5.4,0,0,1,0-7.45,5.13,5.13,0,0,1,7.24,0,5.35,5.35,0,0,1,0,7.43A4.94,4.94,0,0,1,508.86,122.11Zm-2.63-2.47a3.63,3.63,0,0,0,5.26,0,4,4,0,0,0,0-5.49,3.63,3.63,0,0,0-5.26,0,4,4,0,0,0,0,5.49Zm1.69-8.83a.68.68,0,0,1-1,0,.84.84,0,0,1,0-1.09.68.68,0,0,1,1,0,.81.81,0,0,1,0,1.09Zm2.79,0a.65.65,0,0,1-.5.22.63.63,0,0,1-.5-.22.76.76,0,0,1-.2-.55.76.76,0,0,1,.2-.54.63.63,0,0,1,.5-.22.65.65,0,0,1,.5.22.84.84,0,0,1,0,1.09Z"/><path class="cls-1" d="M517.5,121.93V111.88h1.41v8.71H523v1.34Z"/><path class="cls-1" d="M526.12,121.93V111.88h1.4v8.71h4.14v1.34Z"/><path class="cls-1" d="M536.15,121.93l-3.92-10.05h1.58l3,7.72,3-7.72h1.55l-3.93,10.05Z"/><path class="cls-1" d="M544.15,121.93V111.88h1.4v10.05Z"/><path class="cls-1" d="M549.68,121.93V111.88h1.4v4.76l4.19-4.76h1.88l-3.54,4,3.63,6.07H555.5L552.58,117l-1.5,1.68v3.23Z"/><path class="cls-1" d="M565.83,117.52H561.7v3.07h4.42v1.34H560.3V111.88H566v1.34H561.7v3h4.13Z"/><path class="cls-1" d="M569.61,121.93V111.88h1L576,118.8v-6.92h1.4v10.05h-.78L571,114.75v7.18Z"/><path class="cls-1" d="M327.9,142.06a4.62,4.62,0,0,1-1.88-.41,5.13,5.13,0,0,1-1.6-1.08l1-1.14a3.78,3.78,0,0,0,1.16.92,3,3,0,0,0,1.39.37,2,2,0,0,0,1.3-.43,1.33,1.33,0,0,0,.5-1.07,1.76,1.76,0,0,0-1.27-1.65l-1.18-.47a4,4,0,0,1-1.65-1.08,2.36,2.36,0,0,1-.54-1.59,2.55,2.55,0,0,1,.83-1.9,2.88,2.88,0,0,1,2.05-.78,4.1,4.1,0,0,1,2.92,1.11l-.85,1.13a2.78,2.78,0,0,0-2.07-.9,1.57,1.57,0,0,0-1.06.34,1.17,1.17,0,0,0-.42.94,1.12,1.12,0,0,0,.31.77,2.75,2.75,0,0,0,1,.62l1.2.49a2.86,2.86,0,0,1,2.12,2.87,2.74,2.74,0,0,1-.89,2.11A3.36,3.36,0,0,1,327.9,142.06Z"/><path class="cls-1" d="M339.21,142.11a5,5,0,0,1-3.63-1.49,5.4,5.4,0,0,1,0-7.45,5.19,5.19,0,1,1,3.63,8.94Zm-2.63-2.47a3.63,3.63,0,0,0,5.26,0,4,4,0,0,0,0-5.49,3.61,3.61,0,0,0-5.25,0,4,4,0,0,0,0,5.49Zm1.69-8.83a.67.67,0,0,1-.51.22.63.63,0,0,1-.49-.22.76.76,0,0,1-.2-.55.76.76,0,0,1,.2-.54.63.63,0,0,1,.49-.22.67.67,0,0,1,.51.22.84.84,0,0,1,0,1.09Zm2.78,0a.63.63,0,0,1-.5.22.65.65,0,0,1-.5-.22.84.84,0,0,1,0-1.09.65.65,0,0,1,.5-.22.63.63,0,0,1,.5.22.76.76,0,0,1,.2.54A.76.76,0,0,1,341.05,130.81Z"/><path class="cls-1" d="M347.85,141.93V131.88h1l5.45,6.92v-6.92h1.4v10.05h-.78l-5.64-7.18v7.18Z"/><path class="cls-1" d="M359.87,141.93V131.88h2.69a5,5,0,0,1,5,5,4.88,4.88,0,0,1-1.46,3.62,4.93,4.93,0,0,1-3.57,1.43Zm2.75-8.71h-1.35v7.37h1.39a3.24,3.24,0,0,0,2.47-1.08,3.73,3.73,0,0,0,1-2.63,3.61,3.61,0,0,0-1-2.61A3.36,3.36,0,0,0,362.62,133.22Z"/><path class="cls-1" d="M369.53,141.93l4-10.05h1.27l4,10.05h-1.55l-.61-1.55H371.7l-.62,1.55Zm4.67-7.75-2,4.86h3.86Z"/><path class="cls-1" d="M387.66,137.56v-1.34H391v.7a5.15,5.15,0,0,1-5.2,5.17,4.92,4.92,0,0,1-3.66-1.5,5.42,5.42,0,0,1,0-7.42,4.92,4.92,0,0,1,3.66-1.5,5.42,5.42,0,0,1,2.12.42,5.07,5.07,0,0,1,1.72,1.16l-1,1.06a3.68,3.68,0,0,0-5.46-.17,4,4,0,0,0,0,5.48,3.49,3.49,0,0,0,2.66,1.14,3.62,3.62,0,0,0,2.42-.88,3.78,3.78,0,0,0,1.26-2.32Z"/><path class="cls-1" d="M399.2,141.93V141l4-5.3a2,2,0,0,0,.56-1.28,1.46,1.46,0,0,0-.44-1.07,1.53,1.53,0,0,0-1.13-.43,1.43,1.43,0,0,0-1.1.48,2,2,0,0,0-.46,1.27h-1.41a3,3,0,0,1,.84-2.13,2.83,2.83,0,0,1,2.13-.87,3,3,0,0,1,2.14.78,2.61,2.61,0,0,1,.83,2,3.61,3.61,0,0,1-1.05,2.22l-3.13,4h4.31v1.25Z"/><path class="cls-1" d="M411,142.08a3.06,3.06,0,0,1-2.19-.85,2.8,2.8,0,0,1-.94-2h1.4a1.51,1.51,0,0,0,.53,1.11,1.81,1.81,0,0,0,2.42,0,1.61,1.61,0,0,0,.5-1.2,1.71,1.71,0,0,0-.49-1.24,1.69,1.69,0,0,0-1.22-.48h-.58v-1.25H411a1.59,1.59,0,0,0,1.17-.47,1.51,1.51,0,0,0,.47-1.1,1.47,1.47,0,0,0-.47-1.13,1.61,1.61,0,0,0-1.17-.45,1.58,1.58,0,0,0-1.16.47,1.5,1.5,0,0,0-.46,1.12h-1.41a2.6,2.6,0,0,1,.87-2,3.27,3.27,0,0,1,4.34,0,2.66,2.66,0,0,1,.86,2,2.3,2.3,0,0,1-.42,1.35,2.38,2.38,0,0,1-1.11.85,2.45,2.45,0,0,1,1.61,2.35,2.83,2.83,0,0,1-.92,2.13A3.06,3.06,0,0,1,411,142.08Z"/><path class="cls-1" d="M425.49,142.06a4.62,4.62,0,0,1-1.88-.41,5.13,5.13,0,0,1-1.6-1.08l1-1.14a3.78,3.78,0,0,0,1.16.92,3,3,0,0,0,1.39.37,2,2,0,0,0,1.3-.43,1.33,1.33,0,0,0,.5-1.07,1.76,1.76,0,0,0-1.27-1.65l-1.18-.47a4,4,0,0,1-1.65-1.08,2.36,2.36,0,0,1-.54-1.59,2.55,2.55,0,0,1,.83-1.9,2.88,2.88,0,0,1,2-.78,4.1,4.1,0,0,1,2.92,1.11l-.85,1.13a2.78,2.78,0,0,0-2.07-.9,1.59,1.59,0,0,0-1.06.34,1.17,1.17,0,0,0-.41.94,1.11,1.11,0,0,0,.3.77,2.75,2.75,0,0,0,1,.62l1.2.49a2.86,2.86,0,0,1,2.12,2.87,2.74,2.74,0,0,1-.89,2.11A3.36,3.36,0,0,1,425.49,142.06Z"/><path class="cls-1" d="M437.74,137.52h-4.13v3.07H438v1.34H432.2V131.88H438v1.34h-4.34v3h4.13Z"/><path class="cls-1" d="M441.51,141.93V131.88h3.43a3.17,3.17,0,0,1,2.33.93,3.27,3.27,0,0,1,.93,2.39,3.13,3.13,0,0,1-1,2.35,3.22,3.22,0,0,1-2.36.94h-2v3.44Zm3.33-8.71h-1.93v3.93h1.95a2,2,0,0,0,1.39-3.37A1.88,1.88,0,0,0,444.84,133.22Z"/><path class="cls-1" d="M450.27,133.22v-1.34h8.14v1.34H455v8.71h-1.4v-8.71Z"/><path class="cls-1" d="M466.74,137.52h-4.13v3.07H467v1.34h-5.82V131.88H467v1.34h-4.34v3h4.13Z"/><path class="cls-1" d="M470.51,141.93V131.88H472l3.23,5.35,3.29-5.35h1.38v10.05h-1.4V134.5l0,0-3.23,5.2L472,134.55h-.09v7.38Z"/><path class="cls-1" d="M484,141.93V131.88h3.08a3.23,3.23,0,0,1,2.21.77,2.6,2.6,0,0,1,.87,2,2.37,2.37,0,0,1-1.19,2.16,2.65,2.65,0,0,1,1.08.9,2.36,2.36,0,0,1,.4,1.36,2.58,2.58,0,0,1-.88,2.05,3.25,3.25,0,0,1-2.24.78Zm2.93-8.71H485.4v3.05h1.78a1.55,1.55,0,0,0,1.12-.44,1.58,1.58,0,0,0,.45-1.16,1.3,1.3,0,0,0-.5-1.06A2.12,2.12,0,0,0,486.92,133.22Zm.32,4.3H485.4v3.07h1.74a2.12,2.12,0,0,0,1.39-.43A1.43,1.43,0,0,0,489,139a1.39,1.39,0,0,0-.47-1.08A2,2,0,0,0,487.24,137.52Z"/><path class="cls-1" d="M499.5,137.52h-4.13v3.07h4.42v1.34H494V131.88h5.75v1.34h-4.34v3h4.13Z"/><path class="cls-1" d="M503.27,141.93V131.88H507a3.13,3.13,0,0,1,2.26.87,3,3,0,0,1,.91,2.27,3,3,0,0,1-.75,2.1,2.94,2.94,0,0,1-1.92,1l2.91,3.83h-1.73l-2.89-3.84h-1.11v3.84Zm3.54-8.71h-2.13v3.62h2.12a2,2,0,0,0,1.42-.49,1.71,1.71,0,0,0,.55-1.33,1.68,1.68,0,0,0-.55-1.28A2,2,0,0,0,506.81,133.22Z"/><path class="cls-1" d="M519.13,141.93V131.88h1.41v4.76l4.18-4.76h1.89l-3.55,4,3.64,6.07H525L522,137l-1.49,1.68v3.23Z"/><path class="cls-1" d="M529.75,141.93V131.88h1.41v8.71h4.13v1.34Z"/><path class="cls-1" d="M545,141.93v-8.26l-1.89,1v-1.34l2.67-1.47h.62v10.11Z"/><path class="cls-1" d="M551.44,141.93v-8.26l-1.89,1v-1.34l2.67-1.47h.62v10.11Z"/><path class="cls-1" d="M556.26,137.54V136.3h3.93v1.24Z"/><path class="cls-1" d="M564,141.93v-8.26l-1.88,1v-1.34l2.67-1.47h.62v10.11Z"/><path class="cls-1" d="M571.62,142.08a3.09,3.09,0,0,1-2.19-.85,2.8,2.8,0,0,1-.94-2h1.41a1.5,1.5,0,0,0,.52,1.11,1.81,1.81,0,0,0,2.42,0,1.61,1.61,0,0,0,.5-1.2,1.67,1.67,0,0,0-.49-1.24,1.69,1.69,0,0,0-1.22-.48h-.58l0-1.25h.56a1.59,1.59,0,0,0,1.17-.47,1.58,1.58,0,0,0,0-2.23,1.64,1.64,0,0,0-1.18-.45,1.56,1.56,0,0,0-1.15.47,1.51,1.51,0,0,0-.47,1.12h-1.4a2.6,2.6,0,0,1,.87-2,3.25,3.25,0,0,1,4.33,0,2.64,2.64,0,0,1,.87,2,2.24,2.24,0,0,1-.43,1.35,2.29,2.29,0,0,1-1.11.85,2.44,2.44,0,0,1,1.62,2.35,2.86,2.86,0,0,1-.92,2.13A3.08,3.08,0,0,1,571.62,142.08Z"/></svg>