<svg id="Layer_1" data-name="Layer 1" xmlns="http://www.w3.org/2000/svg" viewBox="0 0 740 160"><defs><style>.cls-1{fill:#d80201;}</style></defs><title>text</title><path class="cls-1" d="M418.76,44.49a9.13,9.13,0,0,1-7.23,3.17,9,9,0,0,1-7.23-3.17,9.52,9.52,0,0,1-1.61-5.87V25.15H407V37.76a7.39,7.39,0,0,0,.69,4,4.44,4.44,0,0,0,3.86,2.05,4.54,4.54,0,0,0,3.86-2.05,7.09,7.09,0,0,0,.7-4V25.15h4.29V38.62A9.27,9.27,0,0,1,418.76,44.49Z"/><path class="cls-1" d="M433.57,47.63a5.73,5.73,0,0,1-4.78-2.34v9.5h-4V32.88h4v1.81a5.69,5.69,0,0,1,4.69-2.28c4.25,0,7.06,3.54,7.06,7.63S437.77,47.63,433.57,47.63ZM432.39,36a4,4,0,1,0,4,4A4,4,0,0,0,432.39,36Z"/><path class="cls-1" d="M452.35,47.63a5.71,5.71,0,0,1-4.78-2.34v9.5h-4V32.88h4v1.81a5.69,5.69,0,0,1,4.68-2.28c4.26,0,7.07,3.54,7.07,7.63S456.54,47.63,452.35,47.63ZM451.16,36a4,4,0,1,0,4,4A4,4,0,0,0,451.16,36Z"/><path class="cls-1" d="M462.35,47.17V22.45h4V47.17Z"/><path class="cls-1" d="M473.5,40.67c.07,2.21,1.13,3.82,3.5,3.82a3.73,3.73,0,0,0,3.4-1.91l3.7.59c-1.26,3.07-3.8,4.46-7,4.46-4.62,0-7.66-3-7.66-7.63s2.9-7.59,7.49-7.59,7.3,3.17,7.3,7.73v.53ZM477,35.25a3.23,3.23,0,0,0-3.33,2.87h6.76A3.31,3.31,0,0,0,477,35.25Z"/><path class="cls-1" d="M493.8,47.46H492l-7.29-14.58h4.49l3.76,8,3.76-8h4.49Z"/><path class="cls-1" d="M394.19,85.17,392.24,71.6l-6.07,13.86H385L379.14,71.6l-2.21,13.57h-4.32l4.09-22.41h2.94l6,14.39,6.27-14.39h2.94l3.67,22.41Z"/><path class="cls-1" d="M409.24,85.63c-4.56,0-8.19-2.84-8.19-7.59s3.63-7.63,8.22-7.63,8.12,2.88,8.12,7.59S413.76,85.63,409.24,85.63Zm0-11.62a4,4,0,1,0,4.06,4A4,4,0,0,0,409.2,74Z"/><path class="cls-1" d="M426.93,85.46h-1.85l-7.3-14.58h4.49L426,78.93l3.77-8.05h4.49Z"/><path class="cls-1" d="M438.84,78.67c.06,2.21,1.12,3.82,3.5,3.82a3.74,3.74,0,0,0,3.4-1.91l3.69.59c-1.25,3.07-3.79,4.46-7,4.46-4.62,0-7.65-3-7.65-7.63s2.9-7.59,7.49-7.59,7.29,3.17,7.29,7.73v.53Zm3.46-5.42A3.24,3.24,0,0,0,439,76.12h6.77A3.32,3.32,0,0,0,442.3,73.25Z"/><path class="cls-1" d="M462.37,85.17V77.34c0-2-.43-3.53-2.74-3.53-2.48,0-3,1.92-3,4v7.33h-4V60.45h4V72.72a5.21,5.21,0,0,1,4.49-2.31,5.49,5.49,0,0,1,4.16,1.75,5.68,5.68,0,0,1,1.12,4v9Z"/><path class="cls-1" d="M477.61,85.63c-4.55,0-8.18-2.84-8.18-7.59s3.63-7.63,8.22-7.63,8.12,2.88,8.12,7.59S482.13,85.63,477.61,85.63Zm0-11.62a4,4,0,1,0,4.06,4A4.05,4.05,0,0,0,477.58,74Z"/><path class="cls-1" d="M507.08,85.17V77.34c0-1.68-.26-3.53-2.37-3.53-2.35,0-2.74,2.15-2.74,4v7.33h-4V77.58a6.52,6.52,0,0,0-.29-2.38,2.32,2.32,0,0,0-2.15-1.39,2.61,2.61,0,0,0-2.24,1.29,5.92,5.92,0,0,0-.46,2.74v7.33h-4V70.88h4v1.61a5.48,5.48,0,0,1,4.35-2.08A4.88,4.88,0,0,1,501.64,73a5.29,5.29,0,0,1,4.68-2.61,4.71,4.71,0,0,1,4,2,6.3,6.3,0,0,1,.76,3.47v9.24Z"/><path class="cls-1" d="M518.23,78.67c.07,2.21,1.13,3.82,3.5,3.82a3.73,3.73,0,0,0,3.4-1.91l3.7.59c-1.25,3.07-3.8,4.46-7,4.46-4.62,0-7.66-3-7.66-7.63s2.91-7.59,7.49-7.59,7.3,3.17,7.3,7.73v.53Zm3.47-5.42a3.24,3.24,0,0,0-3.33,2.87h6.76A3.31,3.31,0,0,0,521.7,73.25Z"/></svg>