<svg id="Layer_1" data-name="Layer 1" xmlns="http://www.w3.org/2000/svg" viewBox="0 0 740 160"><defs><style>.cls-1{fill:#d80201;}</style></defs><title>text</title><path class="cls-1" d="M398.62,37.07c-2.15,2.31-5.51,1.95-8.38,1.95v8.15h-4.29v-22h6.4c2.18,0,4.09.17,5.81,1.68a7,7,0,0,1,2.24,5.31A7.23,7.23,0,0,1,398.62,37.07Zm-3.76-7.49a5.13,5.13,0,0,0-3.13-.69h-1.49v6.4H392c2.15,0,4-.69,4-3.17A3.26,3.26,0,0,0,394.86,29.58Z"/><path class="cls-1" d="M409.71,47.63c-4.55,0-8.18-2.84-8.18-7.59s3.63-7.62,8.22-7.62,8.12,2.87,8.12,7.59S414.23,47.63,409.71,47.63Zm0-11.62a4,4,0,1,0,4.06,4A4,4,0,0,0,409.67,36Z"/><path class="cls-1" d="M429.71,47.63a5.72,5.72,0,0,1-4.79-2.34v9.51h-4V32.88h4v1.82a5.69,5.69,0,0,1,4.69-2.28c4.26,0,7.06,3.53,7.06,7.62S433.9,47.63,429.71,47.63ZM428.52,36a4,4,0,1,0,4,4A4,4,0,0,0,428.52,36Z"/><path class="cls-1" d="M446.6,47.63c-3.93,0-6.9-1.75-6.9-6V32.88h4V41c0,1.95.83,3.27,2.91,3.27s2.9-1.32,2.9-3.27V32.88h4v8.75C453.53,45.88,450.53,47.63,446.6,47.63Z"/><path class="cls-1" d="M457.36,47.17V22.45h4V47.17Z"/><path class="cls-1" d="M476.1,47.17V45.29a5.52,5.52,0,0,1-4.65,2.34c-4.29,0-7-3.56-7-7.66s2.74-7.56,6.93-7.56a6,6,0,0,1,4.75,2.28V32.88h4V47.17Zm-6.9-17a2.38,2.38,0,0,1,0-4.75,2.38,2.38,0,1,1,0,4.75ZM472.54,36a4,4,0,1,0,4,4A4,4,0,0,0,472.54,36Zm3.53-5.81a2.41,2.41,0,0,1-2.38-2.38,2.38,2.38,0,1,1,2.38,2.38Z"/><path class="cls-1" d="M493.29,36.51a3.53,3.53,0,0,0-1.91-.5c-2.71,0-3.43,1.91-3.43,4.29v6.86h-4V32.88h4V35a4.66,4.66,0,0,1,5.91-2.28Z"/><path class="cls-1" d="M506.76,47.17V45.29a5.52,5.52,0,0,1-4.65,2.34c-4.29,0-7-3.56-7-7.66s2.74-7.56,6.93-7.56a6,6,0,0,1,4.75,2.28V32.88h4V47.17ZM503.19,36a4,4,0,1,0,4,4A4,4,0,0,0,503.19,36Z"/><path class="cls-1" d="M383.08,85.17,381.13,71.6l-6.07,13.86h-1.19L368,71.6l-2.21,13.56h-4.32l4.09-22.41h2.94l6,14.39,6.27-14.39h2.94l3.66,22.41Z"/><path class="cls-1" d="M402,85.66A11.42,11.42,0,0,1,390.2,74.21,11.77,11.77,0,1,1,402,85.66Zm0-19.08a7.59,7.59,0,1,0,7.36,7.56A7.47,7.47,0,0,0,402,66.59Z"/><path class="cls-1" d="M425.88,85.73H423.6l-9.37-22.58h4.69l5.88,14.79,5.94-14.79h4.65Z"/><path class="cls-1" d="M438,85.17v-22h12.18v3.73h-7.89v4.88h7.59V75.5h-7.59v5.94h7.89v3.73Z"/><path class="cls-1" d="M479.34,72.46H476l-.46,3h3.37l-.56,3.6H475l-1,6.14h-4.13l1-6.14h-3l-1,6.14h-4.09l1-6.14h-3.4l.56-3.6h3.4l.46-3h-3.37l.56-3.63h3.37l.89-5.68h4.09l-.92,5.68h3l.89-5.68h4.13l-.89,5.68h3.33Zm-10.5,0-.46,3h3l.46-3Z"/><path class="cls-1" d="M488.54,85.73c-4.09,0-7.69-2.64-7.92-6.9h4.32A3.59,3.59,0,1,0,488.67,75a6.39,6.39,0,0,0-.79.07v-3.1a3.57,3.57,0,0,0,.59,0,3,3,0,0,0,.1-6c-1.88,0-2.77,1.16-3,2.9h-4.06c.63-4.16,3.17-6.3,7.36-6.3,3.66,0,6.7,2.18,6.7,6.07A4.91,4.91,0,0,1,493,73.35a5.42,5.42,0,0,1,3.37,5.41C496.4,83.25,492.73,85.73,488.54,85.73Z"/><path class="cls-1" d="M507.88,85.73c-6.07,0-8.52-6.4-8.52-11.55s2.41-11.58,8.52-11.58S516.4,69,516.4,74.14,514,85.73,507.88,85.73Zm0-19.34c-3.37,0-4.22,5.21-4.22,7.76s.86,7.82,4.22,7.82,4.22-5.28,4.22-7.82S511.25,66.39,507.88,66.39Z"/><path class="cls-1" d="M517.81,85.17l6.5-7.36c1.78-2,5-5.35,5-8.15A3.29,3.29,0,0,0,526,66.39c-2.18,0-3.2,1.62-3.27,3.63h-4.59c.3-4.46,3.2-7.43,7.72-7.43,4.13,0,7.76,2.71,7.76,7.06,0,3.07-2,5.58-4,7.69l-3.83,4.09h8v3.73Z"/></svg>