<svg id="Layer_1" data-name="Layer 1" xmlns="http://www.w3.org/2000/svg" viewBox="0 0 740 160"><defs><style>.cls-1{fill:#d4ac76;}</style></defs><title>text</title><path class="cls-1" d="M360.88,43.18l-6.8-17.78h3.47l4.89,12.78,4.82-12.78h3.37L363.9,43.18Z"/><path class="cls-1" d="M374.83,43.18V25.4h3.33V43.18Z"/><path class="cls-1" d="M389.07,43.41a8.92,8.92,0,0,1-6.23-2.65L385,38.23a6.53,6.53,0,0,0,2,1.59,5.06,5.06,0,0,0,2.34.62,2.84,2.84,0,0,0,1.89-.61,1.89,1.89,0,0,0,.74-1.53,2.65,2.65,0,0,0-1.95-2.47L388,35a7.71,7.71,0,0,1-3-2,4.83,4.83,0,0,1,.56-6.39,5.15,5.15,0,0,1,3.77-1.49,7.66,7.66,0,0,1,5.47,2l-2,2.48a4.58,4.58,0,0,0-3.51-1.54,2.38,2.38,0,0,0-1.6.51,1.59,1.59,0,0,0-.6,1.25,1.66,1.66,0,0,0,.47,1.22,4.54,4.54,0,0,0,1.53.92l2.07.83q4,1.57,4,5.13a5,5,0,0,1-1.68,3.89A6.45,6.45,0,0,1,389.07,43.41Z"/><path class="cls-1" d="M400.31,43.18V25.4h2.34l8.75,11.18V25.4h3.33V43.18H412.5l-8.86-11.32V43.18Z"/><path class="cls-1" d="M421.08,43.18V25.4h3.33V43.18Z"/><path class="cls-1" d="M430.76,43.18V25.4h2.34l8.75,11.18V25.4h3.33V43.18H443L434.1,31.86V43.18Z"/><path class="cls-1" d="M462.39,35.75v-3h6.37l0,1.52a9.15,9.15,0,0,1-1.3,4.71,9,9,0,0,1-3.37,3.28,9.15,9.15,0,0,1-4.53,1.16,9.18,9.18,0,0,1-9.25-9.21A9.22,9.22,0,0,1,459.58,25a8.79,8.79,0,0,1,6.63,2.87l-2.28,2.25a5.77,5.77,0,0,0-4.37-1.93,5.67,5.67,0,0,0-4.26,1.74,6.29,6.29,0,0,0,0,8.57,5.42,5.42,0,0,0,4,1.75,6.28,6.28,0,0,0,4-1.24,5.61,5.61,0,0,0,2.09-3.27Z"/><path class="cls-1" d="M478.59,43.41a8.64,8.64,0,0,1-3.35-.7,8.73,8.73,0,0,1-2.88-2l2.11-2.53a6.65,6.65,0,0,0,2,1.59,5.06,5.06,0,0,0,2.34.62,2.87,2.87,0,0,0,1.9-.61,1.92,1.92,0,0,0,.74-1.53,2.65,2.65,0,0,0-2-2.47l-2-.79a7.66,7.66,0,0,1-3-2,4.5,4.5,0,0,1-.95-3,4.6,4.6,0,0,1,1.5-3.37,5.16,5.16,0,0,1,3.77-1.49,7.69,7.69,0,0,1,5.48,2l-2,2.48a4.55,4.55,0,0,0-3.51-1.54,2.37,2.37,0,0,0-1.59.51,1.59,1.59,0,0,0-.6,1.25,1.62,1.62,0,0,0,.47,1.22,4.58,4.58,0,0,0,1.52.92l2.08.83q3.94,1.57,4,5.13a5,5,0,0,1-1.67,3.89A6.47,6.47,0,0,1,478.59,43.41Z"/><path class="cls-1" d="M500.77,43.18V35.75h-7.61v7.43h-3.33V25.4h3.33v7.15h7.61V25.4h3.34V43.18Z"/><path class="cls-1" d="M521.74,41.58a7.26,7.26,0,0,1-9.73,0,6.3,6.3,0,0,1-1.92-4.7V25.4h3.33v11a4.07,4.07,0,0,0,.92,2.74,3.15,3.15,0,0,0,2.53,1.08,3.19,3.19,0,0,0,2.54-1.07,4,4,0,0,0,.91-2.71V25.4h3.34V36.88A6.3,6.3,0,0,1,521.74,41.58Z"/><path class="cls-1" d="M534.41,43.41a8.64,8.64,0,0,1-3.35-.7,8.73,8.73,0,0,1-2.88-2l2.11-2.53a6.65,6.65,0,0,0,2,1.59,5.06,5.06,0,0,0,2.34.62,2.87,2.87,0,0,0,1.9-.61,1.92,1.92,0,0,0,.74-1.53,2.65,2.65,0,0,0-2-2.47l-2-.79a7.66,7.66,0,0,1-2.95-2,4.5,4.5,0,0,1-1-3,4.6,4.6,0,0,1,1.5-3.37,5.18,5.18,0,0,1,3.77-1.49,7.69,7.69,0,0,1,5.48,2l-2,2.48a4.55,4.55,0,0,0-3.51-1.54,2.37,2.37,0,0,0-1.59.51,1.59,1.59,0,0,0-.6,1.25,1.62,1.62,0,0,0,.47,1.22,4.58,4.58,0,0,0,1.52.92l2.08.83q3.94,1.57,4,5.13a5,5,0,0,1-1.67,3.89A6.47,6.47,0,0,1,534.41,43.41Z"/><path class="cls-1" d="M389.51,70.78V53h3.34V70.78Z"/><path class="cls-1" d="M408.35,70.78V53h3.22l5.5,8.76L422.63,53h3.5V70.78h-3.34V58.61l-.27,0L417,67.08l-5.38-8.4h.05v12.1Z"/><path class="cls-1" d="M430.06,70.78,436.92,53h3l6.83,17.78h-3.43l-.94-2.46h-7.95l-.95,2.46ZM438.42,58l-2.84,7.38h5.67Z"/><path class="cls-1" d="M450.92,70.78V53h3.34V67.58h6.53v3.2Z"/><path class="cls-1" d="M465.6,70.78V53h3.22l5.49,8.76L479.88,53h3.5V70.78H480V58.61l-.27,0-5.51,8.51-5.38-8.4h.05v12.1Z"/><path class="cls-1" d="M506.74,61.88a9.24,9.24,0,1,1-2.7-6.52A8.87,8.87,0,0,1,506.74,61.88Zm-13.42,4.24a5.84,5.84,0,0,0,8.36,0,6.1,6.1,0,0,0,0-8.51,5.84,5.84,0,0,0-8.36,0,6.15,6.15,0,0,0,0,8.51Zm2.63-15a1.46,1.46,0,0,1-1.09.47,1.5,1.5,0,0,1-1.1-.47,1.58,1.58,0,0,1-.45-1.14,1.6,1.6,0,0,1,.44-1.13,1.62,1.62,0,0,1,1.11-.46,1.5,1.5,0,0,1,1.08.46,1.57,1.57,0,0,1,.45,1.13A1.61,1.61,0,0,1,496,51.17Zm5.29,0a1.72,1.72,0,0,1-2.36,0,1.56,1.56,0,0,1,0-2.27,1.74,1.74,0,0,1,2.36,0,1.56,1.56,0,0,1,0,2.27Z"/></svg>