<svg id="Layer_1" data-name="Layer 1" xmlns="http://www.w3.org/2000/svg" viewBox="0 0 740 160"><defs><style>.cls-1{fill:#d4ac76;}</style></defs><title>text</title><path class="cls-1" d="M324.55,121.93l-3.92-10h1.58l3,7.72,3-7.72h1.55l-3.93,10Z"/><path class="cls-1" d="M338.15,121.93v-10h1.44l3.24,5.36,3.29-5.36h1.38v10h-1.4V114.5l0,0-3.24,5.19-3.17-5.12h-.09v7.38Z"/><path class="cls-1" d="M356,122.11a4.94,4.94,0,0,1-3.62-1.49,5.4,5.4,0,0,1,0-7.45,5.14,5.14,0,0,1,7.24,0,5.36,5.36,0,0,1,0,7.44A4.94,4.94,0,0,1,356,122.11Zm-2.63-2.46a3.64,3.64,0,0,0,5.26,0,4,4,0,0,0,0-5.49,3.61,3.61,0,0,0-5.25,0,4,4,0,0,0,0,5.49Zm1.69-8.83a.66.66,0,0,1-.5.22.64.64,0,0,1-.5-.22.84.84,0,0,1,0-1.09.64.64,0,0,1,.5-.22.66.66,0,0,1,.5.22.82.82,0,0,1,0,1.09Zm2.79,0a.67.67,0,0,1-1,0,.84.84,0,0,1,0-1.09.68.68,0,0,1,1,0,.84.84,0,0,1,0,1.09Z"/><path class="cls-1" d="M364.67,121.93v-10h1.4v8.71h4.13v1.34Z"/><path class="cls-1" d="M373.29,121.93v-10h1.4v8.71h4.13v1.34Z"/><path class="cls-1" d="M387.45,117.52h-4.13v3.07h4.42v1.34h-5.82v-10h5.75v1.34h-4.34v3h4.13Z"/><path class="cls-1" d="M391.22,121.93v-10h2.69a5.06,5.06,0,0,1,3.52,8.62,4.91,4.91,0,0,1-3.57,1.43Zm2.75-8.71h-1.34v7.37H394a3.25,3.25,0,0,0,2.48-1.08,3.72,3.72,0,0,0,1-2.63,3.58,3.58,0,0,0-1-2.61A3.35,3.35,0,0,0,394,113.22Z"/><path class="cls-1" d="M400.88,121.93l4-10h1.27l4,10h-1.55l-.61-1.55h-4.93l-.62,1.55Zm4.67-7.74-2,4.86h3.86Z"/><path class="cls-1" d="M412.93,121.93v-10h1.4v8.71h4.13v1.34Z"/><path class="cls-1" d="M424.17,122.06a4.69,4.69,0,0,1-1.88-.4,5,5,0,0,1-1.59-1.08l1-1.14a3.81,3.81,0,0,0,1.16.92,3,3,0,0,0,1.39.37,1.94,1.94,0,0,0,1.3-.43,1.35,1.35,0,0,0,.5-1.07,1.76,1.76,0,0,0-1.27-1.64l-1.19-.47a4.14,4.14,0,0,1-1.64-1.08,2.37,2.37,0,0,1-.54-1.59,2.53,2.53,0,0,1,.83-1.9,2.86,2.86,0,0,1,2-.79,4.09,4.09,0,0,1,2.92,1.11l-.84,1.13a2.77,2.77,0,0,0-2.07-.9,1.59,1.59,0,0,0-1.06.35,1.16,1.16,0,0,0-.41.93,1.12,1.12,0,0,0,.3.78,2.8,2.8,0,0,0,1,.62l1.21.49a2.85,2.85,0,0,1,2.11,2.87,2.75,2.75,0,0,1-.89,2.11A3.37,3.37,0,0,1,424.17,122.06Z"/><path class="cls-1" d="M433.48,121.93l-3.92-10h1.58l3,7.72,3-7.72h1.55l-3.93,10Z"/><path class="cls-1" d="M441.06,121.83a.81.81,0,0,1-.6.25.8.8,0,0,1-.59-.25.88.88,0,0,1,0-1.2.8.8,0,0,1,.6-.24.82.82,0,0,1,.6.24.86.86,0,0,1,0,1.2Z"/><path class="cls-1" d="M451.4,121.93v-8.25l-1.88,1v-1.34l2.67-1.47h.62v10.1Z"/><path class="cls-1" d="M456,119.62v-.88l3.5-6.86h1.47l-3.31,6.5h2.17v-1.69h1.4v1.69h1.21v1.25H461.2v2.3h-1.4v-2.3Z"/><path class="cls-1" d="M464.49,121.93l4-10h1.27l4,10H472.2l-.61-1.55h-4.93l-.62,1.55Zm4.67-7.74-2,4.86h3.86Z"/><path class="cls-1" d="M475.86,123.77l1.16-3.22,1.29.46-1.59,3.09Z"/><path class="cls-1" d="M498.86,121.93v-4.36H494v4.36h-1.4v-10H494v4.35h4.89v-4.35h1.4v10Z"/><path class="cls-1" d="M508.86,122.11a4.94,4.94,0,0,1-3.62-1.49,5.4,5.4,0,0,1,0-7.45,5.14,5.14,0,0,1,7.24,0,5.36,5.36,0,0,1,0,7.44A4.94,4.94,0,0,1,508.86,122.11Zm-2.63-2.46a3.64,3.64,0,0,0,5.26,0,4,4,0,0,0,0-5.49,3.61,3.61,0,0,0-5.25,0,4,4,0,0,0,0,5.49Zm1.69-8.83a.66.66,0,0,1-.5.22.64.64,0,0,1-.5-.22.84.84,0,0,1,0-1.09.64.64,0,0,1,.5-.22.66.66,0,0,1,.5.22.82.82,0,0,1,0,1.09Zm2.79,0a.67.67,0,0,1-1,0,.84.84,0,0,1,0-1.09.68.68,0,0,1,1,0,.84.84,0,0,1,0,1.09Z"/><path class="cls-1" d="M517.5,121.93v-10h1.4v8.71H523v1.34Z"/><path class="cls-1" d="M526.12,121.93v-10h1.4v8.71h4.13v1.34Z"/><path class="cls-1" d="M536.15,121.93l-3.92-10h1.58l3,7.72,3-7.72h1.55l-3.93,10Z"/><path class="cls-1" d="M544.15,121.93v-10h1.4v10Z"/><path class="cls-1" d="M549.68,121.93v-10h1.4v4.77l4.19-4.77h1.88l-3.54,4,3.63,6.06H555.5l-2.92-4.9-1.5,1.68v3.22Z"/><path class="cls-1" d="M565.83,117.52H561.7v3.07h4.42v1.34H560.3v-10H566v1.34H561.7v3h4.13Z"/><path class="cls-1" d="M569.61,121.93v-10h1L576,118.8v-6.92h1.4v10h-.78L571,114.75v7.17Z"/><path class="cls-1" d="M351.43,142.06a4.69,4.69,0,0,1-1.88-.4,5,5,0,0,1-1.59-1.08l1-1.14a3.81,3.81,0,0,0,1.16.92,3,3,0,0,0,1.39.37,1.94,1.94,0,0,0,1.3-.43,1.35,1.35,0,0,0,.5-1.07,1.76,1.76,0,0,0-1.27-1.64l-1.19-.47a4.14,4.14,0,0,1-1.64-1.08,2.37,2.37,0,0,1-.54-1.59,2.53,2.53,0,0,1,.83-1.9,2.86,2.86,0,0,1,2-.79,4.09,4.09,0,0,1,2.92,1.11L353.6,134a2.77,2.77,0,0,0-2.07-.9,1.59,1.59,0,0,0-1.06.35,1.16,1.16,0,0,0-.41.93,1.12,1.12,0,0,0,.3.78,2.8,2.8,0,0,0,1,.62l1.21.49a2.85,2.85,0,0,1,2.11,2.87,2.75,2.75,0,0,1-.89,2.11A3.37,3.37,0,0,1,351.43,142.06Z"/><path class="cls-1" d="M362.74,142.11a4.94,4.94,0,0,1-3.62-1.49,5.4,5.4,0,0,1,0-7.45,5.14,5.14,0,0,1,7.24,0,5.36,5.36,0,0,1,0,7.44A4.94,4.94,0,0,1,362.74,142.11Zm-2.63-2.46a3.64,3.64,0,0,0,5.26,0,4,4,0,0,0,0-5.49,3.61,3.61,0,0,0-5.25,0,4,4,0,0,0,0,5.49Zm1.69-8.83a.66.66,0,0,1-.5.22.64.64,0,0,1-.5-.22.84.84,0,0,1,0-1.09.64.64,0,0,1,.5-.22.66.66,0,0,1,.5.22.82.82,0,0,1,0,1.09Zm2.79,0a.67.67,0,0,1-1,0,.84.84,0,0,1,0-1.09.68.68,0,0,1,1,0,.84.84,0,0,1,0,1.09Z"/><path class="cls-1" d="M371.38,141.93v-10h1l5.44,6.92v-6.92h1.4v10h-.78l-5.64-7.17v7.17Z"/><path class="cls-1" d="M383.4,141.93v-10h2.69a5.06,5.06,0,0,1,3.52,8.62,4.91,4.91,0,0,1-3.57,1.43Zm2.75-8.71H384.8v7.37h1.38a3.25,3.25,0,0,0,2.48-1.08,3.72,3.72,0,0,0,1-2.63,3.58,3.58,0,0,0-1-2.61A3.35,3.35,0,0,0,386.15,133.22Z"/><path class="cls-1" d="M393.06,141.93l4-10h1.27l4,10h-1.55l-.61-1.55h-4.93l-.62,1.55Zm4.67-7.74-2,4.86h3.86Z"/><path class="cls-1" d="M411.19,137.56v-1.34h3.34v.7a5.17,5.17,0,0,1-5.2,5.17,4.92,4.92,0,0,1-3.67-1.5,5.42,5.42,0,0,1,0-7.42,4.92,4.92,0,0,1,3.67-1.5,5.4,5.4,0,0,1,2.11.42,5.14,5.14,0,0,1,1.72,1.16l-1,1.06a3.56,3.56,0,0,0-2.79-1.3,3.5,3.5,0,0,0-2.67,1.13,4.05,4.05,0,0,0,0,5.48,3.5,3.5,0,0,0,2.67,1.14,3.57,3.57,0,0,0,2.41-.88,3.81,3.81,0,0,0,1.27-2.32Z"/><path class="cls-1" d="M424.57,141.93v-8.25l-1.88,1v-1.34l2.67-1.47H426v10.1Z"/><path class="cls-1" d="M432.52,142.08a3.42,3.42,0,0,1-2-.62,3.11,3.11,0,0,1-1.2-1.63l1.27-.49a2,2,0,0,0,2,1.4,2,2,0,0,0,2-2,1.88,1.88,0,0,0-.59-1.41,2,2,0,0,0-1.42-.57,1.87,1.87,0,0,0-1.42.61h-1.4v-5.5h5.63v1.34h-4.23v2.7a2.66,2.66,0,0,1,1.42-.4,3.38,3.38,0,0,1,2.47.92,3.09,3.09,0,0,1,.94,2.3,3.2,3.2,0,0,1-1,2.36A3.33,3.33,0,0,1,432.52,142.08Z"/><path class="cls-1" d="M443.52,141.93l4-10h1.27l4,10h-1.55l-.61-1.55H445.7l-.62,1.55Zm4.67-7.74-2,4.86h3.86Z"/><path class="cls-1" d="M455.58,141.93v-10H459a3.15,3.15,0,0,1,2.33.94,3.24,3.24,0,0,1,.93,2.39,3.15,3.15,0,0,1-1,2.35,3.25,3.25,0,0,1-2.36.94h-2v3.43Zm3.33-8.71H457v3.94h1.94a1.85,1.85,0,0,0,1.94-1.95,2,2,0,0,0-.55-1.43A1.88,1.88,0,0,0,458.91,133.22Z"/><path class="cls-1" d="M465.6,141.93v-10h3.73a3.14,3.14,0,0,1,2.26.87,3.11,3.11,0,0,1-1.76,5.35l2.91,3.82H471l-2.88-3.83H467v3.83Zm3.54-8.71H467v3.63h2.13a2,2,0,0,0,1.42-.5,1.82,1.82,0,0,0,0-2.61A2,2,0,0,0,469.14,133.22Z"/><path class="cls-1" d="M476,141.93v-10h1.4v10Z"/><path class="cls-1" d="M481.55,141.93v-10H483v8.71h4.13v1.34Z"/><path class="cls-1" d="M495.6,141.93v-10H497v4.77l4.19-4.77h1.88l-3.54,4,3.63,6.06h-1.74L498.5,137,497,138.7v3.22Z"/><path class="cls-1" d="M506.22,141.93v-10h1.4v8.71h4.13v1.34Z"/><path class="cls-1" d="M521.42,141.93v-8.25l-1.88,1v-1.34l2.67-1.47h.62v10.1Z"/><path class="cls-1" d="M527.91,141.93v-8.25l-1.88,1v-1.34l2.67-1.47h.62v10.1Z"/><path class="cls-1" d="M532.73,137.54V136.3h3.93v1.25Z"/><path class="cls-1" d="M540.46,141.93v-8.25l-1.88,1v-1.34l2.67-1.47h.62v10.1Z"/><path class="cls-1" d="M548.09,142.08a3.09,3.09,0,0,1-2.19-.85,2.8,2.8,0,0,1-.94-2h1.4a1.47,1.47,0,0,0,.52,1.1,1.71,1.71,0,0,0,1.17.46,1.73,1.73,0,0,0,1.25-.48,1.6,1.6,0,0,0,.5-1.2,1.68,1.68,0,0,0-1.71-1.72h-.58v-1.25h.56a1.59,1.59,0,0,0,1.17-.47,1.57,1.57,0,0,0,0-2.23,1.63,1.63,0,0,0-1.18-.45,1.57,1.57,0,0,0-1.15.46,1.52,1.52,0,0,0-.47,1.12h-1.4a2.6,2.6,0,0,1,.87-2,3.27,3.27,0,0,1,4.33,0,2.65,2.65,0,0,1,.87,2,2.26,2.26,0,0,1-.43,1.35,2.35,2.35,0,0,1-1.11.86,2.43,2.43,0,0,1,1.17.89,2.46,2.46,0,0,1,.44,1.46,2.84,2.84,0,0,1-.92,2.13A3.07,3.07,0,0,1,548.09,142.08Z"/></svg>