<svg id="Layer_1" data-name="Layer 1" xmlns="http://www.w3.org/2000/svg" viewBox="0 0 740 160"><defs><style>.cls-1{fill:#d80201;}</style></defs><title>text</title><path class="cls-1" d="M416.14,44.49a9.13,9.13,0,0,1-7.23,3.17,9,9,0,0,1-7.23-3.17,9.51,9.51,0,0,1-1.62-5.87V25.15h4.29V37.76a7.44,7.44,0,0,0,.69,4,4.44,4.44,0,0,0,3.86,2,4.55,4.55,0,0,0,3.86-2,7.09,7.09,0,0,0,.69-4V25.15h4.29V38.62A9.3,9.3,0,0,1,416.14,44.49Z"/><path class="cls-1" d="M431,47.63a5.72,5.72,0,0,1-4.79-2.34v9.51h-4V32.88h4v1.82a5.69,5.69,0,0,1,4.69-2.28c4.26,0,7.06,3.53,7.06,7.62S435.15,47.63,431,47.63ZM429.77,36a4,4,0,1,0,4,4A4,4,0,0,0,429.77,36Z"/><path class="cls-1" d="M449.73,47.63a5.72,5.72,0,0,1-4.79-2.34v9.51h-4V32.88h4v1.82a5.69,5.69,0,0,1,4.69-2.28c4.26,0,7.06,3.53,7.06,7.62S453.93,47.63,449.73,47.63ZM448.55,36a4,4,0,1,0,4,4A4,4,0,0,0,448.55,36Z"/><path class="cls-1" d="M459.73,47.17V22.45h4V47.17Z"/><path class="cls-1" d="M470.89,40.67c.07,2.21,1.12,3.83,3.5,3.83a3.74,3.74,0,0,0,3.4-1.91l3.7.59c-1.25,3.07-3.8,4.46-7,4.46-4.62,0-7.66-3-7.66-7.62s2.9-7.59,7.49-7.59,7.29,3.17,7.29,7.72v.53Zm3.47-5.41A3.24,3.24,0,0,0,471,38.12h6.77A3.31,3.31,0,0,0,474.35,35.25Z"/><path class="cls-1" d="M491.18,47.46h-1.85L482,32.88h4.49l3.76,8.05,3.76-8.05h4.49Z"/><path class="cls-1" d="M383.08,85.17,381.13,71.6l-6.07,13.86h-1.19L368,71.6l-2.21,13.56h-4.32l4.09-22.41h2.94l6,14.39,6.27-14.39h2.94l3.66,22.41Z"/><path class="cls-1" d="M402,85.66A11.42,11.42,0,0,1,390.2,74.21,11.77,11.77,0,1,1,402,85.66Zm0-19.08a7.59,7.59,0,1,0,7.36,7.56A7.47,7.47,0,0,0,402,66.59Z"/><path class="cls-1" d="M425.88,85.73H423.6l-9.37-22.58h4.69l5.88,14.79,5.94-14.79h4.65Z"/><path class="cls-1" d="M438,85.17v-22h12.18v3.73h-7.89v4.88h7.59V75.5h-7.59v5.94h7.89v3.73Z"/><path class="cls-1" d="M479.34,72.46H476l-.46,3h3.37l-.56,3.6H475l-1,6.14h-4.13l1-6.14h-3l-1,6.14h-4.09l1-6.14h-3.4l.56-3.6h3.4l.46-3h-3.37l.56-3.63h3.37l.89-5.68h4.09l-.92,5.68h3l.89-5.68h4.13l-.89,5.68h3.33Zm-10.5,0-.46,3h3l.46-3Z"/><path class="cls-1" d="M488.54,85.73c-4.09,0-7.69-2.64-7.92-6.9h4.32A3.59,3.59,0,1,0,488.67,75a6.39,6.39,0,0,0-.79.07v-3.1a3.57,3.57,0,0,0,.59,0,3,3,0,0,0,.1-6c-1.88,0-2.77,1.16-3,2.9h-4.06c.63-4.16,3.17-6.3,7.36-6.3,3.66,0,6.7,2.18,6.7,6.07A4.91,4.91,0,0,1,493,73.35a5.42,5.42,0,0,1,3.37,5.41C496.4,83.25,492.73,85.73,488.54,85.73Z"/><path class="cls-1" d="M507.88,85.73c-6.07,0-8.52-6.4-8.52-11.55s2.41-11.58,8.52-11.58S516.4,69,516.4,74.14,514,85.73,507.88,85.73Zm0-19.34c-3.37,0-4.22,5.21-4.22,7.76s.86,7.82,4.22,7.82,4.22-5.28,4.22-7.82S511.25,66.39,507.88,66.39Z"/><path class="cls-1" d="M522.33,85.79l-3.43-2L529,66.92h-10.2V63.15h17Z"/></svg>