<svg id="Layer_1" data-name="Layer 1" xmlns="http://www.w3.org/2000/svg" viewBox="0 0 740 160"><defs><style>.cls-1{fill:#d80201;}</style></defs><title>text</title><path class="cls-1" d="M325.6,120.86a4.08,4.08,0,0,1-4.12-3.44l1.44-.4a2.72,2.72,0,0,0,2.72,2.44,2.63,2.63,0,0,0,2.68-2.64c0-3.14-6.16-2.4-6.16-6.32a3.53,3.53,0,0,1,3.74-3.44,3.8,3.8,0,0,1,3.44,2.08l-1.18.78a2.47,2.47,0,0,0-2.28-1.46,2.12,2.12,0,0,0-2.22,2c0,2.76,6.16,2,6.16,6.26A4.11,4.11,0,0,1,325.6,120.86Z"/><path class="cls-1" d="M336,120.86a4.37,4.37,0,1,1,4.38-4.36A4.34,4.34,0,0,1,336,120.86Zm0-7.44A3.07,3.07,0,1,0,339,116.5,2.91,2.91,0,0,0,336,113.42Z"/><path class="cls-1" d="M342.6,120.62V106H344v14.58Z"/><path class="cls-1" d="M351,120.86a3.54,3.54,0,0,1-2.88-1.4v1.16h-1.42V106h1.42v7.46a3.56,3.56,0,0,1,2.9-1.38,4.07,4.07,0,0,1,4,4.34A4.11,4.11,0,0,1,351,120.86Zm-.2-7.44a2.79,2.79,0,0,0-2.76,3.06,2.77,2.77,0,1,0,2.76-3.06Z"/><path class="cls-1" d="M363.56,120.62v-1.16a3.54,3.54,0,0,1-2.88,1.4c-2.48,0-4-2.08-4-4.42a4,4,0,0,1,4-4.32,3.51,3.51,0,0,1,2.9,1.38v-1.18H365v8.3Zm-2.68-7.22a2.83,2.83,0,0,0-2.74,3,2.86,2.86,0,0,0,2.74,3.12,2.83,2.83,0,0,0,2.76-3.12A2.8,2.8,0,0,0,360.88,113.4Z"/><path class="cls-1" d="M371.58,120.86a4.37,4.37,0,1,1,0-8.74,4.58,4.58,0,0,1,2.58.8v1.88a3.31,3.31,0,0,0-2.6-1.38,3,3,0,0,0-2.94,3.08,2.93,2.93,0,0,0,2.9,3.06,3.36,3.36,0,0,0,2.7-1.44V120A4.48,4.48,0,0,1,371.58,120.86Z"/><path class="cls-1" d="M381.54,120.62l-3.36-3.78-.36.36v3.42H376.4V106h1.42v9.34l3-3.06h1.9l-3.56,3.52,4.22,4.78Z"/><path class="cls-1" d="M390.72,120.62v-1.16a3.54,3.54,0,0,1-2.88,1.4c-2.48,0-4-2.08-4-4.42a4,4,0,0,1,4-4.32,3.51,3.51,0,0,1,2.9,1.38v-1.18h1.42v8.3ZM388,113.4a2.83,2.83,0,0,0-2.74,3,2.86,2.86,0,0,0,2.74,3.12,2.83,2.83,0,0,0,2.76-3.12A2.8,2.8,0,0,0,388,113.4Z"/><path class="cls-1" d="M403.62,120.86a4.08,4.08,0,0,1-4.12-3.44l1.44-.4a2.72,2.72,0,0,0,2.72,2.44,2.63,2.63,0,0,0,2.68-2.64c0-3.14-6.16-2.4-6.16-6.32a3.53,3.53,0,0,1,3.74-3.44,3.8,3.8,0,0,1,3.44,2.08l-1.18.78a2.47,2.47,0,0,0-2.28-1.46,2.12,2.12,0,0,0-2.22,2c0,2.76,6.16,2,6.16,6.26A4.11,4.11,0,0,1,403.62,120.86Z"/><path class="cls-1" d="M411.64,113.64v7H410.2v-7h-.86v-1.32h.86v-3h1.44v3h1.46v1.32Z"/><path class="cls-1" d="M418.38,113.76a1.26,1.26,0,0,0-.84-.28,1.54,1.54,0,0,0-.72.18c-.92.5-.92,1.68-.92,2.58v4.38h-1.42v-8.3h1.42v.9a2.22,2.22,0,0,1,1.88-1.1,2.36,2.36,0,0,1,1.28.34Z"/><path class="cls-1" d="M426.5,120.62v-1.16a3.54,3.54,0,0,1-2.88,1.4c-2.48,0-4-2.08-4-4.42a4,4,0,0,1,4-4.32,3.51,3.51,0,0,1,2.9,1.38v-1.18h1.42v8.3Zm-2.68-7.22a2.83,2.83,0,0,0-2.74,3,2.86,2.86,0,0,0,2.74,3.12,2.83,2.83,0,0,0,2.76-3.12A2.8,2.8,0,0,0,423.82,113.4Z"/><path class="cls-1" d="M435.86,120.62v-4.9c0-1.3-.18-2.32-1.74-2.32-1.84,0-2.06,1.6-2.06,3.06v4.16h-1.42v-8.3h1.42v1a3,3,0,0,1,4.76-.06,3.8,3.8,0,0,1,.48,2.2v5.16Z"/><path class="cls-1" d="M446.36,120.62v-1.16a3.54,3.54,0,0,1-2.88,1.4,4.11,4.11,0,0,1-4-4.4,4.07,4.07,0,0,1,4-4.34,3.56,3.56,0,0,1,2.9,1.38V106h1.42v14.58Zm-2.68-7.2a3.09,3.09,0,1,0,2.76,3A2.78,2.78,0,0,0,443.68,113.42Z"/><path class="cls-1" d="M453.38,121.16l-4.08-8.84h1.6l2.48,5.58,2.46-5.58h1.6Z"/><path class="cls-1" d="M465.3,120.62v-1.16a3.54,3.54,0,0,1-2.88,1.4c-2.48,0-4-2.08-4-4.42a4,4,0,0,1,4-4.32,3.51,3.51,0,0,1,2.9,1.38v-1.18h1.42v8.3Zm-2.68-7.22a2.83,2.83,0,0,0-2.74,3,2.86,2.86,0,0,0,2.74,3.12,2.83,2.83,0,0,0,2.76-3.12A2.8,2.8,0,0,0,462.62,113.4ZM461,110.62a1,1,0,0,1-1-1,1,1,0,1,1,1,1Zm3.48,0a1,1,0,0,1-1-1,1,1,0,1,1,1,1Z"/><path class="cls-1" d="M476.42,123.7a4,4,0,0,1-3.32,1.54,3.74,3.74,0,0,1-4-3.8h1.42a2.48,2.48,0,0,0,2.64,2.52c2,0,2.66-1.5,2.66-3.28v-1.22a3.75,3.75,0,0,1-2.92,1.38,4.38,4.38,0,0,1,.06-8.72,3.55,3.55,0,0,1,2.86,1.36v-1.16h1.44v8.12A5,5,0,0,1,476.42,123.7Zm-3.34-10.3a2.85,2.85,0,0,0-2.72,3.14,2.8,2.8,0,0,0,2.72,3,3.1,3.1,0,0,0,0-6.16Z"/><path class="cls-1" d="M488.88,120.62V108.68h-2.22l.78-1.4h2.92v13.34Z"/><path class="cls-1" d="M496.34,123.66l-.94-.38,1.64-4.62,1.32.48Z"/><path class="cls-1" d="M507.68,110.34v10.28H506.2v-13.9l10.38,10.9V107.28h1.5v13.94Z"/><path class="cls-1" d="M525,120.86a4.37,4.37,0,1,1,4.38-4.36A4.34,4.34,0,0,1,525,120.86Zm0-7.44a3.07,3.07,0,1,0,2.94,3.08A2.91,2.91,0,0,0,525,113.42Z"/><path class="cls-1" d="M535.48,113.76a1.26,1.26,0,0,0-.84-.28,1.54,1.54,0,0,0-.72.18c-.92.5-.92,1.68-.92,2.58v4.38h-1.42v-8.3H533v.9a2.22,2.22,0,0,1,1.88-1.1,2.36,2.36,0,0,1,1.28.34Z"/><path class="cls-1" d="M541.38,113.76a1.26,1.26,0,0,0-.84-.28,1.54,1.54,0,0,0-.72.18c-.92.5-.92,1.68-.92,2.58v4.38h-1.42v-8.3h1.42v.9a2.22,2.22,0,0,1,1.88-1.1,2.36,2.36,0,0,1,1.28.34Z"/><path class="cls-1" d="M545.36,113.64v7h-1.44v-7h-.86v-1.32h.86v-3h1.44v3h1.46v1.32Z"/><path class="cls-1" d="M554.54,120.62v-1.16a3.54,3.54,0,0,1-2.88,1.4c-2.48,0-4-2.08-4-4.42a4,4,0,0,1,4-4.32,3.51,3.51,0,0,1,2.9,1.38v-1.18H556v8.3Zm-2.68-7.22a2.83,2.83,0,0,0-2.74,3,2.86,2.86,0,0,0,2.74,3.12,2.83,2.83,0,0,0,2.76-3.12A2.8,2.8,0,0,0,551.86,113.4Zm-1.66-2.78a1,1,0,0,1-1-1,1,1,0,1,1,1,1Zm3.48,0a1,1,0,0,1-1-1,1,1,0,1,1,1,1Z"/><path class="cls-1" d="M558.68,120.62V106h1.42v14.58Z"/><path class="cls-1" d="M563.54,110.2a1,1,0,1,1,1-1A1,1,0,0,1,563.54,110.2Zm-.72,15.1v-13h1.42v13Z"/><path class="cls-1" d="M567.94,116.76a2.69,2.69,0,0,0,2.64,2.8,2.86,2.86,0,0,0,2.56-1.72l1.2.66a4.14,4.14,0,0,1-3.8,2.36,4,4,0,0,1-4.1-4.34c0-2.4,1.5-4.4,4-4.4s4,2,4,4.36v.28Zm2.56-3.34a2.55,2.55,0,0,0-2.46,2.14h4.88A2.49,2.49,0,0,0,570.5,113.42Z"/><path class="cls-1" d="M335.44,141.86a4.08,4.08,0,0,1-4.12-3.44l1.44-.4a2.72,2.72,0,0,0,2.72,2.44,2.63,2.63,0,0,0,2.68-2.64c0-3.14-6.16-2.4-6.16-6.32a3.53,3.53,0,0,1,3.74-3.44,3.8,3.8,0,0,1,3.44,2.08l-1.18.78a2.47,2.47,0,0,0-2.28-1.46,2.12,2.12,0,0,0-2.22,2c0,2.76,6.16,2,6.16,6.26A4.11,4.11,0,0,1,335.44,141.86Z"/><path class="cls-1" d="M345.88,141.86a4.37,4.37,0,1,1,4.38-4.36A4.34,4.34,0,0,1,345.88,141.86Zm0-7.44a3.07,3.07,0,1,0,2.94,3.08A2.91,2.91,0,0,0,345.86,134.42Zm-1.72-2.8a1,1,0,0,1-1-1,1,1,0,1,1,1,1Zm3.48,0a1,1,0,0,1-1-1,1,1,0,1,1,1,1Z"/><path class="cls-1" d="M357.66,141.62v-4.9c0-1.3-.18-2.32-1.74-2.32-1.84,0-2.06,1.6-2.06,3.06v4.16h-1.42v-8.3h1.42v1a3,3,0,0,1,4.76-.06,3.8,3.8,0,0,1,.48,2.2v5.16Z"/><path class="cls-1" d="M368.16,141.62v-1.16a3.54,3.54,0,0,1-2.88,1.4,4.11,4.11,0,0,1-4-4.4,4.07,4.07,0,0,1,4-4.34,3.56,3.56,0,0,1,2.9,1.38V127h1.42v14.58Zm-2.68-7.2a3.09,3.09,0,1,0,2.76,3A2.78,2.78,0,0,0,365.48,134.42Z"/><path class="cls-1" d="M378.64,141.62v-1.16a3.54,3.54,0,0,1-2.88,1.4c-2.48,0-4-2.08-4-4.42a4,4,0,0,1,4-4.32,3.51,3.51,0,0,1,2.9,1.38v-1.18h1.42v8.3ZM376,134.4a2.83,2.83,0,0,0-2.74,3,2.86,2.86,0,0,0,2.74,3.12,2.83,2.83,0,0,0,2.76-3.12A2.8,2.8,0,0,0,376,134.4Z"/><path class="cls-1" d="M389.76,144.7a4,4,0,0,1-3.32,1.54,3.74,3.74,0,0,1-4-3.8h1.42a2.48,2.48,0,0,0,2.64,2.52c2,0,2.66-1.5,2.66-3.28v-1.22a3.75,3.75,0,0,1-2.92,1.38,4.38,4.38,0,0,1,.06-8.72,3.55,3.55,0,0,1,2.86,1.36v-1.16h1.44v8.12A5,5,0,0,1,389.76,144.7Zm-3.34-10.3a2.85,2.85,0,0,0-2.72,3.14,2.8,2.8,0,0,0,2.72,3,3.1,3.1,0,0,0,0-6.16Z"/><path class="cls-1" d="M402.18,141.84a4.16,4.16,0,0,1-3.08-1.32,3.53,3.53,0,0,1-.88-2.36h1.44a2.55,2.55,0,0,0,.46,1.3,2.68,2.68,0,0,0,2.1,1,2.6,2.6,0,0,0,2.62-2.66c0-1.74-1.22-2.52-2.84-2.52V134a3.08,3.08,0,0,0,1.58-.32,2.3,2.3,0,1,0-3-3.36,3.26,3.26,0,0,0-.44,1.28h-1.46c.3-2.16,1.44-3.5,3.72-3.5a3.57,3.57,0,0,1,3.76,3.58,3.25,3.25,0,0,1-1.72,3,3.41,3.41,0,0,1,1.92,3.22A4,4,0,0,1,402.18,141.84Z"/><path class="cls-1" d="M416.86,141.86a3,3,0,0,1-2.9-2.12l1.24-.52c.34.74.8,1.34,1.68,1.34a1.29,1.29,0,0,0,1.36-1.3c0-1.8-3.74-1.24-3.74-3.82a2.33,2.33,0,0,1,2.42-2.32,2.49,2.49,0,0,1,2.28,1.5l-1.18.62a1.33,1.33,0,0,0-1.16-.82,1,1,0,0,0-1,.92c0,1.46,3.84,1.08,3.84,3.8A2.73,2.73,0,0,1,416.86,141.86Z"/><path class="cls-1" d="M422.58,137.76a2.69,2.69,0,0,0,2.64,2.8,2.86,2.86,0,0,0,2.56-1.72l1.2.66a4.14,4.14,0,0,1-3.8,2.36,4,4,0,0,1-4.1-4.34c0-2.4,1.5-4.4,4-4.4s4,2,4,4.36v.28Zm2.56-3.34a2.55,2.55,0,0,0-2.46,2.14h4.88A2.49,2.49,0,0,0,425.14,134.42Z"/><path class="cls-1" d="M435.56,141.86a3.58,3.58,0,0,1-2.9-1.4v5.84h-1.42v-13h1.42v1.16a3.59,3.59,0,0,1,2.88-1.36,4.11,4.11,0,0,1,4,4.4A4.07,4.07,0,0,1,435.56,141.86Zm-.22-7.46a2.86,2.86,0,0,0-2.76,3.12,2.76,2.76,0,1,0,5.5,0A2.86,2.86,0,0,0,435.34,134.4Z"/><path class="cls-1" d="M443.16,134.64v7h-1.44v-7h-.86v-1.32h.86v-3h1.44v3h1.46v1.32Z"/><path class="cls-1" d="M447,137.76a2.69,2.69,0,0,0,2.64,2.8,2.86,2.86,0,0,0,2.56-1.72l1.2.66a4.14,4.14,0,0,1-3.8,2.36,4,4,0,0,1-4.1-4.34c0-2.4,1.5-4.4,4-4.4s4,2,4,4.36v.28Zm2.56-3.34a2.55,2.55,0,0,0-2.46,2.14h4.88A2.49,2.49,0,0,0,449.52,134.42Z"/><path class="cls-1" d="M465.08,141.62v-5c0-1.06-.18-2.18-1.5-2.18-1.5,0-1.78,1.4-1.78,2.6v4.62h-1.42V136.7c0-1-.22-2.3-1.52-2.3a1.72,1.72,0,0,0-1.5.9,4,4,0,0,0-.32,1.8v4.52h-1.42v-8.3H457v.88a2.37,2.37,0,0,1,2.06-1.08,2.53,2.53,0,0,1,2.28,1.34,2.83,2.83,0,0,1,4.66-.22,3.88,3.88,0,0,1,.46,2.12v5.26Z"/><path class="cls-1" d="M473.52,141.86a3.54,3.54,0,0,1-2.88-1.4v1.16h-1.42V127h1.42v7.46a3.56,3.56,0,0,1,2.9-1.38,4.07,4.07,0,0,1,4,4.34A4.11,4.11,0,0,1,473.52,141.86Zm-.2-7.44a2.79,2.79,0,0,0-2.76,3.06,2.77,2.77,0,1,0,2.76-3.06Z"/><path class="cls-1" d="M480.66,137.76a2.69,2.69,0,0,0,2.64,2.8,2.86,2.86,0,0,0,2.56-1.72l1.2.66a4.14,4.14,0,0,1-3.8,2.36,4,4,0,0,1-4.1-4.34c0-2.4,1.5-4.4,4-4.4s4,2,4,4.36v.28Zm2.56-3.34a2.55,2.55,0,0,0-2.46,2.14h4.88A2.49,2.49,0,0,0,483.22,134.42Z"/><path class="cls-1" d="M493.22,134.76a1.26,1.26,0,0,0-.84-.28,1.54,1.54,0,0,0-.72.18c-.92.5-.92,1.68-.92,2.58v4.38h-1.42v-8.3h1.42v.9a2.22,2.22,0,0,1,1.88-1.1,2.36,2.36,0,0,1,1.28.34Z"/><path class="cls-1" d="M505.36,141.62,502,137.84l-.36.36v3.42h-1.42V127h1.42v9.34l3-3.06h1.9L503,136.84l4.22,4.78Z"/><path class="cls-1" d="M508.64,141.62V127h1.42v14.58Z"/><path class="cls-1" d="M521.72,141.62V129.68H519.5l.78-1.4h2.92v13.34Z"/><path class="cls-1" d="M536.46,139.44v2.18H535v-2.18h-6.84l8.32-11.9v10.54h1.64v1.36ZM535,132.06l-4.22,6H535Z"/><path class="cls-1" d="M539.1,138v-1.28h3.62V138Z"/><path class="cls-1" d="M548,141.62V129.68H545.8l.78-1.4h2.92v13.34Z"/><path class="cls-1" d="M559.74,141.84a4.59,4.59,0,0,1-4.62-4.52,5.34,5.34,0,0,1,1.1-3.06l4.54-6.3,1.12.84-3.06,4.26a4.2,4.2,0,0,1,1.22-.18,4.34,4.34,0,0,1,4.28,4.4A4.6,4.6,0,0,1,559.74,141.84Zm0-7.64a3.13,3.13,0,1,0,3.12,3.12A3.12,3.12,0,0,0,559.72,134.2Z"/></svg>