<svg id="Layer_1" data-name="Layer 1" xmlns="http://www.w3.org/2000/svg" viewBox="0 0 300 250"><defs><style>.cls-1{fill:#fff;}</style></defs><title>text</title><path class="cls-1" d="M50.45,116.24V118H41V102h2v14.24Z"/><path class="cls-1" d="M60.41,114.47l1.71.35a4.74,4.74,0,0,1-1.83,2.51,5.21,5.21,0,0,1-3.2,1,5,5,0,0,1-3.92-1.71,7.44,7.44,0,0,1,.06-9,5,5,0,0,1,3.91-1.74,4.71,4.71,0,0,1,3.73,1.6,7.21,7.21,0,0,1,1.45,4.81h-8.6c0,1.79.37,3,1.12,3.62a3.7,3.7,0,0,0,2.38.93A3.25,3.25,0,0,0,60.41,114.47Zm-.11-3.59a5,5,0,0,0-.32-1.77,3.06,3.06,0,0,0-1-1.32,2.81,2.81,0,0,0-1.75-.55,3.13,3.13,0,0,0-2.33,1,4.11,4.11,0,0,0-1.07,2.65Z"/><path class="cls-1" d="M63.49,114.93l1.76-.36c.39,1.49,1.63,2.23,3.7,2.23a3.54,3.54,0,0,0,2-.51,1.64,1.64,0,0,0,.8-1.45c0-.93-.68-1.52-2-1.77l-2.5-.47a4.66,4.66,0,0,1-2.33-1.1,2.85,2.85,0,0,1-.87-2.17,3.14,3.14,0,0,1,1.19-2.49,4.75,4.75,0,0,1,3.18-1q3.85,0,4.76,3l-1.69.36a2.88,2.88,0,0,0-3-1.85,3.36,3.36,0,0,0-1.85.46,1.46,1.46,0,0,0-.72,1.3c0,.87.61,1.42,1.84,1.65l2.31.41q3.61.66,3.62,3.51a3.11,3.11,0,0,1-1.35,2.63,5.85,5.85,0,0,1-3.58,1C65.89,118.33,64.16,117.2,63.49,114.93Z"/><path class="cls-1" d="M91.5,118H89.66v-7.18a8.12,8.12,0,0,0-.16-1.9,2,2,0,0,0-.75-1.1,2.13,2.13,0,0,0-1.36-.46A3,3,0,0,0,85,108.52a4.77,4.77,0,0,0-1,3.11V118H82.22V102h1.84v6.34a3.89,3.89,0,0,1,3.58-2.5,4,4,0,0,1,1.86.41,3.14,3.14,0,0,1,1.25,1.07,4.24,4.24,0,0,1,.59,1.32,10.1,10.1,0,0,1,.16,2.18Z"/><path class="cls-1" d="M103.85,106.16,99.76,118h-1.9l-4.24-11.84h2l3.3,9.63,3.25-9.63Z"/><path class="cls-1" d="M109.89,118.33a4.49,4.49,0,0,1-3.81-1.81,7.21,7.21,0,0,1-1.36-4.48,6.45,6.45,0,0,1,1.53-4.51,5,5,0,0,1,3.82-1.69,4.69,4.69,0,0,1,3.87,1.77,6.94,6.94,0,0,1,1.41,4.44,6.6,6.6,0,0,1-1.53,4.52A5,5,0,0,1,109.89,118.33Zm.14-1.53a2.91,2.91,0,0,0,2.35-1.16,5.58,5.58,0,0,0,1-3.6,5.27,5.27,0,0,0-1-3.57,3.07,3.07,0,0,0-2.34-1.11,2.94,2.94,0,0,0-2.32,1.12,5.43,5.43,0,0,0-1,3.54,5.68,5.68,0,0,0,1,3.68A3,3,0,0,0,110,116.8Z"/><path class="cls-1" d="M120,118h-1.84V106.16h1.62v2.77a6,6,0,0,1,1.72-2.54,3.16,3.16,0,0,1,1.76-.58c.19,0,.43,0,.73,0v1.76h-.38a3.26,3.26,0,0,0-2.53,1.13,4.66,4.66,0,0,0-1.08,3Z"/><path class="cls-1" d="M131.71,106.16v1.45h-2.82V118h-1.84V107.61h-2v-1.45h2c0-1.89.4-3.12,1.1-3.66a4,4,0,0,1,2.56-.82,10,10,0,0,1,1.69.16v1.46a4.7,4.7,0,0,0-1.14-.15,2.57,2.57,0,0,0-1.79.54,2.68,2.68,0,0,0-.58,2v.48Z"/><path class="cls-1" d="M137.68,118.33a4.49,4.49,0,0,1-3.8-1.81,7.21,7.21,0,0,1-1.36-4.48,6.45,6.45,0,0,1,1.53-4.51,4.94,4.94,0,0,1,3.82-1.69,4.67,4.67,0,0,1,3.86,1.77,6.94,6.94,0,0,1,1.41,4.44,6.59,6.59,0,0,1-1.52,4.52A5,5,0,0,1,137.68,118.33Zm.14-1.53a2.91,2.91,0,0,0,2.36-1.16,5.64,5.64,0,0,0,.95-3.6,5.22,5.22,0,0,0-1-3.57,3,3,0,0,0-2.33-1.11,2.92,2.92,0,0,0-2.32,1.12,5.43,5.43,0,0,0-.95,3.54,5.68,5.68,0,0,0,.95,3.68A2.94,2.94,0,0,0,137.82,116.8Z"/><path class="cls-1" d="M147.75,118h-1.84V106.16h1.62v2.77a6,6,0,0,1,1.71-2.54,3.21,3.21,0,0,1,1.77-.58c.19,0,.43,0,.72,0v1.76h-.37a3.25,3.25,0,0,0-2.53,1.13,4.66,4.66,0,0,0-1.08,3Z"/><path class="cls-1" d="M169.07,102v16H167.4v-2a4,4,0,0,1-3.74,2.36,4.14,4.14,0,0,1-3.42-1.74,7.05,7.05,0,0,1-1.33-4.41,7.5,7.5,0,0,1,1.32-4.53,4.14,4.14,0,0,1,3.52-1.81,4.07,4.07,0,0,1,3.48,1.94V102Zm-1.84,8.73a3.35,3.35,0,0,0-.95-2.49,3,3,0,0,0-2.22-.94,2.69,2.69,0,0,0-2.25,1.22,5.73,5.73,0,0,0-.89,3.42,6.55,6.55,0,0,0,.82,3.62A2.52,2.52,0,0,0,164,116.8a3,3,0,0,0,2.27-1.07,3.64,3.64,0,0,0,1-2.53Z"/><path class="cls-1" d="M180.56,114.47l1.71.35a4.78,4.78,0,0,1-1.82,2.51,5.25,5.25,0,0,1-3.2,1,5,5,0,0,1-3.93-1.71,7.44,7.44,0,0,1,.06-9,5,5,0,0,1,3.91-1.74,4.75,4.75,0,0,1,3.74,1.6,7.21,7.21,0,0,1,1.44,4.81h-8.6c0,1.79.38,3,1.13,3.62a3.68,3.68,0,0,0,2.38.93A3.23,3.23,0,0,0,180.56,114.47Zm-.1-3.59a5.26,5.26,0,0,0-.33-1.77,3,3,0,0,0-1-1.32,2.81,2.81,0,0,0-1.75-.55,3.09,3.09,0,0,0-2.32,1,4.06,4.06,0,0,0-1.08,2.65Z"/><path class="cls-1" d="M190.49,116.75v1.45a12.42,12.42,0,0,1-1.69.13q-3.44,0-3.43-3.59v-7.13h-2.1v-1.45h2.1l.08-3,1.71-.17v3.14h2.65v1.45h-2.65V115a1.65,1.65,0,0,0,1.9,1.84A9.84,9.84,0,0,0,190.49,116.75Z"/><path class="cls-1" d="M206.32,114.47l1.71.35a4.74,4.74,0,0,1-1.83,2.51,5.21,5.21,0,0,1-3.2,1,5,5,0,0,1-3.92-1.71,7.44,7.44,0,0,1,.06-9,5,5,0,0,1,3.91-1.74,4.71,4.71,0,0,1,3.73,1.6,7.21,7.21,0,0,1,1.45,4.81h-8.6c0,1.79.37,3,1.12,3.62a3.7,3.7,0,0,0,2.38.93A3.25,3.25,0,0,0,206.32,114.47Zm-.11-3.59a5,5,0,0,0-.32-1.77,3.06,3.06,0,0,0-1-1.32,2.81,2.81,0,0,0-1.75-.55,3.13,3.13,0,0,0-2.33,1,4.11,4.11,0,0,0-1.07,2.65Z"/><path class="cls-1" d="M212.84,118H211V106.16h1.61v2.77a6,6,0,0,1,1.72-2.54,3.16,3.16,0,0,1,1.76-.58c.19,0,.43,0,.73,0v1.76h-.37a3.28,3.28,0,0,0-2.54,1.13,4.6,4.6,0,0,0-1.07,3Z"/><path class="cls-1" d="M225.8,118h-.89V102h1.84v6.13a3.85,3.85,0,0,1,3.49-2.29,4.29,4.29,0,0,1,3.41,1.6,7,7,0,0,1,1.38,4.67,7.14,7.14,0,0,1-1.35,4.43,4.23,4.23,0,0,1-3.52,1.79,4.05,4.05,0,0,1-3.71-2.29Zm.95-4.64a3.56,3.56,0,0,0,1.12,2.64,3.23,3.23,0,0,0,2.09.83,2.66,2.66,0,0,0,2.27-1.22,5.69,5.69,0,0,0,.87-3.35,6.6,6.6,0,0,0-.84-3.59,2.58,2.58,0,0,0-2.31-1.31,2.89,2.89,0,0,0-2.09.93,3.86,3.86,0,0,0-1.11,2.41Z"/><path class="cls-1" d="M247.05,118h-1.81c-.07-.37-.14-1.09-.21-2.13a4.28,4.28,0,0,1-4.15,2.46,4.14,4.14,0,0,1-3.06-1.06,3.44,3.44,0,0,1-1.07-2.53,3.54,3.54,0,0,1,1.53-2.95c1-.78,2.74-1.16,5.18-1.16.33,0,.85,0,1.57.05a6.66,6.66,0,0,0-.22-2,1.78,1.78,0,0,0-.92-1,4,4,0,0,0-1.85-.37c-1.87,0-2.95.71-3.26,2.13l-1.7-.29q.63-3.27,5.23-3.27a4.64,4.64,0,0,1,3.47,1.08,5.39,5.39,0,0,1,1,3.76v5A10.28,10.28,0,0,0,247.05,118Zm-2-5.92c-.75,0-1.32-.07-1.71-.07a6.62,6.62,0,0,0-3.39.72,2.3,2.3,0,0,0-1.21,2.09,2,2,0,0,0,.65,1.48,2.64,2.64,0,0,0,1.88.61A3.48,3.48,0,0,0,244,115.7a4.12,4.12,0,0,0,1.07-2.84Q245.06,112.53,245,112.08Zm-.78-9.62a1.89,1.89,0,0,1-.59,1.42,1.92,1.92,0,0,1-1.42.6,2,2,0,0,1-1.44-.6,1.93,1.93,0,0,1-.61-1.43,2,2,0,0,1,.6-1.43,2,2,0,0,1,1.5-.61,1.86,1.86,0,0,1,1.37.6A2,2,0,0,1,244.25,102.46Zm-1,0a1.06,1.06,0,0,0-.3-.76,1,1,0,0,0-.69-.32,1.11,1.11,0,0,0-.82.32,1,1,0,0,0-.31.73,1.06,1.06,0,1,0,2.12,0Z"/><path class="cls-1" d="M259.73,102v16h-1.66v-2a4,4,0,0,1-3.74,2.36,4.13,4.13,0,0,1-3.42-1.74,7.06,7.06,0,0,1-1.34-4.41,7.5,7.5,0,0,1,1.33-4.53,4.13,4.13,0,0,1,3.51-1.81,4,4,0,0,1,3.48,1.94V102Zm-1.84,8.73a3.35,3.35,0,0,0-.94-2.49,3.07,3.07,0,0,0-2.22-.94,2.7,2.7,0,0,0-2.26,1.22,5.73,5.73,0,0,0-.88,3.42,6.65,6.65,0,0,0,.81,3.62,2.55,2.55,0,0,0,2.24,1.24,3,3,0,0,0,2.27-1.07,3.63,3.63,0,0,0,1-2.53Z"/><path class="cls-1" d="M271.23,114.47l1.71.35a4.74,4.74,0,0,1-1.83,2.51,5.21,5.21,0,0,1-3.2,1,5,5,0,0,1-3.92-1.71,7.44,7.44,0,0,1,.06-9,5,5,0,0,1,3.91-1.74,4.71,4.71,0,0,1,3.73,1.6,7.21,7.21,0,0,1,1.45,4.81h-8.6c0,1.79.37,3,1.12,3.62a3.7,3.7,0,0,0,2.38.93A3.25,3.25,0,0,0,271.23,114.47Zm-.1-3.59a5.26,5.26,0,0,0-.33-1.77,3.06,3.06,0,0,0-1-1.32,2.81,2.81,0,0,0-1.75-.55,3.13,3.13,0,0,0-2.33,1,4.11,4.11,0,0,0-1.07,2.65Z"/><path class="cls-1" d="M49.51,135,45.42,146.8h-1.9L39.28,135h2l3.3,9.62L47.88,135Z"/><path class="cls-1" d="M53.54,130.8v2h-2v-2ZM53.48,135V146.8H51.64V135Z"/><path class="cls-1" d="M66.93,146.8H65l-3.46-6.61L59,143.14v3.66H57.15v-16H59v10.26l5.5-6.1h2l-3.7,4.16Z"/><path class="cls-1" d="M74.54,145.55V147a14.28,14.28,0,0,1-1.68.13q-3.44,0-3.44-3.59v-7.13h-2.1V135h2.1l.08-3,1.71-.17V135h2.65v1.45H71.21v7.43a1.65,1.65,0,0,0,1.9,1.83A9.6,9.6,0,0,0,74.54,145.55Z"/><path class="cls-1" d="M78.46,130.8v2h-2v-2ZM78.4,135V146.8H76.56V135Z"/><path class="cls-1" d="M91.73,133.11v1.47a3.27,3.27,0,0,0-1.69.29,1.62,1.62,0,0,0-.57,1,4.29,4.29,0,0,1,1.14,2.86,3.66,3.66,0,0,1-1.24,2.78,4.66,4.66,0,0,1-3.32,1.16,3.88,3.88,0,0,1-.81-.07,7.22,7.22,0,0,0-.81-.13,1.48,1.48,0,0,0-.76.31,1,1,0,0,0-.44.81.87.87,0,0,0,.64.91,14.1,14.1,0,0,0,3,.27,17.85,17.85,0,0,1,3,.27,3.12,3.12,0,0,1,1.64,1,2.63,2.63,0,0,1,.66,1.82c0,2.26-2,3.38-6,3.38a7.68,7.68,0,0,1-4.12-.85,2.59,2.59,0,0,1-1.29-2.27,2.39,2.39,0,0,1,1.8-2.37,2.23,2.23,0,0,1-1.16-1.9,2.29,2.29,0,0,1,1.64-2.1,3.87,3.87,0,0,1-1.53-3.13,3.61,3.61,0,0,1,1.31-2.88,4.73,4.73,0,0,1,3.2-1.12,5.6,5.6,0,0,1,2.42.5,2.29,2.29,0,0,1,.82-1.61,3.46,3.46,0,0,1,1.94-.44Zm-7.82,13.21A1.78,1.78,0,0,0,82.62,148a1.54,1.54,0,0,0,1.06,1.4,6.38,6.38,0,0,0,2.7.5,8.87,8.87,0,0,0,2.79-.43c.84-.29,1.26-.77,1.26-1.45a1.16,1.16,0,0,0-.37-.9,1.85,1.85,0,0,0-1-.45c-.43-.06-1.19-.11-2.26-.14C85.48,146.45,84.52,146.4,83.91,146.32Zm2.2-5a2.59,2.59,0,0,0,1.91-.73,2.49,2.49,0,0,0,.74-1.86,2.58,2.58,0,0,0-2.63-2.66,2.78,2.78,0,0,0-1.85.69,2.79,2.79,0,0,0-.08,3.85A2.62,2.62,0,0,0,86.11,141.32Z"/><path class="cls-1" d="M104.1,147.13a4.5,4.5,0,0,1-3.81-1.81,7.21,7.21,0,0,1-1.36-4.48,6.5,6.5,0,0,1,1.53-4.52,5,5,0,0,1,3.83-1.68,4.67,4.67,0,0,1,3.86,1.77,6.94,6.94,0,0,1,1.41,4.44,6.69,6.69,0,0,1-1.52,4.53A5,5,0,0,1,104.1,147.13Zm.14-1.53a2.89,2.89,0,0,0,2.35-1.16,5.59,5.59,0,0,0,1-3.61,5.24,5.24,0,0,0-1-3.56,3.06,3.06,0,0,0-2.34-1.11,2.94,2.94,0,0,0-2.32,1.12,5.43,5.43,0,0,0-.94,3.54,5.69,5.69,0,0,0,.94,3.68A3,3,0,0,0,104.24,145.6Z"/><path class="cls-1" d="M122,133.11v1.47a3.25,3.25,0,0,0-1.69.29,1.54,1.54,0,0,0-.57,1,4.29,4.29,0,0,1,1.14,2.86,3.66,3.66,0,0,1-1.24,2.78,4.66,4.66,0,0,1-3.32,1.16,3.88,3.88,0,0,1-.81-.07,7.22,7.22,0,0,0-.81-.13,1.48,1.48,0,0,0-.76.31,1,1,0,0,0-.45.81.88.88,0,0,0,.65.91,14.06,14.06,0,0,0,3,.27,18,18,0,0,1,3,.27,3.05,3.05,0,0,1,1.63,1,2.59,2.59,0,0,1,.67,1.82c0,2.26-2,3.38-5.95,3.38a7.68,7.68,0,0,1-4.12-.85,2.6,2.6,0,0,1-1.3-2.27,2.4,2.4,0,0,1,1.81-2.37,2.23,2.23,0,0,1-1.16-1.9,2.29,2.29,0,0,1,1.64-2.1,3.88,3.88,0,0,1-1.54-3.13,3.61,3.61,0,0,1,1.32-2.88,4.73,4.73,0,0,1,3.2-1.12,5.64,5.64,0,0,1,2.42.5,2.29,2.29,0,0,1,.82-1.61,3.46,3.46,0,0,1,1.94-.44Zm-7.83,13.21a1.77,1.77,0,0,0-1.28,1.63,1.54,1.54,0,0,0,1.06,1.4,6.35,6.35,0,0,0,2.7.5,8.87,8.87,0,0,0,2.79-.43c.84-.29,1.26-.77,1.26-1.45a1.16,1.16,0,0,0-.37-.9,1.88,1.88,0,0,0-1-.45c-.43-.06-1.19-.11-2.27-.14C115.73,146.45,114.78,146.4,114.16,146.32Zm2.21-5a2.59,2.59,0,0,0,1.91-.73,2.49,2.49,0,0,0,.74-1.86,2.58,2.58,0,0,0-2.63-2.66,2.78,2.78,0,0,0-1.85.69,2.79,2.79,0,0,0-.08,3.85A2.62,2.62,0,0,0,116.37,141.32Z"/><path class="cls-1" d="M132,146.8h-1.84v-16H132Z"/><path class="cls-1" d="M136,145.14a7.18,7.18,0,0,1-1.24-4.31,6.46,6.46,0,0,1,1.53-4.5,5.2,5.2,0,0,1,6.85-.73l1-1.41h1.64L144,136.53a7,7,0,0,1,1.32,4.32,6.64,6.64,0,0,1-1.52,4.52,5,5,0,0,1-3.95,1.76,4.51,4.51,0,0,1-3-1l-1,1.35h-1.6Zm1.2-1.6,4.9-6.56a3,3,0,0,0-2.06-.82,2.92,2.92,0,0,0-2.31,1.11,5.45,5.45,0,0,0-1,3.58A7.37,7.37,0,0,0,137.15,143.54Zm5.7-5.45-5,6.63a3,3,0,0,0,2.15.88,2.89,2.89,0,0,0,2.35-1.16,5.64,5.64,0,0,0,.95-3.6A6.8,6.8,0,0,0,142.85,138.09Z"/><path class="cls-1" d="M157.43,146.8h-1.72v-7.61a3,3,0,0,0-.72-2.3,2.41,2.41,0,0,0-1.73-.67,3,3,0,0,0-2.36,1.12,4.42,4.42,0,0,0-1,3v6.49H148.1V135h1.71v2.18a4.26,4.26,0,0,1,3.74-2.5,3.69,3.69,0,0,1,2.26.68,3.64,3.64,0,0,1,1.27,1.54,9.36,9.36,0,0,1,.35,3.1Z"/><path class="cls-1" d="M170.44,146.8h-1.73v-7.61a3,3,0,0,0-.71-2.3,2.42,2.42,0,0,0-1.73-.67,3,3,0,0,0-2.37,1.12,4.47,4.47,0,0,0-1,3v6.49h-1.84V135h1.71v2.18a4.26,4.26,0,0,1,3.74-2.5,3.66,3.66,0,0,1,2.25.68,3.59,3.59,0,0,1,1.28,1.54,9.36,9.36,0,0,1,.35,3.1Z"/><path class="cls-1" d="M172.52,143.73l1.76-.36c.39,1.49,1.63,2.23,3.7,2.23a3.54,3.54,0,0,0,2-.51,1.64,1.64,0,0,0,.8-1.45c0-.93-.68-1.52-2-1.77l-2.5-.47a4.66,4.66,0,0,1-2.33-1.1,2.85,2.85,0,0,1-.87-2.17,3.14,3.14,0,0,1,1.19-2.49,4.76,4.76,0,0,1,3.19-1q3.85,0,4.75,3l-1.68.36a2.9,2.9,0,0,0-3-1.85,3.36,3.36,0,0,0-1.85.46,1.46,1.46,0,0,0-.72,1.3c0,.87.61,1.42,1.84,1.65L179,140q3.61.66,3.62,3.51a3.14,3.14,0,0,1-1.35,2.64,5.91,5.91,0,0,1-3.58,1C174.92,147.13,173.19,146,172.52,143.73Z"/><path class="cls-1" d="M189.49,147.13a4.49,4.49,0,0,1-3.8-1.81,7.22,7.22,0,0,1-1.37-4.48,6.5,6.5,0,0,1,1.54-4.52,5,5,0,0,1,3.82-1.68,4.67,4.67,0,0,1,3.86,1.77,6.94,6.94,0,0,1,1.41,4.44,6.64,6.64,0,0,1-1.52,4.53A5,5,0,0,1,189.49,147.13Zm.14-1.53a2.91,2.91,0,0,0,2.36-1.16,5.65,5.65,0,0,0,.95-3.61,5.19,5.19,0,0,0-1-3.56,3,3,0,0,0-2.33-1.11,2.92,2.92,0,0,0-2.32,1.12,5.43,5.43,0,0,0-.95,3.54,5.68,5.68,0,0,0,.95,3.68A2.94,2.94,0,0,0,189.63,145.6Z"/><path class="cls-1" d="M213.57,146.8h-1.79v-7.36a6.5,6.5,0,0,0-.16-1.7,2.05,2.05,0,0,0-.76-1.05,2.24,2.24,0,0,0-1.38-.47,2.9,2.9,0,0,0-2,1,4,4,0,0,0-1,2.95v6.67h-1.78V139a2.83,2.83,0,0,0-.74-2.21,2.37,2.37,0,0,0-1.57-.64,2.63,2.63,0,0,0-2,1,3.8,3.8,0,0,0-.86,2.55v7.08h-1.76V135h1.58v2.28c.88-1.74,2.1-2.6,3.65-2.6a3,3,0,0,1,2.16.83,3.73,3.73,0,0,1,1.15,2q1.22-2.83,3.74-2.83a3.43,3.43,0,0,1,2.12.69,3.18,3.18,0,0,1,1.18,1.59,9.08,9.08,0,0,1,.27,2.52Z"/><path class="cls-1" d="M222.62,145.55V147a14.28,14.28,0,0,1-1.69.13q-3.44,0-3.43-3.59v-7.13h-2.1V135h2.1l.08-3,1.71-.17V135h2.65v1.45h-2.65v7.43a1.65,1.65,0,0,0,1.9,1.83A9.71,9.71,0,0,0,222.62,145.55Z"/><path class="cls-1" d="M239.89,146.8h-1.81q-.11-.57-.21-2.13a4.28,4.28,0,0,1-4.15,2.46,4.14,4.14,0,0,1-3.06-1.06,3.44,3.44,0,0,1-1.07-2.53,3.57,3.57,0,0,1,1.53-3q1.51-1.16,5.18-1.15c.33,0,.85,0,1.57,0a7,7,0,0,0-.22-2,1.78,1.78,0,0,0-.92-1,4,4,0,0,0-1.85-.37c-1.87,0-2.95.71-3.26,2.13l-1.7-.29q.63-3.27,5.23-3.27a4.64,4.64,0,0,1,3.47,1.08,5.39,5.39,0,0,1,1,3.76v5A10.28,10.28,0,0,0,239.89,146.8Zm-2-5.92c-.75,0-1.32-.07-1.71-.07a6.62,6.62,0,0,0-3.39.72,2.28,2.28,0,0,0-1.21,2.09,2,2,0,0,0,.65,1.48,2.64,2.64,0,0,0,1.88.61,3.48,3.48,0,0,0,2.74-1.21,4.17,4.17,0,0,0,1.07-2.84Q237.9,141.33,237.87,140.88Zm-.78-9.62a1.89,1.89,0,0,1-.59,1.42,1.92,1.92,0,0,1-1.42.6,2,2,0,0,1-1.44-.6,1.93,1.93,0,0,1-.61-1.43,2,2,0,0,1,.6-1.43,2,2,0,0,1,1.5-.61,1.86,1.86,0,0,1,1.37.6A2,2,0,0,1,237.09,131.26Zm-1,0a1.05,1.05,0,0,0-.3-.75,1,1,0,0,0-.69-.32,1.11,1.11,0,0,0-.82.32,1,1,0,0,0-.31.73,1.08,1.08,0,0,0,1.82.77A1.05,1.05,0,0,0,236.12,131.25Z"/><path class="cls-1" d="M50.51,161.91v1.47a3.29,3.29,0,0,0-1.7.29,1.57,1.57,0,0,0-.56,1.05,4.32,4.32,0,0,1,1.13,2.86,3.68,3.68,0,0,1-1.23,2.78,4.7,4.7,0,0,1-3.33,1.16,3.72,3.72,0,0,1-.8-.07,7.22,7.22,0,0,0-.81-.13,1.45,1.45,0,0,0-.76.31,1,1,0,0,0-.45.81.87.87,0,0,0,.64.91,14.18,14.18,0,0,0,3,.27,17.85,17.85,0,0,1,3,.27,3.08,3.08,0,0,1,1.64,1,2.64,2.64,0,0,1,.67,1.82c0,2.26-2,3.38-6,3.38a7.7,7.7,0,0,1-4.12-.85,2.59,2.59,0,0,1-1.29-2.27,2.38,2.38,0,0,1,1.8-2.37,2.23,2.23,0,0,1-1.16-1.9,2.29,2.29,0,0,1,1.64-2.1,3.87,3.87,0,0,1-1.53-3.13,3.64,3.64,0,0,1,1.31-2.88,4.75,4.75,0,0,1,3.2-1.12,5.68,5.68,0,0,1,2.43.5,2.28,2.28,0,0,1,.81-1.61,3.48,3.48,0,0,1,1.94-.44Zm-7.83,13.21a1.78,1.78,0,0,0-1.29,1.63,1.54,1.54,0,0,0,1.06,1.4,6.41,6.41,0,0,0,2.7.5,8.78,8.78,0,0,0,2.79-.43c.85-.29,1.27-.77,1.27-1.45a1.17,1.17,0,0,0-.38-.9,1.85,1.85,0,0,0-1-.45c-.44-.06-1.19-.11-2.27-.14C44.25,175.25,43.3,175.2,42.68,175.12Zm2.2-5a2.59,2.59,0,0,0,1.91-.73,2.46,2.46,0,0,0,.74-1.86,2.58,2.58,0,0,0-2.62-2.66,2.79,2.79,0,0,0-1.86.69,2.82,2.82,0,0,0-.08,3.85A2.64,2.64,0,0,0,44.88,170.12Z"/><path class="cls-1" d="M54.47,163.63V176a3.19,3.19,0,0,1-3.41,3.73,7.25,7.25,0,0,1-1.72-.25V178a5.83,5.83,0,0,0,1.34.18,2,2,0,0,0,1.5-.5,2.57,2.57,0,0,0,.45-1.72V163.63Zm.09-4v2.05H52.48V159.6Z"/><path class="cls-1" d="M58.44,173.94a7.18,7.18,0,0,1-1.24-4.31,6.46,6.46,0,0,1,1.53-4.5,5.2,5.2,0,0,1,6.85-.73l1-1.41h1.64l-1.76,2.34a7,7,0,0,1,1.32,4.32,6.66,6.66,0,0,1-1.52,4.52,5,5,0,0,1-3.94,1.76,4.52,4.52,0,0,1-3-1l-1,1.35H56.71Zm1.2-1.6,4.91-6.56a3,3,0,0,0-2.07-.82,3,3,0,0,0-2.31,1.11,5.45,5.45,0,0,0-1,3.58A7.58,7.58,0,0,0,59.64,172.34Zm5.7-5.45-5,6.63a3,3,0,0,0,2.16.88,2.89,2.89,0,0,0,2.34-1.16,5.59,5.59,0,0,0,1-3.61A6.78,6.78,0,0,0,65.34,166.89Z"/><path class="cls-1" d="M72.43,175.6H70.59V163.76h1.62v2.77A5.89,5.89,0,0,1,73.93,164a3.16,3.16,0,0,1,1.76-.58c.19,0,.43,0,.73.05v1.76H76a3.26,3.26,0,0,0-2.53,1.13,4.66,4.66,0,0,0-1.08,3Z"/><path class="cls-1" d="M86.32,172.07l1.71.35a4.74,4.74,0,0,1-1.83,2.51,5.21,5.21,0,0,1-3.2,1,5,5,0,0,1-3.92-1.71,7.44,7.44,0,0,1,.06-9,5,5,0,0,1,3.91-1.74,4.71,4.71,0,0,1,3.73,1.6,7.21,7.21,0,0,1,1.45,4.81h-8.6c0,1.78.37,3,1.12,3.62a3.7,3.7,0,0,0,2.38.93A3.25,3.25,0,0,0,86.32,172.07Zm-.11-3.6a5,5,0,0,0-.32-1.76,3.06,3.06,0,0,0-1-1.32,2.81,2.81,0,0,0-1.75-.55,3.13,3.13,0,0,0-2.33,1,4.1,4.1,0,0,0-1.07,2.64Z"/><path class="cls-1" d="M106.24,159.6v16h-1.66v-2a4,4,0,0,1-3.75,2.36,4.12,4.12,0,0,1-3.41-1.74,7.06,7.06,0,0,1-1.34-4.41,7.44,7.44,0,0,1,1.33-4.53,4.13,4.13,0,0,1,3.51-1.81,4.07,4.07,0,0,1,3.48,1.94V159.6Zm-1.84,8.73a3.3,3.3,0,0,0-1-2.49,3,3,0,0,0-2.21-.94A2.69,2.69,0,0,0,99,166.12a5.73,5.73,0,0,0-.88,3.42,6.65,6.65,0,0,0,.81,3.62,2.54,2.54,0,0,0,2.23,1.24,3,3,0,0,0,2.28-1.07,3.68,3.68,0,0,0,1-2.54Z"/><path class="cls-1" d="M111.82,159.6v2.05h-2V159.6Zm-.06,4.16V175.6h-1.84V163.76Z"/><path class="cls-1" d="M125.1,161.91v1.47a3.29,3.29,0,0,0-1.7.29,1.57,1.57,0,0,0-.56,1.05,4.32,4.32,0,0,1,1.13,2.86,3.68,3.68,0,0,1-1.23,2.78,4.7,4.7,0,0,1-3.33,1.16,3.72,3.72,0,0,1-.8-.07,7.22,7.22,0,0,0-.81-.13,1.45,1.45,0,0,0-.76.31,1,1,0,0,0-.45.81.87.87,0,0,0,.64.91,14.18,14.18,0,0,0,3,.27,17.85,17.85,0,0,1,3,.27,3.08,3.08,0,0,1,1.64,1,2.64,2.64,0,0,1,.67,1.82c0,2.26-2,3.38-6,3.38a7.7,7.7,0,0,1-4.12-.85,2.59,2.59,0,0,1-1.29-2.27,2.38,2.38,0,0,1,1.8-2.37,2.23,2.23,0,0,1-1.16-1.9,2.29,2.29,0,0,1,1.64-2.1,3.87,3.87,0,0,1-1.53-3.13,3.64,3.64,0,0,1,1.31-2.88,4.75,4.75,0,0,1,3.2-1.12,5.68,5.68,0,0,1,2.43.5,2.28,2.28,0,0,1,.81-1.61,3.48,3.48,0,0,1,1.94-.44Zm-7.83,13.21a1.78,1.78,0,0,0-1.29,1.63,1.54,1.54,0,0,0,1.06,1.4,6.41,6.41,0,0,0,2.7.5,8.78,8.78,0,0,0,2.79-.43c.85-.29,1.27-.77,1.27-1.45a1.17,1.17,0,0,0-.38-.9,1.85,1.85,0,0,0-1-.45c-.44-.06-1.19-.11-2.27-.14C118.84,175.25,117.89,175.2,117.27,175.12Zm2.2-5a2.59,2.59,0,0,0,1.91-.73,2.46,2.46,0,0,0,.74-1.86,2.58,2.58,0,0,0-2.62-2.66,2.79,2.79,0,0,0-1.86.69,2.82,2.82,0,0,0-.08,3.85A2.64,2.64,0,0,0,119.47,170.12Z"/><path class="cls-1" d="M129.12,159.6v2.05h-2V159.6Zm-.06,4.16V175.6h-1.84V163.76Z"/><path class="cls-1" d="M138.09,174.35v1.45a14.13,14.13,0,0,1-1.68.13q-3.43,0-3.44-3.59v-7.13h-2.09v-1.45H133l.08-3,1.72-.17v3.14h2.64v1.45h-2.64v7.43a1.64,1.64,0,0,0,1.89,1.83A9.6,9.6,0,0,0,138.09,174.35Z"/><path class="cls-1" d="M149.37,175.6h-1.82q-.11-.57-.21-2.13a4.27,4.27,0,0,1-4.15,2.46,4.14,4.14,0,0,1-3.06-1.06,3.43,3.43,0,0,1-1.06-2.53,3.56,3.56,0,0,1,1.52-3c1-.77,2.74-1.15,5.18-1.15.33,0,.85,0,1.57.05a6.66,6.66,0,0,0-.22-2,1.78,1.78,0,0,0-.92-1,3.92,3.92,0,0,0-1.85-.37c-1.87,0-2.95.71-3.26,2.13l-1.7-.29q.63-3.27,5.23-3.27a4.68,4.68,0,0,1,3.48,1.08,5.44,5.44,0,0,1,1,3.76v5A9.71,9.71,0,0,0,149.37,175.6Zm-2-5.92c-.75-.05-1.32-.07-1.71-.07a6.67,6.67,0,0,0-3.39.72,2.29,2.29,0,0,0-1.2,2.09,1.94,1.94,0,0,0,.65,1.48,2.63,2.63,0,0,0,1.88.61,3.46,3.46,0,0,0,2.73-1.21,4.13,4.13,0,0,0,1.08-2.84C147.38,170.24,147.36,170,147.34,169.68Z"/><path class="cls-1" d="M154.64,175.6H152.8v-16h1.84Z"/><path class="cls-1" d="M166.14,172.07l1.71.35a4.74,4.74,0,0,1-1.83,2.51,5.23,5.23,0,0,1-3.2,1,5,5,0,0,1-3.93-1.71,7.44,7.44,0,0,1,.06-9,5,5,0,0,1,3.92-1.74,4.73,4.73,0,0,1,3.73,1.6,7.26,7.26,0,0,1,1.45,4.81h-8.6c0,1.78.37,3,1.12,3.62a3.68,3.68,0,0,0,2.38.93A3.25,3.25,0,0,0,166.14,172.07Zm-.11-3.6a4.8,4.8,0,0,0-.33-1.76,2.92,2.92,0,0,0-1-1.32,2.76,2.76,0,0,0-1.74-.55,3.11,3.11,0,0,0-2.33,1,4,4,0,0,0-1.07,2.64Z"/><path class="cls-1" d="M182.18,174.35v1.45a14.28,14.28,0,0,1-1.69.13q-3.44,0-3.43-3.59v-7.13H175v-1.45h2.1l.08-3,1.71-.17v3.14h2.65v1.45h-2.65v7.43c0,1.22.63,1.83,1.9,1.83A9.71,9.71,0,0,0,182.18,174.35Z"/><path class="cls-1" d="M186,163.63V176a3.59,3.59,0,0,1-1,2.91,3.63,3.63,0,0,1-2.41.82,7.32,7.32,0,0,1-1.73-.25V178a6,6,0,0,0,1.35.18,1.92,1.92,0,0,0,1.49-.5,2.57,2.57,0,0,0,.46-1.72V163.63Zm.09-4v2.05H184V159.6Z"/><path class="cls-1" d="M197.51,172.07l1.71.35a4.74,4.74,0,0,1-1.83,2.51,5.23,5.23,0,0,1-3.2,1,5,5,0,0,1-3.92-1.71,6.53,6.53,0,0,1-1.5-4.47,6.62,6.62,0,0,1,1.55-4.57,5,5,0,0,1,3.92-1.74A4.71,4.71,0,0,1,198,165a7.26,7.26,0,0,1,1.45,4.81h-8.6c0,1.78.37,3,1.12,3.62a3.68,3.68,0,0,0,2.38.93A3.25,3.25,0,0,0,197.51,172.07Zm-.11-3.6a4.8,4.8,0,0,0-.33-1.76,2.92,2.92,0,0,0-1-1.32,2.76,2.76,0,0,0-1.74-.55,3.11,3.11,0,0,0-2.33,1,4,4,0,0,0-1.07,2.64Z"/><path class="cls-1" d="M211.51,175.6h-1.72V168a3,3,0,0,0-.72-2.3,2.41,2.41,0,0,0-1.73-.67,3,3,0,0,0-2.36,1.12,4.42,4.42,0,0,0-1,3v6.49h-1.84V163.76h1.71v2.18a4.27,4.27,0,0,1,3.74-2.5,3.78,3.78,0,0,1,3.54,2.22,9.43,9.43,0,0,1,.34,3.1Z"/><path class="cls-1" d="M223,172.07l1.71.35a4.74,4.74,0,0,1-1.83,2.51,5.23,5.23,0,0,1-3.2,1,5,5,0,0,1-3.92-1.71,6.53,6.53,0,0,1-1.5-4.47,6.62,6.62,0,0,1,1.55-4.57,5,5,0,0,1,3.92-1.74,4.71,4.71,0,0,1,3.73,1.6,7.26,7.26,0,0,1,1.45,4.81h-8.6c0,1.78.37,3,1.12,3.62a3.68,3.68,0,0,0,2.38.93A3.25,3.25,0,0,0,223,172.07Zm-.11-3.6a4.8,4.8,0,0,0-.33-1.76,2.92,2.92,0,0,0-1-1.32,2.76,2.76,0,0,0-1.74-.55,3.11,3.11,0,0,0-2.33,1,4,4,0,0,0-1.07,2.64Z"/><path class="cls-1" d="M226.09,172.53l1.76-.36c.39,1.49,1.62,2.23,3.7,2.23a3.56,3.56,0,0,0,1.95-.51,1.63,1.63,0,0,0,.79-1.45c0-.93-.67-1.52-2-1.77l-2.49-.47a4.62,4.62,0,0,1-2.33-1.1,2.85,2.85,0,0,1-.87-2.17,3.13,3.13,0,0,1,1.18-2.49,4.78,4.78,0,0,1,3.19-1q3.85,0,4.76,3l-1.69.36a2.89,2.89,0,0,0-3-1.85,3.33,3.33,0,0,0-1.84.46,1.46,1.46,0,0,0-.72,1.29c0,.88.61,1.43,1.84,1.66l2.31.41q3.62.66,3.62,3.51a3.12,3.12,0,0,1-1.35,2.63,5.86,5.86,0,0,1-3.59,1C228.49,175.93,226.75,174.79,226.09,172.53Z"/><path class="cls-1" d="M244.18,174.35v1.45a14.13,14.13,0,0,1-1.68.13q-3.44,0-3.44-3.59v-7.13H237v-1.45h2.1l.08-3,1.72-.17v3.14h2.64v1.45h-2.64v7.43a1.64,1.64,0,0,0,1.89,1.83A9.6,9.6,0,0,0,244.18,174.35Z"/><path class="cls-1" d="M253.61,172.07l1.71.35a4.85,4.85,0,0,1-1.83,2.51,5.23,5.23,0,0,1-3.2,1,5,5,0,0,1-3.93-1.71,7.44,7.44,0,0,1,.06-9,5,5,0,0,1,3.92-1.74,4.73,4.73,0,0,1,3.73,1.6,7.26,7.26,0,0,1,1.45,4.81h-8.61c0,1.78.38,3,1.13,3.62a3.68,3.68,0,0,0,2.38.93A3.25,3.25,0,0,0,253.61,172.07Zm-.11-3.6a5,5,0,0,0-.33-1.76,2.92,2.92,0,0,0-1-1.32,2.79,2.79,0,0,0-1.75-.55,3.11,3.11,0,0,0-2.32,1,4,4,0,0,0-1.07,2.64Z"/><path class="cls-1" d="M260.12,175.6h-1.84V163.76h1.62v2.77a5.89,5.89,0,0,1,1.72-2.54,3.16,3.16,0,0,1,1.76-.58c.19,0,.43,0,.73.05v1.76h-.38a3.25,3.25,0,0,0-2.53,1.13,4.66,4.66,0,0,0-1.08,3Z"/><path class="cls-1" d="M50.16,204.4H48.49v-2.26a4,4,0,0,1-3.77,2.59,3.56,3.56,0,0,1-2.84-1.2,5,5,0,0,1-1-3.4v-7.57h1.84v7.56a3.18,3.18,0,0,0,.73,2.42,2.38,2.38,0,0,0,1.61.67,2.71,2.71,0,0,0,1.61-.51,3.74,3.74,0,0,0,1.21-1.43,4.41,4.41,0,0,0,.48-2v-6.67h1.84Z"/><path class="cls-1" d="M63.16,204.4H61.44v-7.61a3.07,3.07,0,0,0-.71-2.3,2.45,2.45,0,0,0-1.74-.67,3,3,0,0,0-2.36,1.12,4.41,4.41,0,0,0-1,3v6.49H53.84V192.56h1.71v2.18a4.25,4.25,0,0,1,3.74-2.5,3.78,3.78,0,0,1,3.53,2.22,9.43,9.43,0,0,1,.34,3.1Z"/><path class="cls-1" d="M68.74,188.4v2.06h-2V188.4Zm-.06,4.16V204.4H66.84V192.56Z"/><path class="cls-1" d="M81,192.56,76.93,204.4H75l-4.25-11.84h2l3.3,9.63,3.26-9.63Z"/><path class="cls-1" d="M90.61,200.87l1.71.35a4.81,4.81,0,0,1-1.83,2.52,5.27,5.27,0,0,1-3.2,1A5,5,0,0,1,83.37,203a7.44,7.44,0,0,1,.06-9,5,5,0,0,1,3.91-1.74,4.71,4.71,0,0,1,3.73,1.6,7.21,7.21,0,0,1,1.45,4.81h-8.6c0,1.79.37,3,1.12,3.62a3.71,3.71,0,0,0,2.38.94A3.26,3.26,0,0,0,90.61,200.87Zm-.11-3.59a5,5,0,0,0-.32-1.77,3,3,0,0,0-1-1.32,2.76,2.76,0,0,0-1.74-.55,3.11,3.11,0,0,0-2.33,1A4.11,4.11,0,0,0,84,197.28Z"/><path class="cls-1" d="M97.13,204.4H95.29V192.56H96.9v2.77a6,6,0,0,1,1.72-2.54,3.16,3.16,0,0,1,1.76-.58c.19,0,.43,0,.73,0V194h-.38a3.28,3.28,0,0,0-2.53,1.13,4.6,4.6,0,0,0-1.07,3Z"/><path class="cls-1" d="M101.74,201.33l1.76-.36c.39,1.49,1.63,2.24,3.7,2.24a3.54,3.54,0,0,0,2-.52,1.64,1.64,0,0,0,.8-1.45c0-.93-.68-1.52-2-1.77l-2.5-.47a4.66,4.66,0,0,1-2.33-1.1,2.85,2.85,0,0,1-.87-2.17,3.14,3.14,0,0,1,1.19-2.49,4.75,4.75,0,0,1,3.18-1q3.85,0,4.76,3l-1.69.36a2.88,2.88,0,0,0-3-1.85,3.36,3.36,0,0,0-1.85.46,1.46,1.46,0,0,0-.72,1.3c0,.87.61,1.42,1.84,1.65l2.31.41q3.61.66,3.62,3.51a3.11,3.11,0,0,1-1.35,2.63,5.85,5.85,0,0,1-3.58,1C104.14,204.73,102.41,203.6,101.74,201.33Z"/><path class="cls-1" d="M122.29,200.87l1.71.35a4.92,4.92,0,0,1-1.83,2.52,5.29,5.29,0,0,1-3.2,1A5,5,0,0,1,115,203a7.44,7.44,0,0,1,.06-9,5,5,0,0,1,3.92-1.74,4.73,4.73,0,0,1,3.73,1.6,7.26,7.26,0,0,1,1.45,4.81h-8.61c0,1.79.38,3,1.13,3.62a3.69,3.69,0,0,0,2.38.94A3.26,3.26,0,0,0,122.29,200.87Zm-.11-3.59a5.26,5.26,0,0,0-.33-1.77,3,3,0,0,0-1-1.32,2.79,2.79,0,0,0-1.75-.55,3.09,3.09,0,0,0-2.32,1,4,4,0,0,0-1.07,2.65Z"/><path class="cls-1" d="M128.8,204.4H127v-16h1.84Z"/><path class="cls-1" d="M137.85,203.15v1.45a12.42,12.42,0,0,1-1.69.13q-3.43,0-3.43-3.59V194h-2.1v-1.45h2.1l.08-3,1.71-.17v3.14h2.65V194h-2.65v7.44c0,1.22.63,1.83,1.9,1.83A9.84,9.84,0,0,0,137.85,203.15Z"/><path class="cls-1" d="M155.18,204.4h-1.66v-2.26a4,4,0,0,1-3.77,2.59,3.57,3.57,0,0,1-2.85-1.2,5,5,0,0,1-1-3.4v-7.57h1.84v7.56a3.18,3.18,0,0,0,.74,2.42,2.34,2.34,0,0,0,1.61.67,2.73,2.73,0,0,0,1.61-.51,3.81,3.81,0,0,0,1.2-1.43,4.41,4.41,0,0,0,.48-2v-6.67h1.84Z"/><path class="cls-1" d="M164.23,203.15v1.45a12.42,12.42,0,0,1-1.69.13q-3.43,0-3.43-3.59V194H157v-1.45h2.1l.08-3,1.71-.17v3.14h2.65V194H160.9v7.44c0,1.22.63,1.83,1.9,1.83A9.84,9.84,0,0,0,164.23,203.15Z"/><path class="cls-1" d="M171.15,192.56V194h-2.81V204.4H166.5V194h-2v-1.45h2c0-1.89.4-3.12,1.1-3.66a4,4,0,0,1,2.56-.82,9.84,9.84,0,0,1,1.68.16v1.47a4.16,4.16,0,0,0-1.13-.16,2.55,2.55,0,0,0-1.79.54,2.64,2.64,0,0,0-.58,2v.48Z"/><path class="cls-1" d="M177.13,204.73a4.47,4.47,0,0,1-3.8-1.81,7.22,7.22,0,0,1-1.37-4.48,6.41,6.41,0,0,1,1.54-4.51,4.92,4.92,0,0,1,3.82-1.69,4.67,4.67,0,0,1,3.86,1.77,6.94,6.94,0,0,1,1.41,4.44,6.64,6.64,0,0,1-1.52,4.52A5,5,0,0,1,177.13,204.73Zm.14-1.52a2.93,2.93,0,0,0,2.36-1.17,5.64,5.64,0,0,0,.94-3.6,5.27,5.27,0,0,0-1-3.57,3.05,3.05,0,0,0-2.33-1.11,2.91,2.91,0,0,0-2.32,1.12,5.39,5.39,0,0,0-1,3.54,5.62,5.62,0,0,0,1,3.68A3,3,0,0,0,177.27,203.21Z"/><path class="cls-1" d="M187.2,204.4h-1.84V192.56H187v2.77a6,6,0,0,1,1.72-2.54,3.16,3.16,0,0,1,1.76-.58c.19,0,.43,0,.73,0V194h-.38a3.28,3.28,0,0,0-2.53,1.13,4.6,4.6,0,0,0-1.07,3Z"/><path class="cls-1" d="M209.12,204.4h-1.79V197a6.5,6.5,0,0,0-.16-1.7,2.08,2.08,0,0,0-.77-1.05,2.19,2.19,0,0,0-1.37-.47,2.87,2.87,0,0,0-2,1,4,4,0,0,0-1,2.94v6.67h-1.78v-7.79a2.79,2.79,0,0,0-.75-2.21,2.33,2.33,0,0,0-1.56-.64,2.63,2.63,0,0,0-2,1,3.76,3.76,0,0,0-.87,2.55v7.08h-1.75V192.56h1.58v2.28c.88-1.74,2.1-2.6,3.64-2.6a3,3,0,0,1,2.17.83,3.8,3.8,0,0,1,1.15,2q1.22-2.83,3.74-2.83a3.38,3.38,0,0,1,2.11.69,3.2,3.2,0,0,1,1.19,1.59,9.13,9.13,0,0,1,.27,2.52Z"/><path class="cls-1" d="M220.62,200.87l1.71.35a4.81,4.81,0,0,1-1.83,2.52,5.29,5.29,0,0,1-3.2,1,5,5,0,0,1-3.92-1.71,7.46,7.46,0,0,1,.05-9,5,5,0,0,1,3.92-1.74,4.73,4.73,0,0,1,3.73,1.6,7.26,7.26,0,0,1,1.45,4.81h-8.6c0,1.79.37,3,1.12,3.62a3.69,3.69,0,0,0,2.38.94A3.26,3.26,0,0,0,220.62,200.87Zm-.11-3.59a4.81,4.81,0,0,0-.33-1.77,2.92,2.92,0,0,0-1-1.32,2.76,2.76,0,0,0-1.74-.55,3.11,3.11,0,0,0-2.33,1,4.05,4.05,0,0,0-1.07,2.65Z"/><path class="cls-1" d="M230.54,203.15v1.45a12.41,12.41,0,0,1-1.68.13q-3.44,0-3.44-3.59V194h-2.1v-1.45h2.1l.08-3,1.71-.17v3.14h2.65V194h-2.65v7.44a1.65,1.65,0,0,0,1.9,1.83A9.72,9.72,0,0,0,230.54,203.15Z"/></svg>