<svg id="Layer_1" data-name="Layer 1" xmlns="http://www.w3.org/2000/svg" viewBox="0 0 300 250"><defs><style>.cls-1{fill:#fff;}</style></defs><title>text</title><path class="cls-1" d="M36.25,90.27v13.89q0,.84-1.08.84t-1.08-.84V97.8H26.56v6.36q0,.84-1.08.84t-1.08-.84V90.27q0-.87,1.08-.87t1.08.87v5.57h7.53V90.27q0-.87,1.08-.87T36.25,90.27Z"/><path class="cls-1" d="M44.72,105.12a1.84,1.84,0,0,1-1.15-.39,2.23,2.23,0,0,1-.72-1l-3.4-9.15c-.05-.25-.07-.38-.08-.39,0-.56.34-.84,1-.83a1,1,0,0,1,1.05.62l3.22,9h.11L48,94c.15-.42.54-.62,1.16-.62s.92.27.92.83c0,0,0,.14-.07.39l-3.41,9.15a2,2,0,0,1-.73,1A1.93,1.93,0,0,1,44.72,105.12Z"/><path class="cls-1" d="M52.16,99.29a14.28,14.28,0,0,1,.27-3.1A3.35,3.35,0,0,1,55,93.42a11.28,11.28,0,0,1,2.51-.23,11.12,11.12,0,0,1,2.5.23,3.42,3.42,0,0,1,1.63.91,3.79,3.79,0,0,1,1,1.85,15,15,0,0,1,.26,3.1,14.87,14.87,0,0,1-.26,3.09,3.37,3.37,0,0,1-1,1.78A3.58,3.58,0,0,1,60,105a11.74,11.74,0,0,1-2.5.21A12.74,12.74,0,0,1,55,105a3.49,3.49,0,0,1-1.62-.83,3.22,3.22,0,0,1-.94-1.8A14.65,14.65,0,0,1,52.16,99.29Zm2.42-2.74a6.18,6.18,0,0,0-.26,2.14c0,1,0,1.84.08,2.44a3,3,0,0,0,.61,1.58,1.86,1.86,0,0,0,1.4.49l1.08,0c1.4,0,2.23-.17,2.48-.51a3.15,3.15,0,0,0,.62-1.59c0-.58.08-1.19.08-1.81,0-1.87-.17-3-.52-3.39a1.93,1.93,0,0,0-2.1-.76c-.86,0-1.41,0-1.65,0-.73,0-1.19.21-1.39.49A5.54,5.54,0,0,0,54.58,96.55Z"/><path class="cls-1" d="M68.09,98.18v6c0,.56-.36.84-1.07.84s-1.08-.28-1.09-.84V97.9a7.33,7.33,0,0,1,.39-3,3.75,3.75,0,0,1,.71-1c.51-.47,1.8-.7,3.86-.7A6.7,6.7,0,0,1,73,93.4a.75.75,0,0,1,.52.76,1.09,1.09,0,0,1-.29.83,1,1,0,0,1-.74.27l-1.58-.1a6.93,6.93,0,0,0-1.84.14,1.66,1.66,0,0,0-.54.27,2.07,2.07,0,0,0-.26.54,3,3,0,0,0-.15.84C68.09,97.24,68.09,97.65,68.09,98.18Z"/><path class="cls-1" d="M85.86,89.79v9.5a14.65,14.65,0,0,1-.26,3.07,3.29,3.29,0,0,1-.95,1.78,3.4,3.4,0,0,1-1.59.84,11.67,11.67,0,0,1-2.5.21,12.74,12.74,0,0,1-2.51-.2,3.49,3.49,0,0,1-1.62-.83,3.28,3.28,0,0,1-.94-1.8,16.28,16.28,0,0,1-.25-3.07,15,15,0,0,1,.26-3.1,3.35,3.35,0,0,1,2.55-2.77,12.78,12.78,0,0,1,2.77-.23,7.26,7.26,0,0,1,2.88.47V89.79q0-.87,1.08-.87T85.86,89.79Zm-8.21,6.76a6.18,6.18,0,0,0-.26,2.14c0,1,0,1.84.09,2.44a2.89,2.89,0,0,0,.6,1.58,1.89,1.89,0,0,0,1.41.49l1.07,0c1.41,0,2.23-.17,2.48-.51a3.07,3.07,0,0,0,.62-1.59,17.69,17.69,0,0,0,.09-1.81c0-1.87-.18-3-.53-3.39a2.89,2.89,0,0,0-.41-.43,2.85,2.85,0,0,0-1.68-.33c-.87,0-1.42,0-1.65,0-.74,0-1.2.21-1.4.49A6.59,6.59,0,0,0,77.65,96.55Z"/><path class="cls-1" d="M90.34,95.47c-.5,0-.75-.29-.75-.89a1,1,0,0,1,.75-1.08,16.89,16.89,0,0,1,3.89-.31c1.82,0,3,.29,3.68.86a3.92,3.92,0,0,1,1,3v4.63c0,1.44-.35,2.38-1.06,2.82a8.41,8.41,0,0,1-4,.66,8.16,8.16,0,0,1-4-.66c-.68-.44-1-1.37-1-2.81a4.27,4.27,0,0,1,.78-3c.53-.55,1.59-.82,3.2-.81h4V96.7a1.32,1.32,0,0,0-.55-1.21,4.07,4.07,0,0,0-2-.33,15.88,15.88,0,0,0-2.45.16A8.58,8.58,0,0,1,90.34,95.47Zm6.39,6.41v-2H93.4a4.21,4.21,0,0,0-2,.31c-.31.2-.46.66-.46,1.38s.19,1.19.57,1.4a6,6,0,0,0,2.29.29,6.9,6.9,0,0,0,2.32-.26A1.06,1.06,0,0,0,96.73,101.88Z"/><path class="cls-1" d="M104.76,95.57c-.27.27-.4,1.14-.4,2.59v6c0,.57-.36.85-1.07.85s-1.08-.28-1.09-.84V97.9a12.32,12.32,0,0,1,.21-2.58,2.31,2.31,0,0,1,.85-1.41,3.07,3.07,0,0,1,1.47-.59,22.51,22.51,0,0,1,2.66-.13c2,0,3.29.24,3.82.74a3.13,3.13,0,0,1,.94,2.11,16.31,16.31,0,0,1,.08,1.86v6.26c0,.56-.35.84-1.07.84s-1.08-.28-1.08-.85v-6a4.66,4.66,0,0,0-.41-2.58,4.23,4.23,0,0,0-2.47-.42C105.84,95.16,105,95.29,104.76,95.57Z"/><path class="cls-1" d="M123.5,98.18v6q0,.84-1.08.84t-1.08-.84V97.9a7.57,7.57,0,0,1,.38-3,4,4,0,0,1,.72-1c.51-.47,1.8-.7,3.86-.7a6.62,6.62,0,0,1,2.08.21.76.76,0,0,1,.53.76,1.13,1.13,0,0,1-.29.83,1,1,0,0,1-.74.27l-1.58-.1a6.88,6.88,0,0,0-1.84.14,1.47,1.47,0,0,0-.54.27,1.79,1.79,0,0,0-.26.54,3,3,0,0,0-.15.84C123.5,97.24,123.5,97.65,123.5,98.18Z"/><path class="cls-1" d="M139.67,102.94c.49,0,.74.29.74.89a1,1,0,0,1-.74,1.08,19.34,19.34,0,0,1-3.9.28,6.7,6.7,0,0,1-3.93-.89,3.54,3.54,0,0,1-1.2-3v-4.4a3.42,3.42,0,0,1,1.08-3,7.45,7.45,0,0,1,4-.76,7.59,7.59,0,0,1,4,.72c.68.49,1,1.49,1,3v1.9a1.38,1.38,0,0,1-.32.92,1,1,0,0,1-.81.32H132.8v1.41c0,1.18,1,1.77,3.08,1.76a18.22,18.22,0,0,0,2.35-.14A11,11,0,0,1,139.67,102.94Zm-6.87-6v1.24h5.79V96.92a1.53,1.53,0,0,0-.59-1.4,4.88,4.88,0,0,0-2.28-.36,5.22,5.22,0,0,0-2.3.34A1.52,1.52,0,0,0,132.8,96.92Z"/><path class="cls-1" d="M154.5,89.79v9.5a14.76,14.76,0,0,1-.25,3.07,3.36,3.36,0,0,1-.95,1.78,3.5,3.5,0,0,1-1.59.84,11.67,11.67,0,0,1-2.5.21,12.74,12.74,0,0,1-2.51-.2,3.49,3.49,0,0,1-1.62-.83,3.28,3.28,0,0,1-.94-1.8,15.48,15.48,0,0,1-.25-3.07,15,15,0,0,1,.26-3.1,3.35,3.35,0,0,1,2.55-2.77,12.71,12.71,0,0,1,2.77-.23,7.26,7.26,0,0,1,2.88.47V89.79q0-.87,1.08-.87C154.14,88.92,154.5,89.21,154.5,89.79Zm-8.2,6.76a6.18,6.18,0,0,0-.26,2.14c0,1,0,1.84.09,2.44a2.89,2.89,0,0,0,.6,1.58,1.89,1.89,0,0,0,1.41.49l1.07,0c1.41,0,2.23-.17,2.48-.51a3.15,3.15,0,0,0,.62-1.59,17.74,17.74,0,0,0,.08-1.81c0-1.87-.17-3-.52-3.39a1.93,1.93,0,0,0-2.1-.76c-.86,0-1.41,0-1.64,0-.74,0-1.2.21-1.4.49A6.59,6.59,0,0,0,146.3,96.55Z"/><path class="cls-1" d="M161.55,103.21h2.23a2.81,2.81,0,0,0,.75-.13,1.34,1.34,0,0,0,.61-.37,1.43,1.43,0,0,0,.26-1c0-.48,0-1,0-1.54v-6q0-.84,1.08-.84c.71,0,1.07.28,1.07.84v6.27a14.22,14.22,0,0,1-.18,2.59,2.28,2.28,0,0,1-.84,1.39,3.07,3.07,0,0,1-1.45.6,18.48,18.48,0,0,1-2.45.12,18.28,18.28,0,0,1-2.45-.12,3.07,3.07,0,0,1-1.45-.6,2.21,2.21,0,0,1-.82-1.39,13.89,13.89,0,0,1-.2-2.59V94.22q0-.84,1.08-.84t1.08.84v6a5.08,5.08,0,0,0,.38,2.61,1.31,1.31,0,0,0,.51.26A2.81,2.81,0,0,0,161.55,103.21Z"/><path class="cls-1" d="M178.2,101.47v-.27a.89.89,0,0,0-.56-.83,5,5,0,0,0-2-.26,11.62,11.62,0,0,1-3.09-.43,2.52,2.52,0,0,1-1.41-1,3,3,0,0,1-.56-1.92v-.2a2.84,2.84,0,0,1,1.2-2.7,7.54,7.54,0,0,1,3.68-.7,15.43,15.43,0,0,1,3.66.32,1,1,0,0,1,.74,1.08c0,.59-.25.89-.74.89a12.51,12.51,0,0,1-1.51-.16,16.58,16.58,0,0,0-2.4-.16,6.12,6.12,0,0,0-1.88.21c-.4.14-.6.54-.6,1.18v.23c0,.85.89,1.3,2.68,1.36.74,0,1.48.09,2.23.18a3.38,3.38,0,0,1,1.9.84,2.47,2.47,0,0,1,.78,2v.29a3.23,3.23,0,0,1-1.22,2.94,7.55,7.55,0,0,1-3.93.78,16.79,16.79,0,0,1-3.88-.31,1,1,0,0,1-.74-1.08c0-.59.25-.89.74-.89a15.77,15.77,0,0,1,1.7.16,21.06,21.06,0,0,0,2.46.15,5.11,5.11,0,0,0,2-.32A1.39,1.39,0,0,0,178.2,101.47Z"/><path class="cls-1" d="M192.27,102.94c.5,0,.74.29.74.89a1,1,0,0,1-.74,1.08,19.2,19.2,0,0,1-3.9.28,6.64,6.64,0,0,1-3.92-.89,3.54,3.54,0,0,1-1.2-3v-4.4a3.42,3.42,0,0,1,1.08-3,7.45,7.45,0,0,1,4-.76,7.54,7.54,0,0,1,4,.72c.69.49,1,1.49,1,3v1.9a1.33,1.33,0,0,1-.32.92,1,1,0,0,1-.81.32h-6.81v1.41c0,1.18,1,1.77,3.08,1.76a18.17,18.17,0,0,0,2.34-.14A11.28,11.28,0,0,1,192.27,102.94Zm-6.86-6v1.24h5.79V96.92a1.53,1.53,0,0,0-.59-1.4,4.93,4.93,0,0,0-2.29-.36,5.17,5.17,0,0,0-2.29.34A1.48,1.48,0,0,0,185.41,96.92Z"/><path class="cls-1" d="M198.74,98.18v6c0,.56-.36.84-1.07.84s-1.08-.28-1.08-.84V97.9a7.39,7.39,0,0,1,.38-3,4,4,0,0,1,.71-1c.51-.47,1.8-.7,3.86-.7a6.7,6.7,0,0,1,2.09.21.76.76,0,0,1,.53.76,1.1,1.1,0,0,1-.3.83,1,1,0,0,1-.73.27l-1.59-.1a6.93,6.93,0,0,0-1.84.14,1.66,1.66,0,0,0-.54.27,2.13,2.13,0,0,0-.25.54,2.66,2.66,0,0,0-.16.84C198.75,97.24,198.74,97.65,198.74,98.18Z"/><path class="cls-1" d="M214.91,102.94c.5,0,.74.29.74.89a1,1,0,0,1-.74,1.08,19.2,19.2,0,0,1-3.9.28,6.66,6.66,0,0,1-3.92-.89,3.54,3.54,0,0,1-1.2-3v-4.4A3.42,3.42,0,0,1,207,94a7.45,7.45,0,0,1,4-.76,7.54,7.54,0,0,1,4,.72c.69.49,1,1.49,1,3v1.9a1.33,1.33,0,0,1-.32.92,1,1,0,0,1-.81.32h-6.81v1.41c0,1.18,1,1.77,3.08,1.76a18.06,18.06,0,0,0,2.34-.14A11.28,11.28,0,0,1,214.91,102.94Zm-6.86-6v1.24h5.79V96.92a1.53,1.53,0,0,0-.59-1.4,4.93,4.93,0,0,0-2.29-.36,5.17,5.17,0,0,0-2.29.34A1.48,1.48,0,0,0,208.05,96.92Z"/><path class="cls-1" d="M29.51,133.8H23.65c-.49,0-.74-.32-.74-1s.25-.95.74-.95H25.5V120.1H23.65c-.49,0-.74-.32-.74-.95s.25-1,.74-1h5.86c.49,0,.74.32.74,1s-.25.95-.74.95H27.66v11.8h1.85c.49,0,.74.32.74.95S30,133.8,29.51,133.8Z"/><path class="cls-1" d="M37.46,133V120.17H32.63c-.49,0-.74-.33-.74-1s.25-1,.74-1H44.44c.49,0,.74.33.74,1s-.25,1-.74,1H39.61V133c0,.56-.36.84-1.07.84S37.46,133.52,37.46,133Z"/><path class="cls-1" d="M51.46,127.57H44.71c-.49,0-.74-.33-.74-1s.25-1,.74-1h6.75c.49,0,.74.32.74,1S52,127.57,51.46,127.57Z"/><path class="cls-1" d="M55.6,124.27c-.5,0-.75-.29-.75-.89a1,1,0,0,1,.75-1.08,16.84,16.84,0,0,1,3.89-.31c1.81,0,3,.29,3.68.86a3.92,3.92,0,0,1,1,3v4.63q0,2.16-1,2.82a8.44,8.44,0,0,1-4,.66,8.14,8.14,0,0,1-4-.66c-.68-.44-1-1.37-1-2.81a4.38,4.38,0,0,1,.77-3c.53-.54,1.6-.81,3.21-.8h4V125.5a1.3,1.3,0,0,0-.55-1.21,4,4,0,0,0-2-.33,15.7,15.7,0,0,0-2.45.16A8.78,8.78,0,0,1,55.6,124.27ZM62,130.68v-2H58.65a4.21,4.21,0,0,0-2,.31c-.3.2-.46.66-.46,1.38s.19,1.19.58,1.4a6,6,0,0,0,2.29.29,6.83,6.83,0,0,0,2.31-.26A1,1,0,0,0,62,130.68Z"/><path class="cls-1" d="M70,124.37a4.79,4.79,0,0,0-.4,2.59v6c0,.57-.35.85-1.07.85s-1.08-.28-1.08-.84V126.7a12.32,12.32,0,0,1,.21-2.58,2.26,2.26,0,0,1,.84-1.41,3.07,3.07,0,0,1,1.48-.59,22.25,22.25,0,0,1,2.66-.13c2,0,3.29.24,3.82.74a3.17,3.17,0,0,1,.94,2.1c0,.51.08,1.13.08,1.87V133q0,.84-1.08.84c-.72,0-1.08-.28-1.08-.85v-6c0-1.44-.13-2.3-.41-2.58s-1.09-.42-2.46-.42S70.28,124.09,70,124.37Z"/><path class="cls-1" d="M89.28,120.85c0-.51.36-.76,1.08-.76s1.07.26,1.07.79V126c0,1.51-.38,2.5-1.13,3a7.4,7.4,0,0,1-3.78.72,17.4,17.4,0,0,1-3.52-.22v1.85h4.37c1.64,0,2.75.28,3.34.85a4,4,0,0,1,.86,2.88,3,3,0,0,1-1.17,2.77,8.2,8.2,0,0,1-4.15.75,9.09,9.09,0,0,1-4.19-.68c-.81-.44-1.21-1.37-1.22-2.77v-9.44A4,4,0,0,1,81.5,123,3.67,3.67,0,0,1,84,122.1a20.38,20.38,0,0,1,5.24.25ZM83,125.91c0,.87.16,1.39.48,1.57a5.85,5.85,0,0,0,2.31.27,10.34,10.34,0,0,0,2.49-.19,1.17,1.17,0,0,0,.83-.58,3.64,3.64,0,0,0,.17-1.3v-1.43a25.29,25.29,0,0,0-3.43-.25,4.82,4.82,0,0,0-2.21.36,1.52,1.52,0,0,0-.64,1.46Zm0,7.27v2a1.15,1.15,0,0,0,.77,1.14,6.81,6.81,0,0,0,2.54.34,5.2,5.2,0,0,0,2.36-.36,1.45,1.45,0,0,0,.61-1.36,1.53,1.53,0,0,0-.58-1.38,4.36,4.36,0,0,0-2.12-.36Z"/><path class="cls-1" d="M96.45,127v6c0,.56-.36.84-1.07.84s-1.08-.28-1.09-.84V126.7a7.33,7.33,0,0,1,.39-3,3.75,3.75,0,0,1,.71-1c.51-.47,1.8-.7,3.86-.7a6.74,6.74,0,0,1,2.09.21.75.75,0,0,1,.52.76,1.09,1.09,0,0,1-.29.83,1,1,0,0,1-.74.27l-1.58-.1a6.93,6.93,0,0,0-1.84.14,1.47,1.47,0,0,0-.54.27,2.07,2.07,0,0,0-.26.54,3,3,0,0,0-.15.84C96.45,126,96.45,126.45,96.45,127Z"/><path class="cls-1" d="M112.62,131.74c.49,0,.74.29.74.89a1,1,0,0,1-.74,1.08,19.2,19.2,0,0,1-3.9.28,6.7,6.7,0,0,1-3.93-.89,3.54,3.54,0,0,1-1.19-3v-4.4a3.42,3.42,0,0,1,1.08-3c.71-.51,2-.76,4-.76a7.54,7.54,0,0,1,4,.72c.69.49,1,1.49,1,3v1.9a1.33,1.33,0,0,1-.32.92,1,1,0,0,1-.81.32h-6.82v1.41c0,1.18,1,1.77,3.09,1.76a18.17,18.17,0,0,0,2.34-.14A11.28,11.28,0,0,1,112.62,131.74Zm-6.87-6V127h5.79v-1.24a1.53,1.53,0,0,0-.58-1.4,4.93,4.93,0,0,0-2.29-.36,5.17,5.17,0,0,0-2.29.34A1.51,1.51,0,0,0,105.75,125.72Z"/><path class="cls-1" d="M116.93,137.64v-9.75a14,14,0,0,1,.27-3.07,3.47,3.47,0,0,1,1-1.78,3.4,3.4,0,0,1,1.59-.84,11.67,11.67,0,0,1,2.5-.21,11.91,11.91,0,0,1,2.51.21,3.57,3.57,0,0,1,1.63.83,3.28,3.28,0,0,1,.94,1.79,15.64,15.64,0,0,1,.24,3.08,15.08,15.08,0,0,1-.26,3.11,3.35,3.35,0,0,1-2.55,2.76A13.52,13.52,0,0,1,122,134a7.31,7.31,0,0,1-2.89-.47v4.13c0,.56-.36.84-1.07.84S116.94,138.21,116.93,137.64Zm8.22-7a6.17,6.17,0,0,0,.26-2.15c0-1,0-1.85-.09-2.45a3.12,3.12,0,0,0-.59-1.6c-.26-.33-1.09-.5-2.49-.5s-2.24.17-2.49.5a3,3,0,0,0-.62,1.62,17.83,17.83,0,0,0-.09,1.81q0,.95.06,1.56c0,.42.09.78.14,1.09a2.09,2.09,0,0,0,.74,1.18,1.57,1.57,0,0,0,1,.3l1.34,0,1,0a5.49,5.49,0,0,0,.78-.13,1,1,0,0,0,.63-.37A7.76,7.76,0,0,0,125.15,130.66Z"/><path class="cls-1" d="M140.85,133.92a1.84,1.84,0,0,1-1.15-.39,2.23,2.23,0,0,1-.72-1l-3.4-9.15c-.05-.25-.08-.38-.08-.39,0-.56.34-.84,1-.83a1,1,0,0,1,1.05.62l3.21,9h.12l3.22-9c.16-.42.55-.62,1.16-.62s.93.27.93.83c0,0,0,.14-.07.39l-3.41,9.15a2,2,0,0,1-.73,1A1.93,1.93,0,0,1,140.85,133.92Z"/><path class="cls-1" d="M157.55,131.74c.49,0,.74.29.74.89a1,1,0,0,1-.74,1.08,19.2,19.2,0,0,1-3.9.28,6.7,6.7,0,0,1-3.93-.89,3.54,3.54,0,0,1-1.19-3v-4.4a3.42,3.42,0,0,1,1.08-3c.71-.51,2-.76,4-.76a7.54,7.54,0,0,1,4,.72c.69.49,1,1.49,1,3v1.9a1.33,1.33,0,0,1-.32.92,1,1,0,0,1-.81.32h-6.82v1.41c0,1.18,1,1.77,3.09,1.76a18.17,18.17,0,0,0,2.34-.14A11.28,11.28,0,0,1,157.55,131.74Zm-6.87-6V127h5.79v-1.24a1.53,1.53,0,0,0-.58-1.4,4.93,4.93,0,0,0-2.29-.36,5.25,5.25,0,0,0-2.3.34A1.52,1.52,0,0,0,150.68,125.72Z"/><path class="cls-1" d="M172.39,118.59v9.5a14.65,14.65,0,0,1-.26,3.07,3.29,3.29,0,0,1-.95,1.78,3.4,3.4,0,0,1-1.59.84,11.63,11.63,0,0,1-2.49.21,12.67,12.67,0,0,1-2.51-.2A3.4,3.4,0,0,1,163,133a3.23,3.23,0,0,1-.95-1.8,16.28,16.28,0,0,1-.25-3.07A14.28,14.28,0,0,1,162,125a3.32,3.32,0,0,1,2.55-2.77,12.61,12.61,0,0,1,2.76-.23,7.26,7.26,0,0,1,2.88.47v-3.87q0-.87,1.08-.87T172.39,118.59Zm-8.21,6.76a6.24,6.24,0,0,0-.25,2.14c0,1,0,1.84.08,2.44a2.82,2.82,0,0,0,.61,1.58,1.86,1.86,0,0,0,1.4.49l1.08,0c1.4,0,2.23-.17,2.48-.51a3.25,3.25,0,0,0,.62-1.59c.05-.58.08-1.19.08-1.81,0-1.87-.18-3-.53-3.39a2.45,2.45,0,0,0-.41-.43,2.85,2.85,0,0,0-1.68-.33c-.87,0-1.42,0-1.65,0-.74,0-1.2.21-1.39.49A5.39,5.39,0,0,0,164.18,125.35Z"/><path class="cls-1" d="M181.39,128.09v-9.5c0-.58.37-.87,1.08-.87s1.07.29,1.07.87v3.87a7.34,7.34,0,0,1,2.89-.47,12.82,12.82,0,0,1,2.78.23,3.44,3.44,0,0,1,1.62.91,3.86,3.86,0,0,1,.93,1.85,15.15,15.15,0,0,1,.26,3.11,15.56,15.56,0,0,1-.25,3.09,3.16,3.16,0,0,1-.94,1.77,3.69,3.69,0,0,1-1.62.83,12,12,0,0,1-2.52.21,12.49,12.49,0,0,1-2.5-.2,3.3,3.3,0,0,1-1.59-.83,3.41,3.41,0,0,1-.94-1.8A13.91,13.91,0,0,1,181.39,128.09Zm8.47.49c0-1,0-1.85-.08-2.46a3.36,3.36,0,0,0-.6-1.64c-.24-.35-1.07-.52-2.49-.52a4.41,4.41,0,0,0-2.25.33,1.86,1.86,0,0,0-.72,1.07,12.63,12.63,0,0,0-.22,2.41c0,.85,0,1.57.08,2.17a2.92,2.92,0,0,0,.62,1.59c.2.28.68.44,1.42.49l1.07,0,1.07,0a5.72,5.72,0,0,0,.8-.13,1.06,1.06,0,0,0,.62-.35,4.67,4.67,0,0,0,.42-.83A6,6,0,0,0,189.86,128.58Z"/><path class="cls-1" d="M197.31,127v6c0,.56-.35.84-1.07.84s-1.08-.28-1.08-.84V126.7a7.39,7.39,0,0,1,.38-3,4,4,0,0,1,.71-1c.51-.47,1.8-.7,3.86-.7a6.7,6.7,0,0,1,2.09.21.75.75,0,0,1,.53.76,1.1,1.1,0,0,1-.3.83,1,1,0,0,1-.73.27l-1.59-.1a6.93,6.93,0,0,0-1.84.14,1.66,1.66,0,0,0-.54.27,2.13,2.13,0,0,0-.25.54,2.66,2.66,0,0,0-.16.84C197.32,126,197.31,126.45,197.31,127Z"/><path class="cls-1" d="M208.36,132h2.23a2.81,2.81,0,0,0,.75-.13,1.39,1.39,0,0,0,.61-.37,1.49,1.49,0,0,0,.26-1c0-.48,0-1,0-1.54v-6c0-.56.36-.85,1.08-.85s1.08.29,1.08.85v6.27a13.22,13.22,0,0,1-.19,2.59,2.27,2.27,0,0,1-.83,1.39,3.11,3.11,0,0,1-1.46.6,25.07,25.07,0,0,1-4.9,0,3.07,3.07,0,0,1-1.45-.6,2.26,2.26,0,0,1-.82-1.39,14.82,14.82,0,0,1-.2-2.59V123c0-.56.37-.85,1.09-.85s1.07.29,1.07.85v6a4.93,4.93,0,0,0,.39,2.61,1.18,1.18,0,0,0,.5.26A2.82,2.82,0,0,0,208.36,132Z"/><path class="cls-1" d="M219.88,118.59v9.26l5.37-5.43a1.11,1.11,0,0,1,.8-.36,1.05,1.05,0,0,1,.75.3.93.93,0,0,1,.3.71,1.09,1.09,0,0,1-.39.79l-3.09,2.89,3.82,5.33a1.19,1.19,0,0,1,.24.71,1,1,0,0,1-.34.71,1.18,1.18,0,0,1-.8.32.8.8,0,0,1-.7-.38l-3.75-5.25-2.21,2V133c0,.56-.35.84-1.07.84s-1.08-.28-1.08-.84V118.59c0-.58.37-.87,1.08-.87S219.88,118,219.88,118.59Z"/><path class="cls-1" d="M24.92,153.07c-.5,0-.75-.29-.75-.89a1,1,0,0,1,.75-1.08,16.84,16.84,0,0,1,3.89-.31c1.81,0,3,.29,3.68.86a3.92,3.92,0,0,1,1,3v4.63q0,2.16-1.05,2.82a8.44,8.44,0,0,1-4,.66,8.14,8.14,0,0,1-4-.66c-.68-.44-1-1.37-1-2.81a4.33,4.33,0,0,1,.77-3c.53-.55,1.6-.82,3.21-.82h4V154.3a1.3,1.3,0,0,0-.55-1.21,4,4,0,0,0-1.95-.33,15.79,15.79,0,0,0-2.45.16A8.78,8.78,0,0,1,24.92,153.07Zm6.38,6.41v-2H28a4.09,4.09,0,0,0-2,.31c-.3.2-.46.66-.46,1.38s.19,1.19.58,1.4a6,6,0,0,0,2.29.29,6.94,6.94,0,0,0,2.32-.26A1.05,1.05,0,0,0,31.3,159.48Z"/><path class="cls-1" d="M41.17,162.72a1.84,1.84,0,0,1-1.15-.39,2.23,2.23,0,0,1-.72-1l-3.4-9.15c0-.25-.08-.38-.08-.39,0-.56.34-.84,1-.83a1,1,0,0,1,1,.62l3.22,9h.11l3.22-9c.16-.42.55-.62,1.17-.62s.92.27.92.83c0,0,0,.14-.07.39l-3.41,9.15a2,2,0,0,1-.73,1A1.93,1.93,0,0,1,41.17,162.72Z"/><path class="cls-1" d="M62.85,156.74A2.18,2.18,0,0,1,61,155.38L57.7,149.3h-.12v12.43q0,.87-1.08.87t-1.08-.87V149.06a2.08,2.08,0,0,1,.6-1.62,1.94,1.94,0,0,1,1.35-.56,2.28,2.28,0,0,1,2.15,1.36l3.27,6.16h.12l3.25-6.16a2.27,2.27,0,0,1,2.17-1.36,1.92,1.92,0,0,1,1.33.56,2.12,2.12,0,0,1,.61,1.62v12.67q0,.87-1.08.87t-1.08-.87V149.3H68l-3.27,6.08A2.17,2.17,0,0,1,62.85,156.74Z"/><path class="cls-1" d="M74.45,148.2a1.14,1.14,0,0,1,.35-.83,1.18,1.18,0,0,1,.83-.37,1.1,1.1,0,0,1,.83.37,1.25,1.25,0,0,1,.34.84,1.17,1.17,0,0,1-2,.82A1.19,1.19,0,0,1,74.45,148.2Zm2.25,3.62v9.94c0,.56-.36.84-1.07.84s-1.08-.28-1.08-.84v-9.94c0-.56.36-.85,1.08-.85S76.7,151.26,76.7,151.82Z"/><path class="cls-1" d="M88.69,153.07a5.33,5.33,0,0,1-1.19-.15,12.08,12.08,0,0,0-2.29-.16,5,5,0,0,0-2.19.36,1.48,1.48,0,0,0-.72,1.44v4.49q0,1.78,3.09,1.77a12,12,0,0,0,2.11-.15,6.39,6.39,0,0,1,1.19-.16c.5,0,.75.3.75.89a1,1,0,0,1-.75,1.08,15.47,15.47,0,0,1-3.67.31,6.17,6.17,0,0,1-3.68-.89,3.54,3.54,0,0,1-1.19-3v-4.4a3.35,3.35,0,0,1,1.12-2.95,6.72,6.72,0,0,1,3.69-.77,13.29,13.29,0,0,1,3.73.38.94.94,0,0,1,.75,1C89.44,152.79,89.19,153.07,88.69,153.07Z"/><path class="cls-1" d="M94.22,155.78v6c0,.56-.35.84-1.07.84s-1.08-.28-1.08-.84V155.5a7.39,7.39,0,0,1,.38-3,4,4,0,0,1,.71-1c.51-.47,1.8-.7,3.86-.7a6.7,6.7,0,0,1,2.09.21.75.75,0,0,1,.53.76,1.1,1.1,0,0,1-.3.83,1,1,0,0,1-.73.27l-1.59-.1a6.93,6.93,0,0,0-1.84.14,1.66,1.66,0,0,0-.54.27,2,2,0,0,0-.25.54,2.66,2.66,0,0,0-.16.84C94.23,154.84,94.22,155.25,94.22,155.78Z"/><path class="cls-1" d="M100.66,156.89a15,15,0,0,1,.26-3.1,3.35,3.35,0,0,1,2.55-2.77,13.81,13.81,0,0,1,5,0,3.44,3.44,0,0,1,1.62.91,3.75,3.75,0,0,1,1,1.85,15,15,0,0,1,.26,3.1,14.87,14.87,0,0,1-.26,3.09,3.27,3.27,0,0,1-1,1.78,3.6,3.6,0,0,1-1.61.83,11.84,11.84,0,0,1-2.51.21,12.74,12.74,0,0,1-2.51-.2,3.49,3.49,0,0,1-1.62-.83,3.28,3.28,0,0,1-.94-1.8A14.76,14.76,0,0,1,100.66,156.89Zm2.41-2.74a6.18,6.18,0,0,0-.26,2.14c0,1,0,1.84.08,2.44a3,3,0,0,0,.61,1.58,1.85,1.85,0,0,0,1.41.48c.23,0,.59,0,1.07,0,1.41,0,2.23-.17,2.48-.51a3.15,3.15,0,0,0,.62-1.59,17.74,17.74,0,0,0,.08-1.81c0-1.87-.17-3-.52-3.39a1.93,1.93,0,0,0-2.1-.76c-.86,0-1.41,0-1.65,0-.73.05-1.19.21-1.39.49A6.59,6.59,0,0,0,103.07,154.15Z"/><path class="cls-1" d="M121.68,159.07v-.27a.89.89,0,0,0-.56-.83,5,5,0,0,0-2-.26,11.62,11.62,0,0,1-3.09-.43,2.55,2.55,0,0,1-1.41-.95,3.1,3.1,0,0,1-.56-1.92v-.2a2.84,2.84,0,0,1,1.2-2.7,7.54,7.54,0,0,1,3.68-.7,15.43,15.43,0,0,1,3.66.32,1,1,0,0,1,.74,1.08c0,.59-.25.89-.74.89a15.11,15.11,0,0,1-1.51-.16,16.58,16.58,0,0,0-2.4-.16,6.16,6.16,0,0,0-1.88.21c-.4.14-.6.54-.6,1.18v.23c0,.85.89,1.3,2.68,1.36.74,0,1.48.09,2.23.18a3.38,3.38,0,0,1,1.9.84,2.47,2.47,0,0,1,.78,2v.29a3.23,3.23,0,0,1-1.22,2.94,7.55,7.55,0,0,1-3.93.78,16.79,16.79,0,0,1-3.88-.31,1,1,0,0,1-.74-1.08c0-.59.25-.89.74-.89a15.77,15.77,0,0,1,1.7.16,21.06,21.06,0,0,0,2.46.15,5.11,5.11,0,0,0,2-.32A1.39,1.39,0,0,0,121.68,159.07Z"/><path class="cls-1" d="M126.73,156.89a14.28,14.28,0,0,1,.27-3.1,3.32,3.32,0,0,1,2.55-2.77,13.76,13.76,0,0,1,5,0,3.52,3.52,0,0,1,1.63.91,3.74,3.74,0,0,1,.94,1.85,14.37,14.37,0,0,1,.26,3.1,14.21,14.21,0,0,1-.26,3.09,3.27,3.27,0,0,1-1,1.78,3.55,3.55,0,0,1-1.61.83,11.8,11.8,0,0,1-2.5.21,12.67,12.67,0,0,1-2.51-.2,3.4,3.4,0,0,1-1.62-.83,3.29,3.29,0,0,1-1-1.8A15.48,15.48,0,0,1,126.73,156.89Zm2.41-2.74a6.24,6.24,0,0,0-.25,2.14c0,1,0,1.84.08,2.44a2.9,2.9,0,0,0,.61,1.58,1.83,1.83,0,0,0,1.4.48q.35,0,1.08,0c1.4,0,2.23-.17,2.48-.51a3.25,3.25,0,0,0,.62-1.59c.05-.58.08-1.19.08-1.81,0-1.87-.18-3-.53-3.39a2.45,2.45,0,0,0-.41-.43,2.85,2.85,0,0,0-1.68-.33c-.87,0-1.42,0-1.65,0-.73.05-1.2.21-1.39.49A6.36,6.36,0,0,0,129.14,154.15Z"/><path class="cls-1" d="M143.75,150.87V151h3c.5,0,.74.31.74.95s-.24.94-.74.94h-3v8.88q0,.84-1.08.84t-1.08-.84v-8.88H140c-.49,0-.74-.31-.74-.94s.25-.95.74-.95h1.55v-.41q0-2.47.84-3.27a4.68,4.68,0,0,1,3.17-.79,6.62,6.62,0,0,1,2.08.21.74.74,0,0,1,.53.74,1,1,0,0,1-.29.81,1.05,1.05,0,0,1-.74.28l-1.58-.07c-.78,0-1.29.13-1.51.4A3.55,3.55,0,0,0,143.75,150.87Z"/><path class="cls-1" d="M153.46,162.6a3,3,0,0,1-2.28-.7,3.55,3.55,0,0,1-.65-2.41v-6.61H149c-.49,0-.73-.31-.73-.94s.24-.95.73-.95h1.51v-3.06c0-.55.36-.83,1.08-.83s1.08.28,1.08.83V151h3.05c.49,0,.73.31.73.95s-.24.94-.73.94h-3.05v6.77c0,.65.39,1,1.17,1l2-.12q.75,0,.75.87a1.12,1.12,0,0,1-.77,1.15C155.36,162.58,154.56,162.6,153.46,162.6Z"/><path class="cls-1" d="M166.12,159.07v-.27a.88.88,0,0,0-.57-.83,5,5,0,0,0-2-.26,11.75,11.75,0,0,1-3.1-.43,2.53,2.53,0,0,1-1.4-.95,3,3,0,0,1-.56-1.92v-.2a2.84,2.84,0,0,1,1.2-2.7,7.52,7.52,0,0,1,3.68-.7,15.43,15.43,0,0,1,3.66.32,1,1,0,0,1,.74,1.08c0,.59-.25.89-.74.89a15.11,15.11,0,0,1-1.51-.16,16.62,16.62,0,0,0-2.41-.16,6.09,6.09,0,0,0-1.87.21c-.4.14-.6.54-.6,1.18v.23c0,.85.89,1.3,2.67,1.36.75,0,1.49.09,2.24.18a3.41,3.41,0,0,1,1.9.84,2.47,2.47,0,0,1,.77,2v.29a3.21,3.21,0,0,1-1.22,2.94,7.51,7.51,0,0,1-3.92.78,16.74,16.74,0,0,1-3.88-.31,1,1,0,0,1-.74-1.08c0-.59.25-.89.74-.89a15.77,15.77,0,0,1,1.7.16,20.81,20.81,0,0,0,2.46.15,5.14,5.14,0,0,0,2-.32A1.39,1.39,0,0,0,166.12,159.07Z"/><path class="cls-1" d="M181,162.6a3,3,0,0,1-2.29-.7,3.55,3.55,0,0,1-.64-2.41v-6.61h-1.52c-.48,0-.72-.31-.72-.94s.24-.95.72-.95h1.52v-3.06c0-.55.35-.83,1.07-.83s1.08.28,1.08.83V151h3.06c.48,0,.73.31.73.95s-.25.94-.73.94h-3.06v6.77c0,.65.39,1,1.17,1l2-.12q.75,0,.75.87a1.12,1.12,0,0,1-.77,1.15C182.93,162.58,182.13,162.6,181,162.6Z"/><path class="cls-1" d="M195.37,160.54c.49,0,.74.29.74.89a1,1,0,0,1-.74,1.08,19.39,19.39,0,0,1-3.91.28,6.68,6.68,0,0,1-3.92-.89,3.54,3.54,0,0,1-1.2-3v-4.4c0-1.47.36-2.45,1.08-3a7.45,7.45,0,0,1,4-.76,7.59,7.59,0,0,1,4,.72c.68.49,1,1.49,1,3v1.9a1.38,1.38,0,0,1-.32.92,1.1,1.1,0,0,1-.81.32H188.5v1.41c0,1.18,1,1.77,3.08,1.76a18.22,18.22,0,0,0,2.35-.14A11,11,0,0,1,195.37,160.54Zm-6.87-6v1.24h5.79v-1.24a1.53,1.53,0,0,0-.59-1.4,4.91,4.91,0,0,0-2.28-.36,5.22,5.22,0,0,0-2.3.34A1.5,1.5,0,0,0,188.5,154.52Z"/><path class="cls-1" d="M201.81,147.39v9.26l5.37-5.43a1.11,1.11,0,0,1,.8-.36,1.05,1.05,0,0,1,.75.3.93.93,0,0,1,.3.71,1.09,1.09,0,0,1-.39.79l-3.09,2.88,3.82,5.34a1.19,1.19,0,0,1,.24.71.94.94,0,0,1-.34.7,1.15,1.15,0,0,1-.8.33.8.8,0,0,1-.7-.38L204,157l-2.21,2v2.73c0,.56-.35.84-1.07.84s-1.08-.28-1.08-.84V147.39c0-.58.37-.87,1.08-.87S201.81,146.81,201.81,147.39Z"/><path class="cls-1" d="M214.08,153.17a4.79,4.79,0,0,0-.4,2.59v6c0,.57-.35.85-1.07.85s-1.07-.28-1.08-.84V155.5a12.32,12.32,0,0,1,.21-2.58,2.26,2.26,0,0,1,.84-1.41,3.07,3.07,0,0,1,1.48-.59,20.28,20.28,0,0,1,2.66-.13c2,0,3.29.24,3.82.74a3.17,3.17,0,0,1,.94,2.1c.05.51.08,1.13.08,1.87v6.26q0,.84-1.08.84c-.72,0-1.08-.28-1.08-.85v-6c0-1.44-.13-2.3-.41-2.58s-1.09-.42-2.46-.42S214.35,152.89,214.08,153.17Z"/><path class="cls-1" d="M224.82,156.89a15,15,0,0,1,.26-3.1,3.35,3.35,0,0,1,2.55-2.77,13.81,13.81,0,0,1,5,0,3.44,3.44,0,0,1,1.62.91,3.75,3.75,0,0,1,.95,1.85,15,15,0,0,1,.26,3.1,14.87,14.87,0,0,1-.26,3.09,3.27,3.27,0,0,1-1,1.78,3.6,3.6,0,0,1-1.61.83,11.84,11.84,0,0,1-2.51.21,12.74,12.74,0,0,1-2.51-.2,3.49,3.49,0,0,1-1.62-.83,3.28,3.28,0,0,1-.94-1.8A14.76,14.76,0,0,1,224.82,156.89Zm2.41-2.74a6.18,6.18,0,0,0-.26,2.14c0,1,0,1.84.08,2.44a3,3,0,0,0,.61,1.58,1.85,1.85,0,0,0,1.41.48c.23,0,.59,0,1.07,0,1.41,0,2.23-.17,2.48-.51a3.15,3.15,0,0,0,.62-1.59,17.74,17.74,0,0,0,.08-1.81c0-1.87-.17-3-.52-3.39a1.93,1.93,0,0,0-2.1-.76c-.86,0-1.41,0-1.65,0-.73.05-1.19.21-1.39.49A6.59,6.59,0,0,0,227.23,154.15Z"/><path class="cls-1" d="M240.94,147.39v14.37q0,.84-1.08.84c-.72,0-1.07-.28-1.07-.84V147.39c0-.58.35-.87,1.07-.87S240.94,146.81,240.94,147.39Z"/><path class="cls-1" d="M244.39,156.89a15,15,0,0,1,.26-3.1A3.35,3.35,0,0,1,247.2,151a13.81,13.81,0,0,1,5,0,3.44,3.44,0,0,1,1.62.91,3.75,3.75,0,0,1,.95,1.85,15,15,0,0,1,.26,3.1,14.87,14.87,0,0,1-.26,3.09,3.27,3.27,0,0,1-1,1.78,3.6,3.6,0,0,1-1.61.83,11.84,11.84,0,0,1-2.51.21,12.74,12.74,0,0,1-2.51-.2,3.49,3.49,0,0,1-1.62-.83,3.28,3.28,0,0,1-.94-1.8A14.76,14.76,0,0,1,244.39,156.89Zm2.41-2.74a6.18,6.18,0,0,0-.26,2.14c0,1,0,1.84.09,2.44a2.89,2.89,0,0,0,.6,1.58,1.85,1.85,0,0,0,1.41.48c.23,0,.59,0,1.07,0,1.41,0,2.23-.17,2.48-.51a3.15,3.15,0,0,0,.62-1.59,17.74,17.74,0,0,0,.08-1.81c0-1.87-.17-3-.52-3.39a1.93,1.93,0,0,0-2.1-.76c-.86,0-1.41,0-1.64,0-.74.05-1.2.21-1.4.49A6.59,6.59,0,0,0,246.8,154.15Z"/><path class="cls-1" d="M266.59,149.65c0-.51.36-.76,1.08-.76s1.08.26,1.08.79v5.08q0,2.27-1.14,3a7.35,7.35,0,0,1-3.78.72,17.54,17.54,0,0,1-3.52-.22v1.85h4.38c1.64,0,2.75.28,3.33.85a4,4,0,0,1,.87,2.88,3,3,0,0,1-1.17,2.77,8.25,8.25,0,0,1-4.16.75,9.07,9.07,0,0,1-4.18-.68c-.81-.44-1.22-1.37-1.22-2.77v-9.44a4,4,0,0,1,.66-2.62,3.65,3.65,0,0,1,2.54-.92,20.31,20.31,0,0,1,5.23.25Zm-6.28,5.06c0,.87.17,1.39.48,1.57a5.92,5.92,0,0,0,2.32.27,10.34,10.34,0,0,0,2.49-.19,1.19,1.19,0,0,0,.83-.58,3.69,3.69,0,0,0,.16-1.3v-1.43a25,25,0,0,0-3.42-.25,4.79,4.79,0,0,0-2.21.36,1.53,1.53,0,0,0-.65,1.46Zm0,7.27v2a1.16,1.16,0,0,0,.77,1.14,6.84,6.84,0,0,0,2.54.34,5.25,5.25,0,0,0,2.37-.36,1.45,1.45,0,0,0,.6-1.36,1.51,1.51,0,0,0-.58-1.38,4.32,4.32,0,0,0-2.11-.36Z"/><path class="cls-1" d="M271.71,148.2a1.11,1.11,0,0,1,.36-.83,1.14,1.14,0,0,1,.82-.37,1.1,1.1,0,0,1,.83.37,1.2,1.2,0,0,1,.34.84,1.2,1.2,0,0,1-1.17,1.17,1.18,1.18,0,0,1-1.18-1.18Zm2.25,3.62v9.94c0,.56-.35.84-1.07.84s-1.08-.28-1.08-.84v-9.94c0-.56.36-.85,1.08-.85S274,151.26,274,151.82Z"/><path class="cls-1" d="M283.48,158.16v.22c0,.59-.36.89-1.07.89s-1.08-.3-1.09-.89v-.25a5.23,5.23,0,0,1,.34-1.95,2.88,2.88,0,0,1,.83-1.21,11.88,11.88,0,0,1,2.19-1.35,1.9,1.9,0,0,0,1.13-1.8c0-1-.17-1.7-.52-2a3.75,3.75,0,0,0-2.11-.4,26.91,26.91,0,0,0-2.95.15c-.9.11-1.49.16-1.76.16-.5,0-.76-.3-.76-.89a1,1,0,0,1,.75-1.08,19,19,0,0,1,4.22-.31c2,0,3.42.3,4.16.9s1.12,1.78,1.13,3.52a4.88,4.88,0,0,1-.33,1.91,2.14,2.14,0,0,1-.81,1.08c-.33.2-.68.4-1.05.58s-.73.35-1,.49a2,2,0,0,0-.88.76A2.48,2.48,0,0,0,283.48,158.16Zm-2.39,3.28a1.44,1.44,0,0,1,.37-1,1.26,1.26,0,0,1,.94-.41,1.45,1.45,0,0,1,1,.41,1.3,1.3,0,0,1,.45,1,1.26,1.26,0,0,1-.45,1,1.48,1.48,0,0,1-1,.39,1.27,1.27,0,0,1-.94-.38A1.37,1.37,0,0,1,281.09,161.44Z"/></svg>