<svg id="Layer_1" data-name="Layer 1" xmlns="http://www.w3.org/2000/svg" viewBox="0 0 300 250"><defs><style>.cls-1{fill:#d4ac76;}</style></defs><title>text-02</title><path class="cls-1" d="M100.85,108.5V99.61h2.54a4.36,4.36,0,0,1,3.15,1.27,4.28,4.28,0,0,1,1.31,3.2,4.16,4.16,0,0,1-1.33,3.17,4.54,4.54,0,0,1-3.22,1.24h-2.44Zm2.56-7.41h-1V107h1a2.56,2.56,0,0,0,2-.86,3,3,0,0,0,.79-2.12,2.93,2.93,0,0,0-.8-2.1A2.61,2.61,0,0,0,103.41,101.09Z"/><path class="cls-1" d="M110.67,108.5V99.61h1.67v8.89h-1.67Z"/><path class="cls-1" d="M114.72,101.21v-1.6H122v1.6h-2.83v7.29h-1.67v-7.29h-2.83Z"/><path class="cls-1" d="M123.84,101.21v-1.6h7.33v1.6h-2.83v7.29h-1.67v-7.29h-2.83Z"/><path class="cls-1" d="M138.56,108.5V99.61h1.17l4.37,5.59V99.61h1.67v8.89h-1.12l-4.43-5.66v5.66h-1.67Z"/><path class="cls-1" d="M153.87,99.61h1.79l-2.94,5.28v3.61H151v-3.55l-3-5.34h1.83l2,3.69Z"/><path class="cls-1" d="M156,108.5l3.43-8.89h1.51l3.42,8.89h-1.71l-0.47-1.23h-4l-0.47,1.23H156Zm4.18-6.4-1.42,3.69h2.84Z"/><path class="cls-1" d="M177.08,108.5v-3.71h-3.81v3.71h-1.67V99.61h1.67v3.58h3.81V99.61h1.67v8.89h-1.67Z"/><path class="cls-1" d="M187.11,104.74h-3.29V107h3.61v1.48h-5.28V99.61h5.17v1.48h-3.51v2.16h3.29v1.48Z"/><path class="cls-1" d="M190.37,108.5V99.61H192l2.75,4.38,2.78-4.38h1.75v8.89h-1.67v-6.08l-0.13,0-2.76,4.26-2.69-4.2h0v6h-1.67Z"/><path class="cls-1" d="M99.1,123.5l-3.4-8.89h1.74L99.88,121l2.41-6.39H104l-3.37,8.89H99.1Z"/><path class="cls-1" d="M104.64,123.5l3.43-8.89h1.51L113,123.5h-1.71l-0.47-1.23h-4l-0.47,1.23h-1.71Zm3.41-9.8a0.72,0.72,0,0,1-.54.24,0.73,0.73,0,0,1-.55-0.24,0.79,0.79,0,0,1,.55-1.36,0.73,0.73,0,0,1,.54.23,0.77,0.77,0,0,1,.23.56A0.8,0.8,0,0,1,108.05,113.7Zm0.77,3.4-1.42,3.69h2.84Zm1.88-3.4a0.86,0.86,0,0,1-1.18,0,0.76,0.76,0,0,1-.24-0.57,0.74,0.74,0,0,1,.24-0.56,0.87,0.87,0,0,1,1.18,0,0.74,0.74,0,0,1,.24.56A0.76,0.76,0,0,1,110.7,113.7Z"/><path class="cls-1" d="M115.3,123.5v-8.89h1.17l4.37,5.59v-5.59h1.67v8.89h-1.12L117,117.84v5.66H115.3Z"/><path class="cls-1" d="M124.89,116.21v-1.6h7.33v1.6h-2.83v7.29h-1.67v-7.29h-2.83Z"/><path class="cls-1" d="M132.76,123.5l3.43-8.89h1.51l3.42,8.89h-1.71l-0.47-1.23h-4l-0.47,1.23h-1.71Zm4.18-6.4-1.42,3.69h2.84Z"/><path class="cls-1" d="M143.42,123.5v-8.89h3.48a3,3,0,0,1,2.14.81,2.77,2.77,0,0,1,.86,2.11,2.67,2.67,0,0,1-.64,1.8,2.86,2.86,0,0,1-1.66.95L150,123.5h-1.87l-2.31-3.17h-0.72v3.17h-1.67Zm3.22-7.41h-1.55V119h1.55a1.65,1.65,0,0,0,1.16-.39,1.33,1.33,0,0,0,.43-1,1.4,1.4,0,0,0-.44-1.05A1.59,1.59,0,0,0,146.64,116.09Z"/><path class="cls-1" d="M157.53,123.5v-8.89h3.19a3,3,0,0,1,3.09,3.07,2.81,2.81,0,0,1-.9,2.14,3.11,3.11,0,0,1-2.21.85h-1.5v2.83h-1.67Zm3-7.29h-1.38v3h1.4a1.57,1.57,0,0,0,1.12-.4,1.38,1.38,0,0,0,.43-1.06,1.46,1.46,0,0,0-.44-1.09A1.55,1.55,0,0,0,160.57,116.21Z"/><path class="cls-1" d="M164.78,123.5l3.43-8.89h1.51l3.42,8.89h-1.71l-0.47-1.23h-4l-0.47,1.23h-1.71Zm4.18-6.4-1.42,3.69h2.83Zm1.29-4a1.28,1.28,0,0,1-1.28,1.28,1.25,1.25,0,0,1-.91-0.37,1.29,1.29,0,0,1,0-1.82A1.29,1.29,0,0,1,170.26,113.09Zm-1.61.33a0.46,0.46,0,0,0,.33.14,0.44,0.44,0,0,0,.33-0.14,0.46,0.46,0,0,0,.13-0.33,0.45,0.45,0,0,0-.14-0.33,0.46,0.46,0,0,0-.66,0A0.47,0.47,0,0,0,168.65,113.43Z"/><path class="cls-1" d="M180.41,123.5v-8.89h2.54a4.35,4.35,0,0,1,3.15,1.27,4.28,4.28,0,0,1,1.31,3.2,4.16,4.16,0,0,1-1.33,3.17,4.54,4.54,0,0,1-3.22,1.24h-2.44Zm2.56-7.41h-1V122h1a2.56,2.56,0,0,0,2-.86,3,3,0,0,0,.79-2.12,2.93,2.93,0,0,0-.8-2.1A2.61,2.61,0,0,0,183,116.09Z"/><path class="cls-1" d="M190.23,123.5v-8.89h1.67v8.89h-1.67Z"/><path class="cls-1" d="M200.73,119.79V118.3h3.19v0.76a4.56,4.56,0,0,1-.65,2.36,4.49,4.49,0,0,1-1.68,1.64,4.6,4.6,0,0,1-2.27.58,4.61,4.61,0,1,1,0-9.22,4.38,4.38,0,0,1,3.31,1.44L201.5,117a2.88,2.88,0,0,0-2.18-1,2.83,2.83,0,0,0-2.13.87,3.15,3.15,0,0,0,0,4.28,2.71,2.71,0,0,0,2,.87,3.15,3.15,0,0,0,2-.62,2.81,2.81,0,0,0,1-1.64h-1.51Z"/></svg>