<?xml version="1.0" encoding="utf-8"?>
<!-- Generator: Adobe Illustrator 19.1.1, SVG Export Plug-In . SVG Version: 6.00 Build 0)  -->
<svg version="1.1" id="Layer_1" xmlns="http://www.w3.org/2000/svg" xmlns:xlink="http://www.w3.org/1999/xlink" x="0px" y="0px"
	 viewBox="0 0 300 250" style="enable-background:new 0 0 300 250;" xml:space="preserve">
<style type="text/css">
	.st0{fill:#D80201;}
	.st1{fill:#FFFFFF;}
</style>
<g>
	<path class="st0" d="M49.3,108.5c-1,4.8-5,7.6-9.8,7.6c-6.3,0-10.9-4.5-10.9-10.8s4.7-10.9,11-10.9c3.8,0,6.9,1.6,8.9,4.9l-3.5,1.9
		c-1.2-2-3.1-3.1-5.4-3.1c-4,0-6.8,3.3-6.8,7.2c0,3.9,2.8,7.1,6.8,7.1c2.7,0,5.1-1.6,5.4-4.4h-4.9v-3.5h9.5v0.5
		C49.6,106.2,49.5,107.4,49.3,108.5z"/>
	<path class="st0" d="M52.8,115.7V92.4h3.8v23.2H52.8z"/>
	<path class="st0" d="M67.1,116.1c-4.3,0-7.7-2.7-7.7-7.1c0-4.5,3.4-7.2,7.7-7.2c4.2,0,7.6,2.7,7.6,7.1
		C74.7,113.4,71.3,116.1,67.1,116.1z M63.8,99.7c-1.2,0-2.2-1-2.2-2.2s1-2.2,2.2-2.2c1.2,0,2.2,1,2.2,2.2S65.1,99.7,63.8,99.7z
		 M67,105.2c-2.1,0-3.8,1.7-3.8,3.8c0,2,1.7,3.8,3.8,3.8c2.1,0,3.8-1.6,3.8-3.8S69.2,105.2,67,105.2z M70.3,99.7
		c-1.2,0-2.2-1-2.2-2.2c0-1.2,1-2.2,2.2-2.2s2.2,1,2.2,2.2S71.5,99.7,70.3,99.7z"/>
	<path class="st0" d="M94.8,115.7v-7.3c0-1.6-0.2-3.3-2.2-3.3c-2.2,0-2.6,2-2.6,3.8v6.9h-3.8v-7.1c0-0.7,0-1.6-0.3-2.2
		c-0.3-0.8-1.1-1.3-2-1.3c-0.8,0-1.7,0.5-2.1,1.2c-0.4,0.7-0.4,1.8-0.4,2.6v6.9h-3.8v-13.4h3.8v1.5c1.1-1.3,2.4-2,4.1-2
		c1.9,0,3.2,0.8,4.2,2.4c1.1-1.6,2.5-2.4,4.4-2.4c1.5,0,2.9,0.7,3.8,1.9c0.6,1,0.7,2.1,0.7,3.3v8.7H94.8z"/>
	<path class="st0" d="M105.9,105.5v10.2h-3.8v-10.2h-1.5v-3.2h1.5v-4.6h3.8v4.6h2.6v3.2H105.9z"/>
	<path class="st0" d="M128.5,115.7v-1.8c-1,1.5-2.6,2.2-4.4,2.2c-4,0-6.6-3.3-6.6-7.2c0-3.8,2.6-7.1,6.5-7.1c1.9,0,3.3,0.7,4.5,2.1
		v-1.7h3.8v13.4H128.5z M125.1,105.2c-2.1,0-3.8,1.7-3.8,3.8c0,2.1,1.7,3.8,3.8,3.8c2.1,0,3.8-1.7,3.8-3.8
		C128.9,106.9,127.2,105.2,125.1,105.2z"/>
	<path class="st0" d="M139.6,105.5v10.2h-3.8v-10.2h-1.5v-3.2h1.5v-4.6h3.8v4.6h2.6v3.2H139.6z"/>
	<path class="st0" d="M148,105.5v10.2h-3.8v-10.2h-1.5v-3.2h1.5v-4.6h3.8v4.6h2.6v3.2H148z"/>
	<path class="st0" d="M164.2,105.5v10.2h-3.8v-10.2H159v-3.2h1.5v-4.3c0-1.1,0.1-2.1,0.6-3.2c0.9-1.7,2.8-2.7,4.7-2.7
		c0.8,0,1.3,0.2,2,0.5V96c-0.6-0.3-1.1-0.5-1.7-0.5c-1.7,0-1.8,1.7-1.8,3v3.8h3.5v3.2H164.2z"/>
	<path class="st0" d="M176.4,116.1c-4.3,0-7.7-2.7-7.7-7.1c0-4.5,3.4-7.2,7.7-7.2c4.2,0,7.6,2.7,7.6,7.1
		C184.1,113.4,180.7,116.1,176.4,116.1z M176.4,105.2c-2.1,0-3.8,1.7-3.8,3.8c0,2,1.7,3.8,3.8,3.8c2.1,0,3.8-1.6,3.8-3.8
		S178.5,105.2,176.4,105.2z"/>
	<path class="st0" d="M195.7,105.7c-0.6-0.3-1.1-0.5-1.8-0.5c-2.5,0-3.2,1.8-3.2,4v6.4H187v-13.4h3.8v2c0.9-1.5,2.1-2.4,3.9-2.4
		c0.6,0,1.1,0.1,1.6,0.3L195.7,105.7z"/>
	<path class="st0" d="M215.3,115.7v-7.3c0-1.6-0.2-3.3-2.2-3.3c-2.2,0-2.6,2-2.6,3.8v6.9h-3.8v-7.1c0-0.7,0-1.6-0.3-2.2
		c-0.3-0.8-1.1-1.3-2-1.3c-0.8,0-1.7,0.5-2.1,1.2c-0.4,0.7-0.4,1.8-0.4,2.6v6.9h-3.8v-13.4h3.8v1.5c1.1-1.3,2.4-2,4.1-2
		c1.9,0,3.2,0.8,4.2,2.4c1.1-1.6,2.5-2.4,4.4-2.4c1.5,0,2.9,0.7,3.8,1.9c0.6,1,0.7,2.1,0.7,3.3v8.7H215.3z"/>
	<path class="st0" d="M232.9,115.7v-1.8c-1,1.5-2.6,2.2-4.4,2.2c-4,0-6.6-3.3-6.6-7.2c0-3.8,2.6-7.1,6.5-7.1c1.9,0,3.3,0.7,4.5,2.1
		v-1.7h3.8v13.4H232.9z M229.5,105.2c-2.1,0-3.8,1.7-3.8,3.8c0,2.1,1.7,3.8,3.8,3.8s3.8-1.7,3.8-3.8
		C233.3,106.9,231.6,105.2,229.5,105.2z"/>
	<path class="st0" d="M38.3,152.7l-5.1-5.8l-0.4,0.4v5.4h-3.8v-23.2h3.8v14.7l5-4.9H43l-6.3,5.9l6.8,7.5H38.3z"/>
	<path class="st0" d="M45.2,152.7v-23.2h3.8v23.2H45.2z"/>
	<path class="st0" d="M62.8,152.7v-1.8c-1,1.5-2.6,2.2-4.4,2.2c-4,0-6.6-3.3-6.6-7.2c0-3.8,2.6-7.1,6.5-7.1c1.9,0,3.3,0.7,4.5,2.1
		v-1.7h3.8v13.4H62.8z M59.4,142.2c-2.1,0-3.8,1.7-3.8,3.8s1.7,3.8,3.8,3.8c2.1,0,3.8-1.7,3.8-3.8S61.5,142.2,59.4,142.2z"/>
	<path class="st0" d="M78.9,142.7c-0.6-0.3-1.1-0.5-1.8-0.5c-2.5,0-3.2,1.8-3.2,4v6.4h-3.8v-13.4h3.8v2c0.9-1.5,2.1-2.5,3.9-2.5
		c0.6,0,1.1,0.1,1.6,0.3L78.9,142.7z"/>
	<path class="st0" d="M85.8,142.5v10.2H82v-10.2h-1.5v-3.2H82v-4.6h3.8v4.6h2.6v3.2H85.8z"/>
	<path class="st0" d="M108.4,152.7v-1.8c-1,1.5-2.6,2.2-4.4,2.2c-4,0-6.6-3.3-6.6-7.2c0-3.8,2.6-7.1,6.5-7.1c1.9,0,3.3,0.7,4.5,2.1
		v-11.5h3.8v23.2H108.4z M105,142.2c-2.1,0-3.8,1.7-3.8,3.8s1.7,3.8,3.8,3.8c2.1,0,3.8-1.7,3.8-3.8S107.1,142.2,105,142.2z"/>
	<path class="st0" d="M117.6,135.8c-1.2,0-2.3-1-2.3-2.3s1-2.3,2.3-2.3s2.2,1,2.2,2.3S118.8,135.8,117.6,135.8z M115.7,152.7v-13.4
		h3.8v13.4H115.7z"/>
	<path class="st0" d="M126.7,142.5v10.2H123v-10.2h-1.5v-3.2h1.5v-4.6h3.8v4.6h2.6v3.2H126.7z"/>
	<path class="st0" d="M135.1,142.5v10.2h-3.8v-10.2h-1.5v-3.2h1.5v-4.6h3.8v4.6h2.6v3.2H135.1z"/>
	<path class="st0" d="M156.6,152.7v-7.4c0-1.8-0.4-3.2-2.5-3.2c-2.3,0-2.9,1.7-2.9,3.7v6.9h-3.8v-13.4h3.8v1.6
		c1.2-1.4,2.3-2.1,4.2-2.1c1.4,0,2.9,0.5,3.9,1.6s1.1,2.3,1.1,3.7v8.5H156.6z"/>
	<path class="st0" d="M167.2,159.9H163l4.9-9.2l-6.4-11.4h4.4l4,7.6l3.8-7.6h4.3L167.2,159.9z"/>
	<path class="st0" d="M189.4,152.7v-1.8c-1,1.5-2.6,2.2-4.4,2.2c-4,0-6.6-3.3-6.6-7.2c0-3.8,2.6-7.1,6.5-7.1c1.9,0,3.3,0.7,4.5,2.1
		v-1.7h3.8v13.4H189.4z M186.1,142.2c-2.1,0-3.8,1.7-3.8,3.8s1.7,3.8,3.8,3.8c2.1,0,3.8-1.7,3.8-3.8S188.1,142.2,186.1,142.2z"/>
	<path class="st0" d="M213.7,152.7v-7.3c0-1.9-0.4-3.3-2.6-3.3c-2.3,0-2.9,1.8-2.9,3.8v6.9h-3.8v-23.2h3.8V141
		c1.1-1.5,2.4-2.2,4.2-2.2c1.5,0,2.9,0.5,3.9,1.6s1.1,2.4,1.1,3.8v8.4H213.7z"/>
	<path class="st0" d="M227.5,153.1c-3.7,0-6.5-1.6-6.5-5.6v-8.2h3.8v7.6c0,1.8,0.8,3.1,2.7,3.1s2.7-1.2,2.7-3.1v-7.6h3.8v8.2
		C234,151.5,231.2,153.1,227.5,153.1z"/>
	<path class="st0" d="M241.9,153.1c-1.9,0-3.8-0.8-5.1-2.2l2-2.3c0.8,0.9,1.9,1.6,3.2,1.6c0.9,0,1.7-0.6,1.7-1.5c0-2.3-6-1.1-6-5.7
		c0-2.7,2.3-4.2,4.8-4.2c1.6,0,3.1,0.4,4.4,1.4l-1.9,2.2c-0.7-0.5-1.4-0.9-2.2-0.9c-0.7,0-1.4,0.4-1.4,1.1c0,2,6.2,1.1,6.2,5.7
		C247.5,151.4,244.8,153.1,241.9,153.1z"/>
	<path class="st0" d="M257.2,143.1v2.6h-3.8v-5.5c0.3,0.1,0.7,0.1,1.1,0.1c1.9,0,3.9-1,3.9-3.1c0-1.4-1-2.4-2.4-2.4
		c-1.2,0-2.2,1-2.2,2.2c0,0.1,0,0.2,0,0.4h-4v-0.4c0-3.4,3.2-5.5,6.3-5.5c3.3,0,6.3,2.4,6.3,5.8C262.3,140.5,260,142.4,257.2,143.1z
		 M255.3,153.1c-1.3,0-2.4-1.1-2.4-2.4c0-1.3,1.1-2.4,2.4-2.4c1.4,0,2.4,1.1,2.4,2.4C257.8,152,256.7,153.1,255.3,153.1z"/>
</g>
</svg>
