<svg id="Layer_1" data-name="Layer 1" xmlns="http://www.w3.org/2000/svg" viewBox="0 0 300 250"><defs><style>.cls-1{fill:#010121;}</style></defs><title>text</title><path class="cls-1" d="M129,53.44h2.17V68.67h7.44v1.84H129Z"/><path class="cls-1" d="M141,53.89a1.48,1.48,0,0,1,3,0,1.48,1.48,0,0,1-3,0Zm.39,4h2.14V70.51h-2.14Z"/><path class="cls-1" d="M146.45,58l1.82-.12H153v1.74h-6.54Zm1.72-2.12c0-2.57,1.17-4.2,3.7-4.2a5.6,5.6,0,0,1,2.1.43l-.45,1.64a3.49,3.49,0,0,0-1.43-.33c-1.2,0-1.78.84-1.78,2.47V70.51h-2.14Z"/><path class="cls-1" d="M155.41,68V52h2.14V68.12c0,.66.28.92.59.92a1.9,1.9,0,0,0,.47-.05l.29,1.63a3.4,3.4,0,0,1-1.23.2C156.07,70.82,155.41,69.79,155.41,68Z"/><path class="cls-1" d="M161.65,53.89a1.48,1.48,0,0,1,2.95,0,1.48,1.48,0,0,1-2.95,0Zm.39,4h2.14V70.51H162Z"/><path class="cls-1" d="M167.48,72.93a3.54,3.54,0,0,1,1.85-2.85V70a2.35,2.35,0,0,1-1.13-2.07,3,3,0,0,1,1.39-2.35v-.1A4.4,4.4,0,0,1,168,62.06a4.49,4.49,0,0,1,4.75-4.51,5,5,0,0,1,1.78.32h4.41v1.64h-2.6a3.66,3.66,0,0,1,1,2.6,4.32,4.32,0,0,1-4.62,4.39,4.46,4.46,0,0,1-1.89-.43,1.83,1.83,0,0,0-.8,1.49c0,.8.52,1.37,2.21,1.37h2.46c2.94,0,4.42.93,4.42,3,0,2.35-2.49,4.37-6.39,4.37C169.61,76.32,167.48,75.11,167.48,72.93Zm9.52-.66c0-1.17-.89-1.57-2.55-1.57h-2.18a7,7,0,0,1-1.64-.19,2.65,2.65,0,0,0-1.29,2.12c0,1.36,1.37,2.22,3.67,2.22S177,73.59,177,72.27Zm-1.62-10.21a2.7,2.7,0,1,0-5.37,0,2.7,2.7,0,1,0,5.37,0Z"/><path class="cls-1" d="M181.1,59.82a1.55,1.55,0,1,1,1.55,1.62A1.56,1.56,0,0,1,181.1,59.82Zm0,9.38a1.55,1.55,0,1,1,1.55,1.62A1.56,1.56,0,0,1,181.1,69.2Z"/><path class="cls-1" d="M99.41,84.37h1.2v17.14h-1.2Z"/><path class="cls-1" d="M109.34,85.4h-5.45v-1H116v1h-5.45v16.11h-1.2Z"/><path class="cls-1" d="M115.77,94.51h5.71v1h-5.71Z"/><path class="cls-1" d="M124.84,99.83v-17H126V100c0,.55.23.81.54.81a2.07,2.07,0,0,0,.47,0l.19.94a2.57,2.57,0,0,1-.83.13C125.36,101.82,124.84,101.2,124.84,99.83Z"/><path class="cls-1" d="M129.8,101.54l10.84-13.06.67.55-10.84,13.06Zm.15-6.25c0-4.18,2.6-6.58,5.61-6.58s5.6,2.4,5.6,6.58-2.6,6.53-5.6,6.53S130,99.42,130,95.29Zm10,0c0-3.34-1.9-5.6-4.42-5.6s-4.43,2.27-4.43,5.55,1.9,5.56,4.43,5.56S140,98.59,140,95.31Z"/><path class="cls-1" d="M143.33,100.09l.66-.84a5.77,5.77,0,0,0,4,1.58c2,0,3-1.14,3-2.46,0-1.57-1.62-2.25-3.06-2.77-1.88-.67-4-1.44-4-3.57,0-1.8,1.43-3.32,4-3.32A5.85,5.85,0,0,1,151.5,90l-.62.83a4.72,4.72,0,0,0-3-1.14c-1.95,0-2.83,1.12-2.83,2.27,0,1.43,1.47,2,3,2.53,1.93.74,4.07,1.37,4.07,3.81,0,1.88-1.5,3.52-4.2,3.52A7.14,7.14,0,0,1,143.33,100.09Z"/><path class="cls-1" d="M155.41,89h1l.12,1.93h.06c1.27-1.26,2.57-2.24,4.29-2.24,2.58,0,3.78,1.56,3.78,4.79v8h-1.15V93.65c0-2.65-.84-3.91-2.84-3.91-1.49,0-2.57.79-4.09,2.35v9.42h-1.15Z"/><path class="cls-1" d="M168.8,85a1,1,0,0,1,2.09,0,1,1,0,0,1-2.09,0Zm.45,4h1.14v12.49h-1.14Z"/><path class="cls-1" d="M175.2,89h1L176.3,91h0c1.28-1.26,2.58-2.24,4.3-2.24,2.58,0,3.77,1.56,3.77,4.79v8h-1.14V93.65c0-2.65-.84-3.91-2.85-3.91-1.49,0-2.56.79-4.08,2.35v9.42H175.2Z"/><path class="cls-1" d="M188,104.06a3.9,3.9,0,0,1,1.86-3v-.11a2.24,2.24,0,0,1-1.1-2,3,3,0,0,1,1.36-2.3v-.11a4.59,4.59,0,0,1-1.58-3.42,4.31,4.31,0,0,1,4.4-4.4,4.54,4.54,0,0,1,1.66.31h4.22v1h-2.9a4.08,4.08,0,0,1,1.38,3.13,4.29,4.29,0,0,1-4.36,4.41,4.18,4.18,0,0,1-2.07-.54,2.3,2.3,0,0,0-1,1.81c0,.9.52,1.62,2.38,1.62h2.67c2.81,0,4.12.9,4.12,2.87,0,2.15-2.3,4.22-5.9,4.22C190,107.52,188,106.17,188,104.06Zm9.86-.64c0-1.37-1-1.9-2.89-1.9h-2.68a8,8,0,0,1-1.54-.2,3.22,3.22,0,0,0-1.64,2.62c0,1.58,1.51,2.65,4.14,2.65C196,106.59,197.84,105,197.84,103.42Zm-1.69-10.31a3.24,3.24,0,1,0-6.46,0,3.24,3.24,0,1,0,6.46,0Z"/><path class="cls-1" d="M206.45,85a1,1,0,0,1,2.09,0,1,1,0,0,1-2.09,0Zm.44,4H208v12.49h-1.15Z"/><path class="cls-1" d="M62.13,131V114h1.15v17.19c0,.55.22.81.54.81a2.07,2.07,0,0,0,.47-.05l.19.94a2.57,2.57,0,0,1-.83.13C62.65,133,62.13,132.4,62.13,131Z"/><path class="cls-1" d="M67.84,116.18a1,1,0,0,1,2.09,0,1,1,0,0,1-2.09,0Zm.45,4h1.15v12.49H68.29Z"/><path class="cls-1" d="M72.16,120.22H73.4L76.21,128c.4,1.21.86,2.47,1.26,3.59h.11c.4-1.12.85-2.38,1.26-3.59l2.81-7.82h1.17L78.2,132.71H76.84Z"/><path class="cls-1" d="M84,131.29l.67-.84a5.73,5.73,0,0,0,4,1.59c2,0,3-1.15,3-2.47,0-1.57-1.62-2.25-3.06-2.77-1.88-.67-4-1.44-4-3.57,0-1.8,1.43-3.32,4-3.32a5.86,5.86,0,0,1,3.57,1.29l-.62.83a4.77,4.77,0,0,0-3-1.14c-2,0-2.83,1.12-2.83,2.27,0,1.43,1.47,2,3,2.53,1.93.74,4.07,1.37,4.07,3.81,0,1.88-1.5,3.52-4.2,3.52A7.16,7.16,0,0,1,84,131.29Z"/><path class="cls-1" d="M96.06,131V114h1.15v17.19c0,.55.22.81.54.81a2,2,0,0,0,.46-.05l.2.94a2.57,2.57,0,0,1-.83.13C96.58,133,96.06,132.4,96.06,131Z"/><path class="cls-1" d="M101,132.74l10.83-13.06.68.55-10.84,13.06Zm.15-6.25c0-4.18,2.6-6.58,5.6-6.58s5.61,2.4,5.61,6.58-2.61,6.53-5.61,6.53S101.17,130.62,101.17,126.49Zm10,0c0-3.34-1.9-5.6-4.43-5.6s-4.42,2.27-4.42,5.55,1.9,5.56,4.42,5.56S111.2,129.79,111.2,126.51Z"/><path class="cls-1" d="M116.13,120.22h1l.13,1.57h0a7.21,7.21,0,0,1,4.24-1.88c3.35,0,5,2.51,5,6.37,0,4.24-2.56,6.74-5.5,6.74a6.48,6.48,0,0,1-3.76-1.54l0,2.31v4.57h-1.15Zm9.18,6.06c0-3.06-1.09-5.35-4-5.35-1.24,0-2.55.73-4.06,2.06v7.4A6.07,6.07,0,0,0,121,132C123.49,132,125.31,129.67,125.31,126.28Z"/><path class="cls-1" d="M128.69,131.29l.67-.84a5.73,5.73,0,0,0,4,1.59c2,0,3-1.15,3-2.47,0-1.57-1.62-2.25-3.06-2.77-1.88-.67-4-1.44-4-3.57,0-1.8,1.43-3.32,4-3.32a5.88,5.88,0,0,1,3.57,1.29l-.62.83a4.77,4.77,0,0,0-3-1.14c-2,0-2.83,1.12-2.83,2.27,0,1.43,1.47,2,3,2.53,1.93.74,4.07,1.37,4.07,3.81,0,1.88-1.5,3.52-4.2,3.52A7.16,7.16,0,0,1,128.69,131.29Z"/><path class="cls-1" d="M140.78,120.22h1l.12,1.57h.06a7.18,7.18,0,0,1,4.24-1.88c3.35,0,5,2.51,5,6.37,0,4.24-2.56,6.74-5.51,6.74a6.48,6.48,0,0,1-3.75-1.54v6.88h-1.14Zm9.18,6.06c0-3.06-1.09-5.35-4-5.35-1.24,0-2.56.73-4.07,2.06v7.4A6.09,6.09,0,0,0,145.6,132C148.14,132,150,129.67,150,126.28Z"/><path class="cls-1" d="M153.87,126.49c0-4.07,2.65-6.58,5.44-6.58,3,0,4.78,2.1,4.78,5.78a5.81,5.81,0,0,1-.06.93h-9c0,3.15,1.89,5.41,4.7,5.41a5.66,5.66,0,0,0,3.36-1.11l.47.87a6.87,6.87,0,0,1-3.94,1.23C156.45,133,153.87,130.57,153.87,126.49Zm9.14-.81c0-3.19-1.44-4.78-3.69-4.78s-4,1.79-4.28,4.78Z"/><path class="cls-1" d="M167.48,120.22h1l.13,2.33h0c.85-1.53,2.07-2.64,3.55-2.64a2.64,2.64,0,0,1,1.24.26l-.26,1A2.81,2.81,0,0,0,172,121c-1.12,0-2.45.85-3.4,3.21v8.5h-1.15Z"/><path class="cls-1" d="M174.14,131.29l.66-.84a5.78,5.78,0,0,0,4,1.59c2,0,3-1.15,3-2.47,0-1.57-1.62-2.25-3.06-2.77-1.88-.67-4-1.44-4-3.57,0-1.8,1.43-3.32,4-3.32a5.85,5.85,0,0,1,3.56,1.29l-.62.83a4.73,4.73,0,0,0-3-1.14c-1.94,0-2.82,1.12-2.82,2.27,0,1.43,1.47,2,3,2.53,1.94.74,4.08,1.37,4.08,3.81,0,1.88-1.5,3.52-4.21,3.52A7.14,7.14,0,0,1,174.14,131.29Z"/><path class="cls-1" d="M186.22,120.22h1l.12,1.57h.06a7.18,7.18,0,0,1,4.24-1.88c3.34,0,5,2.51,5,6.37,0,4.24-2.56,6.74-5.5,6.74a6.48,6.48,0,0,1-3.75-1.54v6.88h-1.15Zm9.19,6.06c0-3.06-1.09-5.35-4-5.35-1.23,0-2.55.73-4.06,2.06v7.4a6.07,6.07,0,0,0,3.68,1.61C193.59,132,195.41,129.67,195.41,126.28Z"/><path class="cls-1" d="M199.32,126.49c0-4.07,2.64-6.58,5.44-6.58,3,0,4.78,2.1,4.78,5.78a5.81,5.81,0,0,1-.06.93h-9c0,3.15,1.88,5.41,4.7,5.41a5.61,5.61,0,0,0,3.35-1.11l.48.87a6.89,6.89,0,0,1-3.94,1.23C201.9,133,199.32,130.57,199.32,126.49Zm9.14-.81c0-3.19-1.45-4.78-3.69-4.78s-4,1.79-4.28,4.78Z"/><path class="cls-1" d="M212.92,114h1.14v13.79h.06l6.16-7.57h1.33l-4.07,4.94,4.75,7.55H221L216.87,126l-2.81,3.28v3.41h-1.14Z"/><path class="cls-1" d="M224.94,129.26v-8H223v-.89l2-.11.14-3.61h1v3.61h3.62v1h-3.62v8.12c0,1.6.4,2.67,2.12,2.67a4.42,4.42,0,0,0,1.57-.39l.3.93a7.33,7.33,0,0,1-2,.47C225.64,133,224.94,131.49,224.94,129.26Z"/><path class="cls-1" d="M232.32,116.18a1,1,0,0,1,2.09,0,1,1,0,0,1-2.09,0Zm.44,4h1.15v12.49h-1.15Z"/><path class="cls-1" d="M236.63,120.22h1.24l2.81,7.82c.41,1.21.86,2.47,1.27,3.59h.1c.41-1.12.86-2.38,1.26-3.59l2.81-7.82h1.18l-4.63,12.49h-1.35Z"/><path class="cls-1" d="M65.58,157.36h6V159h-6Z"/><path class="cls-1" d="M79,161.42c0-2.75,2.38-4.13,7.77-4.71,0-1.63-.55-3.19-2.61-3.19a7,7,0,0,0-3.77,1.35l-.84-1.46a9.23,9.23,0,0,1,5-1.66c3.08,0,4.39,2.06,4.39,5.2v7.76H87.09l-.18-1.51h-.07A6.73,6.73,0,0,1,82.66,165,3.44,3.44,0,0,1,79,161.42Zm7.77.2v-3.51c-4.24.51-5.67,1.55-5.67,3.16,0,1.44,1,2,2.21,2A5.2,5.2,0,0,0,86.72,161.62Z"/><path class="cls-1" d="M92.84,162.17v-16H95v16.14c0,.66.28.92.6.92a1.87,1.87,0,0,0,.46-.05l.29,1.63a3.4,3.4,0,0,1-1.23.2C93.5,165,92.84,164,92.84,162.17Z"/><path class="cls-1" d="M99.47,162.17v-16h2.14v16.14c0,.66.28.92.6.92a1.87,1.87,0,0,0,.46-.05l.29,1.63a3.4,3.4,0,0,1-1.23.2C100.13,165,99.47,164,99.47,162.17Z"/><path class="cls-1" d="M106.48,160.8v-7h-1.89v-1.62l2-.12.26-3.55h1.78v3.55H112v1.74h-3.43v7c0,1.54.5,2.44,2,2.44a4.21,4.21,0,0,0,1.44-.34l.41,1.61a7.61,7.61,0,0,1-2.34.47C107.39,165,106.48,163.31,106.48,160.8Z"/><path class="cls-1" d="M114.5,148.09a1.48,1.48,0,0,1,3,0,1.48,1.48,0,0,1-3,0Zm.39,4H117v12.64h-2.14Z"/><path class="cls-1" d="M120.38,158.4c0-4.1,2.59-6.65,5.47-6.65a5.17,5.17,0,0,1,3.54,1.47l-.09-2.17v-4.87h2.14v18.53h-1.76l-.18-1.5h-.08a5.56,5.56,0,0,1-3.83,1.81C122.43,165,120.38,162.62,120.38,158.4Zm8.92,3.09v-6.62a4.46,4.46,0,0,0-3.08-1.32c-2,0-3.63,1.95-3.63,4.83,0,3,1.26,4.84,3.47,4.84A4.35,4.35,0,0,0,129.3,161.49Z"/><path class="cls-1" d="M140,158.4c0-4.21,2.76-6.65,5.86-6.65s5.86,2.44,5.86,6.65-2.76,6.62-5.86,6.62S140,162.59,140,158.4Zm9.51,0c0-2.89-1.47-4.86-3.65-4.86s-3.65,2-3.65,4.86,1.48,4.84,3.65,4.84S149.48,161.3,149.48,158.4Z"/><path class="cls-1" d="M155,152.07h1.76l.18,1.46H157a6.69,6.69,0,0,1,4-1.78c3.27,0,5,2.54,5,6.45,0,4.3-2.58,6.82-5.47,6.82a5.74,5.74,0,0,1-3.5-1.47l0,2.21V170H155Zm8.84,6.14c0-2.79-.95-4.66-3.33-4.66a5.2,5.2,0,0,0-3.38,1.73v6.62a4.93,4.93,0,0,0,3.08,1.32C162.31,163.22,163.85,161.33,163.85,158.21Z"/><path class="cls-1" d="M169.44,152.07h1.76l.18,1.46h.07a6.69,6.69,0,0,1,4-1.78c3.27,0,5,2.54,5,6.45,0,4.3-2.58,6.82-5.47,6.82a5.74,5.74,0,0,1-3.5-1.47l0,2.21V170h-2.13Zm8.84,6.14c0-2.79-.95-4.66-3.33-4.66a5.2,5.2,0,0,0-3.38,1.73v6.62a4.93,4.93,0,0,0,3.08,1.32C176.74,163.22,178.28,161.33,178.28,158.21Z"/><path class="cls-1" d="M183,158.4c0-4.1,2.59-6.65,5.47-6.65a5.21,5.21,0,0,1,3.55,1.47l-.1-2.17v-4.87H194v18.53h-1.76l-.18-1.5H192a5.54,5.54,0,0,1-3.83,1.81C185,165,183,162.62,183,158.4Zm8.92,3.09v-6.62a4.45,4.45,0,0,0-3.08-1.32c-2,0-3.63,1.95-3.63,4.83,0,3,1.26,4.84,3.47,4.84A4.34,4.34,0,0,0,191.88,161.49Z"/><path class="cls-1" d="M197.51,161.42c0-2.75,2.38-4.13,7.77-4.71,0-1.63-.55-3.19-2.61-3.19a7,7,0,0,0-3.77,1.35l-.84-1.46a9.22,9.22,0,0,1,5-1.66c3.09,0,4.39,2.06,4.39,5.2v7.76h-1.76l-.18-1.51h-.07a6.75,6.75,0,0,1-4.18,1.82A3.44,3.44,0,0,1,197.51,161.42Zm7.77.2v-3.51c-4.24.51-5.67,1.55-5.67,3.16,0,1.44,1,2,2.21,2A5.22,5.22,0,0,0,205.28,161.62Z"/><path class="cls-1" d="M211.41,160.8v-7h-1.88v-1.62l2-.12.25-3.55h1.79v3.55H217v1.74h-3.42v7c0,1.54.5,2.44,1.95,2.44a4.21,4.21,0,0,0,1.44-.34l.42,1.61A7.67,7.67,0,0,1,215,165C212.32,165,211.41,163.31,211.41,160.8Z"/><path class="cls-1" d="M218.52,158.4c0-4.11,2.77-6.65,5.68-6.65,3.23,0,5.05,2.32,5.05,5.94a6.85,6.85,0,0,1-.1,1.21h-8.52c.16,2.68,1.79,4.41,4.2,4.41a5.52,5.52,0,0,0,3.15-1l.77,1.41a7.49,7.49,0,0,1-4.18,1.31C221.2,165,218.52,162.55,218.52,158.4Zm8.84-1c0-2.53-1.14-3.91-3.12-3.91-1.78,0-3.36,1.43-3.62,3.91Z"/><path class="cls-1" d="M232.36,152.07h1.76l.18,2.3h.07a4.36,4.36,0,0,1,3.6-2.62,3.07,3.07,0,0,1,1.35.26l-.4,1.88a3.49,3.49,0,0,0-1.23-.21c-1.07,0-2.34.77-3.2,2.91v8.12h-2.13Z"/><path class="cls-1" d="M241.75,160.8v-7h-1.88v-1.62l2-.12.25-3.55h1.79v3.55h3.42v1.74h-3.42v7c0,1.54.5,2.44,2,2.44a4.21,4.21,0,0,0,1.44-.34l.42,1.61a7.67,7.67,0,0,1-2.35.47C242.66,165,241.75,163.31,241.75,160.8Z"/></svg>