<?xml version="1.0" encoding="utf-8"?>
<!-- Generator: Adobe Illustrator 19.1.1, SVG Export Plug-In . SVG Version: 6.00 Build 0)  -->
<svg version="1.1" id="Layer_1" xmlns="http://www.w3.org/2000/svg" xmlns:xlink="http://www.w3.org/1999/xlink" x="0px" y="0px"
	 viewBox="0 0 300 250" style="enable-background:new 0 0 300 250;" xml:space="preserve">
<style type="text/css">
	.st0{fill:#D80201;}
	.st1{fill:#FFFFFF;}
</style>
<g>
	<path class="st0" d="M45,115c-2.5,2-5.2,2.7-8.4,2.7H30V94.3h6.7c6.9,0,12.6,4.4,12.6,11.7C49.2,109.4,47.7,112.8,45,115z
		 M42,100.2c-1.8-1.6-3.9-1.9-6.2-1.9h-1.2v15.4h1.2c2.3,0,4.4-0.3,6.2-1.9c1.6-1.4,2.5-3.7,2.5-5.9S43.6,101.6,42,100.2z"/>
	<path class="st0" d="M60.1,118.2c-4.2,0-7.3-1.9-7.3-6.4v-9.3H57v8.6c0,2.1,0.9,3.5,3.1,3.5c2.2,0,3.1-1.4,3.1-3.5v-8.6h4.3v9.3
		C67.4,116.3,64.3,118.2,60.1,118.2z"/>
	<path class="st0" d="M84.6,106.2v11.5h-4.2v-11.5h-1.6v-3.6h1.6v-4.9c0-1.3,0.1-2.4,0.7-3.6c1-1.9,3.2-3,5.3-3
		c0.9,0,1.4,0.2,2.2,0.5v3.9c-0.6-0.3-1.2-0.6-1.9-0.6c-1.9,0-2,2-2,3.4v4.2h3.9v3.6H84.6z"/>
	<path class="st0" d="M98.4,118.2c-4.8,0-8.7-3-8.7-8.1c0-5.1,3.9-8.1,8.7-8.1c4.8,0,8.6,3,8.6,8.1
		C107,115.1,103.2,118.2,98.4,118.2z M98.3,105.8c-2.3,0-4.3,1.9-4.3,4.3c0,2.3,2,4.2,4.3,4.2c2.3,0,4.3-1.9,4.3-4.2
		C102.7,107.7,100.7,105.8,98.3,105.8z"/>
	<path class="st0" d="M120.2,106.4c-0.7-0.4-1.2-0.5-2-0.5c-2.9,0-3.6,2-3.6,4.5v7.3h-4.2v-15.2h4.2v2.3c1-1.7,2.4-2.8,4.4-2.8
		c0.7,0,1.2,0.1,1.9,0.3L120.2,106.4z"/>
	<path class="st0" d="M142.2,117.7v-8.3c0-1.8-0.3-3.7-2.5-3.7c-2.5,0-2.9,2.3-2.9,4.3v7.8h-4.2v-8.1c0-0.8,0-1.8-0.3-2.5
		c-0.4-0.9-1.3-1.5-2.3-1.5c-0.9,0-1.9,0.5-2.4,1.4c-0.5,0.8-0.5,2-0.5,2.9v7.8h-4.2v-15.2h4.2v1.7c1.3-1.4,2.7-2.2,4.6-2.2
		c2.2,0,3.6,0.9,4.7,2.8c1.2-1.8,2.8-2.8,5-2.8c1.6,0,3.3,0.7,4.2,2.2c0.7,1.1,0.8,2.4,0.8,3.7v9.8H142.2z"/>
	<path class="st0" d="M162.1,117.7v-2c-1.2,1.6-2.9,2.5-4.9,2.5c-4.6,0-7.5-3.8-7.5-8.1c0-4.2,2.9-8,7.4-8c2.1,0,3.7,0.8,5,2.4v-1.9
		h4.3v15.2H162.1z M158.3,105.8c-2.3,0-4.2,1.9-4.2,4.2c0,2.3,1.9,4.3,4.2,4.3c2.3,0,4.2-1.9,4.2-4.3
		C162.6,107.7,160.7,105.8,158.3,105.8z"/>
	<path class="st0" d="M180.4,106.4c-0.7-0.4-1.2-0.5-2-0.5c-2.9,0-3.6,2-3.6,4.5v7.3h-4.2v-15.2h4.2v2.3c1-1.7,2.4-2.8,4.4-2.8
		c0.7,0,1.2,0.1,1.9,0.3L180.4,106.4z"/>
	<path class="st0" d="M183.9,118.1c-1.5,0-2.7-1.2-2.7-2.7s1.2-2.7,2.7-2.7c1.5,0,2.7,1.2,2.7,2.7S185.4,118.1,183.9,118.1z"/>
	<path class="st0" d="M39.7,155.3h-2.4l-9.9-23.9h5l6.2,15.7l6.3-15.7h4.9L39.7,155.3z"/>
	<path class="st0" d="M54,135.7c-1.4,0-2.6-1.2-2.6-2.6s1.2-2.6,2.6-2.6c1.4,0,2.5,1.2,2.5,2.6S55.4,135.7,54,135.7z M51.8,154.7
		v-15.2h4.2v15.2H51.8z"/>
	<path class="st0" d="M78,155.2c-2.1,0-3.7-0.8-5-2.5v2h-4.2v-26.2H73v13c1.5-1.6,2.9-2.4,5.1-2.4c4.4,0,7.4,3.8,7.4,8
		C85.5,151.4,82.6,155.2,78,155.2z M76.9,142.8c-2.3,0-4.2,1.9-4.2,4.2c0,2.3,1.9,4.3,4.2,4.3s4.2-1.9,4.2-4.3
		C81.1,144.7,79.2,142.8,76.9,142.8z"/>
	<path class="st0" d="M92.3,162.8h-4.8l5.6-10.4l-7.2-12.9h4.9l4.6,8.6l4.3-8.6h4.8L92.3,162.8z"/>
	<path class="st0" d="M120.6,160.2c-1.6,1.9-4,2.7-6.4,2.7c-3.9,0-7.6-2.2-8.1-6.4h4.6c0.5,1.9,1.7,2.8,3.6,2.8
		c2.7,0,3.7-1.9,3.7-4.3v-2.3c-1.4,1.6-2.9,2.5-5.1,2.5c-4.5,0-7.2-3.6-7.2-7.9c0-4.3,2.8-8.3,7.4-8.3c2.2,0,3.6,0.8,4.9,2.5v-2h4.3
		v14.6C122.4,156.5,122.3,158.3,120.6,160.2z M114.4,142.8c-2.3,0-4.2,1.9-4.2,4.2c0,2.3,1.9,4.3,4.2,4.3s4.2-1.9,4.2-4.3
		C118.6,144.7,116.7,142.8,114.4,142.8z"/>
	<path class="st0" d="M140.5,160.2c-1.6,1.9-4,2.7-6.4,2.7c-3.9,0-7.6-2.2-8.1-6.4h4.6c0.5,1.9,1.7,2.8,3.6,2.8
		c2.7,0,3.7-1.9,3.7-4.3v-2.3c-1.4,1.6-2.9,2.5-5.1,2.5c-4.5,0-7.2-3.6-7.2-7.9c0-4.3,2.8-8.3,7.4-8.3c2.2,0,3.6,0.8,4.9,2.5v-2h4.3
		v14.6C142.2,156.5,142.1,158.3,140.5,160.2z M134.2,142.8c-2.3,0-4.2,1.9-4.2,4.2c0,2.3,1.9,4.3,4.2,4.3s4.2-1.9,4.2-4.3
		C138.5,144.7,136.6,142.8,134.2,142.8z"/>
	<path class="st0" d="M149.8,147.8c0.1,2.3,1.2,4.1,3.7,4.1c1.6,0,2.7-0.7,3.6-2l3.9,0.6c-1.3,3.3-4,4.7-7.5,4.7
		c-4.9,0-8.1-3.2-8.1-8.1c0-4.8,3.1-8.1,7.9-8.1c5,0,7.7,3.4,7.7,8.2v0.6H149.8z M153.5,142c-1.9,0-3.2,1.2-3.5,3h7.2
		C156.7,143.2,155.5,142,153.5,142z"/>
	<path class="st0" d="M174.3,143.4c-0.7-0.4-1.2-0.5-2-0.5c-2.9,0-3.6,2-3.6,4.5v7.3h-4.2v-15.2h4.2v2.3c1-1.7,2.4-2.8,4.4-2.8
		c0.7,0,1.2,0.1,1.9,0.3L174.3,143.4z"/>
	<path class="st0" d="M177.8,155.1c-1.5,0-2.7-1.2-2.7-2.7s1.2-2.7,2.7-2.7c1.5,0,2.7,1.2,2.7,2.7S179.3,155.1,177.8,155.1z"/>
</g>
</svg>
