<svg id="Layer_1" data-name="Layer 1" xmlns="http://www.w3.org/2000/svg" viewBox="0 0 300 250"><defs><style>.cls-1{fill:#d4ac76;}</style></defs><title>text</title><path class="cls-1" d="M112.15,92.6h-3.66v2.72h3.91V96.5h-5.15V87.61h5.08v1.18h-3.84v2.63h3.66Z"/><path class="cls-1" d="M115.48,96.5V87.61h3.3a2.82,2.82,0,0,1,2,.77,2.75,2.75,0,0,1-1.57,4.74l2.58,3.38h-1.53l-2.55-3.39h-1V96.5Zm3.14-7.71h-1.89V92h1.88a1.75,1.75,0,0,0,1.25-.44,1.59,1.59,0,0,0,0-2.3A1.74,1.74,0,0,0,118.62,88.79Z"/><path class="cls-1" d="M123.59,88.79V87.61h7.2v1.18h-3V96.5h-1.24V88.79Z"/><path class="cls-1" d="M138.3,96.5V87.61h.87L144,93.73V87.61h1.24V96.5h-.69l-5-6.35V96.5Z"/><path class="cls-1" d="M153.56,87.61H155l-3,5.31V96.5H150.8V93l-3-5.36h1.49l2.15,4Z"/><path class="cls-1" d="M155.52,96.5l3.57-8.89h1.12l3.5,8.89h-1.38l-.53-1.37h-4.36l-.55,1.37Zm4.12-6.85L157.92,94h3.41Z"/><path class="cls-1" d="M176.7,96.5V92.65h-4.32V96.5h-1.25V87.61h1.25v3.85h4.32V87.61h1.24V96.5Z"/><path class="cls-1" d="M186.55,92.6H182.9v2.72h3.91V96.5h-5.16V87.61h5.09v1.18H182.9v2.63h3.65Z"/><path class="cls-1" d="M189.89,96.5V87.61h1.28L194,92.35l2.91-4.74h1.22V96.5h-1.24V89.93l0,0L194,94.5,191.21,90h-.08V96.5Z"/><path class="cls-1" d="M106.71,111.5l-3.47-8.89h1.4l2.66,6.83,2.67-6.83h1.37l-3.47,8.89Z"/><path class="cls-1" d="M112.1,111.5l3.57-8.89h1.12l3.5,8.89h-1.37l-.54-1.37H114l-.55,1.37Zm3.21-9.83a.58.58,0,0,1-.45.19.54.54,0,0,1-.43-.19.69.69,0,0,1-.18-.49.68.68,0,0,1,.18-.48.54.54,0,0,1,.43-.19.58.58,0,0,1,.45.19.68.68,0,0,1,.18.48A.69.69,0,0,1,115.31,101.67Zm.92,3L114.5,109h3.41Zm1.54-3a.6.6,0,0,1-.88,0,.69.69,0,0,1-.18-.49.68.68,0,0,1,.18-.48.6.6,0,0,1,.88,0,.68.68,0,0,1,.18.48A.69.69,0,0,1,117.77,101.67Z"/><path class="cls-1" d="M122.76,111.5v-8.89h.86l4.82,6.12v-6.12h1.24v8.89H129l-5-6.35v6.35Z"/><path class="cls-1" d="M132.22,103.79v-1.18h7.2v1.18h-3v7.71H135.2v-7.71Z"/><path class="cls-1" d="M140,111.5l3.57-8.89h1.12l3.5,8.89h-1.37l-.54-1.37h-4.36l-.55,1.37Zm4.13-6.85L142.4,109h3.41Z"/><path class="cls-1" d="M150.66,111.5v-8.89H154a2.81,2.81,0,0,1,2,.77,2.66,2.66,0,0,1,.8,2,2.63,2.63,0,0,1-2.36,2.73L157,111.5h-1.53l-2.55-3.39h-1v3.39Zm3.13-7.71H151.9V107h1.88a1.79,1.79,0,0,0,1.26-.44,1.5,1.5,0,0,0,.48-1.17,1.48,1.48,0,0,0-.49-1.13A1.72,1.72,0,0,0,153.79,103.79Z"/><path class="cls-1" d="M164.69,111.5v-8.89h3a2.79,2.79,0,0,1,2.06.83,2.87,2.87,0,0,1,.83,2.11,2.76,2.76,0,0,1-.85,2.08,2.85,2.85,0,0,1-2.09.83h-1.74v3Zm2.95-7.71h-1.71v3.49h1.72a1.65,1.65,0,0,0,1.72-1.73,1.78,1.78,0,0,0-.49-1.26A1.68,1.68,0,0,0,167.64,103.79Z"/><path class="cls-1" d="M171.77,111.5l3.57-8.89h1.12l3.5,8.89h-1.37l-.54-1.37H173.7l-.55,1.37Zm4.13-6.85-1.73,4.3h3.42Zm.86-2.64a1.23,1.23,0,1,1,.35-.86A1.19,1.19,0,0,1,176.76,102Zm-.86-.37a.49.49,0,0,0,.34-.14.52.52,0,0,0,.14-.35.5.5,0,0,0-.14-.35.45.45,0,0,0-.34-.14.45.45,0,0,0-.35.14.47.47,0,0,0-.15.35.5.5,0,0,0,.5.49Z"/><path class="cls-1" d="M192.29,107.6h-3.66v2.72h3.91v1.18h-5.15v-8.89h5.08v1.18h-3.84v2.63h3.66Z"/><path class="cls-1" d="M195.62,111.5v-8.89h3.3a2.78,2.78,0,0,1,2,.77,2.75,2.75,0,0,1-1.56,4.74l2.58,3.38h-1.53l-2.56-3.39h-1v3.39Zm3.14-7.71h-1.9V107h1.88a1.76,1.76,0,0,0,1.26-.44,1.48,1.48,0,0,0,.49-1.17,1.51,1.51,0,0,0-.49-1.13A1.74,1.74,0,0,0,198.76,103.79Z"/></svg>