<svg id="Layer_1" data-name="Layer 1" xmlns="http://www.w3.org/2000/svg" viewBox="0 0 300 250"><defs><style>.cls-1{fill:#d80201;}</style></defs><title>text</title><path class="cls-1" d="M69.83,124.75H67.62l-9.09-21.88h4.55l5.69,14.33,5.76-14.33H79Z"/><path class="cls-1" d="M91.56,124.21v-1.83a5.35,5.35,0,0,1-4.51,2.28c-4.16,0-6.82-3.46-6.82-7.43s2.66-7.33,6.72-7.33a5.78,5.78,0,0,1,4.61,2.21v-1.76h3.9v13.86Zm-6.69-16.45a2.31,2.31,0,0,1,0-4.61,2.31,2.31,0,0,1,0,4.61Zm3.23,5.63A3.89,3.89,0,1,0,92,117.26,3.87,3.87,0,0,0,88.1,113.39Zm3.43-5.63a2.34,2.34,0,0,1-2.31-2.3,2.31,2.31,0,1,1,2.31,2.3Z"/><path class="cls-1" d="M99.17,124.21v-24h3.88v24Z"/><path class="cls-1" d="M108.65,106.83a2.34,2.34,0,1,1,0-4.67,2.34,2.34,0,0,1,0,4.67Zm-2,24.77V110.35h3.88V131.6Z"/><path class="cls-1" d="M126.63,124.66a7.39,7.39,0,0,1-5.28-2.31L123.4,120a4.49,4.49,0,0,0,3.26,1.64,1.63,1.63,0,0,0,1.76-1.54c0-2.37-6.17-1.18-6.17-5.86,0-2.81,2.33-4.38,5-4.38a7.18,7.18,0,0,1,4.51,1.47l-1.92,2.27a3.86,3.86,0,0,0-2.31-.92c-.67,0-1.47.41-1.47,1.18,0,2,6.4,1.12,6.4,5.86C132.42,122.93,129.6,124.66,126.63,124.66Z"/><path class="cls-1" d="M142.37,124.66c-4.41,0-7.93-2.76-7.93-7.36s3.52-7.4,8-7.4,7.88,2.79,7.88,7.36S146.76,124.66,142.37,124.66Zm0-11.27a3.89,3.89,0,1,0,3.94,3.91A3.92,3.92,0,0,0,142.34,113.39Z"/><path class="cls-1" d="M153.25,124.21v-24h3.88v24Z"/><path class="cls-1" d="M167.65,124.66a7.3,7.3,0,0,1-7.55-7.33,7.4,7.4,0,0,1,7.62-7.43,7.14,7.14,0,0,1,3.52.84v3.84a4.78,4.78,0,0,0-3.14-1.19,3.89,3.89,0,1,0,0,7.78,4.72,4.72,0,0,0,3.14-1.19v3.81A7.44,7.44,0,0,1,167.65,124.66Z"/><path class="cls-1" d="M177.41,117.9c.07,2.15,1.09,3.72,3.39,3.72a3.63,3.63,0,0,0,3.3-1.86l3.58.58c-1.21,3-3.68,4.32-6.81,4.32-4.48,0-7.42-2.88-7.42-7.4s2.81-7.36,7.26-7.36,7.07,3.08,7.07,7.49v.51Zm3.36-5.24a3.14,3.14,0,0,0-3.23,2.78h6.56A3.2,3.2,0,0,0,180.77,112.66Z"/><path class="cls-1" d="M190.76,124.21v-24h3.87v24Z"/><path class="cls-1" d="M198.34,124.21v-24h3.87v24Z"/><path class="cls-1" d="M209.16,117.9c.06,2.15,1.08,3.72,3.39,3.72a3.62,3.62,0,0,0,3.29-1.86l3.59.58c-1.22,3-3.68,4.32-6.82,4.32-4.48,0-7.42-2.88-7.42-7.4s2.81-7.36,7.26-7.36,7.07,3.08,7.07,7.49v.51Zm3.36-5.24a3.14,3.14,0,0,0-3.24,2.78h6.56A3.2,3.2,0,0,0,212.52,112.66Z"/><path class="cls-1" d="M231.56,113.87a3.45,3.45,0,0,0-1.86-.48c-2.62,0-3.33,1.86-3.33,4.16v6.66H222.5V110.35h3.87v2.08a4.46,4.46,0,0,1,4-2.53,4.54,4.54,0,0,1,1.7.32Z"/><path class="cls-1" d="M81.45,159.66c-4.42,0-7.94-2.76-7.94-7.36s3.52-7.39,8-7.39,7.87,2.78,7.87,7.35S85.83,159.66,81.45,159.66Zm0-11.27a3.89,3.89,0,1,0,3.94,3.91A3.92,3.92,0,0,0,81.41,148.39Z"/><path class="cls-1" d="M99.14,159.66a7.3,7.3,0,0,1-7.55-7.33,7.39,7.39,0,0,1,7.62-7.42,7.1,7.1,0,0,1,3.51.83v3.84a4.74,4.74,0,0,0-3.13-1.19,3.89,3.89,0,1,0,0,7.78,4.68,4.68,0,0,0,3.13-1.19v3.81A7.37,7.37,0,0,1,99.14,159.66Z"/><path class="cls-1" d="M115.59,159.21v-7.59c0-1.92-.42-3.42-2.66-3.42-2.4,0-2.94,1.86-2.94,3.9v7.11h-3.87v-24H110v11.9a5,5,0,0,1,4.35-2.23,5.3,5.3,0,0,1,4,1.69,5.49,5.49,0,0,1,1.09,3.9v8.71Z"/><path class="cls-1" d="M135.17,148.68v10.53H131.3V148.68h-1.5v-3.33h1.5v-4.44a6.7,6.7,0,0,1,.61-3.27,5.47,5.47,0,0,1,4.8-2.78,4.6,4.6,0,0,1,2,.48v3.55a3.85,3.85,0,0,0-1.76-.51c-1.73,0-1.83,1.79-1.83,3.1v3.87h3.59v3.33Z"/><path class="cls-1" d="M151.14,159.21v-1.83a5.35,5.35,0,0,1-4.51,2.28c-4.16,0-6.82-3.46-6.82-7.43s2.66-7.32,6.72-7.32a5.77,5.77,0,0,1,4.61,2.2v-1.76H155v13.86Zm-3.46-10.82a3.89,3.89,0,1,0,3.88,3.87A3.87,3.87,0,0,0,147.68,148.39Zm-.54-5.47a2.88,2.88,0,0,1,0-5.76,2.88,2.88,0,1,1,0,5.76Zm0-4a1.12,1.12,0,1,0,1.12,1.12A1.09,1.09,0,0,0,147.14,138.92Z"/><path class="cls-1" d="M184.45,159.21v-7.59c0-1.63-.25-3.42-2.3-3.42-2.27,0-2.66,2.08-2.66,3.9v7.11h-3.87v-7.36a6.15,6.15,0,0,0-.29-2.31,2.24,2.24,0,0,0-2.08-1.34,2.51,2.51,0,0,0-2.17,1.25,5.67,5.67,0,0,0-.45,2.65v7.11h-3.87V145.35h3.87v1.57a5.31,5.31,0,0,1,4.22-2,4.7,4.7,0,0,1,4.32,2.52,5.13,5.13,0,0,1,4.54-2.52,4.57,4.57,0,0,1,3.88,2,6.1,6.1,0,0,1,.73,3.36v9Z"/><path class="cls-1" d="M195.27,152.9c.06,2.15,1.09,3.72,3.39,3.72a3.64,3.64,0,0,0,3.3-1.86l3.58.58c-1.22,3-3.68,4.32-6.82,4.32-4.48,0-7.42-2.88-7.42-7.4s2.82-7.35,7.26-7.35,7.08,3.07,7.08,7.48v.51Zm3.36-5.24a3.14,3.14,0,0,0-3.23,2.78H202A3.22,3.22,0,0,0,198.63,147.66Z"/><path class="cls-1" d="M217.67,148.87a3.45,3.45,0,0,0-1.86-.48c-2.62,0-3.33,1.86-3.33,4.16v6.66h-3.87V145.35h3.87v2.08a4.56,4.56,0,0,1,5.73-2.21Z"/><path class="cls-1" d="M222.28,159.62a2.5,2.5,0,1,1,2.49-2.49A2.5,2.5,0,0,1,222.28,159.62Zm-2-6.52V137.87h4V153.1Z"/></svg>