<svg id="Layer_1" data-name="Layer 1" xmlns="http://www.w3.org/2000/svg" viewBox="0 0 300 600"><defs><style>.cls-1{fill:#fff;}</style></defs><title>text</title><path class="cls-1" d="M106.94,24.66,99.75,46H97.17L90,24.66h2.8l6,17.59,5.88-17.59Z"/><path class="cls-1" d="M112,24.66V27.4h-2.64V24.66ZM112,30.21V46H109.5V30.21Z"/><path class="cls-1" d="M137.88,46h-2.55l-4.61-8.81-3.42,3.93V46h-2.46V24.66h2.46V38.33l7.33-8.12h2.62l-4.93,5.54Z"/><path class="cls-1" d="M145.86,46.43A6,6,0,0,1,140.79,44,9.67,9.67,0,0,1,139,38,8.58,8.58,0,0,1,141,32a6.59,6.59,0,0,1,5.09-2.25,6.23,6.23,0,0,1,5.15,2.37,9.24,9.24,0,0,1,1.88,5.92,8.89,8.89,0,0,1-2,6A6.65,6.65,0,0,1,145.86,46.43Zm.19-2a3.92,3.92,0,0,0,3.14-1.55A7.56,7.56,0,0,0,150.45,38q0-3.28-1.32-4.76A4.07,4.07,0,0,0,146,31.8a3.94,3.94,0,0,0-3.1,1.49A7.27,7.27,0,0,0,141.66,38q0,3.42,1.26,4.9A4,4,0,0,0,146.05,44.4Z"/><path class="cls-1" d="M158,46h-1.19V24.66h2.45v8.17a5.17,5.17,0,0,1,4.66-3.06,5.77,5.77,0,0,1,4.55,2.14q1.84,2.15,1.84,6.23a9.46,9.46,0,0,1-1.81,5.9,5.62,5.62,0,0,1-4.69,2.39,5.41,5.41,0,0,1-4.94-3Zm1.26-6.19a4.79,4.79,0,0,0,1.5,3.53,4.32,4.32,0,0,0,2.79,1.1,3.57,3.57,0,0,0,3-1.63,7.57,7.57,0,0,0,1.15-4.46,8.87,8.87,0,0,0-1.11-4.79,3.47,3.47,0,0,0-3.09-1.75A3.89,3.89,0,0,0,160.76,33a5.29,5.29,0,0,0-1.48,3.21Z"/><path class="cls-1" d="M176.47,46H174V24.66h2.45Z"/><path class="cls-1" d="M191.8,41.29l2.28.46a6.43,6.43,0,0,1-2.44,3.35,7,7,0,0,1-4.26,1.33,6.63,6.63,0,0,1-5.24-2.28,8.72,8.72,0,0,1-2-6,8.77,8.77,0,0,1,2.08-6.09,6.69,6.69,0,0,1,5.22-2.32,6.28,6.28,0,0,1,5,2.14c1.26,1.43,1.9,3.56,1.93,6.41H182.88q0,3.57,1.5,4.83a4.89,4.89,0,0,0,3.17,1.25A4.34,4.34,0,0,0,191.8,41.29Zm-.14-4.8a7.08,7.08,0,0,0-.44-2.36,4,4,0,0,0-1.38-1.76,3.77,3.77,0,0,0-2.32-.72A4.16,4.16,0,0,0,184.41,33,5.44,5.44,0,0,0,183,36.49Z"/><path class="cls-1" d="M200.48,46H198V30.21h2.16V33.9a7.94,7.94,0,0,1,2.29-3.39,4.19,4.19,0,0,1,2.35-.77c.25,0,.57,0,1,.06v2.35h-.5a4.32,4.32,0,0,0-3.38,1.51,6.23,6.23,0,0,0-1.44,4Z"/><path class="cls-1" d="M102.72,63.06V65.8h-2.64V63.06Zm-.08,5.55V84.39h-2.45V68.61Z"/><path class="cls-1" d="M120,84.39h-2.3V74.25a4.11,4.11,0,0,0-1-3.08,3.29,3.29,0,0,0-2.31-.89,4,4,0,0,0-3.15,1.5,5.9,5.9,0,0,0-1.28,4v8.66h-2.45V68.61h2.28v2.9c1.28-2.22,2.94-3.34,5-3.34a5,5,0,0,1,3,.91,4.89,4.89,0,0,1,1.71,2.06,12.7,12.7,0,0,1,.46,4.12Z"/><path class="cls-1" d="M137.31,84.39H135V74.25a4.07,4.07,0,0,0-1-3.08,3.26,3.26,0,0,0-2.31-.89,4,4,0,0,0-3.15,1.5,5.89,5.89,0,0,0-1.27,4v8.66h-2.45V68.61h2.28v2.9c1.28-2.22,2.94-3.34,5-3.34a5,5,0,0,1,3,.91,4.87,4.87,0,0,1,1.7,2.06,12.42,12.42,0,0,1,.46,4.12Z"/><path class="cls-1" d="M154.59,84.39h-2.45V74.81a11.3,11.3,0,0,0-.21-2.53,2.64,2.64,0,0,0-1-1.46,2.88,2.88,0,0,0-1.82-.62A3.93,3.93,0,0,0,146,71.75a6.3,6.3,0,0,0-1.28,4.14v8.5h-2.45V63.06h2.45v8.45c1.12-2.22,2.71-3.34,4.78-3.34a5.36,5.36,0,0,1,2.48.55,4.05,4.05,0,0,1,1.66,1.44,5.52,5.52,0,0,1,.79,1.75,13.92,13.92,0,0,1,.21,2.9Z"/><path class="cls-1" d="M165.16,84.83a6,6,0,0,1-5.07-2.41,9.6,9.6,0,0,1-1.82-6,8.63,8.63,0,0,1,2-6,6.63,6.63,0,0,1,5.1-2.25,6.21,6.21,0,0,1,5.14,2.37,9.19,9.19,0,0,1,1.89,5.92,8.89,8.89,0,0,1-2,6A6.65,6.65,0,0,1,165.16,84.83Zm.18-2a3.9,3.9,0,0,0,3.14-1.55,7.5,7.5,0,0,0,1.27-4.81q0-3.28-1.33-4.76a4,4,0,0,0-3.11-1.48,3.91,3.91,0,0,0-3.09,1.49A7.27,7.27,0,0,0,161,76.42c0,2.28.43,3.91,1.27,4.9A4,4,0,0,0,165.34,82.8Z"/><path class="cls-1" d="M178.58,84.39h-2.45V63.06h2.45Z"/><path class="cls-1" d="M195.81,63.06V84.39h-2.22v-2.7a5.34,5.34,0,0,1-5,3.14,5.51,5.51,0,0,1-4.55-2.33,9.32,9.32,0,0,1-1.78-5.87,9.93,9.93,0,0,1,1.76-6,5.54,5.54,0,0,1,4.69-2.42,5.46,5.46,0,0,1,4.64,2.59v-7.7ZM193.36,74.7a4.47,4.47,0,0,0-1.27-3.33,4.06,4.06,0,0,0-3-1.25,3.6,3.6,0,0,0-3,1.63A7.68,7.68,0,0,0,185,76.31,8.77,8.77,0,0,0,186,81.14a3.39,3.39,0,0,0,3,1.66,4,4,0,0,0,3-1.44A4.86,4.86,0,0,0,193.36,78Z"/><path class="cls-1" d="M204,80.83V84l-2.33,4.38h-1.33l1.85-4h-1.6V80.83Z"/><path class="cls-1" d="M102.15,118.09l2.28.46A6.43,6.43,0,0,1,102,121.9a7,7,0,0,1-4.26,1.33A6.65,6.65,0,0,1,92.49,121a9.93,9.93,0,0,1,.08-12.06,6.71,6.71,0,0,1,5.22-2.32,6.31,6.31,0,0,1,5,2.14c1.25,1.43,1.89,3.56,1.93,6.41H93.23q0,3.57,1.5,4.83a4.89,4.89,0,0,0,3.17,1.25A4.34,4.34,0,0,0,102.15,118.09Zm-.14-4.8a6.84,6.84,0,0,0-.44-2.36,4.07,4.07,0,0,0-1.37-1.76,3.82,3.82,0,0,0-2.33-.72,4.12,4.12,0,0,0-3.1,1.31,5.39,5.39,0,0,0-1.43,3.53Z"/><path class="cls-1" d="M113.46,113.84v1.9H106.4v-1.9Z"/><path class="cls-1" d="M128.76,122.79H126.3v-9.58a11.3,11.3,0,0,0-.21-2.53,2.64,2.64,0,0,0-1-1.46,2.86,2.86,0,0,0-1.82-.62,3.94,3.94,0,0,0-3.16,1.55,6.3,6.3,0,0,0-1.27,4.14v8.5h-2.46V101.46h2.46v8.45c1.11-2.22,2.7-3.34,4.78-3.34a5.35,5.35,0,0,1,2.47.55,4.14,4.14,0,0,1,1.67,1.43,5.91,5.91,0,0,1,.79,1.76,13.92,13.92,0,0,1,.21,2.9Z"/><path class="cls-1" d="M146,122.79h-2.42a28.44,28.44,0,0,1-.29-2.84,5.68,5.68,0,0,1-5.53,3.28,5.52,5.52,0,0,1-4.07-1.41,4.6,4.6,0,0,1-1.43-3.38,4.75,4.75,0,0,1,2-3.94q2-1.55,6.91-1.54c.44,0,1.14,0,2.09.06a9.25,9.25,0,0,0-.28-2.71,2.47,2.47,0,0,0-1.23-1.33,5.19,5.19,0,0,0-2.47-.5c-2.49,0-3.94.94-4.34,2.84l-2.27-.39c.55-2.91,2.88-4.36,7-4.36q3.27,0,4.63,1.45t1.37,5v6.71A13.29,13.29,0,0,0,146,122.79Zm-2.71-7.89c-1-.06-1.76-.1-2.28-.1a8.84,8.84,0,0,0-4.51,1,3.05,3.05,0,0,0-1.61,2.79,2.6,2.6,0,0,0,.87,2,3.52,3.52,0,0,0,2.5.82,4.65,4.65,0,0,0,3.65-1.62,5.49,5.49,0,0,0,1.43-3.79A10.18,10.18,0,0,0,143.3,114.9Z"/><path class="cls-1" d="M163,122.79h-2.29V112.65a4.07,4.07,0,0,0-1-3.08,3.26,3.26,0,0,0-2.31-.89,4,4,0,0,0-3.15,1.5,5.89,5.89,0,0,0-1.27,3.95v8.66h-2.45V107h2.28v2.9c1.28-2.22,2.94-3.34,5-3.34a5,5,0,0,1,3,.91,4.87,4.87,0,0,1,1.7,2.06,12.38,12.38,0,0,1,.46,4.12Z"/><path class="cls-1" d="M180.26,101.46v21.33H178v-2.7a5.35,5.35,0,0,1-5,3.14,5.51,5.51,0,0,1-4.56-2.33,9.38,9.38,0,0,1-1.78-5.87,9.94,9.94,0,0,1,1.77-6,5.52,5.52,0,0,1,4.68-2.42,5.44,5.44,0,0,1,4.64,2.59v-7.7ZM177.8,113.1a4.5,4.5,0,0,0-1.26-3.33,4.08,4.08,0,0,0-2.95-1.25,3.58,3.58,0,0,0-3,1.63,7.61,7.61,0,0,0-1.18,4.56,8.86,8.86,0,0,0,1.08,4.83,3.41,3.41,0,0,0,3,1.66,4,4,0,0,0,3-1.44,4.84,4.84,0,0,0,1.31-3.38Z"/><path class="cls-1" d="M195.59,118.09l2.28.46a6.43,6.43,0,0,1-2.44,3.35,7,7,0,0,1-4.27,1.33,6.63,6.63,0,0,1-5.23-2.28,9.93,9.93,0,0,1,.08-12.06,6.69,6.69,0,0,1,5.22-2.32,6.28,6.28,0,0,1,5,2.14c1.26,1.43,1.9,3.56,1.93,6.41H186.66q0,3.57,1.5,4.83a4.91,4.91,0,0,0,3.18,1.25A4.34,4.34,0,0,0,195.59,118.09Zm-.14-4.8a7.08,7.08,0,0,0-.44-2.36,4,4,0,0,0-1.38-1.76,3.78,3.78,0,0,0-2.33-.72,4.15,4.15,0,0,0-3.1,1.31,5.44,5.44,0,0,0-1.43,3.53Z"/><path class="cls-1" d="M204.27,122.79h-2.45V101.46h2.45Z"/><path class="cls-1" d="M95.05,161.63A6,6,0,0,1,90,159.22a9.67,9.67,0,0,1-1.82-6,8.63,8.63,0,0,1,2-6A6.61,6.61,0,0,1,95.3,145a6.21,6.21,0,0,1,5.15,2.37,9.19,9.19,0,0,1,1.89,5.92,8.84,8.84,0,0,1-2,6A6.62,6.62,0,0,1,95.05,161.63Zm.19-2a3.9,3.9,0,0,0,3.14-1.55,7.5,7.5,0,0,0,1.27-4.81q0-3.28-1.33-4.76A4.05,4.05,0,0,0,95.21,147a3.91,3.91,0,0,0-3.09,1.49,7.21,7.21,0,0,0-1.27,4.73q0,3.42,1.27,4.9A4,4,0,0,0,95.24,159.6Z"/><path class="cls-1" d="M118.91,142.94v1.95a4.39,4.39,0,0,0-2.25.39,2.05,2.05,0,0,0-.76,1.41,5.71,5.71,0,0,1,1.51,3.81,5,5,0,0,1-1.64,3.71,6.22,6.22,0,0,1-4.43,1.54,5.59,5.59,0,0,1-1.08-.09,7,7,0,0,0-1.08-.17,2,2,0,0,0-1,.41,1.27,1.27,0,0,0-.59,1.07,1.17,1.17,0,0,0,.86,1.22,18.31,18.31,0,0,0,4,.36,22,22,0,0,1,4,.37,4.07,4.07,0,0,1,2.18,1.28,3.52,3.52,0,0,1,.89,2.43q0,4.51-7.94,4.51a10.32,10.32,0,0,1-5.49-1.13,3.49,3.49,0,0,1-1.73-3,3.18,3.18,0,0,1,2.41-3.16,3,3,0,0,1-1.55-2.54c0-1.22.73-2.15,2.19-2.8a5.12,5.12,0,0,1-2.05-4.17,4.85,4.85,0,0,1,1.75-3.84,6.34,6.34,0,0,1,4.27-1.5,7.71,7.71,0,0,1,3.23.67,3,3,0,0,1,1.09-2.14,4.6,4.6,0,0,1,2.58-.59Zm-10.43,17.61a2.37,2.37,0,0,0-1.72,2.17,2.07,2.07,0,0,0,1.41,1.87,8.51,8.51,0,0,0,3.6.66,11.52,11.52,0,0,0,3.72-.57c1.13-.38,1.69-1,1.69-1.93a1.58,1.58,0,0,0-.5-1.2,2.44,2.44,0,0,0-1.37-.59,28.08,28.08,0,0,0-3-.19C110.57,160.73,109.3,160.65,108.48,160.55Zm2.93-6.67a3.49,3.49,0,0,0,2.55-1,3.32,3.32,0,0,0,1-2.5,3.45,3.45,0,0,0-3.5-3.54,3.67,3.67,0,0,0-2.47.93,3.71,3.71,0,0,0-.11,5.12A3.47,3.47,0,0,0,111.41,153.88Z"/><path class="cls-1" d="M142.07,139.86v21.33h-2.22v-2.7a5.34,5.34,0,0,1-5,3.14,5.5,5.5,0,0,1-4.55-2.33,9.33,9.33,0,0,1-1.79-5.87,9.94,9.94,0,0,1,1.77-6A5.54,5.54,0,0,1,135,145a5.46,5.46,0,0,1,4.64,2.59v-7.7Zm-2.45,11.64a4.47,4.47,0,0,0-1.27-3.33,4.08,4.08,0,0,0-2.95-1.25,3.6,3.6,0,0,0-3,1.63,7.61,7.61,0,0,0-1.18,4.56,8.77,8.77,0,0,0,1.09,4.83,3.38,3.38,0,0,0,3,1.66,4,4,0,0,0,3-1.44,4.83,4.83,0,0,0,1.32-3.38Z"/><path class="cls-1" d="M149.51,139.86v2.74h-2.64v-2.74Zm-.08,5.55v15.78H147V145.41Z"/><path class="cls-1" d="M167.21,142.94v1.95a4.44,4.44,0,0,0-2.26.39,2,2,0,0,0-.75,1.41,5.71,5.71,0,0,1,1.51,3.81,4.92,4.92,0,0,1-1.65,3.71,6.21,6.21,0,0,1-4.43,1.54,5.74,5.74,0,0,1-1.08-.09,7,7,0,0,0-1.07-.17,2,2,0,0,0-1,.41,1.24,1.24,0,0,0-.59,1.07,1.16,1.16,0,0,0,.86,1.22,18.27,18.27,0,0,0,4,.36,22.07,22.07,0,0,1,4,.37A4.07,4.07,0,0,1,167,160.2a3.52,3.52,0,0,1,.89,2.43q0,4.51-7.94,4.51a10.32,10.32,0,0,1-5.49-1.13,3.47,3.47,0,0,1-1.73-3,3.18,3.18,0,0,1,2.41-3.16,3,3,0,0,1-1.55-2.54c0-1.22.73-2.15,2.19-2.8a5.12,5.12,0,0,1-2-4.17,4.82,4.82,0,0,1,1.75-3.84,6.34,6.34,0,0,1,4.27-1.5,7.74,7.74,0,0,1,3.23.67A3,3,0,0,1,164,143.5a4.58,4.58,0,0,1,2.58-.59Zm-10.44,17.61a2.38,2.38,0,0,0-1.72,2.17,2.08,2.08,0,0,0,1.42,1.87,8.51,8.51,0,0,0,3.6.66,11.61,11.61,0,0,0,3.72-.57c1.12-.38,1.69-1,1.69-1.93a1.58,1.58,0,0,0-.5-1.2,2.47,2.47,0,0,0-1.37-.59,28.28,28.28,0,0,0-3-.19C158.87,160.73,157.6,160.65,156.77,160.55Zm2.94-6.67a3.51,3.51,0,0,0,2.55-1,3.35,3.35,0,0,0,1-2.5,3.4,3.4,0,0,0-1-2.55,3.43,3.43,0,0,0-2.48-1,3.67,3.67,0,0,0-2.47.93,3.74,3.74,0,0,0-.11,5.12A3.51,3.51,0,0,0,159.71,153.88Z"/><path class="cls-1" d="M172.57,139.86v2.74h-2.64v-2.74Zm-.08,5.55v15.78H170V145.41Z"/><path class="cls-1" d="M184.54,159.52v1.94a18.42,18.42,0,0,1-2.25.17q-4.57,0-4.58-4.79v-9.51h-2.8v-1.92h2.8l.11-4,2.28-.22v4.19h3.53v1.92H180.1v9.92c0,1.63.85,2.44,2.53,2.44A12.59,12.59,0,0,0,184.54,159.52Z"/><path class="cls-1" d="M199.57,161.19h-2.42a26.42,26.42,0,0,1-.28-2.84,5.7,5.7,0,0,1-5.53,3.28,5.54,5.54,0,0,1-4.08-1.41,4.59,4.59,0,0,1-1.42-3.38,4.73,4.73,0,0,1,2-3.94c1.35-1,3.65-1.54,6.9-1.54q.66,0,2.1.06a9.17,9.17,0,0,0-.29-2.71,2.43,2.43,0,0,0-1.23-1.33,5.16,5.16,0,0,0-2.47-.5c-2.49,0-3.93,1-4.34,2.84l-2.27-.39q.84-4.37,7-4.36c2.18,0,3.72.48,4.64,1.45s1.36,2.63,1.36,5v6.71A13.29,13.29,0,0,0,199.57,161.19Zm-2.7-7.89q-1.5-.09-2.28-.09a8.87,8.87,0,0,0-4.52.95,3.07,3.07,0,0,0-1.61,2.79,2.6,2.6,0,0,0,.87,2,3.54,3.54,0,0,0,2.51.82,4.64,4.64,0,0,0,3.64-1.62,5.49,5.49,0,0,0,1.43-3.79C196.91,154,196.9,153.7,196.87,153.3Z"/><path class="cls-1" d="M206.6,161.19h-2.45V139.86h2.45Z"/><path class="cls-1" d="M74.3,199.59H71.91v-9.81a9.23,9.23,0,0,0-.21-2.28,2.86,2.86,0,0,0-1-1.39,2.9,2.9,0,0,0-1.83-.63,3.87,3.87,0,0,0-2.71,1.29,5.31,5.31,0,0,0-1.3,3.93v8.89H62.45V189.2a3.72,3.72,0,0,0-1-2.94,3.17,3.17,0,0,0-2.08-.86,3.47,3.47,0,0,0-2.72,1.35,5,5,0,0,0-1.16,3.4v9.44H53.16V183.81h2.11v3q1.75-3.47,4.86-3.47A4.1,4.1,0,0,1,63,184.48a5.09,5.09,0,0,1,1.53,2.67q1.62-3.78,5-3.78a4.56,4.56,0,0,1,2.82.92,4.28,4.28,0,0,1,1.58,2.12,12.21,12.21,0,0,1,.37,3.37Z"/><path class="cls-1" d="M91.55,199.59H89.13a28.44,28.44,0,0,1-.29-2.84A5.68,5.68,0,0,1,83.31,200a5.56,5.56,0,0,1-4.08-1.41,4.63,4.63,0,0,1-1.42-3.38,4.75,4.75,0,0,1,2-3.94c1.36-1,3.66-1.54,6.91-1.54.44,0,1.14,0,2.09.06a8.84,8.84,0,0,0-.29-2.71,2.41,2.41,0,0,0-1.22-1.33,5.19,5.19,0,0,0-2.47-.5q-3.73,0-4.34,2.84l-2.27-.39c.55-2.91,2.88-4.36,7-4.36q3.27,0,4.63,1.45t1.37,5v6.71A13.29,13.29,0,0,0,91.55,199.59Zm-2.71-7.89q-1.5-.09-2.28-.09a8.85,8.85,0,0,0-4.51.95,3.05,3.05,0,0,0-1.61,2.79,2.62,2.62,0,0,0,.86,2,3.51,3.51,0,0,0,2.51.82,4.65,4.65,0,0,0,3.65-1.62,5.54,5.54,0,0,0,1.43-3.79A10.18,10.18,0,0,0,88.84,191.7Z"/><path class="cls-1" d="M98.58,199.59H96.13V183.81h2.15v3.69a7.94,7.94,0,0,1,2.29-3.39,4.21,4.21,0,0,1,2.35-.77c.25,0,.57,0,1,.06v2.35h-.5a4.3,4.3,0,0,0-3.37,1.51,6.13,6.13,0,0,0-1.44,4Z"/><path class="cls-1" d="M119.55,199.59H117l-4.61-8.81L109,194.71v4.88h-2.45V178.26H109v13.67l7.33-8.12h2.62L114,189.35Z"/><path class="cls-1" d="M132.27,194.89l2.28.47a6.44,6.44,0,0,1-2.44,3.34,7,7,0,0,1-4.27,1.33,6.63,6.63,0,0,1-5.23-2.28,9.93,9.93,0,0,1,.08-12.06,6.72,6.72,0,0,1,5.22-2.32,6.28,6.28,0,0,1,5,2.14c1.26,1.43,1.9,3.56,1.93,6.41H123.34q0,3.57,1.5,4.83A4.91,4.91,0,0,0,128,198,4.34,4.34,0,0,0,132.27,194.89Zm-.14-4.8a7.13,7.13,0,0,0-.44-2.36,4,4,0,0,0-1.38-1.76,3.78,3.78,0,0,0-2.33-.72,4.15,4.15,0,0,0-3.1,1.31,5.44,5.44,0,0,0-1.43,3.53Z"/><path class="cls-1" d="M150.83,178.26v21.33h-2.22v-2.7a5.35,5.35,0,0,1-5,3.14,5.53,5.53,0,0,1-4.56-2.32,9.43,9.43,0,0,1-1.78-5.88,9.94,9.94,0,0,1,1.77-6,5.52,5.52,0,0,1,4.68-2.42,5.46,5.46,0,0,1,4.65,2.59v-7.7Zm-2.45,11.64a4.51,4.51,0,0,0-1.27-3.33,4.08,4.08,0,0,0-3-1.25,3.58,3.58,0,0,0-3,1.63,7.61,7.61,0,0,0-1.18,4.56,8.86,8.86,0,0,0,1.08,4.83,3.41,3.41,0,0,0,3,1.66,4,4,0,0,0,3-1.44,4.83,4.83,0,0,0,1.32-3.38Z"/><path class="cls-1" d="M153.61,195.5,156,195q.78,3,4.94,3a4.63,4.63,0,0,0,2.59-.69,2.18,2.18,0,0,0,1.07-1.93c0-1.24-.9-2-2.71-2.36l-3.32-.63a6,6,0,0,1-3.11-1.47,3.76,3.76,0,0,1-1.16-2.89,4.19,4.19,0,0,1,1.58-3.32,6.37,6.37,0,0,1,4.25-1.34c3.42,0,5.54,1.34,6.34,4l-2.25.48a3.85,3.85,0,0,0-4-2.47,4.49,4.49,0,0,0-2.46.62,1.93,1.93,0,0,0-1,1.72c0,1.17.81,1.9,2.45,2.2l3.08.56q4.83.87,4.83,4.68a4.17,4.17,0,0,1-1.8,3.51,7.83,7.83,0,0,1-4.78,1.34C156.81,200,154.49,198.52,153.61,195.5Z"/><path class="cls-1" d="M177.13,183.81v1.92h-3.75v13.86h-2.46V185.73h-2.69v-1.92h2.69q.06-3.8,1.46-4.89a5.37,5.37,0,0,1,3.42-1.1,14.16,14.16,0,0,1,2.25.22v2a6,6,0,0,0-1.52-.21,3.44,3.44,0,0,0-2.38.71,3.58,3.58,0,0,0-.77,2.67v.64Z"/><path class="cls-1" d="M180.59,197.38a9.65,9.65,0,0,1-1.65-5.75,8.63,8.63,0,0,1,2-6,6.91,6.91,0,0,1,9.13-1l1.41-1.88h2.18l-2.35,3.12a9.33,9.33,0,0,1,1.76,5.76,8.89,8.89,0,0,1-2,6,6.6,6.6,0,0,1-5.25,2.34,6.05,6.05,0,0,1-4.07-1.37l-1.35,1.8h-2.13Zm1.6-2.14,6.54-8.74a4,4,0,0,0-2.75-1.1,3.93,3.93,0,0,0-3.08,1.49q-1.28,1.49-1.27,4.77A9.93,9.93,0,0,0,182.19,195.24Zm7.6-7.26-6.64,8.84A4.05,4.05,0,0,0,186,198a3.91,3.91,0,0,0,3.13-1.55,7.56,7.56,0,0,0,1.26-4.81A8.92,8.92,0,0,0,189.79,188Z"/><path class="cls-1" d="M199.25,199.59H196.8V183.81H199v3.69a8,8,0,0,1,2.29-3.39,4.21,4.21,0,0,1,2.35-.77c.25,0,.58,0,1,.06v2.35h-.5a4.3,4.3,0,0,0-3.37,1.51,6.13,6.13,0,0,0-1.44,4Z"/><path class="cls-1" d="M209.88,178.26V181h-2.65v-2.74Zm-.08,5.55v15.78h-2.46V183.81Z"/><path class="cls-1" d="M227.13,199.59h-2.3V189.45a4.11,4.11,0,0,0-1-3.08,3.3,3.3,0,0,0-2.32-.89,4,4,0,0,0-3.15,1.5,5.89,5.89,0,0,0-1.27,4v8.66h-2.45V183.81H217v2.9c1.28-2.22,2.94-3.34,5-3.34a4.94,4.94,0,0,1,3,.92,4.71,4.71,0,0,1,1.7,2.05,12.35,12.35,0,0,1,.47,4.12Z"/><path class="cls-1" d="M244.92,181.34v1.95a4.44,4.44,0,0,0-2.26.39,2,2,0,0,0-.75,1.41,5.71,5.71,0,0,1,1.51,3.81,4.92,4.92,0,0,1-1.65,3.71,6.21,6.21,0,0,1-4.43,1.54,5.55,5.55,0,0,1-1.07-.09,7.19,7.19,0,0,0-1.08-.17,2,2,0,0,0-1,.41,1.27,1.27,0,0,0-.59,1.07,1.16,1.16,0,0,0,.86,1.22,18.27,18.27,0,0,0,4,.36,22.07,22.07,0,0,1,4,.37,4.07,4.07,0,0,1,2.18,1.28,3.52,3.52,0,0,1,.89,2.43q0,4.51-7.94,4.51c-2.51,0-4.34-.37-5.49-1.13a3.49,3.49,0,0,1-1.73-3,3.18,3.18,0,0,1,2.41-3.16,3,3,0,0,1-1.55-2.54c0-1.22.73-2.15,2.19-2.8a5.12,5.12,0,0,1-2.05-4.17,4.82,4.82,0,0,1,1.75-3.84,6.34,6.34,0,0,1,4.27-1.5,7.74,7.74,0,0,1,3.23.67,3,3,0,0,1,1.09-2.14,4.58,4.58,0,0,1,2.58-.59ZM234.48,199a2.37,2.37,0,0,0-1.71,2.17,2.07,2.07,0,0,0,1.41,1.87,8.51,8.51,0,0,0,3.6.66,11.57,11.57,0,0,0,3.72-.57c1.13-.38,1.69-1,1.69-1.93a1.58,1.58,0,0,0-.5-1.2,2.47,2.47,0,0,0-1.37-.59,28.28,28.28,0,0,0-3-.19C236.58,199.13,235.31,199.05,234.48,199Zm2.94-6.67a3.51,3.51,0,0,0,2.55-1,3.31,3.31,0,0,0,1-2.5,3.4,3.4,0,0,0-1-2.55,3.43,3.43,0,0,0-2.48-1,3.69,3.69,0,0,0-2.47.93,3.33,3.33,0,0,0-1.07,2.65,3.28,3.28,0,0,0,1,2.47A3.47,3.47,0,0,0,237.42,192.28Z"/><path class="cls-1" d="M46.77,216.66v2.74H44.13v-2.74Zm-.08,5.55V238H44.23V222.21Z"/><path class="cls-1" d="M57.45,233.9l2.35-.49q.78,3,4.93,3a4.69,4.69,0,0,0,2.6-.69,2.17,2.17,0,0,0,1.06-1.93c0-1.24-.9-2-2.7-2.36l-3.33-.63a6.08,6.08,0,0,1-3.11-1.47,3.8,3.8,0,0,1-1.16-2.89,4.19,4.19,0,0,1,1.58-3.32,6.37,6.37,0,0,1,4.25-1.34c3.43,0,5.54,1.34,6.35,4l-2.25.48a3.87,3.87,0,0,0-4-2.47,4.49,4.49,0,0,0-2.46.62,1.94,1.94,0,0,0-1,1.72c0,1.17.82,1.9,2.45,2.2l3.08.56q4.83.87,4.83,4.68a4.17,4.17,0,0,1-1.8,3.51,7.83,7.83,0,0,1-4.78,1.34Q58.78,238.43,57.45,233.9Z"/><path class="cls-1" d="M86.77,238H84.34c-.09-.5-.18-1.45-.28-2.84a5.68,5.68,0,0,1-5.53,3.28A5.56,5.56,0,0,1,74.45,237,4.59,4.59,0,0,1,73,233.64a4.75,4.75,0,0,1,2-3.94c1.36-1,3.66-1.54,6.91-1.54.44,0,1.13,0,2.09.06a8.84,8.84,0,0,0-.29-2.71,2.41,2.41,0,0,0-1.22-1.33,5.19,5.19,0,0,0-2.47-.5q-3.73,0-4.35,2.84l-2.26-.39q.82-4.37,7-4.36c2.17,0,3.72.48,4.63,1.45s1.37,2.63,1.37,5v6.71A13.29,13.29,0,0,0,86.77,238Zm-2.71-7.89q-1.5-.09-2.28-.09a8.82,8.82,0,0,0-4.51,1,3.05,3.05,0,0,0-1.61,2.79,2.62,2.62,0,0,0,.86,2,3.51,3.51,0,0,0,2.51.82,4.65,4.65,0,0,0,3.65-1.62,5.54,5.54,0,0,0,1.43-3.79C84.11,230.84,84.09,230.5,84.06,230.1Z"/><path class="cls-1" d="M112.48,238h-2.39v-9.81a9.23,9.23,0,0,0-.21-2.28,2.78,2.78,0,0,0-1-1.39,2.9,2.9,0,0,0-1.83-.63,3.85,3.85,0,0,0-2.71,1.29,5.31,5.31,0,0,0-1.3,3.93V238h-2.38V227.6a3.73,3.73,0,0,0-1-2.94,3.17,3.17,0,0,0-2.09-.86,3.49,3.49,0,0,0-2.72,1.35,5,5,0,0,0-1.15,3.4V238H91.34V222.21h2.11v3q1.77-3.47,4.86-3.47a4.07,4.07,0,0,1,2.89,1.11,5.09,5.09,0,0,1,1.53,2.67q1.63-3.78,5-3.78a4.56,4.56,0,0,1,2.82.92,4.28,4.28,0,0,1,1.58,2.12,12.27,12.27,0,0,1,.36,3.37Z"/><path class="cls-1" d="M138.53,238h-2.39v-9.81a9.23,9.23,0,0,0-.21-2.28,2.78,2.78,0,0,0-1-1.39,2.94,2.94,0,0,0-1.83-.63,3.85,3.85,0,0,0-2.71,1.29,5.31,5.31,0,0,0-1.31,3.93V238h-2.37V227.6a3.73,3.73,0,0,0-1-2.94,3.19,3.19,0,0,0-2.09-.86,3.49,3.49,0,0,0-2.72,1.35,5,5,0,0,0-1.16,3.4V238h-2.34V222.21h2.11v3q1.77-3.47,4.86-3.47a4.08,4.08,0,0,1,2.89,1.11,5.09,5.09,0,0,1,1.53,2.67c1.08-2.52,2.75-3.78,5-3.78a4.56,4.56,0,0,1,2.82.92,4.26,4.26,0,0,1,1.57,2.12,11.83,11.83,0,0,1,.37,3.37Z"/><path class="cls-1" d="M153.86,233.29l2.28.47a6.44,6.44,0,0,1-2.44,3.34,7,7,0,0,1-4.26,1.33,6.65,6.65,0,0,1-5.24-2.28,8.71,8.71,0,0,1-2-6,8.83,8.83,0,0,1,2.08-6.1,6.75,6.75,0,0,1,5.22-2.32,6.34,6.34,0,0,1,5,2.14c1.25,1.43,1.9,3.56,1.93,6.41H144.94q0,3.57,1.5,4.83a4.89,4.89,0,0,0,3.17,1.25A4.34,4.34,0,0,0,153.86,233.29Zm-.14-4.8a6.89,6.89,0,0,0-.44-2.36,4.07,4.07,0,0,0-1.37-1.76,3.82,3.82,0,0,0-2.33-.72,4.13,4.13,0,0,0-3.1,1.31,5.39,5.39,0,0,0-1.43,3.53Z"/><path class="cls-1" d="M170.55,238h-2.46V216.66h2.46Z"/><path class="cls-1" d="M175.87,235.78a9.65,9.65,0,0,1-1.65-5.75,8.58,8.58,0,0,1,2.05-6,6.89,6.89,0,0,1,9.12-1l1.41-1.88H189l-2.34,3.12a9.32,9.32,0,0,1,1.75,5.76,8.88,8.88,0,0,1-2,6,6.64,6.64,0,0,1-5.26,2.34,6.05,6.05,0,0,1-4.07-1.37l-1.35,1.81h-2.13Zm1.6-2.14L184,224.9a4,4,0,0,0-2.75-1.1,3.93,3.93,0,0,0-3.08,1.49q-1.27,1.49-1.27,4.77A9.93,9.93,0,0,0,177.47,233.64Zm7.6-7.26-6.64,8.84a4.05,4.05,0,0,0,2.88,1.18,3.91,3.91,0,0,0,3.13-1.55A7.56,7.56,0,0,0,185.7,230,8.92,8.92,0,0,0,185.07,226.38Z"/><path class="cls-1" d="M190,233.9l2.35-.49q.78,3,4.93,3a4.69,4.69,0,0,0,2.6-.69,2.17,2.17,0,0,0,1.06-1.93c0-1.24-.9-2-2.7-2.36l-3.33-.63a6.08,6.08,0,0,1-3.11-1.47,3.8,3.8,0,0,1-1.16-2.89,4.19,4.19,0,0,1,1.58-3.32,6.37,6.37,0,0,1,4.25-1.34c3.43,0,5.54,1.34,6.35,4l-2.25.48a3.87,3.87,0,0,0-4-2.47,4.49,4.49,0,0,0-2.46.62,1.94,1.94,0,0,0-1,1.72c0,1.17.82,1.9,2.45,2.2l3.08.56q4.83.87,4.83,4.68a4.17,4.17,0,0,1-1.8,3.51,7.83,7.83,0,0,1-4.78,1.34Q191.28,238.43,190,233.9Z"/><path class="cls-1" d="M219.36,238h-2.3V227.85a4.13,4.13,0,0,0-.95-3.08,3.29,3.29,0,0,0-2.31-.89,4,4,0,0,0-3.15,1.5,5.89,5.89,0,0,0-1.27,4V238h-2.46V222.21h2.28v2.91c1.28-2.23,3-3.35,5-3.35a5,5,0,0,1,3,.92,4.86,4.86,0,0,1,1.7,2.05,12.45,12.45,0,0,1,.46,4.13Z"/><path class="cls-1" d="M226.8,216.66v2.74h-2.64v-2.74Zm-.08,5.55V238h-2.45V222.21Z"/><path class="cls-1" d="M244.05,238h-2.3V227.85a4.13,4.13,0,0,0-.95-3.08,3.3,3.3,0,0,0-2.32-.89,3.94,3.94,0,0,0-3.14,1.5,5.9,5.9,0,0,0-1.28,4V238h-2.45V222.21h2.28v2.91q1.92-3.35,5-3.35a4.93,4.93,0,0,1,3,.92,4.81,4.81,0,0,1,1.71,2.05,12.73,12.73,0,0,1,.46,4.13Z"/><path class="cls-1" d="M261.84,219.74v1.95a4.39,4.39,0,0,0-2.25.39,2.05,2.05,0,0,0-.76,1.41,5.71,5.71,0,0,1,1.51,3.81A5,5,0,0,1,258.7,231a6.22,6.22,0,0,1-4.43,1.54,5.59,5.59,0,0,1-1.08-.09,7.19,7.19,0,0,0-1.08-.17,2,2,0,0,0-1,.41,1.27,1.27,0,0,0-.59,1.07,1.17,1.17,0,0,0,.86,1.22,18.31,18.31,0,0,0,4,.36,22,22,0,0,1,4,.37,4.07,4.07,0,0,1,2.18,1.28,3.52,3.52,0,0,1,.89,2.43q0,4.51-7.94,4.51c-2.51,0-4.34-.37-5.49-1.13a3.49,3.49,0,0,1-1.73-3,3.18,3.18,0,0,1,2.41-3.16,3,3,0,0,1-1.55-2.54c0-1.22.73-2.15,2.19-2.8a5.12,5.12,0,0,1-2.05-4.17,4.85,4.85,0,0,1,1.75-3.84,6.34,6.34,0,0,1,4.27-1.5,7.71,7.71,0,0,1,3.23.67,3,3,0,0,1,1.09-2.14,4.6,4.6,0,0,1,2.58-.59Zm-10.43,17.61a2.37,2.37,0,0,0-1.72,2.17,2.06,2.06,0,0,0,1.41,1.87,8.51,8.51,0,0,0,3.6.66,11.52,11.52,0,0,0,3.72-.57c1.13-.38,1.69-1,1.69-1.93a1.58,1.58,0,0,0-.5-1.2,2.44,2.44,0,0,0-1.37-.59,28.08,28.08,0,0,0-3-.19C253.5,237.53,252.23,237.45,251.41,237.35Zm2.93-6.67a3.51,3.51,0,0,0,2.55-1,3.32,3.32,0,0,0,1-2.5,3.45,3.45,0,0,0-3.5-3.54,3.67,3.67,0,0,0-2.47.93,3.71,3.71,0,0,0-.11,5.12A3.47,3.47,0,0,0,254.34,230.68Z"/></svg>