<svg id="Layer_1" data-name="Layer 1" xmlns="http://www.w3.org/2000/svg" viewBox="0 0 300 250"><defs><style>.cls-1{fill:#d4ac76;}</style></defs><title>text</title><path class="cls-1" d="M71.71,169.67v-8.89h2.92a2.66,2.66,0,0,1,2,.74,2.45,2.45,0,0,1,.76,1.83,2.1,2.1,0,0,1-1,1.79,2.43,2.43,0,0,1,1,.8,1.84,1.84,0,0,1,.37,1.13,2.44,2.44,0,0,1-.78,1.88,2.77,2.77,0,0,1-2,.72Zm2.73-7.41H73.25v2.23h1.33a1.22,1.22,0,0,0,.88-.33,1.08,1.08,0,0,0,.34-.82.92.92,0,0,0-.37-.78A1.54,1.54,0,0,0,74.44,162.26Zm.25,3.57H73.25v2.35h1.41a1.44,1.44,0,0,0,1-.33,1.21,1.21,0,0,0,0-1.71A1.44,1.44,0,0,0,74.69,165.83Z"/><path class="cls-1" d="M80.14,169.67v-8.89h1.67v7.29h3.26v1.6Z"/><path class="cls-1" d="M87.24,169.67v-8.89h1.67v8.89Z"/><path class="cls-1" d="M98,169.8a3,3,0,0,1-1.82-.56,2.78,2.78,0,0,1-1.07-1.47l1.41-.74a1.68,1.68,0,0,0,.56.85,1.51,1.51,0,0,0,1,.33,1.23,1.23,0,0,0,1-.46,1.8,1.8,0,0,0,.38-1.2v-5.77h1.67v5.83a3.07,3.07,0,0,1-.89,2.35A3.14,3.14,0,0,1,98,169.8Z"/><path class="cls-1" d="M109.55,168.87a3.65,3.65,0,0,1-4.87,0,3.17,3.17,0,0,1-1-2.36v-5.73h1.67v5.52a2,2,0,0,0,.46,1.37,1.58,1.58,0,0,0,1.27.54,1.55,1.55,0,0,0,1.26-.54,2,2,0,0,0,.46-1.35v-5.54h1.67v5.73A3.17,3.17,0,0,1,109.55,168.87Z"/><path class="cls-1" d="M113.26,169.67v-8.89h2.92a2.66,2.66,0,0,1,1.95.74,2.45,2.45,0,0,1,.76,1.83,2.1,2.1,0,0,1-1,1.79,2.49,2.49,0,0,1,1,.8,1.84,1.84,0,0,1,.37,1.13,2.44,2.44,0,0,1-.78,1.88,2.77,2.77,0,0,1-2,.72Zm2.73-7.41H114.8v2.23h1.33a1.22,1.22,0,0,0,.88-.33,1.08,1.08,0,0,0,.34-.82.92.92,0,0,0-.37-.78A1.54,1.54,0,0,0,116,162.26Zm.25,3.57H114.8v2.35h1.41a1.44,1.44,0,0,0,1-.33,1.21,1.21,0,0,0,0-1.71A1.46,1.46,0,0,0,116.24,165.83Z"/><path class="cls-1" d="M121.69,169.67v-8.89h1.66v8.89Z"/><path class="cls-1" d="M126.3,169.67v-8.89H128v7.29h3.26v1.6Z"/><path class="cls-1" d="M138.36,165.91h-3.29v2.27h3.61v1.49h-5.27v-8.89h5.17v1.48h-3.51v2.16h3.29Z"/><path class="cls-1" d="M146.8,168.87a3.65,3.65,0,0,1-4.87,0,3.17,3.17,0,0,1-1-2.36v-5.73h1.67v5.52a2,2,0,0,0,.46,1.37,1.75,1.75,0,0,0,2.53,0,2,2,0,0,0,.46-1.35v-5.54h1.67v5.73A3.17,3.17,0,0,1,146.8,168.87Z"/><path class="cls-1" d="M150.51,169.67v-8.89h1.61l2.75,4.38,2.78-4.38h1.75v8.89h-1.67v-6.09l-.14,0-2.75,4.26-2.69-4.2h0v6Z"/><path class="cls-1" d="M164.52,169.78a4.32,4.32,0,0,1-1.68-.35,4.46,4.46,0,0,1-1.44-1l1.06-1.27a3.22,3.22,0,0,0,1,.8,2.56,2.56,0,0,0,1.17.31,1.41,1.41,0,0,0,.95-.31,1,1,0,0,0,.37-.76,1.33,1.33,0,0,0-1-1.24l-1-.4a3.71,3.71,0,0,1-1.48-1,2.24,2.24,0,0,1-.47-1.51,2.29,2.29,0,0,1,.75-1.68,2.56,2.56,0,0,1,1.88-.75,3.83,3.83,0,0,1,2.74,1l-1,1.24a2.27,2.27,0,0,0-1.76-.77,1.17,1.17,0,0,0-.79.25.8.8,0,0,0-.3.63.85.85,0,0,0,.23.61,2.44,2.44,0,0,0,.76.46l1,.41a2.74,2.74,0,0,1,2,2.57,2.46,2.46,0,0,1-.83,1.94A3.24,3.24,0,0,1,164.52,169.78Z"/><path class="cls-1" d="M169.91,169.67v-8.89h1.54v3.92l3.4-3.92h2.06l-3.14,3.54,3.21,5.35h-1.92l-2.42-4.06L171.45,167v2.72Z"/><path class="cls-1" d="M184.67,168.87a3.65,3.65,0,0,1-4.87,0,3.17,3.17,0,0,1-1-2.36v-5.73h1.67v5.52a2,2,0,0,0,.46,1.37,1.75,1.75,0,0,0,2.53,0,2,2,0,0,0,.46-1.35v-5.54h1.67v5.73A3.17,3.17,0,0,1,184.67,168.87Z"/><path class="cls-1" d="M188.38,169.67v-8.89h1.16l4.38,5.59v-5.59h1.67v8.89h-1.12L190,164v5.66Z"/><path class="cls-1" d="M198.53,169.67v-8.89h2.54a4.33,4.33,0,0,1,3.14,1.27,4.25,4.25,0,0,1,1.31,3.2,4.14,4.14,0,0,1-1.32,3.17,4.56,4.56,0,0,1-3.23,1.25Zm2.56-7.41h-1v5.92h1a2.52,2.52,0,0,0,2-.86,3,3,0,0,0,.79-2.12,2.93,2.93,0,0,0-.8-2.1A2.6,2.6,0,0,0,201.09,162.26Z"/><path class="cls-1" d="M212.4,169.67v-8.89h1.17l4.37,5.59v-5.59h1.67v8.89h-1.12L214.07,164v5.66Z"/><path class="cls-1" d="M228.19,168.87a3.64,3.64,0,0,1-4.86,0,3.17,3.17,0,0,1-1-2.36v-5.73H224v5.52a2.07,2.07,0,0,0,.45,1.37,1.76,1.76,0,0,0,2.54,0,2,2,0,0,0,.46-1.35v-5.54h1.66v5.73A3.17,3.17,0,0,1,228.19,168.87Z"/></svg>