<svg id="Layer_1" data-name="Layer 1" xmlns="http://www.w3.org/2000/svg" viewBox="0 0 300 250"><defs><style>.cls-1{fill:#d80201;}</style></defs><title>text</title><path class="cls-1" d="M47,106.48v17.73H42.82V106.48H38.06v-3.62H51.78v3.62Z"/><path class="cls-1" d="M62.06,113.87a3.43,3.43,0,0,0-1.86-.48c-2.62,0-3.33,1.86-3.33,4.16v6.66H53V110.35h3.87v2.08a4.52,4.52,0,0,1,5.73-2.21Z"/><path class="cls-1" d="M75.11,124.21v-1.82a5.35,5.35,0,0,1-4.51,2.27c-4.16,0-6.82-3.46-6.82-7.42s2.66-7.33,6.72-7.33a5.77,5.77,0,0,1,4.61,2.21v-1.76H79v13.85Zm-3.46-10.82a3.89,3.89,0,1,0,3.87,3.87A3.86,3.86,0,0,0,71.66,113.39Zm-.54-5.47a2.88,2.88,0,1,1,0-5.76,2.88,2.88,0,1,1,0,5.76Zm0-4A1.12,1.12,0,1,0,72.23,105,1.09,1.09,0,0,0,71.11,103.92Z"/><path class="cls-1" d="M92.2,124.21v-7.68c0-1.89-.42-3.33-2.62-3.33-2.4,0-3,1.76-3,3.84v7.17H82.73V110.35H86.6V112A5.11,5.11,0,0,1,91,109.9a4.79,4.79,0,0,1,5.12,5.5v8.8Z"/><path class="cls-1" d="M112.65,129.23a7.55,7.55,0,0,1-5.89,2.43c-3.55,0-7-2-7.36-5.82h4.19a3.08,3.08,0,0,0,3.3,2.53c2.43,0,3.42-1.7,3.42-3.94v-2.08a5.76,5.76,0,0,1-4.67,2.3c-4.1,0-6.59-3.3-6.59-7.2s2.56-7.55,6.78-7.55a5.19,5.19,0,0,1,4.48,2.24v-1.79h3.9V123.7C114.21,125.87,114.12,127.5,112.65,129.23Zm-5.73-15.84a3.89,3.89,0,1,0,3.87,3.87A3.86,3.86,0,0,0,106.92,113.39Z"/><path class="cls-1" d="M126.34,124.66a5.45,5.45,0,0,1-4.54-2.27v1.82h-3.87v-24h3.87v11.87a5.88,5.88,0,0,1,4.64-2.21c4.06,0,6.75,3.46,6.75,7.33S130.5,124.66,126.34,124.66Zm-1.06-11.26a3.89,3.89,0,1,0,3.87,3.87A3.86,3.86,0,0,0,125.29,113.39Z"/><path class="cls-1" d="M143.33,124.66c-4.42,0-7.94-2.75-7.94-7.36s3.52-7.39,8-7.39,7.87,2.78,7.87,7.36S147.72,124.66,143.33,124.66Zm0-11.26a3.89,3.89,0,1,0,3.94,3.9A3.92,3.92,0,0,0,143.3,113.39Z"/><path class="cls-1" d="M164.8,124.21v-1.82a5.35,5.35,0,0,1-4.51,2.27c-4.16,0-6.82-3.46-6.82-7.42s2.66-7.33,6.72-7.33a5.77,5.77,0,0,1,4.61,2.21V100.24h3.9v24Zm-3.46-10.82a3.89,3.89,0,1,0,3.87,3.87A3.87,3.87,0,0,0,161.35,113.39Z"/><path class="cls-1" d="M183,124.21v-1.82a5.35,5.35,0,0,1-4.51,2.27c-4.16,0-6.82-3.46-6.82-7.42s2.66-7.33,6.72-7.33a5.77,5.77,0,0,1,4.61,2.21V100.24h3.9v24Zm-3.46-10.82a3.89,3.89,0,1,0,3.87,3.87A3.86,3.86,0,0,0,179.56,113.39Z"/><path class="cls-1" d="M201.22,124.21v-1.82a5.35,5.35,0,0,1-4.51,2.27c-4.16,0-6.82-3.46-6.82-7.42s2.66-7.33,6.72-7.33a5.77,5.77,0,0,1,4.61,2.21v-1.76h3.9v13.85Zm-3.46-10.82a3.89,3.89,0,1,0,3.87,3.87A3.87,3.87,0,0,0,197.76,113.39Z"/><path class="cls-1" d="M226.31,124.21v-7.68c0-1.89-.42-3.33-2.62-3.33-2.4,0-3,1.76-3,3.84v7.17h-3.87V110.35h3.87V112a5.12,5.12,0,0,1,4.35-2.14,4.79,4.79,0,0,1,5.12,5.5v8.8Z"/><path class="cls-1" d="M244.48,124.21v-1.82a5.35,5.35,0,0,1-4.51,2.27c-4.16,0-6.82-3.46-6.82-7.42s2.66-7.33,6.72-7.33a5.77,5.77,0,0,1,4.61,2.21v-1.76h3.9v13.85Zm-6.69-16.45a2.3,2.3,0,0,1,0-4.61,2.3,2.3,0,0,1,0,4.61Zm3.23,5.63a3.89,3.89,0,1,0,3.87,3.87A3.86,3.86,0,0,0,241,113.39Zm3.42-5.63a2.34,2.34,0,0,1-2.3-2.3,2.3,2.3,0,1,1,2.3,2.3Z"/><path class="cls-1" d="M261.16,113.87a3.43,3.43,0,0,0-1.86-.48c-2.62,0-3.33,1.86-3.33,4.16v6.66H252.1V110.35H256v2.08a4.52,4.52,0,0,1,5.73-2.21Z"/><path class="cls-1" d="M43.69,148.68v10.53H39.82V148.68h-1.5v-3.33h1.5v-4.45a6.75,6.75,0,0,1,.61-3.26,5.49,5.49,0,0,1,4.8-2.78,4.58,4.58,0,0,1,2,.48v3.55a3.86,3.86,0,0,0-1.76-.51c-1.73,0-1.82,1.79-1.82,3.1v3.87h3.58v3.33Z"/><path class="cls-1" d="M59.66,159.21v-1.82a5.35,5.35,0,0,1-4.51,2.27c-4.16,0-6.82-3.46-6.82-7.42S51,144.91,55,144.91a5.78,5.78,0,0,1,4.61,2.21v-1.76h3.9v13.86ZM56.2,148.39a3.89,3.89,0,1,0,3.87,3.87A3.86,3.86,0,0,0,56.2,148.39Z"/><path class="cls-1" d="M85,159.21v-7.58c0-1.63-.26-3.42-2.3-3.42-2.27,0-2.66,2.08-2.66,3.9v7.1H76.14v-7.36a6.17,6.17,0,0,0-.29-2.3,2.24,2.24,0,0,0-2.08-1.34,2.53,2.53,0,0,0-2.18,1.25,5.76,5.76,0,0,0-.45,2.66v7.1H67.27V145.35h3.87v1.57a5.32,5.32,0,0,1,4.22-2,4.71,4.71,0,0,1,4.32,2.53,5.12,5.12,0,0,1,4.54-2.53,4.56,4.56,0,0,1,3.87,2,6.11,6.11,0,0,1,.74,3.36v9Z"/><path class="cls-1" d="M94.44,141.83a2.34,2.34,0,0,1,0-4.67,2.34,2.34,0,0,1,0,4.67Zm-2,17.38V145.35h3.87v13.86Z"/><path class="cls-1" d="M100,159.21v-24h3.87v24Z"/><path class="cls-1" d="M109.48,141.83a2.34,2.34,0,1,1,0-4.67,2.34,2.34,0,0,1,0,4.67Zm-2,24.77V145.35h3.87V166.6Z"/><path class="cls-1" d="M118.28,152.9c.06,2.14,1.09,3.71,3.39,3.71a3.63,3.63,0,0,0,3.3-1.86l3.58.58c-1.22,3-3.68,4.32-6.82,4.32-4.48,0-7.42-2.88-7.42-7.39s2.82-7.36,7.26-7.36,7.07,3.07,7.07,7.49v.51Zm3.36-5.25a3.14,3.14,0,0,0-3.23,2.78H125A3.21,3.21,0,0,0,121.64,147.66Z"/><path class="cls-1" d="M141.09,159.21v-7.68c0-1.89-.42-3.33-2.62-3.33-2.4,0-3,1.76-3,3.84v7.17h-3.87V145.35h3.87V147a5.11,5.11,0,0,1,4.35-2.14,4.78,4.78,0,0,1,5.12,5.5v8.8Z"/><path class="cls-1" d="M163.72,159.5h-1.79l-7.07-14.14h4.35l3.65,7.81,3.65-7.81h4.35Z"/><path class="cls-1" d="M183.33,159.21v-1.82a5.35,5.35,0,0,1-4.51,2.27c-4.16,0-6.82-3.46-6.82-7.42s2.66-7.33,6.72-7.33a5.77,5.77,0,0,1,4.61,2.21v-1.76h3.9v13.86Zm-6.69-16.45a2.3,2.3,0,1,1,0-4.61,2.3,2.3,0,0,1,0,4.61Zm3.23,5.63a3.89,3.89,0,1,0,3.87,3.87A3.86,3.86,0,0,0,179.88,148.39Zm3.42-5.63a2.34,2.34,0,0,1-2.3-2.3,2.3,2.3,0,1,1,2.3,2.3Z"/><path class="cls-1" d="M202.12,159.21l-4-4.83-4,4.83h-5l6.59-7.55-5.31-6.3h4.9l2.85,3.58,2.91-3.58H206l-5.44,6.3,6.5,7.55Z"/><path class="cls-1" d="M211.43,152.9c.06,2.14,1.09,3.71,3.39,3.71a3.63,3.63,0,0,0,3.3-1.86l3.58.58c-1.22,3-3.68,4.32-6.82,4.32-4.48,0-7.42-2.88-7.42-7.39s2.82-7.36,7.26-7.36,7.07,3.07,7.07,7.49v.51Zm3.36-5.25a3.14,3.14,0,0,0-3.23,2.78h6.56A3.21,3.21,0,0,0,214.79,147.66Z"/><path class="cls-1" d="M233.83,148.87a3.43,3.43,0,0,0-1.86-.48c-2.62,0-3.33,1.86-3.33,4.16v6.66h-3.87V145.35h3.87v2.08a4.52,4.52,0,0,1,5.73-2.21Z"/><path class="cls-1" d="M243.49,149.35v2.72h-3.94v-5.63a6.28,6.28,0,0,0,1.12.13c2,0,4-1,4-3.2a2.41,2.41,0,0,0-2.46-2.46,2.27,2.27,0,0,0-2.3,2.27c0,.13,0,.26,0,.38h-4.16v-.38c0-3.49,3.26-5.73,6.53-5.73a6.19,6.19,0,0,1,6.46,6C248.8,146.7,246.44,148.65,243.49,149.35Zm-1.89,10.27a2.5,2.5,0,1,1,2.5-2.5A2.51,2.51,0,0,1,241.61,159.62Z"/></svg>