<svg id="Layer_1" data-name="Layer 1" xmlns="http://www.w3.org/2000/svg" viewBox="0 0 300 250"><defs><style>.cls-1{fill:#fff;}</style></defs><title>text</title><path class="cls-1" d="M110.78,122.11h-5.26l-1.38,4.4h-1.87l4.88-14.44h2.07l4.88,14.44h-1.93Zm-.46-1.48-.68-2.2c-.51-1.61-1-3.19-1.43-4.86h-.09c-.46,1.67-.92,3.25-1.43,4.86l-.7,2.2Z"/><path class="cls-1" d="M115.91,115.81h1.49l.16,1.94h.06a3.67,3.67,0,0,1,3-2.2,2.55,2.55,0,0,1,1.14.22l-.35,1.58a3,3,0,0,0-1-.17c-.9,0-2,.66-2.71,2.46v6.87h-1.8Z"/><path class="cls-1" d="M127.33,115.55c2.72,0,4.26,2,4.26,5a7.1,7.1,0,0,1-.06,1h-7.22c.13,2.31,1.52,3.76,3.57,3.76a4.8,4.8,0,0,0,2.66-.84l.64,1.19a6.43,6.43,0,0,1-3.53,1.1c-2.86,0-5.12-2.09-5.12-5.59S124.88,115.55,127.33,115.55Zm2.68,4.82c0-2.18-1-3.39-2.64-3.39-1.5,0-2.86,1.23-3.08,3.39Z"/><path class="cls-1" d="M138.76,129.61c1.21,0,2-1,2.42-2.29l.25-.79-4.29-10.72H139l2.17,5.92c.33.93.71,2,1,3h.09c.31-1,.61-2.07.9-3l1.91-5.92h1.76l-4,11.58c-.75,2.11-1.85,3.71-4,3.71a3.37,3.37,0,0,1-1.25-.22l.35-1.43A3,3,0,0,0,138.76,129.61Z"/><path class="cls-1" d="M153,115.55c2.62,0,4.95,2,4.95,5.63s-2.33,5.59-4.95,5.59-5-2-5-5.59S150.4,115.55,153,115.55Zm0,9.72c1.85,0,3.08-1.65,3.08-4.09S154.87,117,153,117s-3.08,1.68-3.08,4.14S151.19,125.27,153,125.27Z"/><path class="cls-1" d="M160.63,115.81h1.83v6.54c0,2,.59,2.86,2,2.86,1.1,0,1.87-.55,2.88-1.81v-7.59h1.81v10.7h-1.5l-.15-1.68h-.07a4.52,4.52,0,0,1-3.52,1.94c-2.27,0-3.28-1.45-3.28-4.18Z"/><path class="cls-1" d="M172.75,115.81h1.5l.15,1.94h.07a3.67,3.67,0,0,1,3-2.2,2.55,2.55,0,0,1,1.14.22l-.35,1.58a3,3,0,0,0-1-.17c-.9,0-2,.66-2.7,2.46v6.87h-1.81Z"/><path class="cls-1" d="M104.38,143.69h-1.59v-1.37l1.68-.11.22-3h1.52v3h2.88v1.48h-2.88v5.94c0,1.32.41,2.07,1.65,2.07a4,4,0,0,0,1.21-.29l.35,1.36a6.58,6.58,0,0,1-2,.4c-2.29,0-3.06-1.45-3.06-3.56Z"/><path class="cls-1" d="M115.45,142c2.61,0,5,2.05,5,5.63s-2.34,5.59-5,5.59-5-2-5-5.59S112.83,142,115.45,142Zm0,9.72c1.84,0,3.08-1.65,3.08-4.09s-1.24-4.14-3.08-4.14-3.09,1.68-3.09,4.14S113.62,151.67,115.45,151.67Z"/><path class="cls-1" d="M127.37,142c2.62,0,4.95,2.05,4.95,5.63s-2.33,5.59-4.95,5.59-5-2-5-5.59S124.75,142,127.37,142Zm0,9.72c1.85,0,3.08-1.65,3.08-4.09s-1.23-4.14-3.08-4.14-3.08,1.68-3.08,4.14S125.54,151.67,127.37,151.67Z"/><path class="cls-1" d="M135.13,137.24h1.81v13.64c0,.57.24.79.5.79a1.7,1.7,0,0,0,.4,0l.24,1.36a2.41,2.41,0,0,1-1,.18c-1.37,0-1.92-.86-1.92-2.42Z"/><path class="cls-1" d="M140.46,150.49a4.84,4.84,0,0,0,3.15,1.27c1.4,0,2.11-.75,2.11-1.67,0-1.1-1.28-1.59-2.44-2-1.52-.55-3.2-1.28-3.2-3.09s1.37-3,3.68-3a5.33,5.33,0,0,1,3.32,1.21l-.86,1.14a3.94,3.94,0,0,0-2.44-.94c-1.34,0-2,.72-2,1.54,0,1,1.17,1.38,2.38,1.85,1.54.57,3.26,1.21,3.26,3.23,0,1.74-1.39,3.19-3.92,3.19a6.45,6.45,0,0,1-4-1.47Z"/><path class="cls-1" d="M159.22,138.71a3.06,3.06,0,0,0-1.21-.26c-1,0-1.49.7-1.49,2.07v1.69h2.26v1.48h-2.26v9.22h-1.81v-9.22h-1.45v-1.37l1.45-.11v-1.69c0-2.18,1-3.54,3.13-3.54a4.78,4.78,0,0,1,1.78.35Z"/><path class="cls-1" d="M166.44,146.13c0-1.37-.46-2.69-2.2-2.69a5.79,5.79,0,0,0-3.19,1.15l-.73-1.26a8,8,0,0,1,4.21-1.38c2.62,0,3.72,1.74,3.72,4.4v6.56h-1.5l-.16-1.28h0a5.77,5.77,0,0,1-3.54,1.54,2.92,2.92,0,0,1-3.15-3C159.86,147.8,161.89,146.63,166.44,146.13Zm-2.93,5.59a4.39,4.39,0,0,0,2.93-1.43v-3c-3.59.44-4.8,1.32-4.8,2.68A1.64,1.64,0,0,0,163.51,151.72Z"/><path class="cls-1" d="M171.37,150.49a4.83,4.83,0,0,0,3.14,1.27c1.41,0,2.12-.75,2.12-1.67,0-1.1-1.28-1.59-2.45-2-1.51-.55-3.19-1.28-3.19-3.09s1.37-3,3.68-3a5.33,5.33,0,0,1,3.32,1.21l-.86,1.14a3.94,3.94,0,0,0-2.44-.94c-1.34,0-2,.72-2,1.54,0,1,1.17,1.38,2.38,1.85,1.54.57,3.26,1.21,3.26,3.23,0,1.74-1.39,3.19-3.92,3.19a6.45,6.45,0,0,1-4-1.47Z"/><path class="cls-1" d="M181.18,143.69H179.6v-1.37l1.67-.11.22-3H183v3h2.88v1.48H183v5.94c0,1.32.41,2.07,1.65,2.07a4,4,0,0,0,1.21-.29l.35,1.36a6.58,6.58,0,0,1-2,.4c-2.29,0-3.06-1.45-3.06-3.56Z"/><path class="cls-1" d="M196.76,142c2.72,0,4.26,2,4.26,5a7.15,7.15,0,0,1-.06,1h-7.22c.13,2.31,1.52,3.76,3.57,3.76a4.8,4.8,0,0,0,2.66-.84l.64,1.19a6.42,6.42,0,0,1-3.52,1.1c-2.86,0-5.13-2.09-5.13-5.59S194.31,142,196.76,142Zm2.68,4.82c0-2.18-1-3.39-2.64-3.39-1.5,0-2.86,1.23-3.08,3.39Z"/><path class="cls-1" d="M203.66,142.21h1.5l.15,1.54h.07A5,5,0,0,1,209,142c2.24,0,3.25,1.45,3.25,4.18v6.78h-1.8v-6.54c0-2-.62-2.86-2-2.86-1.1,0-1.84.57-2.92,1.65v7.75h-1.81Z"/><path class="cls-1" d="M219.86,142c2.61,0,4.95,2.05,4.95,5.63s-2.34,5.59-4.95,5.59-5-2-5-5.59S217.24,142,219.86,142Zm0,9.72c1.84,0,3.08-1.65,3.08-4.09s-1.24-4.14-3.08-4.14-3.08,1.68-3.08,4.14S218,151.67,219.86,151.67Z"/><path class="cls-1" d="M227.47,142.21h1.82v6.54c0,2,.6,2.86,2,2.86,1.11,0,1.88-.55,2.89-1.81v-7.59H236v10.7h-1.49l-.16-1.68h-.06a4.52,4.52,0,0,1-3.52,1.94c-2.27,0-3.28-1.45-3.28-4.18Z"/><path class="cls-1" d="M240.34,152.53v-.09a2,2,0,0,1-1-1.73,2.49,2.49,0,0,1,1.17-2v-.09A3.77,3.77,0,0,1,243.2,142a4.31,4.31,0,0,1,1.51.26h3.72v1.39h-2.2a3.08,3.08,0,0,1,.88,2.2,3.85,3.85,0,0,1-5.52,3.34,1.64,1.64,0,0,0-.68,1.28c0,.68.44,1.17,1.89,1.17h2.07c2.49,0,3.74.77,3.74,2.55,0,2-2.09,3.69-5.41,3.69-2.62,0-4.43-1-4.43-2.88A3.1,3.1,0,0,1,240.34,152.53Zm3.12,4.05c2,0,3.39-1.06,3.39-2.18s-.77-1.32-2.16-1.32h-1.85a5.26,5.26,0,0,1-1.38-.17,2.24,2.24,0,0,0-1.1,1.8C240.36,155.85,241.52,156.58,243.46,156.58Zm2-10.83a2.27,2.27,0,1,0-4.53,0,2.28,2.28,0,1,0,4.53,0Z"/><path class="cls-1" d="M250.68,137.24h1.8v4.27l-.06,2.2A5.1,5.1,0,0,1,256,142c2.24,0,3.26,1.45,3.26,4.18v6.78h-1.81v-6.54c0-2-.61-2.86-2-2.86-1.1,0-1.85.57-2.93,1.65v7.75h-1.8Z"/><path class="cls-1" d="M267.24,141.53a2,2,0,0,0-2.13-2.13,3.35,3.35,0,0,0-2.53,1.27l-1-.94a4.85,4.85,0,0,1,3.7-1.83c2.27,0,3.76,1.34,3.76,3.52,0,2.88-3.54,4.05-3.19,7.13h-1.58C263.74,145.12,267.24,143.86,267.24,141.53Zm-2.18,8.87a1.33,1.33,0,0,1,1.32,1.41,1.32,1.32,0,0,1-1.32,1.36,1.3,1.3,0,0,1-1.29-1.36A1.31,1.31,0,0,1,265.06,150.4Z"/></svg>