<svg id="Layer_1" data-name="Layer 1" xmlns="http://www.w3.org/2000/svg" viewBox="0 0 300 250"><defs><style>.cls-1{fill:#fff;}</style></defs><title>text</title><path class="cls-1" d="M158.25,171h-8.06c-.66,0-1-.26-1-.77V157.5c0-.53.33-.8,1-.8s1,.27,1,.8v11.7h7.07c.45,0,.67.3.67.9S158.7,171,158.25,171Z"/><path class="cls-1" d="M169.08,169.11c.45,0,.67.27.67.82a.88.88,0,0,1-.67,1,16.62,16.62,0,0,1-3.58.26,6.13,6.13,0,0,1-3.6-.81,3.27,3.27,0,0,1-1.1-2.74v-4a3.14,3.14,0,0,1,1-2.72,10.15,10.15,0,0,1,7.33,0c.63.44.94,1.36.94,2.75v1.74a1.17,1.17,0,0,1-.29.84,1,1,0,0,1-.74.3h-6.25v1.28c0,1.09.94,1.63,2.83,1.62a17,17,0,0,0,2.14-.13A10.62,10.62,0,0,1,169.08,169.11Zm-6.3-5.52v1.14h5.31v-1.14a1.39,1.39,0,0,0-.54-1.28,4.5,4.5,0,0,0-2.09-.33,4.79,4.79,0,0,0-2.11.31A1.4,1.4,0,0,0,162.78,163.59Z"/><path class="cls-1" d="M179.24,167.77v-.25a.8.8,0,0,0-.52-.76,4.29,4.29,0,0,0-1.79-.24,10.94,10.94,0,0,1-2.84-.4,2.34,2.34,0,0,1-1.29-.87,2.83,2.83,0,0,1-.51-1.76v-.18a2.62,2.62,0,0,1,1.1-2.48,7,7,0,0,1,3.38-.64,14.32,14.32,0,0,1,3.35.29.9.9,0,0,1,.67,1c0,.55-.22.82-.67.82a13.76,13.76,0,0,1-1.39-.14,15.31,15.31,0,0,0-2.2-.15,5.6,5.6,0,0,0-1.72.19c-.36.13-.55.49-.55,1.09v.2c0,.78.82,1.2,2.45,1.25.68,0,1.37.08,2,.17a3.08,3.08,0,0,1,1.74.76,2.27,2.27,0,0,1,.71,1.84v.27a3,3,0,0,1-1.11,2.69,6.9,6.9,0,0,1-3.6.71,15.6,15.6,0,0,1-3.56-.28.88.88,0,0,1-.67-1c0-.54.22-.81.67-.81a14,14,0,0,1,1.56.14,19.58,19.58,0,0,0,2.26.14,4.54,4.54,0,0,0,1.79-.3A1.25,1.25,0,0,0,179.24,167.77Z"/><path class="cls-1" d="M193.26,171.11a1.68,1.68,0,0,1-1.06-.36,2,2,0,0,1-.66-.89l-3.12-8.39c0-.22-.07-.34-.07-.35,0-.52.32-.77,1-.77a.92.92,0,0,1,1,.57l2.94,8.28h.11l3-8.28c.15-.38.5-.57,1.07-.57s.85.26.85.77c0,0,0,.13-.07.35L195,169.86a1.86,1.86,0,0,1-1.74,1.25Z"/><path class="cls-1" d="M201.28,162.27c-.46,0-.69-.28-.69-.82a.9.9,0,0,1,.69-1,15.56,15.56,0,0,1,3.57-.29,5.19,5.19,0,0,1,3.37.8,3.59,3.59,0,0,1,.89,2.77V168c0,1.33-.32,2.19-1,2.59a7.78,7.78,0,0,1-3.71.6,7.41,7.41,0,0,1-3.65-.6c-.61-.4-.92-1.26-.92-2.58a4,4,0,0,1,.71-2.71c.48-.51,1.46-.75,2.93-.75h3.63V163.4a1.2,1.2,0,0,0-.5-1.12,3.75,3.75,0,0,0-1.79-.3,14.58,14.58,0,0,0-2.25.15A9.48,9.48,0,0,1,201.28,162.27Zm5.85,5.87v-1.87h-3a4,4,0,0,0-1.84.28c-.27.19-.41.61-.41,1.27s.17,1.09.52,1.28a5.32,5.32,0,0,0,2.1.27,6.12,6.12,0,0,0,2.11-.24A1,1,0,0,0,207.13,168.14Zm-3.83-9.09a2,2,0,0,1-.59-1.45,2,2,0,0,1,.59-1.45,1.93,1.93,0,0,1,1.44-.6,2,2,0,0,1,1.45.6,2,2,0,0,1,.6,1.45,1.94,1.94,0,0,1-.6,1.45,2,2,0,0,1-1.45.6A1.93,1.93,0,0,1,203.3,159.05Zm.57-1.45a.83.83,0,0,0,.26.64.85.85,0,0,0,.63.25.87.87,0,0,0,.62-.26.89.89,0,0,0,.25-.64.84.84,0,0,0-.25-.62.91.91,0,0,0-1.27,0A.81.81,0,0,0,203.87,157.6Z"/><path class="cls-1" d="M214.15,164.75v5.48c0,.51-.33.77-1,.77s-1-.26-1-.77v-5.74a6.68,6.68,0,0,1,.36-2.74,3.4,3.4,0,0,1,.65-.93c.47-.43,1.65-.65,3.54-.65a6.4,6.4,0,0,1,1.91.19.7.7,0,0,1,.48.7,1,1,0,0,1-.27.76.87.87,0,0,1-.67.25l-1.45-.09a6.39,6.39,0,0,0-1.69.13,1.35,1.35,0,0,0-.49.25,1.56,1.56,0,0,0-.24.49,2.55,2.55,0,0,0-.14.77C214.15,163.89,214.15,164.26,214.15,164.75Z"/><path class="cls-1" d="M224.47,171a2.76,2.76,0,0,1-2.09-.64,3.23,3.23,0,0,1-.59-2.21v-6.06H220.4q-.66,0-.66-.87t.66-.87h1.39v-2.79c0-.52.33-.77,1-.77s1,.25,1,.77v2.79h2.8c.45,0,.67.29.67.87s-.22.87-.67.87h-2.8v6.21q0,.9,1.08.9l1.87-.11c.46,0,.68.26.68.79a1,1,0,0,1-.7,1.06C226.21,171,225.48,171,224.47,171Z"/><path class="cls-1" d="M148.54,192.17v-8.71c0-.53.33-.8,1-.8s1,.27,1,.8V187a6.61,6.61,0,0,1,2.65-.44,10.92,10.92,0,0,1,2.55.22,3,3,0,0,1,1.48.83,3.51,3.51,0,0,1,.86,1.7,14.38,14.38,0,0,1,.23,2.85,14.2,14.2,0,0,1-.22,2.83,2.9,2.9,0,0,1-.87,1.62,3.33,3.33,0,0,1-1.48.76,11,11,0,0,1-2.31.19,11.42,11.42,0,0,1-2.29-.18,3.07,3.07,0,0,1-1.46-.76,3.26,3.26,0,0,1-.87-1.65A13.14,13.14,0,0,1,148.54,192.17Zm7.76.44c0-.94,0-1.69-.07-2.25a3.11,3.11,0,0,0-.55-1.51c-.22-.31-1-.47-2.28-.47a4.11,4.11,0,0,0-2.07.3,1.78,1.78,0,0,0-.66,1,12.11,12.11,0,0,0-.2,2.21c0,.77,0,1.43.07,2a2.81,2.81,0,0,0,.58,1.46c.18.26.62.4,1.3.45l1,0,1,0a6.11,6.11,0,0,0,.73-.12,1,1,0,0,0,.57-.32,4.74,4.74,0,0,0,.39-.77A5.62,5.62,0,0,0,156.3,192.61Z"/><path class="cls-1" d="M163.32,183.46v13.17c0,.51-.33.77-1,.77s-1-.26-1-.77V183.46c0-.53.33-.8,1-.8S163.32,182.93,163.32,183.46Z"/><path class="cls-1" d="M166.48,192.17a13.62,13.62,0,0,1,.24-2.85,3.06,3.06,0,0,1,2.34-2.53,12.08,12.08,0,0,1,4.59,0,3.1,3.1,0,0,1,1.49.83,3.45,3.45,0,0,1,.87,1.69,13.62,13.62,0,0,1,.24,2.85A13.35,13.35,0,0,1,176,195a3,3,0,0,1-.88,1.63,3.23,3.23,0,0,1-1.48.76,10.68,10.68,0,0,1-2.29.19,11.6,11.6,0,0,1-2.3-.18,3.26,3.26,0,0,1-1.49-.76,3,3,0,0,1-.86-1.65A13.24,13.24,0,0,1,166.48,192.17Zm2.21-2.52a5.6,5.6,0,0,0-.24,2c0,.93,0,1.68.08,2.23a2.68,2.68,0,0,0,.55,1.45,1.78,1.78,0,0,0,1.29.45l1,0c1.28,0,2-.16,2.27-.47a3,3,0,0,0,.57-1.46c.05-.53.07-1.08.07-1.66,0-1.71-.16-2.74-.48-3.1a2.48,2.48,0,0,0-.37-.4,2.65,2.65,0,0,0-1.55-.3c-.79,0-1.29,0-1.51,0-.67,0-1.1.19-1.28.45A6.71,6.71,0,0,0,168.69,189.65Z"/><path class="cls-1" d="M186.83,185.53c0-.46.33-.7,1-.7s1,.24,1,.72v4.66c0,1.39-.35,2.29-1,2.73a6.79,6.79,0,0,1-3.47.66,15.74,15.74,0,0,1-3.23-.21v1.7h4a4.42,4.42,0,0,1,3,.78,3.64,3.64,0,0,1,.8,2.64,2.78,2.78,0,0,1-1.08,2.54,7.49,7.49,0,0,1-3.81.69,8.53,8.53,0,0,1-3.84-.62,2.7,2.7,0,0,1-1.11-2.55v-8.65a3.65,3.65,0,0,1,.61-2.4,3.32,3.32,0,0,1,2.33-.84,18.74,18.74,0,0,1,4.79.22Zm-5.76,4.64c0,.79.16,1.27.44,1.44a5.54,5.54,0,0,0,2.13.25,9.28,9.28,0,0,0,2.28-.18,1.1,1.1,0,0,0,.76-.53,3.41,3.41,0,0,0,.15-1.2v-1.31a23.84,23.84,0,0,0-3.14-.22,4.63,4.63,0,0,0-2,.32,1.46,1.46,0,0,0-.59,1.35Zm0,6.66v1.82a1.08,1.08,0,0,0,.71,1,6.56,6.56,0,0,0,2.33.3,4.74,4.74,0,0,0,2.16-.33,1.29,1.29,0,0,0,.56-1.24,1.35,1.35,0,0,0-.53-1.26,3.84,3.84,0,0,0-1.94-.34Z"/><path class="cls-1" d="M199.16,185.53c0-.46.33-.7,1-.7s1,.24,1,.72v4.66c0,1.39-.35,2.29-1,2.73a6.79,6.79,0,0,1-3.47.66,15.55,15.55,0,0,1-3.22-.21v1.7h4a4.47,4.47,0,0,1,3.06.78,3.69,3.69,0,0,1,.79,2.64,2.8,2.8,0,0,1-1.07,2.54,7.55,7.55,0,0,1-3.81.69,8.47,8.47,0,0,1-3.84-.62,2.68,2.68,0,0,1-1.12-2.55v-8.65a3.65,3.65,0,0,1,.61-2.4,3.34,3.34,0,0,1,2.33-.84,18.74,18.74,0,0,1,4.79.22Zm-5.75,4.64c0,.79.15,1.27.44,1.44a5.44,5.44,0,0,0,2.12.25,9.28,9.28,0,0,0,2.28-.18,1.1,1.1,0,0,0,.76-.53,3.41,3.41,0,0,0,.15-1.2v-1.31a23.84,23.84,0,0,0-3.14-.22,4.55,4.55,0,0,0-2,.32,1.42,1.42,0,0,0-.59,1.35Zm0,6.66v1.82a1.07,1.07,0,0,0,.7,1,6.56,6.56,0,0,0,2.33.3,4.82,4.82,0,0,0,2.17-.33,1.3,1.3,0,0,0,.55-1.24,1.35,1.35,0,0,0-.53-1.26,3.82,3.82,0,0,0-1.93-.34Z"/><path class="cls-1" d="M203.86,184.2a1,1,0,0,1,.32-.76,1.09,1.09,0,0,1,.75-.34,1,1,0,0,1,.77.34,1.12,1.12,0,0,1,.31.77,1.11,1.11,0,0,1-1.08,1.07,1,1,0,0,1-.76-.32A1,1,0,0,1,203.86,184.2Zm2.06,3.32v9.11c0,.51-.33.77-1,.77s-1-.26-1-.77v-9.11q0-.78,1-.78T205.92,187.52Z"/><path class="cls-1" d="M211.51,188.75a4.3,4.3,0,0,0-.37,2.38v5.5c0,.51-.33.77-1,.77s-1-.26-1-.77v-5.74a11.09,11.09,0,0,1,.19-2.36,2.07,2.07,0,0,1,.77-1.29,2.87,2.87,0,0,1,1.36-.55,21.17,21.17,0,0,1,2.43-.12c1.85,0,3,.22,3.51.68a2.92,2.92,0,0,1,.86,1.93c0,.47.07,1,.07,1.71v5.74c0,.51-.33.77-1,.77s-1-.26-1-.77v-5.5a4.3,4.3,0,0,0-.37-2.37,3.93,3.93,0,0,0-2.26-.38C212.5,188.38,211.75,188.5,211.51,188.75Z"/><path class="cls-1" d="M223.78,188.75a4.3,4.3,0,0,0-.37,2.38v5.5c0,.51-.33.77-1,.77s-1-.26-1-.77v-5.74a11,11,0,0,1,.2-2.36,2.07,2.07,0,0,1,.77-1.29,2.79,2.79,0,0,1,1.35-.55,21.38,21.38,0,0,1,2.44-.12c1.85,0,3,.22,3.5.68a2.88,2.88,0,0,1,.86,1.93,16.36,16.36,0,0,1,.08,1.71v5.74c0,.51-.33.77-1,.77s-1-.26-1-.77v-5.5c0-1.32-.12-2.11-.38-2.37a3.91,3.91,0,0,0-2.26-.38C224.77,188.38,224,188.5,223.78,188.75Z"/><path class="cls-1" d="M235.86,183.46v13.17c0,.51-.33.77-1,.77s-1-.26-1-.77V183.46c0-.53.33-.8,1-.8S235.86,182.93,235.86,183.46Z"/><path class="cls-1" d="M247.29,195.51c.45,0,.68.27.68.82a.88.88,0,0,1-.68,1,16.56,16.56,0,0,1-3.58.26,6.17,6.17,0,0,1-3.6-.81A3.23,3.23,0,0,1,239,194v-4a3.14,3.14,0,0,1,1-2.72,10.12,10.12,0,0,1,7.32,0c.63.44.95,1.36.95,2.75v1.74a1.27,1.27,0,0,1-.29.84,1,1,0,0,1-.75.3H241v1.28c0,1.09.95,1.62,2.83,1.62a17.12,17.12,0,0,0,2.15-.13A10.68,10.68,0,0,1,247.29,195.51ZM241,190v1.14h5.31V190a1.39,1.39,0,0,0-.54-1.28,4.47,4.47,0,0,0-2.09-.33,4.85,4.85,0,0,0-2.11.31A1.4,1.4,0,0,0,241,190Z"/><path class="cls-1" d="M259,185.53c0-.46.33-.7,1-.7s1,.24,1,.72v4.66c0,1.39-.34,2.29-1,2.73a6.75,6.75,0,0,1-3.46.66,15.6,15.6,0,0,1-3.23-.21v1.7h4a4.47,4.47,0,0,1,3.06.78,3.64,3.64,0,0,1,.79,2.64,2.8,2.8,0,0,1-1.07,2.54,7.55,7.55,0,0,1-3.81.69,8.53,8.53,0,0,1-3.84-.62,2.68,2.68,0,0,1-1.12-2.55v-8.65a3.7,3.7,0,0,1,.61-2.4,3.34,3.34,0,0,1,2.33-.84,18.85,18.85,0,0,1,4.8.22Zm-5.76,4.64c0,.79.15,1.27.44,1.44a5.44,5.44,0,0,0,2.12.25,9.44,9.44,0,0,0,2.29-.18,1.12,1.12,0,0,0,.76-.53A3.41,3.41,0,0,0,259,190v-1.31a24,24,0,0,0-3.15-.22,4.55,4.55,0,0,0-2,.32,1.44,1.44,0,0,0-.59,1.35Zm0,6.66v1.82a1.07,1.07,0,0,0,.71,1,6.5,6.5,0,0,0,2.32.3,4.76,4.76,0,0,0,2.17-.33,1.31,1.31,0,0,0,.56-1.24,1.37,1.37,0,0,0-.53-1.26,3.86,3.86,0,0,0-1.94-.34Z"/><path class="cls-1" d="M271.31,185.53c0-.46.33-.7,1-.7s1,.24,1,.72v4.66c0,1.39-.35,2.29-1.05,2.73a6.75,6.75,0,0,1-3.46.66,15.67,15.67,0,0,1-3.23-.21v1.7h4a4.47,4.47,0,0,1,3.06.78,3.64,3.64,0,0,1,.79,2.64,2.78,2.78,0,0,1-1.07,2.54,7.55,7.55,0,0,1-3.81.69,8.53,8.53,0,0,1-3.84-.62,2.68,2.68,0,0,1-1.12-2.55v-8.65a3.7,3.7,0,0,1,.61-2.4,3.36,3.36,0,0,1,2.33-.84,18.85,18.85,0,0,1,4.8.22Zm-5.76,4.64c0,.79.15,1.27.44,1.44a5.48,5.48,0,0,0,2.12.25,9.44,9.44,0,0,0,2.29-.18,1.12,1.12,0,0,0,.76-.53,3.41,3.41,0,0,0,.15-1.2v-1.31a24,24,0,0,0-3.14-.22,4.6,4.6,0,0,0-2,.32,1.44,1.44,0,0,0-.59,1.35Zm0,6.66v1.82a1.08,1.08,0,0,0,.71,1,6.5,6.5,0,0,0,2.32.3,4.76,4.76,0,0,0,2.17-.33,1.31,1.31,0,0,0,.56-1.24,1.37,1.37,0,0,0-.53-1.26,3.86,3.86,0,0,0-1.94-.34Z"/></svg>