<svg id="Layer_1" data-name="Layer 1" xmlns="http://www.w3.org/2000/svg" viewBox="0 0 300 250"><defs><style>.cls-1{fill:#d80201;}</style></defs><title>text</title><path class="cls-1" d="M32.58,97.27v5.18H39.9v4H32.58v10.26H28V93.32H40.39v4Z"/><path class="cls-1" d="M51.58,117.16c-4.83,0-8.68-3-8.68-8.05S46.75,101,51.62,101s8.61,3,8.61,8.05S56.38,117.16,51.58,117.16Zm0-12.32a4.25,4.25,0,1,0,4.31,4.27A4.29,4.29,0,0,0,51.55,104.84Z"/><path class="cls-1" d="M73.39,105.36a3.75,3.75,0,0,0-2-.52c-2.87,0-3.64,2-3.64,4.55v7.28H63.48V101.51h4.24v2.28A4.95,4.95,0,0,1,74,101.37Z"/><path class="cls-1" d="M95.44,116.67v-8.3c0-1.79-.28-3.75-2.52-3.75-2.49,0-2.91,2.28-2.91,4.27v7.77H85.78v-8.05a6.75,6.75,0,0,0-.31-2.52,2.45,2.45,0,0,0-2.28-1.47A2.76,2.76,0,0,0,80.81,106a6.3,6.3,0,0,0-.49,2.91v7.77H76.08V101.51h4.24v1.72A5.82,5.82,0,0,1,84.94,101a5.15,5.15,0,0,1,4.73,2.76,5.6,5.6,0,0,1,5-2.76,5,5,0,0,1,4.24,2.17,6.67,6.67,0,0,1,.81,3.67v9.8Z"/><path class="cls-1" d="M115.32,116.67v-2a5.86,5.86,0,0,1-4.94,2.49c-4.55,0-7.46-3.78-7.46-8.12s2.91-8,7.35-8a6.32,6.32,0,0,1,5,2.42v-1.93h4.27v15.16Zm-3.78-11.83a4.25,4.25,0,1,0,4.24,4.24A4.23,4.23,0,0,0,111.54,104.84Z"/><path class="cls-1" d="M144,116.67v-2a5.86,5.86,0,0,1-4.94,2.49c-4.55,0-7.46-3.78-7.46-8.12s2.91-8,7.35-8a6.32,6.32,0,0,1,5,2.42v-13h4.27v26.22Zm-3.78-11.83a4.25,4.25,0,1,0,4.24,4.24A4.23,4.23,0,0,0,140.2,104.84Z"/><path class="cls-1" d="M154.38,97.66a2.56,2.56,0,0,1,0-5.11,2.56,2.56,0,0,1,0,5.11Zm-2.14,19V101.51h4.24v15.16Z"/><path class="cls-1" d="M164.74,105.15v11.52H160.5V105.15h-1.68v-3.64h1.68V96.33h4.24v5.18h3v3.64Z"/><path class="cls-1" d="M174.19,105.15v11.52H170V105.15h-1.68v-3.64H170V96.33h4.24v5.18h3v3.64Z"/><path class="cls-1" d="M198.48,116.67v-8.3c0-2.1-.46-3.75-2.91-3.75-2.63,0-3.22,2-3.22,4.27v7.77h-4.24V90.45h4.24v13a5.52,5.52,0,0,1,4.76-2.45,5.79,5.79,0,0,1,4.41,1.85,6,6,0,0,1,1.19,4.27v9.52Z"/><path class="cls-1" d="M214.08,117.16c-4.17,0-7.32-1.86-7.32-6.37v-9.28H211v8.58c0,2.07.88,3.47,3.08,3.47s3.08-1.4,3.08-3.47v-8.58h4.27v9.28C221.44,115.3,218.25,117.16,214.08,117.16Z"/><path class="cls-1" d="M230.32,117.16a8.06,8.06,0,0,1-5.78-2.52l2.24-2.59a4.92,4.92,0,0,0,3.57,1.79,1.79,1.79,0,0,0,1.93-1.68c0-2.59-6.76-1.29-6.76-6.41,0-3.08,2.55-4.79,5.43-4.79a7.81,7.81,0,0,1,4.94,1.61l-2.1,2.49a4.23,4.23,0,0,0-2.52-1c-.74,0-1.61.46-1.61,1.29,0,2.21,7,1.23,7,6.41C236.66,115.27,233.58,117.16,230.32,117.16Z"/><path class="cls-1" d="M36.67,154.16a6.07,6.07,0,0,1-5.08-2.49v10.08H27.36V138.51H31.6v1.93a6,6,0,0,1,5-2.42c4.52,0,7.49,3.75,7.49,8.08S41.12,154.16,36.67,154.16Zm-1.26-12.32a4.25,4.25,0,1,0,4.24,4.24A4.23,4.23,0,0,0,35.41,141.84Z"/><path class="cls-1" d="M58.86,153.67v-2a5.86,5.86,0,0,1-4.94,2.49c-4.55,0-7.46-3.78-7.46-8.12s2.91-8,7.35-8a6.32,6.32,0,0,1,5,2.42v-1.93h4.27v15.16Zm-3.78-11.83a4.25,4.25,0,1,0,4.24,4.24A4.23,4.23,0,0,0,55.08,141.84Zm-.59-6a3.15,3.15,0,0,1,0-6.3,3.15,3.15,0,0,1,0,6.3Zm0-4.37a1.23,1.23,0,1,0,1.23,1.22A1.2,1.2,0,0,0,54.49,131.47Z"/><path class="cls-1" d="M80.32,142.15v11.52H76.08V142.15H74.44v-3.64h1.65v-4.87a7.39,7.39,0,0,1,.67-3.57A6,6,0,0,1,82,127a5,5,0,0,1,2.24.52v3.89a4.22,4.22,0,0,0-1.93-.56c-1.89,0-2,2-2,3.4v4.24h3.92v3.64Z"/><path class="cls-1" d="M89.73,146.77c.07,2.34,1.19,4.06,3.71,4.06a4,4,0,0,0,3.61-2l3.92.63c-1.33,3.25-4,4.73-7.46,4.73-4.9,0-8.12-3.15-8.12-8.09S88.47,138,93.34,138s7.74,3.36,7.74,8.19v.56ZM93.41,141a3.44,3.44,0,0,0-3.54,3H97A3.51,3.51,0,0,0,93.41,141Z"/><path class="cls-1" d="M123.68,153.67v-8.3c0-1.79-.28-3.75-2.52-3.75-2.49,0-2.91,2.28-2.91,4.27v7.77H114v-8.05a6.75,6.75,0,0,0-.31-2.52,2.45,2.45,0,0,0-2.28-1.47,2.76,2.76,0,0,0-2.38,1.37,6.3,6.3,0,0,0-.49,2.91v7.77h-4.24V138.51h4.24v1.72a5.82,5.82,0,0,1,4.62-2.21,5.15,5.15,0,0,1,4.73,2.76,5.6,5.6,0,0,1,5-2.76,5,5,0,0,1,4.24,2.17,6.67,6.67,0,0,1,.81,3.67v9.8Z"/><path class="cls-1" d="M160.08,153.67v-8.3c0-1.79-.28-3.75-2.52-3.75-2.49,0-2.91,2.28-2.91,4.27v7.77h-4.24v-8.05a6.75,6.75,0,0,0-.31-2.52,2.45,2.45,0,0,0-2.28-1.47,2.76,2.76,0,0,0-2.38,1.37,6.3,6.3,0,0,0-.49,2.91v7.77h-4.24V138.51H145v1.72a5.82,5.82,0,0,1,4.62-2.21,5.15,5.15,0,0,1,4.73,2.76,5.6,5.6,0,0,1,5-2.76,5,5,0,0,1,4.24,2.17,6.67,6.67,0,0,1,.8,3.67v9.8Z"/><path class="cls-1" d="M170.44,134.66a2.56,2.56,0,0,1,0-5.11,2.56,2.56,0,0,1,0,5.11Zm-2.14,19V138.51h4.24v15.16Z"/><path class="cls-1" d="M186.89,153.67v-8.4c0-2.07-.46-3.64-2.87-3.64-2.63,0-3.26,1.93-3.26,4.2v7.84h-4.24V138.51h4.24v1.86a5.59,5.59,0,0,1,4.76-2.34,5.23,5.23,0,0,1,5.6,6v9.63Z"/><path class="cls-1" d="M202.5,154.16c-4.17,0-7.32-1.86-7.32-6.37v-9.28h4.24v8.58c0,2.07.88,3.47,3.08,3.47s3.08-1.4,3.08-3.47v-8.58h4.27v9.28C209.85,152.3,206.67,154.16,202.5,154.16Z"/><path class="cls-1" d="M218.18,142.15v11.52h-4.24V142.15h-1.68v-3.64h1.68v-5.18h4.24v5.18h3v3.64Z"/><path class="cls-1" d="M226.9,146.77c.07,2.34,1.19,4.06,3.71,4.06a4,4,0,0,0,3.61-2l3.92.63c-1.33,3.25-4,4.73-7.46,4.73-4.9,0-8.12-3.15-8.12-8.09s3.08-8.05,7.95-8.05,7.74,3.36,7.74,8.19v.56Zm3.68-5.74a3.44,3.44,0,0,0-3.54,3h7.18A3.51,3.51,0,0,0,230.57,141Z"/><path class="cls-1" d="M251.4,142.36a3.75,3.75,0,0,0-2-.52c-2.87,0-3.64,2-3.64,4.55v7.28h-4.24V138.51h4.24v2.28a4.95,4.95,0,0,1,6.27-2.42Z"/><path class="cls-1" d="M254.89,154.12a2.73,2.73,0,1,1,2.73-2.73A2.73,2.73,0,0,1,254.89,154.12Z"/></svg>