<svg id="Layer_1" data-name="Layer 1" xmlns="http://www.w3.org/2000/svg" viewBox="0 0 300 250"><defs><style>.cls-1{fill:#010121;}</style></defs><title>text</title><path class="cls-1" d="M85.22,94.22h2.16V110H85.22Z"/><path class="cls-1" d="M102.33,94.22V96.1H97V110H94.85V96.1H89.53V94.22Z"/><path class="cls-1" d="M109.81,94.22h1.94V110h-1.94Z"/><path class="cls-1" d="M114.22,110l1.38-1.45a6.19,6.19,0,0,1-.83-1.78,8.13,8.13,0,0,1-.29-2.34,7.2,7.2,0,0,1,1.36-4.33,4.61,4.61,0,0,1,4-1.9,5.46,5.46,0,0,1,2.39.49,6.94,6.94,0,0,1,1.38.93L125,98.07l.56.54-1.38,1.54a6.53,6.53,0,0,1,1,2.27,7.72,7.72,0,0,1,.18,1.65,6.89,6.89,0,0,1-1.5,4.57,5,5,0,0,1-4,1.8,6.1,6.1,0,0,1-2.13-.35,4,4,0,0,1-1.51-1l-1.3,1.38Zm7.18-9.79a3.43,3.43,0,0,0-1.49-.31,3,3,0,0,0-2.53,1.31,5.59,5.59,0,0,0-.95,3.36,6.52,6.52,0,0,0,.17,1.48,6.81,6.81,0,0,0,.33,1l5.45-6.09A2.31,2.31,0,0,0,121.4,100.17Zm-2.83,8.37a3.87,3.87,0,0,0,1.26.21,3,3,0,0,0,2.91-1.91,6.28,6.28,0,0,0,.52-2.64,7.39,7.39,0,0,0-.16-1.67,6.13,6.13,0,0,0-.3-.88l-5.38,6.07A2.65,2.65,0,0,0,118.57,108.54Z"/><path class="cls-1" d="M129.23,106.39a2.75,2.75,0,0,0,.5,1.48,3.12,3.12,0,0,0,2.59.94,3.91,3.91,0,0,0,1.93-.47,1.55,1.55,0,0,0,.83-1.44,1.22,1.22,0,0,0-.67-1.13,7.8,7.8,0,0,0-1.68-.55l-1.56-.39A7.52,7.52,0,0,1,129,104a2.44,2.44,0,0,1-1.27-2.17,3.33,3.33,0,0,1,1.19-2.65,4.82,4.82,0,0,1,3.21-1,4.49,4.49,0,0,1,3.8,1.53,3.27,3.27,0,0,1,.7,2.08h-1.82a2.26,2.26,0,0,0-.47-1.18,3.08,3.08,0,0,0-2.37-.76,2.88,2.88,0,0,0-1.7.42,1.31,1.31,0,0,0-.58,1.1,1.37,1.37,0,0,0,.76,1.2,4.78,4.78,0,0,0,1.29.47l1.31.31a10.12,10.12,0,0,1,2.84,1,2.59,2.59,0,0,1,1.13,2.33,3.51,3.51,0,0,1-1.18,2.65,5,5,0,0,1-3.59,1.12,4.87,4.87,0,0,1-3.69-1.17,4.34,4.34,0,0,1-1.15-2.88Z"/><path class="cls-1" d="M139.09,98.5h1.83v1.63a5.19,5.19,0,0,1,1.73-1.45,4.54,4.54,0,0,1,2-.44A3.35,3.35,0,0,1,148,100a6,6,0,0,1,.47,2.67V110h-2v-7.25a4.07,4.07,0,0,0-.31-1.7,1.9,1.9,0,0,0-1.87-1.07,3.58,3.58,0,0,0-1.13.14,2.86,2.86,0,0,0-1.4.94,2.9,2.9,0,0,0-.63,1.18A8.35,8.35,0,0,0,141,104v6h-1.93Z"/><path class="cls-1" d="M151.32,94.22h2v2.19h-2Zm0,4.33h2V110h-2Z"/><path class="cls-1" d="M156.21,98.5H158v1.63a5.22,5.22,0,0,1,1.74-1.45,4.47,4.47,0,0,1,2-.44,3.34,3.34,0,0,1,3.31,1.71,6,6,0,0,1,.48,2.67V110h-2v-7.25a3.91,3.91,0,0,0-.31-1.7,1.9,1.9,0,0,0-1.87-1.07,3.62,3.62,0,0,0-1.13.14,2.84,2.84,0,0,0-1.39.94,2.68,2.68,0,0,0-.63,1.18,7.6,7.6,0,0,0-.15,1.73v6h-1.93Z"/><path class="cls-1" d="M174.84,99a5.36,5.36,0,0,1,1.11,1.09V98.6h1.79v10.47a7.65,7.65,0,0,1-.65,3.45c-.8,1.57-2.3,2.35-4.53,2.35a5.49,5.49,0,0,1-3.11-.84,3.24,3.24,0,0,1-1.41-2.6h2a2.18,2.18,0,0,0,.56,1.19,3.49,3.49,0,0,0,4.94-.92,8.93,8.93,0,0,0,.38-3.3,3.84,3.84,0,0,1-1.39,1.31,5,5,0,0,1-5.41-.9c-.93-.88-1.4-2.34-1.4-4.39a6.66,6.66,0,0,1,1.41-4.51,4.35,4.35,0,0,1,3.4-1.62A4.13,4.13,0,0,1,174.84,99Zm.24,2.07a2.81,2.81,0,0,0-2.24-1,2.77,2.77,0,0,0-2.78,1.91,7.63,7.63,0,0,0-.39,2.68,4.81,4.81,0,0,0,.78,3,2.56,2.56,0,0,0,2.11,1,3,3,0,0,0,2.92-1.88,6,6,0,0,0,.47-2.48A4.84,4.84,0,0,0,175.08,101Z"/><path class="cls-1" d="M187.79,98.81a4.43,4.43,0,0,1,1.74,1.49,5.1,5.1,0,0,1,.76,2,12.75,12.75,0,0,1,.18,2.54H182.1a4.9,4.9,0,0,0,.82,2.81,2.72,2.72,0,0,0,2.37,1.06,3,3,0,0,0,2.4-1,3.37,3.37,0,0,0,.71-1.35h1.9a3.88,3.88,0,0,1-.5,1.41,5,5,0,0,1-.94,1.28,4.49,4.49,0,0,1-2.17,1.16,6.71,6.71,0,0,1-1.56.17,4.8,4.8,0,0,1-3.62-1.56,6.13,6.13,0,0,1-1.49-4.38,6.61,6.61,0,0,1,1.5-4.5,4.9,4.9,0,0,1,3.91-1.73A5.26,5.26,0,0,1,187.79,98.81Zm.69,4.52a5.13,5.13,0,0,0-.54-2,2.8,2.8,0,0,0-2.64-1.4,2.88,2.88,0,0,0-2.21,1,3.64,3.64,0,0,0-1,2.44Z"/><path class="cls-1" d="M193,98.5h1.83v2a4.65,4.65,0,0,1,1.11-1.41,2.89,2.89,0,0,1,2-.83h.18l.44,0v2l-.31,0h-.32a2.74,2.74,0,0,0-2.24.94,3.26,3.26,0,0,0-.79,2.16V110H193Z"/><path class="cls-1" d="M70.77,132.79a2.75,2.75,0,0,0,.49,1.48,3.12,3.12,0,0,0,2.59.94,3.88,3.88,0,0,0,1.93-.47,1.53,1.53,0,0,0,.83-1.45,1.23,1.23,0,0,0-.66-1.12,8.23,8.23,0,0,0-1.68-.55l-1.56-.39a7.6,7.6,0,0,1-2.21-.81,2.46,2.46,0,0,1-1.27-2.17,3.31,3.31,0,0,1,1.2-2.65,4.79,4.79,0,0,1,3.2-1,4.46,4.46,0,0,1,3.8,1.53,3.28,3.28,0,0,1,.71,2.08H76.31a2.1,2.1,0,0,0-.47-1.18,3,3,0,0,0-2.36-.76,2.86,2.86,0,0,0-1.7.42,1.28,1.28,0,0,0-.58,1.1A1.35,1.35,0,0,0,72,129a4.65,4.65,0,0,0,1.29.47l1.3.31a10.09,10.09,0,0,1,2.85,1,2.59,2.59,0,0,1,1.13,2.33,3.55,3.55,0,0,1-1.18,2.65,5.06,5.06,0,0,1-3.6,1.12,4.85,4.85,0,0,1-3.68-1.17,4.35,4.35,0,0,1-1.16-2.88Z"/><path class="cls-1" d="M89,126a5.84,5.84,0,0,1,1.52,4.36A7.52,7.52,0,0,1,89.14,135,4.86,4.86,0,0,1,85,136.81a4.72,4.72,0,0,1-3.75-1.61,6.37,6.37,0,0,1-1.38-4.31,6.83,6.83,0,0,1,1.46-4.61,4.86,4.86,0,0,1,3.92-1.72A5.19,5.19,0,0,1,89,126Zm-1.2,7.65a7.32,7.32,0,0,0,.7-3.23,5.79,5.79,0,0,0-.51-2.62,2.85,2.85,0,0,0-2.78-1.59,2.74,2.74,0,0,0-2.55,1.35,6.33,6.33,0,0,0-.8,3.26,5.5,5.5,0,0,0,.8,3.06,2.78,2.78,0,0,0,2.53,1.22A2.63,2.63,0,0,0,87.76,133.69Z"/><path class="cls-1" d="M92.86,124.9h1.91v1.63A6.52,6.52,0,0,1,96,125.29a3.82,3.82,0,0,1,2.17-.65,3.44,3.44,0,0,1,2.22.67,3.69,3.69,0,0,1,.86,1.14,4.25,4.25,0,0,1,1.51-1.37,4.31,4.31,0,0,1,2-.44,3.19,3.19,0,0,1,3.15,1.67,5.34,5.34,0,0,1,.46,2.43v7.66h-2v-8a1.84,1.84,0,0,0-.58-1.58,2.24,2.24,0,0,0-1.4-.43,2.77,2.77,0,0,0-2,.76,3.35,3.35,0,0,0-.82,2.55v6.69h-2v-7.51a3.86,3.86,0,0,0-.28-1.71,1.71,1.71,0,0,0-1.64-.8,2.8,2.8,0,0,0-2,.85,4.14,4.14,0,0,0-.9,3.07v6.1H92.86Z"/><path class="cls-1" d="M117.13,120.57H119v5.72a4.35,4.35,0,0,1,1.52-1.26,4.3,4.3,0,0,1,1.92-.44,4.52,4.52,0,0,1,3.5,1.48,6.27,6.27,0,0,1,1.35,4.36A7.46,7.46,0,0,1,126,135a4.33,4.33,0,0,1-3.68,1.81,3.8,3.8,0,0,1-2.22-.64,5.33,5.33,0,0,1-1.15-1.2v1.47h-1.79Zm7.4,13.24a6.14,6.14,0,0,0,.78-3.29,5.35,5.35,0,0,0-.78-3,2.57,2.57,0,0,0-2.3-1.2,3.24,3.24,0,0,0-2.33,1,4.4,4.4,0,0,0-1,3.22,7,7,0,0,0,.41,2.64,2.83,2.83,0,0,0,2.85,1.9A2.61,2.61,0,0,0,124.53,133.81Z"/><path class="cls-1" d="M129.58,120.62h1.94V136.4h-1.94Z"/><path class="cls-1" d="M134.42,120.62h2v2.19h-2Zm0,4.33h2V136.4h-2Z"/><path class="cls-1" d="M139.36,124.9h1.84v2a4.58,4.58,0,0,1,1.1-1.41,2.9,2.9,0,0,1,2-.83h.19l.44,0v2l-.32,0h-.32a2.74,2.74,0,0,0-2.24.94,3.26,3.26,0,0,0-.79,2.16v6.62h-1.93Z"/><path class="cls-1" d="M159.06,125.25a4.8,4.8,0,0,1,1.17,1.13v-5.81h1.86V136.4h-1.74v-1.6a4.19,4.19,0,0,1-1.6,1.54,4.57,4.57,0,0,1-2.1.47,4.25,4.25,0,0,1-3.32-1.62,6.31,6.31,0,0,1-1.4-4.3,7.4,7.4,0,0,1,1.28-4.36,4.19,4.19,0,0,1,3.65-1.84A4.06,4.06,0,0,1,159.06,125.25Zm-4.31,8.63a2.72,2.72,0,0,0,2.5,1.24,2.64,2.64,0,0,0,2.2-1.15,5.52,5.52,0,0,0,.86-3.32,4.94,4.94,0,0,0-.89-3.23,2.77,2.77,0,0,0-2.19-1,2.9,2.9,0,0,0-2.36,1.11,5.18,5.18,0,0,0-.9,3.29A5.78,5.78,0,0,0,154.75,133.88Z"/><path class="cls-1" d="M172.17,124.9h2.14c-.27.73-.88,2.42-1.82,5-.7,2-1.28,3.59-1.76,4.83a31.62,31.62,0,0,1-2.36,5.37,2.71,2.71,0,0,1-2.36,1,3.48,3.48,0,0,1-.63,0,4.23,4.23,0,0,1-.54-.12V139.2c.34.1.58.15.73.18l.4,0a1.34,1.34,0,0,0,.78-.18,1.76,1.76,0,0,0,.43-.43c0-.06.16-.35.38-.88s.39-.92.49-1.18l-4.26-11.84H166l3.09,9.37Z"/><path class="cls-1" d="M176,124.9h1.84v2a4.49,4.49,0,0,1,1.11-1.41,2.87,2.87,0,0,1,2-.83h.18l.44,0v2l-.32,0H181a2.75,2.75,0,0,0-2.25.94,3.3,3.3,0,0,0-.78,2.16v6.62H176Z"/><path class="cls-1" d="M190.41,125.21a4.43,4.43,0,0,1,1.74,1.49,5.11,5.11,0,0,1,.77,2,12.94,12.94,0,0,1,.17,2.54h-8.37a5,5,0,0,0,.82,2.81,2.75,2.75,0,0,0,2.38,1.06,3.06,3.06,0,0,0,2.4-1,3.5,3.5,0,0,0,.71-1.35h1.9a4.07,4.07,0,0,1-.5,1.41,5,5,0,0,1-1,1.28,4.45,4.45,0,0,1-2.16,1.16,6.74,6.74,0,0,1-1.57.17,4.81,4.81,0,0,1-3.62-1.56,6.13,6.13,0,0,1-1.48-4.38,6.61,6.61,0,0,1,1.5-4.5,4.87,4.87,0,0,1,3.9-1.73A5.23,5.23,0,0,1,190.41,125.21Zm.69,4.52a5,5,0,0,0-.54-2,2.77,2.77,0,0,0-2.63-1.4,2.9,2.9,0,0,0-2.22,1,3.63,3.63,0,0,0-.94,2.44Z"/><path class="cls-1" d="M195.59,124.9h1.84v2a4.49,4.49,0,0,1,1.11-1.41,2.89,2.89,0,0,1,2-.83h.18l.44,0v2l-.31,0h-.32a2.75,2.75,0,0,0-2.25.94,3.3,3.3,0,0,0-.78,2.16v6.62h-1.94Z"/><path class="cls-1" d="M210,125.21a4.29,4.29,0,0,1,1.74,1.49,5.11,5.11,0,0,1,.77,2,12.94,12.94,0,0,1,.17,2.54h-8.36a4.83,4.83,0,0,0,.82,2.81,2.72,2.72,0,0,0,2.37,1.06,3.06,3.06,0,0,0,2.4-1,3.5,3.5,0,0,0,.71-1.35h1.9a3.88,3.88,0,0,1-.5,1.41,5.24,5.24,0,0,1-.94,1.28,4.53,4.53,0,0,1-2.17,1.16,6.74,6.74,0,0,1-1.57.17,4.78,4.78,0,0,1-3.61-1.56,6.13,6.13,0,0,1-1.49-4.38,6.61,6.61,0,0,1,1.5-4.5,4.88,4.88,0,0,1,3.9-1.73A5.2,5.2,0,0,1,210,125.21Zm.7,4.52a5,5,0,0,0-.55-2,2.77,2.77,0,0,0-2.63-1.4,2.86,2.86,0,0,0-2.21,1,3.59,3.59,0,0,0-.95,2.44Z"/><path class="cls-1" d="M86.47,151.61a4.43,4.43,0,0,1,1.74,1.49,5.1,5.1,0,0,1,.76,2,12.69,12.69,0,0,1,.18,2.54H80.78a4.93,4.93,0,0,0,.82,2.81A2.72,2.72,0,0,0,84,161.54a3,3,0,0,0,2.4-1,3.37,3.37,0,0,0,.71-1.35H89a3.88,3.88,0,0,1-.5,1.41,5,5,0,0,1-.94,1.28A4.53,4.53,0,0,1,85.37,163a6.71,6.71,0,0,1-1.56.17,4.8,4.8,0,0,1-3.62-1.56,6.13,6.13,0,0,1-1.49-4.38,6.61,6.61,0,0,1,1.5-4.5A4.89,4.89,0,0,1,84.11,151,5.26,5.26,0,0,1,86.47,151.61Zm.69,4.52a5,5,0,0,0-.55-2,2.77,2.77,0,0,0-2.63-1.4,2.89,2.89,0,0,0-2.21,1,3.69,3.69,0,0,0-1,2.45Z"/><path class="cls-1" d="M91.59,151.29h1.84v1.64a5.07,5.07,0,0,1,1.73-1.45,4.54,4.54,0,0,1,2-.44,3.35,3.35,0,0,1,3.31,1.71,6.11,6.11,0,0,1,.47,2.67v7.38H99v-7.25a3.9,3.9,0,0,0-.32-1.7,1.88,1.88,0,0,0-1.86-1.07,3.58,3.58,0,0,0-1.13.14,2.86,2.86,0,0,0-1.4.94,2.9,2.9,0,0,0-.63,1.18,8.35,8.35,0,0,0-.14,1.73v6H91.59Z"/><path class="cls-1" d="M103.83,151.29h1.84v1.64a5,5,0,0,1,1.73-1.45,4.48,4.48,0,0,1,2-.44,3.33,3.33,0,0,1,3.3,1.71,6,6,0,0,1,.48,2.67v7.38h-2v-7.25a3.91,3.91,0,0,0-.31-1.7,1.89,1.89,0,0,0-1.87-1.07,3.62,3.62,0,0,0-1.13.14,2.84,2.84,0,0,0-1.39.94,2.68,2.68,0,0,0-.63,1.18,7.6,7.6,0,0,0-.15,1.73v6h-1.93Z"/><path class="cls-1" d="M122,151.35h1.89v1.52a4.66,4.66,0,0,1,1.27-1.21,4.08,4.08,0,0,1,2.3-.64,4.32,4.32,0,0,1,3.33,1.49,6.15,6.15,0,0,1,1.37,4.28q0,3.77-2,5.38a4.45,4.45,0,0,1-2.91,1,4,4,0,0,1-2.19-.57,5.26,5.26,0,0,1-1.15-1.11v5.88H122Zm7.27,9a5.4,5.4,0,0,0,.9-3.39,6.25,6.25,0,0,0-.4-2.37,2.93,2.93,0,0,0-5.52.11,8.12,8.12,0,0,0-.4,2.73,5.91,5.91,0,0,0,.4,2.27,2.94,2.94,0,0,0,5,.65Z"/><path class="cls-1" d="M134.47,147h1.93V162.8h-1.93Z"/><path class="cls-1" d="M145.47,155.84a1.07,1.07,0,0,0,.89-.56,1.78,1.78,0,0,0,.13-.74,1.56,1.56,0,0,0-.71-1.44,3.69,3.69,0,0,0-2-.45,2.54,2.54,0,0,0-2.14.82,2.64,2.64,0,0,0-.46,1.35h-1.81a3.36,3.36,0,0,1,1.38-3,5.64,5.64,0,0,1,3.08-.83,6.19,6.19,0,0,1,3.29.77,2.62,2.62,0,0,1,1.26,2.41v6.62a.89.89,0,0,0,.12.49.6.6,0,0,0,.52.18l.29,0a2.45,2.45,0,0,0,.35-.05v1.43a5.05,5.05,0,0,1-.69.16,3.8,3.8,0,0,1-.65,0,1.6,1.6,0,0,1-1.45-.71,2.82,2.82,0,0,1-.33-1.07,4.84,4.84,0,0,1-1.7,1.35,5.25,5.25,0,0,1-2.44.57,3.66,3.66,0,0,1-2.61-1,3.22,3.22,0,0,1-1-2.43,3.14,3.14,0,0,1,1-2.48,4.78,4.78,0,0,1,2.62-1.09Zm-4.07,5.22a2.26,2.26,0,0,0,1.45.48,4.32,4.32,0,0,0,2-.47,2.65,2.65,0,0,0,1.61-2.56V157a3.24,3.24,0,0,1-.91.38,7.21,7.21,0,0,1-1.09.21l-1.17.16a4.46,4.46,0,0,0-1.58.43,1.72,1.72,0,0,0-.9,1.61A1.59,1.59,0,0,0,141.4,161.06Z"/><path class="cls-1" d="M151.54,151.29h1.83v1.64a5.07,5.07,0,0,1,1.73-1.45,4.54,4.54,0,0,1,2-.44,3.34,3.34,0,0,1,3.31,1.71,6,6,0,0,1,.47,2.67v7.38h-2v-7.25a4.07,4.07,0,0,0-.31-1.7,1.9,1.9,0,0,0-1.87-1.07,3.58,3.58,0,0,0-1.13.14,2.86,2.86,0,0,0-1.4.94,2.9,2.9,0,0,0-.63,1.18,8.35,8.35,0,0,0-.14,1.73v6h-1.93Z"/><path class="cls-1" d="M163.82,147h1.94V162.8h-1.94Z"/><path class="cls-1" d="M174.82,155.84a1.07,1.07,0,0,0,.9-.56,1.78,1.78,0,0,0,.13-.74,1.56,1.56,0,0,0-.71-1.44,3.74,3.74,0,0,0-2-.45,2.54,2.54,0,0,0-2.14.82,2.64,2.64,0,0,0-.46,1.35h-1.81a3.36,3.36,0,0,1,1.38-3,5.64,5.64,0,0,1,3.08-.83,6.19,6.19,0,0,1,3.29.77,2.61,2.61,0,0,1,1.25,2.41v6.62a.89.89,0,0,0,.13.49c.08.12.25.18.52.18l.29,0a2.15,2.15,0,0,0,.34-.05v1.43a4.68,4.68,0,0,1-.68.16,3.8,3.8,0,0,1-.65,0,1.6,1.6,0,0,1-1.45-.71,2.65,2.65,0,0,1-.33-1.07,4.93,4.93,0,0,1-1.7,1.35,5.25,5.25,0,0,1-2.44.57,3.65,3.65,0,0,1-2.61-1,3.22,3.22,0,0,1-1-2.43,3.14,3.14,0,0,1,1-2.48,4.78,4.78,0,0,1,2.62-1.09Zm-4.07,5.22a2.28,2.28,0,0,0,1.45.48,4.37,4.37,0,0,0,2-.47,2.66,2.66,0,0,0,1.61-2.56V157a3.24,3.24,0,0,1-.91.38,7.46,7.46,0,0,1-1.09.21l-1.17.16a4.46,4.46,0,0,0-1.58.43,1.72,1.72,0,0,0-.9,1.61A1.61,1.61,0,0,0,170.75,161.06Z"/><path class="cls-1" d="M187.29,151.76a5.13,5.13,0,0,1,1.11,1.09V151.4h1.79v10.47a7.65,7.65,0,0,1-.65,3.45q-1.18,2.35-4.52,2.35a5.5,5.5,0,0,1-3.12-.84,3.24,3.24,0,0,1-1.41-2.6h2a2.18,2.18,0,0,0,.56,1.19,3.49,3.49,0,0,0,4.94-.92,8.93,8.93,0,0,0,.38-3.3,3.84,3.84,0,0,1-1.39,1.31,5,5,0,0,1-5.41-.9c-.93-.88-1.4-2.34-1.4-4.39a6.66,6.66,0,0,1,1.41-4.51,4.35,4.35,0,0,1,3.4-1.62A4.13,4.13,0,0,1,187.29,151.76Zm.24,2.07a2.81,2.81,0,0,0-2.24-1,2.77,2.77,0,0,0-2.78,1.91,7.63,7.63,0,0,0-.39,2.68,4.76,4.76,0,0,0,.78,3,2.54,2.54,0,0,0,2.12,1,3,3,0,0,0,2.91-1.88,6,6,0,0,0,.47-2.48A4.84,4.84,0,0,0,187.53,153.83Z"/><path class="cls-1" d="M193.52,148.08h1.95v3.21h1.84v1.58h-1.84v7.51a.83.83,0,0,0,.41.81,1.7,1.7,0,0,0,.75.12h.3l.38,0v1.54a5.27,5.27,0,0,1-.69.14,6.35,6.35,0,0,1-.78,0,2.1,2.1,0,0,1-1.84-.69,3.09,3.09,0,0,1-.48-1.8v-7.62H192v-1.58h1.56Z"/><path class="cls-1" d="M200.83,148.23a4.75,4.75,0,0,1,3.64-1.41,4.83,4.83,0,0,1,3.43,1.2,4.06,4.06,0,0,1,1.29,3.09,3.32,3.32,0,0,1-.47,1.85,14.11,14.11,0,0,1-1.91,2.08,5.92,5.92,0,0,0-1.37,1.7,4.93,4.93,0,0,0-.32,2h-1.91a7,7,0,0,1,.36-2.47,6.53,6.53,0,0,1,1.63-2.16l.87-.85a3.2,3.2,0,0,0,.64-.76,2.63,2.63,0,0,0,.45-1.45,2.78,2.78,0,0,0-.64-1.83,3.18,3.18,0,0,0-4.66.56,5.22,5.22,0,0,0-.45,2.14H199.5A5.19,5.19,0,0,1,200.83,148.23Zm2.33,12.34h2.14v2.23h-2.14Z"/></svg>