<svg id="Layer_1" data-name="Layer 1" xmlns="http://www.w3.org/2000/svg" viewBox="0 0 300 250"><defs><style>.cls-1{fill:#d80201;}</style></defs><title>text</title><path class="cls-1" d="M46.79,100.62,32.58,84.38v15.79H28V76.29h3.15L45.39,92.54V76.82h4.55v23.8Z"/><path class="cls-1" d="M59,108.29h-4.8l5.57-10.4L52.63,85h4.94l4.55,8.61L66.46,85h4.83Z"/><path class="cls-1" d="M83.71,100.17v-8.3c0-2.1-.46-3.75-2.91-3.75-2.62,0-3.22,2-3.22,4.27v7.77H73.35V73.95h4.24V87a5.52,5.52,0,0,1,4.76-2.45,5.79,5.79,0,0,1,4.41,1.85,6,6,0,0,1,1.19,4.27v9.52Z"/><path class="cls-1" d="M95.54,93.27c.07,2.35,1.19,4.06,3.71,4.06a4,4,0,0,0,3.61-2l3.92.63c-1.33,3.26-4,4.73-7.46,4.73-4.9,0-8.12-3.15-8.12-8.09s3.08-8.05,7.95-8.05,7.74,3.36,7.74,8.19v.56Zm3.68-5.74a3.44,3.44,0,0,0-3.54,3h7.18A3.51,3.51,0,0,0,99.22,87.53Z"/><path class="cls-1" d="M114.41,88.65v11.52h-4.24V88.65h-1.68V85h1.68V79.83h4.24V85h3v3.64Z"/><path class="cls-1" d="M121.93,100.62a2.73,2.73,0,1,1,2.73-2.73A2.73,2.73,0,0,1,121.93,100.62Zm-2.17-7.14V76.82h4.34V93.48Z"/><path class="cls-1" d="M43.85,137.17l-2-4.94H32.33l-2.13,4.94H25.37l10.12-23.84h3.43l9.84,23.84Zm-6.69-17-3.4,8.4h6.69Z"/><path class="cls-1" d="M50.81,137.17V110.95H55v26.22Z"/><path class="cls-1" d="M59.11,137.17V110.95h4.24v26.22Z"/><path class="cls-1" d="M79,137.17v-2a5.86,5.86,0,0,1-4.94,2.49c-4.55,0-7.46-3.78-7.46-8.12s2.91-8,7.35-8a6.32,6.32,0,0,1,5,2.42V122h4.27v15.16Zm-3.78-11.83a4.25,4.25,0,1,0,4.24,4.24A4.23,4.23,0,0,0,75.21,125.34Z"/><path class="cls-1" d="M106.43,137.17v-8.3c0-2.1-.46-3.75-2.91-3.75-2.62,0-3.22,2-3.22,4.27v7.77H96.07V110.95h4.24v13a5.52,5.52,0,0,1,4.76-2.45,5.79,5.79,0,0,1,4.41,1.85,6,6,0,0,1,1.19,4.27v9.52Z"/><path class="cls-1" d="M122,137.66c-4.17,0-7.32-1.86-7.32-6.37V122H119v8.58c0,2.07.88,3.47,3.08,3.47s3.08-1.4,3.08-3.47V122h4.27v9.28C129.39,135.8,126.2,137.66,122,137.66Z"/><path class="cls-1" d="M138.28,137.66a8.06,8.06,0,0,1-5.78-2.52l2.24-2.59a4.92,4.92,0,0,0,3.57,1.79,1.78,1.78,0,0,0,1.93-1.68c0-2.59-6.76-1.29-6.76-6.41,0-3.08,2.56-4.8,5.43-4.8a7.81,7.81,0,0,1,4.94,1.61l-2.1,2.49a4.23,4.23,0,0,0-2.52-1c-.73,0-1.61.46-1.61,1.29,0,2.21,7,1.23,7,6.41C144.61,135.77,141.53,137.66,138.28,137.66Z"/><path class="cls-1" d="M168,137.17v-2a5.86,5.86,0,0,1-4.94,2.49c-4.55,0-7.46-3.78-7.46-8.12s2.91-8,7.35-8a6.32,6.32,0,0,1,5,2.42V122h4.27v15.16Zm-7.32-18a2.52,2.52,0,1,1,0-5,2.52,2.52,0,1,1,0,5Zm3.54,6.16a4.25,4.25,0,1,0,4.24,4.24A4.23,4.23,0,0,0,164.18,125.34Zm3.75-6.16a2.55,2.55,0,0,1-2.52-2.52,2.52,2.52,0,1,1,2.52,2.52Z"/><path class="cls-1" d="M186.19,125.86a3.75,3.75,0,0,0-2-.52c-2.87,0-3.64,2-3.64,4.55v7.28h-4.24V122h4.24v2.28a4.94,4.94,0,0,1,6.27-2.42Z"/><path class="cls-1" d="M208,137.17v-8.4c0-2.07-.46-3.64-2.87-3.64-2.63,0-3.26,1.93-3.26,4.2v7.84h-4.24V122h4.24v1.86a5.59,5.59,0,0,1,4.76-2.35,5.24,5.24,0,0,1,5.6,6v9.63Z"/><path class="cls-1" d="M223.61,137.66c-4.17,0-7.32-1.86-7.32-6.37V122h4.24v8.58c0,2.07.88,3.47,3.08,3.47s3.08-1.4,3.08-3.47V122H231v9.28C231,135.8,227.77,137.66,223.61,137.66Z"/><path class="cls-1" d="M34.5,174.73a9.09,9.09,0,0,1-8-4.45l2.94-2.83a5.35,5.35,0,0,0,4.9,3.12,3.32,3.32,0,0,0,3.6-3.29c0-4.8-10.26-2.52-10.26-10,0-4.13,3.33-6.79,7.28-6.79A10.24,10.24,0,0,1,41.78,153l-2.38,3.12a4.73,4.73,0,0,0-3.78-1.89c-1.5,0-3.26.94-3.26,2.63,0,4,10.26,2,10.26,10.15C42.63,171.79,39.12,174.73,34.5,174.73Z"/><path class="cls-1" d="M53.68,174.48h-2L44,159h4.76l4,8.54,4-8.54h4.76Z"/><path class="cls-1" d="M74.37,174.17v-2a5.86,5.86,0,0,1-4.94,2.49c-4.55,0-7.46-3.78-7.46-8.12s2.91-8,7.35-8a6.32,6.32,0,0,1,5,2.42V159h4.27v15.16Zm-3.78-11.83a4.25,4.25,0,1,0,4.24,4.24A4.23,4.23,0,0,0,70.59,162.34Z"/><path class="cls-1" d="M93.06,174.17v-8.4c0-2.07-.46-3.64-2.87-3.64-2.63,0-3.26,1.93-3.26,4.2v7.84H82.7V159h4.24v1.86a5.59,5.59,0,0,1,4.76-2.34,5.23,5.23,0,0,1,5.6,6v9.63Z"/><path class="cls-1" d="M104.89,167.27c.07,2.34,1.19,4.06,3.71,4.06a4,4,0,0,0,3.61-2l3.92.63c-1.33,3.25-4,4.73-7.46,4.73-4.9,0-8.12-3.15-8.12-8.09s3.08-8.05,7.95-8.05,7.74,3.36,7.74,8.19v.56Zm3.68-5.74a3.44,3.44,0,0,0-3.54,3h7.18A3.51,3.51,0,0,0,108.56,161.53Z"/><path class="cls-1" d="M129.84,174.17v-8.4c0-2.07-.46-3.64-2.87-3.64-2.63,0-3.26,1.93-3.26,4.2v7.84h-4.24V159h4.24v1.86a5.59,5.59,0,0,1,4.76-2.34,5.23,5.23,0,0,1,5.6,6v9.63Z"/><path class="cls-1" d="M157.5,174.17v-8.3c0-1.79-.28-3.75-2.52-3.75-2.49,0-2.91,2.28-2.91,4.27v7.77h-4.24v-8.05a6.75,6.75,0,0,0-.31-2.52,2.45,2.45,0,0,0-2.28-1.47,2.76,2.76,0,0,0-2.38,1.37,6.3,6.3,0,0,0-.49,2.91v7.77h-4.24V159h4.24v1.72a5.82,5.82,0,0,1,4.62-2.21,5.15,5.15,0,0,1,4.73,2.76,5.6,5.6,0,0,1,5-2.76,5,5,0,0,1,4.24,2.17,6.68,6.68,0,0,1,.81,3.67v9.8Z"/><path class="cls-1" d="M177.37,174.17v-2a5.86,5.86,0,0,1-4.94,2.49c-4.55,0-7.46-3.78-7.46-8.12s2.91-8,7.35-8a6.32,6.32,0,0,1,5,2.42V159h4.27v15.16Zm-7.32-18a2.52,2.52,0,1,1,0-5,2.52,2.52,0,1,1,0,5Zm3.54,6.16a4.25,4.25,0,1,0,4.24,4.24A4.23,4.23,0,0,0,173.59,162.34Zm3.75-6.16a2.55,2.55,0,0,1-2.52-2.52,2.52,2.52,0,1,1,2.52,2.52Z"/><path class="cls-1" d="M195.61,162.86a3.75,3.75,0,0,0-2-.52c-2.87,0-3.64,2-3.64,4.55v7.28H185.7V159h4.24v2.28a4.95,4.95,0,0,1,6.27-2.42Z"/><path class="cls-1" d="M208.7,174.17,203,167.66l-.46.46v6.06H198.3V148h4.24v16.59l5.67-5.53h5.74l-7.11,6.65,7.67,8.51Z"/><path class="cls-1" d="M220.67,162.65v11.52h-4.24V162.65h-1.68V159h1.68v-5.18h4.24V159h3v3.64Z"/><path class="cls-1" d="M237.43,174.17v-2a5.86,5.86,0,0,1-4.94,2.49c-4.55,0-7.46-3.78-7.46-8.12s2.91-8,7.35-8a6.32,6.32,0,0,1,5,2.42V159h4.27v15.16Zm-3.78-11.83a4.25,4.25,0,1,0,4.24,4.24A4.23,4.23,0,0,0,233.65,162.34Z"/></svg>