<svg id="Layer_1" data-name="Layer 1" xmlns="http://www.w3.org/2000/svg" viewBox="0 0 300 250"><defs><style>.cls-1{fill:#d4ac76;}</style></defs><title>text</title><path class="cls-1" d="M76.77,169.67v-8.89h2.93a2.68,2.68,0,0,1,1.94.74,2.45,2.45,0,0,1,.77,1.83,2.09,2.09,0,0,1-1,1.79,2.48,2.48,0,0,1,1,.8,1.88,1.88,0,0,1,.37,1.13,2.44,2.44,0,0,1-.78,1.88,2.79,2.79,0,0,1-2,.72Zm2.73-7.41H78.31v2.23h1.33a1.22,1.22,0,0,0,.88-.33,1.09,1.09,0,0,0,.34-.82,1,1,0,0,0-.38-.79A1.55,1.55,0,0,0,79.5,162.26Zm.25,3.57H78.31v2.36h1.41a1.44,1.44,0,0,0,1-.33,1.11,1.11,0,0,0,.37-.86,1.09,1.09,0,0,0-.35-.84A1.42,1.42,0,0,0,79.75,165.83Z"/><path class="cls-1" d="M90.15,165.91H86.87v2.28h3.61v1.48H85.2v-8.89h5.17v1.48H86.87v2.16h3.29Z"/><path class="cls-1" d="M95.31,169.78a4.28,4.28,0,0,1-1.68-.35,4.4,4.4,0,0,1-1.44-1l1.06-1.27a3.22,3.22,0,0,0,1,.79,2.51,2.51,0,0,0,1.17.31,1.43,1.43,0,0,0,.95-.31,1,1,0,0,0,.37-.77,1.32,1.32,0,0,0-1-1.23l-1-.4a3.8,3.8,0,0,1-1.48-1,2.27,2.27,0,0,1-.48-1.51,2.31,2.31,0,0,1,.75-1.69,2.58,2.58,0,0,1,1.88-.74,3.83,3.83,0,0,1,2.74,1l-1,1.24a2.29,2.29,0,0,0-1.76-.77,1.19,1.19,0,0,0-.8.26.79.79,0,0,0-.3.63.83.83,0,0,0,.23.61,2.37,2.37,0,0,0,.76.46l1,.42a2.75,2.75,0,0,1,2,2.57,2.49,2.49,0,0,1-.84,1.95A3.24,3.24,0,0,1,95.31,169.78Z"/><path class="cls-1" d="M99.81,162.38v-1.6h7.33v1.6h-2.83v7.29h-1.67v-7.29Z"/><path class="cls-1" d="M107.22,169.67l3.43-8.89h1.51l3.42,8.89h-1.71l-.47-1.23h-4l-.47,1.23Zm3.41-9.8a.72.72,0,0,1-.54.24.73.73,0,0,1-.55-.24.79.79,0,0,1,.55-1.36.73.73,0,0,1,.54.23.77.77,0,0,1,.23.56A.8.8,0,0,1,110.63,159.86Zm.77,3.4L110,167h2.84Zm1.88-3.4a.86.86,0,0,1-1.18,0,.76.76,0,0,1-.24-.57.74.74,0,0,1,.24-.56.87.87,0,0,1,1.18,0,.74.74,0,0,1,.24.56A.76.76,0,0,1,113.28,159.86Z"/><path class="cls-1" d="M117.42,169.67v-8.89h1.67v7.29h3.27v1.6Z"/><path class="cls-1" d="M124.53,169.67v-8.89h1.67v7.29h3.27v1.6Z"/><path class="cls-1" d="M138.44,169.67l-3.4-8.89h1.74l2.44,6.39,2.41-6.39h1.69l-3.37,8.89Z"/><path class="cls-1" d="M143.51,169.67l3.43-8.89h1.51l3.42,8.89h-1.71l-.47-1.23h-4l-.47,1.23Zm4.18-6.4L146.27,167h2.84Zm1.29-4a1.28,1.28,0,0,1-1.28,1.28,1.25,1.25,0,0,1-.91-.37,1.29,1.29,0,0,1,0-1.82,1.29,1.29,0,0,1,2.19.91Zm-1.61.33a.46.46,0,0,0,.33.14.44.44,0,0,0,.33-.14.46.46,0,0,0,.13-.33.45.45,0,0,0-.14-.33.46.46,0,0,0-.66,0,.47.47,0,0,0,0,.67Z"/><path class="cls-1" d="M153.71,169.67v-8.89h3.48a3,3,0,0,1,2.14.81,2.77,2.77,0,0,1,.86,2.11,2.67,2.67,0,0,1-.64,1.8,2.86,2.86,0,0,1-1.66.95l2.39,3.23h-1.87l-2.31-3.17h-.72v3.17Zm3.22-7.41h-1.55v2.9h1.55a1.64,1.64,0,0,0,1.16-.39,1.33,1.33,0,0,0,.43-1,1.4,1.4,0,0,0-.44-1.05A1.59,1.59,0,0,0,156.93,162.26Z"/><path class="cls-1" d="M166.9,169.67v-8.89h1.17l4.37,5.59v-5.59h1.67v8.89H173L168.57,164v5.66Z"/><path class="cls-1" d="M181.75,160.78h1.79l-2.94,5.28v3.61h-1.67v-3.55l-3-5.34h1.83l2,3.69Z"/><path class="cls-1" d="M183.41,169.67l3.43-8.89h1.51l3.42,8.89H190l-.47-1.23h-4l-.47,1.23Zm4.18-6.4L186.17,167H189Z"/><path class="cls-1" d="M198.12,169.67v-8.89H201a2.68,2.68,0,0,1,1.94.74,2.45,2.45,0,0,1,.77,1.83,2.09,2.09,0,0,1-1,1.79,2.49,2.49,0,0,1,1,.8,1.88,1.88,0,0,1,.37,1.13,2.45,2.45,0,0,1-.78,1.88,2.79,2.79,0,0,1-2,.72Zm2.73-7.41h-1.19v2.23H201a1.22,1.22,0,0,0,.88-.33,1.09,1.09,0,0,0,.34-.82,1,1,0,0,0-.38-.79A1.55,1.55,0,0,0,200.85,162.26Zm.25,3.57h-1.44v2.36h1.41a1.44,1.44,0,0,0,1-.33,1.11,1.11,0,0,0,.37-.86,1.09,1.09,0,0,0-.35-.84A1.42,1.42,0,0,0,201.1,165.83Z"/><path class="cls-1" d="M215.16,165.22a4.61,4.61,0,1,1-1.35-3.26A4.42,4.42,0,0,1,215.16,165.22Zm-6.71,2.12a2.92,2.92,0,0,0,4.18,0,3.06,3.06,0,0,0,0-4.25,2.92,2.92,0,0,0-4.18,0,3.07,3.07,0,0,0,0,4.25Z"/><path class="cls-1" d="M217.48,169.67v-8.89H219v3.92l3.4-3.92h2.06l-3.14,3.55,3.21,5.34h-1.92l-2.42-4.06L219,167v2.71Z"/></svg>