<svg id="Layer_1" data-name="Layer 1" xmlns="http://www.w3.org/2000/svg" viewBox="0 0 300 600"><defs><style>.cls-1{fill:#fff;}</style></defs><title>text</title><path class="cls-1" d="M69.31,130H59.06c-.84,0-1.26-.33-1.26-1V112.81c0-.67.42-1,1.26-1s1.26.34,1.26,1V127.7h9c.58,0,.87.39.87,1.15S69.89,130,69.31,130Z"/><path class="cls-1" d="M83.1,127.59c.57,0,.86.35.86,1a1.13,1.13,0,0,1-.86,1.26,21.78,21.78,0,0,1-4.56.33,7.79,7.79,0,0,1-4.58-1,4.11,4.11,0,0,1-1.39-3.49v-5.12c0-1.72.42-2.87,1.26-3.46s2.4-.89,4.69-.89,3.83.28,4.63.85,1.2,1.73,1.2,3.5v2.21a1.56,1.56,0,0,1-.37,1.07,1.23,1.23,0,0,1-.94.38h-8v1.64c0,1.38,1.2,2.06,3.6,2a20.27,20.27,0,0,0,2.73-.16A15.16,15.16,0,0,1,83.1,127.59Zm-8-7V122h6.76v-1.45a1.77,1.77,0,0,0-.69-1.63,5.7,5.7,0,0,0-2.66-.42,6,6,0,0,0-2.68.4A1.74,1.74,0,0,0,75.08,120.57Z"/><path class="cls-1" d="M96,125.89v-.32a1,1,0,0,0-.66-1,5.65,5.65,0,0,0-2.28-.3,13.68,13.68,0,0,1-3.61-.51,3,3,0,0,1-1.64-1.11,3.55,3.55,0,0,1-.66-2.24v-.23q0-2.34,1.41-3.15a8.86,8.86,0,0,1,4.29-.81,17.74,17.74,0,0,1,4.27.37,1.13,1.13,0,0,1,.86,1.25c0,.7-.29,1-.86,1a16,16,0,0,1-1.76-.18,20.69,20.69,0,0,0-2.81-.19,7.14,7.14,0,0,0-2.18.25c-.47.16-.7.62-.7,1.38v.26q0,1.48,3.12,1.59c.86,0,1.73.11,2.61.21a4,4,0,0,1,2.21,1,2.86,2.86,0,0,1,.9,2.33v.34c0,1.68-.47,2.83-1.42,3.44a8.86,8.86,0,0,1-4.58.9,19.84,19.84,0,0,1-4.52-.36,1.12,1.12,0,0,1-.86-1.25c0-.7.28-1,.86-1,.33,0,1,.06,2,.17a23.65,23.65,0,0,0,2.87.18,5.84,5.84,0,0,0,2.28-.37A1.6,1.6,0,0,0,96,125.89Z"/><path class="cls-1" d="M108.87,113.2a1.29,1.29,0,0,1,.41-1,1.33,1.33,0,0,1,1-.43,1.31,1.31,0,0,1,1,.43,1.44,1.44,0,0,1,.39,1,1.33,1.33,0,0,1-.41,1,1.32,1.32,0,0,1-1,.41,1.36,1.36,0,0,1-1-.41A1.38,1.38,0,0,1,108.87,113.2Zm2.62,4.22V129c0,.65-.42,1-1.26,1s-1.25-.33-1.25-1v-11.6c0-.65.42-1,1.25-1S111.49,116.77,111.49,117.42Z"/><path class="cls-1" d="M118.6,119c-.31.32-.46,1.32-.46,3v7c0,.66-.42,1-1.25,1s-1.26-.33-1.27-1v-7.31a13.78,13.78,0,0,1,.25-3,2.62,2.62,0,0,1,1-1.64,3.64,3.64,0,0,1,1.72-.7,26.7,26.7,0,0,1,3.11-.15c2.35,0,3.83.28,4.45.86a3.68,3.68,0,0,1,1.1,2.46c.06.59.09,1.32.09,2.17V129c0,.65-.42,1-1.25,1s-1.26-.33-1.26-1v-7c0-1.68-.16-2.68-.48-3s-1.28-.49-2.88-.49S118.91,118.68,118.6,119Z"/><path class="cls-1" d="M135.93,130a3.51,3.51,0,0,1-2.67-.82,4.13,4.13,0,0,1-.75-2.81v-7.7h-1.77c-.56,0-.85-.37-.85-1.11s.29-1.11.85-1.11h1.77v-3.56c0-.65.41-1,1.25-1s1.26.33,1.26,1v3.56h3.57c.56,0,.85.37.85,1.11s-.29,1.11-.85,1.11H135v7.89c0,.76.46,1.14,1.37,1.14l2.38-.13c.58,0,.87.33.87,1a1.3,1.3,0,0,1-.9,1.34C138.14,130,137.2,130,135.93,130Z"/><path class="cls-1" d="M152.64,127.59c.58,0,.87.35.87,1a1.13,1.13,0,0,1-.87,1.26,21.67,21.67,0,0,1-4.55.33,7.79,7.79,0,0,1-4.58-1,4.11,4.11,0,0,1-1.39-3.49v-5.12c0-1.72.42-2.87,1.26-3.46s2.4-.89,4.68-.89,3.84.28,4.64.85,1.2,1.73,1.2,3.5v2.21a1.56,1.56,0,0,1-.37,1.07,1.24,1.24,0,0,1-.94.38h-8v1.64c0,1.38,1.2,2.06,3.6,2a20.27,20.27,0,0,0,2.73-.16A15,15,0,0,1,152.64,127.59Zm-8-7V122h6.76v-1.45a1.77,1.77,0,0,0-.69-1.63,5.7,5.7,0,0,0-2.66-.42,6,6,0,0,0-2.68.4A1.74,1.74,0,0,0,144.63,120.57Z"/><path class="cls-1" d="M160.19,122v7c0,.65-.42,1-1.25,1s-1.26-.33-1.26-1v-7.31a8.6,8.6,0,0,1,.45-3.48A4.61,4.61,0,0,1,159,117c.6-.55,2.1-.82,4.51-.82a7.93,7.93,0,0,1,2.43.24.89.89,0,0,1,.62.89,1.31,1.31,0,0,1-.34,1,1.19,1.19,0,0,1-.87.32l-1.84-.12a8.46,8.46,0,0,0-2.15.16,2,2,0,0,0-.63.32,2.3,2.3,0,0,0-.3.63,2.93,2.93,0,0,0-.17,1C160.2,121,160.19,121.43,160.19,122Z"/><path class="cls-1" d="M173.77,130.14a2.15,2.15,0,0,1-1.34-.45,2.58,2.58,0,0,1-.85-1.14l-4-10.68c-.06-.28-.09-.43-.1-.45,0-.65.4-1,1.22-1a1.17,1.17,0,0,1,1.23.73l3.74,10.52h.14l3.76-10.52c.18-.49.63-.73,1.35-.73s1.08.32,1.08,1a4.16,4.16,0,0,1-.08.45l-4,10.68a2.34,2.34,0,0,1-2.21,1.59Z"/><path class="cls-1" d="M181.89,135.46h-1c-.57,0-.86-.39-.86-1.15s.29-1.15.86-1.15h1a1.23,1.23,0,0,0,.82-.29,1,1,0,0,0,.38-.86V117.39c0-.65.42-1,1.26-1s1.26.33,1.26,1v14.43a4.19,4.19,0,0,1-.74,2.8C184.35,135.17,183.37,135.45,181.89,135.46ZM183,113.2a1.29,1.29,0,0,1,.41-1,1.33,1.33,0,0,1,.95-.43,1.27,1.27,0,0,1,1,.43,1.4,1.4,0,0,1,.4,1,1.33,1.33,0,0,1-.41,1,1.32,1.32,0,0,1-1,.41,1.36,1.36,0,0,1-1-.41A1.38,1.38,0,0,1,183,113.2Z"/><path class="cls-1" d="M194.14,127.91h2.61a3.31,3.31,0,0,0,.87-.15,1.58,1.58,0,0,0,.71-.43,1.7,1.7,0,0,0,.31-1.12c0-.56,0-1.16,0-1.8v-7c0-.65.42-1,1.26-1s1.25.33,1.25,1v7.32a15.59,15.59,0,0,1-.22,3,2.59,2.59,0,0,1-1,1.62,3.49,3.49,0,0,1-1.69.7,22.24,22.24,0,0,1-2.87.14,21.78,21.78,0,0,1-2.85-.14,3.56,3.56,0,0,1-1.7-.7,2.61,2.61,0,0,1-.95-1.62,16.28,16.28,0,0,1-.23-3v-7.32c0-.65.43-1,1.26-1s1.25.33,1.25,1v7c0,1.7.16,2.72.46,3a1.32,1.32,0,0,0,.59.3A3.31,3.31,0,0,0,194.14,127.91Z"/><path class="cls-1" d="M211.71,123.34a16.77,16.77,0,0,1,.31-3.62,3.89,3.89,0,0,1,3-3.23,16,16,0,0,1,5.85,0,4,4,0,0,1,1.9,1.07,4.35,4.35,0,0,1,1.1,2.15,16.77,16.77,0,0,1,.31,3.62,16.5,16.5,0,0,1-.31,3.6,3.85,3.85,0,0,1-1.12,2.08,4.07,4.07,0,0,1-1.88,1,13.27,13.27,0,0,1-2.92.25A15.06,15.06,0,0,1,215,130a4.17,4.17,0,0,1-1.89-1,3.82,3.82,0,0,1-1.1-2.1A17.79,17.79,0,0,1,211.71,123.34Zm2.81-3.2a7.21,7.21,0,0,0-.3,2.5c0,1.19,0,2.14.1,2.85a3.39,3.39,0,0,0,.71,1.84,2.17,2.17,0,0,0,1.64.56c.27,0,.69,0,1.25,0,1.64,0,2.6-.19,2.89-.59a3.78,3.78,0,0,0,.73-1.86c.06-.67.09-1.38.09-2.11,0-2.18-.2-3.49-.61-4a3,3,0,0,0-.48-.51,3.28,3.28,0,0,0-2-.38c-1,0-1.66,0-1.93,0-.85.06-1.4.25-1.62.58A5.87,5.87,0,0,0,214.52,120.14Z"/><path class="cls-1" d="M241.83,118.52a16,16,0,0,0-1.63,0,1.49,1.49,0,0,0-1.33,1.34c0,.39-.07,1-.07,1.78V129c0,.66-.42,1-1.25,1s-1.26-.33-1.26-1v-7.68c0-1.29-.17-2.08-.51-2.38a3.44,3.44,0,0,0-2.09-.43c-1.06,0-1.75,0-2.07,0a1.42,1.42,0,0,0-.87.45,1.8,1.8,0,0,0-.41,1c0,.41-.05,1.07-.05,2v7c0,.66-.42,1-1.25,1s-1.26-.33-1.27-1v-7.31a9.24,9.24,0,0,1,.64-4,3.07,3.07,0,0,1,2.64-1.37c.52,0,1.27-.08,2.24-.09q3.26,0,4.26.78c.65-.51,2.07-.77,4.25-.78,1,0,1.7,0,2.23.08a3.17,3.17,0,0,1,2.61,1.3,9.33,9.33,0,0,1,.68,4.11V129c0,.65-.42,1-1.26,1s-1.25-.33-1.25-1v-7c0-.91,0-1.57-.07-2a1.8,1.8,0,0,0-.41-1,1.42,1.42,0,0,0-.86-.45A16.27,16.27,0,0,0,241.83,118.52Z"/><path class="cls-1" d="M69.23,145.85v11.09a17,17,0,0,1-.3,3.58,3.89,3.89,0,0,1-1.1,2.08,4,4,0,0,1-1.86,1,13.11,13.11,0,0,1-2.91.25,15,15,0,0,1-2.93-.23,4.17,4.17,0,0,1-1.89-1,3.82,3.82,0,0,1-1.1-2.1,17.79,17.79,0,0,1-.29-3.58,16.77,16.77,0,0,1,.31-3.62,3.89,3.89,0,0,1,3-3.23,14.47,14.47,0,0,1,3.23-.27,8.34,8.34,0,0,1,3.36.55v-4.52c0-.67.42-1,1.25-1S69.23,145.18,69.23,145.85Zm-9.57,7.89a7.21,7.21,0,0,0-.3,2.5c0,1.19,0,2.14.1,2.85a3.39,3.39,0,0,0,.71,1.84,2.16,2.16,0,0,0,1.63.56q.42,0,1.26,0c1.64,0,2.6-.19,2.89-.59a3.78,3.78,0,0,0,.73-1.86c.06-.67.09-1.38.09-2.11,0-2.18-.2-3.49-.61-4a3.48,3.48,0,0,0-.48-.51,3.32,3.32,0,0,0-2-.38c-1,0-1.65,0-1.92,0-.85.06-1.4.25-1.62.58A5.87,5.87,0,0,0,59.66,153.74Z"/><path class="cls-1" d="M74.47,152.48c-.58,0-.88-.34-.88-1a1.14,1.14,0,0,1,.88-1.26,19.22,19.22,0,0,1,4.54-.37c2.11,0,3.54.34,4.29,1a4.56,4.56,0,0,1,1.14,3.53v5.4c0,1.68-.41,2.78-1.23,3.29s-2.4.77-4.72.77-3.87-.26-4.67-.77-1.18-1.6-1.18-3.28a5.08,5.08,0,0,1,.9-3.46c.62-.63,1.86-.95,3.74-.94h4.64v-1.45a1.56,1.56,0,0,0-.64-1.42,4.73,4.73,0,0,0-2.29-.38,18.09,18.09,0,0,0-2.85.19A10.06,10.06,0,0,1,74.47,152.48ZM81.92,160v-2.38H78a4.9,4.9,0,0,0-2.35.36c-.35.24-.53.77-.53,1.61s.23,1.39.67,1.63a6.89,6.89,0,0,0,2.68.34,8.07,8.07,0,0,0,2.7-.3A1.25,1.25,0,0,0,81.92,160Z"/><path class="cls-1" d="M93,163.6a3.51,3.51,0,0,1-2.67-.82,4.13,4.13,0,0,1-.75-2.81v-7.7H87.81c-.56,0-.85-.37-.85-1.11s.29-1.11.85-1.11h1.77v-3.56c0-.65.42-1,1.25-1s1.26.33,1.26,1v3.56h3.57c.56,0,.85.37.85,1.11s-.29,1.11-.85,1.11H92.09v7.89c0,.76.46,1.14,1.37,1.14l2.38-.13c.58,0,.87.33.87,1a1.3,1.3,0,0,1-.9,1.34C95.21,163.57,94.27,163.6,93,163.6Z"/><path class="cls-1" d="M100.75,152.48c-.59,0-.88-.34-.88-1a1.13,1.13,0,0,1,.88-1.26,19.22,19.22,0,0,1,4.54-.37c2.11,0,3.54.34,4.29,1a4.6,4.6,0,0,1,1.13,3.53v5.4c0,1.68-.41,2.78-1.23,3.29s-2.39.77-4.71.77-3.88-.26-4.67-.77-1.19-1.6-1.19-3.28a5.08,5.08,0,0,1,.91-3.46c.61-.63,1.86-.95,3.74-.94h4.64v-1.45a1.56,1.56,0,0,0-.65-1.42,4.71,4.71,0,0,0-2.28-.38,18.32,18.32,0,0,0-2.86.19A9.88,9.88,0,0,1,100.75,152.48ZM108.2,160v-2.38h-3.89a4.9,4.9,0,0,0-2.35.36c-.35.24-.53.77-.53,1.61s.22,1.39.67,1.63a6.79,6.79,0,0,0,2.67.34,8,8,0,0,0,2.7-.3A1.24,1.24,0,0,0,108.2,160Z"/><path class="cls-1" d="M116,152.48c-.58,0-.87-.34-.87-1a1.13,1.13,0,0,1,.87-1.26,19.27,19.27,0,0,1,4.54-.37c2.11,0,3.55.34,4.29,1a4.56,4.56,0,0,1,1.14,3.53v5.4c0,1.68-.41,2.78-1.23,3.29s-2.39.77-4.71.77-3.88-.26-4.67-.77-1.19-1.6-1.19-3.28a5,5,0,0,1,.91-3.46c.61-.63,1.85-.95,3.73-.94h4.64v-1.45a1.56,1.56,0,0,0-.64-1.42,4.71,4.71,0,0,0-2.28-.38,18.14,18.14,0,0,0-2.86.19A10,10,0,0,1,116,152.48Zm7.45,7.48v-2.38h-3.89a4.82,4.82,0,0,0-2.34.36c-.36.24-.54.77-.54,1.61s.23,1.39.67,1.63a6.89,6.89,0,0,0,2.68.34,8,8,0,0,0,2.7-.3A1.25,1.25,0,0,0,123.48,160Z"/><path class="cls-1" d="M132.85,152.6c-.31.32-.47,1.32-.47,3v7c0,.66-.41,1-1.25,1s-1.25-.33-1.26-1v-7.31a14.56,14.56,0,0,1,.24-3,2.67,2.67,0,0,1,1-1.64,3.6,3.6,0,0,1,1.72-.7,26.5,26.5,0,0,1,3.1-.15c2.36,0,3.84.28,4.46.86a3.67,3.67,0,0,1,1.09,2.46,19.07,19.07,0,0,1,.1,2.17v7.31c0,.65-.42,1-1.26,1s-1.26-.33-1.26-1v-7c0-1.68-.16-2.68-.47-3s-1.28-.49-2.88-.49S133.16,152.28,132.85,152.6Z"/><path class="cls-1" d="M155.32,148.5q0-.9,1.26-.9c.84,0,1.26.31,1.26.92v5.94c0,1.75-.44,2.91-1.33,3.46a8.6,8.6,0,0,1-4.41.84,20.65,20.65,0,0,1-4.1-.26v2.16h5.1c1.91,0,3.21.33,3.89,1a4.59,4.59,0,0,1,1,3.36,3.53,3.53,0,0,1-1.36,3.22c-.92.59-2.53.88-4.85.88a10.74,10.74,0,0,1-4.89-.79c-.94-.52-1.41-1.6-1.42-3.24v-11a4.67,4.67,0,0,1,.78-3.06,4.2,4.2,0,0,1,3-1.06,23.41,23.41,0,0,1,6.1.28ZM148,154.4c0,1,.19,1.62.56,1.83a6.8,6.8,0,0,0,2.7.32,11.93,11.93,0,0,0,2.9-.23,1.37,1.37,0,0,0,1-.68,4.23,4.23,0,0,0,.19-1.52v-1.66a30.59,30.59,0,0,0-4-.29,5.79,5.79,0,0,0-2.58.41,1.81,1.81,0,0,0-.75,1.71Zm0,8.48v2.31a1.35,1.35,0,0,0,.9,1.33,8.12,8.12,0,0,0,3,.39,6.3,6.3,0,0,0,2.76-.41,1.69,1.69,0,0,0,.7-1.59,1.76,1.76,0,0,0-.67-1.61,5.07,5.07,0,0,0-2.47-.42Z"/><path class="cls-1" d="M163.69,155.64v7c0,.65-.42,1-1.25,1s-1.26-.33-1.26-1v-7.31a8.6,8.6,0,0,1,.45-3.48,4.61,4.61,0,0,1,.82-1.19c.6-.55,2.1-.82,4.51-.82a7.93,7.93,0,0,1,2.43.24.89.89,0,0,1,.62.89,1.31,1.31,0,0,1-.34,1,1.19,1.19,0,0,1-.87.32l-1.84-.12a8.46,8.46,0,0,0-2.15.16,2,2,0,0,0-.63.32,2.3,2.3,0,0,0-.3.63,2.93,2.93,0,0,0-.17,1C163.7,154.55,163.69,155,163.69,155.64Z"/><path class="cls-1" d="M182.56,161.19c.57,0,.86.35.86,1a1.13,1.13,0,0,1-.86,1.26,21.67,21.67,0,0,1-4.55.33,7.77,7.77,0,0,1-4.58-1,4.09,4.09,0,0,1-1.4-3.49v-5.12c0-1.72.42-2.87,1.26-3.46s2.4-.89,4.69-.89,3.83.28,4.63.85,1.21,1.73,1.21,3.5v2.21a1.61,1.61,0,0,1-.37,1.07,1.27,1.27,0,0,1-.95.38h-7.95v1.64c0,1.38,1.2,2.06,3.59,2.05a20.53,20.53,0,0,0,2.74-.16A14.83,14.83,0,0,1,182.56,161.19Zm-8-7v1.45h6.75v-1.45a1.79,1.79,0,0,0-.68-1.63,5.78,5.78,0,0,0-2.67-.42,6.07,6.07,0,0,0-2.68.4A1.76,1.76,0,0,0,174.55,154.17Z"/><path class="cls-1" d="M187.59,168.08V156.71a16.24,16.24,0,0,1,.31-3.58,4,4,0,0,1,1.11-2.08,4.07,4.07,0,0,1,1.85-1,13.9,13.9,0,0,1,2.92-.24,14.14,14.14,0,0,1,2.93.24,4.25,4.25,0,0,1,1.9,1,3.86,3.86,0,0,1,1.1,2.09,18.06,18.06,0,0,1,.28,3.6,16.64,16.64,0,0,1-.31,3.62,3.89,3.89,0,0,1-3,3.22,15.28,15.28,0,0,1-3.24.26,8.34,8.34,0,0,1-3.36-.55v4.82c0,.65-.42,1-1.26,1S187.6,168.74,187.59,168.08Zm9.58-8.14a7.2,7.2,0,0,0,.3-2.51c0-1.21,0-2.16-.09-2.86a3.67,3.67,0,0,0-.7-1.86c-.29-.4-1.26-.59-2.9-.59s-2.62.19-2.91.59a3.56,3.56,0,0,0-.72,1.89,20.58,20.58,0,0,0-.1,2.11c0,.73,0,1.33.07,1.82s.1.91.16,1.27a2.51,2.51,0,0,0,.87,1.38,1.75,1.75,0,0,0,1.12.34c.52,0,1,0,1.57,0s.93,0,1.2,0a6.12,6.12,0,0,0,.91-.15,1.13,1.13,0,0,0,.73-.43A7.78,7.78,0,0,0,197.17,159.94Z"/><path class="cls-1" d="M214.07,161.19c.58,0,.86.35.86,1a1.12,1.12,0,0,1-.86,1.26,21.67,21.67,0,0,1-4.55.33,7.79,7.79,0,0,1-4.58-1,4.12,4.12,0,0,1-1.4-3.49v-5.12c0-1.72.42-2.87,1.26-3.46s2.41-.89,4.69-.89,3.84.28,4.64.85,1.2,1.73,1.2,3.5v2.21a1.56,1.56,0,0,1-.37,1.07,1.25,1.25,0,0,1-1,.38h-7.95v1.64c0,1.38,1.2,2.06,3.6,2.05a20.27,20.27,0,0,0,2.73-.16A14.83,14.83,0,0,1,214.07,161.19Zm-8-7v1.45h6.75v-1.45a1.77,1.77,0,0,0-.68-1.63,5.72,5.72,0,0,0-2.67-.42,6,6,0,0,0-2.67.4A1.74,1.74,0,0,0,206.06,154.17Z"/><path class="cls-1" d="M223.8,163.6a3.51,3.51,0,0,1-2.67-.82,4.13,4.13,0,0,1-.75-2.81v-7.7h-1.77c-.57,0-.85-.37-.85-1.11s.28-1.11.85-1.11h1.77v-3.56c0-.65.41-1,1.25-1s1.26.33,1.26,1v3.56h3.57c.56,0,.85.37.85,1.11s-.29,1.11-.85,1.11h-3.57v7.89c0,.76.46,1.14,1.37,1.14l2.38-.13c.58,0,.87.33.87,1a1.3,1.3,0,0,1-.9,1.34C226,163.57,225.07,163.6,223.8,163.6Z"/><path class="cls-1" d="M71,185.72a16,16,0,0,0-1.63.05,1.47,1.47,0,0,0-.87.41,1.42,1.42,0,0,0-.45.93A15.64,15.64,0,0,0,68,188.9v7.31q0,1-1.26,1t-1.26-1v-7.68c0-1.29-.17-2.08-.5-2.38a3.48,3.48,0,0,0-2.1-.43c-1.06,0-1.75,0-2.07.05a1.37,1.37,0,0,0-.86.45,1.67,1.67,0,0,0-.41,1q-.06.62-.06,2v7c0,.66-.42,1-1.25,1s-1.26-.33-1.26-1v-7.3a9.11,9.11,0,0,1,.64-4,3.07,3.07,0,0,1,2.64-1.37c.52,0,1.26-.08,2.24-.09,2.17,0,3.58.26,4.25.78.66-.51,2.07-.77,4.25-.78,1,0,1.7,0,2.23.08a3.15,3.15,0,0,1,2.61,1.3,9.18,9.18,0,0,1,.69,4.12v7.3c0,.65-.42,1-1.26,1s-1.26-.33-1.26-1v-7a18.67,18.67,0,0,0-.07-2,1.67,1.67,0,0,0-.41-1,1.37,1.37,0,0,0-.86-.45A16.14,16.14,0,0,0,71,185.72Z"/><path class="cls-1" d="M80.31,190.54a16.77,16.77,0,0,1,.31-3.62,3.89,3.89,0,0,1,3-3.23,16,16,0,0,1,5.85,0,4,4,0,0,1,1.9,1.07,4.35,4.35,0,0,1,1.1,2.15,16.77,16.77,0,0,1,.31,3.62,16.5,16.5,0,0,1-.31,3.6,3.85,3.85,0,0,1-1.12,2.08,4.07,4.07,0,0,1-1.88,1,13.27,13.27,0,0,1-2.92.25,15.06,15.06,0,0,1-2.93-.23,4.17,4.17,0,0,1-1.89-1,3.82,3.82,0,0,1-1.1-2.1A17.79,17.79,0,0,1,80.31,190.54Zm2.81-3.2a7.21,7.21,0,0,0-.3,2.5c0,1.19,0,2.14.1,2.85a3.39,3.39,0,0,0,.71,1.84,2.17,2.17,0,0,0,1.64.56c.27,0,.69,0,1.25,0,1.64,0,2.6-.19,2.89-.59a3.78,3.78,0,0,0,.73-1.86c.06-.67.09-1.38.09-2.11,0-2.18-.2-3.49-.61-3.95a3,3,0,0,0-.48-.51,3.28,3.28,0,0,0-2-.38c-1,0-1.66,0-1.93,0-.85.06-1.4.25-1.62.58A5.87,5.87,0,0,0,83.12,187.34Z"/><path class="cls-1" d="M101.06,197.2a3.5,3.5,0,0,1-2.66-.82,4.07,4.07,0,0,1-.76-2.81v-7.7H95.88c-.57,0-.85-.37-.85-1.11s.28-1.11.85-1.11h1.76v-3.56c0-.65.42-1,1.26-1s1.26.33,1.26,1v3.56h3.56c.57,0,.85.37.85,1.11s-.28,1.11-.85,1.11h-3.56v7.89c0,.76.45,1.14,1.37,1.14l2.37-.13c.59,0,.88.33.88,1a1.3,1.3,0,0,1-.9,1.34C103.28,197.17,102.34,197.2,101.06,197.2Z"/><path class="cls-1" d="M128,194.51V180c0-.67.42-1,1.26-1s1.26.34,1.26,1v14.78a2.46,2.46,0,0,1-.69,1.9,2.29,2.29,0,0,1-1.61.65,2.49,2.49,0,0,1-1.48-.41,4,4,0,0,1-1-1.18l-8.08-14.07h-.14v14.51c0,.67-.42,1-1.25,1s-1.26-.34-1.26-1V181.41a2.5,2.5,0,0,1,.67-1.9,2.22,2.22,0,0,1,1.59-.64,2.5,2.5,0,0,1,1.48.42,3.87,3.87,0,0,1,1,1.16l8.12,14.06Z"/><path class="cls-1" d="M135.1,190.54a17.43,17.43,0,0,1,.31-3.62,3.92,3.92,0,0,1,3-3.23,16,16,0,0,1,5.85,0,3.88,3.88,0,0,1,1.89,1.07,4.28,4.28,0,0,1,1.11,2.15,17.53,17.53,0,0,1,.3,3.62,17.25,17.25,0,0,1-.3,3.6,3.92,3.92,0,0,1-1.12,2.08,4.12,4.12,0,0,1-1.88,1,13.34,13.34,0,0,1-2.92.25,15,15,0,0,1-2.93-.23,4.07,4.07,0,0,1-1.89-1,3.82,3.82,0,0,1-1.1-2.1A17,17,0,0,1,135.1,190.54Zm2.82-3.2a7.21,7.21,0,0,0-.3,2.5q0,1.78.09,2.85a3.46,3.46,0,0,0,.71,1.84,2.2,2.2,0,0,0,1.64.56q.41,0,1.26,0c1.64,0,2.6-.19,2.89-.59a3.68,3.68,0,0,0,.72-1.86,20.45,20.45,0,0,0,.1-2.11c0-2.18-.21-3.49-.61-3.95a4.11,4.11,0,0,0-.48-.51,3.32,3.32,0,0,0-2-.38c-1,0-1.65,0-1.92,0-.86.06-1.4.25-1.63.58A6.89,6.89,0,0,0,137.92,187.34Z"/><path class="cls-1" d="M153.68,189.24v7c0,.65-.41,1-1.25,1s-1.25-.33-1.26-1v-7.3a8.63,8.63,0,0,1,.45-3.49,4.6,4.6,0,0,1,.83-1.19c.59-.55,2.1-.82,4.5-.82a7.93,7.93,0,0,1,2.43.24.89.89,0,0,1,.62.89,1.27,1.27,0,0,1-.34,1,1.18,1.18,0,0,1-.86.32l-1.85-.12a8.46,8.46,0,0,0-2.15.16,1.9,1.9,0,0,0-.62.32,1.83,1.83,0,0,0-.3.63,3.21,3.21,0,0,0-.18,1C153.69,188.15,153.68,188.63,153.68,189.24Z"/><path class="cls-1" d="M170.6,193.09v-.32a1,1,0,0,0-.66-1,5.68,5.68,0,0,0-2.28-.3,13.68,13.68,0,0,1-3.61-.51,2.93,2.93,0,0,1-1.64-1.11,3.55,3.55,0,0,1-.66-2.24v-.23q0-2.34,1.41-3.15a8.86,8.86,0,0,1,4.29-.81,17.79,17.79,0,0,1,4.27.37,1.13,1.13,0,0,1,.86,1.25c0,.7-.29,1-.86,1a16.32,16.32,0,0,1-1.77-.18,20.54,20.54,0,0,0-2.8-.19A7.26,7.26,0,0,0,165,186q-.69.24-.69,1.38v.26c0,1,1,1.52,3.11,1.59.87,0,1.74.11,2.61.21a4,4,0,0,1,2.22,1,2.86,2.86,0,0,1,.9,2.33v.34c0,1.68-.47,2.83-1.42,3.44a8.88,8.88,0,0,1-4.58.9,19.94,19.94,0,0,1-4.53-.36,1.13,1.13,0,0,1-.86-1.25c0-.7.29-1,.86-1,.34,0,1,.06,2,.17a23.65,23.65,0,0,0,2.87.18,5.84,5.84,0,0,0,2.28-.37A1.62,1.62,0,0,0,170.6,193.09Z"/><path class="cls-1" d="M179.09,179.45v10.8l6.26-6.33a1.29,1.29,0,0,1,.93-.42,1.17,1.17,0,0,1,.87.36,1.06,1.06,0,0,1,.36.82,1.32,1.32,0,0,1-.45.93L183.45,189l4.45,6.22a1.41,1.41,0,0,1,.28.83,1.06,1.06,0,0,1-.4.82,1.3,1.3,0,0,1-.93.39.93.93,0,0,1-.82-.45l-4.37-6.13L179.09,193v3.19c0,.65-.42,1-1.26,1s-1.25-.33-1.26-1V179.45c0-.67.43-1,1.26-1S179.09,178.78,179.09,179.45Z"/><path class="cls-1" d="M71.63,213.61v16.21c0,.65-.44,1-1.27,1s-1.25-.33-1.25-1v-7.41H60.32v7.41c0,.65-.42,1-1.26,1s-1.26-.33-1.26-1V213.61c0-.67.42-1,1.26-1s1.26.34,1.26,1v6.5h8.79v-6.5c0-.67.42-1,1.25-1S71.62,212.94,71.63,213.61Z"/><path class="cls-1" d="M79.88,236.25c-.72,0-1.08-.32-1.09-1t.09-.45l1.51-4A2.35,2.35,0,0,1,79,229.35l-4-10.68c-.05-.28-.08-.43-.08-.45,0-.65.36-1,1.08-1s1.17.24,1.35.74l3.76,10.52h.14L85,218c.18-.49.63-.73,1.35-.73s1.08.32,1.08,1c0,0,0,.17-.08.45l-6.15,16.86C81.05,236,80.6,236.25,79.88,236.25Z"/><path class="cls-1" d="M102.24,213.05v11.09a17,17,0,0,1-.3,3.58,3.84,3.84,0,0,1-1.11,2.08,4,4,0,0,1-1.86,1,13.11,13.11,0,0,1-2.91.25,15.06,15.06,0,0,1-2.93-.23,4.09,4.09,0,0,1-1.88-1,3.7,3.7,0,0,1-1.1-2.1,18.44,18.44,0,0,1-.3-3.58,16.77,16.77,0,0,1,.31-3.62,3.89,3.89,0,0,1,3-3.23,14.54,14.54,0,0,1,3.23-.27,8.34,8.34,0,0,1,3.36.55v-4.52c0-.67.42-1,1.26-1S102.24,212.38,102.24,213.05Zm-9.57,7.89a7,7,0,0,0-.3,2.5q0,1.78.09,2.85a3.39,3.39,0,0,0,.71,1.84,2.19,2.19,0,0,0,1.64.56c.27,0,.69,0,1.25,0,1.64,0,2.61-.2,2.9-.59a3.68,3.68,0,0,0,.72-1.86c.06-.67.1-1.38.1-2.11,0-2.18-.21-3.49-.62-3.95a3,3,0,0,0-.48-.51,3.28,3.28,0,0,0-2-.38c-1,0-1.65,0-1.93,0-.85.06-1.39.25-1.62.58A6,6,0,0,0,92.67,220.94Z"/><path class="cls-1" d="M108.54,222.84v7c0,.65-.42,1-1.25,1s-1.26-.33-1.27-1v-7.31a8.6,8.6,0,0,1,.45-3.48,4.86,4.86,0,0,1,.83-1.19c.6-.55,2.1-.82,4.51-.82a7.93,7.93,0,0,1,2.43.24.89.89,0,0,1,.62.89,1.28,1.28,0,0,1-.35,1,1.15,1.15,0,0,1-.86.32l-1.84-.12a8.46,8.46,0,0,0-2.15.16,2,2,0,0,0-.63.32,2.3,2.3,0,0,0-.3.63,3.21,3.21,0,0,0-.18,1C108.54,221.75,108.54,222.23,108.54,222.84Z"/><path class="cls-1" d="M116,224.14a16.68,16.68,0,0,1,.32-3.62,3.88,3.88,0,0,1,3-3.23,16,16,0,0,1,5.85,0,4,4,0,0,1,1.9,1.06,4.43,4.43,0,0,1,1.1,2.16,17.43,17.43,0,0,1,.31,3.62,17.15,17.15,0,0,1-.31,3.6,3.85,3.85,0,0,1-1.12,2.08,4.07,4.07,0,0,1-1.88,1,13.27,13.27,0,0,1-2.92.25,15,15,0,0,1-2.93-.23,4.17,4.17,0,0,1-1.89-1,3.82,3.82,0,0,1-1.1-2.1A17,17,0,0,1,116,224.14Zm2.82-3.2a7.21,7.21,0,0,0-.3,2.5c0,1.19,0,2.14.1,2.85a3.39,3.39,0,0,0,.71,1.84,2.16,2.16,0,0,0,1.63.56q.42,0,1.26,0c1.64,0,2.6-.2,2.89-.59a3.78,3.78,0,0,0,.73-1.86c.06-.67.09-1.38.09-2.11,0-2.18-.2-3.49-.61-3.95a4.11,4.11,0,0,0-.48-.51,3.32,3.32,0,0,0-2-.38c-1,0-1.65,0-1.92,0-.86.06-1.4.25-1.62.58A5.87,5.87,0,0,0,118.86,220.94Z"/></svg>