<svg id="Layer_1" data-name="Layer 1" xmlns="http://www.w3.org/2000/svg" viewBox="0 0 300 600"><defs><style>.cls-1{fill:#010121;}</style></defs><title>text</title><path class="cls-1" d="M94.72,195.93h1.61v10.12h12.32V195.93h1.61V219h-1.61V207.45H96.33V219H94.72Z"/><path class="cls-1" d="M126.67,208.46c.07-2.55-.66-5.32-4-5.32a9.27,9.27,0,0,0-5.36,2l-.7-1.15a11.21,11.21,0,0,1,6.23-2.17c4,0,5.32,2.87,5.32,6.47V219h-1.29l-.18-2.17h-.07c-1.71,1.36-3.74,2.59-6,2.59-2.66,0-4.9-1.44-4.9-4.62C115.82,211.09,119.22,209.3,126.67,208.46Zm-5.7,9.63c1.92,0,3.64-.94,5.7-2.73v-5.71c-6.89.81-9.24,2.42-9.24,5.08C117.43,217.15,119,218.09,121,218.09Z"/><path class="cls-1" d="M134.23,202.2h1.33l.14,3.11h.11c1.12-2.06,2.76-3.53,4.76-3.53a3.46,3.46,0,0,1,1.68.35l-.35,1.4a3.68,3.68,0,0,0-1.54-.28c-1.51,0-3.29,1.15-4.59,4.3V219h-1.54Z"/><path class="cls-1" d="M158.35,201.78a7.77,7.77,0,0,1,5.07,2.06l-.07-3.08v-6.93h1.54V219h-1.33l-.14-2.17h-.1a7.9,7.9,0,0,1-5.46,2.59c-4.24,0-7-3.12-7-8.79C150.89,205.21,154.36,201.78,158.35,201.78Zm-.28,16.27c1.85,0,3.5-1,5.28-2.76v-10a7.11,7.11,0,0,0-4.9-2.17c-3.36,0-5.91,3.26-5.91,7.49C152.54,215.08,154.5,218.05,158.07,218.05Z"/><path class="cls-1" d="M177.25,201.78c4,0,6.44,2.83,6.44,7.77a7.61,7.61,0,0,1-.07,1.26H171.51c.07,4.23,2.55,7.28,6.33,7.28a7.46,7.46,0,0,0,4.52-1.51l.63,1.19a9.34,9.34,0,0,1-5.29,1.65c-4.3,0-7.77-3.29-7.77-8.79S173.5,201.78,177.25,201.78Zm5,7.84c0-4.31-1.93-6.51-4.94-6.51s-5.42,2.48-5.77,6.51Z"/><path class="cls-1" d="M188.24,202.2h1.33l.14,3.11h.1c1.12-2.06,2.77-3.53,4.76-3.53a3.46,3.46,0,0,1,1.68.35l-.35,1.4a3.65,3.65,0,0,0-1.54-.28c-1.5,0-3.29,1.15-4.58,4.3V219h-1.54Z"/><path class="cls-1" d="M204.9,201.78c4,0,6.44,2.83,6.44,7.77a7.61,7.61,0,0,1-.07,1.26H199.16c.07,4.23,2.55,7.28,6.33,7.28a7.46,7.46,0,0,0,4.52-1.51l.63,1.19a9.34,9.34,0,0,1-5.29,1.65c-4.3,0-7.77-3.29-7.77-8.79S201.15,201.78,204.9,201.78Zm5,7.84c0-4.31-1.93-6.51-4.94-6.51s-5.42,2.48-5.77,6.51Z"/><path class="cls-1" d="M60.28,244.2h1.54v10.57c0,3.57,1.12,5.25,3.81,5.25,2,0,3.47-1,5.43-3.43V244.2H72.6V261H71.3l-.17-2.8h-.07c-1.64,1.93-3.39,3.22-5.71,3.22-3.46,0-5.07-2.1-5.07-6.44Z"/><path class="cls-1" d="M85.48,237.23a4.54,4.54,0,0,0-2-.49c-1.79,0-2.63,1.4-2.63,3.82v3.64h3.89v1.33H80.82V261H79.28V245.53H77v-1.19l2.31-.14v-3.75c0-3.32,1.51-5,4.17-5a6.23,6.23,0,0,1,2.45.56Z"/><path class="cls-1" d="M94,243.78c4.06,0,7.56,3.22,7.56,8.85s-3.5,8.79-7.56,8.79-7.53-3.22-7.53-8.79S90,243.78,94,243.78Zm0,16.27c3.39,0,6-3,6-7.42s-2.56-7.49-6-7.49-5.92,3.05-5.92,7.49S90.62,260.05,94,260.05Z"/><path class="cls-1" d="M106.62,244.2H108l.14,3.11h.1c1.12-2.06,2.77-3.53,4.76-3.53a3.46,3.46,0,0,1,1.68.35l-.35,1.4a3.65,3.65,0,0,0-1.54-.28c-1.5,0-3.29,1.15-4.58,4.3V261h-1.54Z"/><path class="cls-1" d="M117.47,244.2H119v10.57c0,3.57,1.12,5.25,3.81,5.25,2,0,3.47-1,5.43-3.43V244.2h1.54V261h-1.3l-.17-2.8h-.07c-1.65,1.93-3.4,3.22-5.71,3.22-3.46,0-5.07-2.1-5.07-6.44Z"/><path class="cls-1" d="M136.61,245.53H134v-1.19l2.66-.14.21-4.87h1.33v4.87h4.86v1.33h-4.86v11c0,2.14.52,3.57,2.83,3.57a5.6,5.6,0,0,0,2.1-.52l.42,1.26a9.38,9.38,0,0,1-2.73.63c-3.25,0-4.2-2.07-4.2-5.08Z"/><path class="cls-1" d="M146,258a7.74,7.74,0,0,0,5.35,2.14c2.63,0,4-1.54,4-3.33,0-2.1-2.17-3-4.09-3.71-2.56-.91-5.36-1.92-5.36-4.79,0-2.45,1.93-4.48,5.43-4.48a7.75,7.75,0,0,1,4.79,1.75l-.84,1.08a6.35,6.35,0,0,0-4-1.5c-2.59,0-3.78,1.5-3.78,3,0,1.86,2,2.66,3.95,3.4,2.63,1,5.5,1.85,5.5,5.14,0,2.52-2,4.73-5.67,4.73a9.7,9.7,0,0,1-6.16-2.31Z"/><path class="cls-1" d="M160.73,238.77a1.4,1.4,0,1,1,1.4,1.37A1.34,1.34,0,0,1,160.73,238.77Zm.59,5.43h1.54V261h-1.54Z"/><path class="cls-1" d="M170.42,260.37v-.14a3,3,0,0,1-1.47-2.7,4,4,0,0,1,1.82-3.08v-.14a6.27,6.27,0,0,1-2.1-4.62,5.78,5.78,0,0,1,5.92-5.91,6,6,0,0,1,2.2.42h5.71v1.29h-3.92a5.61,5.61,0,0,1,1.85,4.24,5.86,5.86,0,0,1-8.64,5.21,3,3,0,0,0-1.37,2.42c0,1.22.7,2.2,3.22,2.2h3.61c3.78,0,5.53,1.19,5.53,3.86,0,2.9-3.12,5.67-7.95,5.67-4.23,0-6.89-1.82-6.89-4.66A5.29,5.29,0,0,1,170.42,260.37Zm4.59,7.46c3.78,0,6.19-2.14,6.19-4.24,0-1.86-1.36-2.55-3.88-2.55h-3.61a10.66,10.66,0,0,1-2.1-.29,4.41,4.41,0,0,0-2.2,3.54C169.41,266.39,171.44,267.83,175,267.83Zm3.92-18.14a4.37,4.37,0,1,0-8.72,0,4.37,4.37,0,1,0,8.72,0Z"/><path class="cls-1" d="M186.38,235.83h1.54v7.28l-.07,3.29c1.72-1.43,3.75-2.62,5.81-2.62,4.48,0,6.72,3.36,6.72,8.57,0,5.71-3.46,9.07-7.42,9.07a8.68,8.68,0,0,1-5-2h-.07l-.17,1.58h-1.3Zm6.51,24.22c3.4,0,5.85-3.15,5.85-7.7,0-4.13-1.47-7.21-5.32-7.21-1.68,0-3.5,1-5.5,2.77v10A8.07,8.07,0,0,0,192.89,260.05Z"/><path class="cls-1" d="M214.8,250.46c.07-2.55-.66-5.32-4-5.32a9.27,9.27,0,0,0-5.36,2l-.7-1.15a11.21,11.21,0,0,1,6.23-2.17c4,0,5.32,2.87,5.32,6.47V261h-1.29l-.18-2.17h-.07c-1.71,1.36-3.74,2.59-6,2.59-2.66,0-4.9-1.44-4.9-4.62C204,253.09,207.35,251.3,214.8,250.46Zm-5.7,9.63c1.92,0,3.64-.94,5.7-2.73v-5.71c-6.89.81-9.24,2.42-9.24,5.08C205.56,259.15,207.17,260.09,209.1,260.09Z"/><path class="cls-1" d="M222.36,244.2h1.33l.14,3.11h.11c1.12-2.06,2.76-3.53,4.76-3.53a3.46,3.46,0,0,1,1.68.35l-.35,1.4a3.68,3.68,0,0,0-1.54-.28c-1.51,0-3.29,1.15-4.59,4.3V261h-1.54Z"/><path class="cls-1" d="M239,243.78c4,0,6.44,2.83,6.44,7.77a7.61,7.61,0,0,1-.07,1.26H233.28c.07,4.23,2.56,7.28,6.34,7.28a7.43,7.43,0,0,0,4.51-1.51l.63,1.19a9.31,9.31,0,0,1-5.28,1.65c-4.31,0-7.77-3.29-7.77-8.79S235.28,243.78,239,243.78Zm5,7.84c0-4.31-1.92-6.51-4.93-6.51s-5.43,2.48-5.78,6.51Z"/><path class="cls-1" d="M78,279.93H79.6V303H78Z"/><path class="cls-1" d="M91.11,281.33H83.76v-1.4H100v1.4H92.72V303H91.11Z"/><path class="cls-1" d="M99.55,293.58h7.7V295h-7.7Z"/><path class="cls-1" d="M113.37,304.47v6.13h-1.54V286.2h1.33l.14,2.1h.11c1.64-1.3,3.64-2.52,5.7-2.52,4.48,0,6.72,3.36,6.72,8.57,0,5.71-3.46,9.07-7.42,9.07a8.92,8.92,0,0,1-5-2.06Zm5-2.42c3.4,0,5.85-3.15,5.85-7.7,0-4.13-1.47-7.21-5.32-7.21-1.68,0-3.47,1-5.5,2.77v10A8.23,8.23,0,0,0,118.34,302.05Z"/><path class="cls-1" d="M130.87,286.2h1.33l.14,3.11h.11c1.12-2.06,2.76-3.53,4.76-3.53a3.46,3.46,0,0,1,1.68.35l-.35,1.4a3.68,3.68,0,0,0-1.54-.28c-1.51,0-3.29,1.15-4.59,4.3V303h-1.54Z"/><path class="cls-1" d="M147.74,285.78c4.06,0,7.56,3.22,7.56,8.85s-3.5,8.79-7.56,8.79-7.52-3.22-7.52-8.79S143.72,285.78,147.74,285.78Zm0,16.27c3.4,0,5.95-3,5.95-7.42s-2.55-7.49-5.95-7.49-5.91,3.05-5.91,7.49S144.35,302.05,147.74,302.05Z"/><path class="cls-1" d="M159.15,300a7.81,7.81,0,0,0,5.36,2.14c2.62,0,4-1.54,4-3.33,0-2.1-2.17-3-4.1-3.71-2.55-.91-5.35-1.92-5.35-4.79,0-2.45,1.92-4.48,5.42-4.48a7.78,7.78,0,0,1,4.8,1.75l-.84,1.08a6.36,6.36,0,0,0-4-1.5c-2.59,0-3.78,1.5-3.78,3,0,1.86,2,2.66,4,3.4,2.62,1,5.49,1.85,5.49,5.14,0,2.52-2,4.73-5.67,4.73a9.75,9.75,0,0,1-6.16-2.31Z"/><path class="cls-1" d="M174.52,286.2h1.57v19.92c0,3.29-1.19,4.9-3.78,4.9a6.34,6.34,0,0,1-2.17-.42l.39-1.26a5.69,5.69,0,0,0,1.75.35c1.89,0,2.24-1.54,2.24-3.68Zm-.6-5.43a1.42,1.42,0,0,1,2.84,0,1.42,1.42,0,0,1-2.84,0Z"/><path class="cls-1" d="M188.45,285.78c4,0,6.44,2.83,6.44,7.77a7.61,7.61,0,0,1-.07,1.26H182.71c.07,4.23,2.55,7.28,6.33,7.28a7.46,7.46,0,0,0,4.52-1.51l.63,1.2a9.42,9.42,0,0,1-5.29,1.64c-4.3,0-7.77-3.29-7.77-8.79S184.7,285.78,188.45,285.78Zm5,7.84c0-4.31-1.93-6.51-4.94-6.51s-5.42,2.48-5.77,6.51Z"/><path class="cls-1" d="M199.44,277.83H201v18.55h.07l8.29-10.18h1.79l-5.46,6.65L212,303h-1.72l-5.56-9L201,298.41V303h-1.54Z"/><path class="cls-1" d="M215.68,287.53h-2.63v-1.19l2.66-.14.21-4.87h1.33v4.87h4.87v1.33h-4.87v11c0,2.14.53,3.57,2.84,3.57a5.64,5.64,0,0,0,2.1-.52l.42,1.26a9.38,9.38,0,0,1-2.73.63c-3.26,0-4.2-2.06-4.2-5.08Z"/><path class="cls-1" d="M233,284.59c0-2.17-1.22-4.1-3.95-4.1a5.83,5.83,0,0,0-4.52,2.24l-.94-.87a7.27,7.27,0,0,1,5.56-2.73,5.11,5.11,0,0,1,5.46,5.35c0,4.76-5.88,6.9-5.21,12.25H228C227.23,290.92,233,288.89,233,284.59Zm-4.2,15.64a1.6,1.6,0,0,1,0,3.19,1.48,1.48,0,0,1-1.47-1.58A1.5,1.5,0,0,1,228.8,300.23Z"/></svg>