<svg id="Layer_1" data-name="Layer 1" xmlns="http://www.w3.org/2000/svg" viewBox="0 0 300 600"><defs><style>.cls-1{fill:#fff;}</style></defs><title>text</title><path class="cls-1" d="M44.63,112.81V129c0,.65-.44,1-1.27,1s-1.25-.33-1.25-1v-7.41H33.32V129c0,.65-.42,1-1.26,1s-1.26-.33-1.26-1V112.81c0-.67.42-1,1.26-1s1.26.34,1.26,1v6.5h8.79v-6.5c0-.67.42-1,1.25-1S44.62,112.14,44.63,112.81Z"/><path class="cls-1" d="M54.51,130.14a2.15,2.15,0,0,1-1.34-.45,2.66,2.66,0,0,1-.85-1.14l-4-10.68c-.06-.28-.09-.43-.1-.45,0-.65.41-1,1.22-1a1.16,1.16,0,0,1,1.23.73l3.75,10.52h.13l3.76-10.52c.18-.49.63-.73,1.36-.73s1.08.32,1.08,1t-.09.45l-4,10.68a2.31,2.31,0,0,1-.84,1.15A2.29,2.29,0,0,1,54.51,130.14Z"/><path class="cls-1" d="M63.19,123.34a16.77,16.77,0,0,1,.31-3.62,3.92,3.92,0,0,1,3-3.23,16,16,0,0,1,5.85,0,3.93,3.93,0,0,1,1.89,1.07,4.28,4.28,0,0,1,1.11,2.15,17.53,17.53,0,0,1,.3,3.62,17.25,17.25,0,0,1-.3,3.6A3.92,3.92,0,0,1,74.21,129a4.12,4.12,0,0,1-1.88,1,13.34,13.34,0,0,1-2.92.25,15,15,0,0,1-2.93-.23,4.07,4.07,0,0,1-1.89-1,3.76,3.76,0,0,1-1.1-2.1A17,17,0,0,1,63.19,123.34Zm2.82-3.2a7.21,7.21,0,0,0-.3,2.5q0,1.78.09,2.85a3.46,3.46,0,0,0,.71,1.84,2.19,2.19,0,0,0,1.64.56q.41,0,1.26,0c1.63,0,2.6-.19,2.89-.59a3.68,3.68,0,0,0,.72-1.86,20.45,20.45,0,0,0,.1-2.11c0-2.18-.21-3.49-.62-4a3.48,3.48,0,0,0-.47-.51,3.32,3.32,0,0,0-2-.38c-1,0-1.65,0-1.92,0-.86.06-1.4.25-1.63.58A6.89,6.89,0,0,0,66,120.14Z"/><path class="cls-1" d="M81.77,122v7c0,.65-.42,1-1.25,1s-1.26-.33-1.26-1v-7.31a8.85,8.85,0,0,1,.44-3.48,4.86,4.86,0,0,1,.83-1.19c.6-.55,2.1-.82,4.51-.82a7.93,7.93,0,0,1,2.43.24.89.89,0,0,1,.62.89,1.31,1.31,0,0,1-.34,1,1.19,1.19,0,0,1-.87.32L85,118.52a8.46,8.46,0,0,0-2.15.16,2,2,0,0,0-.63.32,2.3,2.3,0,0,0-.3.63,2.93,2.93,0,0,0-.17,1C81.78,121,81.77,121.43,81.77,122Z"/><path class="cls-1" d="M102.5,112.25v11.09a17,17,0,0,1-.3,3.58,3.84,3.84,0,0,1-1.11,2.08,4,4,0,0,1-1.86,1,13.08,13.08,0,0,1-2.9.25A15,15,0,0,1,93.4,130a4.07,4.07,0,0,1-1.89-1,3.76,3.76,0,0,1-1.1-2.1,18.44,18.44,0,0,1-.3-3.58,16.77,16.77,0,0,1,.31-3.62,3.92,3.92,0,0,1,3-3.23,14.47,14.47,0,0,1,3.23-.27,8.32,8.32,0,0,1,3.35.55v-4.52c0-.67.42-1,1.26-1S102.5,111.58,102.5,112.25Zm-9.57,7.89a7.21,7.21,0,0,0-.3,2.5q0,1.78.09,2.85a3.46,3.46,0,0,0,.71,1.84,2.19,2.19,0,0,0,1.64.56q.41,0,1.26,0c1.63,0,2.6-.19,2.89-.59a3.68,3.68,0,0,0,.72-1.86,20.45,20.45,0,0,0,.1-2.11c0-2.18-.21-3.49-.62-4a3.48,3.48,0,0,0-.47-.51,3.32,3.32,0,0,0-2-.38c-1,0-1.65,0-1.92,0-.86.06-1.4.25-1.63.58A6.89,6.89,0,0,0,92.93,120.14Z"/><path class="cls-1" d="M107.73,118.88c-.58,0-.87-.34-.87-1a1.13,1.13,0,0,1,.87-1.26,19.33,19.33,0,0,1,4.54-.37c2.12,0,3.55.34,4.3,1a4.6,4.6,0,0,1,1.13,3.53v5.4c0,1.68-.41,2.78-1.23,3.29s-2.39.77-4.71.77-3.88-.26-4.67-.77-1.19-1.6-1.19-3.28a5,5,0,0,1,.91-3.46c.61-.63,1.86-.95,3.73-.94h4.65v-1.45a1.56,1.56,0,0,0-.65-1.42,4.71,4.71,0,0,0-2.28-.38,18.23,18.23,0,0,0-2.86.19A11.21,11.21,0,0,1,107.73,118.88Zm7.46,7.48V124H111.3a4.87,4.87,0,0,0-2.35.36c-.35.24-.53.77-.53,1.61s.22,1.39.67,1.63a6.79,6.79,0,0,0,2.67.34,8,8,0,0,0,2.7-.3A1.24,1.24,0,0,0,115.19,126.36Z"/><path class="cls-1" d="M124.55,119c-.31.32-.46,1.32-.46,3v7q0,1-1.26,1c-.83,0-1.25-.33-1.26-1v-7.31a13.78,13.78,0,0,1,.25-3,2.62,2.62,0,0,1,1-1.64,3.64,3.64,0,0,1,1.72-.7,26.7,26.7,0,0,1,3.11-.15c2.35,0,3.83.28,4.45.86a3.68,3.68,0,0,1,1.1,2.46c.06.59.09,1.32.09,2.17V129c0,.65-.42,1-1.25,1s-1.26-.33-1.26-1v-7c0-1.68-.16-2.68-.48-3s-1.28-.49-2.88-.49S124.86,118.68,124.55,119Z"/><path class="cls-1" d="M146.41,122v7c0,.65-.41,1-1.25,1s-1.25-.33-1.26-1v-7.31a8.6,8.6,0,0,1,.45-3.48,4.61,4.61,0,0,1,.82-1.19c.6-.55,2.1-.82,4.51-.82a7.93,7.93,0,0,1,2.43.24.89.89,0,0,1,.62.89,1.31,1.31,0,0,1-.34,1,1.18,1.18,0,0,1-.86.32l-1.85-.12a8.46,8.46,0,0,0-2.15.16,2,2,0,0,0-.63.32,2.3,2.3,0,0,0-.3.63,2.93,2.93,0,0,0-.17,1C146.42,121,146.41,121.43,146.41,122Z"/><path class="cls-1" d="M165.28,127.59c.57,0,.86.35.86,1a1.13,1.13,0,0,1-.86,1.26,21.67,21.67,0,0,1-4.55.33,7.77,7.77,0,0,1-4.58-1,4.12,4.12,0,0,1-1.4-3.49v-5.12c0-1.72.42-2.87,1.26-3.46s2.4-.89,4.69-.89,3.83.28,4.63.85,1.21,1.73,1.21,3.5v2.21a1.61,1.61,0,0,1-.37,1.07,1.27,1.27,0,0,1-.95.38h-7.95v1.64c0,1.38,1.2,2.06,3.59,2a20.43,20.43,0,0,0,2.74-.16A14.83,14.83,0,0,1,165.28,127.59Zm-8-7V122H164v-1.45a1.79,1.79,0,0,0-.68-1.63,5.78,5.78,0,0,0-2.67-.42,6.07,6.07,0,0,0-2.68.4A1.76,1.76,0,0,0,157.27,120.57Z"/><path class="cls-1" d="M182.59,112.25v11.09a17,17,0,0,1-.3,3.58,3.84,3.84,0,0,1-1.11,2.08,4,4,0,0,1-1.86,1,13.08,13.08,0,0,1-2.9.25,15,15,0,0,1-2.93-.23,4.07,4.07,0,0,1-1.89-1,3.76,3.76,0,0,1-1.1-2.1,18.44,18.44,0,0,1-.3-3.58,16.77,16.77,0,0,1,.31-3.62,3.92,3.92,0,0,1,3-3.23,14.47,14.47,0,0,1,3.23-.27,8.32,8.32,0,0,1,3.35.55v-4.52c0-.67.42-1,1.26-1S182.59,111.58,182.59,112.25ZM173,120.14a7.21,7.21,0,0,0-.3,2.5q0,1.78.09,2.85a3.46,3.46,0,0,0,.71,1.84,2.19,2.19,0,0,0,1.64.56q.41,0,1.26,0c1.63,0,2.6-.19,2.89-.59a3.68,3.68,0,0,0,.72-1.86,20.45,20.45,0,0,0,.1-2.11c0-2.18-.21-3.49-.62-4a3.48,3.48,0,0,0-.47-.51,3.34,3.34,0,0,0-2-.38c-1,0-1.65,0-1.92,0-.86.06-1.4.25-1.63.58A6.89,6.89,0,0,0,173,120.14Z"/><path class="cls-1" d="M190.81,127.91h2.6a3.38,3.38,0,0,0,.88-.15,1.64,1.64,0,0,0,.71-.43,1.77,1.77,0,0,0,.3-1.12c0-.56,0-1.16,0-1.8v-7c0-.65.42-1,1.26-1s1.26.33,1.26,1v7.32a15.59,15.59,0,0,1-.22,3,2.63,2.63,0,0,1-1,1.62,3.52,3.52,0,0,1-1.7.7,29.28,29.28,0,0,1-5.72,0,3.53,3.53,0,0,1-1.69-.7,2.56,2.56,0,0,1-.95-1.62,15.45,15.45,0,0,1-.23-3v-7.32c0-.65.43-1,1.26-1s1.25.33,1.25,1v7c0,1.7.15,2.72.45,3a1.38,1.38,0,0,0,.59.3A3.38,3.38,0,0,0,190.81,127.91Z"/><path class="cls-1" d="M210.23,125.89v-.32a1,1,0,0,0-.65-1,5.7,5.7,0,0,0-2.29-.3,13.74,13.74,0,0,1-3.61-.51,3,3,0,0,1-1.64-1.11,3.61,3.61,0,0,1-.65-2.24v-.23c0-1.56.47-2.61,1.4-3.15a8.88,8.88,0,0,1,4.3-.81,17.7,17.7,0,0,1,4.26.37,1.12,1.12,0,0,1,.86,1.25c0,.7-.28,1-.86,1a16,16,0,0,1-1.76-.18,20.65,20.65,0,0,0-2.8-.19,7.17,7.17,0,0,0-2.19.25c-.47.16-.7.62-.7,1.38v.26q0,1.48,3.12,1.59c.87,0,1.74.11,2.61.21a4,4,0,0,1,2.22,1,2.86,2.86,0,0,1,.9,2.33v.34c0,1.68-.48,2.83-1.42,3.44a8.88,8.88,0,0,1-4.58.9,19.88,19.88,0,0,1-4.53-.36,1.13,1.13,0,0,1-.86-1.25c0-.7.29-1,.86-1,.34,0,1,.06,2,.17a23.77,23.77,0,0,0,2.87.18,5.93,5.93,0,0,0,2.29-.37A1.61,1.61,0,0,0,210.23,125.89Z"/><path class="cls-1" d="M226.65,127.59c.58,0,.86.35.86,1a1.12,1.12,0,0,1-.86,1.26,21.67,21.67,0,0,1-4.55.33,7.79,7.79,0,0,1-4.58-1,4.09,4.09,0,0,1-1.39-3.49v-5.12c0-1.72.41-2.87,1.25-3.46s2.4-.89,4.69-.89,3.84.28,4.64.85,1.2,1.73,1.2,3.5v2.21a1.56,1.56,0,0,1-.37,1.07,1.25,1.25,0,0,1-.95.38h-8v1.64c0,1.38,1.2,2.06,3.6,2a20.27,20.27,0,0,0,2.73-.16A14.83,14.83,0,0,1,226.65,127.59Zm-8-7V122h6.75v-1.45a1.77,1.77,0,0,0-.68-1.63,5.72,5.72,0,0,0-2.67-.42,6,6,0,0,0-2.67.4A1.74,1.74,0,0,0,218.64,120.57Z"/><path class="cls-1" d="M234.2,122v7c0,.65-.42,1-1.25,1s-1.26-.33-1.27-1v-7.31a8.6,8.6,0,0,1,.45-3.48A4.86,4.86,0,0,1,233,117c.6-.55,2.1-.82,4.51-.82a7.93,7.93,0,0,1,2.43.24.89.89,0,0,1,.62.89,1.28,1.28,0,0,1-.35,1,1.15,1.15,0,0,1-.86.32l-1.84-.12a8.46,8.46,0,0,0-2.15.16,2,2,0,0,0-.63.32,2.3,2.3,0,0,0-.3.63,3.21,3.21,0,0,0-.18,1C234.2,121,234.2,121.43,234.2,122Z"/><path class="cls-1" d="M253.07,127.59c.57,0,.86.35.86,1a1.13,1.13,0,0,1-.86,1.26,21.78,21.78,0,0,1-4.56.33,7.79,7.79,0,0,1-4.58-1,4.11,4.11,0,0,1-1.39-3.49v-5.12c0-1.72.42-2.87,1.26-3.46s2.4-.89,4.69-.89,3.83.28,4.63.85,1.2,1.73,1.2,3.5v2.21a1.56,1.56,0,0,1-.37,1.07,1.23,1.23,0,0,1-.94.38h-8v1.64c0,1.38,1.2,2.06,3.6,2a20.27,20.27,0,0,0,2.73-.16A15.16,15.16,0,0,1,253.07,127.59Zm-8-7V122h6.76v-1.45a1.79,1.79,0,0,0-.68-1.63,5.78,5.78,0,0,0-2.67-.42,6,6,0,0,0-2.68.4A1.76,1.76,0,0,0,245.05,120.57Z"/><path class="cls-1" d="M36.76,163.6H29.93c-.58,0-.86-.37-.86-1.11s.28-1.1.86-1.1h2.16V147.62H29.93c-.58,0-.86-.37-.86-1.11s.28-1.11.86-1.11h6.83q.87,0,.87,1.11t-.87,1.11H34.6v13.77h2.16c.58,0,.87.36.87,1.1S37.34,163.6,36.76,163.6Z"/><path class="cls-1" d="M46,162.61V147.7H40.4c-.57,0-.86-.38-.86-1.15s.29-1.15.86-1.15H54.18c.58,0,.86.39.86,1.15s-.28,1.15-.86,1.15H48.55v14.91q0,1-1.26,1T46,162.61Z"/><path class="cls-1" d="M62.37,156.33H54.5c-.58,0-.87-.39-.87-1.15s.29-1.15.87-1.15h7.87c.58,0,.86.38.86,1.15S63,156.33,62.37,156.33Z"/><path class="cls-1" d="M67.2,152.48c-.59,0-.88-.34-.88-1a1.13,1.13,0,0,1,.88-1.26,19.22,19.22,0,0,1,4.54-.37c2.11,0,3.54.34,4.29,1a4.56,4.56,0,0,1,1.13,3.53v5.4c0,1.68-.41,2.78-1.23,3.29s-2.39.77-4.71.77-3.87-.26-4.67-.77-1.18-1.6-1.18-3.28a5.08,5.08,0,0,1,.9-3.46c.61-.63,1.86-.95,3.74-.94h4.64v-1.45A1.58,1.58,0,0,0,74,152.5a4.73,4.73,0,0,0-2.29-.38,18.09,18.09,0,0,0-2.85.19A10.06,10.06,0,0,1,67.2,152.48ZM74.65,160v-2.38H70.76a4.9,4.9,0,0,0-2.35.36c-.35.24-.53.77-.53,1.61s.22,1.39.67,1.63a6.83,6.83,0,0,0,2.67.34,8.1,8.1,0,0,0,2.71-.3A1.25,1.25,0,0,0,74.65,160Z"/><path class="cls-1" d="M84,152.6c-.31.32-.46,1.32-.46,3v7c0,.66-.42,1-1.25,1s-1.26-.33-1.27-1v-7.31a14.44,14.44,0,0,1,.25-3,2.62,2.62,0,0,1,1-1.64A3.63,3.63,0,0,1,84,150a26.37,26.37,0,0,1,3.1-.15c2.35,0,3.84.28,4.46.86a3.67,3.67,0,0,1,1.09,2.46,21.72,21.72,0,0,1,.1,2.17v7.31c0,.65-.42,1-1.26,1s-1.26-.33-1.26-1v-7c0-1.68-.16-2.68-.48-3s-1.28-.49-2.88-.49S84.33,152.28,84,152.6Z"/><path class="cls-1" d="M106.49,148.5q0-.9,1.26-.9c.84,0,1.26.31,1.26.92v5.94c0,1.75-.45,2.91-1.33,3.46a8.6,8.6,0,0,1-4.41.84,20.71,20.71,0,0,1-4.11-.26v2.16h5.11c1.91,0,3.21.33,3.89,1a4.64,4.64,0,0,1,1,3.36,3.53,3.53,0,0,1-1.37,3.22c-.91.59-2.52.88-4.84.88a10.74,10.74,0,0,1-4.89-.79c-.94-.52-1.41-1.6-1.42-3.24v-11a4.68,4.68,0,0,1,.77-3.06,4.24,4.24,0,0,1,3-1.06,23.48,23.48,0,0,1,6.11.28Zm-7.33,5.9c0,1,.2,1.62.56,1.83a6.87,6.87,0,0,0,2.7.32,12,12,0,0,0,2.91-.23,1.39,1.39,0,0,0,1-.68,4.23,4.23,0,0,0,.19-1.52v-1.66a30.74,30.74,0,0,0-4-.29,5.79,5.79,0,0,0-2.58.41,1.83,1.83,0,0,0-.75,1.71Zm0,8.48v2.31a1.35,1.35,0,0,0,.9,1.33,8.16,8.16,0,0,0,3,.39,6.24,6.24,0,0,0,2.76-.41,1.7,1.7,0,0,0,.71-1.59,1.76,1.76,0,0,0-.68-1.61,5,5,0,0,0-2.46-.42Z"/><path class="cls-1" d="M114.86,155.64v7c0,.65-.42,1-1.25,1s-1.26-.33-1.27-1v-7.31a8.6,8.6,0,0,1,.45-3.48,4.86,4.86,0,0,1,.83-1.19c.6-.55,2.1-.82,4.51-.82a7.93,7.93,0,0,1,2.43.24.88.88,0,0,1,.61.89,1.27,1.27,0,0,1-.34,1,1.17,1.17,0,0,1-.86.32l-1.84-.12a8.4,8.4,0,0,0-2.15.16,2,2,0,0,0-.63.32,2.3,2.3,0,0,0-.3.63,3.21,3.21,0,0,0-.18,1C114.86,154.55,114.86,155,114.86,155.64Z"/><path class="cls-1" d="M133.72,161.19c.58,0,.87.35.87,1a1.13,1.13,0,0,1-.87,1.26,21.67,21.67,0,0,1-4.55.33,7.79,7.79,0,0,1-4.58-1,4.11,4.11,0,0,1-1.39-3.49v-5.12c0-1.72.42-2.87,1.26-3.46s2.4-.89,4.69-.89,3.83.28,4.63.85,1.2,1.73,1.2,3.5v2.21a1.56,1.56,0,0,1-.37,1.07,1.24,1.24,0,0,1-.94.38h-8v1.64c0,1.38,1.2,2.06,3.6,2.05a20.27,20.27,0,0,0,2.73-.16A15,15,0,0,1,133.72,161.19Zm-8-7v1.45h6.76v-1.45a1.77,1.77,0,0,0-.69-1.63,5.7,5.7,0,0,0-2.66-.42,6,6,0,0,0-2.68.4A1.74,1.74,0,0,0,125.71,154.17Z"/><path class="cls-1" d="M138.76,168.08V156.71a16.24,16.24,0,0,1,.31-3.58,4,4,0,0,1,1.1-2.08,4.1,4.1,0,0,1,1.86-1,13.86,13.86,0,0,1,2.91-.24,14.31,14.31,0,0,1,2.94.24,4.22,4.22,0,0,1,1.89,1,3.74,3.74,0,0,1,1.1,2.09,17.94,17.94,0,0,1,.29,3.6,17.3,17.3,0,0,1-.31,3.62,3.89,3.89,0,0,1-3,3.22,15.28,15.28,0,0,1-3.24.26,8.39,8.39,0,0,1-3.37-.55v4.82c0,.65-.42,1-1.25,1S138.76,168.74,138.76,168.08Zm9.58-8.14a7.2,7.2,0,0,0,.3-2.51c0-1.21,0-2.16-.1-2.86a3.57,3.57,0,0,0-.69-1.86c-.3-.4-1.26-.59-2.91-.59s-2.61.19-2.9.59a3.66,3.66,0,0,0-.73,1.89c-.06.68-.09,1.38-.09,2.11s0,1.33.07,1.82.1.91.16,1.27a2.49,2.49,0,0,0,.86,1.38,1.79,1.79,0,0,0,1.13.34c.52,0,1,0,1.57,0s.93,0,1.19,0a6.23,6.23,0,0,0,.92-.15,1.13,1.13,0,0,0,.73-.43A9.4,9.4,0,0,0,148.34,159.94Z"/><path class="cls-1" d="M166.66,163.74a2.15,2.15,0,0,1-1.34-.45,2.66,2.66,0,0,1-.85-1.14l-4-10.68c-.06-.28-.09-.43-.1-.45,0-.65.41-1,1.22-1a1.16,1.16,0,0,1,1.23.73l3.75,10.52h.13l3.76-10.52c.18-.49.64-.73,1.36-.73s1.08.33,1.08,1t-.09.45l-4,10.68a2.34,2.34,0,0,1-.85,1.15A2.29,2.29,0,0,1,166.66,163.74Z"/><path class="cls-1" d="M186.14,161.19c.58,0,.86.35.86,1a1.12,1.12,0,0,1-.86,1.26,21.67,21.67,0,0,1-4.55.33,7.79,7.79,0,0,1-4.58-1,4.09,4.09,0,0,1-1.39-3.49v-5.12c0-1.72.41-2.87,1.25-3.46s2.4-.89,4.69-.89,3.84.28,4.64.85,1.2,1.73,1.2,3.5v2.21a1.56,1.56,0,0,1-.37,1.07,1.25,1.25,0,0,1-.95.38h-8v1.64c0,1.38,1.2,2.06,3.6,2.05a20.27,20.27,0,0,0,2.73-.16A14.83,14.83,0,0,1,186.14,161.19Zm-8-7v1.45h6.75v-1.45a1.77,1.77,0,0,0-.68-1.63,5.7,5.7,0,0,0-2.66-.42,6,6,0,0,0-2.68.4A1.74,1.74,0,0,0,178.13,154.17Z"/><path class="cls-1" d="M203.45,145.85v11.09a17,17,0,0,1-.3,3.58A3.84,3.84,0,0,1,202,162.6a3.89,3.89,0,0,1-1.85,1,13.11,13.11,0,0,1-2.91.25,15,15,0,0,1-2.93-.23,4.17,4.17,0,0,1-1.89-1,3.82,3.82,0,0,1-1.1-2.1,18.44,18.44,0,0,1-.3-3.58,17.43,17.43,0,0,1,.31-3.62,3.92,3.92,0,0,1,3-3.23,14.47,14.47,0,0,1,3.23-.27,8.34,8.34,0,0,1,3.36.55v-4.52c0-.67.41-1,1.25-1S203.45,145.18,203.45,145.85Zm-9.57,7.89a7.21,7.21,0,0,0-.3,2.5c0,1.19,0,2.14.1,2.85a3.39,3.39,0,0,0,.71,1.84,2.16,2.16,0,0,0,1.63.56c.28,0,.69,0,1.26,0,1.64,0,2.6-.19,2.89-.59a3.68,3.68,0,0,0,.72-1.86A20.45,20.45,0,0,0,201,157c0-2.18-.2-3.49-.61-4a4.11,4.11,0,0,0-.48-.51,3.32,3.32,0,0,0-2-.38c-1,0-1.65,0-1.92,0-.86.06-1.4.25-1.62.58A5.87,5.87,0,0,0,193.88,153.74Z"/><path class="cls-1" d="M214,156.94V145.85c0-.67.43-1,1.27-1s1.25.34,1.25,1v4.52a8.36,8.36,0,0,1,3.37-.55,14.47,14.47,0,0,1,3.23.27,3.87,3.87,0,0,1,1.9,1.07,4.38,4.38,0,0,1,1.09,2.16,23.07,23.07,0,0,1,0,7.23,3.74,3.74,0,0,1-1.1,2.06,4.24,4.24,0,0,1-1.9,1,13.38,13.38,0,0,1-2.93.25,14.74,14.74,0,0,1-2.92-.23,3.74,3.74,0,0,1-2.95-3.07A16.15,16.15,0,0,1,214,156.94Zm9.89.57c0-1.21,0-2.16-.1-2.87a3.86,3.86,0,0,0-.7-1.92c-.27-.4-1.24-.6-2.9-.6a5.16,5.16,0,0,0-2.63.38,2.2,2.2,0,0,0-.84,1.26,15.14,15.14,0,0,0-.26,2.81c0,1,0,1.83.1,2.52a3.51,3.51,0,0,0,.72,1.87,2.22,2.22,0,0,0,1.66.56c.28,0,.69,0,1.25,0s1,0,1.24,0a6.25,6.25,0,0,0,.94-.15,1.24,1.24,0,0,0,.72-.4,5.74,5.74,0,0,0,.49-1A6.65,6.65,0,0,0,223.84,157.51Z"/><path class="cls-1" d="M232.53,155.64v7c0,.65-.42,1-1.25,1s-1.26-.33-1.26-1v-7.31a8.85,8.85,0,0,1,.44-3.48,4.86,4.86,0,0,1,.83-1.19c.6-.55,2.1-.82,4.51-.82a7.93,7.93,0,0,1,2.43.24.89.89,0,0,1,.62.89,1.31,1.31,0,0,1-.34,1,1.19,1.19,0,0,1-.87.32l-1.84-.12a8.46,8.46,0,0,0-2.15.16,2,2,0,0,0-.63.32,2.3,2.3,0,0,0-.3.63,3.21,3.21,0,0,0-.18,1C232.54,154.55,232.53,155,232.53,155.64Z"/><path class="cls-1" d="M245.41,161.51H248a3.31,3.31,0,0,0,.87-.15,1.67,1.67,0,0,0,.72-.43,1.77,1.77,0,0,0,.3-1.12c0-.56,0-1.16,0-1.8v-7c0-.65.42-1,1.26-1s1.25.33,1.25,1v7.32a16.6,16.6,0,0,1-.21,3,2.64,2.64,0,0,1-1,1.62,3.49,3.49,0,0,1-1.69.7,29.28,29.28,0,0,1-5.72,0,3.49,3.49,0,0,1-1.69-.7,2.62,2.62,0,0,1-1-1.62,17.2,17.2,0,0,1-.23-3V151c0-.65.43-1,1.27-1s1.25.33,1.25,1v7c0,1.7.15,2.72.45,3.05a1.38,1.38,0,0,0,.59.3A3.31,3.31,0,0,0,245.41,161.51Z"/><path class="cls-1" d="M258.86,145.85v10.8l6.27-6.33a1.29,1.29,0,0,1,.92-.42,1.19,1.19,0,0,1,.88.36,1.06,1.06,0,0,1,.36.82,1.34,1.34,0,0,1-.46.93l-3.61,3.36,4.46,6.22a1.45,1.45,0,0,1,.28.83,1.09,1.09,0,0,1-.4.82,1.3,1.3,0,0,1-.93.39.93.93,0,0,1-.82-.45l-4.38-6.13-2.57,2.38v3.19c0,.65-.41,1-1.25,1s-1.25-.33-1.26-1V145.85c0-.67.43-1,1.26-1S258.86,145.18,258.86,145.85Z"/><path class="cls-1" d="M31.4,186.08c-.58,0-.87-.34-.87-1a1.13,1.13,0,0,1,.87-1.26,19.33,19.33,0,0,1,4.54-.37c2.12,0,3.55.34,4.3,1A4.6,4.6,0,0,1,41.37,188v5.4c0,1.68-.41,2.78-1.23,3.29s-2.39.77-4.71.77-3.88-.26-4.67-.77-1.19-1.6-1.19-3.28a5,5,0,0,1,.91-3.45c.61-.64,1.86-1,3.73-.95h4.65v-1.45a1.56,1.56,0,0,0-.65-1.42,4.71,4.71,0,0,0-2.28-.38,18.23,18.23,0,0,0-2.86.19A10,10,0,0,1,31.4,186.08Zm7.46,7.48v-2.38H35a4.87,4.87,0,0,0-2.35.36c-.35.24-.53.77-.53,1.61s.22,1.39.67,1.63a6.79,6.79,0,0,0,2.67.34,8,8,0,0,0,2.7-.3A1.24,1.24,0,0,0,38.86,193.56Z"/><path class="cls-1" d="M50.37,197.34a2.15,2.15,0,0,1-1.34-.45,2.58,2.58,0,0,1-.85-1.14l-4-10.68q-.08-.42-.09-.45c0-.65.4-1,1.22-1a1.17,1.17,0,0,1,1.23.73l3.74,10.52h.14l3.76-10.52c.18-.49.63-.73,1.35-.73s1.08.33,1.08,1a4.16,4.16,0,0,1-.08.45l-4,10.68a2.23,2.23,0,0,1-.85,1.15A2.26,2.26,0,0,1,50.37,197.34Z"/><path class="cls-1" d="M75.66,190.36a2.53,2.53,0,0,1-2.2-1.58l-3.82-7.1h-.13v14.51c0,.67-.42,1-1.26,1s-1.26-.34-1.26-1V181.41a2.44,2.44,0,0,1,.7-1.9,2.24,2.24,0,0,1,1.57-.64,2.67,2.67,0,0,1,2.52,1.58l3.81,7.18h.14l3.79-7.18a2.64,2.64,0,0,1,2.53-1.58,2.21,2.21,0,0,1,1.55.64,2.44,2.44,0,0,1,.71,1.9v14.78c0,.67-.43,1-1.26,1s-1.25-.34-1.25-1V181.68h-.14l-3.81,7.1A2.52,2.52,0,0,1,75.66,190.36Z"/><path class="cls-1" d="M89.2,180.4a1.29,1.29,0,0,1,.41-1,1.33,1.33,0,0,1,1-.43,1.27,1.27,0,0,1,1,.43,1.4,1.4,0,0,1,.4,1,1.33,1.33,0,0,1-.41,1,1.32,1.32,0,0,1-1,.41,1.36,1.36,0,0,1-1-.41A1.38,1.38,0,0,1,89.2,180.4Zm2.62,4.22v11.6c0,.65-.42,1-1.26,1s-1.26-.33-1.26-1v-11.6c0-.65.42-1,1.26-1S91.82,184,91.82,184.62Z"/><path class="cls-1" d="M105.81,186.08a6.23,6.23,0,0,1-1.4-.17,13.75,13.75,0,0,0-2.66-.19,5.9,5.9,0,0,0-2.56.42,1.7,1.7,0,0,0-.83,1.68v5.24c0,1.38,1.19,2.07,3.59,2.06a13.46,13.46,0,0,0,2.46-.18,9,9,0,0,1,1.4-.17c.58,0,.87.34.87,1a1.12,1.12,0,0,1-.87,1.25,18.37,18.37,0,0,1-4.28.36,7.2,7.2,0,0,1-4.3-1,4.11,4.11,0,0,1-1.39-3.49v-5.12c0-1.7.44-2.85,1.31-3.45a7.91,7.91,0,0,1,4.31-.9,15.15,15.15,0,0,1,4.35.45,1.1,1.1,0,0,1,.87,1.21C106.68,185.75,106.39,186.08,105.81,186.08Z"/><path class="cls-1" d="M112.26,189.24v7c0,.65-.42,1-1.25,1s-1.26-.33-1.27-1v-7.3a8.63,8.63,0,0,1,.45-3.49,4.86,4.86,0,0,1,.83-1.19c.6-.55,2.1-.82,4.51-.82a7.93,7.93,0,0,1,2.43.24.89.89,0,0,1,.62.89,1.28,1.28,0,0,1-.35,1,1.15,1.15,0,0,1-.86.32l-1.84-.12a8.46,8.46,0,0,0-2.15.16,2,2,0,0,0-.63.32,2.3,2.3,0,0,0-.3.63,3.21,3.21,0,0,0-.18,1C112.26,188.15,112.26,188.63,112.26,189.24Z"/><path class="cls-1" d="M119.77,190.54a16.77,16.77,0,0,1,.31-3.62,3.89,3.89,0,0,1,3-3.23,16,16,0,0,1,5.85,0,4,4,0,0,1,1.9,1.07,4.35,4.35,0,0,1,1.1,2.15,16.77,16.77,0,0,1,.31,3.62,16.5,16.5,0,0,1-.31,3.6,3.85,3.85,0,0,1-1.12,2.08,4.07,4.07,0,0,1-1.88,1,13.27,13.27,0,0,1-2.92.25,15,15,0,0,1-2.93-.23,4.17,4.17,0,0,1-1.89-1,3.82,3.82,0,0,1-1.1-2.1A17.08,17.08,0,0,1,119.77,190.54Zm2.81-3.2a7.21,7.21,0,0,0-.3,2.5c0,1.19,0,2.14.1,2.85a3.39,3.39,0,0,0,.71,1.84,2.16,2.16,0,0,0,1.63.56q.42,0,1.26,0c1.64,0,2.6-.19,2.89-.59a3.78,3.78,0,0,0,.73-1.86c.06-.67.09-1.38.09-2.11,0-2.18-.2-3.49-.61-3.95a3.48,3.48,0,0,0-.48-.51,3.32,3.32,0,0,0-2-.38c-1,0-1.65,0-1.92,0-.86.06-1.4.25-1.62.58A5.87,5.87,0,0,0,122.58,187.34Z"/><path class="cls-1" d="M144.29,193.09v-.32a1,1,0,0,0-.65-1,5.7,5.7,0,0,0-2.29-.3,13.79,13.79,0,0,1-3.61-.51,3,3,0,0,1-1.64-1.11,3.61,3.61,0,0,1-.65-2.24v-.23q0-2.34,1.41-3.15a8.83,8.83,0,0,1,4.29-.81,17.7,17.7,0,0,1,4.26.37,1.12,1.12,0,0,1,.87,1.25c0,.7-.29,1-.87,1a16.22,16.22,0,0,1-1.76-.18,20.54,20.54,0,0,0-2.8-.19,7.21,7.21,0,0,0-2.19.25c-.46.16-.7.62-.7,1.38v.26q0,1.49,3.12,1.59c.87,0,1.74.11,2.61.21a4,4,0,0,1,2.22,1,2.86,2.86,0,0,1,.9,2.33v.34c0,1.68-.48,2.83-1.42,3.44a8.88,8.88,0,0,1-4.58.9,19.88,19.88,0,0,1-4.53-.36,1.13,1.13,0,0,1-.86-1.25c0-.7.29-1,.86-1,.34,0,1,.06,2,.17a23.9,23.9,0,0,0,2.87.18,5.93,5.93,0,0,0,2.29-.37A1.61,1.61,0,0,0,144.29,193.09Z"/><path class="cls-1" d="M150.19,190.54a16.77,16.77,0,0,1,.31-3.62,3.89,3.89,0,0,1,3-3.23,16,16,0,0,1,5.85,0,4,4,0,0,1,1.9,1.07,4.35,4.35,0,0,1,1.1,2.15,16.77,16.77,0,0,1,.31,3.62,16.5,16.5,0,0,1-.31,3.6,3.85,3.85,0,0,1-1.12,2.08,4.07,4.07,0,0,1-1.88,1,13.27,13.27,0,0,1-2.92.25,15,15,0,0,1-2.93-.23,4.17,4.17,0,0,1-1.89-1,3.82,3.82,0,0,1-1.1-2.1A17.08,17.08,0,0,1,150.19,190.54Zm2.81-3.2a7.21,7.21,0,0,0-.3,2.5c0,1.19,0,2.14.1,2.85a3.39,3.39,0,0,0,.71,1.84,2.16,2.16,0,0,0,1.63.56q.42,0,1.26,0c1.64,0,2.6-.19,2.89-.59a3.78,3.78,0,0,0,.73-1.86c.06-.67.09-1.38.09-2.11,0-2.18-.2-3.49-.61-3.95a3.48,3.48,0,0,0-.48-.51,3.32,3.32,0,0,0-2-.38c-1,0-1.65,0-1.92,0-.86.06-1.4.25-1.62.58A5.87,5.87,0,0,0,153,187.34Z"/><path class="cls-1" d="M170,183.51v.14h3.55c.58,0,.86.37.86,1.11s-.28,1.11-.86,1.11H170v10.35c0,.65-.42,1-1.26,1s-1.26-.33-1.26-1V185.87h-1.8c-.58,0-.86-.37-.86-1.11s.28-1.11.86-1.11h1.8v-.48q0-2.88,1-3.81c.66-.62,1.89-.93,3.69-.92a7.53,7.53,0,0,1,2.43.25.87.87,0,0,1,.62.86,1.22,1.22,0,0,1-.35.95,1.24,1.24,0,0,1-.86.32l-1.84-.08a2.39,2.39,0,0,0-1.77.47A4.2,4.2,0,0,0,170,183.51Z"/><path class="cls-1" d="M181.37,197.2a3.5,3.5,0,0,1-2.66-.82,4.07,4.07,0,0,1-.76-2.81v-7.7h-1.76c-.57,0-.85-.37-.85-1.11s.28-1.11.85-1.11H178v-3.56c0-.65.42-1,1.26-1s1.26.33,1.26,1v3.56H184c.57,0,.85.37.85,1.11s-.28,1.11-.85,1.11h-3.56v7.89c0,.76.45,1.14,1.37,1.14l2.37-.13c.59,0,.88.33.88,1a1.3,1.3,0,0,1-.9,1.34C183.59,197.17,182.65,197.2,181.37,197.2Z"/><path class="cls-1" d="M196.14,193.09v-.32a1,1,0,0,0-.66-1,5.68,5.68,0,0,0-2.28-.3,13.68,13.68,0,0,1-3.61-.51,2.93,2.93,0,0,1-1.64-1.11,3.55,3.55,0,0,1-.66-2.24v-.23q0-2.34,1.41-3.15a8.86,8.86,0,0,1,4.29-.81,17.74,17.74,0,0,1,4.27.37,1.13,1.13,0,0,1,.86,1.25c0,.7-.29,1-.86,1a16.32,16.32,0,0,1-1.77-.18,20.54,20.54,0,0,0-2.8-.19,7.26,7.26,0,0,0-2.19.25q-.69.24-.69,1.38v.26c0,1,1,1.52,3.11,1.59.87,0,1.74.11,2.62.21a4,4,0,0,1,2.21,1,2.86,2.86,0,0,1,.9,2.33v.34c0,1.68-.47,2.83-1.42,3.44a8.86,8.86,0,0,1-4.58.9,19.78,19.78,0,0,1-4.52-.36,1.12,1.12,0,0,1-.87-1.25c0-.7.29-1,.87-1,.33,0,1,.06,2,.17a23.65,23.65,0,0,0,2.87.18,5.84,5.84,0,0,0,2.28-.37A1.62,1.62,0,0,0,196.14,193.09Z"/><path class="cls-1" d="M34.65,230.8A3.51,3.51,0,0,1,32,230a4.13,4.13,0,0,1-.75-2.81v-7.7H29.46q-.84,0-.84-1.11t.84-1.11h1.77v-3.56c0-.65.42-1,1.25-1s1.26.33,1.26,1v3.56h3.57c.56,0,.85.37.85,1.11s-.29,1.11-.85,1.11H33.74v7.89c0,.76.46,1.14,1.37,1.14l2.38-.13c.58,0,.87.33.87,1a1.3,1.3,0,0,1-.9,1.34C36.86,230.77,35.92,230.8,34.65,230.8Z"/><path class="cls-1" d="M51.37,228.39c.57,0,.86.35.86,1a1.14,1.14,0,0,1-.86,1.26,21.78,21.78,0,0,1-4.56.33,7.79,7.79,0,0,1-4.58-1,4.11,4.11,0,0,1-1.39-3.49v-5.12c0-1.72.42-2.87,1.26-3.46s2.4-.89,4.69-.89,3.83.28,4.63.85,1.2,1.73,1.2,3.5v2.21a1.56,1.56,0,0,1-.37,1.07,1.23,1.23,0,0,1-.94.38h-8v1.64c0,1.38,1.2,2.06,3.6,2.05a20.27,20.27,0,0,0,2.73-.16A15.16,15.16,0,0,1,51.37,228.39Zm-8-7v1.45h6.76v-1.45a1.77,1.77,0,0,0-.69-1.63,5.7,5.7,0,0,0-2.66-.42,6,6,0,0,0-2.68.4A1.74,1.74,0,0,0,43.35,221.37Z"/><path class="cls-1" d="M58.88,213.05v10.8l6.27-6.33a1.29,1.29,0,0,1,.93-.42,1.19,1.19,0,0,1,.87.36,1,1,0,0,1,.36.82,1.32,1.32,0,0,1-.45.93l-3.61,3.36,4.45,6.22a1.38,1.38,0,0,1,.28.83,1.06,1.06,0,0,1-.4.82,1.3,1.3,0,0,1-.93.39.93.93,0,0,1-.82-.45l-4.37-6.13-2.58,2.38v3.19c0,.65-.41,1-1.25,1s-1.25-.33-1.26-1V213.05c0-.67.43-1,1.26-1S58.88,212.38,58.88,213.05Z"/><path class="cls-1" d="M73.2,219.8c-.31.32-.47,1.32-.47,3v7c0,.66-.41,1-1.25,1s-1.25-.33-1.26-1v-7.31a14.56,14.56,0,0,1,.24-3,2.67,2.67,0,0,1,1-1.64,3.6,3.6,0,0,1,1.72-.7,26.57,26.57,0,0,1,3.11-.15c2.35,0,3.83.28,4.45.86a3.68,3.68,0,0,1,1.1,2.46c.06.59.09,1.32.09,2.17v7.31c0,.65-.42,1-1.26,1s-1.25-.33-1.25-1v-7c0-1.68-.16-2.68-.48-3s-1.28-.49-2.88-.49S73.51,219.48,73.2,219.8Z"/><path class="cls-1" d="M85.72,224.14a17.43,17.43,0,0,1,.31-3.62,3.91,3.91,0,0,1,3-3.23,16,16,0,0,1,5.85,0,4,4,0,0,1,1.89,1.06,4.36,4.36,0,0,1,1.11,2.16,17.53,17.53,0,0,1,.3,3.62,17.25,17.25,0,0,1-.3,3.6,3.92,3.92,0,0,1-1.12,2.08,4.12,4.12,0,0,1-1.88,1,13.34,13.34,0,0,1-2.92.25,15,15,0,0,1-2.93-.23,4.07,4.07,0,0,1-1.89-1,3.76,3.76,0,0,1-1.1-2.1A17,17,0,0,1,85.72,224.14Zm2.82-3.2a7.21,7.21,0,0,0-.3,2.5q0,1.78.09,2.85a3.46,3.46,0,0,0,.71,1.84,2.2,2.2,0,0,0,1.64.56q.41,0,1.26,0c1.63,0,2.6-.2,2.89-.59a3.68,3.68,0,0,0,.72-1.86,20.45,20.45,0,0,0,.1-2.11c0-2.18-.21-3.49-.62-3.95a3.48,3.48,0,0,0-.47-.51,3.32,3.32,0,0,0-2-.38c-1,0-1.65,0-1.92,0-.86.06-1.4.25-1.63.58A6.89,6.89,0,0,0,88.54,220.94Z"/><path class="cls-1" d="M104.54,213.05v16.77c0,.65-.42,1-1.26,1s-1.26-.33-1.26-1V213.05c0-.67.42-1,1.26-1S104.54,212.38,104.54,213.05Z"/><path class="cls-1" d="M108.55,224.14a17.43,17.43,0,0,1,.31-3.62,3.91,3.91,0,0,1,3-3.23,16,16,0,0,1,5.85,0,4,4,0,0,1,1.89,1.06,4.36,4.36,0,0,1,1.11,2.16,17.43,17.43,0,0,1,.31,3.62,17.15,17.15,0,0,1-.31,3.6,3.85,3.85,0,0,1-1.12,2.08,4.07,4.07,0,0,1-1.88,1,13.27,13.27,0,0,1-2.92.25,15,15,0,0,1-2.93-.23,4.17,4.17,0,0,1-1.89-1,3.82,3.82,0,0,1-1.1-2.1A17,17,0,0,1,108.55,224.14Zm2.82-3.2a7.21,7.21,0,0,0-.3,2.5c0,1.19,0,2.14.1,2.85a3.39,3.39,0,0,0,.71,1.84,2.16,2.16,0,0,0,1.63.56c.28,0,.69,0,1.26,0,1.64,0,2.6-.2,2.89-.59a3.68,3.68,0,0,0,.72-1.86,20.45,20.45,0,0,0,.1-2.11c0-2.18-.2-3.49-.61-3.95a4.11,4.11,0,0,0-.48-.51,3.32,3.32,0,0,0-2-.38c-1,0-1.65,0-1.92,0-.86.06-1.4.25-1.62.58A5.87,5.87,0,0,0,111.37,220.94Z"/><path class="cls-1" d="M134.46,215.7q0-.9,1.26-.9c.84,0,1.26.31,1.26.92v5.93c0,1.76-.44,2.92-1.33,3.47a8.6,8.6,0,0,1-4.41.84,20.85,20.85,0,0,1-4.11-.26v2.16h5.11c1.91,0,3.21.33,3.89,1a4.58,4.58,0,0,1,1,3.35,3.54,3.54,0,0,1-1.36,3.23c-.92.59-2.53.88-4.85.88a10.74,10.74,0,0,1-4.89-.79c-.94-.52-1.41-1.6-1.42-3.24v-11a4.72,4.72,0,0,1,.77-3.06,4.25,4.25,0,0,1,3-1.06,23.41,23.41,0,0,1,6.1.28Zm-7.33,5.9c0,1,.2,1.61.56,1.83a6.9,6.9,0,0,0,2.71.32,12,12,0,0,0,2.9-.23,1.39,1.39,0,0,0,1-.68,4.23,4.23,0,0,0,.19-1.52v-1.66a30.61,30.61,0,0,0-4-.29,5.77,5.77,0,0,0-2.57.41,1.81,1.81,0,0,0-.76,1.71Zm0,8.48v2.31a1.36,1.36,0,0,0,.91,1.33,8.12,8.12,0,0,0,3,.39,6,6,0,0,0,2.75-.42,1.66,1.66,0,0,0,.71-1.59,1.75,1.75,0,0,0-.67-1.6,5.09,5.09,0,0,0-2.47-.42Z"/><path class="cls-1" d="M140.44,214a1.29,1.29,0,0,1,.41-1,1.33,1.33,0,0,1,1-.43,1.31,1.31,0,0,1,1,.43,1.44,1.44,0,0,1,.39,1,1.29,1.29,0,0,1-.41,1,1.32,1.32,0,0,1-1,.41,1.36,1.36,0,0,1-1-.41A1.38,1.38,0,0,1,140.44,214Zm2.62,4.22v11.6c0,.65-.42,1-1.26,1s-1.25-.33-1.25-1v-11.6c0-.65.42-1,1.25-1S143.06,217.57,143.06,218.22Z"/><path class="cls-1" d="M154.16,225.62v.26c0,.69-.41,1-1.25,1s-1.25-.35-1.26-1v-.29a6,6,0,0,1,.39-2.28,3.33,3.33,0,0,1,1-1.41,13.78,13.78,0,0,1,2.56-1.57,2.23,2.23,0,0,0,1.31-2.1c0-1.23-.2-2-.6-2.3a4.45,4.45,0,0,0-2.47-.47,30.58,30.58,0,0,0-3.44.18c-1.05.12-1.73.18-2.05.18-.59,0-.88-.35-.88-1a1.13,1.13,0,0,1,.87-1.26,22.4,22.4,0,0,1,4.92-.36c2.37,0,4,.35,4.86,1.06s1.3,2.07,1.31,4.1a5.87,5.87,0,0,1-.38,2.23,2.55,2.55,0,0,1-1,1.25q-.57.36-1.23.69c-.43.22-.84.4-1.22.56a2.31,2.31,0,0,0-1,.89A3,3,0,0,0,154.16,225.62Zm-2.78,3.83a1.68,1.68,0,0,1,.43-1.17,1.46,1.46,0,0,1,1.09-.47,1.7,1.7,0,0,1,1.16.47,1.52,1.52,0,0,1,.53,1.15,1.47,1.47,0,0,1-.53,1.14,1.75,1.75,0,0,1-1.17.45,1.48,1.48,0,0,1-1.09-.44A1.6,1.6,0,0,1,151.38,229.45Z"/></svg>