<svg id="Layer_1" data-name="Layer 1" xmlns="http://www.w3.org/2000/svg" viewBox="0 0 300 600"><defs><style>.cls-1{fill:#001012;}</style></defs><title>text</title><path class="cls-1" d="M74.11,119H87.37v2.45H77.05v7.77H85.8v2.45H77.05V142H74.11Z"/><path class="cls-1" d="M90.52,119.63a2,2,0,1,1,2,1.86A1.89,1.89,0,0,1,90.52,119.63Zm.53,5.36h2.87v17H91.05Z"/><path class="cls-1" d="M106,124.57c4.34,0,6.79,3.11,6.79,8a10.06,10.06,0,0,1-.11,1.57H101.23c.21,3.68,2.42,6,5.67,6a7.74,7.74,0,0,0,4.24-1.33l1,1.89a10.17,10.17,0,0,1-5.6,1.75c-4.55,0-8.15-3.33-8.15-8.89S102.14,124.57,106,124.57Zm4.27,7.66c0-3.46-1.54-5.39-4.2-5.39-2.38,0-4.55,2-4.9,5.39Z"/><path class="cls-1" d="M117,117.08h2.88v21.7c0,.91.38,1.26.8,1.26a2.37,2.37,0,0,0,.63-.07l.39,2.17a4,4,0,0,1-1.65.28c-2.17,0-3-1.37-3-3.85Z"/><path class="cls-1" d="M132.1,124.57a7,7,0,0,1,4.76,2l-.14-2.91v-6.54h2.91V142h-2.38l-.25-2h-.1a7.66,7.66,0,0,1-5.15,2.42c-4.27,0-7-3.22-7-8.89S128.21,124.57,132.1,124.57Zm.28,15.43c1.58,0,2.94-.77,4.34-2.34v-8.89a5.9,5.9,0,0,0-4.13-1.79c-2.73,0-4.9,2.63-4.9,6.51C127.69,137.55,129.41,140,132.38,140Z"/><path class="cls-1" d="M145.36,125h2.39l.24,2.45h.1c1.48-1.61,3.26-2.87,5.29-2.87a4.46,4.46,0,0,1,4.69,3.25c1.79-1.92,3.54-3.25,5.6-3.25,3.5,0,5.18,2.31,5.18,6.65V142H166V131.6c0-3.18-1-4.55-3.15-4.55-1.33,0-2.69.88-4.27,2.63V142h-2.87V131.6c0-3.18-1-4.55-3.18-4.55-1.26,0-2.7.88-4.27,2.63V142h-2.88Z"/><path class="cls-1" d="M184,131.22c0-2.17-.73-4.27-3.5-4.27a9.15,9.15,0,0,0-5.07,1.82l-1.16-2a12.7,12.7,0,0,1,6.69-2.2c4.17,0,5.92,2.76,5.92,7V142H184.5l-.25-2h-.07a9.24,9.24,0,0,1-5.64,2.45c-2.87,0-5-1.79-5-4.83C173.54,133.88,176.76,132,184,131.22Zm-4.65,8.89c1.65,0,3-.81,4.65-2.28v-4.72c-5.7.7-7.62,2.1-7.62,4.27C176.38,139.3,177.67,140.11,179.35,140.11Z"/><path class="cls-1" d="M198.46,124.57a7,7,0,0,1,4.76,2l-.14-2.91v-6.54H206V142h-2.38l-.25-2h-.1a7.68,7.68,0,0,1-5.15,2.42c-4.27,0-7-3.22-7-8.89S194.57,124.57,198.46,124.57Zm.28,15.43c1.58,0,2.94-.77,4.34-2.34v-8.89A5.9,5.9,0,0,0,199,127c-2.73,0-4.9,2.63-4.9,6.51C194.05,137.55,195.76,140,198.74,140Z"/><path class="cls-1" d="M218.09,124.57c4.35,0,6.8,3.11,6.8,8a10.06,10.06,0,0,1-.11,1.57H213.3c.21,3.68,2.41,6,5.67,6a7.74,7.74,0,0,0,4.24-1.33l1,1.89a10.17,10.17,0,0,1-5.6,1.75c-4.55,0-8.16-3.33-8.16-8.89S214.21,124.57,218.09,124.57Zm4.28,7.66c0-3.46-1.54-5.39-4.2-5.39-2.39,0-4.56,2-4.91,5.39Z"/><path class="cls-1" d="M230.59,125.41a2.19,2.19,0,1,1-2.1,2.2A2.07,2.07,0,0,1,230.59,125.41Zm0,12.6a2.21,2.21,0,1,1-2.1,2.24A2.11,2.11,0,0,1,230.59,138Z"/><path class="cls-1" d="M79.41,175.84v-1.33l4.79-5.63.88.73-4.31,5.57,4.31,5.63-.88.67Zm4.9,0v-1.33l4.83-5.63.84.73-4.27,5.57L90,180.81l-.84.67Z"/><path class="cls-1" d="M97.82,160.93H110l-.28,1.3H99l-1.85,9.34h9l-.28,1.3H97L94.74,184H93.23Z"/><path class="cls-1" d="M122.77,169.75a8.28,8.28,0,0,1,.77,3.68c0,6.3-4.3,11-8.89,11a5.28,5.28,0,0,1-4.27-1.93l-2.2,2.28-.74-.7,2.38-2.45a8,8,0,0,1-.84-3.85c0-6.3,4.31-11,8.86-11a5.15,5.15,0,0,1,4.37,2.06l2.31-2.38.74.74Zm-1.54.11a3.85,3.85,0,0,0-3.5-1.82c-3.67,0-7.35,4.44-7.35,9.52a8.19,8.19,0,0,0,.49,3Zm-9.87,11.65a3.86,3.86,0,0,0,3.4,1.65c3.71,0,7.35-4.45,7.35-9.52a8.38,8.38,0,0,0-.42-2.8Z"/><path class="cls-1" d="M131.52,158.83H133l-4.59,23.1a3.21,3.21,0,0,0-.07.7c0,.32.14.53.49.53a1.24,1.24,0,0,0,.6-.14l.1,1.15a2.41,2.41,0,0,1-1.19.25,1.4,1.4,0,0,1-1.54-1.5,4.63,4.63,0,0,1,.18-1.09Z"/><path class="cls-1" d="M143.42,166.78c3.64,0,5,2.48,5,5.95a10.2,10.2,0,0,1-.45,2.94H136.28c-.91,5.28,1.68,7.52,5,7.52a7.51,7.51,0,0,0,4.2-1.64l.66,1a8.9,8.9,0,0,1-5.07,1.82c-3.89,0-6.41-2.42-6.41-6.93C134.67,171.12,139.12,166.78,143.42,166.78Zm3.5,7.73a9.13,9.13,0,0,0,.21-2c0-2.28-1-4.52-3.85-4.52s-5.88,2.7-6.79,6.51Z"/><path class="cls-1" d="M150.67,180.53a5.64,5.64,0,0,0,4.76,2.66c2.31,0,4.3-1.61,4.3-3.53,0-1.33-.59-2.21-3.22-3.61-3-1.61-4.09-2.8-4.09-4.55,0-2.83,2.45-4.72,5.28-4.72a6.33,6.33,0,0,1,4.66,2l-1,.91a5,5,0,0,0-3.74-1.72,3.62,3.62,0,0,0-3.85,3.29c0,1.61,1.47,2.45,3.11,3.36,3.64,2,4.2,3.26,4.2,4.76,0,3.08-2.52,5-5.88,5a7.12,7.12,0,0,1-5.6-3.12Z"/><path class="cls-1" d="M170.9,180.53a5.64,5.64,0,0,0,4.76,2.66c2.31,0,4.3-1.61,4.3-3.53,0-1.33-.59-2.21-3.22-3.61-3-1.61-4.09-2.8-4.09-4.55,0-2.83,2.45-4.72,5.28-4.72a6.33,6.33,0,0,1,4.66,2l-1,.91A5,5,0,0,0,177.9,168a3.62,3.62,0,0,0-3.85,3.29c0,1.61,1.47,2.45,3.11,3.36,3.64,2,4.2,3.26,4.2,4.76,0,3.08-2.52,5-5.88,5a7.12,7.12,0,0,1-5.6-3.12Z"/><path class="cls-1" d="M185.07,177.77c0-6.3,4.31-11,8.86-11,3.46,0,5.7,2.41,5.7,6.65,0,6.26-4.3,11-8.89,11C187.31,184.42,185.07,182,185.07,177.77Zm1.44-.21c0,3.64,1.57,5.6,4.37,5.6,3.61,0,7.28-4.38,7.28-9.56,0-3.64-1.57-5.56-4.34-5.56C190.22,168,186.51,172.41,186.51,177.56Z"/><path class="cls-1" d="M206,167.2h1.19l-.39,2.66h.14c1.89-1.75,4-3.08,5.6-3.08,2.8,0,3.78,1.61,3.89,3.5,2.31-2.24,4.48-3.5,6.12-3.5,2.8,0,4,1.64,4,4.09a9.2,9.2,0,0,1-.28,2.28L224,184h-1.47l2.17-10.64a9.7,9.7,0,0,0,.28-2.17c0-2.07-.88-3.12-2.91-3.12-1.08,0-3.25,1.05-5.6,3.54L214,184h-1.44l2.14-10.64a9.7,9.7,0,0,0,.28-2.17c0-2.07-.88-3.12-2.91-3.12-1.08,0-3.25,1.05-5.56,3.54L204,184h-1.47Z"/><path class="cls-1" d="M66.6,208.78c3.64,0,5,2.48,5,5.95a10.16,10.16,0,0,1-.46,2.94H59.46c-.91,5.28,1.68,7.52,5,7.52a7.49,7.49,0,0,0,4.2-1.64l.67,1a8.94,8.94,0,0,1-5.08,1.82c-3.88,0-6.4-2.42-6.4-6.93C57.85,213.12,62.29,208.78,66.6,208.78Zm3.5,7.73a9.13,9.13,0,0,0,.21-2c0-2.28-1-4.52-3.85-4.52s-5.88,2.7-6.79,6.51Z"/><path class="cls-1" d="M77.66,209.2h1.19l-.39,2.66h.14c2.07-1.75,4-3.08,6-3.08,2.87,0,4,1.64,4,4.09a9.2,9.2,0,0,1-.28,2.28L86.16,226H84.73l2.17-10.64a12.83,12.83,0,0,0,.28-2.17c0-2.07-.88-3.12-3-3.12-1.47,0-3.43,1.05-6,3.54L75.73,226H74.26Z"/><path class="cls-1" d="M100.09,209.34l2.24-.14.77-3.85c.7-3.33,2.42-4.94,4.62-4.94a4.77,4.77,0,0,1,2.63.77l-.63,1.09a3.62,3.62,0,0,0-2-.6c-1.68,0-2.76,1.65-3.18,3.68l-.77,3.85h3.71l-.28,1.26h-3.71L100.41,226H99l3.08-15.54H99.88Z"/><path class="cls-1" d="M107.48,219.77c0-6.3,4.3-11,8.85-11,3.47,0,5.71,2.41,5.71,6.65,0,6.26-4.31,11-8.89,11C109.72,226.42,107.48,224,107.48,219.77Zm1.43-.21c0,3.64,1.58,5.6,4.38,5.6,3.6,0,7.28-4.38,7.28-9.56,0-3.64-1.58-5.56-4.34-5.56C112.62,210,108.91,214.41,108.91,219.56Z"/><path class="cls-1" d="M128.37,209.2h1.19l-.52,3.18h.14c1.4-2,3.11-3.6,5.28-3.6a4.19,4.19,0,0,1,1.51.28l-.56,1.36a3,3,0,0,0-1.33-.28c-1.79,0-3.92,1.72-5.43,4.73L126.45,226H125Z"/><path class="cls-1" d="M141.11,200.83h1.44L138,223.93a3.21,3.21,0,0,0-.07.7c0,.32.14.53.49.53a1.24,1.24,0,0,0,.6-.14l.1,1.15a2.41,2.41,0,0,1-1.19.25,1.4,1.4,0,0,1-1.54-1.5,4.63,4.63,0,0,1,.18-1.09Z"/><path class="cls-1" d="M153,208.78c3.64,0,5,2.48,5,5.95a10.2,10.2,0,0,1-.45,2.94H145.87c-.91,5.28,1.68,7.52,5,7.52a7.51,7.51,0,0,0,4.2-1.64l.66,1a8.9,8.9,0,0,1-5.07,1.82c-3.89,0-6.41-2.42-6.41-6.93C144.26,213.12,148.71,208.78,153,208.78Zm3.5,7.73a9.13,9.13,0,0,0,.21-2c0-2.28-1-4.52-3.85-4.52s-5.88,2.7-6.79,6.51Z"/><path class="cls-1" d="M164.07,209.2h1.19l-.38,2.66H165c2.06-1.75,3.95-3.08,6-3.08,2.87,0,4,1.64,4,4.09a9.2,9.2,0,0,1-.28,2.28L172.58,226h-1.44l2.17-10.64a11.87,11.87,0,0,0,.28-2.17c0-2.07-.87-3.12-3-3.12-1.47,0-3.43,1.05-6,3.54L162.15,226h-1.47Z"/><path class="cls-1" d="M193.89,209.2l-3.67,18.24c-.84,4.13-3.36,6.65-7.25,6.65a8.76,8.76,0,0,1-5.7-2.31l.8-1.05a7.33,7.33,0,0,0,5,2.1c3.29,0,5.11-2.35,5.88-5.92l.84-3.78h-.14a9.1,9.1,0,0,1-6.09,2.94c-2.87,0-4.86-2.1-4.86-6,0-6.23,4.48-11.3,8.92-11.3a4.8,4.8,0,0,1,4.31,2.73H192l.66-2.31ZM190,221.38l1.75-8.3c-1.29-2.17-2.59-3-4.16-3-3.78,0-7.42,5-7.42,9.8,0,3.29,1.4,4.93,3.67,4.93C185.67,224.77,188.08,223.48,190,221.38Z"/><path class="cls-1" d="M205.58,208.78c3.64,0,5,2.48,5,5.95a10.2,10.2,0,0,1-.45,2.94H198.44c-.91,5.28,1.68,7.52,5,7.52a7.51,7.51,0,0,0,4.2-1.64l.66,1a8.9,8.9,0,0,1-5.07,1.82c-3.89,0-6.41-2.42-6.41-6.93C196.83,213.12,201.28,208.78,205.58,208.78Zm3.5,7.73a9.13,9.13,0,0,0,.21-2c0-2.28-1-4.52-3.85-4.52s-5.88,2.7-6.79,6.51Z"/><path class="cls-1" d="M218.29,200.83h1.43l-4.58,23.1a3.21,3.21,0,0,0-.07.7c0,.32.14.53.49.53a1.23,1.23,0,0,0,.59-.14l.11,1.15a2.46,2.46,0,0,1-1.19.25,1.4,1.4,0,0,1-1.54-1.5,5.12,5.12,0,0,1,.17-1.09Z"/><path class="cls-1" d="M221,222.53a5.64,5.64,0,0,0,4.76,2.66c2.31,0,4.3-1.61,4.3-3.53,0-1.33-.59-2.21-3.22-3.61-3-1.61-4.09-2.8-4.09-4.55,0-2.83,2.45-4.72,5.28-4.72a6.33,6.33,0,0,1,4.66,2l-.95.91A5,5,0,0,0,228,210a3.62,3.62,0,0,0-3.85,3.29c0,1.61,1.47,2.45,3.11,3.36,3.64,2,4.2,3.26,4.2,4.76,0,3.08-2.52,5-5.88,5a7.12,7.12,0,0,1-5.6-3.12Z"/><path class="cls-1" d="M243.8,208.78c3.64,0,5,2.48,5,5.95a10.2,10.2,0,0,1-.45,2.94H236.66c-.91,5.28,1.68,7.52,5,7.52a7.51,7.51,0,0,0,4.2-1.64l.66,1a8.9,8.9,0,0,1-5.07,1.82c-3.89,0-6.41-2.42-6.41-6.93C235.05,213.12,239.5,208.78,243.8,208.78Zm3.5,7.73a9.13,9.13,0,0,0,.21-2c0-2.28-1-4.52-3.85-4.52s-5.88,2.7-6.79,6.51Z"/><path class="cls-1" d="M116.7,250.78a4.85,4.85,0,0,1,4.34,2.73h.11l.66-2.31H123L119.64,268h-1.22l.38-2.66h-.14a8.87,8.87,0,0,1-6.19,3.08c-2.94,0-4.9-2.14-4.9-6.06C107.57,255.89,112.05,250.78,116.7,250.78Zm2.38,12.74,1.75-8.44c-1.22-2.17-2.59-3-4.16-3-4,0-7.63,5-7.63,10,0,3.4,1.43,5.08,3.74,5.08S117.09,265.83,119.08,263.52Z"/><path class="cls-1" d="M126.5,251.2h1.44l1.61,10.6c.28,1.65.45,3.4.7,5h.14c.84-1.64,1.75-3.32,2.62-5l5.71-10.6h1.5L131,268h-1.86Z"/><path class="cls-1" d="M147.78,251.2h1.43l1.62,10.6c.27,1.65.45,3.4.69,5h.15c.83-1.64,1.75-3.32,2.62-5L160,251.2h1.5L152.29,268h-1.85Z"/><path class="cls-1" d="M171.09,250.78a4.85,4.85,0,0,1,4.34,2.73h.11l.66-2.31h1.19L174,268h-1.22l.38-2.66h-.14a8.87,8.87,0,0,1-6.19,3.08c-2.94,0-4.91-2.14-4.91-6.06C162,255.89,166.43,250.78,171.09,250.78Zm2.38,12.74,1.75-8.44c-1.22-2.17-2.59-3-4.16-3-4,0-7.64,5-7.64,10,0,3.4,1.44,5.08,3.75,5.08S171.48,265.83,173.47,263.52Zm-4.23-17a3.3,3.3,0,0,1,3.15-3.36,2.43,2.43,0,0,1,2.55,2.7,3.29,3.29,0,0,1-3.11,3.36A2.46,2.46,0,0,1,169.24,246.54Zm1-.07c0,1.12.59,1.89,1.61,1.89a2.3,2.3,0,0,0,2-2.41c0-1.12-.6-1.89-1.61-1.89A2.29,2.29,0,0,0,170.29,246.47Z"/><path class="cls-1" d="M183.65,251.2h1.19l-.52,3.18h.14c1.4-2,3.11-3.6,5.29-3.6a4.18,4.18,0,0,1,1.5.28l-.56,1.36a3,3,0,0,0-1.33-.28c-1.79,0-3.92,1.72-5.43,4.73L181.73,268h-1.47Z"/><path class="cls-1" d="M194.92,252.46H192.3l.21-1.12,2.73-.14,1.15-4.8h1.23l-1,4.8h4.55l-.28,1.26h-4.55l-2.28,11a7.75,7.75,0,0,0-.14,1.33c0,1.54.56,2.35,2.38,2.35a4.45,4.45,0,0,0,2-.6l.39,1.09a5.86,5.86,0,0,1-2.7.77c-2.62,0-3.53-1.54-3.53-3.33a13.12,13.12,0,0,1,.14-1.68Z"/><path class="cls-1" d="M89.7,292.78c3.64,0,5,2.48,5,6a10.16,10.16,0,0,1-.46,2.94H82.56c-.91,5.29,1.68,7.53,5,7.53a7.5,7.5,0,0,0,4.2-1.65l.67,1.05a8.94,8.94,0,0,1-5.08,1.82c-3.88,0-6.4-2.42-6.4-6.93C81,297.12,85.39,292.78,89.7,292.78Zm3.5,7.73a9.13,9.13,0,0,0,.21-2c0-2.28-1-4.52-3.85-4.52s-5.88,2.7-6.79,6.51Z"/><path class="cls-1" d="M112.73,293.2l-3.68,18.24c-.84,4.13-3.36,6.65-7.24,6.65a8.76,8.76,0,0,1-5.71-2.31l.81-1a7.31,7.31,0,0,0,5,2.1c3.29,0,5.11-2.35,5.88-5.92l.84-3.78h-.14a9.12,9.12,0,0,1-6.09,2.94c-2.87,0-4.87-2.1-4.87-6,0-6.23,4.48-11.3,8.93-11.3a4.79,4.79,0,0,1,4.3,2.73h.14l.67-2.31Zm-3.92,12.18,1.75-8.3c-1.3-2.17-2.59-3-4.17-3-3.78,0-7.42,5-7.42,9.8,0,3.29,1.4,4.93,3.68,4.93C104.5,308.77,106.92,307.48,108.81,305.38Z"/><path class="cls-1" d="M124.42,292.78c3.64,0,5,2.48,5,6a10.16,10.16,0,0,1-.46,2.94H117.28c-.91,5.29,1.68,7.53,5,7.53a7.5,7.5,0,0,0,4.2-1.65l.67,1.05a8.94,8.94,0,0,1-5.08,1.82c-3.88,0-6.4-2.42-6.4-6.93C115.67,297.12,120.11,292.78,124.42,292.78Zm3.5,7.73a9.13,9.13,0,0,0,.21-2c0-2.28-1-4.52-3.85-4.52s-5.88,2.7-6.79,6.51Z"/><path class="cls-1" d="M135.09,294.46h-2.62l.21-1.12,2.73-.14,1.15-4.8h1.23l-1,4.8h4.55l-.28,1.26h-4.55l-2.28,11a7.75,7.75,0,0,0-.14,1.33c0,1.54.56,2.35,2.38,2.35a4.45,4.45,0,0,0,2-.6l.39,1.09a5.86,5.86,0,0,1-2.7.77c-2.62,0-3.53-1.54-3.53-3.33a13.12,13.12,0,0,1,.14-1.68Z"/><path class="cls-1" d="M152.17,294.46h-2.62l.21-1.12,2.73-.14,1.15-4.8h1.23l-1,4.8h4.55l-.28,1.26h-4.55l-2.28,11a7.75,7.75,0,0,0-.14,1.33c0,1.54.56,2.35,2.38,2.35a4.45,4.45,0,0,0,2-.6l.39,1.09a5.86,5.86,0,0,1-2.7.77c-2.62,0-3.53-1.54-3.53-3.33a13.12,13.12,0,0,1,.14-1.68Z"/><path class="cls-1" d="M167.54,292.78c3.64,0,5,2.48,5,6a10.16,10.16,0,0,1-.46,2.94H160.4c-.91,5.29,1.68,7.53,5,7.53a7.5,7.5,0,0,0,4.2-1.65l.67,1.05a8.94,8.94,0,0,1-5.08,1.82c-3.88,0-6.4-2.42-6.4-6.93C158.79,297.12,163.23,292.78,167.54,292.78Zm3.5,7.73a9.13,9.13,0,0,0,.21-2c0-2.28-1-4.52-3.85-4.52s-5.88,2.7-6.79,6.51Z"/><path class="cls-1" d="M184.48,292.78a4.85,4.85,0,0,1,4.34,2.73h.1l.67-2.31h1.19L187.42,310h-1.23l.39-2.66h-.14a8.91,8.91,0,0,1-6.2,3.08c-2.94,0-4.9-2.13-4.9-6.06C175.34,297.89,179.82,292.78,184.48,292.78Zm2.38,12.74,1.75-8.44c-1.23-2.17-2.59-3-4.17-3-4,0-7.63,5-7.63,10,0,3.4,1.44,5.08,3.75,5.08S184.86,307.83,186.86,305.52Z"/><path class="cls-1" d="M197,293.2h1.19l-.38,2.66H198c1.89-1.75,3.95-3.08,5.6-3.08,2.8,0,3.78,1.61,3.88,3.5,2.31-2.24,4.48-3.5,6.13-3.5,2.8,0,4,1.64,4,4.09a9.2,9.2,0,0,1-.28,2.28L215.1,310h-1.47l2.17-10.64a9.7,9.7,0,0,0,.28-2.17c0-2.07-.87-3.12-2.9-3.12-1.09,0-3.26,1.05-5.6,3.54L205.09,310h-1.43l2.13-10.64a9.7,9.7,0,0,0,.28-2.17c0-2.07-.87-3.12-2.9-3.12-1.09,0-3.26,1.05-5.57,3.54L195.12,310h-1.47Z"/><path class="cls-1" d="M225.78,301.18l-4.27-5.57.84-.73,4.83,5.63v1.33l-4.83,5.64-.84-.67Zm4.93,0-4.27-5.57.84-.73,4.8,5.63v1.33l-4.8,5.64-.84-.67Z"/></svg>