<svg id="Layer_1" data-name="Layer 1" xmlns="http://www.w3.org/2000/svg" viewBox="0 0 300 600"><defs><style>.cls-1{fill:#d5ad77;}</style></defs><title>text</title><path class="cls-1" d="M36,227.68a5.76,5.76,0,0,1-2.31-.5,5.91,5.91,0,0,1-2-1.33l1.21-1.4a4.74,4.74,0,0,0,1.43,1.13,3.64,3.64,0,0,0,1.71.45,2.39,2.39,0,0,0,1.6-.52,1.67,1.67,0,0,0,.62-1.32,2.17,2.17,0,0,0-1.57-2l-1.46-.58a5,5,0,0,1-2-1.33,2.91,2.91,0,0,1-.66-1.95,3.12,3.12,0,0,1,1-2.34,3.54,3.54,0,0,1,2.52-1,5,5,0,0,1,3.59,1.37l-1,1.39a3.41,3.41,0,0,0-2.55-1.11,1.93,1.93,0,0,0-1.31.43,1.43,1.43,0,0,0-.51,1.14,1.41,1.41,0,0,0,.37,1,3.55,3.55,0,0,0,1.26.77l1.48.59c1.81.73,2.67,1.91,2.61,3.54a3.38,3.38,0,0,1-1.1,2.6A4.16,4.16,0,0,1,36,227.68Z"/><path class="cls-1" d="M51.08,222.1H46v3.77h5.44v1.65H44.27V215.15h7.07v1.65H46v3.65h5.09Z"/><path class="cls-1" d="M55.72,227.52V215.15h4.59a3.87,3.87,0,0,1,2.79,1.08A3.73,3.73,0,0,1,64.22,219a3.68,3.68,0,0,1-.93,2.58,3.62,3.62,0,0,1-2.37,1.21l3.59,4.71H62.38l-3.55-4.72H57.45v4.72Zm4.36-10.72H57.45v4.46h2.62a2.46,2.46,0,0,0,1.74-.61,2.23,2.23,0,0,0,0-3.21A2.42,2.42,0,0,0,60.08,216.8Z"/><path class="cls-1" d="M68.55,227.52V215.15h1.73v12.37Z"/><path class="cls-1" d="M82.17,222.1H77.08v3.77h5.44v1.65H75.35V215.15h7.08v1.65H77.08v3.65h5.09Z"/><path class="cls-1" d="M96.72,227.68a5.84,5.84,0,0,1-2.32-.5,6,6,0,0,1-2-1.33l1.21-1.4a4.74,4.74,0,0,0,1.43,1.13,3.64,3.64,0,0,0,1.71.45,2.39,2.39,0,0,0,1.6-.52,1.67,1.67,0,0,0,.62-1.32,2.17,2.17,0,0,0-1.57-2L96,221.58a5,5,0,0,1-2-1.33,2.92,2.92,0,0,1-.67-1.95,3.1,3.1,0,0,1,1-2.34,3.53,3.53,0,0,1,2.52-1,5,5,0,0,1,3.59,1.37l-1,1.39a3.41,3.41,0,0,0-2.55-1.11,1.93,1.93,0,0,0-1.31.43,1.43,1.43,0,0,0-.51,1.14,1.41,1.41,0,0,0,.37,1,3.55,3.55,0,0,0,1.26.77l1.48.59c1.81.73,2.67,1.91,2.6,3.54a3.37,3.37,0,0,1-1.09,2.6A4.16,4.16,0,0,1,96.72,227.68Z"/><path class="cls-1" d="M103.43,216.8v-1.65h10v1.65H109.3v10.72h-1.72V216.8Z"/><path class="cls-1" d="M123.71,222.1h-5.09v3.77h5.44v1.65h-7.17V215.15H124v1.65h-5.34v3.65h5.09Z"/><path class="cls-1" d="M128.34,227.52V215.15h1.73v10.72h5.09v1.65Z"/><path class="cls-1" d="M139,227.52V215.15h1.73v10.72h5.09v1.65Z"/><path class="cls-1" d="M148.28,227.52l5-12.37h1.56l4.87,12.37h-1.91l-.75-1.9H151l-.77,1.9ZM154,218l-2.41,6h4.75Z"/><path class="cls-1" d="M168.65,227.52l5-12.37h1.56l4.87,12.37h-1.91l-.75-1.9h-6.06l-.77,1.9Zm4.46-13.68a.82.82,0,0,1-1.22,0,1,1,0,0,1-.25-.67.93.93,0,0,1,.25-.67.8.8,0,0,1,1.22,0,.94.94,0,0,1,.26.67A1,1,0,0,1,173.11,213.84Zm1.28,4.15-2.4,6h4.75Zm2.15-4.15a.79.79,0,0,1-.61.27.81.81,0,0,1-.62-.27,1,1,0,0,1-.25-.67,1,1,0,0,1,.25-.67.79.79,0,0,1,.62-.28.77.77,0,0,1,.61.28.93.93,0,0,1,.25.67A1,1,0,0,1,176.54,213.84Z"/><path class="cls-1" d="M183.48,227.52V215.15h4.59a3.87,3.87,0,0,1,2.79,1.08A3.73,3.73,0,0,1,192,219a3.68,3.68,0,0,1-.93,2.58,3.64,3.64,0,0,1-2.37,1.21l3.58,4.71h-2.12l-3.55-4.72h-1.38v4.72Zm4.36-10.72h-2.63v4.46h2.61a2.47,2.47,0,0,0,1.75-.61,2.23,2.23,0,0,0,0-3.21A2.42,2.42,0,0,0,187.84,216.8Z"/><path class="cls-1" d="M204.41,227.52V217.36l-2.32,1.18V216.9l3.28-1.81h.77v12.43Z"/><path class="cls-1" d="M212.39,227.52V217.36l-2.32,1.18V216.9l3.28-1.81h.77v12.43Z"/><path class="cls-1" d="M233.4,227.52v-5.36h-6v5.36h-1.72V215.15h1.72v5.36h6v-5.36h1.73v12.37Z"/><path class="cls-1" d="M244.5,227.73a4.29,4.29,0,0,1-3.23-1.3,4.48,4.48,0,0,1-1.26-3.26v-8h1.73v7.91a3.19,3.19,0,0,0,.73,2.16,2.56,2.56,0,0,0,2,.86,2.6,2.6,0,0,0,2-.84,3.12,3.12,0,0,0,.75-2.16v-7.93H249v8a4.48,4.48,0,0,1-1.26,3.26A4.33,4.33,0,0,1,244.5,227.73Z"/><path class="cls-1" d="M257.15,227.68a5.76,5.76,0,0,1-2.31-.5,5.91,5.91,0,0,1-2-1.33l1.21-1.4a4.74,4.74,0,0,0,1.43,1.13,3.64,3.64,0,0,0,1.71.45,2.39,2.39,0,0,0,1.6-.52,1.67,1.67,0,0,0,.62-1.32,2.17,2.17,0,0,0-1.57-2l-1.46-.58a5,5,0,0,1-2-1.33,2.91,2.91,0,0,1-.66-1.95,3.12,3.12,0,0,1,1-2.34,3.54,3.54,0,0,1,2.52-1,5,5,0,0,1,3.59,1.37l-1,1.39a3.41,3.41,0,0,0-2.55-1.11,1.93,1.93,0,0,0-1.31.43,1.43,1.43,0,0,0-.51,1.14,1.41,1.41,0,0,0,.37,1,3.55,3.55,0,0,0,1.26.77l1.48.59c1.81.73,2.67,1.91,2.61,3.54a3.38,3.38,0,0,1-1.1,2.6A4.14,4.14,0,0,1,257.15,227.68Z"/><path class="cls-1" d="M55.2,248.52V236.15H57l4,6.59L65,236.15h1.7v12.37H65v-9.14l-.06,0-4,6.39-3.9-6.3h-.11v9.08Z"/><path class="cls-1" d="M78.61,243.1H73.52v3.77H79v1.65H71.79V236.15h7.08v1.65H73.52v3.65h5.09Z"/><path class="cls-1" d="M83.25,248.52V236.15h3.31a6.23,6.23,0,0,1,4.33,10.61,6.05,6.05,0,0,1-4.39,1.76Zm3.38-10.72H85v9.07h1.7a4,4,0,0,0,3-1.32A4.61,4.61,0,0,0,91,242.31a4.41,4.41,0,0,0-1.27-3.21A4.14,4.14,0,0,0,86.63,237.8Z"/><path class="cls-1" d="M111.54,248.52v-5.36h-6v5.36h-1.73V236.15h1.73v5.36h6v-5.36h1.72v12.37Z"/><path class="cls-1" d="M123.85,248.74a6.07,6.07,0,0,1-4.46-1.83,6.63,6.63,0,0,1,0-9.17,6.33,6.33,0,0,1,8.91,0,6.62,6.62,0,0,1,0,9.16A6.12,6.12,0,0,1,123.85,248.74Zm-3.24-3a4.47,4.47,0,0,0,6.48,0,4.95,4.95,0,0,0,0-6.76,4.46,4.46,0,0,0-6.47,0,5,5,0,0,0,0,6.76Zm2.08-10.87a.84.84,0,0,1-1.23,0,1,1,0,0,1-.24-.67,1,1,0,0,1,.24-.67.82.82,0,0,1,1.23,0,.94.94,0,0,1,.26.67A1,1,0,0,1,122.69,234.84Zm3.43,0a.84.84,0,0,1-1.23,0,1,1,0,0,1-.25-.67.93.93,0,0,1,.25-.67.82.82,0,0,1,1.23,0,.93.93,0,0,1,.25.67A1,1,0,0,1,126.12,234.84Z"/><path class="cls-1" d="M142.53,243.14V241.5h4.11v.86a6.37,6.37,0,0,1-6.4,6.37,6.06,6.06,0,0,1-4.51-1.85,6.66,6.66,0,0,1,0-9.13,6,6,0,0,1,4.51-1.85,6.7,6.7,0,0,1,2.6.51,6.35,6.35,0,0,1,2.12,1.43l-1.28,1.31a4.38,4.38,0,0,0-3.44-1.61,4.32,4.32,0,0,0-3.28,1.4,5,5,0,0,0,0,6.74,4.32,4.32,0,0,0,3.28,1.4,4.42,4.42,0,0,0,3-1.08,4.75,4.75,0,0,0,1.56-2.86Z"/><path class="cls-1" d="M157.58,248.52V236.15h1.73V242l5.15-5.87h2.32l-4.36,4.91,4.48,7.46h-2.15l-3.6-6-1.84,2.07v4Z"/><path class="cls-1" d="M174.28,248.52l-4.82-12.37h1.94l3.7,9.5,3.72-9.5h1.9l-4.83,12.37Z"/><path class="cls-1" d="M181.78,248.52l5-12.37h1.56l4.87,12.37h-1.91l-.74-1.9h-6.07l-.76,1.9Zm5.74-9.53-2.4,6h4.75Z"/><path class="cls-1" d="M196.61,248.52V236.15h1.73v10.72h5.08v1.65Z"/><path class="cls-1" d="M207.22,248.52V236.15h1.72v12.37Z"/><path class="cls-1" d="M212.38,237.8v-1.65h10v1.65h-4.14v10.72h-1.73V237.8Z"/><path class="cls-1" d="M232.66,243.1h-5.09v3.77H233v1.65h-7.17V236.15h7.07v1.65h-5.34v3.65h5.09Z"/><path class="cls-1" d="M236,237.8v-1.65h10v1.65h-4.14v10.72h-1.73V237.8Z"/><path class="cls-1" d="M83.41,258.8v-1.65h10v1.65H89.28v10.72H87.55V258.8Z"/><path class="cls-1" d="M96.87,269.52V257.15h1.72v12.37Z"/><path class="cls-1" d="M103.66,269.52V257.15h1.73v10.72h5.09v1.65Z"/><path class="cls-1" d="M114.27,269.52V257.15H116v10.72h5.09v1.65Z"/><path class="cls-1" d="M131.57,269.52V257.15h3.78a4,4,0,0,1,2.73,1,3.21,3.21,0,0,1,1.07,2.5,2.91,2.91,0,0,1-1.47,2.65,3.15,3.15,0,0,1,1.33,1.11,2.9,2.9,0,0,1,.49,1.67,3.2,3.2,0,0,1-1.08,2.53,4,4,0,0,1-2.76.95Zm3.61-10.72H133.3v3.76h2.2a1.86,1.86,0,0,0,1.37-.55,1.9,1.9,0,0,0,.55-1.42,1.58,1.58,0,0,0-.61-1.3A2.55,2.55,0,0,0,135.18,258.8Zm.38,5.3H133.3v3.77h2.15a2.51,2.51,0,0,0,1.7-.53,1.74,1.74,0,0,0,.63-1.41,1.69,1.69,0,0,0-.57-1.32A2.4,2.4,0,0,0,135.56,264.1Z"/><path class="cls-1" d="M143.84,269.52V257.15h4.59a3.87,3.87,0,0,1,2.79,1.08,3.73,3.73,0,0,1,1.12,2.79,3.68,3.68,0,0,1-.93,2.58,3.64,3.64,0,0,1-2.37,1.21l3.59,4.71H150.5L147,264.8h-1.38v4.72Zm4.36-10.72h-2.63v4.46h2.61a2.49,2.49,0,0,0,1.75-.61,2.23,2.23,0,0,0,0-3.21A2.42,2.42,0,0,0,148.2,258.8Z"/><path class="cls-1" d="M155.18,269.52l5-12.37h1.56l4.87,12.37h-1.91l-.74-1.9h-6.07l-.76,1.9Zm5.75-9.53-2.4,6h4.75Z"/><path class="cls-1" d="M176.91,269.52V257.15h4.22a3.87,3.87,0,0,1,2.87,1.16,4,4,0,0,1,1.15,2.94,3.86,3.86,0,0,1-1.18,2.89,4,4,0,0,1-2.9,1.16h-2.43v4.22ZM181,258.8h-2.38v4.85H181a2.27,2.27,0,0,0,2.39-2.4,2.4,2.4,0,0,0-.68-1.76A2.31,2.31,0,0,0,181,258.8Z"/><path class="cls-1" d="M189.25,269.52V257.15h4.59a3.83,3.83,0,0,1,2.78,1.08,4.06,4.06,0,0,1,.2,5.37,3.64,3.64,0,0,1-2.37,1.21l3.58,4.71H195.9l-3.55-4.72H191v4.72Zm4.36-10.72H191v4.46h2.61a2.49,2.49,0,0,0,1.75-.61,2.22,2.22,0,0,0,0-3.21A2.4,2.4,0,0,0,193.61,258.8Z"/><path class="cls-1" d="M202.08,269.52V257.15h1.73v12.37Z"/><path class="cls-1" d="M211.89,269.68a5.76,5.76,0,0,1-2.31-.5,6.12,6.12,0,0,1-2-1.33l1.22-1.4a4.7,4.7,0,0,0,1.42,1.13A3.64,3.64,0,0,0,212,268a2.37,2.37,0,0,0,1.6-.52,1.64,1.64,0,0,0,.62-1.32,2.17,2.17,0,0,0-1.56-2l-1.46-.58a5,5,0,0,1-2-1.33,2.91,2.91,0,0,1-.66-1.95,3.12,3.12,0,0,1,1-2.34,3.54,3.54,0,0,1,2.52-1,5,5,0,0,1,3.59,1.37l-1,1.39a3.41,3.41,0,0,0-2.55-1.11,2,2,0,0,0-1.31.43,1.45,1.45,0,0,0-.5,1.14,1.36,1.36,0,0,0,.37,1,3.41,3.41,0,0,0,1.25.77l1.49.59q2.7,1.1,2.6,3.54a3.37,3.37,0,0,1-1.09,2.6A4.18,4.18,0,0,1,211.89,269.68Z"/></svg>