<svg id="Layer_1" data-name="Layer 1" xmlns="http://www.w3.org/2000/svg" viewBox="0 0 320 320"><defs><style>.cls-1{fill:#d80201;}</style></defs><title>text</title><path class="cls-1" d="M49.85,193.5h-7V172.82H48c1.67,0,3.72.15,5,1.24a5.53,5.53,0,0,1,1.86,4.25,4.33,4.33,0,0,1-2.26,4.15,4.74,4.74,0,0,1,2.69,1.3,5.57,5.57,0,0,1,1.49,3.88C56.85,191.76,53.57,193.5,49.85,193.5Zm-1.74-17.39H46.93v5.33h1.15c1.8,0,3.13-.71,3.13-2.67S49.91,176.11,48.11,176.11Zm.68,8.4H46.93v5.74h1.74c2,0,4-.47,4-2.89S50.71,184.51,48.79,184.51Z"/><path class="cls-1" d="M63.11,187.39c.06,2.08,1.06,3.6,3.29,3.6a3.51,3.51,0,0,0,3.19-1.8l3.47.56c-1.17,2.88-3.56,4.18-6.6,4.18-4.34,0-7.19-2.79-7.19-7.16s2.73-7.13,7-7.13,6.85,3,6.85,7.26v.49Zm3.26-5.08A3,3,0,0,0,63.24,185h6.35A3.1,3.1,0,0,0,66.37,182.31Z"/><path class="cls-1" d="M80.32,193.93a7.11,7.11,0,0,1-5.12-2.23l2-2.29A4.34,4.34,0,0,0,80.35,191a1.58,1.58,0,0,0,1.7-1.49c0-2.29-6-1.15-6-5.67,0-2.73,2.26-4.25,4.81-4.25A6.92,6.92,0,0,1,85.25,181l-1.86,2.21a3.73,3.73,0,0,0-2.24-.9c-.65,0-1.42.4-1.42,1.15,0,1.95,6.2,1.08,6.2,5.67C85.93,192.26,83.2,193.93,80.32,193.93Z"/><path class="cls-1" d="M95.57,193.93c-4.28,0-7.69-2.66-7.69-7.13s3.41-7.16,7.72-7.16,7.63,2.7,7.63,7.13S99.82,193.93,95.57,193.93Zm-3.26-16.37a2.23,2.23,0,1,1,0-4.46,2.23,2.23,0,1,1,0,4.46ZM95.54,183a3.77,3.77,0,1,0,3.81,3.78A3.8,3.8,0,0,0,95.54,183Zm3.22-5.46a2.26,2.26,0,0,1-2.23-2.23,2.24,2.24,0,1,1,2.23,2.23Z"/><path class="cls-1" d="M115.32,193.5l-5.06-5.77-.4.41v5.36h-3.75V170.28h3.75V185l5-4.89H120l-6.3,5.89,6.79,7.53Z"/><path class="cls-1" d="M136.71,193.78H135l-6.85-13.7h4.21l3.54,7.56,3.53-7.56h4.22Z"/><path class="cls-1" d="M147.28,176.66a2.26,2.26,0,1,1,0-4.52,2.26,2.26,0,0,1,0,4.52Zm-1.9,16.84V180.08h3.76V193.5Z"/><path class="cls-1" d="M157,193.93a7.15,7.15,0,0,1-5.12-2.23l2-2.29A4.34,4.34,0,0,0,157,191a1.58,1.58,0,0,0,1.7-1.49c0-2.29-6-1.15-6-5.67,0-2.73,2.26-4.25,4.81-4.25a6.92,6.92,0,0,1,4.37,1.42L160,183.21a3.73,3.73,0,0,0-2.24-.9c-.65,0-1.42.4-1.42,1.15,0,1.95,6.2,1.08,6.2,5.67C162.56,192.26,159.83,193.93,157,193.93Z"/><path class="cls-1" d="M174.4,193.5v-7.44c0-1.83-.4-3.23-2.54-3.23-2.33,0-2.88,1.71-2.88,3.73v6.94h-3.76V180.08H169v1.64a4.94,4.94,0,0,1,4.21-2.08,4.63,4.63,0,0,1,5,5.33v8.53Z"/><path class="cls-1" d="M183.58,176.66a2.26,2.26,0,1,1,0-4.52,2.26,2.26,0,0,1,0,4.52Zm-1.9,16.84V180.08h3.76V193.5Z"/><path class="cls-1" d="M198.15,193.5v-7.44c0-1.83-.41-3.23-2.55-3.23-2.32,0-2.88,1.71-2.88,3.73v6.94H189V180.08h3.75v1.64a5,5,0,0,1,4.22-2.08,4.64,4.64,0,0,1,5,5.33v8.53Z"/><path class="cls-1" d="M218,198.37a7.34,7.34,0,0,1-5.71,2.35c-3.44,0-6.76-2-7.13-5.64h4.06a3,3,0,0,0,3.2,2.45c2.35,0,3.31-1.64,3.31-3.81v-2a5.56,5.56,0,0,1-4.52,2.23c-4,0-6.39-3.19-6.39-7s2.48-7.32,6.57-7.32a5,5,0,0,1,4.34,2.17v-1.73h3.79V193C219.48,195.11,219.38,196.69,218,198.37ZM212.41,183a3.77,3.77,0,1,0,3.75,3.75A3.75,3.75,0,0,0,212.41,183Z"/><path class="cls-1" d="M227.35,193.93a7.11,7.11,0,0,1-5.12-2.23l2-2.29a4.34,4.34,0,0,0,3.16,1.58,1.58,1.58,0,0,0,1.7-1.49c0-2.29-6-1.15-6-5.67,0-2.73,2.26-4.25,4.81-4.25a6.92,6.92,0,0,1,4.37,1.42l-1.86,2.21a3.73,3.73,0,0,0-2.24-.9c-.65,0-1.42.4-1.42,1.15,0,1.95,6.2,1.08,6.2,5.67C233,192.26,230.23,193.93,227.35,193.93Z"/><path class="cls-1" d="M244.8,193.5v-7.35c0-1.86-.4-3.32-2.57-3.32-2.33,0-2.85,1.8-2.85,3.79v6.88h-3.76V170.28h3.76v11.53a4.86,4.86,0,0,1,4.21-2.17,5.15,5.15,0,0,1,3.91,1.64,5.34,5.34,0,0,1,1.05,3.79v8.43Z"/><path class="cls-1" d="M258.63,193.93c-3.69,0-6.48-1.64-6.48-5.64v-8.21h3.75v7.59c0,1.83.77,3.07,2.73,3.07s2.72-1.24,2.72-3.07v-7.59h3.79v8.21C265.14,192.29,262.32,193.93,258.63,193.93Z"/><path class="cls-1" d="M273,193.93a7.15,7.15,0,0,1-5.12-2.23l2-2.29A4.36,4.36,0,0,0,273,191a1.59,1.59,0,0,0,1.71-1.49c0-2.29-6-1.15-6-5.67,0-2.73,2.27-4.25,4.81-4.25a6.92,6.92,0,0,1,4.37,1.42l-1.86,2.21a3.73,3.73,0,0,0-2.23-.9c-.65,0-1.43.4-1.43,1.15,0,1.95,6.2,1.08,6.2,5.67C278.62,192.26,275.89,193.93,273,193.93Z"/><path class="cls-1" d="M29,226.5l-1.82-12.74-5.71,13H20.33l-5.48-13L12.77,226.5H8.71l3.84-21.05h2.76L21,219l5.9-13.52H29.6l3.45,21.05Z"/><path class="cls-1" d="M46.72,227a10.73,10.73,0,0,1-11-10.76,11.05,11.05,0,1,1,11,10.76Zm0-17.93a7.14,7.14,0,1,0,6.91,7.1A7,7,0,0,0,46.72,209Z"/><path class="cls-1" d="M69.19,227H67.05l-8.81-21.21h4.41l5.52,13.89,5.58-13.89h4.37Z"/><path class="cls-1" d="M80.56,226.5V205.82H92v3.5H84.6v4.59h7.13v3.51H84.6V223H92v3.5Z"/><path class="cls-1" d="M119.41,214.56h-3.13l-.43,2.79H119l-.53,3.38h-3.16l-.93,5.77h-3.88l.93-5.77h-2.85l-.9,5.77h-3.84l.93-5.77h-3.2l.53-3.38h3.19l.44-2.79h-3.16l.52-3.41h3.17l.83-5.33H111l-.87,5.33h2.85l.84-5.33h3.87l-.83,5.33h3.13Zm-9.86,0-.43,2.79H112l.43-2.79Z"/><path class="cls-1" d="M128.06,227c-3.85,0-7.23-2.48-7.44-6.48h4.06a3.38,3.38,0,0,0,6.73-.34,3.2,3.2,0,0,0-3.23-3.29,6.15,6.15,0,0,0-.74.06v-2.91a3.44,3.44,0,0,0,.56,0,2.81,2.81,0,1,0,.09-5.61c-1.77,0-2.61,1.08-2.82,2.72h-3.82c.59-3.9,3-5.92,6.92-5.92,3.44,0,6.29,2.05,6.29,5.71a4.61,4.61,0,0,1-2.39,4.4,5.09,5.09,0,0,1,3.17,5.09C135.44,224.7,132,227,128.06,227Z"/><path class="cls-1" d="M146.22,227c-5.7,0-8-6-8-10.85s2.27-10.89,8-10.89,8,6,8,10.85S152,227,146.22,227Zm0-18.17c-3.16,0-4,4.9-4,7.28s.8,7.35,4,7.35,4-5,4-7.35S149.39,208.86,146.22,208.86Z"/><path class="cls-1" d="M159.8,227.09l-3.22-1.92L166,209.35h-9.58v-3.53h15.94Z"/><path class="cls-1" d="M190.4,226.93a5.36,5.36,0,0,1-4.5-2.2v8.93h-3.75V213.08h3.75v1.7a5.34,5.34,0,0,1,4.41-2.14c4,0,6.63,3.32,6.63,7.16S194.34,226.93,190.4,226.93ZM189.28,216a3.77,3.77,0,1,0,3.75,3.75A3.74,3.74,0,0,0,189.28,216Z"/><path class="cls-1" d="M210.05,226.5v-1.77a5.17,5.17,0,0,1-4.37,2.2c-4,0-6.6-3.34-6.6-7.19s2.57-7.1,6.51-7.1a5.57,5.57,0,0,1,4.46,2.14v-1.7h3.78V226.5ZM206.7,216a3.77,3.77,0,1,0,3.76,3.75A3.75,3.75,0,0,0,206.7,216Zm-.52-5.3a2.79,2.79,0,0,1,0-5.58,2.79,2.79,0,0,1,0,5.58Zm0-3.88a1.09,1.09,0,1,0,0,2.17,1.09,1.09,0,0,0,1.08-1.08A1.06,1.06,0,0,0,206.18,206.84Z"/><path class="cls-1" d="M225.77,226.5V205.82h4V226.5Z"/><path class="cls-1" d="M243.13,226.5v-7.44c0-1.83-.4-3.23-2.54-3.23-2.33,0-2.89,1.71-2.89,3.73v6.94H234V213.08h3.75v1.64a5,5,0,0,1,4.22-2.08,4.63,4.63,0,0,1,5,5.33v8.53Z"/><path class="cls-1" d="M262.94,231.37a7.34,7.34,0,0,1-5.71,2.35c-3.44,0-6.76-2-7.13-5.64h4.06a3,3,0,0,0,3.2,2.45c2.35,0,3.31-1.64,3.31-3.81v-2a5.56,5.56,0,0,1-4.52,2.23c-4,0-6.39-3.19-6.39-7s2.48-7.32,6.57-7.32a5,5,0,0,1,4.34,2.17v-1.73h3.79V226C264.46,228.11,264.36,229.69,262.94,231.37ZM257.39,216a3.77,3.77,0,1,0,3.75,3.75A3.74,3.74,0,0,0,257.39,216Z"/><path class="cls-1" d="M278.31,226.5v-1.77a5.17,5.17,0,0,1-4.37,2.2c-4,0-6.6-3.34-6.6-7.19s2.57-7.1,6.51-7.1a5.57,5.57,0,0,1,4.46,2.14v-1.7h3.79V226.5ZM275,216a3.77,3.77,0,1,0,3.76,3.75A3.75,3.75,0,0,0,275,216Z"/><path class="cls-1" d="M294.46,216.49a3.24,3.24,0,0,0-1.8-.47c-2.54,0-3.22,1.8-3.22,4v6.45h-3.75V213.08h3.75v2a4.32,4.32,0,0,1,3.91-2.45A4.23,4.23,0,0,1,295,213Z"/><path class="cls-1" d="M303.82,226.93c-4.27,0-7.69-2.66-7.69-7.13s3.42-7.16,7.72-7.16,7.63,2.7,7.63,7.13S308.07,226.93,303.82,226.93Zm-3.25-16.37a2.23,2.23,0,0,1,0-4.46,2.23,2.23,0,0,1,0,4.46Zm3.22,5.46a3.77,3.77,0,1,0,3.82,3.78A3.8,3.8,0,0,0,303.79,216Zm3.23-5.46a2.27,2.27,0,0,1-2.24-2.23,2.24,2.24,0,1,1,2.24,2.23Z"/></svg>