<svg id="Layer_1" data-name="Layer 1" xmlns="http://www.w3.org/2000/svg" viewBox="0 0 320 320"><defs><style>.cls-1{fill:#d80201;}</style></defs><title>text</title><path class="cls-1" d="M62.79,134.12,48.58,117.88v15.79H44V109.79h3.15L61.39,126V110.32h4.55v23.8Z"/><path class="cls-1" d="M75,141.79h-4.8l5.57-10.4-7.18-12.88h4.94l4.55,8.61,4.34-8.61h4.83Z"/><path class="cls-1" d="M99.71,133.67v-8.3c0-2.1-.46-3.75-2.91-3.75-2.62,0-3.22,2-3.22,4.27v7.77H89.35V107.45h4.24v13A5.52,5.52,0,0,1,98.35,118a5.79,5.79,0,0,1,4.41,1.85,6,6,0,0,1,1.19,4.27v9.52Z"/><path class="cls-1" d="M111.54,126.77c.07,2.35,1.19,4.06,3.71,4.06a4,4,0,0,0,3.61-2l3.92.63c-1.33,3.26-4,4.73-7.46,4.73-4.9,0-8.12-3.15-8.12-8.09s3.08-8.05,7.95-8.05,7.74,3.36,7.74,8.19v.56Zm3.68-5.74a3.44,3.44,0,0,0-3.54,3h7.18A3.51,3.51,0,0,0,115.22,121Z"/><path class="cls-1" d="M130.41,122.15v11.52h-4.24V122.15h-1.68v-3.64h1.68v-5.18h4.24v5.18h3v3.64Z"/><path class="cls-1" d="M137.93,134.12a2.73,2.73,0,1,1,2.73-2.73A2.73,2.73,0,0,1,137.93,134.12ZM135.76,127V110.32h4.34V127Z"/><path class="cls-1" d="M59.85,170.67l-2-4.94H48.33l-2.13,4.94H41.37l10.12-23.84h3.43l9.84,23.84Zm-6.69-17-3.4,8.4h6.69Z"/><path class="cls-1" d="M66.81,170.67V144.45H71v26.22Z"/><path class="cls-1" d="M75.11,170.67V144.45h4.24v26.22Z"/><path class="cls-1" d="M95,170.67v-2a5.86,5.86,0,0,1-4.94,2.49c-4.55,0-7.46-3.78-7.46-8.12s2.91-8,7.35-8a6.32,6.32,0,0,1,5,2.42v-1.93h4.27v15.16Zm-3.78-11.83a4.25,4.25,0,1,0,4.24,4.24A4.23,4.23,0,0,0,91.21,158.84Z"/><path class="cls-1" d="M122.43,170.67v-8.3c0-2.1-.46-3.75-2.91-3.75-2.62,0-3.22,2-3.22,4.27v7.77h-4.24V144.45h4.24v13a5.52,5.52,0,0,1,4.76-2.45,5.79,5.79,0,0,1,4.41,1.85,6,6,0,0,1,1.19,4.27v9.52Z"/><path class="cls-1" d="M138,171.16c-4.17,0-7.32-1.86-7.32-6.37v-9.28H135v8.58c0,2.07.88,3.47,3.08,3.47s3.08-1.4,3.08-3.47v-8.58h4.27v9.28C145.39,169.3,142.2,171.16,138,171.16Z"/><path class="cls-1" d="M154.28,171.16a8.06,8.06,0,0,1-5.78-2.52l2.24-2.59a4.92,4.92,0,0,0,3.57,1.79,1.78,1.78,0,0,0,1.93-1.68c0-2.59-6.76-1.29-6.76-6.41,0-3.08,2.56-4.8,5.43-4.8a7.81,7.81,0,0,1,4.94,1.61l-2.1,2.49a4.23,4.23,0,0,0-2.52-1c-.73,0-1.61.46-1.61,1.29,0,2.21,7,1.23,7,6.41C160.61,169.27,157.53,171.16,154.28,171.16Z"/><path class="cls-1" d="M184,170.67v-2a5.86,5.86,0,0,1-4.94,2.49c-4.55,0-7.46-3.78-7.46-8.12s2.91-8,7.35-8a6.32,6.32,0,0,1,5,2.42v-1.93h4.27v15.16Zm-7.32-18a2.52,2.52,0,1,1,0-5,2.52,2.52,0,1,1,0,5Zm3.54,6.16a4.25,4.25,0,1,0,4.24,4.24A4.23,4.23,0,0,0,180.18,158.84Zm3.75-6.16a2.55,2.55,0,0,1-2.52-2.52,2.52,2.52,0,1,1,2.52,2.52Z"/><path class="cls-1" d="M202.19,159.36a3.75,3.75,0,0,0-2-.52c-2.87,0-3.64,2-3.64,4.55v7.28h-4.24V155.51h4.24v2.28a4.94,4.94,0,0,1,6.27-2.42Z"/><path class="cls-1" d="M224,170.67v-8.4c0-2.07-.46-3.64-2.87-3.64-2.63,0-3.26,1.93-3.26,4.2v7.84h-4.24V155.51h4.24v1.86a5.59,5.59,0,0,1,4.76-2.35,5.24,5.24,0,0,1,5.6,6v9.63Z"/><path class="cls-1" d="M239.61,171.16c-4.17,0-7.32-1.86-7.32-6.37v-9.28h4.24v8.58c0,2.07.88,3.47,3.08,3.47s3.08-1.4,3.08-3.47v-8.58H247v9.28C247,169.3,243.77,171.16,239.61,171.16Z"/><path class="cls-1" d="M50.5,208.23a9.09,9.09,0,0,1-8-4.45l2.94-2.83a5.35,5.35,0,0,0,4.9,3.12,3.32,3.32,0,0,0,3.6-3.29c0-4.8-10.26-2.52-10.26-10,0-4.13,3.33-6.79,7.28-6.79a10.24,10.24,0,0,1,6.83,2.59l-2.38,3.12a4.73,4.73,0,0,0-3.78-1.89c-1.5,0-3.26.94-3.26,2.63,0,4,10.26,2,10.26,10.15C58.63,205.29,55.12,208.23,50.5,208.23Z"/><path class="cls-1" d="M69.68,208h-2L60,192.51h4.76l4,8.54,4-8.54h4.76Z"/><path class="cls-1" d="M90.37,207.67v-2a5.86,5.86,0,0,1-4.94,2.49c-4.55,0-7.46-3.78-7.46-8.12s2.91-8,7.35-8a6.32,6.32,0,0,1,5,2.42v-1.93h4.27v15.16Zm-3.78-11.83a4.25,4.25,0,1,0,4.24,4.24A4.23,4.23,0,0,0,86.59,195.84Z"/><path class="cls-1" d="M109.06,207.67v-8.4c0-2.07-.46-3.64-2.87-3.64-2.63,0-3.26,1.93-3.26,4.2v7.84H98.7V192.51h4.24v1.86a5.59,5.59,0,0,1,4.76-2.34,5.23,5.23,0,0,1,5.6,6v9.63Z"/><path class="cls-1" d="M120.89,200.77c.07,2.34,1.19,4.06,3.71,4.06a4,4,0,0,0,3.61-2l3.92.63c-1.33,3.25-4,4.73-7.46,4.73-4.9,0-8.12-3.15-8.12-8.09s3.08-8.05,7.95-8.05,7.74,3.36,7.74,8.19v.56Zm3.68-5.74a3.44,3.44,0,0,0-3.54,3h7.18A3.51,3.51,0,0,0,124.56,195Z"/><path class="cls-1" d="M145.84,207.67v-8.4c0-2.07-.46-3.64-2.87-3.64-2.63,0-3.26,1.93-3.26,4.2v7.84h-4.24V192.51h4.24v1.86a5.59,5.59,0,0,1,4.76-2.34,5.23,5.23,0,0,1,5.6,6v9.63Z"/><path class="cls-1" d="M173.49,207.67v-8.3c0-1.79-.28-3.75-2.52-3.75-2.49,0-2.91,2.28-2.91,4.27v7.77h-4.24v-8.05a6.75,6.75,0,0,0-.31-2.52,2.45,2.45,0,0,0-2.28-1.47,2.76,2.76,0,0,0-2.38,1.37,6.3,6.3,0,0,0-.49,2.91v7.77h-4.24V192.51h4.24v1.72A5.82,5.82,0,0,1,163,192a5.15,5.15,0,0,1,4.73,2.76,5.6,5.6,0,0,1,5-2.76,5,5,0,0,1,4.24,2.17,6.68,6.68,0,0,1,.81,3.67v9.8Z"/><path class="cls-1" d="M193.37,207.67v-2a5.86,5.86,0,0,1-4.94,2.49c-4.55,0-7.46-3.78-7.46-8.12s2.91-8,7.35-8a6.32,6.32,0,0,1,5,2.42v-1.93h4.27v15.16Zm-7.32-18a2.52,2.52,0,1,1,0-5,2.52,2.52,0,1,1,0,5Zm3.54,6.16a4.25,4.25,0,1,0,4.24,4.24A4.23,4.23,0,0,0,189.59,195.84Zm3.75-6.16a2.55,2.55,0,0,1-2.52-2.52,2.52,2.52,0,1,1,2.52,2.52Z"/><path class="cls-1" d="M211.61,196.36a3.75,3.75,0,0,0-2-.52c-2.87,0-3.64,2-3.64,4.55v7.28H201.7V192.51h4.24v2.28a4.95,4.95,0,0,1,6.27-2.42Z"/><path class="cls-1" d="M224.7,207.67,219,201.16l-.46.46v6.06H214.3V181.45h4.24V198l5.67-5.53h5.74l-7.11,6.65,7.67,8.51Z"/><path class="cls-1" d="M236.67,196.15v11.52h-4.24V196.15h-1.68v-3.64h1.68v-5.18h4.24v5.18h3v3.64Z"/><path class="cls-1" d="M253.43,207.67v-2a5.86,5.86,0,0,1-4.94,2.49c-4.55,0-7.46-3.78-7.46-8.12s2.91-8,7.35-8a6.32,6.32,0,0,1,5,2.42v-1.93h4.27v15.16Zm-3.78-11.83a4.25,4.25,0,1,0,4.24,4.24A4.23,4.23,0,0,0,249.65,195.84Z"/></svg>