<svg id="Layer_1" data-name="Layer 1" xmlns="http://www.w3.org/2000/svg" viewBox="0 0 320 320"><defs><style>.cls-1{fill:#fff;}</style></defs><title>text</title><path class="cls-1" d="M111.3,152.23a9.09,9.09,0,0,1-8-4.45l2.94-2.83a5.36,5.36,0,0,0,4.9,3.11,3.32,3.32,0,0,0,3.61-3.29c0-4.79-10.26-2.52-10.26-10,0-4.14,3.33-6.8,7.28-6.8a10.25,10.25,0,0,1,6.83,2.59l-2.38,3.12a4.73,4.73,0,0,0-3.78-1.89c-1.51,0-3.26.94-3.26,2.63,0,4,10.26,2,10.26,10.15C119.42,149.29,115.92,152.23,111.3,152.23Z"/><path class="cls-1" d="M130.48,152h-2l-7.74-15.47h4.76l4,8.54,4-8.54h4.76Z"/><path class="cls-1" d="M151.16,151.67v-2a5.84,5.84,0,0,1-4.93,2.49c-4.55,0-7.46-3.78-7.46-8.12s2.91-8,7.35-8a6.3,6.3,0,0,1,5,2.42v-1.93h4.27v15.16Zm-3.78-11.83a4.25,4.25,0,1,0,4.24,4.23A4.23,4.23,0,0,0,147.38,139.84Z"/><path class="cls-1" d="M169.85,151.67v-8.4c0-2.07-.45-3.64-2.87-3.64-2.62,0-3.25,1.92-3.25,4.2v7.84h-4.24V136.51h4.24v1.86a5.6,5.6,0,0,1,4.76-2.35,5.23,5.23,0,0,1,5.6,6v9.63Z"/><path class="cls-1" d="M189.73,151.67v-2a5.84,5.84,0,0,1-4.93,2.49c-4.55,0-7.46-3.78-7.46-8.12s2.91-8,7.35-8a6.3,6.3,0,0,1,5,2.42v-1.93H194v15.16ZM186,139.84a4.25,4.25,0,1,0,4.24,4.23A4.23,4.23,0,0,0,186,139.84Z"/><path class="cls-1" d="M207.37,131.57l3.22,3.16L208,136.62l-2-4-2,4.06-2.62-1.89,3.18-3.19-4.45-.66,1-3.08,4,2-.73-4.41h3.25l-.73,4.41,4-2.07,1,3.09Z"/><path class="cls-1" d="M79.13,188.67v-2a5.84,5.84,0,0,1-4.93,2.49c-4.55,0-7.46-3.78-7.46-8.12s2.91-8,7.35-8a6.3,6.3,0,0,1,5,2.42v-13H83.4v26.22Zm-3.78-11.83a4.25,4.25,0,1,0,4.24,4.23A4.23,4.23,0,0,0,75.35,176.84Z"/><path class="cls-1" d="M89.53,169.66a2.56,2.56,0,1,1,0-5.11,2.56,2.56,0,0,1,0,5.11Zm-2.14,19V173.51h4.24v15.16Z"/><path class="cls-1" d="M106,188.67v-8.4c0-2.07-.46-3.64-2.87-3.64-2.63,0-3.26,1.92-3.26,4.2v7.84H95.62V173.51h4.23v1.86a5.57,5.57,0,0,1,4.76-2.35,5.23,5.23,0,0,1,5.6,6v9.63Z"/><path class="cls-1" d="M133.38,188.67v-8.3c0-2.1-.45-3.74-2.9-3.74-2.63,0-3.22,2-3.22,4.27v7.77H123V162.45h4.24v13A5.52,5.52,0,0,1,132,173a5.81,5.81,0,0,1,4.41,1.86,6,6,0,0,1,1.19,4.27v9.52Z"/><path class="cls-1" d="M149,189.16c-4.16,0-7.31-1.86-7.31-6.37v-9.28h4.23v8.58c0,2.06.88,3.46,3.08,3.46s3.08-1.4,3.08-3.46v-8.58h4.27v9.28C156.34,187.3,153.16,189.16,149,189.16Z"/><path class="cls-1" d="M165.23,189.16a8.06,8.06,0,0,1-5.77-2.52l2.24-2.59a4.92,4.92,0,0,0,3.57,1.78,1.78,1.78,0,0,0,1.92-1.68c0-2.59-6.75-1.29-6.75-6.4,0-3.08,2.55-4.8,5.42-4.8a7.83,7.83,0,0,1,4.94,1.61l-2.1,2.49a4.26,4.26,0,0,0-2.52-1c-.74,0-1.61.46-1.61,1.3,0,2.2,7,1.22,7,6.4C171.57,187.27,168.49,189.16,165.23,189.16Z"/><path class="cls-1" d="M186.16,188.67v-2a5.84,5.84,0,0,1-4.93,2.49c-4.56,0-7.46-3.78-7.46-8.12s2.9-8,7.35-8a6.3,6.3,0,0,1,5,2.42v-13h4.27v26.22Zm-3.78-11.83a4.25,4.25,0,1,0,4.24,4.23A4.23,4.23,0,0,0,182.38,176.84Z"/><path class="cls-1" d="M204.4,177.36a3.8,3.8,0,0,0-2-.52c-2.87,0-3.65,2-3.65,4.55v7.28h-4.23V173.51h4.23v2.28a4.89,4.89,0,0,1,4.42-2.77,4.94,4.94,0,0,1,1.85.35Z"/><path class="cls-1" d="M215,189.16c-4.83,0-8.68-3-8.68-8S210.13,173,215,173s8.61,3,8.61,8S219.76,189.16,215,189.16Zm-3.67-18.49a2.52,2.52,0,0,1,0-5,2.52,2.52,0,0,1,0,5Zm3.64,6.17a4.25,4.25,0,1,0,4.31,4.27A4.28,4.28,0,0,0,214.93,176.84Zm3.64-6.17a2.56,2.56,0,0,1-2.52-2.52,2.52,2.52,0,1,1,2.52,2.52Z"/><path class="cls-1" d="M246.22,188.67v-8.3c0-1.78-.28-3.74-2.52-3.74-2.49,0-2.91,2.27-2.91,4.27v7.77h-4.23v-8a6.65,6.65,0,0,0-.32-2.52,2.44,2.44,0,0,0-2.27-1.47,2.75,2.75,0,0,0-2.38,1.36,6.26,6.26,0,0,0-.49,2.91v7.77h-4.24V173.51h4.24v1.72a5.8,5.8,0,0,1,4.62-2.21,5.14,5.14,0,0,1,4.73,2.77,5.58,5.58,0,0,1,5-2.77,5,5,0,0,1,4.23,2.17,6.71,6.71,0,0,1,.81,3.68v9.8Z"/></svg>