<svg id="Layer_1" data-name="Layer 1" xmlns="http://www.w3.org/2000/svg" viewBox="0 0 300 250"><defs><style>.cls-1{fill:#d4ac76;}</style></defs><title>text</title><path class="cls-1" d="M93.2,104.6H89.55v2.72h3.91v1.18H88.3V99.61h5.09v1.18H89.55v2.63H93.2Z"/><path class="cls-1" d="M95.6,100.79V99.61h7.19v1.18h-3v7.71H98.57v-7.71Z"/><path class="cls-1" d="M104.55,100.79V99.61h7.2v1.18h-3v7.71h-1.24v-7.71Z"/><path class="cls-1" d="M124.83,108.5v-3.85H120.5v3.85h-1.24V99.61h1.24v3.85h4.33V99.61h1.24v8.89Z"/><path class="cls-1" d="M132.8,108.65a3.11,3.11,0,0,1-2.32-.93,3.24,3.24,0,0,1-.9-2.35V99.61h1.24v5.69a2.31,2.31,0,0,0,.53,1.55,1.81,1.81,0,0,0,1.45.61,1.85,1.85,0,0,0,1.47-.6,2.23,2.23,0,0,0,.54-1.55v-5.7h1.24v5.76a3.24,3.24,0,0,1-.9,2.35A3.15,3.15,0,0,1,132.8,108.65Z"/><path class="cls-1" d="M141.9,108.62a4.07,4.07,0,0,1-1.66-.36,4.4,4.4,0,0,1-1.41-1l.87-1a3.63,3.63,0,0,0,1,.81,2.68,2.68,0,0,0,1.23.32,1.73,1.73,0,0,0,1.15-.38,1.21,1.21,0,0,0,.44-1,1.55,1.55,0,0,0-1.12-1.45l-1.05-.42a3.66,3.66,0,0,1-1.46-1,2.1,2.1,0,0,1-.48-1.41,2.25,2.25,0,0,1,.74-1.68A2.54,2.54,0,0,1,142,99.5a3.58,3.58,0,0,1,2.58,1l-.75,1a2.46,2.46,0,0,0-1.83-.8,1.38,1.38,0,0,0-.94.31,1,1,0,0,0-.36.82,1,1,0,0,0,.26.69,2.44,2.44,0,0,0,.9.55l1.07.43a2.52,2.52,0,0,1,1.87,2.54,2.45,2.45,0,0,1-.78,1.87A3,3,0,0,1,141.9,108.62Z"/><path class="cls-1" d="M152.7,108.5V99.61h4.86v1.18H154v2.8h3.19v1.18H154v3.73Z"/><path class="cls-1" d="M164.27,108.66a4.4,4.4,0,0,1-3.21-1.31,4.78,4.78,0,0,1,0-6.6,4.59,4.59,0,1,1,3.21,7.91Zm-2.33-2.18a3.2,3.2,0,0,0,4.65,0,3.54,3.54,0,0,0,0-4.85,3.18,3.18,0,0,0-4.65,0,3.54,3.54,0,0,0,0,4.85Zm1.5-7.81a.6.6,0,0,1-.45.19.58.58,0,0,1-.44-.19.73.73,0,0,1-.17-.49.72.72,0,0,1,.17-.48.58.58,0,0,1,.44-.19.6.6,0,0,1,.45.19.68.68,0,0,1,.18.48A.69.69,0,0,1,163.44,98.67Zm2.46,0a.58.58,0,0,1-.44.19.55.55,0,0,1-.44-.19.69.69,0,0,1-.18-.49.68.68,0,0,1,.18-.48.55.55,0,0,1,.44-.19.58.58,0,0,1,.44.19.68.68,0,0,1,.18.48A.69.69,0,0,1,165.9,98.67Z"/><path class="cls-1" d="M171.91,108.5V99.61h3.3a2.79,2.79,0,0,1,2,.77,2.67,2.67,0,0,1,.81,2,2.7,2.7,0,0,1-.67,1.86,2.67,2.67,0,0,1-1.7.87l2.57,3.38h-1.53l-2.55-3.39h-1v3.39Zm3.13-7.71h-1.89V104H175a1.76,1.76,0,0,0,1.26-.44,1.5,1.5,0,0,0,.48-1.17,1.48,1.48,0,0,0-.49-1.13A1.72,1.72,0,0,0,175,100.79Z"/><path class="cls-1" d="M185,108.5l3.57-8.89h1.12l3.5,8.89h-1.37l-.54-1.37h-4.35l-.55,1.37Zm4.13-6.85-1.73,4.3h3.42Z"/><path class="cls-1" d="M195.62,108.5V99.61h1.24v7.71h3.66v1.18Z"/><path class="cls-1" d="M203.25,108.5V99.61h1.24v7.71h3.66v1.18Z"/><path class="cls-1" d="M210,108.5l3.57-8.89h1.12l3.5,8.89h-1.37l-.54-1.37h-4.35l-.55,1.37Zm4.13-6.85-1.73,4.3h3.42Z"/><path class="cls-1" d="M90.86,123.5l3.57-8.89h1.12l3.5,8.89H97.68l-.54-1.37H92.78l-.55,1.37ZM95,116.65,93.26,121h3.41Z"/><path class="cls-1" d="M103.89,123.62a4.11,4.11,0,0,1-1.66-.36,4.4,4.4,0,0,1-1.41-1l.87-1a3.63,3.63,0,0,0,1,.81,2.68,2.68,0,0,0,1.23.32,1.73,1.73,0,0,0,1.15-.38,1.18,1.18,0,0,0,.44-1,1.55,1.55,0,0,0-1.12-1.45l-1-.42a3.62,3.62,0,0,1-1.45-1,2.1,2.1,0,0,1-.48-1.41,2.24,2.24,0,0,1,.73-1.68,2.54,2.54,0,0,1,1.81-.69,3.62,3.62,0,0,1,2.59,1l-.75,1a2.48,2.48,0,0,0-1.84-.8,1.4,1.4,0,0,0-.94.31,1,1,0,0,0-.36.82,1,1,0,0,0,.26.69,2.41,2.41,0,0,0,.91.55l1.07.43a2.54,2.54,0,0,1,1.87,2.54,2.46,2.46,0,0,1-.79,1.87A3,3,0,0,1,103.89,123.62Z"/><path class="cls-1" d="M109.83,123.5v-8.89h3a2.8,2.8,0,0,1,2.06.83,2.86,2.86,0,0,1,.82,2.11,2.79,2.79,0,0,1-.84,2.08,2.87,2.87,0,0,1-2.09.83h-1.75v3Zm3-7.71h-1.71v3.49h1.72a1.65,1.65,0,0,0,1.72-1.73,1.73,1.73,0,0,0-.49-1.26A1.67,1.67,0,0,0,112.78,115.79Z"/><path class="cls-1" d="M123.6,119.6h-3.66v2.72h3.91v1.18H118.7v-8.89h5.08v1.18h-3.84v2.63h3.66Z"/><path class="cls-1" d="M126.93,123.5v-8.89h1.24v4.22l3.71-4.22h1.66l-3.13,3.53,3.22,5.36h-1.55l-2.58-4.34-1.33,1.49v2.85Z"/><path class="cls-1" d="M135.5,115.79v-1.18h7.2v1.18h-3v7.71h-1.24v-7.71Z"/><path class="cls-1" d="M150.07,119.6h-3.66v2.72h3.91v1.18h-5.15v-8.89h5.08v1.18h-3.84v2.63h3.66Z"/><path class="cls-1" d="M153.41,123.5v-8.89h3.3a2.81,2.81,0,0,1,2,.77,2.75,2.75,0,0,1-1.56,4.74l2.57,3.38h-1.53l-2.55-3.39h-1v3.39Zm3.13-7.71h-1.89V119h1.88a1.79,1.79,0,0,0,1.26-.44,1.5,1.5,0,0,0,.48-1.17,1.48,1.48,0,0,0-.49-1.13A1.74,1.74,0,0,0,156.54,115.79Z"/><path class="cls-1" d="M166.46,123.5l3.57-8.89h1.12l3.5,8.89h-1.37l-.54-1.37h-4.36l-.55,1.37Zm4.13-6.85-1.73,4.3h3.41Z"/><path class="cls-1" d="M178.9,123.5l-3.47-8.89h1.39l2.67,6.83,2.67-6.83h1.37l-3.48,8.89Z"/><path class="cls-1" d="M190.93,123.5v-8.89h2.38a4.4,4.4,0,0,1,4.4,4.43,4.36,4.36,0,0,1-4.44,4.46Zm2.43-7.71h-1.19v6.53h1.22a2.86,2.86,0,0,0,2.19-1,3.24,3.24,0,0,0,.89-2.32,3.16,3.16,0,0,0-.91-2.31A3,3,0,0,0,193.36,115.79Z"/><path class="cls-1" d="M200.77,123.5v-8.89H202v8.89Z"/><path class="cls-1" d="M211.22,119.64v-1.19h2.95v.62a4.57,4.57,0,0,1-4.6,4.58,4.34,4.34,0,0,1-3.24-1.33,4.79,4.79,0,0,1,0-6.56,4.34,4.34,0,0,1,3.24-1.33,4.9,4.9,0,0,1,1.87.36,4.47,4.47,0,0,1,1.52,1l-.92.93a3.16,3.16,0,0,0-2.47-1.15,3.11,3.11,0,0,0-2.36,1,3.59,3.59,0,0,0,0,4.84,3.11,3.11,0,0,0,2.36,1,3.18,3.18,0,0,0,2.14-.77,3.42,3.42,0,0,0,1.12-2Z"/></svg>