<svg id="Layer_1" data-name="Layer 1" xmlns="http://www.w3.org/2000/svg" viewBox="0 0 320 320"><defs><style>.cls-1{fill:#fff;}</style></defs><title>text</title><path class="cls-1" d="M96.76,151.67l-2-4.94H85.24l-2.14,4.94H78.27l10.12-23.84h3.43l9.84,23.84Zm-6.69-17-3.4,8.41h6.69Z"/><path class="cls-1" d="M103.72,151.67V125.45H108v26.22Z"/><path class="cls-1" d="M112,151.67V125.45h4.24v26.22Z"/><path class="cls-1" d="M131.89,151.67v-2a5.83,5.83,0,0,1-4.93,2.49c-4.55,0-7.46-3.78-7.46-8.12s2.91-8,7.35-8a6.29,6.29,0,0,1,5,2.42v-1.93h4.28v15.16Zm-3.78-11.83a4.25,4.25,0,1,0,4.24,4.23A4.23,4.23,0,0,0,128.11,139.84Z"/><path class="cls-1" d="M159.33,151.67v-8.3c0-2.1-.45-3.74-2.9-3.74-2.63,0-3.22,2-3.22,4.27v7.77H149V125.45h4.24v13A5.52,5.52,0,0,1,158,136a5.78,5.78,0,0,1,4.41,1.86,6,6,0,0,1,1.19,4.27v9.52Z"/><path class="cls-1" d="M174.94,152.16c-4.16,0-7.31-1.86-7.31-6.37v-9.28h4.23v8.58c0,2.06.88,3.46,3.08,3.46s3.08-1.4,3.08-3.46v-8.58h4.27v9.28C182.29,150.3,179.11,152.16,174.94,152.16Z"/><path class="cls-1" d="M191.18,152.16a8.06,8.06,0,0,1-5.77-2.52l2.24-2.59a4.92,4.92,0,0,0,3.57,1.78,1.78,1.78,0,0,0,1.92-1.68c0-2.59-6.75-1.29-6.75-6.4,0-3.08,2.55-4.8,5.42-4.8a7.83,7.83,0,0,1,4.94,1.61l-2.1,2.49a4.26,4.26,0,0,0-2.52-1c-.74,0-1.61.46-1.61,1.3,0,2.2,7,1.22,7,6.4C197.52,150.27,194.44,152.16,191.18,152.16Z"/><path class="cls-1" d="M220.86,151.67v-2a5.84,5.84,0,0,1-4.93,2.49c-4.55,0-7.46-3.78-7.46-8.12s2.91-8,7.35-8a6.3,6.3,0,0,1,5,2.42v-1.93h4.27v15.16Zm-7.31-18a2.52,2.52,0,0,1,0-5,2.52,2.52,0,0,1,0,5Zm3.53,6.17a4.25,4.25,0,1,0,4.24,4.23A4.23,4.23,0,0,0,217.08,139.84Zm3.75-6.17a2.55,2.55,0,0,1-2.52-2.52,2.52,2.52,0,1,1,2.52,2.52Z"/><path class="cls-1" d="M239.1,140.36a3.8,3.8,0,0,0-2-.52c-2.87,0-3.64,2-3.64,4.55v7.28h-4.24V136.51h4.24v2.28a4.86,4.86,0,0,1,4.41-2.77,4.94,4.94,0,0,1,1.85.35Z"/><path class="cls-1" d="M59,189.23a9.08,9.08,0,0,1-8-4.45L53.9,182a5.35,5.35,0,0,0,4.9,3.11,3.32,3.32,0,0,0,3.6-3.29c0-4.8-10.25-2.52-10.25-10.05,0-4.13,3.32-6.79,7.28-6.79a10.22,10.22,0,0,1,6.82,2.59l-2.38,3.12a4.72,4.72,0,0,0-3.78-1.89c-1.5,0-3.25.94-3.25,2.62,0,4,10.25,2,10.25,10.16C67.09,186.29,63.59,189.23,59,189.23Z"/><path class="cls-1" d="M78.15,189h-2l-7.73-15.47h4.76l4,8.54,4-8.54H86Z"/><path class="cls-1" d="M98.84,188.67v-2a5.86,5.86,0,0,1-4.94,2.49c-4.55,0-7.45-3.78-7.45-8.12s2.9-8,7.35-8a6.33,6.33,0,0,1,5,2.41v-1.92h4.27v15.16Zm-3.78-11.84a4.26,4.26,0,1,0,4.23,4.24A4.24,4.24,0,0,0,95.06,176.83Z"/><path class="cls-1" d="M117.53,188.67v-8.4c0-2.07-.46-3.64-2.87-3.64-2.63,0-3.26,1.92-3.26,4.2v7.84h-4.23V173.51h4.23v1.86a5.57,5.57,0,0,1,4.76-2.35,5.23,5.23,0,0,1,5.6,6v9.63Z"/><path class="cls-1" d="M129.36,181.77c.07,2.35,1.19,4.06,3.71,4.06a4,4,0,0,0,3.6-2l3.92.63c-1.33,3.26-4,4.73-7.45,4.73-4.9,0-8.12-3.15-8.12-8.09s3.08-8,7.94-8,7.74,3.36,7.74,8.19v.56ZM133,176a3.44,3.44,0,0,0-3.53,3.05h7.17A3.51,3.51,0,0,0,133,176Z"/><path class="cls-1" d="M154.31,188.67v-8.4c0-2.07-.45-3.64-2.87-3.64-2.62,0-3.25,1.92-3.25,4.2v7.84H144V173.51h4.24v1.86A5.57,5.57,0,0,1,153,173a5.23,5.23,0,0,1,5.6,6v9.63Z"/><path class="cls-1" d="M182,188.67v-8.3c0-1.79-.28-3.74-2.52-3.74-2.48,0-2.9,2.27-2.9,4.27v7.77H172.3v-8a6.91,6.91,0,0,0-.31-2.53,2.47,2.47,0,0,0-2.28-1.46,2.77,2.77,0,0,0-2.38,1.36,6.37,6.37,0,0,0-.49,2.91v7.77h-4.23V173.51h4.23v1.71a5.84,5.84,0,0,1,4.62-2.2,5.14,5.14,0,0,1,4.73,2.77,5.59,5.59,0,0,1,5-2.77,5,5,0,0,1,4.23,2.17,6.71,6.71,0,0,1,.81,3.68v9.8Z"/><path class="cls-1" d="M201.84,188.67v-2a5.84,5.84,0,0,1-4.93,2.49c-4.55,0-7.46-3.78-7.46-8.12s2.91-8,7.35-8a6.32,6.32,0,0,1,5,2.41v-1.92h4.27v15.16Zm-7.31-18a2.52,2.52,0,1,1,0-5,2.52,2.52,0,1,1,0,5Zm3.53,6.16a4.26,4.26,0,1,0,4.24,4.24A4.23,4.23,0,0,0,198.06,176.83Zm3.75-6.16a2.55,2.55,0,0,1-2.52-2.52,2.52,2.52,0,1,1,2.52,2.52Z"/><path class="cls-1" d="M220.08,177.36a3.72,3.72,0,0,0-2-.53c-2.88,0-3.64,2-3.64,4.56v7.28h-4.24V173.51h4.24v2.28a4.85,4.85,0,0,1,4.41-2.77,4.94,4.94,0,0,1,1.85.35Z"/><path class="cls-1" d="M233.17,188.67l-5.71-6.51-.46.45v6.06h-4.23V162.45H227V179l5.67-5.53h5.75l-7.11,6.65,7.67,8.51Z"/><path class="cls-1" d="M245.13,177.15v11.52H240.9V177.15h-1.68v-3.64h1.68v-5.18h4.23v5.18h3v3.64Z"/><path class="cls-1" d="M261.9,188.67v-2a5.84,5.84,0,0,1-4.94,2.49c-4.55,0-7.45-3.78-7.45-8.12s2.9-8,7.35-8a6.32,6.32,0,0,1,5,2.41v-1.92h4.27v15.16Zm-3.78-11.84a4.26,4.26,0,1,0,4.23,4.24A4.24,4.24,0,0,0,258.12,176.83Z"/></svg>