<svg id="Layer_1" data-name="Layer 1" xmlns="http://www.w3.org/2000/svg" viewBox="0 0 1246.34 173.55"><defs><style>.cls-1{fill:#d80201;}.cls-2{fill:#fff;}</style></defs><title>text</title><path class="cls-1" d="M1089.47,118c-2.28,2.45-5.85,2.06-8.89,2.06v8.65H1076V105.32h6.79c2.31,0,4.34.17,6.16,1.78a7.44,7.44,0,0,1,2.38,5.64A7.7,7.7,0,0,1,1089.47,118Zm-4-7.95a5.46,5.46,0,0,0-3.33-.74h-1.57v6.8h1.85c2.28,0,4.24-.74,4.24-3.36A3.49,3.49,0,0,0,1085.48,110Z" transform="translate(-43.36 -102.45)"/><path class="cls-1" d="M1104,117.36a3.78,3.78,0,0,0-2-.52c-2.87,0-3.64,2-3.64,4.55v7.28h-4.23V113.51h4.23v2.28a4.86,4.86,0,0,1,4.41-2.77,5,5,0,0,1,1.86.35Z" transform="translate(-43.36 -102.45)"/><path class="cls-1" d="M1108.75,109.66a2.56,2.56,0,0,1,0-5.11,2.56,2.56,0,0,1,0,5.11Zm-2.13,19V113.51h4.23v15.16Z" transform="translate(-43.36 -102.45)"/><path class="cls-1" d="M1119.67,129.16a8.06,8.06,0,0,1-5.77-2.52l2.24-2.59a4.92,4.92,0,0,0,3.57,1.78,1.78,1.78,0,0,0,1.92-1.68c0-2.59-6.75-1.29-6.75-6.4,0-3.08,2.55-4.8,5.42-4.8a7.83,7.83,0,0,1,4.94,1.61l-2.1,2.49a4.26,4.26,0,0,0-2.52-1c-.74,0-1.61.46-1.61,1.3,0,2.2,7,1.22,7,6.4C1126,127.27,1122.93,129.16,1119.67,129.16Z" transform="translate(-43.36 -102.45)"/><path class="cls-1" d="M1149.35,128.67v-2a5.84,5.84,0,0,1-4.93,2.49c-4.55,0-7.46-3.78-7.46-8.12s2.91-8,7.35-8a6.3,6.3,0,0,1,5,2.42v-13h4.27v26.22Zm-3.78-11.83a4.25,4.25,0,1,0,4.24,4.23A4.23,4.23,0,0,0,1145.57,116.84Z" transform="translate(-43.36 -102.45)"/><path class="cls-1" d="M1159.75,109.66a2.56,2.56,0,1,1,0-5.11,2.56,2.56,0,0,1,0,5.11Zm-2.14,19V113.51h4.24v15.16Z" transform="translate(-43.36 -102.45)"/><path class="cls-1" d="M1175.74,117.36a3.78,3.78,0,0,0-2-.52c-2.87,0-3.64,2-3.64,4.55v7.28h-4.23V113.51h4.23v2.28a4.86,4.86,0,0,1,4.41-2.77,5,5,0,0,1,1.86.35Z" transform="translate(-43.36 -102.45)"/><path class="cls-1" d="M1182,121.77c.07,2.35,1.19,4.06,3.71,4.06a4,4,0,0,0,3.61-2l3.92.63c-1.33,3.26-4,4.73-7.46,4.73-4.9,0-8.12-3.15-8.12-8.09s3.08-8,7.95-8,7.73,3.36,7.73,8.19v.56Zm3.68-5.74a3.44,3.44,0,0,0-3.54,3h7.18A3.52,3.52,0,0,0,1185.65,116Z" transform="translate(-43.36 -102.45)"/><path class="cls-1" d="M1207,128.67l-5.7-6.51-.46.45v6.06h-4.23V102.45h4.23V119l5.67-5.53h5.74l-7.1,6.65,7.66,8.51Z" transform="translate(-43.36 -102.45)"/><path class="cls-1" d="M1218.93,117.15v11.52h-4.23V117.15H1213v-3.64h1.69v-5.18h4.23v5.18h3v3.64Z" transform="translate(-43.36 -102.45)"/><path class="cls-1" d="M1226.46,129.12a2.73,2.73,0,1,1,2.73-2.73A2.73,2.73,0,0,1,1226.46,129.12Zm-2.17-7.14V105.32h4.34V122Z" transform="translate(-43.36 -102.45)"/><path class="cls-1" d="M1091.85,171.67l-2-4.94h-9.53l-2.13,4.94h-4.83l10.11-23.84h3.44l9.83,23.84Zm-6.69-17-3.39,8.4h6.69Z" transform="translate(-43.36 -102.45)"/><path class="cls-1" d="M1098.81,171.67V145.45h4.24v26.22Z" transform="translate(-43.36 -102.45)"/><path class="cls-1" d="M1107.11,171.67V145.45h4.23v26.22Z" transform="translate(-43.36 -102.45)"/><path class="cls-1" d="M1127,171.67v-2a5.86,5.86,0,0,1-4.94,2.49c-4.55,0-7.45-3.78-7.45-8.12s2.9-8,7.35-8a6.3,6.3,0,0,1,5,2.42v-1.93h4.27v15.16Zm-3.78-11.83a4.25,4.25,0,1,0,4.23,4.23A4.23,4.23,0,0,0,1123.21,159.84Z" transform="translate(-43.36 -102.45)"/><path class="cls-1" d="M1154.43,171.67v-8.3c0-2.1-.46-3.74-2.91-3.74-2.62,0-3.22,2-3.22,4.27v7.77h-4.23V145.45h4.23v13a5.54,5.54,0,0,1,4.76-2.45,5.78,5.78,0,0,1,4.41,1.86,6,6,0,0,1,1.2,4.27v9.52Z" transform="translate(-43.36 -102.45)"/><path class="cls-1" d="M1170,172.16c-4.17,0-7.32-1.86-7.32-6.37v-9.28H1167v8.58c0,2.06.87,3.46,3.08,3.46s3.08-1.4,3.08-3.46v-8.58h4.27v9.28C1177.39,170.3,1174.2,172.16,1170,172.16Z" transform="translate(-43.36 -102.45)"/><path class="cls-1" d="M1186.28,172.16a8.1,8.1,0,0,1-5.78-2.52l2.24-2.59a5,5,0,0,0,3.57,1.78,1.79,1.79,0,0,0,1.93-1.68c0-2.59-6.76-1.29-6.76-6.4,0-3.08,2.56-4.8,5.43-4.8a7.78,7.78,0,0,1,4.93,1.61l-2.1,2.49a4.21,4.21,0,0,0-2.52-1c-.73,0-1.61.46-1.61,1.3,0,2.2,7,1.22,7,6.4C1192.61,170.27,1189.53,172.16,1186.28,172.16Z" transform="translate(-43.36 -102.45)"/><path class="cls-1" d="M1216,171.67v-2a5.86,5.86,0,0,1-4.94,2.49c-4.55,0-7.45-3.78-7.45-8.12s2.9-8,7.35-8a6.31,6.31,0,0,1,5,2.42v-1.93h4.27v15.16Zm-7.32-18a2.53,2.53,0,0,1,0-5.05,2.53,2.53,0,0,1,0,5.05Zm3.54,6.16a4.25,4.25,0,1,0,4.23,4.23A4.23,4.23,0,0,0,1212.18,159.84Zm3.74-6.16a2.56,2.56,0,0,1-2.52-2.53,2.52,2.52,0,1,1,2.52,2.53Z" transform="translate(-43.36 -102.45)"/><path class="cls-1" d="M1234.19,160.36a3.78,3.78,0,0,0-2-.52c-2.87,0-3.64,2-3.64,4.55v7.28h-4.23V156.51h4.23v2.28a4.86,4.86,0,0,1,4.41-2.77,5,5,0,0,1,1.86.35Z" transform="translate(-43.36 -102.45)"/><path class="cls-1" d="M1082.5,209.23a9.08,9.08,0,0,1-8-4.45l2.94-2.83a5.35,5.35,0,0,0,4.9,3.11,3.32,3.32,0,0,0,3.6-3.29c0-4.79-10.25-2.52-10.25-10.05,0-4.13,3.32-6.79,7.28-6.79a10.27,10.27,0,0,1,6.83,2.59l-2.39,3.12a4.72,4.72,0,0,0-3.78-1.89c-1.5,0-3.25.94-3.25,2.63,0,4,10.26,2,10.26,10.15C1090.63,206.29,1087.13,209.23,1082.5,209.23Z" transform="translate(-43.36 -102.45)"/><path class="cls-1" d="M1101.68,209h-2L1092,193.51h4.76l4,8.54,4-8.54h4.76Z" transform="translate(-43.36 -102.45)"/><path class="cls-1" d="M1122.37,208.67v-2a5.86,5.86,0,0,1-4.94,2.49c-4.55,0-7.45-3.78-7.45-8.12s2.9-8,7.35-8a6.31,6.31,0,0,1,5,2.42v-1.93h4.27v15.16Zm-3.78-11.83a4.25,4.25,0,1,0,4.24,4.23A4.23,4.23,0,0,0,1118.59,196.84Z" transform="translate(-43.36 -102.45)"/><path class="cls-1" d="M1141.06,208.67v-8.4c0-2.07-.46-3.64-2.87-3.64-2.63,0-3.26,1.92-3.26,4.2v7.84h-4.23V193.51h4.23v1.86a5.57,5.57,0,0,1,4.76-2.35,5.23,5.23,0,0,1,5.6,6v9.63Z" transform="translate(-43.36 -102.45)"/><path class="cls-1" d="M1152.89,201.77c.07,2.35,1.19,4.06,3.71,4.06a4,4,0,0,0,3.6-2l3.92.63c-1.33,3.26-4,4.73-7.45,4.73-4.9,0-8.12-3.15-8.12-8.09s3.08-8,7.94-8c5,0,7.74,3.36,7.74,8.19v.56Zm3.67-5.74a3.44,3.44,0,0,0-3.53,3.05h7.17A3.51,3.51,0,0,0,1156.56,196Z" transform="translate(-43.36 -102.45)"/><path class="cls-1" d="M1177.84,208.67v-8.4c0-2.07-.45-3.64-2.87-3.64-2.62,0-3.25,1.92-3.25,4.2v7.84h-4.24V193.51h4.24v1.86a5.57,5.57,0,0,1,4.76-2.35,5.23,5.23,0,0,1,5.6,6v9.63Z" transform="translate(-43.36 -102.45)"/><path class="cls-1" d="M1205.5,208.67v-8.3c0-1.78-.29-3.74-2.53-3.74-2.48,0-2.9,2.27-2.9,4.27v7.77h-4.24v-8a6.85,6.85,0,0,0-.31-2.52,2.47,2.47,0,0,0-2.28-1.47,2.77,2.77,0,0,0-2.38,1.36,6.39,6.39,0,0,0-.49,2.91v7.77h-4.23V193.51h4.23v1.72A5.82,5.82,0,0,1,1195,193a5.14,5.14,0,0,1,4.73,2.77,5.59,5.59,0,0,1,5-2.77,5,5,0,0,1,4.23,2.17,6.62,6.62,0,0,1,.81,3.68v9.8Z" transform="translate(-43.36 -102.45)"/><path class="cls-1" d="M1225.37,208.67v-2a5.84,5.84,0,0,1-4.93,2.49c-4.55,0-7.46-3.78-7.46-8.12s2.91-8,7.35-8a6.3,6.3,0,0,1,5,2.42v-1.93h4.27v15.16Zm-7.31-18a2.52,2.52,0,1,1,0-5,2.52,2.52,0,0,1,0,5Zm3.53,6.17a4.25,4.25,0,1,0,4.24,4.23A4.23,4.23,0,0,0,1221.59,196.84Zm3.75-6.17a2.55,2.55,0,0,1-2.52-2.52,2.52,2.52,0,1,1,2.52,2.52Z" transform="translate(-43.36 -102.45)"/><path class="cls-1" d="M1243.61,197.36a3.8,3.8,0,0,0-2-.52c-2.87,0-3.64,2-3.64,4.55v7.28h-4.24V193.51h4.24v2.28a4.86,4.86,0,0,1,4.41-2.77,4.94,4.94,0,0,1,1.85.35Z" transform="translate(-43.36 -102.45)"/><path class="cls-1" d="M1256.7,208.67l-5.71-6.51-.45.45v6.06h-4.24V182.45h4.24V199l5.67-5.53H1262l-7.11,6.65,7.67,8.51Z" transform="translate(-43.36 -102.45)"/><path class="cls-1" d="M1268.67,197.15v11.52h-4.24V197.15h-1.68v-3.64h1.68v-5.18h4.24v5.18h3v3.64Z" transform="translate(-43.36 -102.45)"/><path class="cls-1" d="M1285.43,208.67v-2a5.84,5.84,0,0,1-4.93,2.49c-4.55,0-7.46-3.78-7.46-8.12s2.91-8,7.35-8a6.3,6.3,0,0,1,5,2.42v-1.93h4.27v15.16Zm-3.78-11.83a4.25,4.25,0,1,0,4.24,4.23A4.23,4.23,0,0,0,1281.65,196.84Z" transform="translate(-43.36 -102.45)"/><rect class="cls-1" x="718.64" y="149.55" width="148.67" height="24" rx="12" ry="12"/><path class="cls-2" d="M790.44,268.67l-3.33-4.19-.21.21v4h-1.82v-9.35h1.82v3.95l3.43-3.95h2.3l-4,4.32,4.16,5Z" transform="translate(-43.36 -102.45)"/><path class="cls-2" d="M798,268.88a4.85,4.85,0,0,1-5-4.86,5,5,0,1,1,5,4.86Zm0-8.1a3.22,3.22,0,1,0,3.12,3.21A3.17,3.17,0,0,0,798,260.78Z" transform="translate(-43.36 -102.45)"/><path class="cls-2" d="M813.29,268.67l-.82-5.76-2.58,5.88h-.51l-2.47-5.88-.94,5.76h-1.84l1.74-9.51h1.25l2.55,6.1,2.66-6.1h1.24l1.56,9.51Z" transform="translate(-43.36 -102.45)"/><path class="cls-2" d="M820.29,268.67v-9.35h1.82v9.35Z" transform="translate(-43.36 -102.45)"/><path class="cls-2" d="M833.1,265.43a4.31,4.31,0,0,1-4.42,3.45,4.72,4.72,0,0,1-4.91-4.86,4.8,4.8,0,0,1,5-4.91,4.46,4.46,0,0,1,4,2.2l-1.58.86a2.75,2.75,0,0,0-2.44-1.39,3.09,3.09,0,0,0-3.07,3.24,3.05,3.05,0,0,0,3.07,3.2,2.31,2.31,0,0,0,2.44-2H829v-1.57h4.28v.22A7.88,7.88,0,0,1,833.1,265.43Z" transform="translate(-43.36 -102.45)"/><path class="cls-2" d="M840.9,268.67l-.8-2h-3.81l-.85,2H833.5l4-9.54h1.37l3.94,9.54Zm-2.68-6.81-1.35,3.36h2.67Zm0-3.45a1.3,1.3,0,1,1,1.3-1.3A1.3,1.3,0,0,1,838.18,258.41Zm0-1.83a.53.53,0,0,0-.53.53.53.53,0,0,0,.53.53.52.52,0,0,0,.53-.53A.53.53,0,0,0,838.18,256.58Z" transform="translate(-43.36 -102.45)"/><path class="cls-2" d="M851.46,268.85l-5.69-6.5v6.32H844v-9.56h1.26l5.69,6.5v-6.29h1.82v9.53Z" transform="translate(-43.36 -102.45)"/><path class="cls-2" d="M863.71,265.43a4.32,4.32,0,0,1-4.43,3.45,4.71,4.71,0,0,1-4.9-4.86,4.8,4.8,0,0,1,5-4.91,4.45,4.45,0,0,1,4,2.2l-1.58.86a2.75,2.75,0,0,0-2.44-1.39,3.09,3.09,0,0,0-3.07,3.24,3.05,3.05,0,0,0,3.07,3.2,2.3,2.3,0,0,0,2.44-2h-2.2v-1.57h4.29v.22A8.73,8.73,0,0,1,863.71,265.43Z" transform="translate(-43.36 -102.45)"/><polygon class="cls-2" points="839.64 162.72 829.8 162.72 829.8 160.22 839.64 160.22 839.64 156.43 846.64 161.47 839.64 166.3 839.64 162.72"/><path class="cls-1" d="M48.58,131.27v5.19H55.9v3.95H48.58v10.26H44V127.32H56.39v4Z" transform="translate(-43.36 -102.45)"/><path class="cls-1" d="M67.58,151.16c-4.83,0-8.68-3-8.68-8S62.75,135,67.62,135s8.61,3,8.61,8S72.38,151.16,67.58,151.16Zm0-12.32a4.25,4.25,0,1,0,4.3,4.27A4.28,4.28,0,0,0,67.55,138.84Z" transform="translate(-43.36 -102.45)"/><path class="cls-1" d="M89.39,139.36a3.8,3.8,0,0,0-2-.52c-2.87,0-3.64,2-3.64,4.55v7.28H79.48V135.51h4.24v2.28A4.86,4.86,0,0,1,88.13,135a4.94,4.94,0,0,1,1.85.35Z" transform="translate(-43.36 -102.45)"/><path class="cls-1" d="M111.44,150.67v-8.3c0-1.78-.28-3.74-2.52-3.74-2.49,0-2.91,2.27-2.91,4.27v7.77h-4.23v-8a6.65,6.65,0,0,0-.32-2.52,2.44,2.44,0,0,0-2.27-1.47A2.75,2.75,0,0,0,96.81,140a6.26,6.26,0,0,0-.49,2.91v7.77H92.08V135.51h4.24v1.72a5.8,5.8,0,0,1,4.62-2.21,5.13,5.13,0,0,1,4.72,2.77,5.59,5.59,0,0,1,5-2.77,5,5,0,0,1,4.24,2.17,6.7,6.7,0,0,1,.8,3.68v9.8Z" transform="translate(-43.36 -102.45)"/><path class="cls-1" d="M131.32,150.67v-2a5.86,5.86,0,0,1-4.94,2.49c-4.55,0-7.45-3.78-7.45-8.12s2.9-8,7.35-8a6.31,6.31,0,0,1,5,2.42v-1.93h4.27v15.16Zm-3.78-11.83a4.25,4.25,0,1,0,4.23,4.23A4.23,4.23,0,0,0,127.54,138.84Z" transform="translate(-43.36 -102.45)"/><path class="cls-1" d="M160,150.67v-2a5.84,5.84,0,0,1-4.93,2.49c-4.55,0-7.46-3.78-7.46-8.12s2.91-8,7.35-8a6.3,6.3,0,0,1,5,2.42v-13h4.27v26.22Zm-3.78-11.83a4.25,4.25,0,1,0,4.24,4.23A4.23,4.23,0,0,0,156.2,138.84Z" transform="translate(-43.36 -102.45)"/><path class="cls-1" d="M170.38,131.66a2.56,2.56,0,1,1,0-5.11,2.56,2.56,0,0,1,0,5.11Zm-2.14,19V135.51h4.24v15.16Z" transform="translate(-43.36 -102.45)"/><path class="cls-1" d="M180.74,139.15v11.52H176.5V139.15h-1.68v-3.64h1.68v-5.18h4.24v5.18h3v3.64Z" transform="translate(-43.36 -102.45)"/><path class="cls-1" d="M190.19,139.15v11.52H186V139.15h-1.68v-3.64H186v-5.18h4.24v5.18h3v3.64Z" transform="translate(-43.36 -102.45)"/><path class="cls-1" d="M214.48,150.67v-8.3c0-2.1-.46-3.74-2.91-3.74-2.62,0-3.22,2-3.22,4.27v7.77h-4.23V124.45h4.23v13a5.54,5.54,0,0,1,4.76-2.45,5.75,5.75,0,0,1,4.41,1.86,6,6,0,0,1,1.19,4.27v9.52Z" transform="translate(-43.36 -102.45)"/><path class="cls-1" d="M230.08,151.16c-4.16,0-7.31-1.86-7.31-6.37v-9.28H227v8.58c0,2.06.88,3.46,3.08,3.46s3.09-1.4,3.09-3.46v-8.58h4.27v9.28C237.44,149.3,234.25,151.16,230.08,151.16Z" transform="translate(-43.36 -102.45)"/><path class="cls-1" d="M246.32,151.16a8.06,8.06,0,0,1-5.77-2.52l2.24-2.59a4.92,4.92,0,0,0,3.57,1.78,1.79,1.79,0,0,0,1.93-1.68c0-2.59-6.76-1.29-6.76-6.4,0-3.08,2.55-4.8,5.43-4.8a7.8,7.8,0,0,1,4.93,1.61l-2.1,2.49a4.26,4.26,0,0,0-2.52-1c-.74,0-1.61.46-1.61,1.3,0,2.2,7,1.22,7,6.4C252.66,149.27,249.58,151.16,246.32,151.16Z" transform="translate(-43.36 -102.45)"/><path class="cls-1" d="M52.67,188.16a6.06,6.06,0,0,1-5.07-2.49v10.08H43.36V172.51H47.6v1.92a6.06,6.06,0,0,1,5-2.41c4.51,0,7.49,3.74,7.49,8.09S57.12,188.16,52.67,188.16Zm-1.26-12.33a4.26,4.26,0,1,0,4.24,4.24A4.23,4.23,0,0,0,51.41,175.83Z" transform="translate(-43.36 -102.45)"/><path class="cls-1" d="M74.86,187.67v-2a5.84,5.84,0,0,1-4.93,2.49c-4.55,0-7.46-3.78-7.46-8.12s2.91-8,7.35-8a6.32,6.32,0,0,1,5,2.41v-1.92h4.27v15.16Zm-3.78-11.84a4.26,4.26,0,1,0,4.24,4.24A4.23,4.23,0,0,0,71.08,175.83Zm-.59-6a3.15,3.15,0,1,1,0-6.3,3.15,3.15,0,1,1,0,6.3Zm0-4.38a1.23,1.23,0,1,0,1.22,1.23A1.2,1.2,0,0,0,70.49,165.47Z" transform="translate(-43.36 -102.45)"/><path class="cls-1" d="M96.32,176.15v11.52H92.08V176.15H90.44v-3.64h1.64v-4.87a7.35,7.35,0,0,1,.67-3.57A6,6,0,0,1,98,161a5,5,0,0,1,2.24.52v3.89a4.18,4.18,0,0,0-1.93-.56c-1.89,0-2,2-2,3.39v4.24h3.92v3.64Z" transform="translate(-43.36 -102.45)"/><path class="cls-1" d="M105.73,180.77c.07,2.35,1.19,4.06,3.71,4.06a4,4,0,0,0,3.61-2l3.92.63c-1.33,3.26-4,4.73-7.46,4.73-4.9,0-8.12-3.15-8.12-8.09s3.08-8,8-8,7.73,3.36,7.73,8.19v.56Zm3.68-5.74a3.44,3.44,0,0,0-3.54,3.05h7.18A3.52,3.52,0,0,0,109.41,175Z" transform="translate(-43.36 -102.45)"/><path class="cls-1" d="M139.68,187.67v-8.3c0-1.79-.28-3.74-2.52-3.74-2.48,0-2.9,2.27-2.9,4.27v7.77H130v-8a6.91,6.91,0,0,0-.31-2.53,2.47,2.47,0,0,0-2.28-1.46,2.77,2.77,0,0,0-2.38,1.36,6.37,6.37,0,0,0-.49,2.91v7.77h-4.23V172.51h4.23v1.71a5.84,5.84,0,0,1,4.62-2.2,5.14,5.14,0,0,1,4.73,2.77,5.59,5.59,0,0,1,5-2.77,5,5,0,0,1,4.23,2.17,6.71,6.71,0,0,1,.81,3.68v9.8Z" transform="translate(-43.36 -102.45)"/><path class="cls-1" d="M176.08,187.67v-8.3c0-1.79-.28-3.74-2.52-3.74-2.48,0-2.9,2.27-2.9,4.27v7.77h-4.24v-8a6.91,6.91,0,0,0-.31-2.53,2.47,2.47,0,0,0-2.28-1.46,2.77,2.77,0,0,0-2.38,1.36,6.37,6.37,0,0,0-.49,2.91v7.77h-4.23V172.51H161v1.71a5.84,5.84,0,0,1,4.62-2.2,5.14,5.14,0,0,1,4.73,2.77,5.59,5.59,0,0,1,5-2.77,5,5,0,0,1,4.23,2.17,6.71,6.71,0,0,1,.81,3.68v9.8Z" transform="translate(-43.36 -102.45)"/><path class="cls-1" d="M186.44,168.66a2.56,2.56,0,0,1,0-5.11,2.56,2.56,0,0,1,0,5.11Zm-2.13,19V172.51h4.23v15.16Z" transform="translate(-43.36 -102.45)"/><path class="cls-1" d="M202.89,187.67v-8.4c0-2.07-.45-3.64-2.87-3.64-2.62,0-3.25,1.92-3.25,4.2v7.84h-4.24V172.51h4.24v1.86a5.57,5.57,0,0,1,4.76-2.35,5.23,5.23,0,0,1,5.6,6v9.63Z" transform="translate(-43.36 -102.45)"/><path class="cls-1" d="M218.5,188.16c-4.16,0-7.31-1.86-7.31-6.37v-9.28h4.23v8.58c0,2.06.88,3.46,3.08,3.46s3.08-1.4,3.08-3.46v-8.58h4.27v9.28C225.85,186.3,222.67,188.16,218.5,188.16Z" transform="translate(-43.36 -102.45)"/><path class="cls-1" d="M234.18,176.15v11.52H230V176.15h-1.69v-3.64H230v-5.18h4.23v5.18h3v3.64Z" transform="translate(-43.36 -102.45)"/><path class="cls-1" d="M242.9,180.77c.07,2.35,1.19,4.06,3.71,4.06a4,4,0,0,0,3.6-2l3.92.63c-1.33,3.26-4,4.73-7.45,4.73-4.9,0-8.12-3.15-8.12-8.09s3.08-8,7.94-8,7.74,3.36,7.74,8.19v.56Zm3.67-5.74a3.44,3.44,0,0,0-3.53,3.05h7.17A3.51,3.51,0,0,0,246.57,175Z" transform="translate(-43.36 -102.45)"/><path class="cls-1" d="M267.4,176.36a3.72,3.72,0,0,0-2-.53c-2.87,0-3.64,2-3.64,4.56v7.28h-4.24V172.51h4.24v2.28a4.86,4.86,0,0,1,4.41-2.77,4.94,4.94,0,0,1,1.85.35Z" transform="translate(-43.36 -102.45)"/><path class="cls-1" d="M270.89,188.12a2.73,2.73,0,1,1,2.74-2.73A2.72,2.72,0,0,1,270.89,188.12Z" transform="translate(-43.36 -102.45)"/></svg>