<svg id="Layer_1" data-name="Layer 1" xmlns="http://www.w3.org/2000/svg" viewBox="0 0 320 320"><defs><style>.cls-1{fill:#d80201;}</style></defs><title>text</title><path class="cls-1" d="M116.36,193.5l-1.83-12.74-5.71,13h-1.11l-5.49-13-2.08,12.74H96.08l3.84-21.05h2.76L108.33,186l5.89-13.52H117l3.44,21.05Z"/><path class="cls-1" d="M130.49,193.93c-4.28,0-7.69-2.66-7.69-7.13s3.41-7.16,7.72-7.16,7.63,2.7,7.63,7.13S134.74,193.93,130.49,193.93Zm-3.26-16.37a2.23,2.23,0,0,1,0-4.46,2.23,2.23,0,1,1,0,4.46Zm3.23,5.46a3.77,3.77,0,1,0,3.81,3.78A3.8,3.8,0,0,0,130.46,183Zm3.22-5.46a2.26,2.26,0,0,1-2.23-2.23,2.24,2.24,0,1,1,2.23,2.23Z"/><path class="cls-1" d="M149.18,193.93a5.27,5.27,0,0,1-4.4-2.2v1.77H141V170.28h3.75v11.5a5.68,5.68,0,0,1,4.5-2.14c3.93,0,6.54,3.35,6.54,7.1S153.21,193.93,149.18,193.93Zm-1-10.91a3.77,3.77,0,1,0,3.75,3.75A3.74,3.74,0,0,0,148.16,183Z"/><path class="cls-1" d="M158.67,193.5V170.28h3.75V193.5Z"/><path class="cls-1" d="M169.15,187.39c.06,2.08,1,3.6,3.28,3.6a3.53,3.53,0,0,0,3.2-1.8l3.47.56c-1.18,2.88-3.57,4.18-6.61,4.18-4.34,0-7.19-2.79-7.19-7.16s2.73-7.13,7-7.13,6.85,3,6.85,7.26v.49Zm3.25-5.08a3,3,0,0,0-3.13,2.69h6.36A3.12,3.12,0,0,0,172.4,182.31Z"/><path class="cls-1" d="M190.85,183.49a3.26,3.26,0,0,0-1.8-.47c-2.54,0-3.23,1.8-3.23,4v6.45h-3.75V180.08h3.75v2a4.32,4.32,0,0,1,3.91-2.45,4.19,4.19,0,0,1,1.64.31Z"/><path class="cls-1" d="M203.49,193.5v-1.77a5.17,5.17,0,0,1-4.37,2.2c-4,0-6.6-3.34-6.6-7.19s2.57-7.1,6.51-7.1a5.56,5.56,0,0,1,4.46,2.14v-1.7h3.79V193.5ZM200.15,183a3.77,3.77,0,1,0,3.75,3.75A3.75,3.75,0,0,0,200.15,183Z"/><path class="cls-1" d="M214.65,183.3v10.2H210.9V183.3h-1.49v-3.22h1.49v-4.59h3.75v4.59h2.64v3.22Z"/><path class="cls-1" d="M92.92,226.78H91.18l-6.85-13.7h4.22l3.53,7.56,3.54-7.56h4.21Z"/><path class="cls-1" d="M103.49,209.66a2.26,2.26,0,0,1,0-4.52,2.26,2.26,0,0,1,0,4.52ZM101.6,226.5V213.08h3.75V226.5Z"/><path class="cls-1" d="M113.16,226.93a7.11,7.11,0,0,1-5.11-2.23l2-2.29a4.36,4.36,0,0,0,3.16,1.58,1.59,1.59,0,0,0,1.71-1.49c0-2.29-6-1.15-6-5.67,0-2.73,2.27-4.25,4.81-4.25a6.92,6.92,0,0,1,4.37,1.42l-1.86,2.21a3.7,3.7,0,0,0-2.23-.9c-.65,0-1.43.4-1.43,1.15,0,1.95,6.2,1.08,6.2,5.67C118.77,225.26,116,226.93,113.16,226.93Z"/><path class="cls-1" d="M130.61,226.5v-7.44c0-1.83-.4-3.23-2.54-3.23-2.32,0-2.88,1.71-2.88,3.73v6.94h-3.75V213.08h3.75v1.64a4.94,4.94,0,0,1,4.22-2.08,4.64,4.64,0,0,1,5,5.33v8.53Z"/><path class="cls-1" d="M139.79,209.66a2.26,2.26,0,0,1,0-4.52,2.26,2.26,0,0,1,0,4.52ZM137.9,226.5V213.08h3.75V226.5Z"/><path class="cls-1" d="M154.36,226.5v-7.44c0-1.83-.4-3.23-2.54-3.23-2.33,0-2.89,1.71-2.89,3.73v6.94h-3.75V213.08h3.75v1.64a5,5,0,0,1,4.22-2.08,4.63,4.63,0,0,1,5,5.33v8.53Z"/><path class="cls-1" d="M174.17,231.37a7.34,7.34,0,0,1-5.71,2.35c-3.44,0-6.75-2-7.13-5.64h4.07a3,3,0,0,0,3.19,2.45c2.35,0,3.32-1.64,3.32-3.81v-2a5.59,5.59,0,0,1-4.53,2.23c-4,0-6.39-3.19-6.39-7s2.48-7.32,6.57-7.32a5,5,0,0,1,4.35,2.17v-1.73h3.78V226C175.69,228.11,175.6,229.69,174.17,231.37ZM168.62,216a3.77,3.77,0,1,0,3.75,3.75A3.74,3.74,0,0,0,168.62,216Z"/><path class="cls-1" d="M183.56,226.93a7.15,7.15,0,0,1-5.12-2.23l2-2.29a4.36,4.36,0,0,0,3.16,1.58,1.59,1.59,0,0,0,1.71-1.49c0-2.29-6-1.15-6-5.67,0-2.73,2.27-4.25,4.81-4.25a6.92,6.92,0,0,1,4.37,1.42l-1.86,2.21a3.73,3.73,0,0,0-2.23-.9c-.65,0-1.43.4-1.43,1.15,0,1.95,6.2,1.08,6.2,5.67C189.17,225.26,186.44,226.93,183.56,226.93Z"/><path class="cls-1" d="M201,226.5v-7.35c0-1.86-.4-3.32-2.57-3.32s-2.85,1.8-2.85,3.79v6.88h-3.75V203.28h3.75v11.53a4.88,4.88,0,0,1,4.22-2.17,5.15,5.15,0,0,1,3.9,1.64,5.35,5.35,0,0,1,1.06,3.79v8.43Z"/><path class="cls-1" d="M214.84,226.93c-3.69,0-6.48-1.64-6.48-5.64v-8.21h3.75v7.59c0,1.83.78,3.07,2.73,3.07s2.73-1.24,2.73-3.07v-7.59h3.78v8.21C221.35,225.29,218.53,226.93,214.84,226.93Z"/><path class="cls-1" d="M229.22,226.93a7.11,7.11,0,0,1-5.11-2.23l2-2.29a4.36,4.36,0,0,0,3.16,1.58A1.59,1.59,0,0,0,231,222.5c0-2.29-6-1.15-6-5.67,0-2.73,2.26-4.25,4.8-4.25a6.92,6.92,0,0,1,4.37,1.42l-1.86,2.21a3.7,3.7,0,0,0-2.23-.9c-.65,0-1.43.4-1.43,1.15,0,1.95,6.2,1.08,6.2,5.67C234.83,225.26,232.11,226.93,229.22,226.93Z"/></svg>