<svg id="Layer_1" data-name="Layer 1" xmlns="http://www.w3.org/2000/svg" viewBox="0 0 320 320"><defs><style>.cls-1{fill:#fff;}</style></defs><title>text</title><path class="cls-1" d="M99.76,141c-2.27,2.45-5.84,2.06-8.89,2.06v8.65H86.32V128.32h6.79c2.31,0,4.34.17,6.16,1.78a7.44,7.44,0,0,1,2.38,5.64A7.67,7.67,0,0,1,99.76,141Zm-4-8a5.43,5.43,0,0,0-3.32-.74H90.87v6.79h1.86c2.27,0,4.23-.73,4.23-3.36A3.43,3.43,0,0,0,95.77,133Z"/><path class="cls-1" d="M114.29,140.36a3.72,3.72,0,0,0-2-.53c-2.87,0-3.64,2-3.64,4.56v7.28h-4.24V136.51h4.24v2.27A4.87,4.87,0,0,1,113,136a4.75,4.75,0,0,1,1.85.35Z"/><path class="cls-1" d="M119.05,132.66a2.56,2.56,0,1,1,0-5.11,2.56,2.56,0,0,1,0,5.11Zm-2.14,19V136.51h4.24v15.16Z"/><path class="cls-1" d="M130,152.16a8.1,8.1,0,0,1-5.78-2.52l2.24-2.59a5,5,0,0,0,3.57,1.78,1.79,1.79,0,0,0,1.93-1.68c0-2.59-6.76-1.29-6.76-6.41,0-3.08,2.56-4.79,5.43-4.79a7.78,7.78,0,0,1,4.93,1.61l-2.1,2.48a4.2,4.2,0,0,0-2.52-1c-.73,0-1.61.45-1.61,1.29,0,2.21,7,1.23,7,6.41C136.3,150.27,133.22,152.16,130,152.16Z"/><path class="cls-1" d="M159.65,151.67v-2a5.86,5.86,0,0,1-4.94,2.49c-4.55,0-7.45-3.78-7.45-8.12s2.9-8,7.35-8a6.33,6.33,0,0,1,5,2.41v-13h4.27v26.22Zm-3.78-11.84a4.26,4.26,0,1,0,4.23,4.24A4.24,4.24,0,0,0,155.87,139.83Z"/><path class="cls-1" d="M170,132.66a2.56,2.56,0,1,1,0-5.11,2.56,2.56,0,0,1,0,5.11Zm-2.14,19V136.51h4.24v15.16Z"/><path class="cls-1" d="M186,140.36a3.72,3.72,0,0,0-2-.53c-2.87,0-3.64,2-3.64,4.56v7.28h-4.24V136.51h4.24v2.27a4.87,4.87,0,0,1,4.41-2.76,4.75,4.75,0,0,1,1.85.35Z"/><path class="cls-1" d="M192.26,144.77c.07,2.35,1.2,4.06,3.72,4.06a4,4,0,0,0,3.6-2l3.92.63c-1.33,3.26-4,4.73-7.45,4.73-4.91,0-8.13-3.15-8.13-8.09s3.08-8,8-8,7.74,3.36,7.74,8.19v.56Zm3.68-5.74a3.45,3.45,0,0,0-3.54,3.05h7.18A3.51,3.51,0,0,0,195.94,139Z"/><path class="cls-1" d="M217.25,151.67l-5.7-6.51-.46.45v6.06h-4.23V125.45h4.23V142l5.67-5.53h5.75l-7.11,6.65,7.67,8.51Z"/><path class="cls-1" d="M229.22,140.15v11.52H225V140.15h-1.68v-3.64H225v-5.18h4.23v5.18h3v3.64Z"/><path class="cls-1" d="M64.25,169.66a2.56,2.56,0,0,1,0-5.11,2.56,2.56,0,0,1,0,5.11Zm-2.13,19V173.51h4.24v15.16Z"/><path class="cls-1" d="M87.6,188.67H79.76V165.32h5.77c1.9,0,4.21.17,5.71,1.4a6.23,6.23,0,0,1,2.1,4.79,4.91,4.91,0,0,1-2.55,4.7,5.27,5.27,0,0,1,3,1.46,6.3,6.3,0,0,1,1.68,4.38C95.51,186.71,91.8,188.67,87.6,188.67Zm-2-19.64H84.31v6H85.6c2,0,3.54-.8,3.54-3S87.67,169,85.64,169Zm.77,9.49h-2.1V185h2c2.24,0,4.55-.52,4.55-3.25S88.58,178.52,86.41,178.52Z"/><path class="cls-1" d="M103.45,196.79H98.66l5.57-10.4-7.18-12.88H102l4.56,8.61,4.34-8.61h4.83Z"/><path class="cls-1" d="M131.84,194.16a8.27,8.27,0,0,1-6.44,2.66c-3.89,0-7.63-2.24-8.05-6.37h4.58a3.38,3.38,0,0,0,3.61,2.77c2.66,0,3.74-1.86,3.74-4.31v-2.27a6.3,6.3,0,0,1-5.11,2.52c-4.48,0-7.21-3.61-7.21-7.88s2.8-8.26,7.42-8.26a5.68,5.68,0,0,1,4.9,2.45v-2h4.28v14.6C133.56,190.49,133.45,192.27,131.84,194.16Zm-6.27-17.33a4.26,4.26,0,1,0,4.24,4.24A4.23,4.23,0,0,0,125.57,176.83Z"/><path class="cls-1" d="M151.68,194.16a8.26,8.26,0,0,1-6.44,2.66c-3.88,0-7.63-2.24-8.05-6.37h4.59a3.36,3.36,0,0,0,3.6,2.77c2.66,0,3.75-1.86,3.75-4.31v-2.27a6.33,6.33,0,0,1-5.11,2.52c-4.48,0-7.21-3.61-7.21-7.88s2.8-8.26,7.42-8.26a5.68,5.68,0,0,1,4.9,2.45v-2h4.27v14.6C153.4,190.49,153.29,192.27,151.68,194.16Zm-6.26-17.33a4.26,4.26,0,1,0,4.23,4.24A4.24,4.24,0,0,0,145.42,176.83Z"/><path class="cls-1" d="M174.08,189.16c-4.83,0-8.68-3-8.68-8s3.85-8.09,8.72-8.09,8.61,3,8.61,8S178.88,189.16,174.08,189.16Zm0-12.33a4.26,4.26,0,1,0,4.3,4.28A4.29,4.29,0,0,0,174.05,176.83Z"/><path class="cls-1" d="M196.34,188.67v-8.4c0-2.07-.45-3.64-2.87-3.64-2.62,0-3.25,1.92-3.25,4.2v7.84H186V173.51h4.24v1.86A5.57,5.57,0,0,1,195,173a5.23,5.23,0,0,1,5.6,6v9.63Z"/><path class="cls-1" d="M204.64,188.67V162.45h4.23v26.22Z"/><path class="cls-1" d="M215,169.66a2.56,2.56,0,1,1,0-5.11,2.56,2.56,0,0,1,0,5.11Zm-2.14,19V173.51h4.24v15.16Z"/><path class="cls-1" d="M231.45,188.67v-8.4c0-2.07-.46-3.64-2.87-3.64-2.63,0-3.26,1.92-3.26,4.2v7.84h-4.23V173.51h4.23v1.86a5.57,5.57,0,0,1,4.76-2.35,5.23,5.23,0,0,1,5.6,6v9.63Z"/><path class="cls-1" d="M243.28,181.77c.07,2.35,1.19,4.06,3.71,4.06a4,4,0,0,0,3.6-2l3.92.63c-1.33,3.26-4,4.73-7.45,4.73-4.9,0-8.12-3.15-8.12-8.09s3.08-8,7.94-8c5,0,7.74,3.36,7.74,8.19v.56ZM247,176a3.44,3.44,0,0,0-3.53,3.05h7.17A3.51,3.51,0,0,0,247,176Z"/></svg>