<svg id="Layer_1" data-name="Layer 1" xmlns="http://www.w3.org/2000/svg" viewBox="0 0 320 320"><defs><style>.cls-1{fill:#d4ac76;}</style></defs><title>text</title><path class="cls-1" d="M78.26,253.59l-2.71-7h1.09L78.72,252l2.09-5.35h1.08l-2.72,7Z"/><path class="cls-1" d="M87.68,253.59v-7h1l2.24,3.71,2.28-3.71h1v7h-1v-5.14l0,0L90.91,252l-2.2-3.55h-.06v5.11Z"/><path class="cls-1" d="M100.06,253.72a3.42,3.42,0,0,1-2.51-1,3.75,3.75,0,0,1,0-5.16,3.56,3.56,0,0,1,5,0,3.71,3.71,0,0,1,0,5.15A3.42,3.42,0,0,1,100.06,253.72ZM98.24,252a2.51,2.51,0,0,0,3.64,0,2.78,2.78,0,0,0,0-3.8,2.45,2.45,0,0,0-1.82-.78,2.42,2.42,0,0,0-1.82.78,2.78,2.78,0,0,0,0,3.8Zm1.17-6.11a.47.47,0,0,1-.35.15.43.43,0,0,1-.34-.15.53.53,0,0,1-.14-.38.51.51,0,0,1,.14-.38.43.43,0,0,1,.34-.15.47.47,0,0,1,.35.15.56.56,0,0,1,.14.38A.57.57,0,0,1,99.41,245.9Zm1.93,0a.48.48,0,0,1-.7,0,.57.57,0,0,1-.14-.38.56.56,0,0,1,.14-.38.48.48,0,0,1,.7,0,.56.56,0,0,1,.14.38A.57.57,0,0,1,101.34,245.9Z"/><path class="cls-1" d="M106,253.59v-7h1v6h2.86v.93Z"/><path class="cls-1" d="M112,253.59v-7h1v6h2.86v.93Z"/><path class="cls-1" d="M121.81,250.54H119v2.12H122v.93h-4v-7h4v.93h-3v2.05h2.86Z"/><path class="cls-1" d="M124.42,253.59v-7h1.86a3.51,3.51,0,0,1,2.44,6,3.41,3.41,0,0,1-2.47,1Zm1.9-6h-.93v5.1h1a2.22,2.22,0,0,0,1.71-.74,2.61,2.61,0,0,0,.7-1.82,2.48,2.48,0,0,0-.72-1.81A2.31,2.31,0,0,0,126.32,247.56Z"/><path class="cls-1" d="M131.1,253.59l2.8-7h.88l2.74,7h-1.08l-.42-1.07h-3.41l-.43,1.07Zm3.24-5.36L133,251.59h2.68Z"/><path class="cls-1" d="M139.45,253.59v-7h1v6h2.86v.93Z"/><path class="cls-1" d="M147.23,253.68a3.14,3.14,0,0,1-1.3-.28,3.3,3.3,0,0,1-1.11-.75l.69-.78a2.66,2.66,0,0,0,.8.63,2,2,0,0,0,1,.25,1.32,1.32,0,0,0,.9-.29,1,1,0,0,0,.35-.74,1.22,1.22,0,0,0-.88-1.14l-.82-.33a2.85,2.85,0,0,1-1.14-.74,1.65,1.65,0,0,1-.37-1.11,1.74,1.74,0,0,1,.57-1.31,2,2,0,0,1,1.42-.55,2.84,2.84,0,0,1,2,.77l-.59.79a1.9,1.9,0,0,0-1.43-.63,1.12,1.12,0,0,0-.74.24.82.82,0,0,0-.28.65.8.8,0,0,0,.21.54,2.06,2.06,0,0,0,.7.43l.84.33a2,2,0,0,1,1.46,2,1.89,1.89,0,0,1-.61,1.46A2.33,2.33,0,0,1,147.23,253.68Z"/><path class="cls-1" d="M153.67,253.59l-2.71-7h1.09l2.09,5.35,2.08-5.35h1.08l-2.72,7Z"/><path class="cls-1" d="M158.92,253.53a.58.58,0,0,1-.82,0,.58.58,0,0,1-.17-.41.57.57,0,0,1,.17-.42.5.5,0,0,1,.41-.17.53.53,0,0,1,.41.17.54.54,0,0,1,.17.42A.54.54,0,0,1,158.92,253.53Z"/><path class="cls-1" d="M166.08,253.59v-5.71l-1.31.66v-.92l1.85-1h.43v7Z"/><path class="cls-1" d="M169.24,252v-.61l2.42-4.76h1l-2.29,4.5h1.5V250h1v1.17h.83V252h-.83v1.59h-1V252Z"/><path class="cls-1" d="M175.14,253.59l2.8-7h.87l2.74,7h-1.07l-.42-1.07h-3.41l-.43,1.07Zm3.23-5.36L177,251.59h2.67Z"/><path class="cls-1" d="M183,254.87l.8-2.23.89.31-1.1,2.14Z"/><path class="cls-1" d="M195.18,253.59v-3h-3.39v3h-1v-7h1v3h3.39v-3h1v7Z"/><path class="cls-1" d="M202.1,253.72a3.42,3.42,0,0,1-2.51-1,3.75,3.75,0,0,1,0-5.16,3.56,3.56,0,0,1,5,0,3.71,3.71,0,0,1,0,5.15A3.42,3.42,0,0,1,202.1,253.72ZM200.28,252a2.51,2.51,0,0,0,3.64,0,2.78,2.78,0,0,0,0-3.8,2.51,2.51,0,0,0-3.64,0,2.78,2.78,0,0,0,0,3.8Zm1.17-6.11a.47.47,0,0,1-.35.15.45.45,0,0,1-.34-.15.57.57,0,0,1-.14-.38.56.56,0,0,1,.14-.38.45.45,0,0,1,.34-.15.47.47,0,0,1,.35.15.56.56,0,0,1,.14.38A.57.57,0,0,1,201.45,245.9Zm1.93,0a.47.47,0,0,1-.35.15.43.43,0,0,1-.34-.15.53.53,0,0,1-.14-.38.51.51,0,0,1,.14-.38A.43.43,0,0,1,203,245a.47.47,0,0,1,.35.15.56.56,0,0,1,.14.38A.57.57,0,0,1,203.38,245.9Z"/><path class="cls-1" d="M208.08,253.59v-7h1v6h2.86v.93Z"/><path class="cls-1" d="M214.05,253.59v-7h1v6h2.86v.93Z"/><path class="cls-1" d="M221,253.59l-2.71-7h1.09l2.08,5.35,2.09-5.35h1.08l-2.72,7Z"/><path class="cls-1" d="M226.53,253.59v-7h1v7Z"/><path class="cls-1" d="M230.36,253.59v-7h1v3.3l2.9-3.3h1.3l-2.45,2.76,2.51,4.2h-1.2l-2-3.39-1,1.16v2.23Z"/><path class="cls-1" d="M241.54,250.54h-2.86v2.12h3.06v.93h-4v-7h4v.93h-3v2.05h2.86Z"/><path class="cls-1" d="M244.15,253.59v-7h.68l3.77,4.8v-4.8h1v7H249l-3.9-5v5Z"/><path class="cls-1" d="M78.7,266.68a3.14,3.14,0,0,1-1.3-.28,3.3,3.3,0,0,1-1.11-.75l.69-.78a2.66,2.66,0,0,0,.8.63,2,2,0,0,0,1,.25,1.32,1.32,0,0,0,.9-.29,1,1,0,0,0,.35-.74,1.22,1.22,0,0,0-.88-1.14l-.82-.33a2.85,2.85,0,0,1-1.14-.74,1.65,1.65,0,0,1-.37-1.11,1.74,1.74,0,0,1,.57-1.31,2,2,0,0,1,1.42-.55,2.84,2.84,0,0,1,2,.77l-.59.79a1.9,1.9,0,0,0-1.43-.63,1.12,1.12,0,0,0-.74.24.82.82,0,0,0-.28.65.8.8,0,0,0,.21.54,2,2,0,0,0,.7.43l.84.33a2,2,0,0,1,1.46,2,1.89,1.89,0,0,1-.61,1.46A2.33,2.33,0,0,1,78.7,266.68Z"/><path class="cls-1" d="M86.53,266.72a3.4,3.4,0,0,1-2.51-1,3.75,3.75,0,0,1,0-5.16,3.56,3.56,0,0,1,5,0,3.71,3.71,0,0,1,0,5.15A3.42,3.42,0,0,1,86.53,266.72ZM84.71,265a2.51,2.51,0,0,0,3.64,0,2.77,2.77,0,0,0,0-3.8,2.5,2.5,0,0,0-3.63,0,2.78,2.78,0,0,0,0,3.8Zm1.17-6.11a.47.47,0,0,1-.35.15.43.43,0,0,1-.34-.15.53.53,0,0,1-.14-.38.51.51,0,0,1,.14-.38.43.43,0,0,1,.34-.15.47.47,0,0,1,.35.15.56.56,0,0,1,.14.38A.57.57,0,0,1,85.88,258.9Zm1.92,0a.43.43,0,0,1-.34.15.47.47,0,0,1-.35-.15.57.57,0,0,1-.14-.38.56.56,0,0,1,.14-.38.47.47,0,0,1,.35-.15.43.43,0,0,1,.34.15.52.52,0,0,1,.15.38A.54.54,0,0,1,87.8,258.9Z"/><path class="cls-1" d="M92.51,266.59v-7h.68l3.76,4.8v-4.8h1v7h-.54l-3.91-5v5Z"/><path class="cls-1" d="M100.83,266.59v-7h1.87a3.51,3.51,0,0,1,2.43,6,3.39,3.39,0,0,1-2.47,1Zm1.91-6h-.93v5.1h1a2.26,2.26,0,0,0,1.72-.74,2.6,2.6,0,0,0,.69-1.82,2.48,2.48,0,0,0-.72-1.81A2.29,2.29,0,0,0,102.74,260.56Z"/><path class="cls-1" d="M107.52,266.59l2.79-7h.88l2.74,7h-1.07l-.42-1.07H109l-.43,1.07Zm3.23-5.36-1.35,3.36h2.67Z"/><path class="cls-1" d="M120.08,263.57v-.93h2.31v.49a3.58,3.58,0,0,1-3.6,3.58,3.42,3.42,0,0,1-2.54-1,3.75,3.75,0,0,1,0-5.14,3.42,3.42,0,0,1,2.54-1,3.8,3.8,0,0,1,1.46.29,3.52,3.52,0,0,1,1.19.8l-.72.74a2.55,2.55,0,0,0-3.78-.12,2.84,2.84,0,0,0,0,3.8,2.59,2.59,0,0,0,3.52.17,2.65,2.65,0,0,0,.88-1.6Z"/><path class="cls-1" d="M128.06,266.59V266l2.78-3.67a1.4,1.4,0,0,0,.39-.88,1,1,0,0,0-.31-.75,1.06,1.06,0,0,0-.78-.3,1,1,0,0,0-.76.34,1.28,1.28,0,0,0-.32.88h-1a2.06,2.06,0,0,1,.57-1.48,2,2,0,0,1,1.48-.6,2.09,2.09,0,0,1,1.48.54,1.8,1.8,0,0,1,.58,1.37,2.48,2.48,0,0,1-.73,1.54l-2.17,2.76h3v.86Z"/><path class="cls-1" d="M136.21,266.7a2.16,2.16,0,0,1-1.52-.59,2,2,0,0,1-.65-1.42h1a1,1,0,0,0,.36.77,1.25,1.25,0,0,0,1.67,0,1.07,1.07,0,0,0,.35-.83,1.15,1.15,0,0,0-.34-.86,1.18,1.18,0,0,0-.84-.34h-.4v-.86h.38a1.1,1.1,0,0,0,.81-.32,1.08,1.08,0,0,0,0-1.55,1.09,1.09,0,0,0-.81-.31,1.11,1.11,0,0,0-.8.32,1.1,1.1,0,0,0-.32.78h-1a1.77,1.77,0,0,1,.6-1.39,2.27,2.27,0,0,1,3,0,1.84,1.84,0,0,1,.6,1.39,1.57,1.57,0,0,1-.3.94,1.64,1.64,0,0,1-.76.59,1.72,1.72,0,0,1,.81.62,1.7,1.7,0,0,1,.3,1,2,2,0,0,1-.63,1.47A2.14,2.14,0,0,1,136.21,266.7Z"/><path class="cls-1" d="M146.26,266.68a3.47,3.47,0,0,1-2.4-1l.68-.78a2.66,2.66,0,0,0,.8.63,2,2,0,0,0,1,.25,1.32,1.32,0,0,0,.9-.29.92.92,0,0,0,.35-.74,1.22,1.22,0,0,0-.88-1.14l-.82-.33a2.85,2.85,0,0,1-1.14-.74,1.65,1.65,0,0,1-.37-1.11,1.74,1.74,0,0,1,.57-1.31,2,2,0,0,1,1.42-.55,2.84,2.84,0,0,1,2,.77l-.58.79a1.92,1.92,0,0,0-1.44-.63,1.09,1.09,0,0,0-.73.24.83.83,0,0,0-.29.65.8.8,0,0,0,.21.54,2.06,2.06,0,0,0,.7.43l.84.33a2,2,0,0,1,1.46,2,1.89,1.89,0,0,1-.61,1.46A2.33,2.33,0,0,1,146.26,266.68Z"/><path class="cls-1" d="M154.74,263.54h-2.86v2.12h3.06v.93h-4v-7h4v.93h-3v2.05h2.86Z"/><path class="cls-1" d="M157.35,266.59v-7h2.38a2.19,2.19,0,0,1,1.61.65,2.28,2.28,0,0,1,.65,1.66,2.18,2.18,0,0,1-.67,1.63,2.23,2.23,0,0,1-1.63.64h-1.36v2.38Zm2.31-6h-1.33v2.73h1.34a1.38,1.38,0,0,0,1-2.34A1.3,1.3,0,0,0,159.66,260.56Z"/><path class="cls-1" d="M163.42,260.56v-.93h5.63v.93h-2.33v6h-1v-6Z"/><path class="cls-1" d="M174.82,263.54H172v2.12H175v.93h-4v-7h4v.93h-3v2.05h2.86Z"/><path class="cls-1" d="M177.43,266.59v-7h1l2.24,3.71,2.28-3.71h1v7h-1v-5.14l0,0-2.24,3.6-2.19-3.55h-.07v5.11Z"/><path class="cls-1" d="M186.76,266.59v-7h2.13a2.24,2.24,0,0,1,1.54.54,1.81,1.81,0,0,1,.6,1.41,1.62,1.62,0,0,1-.83,1.49,1.66,1.66,0,0,1,.75.63,1.57,1.57,0,0,1,.28.93,1.8,1.8,0,0,1-.61,1.43,2.29,2.29,0,0,1-1.55.53Zm2-6h-1v2.12H189a1.1,1.1,0,0,0,.78-.31,1.07,1.07,0,0,0,.31-.8.89.89,0,0,0-.35-.73A1.4,1.4,0,0,0,188.79,260.56Zm.22,3h-1.27v2.12H189a1.46,1.46,0,0,0,1-.29,1,1,0,0,0,.36-.8,1,1,0,0,0-.32-.74A1.38,1.38,0,0,0,189,263.54Z"/><path class="cls-1" d="M197.5,263.54h-2.86v2.12h3.06v.93h-4v-7h4v.93h-3v2.05h2.86Z"/><path class="cls-1" d="M200.11,266.59v-7h2.58a2.19,2.19,0,0,1,1.57.61,2.28,2.28,0,0,1,.11,3,2,2,0,0,1-1.33.68l2,2.65h-1.19l-2-2.65h-.78v2.65Zm2.45-6h-1.48v2.51h1.48a1.39,1.39,0,0,0,1-.34,1.2,1.2,0,0,0,.38-.92,1.17,1.17,0,0,0-.39-.89A1.35,1.35,0,0,0,202.56,260.56Z"/><path class="cls-1" d="M211.09,266.59v-7h1v3.3l2.9-3.3h1.31l-2.46,2.76,2.52,4.2h-1.21l-2-3.39-1,1.16v2.23Z"/><path class="cls-1" d="M218.44,266.59v-7h1v6h2.86v.93Z"/><path class="cls-1" d="M229,266.59v-5.71l-1.3.66v-.92l1.85-1h.43v7Z"/><path class="cls-1" d="M233.46,266.59v-5.71l-1.31.66v-.92l1.85-1h.43v7Z"/><path class="cls-1" d="M236.8,263.56v-.87h2.71v.87Z"/><path class="cls-1" d="M242.15,266.59v-5.71l-1.3.66v-.92l1.84-1h.43v7Z"/><path class="cls-1" d="M247.43,266.7a2.16,2.16,0,0,1-1.52-.59,2,2,0,0,1-.65-1.42h1a1,1,0,0,0,.36.77,1.18,1.18,0,0,0,.81.31,1.21,1.21,0,0,0,.87-.33,1.1,1.1,0,0,0,.34-.83,1.15,1.15,0,0,0-.34-.86,1.18,1.18,0,0,0-.84-.34H247v-.86h.38a1.1,1.1,0,0,0,.81-.32,1.08,1.08,0,0,0,0-1.55,1.09,1.09,0,0,0-.81-.31,1.11,1.11,0,0,0-.8.32,1.1,1.1,0,0,0-.32.78h-1a1.77,1.77,0,0,1,.6-1.39,2.27,2.27,0,0,1,3,0,1.84,1.84,0,0,1,.6,1.39,1.57,1.57,0,0,1-.3.94,1.64,1.64,0,0,1-.76.59,1.67,1.67,0,0,1,.81.62,1.7,1.7,0,0,1,.3,1,2,2,0,0,1-.63,1.47A2.14,2.14,0,0,1,247.43,266.7Z"/></svg>