<svg id="Layer_1" data-name="Layer 1" xmlns="http://www.w3.org/2000/svg" viewBox="0 0 320 320"><defs><style>.cls-1{fill:#d4ac76;}</style></defs><title>text</title><path class="cls-1" d="M68.85,253.59l-3-7.73H67l2.32,5.94,2.32-5.94h1.19l-3,7.73Z"/><path class="cls-1" d="M79.31,253.59v-7.73h1.11L82.91,250l2.53-4.12H86.5v7.73H85.42v-5.71l0,0-2.49,4-2.44-3.94h-.07v5.67Z"/><path class="cls-1" d="M93.06,253.73a3.79,3.79,0,0,1-2.78-1.14,4.14,4.14,0,0,1,0-5.73,3.94,3.94,0,0,1,5.56,0,4.11,4.11,0,0,1,0,5.72A3.77,3.77,0,0,1,93.06,253.73Zm-2-1.89a2.81,2.81,0,0,0,4,0,3,3,0,0,0,.83-2.12,2.94,2.94,0,0,0-.84-2.11,2.78,2.78,0,0,0-4,0,3.11,3.11,0,0,0,0,4.23Zm1.3-6.8a.52.52,0,0,1-.38.17.52.52,0,0,1-.39-.17.6.6,0,0,1-.15-.42.62.62,0,0,1,.15-.42A.52.52,0,0,1,92,244a.52.52,0,0,1,.38.17.58.58,0,0,1,.16.42A.57.57,0,0,1,92.34,245Zm2.14,0a.51.51,0,0,1-.76,0,.57.57,0,0,1-.16-.42.58.58,0,0,1,.16-.42.51.51,0,0,1,.76,0,.58.58,0,0,1,.16.42A.57.57,0,0,1,94.48,245Z"/><path class="cls-1" d="M99.71,253.59v-7.73h1.08v6.7H104v1Z"/><path class="cls-1" d="M106.34,253.59v-7.73h1.08v6.7h3.18v1Z"/><path class="cls-1" d="M117.23,250.2h-3.18v2.36h3.4v1H113v-7.73h4.42v1h-3.34v2.28h3.18Z"/><path class="cls-1" d="M120.13,253.59v-7.73h2.07a3.68,3.68,0,0,1,2.7,1.12,3.94,3.94,0,0,1,0,5.51,3.8,3.8,0,0,1-2.75,1.1Zm2.11-6.7h-1v5.67h1.06a2.49,2.49,0,0,0,1.91-.83,2.86,2.86,0,0,0,.77-2,2.75,2.75,0,0,0-.8-2A2.56,2.56,0,0,0,122.24,246.89Z"/><path class="cls-1" d="M127.56,253.59l3.1-7.73h1l3,7.73h-1.19L133,252.4h-3.79l-.47,1.19Zm3.59-6-1.5,3.74h3Z"/><path class="cls-1" d="M136.83,253.59v-7.73h1.08v6.7h3.18v1Z"/><path class="cls-1" d="M145.47,253.69a3.52,3.52,0,0,1-1.44-.31,3.66,3.66,0,0,1-1.23-.83l.76-.88a3,3,0,0,0,.89.71,2.28,2.28,0,0,0,1.07.28,1.49,1.49,0,0,0,1-.33,1,1,0,0,0,.39-.82,1.36,1.36,0,0,0-1-1.27l-.91-.36a3.18,3.18,0,0,1-1.27-.83,1.84,1.84,0,0,1-.41-1.22,1.92,1.92,0,0,1,.64-1.46,2.16,2.16,0,0,1,1.57-.61,3.12,3.12,0,0,1,2.25.86l-.65.87a2.13,2.13,0,0,0-1.6-.7,1.2,1.2,0,0,0-.81.27.94.94,0,0,0-.09,1.32,2.3,2.3,0,0,0,.79.47l.92.37a2.21,2.21,0,0,1,1.63,2.21,2.13,2.13,0,0,1-.68,1.63A2.62,2.62,0,0,1,145.47,253.69Z"/><path class="cls-1" d="M152.64,253.59l-3-7.73h1.21l2.32,5.94,2.32-5.94h1.19l-3,7.73Z"/><path class="cls-1" d="M158.47,253.52a.65.65,0,0,1-.92,0,.65.65,0,0,1-.18-.46.63.63,0,0,1,.18-.46.59.59,0,0,1,.46-.19.62.62,0,0,1,.46.19.6.6,0,0,1,.19.46A.62.62,0,0,1,158.47,253.52Z"/><path class="cls-1" d="M166.42,253.59v-6.35L165,248v-1l2.05-1.13h.48v7.77Z"/><path class="cls-1" d="M169.93,251.82v-.68l2.69-5.28h1.13l-2.54,5h1.67v-1.3H174v1.3h.93v1H174v1.77h-1.08v-1.77Z"/><path class="cls-1" d="M176.49,253.59l3.1-7.73h1l3,7.73h-1.19L182,252.4h-3.79l-.48,1.19Zm3.59-6-1.5,3.74h3Z"/><path class="cls-1" d="M185.24,255l.89-2.48,1,.35-1.22,2.38Z"/><path class="cls-1" d="M198.75,253.59v-3.35H195v3.35h-1.08v-7.73H195v3.35h3.76v-3.35h1.08v7.73Z"/><path class="cls-1" d="M206.44,253.73a3.79,3.79,0,0,1-2.78-1.14,4.14,4.14,0,0,1,0-5.73,3.94,3.94,0,0,1,5.56,0,4.11,4.11,0,0,1,0,5.72A3.77,3.77,0,0,1,206.44,253.73Zm-2-1.89a2.81,2.81,0,0,0,4.05,0,3,3,0,0,0,.83-2.12,2.94,2.94,0,0,0-.84-2.11,2.78,2.78,0,0,0-4,0,3.11,3.11,0,0,0,0,4.23Zm1.3-6.8a.52.52,0,0,1-.39.17A.52.52,0,0,1,205,245a.6.6,0,0,1-.15-.42.62.62,0,0,1,.15-.42.52.52,0,0,1,.38-.17.52.52,0,0,1,.39.17.58.58,0,0,1,.16.42A.57.57,0,0,1,205.72,245Zm2.14,0a.5.5,0,0,1-.38.17.54.54,0,0,1-.39-.17.6.6,0,0,1-.15-.42.62.62,0,0,1,.15-.42.54.54,0,0,1,.39-.17.5.5,0,0,1,.38.17.58.58,0,0,1,.16.42A.57.57,0,0,1,207.86,245Z"/><path class="cls-1" d="M213.09,253.59v-7.73h1.08v6.7h3.18v1Z"/><path class="cls-1" d="M219.72,253.59v-7.73h1.08v6.7H224v1Z"/><path class="cls-1" d="M227.44,253.59l-3-7.73h1.21L228,251.8l2.32-5.94h1.19l-3,7.73Z"/><path class="cls-1" d="M233.59,253.59v-7.73h1.08v7.73Z"/><path class="cls-1" d="M237.84,253.59v-7.73h1.08v3.67l3.22-3.67h1.45l-2.73,3.07,2.8,4.66h-1.34l-2.25-3.77-1.15,1.29v2.48Z"/><path class="cls-1" d="M250.27,250.2h-3.18v2.36h3.4v1H246v-7.73h4.42v1h-3.34v2.28h3.18Z"/><path class="cls-1" d="M253.17,253.59v-7.73h.75l4.19,5.33v-5.33h1.08v7.73h-.6l-4.34-5.52v5.52Z"/><path class="cls-1" d="M69.33,266.69a3.57,3.57,0,0,1-1.45-.31,3.72,3.72,0,0,1-1.22-.83l.76-.88a2.85,2.85,0,0,0,.89.71,2.25,2.25,0,0,0,1.07.28,1.49,1.49,0,0,0,1-.33,1,1,0,0,0,.39-.82,1.36,1.36,0,0,0-1-1.27l-.91-.36a3.18,3.18,0,0,1-1.27-.83,1.78,1.78,0,0,1-.41-1.22,2,2,0,0,1,.63-1.46,2.19,2.19,0,0,1,1.58-.61,3.09,3.09,0,0,1,2.24.86l-.64.87a2.13,2.13,0,0,0-1.6-.7,1.23,1.23,0,0,0-.82.27.9.9,0,0,0-.31.72.84.84,0,0,0,.23.6,2.24,2.24,0,0,0,.78.47l.93.37a2.21,2.21,0,0,1,1.63,2.21,2.1,2.1,0,0,1-.69,1.63A2.58,2.58,0,0,1,69.33,266.69Z"/><path class="cls-1" d="M78,266.73a3.83,3.83,0,0,1-2.79-1.14,4.17,4.17,0,0,1,0-5.73,3.95,3.95,0,0,1,5.57,0,4.11,4.11,0,0,1,0,5.72A3.79,3.79,0,0,1,78,266.73Zm-2-1.89a2.8,2.8,0,0,0,4,0,3.08,3.08,0,0,0,0-4.23,2.78,2.78,0,0,0-4,0,3.11,3.11,0,0,0,0,4.23Zm1.3-6.8a.54.54,0,0,1-.39.17.5.5,0,0,1-.38-.17.6.6,0,0,1-.15-.42.62.62,0,0,1,.15-.42.5.5,0,0,1,.38-.17.54.54,0,0,1,.39.17.63.63,0,0,1,.16.42A.61.61,0,0,1,77.31,258Zm2.14,0a.5.5,0,0,1-.38.17.52.52,0,0,1-.39-.17.6.6,0,0,1-.15-.42.62.62,0,0,1,.15-.42.52.52,0,0,1,.39-.17.5.5,0,0,1,.38.17.63.63,0,0,1,.16.42A.61.61,0,0,1,79.45,258Z"/><path class="cls-1" d="M84.68,266.59v-7.73h.75l4.19,5.33v-5.33H90.7v7.73h-.6l-4.34-5.52v5.52Z"/><path class="cls-1" d="M93.92,266.59v-7.73H96a3.89,3.89,0,0,1,2.7,6.63,3.78,3.78,0,0,1-2.74,1.1Zm2.12-6.7H95v5.67h1.06a2.47,2.47,0,0,0,1.9-.83,2.82,2.82,0,0,0,.78-2,2.75,2.75,0,0,0-.8-2A2.56,2.56,0,0,0,96,259.89Z"/><path class="cls-1" d="M101.36,266.59l3.1-7.73h1l3,7.73h-1.19l-.47-1.19H103l-.48,1.19Zm3.59-6-1.51,3.74h3Z"/><path class="cls-1" d="M115.31,263.23v-1h2.57v.54a4,4,0,0,1-4,4,3.77,3.77,0,0,1-2.82-1.15,4.17,4.17,0,0,1,0-5.71,3.78,3.78,0,0,1,2.82-1.16,4.22,4.22,0,0,1,1.62.32,4.06,4.06,0,0,1,1.33.9l-.8.81a2.76,2.76,0,0,0-2.15-1,2.66,2.66,0,0,0-2,.88,3.11,3.11,0,0,0,0,4.21,2.69,2.69,0,0,0,2,.87,2.75,2.75,0,0,0,1.85-.68,3,3,0,0,0,1-1.78Z"/><path class="cls-1" d="M124.17,266.59v-.68l3.1-4.08a1.59,1.59,0,0,0,.43-1,1.13,1.13,0,0,0-.34-.82,1.18,1.18,0,0,0-.87-.34,1.08,1.08,0,0,0-.85.38,1.47,1.47,0,0,0-.35,1h-1.08a2.27,2.27,0,0,1,.64-1.64,2.19,2.19,0,0,1,1.64-.67,2.28,2.28,0,0,1,1.64.61,2,2,0,0,1,.65,1.51,2.77,2.77,0,0,1-.81,1.71l-2.42,3.07h3.33v1Z"/><path class="cls-1" d="M133.23,266.71a2.37,2.37,0,0,1-1.68-.65,2.13,2.13,0,0,1-.72-1.58h1.08a1.11,1.11,0,0,0,.4.85,1.32,1.32,0,0,0,.9.35,1.3,1.3,0,0,0,1-.37,1.22,1.22,0,0,0,.39-.92,1.28,1.28,0,0,0-.38-.95,1.31,1.31,0,0,0-.94-.38h-.44v-1h.43a1.22,1.22,0,0,0,.9-.36,1.15,1.15,0,0,0,.36-.84,1.12,1.12,0,0,0-.36-.87,1.32,1.32,0,0,0-1.8,0,1.19,1.19,0,0,0-.35.86h-1.08a2,2,0,0,1,.67-1.54,2.3,2.3,0,0,1,1.66-.64,2.34,2.34,0,0,1,1.67.63,2.06,2.06,0,0,1,.67,1.55,1.71,1.71,0,0,1-.33,1,1.78,1.78,0,0,1-.85.66,1.88,1.88,0,0,1,1.24,1.81,2.19,2.19,0,0,1-.71,1.63A2.38,2.38,0,0,1,133.23,266.71Z"/><path class="cls-1" d="M144.4,266.69a3.57,3.57,0,0,1-1.45-.31,3.72,3.72,0,0,1-1.22-.83l.76-.88a2.85,2.85,0,0,0,.89.71,2.25,2.25,0,0,0,1.07.28,1.49,1.49,0,0,0,1-.33,1,1,0,0,0,.39-.82,1.36,1.36,0,0,0-1-1.27l-.91-.36a3.18,3.18,0,0,1-1.27-.83,1.78,1.78,0,0,1-.41-1.22,2,2,0,0,1,.63-1.46,2.19,2.19,0,0,1,1.58-.61,3.09,3.09,0,0,1,2.24.86l-.65.87a2.1,2.1,0,0,0-1.59-.7,1.21,1.21,0,0,0-.82.27.9.9,0,0,0-.32.72.85.85,0,0,0,.24.6,2.24,2.24,0,0,0,.78.47l.93.37a2.21,2.21,0,0,1,1.63,2.21,2.1,2.1,0,0,1-.69,1.63A2.58,2.58,0,0,1,144.4,266.69Z"/><path class="cls-1" d="M153.83,263.2h-3.18v2.36h3.4v1h-4.48v-7.73H154v1h-3.34v2.28h3.18Z"/><path class="cls-1" d="M156.72,266.59v-7.73h2.64a2.44,2.44,0,0,1,1.8.72,2.5,2.5,0,0,1,.72,1.84,2.44,2.44,0,0,1-.74,1.81,2.52,2.52,0,0,1-1.82.72H157.8v2.64Zm2.57-6.7H157.8v3h1.5a1.49,1.49,0,0,0,1.08-.41,1.47,1.47,0,0,0,.42-1.09,1.53,1.53,0,0,0-.43-1.1A1.5,1.5,0,0,0,159.29,259.89Z"/><path class="cls-1" d="M163.47,259.89v-1h6.26v1h-2.59v6.7h-1.08v-6.7Z"/><path class="cls-1" d="M176.14,263.2H173v2.36h3.4v1h-4.48v-7.73h4.42v1H173v2.28h3.18Z"/><path class="cls-1" d="M179,266.59v-7.73h1.11l2.49,4.12,2.53-4.12h1.06v7.73h-1.08v-5.71l0,0-2.49,4-2.44-3.94h-.06v5.67Z"/><path class="cls-1" d="M189.4,266.59v-7.73h2.37a2.45,2.45,0,0,1,1.7.6,2,2,0,0,1,.67,1.56,1.82,1.82,0,0,1-.92,1.66,2,2,0,0,1,.84.69,1.89,1.89,0,0,1,.3,1.05,2,2,0,0,1-.67,1.58,2.56,2.56,0,0,1-1.73.59Zm2.26-6.7h-1.18v2.35h1.38a1.17,1.17,0,0,0,.86-.34,1.19,1.19,0,0,0,.34-.89,1,1,0,0,0-.38-.81A1.57,1.57,0,0,0,191.66,259.89Zm.24,3.31h-1.42v2.36h1.35a1.58,1.58,0,0,0,1.06-.33,1.1,1.1,0,0,0,.4-.88,1.07,1.07,0,0,0-.36-.83A1.51,1.51,0,0,0,191.9,263.2Z"/><path class="cls-1" d="M201.34,263.2h-3.19v2.36h3.41v1h-4.49v-7.73h4.42v1h-3.34v2.28h3.19Z"/><path class="cls-1" d="M204.23,266.59v-7.73h2.87a2.42,2.42,0,0,1,1.74.67,2.31,2.31,0,0,1,.7,1.75,2.33,2.33,0,0,1-.57,1.61,2.29,2.29,0,0,1-1.48.76l2.23,2.94h-1.33l-2.22-2.95h-.86v2.95Zm2.73-6.7h-1.65v2.79H207a1.57,1.57,0,0,0,1.09-.38,1.41,1.41,0,0,0,0-2A1.57,1.57,0,0,0,207,259.89Z"/><path class="cls-1" d="M216.43,266.59v-7.73h1.08v3.67l3.23-3.67h1.44l-2.72,3.07,2.79,4.66h-1.34l-2.25-3.77-1.15,1.29v2.48Z"/><path class="cls-1" d="M224.6,266.59v-7.73h1.08v6.7h3.18v1Z"/><path class="cls-1" d="M236.29,266.59v-6.35l-1.45.74v-1l2.06-1.13h.47v7.77Z"/><path class="cls-1" d="M241.28,266.59v-6.35l-1.45.74v-1l2.06-1.13h.47v7.77Z"/><path class="cls-1" d="M245,263.22v-1h3v1Z"/><path class="cls-1" d="M250.94,266.59v-6.35l-1.45.74v-1l2.06-1.13H252v7.77Z"/><path class="cls-1" d="M256.81,266.71a2.37,2.37,0,0,1-1.68-.65,2.18,2.18,0,0,1-.73-1.58h1.09a1.11,1.11,0,0,0,.4.85,1.32,1.32,0,0,0,.9.35,1.3,1.3,0,0,0,1-.37,1.21,1.21,0,0,0,.38-.92,1.27,1.27,0,0,0-.37-.95,1.31,1.31,0,0,0-.94-.38h-.45v-1h.44a1.22,1.22,0,0,0,.9-.36,1.18,1.18,0,0,0,.35-.84,1.15,1.15,0,0,0-.35-.87,1.24,1.24,0,0,0-.91-.35,1.21,1.21,0,0,0-.89.36,1.15,1.15,0,0,0-.35.86h-1.08a2,2,0,0,1,.66-1.54,2.51,2.51,0,0,1,3.34,0,2,2,0,0,1,.66,1.55,1.7,1.7,0,0,1-.32,1,1.83,1.83,0,0,1-.85.66,1.86,1.86,0,0,1,1.23,1.81,2.18,2.18,0,0,1-.7,1.63A2.38,2.38,0,0,1,256.81,266.71Z"/></svg>