<svg id="Layer_1" data-name="Layer 1" xmlns="http://www.w3.org/2000/svg" viewBox="0 0 300 250"><defs><style>.cls-1{fill:#d4ac76;}</style></defs><title>text</title><path class="cls-1" d="M89.26,104.6H85.61v2.72h3.91v1.18H84.37V99.61h5.08v1.18H85.61v2.63h3.65Z"/><path class="cls-1" d="M92.6,108.5V99.61h1.24v7.71H97.5v1.18Z"/><path class="cls-1" d="M101.47,108.5,98,99.61h1.4l2.66,6.83,2.67-6.83h1.37l-3.47,8.89Z"/><path class="cls-1" d="M106.86,108.5l3.57-8.89h1.12l3.5,8.89h-1.37l-.54-1.37h-4.36l-.55,1.37Zm4.13-6.85-1.73,4.3h3.42Z"/><path class="cls-1" d="M128,108.5v-3.85h-4.32v3.85h-1.24V99.61h1.24v3.85H128V99.61h1.24v8.89Z"/><path class="cls-1" d="M136,108.65a3.1,3.1,0,0,1-2.32-.93,3.2,3.2,0,0,1-.91-2.35V99.61H134v5.69a2.31,2.31,0,0,0,.53,1.55,1.83,1.83,0,0,0,1.46.61,1.88,1.88,0,0,0,1.47-.6,2.23,2.23,0,0,0,.53-1.55v-5.7h1.25v5.76a3.24,3.24,0,0,1-.91,2.35A3.11,3.11,0,0,1,136,108.65Z"/><path class="cls-1" d="M145.11,108.62a4.11,4.11,0,0,1-1.66-.36,4.4,4.4,0,0,1-1.41-1l.88-1a3.45,3.45,0,0,0,1,.81,2.68,2.68,0,0,0,1.23.32,1.73,1.73,0,0,0,1.15-.38,1.18,1.18,0,0,0,.44-1,1.55,1.55,0,0,0-1.12-1.45l-1-.42a3.62,3.62,0,0,1-1.45-1,2.1,2.1,0,0,1-.48-1.41,2.24,2.24,0,0,1,.73-1.68,2.56,2.56,0,0,1,1.82-.69,3.61,3.61,0,0,1,2.58,1l-.75,1a2.46,2.46,0,0,0-1.83-.8,1.41,1.41,0,0,0-1,.31,1,1,0,0,0-.36.82,1,1,0,0,0,.27.69,2.28,2.28,0,0,0,.9.55l1.07.43A2.53,2.53,0,0,1,148,106a2.46,2.46,0,0,1-.79,1.87A3,3,0,0,1,145.11,108.62Z"/><path class="cls-1" d="M155.92,108.5V99.61h1.28l2.86,4.74L163,99.61h1.22v8.89H163v-6.57l0,0L160,106.5l-2.8-4.53h-.08v6.53Z"/><path class="cls-1" d="M172.74,104.6h-3.65v2.72H173v1.18h-5.16V99.61h5.09v1.18h-3.84v2.63h3.65Z"/><path class="cls-1" d="M176.08,108.5V99.61h2.38a4.42,4.42,0,0,1,4.4,4.43,4.36,4.36,0,0,1-4.45,4.46Zm2.43-7.71h-1.19v6.53h1.22a2.86,2.86,0,0,0,2.19-1,3.28,3.28,0,0,0,.89-2.32,3.17,3.17,0,0,0-.92-2.31A3,3,0,0,0,178.51,100.79Z"/><path class="cls-1" d="M196.41,108.5v-3.85h-4.32v3.85h-1.25V99.61h1.25v3.85h4.32V99.61h1.24v8.89Z"/><path class="cls-1" d="M205.26,108.66a4.4,4.4,0,0,1-3.21-1.31,4.79,4.79,0,0,1,0-6.6,4.56,4.56,0,0,1,6.41,0,4.76,4.76,0,0,1,0,6.58A4.4,4.4,0,0,1,205.26,108.66Zm-2.33-2.18a3.21,3.21,0,0,0,4.66,0,3.39,3.39,0,0,0,.95-2.43,3.35,3.35,0,0,0-1-2.42,3.18,3.18,0,0,0-4.65,0,3.57,3.57,0,0,0,0,4.85Zm1.5-7.81a.6.6,0,0,1-.45.19.58.58,0,0,1-.44-.19.73.73,0,0,1-.17-.49.72.72,0,0,1,.17-.48.58.58,0,0,1,.44-.19.6.6,0,0,1,.45.19.68.68,0,0,1,.18.48A.69.69,0,0,1,204.43,98.67Zm2.46,0a.6.6,0,0,1-.88,0,.69.69,0,0,1-.18-.49.68.68,0,0,1,.18-.48.6.6,0,0,1,.88,0,.68.68,0,0,1,.18.48A.69.69,0,0,1,206.89,98.67Z"/><path class="cls-1" d="M218.69,104.64v-1.19h2.95v.62a4.57,4.57,0,0,1-4.6,4.58,4.31,4.31,0,0,1-3.24-1.33,4.79,4.79,0,0,1,0-6.56A4.31,4.31,0,0,1,217,99.43a4.9,4.9,0,0,1,1.87.36,4.47,4.47,0,0,1,1.52,1l-.92.93a3.16,3.16,0,0,0-2.47-1.15,3.11,3.11,0,0,0-2.36,1,3.59,3.59,0,0,0,0,4.84,3.11,3.11,0,0,0,2.36,1,3.14,3.14,0,0,0,2.13-.77,3.32,3.32,0,0,0,1.12-2Z"/><path class="cls-1" d="M70.3,123.5v-8.89h1.24v4.22l3.71-4.22h1.66l-3.13,3.53L77,123.5H75.45l-2.58-4.34-1.33,1.49v2.85Z"/><path class="cls-1" d="M82.3,123.5l-3.47-8.89h1.4l2.66,6.83,2.67-6.83h1.37l-3.47,8.89Z"/><path class="cls-1" d="M87.69,123.5l3.57-8.89h1.12l3.5,8.89H94.51L94,122.13H89.61l-.55,1.37Zm4.13-6.85L90.09,121h3.42Z"/><path class="cls-1" d="M98.35,123.5v-8.89h1.24v7.71h3.66v1.18Z"/><path class="cls-1" d="M106,123.5v-8.89h1.25v8.89Z"/><path class="cls-1" d="M109.69,115.79v-1.18h7.2v1.18h-3v7.71h-1.24v-7.71Z"/><path class="cls-1" d="M124.26,119.6H120.6v2.72h3.91v1.18h-5.15v-8.89h5.08v1.18H120.6v2.63h3.66Z"/><path class="cls-1" d="M126.65,115.79v-1.18h7.2v1.18h-3v7.71h-1.24v-7.71Z"/><path class="cls-1" d="M140.42,115.79v-1.18h7.2v1.18h-3v7.71H143.4v-7.71Z"/><path class="cls-1" d="M150.09,123.5v-8.89h1.24v8.89Z"/><path class="cls-1" d="M155,123.5v-8.89h1.24v7.71h3.66v1.18Z"/><path class="cls-1" d="M162.6,123.5v-8.89h1.24v7.71h3.66v1.18Z"/><path class="cls-1" d="M175,123.5v-8.89h2.72a2.84,2.84,0,0,1,2,.69,2.31,2.31,0,0,1,.77,1.79,2.09,2.09,0,0,1-1.06,1.91,2.28,2.28,0,0,1,1,.8,2.07,2.07,0,0,1,.36,1.2,2.32,2.32,0,0,1-.78,1.82,2.93,2.93,0,0,1-2,.68Zm2.59-7.71h-1.35v2.71h1.59a1.3,1.3,0,0,0,1-.4,1.35,1.35,0,0,0,.4-1,1.14,1.14,0,0,0-.44-.93A1.83,1.83,0,0,0,177.62,115.79Zm.28,3.81h-1.63v2.72h1.55a1.85,1.85,0,0,0,1.22-.38,1.29,1.29,0,0,0,.45-1,1.2,1.2,0,0,0-.41-1A1.67,1.67,0,0,0,177.9,119.6Z"/><path class="cls-1" d="M183.85,123.5v-8.89h3.3a2.78,2.78,0,0,1,2,.77,2.75,2.75,0,0,1-1.56,4.74l2.58,3.38h-1.53l-2.56-3.39h-1v3.39Zm3.14-7.71h-1.9V119H187a1.76,1.76,0,0,0,1.26-.44,1.59,1.59,0,0,0,0-2.3A1.74,1.74,0,0,0,187,115.79Z"/><path class="cls-1" d="M192,123.5l3.57-8.89h1.13l3.5,8.89h-1.38l-.53-1.37h-4.36l-.55,1.37Zm4.13-6.85-1.72,4.3h3.41Z"/><path class="cls-1" d="M207.62,123.5v-8.89h3a2.8,2.8,0,0,1,2.06.83,2.86,2.86,0,0,1,.82,2.11,2.79,2.79,0,0,1-.84,2.08,2.87,2.87,0,0,1-2.09.83h-1.75v3Zm2.95-7.71h-1.71v3.49h1.72a1.65,1.65,0,0,0,1.72-1.73,1.73,1.73,0,0,0-.49-1.26A1.67,1.67,0,0,0,210.57,115.79Z"/><path class="cls-1" d="M216.49,123.5v-8.89h3.3a2.79,2.79,0,0,1,2,.77,2.66,2.66,0,0,1,.8,2,2.63,2.63,0,0,1-2.36,2.73l2.57,3.38h-1.53l-2.55-3.39h-1v3.39Zm3.13-7.71h-1.89V119h1.88a1.78,1.78,0,0,0,1.26-.44,1.5,1.5,0,0,0,.48-1.17,1.48,1.48,0,0,0-.49-1.13A1.72,1.72,0,0,0,219.62,115.79Z"/><path class="cls-1" d="M225.71,123.5v-8.89H227v8.89Z"/><path class="cls-1" d="M232.77,123.62a4.12,4.12,0,0,1-1.67-.36,4.52,4.52,0,0,1-1.41-1l.88-1a3.45,3.45,0,0,0,1,.81,2.68,2.68,0,0,0,1.23.32,1.71,1.71,0,0,0,1.15-.38,1.19,1.19,0,0,0,.45-1,1.56,1.56,0,0,0-1.13-1.45l-1-.42a3.69,3.69,0,0,1-1.45-1,2.1,2.1,0,0,1-.48-1.41,2.28,2.28,0,0,1,.73-1.68,2.56,2.56,0,0,1,1.82-.69,3.61,3.61,0,0,1,2.58,1l-.75,1a2.46,2.46,0,0,0-1.83-.8,1.37,1.37,0,0,0-.94.31,1,1,0,0,0-.37.82,1,1,0,0,0,.27.69,2.44,2.44,0,0,0,.9.55l1.07.43a2.53,2.53,0,0,1,1.87,2.54,2.43,2.43,0,0,1-.79,1.87A3,3,0,0,1,232.77,123.62Z"/></svg>