<svg id="Layer_1" data-name="Layer 1" xmlns="http://www.w3.org/2000/svg" viewBox="0 0 320 320"><defs><style>.cls-1{fill:#d80201;}</style></defs><title>text</title><path class="cls-1" d="M79.47,247.12a2.86,2.86,0,0,1-2.89-2.41l1-.28a1.9,1.9,0,0,0,1.9,1.71,1.84,1.84,0,0,0,1.88-1.85c0-2.2-4.31-1.68-4.31-4.43a2.47,2.47,0,0,1,2.62-2.41,2.66,2.66,0,0,1,2.41,1.46l-.83.55a1.73,1.73,0,0,0-1.6-1,1.48,1.48,0,0,0-1.56,1.43c0,1.93,4.31,1.37,4.31,4.38A2.88,2.88,0,0,1,79.47,247.12Z"/><path class="cls-1" d="M87.67,247l-2.35-2.65-.25.25V247h-1V236.74h1v6.54l2.11-2.14h1.33L86,243.61,89,247Z"/><path class="cls-1" d="M92,247.33l-2.86-6.19h1.12L92,245l1.72-3.91h1.12Z"/><path class="cls-1" d="M100.13,247v-.81a2.48,2.48,0,0,1-2,1,2.88,2.88,0,0,1-2.8-3.1,2.83,2.83,0,0,1,2.79-3,2.46,2.46,0,0,1,2,1v-.83h1V247Zm-1.88-5.06A2,2,0,0,0,96.34,244a2,2,0,0,0,1.92,2.19,2,2,0,0,0,1.93-2.19A2,2,0,0,0,98.26,241.9Z"/><path class="cls-1" d="M107.47,247v-.81a2.48,2.48,0,0,1-2,1,2.88,2.88,0,0,1-2.8-3.08,2.85,2.85,0,0,1,2.79-3,2.5,2.5,0,0,1,2,1v-5.22h1V247Zm-1.88-5a2.16,2.16,0,1,0,1.93,2.12A2,2,0,0,0,105.59,241.91Z"/><path class="cls-1" d="M113.1,242.15a.88.88,0,0,0-.59-.2,1.08,1.08,0,0,0-.5.13c-.64.35-.64,1.18-.64,1.81V247h-1v-5.81h1v.63a1.55,1.55,0,0,1,1.32-.77,1.65,1.65,0,0,1,.9.24Z"/><path class="cls-1" d="M117,247.12a3.06,3.06,0,1,1,3.07-3.05A3,3,0,0,1,117,247.12Zm0-5.21a2.15,2.15,0,1,0,2.06,2.16A2,2,0,0,0,117,241.91Z"/><path class="cls-1" d="M125.23,247v-3.43c0-.91-.13-1.62-1.22-1.62-1.29,0-1.44,1.12-1.44,2.14V247h-1v-5.81h1v.7a2.11,2.11,0,0,1,3.33,0,2.66,2.66,0,0,1,.34,1.54V247Z"/><path class="cls-1" d="M130.16,247.33l-2.86-6.19h1.12l1.74,3.91,1.72-3.91H133Z"/><path class="cls-1" d="M138.51,247v-.81a2.48,2.48,0,0,1-2,1,2.88,2.88,0,0,1-2.8-3.1,2.83,2.83,0,0,1,2.79-3,2.46,2.46,0,0,1,2,1v-.83h1V247Zm-1.88-5.06a2,2,0,0,0-1.92,2.13,2,2,0,0,0,1.92,2.19,2,2,0,0,0,1.93-2.19A2,2,0,0,0,136.63,241.9Zm-1.16-1.95a.71.71,0,0,1-.7-.7.7.7,0,1,1,.7.7Zm2.44,0a.71.71,0,0,1-.7-.7.7.7,0,1,1,.7.7Z"/><path class="cls-1" d="M146.29,249.11a2.82,2.82,0,0,1-2.33,1.08,2.62,2.62,0,0,1-2.83-2.66h1a1.74,1.74,0,0,0,1.85,1.76c1.4,0,1.86-1.05,1.86-2.3v-.85a2.63,2.63,0,0,1-2,1,3.07,3.07,0,0,1,0-6.11,2.49,2.49,0,0,1,2,1v-.81h1v5.69A3.54,3.54,0,0,1,146.29,249.11ZM144,241.9a2,2,0,0,0-1.91,2.2,2,2,0,0,0,1.91,2.12,2.17,2.17,0,0,0,0-4.31Z"/><path class="cls-1" d="M149.42,244.25a1.88,1.88,0,0,0,1.85,2,2,2,0,0,0,1.79-1.21l.84.46a2.9,2.9,0,0,1-2.66,1.65,3.07,3.07,0,0,1-.06-6.12,2.78,2.78,0,0,1,2.77,3.05v.2Zm1.79-2.34a1.78,1.78,0,0,0-1.72,1.5h3.42A1.74,1.74,0,0,0,151.22,241.91Z"/><path class="cls-1" d="M159.14,247v-3.43c0-.91-.13-1.62-1.22-1.62-1.29,0-1.44,1.12-1.44,2.14V247h-1v-5.81h1v.7a2.11,2.11,0,0,1,3.33,0,2.66,2.66,0,0,1,.34,1.54V247Z"/><path class="cls-1" d="M169.33,243.8,167.41,246h3.92v1h-6l3.4-3.94c.63-.73,1.61-1.78,1.61-2.79a1.86,1.86,0,0,0-3.73.11h-1.05a3.86,3.86,0,0,1,.2-1,2.92,2.92,0,0,1,5.62,1C171.35,241.64,170.2,242.82,169.33,243.8Z"/><path class="cls-1" d="M179,242.76l-3.18,4.41-.79-.57,2.16-3a2.93,2.93,0,0,1-.85.13,3,3,0,0,1-3-3.07,3.22,3.22,0,0,1,6.44,0A3.75,3.75,0,0,1,179,242.76Zm-2.44-4.34a2.19,2.19,0,1,0,2.2,2.2A2.19,2.19,0,0,0,176.52,238.42Z"/><path class="cls-1" d="M181.47,249.08l-.66-.27,1.15-3.24.92.34Z"/><path class="cls-1" d="M191,247.51l-3.78-9.9h1.13l2.66,7.13,2.65-7.13h1.12Z"/><path class="cls-1" d="M199.67,247v-.81a2.48,2.48,0,0,1-2,1,2.88,2.88,0,0,1-2.8-3.1,2.83,2.83,0,0,1,2.79-3,2.46,2.46,0,0,1,2,1v-.83h1V247Zm-1.88-5.06a2,2,0,0,0-1.92,2.13,2,2,0,0,0,1.92,2.19,2,2,0,0,0,1.93-2.19A2,2,0,0,0,197.79,241.9Z"/><path class="cls-1" d="M202.57,247V236.74h1V247Z"/><path class="cls-1" d="M205.46,247V236.74h1V247Z"/><path class="cls-1" d="M209,244.25a1.88,1.88,0,0,0,1.85,2,2,2,0,0,0,1.79-1.21l.84.46a2.9,2.9,0,0,1-2.66,1.65,3.07,3.07,0,0,1-.06-6.12,2.78,2.78,0,0,1,2.77,3.05v.2Zm1.79-2.34a1.78,1.78,0,0,0-1.72,1.5h3.42A1.74,1.74,0,0,0,210.83,241.91Z"/><path class="cls-1" d="M218.75,247v-3.43c0-.91-.13-1.62-1.22-1.62-1.29,0-1.44,1.12-1.44,2.14V247h-1v-5.81h1v.7a2.11,2.11,0,0,1,3.33,0,2.66,2.66,0,0,1,.34,1.54V247Z"/><path class="cls-1" d="M222.67,242.06V247h-1v-4.89h-.6v-.92h.6V239h1v2.1h1v.92Z"/><path class="cls-1" d="M228.75,246.39a2.54,2.54,0,0,1-3.56,0,2.38,2.38,0,0,1-.53-1.75v-3.5h1v3.39a2.23,2.23,0,0,0,.18,1.09,1.37,1.37,0,0,0,2.25,0,2.25,2.25,0,0,0,.18-1.09v-3.39h1v3.5A2.37,2.37,0,0,1,228.75,246.39Z"/><path class="cls-1" d="M234.82,247v-3.43c0-.91-.13-1.62-1.22-1.62-1.29,0-1.44,1.12-1.44,2.14V247h-1v-5.81h1v.7a2,2,0,0,1,1.68-.84,2,2,0,0,1,1.65.8,2.66,2.66,0,0,1,.34,1.54V247Z"/><path class="cls-1" d="M242.17,247v-.81a2.48,2.48,0,0,1-2,1,2.88,2.88,0,0,1-2.8-3.1,2.83,2.83,0,0,1,2.79-3,2.46,2.46,0,0,1,2,1v-.83h1V247Zm-1.88-5.06a2,2,0,0,0-1.92,2.13,2,2,0,0,0,1.92,2.19,2,2,0,0,0,1.93-2.19A2,2,0,0,0,240.3,241.9Z"/><path class="cls-1" d="M64.41,271.12a2.86,2.86,0,0,1-2.89-2.41l1-.28a1.9,1.9,0,0,0,1.9,1.71,1.85,1.85,0,0,0,1.88-1.85c0-2.2-4.31-1.68-4.31-4.43a2.47,2.47,0,0,1,2.62-2.41A2.66,2.66,0,0,1,67,262.91l-.83.55a1.73,1.73,0,0,0-1.6-1,1.48,1.48,0,0,0-1.56,1.43c0,1.93,4.31,1.37,4.31,4.38A2.88,2.88,0,0,1,64.41,271.12Z"/><path class="cls-1" d="M71.72,271.12a3.06,3.06,0,1,1,3.07-3.05A3,3,0,0,1,71.72,271.12Zm0-5.21a2.15,2.15,0,1,0,2.06,2.16A2,2,0,0,0,71.71,265.91Zm-1.2-2a.71.71,0,0,1-.7-.7.7.7,0,1,1,.7.7Zm2.44,0a.71.71,0,0,1-.7-.7.7.7,0,1,1,.7.7Z"/><path class="cls-1" d="M80,271v-3.43c0-.91-.13-1.62-1.22-1.62-1.29,0-1.44,1.12-1.44,2.14V271h-1v-5.81h1v.7a2.11,2.11,0,0,1,3.33,0,2.66,2.66,0,0,1,.34,1.54V271Z"/><path class="cls-1" d="M87.32,271v-.81a2.48,2.48,0,0,1-2,1A2.88,2.88,0,0,1,82.5,268a2.85,2.85,0,0,1,2.79-3,2.5,2.5,0,0,1,2,1v-5.22h1V271Zm-1.88-5A2.16,2.16,0,1,0,87.37,268,2,2,0,0,0,85.44,265.91Z"/><path class="cls-1" d="M94.65,271v-.81a2.48,2.48,0,0,1-2,1,2.88,2.88,0,0,1-2.8-3.1,2.83,2.83,0,0,1,2.79-3,2.46,2.46,0,0,1,2,1v-.83h1V271Zm-1.88-5.06A2,2,0,0,0,90.86,268a2,2,0,0,0,1.92,2.19A2,2,0,0,0,94.71,268,2,2,0,0,0,92.78,265.9Z"/><path class="cls-1" d="M102.44,273.11a2.82,2.82,0,0,1-2.33,1.08,2.62,2.62,0,0,1-2.83-2.66h1a1.74,1.74,0,0,0,1.85,1.76c1.4,0,1.86-1.05,1.86-2.3v-.85a2.63,2.63,0,0,1-2,1,3.07,3.07,0,0,1,0-6.11,2.49,2.49,0,0,1,2,1v-.81h1v5.69A3.54,3.54,0,0,1,102.44,273.11Zm-2.34-7.21a2,2,0,0,0-1.91,2.2,2,2,0,0,0,1.91,2.12,2.17,2.17,0,0,0,0-4.31Z"/><path class="cls-1" d="M112.18,267.8,110.26,270h3.92v1h-6l3.4-3.94c.63-.73,1.61-1.78,1.61-2.79a1.86,1.86,0,0,0-3.73.11h-1.05a3.86,3.86,0,0,1,.2-1,2.92,2.92,0,0,1,5.62,1C114.2,265.64,113,266.82,112.18,267.8Z"/><path class="cls-1" d="M119.43,271.11a2.74,2.74,0,0,1-2.86-2.73,2.44,2.44,0,0,1,1.39-2.28,2.34,2.34,0,0,1-1.13-2,2.61,2.61,0,0,1,5.22,0,2.43,2.43,0,0,1-1.18,2.06,2.42,2.42,0,0,1,1.36,2.26A2.71,2.71,0,0,1,119.43,271.11Zm0-4.54a1.79,1.79,0,1,0,1.81,1.78A1.79,1.79,0,0,0,119.4,266.57Zm0-4.15a1.63,1.63,0,1,0,1.62,1.63A1.63,1.63,0,0,0,119.43,262.42Z"/><path class="cls-1" d="M128.28,263.66a.71.71,0,1,1,.71-.71A.72.72,0,0,1,128.28,263.66Zm-.5,10.58v-9.09h1v9.09Z"/><path class="cls-1" d="M135.13,271v-.81a2.48,2.48,0,0,1-2,1,2.88,2.88,0,0,1-2.8-3.1,2.83,2.83,0,0,1,2.79-3,2.46,2.46,0,0,1,2,1v-.83h1V271Zm-1.88-5.06a2,2,0,0,0-1.92,2.13,2,2,0,0,0,1.92,2.19,2,2,0,0,0,1.93-2.19A2,2,0,0,0,133.25,265.9Z"/><path class="cls-1" d="M141.68,271v-3.43c0-.91-.13-1.62-1.22-1.62-1.29,0-1.44,1.12-1.44,2.14V271h-1v-5.81h1v.7a2.11,2.11,0,0,1,3.33,0,2.66,2.66,0,0,1,.34,1.54V271Z"/><path class="cls-1" d="M147.6,266.75v-.92h6.08v.92Z"/><path class="cls-1" d="M159.26,268.25a1.88,1.88,0,0,0,1.85,2A2,2,0,0,0,162.9,269l.84.46a2.9,2.9,0,0,1-2.66,1.65A3.07,3.07,0,0,1,161,265a2.78,2.78,0,0,1,2.77,3.05v.2Zm1.79-2.34a1.78,1.78,0,0,0-1.72,1.5h3.42A1.74,1.74,0,0,0,161.05,265.91Z"/><path class="cls-1" d="M169,271v-3.43c0-.91-.13-1.62-1.22-1.62-1.29,0-1.44,1.12-1.44,2.14V271h-1v-5.81h1v.7A2,2,0,0,1,168,265a2,2,0,0,1,1.65.8,2.66,2.66,0,0,1,.34,1.54V271Z"/><path class="cls-1" d="M176.33,271v-.81a2.48,2.48,0,0,1-2,1,2.88,2.88,0,0,1-2.8-3.08,2.85,2.85,0,0,1,2.79-3,2.5,2.5,0,0,1,2,1v-5.22h1V271Zm-1.88-5a2.16,2.16,0,1,0,1.93,2.12A2,2,0,0,0,174.45,265.91Z"/><path class="cls-1" d="M183.66,271v-.81a2.48,2.48,0,0,1-2,1,2.88,2.88,0,0,1-2.8-3.1,2.83,2.83,0,0,1,2.79-3,2.46,2.46,0,0,1,2,1v-.83h1V271Zm-1.88-5.06a2,2,0,0,0-1.92,2.13,2,2,0,0,0,1.92,2.19,2,2,0,0,0,1.93-2.19A2,2,0,0,0,181.79,265.9Z"/><path class="cls-1" d="M188.13,271.12a2.07,2.07,0,0,1-2-1.49l.87-.36c.24.52.56.94,1.18.94a.9.9,0,0,0,1-.91c0-1.26-2.62-.87-2.62-2.67a1.63,1.63,0,0,1,1.69-1.62,1.74,1.74,0,0,1,1.6,1l-.83.43a.93.93,0,0,0-.81-.57.69.69,0,0,0-.7.64c0,1,2.69.76,2.69,2.66A1.91,1.91,0,0,1,188.13,271.12Z"/><path class="cls-1" d="M192.47,266.06V271h-1v-4.89h-.6v-.92h.6V263h1v2.1h1v.92Z"/><path class="cls-1" d="M198.95,266.06V271h-1v-4.89h-.55v-.92H198v-2.48a3.34,3.34,0,0,1,.15-1.12,1.62,1.62,0,0,1,1.57-1,2.55,2.55,0,0,1,.73.13v1a1.79,1.79,0,0,0-.66-.14c-.73,0-.8.55-.8,1.13v2.44h1.46v.92Z"/><path class="cls-1" d="M204,271.12a3.06,3.06,0,1,1,3.07-3.05A3,3,0,0,1,204,271.12Zm0-5.21a2.15,2.15,0,1,0,2.06,2.16A2,2,0,0,0,204,265.91Zm-1.2-2a.71.71,0,0,1-.7-.7.7.7,0,1,1,.7.7Zm2.44,0a.71.71,0,0,1-.7-.7.7.7,0,1,1,.7.7Z"/><path class="cls-1" d="M211.32,266.15a.87.87,0,0,0-.59-.2,1.08,1.08,0,0,0-.5.13c-.64.35-.64,1.18-.64,1.81V271h-1v-5.81h1v.63a1.55,1.55,0,0,1,1.32-.77,1.66,1.66,0,0,1,.9.24Z"/><path class="cls-1" d="M217,271v-.81a2.48,2.48,0,0,1-2,1,2.88,2.88,0,0,1-2.8-3.1,2.83,2.83,0,0,1,2.79-3,2.46,2.46,0,0,1,2,1v-.83h1V271Zm-1.88-5.06a2,2,0,0,0-1.92,2.13,2,2,0,0,0,1.92,2.19,2,2,0,0,0,1.93-2.19A2,2,0,0,0,215.13,265.9Z"/><path class="cls-1" d="M223.56,271v-3.43c0-.91-.13-1.62-1.22-1.62-1.29,0-1.44,1.12-1.44,2.14V271h-1v-5.81h1v.7a2,2,0,0,1,1.68-.84,2,2,0,0,1,1.65.8,2.66,2.66,0,0,1,.34,1.54V271Z"/><path class="cls-1" d="M233.1,271v-3.53c0-.74-.13-1.53-1.05-1.53s-1.25,1-1.25,1.82V271h-1v-3.45c0-.73-.15-1.61-1.06-1.61a1.2,1.2,0,0,0-1.05.63,2.76,2.76,0,0,0-.22,1.26V271h-1v-5.81h1v.62a1.66,1.66,0,0,1,1.44-.76,1.77,1.77,0,0,1,1.6.94,2,2,0,0,1,3.26-.15,2.72,2.72,0,0,1,.32,1.48V271Z"/><path class="cls-1" d="M240.43,271v-.81a2.48,2.48,0,0,1-2,1,2.88,2.88,0,0,1-2.8-3.1,2.83,2.83,0,0,1,2.79-3,2.46,2.46,0,0,1,2,1v-.83h1V271Zm-1.88-5.06a2,2,0,0,0-1.92,2.13,2,2,0,0,0,1.92,2.19,2,2,0,0,0,1.93-2.19A2,2,0,0,0,238.56,265.9Zm-1.16-1.95a.71.71,0,0,1-.7-.7.7.7,0,1,1,.7.7Zm2.44,0a.71.71,0,0,1-.7-.7.7.7,0,1,1,.7.7Z"/><path class="cls-1" d="M243.33,271V260.74h1V271Z"/><path class="cls-1" d="M250.67,271v-.81a2.48,2.48,0,0,1-2,1,2.88,2.88,0,0,1-2.8-3.1,2.83,2.83,0,0,1,2.79-3,2.46,2.46,0,0,1,2,1v-.83h1V271Zm-1.88-5.06a2,2,0,0,0-1.92,2.13,2,2,0,0,0,1.92,2.19,2,2,0,0,0,1.93-2.19A2,2,0,0,0,248.79,265.9Z"/><path class="cls-1" d="M257.22,271v-3.43c0-.91-.13-1.62-1.22-1.62-1.29,0-1.44,1.12-1.44,2.14V271h-1v-5.81h1v.7a2,2,0,0,1,1.68-.84,2,2,0,0,1,1.65.8,2.66,2.66,0,0,1,.34,1.54V271Z"/></svg>