<svg id="Layer_1" data-name="Layer 1" xmlns="http://www.w3.org/2000/svg" viewBox="0 0 320 320"><defs><style>.cls-1{fill:#d4ac76;}</style></defs><title>text</title><path class="cls-1" d="M47.38,245.22v-1.13h6.89v1.13H51.42v7.37H50.23v-7.37Z"/><path class="cls-1" d="M56.63,252.59v-8.5h3.16a2.7,2.7,0,0,1,1.92.74,2.77,2.77,0,0,1,.13,3.69,2.49,2.49,0,0,1-1.63.84l2.46,3.23H61.21l-2.44-3.24h-1v3.24Zm3-7.37H57.82v3.07h1.8a1.69,1.69,0,0,0,1.2-.42,1.43,1.43,0,0,0,.47-1.12,1.46,1.46,0,0,0-.47-1.09A1.68,1.68,0,0,0,59.63,245.22Z"/><path class="cls-1" d="M69.68,244.09h1.38l-2.83,5.08v3.42H67v-3.38l-2.86-5.12H65.6l2.06,3.77Z"/><path class="cls-1" d="M78.37,248.89v-1.13H81.2v.6a4.37,4.37,0,0,1-4.4,4.37,4.15,4.15,0,0,1-3.1-1.27,4.57,4.57,0,0,1,0-6.28,4.18,4.18,0,0,1,3.1-1.27,4.51,4.51,0,0,1,1.79.36,4.27,4.27,0,0,1,1.45,1l-.88.9a3.09,3.09,0,0,0-4.62-.14,3.43,3.43,0,0,0,0,4.63,3,3,0,0,0,2.26,1,3.07,3.07,0,0,0,2-.74,3.21,3.21,0,0,0,1.07-2Z"/><path class="cls-1" d="M82.77,252.59l3.42-8.5h1.07l3.35,8.5H89.3l-.52-1.31H84.61l-.52,1.31Zm4-6.55-1.65,4.11h3.27Z"/><path class="cls-1" d="M93,252.59v-8.5h3.15a2.66,2.66,0,0,1,1.92.74,2.55,2.55,0,0,1,.77,1.92,2.52,2.52,0,0,1-.64,1.77,2.47,2.47,0,0,1-1.62.84L99,252.59H97.54l-2.44-3.24h-.94v3.24Zm3-7.37H94.16v3.07H96a1.72,1.72,0,0,0,1.2-.42,1.55,1.55,0,0,0,0-2.21A1.67,1.67,0,0,0,96,245.22Z"/><path class="cls-1" d="M101.79,252.59v-8.5h.83l4.6,5.86v-5.86h1.19v8.5h-.66L103,246.52v6.07Z"/><path class="cls-1" d="M114,252.7a3.89,3.89,0,0,1-1.59-.34,4.17,4.17,0,0,1-1.35-.91l.84-1a3.19,3.19,0,0,0,1,.78,2.56,2.56,0,0,0,1.17.31,1.64,1.64,0,0,0,1.1-.36,1.14,1.14,0,0,0,.43-.91,1.49,1.49,0,0,0-1.08-1.39l-1-.4a3.46,3.46,0,0,1-1.39-.91,2,2,0,0,1-.46-1.35,2.15,2.15,0,0,1,.7-1.61,2.45,2.45,0,0,1,1.74-.66,3.46,3.46,0,0,1,2.47.94l-.72,1a2.34,2.34,0,0,0-1.75-.77,1.32,1.32,0,0,0-.9.3,1,1,0,0,0-.35.79.91.91,0,0,0,.25.65,2.41,2.41,0,0,0,.87.53l1,.41a2.43,2.43,0,0,1,1.79,2.43,2.31,2.31,0,0,1-.76,1.79A2.85,2.85,0,0,1,114,252.7Z"/><path class="cls-1" d="M121.92,252.59l-3.32-8.5h1.33l2.55,6.53,2.55-6.53h1.31l-3.32,8.5Z"/><path class="cls-1" d="M127.07,252.59l3.41-8.5h1.08l3.35,8.5h-1.32l-.51-1.31h-4.17l-.53,1.31Zm3.07-9.4a.58.58,0,0,1-.42.18.54.54,0,0,1-.42-.18.65.65,0,0,1-.17-.47.64.64,0,0,1,.17-.46.54.54,0,0,1,.42-.18.58.58,0,0,1,.42.18.64.64,0,0,1,.17.46A.65.65,0,0,1,130.14,243.19ZM131,246l-1.65,4.11h3.26Zm1.48-2.85a.58.58,0,0,1-.43.18.56.56,0,0,1-.42-.18.7.7,0,0,1-.17-.47.69.69,0,0,1,.17-.46.56.56,0,0,1,.42-.18.58.58,0,0,1,.43.18.69.69,0,0,1,.17.46A.7.7,0,0,1,132.5,243.19Z"/><path class="cls-1" d="M142.41,248.89v-1.13h2.83v.6a4.37,4.37,0,0,1-4.4,4.37,4.15,4.15,0,0,1-3.1-1.27,4.6,4.6,0,0,1,0-6.28,4.18,4.18,0,0,1,3.1-1.27,4.51,4.51,0,0,1,1.79.36,4.42,4.42,0,0,1,1.46,1l-.88.9a3,3,0,0,0-2.37-1.11,3,3,0,0,0-2.25,1,3.4,3.4,0,0,0,0,4.63,3,3,0,0,0,2.25,1,3,3,0,0,0,2-.74,3.21,3.21,0,0,0,1.07-2Z"/><path class="cls-1" d="M152.85,248.86h-3.5v2.6h3.74v1.13h-4.92v-8.5H153v1.13h-3.68v2.51h3.5Z"/><path class="cls-1" d="M156,252.59v-8.5h.83l4.61,5.86v-5.86h1.18v8.5H162l-4.78-6.07v6.07Z"/><path class="cls-1" d="M171.78,252.59v-7l-1.59.81v-1.13l2.25-1.25H173v8.55Z"/><path class="cls-1" d="M176.3,252.59v-8.5h2.61a2.72,2.72,0,0,1,1.87.66,2.18,2.18,0,0,1,.74,1.71,2,2,0,0,1-1,1.83,2.18,2.18,0,0,1,.91.76,2,2,0,0,1,.34,1.15,2.23,2.23,0,0,1-.74,1.74,2.81,2.81,0,0,1-1.9.65Zm2.48-7.37h-1.29v2.59H179a1.29,1.29,0,0,0,.94-.38,1.33,1.33,0,0,0,.38-1,1.09,1.09,0,0,0-.42-.89A1.75,1.75,0,0,0,178.78,245.22Zm.27,3.64h-1.56v2.6H179a1.76,1.76,0,0,0,1.17-.36,1.22,1.22,0,0,0,.43-1,1.18,1.18,0,0,0-.39-.91A1.66,1.66,0,0,0,179.05,248.86Z"/><path class="cls-1" d="M183.55,254.15l1-2.72,1.09.38-1.34,2.62Z"/><path class="cls-1" d="M192.16,252.59l3.41-8.5h1.07l3.35,8.5h-1.31l-.52-1.31H194l-.53,1.31ZM196.1,246l-1.65,4.11h3.27Zm.82-2.53a1.12,1.12,0,0,1-.82.34,1.15,1.15,0,0,1-.82-.34,1.12,1.12,0,0,1-.33-.82,1.13,1.13,0,0,1,1.15-1.15,1.14,1.14,0,0,1,1.16,1.15A1.09,1.09,0,0,1,196.92,243.51Zm-.82-.35a.42.42,0,0,0,.33-.14.46.46,0,0,0,0-.66.46.46,0,0,0-.66,0,.46.46,0,0,0,0,.66A.42.42,0,0,0,196.1,243.16Z"/><path class="cls-1" d="M202.35,252.59v-8.5h1.19v4l3.54-4h1.6l-3,3.37,3.07,5.13h-1.47l-2.47-4.15-1.27,1.43v2.72Z"/><path class="cls-1" d="M216,248.86h-3.5v2.6h3.74v1.13h-4.93v-8.5h4.86v1.13h-3.67v2.51H216Z"/><path class="cls-1" d="M219.21,252.59v-8.5h3.16a2.7,2.7,0,0,1,1.92.74,2.77,2.77,0,0,1,.13,3.69,2.49,2.49,0,0,1-1.63.84l2.46,3.23h-1.46l-2.44-3.24h-.95v3.24Zm3-7.37H220.4v3.07h1.8a1.7,1.7,0,0,0,1.2-.42,1.43,1.43,0,0,0,.47-1.12,1.46,1.46,0,0,0-.47-1.09A1.68,1.68,0,0,0,222.21,245.22Z"/><path class="cls-1" d="M230.14,252.7a3.92,3.92,0,0,1-1.59-.34,4.4,4.4,0,0,1-1.35-.91l.84-1a3.31,3.31,0,0,0,1,.78,2.6,2.6,0,0,0,1.18.31,1.66,1.66,0,0,0,1.1-.36,1.16,1.16,0,0,0,.42-.91,1.49,1.49,0,0,0-1.07-1.39l-1-.4a3.54,3.54,0,0,1-1.39-.91,2,2,0,0,1-.46-1.35,2.16,2.16,0,0,1,.71-1.61,2.41,2.41,0,0,1,1.73-.66,3.44,3.44,0,0,1,2.47.94l-.71,1a2.38,2.38,0,0,0-1.76-.77,1.32,1.32,0,0,0-.9.3,1,1,0,0,0-.35.79.92.92,0,0,0,.26.65,2.36,2.36,0,0,0,.86.53l1,.41a2.42,2.42,0,0,1,1.79,2.43,2.34,2.34,0,0,1-.75,1.79A2.86,2.86,0,0,1,230.14,252.7Z"/><path class="cls-1" d="M235.82,252.59v-8.5h2.61a2.72,2.72,0,0,1,1.87.66,2.18,2.18,0,0,1,.74,1.71,2,2,0,0,1-1,1.83,2.18,2.18,0,0,1,.91.76,2,2,0,0,1,.34,1.15,2.23,2.23,0,0,1-.74,1.74,2.81,2.81,0,0,1-1.9.65Zm2.48-7.37H237v2.59h1.52a1.29,1.29,0,0,0,.94-.38,1.33,1.33,0,0,0,.38-1,1.09,1.09,0,0,0-.42-.89A1.75,1.75,0,0,0,238.3,245.22Zm.27,3.64H237v2.6h1.48a1.76,1.76,0,0,0,1.17-.36,1.22,1.22,0,0,0,.43-1,1.18,1.18,0,0,0-.39-.91A1.66,1.66,0,0,0,238.57,248.86Z"/><path class="cls-1" d="M249,248.86h-3.5v2.6h3.74v1.13h-4.93v-8.5h4.86v1.13h-3.67v2.51H249Z"/><path class="cls-1" d="M252.14,252.59v-8.5h3.15a2.68,2.68,0,0,1,1.92.74,2.55,2.55,0,0,1,.77,1.92,2.52,2.52,0,0,1-.64,1.77,2.47,2.47,0,0,1-1.62.84l2.46,3.23h-1.47l-2.44-3.24h-.94v3.24Zm3-7.37h-1.81v3.07h1.79a1.73,1.73,0,0,0,1.21-.42,1.43,1.43,0,0,0,.46-1.12,1.46,1.46,0,0,0-.47-1.09A1.67,1.67,0,0,0,255.14,245.22Z"/><path class="cls-1" d="M266.38,248.89v-1.13h2.83v.6a4.37,4.37,0,0,1-4.4,4.37,4.15,4.15,0,0,1-3.1-1.27,4.57,4.57,0,0,1,0-6.28,4.18,4.18,0,0,1,3.1-1.27,4.51,4.51,0,0,1,1.79.36,4.27,4.27,0,0,1,1.45,1l-.88.9a3.09,3.09,0,0,0-4.62-.14,3.43,3.43,0,0,0,0,4.63,3,3,0,0,0,2.26,1,3.07,3.07,0,0,0,2-.74,3.21,3.21,0,0,0,1.07-2Z"/><path class="cls-1" d="M270.78,252.59l3.42-8.5h1.07l3.35,8.5h-1.31l-.52-1.31h-4.17l-.52,1.31Zm4-6.55-1.65,4.11h3.27Z"/><path class="cls-1" d="M59,265.7a4,4,0,0,1-1.6-.34,4.24,4.24,0,0,1-1.34-.91l.83-1a3.45,3.45,0,0,0,1,.78,2.63,2.63,0,0,0,1.18.31,1.64,1.64,0,0,0,1.1-.36,1.17,1.17,0,0,0,.43-.91,1.49,1.49,0,0,0-1.08-1.39l-1-.4a3.51,3.51,0,0,1-1.4-.91,2,2,0,0,1-.45-1.35,2.15,2.15,0,0,1,.7-1.61A2.43,2.43,0,0,1,59,257a3.43,3.43,0,0,1,2.47.94l-.71,1a2.37,2.37,0,0,0-1.76-.77,1.36,1.36,0,0,0-.9.3,1,1,0,0,0-.34.79.91.91,0,0,0,.25.65,2.45,2.45,0,0,0,.86.53l1,.41a2.42,2.42,0,0,1,1.79,2.43A2.34,2.34,0,0,1,61,265,2.85,2.85,0,0,1,59,265.7Z"/><path class="cls-1" d="M68.52,265.75a4.17,4.17,0,0,1-3.07-1.26,4.58,4.58,0,0,1,0-6.31,4.33,4.33,0,0,1,6.12,0,4.53,4.53,0,0,1,0,6.29A4.17,4.17,0,0,1,68.52,265.75Zm-2.23-2.09a3.08,3.08,0,0,0,4.45,0,3.39,3.39,0,0,0,0-4.64,3.06,3.06,0,0,0-4.45,0,3.41,3.41,0,0,0,0,4.64Zm1.43-7.47a.58.58,0,0,1-.42.18.54.54,0,0,1-.42-.18.65.65,0,0,1-.17-.47.64.64,0,0,1,.17-.46.54.54,0,0,1,.42-.18.58.58,0,0,1,.42.18.65.65,0,0,1,.18.46A.66.66,0,0,1,67.72,256.19Zm2.36,0a.58.58,0,0,1-.42.18.58.58,0,0,1-.43-.18.7.7,0,0,1-.17-.47.69.69,0,0,1,.17-.46.58.58,0,0,1,.43-.18.58.58,0,0,1,.42.18.69.69,0,0,1,.17.46A.7.7,0,0,1,70.08,256.19Z"/><path class="cls-1" d="M75.83,265.59v-8.5h.82L81.26,263v-5.86h1.19v8.5h-.66L77,259.52v6.07Z"/><path class="cls-1" d="M86,265.59v-8.5h2.28a4.28,4.28,0,0,1,3,7.29,4.13,4.13,0,0,1-3,1.21Zm2.32-7.37H87.19v6.24h1.17a2.76,2.76,0,0,0,2.09-.91,3.14,3.14,0,0,0,.85-2.23,3,3,0,0,0-.87-2.2A2.85,2.85,0,0,0,88.32,258.22Z"/><path class="cls-1" d="M94.17,265.59l3.42-8.5h1.07l3.35,8.5H100.7l-.52-1.31H96l-.52,1.31Zm4-6.55-1.65,4.11h3.27Z"/><path class="cls-1" d="M109.52,261.89v-1.13h2.83v.6a4.34,4.34,0,0,1-1.32,3.13,4.28,4.28,0,0,1-3.08,1.24,4.17,4.17,0,0,1-3.11-1.27,4.6,4.6,0,0,1,0-6.28,4.21,4.21,0,0,1,3.11-1.27,4.46,4.46,0,0,1,1.78.36,4.22,4.22,0,0,1,1.46,1l-.88.9A3,3,0,0,0,108,258a3,3,0,0,0-2.26,1,3.43,3.43,0,0,0,0,4.63,3,3,0,0,0,2.26,1,3.07,3.07,0,0,0,2-.74,3.25,3.25,0,0,0,1.07-2Z"/><path class="cls-1" d="M119.28,265.59v-.75l3.39-4.48a1.72,1.72,0,0,0,.48-1.08,1.27,1.27,0,0,0-.37-.91,1.34,1.34,0,0,0-1-.37,1.19,1.19,0,0,0-.93.41,1.62,1.62,0,0,0-.39,1.08h-1.19a2.49,2.49,0,0,1,.71-1.81,2.38,2.38,0,0,1,1.8-.73,2.57,2.57,0,0,1,1.81.66,2.2,2.2,0,0,1,.71,1.67,3,3,0,0,1-.9,1.88l-2.65,3.38h3.66v1Z"/><path class="cls-1" d="M129.24,265.72a2.63,2.63,0,0,1-1.86-.72,2.38,2.38,0,0,1-.79-1.73h1.19a1.23,1.23,0,0,0,.44.93,1.45,1.45,0,0,0,1,.39,1.42,1.42,0,0,0,1.05-.41,1.35,1.35,0,0,0,.42-1,1.4,1.4,0,0,0-1.44-1.46h-.49v-1.06h.47a1.34,1.34,0,0,0,1-.39,1.32,1.32,0,0,0,0-1.89,1.37,1.37,0,0,0-1-.38,1.33,1.33,0,0,0-1,.39,1.3,1.3,0,0,0-.39.95h-1.19a2.21,2.21,0,0,1,.74-1.7,2.58,2.58,0,0,1,1.83-.7,2.54,2.54,0,0,1,1.83.7,2.22,2.22,0,0,1,.74,1.7,1.93,1.93,0,0,1-.36,1.14,2.09,2.09,0,0,1-.94.72,2,2,0,0,1,1,.76,2.06,2.06,0,0,1,.37,1.23,2.41,2.41,0,0,1-.78,1.8A2.61,2.61,0,0,1,129.24,265.72Z"/><path class="cls-1" d="M141.52,265.7a3.89,3.89,0,0,1-1.59-.34,4.4,4.4,0,0,1-1.35-.91l.84-1a3.31,3.31,0,0,0,1,.78,2.57,2.57,0,0,0,1.18.31,1.66,1.66,0,0,0,1.1-.36,1.16,1.16,0,0,0,.42-.91,1.49,1.49,0,0,0-1.07-1.39l-1-.4a3.46,3.46,0,0,1-1.39-.91,2,2,0,0,1-.46-1.35,2.16,2.16,0,0,1,.71-1.61,2.41,2.41,0,0,1,1.73-.66,3.44,3.44,0,0,1,2.47.94l-.72,1a2.34,2.34,0,0,0-1.75-.77,1.32,1.32,0,0,0-.9.3,1,1,0,0,0-.35.79.92.92,0,0,0,.26.65,2.36,2.36,0,0,0,.86.53l1,.41a2.42,2.42,0,0,1,1.79,2.43,2.34,2.34,0,0,1-.75,1.79A2.86,2.86,0,0,1,141.52,265.7Z"/><path class="cls-1" d="M151.89,261.86h-3.5v2.6h3.74v1.13H147.2v-8.5h4.87v1.13h-3.68v2.51h3.5Z"/><path class="cls-1" d="M155.08,265.59v-8.5H158a2.68,2.68,0,0,1,2,.79,2.78,2.78,0,0,1,.79,2,2.68,2.68,0,0,1-.82,2,2.73,2.73,0,0,1-2,.8h-1.67v2.9Zm2.82-7.37h-1.63v3.33h1.64a1.56,1.56,0,0,0,1.65-1.65,1.66,1.66,0,0,0-.47-1.2A1.59,1.59,0,0,0,157.9,258.22Z"/><path class="cls-1" d="M162.49,258.22v-1.13h6.89v1.13h-2.85v7.37h-1.19v-7.37Z"/><path class="cls-1" d="M176.43,261.86h-3.5v2.6h3.74v1.13h-4.92v-8.5h4.86v1.13h-3.68v2.51h3.5Z"/><path class="cls-1" d="M179.62,265.59v-8.5h1.22l2.74,4.53,2.78-4.53h1.17v8.5h-1.19v-6.28l0,0-2.73,4.39-2.69-4.33h-.07v6.24Z"/><path class="cls-1" d="M191,265.59v-8.5h2.6a2.7,2.7,0,0,1,1.87.66,2.18,2.18,0,0,1,.74,1.71,2,2,0,0,1-1,1.83,2.12,2.12,0,0,1,.91.76,2,2,0,0,1,.34,1.15,2.2,2.2,0,0,1-.74,1.74,2.81,2.81,0,0,1-1.9.65Zm2.48-7.37h-1.29v2.59h1.51a1.3,1.3,0,0,0,1.32-1.36,1.09,1.09,0,0,0-.42-.89A1.74,1.74,0,0,0,193.51,258.22Zm.26,3.64h-1.55v2.6h1.47a1.74,1.74,0,0,0,1.17-.36,1.23,1.23,0,0,0,.44-1,1.19,1.19,0,0,0-.4-.91A1.64,1.64,0,0,0,193.77,261.86Z"/><path class="cls-1" d="M204.15,261.86h-3.5v2.6h3.74v1.13h-4.93v-8.5h4.87v1.13h-3.68v2.51h3.5Z"/><path class="cls-1" d="M207.34,265.59v-8.5h3.16a2.66,2.66,0,0,1,1.91.74,2.51,2.51,0,0,1,.77,1.92,2.56,2.56,0,0,1-.63,1.77,2.52,2.52,0,0,1-1.63.84l2.46,3.23h-1.46l-2.44-3.24h-.95v3.24Zm3-7.37h-1.81v3.07h1.8a1.72,1.72,0,0,0,1.2-.42,1.43,1.43,0,0,0,.46-1.12,1.45,1.45,0,0,0-.46-1.09A1.7,1.7,0,0,0,210.34,258.22Z"/><path class="cls-1" d="M220.76,265.59v-8.5H222v4l3.54-4h1.6l-3,3.37,3.07,5.13h-1.47l-2.48-4.15L222,262.87v2.72Z"/><path class="cls-1" d="M229.75,265.59v-8.5h1.19v7.37h3.49v1.13Z"/><path class="cls-1" d="M242.61,265.59v-7l-1.6.81v-1.13l2.26-1.25h.52v8.55Z"/><path class="cls-1" d="M246.53,265.59v-.75l3.4-4.48a1.7,1.7,0,0,0,.47-1.08,1.23,1.23,0,0,0-.37-.91,1.31,1.31,0,0,0-.95-.37,1.23,1.23,0,0,0-.94.41,1.73,1.73,0,0,0-.39,1.08h-1.18a2.52,2.52,0,0,1,.7-1.81,2.4,2.4,0,0,1,1.81-.73,2.53,2.53,0,0,1,1.8.66,2.16,2.16,0,0,1,.71,1.67,3,3,0,0,1-.89,1.88l-2.65,3.38h3.65v1Z"/><path class="cls-1" d="M254.12,261.88v-1.05h3.33v1.05Z"/><path class="cls-1" d="M260.67,265.59v-7l-1.6.81v-1.13l2.26-1.25h.53v8.55Z"/><path class="cls-1" d="M264.53,263.64v-.74l3-5.81h1.24l-2.79,5.5h1.84v-1.43H269v1.43h1v1.05h-1v1.95h-1.18v-1.95Z"/></svg>