<svg id="Layer_1" data-name="Layer 1" xmlns="http://www.w3.org/2000/svg" viewBox="0 0 320 320"><defs><style>.cls-1{fill:#d80201;}</style></defs><title>text</title><path class="cls-1" d="M99.43,172.46c-2,2.17-5.18,1.83-7.88,1.83V182h-4V161.27h6c2,0,3.84.16,5.46,1.58a6.58,6.58,0,0,1,2.11,5A6.79,6.79,0,0,1,99.43,172.46Zm-3.54-7a4.82,4.82,0,0,0-2.95-.65h-1.4v6H93.2c2,0,3.75-.65,3.75-3A3.06,3.06,0,0,0,95.9,165.43Z"/><path class="cls-1" d="M112.3,171.94a3.32,3.32,0,0,0-1.8-.46c-2.54,0-3.22,1.8-3.22,4V182h-3.75V168.53h3.75v2a4.38,4.38,0,0,1,5.55-2.14Z"/><path class="cls-1" d="M117.81,175.84c.06,2.08,1.05,3.6,3.29,3.6a3.52,3.52,0,0,0,3.19-1.8l3.47.56a6.58,6.58,0,0,1-6.6,4.19c-4.34,0-7.19-2.79-7.19-7.16s2.73-7.13,7-7.13,6.85,3,6.85,7.26v.5Zm3.26-5.08a3,3,0,0,0-3.13,2.7h6.36A3.11,3.11,0,0,0,121.07,170.76Z"/><path class="cls-1" d="M147.89,182V174.6c0-1.58-.25-3.32-2.23-3.32-2.2,0-2.57,2-2.57,3.78V182h-3.75v-7.13a6,6,0,0,0-.28-2.23,2.17,2.17,0,0,0-2-1.3,2.45,2.45,0,0,0-2.11,1.21,5.57,5.57,0,0,0-.43,2.57V182h-3.75V168.53h3.75V170a5.16,5.16,0,0,1,4.09-2,4.56,4.56,0,0,1,4.19,2.45,5,5,0,0,1,4.4-2.45,4.42,4.42,0,0,1,3.75,1.92,5.91,5.91,0,0,1,.71,3.26V182Z"/><path class="cls-1" d="M157.06,165.12a2.26,2.26,0,1,1,0-4.53,2.26,2.26,0,0,1,0,4.53ZM155.17,182V168.53h3.75V182Z"/><path class="cls-1" d="M172.72,182v-1.77a5.19,5.19,0,0,1-4.37,2.2c-4,0-6.6-3.35-6.6-7.19s2.57-7.1,6.51-7.1a5.59,5.59,0,0,1,4.46,2.14v-1.71h3.78V182ZM166.24,166a2.23,2.23,0,1,1,0-4.46,2.23,2.23,0,0,1,0,4.46Zm3.13,5.46a3.77,3.77,0,1,0,3.75,3.75A3.75,3.75,0,0,0,169.37,171.47Zm3.32-5.46a2.26,2.26,0,0,1-2.23-2.23,2.23,2.23,0,1,1,2.23,2.23Z"/><path class="cls-1" d="M188.87,171.94a3.32,3.32,0,0,0-1.8-.46c-2.54,0-3.22,1.8-3.22,4V182h-3.75V168.53h3.75v2a4.38,4.38,0,0,1,5.55-2.14Z"/><path class="cls-1" d="M202.88,171.75V182h-3.75v-10.2h-1.46v-3.22h1.46v-4.31a6.55,6.55,0,0,1,.59-3.16,5.32,5.32,0,0,1,4.65-2.7,4.44,4.44,0,0,1,2,.46v3.44a3.75,3.75,0,0,0-1.71-.5c-1.67,0-1.77,1.74-1.77,3v3.75h3.47v3.22Z"/><path class="cls-1" d="M215.06,182.39c-4.28,0-7.69-2.67-7.69-7.13s3.41-7.16,7.72-7.16,7.63,2.7,7.63,7.13S219.31,182.39,215.06,182.39ZM211.81,166a2.23,2.23,0,1,1,0-4.46,2.23,2.23,0,1,1,0,4.46Zm3.22,5.46a3.77,3.77,0,1,0,3.81,3.78A3.8,3.8,0,0,0,215,171.47Zm3.22-5.46a2.26,2.26,0,0,1-2.23-2.23,2.23,2.23,0,1,1,2.23,2.23Z"/><path class="cls-1" d="M234.37,171.94a3.32,3.32,0,0,0-1.8-.46c-2.54,0-3.22,1.8-3.22,4V182H225.6V168.53h3.75v2a4.38,4.38,0,0,1,5.55-2.14Z"/><path class="cls-1" d="M63.92,208.75V219H60.17v-10.2H58.71v-3.22h1.46v-4.31a6.55,6.55,0,0,1,.59-3.16,5.32,5.32,0,0,1,4.65-2.7,4.45,4.45,0,0,1,2,.46v3.44a3.75,3.75,0,0,0-1.71-.5c-1.67,0-1.77,1.74-1.77,3v3.75h3.47v3.22Z"/><path class="cls-1" d="M77.9,208.94a3.32,3.32,0,0,0-1.8-.46c-2.54,0-3.22,1.8-3.22,4V219H69.13V205.53h3.75v2a4.38,4.38,0,0,1,5.55-2.14Z"/><path class="cls-1" d="M90.55,219v-1.77a5.19,5.19,0,0,1-4.37,2.2c-4,0-6.6-3.35-6.6-7.19s2.57-7.1,6.51-7.1a5.59,5.59,0,0,1,4.46,2.14v-1.71h3.78V219ZM87.2,208.47A3.77,3.77,0,1,0,91,212.22,3.75,3.75,0,0,0,87.2,208.47Z"/><path class="cls-1" d="M115.07,219V211.6c0-1.58-.25-3.32-2.23-3.32-2.2,0-2.57,2-2.57,3.78V219h-3.75v-7.13a6,6,0,0,0-.28-2.23,2.17,2.17,0,0,0-2-1.3,2.45,2.45,0,0,0-2.11,1.21,5.57,5.57,0,0,0-.43,2.57V219H97.93V205.53h3.75V207a5.16,5.16,0,0,1,4.09-2,4.56,4.56,0,0,1,4.19,2.45,5,5,0,0,1,4.4-2.45,4.42,4.42,0,0,1,3.75,1.92,5.91,5.91,0,0,1,.71,3.26V219Z"/><path class="cls-1" d="M126.2,208.75V219h-3.75v-10.2H121v-3.22h1.49v-4.59h3.75v4.59h2.64v3.22Z"/><path class="cls-1" d="M132.62,202.12a2.26,2.26,0,1,1,0-4.53,2.26,2.26,0,0,1,0,4.53ZM130.73,219V205.53h3.75V219Z"/><path class="cls-1" d="M148.27,219v-1.77a5.19,5.19,0,0,1-4.37,2.2c-4,0-6.6-3.35-6.6-7.19s2.57-7.1,6.51-7.1a5.6,5.6,0,0,1,4.46,2.14v-11.5h3.78V219Zm-3.35-10.48a3.77,3.77,0,1,0,3.75,3.75A3.75,3.75,0,0,0,144.92,208.47Z"/><path class="cls-1" d="M158.78,212.84c.06,2.08,1.05,3.6,3.29,3.6a3.52,3.52,0,0,0,3.19-1.8l3.47.56a6.58,6.58,0,0,1-6.6,4.19c-4.34,0-7.19-2.79-7.19-7.16s2.73-7.13,7-7.13,6.85,3,6.85,7.26v.5Zm3.26-5.08a3,3,0,0,0-3.13,2.7h6.36A3.11,3.11,0,0,0,162,207.76Z"/><path class="cls-1" d="M180.88,219v-7.44c0-1.83-.4-3.22-2.54-3.22-2.33,0-2.88,1.71-2.88,3.72V219h-3.75V205.53h3.75v1.64a5,5,0,0,1,4.22-2.08,4.64,4.64,0,0,1,5,5.33V219Z"/><path class="cls-1" d="M192.51,219.39a7.14,7.14,0,0,1-5.12-2.23l2-2.29a4.36,4.36,0,0,0,3.16,1.58,1.58,1.58,0,0,0,1.71-1.49c0-2.29-6-1.15-6-5.67,0-2.73,2.26-4.25,4.81-4.25a6.92,6.92,0,0,1,4.37,1.43l-1.86,2.2a3.75,3.75,0,0,0-2.23-.9c-.65,0-1.43.4-1.43,1.15,0,2,6.2,1.08,6.2,5.67C198.12,217.71,195.39,219.39,192.51,219.39Z"/><path class="cls-1" d="M215.35,219.23h-1.74l-6.85-13.7H211l3.54,7.57,3.53-7.57h4.22Z"/><path class="cls-1" d="M225.93,202.12a2.26,2.26,0,1,1,0-4.53,2.26,2.26,0,0,1,0,4.53ZM224,219V205.53h3.75V219Z"/><path class="cls-1" d="M231.32,219V195.73h3.75V219Z"/><path class="cls-1" d="M238.67,219V195.73h3.75V219Z"/><path class="cls-1" d="M256.27,219v-1.77a5.19,5.19,0,0,1-4.37,2.2c-4,0-6.6-3.35-6.6-7.19s2.57-7.1,6.51-7.1a5.59,5.59,0,0,1,4.46,2.14v-1.71h3.78V219Zm-3.35-10.48a3.77,3.77,0,1,0,3.75,3.75A3.75,3.75,0,0,0,252.93,208.47Z"/></svg>