<svg id="Layer_1" data-name="Layer 1" xmlns="http://www.w3.org/2000/svg" viewBox="0 0 320 320"><defs><style>.cls-1{fill:#d80201;}</style></defs><title>text</title><path class="cls-1" d="M34,198v4.59h6.48v3.5H34v9.09h-4V194.49h11V198Z"/><path class="cls-1" d="M45.66,198.33a2.27,2.27,0,1,1,2.23-2.26A2.24,2.24,0,0,1,45.66,198.33Zm-1.89,16.84V201.74h3.75v13.43Z"/><path class="cls-1" d="M60.23,215.17v-7.44c0-1.83-.4-3.23-2.54-3.23-2.33,0-2.89,1.71-2.89,3.72v6.95H51.05V201.74H54.8v1.65A5,5,0,0,1,59,201.31a4.63,4.63,0,0,1,5,5.33v8.53Z"/><path class="cls-1" d="M71.36,205v10.2H67.61V205H66.12v-3.23h1.49v-4.59h3.75v4.59H74V205Z"/><path class="cls-1" d="M83.7,215.17V191.94h3.75v23.23Z"/><path class="cls-1" d="M101.31,215.17V213.4a5.2,5.2,0,0,1-4.38,2.2c-4,0-6.6-3.35-6.6-7.19s2.57-7.1,6.51-7.1a5.59,5.59,0,0,1,4.47,2.14v-1.71h3.78v13.43Zm-6.48-15.94a2.23,2.23,0,1,1,0-4.46,2.23,2.23,0,1,1,0,4.46ZM98,204.69a3.77,3.77,0,1,0,3.75,3.75A3.74,3.74,0,0,0,98,204.69Zm3.31-5.46A2.26,2.26,0,0,1,99,197a2.24,2.24,0,1,1,2.23,2.23Z"/><path class="cls-1" d="M121.15,220a7.34,7.34,0,0,1-5.71,2.35c-3.44,0-6.76-2-7.13-5.64h4.06a3,3,0,0,0,3.19,2.45c2.36,0,3.32-1.65,3.32-3.82v-2a5.56,5.56,0,0,1-4.52,2.23c-4,0-6.39-3.19-6.39-7s2.48-7.32,6.57-7.32a5,5,0,0,1,4.34,2.17v-1.74h3.79v12.93C122.67,216.78,122.57,218.36,121.15,220Zm-5.55-15.35a3.77,3.77,0,1,0,3.75,3.75A3.75,3.75,0,0,0,115.6,204.69Z"/><path class="cls-1" d="M129.39,209.06c.06,2.08,1.05,3.6,3.29,3.6a3.52,3.52,0,0,0,3.19-1.8l3.47.56a6.58,6.58,0,0,1-6.6,4.18c-4.34,0-7.2-2.79-7.2-7.16s2.73-7.13,7-7.13,6.86,3,6.86,7.25v.5Zm3.26-5.09a3.06,3.06,0,0,0-3.14,2.7h6.36A3.12,3.12,0,0,0,132.65,204Z"/><path class="cls-1" d="M159.24,215.17v-7.44c0-1.83-.4-3.23-2.54-3.23-2.32,0-2.88,1.71-2.88,3.72v6.95h-3.75V201.74h3.75v1.65a4.94,4.94,0,0,1,4.21-2.08,5.13,5.13,0,0,1,3.91,1.61,5.19,5.19,0,0,1,1.06,3.72v8.53Z"/><path class="cls-1" d="M176.85,215.17V213.4a5.17,5.17,0,0,1-4.37,2.2c-4,0-6.6-3.35-6.6-7.19s2.57-7.1,6.51-7.1a5.57,5.57,0,0,1,4.46,2.14v-1.71h3.78v13.43Zm-6.48-15.94a2.23,2.23,0,0,1,0-4.46,2.23,2.23,0,0,1,0,4.46Zm3.13,5.46a3.77,3.77,0,1,0,3.75,3.75A3.74,3.74,0,0,0,173.5,204.69Zm3.32-5.46a2.26,2.26,0,0,1-2.23-2.23,2.23,2.23,0,1,1,2.23,2.23Z"/><path class="cls-1" d="M193,205.15a3.31,3.31,0,0,0-1.8-.46c-2.54,0-3.22,1.8-3.22,4v6.45h-3.75V201.74H188v2a4.38,4.38,0,0,1,5.55-2.14Z"/><path class="cls-1" d="M205.65,215.17V213.4a5.18,5.18,0,0,1-4.37,2.2c-4,0-6.61-3.35-6.61-7.19s2.58-7.1,6.51-7.1a5.59,5.59,0,0,1,4.47,2.14v-1.71h3.78v13.43Zm-3.35-10.48a3.77,3.77,0,1,0,3.75,3.75A3.74,3.74,0,0,0,202.3,204.69Z"/><path class="cls-1" d="M230,215.17v-7.35c0-1.86-.4-3.32-2.57-3.32-2.33,0-2.85,1.8-2.85,3.78v6.89h-3.76V191.94h3.76v11.54a4.86,4.86,0,0,1,4.21-2.17,5.12,5.12,0,0,1,3.91,1.64,5.33,5.33,0,0,1,1,3.78v8.44Z"/><path class="cls-1" d="M247.56,215.17V213.4a5.17,5.17,0,0,1-4.37,2.2c-4,0-6.61-3.35-6.61-7.19s2.58-7.1,6.52-7.1a5.57,5.57,0,0,1,4.46,2.14v-1.71h3.78v13.43Zm-3.35-10.48a3.77,3.77,0,1,0,3.75,3.75A3.74,3.74,0,0,0,244.21,204.69Z"/><path class="cls-1" d="M261.76,215.45H260l-6.85-13.71h4.22l3.53,7.57,3.54-7.57h4.21Z"/><path class="cls-1" d="M273,209.06c.06,2.08,1.05,3.6,3.28,3.6a3.53,3.53,0,0,0,3.2-1.8l3.47.56a6.59,6.59,0,0,1-6.6,4.18c-4.34,0-7.2-2.79-7.2-7.16s2.73-7.13,7-7.13,6.85,3,6.85,7.25v.5ZM276.2,204a3.05,3.05,0,0,0-3.13,2.7h6.36A3.12,3.12,0,0,0,276.2,204Z"/><path class="cls-1" d="M289.66,205v10.2h-3.75V205h-1.49v-3.23h1.49v-4.59h3.75v4.59h2.63V205Z"/></svg>