<svg id="Layer_1" data-name="Layer 1" xmlns="http://www.w3.org/2000/svg" viewBox="0 0 320 320"><defs><style>.cls-1{fill:#d80201;}</style></defs><title>text</title><path class="cls-1" d="M94.62,194H92.48l-8.8-21.21h4.4l5.52,13.89,5.58-13.89h4.37Z"/><path class="cls-1" d="M107.24,176.66a2.26,2.26,0,0,1,0-4.52,2.26,2.26,0,0,1,0,4.52Zm-1.89,16.84V180.08h3.75V193.5Z"/><path class="cls-1" d="M112.63,193.5V170.28h3.76V193.5Z"/><path class="cls-1" d="M120,193.5V170.28h3.75V193.5Z"/><path class="cls-1" d="M137.59,193.5v-1.77a5.17,5.17,0,0,1-4.37,2.2c-4,0-6.61-3.34-6.61-7.19s2.58-7.1,6.52-7.1a5.57,5.57,0,0,1,4.46,2.14v-1.7h3.78V193.5ZM134.24,183a3.77,3.77,0,1,0,3.75,3.75A3.74,3.74,0,0,0,134.24,183Z"/><path class="cls-1" d="M151.79,193.78h-1.74l-6.85-13.7h4.22l3.53,7.56,3.53-7.56h4.22Z"/><path class="cls-1" d="M162.36,176.66a2.26,2.26,0,1,1,0-4.52,2.26,2.26,0,0,1,0,4.52Zm-1.89,16.84V180.08h3.75V193.5Z"/><path class="cls-1" d="M172,193.93a7.15,7.15,0,0,1-5.12-2.23l2-2.29a4.34,4.34,0,0,0,3.16,1.58,1.59,1.59,0,0,0,1.71-1.49c0-2.29-6-1.15-6-5.67,0-2.73,2.26-4.25,4.81-4.25A6.92,6.92,0,0,1,177,181l-1.86,2.21a3.73,3.73,0,0,0-2.23-.9c-.65,0-1.43.4-1.43,1.15,0,1.95,6.2,1.08,6.2,5.67C177.64,192.26,174.91,193.93,172,193.93Z"/><path class="cls-1" d="M189.48,193.5v-7.44c0-1.83-.4-3.23-2.54-3.23-2.33,0-2.88,1.71-2.88,3.73v6.94h-3.75V180.08h3.75v1.64a4.94,4.94,0,0,1,4.21-2.08,4.63,4.63,0,0,1,5,5.33v8.53Z"/><path class="cls-1" d="M198.66,176.66a2.26,2.26,0,1,1,0-4.52,2.26,2.26,0,0,1,0,4.52Zm-1.89,16.84V180.08h3.75V193.5Z"/><path class="cls-1" d="M213.23,193.5v-7.44c0-1.83-.4-3.23-2.54-3.23-2.33,0-2.89,1.71-2.89,3.73v6.94h-3.75V180.08h3.75v1.64a5,5,0,0,1,4.22-2.08,4.63,4.63,0,0,1,5,5.33v8.53Z"/><path class="cls-1" d="M233,198.37a7.34,7.34,0,0,1-5.71,2.35c-3.44,0-6.76-2-7.13-5.64h4.06a3,3,0,0,0,3.2,2.45c2.35,0,3.31-1.64,3.31-3.81v-2a5.56,5.56,0,0,1-4.52,2.23c-4,0-6.39-3.19-6.39-7s2.48-7.32,6.57-7.32a5,5,0,0,1,4.34,2.17v-1.73h3.79V193C234.56,195.11,234.46,196.69,233,198.37ZM227.49,183a3.77,3.77,0,1,0,3.75,3.75A3.74,3.74,0,0,0,227.49,183Z"/><path class="cls-1" d="M99,226.5l-1.83-12.74-5.71,13H90.32l-5.49-13L82.75,226.5H78.69l3.84-21.05h2.76L90.94,219l5.89-13.52h2.76L103,226.5Z"/><path class="cls-1" d="M116.7,227a10.73,10.73,0,0,1-11-10.76,11.06,11.06,0,1,1,11,10.76Zm0-17.93a7.14,7.14,0,1,0,6.91,7.1A7,7,0,0,0,116.7,209Z"/><path class="cls-1" d="M139.17,227H137l-8.8-21.21h4.4l5.52,13.89,5.58-13.89h4.37Z"/><path class="cls-1" d="M150.55,226.5V205.82H162v3.5h-7.41v4.59h7.13v3.51h-7.13V223H162v3.5Z"/><path class="cls-1" d="M189.39,214.56h-3.13l-.43,2.79H189l-.53,3.38H185.3l-.93,5.77h-3.88l.93-5.77h-2.85l-.9,5.77h-3.84l.93-5.77h-3.2l.53-3.38h3.19l.44-2.79h-3.16l.52-3.41h3.17l.83-5.33h3.85l-.87,5.33h2.85l.84-5.33h3.88l-.84,5.33h3.13Zm-9.86,0-.43,2.79H182l.44-2.79Z"/><path class="cls-1" d="M198,227c-3.85,0-7.23-2.48-7.44-6.48h4.06a3.38,3.38,0,0,0,6.73-.34,3.2,3.2,0,0,0-3.23-3.29,6.32,6.32,0,0,0-.74.06v-2.91a3.44,3.44,0,0,0,.56,0,2.81,2.81,0,1,0,.09-5.61c-1.77,0-2.6,1.08-2.82,2.72h-3.81c.58-3.9,3-5.92,6.91-5.92,3.44,0,6.29,2.05,6.29,5.71a4.62,4.62,0,0,1-2.38,4.4,5.09,5.09,0,0,1,3.16,5.09C205.42,224.7,202,227,198,227Z"/><path class="cls-1" d="M216.2,227c-5.7,0-8-6-8-10.85s2.26-10.89,8-10.89,8,6,8,10.85S221.94,227,216.2,227Zm0-18.17c-3.16,0-4,4.9-4,7.28s.8,7.35,4,7.35,4-5,4-7.35S219.37,208.86,216.2,208.86Z"/><path class="cls-1" d="M225.53,226.5l6.11-6.91c1.68-1.89,4.75-5,4.75-7.66a3.09,3.09,0,0,0-3.14-3.07c-2,0-3,1.52-3.06,3.41h-4.31c.27-4.19,3-7,7.25-7,3.88,0,7.29,2.54,7.29,6.64,0,2.88-1.89,5.24-3.75,7.22l-3.6,3.85h7.5v3.5Z"/></svg>