<svg id="Layer_1" data-name="Layer 1" xmlns="http://www.w3.org/2000/svg" viewBox="0 0 320 320"><defs><style>.cls-1{fill:#d80201;}</style></defs><title>text</title><path class="cls-1" d="M96.09,193.5l-1.83-12.74-5.7,13H87.44l-5.49-13L79.88,193.5H75.81l3.85-21.05h2.76L88.06,186,94,172.45h2.76l3.44,21.05Z"/><path class="cls-1" d="M113.82,194a10.73,10.73,0,0,1-11-10.76,11.06,11.06,0,1,1,11,10.76Zm0-17.93a7.14,7.14,0,1,0,6.92,7.1A7,7,0,0,0,113.82,176Z"/><path class="cls-1" d="M136.3,194h-2.14l-8.81-21.21h4.4l5.52,13.89,5.58-13.89h4.38Z"/><path class="cls-1" d="M147.67,193.5V172.82h11.44v3.5H151.7v4.59h7.13v3.51H151.7V190h7.41v3.5Z"/><path class="cls-1" d="M186.52,181.56h-3.13l-.44,2.79h3.16l-.52,3.38h-3.17l-.92,5.77h-3.88l.93-5.77H175.7l-.9,5.77H171l.93-5.77h-3.19l.53-3.38h3.19l.43-2.79h-3.16l.53-3.41h3.16l.84-5.33h3.84l-.87,5.33H180l.84-5.33h3.87l-.84,5.33H187Zm-9.86,0-.44,2.79h2.86l.43-2.79Z"/><path class="cls-1" d="M195.16,194c-3.84,0-7.22-2.48-7.44-6.48h4.07a3.16,3.16,0,0,0,3.41,2.94,3.29,3.29,0,0,0,.09-6.57,6.32,6.32,0,0,0-.75.06v-2.91a3.57,3.57,0,0,0,.56,0,2.81,2.81,0,1,0,.1-5.61c-1.77,0-2.61,1.08-2.83,2.72h-3.81c.59-3.9,3-5.92,6.91-5.92,3.45,0,6.3,2.05,6.3,5.71a4.61,4.61,0,0,1-2.39,4.4,5.09,5.09,0,0,1,3.16,5.09C202.54,191.7,199.1,194,195.16,194Z"/><path class="cls-1" d="M213.33,194c-5.7,0-8-6-8-10.85s2.26-10.89,8-10.89,8,6,8,10.85S219.07,194,213.33,194Zm0-18.17c-3.16,0-4,4.9-4,7.28s.81,7.35,4,7.35,4-5,4-7.35S216.49,175.86,213.33,175.86Z"/><path class="cls-1" d="M222.66,193.5l6.11-6.91c1.67-1.89,4.74-5,4.74-7.66a3.09,3.09,0,0,0-3.13-3.07c-2,0-3,1.52-3.07,3.41H223c.28-4.19,3-7,7.26-7,3.87,0,7.28,2.54,7.28,6.64,0,2.88-1.89,5.24-3.75,7.22l-3.6,3.85h7.51v3.5Z"/><path class="cls-1" d="M118.87,209.66a2.26,2.26,0,1,1,2.24-2.26A2.27,2.27,0,0,1,118.87,209.66ZM117,226.5V213.08h3.75V226.5Z"/><path class="cls-1" d="M139.55,226.5h-6.94V205.82h5.11c1.68,0,3.72.15,5.06,1.24a5.53,5.53,0,0,1,1.86,4.25,4.32,4.32,0,0,1-2.27,4.15,4.77,4.77,0,0,1,2.7,1.3,5.61,5.61,0,0,1,1.49,3.88C146.56,224.76,143.27,226.5,139.55,226.5Zm-1.74-17.39h-1.17v5.33h1.14c1.8,0,3.14-.71,3.14-2.67S139.61,209.11,137.81,209.11Zm.69,8.4h-1.86v5.74h1.73c2,0,4-.47,4-2.89S140.42,217.51,138.5,217.51Z"/><path class="cls-1" d="M156.66,226.93c-4.28,0-7.69-2.66-7.69-7.13s3.41-7.16,7.72-7.16,7.63,2.7,7.63,7.13S160.91,226.93,156.66,226.93Zm0-10.91a3.77,3.77,0,1,0,3.82,3.78A3.8,3.8,0,0,0,156.63,216Z"/><path class="cls-1" d="M176,216.49a3.26,3.26,0,0,0-1.8-.47c-2.55,0-3.23,1.8-3.23,4v6.45H167.2V213.08H171v2a4.32,4.32,0,0,1,3.91-2.45,4.23,4.23,0,0,1,1.64.31Z"/><path class="cls-1" d="M188.62,226.5v-1.77a5.17,5.17,0,0,1-4.37,2.2c-4,0-6.6-3.34-6.6-7.19s2.57-7.1,6.51-7.1a5.57,5.57,0,0,1,4.46,2.14v-1.7h3.79V226.5ZM185.27,216a3.77,3.77,0,1,0,3.76,3.75A3.75,3.75,0,0,0,185.27,216Zm-.52-5.3a2.79,2.79,0,0,1,0-5.58,2.79,2.79,0,0,1,0,5.58Zm0-3.88a1.09,1.09,0,1,0,0,2.17,1.09,1.09,0,0,0,1.08-1.08A1.06,1.06,0,0,0,184.75,206.84Z"/><path class="cls-1" d="M200.28,226.93a7.15,7.15,0,0,1-5.12-2.23l2-2.29a4.34,4.34,0,0,0,3.16,1.58,1.58,1.58,0,0,0,1.7-1.49c0-2.29-6-1.15-6-5.67,0-2.73,2.26-4.25,4.81-4.25a6.92,6.92,0,0,1,4.37,1.42l-1.86,2.21a3.73,3.73,0,0,0-2.23-.9c-.66,0-1.43.4-1.43,1.15,0,1.95,6.2,1.08,6.2,5.67C205.89,225.26,203.16,226.93,200.28,226.93Z"/></svg>