<svg id="Layer_1" data-name="Layer 1" xmlns="http://www.w3.org/2000/svg" viewBox="0 0 320 320"><defs><style>.cls-1{fill:#d80201;}</style></defs><title>text</title><path class="cls-1" d="M48.58,131.27v5.19H55.9v3.95H48.58v10.26H44V127.32H56.39v4Z"/><path class="cls-1" d="M67.58,151.16c-4.83,0-8.68-3-8.68-8S62.75,135,67.62,135s8.61,3,8.61,8S72.38,151.16,67.58,151.16Zm0-12.32a4.25,4.25,0,1,0,4.3,4.27A4.28,4.28,0,0,0,67.55,138.84Z"/><path class="cls-1" d="M89.39,139.36a3.8,3.8,0,0,0-2-.52c-2.87,0-3.64,2-3.64,4.55v7.28H79.48V135.51h4.24v2.28A4.86,4.86,0,0,1,88.13,135a4.94,4.94,0,0,1,1.85.35Z"/><path class="cls-1" d="M111.44,150.67v-8.3c0-1.78-.28-3.74-2.52-3.74-2.49,0-2.91,2.27-2.91,4.27v7.77h-4.23v-8a6.65,6.65,0,0,0-.32-2.52,2.44,2.44,0,0,0-2.27-1.47A2.75,2.75,0,0,0,96.81,140a6.26,6.26,0,0,0-.49,2.91v7.77H92.08V135.51h4.24v1.72a5.8,5.8,0,0,1,4.62-2.21,5.13,5.13,0,0,1,4.72,2.77,5.59,5.59,0,0,1,5-2.77,5,5,0,0,1,4.24,2.17,6.7,6.7,0,0,1,.8,3.68v9.8Z"/><path class="cls-1" d="M131.32,150.67v-2a5.86,5.86,0,0,1-4.94,2.49c-4.55,0-7.45-3.78-7.45-8.12s2.9-8,7.35-8a6.31,6.31,0,0,1,5,2.42v-1.93h4.27v15.16Zm-3.78-11.83a4.25,4.25,0,1,0,4.23,4.23A4.23,4.23,0,0,0,127.54,138.84Z"/><path class="cls-1" d="M160,150.67v-2a5.84,5.84,0,0,1-4.93,2.49c-4.55,0-7.46-3.78-7.46-8.12s2.91-8,7.35-8a6.3,6.3,0,0,1,5,2.42v-13h4.27v26.22Zm-3.78-11.83a4.25,4.25,0,1,0,4.24,4.23A4.23,4.23,0,0,0,156.2,138.84Z"/><path class="cls-1" d="M170.38,131.66a2.56,2.56,0,1,1,0-5.11,2.56,2.56,0,0,1,0,5.11Zm-2.14,19V135.51h4.24v15.16Z"/><path class="cls-1" d="M180.74,139.15v11.52H176.5V139.15h-1.68v-3.64h1.68v-5.18h4.24v5.18h3v3.64Z"/><path class="cls-1" d="M190.19,139.15v11.52H186V139.15h-1.68v-3.64H186v-5.18h4.24v5.18h3v3.64Z"/><path class="cls-1" d="M214.48,150.67v-8.3c0-2.1-.46-3.74-2.91-3.74-2.62,0-3.22,2-3.22,4.27v7.77h-4.23V124.45h4.23v13a5.54,5.54,0,0,1,4.76-2.45,5.75,5.75,0,0,1,4.41,1.86,6,6,0,0,1,1.19,4.27v9.52Z"/><path class="cls-1" d="M230.08,151.16c-4.16,0-7.31-1.86-7.31-6.37v-9.28H227v8.58c0,2.06.88,3.46,3.08,3.46s3.09-1.4,3.09-3.46v-8.58h4.27v9.28C237.44,149.3,234.25,151.16,230.08,151.16Z"/><path class="cls-1" d="M246.32,151.16a8.06,8.06,0,0,1-5.77-2.52l2.24-2.59a4.92,4.92,0,0,0,3.57,1.78,1.79,1.79,0,0,0,1.93-1.68c0-2.59-6.76-1.29-6.76-6.4,0-3.08,2.55-4.8,5.43-4.8a7.8,7.8,0,0,1,4.93,1.61l-2.1,2.49a4.26,4.26,0,0,0-2.52-1c-.74,0-1.61.46-1.61,1.3,0,2.2,7,1.22,7,6.4C252.66,149.27,249.58,151.16,246.32,151.16Z"/><path class="cls-1" d="M52.67,188.16a6.06,6.06,0,0,1-5.07-2.49v10.08H43.36V172.51H47.6v1.92a6.06,6.06,0,0,1,5-2.41c4.51,0,7.49,3.74,7.49,8.09S57.12,188.16,52.67,188.16Zm-1.26-12.33a4.26,4.26,0,1,0,4.24,4.24A4.23,4.23,0,0,0,51.41,175.83Z"/><path class="cls-1" d="M74.86,187.67v-2a5.84,5.84,0,0,1-4.93,2.49c-4.55,0-7.46-3.78-7.46-8.12s2.91-8,7.35-8a6.32,6.32,0,0,1,5,2.41v-1.92h4.27v15.16Zm-3.78-11.84a4.26,4.26,0,1,0,4.24,4.24A4.23,4.23,0,0,0,71.08,175.83Zm-.59-6a3.15,3.15,0,1,1,0-6.3,3.15,3.15,0,1,1,0,6.3Zm0-4.38a1.23,1.23,0,1,0,1.22,1.23A1.2,1.2,0,0,0,70.49,165.47Z"/><path class="cls-1" d="M96.32,176.15v11.52H92.08V176.15H90.44v-3.64h1.64v-4.87a7.35,7.35,0,0,1,.67-3.57A6,6,0,0,1,98,161a5,5,0,0,1,2.24.52v3.89a4.18,4.18,0,0,0-1.93-.56c-1.89,0-2,2-2,3.39v4.24h3.92v3.64Z"/><path class="cls-1" d="M105.73,180.77c.07,2.35,1.19,4.06,3.71,4.06a4,4,0,0,0,3.61-2l3.92.63c-1.33,3.26-4,4.73-7.46,4.73-4.9,0-8.12-3.15-8.12-8.09s3.08-8,8-8,7.73,3.36,7.73,8.19v.56Zm3.68-5.74a3.44,3.44,0,0,0-3.54,3.05h7.18A3.52,3.52,0,0,0,109.41,175Z"/><path class="cls-1" d="M139.68,187.67v-8.3c0-1.79-.28-3.74-2.52-3.74-2.48,0-2.9,2.27-2.9,4.27v7.77H130v-8a6.91,6.91,0,0,0-.31-2.53,2.47,2.47,0,0,0-2.28-1.46,2.77,2.77,0,0,0-2.38,1.36,6.37,6.37,0,0,0-.49,2.91v7.77h-4.23V172.51h4.23v1.71a5.84,5.84,0,0,1,4.62-2.2,5.14,5.14,0,0,1,4.73,2.77,5.59,5.59,0,0,1,5-2.77,5,5,0,0,1,4.23,2.17,6.71,6.71,0,0,1,.81,3.68v9.8Z"/><path class="cls-1" d="M176.08,187.67v-8.3c0-1.79-.28-3.74-2.52-3.74-2.48,0-2.9,2.27-2.9,4.27v7.77h-4.24v-8a6.91,6.91,0,0,0-.31-2.53,2.47,2.47,0,0,0-2.28-1.46,2.77,2.77,0,0,0-2.38,1.36,6.37,6.37,0,0,0-.49,2.91v7.77h-4.23V172.51H161v1.71a5.84,5.84,0,0,1,4.62-2.2,5.14,5.14,0,0,1,4.73,2.77,5.59,5.59,0,0,1,5-2.77,5,5,0,0,1,4.23,2.17,6.71,6.71,0,0,1,.81,3.68v9.8Z"/><path class="cls-1" d="M186.44,168.66a2.56,2.56,0,0,1,0-5.11,2.56,2.56,0,0,1,0,5.11Zm-2.13,19V172.51h4.23v15.16Z"/><path class="cls-1" d="M202.89,187.67v-8.4c0-2.07-.45-3.64-2.87-3.64-2.62,0-3.25,1.92-3.25,4.2v7.84h-4.24V172.51h4.24v1.86a5.57,5.57,0,0,1,4.76-2.35,5.23,5.23,0,0,1,5.6,6v9.63Z"/><path class="cls-1" d="M218.5,188.16c-4.16,0-7.31-1.86-7.31-6.37v-9.28h4.23v8.58c0,2.06.88,3.46,3.08,3.46s3.08-1.4,3.08-3.46v-8.58h4.27v9.28C225.85,186.3,222.67,188.16,218.5,188.16Z"/><path class="cls-1" d="M234.18,176.15v11.52H230V176.15h-1.69v-3.64H230v-5.18h4.23v5.18h3v3.64Z"/><path class="cls-1" d="M242.9,180.77c.07,2.35,1.19,4.06,3.71,4.06a4,4,0,0,0,3.6-2l3.92.63c-1.33,3.26-4,4.73-7.45,4.73-4.9,0-8.12-3.15-8.12-8.09s3.08-8,7.94-8,7.74,3.36,7.74,8.19v.56Zm3.67-5.74a3.44,3.44,0,0,0-3.53,3.05h7.17A3.51,3.51,0,0,0,246.57,175Z"/><path class="cls-1" d="M267.4,176.36a3.72,3.72,0,0,0-2-.53c-2.87,0-3.64,2-3.64,4.56v7.28h-4.24V172.51h4.24v2.28a4.86,4.86,0,0,1,4.41-2.77,4.94,4.94,0,0,1,1.85.35Z"/><path class="cls-1" d="M270.89,188.12a2.73,2.73,0,1,1,2.74-2.73A2.72,2.72,0,0,1,270.89,188.12Z"/></svg>