<?xml version="1.0" encoding="utf-8"?>
<!-- Generator: Adobe Illustrator 19.2.0, SVG Export Plug-In . SVG Version: 6.00 Build 0)  -->
<svg version="1.1" id="Layer_1" xmlns="http://www.w3.org/2000/svg" xmlns:xlink="http://www.w3.org/1999/xlink" x="0px" y="0px"
	 viewBox="0 0 559.74 93.809" enable-background="new 0 0 559.74 93.809" xml:space="preserve">
<g>
	<path fill="#F3730C" d="M40.827,93.012L37.396,76.97l-26.305,0.069L7.82,93.012H0L18.861,0h10.235l19.666,93.012H40.827z
		 M35.923,69.921L24.036,12.979c-3.22,15.255-7.584,38.614-11.38,56.943H35.923z"/>
	<path fill="#F3730C" d="M90.278,74.114V0h7.706v74.114c0,10.701-9.545,19.468-21.046,19.468c-11.386,0-20.701-8.767-20.816-19.468
		V0h7.59v74.114c0,6.375,6.21,11.954,13.226,11.954C83.953,86.068,90.278,80.489,90.278,74.114z"/>
	<path fill="#F3730C" d="M133.171,93.012h-7.59V7.514h-16.791V0h40.712v7.514h-16.331V93.012z"/>
	<path fill="#F3730C" d="M204.129,74.911c0,10.701-10.811,18.784-23.116,18.784c-12.076,0-23.001-8.083-23.116-18.784V18.785
		C157.896,8.083,168.937,0,181.013,0c12.306,0,23.116,8.083,23.116,18.785V74.911z M196.538,74.911V18.785
		c0-6.717-7.36-11.499-15.525-11.499c-8.051,0-15.526,4.782-15.526,11.499v56.126c0,6.717,7.475,11.498,15.526,11.498
		C189.178,86.409,196.538,81.627,196.538,74.911z"/>
	<path d="M222.87,33.471c0,6.148,6.44,10.019,13.686,10.36c10.58,0.797,20.815,6.945,20.815,16.508v13.32
		c0,10.929-9.545,19.809-21.046,19.809c-11.73,0-21.046-8.88-21.161-19.809v-8.994h7.591v8.994c0,6.489,6.325,12.295,13.57,12.295
		c7.591,0,13.341-5.806,13.341-12.295v-13.32c0-5.464-6.44-9.222-13.57-9.222c-11.156,0-20.932-7.514-20.932-17.646V19.81
		C215.164,8.88,224.595,0,236.325,0s21.046,8.88,21.046,19.81v9.335h-7.59V19.81c0-6.945-6.325-12.295-13.456-12.295
		c-7.705,0-13.455,5.806-13.455,12.295V33.471z"/>
	<path d="M304.176,0v7.514h-28.521v28.114h25.416v6.375h-25.416v43.496h28.521v7.514h-35.997L268.063,0H304.176z"/>
	<path d="M321.538,93.012h-7.59L313.833,0h20.011c11.041,0,20.126,8.88,20.126,19.81v22.889c0,5.123-3.335,10.246-8.28,13.889
		c5.75,3.757,9.086,9.449,9.086,15.027v21.397h-7.706V71.615c0-6.147-5.979-11.499-12.65-11.499h-12.881V93.012z M321.538,7.514
		v46.228h12.766c6.786,0,11.846-5.237,11.846-11.043V19.81c0-6.945-3.91-12.295-8.855-12.295H321.538z"/>
	<path d="M369.377,0l16.676,83.563L402.384,0h7.82l-16.906,93.012h-14.49L361.557,0H369.377z"/>
	<path d="M428.831,93.012h-7.936L420.781,0h8.05V93.012z"/>
	<path d="M442.746,74V19.81C442.746,8.88,453.672,0,466.207,0c11.731,0,21.161,8.88,21.161,19.81v6.147h-7.705V19.81
		c0-6.489-6.325-12.295-13.456-12.295c-8.28,0-15.755,5.806-15.755,12.295V74c0,6.489,7.475,12.296,15.755,12.296
		c7.131,0,13.456-5.807,13.456-12.296v-6.603h7.705V74c0,10.93-9.43,19.81-21.161,19.81C453.672,93.809,442.861,84.929,442.746,74z"
		/>
	<path d="M534.058,0v7.514h-28.521v28.114h25.416v6.375h-25.416v43.496h28.521v7.514h-35.997L497.945,0H534.058z"/>
	<g>
		<path d="M559.74,0.17v5.07c0,2.496-2.111,4.524-4.711,4.524h-2.651c-1.287,0-2.368-0.729-3.218-1.847
			c-0.953,1.612-2.497,2.601-4.119,2.601h-1.235c-2.856,0-5.097-2.21-5.097-4.914V0.196L559.74,0.17z M548.182,1.886h-7.773v3.719
			c0,1.716,1.184,3.172,2.625,3.172h2.008c1.699,0,3.141-1.456,3.141-3.172V1.886z M558.041,1.886h-8.418V5.24
			c0,1.482,1.287,2.782,2.755,2.782h3.423c1.211,0,2.24-1.3,2.24-2.782V1.886z"/>
		<path d="M542.802,22.322c-2.419,0-4.247-2.443-4.247-5.226c0-2.73,1.828-5.2,4.247-5.227h12.69c2.42,0,4.248,2.496,4.248,5.227
			c0,2.782-1.828,5.226-4.248,5.226H542.802z M542.802,20.606h12.69c1.52,0,2.6-1.664,2.6-3.51c0-1.82-1.08-3.511-2.6-3.511h-12.69
			c-1.519,0-2.6,1.69-2.6,3.511C540.202,18.942,541.283,20.606,542.802,20.606z"/>
		<path d="M538.709,28.9v-1.717h19.332v-3.796h1.699v9.204h-1.699V28.9H538.709z"/>
		<path d="M538.709,35.946v-1.69l21.031-0.025v1.716h-9.396c3.038,2.288,6.436,4.836,9.396,7.098v2.106l-8.16-6.11l-12.871,5.591
			v-1.664l11.559-5.175l-2.291-1.846H538.709z"/>
		<path d="M538.709,51h10.143c3.371-1.638,7.542-3.562,10.889-5.2v1.95l-8.547,4.134c2.78,1.326,5.869,2.86,8.547,4.135v1.95
			l-10.889-5.253h-10.143V51z"/>
		<path d="M538.709,60.88v-1.717l21.031-0.025v4.524c0,2.496-2.008,4.55-4.479,4.55h-5.141c-1.158,0-2.316-0.754-3.14-1.872
			c-0.85,1.3-2.137,2.054-3.398,2.054h-4.873v-1.742h4.873c1.391,0,2.6-1.352,2.6-2.859V60.88H538.709z M558.041,60.88h-10.418
			v2.886c0,1.534,1.185,2.679,2.497,2.679h5.141c1.57,0,2.78-0.885,2.78-2.003V60.88z"/>
		<path d="M538.709,71.93v-1.69l21.031-0.025v1.716h-9.396c3.038,2.288,6.436,4.835,9.396,7.098v2.105l-8.16-6.11l-12.871,5.591
			V78.95l11.559-5.175l-2.291-1.845H538.709z"/>
		<path d="M538.709,91.065l3.949-0.784v-5.885l-3.949-0.792v-1.769l21.031,4.265v2.314l-21.031,4.446V91.065z M544.125,90.046
			l12.68-2.777c-3.449-0.728-8.535-1.782-12.68-2.639V90.046z"/>
	</g>
</g>
<g>
</g>
<g>
</g>
<g>
</g>
<g>
</g>
<g>
</g>
<g>
</g>
</svg>
