<?xml version="1.0" encoding="utf-8"?>
<!-- Generator: Adobe Illustrator 19.2.0, SVG Export Plug-In . SVG Version: 6.00 Build 0)  -->
<svg version="1.1" id="Layer_1" xmlns="http://www.w3.org/2000/svg" xmlns:xlink="http://www.w3.org/1999/xlink" x="0px" y="0px"
	 viewBox="0 0 250.2 67.1" style="enable-background:new 0 0 250.2 67.1;" xml:space="preserve">
<style type="text/css">
	.st0{fill:#FFFFFF;}
	.st1{fill:#28BBD9;}
	.st2{fill:#26ABD8;}
	.st3{fill:#FF192D;}
</style>
<path class="st0" d="M60.9,0H6.2C2.8,0,0,2.8,0,6.2v54.7c0,3.4,2.8,6.2,6.2,6.2h54.7c3.4,0,6.2-2.8,6.2-6.2V6.2
	C67.1,2.8,64.3,0,60.9,0L60.9,0z"/>
<path class="st1" d="M12.6,43.5V28.2l2.3,0l-0.7-2.8l-1.6,0V4.9H9v38.6c-1.1,0.2-2,1.2-2,2.4v1.7h7.7v-1.7
	C14.6,44.7,13.8,43.7,12.6,43.5z M12.8,45.6H9.6c-0.3,0-0.6,0.2-0.6,0.6v0.6c0,0.3-0.2,0.5-0.5,0.5c-0.3,0-0.5-0.2-0.5-0.5v-0.6
	c0-0.9,0.7-1.6,1.6-1.6h3.2c0.3,0,0.5,0.2,0.5,0.5C13.3,45.3,13.1,45.6,12.8,45.6z"/>
<path class="st1" d="M57.9,43.5V4.9h-3.6v20.7l-1.7,0L52,28.1l2.3,0v15.4c-1.1,0.2-2,1.2-2,2.4v1.7h7.7v-1.7
	C59.9,44.7,59,43.7,57.9,43.5z M58,45.6h-3.2c-0.3,0-0.6,0.2-0.6,0.6v0.6c0,0.3-0.2,0.5-0.5,0.5c-0.3,0-0.5-0.2-0.5-0.5v-0.6
	c0-0.9,0.7-1.6,1.6-1.6H58c0.3,0,0.5,0.2,0.5,0.5C58.5,45.3,58.3,45.6,58,45.6z"/>
<path class="st1" d="M52.5,14.1c-1.8-0.5-5.6,0.9-5.6,0.9s-1.7-4.9-3-5.8c-1.2-0.9-6.7-0.9-10.5-1c-3.7,0.1-9.2,0.1-10.5,1
	c-1.2,0.9-3,5.8-3,5.8s-3.8-1.4-5.6-0.9s0,3.2,0.9,3.5c0.9,0.3,3.1,0,3.1,0s-2.1,3.7-2.7,4.8c-0.6,1.1,0.6,5.9,0.6,5.9h34.5
	c0,0,1.2-4.9,0.6-5.9c-0.6-1.1-2.7-4.8-2.7-4.8s2.2,0.3,3.1,0C52.5,17.3,54.3,14.6,52.5,14.1z M24.2,10.9c0.4-0.2,9.3-0.5,9.3-0.5
	s8.9,0.3,9.4,0.7c0.6,0.4,2.4,5.4,2.4,5.4H21.7C21.7,16.5,23.8,11.1,24.2,10.9z M24,25.4c-1.2,0.1-4,0.2-5.1,0
	c-1.2-0.2-1.2-3.2-0.7-3.6c0,0,2.5-0.3,4.5,0.5S25.2,25.3,24,25.4z M39.2,23.9c-1.3,1.7-2,1.6-2,1.6h-7.4c0,0-0.7,0.1-2-1.6
	s0.5-2.1,0.5-2.1h10.5C38.7,21.7,40.4,22.2,39.2,23.9z M48.7,21.8c0.6,0.4,0.5,3.4-0.7,3.6s-3.9,0.1-5.1,0c-1.2-0.1-0.8-2.4,1.3-3.1
	S48.7,21.8,48.7,21.8z"/>
<g>
	<path class="st1" d="M37.2,23.2h-7.5c-0.2,0-0.3-0.1-0.3-0.3s0.1-0.3,0.3-0.3h7.5c0.2,0,0.3,0.1,0.3,0.3S37.4,23.2,37.2,23.2z"/>
</g>
<g>
	<path class="st1" d="M37.2,24.5h-7.5c-0.2,0-0.3-0.1-0.3-0.3s0.1-0.3,0.3-0.3h7.5c0.2,0,0.3,0.1,0.3,0.3S37.4,24.5,37.2,24.5z"/>
</g>
<path class="st1" d="M23.1,34.4h-3.3c-1,0-1.8-0.8-1.8-1.8v-3.4h6.9v3.4C24.9,33.5,24.1,34.4,23.1,34.4z"/>
<path class="st1" d="M47.1,34.4h-3.3c-1,0-1.8-0.8-1.8-1.8v-3.4h6.9v3.4C48.9,33.5,48.1,34.4,47.1,34.4z"/>
<path class="st1" d="M33.4,55.2H44c0,0,4,0.5,7.1-2c3.6-4,8-0.1,8-0.1L54.2,54l-0.9,2.8l1.5,3l5-0.7c0,0-1.4,3.4-4.2,4.1
	c-3.9,0.9-5.3-3.5-9-3.5c-2.6,0-13.1-0.1-13.1-0.1l-11.7-0.1c0,0-3.7,0.5-5.2,1.4s-2.8,2.2-5.2,2.3s-3.4-1.8-3.4-1.8l4.3-1.5
	l0.5-3.4L11,54l-4,1.5c0,0,0.2-2.6,2.6-3.6s4.5-0.1,5.4,0.6c0.9,0.7,3.7,2.5,4.9,2.6C21.1,55.2,33.4,55.2,33.4,55.2z"/>
<g>
	<path class="st2" d="M75.6,39.9h11.2c1.1,0,2.2,0.1,3.1,0.3c0.9,0.2,1.7,0.5,2.4,1c0.7,0.5,1.2,1.1,1.6,1.8s0.6,1.7,0.6,2.8
		c0,1.2-0.3,2.2-0.8,3s-1.4,1.5-2.4,2c1.5,0.4,2.6,1.2,3.3,2.2c0.7,1.1,1.1,2.3,1.1,3.8c0,1.2-0.2,2.2-0.7,3.1s-1.1,1.6-1.9,2.2
		c-0.8,0.6-1.7,1-2.7,1.2c-1,0.3-2.1,0.4-3.1,0.4H75.6V39.9z M80.8,49.5h5.3c0.9,0,1.7-0.2,2.3-0.7c0.6-0.4,0.9-1.2,0.9-2.2
		c0-0.6-0.1-1-0.3-1.4c-0.2-0.4-0.5-0.6-0.8-0.8s-0.7-0.3-1.2-0.4c-0.4-0.1-0.9-0.1-1.4-0.1h-4.9V49.5z M80.8,59.6h5.6
		c0.5,0,1,0,1.5-0.2c0.5-0.1,0.9-0.3,1.2-0.5c0.4-0.2,0.6-0.6,0.9-1c0.2-0.4,0.3-0.9,0.3-1.5c0-1.2-0.3-2.1-1-2.6
		c-0.7-0.5-1.6-0.8-2.7-0.8h-5.7V59.6z"/>
	<path class="st2" d="M103.5,43.8h-4.7v-3.9h4.7V43.8z M98.7,46.5h4.7v17.3h-4.7V46.5z"/>
	<path class="st2" d="M107.4,39.9h4.7v23.9h-4.7V39.9z"/>
	<path class="st2" d="M125.4,63.7h-5.3l-5.9-17.3h5l3.6,11.8h0.1l3.6-11.8h4.7L125.4,63.7z"/>
	<path class="st2" d="M137.1,56.2c0.1,1.5,0.5,2.7,1.2,3.3s1.7,1,3.1,1c1,0,1.8-0.2,2.5-0.7c0.7-0.5,1.1-1,1.3-1.5h4.2
		c-0.7,2.1-1.7,3.6-3.1,4.4c-1.4,0.9-3.1,1.3-5,1.3c-1.4,0-2.6-0.2-3.7-0.7c-1.1-0.4-2-1.1-2.8-1.9c-0.8-0.8-1.3-1.8-1.8-2.9
		c-0.4-1.1-0.6-2.3-0.6-3.7c0-1.3,0.2-2.5,0.6-3.6c0.4-1.1,1-2.1,1.8-2.9c0.8-0.8,1.7-1.5,2.8-1.9c1.1-0.5,2.3-0.7,3.6-0.7
		c1.5,0,2.8,0.3,3.8,0.9c1.1,0.6,2,1.3,2.7,2.3c0.7,1,1.2,2,1.5,3.3c0.3,1.2,0.4,2.5,0.3,3.8H137.1z M144.9,53.2
		c-0.2-1.2-0.6-2.1-1.2-2.7c-0.6-0.6-1.4-0.9-2.6-0.9c-0.8,0-1.4,0.1-1.9,0.4c-0.5,0.3-0.9,0.6-1.2,1s-0.5,0.8-0.6,1.2
		c-0.1,0.4-0.2,0.8-0.2,1.1H144.9z"/>
	<path class="st2" d="M152.4,46.5h4.5v3.2h0.1c0.2-0.5,0.5-1,0.9-1.5c0.4-0.5,0.8-0.8,1.3-1.2c0.5-0.3,1-0.6,1.6-0.8
		c0.6-0.2,1.1-0.3,1.7-0.3c0.3,0,0.7,0.1,1,0.2v4.4c-0.2,0-0.5-0.1-0.8-0.1c-0.3,0-0.6,0-0.9,0c-0.9,0-1.6,0.1-2.2,0.4
		c-0.6,0.3-1.1,0.7-1.5,1.2c-0.4,0.5-0.6,1.1-0.8,1.8c-0.2,0.7-0.2,1.4-0.2,2.2v7.8h-4.7V46.5z"/>
	<path class="st2" d="M165.9,39.9h4.7v12.8l6-6.2h5.6l-6.5,6.3l7.3,10.9h-5.7l-4.7-7.7l-1.8,1.8v5.9h-4.7V39.9z"/>
	<path class="st2" d="M188.3,58.1c0,0.5,0.1,1,0.3,1.3c0.2,0.4,0.5,0.7,0.8,0.9c0.3,0.2,0.7,0.4,1.2,0.5s0.9,0.2,1.4,0.2
		c0.3,0,0.7,0,1.1-0.1c0.4-0.1,0.7-0.2,1-0.4s0.6-0.4,0.8-0.7s0.3-0.6,0.3-1.1c0-0.7-0.5-1.2-1.4-1.6c-0.9-0.4-2.3-0.7-4-1.1
		c-0.7-0.2-1.4-0.3-2-0.6c-0.7-0.2-1.2-0.5-1.8-0.8c-0.5-0.3-0.9-0.8-1.2-1.3s-0.5-1.2-0.5-1.9c0-1.1,0.2-2,0.7-2.7s1-1.3,1.7-1.7
		s1.5-0.7,2.4-0.9c0.9-0.2,1.8-0.3,2.7-0.3s1.8,0.1,2.7,0.3c0.9,0.2,1.7,0.5,2.4,0.9c0.7,0.4,1.3,1,1.7,1.7c0.5,0.7,0.7,1.6,0.8,2.7
		h-4.5c-0.1-0.9-0.4-1.5-1-1.9c-0.6-0.3-1.4-0.5-2.2-0.5c-0.3,0-0.6,0-0.9,0c-0.3,0-0.6,0.1-0.9,0.2s-0.5,0.3-0.7,0.5
		c-0.2,0.2-0.3,0.5-0.3,0.9c0,0.4,0.2,0.8,0.5,1s0.7,0.5,1.2,0.7s1.1,0.3,1.7,0.5c0.6,0.1,1.3,0.3,2,0.4c0.7,0.2,1.4,0.3,2,0.6
		s1.2,0.5,1.8,0.9c0.5,0.4,0.9,0.8,1.2,1.4c0.3,0.5,0.5,1.2,0.5,2c0,1.1-0.2,2.1-0.7,2.9c-0.5,0.8-1.1,1.4-1.8,1.9
		c-0.7,0.5-1.6,0.8-2.5,1c-0.9,0.2-1.9,0.3-2.9,0.3c-1,0-2-0.1-2.9-0.3s-1.8-0.5-2.6-1c-0.7-0.5-1.4-1.1-1.8-1.9
		c-0.5-0.8-0.7-1.7-0.8-2.9H188.3z"/>
	<path class="st2" d="M208.6,46.5h3.5v3.2h-3.5v8.6c0,0.8,0.1,1.3,0.4,1.6s0.8,0.4,1.6,0.4c0.3,0,0.5,0,0.8,0c0.2,0,0.5-0.1,0.7-0.1
		v3.7c-0.4,0.1-0.8,0.1-1.3,0.1s-1,0-1.4,0c-0.7,0-1.4,0-2.1-0.2s-1.2-0.3-1.7-0.6c-0.5-0.3-0.9-0.7-1.2-1.2
		c-0.3-0.5-0.4-1.2-0.4-2.1V49.6h-2.9v-3.2h2.9v-5.2h4.7V46.5z"/>
	<path class="st2" d="M214.1,51.8c0.1-1.1,0.3-2,0.8-2.8c0.5-0.7,1.1-1.3,1.9-1.8c0.8-0.4,1.6-0.8,2.6-1c0.9-0.2,1.9-0.3,2.9-0.3
		c0.9,0,1.7,0.1,2.6,0.2c0.9,0.1,1.7,0.4,2.4,0.7s1.3,0.9,1.8,1.5c0.5,0.6,0.7,1.5,0.7,2.5v9c0,0.8,0,1.5,0.1,2.2s0.2,1.2,0.5,1.6
		h-4.8c-0.1-0.3-0.2-0.5-0.2-0.8c-0.1-0.3-0.1-0.6-0.1-0.9c-0.8,0.8-1.6,1.3-2.7,1.6c-1,0.3-2.1,0.5-3.1,0.5c-0.8,0-1.6-0.1-2.3-0.3
		s-1.3-0.5-1.9-0.9c-0.5-0.4-1-1-1.3-1.6c-0.3-0.6-0.5-1.4-0.5-2.3c0-1,0.2-1.8,0.5-2.4c0.3-0.6,0.8-1.1,1.3-1.5
		c0.5-0.4,1.2-0.7,1.9-0.9c0.7-0.2,1.4-0.3,2.1-0.5s1.4-0.2,2.1-0.3c0.7-0.1,1.3-0.2,1.8-0.3c0.5-0.1,1-0.3,1.3-0.6
		c0.3-0.3,0.5-0.6,0.4-1.1c0-0.5-0.1-0.9-0.3-1.2s-0.4-0.5-0.7-0.7s-0.6-0.3-1-0.3c-0.4-0.1-0.8-0.1-1.2-0.1c-0.9,0-1.7,0.2-2.2,0.6
		c-0.5,0.4-0.8,1.1-0.9,2H214.1z M225.1,55.3c-0.2,0.2-0.5,0.3-0.8,0.4c-0.3,0.1-0.6,0.2-1,0.3s-0.7,0.1-1.1,0.2s-0.8,0.1-1.1,0.2
		c-0.4,0.1-0.7,0.2-1.1,0.3c-0.3,0.1-0.6,0.3-0.9,0.5c-0.3,0.2-0.5,0.4-0.6,0.7c-0.2,0.3-0.2,0.7-0.2,1.1c0,0.4,0.1,0.8,0.2,1.1
		c0.2,0.3,0.4,0.5,0.6,0.7c0.3,0.2,0.6,0.3,0.9,0.4c0.4,0.1,0.7,0.1,1.1,0.1c0.9,0,1.7-0.2,2.2-0.5c0.5-0.3,0.9-0.7,1.1-1.1
		s0.4-0.9,0.5-1.3c0.1-0.4,0.1-0.8,0.1-1.1V55.3z"/>
	<path class="st2" d="M245.8,61.5L245.8,61.5c-0.6,0.9-1.4,1.6-2.3,2s-1.9,0.6-3.1,0.6c-1.3,0-2.4-0.3-3.4-0.8c-1-0.5-1.8-1.2-2.4-2
		c-0.6-0.9-1.1-1.8-1.4-3c-0.3-1.1-0.5-2.3-0.5-3.5c0-1.2,0.2-2.3,0.5-3.4c0.3-1.1,0.8-2,1.4-2.9c0.6-0.8,1.4-1.5,2.4-2
		c1-0.5,2.1-0.8,3.3-0.8c1,0,2,0.2,2.9,0.7c0.9,0.4,1.7,1.1,2.2,1.9h0.1v-8.7h4.7v23.9h-4.5V61.5z M245.8,55c0-0.7-0.1-1.4-0.2-2.1
		s-0.4-1.2-0.7-1.7c-0.3-0.5-0.7-0.9-1.3-1.2c-0.5-0.3-1.2-0.5-1.9-0.5c-0.8,0-1.4,0.2-2,0.5c-0.5,0.3-1,0.7-1.3,1.2
		c-0.3,0.5-0.6,1.1-0.7,1.8c-0.1,0.7-0.2,1.3-0.2,2.1c0,0.7,0.1,1.3,0.2,2c0.2,0.7,0.4,1.3,0.8,1.8c0.3,0.5,0.8,0.9,1.3,1.3
		c0.5,0.3,1.2,0.5,1.9,0.5c0.8,0,1.4-0.2,2-0.5c0.5-0.3,0.9-0.7,1.3-1.3c0.3-0.5,0.5-1.1,0.7-1.8C245.7,56.4,245.8,55.8,245.8,55z"
		/>
</g>
<g>
	<path class="st3" d="M75.6,2.1h10.8c1.5,0,2.8,0.2,3.8,0.7s1.9,1,2.6,1.7s1.1,1.5,1.4,2.4c0.3,0.9,0.5,1.9,0.5,2.8
		c0,1-0.2,1.9-0.5,2.8c-0.3,0.9-0.8,1.7-1.4,2.5s-1.5,1.3-2.6,1.7c-1,0.4-2.3,0.7-3.8,0.7h-5.5v8.6h-5.2V2.1z M80.8,13.3h4.1
		c0.6,0,1.2,0,1.7-0.1s1-0.3,1.5-0.5s0.8-0.6,1-1.1c0.3-0.5,0.4-1.1,0.4-1.8c0-0.8-0.1-1.4-0.4-1.8c-0.3-0.5-0.6-0.8-1-1.1
		c-0.4-0.3-0.9-0.4-1.5-0.5c-0.6-0.1-1.1-0.1-1.7-0.1h-4.1V13.3z"/>
	<path class="st3" d="M97.4,8.6h4.5v3.2h0.1c0.2-0.5,0.5-1,0.9-1.5c0.4-0.5,0.8-0.8,1.3-1.2c0.5-0.3,1-0.6,1.6-0.8s1.1-0.3,1.7-0.3
		c0.3,0,0.7,0.1,1,0.2v4.4c-0.2,0-0.5-0.1-0.8-0.1c-0.3,0-0.6-0.1-0.9-0.1c-0.9,0-1.6,0.1-2.2,0.4s-1.1,0.7-1.5,1.2
		c-0.4,0.5-0.6,1.1-0.8,1.8c-0.2,0.7-0.2,1.4-0.2,2.2v7.8h-4.7V8.6z"/>
	<path class="st3" d="M113.7,18.4c0.1,1.5,0.5,2.7,1.2,3.3c0.7,0.7,1.7,1,3.1,1c1,0,1.8-0.2,2.5-0.7c0.7-0.5,1.1-1,1.3-1.5h4.2
		c-0.7,2.1-1.7,3.6-3.1,4.4s-3.1,1.3-5,1.3c-1.4,0-2.6-0.2-3.7-0.7s-2-1.1-2.8-1.9c-0.8-0.8-1.3-1.8-1.8-2.9
		c-0.4-1.1-0.6-2.3-0.6-3.7c0-1.3,0.2-2.5,0.6-3.6s1-2.1,1.8-2.9c0.8-0.8,1.7-1.5,2.8-1.9s2.3-0.7,3.6-0.7c1.5,0,2.8,0.3,3.8,0.9
		c1.1,0.6,2,1.3,2.7,2.3s1.2,2,1.5,3.3c0.3,1.2,0.4,2.5,0.3,3.8H113.7z M121.4,15.4c-0.2-1.2-0.6-2.1-1.2-2.7
		c-0.6-0.6-1.4-0.9-2.6-0.9c-0.8,0-1.4,0.1-1.9,0.4c-0.5,0.3-0.9,0.6-1.2,1s-0.5,0.8-0.6,1.2s-0.2,0.8-0.2,1.1H121.4z"/>
	<path class="st3" d="M128.8,14c0.1-1.1,0.3-2,0.8-2.8s1.1-1.3,1.9-1.8c0.8-0.4,1.6-0.8,2.6-1c0.9-0.2,1.9-0.3,2.9-0.3
		c0.9,0,1.7,0.1,2.6,0.2c0.9,0.1,1.7,0.4,2.4,0.7s1.3,0.9,1.8,1.5s0.7,1.5,0.7,2.5v9c0,0.8,0,1.5,0.1,2.2s0.2,1.2,0.5,1.6h-4.8
		c-0.1-0.3-0.2-0.5-0.2-0.8c-0.1-0.3-0.1-0.6-0.1-0.9c-0.8,0.8-1.6,1.3-2.7,1.6c-1,0.3-2.1,0.5-3.1,0.5c-0.8,0-1.6-0.1-2.3-0.3
		c-0.7-0.2-1.3-0.5-1.9-0.9c-0.5-0.4-1-1-1.3-1.6c-0.3-0.6-0.5-1.4-0.5-2.3c0-1,0.2-1.8,0.5-2.4c0.3-0.6,0.8-1.1,1.3-1.5
		c0.5-0.4,1.2-0.7,1.9-0.9c0.7-0.2,1.4-0.3,2.1-0.5c0.7-0.1,1.4-0.2,2.1-0.3s1.3-0.2,1.8-0.3c0.5-0.1,1-0.3,1.3-0.6
		c0.3-0.3,0.5-0.6,0.4-1.1c0-0.5-0.1-0.9-0.3-1.2s-0.4-0.5-0.7-0.7s-0.6-0.3-1-0.3c-0.4-0.1-0.8-0.1-1.2-0.1c-0.9,0-1.7,0.2-2.2,0.6
		c-0.5,0.4-0.8,1.1-0.9,2H128.8z M139.7,17.5c-0.2,0.2-0.5,0.3-0.8,0.4c-0.3,0.1-0.6,0.2-1,0.3s-0.7,0.1-1.1,0.2s-0.8,0.1-1.1,0.2
		c-0.4,0.1-0.7,0.2-1.1,0.3c-0.3,0.1-0.6,0.3-0.9,0.5c-0.3,0.2-0.5,0.4-0.6,0.7c-0.2,0.3-0.2,0.7-0.2,1.1c0,0.4,0.1,0.8,0.2,1.1
		c0.2,0.3,0.4,0.5,0.6,0.7c0.3,0.2,0.6,0.3,0.9,0.4s0.7,0.1,1.1,0.1c0.9,0,1.7-0.2,2.2-0.5c0.5-0.3,0.9-0.7,1.1-1.1
		c0.2-0.4,0.4-0.9,0.5-1.3c0.1-0.4,0.1-0.8,0.1-1.1V17.5z"/>
	<path class="st3" d="M160.5,23.7L160.5,23.7c-0.6,0.9-1.4,1.6-2.3,2s-1.9,0.6-3.1,0.6c-1.3,0-2.4-0.3-3.4-0.8c-1-0.5-1.8-1.2-2.4-2
		c-0.6-0.9-1.1-1.8-1.4-3c-0.3-1.1-0.5-2.3-0.5-3.5c0-1.2,0.2-2.3,0.5-3.4s0.8-2,1.4-2.9c0.6-0.8,1.4-1.5,2.4-2
		c1-0.5,2.1-0.8,3.3-0.8c1,0,2,0.2,2.9,0.7c0.9,0.4,1.7,1.1,2.2,1.9h0.1V2.1h4.7v23.9h-4.5V23.7z M160.4,17.2c0-0.7-0.1-1.4-0.2-2.1
		s-0.4-1.2-0.7-1.7c-0.3-0.5-0.7-0.9-1.3-1.2c-0.5-0.3-1.2-0.5-1.9-0.5c-0.8,0-1.4,0.2-2,0.5c-0.5,0.3-1,0.7-1.3,1.2
		c-0.3,0.5-0.6,1.1-0.7,1.8c-0.1,0.7-0.2,1.3-0.2,2.1c0,0.7,0.1,1.3,0.2,2c0.2,0.7,0.4,1.3,0.8,1.8c0.3,0.5,0.8,0.9,1.3,1.3
		s1.2,0.5,1.9,0.5c0.8,0,1.4-0.2,2-0.5s0.9-0.7,1.3-1.3c0.3-0.5,0.5-1.1,0.7-1.8C160.3,18.6,160.4,17.9,160.4,17.2z"/>
	<path class="st3" d="M168,17.3c0-1.4,0.2-2.6,0.6-3.8c0.4-1.1,1-2.1,1.8-2.9c0.8-0.8,1.7-1.4,2.8-1.8c1.1-0.4,2.3-0.7,3.7-0.7
		c1.4,0,2.6,0.2,3.7,0.7c1.1,0.4,2,1,2.8,1.8c0.8,0.8,1.4,1.7,1.8,2.9c0.4,1.1,0.6,2.4,0.6,3.8s-0.2,2.6-0.6,3.7
		c-0.4,1.1-1,2.1-1.8,2.9c-0.8,0.8-1.7,1.4-2.8,1.8c-1.1,0.4-2.3,0.6-3.7,0.6c-1.4,0-2.6-0.2-3.7-0.6c-1.1-0.4-2-1-2.8-1.8
		c-0.8-0.8-1.4-1.7-1.8-2.9C168.2,19.9,168,18.7,168,17.3z M172.8,17.3c0,0.7,0.1,1.4,0.2,2s0.4,1.2,0.7,1.8s0.8,0.9,1.3,1.3
		c0.5,0.3,1.2,0.5,2,0.5c0.8,0,1.5-0.2,2-0.5s1-0.7,1.3-1.3c0.3-0.5,0.6-1.1,0.7-1.8s0.2-1.3,0.2-2s-0.1-1.4-0.2-2
		c-0.1-0.7-0.4-1.3-0.7-1.8c-0.3-0.5-0.8-0.9-1.3-1.3c-0.5-0.3-1.2-0.5-2-0.5c-0.8,0-1.5,0.2-2,0.5c-0.5,0.3-1,0.7-1.3,1.3
		c-0.3,0.5-0.6,1.1-0.7,1.8C172.8,15.9,172.8,16.6,172.8,17.3z"/>
	<path class="st3" d="M189,8.6h4.5v2.4h0.1c0.6-1,1.4-1.7,2.3-2.2c1-0.5,1.9-0.7,2.9-0.7c1.3,0,2.3,0.2,3.1,0.5
		c0.8,0.3,1.5,0.8,1.9,1.4c0.5,0.6,0.8,1.4,1,2.2c0.2,0.9,0.3,1.9,0.3,2.9v10.6h-4.7v-9.8c0-1.4-0.2-2.5-0.7-3.2
		c-0.4-0.7-1.2-1.1-2.4-1.1c-1.3,0-2.2,0.4-2.8,1.2c-0.6,0.8-0.9,2-0.9,3.8v9.1H189V8.6z"/>
	<path class="st3" d="M213.7,6h-4.7V2.1h4.7V6z M208.9,8.6h4.7v17.3h-4.7V8.6z"/>
	<path class="st3" d="M221.1,20.3c0,0.5,0.1,1,0.3,1.3s0.5,0.7,0.8,0.9c0.3,0.2,0.7,0.4,1.2,0.5c0.4,0.1,0.9,0.2,1.4,0.2
		c0.3,0,0.7,0,1.1-0.1c0.4-0.1,0.7-0.2,1-0.4s0.6-0.4,0.8-0.7c0.2-0.3,0.3-0.6,0.3-1.1c0-0.7-0.5-1.2-1.4-1.6
		c-0.9-0.4-2.3-0.7-4-1.1c-0.7-0.2-1.4-0.3-2-0.6c-0.7-0.2-1.2-0.5-1.8-0.8c-0.5-0.3-0.9-0.8-1.2-1.3c-0.3-0.5-0.5-1.2-0.5-1.9
		c0-1.1,0.2-2,0.7-2.7s1-1.3,1.7-1.7s1.5-0.7,2.4-0.9c0.9-0.2,1.8-0.3,2.7-0.3s1.8,0.1,2.7,0.3s1.7,0.5,2.4,0.9
		c0.7,0.4,1.3,1,1.7,1.7c0.5,0.7,0.7,1.6,0.8,2.7h-4.5c-0.1-0.9-0.4-1.5-1-1.9c-0.6-0.3-1.4-0.5-2.2-0.5c-0.3,0-0.6,0-0.9,0.1
		c-0.3,0-0.6,0.1-0.9,0.2c-0.3,0.1-0.5,0.3-0.7,0.5c-0.2,0.2-0.3,0.5-0.3,0.9c0,0.4,0.2,0.8,0.5,1c0.3,0.3,0.7,0.5,1.2,0.7
		c0.5,0.2,1.1,0.3,1.7,0.5c0.6,0.1,1.3,0.3,2,0.4c0.7,0.2,1.4,0.3,2,0.6c0.7,0.2,1.2,0.5,1.8,0.9s0.9,0.8,1.2,1.4s0.5,1.2,0.5,2
		c0,1.1-0.2,2.1-0.7,2.9c-0.5,0.8-1.1,1.4-1.8,1.9s-1.6,0.8-2.5,1c-0.9,0.2-1.9,0.3-2.9,0.3c-1,0-2-0.1-2.9-0.3
		c-1-0.2-1.8-0.5-2.6-1c-0.7-0.5-1.4-1.1-1.8-1.9c-0.5-0.8-0.7-1.7-0.8-2.9H221.1z"/>
</g>
<g>
</g>
<g>
</g>
<g>
</g>
<g>
</g>
<g>
</g>
<g>
</g>
</svg>
