<?xml version="1.0" encoding="utf-8"?>
<!-- Generator: Adobe Illustrator 19.2.0, SVG Export Plug-In . SVG Version: 6.00 Build 0)  -->
<svg version="1.1" xmlns="http://www.w3.org/2000/svg" xmlns:xlink="http://www.w3.org/1999/xlink" x="0px" y="0px"
	 viewBox="0 0 580 400" style="enable-background:new 0 0 580 400;" xml:space="preserve">
<style type="text/css">
	.st0{fill:#FFFFFF;}
	.st1{fill:#00AADD;}
	.st2{fill:#EF2626;}
</style>
<g id="Layer_1">
	<g>
		<path class="st0" d="M-715.8,46c2.3,0,3.5,1.5,3.5,3.6c0,1.5-0.8,2.3-1.4,2.7c0.8,0.4,1.8,1.2,1.8,3c0,2.2-1.4,3.7-3.8,3.7h-4.9
			V46H-715.8z M-716.2,51.7c1.5,0,2.1-0.9,2.1-2.1c0-1.3-0.6-2.1-2.1-2.1h-2.6v4.3H-716.2z M-716.1,57.6c1.6,0,2.3-0.8,2.3-2.2
			c0-1.5-0.7-2.2-2.3-2.2h-2.7v4.5H-716.1z"/>
		<path class="st0" d="M-704.8,45.9c3.1,0,5.1,2,5.1,6.7s-1.9,6.7-5.1,6.7s-5.1-2-5.1-6.7C-709.9,47.9-707.9,45.9-704.8,45.9z
			 M-704.8,47.4c-1.9,0-3.2,1.2-3.2,5.1s1.2,5.1,3.2,5.1c1.9,0,3.2-1.2,3.2-5.1S-702.9,47.4-704.8,47.4z"/>
		<path class="st0" d="M-690.2,46.2c0.2-0.1,0.6-0.1,0.9-0.1c0.4,0,0.7,0.1,1,0.1l-4.1,5.9l4.6,6.8c0,0-0.4,0.1-1.1,0.1
			c-0.7,0-1.1-0.1-1.1-0.1l-4-5.9h-1.3v5.9c0,0-0.3,0.1-0.9,0.1c-0.6,0-0.9-0.1-0.9-0.1V46.2c0,0,0.3-0.1,0.9-0.1
			c0.6,0,0.9,0.1,0.9,0.1v5.4h1.3L-690.2,46.2z"/>
		<path class="st0" d="M-681.7,46c0.7,0,1.1,0.1,1.1,0.1l4.5,12.7c0,0-0.3,0.1-1,0.1c-0.6,0-0.9-0.1-0.9-0.1l-1.1-3.2h-5.3l-1.1,3.2
			c0,0-0.3,0.1-0.9,0.1c-0.6,0-0.8-0.1-0.8-0.1l4.5-12.7C-682.8,46.2-682.3,46-681.7,46z M-681.8,48c0,0-0.2,0.7-0.5,1.6l-1.7,4.6
			h4.3l-1.6-4.6C-681.6,48.7-681.7,48-681.8,48L-681.8,48z"/>
		<path class="st0" d="M-663.4,46c0,0,0.1,0.3,0.1,0.8c0,0.5-0.1,0.8-0.1,0.8h-3.3v11.3c0,0-0.3,0.1-0.9,0.1c-0.6,0-0.9-0.1-0.9-0.1
			V47.6h-3.4c0,0-0.1-0.3-0.1-0.8c0-0.4,0.1-0.8,0.1-0.8H-663.4z"/>
		<path class="st0" d="M-661.2,46.2c0,0,0.3-0.1,0.9-0.1c0.6,0,0.9,0.1,0.9,0.1v12.7c0,0-0.3,0.1-0.9,0.1c-0.6,0-0.9-0.1-0.9-0.1
			V46.2z"/>
		<path class="st0" d="M-652.1,46c3.3,0,5.3,1.7,5.3,6.5s-2,6.5-5.3,6.5h-4V46H-652.1z M-652.3,57.5c2.1,0,3.5-0.9,3.5-5
			c0-4.1-1.4-5-3.5-5h-2v9.9H-652.3z"/>
		<path class="st0" d="M-694.5,72.3c-0.7-1.2-1.1-2.3-1.1-2.3h-0.1c0,0,0.1,1.2,0.1,3v7.5c0,0-0.3,0.1-0.9,0.1
			c-0.6,0-0.8-0.1-0.8-0.1V67.8c0,0,0.4-0.1,1.1-0.1c0.7,0,1.1,0.1,1.1,0.1l4.5,8.1c0.6,1.2,1.1,2.4,1.1,2.4h0.1c0,0-0.1-1.3-0.1-3
			v-7.5c0,0,0.3-0.1,0.9-0.1c0.6,0,0.8,0.1,0.8,0.1v12.7c0,0-0.3,0.1-1.1,0.1c-0.7,0-1.1-0.1-1.1-0.1L-694.5,72.3z"/>
		<path class="st0" d="M-675.6,76.2c0,2.9-1.8,4.6-4.6,4.6c-2.7,0-4.5-1.7-4.5-4.6v-8.4c0,0,0.3-0.1,0.9-0.1c0.6,0,0.9,0.1,0.9,0.1
			v8.7c0,1.7,1,2.7,2.7,2.7c1.7,0,2.7-1,2.7-2.7v-8.7c0,0,0.3-0.1,0.9-0.1c0.6,0,0.9,0.1,0.9,0.1V76.2z"/>
		<path class="st0" d="M-672.6,67.8c0,0,0.3-0.1,1-0.1c0.6,0,1,0.1,1,0.1l-0.3,9.4c0,0-0.2,0.1-0.6,0.1c-0.4,0-0.7-0.1-0.7-0.1
			L-672.6,67.8z M-670.7,80.5c0,0-0.3,0.1-0.9,0.1c-0.6,0-0.9-0.1-0.9-0.1v-1.7c0,0,0.3-0.1,0.9-0.1c0.6,0,0.9,0.1,0.9,0.1V80.5z"/>
	</g>
	<g>
		<path class="st1" d="M141.2,356.4c-0.5-1.7-0.6-2.8-0.7-3.6h-0.1c0,0.8-0.2,1.9-0.7,3.6l-2,6.8c-0.4,0.1-0.9,0.2-1.4,0.2
			c-0.5,0-1,0-1.5-0.2l-3.8-12.8c0,0,0.4-0.2,1.2-0.2c0.8,0,1.1,0.2,1.1,0.2l2.4,8c0.3,1.1,0.5,1.9,0.5,2.5h0.1
			c0.1-0.5,0.2-1.3,0.6-2.5l2.3-8c0,0,0.6-0.2,1.3-0.2c0.8,0,1.2,0.2,1.2,0.2l2.2,7.9c0.3,1.1,0.5,2,0.5,2.5h0.1
			c0.1-0.5,0.3-1.3,0.6-2.5l2.3-7.9c0,0,0.4-0.2,1.1-0.2c0.8,0,1.1,0.2,1.1,0.2l-3.8,12.8c-0.4,0.1-0.9,0.2-1.4,0.2
			c-0.5,0-1,0-1.5-0.2L141.2,356.4z"/>
		<path class="st1" d="M161.2,356.4c-0.5-1.7-0.6-2.8-0.7-3.6h-0.1c0,0.8-0.2,1.9-0.7,3.6l-2,6.8c-0.4,0.1-0.9,0.2-1.4,0.2
			c-0.5,0-1,0-1.5-0.2l-3.8-12.8c0,0,0.4-0.2,1.2-0.2c0.8,0,1.1,0.2,1.1,0.2l2.4,8c0.3,1.1,0.5,1.9,0.5,2.5h0.1
			c0.1-0.5,0.2-1.3,0.6-2.5l2.3-8c0,0,0.6-0.2,1.3-0.2c0.8,0,1.2,0.2,1.2,0.2l2.2,7.9c0.3,1.1,0.5,2,0.5,2.5h0.1
			c0.1-0.5,0.3-1.3,0.6-2.5l2.3-7.9c0,0,0.4-0.2,1.1-0.2c0.8,0,1.1,0.2,1.1,0.2l-3.8,12.8c-0.4,0.1-0.9,0.2-1.4,0.2
			c-0.5,0-1,0-1.5-0.2L161.2,356.4z"/>
		<path class="st1" d="M181.1,356.4c-0.5-1.7-0.6-2.8-0.7-3.6h-0.1c-0.1,0.8-0.2,1.9-0.7,3.6l-2,6.8c-0.4,0.1-0.9,0.2-1.4,0.2
			c-0.5,0-1,0-1.4-0.2l-3.8-12.8c0,0,0.5-0.2,1.3-0.2c0.8,0,1.1,0.2,1.1,0.2l2.4,8c0.3,1.1,0.4,1.9,0.5,2.5h0.1
			c0.1-0.5,0.2-1.3,0.5-2.5l2.3-8c0,0,0.6-0.2,1.3-0.2c0.8,0,1.2,0.2,1.2,0.2l2.2,7.9c0.3,1.1,0.4,2,0.5,2.5h0.1
			c0.1-0.5,0.3-1.3,0.6-2.5l2.3-7.9c0,0,0.4-0.2,1.1-0.2c0.8,0,1.1,0.2,1.1,0.2l-3.8,12.8c-0.5,0.1-0.9,0.2-1.4,0.2
			c-0.5,0-1,0-1.4-0.2L181.1,356.4z"/>
		<path class="st1" d="M193.6,363.2c0,0-0.5,0.2-1.3,0.2c-0.9,0-1.3-0.2-1.3-0.2v-2.3c0,0,0.4-0.2,1.3-0.2c0.8,0,1.3,0.2,1.3,0.2
			V363.2z"/>
		<path class="st1" d="M201.6,349.9c3.6,0,4.8,1.6,4.8,4.8v8.4c0,0-0.3,0.2-1,0.2c-0.6,0-1-0.2-1-0.2l-0.4-1.6c-0.7,1.3-2,2-3.9,2
			c-2.3,0-3.9-1.4-3.9-4.2c0-2.7,1.7-3.9,4.8-3.9c1.1,0,2.2,0.1,2.8,0.1v-0.9c0-1.7-0.6-2.7-2.6-2.7c-1.8,0-3.3,0.6-3.3,0.6
			c0,0-0.3-0.2-0.6-0.8c-0.2-0.5-0.2-1-0.2-1C197.3,350.9,199.1,349.9,201.6,349.9z M201.4,357.2c-1.7,0-2.5,0.7-2.5,2.2
			c0,1.6,0.8,2.2,2.2,2.2c2,0,2.9-1.7,2.9-3.4v-0.9C203.3,357.3,202.3,357.2,201.4,357.2z"/>
		<path class="st1" d="M209.9,350.4c0,0,0.4-0.2,1.2-0.2c0.9,0,1.3,0.2,1.3,0.2v9c0,1.4,0.7,2.2,2.3,2.2c1.1,0,2.1-0.6,2.8-1.6v-9.6
			c0,0,0.5-0.2,1.3-0.2c0.9,0,1.3,0.2,1.3,0.2v12.8c0,0-0.4,0.2-1.3,0.2c-0.8,0-1.3-0.2-1.3-0.2V362c-0.9,1-2.2,1.6-3.8,1.6
			c-2.5,0-3.9-1.5-3.9-3.8V350.4z"/>
		<path class="st1" d="M227,358.6c0,2.3,0.7,2.9,2.5,2.9c0.5,0,1-0.1,1-0.1s0.2,0.4,0.2,1c0,0.6-0.1,0.9-0.1,0.9
			c-0.5,0.1-1.1,0.2-1.8,0.2c-3.1,0-4.3-1.7-4.3-4.8v-6.7h-1.9c0,0-0.2-0.3-0.2-0.9c0-0.6,0.2-0.9,0.2-0.9h1.9v-2.3
			c0.6-0.4,1.6-0.6,2.5-0.5v2.8h3.2c0,0,0.2,0.3,0.2,0.9c0,0.6-0.2,0.9-0.2,0.9H227V358.6z"/>
		<path class="st1" d="M238.1,349.9c3.4,0,5.5,1.9,5.5,6.8c0,4.9-2.1,6.8-5.5,6.8c-3.4,0-5.5-1.9-5.5-6.8
			C232.5,351.8,234.7,349.9,238.1,349.9z M238.1,351.9c-1.8,0-3,1-3,4.9c0,3.8,1.2,4.9,3,4.9c1.8,0,3-1,3-4.9
			C241.1,352.9,239.9,351.9,238.1,351.9z"/>
		<path class="st1" d="M250.8,349.9c2.4,0,3.5,0.7,3.5,0.7c0,0.6-0.2,1.4-0.7,1.8c0,0-1.2-0.4-2.6-0.4c-1.7,0-2.5,0.6-2.5,1.8
			c0,1.2,1.6,1.5,3.1,2c1.6,0.5,3.3,1.3,3.3,3.7c0,2.5-1.6,4-4.7,4c-2.6,0-4.2-0.9-4.2-0.9c0-0.7,0.2-1.4,0.7-1.8
			c0,0,1.6,0.6,3.4,0.6c1.5,0,2.4-0.6,2.4-1.8c0-1.4-1.4-1.7-2.8-2.1c-1.7-0.5-3.5-1.2-3.5-3.7C246.1,351.5,247.7,349.9,250.8,349.9
			z"/>
		<path class="st1" d="M259.9,357.5c0.2,3,1.4,3.9,3.5,3.9c1.8,0,2.9-0.7,2.9-0.7c0.4,0.4,0.8,1.1,0.8,1.8c0,0-1.4,1-4.1,1
			c-3.8,0-5.6-2.4-5.6-6.9c0-4.7,2.2-6.7,5.5-6.7c3.1,0,4.9,1.7,4.9,5c0,1.6-0.3,2.6-0.3,2.6H259.9z M262.8,351.9
			c-1.6,0-2.8,1.1-3,3.8h5.3c0-0.2,0.1-0.6,0.1-1.1C265.3,353.2,264.7,351.9,262.8,351.9z"/>
		<path class="st1" d="M276.3,350c0.9,0,1.6,0.3,2.2,0.6c-0.1,0.9-0.4,1.5-1.1,2.1c-0.5-0.3-1-0.5-1.5-0.5c-1,0-1.9,0.8-2.6,1.9v9.1
			c0,0-0.4,0.2-1.2,0.2c-0.9,0-1.3-0.2-1.3-0.2v-12.8c0,0,0.4-0.2,1.3-0.2c0.8,0,1.2,0.2,1.2,0.2v1.7
			C274.2,350.5,275.3,350,276.3,350z"/>
		<path class="st1" d="M284.5,358.2c0.5,1.4,0.7,2.7,0.7,2.7h0.1c0,0,0.3-1.2,0.8-2.7l2.7-7.9c0,0,0.4-0.2,1.1-0.2
			c0.8,0,1.2,0.2,1.2,0.2l-4.4,12.8c0,0-0.6,0.2-1.5,0.2c-0.9,0-1.5-0.2-1.5-0.2l-4.5-12.8c0,0,0.5-0.2,1.3-0.2
			c0.9,0,1.3,0.2,1.3,0.2L284.5,358.2z"/>
		<path class="st1" d="M296.1,347.7c0,0-0.4,0.2-1.3,0.2c-0.9,0-1.3-0.2-1.3-0.2v-2.3c0,0,0.4-0.2,1.3-0.2c0.9,0,1.3,0.2,1.3,0.2
			V347.7z M296,363.2c0,0-0.4,0.2-1.3,0.2c-0.9,0-1.2-0.2-1.2-0.2v-12.8c0,0,0.4-0.2,1.2-0.2c0.8,0,1.3,0.2,1.3,0.2V363.2z"/>
		<path class="st1" d="M301.7,356.8c0,3.3,1,4.7,3.4,4.7c1.4,0,2.3-0.4,2.3-0.4c0.4,0.4,0.7,1.1,0.7,1.8c0,0-1.1,0.8-3.6,0.8
			c-3.6,0-5.5-2.4-5.5-6.8s1.8-6.8,5.5-6.8c2.4,0,3.3,0.6,3.3,0.6c0,0.7-0.3,1.4-0.7,1.8c0,0-0.9-0.4-2.2-0.4
			C302.7,352,301.7,353.5,301.7,356.8z"/>
		<path class="st1" d="M312.9,357.5c0.2,3,1.4,3.9,3.5,3.9c1.8,0,2.9-0.7,2.9-0.7c0.4,0.4,0.8,1.1,0.8,1.8c0,0-1.4,1-4.1,1
			c-3.8,0-5.6-2.4-5.6-6.9c0-4.7,2.2-6.7,5.5-6.7c3.1,0,4.9,1.7,4.9,5c0,1.6-0.3,2.6-0.3,2.6H312.9z M315.9,351.9
			c-1.6,0-2.8,1.1-3,3.8h5.3c0-0.2,0.1-0.6,0.1-1.1C318.3,353.2,317.7,351.9,315.9,351.9z"/>
		<path class="st1" d="M326.2,351.6c0.7-1,1.8-1.6,3.6-1.6c2.8,0,4.7,1.7,4.7,6.8s-1.8,6.8-4.7,6.8c-1.8,0-2.9-0.6-3.6-1.6v1.2
			c0,0-0.4,0.2-1.3,0.2c-0.8,0-1.2-0.2-1.2-0.2v-18.4c0,0,0.4-0.2,1.2-0.2c0.8,0,1.3,0.2,1.3,0.2V351.6z M329,352
			c-1.7,0-2.7,1.4-2.7,3.1v3.2c0,1.7,1,3.2,2.7,3.2c2,0,3-1,3-4.8C332,353,331,352,329,352z"/>
		<path class="st1" d="M342.6,349.9c3.4,0,5.5,1.9,5.5,6.8c0,4.9-2.1,6.8-5.5,6.8c-3.4,0-5.5-1.9-5.5-6.8
			C337.1,351.8,339.2,349.9,342.6,349.9z M342.6,351.9c-1.8,0-3,1-3,4.9c0,3.8,1.2,4.9,3,4.9c1.8,0,3-1,3-4.9
			C345.6,352.9,344.4,351.9,342.6,351.9z"/>
		<path class="st1" d="M354.4,358.6c0,2.3,0.7,2.9,2.5,2.9c0.5,0,1-0.1,1-0.1s0.2,0.4,0.2,1c0,0.6-0.1,0.9-0.1,0.9
			c-0.5,0.1-1.1,0.2-1.8,0.2c-3.1,0-4.3-1.7-4.3-4.8v-6.7H350c0,0-0.2-0.3-0.2-0.9c0-0.6,0.2-0.9,0.2-0.9h1.9v-2.3
			c0.7-0.4,1.6-0.6,2.5-0.5v2.8h3.2c0,0,0.1,0.3,0.1,0.9c0,0.6-0.1,0.9-0.1,0.9h-3.2V358.6z"/>
		<path class="st1" d="M367.8,350.4c0,0,0.5-0.2,1.3-0.2c0.7,0,1.2,0.1,1.2,0.1l-3.8,6l4.4,6.8c0,0-0.5,0.2-1.4,0.2
			s-1.3-0.2-1.3-0.2l-3.7-5.7H363v5.7c0,0-0.5,0.2-1.2,0.2c-0.8,0-1.3-0.2-1.3-0.2v-18.4c0,0,0.5-0.1,1.3-0.1c0.7,0,1.2,0.1,1.2,0.1
			v10.8h1.4L367.8,350.4z"/>
		<path class="st1" d="M379,365.3c-0.9,2.7-1.8,4.3-4.5,4.3c-0.8,0-1.4-0.3-1.4-0.3c0,0-0.2-0.4-0.2-0.9c0-0.5,0.2-1,0.2-1
			c0,0,0.5,0.1,1.1,0.1c1.1,0,1.7-0.3,2.4-2.6l0.5-1.5c-0.3,0-0.5,0-0.8-0.2l-4.7-12.8c0,0,0.5-0.2,1.3-0.2c0.8,0,1.3,0.2,1.3,0.2
			l2.8,7.6c0.6,1.7,0.9,2.9,0.9,2.9h0.1c0,0,0.3-1.2,0.8-2.9l2.5-7.6c0,0,0.4-0.2,1.2-0.2c0.7,0,1.2,0.2,1.2,0.2L379,365.3z"/>
		<path class="st1" d="M391.7,350c0.9,0,1.6,0.3,2.2,0.6c-0.1,0.9-0.4,1.5-1.1,2.1c-0.5-0.3-1-0.5-1.5-0.5c-1,0-1.9,0.8-2.6,1.9v9.1
			c0,0-0.4,0.2-1.2,0.2c-0.9,0-1.3-0.2-1.3-0.2v-12.8c0,0,0.4-0.2,1.3-0.2c0.8,0,1.2,0.2,1.2,0.2v1.7
			C389.6,350.5,390.7,350,391.7,350z"/>
		<path class="st1" d="M403.4,350.4c0,0,0.5-0.2,1.3-0.2c0.7,0,1.2,0.1,1.2,0.1l-3.8,6l4.4,6.8c0,0-0.5,0.2-1.4,0.2
			s-1.3-0.2-1.3-0.2l-3.7-5.7h-1.4v5.7c0,0-0.5,0.2-1.2,0.2c-0.8,0-1.3-0.2-1.3-0.2v-18.4c0,0,0.5-0.1,1.3-0.1
			c0.7,0,1.2,0.1,1.2,0.1v10.8h1.4L403.4,350.4z"/>
		<path class="st1" d="M413.1,349.9c3.6,0,4.8,1.6,4.8,4.8v8.4c0,0-0.3,0.2-1,0.2c-0.6,0-1-0.2-1-0.2l-0.4-1.6c-0.6,1.3-2,2-3.9,2
			c-2.3,0-3.9-1.4-3.9-4.2c0-2.7,1.7-3.9,4.8-3.9c1.1,0,2.2,0.1,2.8,0.1v-0.9c0-1.7-0.7-2.7-2.6-2.7c-1.8,0-3.3,0.6-3.3,0.6
			c0,0-0.3-0.2-0.6-0.8c-0.2-0.5-0.1-1-0.1-1C408.7,350.9,410.6,349.9,413.1,349.9z M412.9,357.2c-1.7,0-2.5,0.7-2.5,2.2
			c0,1.6,0.8,2.2,2.2,2.2c2,0,2.9-1.7,2.9-3.4v-0.9C414.8,357.3,413.8,357.2,412.9,357.2z"/>
		<path class="st1" d="M423.8,363.2c0,0-0.5,0.2-1.3,0.2c-0.9,0-1.3-0.2-1.3-0.2v-2.3c0,0,0.4-0.2,1.3-0.2c0.8,0,1.3,0.2,1.3,0.2
			V363.2z"/>
		<path class="st1" d="M431.4,349.9c2.4,0,3.5,0.7,3.5,0.7c0,0.6-0.2,1.4-0.7,1.8c0,0-1.2-0.4-2.6-0.4c-1.7,0-2.5,0.6-2.5,1.8
			c0,1.2,1.6,1.5,3.1,2c1.6,0.5,3.3,1.3,3.3,3.7c0,2.5-1.6,4-4.7,4c-2.6,0-4.2-0.9-4.2-0.9c0-0.7,0.2-1.4,0.7-1.8
			c0,0,1.6,0.6,3.4,0.6c1.5,0,2.4-0.6,2.4-1.8c0-1.4-1.4-1.7-2.8-2.1c-1.7-0.5-3.5-1.2-3.5-3.7C426.7,351.5,428.2,349.9,431.4,349.9
			z"/>
		<path class="st1" d="M440.4,357.5c0.2,3,1.4,3.9,3.5,3.9c1.8,0,2.9-0.7,2.9-0.7c0.4,0.4,0.8,1.1,0.8,1.8c0,0-1.4,1-4.1,1
			c-3.8,0-5.6-2.4-5.6-6.9c0-4.7,2.2-6.7,5.5-6.7c3.1,0,4.9,1.7,4.9,5c0,1.6-0.3,2.6-0.3,2.6H440.4z M443.4,351.9
			c-1.6,0-2.8,1.1-3,3.8h5.3c0-0.2,0.1-0.6,0.1-1.1C445.9,353.2,445.3,351.9,443.4,351.9z"/>
	</g>
</g>
<g id="Layer_2">
	<g>
		<path class="st1" d="M-2172.4,148.6c0,0,0.4,0.8,0.4,1.9c0,1.2-0.4,2-0.4,2h-8.4v28.1c0,0-0.8,0.3-2.3,0.3c-1.6,0-2.3-0.3-2.3-0.3
			v-28.1h-8.6c0,0-0.4-0.8-0.4-2c0-1.1,0.4-2,0.4-2H-2172.4z"/>
		<path class="st1" d="M-2163.1,152.8c0,0-0.8,0.3-2.3,0.3c-1.6,0-2.3-0.3-2.3-0.3v-4.2c0,0,0.7-0.3,2.3-0.3c1.5,0,2.3,0.3,2.3,0.3
			V152.8z M-2163.2,180.7c0,0-0.8,0.3-2.2,0.3c-1.6,0-2.3-0.3-2.3-0.3v-23c0,0,0.7-0.3,2.3-0.3c1.5,0,2.2,0.3,2.2,0.3V180.7z"/>
		<path class="st1" d="M-2151.9,180.7c0,0-0.8,0.3-2.2,0.3c-1.6,0-2.3-0.3-2.3-0.3v-33.1c0,0,0.7-0.3,2.3-0.3c1.5,0,2.2,0.3,2.2,0.3
			V180.7z"/>
		<path class="st1" d="M-2140.5,180.7c0,0-0.8,0.3-2.2,0.3c-1.6,0-2.3-0.3-2.3-0.3v-33.1c0,0,0.7-0.3,2.3-0.3c1.5,0,2.2,0.3,2.2,0.3
			V180.7z"/>
		<path class="st1" d="M-2125,147.3c3,0,4.9,0.9,4.9,0.9c0,1.3-0.4,2.3-1.2,3.1c0,0-1.4-0.5-3.5-0.5c-2.6,0-3.3,1.2-3.3,3.6v2.9h5.6
			c0.1,0.5,0.2,1.1,0.2,1.8c0,0.6-0.1,1.1-0.2,1.6h-5.6v20c0,0-0.8,0.3-2.3,0.3c-1.6,0-2.3-0.3-2.3-0.3v-20h-3
			c-0.1-0.5-0.2-1.1-0.2-1.7c0-0.7,0.1-1.2,0.2-1.7h3v-2.7C-2132.5,150.3-2130.7,147.3-2125,147.3z"/>
		<path class="st1" d="M-2109.8,156.9c6.5,0,8.6,2.9,8.6,8.7v15.1c0,0-0.5,0.3-1.8,0.3c-1.1,0-1.8-0.3-1.8-0.3l-0.7-2.9
			c-1.2,2.4-3.6,3.6-7.1,3.6c-4.2,0-7-2.5-7-7.5c0-4.8,3-7.1,8.6-7.1c2,0,4,0.1,5.1,0.3v-1.9c0-2.9-1.2-4.5-4.6-4.5
			c-3.1,0-6,1.1-6,1.1c0,0-0.6-0.4-1-1.3c-0.4-0.9-0.3-1.8-0.3-1.9C-2117.7,158.5-2114.3,156.9-2109.8,156.9z M-2113.4,149
			c1.4,0,2.1,0.3,2.1,0.3v3.6c0,0-0.7,0.3-2.1,0.3c-1.4,0-2-0.3-2-0.3v-3.6C-2115.4,149.3-2114.8,149-2113.4,149z M-2110.2,169.9
			c-3,0-4.6,1.2-4.6,4c0,2.9,1.5,4.1,3.9,4.1c3.6,0,5.2-3,5.2-6.2v-1.6C-2106.7,170.1-2108.5,169.9-2110.2,169.9z M-2105.7,149
			c1.4,0,2,0.3,2,0.3v3.6c0,0-0.7,0.3-2,0.3c-1.4,0-2.1-0.3-2.1-0.3v-3.6C-2107.8,149.3-2107.1,149-2105.7,149z"/>
		<path class="st1" d="M-2090.2,180.7c0,0-0.8,0.3-2.3,0.3c-1.6,0-2.3-0.3-2.3-0.3v-33.1c0,0,0.7-0.3,2.3-0.3c1.5,0,2.3,0.3,2.3,0.3
			V180.7z"/>
		<path class="st1" d="M-2078.8,180.7c0,0-0.8,0.3-2.3,0.3c-1.6,0-2.3-0.3-2.3-0.3v-33.1c0,0,0.7-0.3,2.3-0.3c1.5,0,2.3,0.3,2.3,0.3
			V180.7z"/>
		<path class="st1" d="M-2067.4,152.8c0,0-0.8,0.3-2.3,0.3c-1.6,0-2.3-0.3-2.3-0.3v-4.2c0,0,0.7-0.3,2.3-0.3c1.5,0,2.3,0.3,2.3,0.3
			V152.8z M-2067.5,180.7c0,0-0.8,0.3-2.2,0.3c-1.6,0-2.3-0.3-2.3-0.3v-23c0,0,0.7-0.3,2.3-0.3c1.5,0,2.2,0.3,2.2,0.3V180.7z"/>
		<path class="st1" d="M-2041.7,156.9c0.4,0.9,0.4,2.6,0,3.6l-3.7-0.2c0.9,1.3,1.3,2.8,1.3,4.7c0,5-3,8.1-8.8,8.1
			c-0.7,0-1.4,0-2-0.1c-0.5,0.7-0.9,1.6-0.9,2.6c0.5,4.1,14.1-0.3,14.1,9c0,4.4-4.3,7.7-11.6,7.7c-6.8,0-9.6-2.7-9.6-6.3
			c0-3.4,2.8-5.5,4-6.2c-0.6-0.6-1-1.5-1-2.6c0-2,1.1-3.8,2.2-5c-2.7-1.3-4.1-3.8-4.1-7.2c0-5,3.1-8.1,8.8-8.1c2,0,3.7,0.4,5,1
			L-2041.7,156.9z M-2056.4,181c-1.1,0.9-2.1,2.4-2.1,4.1c0,2.3,1.7,4,5.4,4c4.6,0,7.2-1.7,7.2-4
			C-2046,181.3-2052.4,182.3-2056.4,181z M-2052.9,160c-2.7,0-4.5,1.6-4.5,4.9c0,3.4,1.8,4.9,4.5,4.9s4.5-1.5,4.5-4.9
			C-2048.4,161.6-2050.2,160-2052.9,160z"/>
		<path class="st1" d="M-2030.9,172.5c0,4.1,1.3,5.3,4.5,5.3c0.9,0,1.9-0.2,1.9-0.2s0.3,0.8,0.3,1.8c0,1-0.2,1.6-0.2,1.6
			c-0.8,0.2-2,0.4-3.2,0.4c-5.5,0-7.7-3-7.7-8.7v-12h-3.5c0,0-0.3-0.6-0.3-1.7c0-1.1,0.3-1.7,0.3-1.7h3.5v-4.1
			c1.2-0.7,2.8-1,4.5-0.9v5h5.9c0,0,0.3,0.6,0.3,1.7c0,1-0.3,1.7-0.3,1.7h-5.9V172.5z"/>
		<path class="st1" d="M-2205.5,202.6c0.2,0.5,0.4,1.1,0.4,1.8c0,0.7-0.1,1.4-0.4,2h-13.7v10.4h11.4c0.2,0.5,0.4,1.2,0.4,1.8
			s-0.1,1.3-0.4,1.9h-11.4v10.8h14.1c0.2,0.6,0.4,1.2,0.4,1.8c0,0.7-0.1,1.3-0.4,1.9h-18.7v-32.4H-2205.5z"/>
		<path class="st1" d="M-2189.4,210.9c1.7,0,2.9,0.5,3.9,1.1c-0.1,1.6-0.8,2.8-2,3.8c-0.9-0.6-1.8-0.9-2.8-0.9
			c-1.8,0-3.5,1.4-4.6,3.4v16.4c0,0-0.8,0.3-2.3,0.3c-1.6,0-2.3-0.3-2.3-0.3v-23c0,0,0.7-0.3,2.3-0.3c1.5,0,2.3,0.3,2.3,0.3v3.1
			C-2193.2,211.9-2191.2,210.9-2189.4,210.9z"/>
		<path class="st1" d="M-2177.2,213.8c1.3-1.8,3.3-2.9,6.5-2.9c5.1,0,8.5,3.1,8.5,12.3s-3.3,12.3-8.5,12.3c-3.2,0-5.2-1.1-6.5-2.9
			v2.2c0,0-0.8,0.3-2.3,0.3c-1.5,0-2.2-0.3-2.2-0.3v-33.1c0,0,0.7-0.3,2.2-0.3c1.5,0,2.3,0.3,2.3,0.3V213.8z M-2172.3,214.6
			c-3.1,0-4.9,2.6-4.9,5.7v5.8c0,3.1,1.8,5.8,4.9,5.8c3.6,0,5.4-1.9,5.4-8.6C-2166.9,216.5-2168.7,214.6-2172.3,214.6z"/>
		<path class="st1" d="M-2156.6,211.6c0,0,0.7-0.3,2.3-0.3c1.5,0,2.2,0.3,2.2,0.3V239c0,4.8-2.3,7.3-6.5,7.3c-1.9,0-3-0.4-3-0.4
			s-0.1-0.5-0.1-1c0-1.6,0.4-2.3,0.4-2.3s0.7,0.2,1.7,0.2c2,0,3.1-1.1,3.1-3.6V211.6z M-2152,206.7c0,0-0.8,0.3-2.3,0.3
			c-1.6,0-2.3-0.3-2.3-0.3v-4.2c0,0,0.7-0.3,2.3-0.3c1.5,0,2.3,0.3,2.3,0.3V206.7z"/>
		<path class="st1" d="M-2145.6,211.6c0,0,0.8-0.3,2.3-0.3c1.5,0,2.2,0.3,2.2,0.3v16.2c0,2.5,1.3,4,4.2,4c2,0,3.9-1,5.1-2.9v-17.3
			c0,0,0.8-0.3,2.2-0.3c1.6,0,2.3,0.3,2.3,0.3v23c0,0-0.7,0.3-2.3,0.3c-1.4,0-2.2-0.3-2.2-0.3v-2.1c-1.6,1.8-4,2.8-6.8,2.8
			c-4.5,0-7-2.7-7-6.8V211.6z"/>
		<path class="st1" d="M-2104.5,201.3c1.5,0,2.2,0.3,2.2,0.3v33.1c0,0-0.8,0.3-1.9,0.3s-2-0.3-2-0.3l-0.3-2.4
			c-1.3,2-3.4,3.2-6.8,3.2c-5.1,0-8.5-3.1-8.5-12.3s3.3-12.3,8.5-12.3c3.1,0,5.2,1.1,6.5,2.9v-12.2
			C-2106.8,201.6-2106,201.3-2104.5,201.3z M-2111.7,214.6c-3.6,0-5.4,1.9-5.4,8.6c0,6.7,1.8,8.6,5.4,8.6c3.1,0,4.9-2.7,4.9-5.8
			v-5.8C-2106.9,217.2-2108.6,214.6-2111.7,214.6z"/>
		<path class="st1" d="M-2087.6,210.9c6.5,0,8.6,2.9,8.6,8.7v15.1c0,0-0.5,0.3-1.8,0.3c-1.1,0-1.8-0.3-1.8-0.3l-0.7-2.9
			c-1.2,2.4-3.6,3.6-7.1,3.6c-4.2,0-7-2.5-7-7.5c0-4.9,3-7.1,8.6-7.1c2,0,4,0.1,5.1,0.3v-1.7c0-3.1-1.2-4.8-4.6-4.8
			c-3.1,0-6,1.1-6,1.1c0,0-0.6-0.4-1-1.3c-0.4-0.9-0.3-1.8-0.3-1.9C-2095.4,212.5-2092.1,210.9-2087.6,210.9z M-2088,223.9
			c-3,0-4.6,1.2-4.6,4c0,2.9,1.5,4,3.9,4c3.6,0,5.2-3,5.2-6.2v-1.6C-2084.5,224.1-2086.3,223.9-2088,223.9z"/>
		<path class="st1" d="M-2054.3,234.7c0,0-0.8,0.3-2.3,0.3c-1.5,0-2.3-0.3-2.3-0.3v-16.2c0-2.5-1.3-4-4.2-4c-2,0-3.9,1.1-5.1,2.9
			v17.3c0,0-0.8,0.3-2.3,0.3c-1.6,0-2.3-0.3-2.3-0.3v-23c0,0,0.7-0.3,2.3-0.3c1.4,0,2.3,0.3,2.3,0.3v2.1c1.6-1.8,4-2.8,6.8-2.8
			c4.5,0,7,2.7,7,6.8V234.7z"/>
		<path class="st1" d="M-2031.6,201.3c1.5,0,2.2,0.3,2.2,0.3v33.1c0,0-0.8,0.3-1.9,0.3s-2-0.3-2-0.3l-0.3-2.4
			c-1.3,2-3.4,3.2-6.8,3.2c-5.1,0-8.5-3.1-8.5-12.3s3.3-12.3,8.5-12.3c3.1,0,5.2,1.1,6.5,2.9v-12.2
			C-2033.9,201.6-2033.1,201.3-2031.6,201.3z M-2038.8,214.6c-3.6,0-5.4,1.9-5.4,8.6c0,6.7,1.8,8.6,5.4,8.6c3.1,0,4.9-2.7,4.9-5.8
			v-5.8C-2034,217.2-2035.7,214.6-2038.8,214.6z"/>
		<path class="st1" d="M-2019.2,224.6c0.4,5.4,2.5,7.1,6.3,7.1c3.2,0,5.3-1.3,5.3-1.3c0.8,0.7,1.4,1.9,1.4,3.2c0,0-2.6,1.9-7.5,1.9
			c-6.9,0-10.2-4.3-10.2-12.4c0-8.5,4-12.1,10-12.1c5.5,0,8.9,3.1,8.9,9c0,2.8-0.5,4.6-0.5,4.6H-2019.2z M-2013.9,214.4
			c-2.9,0-5,1.9-5.4,6.9h9.6c0-0.4,0.1-1.1,0.1-2C-2009.5,216.7-2010.6,214.4-2013.9,214.4z"/>
		<path class="st1" d="M-1999.4,202.9c0,0,0.7-0.3,2.4-0.3c1.6,0,2.4,0.3,2.4,0.3l-0.8,23.4c0,0-0.6,0.4-1.6,0.4
			c-1.1,0-1.7-0.4-1.7-0.4L-1999.4,202.9z M-1994.7,234.7c0,0-0.8,0.3-2.3,0.3c-1.6,0-2.3-0.3-2.3-0.3v-4.2c0,0,0.7-0.3,2.3-0.3
			c1.5,0,2.3,0.3,2.3,0.3V234.7z"/>
	</g>
	<g>
		<path class="st1" d="M-1450.5,155.8c1.3,0,2.1,0.2,2.1,0.2l8.8,24.7c0,0-0.6,0.2-1.9,0.2c-1.2,0-1.8-0.2-1.8-0.2l-2.2-6.2h-10.4
			l-2.2,6.2c0,0-0.6,0.2-1.7,0.2c-1.1,0-1.6-0.2-1.6-0.2l8.8-24.7C-1452.6,156-1451.7,155.8-1450.5,155.8z M-1450.7,159.7
			c0,0-0.3,1.4-0.9,3.2l-3.2,8.9h8.3l-3.2-8.9c-0.6-1.8-0.9-3.2-0.9-3.2H-1450.7z"/>
		<path class="st1" d="M-1427.4,155.4c3.9,0,6,1.2,6,1.2c0.1,1.2-0.4,2-1.1,2.7c0,0-2-0.8-4.5-0.8c-4.1,0-6.9,2.1-6.9,9.9
			s2.8,9.8,6.9,9.8c2.8,0,4.9-0.8,4.9-0.8c0.7,0.7,1,1.7,1.1,2.7c0,0-2.3,1.2-6.4,1.2c-6.7,0-10.2-4.4-10.2-13
			C-1437.6,159.9-1434.1,155.4-1427.4,155.4z"/>
		<path class="st1" d="M-1401.6,155.4c4.2,0,6.9,1,6.9,1c0,1-0.3,2.1-1,2.8c0,0-2.4-0.8-5.4-0.8c-3.7,0-5.5,1.4-5.5,4
			c0,2.7,3,3.3,6.3,4.4c3.3,1.1,6.5,2.6,6.5,7.2c0,4.7-3,7.3-8.8,7.3c-4.6,0-7.6-1.5-7.6-1.5c0-0.9,0.3-2,0.8-2.8
			c0,0,3.3,1.1,6.5,1.1c3.6,0,5.3-1.4,5.3-4c0-2.5-2-3.4-4.4-4.1c-3.6-1.2-8.3-2.1-8.3-7.4C-1410.2,158.3-1407.3,155.4-1401.6,155.4
			z"/>
		<path class="st1" d="M-1386.9,172.9c0.3,4.2,2,5.5,4.9,5.5c2.5,0,4.1-1,4.1-1c0.6,0.6,1.1,1.5,1.1,2.5c0,0-2,1.5-5.8,1.5
			c-5.4,0-7.9-3.3-7.9-9.7c0-6.6,3.1-9.5,7.8-9.5c4.3,0,6.9,2.4,6.9,7c0,2.2-0.4,3.6-0.4,3.6H-1386.9z M-1382.7,165
			c-2.3,0-3.9,1.5-4.2,5.4h7.5c0-0.3,0.1-0.8,0.1-1.6C-1379.3,166.8-1380.1,165-1382.7,165z"/>
		<path class="st1" d="M-1363.9,162.3c1.3,0,2.3,0.4,3,0.9c-0.1,1.3-0.6,2.2-1.5,2.9c-0.7-0.5-1.4-0.7-2.2-0.7c-1.4,0-2.7,1-3.6,2.7
			v12.7c0,0-0.6,0.2-1.8,0.2c-1.2,0-1.8-0.2-1.8-0.2v-17.9c0,0,0.5-0.2,1.8-0.2c1.2,0,1.8,0.2,1.8,0.2v2.4
			C-1366.8,163-1365.3,162.3-1363.9,162.3z"/>
		<path class="st1" d="M-1352.3,173.9c0.7,2,1,3.7,1,3.7h0.1c0,0,0.4-1.7,1.1-3.7l3.8-11c0,0,0.6-0.2,1.6-0.2c1.1,0,1.6,0.2,1.6,0.2
			l-6.2,17.9c0,0-0.9,0.2-2.1,0.2c-1.3,0-2.1-0.2-2.1-0.2l-6.3-17.9c0,0,0.7-0.2,1.8-0.2c1.2,0,1.8,0.2,1.8,0.2L-1352.3,173.9z"/>
		<path class="st1" d="M-1336.2,159.1c0,0-0.6,0.2-1.8,0.2c-1.3,0-1.8-0.2-1.8-0.2v-3.3c0,0,0.6-0.2,1.8-0.2c1.2,0,1.8,0.2,1.8,0.2
			V159.1z M-1336.2,180.8c0,0-0.6,0.2-1.8,0.2c-1.2,0-1.8-0.2-1.8-0.2v-17.9c0,0,0.5-0.2,1.8-0.2c1.2,0,1.8,0.2,1.8,0.2V180.8z"/>
		<path class="st1" d="M-1328.3,171.8c0,4.6,1.5,6.6,4.8,6.6c1.9,0,3.3-0.6,3.3-0.6c0.6,0.5,1,1.5,1,2.5c0,0-1.5,1.1-5,1.1
			c-5.1,0-7.7-3.3-7.7-9.6c0-6.2,2.6-9.6,7.7-9.6c3.4,0,4.7,0.9,4.7,0.9c0,0.9-0.4,1.9-1,2.5c0,0-1.2-0.5-3.1-0.5
			C-1326.9,165.1-1328.3,167.2-1328.3,171.8z"/>
		<path class="st1" d="M-1312.6,172.9c0.3,4.2,2,5.5,4.9,5.5c2.5,0,4.1-1,4.1-1c0.6,0.6,1.1,1.5,1.1,2.5c0,0-2,1.5-5.8,1.5
			c-5.4,0-7.9-3.3-7.9-9.7c0-6.6,3.1-9.5,7.8-9.5c4.3,0,6.9,2.4,6.9,7c0,2.2-0.4,3.6-0.4,3.6H-1312.6z M-1308.5,165
			c-2.3,0-3.9,1.5-4.2,5.4h7.5c0-0.3,0.1-0.8,0.1-1.6C-1305,166.8-1305.9,165-1308.5,165z"/>
		<path class="st1" d="M-1287.6,155c0,0,0.6-0.2,1.7-0.2c1.2,0,1.8,0.2,1.8,0.2l-11.7,27.4c0,0-0.6,0.2-1.8,0.2s-1.7-0.2-1.7-0.2
			L-1287.6,155z"/>
		<path class="st1" d="M-1462.8,197.8c1.3,0,2.1,0.2,2.1,0.2l8.8,24.7c0,0-0.6,0.2-1.9,0.2c-1.2,0-1.8-0.2-1.8-0.2l-2.2-6.2h-10.4
			l-2.2,6.2c0,0-0.6,0.2-1.7,0.2c-1.1,0-1.6-0.2-1.6-0.2l8.8-24.7C-1464.9,198-1464.1,197.8-1462.8,197.8z M-1463,201.7
			c0,0-0.3,1.4-0.9,3.2l-3.2,8.9h8.3l-3.2-8.9c-0.6-1.8-0.9-3.2-0.9-3.2H-1463z"/>
		<path class="st1" d="M-1439.7,197.4c3.9,0,6,1.2,6,1.2c0.1,1.2-0.4,2-1,2.7c0,0-2-0.8-4.5-0.8c-4.1,0-6.9,2.1-6.9,9.9
			s2.8,9.8,6.9,9.8c2.8,0,4.9-0.8,4.9-0.8c0.7,0.7,1,1.7,1.1,2.7c0,0-2.3,1.2-6.4,1.2c-6.7,0-10.2-4.4-10.2-13
			C-1449.9,201.9-1446.5,197.4-1439.7,197.4z"/>
		<path class="st1" d="M-1417.7,222.8c0,0-0.6,0.2-1.8,0.2c-1.3,0-1.8-0.2-1.8-0.2v-25h9.1c4.6,0,7.5,3.1,7.5,7.7
			c0,4.6-2.9,7.7-7.5,7.7h-5.6V222.8z M-1412.6,210.2c2.8,0,4.3-1.8,4.3-4.7c0-3-1.5-4.7-4.3-4.7h-5.1v9.4H-1412.6z"/>
		<path class="st1" d="M-1394.3,204.2c5.1,0,6.7,2.3,6.7,6.8v11.7c0,0-0.4,0.2-1.4,0.2c-0.9,0-1.4-0.2-1.4-0.2l-0.5-2.2
			c-0.9,1.9-2.8,2.8-5.5,2.8c-3.3,0-5.4-2-5.4-5.8c0-3.7,2.3-5.5,6.7-5.5c1.6,0,3.1,0.1,4,0.2v-1.4c0-2.4-0.9-3.6-3.6-3.6
			c-2.5,0-4.7,0.9-4.7,0.9c0,0-0.5-0.3-0.8-1c-0.3-0.7-0.2-1.4-0.2-1.5C-1400.4,205.5-1397.8,204.2-1394.3,204.2z M-1394.1,195.1
			c2.1,0,4.2,1.2,4.2,3.7c0,2.4-1.9,3.7-4.2,3.7c-2.3,0-4.1-1.4-4.1-3.7C-1398.3,196.3-1396.2,195.1-1394.1,195.1z M-1394.6,214.4
			c-2.3,0-3.6,0.9-3.6,3.1c0,2.2,1.2,3.2,3,3.2c2.8,0,4.1-2.3,4.1-4.8v-1.2C-1391.9,214.5-1393.3,214.4-1394.6,214.4z
			 M-1394.2,196.9c-1.3,0-2,0.9-2,1.9c0,0.9,0.7,1.9,2,1.9c1.4,0,2.1-0.9,2.1-1.9C-1392.1,197.8-1392.8,196.9-1394.2,196.9z"/>
		<path class="st1" d="M-1375.8,196.7c2.3,0,3.9,0.7,3.9,0.7c0,1-0.3,1.8-0.9,2.5c0,0-1.1-0.4-2.7-0.4c-2,0-2.6,0.9-2.6,2.8v2.3h4.4
			c0.1,0.4,0.2,0.8,0.2,1.4c0,0.5-0.1,0.9-0.2,1.3h-4.4v15.5c0,0-0.6,0.2-1.8,0.2c-1.2,0-1.8-0.2-1.8-0.2v-15.5h-2.3
			c-0.1-0.4-0.2-0.8-0.2-1.3c0-0.5,0.1-0.9,0.2-1.3h2.3v-2.1C-1381.6,199.1-1380.2,196.7-1375.8,196.7z"/>
		<path class="st1" d="M-1362,225.7c-1.3,3.9-2.5,6.1-6.3,6.1c-1.2,0-1.9-0.4-1.9-0.4c0,0-0.2-0.6-0.2-1.3c0-0.8,0.2-1.4,0.3-1.4
			c0,0,0.8,0.1,1.6,0.1c1.6,0,2.4-0.4,3.4-3.7l0.7-2.1c-0.4,0-0.7-0.1-1.1-0.2l-6.7-17.9c0,0,0.7-0.2,1.8-0.2c1.2,0,1.8,0.2,1.8,0.2
			l4,10.6c0.9,2.4,1.2,4.1,1.2,4.1h0.1c0,0,0.4-1.6,1.1-4.1l3.5-10.7c0,0,0.6-0.2,1.7-0.2c1,0,1.6,0.2,1.6,0.2L-1362,225.7z"/>
		<path class="st1" d="M-1348.3,222.8c0,0-0.6,0.2-1.8,0.2c-1.2,0-1.8-0.2-1.8-0.2V197c0,0,0.5-0.2,1.8-0.2c1.2,0,1.8,0.2,1.8,0.2
			V222.8z"/>
		<path class="st1" d="M-1339.5,222.8c0,0-0.6,0.2-1.8,0.2c-1.2,0-1.8-0.2-1.8-0.2V197c0,0,0.5-0.2,1.8-0.2c1.2,0,1.8,0.2,1.8,0.2
			V222.8z"/>
		<path class="st1" d="M-1320,222.8c0,0-0.6,0.2-1.8,0.2c-1.2,0-1.8-0.2-1.8-0.2v-12.6c0-2-1-3.1-3.3-3.1c-1.5,0-3,0.8-4,2.2v13.4
			c0,0-0.6,0.2-1.8,0.2c-1.2,0-1.8-0.2-1.8-0.2v-17.9c0,0,0.5-0.2,1.8-0.2c1.1,0,1.8,0.2,1.8,0.2v1.6c1.3-1.4,3.1-2.2,5.3-2.2
			c3.5,0,5.4,2.1,5.4,5.3V222.8z"/>
		<path class="st1" d="M-1311.4,201.1c0,0-0.6,0.2-1.8,0.2c-1.3,0-1.8-0.2-1.8-0.2v-3.3c0,0,0.6-0.2,1.8-0.2c1.2,0,1.8,0.2,1.8,0.2
			V201.1z M-1311.5,222.8c0,0-0.6,0.2-1.8,0.2c-1.2,0-1.8-0.2-1.8-0.2v-17.9c0,0,0.5-0.2,1.8-0.2c1.2,0,1.8,0.2,1.8,0.2V222.8z"/>
		<path class="st1" d="M-1292.1,222.8c0,0-0.6,0.2-1.8,0.2c-1.2,0-1.8-0.2-1.8-0.2v-12.6c0-2-1-3.1-3.3-3.1c-1.5,0-3,0.8-4,2.2v13.4
			c0,0-0.6,0.2-1.8,0.2c-1.2,0-1.8-0.2-1.8-0.2v-17.9c0,0,0.5-0.2,1.8-0.2c1.1,0,1.8,0.2,1.8,0.2v1.6c1.3-1.4,3.1-2.2,5.3-2.2
			c3.5,0,5.4,2.1,5.4,5.3V222.8z"/>
		<path class="st1" d="M-1272.1,204.2c0.3,0.7,0.3,2,0,2.8l-2.9-0.1c0.7,1,1,2.2,1,3.7c0,3.9-2.3,6.3-6.9,6.3c-0.6,0-1.1,0-1.5-0.1
			c-0.4,0.5-0.7,1.3-0.7,2c0.4,3.2,11-0.2,11,7c0,3.4-3.3,6-9,6c-5.3,0-7.5-2.1-7.5-4.9c0-2.7,2.2-4.3,3.1-4.8
			c-0.5-0.5-0.8-1.2-0.8-2c0-1.5,0.9-2.9,1.7-3.9c-2.1-1-3.2-2.9-3.2-5.6c0-3.9,2.4-6.3,6.9-6.3c1.6,0,2.9,0.3,3.9,0.8
			L-1272.1,204.2z M-1283.6,223c-0.9,0.7-1.6,1.9-1.6,3.2c0,1.8,1.3,3.1,4.2,3.1c3.6,0,5.6-1.3,5.6-3.2
			C-1275.5,223.2-1280.5,224-1283.6,223z M-1280.9,206.7c-2.1,0-3.5,1.2-3.5,3.8c0,2.6,1.4,3.8,3.5,3.8s3.5-1.2,3.5-3.8
			C-1277.4,207.9-1278.8,206.7-1280.9,206.7z"/>
	</g>
	<g>
		<path class="st1" d="M-263.9,155.8c0.1,0.4,0.3,0.9,0.3,1.4c0,0.6-0.1,1.1-0.3,1.5h-10.6v8.1h8.9c0.1,0.4,0.3,0.9,0.3,1.4
			s-0.1,1-0.3,1.5h-8.9v8.4h11c0.1,0.5,0.3,0.9,0.3,1.4c0,0.5-0.1,1-0.3,1.5h-14.6v-25.2H-263.9z"/>
		<path class="st1" d="M-245.1,180.8c0,0-0.6,0.2-1.8,0.2c-1.2,0-1.8-0.2-1.8-0.2v-12.6c0-2-1-3.1-3.3-3.1c-1.5,0-3,0.8-4,2.2v13.4
			c0,0-0.6,0.2-1.8,0.2c-1.2,0-1.8-0.2-1.8-0.2v-17.9c0,0,0.5-0.2,1.8-0.2c1.1,0,1.8,0.2,1.8,0.2v1.6c1.3-1.4,3.1-2.2,5.3-2.2
			c3.5,0,5.4,2.1,5.4,5.3V180.8z"/>
		<path class="st1" d="M-227.5,154.7c1.2,0,1.7,0.2,1.7,0.2v25.8c0,0-0.6,0.2-1.5,0.2s-1.6-0.2-1.6-0.2l-0.2-1.9
			c-1,1.5-2.6,2.5-5.3,2.5c-4,0-6.6-2.4-6.6-9.6s2.6-9.6,6.6-9.6c2.4,0,4,0.8,5,2.3V155C-229.2,155-228.7,154.7-227.5,154.7z
			 M-233.1,165.1c-2.8,0-4.2,1.5-4.2,6.7c0,5.2,1.4,6.7,4.2,6.7c2.5,0,3.8-2.1,3.8-4.5v-4.5C-229.3,167.1-230.6,165.1-233.1,165.1z"
			/>
		<path class="st1" d="M-214.3,162.2c5.1,0,6.7,2.3,6.7,6.8v11.7c0,0-0.4,0.2-1.4,0.2c-0.9,0-1.4-0.2-1.4-0.2l-0.5-2.2
			c-0.9,1.9-2.8,2.8-5.5,2.8c-3.3,0-5.4-1.9-5.4-5.8c0-3.8,2.3-5.5,6.7-5.5c1.6,0,3.1,0.1,4,0.2v-1.3c0-2.4-0.9-3.7-3.6-3.7
			c-2.5,0-4.7,0.9-4.7,0.9c0,0-0.5-0.3-0.8-1c-0.3-0.7-0.2-1.4-0.2-1.5C-220.4,163.5-217.8,162.2-214.3,162.2z M-214.6,172.4
			c-2.3,0-3.6,0.9-3.6,3.1c0,2.3,1.2,3.2,3,3.2c2.8,0,4.1-2.3,4.1-4.8v-1.2C-211.9,172.5-213.3,172.4-214.6,172.4z"/>
		<path class="st1" d="M-196.8,162.2c3.4,0,4.9,0.9,4.9,0.9c0,0.9-0.3,1.9-0.9,2.5c0,0-1.7-0.6-3.7-0.6c-2.4,0-3.6,0.9-3.6,2.5
			c0,1.7,2.2,2.1,4.4,2.9c2.3,0.7,4.7,1.8,4.7,5.3c0,3.5-2.2,5.6-6.7,5.6c-3.7,0-5.8-1.3-5.8-1.3c0-1,0.3-2,0.9-2.6
			c0,0,2.3,0.9,4.7,0.9c2.1,0,3.4-0.8,3.4-2.5c0-1.9-1.9-2.3-4-2.9c-2.4-0.7-5-1.7-5-5.2C-203.4,164.4-201.3,162.2-196.8,162.2z"/>
		<path class="st1" d="M-182.3,174.4c0,3.2,1,4.1,3.5,4.1c0.7,0,1.5-0.1,1.5-0.1s0.2,0.6,0.2,1.4s-0.2,1.3-0.2,1.3
			c-0.6,0.2-1.6,0.3-2.5,0.3c-4.3,0-6-2.3-6-6.8v-9.3h-2.7c0,0-0.2-0.5-0.2-1.3c0-0.9,0.2-1.3,0.2-1.3h2.7v-3.2
			c0.9-0.6,2.2-0.8,3.5-0.7v3.9h4.6c0,0,0.2,0.5,0.2,1.3c0,0.8-0.2,1.3-0.2,1.3h-4.6V174.4z"/>
		<path class="st2" d="M-159.8,156.1c0,0,0.6-0.3,1.8-0.3c1.2,0,1.8,0.3,1.8,0.3v24.6c0,0-0.6,0.3-1.9,0.3c-1.2,0-1.9-0.3-1.9-0.3
			v-15.2c0-2,0.1-3.6,0.2-4.8c-1.7,1.7-4,2.8-6.3,3.4c-0.7-0.7-1.1-1.9-0.9-3.1C-163.8,160.2-161.6,158.7-159.8,156.1z"/>
		<path class="st2" d="M-144.5,156.1c0,0,0.6-0.3,1.8-0.3c1.2,0,1.8,0.3,1.8,0.3v24.6c0,0-0.6,0.3-1.8,0.3c-1.2,0-1.9-0.3-1.9-0.3
			v-15.2c0-2,0.1-3.6,0.2-4.8c-1.7,1.7-4,2.8-6.3,3.4c-0.7-0.7-1.1-1.9-0.9-3.1C-148.5,160.2-146.2,158.7-144.5,156.1z"/>
		<path class="st2" d="M-133,178c5.3-0.6,8.5-2.7,9.7-7.7c-1.1,0.4-2.7,0.9-4.6,0.9c-4.3,0-7.7-2.2-7.7-7.9c0-5.4,3.3-7.9,8.3-7.9
			c5,0,8.3,3,8.3,9.9c0,10.4-5.2,15.1-14,15.7C-133.4,180-133.4,179-133,178z M-127.4,168.3c1.9,0,3.6-0.7,4.5-1
			c0-0.7,0.1-1.3,0.1-2.1c0-4.9-1.9-6.9-4.5-6.9s-4.5,1.6-4.5,5C-131.8,167-130,168.3-127.4,168.3z"/>
		<path class="st2" d="M-112.6,178c5.3-0.6,8.5-2.7,9.7-7.7c-1.1,0.4-2.7,0.9-4.6,0.9c-4.3,0-7.7-2.2-7.7-7.9c0-5.4,3.3-7.9,8.3-7.9
			c5,0,8.3,3,8.3,9.9c0,10.4-5.2,15.1-14,15.7C-113,180-113,179-112.6,178z M-107,168.3c1.9,0,3.6-0.7,4.5-1c0-0.7,0.1-1.3,0.1-2.1
			c0-4.9-1.8-6.9-4.5-6.9s-4.5,1.6-4.5,5C-111.4,167-109.5,168.3-107,168.3z"/>
		<path class="st2" d="M-82.9,161.8c0,0,0.7-0.3,1.9-0.3c1,0,1.8,0.2,1.8,0.2l-5.7,8.8l6.5,10.1c0,0-0.8,0.3-2.1,0.3s-2-0.3-2-0.3
			l-5.6-8.5h-2.1v8.5c0,0-0.7,0.3-1.8,0.3c-1.2,0-1.9-0.3-1.9-0.3v-27.3c0,0,0.7-0.2,1.9-0.2c1,0,1.8,0.2,1.8,0.2v16h2.1
			L-82.9,161.8z"/>
		<path class="st2" d="M-67,161.2c1.4,0,2.4,0.4,3.2,0.9c-0.1,1.3-0.6,2.3-1.6,3.1c-0.7-0.5-1.4-0.8-2.3-0.8c-1.4,0-2.8,1.1-3.8,2.8
			v13.5c0,0-0.6,0.3-1.9,0.3c-1.3,0-1.9-0.3-1.9-0.3v-18.9c0,0,0.6-0.3,1.9-0.3c1.2,0,1.9,0.3,1.9,0.3v2.6
			C-70.1,162-68.5,161.2-67,161.2z"/>
		<path class="st1" d="M-289.9,197.4c6.1,0,9.9,3.9,9.9,13s-3.7,13-9.9,13c-6.1,0-9.9-3.9-9.9-13
			C-299.8,201.4-296,197.4-289.9,197.4z M-289.9,200.4c-3.7,0-6.1,2.2-6.1,10s2.4,10,6.1,10c3.7,0,6.1-2.2,6.1-10
			S-286.2,200.4-289.9,200.4z"/>
		<path class="st1" d="M-261.6,198c0.5-0.1,1.1-0.2,1.8-0.2c0.7,0,1.4,0.1,1.9,0.2l-7.9,11.5l9,13.2c0,0-0.7,0.2-2.1,0.2
			c-1.3,0-2.1-0.2-2.1-0.2l-7.8-11.4h-2.6v11.4c0,0-0.5,0.2-1.8,0.2c-1.1,0-1.8-0.2-1.8-0.2V198c0,0,0.6-0.2,1.8-0.2
			c1.2,0,1.8,0.2,1.8,0.2v10.4h2.6L-261.6,198z"/>
		<path class="st1" d="M-244.5,197.4c6.1,0,9.9,3.9,9.9,13c0,5.2-1.2,8.7-3.4,10.7c1.3,1.1,3,1.9,4.7,2.2c-0.1,1.2-0.9,2.5-2,3
			c-2.1-0.7-3.9-2.2-5.1-3.8c-1.2,0.5-2.6,0.8-4.1,0.8c-6.1,0-9.9-3.9-9.9-13C-254.4,201.4-250.6,197.4-244.5,197.4z M-244.5,200.4
			c-3.7,0-6.1,2.2-6.1,10s2.4,10,6.1,10c3.7,0,6.1-2.2,6.1-10S-240.8,200.4-244.5,200.4z"/>
		<path class="st1" d="M-230.6,217.1c0-3.4,2.6-5.5,4.4-6.5c-2.1-1.2-3.7-2.8-3.7-5.8c0-3.6,2.8-6,7.4-6c4.5,0,7.3,2.1,7.3,5.7
			c0,3-1.9,4.9-3.4,5.9c2.4,1.3,4.4,3,4.4,6.3c0,4.1-3,6.5-8.4,6.5C-227.6,223.3-230.6,221.1-230.6,217.1z M-217.7,217
			c0-2.9-3.2-3.9-6.2-5.2c-1.1,0.7-3.3,2.4-3.3,5.2c0,2.2,1.6,3.6,4.8,3.6C-219.5,220.6-217.7,219.2-217.7,217z M-226.5,204.6
			c0,2.6,2.7,3.6,5.6,4.8c1.1-0.8,2.6-2.3,2.6-4.5c0-2.2-1.5-3.4-4.1-3.4C-225,201.5-226.5,202.7-226.5,204.6z"/>
		<path class="st1" d="M-195.5,204.2c5.1,0,6.7,2.3,6.7,6.8v11.7c0,0-0.4,0.2-1.4,0.2c-0.9,0-1.4-0.2-1.4-0.2l-0.5-2.2
			c-0.9,1.9-2.8,2.8-5.5,2.8c-3.3,0-5.4-2-5.4-5.8c0-3.7,2.3-5.5,6.7-5.5c1.6,0,3.1,0.1,4,0.2v-1.4c0-2.4-0.9-3.6-3.6-3.6
			c-2.4,0-4.7,0.9-4.7,0.9c0,0-0.5-0.3-0.8-1c-0.3-0.7-0.2-1.4-0.2-1.5C-201.6,205.5-199,204.2-195.5,204.2z M-195.3,195.1
			c2.1,0,4.2,1.2,4.2,3.7c0,2.4-1.9,3.7-4.2,3.7c-2.3,0-4.1-1.4-4.1-3.7C-199.5,196.3-197.4,195.1-195.3,195.1z M-195.8,214.4
			c-2.3,0-3.6,0.9-3.6,3.1c0,2.2,1.2,3.2,3,3.2c2.8,0,4.1-2.3,4.1-4.8v-1.2C-193.1,214.5-194.5,214.4-195.8,214.4z M-195.4,196.9
			c-1.3,0-2,0.9-2,1.9c0,0.9,0.7,1.9,2,1.9c1.4,0,2.1-0.9,2.1-1.9C-193.3,197.8-194,196.9-195.4,196.9z"/>
		<path class="st1" d="M-179.1,216.4c0,3.2,1,4.1,3.5,4.1c0.7,0,1.5-0.1,1.5-0.1s0.2,0.6,0.2,1.4c0,0.8-0.2,1.3-0.2,1.3
			c-0.6,0.2-1.6,0.3-2.5,0.3c-4.3,0-6-2.3-6-6.8v-9.3h-2.7c0,0-0.2-0.5-0.2-1.3c0-0.9,0.2-1.3,0.2-1.3h2.7v-3.2
			c0.9-0.6,2.2-0.8,3.5-0.7v3.9h4.6c0,0,0.2,0.5,0.2,1.3c0,0.8-0.2,1.3-0.2,1.3h-4.6V216.4z"/>
		<path class="st1" d="M-167.8,214.9c0.3,4.2,2,5.5,4.9,5.5c2.5,0,4.1-1,4.1-1c0.6,0.6,1.1,1.5,1.1,2.5c0,0-2,1.5-5.8,1.5
			c-5.4,0-7.9-3.3-7.9-9.7c0-6.6,3.1-9.5,7.8-9.5c4.3,0,6.9,2.4,6.9,7c0,2.2-0.4,3.6-0.4,3.6H-167.8z M-163.6,207
			c-2.3,0-3.9,1.5-4.2,5.4h7.5c0-0.3,0.1-0.8,0.1-1.6C-160.2,208.8-161,207-163.6,207z"/>
		<path class="st1" d="M-144.8,204.3c1.3,0,2.3,0.4,3,0.9c-0.1,1.3-0.6,2.2-1.5,2.9c-0.7-0.5-1.4-0.7-2.2-0.7c-1.4,0-2.7,1-3.6,2.7
			v12.7c0,0-0.6,0.2-1.8,0.2c-1.2,0-1.8-0.2-1.8-0.2v-17.9c0,0,0.5-0.2,1.8-0.2c1.2,0,1.8,0.2,1.8,0.2v2.4
			C-147.7,205-146.2,204.3-144.8,204.3z"/>
		<path class="st1" d="M-135.3,206.5c1-1.4,2.6-2.3,5-2.3c4,0,6.6,2.4,6.6,9.6s-2.6,9.6-6.6,9.6c-2.5,0-4.1-0.8-5-2.3v1.7
			c0,0-0.6,0.2-1.8,0.2c-1.2,0-1.7-0.2-1.7-0.2V197c0,0,0.6-0.2,1.7-0.2c1.2,0,1.8,0.2,1.8,0.2V206.5z M-131.5,207.1
			c-2.5,0-3.8,2-3.8,4.4v4.5c0,2.4,1.4,4.5,3.8,4.5c2.8,0,4.2-1.5,4.2-6.7S-128.7,207.1-131.5,207.1z"/>
		<path class="st1" d="M-113,204.2c5.1,0,6.7,2.3,6.7,6.8v11.7c0,0-0.4,0.2-1.4,0.2c-0.9,0-1.4-0.2-1.4-0.2l-0.5-2.2
			c-0.9,1.9-2.8,2.8-5.5,2.8c-3.3,0-5.4-2-5.4-5.8c0-3.7,2.3-5.5,6.7-5.5c1.6,0,3.1,0.1,4,0.2v-1.5c0-2.2-0.9-3.5-3.6-3.5
			c-2.5,0-4.7,0.9-4.7,0.9c0,0-0.5-0.3-0.8-1c-0.3-0.7-0.2-1.4-0.2-1.5C-119.1,205.5-116.5,204.2-113,204.2z M-115.8,198.1
			c1,0,1.6,0.2,1.6,0.2v2.8c0,0-0.6,0.2-1.6,0.2c-1.1,0-1.6-0.2-1.6-0.2v-2.8C-117.3,198.3-116.8,198.1-115.8,198.1z M-113.3,214.4
			c-2.3,0-3.6,0.9-3.6,3.1c0,2.2,1.2,3.2,3,3.2c2.8,0,4.1-2.3,4.1-4.8v-1.2C-110.6,214.5-112,214.4-113.3,214.4z M-109.8,198.1
			c1,0,1.6,0.2,1.6,0.2v2.8c0,0-0.5,0.2-1.6,0.2c-1.1,0-1.6-0.2-1.6-0.2v-2.8C-111.4,198.3-110.9,198.1-109.8,198.1z"/>
		<path class="st1" d="M-93.5,204.3c1.3,0,2.3,0.4,3,0.9c-0.1,1.3-0.6,2.2-1.5,2.9c-0.7-0.5-1.4-0.7-2.2-0.7c-1.4,0-2.7,1-3.6,2.7
			v12.7c0,0-0.6,0.2-1.8,0.2c-1.2,0-1.8-0.2-1.8-0.2v-17.9c0,0,0.5-0.2,1.8-0.2c1.2,0,1.8,0.2,1.8,0.2v2.4
			C-96.5,205-94.9,204.3-93.5,204.3z"/>
		<path class="st1" d="M-83.9,201.1c0,0-0.6,0.2-1.8,0.2c-1.3,0-1.8-0.2-1.8-0.2v-3.3c0,0,0.6-0.2,1.8-0.2c1.2,0,1.8,0.2,1.8,0.2
			V201.1z M-83.9,222.8c0,0-0.6,0.2-1.8,0.2c-1.2,0-1.8-0.2-1.8-0.2v-17.9c0,0,0.5-0.2,1.8-0.2c1.2,0,1.8,0.2,1.8,0.2V222.8z"/>
		<path class="st1" d="M-64.6,222.8c0,0-0.6,0.2-1.8,0.2c-1.2,0-1.8-0.2-1.8-0.2v-12.6c0-2-1-3.1-3.3-3.1c-1.5,0-3,0.8-4,2.2v13.4
			c0,0-0.6,0.2-1.8,0.2c-1.2,0-1.8-0.2-1.8-0.2v-17.9c0,0,0.5-0.2,1.8-0.2c1.1,0,1.8,0.2,1.8,0.2v1.6c1.3-1.4,3.1-2.2,5.3-2.2
			c3.5,0,5.4,2.1,5.4,5.3V222.8z"/>
		<path class="st1" d="M-44.6,204.2c0.3,0.7,0.3,2,0,2.8l-2.9-0.1c0.7,1,1,2.2,1,3.7c0,3.9-2.3,6.3-6.9,6.3c-0.6,0-1.1,0-1.5-0.1
			c-0.4,0.5-0.7,1.3-0.7,2c0.4,3.2,11-0.2,11,7c0,3.4-3.3,6-9,6c-5.3,0-7.5-2.1-7.5-4.9c0-2.7,2.2-4.3,3.1-4.8
			c-0.5-0.5-0.8-1.2-0.8-2c0-1.5,0.9-2.9,1.7-3.9c-2.1-1-3.2-2.9-3.2-5.6c0-3.9,2.4-6.3,6.9-6.3c1.6,0,2.9,0.3,3.9,0.8L-44.6,204.2z
			 M-56.1,223c-0.9,0.7-1.6,1.9-1.6,3.2c0,1.8,1.3,3.1,4.2,3.1c3.6,0,5.6-1.3,5.6-3.2C-48,223.2-52.9,224-56.1,223z M-53.4,206.7
			c-2.1,0-3.5,1.2-3.5,3.8c0,2.6,1.4,3.8,3.5,3.8c2.1,0,3.5-1.2,3.5-3.8C-49.9,207.9-51.3,206.7-53.4,206.7z"/>
	</g>
	<g>
	</g>
	<g>
	</g>
	<g>
	</g>
	<g>
	</g>
	<g>
	</g>
	<g>
	</g>
</g>
</svg>
