<?xml version="1.0" encoding="utf-8"?>
<!-- Generator: Adobe Illustrator 19.2.0, SVG Export Plug-In . SVG Version: 6.00 Build 0)  -->
<svg version="1.1" xmlns="http://www.w3.org/2000/svg" xmlns:xlink="http://www.w3.org/1999/xlink" x="0px" y="0px"
	 viewBox="0 0 580 400" style="enable-background:new 0 0 580 400;" xml:space="preserve">
<style type="text/css">
	.st0{fill:#FFFFFF;}
	.st1{fill:#00AADD;}
	.st2{fill:#EF2626;}
</style>
<g id="Layer_1">
</g>
<g id="Layer_2">
	<g>
		<path class="st1" d="M336.1,155.8c0.1,0.4,0.3,0.9,0.3,1.4c0,0.6-0.1,1.1-0.3,1.5h-10.6v8.1h8.9c0.1,0.4,0.3,0.9,0.3,1.4
			s-0.1,1-0.3,1.5h-8.9v8.4h11c0.1,0.5,0.3,0.9,0.3,1.4c0,0.5-0.1,1-0.3,1.5h-14.6v-25.2H336.1z"/>
		<path class="st1" d="M354.9,180.8c0,0-0.6,0.2-1.8,0.2c-1.2,0-1.8-0.2-1.8-0.2v-12.6c0-2-1-3.1-3.3-3.1c-1.5,0-3,0.8-4,2.2v13.4
			c0,0-0.6,0.2-1.8,0.2c-1.2,0-1.8-0.2-1.8-0.2v-17.9c0,0,0.5-0.2,1.8-0.2c1.1,0,1.8,0.2,1.8,0.2v1.6c1.3-1.4,3.1-2.2,5.3-2.2
			c3.5,0,5.4,2.1,5.4,5.3V180.8z"/>
		<path class="st1" d="M372.5,154.7c1.2,0,1.7,0.2,1.7,0.2v25.8c0,0-0.6,0.2-1.5,0.2s-1.6-0.2-1.6-0.2l-0.2-1.9
			c-1,1.5-2.6,2.5-5.3,2.5c-4,0-6.6-2.4-6.6-9.6s2.6-9.6,6.6-9.6c2.5,0,4,0.8,5,2.3V155C370.8,155,371.4,154.7,372.5,154.7z
			 M366.9,165.1c-2.8,0-4.2,1.5-4.2,6.7c0,5.2,1.4,6.7,4.2,6.7c2.5,0,3.8-2.1,3.8-4.5v-4.5C370.7,167.1,369.4,165.1,366.9,165.1z"/>
		<path class="st1" d="M385.7,162.2c5.1,0,6.7,2.3,6.7,6.8v11.7c0,0-0.4,0.2-1.4,0.2c-0.9,0-1.4-0.2-1.4-0.2l-0.5-2.2
			c-0.9,1.9-2.8,2.8-5.5,2.8c-3.3,0-5.4-1.9-5.4-5.8c0-3.8,2.3-5.5,6.7-5.5c1.6,0,3.1,0.1,4,0.2v-1.3c0-2.4-0.9-3.7-3.6-3.7
			c-2.4,0-4.7,0.9-4.7,0.9c0,0-0.5-0.3-0.8-1c-0.3-0.7-0.2-1.4-0.2-1.5C379.6,163.5,382.2,162.2,385.7,162.2z M385.4,172.4
			c-2.3,0-3.6,0.9-3.6,3.1c0,2.3,1.2,3.2,3,3.2c2.8,0,4.1-2.3,4.1-4.8v-1.2C388.1,172.5,386.7,172.4,385.4,172.4z"/>
		<path class="st1" d="M403.2,162.2c3.4,0,4.9,0.9,4.9,0.9c0,0.9-0.3,1.9-0.9,2.5c0,0-1.7-0.6-3.7-0.6c-2.4,0-3.6,0.9-3.6,2.5
			c0,1.7,2.2,2.1,4.4,2.9c2.3,0.7,4.7,1.8,4.7,5.3c0,3.5-2.2,5.6-6.7,5.6c-3.7,0-5.8-1.3-5.8-1.3c0-1,0.3-2,0.9-2.6
			c0,0,2.3,0.9,4.7,0.9c2.1,0,3.4-0.8,3.4-2.5c0-1.9-1.9-2.3-4-2.9c-2.4-0.7-5-1.7-5-5.2C396.6,164.4,398.7,162.2,403.2,162.2z"/>
		<path class="st1" d="M417.7,174.4c0,3.2,1,4.1,3.5,4.1c0.7,0,1.5-0.1,1.5-0.1s0.2,0.6,0.2,1.4s-0.2,1.3-0.2,1.3
			c-0.6,0.2-1.6,0.3-2.5,0.3c-4.3,0-6-2.3-6-6.8v-9.3h-2.7c0,0-0.2-0.5-0.2-1.3c0-0.9,0.2-1.3,0.2-1.3h2.7v-3.2
			c0.9-0.6,2.2-0.8,3.5-0.7v3.9h4.6c0,0,0.2,0.5,0.2,1.3c0,0.8-0.2,1.3-0.2,1.3h-4.6V174.4z"/>
		<path class="st2" d="M440.2,156.1c0,0,0.6-0.3,1.8-0.3c1.2,0,1.8,0.3,1.8,0.3v24.6c0,0-0.6,0.3-1.9,0.3c-1.2,0-1.9-0.3-1.9-0.3
			v-15.2c0-2,0.1-3.6,0.2-4.8c-1.7,1.7-4,2.8-6.3,3.4c-0.7-0.7-1.1-1.9-0.9-3.1C436.2,160.2,438.4,158.7,440.2,156.1z"/>
		<path class="st2" d="M455.5,156.1c0,0,0.6-0.3,1.8-0.3c1.2,0,1.8,0.3,1.8,0.3v24.6c0,0-0.6,0.3-1.8,0.3c-1.2,0-1.9-0.3-1.9-0.3
			v-15.2c0-2,0.1-3.6,0.2-4.8c-1.7,1.7-4,2.8-6.3,3.4c-0.7-0.7-1.1-1.9-0.9-3.1C451.5,160.2,453.8,158.7,455.5,156.1z"/>
		<path class="st2" d="M467,178c5.3-0.6,8.5-2.7,9.7-7.7c-1.1,0.4-2.7,0.9-4.6,0.9c-4.3,0-7.7-2.2-7.7-7.9c0-5.4,3.3-7.9,8.3-7.9
			c5,0,8.3,3,8.3,9.9c0,10.4-5.2,15.1-13.9,15.7C466.6,180,466.6,179,467,178z M472.6,168.3c1.9,0,3.6-0.7,4.5-1
			c0-0.7,0.1-1.3,0.1-2.1c0-4.9-1.9-6.9-4.5-6.9s-4.5,1.6-4.5,5C468.2,167,470,168.3,472.6,168.3z"/>
		<path class="st2" d="M487.4,178c5.3-0.6,8.5-2.7,9.7-7.7c-1.1,0.4-2.7,0.9-4.6,0.9c-4.3,0-7.7-2.2-7.7-7.9c0-5.4,3.3-7.9,8.3-7.9
			c5,0,8.3,3,8.3,9.9c0,10.4-5.2,15.1-14,15.7C487,180,487,179,487.4,178z M493,168.3c1.9,0,3.6-0.7,4.5-1c0-0.7,0.1-1.3,0.1-2.1
			c0-4.9-1.9-6.9-4.5-6.9s-4.5,1.6-4.5,5C488.6,167,490.5,168.3,493,168.3z"/>
		<path class="st2" d="M517.1,161.8c0,0,0.7-0.3,1.9-0.3c1,0,1.8,0.2,1.8,0.2l-5.7,8.8l6.5,10.1c0,0-0.8,0.3-2.1,0.3
			c-1.3,0-2-0.3-2-0.3l-5.5-8.5h-2.1v8.5c0,0-0.7,0.3-1.8,0.3c-1.2,0-1.9-0.3-1.9-0.3v-27.3c0,0,0.7-0.2,1.9-0.2
			c1,0,1.8,0.2,1.8,0.2v16h2.1L517.1,161.8z"/>
		<path class="st2" d="M533,161.2c1.4,0,2.4,0.4,3.2,0.9c-0.1,1.3-0.6,2.3-1.6,3.1c-0.7-0.5-1.4-0.8-2.3-0.8c-1.4,0-2.8,1.1-3.8,2.8
			v13.5c0,0-0.6,0.3-1.8,0.3c-1.3,0-1.8-0.3-1.8-0.3v-18.9c0,0,0.6-0.3,1.8-0.3c1.2,0,1.8,0.3,1.8,0.3v2.6
			C529.9,162,531.5,161.2,533,161.2z"/>
		<path class="st1" d="M310.1,197.4c6.1,0,9.9,3.9,9.9,13s-3.7,13-9.9,13c-6.1,0-9.9-3.9-9.9-13C300.2,201.4,304,197.4,310.1,197.4z
			 M310.1,200.4c-3.7,0-6.1,2.2-6.1,10s2.4,10,6.1,10c3.7,0,6.1-2.2,6.1-10S313.8,200.4,310.1,200.4z"/>
		<path class="st1" d="M338.4,198c0.5-0.1,1.1-0.2,1.8-0.2c0.7,0,1.4,0.1,1.9,0.2l-7.9,11.5l9,13.2c0,0-0.7,0.2-2.1,0.2
			c-1.3,0-2.1-0.2-2.1-0.2l-7.8-11.4h-2.6v11.4c0,0-0.5,0.2-1.8,0.2c-1.1,0-1.8-0.2-1.8-0.2V198c0,0,0.6-0.2,1.8-0.2
			c1.2,0,1.8,0.2,1.8,0.2v10.4h2.6L338.4,198z"/>
		<path class="st1" d="M355.5,197.4c6.1,0,9.9,3.9,9.9,13c0,5.2-1.2,8.7-3.4,10.7c1.3,1.1,3,1.9,4.7,2.2c-0.1,1.2-0.9,2.5-2,3
			c-2.1-0.7-3.9-2.2-5.1-3.8c-1.2,0.5-2.6,0.8-4.1,0.8c-6.1,0-9.9-3.9-9.9-13C345.6,201.4,349.4,197.4,355.5,197.4z M355.5,200.4
			c-3.7,0-6.1,2.2-6.1,10s2.4,10,6.1,10c3.7,0,6.1-2.2,6.1-10S359.2,200.4,355.5,200.4z"/>
		<path class="st1" d="M369.4,217.1c0-3.4,2.6-5.5,4.4-6.5c-2.1-1.2-3.7-2.8-3.7-5.8c0-3.6,2.8-6,7.4-6c4.5,0,7.3,2.1,7.3,5.7
			c0,3-1.9,4.9-3.4,5.9c2.4,1.3,4.4,3,4.4,6.3c0,4.1-3,6.5-8.4,6.5C372.4,223.3,369.4,221.1,369.4,217.1z M382.3,217
			c0-2.9-3.2-3.9-6.2-5.2c-1.1,0.7-3.3,2.4-3.3,5.2c0,2.2,1.6,3.6,4.8,3.6C380.5,220.6,382.3,219.2,382.3,217z M373.5,204.6
			c0,2.6,2.7,3.6,5.6,4.8c1.1-0.8,2.6-2.3,2.6-4.5c0-2.2-1.5-3.4-4.1-3.4C375,201.5,373.5,202.7,373.5,204.6z"/>
		<path class="st1" d="M404.5,204.2c5.1,0,6.7,2.3,6.7,6.8v11.7c0,0-0.4,0.2-1.4,0.2c-0.9,0-1.4-0.2-1.4-0.2l-0.5-2.2
			c-0.9,1.9-2.8,2.8-5.5,2.8c-3.3,0-5.4-2-5.4-5.8c0-3.7,2.3-5.5,6.7-5.5c1.6,0,3.1,0.1,4,0.2v-1.4c0-2.4-0.9-3.6-3.6-3.6
			c-2.5,0-4.7,0.9-4.7,0.9c0,0-0.5-0.3-0.8-1c-0.3-0.7-0.2-1.4-0.2-1.5C398.4,205.5,401,204.2,404.5,204.2z M404.7,195.1
			c2.1,0,4.2,1.2,4.2,3.7c0,2.4-1.9,3.7-4.2,3.7c-2.3,0-4.1-1.4-4.1-3.7C400.5,196.3,402.6,195.1,404.7,195.1z M404.2,214.4
			c-2.3,0-3.6,0.9-3.6,3.1c0,2.2,1.2,3.2,3,3.2c2.8,0,4.1-2.3,4.1-4.8v-1.2C406.9,214.5,405.5,214.4,404.2,214.4z M404.6,196.9
			c-1.3,0-2,0.9-2,1.9c0,0.9,0.7,1.9,2,1.9c1.4,0,2.1-0.9,2.1-1.9C406.7,197.8,406,196.9,404.6,196.9z"/>
		<path class="st1" d="M420.9,216.4c0,3.2,1,4.1,3.5,4.1c0.7,0,1.5-0.1,1.5-0.1s0.2,0.6,0.2,1.4c0,0.8-0.2,1.3-0.2,1.3
			c-0.6,0.2-1.6,0.3-2.5,0.3c-4.3,0-6-2.3-6-6.8v-9.3h-2.7c0,0-0.2-0.5-0.2-1.3c0-0.9,0.2-1.3,0.2-1.3h2.7v-3.2
			c0.9-0.6,2.2-0.8,3.5-0.7v3.9h4.6c0,0,0.2,0.5,0.2,1.3c0,0.8-0.2,1.3-0.2,1.3h-4.6V216.4z"/>
		<path class="st1" d="M432.2,214.9c0.3,4.2,2,5.5,4.9,5.5c2.5,0,4.1-1,4.1-1c0.6,0.6,1.1,1.5,1.1,2.5c0,0-2,1.5-5.8,1.5
			c-5.4,0-7.9-3.3-7.9-9.7c0-6.6,3.1-9.5,7.8-9.5c4.3,0,6.9,2.4,6.9,7c0,2.2-0.4,3.6-0.4,3.6H432.2z M436.4,207
			c-2.3,0-3.9,1.5-4.2,5.4h7.5c0-0.3,0.1-0.8,0.1-1.6C439.8,208.8,439,207,436.4,207z"/>
		<path class="st1" d="M455.2,204.3c1.3,0,2.3,0.4,3,0.9c-0.1,1.3-0.6,2.2-1.5,2.9c-0.7-0.5-1.4-0.7-2.2-0.7c-1.4,0-2.7,1-3.6,2.7
			v12.7c0,0-0.6,0.2-1.8,0.2c-1.2,0-1.8-0.2-1.8-0.2v-17.9c0,0,0.5-0.2,1.8-0.2c1.2,0,1.8,0.2,1.8,0.2v2.4
			C452.3,205,453.8,204.3,455.2,204.3z"/>
		<path class="st1" d="M464.7,206.5c1-1.4,2.6-2.3,5-2.3c4,0,6.6,2.4,6.6,9.6s-2.6,9.6-6.6,9.6c-2.5,0-4.1-0.8-5-2.3v1.7
			c0,0-0.6,0.2-1.8,0.2c-1.2,0-1.7-0.2-1.7-0.2V197c0,0,0.6-0.2,1.7-0.2c1.2,0,1.8,0.2,1.8,0.2V206.5z M468.5,207.1
			c-2.5,0-3.8,2-3.8,4.4v4.5c0,2.4,1.4,4.5,3.8,4.5c2.8,0,4.2-1.5,4.2-6.7S471.3,207.1,468.5,207.1z"/>
		<path class="st1" d="M487,204.2c5.1,0,6.7,2.3,6.7,6.8v11.7c0,0-0.4,0.2-1.4,0.2c-0.9,0-1.4-0.2-1.4-0.2l-0.5-2.2
			c-0.9,1.9-2.8,2.8-5.5,2.8c-3.3,0-5.4-2-5.4-5.8c0-3.7,2.3-5.5,6.7-5.5c1.6,0,3.1,0.1,4,0.2v-1.5c0-2.2-0.9-3.5-3.6-3.5
			c-2.4,0-4.7,0.9-4.7,0.9c0,0-0.5-0.3-0.8-1c-0.3-0.7-0.2-1.4-0.2-1.5C480.9,205.5,483.5,204.2,487,204.2z M484.2,198.1
			c1,0,1.6,0.2,1.6,0.2v2.8c0,0-0.6,0.2-1.6,0.2c-1.1,0-1.6-0.2-1.6-0.2v-2.8C482.7,198.3,483.2,198.1,484.2,198.1z M486.7,214.4
			c-2.3,0-3.6,0.9-3.6,3.1c0,2.2,1.2,3.2,3,3.2c2.8,0,4.1-2.3,4.1-4.8v-1.2C489.4,214.5,488,214.4,486.7,214.4z M490.2,198.1
			c1.1,0,1.6,0.2,1.6,0.2v2.8c0,0-0.5,0.2-1.6,0.2c-1.1,0-1.6-0.2-1.6-0.2v-2.8C488.6,198.3,489.1,198.1,490.2,198.1z"/>
		<path class="st1" d="M506.5,204.3c1.3,0,2.3,0.4,3,0.9c-0.1,1.3-0.6,2.2-1.5,2.9c-0.7-0.5-1.4-0.7-2.2-0.7c-1.4,0-2.7,1-3.6,2.7
			v12.7c0,0-0.6,0.2-1.8,0.2c-1.2,0-1.8-0.2-1.8-0.2v-17.9c0,0,0.5-0.2,1.8-0.2c1.2,0,1.8,0.2,1.8,0.2v2.4
			C503.5,205,505.1,204.3,506.5,204.3z"/>
		<path class="st1" d="M516.1,201.1c0,0-0.6,0.2-1.8,0.2c-1.3,0-1.8-0.2-1.8-0.2v-3.3c0,0,0.6-0.2,1.8-0.2c1.2,0,1.8,0.2,1.8,0.2
			V201.1z M516.1,222.8c0,0-0.6,0.2-1.8,0.2c-1.2,0-1.8-0.2-1.8-0.2v-17.9c0,0,0.5-0.2,1.8-0.2c1.2,0,1.8,0.2,1.8,0.2V222.8z"/>
		<path class="st1" d="M535.4,222.8c0,0-0.6,0.2-1.8,0.2c-1.2,0-1.8-0.2-1.8-0.2v-12.6c0-2-1-3.1-3.3-3.1c-1.5,0-3,0.8-4,2.2v13.4
			c0,0-0.6,0.2-1.8,0.2c-1.2,0-1.8-0.2-1.8-0.2v-17.9c0,0,0.5-0.2,1.8-0.2c1.1,0,1.8,0.2,1.8,0.2v1.6c1.3-1.4,3.1-2.2,5.3-2.2
			c3.5,0,5.4,2.1,5.4,5.3V222.8z"/>
		<path class="st1" d="M555.4,204.2c0.3,0.7,0.3,2,0,2.8l-2.9-0.1c0.7,1,1,2.2,1,3.7c0,3.9-2.3,6.3-6.9,6.3c-0.6,0-1.1,0-1.5-0.1
			c-0.4,0.5-0.7,1.3-0.7,2c0.4,3.2,11-0.2,11,7c0,3.4-3.3,6-9,6c-5.3,0-7.5-2.1-7.5-4.9c0-2.7,2.2-4.3,3.1-4.8
			c-0.5-0.5-0.8-1.2-0.8-2c0-1.5,0.9-2.9,1.7-3.9c-2.1-1-3.2-2.9-3.2-5.6c0-3.9,2.4-6.3,6.9-6.3c1.6,0,2.9,0.3,3.9,0.8L555.4,204.2z
			 M543.9,223c-0.9,0.7-1.6,1.9-1.6,3.2c0,1.8,1.3,3.1,4.2,3.1c3.6,0,5.6-1.3,5.6-3.2C552,223.2,547.1,224,543.9,223z M546.6,206.7
			c-2.1,0-3.5,1.2-3.5,3.8c0,2.6,1.4,3.8,3.5,3.8s3.5-1.2,3.5-3.8C550.1,207.9,548.7,206.7,546.6,206.7z"/>
	</g>
</g>
</svg>
