<?xml version="1.0" encoding="utf-8"?>
<!-- Generator: Adobe Illustrator 19.1.1, SVG Export Plug-In . SVG Version: 6.00 Build 0)  -->
<svg version="1.1" id="Layer_1" xmlns="http://www.w3.org/2000/svg" xmlns:xlink="http://www.w3.org/1999/xlink" x="0px" y="0px"
	 viewBox="0 0 580 400" style="enable-background:new 0 0 580 400;" xml:space="preserve">
<style type="text/css">
	.st0{fill:#D4AC76;}
</style>
<g>
	<path class="st0" d="M123.3,151.1v-14.7h3.9c2,0,3.7,0.7,5.1,2.1c1.4,1.4,2.1,3.1,2.1,5.2c0,2.1-0.7,3.9-2.1,5.3s-3.2,2.1-5.2,2.1
		H123.3z M127.3,138.3h-2v10.8h2c1.4,0,2.6-0.5,3.6-1.6s1.5-2.3,1.5-3.8s-0.5-2.8-1.5-3.8C130,138.9,128.7,138.3,127.3,138.3z"/>
	<path class="st0" d="M139.6,151.1v-14.7h2.1v14.7H139.6z"/>
	<path class="st0" d="M145.7,138.3v-2h11.9v2h-4.9v12.7h-2.1v-12.7H145.7z"/>
	<path class="st0" d="M160.5,138.3v-2h11.9v2h-4.9v12.7h-2.1v-12.7H160.5z"/>
	<path class="st0" d="M184.8,151.1v-14.7h1.4l8,10.1v-10.1h2.1v14.7h-1.1l-8.2-10.5v10.5H184.8z"/>
	<path class="st0" d="M210,136.4h2.4l-4.9,8.8v5.9h-2.1v-5.8l-4.9-8.9h2.5l3.6,6.5L210,136.4z"/>
	<path class="st0" d="M213.3,151.1l5.9-14.7h1.9l5.8,14.7h-2.3l-0.9-2.3h-7.2l-0.9,2.3H213.3z M220.1,139.8l-2.9,7.1h5.6
		L220.1,139.8z"/>
	<path class="st0" d="M248.3,151.1v-6.4h-7.1v6.4h-2.1v-14.7h2.1v6.4h7.1v-6.4h2.1v14.7H248.3z"/>
	<path class="st0" d="M264.6,144.6h-6v4.5h6.5v2h-8.5v-14.7h8.4v2h-6.3v4.3h6V144.6z"/>
	<path class="st0" d="M270.1,151.1v-14.7h2.1l4.7,7.8l4.8-7.8h2v14.7h-2.1v-10.8l-0.1,0l-4.7,7.6l-4.6-7.5h-0.1v10.8H270.1z"/>
	<path class="st0" d="M301.8,151.1l-5.7-14.7h2.3l4.4,11.3l4.4-11.3h2.3l-5.7,14.7H301.8z"/>
	<path class="st0" d="M310.7,151.1l5.9-14.7h1.9l5.8,14.7H322l-0.9-2.3h-7.2l-0.9,2.3H310.7z M316,134.8c-0.2,0.2-0.4,0.3-0.7,0.3
		c-0.3,0-0.5-0.1-0.7-0.3c-0.2-0.2-0.3-0.5-0.3-0.8s0.1-0.6,0.3-0.8s0.4-0.3,0.7-0.3c0.3,0,0.5,0.1,0.7,0.3c0.2,0.2,0.3,0.5,0.3,0.8
		S316.2,134.6,316,134.8z M317.5,139.8l-2.9,7.1h5.6L317.5,139.8z M320.1,134.8c-0.2,0.2-0.4,0.3-0.7,0.3c-0.3,0-0.5-0.1-0.7-0.3
		c-0.2-0.2-0.3-0.5-0.3-0.8s0.1-0.6,0.3-0.8s0.4-0.3,0.7-0.3c0.3,0,0.5,0.1,0.7,0.3c0.2,0.2,0.3,0.5,0.3,0.8
		S320.3,134.6,320.1,134.8z"/>
	<path class="st0" d="M328.3,151.1v-14.7h1.4l8,10.1v-10.1h2.1v14.7h-1.1l-8.2-10.5v10.5H328.3z"/>
	<path class="st0" d="M344,138.3v-2h11.9v2h-4.9v12.7h-2.1v-12.7H344z"/>
	<path class="st0" d="M356.8,151.1l5.9-14.7h1.9l5.8,14.7h-2.3l-0.9-2.3H360l-0.9,2.3H356.8z M363.6,139.8l-2.9,7.1h5.6L363.6,139.8
		z"/>
	<path class="st0" d="M374.4,151.1v-14.7h5.5c1.3,0,2.4,0.4,3.3,1.3c0.9,0.9,1.3,2,1.3,3.3c0,1.2-0.4,2.2-1.1,3.1s-1.7,1.3-2.8,1.4
		l4.3,5.6h-2.5l-4.2-5.6h-1.6v5.6H374.4z M379.6,138.3h-3.1v5.3h3.1c0.9,0,1.5-0.2,2.1-0.7c0.5-0.5,0.8-1.1,0.8-1.9
		c0-0.7-0.3-1.4-0.8-1.9S380.4,138.3,379.6,138.3z"/>
	<path class="st0" d="M397.6,151.1v-14.7h5c1.4,0,2.5,0.5,3.4,1.4s1.4,2.1,1.4,3.5c0,1.4-0.5,2.5-1.4,3.4s-2.1,1.4-3.4,1.4h-2.9v5
		H397.6z M402.5,138.3h-2.8v5.8h2.8c0.8,0,1.5-0.3,2-0.8s0.8-1.2,0.8-2.1c0-0.8-0.3-1.5-0.8-2.1C404,138.6,403.3,138.3,402.5,138.3z
		"/>
	<path class="st0" d="M409.3,151.1l5.9-14.7h1.9l5.8,14.7h-2.3l-0.9-2.3h-7.2l-0.9,2.3H409.3z M416.1,139.8l-2.9,7.1h5.6
		L416.1,139.8z M417.5,135.4c-0.4,0.4-0.9,0.6-1.4,0.6c-0.6,0-1-0.2-1.4-0.6c-0.4-0.4-0.6-0.9-0.6-1.4s0.2-1,0.6-1.4
		c0.4-0.4,0.9-0.6,1.4-0.6c0.6,0,1,0.2,1.4,0.6c0.4,0.4,0.6,0.9,0.6,1.4S417.9,135,417.5,135.4z M416.1,134.8c0.2,0,0.4-0.1,0.6-0.2
		c0.2-0.2,0.2-0.4,0.2-0.6c0-0.2-0.1-0.4-0.2-0.6c-0.2-0.2-0.3-0.2-0.6-0.2c-0.2,0-0.4,0.1-0.6,0.2c-0.2,0.2-0.2,0.4-0.2,0.6
		c0,0.2,0.1,0.4,0.2,0.6C415.7,134.7,415.9,134.8,416.1,134.8z"/>
	<path class="st0" d="M435.1,151.1v-14.7h3.9c2,0,3.7,0.7,5.1,2.1c1.4,1.4,2.1,3.1,2.1,5.2c0,2.1-0.7,3.9-2.1,5.3s-3.2,2.1-5.2,2.1
		H435.1z M439.1,138.3h-2v10.8h2c1.4,0,2.6-0.5,3.6-1.6c1-1,1.5-2.3,1.5-3.8s-0.5-2.8-1.5-3.8C441.7,138.9,440.5,138.3,439.1,138.3z
		"/>
	<path class="st0" d="M451.4,151.1v-14.7h2.1v14.7H451.4z"/>
	<path class="st0" d="M468.6,144.7v-2h4.9v1c0,2.2-0.8,4-2.3,5.4c-1.5,1.4-3.3,2.1-5.3,2.1c-2.1,0-3.9-0.7-5.4-2.2
		c-1.4-1.5-2.1-3.3-2.1-5.4s0.7-4,2.1-5.4c1.4-1.5,3.2-2.2,5.4-2.2c1.1,0,2.1,0.2,3.1,0.6s1.8,1,2.5,1.7l-1.5,1.6
		c-1.1-1.3-2.5-1.9-4.1-1.9c-1.6,0-2.9,0.6-3.9,1.7c-1,1.1-1.6,2.4-1.6,4c0,1.6,0.5,2.9,1.6,4c1,1.1,2.3,1.7,3.9,1.7
		c1.4,0,2.5-0.4,3.5-1.3c1-0.9,1.6-2,1.9-3.4H468.6z"/>
</g>
</svg>
