<?xml version="1.0" encoding="utf-8"?>
<!-- Generator: Adobe Illustrator 19.1.1, SVG Export Plug-In . SVG Version: 6.00 Build 0)  -->
<svg version="1.1" id="Layer_1" xmlns="http://www.w3.org/2000/svg" xmlns:xlink="http://www.w3.org/1999/xlink" x="0px" y="0px"
	 viewBox="0 0 580 400" style="enable-background:new 0 0 580 400;" xml:space="preserve">
<style type="text/css">
	.st0{fill:#D80201;}
	.st1{fill:#FFFFFF;}
</style>
<g>
	<path class="st0" d="M114,167.4c-1.6,7.7-8.1,12.3-15.8,12.3c-10.1,0-17.5-7.2-17.5-17.4s7.6-17.5,17.7-17.5
		c6.1,0,11.2,2.6,14.3,7.9l-5.6,3c-2-3.2-5-5-8.7-5c-6.5,0-11,5.3-11,11.6c0,6.4,4.5,11.5,11,11.5c4.4,0,8.2-2.6,8.7-7.1h-7.9v-5.6
		h15.3v0.8C114.5,163.8,114.3,165.6,114,167.4z"/>
	<path class="st0" d="M119.5,179v-37.5h6.1V179H119.5z"/>
	<path class="st0" d="M142.6,179.7c-6.9,0-12.4-4.3-12.4-11.5c0-7.3,5.5-11.6,12.5-11.6c6.9,0,12.3,4.4,12.3,11.5
		S149.5,179.7,142.6,179.7z M137.4,153.3c-2,0-3.6-1.7-3.6-3.6s1.6-3.6,3.6-3.6c2,0,3.6,1.6,3.6,3.6S139.4,153.3,137.4,153.3z
		 M142.6,162.1c-3.4,0-6.1,2.8-6.1,6.1c0,3.3,2.8,6.1,6.1,6.1c3.4,0,6.2-2.7,6.2-6.1C148.7,164.8,146,162.1,142.6,162.1z
		 M147.8,153.3c-2,0-3.6-1.7-3.6-3.6c0-2,1.6-3.6,3.6-3.6s3.6,1.6,3.6,3.6S149.8,153.3,147.8,153.3z"/>
	<path class="st0" d="M187.3,179v-11.9c0-2.5-0.4-5.4-3.6-5.4c-3.6,0-4.2,3.3-4.2,6.1V179h-6.1v-11.5c0-1.1,0-2.6-0.5-3.6
		c-0.5-1.3-1.9-2.1-3.3-2.1c-1.4,0-2.8,0.8-3.4,2c-0.6,1.2-0.7,2.9-0.7,4.2V179h-6.1v-21.7h6.1v2.5c1.9-2,3.8-3.2,6.6-3.2
		c3.1,0,5.2,1.4,6.8,4c1.7-2.6,4-4,7.1-4c2.4,0,4.8,1.1,6.1,3.1c1,1.5,1.1,3.5,1.1,5.3v14H187.3z"/>
	<path class="st0" d="M205.2,162.5V179h-6.1v-16.5h-2.4v-5.2h2.4v-7.4h6.1v7.4h4.3v5.2H205.2z"/>
	<path class="st0" d="M241.7,179v-2.8c-1.7,2.3-4.2,3.5-7.1,3.5c-6.5,0-10.7-5.4-10.7-11.6c0-6.1,4.2-11.5,10.5-11.5
		c3,0,5.3,1.2,7.2,3.5v-2.8h6.1V179H241.7z M236.3,162.1c-3.4,0-6,2.7-6,6c0,3.4,2.7,6.1,6,6.1s6.1-2.8,6.1-6.1
		C242.3,164.8,239.6,162.1,236.3,162.1z"/>
	<path class="st0" d="M259.7,162.5V179h-6.1v-16.5h-2.4v-5.2h2.4v-7.4h6.1v7.4h4.3v5.2H259.7z"/>
	<path class="st0" d="M273.2,162.5V179h-6.1v-16.5h-2.4v-5.2h2.4v-7.4h6.1v7.4h4.3v5.2H273.2z"/>
	<path class="st0" d="M299.3,162.5V179h-6v-16.5h-2.4v-5.2h2.4v-7c0-1.8,0.1-3.5,0.9-5.1c1.4-2.7,4.5-4.3,7.5-4.3
		c1.3,0,2,0.3,3.2,0.8v5.5c-0.9-0.5-1.8-0.8-2.8-0.8c-2.7,0-2.9,2.8-2.9,4.9v6h5.6v5.2H299.3z"/>
	<path class="st0" d="M319,179.7c-6.9,0-12.4-4.3-12.4-11.5c0-7.3,5.5-11.6,12.5-11.6c6.9,0,12.3,4.4,12.3,11.5
		S325.8,179.7,319,179.7z M318.9,162.1c-3.3,0-6.1,2.8-6.1,6.1c0,3.3,2.8,6.1,6.1,6.1c3.4,0,6.2-2.7,6.2-6.1
		C325.1,164.8,322.3,162.1,318.9,162.1z"/>
	<path class="st0" d="M350.1,162.8c-1-0.6-1.8-0.8-2.9-0.8c-4.1,0-5.2,2.9-5.2,6.5V179h-6v-21.7h6v3.3c1.4-2.5,3.4-4,6.3-4
		c1,0,1.8,0.2,2.7,0.5L350.1,162.8z"/>
	<path class="st0" d="M381.6,179v-11.9c0-2.5-0.4-5.4-3.6-5.4c-3.5,0-4.1,3.3-4.1,6.1V179h-6.1v-11.5c0-1.1,0-2.6-0.5-3.6
		c-0.5-1.3-1.8-2.1-3.3-2.1c-1.3,0-2.8,0.8-3.4,2c-0.6,1.2-0.7,2.9-0.7,4.2V179h-6v-21.7h6v2.5c1.9-2,3.8-3.2,6.6-3.2
		c3.1,0,5.2,1.4,6.8,4c1.7-2.6,4-4,7.1-4c2.4,0,4.8,1.1,6.1,3.1c1,1.5,1.2,3.5,1.2,5.3v14H381.6z"/>
	<path class="st0" d="M410,179v-2.8c-1.7,2.3-4.2,3.5-7.1,3.5c-6.5,0-10.7-5.4-10.7-11.6c0-6.1,4.2-11.5,10.5-11.5
		c3,0,5.3,1.2,7.2,3.5v-2.8h6.1V179H410z M404.6,162.1c-3.4,0-6.1,2.7-6.1,6c0,3.4,2.7,6.1,6.1,6.1s6.1-2.8,6.1-6.1
		C410.7,164.8,408,162.1,404.6,162.1z"/>
	<path class="st0" d="M96.3,240l-8.2-9.3l-0.6,0.7v8.7h-6.1v-37.5h6.1v23.7l8.1-7.9h8.2l-10.2,9.5l11,12.2H96.3z"/>
	<path class="st0" d="M107.3,240v-37.5h6.1V240H107.3z"/>
	<path class="st0" d="M135.7,240v-2.8c-1.6,2.3-4.2,3.5-7.1,3.5c-6.5,0-10.7-5.4-10.7-11.6c0-6.1,4.2-11.5,10.5-11.5
		c3,0,5.3,1.2,7.2,3.5v-2.8h6.1V240H135.7z M130.3,223.1c-3.4,0-6.1,2.7-6.1,6c0,3.4,2.7,6.1,6.1,6.1s6.1-2.8,6.1-6.1
		C136.3,225.8,133.6,223.1,130.3,223.1z"/>
	<path class="st0" d="M161.7,223.8c-1-0.6-1.8-0.8-2.9-0.8c-4.1,0-5.2,2.9-5.2,6.5V240h-6.1v-21.7h6.1v3.3c1.4-2.5,3.4-4,6.3-4
		c1,0,1.8,0.2,2.6,0.5L161.7,223.8z"/>
	<path class="st0" d="M172.8,223.5V240h-6.1v-16.5h-2.4v-5.2h2.4v-7.4h6.1v7.4h4.3v5.2H172.8z"/>
	<path class="st0" d="M209.2,240v-2.8c-1.7,2.3-4.2,3.5-7.1,3.5c-6.5,0-10.7-5.4-10.7-11.6c0-6.1,4.2-11.5,10.5-11.5
		c3,0,5.3,1.2,7.2,3.5v-18.6h6.1V240H209.2z M203.8,223.1c-3.4,0-6.1,2.7-6.1,6c0,3.4,2.7,6.1,6.1,6.1s6.1-2.8,6.1-6.1
		C209.9,225.8,207.2,223.1,203.8,223.1z"/>
	<path class="st0" d="M224.1,212.8c-2,0-3.7-1.7-3.7-3.7s1.7-3.7,3.7-3.7s3.6,1.7,3.6,3.7S226.1,212.8,224.1,212.8z M221,240v-21.7
		h6.1V240H221z"/>
	<path class="st0" d="M238.9,223.5V240h-6.1v-16.5h-2.4v-5.2h2.4v-7.4h6.1v7.4h4.3v5.2H238.9z"/>
	<path class="st0" d="M252.4,223.5V240h-6.1v-16.5h-2.4v-5.2h2.4v-7.4h6.1v7.4h4.3v5.2H252.4z"/>
	<path class="st0" d="M287.1,240v-12c0-3-0.7-5.2-4.1-5.2c-3.8,0-4.7,2.8-4.7,6V240h-6v-21.7h6v2.7c2-2.3,3.7-3.4,6.8-3.4
		c2.3,0,4.8,0.8,6.3,2.6c1.5,1.8,1.7,3.8,1.7,6V240H287.1z"/>
	<path class="st0" d="M304.1,251.6h-6.8l8-14.9L295,218.3h7.1l6.5,12.3l6.2-12.3h6.9L304.1,251.6z"/>
	<path class="st0" d="M339.9,240v-2.8c-1.7,2.3-4.2,3.5-7.1,3.5c-6.5,0-10.7-5.4-10.7-11.6c0-6.1,4.2-11.5,10.5-11.5
		c3,0,5.3,1.2,7.2,3.5v-2.8h6.1V240H339.9z M334.5,223.1c-3.4,0-6.1,2.7-6.1,6c0,3.4,2.7,6.1,6.1,6.1s6.1-2.8,6.1-6.1
		C340.6,225.8,337.9,223.1,334.5,223.1z"/>
	<path class="st0" d="M379.1,240v-11.9c0-3-0.7-5.4-4.2-5.4c-3.8,0-4.6,2.9-4.6,6.1V240h-6v-37.5h6v18.6c1.8-2.4,3.9-3.5,6.8-3.5
		c2.4,0,4.8,0.9,6.3,2.7c1.5,1.8,1.7,3.9,1.7,6.1V240H379.1z"/>
	<path class="st0" d="M401.4,240.7c-6,0-10.5-2.7-10.5-9.1v-13.3h6v12.3c0,3,1.3,5,4.4,5s4.4-2,4.4-5v-12.3h6.1v13.3
		C411.9,238,407.4,240.7,401.4,240.7z"/>
	<path class="st0" d="M424.6,240.7c-3.1,0-6.1-1.3-8.3-3.6l3.2-3.7c1.4,1.5,3.1,2.6,5.1,2.6c1.4,0,2.8-0.9,2.8-2.4
		c0-3.7-9.7-1.8-9.7-9.2c0-4.4,3.7-6.9,7.8-6.9c2.6,0,5,0.7,7.1,2.3l-3,3.6c-1-0.8-2.3-1.5-3.6-1.5c-1,0-2.3,0.7-2.3,1.8
		c0,3.2,10,1.8,10,9.2C433.7,238,429.3,240.7,424.6,240.7z"/>
	<path class="st0" d="M449.2,224.6v4.3h-6.2V220c0.6,0.1,1.2,0.2,1.8,0.2c3,0,6.3-1.5,6.3-5c0-2.2-1.7-3.9-3.8-3.9
		c-2,0-3.6,1.5-3.6,3.5c0,0.2,0,0.4,0,0.6h-6.5v-0.6c0-5.5,5.1-9,10.2-9c5.4,0,10.1,3.9,10.1,9.4
		C457.5,220.4,453.8,223.5,449.2,224.6z M446.3,240.7c-2.2,0-4-1.7-4-3.9c0-2.2,1.8-3.9,3.9-3.9c2.2,0,4,1.7,4,3.9
		C450.2,238.9,448.4,240.7,446.3,240.7z"/>
</g>
</svg>
