<svg id="Layer_1" data-name="Layer 1" xmlns="http://www.w3.org/2000/svg" viewBox="0 0 160 600"><defs><style>.cls-1{fill:#fff;}</style></defs><title>text</title><path class="cls-1" d="M61.65,253.81V232.48h8.44A6.36,6.36,0,0,1,74.81,234a5,5,0,0,1,1.54,3.63q0,3.62-3.78,4.8a5.77,5.77,0,0,1,3.34,2.07A5.52,5.52,0,0,1,77,247.9a5.71,5.71,0,0,1-1.7,4.21c-1.13,1.14-2.87,1.7-5.22,1.7Zm2.58-12.19h4.64c1.92,0,3.21-.36,3.86-1.1a3.8,3.8,0,0,0,1-2.58,3,3,0,0,0-1-2.38,4.65,4.65,0,0,0-3.11-.91H64.23Zm0,9.85H70a4.69,4.69,0,0,0,3.23-1,3.38,3.38,0,0,0,1.14-2.64,4.41,4.41,0,0,0-.52-2.12,3.56,3.56,0,0,0-1.45-1.5,5.73,5.73,0,0,0-2.8-.54H64.23Z"/><path class="cls-1" d="M83.23,253.81H80.77V232.48h2.46Z"/><path class="cls-1" d="M90.66,232.48v2.74H88v-2.74ZM90.59,238v15.78H88.13V238Z"/><path class="cls-1" d="M29.37,292.21H28.18V270.88h2.45v8.17A5.17,5.17,0,0,1,35.29,276a5.77,5.77,0,0,1,4.55,2.14q1.84,2.14,1.84,6.23a9.5,9.5,0,0,1-1.8,5.9,5.64,5.64,0,0,1-4.7,2.39,5.41,5.41,0,0,1-4.94-3ZM30.63,286a4.83,4.83,0,0,0,1.5,3.53,4.32,4.32,0,0,0,2.79,1.1A3.54,3.54,0,0,0,38,289a7.57,7.57,0,0,0,1.15-4.46A8.87,8.87,0,0,0,38,279.77,3.46,3.46,0,0,0,34.91,278a3.87,3.87,0,0,0-2.8,1.25,5.24,5.24,0,0,0-1.48,3.21Z"/><path class="cls-1" d="M55.79,287.51l2.28.47a6.44,6.44,0,0,1-2.44,3.34,7,7,0,0,1-4.26,1.33,6.65,6.65,0,0,1-5.24-2.28,8.7,8.7,0,0,1-2-6,8.83,8.83,0,0,1,2.08-6.1A6.75,6.75,0,0,1,51.43,276a6.34,6.34,0,0,1,5,2.14c1.25,1.43,1.89,3.56,1.93,6.41H46.87q0,3.57,1.5,4.83a4.89,4.89,0,0,0,3.17,1.25A4.34,4.34,0,0,0,55.79,287.51Zm-.14-4.8a6.89,6.89,0,0,0-.44-2.36,4.07,4.07,0,0,0-1.37-1.76,3.82,3.82,0,0,0-2.33-.72,4.12,4.12,0,0,0-3.1,1.31A5.39,5.39,0,0,0,47,282.71Z"/><path class="cls-1" d="M59.9,288.12l2.34-.49q.78,3,4.94,3a4.65,4.65,0,0,0,2.59-.69A2.18,2.18,0,0,0,70.84,288c0-1.24-.91-2-2.71-2.36L64.8,285a6,6,0,0,1-3.1-1.47,3.76,3.76,0,0,1-1.16-2.89,4.16,4.16,0,0,1,1.58-3.32A6.37,6.37,0,0,1,66.37,276c3.42,0,5.54,1.34,6.34,4l-2.25.48a3.86,3.86,0,0,0-4-2.47,4.49,4.49,0,0,0-2.46.62,2,2,0,0,0-1,1.72c0,1.17.82,1.9,2.46,2.2l3.08.56q4.81.87,4.82,4.68a4.18,4.18,0,0,1-1.79,3.51,7.83,7.83,0,0,1-4.78,1.34C63.1,292.65,60.78,291.14,59.9,288.12Z"/><path class="cls-1" d="M84,290.54v1.94a18.14,18.14,0,0,1-2.25.17q-4.58,0-4.57-4.79v-9.51H74.4v-1.92h2.8l.1-4,2.29-.22v4.19h3.53v1.92H79.59v9.92c0,1.63.84,2.44,2.53,2.44A12.58,12.58,0,0,0,84,290.54Z"/><path class="cls-1" d="M97.16,297.54H94.71V276.43h2.22v3.06q1.66-3.5,5-3.5a5.35,5.35,0,0,1,4.51,2.34,11.33,11.33,0,0,1,0,12.05,5.51,5.51,0,0,1-4.53,2.27,5.24,5.24,0,0,1-4.68-2.83Zm0-15.5v4.45a4.73,4.73,0,0,0,1.52,3,3.92,3.92,0,0,0,2.67,1.17,3.71,3.71,0,0,0,2.85-1.41q1.24-1.41,1.25-4.86a8,8,0,0,0-1.13-4.6,3.46,3.46,0,0,0-3-1.62,3.69,3.69,0,0,0-2.64,1.14A5.6,5.6,0,0,0,97.16,282Z"/><path class="cls-1" d="M124.15,292.21h-2.42a26.42,26.42,0,0,1-.28-2.84,5.71,5.71,0,0,1-5.54,3.28,5.52,5.52,0,0,1-4.07-1.41,4.6,4.6,0,0,1-1.43-3.38,4.74,4.74,0,0,1,2-3.94c1.35-1,3.65-1.54,6.9-1.54q.66,0,2.1.06a9.17,9.17,0,0,0-.29-2.71,2.47,2.47,0,0,0-1.23-1.33,5.19,5.19,0,0,0-2.47-.5q-3.73,0-4.34,2.84l-2.27-.39c.55-2.91,2.88-4.36,7-4.36q3.27,0,4.63,1.45t1.37,5v6.71A13.29,13.29,0,0,0,124.15,292.21Zm-2.7-7.89c-1-.06-1.77-.09-2.29-.09a8.85,8.85,0,0,0-4.51.95A3.07,3.07,0,0,0,113,288a2.6,2.6,0,0,0,.87,2,3.47,3.47,0,0,0,2.5.82,4.65,4.65,0,0,0,3.65-1.62,5.47,5.47,0,0,0,1.43-3.79C121.49,285.06,121.48,284.72,121.45,284.32Zm-1-12.83a2.61,2.61,0,0,1-.78,1.9,2.58,2.58,0,0,1-1.9.79,2.69,2.69,0,0,1-1.93-.8,2.56,2.56,0,0,1-.81-1.9,2.62,2.62,0,0,1,.81-1.91,2.68,2.68,0,0,1,2-.81,2.53,2.53,0,0,1,1.84.8A2.68,2.68,0,0,1,120.41,271.49Zm-1.29,0a1.41,1.41,0,0,0-.41-1,1.25,1.25,0,0,0-.92-.42,1.47,1.47,0,0,0-1.09.42,1.42,1.42,0,0,0,1,2.41,1.31,1.31,0,0,0,1-.41A1.35,1.35,0,0,0,119.12,271.48Z"/><path class="cls-1" d="M26.1,330.61H23.88v-3c-1.12,2.31-2.8,3.46-5,3.46a4.75,4.75,0,0,1-3.8-1.6,6.7,6.7,0,0,1-1.38-4.53V314.83h2.45v10.08a4.24,4.24,0,0,0,1,3.22,3.14,3.14,0,0,0,2.15.89,3.66,3.66,0,0,0,2.15-.68,5.1,5.1,0,0,0,1.6-1.91,5.91,5.91,0,0,0,.64-2.71v-8.89H26.1Z"/><path class="cls-1" d="M43.45,330.61h-2.3V320.47a4.13,4.13,0,0,0-.95-3.08,3.3,3.3,0,0,0-2.32-.89,4,4,0,0,0-3.15,1.5A6,6,0,0,0,33.46,322v8.66H31V314.83h2.28v2.91q1.92-3.35,5-3.35a4.94,4.94,0,0,1,3,.92,4.77,4.77,0,0,1,1.7,2.05,12.38,12.38,0,0,1,.47,4.13Z"/><path class="cls-1" d="M50.88,309.28V312H48.24v-2.74Zm-.08,5.55v15.78H48.35V314.83Z"/><path class="cls-1" d="M67.26,314.83,61.8,330.61H59.27l-5.65-15.78h2.72l4.39,12.83,4.35-12.83Z"/><path class="cls-1" d="M80,325.91l2.28.47a6.44,6.44,0,0,1-2.44,3.34,7,7,0,0,1-4.26,1.33,6.65,6.65,0,0,1-5.24-2.28,8.71,8.71,0,0,1-2-6,8.83,8.83,0,0,1,2.08-6.1,6.75,6.75,0,0,1,5.22-2.32,6.34,6.34,0,0,1,5,2.14c1.25,1.43,1.89,3.56,1.93,6.41H71.12q0,3.57,1.5,4.83A4.89,4.89,0,0,0,75.79,329,4.34,4.34,0,0,0,80,325.91Zm-.14-4.8a6.84,6.84,0,0,0-.44-2.36A4.07,4.07,0,0,0,78.09,317a3.82,3.82,0,0,0-2.33-.72,4.12,4.12,0,0,0-3.1,1.31,5.39,5.39,0,0,0-1.43,3.53Z"/><path class="cls-1" d="M88.73,330.61H86.27V314.83h2.16v3.69a7.94,7.94,0,0,1,2.29-3.39,4.19,4.19,0,0,1,2.35-.77c.25,0,.57,0,1,.06v2.35h-.5a4.32,4.32,0,0,0-3.38,1.51,6.17,6.17,0,0,0-1.43,4Z"/><path class="cls-1" d="M94.88,326.52l2.35-.49q.78,3,4.93,3a4.69,4.69,0,0,0,2.6-.69,2.17,2.17,0,0,0,1.06-1.94c0-1.23-.9-2-2.7-2.35l-3.33-.63a6.08,6.08,0,0,1-3.11-1.47,3.8,3.8,0,0,1-1.16-2.89,4.18,4.18,0,0,1,1.58-3.32,6.37,6.37,0,0,1,4.25-1.34c3.43,0,5.54,1.34,6.35,4l-2.25.48a3.87,3.87,0,0,0-4-2.47A4.49,4.49,0,0,0,99,317a1.94,1.94,0,0,0-1,1.72c0,1.17.82,1.9,2.45,2.2l3.08.56q4.83.87,4.83,4.68a4.17,4.17,0,0,1-1.8,3.51,7.83,7.83,0,0,1-4.78,1.34Q96.21,331.05,94.88,326.52Z"/><path class="cls-1" d="M122.27,325.91l2.28.47a6.37,6.37,0,0,1-2.43,3.34,7,7,0,0,1-4.27,1.33,6.63,6.63,0,0,1-5.23-2.28,8.66,8.66,0,0,1-2-6,8.78,8.78,0,0,1,2.08-6.1,6.71,6.71,0,0,1,5.21-2.32,6.32,6.32,0,0,1,5,2.14c1.26,1.43,1.9,3.56,1.93,6.41H113.35q0,3.57,1.5,4.83A4.91,4.91,0,0,0,118,329,4.34,4.34,0,0,0,122.27,325.91Zm-.14-4.8a6.84,6.84,0,0,0-.43-2.36,4.1,4.1,0,0,0-1.38-1.76,3.8,3.8,0,0,0-2.33-.72,4.13,4.13,0,0,0-3.1,1.31,5.39,5.39,0,0,0-1.43,3.53Z"/><path class="cls-1" d="M131,330.61h-2.45V309.28H131Z"/><path class="cls-1" d="M138.32,330.61h-2.45V309.28h2.45Z"/><path class="cls-1" d="M30.05,369H27.83v-3q-1.68,3.47-5,3.46a4.73,4.73,0,0,1-3.79-1.6,6.65,6.65,0,0,1-1.38-4.53V353.23h2.45v10.08a4.23,4.23,0,0,0,1,3.22,3.16,3.16,0,0,0,2.15.89,3.66,3.66,0,0,0,2.15-.68,5,5,0,0,0,1.6-1.91,5.79,5.79,0,0,0,.64-2.71v-8.89h2.46Z"/><path class="cls-1" d="M42.11,367.34v1.94a18.42,18.42,0,0,1-2.25.17q-4.57,0-4.58-4.79v-9.51h-2.8v-1.92h2.8l.11-4,2.28-.22v4.19H41.2v1.92H37.67v9.92c0,1.63.85,2.44,2.53,2.44A12.59,12.59,0,0,0,42.11,367.34Z"/><path class="cls-1" d="M51.34,353.23v1.92H47.59V369H45.14V355.15H42.45v-1.92h2.69q.06-3.8,1.46-4.89a5.37,5.37,0,0,1,3.42-1.1,14.16,14.16,0,0,1,2.25.22v2a6,6,0,0,0-1.52-.21,3.44,3.44,0,0,0-2.38.71,3.58,3.58,0,0,0-.78,2.67v.64Z"/><path class="cls-1" d="M59.31,369.45A6,6,0,0,1,54.24,367a9.67,9.67,0,0,1-1.82-6,8.58,8.58,0,0,1,2-6,6.59,6.59,0,0,1,5.09-2.25,6.21,6.21,0,0,1,5.15,2.37,9.18,9.18,0,0,1,1.88,5.92,8.84,8.84,0,0,1-2,6A6.62,6.62,0,0,1,59.31,369.45Zm.19-2a3.9,3.9,0,0,0,3.14-1.55,7.56,7.56,0,0,0,1.27-4.81c0-2.19-.45-3.78-1.33-4.76a4.05,4.05,0,0,0-3.11-1.48,3.91,3.91,0,0,0-3.09,1.49A7.21,7.21,0,0,0,55.11,361c0,2.28.42,3.92,1.27,4.9A4,4,0,0,0,59.5,367.42Z"/><path class="cls-1" d="M72.73,369H70.28V353.23h2.16v3.69a7.94,7.94,0,0,1,2.29-3.39,4.19,4.19,0,0,1,2.35-.77c.25,0,.57,0,1,.06v2.35h-.5a4.32,4.32,0,0,0-3.38,1.51,6.23,6.23,0,0,0-1.44,4Z"/><path class="cls-1" d="M102,369H99.58V359.2a9.23,9.23,0,0,0-.21-2.28,2.74,2.74,0,0,0-1-1.39,2.9,2.9,0,0,0-1.82-.63,3.87,3.87,0,0,0-2.72,1.29,5.31,5.31,0,0,0-1.3,3.93V369H90.13V358.62a3.72,3.72,0,0,0-1-2.94,3.15,3.15,0,0,0-2.08-.86,3.47,3.47,0,0,0-2.72,1.35,5,5,0,0,0-1.16,3.4V369H80.83V353.23h2.11v3q1.75-3.47,4.86-3.47a4.08,4.08,0,0,1,2.89,1.11,5.09,5.09,0,0,1,1.53,2.67q1.62-3.78,5-3.78a4.52,4.52,0,0,1,2.82.92,4.22,4.22,0,0,1,1.58,2.12,11.83,11.83,0,0,1,.37,3.37Z"/><path class="cls-1" d="M109.41,347.68v2.74h-2.64v-2.74Zm-.08,5.55V369h-2.45V353.23Z"/><path class="cls-1" d="M126.66,369h-2.3V358.87a4.11,4.11,0,0,0-1-3.08,3.3,3.3,0,0,0-2.32-.89,3.94,3.94,0,0,0-3.14,1.5,5.9,5.9,0,0,0-1.28,4V369h-2.45V353.23h2.28v2.9c1.28-2.22,2.94-3.34,5-3.34a4.94,4.94,0,0,1,3,.92,4.81,4.81,0,0,1,1.71,2.05,12.7,12.7,0,0,1,.46,4.12Z"/><path class="cls-1" d="M144.45,350.76v1.95a4.39,4.39,0,0,0-2.25.39,2,2,0,0,0-.76,1.41,5.71,5.71,0,0,1,1.51,3.81A4.92,4.92,0,0,1,141.3,362a6.18,6.18,0,0,1-4.42,1.54,5.59,5.59,0,0,1-1.08-.09,7.19,7.19,0,0,0-1.08-.17,2,2,0,0,0-1,.41,1.27,1.27,0,0,0-.59,1.07A1.17,1.17,0,0,0,134,366a18.31,18.31,0,0,0,4.05.36,22,22,0,0,1,4,.37,4.07,4.07,0,0,1,2.18,1.28,3.52,3.52,0,0,1,.89,2.43q0,4.51-7.94,4.51a10.32,10.32,0,0,1-5.49-1.13,3.49,3.49,0,0,1-1.73-3,3.18,3.18,0,0,1,2.41-3.16,3,3,0,0,1-1.55-2.54c0-1.22.73-2.15,2.19-2.8a5.12,5.12,0,0,1-2.05-4.17,4.82,4.82,0,0,1,1.75-3.84,6.34,6.34,0,0,1,4.27-1.5,7.71,7.71,0,0,1,3.23.67,3,3,0,0,1,1.09-2.14,4.6,4.6,0,0,1,2.58-.59ZM134,368.37a2.37,2.37,0,0,0-1.72,2.17,2.07,2.07,0,0,0,1.41,1.87,8.51,8.51,0,0,0,3.6.66,11.52,11.52,0,0,0,3.72-.57c1.13-.38,1.69-1,1.69-1.93a1.58,1.58,0,0,0-.5-1.2,2.44,2.44,0,0,0-1.37-.59,28.08,28.08,0,0,0-3-.19C136.11,368.55,134.84,368.47,134,368.37ZM137,361.7a3.51,3.51,0,0,0,2.55-1,3.31,3.31,0,0,0,1-2.5,3.4,3.4,0,0,0-1-2.55,3.43,3.43,0,0,0-2.48-1,3.65,3.65,0,0,0-2.46.93,3.71,3.71,0,0,0-.11,5.12A3.47,3.47,0,0,0,137,361.7Z"/></svg>