<svg id="Layer_1" data-name="Layer 1" xmlns="http://www.w3.org/2000/svg" viewBox="0 0 160 600"><defs><style>.cls-1{fill:#010121;}</style></defs><title>text</title><path class="cls-1" d="M51.54,190.63h2.63v17.06h9.71V210H51.54Z"/><path class="cls-1" d="M66.24,190.63h2.41v2.69H66.24Zm0,5.32h2.41V210H66.24Z"/><path class="cls-1" d="M73.35,191.57c.55-.81,1.62-1.21,3.2-1.21H77l.54,0v2.16l-.54,0H76.7c-.73,0-1.16.19-1.31.56a11.21,11.21,0,0,0-.21,2.86h2.37v1.87H75.18V210H72.83V197.82h-2V196h2v-2.22A4.26,4.26,0,0,1,73.35,191.57Z"/><path class="cls-1" d="M79.81,190.63h2.37V210H79.81Z"/><path class="cls-1" d="M85.74,190.63h2.41v2.69H85.74Zm0,5.32h2.41V210H85.74Z"/><path class="cls-1" d="M99.59,196.45a6.3,6.3,0,0,1,1.36,1.34V196h2.19v12.84a9.44,9.44,0,0,1-.79,4.25Q100.88,216,96.8,216A6.84,6.84,0,0,1,93,215a4,4,0,0,1-1.73-3.2h2.41a2.69,2.69,0,0,0,.68,1.47,3.49,3.49,0,0,0,2.52.79c1.81,0,3-.64,3.55-1.93a10.8,10.8,0,0,0,.46-4,4.56,4.56,0,0,1-1.71,1.6,5.53,5.53,0,0,1-2.64.53,5.59,5.59,0,0,1-4-1.63c-1.15-1.08-1.72-2.88-1.72-5.38a8.19,8.19,0,0,1,1.73-5.54,5.32,5.32,0,0,1,4.17-2A5.1,5.1,0,0,1,99.59,196.45Zm.29,2.54a3.45,3.45,0,0,0-2.74-1.26,3.38,3.38,0,0,0-3.41,2.34,9.11,9.11,0,0,0-.49,3.28,5.81,5.81,0,0,0,1,3.64,3.09,3.09,0,0,0,2.59,1.24,3.64,3.64,0,0,0,3.58-2.3,7.58,7.58,0,0,0,.57-3.05A5.94,5.94,0,0,0,99.88,199Z"/><path class="cls-1" d="M108,196.06h2.75v2.88H108Zm0,11.07h2.75V210H108Z"/><path class="cls-1" d="M13.88,223h2.65V242.4H13.88Z"/><path class="cls-1" d="M34.86,223v2.31H28.34V242.4H25.69V225.34H19.16V223Z"/><path class="cls-1" d="M34.86,233.66h6.62v2.44H34.86Z"/><path class="cls-1" d="M44.54,223h2.37V242.4H44.54Z"/><path class="cls-1" d="M50,242.35l1.69-1.78a7.93,7.93,0,0,1-1-2.18,10.2,10.2,0,0,1-.36-2.88,8.84,8.84,0,0,1,1.68-5.31,5.66,5.66,0,0,1,4.89-2.33,6.77,6.77,0,0,1,2.94.6,8.37,8.37,0,0,1,1.7,1.14l1.67-1.86.69.67-1.7,1.89a8,8,0,0,1,1.2,2.78,9.41,9.41,0,0,1,.22,2,8.45,8.45,0,0,1-1.85,5.61,6.09,6.09,0,0,1-4.92,2.21,7.29,7.29,0,0,1-2.61-.43,4.84,4.84,0,0,1-1.85-1.16L50.72,243Zm8.82-12a4.45,4.45,0,0,0-1.84-.38,3.66,3.66,0,0,0-3.1,1.61,6.81,6.81,0,0,0-1.17,4.12,7.78,7.78,0,0,0,.21,1.83,11.3,11.3,0,0,0,.4,1.24l6.7-7.48A2.88,2.88,0,0,0,58.77,230.33Zm-3.48,10.28a4.79,4.79,0,0,0,1.54.26,3.66,3.66,0,0,0,3.58-2.35,7.87,7.87,0,0,0,.64-3.24,8.65,8.65,0,0,0-.21-2,6.8,6.8,0,0,0-.36-1.08l-6.61,7.44A3.41,3.41,0,0,0,55.29,240.61Z"/><path class="cls-1" d="M68.38,238a3.41,3.41,0,0,0,.6,1.82,3.87,3.87,0,0,0,3.18,1.15,4.73,4.73,0,0,0,2.37-.58,1.89,1.89,0,0,0,1-1.77,1.49,1.49,0,0,0-.82-1.38,9.76,9.76,0,0,0-2.06-.68l-1.92-.47a9.64,9.64,0,0,1-2.71-1,3,3,0,0,1-1.55-2.67A4.07,4.07,0,0,1,68,229.15a5.89,5.89,0,0,1,3.94-1.24c2.15,0,3.71.62,4.66,1.87a4,4,0,0,1,.87,2.56H75.18a2.77,2.77,0,0,0-.58-1.46,3.78,3.78,0,0,0-2.9-.93,3.56,3.56,0,0,0-2.09.52,1.59,1.59,0,0,0-.71,1.35,1.66,1.66,0,0,0,.93,1.47,5.77,5.77,0,0,0,1.59.58l1.6.38a12.69,12.69,0,0,1,3.49,1.2,3.18,3.18,0,0,1,1.38,2.86,4.36,4.36,0,0,1-1.44,3.26A6.25,6.25,0,0,1,72,242.94c-2.13,0-3.64-.48-4.52-1.43A5.32,5.32,0,0,1,66.1,238Z"/><path class="cls-1" d="M80.47,228.28h2.25v2a6.48,6.48,0,0,1,2.12-1.78,5.68,5.68,0,0,1,2.49-.54q3,0,4.06,2.1a7.38,7.38,0,0,1,.58,3.28v9.06H89.56v-8.9a4.86,4.86,0,0,0-.38-2.08,2.32,2.32,0,0,0-2.29-1.32,4.83,4.83,0,0,0-1.39.17,3.86,3.86,0,0,0-2.48,2.6,9.66,9.66,0,0,0-.18,2.13v7.4H80.47Z"/><path class="cls-1" d="M95.48,223h2.41v2.69H95.48Zm0,5.32h2.41V242.4H95.48Z"/><path class="cls-1" d="M101.48,228.28h2.25v2a6.4,6.4,0,0,1,2.13-1.78,5.62,5.62,0,0,1,2.49-.54c2,0,3.36.7,4.06,2.1a7.38,7.38,0,0,1,.58,3.28v9.06h-2.41v-8.9a4.7,4.7,0,0,0-.39-2.08,2.31,2.31,0,0,0-2.29-1.32,4.8,4.8,0,0,0-1.38.17,3.55,3.55,0,0,0-1.72,1.16,3.63,3.63,0,0,0-.77,1.44,9.66,9.66,0,0,0-.18,2.13v7.4h-2.37Z"/><path class="cls-1" d="M124.35,228.85a6.3,6.3,0,0,1,1.36,1.34v-1.78h2.19v12.84a9.44,9.44,0,0,1-.79,4.25q-1.47,2.87-5.56,2.87a6.8,6.8,0,0,1-3.82-1,4,4,0,0,1-1.73-3.2h2.41a2.69,2.69,0,0,0,.68,1.47,3.49,3.49,0,0,0,2.52.79c1.81,0,3-.64,3.55-1.93a10.8,10.8,0,0,0,.46-4,4.56,4.56,0,0,1-1.71,1.6,5.53,5.53,0,0,1-2.64.53,5.63,5.63,0,0,1-4-1.63c-1.14-1.08-1.71-2.88-1.71-5.38a8.19,8.19,0,0,1,1.73-5.54,5.32,5.32,0,0,1,4.17-2A5.1,5.1,0,0,1,124.35,228.85Zm.29,2.54a3.47,3.47,0,0,0-2.75-1.26,3.39,3.39,0,0,0-3.41,2.34,9.35,9.35,0,0,0-.48,3.28,5.87,5.87,0,0,0,1,3.64,3.12,3.12,0,0,0,2.59,1.24,3.64,3.64,0,0,0,3.58-2.3,7.41,7.41,0,0,0,.58-3.05A5.94,5.94,0,0,0,124.64,231.39Z"/><path class="cls-1" d="M139,223h2.42v2.69H139Zm0,5.32h2.42V242.4H139Z"/><path class="cls-1" d="M37.8,255.43h2.38V274.8H37.8Z"/><path class="cls-1" d="M43.74,255.43h2.41v2.69H43.74Zm0,5.32h2.41V274.8H43.74Z"/><path class="cls-1" d="M50.9,260.68l3.77,11.5,3.93-11.5h2.6L55.88,274.8H53.35l-5.2-14.12Z"/><path class="cls-1" d="M64.65,270.37a3.41,3.41,0,0,0,.6,1.82,3.87,3.87,0,0,0,3.18,1.15,4.67,4.67,0,0,0,2.36-.58,1.88,1.88,0,0,0,1-1.77A1.53,1.53,0,0,0,71,269.6a10.57,10.57,0,0,0-2.06-.67L67,268.46a9.64,9.64,0,0,1-2.71-1,3,3,0,0,1-1.55-2.67,4.07,4.07,0,0,1,1.46-3.24,5.89,5.89,0,0,1,3.94-1.24c2.15,0,3.71.62,4.66,1.87a4,4,0,0,1,.87,2.56H71.45a2.77,2.77,0,0,0-.58-1.46,3.78,3.78,0,0,0-2.9-.93,3.48,3.48,0,0,0-2.09.52,1.59,1.59,0,0,0-.71,1.35,1.66,1.66,0,0,0,.93,1.47,5.77,5.77,0,0,0,1.59.58l1.6.38a12.35,12.35,0,0,1,3.49,1.2,3.18,3.18,0,0,1,1.38,2.86A4.36,4.36,0,0,1,72.72,274a6.26,6.26,0,0,1-4.42,1.37c-2.12,0-3.63-.48-4.51-1.43a5.32,5.32,0,0,1-1.42-3.54Z"/><path class="cls-1" d="M76.8,255.43h2.37V274.8H76.8Z"/><path class="cls-1" d="M82.21,274.75,83.9,273a7.93,7.93,0,0,1-1-2.18,10.2,10.2,0,0,1-.36-2.88,8.84,8.84,0,0,1,1.68-5.31,5.66,5.66,0,0,1,4.89-2.33,6.77,6.77,0,0,1,2.94.6,8.37,8.37,0,0,1,1.7,1.14l1.67-1.86.69.67-1.7,1.89a8,8,0,0,1,1.2,2.78,9.41,9.41,0,0,1,.22,2A8.4,8.4,0,0,1,94,273.13,6.09,6.09,0,0,1,89,275.34a7.29,7.29,0,0,1-2.61-.43,4.84,4.84,0,0,1-1.85-1.16L83,275.43Zm8.82-12a4.42,4.42,0,0,0-1.84-.38,3.66,3.66,0,0,0-3.1,1.61,6.81,6.81,0,0,0-1.17,4.12,7.78,7.78,0,0,0,.21,1.83,11.3,11.3,0,0,0,.4,1.24l6.7-7.48A2.88,2.88,0,0,0,91,262.73ZM87.55,273a4.79,4.79,0,0,0,1.54.26,3.66,3.66,0,0,0,3.58-2.35,7.87,7.87,0,0,0,.64-3.24,9.26,9.26,0,0,0-.2-2,8.19,8.19,0,0,0-.37-1.08L86.13,272A3.41,3.41,0,0,0,87.55,273Z"/><path class="cls-1" d="M99,260.75h2.32v1.87a5.74,5.74,0,0,1,1.56-1.49,5,5,0,0,1,2.83-.79,5.31,5.31,0,0,1,4.08,1.84,7.49,7.49,0,0,1,1.68,5.25c0,3.08-.81,5.27-2.42,6.59a5.48,5.48,0,0,1-3.58,1.25,4.9,4.9,0,0,1-2.68-.69,6.23,6.23,0,0,1-1.42-1.36v7.21H99ZM108,271.81a6.62,6.62,0,0,0,1.1-4.16,7.69,7.69,0,0,0-.49-2.9,3.59,3.59,0,0,0-6.77.14,9.58,9.58,0,0,0-.49,3.34,7.07,7.07,0,0,0,.49,2.79,3.61,3.61,0,0,0,6.16.79Z"/><path class="cls-1" d="M115.65,270.37a3.41,3.41,0,0,0,.61,1.82,3.86,3.86,0,0,0,3.17,1.15,4.68,4.68,0,0,0,2.37-.58,1.9,1.9,0,0,0,1-1.77,1.53,1.53,0,0,0-.82-1.39,10.49,10.49,0,0,0-2.07-.67l-1.91-.47a9.4,9.4,0,0,1-2.71-1,3,3,0,0,1-1.55-2.67,4.07,4.07,0,0,1,1.46-3.24,5.89,5.89,0,0,1,3.94-1.24c2.15,0,3.71.62,4.66,1.87a4.13,4.13,0,0,1,.87,2.56h-2.24a2.77,2.77,0,0,0-.58-1.46,3.79,3.79,0,0,0-2.91-.93,3.47,3.47,0,0,0-2.08.52,1.59,1.59,0,0,0-.71,1.35,1.66,1.66,0,0,0,.93,1.47,5.77,5.77,0,0,0,1.59.58l1.59.38a12.33,12.33,0,0,1,3.5,1.2,3.18,3.18,0,0,1,1.38,2.86,4.33,4.33,0,0,1-1.45,3.26,6.21,6.21,0,0,1-4.41,1.37c-2.12,0-3.63-.48-4.52-1.43a5.37,5.37,0,0,1-1.42-3.54Z"/><path class="cls-1" d="M17.26,293.15h2.32V295a5.89,5.89,0,0,1,1.56-1.49,5,5,0,0,1,2.83-.79,5.32,5.32,0,0,1,4.09,1.84,7.49,7.49,0,0,1,1.68,5.25c0,3.08-.81,5.27-2.43,6.59a5.44,5.44,0,0,1-3.57,1.25,4.93,4.93,0,0,1-2.69-.69,6.43,6.43,0,0,1-1.41-1.36v7.21H17.26Zm8.93,11.06a6.56,6.56,0,0,0,1.11-4.16,7.89,7.89,0,0,0-.49-2.9,3.39,3.39,0,0,0-3.39-2.33A3.38,3.38,0,0,0,20,297.29a9.82,9.82,0,0,0-.49,3.34,7.25,7.25,0,0,0,.49,2.79,3.38,3.38,0,0,0,3.39,2.18A3.38,3.38,0,0,0,26.19,304.21Z"/><path class="cls-1" d="M41.2,293.47a5.34,5.34,0,0,1,2.13,1.82,6.33,6.33,0,0,1,1,2.5,16.31,16.31,0,0,1,.21,3.11H34.22a6.09,6.09,0,0,0,1,3.46,3.36,3.36,0,0,0,2.91,1.3,3.74,3.74,0,0,0,2.94-1.23,4.1,4.1,0,0,0,.88-1.66h2.33a4.94,4.94,0,0,1-.61,1.73,6.6,6.6,0,0,1-1.16,1.57,5.54,5.54,0,0,1-2.66,1.42,8.06,8.06,0,0,1-1.92.21,5.91,5.91,0,0,1-4.45-1.92,7.51,7.51,0,0,1-1.82-5.37,8.14,8.14,0,0,1,1.84-5.52,6,6,0,0,1,4.79-2.13A6.4,6.4,0,0,1,41.2,293.47Zm.85,5.54a6.17,6.17,0,0,0-.67-2.46,3.4,3.4,0,0,0-3.23-1.72A3.6,3.6,0,0,0,35.43,296a4.48,4.48,0,0,0-1.16,3Z"/><path class="cls-1" d="M47.56,293.08h2.25v2.44a5.42,5.42,0,0,1,1.36-1.73,3.49,3.49,0,0,1,2.49-1l.23,0,.54.05v2.5l-.39-.05h-.39a3.38,3.38,0,0,0-2.75,1.15,4,4,0,0,0-1,2.66v8.12H47.56Z"/><path class="cls-1" d="M57.9,302.77a3.41,3.41,0,0,0,.6,1.82,3.87,3.87,0,0,0,3.18,1.15,4.77,4.77,0,0,0,2.36-.58,1.88,1.88,0,0,0,1-1.77,1.51,1.51,0,0,0-.82-1.38,9.76,9.76,0,0,0-2.06-.68l-1.92-.47a9.64,9.64,0,0,1-2.71-1A3,3,0,0,1,56,297.19,4.07,4.07,0,0,1,57.47,294a5.89,5.89,0,0,1,3.94-1.24c2.15,0,3.71.62,4.66,1.87a4,4,0,0,1,.87,2.56H64.7a2.71,2.71,0,0,0-.58-1.45,3.74,3.74,0,0,0-2.9-.94,3.56,3.56,0,0,0-2.09.52,1.59,1.59,0,0,0-.71,1.35,1.66,1.66,0,0,0,.93,1.47,5.77,5.77,0,0,0,1.59.58l1.6.38a13,13,0,0,1,3.49,1.2,3.18,3.18,0,0,1,1.38,2.86A4.34,4.34,0,0,1,66,306.37a6.26,6.26,0,0,1-4.42,1.37c-2.12,0-3.63-.48-4.51-1.43a5.32,5.32,0,0,1-1.42-3.54Z"/><path class="cls-1" d="M69.79,293.15h2.32V295a5.61,5.61,0,0,1,1.56-1.49,5,5,0,0,1,2.83-.79,5.31,5.31,0,0,1,4.08,1.84,7.49,7.49,0,0,1,1.68,5.25c0,3.08-.81,5.27-2.42,6.59a5.48,5.48,0,0,1-3.58,1.25,4.9,4.9,0,0,1-2.68-.69,6.23,6.23,0,0,1-1.42-1.36v7.21H69.79Zm8.93,11.06a6.62,6.62,0,0,0,1.1-4.16,7.69,7.69,0,0,0-.49-2.9,3.59,3.59,0,0,0-6.77.14,9.58,9.58,0,0,0-.49,3.34,7.07,7.07,0,0,0,.49,2.79,3.35,3.35,0,0,0,3.38,2.18A3.4,3.4,0,0,0,78.72,304.21Z"/><path class="cls-1" d="M93.72,293.47a5.37,5.37,0,0,1,2.14,1.82,6.47,6.47,0,0,1,.94,2.5A16.31,16.31,0,0,1,97,300.9H86.74a6.17,6.17,0,0,0,1,3.46,3.38,3.38,0,0,0,2.92,1.3,3.74,3.74,0,0,0,2.94-1.23,4.2,4.2,0,0,0,.87-1.66h2.33a4.75,4.75,0,0,1-.61,1.73A6.34,6.34,0,0,1,95,306.07a5.54,5.54,0,0,1-2.66,1.42,8,8,0,0,1-1.92.21A5.88,5.88,0,0,1,86,305.78a7.47,7.47,0,0,1-1.82-5.37A8.14,8.14,0,0,1,86,294.89a6,6,0,0,1,4.8-2.13A6.36,6.36,0,0,1,93.72,293.47Zm.85,5.54a6.18,6.18,0,0,0-.66-2.46,3.42,3.42,0,0,0-3.23-1.72A3.59,3.59,0,0,0,88,296a4.54,4.54,0,0,0-1.17,3Z"/><path class="cls-1" d="M100,287.83h2.29v11.25l6.08-6h3l-5.42,5.25,5.73,8.87h-3L104.19,300l-1.94,1.89v5.3H100Z"/><path class="cls-1" d="M114,289.14h2.4v3.94h2.26V295h-2.26v9.21a1,1,0,0,0,.5,1,2.09,2.09,0,0,0,.93.15h.36c.14,0,.29,0,.47-.05v1.89a4.92,4.92,0,0,1-.85.17,7.33,7.33,0,0,1-1,.05,2.58,2.58,0,0,1-2.26-.85,3.79,3.79,0,0,1-.59-2.2V295h-1.91v-1.94H114Z"/><path class="cls-1" d="M121,287.83h2.41v2.69H121Zm0,5.32h2.41V307.2H121Z"/><path class="cls-1" d="M128.18,293.08l3.78,11.5,3.92-11.5h2.6l-5.31,14.12h-2.53l-5.21-14.12Z"/><path class="cls-1" d="M42.36,330.86H49v2.44H42.36Z"/><path class="cls-1" d="M67,331.05a1.27,1.27,0,0,0,1.09-.68,2,2,0,0,0,.16-.91,2,2,0,0,0-.86-1.77,4.59,4.59,0,0,0-2.47-.55,3.14,3.14,0,0,0-2.63,1,3.33,3.33,0,0,0-.57,1.65H59.55a4.09,4.09,0,0,1,1.69-3.64,7,7,0,0,1,3.77-1,7.64,7.64,0,0,1,4,.95,3.22,3.22,0,0,1,1.54,3v8.13a1.07,1.07,0,0,0,.15.6c.1.15.31.22.64.22l.36,0,.42-.06v1.76a6,6,0,0,1-.85.19,5.45,5.45,0,0,1-.79,0,2,2,0,0,1-1.78-.87,3.37,3.37,0,0,1-.41-1.3,6,6,0,0,1-2.08,1.65,6.48,6.48,0,0,1-3,.69,4.43,4.43,0,0,1-3.21-1.19,4,4,0,0,1-1.25-3,3.83,3.83,0,0,1,1.23-3,5.87,5.87,0,0,1,3.21-1.33Zm-5,6.41a2.78,2.78,0,0,0,1.78.6,5.53,5.53,0,0,0,2.43-.58,3.25,3.25,0,0,0,2-3.15v-1.91a4,4,0,0,1-1.11.47,9.71,9.71,0,0,1-1.35.26l-1.43.18a5.53,5.53,0,0,0-1.94.55,2.09,2.09,0,0,0-1.1,2A1.93,1.93,0,0,0,62,337.46Z"/><path class="cls-1" d="M74.55,320.23h2.38V339.6H74.55Z"/><path class="cls-1" d="M80.55,320.23h2.37V339.6H80.55Z"/><path class="cls-1" d="M87,321.54h2.4v3.94h2.25v1.94H89.36v9.21a1,1,0,0,0,.5,1,2,2,0,0,0,.92.15h.37a4.57,4.57,0,0,0,.46-.05v1.89a4.57,4.57,0,0,1-.85.17,7.08,7.08,0,0,1-1,.05,2.58,2.58,0,0,1-2.26-.85,3.79,3.79,0,0,1-.59-2.2v-9.35H85.05v-1.94H87Z"/><path class="cls-1" d="M94,320.23H96.4v2.69H94Zm0,5.32H96.4V339.6H94Z"/><path class="cls-1" d="M107.74,325.92a6.15,6.15,0,0,1,1.43,1.38v-7.13h2.28V339.6h-2.13v-2a5.11,5.11,0,0,1-2,1.89,5.52,5.52,0,0,1-2.59.58,5.25,5.25,0,0,1-4.07-2A7.84,7.84,0,0,1,99,332.84a9.12,9.12,0,0,1,1.57-5.35,5.13,5.13,0,0,1,4.49-2.26A5,5,0,0,1,107.74,325.92Zm-5.3,10.58a3.36,3.36,0,0,0,3.07,1.53,3.21,3.21,0,0,0,2.7-1.42,6.73,6.73,0,0,0,1.06-4.06,6.09,6.09,0,0,0-1.09-4,3.42,3.42,0,0,0-2.69-1.28,3.54,3.54,0,0,0-2.89,1.37,6.3,6.3,0,0,0-1.11,4A7.08,7.08,0,0,0,102.44,336.5Z"/><path class="cls-1" d="M35.92,359.29a7.11,7.11,0,0,1,1.88,5.35,9.19,9.19,0,0,1-1.65,5.63A5.94,5.94,0,0,1,31,372.5a5.79,5.79,0,0,1-4.6-2,7.82,7.82,0,0,1-1.7-5.29,8.41,8.41,0,0,1,1.8-5.66,6,6,0,0,1,4.81-2.11A6.31,6.31,0,0,1,35.92,359.29Zm-1.47,9.38a8.93,8.93,0,0,0,.87-4,7.08,7.08,0,0,0-.63-3.21,3.51,3.51,0,0,0-3.41-1.95,3.35,3.35,0,0,0-3.13,1.66,7.78,7.78,0,0,0-1,4,6.76,6.76,0,0,0,1,3.76,3.42,3.42,0,0,0,3.1,1.5A3.23,3.23,0,0,0,34.45,368.67Z"/><path class="cls-1" d="M40.51,358h2.32v1.87a5.89,5.89,0,0,1,1.56-1.49,5,5,0,0,1,2.83-.79,5.32,5.32,0,0,1,4.09,1.84A7.54,7.54,0,0,1,53,364.63c0,3.08-.8,5.27-2.42,6.59A5.44,5.44,0,0,1,47,372.47a4.93,4.93,0,0,1-2.69-.69,6.43,6.43,0,0,1-1.41-1.36v7.21H40.51ZM49.44,369a6.56,6.56,0,0,0,1.11-4.16,7.89,7.89,0,0,0-.49-2.9,3.6,3.6,0,0,0-6.78.14,9.82,9.82,0,0,0-.49,3.34,7.25,7.25,0,0,0,.49,2.79,3.61,3.61,0,0,0,6.16.79Z"/><path class="cls-1" d="M55.53,358h2.32v1.87a5.74,5.74,0,0,1,1.56-1.49,5,5,0,0,1,2.83-.79,5.31,5.31,0,0,1,4.08,1.84A7.49,7.49,0,0,1,68,364.63c0,3.08-.81,5.27-2.42,6.59A5.48,5.48,0,0,1,62,372.47a4.9,4.9,0,0,1-2.68-.69,6.23,6.23,0,0,1-1.42-1.36v7.21H55.53ZM64.46,369a6.62,6.62,0,0,0,1.1-4.16,7.69,7.69,0,0,0-.49-2.9,3.59,3.59,0,0,0-6.77.14,9.58,9.58,0,0,0-.49,3.34,7.07,7.07,0,0,0,.49,2.79,3.61,3.61,0,0,0,6.16.79Z"/><path class="cls-1" d="M78.5,358.31a6.46,6.46,0,0,1,1.43,1.39v-7.13h2.28V372H80.08v-2a5.15,5.15,0,0,1-2,1.88,5.55,5.55,0,0,1-2.59.58,5.25,5.25,0,0,1-4.07-2,7.79,7.79,0,0,1-1.72-5.28,9.12,9.12,0,0,1,1.57-5.35,5.13,5.13,0,0,1,4.48-2.26A5.07,5.07,0,0,1,78.5,358.31ZM73.2,368.9a3.36,3.36,0,0,0,3.07,1.53A3.22,3.22,0,0,0,79,369,6.73,6.73,0,0,0,80,365a6.09,6.09,0,0,0-1.08-4,3.42,3.42,0,0,0-2.69-1.28,3.57,3.57,0,0,0-2.9,1.37,6.35,6.35,0,0,0-1.1,4A7,7,0,0,0,73.2,368.9Z"/><path class="cls-1" d="M93.33,363.46a1.3,1.3,0,0,0,1.09-.69,2,2,0,0,0,.16-.91,2,2,0,0,0-.86-1.77,4.59,4.59,0,0,0-2.47-.55,3.12,3.12,0,0,0-2.63,1,3.33,3.33,0,0,0-.57,1.65H85.84a4.09,4.09,0,0,1,1.69-3.64,6.93,6.93,0,0,1,3.77-1,7.64,7.64,0,0,1,4,.95,3.22,3.22,0,0,1,1.54,2.95v8.13a1.07,1.07,0,0,0,.15.6c.1.15.31.22.64.22l.35,0,.43-.06v1.76a6.34,6.34,0,0,1-.85.19,5.54,5.54,0,0,1-.79,0,2,2,0,0,1-1.78-.87,3.37,3.37,0,0,1-.41-1.3,6.13,6.13,0,0,1-2.08,1.65,6.51,6.51,0,0,1-3,.69,4.43,4.43,0,0,1-3.21-1.19,3.92,3.92,0,0,1-1.25-3,3.83,3.83,0,0,1,1.23-3,5.84,5.84,0,0,1,3.21-1.33Zm-5,6.41a2.81,2.81,0,0,0,1.78.59,5.56,5.56,0,0,0,2.43-.58,3.27,3.27,0,0,0,2-3.15v-1.91a4.06,4.06,0,0,1-1.12.47,9.31,9.31,0,0,1-1.34.26l-1.43.18a5.78,5.78,0,0,0-1.94.54,2.12,2.12,0,0,0-1.1,2A2,2,0,0,0,88.33,369.87Z"/><path class="cls-1" d="M101.25,353.94h2.4v3.94h2.25v1.94h-2.25V369a1,1,0,0,0,.5,1,2,2,0,0,0,.92.15h.37a4.57,4.57,0,0,0,.46-.05V372a4.57,4.57,0,0,1-.85.17,7.08,7.08,0,0,1-1,.05,2.58,2.58,0,0,1-2.26-.85,3.79,3.79,0,0,1-.59-2.2v-9.35H99.34v-1.94h1.91Z"/><path class="cls-1" d="M117,358.27a5.41,5.41,0,0,1,2.13,1.82,6.33,6.33,0,0,1,1,2.5,16.31,16.31,0,0,1,.21,3.11H110a6.11,6.11,0,0,0,1,3.45,3.36,3.36,0,0,0,2.92,1.31,3.74,3.74,0,0,0,2.94-1.23,4.35,4.35,0,0,0,.88-1.66h2.33a4.94,4.94,0,0,1-.61,1.73,6.36,6.36,0,0,1-1.17,1.57,5.51,5.51,0,0,1-2.65,1.42,8.09,8.09,0,0,1-1.93.21,5.91,5.91,0,0,1-4.44-1.92,7.51,7.51,0,0,1-1.82-5.37,8.09,8.09,0,0,1,1.84-5.52,6,6,0,0,1,4.79-2.13A6.4,6.4,0,0,1,117,358.27Zm.85,5.54a6.17,6.17,0,0,0-.67-2.46,3.41,3.41,0,0,0-3.23-1.72,3.59,3.59,0,0,0-2.72,1.18,4.48,4.48,0,0,0-1.16,3Z"/><path class="cls-1" d="M123.36,357.88h2.25v2.44a5.42,5.42,0,0,1,1.36-1.73,3.49,3.49,0,0,1,2.49-1l.23,0,.54.05v2.5l-.39-.05h-.39a3.4,3.4,0,0,0-2.76,1.15,4,4,0,0,0-1,2.66V372h-2.37Z"/><path class="cls-1" d="M132.76,353.94h2.4v3.94h2.25v1.94h-2.25V369a1,1,0,0,0,.5,1,2,2,0,0,0,.92.15H137a4.57,4.57,0,0,0,.46-.05V372a4.57,4.57,0,0,1-.85.17,7.08,7.08,0,0,1-.95.05,2.58,2.58,0,0,1-2.26-.85,3.79,3.79,0,0,1-.59-2.2v-9.35h-1.91v-1.94h1.91Z"/></svg>