<svg id="Layer_1" data-name="Layer 1" xmlns="http://www.w3.org/2000/svg" viewBox="0 0 160 600"><defs><style>.cls-1{fill:#fff;}</style></defs><title>text</title><path class="cls-1" d="M14.48,212.66V192h8.18a6.22,6.22,0,0,1,4.58,1.51A4.87,4.87,0,0,1,28.73,197q0,3.51-3.67,4.66a5.51,5.51,0,0,1,3.24,2,5.35,5.35,0,0,1,1.06,3.26A5.57,5.57,0,0,1,27.72,211q-1.63,1.64-5.06,1.64Zm2.5-11.8h4.5c1.86,0,3.11-.36,3.73-1.07a3.66,3.66,0,0,0,.94-2.51,2.92,2.92,0,0,0-1-2.3,4.51,4.51,0,0,0-3-.88H17Zm0,9.53h5.54a4.57,4.57,0,0,0,3.13-1,3.27,3.27,0,0,0,1.11-2.56,4.35,4.35,0,0,0-.5-2,3.48,3.48,0,0,0-1.41-1.46,5.65,5.65,0,0,0-2.71-.52H17Z"/><path class="cls-1" d="M35.39,212.66H33V197.37H35.1V201a7.7,7.7,0,0,1,2.22-3.28,4,4,0,0,1,2.27-.75,9.25,9.25,0,0,1,.94.06v2.27h-.48a4.19,4.19,0,0,0-3.27,1.47,6,6,0,0,0-1.39,3.86Z"/><path class="cls-1" d="M55.26,212.66H53.11v-2.92q-1.63,3.34-4.86,3.35a4.64,4.64,0,0,1-3.69-1.55,6.51,6.51,0,0,1-1.33-4.39v-9.78H45.6v9.77a4.11,4.11,0,0,0,.95,3.12,3,3,0,0,0,2.08.86,3.56,3.56,0,0,0,2.08-.65,5,5,0,0,0,1.55-1.86,5.53,5.53,0,0,0,.62-2.62v-8.62h2.38Z"/><path class="cls-1" d="M72.64,212.66H70.17l-4.46-8.53-3.32,3.81v4.72H60V192h2.38v13.25l7.1-7.88H72l-4.77,5.37Z"/><path class="cls-1" d="M97.42,212.66H94.78l-2.08-6H85l-1.85,6H81L87.73,192h2.93Zm-5.27-8L89,194.76l-3.2,9.93Z"/><path class="cls-1" d="M102.7,212.66h-2.59V192h2.59Z"/><path class="cls-1" d="M120.88,213.09a5.79,5.79,0,0,1-4.91-2.34A9.27,9.27,0,0,1,114.2,205a8.32,8.32,0,0,1,2-5.84,6.39,6.39,0,0,1,4.93-2.18,6,6,0,0,1,5,2.3,9,9,0,0,1,1.82,5.73,8.55,8.55,0,0,1-2,5.84A6.41,6.41,0,0,1,120.88,213.09Zm.18-2a3.77,3.77,0,0,0,3-1.5,7.27,7.27,0,0,0,1.23-4.66c0-2.12-.43-3.66-1.29-4.61a4,4,0,0,0-3-1.43,3.8,3.8,0,0,0-3,1.44,7.07,7.07,0,0,0-1.22,4.58c0,2.21.41,3.79,1.22,4.75A3.85,3.85,0,0,0,121.06,211.12Z"/><path class="cls-1" d="M144,195v1.9a4.26,4.26,0,0,0-2.18.37,2,2,0,0,0-.74,1.37,5.52,5.52,0,0,1,1.47,3.69,4.74,4.74,0,0,1-1.6,3.59,6,6,0,0,1-4.29,1.5,5.16,5.16,0,0,1-1-.1,7.51,7.51,0,0,0-1.05-.16,1.8,1.8,0,0,0-1,.4,1.21,1.21,0,0,0-.58,1,1.14,1.14,0,0,0,.84,1.18,18.3,18.3,0,0,0,3.92.34,22.76,22.76,0,0,1,3.86.36,4,4,0,0,1,2.12,1.24,3.43,3.43,0,0,1,.86,2.36q0,4.37-7.69,4.37a10,10,0,0,1-5.32-1.1,3.34,3.34,0,0,1-1.67-2.93,3.06,3.06,0,0,1,2.33-3.06,2.9,2.9,0,0,1-1.5-2.47,3,3,0,0,1,2.12-2.71,5,5,0,0,1-2-4,4.69,4.69,0,0,1,1.7-3.72,6.18,6.18,0,0,1,4.13-1.45,7.47,7.47,0,0,1,3.14.65,2.9,2.9,0,0,1,1.05-2.07,4.33,4.33,0,0,1,2.5-.58ZM133.88,212a2.31,2.31,0,0,0-1.66,2.11,2,2,0,0,0,1.37,1.8,8.17,8.17,0,0,0,3.49.65,11.42,11.42,0,0,0,3.6-.55c1.09-.37,1.63-1,1.63-1.87a1.53,1.53,0,0,0-.48-1.17,2.43,2.43,0,0,0-1.33-.57,26.33,26.33,0,0,0-2.93-.19Q135.08,212.19,133.88,212Zm2.85-6.46a3.36,3.36,0,0,0,2.46-.93,3.22,3.22,0,0,0,1-2.42,3.28,3.28,0,0,0-1-2.47,3.32,3.32,0,0,0-2.4-1,3.54,3.54,0,0,0-2.39.9,3.59,3.59,0,0,0-.11,5A3.4,3.4,0,0,0,136.73,205.58Z"/><path class="cls-1" d="M19.19,249.86H16.84c-.09-.48-.18-1.4-.27-2.75a5.5,5.5,0,0,1-5.36,3.18,5.39,5.39,0,0,1-4-1.37,4.43,4.43,0,0,1-1.37-3.27,4.6,4.6,0,0,1,2-3.82q2-1.49,6.69-1.49c.43,0,1.1,0,2,.06a8.65,8.65,0,0,0-.28-2.62,2.33,2.33,0,0,0-1.19-1.3,5.1,5.1,0,0,0-2.39-.48q-3.61,0-4.21,2.75l-2.19-.38q.8-4.22,6.75-4.22c2.11,0,3.61.47,4.49,1.4s1.32,2.55,1.32,4.85v6.5A13,13,0,0,0,19.19,249.86Zm-2.62-7.64c-1-.06-1.7-.09-2.21-.09a8.69,8.69,0,0,0-4.37.92,3,3,0,0,0-1.56,2.7,2.55,2.55,0,0,0,.84,1.92,3.45,3.45,0,0,0,2.43.79,4.52,4.52,0,0,0,3.53-1.57,5.32,5.32,0,0,0,1.39-3.67C16.62,242.94,16.6,242.6,16.57,242.22Z"/><path class="cls-1" d="M35.66,249.86H33.51v-2.92q-1.63,3.34-4.87,3.35A4.62,4.62,0,0,1,25,248.74a6.51,6.51,0,0,1-1.33-4.39v-9.78H26v9.77a4.11,4.11,0,0,0,.95,3.12,3,3,0,0,0,2.08.86,3.56,3.56,0,0,0,2.08-.65,5,5,0,0,0,1.55-1.86,5.53,5.53,0,0,0,.62-2.62v-8.62h2.38Z"/><path class="cls-1" d="M47.35,248.24v1.88a17.27,17.27,0,0,1-2.18.17q-4.44,0-4.44-4.64v-9.21H38v-1.87h2.71l.11-3.84,2.21-.21v4h3.42v1.87H43.05v9.61c0,1.57.81,2.36,2.45,2.36A12,12,0,0,0,47.35,248.24Z"/><path class="cls-1" d="M55,250.29A5.79,5.79,0,0,1,50.05,248a9.27,9.27,0,0,1-1.77-5.78,8.32,8.32,0,0,1,2-5.84,6.39,6.39,0,0,1,4.93-2.18,6,6,0,0,1,5,2.3A9,9,0,0,1,62,242.18,8.55,8.55,0,0,1,60,248,6.41,6.41,0,0,1,55,250.29Zm.18-2a3.77,3.77,0,0,0,3-1.5,7.27,7.27,0,0,0,1.23-4.66c0-2.12-.43-3.66-1.29-4.61a4,4,0,0,0-3-1.43,3.8,3.8,0,0,0-3,1.44,7.07,7.07,0,0,0-1.22,4.58c0,2.21.41,3.8,1.22,4.75A3.85,3.85,0,0,0,55.14,248.32Z"/><path class="cls-1" d="M86.06,249.86H83.75v-9.5a8.65,8.65,0,0,0-.21-2.21,2.6,2.6,0,0,0-1-1.34,2.79,2.79,0,0,0-1.77-.62,3.73,3.73,0,0,0-2.62,1.25,5.12,5.12,0,0,0-1.27,3.81v8.61h-2.3V239.8a3.63,3.63,0,0,0-1-2.85,3.06,3.06,0,0,0-2-.83,3.35,3.35,0,0,0-2.63,1.3,4.87,4.87,0,0,0-1.12,3.3v9.14H65.58V234.57h2v2.94q1.71-3.36,4.71-3.36a4,4,0,0,1,2.8,1.08,4.93,4.93,0,0,1,1.48,2.58q1.57-3.66,4.83-3.66a4.4,4.4,0,0,1,2.73.89,4.15,4.15,0,0,1,1.53,2.06,11.51,11.51,0,0,1,.35,3.26Z"/><path class="cls-1" d="M102.78,249.86h-2.35c-.09-.48-.18-1.4-.27-2.75a5.51,5.51,0,0,1-5.36,3.18,5.37,5.37,0,0,1-4-1.37,4.44,4.44,0,0,1-1.38-3.27,4.61,4.61,0,0,1,2-3.82q2-1.49,6.69-1.49c.42,0,1.1,0,2,.06a9,9,0,0,0-.28-2.62,2.41,2.41,0,0,0-1.19-1.3A5.13,5.13,0,0,0,96.3,236c-2.41,0-3.82.92-4.21,2.75l-2.2-.38q.81-4.22,6.76-4.22c2.1,0,3.6.47,4.48,1.4s1.33,2.55,1.33,4.85v6.5A12.44,12.44,0,0,0,102.78,249.86Zm-2.62-7.64c-1-.06-1.71-.09-2.21-.09a8.71,8.71,0,0,0-4.38.92,3,3,0,0,0-1.56,2.7,2.55,2.55,0,0,0,.84,1.92,3.45,3.45,0,0,0,2.43.79,4.54,4.54,0,0,0,3.54-1.57,5.35,5.35,0,0,0,1.38-3.67C100.2,242.94,100.19,242.6,100.16,242.22Z"/><path class="cls-1" d="M114.14,248.24v1.88a17,17,0,0,1-2.18.17q-4.42,0-4.43-4.64v-9.21h-2.71v-1.87h2.71l.1-3.84,2.21-.21v4h3.43v1.87h-3.43v9.61c0,1.57.82,2.36,2.46,2.36A11.75,11.75,0,0,0,114.14,248.24Z"/><path class="cls-1" d="M119.2,229.2v2.65h-2.56V229.2Zm-.08,5.37v15.29h-2.37V234.57Z"/><path class="cls-1" d="M121.8,245.9l2.27-.47c.51,1.93,2.1,2.89,4.79,2.89a4.48,4.48,0,0,0,2.51-.67,2.09,2.09,0,0,0,1-1.87c0-1.2-.88-2-2.62-2.28l-3.22-.62a5.84,5.84,0,0,1-3-1.42,3.69,3.69,0,0,1-1.12-2.8,4.07,4.07,0,0,1,1.53-3.22,6.18,6.18,0,0,1,4.12-1.29q5,0,6.14,3.89l-2.17.47a3.74,3.74,0,0,0-3.86-2.39,4.34,4.34,0,0,0-2.39.6,1.87,1.87,0,0,0-.93,1.67c0,1.13.79,1.84,2.38,2.13l3,.53q4.68.85,4.68,4.54a4,4,0,0,1-1.74,3.4,7.64,7.64,0,0,1-4.64,1.3C124.9,250.29,122.66,248.82,121.8,245.9Z"/><path class="cls-1" d="M150.87,249.86H148.4l-4.47-8.53-3.31,3.81v4.72h-2.38V229.2h2.38v13.25l7.1-7.88h2.54l-4.78,5.37Z"/><path class="cls-1" d="M20,271.77v1.87H16.34v13.42H14V273.64h-2.6v-1.87H14Q14,268.1,15.38,267a5.16,5.16,0,0,1,3.3-1.06,13,13,0,0,1,2.18.21v1.89a6,6,0,0,0-1.46-.2,3.32,3.32,0,0,0-2.31.69,3.46,3.46,0,0,0-.75,2.58v.62Z"/><path class="cls-1" d="M27.69,287.49a5.79,5.79,0,0,1-4.91-2.34A9.27,9.27,0,0,1,21,279.37a8.37,8.37,0,0,1,2-5.84,6.39,6.39,0,0,1,4.93-2.18,6,6,0,0,1,5,2.3,8.9,8.9,0,0,1,1.82,5.73,8.59,8.59,0,0,1-2,5.84A6.45,6.45,0,0,1,27.69,287.49Zm.18-2a3.77,3.77,0,0,0,3-1.5,7.27,7.27,0,0,0,1.23-4.66c0-2.12-.43-3.66-1.29-4.61a3.9,3.9,0,0,0-3-1.43,3.8,3.8,0,0,0-3,1.44,7.07,7.07,0,0,0-1.22,4.58c0,2.21.41,3.79,1.22,4.75A3.85,3.85,0,0,0,27.87,285.52Z"/><path class="cls-1" d="M40.69,287.06H38.32V271.77H40.4v3.58a7.7,7.7,0,0,1,2.22-3.28,4,4,0,0,1,2.28-.75c.24,0,.56,0,.94.06v2.27h-.49a4.19,4.19,0,0,0-3.27,1.47A6,6,0,0,0,40.69,279Z"/><path class="cls-1" d="M49.68,287.06H48.53V266.4h2.38v7.92a5,5,0,0,1,4.51-3,5.55,5.55,0,0,1,4.41,2.08,9,9,0,0,1,1.78,6,9.18,9.18,0,0,1-1.75,5.72,5.44,5.44,0,0,1-4.55,2.31,5.24,5.24,0,0,1-4.78-3Zm1.23-6a4.63,4.63,0,0,0,1.45,3.42,4.2,4.2,0,0,0,2.7,1.06A3.44,3.44,0,0,0,58,284a7.39,7.39,0,0,0,1.11-4.32A8.64,8.64,0,0,0,58,275a3.37,3.37,0,0,0-3-1.69,3.77,3.77,0,0,0-2.71,1.2,5.11,5.11,0,0,0-1.43,3.11Z"/><path class="cls-1" d="M75.28,282.51l2.21.45a6.16,6.16,0,0,1-2.36,3.24A6.79,6.79,0,0,1,71,287.49a6.43,6.43,0,0,1-5.07-2.21A8.39,8.39,0,0,1,64,279.5a8.53,8.53,0,0,1,2-5.9,6.5,6.5,0,0,1,5.06-2.25,6.13,6.13,0,0,1,4.82,2.07c1.21,1.39,1.84,3.46,1.87,6.21H66.64q0,3.47,1.45,4.68a4.71,4.71,0,0,0,3.07,1.21A4.21,4.21,0,0,0,75.28,282.51Zm-.14-4.65a6.72,6.72,0,0,0-.42-2.29,4,4,0,0,0-1.33-1.7,3.66,3.66,0,0,0-2.26-.7,4,4,0,0,0-3,1.27,5.28,5.28,0,0,0-1.39,3.42Z"/><path class="cls-1" d="M93.26,266.4v20.66H91.11v-2.62a5.17,5.17,0,0,1-4.83,3.05,5.33,5.33,0,0,1-4.41-2.25,9,9,0,0,1-1.73-5.69,9.66,9.66,0,0,1,1.71-5.86,5.35,5.35,0,0,1,4.54-2.34,5.28,5.28,0,0,1,4.5,2.51V266.4Zm-2.37,11.28a4.34,4.34,0,0,0-1.23-3.23,4,4,0,0,0-2.86-1.21,3.46,3.46,0,0,0-2.91,1.58,7.35,7.35,0,0,0-1.15,4.42,8.54,8.54,0,0,0,1.05,4.67,3.3,3.3,0,0,0,2.89,1.61,3.88,3.88,0,0,0,2.93-1.39,4.7,4.7,0,0,0,1.28-3.27Z"/><path class="cls-1" d="M100.39,287.06H98V271.77h2.08v3.58a7.7,7.7,0,0,1,2.22-3.28,4,4,0,0,1,2.28-.75c.24,0,.55,0,.94.06v2.27h-.49a4.19,4.19,0,0,0-3.27,1.47,6,6,0,0,0-1.39,3.86Z"/><path class="cls-1" d="M110.68,266.4v2.65h-2.55V266.4Zm-.07,5.37v15.29h-2.38V271.77Z"/><path class="cls-1" d="M127.4,287.06h-2.23v-9.82a4,4,0,0,0-.92-3,3.17,3.17,0,0,0-2.24-.87,3.85,3.85,0,0,0-3.05,1.46,5.67,5.67,0,0,0-1.24,3.83v8.38h-2.37V271.77h2.21v2.82q1.86-3.24,4.83-3.24a4.77,4.77,0,0,1,2.91.89,4.71,4.71,0,0,1,1.65,2,12,12,0,0,1,.45,4Z"/><path class="cls-1" d="M144.64,269.38v1.89a4.31,4.31,0,0,0-2.19.38,2.06,2.06,0,0,0-.74,1.37,5.52,5.52,0,0,1,1.47,3.69,4.77,4.77,0,0,1-1.59,3.59,6,6,0,0,1-4.3,1.49,5.23,5.23,0,0,1-1-.09,7.25,7.25,0,0,0-1-.16,1.82,1.82,0,0,0-1,.4,1.22,1.22,0,0,0-.57,1,1.13,1.13,0,0,0,.83,1.18,18.3,18.3,0,0,0,3.92.34,22.79,22.79,0,0,1,3.87.36,4,4,0,0,1,2.11,1.24,3.43,3.43,0,0,1,.86,2.36q0,4.37-7.69,4.37a10,10,0,0,1-5.32-1.1,3.37,3.37,0,0,1-1.67-2.93,3.07,3.07,0,0,1,2.33-3.06,2.9,2.9,0,0,1-1.5-2.47,3,3,0,0,1,2.12-2.71,5,5,0,0,1-2-4,4.68,4.68,0,0,1,1.69-3.72,6.13,6.13,0,0,1,4.14-1.45,7.43,7.43,0,0,1,3.13.65,2.9,2.9,0,0,1,1-2.07,4.37,4.37,0,0,1,2.51-.58Zm-10.12,17.06a2.31,2.31,0,0,0-1.66,2.11,2,2,0,0,0,1.37,1.8,8.2,8.2,0,0,0,3.49.65,11.42,11.42,0,0,0,3.6-.55c1.09-.37,1.64-1,1.64-1.87a1.54,1.54,0,0,0-.49-1.17,2.36,2.36,0,0,0-1.32-.57,26.53,26.53,0,0,0-2.93-.19C136.55,286.61,135.32,286.54,134.52,286.44Zm2.85-6.46a3.4,3.4,0,0,0,2.47-.93,3.57,3.57,0,0,0,0-4.89,3.32,3.32,0,0,0-2.4-1,3.56,3.56,0,0,0-2.39.9,3.18,3.18,0,0,0-1,2.56,3.22,3.22,0,0,0,.94,2.4A3.4,3.4,0,0,0,137.37,280Z"/><path class="cls-1" d="M63.47,322.64v1.88a17,17,0,0,1-2.18.17q-4.42,0-4.43-4.64v-9.21H54.15V309h2.71l.1-3.84,2.21-.21V309H62.6v1.87H59.17v9.61c0,1.57.82,2.36,2.46,2.36A11.75,11.75,0,0,0,63.47,322.64Z"/><path class="cls-1" d="M68.53,303.6v2.65H66V303.6ZM68.45,309v15.29H66.08V309Z"/><path class="cls-1" d="M75.57,324.26H73.19V303.6h2.38Z"/><path class="cls-1" d="M100,324.26H97.68c-.09-.48-.18-1.4-.27-2.75a5.51,5.51,0,0,1-5.36,3.18,5.39,5.39,0,0,1-4-1.37,4.44,4.44,0,0,1-1.38-3.27,4.58,4.58,0,0,1,2-3.81q2-1.5,6.69-1.5c.43,0,1.1,0,2,.06a8.65,8.65,0,0,0-.28-2.62,2.37,2.37,0,0,0-1.19-1.3,5.1,5.1,0,0,0-2.39-.48q-3.61,0-4.21,2.75l-2.19-.38q.8-4.22,6.75-4.22c2.11,0,3.6.47,4.49,1.4s1.32,2.55,1.32,4.85v6.5A13,13,0,0,0,100,324.26Zm-2.62-7.64c-1-.06-1.71-.09-2.21-.09a8.64,8.64,0,0,0-4.37.92,3,3,0,0,0-1.56,2.7,2.55,2.55,0,0,0,.84,1.92,3.45,3.45,0,0,0,2.43.78,4.51,4.51,0,0,0,3.53-1.56,5.36,5.36,0,0,0,1.39-3.67C97.46,317.34,97.44,317,97.41,316.62Zm-1-12.43a2.59,2.59,0,0,1-2.6,2.6A2.53,2.53,0,0,1,92,306a2.47,2.47,0,0,1-.79-1.84,2.53,2.53,0,0,1,.78-1.85,2.62,2.62,0,0,1,1.93-.79,2.43,2.43,0,0,1,1.78.78A2.57,2.57,0,0,1,96.41,304.19Zm-1.26,0a1.34,1.34,0,0,0-.39-1,1.18,1.18,0,0,0-.89-.41,1.36,1.36,0,0,0-1.05.41,1.29,1.29,0,0,0-.41.94,1.33,1.33,0,0,0,.41,1,1.37,1.37,0,0,0,1,.41,1.27,1.27,0,0,0,1-.4A1.32,1.32,0,0,0,95.15,304.18Z"/><path class="cls-1" d="M15.35,357.5l2.27-.47c.5,1.93,2.1,2.89,4.78,2.89a4.46,4.46,0,0,0,2.51-.67,2.09,2.09,0,0,0,1-1.87c0-1.2-.87-2-2.62-2.28l-3.22-.62a5.81,5.81,0,0,1-3-1.42,3.65,3.65,0,0,1-1.12-2.8A4.07,4.07,0,0,1,17.5,347a6.15,6.15,0,0,1,4.11-1.29q5,0,6.15,3.89l-2.18.47a3.73,3.73,0,0,0-3.86-2.39,4.37,4.37,0,0,0-2.39.6A1.87,1.87,0,0,0,18.4,350c0,1.13.8,1.84,2.38,2.13l3,.53q4.68.86,4.68,4.54a4,4,0,0,1-1.74,3.4,7.54,7.54,0,0,1-4.63,1.3C18.44,361.89,16.2,360.42,15.35,357.5Z"/><path class="cls-1" d="M38.72,359.84v1.88a17.27,17.27,0,0,1-2.18.17q-4.44,0-4.44-4.64V348H29.39v-1.87H32.1l.11-3.84,2.21-.21v4.05h3.42V348H34.42v9.61A2.13,2.13,0,0,0,36.87,360,11.87,11.87,0,0,0,38.72,359.84Z"/><path class="cls-1" d="M51.81,346.17l-6.12,17.08q-1.34,3.69-4.26,3.69a7.62,7.62,0,0,1-2-.31v-1.87A7.4,7.4,0,0,0,41,365a2.79,2.79,0,0,0,1.9-.65,7.28,7.28,0,0,0,1.53-3.17l-5.29-15h2.41l4.11,11.49,4.18-11.49Z"/><path class="cls-1" d="M56.56,361.46H54.19V346.17h2.09v3.58a7.61,7.61,0,0,1,2.21-3.28,4,4,0,0,1,2.28-.75c.24,0,.56,0,.94.06v2.27h-.48A4.16,4.16,0,0,0,58,349.52a6,6,0,0,0-1.4,3.86Z"/><path class="cls-1" d="M76.88,361.46H74.41l-4.47-8.53-3.31,3.81v4.72H64.25V340.8h2.38v13.25l7.1-7.88h2.54l-4.77,5.37Z"/><path class="cls-1" d="M89.2,356.91l2.21.45a6.22,6.22,0,0,1-2.36,3.24,6.8,6.8,0,0,1-4.14,1.29,6.45,6.45,0,0,1-5.07-2.21,8.43,8.43,0,0,1-1.93-5.78,8.53,8.53,0,0,1,2-5.9A6.5,6.5,0,0,1,85,345.75a6.13,6.13,0,0,1,4.82,2.07c1.21,1.39,1.84,3.46,1.87,6.21H80.56q0,3.47,1.45,4.68a4.71,4.71,0,0,0,3.07,1.21A4.2,4.2,0,0,0,89.2,356.91Zm-.14-4.65a6.72,6.72,0,0,0-.42-2.29,4,4,0,0,0-1.33-1.7,3.66,3.66,0,0,0-2.26-.7,4,4,0,0,0-3,1.27,5.23,5.23,0,0,0-1.39,3.42Z"/><path class="cls-1" d="M114.93,340.8v20.66h-2.15v-2.62a5.17,5.17,0,0,1-4.83,3.05,5.33,5.33,0,0,1-4.41-2.25,9,9,0,0,1-1.73-5.69,9.66,9.66,0,0,1,1.71-5.86,5.35,5.35,0,0,1,4.54-2.34,5.26,5.26,0,0,1,4.49,2.51V340.8Zm-2.38,11.28a4.34,4.34,0,0,0-1.22-3.23,4,4,0,0,0-2.86-1.21,3.49,3.49,0,0,0-2.92,1.58,7.43,7.43,0,0,0-1.14,4.42,8.52,8.52,0,0,0,1,4.67,3.29,3.29,0,0,0,2.89,1.61,3.84,3.84,0,0,0,2.93-1.39,4.69,4.69,0,0,0,1.27-3.27Z"/><path class="cls-1" d="M122.14,340.8v2.65h-2.56V340.8Zm-.08,5.37v15.29h-2.38V346.17Z"/><path class="cls-1" d="M138.85,361.46h-2.23v-9.82a4,4,0,0,0-.92-3,3.15,3.15,0,0,0-2.24-.87,3.85,3.85,0,0,0-3.05,1.46,5.72,5.72,0,0,0-1.24,3.83v8.38H126.8V346.17H129V349q1.86-3.24,4.83-3.24a4.77,4.77,0,0,1,2.91.89,4.71,4.71,0,0,1,1.65,2,12,12,0,0,1,.45,4Z"/><path class="cls-1" d="M16.47,378v2.65H13.91V378Zm-.08,5.38v15.28H14V383.38Z"/><path class="cls-1" d="M33.18,398.66H31v-9.82a4,4,0,0,0-.92-3,3.14,3.14,0,0,0-2.24-.86,3.84,3.84,0,0,0-3.05,1.45,5.72,5.72,0,0,0-1.24,3.83v8.38H21.13V383.38h2.21v2.81q1.86-3.24,4.83-3.24a4.77,4.77,0,0,1,2.91.89,4.71,4.71,0,0,1,1.65,2,12,12,0,0,1,.45,4Z"/><path class="cls-1" d="M50,398.66H47.75v-9.82a3.94,3.94,0,0,0-.92-3,3.14,3.14,0,0,0-2.24-.86,3.84,3.84,0,0,0-3.05,1.45,5.72,5.72,0,0,0-1.23,3.83v8.38H37.93V383.38h2.21v2.81Q42,382.95,45,383a4.77,4.77,0,0,1,2.91.89,4.71,4.71,0,0,1,1.65,2,12,12,0,0,1,.45,4Z"/><path class="cls-1" d="M60.21,399.09a5.8,5.8,0,0,1-4.91-2.34A9.27,9.27,0,0,1,53.54,391a8.37,8.37,0,0,1,2-5.84A6.41,6.41,0,0,1,60.45,383a6,6,0,0,1,5,2.3A8.9,8.9,0,0,1,67.27,391a8.58,8.58,0,0,1-2,5.84A6.43,6.43,0,0,1,60.21,399.09Zm.18-2a3.8,3.8,0,0,0,3-1.5A7.34,7.34,0,0,0,64.66,391c0-2.12-.43-3.66-1.28-4.61a4,4,0,0,0-3-1.43,3.77,3.77,0,0,0-3,1.44,7,7,0,0,0-1.23,4.58c0,2.21.41,3.8,1.23,4.75A3.82,3.82,0,0,0,60.39,397.12Z"/><path class="cls-1" d="M81.51,383.38l-5.29,15.28H73.77l-5.48-15.28h2.64l4.26,12.42,4.21-12.42Z"/><path class="cls-1" d="M95.92,398.66H93.57c-.09-.48-.18-1.4-.27-2.75a5.51,5.51,0,0,1-5.36,3.18,5.39,5.39,0,0,1-4-1.37,4.44,4.44,0,0,1-1.38-3.27,4.58,4.58,0,0,1,2-3.81q2-1.5,6.69-1.5c.43,0,1.1,0,2,.06a8.65,8.65,0,0,0-.28-2.62,2.37,2.37,0,0,0-1.19-1.3,5.1,5.1,0,0,0-2.39-.48q-3.61,0-4.21,2.75L83,387.17q.79-4.21,6.75-4.22c2.11,0,3.6.47,4.49,1.4s1.32,2.55,1.32,4.85v6.5A13,13,0,0,0,95.92,398.66ZM93.3,391c-1-.06-1.71-.09-2.21-.09a8.64,8.64,0,0,0-4.37.92,3,3,0,0,0-1.56,2.7,2.55,2.55,0,0,0,.84,1.92,3.45,3.45,0,0,0,2.43.78A4.51,4.51,0,0,0,92,395.69,5.36,5.36,0,0,0,93.35,392C93.35,391.74,93.33,391.4,93.3,391Z"/><path class="cls-1" d="M98.3,394.7l2.27-.47q.75,2.89,4.78,2.89a4.46,4.46,0,0,0,2.51-.67,2.09,2.09,0,0,0,1-1.87c0-1.2-.87-2-2.62-2.28l-3.22-.62a5.81,5.81,0,0,1-3-1.42,3.65,3.65,0,0,1-1.12-2.8,4.05,4.05,0,0,1,1.52-3.21,6.15,6.15,0,0,1,4.12-1.3q5,0,6.15,3.89l-2.18.47a3.73,3.73,0,0,0-3.86-2.39,4.34,4.34,0,0,0-2.39.6,1.87,1.87,0,0,0-.93,1.67c0,1.13.8,1.84,2.38,2.13l3,.53q4.68.86,4.68,4.54a4,4,0,0,1-1.74,3.4,7.54,7.54,0,0,1-4.63,1.3C101.39,399.09,99.15,397.62,98.3,394.7Z"/><path class="cls-1" d="M117.11,383.21v15.92c0,1.8-.43,3.05-1.28,3.76a4.75,4.75,0,0,1-3.12,1.06,9.91,9.91,0,0,1-2.23-.32v-1.88a8,8,0,0,0,1.74.23,2.5,2.5,0,0,0,1.93-.65,3.26,3.26,0,0,0,.58-2.21V383.21Zm.12-5.21v2.65h-2.69V378Z"/><path class="cls-1" d="M127.31,399.09a5.8,5.8,0,0,1-4.91-2.34,9.33,9.33,0,0,1-1.76-5.78,8.37,8.37,0,0,1,2-5.84,6.41,6.41,0,0,1,4.93-2.18,6,6,0,0,1,5,2.3,8.9,8.9,0,0,1,1.83,5.73,8.58,8.58,0,0,1-2,5.84A6.43,6.43,0,0,1,127.31,399.09Zm.18-2a3.79,3.79,0,0,0,3-1.5,7.34,7.34,0,0,0,1.22-4.66c0-2.12-.43-3.66-1.28-4.61a4,4,0,0,0-3-1.43,3.77,3.77,0,0,0-3,1.44,7,7,0,0,0-1.23,4.58c0,2.21.41,3.8,1.23,4.75A3.82,3.82,0,0,0,127.49,397.12Z"/><path class="cls-1" d="M150,398.66h-2.23v-9.82a4,4,0,0,0-.92-3,3.14,3.14,0,0,0-2.24-.86,3.84,3.84,0,0,0-3,1.45,5.72,5.72,0,0,0-1.24,3.83v8.38h-2.37V383.38h2.21v2.81Q142,382.95,145,383a4.77,4.77,0,0,1,2.91.89,4.71,4.71,0,0,1,1.65,2,12,12,0,0,1,.45,4Z"/></svg>