<svg id="Layer_1" data-name="Layer 1" xmlns="http://www.w3.org/2000/svg" viewBox="0 0 300 600"><defs><style>.cls-1{fill:#d5ad77;}</style></defs><title>text</title><path class="cls-1" d="M54.75,248.52V236.15h1.73v12.37Z"/><path class="cls-1" d="M61.55,248.52V236.15h1.21l6.7,8.52v-8.52h1.73v12.37h-1l-6.94-8.83v8.83Z"/><path class="cls-1" d="M79.37,248.68a5.8,5.8,0,0,1-2.32-.5,6,6,0,0,1-2-1.33l1.21-1.4a4.74,4.74,0,0,0,1.43,1.13,3.64,3.64,0,0,0,1.71.45,2.41,2.41,0,0,0,1.6-.52,1.67,1.67,0,0,0,.62-1.32,2.19,2.19,0,0,0-1.57-2l-1.46-.58a4.9,4.9,0,0,1-2-1.33A2.87,2.87,0,0,1,76,239.3,3.12,3.12,0,0,1,77,237a3.55,3.55,0,0,1,2.53-1,5.06,5.06,0,0,1,3.59,1.37l-1,1.39a3.44,3.44,0,0,0-2.55-1.11,1.92,1.92,0,0,0-1.31.43,1.43,1.43,0,0,0-.51,1.14,1.36,1.36,0,0,0,.37,1,3.46,3.46,0,0,0,1.26.77l1.48.59c1.81.73,2.67,1.91,2.6,3.54a3.37,3.37,0,0,1-1.09,2.6A4.17,4.17,0,0,1,79.37,248.68Z"/><path class="cls-1" d="M87.63,248.52V236.15h4.22a3.87,3.87,0,0,1,2.87,1.16,4,4,0,0,1,1.15,2.94,3.86,3.86,0,0,1-1.18,2.89,4,4,0,0,1-2.9,1.16H89.36v4.22Zm4.11-10.72H89.36v4.85h2.39a2.27,2.27,0,0,0,2.39-2.4,2.4,2.4,0,0,0-.68-1.76A2.31,2.31,0,0,0,91.74,237.8Z"/><path class="cls-1" d="M100,248.52V236.15h1.73v12.37Z"/><path class="cls-1" d="M106.77,248.52V236.15h4.59a3.83,3.83,0,0,1,2.78,1.08,4.06,4.06,0,0,1,.2,5.37,3.64,3.64,0,0,1-2.37,1.21l3.58,4.71h-2.13l-3.55-4.72H108.5v4.72Zm4.36-10.72H108.5v4.46h2.61a2.49,2.49,0,0,0,1.75-.61,2.22,2.22,0,0,0,0-3.21A2.4,2.4,0,0,0,111.13,237.8Z"/><path class="cls-1" d="M118.11,248.52l5-12.37h1.56l4.87,12.37H127.6l-.75-1.9h-6.06l-.76,1.9Zm5.75-9.53-2.41,6h4.76Z"/><path class="cls-1" d="M130.24,237.8v-1.65h10v1.65h-4.15v10.72h-1.73V237.8Z"/><path class="cls-1" d="M143.7,248.52V236.15h1.72v12.37Z"/><path class="cls-1" d="M155.91,248.74a6.09,6.09,0,0,1-4.46-1.83,6.66,6.66,0,0,1,0-9.17,6.33,6.33,0,0,1,8.91,0,6.59,6.59,0,0,1,0,9.16A6.08,6.08,0,0,1,155.91,248.74Zm-3.24-3a4.47,4.47,0,0,0,6.48,0,4.95,4.95,0,0,0,0-6.76,4.46,4.46,0,0,0-6.47,0,5,5,0,0,0,0,6.76Z"/><path class="cls-1" d="M166.54,248.52V236.15h1.21l6.7,8.52v-8.52h1.73v12.37h-1l-6.95-8.83v8.83Z"/><path class="cls-1" d="M191.11,248.7a3.66,3.66,0,0,1-2.6-1,3.3,3.3,0,0,1-1-2.48,3.17,3.17,0,0,1,.55-1.89,5.41,5.41,0,0,1,1.6-1.44l-.26-.28a4,4,0,0,1-.93-2.49,3.08,3.08,0,0,1,.89-2.22,2.91,2.91,0,0,1,2.18-.91,2.81,2.81,0,0,1,2.1.9,3,3,0,0,1,.88,2.21c0,1.3-.82,2.36-2.45,3.17l2,2.18a9.81,9.81,0,0,0,.52-2l1.44.07a11.63,11.63,0,0,1-.79,3.2l2,2.1-1.17,1.08-1.67-1.81A4,4,0,0,1,191.11,248.7Zm0-1.54a2.54,2.54,0,0,0,2.18-1.25l-2.68-2.9a2.66,2.66,0,0,0-1.45,2.15,2,2,0,0,0,.55,1.43A1.86,1.86,0,0,0,191.15,247.16Zm-1.28-8.09a2.58,2.58,0,0,0,.69,1.64l.42.44.11-.06a.35.35,0,0,0,.12-.05,4.28,4.28,0,0,0,1.4-.85,1.56,1.56,0,0,0,.43-1.11,1.54,1.54,0,0,0-.44-1.11,1.5,1.5,0,0,0-1.1-.44,1.64,1.64,0,0,0-1.16.44A1.48,1.48,0,0,0,189.87,239.07Z"/><path class="cls-1" d="M206.21,237.8v-1.65h10v1.65h-4.14v10.72h-1.73V237.8Z"/><path class="cls-1" d="M219.66,248.52V236.15h1.73v12.37Z"/><path class="cls-1" d="M226.46,248.52V236.15h4.22a3.87,3.87,0,0,1,2.87,1.16,4,4,0,0,1,1.15,2.94,3.86,3.86,0,0,1-1.18,2.89,4,4,0,0,1-2.9,1.16h-2.43v4.22Zm4.11-10.72h-2.38v4.85h2.39a2.28,2.28,0,0,0,2.4-2.4,2.4,2.4,0,0,0-.69-1.76A2.31,2.31,0,0,0,230.57,237.8Z"/><path class="cls-1" d="M241.86,248.68a5.76,5.76,0,0,1-2.31-.5,6,6,0,0,1-2-1.33l1.22-1.4a4.7,4.7,0,0,0,1.42,1.13,3.64,3.64,0,0,0,1.71.45,2.37,2.37,0,0,0,1.6-.52,1.67,1.67,0,0,0,.62-1.32,2.17,2.17,0,0,0-1.56-2l-1.46-.58a5,5,0,0,1-2-1.33,2.91,2.91,0,0,1-.66-1.95,3.12,3.12,0,0,1,1-2.34,3.54,3.54,0,0,1,2.52-1,5,5,0,0,1,3.59,1.37l-1,1.39a3.41,3.41,0,0,0-2.55-1.11,2,2,0,0,0-1.31.43,1.42,1.42,0,0,0-.5,1.14,1.4,1.4,0,0,0,.36,1,3.55,3.55,0,0,0,1.26.77l1.49.59q2.7,1.09,2.6,3.54a3.38,3.38,0,0,1-1.1,2.6A4.14,4.14,0,0,1,241.86,248.68Z"/><path class="cls-1" d="M55.13,269.52V257.15h6.75v1.65h-5v3.89H61.3v1.65H56.86v5.18Z"/><path class="cls-1" d="M71.22,269.74a6.07,6.07,0,0,1-4.46-1.83,6.63,6.63,0,0,1,0-9.17,6.33,6.33,0,0,1,8.91,0,6.62,6.62,0,0,1,0,9.16A6.12,6.12,0,0,1,71.22,269.74Zm-3.24-3a4.47,4.47,0,0,0,6.48,0,4.95,4.95,0,0,0,0-6.76A4.46,4.46,0,0,0,68,260a5,5,0,0,0,0,6.76Zm2.08-10.87a.83.83,0,0,1-.62.27.8.8,0,0,1-.61-.27,1,1,0,0,1-.24-.67,1,1,0,0,1,.24-.67.78.78,0,0,1,.61-.28.8.8,0,0,1,.62.28.93.93,0,0,1,.25.67A1,1,0,0,1,70.06,255.84Zm3.43,0a.81.81,0,0,1-.62.27.79.79,0,0,1-.61-.27,1,1,0,0,1-.25-.67.93.93,0,0,1,.25-.67.77.77,0,0,1,.61-.28.79.79,0,0,1,.62.28,1,1,0,0,1,.25.67A1,1,0,0,1,73.49,255.84Z"/><path class="cls-1" d="M81.85,269.52V257.15h4.59a3.83,3.83,0,0,1,2.78,1.08,4,4,0,0,1,.2,5.37,3.64,3.64,0,0,1-2.37,1.21l3.58,4.71H88.51L85,264.8H83.58v4.72Zm4.36-10.72H83.58v4.46h2.61a2.49,2.49,0,0,0,1.75-.61,2.23,2.23,0,0,0,0-3.21A2.44,2.44,0,0,0,86.21,258.8Z"/><path class="cls-1" d="M109.11,269.52v-5.36h-6v5.36h-1.73V257.15h1.73v5.36h6v-5.36h1.73v12.37Z"/><path class="cls-1" d="M120.21,269.73a4.29,4.29,0,0,1-3.23-1.3,4.48,4.48,0,0,1-1.26-3.26v-8h1.73v7.91a3.2,3.2,0,0,0,.74,2.16,2.52,2.52,0,0,0,2,.86,2.57,2.57,0,0,0,2-.84,3.12,3.12,0,0,0,.75-2.16v-7.93h1.73v8a4.48,4.48,0,0,1-1.26,3.26A4.33,4.33,0,0,1,120.21,269.73Z"/><path class="cls-1" d="M132.86,269.68a5.76,5.76,0,0,1-2.31-.5,6,6,0,0,1-2-1.33l1.22-1.4a4.7,4.7,0,0,0,1.42,1.13,3.64,3.64,0,0,0,1.71.45,2.37,2.37,0,0,0,1.6-.52,1.64,1.64,0,0,0,.62-1.32,2.17,2.17,0,0,0-1.56-2l-1.46-.58a5,5,0,0,1-2-1.33,2.91,2.91,0,0,1-.66-1.95,3.12,3.12,0,0,1,1-2.34,3.54,3.54,0,0,1,2.52-1,5,5,0,0,1,3.59,1.37l-1,1.39a3.41,3.41,0,0,0-2.55-1.11,2,2,0,0,0-1.31.43,1.45,1.45,0,0,0-.5,1.14,1.36,1.36,0,0,0,.37,1,3.41,3.41,0,0,0,1.25.77l1.49.59q2.7,1.1,2.6,3.54a3.4,3.4,0,0,1-1.09,2.6A4.18,4.18,0,0,1,132.86,269.68Z"/><path class="cls-1" d="M141.13,269.52V257.15h3.31a6.23,6.23,0,0,1,4.33,10.61,6.05,6.05,0,0,1-4.39,1.76Zm3.38-10.72h-1.65v9.07h1.7a4,4,0,0,0,3.05-1.32,4.61,4.61,0,0,0,1.23-3.24,4.38,4.38,0,0,0-1.28-3.21A4.1,4.1,0,0,0,144.51,258.8Z"/><path class="cls-1" d="M154.82,269.52V257.15h4.6a3.85,3.85,0,0,1,2.78,1.08,4,4,0,0,1,.19,5.37,3.6,3.6,0,0,1-2.36,1.21l3.58,4.71h-2.13l-3.55-4.72h-1.38v4.72Zm4.37-10.72h-2.64v4.46h2.62a2.49,2.49,0,0,0,1.75-.61,2.25,2.25,0,0,0,0-3.21A2.4,2.4,0,0,0,159.19,258.8Z"/><path class="cls-1" d="M173.23,269.74a6.09,6.09,0,0,1-4.46-1.83,6.66,6.66,0,0,1,0-9.17,6.33,6.33,0,0,1,8.91,0,6.59,6.59,0,0,1,0,9.16A6.1,6.1,0,0,1,173.23,269.74Zm-3.24-3a4.47,4.47,0,0,0,6.48,0,4.95,4.95,0,0,0,0-6.76,4.46,4.46,0,0,0-6.47,0,5,5,0,0,0,0,6.76Zm2.08-10.87a.8.8,0,0,1-.61.27.78.78,0,0,1-.61-.27,1,1,0,0,1-.25-.67.93.93,0,0,1,.25-.67.75.75,0,0,1,.61-.28.78.78,0,0,1,.61.28.94.94,0,0,1,.26.67A1,1,0,0,1,172.07,255.84Zm3.43,0a.79.79,0,0,1-.61.27.81.81,0,0,1-.62-.27,1,1,0,0,1-.25-.67,1,1,0,0,1,.25-.67.79.79,0,0,1,.62-.28.77.77,0,0,1,.61.28.93.93,0,0,1,.25.67A1,1,0,0,1,175.5,255.84Z"/><path class="cls-1" d="M183.86,269.52V257.15h1.78l4,6.59,4-6.59h1.7v12.37h-1.73v-9.14l0,0-4,6.39-3.9-6.3h-.11v9.08Z"/><path class="cls-1" d="M200.46,269.52V257.15h1.77l4,6.59,4-6.59H212v12.37h-1.73v-9.14l0,0-4,6.39-3.91-6.3h-.11v9.08Z"/><path class="cls-1" d="M215.48,269.52l5-12.37H222l4.87,12.37H225l-.75-1.9h-6.06l-.77,1.9Zm5.74-9.53-2.4,6h4.75Z"/><path class="cls-1" d="M230.31,269.52V257.15h4.59a3.87,3.87,0,0,1,2.79,1.08,4,4,0,0,1,.19,5.37,3.6,3.6,0,0,1-2.36,1.21l3.58,4.71H237l-3.55-4.72H232v4.72Zm4.36-10.72H232v4.46h2.62a2.51,2.51,0,0,0,1.75-.61,2.25,2.25,0,0,0,0-3.21A2.42,2.42,0,0,0,234.67,258.8Z"/></svg>