<svg id="Layer_1" data-name="Layer 1" xmlns="http://www.w3.org/2000/svg" viewBox="0 0 160 600"><defs><style>.cls-1{fill:#001012;}</style></defs><title>text</title><path class="cls-1" d="M41.16,145.86h1.19V162h7.88v1H41.16Z"/><path class="cls-1" d="M57.17,150.21c3,0,4.79,2.1,4.79,5.77a6,6,0,0,1-.05.94h-9c.05,3.14,1.9,5.4,4.71,5.4A5.56,5.56,0,0,0,61,161.21l.47.88a7,7,0,0,1-3.93,1.22c-3.2,0-5.77-2.44-5.77-6.52S54.39,150.21,57.17,150.21Zm3.7,5.82c0-3.2-1.43-4.84-3.67-4.84s-4,1.85-4.29,4.84Z"/><path class="cls-1" d="M64.45,160.74a5.82,5.82,0,0,0,4,1.58c1.95,0,3-1.14,3-2.47,0-1.56-1.61-2.23-3-2.75-1.9-.68-4-1.43-4-3.56,0-1.82,1.43-3.33,4-3.33a5.77,5.77,0,0,1,3.57,1.3l-.63.8a4.73,4.73,0,0,0-3-1.12c-1.92,0-2.81,1.12-2.81,2.27,0,1.38,1.46,2,2.94,2.52,2,.73,4.08,1.38,4.08,3.82,0,1.87-1.5,3.51-4.21,3.51a7.23,7.23,0,0,1-4.57-1.71Z"/><path class="cls-1" d="M81,144.3h1.14v8.17c1.3-1.3,2.6-2.26,4.32-2.26,2.57,0,3.77,1.56,3.77,4.78v8H89.13v-7.85c0-2.65-.84-3.9-2.86-3.9-1.49,0-2.55.78-4.09,2.34V163H81Z"/><path class="cls-1" d="M92.69,150.52h1.25l2.8,7.83c.39,1.19.86,2.44,1.25,3.58h.11c.41-1.14.85-2.39,1.27-3.58l2.81-7.83h1.17L98.72,163H97.37Z"/><path class="cls-1" d="M112.89,155.17c0-1.9-.49-3.95-2.94-3.95a6.87,6.87,0,0,0-4,1.46l-.52-.86a8.3,8.3,0,0,1,4.63-1.61c3,0,4,2.13,4,4.81v8h-1l-.13-1.61h0a7.41,7.41,0,0,1-4.42,1.92c-2,0-3.64-1.06-3.64-3.43C104.83,157.12,107.35,155.8,112.89,155.17Zm-4.24,7.15c1.43,0,2.71-.7,4.24-2v-4.24c-5.12.6-6.86,1.79-6.86,3.77A2.33,2.33,0,0,0,108.65,162.32Z"/><path class="cls-1" d="M15.85,181.72h1.24l2.81,7.83c.39,1.19.86,2.44,1.25,3.58h.1c.42-1.14.86-2.39,1.28-3.58l2.81-7.83h1.17L21.88,194.2H20.53Z"/><path class="cls-1" d="M36.05,186.37c.05-1.89-.5-4-2.94-4a6.85,6.85,0,0,0-4,1.46l-.52-.86a8.38,8.38,0,0,1,4.63-1.61c3,0,3.95,2.13,3.95,4.81v8h-1l-.13-1.61h-.05a7.44,7.44,0,0,1-4.42,1.92c-2,0-3.64-1.06-3.64-3.43C28,188.32,30.51,187,36.05,186.37Zm-4.24,7.15c1.43,0,2.7-.7,4.24-2v-4.24c-5.12.6-6.87,1.79-6.87,3.77A2.34,2.34,0,0,0,31.81,193.52ZM31,178a2.15,2.15,0,1,1,2.16,2.24A2.13,2.13,0,0,1,31,178Zm3.51,0a1.38,1.38,0,1,0-1.35,1.56A1.42,1.42,0,0,0,34.49,178Z"/><path class="cls-1" d="M41.66,181.72h1l.11,2.31h.07c.84-1.53,2.06-2.62,3.54-2.62a2.56,2.56,0,0,1,1.25.26l-.26,1a2.68,2.68,0,0,0-1.15-.21c-1.11,0-2.44.86-3.4,3.2v8.5H41.66Z"/><path class="cls-1" d="M54,181.41c3,0,4.78,2.1,4.78,5.77a6,6,0,0,1,0,.94h-9c0,3.14,1.89,5.4,4.7,5.4a5.59,5.59,0,0,0,3.36-1.11l.46.88a6.9,6.9,0,0,1-3.92,1.22c-3.2,0-5.77-2.44-5.77-6.52S51.26,181.41,54,181.41Zm3.69,5.82c0-3.2-1.43-4.83-3.66-4.83s-4,1.84-4.29,4.83Z"/><path class="cls-1" d="M67.38,175.5h1.14v13.79h0l6.17-7.57h1.32l-4,4.94,4.73,7.54H75.46l-4.13-6.68-2.81,3.27v3.41H67.38Z"/><path class="cls-1" d="M79,181.72h1.15v7.85c0,2.65.83,3.9,2.83,3.9,1.48,0,2.58-.78,4-2.55v-9.2h1.15V194.2h-1L87,192.12h0c-1.22,1.43-2.52,2.39-4.24,2.39-2.57,0-3.77-1.56-3.77-4.78Z"/><path class="cls-1" d="M92.91,181.72h1l.1,1.92h.08c1.27-1.27,2.57-2.23,4.29-2.23,2.57,0,3.77,1.56,3.77,4.78v8H101v-7.85c0-2.65-.84-3.9-2.86-3.9-1.49,0-2.55.78-4.09,2.34v9.41H92.91Z"/><path class="cls-1" d="M111.24,181.41a5.77,5.77,0,0,1,3.77,1.53l-.05-2.29V175.5h1.14v18.7h-1l-.1-1.61h-.08a5.84,5.84,0,0,1-4.05,1.92c-3.15,0-5.18-2.31-5.18-6.52C105.7,184,108.28,181.41,111.24,181.41ZM111,193.5c1.38,0,2.6-.73,3.93-2.06V184a5.29,5.29,0,0,0-3.64-1.61c-2.5,0-4.4,2.42-4.4,5.57S108.38,193.5,111,193.5Z"/><path class="cls-1" d="M125.28,181.41c3,0,4.78,2.1,4.78,5.77a6,6,0,0,1-.05.94h-9c.06,3.14,1.9,5.4,4.71,5.4a5.59,5.59,0,0,0,3.36-1.11l.46.88a6.9,6.9,0,0,1-3.92,1.22c-3.2,0-5.78-2.44-5.78-6.52S122.5,181.41,125.28,181.41Zm3.69,5.82c0-3.2-1.43-4.83-3.67-4.83s-4,1.84-4.29,4.83Z"/><path class="cls-1" d="M133.44,181.72h1l.1,2.31h.08c.83-1.53,2.06-2.62,3.54-2.62a2.56,2.56,0,0,1,1.25.26l-.26,1a2.68,2.68,0,0,0-1.15-.21c-1.12,0-2.44.86-3.4,3.2v8.5h-1.15Z"/><path class="cls-1" d="M22.7,223.14a5.79,5.79,0,0,0,4,1.58c1.95,0,3-1.14,3-2.47,0-1.56-1.61-2.23-3-2.75-1.9-.68-4-1.43-4-3.56,0-1.83,1.43-3.33,4-3.33a5.74,5.74,0,0,1,3.56,1.3l-.62.8a4.75,4.75,0,0,0-3-1.11c-1.93,0-2.81,1.11-2.81,2.26,0,1.37,1.46,2,2.94,2.52,1.95.73,4.08,1.38,4.08,3.82,0,1.87-1.51,3.51-4.21,3.51A7.26,7.26,0,0,1,22,224Z"/><path class="cls-1" d="M33.67,208.89a1,1,0,1,1,1,1A1,1,0,0,1,33.67,208.89Zm.44,4h1.14V225.4H34.11Z"/><path class="cls-1" d="M44.46,212.61c3,0,4.78,2.1,4.78,5.77a5.8,5.8,0,0,1-.05.93h-9c.06,3.15,1.9,5.41,4.71,5.41a5.59,5.59,0,0,0,3.36-1.11l.46.88a6.9,6.9,0,0,1-3.92,1.22c-3.2,0-5.78-2.44-5.78-6.52S41.68,212.61,44.46,212.61Zm3.69,5.82c0-3.2-1.43-4.83-3.66-4.83s-4,1.84-4.3,4.83Z"/><path class="cls-1" d="M52.62,212.92h1l.1,2.31h.08c.83-1.53,2.06-2.62,3.54-2.62a2.56,2.56,0,0,1,1.25.26l-.26,1a2.68,2.68,0,0,0-1.15-.21c-1.12,0-2.44.86-3.4,3.2v8.5H52.62Z"/><path class="cls-1" d="M70.59,212.61c3,0,5.61,2.39,5.61,6.58s-2.6,6.52-5.61,6.52S65,223.32,65,219.19,67.6,212.61,70.59,212.61Zm0,12.09c2.52,0,4.42-2.24,4.42-5.51s-1.9-5.57-4.42-5.57-4.4,2.26-4.4,5.57S68.07,224.7,70.59,224.7Z"/><path class="cls-1" d="M80,212.92h1l.1,1.92h.08A5.73,5.73,0,0,1,85,212.61a3.24,3.24,0,0,1,3.46,2.54c1.43-1.55,2.81-2.54,4.24-2.54,2.5,0,3.74,1.56,3.74,4.78v8H95.31v-7.85c0-2.65-.88-3.9-2.78-3.9-1.17,0-2.36.78-3.74,2.34v9.41H87.64v-7.85c0-2.65-.88-3.9-2.8-3.9q-1.68,0-3.75,2.34v9.41H80Z"/><path class="cls-1" d="M110.78,212.61c3,0,5.62,2.39,5.62,6.58s-2.6,6.52-5.62,6.52-5.59-2.39-5.59-6.52S107.79,212.61,110.78,212.61Zm0,12.09c2.53,0,4.42-2.24,4.42-5.51s-1.89-5.57-4.42-5.57-4.39,2.26-4.39,5.57S108.26,224.7,110.78,224.7Z"/><path class="cls-1" d="M119.26,223.14a5.79,5.79,0,0,0,4,1.58c2,0,3-1.14,3-2.47,0-1.56-1.61-2.23-3-2.75-1.9-.68-4-1.43-4-3.56,0-1.83,1.43-3.33,4-3.33a5.74,5.74,0,0,1,3.56,1.3l-.62.8a4.75,4.75,0,0,0-3-1.11c-1.93,0-2.81,1.11-2.81,2.26,0,1.37,1.46,2,2.94,2.52,1.95.73,4.08,1.38,4.08,3.82,0,1.87-1.51,3.51-4.21,3.51a7.26,7.26,0,0,1-4.58-1.71Z"/><path class="cls-1" d="M129.79,223.14a5.79,5.79,0,0,0,4,1.58c1.95,0,3-1.14,3-2.47,0-1.56-1.61-2.23-3-2.75-1.9-.68-4-1.43-4-3.56,0-1.83,1.43-3.33,4-3.33a5.74,5.74,0,0,1,3.56,1.3l-.62.8a4.75,4.75,0,0,0-3-1.11c-1.93,0-2.81,1.11-2.81,2.26,0,1.37,1.46,2,2.94,2.52,2,.73,4.08,1.38,4.08,3.82,0,1.87-1.51,3.51-4.21,3.51a7.26,7.26,0,0,1-4.58-1.71Z"/></svg>