<svg id="Layer_1" data-name="Layer 1" xmlns="http://www.w3.org/2000/svg" viewBox="0 0 160 600"><defs><style>.cls-1{fill:#d80201;}</style></defs><title>text</title><path class="cls-1" d="M17.85,272.42a5,5,0,0,1-4.2,2.12,6.37,6.37,0,0,1-4.37-1.76l2.21-2.66a2.17,2.17,0,0,0,1.8,1c2,0,1.87-2.24,1.87-3.7v-12H18.8V268A8,8,0,0,1,17.85,272.42Z"/><path class="cls-1" d="M28.43,274.49c-3.33,0-5.85-1.49-5.85-5.1V262H26v6.86c0,1.65.7,2.77,2.46,2.77s2.47-1.12,2.47-2.77V262h3.41v7.42C34.31,273,31.77,274.49,28.43,274.49Z"/><path class="cls-1" d="M41.43,274.49a6.44,6.44,0,0,1-4.62-2l1.79-2.07a3.94,3.94,0,0,0,2.85,1.43A1.43,1.43,0,0,0,43,270.48c0-2.07-5.4-1-5.4-5.12,0-2.46,2-3.84,4.34-3.84a6.28,6.28,0,0,1,4,1.29l-1.68,2a3.37,3.37,0,0,0-2-.81c-.59,0-1.29.36-1.29,1,0,1.77,5.6,1,5.6,5.13C46.49,273,44,274.49,41.43,274.49Z"/><path class="cls-1" d="M52.32,264.88v9.22H48.93v-9.22H47.59V262h1.34v-4.14h3.39V262H54.7v2.91Z"/><path class="cls-1" d="M71.75,274.1v-6.72c0-1.66-.37-2.92-2.3-2.92-2.1,0-2.6,1.54-2.6,3.36v6.28H63.46V262h3.39v1.49a4.47,4.47,0,0,1,3.81-1.88,4.19,4.19,0,0,1,4.48,4.82v7.7Z"/><path class="cls-1" d="M84.24,274.49c-3.34,0-5.86-1.49-5.86-5.1V262h3.39v6.86c0,1.65.7,2.77,2.47,2.77s2.46-1.12,2.46-2.77V262h3.42v7.42C90.12,273,87.57,274.49,84.24,274.49Z"/><path class="cls-1" d="M115.85,274.1v-6.64c0-1.43-.23-3-2-3-2,0-2.32,1.82-2.32,3.42v6.22h-3.39v-6.44a5.45,5.45,0,0,0-.25-2,2,2,0,0,0-1.82-1.18,2.21,2.21,0,0,0-1.91,1.1,5.06,5.06,0,0,0-.39,2.32v6.22h-3.39V262h3.39v1.37a4.69,4.69,0,0,1,3.7-1.76,4.14,4.14,0,0,1,3.78,2.21,4.49,4.49,0,0,1,4-2.21,4,4,0,0,1,3.39,1.74,5.33,5.33,0,0,1,.65,2.94v7.84Z"/><path class="cls-1" d="M125.31,268.58c.06,1.88,1,3.25,3,3.25a3.16,3.16,0,0,0,2.88-1.63l3.14.51a5.94,5.94,0,0,1-6,3.78,6.08,6.08,0,0,1-6.5-6.47c0-3.86,2.46-6.44,6.36-6.44s6.18,2.69,6.18,6.55v.45Zm2.94-4.59a2.75,2.75,0,0,0-2.83,2.43h5.74A2.8,2.8,0,0,0,128.25,264Z"/><path class="cls-1" d="M146.26,274.1v-1.6a4.7,4.7,0,0,1-3.95,2c-3.64,0-6-3-6-6.5s2.33-6.41,5.88-6.41a5.08,5.08,0,0,1,4,1.93V253.13h3.41v21Zm-3-9.47a3.41,3.41,0,1,0,3.39,3.39A3.39,3.39,0,0,0,143.23,264.63Z"/><path class="cls-1" d="M29.9,292.19V307.7H26.26V292.19H22.09V289h12v3.17Z"/><path class="cls-1" d="M43.09,298.65a3,3,0,0,0-1.62-.42c-2.3,0-2.91,1.63-2.91,3.64v5.83H35.17V295.57h3.39v1.82a3.88,3.88,0,0,1,3.52-2.21,3.83,3.83,0,0,1,1.49.28Z"/><path class="cls-1" d="M49.53,314.19H45.7l4.45-8.31-5.74-10.31h4L52,302.46l3.47-6.89h3.86Z"/><path class="cls-1" d="M72.24,312.09a6.59,6.59,0,0,1-5.15,2.13c-3.11,0-6.11-1.79-6.44-5.09h3.66a2.71,2.71,0,0,0,2.89,2.21c2.13,0,3-1.49,3-3.45v-1.82a5,5,0,0,1-4.08,2c-3.59,0-5.77-2.88-5.77-6.3s2.24-6.61,5.93-6.61a4.54,4.54,0,0,1,3.92,2v-1.57h3.42v11.68C73.61,309.15,73.53,310.58,72.24,312.09Zm-5-13.86a3.41,3.41,0,1,0,3.38,3.39A3.38,3.38,0,0,0,67.23,298.23Z"/><path class="cls-1" d="M88.11,312.09A6.56,6.56,0,0,1,83,314.22c-3.11,0-6.1-1.79-6.44-5.09h3.67a2.7,2.7,0,0,0,2.88,2.21c2.13,0,3-1.49,3-3.45v-1.82a5,5,0,0,1-4.09,2c-3.58,0-5.77-2.88-5.77-6.3s2.25-6.61,5.94-6.61a4.54,4.54,0,0,1,3.92,2v-1.57h3.42v11.68C89.49,309.15,89.4,310.58,88.11,312.09Zm-5-13.86a3.41,3.41,0,1,0,3.39,3.39A3.39,3.39,0,0,0,83.1,298.23Z"/><path class="cls-1" d="M101,307.7v-6.64c0-1.68-.36-3-2.32-3s-2.58,1.63-2.58,3.42v6.22H92.73v-21h3.39v10.41a4.41,4.41,0,0,1,3.81-2,4.63,4.63,0,0,1,3.53,1.49,4.77,4.77,0,0,1,1,3.41v7.62Z"/><path class="cls-1" d="M110.49,302.18c.05,1.88,1,3.25,3,3.25a3.17,3.17,0,0,0,2.89-1.63l3.13.51a5.94,5.94,0,0,1-6,3.78,6.08,6.08,0,0,1-6.5-6.47c0-3.86,2.47-6.44,6.36-6.44s6.19,2.69,6.19,6.55v.45Zm2.94-4.59A2.75,2.75,0,0,0,110.6,300h5.74A2.81,2.81,0,0,0,113.43,297.59Z"/><path class="cls-1" d="M125.58,298.48v9.22h-3.39v-9.22h-1.34v-2.91h1.34v-4.14h3.39v4.14H128v2.91Z"/><path class="cls-1" d="M133.59,308.09a6.44,6.44,0,0,1-4.62-2l1.79-2.07a3.94,3.94,0,0,0,2.85,1.43,1.43,1.43,0,0,0,1.54-1.35c0-2.07-5.4-1-5.4-5.12,0-2.46,2-3.83,4.34-3.83a6.28,6.28,0,0,1,3.95,1.28l-1.68,2a3.37,3.37,0,0,0-2-.81c-.59,0-1.29.36-1.29,1,0,1.76,5.6,1,5.6,5.12C138.65,306.58,136.19,308.09,133.59,308.09Z"/><path class="cls-1" d="M46.63,345.69a6.57,6.57,0,0,1-5.15,2.13c-3.11,0-6.1-1.79-6.44-5.1h3.67a2.69,2.69,0,0,0,2.88,2.22c2.13,0,3-1.49,3-3.45v-1.82a5,5,0,0,1-4.09,2c-3.58,0-5.77-2.89-5.77-6.3s2.24-6.61,5.94-6.61a4.54,4.54,0,0,1,3.92,2v-1.57H48v11.68C48,342.75,47.92,344.18,46.63,345.69Zm-5-13.86A3.41,3.41,0,1,0,45,335.22,3.39,3.39,0,0,0,41.62,331.83Z"/><path class="cls-1" d="M60.52,341.3v-1.6a4.67,4.67,0,0,1-4,2c-3.64,0-6-3-6-6.5s2.32-6.41,5.88-6.41a5,5,0,0,1,4,1.93v-1.54h3.42V341.3Zm-3-9.47a3.41,3.41,0,1,0,3.39,3.39A3.38,3.38,0,0,0,57.5,331.83Z"/><path class="cls-1" d="M75.11,332.25a3.08,3.08,0,0,0-1.63-.42c-2.29,0-2.91,1.63-2.91,3.64v5.83H67.19V329.17h3.38V331a3.91,3.91,0,0,1,3.53-2.21,4,4,0,0,1,1.48.28Z"/><path class="cls-1" d="M86.53,341.3v-1.6a4.67,4.67,0,0,1-4,2c-3.64,0-6-3-6-6.5s2.32-6.41,5.88-6.41a5,5,0,0,1,4,1.93v-1.54H90V341.3Zm-3-9.47a3.41,3.41,0,1,0,3.39,3.39A3.38,3.38,0,0,0,83.51,331.83Z"/><path class="cls-1" d="M101.48,341.3v-6.72c0-1.66-.36-2.91-2.29-2.91-2.1,0-2.61,1.54-2.61,3.36v6.27H93.2V329.17h3.38v1.49a4.48,4.48,0,0,1,3.81-1.88,4.19,4.19,0,0,1,4.48,4.82v7.7Z"/><path class="cls-1" d="M111.54,332.08v9.22h-3.39v-9.22H106.8v-2.91h1.35V325h3.39v4.14h2.38v2.91Z"/><path class="cls-1" d="M117.33,326.09a2,2,0,1,1,2-2A2,2,0,0,1,117.33,326.09Zm-1.71,15.21V329.17H119V341.3Z"/><path class="cls-1" d="M124.08,341.66a2.19,2.19,0,1,1,2.18-2.18A2.19,2.19,0,0,1,124.08,341.66ZM122.34,336V322.62h3.47V336Z"/></svg>