<svg id="Layer_1" data-name="Layer 1" xmlns="http://www.w3.org/2000/svg" viewBox="0 0 300 600"><defs><style>.cls-1{fill:#d5ad77;}</style></defs><title>text</title><path class="cls-1" d="M69.25,84.79H57.53V92.9H70.4v5.29H51.58V66.5H70v5.29H57.53V79.5H69.25Z"/><path class="cls-1" d="M80,98.19V66.5H84.2L99.8,86.43V66.5h5.94V98.19h-4L86,78V98.19Z"/><path class="cls-1" d="M117.06,98.19V66.5h5.49v14l12.14-14H142L130.84,79.14l11.43,19h-6.85l-8.63-14.47-4.24,4.8v9.67Z"/><path class="cls-1" d="M150.68,98.19V66.5h5.94v26h11.65v5.7Z"/><path class="cls-1" d="M173.76,98.19,186,66.5h5.37l12.18,31.69h-6.11l-1.69-4.38H181.56l-1.69,4.38Zm14.91-22.82L183.6,88.52h10.11Z"/><path class="cls-1" d="M211,98.19V66.5h12.4A10.68,10.68,0,0,1,231,69.38,9.87,9.87,0,0,1,234,76.9a9.53,9.53,0,0,1-2.27,6.42,10.24,10.24,0,0,1-5.92,3.37l8.52,11.5h-6.69l-8.22-11.31h-2.56V98.19Zm11.48-26.4h-5.54V82.12h5.54a5.87,5.87,0,0,0,4.12-1.41,4.71,4.71,0,0,0,1.53-3.65,5,5,0,0,0-1.57-3.76A5.67,5.67,0,0,0,222.43,71.79Z"/><path class="cls-1" d="M261,84.79H249.24V92.9h12.87v5.29H243.29V66.5h18.45v5.29h-12.5V79.5H261Z"/><path class="cls-1" d="M69.66,147.39V134.15H56.09v13.24H50.15V115.7h5.94v12.75H69.66V115.7h6v31.69Z"/><path class="cls-1" d="M107,144.54a12.89,12.89,0,0,1-17.34,0,11.22,11.22,0,0,1-3.42-8.38V115.7h5.94v19.68a7.25,7.25,0,0,0,1.64,4.89,6.29,6.29,0,0,0,9,0,7.11,7.11,0,0,0,1.63-4.83V115.7h5.95v20.46A11.23,11.23,0,0,1,107,144.54Z"/><path class="cls-1" d="M129.62,147.8a15.17,15.17,0,0,1-6-1.25,15.69,15.69,0,0,1-5.13-3.46l3.77-4.52a11.48,11.48,0,0,0,3.5,2.84,8.88,8.88,0,0,0,4.17,1.1,5.17,5.17,0,0,0,3.38-1.08,3.41,3.41,0,0,0,1.32-2.74q0-3-3.48-4.4l-3.54-1.41a13.54,13.54,0,0,1-5.26-3.5,8,8,0,0,1-1.7-5.39,8.22,8.22,0,0,1,2.68-6,9.2,9.2,0,0,1,6.72-2.65,13.67,13.67,0,0,1,9.76,3.62l-3.5,4.42a8.16,8.16,0,0,0-6.26-2.75,4.21,4.21,0,0,0-2.84.91,2.84,2.84,0,0,0-1.07,2.24,3,3,0,0,0,.84,2.17,8.31,8.31,0,0,0,2.72,1.63l3.69,1.48q7.05,2.82,7.18,9.15a8.87,8.87,0,0,1-3,6.94A11.53,11.53,0,0,1,129.62,147.8Z"/><path class="cls-1" d="M149.65,147.39V115.7h12.4a10.7,10.7,0,0,1,7.64,2.88,9.86,9.86,0,0,1,3,7.52,9.48,9.48,0,0,1-2.27,6.42,10.19,10.19,0,0,1-5.91,3.37l8.51,11.5h-6.68l-8.22-11.31H155.6v11.31ZM161.13,121H155.6v10.33h5.53a5.85,5.85,0,0,0,4.12-1.41,4.69,4.69,0,0,0,1.54-3.65,5,5,0,0,0-1.58-3.76A5.64,5.64,0,0,0,161.13,121Z"/><path class="cls-1" d="M199.67,134H188v8.11h12.87v5.29H182V115.7h18.45V121H188v7.71h11.72Z"/><path class="cls-1" d="M218.88,147.8a15.1,15.1,0,0,1-6-1.25,15.48,15.48,0,0,1-5.13-3.46l3.77-4.52a11.44,11.44,0,0,0,3.49,2.84,8.92,8.92,0,0,0,4.18,1.1,5.12,5.12,0,0,0,3.37-1.08,3.41,3.41,0,0,0,1.32-2.74q0-3-3.47-4.4l-3.54-1.41a13.59,13.59,0,0,1-5.27-3.5,8.1,8.1,0,0,1-1.7-5.39,8.23,8.23,0,0,1,2.69-6,9.17,9.17,0,0,1,6.72-2.65,13.67,13.67,0,0,1,9.76,3.62l-3.5,4.42a8.18,8.18,0,0,0-6.26-2.75,4.21,4.21,0,0,0-2.84.91,2.81,2.81,0,0,0-1.07,2.24,3,3,0,0,0,.83,2.17,8.53,8.53,0,0,0,2.72,1.63l3.7,1.48q7.05,2.82,7.18,9.15a8.88,8.88,0,0,1-3,6.94A11.5,11.5,0,0,1,218.88,147.8Z"/><path class="cls-1" d="M235.42,147.39l12.22-31.69H253l12.18,31.69h-6.11L257.4,143H243.22l-1.69,4.38Zm14.91-22.82-5.07,13.15h10.11Z"/></svg>