<svg id="Layer_1" data-name="Layer 1" xmlns="http://www.w3.org/2000/svg" viewBox="0 0 300 600"><defs><style>.cls-1{fill:#d5ad77;}</style></defs><title>text</title><path class="cls-1" d="M54.75,245.69V244.6l4.31-8.45h1.81l-4.07,8h2.67v-2.08H61.2v2.08h1.49v1.54H61.2v2.83H59.47v-2.83Z"/><path class="cls-1" d="M70.33,248.7a3.94,3.94,0,0,1-2.88-1.16,3.9,3.9,0,0,1-1.16-2.89V240a3.84,3.84,0,0,1,1.17-2.86,4.14,4.14,0,0,1,5.74,0,3.81,3.81,0,0,1,1.17,2.84v4.73a3.85,3.85,0,0,1-1.17,2.88A4,4,0,0,1,70.33,248.7Zm-1.66-2.32a2.39,2.39,0,0,0,3.32,0,2.35,2.35,0,0,0,.65-1.71V240a2.33,2.33,0,0,0-.65-1.69,2.38,2.38,0,0,0-3.32,0A2.3,2.3,0,0,0,68,240v4.7A2.31,2.31,0,0,0,68.67,246.38Z"/><path class="cls-1" d="M84.34,248.52l5-12.37h1.57l4.87,12.37H93.82l-.74-1.9H87l-.77,1.9ZM90.08,239l-2.4,6h4.75Z"/><path class="cls-1" d="M99.17,248.52V236.15h4.59a3.83,3.83,0,0,1,2.78,1.08,4,4,0,0,1,.2,5.37,3.64,3.64,0,0,1-2.37,1.21l3.58,4.71h-2.12l-3.56-4.72H100.9v4.72Zm4.36-10.72H100.9v4.46h2.61a2.49,2.49,0,0,0,1.75-.61,2.22,2.22,0,0,0,0-3.21A2.4,2.4,0,0,0,103.53,237.8Z"/><path class="cls-1" d="M112,248.52V236.15h1.73V242l5.15-5.87h2.32l-4.36,4.91,4.47,7.46h-2.14l-3.6-6-1.84,2.07v4Z"/><path class="cls-1" d="M125.07,248.52V236.15h1.73v12.37Z"/><path class="cls-1" d="M130.24,237.8v-1.65h10v1.65h-4.15v10.72h-1.73V237.8Z"/><path class="cls-1" d="M150.51,243.1h-5.09v3.77h5.45v1.65H143.7V236.15h7.07v1.65h-5.35v3.65h5.09Z"/><path class="cls-1" d="M155.15,248.52V236.15h1.73V242l5.15-5.87h2.32L160,241.06l4.47,7.46h-2.14l-3.6-6-1.84,2.07v4Z"/><path class="cls-1" d="M167.07,237.8v-1.65h10v1.65h-4.15v10.72h-1.72V237.8Z"/><path class="cls-1" d="M180.53,248.52V236.15h4.59a3.83,3.83,0,0,1,2.78,1.08,4.06,4.06,0,0,1,.2,5.37,3.64,3.64,0,0,1-2.37,1.21l3.58,4.71h-2.13l-3.55-4.72h-1.37v4.72Zm4.36-10.72h-2.63v4.46h2.61a2.49,2.49,0,0,0,1.75-.61,2.22,2.22,0,0,0,0-3.21A2.4,2.4,0,0,0,184.89,237.8Z"/><path class="cls-1" d="M193.36,248.52V236.15h1.73v12.37Z"/><path class="cls-1" d="M198.53,237.8v-1.65h10v1.65H204.4v10.72h-1.73V237.8Z"/><path class="cls-1" d="M209.34,248.52l5-12.37h1.56l4.87,12.37h-1.91l-.75-1.9H212l-.76,1.9Zm5.75-9.53-2.4,6h4.75Z"/><path class="cls-1" d="M224.18,248.52V236.15h3.31a6.23,6.23,0,0,1,4.33,10.61,6.05,6.05,0,0,1-4.39,1.76Zm3.38-10.72H225.9v9.07h1.71a4,4,0,0,0,3-1.32,4.57,4.57,0,0,0,1.24-3.24,4.42,4.42,0,0,0-1.28-3.21A4.12,4.12,0,0,0,227.56,237.8Z"/><path class="cls-1" d="M244.69,243.1H239.6v3.77H245v1.65h-7.17V236.15h7.07v1.65H239.6v3.65h5.09Z"/><path class="cls-1" d="M85.35,269.52v-5.36h-6v5.36H77.61V257.15h1.73v5.36h6v-5.36h1.73v12.37Z"/><path class="cls-1" d="M96.45,269.73a4.29,4.29,0,0,1-3.23-1.3A4.48,4.48,0,0,1,92,265.17v-8h1.73v7.91a3.2,3.2,0,0,0,.74,2.16,2.52,2.52,0,0,0,2,.86,2.6,2.6,0,0,0,2-.84,3.16,3.16,0,0,0,.74-2.16v-7.93H101v8a4.48,4.48,0,0,1-1.26,3.26A4.33,4.33,0,0,1,96.45,269.73Z"/><path class="cls-1" d="M109.1,269.68a5.76,5.76,0,0,1-2.31-.5,6.12,6.12,0,0,1-2-1.33l1.22-1.4a4.7,4.7,0,0,0,1.42,1.13,3.64,3.64,0,0,0,1.71.45,2.37,2.37,0,0,0,1.6-.52,1.64,1.64,0,0,0,.62-1.32,2.17,2.17,0,0,0-1.56-2l-1.46-.58a5,5,0,0,1-2-1.33,2.91,2.91,0,0,1-.66-1.95,3.12,3.12,0,0,1,1-2.34,3.54,3.54,0,0,1,2.52-1,5,5,0,0,1,3.59,1.37l-1,1.39a3.41,3.41,0,0,0-2.55-1.11,2,2,0,0,0-1.31.43,1.45,1.45,0,0,0-.5,1.14,1.36,1.36,0,0,0,.37,1,3.41,3.41,0,0,0,1.25.77l1.49.59q2.7,1.1,2.6,3.54a3.4,3.4,0,0,1-1.09,2.6A4.18,4.18,0,0,1,109.1,269.68Z"/><path class="cls-1" d="M117.37,269.52V257.15h1.77l4,6.59,4.05-6.59h1.69v12.37h-1.73v-9.14l0,0-4,6.39-3.9-6.3h-.11v9.08Z"/><path class="cls-1" d="M139.38,269.74a6.07,6.07,0,0,1-4.46-1.83,6.63,6.63,0,0,1,0-9.17,6.31,6.31,0,0,1,8.9,0,6.59,6.59,0,0,1,0,9.16A6.08,6.08,0,0,1,139.38,269.74Zm-3.24-3a4.46,4.46,0,0,0,6.47,0,4.93,4.93,0,0,0,0-6.76,4.46,4.46,0,0,0-6.47,0,5,5,0,0,0,0,6.76Z"/><path class="cls-1" d="M150,269.52V257.15h3.31a6.23,6.23,0,0,1,4.33,10.61,6.05,6.05,0,0,1-4.39,1.76Zm3.38-10.72h-1.65v9.07h1.7a4,4,0,0,0,3.05-1.32,4.61,4.61,0,0,0,1.23-3.24,4.41,4.41,0,0,0-1.27-3.21A4.12,4.12,0,0,0,153.39,258.8Z"/><path class="cls-1" d="M170.52,264.1h-5.09v3.77h5.44v1.65h-7.16V257.15h7.07v1.65h-5.35v3.65h5.09Z"/><path class="cls-1" d="M175.16,269.52V257.15h1.73v10.72H182v1.65Z"/><path class="cls-1" d="M185.77,269.52V257.15h1.73v10.72h5.08v1.65Z"/><path class="cls-1" d="M203.19,264.1H198.1v3.77h5.44v1.65h-7.16V257.15h7.07v1.65H198.1v3.65h5.09Z"/><path class="cls-1" d="M207.83,269.52V257.15h4.59a3.87,3.87,0,0,1,2.79,1.08,4,4,0,0,1,.19,5.37,3.6,3.6,0,0,1-2.36,1.21l3.58,4.71h-2.13l-3.55-4.72h-1.38v4.72Zm4.36-10.72h-2.63v4.46h2.62a2.51,2.51,0,0,0,1.75-.61,2.25,2.25,0,0,0,0-3.21A2.42,2.42,0,0,0,212.19,258.8Z"/></svg>