<svg id="Layer_1" data-name="Layer 1" xmlns="http://www.w3.org/2000/svg" viewBox="0 0 160 600"><defs><style>.cls-1{fill:#d80201;}.cls-2{fill:#fff;}</style></defs><title>text</title><rect class="cls-1" x="14.3" y="523.33" width="129.39" height="20.89" rx="10.44"/><path class="cls-2" d="M48.39,537.84v-8.13H50v6.75h2.5v1.38Z"/><path class="cls-2" d="M59.5,537.84l-.69-1.72H55.49l-.74,1.72H53.07l3.52-8.31h1.2l3.42,8.31Zm-3.73-9a.89.89,0,0,1-.87-.88.88.88,0,0,1,1.75,0A.88.88,0,0,1,55.77,528.82Zm1.41,3.09L56,534.84h2.33Zm1.32-3.09a.89.89,0,0,1-.87-.88.88.88,0,0,1,1.75,0A.88.88,0,0,1,58.5,528.82Z"/><path class="cls-2" d="M64.41,538a3.15,3.15,0,0,1-2.79-1.55l1-1a1.85,1.85,0,0,0,1.7,1.08,1.16,1.16,0,0,0,1.26-1.14c0-1.68-3.57-.88-3.57-3.5a2.38,2.38,0,0,1,2.53-2.37,3.6,3.6,0,0,1,2.38.9l-.83,1.09a1.63,1.63,0,0,0-1.32-.66c-.52,0-1.13.33-1.13.91,0,1.38,3.57.7,3.57,3.54A2.62,2.62,0,0,1,64.41,538Z"/><path class="cls-2" d="M79.22,537.84l-.72-5L76.26,538h-.44l-2.16-5.12-.82,5H71.25l1.51-8.28h1.08l2.22,5.31,2.32-5.31h1.08l1.36,8.28Z"/><path class="cls-2" d="M82.26,537.84v-8.13h4.5v1.37H83.85v1.81h2.8v1.37h-2.8v2.2h2.91v1.38Z"/><path class="cls-2" d="M92.27,537.84l-2.2-3.27h-.19v3.27H88.29v-8.13h2.36a3.36,3.36,0,0,1,2.07.58,2.36,2.36,0,0,1,.8,1.83,2.73,2.73,0,0,1-.46,1.49,2.11,2.11,0,0,1-1.39.8l2.56,3.43ZM90.35,531h-.47v2.45h.45c.82,0,1.56-.29,1.56-1.23S91.17,531,90.35,531Z"/><polygon class="cls-2" points="119.62 534.79 111.06 534.79 111.06 532.62 119.62 532.62 119.62 529.32 125.71 533.71 119.62 537.91 119.62 534.79"/></svg>