<svg id="Layer_1" data-name="Layer 1" xmlns="http://www.w3.org/2000/svg" viewBox="0 0 160 600"><defs><style>.cls-1{fill:#010121;}</style></defs><title>text</title><path class="cls-1" d="M12.62,207.63h2.65V227H12.62Z"/><path class="cls-1" d="M33.6,207.63v2.31H27.08V227H24.43V209.94H17.9v-2.31Z"/><path class="cls-1" d="M42.79,207.63h2.38V227H42.79Z"/><path class="cls-1" d="M48.2,227l1.69-1.78a7.93,7.93,0,0,1-1-2.18,10.23,10.23,0,0,1-.35-2.88,8.9,8.9,0,0,1,1.67-5.31,5.67,5.67,0,0,1,4.9-2.33,6.75,6.75,0,0,1,2.93.6,8.1,8.1,0,0,1,1.7,1.14l1.68-1.86.68.67-1.69,1.89a8.18,8.18,0,0,1,1.19,2.78,9.41,9.41,0,0,1,.22,2A8.44,8.44,0,0,1,60,225.33,6.13,6.13,0,0,1,55,227.54a7.37,7.37,0,0,1-2.61-.43A4.8,4.8,0,0,1,50.58,226L49,227.63Zm8.82-12a4.39,4.39,0,0,0-1.84-.38,3.66,3.66,0,0,0-3.1,1.61,6.81,6.81,0,0,0-1.16,4.12,7.78,7.78,0,0,0,.2,1.83,11.71,11.71,0,0,0,.41,1.24l6.69-7.48A2.88,2.88,0,0,0,57,214.93Zm-3.48,10.28a4.85,4.85,0,0,0,1.55.26,3.64,3.64,0,0,0,3.57-2.35,7.71,7.71,0,0,0,.64-3.24,9.26,9.26,0,0,0-.2-2,7,7,0,0,0-.37-1.08l-6.6,7.44A3.32,3.32,0,0,0,53.54,225.21Z"/><path class="cls-1" d="M66.63,222.57a3.32,3.32,0,0,0,.61,1.82,3.85,3.85,0,0,0,3.17,1.15,4.68,4.68,0,0,0,2.37-.58,1.89,1.89,0,0,0,1-1.77,1.49,1.49,0,0,0-.82-1.38,9.35,9.35,0,0,0-2.06-.68L69,220.66a9.4,9.4,0,0,1-2.71-1A3,3,0,0,1,64.74,217a4,4,0,0,1,1.47-3.24,5.84,5.84,0,0,1,3.93-1.24c2.16,0,3.71.62,4.67,1.87a4.06,4.06,0,0,1,.86,2.56H73.43a2.69,2.69,0,0,0-.58-1.46,3.76,3.76,0,0,0-2.9-.93,3.52,3.52,0,0,0-2.08.52,1.57,1.57,0,0,0-.71,1.35,1.66,1.66,0,0,0,.93,1.47,5.68,5.68,0,0,0,1.58.58l1.6.38a12.9,12.9,0,0,1,3.49,1.2,3.17,3.17,0,0,1,1.39,2.86,4.33,4.33,0,0,1-1.45,3.26,6.25,6.25,0,0,1-4.41,1.37c-2.13,0-3.63-.48-4.52-1.43a5.37,5.37,0,0,1-1.42-3.54Z"/><path class="cls-1" d="M78.72,212.88H81v2a6.4,6.4,0,0,1,2.13-1.78,5.62,5.62,0,0,1,2.49-.54c2,0,3.36.7,4.06,2.1a7.38,7.38,0,0,1,.58,3.28V227H87.82v-8.9a4.7,4.7,0,0,0-.39-2.08,2.31,2.31,0,0,0-2.29-1.32,4.8,4.8,0,0,0-1.38.17A3.5,3.5,0,0,0,82,216a3.63,3.63,0,0,0-.77,1.44,9.66,9.66,0,0,0-.18,2.13V227H78.72Z"/><path class="cls-1" d="M93.74,207.63h2.41v2.69H93.74Zm0,5.32h2.41V227H93.74Z"/><path class="cls-1" d="M99.73,212.88H102v2a6.38,6.38,0,0,1,2.12-1.78,5.68,5.68,0,0,1,2.49-.54q3,0,4.06,2.1a7.38,7.38,0,0,1,.58,3.28V227h-2.41v-8.9a4.86,4.86,0,0,0-.38-2.08,2.32,2.32,0,0,0-2.3-1.32,4.8,4.8,0,0,0-1.38.17,3.91,3.91,0,0,0-2.49,2.6,10.45,10.45,0,0,0-.17,2.13V227H99.73Z"/><path class="cls-1" d="M122.6,213.45a6.32,6.32,0,0,1,1.37,1.34V213h2.18v12.84a9.6,9.6,0,0,1-.78,4.25q-1.49,2.86-5.56,2.87a6.84,6.84,0,0,1-3.83-1,4,4,0,0,1-1.73-3.2h2.41a2.69,2.69,0,0,0,.68,1.47,3.52,3.52,0,0,0,2.52.79c1.81,0,3-.64,3.55-1.93a10.59,10.59,0,0,0,.46-4,4.61,4.61,0,0,1-1.7,1.6,6.09,6.09,0,0,1-6.64-1.1c-1.14-1.08-1.72-2.88-1.72-5.38a8.19,8.19,0,0,1,1.73-5.54,5.32,5.32,0,0,1,4.17-2A5.08,5.08,0,0,1,122.6,213.45Zm.29,2.54a3.45,3.45,0,0,0-2.74-1.26,3.38,3.38,0,0,0-3.41,2.34,9.11,9.11,0,0,0-.49,3.28,5.81,5.81,0,0,0,1,3.64,3.09,3.09,0,0,0,2.59,1.24,3.64,3.64,0,0,0,3.58-2.3,7.58,7.58,0,0,0,.58-3.05A5.88,5.88,0,0,0,122.89,216Z"/><path class="cls-1" d="M138.49,213.27a5.41,5.41,0,0,1,2.13,1.82,6.48,6.48,0,0,1,.95,2.5,16.31,16.31,0,0,1,.21,3.11H131.51a6.11,6.11,0,0,0,1,3.45,3.36,3.36,0,0,0,2.92,1.31,3.74,3.74,0,0,0,2.94-1.23,4.35,4.35,0,0,0,.88-1.66h2.33a4.94,4.94,0,0,1-.61,1.73,6.36,6.36,0,0,1-1.17,1.57,5.51,5.51,0,0,1-2.65,1.42,8.09,8.09,0,0,1-1.93.21,5.91,5.91,0,0,1-4.44-1.92,7.51,7.51,0,0,1-1.82-5.37,8.09,8.09,0,0,1,1.84-5.52,6,6,0,0,1,4.79-2.13A6.4,6.4,0,0,1,138.49,213.27Zm.85,5.54a6.17,6.17,0,0,0-.67-2.46,3.4,3.4,0,0,0-3.23-1.72,3.59,3.59,0,0,0-2.72,1.18,4.48,4.48,0,0,0-1.16,3Z"/><path class="cls-1" d="M144.85,212.88h2.25v2.44a5.42,5.42,0,0,1,1.36-1.73,3.49,3.49,0,0,1,2.49-1l.23,0,.54,0v2.5l-.39,0h-.39a3.4,3.4,0,0,0-2.76,1.15,4,4,0,0,0-1,2.66V227h-2.37Z"/><path class="cls-1" d="M33.14,255a3.49,3.49,0,0,0,.61,1.82,3.86,3.86,0,0,0,3.17,1.15,4.68,4.68,0,0,0,2.37-.58,1.9,1.9,0,0,0,1-1.77,1.51,1.51,0,0,0-.82-1.38,9.76,9.76,0,0,0-2.06-.68l-1.92-.47a9.52,9.52,0,0,1-2.71-1,3,3,0,0,1-1.55-2.67,4.07,4.07,0,0,1,1.46-3.24,5.89,5.89,0,0,1,3.94-1.24c2.15,0,3.71.62,4.66,1.87a4,4,0,0,1,.87,2.56H40a2.77,2.77,0,0,0-.58-1.46,3.79,3.79,0,0,0-2.91-.93,3.54,3.54,0,0,0-2.08.52,1.59,1.59,0,0,0-.71,1.35,1.66,1.66,0,0,0,.93,1.47,5.77,5.77,0,0,0,1.59.58l1.6.38a12.69,12.69,0,0,1,3.49,1.2,3.18,3.18,0,0,1,1.38,2.86,4.33,4.33,0,0,1-1.45,3.26,6.21,6.21,0,0,1-4.41,1.37c-2.12,0-3.63-.48-4.52-1.43A5.37,5.37,0,0,1,30.86,255Z"/><path class="cls-1" d="M55.46,246.69A7.11,7.11,0,0,1,57.34,252a9.19,9.19,0,0,1-1.65,5.63,5.94,5.94,0,0,1-5.12,2.23,5.79,5.79,0,0,1-4.6-2,7.82,7.82,0,0,1-1.7-5.29A8.46,8.46,0,0,1,46.06,247a6,6,0,0,1,4.82-2.11A6.31,6.31,0,0,1,55.46,246.69ZM54,256.07a8.93,8.93,0,0,0,.87-4,7.08,7.08,0,0,0-.63-3.21,3.51,3.51,0,0,0-3.41-1.95,3.35,3.35,0,0,0-3.13,1.66,7.78,7.78,0,0,0-1,4,6.81,6.81,0,0,0,1,3.76,3.42,3.42,0,0,0,3.1,1.5A3.23,3.23,0,0,0,54,256.07Z"/><path class="cls-1" d="M60.25,245.28H62.6v2a7.62,7.62,0,0,1,1.53-1.51,4.55,4.55,0,0,1,2.66-.81,4.19,4.19,0,0,1,2.71.83,4.47,4.47,0,0,1,1.06,1.4A4.93,4.93,0,0,1,74.82,245,3.91,3.91,0,0,1,78.69,247a6.71,6.71,0,0,1,.56,3v9.4H76.78v-9.81a2.29,2.29,0,0,0-.7-1.94,2.81,2.81,0,0,0-1.72-.52,3.42,3.42,0,0,0-2.41.93,4.14,4.14,0,0,0-1,3.13v8.21H68.53v-9.22a4.92,4.92,0,0,0-.34-2.09,2.1,2.1,0,0,0-2-1,3.51,3.51,0,0,0-2.45,1c-.73.69-1.1,2-1.1,3.77v7.49H60.25Z"/><path class="cls-1" d="M90,240h2.31v7a5.19,5.19,0,0,1,4.22-2.08,5.56,5.56,0,0,1,4.3,1.81,7.7,7.7,0,0,1,1.65,5.35,9.16,9.16,0,0,1-1.63,5.56,5.29,5.29,0,0,1-4.52,2.22,4.62,4.62,0,0,1-2.72-.78,6.77,6.77,0,0,1-1.42-1.48v1.81H90Zm9.08,16.25a7.49,7.49,0,0,0,1-4,6.57,6.57,0,0,0-1-3.69A3.16,3.16,0,0,0,96.29,247a4,4,0,0,0-2.85,1.2,5.41,5.41,0,0,0-1.22,4,8.83,8.83,0,0,0,.5,3.23,3.49,3.49,0,0,0,3.51,2.33A3.19,3.19,0,0,0,99.12,256.22Z"/><path class="cls-1" d="M105.32,240h2.38V259.4h-2.38Z"/><path class="cls-1" d="M111.26,240h2.41v2.69h-2.41Zm0,5.32h2.41v14h-2.41Z"/><path class="cls-1" d="M117.32,245.28h2.26v2.44a5.21,5.21,0,0,1,1.35-1.73,3.49,3.49,0,0,1,2.49-1l.23,0,.54.05v2.5l-.39-.05h-.39a3.38,3.38,0,0,0-2.75,1.15,4,4,0,0,0-1,2.66v8.12h-2.37Z"/><path class="cls-1" d="M48.48,278.11a6.46,6.46,0,0,1,1.43,1.39v-7.13h2.28V291.8H50.06v-2a5.11,5.11,0,0,1-2,1.89,5.52,5.52,0,0,1-2.59.58,5.25,5.25,0,0,1-4.07-2A7.84,7.84,0,0,1,39.72,285a9.2,9.2,0,0,1,1.57-5.35,5.13,5.13,0,0,1,4.49-2.26A5.06,5.06,0,0,1,48.48,278.11Zm-5.3,10.59a3.36,3.36,0,0,0,3.07,1.53,3.21,3.21,0,0,0,2.7-1.42A6.73,6.73,0,0,0,50,284.75a6.09,6.09,0,0,0-1.09-4,3.42,3.42,0,0,0-2.69-1.28,3.54,3.54,0,0,0-2.89,1.37,6.29,6.29,0,0,0-1.11,4A7.09,7.09,0,0,0,43.18,288.7Z"/><path class="cls-1" d="M64.57,277.68h2.62c-.33.91-1.08,3-2.23,6.2-.86,2.43-1.58,4.4-2.16,5.93a39.88,39.88,0,0,1-2.9,6.59,3.32,3.32,0,0,1-2.9,1.19,7,7,0,0,1-.77,0q-.27,0-.66-.15v-2.16c.41.11.71.18.89.21a3.1,3.1,0,0,0,.49,0,1.68,1.68,0,0,0,1-.22,2,2,0,0,0,.52-.53c0-.07.2-.43.47-1.08s.47-1.13.59-1.45l-5.22-14.53H57l3.79,11.5Z"/><path class="cls-1" d="M69.31,277.68h2.25v2.44a5.42,5.42,0,0,1,1.36-1.73,3.49,3.49,0,0,1,2.49-1l.22,0,.54.05v2.5l-.38-.05H75.4A3.38,3.38,0,0,0,72.64,281a4,4,0,0,0-1,2.66v8.12H69.31Z"/><path class="cls-1" d="M87,278.07a5.37,5.37,0,0,1,2.14,1.82,6.47,6.47,0,0,1,.94,2.5,16.31,16.31,0,0,1,.21,3.11H80A6.11,6.11,0,0,0,81,289a3.36,3.36,0,0,0,2.92,1.31A3.74,3.74,0,0,0,86.84,289a4.2,4.2,0,0,0,.87-1.66H90a4.75,4.75,0,0,1-.61,1.73,6.34,6.34,0,0,1-1.16,1.57,5.54,5.54,0,0,1-2.66,1.42,8,8,0,0,1-1.92.21,5.88,5.88,0,0,1-4.44-1.92A7.47,7.47,0,0,1,77.43,285a8.14,8.14,0,0,1,1.83-5.52,6,6,0,0,1,4.8-2.13A6.36,6.36,0,0,1,87,278.07Zm.85,5.54a6.18,6.18,0,0,0-.66-2.46,3.42,3.42,0,0,0-3.23-1.72,3.59,3.59,0,0,0-2.72,1.18,4.54,4.54,0,0,0-1.17,3Z"/><path class="cls-1" d="M93.31,277.68h2.26v2.44a5.27,5.27,0,0,1,1.36-1.73,3.49,3.49,0,0,1,2.49-1l.22,0,.54.05v2.5l-.39-.05H99.4A3.38,3.38,0,0,0,96.65,281a4,4,0,0,0-1,2.66v8.12H93.31Z"/><path class="cls-1" d="M111,278.07a5.44,5.44,0,0,1,2.14,1.82,6.47,6.47,0,0,1,.94,2.5,16.31,16.31,0,0,1,.21,3.11H104a6,6,0,0,0,1,3.45,3.34,3.34,0,0,0,2.91,1.31,3.78,3.78,0,0,0,2.95-1.23,4.2,4.2,0,0,0,.87-1.66h2.33a4.75,4.75,0,0,1-.61,1.73,6.6,6.6,0,0,1-1.16,1.57,5.54,5.54,0,0,1-2.66,1.42,8.06,8.06,0,0,1-1.92.21,5.88,5.88,0,0,1-4.44-1.92,7.47,7.47,0,0,1-1.83-5.37,8.14,8.14,0,0,1,1.84-5.52,6,6,0,0,1,4.79-2.13A6.37,6.37,0,0,1,111,278.07Zm.85,5.54a6.17,6.17,0,0,0-.67-2.46,3.4,3.4,0,0,0-3.23-1.72,3.57,3.57,0,0,0-2.71,1.18,4.49,4.49,0,0,0-1.17,3Z"/><path class="cls-1" d="M65.19,310.47a5.41,5.41,0,0,1,2.13,1.82,6.48,6.48,0,0,1,1,2.5,16.31,16.31,0,0,1,.21,3.11H58.21a6.09,6.09,0,0,0,1,3.46,3.38,3.38,0,0,0,2.92,1.3,3.74,3.74,0,0,0,2.94-1.23,4.2,4.2,0,0,0,.87-1.66h2.34a4.79,4.79,0,0,1-.62,1.73,6.1,6.1,0,0,1-1.16,1.57,5.51,5.51,0,0,1-2.65,1.42,8.09,8.09,0,0,1-1.93.21,5.91,5.91,0,0,1-4.44-1.92,7.51,7.51,0,0,1-1.82-5.37,8.09,8.09,0,0,1,1.84-5.52,6,6,0,0,1,4.79-2.13A6.4,6.4,0,0,1,65.19,310.47ZM66,316a6.17,6.17,0,0,0-.67-2.46,3.4,3.4,0,0,0-3.23-1.72A3.59,3.59,0,0,0,59.42,313a4.48,4.48,0,0,0-1.16,3Z"/><path class="cls-1" d="M71.48,310.08h2.26v2a6.28,6.28,0,0,1,2.12-1.78,5.68,5.68,0,0,1,2.49-.54c2,0,3.36.7,4.06,2.1a7.41,7.41,0,0,1,.58,3.28v9.06H80.58v-8.9a4.89,4.89,0,0,0-.38-2.08,2.33,2.33,0,0,0-2.3-1.32,4.8,4.8,0,0,0-1.38.17,3.85,3.85,0,0,0-2.49,2.6,9.66,9.66,0,0,0-.18,2.13v7.4H71.48Z"/><path class="cls-1" d="M86.5,310.08h2.25v2a6.48,6.48,0,0,1,2.12-1.78,5.69,5.69,0,0,1,2.5-.54q3,0,4.06,2.1a7.56,7.56,0,0,1,.58,3.28v9.06H95.59v-8.9a4.74,4.74,0,0,0-.38-2.08,2.31,2.31,0,0,0-2.29-1.32,4.87,4.87,0,0,0-1.39.17,3.86,3.86,0,0,0-2.48,2.6,9.66,9.66,0,0,0-.18,2.13v7.4H86.5Z"/><path class="cls-1" d="M27.74,342.55h2.32v1.87a5.89,5.89,0,0,1,1.56-1.49,5,5,0,0,1,2.83-.79A5.32,5.32,0,0,1,38.54,344a7.49,7.49,0,0,1,1.68,5.25c0,3.08-.81,5.27-2.43,6.59a5.44,5.44,0,0,1-3.57,1.25,4.93,4.93,0,0,1-2.69-.69A6.43,6.43,0,0,1,30.12,355v7.21H27.74Zm8.93,11.06a6.56,6.56,0,0,0,1.11-4.16,7.89,7.89,0,0,0-.49-2.9,3.6,3.6,0,0,0-6.78.14A9.84,9.84,0,0,0,30,350a7.26,7.26,0,0,0,.48,2.79,3.61,3.61,0,0,0,6.16.79Z"/><path class="cls-1" d="M43,337.23H45.4V356.6H43Z"/><path class="cls-1" d="M56.52,348.05a1.29,1.29,0,0,0,1.1-.68,2.18,2.18,0,0,0,.16-.91,2,2,0,0,0-.86-1.77,4.59,4.59,0,0,0-2.47-.55,3.11,3.11,0,0,0-2.63,1,3.33,3.33,0,0,0-.57,1.65H49a4.07,4.07,0,0,1,1.69-3.64,6.93,6.93,0,0,1,3.77-1,7.58,7.58,0,0,1,4,.95,3.2,3.2,0,0,1,1.54,3v8.13a1,1,0,0,0,.16.6c.1.15.31.22.64.22l.35,0,.42-.06v1.76a6.28,6.28,0,0,1-.84.19,5.54,5.54,0,0,1-.79,0,2,2,0,0,1-1.78-.87,3.21,3.21,0,0,1-.41-1.3,6.13,6.13,0,0,1-2.08,1.65,6.55,6.55,0,0,1-3,.69,4.43,4.43,0,0,1-3.21-1.19,4,4,0,0,1-1.24-3,3.85,3.85,0,0,1,1.22-3,5.87,5.87,0,0,1,3.22-1.33Zm-5,6.41a2.76,2.76,0,0,0,1.78.6,5.49,5.49,0,0,0,2.42-.58,3.26,3.26,0,0,0,2-3.15v-1.91a4.06,4.06,0,0,1-1.12.47,9.31,9.31,0,0,1-1.34.26l-1.43.18a5.53,5.53,0,0,0-1.94.55,2.07,2.07,0,0,0-1.1,2A1.93,1.93,0,0,0,51.53,354.46Z"/><path class="cls-1" d="M64,342.48h2.26v2a6.38,6.38,0,0,1,2.12-1.78,5.68,5.68,0,0,1,2.49-.54q3,0,4.06,2.1a7.38,7.38,0,0,1,.58,3.28v9.06H73.07v-8.9a4.86,4.86,0,0,0-.38-2.08,2.32,2.32,0,0,0-2.3-1.32,4.8,4.8,0,0,0-1.38.17,3.91,3.91,0,0,0-2.49,2.6,10.45,10.45,0,0,0-.17,2.13v7.4H64Z"/><path class="cls-1" d="M79.06,337.23h2.37V356.6H79.06Z"/><path class="cls-1" d="M92.56,348.05a1.28,1.28,0,0,0,1.09-.68,2.18,2.18,0,0,0,.16-.91,2,2,0,0,0-.86-1.77,4.59,4.59,0,0,0-2.47-.55,3.11,3.11,0,0,0-2.63,1,3.33,3.33,0,0,0-.57,1.65H85.07a4.07,4.07,0,0,1,1.69-3.64,6.93,6.93,0,0,1,3.77-1,7.58,7.58,0,0,1,4,.95,3.2,3.2,0,0,1,1.54,3v8.13a1.07,1.07,0,0,0,.16.6c.1.15.31.22.64.22l.35,0,.42-.06v1.76a6.28,6.28,0,0,1-.84.19,5.54,5.54,0,0,1-.79,0,2,2,0,0,1-1.78-.87,3.37,3.37,0,0,1-.41-1.3,6.13,6.13,0,0,1-2.08,1.65,6.55,6.55,0,0,1-3,.69,4.44,4.44,0,0,1-3.21-1.19,4,4,0,0,1-1.24-3,3.85,3.85,0,0,1,1.22-3,5.87,5.87,0,0,1,3.22-1.33Zm-5,6.41a2.76,2.76,0,0,0,1.78.6,5.49,5.49,0,0,0,2.42-.58,3.26,3.26,0,0,0,2-3.15v-1.91a4.06,4.06,0,0,1-1.12.47,9.31,9.31,0,0,1-1.34.26l-1.43.18a5.53,5.53,0,0,0-1.94.55,2.07,2.07,0,0,0-1.1,2A1.93,1.93,0,0,0,87.56,354.46Z"/><path class="cls-1" d="M107.85,343.05a6.11,6.11,0,0,1,1.37,1.34v-1.78h2.19v12.84a9.44,9.44,0,0,1-.79,4.25q-1.47,2.87-5.56,2.87a6.8,6.8,0,0,1-3.82-1,4,4,0,0,1-1.74-3.2h2.42a2.69,2.69,0,0,0,.68,1.47,3.48,3.48,0,0,0,2.51.79c1.81,0,3-.64,3.56-1.93a11,11,0,0,0,.46-4.05,4.59,4.59,0,0,1-1.71,1.61,6.09,6.09,0,0,1-6.64-1.1c-1.14-1.08-1.71-2.88-1.71-5.38a8.18,8.18,0,0,1,1.72-5.54,5.35,5.35,0,0,1,4.17-2A5.05,5.05,0,0,1,107.85,343.05Zm.29,2.54a3.43,3.43,0,0,0-2.74-1.26,3.38,3.38,0,0,0-3.41,2.34,9.38,9.38,0,0,0-.48,3.29,5.86,5.86,0,0,0,1,3.63,3.1,3.1,0,0,0,2.59,1.24,3.64,3.64,0,0,0,3.58-2.3,7.41,7.41,0,0,0,.58-3A5.9,5.9,0,0,0,108.14,345.59Z"/><path class="cls-1" d="M115.49,338.54h2.4v3.94h2.26v1.94h-2.26v9.21a1,1,0,0,0,.51,1,2,2,0,0,0,.92.15h.37c.13,0,.28,0,.46-.05v1.89a4.74,4.74,0,0,1-.85.17,7.24,7.24,0,0,1-1,.05,2.55,2.55,0,0,1-2.25-.85,3.72,3.72,0,0,1-.6-2.2v-9.35h-1.91v-1.94h1.91Z"/><path class="cls-1" d="M124.47,338.72a5.81,5.81,0,0,1,4.47-1.74,5.92,5.92,0,0,1,4.21,1.49,5,5,0,0,1,1.58,3.79,4,4,0,0,1-.57,2.26,17.86,17.86,0,0,1-2.35,2.56,7.45,7.45,0,0,0-1.69,2.08,6.23,6.23,0,0,0-.39,2.51h-2.34a8.77,8.77,0,0,1,.44-3,8.07,8.07,0,0,1,2-2.64l1.07-1a4.49,4.49,0,0,0,.79-.94,3.23,3.23,0,0,0,.55-1.78,3.37,3.37,0,0,0-.79-2.24,3.89,3.89,0,0,0-5.71.68,6.21,6.21,0,0,0-.56,2.63h-2.34A6.39,6.39,0,0,1,124.47,338.72Zm2.86,15.14H130v2.74h-2.63Z"/></svg>