<svg id="Layer_1" data-name="Layer 1" xmlns="http://www.w3.org/2000/svg" viewBox="0 0 160 600"><defs><style>.cls-1{fill:#010121;}</style></defs><title>text</title><path class="cls-1" d="M60.29,244.63h2.62v17.06h9.72V264H60.29Z"/><path class="cls-1" d="M75,244.63H77.4v2.69H75ZM75,250H77.4V264H75Z"/><path class="cls-1" d="M81.46,245.94h2.4v3.94h2.26v1.94H83.86V261a1,1,0,0,0,.5,1,2.12,2.12,0,0,0,.93.15h.37c.13,0,.28,0,.46-.05V264a4.92,4.92,0,0,1-.85.17,7.33,7.33,0,0,1-1,.05,2.55,2.55,0,0,1-2.25-.85,3.72,3.72,0,0,1-.6-2.2v-9.35H79.55v-1.94h1.91Z"/><path class="cls-1" d="M97.21,250.27a5.37,5.37,0,0,1,2.14,1.82,6.47,6.47,0,0,1,.94,2.5,16.31,16.31,0,0,1,.21,3.11H90.23a6.09,6.09,0,0,0,1,3.46,3.37,3.37,0,0,0,2.91,1.3,3.78,3.78,0,0,0,2.95-1.23,4.2,4.2,0,0,0,.87-1.66h2.33a4.75,4.75,0,0,1-.61,1.73,6.6,6.6,0,0,1-1.16,1.57,5.54,5.54,0,0,1-2.66,1.42,8.06,8.06,0,0,1-1.92.21,5.88,5.88,0,0,1-4.44-1.92,7.47,7.47,0,0,1-1.82-5.37,8.14,8.14,0,0,1,1.83-5.52,6,6,0,0,1,4.8-2.13A6.36,6.36,0,0,1,97.21,250.27Zm.85,5.54a6.17,6.17,0,0,0-.67-2.46,3.41,3.41,0,0,0-3.22-1.72,3.57,3.57,0,0,0-2.72,1.18,4.49,4.49,0,0,0-1.17,3Z"/><path class="cls-1" d="M11.56,278c.55-.81,1.62-1.21,3.2-1.21h.46l.54,0V279l-.54,0h-.31c-.73,0-1.16.19-1.31.56a11.21,11.21,0,0,0-.21,2.86h2.37v1.87H13.39V296.4H11V284.22h-2v-1.87h2v-2.22A4.26,4.26,0,0,1,11.56,278Z"/><path class="cls-1" d="M28.18,283.69A7.11,7.11,0,0,1,30.05,289a9.19,9.19,0,0,1-1.65,5.63,5.93,5.93,0,0,1-5.11,2.23,5.79,5.79,0,0,1-4.6-2,7.82,7.82,0,0,1-1.7-5.29A8.46,8.46,0,0,1,18.78,284a6,6,0,0,1,4.82-2.11A6.33,6.33,0,0,1,28.18,283.69Zm-1.47,9.38a8.93,8.93,0,0,0,.87-4,7.08,7.08,0,0,0-.63-3.21,3.52,3.52,0,0,0-3.42-1.95,3.34,3.34,0,0,0-3.12,1.66,7.68,7.68,0,0,0-1,4,6.7,6.7,0,0,0,1,3.76,3.42,3.42,0,0,0,3.1,1.5A3.24,3.24,0,0,0,26.71,293.07Z"/><path class="cls-1" d="M33,282.28h2.26v2.44A5.14,5.14,0,0,1,36.65,283a3.49,3.49,0,0,1,2.49-1l.22,0,.54,0v2.5l-.39,0h-.39a3.38,3.38,0,0,0-2.75,1.15,4,4,0,0,0-1,2.66v8.12H33Z"/><path class="cls-1" d="M44.33,282.28v9.37a4,4,0,0,0,.34,1.77A2.31,2.31,0,0,0,47,294.69a3.25,3.25,0,0,0,3.29-2.22,8.93,8.93,0,0,0,.48-3.26v-6.93H53.1V296.4H50.86l0-2.08a4.62,4.62,0,0,1-1.12,1.35,4.9,4.9,0,0,1-3.24,1.11c-2,0-3.32-.67-4-2a6.06,6.06,0,0,1-.58-2.88v-9.6Z"/><path class="cls-1" d="M57.45,278.34h2.4v3.94H62.1v1.94H59.85v9.21a1,1,0,0,0,.5,1,2,2,0,0,0,.92.15h.37a4.57,4.57,0,0,0,.46-.05v1.89a4.57,4.57,0,0,1-.85.17,7.08,7.08,0,0,1-1,.05,2.58,2.58,0,0,1-2.26-.85,3.79,3.79,0,0,1-.59-2.2v-9.35H55.54v-1.94h1.91Z"/><path class="cls-1" d="M65.89,292a3.41,3.41,0,0,0,.6,1.82,3.87,3.87,0,0,0,3.18,1.15,4.73,4.73,0,0,0,2.37-.58,1.89,1.89,0,0,0,1-1.77,1.49,1.49,0,0,0-.82-1.38,9.55,9.55,0,0,0-2.06-.68l-1.92-.47a9.44,9.44,0,0,1-2.7-1A3,3,0,0,1,64,286.39a4.07,4.07,0,0,1,1.46-3.24,5.89,5.89,0,0,1,3.94-1.24c2.15,0,3.71.63,4.66,1.87a4,4,0,0,1,.87,2.56H72.69a2.77,2.77,0,0,0-.58-1.46,3.78,3.78,0,0,0-2.9-.93,3.56,3.56,0,0,0-2.09.52,1.59,1.59,0,0,0-.71,1.35,1.66,1.66,0,0,0,.94,1.47,5.56,5.56,0,0,0,1.58.58l1.6.38a12.9,12.9,0,0,1,3.49,1.2,3.19,3.19,0,0,1,1.39,2.86A4.35,4.35,0,0,1,74,295.57a6.25,6.25,0,0,1-4.41,1.37c-2.13,0-3.64-.48-4.52-1.43A5.32,5.32,0,0,1,63.61,292Z"/><path class="cls-1" d="M78,277h2.41v2.69H78Zm0,5.32h2.41v14H78Z"/><path class="cls-1" d="M91.82,282.85a6.11,6.11,0,0,1,1.37,1.34v-1.78h2.19v12.84a9.44,9.44,0,0,1-.79,4.25q-1.47,2.87-5.56,2.87a6.8,6.8,0,0,1-3.82-1,4,4,0,0,1-1.74-3.2h2.42a2.69,2.69,0,0,0,.68,1.47,3.49,3.49,0,0,0,2.52.79c1.81,0,3-.64,3.55-1.93a11,11,0,0,0,.46-4,4.56,4.56,0,0,1-1.71,1.6,5.53,5.53,0,0,1-2.64.53,5.61,5.61,0,0,1-4-1.63c-1.14-1.08-1.71-2.88-1.71-5.38A8.14,8.14,0,0,1,84.77,284a5.32,5.32,0,0,1,4.17-2A5,5,0,0,1,91.82,282.85Zm.29,2.54a3.43,3.43,0,0,0-2.74-1.26A3.38,3.38,0,0,0,86,286.47a9.35,9.35,0,0,0-.48,3.28,5.87,5.87,0,0,0,1,3.64A3.1,3.1,0,0,0,89,294.63a3.64,3.64,0,0,0,3.58-2.3,7.41,7.41,0,0,0,.58-3.05A5.9,5.9,0,0,0,92.11,285.39Z"/><path class="cls-1" d="M98.79,277h2.31v7a5.19,5.19,0,0,1,4.22-2.08,5.56,5.56,0,0,1,4.3,1.81,7.7,7.7,0,0,1,1.64,5.35,9.16,9.16,0,0,1-1.62,5.56,5.29,5.29,0,0,1-4.52,2.22,4.62,4.62,0,0,1-2.72-.78,6.54,6.54,0,0,1-1.42-1.48v1.81H98.79Zm9.08,16.25a7.49,7.49,0,0,0,1-4,6.57,6.57,0,0,0-1-3.69A3.16,3.16,0,0,0,105,284a4,4,0,0,0-2.85,1.2,5.41,5.41,0,0,0-1.22,4,8.83,8.83,0,0,0,.5,3.23,3.49,3.49,0,0,0,3.51,2.33A3.19,3.19,0,0,0,107.87,293.22Z"/><path class="cls-1" d="M121.57,287.85a1.29,1.29,0,0,0,1.1-.68,2.18,2.18,0,0,0,.16-.91,1.94,1.94,0,0,0-.87-1.77,4.53,4.53,0,0,0-2.46-.55,3.11,3.11,0,0,0-2.63,1,3.33,3.33,0,0,0-.57,1.65h-2.21a4.07,4.07,0,0,1,1.69-3.64,6.93,6.93,0,0,1,3.77-1,7.58,7.58,0,0,1,4,.95,3.2,3.2,0,0,1,1.54,2.95V294a1,1,0,0,0,.16.6c.1.15.31.22.63.22l.36,0,.42-.06v1.76a6.28,6.28,0,0,1-.84.19,5.54,5.54,0,0,1-.79,0,2,2,0,0,1-1.78-.87,3.21,3.21,0,0,1-.41-1.3,6.13,6.13,0,0,1-2.08,1.65,6.55,6.55,0,0,1-3,.69,4.43,4.43,0,0,1-3.21-1.19,4,4,0,0,1-1.24-3,3.85,3.85,0,0,1,1.22-3,5.87,5.87,0,0,1,3.22-1.33Zm-5,6.42a2.81,2.81,0,0,0,1.78.59,5.49,5.49,0,0,0,2.42-.58,3.26,3.26,0,0,0,2-3.15v-1.91a4.06,4.06,0,0,1-1.12.47,9.31,9.31,0,0,1-1.34.26l-1.43.18a5.78,5.78,0,0,0-1.94.54,2.1,2.1,0,0,0-1.1,2A2,2,0,0,0,116.58,294.27Z"/><path class="cls-1" d="M129.09,282.28h2.25v2.44A5.42,5.42,0,0,1,132.7,283a3.49,3.49,0,0,1,2.49-1l.23,0,.54,0v2.5l-.39,0h-.39a3.4,3.4,0,0,0-2.76,1.15,4,4,0,0,0-1,2.66v8.12h-2.37Z"/><path class="cls-1" d="M146.74,282.67a5.35,5.35,0,0,1,2.13,1.83,6.21,6.21,0,0,1,.94,2.49,16.31,16.31,0,0,1,.21,3.11H139.75a6.11,6.11,0,0,0,1,3.45,3.36,3.36,0,0,0,2.92,1.31,3.74,3.74,0,0,0,2.94-1.23,4.2,4.2,0,0,0,.87-1.66h2.34a4.79,4.79,0,0,1-.62,1.73,6.1,6.1,0,0,1-1.16,1.57,5.51,5.51,0,0,1-2.65,1.42,8.09,8.09,0,0,1-1.93.21A5.91,5.91,0,0,1,139,295a7.51,7.51,0,0,1-1.82-5.37,8.14,8.14,0,0,1,1.83-5.52,6.05,6.05,0,0,1,4.8-2.13A6.4,6.4,0,0,1,146.74,282.67Zm.85,5.54a6.17,6.17,0,0,0-.67-2.46,3.41,3.41,0,0,0-3.23-1.72,3.59,3.59,0,0,0-2.72,1.18,4.48,4.48,0,0,0-1.16,3Z"/><path class="cls-1" d="M30.52,314.75h2.32v1.87a5.61,5.61,0,0,1,1.56-1.49,5,5,0,0,1,2.82-.79,5.32,5.32,0,0,1,4.09,1.84A7.49,7.49,0,0,1,43,321.43c0,3.08-.81,5.27-2.43,6.59A5.44,5.44,0,0,1,37,329.27a4.93,4.93,0,0,1-2.69-.69,6.43,6.43,0,0,1-1.41-1.36v7.21H30.52Zm8.92,11.06a6.56,6.56,0,0,0,1.11-4.16,7.89,7.89,0,0,0-.49-2.9,3.59,3.59,0,0,0-6.77.14,9.58,9.58,0,0,0-.49,3.34,7.07,7.07,0,0,0,.49,2.79,3.6,3.6,0,0,0,6.15.79Z"/><path class="cls-1" d="M45.79,314.68h2.26v2.44a5.27,5.27,0,0,1,1.36-1.73,3.49,3.49,0,0,1,2.49-1l.22,0,.54.05v2.5l-.39-.05h-.38A3.38,3.38,0,0,0,49.13,318a4,4,0,0,0-1,2.66v8.12H45.79Z"/><path class="cls-1" d="M65,316.09a7.11,7.11,0,0,1,1.87,5.35,9.19,9.19,0,0,1-1.65,5.63,5.93,5.93,0,0,1-5.12,2.23,5.77,5.77,0,0,1-4.59-2,7.77,7.77,0,0,1-1.7-5.29,8.46,8.46,0,0,1,1.79-5.66,6,6,0,0,1,4.82-2.11A6.33,6.33,0,0,1,65,316.09Zm-1.47,9.38a8.93,8.93,0,0,0,.86-4,7.12,7.12,0,0,0-.62-3.21,3.52,3.52,0,0,0-3.42-2A3.37,3.37,0,0,0,57.17,318a7.77,7.77,0,0,0-1,4,6.8,6.8,0,0,0,1,3.76,3.45,3.45,0,0,0,3.11,1.5A3.24,3.24,0,0,0,63.48,325.47Z"/><path class="cls-1" d="M71.15,324.37a3.41,3.41,0,0,0,.6,1.82,3.87,3.87,0,0,0,3.18,1.15,4.73,4.73,0,0,0,2.37-.58,1.89,1.89,0,0,0,1-1.77,1.49,1.49,0,0,0-.82-1.38,9.55,9.55,0,0,0-2.06-.68l-1.92-.47a9.44,9.44,0,0,1-2.7-1,3,3,0,0,1-1.56-2.67,4.07,4.07,0,0,1,1.46-3.24,5.89,5.89,0,0,1,3.94-1.24c2.15,0,3.71.62,4.66,1.87a4,4,0,0,1,.87,2.56H78a2.71,2.71,0,0,0-.58-1.45,3.78,3.78,0,0,0-2.9-.94,3.56,3.56,0,0,0-2.09.52,1.59,1.59,0,0,0-.71,1.35,1.66,1.66,0,0,0,.94,1.47,5.56,5.56,0,0,0,1.58.58l1.6.38a12.56,12.56,0,0,1,3.49,1.2,3.19,3.19,0,0,1,1.39,2.86A4.37,4.37,0,0,1,79.22,328a6.25,6.25,0,0,1-4.41,1.37c-2.13,0-3.64-.48-4.52-1.43a5.32,5.32,0,0,1-1.42-3.54Z"/><path class="cls-1" d="M81,332.37a4.66,4.66,0,0,0,1.91-.28q.33-.24.33-1.44v-15.9h2.37V330.9a4.29,4.29,0,0,1-.5,2.3A3.48,3.48,0,0,1,82,334.5l-.37,0-.59-.05Zm4.61-20.2H83.24v-2.74h2.37Z"/><path class="cls-1" d="M98,315.07a5.41,5.41,0,0,1,2.13,1.82,6.48,6.48,0,0,1,1,2.5,16.31,16.31,0,0,1,.21,3.11H91A6.09,6.09,0,0,0,92,326a3.38,3.38,0,0,0,2.92,1.3A3.74,3.74,0,0,0,97.84,326a4.2,4.2,0,0,0,.87-1.66h2.34a4.79,4.79,0,0,1-.62,1.73,6.1,6.1,0,0,1-1.16,1.57,5.51,5.51,0,0,1-2.65,1.42,8.09,8.09,0,0,1-1.93.21,5.91,5.91,0,0,1-4.44-1.92A7.51,7.51,0,0,1,88.43,322a8.09,8.09,0,0,1,1.84-5.52,6,6,0,0,1,4.79-2.13A6.4,6.4,0,0,1,98,315.07Zm.85,5.54a6.17,6.17,0,0,0-.67-2.46,3.41,3.41,0,0,0-3.23-1.72,3.59,3.59,0,0,0-2.72,1.18,4.48,4.48,0,0,0-1.16,3Z"/><path class="cls-1" d="M104.2,309.43h2.28v11.25l6.08-6h3l-5.43,5.25,5.73,8.87h-3l-4.44-7.19-2,1.89v5.3H104.2Z"/><path class="cls-1" d="M118.23,310.74h2.4v3.94h2.25v1.94h-2.25v9.21a1,1,0,0,0,.5,1,2,2,0,0,0,.92.15h.37c.13,0,.28,0,.46,0v1.89a4.74,4.74,0,0,1-.85.17,7.24,7.24,0,0,1-1,0,2.56,2.56,0,0,1-2.25-.85,3.73,3.73,0,0,1-.59-2.21v-9.34h-1.92v-1.94h1.92Z"/><path class="cls-1" d="M127.2,310.92a5.81,5.81,0,0,1,4.47-1.74,5.92,5.92,0,0,1,4.21,1.49,5,5,0,0,1,1.58,3.79,4,4,0,0,1-.57,2.26,17.86,17.86,0,0,1-2.35,2.56,7.45,7.45,0,0,0-1.69,2.08,6.23,6.23,0,0,0-.39,2.51h-2.34a8.51,8.51,0,0,1,.45-3,7.88,7.88,0,0,1,2-2.64l1.08-1a4.74,4.74,0,0,0,.78-.94,3.23,3.23,0,0,0,.55-1.78,3.37,3.37,0,0,0-.79-2.24,3.89,3.89,0,0,0-5.71.68,6.07,6.07,0,0,0-.55,2.63h-2.35A6.39,6.39,0,0,1,127.2,310.92Zm2.86,15.14h2.63v2.74h-2.63Z"/></svg>