<svg id="Layer_1" data-name="Layer 1" xmlns="http://www.w3.org/2000/svg" viewBox="0 0 160 600"><defs><style>.cls-1{fill:#fff;}</style></defs><title>text</title><path class="cls-1" d="M49.25,210.66H46.66v-9.84H37.08v9.84H34.49V190h2.59v8.55h9.58V190h2.59Z"/><path class="cls-1" d="M64.3,206.11l2.21.45a6.22,6.22,0,0,1-2.36,3.24A6.8,6.8,0,0,1,60,211.09a6.45,6.45,0,0,1-5.07-2.21A8.43,8.43,0,0,1,53,203.1a8.53,8.53,0,0,1,2-5.9A6.5,6.5,0,0,1,60.08,195,6.13,6.13,0,0,1,64.9,197c1.21,1.39,1.84,3.46,1.87,6.21H55.66q0,3.47,1.45,4.68a4.71,4.71,0,0,0,3.07,1.21A4.21,4.21,0,0,0,64.3,206.11Zm-.14-4.65a6.72,6.72,0,0,0-.42-2.29,4,4,0,0,0-1.33-1.7,3.66,3.66,0,0,0-2.26-.7,4,4,0,0,0-3,1.27,5.23,5.23,0,0,0-1.39,3.42Z"/><path class="cls-1" d="M82.39,210.66H80.16v-9.82a4,4,0,0,0-.92-3A3.15,3.15,0,0,0,77,197a3.85,3.85,0,0,0-3,1.46,5.72,5.72,0,0,0-1.24,3.83v8.38H70.34V195.37h2.21v2.82Q74.41,195,77.38,195a4.77,4.77,0,0,1,2.91.89,4.71,4.71,0,0,1,1.65,2,12,12,0,0,1,.45,4Z"/><path class="cls-1" d="M99.63,193v1.9a4.33,4.33,0,0,0-2.19.37,2,2,0,0,0-.73,1.37,5.56,5.56,0,0,1,1.46,3.69,4.77,4.77,0,0,1-1.59,3.59,6,6,0,0,1-4.29,1.5,5.19,5.19,0,0,1-1.05-.1,7.25,7.25,0,0,0-1-.16,1.82,1.82,0,0,0-1,.4,1.22,1.22,0,0,0-.57,1,1.14,1.14,0,0,0,.83,1.18,18.38,18.38,0,0,0,3.92.34,22.79,22.79,0,0,1,3.87.36,4,4,0,0,1,2.11,1.24,3.38,3.38,0,0,1,.86,2.36q0,4.37-7.69,4.37a10,10,0,0,1-5.32-1.1,3.37,3.37,0,0,1-1.67-2.93,3.07,3.07,0,0,1,2.33-3.06,2.9,2.9,0,0,1-1.5-2.47,3,3,0,0,1,2.12-2.71,5,5,0,0,1-2-4,4.68,4.68,0,0,1,1.69-3.72A6.18,6.18,0,0,1,92.35,195a7.43,7.43,0,0,1,3.13.65,2.9,2.9,0,0,1,1-2.07A4.37,4.37,0,0,1,99,193ZM89.52,210a2.32,2.32,0,0,0-1.67,2.11,2,2,0,0,0,1.37,1.8,8.2,8.2,0,0,0,3.49.65,11.42,11.42,0,0,0,3.6-.55c1.09-.37,1.64-1,1.64-1.87a1.5,1.5,0,0,0-.49-1.17,2.36,2.36,0,0,0-1.32-.57,26.53,26.53,0,0,0-2.93-.19Q90.71,210.19,89.52,210Zm2.84-6.46a3.4,3.4,0,0,0,2.47-.93,3.57,3.57,0,0,0,0-4.89,3.32,3.32,0,0,0-2.4-1,3.56,3.56,0,0,0-2.39.9,3.18,3.18,0,0,0-1,2.56,3.22,3.22,0,0,0,.93,2.4A3.4,3.4,0,0,0,92.36,203.58Z"/><path class="cls-1" d="M112.46,206.11l2.21.45a6.16,6.16,0,0,1-2.36,3.24,6.79,6.79,0,0,1-4.13,1.29,6.43,6.43,0,0,1-5.07-2.21,8.43,8.43,0,0,1-1.94-5.78,8.53,8.53,0,0,1,2-5.9,6.52,6.52,0,0,1,5.06-2.25,6.1,6.1,0,0,1,4.82,2.07q1.83,2.08,1.87,6.21H103.82q0,3.47,1.45,4.68a4.74,4.74,0,0,0,3.08,1.21A4.2,4.2,0,0,0,112.46,206.11Zm-.13-4.65a6.49,6.49,0,0,0-.43-2.29,3.88,3.88,0,0,0-1.33-1.7,3.63,3.63,0,0,0-2.25-.7,4,4,0,0,0-3,1.27,5.28,5.28,0,0,0-1.38,3.42Z"/><path class="cls-1" d="M120.88,210.66H118.5V195.37h2.09V199a7.7,7.7,0,0,1,2.22-3.28,4,4,0,0,1,2.28-.75c.24,0,.55,0,.94.06v2.27h-.49a4.19,4.19,0,0,0-3.27,1.47,6,6,0,0,0-1.39,3.86Z"/><path class="cls-1" d="M24.89,227.2v2.65H22.33V227.2Zm-.08,5.37v15.29H22.44V232.57Z"/><path class="cls-1" d="M42.18,247.86H39.71l-4.47-8.53-3.31,3.81v4.72H29.55V227.2h2.38v13.25l7.1-7.88h2.54l-4.78,5.37Z"/><path class="cls-1" d="M57.71,247.86H55.24l-4.47-8.53-3.31,3.81v4.72H45.08V227.2h2.38v13.25l7.1-7.88H57.1l-4.77,5.37Z"/><path class="cls-1" d="M70,243.31l2.21.45A6.22,6.22,0,0,1,69.88,247a6.8,6.8,0,0,1-4.14,1.29,6.44,6.44,0,0,1-5.07-2.21,8.43,8.43,0,0,1-1.93-5.78,8.53,8.53,0,0,1,2-5.9,6.5,6.5,0,0,1,5-2.25,6.13,6.13,0,0,1,4.83,2.07q1.82,2.09,1.87,6.21H61.38q0,3.47,1.46,4.68a4.71,4.71,0,0,0,3.07,1.21A4.21,4.21,0,0,0,70,243.31Zm-.14-4.65a6.72,6.72,0,0,0-.42-2.29,4,4,0,0,0-1.33-1.7,3.66,3.66,0,0,0-2.26-.7,4,4,0,0,0-3,1.27,5.23,5.23,0,0,0-1.39,3.42Z"/><path class="cls-1" d="M95.76,227.2v20.66H93.61v-2.62a5.17,5.17,0,0,1-4.83,3A5.36,5.36,0,0,1,84.36,246a9.09,9.09,0,0,1-1.72-5.69,9.66,9.66,0,0,1,1.71-5.86,5.35,5.35,0,0,1,4.54-2.34,5.27,5.27,0,0,1,4.49,2.51V227.2Zm-2.38,11.28a4.34,4.34,0,0,0-1.22-3.23A4,4,0,0,0,89.3,234a3.49,3.49,0,0,0-2.92,1.58A7.43,7.43,0,0,0,85.24,240a8.52,8.52,0,0,0,1.05,4.67,3.28,3.28,0,0,0,2.89,1.61,3.89,3.89,0,0,0,2.93-1.39,4.69,4.69,0,0,0,1.27-3.27Z"/><path class="cls-1" d="M103,227.2v2.65h-2.56V227.2Zm-.08,5.37v15.29h-2.38V232.57Z"/><path class="cls-1" d="M119.68,247.86h-2.23V238a4,4,0,0,0-.92-3,3.15,3.15,0,0,0-2.24-.87,3.85,3.85,0,0,0-3.05,1.46,5.72,5.72,0,0,0-1.24,3.83v8.38h-2.37V232.57h2.21v2.82q1.86-3.24,4.83-3.24a4.77,4.77,0,0,1,2.91.89,4.71,4.71,0,0,1,1.65,2,12,12,0,0,1,.45,4Z"/><path class="cls-1" d="M134.53,243.31l2.21.45a6.23,6.23,0,0,1-2.37,3.24,6.77,6.77,0,0,1-4.13,1.29,6.43,6.43,0,0,1-5.07-2.21,9.6,9.6,0,0,1,.08-11.68,6.48,6.48,0,0,1,5.05-2.25,6.1,6.1,0,0,1,4.82,2.07q1.83,2.09,1.87,6.21H125.88q0,3.47,1.46,4.68a4.69,4.69,0,0,0,3.07,1.21A4.21,4.21,0,0,0,134.53,243.31Zm-.14-4.65a6.72,6.72,0,0,0-.42-2.29,4,4,0,0,0-1.34-1.7,3.61,3.61,0,0,0-2.25-.7,4,4,0,0,0-3,1.27,5.28,5.28,0,0,0-1.38,3.42Z"/><path class="cls-1" d="M45.77,264.4v20.66H43.62v-2.62a5.17,5.17,0,0,1-4.83,3.05,5.33,5.33,0,0,1-4.41-2.25,9,9,0,0,1-1.73-5.69,9.66,9.66,0,0,1,1.71-5.86,5.35,5.35,0,0,1,4.54-2.34,5.26,5.26,0,0,1,4.49,2.51V264.4Zm-2.38,11.28a4.34,4.34,0,0,0-1.22-3.23,4,4,0,0,0-2.86-1.21,3.49,3.49,0,0,0-2.92,1.58,7.43,7.43,0,0,0-1.14,4.42,8.54,8.54,0,0,0,1,4.67,3.29,3.29,0,0,0,2.89,1.61,3.88,3.88,0,0,0,2.93-1.39,4.69,4.69,0,0,0,1.27-3.27Z"/><path class="cls-1" d="M53,264.4v2.65H50.42V264.4Zm-.08,5.37v15.29H50.52V269.77Z"/><path class="cls-1" d="M70.13,267.38v1.89a4.31,4.31,0,0,0-2.19.38A2.06,2.06,0,0,0,67.2,271a5.52,5.52,0,0,1,1.47,3.69,4.77,4.77,0,0,1-1.59,3.59,6,6,0,0,1-4.3,1.49,5.23,5.23,0,0,1-1-.09,7.25,7.25,0,0,0-1-.16,1.82,1.82,0,0,0-1,.4,1.22,1.22,0,0,0-.57,1,1.13,1.13,0,0,0,.83,1.18,18.3,18.3,0,0,0,3.92.34,22.9,22.9,0,0,1,3.87.36,4,4,0,0,1,2.11,1.24,3.43,3.43,0,0,1,.86,2.36q0,4.37-7.69,4.37a10,10,0,0,1-5.32-1.1,3.37,3.37,0,0,1-1.67-2.93,3.07,3.07,0,0,1,2.33-3.06,2.9,2.9,0,0,1-1.5-2.47A3,3,0,0,1,59,278.56a5,5,0,0,1-2-4,4.68,4.68,0,0,1,1.69-3.72,6.13,6.13,0,0,1,4.14-1.45A7.43,7.43,0,0,1,66,270a2.9,2.9,0,0,1,1-2.07,4.37,4.37,0,0,1,2.51-.58ZM60,284.44a2.31,2.31,0,0,0-1.66,2.11,2,2,0,0,0,1.37,1.8,8.2,8.2,0,0,0,3.49.65,11.42,11.42,0,0,0,3.6-.55c1.09-.37,1.64-1,1.64-1.87a1.54,1.54,0,0,0-.49-1.17,2.36,2.36,0,0,0-1.32-.57,26.53,26.53,0,0,0-2.93-.19C62,284.61,60.81,284.54,60,284.44ZM62.86,278a3.4,3.4,0,0,0,2.47-.93,3.57,3.57,0,0,0,0-4.89,3.32,3.32,0,0,0-2.4-1,3.56,3.56,0,0,0-2.39.9,3.18,3.18,0,0,0-1,2.56,3.22,3.22,0,0,0,.94,2.4A3.4,3.4,0,0,0,62.86,278Z"/><path class="cls-1" d="M75.32,264.4v2.65H72.76V264.4Zm-.08,5.37v15.29H72.87V269.77Z"/><path class="cls-1" d="M86.91,283.44v1.88a17.13,17.13,0,0,1-2.18.17q-4.42,0-4.43-4.64v-9.21H77.59v-1.87H80.3l.1-3.84,2.21-.21v4H86v1.87H82.61v9.61c0,1.57.82,2.36,2.46,2.36A11.75,11.75,0,0,0,86.91,283.44Z"/><path class="cls-1" d="M101.47,285.06H99.13c-.09-.48-.18-1.4-.27-2.75a5.51,5.51,0,0,1-5.36,3.18,5.36,5.36,0,0,1-4-1.37,4.44,4.44,0,0,1-1.38-3.27,4.59,4.59,0,0,1,2-3.82q2-1.48,6.69-1.49c.42,0,1.1,0,2,.06a9,9,0,0,0-.28-2.62,2.38,2.38,0,0,0-1.19-1.3A5.15,5.15,0,0,0,95,271.2q-3.63,0-4.21,2.75l-2.2-.38q.81-4.21,6.75-4.22c2.11,0,3.61.47,4.49,1.4s1.33,2.55,1.33,4.85v6.5A13,13,0,0,0,101.47,285.06Zm-2.61-7.64c-1-.06-1.71-.09-2.21-.09a8.71,8.71,0,0,0-4.38.92,3,3,0,0,0-1.56,2.7,2.55,2.55,0,0,0,.84,1.92,3.45,3.45,0,0,0,2.43.78,4.54,4.54,0,0,0,3.54-1.56,5.35,5.35,0,0,0,1.38-3.67C98.9,278.14,98.89,277.8,98.86,277.42Z"/><path class="cls-1" d="M108.29,285.06h-2.38V264.4h2.38Z"/><path class="cls-1" d="M123.13,280.51l2.21.45A6.16,6.16,0,0,1,123,284.2a6.77,6.77,0,0,1-4.13,1.29,6.43,6.43,0,0,1-5.07-2.21,9.6,9.6,0,0,1,.08-11.68,6.48,6.48,0,0,1,5-2.25,6.1,6.1,0,0,1,4.82,2.07q1.83,2.08,1.87,6.21H114.49c0,2.31.49,3.87,1.45,4.68a4.74,4.74,0,0,0,3.08,1.21A4.2,4.2,0,0,0,123.13,280.51Zm-.13-4.65a6.49,6.49,0,0,0-.43-2.29,3.88,3.88,0,0,0-1.33-1.7,3.61,3.61,0,0,0-2.25-.7,4,4,0,0,0-3,1.27,5.28,5.28,0,0,0-1.38,3.42Z"/><path class="cls-1" d="M45,322.26H42.48L38,313.73l-3.31,3.81v4.72H32.32V301.6H34.7v13.25L41.8,307h2.54l-4.78,5.37Z"/><path class="cls-1" d="M59.57,322.26H57.22c-.09-.48-.18-1.4-.27-2.75a5.51,5.51,0,0,1-5.36,3.18,5.39,5.39,0,0,1-4-1.37,4.44,4.44,0,0,1-1.38-3.27,4.58,4.58,0,0,1,2-3.81q2-1.5,6.69-1.5c.43,0,1.1,0,2,.06a8.65,8.65,0,0,0-.28-2.62,2.37,2.37,0,0,0-1.19-1.3,5.1,5.1,0,0,0-2.39-.48q-3.62,0-4.21,2.75l-2.19-.38q.8-4.22,6.75-4.22c2.11,0,3.6.47,4.49,1.4s1.32,2.55,1.32,4.85v6.5A13,13,0,0,0,59.57,322.26ZM57,314.62c-1-.06-1.71-.09-2.21-.09a8.64,8.64,0,0,0-4.37.92,3,3,0,0,0-1.56,2.7,2.55,2.55,0,0,0,.84,1.92,3.45,3.45,0,0,0,2.43.78,4.51,4.51,0,0,0,3.53-1.56A5.36,5.36,0,0,0,57,315.62C57,315.34,57,315,57,314.62Z"/><path class="cls-1" d="M76.05,322.26H73.83v-9.82a3.94,3.94,0,0,0-.93-3,3.13,3.13,0,0,0-2.24-.87,3.86,3.86,0,0,0-3,1.46,5.72,5.72,0,0,0-1.23,3.83v8.38H64V307h2.21v2.82q1.86-3.24,4.83-3.24a4.82,4.82,0,0,1,2.92.89,4.71,4.71,0,0,1,1.65,2,12.32,12.32,0,0,1,.44,4Z"/><path class="cls-1" d="M92.76,322.26H90.42c-.09-.48-.18-1.4-.28-2.75a5.5,5.5,0,0,1-5.35,3.18,5.36,5.36,0,0,1-4-1.37,4.44,4.44,0,0,1-1.38-3.27,4.56,4.56,0,0,1,2-3.81q2-1.5,6.69-1.5c.42,0,1.1,0,2,.06a8.65,8.65,0,0,0-.28-2.62,2.35,2.35,0,0,0-1.18-1.3,5.17,5.17,0,0,0-2.4-.48q-3.61,0-4.2,2.75l-2.2-.38q.81-4.22,6.75-4.22c2.11,0,3.61.47,4.49,1.4s1.33,2.55,1.33,4.85v6.5A13,13,0,0,0,92.76,322.26Zm-2.62-7.64c-1-.06-1.7-.09-2.21-.09a8.69,8.69,0,0,0-4.37.92,3,3,0,0,0-1.56,2.7,2.55,2.55,0,0,0,.84,1.92,3.45,3.45,0,0,0,2.43.78,4.51,4.51,0,0,0,3.53-1.56,5.32,5.32,0,0,0,1.39-3.67C90.19,315.34,90.17,315,90.14,314.62Z"/><path class="cls-1" d="M99.57,322.26H97.2V301.6h2.37Z"/><path class="cls-1" d="M114.42,317.71l2.21.45a6.16,6.16,0,0,1-2.36,3.24,6.79,6.79,0,0,1-4.13,1.29,6.43,6.43,0,0,1-5.07-2.21,9.6,9.6,0,0,1,.08-11.68,6.48,6.48,0,0,1,5-2.25,6.1,6.1,0,0,1,4.82,2.07q1.83,2.08,1.87,6.21H105.78c0,2.31.49,3.87,1.45,4.68a4.74,4.74,0,0,0,3.08,1.21A4.2,4.2,0,0,0,114.42,317.71Zm-.13-4.65a6.49,6.49,0,0,0-.43-2.29,3.88,3.88,0,0,0-1.33-1.7,3.63,3.63,0,0,0-2.25-.7,4,4,0,0,0-3,1.27,5.28,5.28,0,0,0-1.38,3.42Z"/><path class="cls-1" d="M122.84,322.26h-2.38V307h2.09v3.58a7.7,7.7,0,0,1,2.22-3.28,4,4,0,0,1,2.28-.75c.24,0,.55,0,.94.06v2.27h-.49a4.19,4.19,0,0,0-3.27,1.47,5.94,5.94,0,0,0-1.39,3.86Z"/><path class="cls-1" d="M65.52,359.46H63.2V350a9.24,9.24,0,0,0-.2-2.21,2.71,2.71,0,0,0-1-1.34,2.84,2.84,0,0,0-1.78-.62A3.75,3.75,0,0,0,57.61,347a5.17,5.17,0,0,0-1.27,3.81v8.61H54V349.4a3.61,3.61,0,0,0-1-2.85,3.06,3.06,0,0,0-2-.83,3.35,3.35,0,0,0-2.63,1.3,4.87,4.87,0,0,0-1.12,3.3v9.14H45V344.17h2v2.94q1.71-3.36,4.71-3.36a4,4,0,0,1,2.8,1.08,4.93,4.93,0,0,1,1.48,2.58q1.57-3.66,4.83-3.66a4.4,4.4,0,0,1,2.73.89,4.15,4.15,0,0,1,1.53,2.06,11.45,11.45,0,0,1,.36,3.26Z"/><path class="cls-1" d="M80.37,354.91l2.21.45a6.18,6.18,0,0,1-2.37,3.24,6.77,6.77,0,0,1-4.13,1.29A6.43,6.43,0,0,1,71,357.68a8.43,8.43,0,0,1-1.94-5.78,8.53,8.53,0,0,1,2-5.9,6.48,6.48,0,0,1,5-2.25A6.1,6.1,0,0,1,81,345.82q1.83,2.08,1.87,6.21H71.72q0,3.47,1.46,4.68a4.71,4.71,0,0,0,3.07,1.21A4.2,4.2,0,0,0,80.37,354.91Zm-.14-4.65a6.72,6.72,0,0,0-.42-2.29,4,4,0,0,0-1.34-1.7,3.61,3.61,0,0,0-2.25-.7,4,4,0,0,0-3,1.27,5.28,5.28,0,0,0-1.38,3.42Z"/><path class="cls-1" d="M98.35,338.8v20.66H96.2v-2.62a5.18,5.18,0,0,1-4.84,3.05A5.34,5.34,0,0,1,87,357.64,9.09,9.09,0,0,1,85.23,352a9.6,9.6,0,0,1,1.71-5.86,5.35,5.35,0,0,1,4.54-2.34A5.27,5.27,0,0,1,96,346.26V338.8ZM96,350.08a4.37,4.37,0,0,0-1.22-3.23,4,4,0,0,0-2.86-1.21A3.47,3.47,0,0,0,89,347.22a7.43,7.43,0,0,0-1.14,4.42,8.52,8.52,0,0,0,1,4.67,3.28,3.28,0,0,0,2.88,1.61,3.88,3.88,0,0,0,2.94-1.39A4.69,4.69,0,0,0,96,353.26Z"/><path class="cls-1" d="M113.3,338.8v2.65h-2.55V338.8Zm-.07,5.37v15.29h-2.38V344.17Z"/><path class="cls-1" d="M51.33,395v1.88a17,17,0,0,1-2.18.17q-4.42,0-4.43-4.64v-9.21H42v-1.86h2.71l.11-3.85,2.21-.21v4.06h3.42v1.86H47v9.61c0,1.57.81,2.36,2.45,2.36A11.75,11.75,0,0,0,51.33,395Z"/><path class="cls-1" d="M56.39,376v2.65H53.83V376Zm-.08,5.38v15.28H53.94V381.38Z"/><path class="cls-1" d="M73,376v20.66H70.85V394a5.2,5.2,0,0,1-4.84,3,5.33,5.33,0,0,1-4.41-2.25,9.09,9.09,0,0,1-1.73-5.69,9.66,9.66,0,0,1,1.71-5.86A5.36,5.36,0,0,1,66.12,381a5.28,5.28,0,0,1,4.5,2.51V376Zm-2.37,11.28a4.34,4.34,0,0,0-1.23-3.23,4,4,0,0,0-2.86-1.21,3.46,3.46,0,0,0-2.91,1.58,7.43,7.43,0,0,0-1.15,4.42,8.51,8.51,0,0,0,1.06,4.67,3.28,3.28,0,0,0,2.88,1.61,3.88,3.88,0,0,0,2.94-1.39,4.73,4.73,0,0,0,1.27-3.27Z"/><path class="cls-1" d="M87.84,392.11l2.21.45a6.16,6.16,0,0,1-2.36,3.24,6.79,6.79,0,0,1-4.13,1.29,6.43,6.43,0,0,1-5.07-2.21,8.43,8.43,0,0,1-1.94-5.78,8.53,8.53,0,0,1,2-5.9A6.52,6.52,0,0,1,83.62,381,6.1,6.1,0,0,1,88.44,383q1.83,2.09,1.87,6.21H79.2c0,2.31.49,3.87,1.45,4.68a4.74,4.74,0,0,0,3.08,1.21A4.19,4.19,0,0,0,87.84,392.11Zm-.13-4.65a6.49,6.49,0,0,0-.43-2.29,3.88,3.88,0,0,0-1.33-1.7,3.63,3.63,0,0,0-2.25-.7,4,4,0,0,0-3,1.27,5.28,5.28,0,0,0-1.38,3.42Z"/><path class="cls-1" d="M105.93,396.66h-2.22v-9.82a3.94,3.94,0,0,0-.93-3,3.13,3.13,0,0,0-2.24-.86,3.85,3.85,0,0,0-3.05,1.45,5.72,5.72,0,0,0-1.23,3.83v8.38H93.88V381.38h2.21v2.81q1.86-3.24,4.83-3.24a4.82,4.82,0,0,1,2.92.89,4.71,4.71,0,0,1,1.65,2,12.32,12.32,0,0,1,.44,4Z"/><path class="cls-1" d="M116.44,391.52h-2.18c0-1.58,0-2.56.07-2.95a3.36,3.36,0,0,1,.32-1.16,3.13,3.13,0,0,1,.61-.91,10,10,0,0,1,1.62-1,14.34,14.34,0,0,0,1.9-1.2,3.7,3.7,0,0,0,.9-1.2,3.6,3.6,0,0,0,.39-1.67,3.27,3.27,0,0,0-1.25-2.71,4.57,4.57,0,0,0-2.94-1c-2.57,0-4.13,1.49-4.7,4.46l-2.25-.48q1.14-6.1,7.07-6.1a7.05,7.05,0,0,1,4.89,1.66,5.41,5.41,0,0,1,1.86,4.24q0,3.38-3.88,5.39a6.85,6.85,0,0,0-2.07,1.4,2.66,2.66,0,0,0-.38,1.58Zm.51,2.16v3h-3.06v-3Z"/></svg>