<svg xmlns="http://www.w3.org/2000/svg" viewBox="0 0 140.82 18.99"><defs><style>.cls-1{fill:#fff;}</style></defs><title>Asset 9text</title><g id="Layer_2" data-name="Layer 2"><g id="Layer_1-2" data-name="Layer 1"><path class="cls-1" d="M15.48,21.39H14L3.76,6.18V21.39H2.25V3.61H3.76L14,18.84V3.61h1.49Z" transform="translate(-2.25 -2.64)"/><path class="cls-1" d="M18.85,14.59a7.64,7.64,0,0,1,.74-3.43,5.62,5.62,0,0,1,2.08-2.38,5.68,5.68,0,0,1,3.06-.85A5.43,5.43,0,0,1,29,9.78a7.16,7.16,0,0,1,1.64,4.91V15a7.87,7.87,0,0,1-.74,3.45,5.51,5.51,0,0,1-2.08,2.36,5.75,5.75,0,0,1-3.06.83,5.45,5.45,0,0,1-4.27-1.85,7.07,7.07,0,0,1-1.64-4.9Zm1.46.4a6,6,0,0,0,1.23,3.89,4.15,4.15,0,0,0,6.42,0,6.17,6.17,0,0,0,1.23-4v-.28a6.79,6.79,0,0,0-.56-2.77,4.53,4.53,0,0,0-1.58-2,4,4,0,0,0-2.32-.69,3.93,3.93,0,0,0-3.19,1.53,6.21,6.21,0,0,0-1.23,4Z" transform="translate(-2.25 -2.64)"/><path class="cls-1" d="M38.77,21.63a5.79,5.79,0,0,1-3.05-.83,5.62,5.62,0,0,1-2.11-2.31,7.16,7.16,0,0,1-.76-3.33v-.52a7.64,7.64,0,0,1,.74-3.43,5.88,5.88,0,0,1,2-2.4,5.12,5.12,0,0,1,2.86-.88,4.77,4.77,0,0,1,3.82,1.65,6.7,6.7,0,0,1,1.41,4.48v.82H34.3v.28a5.5,5.5,0,0,0,1.29,3.74,4.09,4.09,0,0,0,3.24,1.5A4.7,4.7,0,0,0,40.9,20a4.51,4.51,0,0,0,1.63-1.37l.91.7A5.33,5.33,0,0,1,38.77,21.63ZM38.5,9.18a3.65,3.65,0,0,0-2.78,1.21,5.57,5.57,0,0,0-1.37,3.25h7.92v-.16a4.84,4.84,0,0,0-1.08-3.1A3.38,3.38,0,0,0,38.5,9.18Z" transform="translate(-2.25 -2.64)"/><path class="cls-1" d="M48,8.18l0,2.26a5.18,5.18,0,0,1,1.86-1.86,4.77,4.77,0,0,1,2.45-.65,3.94,3.94,0,0,1,3.16,1.2,5.43,5.43,0,0,1,1.05,3.59v8.67H55.08V12.71a4.07,4.07,0,0,0-.75-2.64A3,3,0,0,0,52,9.2a3.7,3.7,0,0,0-2.39.85A5,5,0,0,0,48,12.34v9.05H46.57V8.18Z" transform="translate(-2.25 -2.64)"/><path class="cls-1" d="M69.52,14.73l-1.67,1.62v5H66.38V2.64h1.47v12l1.38-1.49,5-5h1.84l-5.6,5.57,6.09,7.64H74.87Z" transform="translate(-2.25 -2.64)"/><path class="cls-1" d="M87.12,19.71a4.74,4.74,0,0,1-4.21,1.92A4.07,4.07,0,0,1,79.7,20.4a5.32,5.32,0,0,1-1.12-3.63V8.18H80v8.41q0,3.77,3,3.77t4-2.62V8.18h1.46V21.39H87.15Z" transform="translate(-2.25 -2.64)"/><path class="cls-1" d="M93.75,8.18l0,2.26a5.08,5.08,0,0,1,1.85-1.86,4.81,4.81,0,0,1,2.46-.65,4,4,0,0,1,3.16,1.2,5.43,5.43,0,0,1,1,3.59v8.67h-1.45V12.71a4.07,4.07,0,0,0-.75-2.64,3,3,0,0,0-2.37-.87,3.7,3.7,0,0,0-2.39.85,5,5,0,0,0-1.55,2.29v9.05H92.36V8.18Z" transform="translate(-2.25 -2.64)"/><path class="cls-1" d="M105.5,14.66a7.94,7.94,0,0,1,1.38-4.9,4.41,4.41,0,0,1,3.73-1.83,4.58,4.58,0,0,1,4.07,2.12V2.64h1.46V21.39h-1.37l-.06-1.76a4.73,4.73,0,0,1-4.13,2,4.39,4.39,0,0,1-3.68-1.84,8,8,0,0,1-1.4-5Zm1.48.26a6.84,6.84,0,0,0,1,4,3.24,3.24,0,0,0,2.85,1.46A3.92,3.92,0,0,0,114.68,18v-6.2a3.89,3.89,0,0,0-3.8-2.58A3.33,3.33,0,0,0,108,10.65,7.33,7.33,0,0,0,107,14.92Z" transform="translate(-2.25 -2.64)"/><path class="cls-1" d="M125.1,21.63a5.77,5.77,0,0,1-3-.83,5.64,5.64,0,0,1-2.12-2.31,7.28,7.28,0,0,1-.75-3.33v-.52a7.64,7.64,0,0,1,.74-3.43,5.81,5.81,0,0,1,2-2.4,5.1,5.1,0,0,1,2.86-.88,4.75,4.75,0,0,1,3.81,1.65,6.65,6.65,0,0,1,1.41,4.48v.82h-9.42v.28a5.5,5.5,0,0,0,1.29,3.74,4.09,4.09,0,0,0,3.24,1.5,4.7,4.7,0,0,0,2.07-.43,4.51,4.51,0,0,0,1.63-1.37l.91.7A5.33,5.33,0,0,1,125.1,21.63Zm-.27-12.45a3.64,3.64,0,0,0-2.78,1.21,5.57,5.57,0,0,0-1.37,3.25h7.92v-.16a4.79,4.79,0,0,0-1.09-3.1A3.36,3.36,0,0,0,124.83,9.18Z" transform="translate(-2.25 -2.64)"/><path class="cls-1" d="M139,9.42a6.2,6.2,0,0,0-1-.08,3.55,3.55,0,0,0-2.31.76,4.21,4.21,0,0,0-1.35,2.22v9.07H132.9V8.18h1.43l0,2.1a3.89,3.89,0,0,1,3.72-2.35,2.54,2.54,0,0,1,1,.16Z" transform="translate(-2.25 -2.64)"/><path class="cls-1" d="M141,20.51a1,1,0,0,1,.28-.73,1,1,0,0,1,.76-.3,1,1,0,0,1,1,1,.93.93,0,0,1-.28.7,1.06,1.06,0,0,1-.77.27,1,1,0,0,1-.76-.27A.93.93,0,0,1,141,20.51Zm0-11.27a1.06,1.06,0,0,1,.27-.73,1,1,0,0,1,.77-.29,1,1,0,0,1,.76.29,1,1,0,0,1,.29.73.92.92,0,0,1-.29.7,1,1,0,0,1-.76.28,1,1,0,0,1-.77-.28A.94.94,0,0,1,141,9.24Z" transform="translate(-2.25 -2.64)"/></g></g></svg>