<svg xmlns="http://www.w3.org/2000/svg" viewBox="0 0 303.28 24.01"><defs><style>.cls-1{fill:#fff;}</style></defs><title>Asset 12text</title><g id="Layer_2" data-name="Layer 2"><g id="Layer_1-2" data-name="Layer 1"><path class="cls-1" d="M4.24,3.61,10.79,19.3,17.37,3.61h2V21.39h-1.5V13.65L18,5.71,11.38,21.39H10.22L3.63,5.77l.12,7.83v7.79H2.25V3.61Z" transform="translate(-2.25 -2.64)"/><path class="cls-1" d="M31.87,21.39a7.21,7.21,0,0,1-.28-1.85,5,5,0,0,1-2,1.55,6,6,0,0,1-2.52.54A4.4,4.4,0,0,1,24,20.57a3.45,3.45,0,0,1-1.18-2.69,3.55,3.55,0,0,1,1.61-3,7.7,7.7,0,0,1,4.47-1.12h2.65v-1.5A2.89,2.89,0,0,0,30.71,10a3.61,3.61,0,0,0-2.55-.81,4,4,0,0,0-2.53.78,2.34,2.34,0,0,0-1,1.88H23.17a3.41,3.41,0,0,1,1.46-2.73,5.65,5.65,0,0,1,3.6-1.16A5.13,5.13,0,0,1,31.72,9,4,4,0,0,1,33,12.12v6.25a7.68,7.68,0,0,0,.41,2.87v.15Zm-4.59-1.05a4.92,4.92,0,0,0,2.62-.71,4.15,4.15,0,0,0,1.68-1.89V14.83H29a6.54,6.54,0,0,0-3.42.8,2.41,2.41,0,0,0-1.23,2.13,2.34,2.34,0,0,0,.82,1.84A3.09,3.09,0,0,0,27.28,20.34Z" transform="translate(-2.25 -2.64)"/><path class="cls-1" d="M38.32,8.18l0,2.26a5.08,5.08,0,0,1,1.85-1.86,4.81,4.81,0,0,1,2.46-.65,4,4,0,0,1,3.16,1.2,5.43,5.43,0,0,1,1,3.59v8.67H45.43V12.71a4,4,0,0,0-.75-2.64,2.93,2.93,0,0,0-2.36-.87,3.75,3.75,0,0,0-2.4.85,5,5,0,0,0-1.54,2.29v9.05H36.93V8.18Z" transform="translate(-2.25 -2.64)"/><path class="cls-1" d="M59.16,19.71a4.76,4.76,0,0,1-4.22,1.92,4.1,4.1,0,0,1-3.21-1.23,5.37,5.37,0,0,1-1.12-3.63V8.18h1.45v8.41q0,3.77,3,3.77t4-2.62V8.18H60.6V21.39H59.18Z" transform="translate(-2.25 -2.64)"/><path class="cls-1" d="M69.51,21.63a5.77,5.77,0,0,1-3.05-.83,5.64,5.64,0,0,1-2.12-2.31,7.28,7.28,0,0,1-.75-3.33v-.52a7.78,7.78,0,0,1,.73-3.43,5.91,5.91,0,0,1,2.06-2.4,5.1,5.1,0,0,1,2.86-.88,4.75,4.75,0,0,1,3.81,1.65,6.65,6.65,0,0,1,1.41,4.48v.82H65v.28a5.5,5.5,0,0,0,1.29,3.74,4.09,4.09,0,0,0,3.24,1.5A4.7,4.7,0,0,0,71.64,20a4.6,4.6,0,0,0,1.63-1.37l.91.7A5.33,5.33,0,0,1,69.51,21.63ZM69.24,9.18a3.64,3.64,0,0,0-2.78,1.21,5.57,5.57,0,0,0-1.37,3.25H73v-.16a4.79,4.79,0,0,0-1.09-3.1A3.36,3.36,0,0,0,69.24,9.18Z" transform="translate(-2.25 -2.64)"/><path class="cls-1" d="M78.94,21.39H77.48V2.64h1.46Z" transform="translate(-2.25 -2.64)"/><path class="cls-1" d="M84.55,21.39H83.08V2.64h1.47Z" transform="translate(-2.25 -2.64)"/><path class="cls-1" d="M93.63,21.63a5.77,5.77,0,0,1-3-.83,5.64,5.64,0,0,1-2.12-2.31,7.28,7.28,0,0,1-.75-3.33v-.52a7.64,7.64,0,0,1,.74-3.43,5.81,5.81,0,0,1,2-2.4,5.1,5.1,0,0,1,2.86-.88,4.75,4.75,0,0,1,3.81,1.65,6.65,6.65,0,0,1,1.41,4.48v.82H89.16v.28a5.5,5.5,0,0,0,1.29,3.74,4.09,4.09,0,0,0,3.24,1.5A4.7,4.7,0,0,0,95.76,20a4.51,4.51,0,0,0,1.63-1.37l.91.7A5.33,5.33,0,0,1,93.63,21.63ZM93.36,9.18a3.64,3.64,0,0,0-2.78,1.21,5.57,5.57,0,0,0-1.37,3.25h7.92v-.16A4.79,4.79,0,0,0,96,10.38,3.34,3.34,0,0,0,93.36,9.18Z" transform="translate(-2.25 -2.64)"/><path class="cls-1" d="M109.14,21.39h-1.46V2.64h1.46Z" transform="translate(-2.25 -2.64)"/><path class="cls-1" d="M112.29,14.59a7.78,7.78,0,0,1,.74-3.43,5.55,5.55,0,0,1,5.15-3.23,6,6,0,0,1,2.61.59l.95-1.95h1.15l-1.22,2.49a5.78,5.78,0,0,1,1.78,2.3,8,8,0,0,1,.63,3.23V15a7.72,7.72,0,0,1-.74,3.44,5.5,5.5,0,0,1-2.09,2.37,5.69,5.69,0,0,1-3,.83,6,6,0,0,1-2.44-.5l-1,2h-1.14l1.21-2.48A5.72,5.72,0,0,1,113,18.3a7.92,7.92,0,0,1-.67-3.31Zm1.46.4a7,7,0,0,0,.43,2.5,4.68,4.68,0,0,0,1.27,1.91l4.75-9.7a4,4,0,0,0-2-.52,3.92,3.92,0,0,0-3.2,1.53,6.21,6.21,0,0,0-1.23,4Zm8.87-.4a6.86,6.86,0,0,0-.4-2.37A5,5,0,0,0,121,10.34L116.32,20a4.1,4.1,0,0,0,1.88.42,3.9,3.9,0,0,0,3.19-1.52,6.17,6.17,0,0,0,1.23-4Z" transform="translate(-2.25 -2.64)"/><path class="cls-1" d="M128.42,8.18l.05,2.26a5.08,5.08,0,0,1,1.85-1.86,4.81,4.81,0,0,1,2.46-.65,4,4,0,0,1,3.16,1.2A5.43,5.43,0,0,1,137,12.72v8.67h-1.46V12.71a4,4,0,0,0-.75-2.64,2.93,2.93,0,0,0-2.36-.87,3.75,3.75,0,0,0-2.4.85,5,5,0,0,0-1.54,2.29v9.05H127V8.18Z" transform="translate(-2.25 -2.64)"/><path class="cls-1" d="M142.15,8.18l0,2.26a5.1,5.1,0,0,1,1.86-1.86,4.77,4.77,0,0,1,2.45-.65,3.94,3.94,0,0,1,3.16,1.2,5.43,5.43,0,0,1,1.05,3.59v8.67h-1.45V12.71a4.07,4.07,0,0,0-.75-2.64,3,3,0,0,0-2.37-.87,3.7,3.7,0,0,0-2.39.85,5,5,0,0,0-1.55,2.29v9.05h-1.45V8.18Z" transform="translate(-2.25 -2.64)"/><path class="cls-1" d="M162.4,18a2.1,2.1,0,0,0-.87-1.75,6.75,6.75,0,0,0-2.63-1,12.16,12.16,0,0,1-2.73-.85,3.61,3.61,0,0,1-1.44-1.18,3,3,0,0,1-.47-1.68A3.13,3.13,0,0,1,155.57,9a5.26,5.26,0,0,1,3.34-1A5.44,5.44,0,0,1,162.46,9a3.51,3.51,0,0,1,1.33,2.85h-1.46a2.35,2.35,0,0,0-1-1.93,3.84,3.84,0,0,0-2.45-.77,3.79,3.79,0,0,0-2.31.64,2,2,0,0,0-.88,1.67,1.81,1.81,0,0,0,.73,1.53,7.79,7.79,0,0,0,2.65,1A12.49,12.49,0,0,1,162,15a3.7,3.7,0,0,1,1.42,1.23,3.38,3.38,0,0,1-.88,4.42,5.76,5.76,0,0,1-3.52,1,5.91,5.91,0,0,1-3.75-1.12,3.43,3.43,0,0,1-1.43-2.82h1.46a2.53,2.53,0,0,0,1.09,2,4.38,4.38,0,0,0,2.63.72,4.19,4.19,0,0,0,2.46-.67A2,2,0,0,0,162.4,18Z" transform="translate(-2.25 -2.64)"/><path class="cls-1" d="M177.78,14.92a8,8,0,0,1-1.36,4.9,4.38,4.38,0,0,1-3.68,1.81,4.73,4.73,0,0,1-4.17-2.05l-.06,1.81h-1.37V2.64h1.45V10.1a4.58,4.58,0,0,1,4.13-2.17,4.41,4.41,0,0,1,3.7,1.79,8.05,8.05,0,0,1,1.36,5Zm-1.46-.26a6.89,6.89,0,0,0-1-4,3.32,3.32,0,0,0-2.86-1.43,4,4,0,0,0-2.38.69,4.28,4.28,0,0,0-1.48,2v6a3.91,3.91,0,0,0,3.88,2.49,3.26,3.26,0,0,0,2.83-1.43A7.33,7.33,0,0,0,176.32,14.66Z" transform="translate(-2.25 -2.64)"/><path class="cls-1" d="M186.12,21.63a5.79,5.79,0,0,1-3.05-.83A5.62,5.62,0,0,1,181,18.49a7.16,7.16,0,0,1-.76-3.33v-.52a7.78,7.78,0,0,1,.74-3.43A5.83,5.83,0,0,1,183,8.81a5.07,5.07,0,0,1,2.85-.88,4.77,4.77,0,0,1,3.82,1.65,6.65,6.65,0,0,1,1.41,4.48v.82h-9.43v.28a5.5,5.5,0,0,0,1.29,3.74,4.09,4.09,0,0,0,3.24,1.5,4.7,4.7,0,0,0,2.07-.43,4.51,4.51,0,0,0,1.63-1.37l.92.7A5.36,5.36,0,0,1,186.12,21.63Zm-.27-12.45a3.65,3.65,0,0,0-2.78,1.21,5.57,5.57,0,0,0-1.37,3.25h7.92v-.16a4.84,4.84,0,0,0-1.08-3.1A3.38,3.38,0,0,0,185.85,9.18Z" transform="translate(-2.25 -2.64)"/><path class="cls-1" d="M200,9.42a6,6,0,0,0-1-.08,3.56,3.56,0,0,0-2.32.76,4.21,4.21,0,0,0-1.35,2.22v9.07h-1.45V8.18h1.43l0,2.1a3.91,3.91,0,0,1,3.73-2.35,2.48,2.48,0,0,1,1,.16Z" transform="translate(-2.25 -2.64)"/><path class="cls-1" d="M207.21,21.63a5.76,5.76,0,0,1-3-.83,5.64,5.64,0,0,1-2.12-2.31,7.29,7.29,0,0,1-.76-3.33v-.52a7.78,7.78,0,0,1,.74-3.43,5.83,5.83,0,0,1,2.06-2.4,5.09,5.09,0,0,1,2.85-.88,4.76,4.76,0,0,1,3.82,1.65,6.65,6.65,0,0,1,1.41,4.48v.82h-9.42v.28A5.55,5.55,0,0,0,204,18.9a4.09,4.09,0,0,0,3.24,1.5,4.64,4.64,0,0,0,2.07-.43A4.43,4.43,0,0,0,211,18.6l.92.7A5.34,5.34,0,0,1,207.21,21.63Zm-.27-12.45a3.63,3.63,0,0,0-2.77,1.21,5.64,5.64,0,0,0-1.38,3.25h7.93v-.16a4.85,4.85,0,0,0-1.09-3.1A3.36,3.36,0,0,0,206.94,9.18Z" transform="translate(-2.25 -2.64)"/><path class="cls-1" d="M214.43,14.66a8,8,0,0,1,1.37-4.91,4.44,4.44,0,0,1,3.73-1.82,4.59,4.59,0,0,1,4.1,2.15l.08-1.9h1.36V21.12a5.59,5.59,0,0,1-1.42,4,5.14,5.14,0,0,1-3.87,1.49,5.88,5.88,0,0,1-2.63-.62,5.11,5.11,0,0,1-2-1.64l.82-.88a4.63,4.63,0,0,0,3.69,1.91,3.74,3.74,0,0,0,2.85-1.09,4.28,4.28,0,0,0,1.07-3V19.68a4.73,4.73,0,0,1-4.09,1.95,4.41,4.41,0,0,1-3.69-1.83,8,8,0,0,1-1.39-4.94Zm1.48.26a6.84,6.84,0,0,0,1,4,3.27,3.27,0,0,0,2.86,1.46,3.9,3.9,0,0,0,3.82-2.42V11.8a4.18,4.18,0,0,0-1.48-1.93,4,4,0,0,0-2.32-.67,3.33,3.33,0,0,0-2.87,1.45A7.42,7.42,0,0,0,215.91,14.92Z" transform="translate(-2.25 -2.64)"/><path class="cls-1" d="M230.27,8.18l0,2.26a5.18,5.18,0,0,1,1.86-1.86,4.8,4.8,0,0,1,2.45-.65,3.94,3.94,0,0,1,3.16,1.2,5.38,5.38,0,0,1,1.05,3.59v8.67h-1.45V12.71a4.07,4.07,0,0,0-.75-2.64,2.93,2.93,0,0,0-2.36-.87,3.71,3.71,0,0,0-2.4.85,4.93,4.93,0,0,0-1.54,2.29v9.05h-1.46V8.18Z" transform="translate(-2.25 -2.64)"/><path class="cls-1" d="M242.53,4.36a1,1,0,0,1,.27-.69,1,1,0,0,1,.73-.29,1,1,0,0,1,.74.29,1,1,0,0,1,.27.69,1,1,0,0,1-.27.7,1,1,0,0,1-.74.27.93.93,0,0,1-1-1Zm1.72,17h-1.46V8.18h1.46Z" transform="translate(-2.25 -2.64)"/><path class="cls-1" d="M249.61,8.18l0,2.26a5.08,5.08,0,0,1,1.85-1.86A4.81,4.81,0,0,1,254,7.93a4,4,0,0,1,3.16,1.2,5.43,5.43,0,0,1,1.05,3.59v8.67h-1.45V12.71a4.07,4.07,0,0,0-.75-2.64,3,3,0,0,0-2.37-.87,3.7,3.7,0,0,0-2.39.85,5,5,0,0,0-1.55,2.29v9.05h-1.45V8.18Z" transform="translate(-2.25 -2.64)"/><path class="cls-1" d="M261.36,14.66a7.91,7.91,0,0,1,1.38-4.91,4.43,4.43,0,0,1,3.73-1.82,4.6,4.6,0,0,1,4.1,2.15l.07-1.9H272V21.12a5.6,5.6,0,0,1-1.43,4,5.11,5.11,0,0,1-3.87,1.49,5.88,5.88,0,0,1-2.63-.62,5.15,5.15,0,0,1-2-1.64l.82-.88a4.62,4.62,0,0,0,3.68,1.91,3.76,3.76,0,0,0,2.86-1.09,4.28,4.28,0,0,0,1.06-3V19.68a4.72,4.72,0,0,1-4.09,1.95,4.38,4.38,0,0,1-3.68-1.83,8,8,0,0,1-1.4-4.94Zm1.48.26a6.92,6.92,0,0,0,1,4,3.27,3.27,0,0,0,2.86,1.46,3.89,3.89,0,0,0,3.82-2.42V11.8a4.16,4.16,0,0,0-1.47-1.93,4,4,0,0,0-2.32-.67,3.33,3.33,0,0,0-2.87,1.45A7.33,7.33,0,0,0,262.84,14.92Z" transform="translate(-2.25 -2.64)"/><path class="cls-1" d="M280.93,21.63a5.73,5.73,0,0,1-3-.83,5.58,5.58,0,0,1-2.12-2.31,7.16,7.16,0,0,1-.76-3.33v-.52a7.78,7.78,0,0,1,.74-3.43,5.83,5.83,0,0,1,2.06-2.4,5.09,5.09,0,0,1,2.85-.88,4.76,4.76,0,0,1,3.82,1.65,6.65,6.65,0,0,1,1.41,4.48v.82h-9.43v.28a5.5,5.5,0,0,0,1.29,3.74A4.09,4.09,0,0,0,281,20.4a4.7,4.7,0,0,0,2.07-.43,4.51,4.51,0,0,0,1.63-1.37l.92.7A5.34,5.34,0,0,1,280.93,21.63Zm-.27-12.45a3.63,3.63,0,0,0-2.77,1.21,5.58,5.58,0,0,0-1.38,3.25h7.93v-.16a4.85,4.85,0,0,0-1.09-3.1A3.36,3.36,0,0,0,280.66,9.18Z" transform="translate(-2.25 -2.64)"/><path class="cls-1" d="M294.84,9.42a6.2,6.2,0,0,0-1-.08,3.58,3.58,0,0,0-2.32.76,4.13,4.13,0,0,0-1.34,2.22v9.07h-1.46V8.18h1.43l0,2.1a3.89,3.89,0,0,1,3.72-2.35,2.45,2.45,0,0,1,1,.16Z" transform="translate(-2.25 -2.64)"/><path class="cls-1" d="M299.83,16.44a6.51,6.51,0,0,1,.39-2.31,6.84,6.84,0,0,1,1.57-2.07,14.77,14.77,0,0,0,1.56-1.68,4.11,4.11,0,0,0,.54-1.09,4.58,4.58,0,0,0,.19-1.35,3.38,3.38,0,0,0-.81-2.39A3,3,0,0,0,301,4.68a3.3,3.3,0,0,0-2.36.83,3,3,0,0,0-.92,2.27h-1.45a4.15,4.15,0,0,1,1.35-3.21A4.85,4.85,0,0,1,301,3.37a4.49,4.49,0,0,1,3.32,1.22,4.53,4.53,0,0,1,1.21,3.33,5.27,5.27,0,0,1-.6,2.47,10.65,10.65,0,0,1-2.27,2.69,4.13,4.13,0,0,0-1.38,3.36Zm-.2,4.09a1,1,0,0,1,.27-.71,1,1,0,0,1,.74-.29,1,1,0,0,1,1,1,.91.91,0,0,1-.28.68,1,1,0,0,1-.73.27,1,1,0,0,1-.74-.27A.94.94,0,0,1,299.63,20.53Z" transform="translate(-2.25 -2.64)"/></g></g></svg>