<svg xmlns="http://www.w3.org/2000/svg" viewBox="0 0 331.07 100.27"><defs><style>.cls-1{fill:#fff;}</style></defs><title>Asset 11text</title><g id="Layer_2" data-name="Layer 2"><g id="Layer_1-2" data-name="Layer 1"><path class="cls-1" d="M12.3,17a2.87,2.87,0,0,0-1-2.34A11.08,11.08,0,0,0,7.47,13a13.19,13.19,0,0,1-4-1.69A4,4,0,0,1,1.64,8,4,4,0,0,1,3.31,4.64,6.9,6.9,0,0,1,7.6,3.37a7.2,7.2,0,0,1,3.17.68A5.19,5.19,0,0,1,12.94,6a5,5,0,0,1,.77,2.72H12.19A3.72,3.72,0,0,0,11,5.75,4.85,4.85,0,0,0,7.6,4.64a5.24,5.24,0,0,0-3.24.91A2.84,2.84,0,0,0,3.15,7.93a2.68,2.68,0,0,0,1.09,2.21,10.1,10.1,0,0,0,3.47,1.51A16.34,16.34,0,0,1,11.34,13a5.09,5.09,0,0,1,1.86,1.68,4.23,4.23,0,0,1,.62,2.3,4,4,0,0,1-1.68,3.37,7.12,7.12,0,0,1-4.43,1.27A8.58,8.58,0,0,1,4.27,21a5.23,5.23,0,0,1-2.38-1.88,4.8,4.8,0,0,1-.82-2.77H2.58a3.52,3.52,0,0,0,1.4,3,5.91,5.91,0,0,0,3.73,1.09,5.55,5.55,0,0,0,3.34-.91A2.88,2.88,0,0,0,12.3,17Z" transform="translate(-0.37 -2.38)"/><path class="cls-1" d="M19.85,14.73l-1.67,1.62v5H16.71V2.64h1.47v12l1.38-1.49,5.05-5h1.84l-5.6,5.57,6.09,7.64H25.2Z" transform="translate(-0.37 -2.38)"/><path class="cls-1" d="M35.06,9.42a6.2,6.2,0,0,0-1-.08,3.55,3.55,0,0,0-2.31.76,4.21,4.21,0,0,0-1.35,2.22v9.07H29V8.18h1.42l0,2.1a3.89,3.89,0,0,1,3.72-2.35,2.45,2.45,0,0,1,1,.16Z" transform="translate(-0.37 -2.38)"/><path class="cls-1" d="M42.25,21.63a5.79,5.79,0,0,1-3-.83,5.64,5.64,0,0,1-2.12-2.31,7.28,7.28,0,0,1-.75-3.33v-.52a7.64,7.64,0,0,1,.74-3.43,5.81,5.81,0,0,1,2-2.4A5.1,5.1,0,0,1,42,7.93a4.75,4.75,0,0,1,3.81,1.65,6.65,6.65,0,0,1,1.41,4.48v.82H37.78v.28a5.5,5.5,0,0,0,1.29,3.74,4.09,4.09,0,0,0,3.24,1.5A4.7,4.7,0,0,0,44.38,20,4.51,4.51,0,0,0,46,18.6l.91.7A5.33,5.33,0,0,1,42.25,21.63ZM42,9.18a3.65,3.65,0,0,0-2.78,1.21,5.57,5.57,0,0,0-1.37,3.25h7.92v-.16a4.84,4.84,0,0,0-1.08-3.1A3.38,3.38,0,0,0,42,9.18Z" transform="translate(-0.37 -2.38)"/><path class="cls-1" d="M49.46,14.66a7.94,7.94,0,0,1,1.38-4.9,4.4,4.4,0,0,1,3.73-1.83,4.58,4.58,0,0,1,4.07,2.12V2.64h1.45V21.39H58.73l-.06-1.76a4.73,4.73,0,0,1-4.13,2,4.39,4.39,0,0,1-3.68-1.84,8,8,0,0,1-1.4-5Zm1.48.26a6.92,6.92,0,0,0,1,4,3.27,3.27,0,0,0,2.86,1.46A3.92,3.92,0,0,0,58.64,18v-6.2A3.89,3.89,0,0,0,54.83,9.2,3.34,3.34,0,0,0,52,10.65,7.42,7.42,0,0,0,50.94,14.92Z" transform="translate(-0.37 -2.38)"/><path class="cls-1" d="M63.35,14.66a7.94,7.94,0,0,1,1.38-4.9,4.41,4.41,0,0,1,3.73-1.83,4.58,4.58,0,0,1,4.07,2.12V2.64H74V21.39H72.62l-.06-1.76a4.73,4.73,0,0,1-4.13,2,4.39,4.39,0,0,1-3.68-1.84,8,8,0,0,1-1.4-5Zm1.48.26a6.92,6.92,0,0,0,1,4,3.27,3.27,0,0,0,2.86,1.46A3.92,3.92,0,0,0,72.53,18v-6.2a3.89,3.89,0,0,0-3.8-2.58,3.33,3.33,0,0,0-2.87,1.45A7.33,7.33,0,0,0,64.83,14.92Z" transform="translate(-0.37 -2.38)"/><path class="cls-1" d="M83,21.63a5.77,5.77,0,0,1-3-.83,5.64,5.64,0,0,1-2.12-2.31A7.28,7.28,0,0,1,77,15.16v-.52a7.78,7.78,0,0,1,.73-3.43,5.91,5.91,0,0,1,2.06-2.4,5.1,5.1,0,0,1,2.86-.88,4.75,4.75,0,0,1,3.81,1.65,6.65,6.65,0,0,1,1.41,4.48v.82H78.48v.28a5.5,5.5,0,0,0,1.29,3.74A4.09,4.09,0,0,0,83,20.4,4.7,4.7,0,0,0,85.08,20a4.6,4.6,0,0,0,1.63-1.37l.91.7A5.33,5.33,0,0,1,83,21.63ZM82.68,9.18a3.64,3.64,0,0,0-2.78,1.21,5.57,5.57,0,0,0-1.37,3.25h7.92v-.16a4.79,4.79,0,0,0-1.09-3.1A3.36,3.36,0,0,0,82.68,9.18Z" transform="translate(-0.37 -2.38)"/><path class="cls-1" d="M96.85,9.42a6.2,6.2,0,0,0-1-.08,3.55,3.55,0,0,0-2.31.76,4.21,4.21,0,0,0-1.35,2.22v9.07H90.75V8.18h1.42l0,2.1a3.89,3.89,0,0,1,3.72-2.35,2.54,2.54,0,0,1,1,.16Z" transform="translate(-0.37 -2.38)"/><path class="cls-1" d="M107.07,18a2.08,2.08,0,0,0-.88-1.75,6.68,6.68,0,0,0-2.63-1,11.88,11.88,0,0,1-2.72-.85,3.61,3.61,0,0,1-1.44-1.18,2.89,2.89,0,0,1-.47-1.68A3.14,3.14,0,0,1,100.23,9a5.29,5.29,0,0,1,3.35-1A5.41,5.41,0,0,1,107.12,9a3.52,3.52,0,0,1,1.34,2.85H107A2.35,2.35,0,0,0,106,10a4.38,4.38,0,0,0-4.76-.13,2,2,0,0,0-.87,1.67,1.78,1.78,0,0,0,.73,1.53,7.62,7.62,0,0,0,2.65,1,12.49,12.49,0,0,1,2.88,1,3.7,3.7,0,0,1,1.42,1.23,3.15,3.15,0,0,1,.46,1.75,3.17,3.17,0,0,1-1.35,2.67,5.74,5.74,0,0,1-3.52,1,5.88,5.88,0,0,1-3.74-1.12,3.41,3.41,0,0,1-1.43-2.82H100a2.54,2.54,0,0,0,1.08,2,4.38,4.38,0,0,0,2.63.72,4.22,4.22,0,0,0,2.47-.67A2,2,0,0,0,107.07,18Z" transform="translate(-0.37 -2.38)"/><path class="cls-1" d="M116,19.29l3.86-11.11h1.58L115.8,23.63l-.3.69a3.54,3.54,0,0,1-3.35,2.4,4.31,4.31,0,0,1-1.13-.17V25.34l.76.08a2.7,2.7,0,0,0,1.74-.54,4,4,0,0,0,1.13-1.82l.64-1.78-5-13.1h1.6Z" transform="translate(-0.37 -2.38)"/><path class="cls-1" d="M123,14.66a8,8,0,0,1,1.37-4.9,4.42,4.42,0,0,1,3.73-1.83,4.61,4.61,0,0,1,4.08,2.12V2.64h1.45V21.39h-1.37l-.06-1.76a4.71,4.71,0,0,1-4.12,2,4.38,4.38,0,0,1-3.68-1.84,8,8,0,0,1-1.4-5Zm1.48.26a6.84,6.84,0,0,0,1,4,3.26,3.26,0,0,0,2.86,1.46A3.93,3.93,0,0,0,132.13,18v-6.2a3.91,3.91,0,0,0-3.81-2.58,3.33,3.33,0,0,0-2.87,1.45A7.42,7.42,0,0,0,124.43,14.92Z" transform="translate(-0.37 -2.38)"/><path class="cls-1" d="M136.84,14.66a8,8,0,0,1,1.37-4.9,4.42,4.42,0,0,1,3.73-1.83A4.6,4.6,0,0,1,146,10.05V2.64h1.45V21.39h-1.36L146,19.63a4.71,4.71,0,0,1-4.12,2,4.39,4.39,0,0,1-3.68-1.84,8,8,0,0,1-1.4-5Zm1.48.26a6.92,6.92,0,0,0,1,4,3.27,3.27,0,0,0,2.86,1.46A3.92,3.92,0,0,0,146,18v-6.2a3.91,3.91,0,0,0-3.81-2.58,3.34,3.34,0,0,0-2.87,1.45A7.42,7.42,0,0,0,138.32,14.92Z" transform="translate(-0.37 -2.38)"/><path class="cls-1" d="M156.81,14.66a8,8,0,0,1,1.37-4.9,4.42,4.42,0,0,1,3.73-1.83A4.58,4.58,0,0,1,166,10.05V2.64h1.45V21.39h-1.36L166,19.63a4.74,4.74,0,0,1-4.13,2,4.39,4.39,0,0,1-3.68-1.84,8,8,0,0,1-1.4-5Zm1.48.26a6.92,6.92,0,0,0,1,4,3.27,3.27,0,0,0,2.86,1.46A3.92,3.92,0,0,0,166,18v-6.2a3.91,3.91,0,0,0-3.81-2.58,3.34,3.34,0,0,0-2.87,1.45A7.42,7.42,0,0,0,158.29,14.92Z" transform="translate(-0.37 -2.38)"/><path class="cls-1" d="M177.39,9.42a6.2,6.2,0,0,0-1-.08,3.55,3.55,0,0,0-2.31.76,4.21,4.21,0,0,0-1.35,2.22v9.07h-1.45V8.18h1.43l0,2.1a3.89,3.89,0,0,1,3.72-2.35,2.54,2.54,0,0,1,1,.16Z" transform="translate(-0.37 -2.38)"/><path class="cls-1" d="M179.61,4.36a1,1,0,0,1,.27-.69,1.08,1.08,0,0,1,1.47,0,.94.94,0,0,1,.28.69.94.94,0,0,1-.28.7,1.14,1.14,0,0,1-1.47,0A1,1,0,0,1,179.61,4.36Zm1.72,17h-1.46V8.18h1.46Z" transform="translate(-0.37 -2.38)"/><path class="cls-1" d="M186.35,21.39v-12h-2.18V8.18h2.18V6.58a4.37,4.37,0,0,1,1-3.11,3.77,3.77,0,0,1,2.88-1.09,5.53,5.53,0,0,1,1.55.21L191.7,3.8a5.58,5.58,0,0,0-1.33-.15,2.39,2.39,0,0,0-1.88.75,3.1,3.1,0,0,0-.67,2.14V8.18H191v1.2h-3.15v12Z" transform="translate(-0.37 -2.38)"/><path class="cls-1" d="M195.85,4.8V8.18h2.73v1.2h-2.73v8.81a2.68,2.68,0,0,0,.4,1.63,1.52,1.52,0,0,0,1.32.54,9,9,0,0,0,1.18-.12l.07,1.19a5.08,5.08,0,0,1-1.57.2,2.59,2.59,0,0,1-2.18-.87,4.08,4.08,0,0,1-.69-2.57V9.38H192V8.18h2.42V4.8Z" transform="translate(-0.37 -2.38)"/><path class="cls-1" d="M209.52,18a2.1,2.1,0,0,0-.87-1.75,6.75,6.75,0,0,0-2.63-1,12,12,0,0,1-2.73-.85,3.61,3.61,0,0,1-1.44-1.18,3,3,0,0,1-.47-1.68A3.14,3.14,0,0,1,202.68,9a5.3,5.3,0,0,1,3.35-1A5.46,5.46,0,0,1,209.58,9a3.51,3.51,0,0,1,1.33,2.85h-1.46a2.37,2.37,0,0,0-1-1.93A3.86,3.86,0,0,0,206,9.18a3.79,3.79,0,0,0-2.31.64,2,2,0,0,0-.88,1.67,1.78,1.78,0,0,0,.73,1.53,7.71,7.71,0,0,0,2.65,1,12.49,12.49,0,0,1,2.88,1,3.7,3.7,0,0,1,1.42,1.23,3.38,3.38,0,0,1-.88,4.42,5.77,5.77,0,0,1-3.53,1,5.9,5.9,0,0,1-3.74-1.12,3.43,3.43,0,0,1-1.43-2.82h1.46a2.54,2.54,0,0,0,1.08,2,4.4,4.4,0,0,0,2.63.72,4.22,4.22,0,0,0,2.47-.67A2,2,0,0,0,209.52,18Z" transform="translate(-0.37 -2.38)"/><path class="cls-1" d="M215.91,21.39h-1.47V2.64h1.47Z" transform="translate(-0.37 -2.38)"/><path class="cls-1" d="M219.05,14.59a7.78,7.78,0,0,1,.74-3.43,5.55,5.55,0,0,1,5.15-3.23,5.94,5.94,0,0,1,2.61.59l.95-1.95h1.15l-1.22,2.49a5.78,5.78,0,0,1,1.78,2.3,8,8,0,0,1,.64,3.23V15a7.72,7.72,0,0,1-.75,3.44A5.44,5.44,0,0,1,228,20.8a5.69,5.69,0,0,1-3,.83,6,6,0,0,1-2.44-.5l-1,2h-1.15l1.21-2.48a5.62,5.62,0,0,1-1.89-2.32,7.77,7.77,0,0,1-.68-3.31Zm1.46.4a7,7,0,0,0,.43,2.5,4.61,4.61,0,0,0,1.28,1.91L227,9.7a4,4,0,0,0-2-.52,3.92,3.92,0,0,0-3.2,1.53,6.21,6.21,0,0,0-1.23,4Zm8.87-.4a6.86,6.86,0,0,0-.4-2.37,5.08,5.08,0,0,0-1.17-1.88L223.08,20a4.13,4.13,0,0,0,1.88.42,3.9,3.9,0,0,0,3.19-1.52,6.17,6.17,0,0,0,1.23-4Z" transform="translate(-0.37 -2.38)"/><path class="cls-1" d="M241.7,18a2.1,2.1,0,0,0-.87-1.75,6.8,6.8,0,0,0-2.64-1,11.88,11.88,0,0,1-2.72-.85A3.61,3.61,0,0,1,234,13.22a2.89,2.89,0,0,1-.47-1.68A3.14,3.14,0,0,1,234.86,9a5.29,5.29,0,0,1,3.35-1A5.41,5.41,0,0,1,241.75,9a3.52,3.52,0,0,1,1.34,2.85h-1.46a2.36,2.36,0,0,0-1-1.93,4.38,4.38,0,0,0-4.76-.13,2,2,0,0,0-.87,1.67,1.78,1.78,0,0,0,.73,1.53,7.62,7.62,0,0,0,2.65,1,12.49,12.49,0,0,1,2.88,1,3.7,3.7,0,0,1,1.42,1.23,3.15,3.15,0,0,1,.46,1.75,3.17,3.17,0,0,1-1.35,2.67,5.72,5.72,0,0,1-3.52,1,5.88,5.88,0,0,1-3.74-1.12,3.41,3.41,0,0,1-1.43-2.82h1.46a2.54,2.54,0,0,0,1.08,2,4.4,4.4,0,0,0,2.63.72,4.22,4.22,0,0,0,2.47-.67A2,2,0,0,0,241.7,18Z" transform="translate(-0.37 -2.38)"/><path class="cls-1" d="M247.84,8.18l0,2.26a5.08,5.08,0,0,1,1.85-1.86,4.81,4.81,0,0,1,2.46-.65,4,4,0,0,1,3.16,1.2,5.43,5.43,0,0,1,1.05,3.59v8.67H255V12.71a4.07,4.07,0,0,0-.75-2.64,3,3,0,0,0-2.37-.87,3.75,3.75,0,0,0-2.4.85,5,5,0,0,0-1.54,2.29v9.05h-1.45V8.18Z" transform="translate(-0.37 -2.38)"/><path class="cls-1" d="M260.09,4.36a1,1,0,0,1,.27-.69,1,1,0,0,1,.74-.29,1,1,0,0,1,.73.29.94.94,0,0,1,.28.69.94.94,0,0,1-.28.7,1,1,0,0,1-.73.27,1,1,0,0,1-.74-.27A1,1,0,0,1,260.09,4.36Zm1.73,17h-1.47V8.18h1.47Z" transform="translate(-0.37 -2.38)"/><path class="cls-1" d="M267.17,8.18l.05,2.26a5.18,5.18,0,0,1,1.86-1.86,4.8,4.8,0,0,1,2.45-.65,3.94,3.94,0,0,1,3.16,1.2,5.32,5.32,0,0,1,1.05,3.59v8.67h-1.45V12.71a4.07,4.07,0,0,0-.75-2.64,2.93,2.93,0,0,0-2.36-.87,3.75,3.75,0,0,0-2.4.85,4.93,4.93,0,0,0-1.54,2.29v9.05h-1.46V8.18Z" transform="translate(-0.37 -2.38)"/><path class="cls-1" d="M278.93,14.66a8,8,0,0,1,1.37-4.91A4.44,4.44,0,0,1,284,7.93a4.59,4.59,0,0,1,4.1,2.15l.08-1.9h1.37V21.12a5.6,5.6,0,0,1-1.43,4,5.13,5.13,0,0,1-3.87,1.49,5.88,5.88,0,0,1-2.63-.62,5.19,5.19,0,0,1-2-1.64l.82-.88a4.65,4.65,0,0,0,3.69,1.91A3.77,3.77,0,0,0,287,24.33a4.32,4.32,0,0,0,1.06-3V19.68A4.73,4.73,0,0,1,284,21.63a4.41,4.41,0,0,1-3.69-1.83,8,8,0,0,1-1.39-4.94Zm1.48.26a6.92,6.92,0,0,0,1,4,3.27,3.27,0,0,0,2.86,1.46,3.89,3.89,0,0,0,3.82-2.42V11.8a4.18,4.18,0,0,0-1.48-1.93,4,4,0,0,0-2.32-.67,3.34,3.34,0,0,0-2.87,1.45A7.42,7.42,0,0,0,280.41,14.92Z" transform="translate(-0.37 -2.38)"/><path class="cls-1" d="M300.51,21.39v-12h-2.18V8.18h2.18V6.58a4.37,4.37,0,0,1,1-3.11,3.77,3.77,0,0,1,2.88-1.09,5.53,5.53,0,0,1,1.55.21l-.11,1.21a5.58,5.58,0,0,0-1.33-.15,2.39,2.39,0,0,0-1.88.75A3.1,3.1,0,0,0,302,6.54V8.18h3.15v1.2H302v12Z" transform="translate(-0.37 -2.38)"/><path class="cls-1" d="M306.93,14.59a7.78,7.78,0,0,1,.74-3.43,5.55,5.55,0,0,1,5.15-3.23,5.43,5.43,0,0,1,4.27,1.85,7.16,7.16,0,0,1,1.64,4.91V15a7.87,7.87,0,0,1-.74,3.45,5.58,5.58,0,0,1-2.08,2.36,5.76,5.76,0,0,1-3.07.83,5.43,5.43,0,0,1-4.26-1.85,7.07,7.07,0,0,1-1.65-4.9Zm1.47.4a6,6,0,0,0,1.23,3.89,4.15,4.15,0,0,0,6.42,0,6.23,6.23,0,0,0,1.22-4v-.28a6.59,6.59,0,0,0-.56-2.77,4.51,4.51,0,0,0-1.57-2,4,4,0,0,0-2.32-.69,3.91,3.91,0,0,0-3.19,1.53,6.21,6.21,0,0,0-1.23,4Z" transform="translate(-0.37 -2.38)"/><path class="cls-1" d="M327.84,9.42a6.08,6.08,0,0,0-1-.08,3.56,3.56,0,0,0-2.32.76,4.21,4.21,0,0,0-1.35,2.22v9.07h-1.45V8.18h1.43l0,2.1a3.91,3.91,0,0,1,3.73-2.35,2.52,2.52,0,0,1,1,.16Z" transform="translate(-0.37 -2.38)"/><path class="cls-1" d="M4.08,59.39H2.58V41.61h1.5Z" transform="translate(-0.37 -2.38)"/><path class="cls-1" d="M10,46.18,10,48.44a5.08,5.08,0,0,1,1.85-1.86,4.81,4.81,0,0,1,2.46-.65,4,4,0,0,1,3.16,1.2,5.43,5.43,0,0,1,1.05,3.59v8.67H17.07V50.71a4,4,0,0,0-.76-2.64A2.93,2.93,0,0,0,14,47.2a3.75,3.75,0,0,0-2.4.85A5,5,0,0,0,10,50.34v9H8.56V46.18Z" transform="translate(-0.37 -2.38)"/><path class="cls-1" d="M24.56,42.8v3.38h2.73v1.2H24.56v8.81a2.68,2.68,0,0,0,.4,1.63,1.52,1.52,0,0,0,1.32.54,9.29,9.29,0,0,0,1.19-.12l.06,1.19a5.08,5.08,0,0,1-1.57.2,2.59,2.59,0,0,1-2.18-.87,4.08,4.08,0,0,1-.68-2.57V47.38H20.67v-1.2H23.1V42.8Z" transform="translate(-0.37 -2.38)"/><path class="cls-1" d="M35.44,59.63a5.77,5.77,0,0,1-3-.83,5.64,5.64,0,0,1-2.12-2.31,7.28,7.28,0,0,1-.75-3.33v-.52a7.78,7.78,0,0,1,.73-3.43,5.91,5.91,0,0,1,2.06-2.4,5.1,5.1,0,0,1,2.86-.88A4.75,4.75,0,0,1,39,47.58a6.65,6.65,0,0,1,1.41,4.48v.82H31v.28a5.5,5.5,0,0,0,1.29,3.74,4.09,4.09,0,0,0,3.24,1.5A4.7,4.7,0,0,0,37.57,58,4.51,4.51,0,0,0,39.2,56.6l.91.7A5.33,5.33,0,0,1,35.44,59.63Zm-.27-12.45a3.64,3.64,0,0,0-2.78,1.21A5.57,5.57,0,0,0,31,51.64h7.92v-.16a4.79,4.79,0,0,0-1.09-3.1A3.36,3.36,0,0,0,35.17,47.18Z" transform="translate(-0.37 -2.38)"/><path class="cls-1" d="M42.65,52.66A8,8,0,0,1,44,47.75a4.44,4.44,0,0,1,3.73-1.82,4.62,4.62,0,0,1,4.11,2.15l.07-1.9H53.3V59.12a5.6,5.6,0,0,1-1.43,4A5.11,5.11,0,0,1,48,64.65,5.88,5.88,0,0,1,45.37,64a5.08,5.08,0,0,1-2-1.64l.81-.88a4.65,4.65,0,0,0,3.69,1.91,3.77,3.77,0,0,0,2.86-1.09,4.32,4.32,0,0,0,1.06-3V57.68a4.73,4.73,0,0,1-4.09,2A4.41,4.41,0,0,1,44,57.8a8,8,0,0,1-1.39-4.94Zm1.48.26a6.92,6.92,0,0,0,1,4A3.27,3.27,0,0,0,48,58.36a3.89,3.89,0,0,0,3.82-2.42V49.8a4.18,4.18,0,0,0-1.48-1.93A4,4,0,0,0,48,47.2a3.34,3.34,0,0,0-2.87,1.45A7.42,7.42,0,0,0,44.13,52.92Z" transform="translate(-0.37 -2.38)"/><path class="cls-1" d="M63.21,47.42a6.2,6.2,0,0,0-1-.08,3.55,3.55,0,0,0-2.31.76,4.21,4.21,0,0,0-1.35,2.22v9.07H57.1V46.18h1.43l0,2.1a3.89,3.89,0,0,1,3.72-2.35,2.45,2.45,0,0,1,1,.16Z" transform="translate(-0.37 -2.38)"/><path class="cls-1" d="M70.4,59.63a5.77,5.77,0,0,1-3.05-.83,5.64,5.64,0,0,1-2.12-2.31,7.28,7.28,0,0,1-.75-3.33v-.52a7.64,7.64,0,0,1,.74-3.43,5.81,5.81,0,0,1,2-2.4,5.1,5.1,0,0,1,2.86-.88,4.75,4.75,0,0,1,3.81,1.65,6.65,6.65,0,0,1,1.41,4.48v.82H65.93v.28a5.5,5.5,0,0,0,1.29,3.74,4.09,4.09,0,0,0,3.24,1.5A4.7,4.7,0,0,0,72.53,58a4.51,4.51,0,0,0,1.63-1.37l.91.7A5.33,5.33,0,0,1,70.4,59.63Zm-.27-12.45a3.64,3.64,0,0,0-2.78,1.21A5.57,5.57,0,0,0,66,51.64H73.9v-.16a4.79,4.79,0,0,0-1.09-3.1A3.34,3.34,0,0,0,70.13,47.18Z" transform="translate(-0.37 -2.38)"/><path class="cls-1" d="M84.3,47.42a6.2,6.2,0,0,0-1-.08A3.55,3.55,0,0,0,81,48.1a4.21,4.21,0,0,0-1.35,2.22v9.07H78.2V46.18h1.43l0,2.1a3.89,3.89,0,0,1,3.72-2.35,2.54,2.54,0,0,1,1,.16Z" transform="translate(-0.37 -2.38)"/><path class="cls-1" d="M89.49,42.8v3.38h2.73v1.2H89.49v8.81a2.68,2.68,0,0,0,.4,1.63,1.52,1.52,0,0,0,1.32.54,9,9,0,0,0,1.18-.12l.07,1.19a5.08,5.08,0,0,1-1.57.2,2.59,2.59,0,0,1-2.18-.87A4.08,4.08,0,0,1,88,56.19V47.38H85.6v-1.2H88V42.8Z" transform="translate(-0.37 -2.38)"/><path class="cls-1" d="M102.66,46.18l0,2.15a4.92,4.92,0,0,1,1.83-1.8,5,5,0,0,1,2.44-.6q3.13,0,4,2.57a4.93,4.93,0,0,1,1.89-1.9,5.28,5.28,0,0,1,2.61-.67c2.84,0,4.28,1.55,4.34,4.64v8.82h-1.47V50.68a3.94,3.94,0,0,0-.76-2.62,3.11,3.11,0,0,0-2.45-.86,3.91,3.91,0,0,0-2.66,1,3.63,3.63,0,0,0-1.21,2.43v8.74h-1.46V50.57A3.65,3.65,0,0,0,109,48a3.18,3.18,0,0,0-2.43-.84,3.69,3.69,0,0,0-2.36.79,4.68,4.68,0,0,0-1.47,2.34v9.06h-1.46V46.18Z" transform="translate(-0.37 -2.38)"/><path class="cls-1" d="M122.68,52.59a7.78,7.78,0,0,1,.74-3.43,5.55,5.55,0,0,1,5.14-3.23,5.46,5.46,0,0,1,4.28,1.85,7.15,7.15,0,0,1,1.63,4.91V53a7.73,7.73,0,0,1-.74,3.45,5.45,5.45,0,0,1-2.08,2.36,5.7,5.7,0,0,1-3.06.83,5.46,5.46,0,0,1-4.27-1.85,7.11,7.11,0,0,1-1.64-4.9Zm1.47.4a6,6,0,0,0,1.22,3.89,4.15,4.15,0,0,0,6.42,0,6.17,6.17,0,0,0,1.23-4v-.28a6.75,6.75,0,0,0-.56-2.77,4.53,4.53,0,0,0-1.58-2,4,4,0,0,0-2.32-.69,3.89,3.89,0,0,0-3.18,1.53,6.21,6.21,0,0,0-1.23,4Z" transform="translate(-0.37 -2.38)"/><path class="cls-1" d="M139.76,42.8v3.38h2.73v1.2h-2.73v8.81a2.76,2.76,0,0,0,.39,1.63,1.55,1.55,0,0,0,1.33.54,9.18,9.18,0,0,0,1.18-.12l.06,1.19a5,5,0,0,1-1.56.2,2.59,2.59,0,0,1-2.18-.87,4.08,4.08,0,0,1-.69-2.57V47.38h-2.43v-1.2h2.43V42.8Z" transform="translate(-0.37 -2.38)"/><path class="cls-1" d="M159.94,59.39a6.79,6.79,0,0,1-.28-1.85,5.15,5.15,0,0,1-2,1.55,6.08,6.08,0,0,1-2.53.54,4.44,4.44,0,0,1-3.08-1.06,3.47,3.47,0,0,1-1.17-2.69,3.54,3.54,0,0,1,1.6-3.05A7.7,7.7,0,0,1,157,51.71h2.65v-1.5a2.89,2.89,0,0,0-.87-2.23,3.6,3.6,0,0,0-2.54-.81,4,4,0,0,0-2.53.78,2.32,2.32,0,0,0-1,1.88h-1.47a3.4,3.4,0,0,1,1.47-2.73,5.61,5.61,0,0,1,3.6-1.16A5.12,5.12,0,0,1,159.78,47a4,4,0,0,1,1.32,3.08v6.25a7.71,7.71,0,0,0,.4,2.87v.15Zm-4.59-1a4.89,4.89,0,0,0,2.61-.71,4.15,4.15,0,0,0,1.68-1.89V52.83H157a6.54,6.54,0,0,0-3.42.8,2.41,2.41,0,0,0-1.23,2.13,2.34,2.34,0,0,0,.82,1.84A3.12,3.12,0,0,0,155.35,58.34Z" transform="translate(-0.37 -2.38)"/><path class="cls-1" d="M166.63,59.39h-1.47V40.64h1.47Z" transform="translate(-0.37 -2.38)"/><path class="cls-1" d="M172.23,59.39h-1.47V40.64h1.47Z" transform="translate(-0.37 -2.38)"/><path class="cls-1" d="M181.31,59.63a5.73,5.73,0,0,1-3-.83,5.58,5.58,0,0,1-2.12-2.31,7.16,7.16,0,0,1-.76-3.33v-.52a7.78,7.78,0,0,1,.74-3.43,5.83,5.83,0,0,1,2.06-2.4,5.09,5.09,0,0,1,2.85-.88,4.76,4.76,0,0,1,3.82,1.65,6.65,6.65,0,0,1,1.41,4.48v.82h-9.43v.28a5.5,5.5,0,0,0,1.29,3.74,4.09,4.09,0,0,0,3.24,1.5,4.7,4.7,0,0,0,2.07-.43,4.51,4.51,0,0,0,1.63-1.37l.92.7A5.36,5.36,0,0,1,181.31,59.63ZM181,47.18a3.62,3.62,0,0,0-2.77,1.21,5.52,5.52,0,0,0-1.38,3.25h7.92v-.16a4.84,4.84,0,0,0-1.08-3.1A3.38,3.38,0,0,0,181,47.18Z" transform="translate(-0.37 -2.38)"/><path class="cls-1" d="M196.83,59.39h-1.47V40.64h1.47Z" transform="translate(-0.37 -2.38)"/><path class="cls-1" d="M200,52.59a7.78,7.78,0,0,1,.74-3.43,5.55,5.55,0,0,1,5.15-3.23,5.94,5.94,0,0,1,2.61.59l.95-2h1.15l-1.22,2.49a5.69,5.69,0,0,1,1.78,2.3,7.79,7.79,0,0,1,.64,3.23V53a7.72,7.72,0,0,1-.75,3.44,5.48,5.48,0,0,1-2.08,2.37,5.75,5.75,0,0,1-3.06.83,6,6,0,0,1-2.44-.5l-1,2h-1.15l1.21-2.48a5.62,5.62,0,0,1-1.89-2.32A7.77,7.77,0,0,1,200,53Zm1.46.4a7,7,0,0,0,.43,2.5,4.7,4.7,0,0,0,1.28,1.91l4.74-9.7a4.14,4.14,0,0,0-5.22,1,6.21,6.21,0,0,0-1.23,4Zm8.87-.4a6.86,6.86,0,0,0-.4-2.37,5.08,5.08,0,0,0-1.17-1.88L204,58a4.13,4.13,0,0,0,1.88.42,3.94,3.94,0,0,0,3.2-1.52,6.23,6.23,0,0,0,1.22-4Z" transform="translate(-0.37 -2.38)"/><path class="cls-1" d="M216.1,46.18l.05,2.26A5.15,5.15,0,0,1,218,46.58a4.84,4.84,0,0,1,2.46-.65,3.94,3.94,0,0,1,3.16,1.2,5.43,5.43,0,0,1,1,3.59v8.67h-1.45V50.71a4.07,4.07,0,0,0-.75-2.64,3,3,0,0,0-2.37-.87,3.7,3.7,0,0,0-2.39.85,5,5,0,0,0-1.55,2.29v9h-1.45V46.18Z" transform="translate(-0.37 -2.38)"/><path class="cls-1" d="M229.83,46.18l0,2.26a5.18,5.18,0,0,1,1.86-1.86,4.8,4.8,0,0,1,2.45-.65,3.94,3.94,0,0,1,3.16,1.2,5.38,5.38,0,0,1,1.05,3.59v8.67H237V50.71a4.07,4.07,0,0,0-.75-2.64,2.93,2.93,0,0,0-2.36-.87,3.71,3.71,0,0,0-2.4.85,4.93,4.93,0,0,0-1.54,2.29v9h-1.46V46.18Z" transform="translate(-0.37 -2.38)"/><path class="cls-1" d="M250.08,56a2.1,2.1,0,0,0-.87-1.75,6.75,6.75,0,0,0-2.63-1,12.16,12.16,0,0,1-2.73-.85,3.76,3.76,0,0,1-1.44-1.18,3,3,0,0,1-.47-1.68A3.15,3.15,0,0,1,243.25,47a5.26,5.26,0,0,1,3.34-1,5.42,5.42,0,0,1,3.55,1.1,3.52,3.52,0,0,1,1.34,2.85H250A2.35,2.35,0,0,0,249,48a3.84,3.84,0,0,0-2.45-.77,3.79,3.79,0,0,0-2.31.64,2,2,0,0,0-.87,1.67,1.8,1.8,0,0,0,.72,1.53,7.79,7.79,0,0,0,2.65,1,12.49,12.49,0,0,1,2.88,1,3.74,3.74,0,0,1,1.43,1.23,3.4,3.4,0,0,1-.89,4.42,5.74,5.74,0,0,1-3.52,1,5.87,5.87,0,0,1-3.74-1.12,3.42,3.42,0,0,1-1.44-2.82H243a2.52,2.52,0,0,0,1.08,2,4.38,4.38,0,0,0,2.63.72,4.22,4.22,0,0,0,2.47-.67A2,2,0,0,0,250.08,56Z" transform="translate(-0.37 -2.38)"/><path class="cls-1" d="M262.74,56a2.1,2.1,0,0,0-.87-1.75,6.75,6.75,0,0,0-2.63-1,12.16,12.16,0,0,1-2.73-.85,3.61,3.61,0,0,1-1.44-1.18,3,3,0,0,1-.47-1.68A3.15,3.15,0,0,1,255.91,47a5.26,5.26,0,0,1,3.34-1A5.44,5.44,0,0,1,262.8,47a3.51,3.51,0,0,1,1.33,2.85h-1.46a2.35,2.35,0,0,0-1-1.93,3.84,3.84,0,0,0-2.45-.77,3.79,3.79,0,0,0-2.31.64,2,2,0,0,0-.87,1.67,1.8,1.8,0,0,0,.72,1.53,7.79,7.79,0,0,0,2.65,1,12.49,12.49,0,0,1,2.88,1,3.7,3.7,0,0,1,1.42,1.23,3.38,3.38,0,0,1-.88,4.42,5.74,5.74,0,0,1-3.52,1,5.87,5.87,0,0,1-3.74-1.12,3.42,3.42,0,0,1-1.44-2.82h1.47a2.49,2.49,0,0,0,1.08,2,4.38,4.38,0,0,0,2.63.72,4.19,4.19,0,0,0,2.46-.67A2,2,0,0,0,262.74,56Z" transform="translate(-0.37 -2.38)"/><path class="cls-1" d="M271.68,57.29l3.86-11.11h1.57l-5.64,15.45-.29.69a3.55,3.55,0,0,1-3.36,2.4,4.24,4.24,0,0,1-1.12-.17V63.34l.75.08a2.66,2.66,0,0,0,1.74-.54,4,4,0,0,0,1.13-1.82l.65-1.78-5-13.1h1.6Z" transform="translate(-0.37 -2.38)"/><path class="cls-1" d="M287.28,56a2.1,2.1,0,0,0-.87-1.75,6.75,6.75,0,0,0-2.63-1,12,12,0,0,1-2.73-.85,3.61,3.61,0,0,1-1.44-1.18,2.89,2.89,0,0,1-.47-1.68,3.14,3.14,0,0,1,1.3-2.59,5.3,5.3,0,0,1,3.35-1,5.41,5.41,0,0,1,3.54,1.1,3.49,3.49,0,0,1,1.34,2.85h-1.46a2.37,2.37,0,0,0-1-1.93,3.86,3.86,0,0,0-2.45-.77,3.79,3.79,0,0,0-2.31.64,2,2,0,0,0-.88,1.67,1.78,1.78,0,0,0,.73,1.53A7.71,7.71,0,0,0,284,52a12.49,12.49,0,0,1,2.88,1,3.7,3.7,0,0,1,1.42,1.23,3.15,3.15,0,0,1,.47,1.75,3.19,3.19,0,0,1-1.35,2.67,5.77,5.77,0,0,1-3.53,1,5.9,5.9,0,0,1-3.74-1.12,3.43,3.43,0,0,1-1.43-2.82h1.46a2.54,2.54,0,0,0,1.08,2,4.4,4.4,0,0,0,2.63.72,4.22,4.22,0,0,0,2.47-.67A2,2,0,0,0,287.28,56Z" transform="translate(-0.37 -2.38)"/><path class="cls-1" d="M294.3,42.8v3.38H297v1.2H294.3v8.81a2.68,2.68,0,0,0,.4,1.63,1.52,1.52,0,0,0,1.32.54,9.18,9.18,0,0,0,1.18-.12l.06,1.19a5,5,0,0,1-1.56.2,2.59,2.59,0,0,1-2.18-.87,4.08,4.08,0,0,1-.69-2.57V47.38h-2.42v-1.2h2.42V42.8Z" transform="translate(-0.37 -2.38)"/><path class="cls-1" d="M305.18,59.63a5.77,5.77,0,0,1-3.05-.83A5.64,5.64,0,0,1,300,56.49a7.29,7.29,0,0,1-.76-3.33v-.52a7.78,7.78,0,0,1,.74-3.43,5.91,5.91,0,0,1,2.06-2.4,5.1,5.1,0,0,1,2.86-.88,4.75,4.75,0,0,1,3.81,1.65,6.65,6.65,0,0,1,1.41,4.48v.82h-9.42v.28A5.5,5.5,0,0,0,302,56.9a4.07,4.07,0,0,0,3.24,1.5,4.7,4.7,0,0,0,2.07-.43,4.6,4.6,0,0,0,1.63-1.37l.91.7A5.33,5.33,0,0,1,305.18,59.63Zm-.27-12.45a3.64,3.64,0,0,0-2.78,1.21,5.57,5.57,0,0,0-1.37,3.25h7.92v-.16a4.79,4.79,0,0,0-1.09-3.1A3.36,3.36,0,0,0,304.91,47.18Z" transform="translate(-0.37 -2.38)"/><path class="cls-1" d="M314.31,46.18l0,2.15a4.88,4.88,0,0,1,1.84-1.8,5,5,0,0,1,2.44-.6q3.12,0,4,2.57a5,5,0,0,1,1.9-1.9,5.28,5.28,0,0,1,2.61-.67c2.83,0,4.28,1.55,4.33,4.64v8.82H330V50.68a3.94,3.94,0,0,0-.76-2.62,3.13,3.13,0,0,0-2.45-.86,3.91,3.91,0,0,0-2.66,1,3.59,3.59,0,0,0-1.21,2.43v8.74h-1.47V50.57a3.55,3.55,0,0,0-.8-2.53,3.16,3.16,0,0,0-2.42-.84,3.72,3.72,0,0,0-2.37.79,4.6,4.6,0,0,0-1.46,2.34v9.06H312.9V46.18Z" transform="translate(-0.37 -2.38)"/><path class="cls-1" d="M11.84,92.39H3.77l-1.83,5H.37L7.09,79.61H8.52l6.73,17.78H13.68Zm-7.6-1.27h7.12L7.8,81.44Z" transform="translate(-0.37 -2.38)"/><path class="cls-1" d="M19.15,97.39H17.69V78.64h1.46Z" transform="translate(-0.37 -2.38)"/><path class="cls-1" d="M25.39,80.8v3.38h2.74v1.2H25.39v8.81a2.68,2.68,0,0,0,.4,1.63,1.52,1.52,0,0,0,1.32.54,9.29,9.29,0,0,0,1.19-.12l.06,1.19a5.08,5.08,0,0,1-1.57.2,2.59,2.59,0,0,1-2.18-.87,4.08,4.08,0,0,1-.68-2.57V85.38H21.5v-1.2h2.43V80.8Z" transform="translate(-0.37 -2.38)"/><path class="cls-1" d="M35.69,90.16H29.85V88.93h5.84Z" transform="translate(-0.37 -2.38)"/><path class="cls-1" d="M38.22,80.36a1,1,0,0,1,.27-.69,1,1,0,0,1,.73-.29,1,1,0,0,1,.74.29,1,1,0,0,1,0,1.39,1,1,0,0,1-.74.27.93.93,0,0,1-1-1Zm1.72,17H38.48V84.18h1.46Z" transform="translate(-0.37 -2.38)"/><path class="cls-1" d="M48.45,90.16H42.6V88.93h5.85Z" transform="translate(-0.37 -2.38)"/><path class="cls-1" d="M56.18,97.63a5.77,5.77,0,0,1-3-.83A5.64,5.64,0,0,1,51,94.49a7.28,7.28,0,0,1-.75-3.33v-.52A7.78,7.78,0,0,1,51,87.21a5.91,5.91,0,0,1,2.06-2.4,5.1,5.1,0,0,1,2.86-.88,4.75,4.75,0,0,1,3.81,1.65,6.65,6.65,0,0,1,1.41,4.48v.82H51.71v.28A5.5,5.5,0,0,0,53,94.9a4.09,4.09,0,0,0,3.24,1.5A4.7,4.7,0,0,0,58.31,96a4.6,4.6,0,0,0,1.63-1.37l.91.7A5.33,5.33,0,0,1,56.18,97.63Zm-.27-12.45a3.64,3.64,0,0,0-2.78,1.21,5.57,5.57,0,0,0-1.37,3.25h7.92v-.16a4.79,4.79,0,0,0-1.09-3.1A3.36,3.36,0,0,0,55.91,85.18Z" transform="translate(-0.37 -2.38)"/><path class="cls-1" d="M65.37,84.18l0,2.26a5.08,5.08,0,0,1,1.85-1.86,4.81,4.81,0,0,1,2.46-.65,4,4,0,0,1,3.16,1.2,5.43,5.43,0,0,1,1,3.59v8.67H72.49V88.71a4,4,0,0,0-.76-2.64,2.93,2.93,0,0,0-2.36-.87,3.75,3.75,0,0,0-2.4.85,5,5,0,0,0-1.54,2.29v9H64V84.18Z" transform="translate(-0.37 -2.38)"/><path class="cls-1" d="M85.42,97.39H84V78.64h1.46Z" transform="translate(-0.37 -2.38)"/><path class="cls-1" d="M88.57,90.59a7.78,7.78,0,0,1,.74-3.43,5.55,5.55,0,0,1,5.15-3.23,5.94,5.94,0,0,1,2.61.59l1-2h1.15L98,85.06a5.78,5.78,0,0,1,1.78,2.3,8,8,0,0,1,.64,3.23V91a7.72,7.72,0,0,1-.75,3.44,5.44,5.44,0,0,1-2.09,2.37,5.69,5.69,0,0,1-3,.83,6,6,0,0,1-2.44-.5l-1,2H89.93l1.21-2.48a5.62,5.62,0,0,1-1.89-2.32A7.77,7.77,0,0,1,88.57,91ZM90,91a7,7,0,0,0,.43,2.5,4.61,4.61,0,0,0,1.28,1.91l4.74-9.7a4,4,0,0,0-2-.52,3.92,3.92,0,0,0-3.2,1.53,6.21,6.21,0,0,0-1.23,4Zm8.87-.4a6.86,6.86,0,0,0-.4-2.37,5.08,5.08,0,0,0-1.17-1.88L92.6,96a4.13,4.13,0,0,0,1.88.42,3.9,3.9,0,0,0,3.19-1.52,6.17,6.17,0,0,0,1.23-4Z" transform="translate(-0.37 -2.38)"/><path class="cls-1" d="M111.22,94a2.08,2.08,0,0,0-.88-1.75,6.68,6.68,0,0,0-2.63-1A11.88,11.88,0,0,1,105,90.4a3.61,3.61,0,0,1-1.44-1.18,2.89,2.89,0,0,1-.47-1.68,3.14,3.14,0,0,1,1.3-2.59,5.29,5.29,0,0,1,3.35-1,5.41,5.41,0,0,1,3.54,1.1,3.52,3.52,0,0,1,1.34,2.85h-1.47a2.35,2.35,0,0,0-1-1.93,4.38,4.38,0,0,0-4.76-.13,2,2,0,0,0-.87,1.67,1.78,1.78,0,0,0,.73,1.53,7.62,7.62,0,0,0,2.65,1,12.49,12.49,0,0,1,2.88,1,3.7,3.7,0,0,1,1.42,1.23,3.4,3.4,0,0,1-.89,4.42,5.74,5.74,0,0,1-3.52,1,5.88,5.88,0,0,1-3.74-1.12,3.41,3.41,0,0,1-1.43-2.82h1.46a2.54,2.54,0,0,0,1.08,2,4.38,4.38,0,0,0,2.63.72,4.22,4.22,0,0,0,2.47-.67A2,2,0,0,0,111.22,94Z" transform="translate(-0.37 -2.38)"/><path class="cls-1" d="M117.36,84.18l0,2.26a5.08,5.08,0,0,1,1.85-1.86,4.81,4.81,0,0,1,2.46-.65,4,4,0,0,1,3.16,1.2,5.43,5.43,0,0,1,1.05,3.59v8.67h-1.46V88.71a4,4,0,0,0-.75-2.64,2.93,2.93,0,0,0-2.36-.87,3.75,3.75,0,0,0-2.4.85,5,5,0,0,0-1.54,2.29v9H116V84.18Z" transform="translate(-0.37 -2.38)"/><path class="cls-1" d="M129.61,80.36a1,1,0,0,1,.27-.69,1.08,1.08,0,0,1,1.47,0,1,1,0,0,1,0,1.39,1.14,1.14,0,0,1-1.47,0A1,1,0,0,1,129.61,80.36Zm1.72,17h-1.46V84.18h1.46Z" transform="translate(-0.37 -2.38)"/><path class="cls-1" d="M136.69,84.18l.05,2.26a5.18,5.18,0,0,1,1.86-1.86,4.8,4.8,0,0,1,2.45-.65,3.94,3.94,0,0,1,3.16,1.2,5.43,5.43,0,0,1,1,3.59v8.67h-1.45V88.71a4.07,4.07,0,0,0-.75-2.64,2.93,2.93,0,0,0-2.36-.87,3.71,3.71,0,0,0-2.4.85,5,5,0,0,0-1.55,2.29v9H135.3V84.18Z" transform="translate(-0.37 -2.38)"/><path class="cls-1" d="M148.45,90.66a8,8,0,0,1,1.37-4.91,4.44,4.44,0,0,1,3.73-1.82,4.59,4.59,0,0,1,4.1,2.15l.08-1.9h1.36V97.12a5.59,5.59,0,0,1-1.42,4,5.14,5.14,0,0,1-3.87,1.49,5.88,5.88,0,0,1-2.63-.62,5.11,5.11,0,0,1-2-1.64l.82-.88a4.63,4.63,0,0,0,3.69,1.91,3.74,3.74,0,0,0,2.85-1.09,4.28,4.28,0,0,0,1.07-3V95.68a4.73,4.73,0,0,1-4.09,1.95,4.41,4.41,0,0,1-3.69-1.83,8,8,0,0,1-1.39-4.94Zm1.48.26a6.84,6.84,0,0,0,1,4,3.27,3.27,0,0,0,2.86,1.46,3.9,3.9,0,0,0,3.82-2.42V87.8a4.18,4.18,0,0,0-1.48-1.93,4,4,0,0,0-2.32-.67A3.33,3.33,0,0,0,151,86.65,7.42,7.42,0,0,0,149.93,90.92Z" transform="translate(-0.37 -2.38)"/></g></g></svg>