<svg xmlns="http://www.w3.org/2000/svg" viewBox="0 0 261.94 26.35"><defs><style>.cls-1{fill:#fff;}</style></defs><title>Asset 7text</title><g id="Layer_2" data-name="Layer 2"><g id="Layer_1-2" data-name="Layer 1"><path class="cls-1" d="M16.76,7.37h-6.1V24H6.56V7.37h-6V4.05H16.76Z" transform="translate(-0.55 -3.29)"/><path class="cls-1" d="M15.38,16.42a8.66,8.66,0,0,1,.85-3.92,6.19,6.19,0,0,1,2.44-2.67,7.09,7.09,0,0,1,3.7-.94,6.73,6.73,0,0,1,4.88,1.83,7.34,7.34,0,0,1,2.12,5l0,1a7.71,7.71,0,0,1-1.9,5.46,6.59,6.59,0,0,1-5.1,2.06,6.65,6.65,0,0,1-5.1-2.05,7.89,7.89,0,0,1-1.91-5.58Zm3.95.28a5.48,5.48,0,0,0,.8,3.22A2.58,2.58,0,0,0,22.39,21a2.65,2.65,0,0,0,2.25-1.1,6.13,6.13,0,0,0,.8-3.53,5.52,5.52,0,0,0-.8-3.2,2.63,2.63,0,0,0-2.27-1.14,2.57,2.57,0,0,0-2.24,1.13A6.16,6.16,0,0,0,19.33,16.7Z" transform="translate(-0.55 -3.29)"/><path class="cls-1" d="M35.53,9.16l.13,1.65a5.19,5.19,0,0,1,4.25-1.92,4,4,0,0,1,3.92,2.25,5.09,5.09,0,0,1,4.45-2.25,4.4,4.4,0,0,1,3.58,1.4A6.46,6.46,0,0,1,53,14.51V24h-4V14.52a2.87,2.87,0,0,0-.49-1.84,2.18,2.18,0,0,0-1.74-.58,2.46,2.46,0,0,0-2.46,1.69V24h-4V14.53a2.85,2.85,0,0,0-.5-1.86,2.24,2.24,0,0,0-1.73-.57,2.55,2.55,0,0,0-2.43,1.39V24h-4V9.16Z" transform="translate(-0.55 -3.29)"/><path class="cls-1" d="M64.64,24a4.58,4.58,0,0,1-.4-1.32,4.79,4.79,0,0,1-3.73,1.6A5.23,5.23,0,0,1,56.91,23a4.06,4.06,0,0,1-1.43-3.17,4.18,4.18,0,0,1,1.74-3.61,8.54,8.54,0,0,1,5-1.27h1.82v-.85a2.43,2.43,0,0,0-.53-1.64,2.06,2.06,0,0,0-1.66-.62,2.35,2.35,0,0,0-1.56.48,1.63,1.63,0,0,0-.57,1.31H55.81a4,4,0,0,1,.79-2.38,5.3,5.3,0,0,1,2.24-1.71,8.1,8.1,0,0,1,3.26-.62,6.44,6.44,0,0,1,4.34,1.37A4.8,4.8,0,0,1,68,14.12v6.42a7.1,7.1,0,0,0,.59,3.18V24Zm-3.27-2.74A3.43,3.43,0,0,0,63,20.82a2.57,2.57,0,0,0,1.09-1.05V17.23H62.6c-2,0-3,.68-3.15,2.05l0,.23A1.58,1.58,0,0,0,60,20.73,2,2,0,0,0,61.37,21.21Z" transform="translate(-0.55 -3.29)"/><path class="cls-1" d="M88.63,18.73A2.09,2.09,0,0,0,87.81,17a10.46,10.46,0,0,0-3-1.32,20.74,20.74,0,0,1-3.38-1.36q-3.39-1.83-3.39-4.93A4.84,4.84,0,0,1,79,6.46a6.05,6.05,0,0,1,2.61-2,9.94,9.94,0,0,1,3.83-.71,8.9,8.9,0,0,1,3.8.78,6,6,0,0,1,2.59,2.18,5.74,5.74,0,0,1,.92,3.2h-4.1a2.7,2.7,0,0,0-.86-2.13A3.53,3.53,0,0,0,85.37,7,3.72,3.72,0,0,0,83,7.68a2,2,0,0,0-.83,1.67,1.92,1.92,0,0,0,1,1.63,10.82,10.82,0,0,0,2.88,1.23,12.45,12.45,0,0,1,5.1,2.61,5.18,5.18,0,0,1,1.6,3.88,4.78,4.78,0,0,1-2,4.06,8.53,8.53,0,0,1-5.26,1.47,10.17,10.17,0,0,1-4.18-.84,6.58,6.58,0,0,1-2.88-2.31,5.88,5.88,0,0,1-1-3.39h4.11c0,2.2,1.32,3.3,3.94,3.3a3.77,3.77,0,0,0,2.28-.6A1.92,1.92,0,0,0,88.63,18.73Z" transform="translate(-0.55 -3.29)"/><path class="cls-1" d="M102.07,24.23a7.24,7.24,0,0,1-5.29-2,7.07,7.07,0,0,1-2-5.32v-.38a9,9,0,0,1,.86-4A6.34,6.34,0,0,1,98,9.84a6.83,6.83,0,0,1,3.61-.95,6.14,6.14,0,0,1,4.78,1.91,7.8,7.8,0,0,1,1.74,5.43v1.61H98.74a3.71,3.71,0,0,0,1.15,2.33,3.52,3.52,0,0,0,2.44.87,4.25,4.25,0,0,0,3.57-1.65l1.94,2.17a5.9,5.9,0,0,1-2.4,2A7.91,7.91,0,0,1,102.07,24.23Zm-.45-12.16a2.45,2.45,0,0,0-1.9.8,4.13,4.13,0,0,0-.94,2.28h5.5v-.32a2.93,2.93,0,0,0-.72-2A2.54,2.54,0,0,0,101.62,12.07Z" transform="translate(-0.55 -3.29)"/><path class="cls-1" d="M118.71,12.87a9.66,9.66,0,0,0-1.42-.11,2.9,2.9,0,0,0-2.94,1.51V24H110.4V9.16h3.73l.11,1.76a3.68,3.68,0,0,1,3.3-2,4.51,4.51,0,0,1,1.23.17Z" transform="translate(-0.55 -3.29)"/><path class="cls-1" d="M126.4,19.13l2.74-10h4.13l-5,14.79h-3.77l-5-14.79h4.13Z" transform="translate(-0.55 -3.29)"/><path class="cls-1" d="M135,5.33a1.93,1.93,0,0,1,.6-1.46,2.23,2.23,0,0,1,1.62-.58,2.25,2.25,0,0,1,1.61.58,1.93,1.93,0,0,1,.6,1.46,1.93,1.93,0,0,1-.61,1.48,2.24,2.24,0,0,1-1.6.57,2.26,2.26,0,0,1-1.61-.57A2,2,0,0,1,135,5.33ZM139.18,24h-4V9.16h4Z" transform="translate(-0.55 -3.29)"/><path class="cls-1" d="M148.59,21a2.58,2.58,0,0,0,1.77-.6,2.07,2.07,0,0,0,.71-1.6h3.71a5,5,0,0,1-.82,2.75,5.37,5.37,0,0,1-2.21,1.95,6.92,6.92,0,0,1-3.1.69,6.44,6.44,0,0,1-5-2,8,8,0,0,1-1.83-5.57v-.26a7.87,7.87,0,0,1,1.82-5.46,6.36,6.36,0,0,1,5-2,6.2,6.2,0,0,1,4.45,1.58,5.61,5.61,0,0,1,1.7,4.2h-3.71a2.67,2.67,0,0,0-.71-1.88,2.35,2.35,0,0,0-1.8-.72,2.39,2.39,0,0,0-2.09,1,5.82,5.82,0,0,0-.7,3.26v.41a5.85,5.85,0,0,0,.7,3.29A2.4,2.4,0,0,0,148.59,21Z" transform="translate(-0.55 -3.29)"/><path class="cls-1" d="M163.84,24.23a7.24,7.24,0,0,1-5.29-2,7.07,7.07,0,0,1-2.05-5.32v-.38a9,9,0,0,1,.86-4,6.34,6.34,0,0,1,2.44-2.7,6.83,6.83,0,0,1,3.61-.95,6.11,6.11,0,0,1,4.77,1.91,7.76,7.76,0,0,1,1.75,5.43v1.61h-9.42a3.71,3.71,0,0,0,1.15,2.33,3.52,3.52,0,0,0,2.44.87,4.27,4.27,0,0,0,3.57-1.65l1.94,2.17a5.9,5.9,0,0,1-2.4,2A8,8,0,0,1,163.84,24.23Zm-.45-12.16a2.49,2.49,0,0,0-1.91.8,4.2,4.2,0,0,0-.93,2.28H166v-.32a2.88,2.88,0,0,0-.71-2A2.54,2.54,0,0,0,163.39,12.07Z" transform="translate(-0.55 -3.29)"/><path class="cls-1" d="M185.49,16.69a8.85,8.85,0,0,1-1.56,5.48,5,5,0,0,1-4.19,2.06,4.61,4.61,0,0,1-3.62-1.56v7h-4V9.16h3.66l.14,1.45a4.65,4.65,0,0,1,3.75-1.72,5,5,0,0,1,4.25,2,9.13,9.13,0,0,1,1.52,5.58Zm-4-.28a5.82,5.82,0,0,0-.73-3.19,2.36,2.36,0,0,0-2.12-1.12,2.59,2.59,0,0,0-2.56,1.42v6.06A2.64,2.64,0,0,0,178.7,21Q181.54,21,181.53,16.41Z" transform="translate(-0.55 -3.29)"/><path class="cls-1" d="M196.5,24a4.3,4.3,0,0,1-.39-1.32,4.8,4.8,0,0,1-3.73,1.6A5.28,5.28,0,0,1,188.77,23a4.05,4.05,0,0,1-1.42-3.17,4.18,4.18,0,0,1,1.74-3.61,8.52,8.52,0,0,1,5-1.27h1.81v-.85a2.43,2.43,0,0,0-.52-1.64,2.08,2.08,0,0,0-1.66-.62,2.36,2.36,0,0,0-1.57.48,1.63,1.63,0,0,0-.57,1.31h-4a4,4,0,0,1,.8-2.38,5.18,5.18,0,0,1,2.24-1.71A8.05,8.05,0,0,1,194,8.89a6.42,6.42,0,0,1,4.34,1.37,4.81,4.81,0,0,1,1.61,3.86v6.42a7,7,0,0,0,.59,3.18V24Zm-3.26-2.74a3.39,3.39,0,0,0,1.61-.39,2.52,2.52,0,0,0,1.09-1.05V17.23h-1.47c-2,0-3,.68-3.16,2.05v.23a1.58,1.58,0,0,0,.52,1.22A2,2,0,0,0,193.24,21.21Z" transform="translate(-0.55 -3.29)"/><path class="cls-1" d="M211.26,12.87a9.69,9.69,0,0,0-1.43-.11c-1.49,0-2.47.5-2.93,1.51V24h-4V9.16h3.74l.11,1.76a3.66,3.66,0,0,1,3.29-2,4.4,4.4,0,0,1,1.23.17Z" transform="translate(-0.55 -3.29)"/><path class="cls-1" d="M218.57,5.52V9.16h2.53v2.9h-2.53v7.38a1.77,1.77,0,0,0,.32,1.18,1.61,1.61,0,0,0,1.2.35,6.59,6.59,0,0,0,1.16-.09v3a8,8,0,0,1-2.39.36c-2.77,0-4.19-1.4-4.24-4.2v-8h-2.16V9.16h2.16V5.52Z" transform="translate(-0.55 -3.29)"/><path class="cls-1" d="M226.94,9.16l.12,1.71a5.18,5.18,0,0,1,4.25-2,4.28,4.28,0,0,1,3.5,1.38A6.41,6.41,0,0,1,236,14.4V24h-4V14.49a2.51,2.51,0,0,0-.55-1.82,2.43,2.43,0,0,0-1.82-.57,2.72,2.72,0,0,0-2.5,1.42V24h-3.95V9.16Z" transform="translate(-0.55 -3.29)"/><path class="cls-1" d="M245.79,24.23a7.24,7.24,0,0,1-5.29-2,7.07,7.07,0,0,1-2.05-5.32v-.38a9,9,0,0,1,.86-4,6.34,6.34,0,0,1,2.44-2.7,6.82,6.82,0,0,1,3.6-.95,6.11,6.11,0,0,1,4.78,1.91,7.76,7.76,0,0,1,1.75,5.43v1.61h-9.42a3.66,3.66,0,0,0,1.15,2.33,3.51,3.51,0,0,0,2.44.87,4.27,4.27,0,0,0,3.57-1.65l1.94,2.17a5.9,5.9,0,0,1-2.4,2A8,8,0,0,1,245.79,24.23Zm-.45-12.16a2.49,2.49,0,0,0-1.91.8,4.12,4.12,0,0,0-.93,2.28H248v-.32a2.88,2.88,0,0,0-.71-2A2.54,2.54,0,0,0,245.34,12.07Z" transform="translate(-0.55 -3.29)"/><path class="cls-1" d="M262.43,12.87a9.66,9.66,0,0,0-1.42-.11c-1.5,0-2.48.5-2.94,1.51V24h-3.95V9.16h3.73l.11,1.76a3.66,3.66,0,0,1,3.29-2,4.53,4.53,0,0,1,1.24.17Z" transform="translate(-0.55 -3.29)"/></g></g></svg>