<svg xmlns="http://www.w3.org/2000/svg" viewBox="0 0 193.91 19.25"><defs><style>.cls-1{fill:#fff;}</style></defs><title>Asset 10text</title><g id="Layer_2" data-name="Layer 2"><g id="Layer_1-2" data-name="Layer 1"><path class="cls-1" d="M8.78,11.49a8.92,8.92,0,0,0-1.27-.1,2.59,2.59,0,0,0-2.63,1.35v8.65H1.35V8.18H4.69l.1,1.57A3.26,3.26,0,0,1,7.73,7.93a4,4,0,0,1,1.1.16Z" transform="translate(-1.35 -2.38)"/><path class="cls-1" d="M16.32,21.63a6.47,6.47,0,0,1-4.73-1.78A6.32,6.32,0,0,1,9.77,15.1v-.34a8,8,0,0,1,.76-3.56,5.7,5.7,0,0,1,2.18-2.42,6.19,6.19,0,0,1,3.22-.85A5.49,5.49,0,0,1,20.2,9.64a7,7,0,0,1,1.55,4.85v1.44H13.34a3.37,3.37,0,0,0,1,2.08,3.13,3.13,0,0,0,2.18.78,3.84,3.84,0,0,0,3.19-1.48l1.73,1.94A5.26,5.26,0,0,1,19.32,21,7,7,0,0,1,16.32,21.63Zm-.4-10.85a2.24,2.24,0,0,0-1.71.71,3.68,3.68,0,0,0-.83,2h4.91v-.29a2.64,2.64,0,0,0-.64-1.82A2.26,2.26,0,0,0,15.92,10.78Z" transform="translate(-1.35 -2.38)"/><path class="cls-1" d="M27,8.18l.11,1.52a4.62,4.62,0,0,1,3.8-1.77A3.83,3.83,0,0,1,34,9.17a5.67,5.67,0,0,1,1,3.68v8.54H31.55V12.94a2.32,2.32,0,0,0-.48-1.63,2.2,2.2,0,0,0-1.63-.51,2.44,2.44,0,0,0-2.23,1.27v9.32H23.68V8.18Z" transform="translate(-1.35 -2.38)"/><path class="cls-1" d="M41.2,9.62a4.41,4.41,0,0,1,3.53-1.69q4.29,0,4.35,5v8.46H45.56V13a2.47,2.47,0,0,0-.49-1.67,2.08,2.08,0,0,0-1.63-.55A2.39,2.39,0,0,0,41.2,12v9.39H37.67V2.64H41.2Z" transform="translate(-1.35 -2.38)"/><path class="cls-1" d="M51.2,14.66a7.86,7.86,0,0,1,.75-3.5,5.53,5.53,0,0,1,2.18-2.38,6.38,6.38,0,0,1,3.3-.85A6,6,0,0,1,61.8,9.57,6.59,6.59,0,0,1,63.68,14l0,.91A6.9,6.9,0,0,1,62,19.79a6.57,6.57,0,0,1-9.11,0,7,7,0,0,1-1.7-5Zm3.52.25a4.94,4.94,0,0,0,.71,2.88,2.54,2.54,0,0,0,4,0,5.38,5.38,0,0,0,.72-3.15,4.9,4.9,0,0,0-.72-2.86,2.36,2.36,0,0,0-2-1,2.31,2.31,0,0,0-2,1A5.49,5.49,0,0,0,54.72,14.91Z" transform="translate(-1.35 -2.38)"/><path class="cls-1" d="M69.6,21.39H66.06V2.64H69.6Z" transform="translate(-1.35 -2.38)"/><path class="cls-1" d="M72,14.69a7.92,7.92,0,0,1,1.39-4.92,4.47,4.47,0,0,1,3.79-1.84,4.05,4.05,0,0,1,3.18,1.45V2.64h3.54V21.39H80.68L80.5,20a4.12,4.12,0,0,1-3.39,1.65,4.48,4.48,0,0,1-3.74-1.84A8.18,8.18,0,0,1,72,14.69Zm3.53.26a5.23,5.23,0,0,0,.64,2.85,2.12,2.12,0,0,0,1.88,1,2.36,2.36,0,0,0,2.31-1.38V12.18A2.33,2.33,0,0,0,78,10.8Q75.49,10.8,75.49,15Z" transform="translate(-1.35 -2.38)"/><path class="cls-1" d="M93.75,17.74a1.14,1.14,0,0,0-.64-1,7.34,7.34,0,0,0-2.06-.67q-4.71-1-4.71-4A3.65,3.65,0,0,1,87.8,9.11a5.9,5.9,0,0,1,3.81-1.18,6.36,6.36,0,0,1,4,1.19,3.73,3.73,0,0,1,1.5,3.07H93.62a1.74,1.74,0,0,0-.49-1.25,2.08,2.08,0,0,0-1.53-.49,2.12,2.12,0,0,0-1.38.4,1.29,1.29,0,0,0-.49,1,1.08,1.08,0,0,0,.56.94,5.77,5.77,0,0,0,1.87.63,14.55,14.55,0,0,1,2.22.59c1.87.68,2.8,1.87,2.8,3.55a3.45,3.45,0,0,1-1.55,2.92,6.64,6.64,0,0,1-4,1.12A7.06,7.06,0,0,1,88.68,21a5,5,0,0,1-2-1.62,3.78,3.78,0,0,1-.74-2.23h3.35a1.83,1.83,0,0,0,.7,1.44,2.76,2.76,0,0,0,1.73.5,2.54,2.54,0,0,0,1.53-.39A1.17,1.17,0,0,0,93.75,17.74Z" transform="translate(-1.35 -2.38)"/><path class="cls-1" d="M111.35,14.9a8,8,0,0,1-1.35,5,4.49,4.49,0,0,1-3.79,1.78A4.13,4.13,0,0,1,102.78,20l-.16,1.41H99.45V2.64H103V9.36a4,4,0,0,1,3.21-1.43A4.55,4.55,0,0,1,110,9.71a8,8,0,0,1,1.37,5Zm-3.53-.25a5.31,5.31,0,0,0-.63-2.93,2.15,2.15,0,0,0-1.89-.92A2.32,2.32,0,0,0,103,12.18V17.4a2.36,2.36,0,0,0,2.34,1.39,2.18,2.18,0,0,0,2.25-1.69A8.75,8.75,0,0,0,107.82,14.65Z" transform="translate(-1.35 -2.38)"/><path class="cls-1" d="M119.6,21.63a6.49,6.49,0,0,1-4.73-1.78,6.36,6.36,0,0,1-1.82-4.75v-.34a8,8,0,0,1,.77-3.56A5.64,5.64,0,0,1,116,8.78a6.16,6.16,0,0,1,3.21-.85,5.49,5.49,0,0,1,4.27,1.71A7,7,0,0,1,125,14.49v1.44h-8.41a3.27,3.27,0,0,0,1,2.08,3.12,3.12,0,0,0,2.18.78A3.8,3.8,0,0,0,123,17.31l1.74,1.94A5.32,5.32,0,0,1,122.61,21,7.09,7.09,0,0,1,119.6,21.63Zm-.4-10.85a2.2,2.2,0,0,0-1.7.71,3.62,3.62,0,0,0-.84,2h4.91v-.29a2.64,2.64,0,0,0-.64-1.82A2.25,2.25,0,0,0,119.2,10.78Z" transform="translate(-1.35 -2.38)"/><path class="cls-1" d="M126.49,14.69a8,8,0,0,1,1.38-4.92,4.49,4.49,0,0,1,3.79-1.84,4.06,4.06,0,0,1,3.19,1.45V2.64h3.54V21.39H135.2L135,20a4.15,4.15,0,0,1-3.39,1.65,4.46,4.46,0,0,1-3.74-1.84A8.18,8.18,0,0,1,126.49,14.69ZM130,15a5.23,5.23,0,0,0,.64,2.85,2.11,2.11,0,0,0,1.88,1,2.37,2.37,0,0,0,2.31-1.38V12.18a2.33,2.33,0,0,0-2.28-1.38Q130,10.8,130,15Z" transform="translate(-1.35 -2.38)"/><path class="cls-1" d="M148.55,11.49a8.92,8.92,0,0,0-1.27-.1,2.59,2.59,0,0,0-2.63,1.35v8.65h-3.52V8.18h3.33l.1,1.57a3.26,3.26,0,0,1,2.94-1.82,4,4,0,0,1,1.1.16Z" transform="translate(-1.35 -2.38)"/><path class="cls-1" d="M150.22,4.76a1.77,1.77,0,0,1,.53-1.31,2.3,2.3,0,0,1,2.89,0,1.73,1.73,0,0,1,.53,1.31,1.73,1.73,0,0,1-.54,1.32,2.27,2.27,0,0,1-2.87,0A1.73,1.73,0,0,1,150.22,4.76ZM154,21.39h-3.54V8.18H154Z" transform="translate(-1.35 -2.38)"/><path class="cls-1" d="M157.84,21.39V10.77h-2V8.18h2V7.06a4.54,4.54,0,0,1,1.27-3.45,4.93,4.93,0,0,1,3.57-1.23,8.43,8.43,0,0,1,1.8.24l0,2.74a4.63,4.63,0,0,0-1.07-.11c-1.33,0-2,.62-2,1.87V8.18H164v2.59h-2.62V21.39Z" transform="translate(-1.35 -2.38)"/><path class="cls-1" d="M170.06,4.93V8.18h2.25v2.59h-2.25v6.59a1.55,1.55,0,0,0,.28,1.05,1.39,1.39,0,0,0,1.07.32,5.37,5.37,0,0,0,1-.09v2.67a7.35,7.35,0,0,1-2.14.32q-3.7,0-3.78-3.75V10.77H164.6V8.18h1.93V4.93Z" transform="translate(-1.35 -2.38)"/><path class="cls-1" d="M180.36,21.63a6.46,6.46,0,0,1-4.73-1.78,6.33,6.33,0,0,1-1.83-4.75v-.34a8,8,0,0,1,.77-3.56,5.64,5.64,0,0,1,2.18-2.42A6.17,6.17,0,0,1,180,7.93a5.46,5.46,0,0,1,4.26,1.71,7,7,0,0,1,1.56,4.85v1.44h-8.41a3.32,3.32,0,0,0,1,2.08,3.13,3.13,0,0,0,2.18.78,3.84,3.84,0,0,0,3.19-1.48l1.73,1.94A5.32,5.32,0,0,1,183.36,21,7,7,0,0,1,180.36,21.63ZM180,10.78a2.24,2.24,0,0,0-1.71.71,3.68,3.68,0,0,0-.83,2h4.9v-.29a2.59,2.59,0,0,0-.63-1.82A2.26,2.26,0,0,0,180,10.78Z" transform="translate(-1.35 -2.38)"/><path class="cls-1" d="M195.21,11.49a8.8,8.8,0,0,0-1.26-.1,2.59,2.59,0,0,0-2.63,1.35v8.65h-3.53V8.18h3.34l.09,1.57a3.28,3.28,0,0,1,2.94-1.82,3.9,3.9,0,0,1,1.1.16Z" transform="translate(-1.35 -2.38)"/></g></g></svg>