<svg xmlns="http://www.w3.org/2000/svg" viewBox="0 0 267.48 24.01"><defs><style>.cls-1{fill:#fff;}</style></defs><title>Asset 15text</title><g id="Layer_2" data-name="Layer 2"><g id="Layer_1-2" data-name="Layer 1"><path class="cls-1" d="M14.49,3.61V15.75a6.15,6.15,0,0,1-.79,3.12,5.22,5.22,0,0,1-2.21,2.05,7.24,7.24,0,0,1-3.26.71,6.46,6.46,0,0,1-4.5-1.53A5.61,5.61,0,0,1,2,15.86V3.61H3.47v12a4.59,4.59,0,0,0,1.28,3.48,4.76,4.76,0,0,0,3.48,1.24,4.76,4.76,0,0,0,3.47-1.24A4.63,4.63,0,0,0,13,15.65v-12Z" transform="translate(-1.98 -2.64)"/><path class="cls-1" d="M17.53,14.59a7.78,7.78,0,0,1,.74-3.43,5.55,5.55,0,0,1,5.14-3.23,5.47,5.47,0,0,1,4.28,1.85,7.15,7.15,0,0,1,1.63,4.91V15a7.73,7.73,0,0,1-.74,3.45A5.45,5.45,0,0,1,26.5,20.8a5.73,5.73,0,0,1-3.06.83,5.46,5.46,0,0,1-4.27-1.85,7.11,7.11,0,0,1-1.64-4.9ZM19,15a6,6,0,0,0,1.23,3.89,4.15,4.15,0,0,0,6.42,0,6.17,6.17,0,0,0,1.23-4v-.28a6.75,6.75,0,0,0-.56-2.77,4.53,4.53,0,0,0-1.58-2,4,4,0,0,0-2.32-.69,3.89,3.89,0,0,0-3.18,1.53,6.16,6.16,0,0,0-1.24,4Z" transform="translate(-1.98 -2.64)"/><path class="cls-1" d="M36.27,19.37l4-11.19h1.5L36.85,21.39H35.67l-5-13.21h1.5Z" transform="translate(-1.98 -2.64)"/><path class="cls-1" d="M49.13,21.63a5.76,5.76,0,0,1-3-.83A5.58,5.58,0,0,1,44,18.49a7.16,7.16,0,0,1-.76-3.33v-.52A7.78,7.78,0,0,1,44,11.21,5.83,5.83,0,0,1,46,8.81a5.09,5.09,0,0,1,2.85-.88,4.76,4.76,0,0,1,3.82,1.65,6.65,6.65,0,0,1,1.41,4.48v.82H44.67v.28A5.5,5.5,0,0,0,46,18.9a4.09,4.09,0,0,0,3.24,1.5A4.64,4.64,0,0,0,51.26,20a4.51,4.51,0,0,0,1.63-1.37l.92.7A5.34,5.34,0,0,1,49.13,21.63ZM48.86,9.18a3.63,3.63,0,0,0-2.77,1.21,5.58,5.58,0,0,0-1.38,3.25h7.93v-.16a4.85,4.85,0,0,0-1.09-3.1A3.36,3.36,0,0,0,48.86,9.18Z" transform="translate(-1.98 -2.64)"/><path class="cls-1" d="M63,9.42a6.2,6.2,0,0,0-1-.08,3.55,3.55,0,0,0-2.31.76,4.09,4.09,0,0,0-1.35,2.22v9.07H56.93V8.18h1.43l0,2.1a3.89,3.89,0,0,1,3.72-2.35,2.45,2.45,0,0,1,1,.16Z" transform="translate(-1.98 -2.64)"/><path class="cls-1" d="M73.25,18a2.1,2.1,0,0,0-.87-1.75,6.75,6.75,0,0,0-2.63-1A12.16,12.16,0,0,1,67,14.4a3.76,3.76,0,0,1-1.44-1.18,3,3,0,0,1-.47-1.68A3.15,3.15,0,0,1,66.42,9a5.26,5.26,0,0,1,3.34-1A5.42,5.42,0,0,1,73.31,9a3.52,3.52,0,0,1,1.34,2.85H73.18a2.35,2.35,0,0,0-1-1.93,3.84,3.84,0,0,0-2.45-.77,3.79,3.79,0,0,0-2.31.64,2,2,0,0,0-.87,1.67A1.8,1.8,0,0,0,67.3,13,7.79,7.79,0,0,0,70,14a12.49,12.49,0,0,1,2.88,1,3.74,3.74,0,0,1,1.43,1.23A3.23,3.23,0,0,1,74.72,18a3.17,3.17,0,0,1-1.35,2.67,5.74,5.74,0,0,1-3.52,1,5.87,5.87,0,0,1-3.74-1.12,3.42,3.42,0,0,1-1.44-2.82h1.47a2.49,2.49,0,0,0,1.08,2,4.38,4.38,0,0,0,2.63.72,4.17,4.17,0,0,0,2.46-.67A2,2,0,0,0,73.25,18Z" transform="translate(-1.98 -2.64)"/><path class="cls-1" d="M77.92,4.36a1,1,0,0,1,.27-.69.94.94,0,0,1,.73-.29,1,1,0,0,1,.74.29,1,1,0,0,1,.27.69,1,1,0,0,1-.27.7,1,1,0,0,1-.74.27.93.93,0,0,1-1-1Zm1.72,17H78.17V8.18h1.47Z" transform="translate(-1.98 -2.64)"/><path class="cls-1" d="M86.74,14.73l-1.67,1.62v5H83.61V2.64h1.46v12l1.38-1.49,5-5h1.85l-5.61,5.57,6.1,7.64H92.09Z" transform="translate(-1.98 -2.64)"/><path class="cls-1" d="M98.12,4.8V8.18h2.73v1.2H98.12v8.81a2.68,2.68,0,0,0,.4,1.63,1.52,1.52,0,0,0,1.32.54,9.29,9.29,0,0,0,1.19-.12l.06,1.19a5.08,5.08,0,0,1-1.57.2,2.59,2.59,0,0,1-2.18-.87,4.08,4.08,0,0,1-.68-2.57V9.38H94.23V8.18h2.43V4.8Z" transform="translate(-1.98 -2.64)"/><path class="cls-1" d="M105.52,21.39h-1.47V2.64h1.47Z" transform="translate(-1.98 -2.64)"/><path class="cls-1" d="M109.4,4.36a1,1,0,0,1,.27-.69,1,1,0,0,1,.73-.29,1,1,0,0,1,.74.29,1,1,0,0,1,.27.69,1,1,0,0,1-.27.7,1,1,0,0,1-.74.27.93.93,0,0,1-1-1Zm1.72,17h-1.46V8.18h1.46Z" transform="translate(-1.98 -2.64)"/><path class="cls-1" d="M114.5,14.66a7.91,7.91,0,0,1,1.38-4.91,4.41,4.41,0,0,1,3.72-1.82,4.62,4.62,0,0,1,4.11,2.15l.07-1.9h1.37V21.12a5.6,5.6,0,0,1-1.43,4,5.11,5.11,0,0,1-3.87,1.49,5.88,5.88,0,0,1-2.63-.62,5.08,5.08,0,0,1-2-1.64l.81-.88a4.65,4.65,0,0,0,3.69,1.91,3.77,3.77,0,0,0,2.86-1.09,4.28,4.28,0,0,0,1.06-3V19.68a4.73,4.73,0,0,1-4.09,1.95,4.41,4.41,0,0,1-3.69-1.83,8,8,0,0,1-1.39-4.94Zm1.48.26a6.92,6.92,0,0,0,1,4,3.27,3.27,0,0,0,2.86,1.46,3.89,3.89,0,0,0,3.82-2.42V11.8a4.18,4.18,0,0,0-1.48-1.93,4,4,0,0,0-2.32-.67A3.34,3.34,0,0,0,117,10.65,7.42,7.42,0,0,0,116,14.92Z" transform="translate(-1.98 -2.64)"/><path class="cls-1" d="M145.65,14.92a8,8,0,0,1-1.36,4.9,4.34,4.34,0,0,1-3.66,1.81,4.88,4.88,0,0,1-4.15-1.9v6.73H135V8.18h1.36l.07,1.87a4.69,4.69,0,0,1,4.14-2.12,4.39,4.39,0,0,1,3.72,1.8,8.21,8.21,0,0,1,1.34,5Zm-1.46-.26a6.82,6.82,0,0,0-1-4,3.33,3.33,0,0,0-2.89-1.47,3.85,3.85,0,0,0-3.78,2.53v6.34A3.86,3.86,0,0,0,138,19.8a4.31,4.31,0,0,0,2.3.6,3.33,3.33,0,0,0,2.88-1.47A7.4,7.4,0,0,0,144.19,14.66Z" transform="translate(-1.98 -2.64)"/><path class="cls-1" d="M150.52,21.39h-1.46V2.64h1.46Z" transform="translate(-1.98 -2.64)"/><path class="cls-1" d="M162.83,21.39a6.79,6.79,0,0,1-.28-1.85,5.07,5.07,0,0,1-2,1.55,6,6,0,0,1-2.52.54A4.4,4.4,0,0,1,155,20.57a3.45,3.45,0,0,1-1.18-2.69,3.54,3.54,0,0,1,1.6-3,7.73,7.73,0,0,1,4.48-1.12h2.65v-1.5a2.9,2.9,0,0,0-.88-2.23,3.6,3.6,0,0,0-2.54-.81,4,4,0,0,0-2.53.78,2.32,2.32,0,0,0-1,1.88h-1.46a3.39,3.39,0,0,1,1.46-2.73,5.65,5.65,0,0,1,3.6-1.16A5.15,5.15,0,0,1,162.68,9,4,4,0,0,1,164,12.12v6.25a7.71,7.71,0,0,0,.4,2.87v.15Zm-4.59-1.05a4.92,4.92,0,0,0,2.62-.71,4.15,4.15,0,0,0,1.68-1.89V14.83h-2.62a6.53,6.53,0,0,0-3.41.8,2.4,2.4,0,0,0-1.24,2.13,2.35,2.35,0,0,0,.83,1.84A3.09,3.09,0,0,0,158.24,20.34Z" transform="translate(-1.98 -2.64)"/><path class="cls-1" d="M169.27,8.18l0,2.26a5.18,5.18,0,0,1,1.86-1.86,4.8,4.8,0,0,1,2.45-.65,3.94,3.94,0,0,1,3.16,1.2,5.32,5.32,0,0,1,1.05,3.59v8.67h-1.45V12.71a4.07,4.07,0,0,0-.75-2.64,2.93,2.93,0,0,0-2.36-.87,3.75,3.75,0,0,0-2.4.85,4.93,4.93,0,0,0-1.54,2.29v9.05h-1.46V8.18Z" transform="translate(-1.98 -2.64)"/><path class="cls-1" d="M183.25,21.39h-1.46V2.64h1.46Z" transform="translate(-1.98 -2.64)"/><path class="cls-1" d="M192.33,21.63a5.76,5.76,0,0,1-3-.83,5.64,5.64,0,0,1-2.12-2.31,7.29,7.29,0,0,1-.76-3.33v-.52a7.78,7.78,0,0,1,.74-3.43,5.83,5.83,0,0,1,2.06-2.4,5.09,5.09,0,0,1,2.85-.88,4.76,4.76,0,0,1,3.82,1.65,6.65,6.65,0,0,1,1.41,4.48v.82h-9.42v.28a5.55,5.55,0,0,0,1.28,3.74,4.1,4.1,0,0,0,3.25,1.5,4.63,4.63,0,0,0,2.06-.43,4.43,4.43,0,0,0,1.63-1.37l.92.7A5.33,5.33,0,0,1,192.33,21.63Zm-.27-12.45a3.63,3.63,0,0,0-2.77,1.21,5.64,5.64,0,0,0-1.38,3.25h7.93v-.16a4.85,4.85,0,0,0-1.09-3.1A3.36,3.36,0,0,0,192.06,9.18Z" transform="translate(-1.98 -2.64)"/><path class="cls-1" d="M199.55,14.66a8,8,0,0,1,1.37-4.91,4.44,4.44,0,0,1,3.73-1.82,4.59,4.59,0,0,1,4.1,2.15l.08-1.9h1.36V21.12a5.59,5.59,0,0,1-1.42,4,5.14,5.14,0,0,1-3.87,1.49,6,6,0,0,1-2.64-.62,5.15,5.15,0,0,1-2-1.64l.82-.88a4.63,4.63,0,0,0,3.69,1.91,3.74,3.74,0,0,0,2.85-1.09,4.28,4.28,0,0,0,1.07-3V19.68a4.73,4.73,0,0,1-4.09,1.95,4.41,4.41,0,0,1-3.69-1.83,8,8,0,0,1-1.39-4.94Zm1.47.26a6.84,6.84,0,0,0,1,4,3.26,3.26,0,0,0,2.86,1.46,3.9,3.9,0,0,0,3.82-2.42V11.8a4.25,4.25,0,0,0-1.48-1.93,4,4,0,0,0-2.32-.67,3.33,3.33,0,0,0-2.87,1.45A7.41,7.41,0,0,0,201,14.92Z" transform="translate(-1.98 -2.64)"/><path class="cls-1" d="M213.42,14.66a7.91,7.91,0,0,1,1.37-4.91,4.43,4.43,0,0,1,3.73-1.82,4.6,4.6,0,0,1,4.1,2.15l.07-1.9h1.37V21.12a5.6,5.6,0,0,1-1.43,4,5.11,5.11,0,0,1-3.87,1.49,5.91,5.91,0,0,1-2.63-.62,5.15,5.15,0,0,1-2-1.64l.82-.88a4.62,4.62,0,0,0,3.68,1.91,3.74,3.74,0,0,0,2.86-1.09,4.28,4.28,0,0,0,1.06-3V19.68a4.72,4.72,0,0,1-4.09,1.95,4.38,4.38,0,0,1-3.68-1.83,8,8,0,0,1-1.39-4.94Zm1.47.26a6.84,6.84,0,0,0,1,4,3.24,3.24,0,0,0,2.85,1.46,3.89,3.89,0,0,0,3.82-2.42V11.8a4.16,4.16,0,0,0-1.47-1.93,4,4,0,0,0-2.32-.67,3.33,3.33,0,0,0-2.87,1.45A7.33,7.33,0,0,0,214.89,14.92Z" transform="translate(-1.98 -2.64)"/><path class="cls-1" d="M227.78,4.36a1,1,0,0,1,1-1,1,1,0,0,1,.74.29.94.94,0,0,1,.28.69.94.94,0,0,1-.28.7,1.14,1.14,0,0,1-1.47,0A1,1,0,0,1,227.78,4.36Zm1.72,17H228V8.18h1.46Z" transform="translate(-1.98 -2.64)"/><path class="cls-1" d="M234.86,8.18l0,2.26a5.18,5.18,0,0,1,1.86-1.86,4.8,4.8,0,0,1,2.45-.65,3.94,3.94,0,0,1,3.16,1.2,5.38,5.38,0,0,1,1.05,3.59v8.67H242V12.71a4.07,4.07,0,0,0-.75-2.64,2.93,2.93,0,0,0-2.36-.87,3.71,3.71,0,0,0-2.4.85,4.93,4.93,0,0,0-1.54,2.29v9.05h-1.46V8.18Z" transform="translate(-1.98 -2.64)"/><path class="cls-1" d="M246.62,14.66A8,8,0,0,1,248,9.75a4.44,4.44,0,0,1,3.73-1.82,4.59,4.59,0,0,1,4.1,2.15l.08-1.9h1.36V21.12a5.59,5.59,0,0,1-1.42,4A5.14,5.14,0,0,1,252,26.65a6,6,0,0,1-2.64-.62,5.15,5.15,0,0,1-2-1.64l.82-.88a4.63,4.63,0,0,0,3.69,1.91,3.74,3.74,0,0,0,2.85-1.09,4.28,4.28,0,0,0,1.07-3V19.68a4.73,4.73,0,0,1-4.09,1.95A4.41,4.41,0,0,1,248,19.8a8,8,0,0,1-1.39-4.94Zm1.48.26a6.84,6.84,0,0,0,1,4A3.26,3.26,0,0,0,252,20.36a3.9,3.9,0,0,0,3.82-2.42V11.8a4.25,4.25,0,0,0-1.48-1.93A4,4,0,0,0,252,9.2a3.33,3.33,0,0,0-2.87,1.45A7.42,7.42,0,0,0,248.1,14.92Z" transform="translate(-1.98 -2.64)"/><path class="cls-1" d="M263.76,16.44a6.09,6.09,0,0,1,.39-2.31,6.84,6.84,0,0,1,1.57-2.07,14.77,14.77,0,0,0,1.56-1.68,4.11,4.11,0,0,0,.54-1.09A4.58,4.58,0,0,0,268,7.94a3.38,3.38,0,0,0-.82-2.39,2.93,2.93,0,0,0-2.26-.87,3.3,3.3,0,0,0-2.36.83,3,3,0,0,0-.92,2.27h-1.46a4.19,4.19,0,0,1,1.36-3.21,4.85,4.85,0,0,1,3.38-1.2,4.47,4.47,0,0,1,3.31,1.22,4.53,4.53,0,0,1,1.22,3.33,5.27,5.27,0,0,1-.6,2.47,10.87,10.87,0,0,1-2.27,2.69,4.13,4.13,0,0,0-1.38,3.36Zm-.2,4.09a1,1,0,0,1,.26-.71,1.09,1.09,0,0,1,1.48,0,1,1,0,0,1,.28.71,1,1,0,0,1-.28.68,1.15,1.15,0,0,1-1.48,0A1,1,0,0,1,263.56,20.53Z" transform="translate(-1.98 -2.64)"/></g></g></svg>