<svg xmlns="http://www.w3.org/2000/svg" viewBox="0 0 331.75 24.01"><defs><style>.cls-1{fill:#fff;}</style></defs><title>Asset 14text</title><g id="Layer_2" data-name="Layer 2"><g id="Layer_1-2" data-name="Layer 1"><path class="cls-1" d="M4.24,3.61,10.79,19.3,17.37,3.61h2V21.39h-1.5V13.65L18,5.71,11.38,21.39H10.22L3.63,5.77l.12,7.83v7.79H2.25V3.61Z" transform="translate(-2.25 -2.64)"/><path class="cls-1" d="M31.87,21.39a7.21,7.21,0,0,1-.28-1.85,5,5,0,0,1-2,1.55,6,6,0,0,1-2.52.54A4.4,4.4,0,0,1,24,20.57a3.45,3.45,0,0,1-1.18-2.69,3.55,3.55,0,0,1,1.61-3,7.7,7.7,0,0,1,4.47-1.12h2.65v-1.5A2.89,2.89,0,0,0,30.71,10a3.61,3.61,0,0,0-2.55-.81,4,4,0,0,0-2.53.78,2.34,2.34,0,0,0-1,1.88H23.17a3.41,3.41,0,0,1,1.46-2.73,5.65,5.65,0,0,1,3.6-1.16A5.13,5.13,0,0,1,31.72,9,4,4,0,0,1,33,12.12v6.25a7.93,7.93,0,0,0,.4,2.87v.15Zm-4.59-1.05a4.92,4.92,0,0,0,2.62-.71,4.15,4.15,0,0,0,1.68-1.89V14.83H29a6.54,6.54,0,0,0-3.42.8,2.41,2.41,0,0,0-1.23,2.13,2.34,2.34,0,0,0,.82,1.84A3.09,3.09,0,0,0,27.28,20.34Z" transform="translate(-2.25 -2.64)"/><path class="cls-1" d="M38.32,8.18l0,2.26a5.08,5.08,0,0,1,1.85-1.86,4.81,4.81,0,0,1,2.46-.65,4,4,0,0,1,3.16,1.2,5.43,5.43,0,0,1,1,3.59v8.67H45.43V12.71a4,4,0,0,0-.75-2.64,2.93,2.93,0,0,0-2.36-.87,3.75,3.75,0,0,0-2.4.85,5,5,0,0,0-1.54,2.29v9.05H36.93V8.18Z" transform="translate(-2.25 -2.64)"/><path class="cls-1" d="M59.16,19.71a4.76,4.76,0,0,1-4.22,1.92,4.1,4.1,0,0,1-3.21-1.23,5.37,5.37,0,0,1-1.12-3.63V8.18h1.45v8.41q0,3.77,3,3.77t4-2.62V8.18H60.6V21.39H59.18Z" transform="translate(-2.25 -2.64)"/><path class="cls-1" d="M69.51,21.63a5.77,5.77,0,0,1-3.05-.83,5.64,5.64,0,0,1-2.12-2.31,7.28,7.28,0,0,1-.75-3.33v-.52a7.78,7.78,0,0,1,.73-3.43,5.91,5.91,0,0,1,2.06-2.4,5.1,5.1,0,0,1,2.86-.88,4.75,4.75,0,0,1,3.81,1.65,6.65,6.65,0,0,1,1.41,4.48v.82H65v.28a5.5,5.5,0,0,0,1.29,3.74,4.09,4.09,0,0,0,3.24,1.5A4.7,4.7,0,0,0,71.64,20a4.6,4.6,0,0,0,1.63-1.37l.91.7A5.33,5.33,0,0,1,69.51,21.63ZM69.24,9.18a3.64,3.64,0,0,0-2.78,1.21,5.57,5.57,0,0,0-1.37,3.25H73v-.16a4.79,4.79,0,0,0-1.09-3.1A3.36,3.36,0,0,0,69.24,9.18Z" transform="translate(-2.25 -2.64)"/><path class="cls-1" d="M78.94,21.39H77.48V2.64h1.46Z" transform="translate(-2.25 -2.64)"/><path class="cls-1" d="M84.55,21.39H83.08V2.64h1.47Z" transform="translate(-2.25 -2.64)"/><path class="cls-1" d="M93.63,21.63a5.77,5.77,0,0,1-3-.83,5.64,5.64,0,0,1-2.12-2.31,7.28,7.28,0,0,1-.75-3.33v-.52a7.64,7.64,0,0,1,.74-3.43,5.81,5.81,0,0,1,2-2.4,5.1,5.1,0,0,1,2.86-.88,4.75,4.75,0,0,1,3.81,1.65,6.65,6.65,0,0,1,1.41,4.48v.82H89.16v.28a5.5,5.5,0,0,0,1.29,3.74,4.09,4.09,0,0,0,3.24,1.5A4.7,4.7,0,0,0,95.76,20a4.51,4.51,0,0,0,1.63-1.37l.91.7A5.33,5.33,0,0,1,93.63,21.63ZM93.36,9.18a3.64,3.64,0,0,0-2.78,1.21,5.57,5.57,0,0,0-1.37,3.25h7.92v-.16A4.79,4.79,0,0,0,96,10.38,3.34,3.34,0,0,0,93.36,9.18Z" transform="translate(-2.25 -2.64)"/><path class="cls-1" d="M113.61,9.42a6.2,6.2,0,0,0-1-.08,3.55,3.55,0,0,0-2.31.76A4.21,4.21,0,0,0,109,12.32v9.07h-1.45V8.18h1.43l0,2.1a3.89,3.89,0,0,1,3.72-2.35,2.54,2.54,0,0,1,1,.16Z" transform="translate(-2.25 -2.64)"/><path class="cls-1" d="M123.77,21.39a6.79,6.79,0,0,1-.28-1.85,5.15,5.15,0,0,1-2,1.55,6.07,6.07,0,0,1-2.52.54,4.44,4.44,0,0,1-3.09-1.06,3.47,3.47,0,0,1-1.17-2.69,3.54,3.54,0,0,1,1.6-3,7.71,7.71,0,0,1,4.48-1.12h2.64v-1.5A2.89,2.89,0,0,0,122.6,10a3.6,3.6,0,0,0-2.54-.81,4,4,0,0,0-2.53.78,2.32,2.32,0,0,0-1,1.88h-1.47a3.4,3.4,0,0,1,1.47-2.73,5.63,5.63,0,0,1,3.6-1.16A5.12,5.12,0,0,1,123.61,9a4,4,0,0,1,1.32,3.08v6.25a7.71,7.71,0,0,0,.4,2.87v.15Zm-4.59-1.05a5,5,0,0,0,2.62-.71,4.18,4.18,0,0,0,1.67-1.89V14.83h-2.61a6.57,6.57,0,0,0-3.42.8,2.41,2.41,0,0,0-1.23,2.13A2.35,2.35,0,0,0,117,19.6,3.08,3.08,0,0,0,119.18,20.34Z" transform="translate(-2.25 -2.64)"/><path class="cls-1" d="M139.44,14.92a8,8,0,0,1-1.37,4.9,4.34,4.34,0,0,1-3.66,1.81,4.88,4.88,0,0,1-4.15-1.9v6.73h-1.45V8.18h1.35l.08,1.87a4.69,4.69,0,0,1,4.14-2.12,4.39,4.39,0,0,1,3.71,1.8,8.14,8.14,0,0,1,1.35,5ZM138,14.66a6.82,6.82,0,0,0-1-4A3.35,3.35,0,0,0,134,9.2a3.87,3.87,0,0,0-3.78,2.53v6.34a3.92,3.92,0,0,0,1.5,1.73,4.32,4.32,0,0,0,2.31.6,3.3,3.3,0,0,0,2.87-1.47A7.39,7.39,0,0,0,138,14.66Z" transform="translate(-2.25 -2.64)"/><path class="cls-1" d="M153.29,14.92a8,8,0,0,1-1.36,4.9,4.34,4.34,0,0,1-3.66,1.81,4.88,4.88,0,0,1-4.15-1.9v6.73h-1.46V8.18H144l.07,1.87a4.69,4.69,0,0,1,4.14-2.12A4.39,4.39,0,0,1,152,9.73a8.21,8.21,0,0,1,1.34,5Zm-1.46-.26a6.82,6.82,0,0,0-1-4A3.33,3.33,0,0,0,147.9,9.2a3.85,3.85,0,0,0-3.78,2.53v6.34a3.86,3.86,0,0,0,1.5,1.73,4.31,4.31,0,0,0,2.3.6,3.33,3.33,0,0,0,2.88-1.47A7.4,7.4,0,0,0,151.83,14.66Z" transform="translate(-2.25 -2.64)"/><path class="cls-1" d="M155.72,14.59a7.78,7.78,0,0,1,.74-3.43,5.55,5.55,0,0,1,5.15-3.23,5.43,5.43,0,0,1,4.27,1.85,7.16,7.16,0,0,1,1.64,4.91V15a7.87,7.87,0,0,1-.74,3.45,5.51,5.51,0,0,1-2.08,2.36,5.76,5.76,0,0,1-3.07.83,5.43,5.43,0,0,1-4.26-1.85,7.07,7.07,0,0,1-1.65-4.9Zm1.47.4a6,6,0,0,0,1.23,3.89,4.15,4.15,0,0,0,6.42,0,6.17,6.17,0,0,0,1.22-4v-.28a6.59,6.59,0,0,0-.56-2.77,4.51,4.51,0,0,0-1.57-2,4,4,0,0,0-2.32-.69,3.91,3.91,0,0,0-3.19,1.53,6.21,6.21,0,0,0-1.23,4Z" transform="translate(-2.25 -2.64)"/><path class="cls-1" d="M176.64,9.42a6.2,6.2,0,0,0-1-.08,3.58,3.58,0,0,0-2.32.76A4.13,4.13,0,0,0,172,12.32v9.07h-1.46V8.18H172l0,2.1a3.89,3.89,0,0,1,3.72-2.35,2.45,2.45,0,0,1,1,.16Z" transform="translate(-2.25 -2.64)"/><path class="cls-1" d="M181.82,4.8V8.18h2.74v1.2h-2.74v8.81a2.75,2.75,0,0,0,.4,1.63,1.53,1.53,0,0,0,1.32.54,9.29,9.29,0,0,0,1.19-.12l.06,1.19a5,5,0,0,1-1.56.2,2.63,2.63,0,0,1-2.19-.87,4.15,4.15,0,0,1-.68-2.57V9.38h-2.43V8.18h2.43V4.8Z" transform="translate(-2.25 -2.64)"/><path class="cls-1" d="M192.7,21.63a5.79,5.79,0,0,1-3-.83,5.62,5.62,0,0,1-2.11-2.31,7.16,7.16,0,0,1-.76-3.33v-.52a7.78,7.78,0,0,1,.74-3.43,5.83,5.83,0,0,1,2.06-2.4,5.07,5.07,0,0,1,2.85-.88,4.77,4.77,0,0,1,3.82,1.65,6.65,6.65,0,0,1,1.41,4.48v.82h-9.43v.28a5.5,5.5,0,0,0,1.29,3.74,4.09,4.09,0,0,0,3.24,1.5,4.7,4.7,0,0,0,2.07-.43,4.51,4.51,0,0,0,1.63-1.37l.92.7A5.36,5.36,0,0,1,192.7,21.63Zm-.27-12.45a3.65,3.65,0,0,0-2.78,1.21,5.57,5.57,0,0,0-1.37,3.25h7.92v-.16a4.84,4.84,0,0,0-1.08-3.1A3.38,3.38,0,0,0,192.43,9.18Z" transform="translate(-2.25 -2.64)"/><path class="cls-1" d="M206.6,9.42a6.17,6.17,0,0,0-1-.08,3.56,3.56,0,0,0-2.32.76A4.21,4.21,0,0,0,202,12.32v9.07H200.5V8.18h1.43l0,2.1a3.91,3.91,0,0,1,3.73-2.35,2.52,2.52,0,0,1,1,.16Z" transform="translate(-2.25 -2.64)"/><path class="cls-1" d="M208.83,4.36a1,1,0,0,1,.26-.69,1,1,0,0,1,.74-.29,1,1,0,0,1,.74.29,1,1,0,0,1,.27.69,1,1,0,0,1-.27.7,1,1,0,0,1-.74.27,1,1,0,0,1-.74-.27A1,1,0,0,1,208.83,4.36Zm1.72,17h-1.47V8.18h1.47Z" transform="translate(-2.25 -2.64)"/><path class="cls-1" d="M215.91,8.18l0,2.26a5.18,5.18,0,0,1,1.86-1.86,4.8,4.8,0,0,1,2.45-.65,3.94,3.94,0,0,1,3.16,1.2,5.32,5.32,0,0,1,1.05,3.59v8.67H223V12.71a4.07,4.07,0,0,0-.75-2.64,2.93,2.93,0,0,0-2.36-.87,3.75,3.75,0,0,0-2.4.85A4.93,4.93,0,0,0,216,12.34v9.05h-1.46V8.18Z" transform="translate(-2.25 -2.64)"/><path class="cls-1" d="M227.66,14.66A8,8,0,0,1,229,9.75a4.44,4.44,0,0,1,3.73-1.82,4.62,4.62,0,0,1,4.11,2.15l.07-1.9h1.37V21.12a5.6,5.6,0,0,1-1.43,4A5.13,5.13,0,0,1,233,26.65a5.88,5.88,0,0,1-2.63-.62,5.08,5.08,0,0,1-2-1.64l.81-.88a4.65,4.65,0,0,0,3.69,1.91,3.77,3.77,0,0,0,2.86-1.09,4.32,4.32,0,0,0,1.06-3V19.68a4.73,4.73,0,0,1-4.09,1.95,4.41,4.41,0,0,1-3.69-1.83,8,8,0,0,1-1.39-4.94Zm1.48.26a6.92,6.92,0,0,0,1,4A3.27,3.27,0,0,0,233,20.36a3.89,3.89,0,0,0,3.82-2.42V11.8a4.18,4.18,0,0,0-1.48-1.93A4,4,0,0,0,233,9.2a3.34,3.34,0,0,0-2.87,1.45A7.42,7.42,0,0,0,229.14,14.92Z" transform="translate(-2.25 -2.64)"/><path class="cls-1" d="M250,18a2.1,2.1,0,0,0-.87-1.75,6.75,6.75,0,0,0-2.63-1,12.16,12.16,0,0,1-2.73-.85,3.76,3.76,0,0,1-1.44-1.18,3,3,0,0,1-.47-1.68A3.15,3.15,0,0,1,243.19,9a5.26,5.26,0,0,1,3.34-1A5.42,5.42,0,0,1,250.08,9a3.52,3.52,0,0,1,1.34,2.85H250A2.35,2.35,0,0,0,249,10a3.84,3.84,0,0,0-2.45-.77,3.79,3.79,0,0,0-2.31.64,2,2,0,0,0-.87,1.67,1.8,1.8,0,0,0,.72,1.53,7.79,7.79,0,0,0,2.65,1,12.49,12.49,0,0,1,2.88,1A3.74,3.74,0,0,1,251,16.21a3.23,3.23,0,0,1,.46,1.75,3.17,3.17,0,0,1-1.35,2.67,5.74,5.74,0,0,1-3.52,1,5.87,5.87,0,0,1-3.74-1.12,3.42,3.42,0,0,1-1.44-2.82h1.47a2.49,2.49,0,0,0,1.08,2,4.38,4.38,0,0,0,2.63.72,4.17,4.17,0,0,0,2.46-.67A2,2,0,0,0,250,18Z" transform="translate(-2.25 -2.64)"/><path class="cls-1" d="M260.88,9.42a6.2,6.2,0,0,0-1-.08,3.58,3.58,0,0,0-2.32.76,4.13,4.13,0,0,0-1.34,2.22v9.07h-1.46V8.18h1.43l0,2.1A3.89,3.89,0,0,1,260,7.93a2.45,2.45,0,0,1,1,.16Z" transform="translate(-2.25 -2.64)"/><path class="cls-1" d="M271.68,19.71a4.74,4.74,0,0,1-4.21,1.92,4.07,4.07,0,0,1-3.21-1.23,5.32,5.32,0,0,1-1.13-3.63V8.18h1.46v8.41c0,2.51,1,3.77,3.05,3.77s3.45-.87,4-2.62V8.18h1.47V21.39H271.7Z" transform="translate(-2.25 -2.64)"/><path class="cls-1" d="M279.19,4.8V8.18h2.73v1.2h-2.73v8.81a2.76,2.76,0,0,0,.39,1.63,1.55,1.55,0,0,0,1.33.54,9.18,9.18,0,0,0,1.18-.12l.06,1.19a5,5,0,0,1-1.56.2,2.59,2.59,0,0,1-2.18-.87,4.08,4.08,0,0,1-.69-2.57V9.38h-2.43V8.18h2.43V4.8Z" transform="translate(-2.25 -2.64)"/><path class="cls-1" d="M284.86,4.36a1,1,0,0,1,.27-.69,1,1,0,0,1,.73-.29,1,1,0,0,1,.74.29.94.94,0,0,1,.28.69.94.94,0,0,1-.28.7,1,1,0,0,1-.74.27.93.93,0,0,1-1-1Zm1.72,17h-1.46V8.18h1.46Z" transform="translate(-2.25 -2.64)"/><path class="cls-1" d="M291.94,8.18l.05,2.26a5.18,5.18,0,0,1,1.86-1.86,4.8,4.8,0,0,1,2.45-.65,3.94,3.94,0,0,1,3.16,1.2,5.43,5.43,0,0,1,1.05,3.59v8.67h-1.45V12.71a4.07,4.07,0,0,0-.75-2.64A2.93,2.93,0,0,0,296,9.2a3.71,3.71,0,0,0-2.4.85A5,5,0,0,0,292,12.34v9.05h-1.45V8.18Z" transform="translate(-2.25 -2.64)"/><path class="cls-1" d="M309.4,21.63a5.79,5.79,0,0,1-3-.83,5.62,5.62,0,0,1-2.11-2.31,7.16,7.16,0,0,1-.76-3.33v-.52a7.64,7.64,0,0,1,.74-3.43,5.88,5.88,0,0,1,2-2.4,5.1,5.1,0,0,1,2.86-.88A4.79,4.79,0,0,1,313,9.58a6.69,6.69,0,0,1,1.4,4.48v.82h-9.42v.28a5.5,5.5,0,0,0,1.29,3.74,4.09,4.09,0,0,0,3.24,1.5,4.7,4.7,0,0,0,2.07-.43,4.51,4.51,0,0,0,1.63-1.37l.91.7A5.33,5.33,0,0,1,309.4,21.63Zm-.27-12.45a3.65,3.65,0,0,0-2.78,1.21A5.57,5.57,0,0,0,305,13.64h7.92v-.16a4.84,4.84,0,0,0-1.08-3.1A3.38,3.38,0,0,0,309.13,9.18Z" transform="translate(-2.25 -2.64)"/><path class="cls-1" d="M323.3,9.42a6.2,6.2,0,0,0-1-.08,3.55,3.55,0,0,0-2.31.76,4.21,4.21,0,0,0-1.35,2.22v9.07H317.2V8.18h1.43l0,2.1a3.9,3.9,0,0,1,3.73-2.35,2.52,2.52,0,0,1,1,.16Z" transform="translate(-2.25 -2.64)"/><path class="cls-1" d="M328.3,16.44a6.09,6.09,0,0,1,.39-2.31,6.84,6.84,0,0,1,1.57-2.07,14.77,14.77,0,0,0,1.56-1.68,3.8,3.8,0,0,0,.53-1.09,4.27,4.27,0,0,0,.19-1.35,3.38,3.38,0,0,0-.81-2.39,2.93,2.93,0,0,0-2.26-.87,3.29,3.29,0,0,0-2.36.83,3,3,0,0,0-.93,2.27h-1.45a4.19,4.19,0,0,1,1.36-3.21,4.84,4.84,0,0,1,3.38-1.2,4.47,4.47,0,0,1,3.31,1.22A4.53,4.53,0,0,1,334,7.92a5.27,5.27,0,0,1-.6,2.47,10.87,10.87,0,0,1-2.27,2.69,4.13,4.13,0,0,0-1.38,3.36Zm-.2,4.09a1,1,0,0,1,.26-.71,1,1,0,0,1,.74-.29,1,1,0,0,1,.74.29,1,1,0,0,1,.27.71.94.94,0,0,1-.27.68,1,1,0,0,1-.74.27,1,1,0,0,1-.74-.27A1,1,0,0,1,328.1,20.53Z" transform="translate(-2.25 -2.64)"/></g></g></svg>