<svg xmlns="http://www.w3.org/2000/svg" viewBox="0 0 330.29 24.67"><defs><style>.cls-1{fill:#fff;}</style></defs><title>Asset 13text</title><g id="Layer_2" data-name="Layer 2"><g id="Layer_1-2" data-name="Layer 1"><path class="cls-1" d="M14.31,4.88H8.22V21.39H6.71V4.88H.63V3.61H14.31Z" transform="translate(-0.63 -1.98)"/><path class="cls-1" d="M16.75,4.36A1,1,0,0,1,17,3.67a1,1,0,0,1,.73-.29,1,1,0,0,1,.74.29,1,1,0,0,1,.27.69,1,1,0,0,1-.27.7,1,1,0,0,1-.74.27.93.93,0,0,1-1-1Zm1.72,17H17V8.18h1.47Z" transform="translate(-0.63 -1.98)"/><path class="cls-1" d="M21.85,14.66a8,8,0,0,1,1.37-4.9A4.42,4.42,0,0,1,27,7.93,4.6,4.6,0,0,1,31,10.05V2.64h1.45V21.39H31.12l-.07-1.76a4.71,4.71,0,0,1-4.12,2,4.39,4.39,0,0,1-3.68-1.84,8,8,0,0,1-1.4-5Zm1.48.26a6.92,6.92,0,0,0,1,4,3.27,3.27,0,0,0,2.86,1.46A3.92,3.92,0,0,0,31,18v-6.2A3.91,3.91,0,0,0,27.22,9.2a3.34,3.34,0,0,0-2.87,1.45A7.42,7.42,0,0,0,23.33,14.92Z" transform="translate(-0.63 -1.98)"/><path class="cls-1" d="M44.24,18a2.1,2.1,0,0,0-.87-1.75,6.8,6.8,0,0,0-2.64-1A11.88,11.88,0,0,1,38,14.4a3.61,3.61,0,0,1-1.44-1.18,2.89,2.89,0,0,1-.47-1.68A3.14,3.14,0,0,1,37.4,9a5.29,5.29,0,0,1,3.35-1A5.41,5.41,0,0,1,44.29,9a3.52,3.52,0,0,1,1.34,2.85H44.17a2.36,2.36,0,0,0-1-1.93,4.38,4.38,0,0,0-4.76-.13,2,2,0,0,0-.87,1.67A1.78,1.78,0,0,0,38.29,13a7.62,7.62,0,0,0,2.65,1,12.49,12.49,0,0,1,2.88,1,3.7,3.7,0,0,1,1.42,1.23A3.15,3.15,0,0,1,45.7,18a3.17,3.17,0,0,1-1.35,2.67,5.72,5.72,0,0,1-3.52,1,5.88,5.88,0,0,1-3.74-1.12,3.41,3.41,0,0,1-1.43-2.82h1.46a2.54,2.54,0,0,0,1.08,2,4.4,4.4,0,0,0,2.63.72,4.22,4.22,0,0,0,2.47-.67A2,2,0,0,0,44.24,18Z" transform="translate(-0.63 -1.98)"/><path class="cls-1" d="M52.12,14.73l-1.67,1.62v5H49V2.64h1.46v12l1.38-1.49,5.05-5h1.85l-5.6,5.57,6.09,7.64H57.47Z" transform="translate(-0.63 -1.98)"/><path class="cls-1" d="M67.33,9.42a6.17,6.17,0,0,0-1-.08A3.56,3.56,0,0,0,64,10.1a4.21,4.21,0,0,0-1.35,2.22v9.07H61.23V8.18h1.43l0,2.1a3.91,3.91,0,0,1,3.73-2.35,2.52,2.52,0,0,1,1,.16Z" transform="translate(-0.63 -1.98)"/><path class="cls-1" d="M74.52,21.63a5.76,5.76,0,0,1-3-.83,5.58,5.58,0,0,1-2.12-2.31,7.29,7.29,0,0,1-.76-3.33v-.52a7.78,7.78,0,0,1,.74-3.43,5.83,5.83,0,0,1,2.06-2.4,5.1,5.1,0,0,1,2.86-.88,4.75,4.75,0,0,1,3.81,1.65,6.65,6.65,0,0,1,1.41,4.48v.82H70.06v.28a5.55,5.55,0,0,0,1.28,3.74,4.09,4.09,0,0,0,3.24,1.5A4.64,4.64,0,0,0,76.65,20a4.43,4.43,0,0,0,1.63-1.37l.92.7A5.33,5.33,0,0,1,74.52,21.63ZM74.26,9.18a3.64,3.64,0,0,0-2.78,1.21,5.64,5.64,0,0,0-1.38,3.25H78v-.16a4.85,4.85,0,0,0-1.09-3.1A3.36,3.36,0,0,0,74.26,9.18Z" transform="translate(-0.63 -1.98)"/><path class="cls-1" d="M86.28,19.37l4-11.19h1.5L86.87,21.39H85.68l-5-13.21h1.5Z" transform="translate(-0.63 -1.98)"/><path class="cls-1" d="M99.15,21.63a5.77,5.77,0,0,1-3.05-.83A5.64,5.64,0,0,1,94,18.49a7.28,7.28,0,0,1-.75-3.33v-.52A7.78,7.78,0,0,1,94,11.21,5.91,5.91,0,0,1,96,8.81a5.1,5.1,0,0,1,2.86-.88,4.75,4.75,0,0,1,3.81,1.65,6.65,6.65,0,0,1,1.41,4.48v.82H94.68v.28A5.5,5.5,0,0,0,96,18.9a4.07,4.07,0,0,0,3.24,1.5,4.7,4.7,0,0,0,2.07-.43,4.6,4.6,0,0,0,1.63-1.37l.91.7A5.33,5.33,0,0,1,99.15,21.63ZM98.88,9.18a3.64,3.64,0,0,0-2.78,1.21,5.57,5.57,0,0,0-1.37,3.25h7.92v-.16a4.79,4.79,0,0,0-1.09-3.1A3.36,3.36,0,0,0,98.88,9.18Z" transform="translate(-0.63 -1.98)"/><path class="cls-1" d="M108.34,8.18l0,2.26a5.08,5.08,0,0,1,1.85-1.86,4.81,4.81,0,0,1,2.46-.65,4,4,0,0,1,3.16,1.2,5.43,5.43,0,0,1,1,3.59v8.67h-1.46V12.71a4,4,0,0,0-.75-2.64,2.93,2.93,0,0,0-2.36-.87,3.75,3.75,0,0,0-2.4.85,5,5,0,0,0-1.54,2.29v9.05H107V8.18Z" transform="translate(-0.63 -1.98)"/><path class="cls-1" d="M120.09,14.66a7.94,7.94,0,0,1,1.38-4.9,4.4,4.4,0,0,1,3.73-1.83,4.58,4.58,0,0,1,4.07,2.12V2.64h1.46V21.39h-1.37l-.06-1.76a4.73,4.73,0,0,1-4.13,2,4.39,4.39,0,0,1-3.68-1.84,8,8,0,0,1-1.4-5Zm1.48.26a6.92,6.92,0,0,0,1,4,3.27,3.27,0,0,0,2.86,1.46A3.92,3.92,0,0,0,129.27,18v-6.2a3.89,3.89,0,0,0-3.81-2.58,3.31,3.31,0,0,0-2.86,1.45A7.33,7.33,0,0,0,121.57,14.92Z" transform="translate(-0.63 -1.98)"/><path class="cls-1" d="M139.69,21.63a5.77,5.77,0,0,1-3.05-.83,5.64,5.64,0,0,1-2.12-2.31,7.29,7.29,0,0,1-.76-3.33v-.52a7.78,7.78,0,0,1,.74-3.43,5.83,5.83,0,0,1,2.06-2.4,5.1,5.1,0,0,1,2.86-.88,4.75,4.75,0,0,1,3.81,1.65,6.65,6.65,0,0,1,1.41,4.48v.82h-9.42v.28a5.55,5.55,0,0,0,1.28,3.74,4.1,4.1,0,0,0,3.25,1.5,4.63,4.63,0,0,0,2.06-.43,4.43,4.43,0,0,0,1.63-1.37l.92.7A5.33,5.33,0,0,1,139.69,21.63Zm-.27-12.45a3.64,3.64,0,0,0-2.78,1.21,5.57,5.57,0,0,0-1.37,3.25h7.92v-.16a4.85,4.85,0,0,0-1.09-3.1A3.36,3.36,0,0,0,139.42,9.18Z" transform="translate(-0.63 -1.98)"/><path class="cls-1" d="M157.68,19.37l4-11.19h1.5l-4.93,13.21h-1.18l-5-13.21h1.5Z" transform="translate(-0.63 -1.98)"/><path class="cls-1" d="M165.5,4.36a1,1,0,0,1,.27-.69,1,1,0,0,1,.73-.29,1,1,0,0,1,.74.29.94.94,0,0,1,.28.69.94.94,0,0,1-.28.7,1,1,0,0,1-.74.27.93.93,0,0,1-1-1Zm1.72,17h-1.46V8.18h1.46Z" transform="translate(-0.63 -1.98)"/><path class="cls-1" d="M174.33,14.73l-1.67,1.62v5h-1.47V2.64h1.47v12L174,13.15l5.06-5h1.84l-5.6,5.57,6.09,7.64h-1.74Z" transform="translate(-0.63 -1.98)"/><path class="cls-1" d="M191.77,21.39a7.21,7.21,0,0,1-.28-1.85,5,5,0,0,1-2,1.55,6,6,0,0,1-2.52.54,4.4,4.4,0,0,1-3.08-1.06,3.45,3.45,0,0,1-1.18-2.69,3.55,3.55,0,0,1,1.61-3,7.7,7.7,0,0,1,4.47-1.12h2.65v-1.5a2.89,2.89,0,0,0-.87-2.23,3.63,3.63,0,0,0-2.55-.81,4,4,0,0,0-2.53.78,2.34,2.34,0,0,0-1,1.88h-1.46a3.41,3.41,0,0,1,1.46-2.73,5.65,5.65,0,0,1,3.6-1.16A5.13,5.13,0,0,1,191.62,9a4,4,0,0,1,1.31,3.08v6.25a7.68,7.68,0,0,0,.41,2.87v.15Zm-4.59-1.05a4.92,4.92,0,0,0,2.62-.71,4.15,4.15,0,0,0,1.68-1.89V14.83h-2.61a6.54,6.54,0,0,0-3.42.8,2.41,2.41,0,0,0-1.23,2.13A2.34,2.34,0,0,0,185,19.6,3.09,3.09,0,0,0,187.18,20.34Z" transform="translate(-0.63 -1.98)"/><path class="cls-1" d="M202.93,9.42a6.2,6.2,0,0,0-1-.08,3.55,3.55,0,0,0-2.31.76,4.21,4.21,0,0,0-1.35,2.22v9.07h-1.45V8.18h1.42l0,2.1A3.89,3.89,0,0,1,202,7.93a2.54,2.54,0,0,1,1,.16Z" transform="translate(-0.63 -1.98)"/><path class="cls-1" d="M206.69,10.41a5.12,5.12,0,0,1,1.84-1.83A4.86,4.86,0,0,1,211,7.93a4,4,0,0,1,3.16,1.2,5.43,5.43,0,0,1,1,3.59v8.67h-1.46V12.71a4,4,0,0,0-.75-2.64,2.93,2.93,0,0,0-2.36-.87,3.75,3.75,0,0,0-2.4.85,5,5,0,0,0-1.54,2.29v9.05h-1.45V2.64h1.45Z" transform="translate(-0.63 -1.98)"/><path class="cls-1" d="M227.3,21.39a7.14,7.14,0,0,1-.29-1.85,5,5,0,0,1-1.95,1.55,6.08,6.08,0,0,1-2.53.54,4.42,4.42,0,0,1-3.08-1.06,3.48,3.48,0,0,1-1.18-2.69,3.55,3.55,0,0,1,1.61-3,7.7,7.7,0,0,1,4.47-1.12H227v-1.5a2.89,2.89,0,0,0-.87-2.23,3.61,3.61,0,0,0-2.55-.81,4,4,0,0,0-2.52.78,2.32,2.32,0,0,0-1,1.88h-1.47a3.4,3.4,0,0,1,1.47-2.73,5.61,5.61,0,0,1,3.6-1.16A5.12,5.12,0,0,1,227.14,9a4,4,0,0,1,1.31,3.08v6.25a7.68,7.68,0,0,0,.41,2.87v.15Zm-4.59-1.05a4.91,4.91,0,0,0,2.61-.71A4.15,4.15,0,0,0,227,17.74V14.83h-2.61a6.54,6.54,0,0,0-3.42.8,2.41,2.41,0,0,0-1.23,2.13,2.34,2.34,0,0,0,.82,1.84A3.12,3.12,0,0,0,222.71,20.34Zm-.93-16a2.22,2.22,0,0,1,.69-1.65,2.39,2.39,0,0,1,3.32,0,2.19,2.19,0,0,1,.7,1.65,2.17,2.17,0,0,1-.67,1.62,2.48,2.48,0,0,1-3.37,0A2.17,2.17,0,0,1,221.78,4.3Zm.94,0a1.37,1.37,0,0,0,1.41,1.41,1.44,1.44,0,0,0,1-.39,1.39,1.39,0,0,0,.41-1,1.37,1.37,0,0,0-.43-1,1.39,1.39,0,0,0-1-.41,1.33,1.33,0,0,0-1,.42A1.39,1.39,0,0,0,222.72,4.3Z" transform="translate(-0.63 -1.98)"/><path class="cls-1" d="M233.74,8.18l0,2.26a5.1,5.1,0,0,1,1.86-1.86,4.77,4.77,0,0,1,2.45-.65,3.94,3.94,0,0,1,3.16,1.2,5.43,5.43,0,0,1,1.05,3.59v8.67h-1.45V12.71a4.07,4.07,0,0,0-.75-2.64,3,3,0,0,0-2.37-.87,3.7,3.7,0,0,0-2.39.85,5,5,0,0,0-1.55,2.29v9.05h-1.45V8.18Z" transform="translate(-0.63 -1.98)"/><path class="cls-1" d="M245.5,14.66a7.94,7.94,0,0,1,1.37-4.9,4.41,4.41,0,0,1,3.73-1.83,4.61,4.61,0,0,1,4.08,2.12V2.64h1.45V21.39h-1.37l-.06-1.76a4.73,4.73,0,0,1-4.13,2,4.39,4.39,0,0,1-3.68-1.84,8,8,0,0,1-1.39-5Zm1.47.26a6.84,6.84,0,0,0,1,4,3.24,3.24,0,0,0,2.85,1.46A3.94,3.94,0,0,0,254.68,18v-6.2a3.91,3.91,0,0,0-3.81-2.58A3.33,3.33,0,0,0,248,10.65,7.33,7.33,0,0,0,247,14.92Z" transform="translate(-0.63 -1.98)"/><path class="cls-1" d="M262.24,4.8V8.18H265v1.2h-2.74v8.81a2.75,2.75,0,0,0,.4,1.63,1.54,1.54,0,0,0,1.33.54,9.34,9.34,0,0,0,1.18-.12l.06,1.19a5,5,0,0,1-1.56.2,2.63,2.63,0,0,1-2.19-.87,4.15,4.15,0,0,1-.68-2.57V9.38h-2.43V8.18h2.43V4.8Z" transform="translate(-0.63 -1.98)"/><path class="cls-1" d="M273.12,21.63a5.79,5.79,0,0,1-3.05-.83A5.62,5.62,0,0,1,268,18.49a7.16,7.16,0,0,1-.76-3.33v-.52a7.78,7.78,0,0,1,.74-3.43A5.83,5.83,0,0,1,270,8.81a5.07,5.07,0,0,1,2.85-.88,4.77,4.77,0,0,1,3.82,1.65,6.65,6.65,0,0,1,1.41,4.48v.82h-9.43v.28a5.5,5.5,0,0,0,1.29,3.74,4.09,4.09,0,0,0,3.24,1.5,4.7,4.7,0,0,0,2.07-.43,4.51,4.51,0,0,0,1.63-1.37l.92.7A5.36,5.36,0,0,1,273.12,21.63Zm-.27-12.45a3.65,3.65,0,0,0-2.78,1.21,5.57,5.57,0,0,0-1.37,3.25h7.92v-.16a4.84,4.84,0,0,0-1.08-3.1A3.38,3.38,0,0,0,272.85,9.18Z" transform="translate(-0.63 -1.98)"/><path class="cls-1" d="M287,9.42a6.08,6.08,0,0,0-1-.08,3.56,3.56,0,0,0-2.32.76,4.21,4.21,0,0,0-1.35,2.22v9.07h-1.45V8.18h1.43l0,2.1a3.91,3.91,0,0,1,3.73-2.35,2.52,2.52,0,0,1,1,.16Z" transform="translate(-0.63 -1.98)"/><path class="cls-1" d="M289.25,4.36a1,1,0,0,1,.27-.69.94.94,0,0,1,.73-.29,1,1,0,0,1,.74.29,1,1,0,0,1,.27.69,1,1,0,0,1-.27.7,1,1,0,0,1-.74.27.93.93,0,0,1-1-1Zm1.72,17H289.5V8.18H291Z" transform="translate(-0.63 -1.98)"/><path class="cls-1" d="M296.33,8.18l0,2.26a5.18,5.18,0,0,1,1.86-1.86,4.8,4.8,0,0,1,2.45-.65,4,4,0,0,1,3.17,1.2,5.43,5.43,0,0,1,1,3.59v8.67h-1.46V12.71a4.07,4.07,0,0,0-.75-2.64,2.93,2.93,0,0,0-2.36-.87,3.75,3.75,0,0,0-2.4.85,4.93,4.93,0,0,0-1.54,2.29v9.05h-1.46V8.18Z" transform="translate(-0.63 -1.98)"/><path class="cls-1" d="M308.08,14.66a8,8,0,0,1,1.37-4.91,4.44,4.44,0,0,1,3.73-1.82,4.62,4.62,0,0,1,4.11,2.15l.07-1.9h1.37V21.12a5.6,5.6,0,0,1-1.43,4,5.11,5.11,0,0,1-3.87,1.49A5.88,5.88,0,0,1,310.8,26a5.08,5.08,0,0,1-2-1.64l.81-.88a4.65,4.65,0,0,0,3.69,1.91,3.77,3.77,0,0,0,2.86-1.09,4.32,4.32,0,0,0,1.06-3V19.68a4.73,4.73,0,0,1-4.09,1.95,4.41,4.41,0,0,1-3.69-1.83,8,8,0,0,1-1.39-4.94Zm1.48.26a6.92,6.92,0,0,0,1,4,3.27,3.27,0,0,0,2.86,1.46,3.89,3.89,0,0,0,3.82-2.42V11.8a4.18,4.18,0,0,0-1.48-1.93,4,4,0,0,0-2.32-.67,3.34,3.34,0,0,0-2.87,1.45A7.42,7.42,0,0,0,309.56,14.92Z" transform="translate(-0.63 -1.98)"/><path class="cls-1" d="M325.22,16.44a6.51,6.51,0,0,1,.39-2.31,6.73,6.73,0,0,1,1.58-2.07,15.38,15.38,0,0,0,1.55-1.68,4.11,4.11,0,0,0,.54-1.09,4.58,4.58,0,0,0,.19-1.35,3.38,3.38,0,0,0-.81-2.39,3,3,0,0,0-2.27-.87,3.32,3.32,0,0,0-2.36.83,3,3,0,0,0-.92,2.27h-1.45A4.15,4.15,0,0,1,323,4.57a4.85,4.85,0,0,1,3.38-1.2,4.49,4.49,0,0,1,3.32,1.22,4.53,4.53,0,0,1,1.21,3.33,5.27,5.27,0,0,1-.6,2.47,10.65,10.65,0,0,1-2.27,2.69,4.13,4.13,0,0,0-1.38,3.36Zm-.2,4.09a1,1,0,0,1,.27-.71,1.08,1.08,0,0,1,1.47,0,1,1,0,0,1,.28.71.91.91,0,0,1-.28.68,1.14,1.14,0,0,1-1.47,0A.94.94,0,0,1,325,20.53Z" transform="translate(-0.63 -1.98)"/></g></g></svg>