<svg xmlns="http://www.w3.org/2000/svg" viewBox="0 0 246.63 26.97"><defs><style>.cls-1{fill:#fff;}</style></defs><title>Asset 8text</title><g id="Layer_2" data-name="Layer 2"><g id="Layer_1-2" data-name="Layer 1"><path class="cls-1" d="M6.14,24H2V4.05h4.1Z" transform="translate(-2.04 -2.95)"/><path class="cls-1" d="M17.69,19.87A1.28,1.28,0,0,0,17,18.72a8.32,8.32,0,0,0-2.3-.74c-3.52-.74-5.28-2.23-5.28-4.49A4.06,4.06,0,0,1,11,10.21,6.58,6.58,0,0,1,15.3,8.89a7.09,7.09,0,0,1,4.5,1.32,4.19,4.19,0,0,1,1.69,3.45H17.54a1.88,1.88,0,0,0-.55-1.4,2.29,2.29,0,0,0-1.7-.56,2.37,2.37,0,0,0-1.55.45,1.46,1.46,0,0,0-.55,1.15,1.21,1.21,0,0,0,.63,1.06,6.39,6.39,0,0,0,2.09.7,18.22,18.22,0,0,1,2.49.66c2.09.77,3.13,2.09,3.13,4A3.89,3.89,0,0,1,19.8,23a7.55,7.55,0,0,1-4.49,1.25,7.84,7.84,0,0,1-3.3-.67,5.47,5.47,0,0,1-2.26-1.81,4.25,4.25,0,0,1-.82-2.5h3.74a2.07,2.07,0,0,0,.78,1.61,3.06,3.06,0,0,0,1.94.56A2.85,2.85,0,0,0,17.11,21,1.32,1.32,0,0,0,17.69,19.87Z" transform="translate(-2.04 -2.95)"/><path class="cls-1" d="M32.09,19.87a1.28,1.28,0,0,0-.72-1.15,8.57,8.57,0,0,0-2.3-.74c-3.52-.74-5.28-2.23-5.28-4.49a4,4,0,0,1,1.63-3.28A6.61,6.61,0,0,1,29.7,8.89a7.13,7.13,0,0,1,4.5,1.32,4.19,4.19,0,0,1,1.69,3.45H31.94a1.92,1.92,0,0,0-.55-1.4,2.3,2.3,0,0,0-1.71-.56,2.36,2.36,0,0,0-1.54.45,1.43,1.43,0,0,0-.55,1.15,1.22,1.22,0,0,0,.62,1.06,6.56,6.56,0,0,0,2.1.7,19,19,0,0,1,2.49.66c2.09.77,3.13,2.09,3.13,4A3.87,3.87,0,0,1,34.19,23a7.49,7.49,0,0,1-4.48,1.25,7.84,7.84,0,0,1-3.3-.67,5.56,5.56,0,0,1-2.27-1.81,4.32,4.32,0,0,1-.82-2.5h3.75a2.07,2.07,0,0,0,.78,1.61,3,3,0,0,0,1.94.56A2.85,2.85,0,0,0,31.51,21,1.34,1.34,0,0,0,32.09,19.87Z" transform="translate(-2.04 -2.95)"/><path class="cls-1" d="M57.68,15.82H49.81V24h-4.1V4.05h13V7.37H49.81v5.14h7.87Z" transform="translate(-2.04 -2.95)"/><path class="cls-1" d="M68.89,24a4.3,4.3,0,0,1-.39-1.32,4.82,4.82,0,0,1-3.74,1.6A5.23,5.23,0,0,1,61.16,23a4.06,4.06,0,0,1-1.43-3.17,4.17,4.17,0,0,1,1.75-3.61,8.51,8.51,0,0,1,5-1.27h1.82v-.85a2.43,2.43,0,0,0-.52-1.64,2.1,2.1,0,0,0-1.67-.62,2.35,2.35,0,0,0-1.56.48A1.63,1.63,0,0,0,64,13.6h-4a4,4,0,0,1,.79-2.38A5.28,5.28,0,0,1,63.1,9.51a8.05,8.05,0,0,1,3.25-.62,6.44,6.44,0,0,1,4.34,1.37,4.81,4.81,0,0,1,1.61,3.86v6.42a7.12,7.12,0,0,0,.58,3.18V24Zm-3.26-2.74a3.39,3.39,0,0,0,1.61-.39,2.57,2.57,0,0,0,1.09-1.05V17.23H66.86c-2,0-3,.68-3.16,2.05l0,.23a1.62,1.62,0,0,0,.52,1.22A2,2,0,0,0,65.63,21.21Z" transform="translate(-2.04 -2.95)"/><path class="cls-1" d="M81.48,21a2.59,2.59,0,0,0,1.78-.6,2.11,2.11,0,0,0,.71-1.6h3.71a5.12,5.12,0,0,1-.82,2.75,5.43,5.43,0,0,1-2.21,1.95,7,7,0,0,1-3.1.69,6.44,6.44,0,0,1-5-2,8,8,0,0,1-1.83-5.57v-.26a7.87,7.87,0,0,1,1.82-5.46,6.36,6.36,0,0,1,5-2A6.2,6.2,0,0,1,86,10.47a5.61,5.61,0,0,1,1.7,4.2H84a2.71,2.71,0,0,0-.71-1.88,2.37,2.37,0,0,0-1.8-.72,2.39,2.39,0,0,0-2.09,1,5.82,5.82,0,0,0-.7,3.26v.41a5.85,5.85,0,0,0,.7,3.29A2.39,2.39,0,0,0,81.48,21Z" transform="translate(-2.04 -2.95)"/><path class="cls-1" d="M89.91,5.33a1.92,1.92,0,0,1,.59-1.46,2.54,2.54,0,0,1,3.23,0,1.94,1.94,0,0,1,.61,1.46,2,2,0,0,1-.61,1.48,2.56,2.56,0,0,1-3.22,0A2,2,0,0,1,89.91,5.33ZM94.1,24h-4V9.16h4Z" transform="translate(-2.04 -2.95)"/><path class="cls-1" d="M101.53,24h-4V3h4Z" transform="translate(-2.04 -2.95)"/><path class="cls-1" d="M104.75,5.33a1.93,1.93,0,0,1,.6-1.46,2.54,2.54,0,0,1,3.23,0,1.93,1.93,0,0,1,.6,1.46,2,2,0,0,1-.6,1.48,2.56,2.56,0,0,1-3.22,0A2,2,0,0,1,104.75,5.33ZM109,24h-4V9.16h4Z" transform="translate(-2.04 -2.95)"/><path class="cls-1" d="M116.94,5.52V9.16h2.52v2.9h-2.52v7.38a1.78,1.78,0,0,0,.31,1.18,1.61,1.61,0,0,0,1.2.35,6.79,6.79,0,0,0,1.17-.09v3a8.12,8.12,0,0,1-2.4.36q-4.16,0-4.24-4.2v-8h-2.16V9.16H113V5.52Z" transform="translate(-2.04 -2.95)"/><path class="cls-1" d="M127.19,18.36l2.73-9.2h4.24l-5.95,17.09-.32.78a4.53,4.53,0,0,1-4.38,2.9,6.34,6.34,0,0,1-1.75-.26v-3l.6,0a3.35,3.35,0,0,0,1.68-.34,2.26,2.26,0,0,0,.87-1.14l.46-1.22L120.19,9.16h4.25Z" transform="translate(-2.04 -2.95)"/><path class="cls-1" d="M153.27,18.73a2.09,2.09,0,0,0-.82-1.78,10.46,10.46,0,0,0-2.95-1.32,20.74,20.74,0,0,1-3.38-1.36q-3.39-1.83-3.39-4.93a4.84,4.84,0,0,1,.91-2.88,6.05,6.05,0,0,1,2.61-2,9.94,9.94,0,0,1,3.83-.71,8.9,8.9,0,0,1,3.8.78,6,6,0,0,1,2.59,2.18,5.74,5.74,0,0,1,.92,3.2h-4.1a2.7,2.7,0,0,0-.86-2.13A3.53,3.53,0,0,0,150,7a3.72,3.72,0,0,0-2.34.64,2,2,0,0,0-.84,1.67,1.93,1.93,0,0,0,1,1.63,10.82,10.82,0,0,0,2.88,1.23,12.45,12.45,0,0,1,5.1,2.61,5.18,5.18,0,0,1,1.6,3.88,4.78,4.78,0,0,1-2,4.06,8.53,8.53,0,0,1-5.26,1.47,10.17,10.17,0,0,1-4.18-.84,6.58,6.58,0,0,1-2.88-2.31,5.88,5.88,0,0,1-1-3.39h4.11c0,2.2,1.32,3.3,3.94,3.3a3.77,3.77,0,0,0,2.28-.6A1.92,1.92,0,0,0,153.27,18.73Z" transform="translate(-2.04 -2.95)"/><path class="cls-1" d="M166.71,24.23a7.24,7.24,0,0,1-5.29-2,7.07,7.07,0,0,1-2-5.32v-.38a9,9,0,0,1,.86-4,6.34,6.34,0,0,1,2.44-2.7,6.83,6.83,0,0,1,3.61-.95,6.11,6.11,0,0,1,4.77,1.91,7.76,7.76,0,0,1,1.75,5.43v1.61h-9.42a3.71,3.71,0,0,0,1.15,2.33A3.52,3.52,0,0,0,167,21a4.25,4.25,0,0,0,3.57-1.65l1.94,2.17a5.9,5.9,0,0,1-2.4,2A7.91,7.91,0,0,1,166.71,24.23Zm-.45-12.16a2.45,2.45,0,0,0-1.9.8,4.13,4.13,0,0,0-.94,2.28h5.5v-.32a2.93,2.93,0,0,0-.72-2A2.54,2.54,0,0,0,166.26,12.07Z" transform="translate(-2.04 -2.95)"/><path class="cls-1" d="M183.35,12.87a9.66,9.66,0,0,0-1.42-.11A2.9,2.9,0,0,0,179,14.27V24h-4V9.16h3.73l.11,1.76a3.67,3.67,0,0,1,3.3-2,4.51,4.51,0,0,1,1.23.17Z" transform="translate(-2.04 -2.95)"/><path class="cls-1" d="M191,19.13l2.74-10h4.13l-5,14.79h-3.77l-5-14.79h4.13Z" transform="translate(-2.04 -2.95)"/><path class="cls-1" d="M199.62,5.33a1.93,1.93,0,0,1,.6-1.46,2.23,2.23,0,0,1,1.62-.58,2.25,2.25,0,0,1,1.61.58,1.93,1.93,0,0,1,.6,1.46,1.93,1.93,0,0,1-.61,1.48,2.24,2.24,0,0,1-1.6.57,2.26,2.26,0,0,1-1.61-.57A2,2,0,0,1,199.62,5.33ZM203.82,24h-4V9.16h4Z" transform="translate(-2.04 -2.95)"/><path class="cls-1" d="M213.23,21a2.56,2.56,0,0,0,1.77-.6,2.07,2.07,0,0,0,.71-1.6h3.71a5,5,0,0,1-.82,2.75,5.37,5.37,0,0,1-2.21,1.95,6.92,6.92,0,0,1-3.1.69,6.44,6.44,0,0,1-5-2,8,8,0,0,1-1.83-5.57v-.26a7.87,7.87,0,0,1,1.82-5.46,6.36,6.36,0,0,1,5-2,6.2,6.2,0,0,1,4.45,1.58,5.61,5.61,0,0,1,1.7,4.2h-3.71a2.67,2.67,0,0,0-.71-1.88,2.35,2.35,0,0,0-1.8-.72,2.39,2.39,0,0,0-2.09,1,5.82,5.82,0,0,0-.7,3.26v.41a5.85,5.85,0,0,0,.7,3.29A2.4,2.4,0,0,0,213.23,21Z" transform="translate(-2.04 -2.95)"/><path class="cls-1" d="M228.48,24.23a7.24,7.24,0,0,1-5.29-2,7.07,7.07,0,0,1-2.05-5.32v-.38a9,9,0,0,1,.86-4,6.34,6.34,0,0,1,2.44-2.7,6.83,6.83,0,0,1,3.61-.95,6.11,6.11,0,0,1,4.77,1.91,7.76,7.76,0,0,1,1.75,5.43v1.61h-9.42a3.71,3.71,0,0,0,1.15,2.33,3.52,3.52,0,0,0,2.44.87,4.25,4.25,0,0,0,3.57-1.65l1.94,2.17a5.9,5.9,0,0,1-2.4,2A8,8,0,0,1,228.48,24.23ZM228,12.07a2.45,2.45,0,0,0-1.9.8,4.13,4.13,0,0,0-.94,2.28h5.49v-.32a2.88,2.88,0,0,0-.71-2A2.54,2.54,0,0,0,228,12.07Z" transform="translate(-2.04 -2.95)"/><path class="cls-1" d="M244.82,19.87a1.28,1.28,0,0,0-.72-1.15,8.32,8.32,0,0,0-2.3-.74c-3.52-.74-5.28-2.23-5.28-4.49a4.06,4.06,0,0,1,1.64-3.28,6.58,6.58,0,0,1,4.27-1.32,7.09,7.09,0,0,1,4.5,1.32,4.19,4.19,0,0,1,1.69,3.45h-4a1.88,1.88,0,0,0-.55-1.4,2.29,2.29,0,0,0-1.7-.56,2.37,2.37,0,0,0-1.55.45,1.46,1.46,0,0,0-.55,1.15,1.21,1.21,0,0,0,.63,1.06,6.39,6.39,0,0,0,2.09.7,18.22,18.22,0,0,1,2.49.66c2.09.77,3.13,2.09,3.13,4A3.89,3.89,0,0,1,246.93,23a7.55,7.55,0,0,1-4.49,1.25,7.84,7.84,0,0,1-3.3-.67,5.47,5.47,0,0,1-2.26-1.81,4.25,4.25,0,0,1-.82-2.5h3.74a2.07,2.07,0,0,0,.78,1.61,3.06,3.06,0,0,0,1.94.56,2.85,2.85,0,0,0,1.72-.43A1.32,1.32,0,0,0,244.82,19.87Z" transform="translate(-2.04 -2.95)"/></g></g></svg>