<svg id="Layer_1" data-name="Layer 1" xmlns="http://www.w3.org/2000/svg" viewBox="0 0 980 300"><defs><style>.cls-1{fill:#010121;}</style></defs><title>text</title><path class="cls-1" d="M147.12,135h3.64v26.54h-3.64Z"/><path class="cls-1" d="M175.89,135v3.16h-8.95v23.38h-3.63V138.11h-8.94V135Z"/><path class="cls-1" d="M188.48,135h3.25v26.54h-3.25Z"/><path class="cls-1" d="M195.89,161.42,198.2,159a11,11,0,0,1-1.39-3,13.9,13.9,0,0,1-.49-3.94,12.13,12.13,0,0,1,2.3-7.28,7.74,7.74,0,0,1,6.7-3.19,9.22,9.22,0,0,1,4,.82,11.49,11.49,0,0,1,2.33,1.56l2.3-2.54.94.92-2.32,2.59a10.91,10.91,0,0,1,1.63,3.81,12.47,12.47,0,0,1,.31,2.78A11.54,11.54,0,0,1,212,159.2a8.36,8.36,0,0,1-6.75,3,10.12,10.12,0,0,1-3.57-.59,6.73,6.73,0,0,1-2.54-1.59l-2.19,2.3ZM208,145a6,6,0,0,0-2.52-.52,5,5,0,0,0-4.24,2.2,9.35,9.35,0,0,0-1.6,5.65,10.7,10.7,0,0,0,.28,2.5,14.63,14.63,0,0,0,.55,1.7l9.18-10.25A3.91,3.91,0,0,0,208,145ZM203.2,159a6.47,6.47,0,0,0,2.12.36,5,5,0,0,0,4.9-3.21,10.58,10.58,0,0,0,.88-4.45,12,12,0,0,0-.28-2.8,9.55,9.55,0,0,0-.5-1.48l-9,10.2A4.57,4.57,0,0,0,203.2,159Z"/><path class="cls-1" d="M221.14,155.42a4.73,4.73,0,0,0,.83,2.49c.84,1.05,2.29,1.57,4.35,1.57a6.59,6.59,0,0,0,3.25-.78,2.62,2.62,0,0,0,1.4-2.43,2.07,2.07,0,0,0-1.12-1.9,13.27,13.27,0,0,0-2.83-.92l-2.62-.65a12.71,12.71,0,0,1-3.71-1.38,4.08,4.08,0,0,1-2.13-3.65,5.55,5.55,0,0,1,2-4.44,8.11,8.11,0,0,1,5.4-1.7q4.42,0,6.39,2.57a5.57,5.57,0,0,1,1.19,3.5h-3.08a3.64,3.64,0,0,0-.79-2c-.76-.85-2.09-1.28-4-1.28a4.89,4.89,0,0,0-2.85.7,2.19,2.19,0,0,0-1,1.86,2.26,2.26,0,0,0,1.27,2,7.53,7.53,0,0,0,2.17.8l2.19.52a17.28,17.28,0,0,1,4.79,1.65,4.36,4.36,0,0,1,1.9,3.92,6,6,0,0,1-2,4.46c-1.32,1.25-3.34,1.88-6,1.88-2.92,0-5-.66-6.19-2a7.33,7.33,0,0,1-1.95-4.85Z"/><path class="cls-1" d="M237.71,142.14h3.09v2.74a8.51,8.51,0,0,1,2.91-2.43,7.65,7.65,0,0,1,3.41-.75c2.75,0,4.6,1,5.57,2.88a10.2,10.2,0,0,1,.79,4.5v12.41h-3.3v-12.2a6.56,6.56,0,0,0-.53-2.85,3.17,3.17,0,0,0-3.14-1.81,6.28,6.28,0,0,0-1.9.24,4.85,4.85,0,0,0-2.35,1.59,4.69,4.69,0,0,0-1,2,12.85,12.85,0,0,0-.25,2.92v10.14h-3.25Z"/><path class="cls-1" d="M258.29,135h3.3v3.68h-3.3Zm0,7.28h3.3v19.26h-3.3Z"/><path class="cls-1" d="M266.51,142.14h3.09v2.74a8.51,8.51,0,0,1,2.91-2.43,7.65,7.65,0,0,1,3.41-.75q4.13,0,5.56,2.88a10.18,10.18,0,0,1,.8,4.5v12.41H279v-12.2a6.57,6.57,0,0,0-.52-2.85,3.17,3.17,0,0,0-3.14-1.81,6.24,6.24,0,0,0-1.9.24,5.31,5.31,0,0,0-3.41,3.56,13.58,13.58,0,0,0-.24,2.92v10.14h-3.25Z"/><path class="cls-1" d="M297.84,142.92a8.68,8.68,0,0,1,1.87,1.84v-2.44h3v17.6a13,13,0,0,1-1.08,5.81q-2,3.95-7.61,3.94a9.38,9.38,0,0,1-5.25-1.4,5.47,5.47,0,0,1-2.37-4.38h3.3a3.71,3.71,0,0,0,.94,2,4.76,4.76,0,0,0,3.45,1.08q3.72,0,4.87-2.64a15.12,15.12,0,0,0,.63-5.54,6.43,6.43,0,0,1-2.34,2.2,7.79,7.79,0,0,1-3.62.72,7.7,7.7,0,0,1-5.48-2.23q-2.36-2.24-2.35-7.38,0-4.86,2.37-7.59a7.29,7.29,0,0,1,5.71-2.72A7,7,0,0,1,297.84,142.92Zm.4,3.48a4.73,4.73,0,0,0-3.76-1.73,4.64,4.64,0,0,0-4.67,3.21,12.78,12.78,0,0,0-.67,4.5,8,8,0,0,0,1.33,5,4.25,4.25,0,0,0,3.55,1.71,5,5,0,0,0,4.9-3.17,10.17,10.17,0,0,0,.79-4.17Q299.71,148.15,298.24,146.4Z"/><path class="cls-1" d="M319.61,142.67a7.34,7.34,0,0,1,2.93,2.5,8.58,8.58,0,0,1,1.29,3.42,22.51,22.51,0,0,1,.29,4.26H310.05a8.37,8.37,0,0,0,1.38,4.74,4.6,4.6,0,0,0,4,1.78,5.16,5.16,0,0,0,4-1.68,5.76,5.76,0,0,0,1.19-2.27h3.2a6.53,6.53,0,0,1-.84,2.37,8.57,8.57,0,0,1-1.59,2.14,7.42,7.42,0,0,1-3.64,1.95,10.67,10.67,0,0,1-2.64.29,8.06,8.06,0,0,1-6.08-2.62c-1.67-1.76-2.5-4.21-2.5-7.37a11.21,11.21,0,0,1,2.51-7.57,8.28,8.28,0,0,1,6.58-2.91A8.77,8.77,0,0,1,319.61,142.67Zm1.17,7.6a8.4,8.4,0,0,0-.92-3.38,4.65,4.65,0,0,0-4.42-2.35,4.9,4.9,0,0,0-3.73,1.62,6.16,6.16,0,0,0-1.59,4.11Z"/><path class="cls-1" d="M328.33,142.14h3.09v3.34a7.38,7.38,0,0,1,1.86-2.38,4.85,4.85,0,0,1,3.42-1.4l.3,0,.74.08v3.43a3.69,3.69,0,0,0-.53-.07,4.44,4.44,0,0,0-.53,0,4.63,4.63,0,0,0-3.78,1.58,5.51,5.51,0,0,0-1.32,3.64v11.13h-3.25Z"/><path class="cls-1" d="M352.77,155.42a4.73,4.73,0,0,0,.83,2.49c.84,1.05,2.29,1.57,4.36,1.57a6.53,6.53,0,0,0,3.24-.78,2.6,2.6,0,0,0,1.4-2.43,2.07,2.07,0,0,0-1.12-1.9,13.27,13.27,0,0,0-2.83-.92L356,152.8a12.83,12.83,0,0,1-3.71-1.38,4.08,4.08,0,0,1-2.13-3.65,5.53,5.53,0,0,1,2-4.44,8.06,8.06,0,0,1,5.39-1.7q4.43,0,6.39,2.57a5.52,5.52,0,0,1,1.19,3.5H362.1a3.73,3.73,0,0,0-.8-2c-.76-.85-2.09-1.28-4-1.28a4.89,4.89,0,0,0-2.85.7,2.19,2.19,0,0,0-1,1.86,2.26,2.26,0,0,0,1.27,2,7.53,7.53,0,0,0,2.17.8l2.2.52a17.18,17.18,0,0,1,4.78,1.65,4.33,4.33,0,0,1,1.9,3.92,5.92,5.92,0,0,1-2,4.46q-2,1.88-6,1.88c-2.92,0-5-.66-6.19-2a7.33,7.33,0,0,1-2-4.85Z"/><path class="cls-1" d="M383.36,144.07q2.56,2.49,2.57,7.33a12.66,12.66,0,0,1-2.26,7.72c-1.51,2-3.85,3-7,3a7.94,7.94,0,0,1-6.3-2.69,10.74,10.74,0,0,1-2.33-7.25,11.56,11.56,0,0,1,2.46-7.76,8.22,8.22,0,0,1,6.6-2.89A8.67,8.67,0,0,1,383.36,144.07Zm-2,12.86a12.33,12.33,0,0,0,1.19-5.44,9.76,9.76,0,0,0-.86-4.4,4.8,4.8,0,0,0-4.68-2.68,4.62,4.62,0,0,0-4.29,2.28,10.62,10.62,0,0,0-1.34,5.48,9.28,9.28,0,0,0,1.34,5.15,4.72,4.72,0,0,0,4.26,2.05A4.41,4.41,0,0,0,381.34,156.93Z"/><path class="cls-1" d="M389.92,142.14h3.21v2.74a10.56,10.56,0,0,1,2.1-2.07,6.27,6.27,0,0,1,3.65-1.11,5.74,5.74,0,0,1,3.72,1.14,6.18,6.18,0,0,1,1.45,1.92,7,7,0,0,1,2.54-2.31,7.14,7.14,0,0,1,3.29-.75q3.9,0,5.31,2.82a9.18,9.18,0,0,1,.76,4.09v12.88h-3.38V148.05a3.15,3.15,0,0,0-1-2.66,3.85,3.85,0,0,0-2.36-.72A4.7,4.7,0,0,0,406,146c-.92.86-1.38,2.28-1.38,4.28v11.26h-3.31V148.86a6.45,6.45,0,0,0-.47-2.87,2.84,2.84,0,0,0-2.76-1.36,4.76,4.76,0,0,0-3.35,1.43q-1.51,1.42-1.51,5.17v10.26h-3.25Z"/><path class="cls-1" d="M430.75,134.86h3.16v9.63a7.24,7.24,0,0,1,2.56-2.13,7.32,7.32,0,0,1,3.23-.73,7.57,7.57,0,0,1,5.88,2.49q2.26,2.48,2.26,7.32a12.54,12.54,0,0,1-2.23,7.63,7.26,7.26,0,0,1-6.19,3,6.34,6.34,0,0,1-3.73-1.06,9.08,9.08,0,0,1-1.94-2v2.48h-3Zm12.43,22.27a10.23,10.23,0,0,0,1.32-5.52,9,9,0,0,0-1.32-5.06,4.32,4.32,0,0,0-3.87-2,5.38,5.38,0,0,0-3.9,1.65q-1.68,1.63-1.68,5.42a11.91,11.91,0,0,0,.69,4.42,4.76,4.76,0,0,0,4.8,3.2A4.35,4.35,0,0,0,443.18,157.13Z"/><path class="cls-1" d="M451.69,135h3.25v26.54h-3.25Z"/><path class="cls-1" d="M459.82,135h3.3v3.68h-3.3Zm0,7.28h3.3v19.26h-3.3Z"/><path class="cls-1" d="M468.13,142.14h3.09v3.34a7.38,7.38,0,0,1,1.86-2.38,4.83,4.83,0,0,1,3.41-1.4l.31,0,.74.08v3.43a3.69,3.69,0,0,0-.53-.07,4.44,4.44,0,0,0-.53,0,4.63,4.63,0,0,0-3.78,1.58,5.51,5.51,0,0,0-1.32,3.64v11.13h-3.25Z"/><path class="cls-1" d="M501.27,142.73a8.89,8.89,0,0,1,2,1.9v-9.77h3.13v26.63h-2.93V158.8a7.07,7.07,0,0,1-2.68,2.58,7.64,7.64,0,0,1-3.55.79,7.18,7.18,0,0,1-5.58-2.71,10.69,10.69,0,0,1-2.35-7.24,12.5,12.5,0,0,1,2.15-7.33,7,7,0,0,1,6.14-3.09A6.9,6.9,0,0,1,501.27,142.73ZM494,157.24a4.59,4.59,0,0,0,4.21,2.1,4.43,4.43,0,0,0,3.69-1.94,9.2,9.2,0,0,0,1.45-5.58q0-3.66-1.49-5.43a4.68,4.68,0,0,0-3.69-1.76,4.85,4.85,0,0,0-4,1.88A8.66,8.66,0,0,0,492.7,152,9.67,9.67,0,0,0,494,157.24Z"/><path class="cls-1" d="M523.31,142.14h3.6q-.69,1.86-3,8.49c-1.19,3.33-2.17,6-3,8.14q-2.82,7.39-4,9c-.77,1.09-2.09,1.63-4,1.63a7.11,7.11,0,0,1-1.06-.06,8.34,8.34,0,0,1-.91-.19v-3a9.63,9.63,0,0,0,1.23.29,4.25,4.25,0,0,0,.67.06,2.3,2.3,0,0,0,1.32-.3,2.74,2.74,0,0,0,.71-.73c.06-.1.28-.59.65-1.48s.65-1.55.82-2l-7.16-19.92h3.69l5.18,15.76Z"/><path class="cls-1" d="M529.81,142.14h3.09v3.34a7.38,7.38,0,0,1,1.86-2.38,4.83,4.83,0,0,1,3.41-1.4l.31,0,.74.08v3.43a3.69,3.69,0,0,0-.53-.07,4.52,4.52,0,0,0-.54,0,4.62,4.62,0,0,0-3.77,1.58,5.51,5.51,0,0,0-1.32,3.64v11.13h-3.25Z"/><path class="cls-1" d="M554,142.67a7.41,7.41,0,0,1,2.93,2.5,8.89,8.89,0,0,1,1.29,3.42,22.51,22.51,0,0,1,.29,4.26H544.42a8.37,8.37,0,0,0,1.38,4.74,4.61,4.61,0,0,0,4,1.78,5.14,5.14,0,0,0,4-1.68,5.91,5.91,0,0,0,1.2-2.27h3.19a6.53,6.53,0,0,1-.84,2.37,8.11,8.11,0,0,1-1.59,2.14,7.38,7.38,0,0,1-3.64,1.95,10.53,10.53,0,0,1-2.63.29,8.08,8.08,0,0,1-6.09-2.62c-1.66-1.76-2.49-4.21-2.49-7.37a11.16,11.16,0,0,1,2.51-7.57A8.28,8.28,0,0,1,550,141.7,8.81,8.81,0,0,1,554,142.67Zm1.16,7.6a8.41,8.41,0,0,0-.91-3.38,4.67,4.67,0,0,0-4.43-2.35,4.86,4.86,0,0,0-3.72,1.62,6.17,6.17,0,0,0-1.6,4.11Z"/><path class="cls-1" d="M562.71,142.14h3.08v3.34a7.59,7.59,0,0,1,1.87-2.38,4.81,4.81,0,0,1,3.41-1.4l.31,0,.74.08v3.43a3.69,3.69,0,0,0-.53-.07,5.45,5.45,0,0,0-4.31,1.56,5.51,5.51,0,0,0-1.32,3.64v11.13h-3.25Z"/><path class="cls-1" d="M586.89,142.67a7.38,7.38,0,0,1,2.92,2.5,8.74,8.74,0,0,1,1.3,3.42,22.51,22.51,0,0,1,.29,4.26H577.32a8.37,8.37,0,0,0,1.38,4.74,4.6,4.6,0,0,0,4,1.78,5.14,5.14,0,0,0,4-1.68,5.91,5.91,0,0,0,1.2-2.27h3.2a6.93,6.93,0,0,1-.84,2.37,8.36,8.36,0,0,1-1.6,2.14,7.38,7.38,0,0,1-3.64,1.95,10.53,10.53,0,0,1-2.63.29,8.07,8.07,0,0,1-6.09-2.62c-1.66-1.76-2.49-4.21-2.49-7.37a11.16,11.16,0,0,1,2.51-7.57,8.25,8.25,0,0,1,6.57-2.91A8.78,8.78,0,0,1,586.89,142.67Zm1.16,7.6a8.41,8.41,0,0,0-.91-3.38,4.67,4.67,0,0,0-4.43-2.35,4.86,4.86,0,0,0-3.72,1.62,6.12,6.12,0,0,0-1.6,4.11Z"/><path class="cls-1" d="M617.75,142.67a7.38,7.38,0,0,1,2.92,2.5,8.58,8.58,0,0,1,1.29,3.42,21.68,21.68,0,0,1,.29,4.26H608.18a8.37,8.37,0,0,0,1.38,4.74,4.6,4.6,0,0,0,4,1.78,5.14,5.14,0,0,0,4-1.68,5.91,5.91,0,0,0,1.2-2.27H622a6.53,6.53,0,0,1-.84,2.37,8.34,8.34,0,0,1-1.59,2.14,7.38,7.38,0,0,1-3.64,1.95,10.67,10.67,0,0,1-2.64.29,8.06,8.06,0,0,1-6.08-2.62c-1.67-1.76-2.5-4.21-2.5-7.37a11.16,11.16,0,0,1,2.52-7.57,8.25,8.25,0,0,1,6.57-2.91A8.84,8.84,0,0,1,617.75,142.67Zm1.16,7.6a8.58,8.58,0,0,0-.91-3.38,4.68,4.68,0,0,0-4.43-2.35,4.86,4.86,0,0,0-3.72,1.62,6.12,6.12,0,0,0-1.6,4.11Z"/><path class="cls-1" d="M626.37,142.14h3.09v2.74a8.69,8.69,0,0,1,2.91-2.43,7.65,7.65,0,0,1,3.41-.75c2.75,0,4.6,1,5.57,2.88a10.2,10.2,0,0,1,.79,4.5v12.41h-3.3v-12.2a6.56,6.56,0,0,0-.53-2.85,3.17,3.17,0,0,0-3.14-1.81,6.33,6.33,0,0,0-1.9.24,4.85,4.85,0,0,0-2.35,1.59,4.69,4.69,0,0,0-1,2,13.46,13.46,0,0,0-.25,2.92v10.14h-3.25Z"/><path class="cls-1" d="M647,142.14H650v2.74a8.6,8.6,0,0,1,2.91-2.43,7.65,7.65,0,0,1,3.41-.75c2.75,0,4.6,1,5.57,2.88a10.2,10.2,0,0,1,.79,4.5v12.41h-3.3v-12.2a6.56,6.56,0,0,0-.53-2.85,3.17,3.17,0,0,0-3.14-1.81,6.33,6.33,0,0,0-1.9.24,4.85,4.85,0,0,0-2.35,1.59,4.69,4.69,0,0,0-1,2,12.85,12.85,0,0,0-.25,2.92v10.14H647Z"/><path class="cls-1" d="M677.54,142.23h3.17v2.56a8.18,8.18,0,0,1,2.14-2,6.92,6.92,0,0,1,3.88-1.08,7.31,7.31,0,0,1,5.6,2.52q2.29,2.52,2.3,7.2,0,6.31-3.32,9a7.52,7.52,0,0,1-4.9,1.72,6.65,6.65,0,0,1-3.68-1,8.36,8.36,0,0,1-1.94-1.86v9.88h-3.25Zm12.23,15.17a9.08,9.08,0,0,0,1.52-5.7,10.55,10.55,0,0,0-.68-4,4.92,4.92,0,0,0-9.28.18,13.33,13.33,0,0,0-.67,4.59,9.66,9.66,0,0,0,.67,3.81,4.94,4.94,0,0,0,8.44,1.1Z"/><path class="cls-1" d="M698.47,135h3.26v26.54h-3.26Z"/><path class="cls-1" d="M717,149.78a1.77,1.77,0,0,0,1.5-.94,2.8,2.8,0,0,0,.22-1.25,2.65,2.65,0,0,0-1.18-2.42,6.31,6.31,0,0,0-3.38-.76,4.3,4.3,0,0,0-3.61,1.38,4.65,4.65,0,0,0-.77,2.27h-3c.06-2.39.84-4.05,2.32-5a9.55,9.55,0,0,1,5.17-1.4,10.49,10.49,0,0,1,5.54,1.3,4.42,4.42,0,0,1,2.11,4.05v11.14a1.45,1.45,0,0,0,.21.82,1,1,0,0,0,.88.3l.49,0,.57-.08v2.4a10.66,10.66,0,0,1-1.15.27,10.1,10.1,0,0,1-1.09.05,2.67,2.67,0,0,1-2.44-1.19,4.72,4.72,0,0,1-.56-1.79,8.23,8.23,0,0,1-2.85,2.26,8.82,8.82,0,0,1-4.1,1,6.1,6.1,0,0,1-4.4-1.64,5.4,5.4,0,0,1-1.71-4.08,5.27,5.27,0,0,1,1.68-4.17,8,8,0,0,1,4.41-1.82Zm-6.84,8.78a3.82,3.82,0,0,0,2.44.81,7.4,7.4,0,0,0,3.32-.79,4.46,4.46,0,0,0,2.71-4.31v-2.62a5.34,5.34,0,0,1-1.53.64,12.7,12.7,0,0,1-1.84.36l-2,.25a7.8,7.8,0,0,0-2.65.74,2.88,2.88,0,0,0-1.51,2.71A2.66,2.66,0,0,0,710.13,158.56Z"/><path class="cls-1" d="M727.18,142.14h3.09v2.74a8.69,8.69,0,0,1,2.91-2.43,7.65,7.65,0,0,1,3.41-.75q4.13,0,5.57,2.88a10.2,10.2,0,0,1,.79,4.5v12.41h-3.3v-12.2a6.56,6.56,0,0,0-.53-2.85,3.17,3.17,0,0,0-3.14-1.81,6.33,6.33,0,0,0-1.9.24,4.85,4.85,0,0,0-2.35,1.59,4.69,4.69,0,0,0-1.05,2,13.46,13.46,0,0,0-.25,2.92v10.14h-3.25Z"/><path class="cls-1" d="M747.85,135h3.25v26.54h-3.25Z"/><path class="cls-1" d="M766.35,149.78a1.77,1.77,0,0,0,1.5-.94,3,3,0,0,0,.22-1.25,2.67,2.67,0,0,0-1.18-2.42,6.34,6.34,0,0,0-3.38-.76,4.28,4.28,0,0,0-3.61,1.38,4.46,4.46,0,0,0-.77,2.27h-3q.09-3.59,2.32-5a9.53,9.53,0,0,1,5.17-1.4,10.49,10.49,0,0,1,5.54,1.3,4.42,4.42,0,0,1,2.11,4.05v11.14a1.45,1.45,0,0,0,.21.82c.13.2.43.3.87.3l.49,0,.58-.08v2.4a10.72,10.72,0,0,1-1.16.27,9.75,9.75,0,0,1-1.08.05,2.67,2.67,0,0,1-2.44-1.19,4.72,4.72,0,0,1-.56-1.79,8.23,8.23,0,0,1-2.85,2.26,8.86,8.86,0,0,1-4.11,1,6.07,6.07,0,0,1-4.39-1.64,5.4,5.4,0,0,1-1.71-4.08,5.27,5.27,0,0,1,1.68-4.17,8,8,0,0,1,4.41-1.82Zm-6.85,8.78a3.84,3.84,0,0,0,2.44.81,7.41,7.41,0,0,0,3.33-.79,4.47,4.47,0,0,0,2.71-4.31v-2.62a5.46,5.46,0,0,1-1.53.64,12.7,12.7,0,0,1-1.84.36l-2,.25a7.87,7.87,0,0,0-2.66.74,2.9,2.9,0,0,0-1.51,2.71A2.68,2.68,0,0,0,759.5,158.56Z"/><path class="cls-1" d="M787.31,142.92a8.71,8.71,0,0,1,1.88,1.84v-2.44h3v17.6a13,13,0,0,1-1.08,5.81q-2,3.95-7.62,3.94a9.35,9.35,0,0,1-5.24-1.4,5.45,5.45,0,0,1-2.38-4.38h3.31a3.63,3.63,0,0,0,.93,2,4.76,4.76,0,0,0,3.45,1.08q3.72,0,4.87-2.64a14.68,14.68,0,0,0,.63-5.54,6.43,6.43,0,0,1-2.34,2.2,8.38,8.38,0,0,1-9.1-1.51q-2.34-2.24-2.34-7.38c0-3.24.78-5.77,2.36-7.59a7.31,7.31,0,0,1,5.72-2.72A6.94,6.94,0,0,1,787.31,142.92Zm.4,3.48a4.71,4.71,0,0,0-3.75-1.73,4.65,4.65,0,0,0-4.68,3.21,12.81,12.81,0,0,0-.66,4.5,8,8,0,0,0,1.32,5,4.25,4.25,0,0,0,3.55,1.71,5,5,0,0,0,4.91-3.17,10.34,10.34,0,0,0,.79-4.17Q789.19,148.15,787.71,146.4Z"/><path class="cls-1" d="M797.79,136.74h3.28v5.4h3.09v2.65h-3.09v12.63a1.37,1.37,0,0,0,.69,1.36,3,3,0,0,0,1.27.2l.5,0a3.9,3.9,0,0,0,.63-.06v2.59a7.22,7.22,0,0,1-1.16.23,10.8,10.8,0,0,1-1.31.07c-1.52,0-2.55-.38-3.09-1.16a5.21,5.21,0,0,1-.81-3V144.79h-2.62v-2.65h2.62Z"/><path class="cls-1" d="M810.08,137a9.13,9.13,0,0,1,11.9-.34,6.8,6.8,0,0,1,2.16,5.19,5.6,5.6,0,0,1-.78,3.11,24,24,0,0,1-3.22,3.5,10.42,10.42,0,0,0-2.31,2.85,8.71,8.71,0,0,0-.53,3.44h-3.22a11.65,11.65,0,0,1,.62-4.16,11.12,11.12,0,0,1,2.73-3.63l1.47-1.42a5.79,5.79,0,0,0,1.08-1.29,4.44,4.44,0,0,0,.75-2.43,4.67,4.67,0,0,0-1.08-3.08,5.33,5.33,0,0,0-7.83.94,8.71,8.71,0,0,0-.76,3.6h-3.21A8.79,8.79,0,0,1,810.08,137ZM814,157.73h3.6v3.76H814Z"/></svg>