<svg id="Layer_1" data-name="Layer 1" xmlns="http://www.w3.org/2000/svg" viewBox="0 0 980 300"><defs><style>.cls-1{fill:#fff;}</style></defs><title>text</title><path class="cls-1" d="M56.39,269.5H48c-.69,0-1-.27-1-.81V255.38c0-.55.35-.83,1-.83s1,.28,1,.83v12.23h7.39c.47,0,.71.32.71.94S56.86,269.5,56.39,269.5Z"/><path class="cls-1" d="M67.71,267.52c.47,0,.71.29.71.86a.94.94,0,0,1-.71,1,17.9,17.9,0,0,1-3.74.27,6.35,6.35,0,0,1-3.76-.86A3.36,3.36,0,0,1,59.06,266v-4.21a3.26,3.26,0,0,1,1-2.84,7.11,7.11,0,0,1,3.85-.73,7.25,7.25,0,0,1,3.81.69c.65.47,1,1.43,1,2.88v1.82a1.26,1.26,0,0,1-.3.87,1,1,0,0,1-.78.32H61.13v1.34c0,1.14,1,1.7,2.95,1.69a16.85,16.85,0,0,0,2.25-.13A12.42,12.42,0,0,1,67.71,267.52Zm-6.58-5.77v1.19h5.55v-1.19a1.45,1.45,0,0,0-.56-1.33,4.59,4.59,0,0,0-2.19-.36,5,5,0,0,0-2.21.33A1.48,1.48,0,0,0,61.13,261.75Z"/><path class="cls-1" d="M78.33,266.12v-.26a.86.86,0,0,0-.53-.8,4.88,4.88,0,0,0-1.88-.25,11.41,11.41,0,0,1-3-.41,2.43,2.43,0,0,1-1.35-.91,2.94,2.94,0,0,1-.54-1.84v-.19a2.7,2.7,0,0,1,1.16-2.59,7.17,7.17,0,0,1,3.52-.67,15,15,0,0,1,3.51.3.93.93,0,0,1,.7,1c0,.57-.23.85-.7.85a13,13,0,0,1-1.45-.15,16.81,16.81,0,0,0-2.31-.15,5.65,5.65,0,0,0-1.79.2c-.38.13-.58.51-.58,1.13v.22c0,.81.86,1.25,2.57,1.3.71,0,1.42.09,2.14.18a3.2,3.2,0,0,1,1.82.8,2.36,2.36,0,0,1,.74,1.92v.28a3.1,3.1,0,0,1-1.17,2.82,7.3,7.3,0,0,1-3.76.74,16.87,16.87,0,0,1-3.72-.29.93.93,0,0,1-.7-1c0-.57.23-.85.7-.85.28,0,.82.05,1.63.15a21.45,21.45,0,0,0,2.36.14,4.76,4.76,0,0,0,1.88-.31A1.32,1.32,0,0,0,78.33,266.12Z"/><path class="cls-1" d="M90.85,254.92v3.56a15.16,15.16,0,0,1,2.88-.3,12.9,12.9,0,0,1,2.17.15,2.61,2.61,0,0,1,2.29,2.08,12.67,12.67,0,0,1,.2,2.51v5.77c0,.54-.34.81-1,.81s-1-.27-1-.81v-5.55a12.87,12.87,0,0,0-.09-1.75,1.35,1.35,0,0,0-.48-.91,1.64,1.64,0,0,0-.81-.36,12,12,0,0,0-1.46-.06,18.54,18.54,0,0,0-2.64.24v8.39c0,.54-.35.81-1,.81s-1-.27-1-.81V254.92c0-.55.35-.83,1-.83S90.85,254.37,90.85,254.92Z"/><path class="cls-1" d="M106.19,269.61a1.72,1.72,0,0,1-1.1-.37,2.06,2.06,0,0,1-.7-.93l-3.26-8.77a2,2,0,0,0-.08-.37c0-.54.34-.81,1-.8a1,1,0,0,1,1,.59l3.08,8.65h.11l3.09-8.65c.15-.39.52-.59,1.11-.59s.89.26.89.8c0,0,0,.13-.07.37L108,268.31a1.94,1.94,0,0,1-.7.94A1.85,1.85,0,0,1,106.19,269.61Z"/><path class="cls-1" d="M114.6,260.37c-.48,0-.72-.29-.72-.86a.93.93,0,0,1,.72-1,16.17,16.17,0,0,1,3.73-.3c1.73,0,2.91.27,3.52.83a3.75,3.75,0,0,1,.93,2.9v4.43c0,1.39-.33,2.29-1,2.71a8.07,8.07,0,0,1-3.87.63,7.85,7.85,0,0,1-3.83-.63c-.65-.42-1-1.32-1-2.69a4.13,4.13,0,0,1,.75-2.85c.5-.52,1.52-.78,3.07-.77h3.81v-1.19a1.3,1.3,0,0,0-.53-1.17,3.9,3.9,0,0,0-1.88-.32,15.72,15.72,0,0,0-2.34.16A8.05,8.05,0,0,1,114.6,260.37Zm6.12,6.14v-1.95h-3.2a4,4,0,0,0-1.92.29c-.3.19-.44.63-.44,1.32s.18,1.15.55,1.34a5.55,5.55,0,0,0,2.19.28,6.36,6.36,0,0,0,2.22-.25A1,1,0,0,0,120.72,266.51Z"/><path class="cls-1" d="M135.69,269.61a1.74,1.74,0,0,1-1.1-.37,2.13,2.13,0,0,1-.7-.93l-3.26-8.77c0-.24-.07-.36-.07-.37,0-.54.33-.81,1-.8a1,1,0,0,1,1,.59l3.07,8.65h.12l3.08-8.65c.15-.39.52-.59,1.12-.59s.88.26.88.8l-.06.37-3.27,8.77a1.94,1.94,0,0,1-.7.94A1.85,1.85,0,0,1,135.69,269.61Z"/><path class="cls-1" d="M144.08,260.37c-.48,0-.72-.29-.72-.86a.93.93,0,0,1,.72-1,16.17,16.17,0,0,1,3.73-.3c1.73,0,2.91.27,3.52.83a3.75,3.75,0,0,1,.93,2.9v4.43c0,1.39-.33,2.29-1,2.71a8.09,8.09,0,0,1-3.88.63,7.75,7.75,0,0,1-3.82-.63c-.64-.42-1-1.32-1-2.69a4.13,4.13,0,0,1,.74-2.85c.5-.52,1.52-.78,3.06-.77h3.8v-1.19a1.3,1.3,0,0,0-.53-1.17,3.9,3.9,0,0,0-1.88-.32,15.72,15.72,0,0,0-2.34.16A8.05,8.05,0,0,1,144.08,260.37Zm6.12,6.14v-1.95H147a4,4,0,0,0-1.92.29c-.29.19-.44.63-.44,1.32s.18,1.15.55,1.34a5.55,5.55,0,0,0,2.19.28,6.36,6.36,0,0,0,2.21-.25A1,1,0,0,0,150.2,266.51Zm-4-9.5a2.07,2.07,0,0,1-.62-1.52,2.05,2.05,0,0,1,.62-1.51,2.12,2.12,0,0,1,3,0,2.14,2.14,0,0,1,0,3,2.08,2.08,0,0,1-1.51.62A2.05,2.05,0,0,1,146.19,257Zm.59-1.52a.9.9,0,0,0,.27.67.87.87,0,0,0,.66.25.92.92,0,0,0,.65-.26.94.94,0,0,0,.27-.67.93.93,0,1,0-1.85,0Z"/><path class="cls-1" d="M157.53,263v5.73c0,.54-.34.81-1,.81s-1-.27-1-.81v-6a7.26,7.26,0,0,1,.36-2.86,4,4,0,0,1,.69-1c.49-.45,1.72-.67,3.7-.67a6.16,6.16,0,0,1,2,.2.72.72,0,0,1,.51.73,1,1,0,0,1-.28.79,1,1,0,0,1-.71.27l-1.51-.11a6.83,6.83,0,0,0-1.77.14.9.9,0,0,0-.76.78,2.76,2.76,0,0,0-.15.8C157.54,262.06,157.53,262.46,157.53,263Z"/><path class="cls-1" d="M173,267.52c.47,0,.71.29.71.86a.94.94,0,0,1-.71,1,17.9,17.9,0,0,1-3.74.27,6.35,6.35,0,0,1-3.76-.86,3.36,3.36,0,0,1-1.15-2.86v-4.21a3.26,3.26,0,0,1,1-2.84,7.09,7.09,0,0,1,3.85-.73,7.25,7.25,0,0,1,3.81.69c.65.47,1,1.43,1,2.88v1.82a1.26,1.26,0,0,1-.3.87,1,1,0,0,1-.78.32h-6.53v1.34c0,1.14,1,1.7,3,1.69a16.85,16.85,0,0,0,2.25-.13A12.42,12.42,0,0,1,173,267.52Zm-6.58-5.77v1.19H172v-1.19a1.45,1.45,0,0,0-.56-1.33,4.59,4.59,0,0,0-2.19-.36,5,5,0,0,0-2.21.33A1.46,1.46,0,0,0,166.45,261.75Z"/><path class="cls-1" d="M184.72,254.92v8.87l5.14-5.2a1.08,1.08,0,0,1,.77-.34,1,1,0,0,1,.72.29.88.88,0,0,1,.29.67,1,1,0,0,1-.37.76l-3,2.77,3.66,5.11a1.16,1.16,0,0,1,.23.68.87.87,0,0,1-.33.68,1.07,1.07,0,0,1-.76.31.75.75,0,0,1-.67-.37l-3.6-5-2.11,1.95v2.62c0,.54-.34.81-1,.81s-1-.27-1-.81V254.92c0-.55.36-.83,1-.83S184.72,254.37,184.72,254.92Z"/><path class="cls-1" d="M197.67,267.78h2.14a3,3,0,0,0,.72-.12,1.5,1.5,0,0,0,.59-.35,1.45,1.45,0,0,0,.24-.93c0-.45,0-.95,0-1.47v-5.74c0-.54.34-.81,1-.81s1,.27,1,.81v6a13.15,13.15,0,0,1-.18,2.49,2.15,2.15,0,0,1-.79,1.33,3,3,0,0,1-1.4.58,25.16,25.16,0,0,1-4.7,0A3,3,0,0,1,195,269a2.14,2.14,0,0,1-.78-1.33,13.88,13.88,0,0,1-.19-2.49v-6c0-.54.35-.81,1-.81s1,.27,1,.81v5.74a4.72,4.72,0,0,0,.37,2.5,1.15,1.15,0,0,0,.48.25A3,3,0,0,0,197.67,267.78Z"/><path class="cls-1" d="M209.13,260.46a4.48,4.48,0,0,0-.39,2.49v5.74c0,.54-.34.81-1,.81s-1-.27-1-.81v-6a11.41,11.41,0,0,1,.2-2.47,2.22,2.22,0,0,1,.81-1.35,3.14,3.14,0,0,1,1.41-.57,23.31,23.31,0,0,1,2.55-.12c1.93,0,3.15.23,3.66.71a3,3,0,0,1,.9,2,17.55,17.55,0,0,1,.08,1.78v6c0,.54-.34.81-1,.81s-1-.27-1-.81V263a4.5,4.5,0,0,0-.39-2.48c-.26-.27-1.05-.41-2.36-.41S209.38,260.2,209.13,260.46Z"/><path class="cls-1" d="M229.59,254.92V264a14.2,14.2,0,0,1-.25,2.94,3.24,3.24,0,0,1-.91,1.71,3.32,3.32,0,0,1-1.53.8,11.39,11.39,0,0,1-2.38.2,12.66,12.66,0,0,1-2.41-.19,3.39,3.39,0,0,1-1.55-.8,3.11,3.11,0,0,1-.91-1.72,15.88,15.88,0,0,1-.24-2.94,13.92,13.92,0,0,1,.26-3,3.2,3.2,0,0,1,2.44-2.65,11.79,11.79,0,0,1,2.65-.22,6.9,6.9,0,0,1,2.76.45v-3.71c0-.55.34-.83,1-.83S229.59,254.37,229.59,254.92Zm-7.87,6.48a6,6,0,0,0-.24,2.05c0,1,0,1.76.08,2.34a2.78,2.78,0,0,0,.58,1.52,1.82,1.82,0,0,0,1.34.46l1,0q2,0,2.37-.48a3,3,0,0,0,.6-1.53c0-.56.07-1.14.07-1.74,0-1.78-.16-2.86-.5-3.24a1.82,1.82,0,0,0-2-.74c-.83,0-1.35,0-1.58,0a1.71,1.71,0,0,0-1.33.47A6.37,6.37,0,0,0,221.72,261.4Z"/><path class="cls-1" d="M241.25,267.52c.48,0,.71.29.71.86a.93.93,0,0,1-.71,1,17.78,17.78,0,0,1-3.73.27,6.39,6.39,0,0,1-3.77-.86,3.36,3.36,0,0,1-1.14-2.86v-4.21c0-1.41.34-2.36,1-2.84a7.11,7.11,0,0,1,3.85-.73,7.25,7.25,0,0,1,3.81.69q1,.7,1,2.88v1.82a1.26,1.26,0,0,1-.31.87,1,1,0,0,1-.77.32h-6.54v1.34c0,1.14,1,1.7,3,1.69a16.7,16.7,0,0,0,2.24-.13A12.42,12.42,0,0,1,241.25,267.52Zm-6.58-5.77v1.19h5.55v-1.19a1.45,1.45,0,0,0-.56-1.33,4.53,4.53,0,0,0-2.19-.36,5,5,0,0,0-2.2.33A1.46,1.46,0,0,0,234.67,261.75Z"/><path class="cls-1" d="M247.45,263v5.73q0,.81-1,.81c-.69,0-1-.27-1-.81v-6a7,7,0,0,1,.37-2.86,3.78,3.78,0,0,1,.68-1c.49-.45,1.72-.67,3.7-.67a6.28,6.28,0,0,1,2,.2.72.72,0,0,1,.5.73,1,1,0,0,1-.28.79,1,1,0,0,1-.71.27l-1.51-.11a6.73,6.73,0,0,0-1.76.14,1.62,1.62,0,0,0-.52.26,1.66,1.66,0,0,0-.25.52,2.45,2.45,0,0,0-.14.8C247.46,262.06,247.45,262.46,247.45,263Z"/><path class="cls-1" d="M266.86,266.12v-.26a.85.85,0,0,0-.54-.8,4.82,4.82,0,0,0-1.87-.25,11.48,11.48,0,0,1-3-.41,2.43,2.43,0,0,1-1.35-.91,2.94,2.94,0,0,1-.54-1.84v-.19a2.72,2.72,0,0,1,1.16-2.59,7.21,7.21,0,0,1,3.53-.67,14.88,14.88,0,0,1,3.5.3.94.94,0,0,1,.71,1c0,.57-.24.85-.71.85a13,13,0,0,1-1.45-.15,16.66,16.66,0,0,0-2.3-.15,5.72,5.72,0,0,0-1.8.2c-.38.13-.57.51-.57,1.13v.22c0,.81.85,1.25,2.56,1.3.71,0,1.43.09,2.15.18a3.26,3.26,0,0,1,1.82.8,2.39,2.39,0,0,1,.74,1.92v.28a3.1,3.1,0,0,1-1.17,2.82,7.3,7.3,0,0,1-3.76.74,16.87,16.87,0,0,1-3.72-.29.94.94,0,0,1-.71-1c0-.57.24-.85.71-.85.28,0,.82.05,1.63.15a21.31,21.31,0,0,0,2.36.14,4.71,4.71,0,0,0,1.87-.31A1.31,1.31,0,0,0,266.86,266.12Z"/><path class="cls-1" d="M271.89,255.7a1.07,1.07,0,0,1,.34-.8,1.1,1.1,0,0,1,.78-.35,1.08,1.08,0,0,1,.8.35,1.17,1.17,0,0,1,.33.81,1,1,0,0,1-.34.78,1.09,1.09,0,0,1-1.58,0A1.09,1.09,0,0,1,271.89,255.7Zm2.16,3.47v9.52c0,.54-.35.81-1,.81s-1-.27-1-.81v-9.52c0-.54.35-.81,1-.81S274.05,258.63,274.05,259.17Z"/><path class="cls-1" d="M286,267.52c.47,0,.7.29.7.86a.93.93,0,0,1-.7,1,17.9,17.9,0,0,1-3.74.27,6.35,6.35,0,0,1-3.76-.86,3.36,3.36,0,0,1-1.15-2.86v-4.21c0-1.41.34-2.36,1-2.84a7.15,7.15,0,0,1,3.86-.73,7.23,7.23,0,0,1,3.8.69q1,.7,1,2.88v1.82a1.3,1.3,0,0,1-.3.87,1,1,0,0,1-.78.32h-6.53v1.34c0,1.14,1,1.7,2.95,1.69a16.85,16.85,0,0,0,2.25-.13A12,12,0,0,1,286,267.52Zm-6.58-5.77v1.19H285v-1.19a1.43,1.43,0,0,0-.56-1.33,4.53,4.53,0,0,0-2.19-.36,5,5,0,0,0-2.2.33A1.43,1.43,0,0,0,279.42,261.75Z"/><path class="cls-1" d="M292.2,263v5.73c0,.54-.35.81-1,.81s-1-.27-1-.81v-6a7,7,0,0,1,.37-2.86,3.78,3.78,0,0,1,.68-1c.49-.45,1.72-.67,3.7-.67a6.23,6.23,0,0,1,2,.2.71.71,0,0,1,.5.73,1,1,0,0,1-.28.79,1,1,0,0,1-.7.27l-1.52-.11a6.73,6.73,0,0,0-1.76.14,1.62,1.62,0,0,0-.52.26,1.92,1.92,0,0,0-.25.52,2.45,2.45,0,0,0-.14.8C292.2,262.06,292.2,262.46,292.2,263Z"/><path class="cls-1" d="M304.56,264a13.92,13.92,0,0,1,.26-3,3.2,3.2,0,0,1,2.44-2.65,10.45,10.45,0,0,1,2.41-.22,10.27,10.27,0,0,1,2.39.22,3.2,3.2,0,0,1,1.56.88,3.55,3.55,0,0,1,.91,1.77,17.71,17.71,0,0,1,0,5.93,3.15,3.15,0,0,1-.92,1.7,3.39,3.39,0,0,1-1.55.8,11.56,11.56,0,0,1-2.39.2,12.59,12.59,0,0,1-2.41-.19,3.39,3.39,0,0,1-1.55-.8,3.11,3.11,0,0,1-.91-1.72A14.31,14.31,0,0,1,304.56,264Zm2.31-2.63a6,6,0,0,0-.24,2.05c0,1,0,1.76.08,2.34a2.78,2.78,0,0,0,.58,1.52,1.82,1.82,0,0,0,1.34.46l1,0q2,0,2.37-.48a3,3,0,0,0,.6-1.53c.05-.56.07-1.14.07-1.74,0-1.78-.16-2.86-.5-3.24a1.82,1.82,0,0,0-2-.74c-.83,0-1.35,0-1.58,0a1.71,1.71,0,0,0-1.33.47A6.37,6.37,0,0,0,306.87,261.4Z"/><path class="cls-1" d="M329.3,260.06a13,13,0,0,0-1.33.05,1.21,1.21,0,0,0-.72.34,1.15,1.15,0,0,0-.37.76,13,13,0,0,0-.06,1.47v6c0,.54-.34.81-1,.81s-1-.27-1-.81v-6.32c0-1.06-.14-1.71-.41-1.95a2.86,2.86,0,0,0-1.73-.36c-.87,0-1.43,0-1.69.05a1.1,1.1,0,0,0-.71.37,1.38,1.38,0,0,0-.34.83c0,.34-.05.89-.05,1.64v5.74q0,.81-1,.81c-.69,0-1-.27-1-.81v-6a7.54,7.54,0,0,1,.52-3.31,2.51,2.51,0,0,1,2.17-1.12c.43-.05,1-.07,1.84-.08,1.79,0,2.95.21,3.5.64.54-.42,1.7-.63,3.49-.64a17.18,17.18,0,0,1,1.83.07,2.55,2.55,0,0,1,2.14,1.06,7.5,7.5,0,0,1,.57,3.38v6c0,.54-.35.81-1,.81s-1-.27-1-.81V263a15.78,15.78,0,0,0-.06-1.64,1.44,1.44,0,0,0-.33-.83,1.12,1.12,0,0,0-.71-.37A13.5,13.5,0,0,0,329.3,260.06Z"/><path class="cls-1" d="M342.45,264a13.92,13.92,0,0,1,.26-3,3.2,3.2,0,0,1,2.44-2.65,13.26,13.26,0,0,1,4.81,0,3.21,3.21,0,0,1,1.55.88,3.48,3.48,0,0,1,.91,1.77,17.71,17.71,0,0,1,0,5.93,3.09,3.09,0,0,1-.92,1.7,3.4,3.4,0,0,1-1.54.8,11.6,11.6,0,0,1-2.4.2,12.66,12.66,0,0,1-2.41-.19,3.39,3.39,0,0,1-1.55-.8,3,3,0,0,1-.9-1.72A13.54,13.54,0,0,1,342.45,264Zm2.32-2.63a5.72,5.72,0,0,0-.25,2.05c0,1,0,1.76.08,2.34a2.78,2.78,0,0,0,.58,1.52,1.85,1.85,0,0,0,1.35.46l1,0q2,0,2.37-.48a3,3,0,0,0,.6-1.53c.05-.56.08-1.14.08-1.74q0-2.67-.51-3.24a1.82,1.82,0,0,0-2-.74c-.82,0-1.35,0-1.58,0a1.71,1.71,0,0,0-1.33.47A5.48,5.48,0,0,0,344.77,261.4Z"/><path class="cls-1" d="M362.6,266.12v-.26a.85.85,0,0,0-.54-.8,4.82,4.82,0,0,0-1.87-.25,11.48,11.48,0,0,1-3-.41,2.43,2.43,0,0,1-1.35-.91,2.94,2.94,0,0,1-.54-1.84v-.19a2.72,2.72,0,0,1,1.16-2.59,7.21,7.21,0,0,1,3.53-.67,14.82,14.82,0,0,1,3.5.3.94.94,0,0,1,.71,1c0,.57-.24.85-.71.85a13,13,0,0,1-1.45-.15,16.66,16.66,0,0,0-2.3-.15,5.72,5.72,0,0,0-1.8.2c-.38.13-.57.51-.57,1.13v.22c0,.81.85,1.25,2.56,1.3.71,0,1.43.09,2.15.18a3.23,3.23,0,0,1,1.82.8,2.39,2.39,0,0,1,.74,1.92v.28a3.1,3.1,0,0,1-1.17,2.82,7.3,7.3,0,0,1-3.76.74,16.87,16.87,0,0,1-3.72-.29.94.94,0,0,1-.71-1c0-.57.24-.85.71-.85.28,0,.82.05,1.63.15a21.31,21.31,0,0,0,2.36.14,4.71,4.71,0,0,0,1.87-.31A1.31,1.31,0,0,0,362.6,266.12Z"/><path class="cls-1" d="M374,266.12v-.26a.85.85,0,0,0-.54-.8,4.82,4.82,0,0,0-1.87-.25,11.54,11.54,0,0,1-3-.41,2.43,2.43,0,0,1-1.35-.91,2.94,2.94,0,0,1-.54-1.84v-.19a2.72,2.72,0,0,1,1.16-2.59,7.21,7.21,0,0,1,3.53-.67,14.82,14.82,0,0,1,3.5.3.94.94,0,0,1,.71,1c0,.57-.24.85-.71.85a13.26,13.26,0,0,1-1.45-.15,16.66,16.66,0,0,0-2.3-.15,5.77,5.77,0,0,0-1.8.2c-.38.13-.57.51-.57,1.13v.22c0,.81.85,1.25,2.56,1.3.71,0,1.43.09,2.15.18a3.23,3.23,0,0,1,1.82.8,2.36,2.36,0,0,1,.74,1.92v.28a3.1,3.1,0,0,1-1.17,2.82,7.3,7.3,0,0,1-3.76.74,16.87,16.87,0,0,1-3.72-.29.94.94,0,0,1-.71-1c0-.57.24-.85.71-.85.28,0,.82.05,1.63.15a21.31,21.31,0,0,0,2.36.14,4.71,4.71,0,0,0,1.87-.31A1.31,1.31,0,0,0,374,266.12Z"/></svg>