<svg id="Layer_1" data-name="Layer 1" xmlns="http://www.w3.org/2000/svg" viewBox="0 0 980 300"><defs><style>.cls-1{fill:#010121;}</style></defs><title>text</title><path class="cls-1" d="M161.31,114.46h3.6v23.38h13.31V141H161.31Z"/><path class="cls-1" d="M181.46,114.46h3.3v3.68h-3.3Zm0,7.28h3.3V141h-3.3Z"/><path class="cls-1" d="M191.19,115.74c.76-1.11,2.23-1.66,4.39-1.66l.64,0,.74.05v3l-.74-.05h-.43c-1,0-1.6.26-1.79.77a14.6,14.6,0,0,0-.3,3.91H197v2.57H193.7V141h-3.21V124.31H187.8v-2.57h2.69v-3A5.88,5.88,0,0,1,191.19,115.74Z"/><path class="cls-1" d="M200.05,114.46h3.25V141h-3.25Z"/><path class="cls-1" d="M208.18,114.46h3.3v3.68h-3.3Zm0,7.28h3.3V141h-3.3Z"/><path class="cls-1" d="M227.15,122.43a8.68,8.68,0,0,1,1.87,1.84v-2.44h3v17.6a13,13,0,0,1-1.08,5.81q-2,3.94-7.61,3.94a9.25,9.25,0,0,1-5.24-1.4,5.45,5.45,0,0,1-2.38-4.38H219a3.63,3.63,0,0,0,.93,2,4.76,4.76,0,0,0,3.45,1.08q3.72,0,4.87-2.64a15.12,15.12,0,0,0,.63-5.54,6.43,6.43,0,0,1-2.34,2.2,7.79,7.79,0,0,1-3.62.72,7.7,7.7,0,0,1-5.48-2.23c-1.56-1.48-2.35-3.95-2.35-7.38q0-4.86,2.37-7.58a7.3,7.3,0,0,1,5.71-2.73A7,7,0,0,1,227.15,122.43Zm.4,3.48a4.72,4.72,0,0,0-3.76-1.73,4.64,4.64,0,0,0-4.67,3.21,12.81,12.81,0,0,0-.66,4.5,8,8,0,0,0,1.32,5,4.25,4.25,0,0,0,3.55,1.71,5,5,0,0,0,4.9-3.16,10.25,10.25,0,0,0,.79-4.18Q229,127.65,227.55,125.91Z"/><path class="cls-1" d="M238.69,121.9h3.78v3.94h-3.78Zm0,15.16h3.78V141h-3.78Z"/><path class="cls-1" d="M260.32,132.44a7.47,7.47,0,0,0,1,3.66q1.73,2.64,6.08,2.64a10.29,10.29,0,0,0,3.55-.58q3.09-1.11,3.09-4a3.51,3.51,0,0,0-1.31-3.09,13.16,13.16,0,0,0-4.16-1.57l-3.49-.81a15.79,15.79,0,0,1-4.83-1.75,5.62,5.62,0,0,1-2.45-5,7.76,7.76,0,0,1,2.41-5.87,9.51,9.51,0,0,1,6.82-2.3,11.56,11.56,0,0,1,6.9,2c1.9,1.34,2.84,3.48,2.84,6.44h-3.38a6.83,6.83,0,0,0-1.1-3.27c-1.06-1.39-2.84-2.08-5.36-2.08-2,0-3.49.44-4.38,1.34a4.24,4.24,0,0,0-1.33,3.1,3.06,3.06,0,0,0,1.57,2.86,23.27,23.27,0,0,0,4.68,1.44l3.6.85a10.93,10.93,0,0,1,4,1.68,6.37,6.37,0,0,1,2.45,5.4q0,4.41-3.13,6.31a13.78,13.78,0,0,1-7.27,1.9,10.72,10.72,0,0,1-7.55-2.53,8.61,8.61,0,0,1-2.68-6.81Z"/><path class="cls-1" d="M296.23,123.58q2.56,2.49,2.57,7.33a12.64,12.64,0,0,1-2.26,7.72q-2.27,3.06-7,3.06a7.88,7.88,0,0,1-6.29-2.7,10.69,10.69,0,0,1-2.34-7.25,11.56,11.56,0,0,1,2.46-7.76,8.22,8.22,0,0,1,6.6-2.89A8.67,8.67,0,0,1,296.23,123.58Zm-2,12.86A12.3,12.3,0,0,0,295.4,131a9.79,9.79,0,0,0-.86-4.4,4.81,4.81,0,0,0-4.68-2.67,4.61,4.61,0,0,0-4.29,2.27,10.66,10.66,0,0,0-1.34,5.49,9.27,9.27,0,0,0,1.34,5.14,4.72,4.72,0,0,0,4.26,2A4.41,4.41,0,0,0,294.21,136.44Z"/><path class="cls-1" d="M304.31,115.74q1.14-1.67,4.39-1.66l.63,0,.74.05v3l-.74-.05h-.43c-1,0-1.59.26-1.79.77a15.25,15.25,0,0,0-.29,3.91h3.25v2.57h-3.25V141H303.6V124.31h-2.69v-2.57h2.69v-3A5.86,5.86,0,0,1,304.31,115.74Z"/><path class="cls-1" d="M313.72,116.25H317v5.4h3.09v2.66H317v12.62a1.38,1.38,0,0,0,.68,1.36,3,3,0,0,0,1.27.2h.5l.64-.06V141a6.55,6.55,0,0,1-1.17.23,10.59,10.59,0,0,1-1.31.08q-2.28,0-3.09-1.17a5.18,5.18,0,0,1-.81-3V124.31H311.1v-2.66h2.62Z"/><path class="cls-1" d="M324.86,121.65l3.72,15.25,3.77-15.25H336l3.8,15.16,4-15.16H347L341.39,141H338l-3.94-15-3.81,15h-3.38l-5.58-19.35Z"/><path class="cls-1" d="M360.44,129.29a1.77,1.77,0,0,0,1.5-.94,3,3,0,0,0,.21-1.25,2.65,2.65,0,0,0-1.18-2.42,6.3,6.3,0,0,0-3.38-.75,4.27,4.27,0,0,0-3.6,1.38,4.48,4.48,0,0,0-.78,2.27h-3c.06-2.4.83-4.06,2.32-5a9.51,9.51,0,0,1,5.17-1.4,10.49,10.49,0,0,1,5.54,1.3,4.44,4.44,0,0,1,2.11,4v11.15a1.52,1.52,0,0,0,.2.81,1,1,0,0,0,.88.3,4.27,4.27,0,0,0,.49,0l.58-.08v2.4a10.72,10.72,0,0,1-1.16.27,7.87,7.87,0,0,1-1.08,0,2.66,2.66,0,0,1-2.44-1.19,4.49,4.49,0,0,1-.56-1.79,8.36,8.36,0,0,1-2.86,2.26,8.79,8.79,0,0,1-4.1,1,6.11,6.11,0,0,1-4.4-1.63,5.41,5.41,0,0,1-1.7-4.09,5.27,5.27,0,0,1,1.68-4.17,8.06,8.06,0,0,1,4.4-1.82Zm-6.85,8.78a3.78,3.78,0,0,0,2.44.81,7.37,7.37,0,0,0,3.32-.79,4.46,4.46,0,0,0,2.71-4.31v-2.61a5.51,5.51,0,0,1-1.53.63,12.44,12.44,0,0,1-1.84.36l-2,.25a7.8,7.8,0,0,0-2.66.74,2.88,2.88,0,0,0-1.51,2.71A2.66,2.66,0,0,0,353.59,138.07Z"/><path class="cls-1" d="M370.74,121.65h3.09V125a7.26,7.26,0,0,1,1.86-2.37,4.79,4.79,0,0,1,3.41-1.4h.31l.74.08v3.43a3.69,3.69,0,0,0-.53-.07l-.54,0a4.65,4.65,0,0,0-3.77,1.58,5.51,5.51,0,0,0-1.32,3.64V141h-3.25Z"/><path class="cls-1" d="M394.92,122.18a7.35,7.35,0,0,1,2.93,2.51,8.78,8.78,0,0,1,1.29,3.41,22.51,22.51,0,0,1,.29,4.26H385.35a8.37,8.37,0,0,0,1.38,4.74,4.61,4.61,0,0,0,4,1.78,5.13,5.13,0,0,0,4-1.68,5.78,5.78,0,0,0,1.2-2.27h3.2a6.93,6.93,0,0,1-.84,2.37,8.6,8.6,0,0,1-1.6,2.15,7.54,7.54,0,0,1-3.64,2,11,11,0,0,1-2.63.29,8.09,8.09,0,0,1-6.09-2.63q-2.49-2.64-2.49-7.36a11.12,11.12,0,0,1,2.51-7.57,8.28,8.28,0,0,1,6.57-2.91A8.76,8.76,0,0,1,394.92,122.18Zm1.16,7.6a8.41,8.41,0,0,0-.91-3.38,4.68,4.68,0,0,0-4.42-2.35,4.89,4.89,0,0,0-3.73,1.62,6.11,6.11,0,0,0-1.59,4.11Z"/><path class="cls-1" d="M403.64,114.46h3.25V141h-3.25Z"/><path class="cls-1" d="M411,140.93l2.32-2.43a10.58,10.58,0,0,1-1.39-3,13.9,13.9,0,0,1-.49-3.94,12.07,12.07,0,0,1,2.3-7.28,7.74,7.74,0,0,1,6.7-3.19,9.22,9.22,0,0,1,4,.82,11.49,11.49,0,0,1,2.33,1.56l2.3-2.54.94.92-2.33,2.59a10.82,10.82,0,0,1,1.64,3.81,13.16,13.16,0,0,1,.31,2.78,11.53,11.53,0,0,1-2.54,7.68,8.34,8.34,0,0,1-6.74,3,10.22,10.22,0,0,1-3.58-.59,6.69,6.69,0,0,1-2.53-1.59l-2.19,2.31Zm12.09-16.47a6,6,0,0,0-2.52-.52,5,5,0,0,0-4.25,2.2,9.43,9.43,0,0,0-1.59,5.66,11.18,11.18,0,0,0,.27,2.49,17.3,17.3,0,0,0,.56,1.7l9.17-10.25A3.87,3.87,0,0,0,423.13,124.46Zm-4.77,14.08a6.47,6.47,0,0,0,2.12.36,5,5,0,0,0,4.9-3.21,10.74,10.74,0,0,0,.88-4.45,12.67,12.67,0,0,0-.28-2.8,10.75,10.75,0,0,0-.5-1.48l-9.06,10.21A4.55,4.55,0,0,0,418.36,138.54Z"/><path class="cls-1" d="M436.3,134.93a4.73,4.73,0,0,0,.83,2.49c.84,1.05,2.29,1.57,4.35,1.57a6.59,6.59,0,0,0,3.25-.78,2.62,2.62,0,0,0,1.4-2.43,2.07,2.07,0,0,0-1.12-1.9,13.89,13.89,0,0,0-2.83-.92l-2.62-.65a13,13,0,0,1-3.71-1.37,4.1,4.1,0,0,1-2.13-3.65,5.57,5.57,0,0,1,2-4.45,8.1,8.1,0,0,1,5.39-1.7q4.44,0,6.39,2.57a5.46,5.46,0,0,1,1.19,3.5h-3.07a3.64,3.64,0,0,0-.79-2c-.77-.85-2.09-1.28-4-1.28a4.84,4.84,0,0,0-2.86.71,2.18,2.18,0,0,0-1,1.85,2.29,2.29,0,0,0,1.28,2,7.75,7.75,0,0,0,2.17.79l2.19.52a17.28,17.28,0,0,1,4.79,1.65,4.36,4.36,0,0,1,1.89,3.92,5.94,5.94,0,0,1-2,4.46q-2,1.88-6.05,1.88-4.37,0-6.19-2a7.35,7.35,0,0,1-1.94-4.85Z"/><path class="cls-1" d="M452.87,121.65H456v2.75a8.43,8.43,0,0,1,2.91-2.44,7.65,7.65,0,0,1,3.41-.74c2.75,0,4.6,1,5.56,2.87a10.21,10.21,0,0,1,.8,4.5V141h-3.31V128.8a6.57,6.57,0,0,0-.52-2.85,3.19,3.19,0,0,0-3.14-1.81,6.28,6.28,0,0,0-1.9.24,4.85,4.85,0,0,0-2.35,1.59,4.93,4.93,0,0,0-1.06,2,13.47,13.47,0,0,0-.24,2.91V141h-3.25Z"/><path class="cls-1" d="M473.44,114.46h3.31v3.68h-3.31Zm0,7.28h3.31V141h-3.31Z"/><path class="cls-1" d="M481.66,121.65h3.09v2.75a8.62,8.62,0,0,1,2.91-2.44,7.69,7.69,0,0,1,3.42-.74c2.74,0,4.6,1,5.56,2.87a10.21,10.21,0,0,1,.8,4.5V141h-3.31V128.8a6.57,6.57,0,0,0-.52-2.85,3.19,3.19,0,0,0-3.15-1.81,6.21,6.21,0,0,0-1.89.24,5.3,5.3,0,0,0-3.41,3.57,13.47,13.47,0,0,0-.24,2.91V141h-3.26Z"/><path class="cls-1" d="M513,122.43a8.91,8.91,0,0,1,1.87,1.84v-2.44h3v17.6a13,13,0,0,1-1.08,5.81q-2,3.94-7.62,3.94a9.29,9.29,0,0,1-5.24-1.4,5.44,5.44,0,0,1-2.37-4.38h3.3a3.71,3.71,0,0,0,.94,2,4.76,4.76,0,0,0,3.45,1.08q3.72,0,4.87-2.64a15,15,0,0,0,.62-5.54,6.33,6.33,0,0,1-2.33,2.2,7.82,7.82,0,0,1-3.62.72,7.68,7.68,0,0,1-5.48-2.23c-1.57-1.48-2.35-3.95-2.35-7.38q0-4.86,2.37-7.58a7.29,7.29,0,0,1,5.71-2.73A7,7,0,0,1,513,122.43Zm.4,3.48a4.75,4.75,0,0,0-3.76-1.73,4.63,4.63,0,0,0-4.67,3.21,12.56,12.56,0,0,0-.67,4.5,8,8,0,0,0,1.32,5,4.26,4.26,0,0,0,3.55,1.71,5,5,0,0,0,4.91-3.16,10.25,10.25,0,0,0,.79-4.18Q514.87,127.65,513.4,125.91Z"/><path class="cls-1" d="M533.1,114.46h3.31v3.68H533.1Zm0,7.28h3.31V141H533.1Z"/><path class="cls-1" d="M551.69,114.46h3.25V141h-3.25Z"/><path class="cls-1" d="M559.82,114.46h3.31v3.68h-3.31Zm0,7.28h3.31V141h-3.31Z"/><path class="cls-1" d="M569.64,121.65l5.17,15.75,5.38-15.75h3.56L576.46,141H573l-7.14-19.35Z"/><path class="cls-1" d="M588.47,134.93a4.73,4.73,0,0,0,.83,2.49c.84,1.05,2.29,1.57,4.35,1.57a6.57,6.57,0,0,0,3.25-.78,2.62,2.62,0,0,0,1.4-2.43,2.07,2.07,0,0,0-1.12-1.9,13.89,13.89,0,0,0-2.83-.92l-2.62-.65a13.17,13.17,0,0,1-3.71-1.37,4.1,4.1,0,0,1-2.13-3.65,5.57,5.57,0,0,1,2-4.45,8.11,8.11,0,0,1,5.4-1.7q4.43,0,6.39,2.57a5.57,5.57,0,0,1,1.19,3.5H597.8a3.73,3.73,0,0,0-.8-2c-.76-.85-2.09-1.28-4-1.28a4.81,4.81,0,0,0-2.85.71,2.16,2.16,0,0,0-1,1.85,2.28,2.28,0,0,0,1.27,2,7.87,7.87,0,0,0,2.17.79l2.19.52a17.28,17.28,0,0,1,4.79,1.65,4.37,4.37,0,0,1,1.9,3.92,5.92,5.92,0,0,1-2,4.46q-2,1.88-6,1.88-4.38,0-6.19-2a7.3,7.3,0,0,1-1.95-4.85Z"/><path class="cls-1" d="M605.13,114.46h3.25V141h-3.25Z"/><path class="cls-1" d="M612.54,140.93l2.32-2.43a10.6,10.6,0,0,1-1.4-3,13.9,13.9,0,0,1-.49-3.94,12.13,12.13,0,0,1,2.3-7.28,7.75,7.75,0,0,1,6.71-3.19,9.28,9.28,0,0,1,4,.82,11.46,11.46,0,0,1,2.32,1.56l2.3-2.54.94.92-2.32,2.59a10.81,10.81,0,0,1,1.63,3.81,12.54,12.54,0,0,1,.31,2.78,11.52,11.52,0,0,1-2.53,7.68,8.36,8.36,0,0,1-6.75,3,10.12,10.12,0,0,1-3.57-.59,6.73,6.73,0,0,1-2.54-1.59l-2.19,2.31Zm12.09-16.47a6.12,6.12,0,0,0-2.53-.52,5,5,0,0,0-4.24,2.2,9.36,9.36,0,0,0-1.6,5.66,10.62,10.62,0,0,0,.28,2.49,15,15,0,0,0,.56,1.7l9.17-10.25A3.94,3.94,0,0,0,624.63,124.46Zm-4.77,14.08a6.41,6.41,0,0,0,2.11.36,5,5,0,0,0,4.9-3.21,10.58,10.58,0,0,0,.88-4.45,12.09,12.09,0,0,0-.28-2.8A8.59,8.59,0,0,0,627,127l-9.05,10.21A4.49,4.49,0,0,0,619.86,138.54Z"/><path class="cls-1" d="M635.59,121.74h3.18v2.57a7.93,7.93,0,0,1,2.14-2,6.91,6.91,0,0,1,3.87-1.08,7.29,7.29,0,0,1,5.6,2.52q2.29,2.52,2.3,7.2,0,6.33-3.32,9a7.48,7.48,0,0,1-4.9,1.72,6.67,6.67,0,0,1-3.68-1,8.56,8.56,0,0,1-1.94-1.86v9.88h-3.25Zm12.24,15.17a9.1,9.1,0,0,0,1.51-5.7,10.59,10.59,0,0,0-.67-4,4.92,4.92,0,0,0-9.28.18,13.33,13.33,0,0,0-.67,4.59,9.59,9.59,0,0,0,.67,3.81,4.94,4.94,0,0,0,8.44,1.1Z"/><path class="cls-1" d="M658.37,134.93a4.73,4.73,0,0,0,.83,2.49c.84,1.05,2.29,1.57,4.35,1.57a6.57,6.57,0,0,0,3.25-.78,2.62,2.62,0,0,0,1.4-2.43,2.07,2.07,0,0,0-1.12-1.9,13.89,13.89,0,0,0-2.83-.92l-2.62-.65a13,13,0,0,1-3.71-1.37,4.1,4.1,0,0,1-2.13-3.65,5.57,5.57,0,0,1,2-4.45,8.11,8.11,0,0,1,5.4-1.7q4.42,0,6.39,2.57a5.57,5.57,0,0,1,1.19,3.5H667.7a3.73,3.73,0,0,0-.8-2c-.77-.85-2.09-1.28-4-1.28a4.81,4.81,0,0,0-2.85.71,2.16,2.16,0,0,0-1,1.85,2.28,2.28,0,0,0,1.27,2,7.87,7.87,0,0,0,2.17.79l2.19.52a17.15,17.15,0,0,1,4.79,1.65,4.34,4.34,0,0,1,1.9,3.92,5.92,5.92,0,0,1-2,4.46c-1.32,1.25-3.34,1.88-6,1.88q-4.38,0-6.19-2a7.3,7.3,0,0,1-2-4.85Z"/><path class="cls-1" d="M674.67,121.74h3.18v2.57a7.93,7.93,0,0,1,2.14-2,6.88,6.88,0,0,1,3.87-1.08,7.29,7.29,0,0,1,5.6,2.52q2.29,2.52,2.3,7.2,0,6.33-3.32,9a7.48,7.48,0,0,1-4.9,1.72,6.65,6.65,0,0,1-3.68-1,8.36,8.36,0,0,1-1.94-1.86v9.88h-3.25Zm12.23,15.17a9,9,0,0,0,1.52-5.7,10.8,10.8,0,0,0-.67-4,4.93,4.93,0,0,0-9.29.18,13.57,13.57,0,0,0-.67,4.59,9.77,9.77,0,0,0,.67,3.81,4.94,4.94,0,0,0,8.44,1.1Z"/><path class="cls-1" d="M707.47,122.18a7.32,7.32,0,0,1,2.92,2.51,8.64,8.64,0,0,1,1.3,3.41,22.51,22.51,0,0,1,.29,4.26H697.9a8.37,8.37,0,0,0,1.38,4.74,4.6,4.6,0,0,0,4,1.78,5.14,5.14,0,0,0,4-1.68,5.78,5.78,0,0,0,1.2-2.27h3.2a6.93,6.93,0,0,1-.84,2.37,8.6,8.6,0,0,1-1.6,2.15,7.54,7.54,0,0,1-3.64,2,11,11,0,0,1-2.63.29,8.08,8.08,0,0,1-6.09-2.63q-2.49-2.64-2.49-7.36a11.12,11.12,0,0,1,2.51-7.57,8.25,8.25,0,0,1,6.57-2.91A8.76,8.76,0,0,1,707.47,122.18Zm1.16,7.6a8.41,8.41,0,0,0-.91-3.38,4.68,4.68,0,0,0-4.43-2.35,4.86,4.86,0,0,0-3.72,1.62,6.12,6.12,0,0,0-1.6,4.11Z"/><path class="cls-1" d="M716.18,121.65h3.09V125a7.56,7.56,0,0,1,1.86-2.37,4.81,4.81,0,0,1,3.42-1.4h.31l.74.08v3.43a3.81,3.81,0,0,0-.54-.07l-.53,0a4.62,4.62,0,0,0-3.77,1.58,5.51,5.51,0,0,0-1.32,3.64V141h-3.26Z"/><path class="cls-1" d="M730.35,134.93a4.64,4.64,0,0,0,.83,2.49c.84,1.05,2.28,1.57,4.35,1.57a6.59,6.59,0,0,0,3.25-.78,2.62,2.62,0,0,0,1.4-2.43,2.09,2.09,0,0,0-1.12-1.9,13.89,13.89,0,0,0-2.83-.92l-2.62-.65a13,13,0,0,1-3.71-1.37,4.1,4.1,0,0,1-2.13-3.65,5.54,5.54,0,0,1,2-4.45,8.08,8.08,0,0,1,5.39-1.7q4.44,0,6.39,2.57a5.46,5.46,0,0,1,1.19,3.5h-3.07a3.64,3.64,0,0,0-.79-2c-.77-.85-2.09-1.28-4-1.28a4.84,4.84,0,0,0-2.86.71,2.18,2.18,0,0,0-1,1.85,2.29,2.29,0,0,0,1.28,2,7.75,7.75,0,0,0,2.17.79l2.19.52a17.28,17.28,0,0,1,4.79,1.65,4.36,4.36,0,0,1,1.89,3.92,5.94,5.94,0,0,1-2,4.46q-2,1.88-6,1.88c-2.91,0-5-.65-6.19-2a7.4,7.4,0,0,1-1.95-4.85Z"/><path class="cls-1" d="M746.64,121.74h3.18v2.57a8.23,8.23,0,0,1,2.14-2,6.92,6.92,0,0,1,3.88-1.08,7.31,7.31,0,0,1,5.6,2.52q2.29,2.52,2.3,7.2,0,6.33-3.32,9a7.52,7.52,0,0,1-4.9,1.72,6.65,6.65,0,0,1-3.68-1,8.36,8.36,0,0,1-1.94-1.86v9.88h-3.26Zm12.24,15.17q1.51-1.91,1.51-5.7a10.59,10.59,0,0,0-.67-4,4.92,4.92,0,0,0-9.28.18,13.33,13.33,0,0,0-.67,4.59,9.59,9.59,0,0,0,.67,3.81,4.94,4.94,0,0,0,8.44,1.1Z"/><path class="cls-1" d="M779.45,122.18a7.32,7.32,0,0,1,2.92,2.51,8.48,8.48,0,0,1,1.29,3.41,21.68,21.68,0,0,1,.29,4.26H769.88a8.37,8.37,0,0,0,1.38,4.74,4.6,4.6,0,0,0,4,1.78,5.14,5.14,0,0,0,4-1.68,5.76,5.76,0,0,0,1.19-2.27h3.2a6.53,6.53,0,0,1-.84,2.37,8.58,8.58,0,0,1-1.59,2.15,7.58,7.58,0,0,1-3.64,2,11.17,11.17,0,0,1-2.64.29,8.07,8.07,0,0,1-6.08-2.63q-2.5-2.64-2.5-7.36a11.13,11.13,0,0,1,2.52-7.57,8.25,8.25,0,0,1,6.57-2.91A8.83,8.83,0,0,1,779.45,122.18Zm1.16,7.6a8.58,8.58,0,0,0-.91-3.38,4.69,4.69,0,0,0-4.43-2.35,4.9,4.9,0,0,0-3.73,1.62,6.16,6.16,0,0,0-1.59,4.11Z"/><path class="cls-1" d="M788,114.46h3.12v15.41l8.34-8.22h4.16l-7.44,7.19L804,141h-4.16l-6.09-9.85-2.67,2.59V141H788Z"/><path class="cls-1" d="M807.22,116.25h3.29v5.4h3.09v2.66h-3.09v12.62a1.37,1.37,0,0,0,.69,1.36,2.92,2.92,0,0,0,1.26.2H813l.63-.06V141a6.38,6.38,0,0,1-1.17.23,10.59,10.59,0,0,1-1.31.08,3.54,3.54,0,0,1-3.09-1.17,5.18,5.18,0,0,1-.81-3V124.31H804.6v-2.66h2.62Z"/><path class="cls-1" d="M816.85,114.46h3.31v3.68h-3.31Zm0,7.28h3.31V141h-3.31Z"/><path class="cls-1" d="M826.67,121.65l5.17,15.75,5.38-15.75h3.56L833.5,141H830l-7.14-19.35Z"/><path class="cls-1" d="M160,173.42h9.07v3.34H160Z"/><path class="cls-1" d="M193.85,173.69a1.77,1.77,0,0,0,1.5-.94,3,3,0,0,0,.22-1.25,2.66,2.66,0,0,0-1.19-2.42,6.3,6.3,0,0,0-3.38-.75,4.27,4.27,0,0,0-3.6,1.38,4.48,4.48,0,0,0-.78,2.27h-3c.06-2.4.83-4.06,2.32-5a9.53,9.53,0,0,1,5.17-1.4,10.49,10.49,0,0,1,5.54,1.3,4.44,4.44,0,0,1,2.11,4.05v11.15a1.43,1.43,0,0,0,.21.81,1,1,0,0,0,.87.31l.49,0,.58-.08v2.4a10.72,10.72,0,0,1-1.16.27,7.87,7.87,0,0,1-1.08.05,2.66,2.66,0,0,1-2.44-1.19,4.55,4.55,0,0,1-.56-1.79,8.27,8.27,0,0,1-2.86,2.26,8.79,8.79,0,0,1-4.1,1,6.15,6.15,0,0,1-4.4-1.63,5.46,5.46,0,0,1-1.7-4.09,5.27,5.27,0,0,1,1.68-4.17,8,8,0,0,1,4.4-1.82ZM187,182.47a3.79,3.79,0,0,0,2.44.82,7.48,7.48,0,0,0,3.33-.8,4.47,4.47,0,0,0,2.71-4.31v-2.62a5.41,5.41,0,0,1-1.54.64,12.44,12.44,0,0,1-1.84.36l-2,.25a7.8,7.8,0,0,0-2.66.74,2.9,2.9,0,0,0-1.51,2.71A2.68,2.68,0,0,0,187,182.47Z"/><path class="cls-1" d="M204.15,158.86h3.25V185.4h-3.25Z"/><path class="cls-1" d="M212.37,158.86h3.25V185.4h-3.25Z"/><path class="cls-1" d="M221.15,160.65h3.29v5.4h3.08v2.66h-3.08v12.62a1.36,1.36,0,0,0,.68,1.36,3,3,0,0,0,1.27.2h.5l.63-.06v2.58a6.27,6.27,0,0,1-1.16.23,10.59,10.59,0,0,1-1.31.08q-2.28,0-3.09-1.17a5.19,5.19,0,0,1-.81-3v-12.8h-2.62v-2.66h2.62Z"/><path class="cls-1" d="M230.78,158.86h3.3v3.68h-3.3Zm0,7.28h3.3V185.4h-3.3Z"/><path class="cls-1" d="M249.63,166.65a8.79,8.79,0,0,1,2,1.89v-9.77h3.12V185.4h-2.92v-2.69a7.07,7.07,0,0,1-2.68,2.58,7.7,7.7,0,0,1-3.55.8,7.17,7.17,0,0,1-5.58-2.72,10.69,10.69,0,0,1-2.36-7.24,12.57,12.57,0,0,1,2.15-7.33,7.06,7.06,0,0,1,6.15-3.09A6.81,6.81,0,0,1,249.63,166.65Zm-7.26,14.5a4.59,4.59,0,0,0,4.21,2.1,4.44,4.44,0,0,0,3.69-1.94,9.27,9.27,0,0,0,1.45-5.58q0-3.66-1.5-5.43a4.64,4.64,0,0,0-3.68-1.76,4.85,4.85,0,0,0-4,1.88,8.6,8.6,0,0,0-1.52,5.53A9.56,9.56,0,0,0,242.37,181.15Z"/><path class="cls-1" d="M283.87,168q2.56,2.49,2.57,7.33a12.63,12.63,0,0,1-2.26,7.73q-2.26,3-7,3.05a7.88,7.88,0,0,1-6.29-2.7,10.69,10.69,0,0,1-2.33-7.25,11.55,11.55,0,0,1,2.45-7.76,8.22,8.22,0,0,1,6.61-2.89A8.66,8.66,0,0,1,283.87,168Zm-2,12.86A12.16,12.16,0,0,0,283,175.4a9.8,9.8,0,0,0-.85-4.4,4.83,4.83,0,0,0-4.69-2.67,4.58,4.58,0,0,0-4.28,2.27,10.56,10.56,0,0,0-1.34,5.49,9.19,9.19,0,0,0,1.34,5.14,4.7,4.7,0,0,0,4.25,2.06A4.42,4.42,0,0,0,281.85,180.84Z"/><path class="cls-1" d="M290.16,166.14h3.18v2.57a8.08,8.08,0,0,1,2.14-2.05,6.91,6.91,0,0,1,3.87-1.08,7.29,7.29,0,0,1,5.6,2.52q2.3,2.52,2.3,7.2,0,6.33-3.32,9a7.47,7.47,0,0,1-4.89,1.72,6.69,6.69,0,0,1-3.69-1,8.56,8.56,0,0,1-1.94-1.86v9.88h-3.25Zm12.24,15.17a9.1,9.1,0,0,0,1.51-5.7,10.59,10.59,0,0,0-.67-4,4.92,4.92,0,0,0-9.28.18,13.33,13.33,0,0,0-.67,4.59,9.59,9.59,0,0,0,.67,3.81,4.94,4.94,0,0,0,8.44,1.1Z"/><path class="cls-1" d="M310.74,166.14h3.18v2.57a7.93,7.93,0,0,1,2.14-2.05,6.88,6.88,0,0,1,3.87-1.08,7.29,7.29,0,0,1,5.6,2.52q2.3,2.52,2.3,7.2,0,6.33-3.32,9a7.48,7.48,0,0,1-4.9,1.72,6.65,6.65,0,0,1-3.68-1,8.36,8.36,0,0,1-1.94-1.86v9.88h-3.25ZM323,181.31a9,9,0,0,0,1.52-5.7,10.8,10.8,0,0,0-.67-4,4.92,4.92,0,0,0-9.28.18,13.31,13.31,0,0,0-.68,4.59,9.58,9.58,0,0,0,.68,3.81,4.93,4.93,0,0,0,8.43,1.1Z"/><path class="cls-1" d="M342.22,166.65a8.79,8.79,0,0,1,2,1.89v-9.77h3.13V185.4h-2.93v-2.69a7.07,7.07,0,0,1-2.68,2.58,7.7,7.7,0,0,1-3.55.8,7.17,7.17,0,0,1-5.58-2.72,10.69,10.69,0,0,1-2.36-7.24,12.57,12.57,0,0,1,2.15-7.33,7.06,7.06,0,0,1,6.15-3.09A6.81,6.81,0,0,1,342.22,166.65ZM335,181.15a4.59,4.59,0,0,0,4.21,2.1,4.44,4.44,0,0,0,3.69-1.94,9.27,9.27,0,0,0,1.45-5.58q0-3.66-1.5-5.43a4.64,4.64,0,0,0-3.68-1.76,4.85,4.85,0,0,0-4,1.88,8.6,8.6,0,0,0-1.52,5.53A9.56,9.56,0,0,0,335,181.15Z"/><path class="cls-1" d="M362.53,173.69a1.77,1.77,0,0,0,1.5-.94,2.8,2.8,0,0,0,.22-1.25,2.65,2.65,0,0,0-1.18-2.42,6.32,6.32,0,0,0-3.38-.75,4.28,4.28,0,0,0-3.61,1.38,4.58,4.58,0,0,0-.77,2.27h-3c.06-2.4.84-4.06,2.32-5a9.55,9.55,0,0,1,5.17-1.4,10.49,10.49,0,0,1,5.54,1.3,4.42,4.42,0,0,1,2.11,4.05v11.15a1.43,1.43,0,0,0,.21.81,1,1,0,0,0,.88.31l.48,0,.58-.08v2.4a10.66,10.66,0,0,1-1.15.27,8,8,0,0,1-1.09.05,2.67,2.67,0,0,1-2.44-1.19,4.72,4.72,0,0,1-.56-1.79,8.23,8.23,0,0,1-2.85,2.26,8.82,8.82,0,0,1-4.1,1,6.13,6.13,0,0,1-4.4-1.63,5.43,5.43,0,0,1-1.71-4.09,5.27,5.27,0,0,1,1.68-4.17,8,8,0,0,1,4.41-1.82Zm-6.84,8.78a3.77,3.77,0,0,0,2.44.82,7.41,7.41,0,0,0,3.32-.8,4.46,4.46,0,0,0,2.71-4.31v-2.62a5.46,5.46,0,0,1-1.53.64,12.7,12.7,0,0,1-1.84.36l-2,.25a7.8,7.8,0,0,0-2.65.74,2.88,2.88,0,0,0-1.51,2.71A2.66,2.66,0,0,0,355.69,182.47Z"/><path class="cls-1" d="M373.39,160.65h3.29v5.4h3.09v2.66h-3.09v12.62a1.37,1.37,0,0,0,.69,1.36,2.92,2.92,0,0,0,1.26.2h.51l.63-.06v2.58a6.22,6.22,0,0,1-1.17.23,10.43,10.43,0,0,1-1.3.08q-2.28,0-3.09-1.17a5.12,5.12,0,0,1-.82-3v-12.8h-2.62v-2.66h2.62Z"/><path class="cls-1" d="M395,166.58a7.41,7.41,0,0,1,2.93,2.5,8.58,8.58,0,0,1,1.29,3.42,22.51,22.51,0,0,1,.29,4.26H385.41a8.37,8.37,0,0,0,1.38,4.74,4.6,4.6,0,0,0,4,1.79,5.17,5.17,0,0,0,4-1.69,5.76,5.76,0,0,0,1.19-2.27h3.2a6.63,6.63,0,0,1-.84,2.38,9,9,0,0,1-1.59,2.14,7.58,7.58,0,0,1-3.64,2,11.17,11.17,0,0,1-2.64.29,8.07,8.07,0,0,1-6.08-2.63q-2.51-2.62-2.5-7.37a11.16,11.16,0,0,1,2.51-7.56,8.28,8.28,0,0,1,6.58-2.91A8.75,8.75,0,0,1,395,166.58Zm1.17,7.6a8.4,8.4,0,0,0-.92-3.38,4.67,4.67,0,0,0-4.42-2.35,4.9,4.9,0,0,0-3.73,1.62,6.16,6.16,0,0,0-1.59,4.11Z"/><path class="cls-1" d="M403.69,166.05h3.09v3.34a7.26,7.26,0,0,1,1.86-2.37,4.81,4.81,0,0,1,3.42-1.4h.3l.74.08v3.43a3.69,3.69,0,0,0-.53-.07,4.44,4.44,0,0,0-.53,0,4.66,4.66,0,0,0-3.78,1.58,5.51,5.51,0,0,0-1.32,3.64V185.4h-3.25Z"/><path class="cls-1" d="M416.57,160.65h3.29v5.4H423v2.66h-3.09v12.62a1.37,1.37,0,0,0,.69,1.36,2.92,2.92,0,0,0,1.26.2h.51l.63-.06v2.58a6.22,6.22,0,0,1-1.17.23,10.59,10.59,0,0,1-1.31.08,3.54,3.54,0,0,1-3.09-1.17,5.19,5.19,0,0,1-.81-3v-12.8H414v-2.66h2.62Z"/></svg>