<svg id="Layer_1" data-name="Layer 1" xmlns="http://www.w3.org/2000/svg" viewBox="0 0 980 300"><defs><style>.cls-1{fill:#010121;}</style></defs><title>text</title><path class="cls-1" d="M199.31,114.46h3.6v23.38h13.31V141H199.31Z"/><path class="cls-1" d="M219.46,114.46h3.3v3.68h-3.3Zm0,7.28h3.3V141h-3.3Z"/><path class="cls-1" d="M229.19,115.74c.76-1.11,2.23-1.66,4.39-1.66l.64,0,.74.05v3l-.74-.05h-.43c-1,0-1.6.26-1.79.77a14.6,14.6,0,0,0-.3,3.91H235v2.57H231.7V141h-3.21V124.31H225.8v-2.57h2.69v-3A5.88,5.88,0,0,1,229.19,115.74Z"/><path class="cls-1" d="M238.05,114.46h3.25V141h-3.25Z"/><path class="cls-1" d="M246.18,114.46h3.3v3.68h-3.3Zm0,7.28h3.3V141h-3.3Z"/><path class="cls-1" d="M265.15,122.43a8.68,8.68,0,0,1,1.87,1.84v-2.44h3v17.6a13,13,0,0,1-1.08,5.81q-2,3.94-7.61,3.94a9.25,9.25,0,0,1-5.24-1.4,5.45,5.45,0,0,1-2.38-4.38H257a3.63,3.63,0,0,0,.93,2,4.76,4.76,0,0,0,3.45,1.08q3.72,0,4.87-2.64a15.12,15.12,0,0,0,.63-5.54,6.43,6.43,0,0,1-2.34,2.2,7.79,7.79,0,0,1-3.62.72,7.7,7.7,0,0,1-5.48-2.23c-1.56-1.48-2.35-3.95-2.35-7.38q0-4.86,2.37-7.58a7.3,7.3,0,0,1,5.71-2.73A7,7,0,0,1,265.15,122.43Zm.4,3.48a4.72,4.72,0,0,0-3.76-1.73,4.64,4.64,0,0,0-4.67,3.21,12.81,12.81,0,0,0-.66,4.5,8,8,0,0,0,1.32,5,4.25,4.25,0,0,0,3.55,1.71,5,5,0,0,0,4.9-3.16,10.25,10.25,0,0,0,.79-4.18Q267,127.65,265.55,125.91Z"/><path class="cls-1" d="M276.69,121.9h3.78v3.94h-3.78Zm0,15.16h3.78V141h-3.78Z"/><path class="cls-1" d="M307.06,114.46h3.63V141h-3.63Z"/><path class="cls-1" d="M335.82,114.46v3.16h-8.94V141h-3.63V117.62H314.3v-3.16Z"/><path class="cls-1" d="M335.82,129h9.07v3.34h-9.07Z"/><path class="cls-1" d="M349.08,114.46h3.25V141h-3.25Z"/><path class="cls-1" d="M356.49,140.93l2.32-2.43a10.6,10.6,0,0,1-1.4-3,14.27,14.27,0,0,1-.49-3.94,12.13,12.13,0,0,1,2.3-7.28,7.75,7.75,0,0,1,6.71-3.19,9.22,9.22,0,0,1,4,.82,11.77,11.77,0,0,1,2.33,1.56l2.29-2.54.94.92-2.32,2.59a10.81,10.81,0,0,1,1.63,3.81,12.54,12.54,0,0,1,.31,2.78,11.52,11.52,0,0,1-2.53,7.68,8.36,8.36,0,0,1-6.75,3,10.16,10.16,0,0,1-3.57-.59,6.73,6.73,0,0,1-2.54-1.59l-2.18,2.31Zm12.09-16.47a6.11,6.11,0,0,0-2.52-.52,5,5,0,0,0-4.25,2.2,9.36,9.36,0,0,0-1.6,5.66,10.62,10.62,0,0,0,.28,2.49,15,15,0,0,0,.56,1.7l9.17-10.25A3.94,3.94,0,0,0,368.58,124.46Zm-4.77,14.08a6.42,6.42,0,0,0,2.12.36,5,5,0,0,0,4.89-3.21,10.58,10.58,0,0,0,.88-4.45,12.09,12.09,0,0,0-.28-2.8,9.39,9.39,0,0,0-.49-1.48l-9.06,10.21A4.49,4.49,0,0,0,363.81,138.54Z"/><path class="cls-1" d="M381.75,134.93a4.56,4.56,0,0,0,.83,2.49c.83,1.05,2.28,1.57,4.35,1.57a6.53,6.53,0,0,0,3.24-.78,2.6,2.6,0,0,0,1.4-2.43,2.07,2.07,0,0,0-1.12-1.9,13.73,13.73,0,0,0-2.82-.92l-2.63-.65a13.17,13.17,0,0,1-3.71-1.37,4.1,4.1,0,0,1-2.13-3.65,5.55,5.55,0,0,1,2-4.45,8.06,8.06,0,0,1,5.39-1.7q4.43,0,6.39,2.57a5.52,5.52,0,0,1,1.19,3.5h-3.07a3.66,3.66,0,0,0-.8-2c-.76-.85-2.09-1.28-4-1.28a4.84,4.84,0,0,0-2.86.71,2.16,2.16,0,0,0-1,1.85,2.28,2.28,0,0,0,1.27,2,7.83,7.83,0,0,0,2.18.79l2.19.52a17.18,17.18,0,0,1,4.78,1.65,4.34,4.34,0,0,1,1.9,3.92,5.94,5.94,0,0,1-2,4.46c-1.33,1.25-3.34,1.88-6.05,1.88-2.91,0-5-.65-6.19-2a7.35,7.35,0,0,1-1.95-4.85Z"/><path class="cls-1" d="M398.31,121.65h3.09v2.75a8.62,8.62,0,0,1,2.91-2.44,7.66,7.66,0,0,1,3.42-.74c2.74,0,4.6,1,5.56,2.87a10.22,10.22,0,0,1,.79,4.5V141h-3.3V128.8a6.56,6.56,0,0,0-.53-2.85,3.17,3.17,0,0,0-3.14-1.81,6.33,6.33,0,0,0-1.9.24,4.78,4.78,0,0,0-2.34,1.59,4.69,4.69,0,0,0-1.06,2,13.36,13.36,0,0,0-.25,2.91V141h-3.25Z"/><path class="cls-1" d="M418.89,114.46h3.31v3.68h-3.31Zm0,7.28h3.31V141h-3.31Z"/><path class="cls-1" d="M427.11,121.65h3.09v2.75a8.62,8.62,0,0,1,2.91-2.44,7.65,7.65,0,0,1,3.41-.74c2.75,0,4.6,1,5.57,2.87a10.22,10.22,0,0,1,.79,4.5V141h-3.3V128.8a6.56,6.56,0,0,0-.53-2.85,3.18,3.18,0,0,0-3.14-1.81,6.33,6.33,0,0,0-1.9.24,4.85,4.85,0,0,0-2.35,1.59,4.78,4.78,0,0,0-1.05,2,12.75,12.75,0,0,0-.25,2.91V141h-3.25Z"/><path class="cls-1" d="M458.44,122.43a8.71,8.71,0,0,1,1.88,1.84v-2.44h3v17.6a12.86,12.86,0,0,1-1.08,5.81q-2,3.94-7.61,3.94a9.27,9.27,0,0,1-5.24-1.4A5.45,5.45,0,0,1,447,143.4h3.31a3.63,3.63,0,0,0,.93,2,4.76,4.76,0,0,0,3.45,1.08q3.72,0,4.87-2.64a14.68,14.68,0,0,0,.63-5.54,6.43,6.43,0,0,1-2.34,2.2,8.38,8.38,0,0,1-9.1-1.51c-1.56-1.48-2.35-3.95-2.35-7.38q0-4.86,2.37-7.58a7.31,7.31,0,0,1,5.72-2.73A6.94,6.94,0,0,1,458.44,122.43Zm.4,3.48a4.71,4.71,0,0,0-3.75-1.73,4.65,4.65,0,0,0-4.68,3.21,12.81,12.81,0,0,0-.66,4.5,8,8,0,0,0,1.32,5,4.25,4.25,0,0,0,3.55,1.71,5,5,0,0,0,4.91-3.16,10.42,10.42,0,0,0,.79-4.18A8.13,8.13,0,0,0,458.84,125.91Z"/><path class="cls-1" d="M478.55,114.46h3.3v3.68h-3.3Zm0,7.28h3.3V141h-3.3Z"/><path class="cls-1" d="M497.13,114.46h3.26V141h-3.26Z"/><path class="cls-1" d="M505.27,114.46h3.3v3.68h-3.3Zm0,7.28h3.3V141h-3.3Z"/><path class="cls-1" d="M515.09,121.65l5.16,15.75,5.39-15.75h3.56L521.91,141h-3.46l-7.14-19.35Z"/><path class="cls-1" d="M533.92,134.93a4.64,4.64,0,0,0,.83,2.49c.84,1.05,2.29,1.57,4.35,1.57a6.59,6.59,0,0,0,3.25-.78,2.62,2.62,0,0,0,1.4-2.43,2.07,2.07,0,0,0-1.12-1.9,13.89,13.89,0,0,0-2.83-.92l-2.62-.65a13,13,0,0,1-3.71-1.37,4.1,4.1,0,0,1-2.13-3.65,5.54,5.54,0,0,1,2-4.45,8.08,8.08,0,0,1,5.39-1.7q4.44,0,6.39,2.57a5.46,5.46,0,0,1,1.19,3.5h-3.07a3.64,3.64,0,0,0-.79-2c-.77-.85-2.09-1.28-4-1.28a4.84,4.84,0,0,0-2.86.71,2.18,2.18,0,0,0-1,1.85,2.29,2.29,0,0,0,1.28,2,7.75,7.75,0,0,0,2.17.79l2.19.52a17.28,17.28,0,0,1,4.79,1.65A4.36,4.36,0,0,1,547,135.4a5.94,5.94,0,0,1-2,4.46q-2,1.88-6.05,1.88-4.36,0-6.19-2a7.4,7.4,0,0,1-2-4.85Z"/><path class="cls-1" d="M550.58,114.46h3.25V141h-3.25Z"/><path class="cls-1" d="M558,140.93l2.32-2.43a10.58,10.58,0,0,1-1.39-3,13.9,13.9,0,0,1-.49-3.94,12.07,12.07,0,0,1,2.3-7.28,7.74,7.74,0,0,1,6.7-3.19,9.22,9.22,0,0,1,4,.82,11.49,11.49,0,0,1,2.33,1.56l2.3-2.54.94.92-2.32,2.59a11,11,0,0,1,1.63,3.81,12.54,12.54,0,0,1,.31,2.78,11.53,11.53,0,0,1-2.54,7.68,8.34,8.34,0,0,1-6.74,3,10.22,10.22,0,0,1-3.58-.59,6.69,6.69,0,0,1-2.53-1.59l-2.19,2.31Zm12.09-16.47a6,6,0,0,0-2.52-.52,5,5,0,0,0-4.25,2.2,9.43,9.43,0,0,0-1.59,5.66,11.18,11.18,0,0,0,.27,2.49,17.3,17.3,0,0,0,.56,1.7l9.17-10.25A3.81,3.81,0,0,0,570.07,124.46Zm-4.77,14.08a6.47,6.47,0,0,0,2.12.36,5,5,0,0,0,4.9-3.21,10.74,10.74,0,0,0,.88-4.45,12.67,12.67,0,0,0-.28-2.8,10.75,10.75,0,0,0-.5-1.48l-9,10.21A4.46,4.46,0,0,0,565.3,138.54Z"/><path class="cls-1" d="M581,121.74h3.17v2.57a8.23,8.23,0,0,1,2.14-2,6.92,6.92,0,0,1,3.88-1.08,7.31,7.31,0,0,1,5.6,2.52q2.29,2.52,2.3,7.2,0,6.33-3.32,9a7.52,7.52,0,0,1-4.9,1.72,6.65,6.65,0,0,1-3.68-1,8.36,8.36,0,0,1-1.94-1.86v9.88H581Zm12.23,15.17a9,9,0,0,0,1.52-5.7,10.59,10.59,0,0,0-.68-4,4.92,4.92,0,0,0-9.28.18,13.33,13.33,0,0,0-.67,4.59,9.59,9.59,0,0,0,.67,3.81,4.94,4.94,0,0,0,8.44,1.1Z"/><path class="cls-1" d="M603.82,134.93a4.64,4.64,0,0,0,.83,2.49c.83,1.05,2.28,1.57,4.35,1.57a6.53,6.53,0,0,0,3.24-.78,2.61,2.61,0,0,0,1.41-2.43,2.09,2.09,0,0,0-1.12-1.9,13.89,13.89,0,0,0-2.83-.92l-2.63-.65a13.08,13.08,0,0,1-3.7-1.37,4.11,4.11,0,0,1-2.14-3.65,5.55,5.55,0,0,1,2-4.45,8.08,8.08,0,0,1,5.39-1.7c3,0,5.08.86,6.39,2.57a5.46,5.46,0,0,1,1.19,3.5h-3.07a3.72,3.72,0,0,0-.79-2c-.77-.85-2.09-1.28-4-1.28a4.84,4.84,0,0,0-2.86.71,2.18,2.18,0,0,0-1,1.85,2.29,2.29,0,0,0,1.28,2,7.75,7.75,0,0,0,2.17.79l2.19.52a17.18,17.18,0,0,1,4.78,1.65,4.34,4.34,0,0,1,1.9,3.92,5.94,5.94,0,0,1-2,4.46c-1.33,1.25-3.34,1.88-6,1.88-2.91,0-5-.65-6.19-2a7.4,7.4,0,0,1-1.95-4.85Z"/><path class="cls-1" d="M620.11,121.74h3.18v2.57a8.23,8.23,0,0,1,2.14-2,6.92,6.92,0,0,1,3.88-1.08,7.27,7.27,0,0,1,5.59,2.52q2.31,2.52,2.31,7.2,0,6.33-3.32,9a7.52,7.52,0,0,1-4.9,1.72,6.65,6.65,0,0,1-3.68-1,8.36,8.36,0,0,1-1.94-1.86v9.88h-3.26Zm12.24,15.17q1.51-1.91,1.51-5.7a10.59,10.59,0,0,0-.67-4,4.92,4.92,0,0,0-9.28.18,13.33,13.33,0,0,0-.67,4.59,9.59,9.59,0,0,0,.67,3.81,4.94,4.94,0,0,0,8.44,1.1Z"/><path class="cls-1" d="M652.91,122.18a7.29,7.29,0,0,1,2.93,2.51,8.48,8.48,0,0,1,1.29,3.41,21.68,21.68,0,0,1,.29,4.26H643.35a8.37,8.37,0,0,0,1.38,4.74,4.6,4.6,0,0,0,4,1.78,5.14,5.14,0,0,0,4-1.68,5.76,5.76,0,0,0,1.19-2.27h3.2a6.53,6.53,0,0,1-.84,2.37,8.83,8.83,0,0,1-1.59,2.15,7.54,7.54,0,0,1-3.64,2,11.17,11.17,0,0,1-2.64.29,8.07,8.07,0,0,1-6.08-2.63q-2.5-2.64-2.5-7.36a11.13,11.13,0,0,1,2.52-7.57,8.25,8.25,0,0,1,6.57-2.91A8.75,8.75,0,0,1,652.91,122.18Zm1.17,7.6a8.58,8.58,0,0,0-.91-3.38,4.69,4.69,0,0,0-4.43-2.35,4.86,4.86,0,0,0-3.72,1.62,6.12,6.12,0,0,0-1.6,4.11Z"/><path class="cls-1" d="M661.63,121.65h3.09V125a7.26,7.26,0,0,1,1.86-2.37,4.81,4.81,0,0,1,3.42-1.4h.3l.74.08v3.43a3.69,3.69,0,0,0-.53-.07l-.53,0a4.66,4.66,0,0,0-3.78,1.58,5.51,5.51,0,0,0-1.32,3.64V141h-3.25Z"/><path class="cls-1" d="M675.79,134.93a4.64,4.64,0,0,0,.84,2.49c.83,1.05,2.28,1.57,4.35,1.57a6.53,6.53,0,0,0,3.24-.78,2.6,2.6,0,0,0,1.4-2.43,2.07,2.07,0,0,0-1.12-1.9,13.73,13.73,0,0,0-2.82-.92l-2.63-.65a13.17,13.17,0,0,1-3.71-1.37,4.1,4.1,0,0,1-2.13-3.65,5.55,5.55,0,0,1,2-4.45,8.06,8.06,0,0,1,5.39-1.7q4.42,0,6.39,2.57a5.52,5.52,0,0,1,1.19,3.5h-3.07a3.73,3.73,0,0,0-.8-2c-.76-.85-2.09-1.28-4-1.28a4.82,4.82,0,0,0-2.86.71,2.16,2.16,0,0,0-1,1.85,2.28,2.28,0,0,0,1.27,2,7.87,7.87,0,0,0,2.17.79l2.2.52a17.18,17.18,0,0,1,4.78,1.65,4.34,4.34,0,0,1,1.9,3.92,5.92,5.92,0,0,1-2,4.46q-2,1.88-6,1.88-4.38,0-6.19-2a7.3,7.3,0,0,1-2-4.85Z"/><path class="cls-1" d="M692.09,121.74h3.18v2.57a7.93,7.93,0,0,1,2.14-2,6.91,6.91,0,0,1,3.87-1.08,7.29,7.29,0,0,1,5.6,2.52q2.29,2.52,2.3,7.2,0,6.33-3.32,9a7.48,7.48,0,0,1-4.9,1.72,6.67,6.67,0,0,1-3.68-1,8.56,8.56,0,0,1-1.94-1.86v9.88h-3.25Zm12.24,15.17a9.1,9.1,0,0,0,1.51-5.7,10.59,10.59,0,0,0-.67-4,4.92,4.92,0,0,0-9.28.18,13.33,13.33,0,0,0-.67,4.59,9.59,9.59,0,0,0,.67,3.81,4.94,4.94,0,0,0,8.44,1.1Z"/><path class="cls-1" d="M724.89,122.18a7.35,7.35,0,0,1,2.93,2.51,8.78,8.78,0,0,1,1.29,3.41,22.51,22.51,0,0,1,.29,4.26H715.32a8.3,8.3,0,0,0,1.39,4.74,4.59,4.59,0,0,0,4,1.78,5.16,5.16,0,0,0,4-1.68,5.76,5.76,0,0,0,1.19-2.27h3.2a6.93,6.93,0,0,1-.84,2.37,8.83,8.83,0,0,1-1.59,2.15,7.62,7.62,0,0,1-3.65,2,11,11,0,0,1-2.63.29,8.11,8.11,0,0,1-6.09-2.63q-2.49-2.64-2.49-7.36a11.17,11.17,0,0,1,2.51-7.57,8.28,8.28,0,0,1,6.57-2.91A8.76,8.76,0,0,1,724.89,122.18Zm1.17,7.6a8.57,8.57,0,0,0-.92-3.38,4.68,4.68,0,0,0-4.42-2.35,4.89,4.89,0,0,0-3.73,1.62,6.16,6.16,0,0,0-1.59,4.11Z"/><path class="cls-1" d="M733.45,114.46h3.12v15.41l8.34-8.22h4.15l-7.43,7.19L749.48,141h-4.15l-6.09-9.85-2.67,2.59V141h-3.12Z"/><path class="cls-1" d="M752.67,116.25H756v5.4H759v2.66H756v12.62a1.36,1.36,0,0,0,.68,1.36,3,3,0,0,0,1.27.2h.5l.63-.06V141a6.27,6.27,0,0,1-1.16.23,10.59,10.59,0,0,1-1.31.08q-2.28,0-3.09-1.17a5.18,5.18,0,0,1-.81-3V124.31h-2.62v-2.66h2.62Z"/><path class="cls-1" d="M762.3,114.46h3.3v3.68h-3.3Zm0,7.28h3.3V141h-3.3Z"/><path class="cls-1" d="M772.12,121.65l5.16,15.75,5.39-15.75h3.56L778.94,141h-3.46l-7.14-19.35Z"/><path class="cls-1" d="M198,173.42h9.07v3.34H198Z"/><path class="cls-1" d="M231.85,173.69a1.77,1.77,0,0,0,1.5-.94,3,3,0,0,0,.22-1.25,2.66,2.66,0,0,0-1.19-2.42,6.3,6.3,0,0,0-3.38-.75,4.27,4.27,0,0,0-3.6,1.38,4.48,4.48,0,0,0-.78,2.27h-3c.06-2.4.83-4.06,2.32-5a9.53,9.53,0,0,1,5.17-1.4,10.49,10.49,0,0,1,5.54,1.3,4.44,4.44,0,0,1,2.11,4.05v11.15a1.43,1.43,0,0,0,.21.81,1,1,0,0,0,.87.31l.49,0,.58-.08v2.4a10.72,10.72,0,0,1-1.16.27,7.87,7.87,0,0,1-1.08.05,2.66,2.66,0,0,1-2.44-1.19,4.55,4.55,0,0,1-.56-1.79,8.27,8.27,0,0,1-2.86,2.26,8.79,8.79,0,0,1-4.1,1,6.15,6.15,0,0,1-4.4-1.63,5.46,5.46,0,0,1-1.7-4.09,5.27,5.27,0,0,1,1.68-4.17,8,8,0,0,1,4.4-1.82ZM225,182.47a3.79,3.79,0,0,0,2.44.82,7.48,7.48,0,0,0,3.33-.8,4.47,4.47,0,0,0,2.71-4.31v-2.62a5.41,5.41,0,0,1-1.54.64,12.44,12.44,0,0,1-1.84.36l-2,.25a7.8,7.8,0,0,0-2.66.74,2.9,2.9,0,0,0-1.51,2.71A2.68,2.68,0,0,0,225,182.47Z"/><path class="cls-1" d="M242.15,158.86h3.25V185.4h-3.25Z"/><path class="cls-1" d="M250.37,158.86h3.25V185.4h-3.25Z"/><path class="cls-1" d="M259.15,160.65h3.29v5.4h3.08v2.66h-3.08v12.62a1.36,1.36,0,0,0,.68,1.36,3,3,0,0,0,1.27.2h.5l.63-.06v2.58a6.27,6.27,0,0,1-1.16.23,10.59,10.59,0,0,1-1.31.08q-2.28,0-3.09-1.17a5.19,5.19,0,0,1-.81-3v-12.8h-2.62v-2.66h2.62Z"/><path class="cls-1" d="M268.78,158.86h3.3v3.68h-3.3Zm0,7.28h3.3V185.4h-3.3Z"/><path class="cls-1" d="M287.63,166.65a8.79,8.79,0,0,1,2,1.89v-9.77h3.12V185.4h-2.92v-2.69a7.07,7.07,0,0,1-2.68,2.58,7.7,7.7,0,0,1-3.55.8,7.17,7.17,0,0,1-5.58-2.72,10.69,10.69,0,0,1-2.36-7.24,12.57,12.57,0,0,1,2.15-7.33,7.06,7.06,0,0,1,6.15-3.09A6.81,6.81,0,0,1,287.63,166.65Zm-7.26,14.5a4.59,4.59,0,0,0,4.21,2.1,4.44,4.44,0,0,0,3.69-1.94,9.27,9.27,0,0,0,1.45-5.58q0-3.66-1.5-5.43a4.64,4.64,0,0,0-3.68-1.76,4.85,4.85,0,0,0-4,1.88,8.6,8.6,0,0,0-1.52,5.53A9.56,9.56,0,0,0,280.37,181.15Z"/><path class="cls-1" d="M321.87,168q2.56,2.49,2.57,7.33a12.63,12.63,0,0,1-2.26,7.73q-2.26,3-7,3.05a7.88,7.88,0,0,1-6.29-2.7,10.69,10.69,0,0,1-2.33-7.25,11.55,11.55,0,0,1,2.45-7.76,8.22,8.22,0,0,1,6.61-2.89A8.66,8.66,0,0,1,321.87,168Zm-2,12.86A12.16,12.16,0,0,0,321,175.4a9.8,9.8,0,0,0-.85-4.4,4.83,4.83,0,0,0-4.69-2.67,4.58,4.58,0,0,0-4.28,2.27,10.56,10.56,0,0,0-1.34,5.49,9.19,9.19,0,0,0,1.34,5.14,4.7,4.7,0,0,0,4.25,2.06A4.42,4.42,0,0,0,319.85,180.84Z"/><path class="cls-1" d="M328.16,166.14h3.18v2.57a8.08,8.08,0,0,1,2.14-2.05,6.91,6.91,0,0,1,3.87-1.08,7.29,7.29,0,0,1,5.6,2.52q2.3,2.52,2.3,7.2,0,6.33-3.32,9a7.47,7.47,0,0,1-4.89,1.72,6.69,6.69,0,0,1-3.69-1,8.56,8.56,0,0,1-1.94-1.86v9.88h-3.25Zm12.24,15.17a9.1,9.1,0,0,0,1.51-5.7,10.59,10.59,0,0,0-.67-4,4.92,4.92,0,0,0-9.28.18,13.33,13.33,0,0,0-.67,4.59,9.59,9.59,0,0,0,.67,3.81,4.94,4.94,0,0,0,8.44,1.1Z"/><path class="cls-1" d="M348.74,166.14h3.18v2.57a7.93,7.93,0,0,1,2.14-2.05,6.88,6.88,0,0,1,3.87-1.08,7.29,7.29,0,0,1,5.6,2.52q2.3,2.52,2.3,7.2,0,6.33-3.32,9a7.48,7.48,0,0,1-4.9,1.72,6.65,6.65,0,0,1-3.68-1,8.36,8.36,0,0,1-1.94-1.86v9.88h-3.25ZM361,181.31a9,9,0,0,0,1.52-5.7,10.8,10.8,0,0,0-.67-4,4.92,4.92,0,0,0-9.28.18,13.31,13.31,0,0,0-.68,4.59,9.58,9.58,0,0,0,.68,3.81,4.93,4.93,0,0,0,8.43,1.1Z"/><path class="cls-1" d="M380.22,166.65a8.79,8.79,0,0,1,2,1.89v-9.77h3.13V185.4h-2.93v-2.69a7.07,7.07,0,0,1-2.68,2.58,7.7,7.7,0,0,1-3.55.8,7.17,7.17,0,0,1-5.58-2.72,10.69,10.69,0,0,1-2.36-7.24,12.57,12.57,0,0,1,2.15-7.33,7.06,7.06,0,0,1,6.15-3.09A6.81,6.81,0,0,1,380.22,166.65ZM373,181.15a4.59,4.59,0,0,0,4.21,2.1,4.44,4.44,0,0,0,3.69-1.94,9.27,9.27,0,0,0,1.45-5.58q0-3.66-1.5-5.43a4.64,4.64,0,0,0-3.68-1.76,4.85,4.85,0,0,0-4,1.88,8.6,8.6,0,0,0-1.52,5.53A9.56,9.56,0,0,0,373,181.15Z"/><path class="cls-1" d="M400.53,173.69a1.77,1.77,0,0,0,1.5-.94,2.8,2.8,0,0,0,.22-1.25,2.65,2.65,0,0,0-1.18-2.42,6.32,6.32,0,0,0-3.38-.75,4.28,4.28,0,0,0-3.61,1.38,4.58,4.58,0,0,0-.77,2.27h-3c.06-2.4.84-4.06,2.32-5a9.55,9.55,0,0,1,5.17-1.4,10.49,10.49,0,0,1,5.54,1.3,4.42,4.42,0,0,1,2.11,4.05v11.15a1.43,1.43,0,0,0,.21.81,1,1,0,0,0,.88.31l.48,0,.58-.08v2.4a10.66,10.66,0,0,1-1.15.27,8,8,0,0,1-1.09.05,2.67,2.67,0,0,1-2.44-1.19,4.72,4.72,0,0,1-.56-1.79,8.23,8.23,0,0,1-2.85,2.26,8.82,8.82,0,0,1-4.1,1,6.13,6.13,0,0,1-4.4-1.63,5.43,5.43,0,0,1-1.71-4.09,5.27,5.27,0,0,1,1.68-4.17,8,8,0,0,1,4.41-1.82Zm-6.84,8.78a3.77,3.77,0,0,0,2.44.82,7.41,7.41,0,0,0,3.32-.8,4.46,4.46,0,0,0,2.71-4.31v-2.62a5.46,5.46,0,0,1-1.53.64,12.7,12.7,0,0,1-1.84.36l-2,.25a7.8,7.8,0,0,0-2.65.74,2.88,2.88,0,0,0-1.51,2.71A2.66,2.66,0,0,0,393.69,182.47Z"/><path class="cls-1" d="M411.39,160.65h3.29v5.4h3.09v2.66h-3.09v12.62a1.37,1.37,0,0,0,.69,1.36,2.92,2.92,0,0,0,1.26.2h.51l.63-.06v2.58a6.22,6.22,0,0,1-1.17.23,10.43,10.43,0,0,1-1.3.08q-2.28,0-3.09-1.17a5.12,5.12,0,0,1-.82-3v-12.8h-2.62v-2.66h2.62Z"/><path class="cls-1" d="M433,166.58a7.41,7.41,0,0,1,2.93,2.5,8.58,8.58,0,0,1,1.29,3.42,22.51,22.51,0,0,1,.29,4.26H423.41a8.37,8.37,0,0,0,1.38,4.74,4.6,4.6,0,0,0,4,1.79,5.17,5.17,0,0,0,4-1.69,5.76,5.76,0,0,0,1.19-2.27h3.2a6.63,6.63,0,0,1-.84,2.38,9,9,0,0,1-1.59,2.14,7.58,7.58,0,0,1-3.64,2,11.17,11.17,0,0,1-2.64.29,8.07,8.07,0,0,1-6.08-2.63q-2.51-2.62-2.5-7.37a11.16,11.16,0,0,1,2.51-7.56,8.28,8.28,0,0,1,6.58-2.91A8.75,8.75,0,0,1,433,166.58Zm1.17,7.6a8.4,8.4,0,0,0-.92-3.38,4.67,4.67,0,0,0-4.42-2.35,4.9,4.9,0,0,0-3.73,1.62,6.16,6.16,0,0,0-1.59,4.11Z"/><path class="cls-1" d="M441.69,166.05h3.09v3.34a7.26,7.26,0,0,1,1.86-2.37,4.81,4.81,0,0,1,3.42-1.4h.3l.74.08v3.43a3.69,3.69,0,0,0-.53-.07,4.44,4.44,0,0,0-.53,0,4.66,4.66,0,0,0-3.78,1.58,5.51,5.51,0,0,0-1.32,3.64V185.4h-3.25Z"/><path class="cls-1" d="M454.57,160.65h3.29v5.4H461v2.66h-3.09v12.62a1.37,1.37,0,0,0,.69,1.36,2.92,2.92,0,0,0,1.26.2h.51l.63-.06v2.58a6.22,6.22,0,0,1-1.17.23,10.59,10.59,0,0,1-1.31.08,3.54,3.54,0,0,1-3.09-1.17,5.19,5.19,0,0,1-.81-3v-12.8H452v-2.66h2.62Z"/></svg>