<svg id="Layer_1" data-name="Layer 1" xmlns="http://www.w3.org/2000/svg" viewBox="0 0 980 300"><defs><style>.cls-1{fill:#010121;}</style></defs><title>text</title><path class="cls-1" d="M147.12,135h3.64v26.54h-3.64Z"/><path class="cls-1" d="M175.89,135v3.16h-8.95v23.38h-3.63V138.11h-8.94V135Z"/><path class="cls-1" d="M175.89,149.51H185v3.34h-9.07Z"/><path class="cls-1" d="M189.15,135h3.25v26.54h-3.25Z"/><path class="cls-1" d="M196.55,161.42l2.32-2.43a10.71,10.71,0,0,1-1.39-3,13.9,13.9,0,0,1-.49-3.94,12.07,12.07,0,0,1,2.3-7.28,7.74,7.74,0,0,1,6.7-3.19,9.22,9.22,0,0,1,4,.82,11.49,11.49,0,0,1,2.33,1.56l2.3-2.54.94.92-2.32,2.59a10.91,10.91,0,0,1,1.63,3.81,12.47,12.47,0,0,1,.31,2.78,11.55,11.55,0,0,1-2.54,7.68,8.34,8.34,0,0,1-6.74,3,10.22,10.22,0,0,1-3.58-.59,6.69,6.69,0,0,1-2.53-1.59l-2.19,2.3ZM208.64,145a6,6,0,0,0-2.52-.52,5,5,0,0,0-4.25,2.2,9.42,9.42,0,0,0-1.59,5.65,11.27,11.27,0,0,0,.27,2.5,17.3,17.3,0,0,0,.56,1.7l9.18-10.25A4,4,0,0,0,208.64,145ZM203.87,159a6.47,6.47,0,0,0,2.12.36,5,5,0,0,0,4.9-3.21,10.74,10.74,0,0,0,.88-4.45,12.6,12.6,0,0,0-.28-2.8,9.55,9.55,0,0,0-.5-1.48l-9.06,10.2A4.66,4.66,0,0,0,203.87,159Z"/><path class="cls-1" d="M221.81,155.42a4.73,4.73,0,0,0,.83,2.49c.84,1.05,2.29,1.57,4.35,1.57a6.59,6.59,0,0,0,3.25-.78,2.62,2.62,0,0,0,1.4-2.43,2.07,2.07,0,0,0-1.12-1.9,13.27,13.27,0,0,0-2.83-.92l-2.62-.65a12.71,12.71,0,0,1-3.71-1.38,4.08,4.08,0,0,1-2.13-3.65,5.55,5.55,0,0,1,2-4.44,8.1,8.1,0,0,1,5.39-1.7q4.44,0,6.39,2.57a5.46,5.46,0,0,1,1.19,3.5h-3.07a3.64,3.64,0,0,0-.79-2c-.77-.85-2.09-1.28-4-1.28a4.92,4.92,0,0,0-2.86.7,2.21,2.21,0,0,0-1,1.86,2.27,2.27,0,0,0,1.28,2,7.41,7.41,0,0,0,2.17.8l2.19.52A17.28,17.28,0,0,1,233,152a4.35,4.35,0,0,1,1.89,3.92,5.94,5.94,0,0,1-2,4.46c-1.32,1.25-3.34,1.88-6,1.88-2.92,0-5-.66-6.2-2a7.37,7.37,0,0,1-1.94-4.85Z"/><path class="cls-1" d="M238.38,142.14h3.09v2.74a8.51,8.51,0,0,1,2.91-2.43,7.65,7.65,0,0,1,3.41-.75q4.13,0,5.56,2.88a10.18,10.18,0,0,1,.8,4.5v12.41h-3.31v-12.2a6.57,6.57,0,0,0-.52-2.85,3.17,3.17,0,0,0-3.14-1.81,6.28,6.28,0,0,0-1.9.24,5.31,5.31,0,0,0-3.41,3.56,13.58,13.58,0,0,0-.24,2.92v10.14h-3.25Z"/><path class="cls-1" d="M259,135h3.3v3.68H259Zm0,7.28h3.3v19.26H259Z"/><path class="cls-1" d="M267.18,142.14h3.09v2.74a8.57,8.57,0,0,1,2.9-2.43,7.73,7.73,0,0,1,3.42-.75c2.74,0,4.6,1,5.56,2.88a10.18,10.18,0,0,1,.8,4.5v12.41h-3.31v-12.2a6.57,6.57,0,0,0-.52-2.85,3.17,3.17,0,0,0-3.14-1.81,6.24,6.24,0,0,0-1.9.24,4.81,4.81,0,0,0-2.35,1.59,4.71,4.71,0,0,0-1.06,2,13.58,13.58,0,0,0-.24,2.92v10.14h-3.25Z"/><path class="cls-1" d="M298.51,142.92a8.68,8.68,0,0,1,1.87,1.84v-2.44h3v17.6a13,13,0,0,1-1.08,5.81q-2,3.95-7.62,3.94a9.37,9.37,0,0,1-5.24-1.4,5.47,5.47,0,0,1-2.37-4.38h3.3a3.71,3.71,0,0,0,.94,2,4.76,4.76,0,0,0,3.45,1.08q3.72,0,4.87-2.64a15.12,15.12,0,0,0,.63-5.54,6.43,6.43,0,0,1-2.34,2.2,7.82,7.82,0,0,1-3.62.72,7.68,7.68,0,0,1-5.48-2.23q-2.35-2.24-2.35-7.38,0-4.86,2.37-7.59a7.28,7.28,0,0,1,5.71-2.72A7,7,0,0,1,298.51,142.92Zm.4,3.48a4.73,4.73,0,0,0-3.76-1.73,4.63,4.63,0,0,0-4.67,3.21,12.56,12.56,0,0,0-.67,4.5,8,8,0,0,0,1.32,5,4.27,4.27,0,0,0,3.55,1.71,5,5,0,0,0,4.91-3.17,10.17,10.17,0,0,0,.79-4.17Q300.38,148.15,298.91,146.4Z"/><path class="cls-1" d="M320.28,142.67a7.41,7.41,0,0,1,2.93,2.5,8.73,8.73,0,0,1,1.29,3.42,22.51,22.51,0,0,1,.29,4.26H310.72a8.22,8.22,0,0,0,1.38,4.74,4.59,4.59,0,0,0,4,1.78,5.16,5.16,0,0,0,4-1.68,5.76,5.76,0,0,0,1.19-2.27h3.2a6.93,6.93,0,0,1-.84,2.37,8.57,8.57,0,0,1-1.59,2.14,7.42,7.42,0,0,1-3.64,1.95,10.67,10.67,0,0,1-2.64.29,8.1,8.1,0,0,1-6.09-2.62c-1.66-1.76-2.49-4.21-2.49-7.37a11.21,11.21,0,0,1,2.51-7.57,8.28,8.28,0,0,1,6.57-2.91A8.78,8.78,0,0,1,320.28,142.67Zm1.17,7.6a8.57,8.57,0,0,0-.92-3.38,4.66,4.66,0,0,0-4.42-2.35,4.9,4.9,0,0,0-3.73,1.62,6.16,6.16,0,0,0-1.59,4.11Z"/><path class="cls-1" d="M329,142.14h3.09v3.34A7.38,7.38,0,0,1,334,143.1a4.83,4.83,0,0,1,3.41-1.4l.31,0,.74.08v3.43a3.69,3.69,0,0,0-.53-.07,4.44,4.44,0,0,0-.53,0,4.63,4.63,0,0,0-3.78,1.58,5.51,5.51,0,0,0-1.32,3.64v11.13H329Z"/><path class="cls-1" d="M353.44,155.42a4.73,4.73,0,0,0,.83,2.49c.84,1.05,2.29,1.57,4.35,1.57a6.57,6.57,0,0,0,3.25-.78,2.62,2.62,0,0,0,1.4-2.43,2.07,2.07,0,0,0-1.12-1.9,13.27,13.27,0,0,0-2.83-.92l-2.62-.65a12.83,12.83,0,0,1-3.71-1.38,4.08,4.08,0,0,1-2.13-3.65,5.55,5.55,0,0,1,2-4.44,8.11,8.11,0,0,1,5.4-1.7q4.42,0,6.39,2.57a5.57,5.57,0,0,1,1.19,3.5h-3.07a3.73,3.73,0,0,0-.8-2c-.76-.85-2.09-1.28-4-1.28a4.89,4.89,0,0,0-2.85.7,2.19,2.19,0,0,0-1,1.86,2.26,2.26,0,0,0,1.27,2,7.53,7.53,0,0,0,2.17.8l2.19.52a17.15,17.15,0,0,1,4.79,1.65,4.36,4.36,0,0,1,1.9,3.92,5.92,5.92,0,0,1-2,4.46c-1.32,1.25-3.34,1.88-6,1.88-2.92,0-5-.66-6.19-2a7.33,7.33,0,0,1-1.95-4.85Z"/><path class="cls-1" d="M384,144.07q2.57,2.49,2.57,7.33a12.6,12.6,0,0,1-2.27,7.72c-1.5,2-3.84,3-7,3a7.94,7.94,0,0,1-6.3-2.69,10.74,10.74,0,0,1-2.33-7.25,11.56,11.56,0,0,1,2.46-7.76,8.22,8.22,0,0,1,6.6-2.89A8.67,8.67,0,0,1,384,144.07Zm-2,12.86a12.33,12.33,0,0,0,1.19-5.44,9.76,9.76,0,0,0-.86-4.4,4.8,4.8,0,0,0-4.68-2.68,4.62,4.62,0,0,0-4.29,2.28,10.62,10.62,0,0,0-1.34,5.48,9.28,9.28,0,0,0,1.34,5.15,4.71,4.71,0,0,0,4.26,2.05A4.41,4.41,0,0,0,382,156.93Z"/><path class="cls-1" d="M390.59,142.14h3.21v2.74a10.56,10.56,0,0,1,2.1-2.07,6.27,6.27,0,0,1,3.65-1.11,5.74,5.74,0,0,1,3.72,1.14,6.18,6.18,0,0,1,1.45,1.92,7,7,0,0,1,2.54-2.31,7.11,7.11,0,0,1,3.29-.75q3.9,0,5.31,2.82a9.18,9.18,0,0,1,.76,4.09v12.88h-3.38V148.05a3.15,3.15,0,0,0-1-2.66,3.85,3.85,0,0,0-2.36-.72,4.7,4.7,0,0,0-3.3,1.28c-.92.86-1.38,2.28-1.38,4.28v11.26h-3.31V148.86a6.45,6.45,0,0,0-.47-2.87,2.84,2.84,0,0,0-2.76-1.36,4.76,4.76,0,0,0-3.35,1.43q-1.52,1.42-1.51,5.17v10.26h-3.25Z"/><path class="cls-1" d="M431.42,134.86h3.16v9.63a7.16,7.16,0,0,1,2.56-2.13,7.28,7.28,0,0,1,3.22-.73,7.59,7.59,0,0,1,5.89,2.49q2.26,2.48,2.26,7.32a12.61,12.61,0,0,1-2.23,7.63,7.26,7.26,0,0,1-6.19,3,6.34,6.34,0,0,1-3.73-1.06,8.86,8.86,0,0,1-1.94-2v2.48h-3Zm12.43,22.27a10.23,10.23,0,0,0,1.32-5.52,9,9,0,0,0-1.32-5.06,4.32,4.32,0,0,0-3.87-2,5.4,5.4,0,0,0-3.91,1.65q-1.67,1.63-1.67,5.42a11.91,11.91,0,0,0,.69,4.42,4.76,4.76,0,0,0,4.8,3.2A4.36,4.36,0,0,0,443.85,157.13Z"/><path class="cls-1" d="M452.36,135h3.25v26.54h-3.25Z"/><path class="cls-1" d="M460.49,135h3.3v3.68h-3.3Zm0,7.28h3.3v19.26h-3.3Z"/><path class="cls-1" d="M468.8,142.14h3.09v3.34a7.38,7.38,0,0,1,1.86-2.38,4.81,4.81,0,0,1,3.41-1.4l.31,0,.74.08v3.43a3.69,3.69,0,0,0-.53-.07,5.45,5.45,0,0,0-4.31,1.56,5.51,5.51,0,0,0-1.32,3.64v11.13H468.8Z"/><path class="cls-1" d="M501.94,142.73a9.12,9.12,0,0,1,2,1.9v-9.77H507v26.63H504.1V158.8a7.07,7.07,0,0,1-2.68,2.58,7.7,7.7,0,0,1-3.55.79,7.16,7.16,0,0,1-5.58-2.71,10.69,10.69,0,0,1-2.36-7.24,12.57,12.57,0,0,1,2.15-7.33,7.06,7.06,0,0,1,6.15-3.09A6.9,6.9,0,0,1,501.94,142.73Zm-7.26,14.51a4.58,4.58,0,0,0,4.2,2.1,4.45,4.45,0,0,0,3.7-1.94,9.27,9.27,0,0,0,1.45-5.58q0-3.66-1.5-5.43a4.64,4.64,0,0,0-3.68-1.76,4.89,4.89,0,0,0-4,1.88,8.66,8.66,0,0,0-1.51,5.53A9.58,9.58,0,0,0,494.68,157.24Z"/><path class="cls-1" d="M524,142.14h3.6q-.69,1.86-3.06,8.49c-1.18,3.33-2.16,6-3,8.14q-2.82,7.39-4,9c-.77,1.09-2.09,1.63-4,1.63a7.11,7.11,0,0,1-1.06-.06,7.88,7.88,0,0,1-.91-.19v-3a9.25,9.25,0,0,0,1.23.29,4.24,4.24,0,0,0,.66.06,2.33,2.33,0,0,0,1.33-.3,2.74,2.74,0,0,0,.71-.73c.06-.1.28-.59.65-1.48s.65-1.55.81-2l-7.15-19.92h3.68l5.19,15.76Z"/><path class="cls-1" d="M530.47,142.14h3.09v3.34a7.59,7.59,0,0,1,1.87-2.38,4.81,4.81,0,0,1,3.41-1.4l.31,0,.74.08v3.43a3.69,3.69,0,0,0-.53-.07,5.45,5.45,0,0,0-4.31,1.56,5.51,5.51,0,0,0-1.32,3.64v11.13h-3.26Z"/><path class="cls-1" d="M554.66,142.67a7.38,7.38,0,0,1,2.92,2.5,8.74,8.74,0,0,1,1.3,3.42,22.51,22.51,0,0,1,.29,4.26H545.09a8.37,8.37,0,0,0,1.38,4.74,4.6,4.6,0,0,0,4,1.78,5.14,5.14,0,0,0,4-1.68,5.91,5.91,0,0,0,1.2-2.27h3.19a6.53,6.53,0,0,1-.84,2.37,8.11,8.11,0,0,1-1.59,2.14,7.38,7.38,0,0,1-3.64,1.95,10.59,10.59,0,0,1-2.63.29,8.07,8.07,0,0,1-6.09-2.62c-1.66-1.76-2.49-4.21-2.49-7.37a11.16,11.16,0,0,1,2.51-7.57,8.25,8.25,0,0,1,6.57-2.91A8.81,8.81,0,0,1,554.66,142.67Zm1.16,7.6a8.41,8.41,0,0,0-.91-3.38,4.67,4.67,0,0,0-4.43-2.35,4.86,4.86,0,0,0-3.72,1.62,6.12,6.12,0,0,0-1.6,4.11Z"/><path class="cls-1" d="M563.37,142.14h3.09v3.34a7.68,7.68,0,0,1,1.86-2.38,4.85,4.85,0,0,1,3.42-1.4l.3,0,.75.08v3.43a3.81,3.81,0,0,0-.54-.07,4.44,4.44,0,0,0-.53,0,4.59,4.59,0,0,0-3.77,1.58,5.51,5.51,0,0,0-1.32,3.64v11.13h-3.26Z"/><path class="cls-1" d="M587.56,142.67a7.38,7.38,0,0,1,2.92,2.5,8.74,8.74,0,0,1,1.3,3.42,22.71,22.71,0,0,1,.28,4.26H578a8.37,8.37,0,0,0,1.38,4.74,4.6,4.6,0,0,0,4,1.78,5.14,5.14,0,0,0,4-1.68,5.91,5.91,0,0,0,1.2-2.27h3.19a6.53,6.53,0,0,1-.84,2.37,8.11,8.11,0,0,1-1.59,2.14,7.38,7.38,0,0,1-3.64,1.95,10.59,10.59,0,0,1-2.63.29,8.07,8.07,0,0,1-6.09-2.62,10.31,10.31,0,0,1-2.5-7.37,11.16,11.16,0,0,1,2.52-7.57,8.25,8.25,0,0,1,6.57-2.91A8.81,8.81,0,0,1,587.56,142.67Zm1.16,7.6a8.41,8.41,0,0,0-.91-3.38,4.68,4.68,0,0,0-4.43-2.35,4.86,4.86,0,0,0-3.72,1.62,6.12,6.12,0,0,0-1.6,4.11Z"/><path class="cls-1" d="M618.41,142.67a7.34,7.34,0,0,1,2.93,2.5,8.58,8.58,0,0,1,1.29,3.42,21.68,21.68,0,0,1,.29,4.26H608.85a8.37,8.37,0,0,0,1.38,4.74,4.6,4.6,0,0,0,4,1.78,5.14,5.14,0,0,0,4-1.68,5.76,5.76,0,0,0,1.19-2.27h3.2a6.53,6.53,0,0,1-.84,2.37,8.57,8.57,0,0,1-1.59,2.14,7.38,7.38,0,0,1-3.64,1.95,10.67,10.67,0,0,1-2.64.29,8.06,8.06,0,0,1-6.08-2.62c-1.67-1.76-2.5-4.21-2.5-7.37a11.16,11.16,0,0,1,2.52-7.57,8.25,8.25,0,0,1,6.57-2.91A8.77,8.77,0,0,1,618.41,142.67Zm1.17,7.6a8.58,8.58,0,0,0-.91-3.38,4.68,4.68,0,0,0-4.43-2.35,4.86,4.86,0,0,0-3.72,1.62,6.12,6.12,0,0,0-1.6,4.11Z"/><path class="cls-1" d="M627,142.14h3.09v2.74a8.6,8.6,0,0,1,2.91-2.43,7.65,7.65,0,0,1,3.41-.75c2.75,0,4.6,1,5.57,2.88a10.2,10.2,0,0,1,.79,4.5v12.41h-3.3v-12.2a6.56,6.56,0,0,0-.53-2.85,3.17,3.17,0,0,0-3.14-1.81,6.33,6.33,0,0,0-1.9.24,4.85,4.85,0,0,0-2.35,1.59,4.69,4.69,0,0,0-1.05,2,12.85,12.85,0,0,0-.25,2.92v10.14H627Z"/><path class="cls-1" d="M647.62,142.14h3.09v2.74a8.51,8.51,0,0,1,2.91-2.43,7.65,7.65,0,0,1,3.41-.75q4.13,0,5.56,2.88a10,10,0,0,1,.8,4.5v12.41h-3.31v-12.2a6.57,6.57,0,0,0-.52-2.85,3.17,3.17,0,0,0-3.14-1.81,6.24,6.24,0,0,0-1.9.24,5.31,5.31,0,0,0-3.41,3.56,13.58,13.58,0,0,0-.24,2.92v10.14h-3.25Z"/><path class="cls-1" d="M688.85,149.78a1.79,1.79,0,0,0,1.5-.94,3,3,0,0,0,.21-1.25,2.65,2.65,0,0,0-1.18-2.42,6.31,6.31,0,0,0-3.38-.76,4.28,4.28,0,0,0-3.61,1.38,4.65,4.65,0,0,0-.77,2.27h-3c.06-2.39.84-4.05,2.32-5a9.55,9.55,0,0,1,5.17-1.4,10.47,10.47,0,0,1,5.54,1.3,4.42,4.42,0,0,1,2.11,4.05v11.14a1.45,1.45,0,0,0,.21.82,1,1,0,0,0,.88.3l.48,0,.58-.08v2.4a10.66,10.66,0,0,1-1.15.27,10.1,10.1,0,0,1-1.09.05,2.67,2.67,0,0,1-2.44-1.19,4.72,4.72,0,0,1-.56-1.79,8.23,8.23,0,0,1-2.85,2.26,8.82,8.82,0,0,1-4.1,1,6.1,6.1,0,0,1-4.4-1.64,5.4,5.4,0,0,1-1.71-4.08,5.27,5.27,0,0,1,1.68-4.17,8,8,0,0,1,4.41-1.82ZM682,158.56a3.82,3.82,0,0,0,2.44.81,7.4,7.4,0,0,0,3.32-.79,4.46,4.46,0,0,0,2.71-4.31v-2.62a5.46,5.46,0,0,1-1.53.64,12.7,12.7,0,0,1-1.84.36l-2,.25a7.8,7.8,0,0,0-2.65.74,2.88,2.88,0,0,0-1.51,2.71A2.66,2.66,0,0,0,682,158.56Z"/><path class="cls-1" d="M699.05,142.14h3.09v2.74a8.69,8.69,0,0,1,2.91-2.43,7.65,7.65,0,0,1,3.41-.75q4.13,0,5.57,2.88a10.2,10.2,0,0,1,.79,4.5v12.41h-3.3v-12.2a6.56,6.56,0,0,0-.53-2.85,3.16,3.16,0,0,0-3.14-1.81,6.21,6.21,0,0,0-1.89.24,4.76,4.76,0,0,0-2.35,1.59,4.6,4.6,0,0,0-1.06,2,13.46,13.46,0,0,0-.25,2.92v10.14h-3.25Z"/><path class="cls-1" d="M720.28,136.74h3.29v5.4h3.09v2.65h-3.09v12.63a1.37,1.37,0,0,0,.69,1.36,2.92,2.92,0,0,0,1.26.2l.51,0a3.9,3.9,0,0,0,.63-.06v2.59a7.13,7.13,0,0,1-1.17.23,10.68,10.68,0,0,1-1.31.07c-1.51,0-2.54-.38-3.09-1.16a5.21,5.21,0,0,1-.81-3V144.79h-2.62v-2.65h2.62Z"/><path class="cls-1" d="M740.28,149.78a1.77,1.77,0,0,0,1.5-.94,3,3,0,0,0,.22-1.25,2.67,2.67,0,0,0-1.18-2.42,6.34,6.34,0,0,0-3.38-.76,4.28,4.28,0,0,0-3.61,1.38,4.55,4.55,0,0,0-.78,2.27h-3q.09-3.59,2.32-5a9.53,9.53,0,0,1,5.17-1.4,10.49,10.49,0,0,1,5.54,1.3,4.42,4.42,0,0,1,2.11,4.05v11.14a1.45,1.45,0,0,0,.21.82c.13.2.43.3.87.3l.49,0,.58-.08v2.4a10.72,10.72,0,0,1-1.16.27,9.75,9.75,0,0,1-1.08.05,2.66,2.66,0,0,1-2.44-1.19,4.72,4.72,0,0,1-.56-1.79,8.18,8.18,0,0,1-2.86,2.26,8.79,8.79,0,0,1-4.1,1,6.11,6.11,0,0,1-4.4-1.64,5.43,5.43,0,0,1-1.7-4.08,5.27,5.27,0,0,1,1.68-4.17,8,8,0,0,1,4.41-1.82Zm-6.85,8.78a3.84,3.84,0,0,0,2.44.81,7.41,7.41,0,0,0,3.33-.79,4.47,4.47,0,0,0,2.71-4.31v-2.62a5.46,5.46,0,0,1-1.53.64,12.7,12.7,0,0,1-1.84.36l-2,.25a7.87,7.87,0,0,0-2.66.74,2.9,2.9,0,0,0-1.51,2.71A2.68,2.68,0,0,0,733.43,158.56Z"/><path class="cls-1" d="M751.14,136.74h3.29v5.4h3.09v2.65h-3.09v12.63a1.38,1.38,0,0,0,.68,1.36,3,3,0,0,0,1.27.2l.5,0a4,4,0,0,0,.64-.06v2.59a7.57,7.57,0,0,1-1.17.23,10.68,10.68,0,0,1-1.31.07c-1.52,0-2.55-.38-3.09-1.16a5.21,5.21,0,0,1-.81-3V144.79h-2.62v-2.65h2.62Z"/><path class="cls-1" d="M761.42,136.74h3.29v5.4h3.08v2.65h-3.08v12.63a1.38,1.38,0,0,0,.68,1.36,3,3,0,0,0,1.27.2l.5,0a3.9,3.9,0,0,0,.63-.06v2.59a7.22,7.22,0,0,1-1.16.23,10.68,10.68,0,0,1-1.31.07c-1.52,0-2.55-.38-3.09-1.16a5.21,5.21,0,0,1-.81-3V144.79H758.8v-2.65h2.62Z"/><path class="cls-1" d="M773.71,137a9.13,9.13,0,0,1,11.9-.34,6.81,6.81,0,0,1,2.17,5.19,5.52,5.52,0,0,1-.79,3.11,24,24,0,0,1-3.22,3.5,10.42,10.42,0,0,0-2.31,2.85,8.71,8.71,0,0,0-.53,3.44h-3.22a11.65,11.65,0,0,1,.62-4.16,11.12,11.12,0,0,1,2.73-3.63l1.48-1.42a6,6,0,0,0,1.07-1.29,4.44,4.44,0,0,0,.75-2.43,4.67,4.67,0,0,0-1.08-3.08,5.33,5.33,0,0,0-7.83.94,8.57,8.57,0,0,0-.75,3.6h-3.22A8.79,8.79,0,0,1,773.71,137Zm3.93,20.75h3.6v3.76h-3.6Z"/></svg>