<svg id="Layer_1" data-name="Layer 1" xmlns="http://www.w3.org/2000/svg" viewBox="0 0 980 300"><defs><style>.cls-1{fill:#010121;}</style></defs><title>text</title><path class="cls-1" d="M192.9,135.69h3.63v11h13.64v-11h3.63v26.54h-3.63V149.82H196.53v12.41H192.9Z"/><path class="cls-1" d="M229.47,150.52a1.77,1.77,0,0,0,1.5-.94,3,3,0,0,0,.21-1.25,2.65,2.65,0,0,0-1.18-2.42,6.29,6.29,0,0,0-3.38-.76,4.27,4.27,0,0,0-3.6,1.38,4.55,4.55,0,0,0-.78,2.27h-3q.09-3.59,2.32-5a9.5,9.5,0,0,1,5.16-1.4,10.45,10.45,0,0,1,5.54,1.3,4.42,4.42,0,0,1,2.12,4V158.9a1.53,1.53,0,0,0,.2.82,1,1,0,0,0,.88.3l.49,0,.58-.08v2.4a11.29,11.29,0,0,1-1.16.27,8,8,0,0,1-1.08,0,2.66,2.66,0,0,1-2.44-1.19,4.55,4.55,0,0,1-.56-1.79,8.36,8.36,0,0,1-2.86,2.26,8.82,8.82,0,0,1-4.1,1,6.15,6.15,0,0,1-4.4-1.63,5.43,5.43,0,0,1-1.71-4.09,5.25,5.25,0,0,1,1.69-4.17,8,8,0,0,1,4.4-1.82Zm-6.85,8.78a3.84,3.84,0,0,0,2.44.81,7.4,7.4,0,0,0,3.32-.79,4.46,4.46,0,0,0,2.71-4.31v-2.62a5.22,5.22,0,0,1-1.53.64,12.44,12.44,0,0,1-1.84.36l-2,.25a7.8,7.8,0,0,0-2.66.74,2.88,2.88,0,0,0-1.51,2.71A2.66,2.66,0,0,0,222.62,159.3Z"/><path class="cls-1" d="M239.77,142.88h3.09v3.34a7.38,7.38,0,0,1,1.86-2.38,4.81,4.81,0,0,1,3.41-1.4l.31,0,.74.08V146a3.69,3.69,0,0,0-.53-.07,5.45,5.45,0,0,0-4.31,1.56A5.51,5.51,0,0,0,243,151.1v11.13h-3.25Z"/><path class="cls-1" d="M272.91,143.47a9.12,9.12,0,0,1,2,1.9V135.6H278v26.63h-2.92v-2.69a7.07,7.07,0,0,1-2.68,2.58,7.7,7.7,0,0,1-3.55.79,7.16,7.16,0,0,1-5.58-2.71A10.69,10.69,0,0,1,260.9,153a12.57,12.57,0,0,1,2.15-7.33,7.06,7.06,0,0,1,6.15-3.09A6.9,6.9,0,0,1,272.91,143.47ZM265.65,158a4.58,4.58,0,0,0,4.2,2.1,4.45,4.45,0,0,0,3.7-1.94,9.27,9.27,0,0,0,1.45-5.58q0-3.66-1.5-5.43a4.64,4.64,0,0,0-3.68-1.76,4.89,4.89,0,0,0-4,1.88,8.66,8.66,0,0,0-1.51,5.53A9.58,9.58,0,0,0,265.65,158Z"/><path class="cls-1" d="M294.81,143.41a7.38,7.38,0,0,1,2.92,2.5,8.74,8.74,0,0,1,1.3,3.42,22.71,22.71,0,0,1,.28,4.26H285.24a8.37,8.37,0,0,0,1.38,4.74,4.6,4.6,0,0,0,4,1.78,5.14,5.14,0,0,0,4-1.68,5.76,5.76,0,0,0,1.19-2.27H299a6.53,6.53,0,0,1-.84,2.37,8.11,8.11,0,0,1-1.59,2.14,7.47,7.47,0,0,1-3.64,2,11.2,11.2,0,0,1-2.64.28,8.06,8.06,0,0,1-6.08-2.62c-1.67-1.76-2.5-4.21-2.5-7.37a11.16,11.16,0,0,1,2.52-7.57,8.25,8.25,0,0,1,6.57-2.91A8.84,8.84,0,0,1,294.81,143.41ZM296,151a8.58,8.58,0,0,0-.91-3.38,4.68,4.68,0,0,0-4.43-2.35,4.86,4.86,0,0,0-3.72,1.62,6.12,6.12,0,0,0-1.6,4.11Z"/><path class="cls-1" d="M303.52,142.88h3.09v3.34a7.38,7.38,0,0,1,1.86-2.38,4.85,4.85,0,0,1,3.42-1.4l.3,0,.75.08V146a4,4,0,0,0-.54-.07,4.44,4.44,0,0,0-.53,0,4.63,4.63,0,0,0-3.78,1.58,5.51,5.51,0,0,0-1.32,3.64v11.13h-3.25Z"/><path class="cls-1" d="M327.7,143.41a7.34,7.34,0,0,1,2.93,2.5,8.58,8.58,0,0,1,1.29,3.42,21.68,21.68,0,0,1,.29,4.26H318.14a8.37,8.37,0,0,0,1.38,4.74,4.6,4.6,0,0,0,4,1.78,5.14,5.14,0,0,0,4-1.68,5.76,5.76,0,0,0,1.19-2.27h3.2a6.53,6.53,0,0,1-.84,2.37,8.57,8.57,0,0,1-1.59,2.14,7.51,7.51,0,0,1-3.64,2,11.2,11.2,0,0,1-2.64.28,8.06,8.06,0,0,1-6.08-2.62c-1.67-1.76-2.5-4.21-2.5-7.37a11.16,11.16,0,0,1,2.52-7.57,8.25,8.25,0,0,1,6.57-2.91A8.77,8.77,0,0,1,327.7,143.41Zm1.17,7.6a8.58,8.58,0,0,0-.91-3.38,4.68,4.68,0,0,0-4.43-2.35,4.86,4.86,0,0,0-3.72,1.62,6.12,6.12,0,0,0-1.6,4.11Z"/><path class="cls-1" d="M349.86,142.88v12.84a5.58,5.58,0,0,0,.46,2.42,3.17,3.17,0,0,0,3.15,1.74,4.43,4.43,0,0,0,4.5-3,12.18,12.18,0,0,0,.65-4.46v-9.5h3.26v19.35h-3.07l0-2.86a6.38,6.38,0,0,1-1.54,1.86,6.68,6.68,0,0,1-4.43,1.52q-4.06,0-5.53-2.76a8.29,8.29,0,0,1-.8-4V142.88Z"/><path class="cls-1" d="M368.71,137c.75-1.11,2.22-1.66,4.39-1.66.2,0,.41,0,.63,0l.74,0v3l-.74,0h-.43c-1,0-1.6.26-1.79.77a14.77,14.77,0,0,0-.29,3.91h3.25v2.56h-3.25v16.7H368v-16.7h-2.69V143H368v-3A5.72,5.72,0,0,1,368.71,137Z"/><path class="cls-1" d="M391.49,144.81q2.56,2.49,2.56,7.33a12.6,12.6,0,0,1-2.26,7.72c-1.5,2-3.84,3-7,3a7.94,7.94,0,0,1-6.3-2.69,10.74,10.74,0,0,1-2.33-7.25,11.56,11.56,0,0,1,2.46-7.76,8.22,8.22,0,0,1,6.6-2.89A8.68,8.68,0,0,1,391.49,144.81Zm-2,12.86a12.3,12.3,0,0,0,1.19-5.44,9.76,9.76,0,0,0-.86-4.4,4.82,4.82,0,0,0-4.68-2.68,4.6,4.6,0,0,0-4.29,2.28,10.62,10.62,0,0,0-1.34,5.48,9.28,9.28,0,0,0,1.34,5.15,4.7,4.7,0,0,0,4.25,2.05A4.43,4.43,0,0,0,389.47,157.67Z"/><path class="cls-1" d="M398.14,142.88h3.09v3.34a7.38,7.38,0,0,1,1.86-2.38,4.81,4.81,0,0,1,3.41-1.4l.31,0,.74.08V146a3.69,3.69,0,0,0-.53-.07,5.45,5.45,0,0,0-4.31,1.56,5.51,5.51,0,0,0-1.32,3.64v11.13h-3.25Z"/><path class="cls-1" d="M413.62,142.88v12.84a5.44,5.44,0,0,0,.46,2.42,3.17,3.17,0,0,0,3.15,1.74,4.45,4.45,0,0,0,4.5-3,12.4,12.4,0,0,0,.65-4.46v-9.5h3.25v19.35h-3.07l0-2.86a6.55,6.55,0,0,1-1.54,1.86,6.69,6.69,0,0,1-4.44,1.52c-2.7,0-4.55-.92-5.53-2.76a8.42,8.42,0,0,1-.79-4V142.88Z"/><path class="cls-1" d="M431.6,137.48h3.28v5.4H438v2.65h-3.09v12.63a1.37,1.37,0,0,0,.69,1.36,2.92,2.92,0,0,0,1.26.2l.51,0a3.9,3.9,0,0,0,.63-.06v2.59a7.22,7.22,0,0,1-1.16.23,10.8,10.8,0,0,1-1.31.07c-1.52,0-2.55-.38-3.09-1.16a5.21,5.21,0,0,1-.81-3V145.53H429v-2.65h2.62Z"/><path class="cls-1" d="M443.16,156.16a4.64,4.64,0,0,0,.83,2.49c.83,1,2.28,1.57,4.35,1.57a6.53,6.53,0,0,0,3.24-.78A2.61,2.61,0,0,0,453,157a2.09,2.09,0,0,0-1.12-1.9,13.27,13.27,0,0,0-2.83-.92l-2.63-.65a12.94,12.94,0,0,1-3.71-1.38,4.07,4.07,0,0,1-2.13-3.64,5.53,5.53,0,0,1,2-4.45,8.08,8.08,0,0,1,5.39-1.7q4.44,0,6.39,2.57a5.46,5.46,0,0,1,1.19,3.5h-3.07a3.72,3.72,0,0,0-.79-2c-.77-.85-2.09-1.28-4-1.28a4.84,4.84,0,0,0-2.86.71,2.16,2.16,0,0,0-1,1.85,2.29,2.29,0,0,0,1.28,2,7.75,7.75,0,0,0,2.17.79l2.19.52a17.41,17.41,0,0,1,4.79,1.65,4.35,4.35,0,0,1,1.89,3.92,5.94,5.94,0,0,1-2,4.46c-1.33,1.25-3.34,1.88-6.05,1.88-2.91,0-5-.66-6.19-2a7.43,7.43,0,0,1-2-4.85Z"/><path class="cls-1" d="M459.73,135.69H463v3.68h-3.3Zm0,7.28H463v19.26h-3.3Z"/><path class="cls-1" d="M478.7,143.66a8.68,8.68,0,0,1,1.87,1.84v-2.44h3v17.6a13,13,0,0,1-1.08,5.81q-2,3.94-7.61,3.94a9.33,9.33,0,0,1-5.24-1.4,5.45,5.45,0,0,1-2.38-4.38h3.3a3.71,3.71,0,0,0,.94,2,4.76,4.76,0,0,0,3.45,1.08q3.72,0,4.87-2.64a15.12,15.12,0,0,0,.63-5.54,6.43,6.43,0,0,1-2.34,2.2,7.79,7.79,0,0,1-3.62.72,7.7,7.7,0,0,1-5.48-2.23q-2.36-2.23-2.35-7.38,0-4.86,2.37-7.59a7.29,7.29,0,0,1,5.71-2.72A7,7,0,0,1,478.7,143.66Zm.4,3.48a4.73,4.73,0,0,0-3.76-1.73,4.64,4.64,0,0,0-4.67,3.21,12.78,12.78,0,0,0-.67,4.5,8,8,0,0,0,1.33,5,4.25,4.25,0,0,0,3.55,1.71,5,5,0,0,0,4.9-3.16,10.25,10.25,0,0,0,.79-4.18Q480.57,148.89,479.1,147.14Z"/><path class="cls-1" d="M488.25,135.6h3.16v9.63a7.11,7.11,0,0,1,5.79-2.86,7.55,7.55,0,0,1,5.88,2.49c1.51,1.65,2.26,4.1,2.26,7.32a12.54,12.54,0,0,1-2.23,7.63,7.25,7.25,0,0,1-6.18,3,6.37,6.37,0,0,1-3.74-1.06,9.31,9.31,0,0,1-1.94-2v2.48h-3Zm12.44,22.27a10.32,10.32,0,0,0,1.31-5.52,9.08,9.08,0,0,0-1.31-5.06,4.34,4.34,0,0,0-3.88-2,5.4,5.4,0,0,0-3.9,1.65q-1.68,1.63-1.68,5.42a11.91,11.91,0,0,0,.69,4.42,4.76,4.76,0,0,0,4.8,3.2A4.37,4.37,0,0,0,500.69,157.87Z"/><path class="cls-1" d="M519.47,150.52a1.77,1.77,0,0,0,1.5-.94,3,3,0,0,0,.22-1.25,2.67,2.67,0,0,0-1.18-2.42,6.34,6.34,0,0,0-3.38-.76,4.28,4.28,0,0,0-3.61,1.38,4.55,4.55,0,0,0-.78,2.27h-3q.09-3.59,2.32-5a9.53,9.53,0,0,1,5.17-1.4,10.49,10.49,0,0,1,5.54,1.3,4.44,4.44,0,0,1,2.11,4V158.9a1.45,1.45,0,0,0,.21.82c.13.2.43.3.87.3l.49,0,.58-.08v2.4a10.72,10.72,0,0,1-1.16.27,7.87,7.87,0,0,1-1.08,0,2.66,2.66,0,0,1-2.44-1.19,4.55,4.55,0,0,1-.56-1.79,8.27,8.27,0,0,1-2.86,2.26,8.79,8.79,0,0,1-4.1,1,6.15,6.15,0,0,1-4.4-1.63,5.46,5.46,0,0,1-1.7-4.09,5.27,5.27,0,0,1,1.68-4.17,8,8,0,0,1,4.41-1.82Zm-6.85,8.78a3.84,3.84,0,0,0,2.44.81,7.44,7.44,0,0,0,3.33-.79A4.47,4.47,0,0,0,521.1,155v-2.62a5.41,5.41,0,0,1-1.54.64,12.19,12.19,0,0,1-1.84.36l-2,.25a7.87,7.87,0,0,0-2.66.74,2.9,2.9,0,0,0-1.51,2.71A2.68,2.68,0,0,0,512.62,159.3Z"/><path class="cls-1" d="M529.77,142.88h3.09v3.34a7.38,7.38,0,0,1,1.86-2.38,4.83,4.83,0,0,1,3.41-1.4l.31,0,.74.08V146a3.69,3.69,0,0,0-.53-.07,4.44,4.44,0,0,0-.53,0,4.63,4.63,0,0,0-3.78,1.58A5.51,5.51,0,0,0,533,151.1v11.13h-3.25Z"/><path class="cls-1" d="M554,143.41a7.41,7.41,0,0,1,2.93,2.5,8.89,8.89,0,0,1,1.29,3.42,22.51,22.51,0,0,1,.29,4.26H544.38a8.37,8.37,0,0,0,1.38,4.74,4.62,4.62,0,0,0,4,1.78,5.13,5.13,0,0,0,4-1.68,5.78,5.78,0,0,0,1.2-2.27h3.2a6.93,6.93,0,0,1-.84,2.37,8.36,8.36,0,0,1-1.6,2.14,7.47,7.47,0,0,1-3.64,2,11.05,11.05,0,0,1-2.63.28,8.08,8.08,0,0,1-6.09-2.62c-1.66-1.76-2.49-4.21-2.49-7.37a11.16,11.16,0,0,1,2.51-7.57,8.28,8.28,0,0,1,6.57-2.91A8.78,8.78,0,0,1,554,143.41Zm1.17,7.6a8.57,8.57,0,0,0-.92-3.38,4.66,4.66,0,0,0-4.42-2.35,4.87,4.87,0,0,0-3.73,1.62,6.16,6.16,0,0,0-1.59,4.11Z"/><path class="cls-1" d="M574.1,135.69h3.63v26.54H574.1Z"/><path class="cls-1" d="M602.87,135.69v3.16h-9v23.38h-3.63V138.85h-8.94v-3.16Z"/><path class="cls-1" d="M602.86,150.25h9.07v3.34h-9.07Z"/><path class="cls-1" d="M615.76,143h3.18v2.56a8.18,8.18,0,0,1,2.14-2,6.92,6.92,0,0,1,3.88-1.08,7.27,7.27,0,0,1,5.59,2.52q2.31,2.52,2.31,7.2,0,6.31-3.32,9a7.52,7.52,0,0,1-4.9,1.72,6.65,6.65,0,0,1-3.68-1,8.36,8.36,0,0,1-1.94-1.86v9.88h-3.26ZM628,158.14a9.08,9.08,0,0,0,1.51-5.7,10.56,10.56,0,0,0-.67-4,4.92,4.92,0,0,0-9.28.18,13.33,13.33,0,0,0-.67,4.59,9.66,9.66,0,0,0,.67,3.81,4.94,4.94,0,0,0,8.44,1.1Z"/><path class="cls-1" d="M636.7,142.88h3.09v3.34a7.53,7.53,0,0,1,1.86-2.38,4.85,4.85,0,0,1,3.42-1.4l.31,0,.74.08V146a3.81,3.81,0,0,0-.54-.07,4.44,4.44,0,0,0-.53,0,4.63,4.63,0,0,0-3.78,1.58A5.5,5.5,0,0,0,640,151.1v11.13H636.7Z"/><path class="cls-1" d="M663,144.81q2.56,2.49,2.57,7.33a12.6,12.6,0,0,1-2.26,7.72c-1.51,2-3.85,3-7,3a7.9,7.9,0,0,1-6.29-2.69,10.69,10.69,0,0,1-2.33-7.25,11.55,11.55,0,0,1,2.45-7.76,8.22,8.22,0,0,1,6.6-2.89A8.67,8.67,0,0,1,663,144.81Zm-2,12.86a12.16,12.16,0,0,0,1.19-5.44,9.77,9.77,0,0,0-.85-4.4,4.82,4.82,0,0,0-4.69-2.68,4.59,4.59,0,0,0-4.28,2.28,10.53,10.53,0,0,0-1.34,5.48,9.2,9.2,0,0,0,1.34,5.15,4.7,4.7,0,0,0,4.25,2.05A4.41,4.41,0,0,0,660.93,157.67Z"/><path class="cls-1" d="M671.45,156.16a4.56,4.56,0,0,0,.83,2.49c.83,1,2.28,1.57,4.35,1.57a6.53,6.53,0,0,0,3.24-.78,2.6,2.6,0,0,0,1.4-2.43,2.07,2.07,0,0,0-1.12-1.9,13.12,13.12,0,0,0-2.82-.92l-2.63-.65a12.83,12.83,0,0,1-3.71-1.38,4.07,4.07,0,0,1-2.13-3.64,5.53,5.53,0,0,1,2-4.45,8.06,8.06,0,0,1,5.39-1.7q4.43,0,6.39,2.57a5.52,5.52,0,0,1,1.19,3.5h-3.07a3.66,3.66,0,0,0-.8-2c-.76-.85-2.09-1.28-4-1.28a4.84,4.84,0,0,0-2.86.71,2.16,2.16,0,0,0-1,1.85,2.28,2.28,0,0,0,1.27,2,7.83,7.83,0,0,0,2.18.79l2.19.52a17.18,17.18,0,0,1,4.78,1.65,4.33,4.33,0,0,1,1.9,3.92,5.92,5.92,0,0,1-2,4.46q-2,1.88-6,1.88c-2.92,0-5-.66-6.19-2a7.33,7.33,0,0,1-1.95-4.85Z"/><path class="cls-1" d="M684.94,167.12a6.41,6.41,0,0,0,2.63-.38c.3-.22.44-.88.44-2V143h3.25V165.1a5.82,5.82,0,0,1-.68,3.16q-1.14,1.77-4.32,1.77a4.35,4.35,0,0,1-.5,0l-.82-.07Zm6.32-27.67H688v-3.76h3.25Z"/><path class="cls-1" d="M708.18,143.41a7.41,7.41,0,0,1,2.93,2.5,8.58,8.58,0,0,1,1.29,3.42,22.51,22.51,0,0,1,.29,4.26H698.62a8.37,8.37,0,0,0,1.38,4.74,4.59,4.59,0,0,0,4,1.78,5.16,5.16,0,0,0,4-1.68,5.76,5.76,0,0,0,1.19-2.27h3.2a6.72,6.72,0,0,1-.84,2.37,8.57,8.57,0,0,1-1.59,2.14,7.51,7.51,0,0,1-3.64,2,11.2,11.2,0,0,1-2.64.28,8.06,8.06,0,0,1-6.08-2.62c-1.67-1.76-2.5-4.21-2.5-7.37a11.21,11.21,0,0,1,2.51-7.57,8.28,8.28,0,0,1,6.57-2.91A8.78,8.78,0,0,1,708.18,143.41Zm1.17,7.6a8.4,8.4,0,0,0-.92-3.38,4.65,4.65,0,0,0-4.42-2.35,4.9,4.9,0,0,0-3.73,1.62,6.16,6.16,0,0,0-1.59,4.11Z"/><path class="cls-1" d="M716.74,135.69h3.12V151.1l8.34-8.22h4.16l-7.44,7.19,7.85,12.16h-4.15l-6.09-9.85L719.86,155v7.27h-3.12Z"/><path class="cls-1" d="M736,137.48h3.29v5.4h3.09v2.65h-3.09v12.63a1.38,1.38,0,0,0,.68,1.36,3,3,0,0,0,1.27.2l.51,0a4,4,0,0,0,.63-.06v2.59a7.57,7.57,0,0,1-1.17.23,10.68,10.68,0,0,1-1.31.07c-1.52,0-2.55-.38-3.09-1.16a5.21,5.21,0,0,1-.81-3V145.53h-2.62v-2.65H736Z"/><path class="cls-1" d="M748.25,137.72a9.13,9.13,0,0,1,11.9-.34,6.77,6.77,0,0,1,2.17,5.19,5.52,5.52,0,0,1-.79,3.11,23.42,23.42,0,0,1-3.22,3.5A10.16,10.16,0,0,0,756,152a8.5,8.5,0,0,0-.54,3.44h-3.21a11.68,11.68,0,0,1,.61-4.16,11.12,11.12,0,0,1,2.73-3.63l1.48-1.42a6,6,0,0,0,1.07-1.29,4.44,4.44,0,0,0,.75-2.43,4.67,4.67,0,0,0-1.08-3.08,5.33,5.33,0,0,0-7.83.94,8.57,8.57,0,0,0-.75,3.6H746A8.83,8.83,0,0,1,748.25,137.72Zm3.93,20.75h3.6v3.76h-3.6Z"/></svg>