<svg id="Layer_1" data-name="Layer 1" xmlns="http://www.w3.org/2000/svg" viewBox="0 0 980 300"><defs><style>.cls-1{fill:#fff;}</style></defs><title>text</title><path class="cls-1" d="M407.79,158.83h-8.85l-2.33,7.4h-3.14L401.68,142h3.48l8.21,24.27h-3.25Zm-.78-2.48-1.15-3.7c-.85-2.7-1.63-5.37-2.4-8.18h-.15c-.78,2.81-1.55,5.48-2.41,8.18l-1.18,3.7Z"/><path class="cls-1" d="M416.41,148.25h2.51l.26,3.25h.11c1.22-2.26,3.07-3.7,5.11-3.7a4.42,4.42,0,0,1,1.92.37l-.59,2.67a4.91,4.91,0,0,0-1.74-.3c-1.51,0-3.33,1.11-4.55,4.14v11.55h-3Z"/><path class="cls-1" d="M435.61,147.8c4.59,0,7.18,3.29,7.18,8.44a11.13,11.13,0,0,1-.11,1.66H430.54c.22,3.89,2.55,6.33,6,6.33a8,8,0,0,0,4.47-1.41l1.08,2a10.72,10.72,0,0,1-5.92,1.85c-4.82,0-8.63-3.51-8.63-9.4S431.5,147.8,435.61,147.8Zm4.51,8.11c0-3.67-1.62-5.7-4.44-5.7-2.51,0-4.81,2.07-5.18,5.7Z"/><path class="cls-1" d="M454.85,171.45c2,0,3.33-1.63,4.07-3.85l.41-1.33-7.22-18h3.15l3.66,9.95c.55,1.55,1.18,3.4,1.74,5.07h.15c.51-1.63,1-3.48,1.51-5.07l3.22-9.95h3l-6.77,19.46c-1.26,3.55-3.11,6.25-6.73,6.25a6,6,0,0,1-2.11-.37l.59-2.4A5.37,5.37,0,0,0,454.85,171.45Z"/><path class="cls-1" d="M478.83,147.8c4.4,0,8.32,3.44,8.32,9.47s-3.92,9.4-8.32,9.4-8.33-3.44-8.33-9.4S474.42,147.8,478.83,147.8Zm0,16.36c3.1,0,5.18-2.78,5.18-6.89s-2.08-7-5.18-7-5.18,2.81-5.18,7S475.75,164.16,478.83,164.16Z"/><path class="cls-1" d="M491.63,148.25h3.07v11c0,3.36,1,4.81,3.37,4.81,1.85,0,3.14-.93,4.84-3V148.25h3v18h-2.52l-.26-2.81h-.11c-1.66,2-3.44,3.25-5.92,3.25-3.81,0-5.51-2.44-5.51-7Z"/><path class="cls-1" d="M512,148.25h2.52l.26,3.25h.11c1.22-2.26,3.07-3.7,5.11-3.7a4.45,4.45,0,0,1,1.92.37l-.59,2.67a4.91,4.91,0,0,0-1.74-.3c-1.52,0-3.33,1.11-4.55,4.14v11.55h-3Z"/><path class="cls-1" d="M532.84,150.73h-2.66v-2.3l2.81-.18.37-5h2.55v5h4.85v2.48h-4.85v10c0,2.22.71,3.47,2.78,3.47a6.27,6.27,0,0,0,2-.48l.6,2.3a11.2,11.2,0,0,1-3.33.66c-3.85,0-5.15-2.44-5.15-6Z"/><path class="cls-1" d="M551.46,147.8c4.4,0,8.32,3.44,8.32,9.47s-3.92,9.4-8.32,9.4-8.33-3.44-8.33-9.4S547.05,147.8,551.46,147.8Zm0,16.36c3.1,0,5.17-2.78,5.17-6.89s-2.07-7-5.17-7-5.18,2.81-5.18,7S548.38,164.16,551.46,164.16Z"/><path class="cls-1" d="M571.51,147.8c4.4,0,8.32,3.44,8.32,9.47s-3.92,9.4-8.32,9.4-8.33-3.44-8.33-9.4S567.11,147.8,571.51,147.8Zm0,16.36c3.11,0,5.18-2.78,5.18-6.89s-2.07-7-5.18-7-5.18,2.81-5.18,7S568.44,164.16,571.51,164.16Z"/><path class="cls-1" d="M584.57,139.88h3v22.94c0,1,.41,1.34.86,1.34a2.34,2.34,0,0,0,.66-.08l.41,2.3a4.21,4.21,0,0,1-1.74.29c-2.3,0-3.22-1.44-3.22-4.07Z"/><path class="cls-1" d="M593.52,162.16a8.09,8.09,0,0,0,5.29,2.14c2.37,0,3.56-1.25,3.56-2.81,0-1.85-2.15-2.66-4.11-3.4-2.55-.93-5.37-2.15-5.37-5.18s2.3-5.11,6.18-5.11a9,9,0,0,1,5.59,2l-1.44,1.92a6.71,6.71,0,0,0-4.11-1.59c-2.26,0-3.29,1.22-3.29,2.59,0,1.67,2,2.33,4,3.11,2.59,1,5.48,2,5.48,5.44,0,2.92-2.33,5.36-6.59,5.36a10.78,10.78,0,0,1-6.69-2.48Z"/><path class="cls-1" d="M625.08,142.36a5.13,5.13,0,0,0-2-.44c-1.7,0-2.52,1.18-2.52,3.48v2.85h3.81v2.48h-3.81v15.5h-3v-15.5h-2.44v-2.3l2.44-.18V145.4c0-3.67,1.66-6,5.25-6a8.21,8.21,0,0,1,3,.59Z"/><path class="cls-1" d="M637.22,154.83c0-2.29-.78-4.51-3.7-4.51a9.71,9.71,0,0,0-5.37,1.92l-1.22-2.11A13.42,13.42,0,0,1,634,147.8c4.4,0,6.25,2.93,6.25,7.4v11h-2.51l-.26-2.15h-.08a9.71,9.71,0,0,1-5.95,2.59c-3,0-5.29-1.88-5.29-5.1C626.16,157.64,629.56,155.68,637.22,154.83Zm-4.92,9.4c1.74,0,3.18-.85,4.92-2.4v-5c-6,.74-8.07,2.22-8.07,4.51C629.15,163.38,630.52,164.23,632.3,164.23Z"/><path class="cls-1" d="M645.51,162.16a8.05,8.05,0,0,0,5.29,2.14c2.37,0,3.55-1.25,3.55-2.81,0-1.85-2.14-2.66-4.11-3.4-2.55-.93-5.36-2.15-5.36-5.18s2.29-5.11,6.18-5.11a9,9,0,0,1,5.58,2l-1.44,1.92a6.69,6.69,0,0,0-4.11-1.59c-2.25,0-3.29,1.22-3.29,2.59,0,1.67,2,2.33,4,3.11,2.59,1,5.47,2,5.47,5.44,0,2.92-2.33,5.36-6.58,5.36a10.79,10.79,0,0,1-6.7-2.48Z"/><path class="cls-1" d="M662,150.73h-2.67v-2.3l2.82-.18.37-5h2.55v5h4.85v2.48h-4.85v10c0,2.22.7,3.47,2.78,3.47a6.33,6.33,0,0,0,2-.48l.59,2.3a11.2,11.2,0,0,1-3.33.66c-3.85,0-5.14-2.44-5.14-6Z"/><path class="cls-1" d="M688.21,147.8c4.58,0,7.17,3.29,7.17,8.44a9.93,9.93,0,0,1-.11,1.66H683.13c.23,3.89,2.56,6.33,6,6.33a8.07,8.07,0,0,0,4.48-1.41l1.07,2a10.7,10.7,0,0,1-5.92,1.85c-4.81,0-8.62-3.51-8.62-9.4S684.1,147.8,688.21,147.8Zm4.51,8.11c0-3.67-1.63-5.7-4.44-5.7-2.52,0-4.81,2.07-5.18,5.7Z"/><path class="cls-1" d="M699.82,148.25h2.52l.26,2.59h.11c1.7-1.71,3.55-3,6-3,3.77,0,5.47,2.44,5.47,7v11.4h-3v-11c0-3.37-1-4.81-3.4-4.81-1.85,0-3.11,1-4.92,2.77v13h-3Z"/><path class="cls-1" d="M727.05,147.8c4.41,0,8.33,3.44,8.33,9.47s-3.92,9.4-8.33,9.4-8.32-3.44-8.32-9.4S722.65,147.8,727.05,147.8Zm0,16.36c3.11,0,5.18-2.78,5.18-6.89s-2.07-7-5.18-7-5.17,2.81-5.17,7S724,164.16,727.05,164.16Z"/><path class="cls-1" d="M739.86,148.25h3.07v11c0,3.36,1,4.81,3.36,4.81,1.85,0,3.15-.93,4.85-3V148.25h3v18h-2.52l-.26-2.81h-.11c-1.66,2-3.44,3.25-5.92,3.25-3.81,0-5.51-2.44-5.51-7Z"/><path class="cls-1" d="M761.5,165.6v-.15a3.3,3.3,0,0,1-1.59-2.92,4.22,4.22,0,0,1,2-3.33v-.15a6.37,6.37,0,0,1-2.33-4.85c0-3.92,3.11-6.4,6.77-6.4a7.2,7.2,0,0,1,2.56.45h6.25v2.33h-3.7a5.21,5.21,0,0,1,1.48,3.7c0,3.85-2.93,6.25-6.59,6.25a6.22,6.22,0,0,1-2.7-.63,2.74,2.74,0,0,0-1.15,2.15c0,1.14.74,2,3.18,2h3.48c4.18,0,6.29,1.29,6.29,4.29,0,3.33-3.51,6.22-9.1,6.22-4.4,0-7.44-1.74-7.44-4.85A5.19,5.19,0,0,1,761.5,165.6Zm5.26,6.81c3.44,0,5.69-1.78,5.69-3.66,0-1.67-1.29-2.23-3.62-2.23h-3.11a8.8,8.8,0,0,1-2.33-.29,3.77,3.77,0,0,0-1.85,3C761.54,171.19,763.5,172.41,766.76,172.41Zm3.36-18.21c0-2.62-1.7-4.18-3.81-4.18s-3.81,1.56-3.81,4.18,1.74,4.3,3.81,4.3S770.12,156.83,770.12,154.2Z"/><path class="cls-1" d="M778.89,139.88h3v7.18l-.11,3.7c1.71-1.63,3.52-3,6-3,3.77,0,5.47,2.44,5.47,7v11.4h-3v-11c0-3.37-1-4.81-3.4-4.81-1.85,0-3.11,1-4.93,2.77v13h-3Z"/><path class="cls-1" d="M806.75,147.1a3.38,3.38,0,0,0-3.59-3.59,5.61,5.61,0,0,0-4.25,2.15l-1.74-1.6a8.15,8.15,0,0,1,6.21-3.07c3.82,0,6.33,2.26,6.33,5.92,0,4.85-6,6.81-5.36,12h-2.67C800.87,153.13,806.75,151,806.75,147.1ZM803.09,162a2.33,2.33,0,0,1,0,4.66,2.19,2.19,0,0,1-2.18-2.29A2.21,2.21,0,0,1,803.09,162Z"/></svg>