<svg id="Layer_1" data-name="Layer 1" xmlns="http://www.w3.org/2000/svg" viewBox="0 0 980 300"><defs><style>.cls-1{fill:#fff;}</style></defs><title>text</title><path class="cls-1" d="M367.21,100.73h14v2.59H370.32v7.62h9.18v2.63h-9.18v8.8h11.25V125H367.21Z"/><path class="cls-1" d="M386.34,107h2.52l.26,2.59h.11c1.7-1.71,3.55-3,6-3,3.77,0,5.47,2.45,5.47,7V125h-3V114c0-3.37-1-4.81-3.4-4.81-1.85,0-3.11,1-4.92,2.78v13h-3Z"/><path class="cls-1" d="M413.31,106.57c4.59,0,7.18,3.3,7.18,8.44a9.93,9.93,0,0,1-.11,1.66H408.24c.23,3.89,2.56,6.33,6,6.33a8.16,8.16,0,0,0,4.48-1.4l1.07,2a10.7,10.7,0,0,1-5.92,1.85c-4.81,0-8.62-3.51-8.62-9.39S409.21,106.57,413.31,106.57Zm4.52,8.11c0-3.67-1.63-5.7-4.44-5.7-2.52,0-4.81,2.07-5.18,5.7Z"/><path class="cls-1" d="M424.93,98.65h3V121.6c0,1,.4,1.33.85,1.33a2.34,2.34,0,0,0,.66-.08l.41,2.3a4.21,4.21,0,0,1-1.74.29c-2.29,0-3.22-1.44-3.22-4.07Z"/><path class="cls-1" d="M439.69,107h3.11l2.67,10.39c.4,1.71.74,3.33,1.07,5h.15c.4-1.67.77-3.33,1.22-5L450.68,107h3l2.82,10.39c.44,1.71.85,3.33,1.25,5h.15c.41-1.67.74-3.29,1.11-5L461.6,107h2.89l-4.81,18H456l-2.6-9.66c-.44-1.7-.77-3.36-1.22-5.18H452c-.41,1.82-.78,3.52-1.26,5.22L448.24,125h-3.55Z"/><path class="cls-1" d="M467.85,101.36a2.11,2.11,0,0,1,4.22,0,2.12,2.12,0,0,1-4.22,0Zm.56,5.66h3v18h-3Z"/><path class="cls-1" d="M477.51,98.65h3V121.6c0,1,.41,1.33.85,1.33a2.36,2.36,0,0,0,.67-.08l.41,2.3a4.21,4.21,0,0,1-1.74.29c-2.3,0-3.22-1.44-3.22-4.07Z"/><path class="cls-1" d="M486.94,98.65h3V121.6c0,1,.4,1.33.85,1.33a2.34,2.34,0,0,0,.66-.08l.41,2.3a4.18,4.18,0,0,1-1.74.29c-2.29,0-3.22-1.44-3.22-4.07Z"/><path class="cls-1" d="M503.59,107h3.07v11c0,3.36,1,4.81,3.37,4.81,1.85,0,3.14-.93,4.85-3V107h3v18h-2.52l-.25-2.81H515c-1.66,2-3.44,3.25-5.92,3.25-3.81,0-5.51-2.44-5.51-7Z"/><path class="cls-1" d="M523.5,120.93a8.06,8.06,0,0,0,5.29,2.15c2.37,0,3.55-1.26,3.55-2.82,0-1.85-2.15-2.66-4.11-3.4-2.55-.93-5.36-2.15-5.36-5.18s2.29-5.11,6.18-5.11a9,9,0,0,1,5.58,2l-1.44,1.92a6.71,6.71,0,0,0-4.11-1.59c-2.25,0-3.29,1.22-3.29,2.59,0,1.67,2,2.33,4,3.11,2.59,1,5.47,2,5.47,5.44,0,2.92-2.33,5.36-6.58,5.36A10.79,10.79,0,0,1,522,123Z"/><path class="cls-1" d="M546.21,106.57c4.59,0,7.18,3.3,7.18,8.44a9.93,9.93,0,0,1-.11,1.66H541.14c.23,3.89,2.56,6.33,6,6.33a8.16,8.16,0,0,0,4.48-1.4l1.07,2a10.7,10.7,0,0,1-5.92,1.85c-4.81,0-8.62-3.51-8.62-9.39S542.11,106.57,546.21,106.57Zm4.52,8.11c0-3.67-1.63-5.7-4.44-5.7-2.52,0-4.81,2.07-5.18,5.7Z"/><path class="cls-1" d="M565.49,100.73H573c5.37,0,9,1.81,9,7.14,0,5.1-3.66,7.51-9,7.51H568.6V125h-3.11Zm7.07,12.13c4.25,0,6.29-1.55,6.29-5s-2.11-4.66-6.29-4.66h-4v9.65Z"/><path class="cls-1" d="M592.54,106.57c4.4,0,8.32,3.44,8.32,9.48s-3.92,9.39-8.32,9.39-8.33-3.44-8.33-9.39S588.13,106.57,592.54,106.57Zm0,16.36c3.11,0,5.18-2.78,5.18-6.88s-2.07-7-5.18-7-5.18,2.81-5.18,7S589.47,122.93,592.54,122.93Z"/><path class="cls-1" d="M603.3,107h3.11l2.67,10.39c.4,1.71.74,3.33,1.07,5h.15c.41-1.67.77-3.33,1.22-5L614.29,107h3l2.82,10.39c.44,1.71.85,3.33,1.25,5h.15c.41-1.67.74-3.29,1.11-5L625.21,107h2.89l-4.81,18h-3.71L617,115.34c-.45-1.7-.78-3.36-1.23-5.18h-.14c-.41,1.82-.78,3.52-1.26,5.22L611.85,125H608.3Z"/><path class="cls-1" d="M638.6,106.57c4.59,0,7.18,3.3,7.18,8.44a11.13,11.13,0,0,1-.11,1.66H633.53c.22,3.89,2.56,6.33,6,6.33a8.11,8.11,0,0,0,4.47-1.4l1.08,2a10.72,10.72,0,0,1-5.92,1.85c-4.81,0-8.62-3.51-8.62-9.39S634.5,106.57,638.6,106.57Zm4.52,8.11c0-3.67-1.63-5.7-4.44-5.7-2.52,0-4.81,2.07-5.18,5.7Z"/><path class="cls-1" d="M650.22,98.65h3V121.6c0,1,.41,1.33.86,1.33a2.34,2.34,0,0,0,.66-.08l.41,2.3a4.21,4.21,0,0,1-1.74.29c-2.3,0-3.22-1.44-3.22-4.07Z"/><path class="cls-1" d="M667.65,109.5H665v-2.3l2.81-.18.37-5h2.56v5h4.84v2.48h-4.84v10c0,2.22.7,3.47,2.77,3.47a6.33,6.33,0,0,0,2-.48l.59,2.3a11.2,11.2,0,0,1-3.33.66c-3.85,0-5.14-2.44-5.14-6Z"/><path class="cls-1" d="M686.26,106.57c4.4,0,8.32,3.44,8.32,9.48s-3.92,9.39-8.32,9.39-8.33-3.44-8.33-9.39S681.85,106.57,686.26,106.57Zm0,16.36c3.11,0,5.18-2.78,5.18-6.88s-2.07-7-5.18-7-5.18,2.81-5.18,7S683.19,122.93,686.26,122.93Z"/><path class="cls-1" d="M706.24,101.36a2.11,2.11,0,0,1,4.22,0,2.12,2.12,0,0,1-4.22,0Zm.55,5.66h3v18h-3Z"/><path class="cls-1" d="M715.89,107h2.52l.26,2.59h.11c1.7-1.71,3.55-3,6-3,3.78,0,5.48,2.45,5.48,7V125h-3V114c0-3.37-1-4.81-3.4-4.81-1.85,0-3.11,1-4.92,2.78v13h-3Z"/><path class="cls-1" d="M743.46,106.57a7.39,7.39,0,0,1,5.25,2.15l-1.51,2a5.44,5.44,0,0,0-3.63-1.59c-3.26,0-5.62,2.81-5.62,7s2.25,6.88,5.55,6.88a6.36,6.36,0,0,0,4.21-1.82l1.37,2a8.85,8.85,0,0,1-5.84,2.33c-4.78,0-8.44-3.44-8.44-9.39S738.83,106.57,743.46,106.57Z"/><path class="cls-1" d="M753,107h2.52l.26,3.25h.11c1.22-2.25,3.07-3.7,5.11-3.7a4.45,4.45,0,0,1,1.92.37l-.59,2.67a4.91,4.91,0,0,0-1.74-.3c-1.52,0-3.33,1.11-4.55,4.15V125h-3Z"/><path class="cls-1" d="M772.21,106.57c4.59,0,7.18,3.3,7.18,8.44a9.83,9.83,0,0,1-.12,1.66H767.14c.22,3.89,2.55,6.33,6,6.33a8.14,8.14,0,0,0,4.48-1.4l1.07,2a10.7,10.7,0,0,1-5.92,1.85c-4.81,0-8.62-3.51-8.62-9.39S768.1,106.57,772.21,106.57Zm4.51,8.11c0-3.67-1.63-5.7-4.44-5.7-2.52,0-4.81,2.07-5.18,5.7Z"/><path class="cls-1" d="M793.48,113.6c0-2.29-.77-4.51-3.7-4.51a9.65,9.65,0,0,0-5.36,1.92l-1.22-2.11a13.35,13.35,0,0,1,7.06-2.33c4.41,0,6.26,2.93,6.26,7.4v11H794l-.26-2.15h-.07a9.76,9.76,0,0,1-6,2.59c-3,0-5.29-1.88-5.29-5.1C782.42,116.42,785.82,114.45,793.48,113.6Zm-4.92,9.4c1.74,0,3.18-.85,4.92-2.4v-5c-6,.74-8.06,2.22-8.06,4.52C785.42,122.15,786.79,123,788.56,123Z"/><path class="cls-1" d="M801.77,120.93a8.06,8.06,0,0,0,5.29,2.15c2.37,0,3.55-1.26,3.55-2.82,0-1.85-2.14-2.66-4.11-3.4-2.55-.93-5.36-2.15-5.36-5.18s2.29-5.11,6.18-5.11a9,9,0,0,1,5.59,2l-1.45,1.92a6.69,6.69,0,0,0-4.1-1.59c-2.26,0-3.3,1.22-3.3,2.59,0,1.67,2,2.33,4,3.11,2.59,1,5.48,2,5.48,5.44,0,2.92-2.33,5.36-6.59,5.36a10.81,10.81,0,0,1-6.7-2.48Z"/><path class="cls-1" d="M824.49,106.57c4.59,0,7.18,3.3,7.18,8.44a9.83,9.83,0,0,1-.12,1.66H819.42c.22,3.89,2.55,6.33,6,6.33a8.14,8.14,0,0,0,4.48-1.4l1.07,2a10.7,10.7,0,0,1-5.92,1.85c-4.81,0-8.62-3.51-8.62-9.39S820.38,106.57,824.49,106.57Zm4.51,8.11c0-3.67-1.63-5.7-4.44-5.7-2.52,0-4.81,2.07-5.18,5.7Z"/><path class="cls-1" d="M367,151.42h2.51l.26,3.25h.11c1.22-2.25,3.07-3.7,5.11-3.7a4.42,4.42,0,0,1,1.92.37l-.59,2.67a4.91,4.91,0,0,0-1.74-.3c-1.51,0-3.33,1.11-4.55,4.15V169.4h-3Z"/><path class="cls-1" d="M386.23,151c4.59,0,7.18,3.3,7.18,8.44a11.13,11.13,0,0,1-.11,1.66H381.16c.22,3.89,2.55,6.33,6,6.33a8.11,8.11,0,0,0,4.47-1.4l1.08,2a10.72,10.72,0,0,1-5.92,1.85c-4.81,0-8.63-3.51-8.63-9.39S382.12,151,386.23,151Zm4.52,8.11c0-3.67-1.63-5.7-4.45-5.7-2.51,0-4.81,2.07-5.18,5.7Z"/><path class="cls-1" d="M395.44,151.42h3.15l3.4,10.21c.52,1.78,1.11,3.59,1.67,5.29h.14c.52-1.7,1.11-3.51,1.63-5.29l3.41-10.21h3l-6.36,18h-3.55Z"/><path class="cls-1" d="M421.9,151c4.59,0,7.18,3.3,7.18,8.44a9.83,9.83,0,0,1-.12,1.66H416.83c.22,3.89,2.55,6.33,6,6.33a8.14,8.14,0,0,0,4.48-1.4l1.07,2a10.67,10.67,0,0,1-5.92,1.85c-4.81,0-8.62-3.51-8.62-9.39S417.79,151,421.9,151Zm4.51,8.11c0-3.67-1.63-5.7-4.44-5.7-2.51,0-4.81,2.07-5.18,5.7Z"/><path class="cls-1" d="M433.51,151.42H436l.26,2.59h.11c1.7-1.71,3.55-3,6-3,3.78,0,5.48,2.44,5.48,7v11.4h-3v-11c0-3.37-1-4.81-3.4-4.81-1.85,0-3.11,1-4.92,2.78v13h-3Z"/><path class="cls-1" d="M453.49,151.42h3.08v11c0,3.36,1,4.81,3.36,4.81,1.85,0,3.15-.93,4.85-3V151.42h3v18H465.3l-.26-2.81h-.11c-1.67,2-3.44,3.25-5.92,3.25-3.81,0-5.52-2.44-5.52-7Z"/><path class="cls-1" d="M480.62,151c4.58,0,7.17,3.3,7.17,8.44a9.93,9.93,0,0,1-.11,1.66H475.55c.22,3.89,2.55,6.33,6,6.33A8.14,8.14,0,0,0,486,166l1.07,2a10.7,10.7,0,0,1-5.92,1.85c-4.81,0-8.62-3.51-8.62-9.39S476.51,151,480.62,151Zm4.51,8.11c0-3.67-1.63-5.7-4.44-5.7-2.52,0-4.81,2.07-5.18,5.7Z"/><path class="cls-1" d="M491.75,165.33a8.08,8.08,0,0,0,5.29,2.15c2.37,0,3.55-1.26,3.55-2.82,0-1.85-2.14-2.66-4.1-3.4-2.56-.93-5.37-2.15-5.37-5.18s2.3-5.11,6.18-5.11a9,9,0,0,1,5.59,2l-1.44,1.92a6.74,6.74,0,0,0-4.11-1.59c-2.26,0-3.3,1.22-3.3,2.59,0,1.67,2,2.33,4,3.11,2.59,1,5.48,2,5.48,5.44,0,2.92-2.33,5.36-6.59,5.36a10.83,10.83,0,0,1-6.7-2.48Z"/><path class="cls-1" d="M523.31,145.53a5.13,5.13,0,0,0-2-.44c-1.7,0-2.52,1.18-2.52,3.48v2.85h3.81v2.48h-3.81v15.5h-3V153.9h-2.44v-2.3l2.44-.18v-2.85c0-3.67,1.66-6,5.25-6a8.21,8.21,0,0,1,3,.59Z"/><path class="cls-1" d="M526,151.42h2.52l.26,3.25h.11c1.22-2.25,3.07-3.7,5.1-3.7a4.46,4.46,0,0,1,1.93.37l-.59,2.67a4.91,4.91,0,0,0-1.74-.3c-1.52,0-3.33,1.11-4.55,4.15V169.4h-3Z"/><path class="cls-1" d="M545.47,151c4.41,0,8.33,3.44,8.33,9.48s-3.92,9.39-8.33,9.39-8.32-3.44-8.32-9.39S541.07,151,545.47,151Zm0,16.36c3.11,0,5.19-2.78,5.19-6.88s-2.08-7-5.19-7-5.18,2.81-5.18,7S542.4,167.33,545.47,167.33Z"/><path class="cls-1" d="M558.54,151.42h2.51l.26,2.59h.11c1.56-1.71,3.44-3,5.59-3a4.72,4.72,0,0,1,5,3.44c1.88-2,3.73-3.44,5.92-3.44,3.7,0,5.47,2.44,5.47,7v11.4h-3v-11c0-3.37-1.07-4.81-3.33-4.81-1.41,0-2.85.92-4.51,2.78v13h-3v-11c0-3.37-1.07-4.81-3.37-4.81-1.33,0-2.85.92-4.51,2.78v13h-3Z"/><path class="cls-1" d="M599.72,170.92V177h-3V151.42h2.52l.26,2.07h.11A9.29,9.29,0,0,1,605.3,151c4.63,0,7.11,3.59,7.11,9.18,0,6.1-3.67,9.69-7.77,9.69a8.32,8.32,0,0,1-5-2.07Zm4.4-3.63c3,0,5.14-2.7,5.14-7.14,0-4-1.33-6.62-4.73-6.62-1.52,0-3,.85-4.81,2.44v9.43A7.1,7.1,0,0,0,604.12,167.29Z"/><path class="cls-1" d="M624.21,151c4.4,0,8.33,3.44,8.33,9.48s-3.93,9.39-8.33,9.39-8.33-3.44-8.33-9.39S619.81,151,624.21,151Zm0,16.36c3.11,0,5.18-2.78,5.18-6.88s-2.07-7-5.18-7-5.18,2.81-5.18,7S621.14,167.33,624.21,167.33Z"/><path class="cls-1" d="M635,151.42h3.1l2.67,10.39c.41,1.71.74,3.33,1.07,5H642c.41-1.67.78-3.33,1.22-5L646,151.42h3l2.81,10.39c.44,1.71.85,3.33,1.26,5h.14c.41-1.67.74-3.29,1.11-5l2.63-10.39h2.89l-4.81,18h-3.7l-2.59-9.66c-.45-1.7-.78-3.36-1.22-5.18h-.15c-.41,1.82-.78,3.52-1.26,5.22l-2.52,9.62H640Z"/><path class="cls-1" d="M670.27,151c4.59,0,7.18,3.3,7.18,8.44a9.93,9.93,0,0,1-.11,1.66H665.2c.23,3.89,2.56,6.33,6,6.33a8.16,8.16,0,0,0,4.48-1.4l1.07,2a10.7,10.7,0,0,1-5.92,1.85c-4.81,0-8.62-3.51-8.62-9.39S666.17,151,670.27,151Zm4.52,8.11c0-3.67-1.63-5.7-4.44-5.7-2.52,0-4.81,2.07-5.18,5.7Z"/><path class="cls-1" d="M681.89,151.42h2.52l.26,3.25h.11c1.22-2.25,3.07-3.7,5.1-3.7a4.49,4.49,0,0,1,1.93.37l-.6,2.67a4.86,4.86,0,0,0-1.73-.3c-1.52,0-3.33,1.11-4.56,4.15V169.4h-3Z"/><path class="cls-1" d="M703.46,168.77v-.15a3.3,3.3,0,0,1-1.59-2.92,4.22,4.22,0,0,1,2-3.33v-.15a6.37,6.37,0,0,1-2.33-4.85c0-3.92,3.11-6.4,6.77-6.4a7.2,7.2,0,0,1,2.56.45h6.25v2.33h-3.7a5.21,5.21,0,0,1,1.48,3.7c0,3.85-2.93,6.25-6.59,6.25a6.22,6.22,0,0,1-2.7-.63,2.74,2.74,0,0,0-1.15,2.15c0,1.15.74,2,3.19,2h3.47c4.18,0,6.29,1.29,6.29,4.29,0,3.33-3.51,6.22-9.1,6.22-4.4,0-7.44-1.74-7.44-4.85A5.19,5.19,0,0,1,703.46,168.77Zm5.26,6.81c3.44,0,5.69-1.78,5.69-3.66,0-1.67-1.29-2.22-3.62-2.22h-3.11a8.87,8.87,0,0,1-2.33-.3,3.78,3.78,0,0,0-1.85,3C703.5,174.36,705.46,175.58,708.72,175.58Zm3.36-18.21c0-2.62-1.7-4.18-3.81-4.18s-3.81,1.56-3.81,4.18,1.74,4.3,3.81,4.3S712.08,160,712.08,157.37Z"/><path class="cls-1" d="M727.07,151c4.59,0,7.18,3.3,7.18,8.44a11.13,11.13,0,0,1-.11,1.66H722c.22,3.89,2.55,6.33,6,6.33a8.11,8.11,0,0,0,4.48-1.4l1.07,2a10.67,10.67,0,0,1-5.92,1.85c-4.81,0-8.62-3.51-8.62-9.39S723,151,727.07,151Zm4.51,8.11c0-3.67-1.62-5.7-4.44-5.7-2.51,0-4.81,2.07-5.18,5.7Z"/><path class="cls-1" d="M738.68,151.42h2.52l.26,2.59h.11c1.7-1.71,3.55-3,6-3,3.78,0,5.48,2.44,5.48,7v11.4h-3v-11c0-3.37-1-4.81-3.4-4.81-1.85,0-3.11,1-4.92,2.78v13h-3Z"/><path class="cls-1" d="M765.66,151c4.59,0,7.18,3.3,7.18,8.44a11.13,11.13,0,0,1-.11,1.66H760.59c.22,3.89,2.55,6.33,6,6.33a8.11,8.11,0,0,0,4.48-1.4l1.07,2a10.67,10.67,0,0,1-5.92,1.85c-4.81,0-8.62-3.51-8.62-9.39S761.55,151,765.66,151Zm4.51,8.11c0-3.67-1.63-5.7-4.44-5.7-2.51,0-4.81,2.07-5.18,5.7Z"/><path class="cls-1" d="M777.28,151.42h2.51l.26,3.25h.11c1.22-2.25,3.07-3.7,5.11-3.7a4.45,4.45,0,0,1,1.92.37L786.6,154a4.91,4.91,0,0,0-1.74-.3c-1.52,0-3.33,1.11-4.55,4.15V169.4h-3Z"/><path class="cls-1" d="M799.37,158c0-2.29-.78-4.51-3.7-4.51a9.71,9.71,0,0,0-5.37,1.92l-1.22-2.11a13.36,13.36,0,0,1,7.07-2.33c4.4,0,6.25,2.93,6.25,7.4v11h-2.52l-.26-2.15h-.07a9.76,9.76,0,0,1-6,2.59c-3,0-5.29-1.88-5.29-5.1C788.3,160.82,791.71,158.85,799.37,158Zm-4.93,9.4c1.74,0,3.19-.85,4.93-2.4v-5c-6,.74-8.07,2.22-8.07,4.52C791.3,166.55,792.67,167.4,794.44,167.4Z"/><path class="cls-1" d="M808.65,153.9H806v-2.3l2.81-.18.37-5h2.55v5h4.85v2.48h-4.85v10c0,2.22.7,3.47,2.78,3.47a6.27,6.27,0,0,0,2-.48l.59,2.3a11.13,11.13,0,0,1-3.33.66c-3.84,0-5.14-2.44-5.14-6Z"/><path class="cls-1" d="M820.08,145.76a2.12,2.12,0,1,1,2.11,2A2,2,0,0,1,820.08,145.76Zm.56,5.66h3v18h-3Z"/><path class="cls-1" d="M836.73,151c4.41,0,8.33,3.44,8.33,9.48s-3.92,9.39-8.33,9.39-8.32-3.44-8.32-9.39S832.33,151,836.73,151Zm0,16.36c3.11,0,5.18-2.78,5.18-6.88s-2.07-7-5.18-7-5.18,2.81-5.18,7S833.66,167.33,836.73,167.33Z"/><path class="cls-1" d="M849.79,151.42h2.52l.26,2.59h.11c1.7-1.71,3.55-3,6-3,3.78,0,5.48,2.44,5.48,7v11.4h-3v-11c0-3.37-1-4.81-3.4-4.81-1.85,0-3.11,1-4.92,2.78v13h-3Z"/></svg>