<svg id="Layer_1" data-name="Layer 1" xmlns="http://www.w3.org/2000/svg" viewBox="0 0 980 300"><defs><style>.cls-1{fill:#fff;}</style></defs><title>text</title><path class="cls-1" d="M369,131.92V135H352.5V107h3.59v24.91Z"/><path class="cls-1" d="M389,135H385.8c-.12-.66-.24-1.9-.37-3.73a7.45,7.45,0,0,1-7.26,4.3,7.29,7.29,0,0,1-5.35-1.84,6.07,6.07,0,0,1-1.87-4.44,6.22,6.22,0,0,1,2.67-5.17q2.67-2,9.06-2c.58,0,1.49,0,2.75.08a11.74,11.74,0,0,0-.38-3.56,3.17,3.17,0,0,0-1.61-1.75,6.85,6.85,0,0,0-3.24-.66q-4.89,0-5.7,3.74l-3-.52q1.08-5.72,9.14-5.72,4.29,0,6.09,1.9t1.79,6.57V131A17.39,17.39,0,0,0,389,135Zm-3.55-10.36c-1.31-.08-2.31-.12-3-.12a11.76,11.76,0,0,0-5.93,1.25,4,4,0,0,0-2.11,3.66,3.41,3.41,0,0,0,1.14,2.59,4.59,4.59,0,0,0,3.29,1.07,6.12,6.12,0,0,0,4.79-2.11,7.28,7.28,0,0,0,1.87-5C385.49,125.62,385.47,125.16,385.43,124.64Z"/><path class="cls-1" d="M392.2,129.63l3.08-.64q1,3.91,6.48,3.92a6.13,6.13,0,0,0,3.4-.9,2.86,2.86,0,0,0,1.4-2.54c0-1.63-1.19-2.66-3.55-3.1l-4.37-.82a8,8,0,0,1-4.08-1.93,5,5,0,0,1-1.52-3.8,5.47,5.47,0,0,1,2.07-4.35,8.35,8.35,0,0,1,5.58-1.76q6.75,0,8.33,5.27l-3,.64c-.84-2.16-2.59-3.24-5.23-3.24a5.91,5.91,0,0,0-3.23.81,2.54,2.54,0,0,0-1.26,2.26c0,1.53,1.08,2.49,3.22,2.89l4,.72q6.34,1.16,6.34,6.15a5.49,5.49,0,0,1-2.36,4.61,10.25,10.25,0,0,1-6.27,1.75Q393.94,135.57,392.2,129.63Z"/><path class="cls-1" d="M423.86,132.81v2.54a22.68,22.68,0,0,1-2.95.22q-6,0-6-6.28V116.81h-3.67v-2.52h3.67l.15-5.21,3-.29v5.5h4.63v2.52H418v13q0,3.19,3.32,3.2A15.78,15.78,0,0,0,423.86,132.81Z"/><path class="cls-1" d="M454.22,135h-3V121.69c0-1.91-.42-3.26-1.25-4a4.28,4.28,0,0,0-3-1.17,5.23,5.23,0,0,0-4.14,2,7.76,7.76,0,0,0-1.67,5.19V135h-3.22V114.29h3v3.81c1.68-2.92,3.86-4.39,6.54-4.39a6.5,6.5,0,0,1,3.95,1.2,6.37,6.37,0,0,1,2.23,2.7,16.43,16.43,0,0,1,.61,5.41Z"/><path class="cls-1" d="M474.33,128.83l3,.61a8.44,8.44,0,0,1-3.2,4.39,9.23,9.23,0,0,1-5.6,1.74,8.71,8.71,0,0,1-6.87-3,13.07,13.07,0,0,1,.1-15.83,8.81,8.81,0,0,1,6.85-3.05,8.27,8.27,0,0,1,6.53,2.81q2.48,2.82,2.54,8.41H462.62q0,4.69,2,6.34a6.45,6.45,0,0,0,4.17,1.64Q472.71,132.91,474.33,128.83Zm-.18-6.3a9.25,9.25,0,0,0-.57-3.1,5.27,5.27,0,0,0-1.81-2.3,4.94,4.94,0,0,0-3.06-1,5.48,5.48,0,0,0-4.07,1.73,7.08,7.08,0,0,0-1.87,4.63Z"/><path class="cls-1" d="M498.7,107v28h-2.91v-3.55a7,7,0,0,1-6.56,4.12,7.21,7.21,0,0,1-6-3,12.32,12.32,0,0,1-2.34-7.71,13.14,13.14,0,0,1,2.31-7.94,7.28,7.28,0,0,1,6.16-3.17,7.13,7.13,0,0,1,6.09,3.41V107Zm-3.22,15.27a5.88,5.88,0,0,0-1.66-4.36,5.33,5.33,0,0,0-3.88-1.64,4.7,4.7,0,0,0-3.95,2.13,10.07,10.07,0,0,0-1.55,6,11.59,11.59,0,0,0,1.43,6.33,4.45,4.45,0,0,0,3.91,2.18,5.22,5.22,0,0,0,4-1.89,6.35,6.35,0,0,0,1.73-4.43Z"/><path class="cls-1" d="M518.86,135h-3.22V114.29h2.83v4.84q1.5-3.43,3-4.44a5.48,5.48,0,0,1,3.09-1c.33,0,.75,0,1.27.08v3.08h-.66a5.68,5.68,0,0,0-4.43,2,8.1,8.1,0,0,0-1.88,5.23Z"/><path class="cls-1" d="M545.68,135H542.5c-.12-.66-.24-1.9-.37-3.73a7.45,7.45,0,0,1-7.26,4.3,7.29,7.29,0,0,1-5.35-1.84,6.07,6.07,0,0,1-1.87-4.44,6.22,6.22,0,0,1,2.67-5.17q2.67-2,9.06-2c.58,0,1.5,0,2.75.08a11.74,11.74,0,0,0-.38-3.56,3.17,3.17,0,0,0-1.61-1.75,6.85,6.85,0,0,0-3.24-.66q-4.89,0-5.7,3.74l-3-.52q1.08-5.72,9.15-5.72,4.27,0,6.08,1.9t1.79,6.57V131A17.39,17.39,0,0,0,545.68,135Zm-3.55-10.36c-1.31-.08-2.31-.12-3-.12a11.76,11.76,0,0,0-5.93,1.25,4,4,0,0,0-2.11,3.66,3.41,3.41,0,0,0,1.14,2.59,4.59,4.59,0,0,0,3.29,1.07,6.12,6.12,0,0,0,4.79-2.11,7.28,7.28,0,0,0,1.87-5C542.19,125.62,542.17,125.16,542.13,124.64Z"/><path class="cls-1" d="M554.91,142h-3.22v-27.7h2.91v4q2.19-4.61,6.54-4.6a7,7,0,0,1,5.91,3.07A14.81,14.81,0,0,1,567,132.6a7.23,7.23,0,0,1-6,3,6.85,6.85,0,0,1-6.13-3.71Zm0-20.34v5.84a6.22,6.22,0,0,0,2,3.89,5.18,5.18,0,0,0,3.51,1.53,4.9,4.9,0,0,0,3.74-1.85c1.09-1.23,1.63-3.35,1.63-6.38a10.47,10.47,0,0,0-1.48-6,4.56,4.56,0,0,0-3.91-2.12,4.81,4.81,0,0,0-3.46,1.5A7.28,7.28,0,0,0,554.91,121.65Z"/><path class="cls-1" d="M577.35,142h-3.22v-27.7H577v4q2.19-4.61,6.53-4.6a7,7,0,0,1,5.92,3.07,14.83,14.83,0,0,1-.07,15.82,7.2,7.2,0,0,1-5.94,3,6.85,6.85,0,0,1-6.13-3.71Zm0-20.34v5.84a6.16,6.16,0,0,0,2,3.89,5.21,5.21,0,0,0,3.51,1.53,4.87,4.87,0,0,0,3.74-1.85c1.09-1.23,1.63-3.35,1.63-6.38a10.55,10.55,0,0,0-1.47-6,4.57,4.57,0,0,0-3.92-2.12,4.79,4.79,0,0,0-3.45,1.5A7.2,7.2,0,0,0,577.35,121.65Z"/><path class="cls-1" d="M604,135.57a7.86,7.86,0,0,1-6.66-3.16,12.63,12.63,0,0,1-2.39-7.84,11.29,11.29,0,0,1,2.69-7.9,8.67,8.67,0,0,1,6.68-3,8.18,8.18,0,0,1,6.76,3.11,12.11,12.11,0,0,1,2.47,7.77,11.64,11.64,0,0,1-2.66,7.91A8.7,8.7,0,0,1,604,135.57Zm.24-2.66a5.12,5.12,0,0,0,4.12-2c1.11-1.36,1.66-3.46,1.66-6.32s-.58-5-1.74-6.24a5.3,5.3,0,0,0-4.08-1.94,5.12,5.12,0,0,0-4.06,2q-1.67,1.95-1.66,6.2c0,3,.55,5.14,1.66,6.43A5.2,5.2,0,0,0,604.23,132.91Z"/><path class="cls-1" d="M621.6,135h-3.22V114.29h2.83v4.84q1.5-3.43,3-4.44a5.42,5.42,0,0,1,3.08-1c.33,0,.75,0,1.27.08v3.08h-.65a5.65,5.65,0,0,0-4.43,2,8.05,8.05,0,0,0-1.89,5.23Z"/><path class="cls-1" d="M643,132.81v2.54a22.8,22.8,0,0,1-3,.22q-6,0-6-6.28V116.81h-3.67v-2.52h3.67l.14-5.21,3-.29v5.5h4.63v2.52h-4.63v13c0,2.13,1.1,3.2,3.32,3.2A15.78,15.78,0,0,0,643,132.81Z"/><path class="cls-1" d="M659.5,128.83l3,.61a8.33,8.33,0,0,1-3.2,4.39,9.2,9.2,0,0,1-5.59,1.74,8.71,8.71,0,0,1-6.87-3,13,13,0,0,1,.1-15.83,8.81,8.81,0,0,1,6.85-3.05,8.28,8.28,0,0,1,6.53,2.81q2.48,2.82,2.53,8.41H647.79q0,4.69,2,6.34a6.42,6.42,0,0,0,4.16,1.64Q657.88,132.91,659.5,128.83Zm-.18-6.3a9,9,0,0,0-.58-3.1,5.25,5.25,0,0,0-1.8-2.3,4.94,4.94,0,0,0-3.06-1,5.45,5.45,0,0,0-4.07,1.73,7.14,7.14,0,0,0-1.88,4.63Z"/><path class="cls-1" d="M684,135h-3V121.69c0-1.91-.41-3.26-1.25-4a4.26,4.26,0,0,0-3-1.17,5.24,5.24,0,0,0-4.14,2,7.76,7.76,0,0,0-1.67,5.19V135h-3.22V114.29h3v3.81c1.68-2.92,3.86-4.39,6.54-4.39a6.5,6.5,0,0,1,3.95,1.2,6.37,6.37,0,0,1,2.23,2.7A16.43,16.43,0,0,1,684,123Z"/><path class="cls-1" d="M708.37,135.57a7.88,7.88,0,0,1-6.66-3.16,12.63,12.63,0,0,1-2.38-7.84,11.29,11.29,0,0,1,2.68-7.9,8.67,8.67,0,0,1,6.69-3,8.18,8.18,0,0,1,6.76,3.11,12.17,12.17,0,0,1,2.47,7.77,11.6,11.6,0,0,1-2.67,7.91A8.69,8.69,0,0,1,708.37,135.57Zm.25-2.66a5.13,5.13,0,0,0,4.12-2c1.11-1.36,1.66-3.46,1.66-6.32s-.58-5-1.74-6.24a5.33,5.33,0,0,0-4.08-1.94,5.14,5.14,0,0,0-4.07,2c-1.1,1.3-1.66,3.37-1.66,6.2,0,3,.56,5.14,1.66,6.43A5.22,5.22,0,0,0,708.62,132.91Z"/><path class="cls-1" d="M739.69,111.05v2.56a5.84,5.84,0,0,0-3,.51,2.7,2.7,0,0,0-1,1.85,7.52,7.52,0,0,1,2,5,6.4,6.4,0,0,1-2.17,4.86,8.12,8.12,0,0,1-5.81,2,7.31,7.31,0,0,1-1.42-.12,10.69,10.69,0,0,0-1.41-.23,2.51,2.51,0,0,0-1.33.55,1.64,1.64,0,0,0-.78,1.4,1.52,1.52,0,0,0,1.12,1.6,23.87,23.87,0,0,0,5.32.47,29.56,29.56,0,0,1,5.24.49,5.32,5.32,0,0,1,2.86,1.68,4.6,4.6,0,0,1,1.17,3.19q0,5.93-10.42,5.92c-3.3,0-5.7-.49-7.21-1.49a4.55,4.55,0,0,1-2.27-4,4.17,4.17,0,0,1,3.16-4.14,3.93,3.93,0,0,1-2-3.35c0-1.59,1-2.82,2.87-3.66a6.76,6.76,0,0,1-2.68-5.48,6.33,6.33,0,0,1,2.29-5,8.33,8.33,0,0,1,5.6-2,10.16,10.16,0,0,1,4.25.88,4,4,0,0,1,1.42-2.81,6.08,6.08,0,0,1,3.4-.77C739,111,739.3,111,739.69,111.05ZM726,134.16c-1.51.65-2.26,1.61-2.26,2.85a2.7,2.7,0,0,0,1.86,2.45,11.12,11.12,0,0,0,4.72.87,15.1,15.1,0,0,0,4.88-.75c1.48-.5,2.22-1.34,2.22-2.53a2.07,2.07,0,0,0-.66-1.58,3.19,3.19,0,0,0-1.79-.78,39.34,39.34,0,0,0-4-.24C728.73,134.39,727.07,134.3,726,134.16Zm3.85-8.76a4.57,4.57,0,0,0,3.34-1.26,4.34,4.34,0,0,0,1.3-3.27,4.43,4.43,0,0,0-1.35-3.35,4.49,4.49,0,0,0-3.25-1.31,4.86,4.86,0,0,0-3.24,1.22,4.9,4.9,0,0,0-.14,6.73A4.57,4.57,0,0,0,729.84,125.4Z"/><path class="cls-1" d="M751.11,129.63l3.07-.64q1,3.91,6.49,3.92a6.16,6.16,0,0,0,3.4-.9,2.86,2.86,0,0,0,1.39-2.54q0-2.44-3.55-3.1l-4.36-.82a8,8,0,0,1-4.08-1.93,5,5,0,0,1-1.52-3.8,5.47,5.47,0,0,1,2.07-4.35,8.35,8.35,0,0,1,5.58-1.76q6.75,0,8.32,5.27l-2.95.64q-1.28-3.24-5.23-3.24a5.88,5.88,0,0,0-3.23.81,2.54,2.54,0,0,0-1.26,2.26q0,2.3,3.22,2.89l4,.72q6.35,1.16,6.34,6.15a5.49,5.49,0,0,1-2.36,4.61,10.26,10.26,0,0,1-6.28,1.75Q752.86,135.57,751.11,129.63Z"/><path class="cls-1" d="M787.06,128.83l3,.61a8.33,8.33,0,0,1-3.2,4.39,9.21,9.21,0,0,1-5.6,1.74,8.71,8.71,0,0,1-6.87-3,11.42,11.42,0,0,1-2.62-7.83,11.54,11.54,0,0,1,2.73-8,8.81,8.81,0,0,1,6.85-3.05,8.29,8.29,0,0,1,6.53,2.81q2.48,2.82,2.53,8.41h-15c0,3.13.65,5.24,2,6.34a6.42,6.42,0,0,0,4.16,1.64Q785.44,132.91,787.06,128.83Zm-.19-6.3a8.78,8.78,0,0,0-.57-3.1,5.32,5.32,0,0,0-1.8-2.3,4.94,4.94,0,0,0-3.06-1,5.45,5.45,0,0,0-4.07,1.73,7.09,7.09,0,0,0-1.88,4.63Z"/><path class="cls-1" d="M355.43,185.4h-3.22V164.69H355v4.84q1.5-3.43,3-4.44a5.48,5.48,0,0,1,3.09-1c.33,0,.75,0,1.27.08v3.08h-.65a5.65,5.65,0,0,0-4.43,2,8,8,0,0,0-1.89,5.23Z"/><path class="cls-1" d="M382.25,185.4h-3.17a35.34,35.34,0,0,1-.37-3.73,7.47,7.47,0,0,1-7.26,4.3,7.31,7.31,0,0,1-5.36-1.84,6.06,6.06,0,0,1-1.86-4.44,6.24,6.24,0,0,1,2.66-5.17q2.67-2,9.07-2c.57,0,1.49,0,2.75.08a12.07,12.07,0,0,0-.38-3.56,3.2,3.2,0,0,0-1.61-1.75,6.85,6.85,0,0,0-3.24-.66q-4.91,0-5.7,3.74l-3-.52q1.09-5.72,9.15-5.72c2.86,0,4.88.63,6.08,1.9s1.79,3.45,1.79,6.57v8.8A18,18,0,0,0,382.25,185.4ZM378.71,175c-1.32-.08-2.31-.12-3-.12a11.69,11.69,0,0,0-5.92,1.25,4,4,0,0,0-2.12,3.66,3.41,3.41,0,0,0,1.14,2.59,4.61,4.61,0,0,0,3.29,1.07,6.12,6.12,0,0,0,4.79-2.11,7.29,7.29,0,0,0,1.88-5C378.77,176,378.75,175.56,378.71,175Z"/><path class="cls-1" d="M404.59,185.4h-3V172.09c0-1.91-.41-3.26-1.25-4a4.26,4.26,0,0,0-3-1.17,5.24,5.24,0,0,0-4.14,2,7.76,7.76,0,0,0-1.67,5.19V185.4h-3.22V164.69h3v3.81c1.68-2.92,3.86-4.39,6.54-4.39a6.5,6.5,0,0,1,3.95,1.2A6.37,6.37,0,0,1,404,168a16.16,16.16,0,0,1,.61,5.41Z"/><path class="cls-1" d="M428,161.45V164a5.84,5.84,0,0,0-3,.51,2.7,2.7,0,0,0-1,1.85,7.52,7.52,0,0,1,2,5,6.4,6.4,0,0,1-2.17,4.86,8.12,8.12,0,0,1-5.81,2,7.31,7.31,0,0,1-1.42-.12,10.69,10.69,0,0,0-1.41-.23,2.51,2.51,0,0,0-1.33.55,1.64,1.64,0,0,0-.78,1.4,1.52,1.52,0,0,0,1.12,1.6,23.87,23.87,0,0,0,5.32.47,29.56,29.56,0,0,1,5.24.49,5.32,5.32,0,0,1,2.86,1.68,4.6,4.6,0,0,1,1.17,3.19q0,5.93-10.42,5.92c-3.3,0-5.7-.49-7.21-1.49a4.55,4.55,0,0,1-2.27-4A4.19,4.19,0,0,1,412,183.6a3.91,3.91,0,0,1-2-3.34c0-1.59,1-2.82,2.87-3.66a6.76,6.76,0,0,1-2.68-5.48,6.33,6.33,0,0,1,2.29-5,8.33,8.33,0,0,1,5.6-2,10.16,10.16,0,0,1,4.25.88,4,4,0,0,1,1.42-2.81,6.08,6.08,0,0,1,3.4-.77C427.3,161.41,427.56,161.42,428,161.45Zm-13.7,23.11c-1.51.65-2.26,1.61-2.26,2.85a2.7,2.7,0,0,0,1.86,2.45,11.12,11.12,0,0,0,4.72.87,15.1,15.1,0,0,0,4.88-.75c1.48-.5,2.22-1.34,2.22-2.53a2.07,2.07,0,0,0-.66-1.58,3.19,3.19,0,0,0-1.79-.78,39.34,39.34,0,0,0-4-.24C417,184.79,415.33,184.7,414.25,184.56Zm3.85-8.76a4.57,4.57,0,0,0,3.34-1.26,4.34,4.34,0,0,0,1.3-3.27,4.43,4.43,0,0,0-1.35-3.35,4.49,4.49,0,0,0-3.25-1.31,4.86,4.86,0,0,0-3.24,1.22,4.9,4.9,0,0,0-.14,6.73A4.57,4.57,0,0,0,418.1,175.8Z"/><path class="cls-1" d="M445.34,179.23l3,.61a8.38,8.38,0,0,1-3.2,4.39,9.23,9.23,0,0,1-5.6,1.74,8.71,8.71,0,0,1-6.87-3,11.42,11.42,0,0,1-2.62-7.83,11.58,11.58,0,0,1,2.72-8,8.83,8.83,0,0,1,6.85-3,8.3,8.3,0,0,1,6.54,2.81c1.64,1.87,2.49,4.68,2.53,8.41H433.63q0,4.69,2,6.34a6.45,6.45,0,0,0,4.17,1.64Q443.72,183.31,445.34,179.23Zm-.19-6.3a9.25,9.25,0,0,0-.57-3.1,5.27,5.27,0,0,0-1.81-2.3,4.91,4.91,0,0,0-3-1,5.45,5.45,0,0,0-4.07,1.73,7.09,7.09,0,0,0-1.88,4.63Z"/><path class="cls-1" d="M456.74,185.4h-3.22V164.69h2.83v4.84q1.5-3.43,3-4.44a5.48,5.48,0,0,1,3.09-1c.33,0,.75,0,1.27.08v3.08h-.66a5.64,5.64,0,0,0-4.42,2,8,8,0,0,0-1.89,5.23Z"/><path class="cls-1" d="M470.68,157.41V161h-3.46v-3.59Zm-.1,7.28V185.4h-3.22V164.69Z"/><path class="cls-1" d="M493.32,185.4h-3V172.09c0-1.91-.42-3.26-1.25-4a4.3,4.3,0,0,0-3-1.17,5.23,5.23,0,0,0-4.13,2,7.76,7.76,0,0,0-1.67,5.19V185.4H477V164.69h3v3.81c1.69-2.92,3.87-4.39,6.55-4.39a6.45,6.45,0,0,1,3.94,1.2,6.33,6.33,0,0,1,2.24,2.7,16.5,16.5,0,0,1,.6,5.41Z"/><path class="cls-1" d="M516.68,161.45V164a5.82,5.82,0,0,0-3,.51,2.7,2.7,0,0,0-1,1.85,7.51,7.51,0,0,1,2,5,6.43,6.43,0,0,1-2.16,4.86,8.12,8.12,0,0,1-5.81,2,7.31,7.31,0,0,1-1.42-.12,10.69,10.69,0,0,0-1.41-.23,2.54,2.54,0,0,0-1.34.55,1.64,1.64,0,0,0-.78,1.4,1.53,1.53,0,0,0,1.13,1.6,23.76,23.76,0,0,0,5.31.47,29.35,29.35,0,0,1,5.24.49,5.25,5.25,0,0,1,2.86,1.68,4.6,4.6,0,0,1,1.17,3.19q0,5.93-10.41,5.92c-3.3,0-5.7-.49-7.21-1.49a4.55,4.55,0,0,1-2.27-4,4.17,4.17,0,0,1,3.16-4.15,3.91,3.91,0,0,1-2-3.34c0-1.59,1-2.82,2.87-3.66a6.77,6.77,0,0,1-2.69-5.48,6.34,6.34,0,0,1,2.3-5,8.33,8.33,0,0,1,5.6-2,10.08,10.08,0,0,1,4.24.88,4,4,0,0,1,1.43-2.81,6,6,0,0,1,3.39-.77C516,161.41,516.3,161.42,516.68,161.45ZM503,184.56c-1.5.65-2.25,1.61-2.25,2.85a2.7,2.7,0,0,0,1.85,2.45,11.2,11.2,0,0,0,4.73.87,15.1,15.1,0,0,0,4.88-.75c1.48-.5,2.22-1.34,2.22-2.53a2.07,2.07,0,0,0-.66-1.58,3.25,3.25,0,0,0-1.79-.78,39.34,39.34,0,0,0-4-.24C505.73,184.79,504.06,184.7,503,184.56Zm3.86-8.76a4.57,4.57,0,0,0,3.34-1.26,4.37,4.37,0,0,0,1.29-3.27,4.42,4.42,0,0,0-1.34-3.35,4.49,4.49,0,0,0-3.25-1.31,4.82,4.82,0,0,0-3.24,1.22,4.9,4.9,0,0,0-.14,6.73A4.55,4.55,0,0,0,506.84,175.8Z"/><path class="cls-1" d="M547.1,185.4h-3.18a35.34,35.34,0,0,1-.37-3.73,7.45,7.45,0,0,1-7.26,4.3,7.27,7.27,0,0,1-5.35-1.84,6,6,0,0,1-1.87-4.44,6.22,6.22,0,0,1,2.67-5.17c1.77-1.35,4.8-2,9.06-2,.58,0,1.49,0,2.75.08a12.07,12.07,0,0,0-.38-3.56,3.17,3.17,0,0,0-1.61-1.75,6.85,6.85,0,0,0-3.24-.66q-4.91,0-5.7,3.74l-3-.52q1.1-5.72,9.15-5.72c2.86,0,4.88.63,6.08,1.9s1.8,3.45,1.8,6.57v8.8A17.39,17.39,0,0,0,547.1,185.4ZM543.55,175q-2-.12-3-.12a11.72,11.72,0,0,0-5.92,1.25,4,4,0,0,0-2.11,3.66,3.4,3.4,0,0,0,1.13,2.59,4.62,4.62,0,0,0,3.3,1.07,6.1,6.1,0,0,0,4.78-2.11,7.29,7.29,0,0,0,1.88-5C543.61,176,543.59,175.56,543.55,175Z"/><path class="cls-1" d="M567.32,164.69l-7.16,20.71h-3.32l-7.43-20.71H553l5.77,16.83,5.69-16.83Z"/><path class="cls-1" d="M598.61,176l3.2.71Q599.52,186,591.43,186a9.63,9.63,0,0,1-8.33-4.29,17.78,17.78,0,0,1-3-10.54q0-6.46,3.16-10.39a10.33,10.33,0,0,1,8.47-3.92q7.88,0,10.11,9l-3.3.66q-1.8-6.69-6.83-6.68a6.5,6.5,0,0,0-5.75,3.1q-2,3.1-2,8.73a14.49,14.49,0,0,0,2.09,8.25,6.4,6.4,0,0,0,5.54,3.11Q596.86,183,598.61,176Z"/><path class="cls-1" d="M633.19,185.4h-3.41V161L620.7,185.4h-2.38L609.13,161V185.4h-3v-28h5.19l8.46,22.39,8.25-22.39h5.13Z"/><path class="cls-1" d="M637.1,178l3.16-.72q1.9,5.72,8.27,5.72a7.63,7.63,0,0,0,5-1.41,4.68,4.68,0,0,0,1.68-3.78,3.59,3.59,0,0,0-1.28-2.88,7.23,7.23,0,0,0-3-1.5l-5.6-1.38a14.7,14.7,0,0,1-3.56-1.34,6.58,6.58,0,0,1-2.35-2.44,7.3,7.3,0,0,1-1-3.76,6.75,6.75,0,0,1,2.64-5.59,10.66,10.66,0,0,1,6.79-2.09q7.64,0,10,6.91l-3.18.95a5.69,5.69,0,0,0-2.6-3.73,8.23,8.23,0,0,0-4.37-1.26,7.11,7.11,0,0,0-4.09,1.22,3.91,3.91,0,0,0-1.8,3.44q0,3.1,4.55,4.2l5.24,1.23q7.17,1.72,7.17,7.73a7.77,7.77,0,0,1-2.69,6q-2.7,2.41-7.6,2.41Q639.89,186,637.1,178Z"/><path class="cls-1" d="M671.52,180l3.07-.64q1,3.92,6.48,3.92a6.17,6.17,0,0,0,3.41-.9,2.86,2.86,0,0,0,1.39-2.54q0-2.44-3.55-3.1L678,176a8,8,0,0,1-4.08-1.93,5,5,0,0,1-1.52-3.8,5.47,5.47,0,0,1,2.07-4.35,8.35,8.35,0,0,1,5.58-1.76q6.74,0,8.32,5.27l-3,.64q-1.27-3.24-5.23-3.24a5.88,5.88,0,0,0-3.23.81,2.54,2.54,0,0,0-1.26,2.26q0,2.29,3.22,2.89l4,.72q6.33,1.15,6.34,6.15a5.49,5.49,0,0,1-2.36,4.61,10.28,10.28,0,0,1-6.28,1.75Q673.26,186,671.52,180Z"/><path class="cls-1" d="M708,164.69l-8.3,23.13c-1.2,3.34-3.13,5-5.77,5a10.18,10.18,0,0,1-2.77-.43v-2.52a10,10,0,0,0,2.16.29,3.87,3.87,0,0,0,2.57-.88c.69-.59,1.38-2,2.07-4.3l-7.17-20.29h3.27l5.56,15.56,5.67-15.56Z"/><path class="cls-1" d="M708.43,180l3.08-.64q1,3.92,6.48,3.92a6.13,6.13,0,0,0,3.4-.9,2.86,2.86,0,0,0,1.4-2.54c0-1.63-1.19-2.66-3.55-3.1l-4.37-.82a8,8,0,0,1-4.08-1.93,5,5,0,0,1-1.52-3.8,5.47,5.47,0,0,1,2.07-4.35,8.35,8.35,0,0,1,5.58-1.76q6.75,0,8.33,5.27l-3,.64c-.84-2.16-2.59-3.24-5.23-3.24a5.91,5.91,0,0,0-3.23.81,2.54,2.54,0,0,0-1.26,2.26c0,1.53,1.08,2.49,3.22,2.89l4,.72q6.34,1.15,6.34,6.15a5.49,5.49,0,0,1-2.36,4.61,10.25,10.25,0,0,1-6.27,1.75Q710.18,186,708.43,180Z"/><path class="cls-1" d="M740.09,183.21v2.54a22.68,22.68,0,0,1-3,.22q-6,0-6-6.28V167.21h-3.67v-2.52h3.67l.15-5.21,3-.29v5.5h4.64v2.52h-4.64v13q0,3.2,3.32,3.2A15.68,15.68,0,0,0,740.09,183.21Z"/><path class="cls-1" d="M756.58,179.23l3,.61a8.44,8.44,0,0,1-3.2,4.39,9.23,9.23,0,0,1-5.6,1.74,8.71,8.71,0,0,1-6.87-3,13.07,13.07,0,0,1,.1-15.83,8.81,8.81,0,0,1,6.85-3,8.27,8.27,0,0,1,6.53,2.81c1.65,1.87,2.5,4.68,2.54,8.41H744.87q0,4.69,2,6.34a6.45,6.45,0,0,0,4.17,1.64Q755,183.31,756.58,179.23Zm-.18-6.3a9.25,9.25,0,0,0-.57-3.1,5.27,5.27,0,0,0-1.81-2.3,4.94,4.94,0,0,0-3.06-1,5.48,5.48,0,0,0-4.07,1.73,7.08,7.08,0,0,0-1.87,4.63Z"/><path class="cls-1" d="M792.51,185.4h-3.13V172.52a12.07,12.07,0,0,0-.28-3,3.61,3.61,0,0,0-1.34-1.83,3.84,3.84,0,0,0-2.4-.83,5.06,5.06,0,0,0-3.56,1.69,7,7,0,0,0-1.71,5.16V185.4H777V171.76a4.89,4.89,0,0,0-1.3-3.85,4.1,4.1,0,0,0-2.74-1.13,4.59,4.59,0,0,0-3.57,1.76,6.63,6.63,0,0,0-1.52,4.47V185.4h-3.07V164.69h2.77v4c1.54-3,3.67-4.56,6.37-4.56a5.38,5.38,0,0,1,3.8,1.46,6.64,6.64,0,0,1,2,3.51q2.13-5,6.54-5a6,6,0,0,1,3.7,1.21A5.6,5.6,0,0,1,792,168.1a15.85,15.85,0,0,1,.48,4.42Z"/><path class="cls-1" d="M812.63,179.23l3,.61a8.44,8.44,0,0,1-3.2,4.39,9.25,9.25,0,0,1-5.6,1.74,8.71,8.71,0,0,1-6.87-3,13,13,0,0,1,.1-15.83,8.81,8.81,0,0,1,6.85-3,8.28,8.28,0,0,1,6.53,2.81c1.65,1.87,2.49,4.68,2.53,8.41H800.92q0,4.69,2,6.34a6.42,6.42,0,0,0,4.16,1.64Q811,183.31,812.63,179.23Zm-.18-6.3a9,9,0,0,0-.58-3.1,5.18,5.18,0,0,0-1.8-2.3,4.94,4.94,0,0,0-3.06-1,5.45,5.45,0,0,0-4.07,1.73,7.14,7.14,0,0,0-1.88,4.63Z"/><path class="cls-1" d="M824,185.4h-3.22V164.69h2.83v4.84q1.5-3.43,3-4.44a5.42,5.42,0,0,1,3.08-1c.33,0,.76,0,1.28.08v3.08h-.66a5.66,5.66,0,0,0-4.43,2,8.09,8.09,0,0,0-1.89,5.23Z"/></svg>