<svg id="Layer_1" data-name="Layer 1" xmlns="http://www.w3.org/2000/svg" viewBox="0 0 980 300"><defs><style>.cls-1{fill:#fff;}</style></defs><title>text</title><path class="cls-1" d="M53,80.92V84H36.5V56h3.59V80.92Z"/><path class="cls-1" d="M73,84H69.8c-.12-.66-.24-1.9-.37-3.73a7.45,7.45,0,0,1-7.26,4.3,7.29,7.29,0,0,1-5.35-1.84A6.07,6.07,0,0,1,55,78.29a6.22,6.22,0,0,1,2.67-5.17q2.67-2,9.06-2c.58,0,1.49,0,2.75.08a11.74,11.74,0,0,0-.38-3.56,3.17,3.17,0,0,0-1.61-1.75,6.85,6.85,0,0,0-3.24-.66q-4.89,0-5.7,3.74l-3-.52q1.08-5.72,9.14-5.72,4.29,0,6.09,1.9t1.79,6.57V80A17.39,17.39,0,0,0,73,84ZM69.43,73.64c-1.31-.08-2.31-.12-3-.12a11.76,11.76,0,0,0-5.93,1.25,4,4,0,0,0-2.11,3.66A3.41,3.41,0,0,0,59.54,81a4.59,4.59,0,0,0,3.29,1.07A6.12,6.12,0,0,0,67.62,80a7.28,7.28,0,0,0,1.87-5C69.49,74.62,69.47,74.16,69.43,73.64Z"/><path class="cls-1" d="M76.2,78.63,79.28,78q1,3.92,6.48,3.92a6.13,6.13,0,0,0,3.4-.9,2.86,2.86,0,0,0,1.4-2.54c0-1.63-1.19-2.66-3.55-3.1l-4.37-.82a8,8,0,0,1-4.08-1.93A5,5,0,0,1,77,68.82a5.47,5.47,0,0,1,2.07-4.35,8.35,8.35,0,0,1,5.58-1.76q6.75,0,8.33,5.27l-3,.64c-.84-2.16-2.59-3.24-5.23-3.24a5.91,5.91,0,0,0-3.23.81,2.54,2.54,0,0,0-1.26,2.26c0,1.53,1.08,2.49,3.22,2.89l4,.72q6.34,1.16,6.34,6.15a5.49,5.49,0,0,1-2.36,4.61,10.25,10.25,0,0,1-6.27,1.75Q77.95,84.57,76.2,78.63Z"/><path class="cls-1" d="M107.86,81.81v2.54a22.68,22.68,0,0,1-3,.22q-6,0-6-6.28V65.81H95.23V63.29H98.9l.15-5.21,3-.29v5.5h4.63v2.52H102v13q0,3.19,3.32,3.2A15.78,15.78,0,0,0,107.86,81.81Z"/><path class="cls-1" d="M138.22,84h-3V70.69c0-1.91-.42-3.26-1.25-4a4.28,4.28,0,0,0-3-1.17,5.23,5.23,0,0,0-4.14,2,7.76,7.76,0,0,0-1.67,5.19V84h-3.22V63.29h3V67.1c1.68-2.92,3.86-4.39,6.54-4.39a6.5,6.5,0,0,1,3.95,1.2,6.37,6.37,0,0,1,2.23,2.7,16.43,16.43,0,0,1,.61,5.41Z"/><path class="cls-1" d="M158.33,77.83l3,.61a8.44,8.44,0,0,1-3.2,4.39,9.23,9.23,0,0,1-5.6,1.74,8.71,8.71,0,0,1-6.87-3A11.42,11.42,0,0,1,143,73.76a11.53,11.53,0,0,1,2.72-8,8.81,8.81,0,0,1,6.85-3.05,8.27,8.27,0,0,1,6.53,2.81q2.48,2.82,2.54,8.41H146.62q0,4.69,2,6.34a6.45,6.45,0,0,0,4.17,1.64Q156.7,81.91,158.33,77.83Zm-.18-6.3a9.25,9.25,0,0,0-.57-3.1,5.27,5.27,0,0,0-1.81-2.3,4.94,4.94,0,0,0-3.06-1,5.48,5.48,0,0,0-4.07,1.73,7.08,7.08,0,0,0-1.87,4.63Z"/><path class="cls-1" d="M182.7,56V84h-2.91V80.45a7,7,0,0,1-6.56,4.12,7.21,7.21,0,0,1-6-3,12.32,12.32,0,0,1-2.34-7.71,13.14,13.14,0,0,1,2.31-7.94,7.28,7.28,0,0,1,6.16-3.17,7.13,7.13,0,0,1,6.09,3.41V56Zm-3.22,15.27a5.88,5.88,0,0,0-1.66-4.36,5.33,5.33,0,0,0-3.88-1.64A4.7,4.7,0,0,0,170,67.41a10.07,10.07,0,0,0-1.55,6,11.59,11.59,0,0,0,1.43,6.33,4.45,4.45,0,0,0,3.91,2.18,5.22,5.22,0,0,0,4-1.89,6.35,6.35,0,0,0,1.73-4.43Z"/><path class="cls-1" d="M39.43,134.4H36.21V113.69H39v4.84q1.5-3.44,3-4.44a5.48,5.48,0,0,1,3.09-1c.33,0,.75,0,1.27.08v3.08h-.65a5.65,5.65,0,0,0-4.43,2,8,8,0,0,0-1.89,5.23Z"/><path class="cls-1" d="M66.25,134.4H63.08a35.34,35.34,0,0,1-.37-3.73,7.47,7.47,0,0,1-7.26,4.3,7.31,7.31,0,0,1-5.36-1.84,6.06,6.06,0,0,1-1.86-4.44,6.24,6.24,0,0,1,2.66-5.17q2.67-2,9.07-2c.57,0,1.49,0,2.75.08a12.07,12.07,0,0,0-.38-3.56,3.2,3.2,0,0,0-1.61-1.75,6.85,6.85,0,0,0-3.24-.66q-4.9,0-5.7,3.74l-3-.52q1.1-5.72,9.15-5.72c2.86,0,4.88.63,6.08,1.9s1.79,3.45,1.79,6.57v8.8A18,18,0,0,0,66.25,134.4ZM62.71,124c-1.32-.08-2.31-.12-3-.12a11.69,11.69,0,0,0-5.92,1.25,4,4,0,0,0-2.12,3.66,3.41,3.41,0,0,0,1.14,2.59,4.61,4.61,0,0,0,3.29,1.07,6.12,6.12,0,0,0,4.79-2.11,7.29,7.29,0,0,0,1.88-5C62.77,125,62.75,124.56,62.71,124Z"/><path class="cls-1" d="M75.48,141.39H72.26v-27.7h2.91v4c1.47-3.07,3.64-4.6,6.54-4.6a7,7,0,0,1,5.92,3.07A14.83,14.83,0,0,1,87.56,132a7.22,7.22,0,0,1-6,3,6.86,6.86,0,0,1-6.13-3.71Zm0-20.34v5.84a6.22,6.22,0,0,0,2,3.89A5.18,5.18,0,0,0,81,132.31a4.89,4.89,0,0,0,3.74-1.85c1.09-1.23,1.63-3.35,1.63-6.38a10.55,10.55,0,0,0-1.47-6A4.59,4.59,0,0,0,81,115.92a4.81,4.81,0,0,0-3.46,1.5A7.28,7.28,0,0,0,75.48,121.05Z"/><path class="cls-1" d="M97.92,141.39H94.7v-27.7h2.91v4q2.19-4.6,6.53-4.6a7,7,0,0,1,5.92,3.07A14.86,14.86,0,0,1,110,132a7.23,7.23,0,0,1-6,3,6.85,6.85,0,0,1-6.13-3.71Zm0-20.34v5.84a6.17,6.17,0,0,0,2,3.89,5.17,5.17,0,0,0,3.5,1.53,4.91,4.91,0,0,0,3.75-1.85c1.08-1.23,1.63-3.35,1.63-6.38a10.55,10.55,0,0,0-1.48-6,4.56,4.56,0,0,0-3.92-2.12,4.81,4.81,0,0,0-3.45,1.5A7.28,7.28,0,0,0,97.92,121.05Z"/><path class="cls-1" d="M124.56,135a7.87,7.87,0,0,1-6.66-3.16,12.63,12.63,0,0,1-2.39-7.84,11.29,11.29,0,0,1,2.69-7.9,8.67,8.67,0,0,1,6.69-3,8.16,8.16,0,0,1,6.75,3.11,12.11,12.11,0,0,1,2.47,7.77,11.59,11.59,0,0,1-2.66,7.91A8.7,8.7,0,0,1,124.56,135Zm.24-2.66a5.15,5.15,0,0,0,4.13-2c1.1-1.36,1.66-3.46,1.66-6.32s-.58-4.95-1.75-6.24a5.3,5.3,0,0,0-4.08-1.94,5.12,5.12,0,0,0-4.06,2q-1.67,2-1.66,6.2c0,3,.55,5.14,1.66,6.43A5.21,5.21,0,0,0,124.8,132.31Z"/><path class="cls-1" d="M142.17,134.4H139V113.69h2.83v4.84q1.5-3.44,3-4.44a5.43,5.43,0,0,1,3.09-1c.32,0,.75,0,1.27.08v3.08h-.66a5.66,5.66,0,0,0-4.43,2,8.09,8.09,0,0,0-1.89,5.23Z"/><path class="cls-1" d="M163.58,132.21v2.54a22.8,22.8,0,0,1-3,.22q-6,0-6-6.28V116.21H151v-2.52h3.67l.15-5.21,3-.29v5.5h4.63v2.52h-4.63v13q0,3.2,3.32,3.2A15.78,15.78,0,0,0,163.58,132.21Z"/><path class="cls-1" d="M180.07,128.23l3,.61a8.44,8.44,0,0,1-3.2,4.39,9.23,9.23,0,0,1-5.6,1.74,8.71,8.71,0,0,1-6.87-3,13,13,0,0,1,.1-15.83,8.81,8.81,0,0,1,6.85-3,8.28,8.28,0,0,1,6.53,2.81c1.65,1.87,2.49,4.68,2.54,8.41H168.36q0,4.69,2,6.34a6.42,6.42,0,0,0,4.16,1.64Q178.45,132.31,180.07,128.23Zm-.18-6.3a9,9,0,0,0-.58-3.1,5.18,5.18,0,0,0-1.8-2.3,4.94,4.94,0,0,0-3.06-1,5.47,5.47,0,0,0-4.07,1.73,7.08,7.08,0,0,0-1.87,4.63Z"/><path class="cls-1" d="M204.58,134.4h-3V121.09c0-1.91-.41-3.26-1.25-4a4.26,4.26,0,0,0-3-1.17,5.21,5.21,0,0,0-4.13,2,7.71,7.71,0,0,0-1.68,5.19V134.4h-3.22V113.69h3v3.81c1.68-2.92,3.86-4.39,6.54-4.39a6.48,6.48,0,0,1,4,1.2A6.3,6.3,0,0,1,204,117a16.16,16.16,0,0,1,.61,5.41Z"/><path class="cls-1" d="M228.94,135a7.85,7.85,0,0,1-6.65-3.16A12.57,12.57,0,0,1,219.9,124a11.29,11.29,0,0,1,2.68-7.9,8.69,8.69,0,0,1,6.69-3,8.18,8.18,0,0,1,6.76,3.11A12.17,12.17,0,0,1,238.5,124a11.6,11.6,0,0,1-2.67,7.91A8.68,8.68,0,0,1,228.94,135Zm.25-2.66a5.13,5.13,0,0,0,4.12-2c1.11-1.36,1.66-3.46,1.66-6.32s-.58-4.95-1.74-6.24a5.3,5.3,0,0,0-4.08-1.94,5.11,5.11,0,0,0-4.06,2q-1.67,2-1.66,6.2c0,3,.55,5.14,1.66,6.43A5.18,5.18,0,0,0,229.19,132.31Z"/><path class="cls-1" d="M260.26,110.45V113a5.84,5.84,0,0,0-3,.51,2.7,2.7,0,0,0-1,1.85,7.47,7.47,0,0,1,2,5,6.43,6.43,0,0,1-2.16,4.86,8.14,8.14,0,0,1-5.82,2,7.13,7.13,0,0,1-1.41-.12,11,11,0,0,0-1.42-.23,2.51,2.51,0,0,0-1.33.55,1.64,1.64,0,0,0-.78,1.4,1.53,1.53,0,0,0,1.13,1.6,23.68,23.68,0,0,0,5.31.47,29.56,29.56,0,0,1,5.24.49,5.29,5.29,0,0,1,2.86,1.68,4.6,4.6,0,0,1,1.17,3.19q0,5.93-10.42,5.92c-3.29,0-5.7-.49-7.21-1.49a4.54,4.54,0,0,1-2.26-4,4.18,4.18,0,0,1,3.15-4.15,3.91,3.91,0,0,1-2-3.34c0-1.59,1-2.82,2.87-3.66a6.76,6.76,0,0,1-2.68-5.48,6.33,6.33,0,0,1,2.29-5,8.34,8.34,0,0,1,5.6-2,10.13,10.13,0,0,1,4.25.88,4,4,0,0,1,1.42-2.81,6.08,6.08,0,0,1,3.4-.77C259.61,110.41,259.88,110.42,260.26,110.45Zm-13.7,23.11c-1.51.65-2.26,1.61-2.26,2.85a2.7,2.7,0,0,0,1.86,2.45,11.16,11.16,0,0,0,4.73.87,15.18,15.18,0,0,0,4.88-.75c1.47-.5,2.21-1.34,2.21-2.53a2.1,2.1,0,0,0-.65-1.58,3.25,3.25,0,0,0-1.8-.78,39.34,39.34,0,0,0-4-.24C249.31,133.79,247.64,133.7,246.56,133.56Zm3.85-8.76a4.6,4.6,0,0,0,3.35-1.26,4.37,4.37,0,0,0,1.29-3.27,4.46,4.46,0,0,0-1.34-3.35,4.51,4.51,0,0,0-3.25-1.31,4.87,4.87,0,0,0-3.25,1.22,4.9,4.9,0,0,0-.14,6.73A4.57,4.57,0,0,0,250.41,124.8Z"/><path class="cls-1" d="M271.68,129l3.08-.64q1,3.92,6.48,3.92a6.13,6.13,0,0,0,3.4-.9,2.86,2.86,0,0,0,1.4-2.54c0-1.63-1.19-2.66-3.55-3.1l-4.37-.82A8,8,0,0,1,274,123a5,5,0,0,1-1.52-3.8,5.47,5.47,0,0,1,2.07-4.35,8.35,8.35,0,0,1,5.58-1.76q6.75,0,8.33,5.27l-3,.64c-.84-2.16-2.59-3.24-5.23-3.24a5.91,5.91,0,0,0-3.23.81,2.54,2.54,0,0,0-1.26,2.26c0,1.53,1.08,2.49,3.22,2.89l4,.72q6.35,1.16,6.34,6.15a5.49,5.49,0,0,1-2.36,4.61,10.25,10.25,0,0,1-6.27,1.75Q273.42,135,271.68,129Z"/><path class="cls-1" d="M307.63,128.23l3,.61a8.44,8.44,0,0,1-3.2,4.39,9.25,9.25,0,0,1-5.6,1.74,8.71,8.71,0,0,1-6.87-3,13,13,0,0,1,.1-15.83,8.81,8.81,0,0,1,6.85-3,8.28,8.28,0,0,1,6.53,2.81c1.65,1.87,2.49,4.68,2.53,8.41H295.92q0,4.69,2,6.34a6.42,6.42,0,0,0,4.16,1.64Q306,132.31,307.63,128.23Zm-.18-6.3a9,9,0,0,0-.58-3.1,5.18,5.18,0,0,0-1.8-2.3,4.94,4.94,0,0,0-3.06-1,5.45,5.45,0,0,0-4.07,1.73,7.14,7.14,0,0,0-1.88,4.63Z"/><path class="cls-1" d="M39.43,184.8H36.21V164.09H39v4.84q1.5-3.44,3-4.44a5.48,5.48,0,0,1,3.09-1c.33,0,.75,0,1.27.08v3.08h-.65a5.65,5.65,0,0,0-4.43,2,8.05,8.05,0,0,0-1.89,5.23Z"/><path class="cls-1" d="M66.25,184.8H63.08a35.34,35.34,0,0,1-.37-3.73,7.47,7.47,0,0,1-7.26,4.3,7.31,7.31,0,0,1-5.36-1.84,6.06,6.06,0,0,1-1.86-4.44,6.24,6.24,0,0,1,2.66-5.17q2.67-2,9.07-2c.57,0,1.49,0,2.75.08a12.07,12.07,0,0,0-.38-3.56,3.2,3.2,0,0,0-1.61-1.75,6.85,6.85,0,0,0-3.24-.66q-4.9,0-5.7,3.74l-3-.52q1.1-5.72,9.15-5.72c2.86,0,4.88.64,6.08,1.9s1.79,3.46,1.79,6.57v8.8A18,18,0,0,0,66.25,184.8Zm-3.54-10.36c-1.32-.08-2.31-.12-3-.12a11.69,11.69,0,0,0-5.92,1.25,4,4,0,0,0-2.12,3.66,3.41,3.41,0,0,0,1.14,2.59,4.61,4.61,0,0,0,3.29,1.07,6.12,6.12,0,0,0,4.79-2.11,7.29,7.29,0,0,0,1.88-5C62.77,175.42,62.75,175,62.71,174.44Z"/><path class="cls-1" d="M88.59,184.8h-3V171.49c0-1.91-.41-3.26-1.25-4a4.26,4.26,0,0,0-3-1.17,5.24,5.24,0,0,0-4.14,2,7.76,7.76,0,0,0-1.67,5.19V184.8H72.26V164.09h3v3.81c1.68-2.92,3.86-4.39,6.54-4.39a6.5,6.5,0,0,1,4,1.2,6.37,6.37,0,0,1,2.23,2.7,16.16,16.16,0,0,1,.61,5.41Z"/><path class="cls-1" d="M112,160.85v2.56a5.84,5.84,0,0,0-3,.51,2.7,2.7,0,0,0-1,1.85,7.52,7.52,0,0,1,2,5,6.4,6.4,0,0,1-2.17,4.86,8.12,8.12,0,0,1-5.81,2,7.31,7.31,0,0,1-1.42-.12,10.69,10.69,0,0,0-1.41-.23,2.51,2.51,0,0,0-1.33.55,1.64,1.64,0,0,0-.78,1.4,1.52,1.52,0,0,0,1.12,1.6,23.87,23.87,0,0,0,5.32.47,29.56,29.56,0,0,1,5.24.49,5.32,5.32,0,0,1,2.86,1.68,4.6,4.6,0,0,1,1.17,3.19q0,5.92-10.42,5.92-4.95,0-7.21-1.48a4.57,4.57,0,0,1-2.27-4A4.19,4.19,0,0,1,96,183a3.91,3.91,0,0,1-2-3.34c0-1.59,1-2.82,2.87-3.66a6.76,6.76,0,0,1-2.68-5.48,6.33,6.33,0,0,1,2.29-5,8.33,8.33,0,0,1,5.6-2,10.16,10.16,0,0,1,4.25.88,4,4,0,0,1,1.42-2.81,6.08,6.08,0,0,1,3.4-.77C111.3,160.81,111.56,160.82,112,160.85ZM98.25,184c-1.51.66-2.26,1.61-2.26,2.85a2.7,2.7,0,0,0,1.86,2.45,11.12,11.12,0,0,0,4.72.87,15.1,15.1,0,0,0,4.88-.75c1.48-.5,2.22-1.34,2.22-2.53a2.07,2.07,0,0,0-.66-1.58,3.19,3.19,0,0,0-1.79-.78,39.34,39.34,0,0,0-4-.24C101,184.19,99.33,184.1,98.25,184Zm3.85-8.76a4.57,4.57,0,0,0,3.34-1.26,4.34,4.34,0,0,0,1.3-3.27,4.45,4.45,0,0,0-1.35-3.35,4.49,4.49,0,0,0-3.25-1.31,4.86,4.86,0,0,0-3.24,1.22,4.9,4.9,0,0,0-.14,6.73A4.57,4.57,0,0,0,102.1,175.2Z"/><path class="cls-1" d="M129.34,178.63l3,.61a8.45,8.45,0,0,1-3.2,4.4,9.29,9.29,0,0,1-5.6,1.73,8.71,8.71,0,0,1-6.87-3,11.42,11.42,0,0,1-2.62-7.83,11.58,11.58,0,0,1,2.72-8,8.83,8.83,0,0,1,6.85-3.05,8.3,8.3,0,0,1,6.54,2.81c1.64,1.88,2.49,4.68,2.53,8.41H117.63q0,4.7,2,6.34a6.45,6.45,0,0,0,4.17,1.64Q127.72,182.71,129.34,178.63Zm-.19-6.3a9.25,9.25,0,0,0-.57-3.1,5.27,5.27,0,0,0-1.81-2.3,4.91,4.91,0,0,0-3-1,5.45,5.45,0,0,0-4.07,1.73,7.09,7.09,0,0,0-1.88,4.63Z"/><path class="cls-1" d="M140.74,184.8h-3.22V164.09h2.83v4.84q1.5-3.44,3-4.44a5.48,5.48,0,0,1,3.09-1c.33,0,.75,0,1.27.08v3.08h-.66a5.64,5.64,0,0,0-4.42,2,8.05,8.05,0,0,0-1.89,5.23Z"/><path class="cls-1" d="M154.68,156.81v3.59h-3.46v-3.59Zm-.1,7.28V184.8h-3.22V164.09Z"/><path class="cls-1" d="M177.32,184.8h-3V171.49c0-1.91-.42-3.26-1.25-4a4.3,4.3,0,0,0-3-1.17,5.23,5.23,0,0,0-4.13,2,7.76,7.76,0,0,0-1.67,5.19V184.8H161V164.09h3v3.81c1.69-2.92,3.87-4.39,6.55-4.39a6.45,6.45,0,0,1,3.94,1.2,6.33,6.33,0,0,1,2.24,2.7,16.5,16.5,0,0,1,.6,5.41Z"/><path class="cls-1" d="M200.68,160.85v2.56a5.82,5.82,0,0,0-3,.51,2.7,2.7,0,0,0-1,1.85,7.51,7.51,0,0,1,2,5,6.43,6.43,0,0,1-2.16,4.86,8.12,8.12,0,0,1-5.81,2,7.31,7.31,0,0,1-1.42-.12,10.69,10.69,0,0,0-1.41-.23,2.54,2.54,0,0,0-1.34.55,1.64,1.64,0,0,0-.78,1.4,1.53,1.53,0,0,0,1.13,1.6,23.76,23.76,0,0,0,5.31.47,29.35,29.35,0,0,1,5.24.49,5.25,5.25,0,0,1,2.86,1.68,4.6,4.6,0,0,1,1.17,3.19q0,5.92-10.41,5.92-5,0-7.21-1.48a4.57,4.57,0,0,1-2.27-4,4.17,4.17,0,0,1,3.16-4.15,3.91,3.91,0,0,1-2-3.34c0-1.59,1-2.82,2.87-3.66a6.77,6.77,0,0,1-2.69-5.48,6.34,6.34,0,0,1,2.3-5,8.33,8.33,0,0,1,5.6-2,10.08,10.08,0,0,1,4.24.88,4,4,0,0,1,1.43-2.81,6,6,0,0,1,3.39-.77C200,160.81,200.3,160.82,200.68,160.85ZM187,184q-2.25,1-2.25,2.85a2.7,2.7,0,0,0,1.85,2.45,11.2,11.2,0,0,0,4.73.87,15.1,15.1,0,0,0,4.88-.75c1.48-.5,2.22-1.34,2.22-2.53a2.07,2.07,0,0,0-.66-1.58,3.25,3.25,0,0,0-1.79-.78,39.34,39.34,0,0,0-4-.24C189.73,184.19,188.06,184.1,187,184Zm3.86-8.76a4.57,4.57,0,0,0,3.34-1.26,4.37,4.37,0,0,0,1.29-3.27,4.44,4.44,0,0,0-1.34-3.35,4.49,4.49,0,0,0-3.25-1.31,4.82,4.82,0,0,0-3.24,1.22,4.9,4.9,0,0,0-.14,6.73A4.55,4.55,0,0,0,190.84,175.2Z"/><path class="cls-1" d="M231.1,184.8h-3.18a35.34,35.34,0,0,1-.37-3.73,7.45,7.45,0,0,1-7.26,4.3,7.27,7.27,0,0,1-5.35-1.84,6,6,0,0,1-1.87-4.44,6.22,6.22,0,0,1,2.67-5.17c1.77-1.35,4.8-2,9.06-2,.58,0,1.49,0,2.75.08a12.07,12.07,0,0,0-.38-3.56,3.17,3.17,0,0,0-1.61-1.75,6.85,6.85,0,0,0-3.24-.66q-4.9,0-5.7,3.74l-3-.52q1.1-5.72,9.15-5.72c2.86,0,4.88.64,6.08,1.9s1.8,3.46,1.8,6.57v8.8A17.39,17.39,0,0,0,231.1,184.8Zm-3.55-10.36q-2-.12-3-.12a11.72,11.72,0,0,0-5.92,1.25,4,4,0,0,0-2.11,3.66,3.4,3.4,0,0,0,1.13,2.59,4.62,4.62,0,0,0,3.3,1.07,6.1,6.1,0,0,0,4.78-2.11,7.29,7.29,0,0,0,1.88-5C227.61,175.42,227.59,175,227.55,174.44Z"/><path class="cls-1" d="M251.32,164.09l-7.16,20.71h-3.32l-7.43-20.71H237l5.77,16.83,5.69-16.83Z"/><path class="cls-1" d="M53.27,225.79l3.2.71q-2.3,9.27-10.38,9.27a9.64,9.64,0,0,1-8.33-4.29,17.78,17.78,0,0,1-3-10.54q0-6.47,3.16-10.39a10.33,10.33,0,0,1,8.47-3.92q7.88,0,10.11,9l-3.3.66q-1.8-6.69-6.83-6.68a6.5,6.5,0,0,0-5.75,3.1q-2,3.1-2,8.73a14.57,14.57,0,0,0,2.09,8.25,6.4,6.4,0,0,0,5.54,3.11Q51.54,232.8,53.27,225.79Z"/><path class="cls-1" d="M87.85,235.2H84.44V210.75L75.36,235.2H73l-9.19-24.45V235.2h-3v-28H66l8.46,22.38,8.25-22.38h5.13Z"/><path class="cls-1" d="M91.77,227.8l3.15-.72q1.92,5.71,8.27,5.72a7.63,7.63,0,0,0,5-1.41,4.68,4.68,0,0,0,1.68-3.78,3.59,3.59,0,0,0-1.28-2.88,7.11,7.11,0,0,0-3-1.5l-5.6-1.38a14.43,14.43,0,0,1-3.56-1.35,6.47,6.47,0,0,1-2.35-2.43,7.3,7.3,0,0,1-1-3.76,6.73,6.73,0,0,1,2.65-5.59,10.61,10.61,0,0,1,6.78-2.09q7.64,0,10,6.91l-3.18,1a5.65,5.65,0,0,0-2.6-3.73,8.21,8.21,0,0,0-4.37-1.26,7.14,7.14,0,0,0-4.09,1.22,3.91,3.91,0,0,0-1.8,3.44q0,3.1,4.55,4.2l5.24,1.23q7.17,1.72,7.17,7.73a7.74,7.74,0,0,1-2.69,6q-2.7,2.41-7.6,2.41Q94.55,235.77,91.77,227.8Z"/><path class="cls-1" d="M126.18,229.83l3.07-.64q1,3.92,6.48,3.92a6.17,6.17,0,0,0,3.41-.9,2.86,2.86,0,0,0,1.39-2.54q0-2.44-3.55-3.1l-4.36-.82a8,8,0,0,1-4.08-1.93A5,5,0,0,1,127,220a5.47,5.47,0,0,1,2.07-4.35,8.35,8.35,0,0,1,5.58-1.76q6.75,0,8.32,5.27l-3,.64q-1.28-3.24-5.23-3.24a5.88,5.88,0,0,0-3.23.81,2.54,2.54,0,0,0-1.26,2.26q0,2.29,3.22,2.89l4,.72q6.33,1.16,6.34,6.15a5.49,5.49,0,0,1-2.36,4.61,10.28,10.28,0,0,1-6.28,1.75Q127.93,235.77,126.18,229.83Z"/><path class="cls-1" d="M162.67,214.49l-8.31,23.13c-1.2,3.34-3.12,5-5.76,5a10.19,10.19,0,0,1-2.78-.43v-2.52A10.07,10.07,0,0,0,148,240a3.87,3.87,0,0,0,2.57-.88c.69-.59,1.38-2,2.07-4.3l-7.17-20.29h3.27l5.56,15.56L160,214.49Z"/><path class="cls-1" d="M163.09,229.83l3.08-.64q1,3.92,6.48,3.92a6.13,6.13,0,0,0,3.4-.9,2.86,2.86,0,0,0,1.4-2.54c0-1.63-1.19-2.66-3.55-3.1l-4.37-.82a8,8,0,0,1-4.08-1.93,5,5,0,0,1-1.52-3.8,5.47,5.47,0,0,1,2.07-4.35,8.38,8.38,0,0,1,5.58-1.76q6.75,0,8.33,5.27l-2.95.64q-1.28-3.24-5.23-3.24a5.86,5.86,0,0,0-3.23.81,2.54,2.54,0,0,0-1.26,2.26q0,2.29,3.22,2.89l4,.72q6.33,1.16,6.33,6.15a5.47,5.47,0,0,1-2.36,4.61,10.25,10.25,0,0,1-6.27,1.75Q164.83,235.77,163.09,229.83Z"/><path class="cls-1" d="M194.76,233v2.55a22.94,22.94,0,0,1-3,.22q-6,0-6-6.28V217h-3.67v-2.52h3.67l.15-5.21,3-.29v5.5h4.64V217h-4.64v13q0,3.19,3.32,3.2A14.89,14.89,0,0,0,194.76,233Z"/><path class="cls-1" d="M211.24,229l3,.61A8.45,8.45,0,0,1,211,234a9.29,9.29,0,0,1-5.6,1.73,8.71,8.71,0,0,1-6.87-3,13.07,13.07,0,0,1,.1-15.83,8.81,8.81,0,0,1,6.85-3.05,8.27,8.27,0,0,1,6.53,2.81c1.65,1.87,2.5,4.68,2.54,8.41H199.53q0,4.69,2,6.34a6.45,6.45,0,0,0,4.17,1.64Q209.62,233.11,211.24,229Zm-.18-6.3a9.25,9.25,0,0,0-.57-3.1,5.27,5.27,0,0,0-1.81-2.3,4.93,4.93,0,0,0-3.05-1,5.49,5.49,0,0,0-4.08,1.73,7.08,7.08,0,0,0-1.87,4.63Z"/><path class="cls-1" d="M247.17,235.2H244V222.32a12.07,12.07,0,0,0-.28-3,3.57,3.57,0,0,0-1.34-1.83,3.82,3.82,0,0,0-2.4-.83,5.06,5.06,0,0,0-3.56,1.69,7,7,0,0,0-1.71,5.16V235.2h-3.12V221.56a4.89,4.89,0,0,0-1.3-3.85,4.1,4.1,0,0,0-2.74-1.13,4.59,4.59,0,0,0-3.57,1.76,6.63,6.63,0,0,0-1.52,4.47V235.2h-3.07V214.49h2.77v4c1.54-3,3.67-4.55,6.37-4.55a5.38,5.38,0,0,1,3.8,1.46,6.64,6.64,0,0,1,2,3.51q2.13-5,6.54-5a6,6,0,0,1,3.7,1.21,5.6,5.6,0,0,1,2.07,2.78,15.85,15.85,0,0,1,.48,4.42Z"/><path class="cls-1" d="M267.29,229l3,.61a8.5,8.5,0,0,1-3.2,4.4,9.29,9.29,0,0,1-5.6,1.73,8.71,8.71,0,0,1-6.87-3,13,13,0,0,1,.1-15.83,8.81,8.81,0,0,1,6.85-3.05,8.27,8.27,0,0,1,6.53,2.81c1.65,1.87,2.49,4.68,2.54,8.41H255.58q0,4.69,2,6.34a6.42,6.42,0,0,0,4.16,1.64Q265.67,233.11,267.29,229Zm-.18-6.3a9,9,0,0,0-.58-3.1,5.18,5.18,0,0,0-1.8-2.3,4.94,4.94,0,0,0-3.06-1,5.47,5.47,0,0,0-4.07,1.73,7.08,7.08,0,0,0-1.87,4.63Z"/><path class="cls-1" d="M278.7,235.2h-3.22V214.49h2.83v4.84q1.49-3.44,3-4.44a5.43,5.43,0,0,1,3.09-1c.32,0,.75,0,1.27.08V217H285a5.66,5.66,0,0,0-4.43,2,8.08,8.08,0,0,0-1.88,5.23Z"/></svg>