<svg id="Layer_1" data-name="Layer 1" xmlns="http://www.w3.org/2000/svg" viewBox="0 0 980 300"><defs><style>.cls-1{fill:#fff;}</style></defs><title>text</title><path class="cls-1" d="M52.49,86.49H49V73.16H36V86.49H32.5v-28H36V70.08H49V58.49h3.5Z"/><path class="cls-1" d="M74.37,65.77,67.21,86.49H63.89L56.47,65.77H60l5.77,16.84,5.7-16.84Z"/><path class="cls-1" d="M81.43,58.49v3.59H78V58.49Zm-.1,7.28V86.49H78.11V65.77Z"/><path class="cls-1" d="M91,86.49H87.75v-28H91Z"/><path class="cls-1" d="M114.51,86.49h-3.34l-6-11.57-4.5,5.17v6.4H97.4v-28h3.22V76.44l9.63-10.67h3.44l-6.47,7.28Z"/><path class="cls-1" d="M131.2,80.31l3,.62a8.48,8.48,0,0,1-3.2,4.39,9.25,9.25,0,0,1-5.6,1.74,8.71,8.71,0,0,1-6.87-3,11.47,11.47,0,0,1-2.63-7.84,11.53,11.53,0,0,1,2.73-8,8.81,8.81,0,0,1,6.85-3A8.28,8.28,0,0,1,132,68c1.65,1.87,2.49,4.68,2.53,8.41h-15q0,4.69,2,6.33a6.38,6.38,0,0,0,4.16,1.65Q129.58,84.4,131.2,80.31ZM131,74a9,9,0,0,0-.58-3.1,5.26,5.26,0,0,0-1.8-2.31,5,5,0,0,0-3.06-1,5.49,5.49,0,0,0-4.07,1.72A7.13,7.13,0,0,0,119.64,74Z"/><path class="cls-1" d="M148.57,84.29v2.55a22.8,22.8,0,0,1-2.95.22q-6,0-6-6.28V68.3h-3.67V65.77h3.67l.14-5.2,3-.29v5.49h4.63V68.3h-4.63v13c0,2.13,1.1,3.2,3.32,3.2A15.89,15.89,0,0,0,148.57,84.29Z"/><path class="cls-1" d="M179.66,77.07l3.2.72q-2.3,9.27-10.38,9.27a9.63,9.63,0,0,1-8.33-4.29,17.81,17.81,0,0,1-3-10.55q0-6.47,3.16-10.38a10.33,10.33,0,0,1,8.47-3.92q7.88,0,10.11,9l-3.3.66q-1.8-6.69-6.83-6.69A6.49,6.49,0,0,0,167,64q-2,3.1-2,8.73A14.49,14.49,0,0,0,167,81a6.4,6.4,0,0,0,5.54,3.11Q177.91,84.09,179.66,77.07Z"/><path class="cls-1" d="M214.24,86.49h-3.41V62l-9.08,24.45h-2.38L190.18,62V86.49h-3v-28h5.19l8.46,22.39,8.25-22.39h5.13Z"/><path class="cls-1" d="M218.16,79.08l3.15-.71q1.91,5.72,8.27,5.72a7.63,7.63,0,0,0,5-1.41,4.68,4.68,0,0,0,1.68-3.78A3.59,3.59,0,0,0,235,76a7,7,0,0,0-3-1.5l-5.6-1.38a14.43,14.43,0,0,1-3.56-1.35,6.55,6.55,0,0,1-2.35-2.43,7.33,7.33,0,0,1-1-3.76A6.75,6.75,0,0,1,222.2,60,10.61,10.61,0,0,1,229,57.92q7.64,0,10,6.91l-3.18.94a5.61,5.61,0,0,0-2.6-3.72,8.21,8.21,0,0,0-4.37-1.26A7.11,7.11,0,0,0,224.77,62a3.9,3.9,0,0,0-1.8,3.44q0,3.1,4.55,4.2l5.24,1.23q7.17,1.73,7.17,7.73a7.74,7.74,0,0,1-2.69,6q-2.7,2.41-7.6,2.41Q220.94,87.06,218.16,79.08Z"/><path class="cls-1" d="M29.42,131.51l3.08-.63q1,3.92,6.48,3.92a6.05,6.05,0,0,0,3.4-.91,2.85,2.85,0,0,0,1.4-2.54c0-1.62-1.19-2.65-3.55-3.09l-4.37-.83a7.94,7.94,0,0,1-4.08-1.92,5,5,0,0,1-1.52-3.8,5.5,5.5,0,0,1,2.07-4.36,8.34,8.34,0,0,1,5.58-1.75q6.75,0,8.33,5.27l-3,.64c-.84-2.16-2.59-3.24-5.22-3.24a5.86,5.86,0,0,0-3.23.81,2.52,2.52,0,0,0-1.27,2.26q0,2.3,3.23,2.89l4,.72q6.34,1.15,6.34,6.14a5.51,5.51,0,0,1-2.36,4.62,10.25,10.25,0,0,1-6.27,1.75Q31.16,137.46,29.42,131.51Z"/><path class="cls-1" d="M68.8,136.89H65.46L59.4,125.32l-4.49,5.17v6.4H51.69v-28h3.22v18l9.62-10.67H68l-6.47,7.28Z"/><path class="cls-1" d="M88.61,136.89H85.43c-.12-.66-.25-1.9-.37-3.74a7.45,7.45,0,0,1-7.26,4.31,7.25,7.25,0,0,1-5.35-1.85,6,6,0,0,1-1.87-4.43A6.22,6.22,0,0,1,73.25,126c1.77-1.35,4.8-2,9.06-2,.58,0,1.49,0,2.75.08a12,12,0,0,0-.38-3.56,3.17,3.17,0,0,0-1.61-1.75,6.85,6.85,0,0,0-3.24-.66c-3.27,0-5.17,1.25-5.7,3.73l-3-.51q1.09-5.71,9.15-5.72,4.29,0,6.08,1.9t1.8,6.57v8.8A17.39,17.39,0,0,0,88.61,136.89Zm-3.55-10.36q-2-.12-3-.12a11.72,11.72,0,0,0-5.92,1.25A4,4,0,0,0,74,131.32a3.43,3.43,0,0,0,1.13,2.59,4.66,4.66,0,0,0,3.3,1.07,6.1,6.1,0,0,0,4.78-2.12,7.22,7.22,0,0,0,1.88-5C85.12,127.5,85.1,127.05,85.06,126.53Z"/><path class="cls-1" d="M97.84,136.89H94.62v-28h3.22Z"/><path class="cls-1" d="M131,108.89v28H128v-3.55a7,7,0,0,1-6.55,4.12,7.2,7.2,0,0,1-6-3.05,12.28,12.28,0,0,1-2.34-7.7,13.14,13.14,0,0,1,2.31-7.94,7.28,7.28,0,0,1,6.16-3.17,7.15,7.15,0,0,1,6.09,3.4V108.89Zm-3.22,15.28a5.87,5.87,0,0,0-1.67-4.37,5.33,5.33,0,0,0-3.87-1.64,4.68,4.68,0,0,0-4,2.14,10,10,0,0,0-1.55,6,11.6,11.6,0,0,0,1.43,6.34,4.44,4.44,0,0,0,3.9,2.18,5.24,5.24,0,0,0,4-1.89,6.37,6.37,0,0,0,1.73-4.43Z"/><path class="cls-1" d="M153.7,136.89h-2.91v-4q-2.22,4.53-6.6,4.53a6.26,6.26,0,0,1-5-2.09,8.83,8.83,0,0,1-1.81-6V116.17h3.21V129.4c0,2,.43,3.46,1.29,4.24a4.11,4.11,0,0,0,2.82,1.16,4.8,4.8,0,0,0,2.82-.89,6.67,6.67,0,0,0,2.1-2.51,7.66,7.66,0,0,0,.84-3.56V116.17h3.22Z"/><path class="cls-1" d="M185.81,116.17l-7.16,20.72h-3.32l-7.42-20.72h3.57L177.25,133l5.7-16.84Z"/><path class="cls-1" d="M202.59,130.71l3,.62a8.37,8.37,0,0,1-3.2,4.39,9.2,9.2,0,0,1-5.59,1.74,8.71,8.71,0,0,1-6.87-3,13,13,0,0,1,.1-15.83,8.81,8.81,0,0,1,6.85-3.05,8.28,8.28,0,0,1,6.53,2.81c1.65,1.87,2.49,4.68,2.53,8.41H190.88q0,4.69,2,6.33A6.38,6.38,0,0,0,197,134.8Q201,134.8,202.59,130.71Zm-.18-6.29a9,9,0,0,0-.58-3.1A5.33,5.33,0,0,0,200,119a5,5,0,0,0-3.06-1,5.48,5.48,0,0,0-4.07,1.72,7.19,7.19,0,0,0-1.88,4.64Z"/><path class="cls-1" d="M214,136.89h-3.22v-28H214Z"/><path class="cls-1" d="M237.35,112.93v2.57a5.77,5.77,0,0,0-3,.51,2.74,2.74,0,0,0-1,1.85,7.47,7.47,0,0,1,2,5,6.43,6.43,0,0,1-2.16,4.86,8.19,8.19,0,0,1-5.82,2,7.2,7.2,0,0,1-1.41-.12,10.73,10.73,0,0,0-1.42-.23,2.43,2.43,0,0,0-1.33.55,1.64,1.64,0,0,0-.78,1.4,1.53,1.53,0,0,0,1.13,1.6,24.33,24.33,0,0,0,5.31.47,30.67,30.67,0,0,1,5.24.48,5.36,5.36,0,0,1,2.86,1.69,4.58,4.58,0,0,1,1.17,3.18q0,5.94-10.42,5.93c-3.29,0-5.7-.5-7.21-1.49a4.54,4.54,0,0,1-2.26-4,4.17,4.17,0,0,1,3.16-4.15,3.9,3.9,0,0,1-2-3.34c0-1.6,1-2.82,2.87-3.67a6.76,6.76,0,0,1-2.69-5.47,6.34,6.34,0,0,1,2.3-5,8.31,8.31,0,0,1,5.6-2,10,10,0,0,1,4.24.88,4,4,0,0,1,1.43-2.81,5.94,5.94,0,0,1,3.39-.78Zm-13.7,23.12c-1.5.65-2.26,1.6-2.26,2.85a2.7,2.7,0,0,0,1.86,2.45,11.16,11.16,0,0,0,4.73.87,15.18,15.18,0,0,0,4.88-.75c1.47-.5,2.21-1.34,2.21-2.53a2.1,2.1,0,0,0-.65-1.58,3.25,3.25,0,0,0-1.8-.78c-.76-.11-2.08-.19-4-.25C226.4,136.28,224.73,136.18,223.65,136.05Zm3.86-8.76a4.59,4.59,0,0,0,3.34-1.26,4.37,4.37,0,0,0,1.29-3.27,4.51,4.51,0,0,0-4.59-4.66,4.82,4.82,0,0,0-3.24,1.22,4.89,4.89,0,0,0-.15,6.73A4.59,4.59,0,0,0,227.51,127.29Z"/><path class="cls-1" d="M254.74,130.71l3,.62a8.4,8.4,0,0,1-3.19,4.39,9.25,9.25,0,0,1-5.6,1.74,8.71,8.71,0,0,1-6.87-3,13,13,0,0,1,.1-15.83A8.81,8.81,0,0,1,249,115.6a8.28,8.28,0,0,1,6.53,2.81c1.65,1.87,2.49,4.68,2.53,8.41H243q0,4.69,2,6.33a6.38,6.38,0,0,0,4.16,1.65Q253.12,134.8,254.74,130.71Zm-.18-6.29a9,9,0,0,0-.58-3.1,5.33,5.33,0,0,0-1.8-2.31,5,5,0,0,0-3.06-1,5.48,5.48,0,0,0-4.07,1.72,7.19,7.19,0,0,0-1.88,4.64Z"/><path class="cls-1" d="M282,116.17v2.53h-4.93v18.19h-3.22V118.7h-3.52v-2.53h3.52q.09-5,1.92-6.41a7,7,0,0,1,4.48-1.44,17.85,17.85,0,0,1,3,.29v2.56a8,8,0,0,0-2-.27,4.47,4.47,0,0,0-3.13.94c-.68.62-1,1.78-1,3.49v.84Z"/><path class="cls-1" d="M292.48,137.46a7.86,7.86,0,0,1-6.66-3.16,12.65,12.65,0,0,1-2.39-7.84,11.29,11.29,0,0,1,2.69-7.9,8.67,8.67,0,0,1,6.68-3,8.18,8.18,0,0,1,6.76,3.11,12.07,12.07,0,0,1,2.47,7.77,11.64,11.64,0,0,1-2.66,7.91A8.7,8.7,0,0,1,292.48,137.46Zm.24-2.66a5.12,5.12,0,0,0,4.12-2c1.11-1.36,1.66-3.46,1.66-6.32s-.58-5-1.74-6.25a5.32,5.32,0,0,0-4.08-1.93,5.14,5.14,0,0,0-4.06,2q-1.67,2-1.66,6.21c0,3,.55,5.14,1.66,6.43A5.2,5.2,0,0,0,292.72,134.8Z"/><path class="cls-1" d="M310.09,136.89h-3.22V116.17h2.83V121q1.5-3.42,3-4.44a5.48,5.48,0,0,1,3.08-1c.33,0,.75,0,1.27.08v3.08h-.65a5.65,5.65,0,0,0-4.43,2,8,8,0,0,0-1.89,5.23Z"/><path class="cls-1" d="M48.39,159.29v28H45.48v-3.55a7,7,0,0,1-6.55,4.12,7.2,7.2,0,0,1-6-3.05,12.28,12.28,0,0,1-2.34-7.7,13.08,13.08,0,0,1,2.32-7.94A7.25,7.25,0,0,1,39.08,166a7.14,7.14,0,0,1,6.09,3.4V159.29Zm-3.22,15.28a5.86,5.86,0,0,0-1.66-4.37,5.37,5.37,0,0,0-3.88-1.64,4.67,4.67,0,0,0-3.94,2.14,10,10,0,0,0-1.55,6A11.59,11.59,0,0,0,35.56,183a4.46,4.46,0,0,0,3.91,2.18,5.26,5.26,0,0,0,4-1.89,6.36,6.36,0,0,0,1.72-4.43Z"/><path class="cls-1" d="M58.15,159.29v3.59H54.69v-3.59Zm-.1,7.28v20.72H54.83V166.57Z"/><path class="cls-1" d="M73.86,185.09v2.55a22.8,22.8,0,0,1-3,.22q-6,0-6-6.28V169.1H61.23v-2.53H64.9l.14-5.2,3-.29v5.49h4.63v2.53H68v13q0,3.19,3.32,3.2A15.89,15.89,0,0,0,73.86,185.09Z"/><path class="cls-1" d="M86.78,185.09v2.55a22.8,22.8,0,0,1-3,.22q-6,0-6-6.28V169.1H74.15v-2.53h3.67l.14-5.2,3-.29v5.49h4.63v2.53H81v13c0,2.13,1.1,3.2,3.32,3.2A15.89,15.89,0,0,0,86.78,185.09Z"/><path class="cls-1" d="M117,159.29v28h-2.91v-3.55a7,7,0,0,1-6.55,4.12,7.2,7.2,0,0,1-6-3.05,12.28,12.28,0,0,1-2.34-7.7,13.08,13.08,0,0,1,2.32-7.94,7.25,7.25,0,0,1,6.15-3.17,7.14,7.14,0,0,1,6.09,3.4V159.29Zm-3.22,15.28a5.86,5.86,0,0,0-1.66-4.37,5.37,5.37,0,0,0-3.88-1.64,4.67,4.67,0,0,0-3.94,2.14,10,10,0,0,0-1.55,6,11.59,11.59,0,0,0,1.42,6.33,4.45,4.45,0,0,0,3.91,2.18,5.26,5.26,0,0,0,4-1.89,6.36,6.36,0,0,0,1.72-4.43Z"/><path class="cls-1" d="M126.75,159.29v3.59h-3.46v-3.59Zm-.1,7.28v20.72h-3.22V166.57Z"/><path class="cls-1" d="M150,163.33v2.57a5.84,5.84,0,0,0-3,.51,2.7,2.7,0,0,0-1,1.85,7.52,7.52,0,0,1,2,5,6.4,6.4,0,0,1-2.17,4.86,8.16,8.16,0,0,1-5.81,2,7.13,7.13,0,0,1-1.41-.12,11,11,0,0,0-1.42-.23,2.43,2.43,0,0,0-1.33.55,1.64,1.64,0,0,0-.78,1.4,1.52,1.52,0,0,0,1.13,1.6,24.33,24.33,0,0,0,5.31.47,30.79,30.79,0,0,1,5.24.48,5.41,5.41,0,0,1,2.86,1.68,4.62,4.62,0,0,1,1.17,3.19q0,5.94-10.42,5.93c-3.3,0-5.7-.49-7.21-1.49a4.55,4.55,0,0,1-2.27-4,4.19,4.19,0,0,1,3.16-4.15,3.91,3.91,0,0,1-2-3.34q0-2.4,2.87-3.67a6.73,6.73,0,0,1-2.68-5.47,6.33,6.33,0,0,1,2.29-5,8.34,8.34,0,0,1,5.6-2,10,10,0,0,1,4.25.88,4,4,0,0,1,1.42-2.81,6,6,0,0,1,3.4-.78Zm-13.7,23.12c-1.51.65-2.26,1.6-2.26,2.85a2.7,2.7,0,0,0,1.86,2.45,11.15,11.15,0,0,0,4.72.87,15.2,15.2,0,0,0,4.89-.75c1.47-.5,2.21-1.34,2.21-2.53a2.07,2.07,0,0,0-.66-1.58,3.19,3.19,0,0,0-1.79-.78c-.76-.11-2.08-.19-4-.25C139,186.68,137.37,186.58,136.29,186.45Zm3.85-8.76a4.61,4.61,0,0,0,3.35-1.26,4.37,4.37,0,0,0,1.29-3.27,4.53,4.53,0,0,0-4.6-4.66,4.86,4.86,0,0,0-3.24,1.22,4.9,4.9,0,0,0-.14,6.73A4.57,4.57,0,0,0,140.14,177.69Z"/><path class="cls-1" d="M157,159.29v3.59h-3.46v-3.59Zm-.1,7.28v20.72H153.7V166.57Z"/><path class="cls-1" d="M172.73,185.09v2.55a22.93,22.93,0,0,1-2.95.22q-6,0-6-6.28V169.1H160.1v-2.53h3.67l.14-5.2,3-.29v5.49h4.63v2.53h-4.63v13c0,2.13,1.1,3.2,3.32,3.2A15.89,15.89,0,0,0,172.73,185.09Z"/><path class="cls-1" d="M192.46,187.29h-3.18c-.12-.66-.25-1.9-.37-3.73a7.45,7.45,0,0,1-7.26,4.3A7.25,7.25,0,0,1,176.3,186a6,6,0,0,1-1.87-4.43,6.22,6.22,0,0,1,2.67-5.17q2.67-2,9.06-2c.58,0,1.49,0,2.75.08a12,12,0,0,0-.38-3.56,3.17,3.17,0,0,0-1.61-1.75,6.85,6.85,0,0,0-3.24-.66c-3.27,0-5.17,1.25-5.7,3.73l-3-.51q1.08-5.72,9.14-5.72,4.29,0,6.08,1.9t1.8,6.57v8.8A17.39,17.39,0,0,0,192.46,187.29Zm-3.55-10.36c-1.31-.08-2.31-.12-3-.12a11.73,11.73,0,0,0-5.93,1.25,4,4,0,0,0-2.11,3.66,3.41,3.41,0,0,0,1.14,2.59,4.62,4.62,0,0,0,3.29,1.07,6.14,6.14,0,0,0,4.79-2.12,7.25,7.25,0,0,0,1.87-5C189,177.9,189,177.45,188.91,176.93Z"/><path class="cls-1" d="M201.69,187.29h-3.22v-28h3.22Z"/><path class="cls-1" d="M221.8,181.11l3,.62a8.42,8.42,0,0,1-3.2,4.39,9.23,9.23,0,0,1-5.6,1.74,8.71,8.71,0,0,1-6.87-3,13.07,13.07,0,0,1,.1-15.83,8.81,8.81,0,0,1,6.85-3.05,8.3,8.3,0,0,1,6.54,2.81c1.64,1.87,2.49,4.68,2.53,8.41H210.09q0,4.69,2,6.34a6.45,6.45,0,0,0,4.17,1.64C218.87,185.2,220.72,183.84,221.8,181.11Zm-.18-6.29a9.2,9.2,0,0,0-.57-3.1,5.27,5.27,0,0,0-1.81-2.3,4.91,4.91,0,0,0-3.05-1,5.48,5.48,0,0,0-4.07,1.72,7.14,7.14,0,0,0-1.88,4.64Z"/><path class="cls-1" d="M35.43,244.68H32.21V217h2.91v4q2.19-4.59,6.54-4.59a7,7,0,0,1,5.91,3.07,14.79,14.79,0,0,1-.06,15.81,7.21,7.21,0,0,1-5.95,3,6.86,6.86,0,0,1-6.13-3.71Zm0-20.34v5.84a6.17,6.17,0,0,0,2,3.88,5.19,5.19,0,0,0,3.51,1.54,4.9,4.9,0,0,0,3.74-1.85q1.63-1.84,1.63-6.38a10.47,10.47,0,0,0-1.48-6,4.56,4.56,0,0,0-3.91-2.12,4.81,4.81,0,0,0-3.46,1.5A7.19,7.19,0,0,0,35.43,224.34Z"/><path class="cls-1" d="M57.87,237.69H54.65V217h2.83v4.84c1-2.28,2-3.76,3-4.44a5.52,5.52,0,0,1,3.09-1c.33,0,.75,0,1.27.08v3.08h-.66a5.66,5.66,0,0,0-4.43,2,8.08,8.08,0,0,0-1.88,5.23Z"/><path class="cls-1" d="M75.15,238.26a7.85,7.85,0,0,1-6.65-3.16,12.65,12.65,0,0,1-2.39-7.84,11.29,11.29,0,0,1,2.69-7.9,8.67,8.67,0,0,1,6.68-3,8.18,8.18,0,0,1,6.76,3.11,12.07,12.07,0,0,1,2.47,7.77A11.6,11.6,0,0,1,82,235.19,8.68,8.68,0,0,1,75.15,238.26Zm.25-2.66a5.13,5.13,0,0,0,4.12-2c1.11-1.36,1.66-3.46,1.66-6.32s-.58-4.95-1.74-6.25a5.32,5.32,0,0,0-4.08-1.93,5.14,5.14,0,0,0-4.06,2q-1.67,2-1.66,6.21,0,4.49,1.66,6.43A5.2,5.2,0,0,0,75.4,235.6Z"/><path class="cls-1" d="M86.76,232.31l3.08-.63q1,3.91,6.48,3.92a6.05,6.05,0,0,0,3.4-.91,2.85,2.85,0,0,0,1.4-2.54c0-1.62-1.19-2.65-3.55-3.09l-4.37-.83a8,8,0,0,1-4.08-1.92,5,5,0,0,1-1.52-3.8,5.49,5.49,0,0,1,2.07-4.36,8.34,8.34,0,0,1,5.58-1.75q6.75,0,8.33,5.27l-3,.64c-.84-2.16-2.59-3.24-5.22-3.24a5.86,5.86,0,0,0-3.23.81,2.52,2.52,0,0,0-1.27,2.26q0,2.3,3.23,2.89l4,.72q6.34,1.16,6.34,6.14a5.51,5.51,0,0,1-2.36,4.62,10.25,10.25,0,0,1-6.27,1.75Q88.51,238.26,86.76,232.31Z"/><path class="cls-1" d="M112.25,216.75v21.57c0,2.44-.58,4.13-1.73,5.09a6.42,6.42,0,0,1-4.24,1.43,13,13,0,0,1-3-.43v-2.54a10.35,10.35,0,0,0,2.36.31,3.36,3.36,0,0,0,2.61-.87,4.44,4.44,0,0,0,.79-3V216.75Zm.17-7.06v3.59h-3.65v-3.59Z"/><path class="cls-1" d="M132.33,231.51l3,.62a8.37,8.37,0,0,1-3.2,4.39,9.2,9.2,0,0,1-5.59,1.74,8.68,8.68,0,0,1-6.87-3,13,13,0,0,1,.1-15.82,8.81,8.81,0,0,1,6.85-3,8.29,8.29,0,0,1,6.53,2.81c1.65,1.87,2.49,4.68,2.53,8.41h-15q0,4.69,2,6.33a6.38,6.38,0,0,0,4.16,1.65C129.39,235.6,131.25,234.23,132.33,231.51Zm-.18-6.29a9,9,0,0,0-.58-3.1,5.33,5.33,0,0,0-1.8-2.31,5,5,0,0,0-3.06-.95,5.48,5.48,0,0,0-4.07,1.72,7.19,7.19,0,0,0-1.88,4.64Z"/><path class="cls-1" d="M157.62,237.69h-3.34l-6.06-11.57-4.49,5.17v6.4h-3.22v-28h3.22v17.95L153.35,217h3.44l-6.47,7.28Z"/><path class="cls-1" d="M171,235.49V238a22.94,22.94,0,0,1-3,.22q-6,0-6-6.28V219.5h-3.67V217H162l.15-5.2,3-.29V217h4.64v2.53h-4.64v13q0,3.19,3.32,3.2A16,16,0,0,0,171,235.49Z"/><path class="cls-1" d="M182.27,230.71h-3c0-2.13.05-3.46.1-4a4.41,4.41,0,0,1,.44-1.58,3.83,3.83,0,0,1,.83-1.23,11.93,11.93,0,0,1,2.18-1.41,20,20,0,0,0,2.58-1.63,5.18,5.18,0,0,0,1.75-3.89,4.42,4.42,0,0,0-1.69-3.67,6.31,6.31,0,0,0-4-1.33q-5.2,0-6.36,6l-3.06-.66q1.54-8.26,9.58-8.26a9.64,9.64,0,0,1,6.63,2.24,7.37,7.37,0,0,1,2.52,5.76q0,4.57-5.25,7.3a9.57,9.57,0,0,0-2.81,1.9,3.59,3.59,0,0,0-.51,2.14Zm.69,2.94v4h-4.14v-4Z"/></svg>