<svg id="Layer_1" data-name="Layer 1" xmlns="http://www.w3.org/2000/svg" viewBox="0 0 980 300"><defs><style>.cls-1{fill:#fff;}</style></defs><title>text</title><path class="cls-1" d="M67.49,162.49H64V149.16H51v13.33H47.5v-28H51v11.59H64V134.49h3.5Z"/><path class="cls-1" d="M89.37,141.77l-7.16,20.72H78.89l-7.42-20.72H75l5.77,16.84,5.7-16.84Z"/><path class="cls-1" d="M96.43,134.49v3.59H93v-3.59Zm-.1,7.28v20.72H93.11V141.77Z"/><path class="cls-1" d="M106,162.49h-3.22v-28H106Z"/><path class="cls-1" d="M129.51,162.49h-3.34l-6-11.57-4.5,5.17v6.4H112.4v-28h3.22v17.95l9.63-10.67h3.44l-6.47,7.28Z"/><path class="cls-1" d="M146.2,156.31l3,.62a8.48,8.48,0,0,1-3.2,4.39,9.25,9.25,0,0,1-5.6,1.74,8.71,8.71,0,0,1-6.87-3,13,13,0,0,1,.1-15.83,8.81,8.81,0,0,1,6.85-3.05A8.28,8.28,0,0,1,147,144c1.65,1.87,2.49,4.68,2.53,8.41h-15q0,4.7,2,6.33a6.38,6.38,0,0,0,4.16,1.65Q144.58,160.4,146.2,156.31ZM146,150a9,9,0,0,0-.58-3.1,5.26,5.26,0,0,0-1.8-2.31,5,5,0,0,0-3.06-1,5.49,5.49,0,0,0-4.07,1.72,7.13,7.13,0,0,0-1.87,4.64Z"/><path class="cls-1" d="M163.57,160.29v2.55a22.8,22.8,0,0,1-2.95.22q-6,0-6-6.28V144.3h-3.67v-2.53h3.67l.14-5.2,3-.29v5.49h4.63v2.53h-4.63v13c0,2.13,1.1,3.2,3.32,3.2A15.89,15.89,0,0,0,163.57,160.29Z"/><path class="cls-1" d="M194.66,153.07l3.2.72q-2.3,9.27-10.38,9.27a9.63,9.63,0,0,1-8.33-4.29,17.81,17.81,0,0,1-3-10.55q0-6.47,3.16-10.38a10.33,10.33,0,0,1,8.47-3.92q7.88,0,10.11,9l-3.3.66q-1.8-6.69-6.83-6.69A6.49,6.49,0,0,0,182,140q-2,3.1-2,8.73A14.49,14.49,0,0,0,182,157a6.4,6.4,0,0,0,5.54,3.11Q192.91,160.09,194.66,153.07Z"/><path class="cls-1" d="M229.24,162.49h-3.41V138l-9.08,24.45h-2.38L205.18,138v24.45h-3v-28h5.19l8.46,22.39,8.25-22.39h5.13Z"/><path class="cls-1" d="M233.16,155.08l3.15-.71q1.91,5.72,8.27,5.72a7.63,7.63,0,0,0,5-1.41,4.68,4.68,0,0,0,1.68-3.78A3.59,3.59,0,0,0,250,152a7,7,0,0,0-3-1.5l-5.6-1.38a14.43,14.43,0,0,1-3.56-1.35,6.55,6.55,0,0,1-2.35-2.43,7.33,7.33,0,0,1-1-3.76,6.75,6.75,0,0,1,2.65-5.6,10.61,10.61,0,0,1,6.78-2.08q7.64,0,10,6.91l-3.18.94a5.61,5.61,0,0,0-2.6-3.72,8.21,8.21,0,0,0-4.37-1.26,7.11,7.11,0,0,0-4.09,1.22,3.9,3.9,0,0,0-1.8,3.44q0,3.11,4.55,4.2l5.24,1.23q7.17,1.73,7.17,7.73a7.74,7.74,0,0,1-2.69,6q-2.7,2.41-7.6,2.41Q235.94,163.06,233.16,155.08Z"/><path class="cls-1" d="M267.57,157.11l3.07-.63q1,3.92,6.48,3.92a6.09,6.09,0,0,0,3.41-.91,2.84,2.84,0,0,0,1.39-2.54q0-2.43-3.55-3.09L274,153a7.94,7.94,0,0,1-4.08-1.92,5,5,0,0,1-1.52-3.8,5.5,5.5,0,0,1,2.07-4.36,8.34,8.34,0,0,1,5.58-1.75q6.75,0,8.32,5.27l-2.95.64q-1.28-3.24-5.23-3.24a5.88,5.88,0,0,0-3.23.81,2.53,2.53,0,0,0-1.26,2.26q0,2.3,3.22,2.89l4,.72q6.33,1.15,6.34,6.14a5.51,5.51,0,0,1-2.36,4.62,10.28,10.28,0,0,1-6.28,1.75Q269.3,163.06,267.57,157.11Z"/><path class="cls-1" d="M306.94,162.49H303.6l-6.05-11.57-4.49,5.17v6.4h-3.22v-28h3.22v17.95l9.62-10.67h3.44l-6.47,7.28Z"/><path class="cls-1" d="M326.75,162.49h-3.18c-.12-.66-.24-1.9-.36-3.74a7.47,7.47,0,0,1-7.26,4.31,7.27,7.27,0,0,1-5.36-1.85,6,6,0,0,1-1.86-4.43,6.24,6.24,0,0,1,2.66-5.17q2.67-2,9.07-2c.57,0,1.49,0,2.75.08a12,12,0,0,0-.38-3.56,3.2,3.2,0,0,0-1.61-1.75,6.85,6.85,0,0,0-3.24-.66c-3.27,0-5.17,1.25-5.71,3.73l-3-.51c.73-3.81,3.77-5.72,9.15-5.72q4.28,0,6.08,1.9t1.79,6.57v8.8A18,18,0,0,0,326.75,162.49Zm-3.54-10.36q-2-.12-3-.12a11.76,11.76,0,0,0-5.93,1.25,4,4,0,0,0-2.11,3.66,3.41,3.41,0,0,0,1.14,2.59,4.65,4.65,0,0,0,3.29,1.07,6.12,6.12,0,0,0,4.79-2.12,7.26,7.26,0,0,0,1.88-5C323.27,153.1,323.25,152.65,323.21,152.13Z"/><path class="cls-1" d="M336,162.49h-3.22v-28H336Z"/><path class="cls-1" d="M369.1,134.49v28h-2.91v-3.55a7,7,0,0,1-6.55,4.12,7.2,7.2,0,0,1-6-3.05,12.28,12.28,0,0,1-2.34-7.7,13.08,13.08,0,0,1,2.32-7.94,7.25,7.25,0,0,1,6.15-3.17,7.14,7.14,0,0,1,6.09,3.4V134.49Zm-3.22,15.28a5.86,5.86,0,0,0-1.66-4.37,5.37,5.37,0,0,0-3.88-1.64,4.68,4.68,0,0,0-3.94,2.14,10,10,0,0,0-1.55,6,11.61,11.61,0,0,0,1.42,6.34,4.46,4.46,0,0,0,3.91,2.18,5.26,5.26,0,0,0,4-1.89,6.36,6.36,0,0,0,1.72-4.43Z"/><path class="cls-1" d="M391.84,162.49h-2.91v-4q-2.21,4.53-6.59,4.53a6.27,6.27,0,0,1-5-2.09,8.83,8.83,0,0,1-1.81-6V141.77h3.22V155c0,2.05.43,3.46,1.28,4.24a4.15,4.15,0,0,0,2.82,1.16,4.8,4.8,0,0,0,2.82-.89,6.67,6.67,0,0,0,2.1-2.51,7.66,7.66,0,0,0,.84-3.56V141.77h3.22Z"/><path class="cls-1" d="M424,141.77l-7.16,20.72h-3.32l-7.42-20.72h3.57l5.77,16.84,5.7-16.84Z"/><path class="cls-1" d="M440.73,156.31l3,.62a8.42,8.42,0,0,1-3.2,4.39,9.23,9.23,0,0,1-5.6,1.74,8.71,8.71,0,0,1-6.87-3,13.07,13.07,0,0,1,.1-15.83A8.81,8.81,0,0,1,435,141.2a8.27,8.27,0,0,1,6.53,2.81c1.65,1.87,2.5,4.68,2.54,8.41H429q0,4.7,2,6.33a6.41,6.41,0,0,0,4.17,1.65Q439.11,160.4,440.73,156.31Zm-.18-6.29a9.2,9.2,0,0,0-.57-3.1,5.36,5.36,0,0,0-1.81-2.31,5,5,0,0,0-3.05-1,5.52,5.52,0,0,0-4.08,1.72,7.13,7.13,0,0,0-1.87,4.64Z"/><path class="cls-1" d="M452.14,162.49h-3.22v-28h3.22Z"/><path class="cls-1" d="M475.5,138.53v2.57a5.84,5.84,0,0,0-3,.51,2.7,2.7,0,0,0-1,1.85,7.52,7.52,0,0,1,2,5,6.4,6.4,0,0,1-2.17,4.86,8.16,8.16,0,0,1-5.81,2,7.31,7.31,0,0,1-1.42-.12,10.69,10.69,0,0,0-1.41-.23,2.43,2.43,0,0,0-1.33.55,1.64,1.64,0,0,0-.78,1.4,1.52,1.52,0,0,0,1.13,1.6,24.33,24.33,0,0,0,5.31.47,30.79,30.79,0,0,1,5.24.48,5.4,5.4,0,0,1,2.86,1.69,4.58,4.58,0,0,1,1.17,3.18q0,5.94-10.42,5.93-4.95,0-7.21-1.49a4.55,4.55,0,0,1-2.27-4,4.19,4.19,0,0,1,3.16-4.15,3.92,3.92,0,0,1-2-3.34q0-2.4,2.87-3.67a6.75,6.75,0,0,1-2.68-5.47,6.33,6.33,0,0,1,2.29-5,8.33,8.33,0,0,1,5.6-2,10,10,0,0,1,4.25.88,4,4,0,0,1,1.42-2.81,6,6,0,0,1,3.4-.78Zm-13.7,23.12c-1.51.65-2.26,1.6-2.26,2.85A2.7,2.7,0,0,0,461.4,167a11.12,11.12,0,0,0,4.72.87,15.1,15.1,0,0,0,4.88-.75c1.48-.5,2.22-1.34,2.22-2.53a2.07,2.07,0,0,0-.66-1.58,3.19,3.19,0,0,0-1.79-.78c-.76-.11-2.08-.19-4-.25C464.54,161.88,462.88,161.78,461.8,161.65Zm3.85-8.76a4.61,4.61,0,0,0,3.35-1.26,4.37,4.37,0,0,0,1.29-3.27,4.47,4.47,0,0,0-1.35-3.36,4.52,4.52,0,0,0-3.25-1.3,4.86,4.86,0,0,0-3.24,1.22,4.9,4.9,0,0,0-.14,6.73A4.57,4.57,0,0,0,465.65,152.89Z"/><path class="cls-1" d="M492.89,156.31l3,.62a8.42,8.42,0,0,1-3.2,4.39,9.21,9.21,0,0,1-5.6,1.74,8.71,8.71,0,0,1-6.87-3,13,13,0,0,1,.11-15.83,8.8,8.8,0,0,1,6.85-3.05A8.29,8.29,0,0,1,493.7,144c1.64,1.87,2.49,4.68,2.53,8.41H481.18c0,3.13.65,5.24,2,6.33a6.38,6.38,0,0,0,4.16,1.65Q491.27,160.4,492.89,156.31ZM492.7,150a9.2,9.2,0,0,0-.57-3.1,5.36,5.36,0,0,0-1.81-2.31,5,5,0,0,0-3.05-1,5.48,5.48,0,0,0-4.07,1.72,7.14,7.14,0,0,0-1.88,4.64Z"/><path class="cls-1" d="M520.16,141.77v2.53h-4.92v18.19H512V144.3h-3.53v-2.53H512c.06-3.32.69-5.46,1.92-6.41a7,7,0,0,1,4.48-1.44,17.74,17.74,0,0,1,3,.29v2.56a8,8,0,0,0-2-.27,4.48,4.48,0,0,0-3.12.94c-.68.62-1,1.78-1,3.49v.84Z"/><path class="cls-1" d="M530.62,163.06A7.88,7.88,0,0,1,524,159.9a12.65,12.65,0,0,1-2.38-7.84,11.29,11.29,0,0,1,2.68-7.9,8.67,8.67,0,0,1,6.69-3,8.18,8.18,0,0,1,6.76,3.11,12.13,12.13,0,0,1,2.47,7.77,11.6,11.6,0,0,1-2.67,7.91A8.69,8.69,0,0,1,530.62,163.06Zm.25-2.66a5.13,5.13,0,0,0,4.12-2c1.11-1.36,1.66-3.46,1.66-6.32s-.58-5-1.74-6.25a5.35,5.35,0,0,0-4.08-1.93,5.16,5.16,0,0,0-4.07,1.95c-1.1,1.31-1.66,3.38-1.66,6.21,0,3,.56,5.14,1.66,6.43A5.22,5.22,0,0,0,530.87,160.4Z"/><path class="cls-1" d="M548.24,162.49H545V141.77h2.83v4.84c1-2.28,2-3.76,3-4.44a5.52,5.52,0,0,1,3.09-1c.33,0,.75,0,1.27.08v3.08h-.66a5.68,5.68,0,0,0-4.43,2,8.08,8.08,0,0,0-1.88,5.23Z"/><path class="cls-1" d="M585.54,134.49v28h-2.91v-3.55a7,7,0,0,1-6.55,4.12,7.2,7.2,0,0,1-6-3.05,12.28,12.28,0,0,1-2.34-7.7,13.08,13.08,0,0,1,2.32-7.94,7.25,7.25,0,0,1,6.15-3.17,7.14,7.14,0,0,1,6.09,3.4V134.49Zm-3.22,15.28a5.86,5.86,0,0,0-1.66-4.37,5.37,5.37,0,0,0-3.88-1.64,4.67,4.67,0,0,0-3.94,2.14,10,10,0,0,0-1.55,6,11.61,11.61,0,0,0,1.42,6.34,4.46,4.46,0,0,0,3.91,2.18,5.26,5.26,0,0,0,4-1.89,6.36,6.36,0,0,0,1.72-4.43Z"/><path class="cls-1" d="M595.3,134.49v3.59h-3.46v-3.59Zm-.1,7.28v20.72H592V141.77Z"/><path class="cls-1" d="M611,160.29v2.55a22.8,22.8,0,0,1-3,.22q-6,0-6-6.28V144.3h-3.67v-2.53h3.67l.14-5.2,3-.29v5.49h4.63v2.53h-4.63v13c0,2.13,1.1,3.2,3.32,3.2A15.89,15.89,0,0,0,611,160.29Z"/><path class="cls-1" d="M623.93,160.29v2.55a22.8,22.8,0,0,1-2.95.22q-6,0-6-6.28V144.3H611.3v-2.53H615l.14-5.2,3-.29v5.49h4.63v2.53h-4.63v13c0,2.13,1.1,3.2,3.32,3.2A15.89,15.89,0,0,0,623.93,160.29Z"/><path class="cls-1" d="M654.14,134.49v28h-2.91v-3.55a7,7,0,0,1-6.55,4.12,7.2,7.2,0,0,1-6-3.05,12.28,12.28,0,0,1-2.34-7.7,13.08,13.08,0,0,1,2.32-7.94,7.25,7.25,0,0,1,6.15-3.17,7.14,7.14,0,0,1,6.09,3.4V134.49Zm-3.22,15.28a5.86,5.86,0,0,0-1.66-4.37,5.37,5.37,0,0,0-3.88-1.64,4.7,4.7,0,0,0-4,2.14,10,10,0,0,0-1.54,6,11.61,11.61,0,0,0,1.42,6.34,4.45,4.45,0,0,0,3.91,2.18,5.26,5.26,0,0,0,4-1.89,6.41,6.41,0,0,0,1.72-4.43Z"/><path class="cls-1" d="M663.9,134.49v3.59h-3.46v-3.59Zm-.1,7.28v20.72h-3.22V141.77Z"/><path class="cls-1" d="M687.14,138.53v2.57a5.84,5.84,0,0,0-3,.51,2.7,2.7,0,0,0-1,1.85,7.52,7.52,0,0,1,2,5,6.4,6.4,0,0,1-2.17,4.86,8.16,8.16,0,0,1-5.81,2,7.13,7.13,0,0,1-1.41-.12,11,11,0,0,0-1.42-.23,2.43,2.43,0,0,0-1.33.55,1.64,1.64,0,0,0-.78,1.4,1.52,1.52,0,0,0,1.13,1.6,24.33,24.33,0,0,0,5.31.47,30.79,30.79,0,0,1,5.24.48,5.4,5.4,0,0,1,2.86,1.69,4.58,4.58,0,0,1,1.17,3.18q0,5.94-10.42,5.93-4.95,0-7.21-1.49a4.55,4.55,0,0,1-2.27-4,4.19,4.19,0,0,1,3.16-4.15,3.92,3.92,0,0,1-2-3.34q0-2.4,2.87-3.67a6.75,6.75,0,0,1-2.68-5.47,6.33,6.33,0,0,1,2.29-5,8.34,8.34,0,0,1,5.6-2,10,10,0,0,1,4.25.88,4,4,0,0,1,1.42-2.81,6,6,0,0,1,3.4-.78Zm-13.7,23.12c-1.51.65-2.26,1.6-2.26,2.85A2.7,2.7,0,0,0,673,167a11.12,11.12,0,0,0,4.72.87,15.2,15.2,0,0,0,4.89-.75c1.47-.5,2.21-1.34,2.21-2.53a2.07,2.07,0,0,0-.66-1.58,3.19,3.19,0,0,0-1.79-.78c-.76-.11-2.08-.19-4-.25C676.19,161.88,674.52,161.78,673.44,161.65Zm3.85-8.76a4.61,4.61,0,0,0,3.35-1.26,4.37,4.37,0,0,0,1.29-3.27,4.53,4.53,0,0,0-4.6-4.66,4.86,4.86,0,0,0-3.24,1.22,4.9,4.9,0,0,0-.14,6.73A4.57,4.57,0,0,0,677.29,152.89Z"/><path class="cls-1" d="M694.17,134.49v3.59h-3.46v-3.59Zm-.1,7.28v20.72h-3.22V141.77Z"/><path class="cls-1" d="M709.88,160.29v2.55a22.8,22.8,0,0,1-3,.22q-6,0-6-6.28V144.3h-3.67v-2.53h3.67l.14-5.2,3-.29v5.49h4.63v2.53h-4.63v13c0,2.13,1.1,3.2,3.32,3.2A15.89,15.89,0,0,0,709.88,160.29Z"/><path class="cls-1" d="M729.61,162.49h-3.18c-.12-.66-.25-1.9-.37-3.74a7.45,7.45,0,0,1-7.26,4.31,7.25,7.25,0,0,1-5.35-1.85,6,6,0,0,1-1.87-4.43,6.22,6.22,0,0,1,2.67-5.17q2.67-2,9.06-2c.58,0,1.49,0,2.75.08a12,12,0,0,0-.38-3.56,3.17,3.17,0,0,0-1.61-1.75,6.85,6.85,0,0,0-3.24-.66c-3.27,0-5.17,1.25-5.7,3.73l-3-.51q1.08-5.71,9.14-5.72,4.29,0,6.08,1.9t1.8,6.57v8.8A17.39,17.39,0,0,0,729.61,162.49Zm-3.55-10.36c-1.31-.08-2.31-.12-3-.12a11.73,11.73,0,0,0-5.93,1.25,4,4,0,0,0-2.11,3.66,3.41,3.41,0,0,0,1.14,2.59,4.62,4.62,0,0,0,3.29,1.07,6.14,6.14,0,0,0,4.79-2.12,7.25,7.25,0,0,0,1.87-5C726.12,153.1,726.1,152.65,726.06,152.13Z"/><path class="cls-1" d="M738.84,162.49h-3.22v-28h3.22Z"/><path class="cls-1" d="M759,156.31l3,.62a8.42,8.42,0,0,1-3.2,4.39,9.23,9.23,0,0,1-5.6,1.74,8.71,8.71,0,0,1-6.87-3,13.07,13.07,0,0,1,.1-15.83,8.83,8.83,0,0,1,6.85-3.05,8.3,8.3,0,0,1,6.54,2.81c1.64,1.87,2.49,4.68,2.53,8.41h-15q0,4.7,2,6.33a6.41,6.41,0,0,0,4.17,1.65Q757.34,160.4,759,156.31Zm-.19-6.29a9.2,9.2,0,0,0-.57-3.1,5.36,5.36,0,0,0-1.81-2.31,5,5,0,0,0-3-1,5.48,5.48,0,0,0-4.07,1.72,7.14,7.14,0,0,0-1.88,4.64Z"/><path class="cls-1" d="M780.86,169.48h-3.22V141.77h2.91v4q2.19-4.59,6.53-4.59a7,7,0,0,1,5.92,3.07,14.86,14.86,0,0,1-.06,15.82,7.23,7.23,0,0,1-6,3,6.86,6.86,0,0,1-6.13-3.71Zm0-20.34V155a6.13,6.13,0,0,0,2,3.88,5.19,5.19,0,0,0,3.5,1.54,4.91,4.91,0,0,0,3.75-1.85c1.08-1.23,1.63-3.36,1.63-6.38a10.55,10.55,0,0,0-1.48-6,4.56,4.56,0,0,0-3.92-2.12,4.81,4.81,0,0,0-3.45,1.5A7.19,7.19,0,0,0,780.86,149.14Z"/><path class="cls-1" d="M803.29,162.49h-3.22V141.77h2.83v4.84q1.5-3.42,3-4.44a5.48,5.48,0,0,1,3.08-1c.33,0,.76,0,1.28.08v3.08h-.66a5.66,5.66,0,0,0-4.43,2,8.09,8.09,0,0,0-1.89,5.23Z"/><path class="cls-1" d="M820.58,163.06a7.85,7.85,0,0,1-6.65-3.16,12.59,12.59,0,0,1-2.39-7.84,11.29,11.29,0,0,1,2.68-7.9,8.67,8.67,0,0,1,6.69-3,8.18,8.18,0,0,1,6.76,3.11,12.13,12.13,0,0,1,2.47,7.77,11.6,11.6,0,0,1-2.67,7.91A8.69,8.69,0,0,1,820.58,163.06Zm.25-2.66a5.13,5.13,0,0,0,4.12-2c1.11-1.36,1.66-3.46,1.66-6.32s-.58-5-1.74-6.25a5.34,5.34,0,0,0-4.08-1.93,5.13,5.13,0,0,0-4.06,1.95q-1.66,2-1.67,6.21c0,3,.56,5.14,1.67,6.43A5.18,5.18,0,0,0,820.83,160.4Z"/><path class="cls-1" d="M832.19,157.11l3.07-.63q1,3.92,6.49,3.92a6.08,6.08,0,0,0,3.4-.91,2.84,2.84,0,0,0,1.39-2.54q0-2.43-3.55-3.09l-4.36-.83a7.94,7.94,0,0,1-4.08-1.92,5,5,0,0,1-1.52-3.8A5.5,5.5,0,0,1,835.1,143a8.34,8.34,0,0,1,5.58-1.75q6.75,0,8.32,5.27l-3,.64q-1.27-3.24-5.23-3.24a5.88,5.88,0,0,0-3.23.81,2.53,2.53,0,0,0-1.26,2.26q0,2.3,3.22,2.89l4,.72q6.35,1.15,6.34,6.14a5.51,5.51,0,0,1-2.36,4.62,10.26,10.26,0,0,1-6.28,1.75Q833.94,163.06,832.19,157.11Z"/><path class="cls-1" d="M857.68,141.55v21.57c0,2.44-.58,4.13-1.73,5.09a6.42,6.42,0,0,1-4.24,1.43,13,13,0,0,1-3-.43v-2.54a10.35,10.35,0,0,0,2.36.31,3.39,3.39,0,0,0,2.61-.87,4.44,4.44,0,0,0,.79-3V141.55Zm.16-7.06v3.59h-3.65v-3.59Z"/><path class="cls-1" d="M877.76,156.31l3,.62a8.42,8.42,0,0,1-3.2,4.39,9.23,9.23,0,0,1-5.6,1.74,8.71,8.71,0,0,1-6.87-3,13.07,13.07,0,0,1,.1-15.83A8.83,8.83,0,0,1,872,141.2a8.3,8.3,0,0,1,6.54,2.81c1.64,1.87,2.49,4.68,2.53,8.41H866.05q0,4.7,2,6.33a6.41,6.41,0,0,0,4.17,1.65Q876.14,160.4,877.76,156.31Zm-.19-6.29a9.2,9.2,0,0,0-.57-3.1,5.36,5.36,0,0,0-1.81-2.31,5,5,0,0,0-3.05-1,5.48,5.48,0,0,0-4.07,1.72,7.14,7.14,0,0,0-1.88,4.64Z"/><path class="cls-1" d="M903,162.49H899.7l-6.05-11.57-4.49,5.17v6.4h-3.22v-28h3.22v17.95l9.62-10.67h3.44l-6.47,7.28Z"/><path class="cls-1" d="M916.37,160.29v2.55a22.8,22.8,0,0,1-3,.22q-6,0-6-6.28V144.3h-3.67v-2.53h3.67l.14-5.2,3-.29v5.49h4.63v2.53h-4.63v13q0,3.19,3.32,3.2A15.89,15.89,0,0,0,916.37,160.29Z"/><path class="cls-1" d="M927.69,155.51h-3c0-2.13,0-3.46.09-4a4.86,4.86,0,0,1,.44-1.58,4,4,0,0,1,.83-1.23,12.55,12.55,0,0,1,2.19-1.41,19.7,19.7,0,0,0,2.57-1.63,5,5,0,0,0,1.23-1.62,4.91,4.91,0,0,0,.52-2.26,4.43,4.43,0,0,0-1.69-3.68,6.31,6.31,0,0,0-4-1.33q-5.2,0-6.35,6.05l-3.06-.66q1.54-8.27,9.58-8.26a9.57,9.57,0,0,1,6.62,2.25,7.34,7.34,0,0,1,2.52,5.75q0,4.58-5.25,7.3a9.72,9.72,0,0,0-2.81,1.9,3.59,3.59,0,0,0-.51,2.14Zm.7,2.94v4h-4.14v-4Z"/></svg>