<svg id="Layer_1" data-name="Layer 1" xmlns="http://www.w3.org/2000/svg" viewBox="0 0 300 250"><defs><style>.cls-1{fill:#fff;}</style></defs><title>text</title><path class="cls-1" d="M25.17,85.74v1.75H14.82v-16H25v1.76H16.83v5.08h6.44V80H16.83v5.77Z"/><path class="cls-1" d="M37.13,87.49H35.41v-7.6a3.1,3.1,0,0,0-.71-2.31A2.45,2.45,0,0,0,33,76.91,3,3,0,0,0,30.6,78a4.4,4.4,0,0,0-1,3v6.49H27.81V75.66h1.71v2.18a4.26,4.26,0,0,1,3.74-2.51,3.67,3.67,0,0,1,2.25.69,3.61,3.61,0,0,1,1.28,1.54,9.4,9.4,0,0,1,.34,3.09Z"/><path class="cls-1" d="M53.81,83.35l1.66.29a5.28,5.28,0,0,1-1.55,3.07A4.72,4.72,0,0,1,47.17,86a7.48,7.48,0,0,1-1.28-4.41,7.24,7.24,0,0,1,1.35-4.49,4.38,4.38,0,0,1,3.69-1.79A4.21,4.21,0,0,1,54,76.48a5.18,5.18,0,0,1,1.44,3l-1.66.31c-.31-2-1.26-2.93-2.83-2.93a2.63,2.63,0,0,0-2.34,1.3,6.15,6.15,0,0,0-.82,3.36A6.52,6.52,0,0,0,48.63,85a2.59,2.59,0,0,0,2.29,1.26C52.44,86.3,53.4,85.31,53.81,83.35Z"/><path class="cls-1" d="M62.24,87.82A4.51,4.51,0,0,1,58.43,86a7.23,7.23,0,0,1-1.36-4.48A6.48,6.48,0,0,1,58.6,77a5,5,0,0,1,3.82-1.69,4.64,4.64,0,0,1,3.86,1.78,6.85,6.85,0,0,1,1.42,4.44,6.63,6.63,0,0,1-1.53,4.52A4.94,4.94,0,0,1,62.24,87.82Zm.14-1.52a2.93,2.93,0,0,0,2.35-1.16,5.67,5.67,0,0,0,1-3.61,5.29,5.29,0,0,0-1-3.57,3.07,3.07,0,0,0-2.34-1.11A3,3,0,0,0,60,78a5.46,5.46,0,0,0-1,3.55,5.65,5.65,0,0,0,1,3.67A3,3,0,0,0,62.38,86.3Z"/><path class="cls-1" d="M86.32,87.49h-1.8V80.13a7.19,7.19,0,0,0-.15-1.7,2,2,0,0,0-.77-1,2.16,2.16,0,0,0-1.37-.48,2.89,2.89,0,0,0-2,1,4,4,0,0,0-1,3v6.66H77.44V79.7a2.77,2.77,0,0,0-.75-2.2,2.38,2.38,0,0,0-1.56-.65,2.63,2.63,0,0,0-2,1,3.77,3.77,0,0,0-.87,2.56v7.07H70.46V75.66H72v2.27c.89-1.73,2.1-2.6,3.65-2.6a3.1,3.1,0,0,1,2.17.83,3.89,3.89,0,0,1,1.15,2q1.21-2.83,3.73-2.84a3.41,3.41,0,0,1,2.12.69A3.18,3.18,0,0,1,86,77.61a8.75,8.75,0,0,1,.28,2.52Z"/><path class="cls-1" d="M105.85,87.49h-1.79V80.13a6.6,6.6,0,0,0-.16-1.7,2,2,0,0,0-.77-1,2.14,2.14,0,0,0-1.37-.48,2.87,2.87,0,0,0-2,1,4,4,0,0,0-1,3v6.66H97V79.7a2.8,2.8,0,0,0-.74-2.2,2.38,2.38,0,0,0-1.57-.65,2.63,2.63,0,0,0-2,1,3.76,3.76,0,0,0-.86,2.56v7.07H90V75.66h1.58v2.27c.88-1.73,2.1-2.6,3.64-2.6a3.06,3.06,0,0,1,2.17.83,3.76,3.76,0,0,1,1.15,2q1.21-2.83,3.74-2.84a3.38,3.38,0,0,1,2.11.69,3.2,3.2,0,0,1,1.19,1.59,9.18,9.18,0,0,1,.27,2.52Z"/><path class="cls-1" d="M117.35,84l1.71.35a4.78,4.78,0,0,1-1.83,2.51,5.27,5.27,0,0,1-3.2,1,5,5,0,0,1-3.92-1.7,7.46,7.46,0,0,1,.06-9.05,5,5,0,0,1,3.91-1.74,4.72,4.72,0,0,1,3.73,1.61,7.2,7.2,0,0,1,1.45,4.8h-8.6c0,1.79.37,3,1.12,3.62a3.66,3.66,0,0,0,2.38.94A3.26,3.26,0,0,0,117.35,84Zm-.11-3.6a5.12,5.12,0,0,0-.32-1.77,3,3,0,0,0-1-1.32,2.82,2.82,0,0,0-1.74-.54,3.11,3.11,0,0,0-2.33,1,4.13,4.13,0,0,0-1.07,2.65Z"/><path class="cls-1" d="M123.86,87.49H122V75.66h1.62v2.76a5.84,5.84,0,0,1,1.72-2.53,3.08,3.08,0,0,1,1.76-.58c.19,0,.43,0,.73,0v1.76h-.38a3.24,3.24,0,0,0-2.53,1.14,4.64,4.64,0,0,0-1.08,3Z"/><path class="cls-1" d="M136.57,83.35l1.66.29a5.23,5.23,0,0,1-1.56,3.07,4.71,4.71,0,0,1-6.74-.69,7.41,7.41,0,0,1-1.28-4.41A7.24,7.24,0,0,1,130,77.12a4.38,4.38,0,0,1,3.69-1.79,4.19,4.19,0,0,1,3.09,1.15,5.19,5.19,0,0,1,1.45,3l-1.66.31c-.31-2-1.26-2.93-2.83-2.93a2.61,2.61,0,0,0-2.34,1.3,6.15,6.15,0,0,0-.82,3.36,6.52,6.52,0,0,0,.81,3.53,2.58,2.58,0,0,0,2.29,1.26C135.2,86.3,136.16,85.31,136.57,83.35Z"/><path class="cls-1" d="M148.57,84l1.71.35a4.78,4.78,0,0,1-1.83,2.51,5.29,5.29,0,0,1-3.2,1,5,5,0,0,1-3.92-1.7,7.48,7.48,0,0,1,0-9.05,5,5,0,0,1,3.92-1.74A4.74,4.74,0,0,1,149,76.94a7.25,7.25,0,0,1,1.45,4.8h-8.6c0,1.79.37,3,1.12,3.62a3.64,3.64,0,0,0,2.38.94A3.26,3.26,0,0,0,148.57,84Zm-.11-3.6a4.89,4.89,0,0,0-.33-1.77,2.92,2.92,0,0,0-1-1.32,2.82,2.82,0,0,0-1.74-.54,3.11,3.11,0,0,0-2.33,1A4.08,4.08,0,0,0,142,80.37Z"/><path class="cls-1" d="M16.5,116.29H14.66v-16H16.5Z"/><path class="cls-1" d="M20.49,114.64a7.23,7.23,0,0,1-1.24-4.32,6.38,6.38,0,0,1,1.54-4.49,5.18,5.18,0,0,1,6.84-.74l1.06-1.41h1.64L28.56,106a6.94,6.94,0,0,1,1.32,4.32,6.68,6.68,0,0,1-1.52,4.52,5,5,0,0,1-3.94,1.75,4.53,4.53,0,0,1-3.05-1l-1,1.35H18.76Zm1.2-1.61,4.91-6.55a3,3,0,0,0-2.06-.83,3,3,0,0,0-2.32,1.12,5.48,5.48,0,0,0-.95,3.58A7.54,7.54,0,0,0,21.69,113Zm5.7-5.44-5,6.62a3,3,0,0,0,2.16.89,2.92,2.92,0,0,0,2.34-1.16,5.61,5.61,0,0,0,.95-3.61A6.58,6.58,0,0,0,27.39,107.59Z"/><path class="cls-1" d="M31.05,113.22l1.76-.36c.39,1.49,1.63,2.24,3.7,2.24a3.46,3.46,0,0,0,2-.52,1.63,1.63,0,0,0,.8-1.45c0-.93-.68-1.51-2-1.76l-2.5-.48a4.58,4.58,0,0,1-2.33-1.1,2.85,2.85,0,0,1-.87-2.17,3.14,3.14,0,0,1,1.19-2.49,4.75,4.75,0,0,1,3.18-1q3.85,0,4.76,3L39,107.5a2.88,2.88,0,0,0-3-1.85,3.36,3.36,0,0,0-1.85.47,1.45,1.45,0,0,0-.72,1.29c0,.87.61,1.42,1.84,1.65l2.31.41q3.61.66,3.62,3.51a3.14,3.14,0,0,1-1.35,2.64,5.85,5.85,0,0,1-3.58,1C33.45,116.62,31.72,115.49,31.05,113.22Z"/><path class="cls-1" d="M53.11,116.29H51.38v-7.6a3.06,3.06,0,0,0-.71-2.31,2.44,2.44,0,0,0-1.73-.67,3,3,0,0,0-2.37,1.13,4.46,4.46,0,0,0-1,3v6.49H43.78V104.46h1.71v2.18a4.27,4.27,0,0,1,3.74-2.51,3.67,3.67,0,0,1,2.25.69,3.61,3.61,0,0,1,1.28,1.54,9.33,9.33,0,0,1,.35,3.09Z"/><path class="cls-1" d="M58.69,100.3v2h-2v-2Zm-.06,4.16v11.83H56.79V104.46Z"/><path class="cls-1" d="M71.62,116.29H69.9v-7.6a3.1,3.1,0,0,0-.71-2.31,2.45,2.45,0,0,0-1.74-.67,3,3,0,0,0-2.36,1.13,4.41,4.41,0,0,0-1,3v6.49H62.29V104.46H64v2.18a4.25,4.25,0,0,1,3.73-2.51,3.68,3.68,0,0,1,2.26.69,3.61,3.61,0,0,1,1.28,1.54,9.4,9.4,0,0,1,.34,3.09Z"/><path class="cls-1" d="M85,102.61v1.46a3.35,3.35,0,0,0-1.69.29,1.54,1.54,0,0,0-.57,1.06,4.27,4.27,0,0,1,1.14,2.86,3.71,3.71,0,0,1-1.24,2.78,4.68,4.68,0,0,1-3.32,1.16,4.52,4.52,0,0,1-.81-.07,5.35,5.35,0,0,0-.81-.13,1.37,1.37,0,0,0-.76.31.92.92,0,0,0-.45.8.87.87,0,0,0,.65.91,14.06,14.06,0,0,0,3,.27,16.86,16.86,0,0,1,3,.28,3,3,0,0,1,1.63,1,2.61,2.61,0,0,1,.67,1.82c0,2.26-2,3.39-6,3.39a7.65,7.65,0,0,1-4.12-.85,2.6,2.6,0,0,1-1.3-2.27,2.38,2.38,0,0,1,1.81-2.37,2.22,2.22,0,0,1-1.16-1.91,2.3,2.3,0,0,1,1.64-2.1,3.83,3.83,0,0,1-1.54-3.12,3.64,3.64,0,0,1,1.31-2.89,4.77,4.77,0,0,1,3.2-1.12,5.83,5.83,0,0,1,2.43.5,2.29,2.29,0,0,1,.81-1.6,3.41,3.41,0,0,1,1.94-.45Zm-7.83,13.2a1.79,1.79,0,0,0-1.29,1.63,1.55,1.55,0,0,0,1.06,1.4,6.41,6.41,0,0,0,2.7.5,8.51,8.51,0,0,0,2.79-.43c.85-.28,1.27-.76,1.27-1.44a1.21,1.21,0,0,0-.38-.91,1.84,1.84,0,0,0-1-.44c-.43-.06-1.19-.11-2.27-.14C78.71,116,77.76,115.89,77.14,115.81Zm2.21-5a2.63,2.63,0,0,0,1.91-.72,2.49,2.49,0,0,0,.73-1.87,2.57,2.57,0,0,0-.76-1.92,2.61,2.61,0,0,0-1.86-.74,2.72,2.72,0,0,0-1.85.7,2.78,2.78,0,0,0-.08,3.84A2.62,2.62,0,0,0,79.35,110.81Z"/><path class="cls-1" d="M109,116.29h-1.8v-7.36a7.19,7.19,0,0,0-.15-1.7,2.07,2.07,0,0,0-.77-1,2.18,2.18,0,0,0-1.37-.48,2.89,2.89,0,0,0-2,1,4,4,0,0,0-1,2.95v6.66h-1.79V108.5a2.77,2.77,0,0,0-.74-2.2,2.38,2.38,0,0,0-1.56-.65,2.6,2.6,0,0,0-2,1,3.77,3.77,0,0,0-.87,2.56v7.07H93.09V104.46h1.58v2.27c.89-1.73,2.1-2.6,3.65-2.6a3.1,3.1,0,0,1,2.17.83,3.81,3.81,0,0,1,1.14,2c.82-1.89,2.06-2.84,3.74-2.84a3.41,3.41,0,0,1,2.12.69,3.18,3.18,0,0,1,1.18,1.59,9.12,9.12,0,0,1,.28,2.52Z"/><path class="cls-1" d="M120.44,112.77l1.71.35a4.82,4.82,0,0,1-1.82,2.51,5.31,5.31,0,0,1-3.2,1,5,5,0,0,1-3.93-1.7,7.46,7.46,0,0,1,.06-9,5,5,0,0,1,3.91-1.74,4.76,4.76,0,0,1,3.74,1.61,7.2,7.2,0,0,1,1.44,4.8h-8.6c0,1.79.38,3,1.13,3.62a3.64,3.64,0,0,0,2.38.94A3.25,3.25,0,0,0,120.44,112.77Zm-.1-3.6a5.31,5.31,0,0,0-.33-1.77,3,3,0,0,0-1-1.32,2.87,2.87,0,0,0-1.75-.54,3.08,3.08,0,0,0-2.32,1,4.08,4.08,0,0,0-1.08,2.65Z"/><path class="cls-1" d="M134.36,100.3v16H132.7v-2a4,4,0,0,1-3.74,2.35,4.13,4.13,0,0,1-3.42-1.74,7,7,0,0,1-1.34-4.4,7.51,7.51,0,0,1,1.33-4.54,4.13,4.13,0,0,1,3.51-1.81,4.05,4.05,0,0,1,3.48,2V100.3ZM132.52,109a3.37,3.37,0,0,0-.94-2.5,3.11,3.11,0,0,0-2.22-.94,2.7,2.7,0,0,0-2.26,1.22,5.86,5.86,0,0,0-.88,3.43,6.67,6.67,0,0,0,.81,3.62,2.57,2.57,0,0,0,2.24,1.24,3,3,0,0,0,2.27-1.08,3.61,3.61,0,0,0,1-2.53Z"/><path class="cls-1" d="M23.4,145.09H21.48v-3.8H13.56v-1.35l7.35-11.17H23.4V139.7H26v1.59H23.4Zm-1.92-5.39v-7.56c0-.54,0-1.13,0-1.76-.33.61-.62,1.11-.87,1.49l-5,7.83Z"/><path class="cls-1" d="M31.53,137.57V136h1.83a4.13,4.13,0,0,0,2.87-.82,2.69,2.69,0,0,0,.86-2,2.49,2.49,0,0,0-1-2.06,3.82,3.82,0,0,0-2.42-.76A3.72,3.72,0,0,0,30,133l-1.81-.52a5.69,5.69,0,0,1,5.72-3.68A5.62,5.62,0,0,1,37.69,130a3.84,3.84,0,0,1,1.44,3,3.52,3.52,0,0,1-.87,2.37A3.73,3.73,0,0,1,36,136.67,4.68,4.68,0,0,1,38.65,138a3.65,3.65,0,0,1,1.1,2.74,4.26,4.26,0,0,1-1.63,3.37,6.76,6.76,0,0,1-4.47,1.36,6.79,6.79,0,0,1-3.85-1.06,5.47,5.47,0,0,1-2.2-2.84l1.86-.62q.84,2.9,4.16,2.89a4.3,4.3,0,0,0,3.1-.92,3,3,0,0,0,.94-2.2,2.69,2.69,0,0,0-1.13-2.24,5.15,5.15,0,0,0-3.17-.86Z"/><path class="cls-1" d="M45.61,137.57V136h1.83a4.11,4.11,0,0,0,2.86-.82,2.69,2.69,0,0,0,.86-2,2.49,2.49,0,0,0-1-2.06,3.79,3.79,0,0,0-2.41-.76A3.73,3.73,0,0,0,44.06,133l-1.8-.52A5.68,5.68,0,0,1,48,128.77,5.59,5.59,0,0,1,51.76,130a3.84,3.84,0,0,1,1.44,3,3.52,3.52,0,0,1-.87,2.37,3.71,3.71,0,0,1-2.22,1.27A4.71,4.71,0,0,1,52.73,138a3.65,3.65,0,0,1,1.09,2.74,4.23,4.23,0,0,1-1.63,3.37,6.71,6.71,0,0,1-4.46,1.36,6.77,6.77,0,0,1-3.85-1.06,5.48,5.48,0,0,1-2.21-2.84l1.86-.62c.57,1.93,1.95,2.89,4.16,2.89a4.3,4.3,0,0,0,3.1-.92,3,3,0,0,0,1-2.2,2.68,2.68,0,0,0-1.14-2.24,5.14,5.14,0,0,0-3.16-.86Z"/><path class="cls-1" d="M59.22,137.25A2.83,2.83,0,0,1,56.8,136a5.46,5.46,0,0,1,0-5.9,3.05,3.05,0,0,1,4.91.06,5.17,5.17,0,0,1,.84,2.93,4.91,4.91,0,0,1-.87,2.89A2.81,2.81,0,0,1,59.22,137.25Zm0-.91a1.61,1.61,0,0,0,1.51-.88,4.39,4.39,0,0,0,.5-2.22,5.14,5.14,0,0,0-.51-2.44,1.67,1.67,0,0,0-1.57-1c-1.34,0-2,1.06-2,3.19S57.87,136.34,59.25,136.34Zm.34,8.75H58.11l9.69-16h1.46Zm8.58.17A2.84,2.84,0,0,1,65.73,144a5,5,0,0,1-.87-2.95,4.93,4.93,0,0,1,.85-2.94,3,3,0,0,1,4.89.06,5.19,5.19,0,0,1,.84,2.93,4.91,4.91,0,0,1-.87,2.89A2.76,2.76,0,0,1,68.17,145.26Zm0-.94a1.63,1.63,0,0,0,1.5-.86,4.34,4.34,0,0,0,.5-2.22,5.31,5.31,0,0,0-.5-2.41,1.67,1.67,0,0,0-1.57-1c-1.34,0-2,1.07-2,3.2S66.79,144.32,68.18,144.32Z"/><path class="cls-1" d="M91.84,145.09h-2.1l-2.95-6.92H82.2v6.92H80.33v-16h6.3a4.84,4.84,0,0,1,3.81,1.4,4.53,4.53,0,0,1,1.23,3.06A4.74,4.74,0,0,1,91,136a3.89,3.89,0,0,1-2.28,1.68Zm-9.64-8.55h4.19a3.21,3.21,0,0,0,2.46-.87,3,3,0,0,0,.82-2.14,2.41,2.41,0,0,0-.86-2,3.34,3.34,0,0,0-2.18-.7H82.2Z"/><path class="cls-1" d="M100.24,145.42a5.57,5.57,0,0,1-4.8-2.4,9.77,9.77,0,0,1-1.73-5.88,9.58,9.58,0,0,1,1.81-6,6,6,0,0,1,9.54,0,9.37,9.37,0,0,1,1.79,5.87,10.23,10.23,0,0,1-1.74,5.93A5.58,5.58,0,0,1,100.24,145.42Zm.05-1.63a3.66,3.66,0,0,0,3.28-1.91,9.19,9.19,0,0,0,1.18-4.92,8.29,8.29,0,0,0-1.22-4.83,3.83,3.83,0,0,0-3.26-1.72A3.69,3.69,0,0,0,97,132.28a8.8,8.8,0,0,0-1.21,4.88A8.59,8.59,0,0,0,97,142,3.73,3.73,0,0,0,100.29,143.79Z"/><path class="cls-1" d="M111.86,145.09h-2v-16h2Z"/><path class="cls-1" d="M123.54,149.09H121.7V133.26h1.66v2.3a4,4,0,0,1,7.12-.88,8.51,8.51,0,0,1,0,9,4.11,4.11,0,0,1-3.4,1.7,3.91,3.91,0,0,1-3.5-2.12Zm0-11.62v3.34a3.46,3.46,0,0,0,1.13,2.21,2.94,2.94,0,0,0,2,.88,2.8,2.8,0,0,0,2.14-1.06,5.51,5.51,0,0,0,.93-3.64,5.94,5.94,0,0,0-.85-3.45,2.58,2.58,0,0,0-2.23-1.21,2.75,2.75,0,0,0-2,.85A4.09,4.09,0,0,0,123.54,137.47Z"/><path class="cls-1" d="M143.77,145.09H142q-.11-.56-.21-2.13a4.28,4.28,0,0,1-4.15,2.46,4.18,4.18,0,0,1-3.06-1,3.46,3.46,0,0,1-1.07-2.54,3.54,3.54,0,0,1,1.53-3q1.51-1.15,5.18-1.16c.32,0,.85,0,1.57.05a6.92,6.92,0,0,0-.22-2,1.78,1.78,0,0,0-.92-1,3.94,3.94,0,0,0-1.85-.38c-1.87,0-2.95.71-3.26,2.13l-1.7-.29q.63-3.27,5.23-3.27A4.64,4.64,0,0,1,142.5,134a5.42,5.42,0,0,1,1,3.76v5A10.19,10.19,0,0,0,143.77,145.09Zm-2-5.91c-.75-.05-1.32-.07-1.71-.07a6.63,6.63,0,0,0-3.39.71,2.31,2.31,0,0,0-1.21,2.09,2,2,0,0,0,.65,1.48A2.64,2.64,0,0,0,138,144a3.48,3.48,0,0,0,2.74-1.21,4.15,4.15,0,0,0,1.07-2.84C141.78,139.73,141.77,139.47,141.75,139.18Zm-.78-9.62a1.93,1.93,0,0,1-.59,1.42,2,2,0,0,1-2.86,0,1.9,1.9,0,0,1-.61-1.43,2,2,0,0,1,.6-1.43,2,2,0,0,1,1.49-.61,1.88,1.88,0,0,1,1.38.61A2,2,0,0,1,141,129.56Zm-1,0a1.06,1.06,0,0,0-.3-.76,1,1,0,0,0-.7-.31,1.09,1.09,0,0,0-.81.31,1,1,0,0,0-.31.74A1.09,1.09,0,0,0,139,130.6a1,1,0,0,0,.74-.31A1,1,0,0,0,140,129.55Z"/><path class="cls-1" d="M24,173.89H22.31v-2.26a4,4,0,0,1-3.77,2.59A3.59,3.59,0,0,1,15.69,173a5.07,5.07,0,0,1-1-3.41v-7.56H16.5v7.56a3.18,3.18,0,0,0,.73,2.42,2.37,2.37,0,0,0,1.61.66,2.77,2.77,0,0,0,1.61-.5,3.93,3.93,0,0,0,1.2-1.44,4.37,4.37,0,0,0,.48-2v-6.67H24Z"/><path class="cls-1" d="M37,173.89H35.26v-7.6a3.07,3.07,0,0,0-.72-2.31,2.45,2.45,0,0,0-1.73-.67,3,3,0,0,0-2.36,1.13,4.41,4.41,0,0,0-1,3v6.49H27.65V162.06h1.71v2.18a4.28,4.28,0,0,1,3.74-2.51,3.68,3.68,0,0,1,2.26.69A3.61,3.61,0,0,1,36.64,164a9.4,9.4,0,0,1,.34,3.09Z"/><path class="cls-1" d="M49.91,157.9v16H48.24v-2a4,4,0,0,1-3.74,2.35,4.12,4.12,0,0,1-3.41-1.74,7,7,0,0,1-1.34-4.4,7.51,7.51,0,0,1,1.32-4.54,4.14,4.14,0,0,1,3.52-1.81,4.08,4.08,0,0,1,3.48,2V157.9Zm-1.84,8.73a3.38,3.38,0,0,0-1-2.5,3.06,3.06,0,0,0-2.22-.93,2.68,2.68,0,0,0-2.25,1.21,5.78,5.78,0,0,0-.89,3.43,6.58,6.58,0,0,0,.82,3.62,2.52,2.52,0,0,0,2.23,1.24,3,3,0,0,0,2.27-1.08,3.62,3.62,0,0,0,1-2.53Z"/><path class="cls-1" d="M61.4,170.37l1.71.35a4.82,4.82,0,0,1-1.82,2.51,5.31,5.31,0,0,1-3.2,1,5,5,0,0,1-3.93-1.7,7.46,7.46,0,0,1,.06-9.05,5,5,0,0,1,3.91-1.74,4.74,4.74,0,0,1,3.74,1.61,7.2,7.2,0,0,1,1.44,4.8h-8.6c0,1.79.38,3,1.13,3.62a3.64,3.64,0,0,0,2.38.94A3.25,3.25,0,0,0,61.4,170.37Zm-.1-3.6A5.36,5.36,0,0,0,61,165a3,3,0,0,0-1-1.32,2.87,2.87,0,0,0-1.75-.54,3.08,3.08,0,0,0-2.32,1,4.08,4.08,0,0,0-1.08,2.65Z"/><path class="cls-1" d="M67.92,173.89H66.08V162.06H67.7v2.76a5.93,5.93,0,0,1,1.71-2.53,3.13,3.13,0,0,1,1.77-.58,7.17,7.17,0,0,1,.72,0v1.76h-.37A3.22,3.22,0,0,0,69,164.65a4.64,4.64,0,0,0-1.08,3Z"/><path class="cls-1" d="M91,161.17l-1.81.49a3.39,3.39,0,0,0-3.37-2.44q-4.5,0-4.61,7.44a5.19,5.19,0,0,1,2-2.45,5.25,5.25,0,0,1,2.77-.79A5,5,0,0,1,89.76,165a5.19,5.19,0,0,1,1.5,3.73,5.36,5.36,0,0,1-1.6,3.89,5.89,5.89,0,0,1-8.61-.51,9.18,9.18,0,0,1-1.68-5.82A11.34,11.34,0,0,1,81,160.12a5.37,5.37,0,0,1,4.91-2.55A5,5,0,0,1,91,161.17Zm-5.48,11.45a3.83,3.83,0,0,0,2.81-6.48,3.52,3.52,0,0,0-2.63-1.1,3.94,3.94,0,0,0-2.83,1.16,3.66,3.66,0,0,0-1.2,2.72,3.61,3.61,0,0,0,1.08,2.57A3.65,3.65,0,0,0,85.53,172.62Z"/><path class="cls-1" d="M115.92,173.89h-1.79v-7.35a7.12,7.12,0,0,0-.16-1.71,2,2,0,0,0-.77-1,2.16,2.16,0,0,0-1.37-.48,2.87,2.87,0,0,0-2,1,4,4,0,0,0-1,2.95v6.66H107V166.1a2.77,2.77,0,0,0-.75-2.2,2.36,2.36,0,0,0-1.56-.65,2.63,2.63,0,0,0-2,1,3.78,3.78,0,0,0-.87,2.56v7.07h-1.76V162.06h1.59v2.27q1.32-2.6,3.64-2.6a3.1,3.1,0,0,1,2.17.83,3.86,3.86,0,0,1,1.15,2q1.22-2.83,3.74-2.84a3.4,3.4,0,0,1,2.11.69,3.12,3.12,0,0,1,1.18,1.59,8.78,8.78,0,0,1,.28,2.53Z"/><path class="cls-1" d="M128.86,173.89H127q-.11-.55-.21-2.13a4.27,4.27,0,0,1-4.15,2.46,4.18,4.18,0,0,1-3.06-1.05,3.45,3.45,0,0,1-1.06-2.54,3.53,3.53,0,0,1,1.52-2.95c1-.77,2.74-1.16,5.18-1.16.33,0,.85,0,1.57,0a6.59,6.59,0,0,0-.22-2,1.78,1.78,0,0,0-.92-1,3.92,3.92,0,0,0-1.85-.38c-1.87,0-3,.71-3.26,2.13l-1.7-.29q.63-3.27,5.23-3.27a4.68,4.68,0,0,1,3.48,1.08,5.48,5.48,0,0,1,1,3.76v5A9.62,9.62,0,0,0,128.86,173.89Zm-2-5.91c-.75,0-1.32-.07-1.71-.07a6.68,6.68,0,0,0-3.39.71,2.31,2.31,0,0,0-1.21,2.09,1.93,1.93,0,0,0,.66,1.48,2.63,2.63,0,0,0,1.88.61,3.46,3.46,0,0,0,2.73-1.21,4.1,4.1,0,0,0,1.07-2.84C126.86,168.53,126.85,168.27,126.83,168Zm-.77-9.62a2,2,0,0,1-2,2,2,2,0,0,1-1.44-.6,1.9,1.9,0,0,1-.61-1.43,2,2,0,0,1,.6-1.43,2.06,2.06,0,0,1,1.5-.61,1.87,1.87,0,0,1,1.37.61A2,2,0,0,1,126.06,158.36Zm-1,0a1.06,1.06,0,0,0-.3-.76.92.92,0,0,0-.69-.31,1.1,1.1,0,0,0-.82.31,1.05,1.05,0,0,0-.31.74,1.06,1.06,0,1,0,2.12,0Z"/><path class="cls-1" d="M141.62,173.89H139.9v-7.6a3.07,3.07,0,0,0-.72-2.31,2.47,2.47,0,0,0-1.73-.67,3,3,0,0,0-2.36,1.13,4.41,4.41,0,0,0-1,3v6.49h-1.84V162.06H134v2.18a4.27,4.27,0,0,1,3.74-2.51,3.72,3.72,0,0,1,2.26.69,3.58,3.58,0,0,1,1.27,1.54,9.33,9.33,0,0,1,.35,3.09Z"/><path class="cls-1" d="M153.11,170.37l1.72.35a4.89,4.89,0,0,1-1.83,2.51,5.31,5.31,0,0,1-3.2,1,5,5,0,0,1-3.93-1.7,7.46,7.46,0,0,1,.06-9.05,5,5,0,0,1,3.91-1.74,4.74,4.74,0,0,1,3.74,1.61,7.2,7.2,0,0,1,1.44,4.8h-8.6c0,1.79.38,3,1.13,3.62a3.64,3.64,0,0,0,2.38.94A3.25,3.25,0,0,0,153.11,170.37Zm-.1-3.6a5.36,5.36,0,0,0-.33-1.77,3,3,0,0,0-1-1.32,2.85,2.85,0,0,0-1.75-.54,3.08,3.08,0,0,0-2.32,1,4.08,4.08,0,0,0-1.08,2.65Z"/><path class="cls-1" d="M167,157.9v16h-1.67v-2a4,4,0,0,1-3.74,2.35,4.14,4.14,0,0,1-3.42-1.74,7,7,0,0,1-1.33-4.4,7.51,7.51,0,0,1,1.32-4.54,4.13,4.13,0,0,1,3.52-1.81,4.08,4.08,0,0,1,3.48,2V157.9Zm-1.84,8.73a3.38,3.38,0,0,0-.95-2.5,3.08,3.08,0,0,0-2.22-.93,2.68,2.68,0,0,0-2.25,1.21,5.78,5.78,0,0,0-.89,3.43,6.58,6.58,0,0,0,.82,3.62,2.52,2.52,0,0,0,2.23,1.24,3,3,0,0,0,2.27-1.08,3.62,3.62,0,0,0,1-2.53Z"/><path class="cls-1" d="M178.53,170.37l1.71.35a4.82,4.82,0,0,1-1.82,2.51,5.31,5.31,0,0,1-3.2,1,5,5,0,0,1-3.93-1.7,7.46,7.46,0,0,1,.06-9.05,5,5,0,0,1,3.91-1.74,4.76,4.76,0,0,1,3.74,1.61,7.2,7.2,0,0,1,1.44,4.8h-8.6c0,1.79.38,3,1.13,3.62a3.63,3.63,0,0,0,2.37.94A3.25,3.25,0,0,0,178.53,170.37Zm-.1-3.6a5.36,5.36,0,0,0-.33-1.77,3,3,0,0,0-1-1.32,2.87,2.87,0,0,0-1.75-.54,3.08,3.08,0,0,0-2.32,1,4.08,4.08,0,0,0-1.08,2.65Z"/><path class="cls-1" d="M185.05,173.89h-1.84V162.06h1.62v2.76a5.93,5.93,0,0,1,1.71-2.53,3.11,3.11,0,0,1,1.77-.58,7.17,7.17,0,0,1,.72,0v1.76h-.37a3.22,3.22,0,0,0-2.53,1.14,4.53,4.53,0,0,0-1.08,3Z"/></svg>