<svg id="Layer_1" data-name="Layer 1" xmlns="http://www.w3.org/2000/svg" viewBox="0 0 300 250"><defs><style>.cls-1{fill:#fff;}</style></defs><title>text</title><path class="cls-1" d="M93.49,95.38h-4V92.65h11.13v2.73H96.72V107H93.49Z"/><path class="cls-1" d="M102.64,91.58h3.23v3.78l-.15,2a5,5,0,0,1,3.37-1.5c2.37,0,3.39,1.67,3.39,4.4V107h-3.24v-6.36c0-1.58-.42-2.07-1.34-2.07a2.78,2.78,0,0,0-2,1.06V107h-3.23Z"/><path class="cls-1" d="M119.71,95.82c3.11,0,4.65,2.27,4.65,5.24a6,6,0,0,1-.14,1.36h-6.53a2.64,2.64,0,0,0,2.84,2.38,4.34,4.34,0,0,0,2.35-.73l1.08,2a7.12,7.12,0,0,1-3.87,1.23,5.32,5.32,0,0,1-5.53-5.72C114.56,98,117.09,95.82,119.71,95.82Zm1.89,4.6c0-1.25-.52-2.13-1.82-2.13-1,0-1.89.68-2.11,2.13Z"/><path class="cls-1" d="M131.66,103.72a4.7,4.7,0,0,0,2.81,1.15c1,0,1.39-.36,1.39-.93s-1.1-1-2.22-1.49c-1.32-.51-2.89-1.41-2.89-3.22,0-2,1.66-3.41,4.19-3.41a6.26,6.26,0,0,1,3.85,1.39l-1.46,1.94a4,4,0,0,0-2.31-.93c-.83,0-1.23.31-1.23.86,0,.7,1,1,2.14,1.38,1.38.51,2.94,1.28,2.94,3.28s-1.56,3.52-4.48,3.52a7,7,0,0,1-4.18-1.51Z"/><path class="cls-1" d="M144.15,107.86v3.19h-3.23v-15h2.64l.22,1.07h.09a4.8,4.8,0,0,1,3.1-1.34c2.64,0,4.27,2.18,4.27,5.55,0,3.74-2.25,5.89-4.6,5.89a3.76,3.76,0,0,1-2.6-1.14Zm1.74-3.24c1.12,0,2-1,2-3.21,0-2-.6-3-1.9-3a2.53,2.53,0,0,0-1.87,1v4.47A2.51,2.51,0,0,0,145.89,104.62Z"/><path class="cls-1" d="M158,95.82c3.1,0,4.64,2.27,4.64,5.24a6.8,6.8,0,0,1-.13,1.36H156a2.65,2.65,0,0,0,2.84,2.38,4.37,4.37,0,0,0,2.36-.73l1.07,2a7.12,7.12,0,0,1-3.87,1.23,5.32,5.32,0,0,1-5.52-5.72C152.89,98,155.42,95.82,158,95.82Zm1.89,4.6c0-1.25-.53-2.13-1.83-2.13-1,0-1.89.68-2.11,2.13Z"/><path class="cls-1" d="M169.43,95.82c3.1,0,4.65,2.27,4.65,5.24a6,6,0,0,1-.14,1.36h-6.53a2.64,2.64,0,0,0,2.84,2.38,4.34,4.34,0,0,0,2.35-.73l1.08,2a7.15,7.15,0,0,1-3.87,1.23,5.32,5.32,0,0,1-5.53-5.72C164.28,98,166.81,95.82,169.43,95.82Zm1.89,4.6c0-1.25-.52-2.13-1.82-2.13-1,0-1.89.68-2.11,2.13Z"/><path class="cls-1" d="M180.28,95.82A3.55,3.55,0,0,1,183,97l-.13-1.68V91.58h3.23V107h-2.64l-.22-1.08h-.08a4.32,4.32,0,0,1-2.91,1.34c-2.71,0-4.46-2.15-4.46-5.72S178,95.82,180.28,95.82Zm.77,8.8a2,2,0,0,0,1.78-1V99.17a2.58,2.58,0,0,0-1.8-.71c-1,0-2,1-2,3S179.79,104.62,181.05,104.62Z"/><path class="cls-1" d="M193.23,92.79a1.72,1.72,0,0,1,1.87-1.68,1.69,1.69,0,1,1,0,3.37A1.73,1.73,0,0,1,193.23,92.79Zm.27,3.3h3.23V107H193.5Z"/><path class="cls-1" d="M199.57,96.09h2.64l.22,1.38h.09a5,5,0,0,1,3.5-1.65c2.37,0,3.39,1.67,3.39,4.4V107h-3.24v-6.36c0-1.58-.42-2.07-1.34-2.07a2.77,2.77,0,0,0-2,1.06V107h-3.24Z"/><path class="cls-1" d="M90.87,125h-1.5v-2.4l1.68-.13.37-2.91H94.1v2.91h2.62V125H94.1v4.38c0,1.23.55,1.73,1.41,1.73a3.1,3.1,0,0,0,1-.22l.5,2.36a8,8,0,0,1-2.42.39c-2.7,0-3.76-1.69-3.76-4.22Z"/><path class="cls-1" d="M98.86,118h3.23v3.78l-.15,2a5,5,0,0,1,3.36-1.5c2.38,0,3.39,1.67,3.39,4.4v6.78h-3.23V127c0-1.58-.42-2.07-1.35-2.07a2.77,2.77,0,0,0-2,1.06v7.37H98.86Z"/><path class="cls-1" d="M115.93,122.22c3.1,0,4.64,2.27,4.64,5.24a6.12,6.12,0,0,1-.13,1.36H113.9a2.65,2.65,0,0,0,2.84,2.38,4.35,4.35,0,0,0,2.36-.73l1.08,2a7.18,7.18,0,0,1-3.88,1.23,5.32,5.32,0,0,1-5.52-5.72C110.78,124.4,113.31,122.22,115.93,122.22Zm1.89,4.6c0-1.25-.53-2.13-1.83-2.13-1,0-1.89.68-2.11,2.13Z"/><path class="cls-1" d="M130.63,134.26v3.19h-3.24v-15H130l.22,1.07h.09a4.8,4.8,0,0,1,3.1-1.34c2.64,0,4.27,2.18,4.27,5.55,0,3.74-2.25,5.89-4.6,5.89a3.8,3.8,0,0,1-2.6-1.14Zm1.73-3.24c1.13,0,2-1,2-3.21,0-2-.6-3-1.89-3a2.5,2.5,0,0,0-1.87,1v4.47A2.47,2.47,0,0,0,132.36,131Z"/><path class="cls-1" d="M144.68,122.22a5.74,5.74,0,1,1-5.32,5.72A5.35,5.35,0,0,1,144.68,122.22Zm0,8.82c1.32,0,2-1.2,2-3.1s-.68-3.1-2-3.1-2,1.21-2,3.1S143.34,131,144.68,131Z"/><path class="cls-1" d="M151.13,122.49h3.21l1.06,5.06c.17,1.08.3,2.13.48,3.23H156c.2-1.1.37-2.2.64-3.23l1.21-5.06h2.79l1.23,5.06c.27,1.08.47,2.13.69,3.23h.08c.2-1.1.31-2.15.51-3.23l1-5.06h3l-2.62,10.91h-3.79l-1-4.36c-.22-1-.39-2-.59-3.19h-.09c-.2,1.17-.35,2.18-.55,3.19l-1,4.36h-3.69Z"/><path class="cls-1" d="M173.44,122.22c3.1,0,4.64,2.27,4.64,5.24a6.8,6.8,0,0,1-.13,1.36h-6.54a2.65,2.65,0,0,0,2.84,2.38,4.34,4.34,0,0,0,2.35-.73l1.08,2a7.12,7.12,0,0,1-3.87,1.23,5.32,5.32,0,0,1-5.52-5.72C168.29,124.4,170.82,122.22,173.44,122.22Zm1.89,4.6c0-1.25-.53-2.13-1.83-2.13-1,0-1.89.68-2.11,2.13Z"/><path class="cls-1" d="M180.32,122.49H183l.22,1.91h.09a3.66,3.66,0,0,1,3.1-2.18,3.17,3.17,0,0,1,1.3.22l-.53,2.8a4,4,0,0,0-1.19-.18,2.7,2.7,0,0,0-2.39,2v6.34h-3.24Z"/><path class="cls-1" d="M193.39,119.19a1.88,1.88,0,1,1,1.87,1.69A1.72,1.72,0,0,1,193.39,119.19Zm.26,3.3h3.24V133.4h-3.24Z"/><path class="cls-1" d="M199.72,122.49h2.64l.22,1.38h.09a5.05,5.05,0,0,1,3.5-1.65c2.38,0,3.39,1.67,3.39,4.4v6.78h-3.23V127c0-1.58-.42-2.07-1.35-2.07a2.77,2.77,0,0,0-2,1.06v7.37h-3.24Z"/><path class="cls-1" d="M212.75,125h-1.5v-2.4l1.67-.13.38-2.91H216v2.91h2.62V125H216v4.38c0,1.23.55,1.73,1.41,1.73a3,3,0,0,0,1-.22l.51,2.36a8,8,0,0,1-2.42.39c-2.71,0-3.76-1.69-3.76-4.22Z"/><path class="cls-1" d="M220.73,122.49h2.64l.22,1.91h.09a3.66,3.66,0,0,1,3.11-2.18,3.12,3.12,0,0,1,1.29.22l-.53,2.8a4,4,0,0,0-1.18-.18,2.7,2.7,0,0,0-2.4,2v6.34h-3.24Z"/><path class="cls-1" d="M234.59,126.38a1.51,1.51,0,0,0-1.71-1.58,5.85,5.85,0,0,0-2.91,1l-1.14-2.14a9.1,9.1,0,0,1,4.67-1.43c2.79,0,4.33,1.59,4.33,4.93v6.25h-2.64l-.24-1.12h-.07a4.81,4.81,0,0,1-3.19,1.38,3.13,3.13,0,0,1-3.23-3.3C228.46,128.08,230.28,126.82,234.59,126.38Zm-1.8,4.78a2.43,2.43,0,0,0,1.8-.93v-1.91c-2.31.31-3.05,1-3.05,1.8S232,131.16,232.79,131.16Z"/><path class="cls-1" d="M244.56,122.22a3.57,3.57,0,0,1,2.69,1.15l-.14-1.68V118h3.24V133.4h-2.64l-.22-1.08h-.09a4.32,4.32,0,0,1-2.9,1.34c-2.71,0-4.47-2.15-4.47-5.72S242.25,122.22,244.56,122.22Zm.77,8.8a2,2,0,0,0,1.78-1v-4.46a2.58,2.58,0,0,0-1.8-.71c-1,0-2,1-2,3S244.08,131,245.33,131Z"/><path class="cls-1" d="M259,126.38a1.52,1.52,0,0,0-1.72-1.58,5.81,5.81,0,0,0-2.9,1l-1.15-2.14a9.1,9.1,0,0,1,4.67-1.43c2.79,0,4.33,1.59,4.33,4.93v6.25h-2.64l-.24-1.12h-.06a4.83,4.83,0,0,1-3.2,1.38,3.13,3.13,0,0,1-3.23-3.3C252.81,128.08,254.64,126.82,259,126.38Zm-1.8,4.78a2.45,2.45,0,0,0,1.8-.93v-1.91c-2.31.31-3.06,1-3.06,1.8S256.38,131.16,257.15,131.16Z"/><path class="cls-1" d="M265.92,135.12a1.87,1.87,0,0,0,1.92-1.43l.15-.58-4.2-10.62H267l1.57,4.68c.31,1,.57,2,.85,3.11h.09c.24-1,.49-2.07.75-3.11l1.32-4.68h3.1l-3.78,11c-1,2.75-2.2,4.16-4.77,4.16a4.94,4.94,0,0,1-1.54-.22l.57-2.47A3.07,3.07,0,0,0,265.92,135.12Z"/><path class="cls-1" d="M90.43,148.89h2.64l.22,1.4h.09a4.57,4.57,0,0,1,3.3-1.67,3,3,0,0,1,3,1.83,4.79,4.79,0,0,1,3.44-1.83c2.35,0,3.41,1.67,3.41,4.4v6.78H103.3v-6.36c0-1.58-.42-2.07-1.34-2.07a2.86,2.86,0,0,0-1.87,1.06v7.37H96.85v-6.36c0-1.58-.41-2.07-1.34-2.07a2.85,2.85,0,0,0-1.85,1.06v7.37H90.43Z"/><path class="cls-1" d="M115,152.78a1.52,1.52,0,0,0-1.72-1.58,5.81,5.81,0,0,0-2.9,1l-1.15-2.14a9.1,9.1,0,0,1,4.67-1.43c2.79,0,4.33,1.59,4.33,4.93v6.25h-2.64l-.24-1.12h-.07a4.81,4.81,0,0,1-3.19,1.38,3.13,3.13,0,0,1-3.23-3.3C108.89,154.47,110.71,153.22,115,152.78Zm-1.81,4.78a2.45,2.45,0,0,0,1.81-.93v-1.91c-2.31.31-3.06,1-3.06,1.8S112.45,157.56,113.22,157.56Z"/><path class="cls-1" d="M121,148.89h2.64l.22,1.91H124a3.66,3.66,0,0,1,3.1-2.18,3.17,3.17,0,0,1,1.3.22l-.53,2.8a4,4,0,0,0-1.18-.18,2.7,2.7,0,0,0-2.4,2v6.34H121Z"/><path class="cls-1" d="M129.79,144.38h3.14v8.84H133l3.46-4.33H140l-3.83,4.49,4.11,6.42h-3.5l-2.46-4.25-1.39,1.57v2.68h-3.14Z"/><path class="cls-1" d="M145.74,148.62c3.1,0,4.64,2.27,4.64,5.24a6.12,6.12,0,0,1-.13,1.36h-6.54a2.65,2.65,0,0,0,2.84,2.38,4.35,4.35,0,0,0,2.36-.73l1.08,2a7.18,7.18,0,0,1-3.88,1.23,5.32,5.32,0,0,1-5.52-5.72C140.59,150.8,143.12,148.62,145.74,148.62Zm1.89,4.6c0-1.25-.53-2.13-1.83-2.13-1,0-1.89.68-2.11,2.13Z"/><path class="cls-1" d="M152.67,151.42h-1.5V149l1.67-.13.38-2.91h2.68v2.91h2.62v2.53H155.9v4.37c0,1.24.55,1.74,1.41,1.74a3,3,0,0,0,1-.22l.51,2.36a8,8,0,0,1-2.42.39c-2.71,0-3.76-1.69-3.76-4.22Z"/><path class="cls-1" d="M165,145.59a1.89,1.89,0,1,1,1.87,1.69A1.72,1.72,0,0,1,165,145.59Zm.27,3.3h3.23V159.8h-3.23Z"/><path class="cls-1" d="M171.79,156.52a4.7,4.7,0,0,0,2.81,1.15c1,0,1.39-.36,1.39-.93,0-.72-1.1-1.05-2.22-1.49-1.32-.51-2.89-1.41-2.89-3.22,0-2,1.65-3.41,4.18-3.41a6.21,6.21,0,0,1,3.85,1.39l-1.45,1.93a4,4,0,0,0-2.31-.92c-.83,0-1.23.31-1.23.86,0,.7,1,1,2.13,1.38,1.39.51,2.95,1.28,2.95,3.28s-1.56,3.52-4.49,3.52a7,7,0,0,1-4.18-1.51Z"/><path class="cls-1" d="M185.36,145.59a1.88,1.88,0,1,1,1.87,1.69A1.72,1.72,0,0,1,185.36,145.59Zm.26,3.3h3.24V159.8h-3.24Z"/><path class="cls-1" d="M191.7,148.89h2.63l.23,1.38h.08a5.05,5.05,0,0,1,3.5-1.65c2.38,0,3.39,1.67,3.39,4.4v6.78H198.3v-6.36c0-1.58-.42-2.07-1.35-2.07a2.77,2.77,0,0,0-2,1.06v7.37H191.7Z"/><path class="cls-1" d="M209.32,148.62a4.41,4.41,0,0,1,3.19,1.26l-1.48,2a2.34,2.34,0,0,0-1.52-.64c-1.56,0-2.55,1.21-2.55,3.1s1,3.11,2.44,3.11a3.13,3.13,0,0,0,2-.8l1.3,2a5.68,5.68,0,0,1-3.63,1.36c-3,0-5.39-2.09-5.39-5.72A5.48,5.48,0,0,1,209.32,148.62Z"/><path class="cls-1" d="M214.55,148.89h2.64l.22,1.91h.09a3.66,3.66,0,0,1,3.1-2.18,3.17,3.17,0,0,1,1.3.22l-.53,2.8a4,4,0,0,0-1.18-.18,2.7,2.7,0,0,0-2.4,2v6.34h-3.24Z"/><path class="cls-1" d="M227.6,148.62c3.1,0,4.64,2.27,4.64,5.24a6.12,6.12,0,0,1-.13,1.36h-6.53a2.64,2.64,0,0,0,2.83,2.38,4.35,4.35,0,0,0,2.36-.73l1.08,2a7.18,7.18,0,0,1-3.88,1.23,5.32,5.32,0,0,1-5.52-5.72C222.45,150.8,225,148.62,227.6,148.62Zm1.89,4.6c0-1.25-.53-2.13-1.82-2.13-1,0-1.9.68-2.12,2.13Z"/><path class="cls-1" d="M240,152.78a1.52,1.52,0,0,0-1.72-1.58,5.78,5.78,0,0,0-2.9,1l-1.15-2.14a9.1,9.1,0,0,1,4.67-1.43c2.79,0,4.33,1.59,4.33,4.93v6.25h-2.64l-.24-1.12h-.07a4.81,4.81,0,0,1-3.19,1.38,3.13,3.13,0,0,1-3.23-3.3C233.85,154.47,235.67,153.22,240,152.78Zm-1.81,4.78a2.47,2.47,0,0,0,1.81-.93v-1.91c-2.32.31-3.06,1-3.06,1.8S237.41,157.56,238.18,157.56Z"/><path class="cls-1" d="M246.47,156.52a4.72,4.72,0,0,0,2.82,1.15c1,0,1.39-.36,1.39-.93,0-.72-1.1-1.05-2.23-1.49-1.32-.51-2.88-1.41-2.88-3.22,0-2,1.65-3.41,4.18-3.41A6.23,6.23,0,0,1,253.6,150l-1.45,1.93a4,4,0,0,0-2.31-.92c-.84,0-1.23.31-1.23.86,0,.7,1,1,2.13,1.38,1.39.51,2.95,1.28,2.95,3.28s-1.56,3.52-4.49,3.52a7,7,0,0,1-4.18-1.51Z"/><path class="cls-1" d="M255.47,145.59a1.88,1.88,0,1,1,1.87,1.69A1.72,1.72,0,0,1,255.47,145.59Zm.27,3.3H259V159.8h-3.23Z"/><path class="cls-1" d="M261.81,148.89h2.64l.22,1.38h.09a5,5,0,0,1,3.49-1.65c2.38,0,3.39,1.67,3.39,4.4v6.78h-3.23v-6.36c0-1.58-.42-2.07-1.34-2.07a2.78,2.78,0,0,0-2,1.06v7.37h-3.23Z"/><path class="cls-1" d="M275.27,159.47v-.09a2.08,2.08,0,0,1-1-1.85,2.63,2.63,0,0,1,1.23-2v-.09a3.49,3.49,0,0,1-1.47-2.84c0-2.62,2.15-3.94,4.51-3.94a5,5,0,0,1,1.69.27h4v2.35h-1.73a3,3,0,0,1,.35,1.43c0,2.51-1.89,3.68-4.29,3.68a4.44,4.44,0,0,1-1.32-.22.92.92,0,0,0-.4.81c0,.55.44.81,1.65.81h1.76c2.69,0,4.16.82,4.16,2.78,0,2.26-2.35,3.91-6.09,3.91-2.56,0-4.58-.83-4.58-2.77A2.56,2.56,0,0,1,275.27,159.47Zm3.52,2.95c1.45,0,2.51-.6,2.51-1.34s-.59-.86-1.67-.86h-1.12a6.79,6.79,0,0,1-1.54-.13,1.42,1.42,0,0,0-.6,1.07C276.37,162,277.34,162.42,278.79,162.42Zm1.23-9.86c0-1.14-.63-1.76-1.49-1.76s-1.5.59-1.5,1.76.64,1.83,1.5,1.83S280,153.77,280,152.56Z"/></svg>