<svg id="Layer_1" data-name="Layer 1" xmlns="http://www.w3.org/2000/svg" viewBox="0 0 320 320"><defs><style>.cls-1{fill:#d4ac76;}</style></defs><title>text</title><path class="cls-1" d="M29.31,195.84a6.92,6.92,0,0,1-5.07,2,6.94,6.94,0,0,1-5.08-2,6.55,6.55,0,0,1-2-4.91V179h3.48v11.52a4.29,4.29,0,0,0,.95,2.86,3.29,3.29,0,0,0,2.65,1.12,3.31,3.31,0,0,0,2.64-1.11,4.16,4.16,0,0,0,1-2.82V179h3.48v12A6.56,6.56,0,0,1,29.31,195.84Z"/><path class="cls-1" d="M37.53,197.51V179h6.66a6.32,6.32,0,0,1,6.45,6.41,5.86,5.86,0,0,1-1.89,4.46,6.44,6.44,0,0,1-4.62,1.78H41v5.9Zm6.36-15.22H41v6.22h2.93a3.29,3.29,0,0,0,2.33-.83,2.89,2.89,0,0,0,.89-2.22,3,3,0,0,0-.92-2.28A3.22,3.22,0,0,0,43.89,182.29Z"/><path class="cls-1" d="M55.75,197.51V179h6.66a6.32,6.32,0,0,1,6.44,6.41A5.85,5.85,0,0,1,67,189.83a6.44,6.44,0,0,1-4.62,1.78H59.23v5.9Zm6.36-15.22H59.23v6.22h2.93a3.26,3.26,0,0,0,2.32-.83,2.86,2.86,0,0,0,.89-2.22,3,3,0,0,0-.91-2.28A3.24,3.24,0,0,0,62.11,182.29Z"/><path class="cls-1" d="M74,197.51V179h3.48v15.21h6.82v3.34Z"/><path class="cls-1" d="M99.62,189.66H92.76v4.75h7.53v3.1h-11V179h10.8v3.09H92.76v4.52h6.86Z"/><path class="cls-1" d="M111.06,197.51,104,179h3.63l5.09,13.34,5-13.34h3.52l-7,18.55Z"/><path class="cls-1" d="M133.84,182.29V179h15.29v3.33h-5.9v15.22h-3.48V182.29Z"/><path class="cls-1" d="M153.57,197.51V179h7.26a6.27,6.27,0,0,1,4.47,1.68,5.78,5.78,0,0,1,1.78,4.4,5.54,5.54,0,0,1-1.33,3.76,6,6,0,0,1-3.46,2l5,6.73h-3.92l-4.81-6.62h-1.5v6.62Zm6.72-15.46h-3.24v6h3.24a3.42,3.42,0,0,0,2.41-.82,2.76,2.76,0,0,0,.9-2.14,2.9,2.9,0,0,0-.92-2.2A3.32,3.32,0,0,0,160.29,182.05Z"/><path class="cls-1" d="M172.51,197.51V179H176v18.55Z"/><path class="cls-1" d="M187.4,197.51,180.31,179h3.62L189,192.3l5-13.34h3.52l-7,18.55Z"/><path class="cls-1" d="M206.19,197.75a8.86,8.86,0,0,1-3.5-.73,9.09,9.09,0,0,1-3-2l2.2-2.64a6.78,6.78,0,0,0,2.05,1.65,5.13,5.13,0,0,0,2.44.65,3,3,0,0,0,2-.63,2,2,0,0,0,.77-1.6,2.76,2.76,0,0,0-2-2.58L205,189a8,8,0,0,1-3.09-2,5.07,5.07,0,0,1,.58-6.68,5.39,5.39,0,0,1,3.93-1.55,8,8,0,0,1,5.72,2.12l-2,2.59a4.8,4.8,0,0,0-3.67-1.61,2.5,2.5,0,0,0-1.66.53,1.66,1.66,0,0,0-.63,1.31,1.75,1.75,0,0,0,.49,1.27,5,5,0,0,0,1.6,1l2.16.86q4.13,1.65,4.2,5.36a5.18,5.18,0,0,1-1.75,4.06A6.74,6.74,0,0,1,206.19,197.75Z"/><path class="cls-1" d="M228.26,189.66H221.4v4.75h7.53v3.1h-11V179h10.8v3.09H221.4v4.52h6.86Z"/><path class="cls-1" d="M234.57,197.51V179h3.48v15.21h6.82v3.34Z"/><path class="cls-1" d="M261.31,197.51v-7.75h-7.95v7.75h-3.48V179h3.48v7.46h7.95V179h3.48v18.55Z"/><path class="cls-1" d="M283.18,195.84a7.55,7.55,0,0,1-10.15,0,6.55,6.55,0,0,1-2-4.91V179h3.48v11.52a4.29,4.29,0,0,0,.95,2.86,3.69,3.69,0,0,0,5.29,0,4.16,4.16,0,0,0,1-2.82V179h3.48v12A6.56,6.56,0,0,1,283.18,195.84Z"/><path class="cls-1" d="M296.4,197.75a8.85,8.85,0,0,1-3.49-.73,9.24,9.24,0,0,1-3-2l2.21-2.64a6.74,6.74,0,0,0,2,1.65,5.17,5.17,0,0,0,2.45.65,3,3,0,0,0,2-.63,2,2,0,0,0,.78-1.6,2.76,2.76,0,0,0-2-2.58l-2.07-.83a7.9,7.9,0,0,1-3.08-2,4.71,4.71,0,0,1-1-3.16,4.82,4.82,0,0,1,1.58-3.52,5.38,5.38,0,0,1,3.93-1.55,8,8,0,0,1,5.71,2.12l-2.05,2.59a4.76,4.76,0,0,0-3.66-1.61,2.49,2.49,0,0,0-1.66.53,1.66,1.66,0,0,0-.63,1.31,1.71,1.71,0,0,0,.49,1.27,5,5,0,0,0,1.59,1l2.16.86q4.14,1.65,4.21,5.36a5.22,5.22,0,0,1-1.75,4.06A6.75,6.75,0,0,1,296.4,197.75Z"/><path class="cls-1" d="M7.29,224.51V209.44H15.5V212H10.12v4.12h4.8v2.51h-4.8v5.93Z"/><path class="cls-1" d="M16.94,224.51l5.82-15.07h2.55l5.79,15.07H28.2l-.8-2.09H20.65l-.8,2.09ZM24,213.65l-2.42,6.26h4.81Z"/><path class="cls-1" d="M34.63,224.51V209.44h2L44,218.92v-9.48h2.83v15.07H45l-7.51-9.59v9.59Z"/><path class="cls-1" d="M50.5,212.15v-2.71H62.93v2.71h-4.8v12.36H55.3V212.15Z"/><path class="cls-1" d="M63.45,224.51l5.81-15.07h2.56l5.79,15.07H74.7l-.8-2.09H67.16l-.8,2.09Zm7.09-10.86-2.41,6.26h4.81Z"/><path class="cls-1" d="M85.4,224.71a7.22,7.22,0,0,1-2.85-.6,7.62,7.62,0,0,1-2.44-1.65l1.8-2.15a5.36,5.36,0,0,0,1.66,1.35,4.26,4.26,0,0,0,2,.53,2.42,2.42,0,0,0,1.61-.52,1.61,1.61,0,0,0,.63-1.3,2.24,2.24,0,0,0-1.66-2.09l-1.68-.67a6.45,6.45,0,0,1-2.5-1.67,3.83,3.83,0,0,1-.81-2.56,3.88,3.88,0,0,1,1.28-2.86,4.35,4.35,0,0,1,3.19-1.26A6.46,6.46,0,0,1,90.25,211l-1.66,2.1a3.87,3.87,0,0,0-3-1.3,2,2,0,0,0-1.35.43,1.34,1.34,0,0,0-.51,1.06,1.41,1.41,0,0,0,.4,1,4,4,0,0,0,1.29.77l1.76.71c2.24.89,3.37,2.34,3.42,4.35a4.25,4.25,0,0,1-1.42,3.3A5.54,5.54,0,0,1,85.4,224.71Z"/><path class="cls-1" d="M93.42,212.15v-2.71h12.43v2.71h-4.8v12.36H98.22V212.15Z"/><path class="cls-1" d="M109.45,224.51V209.44h2.83v15.07Z"/><path class="cls-1" d="M121.53,224.71a7.17,7.17,0,0,1-2.84-.6,7.52,7.52,0,0,1-2.44-1.65l1.79-2.15a5.48,5.48,0,0,0,1.66,1.35,4.27,4.27,0,0,0,2,.53,2.39,2.39,0,0,0,1.6-.52,1.61,1.61,0,0,0,.63-1.3,2.24,2.24,0,0,0-1.65-2.09l-1.68-.67a6.5,6.5,0,0,1-2.51-1.67,3.83,3.83,0,0,1-.81-2.56,3.92,3.92,0,0,1,1.28-2.86,4.37,4.37,0,0,1,3.2-1.26,6.5,6.5,0,0,1,4.64,1.72l-1.67,2.1a3.87,3.87,0,0,0-3-1.3,2,2,0,0,0-1.36.43,1.36,1.36,0,0,0-.5,1.06,1.44,1.44,0,0,0,.39,1,4.07,4.07,0,0,0,1.3.77l1.75.71q3.36,1.34,3.42,4.35a4.22,4.22,0,0,1-1.42,3.3A5.52,5.52,0,0,1,121.53,224.71Z"/><path class="cls-1" d="M131.06,224.51V209.44h2.61v6.64l5.77-6.64h3.49l-5.32,6,5.44,9.06h-3.26l-4.1-6.88-2,2.28v4.6Z"/><path class="cls-1" d="M154.19,224.51v-1.72l5.77-7.66a2.74,2.74,0,0,0,.82-1.74,1.92,1.92,0,0,0-.56-1.39,2,2,0,0,0-1.44-.56,1.74,1.74,0,0,0-1.43.68,2.88,2.88,0,0,0-.55,1.76h-2.61a4.6,4.6,0,0,1,1.31-3.33,4.41,4.41,0,0,1,3.3-1.37,4.58,4.58,0,0,1,3.25,1.19,3.83,3.83,0,0,1,1.28,2.89,5.77,5.77,0,0,1-1.74,3.68l-4.16,5.31h6v2.26Z"/><path class="cls-1" d="M167.23,218.11v-2.26h6v2.26Z"/><path class="cls-1" d="M177.88,224.51V209.44h5.41a5.12,5.12,0,0,1,5.23,5.2,4.77,4.77,0,0,1-1.53,3.63,5.25,5.25,0,0,1-3.75,1.44H180.7v4.8ZM183,212.15H180.7v5h2.38a2.74,2.74,0,0,0,1.9-.67,2.36,2.36,0,0,0,.72-1.81,2.47,2.47,0,0,0-.74-1.85A2.66,2.66,0,0,0,183,212.15Z"/><path class="cls-1" d="M192.68,224.51V209.44h2.83V221.8H201v2.71Z"/><path class="cls-1" d="M203.66,224.51l5.81-15.07H212l5.79,15.07h-2.9l-.8-2.09h-6.74l-.81,2.09Zm7.09-10.86-2.41,6.26h4.8Z"/><path class="cls-1" d="M221.34,224.51V209.44h2l7.42,9.48v-9.48h2.83v15.07h-1.89l-7.51-9.59v9.59Z"/><path class="cls-1" d="M242.82,224.71a7.17,7.17,0,0,1-2.84-.6,7.41,7.41,0,0,1-2.44-1.65l1.79-2.15a5.36,5.36,0,0,0,1.66,1.35,4.27,4.27,0,0,0,2,.53,2.39,2.39,0,0,0,1.6-.52,1.61,1.61,0,0,0,.63-1.3,2.24,2.24,0,0,0-1.65-2.09l-1.68-.67a6.42,6.42,0,0,1-2.51-1.67,3.83,3.83,0,0,1-.81-2.56,3.92,3.92,0,0,1,1.28-2.86,4.37,4.37,0,0,1,3.2-1.26,6.5,6.5,0,0,1,4.64,1.72l-1.67,2.1a3.87,3.87,0,0,0-3-1.3,2,2,0,0,0-1.36.43,1.34,1.34,0,0,0-.51,1.06,1.45,1.45,0,0,0,.4,1,4.07,4.07,0,0,0,1.3.77l1.75.71q3.36,1.34,3.42,4.35a4.22,4.22,0,0,1-1.42,3.3A5.52,5.52,0,0,1,242.82,224.71Z"/><path class="cls-1" d="M256.34,224.51l-5.77-15.07h3l4.14,10.83,4.09-10.83h2.86l-5.71,15.07Z"/><path class="cls-1" d="M268.16,224.51V209.44H271v15.07Z"/><path class="cls-1" d="M276.37,224.51V209.44h2.83V221.8h5.54v2.71Z"/><path class="cls-1" d="M288.81,224.51V209.44h2.83V221.8h5.54v2.71Z"/><path class="cls-1" d="M299.79,224.51l5.81-15.07h2.55l5.8,15.07H311l-.8-2.09H303.5l-.81,2.09Zm7.09-10.86-2.41,6.26h4.81Z"/></svg>