<svg id="Layer_1" data-name="Layer 1" xmlns="http://www.w3.org/2000/svg" viewBox="0 0 300 250"><defs><style>.cls-1{fill:#d4ac76;}</style></defs><title>text</title><path class="cls-1" d="M102.79,101.5l-3.62-9.28h1.46l2.78,7.13,2.78-7.13h1.43L104,101.5Z"/><path class="cls-1" d="M110.17,101.5V92.22h1.3v9.28Z"/><path class="cls-1" d="M120.29,101.5V92.22h5.06v1.24h-3.76v2.92h3.33v1.23h-3.33v3.89Z"/><path class="cls-1" d="M128.23,101.5V92.22h1.3v9.28Z"/><path class="cls-1" d="M133.33,101.5V92.22h3.45a2.9,2.9,0,0,1,2.09.81,3,3,0,0,1,.14,4,2.73,2.73,0,0,1-1.77.91l2.68,3.53h-1.59L135.66,98h-1v3.54Zm3.27-8h-2v3.35h2a1.84,1.84,0,0,0,1.31-.46,1.68,1.68,0,0,0,0-2.41A1.82,1.82,0,0,0,136.6,93.46Z"/><path class="cls-1" d="M141.84,101.5l3.73-9.28h1.17l3.65,9.28H149l-.56-1.43h-4.55l-.57,1.43Zm4.31-7.15-1.8,4.49h3.56Z"/><path class="cls-1" d="M153,101.5V92.22h3.44a2.9,2.9,0,0,1,2.09.81,2.79,2.79,0,0,1,.84,2.1A2.77,2.77,0,0,1,156.87,98l2.68,3.53H158L155.29,98h-1v3.54Zm3.27-8h-2v3.35h2a1.88,1.88,0,0,0,1.32-.46,1.59,1.59,0,0,0,.5-1.22,1.57,1.57,0,0,0-.51-1.19A1.81,1.81,0,0,0,156.24,93.46Z"/><path class="cls-1" d="M167,101.5v-.82l3.71-4.89a1.88,1.88,0,0,0,.51-1.18,1.34,1.34,0,0,0-.4-1,1.43,1.43,0,0,0-1-.4,1.32,1.32,0,0,0-1,.45,1.85,1.85,0,0,0-.42,1.17H167a2.72,2.72,0,0,1,.78-2,2.62,2.62,0,0,1,2-.8,2.8,2.8,0,0,1,2,.72,2.43,2.43,0,0,1,.77,1.82,3.37,3.37,0,0,1-1,2.06l-2.9,3.68h4v1.15Z"/><path class="cls-1" d="M178.13,101.64a3.19,3.19,0,0,1-1.88-.57,2.9,2.9,0,0,1-1.1-1.5l1.17-.46a1.88,1.88,0,0,0,1.81,1.3A1.83,1.83,0,0,0,180,98.56a1.74,1.74,0,0,0-.54-1.3,1.83,1.83,0,0,0-1.31-.52,1.71,1.71,0,0,0-1.32.56h-1.29V92.22h5.19v1.24h-3.9V96a2.53,2.53,0,0,1,1.32-.37,3.15,3.15,0,0,1,2.28.85,2.87,2.87,0,0,1,.87,2.13,3,3,0,0,1-.92,2.18A3.08,3.08,0,0,1,178.13,101.64Z"/><path class="cls-1" d="M188.28,101.5,192,92.22h1.17l3.65,9.28H195.4l-.56-1.43h-4.55l-.57,1.43Zm4.31-7.15-1.8,4.49h3.56Zm.89-2.76a1.26,1.26,0,1,1,.37-.89A1.19,1.19,0,0,1,193.48,91.59Zm-.89-.37a.48.48,0,0,0,.35-.16.49.49,0,0,0,.15-.36.51.51,0,0,0-.15-.37.47.47,0,0,0-.35-.15.51.51,0,0,0-.52.52.49.49,0,0,0,.15.36A.52.52,0,0,0,192.59,91.22Z"/><path class="cls-1" d="M199.41,101.5V92.22h3.44a2.9,2.9,0,0,1,2.09.81,2.79,2.79,0,0,1,.84,2.1A2.77,2.77,0,0,1,203.31,98L206,101.5H204.4L201.73,98h-1v3.54Zm3.27-8h-2v3.35h2a1.88,1.88,0,0,0,1.32-.46,1.59,1.59,0,0,0,.5-1.22,1.57,1.57,0,0,0-.51-1.19A1.81,1.81,0,0,0,202.68,93.46Z"/><path class="cls-1" d="M88.17,116.5l3.72-9.28h1.17l3.66,9.28H95.28l-.56-1.43H90.18l-.58,1.43Zm4.31-7.15-1.81,4.49h3.57Z"/><path class="cls-1" d="M101.15,116.5l-3.62-9.28H99l2.78,7.13,2.79-7.13H106l-3.63,9.28Z"/><path class="cls-1" d="M119.51,116.5v-4H115v4h-1.3v-9.28H115v4h4.51v-4h1.3v9.28Z"/><path class="cls-1" d="M127.83,116.66a3.23,3.23,0,0,1-2.42-1,3.34,3.34,0,0,1-.94-2.44v-6h1.29v5.94a2.4,2.4,0,0,0,.56,1.62,1.87,1.87,0,0,0,1.51.64,2,2,0,0,0,1.54-.63,2.36,2.36,0,0,0,.56-1.62v-6h1.29v6a3.34,3.34,0,0,1-.94,2.44A3.27,3.27,0,0,1,127.83,116.66Z"/><path class="cls-1" d="M137.32,116.62a4.28,4.28,0,0,1-1.73-.37,4.61,4.61,0,0,1-1.47-1l.91-1a3.62,3.62,0,0,0,1.07.85,2.8,2.8,0,0,0,1.28.33,1.8,1.8,0,0,0,1.2-.39,1.24,1.24,0,0,0,.47-1,1.63,1.63,0,0,0-1.18-1.52l-1.09-.43a3.9,3.9,0,0,1-1.52-1,2.2,2.2,0,0,1-.5-1.47,2.34,2.34,0,0,1,.77-1.75,2.66,2.66,0,0,1,1.89-.73,3.78,3.78,0,0,1,2.69,1l-.78,1a2.57,2.57,0,0,0-1.91-.83,1.48,1.48,0,0,0-1,.32,1.06,1.06,0,0,0-.38.86,1,1,0,0,0,.27.72,2.68,2.68,0,0,0,.95.57l1.11.45a2.64,2.64,0,0,1,2,2.65,2.51,2.51,0,0,1-.82,2A3.08,3.08,0,0,1,137.32,116.62Z"/><path class="cls-1" d="M143.52,116.5v-9.28H146a4.67,4.67,0,0,1,3.24,8A4.52,4.52,0,0,1,146,116.5Zm2.54-8h-1.24v6.8h1.27a3,3,0,0,0,2.29-1,3.42,3.42,0,0,0,.93-2.43,3.29,3.29,0,0,0-1-2.4A3.1,3.1,0,0,0,146.06,108.46Z"/><path class="cls-1" d="M153.79,116.5v-9.28h3.45a2.9,2.9,0,0,1,2.09.81,2.79,2.79,0,0,1,.84,2.1A2.77,2.77,0,0,1,157.7,113l2.68,3.53h-1.59L156.12,113h-1v3.54Zm3.27-8h-2v3.35h2a1.88,1.88,0,0,0,1.32-.46,1.59,1.59,0,0,0,.5-1.22,1.57,1.57,0,0,0-.51-1.19A1.82,1.82,0,0,0,157.06,108.46Z"/><path class="cls-1" d="M167.6,116.67a4.53,4.53,0,0,1-3.34-1.38,5,5,0,0,1,0-6.87A4.53,4.53,0,0,1,167.6,107a4.58,4.58,0,0,1,3.34,1.38,5,5,0,0,1,0,6.87A4.58,4.58,0,0,1,167.6,116.67Zm-2.43-2.28a3.36,3.36,0,0,0,4.86,0,3.69,3.69,0,0,0,0-5.06,3.33,3.33,0,0,0-4.85,0,3.7,3.7,0,0,0,0,5.06Zm1.56-8.15a.59.59,0,0,1-.46.2.58.58,0,0,1-.46-.2.73.73,0,0,1-.18-.5.76.76,0,0,1,.18-.51.61.61,0,0,1,.46-.2.63.63,0,0,1,.46.2.72.72,0,0,1,.19.51A.69.69,0,0,1,166.73,106.24Zm2.57,0a.57.57,0,0,1-.46.2.59.59,0,0,1-.46-.2.74.74,0,0,1-.19-.5.76.76,0,0,1,.19-.51.63.63,0,0,1,.46-.2.6.6,0,0,1,.46.2.72.72,0,0,1,.19.51A.69.69,0,0,1,169.3,106.24Z"/><path class="cls-1" d="M175.57,116.5v-9.28h1.34l3,5,3-5h1.27v9.28h-1.29v-6.85l0,0-3,4.8L177,109.69h-.08v6.81Z"/><path class="cls-1" d="M188,116.5v-9.28h1.33l3,5,3-5h1.28v9.28h-1.3v-6.85l0,0-3,4.8-2.92-4.73h-.09v6.81Z"/><path class="cls-1" d="M199.29,116.5l3.72-9.28h1.17l3.65,9.28H206.4l-.56-1.43h-4.55l-.57,1.43Zm4.3-7.15-1.8,4.49h3.57Z"/><path class="cls-1" d="M210.41,116.5v-9.28h3.44a2.88,2.88,0,0,1,2.09.81,3,3,0,0,1,.15,4,2.75,2.75,0,0,1-1.78.91L217,116.5h-1.6L212.74,113h-1v3.54Zm3.27-8h-2v3.35h2a1.85,1.85,0,0,0,1.31-.46,1.67,1.67,0,0,0,0-2.41A1.81,1.81,0,0,0,213.68,108.46Z"/></svg>