<svg id="Layer_1" data-name="Layer 1" xmlns="http://www.w3.org/2000/svg" viewBox="0 0 320 320"><defs><style>.cls-1{fill:#d4ac76;}</style></defs><title>text</title><path class="cls-1" d="M76.58,197.51V179h6.1a5.57,5.57,0,0,1,4.06,1.55,5.14,5.14,0,0,1,1.6,3.83,4.4,4.4,0,0,1-2.08,3.73,5.1,5.1,0,0,1,2,1.66,3.94,3.94,0,0,1,.77,2.35A5.08,5.08,0,0,1,87.46,196a5.82,5.82,0,0,1-4.1,1.5Zm5.7-15.46H79.79v4.66h2.77a2.59,2.59,0,0,0,1.85-.68,2.31,2.31,0,0,0,.71-1.72,2,2,0,0,0-.78-1.64A3.26,3.26,0,0,0,82.28,182.05Zm.53,7.44h-3v4.92h2.94a3,3,0,0,0,2.1-.7,2.31,2.31,0,0,0,.77-1.79,2.28,2.28,0,0,0-.72-1.76A3,3,0,0,0,82.81,189.49Z"/><path class="cls-1" d="M105,189.66H98.13v4.75h7.53v3.1h-11V179h10.8v3.09H98.13v4.52H105Z"/><path class="cls-1" d="M116.23,197.75a8.93,8.93,0,0,1-3.5-.73,9.3,9.3,0,0,1-3-2l2.21-2.64a6.79,6.79,0,0,0,2,1.66,5.27,5.27,0,0,0,2.45.64,3,3,0,0,0,2-.63,2,2,0,0,0,.78-1.6,2.76,2.76,0,0,0-2-2.58l-2.07-.83a7.9,7.9,0,0,1-3.08-2,4.71,4.71,0,0,1-1-3.16,4.82,4.82,0,0,1,1.58-3.52,5.38,5.38,0,0,1,3.93-1.55,8,8,0,0,1,5.71,2.12l-2,2.59a4.76,4.76,0,0,0-3.66-1.61,2.49,2.49,0,0,0-1.66.53,1.66,1.66,0,0,0-.63,1.31,1.71,1.71,0,0,0,.49,1.27,5,5,0,0,0,1.59,1l2.16.86c2.75,1.1,4.16,2.89,4.21,5.36a5.22,5.22,0,0,1-1.75,4.06A6.75,6.75,0,0,1,116.23,197.75Z"/><path class="cls-1" d="M146.34,188.22a9.63,9.63,0,1,1-2.82-6.8A9.22,9.22,0,0,1,146.34,188.22Zm-14,4.43a6.09,6.09,0,0,0,8.72,0,6.38,6.38,0,0,0,0-8.88,6.09,6.09,0,0,0-8.72,0,6.4,6.4,0,0,0,0,8.88Zm2.74-15.6a1.49,1.49,0,0,1-1.13.49,1.54,1.54,0,0,1-1.15-.49,1.67,1.67,0,0,1-.47-1.19,1.61,1.61,0,0,1,.46-1.17,1.65,1.65,0,0,1,1.16-.48,1.53,1.53,0,0,1,1.12.48,1.58,1.58,0,0,1,.47,1.17A1.66,1.66,0,0,1,135.08,177.05Zm5.52,0a1.79,1.79,0,0,1-2.46,0,1.59,1.59,0,0,1-.51-1.19,1.55,1.55,0,0,1,.51-1.17,1.82,1.82,0,0,1,2.46,0,1.55,1.55,0,0,1,.51,1.17A1.59,1.59,0,0,1,140.6,177.05Z"/><path class="cls-1" d="M151.67,197.51V179h3.22v8.18L162,179h4.3l-6.55,7.4,6.69,11.15h-4l-5-8.47-2.48,2.81v5.66Z"/><path class="cls-1" d="M179.58,182.29V179h15.29v3.33H189v15.22h-3.48V182.29Z"/><path class="cls-1" d="M211.49,195.84a7.55,7.55,0,0,1-10.15,0,6.55,6.55,0,0,1-2-4.91V179h3.48v11.52a4.29,4.29,0,0,0,1,2.86,3.69,3.69,0,0,0,5.29,0,4.16,4.16,0,0,0,1-2.82V179h3.48v12A6.56,6.56,0,0,1,211.49,195.84Z"/><path class="cls-1" d="M219.71,197.51V179h10.11v3.09h-6.63v5.07h5.91v3.09h-5.91v7.3Z"/><path class="cls-1" d="M234.88,197.51V179H245v3.09h-6.62v5.07h5.9v3.09h-5.9v7.3Z"/><path class="cls-1" d="M55,224.51V210.09l-3.09,1.6v-3.11l5-2.69h1.33v18.62Z"/><path class="cls-1" d="M62.37,227.89l2.13-6.26,2.91,1-3.1,6Z"/><path class="cls-1" d="M77.6,224.75a6.25,6.25,0,0,1-3.77-1.16,5.81,5.81,0,0,1-2.21-3.05l2.88-1.14A3,3,0,0,0,75.65,221a3.34,3.34,0,0,0,2.07.64,2.87,2.87,0,0,0,2.11-.9,3,3,0,0,0,.9-2.23,2.87,2.87,0,0,0-.93-2.19,3.14,3.14,0,0,0-2.22-.87,2.84,2.84,0,0,0-2.18,1H72.16V206H82.74v3.09H75.38v4.2a5,5,0,0,1,2.22-.57,6.4,6.4,0,0,1,4.62,1.65A5.56,5.56,0,0,1,84,218.52a6,6,0,0,1-1.86,4.39A6.14,6.14,0,0,1,77.6,224.75Z"/><path class="cls-1" d="M88.31,216.64v-2.79h7.35v2.79Z"/><path class="cls-1" d="M101.42,224.51V206h6.66a6.32,6.32,0,0,1,6.44,6.41,5.88,5.88,0,0,1-1.88,4.46,6.47,6.47,0,0,1-4.62,1.78H104.9v5.9Zm6.36-15.22H104.9v6.22h2.92a3.24,3.24,0,0,0,2.33-.83,2.89,2.89,0,0,0,.89-2.22,3,3,0,0,0-.91-2.28A3.24,3.24,0,0,0,107.78,209.29Z"/><path class="cls-1" d="M119.63,224.51V206h3.48v15.21h6.82v3.34Z"/><path class="cls-1" d="M133.14,224.51,140.3,206h3.14l7.13,18.55H147l-1-2.57h-8.3l-1,2.57Zm8.73-13.36-3,7.7h5.92Z"/><path class="cls-1" d="M154.91,224.51V206h2.44l9.13,11.67V206H170v18.55h-2.33l-9.24-11.81v11.81Z"/><path class="cls-1" d="M181.35,224.75a8.86,8.86,0,0,1-3.5-.73,9.24,9.24,0,0,1-3-2l2.21-2.64a6.84,6.84,0,0,0,2,1.66,5.2,5.2,0,0,0,2.44.64,3.05,3.05,0,0,0,2-.63,2,2,0,0,0,.77-1.6,2.76,2.76,0,0,0-2-2.58l-2.07-.83a7.9,7.9,0,0,1-3.08-2,4.77,4.77,0,0,1-1-3.16,4.82,4.82,0,0,1,1.58-3.52,5.39,5.39,0,0,1,3.93-1.55,8,8,0,0,1,5.71,2.12l-2,2.59a4.8,4.8,0,0,0-3.67-1.61,2.49,2.49,0,0,0-1.66.53,1.66,1.66,0,0,0-.63,1.31,1.71,1.71,0,0,0,.49,1.27,5.09,5.09,0,0,0,1.59,1l2.17.86c2.75,1.11,4.15,2.89,4.2,5.36a5.17,5.17,0,0,1-1.75,4.06A6.74,6.74,0,0,1,181.35,224.75Z"/><path class="cls-1" d="M198,224.51,190.89,206h3.62l5.1,13.34,5-13.34h3.52l-7,18.55Z"/><path class="cls-1" d="M212.54,224.51V206H216v18.55Z"/><path class="cls-1" d="M222.64,224.51V206h3.48v15.21h6.82v3.34Z"/><path class="cls-1" d="M238,224.51V206h3.48v15.21h6.82v3.34Z"/><path class="cls-1" d="M251.46,224.51,258.62,206h3.14l7.13,18.55h-3.58l-1-2.57H256l-1,2.57Zm8.73-13.36-3,7.7h5.92Z"/></svg>