<svg id="Layer_1" data-name="Layer 1" xmlns="http://www.w3.org/2000/svg" viewBox="0 0 320 320"><defs><style>.cls-1{fill:#d80201;}</style></defs><title>text</title><path class="cls-1" d="M68.47,118c-2.28,2.45-5.85,2.06-8.89,2.06v8.65H55V105.32h6.79c2.31,0,4.34.17,6.16,1.78a7.44,7.44,0,0,1,2.38,5.64A7.7,7.7,0,0,1,68.47,118Zm-4-7.95a5.46,5.46,0,0,0-3.33-.74H59.58v6.8h1.85c2.28,0,4.24-.74,4.24-3.36A3.49,3.49,0,0,0,64.48,110Z"/><path class="cls-1" d="M83,117.36a3.78,3.78,0,0,0-2-.52c-2.87,0-3.64,2-3.64,4.55v7.28H73.09V113.51h4.23v2.28A4.86,4.86,0,0,1,81.73,113a5,5,0,0,1,1.86.35Z"/><path class="cls-1" d="M87.75,109.66a2.56,2.56,0,0,1,0-5.11,2.56,2.56,0,0,1,0,5.11Zm-2.13,19V113.51h4.23v15.16Z"/><path class="cls-1" d="M98.67,129.16a8.06,8.06,0,0,1-5.77-2.52l2.24-2.59a4.92,4.92,0,0,0,3.57,1.78,1.78,1.78,0,0,0,1.92-1.68c0-2.59-6.75-1.29-6.75-6.4,0-3.08,2.55-4.8,5.42-4.8a7.83,7.83,0,0,1,4.94,1.61l-2.1,2.49a4.26,4.26,0,0,0-2.52-1c-.74,0-1.61.46-1.61,1.3,0,2.2,7,1.22,7,6.4C105,127.27,101.93,129.16,98.67,129.16Z"/><path class="cls-1" d="M128.35,128.67v-2a5.84,5.84,0,0,1-4.93,2.49c-4.55,0-7.46-3.78-7.46-8.12s2.91-8,7.35-8a6.3,6.3,0,0,1,5,2.42v-13h4.27v26.22Zm-3.78-11.83a4.25,4.25,0,1,0,4.24,4.23A4.23,4.23,0,0,0,124.57,116.84Z"/><path class="cls-1" d="M138.75,109.66a2.56,2.56,0,1,1,0-5.11,2.56,2.56,0,0,1,0,5.11Zm-2.14,19V113.51h4.24v15.16Z"/><path class="cls-1" d="M154.74,117.36a3.78,3.78,0,0,0-2-.52c-2.87,0-3.64,2-3.64,4.55v7.28h-4.23V113.51h4.23v2.28a4.86,4.86,0,0,1,4.41-2.77,5,5,0,0,1,1.86.35Z"/><path class="cls-1" d="M161,121.77c.07,2.35,1.19,4.06,3.71,4.06a4,4,0,0,0,3.61-2l3.92.63c-1.33,3.26-4,4.73-7.46,4.73-4.9,0-8.12-3.15-8.12-8.09s3.08-8,8-8,7.73,3.36,7.73,8.19v.56Zm3.68-5.74a3.44,3.44,0,0,0-3.54,3h7.18A3.52,3.52,0,0,0,164.65,116Z"/><path class="cls-1" d="M186,128.67l-5.7-6.51-.46.45v6.06h-4.23V102.45h4.23V119l5.67-5.53h5.74l-7.1,6.65,7.66,8.51Z"/><path class="cls-1" d="M197.93,117.15v11.52H193.7V117.15H192v-3.64h1.69v-5.18h4.23v5.18h3v3.64Z"/><path class="cls-1" d="M205.46,129.12a2.73,2.73,0,1,1,2.73-2.73A2.73,2.73,0,0,1,205.46,129.12ZM203.29,122V105.32h4.34V122Z"/><path class="cls-1" d="M70.85,171.67l-2-4.94H59.33l-2.13,4.94H52.37l10.11-23.84h3.44l9.83,23.84Zm-6.69-17-3.39,8.4h6.69Z"/><path class="cls-1" d="M77.81,171.67V145.45h4.24v26.22Z"/><path class="cls-1" d="M86.11,171.67V145.45h4.23v26.22Z"/><path class="cls-1" d="M106,171.67v-2a5.86,5.86,0,0,1-4.94,2.49c-4.55,0-7.45-3.78-7.45-8.12s2.9-8,7.35-8a6.3,6.3,0,0,1,5,2.42v-1.93h4.27v15.16Zm-3.78-11.83a4.25,4.25,0,1,0,4.23,4.23A4.23,4.23,0,0,0,102.21,159.84Z"/><path class="cls-1" d="M133.43,171.67v-8.3c0-2.1-.46-3.74-2.91-3.74-2.62,0-3.22,2-3.22,4.27v7.77h-4.23V145.45h4.23v13a5.54,5.54,0,0,1,4.76-2.45,5.78,5.78,0,0,1,4.41,1.86,6,6,0,0,1,1.2,4.27v9.52Z"/><path class="cls-1" d="M149,172.16c-4.17,0-7.32-1.86-7.32-6.37v-9.28H146v8.58c0,2.06.87,3.46,3.08,3.46s3.08-1.4,3.08-3.46v-8.58h4.27v9.28C156.39,170.3,153.2,172.16,149,172.16Z"/><path class="cls-1" d="M165.28,172.16a8.1,8.1,0,0,1-5.78-2.52l2.24-2.59a5,5,0,0,0,3.57,1.78,1.79,1.79,0,0,0,1.93-1.68c0-2.59-6.76-1.29-6.76-6.4,0-3.08,2.56-4.8,5.43-4.8a7.78,7.78,0,0,1,4.93,1.61l-2.1,2.49a4.21,4.21,0,0,0-2.52-1c-.73,0-1.61.46-1.61,1.3,0,2.2,7,1.22,7,6.4C171.61,170.27,168.53,172.16,165.28,172.16Z"/><path class="cls-1" d="M195,171.67v-2a5.86,5.86,0,0,1-4.94,2.49c-4.55,0-7.45-3.78-7.45-8.12s2.9-8,7.35-8a6.31,6.31,0,0,1,5,2.42v-1.93h4.27v15.16Zm-7.32-18a2.53,2.53,0,0,1,0-5.05,2.53,2.53,0,0,1,0,5.05Zm3.54,6.16a4.25,4.25,0,1,0,4.23,4.23A4.23,4.23,0,0,0,191.18,159.84Zm3.74-6.16a2.56,2.56,0,0,1-2.52-2.53,2.52,2.52,0,1,1,2.52,2.53Z"/><path class="cls-1" d="M213.19,160.36a3.78,3.78,0,0,0-2-.52c-2.87,0-3.64,2-3.64,4.55v7.28h-4.23V156.51h4.23v2.28a4.86,4.86,0,0,1,4.41-2.77,5,5,0,0,1,1.86.35Z"/><path class="cls-1" d="M61.5,209.23a9.08,9.08,0,0,1-8-4.45L56.43,202a5.35,5.35,0,0,0,4.9,3.11,3.32,3.32,0,0,0,3.6-3.29c0-4.79-10.25-2.52-10.25-10.05,0-4.13,3.32-6.79,7.28-6.79a10.27,10.27,0,0,1,6.83,2.59l-2.39,3.12a4.72,4.72,0,0,0-3.78-1.89c-1.5,0-3.25.94-3.25,2.63,0,4,10.26,2,10.26,10.15C69.63,206.29,66.13,209.23,61.5,209.23Z"/><path class="cls-1" d="M80.68,209h-2L71,193.51h4.76l4,8.54,4-8.54h4.76Z"/><path class="cls-1" d="M101.37,208.67v-2a5.86,5.86,0,0,1-4.94,2.49c-4.55,0-7.45-3.78-7.45-8.12s2.9-8,7.35-8a6.31,6.31,0,0,1,5,2.42v-1.93h4.27v15.16Zm-3.78-11.83a4.25,4.25,0,1,0,4.24,4.23A4.23,4.23,0,0,0,97.59,196.84Z"/><path class="cls-1" d="M120.06,208.67v-8.4c0-2.07-.46-3.64-2.87-3.64-2.63,0-3.26,1.92-3.26,4.2v7.84H109.7V193.51h4.23v1.86a5.57,5.57,0,0,1,4.76-2.35,5.23,5.23,0,0,1,5.6,6v9.63Z"/><path class="cls-1" d="M131.89,201.77c.07,2.35,1.19,4.06,3.71,4.06a4,4,0,0,0,3.6-2l3.92.63c-1.33,3.26-4,4.73-7.45,4.73-4.9,0-8.12-3.15-8.12-8.09s3.08-8,7.94-8,7.74,3.36,7.74,8.19v.56Zm3.67-5.74a3.44,3.44,0,0,0-3.53,3.05h7.17A3.51,3.51,0,0,0,135.56,196Z"/><path class="cls-1" d="M156.84,208.67v-8.4c0-2.07-.45-3.64-2.87-3.64-2.62,0-3.25,1.92-3.25,4.2v7.84h-4.24V193.51h4.24v1.86a5.57,5.57,0,0,1,4.76-2.35,5.23,5.23,0,0,1,5.6,6v9.63Z"/><path class="cls-1" d="M184.5,208.67v-8.3c0-1.78-.29-3.74-2.53-3.74-2.48,0-2.9,2.27-2.9,4.27v7.77h-4.24v-8a6.85,6.85,0,0,0-.31-2.52,2.47,2.47,0,0,0-2.28-1.47,2.77,2.77,0,0,0-2.38,1.36,6.39,6.39,0,0,0-.49,2.91v7.77h-4.23V193.51h4.23v1.72A5.82,5.82,0,0,1,174,193a5.14,5.14,0,0,1,4.73,2.77,5.59,5.59,0,0,1,5-2.77,5,5,0,0,1,4.23,2.17,6.62,6.62,0,0,1,.81,3.68v9.8Z"/><path class="cls-1" d="M204.37,208.67v-2a5.84,5.84,0,0,1-4.93,2.49c-4.55,0-7.46-3.78-7.46-8.12s2.91-8,7.35-8a6.3,6.3,0,0,1,5,2.42v-1.93h4.27v15.16Zm-7.31-18a2.52,2.52,0,0,1,0-5,2.52,2.52,0,0,1,0,5Zm3.53,6.17a4.25,4.25,0,1,0,4.24,4.23A4.23,4.23,0,0,0,200.59,196.84Zm3.75-6.17a2.55,2.55,0,0,1-2.52-2.52,2.52,2.52,0,1,1,2.52,2.52Z"/><path class="cls-1" d="M222.61,197.36a3.8,3.8,0,0,0-2-.52c-2.87,0-3.64,2-3.64,4.55v7.28H212.7V193.51h4.24v2.28a4.86,4.86,0,0,1,4.41-2.77,4.94,4.94,0,0,1,1.85.35Z"/><path class="cls-1" d="M235.7,208.67,230,202.16l-.45.45v6.06H225.3V182.45h4.24V199l5.67-5.53H241l-7.11,6.65,7.67,8.51Z"/><path class="cls-1" d="M247.67,197.15v11.52h-4.24V197.15h-1.68v-3.64h1.68v-5.18h4.24v5.18h3v3.64Z"/><path class="cls-1" d="M264.43,208.67v-2a5.84,5.84,0,0,1-4.93,2.49c-4.55,0-7.46-3.78-7.46-8.12s2.91-8,7.35-8a6.3,6.3,0,0,1,5,2.42v-1.93h4.27v15.16Zm-3.78-11.83a4.25,4.25,0,1,0,4.24,4.23A4.23,4.23,0,0,0,260.65,196.84Z"/></svg>