<svg id="Layer_1" data-name="Layer 1" xmlns="http://www.w3.org/2000/svg" viewBox="0 0 300 250"><defs><style>.cls-1{fill:#d4ac76;}</style></defs><title>text</title><path class="cls-1" d="M80.66,169.78a4.4,4.4,0,0,1-1.68-.35,4.46,4.46,0,0,1-1.44-1l1.06-1.27a3.34,3.34,0,0,0,1,.8,2.63,2.63,0,0,0,1.17.31,1.41,1.41,0,0,0,1-.31.94.94,0,0,0,.37-.76,1.33,1.33,0,0,0-1-1.24l-1-.4a3.66,3.66,0,0,1-1.47-1,2.24,2.24,0,0,1-.48-1.51,2.29,2.29,0,0,1,.75-1.68,2.56,2.56,0,0,1,1.89-.75,3.8,3.8,0,0,1,2.73,1l-1,1.24a2.26,2.26,0,0,0-1.75-.77,1.2,1.2,0,0,0-.8.25.8.8,0,0,0-.3.63.85.85,0,0,0,.23.61,2.39,2.39,0,0,0,.77.46l1,.41a2.76,2.76,0,0,1,2,2.57A2.47,2.47,0,0,1,82.9,169,3.23,3.23,0,0,1,80.66,169.78Z"/><path class="cls-1" d="M91,165.91H87.72v2.27h3.61v1.49H86.05v-8.89h5.17v1.48h-3.5v2.16H91Z"/><path class="cls-1" d="M100.6,169.67l-3.4-8.89h1.74l2.44,6.39,2.41-6.39h1.69l-3.37,8.89Z"/><path class="cls-1" d="M105.68,169.67l3.43-8.89h1.5l3.42,8.89h-1.72l-.47-1.23h-4l-.48,1.23Zm4.18-6.41L108.44,167h2.83Zm1.29-4a1.22,1.22,0,0,1-.37.9,1.24,1.24,0,0,1-.91.38,1.27,1.27,0,0,1-.91-.37,1.28,1.28,0,1,1,2.19-.91Zm-1.61.33a.49.49,0,0,0,.34.14.42.42,0,0,0,.32-.14.45.45,0,0,0,.14-.33.49.49,0,0,0-.14-.34.44.44,0,0,0-.33-.13.46.46,0,0,0-.33.13.48.48,0,0,0-.13.34A.44.44,0,0,0,109.54,159.59Z"/><path class="cls-1" d="M115.88,169.67v-8.89h3.48a3,3,0,0,1,2.14.8,2.78,2.78,0,0,1,.85,2.11,2.67,2.67,0,0,1-.63,1.8,2.87,2.87,0,0,1-1.66.95l2.39,3.23h-1.88l-2.31-3.18h-.71v3.18Zm3.22-7.41h-1.55v2.9h1.55a1.64,1.64,0,0,0,1.16-.4,1.33,1.33,0,0,0,.43-1,1.4,1.4,0,0,0-.45-1.06A1.57,1.57,0,0,0,119.1,162.26Z"/><path class="cls-1" d="M123.84,162.38v-1.6h7.32v1.6h-2.83v7.29h-1.66v-7.29Z"/><path class="cls-1" d="M142.59,165.91H139.3v2.27h3.62v1.49h-5.28v-8.89h5.17v1.48H139.3v2.16h3.29Z"/><path class="cls-1" d="M145.39,169.67v-8.89h3.48a3,3,0,0,1,2.14.8,2.78,2.78,0,0,1,.85,2.11,2.67,2.67,0,0,1-.63,1.8,2.87,2.87,0,0,1-1.66.95l2.39,3.23h-1.88l-2.31-3.18h-.71v3.18Zm3.22-7.41h-1.55v2.9h1.55a1.6,1.6,0,0,0,1.15-.4,1.31,1.31,0,0,0,.44-1,1.4,1.4,0,0,0-.45-1.06A1.57,1.57,0,0,0,148.61,162.26Z"/><path class="cls-1" d="M154.23,169.67v-8.89h2.93a2.65,2.65,0,0,1,1.94.74,2.45,2.45,0,0,1,.77,1.83,2.11,2.11,0,0,1-1,1.79,2.43,2.43,0,0,1,1,.8,1.84,1.84,0,0,1,.37,1.13,2.47,2.47,0,0,1-.77,1.88,2.8,2.8,0,0,1-2,.72Zm2.73-7.41h-1.19v2.23h1.33a1.2,1.2,0,0,0,.88-.33,1.09,1.09,0,0,0,.35-.82.93.93,0,0,0-.38-.78A1.54,1.54,0,0,0,157,162.26Zm.26,3.57h-1.45v2.35h1.41a1.48,1.48,0,0,0,1-.33,1.14,1.14,0,0,0,.37-.86,1.12,1.12,0,0,0-.35-.85A1.42,1.42,0,0,0,157.22,165.83Z"/><path class="cls-1" d="M164.54,169.8a3,3,0,0,1-1.83-.56,2.89,2.89,0,0,1-1.07-1.47l1.41-.74a1.74,1.74,0,0,0,.56.85,1.52,1.52,0,0,0,1,.33,1.26,1.26,0,0,0,1-.46,1.85,1.85,0,0,0,.37-1.2v-5.77h1.67v5.83a3.07,3.07,0,0,1-.89,2.35A3.11,3.11,0,0,1,164.54,169.8Z"/><path class="cls-1" d="M176,168.87a3.64,3.64,0,0,1-4.86,0,3.17,3.17,0,0,1-1-2.36v-5.73h1.66v5.52a2.08,2.08,0,0,0,.46,1.37,1.76,1.76,0,0,0,2.54,0,2,2,0,0,0,.45-1.35v-5.54H177v5.73A3.17,3.17,0,0,1,176,168.87Z"/><path class="cls-1" d="M179.75,169.67v-8.89h2.54a4.33,4.33,0,0,1,3.14,1.27,4.25,4.25,0,0,1,1.31,3.2,4.14,4.14,0,0,1-1.32,3.17,4.55,4.55,0,0,1-3.22,1.25Zm2.56-7.41h-1v5.92h1a2.52,2.52,0,0,0,2-.86,3,3,0,0,0,.79-2.12,2.93,2.93,0,0,0-.8-2.1A2.6,2.6,0,0,0,182.31,162.26Z"/><path class="cls-1" d="M187.88,169.67l3.43-8.89h1.5l3.42,8.89h-1.71l-.48-1.23h-4l-.48,1.23Zm4.18-6.41L190.64,167h2.84Z"/><path class="cls-1" d="M198.08,169.67v-8.89h1.17l4.37,5.59v-5.59h1.67v8.89h-1.11L199.75,164v5.66Z"/><path class="cls-1" d="M208.24,169.67v-8.89h2.53a4.34,4.34,0,0,1,3.15,1.27,4.28,4.28,0,0,1,1.31,3.2,4.12,4.12,0,0,1-1.33,3.17,4.53,4.53,0,0,1-3.22,1.25Zm2.55-7.41h-1v5.92h1a2.54,2.54,0,0,0,2-.86,3.2,3.2,0,0,0,0-4.22A2.62,2.62,0,0,0,210.79,162.26Z"/><path class="cls-1" d="M222.55,165.91h-3.29v2.27h3.62v1.49H217.6v-8.89h5.17v1.48h-3.51v2.16h3.29Z"/></svg>