<svg id="Layer_1" data-name="Layer 1" xmlns="http://www.w3.org/2000/svg" viewBox="0 0 320 320"><defs><style>.cls-1{fill:#d4ac76;}</style></defs><title>text</title><path class="cls-1" d="M42.77,252.59l-3.32-8.5h1.33l2.55,6.53,2.55-6.53h1.31l-3.32,8.5Z"/><path class="cls-1" d="M47.92,252.59l3.41-8.5h1.08l3.35,8.5H54.44l-.51-1.31H49.76l-.53,1.31Zm3.07-9.4a.58.58,0,0,1-.43.18.58.58,0,0,1-.42-.18.7.7,0,0,1-.17-.47.69.69,0,0,1,.17-.46.58.58,0,0,1,.42-.18.58.58,0,0,1,.43.18.69.69,0,0,1,.17.46A.7.7,0,0,1,51,243.19Zm.88,2.85-1.65,4.11h3.26Zm1.48-2.85a.58.58,0,0,1-.43.18.56.56,0,0,1-.42-.18.7.7,0,0,1-.17-.47.69.69,0,0,1,.17-.46.56.56,0,0,1,.42-.18.58.58,0,0,1,.43.18.69.69,0,0,1,.17.46A.7.7,0,0,1,53.35,243.19Z"/><path class="cls-1" d="M58.12,252.59v-8.5H59.3v7.37h3.5v1.13Z"/><path class="cls-1" d="M65.41,252.59v-8.5H66.6v4l3.54-4h1.59l-3,3.37,3.08,5.13H70.34l-2.48-4.15-1.26,1.43v2.72Z"/><path class="cls-1" d="M77.62,252.75a4.17,4.17,0,0,1-3.06-1.26,4.58,4.58,0,0,1,0-6.31,4.33,4.33,0,0,1,6.12,0,4.53,4.53,0,0,1,0,6.29A4.18,4.18,0,0,1,77.62,252.75Zm-2.22-2.09a3.08,3.08,0,0,0,4.45,0,3.24,3.24,0,0,0,.91-2.33,3.18,3.18,0,0,0-.92-2.31,3,3,0,0,0-4.44,0,3.39,3.39,0,0,0,0,4.64Z"/><path class="cls-1" d="M84.93,252.59v-8.5h1.22l2.74,4.53,2.79-4.53h1.16v8.5H91.65v-6.28l0,0-2.74,4.39-2.68-4.33h-.08v6.24Z"/><path class="cls-1" d="M96.34,252.59v-8.5h1.22l2.74,4.53,2.78-4.53h1.17v8.5h-1.19v-6.28l0,0-2.73,4.39-2.69-4.33h-.07v6.24Z"/><path class="cls-1" d="M112.43,248.86h-3.49v2.6h3.74v1.13h-4.93v-8.5h4.86v1.13h-3.67v2.51h3.49Z"/><path class="cls-1" d="M115.62,252.59v-8.5h.83l4.61,5.86v-5.86h1.18v8.5h-.65l-4.78-6.07v6.07Z"/><path class="cls-1" d="M127,252.51a.62.62,0,0,1-.47.21.73.73,0,0,1-.51-.21.62.62,0,0,1-.24-.5.66.66,0,0,1,.21-.51.73.73,0,0,1,.54-.21.66.66,0,0,1,.48.21.69.69,0,0,1,.19.51A.65.65,0,0,1,127,252.51Zm-1-2.13-.21-6.06h1.33l-.13,6.06Z"/><path class="cls-1" d="M135.11,252.59v-8.5h4.65v1.13H136.3v2.67h3.06V249H136.3v3.56Z"/><path class="cls-1" d="M146.17,252.75a4.17,4.17,0,0,1-3.06-1.26,4.58,4.58,0,0,1,0-6.31,4.33,4.33,0,0,1,6.12,0,4.53,4.53,0,0,1,0,6.29A4.18,4.18,0,0,1,146.17,252.75ZM144,250.66a3.08,3.08,0,0,0,4.45,0,3.39,3.39,0,0,0,0-4.64,3,3,0,0,0-2.23-1,3,3,0,0,0-2.22,1,3.39,3.39,0,0,0,0,4.64Zm1.43-7.47a.58.58,0,0,1-.43.18.54.54,0,0,1-.41-.18.65.65,0,0,1-.17-.47.64.64,0,0,1,.17-.46.54.54,0,0,1,.41-.18.58.58,0,0,1,.43.18.64.64,0,0,1,.17.46A.65.65,0,0,1,145.38,243.19Zm2.36,0a.58.58,0,0,1-.43.18.58.58,0,0,1-.42-.18.7.7,0,0,1-.17-.47.69.69,0,0,1,.17-.46.58.58,0,0,1,.42-.18.58.58,0,0,1,.43.18.69.69,0,0,1,.17.46A.7.7,0,0,1,147.74,243.19Z"/><path class="cls-1" d="M153.48,252.59v-8.5h3.16a2.7,2.7,0,0,1,1.92.74,2.77,2.77,0,0,1,.13,3.69,2.49,2.49,0,0,1-1.63.84l2.46,3.23h-1.46l-2.44-3.24h-1v3.24Zm3-7.37h-1.81v3.07h1.8a1.69,1.69,0,0,0,1.2-.42,1.43,1.43,0,0,0,.47-1.12,1.46,1.46,0,0,0-.47-1.09A1.68,1.68,0,0,0,156.48,245.22Z"/><path class="cls-1" d="M161.28,252.59l3.42-8.5h1.07l3.35,8.5h-1.31l-.52-1.31h-4.17l-.52,1.31Zm3.95-6.55-1.65,4.11h3.27Z"/><path class="cls-1" d="M171.48,252.59v-8.5h.83l4.61,5.86v-5.86h1.18v8.5h-.66l-4.77-6.07v6.07Z"/><path class="cls-1" d="M181.66,252.59v-8.5h1.22l2.74,4.53,2.78-4.53h1.16v8.5h-1.18v-6.28l0,0-2.74,4.39-2.68-4.33h-.08v6.24Z"/><path class="cls-1" d="M192,252.59l3.42-8.5h1.07l3.35,8.5h-1.31l-.52-1.31h-4.17l-.52,1.31Zm3.07-9.4a.58.58,0,0,1-.84,0,.7.7,0,0,1-.17-.47.69.69,0,0,1,.17-.46.58.58,0,0,1,.84,0,.65.65,0,0,1,.18.46A.66.66,0,0,1,195.05,243.19Zm.88,2.85-1.65,4.11h3.27Zm1.48-2.85a.58.58,0,0,1-.84,0,.65.65,0,0,1-.17-.47.64.64,0,0,1,.17-.46.58.58,0,0,1,.84,0,.64.64,0,0,1,.17.46A.65.65,0,0,1,197.41,243.19Z"/><path class="cls-1" d="M202.18,252.59v-8.5h1.19v7.37h3.5v1.13Z"/><path class="cls-1" d="M208.59,252.59l3.42-8.5h1.07l3.35,8.5h-1.31l-.52-1.31h-4.16l-.53,1.31Zm3.95-6.55-1.65,4.11h3.27Z"/><path class="cls-1" d="M218.79,252.59v-8.5h.83l4.61,5.86v-5.86h1.18v8.5h-.66L220,246.52v6.07Z"/><path class="cls-1" d="M237.4,252.75a4.19,4.19,0,0,1-3.07-1.26,4.58,4.58,0,0,1,0-6.31,4.35,4.35,0,0,1,6.13,0,4.53,4.53,0,0,1,0,6.29A4.21,4.21,0,0,1,237.4,252.75Zm-2.23-2.09a3.08,3.08,0,0,0,4.45,0,3.39,3.39,0,0,0,0-4.64,3.06,3.06,0,0,0-4.45,0,3.41,3.41,0,0,0,0,4.64Zm1.43-7.47a.56.56,0,0,1-.42.18.54.54,0,0,1-.42-.18.7.7,0,0,1-.17-.47.69.69,0,0,1,.17-.46.54.54,0,0,1,.42-.18.56.56,0,0,1,.42.18.65.65,0,0,1,.18.46A.66.66,0,0,1,236.6,243.19Zm2.36,0a.56.56,0,0,1-.42.18.58.58,0,0,1-.43-.18.7.7,0,0,1-.17-.47.69.69,0,0,1,.17-.46.58.58,0,0,1,.43-.18.56.56,0,0,1,.42.18.69.69,0,0,1,.17.46A.7.7,0,0,1,239,243.19Z"/><path class="cls-1" d="M244.71,252.59v-8.5h.83l4.6,5.86v-5.86h1.19v8.5h-.66l-4.77-6.07v6.07Z"/><path class="cls-1" d="M257,252.7a4,4,0,0,1-1.59-.34,4.24,4.24,0,0,1-1.34-.91l.83-1a3.31,3.31,0,0,0,1,.78,2.63,2.63,0,0,0,1.18.31,1.64,1.64,0,0,0,1.1-.36,1.16,1.16,0,0,0,.42-.91,1.48,1.48,0,0,0-1.07-1.39l-1-.4a3.51,3.51,0,0,1-1.4-.91,2,2,0,0,1-.45-1.35,2.15,2.15,0,0,1,.7-1.61A2.43,2.43,0,0,1,257,244a3.43,3.43,0,0,1,2.47.94l-.71,1a2.37,2.37,0,0,0-1.76-.77,1.34,1.34,0,0,0-.9.3,1,1,0,0,0-.34.79.91.91,0,0,0,.25.65,2.45,2.45,0,0,0,.86.53l1,.41a2.42,2.42,0,0,1,1.79,2.43A2.34,2.34,0,0,1,259,252,2.86,2.86,0,0,1,257,252.7Z"/><path class="cls-1" d="M262.64,252.59v-8.5h1.18v4l3.55-4H269l-3,3.37,3.08,5.13h-1.47l-2.48-4.15-1.27,1.43v2.72Z"/><path class="cls-1" d="M270.82,252.59l3.42-8.5h1.07l3.35,8.5h-1.32l-.51-1.31h-4.17l-.52,1.31Zm3.95-6.55-1.65,4.11h3.26Z"/><path class="cls-1" d="M283.29,252.7a3.89,3.89,0,0,1-1.59-.34,4.28,4.28,0,0,1-1.35-.91l.84-1a3.31,3.31,0,0,0,1,.78,2.56,2.56,0,0,0,1.17.31,1.64,1.64,0,0,0,1.1-.36,1.14,1.14,0,0,0,.43-.91,1.49,1.49,0,0,0-1.08-1.39l-1-.4a3.46,3.46,0,0,1-1.39-.91,2,2,0,0,1-.46-1.35,2.19,2.19,0,0,1,.7-1.61,2.45,2.45,0,0,1,1.74-.66,3.46,3.46,0,0,1,2.47.94l-.72,1a2.34,2.34,0,0,0-1.75-.77,1.32,1.32,0,0,0-.9.3,1,1,0,0,0-.35.79.91.91,0,0,0,.25.65,2.41,2.41,0,0,0,.87.53l1,.41a2.43,2.43,0,0,1,1.79,2.43,2.34,2.34,0,0,1-.75,1.79A2.9,2.9,0,0,1,283.29,252.7Z"/><path class="cls-1" d="M58.75,265.7a3.89,3.89,0,0,1-1.59-.34,4.17,4.17,0,0,1-1.35-.91l.84-1a3.19,3.19,0,0,0,1,.78,2.56,2.56,0,0,0,1.17.31,1.64,1.64,0,0,0,1.1-.36,1.17,1.17,0,0,0,.43-.91,1.49,1.49,0,0,0-1.08-1.39l-1-.4a3.39,3.39,0,0,1-1.39-.91,2,2,0,0,1-.46-1.35,2.15,2.15,0,0,1,.7-1.61,2.45,2.45,0,0,1,1.74-.66,3.42,3.42,0,0,1,2.46.94l-.71,1a2.34,2.34,0,0,0-1.75-.77,1.32,1.32,0,0,0-.9.3,1,1,0,0,0-.35.79.91.91,0,0,0,.25.65,2.41,2.41,0,0,0,.87.53l1,.41a2.41,2.41,0,0,1,1.78,2.43,2.34,2.34,0,0,1-.75,1.79A2.85,2.85,0,0,1,58.75,265.7Z"/><path class="cls-1" d="M68.32,265.75a4.19,4.19,0,0,1-3.07-1.26,4.58,4.58,0,0,1,0-6.31,4.35,4.35,0,0,1,6.13,0,4.53,4.53,0,0,1,0,6.29A4.21,4.21,0,0,1,68.32,265.75Zm-2.23-2.09a3.08,3.08,0,0,0,4.45,0,3.39,3.39,0,0,0,0-4.64,3.06,3.06,0,0,0-4.45,0,3.41,3.41,0,0,0,0,4.64Zm1.43-7.47a.56.56,0,0,1-.42.18.54.54,0,0,1-.42-.18.7.7,0,0,1-.17-.47.69.69,0,0,1,.17-.46.54.54,0,0,1,.42-.18.56.56,0,0,1,.42.18.65.65,0,0,1,.18.46A.66.66,0,0,1,67.52,256.19Zm2.36,0a.54.54,0,0,1-.42.18.58.58,0,0,1-.43-.18.7.7,0,0,1-.17-.47.69.69,0,0,1,.17-.46.58.58,0,0,1,.43-.18.54.54,0,0,1,.42.18.69.69,0,0,1,.17.46A.7.7,0,0,1,69.88,256.19Z"/><path class="cls-1" d="M75.63,265.59v-8.5h.83l4.6,5.86v-5.86h1.19v8.5h-.66l-4.77-6.07v6.07Z"/><path class="cls-1" d="M85.8,265.59v-8.5h2.28a4.22,4.22,0,0,1,4.21,4.23A4.17,4.17,0,0,1,88,265.59Zm2.33-7.37H87v6.24h1.17a2.79,2.79,0,0,0,2.1-.91,3.17,3.17,0,0,0,.84-2.23,3,3,0,0,0-.87-2.2A2.85,2.85,0,0,0,88.13,258.22Z"/><path class="cls-1" d="M94,265.59l3.41-8.5h1.07l3.35,8.5H100.5l-.52-1.31H95.82l-.53,1.31ZM97.92,259l-1.65,4.11h3.27Z"/><path class="cls-1" d="M109.32,261.89v-1.13h2.83v.6a4.37,4.37,0,0,1-4.4,4.37,4.13,4.13,0,0,1-3.1-1.27,4.57,4.57,0,0,1,0-6.28,4.17,4.17,0,0,1,3.1-1.27,4.54,4.54,0,0,1,1.79.36,4.27,4.27,0,0,1,1.45,1l-.88.9a3.09,3.09,0,0,0-4.62-.14,3.43,3.43,0,0,0,0,4.63,3,3,0,0,0,2.26,1,3.07,3.07,0,0,0,2-.74,3.25,3.25,0,0,0,1.07-2Z"/><path class="cls-1" d="M119.08,265.59v-.75l3.4-4.48a1.76,1.76,0,0,0,.47-1.08,1.23,1.23,0,0,0-.37-.91,1.34,1.34,0,0,0-1-.37,1.19,1.19,0,0,0-.93.41,1.62,1.62,0,0,0-.39,1.08h-1.19a2.53,2.53,0,0,1,.71-1.81,2.38,2.38,0,0,1,1.8-.73,2.55,2.55,0,0,1,1.81.66,2.2,2.2,0,0,1,.71,1.67,3.06,3.06,0,0,1-.89,1.88l-2.66,3.38h3.66v1Z"/><path class="cls-1" d="M126.51,265.59v-.75l3.4-4.48a1.72,1.72,0,0,0,.48-1.08,1.24,1.24,0,0,0-.38-.91,1.31,1.31,0,0,0-.95-.37,1.23,1.23,0,0,0-.94.41,1.73,1.73,0,0,0-.39,1.08h-1.18a2.52,2.52,0,0,1,.7-1.81,2.4,2.4,0,0,1,1.81-.73,2.57,2.57,0,0,1,1.81.66,2.19,2.19,0,0,1,.7,1.67,3,3,0,0,1-.89,1.88L128,264.54h3.65v1Z"/><path class="cls-1" d="M141.36,265.7a3.89,3.89,0,0,1-1.59-.34,4.17,4.17,0,0,1-1.35-.91l.84-1a3.19,3.19,0,0,0,1,.78,2.56,2.56,0,0,0,1.17.31,1.64,1.64,0,0,0,1.1-.36,1.17,1.17,0,0,0,.43-.91,1.49,1.49,0,0,0-1.08-1.39l-1-.4a3.39,3.39,0,0,1-1.39-.91,2,2,0,0,1-.46-1.35,2.15,2.15,0,0,1,.7-1.61,2.45,2.45,0,0,1,1.74-.66,3.42,3.42,0,0,1,2.46.94l-.71,1a2.34,2.34,0,0,0-1.75-.77,1.32,1.32,0,0,0-.9.3,1,1,0,0,0-.35.79.91.91,0,0,0,.25.65,2.45,2.45,0,0,0,.86.53l1,.41a2.41,2.41,0,0,1,1.78,2.43,2.34,2.34,0,0,1-.75,1.79A2.85,2.85,0,0,1,141.36,265.7Z"/><path class="cls-1" d="M151.73,261.86h-3.5v2.6H152v1.13H147v-8.5h4.86v1.13h-3.67v2.51h3.5Z"/><path class="cls-1" d="M154.92,265.59v-8.5h2.9a2.66,2.66,0,0,1,2,.79,2.74,2.74,0,0,1,.79,2,2.67,2.67,0,0,1-.81,2,2.75,2.75,0,0,1-2,.8H156.1v2.9Zm2.82-7.37H156.1v3.33h1.65a1.61,1.61,0,0,0,1.18-.45,1.59,1.59,0,0,0,.46-1.2,1.62,1.62,0,0,0-.47-1.2A1.57,1.57,0,0,0,157.74,258.22Z"/><path class="cls-1" d="M162.33,258.22v-1.13h6.89v1.13h-2.85v7.37h-1.19v-7.37Z"/><path class="cls-1" d="M176.27,261.86h-3.5v2.6h3.74v1.13h-4.93v-8.5h4.86v1.13h-3.67v2.51h3.5Z"/><path class="cls-1" d="M179.46,265.59v-8.5h1.22l2.74,4.53,2.78-4.53h1.17v8.5h-1.19v-6.28l0,0-2.74,4.39-2.68-4.33h-.08v6.24Z"/><path class="cls-1" d="M190.86,265.59v-8.5h2.6a2.73,2.73,0,0,1,1.88.66,2.18,2.18,0,0,1,.74,1.71,2,2,0,0,1-1,1.83,2.15,2.15,0,0,1,.92.76,2.07,2.07,0,0,1,.34,1.15,2.21,2.21,0,0,1-.75,1.74,2.78,2.78,0,0,1-1.89.65Zm2.48-7.37h-1.29v2.59h1.51a1.31,1.31,0,0,0,.95-.38,1.33,1.33,0,0,0,.38-1,1.07,1.07,0,0,0-.43-.89A1.7,1.7,0,0,0,193.34,258.22Zm.27,3.64h-1.56v2.6h1.48a1.78,1.78,0,0,0,1.17-.36,1.22,1.22,0,0,0,.43-1,1.18,1.18,0,0,0-.39-.91A1.66,1.66,0,0,0,193.61,261.86Z"/><path class="cls-1" d="M204,261.86h-3.5v2.6h3.74v1.13H199.3v-8.5h4.86v1.13h-3.67v2.51H204Z"/><path class="cls-1" d="M207.18,265.59v-8.5h3.15a2.7,2.7,0,0,1,1.92.74,2.77,2.77,0,0,1,.13,3.69,2.49,2.49,0,0,1-1.63.84l2.46,3.23h-1.46l-2.44-3.24h-.95v3.24Zm3-7.37h-1.81v3.07h1.8a1.69,1.69,0,0,0,1.2-.42,1.43,1.43,0,0,0,.47-1.12,1.46,1.46,0,0,0-.47-1.09A1.68,1.68,0,0,0,210.17,258.22Z"/><path class="cls-1" d="M220.6,265.59v-8.5h1.18v4l3.55-4h1.59l-3,3.37,3.08,5.13h-1.48l-2.47-4.15-1.27,1.43v2.72Z"/><path class="cls-1" d="M229.58,265.59v-8.5h1.19v7.37h3.5v1.13Z"/><path class="cls-1" d="M242.44,265.59v-7l-1.59.81v-1.13L243.1,257h.53v8.55Z"/><path class="cls-1" d="M246.37,265.59v-.75l3.4-4.48a1.76,1.76,0,0,0,.47-1.08,1.23,1.23,0,0,0-.37-.91,1.34,1.34,0,0,0-1-.37,1.19,1.19,0,0,0-.93.41,1.62,1.62,0,0,0-.39,1.08H246.4a2.53,2.53,0,0,1,.71-1.81,2.38,2.38,0,0,1,1.8-.73,2.54,2.54,0,0,1,1.81.66,2.2,2.2,0,0,1,.71,1.67,3.06,3.06,0,0,1-.89,1.88l-2.66,3.38h3.66v1Z"/><path class="cls-1" d="M254,261.88v-1.05h3.32v1.05Z"/><path class="cls-1" d="M260.5,265.59v-7l-1.59.81v-1.13l2.25-1.25h.53v8.55Z"/><path class="cls-1" d="M267.23,265.72a2.86,2.86,0,0,1-1.71-.52,2.65,2.65,0,0,1-1-1.38l1.08-.42a1.68,1.68,0,0,0,.61.85,1.66,1.66,0,0,0,1,.34,1.66,1.66,0,0,0,1.71-1.69,1.61,1.61,0,0,0-.5-1.2,1.66,1.66,0,0,0-1.2-.48,1.59,1.59,0,0,0-1.2.52h-1.19v-4.65h4.76v1.13H266v2.29a2.18,2.18,0,0,1,1.2-.34,2.86,2.86,0,0,1,2.09.78,2.61,2.61,0,0,1,.8,1.95,2.7,2.7,0,0,1-.84,2A2.8,2.8,0,0,1,267.23,265.72Z"/></svg>