<svg id="Layer_1" data-name="Layer 1" xmlns="http://www.w3.org/2000/svg" viewBox="0 0 320 320"><defs><style>.cls-1{fill:#d80201;}</style></defs><title>text</title><path class="cls-1" d="M93.68,184c-2,2.17-5.18,1.83-7.88,1.83v7.66h-4V172.82h6c2,0,3.84.15,5.46,1.58a6.6,6.6,0,0,1,2.1,5A6.77,6.77,0,0,1,93.68,184Zm-3.53-7a4.84,4.84,0,0,0-3-.65H85.8v6h1.65c2,0,3.75-.65,3.75-3A3.08,3.08,0,0,0,90.15,177Z"/><path class="cls-1" d="M106.54,183.49a3.23,3.23,0,0,0-1.79-.47c-2.55,0-3.23,1.8-3.23,4v6.45H97.77V180.08h3.75v2a4.32,4.32,0,0,1,3.91-2.45,4.23,4.23,0,0,1,1.64.31Z"/><path class="cls-1" d="M112.06,187.39c.06,2.08,1,3.6,3.29,3.6a3.51,3.51,0,0,0,3.19-1.8l3.47.56a6.58,6.58,0,0,1-6.6,4.18c-4.34,0-7.19-2.79-7.19-7.16s2.72-7.13,7-7.13,6.86,3,6.86,7.26v.49Zm3.26-5.08a3,3,0,0,0-3.14,2.69h6.36A3.11,3.11,0,0,0,115.32,182.31Z"/><path class="cls-1" d="M142.13,193.5v-7.35c0-1.58-.25-3.32-2.23-3.32-2.2,0-2.57,2-2.57,3.79v6.88h-3.76v-7.13a6.16,6.16,0,0,0-.27-2.23,2.19,2.19,0,0,0-2-1.31,2.46,2.46,0,0,0-2.11,1.21,5.65,5.65,0,0,0-.43,2.58v6.88H125V180.08h3.75v1.51a5.15,5.15,0,0,1,4.09-2,4.58,4.58,0,0,1,4.19,2.45,5,5,0,0,1,4.4-2.45,4.41,4.41,0,0,1,3.75,1.92,5.92,5.92,0,0,1,.71,3.26v8.68Z"/><path class="cls-1" d="M151.31,176.66a2.26,2.26,0,1,1,0-4.52,2.26,2.26,0,0,1,0,4.52Zm-1.9,16.84V180.08h3.76V193.5Z"/><path class="cls-1" d="M167,193.5v-1.77a5.17,5.17,0,0,1-4.37,2.2c-4,0-6.6-3.34-6.6-7.19s2.57-7.1,6.51-7.1a5.57,5.57,0,0,1,4.46,2.14v-1.7h3.78V193.5Zm-6.48-15.94a2.23,2.23,0,0,1,0-4.46,2.23,2.23,0,1,1,0,4.46Zm3.13,5.46a3.77,3.77,0,1,0,3.75,3.75A3.75,3.75,0,0,0,163.61,183Zm3.32-5.46a2.26,2.26,0,0,1-2.23-2.23,2.23,2.23,0,1,1,2.23,2.23Z"/><path class="cls-1" d="M183.11,183.49a3.24,3.24,0,0,0-1.8-.47c-2.54,0-3.22,1.8-3.22,4v6.45h-3.75V180.08h3.75v2a4.32,4.32,0,0,1,3.91-2.45,4.26,4.26,0,0,1,1.64.31Z"/><path class="cls-1" d="M202.42,193.5v-7.44c0-1.83-.4-3.23-2.54-3.23-2.32,0-2.88,1.71-2.88,3.73v6.94h-3.75V180.08H197v1.64a4.94,4.94,0,0,1,4.22-2.08,4.64,4.64,0,0,1,5,5.33v8.53Z"/><path class="cls-1" d="M213,200.69h-4.24l4.93-9.2-6.36-11.41h4.37l4,7.62,3.85-7.62h4.28Z"/><path class="cls-1" d="M229.46,183.3v10.2H225.7V183.3h-1.48v-3.22h1.48v-4.59h3.76v4.59h2.63v3.22Z"/><path class="cls-1" d="M237.83,183.3v10.2h-3.76V183.3h-1.48v-3.22h1.48v-4.59h3.76v4.59h2.63v3.22Z"/><path class="cls-1" d="M89,226.78H87.31l-6.85-13.7h4.21l3.54,7.56,3.53-7.56H96Z"/><path class="cls-1" d="M99.61,209.66a2.26,2.26,0,1,1,2.24-2.26A2.27,2.27,0,0,1,99.61,209.66ZM97.72,226.5V213.08h3.75V226.5Z"/><path class="cls-1" d="M109.29,226.93a7.11,7.11,0,0,1-5.12-2.23l2-2.29a4.38,4.38,0,0,0,3.17,1.58,1.58,1.58,0,0,0,1.7-1.49c0-2.29-6-1.15-6-5.67,0-2.73,2.26-4.25,4.8-4.25a7,7,0,0,1,4.38,1.42l-1.86,2.21a3.76,3.76,0,0,0-2.24-.9c-.65,0-1.42.4-1.42,1.15,0,1.95,6.2,1.08,6.2,5.67C114.9,225.26,112.17,226.93,109.29,226.93Z"/><path class="cls-1" d="M126.74,226.5v-7.44c0-1.83-.4-3.23-2.54-3.23-2.33,0-2.89,1.71-2.89,3.73v6.94h-3.75V213.08h3.75v1.64a5,5,0,0,1,4.22-2.08,4.63,4.63,0,0,1,5,5.33v8.53Z"/><path class="cls-1" d="M135.91,209.66a2.26,2.26,0,1,1,2.24-2.26A2.27,2.27,0,0,1,135.91,209.66ZM134,226.5V213.08h3.75V226.5Z"/><path class="cls-1" d="M150.49,226.5v-7.44c0-1.83-.41-3.23-2.55-3.23-2.32,0-2.88,1.71-2.88,3.73v6.94h-3.75V213.08h3.75v1.64a4.94,4.94,0,0,1,4.22-2.08,4.64,4.64,0,0,1,5,5.33v8.53Z"/><path class="cls-1" d="M170.29,231.37a7.31,7.31,0,0,1-5.7,2.35c-3.44,0-6.76-2-7.13-5.64h4.06a3,3,0,0,0,3.19,2.45c2.36,0,3.32-1.64,3.32-3.81v-2a5.57,5.57,0,0,1-4.53,2.23c-4,0-6.38-3.19-6.38-7s2.48-7.32,6.57-7.32a5,5,0,0,1,4.34,2.17v-1.73h3.78V226C171.81,228.11,171.72,229.69,170.29,231.37ZM164.74,216a3.77,3.77,0,1,0,3.76,3.75A3.75,3.75,0,0,0,164.74,216Z"/><path class="cls-1" d="M179.69,226.93a7.11,7.11,0,0,1-5.12-2.23l2-2.29a4.38,4.38,0,0,0,3.17,1.58,1.58,1.58,0,0,0,1.7-1.49c0-2.29-6-1.15-6-5.67,0-2.73,2.26-4.25,4.8-4.25a7,7,0,0,1,4.38,1.42l-1.86,2.21a3.76,3.76,0,0,0-2.24-.9c-.65,0-1.42.4-1.42,1.15,0,1.95,6.2,1.08,6.2,5.67C185.3,225.26,182.57,226.93,179.69,226.93Z"/><path class="cls-1" d="M197.14,226.5v-7.35c0-1.86-.4-3.32-2.57-3.32-2.33,0-2.86,1.8-2.86,3.79v6.88H188V203.28h3.75v11.53a4.89,4.89,0,0,1,4.22-2.17,5.15,5.15,0,0,1,3.91,1.64,5.34,5.34,0,0,1,1,3.79v8.43Z"/><path class="cls-1" d="M211,226.93c-3.69,0-6.48-1.64-6.48-5.64v-8.21h3.76v7.59c0,1.83.77,3.07,2.72,3.07s2.73-1.24,2.73-3.07v-7.59h3.79v8.21C217.48,225.29,214.65,226.93,211,226.93Z"/><path class="cls-1" d="M225.35,226.93a7.13,7.13,0,0,1-5.12-2.23l2-2.29a4.34,4.34,0,0,0,3.16,1.58,1.58,1.58,0,0,0,1.7-1.49c0-2.29-6-1.15-6-5.67,0-2.73,2.26-4.25,4.81-4.25a6.92,6.92,0,0,1,4.37,1.42l-1.86,2.21a3.73,3.73,0,0,0-2.23-.9c-.66,0-1.43.4-1.43,1.15,0,1.95,6.2,1.08,6.2,5.67C231,225.26,228.23,226.93,225.35,226.93Z"/><path class="cls-1" d="M235.7,226.9a2.42,2.42,0,1,1,2.42-2.41A2.42,2.42,0,0,1,235.7,226.9Zm-1.92-6.32V205.82h3.84v14.76Z"/></svg>