<svg id="Layer_1" data-name="Layer 1" xmlns="http://www.w3.org/2000/svg" viewBox="0 0 320 320"><defs><style>.cls-1{fill:#d4ac76;}</style></defs><title>text</title><path class="cls-1" d="M28.31,195.84a6.92,6.92,0,0,1-5.07,2,6.94,6.94,0,0,1-5.08-2,6.55,6.55,0,0,1-2-4.91V179h3.48v11.52a4.29,4.29,0,0,0,.95,2.86,3.29,3.29,0,0,0,2.65,1.12,3.31,3.31,0,0,0,2.64-1.11,4.16,4.16,0,0,0,1-2.82V179h3.48v12A6.56,6.56,0,0,1,28.31,195.84Z"/><path class="cls-1" d="M36.53,197.51V179h6.66a6.32,6.32,0,0,1,6.45,6.41,5.86,5.86,0,0,1-1.89,4.46,6.44,6.44,0,0,1-4.62,1.78H40v5.9Zm6.36-15.22H40v6.22h2.93a3.29,3.29,0,0,0,2.33-.83,2.89,2.89,0,0,0,.89-2.22,3,3,0,0,0-.92-2.28A3.22,3.22,0,0,0,42.89,182.29Z"/><path class="cls-1" d="M54.75,197.51V179h6.66a6.32,6.32,0,0,1,6.44,6.41A5.85,5.85,0,0,1,66,189.83a6.44,6.44,0,0,1-4.62,1.78H58.23v5.9Zm6.36-15.22H58.23v6.22h2.93a3.26,3.26,0,0,0,2.32-.83,2.86,2.86,0,0,0,.89-2.22,3,3,0,0,0-.91-2.28A3.24,3.24,0,0,0,61.11,182.29Z"/><path class="cls-1" d="M73,197.51V179h3.48v15.21h6.82v3.34Z"/><path class="cls-1" d="M98.62,189.66H91.76v4.75h7.53v3.1h-11V179h10.8v3.09H91.76v4.52h6.86Z"/><path class="cls-1" d="M110.06,197.51,103,179h3.63l5.09,13.34,5-13.34h3.52l-7,18.55Z"/><path class="cls-1" d="M132.84,182.29V179h15.29v3.33h-5.9v15.22h-3.48V182.29Z"/><path class="cls-1" d="M152.57,197.51V179h7.26a6.27,6.27,0,0,1,4.47,1.68,5.78,5.78,0,0,1,1.78,4.4,5.54,5.54,0,0,1-1.33,3.76,6,6,0,0,1-3.46,2l5,6.73h-3.92l-4.81-6.62h-1.5v6.62Zm6.72-15.46h-3.24v6h3.24a3.42,3.42,0,0,0,2.41-.82,2.76,2.76,0,0,0,.9-2.14,2.9,2.9,0,0,0-.92-2.2A3.32,3.32,0,0,0,159.29,182.05Z"/><path class="cls-1" d="M171.51,197.51V179H175v18.55Z"/><path class="cls-1" d="M186.4,197.51,179.31,179h3.62L188,192.3l5-13.34h3.52l-7,18.55Z"/><path class="cls-1" d="M205.19,197.75a8.86,8.86,0,0,1-3.5-.73,9.09,9.09,0,0,1-3-2l2.2-2.64a6.78,6.78,0,0,0,2.05,1.65,5.13,5.13,0,0,0,2.44.65,3,3,0,0,0,2-.63,2,2,0,0,0,.77-1.6,2.76,2.76,0,0,0-2-2.58L204,189a8,8,0,0,1-3.09-2,5.07,5.07,0,0,1,.58-6.68,5.39,5.39,0,0,1,3.93-1.55,8,8,0,0,1,5.72,2.12l-2,2.59a4.8,4.8,0,0,0-3.67-1.61,2.5,2.5,0,0,0-1.66.53,1.66,1.66,0,0,0-.63,1.31,1.75,1.75,0,0,0,.49,1.27,5,5,0,0,0,1.6,1l2.16.86q4.13,1.65,4.2,5.36a5.18,5.18,0,0,1-1.75,4.06A6.74,6.74,0,0,1,205.19,197.75Z"/><path class="cls-1" d="M227.26,189.66H220.4v4.75h7.53v3.1h-11V179h10.8v3.09H220.4v4.52h6.86Z"/><path class="cls-1" d="M233.57,197.51V179h3.48v15.21h6.82v3.34Z"/><path class="cls-1" d="M260.31,197.51v-7.75h-7.95v7.75h-3.48V179h3.48v7.46h7.95V179h3.48v18.55Z"/><path class="cls-1" d="M282.18,195.84a7.55,7.55,0,0,1-10.15,0,6.55,6.55,0,0,1-2-4.91V179h3.48v11.52a4.29,4.29,0,0,0,.95,2.86,3.69,3.69,0,0,0,5.29,0,4.16,4.16,0,0,0,1-2.82V179h3.48v12A6.56,6.56,0,0,1,282.18,195.84Z"/><path class="cls-1" d="M295.4,197.75a8.85,8.85,0,0,1-3.49-.73,9.24,9.24,0,0,1-3-2l2.21-2.64a6.74,6.74,0,0,0,2,1.65,5.17,5.17,0,0,0,2.45.65,3,3,0,0,0,2-.63,2,2,0,0,0,.78-1.6,2.76,2.76,0,0,0-2-2.58l-2.07-.83a7.9,7.9,0,0,1-3.08-2,4.71,4.71,0,0,1-1-3.16,4.82,4.82,0,0,1,1.58-3.52,5.38,5.38,0,0,1,3.93-1.55,8,8,0,0,1,5.71,2.12l-2.05,2.59a4.76,4.76,0,0,0-3.66-1.61,2.49,2.49,0,0,0-1.66.53,1.66,1.66,0,0,0-.63,1.31,1.71,1.71,0,0,0,.49,1.27,5,5,0,0,0,1.59,1l2.16.86q4.14,1.65,4.21,5.36a5.22,5.22,0,0,1-1.75,4.06A6.75,6.75,0,0,1,295.4,197.75Z"/><path class="cls-1" d="M33.7,224.51,26.61,206h3.62l5.1,13.34,5-13.34h3.52l-7,18.55Z"/><path class="cls-1" d="M48.26,224.51V206h3.48v18.55Z"/><path class="cls-1" d="M63.12,224.75a8.9,8.9,0,0,1-3.5-.73,9.3,9.3,0,0,1-3-2l2.21-2.64a6.62,6.62,0,0,0,2,1.65,5.17,5.17,0,0,0,2.45.65,3,3,0,0,0,2-.63,2,2,0,0,0,.78-1.6,2.76,2.76,0,0,0-2-2.58L62,216a7.9,7.9,0,0,1-3.08-2,4.71,4.71,0,0,1-1-3.16,4.81,4.81,0,0,1,1.57-3.52,5.41,5.41,0,0,1,3.94-1.55,8,8,0,0,1,5.71,2.12l-2,2.59a4.78,4.78,0,0,0-3.66-1.61,2.53,2.53,0,0,0-1.67.53,1.68,1.68,0,0,0-.62,1.31,1.71,1.71,0,0,0,.49,1.27,4.86,4.86,0,0,0,1.59,1l2.16.86q4.13,1.65,4.2,5.36a5.21,5.21,0,0,1-1.74,4.06A6.75,6.75,0,0,1,63.12,224.75Z"/><path class="cls-1" d="M74.85,224.51V206h2.44l9.13,11.66V206H89.9v18.55H87.57L78.33,212.7v11.81Z"/><path class="cls-1" d="M96.52,224.51V206H100v18.55Z"/><path class="cls-1" d="M106.62,224.51V206h2.44l9.13,11.66V206h3.48v18.55h-2.33L110.1,212.7v11.81Z"/><path class="cls-1" d="M139.62,216.76v-3.1h6.65l0,1.59a9.57,9.57,0,0,1-1.36,4.92,9.43,9.43,0,0,1-3.51,3.42,9.71,9.71,0,0,1-4.73,1.21,9.63,9.63,0,1,1,0-19.25,9.14,9.14,0,0,1,6.91,3l-2.38,2.34a6,6,0,0,0-4.56-2,5.91,5.91,0,0,0-4.44,1.81,6.57,6.57,0,0,0,0,8.94,5.65,5.65,0,0,0,4.22,1.82,6.56,6.56,0,0,0,4.12-1.29,5.89,5.89,0,0,0,2.19-3.41Z"/><path class="cls-1" d="M161.27,224.51V206h3.48v18.55Z"/><path class="cls-1" d="M192.35,224.51v-7.75h-7.94v7.75h-3.48V206h3.48v7.46h7.94V206h3.48v18.55Z"/><path class="cls-1" d="M212.8,216.66h-6.86v4.75h7.53v3.1h-11V206h10.8v3.09h-7.32v4.52h6.86Z"/><path class="cls-1" d="M219.11,224.51V206h3.48v15.21h6.82v3.34Z"/><path class="cls-1" d="M244.74,216.76v-3.1h6.65l0,1.59a9.57,9.57,0,0,1-1.36,4.92,9.43,9.43,0,0,1-3.51,3.42,9.71,9.71,0,0,1-4.73,1.21,9.63,9.63,0,1,1,0-19.25,9.14,9.14,0,0,1,6.91,3l-2.38,2.34a6,6,0,0,0-4.56-2,5.91,5.91,0,0,0-4.44,1.81,6.57,6.57,0,0,0,0,8.94,5.65,5.65,0,0,0,4.22,1.82,6.56,6.56,0,0,0,4.12-1.29,5.89,5.89,0,0,0,2.19-3.41Z"/><path class="cls-1" d="M267.18,216.66h-6.86v4.75h7.54v3.1h-11V206h10.8v3.09h-7.32v4.52h6.86Z"/><path class="cls-1" d="M273.49,224.51V206h2.44l9.13,11.66V206h3.48v18.55h-2.33L277,212.7v11.81Z"/></svg>