<svg id="Layer_1" data-name="Layer 1" xmlns="http://www.w3.org/2000/svg" viewBox="0 0 300 250"><defs><style>.cls-1{fill:#d4ac76;}</style></defs><title>text</title><path class="cls-1" d="M15.79,44.18V24.85H21.3a9.46,9.46,0,0,1,6.84,2.77,9.28,9.28,0,0,1,2.85,7,9,9,0,0,1-2.88,6.9,9.88,9.88,0,0,1-7,2.7Zm5.55-16.1h-2.2V41h2.23a5.58,5.58,0,0,0,4.28-1.87,6.57,6.57,0,0,0,1.71-4.6,6.4,6.4,0,0,0-1.74-4.57A5.68,5.68,0,0,0,21.34,28.08Z"/><path class="cls-1" d="M37.26,44.18V24.85h7.56a6.52,6.52,0,0,1,4.66,1.76,6,6,0,0,1,1.86,4.58A5.77,5.77,0,0,1,50,35.11a6.23,6.23,0,0,1-3.6,2.06l5.19,7H47.46l-5-6.9H40.89v6.9Zm7-16.1H40.89v6.3h3.37a3.62,3.62,0,0,0,2.52-.86,2.88,2.88,0,0,0,.93-2.23,3,3,0,0,0-1-2.29A3.46,3.46,0,0,0,44.26,28.08Z"/><path class="cls-1" d="M76.69,34.5a10.06,10.06,0,0,1-17.14,7.08,10,10,0,0,1,0-14.16A10,10,0,0,1,76.69,34.5ZM62.1,39.12a6.36,6.36,0,0,0,9.09,0,6.65,6.65,0,0,0,0-9.25,6.34,6.34,0,0,0-9.09,0,6.68,6.68,0,0,0,0,9.25ZM65,22.87a1.64,1.64,0,0,1-2.38,0,1.73,1.73,0,0,1,1.19-3,1.6,1.6,0,0,1,1.17.5,1.71,1.71,0,0,1,.5,1.23A1.75,1.75,0,0,1,65,22.87Zm5.75,0a1.87,1.87,0,0,1-2.57,0,1.68,1.68,0,0,1-.53-1.24,1.66,1.66,0,0,1,.53-1.23,1.9,1.9,0,0,1,2.57,0,1.66,1.66,0,0,1,.53,1.23A1.68,1.68,0,0,1,70.71,22.87Z"/><path class="cls-1" d="M82.86,44.18V24.85h3.5l6,9.53,6-9.53h3.8V44.18H98.56V31l-.29,0-6,9.26L86.43,31h.06V44.18Z"/><path class="cls-1" d="M109.49,44.18V24.85H113l6,9.53L125,24.85h3.8V44.18h-3.62V31l-.29,0-6,9.26L113.06,31h0V44.18Z"/><path class="cls-1" d="M146.89,36h-7.15v5h7.85v3.23H136.11V24.85h11.25v3.23h-7.62v4.7h7.15Z"/><path class="cls-1" d="M154.09,44.18V24.85h7.56a6.52,6.52,0,0,1,4.65,1.76,6,6,0,0,1,1.86,4.58,5.81,5.81,0,0,1-1.38,3.92,6.29,6.29,0,0,1-3.61,2.06l5.19,7h-4.07l-5-6.9h-1.56v6.9Zm7-16.1h-3.38v6.3h3.38a3.57,3.57,0,0,0,2.51-.86,2.86,2.86,0,0,0,.94-2.23,3,3,0,0,0-1-2.29A3.5,3.5,0,0,0,161.09,28.08Z"/><path class="cls-1" d="M185,44.18V24.85h5.52a9.49,9.49,0,0,1,6.84,2.77,9.31,9.31,0,0,1,2.84,7,9,9,0,0,1-2.88,6.9,9.86,9.86,0,0,1-7,2.7Zm5.56-16.1h-2.21V41h2.23a5.57,5.57,0,0,0,4.28-1.87,6.58,6.58,0,0,0,1.72-4.6,6.37,6.37,0,0,0-1.75-4.57A5.66,5.66,0,0,0,190.57,28.08Z"/><path class="cls-1" d="M219.1,42.44a7.88,7.88,0,0,1-10.58,0,6.84,6.84,0,0,1-2.08-5.11V24.85h3.62v12a4.42,4.42,0,0,0,1,3A3.41,3.41,0,0,0,213.81,41a3.46,3.46,0,0,0,2.76-1.15,4.36,4.36,0,0,0,1-2.94V24.85h3.63V37.33A6.85,6.85,0,0,1,219.1,42.44Z"/><path class="cls-1" d="M257.94,34.5a10,10,0,1,1-17.14-7.08,10,10,0,0,1,17.14,7.08Zm-14.59,4.62a6.36,6.36,0,0,0,9.09,0,6.65,6.65,0,0,0,0-9.25,6.34,6.34,0,0,0-9.09,0,6.68,6.68,0,0,0,0,9.25Z"/><path class="cls-1" d="M264.11,44.18V24.85h3.5l6,9.53,6.05-9.53h3.8V44.18h-3.63V31l-.29,0-6,9.26L267.68,31h.06V44.18Z"/><path class="cls-1" d="M17.27,74.18l7.46-19.33H28l7.43,19.33H31.7l-1-2.68H22l-1,2.68Zm9.1-13.92-3.1,8h6.17Z"/><path class="cls-1" d="M36.8,58.33V54.85H52.73v3.48H46.58V74.18H43V58.33Z"/><path class="cls-1" d="M56.75,58.33V54.85H72.67v3.48H66.52V74.18H62.9V58.33Z"/><path class="cls-1" d="M89,74.18V54.85h6.36a5.82,5.82,0,0,1,4.23,1.62,5.31,5.31,0,0,1,1.66,4,4.54,4.54,0,0,1-2.17,3.88,5.33,5.33,0,0,1,2.14,1.73,4.07,4.07,0,0,1,.8,2.46,5.29,5.29,0,0,1-1.69,4.09,6,6,0,0,1-4.27,1.56Zm5.94-16.1H92.35v4.85h2.89a2.68,2.68,0,0,0,1.92-.71,2.4,2.4,0,0,0,.74-1.79,2.06,2.06,0,0,0-.82-1.71A3.35,3.35,0,0,0,94.94,58.08Zm.55,7.75H92.35V71h3.06a3.18,3.18,0,0,0,2.19-.72,2.43,2.43,0,0,0,.8-1.87,2.37,2.37,0,0,0-.75-1.84A3.11,3.11,0,0,0,95.49,65.83Z"/><path class="cls-1" d="M117.73,54.85h3.9l-6.4,11.48v7.85H111.6V66.45l-6.47-11.6h4l4.36,8Z"/><path class="cls-1" d="M137.63,66.1V62.88h6.92l0,1.65a9.88,9.88,0,0,1-1.42,5.12,9.64,9.64,0,0,1-3.66,3.57,10,10,0,0,1-4.92,1.26,10,10,0,1,1,.05-20.05,9.54,9.54,0,0,1,7.2,3.12L139.3,60a6.26,6.26,0,0,0-4.75-2.09,6.14,6.14,0,0,0-4.62,1.9,6.82,6.82,0,0,0,0,9.31A5.9,5.9,0,0,0,134.33,71a6.83,6.83,0,0,0,4.3-1.34,6.13,6.13,0,0,0,2.27-3.56Z"/><path class="cls-1" d="M163,66.1V62.88h6.92l0,1.65a10,10,0,0,1-1.41,5.12,9.79,9.79,0,0,1-3.66,3.57,10,10,0,0,1-4.93,1.26,10,10,0,1,1,0-20.05,9.54,9.54,0,0,1,7.2,3.12L164.67,60a6.24,6.24,0,0,0-4.75-2.09,6.17,6.17,0,0,0-4.62,1.9,6.85,6.85,0,0,0,0,9.31A5.92,5.92,0,0,0,159.7,71a6.83,6.83,0,0,0,4.3-1.34,6.14,6.14,0,0,0,2.28-3.56Z"/><path class="cls-1" d="M173.2,74.18l7.45-19.33h3.28l7.42,19.33h-3.72l-1-2.68H178l-1,2.68Zm9.09-13.92-3.09,8h6.16Z"/><path class="cls-1" d="M219.33,74.18V66.1h-8.28v8.08h-3.62V54.85h3.62v7.78h8.28V54.85H223V74.18Z"/><path class="cls-1" d="M242.74,72.44a7.88,7.88,0,0,1-10.58,0,6.84,6.84,0,0,1-2.08-5.11V54.85h3.62v12a4.42,4.42,0,0,0,1,3,3.85,3.85,0,0,0,5.5,0,4.31,4.31,0,0,0,1-2.94V54.85h3.63V67.33A6.85,6.85,0,0,1,242.74,72.44Z"/><path class="cls-1" d="M257.14,74.43a9.26,9.26,0,0,1-3.65-.76,9.58,9.58,0,0,1-3.13-2.12l2.3-2.75a7.08,7.08,0,0,0,2.13,1.73,5.46,5.46,0,0,0,2.55.67,3.16,3.16,0,0,0,2.06-.66,2.09,2.09,0,0,0,.8-1.67,2.88,2.88,0,0,0-2.12-2.68l-2.15-.86a8.28,8.28,0,0,1-3.22-2.13,5,5,0,0,1-1-3.29,5,5,0,0,1,1.63-3.67,5.64,5.64,0,0,1,4.1-1.61,8.33,8.33,0,0,1,5.95,2.21l-2.13,2.69a5,5,0,0,0-3.82-1.68,2.57,2.57,0,0,0-1.73.56,1.7,1.7,0,0,0-.65,1.36,1.83,1.83,0,0,0,.51,1.33,5.24,5.24,0,0,0,1.65,1l2.26.91q4.29,1.71,4.38,5.57A5.41,5.41,0,0,1,262,72.8,7,7,0,0,1,257.14,74.43Z"/><path class="cls-1" d="M272.17,68.83v-.65a4.85,4.85,0,0,1,.56-2.5,4.5,4.5,0,0,1,1.87-1.6l1.35-.83a3.23,3.23,0,0,0,1.15-2.52,2.66,2.66,0,0,0-.73-1.9,2.73,2.73,0,0,0-2-.78,2.37,2.37,0,0,0-1.92.88,3.48,3.48,0,0,0-.75,2.25h-2.8a6.29,6.29,0,0,1,1.55-4.36,5.36,5.36,0,0,1,4.17-1.67,5.76,5.76,0,0,1,4.24,1.58,5.21,5.21,0,0,1,1.59,3.85A4.57,4.57,0,0,1,278,65.14l-1.46.92a2.79,2.79,0,0,0-1.23.76,1.88,1.88,0,0,0-.36,1.25v.76Zm2.75,5.11a1.83,1.83,0,0,1-1.31.56,1.55,1.55,0,0,1-1.23-.56,1.94,1.94,0,0,1-.5-1.36,2,2,0,0,1,.5-1.38,1.56,1.56,0,0,1,1.23-.57,1.86,1.86,0,0,1,1.31.55,1.94,1.94,0,0,1,.58,1.4A1.81,1.81,0,0,1,274.92,73.94Z"/></svg>