<svg id="Layer_1" data-name="Layer 1" xmlns="http://www.w3.org/2000/svg" viewBox="0 0 320 320"><defs><style>.cls-1{fill:#d80201;}</style></defs><title>text</title><path class="cls-1" d="M52.55,191a8.56,8.56,0,0,1-6.79,3A8.43,8.43,0,0,1,39,191a8.93,8.93,0,0,1-1.52-5.52V172.82h4v11.84a7,7,0,0,0,.65,3.72,4.16,4.16,0,0,0,3.63,1.93,4.26,4.26,0,0,0,3.63-1.93,6.66,6.66,0,0,0,.65-3.72V172.82h4v12.65A8.74,8.74,0,0,1,52.55,191Z"/><path class="cls-1" d="M66.47,193.93a5.38,5.38,0,0,1-4.5-2.2v8.93H58.22V180.08H62v1.7a5.34,5.34,0,0,1,4.41-2.14c4,0,6.63,3.32,6.63,7.16S70.41,193.93,66.47,193.93ZM65.35,183a3.77,3.77,0,1,0,3.75,3.75A3.75,3.75,0,0,0,65.35,183Z"/><path class="cls-1" d="M84.11,193.93a5.36,5.36,0,0,1-4.5-2.2v8.93H75.86V180.08h3.75v1.7a5.34,5.34,0,0,1,4.4-2.14c4,0,6.64,3.32,6.64,7.16S88,193.93,84.11,193.93ZM83,183a3.77,3.77,0,1,0,3.75,3.75A3.74,3.74,0,0,0,83,183Z"/><path class="cls-1" d="M93.5,193.5V170.28h3.75V193.5Z"/><path class="cls-1" d="M104,187.39c.06,2.08,1,3.6,3.28,3.6a3.53,3.53,0,0,0,3.2-1.8l3.47.56a6.59,6.59,0,0,1-6.6,4.18c-4.35,0-7.2-2.79-7.2-7.16s2.73-7.13,7-7.13,6.85,3,6.85,7.26v.49Zm3.25-5.08A3,3,0,0,0,104.1,185h6.36A3.12,3.12,0,0,0,107.23,182.31Z"/><path class="cls-1" d="M123,193.78h-1.73l-6.86-13.7h4.22l3.54,7.56,3.53-7.56H130Z"/><path class="cls-1" d="M159.28,193.5l-1.83-12.74-5.7,13h-1.12l-5.48-13-2.08,12.74H139l3.84-21.05h2.76L151.25,186l5.89-13.52h2.76l3.45,21.05Z"/><path class="cls-1" d="M173.42,193.93c-4.28,0-7.69-2.66-7.69-7.13s3.41-7.16,7.72-7.16,7.63,2.7,7.63,7.13S177.67,193.93,173.42,193.93Zm0-10.91a3.77,3.77,0,1,0,3.81,3.78A3.8,3.8,0,0,0,173.39,183Z"/><path class="cls-1" d="M190,193.78H188.3l-6.86-13.7h4.22l3.54,7.56,3.53-7.56H197Z"/><path class="cls-1" d="M201.22,187.39c.07,2.08,1.06,3.6,3.29,3.6a3.5,3.5,0,0,0,3.19-1.8l3.48.56c-1.18,2.88-3.57,4.18-6.61,4.18-4.34,0-7.19-2.79-7.19-7.16s2.73-7.13,7-7.13,6.85,3,6.85,7.26v.49Zm3.26-5.08a3,3,0,0,0-3.13,2.69h6.35A3.1,3.1,0,0,0,204.48,182.31Z"/><path class="cls-1" d="M223.33,193.5v-7.35c0-1.86-.41-3.32-2.58-3.32-2.32,0-2.85,1.8-2.85,3.79v6.88h-3.75V170.28h3.75v11.53a4.89,4.89,0,0,1,4.22-2.17,5.17,5.17,0,0,1,3.91,1.64,5.34,5.34,0,0,1,1.05,3.79v8.43Z"/><path class="cls-1" d="M237.65,193.93c-4.28,0-7.69-2.66-7.69-7.13s3.41-7.16,7.72-7.16,7.63,2.7,7.63,7.13S241.9,193.93,237.65,193.93Zm0-10.91a3.77,3.77,0,1,0,3.81,3.78A3.8,3.8,0,0,0,237.62,183Z"/><path class="cls-1" d="M265.33,193.5v-7.35c0-1.58-.24-3.32-2.23-3.32-2.2,0-2.57,2-2.57,3.79v6.88h-3.75v-7.13a6,6,0,0,0-.28-2.23,2.18,2.18,0,0,0-2-1.31,2.46,2.46,0,0,0-2.11,1.21,5.65,5.65,0,0,0-.43,2.58v6.88h-3.75V180.08h3.75v1.51a5.16,5.16,0,0,1,4.09-2,4.57,4.57,0,0,1,4.19,2.45,5,5,0,0,1,4.4-2.45,4.4,4.4,0,0,1,3.75,1.92,5.92,5.92,0,0,1,.71,3.26v8.68Z"/><path class="cls-1" d="M275.81,187.39c.06,2.08,1.05,3.6,3.29,3.6a3.52,3.52,0,0,0,3.19-1.8l3.47.56a6.58,6.58,0,0,1-6.6,4.18c-4.34,0-7.2-2.79-7.2-7.16s2.73-7.13,7-7.13,6.85,3,6.85,7.26v.49Zm3.25-5.08a3,3,0,0,0-3.13,2.69h6.36A3.11,3.11,0,0,0,279.06,182.31Z"/><path class="cls-1" d="M28,226.5l-1.83-12.74-5.71,13H19.3l-5.48-13L11.74,226.5H7.68l3.84-21.05h2.76L19.92,219l5.9-13.52h2.76L32,226.5Z"/><path class="cls-1" d="M45.69,227a10.73,10.73,0,0,1-11-10.76,11.05,11.05,0,1,1,11,10.76Zm0-17.93a7.14,7.14,0,1,0,6.91,7.1A7,7,0,0,0,45.69,209Z"/><path class="cls-1" d="M68.16,227H66l-8.81-21.21h4.41l5.52,13.89,5.58-13.89h4.37Z"/><path class="cls-1" d="M79.54,226.5V205.82H91v3.5H83.57v4.59H90.7v3.51H83.57V223H91v3.5Z"/><path class="cls-1" d="M118.38,214.56h-3.13l-.43,2.79H118l-.53,3.38h-3.16l-.93,5.77h-3.88l.93-5.77h-2.85l-.9,5.77h-3.84l.93-5.77h-3.2l.53-3.38h3.19l.44-2.79h-3.17l.53-3.41h3.17l.83-5.33h3.85l-.87,5.33h2.85l.84-5.33h3.87l-.83,5.33h3.13Zm-9.86,0-.43,2.79h2.85l.43-2.79Z"/><path class="cls-1" d="M125.88,226.5V209.35h-3v-3.53h7V226.5Z"/><path class="cls-1" d="M145.19,227c-5.7,0-8-6-8-10.85s2.27-10.89,8-10.89,8,6,8,10.85S150.93,227,145.19,227Zm0-18.17c-3.16,0-4,4.9-4,7.28s.8,7.35,4,7.35,4-5,4-7.35S148.36,208.86,145.19,208.86Z"/><path class="cls-1" d="M162.68,227c-4.19,0-7.75-2.7-7.75-7.1a11.73,11.73,0,0,1,2.6-6.55c2.05-2.85,4.19-5.61,6.3-8.43l2.85,2.17-4.9,6.26a6.66,6.66,0,0,1,2.42-.49,6.54,6.54,0,0,1,6.42,6.82C170.62,224.33,167.11,227,162.68,227Zm.12-10.92a3.86,3.86,0,1,0,3.78,3.85A3.82,3.82,0,0,0,162.8,216.11Z"/><path class="cls-1" d="M183,209.66a2.26,2.26,0,0,1,0-4.52,2.26,2.26,0,0,1,0,4.52Zm-1.89,16.84V213.08h3.75V226.5Z"/><path class="cls-1" d="M213.3,226.9l-12.59-14.38v14h-4V205.35h2.79l12.59,14.39V205.82h4V226.9Z"/><path class="cls-1" d="M227.22,226.93c-4.28,0-7.69-2.66-7.69-7.13s3.41-7.16,7.72-7.16,7.63,2.7,7.63,7.13S231.47,226.93,227.22,226.93Zm0-10.91A3.77,3.77,0,1,0,231,219.8,3.8,3.8,0,0,0,227.19,216Z"/><path class="cls-1" d="M246.53,216.49a3.24,3.24,0,0,0-1.8-.47c-2.54,0-3.22,1.8-3.22,4v6.45h-3.75V213.08h3.75v2a4.32,4.32,0,0,1,3.91-2.45,4.26,4.26,0,0,1,1.64.31Z"/><path class="cls-1" d="M257.69,216.49a3.24,3.24,0,0,0-1.8-.47c-2.54,0-3.22,1.8-3.22,4v6.45h-3.75V213.08h3.75v2a4.32,4.32,0,0,1,3.91-2.45,4.26,4.26,0,0,1,1.64.31Z"/><path class="cls-1" d="M264.54,216.3v10.2h-3.75V216.3H259.3v-3.22h1.49v-4.59h3.75v4.59h2.64v3.22Z"/><path class="cls-1" d="M279.39,226.5v-1.77a5.17,5.17,0,0,1-4.37,2.2c-4,0-6.61-3.34-6.61-7.19s2.58-7.1,6.51-7.1a5.58,5.58,0,0,1,4.47,2.14v-1.7h3.78V226.5Zm-6.48-15.94a2.23,2.23,0,0,1,0-4.46,2.23,2.23,0,0,1,0,4.46ZM276,216a3.77,3.77,0,1,0,3.75,3.75A3.74,3.74,0,0,0,276,216Zm3.32-5.46a2.26,2.26,0,0,1-2.23-2.23,2.23,2.23,0,1,1,2.23,2.23Z"/><path class="cls-1" d="M286.77,226.5V203.28h3.75V226.5Z"/><path class="cls-1" d="M295.94,209.66a2.26,2.26,0,0,1,0-4.52,2.26,2.26,0,0,1,0,4.52Zm-1.89,24V213.08h3.75v20.58Z"/><path class="cls-1" d="M304.47,220.39c.06,2.08,1,3.6,3.28,3.6a3.53,3.53,0,0,0,3.2-1.8l3.47.56a6.59,6.59,0,0,1-6.6,4.18c-4.35,0-7.2-2.79-7.2-7.16s2.73-7.13,7-7.13,6.85,3,6.85,7.26v.49Zm3.25-5.08a3,3,0,0,0-3.13,2.69H311A3.11,3.11,0,0,0,307.72,215.31Z"/></svg>