<svg id="Layer_1" data-name="Layer 1" xmlns="http://www.w3.org/2000/svg" viewBox="0 0 320 320"><defs><style>.cls-1{fill:#d80201;}</style></defs><title>text</title><path class="cls-1" d="M126.15,191a8.56,8.56,0,0,1-6.79,3,8.43,8.43,0,0,1-6.79-3,8.93,8.93,0,0,1-1.52-5.52V172.82h4v11.84a7,7,0,0,0,.65,3.72,4.17,4.17,0,0,0,3.63,1.93,4.26,4.26,0,0,0,3.63-1.93,6.66,6.66,0,0,0,.65-3.72V172.82h4v12.65A8.74,8.74,0,0,1,126.15,191Z"/><path class="cls-1" d="M140.07,193.93a5.38,5.38,0,0,1-4.5-2.2v8.93h-3.75V180.08h3.75v1.7a5.34,5.34,0,0,1,4.41-2.14c4,0,6.63,3.32,6.63,7.16S144,193.93,140.07,193.93ZM139,183a3.77,3.77,0,1,0,3.75,3.75A3.75,3.75,0,0,0,139,183Z"/><path class="cls-1" d="M157.71,193.93a5.36,5.36,0,0,1-4.5-2.2v8.93h-3.75V180.08h3.75v1.7a5.34,5.34,0,0,1,4.4-2.14c4,0,6.64,3.32,6.64,7.16S161.65,193.93,157.71,193.93ZM156.59,183a3.77,3.77,0,1,0,3.75,3.75A3.74,3.74,0,0,0,156.59,183Z"/><path class="cls-1" d="M167.1,193.5V170.28h3.75V193.5Z"/><path class="cls-1" d="M177.58,187.39c.06,2.08,1,3.6,3.28,3.6a3.53,3.53,0,0,0,3.2-1.8l3.47.56a6.59,6.59,0,0,1-6.6,4.18c-4.34,0-7.2-2.79-7.2-7.16s2.73-7.13,7-7.13,6.85,3,6.85,7.26v.49Zm3.25-5.08A3,3,0,0,0,177.7,185h6.36A3.11,3.11,0,0,0,180.83,182.31Z"/><path class="cls-1" d="M196.64,193.78h-1.73l-6.86-13.7h4.22l3.54,7.56,3.53-7.56h4.22Z"/><path class="cls-1" d="M107,226.5l-1.83-12.74-5.71,13H98.3l-5.49-13L90.73,226.5H86.67l3.85-21.05h2.75L98.92,219l5.89-13.52h2.76L111,226.5Z"/><path class="cls-1" d="M121.08,226.93c-4.28,0-7.69-2.66-7.69-7.13s3.41-7.16,7.72-7.16,7.63,2.7,7.63,7.13S125.33,226.93,121.08,226.93Zm0-10.91a3.77,3.77,0,1,0,3.81,3.78A3.8,3.8,0,0,0,121.05,216Z"/><path class="cls-1" d="M137.7,226.78H136l-6.85-13.7h4.22l3.53,7.56,3.54-7.56h4.21Z"/><path class="cls-1" d="M148.89,220.39c.06,2.08,1.05,3.6,3.28,3.6a3.53,3.53,0,0,0,3.2-1.8l3.47.56a6.59,6.59,0,0,1-6.6,4.18c-4.34,0-7.2-2.79-7.2-7.16s2.73-7.13,7-7.13,6.85,3,6.85,7.26v.49Zm3.25-5.08A3,3,0,0,0,149,218h6.36A3.11,3.11,0,0,0,152.14,215.31Z"/><path class="cls-1" d="M171,226.5v-7.35c0-1.86-.4-3.32-2.57-3.32-2.33,0-2.85,1.8-2.85,3.79v6.88h-3.76V203.28h3.76v11.53a4.86,4.86,0,0,1,4.21-2.17,5.15,5.15,0,0,1,3.91,1.64,5.34,5.34,0,0,1,1.05,3.79v8.43Z"/><path class="cls-1" d="M185.31,226.93c-4.28,0-7.69-2.66-7.69-7.13s3.41-7.16,7.72-7.16,7.63,2.7,7.63,7.13S189.56,226.93,185.31,226.93Zm0-10.91a3.77,3.77,0,1,0,3.82,3.78A3.8,3.8,0,0,0,185.28,216Z"/><path class="cls-1" d="M213,226.5v-7.35c0-1.58-.25-3.32-2.23-3.32-2.21,0-2.58,2-2.58,3.79v6.88h-3.75v-7.13a6,6,0,0,0-.28-2.23,2.17,2.17,0,0,0-2-1.31A2.45,2.45,0,0,0,200,217a5.52,5.52,0,0,0-.44,2.58v6.88h-3.75V213.08h3.75v1.51a5.17,5.17,0,0,1,4.1-2,4.56,4.56,0,0,1,4.18,2.45,5,5,0,0,1,4.4-2.45,4.43,4.43,0,0,1,3.76,1.92,5.92,5.92,0,0,1,.71,3.26v8.68Z"/><path class="cls-1" d="M223.47,220.39c.06,2.08,1.06,3.6,3.29,3.6a3.5,3.5,0,0,0,3.19-1.8l3.48.56c-1.18,2.88-3.57,4.18-6.61,4.18-4.34,0-7.19-2.79-7.19-7.16s2.73-7.13,7-7.13,6.85,3,6.85,7.26v.49Zm3.26-5.08A3,3,0,0,0,223.6,218H230A3.1,3.1,0,0,0,226.73,215.31Z"/></svg>