<svg id="Layer_1" data-name="Layer 1" xmlns="http://www.w3.org/2000/svg" viewBox="0 0 320 320"><defs><style>.cls-1{fill:#d4ac76;}</style></defs><title>text</title><path class="cls-1" d="M47.24,182.29V179H62.52v3.33h-5.9v15.22H53.14V182.29Z"/><path class="cls-1" d="M72.74,197.51,65.64,179h3.63l5.09,13.34,5-13.34h3.52l-7,18.55Z"/><path class="cls-1" d="M83.81,197.51,91,179h3.14l7.13,18.55H97.66l-1-2.57h-8.3l-1,2.57Zm8.73-13.36-3,7.7h5.92Zm2.7-8.36a2.55,2.55,0,0,1-.78,1.88,2.66,2.66,0,1,1,0-3.76A2.55,2.55,0,0,1,95.24,175.79Zm-3.36.7a1,1,0,0,0,1.38,0,1,1,0,0,0,.27-.7.94.94,0,0,0-.29-.7,1,1,0,0,0-1.36,0,1,1,0,0,0,0,1.4Z"/><path class="cls-1" d="M105.58,197.51V179h6.66a6.3,6.3,0,0,1,6.44,6.41,5.85,5.85,0,0,1-1.88,4.46,6.44,6.44,0,0,1-4.62,1.78h-3.12v5.9Zm6.36-15.22h-2.88v6.22H112a3.26,3.26,0,0,0,2.33-.83,2.89,2.89,0,0,0,.88-2.22,3,3,0,0,0-.91-2.28A3.24,3.24,0,0,0,111.94,182.29Z"/><path class="cls-1" d="M123.8,197.51V179h3.48v15.21h6.81v3.34Z"/><path class="cls-1" d="M137.31,197.51,144.46,179h3.14l7.13,18.55h-3.57l-1-2.57h-8.3l-1,2.57ZM146,184.15l-3,7.7H149Z"/><path class="cls-1" d="M159.08,197.51V179h2.43l9.13,11.67V179h3.48v18.55H171.8l-9.24-11.81v11.81Z"/><path class="cls-1" d="M185.51,197.75A8.86,8.86,0,0,1,182,197a9.2,9.2,0,0,1-3-2l2.2-2.64a7,7,0,0,0,2,1.66,5.23,5.23,0,0,0,2.44.64,3,3,0,0,0,2-.63,2,2,0,0,0,.77-1.6,2.76,2.76,0,0,0-2-2.58l-2.07-.83a8,8,0,0,1-3.09-2,5.07,5.07,0,0,1,.58-6.68,5.4,5.4,0,0,1,3.94-1.55,8,8,0,0,1,5.71,2.12l-2.05,2.59a4.79,4.79,0,0,0-3.66-1.61,2.51,2.51,0,0,0-1.67.53,1.66,1.66,0,0,0-.63,1.31A1.75,1.75,0,0,0,184,185a5,5,0,0,0,1.6,1l2.16.86q4.13,1.65,4.2,5.36a5.21,5.21,0,0,1-1.74,4.06A6.78,6.78,0,0,1,185.51,197.75Z"/><path class="cls-1" d="M202.14,197.51,195.05,179h3.62l5.1,13.34,5-13.34h3.52l-7,18.55Z"/><path class="cls-1" d="M216.7,197.51V179h3.48v18.55Z"/><path class="cls-1" d="M226.8,197.51V179h3.48v15.21h6.82v3.34Z"/><path class="cls-1" d="M242.12,197.51V179h3.47v15.21h6.82v3.34Z"/><path class="cls-1" d="M255.63,197.51,262.78,179h3.14l7.13,18.55h-3.58l-1-2.57h-8.3l-1,2.57Zm8.72-13.36-3,7.7h5.91Z"/><path class="cls-1" d="M105.53,224.51V206H109v18.55Z"/><path class="cls-1" d="M135.53,216.66h-6.86v4.76h7.53v3.09h-11V206H136v3.09h-7.32v4.52h6.86Z"/><path class="cls-1" d="M141.84,224.51V206h3.22v8.18l7.1-8.18h4.3l-6.55,7.4,6.69,11.15h-4L147.54,216l-2.48,2.81v5.66Z"/><path class="cls-1" d="M171.87,216.66H165v4.76h7.54v3.09h-11V206h10.8v3.09H165v4.52h6.87Z"/><path class="cls-1" d="M178.18,224.51V206h7.26a6.27,6.27,0,0,1,4.47,1.68,5.78,5.78,0,0,1,1.78,4.4,5.54,5.54,0,0,1-1.33,3.76,6,6,0,0,1-3.46,2l5,6.73H188l-4.81-6.62h-1.5v6.62Zm6.72-15.46h-3.24v6h3.24a3.42,3.42,0,0,0,2.41-.82,2.76,2.76,0,0,0,.9-2.14,2.94,2.94,0,0,0-.92-2.2A3.33,3.33,0,0,0,184.9,209.05Z"/><path class="cls-1" d="M215.43,215.22a9.63,9.63,0,1,1-2.82-6.8A9.22,9.22,0,0,1,215.43,215.22Zm-14,4.43a6.1,6.1,0,0,0,8.73,0,6.38,6.38,0,0,0,0-8.88,6.1,6.1,0,0,0-8.73,0,6.43,6.43,0,0,0,0,8.88Zm2.74-15.6a1.46,1.46,0,0,1-1.13.49,1.5,1.5,0,0,1-1.14-.49,1.64,1.64,0,0,1-.48-1.19,1.61,1.61,0,0,1,1.62-1.65,1.51,1.51,0,0,1,1.12.48,1.59,1.59,0,0,1,.48,1.17A1.67,1.67,0,0,1,204.16,204.05Zm5.53,0a1.79,1.79,0,0,1-2.46,0,1.59,1.59,0,0,1-.51-1.19,1.55,1.55,0,0,1,.51-1.17,1.82,1.82,0,0,1,2.46,0,1.55,1.55,0,0,1,.51,1.17A1.59,1.59,0,0,1,209.69,204.05Z"/></svg>