<svg id="Layer_1" data-name="Layer 1" xmlns="http://www.w3.org/2000/svg" viewBox="0 0 320 320"><defs><style>.cls-1{fill:#d80201;}</style></defs><title>text</title><path class="cls-1" d="M107.87,247.29l-3.55-4-.25.25v3.73h-1v-8.67h1v3.71l3.7-3.71h1.3l-4.06,4,4.19,4.63Z"/><path class="cls-1" d="M112.13,247.64l-2.65-5.75h1l1.61,3.63,1.6-3.63h1Z"/><path class="cls-1" d="M119.7,247.29v-.76a2.29,2.29,0,0,1-1.87.91,2.67,2.67,0,0,1-2.6-2.87,2.63,2.63,0,0,1,2.59-2.81,2.28,2.28,0,0,1,1.88.9v-.77h.92v5.4Zm-1.74-4.7a1.84,1.84,0,0,0-1.78,2,1.86,1.86,0,0,0,1.78,2,1.84,1.84,0,0,0,1.79-2A1.82,1.82,0,0,0,118,242.59Z"/><path class="cls-1" d="M124.93,242.83a.83.83,0,0,0-.55-.18,1,1,0,0,0-.47.11c-.6.33-.6,1.09-.6,1.68v2.85h-.92v-5.4h.92v.59a1.47,1.47,0,0,1,1.23-.72,1.61,1.61,0,0,1,.83.22Z"/><path class="cls-1" d="M129.62,247.29V244.1c0-.84-.12-1.51-1.13-1.51-1.2,0-1.34,1-1.34,2v2.71h-.92v-5.4h.92v.65a2,2,0,0,1,3.09,0,2.45,2.45,0,0,1,.31,1.43v3.36Z"/><path class="cls-1" d="M136.86,249.29a2.63,2.63,0,0,1-2.16,1,2.42,2.42,0,0,1-2.62-2.47H133a1.61,1.61,0,0,0,1.71,1.64c1.3,0,1.73-1,1.73-2.13v-.8a2.43,2.43,0,0,1-1.89.9,2.85,2.85,0,0,1,0-5.67,2.29,2.29,0,0,1,1.86.89v-.76h.94v5.28A3.29,3.29,0,0,1,136.86,249.29Zm-2.17-6.7a1.85,1.85,0,0,0-1.77,2,1.82,1.82,0,0,0,1.77,2,2,2,0,0,0,0-4Z"/><path class="cls-1" d="M143.27,247.29v-.76a2.3,2.3,0,0,1-1.87.91,2.67,2.67,0,0,1-2.6-2.87,2.62,2.62,0,0,1,2.58-2.81,2.29,2.29,0,0,1,1.89.9v-.77h.92v5.4Zm-1.74-4.7a1.84,1.84,0,0,0-1.78,2,1.86,1.86,0,0,0,1.78,2,1.84,1.84,0,0,0,1.79-2A1.82,1.82,0,0,0,141.53,242.59Z"/><path class="cls-1" d="M146.9,242.75v4.54H146v-4.54h-.56v-.86H146v-1.95h.94v1.95h.94v.86Z"/><path class="cls-1" d="M152.86,247.29v-.76a2.29,2.29,0,0,1-1.87.91,2.67,2.67,0,0,1-2.6-2.87,2.63,2.63,0,0,1,2.59-2.81,2.27,2.27,0,0,1,1.88.9v-.77h.93v5.4Zm-1.74-4.7a1.85,1.85,0,0,0-1.78,2,1.86,1.86,0,0,0,1.78,2,1.84,1.84,0,0,0,1.79-2A1.82,1.82,0,0,0,151.12,242.59Z"/><path class="cls-1" d="M159,247.29V244.1c0-.84-.12-1.51-1.13-1.51-1.2,0-1.34,1-1.34,2v2.71h-.93v-5.4h.93v.65a2,2,0,0,1,3.09,0,2.45,2.45,0,0,1,.31,1.43v3.36Z"/><path class="cls-1" d="M168.41,244.36l-1.78,2h3.64v.9h-5.6l3.16-3.66c.58-.67,1.49-1.65,1.49-2.58a1.68,1.68,0,0,0-1.73-1.68,1.7,1.7,0,0,0-1.73,1.78h-1a3.38,3.38,0,0,1,.18-1,2.71,2.71,0,0,1,5.21.89C170.28,242.36,169.22,243.45,168.41,244.36Z"/><path class="cls-1" d="M175.08,247.43a3,3,0,0,1-3-2.94,3.52,3.52,0,0,1,.71-2l3-4.09.73.54-2,2.77a2.65,2.65,0,0,1,.79-.11,2.82,2.82,0,0,1,2.79,2.85A3,3,0,0,1,175.08,247.43Zm0-5a2,2,0,1,0,2,2A2,2,0,0,0,175.07,242.46Z"/><path class="cls-1" d="M185.66,247.29l-1-2.46h-3.71l-1,2.46h-1.05l4-9.09,3.89,9.09Zm-2.85-6.83-1.48,3.47h2.94Z"/><path class="cls-1" d="M187.74,249.26l-.61-.24,1.07-3,.85.31Z"/><path class="cls-1" d="M199.54,247.29v-4.24h-4.43v4.24h-1v-8.67h1v3.53h4.43v-3.53h1v8.67Z"/><path class="cls-1" d="M205,247.44a2.84,2.84,0,1,1,2.85-2.83A2.82,2.82,0,0,1,205,247.44Zm0-4.83a2,2,0,1,0,1.91,2A1.89,1.89,0,0,0,205,242.61Zm-1.12-1.82a.66.66,0,0,1-.65-.65.65.65,0,1,1,.65.65Zm2.26,0a.66.66,0,0,1-.65-.65.65.65,0,1,1,.65.65Z"/><path class="cls-1" d="M211.8,247.44a2.84,2.84,0,1,1,2.85-2.83A2.82,2.82,0,0,1,211.8,247.44Zm0-4.83a2,2,0,1,0,1.91,2A1.89,1.89,0,0,0,211.79,242.61Zm-1.12-1.82a.66.66,0,0,1-.65-.65.65.65,0,1,1,.65.65Zm2.26,0a.66.66,0,0,1-.65-.65.65.65,0,1,1,.65.65Z"/><path class="cls-1" d="M218.6,242.83a.8.8,0,0,0-.54-.18,1,1,0,0,0-.47.11c-.6.33-.6,1.09-.6,1.68v2.85h-.92v-5.4H217v.59a1.44,1.44,0,0,1,1.22-.72,1.56,1.56,0,0,1,.83.22Z"/><path class="cls-1" d="M96.29,262.44a2.64,2.64,0,0,1-2.67-2.23l.93-.26a1.76,1.76,0,0,0,1.77,1.58,1.71,1.71,0,0,0,1.74-1.71c0-2-4-1.56-4-4.11a2.29,2.29,0,0,1,2.43-2.24,2.5,2.5,0,0,1,2.24,1.35l-.77.51a1.61,1.61,0,0,0-1.48-1A1.38,1.38,0,0,0,95,255.71c0,1.79,4,1.27,4,4.07A2.67,2.67,0,0,1,96.29,262.44Z"/><path class="cls-1" d="M103.08,262.44a2.84,2.84,0,1,1,2.85-2.83A2.82,2.82,0,0,1,103.08,262.44Zm0-4.83a2,2,0,1,0,1.91,2A1.89,1.89,0,0,0,103.07,257.61ZM102,255.79a.66.66,0,0,1-.65-.65.65.65,0,1,1,.65.65Zm2.26,0a.66.66,0,0,1-.65-.65.65.65,0,1,1,.65.65Z"/><path class="cls-1" d="M110.74,262.29V259.1c0-.84-.12-1.51-1.13-1.51-1.2,0-1.34,1-1.34,2v2.71h-.93v-5.4h.93v.65a2,2,0,0,1,3.09,0,2.45,2.45,0,0,1,.31,1.43v3.36Z"/><path class="cls-1" d="M117.56,262.29v-.76a2.29,2.29,0,0,1-1.87.91,2.67,2.67,0,0,1-2.6-2.86,2.64,2.64,0,0,1,2.59-2.82,2.3,2.3,0,0,1,1.88.9v-4.85h.93v9.48Zm-1.74-4.68a2,2,0,1,0,1.79,2A1.8,1.8,0,0,0,115.82,257.61Z"/><path class="cls-1" d="M124.37,262.29v-.76a2.29,2.29,0,0,1-1.87.91,2.67,2.67,0,0,1-2.6-2.87,2.63,2.63,0,0,1,2.59-2.81,2.27,2.27,0,0,1,1.88.9v-.77h.93v5.4Zm-1.74-4.7a1.85,1.85,0,0,0-1.78,2,1.86,1.86,0,0,0,1.78,2,1.85,1.85,0,0,0,1.8-2A1.83,1.83,0,0,0,122.63,257.59Z"/><path class="cls-1" d="M131.6,264.29a2.61,2.61,0,0,1-2.16,1,2.42,2.42,0,0,1-2.62-2.47h.92a1.62,1.62,0,0,0,1.72,1.64c1.3,0,1.73-1,1.73-2.13v-.8a2.47,2.47,0,0,1-1.9.9,2.65,2.65,0,0,1-2.58-2.82,2.68,2.68,0,0,1,2.62-2.85,2.32,2.32,0,0,1,1.86.89v-.76h.93v5.28A3.29,3.29,0,0,1,131.6,264.29Zm-2.17-6.7a1.86,1.86,0,0,0-1.77,2,1.83,1.83,0,0,0,1.77,2,2,2,0,0,0,0-4Z"/><path class="cls-1" d="M140.65,259.36l-1.78,2h3.64v.9h-5.6l3.15-3.66c.59-.67,1.5-1.65,1.5-2.58a1.68,1.68,0,0,0-1.73-1.68,1.7,1.7,0,0,0-1.73,1.78h-1a3.38,3.38,0,0,1,.18-1,2.71,2.71,0,0,1,5.21.89C142.52,257.36,141.46,258.45,140.65,259.36Z"/><path class="cls-1" d="M147.07,262.29v-7.76h-1.44l.51-.91H148v8.67Z"/><path class="cls-1" d="M157.64,262.44a2.84,2.84,0,1,1,2.85-2.83A2.82,2.82,0,0,1,157.64,262.44Zm0-4.83a2,2,0,1,0,1.91,2A1.89,1.89,0,0,0,157.63,257.61Z"/><path class="cls-1" d="M165.25,262.29l-2.19-2.46-.23.23v2.23h-.93v-9.48h.93v6.07l2-2H166l-2.32,2.29,2.74,3.11Z"/><path class="cls-1" d="M168.31,257.75v4.54h-.93v-4.54h-.56v-.86h.56v-1.95h.93v1.95h.95v.86Z"/><path class="cls-1" d="M172.67,262.44a2.84,2.84,0,1,1,2.84-2.83A2.82,2.82,0,0,1,172.67,262.44Zm0-4.83a2,2,0,1,0,1.92,2A1.88,1.88,0,0,0,172.65,257.61Z"/><path class="cls-1" d="M179.73,262.44a2.32,2.32,0,0,1-1.88-.91v.76h-.92v-9.48h.92v4.85a2.33,2.33,0,0,1,1.89-.9,2.64,2.64,0,0,1,2.59,2.82A2.67,2.67,0,0,1,179.73,262.44Zm-.13-4.83a1.82,1.82,0,0,0-1.8,2,1.8,1.8,0,1,0,1.8-2Z"/><path class="cls-1" d="M184.37,259.78a1.74,1.74,0,0,0,1.71,1.82,1.88,1.88,0,0,0,1.67-1.12l.78.43a2.7,2.7,0,0,1-2.47,1.53,2.85,2.85,0,0,1-.05-5.68,2.58,2.58,0,0,1,2.57,2.84v.18Zm1.66-2.17a1.67,1.67,0,0,0-1.6,1.39h3.17A1.61,1.61,0,0,0,186,257.61Z"/><path class="cls-1" d="M192.53,257.83a.8.8,0,0,0-.54-.18,1,1,0,0,0-.47.11c-.6.33-.6,1.09-.6,1.68v2.85H190v-5.4h.92v.59a1.44,1.44,0,0,1,1.22-.72,1.56,1.56,0,0,1,.83.22Z"/><path class="cls-1" d="M199.64,262.29v-7.76H198.2l.51-.91h1.89v8.67Z"/><path class="cls-1" d="M208,259.36l-1.78,2h3.64v.9h-5.6l3.16-3.66c.58-.67,1.49-1.65,1.49-2.58a1.68,1.68,0,0,0-1.73-1.68,1.7,1.7,0,0,0-1.73,1.78h-1a3.38,3.38,0,0,1,.18-1,2.71,2.71,0,0,1,5.21.89C209.83,257.36,208.77,258.45,208,259.36Z"/><path class="cls-1" d="M210.94,259.93v-.83h2.35v.83Z"/><path class="cls-1" d="M216.74,262.29v-7.76h-1.45l.51-.91h1.9v8.67Z"/><path class="cls-1" d="M226.32,260.87v1.42h-1v-1.42h-4.45l5.41-7.74V260h1.06v.88Zm-1-4.8L222.61,260h2.75Z"/></svg>