<svg id="Layer_1" data-name="Layer 1" xmlns="http://www.w3.org/2000/svg" viewBox="0 0 320 320"><defs><style>.cls-1{fill:#d80201;}</style></defs><title>text</title><path class="cls-1" d="M69.07,149.5H61.23V126.15H67c1.89,0,4.2.18,5.7,1.4a6.25,6.25,0,0,1,2.1,4.8A4.9,4.9,0,0,1,72.26,137a5.29,5.29,0,0,1,3,1.47A6.28,6.28,0,0,1,77,142.88C77,147.54,73.27,149.5,69.07,149.5Zm-2-19.64H65.78v6h1.3c2,0,3.53-.8,3.53-3S69.14,129.86,67.11,129.86Zm.77,9.49h-2.1v6.47h2c2.24,0,4.55-.52,4.55-3.25S70.05,139.35,67.88,139.35Z"/><path class="cls-1" d="M84.93,157.62h-4.8l5.57-10.4-7.18-12.88h4.94L88,143l4.34-8.61h4.83Z"/><path class="cls-1" d="M113.31,155a8.26,8.26,0,0,1-6.44,2.66c-3.88,0-7.63-2.24-8.05-6.37h4.59a3.37,3.37,0,0,0,3.6,2.76c2.66,0,3.75-1.85,3.75-4.3v-2.28a6.33,6.33,0,0,1-5.11,2.52c-4.48,0-7.21-3.61-7.21-7.88s2.8-8.26,7.42-8.26a5.68,5.68,0,0,1,4.9,2.45v-2H115v14.6C115,151.32,114.92,153.11,113.31,155Zm-6.26-17.33a4.25,4.25,0,1,0,4.23,4.23A4.23,4.23,0,0,0,107.05,137.67Z"/><path class="cls-1" d="M133.16,155a8.27,8.27,0,0,1-6.44,2.66c-3.89,0-7.63-2.24-8-6.37h4.58a3.38,3.38,0,0,0,3.61,2.76c2.66,0,3.74-1.85,3.74-4.3v-2.28a6.3,6.3,0,0,1-5.11,2.52c-4.48,0-7.21-3.61-7.21-7.88s2.8-8.26,7.42-8.26a5.68,5.68,0,0,1,4.9,2.45v-2h4.27v14.6C134.87,151.32,134.77,153.11,133.16,155Zm-6.27-17.33a4.25,4.25,0,1,0,4.24,4.23A4.23,4.23,0,0,0,126.89,137.67Z"/><path class="cls-1" d="M158,149.5v-8.4c0-2.07-.45-3.64-2.87-3.64-2.62,0-3.25,1.92-3.25,4.2v7.84h-4.24V134.34h4.24v1.86a5.6,5.6,0,0,1,4.76-2.35,5.23,5.23,0,0,1,5.6,6v9.63Z"/><path class="cls-1" d="M170,157.62h-4.8l5.57-10.4-7.18-12.88h4.94l4.55,8.61,4.34-8.61h4.83Z"/><path class="cls-1" d="M188.56,138V149.5h-4.23V138h-1.68v-3.64h1.68v-5.18h4.23v5.18h3V138Z"/><path class="cls-1" d="M198,138V149.5h-4.24V138h-1.68v-3.64h1.68v-5.18H198v5.18h3V138Z"/><path class="cls-1" d="M222.3,149.5v-8.3c0-2.1-.46-3.74-2.91-3.74-2.62,0-3.22,2-3.22,4.27v7.77h-4.23V123.28h4.23v13a5.55,5.55,0,0,1,4.77-2.45,5.81,5.81,0,0,1,4.41,1.86,6,6,0,0,1,1.19,4.27v9.52Z"/><path class="cls-1" d="M237.91,150c-4.17,0-7.32-1.86-7.32-6.37v-9.28h4.24v8.58c0,2.06.87,3.46,3.08,3.46S241,145,241,142.92v-8.58h4.27v9.28C245.26,148.13,242.08,150,237.91,150Z"/><path class="cls-1" d="M254.15,150a8.1,8.1,0,0,1-5.78-2.52l2.24-2.59a5,5,0,0,0,3.57,1.78,1.79,1.79,0,0,0,1.93-1.68c0-2.59-6.76-1.29-6.76-6.4,0-3.08,2.56-4.8,5.43-4.8a7.78,7.78,0,0,1,4.93,1.61l-2.1,2.49a4.21,4.21,0,0,0-2.52-1c-.73,0-1.61.46-1.61,1.3,0,2.2,7,1.22,7,6.4C260.48,148.1,257.4,150,254.15,150Z"/><path class="cls-1" d="M81.36,190.5v-8.3c0-1.78-.28-3.74-2.52-3.74-2.49,0-2.91,2.27-2.91,4.27v7.77H71.7v-8.05a6.65,6.65,0,0,0-.32-2.52,2.44,2.44,0,0,0-2.27-1.47,2.75,2.75,0,0,0-2.38,1.36,6.26,6.26,0,0,0-.49,2.91v7.77H62V175.34h4.24v1.72a5.8,5.8,0,0,1,4.62-2.21,5.15,5.15,0,0,1,4.72,2.77,5.61,5.61,0,0,1,5-2.77A5,5,0,0,1,84.79,177a6.7,6.7,0,0,1,.8,3.68v9.8Z"/><path class="cls-1" d="M93.19,183.6c.07,2.35,1.19,4.06,3.71,4.06a4,4,0,0,0,3.6-2l3.92.63c-1.33,3.26-4,4.73-7.45,4.73-4.9,0-8.12-3.15-8.12-8.09s3.08-8.05,7.94-8.05,7.74,3.36,7.74,8.19v.56Zm3.67-5.74a3.44,3.44,0,0,0-3.53,3h7.17A3.51,3.51,0,0,0,96.86,177.86Z"/><path class="cls-1" d="M119.37,190.5v-2a5.86,5.86,0,0,1-4.94,2.49c-4.55,0-7.45-3.78-7.45-8.12s2.9-8,7.35-8a6.31,6.31,0,0,1,5,2.42v-13h4.27V190.5Zm-3.78-11.83a4.25,4.25,0,1,0,4.23,4.23A4.23,4.23,0,0,0,115.59,178.67Z"/><path class="cls-1" d="M145.65,191a6,6,0,0,1-5-2.49v2h-4.23V164.28h4.23v13a6.43,6.43,0,0,1,5.08-2.42c4.44,0,7.38,3.78,7.38,8S150.2,191,145.65,191Zm-1.15-12.32a4.25,4.25,0,1,0,4.23,4.23A4.23,4.23,0,0,0,144.5,178.67Z"/><path class="cls-1" d="M166.27,179.19a3.8,3.8,0,0,0-2-.52c-2.87,0-3.64,2-3.64,4.55v7.28h-4.24V175.34h4.24v2.28a4.86,4.86,0,0,1,4.41-2.77,4.94,4.94,0,0,1,1.85.35Z"/><path class="cls-1" d="M180.55,190.5v-2a5.86,5.86,0,0,1-4.94,2.49c-4.55,0-7.46-3.78-7.46-8.12s2.91-8,7.36-8a6.31,6.31,0,0,1,5,2.42v-1.93h4.27V190.5Zm-3.78-11.83A4.25,4.25,0,1,0,181,182.9,4.23,4.23,0,0,0,176.77,178.67Z"/><path class="cls-1" d="M193.71,191a8.07,8.07,0,0,1-5.78-2.52l2.24-2.59a4.92,4.92,0,0,0,3.57,1.78,1.79,1.79,0,0,0,1.93-1.68c0-2.59-6.76-1.29-6.76-6.4,0-3.08,2.55-4.8,5.42-4.8a7.79,7.79,0,0,1,4.94,1.61l-2.1,2.49a4.21,4.21,0,0,0-2.52-1c-.73,0-1.61.46-1.61,1.3,0,2.2,7,1.22,7,6.4C200,189.1,197,191,193.71,191Z"/><path class="cls-1" d="M222.41,190.5v-8.3c0-1.78-.28-3.74-2.52-3.74-2.49,0-2.91,2.27-2.91,4.27v7.77h-4.23v-8.05a6.65,6.65,0,0,0-.32-2.52,2.44,2.44,0,0,0-2.28-1.47,2.77,2.77,0,0,0-2.38,1.36,6.39,6.39,0,0,0-.49,2.91v7.77h-4.23V175.34h4.23v1.72a5.82,5.82,0,0,1,4.63-2.21,5.15,5.15,0,0,1,4.72,2.77,5.61,5.61,0,0,1,5-2.77,5,5,0,0,1,4.24,2.17,6.7,6.7,0,0,1,.8,3.68v9.8Z"/><path class="cls-1" d="M234.38,198.62h-4.8l5.57-10.4L228,175.34h4.94l4.55,8.61,4.34-8.61h4.83Z"/><path class="cls-1" d="M252.71,191a8.06,8.06,0,0,1-5.77-2.52l2.24-2.59a4.92,4.92,0,0,0,3.57,1.78,1.78,1.78,0,0,0,1.92-1.68c0-2.59-6.75-1.29-6.75-6.4,0-3.08,2.55-4.8,5.42-4.8a7.81,7.81,0,0,1,4.94,1.61l-2.1,2.49a4.26,4.26,0,0,0-2.52-1c-.74,0-1.61.46-1.61,1.3,0,2.2,7,1.22,7,6.4C259.05,189.1,256,191,252.71,191Z"/></svg>