<svg id="Layer_1" data-name="Layer 1" xmlns="http://www.w3.org/2000/svg" viewBox="0 0 160 600"><defs><style>.cls-1{fill:#fff;}</style></defs><title>text</title><path class="cls-1" d="M21.76,149H13.34c-.69,0-1-.27-1-.81V134.88c0-.55.35-.83,1-.83s1,.28,1,.83v12.23h7.39c.47,0,.71.32.71.95S22.23,149,21.76,149Z"/><path class="cls-1" d="M33.08,147c.47,0,.71.29.71.86a.93.93,0,0,1-.71,1,17.9,17.9,0,0,1-3.74.27,6.36,6.36,0,0,1-3.76-.85,3.39,3.39,0,0,1-1.15-2.87v-4.21a3.3,3.3,0,0,1,1-2.84,7.15,7.15,0,0,1,3.86-.73,7.06,7.06,0,0,1,3.8.7c.66.46,1,1.42,1,2.87v1.82a1.33,1.33,0,0,1-.3.88,1,1,0,0,1-.78.31H26.5v1.35c0,1.13,1,1.69,2.95,1.68a16.85,16.85,0,0,0,2.25-.13A12.42,12.42,0,0,1,33.08,147Zm-6.58-5.76v1.18h5.55v-1.18a1.44,1.44,0,0,0-.57-1.34,4.56,4.56,0,0,0-2.19-.35,5,5,0,0,0-2.2.33A1.42,1.42,0,0,0,26.5,141.26Z"/><path class="cls-1" d="M43.7,145.62v-.26a.83.83,0,0,0-.54-.79,4.46,4.46,0,0,0-1.87-.25,11.58,11.58,0,0,1-3-.42A2.37,2.37,0,0,1,37,143a2.94,2.94,0,0,1-.54-1.84V141a2.72,2.72,0,0,1,1.15-2.59,7.33,7.33,0,0,1,3.53-.67,14.19,14.19,0,0,1,3.5.31.92.92,0,0,1,.71,1c0,.57-.23.85-.71.85-.24,0-.73,0-1.45-.14a15.1,15.1,0,0,0-2.3-.16,6,6,0,0,0-1.79.2c-.39.14-.58.51-.58,1.14v.21c0,.81.86,1.25,2.56,1.3.71,0,1.43.09,2.15.18a3.3,3.3,0,0,1,1.82.8,2.36,2.36,0,0,1,.74,1.92v.28a3.1,3.1,0,0,1-1.17,2.82,7.3,7.3,0,0,1-3.76.74,16.87,16.87,0,0,1-3.72-.29.94.94,0,0,1-.71-1c0-.56.24-.85.71-.85.28,0,.82.05,1.63.15a21.31,21.31,0,0,0,2.36.14A4.71,4.71,0,0,0,43,147,1.31,1.31,0,0,0,43.7,145.62Z"/><path class="cls-1" d="M11.71,162.8A1.11,1.11,0,0,1,12,162a1.17,1.17,0,0,1,.79-.35,1.09,1.09,0,0,1,.8.35,1.2,1.2,0,0,1,.32.81,1.12,1.12,0,0,1-1.92.79A1.16,1.16,0,0,1,11.71,162.8Zm2.15,3.47v9.52c0,.54-.34.81-1,.81s-1-.27-1-.81v-9.52c0-.54.34-.81,1-.81S13.86,165.73,13.86,166.27Z"/><path class="cls-1" d="M19.7,167.56a4.61,4.61,0,0,0-.38,2.49v5.74c0,.54-.34.81-1,.81s-1-.27-1-.81v-6a11.37,11.37,0,0,1,.21-2.47,2.08,2.08,0,0,1,.81-1.34,3,3,0,0,1,1.41-.58,23.31,23.31,0,0,1,2.55-.12c1.93,0,3.15.23,3.66.71a3,3,0,0,1,.9,2,17.7,17.7,0,0,1,.08,1.78v6c0,.54-.35.81-1,.81s-1-.27-1-.81v-5.74a4.5,4.5,0,0,0-.39-2.48c-.26-.27-1.05-.4-2.37-.4A4.06,4.06,0,0,0,19.7,167.56Z"/><path class="cls-1" d="M33.93,176.6a2.91,2.91,0,0,1-2.19-.67,3.42,3.42,0,0,1-.62-2.31v-6.33H29.67c-.46,0-.69-.3-.69-.91s.23-.91.69-.91h1.45v-2.92c0-.54.35-.81,1-.81s1,.27,1,.81v2.92h2.93c.47,0,.7.3.7.91s-.23.91-.7.91H33.19v6.48c0,.63.38.94,1.12.94l2-.11c.48,0,.72.28.72.83a1.06,1.06,0,0,1-.74,1.1C35.75,176.58,35,176.6,33.93,176.6Z"/><path class="cls-1" d="M47.67,174.62c.47,0,.7.29.7.86a.92.92,0,0,1-.7,1,17.9,17.9,0,0,1-3.74.27,6.36,6.36,0,0,1-3.76-.85A3.39,3.39,0,0,1,39,173.06v-4.21a3.27,3.27,0,0,1,1-2.84,7.15,7.15,0,0,1,3.86-.73,7.11,7.11,0,0,1,3.8.7c.66.46,1,1.42,1,2.87v1.82a1.33,1.33,0,0,1-.3.88,1,1,0,0,1-.78.31H41.09v1.35c0,1.13,1,1.69,2.95,1.68a16.85,16.85,0,0,0,2.25-.13A12,12,0,0,1,47.67,174.62Zm-6.58-5.76V170h5.54v-1.18a1.44,1.44,0,0,0-.56-1.34,4.56,4.56,0,0,0-2.19-.35,5,5,0,0,0-2.2.33A1.42,1.42,0,0,0,41.09,168.86Z"/><path class="cls-1" d="M53.87,170.06v5.73c0,.54-.35.81-1,.81s-1-.27-1-.81v-6a7,7,0,0,1,.37-2.86,3.78,3.78,0,0,1,.68-1c.49-.45,1.72-.67,3.7-.67a6.55,6.55,0,0,1,2,.2.72.72,0,0,1,.5.73,1.05,1.05,0,0,1-.28.8,1,1,0,0,1-.7.26l-1.52-.1a6.9,6.9,0,0,0-1.76.13,1.62,1.62,0,0,0-.52.26,2.09,2.09,0,0,0-.25.52,2.46,2.46,0,0,0-.14.81C53.87,169.17,53.87,169.56,53.87,170.06Z"/><path class="cls-1" d="M65,176.71a1.74,1.74,0,0,1-1.1-.37,2.13,2.13,0,0,1-.7-.93L60,166.64c0-.23-.07-.36-.07-.37,0-.54.33-.81,1-.8a1,1,0,0,1,1,.6L65,174.71h.12l3.08-8.64c.15-.4.52-.6,1.12-.6s.88.27.88.8c0,0,0,.14-.06.37l-3.27,8.77a1.94,1.94,0,0,1-.7.94A1.85,1.85,0,0,1,65,176.71Z"/><path class="cls-1" d="M71.69,181.08h-.81c-.47,0-.71-.31-.71-.94s.24-.95.71-.95h.79a1,1,0,0,0,.67-.23.85.85,0,0,0,.31-.71v-12c0-.54.35-.81,1-.81s1,.27,1,.81v11.84a3.42,3.42,0,0,1-.61,2.31A3.28,3.28,0,0,1,71.69,181.08Zm.87-18.28a1.12,1.12,0,0,1,.34-.8,1.17,1.17,0,0,1,.79-.35,1.09,1.09,0,0,1,.8.35,1.2,1.2,0,0,1,.32.81,1.14,1.14,0,0,1-1.12,1.12,1.11,1.11,0,0,1-.8-.33A1.13,1.13,0,0,1,72.56,162.8Z"/><path class="cls-1" d="M81.75,174.88h2.14a3,3,0,0,0,.72-.12,1.39,1.39,0,0,0,.59-.35,1.49,1.49,0,0,0,.25-.92c0-.46,0-1,0-1.48v-5.74c0-.54.34-.81,1-.81s1,.27,1,.81v6a13.11,13.11,0,0,1-.18,2.48,2.2,2.2,0,0,1-.8,1.33,3,3,0,0,1-1.4.58,25.05,25.05,0,0,1-4.69,0,2.93,2.93,0,0,1-1.39-.58,2.1,2.1,0,0,1-.79-1.33,13.84,13.84,0,0,1-.19-2.48v-6c0-.54.36-.81,1-.81s1,.27,1,.81V172a4.72,4.72,0,0,0,.37,2.5,1.15,1.15,0,0,0,.48.25A3,3,0,0,0,81.75,174.88Z"/><path class="cls-1" d="M96.18,171.13a14,14,0,0,1,.26-3,3.2,3.2,0,0,1,2.44-2.65,13.26,13.26,0,0,1,4.81,0,3.21,3.21,0,0,1,1.55.88,3.55,3.55,0,0,1,.91,1.77,17.71,17.71,0,0,1,0,5.93,3.09,3.09,0,0,1-.92,1.7,3.4,3.4,0,0,1-1.54.8,11.6,11.6,0,0,1-2.4.2,11.89,11.89,0,0,1-2.41-.19,3.3,3.3,0,0,1-1.55-.8,3,3,0,0,1-.9-1.72A13.54,13.54,0,0,1,96.18,171.13Zm2.32-2.63a5.78,5.78,0,0,0-.25,2.06c0,1,0,1.75.08,2.33a2.78,2.78,0,0,0,.58,1.52,1.79,1.79,0,0,0,1.35.46c.22,0,.56,0,1,0q2,0,2.37-.48a3,3,0,0,0,.6-1.53c0-.55.08-1.13.08-1.74q0-2.67-.51-3.24a2.74,2.74,0,0,0-.39-.42,2.78,2.78,0,0,0-1.62-.31c-.82,0-1.35,0-1.58,0a1.71,1.71,0,0,0-1.33.47A5.48,5.48,0,0,0,98.5,168.5Z"/><path class="cls-1" d="M120.92,167.17c-.62,0-1.06,0-1.33,0a1.21,1.21,0,0,0-.72.34,1.2,1.2,0,0,0-.37.76,13,13,0,0,0-.06,1.47v6c0,.54-.34.81-1,.81s-1-.27-1-.81v-6.32c0-1.05-.14-1.7-.42-1.94a2.82,2.82,0,0,0-1.72-.36c-.87,0-1.44,0-1.7,0a1.15,1.15,0,0,0-.71.37,1.39,1.39,0,0,0-.34.84c0,.33,0,.88,0,1.63v5.74q0,.81-1,.81c-.69,0-1-.27-1-.81v-6a7.36,7.36,0,0,1,.53-3.31,2.5,2.5,0,0,1,2.16-1.12c.43-.05,1-.07,1.85-.08,1.78,0,2.94.21,3.49.64.54-.42,1.7-.63,3.49-.64a17.18,17.18,0,0,1,1.83.07,2.59,2.59,0,0,1,2.15,1.06,7.67,7.67,0,0,1,.56,3.38v6c0,.54-.35.81-1,.81s-1-.27-1-.81v-5.74c0-.75,0-1.3-.05-1.63a1.45,1.45,0,0,0-.34-.84,1.15,1.15,0,0,0-.71-.37C122,167.18,121.55,167.17,120.92,167.17Z"/><path class="cls-1" d="M21.69,189.62v9.11a13.54,13.54,0,0,1-.25,2.94,3.13,3.13,0,0,1-.9,1.71,3.42,3.42,0,0,1-1.53.8,11.43,11.43,0,0,1-2.39.2,11.71,11.71,0,0,1-2.4-.19,3.33,3.33,0,0,1-1.56-.8,3,3,0,0,1-.9-1.72,14.31,14.31,0,0,1-.24-2.94,14.07,14.07,0,0,1,.25-3,3.21,3.21,0,0,1,2.44-2.65,11.89,11.89,0,0,1,2.66-.22,6.88,6.88,0,0,1,2.75.45v-3.71c0-.55.35-.83,1-.83S21.69,189.07,21.69,189.62Zm-7.86,6.48a5.78,5.78,0,0,0-.25,2.06c0,1,0,1.75.08,2.33a2.86,2.86,0,0,0,.58,1.52,1.83,1.83,0,0,0,1.35.46c.22,0,.57,0,1,0,1.35,0,2.14-.16,2.38-.48a3.09,3.09,0,0,0,.59-1.53c.05-.55.08-1.13.08-1.74,0-1.78-.17-2.86-.5-3.24a3.32,3.32,0,0,0-.4-.42,2.72,2.72,0,0,0-1.61-.31c-.83,0-1.36,0-1.58,0a1.74,1.74,0,0,0-1.34.47A5.48,5.48,0,0,0,13.83,196.1Z"/><path class="cls-1" d="M26,195.07c-.48,0-.72-.28-.72-.85a.94.94,0,0,1,.72-1,16.17,16.17,0,0,1,3.73-.3c1.74,0,2.91.28,3.53.83a3.76,3.76,0,0,1,.93,2.9V201c0,1.39-.34,2.29-1,2.71a8.12,8.12,0,0,1-3.87.63,7.87,7.87,0,0,1-3.84-.63c-.65-.42-1-1.32-1-2.69a4.14,4.14,0,0,1,.74-2.84c.51-.53,1.53-.79,3.07-.78h3.81v-1.19a1.25,1.25,0,0,0-.53-1.17,3.87,3.87,0,0,0-1.87-.31,15.9,15.9,0,0,0-2.35.15A8,8,0,0,1,26,195.07Zm6.12,6.14v-2H28.92a4.1,4.1,0,0,0-1.93.29c-.29.2-.44.64-.44,1.33s.19,1.14.55,1.33a5.64,5.64,0,0,0,2.2.28,6.77,6.77,0,0,0,2.22-.24A1,1,0,0,0,32.11,201.21Z"/><path class="cls-1" d="M41.21,204.2a2.91,2.91,0,0,1-2.19-.67,3.42,3.42,0,0,1-.62-2.31v-6.33H37c-.46,0-.69-.3-.69-.91s.23-.91.69-.91H38.4v-2.92c0-.54.35-.81,1-.81s1,.27,1,.81v2.92H43.4c.46,0,.7.3.7.91s-.24.91-.7.91H40.47v6.48c0,.63.37.94,1.12.94l2-.11c.47,0,.71.28.71.83a1.05,1.05,0,0,1-.74,1.1C43,204.18,42.26,204.2,41.21,204.2Z"/><path class="cls-1" d="M47.58,195.07c-.48,0-.72-.28-.72-.85a.94.94,0,0,1,.72-1,16.17,16.17,0,0,1,3.73-.3c1.73,0,2.91.28,3.52.83a3.76,3.76,0,0,1,.93,2.9V201c0,1.39-.33,2.29-1,2.71a8.07,8.07,0,0,1-3.87.63,7.85,7.85,0,0,1-3.83-.63c-.65-.42-1-1.32-1-2.69a4.08,4.08,0,0,1,.75-2.84c.5-.53,1.52-.79,3.07-.78H53.7v-1.19a1.3,1.3,0,0,0-.53-1.17,3.92,3.92,0,0,0-1.88-.31,15.85,15.85,0,0,0-2.34.15A8.05,8.05,0,0,1,47.58,195.07Zm6.12,6.14v-2H50.5a4.08,4.08,0,0,0-1.92.29c-.3.2-.44.64-.44,1.33s.18,1.14.55,1.33a5.55,5.55,0,0,0,2.19.28,6.69,6.69,0,0,0,2.22-.24A1,1,0,0,0,53.7,201.21Z"/><path class="cls-1" d="M60.13,195.07c-.48,0-.72-.28-.72-.85a.94.94,0,0,1,.72-1,16.17,16.17,0,0,1,3.73-.3c1.74,0,2.91.28,3.53.83a3.76,3.76,0,0,1,.93,2.9V201c0,1.39-.34,2.29-1,2.71a8.07,8.07,0,0,1-3.87.63,7.87,7.87,0,0,1-3.84-.63c-.65-.42-1-1.32-1-2.69a4.14,4.14,0,0,1,.74-2.84c.51-.53,1.53-.79,3.07-.78h3.81v-1.19a1.27,1.27,0,0,0-.52-1.17,4,4,0,0,0-1.88-.31,15.9,15.9,0,0,0-2.35.15A8,8,0,0,1,60.13,195.07Zm6.12,6.14v-2H63.06a4.13,4.13,0,0,0-1.93.29c-.29.2-.44.64-.44,1.33s.19,1.14.55,1.33a5.64,5.64,0,0,0,2.2.28,6.77,6.77,0,0,0,2.22-.24A1,1,0,0,0,66.25,201.21Z"/><path class="cls-1" d="M74,195.16a4.48,4.48,0,0,0-.39,2.49v5.74q0,.81-1,.81c-.69,0-1-.27-1-.81v-6a12.15,12.15,0,0,1,.2-2.47,2.17,2.17,0,0,1,.81-1.34,3,3,0,0,1,1.41-.58,23.6,23.6,0,0,1,2.55-.12c1.93,0,3.16.23,3.66.71a3,3,0,0,1,.9,2,17.7,17.7,0,0,1,.08,1.78v6c0,.54-.34.81-1,.81s-1-.27-1-.81v-5.74a4.5,4.5,0,0,0-.39-2.48c-.26-.27-1.05-.4-2.36-.4S74.2,194.9,74,195.16Z"/><path class="cls-1" d="M92.41,191.79c0-.48.34-.73,1-.73s1,.25,1,.76v4.87c0,1.44-.37,2.39-1.09,2.85a7.13,7.13,0,0,1-3.63.68,17,17,0,0,1-3.37-.21v1.78h4.2a4.68,4.68,0,0,1,3.19.81,3.84,3.84,0,0,1,.83,2.76A2.9,2.9,0,0,1,93.49,208a7.76,7.76,0,0,1-4,.73,8.89,8.89,0,0,1-4-.65,2.81,2.81,0,0,1-1.17-2.67v-9a3.85,3.85,0,0,1,.64-2.51,3.47,3.47,0,0,1,2.43-.88,19.62,19.62,0,0,1,5,.24Zm-6,4.85c0,.83.16,1.33.46,1.5a5.44,5.44,0,0,0,2.22.27,10,10,0,0,0,2.39-.19,1.11,1.11,0,0,0,.79-.56,3.38,3.38,0,0,0,.16-1.25v-1.36a24.6,24.6,0,0,0-3.28-.24,4.63,4.63,0,0,0-2.12.34,1.47,1.47,0,0,0-.62,1.4Zm0,7v1.91a1.12,1.12,0,0,0,.74,1.09,6.76,6.76,0,0,0,2.43.32,5.19,5.19,0,0,0,2.27-.34,1.4,1.4,0,0,0,.58-1.31,1.43,1.43,0,0,0-.56-1.31,4,4,0,0,0-2-.36Z"/><path class="cls-1" d="M99.28,197.66v5.73c0,.54-.34.81-1,.81s-1-.27-1-.81v-6a7.26,7.26,0,0,1,.36-2.86,4,4,0,0,1,.69-1c.49-.45,1.72-.67,3.7-.67a6.59,6.59,0,0,1,2,.2.73.73,0,0,1,.5.73,1.05,1.05,0,0,1-.28.8,1,1,0,0,1-.71.26l-1.51-.1a7.06,7.06,0,0,0-1.77.13,1.66,1.66,0,0,0-.51.26,1.78,1.78,0,0,0-.25.52,2.76,2.76,0,0,0-.15.81C99.29,196.77,99.28,197.16,99.28,197.66Z"/><path class="cls-1" d="M114.78,202.22c.47,0,.71.29.71.86a.93.93,0,0,1-.71,1,17.9,17.9,0,0,1-3.74.27,6.36,6.36,0,0,1-3.76-.85,3.39,3.39,0,0,1-1.15-2.87v-4.21a3.27,3.27,0,0,1,1-2.84,7.09,7.09,0,0,1,3.85-.73,7.13,7.13,0,0,1,3.81.7c.65.46,1,1.42,1,2.87v1.82a1.26,1.26,0,0,1-.3.88,1,1,0,0,1-.78.31H108.2v1.35c0,1.13,1,1.69,3,1.68a16.85,16.85,0,0,0,2.25-.13A12.42,12.42,0,0,1,114.78,202.22Zm-6.58-5.76v1.18h5.55v-1.18a1.46,1.46,0,0,0-.56-1.34,4.61,4.61,0,0,0-2.19-.35,5,5,0,0,0-2.21.33A1.47,1.47,0,0,0,108.2,196.46Z"/><path class="cls-1" d="M118.91,207.88v-9.34a13.44,13.44,0,0,1,.26-2.94,3.27,3.27,0,0,1,.91-1.71,3.35,3.35,0,0,1,1.52-.81,11.43,11.43,0,0,1,2.39-.2,11.82,11.82,0,0,1,2.42.2,3.44,3.44,0,0,1,1.55.8,3.14,3.14,0,0,1,.91,1.71,15.41,15.41,0,0,1,.23,3,13.75,13.75,0,0,1-.26,3,3.18,3.18,0,0,1-2.43,2.65,12.65,12.65,0,0,1-2.66.21,7,7,0,0,1-2.77-.45v4c0,.53-.34.8-1,.8S118.92,208.42,118.91,207.88Zm7.88-6.69a6,6,0,0,0,.24-2.06c0-1,0-1.77-.08-2.35a3,3,0,0,0-.57-1.53c-.24-.32-1-.48-2.39-.48s-2.14.16-2.38.48a3.07,3.07,0,0,0-.6,1.56c-.05.55-.08,1.13-.08,1.73s0,1.09.06,1.49.08.75.14,1.05a2,2,0,0,0,.7,1.13,1.47,1.47,0,0,0,.93.28c.42,0,.86,0,1.29,0s.76,0,1,0a3.86,3.86,0,0,0,.75-.12,1,1,0,0,0,.6-.35A8,8,0,0,0,126.79,201.19Z"/><path class="cls-1" d="M140.67,202.22c.47,0,.7.29.7.86a.92.92,0,0,1-.7,1,17.9,17.9,0,0,1-3.74.27,6.39,6.39,0,0,1-3.77-.85,3.42,3.42,0,0,1-1.14-2.87v-4.21a3.27,3.27,0,0,1,1-2.84,10.62,10.62,0,0,1,7.66,0c.66.46,1,1.42,1,2.87v1.82a1.31,1.31,0,0,1-.3.88,1,1,0,0,1-.78.31h-6.53v1.35c0,1.13,1,1.69,2.95,1.68a16.85,16.85,0,0,0,2.25-.13A12,12,0,0,1,140.67,202.22Zm-6.58-5.76v1.18h5.54v-1.18a1.44,1.44,0,0,0-.56-1.34,4.56,4.56,0,0,0-2.19-.35,5,5,0,0,0-2.2.33A1.42,1.42,0,0,0,134.09,196.46Z"/><path class="cls-1" d="M148.65,204.2a2.91,2.91,0,0,1-2.19-.67,3.42,3.42,0,0,1-.62-2.31v-6.33h-1.45c-.46,0-.69-.3-.69-.91s.23-.91.69-.91h1.45v-2.92c0-.54.35-.81,1-.81s1,.27,1,.81v2.92h2.93c.46,0,.7.3.7.91s-.24.91-.7.91h-2.93v6.48c0,.63.37.94,1.12.94l2-.11c.48,0,.72.28.72.83a1.06,1.06,0,0,1-.75,1.1C150.47,204.18,149.7,204.2,148.65,204.2Z"/><path class="cls-1" d="M23.15,222.37c-.62,0-1.07,0-1.34,0a1.19,1.19,0,0,0-.71.34,1.15,1.15,0,0,0-.37.76,13,13,0,0,0-.06,1.47v6c0,.54-.35.81-1,.81s-1-.27-1-.81v-6.32c0-1-.14-1.7-.41-1.94a2.86,2.86,0,0,0-1.73-.36c-.87,0-1.43,0-1.7,0a1.08,1.08,0,0,0-.7.37,1.39,1.39,0,0,0-.34.84c0,.33-.05.88-.05,1.63V231c0,.54-.34.81-1,.81s-1-.27-1-.81v-6a7.54,7.54,0,0,1,.52-3.31,2.54,2.54,0,0,1,2.17-1.12c.43-.05,1-.07,1.84-.08,1.78,0,2.95.21,3.5.64.53-.42,1.7-.63,3.49-.64a17.43,17.43,0,0,1,1.83.07,2.56,2.56,0,0,1,2.14,1.06,7.5,7.5,0,0,1,.57,3.38v6c0,.54-.35.81-1,.81s-1-.27-1-.81v-5.74a15.42,15.42,0,0,0-.06-1.63,1.44,1.44,0,0,0-.33-.84,1.17,1.17,0,0,0-.71-.37C24.23,222.38,23.78,222.37,23.15,222.37Z"/><path class="cls-1" d="M30.79,226.33a14.07,14.07,0,0,1,.25-3,3.21,3.21,0,0,1,2.45-2.65,10.42,10.42,0,0,1,2.4-.22,10.3,10.3,0,0,1,2.4.22,3.2,3.2,0,0,1,1.56.88,3.64,3.64,0,0,1,.91,1.77,17.71,17.71,0,0,1,0,5.93,3.22,3.22,0,0,1-.92,1.7,3.44,3.44,0,0,1-1.55.8,11.6,11.6,0,0,1-2.4.2,11.71,11.71,0,0,1-2.4-.19,3.33,3.33,0,0,1-1.56-.8,3.16,3.16,0,0,1-.9-1.72A14.31,14.31,0,0,1,30.79,226.33Zm2.31-2.63a6,6,0,0,0-.25,2.06c0,1,0,1.75.08,2.33a2.79,2.79,0,0,0,.59,1.52,1.82,1.82,0,0,0,1.34.46c.22,0,.57,0,1,0,1.35,0,2.14-.16,2.38-.48a3.09,3.09,0,0,0,.59-1.53c0-.56.08-1.13.08-1.74,0-1.78-.17-2.86-.5-3.24a3.32,3.32,0,0,0-.4-.42,2.72,2.72,0,0,0-1.61-.31c-.83,0-1.36,0-1.58,0-.7,0-1.15.2-1.33.47A5.32,5.32,0,0,0,33.1,223.7Z"/><path class="cls-1" d="M47.84,231.8a2.88,2.88,0,0,1-2.19-.67,3.36,3.36,0,0,1-.62-2.31v-6.33H43.58c-.47,0-.7-.3-.7-.91s.23-.91.7-.91H45v-2.92c0-.54.34-.81,1-.81s1,.27,1,.81v2.92H50c.47,0,.7.3.7.91s-.23.91-.7.91H47.09V229c0,.63.38.94,1.13.94l2-.11c.48,0,.72.28.72.83a1.06,1.06,0,0,1-.74,1.1C49.65,231.78,48.88,231.8,47.84,231.8Z"/><path class="cls-1" d="M70,229.59V217.68c0-.55.34-.83,1-.83s1,.28,1,.83v12.14a2,2,0,0,1-.56,1.56,1.85,1.85,0,0,1-1.32.53,2,2,0,0,1-1.21-.33,3.1,3.1,0,0,1-.83-1l-6.64-11.56h-.12V231c0,.55-.34.83-1,.83s-1-.28-1-.83V218.83a2,2,0,0,1,.55-1.56,1.84,1.84,0,0,1,1.31-.53,2,2,0,0,1,1.21.35,3.28,3.28,0,0,1,.83.95l6.67,11.55Z"/><path class="cls-1" d="M75.8,226.33a14.07,14.07,0,0,1,.25-3,3.22,3.22,0,0,1,2.45-2.65,10.42,10.42,0,0,1,2.4-.22,10.3,10.3,0,0,1,2.4.22,3.2,3.2,0,0,1,1.56.88,3.64,3.64,0,0,1,.91,1.77,17.71,17.71,0,0,1,0,5.93,3.15,3.15,0,0,1-.92,1.7,3.44,3.44,0,0,1-1.55.8,14.87,14.87,0,0,1-4.8,0A3.25,3.25,0,0,1,77,231a3.11,3.11,0,0,1-.91-1.72A14.31,14.31,0,0,1,75.8,226.33Zm2.31-2.63a6.09,6.09,0,0,0-.24,2.06c0,1,0,1.75.07,2.33a2.87,2.87,0,0,0,.59,1.52,1.82,1.82,0,0,0,1.34.46c.23,0,.57,0,1,0,1.35,0,2.14-.16,2.38-.48a3,3,0,0,0,.59-1.53,16.26,16.26,0,0,0,.08-1.74c0-1.78-.17-2.86-.5-3.24a2.74,2.74,0,0,0-.39-.42,2.78,2.78,0,0,0-1.62-.31c-.83,0-1.36,0-1.58,0-.7,0-1.15.2-1.33.47A6.37,6.37,0,0,0,78.11,223.7Z"/><path class="cls-1" d="M91.06,225.26V231c0,.54-.34.81-1,.81s-1-.27-1-.81v-6a7.26,7.26,0,0,1,.36-2.86,4.34,4.34,0,0,1,.68-1c.5-.45,1.73-.67,3.71-.67a6.47,6.47,0,0,1,2,.2.73.73,0,0,1,.51.73,1.07,1.07,0,0,1-.28.8,1,1,0,0,1-.71.26l-1.51-.1a7,7,0,0,0-1.77.13,1.66,1.66,0,0,0-.51.26,1.78,1.78,0,0,0-.25.52,2.76,2.76,0,0,0-.15.81C91.07,224.37,91.06,224.76,91.06,225.26Z"/><path class="cls-1" d="M105,228.42v-.26a.83.83,0,0,0-.54-.79,4.43,4.43,0,0,0-1.87-.25,11.58,11.58,0,0,1-3-.42,2.44,2.44,0,0,1-1.34-.91,2.94,2.94,0,0,1-.54-1.84v-.19a2.72,2.72,0,0,1,1.15-2.59,7.35,7.35,0,0,1,3.53-.67,14.19,14.19,0,0,1,3.5.31.92.92,0,0,1,.71,1c0,.57-.23.85-.71.85-.24,0-.73-.05-1.44-.14a15.33,15.33,0,0,0-2.31-.16,6,6,0,0,0-1.79.2c-.39.14-.58.51-.58,1.14v.21c0,.81.86,1.25,2.56,1.3.72,0,1.43.09,2.15.18a3.3,3.3,0,0,1,1.82.8,2.36,2.36,0,0,1,.74,1.92v.28a3.1,3.1,0,0,1-1.17,2.82,7.3,7.3,0,0,1-3.76.74,16.87,16.87,0,0,1-3.72-.29.93.93,0,0,1-.7-1c0-.56.23-.85.7-.85.28,0,.82,0,1.63.15a21.45,21.45,0,0,0,2.36.14,4.67,4.67,0,0,0,1.87-.31A1.31,1.31,0,0,0,105,228.42Z"/><path class="cls-1" d="M111.93,217.22v8.87l5.14-5.19a1,1,0,0,1,.76-.35.94.94,0,0,1,.72.29.86.86,0,0,1,.3.67,1.1,1.1,0,0,1-.37.77l-3,2.76,3.66,5.11a1.18,1.18,0,0,1,.23.68.94.94,0,0,1-.33.68,1.07,1.07,0,0,1-.76.31.77.77,0,0,1-.68-.37l-3.59-5-2.11,2V231c0,.54-.34.81-1,.81s-1-.27-1-.81V217.22c0-.55.36-.83,1-.83S111.93,216.67,111.93,217.22Z"/><path class="cls-1" d="M23.66,245.28v13.31c0,.54-.36.81-1,.81s-1-.27-1-.81V252.5H14.37v6.09c0,.54-.35.81-1,.81s-1-.27-1-.81V245.28c0-.55.35-.83,1-.83s1,.28,1,.83v5.34h7.22v-5.34c0-.55.34-.83,1-.83S23.65,244.73,23.66,245.28Z"/><path class="cls-1" d="M30.44,263.88c-.59,0-.89-.26-.9-.8l.08-.37,1.23-3.31a1.94,1.94,0,0,1-1.12-1.19l-3.27-8.77c0-.23-.06-.36-.06-.37,0-.54.29-.81.88-.81s1,.2,1.12.61l3.08,8.64h.12l3.07-8.64c.15-.4.52-.6,1.12-.6s.88.27.88.8c0,0,0,.14-.07.37l-5.05,13.85C31.4,263.68,31,263.88,30.44,263.88Z"/><path class="cls-1" d="M48.8,244.82v9.11a13.54,13.54,0,0,1-.25,2.94,3.13,3.13,0,0,1-.9,1.71,3.42,3.42,0,0,1-1.53.8,11.43,11.43,0,0,1-2.39.2,11.71,11.71,0,0,1-2.4-.19,3.33,3.33,0,0,1-1.56-.8,3.1,3.1,0,0,1-.9-1.72,15.05,15.05,0,0,1-.24-2.94,14.07,14.07,0,0,1,.25-3,3.21,3.21,0,0,1,2.45-2.65,11.73,11.73,0,0,1,2.65-.22,6.88,6.88,0,0,1,2.75.45v-3.71c0-.55.35-.83,1-.83S48.8,244.27,48.8,244.82Zm-7.86,6.48a5.78,5.78,0,0,0-.25,2.06c0,1,0,1.75.08,2.33a2.86,2.86,0,0,0,.58,1.52,1.83,1.83,0,0,0,1.35.46c.22,0,.57,0,1,0,1.35,0,2.14-.16,2.38-.48a3.09,3.09,0,0,0,.59-1.53c0-.55.08-1.13.08-1.74,0-1.78-.17-2.86-.5-3.24a3.32,3.32,0,0,0-.4-.42,2.72,2.72,0,0,0-1.61-.31c-.83,0-1.36,0-1.58,0a1.74,1.74,0,0,0-1.34.47A5.48,5.48,0,0,0,40.94,251.3Z"/><path class="cls-1" d="M54,252.86v5.73c0,.54-.34.81-1,.81s-1-.27-1-.81v-6a7.21,7.21,0,0,1,.37-2.86,4,4,0,0,1,.68-1c.49-.45,1.73-.67,3.7-.67a6.55,6.55,0,0,1,2,.2.73.73,0,0,1,.51.73,1.09,1.09,0,0,1-.28.8,1,1,0,0,1-.71.26l-1.52-.1a6.9,6.9,0,0,0-1.76.13,1.75,1.75,0,0,0-.52.26,2.16,2.16,0,0,0-.24.52,2.76,2.76,0,0,0-.15.81C54,252,54,252.36,54,252.86Z"/><path class="cls-1" d="M60.14,253.93a14,14,0,0,1,.26-3,3.21,3.21,0,0,1,2.44-2.65,13.26,13.26,0,0,1,4.81,0,3.21,3.21,0,0,1,1.55.88,3.48,3.48,0,0,1,.91,1.77,17.71,17.71,0,0,1,0,5.93,3.09,3.09,0,0,1-.92,1.7,3.4,3.4,0,0,1-1.54.8,11.6,11.6,0,0,1-2.4.2,11.89,11.89,0,0,1-2.41-.19,3.35,3.35,0,0,1-1.55-.8,3,3,0,0,1-.9-1.72A14.2,14.2,0,0,1,60.14,253.93Zm2.32-2.63a5.78,5.78,0,0,0-.25,2.06c0,1,0,1.75.08,2.33a2.86,2.86,0,0,0,.58,1.52,1.81,1.81,0,0,0,1.35.46c.22,0,.56,0,1,0,1.34,0,2.14-.16,2.38-.48a3.09,3.09,0,0,0,.59-1.53c0-.55.08-1.13.08-1.74q0-2.67-.51-3.24a1.8,1.8,0,0,0-2-.73c-.83,0-1.36,0-1.58,0-.71,0-1.15.2-1.34.47A5.48,5.48,0,0,0,62.46,251.3Z"/></svg>