<svg id="Layer_1" data-name="Layer 1" xmlns="http://www.w3.org/2000/svg" viewBox="0 0 160 600"><defs><style>.cls-1{fill:#fff;}</style></defs><title>text</title><path class="cls-1" d="M20.37,60.92h8.7v1.6H22.31v4.74H28v1.63h-5.7v5.48h7V76H20.37Z"/><path class="cls-1" d="M32.26,64.82h1.57L34,66.43h.07a5.3,5.3,0,0,1,3.75-1.88c2.34,0,3.4,1.52,3.4,4.37V76H39.32V69.17c0-2.09-.64-3-2.11-3-1.15,0-1.93.6-3.06,1.73V76H32.26Z"/><path class="cls-1" d="M49,64.55c2.85,0,4.46,2,4.46,5.24a6.3,6.3,0,0,1-.07,1H45.88c.14,2.41,1.59,3.93,3.72,3.93a5.07,5.07,0,0,0,2.79-.88l.66,1.25a6.64,6.64,0,0,1-3.67,1.15c-3,0-5.36-2.19-5.36-5.84S46.48,64.55,49,64.55Zm2.81,5c0-2.27-1-3.54-2.76-3.54-1.57,0-3,1.29-3.22,3.54Z"/><path class="cls-1" d="M56.25,59.63h1.89V73.88c0,.6.25.83.53.83a1.82,1.82,0,0,0,.41,0l.25,1.42a2.42,2.42,0,0,1-1.08.19c-1.42,0-2-.9-2-2.53Z"/><path class="cls-1" d="M65.43,64.82h1.93L69,71.29c.25,1,.46,2.07.66,3.1h.1c.25-1,.48-2.07.75-3.1l1.73-6.47H74.1l1.75,6.47c.27,1,.53,2.07.78,3.1h.09c.25-1,.46-2,.69-3.1L79,64.82h1.8L77.85,76h-2.3l-1.61-6c-.28-1.06-.48-2.09-.76-3.22h-.09c-.26,1.13-.49,2.18-.78,3.24l-1.57,6H68.53Z"/><path class="cls-1" d="M82.93,61.31a1.31,1.31,0,1,1,1.31,1.21A1.22,1.22,0,0,1,82.93,61.31Zm.35,3.51h1.88V76H83.28Z"/><path class="cls-1" d="M88.94,59.63h1.88V73.88c0,.6.25.83.53.83a1.77,1.77,0,0,0,.41,0L92,76.09a2.49,2.49,0,0,1-1.08.19c-1.43,0-2-.9-2-2.53Z"/><path class="cls-1" d="M94.8,59.63h1.89V73.88c0,.6.25.83.52.83a1.85,1.85,0,0,0,.42,0l.25,1.42a2.42,2.42,0,0,1-1.08.19c-1.43,0-2-.9-2-2.53Z"/><path class="cls-1" d="M105.15,64.82h1.91v6.83c0,2.1.62,3,2.09,3,1.15,0,1.95-.57,3-1.88V64.82h1.89V76h-1.57l-.16-1.75h-.07a4.7,4.7,0,0,1-3.67,2c-2.37,0-3.43-1.52-3.43-4.37Z"/><path class="cls-1" d="M117.52,73.47a5.05,5.05,0,0,0,3.29,1.33c1.47,0,2.21-.78,2.21-1.74,0-1.15-1.33-1.66-2.55-2.12-1.59-.57-3.34-1.33-3.34-3.22s1.43-3.17,3.84-3.17a5.55,5.55,0,0,1,3.47,1.26l-.89,1.2A4.14,4.14,0,0,0,121,66c-1.41,0-2,.76-2,1.61,0,1,1.22,1.45,2.48,1.93,1.61.6,3.41,1.27,3.41,3.38,0,1.82-1.45,3.34-4.1,3.34a6.76,6.76,0,0,1-4.16-1.54Z"/><path class="cls-1" d="M131.64,64.55c2.86,0,4.46,2,4.46,5.24a7.78,7.78,0,0,1-.06,1h-7.55c.14,2.41,1.59,3.93,3.73,3.93a5,5,0,0,0,2.78-.88l.67,1.25A6.67,6.67,0,0,1,132,76.28c-3,0-5.36-2.19-5.36-5.84S129.09,64.55,131.64,64.55Zm2.81,5c0-2.27-1-3.54-2.76-3.54-1.56,0-3,1.29-3.22,3.54Z"/><path class="cls-1" d="M8.86,88.52h4.65c3.33,0,5.56,1.12,5.56,4.43s-2.28,4.67-5.56,4.67H10.79v6H8.86Zm4.39,7.54c2.65,0,3.91-1,3.91-3.11s-1.31-2.89-3.91-2.89H10.79v6Z"/><path class="cls-1" d="M25.67,92.15c2.74,0,5.18,2.14,5.18,5.89s-2.44,5.84-5.18,5.84S20.5,101.74,20.5,98,22.94,92.15,25.67,92.15Zm0,10.16c1.93,0,3.22-1.72,3.22-4.27s-1.29-4.33-3.22-4.33S22.45,95.46,22.45,98,23.77,102.31,25.67,102.31Z"/><path class="cls-1" d="M32.37,92.42H34.3L36,98.89c.25,1,.46,2.07.66,3.1h.09c.26-1,.49-2.07.76-3.1l1.73-6.47H41l1.74,6.47c.28,1,.53,2.07.79,3.1h.09c.25-1,.46-2,.69-3.1L46,92.42h1.79l-3,11.18h-2.3l-1.61-6c-.28-1.06-.49-2.09-.76-3.22H40c-.25,1.13-.48,2.18-.78,3.24l-1.56,6H35.47Z"/><path class="cls-1" d="M54.31,92.15c2.85,0,4.46,2,4.46,5.24a6.3,6.3,0,0,1-.07,1H51.16c.14,2.41,1.58,3.93,3.72,3.93a5.07,5.07,0,0,0,2.79-.88l.66,1.25a6.64,6.64,0,0,1-3.68,1.15c-3,0-5.35-2.19-5.35-5.84S51.76,92.15,54.31,92.15Zm2.8,5c0-2.27-1-3.54-2.76-3.54-1.56,0-3,1.29-3.21,3.54Z"/><path class="cls-1" d="M61.53,87.23h1.89v14.25c0,.6.25.83.53.83a1.82,1.82,0,0,0,.41,0l.25,1.42a2.42,2.42,0,0,1-1.08.19c-1.42,0-2-.9-2-2.53Z"/><path class="cls-1" d="M71.74,101.07A5.05,5.05,0,0,0,75,102.4c1.47,0,2.21-.78,2.21-1.74,0-1.15-1.34-1.66-2.55-2.12-1.59-.57-3.34-1.33-3.34-3.22s1.43-3.17,3.84-3.17a5.57,5.57,0,0,1,3.47,1.26l-.89,1.2a4.14,4.14,0,0,0-2.55-1c-1.41,0-2,.76-2,1.61,0,1,1.22,1.45,2.48,1.93,1.61.6,3.41,1.27,3.41,3.38,0,1.82-1.45,3.34-4.1,3.34a6.76,6.76,0,0,1-4.16-1.54Z"/><path class="cls-1" d="M86,92.15c2.74,0,5.18,2.14,5.18,5.89s-2.44,5.84-5.18,5.84-5.17-2.14-5.17-5.84S83.29,92.15,86,92.15Zm0,10.16c1.94,0,3.22-1.72,3.22-4.27S88,93.71,86,93.71,82.81,95.46,82.81,98,84.12,102.31,86,102.31Z"/><path class="cls-1" d="M105.62,103.46a6.81,6.81,0,0,1-2.07.42c-2.39,0-3.2-1.52-3.2-3.73V94h-4v9.63H94.47V94H93V92.54l1.52-.12V90.65c0-2.27,1-3.7,3.26-3.7a5,5,0,0,1,1.86.37l-.41,1.45a3,3,0,0,0-1.26-.28c-1.06,0-1.57.74-1.57,2.16v1.77h4.09l.23-3.12h1.57v3.12h3V94h-3v6.2c0,1.38.46,2.17,1.75,2.17a4.29,4.29,0,0,0,1.26-.3Z"/><path class="cls-1" d="M106.47,92.42h1.93l1.66,6.47c.25,1,.46,2.07.67,3.1h.09c.25-1,.48-2.07.76-3.1l1.72-6.47h1.84l1.75,6.47c.28,1,.53,2.07.78,3.1h.09c.26-1,.46-2,.69-3.1l1.64-6.47h1.79l-3,11.18h-2.3l-1.61-6c-.28-1.06-.48-2.09-.76-3.22h-.09c-.25,1.13-.48,2.18-.78,3.24l-1.57,6h-2.2Z"/><path class="cls-1" d="M130.41,96.52c0-1.43-.48-2.81-2.3-2.81a6,6,0,0,0-3.33,1.2L124,93.6a8.29,8.29,0,0,1,4.39-1.45c2.74,0,3.89,1.82,3.89,4.6v6.85h-1.56l-.17-1.33h0a6.09,6.09,0,0,1-3.7,1.61,3.05,3.05,0,0,1-3.29-3.18C123.54,98.27,125.65,97.05,130.41,96.52Zm-3,5.84a4.55,4.55,0,0,0,3-1.5v-3.1c-3.74.46-5,1.38-5,2.8A1.72,1.72,0,0,0,127.36,102.36Z"/><path class="cls-1" d="M135.87,92.42h1.56l.16,2h.07a3.83,3.83,0,0,1,3.17-2.3,2.79,2.79,0,0,1,1.2.23L141.66,94a3.26,3.26,0,0,0-1.08-.18c-.94,0-2.07.69-2.83,2.58v7.17h-1.88Z"/><path class="cls-1" d="M147.8,92.15c2.85,0,4.46,2,4.46,5.24a6.3,6.3,0,0,1-.07,1h-7.54c.14,2.41,1.59,3.93,3.73,3.93a5.06,5.06,0,0,0,2.78-.88l.67,1.25a6.7,6.7,0,0,1-3.68,1.15c-3,0-5.36-2.19-5.36-5.84S145.25,92.15,147.8,92.15Zm2.81,5c0-2.27-1-3.54-2.76-3.54-1.57,0-3,1.29-3.22,3.54Z"/><path class="cls-1" d="M29.69,121.57H28v-1.43l1.75-.12L30,116.9H31.6V120h3v1.55h-3v6.2c0,1.38.43,2.17,1.72,2.17a4.35,4.35,0,0,0,1.27-.3l.36,1.42a6.81,6.81,0,0,1-2.07.42c-2.39,0-3.19-1.52-3.19-3.73Z"/><path class="cls-1" d="M41.26,119.75c2.73,0,5.17,2.14,5.17,5.89s-2.44,5.84-5.17,5.84-5.18-2.14-5.18-5.84S38.52,119.75,41.26,119.75Zm0,10.16c1.93,0,3.22-1.72,3.22-4.27s-1.29-4.33-3.22-4.33S38,123.06,38,125.64,39.35,129.91,41.26,129.91Z"/><path class="cls-1" d="M53.68,116.51a1.31,1.31,0,0,1,2.62,0,1.31,1.31,0,0,1-2.62,0ZM54,120h1.89V131.2H54Z"/><path class="cls-1" d="M59.68,120h1.56l.16,1.61h.07a5.3,5.3,0,0,1,3.75-1.88c2.35,0,3.4,1.52,3.4,4.37v7.08H66.74v-6.83c0-2.09-.64-3-2.12-3-1.15,0-1.93.6-3.06,1.73v8.09H59.68Z"/><path class="cls-1" d="M76.81,119.75a4.62,4.62,0,0,1,3.27,1.33l-.94,1.22a3.42,3.42,0,0,0-2.26-1c-2,0-3.49,1.75-3.49,4.33s1.4,4.27,3.45,4.27a4,4,0,0,0,2.62-1.12l.85,1.24a5.57,5.57,0,0,1-3.63,1.45c-3,0-5.25-2.14-5.25-5.84S73.94,119.75,76.81,119.75Z"/><path class="cls-1" d="M82.75,120h1.56l.16,2h.07a3.83,3.83,0,0,1,3.18-2.3,2.78,2.78,0,0,1,1.19.23l-.37,1.65a3.21,3.21,0,0,0-1.08-.18c-.94,0-2.07.69-2.83,2.58v7.17H82.75Z"/><path class="cls-1" d="M94.68,119.75c2.86,0,4.47,2,4.47,5.24a7.62,7.62,0,0,1-.07,1H91.53c.14,2.41,1.59,3.93,3.73,3.93a5,5,0,0,0,2.78-.88l.67,1.25A6.67,6.67,0,0,1,95,131.48c-3,0-5.36-2.19-5.36-5.84S92.13,119.75,94.68,119.75Zm2.81,5c0-2.27-1-3.54-2.76-3.54-1.56,0-3,1.29-3.22,3.54Z"/><path class="cls-1" d="M107.91,124.12c0-1.43-.48-2.81-2.3-2.81a6,6,0,0,0-3.34,1.2l-.75-1.31a8.23,8.23,0,0,1,4.39-1.45c2.73,0,3.88,1.82,3.88,4.6v6.85h-1.56l-.16-1.33h0a6.09,6.09,0,0,1-3.7,1.61A3.06,3.06,0,0,1,101,128.3C101,125.87,103.15,124.65,107.91,124.12ZM104.85,130a4.57,4.57,0,0,0,3.06-1.5v-3.1c-3.75.46-5,1.38-5,2.81A1.71,1.71,0,0,0,104.85,130Z"/><path class="cls-1" d="M113.06,128.67a5.05,5.05,0,0,0,3.29,1.33c1.47,0,2.21-.78,2.21-1.74,0-1.15-1.34-1.66-2.56-2.12-1.58-.57-3.33-1.33-3.33-3.22s1.43-3.17,3.84-3.17A5.57,5.57,0,0,1,120,121l-.89,1.2a4.14,4.14,0,0,0-2.56-1c-1.4,0-2,.76-2,1.61,0,1,1.22,1.45,2.48,1.93,1.61.6,3.4,1.27,3.4,3.38,0,1.82-1.44,3.34-4.09,3.34a6.74,6.74,0,0,1-4.16-1.54Z"/><path class="cls-1" d="M127.18,119.75c2.85,0,4.46,2,4.46,5.24a6.3,6.3,0,0,1-.07,1H124c.14,2.41,1.59,3.93,3.73,3.93a5.06,5.06,0,0,0,2.78-.88l.67,1.25a6.7,6.7,0,0,1-3.68,1.15c-3,0-5.36-2.19-5.36-5.84S124.63,119.75,127.18,119.75Zm2.81,5c0-2.27-1-3.54-2.76-3.54-1.56,0-3,1.29-3.22,3.54Z"/><path class="cls-1" d="M35.83,147.62h1.56l.16,2h.07a3.83,3.83,0,0,1,3.18-2.3,2.78,2.78,0,0,1,1.19.23l-.37,1.65a3.21,3.21,0,0,0-1.08-.18c-.94,0-2.07.69-2.83,2.58v7.17H35.83Z"/><path class="cls-1" d="M47.77,147.35c2.85,0,4.46,2.05,4.46,5.24a7.62,7.62,0,0,1-.07,1H44.61c.14,2.41,1.59,3.93,3.73,3.93a5,5,0,0,0,2.78-.88l.67,1.25a6.67,6.67,0,0,1-3.68,1.15c-3,0-5.36-2.19-5.36-5.85S45.21,147.35,47.77,147.35Zm2.8,5c0-2.27-1-3.54-2.76-3.54-1.56,0-3,1.29-3.22,3.54Z"/><path class="cls-1" d="M53.49,147.62h2L57.56,154c.32,1.1.69,2.23,1,3.29h.09c.32-1.06.69-2.19,1-3.29l2.12-6.35h1.86l-4,11.18h-2.2Z"/><path class="cls-1" d="M69.94,147.35c2.85,0,4.46,2.05,4.46,5.24a7.62,7.62,0,0,1-.07,1H66.79c.13,2.41,1.58,3.93,3.72,3.93a5,5,0,0,0,2.78-.88l.67,1.25a6.67,6.67,0,0,1-3.68,1.15c-3,0-5.36-2.19-5.36-5.85S67.38,147.35,69.94,147.35Zm2.8,5c0-2.27-1-3.54-2.76-3.54-1.56,0-3,1.29-3.22,3.54Z"/><path class="cls-1" d="M77.16,147.62h1.56l.16,1.61H79a5.3,5.3,0,0,1,3.75-1.88c2.35,0,3.4,1.52,3.4,4.37v7.08H84.22V152c0-2.09-.65-3-2.12-3-1.15,0-1.93.6-3.06,1.73v8.09H77.16Z"/><path class="cls-1" d="M89.58,147.62h1.91v6.83c0,2.1.62,3,2.09,3,1.15,0,2-.57,3-1.88v-7.94h1.89V158.8H96.91l-.16-1.75h-.07a4.71,4.71,0,0,1-3.68,2c-2.36,0-3.42-1.52-3.42-4.37Z"/><path class="cls-1" d="M106.44,147.35c2.85,0,4.46,2.05,4.46,5.24a6.3,6.3,0,0,1-.07,1h-7.54c.13,2.41,1.58,3.93,3.72,3.93a5,5,0,0,0,2.78-.88l.67,1.25a6.64,6.64,0,0,1-3.68,1.15c-3,0-5.36-2.19-5.36-5.85S103.88,147.35,106.44,147.35Zm2.8,5c0-2.27-1-3.54-2.76-3.54-1.56,0-3,1.29-3.22,3.54Z"/><path class="cls-1" d="M113.36,156.27a5,5,0,0,0,3.29,1.33c1.47,0,2.21-.78,2.21-1.74,0-1.15-1.34-1.66-2.56-2.12-1.58-.57-3.33-1.33-3.33-3.22s1.43-3.17,3.84-3.17a5.57,5.57,0,0,1,3.47,1.26l-.9,1.2a4.09,4.09,0,0,0-2.55-1c-1.4,0-2,.76-2,1.61,0,1,1.21,1.45,2.48,1.93,1.61.6,3.4,1.27,3.4,3.38,0,1.82-1.45,3.34-4.09,3.34a6.74,6.74,0,0,1-4.16-1.54Z"/><path class="cls-1" d="M61.6,171.57a3,3,0,0,0-1.27-.28c-1,0-1.56.74-1.56,2.16v1.77h2.37v1.55H58.77v9.63H56.88v-9.63H55.37v-1.43l1.51-.12v-1.77c0-2.27,1-3.7,3.27-3.7a5,5,0,0,1,1.86.37Z"/><path class="cls-1" d="M63.28,175.22h1.56l.16,2h.07a3.83,3.83,0,0,1,3.18-2.3,2.78,2.78,0,0,1,1.19.23l-.37,1.65a3.21,3.21,0,0,0-1.08-.18c-.94,0-2.07.69-2.83,2.58v7.17H63.28Z"/><path class="cls-1" d="M75.38,175c2.73,0,5.17,2.14,5.17,5.88s-2.44,5.85-5.17,5.85-5.18-2.14-5.18-5.85S72.64,175,75.38,175Zm0,10.16c1.93,0,3.22-1.72,3.22-4.28s-1.29-4.32-3.22-4.32-3.22,1.75-3.22,4.32S73.47,185.11,75.38,185.11Z"/><path class="cls-1" d="M83.5,175.22h1.56l.16,1.61h.07A4.92,4.92,0,0,1,88.76,175a2.93,2.93,0,0,1,3.08,2.14C93,175.82,94.17,175,95.52,175c2.3,0,3.41,1.52,3.41,4.37v7.08H97v-6.83c0-2.09-.67-3-2.07-3-.87,0-1.77.58-2.81,1.73v8.09H90.28v-6.83c0-2.09-.67-3-2.09-3a4.22,4.22,0,0,0-2.81,1.73v8.09H83.5Z"/><path class="cls-1" d="M53.3,214.94v3.77H51.41V202.82H53l.17,1.29h.06a5.82,5.82,0,0,1,3.57-1.56c2.87,0,4.41,2.23,4.41,5.7,0,3.8-2.27,6-4.83,6a5.23,5.23,0,0,1-3.1-1.29ZM56,212.69c1.84,0,3.2-1.68,3.2-4.44,0-2.46-.83-4.11-2.94-4.11a4.66,4.66,0,0,0-3,1.51v5.87A4.42,4.42,0,0,0,56,212.69Z"/><path class="cls-1" d="M68.52,202.55c2.74,0,5.18,2.14,5.18,5.89s-2.44,5.84-5.18,5.84-5.17-2.14-5.17-5.84S65.79,202.55,68.52,202.55Zm0,10.16c1.93,0,3.22-1.72,3.22-4.27s-1.29-4.33-3.22-4.33-3.22,1.75-3.22,4.33S66.61,212.71,68.52,212.71Z"/><path class="cls-1" d="M75.22,202.82h1.93l1.65,6.47c.26,1.05.46,2.07.67,3.1h.09c.25-1,.48-2.07.76-3.1l1.73-6.47h1.84l1.74,6.47c.28,1.05.53,2.07.78,3.1h.1c.25-1,.46-2,.69-3.1l1.63-6.47h1.79l-3,11.18h-2.3l-1.61-6c-.27-1.06-.48-2.09-.75-3.22h-.1c-.25,1.13-.48,2.18-.78,3.24l-1.56,6H78.32Z"/><path class="cls-1" d="M97.16,202.55c2.85,0,4.46,2,4.46,5.24a7.62,7.62,0,0,1-.07,1H94c.13,2.41,1.58,3.93,3.72,3.93a5,5,0,0,0,2.78-.88l.67,1.25a6.67,6.67,0,0,1-3.68,1.15c-3,0-5.36-2.19-5.36-5.84S94.6,202.55,97.16,202.55Zm2.8,5c0-2.27-1-3.54-2.76-3.54-1.56,0-3,1.29-3.22,3.54Z"/><path class="cls-1" d="M104.38,202.82h1.56l.16,2h.07a3.83,3.83,0,0,1,3.18-2.3,2.78,2.78,0,0,1,1.19.23l-.37,1.65a3.21,3.21,0,0,0-1.08-.18c-.94,0-2.07.69-2.83,2.58V214h-1.88Z"/><path class="cls-1" d="M32.83,241.21v-.09a2.08,2.08,0,0,1-1-1.82,2.61,2.61,0,0,1,1.22-2.07v-.09a3.94,3.94,0,0,1,2.76-7,4.44,4.44,0,0,1,1.58.27h3.89v1.45H39a3.25,3.25,0,0,1,.92,2.3,3.84,3.84,0,0,1-4.09,3.89,3.9,3.9,0,0,1-1.68-.39,1.69,1.69,0,0,0-.72,1.33c0,.71.46,1.22,2,1.22h2.16c2.6,0,3.91.8,3.91,2.67,0,2.07-2.18,3.86-5.65,3.86-2.74,0-4.63-1.08-4.63-3A3.23,3.23,0,0,1,32.83,241.21Zm3.26,4.23c2.14,0,3.54-1.1,3.54-2.28,0-1-.8-1.38-2.25-1.38H35.45A5.33,5.33,0,0,1,34,241.6a2.33,2.33,0,0,0-1.15,1.89C32.85,244.68,34.07,245.44,36.09,245.44Zm2.1-11.31a2.38,2.38,0,1,0-4.74,0,2.39,2.39,0,1,0,4.74,0Z"/><path class="cls-1" d="M47.5,230.15c2.85,0,4.46,2,4.46,5.24a6.3,6.3,0,0,1-.07,1H44.35c.14,2.41,1.59,3.93,3.73,3.93a5.06,5.06,0,0,0,2.78-.88l.66,1.25a6.64,6.64,0,0,1-3.67,1.15c-3,0-5.36-2.19-5.36-5.85S45,230.15,47.5,230.15Zm2.81,5c0-2.27-1-3.54-2.76-3.54-1.57,0-3,1.29-3.22,3.54Z"/><path class="cls-1" d="M54.72,230.42h1.57l.16,1.61h.07a5.26,5.26,0,0,1,3.74-1.88c2.35,0,3.41,1.52,3.41,4.37v7.08H61.78v-6.83c0-2.09-.64-3-2.11-3-1.15,0-1.93.6-3.06,1.73v8.09H54.72Z"/><path class="cls-1" d="M71.49,230.15c2.85,0,4.46,2,4.46,5.24a6.3,6.3,0,0,1-.07,1H68.34c.14,2.41,1.59,3.93,3.72,3.93a5.07,5.07,0,0,0,2.79-.88l.66,1.25a6.64,6.64,0,0,1-3.68,1.15c-3,0-5.35-2.19-5.35-5.85S68.94,230.15,71.49,230.15Zm2.8,5c0-2.27-1-3.54-2.75-3.54-1.57,0-3,1.29-3.22,3.54Z"/><path class="cls-1" d="M78.71,230.42h1.57l.16,2h.07a3.79,3.79,0,0,1,3.17-2.3,2.75,2.75,0,0,1,1.19.23L84.51,232a3.26,3.26,0,0,0-1.08-.18c-1,0-2.07.69-2.83,2.58v7.17H78.71Z"/><path class="cls-1" d="M92.44,234.52c0-1.43-.48-2.81-2.3-2.81a6,6,0,0,0-3.33,1.2l-.76-1.31a8.26,8.26,0,0,1,4.39-1.45c2.74,0,3.89,1.81,3.89,4.6v6.85H92.76l-.16-1.33h0a6.11,6.11,0,0,1-3.71,1.61,3,3,0,0,1-3.28-3.18C85.57,236.26,87.68,235.05,92.44,234.52Zm-3.06,5.84a4.57,4.57,0,0,0,3.06-1.5v-3.1c-3.75.46-5,1.38-5,2.8A1.71,1.71,0,0,0,89.38,240.36Z"/><path class="cls-1" d="M98.22,232H96.56v-1.42l1.75-.12.23-3.12h1.58v3.12h3V232h-3v6.21c0,1.38.44,2.16,1.73,2.16a4.2,4.2,0,0,0,1.26-.29l.37,1.42a6.81,6.81,0,0,1-2.07.42c-2.39,0-3.19-1.52-3.19-3.73Z"/><path class="cls-1" d="M105.32,226.91a1.31,1.31,0,1,1,1.31,1.21A1.22,1.22,0,0,1,105.32,226.91Zm.35,3.51h1.88V241.6h-1.88Z"/><path class="cls-1" d="M115.67,230.15c2.74,0,5.17,2.14,5.17,5.88s-2.43,5.85-5.17,5.85-5.17-2.14-5.17-5.85S112.93,230.15,115.67,230.15Zm0,10.16c1.93,0,3.22-1.72,3.22-4.28s-1.29-4.32-3.22-4.32-3.22,1.75-3.22,4.32S113.76,240.31,115.67,240.31Z"/><path class="cls-1" d="M123.79,230.42h1.56l.17,1.61h.06a5.3,5.3,0,0,1,3.75-1.88c2.35,0,3.41,1.52,3.41,4.37v7.08h-1.89v-6.83c0-2.09-.64-3-2.12-3-1.15,0-1.93.6-3,1.73v8.09h-1.89Z"/></svg>