<svg id="Layer_1" data-name="Layer 1" xmlns="http://www.w3.org/2000/svg" viewBox="0 0 160 600"><defs><style>.cls-1{fill:#001012;}</style></defs><title>text</title><path class="cls-1" d="M51.62,107.86h1.19V124h7.88v1H51.62Z"/><path class="cls-1" d="M63.08,108.49a1,1,0,1,1,1,1A1,1,0,0,1,63.08,108.49Zm.45,4h1.14V125H63.53Z"/><path class="cls-1" d="M74.26,107.34a3.36,3.36,0,0,0-1.5-.36c-1.33,0-2,1-2,2.83v2.71h2.88v1H70.81V125H69.66V113.51H68v-.89l1.71-.1v-2.78c0-2.47,1.12-3.75,3.1-3.75a4.68,4.68,0,0,1,1.82.42Z"/><path class="cls-1" d="M76.32,106.3h1.14v17.19c0,.55.24.81.55.81a2.12,2.12,0,0,0,.47,0l.2.93a2.33,2.33,0,0,1-.83.13c-1,0-1.53-.62-1.53-2Z"/><path class="cls-1" d="M82,108.49a1,1,0,1,1,1,1A1,1,0,0,1,82,108.49Zm.44,4h1.14V125H82.48Z"/><path class="cls-1" d="M89.24,124.53v-.1a2.24,2.24,0,0,1-1.09-2,2.92,2.92,0,0,1,1.35-2.29V120a4.64,4.64,0,0,1-1.56-3.43,4.29,4.29,0,0,1,4.39-4.39,4.38,4.38,0,0,1,1.64.31h4.24v1H95.3a4.17,4.17,0,0,1,1.38,3.15A4.26,4.26,0,0,1,92.33,121a4.34,4.34,0,0,1-2.08-.52,2.25,2.25,0,0,0-1,1.8c0,.91.52,1.63,2.39,1.63h2.68c2.81,0,4.11.89,4.11,2.86,0,2.16-2.32,4.22-5.9,4.22-3.15,0-5.13-1.36-5.13-3.46A4,4,0,0,1,89.24,124.53Zm3.41,5.54c2.8,0,4.6-1.59,4.6-3.15,0-1.37-1-1.89-2.89-1.89H91.68a8.25,8.25,0,0,1-1.56-.21,3.26,3.26,0,0,0-1.63,2.62C88.49,129,90,130.07,92.65,130.07Zm2.91-13.47a3.25,3.25,0,1,0-6.48,0,3.25,3.25,0,1,0,6.48,0Z"/><path class="cls-1" d="M104.92,118h5.72v1h-5.72Z"/><path class="cls-1" d="M35.19,137.5h1.14v17.19c0,.55.23.81.55.81a2.05,2.05,0,0,0,.46-.05l.21.93a2.37,2.37,0,0,1-.83.13c-1,0-1.53-.62-1.53-2Z"/><path class="cls-1" d="M45.74,143.41c3,0,4.79,2.1,4.79,5.77a6,6,0,0,1-.05.94h-9c.05,3.14,1.9,5.4,4.71,5.4a5.56,5.56,0,0,0,3.35-1.11l.47.88a7,7,0,0,1-3.93,1.22c-3.2,0-5.77-2.44-5.77-6.52S43,143.41,45.74,143.41Zm3.7,5.82c0-3.2-1.44-4.83-3.67-4.83s-4,1.84-4.29,4.83Z"/><path class="cls-1" d="M52.14,143.72h1.25l2.8,7.83c.39,1.19.86,2.44,1.25,3.58h.11c.41-1.14.85-2.39,1.27-3.58l2.81-7.83H62.8L58.17,156.2H56.82Z"/><path class="cls-1" d="M69.9,143.41c3,0,4.78,2.1,4.78,5.77a6,6,0,0,1-.05.94h-9c.05,3.14,1.9,5.4,4.71,5.4a5.54,5.54,0,0,0,3.35-1.11l.47.88a7,7,0,0,1-3.93,1.22c-3.19,0-5.77-2.44-5.77-6.52S67.11,143.41,69.9,143.41Zm3.69,5.82c0-3.2-1.43-4.83-3.67-4.83s-4,1.84-4.29,4.83Z"/><path class="cls-1" d="M78.06,143.72h1l.1,2.31h.08c.83-1.53,2-2.62,3.54-2.62a2.52,2.52,0,0,1,1.24.26l-.26,1a2.64,2.64,0,0,0-1.14-.21c-1.12,0-2.44.86-3.41,3.2v8.5H78.06Z"/><path class="cls-1" d="M93.06,148.37c0-1.89-.49-4-2.94-4a6.81,6.81,0,0,0-4,1.46l-.52-.86a8.34,8.34,0,0,1,4.62-1.61c3,0,4,2.13,4,4.81v8h-1l-.13-1.61h0a7.41,7.41,0,0,1-4.42,1.92c-2,0-3.64-1.06-3.64-3.43C85,150.32,87.52,149,93.06,148.37Zm-4.24,7.15c1.43,0,2.71-.7,4.24-2v-4.24c-5.12.6-6.86,1.79-6.86,3.77A2.33,2.33,0,0,0,88.82,155.52Z"/><path class="cls-1" d="M98.68,143.72h1l.1,1.92h.08c1.27-1.27,2.57-2.23,4.29-2.23,2.57,0,3.77,1.56,3.77,4.78v8h-1.15v-7.85c0-2.65-.83-3.9-2.86-3.9-1.48,0-2.54.78-4.08,2.34v9.41H98.68Z"/><path class="cls-1" d="M111.63,153.94a5.78,5.78,0,0,0,4,1.58c2,0,3-1.14,3-2.47,0-1.56-1.61-2.23-3-2.75-1.9-.68-4-1.43-4-3.56,0-1.82,1.43-3.33,4-3.33a5.76,5.76,0,0,1,3.56,1.3l-.62.8a4.77,4.77,0,0,0-3-1.11c-1.93,0-2.81,1.11-2.81,2.26,0,1.38,1.45,2,2.94,2.52,2,.73,4.08,1.38,4.08,3.82,0,1.87-1.51,3.51-4.21,3.51A7.26,7.26,0,0,1,111,154.8Z"/><path class="cls-1" d="M127.43,143.41c3,0,4.79,2.1,4.79,5.77a6,6,0,0,1-.05.94h-9c0,3.14,1.9,5.4,4.71,5.4a5.56,5.56,0,0,0,3.35-1.11l.47.88a7,7,0,0,1-3.93,1.22c-3.2,0-5.77-2.44-5.77-6.52S124.65,143.41,127.43,143.41Zm3.7,5.82c0-3.2-1.43-4.83-3.67-4.83s-4,1.84-4.29,4.83Z"/><path class="cls-1" d="M45.78,174.92h1l.1,1.92H47a5.73,5.73,0,0,1,3.93-2.23,3.25,3.25,0,0,1,3.46,2.54c1.43-1.55,2.8-2.54,4.23-2.54,2.5,0,3.75,1.56,3.75,4.78v8H61.15v-7.85c0-2.65-.89-3.9-2.78-3.9-1.17,0-2.37.78-3.75,2.34v9.41H53.48v-7.85c0-2.65-.89-3.9-2.81-3.9q-1.68,0-3.74,2.34v9.41H45.78Z"/><path class="cls-1" d="M71.44,174.61c3,0,5.62,2.39,5.62,6.58s-2.6,6.52-5.62,6.52-5.59-2.39-5.59-6.52S68.45,174.61,71.44,174.61Zm0,12.09c2.53,0,4.42-2.24,4.42-5.51s-1.89-5.57-4.42-5.57-4.39,2.26-4.39,5.57S68.92,186.7,71.44,186.7Z"/><path class="cls-1" d="M85.3,174.61a5.77,5.77,0,0,1,3.77,1.53l0-2.29V168.7h1.14v18.7h-1l-.11-1.61H89a5.84,5.84,0,0,1-4,1.92c-3.15,0-5.18-2.31-5.18-6.52C79.76,177.15,82.34,174.61,85.3,174.61Zm-.21,12.09c1.38,0,2.6-.73,3.93-2.06v-7.41a5.29,5.29,0,0,0-3.64-1.61c-2.5,0-4.39,2.42-4.39,5.57C81,184.49,82.44,186.7,85.09,186.7Z"/><path class="cls-1" d="M99.34,174.61c3,0,4.79,2.1,4.79,5.77a4.85,4.85,0,0,1-.06.93h-9c0,3.15,1.9,5.41,4.7,5.41a5.57,5.57,0,0,0,3.36-1.11l.47.88a7,7,0,0,1-3.93,1.22c-3.2,0-5.77-2.44-5.77-6.52S96.56,174.61,99.34,174.61Zm3.69,5.82c0-3.2-1.43-4.83-3.66-4.83s-4,1.84-4.29,4.83Z"/><path class="cls-1" d="M107.5,168.7h1.15v17.19c0,.55.23.81.54.81a2.07,2.07,0,0,0,.47,0l.21.93a2.37,2.37,0,0,1-.83.13c-1,0-1.54-.62-1.54-2Z"/><path class="cls-1" d="M113.67,168.7h1.14v17.19c0,.55.23.81.55.81a2.05,2.05,0,0,0,.46,0l.21.93a2.37,2.37,0,0,1-.83.13c-1,0-1.53-.62-1.53-2Z"/><path class="cls-1" d="M73.22,200.94a3.46,3.46,0,0,0-1.5-.36c-1.33,0-2,1-2,2.84v2.7h2.88v1H69.77V218.6H68.62V207.11H66.91v-.89l1.71-.1v-2.78c0-2.47,1.12-3.75,3.1-3.75a4.68,4.68,0,0,1,1.82.42Z"/><path class="cls-1" d="M79.57,205.81c3,0,5.61,2.39,5.61,6.58s-2.6,6.52-5.61,6.52S74,216.52,74,212.39,76.58,205.81,79.57,205.81Zm0,12.09c2.52,0,4.42-2.24,4.42-5.51s-1.9-5.57-4.42-5.57-4.4,2.26-4.4,5.57S77.05,217.9,79.57,217.9Z"/><path class="cls-1" d="M88.93,206.12h1l.1,2.31h.08c.83-1.53,2.05-2.62,3.53-2.62a2.54,2.54,0,0,1,1.25.26l-.26,1a2.64,2.64,0,0,0-1.14-.21c-1.12,0-2.45.86-3.41,3.2v8.5H88.93Z"/><path class="cls-1" d="M10.86,247.54a5.82,5.82,0,0,0,4,1.58c1.95,0,3-1.14,3-2.47,0-1.56-1.62-2.23-3-2.75-1.89-.68-4-1.43-4-3.57,0-1.81,1.43-3.32,4-3.32a5.76,5.76,0,0,1,3.56,1.3l-.63.8a4.73,4.73,0,0,0-3-1.12c-1.92,0-2.8,1.12-2.8,2.27,0,1.38,1.45,2,2.93,2.52,1.95.73,4.09,1.38,4.09,3.82,0,1.87-1.51,3.51-4.22,3.51a7.26,7.26,0,0,1-4.57-1.71Z"/><path class="cls-1" d="M22.28,231.1h1.14v13.79h0l6.17-7.57H31l-4.05,4.94,4.73,7.54H30.36l-4.13-6.68-2.81,3.27v3.41H22.28Z"/><path class="cls-1" d="M34.34,237.32h1l.1,2.31h.08c.83-1.53,2.06-2.62,3.54-2.62a2.56,2.56,0,0,1,1.25.26l-.26,1a2.68,2.68,0,0,0-1.15-.21c-1.12,0-2.44.86-3.4,3.2v8.5H34.34Z"/><path class="cls-1" d="M46.72,237c3,0,4.78,2.1,4.78,5.77a6,6,0,0,1,0,.94h-9c.06,3.14,1.9,5.4,4.71,5.4A5.54,5.54,0,0,0,50.51,248l.47.88a6.93,6.93,0,0,1-3.92,1.22c-3.2,0-5.78-2.44-5.78-6.53S43.94,237,46.72,237Zm3.69,5.82c0-3.2-1.43-4.84-3.67-4.84s-4,1.85-4.29,4.84Z"/><path class="cls-1" d="M59.38,237a5.77,5.77,0,0,1,3.77,1.53l0-2.29V231.1h1.14v18.7h-1l-.1-1.61h-.08a5.84,5.84,0,0,1-4,1.92c-3.15,0-5.18-2.31-5.18-6.53C53.84,239.56,56.42,237,59.38,237Zm-.21,12.09c1.38,0,2.6-.73,3.93-2.06v-7.41A5.29,5.29,0,0,0,59.46,238c-2.5,0-4.4,2.42-4.4,5.56C55.06,246.89,56.52,249.1,59.17,249.1Z"/><path class="cls-1" d="M73.52,237a5.75,5.75,0,0,1,3.77,1.53l-.05-2.29V231.1h1.15v18.7h-1l-.11-1.61h-.07a5.89,5.89,0,0,1-4.06,1.92c-3.15,0-5.17-2.31-5.17-6.53C68,239.56,70.56,237,73.52,237Zm-.2,12.09A5.62,5.62,0,0,0,77.24,247v-7.41A5.27,5.27,0,0,0,73.6,238c-2.49,0-4.39,2.42-4.39,5.56C69.21,246.89,70.66,249.1,73.32,249.1Z"/><path class="cls-1" d="M87.56,237c3,0,4.79,2.1,4.79,5.77a6,6,0,0,1,0,.94h-9c0,3.14,1.9,5.4,4.71,5.4A5.56,5.56,0,0,0,91.36,248l.47.88a7,7,0,0,1-3.93,1.22c-3.2,0-5.77-2.44-5.77-6.53S84.78,237,87.56,237Zm3.7,5.82c0-3.2-1.43-4.84-3.67-4.84s-4,1.85-4.29,4.84Z"/><path class="cls-1" d="M95.73,237.32h1l.11,2.31h.08c.83-1.53,2-2.62,3.53-2.62a2.56,2.56,0,0,1,1.25.26l-.26,1a2.66,2.66,0,0,0-1.14-.21c-1.12,0-2.45.86-3.41,3.2v8.5H95.73Z"/><path class="cls-1" d="M102.82,247.54a5.82,5.82,0,0,0,4,1.58c2,0,3-1.14,3-2.47,0-1.56-1.62-2.23-3-2.75-1.89-.68-4-1.43-4-3.57,0-1.81,1.43-3.32,4-3.32a5.76,5.76,0,0,1,3.56,1.3l-.63.8a4.73,4.73,0,0,0-3-1.12c-1.92,0-2.8,1.12-2.8,2.27,0,1.38,1.45,2,2.93,2.52,2,.73,4.09,1.38,4.09,3.82,0,1.87-1.51,3.51-4.22,3.51a7.26,7.26,0,0,1-4.57-1.71Z"/><path class="cls-1" d="M113.74,254.43c1.54,0,2.58-1.41,3.2-3.3l.34-1.1-5.12-12.71h1.25l3,7.85c.39,1,.89,2.39,1.35,3.49h.11c.39-1.1.8-2.45,1.14-3.49l2.68-7.85h1.17l-4.94,14c-.7,2.08-2,4.13-4.19,4.13a3.12,3.12,0,0,1-1.27-.26l.26-1A3,3,0,0,0,113.74,254.43Z"/><path class="cls-1" d="M130.07,237a5.77,5.77,0,0,1,3.77,1.53l-.05-2.29V231.1h1.14v18.7h-1l-.11-1.61h-.08a5.84,5.84,0,0,1-4,1.92c-3.15,0-5.18-2.31-5.18-6.53C124.53,239.56,127.11,237,130.07,237Zm-.21,12.09c1.38,0,2.6-.73,3.93-2.06v-7.41a5.29,5.29,0,0,0-3.64-1.61c-2.5,0-4.39,2.42-4.39,5.56C125.76,246.89,127.21,249.1,129.86,249.1Z"/><path class="cls-1" d="M144.22,237a5.79,5.79,0,0,1,3.77,1.53l-.06-2.29V231.1h1.15v18.7h-1l-.1-1.61h-.08a5.87,5.87,0,0,1-4.06,1.92c-3.14,0-5.17-2.31-5.17-6.53C138.68,239.56,141.25,237,144.22,237ZM144,249.1c1.38,0,2.6-.73,3.92-2.06v-7.41a5.25,5.25,0,0,0-3.64-1.61c-2.49,0-4.39,2.42-4.39,5.56C139.9,246.89,141.36,249.1,144,249.1Z"/><path class="cls-1" d="M39.75,278.74a5.81,5.81,0,0,0,4,1.58c2,0,3-1.14,3-2.47,0-1.56-1.61-2.23-3-2.75-1.9-.68-4-1.43-4-3.56,0-1.82,1.43-3.33,4-3.33a5.74,5.74,0,0,1,3.56,1.3l-.62.8a4.75,4.75,0,0,0-3-1.12c-1.92,0-2.81,1.12-2.81,2.27,0,1.38,1.46,2,2.94,2.52,1.95.73,4.08,1.38,4.08,3.82,0,1.87-1.51,3.51-4.21,3.51a7.26,7.26,0,0,1-4.58-1.71Z"/><path class="cls-1" d="M55.71,268.21c3,0,5.62,2.39,5.62,6.58s-2.6,6.52-5.62,6.52-5.59-2.39-5.59-6.52S52.72,268.21,55.71,268.21Zm0,12.09c2.53,0,4.42-2.24,4.42-5.51s-1.89-5.57-4.42-5.57-4.39,2.26-4.39,5.57S53.19,280.3,55.71,280.3Z"/><path class="cls-1" d="M76.41,280.84a7.12,7.12,0,0,1-2,.47c-2.4,0-3.1-1.53-3.1-3.77v-8H66.4V281H65.25V269.51H63.54v-.89l1.71-.1v-2.78c0-2.47,1.12-3.75,3.1-3.75a4.64,4.64,0,0,1,1.82.42l-.31.93a3.36,3.36,0,0,0-1.51-.36c-1.33,0-1.95,1-1.95,2.83v2.71h4.89l.15-3.62h1v3.62h3.64v1H72.41v8.14c0,1.58.41,2.65,2.13,2.65a4.12,4.12,0,0,0,1.56-.39Z"/><path class="cls-1" d="M77.32,268.52h1.25l2.23,8.09c.32,1.14.6,2.21.86,3.32h.1c.29-1.11.6-2.18.91-3.32l2.27-8.09h1.38l2.26,8.09c.31,1.14.62,2.21.93,3.32h.11c.28-1.11.59-2.18.88-3.32l2.21-8.09h1.17L90.29,281h-1.5l-2.19-7.75c-.36-1.19-.6-2.34-1-3.56h-.1c-.29,1.22-.6,2.42-1,3.61L82.39,281H81Z"/><path class="cls-1" d="M104,273.17c0-1.9-.5-3.95-2.94-3.95a6.85,6.85,0,0,0-4,1.46l-.52-.86a8.27,8.27,0,0,1,4.63-1.61c3,0,4,2.13,4,4.81v8h-1l-.13-1.61h0a7.46,7.46,0,0,1-4.42,1.92c-2,0-3.65-1.06-3.65-3.43C95.93,275.12,98.46,273.8,104,273.17Zm-4.24,7.15c1.43,0,2.7-.7,4.24-2v-4.24c-5.13.6-6.87,1.79-6.87,3.77A2.34,2.34,0,0,0,99.76,280.32Z"/><path class="cls-1" d="M109.61,268.52h1l.1,2.31h.08c.83-1.53,2-2.62,3.54-2.62a2.5,2.5,0,0,1,1.24.26l-.26,1a2.61,2.61,0,0,0-1.14-.21c-1.12,0-2.44.86-3.41,3.2V281h-1.14Z"/><path class="cls-1" d="M122,268.21c3,0,4.78,2.1,4.78,5.77a6,6,0,0,1,0,.94h-9c0,3.14,1.9,5.4,4.71,5.4a5.54,5.54,0,0,0,3.35-1.11l.47.88a7,7,0,0,1-3.92,1.22c-3.2,0-5.78-2.44-5.78-6.52S119.21,268.21,122,268.21Zm3.69,5.82c0-3.2-1.43-4.84-3.67-4.84s-4,1.85-4.29,4.84Z"/></svg>