<svg id="Layer_1" data-name="Layer 1" xmlns="http://www.w3.org/2000/svg" viewBox="0 0 160 600"><defs><style>.cls-1{fill:#fff;}</style></defs><title>text</title><path class="cls-1" d="M69.68,227.14v2.34H57.09V208.15h2.73v19Z"/><path class="cls-1" d="M83,224.78l2.28.47a6.35,6.35,0,0,1-2.44,3.34,7,7,0,0,1-4.26,1.33,6.65,6.65,0,0,1-5.24-2.28,8.7,8.7,0,0,1-2-6,8.83,8.83,0,0,1,2.08-6.1,6.75,6.75,0,0,1,5.22-2.32,6.34,6.34,0,0,1,5,2.14c1.25,1.43,1.9,3.57,1.93,6.41H74c0,2.39.5,4,1.5,4.83a4.91,4.91,0,0,0,3.17,1.25A4.34,4.34,0,0,0,83,224.78Zm-.14-4.8a6.89,6.89,0,0,0-.44-2.36A4.07,4.07,0,0,0,81,215.86a3.8,3.8,0,0,0-2.33-.72,4.17,4.17,0,0,0-3.1,1.31A5.41,5.41,0,0,0,74.15,220Z"/><path class="cls-1" d="M87.07,225.39l2.34-.49q.78,3,4.94,3a4.69,4.69,0,0,0,2.6-.69A2.19,2.19,0,0,0,98,225.27c0-1.24-.9-2-2.71-2.36L92,222.28a6,6,0,0,1-3.11-1.47,3.8,3.8,0,0,1-1.16-2.89,4.19,4.19,0,0,1,1.58-3.32,6.37,6.37,0,0,1,4.25-1.34q5.14,0,6.34,4l-2.25.48a3.85,3.85,0,0,0-4-2.47,4.49,4.49,0,0,0-2.46.62,1.94,1.94,0,0,0-1,1.72c0,1.17.81,1.9,2.45,2.21l3.08.55q4.83.87,4.83,4.68a4.17,4.17,0,0,1-1.8,3.51A7.83,7.83,0,0,1,94,229.92Q88.4,229.92,87.07,225.39Z"/><path class="cls-1" d="M55.59,267.88H53l-4.61-8.81L45,263v4.87H42.55V246.55H45v13.68l7.33-8.13H55L50,257.64Z"/><path class="cls-1" d="M70.21,267.88H68v-3c-1.12,2.3-2.8,3.45-5,3.45a4.75,4.75,0,0,1-3.8-1.6,6.7,6.7,0,0,1-1.38-4.53V252.1h2.45v10.08a4.23,4.23,0,0,0,1,3.22,3.14,3.14,0,0,0,2.15.89,3.72,3.72,0,0,0,2.15-.67,5.21,5.21,0,0,0,1.6-1.92,5.91,5.91,0,0,0,.64-2.71V252.1h2.45Z"/><path class="cls-1" d="M87.55,267.88H85.26V257.74a4.09,4.09,0,0,0-1-3.08,3.26,3.26,0,0,0-2.31-.89,4,4,0,0,0-3.15,1.5,5.9,5.9,0,0,0-1.27,4v8.65H75.12V252.1H77.4V255q1.92-3.34,5-3.35a4.94,4.94,0,0,1,3,.92,4.77,4.77,0,0,1,1.7,2,12.45,12.45,0,0,1,.46,4.13Z"/><path class="cls-1" d="M104.79,246.55v21.33h-2.22v-2.7a5.35,5.35,0,0,1-5,3.14A5.5,5.5,0,0,1,93,266a9.38,9.38,0,0,1-1.79-5.88,9.94,9.94,0,0,1,1.77-6,5.53,5.53,0,0,1,4.69-2.42,5.45,5.45,0,0,1,4.64,2.6v-7.71Zm-2.45,11.64a4.47,4.47,0,0,0-1.27-3.32,4,4,0,0,0-2.95-1.25,3.59,3.59,0,0,0-3,1.62,7.63,7.63,0,0,0-1.18,4.56A8.77,8.77,0,0,0,95,264.63a3.36,3.36,0,0,0,3,1.66,4,4,0,0,0,3-1.44,4.82,4.82,0,0,0,1.32-3.37Z"/><path class="cls-1" d="M120.12,263.18l2.28.47A6.4,6.4,0,0,1,120,267a7,7,0,0,1-4.26,1.33,6.63,6.63,0,0,1-5.24-2.28,9.93,9.93,0,0,1,.08-12.06,6.72,6.72,0,0,1,5.22-2.32,6.31,6.31,0,0,1,5,2.14q1.89,2.14,1.93,6.41H111.2c0,2.39.5,4,1.5,4.83a4.89,4.89,0,0,0,3.17,1.25A4.34,4.34,0,0,0,120.12,263.18Zm-.14-4.8a6.89,6.89,0,0,0-.44-2.36,4,4,0,0,0-1.38-1.76,3.77,3.77,0,0,0-2.32-.72,4.19,4.19,0,0,0-3.11,1.31,5.51,5.51,0,0,0-1.43,3.53Z"/><path class="cls-1" d="M38.16,306.28H35.7V296.7a11.3,11.3,0,0,0-.21-2.53,2.64,2.64,0,0,0-1-1.46,2.86,2.86,0,0,0-1.82-.62,3.94,3.94,0,0,0-3.16,1.55,6.3,6.3,0,0,0-1.28,4.14v8.5H25.78V285h2.45v8.46c1.12-2.23,2.71-3.35,4.79-3.35a5.47,5.47,0,0,1,2.47.55,4.09,4.09,0,0,1,1.67,1.44A6.13,6.13,0,0,1,38,293.8a13.92,13.92,0,0,1,.21,2.9Z"/><path class="cls-1" d="M45.59,285v2.74H43V285Zm-.07,5.55v15.78H43.06V290.5Z"/><path class="cls-1" d="M48.28,302.19l2.35-.49q.78,3,4.93,3a4.69,4.69,0,0,0,2.6-.69,2.19,2.19,0,0,0,1.06-1.93c0-1.24-.9-2-2.71-2.36l-3.32-.63a6.08,6.08,0,0,1-3.11-1.47,3.8,3.8,0,0,1-1.16-2.89,4.19,4.19,0,0,1,1.58-3.32,6.37,6.37,0,0,1,4.25-1.34q5.14,0,6.34,4l-2.25.48a3.85,3.85,0,0,0-4-2.47,4.49,4.49,0,0,0-2.46.62,1.94,1.94,0,0,0-1,1.72c0,1.17.82,1.9,2.45,2.21l3.08.55q4.83.87,4.83,4.68a4.17,4.17,0,0,1-1.8,3.51,7.83,7.83,0,0,1-4.78,1.34Q49.61,306.72,48.28,302.19Z"/><path class="cls-1" d="M72.41,304.61v1.94a18.42,18.42,0,0,1-2.25.17c-3.06,0-4.58-1.6-4.58-4.79v-9.51h-2.8V290.5h2.8l.11-4,2.28-.22v4.19H71.5v1.92H68v9.92c0,1.63.84,2.44,2.53,2.44A12.7,12.7,0,0,0,72.41,304.61Z"/><path class="cls-1" d="M80.27,306.72a6,6,0,0,1-5.07-2.41,9.57,9.57,0,0,1-1.82-6,8.65,8.65,0,0,1,2-6,6.61,6.61,0,0,1,5.1-2.25,6.21,6.21,0,0,1,5.14,2.37,9.19,9.19,0,0,1,1.89,5.92,8.89,8.89,0,0,1-2,6A6.65,6.65,0,0,1,80.27,306.72Zm.18-2a3.9,3.9,0,0,0,3.14-1.55,7.48,7.48,0,0,0,1.27-4.81q0-3.29-1.33-4.76a4.07,4.07,0,0,0-3.11-1.48,3.89,3.89,0,0,0-3.09,1.5,7.18,7.18,0,0,0-1.27,4.72c0,2.28.42,3.92,1.27,4.9A3.93,3.93,0,0,0,80.45,304.69Z"/><path class="cls-1" d="M93.69,306.28H91.23V290.5h2.16v3.69a7.94,7.94,0,0,1,2.29-3.39A4.21,4.21,0,0,1,98,290c.25,0,.57,0,1,.06v2.35h-.5A4.3,4.3,0,0,0,95.13,294a6.13,6.13,0,0,0-1.44,4Z"/><path class="cls-1" d="M104.31,285v2.74h-2.64V285Zm-.08,5.55v15.78h-2.45V290.5Z"/><path class="cls-1" d="M119.55,301.58l2.28.47a6.4,6.4,0,0,1-2.44,3.34,7,7,0,0,1-4.26,1.33,6.63,6.63,0,0,1-5.24-2.28,9.93,9.93,0,0,1,.08-12.06,6.72,6.72,0,0,1,5.22-2.32,6.31,6.31,0,0,1,5,2.14q1.89,2.15,1.93,6.41H110.63c0,2.39.5,4,1.5,4.83a4.89,4.89,0,0,0,3.17,1.25A4.34,4.34,0,0,0,119.55,301.58Zm-.14-4.8a6.89,6.89,0,0,0-.44-2.36,4,4,0,0,0-1.38-1.76,3.77,3.77,0,0,0-2.32-.72,4.19,4.19,0,0,0-3.11,1.31,5.46,5.46,0,0,0-1.43,3.53Z"/><path class="cls-1" d="M138.22,306.28h-2.3V296.14a4.13,4.13,0,0,0-.95-3.08,3.29,3.29,0,0,0-2.31-.89,4,4,0,0,0-3.15,1.5,5.91,5.91,0,0,0-1.28,4v8.65h-2.45V290.5h2.28v2.91q1.92-3.35,5-3.35a5.1,5.1,0,0,1,4.71,3,12.73,12.73,0,0,1,.46,4.13Z"/><path class="cls-1" d="M56.74,344.68H54.15l-11-18.59,0,1.4c0,.54.05,1,.05,1.35v15.84H41V323.35h3.34L54.7,340.73l0-1.48c0-.58,0-1.1,0-1.54V323.35h2.11Z"/><path class="cls-1" d="M67.51,345.12a6,6,0,0,1-5.07-2.41,9.57,9.57,0,0,1-1.82-6,8.65,8.65,0,0,1,2-6,6.63,6.63,0,0,1,5.1-2.25,6.24,6.24,0,0,1,5.15,2.37,9.24,9.24,0,0,1,1.88,5.92,8.89,8.89,0,0,1-2,6A6.65,6.65,0,0,1,67.51,345.12Zm.19-2a3.92,3.92,0,0,0,3.14-1.55,7.54,7.54,0,0,0,1.26-4.81c0-2.19-.44-3.77-1.33-4.76a4.07,4.07,0,0,0-3.11-1.48,3.9,3.9,0,0,0-3.09,1.5,7.24,7.24,0,0,0-1.27,4.72c0,2.28.43,3.92,1.27,4.9A4,4,0,0,0,67.7,343.09Z"/><path class="cls-1" d="M80.93,344.68H78.48V328.9h2.15v3.69a7.91,7.91,0,0,1,2.29-3.38,4.15,4.15,0,0,1,2.35-.78c.25,0,.58,0,1,.06v2.35h-.5a4.3,4.3,0,0,0-3.37,1.51,6.13,6.13,0,0,0-1.44,4Z"/><path class="cls-1" d="M87.09,340.59l2.34-.49q.78,3,4.94,3A4.65,4.65,0,0,0,97,342.4,2.17,2.17,0,0,0,98,340.47c0-1.24-.9-2-2.7-2.36L92,337.48A6.08,6.08,0,0,1,88.88,336a3.79,3.79,0,0,1-1.15-2.89,4.18,4.18,0,0,1,1.57-3.32,6.38,6.38,0,0,1,4.25-1.34q5.15,0,6.35,4l-2.25.48a3.87,3.87,0,0,0-4-2.47,4.49,4.49,0,0,0-2.46.62,1.94,1.94,0,0,0-1,1.72c0,1.17.82,1.9,2.46,2.21l3.07.55q4.83.87,4.83,4.68a4.17,4.17,0,0,1-1.8,3.51A7.81,7.81,0,0,1,94,345.12Q88.41,345.12,87.09,340.59Z"/><path class="cls-1" d="M117.09,344.68h-2.55l-4.61-8.81-3.42,3.94v4.87h-2.46V323.35h2.46V337l7.33-8.13h2.62l-4.93,5.54Z"/><path class="cls-1" d="M61.07,383.08H58.4V372.93H48.51v10.15H45.84V361.75h2.67v8.83H58.4v-8.83h2.67Z"/><path class="cls-1" d="M77,367.3l-6.32,17.63q-1.38,3.81-4.4,3.81a7.72,7.72,0,0,1-2.11-.33v-1.92a7.82,7.82,0,0,0,1.64.22,3,3,0,0,0,2-.67,7.46,7.46,0,0,0,1.57-3.28L63.89,367.3h2.5l4.24,11.86,4.31-11.86Z"/><path class="cls-1" d="M91.79,361.75v21.33H89.57v-2.7a5.35,5.35,0,0,1-5,3.14A5.47,5.47,0,0,1,80,381.2a9.38,9.38,0,0,1-1.79-5.88,10,10,0,0,1,1.77-6,5.53,5.53,0,0,1,4.69-2.42,5.45,5.45,0,0,1,4.64,2.6v-7.71Zm-2.45,11.64a4.47,4.47,0,0,0-1.27-3.32,4,4,0,0,0-2.95-1.25,3.59,3.59,0,0,0-3,1.62A7.65,7.65,0,0,0,80.93,375,8.77,8.77,0,0,0,82,379.83a3.36,3.36,0,0,0,3,1.66,4,4,0,0,0,3-1.44,4.82,4.82,0,0,0,1.32-3.37Z"/><path class="cls-1" d="M99.15,383.08H96.7V367.3h2.15V371a7.91,7.91,0,0,1,2.29-3.38,4.15,4.15,0,0,1,2.35-.78c.25,0,.57,0,1,.06v2.35H104a4.3,4.3,0,0,0-3.37,1.51,6.13,6.13,0,0,0-1.44,4Z"/><path class="cls-1" d="M112.32,383.52a6,6,0,0,1-5.07-2.41,9.64,9.64,0,0,1-1.82-6,8.57,8.57,0,0,1,2-6,6.57,6.57,0,0,1,5.09-2.26,6.23,6.23,0,0,1,5.15,2.37,9.26,9.26,0,0,1,1.88,5.92,8.89,8.89,0,0,1-2,6A6.62,6.62,0,0,1,112.32,383.52Zm.19-2a3.92,3.92,0,0,0,3.14-1.55,7.54,7.54,0,0,0,1.26-4.81c0-2.19-.44-3.77-1.32-4.76a4.1,4.1,0,0,0-3.11-1.48,3.92,3.92,0,0,0-3.1,1.5,7.24,7.24,0,0,0-1.26,4.72c0,2.28.42,3.92,1.26,4.9A4,4,0,0,0,112.51,381.49Z"/><path class="cls-1" d="M57.93,412.53v1.91H50.87v-1.91Z"/><path class="cls-1" d="M71.74,421.48H69.07V400.15H82.13v2.35H71.74v6.73h8.61v2.16H71.74Z"/><path class="cls-1" d="M96.43,421.48H94.21v-3c-1.12,2.3-2.8,3.45-5,3.45a4.75,4.75,0,0,1-3.8-1.6A6.7,6.7,0,0,1,84,415.79V405.7h2.45v10.08a4.27,4.27,0,0,0,1,3.23,3.16,3.16,0,0,0,2.15.88,3.62,3.62,0,0,0,2.14-.67,5.14,5.14,0,0,0,1.61-1.92,5.91,5.91,0,0,0,.64-2.71V405.7h2.45Z"/><path class="cls-1" d="M103.79,421.48h-2.45V400.15h2.45Z"/><path class="cls-1" d="M111.15,421.48H108.7V400.15h2.45Z"/><path class="cls-1" d="M27.75,459.88H25.3V444.1h2.15v3.69a7.91,7.91,0,0,1,2.29-3.38,4.15,4.15,0,0,1,2.35-.78c.25,0,.58,0,1,.06V446h-.5a4.3,4.3,0,0,0-3.37,1.51,6.13,6.13,0,0,0-1.44,4Z"/><path class="cls-1" d="M48.27,459.88H46.05v-3c-1.13,2.3-2.8,3.45-5,3.45a4.75,4.75,0,0,1-3.8-1.6,6.7,6.7,0,0,1-1.38-4.53V444.1H38.3v10.08a4.27,4.27,0,0,0,1,3.23,3.18,3.18,0,0,0,2.15.88,3.72,3.72,0,0,0,2.15-.67,5.21,5.21,0,0,0,1.6-1.92,5.79,5.79,0,0,0,.64-2.71V444.1h2.46Z"/><path class="cls-1" d="M51.05,455.79l2.34-.49q.78,3,4.94,3a4.65,4.65,0,0,0,2.59-.69A2.17,2.17,0,0,0,62,455.67c0-1.24-.9-2-2.7-2.36L56,452.68a6.08,6.08,0,0,1-3.11-1.47,3.79,3.79,0,0,1-1.15-2.89A4.16,4.16,0,0,1,53.27,445a6.35,6.35,0,0,1,4.25-1.34c3.42,0,5.54,1.34,6.34,4l-2.25.48a3.86,3.86,0,0,0-4-2.47,4.52,4.52,0,0,0-2.47.62,2,2,0,0,0-1,1.73c0,1.16.82,1.89,2.46,2.2l3.07.55q4.83.87,4.83,4.68A4.18,4.18,0,0,1,62.77,459,7.86,7.86,0,0,1,58,460.32Q52.37,460.32,51.05,455.79Z"/><path class="cls-1" d="M75.17,458.21v1.94a18.14,18.14,0,0,1-2.25.17q-4.58,0-4.58-4.79V446H65.55V444.1h2.79l.11-4,2.28-.22v4.19h3.54V446H70.73v9.92c0,1.63.85,2.44,2.54,2.44A11.4,11.4,0,0,0,75.17,458.21Z"/><path class="cls-1" d="M90.3,459.88H88V449.74a4.13,4.13,0,0,0-1-3.08,3.3,3.3,0,0,0-2.32-.89,3.94,3.94,0,0,0-3.14,1.5,5.91,5.91,0,0,0-1.28,4v8.65H77.86V444.1h2.28V447q1.92-3.35,5-3.35a4.93,4.93,0,0,1,3,.92,4.87,4.87,0,0,1,1.71,2.05,12.73,12.73,0,0,1,.46,4.13Z"/><path class="cls-1" d="M97.73,438.55v2.74H95.09v-2.74Zm-.07,5.55v15.78H95.2V444.1Z"/><path class="cls-1" d="M115,459.88h-2.29V449.74a4.09,4.09,0,0,0-1-3.08,3.26,3.26,0,0,0-2.31-.89,4,4,0,0,0-3.15,1.5,5.9,5.9,0,0,0-1.27,4v8.65h-2.45V444.1h2.28V447q1.92-3.35,5-3.35a4.94,4.94,0,0,1,3,.92,4.77,4.77,0,0,1,1.7,2.05,12.45,12.45,0,0,1,.46,4.13Z"/><path class="cls-1" d="M132.78,441.63v1.95a4.41,4.41,0,0,0-2.26.4,2,2,0,0,0-.75,1.4,5.71,5.71,0,0,1,1.51,3.81,4.91,4.91,0,0,1-1.65,3.71,6.21,6.21,0,0,1-4.43,1.54,5.55,5.55,0,0,1-1.07-.09,9,9,0,0,0-1.08-.17,2,2,0,0,0-1,.41,1.28,1.28,0,0,0-.59,1.07,1.16,1.16,0,0,0,.86,1.22,18.27,18.27,0,0,0,4,.36,23,23,0,0,1,4,.37,4.07,4.07,0,0,1,2.18,1.28,3.52,3.52,0,0,1,.89,2.43q0,4.51-7.94,4.51c-2.51,0-4.34-.37-5.49-1.13a3.47,3.47,0,0,1-1.73-3,3.18,3.18,0,0,1,2.41-3.16,3,3,0,0,1-1.55-2.54c0-1.22.73-2.15,2.19-2.8a5.12,5.12,0,0,1-2-4.17,4.82,4.82,0,0,1,1.75-3.84,6.34,6.34,0,0,1,4.27-1.5,7.74,7.74,0,0,1,3.23.67,3,3,0,0,1,1.09-2.14,4.58,4.58,0,0,1,2.58-.59Zm-10.44,17.61a2.37,2.37,0,0,0-1.71,2.17,2.06,2.06,0,0,0,1.41,1.87,8.51,8.51,0,0,0,3.6.66,11.61,11.61,0,0,0,3.72-.57c1.12-.38,1.69-1,1.69-1.93a1.58,1.58,0,0,0-.5-1.2,2.47,2.47,0,0,0-1.37-.59,28.28,28.28,0,0,0-3-.19C124.44,459.42,123.17,459.35,122.34,459.24Zm2.94-6.67a3.51,3.51,0,0,0,2.55-1,3.34,3.34,0,0,0,1-2.49,3.44,3.44,0,0,0-3.5-3.55,3.69,3.69,0,0,0-2.47.93,3.74,3.74,0,0,0-.11,5.12A3.51,3.51,0,0,0,125.28,452.57Z"/><path class="cls-1" d="M40.46,477v2.74H37.82V477Zm-.08,5.55v15.78H37.93V482.5Z"/><path class="cls-1" d="M51.15,494.19l2.34-.49q.78,3,4.94,3A4.65,4.65,0,0,0,61,496a2.18,2.18,0,0,0,1.07-1.93c0-1.24-.91-2-2.71-2.36l-3.33-.63a6,6,0,0,1-3.1-1.47,3.76,3.76,0,0,1-1.16-2.89,4.16,4.16,0,0,1,1.58-3.32,6.37,6.37,0,0,1,4.25-1.34c3.42,0,5.54,1.34,6.34,4l-2.25.48a3.86,3.86,0,0,0-4-2.47,4.49,4.49,0,0,0-2.46.62,2,2,0,0,0-1,1.73c0,1.16.82,1.89,2.46,2.2l3.08.55q4.81.87,4.82,4.68a4.18,4.18,0,0,1-1.79,3.51,7.83,7.83,0,0,1-4.78,1.34C54.35,498.72,52,497.21,51.15,494.19Z"/><path class="cls-1" d="M81.15,498.28H78.61L74,489.47l-3.42,3.94v4.87H68.12V477h2.45v13.68l7.33-8.13h2.62L75.59,488Z"/><path class="cls-1" d="M95,482.5l-6.33,17.63c-.91,2.54-2.38,3.81-4.39,3.81a7.72,7.72,0,0,1-2.11-.33v-1.92a7.82,7.82,0,0,0,1.64.22,3,3,0,0,0,2-.67A7.58,7.58,0,0,0,87.32,498L81.86,482.5h2.5l4.23,11.86,4.32-11.86Z"/><path class="cls-1" d="M107.4,493.58l2.28.47a6.46,6.46,0,0,1-2.44,3.35,7,7,0,0,1-4.26,1.32,6.65,6.65,0,0,1-5.24-2.28,9.92,9.92,0,0,1,.08-12.05,6.72,6.72,0,0,1,5.22-2.33,6.34,6.34,0,0,1,5,2.14q1.88,2.15,1.93,6.41H98.48q0,3.58,1.5,4.83a4.89,4.89,0,0,0,3.17,1.25A4.34,4.34,0,0,0,107.4,493.58Zm-.14-4.8a6.89,6.89,0,0,0-.44-2.36,4,4,0,0,0-1.37-1.75,3.76,3.76,0,0,0-2.33-.73,4.15,4.15,0,0,0-3.1,1.31,5.41,5.41,0,0,0-1.43,3.53Z"/><path class="cls-1" d="M126.07,498.28h-2.3V488.14a4.09,4.09,0,0,0-1-3.08,3.29,3.29,0,0,0-2.31-.89,4,4,0,0,0-3.15,1.5,5.9,5.9,0,0,0-1.27,4v8.65h-2.46V482.5h2.28v2.91q1.94-3.35,5-3.35a5.07,5.07,0,0,1,4.71,3,12.45,12.45,0,0,1,.46,4.13Z"/></svg>