<svg xmlns="http://www.w3.org/2000/svg" xmlns:xlink="http://www.w3.org/1999/xlink" viewBox="0 0 118.94 152.6"><defs><style>.cls-1{fill:none;}.cls-2{fill:#fff;}.cls-3{clip-path:url(#clip-path);}.cls-4{fill:url(#Namnlös_övertoning);}</style><clipPath id="clip-path" transform="translate(0 0)"><path class="cls-1" d="M49.73,66.2H91.66v19H49.73Zm-30.1-45h1.29A19.85,19.85,0,0,1,41.09,1.29c12.19,0,20.52,8.44,20.52,19.28,0,4.47-2.18,10-5.54,14.42L17.62,85.4l.56,1.12H48.39v21.76l1.4.73a26.32,26.32,0,0,1,18.83-8.16c14.65,0,25.43,11.12,25.43,25.21,0,13.74-10.45,25.26-25.65,25.26-11.85,0-20.9-6.93-24.26-16.77l-1.28.5C46.43,145.34,56.1,152.6,68.4,152.6c15.87,0,27.05-12.13,27.05-26.54,0-14.76-11.51-26.5-26.83-26.5a27.47,27.47,0,0,0-18.89,7.77V86.52H93V64.9H48.39V85.23h-29L57.19,35.88C60.77,31.19,63,25.49,63,20.57,63,9.05,54,0,41.09,0,29.58,0,19.86,8.5,19.63,21.24"/></clipPath><linearGradient id="Namnlös_övertoning" x1="-53.78" y1="221.66" x2="-52.78" y2="221.66" gradientTransform="matrix(0, -152.6, -152.6, 0, 33882.57, -8053.8)" gradientUnits="userSpaceOnUse"><stop offset="0" stop-color="#ad7f29"/><stop offset="0.3" stop-color="#dfba67"/><stop offset="0.49" stop-color="#ffdf8e"/><stop offset="0.66" stop-color="#e2bd6d"/><stop offset="1" stop-color="#ad7f2f"/></linearGradient></defs><title>logo25</title><g id="Layer_2" data-name="Layer 2"><g id="Lager_1" data-name="Lager 1"><path class="cls-2" d="M117,120.28a1.19,1.19,0,0,1,0,2.38,1.19,1.19,0,0,1,0-2.38Zm0,5.72a1.4,1.4,0,0,1-1.4-1.42,1.4,1.4,0,0,1,2.8,0A1.41,1.41,0,0,1,117,126m0,.55a2,2,0,0,0,2-2,1.89,1.89,0,0,0-1.07-1.69,1.69,1.69,0,0,0,.83-1.44,1.74,1.74,0,0,0-3.48,0,1.66,1.66,0,0,0,.82,1.44,1.89,1.89,0,0,0-1.05,1.69,2,2,0,0,0,2,2m-5.14-.11h.57V119.8h-.31l-1.79,1,.25.48,1.28-.73ZM106,126a1.43,1.43,0,0,1-1.47-1.5v-2.7a1.48,1.48,0,1,1,2.95,0v2.74A1.44,1.44,0,0,1,106,126m0,.55a2,2,0,0,0,2-2v-2.74a2,2,0,0,0-4.09,0v2.7a2,2,0,0,0,2,2m-8.4-.11h4v-.54H98.43l2.37-3.08a2.18,2.18,0,0,0,.53-1.32,1.76,1.76,0,0,0-1.86-1.75,1.81,1.81,0,0,0-1.83,1.83h.57a1.26,1.26,0,0,1,1.26-1.29,1.21,1.21,0,0,1,1.29,1.21,1.47,1.47,0,0,1-.38,1l-2.8,3.68Zm-9.44.11a1.93,1.93,0,0,0,2-1.9A1.67,1.67,0,0,0,89,123a1.52,1.52,0,0,0,1-1.47,1.78,1.78,0,0,0-1.88-1.76,1.8,1.8,0,0,0-1.84,1.77h.55a1.27,1.27,0,0,1,1.29-1.25,1.23,1.23,0,0,1,1.31,1.24,1.25,1.25,0,0,1-1.33,1.19h-.2l0,.55h.22a1.38,1.38,0,0,1,1.42,1.4A1.35,1.35,0,0,1,88.14,126a1.38,1.38,0,0,1-1.38-1.26h-.55a2,2,0,0,0,1.93,1.81M82.4,123a1.36,1.36,0,0,1,0-2.71,1.36,1.36,0,0,1,0,2.71m-.05.54a1.66,1.66,0,0,0,.67-.12c-.53,1-1.07,2-1.6,3H82c.68-1.3,1.37-2.57,2-3.85a1.9,1.9,0,0,0,.24-1,1.87,1.87,0,0,0-1.88-1.86,1.91,1.91,0,0,0-1.92,1.89,1.88,1.88,0,0,0,1.84,1.89M76.57,123a1.36,1.36,0,0,1,0-2.71,1.36,1.36,0,0,1,0,2.71m0,.54a1.66,1.66,0,0,0,.67-.12c-.53,1-1.07,2-1.6,3h.62c.68-1.3,1.37-2.57,2-3.85a1.9,1.9,0,0,0,.24-1,1.87,1.87,0,0,0-1.88-1.86,1.91,1.91,0,0,0-1.92,1.89,1.88,1.88,0,0,0,1.84,1.89m-4.87,2.91h.57V119.8h-.3l-1.79,1,.25.48,1.27-.73ZM62,126.5a1.86,1.86,0,0,0,2.1-1.82,1.91,1.91,0,0,0-1.41-1.84l-.83-.33c-.8-.32-1-.66-1-1.12a1.1,1.1,0,0,1,1.23-1.06,2,2,0,0,1,1.45.59l.38-.45a2.48,2.48,0,0,0-1.83-.7,1.68,1.68,0,0,0-1.81,1.63c0,.82.5,1.3,1.39,1.66l.83.33a1.4,1.4,0,0,1,1.05,1.3A1.32,1.32,0,0,1,62,125.94a2.56,2.56,0,0,1-1.83-.85l-.43.41a3.11,3.11,0,0,0,2.24,1m-7.12,0a2.29,2.29,0,0,0,2.38-2.4v-4.28h-.59v4.26a1.78,1.78,0,1,1-3.56,0v-4.25h-.59v4.28a2.29,2.29,0,0,0,2.36,2.4m-6-.11h.59v-6.57h-.59v3H45.1v-3h-.59v6.57h.59v-3h3.77Zm-10.5,0H42v-.56H39v-6h-.59Zm-3-3.06v-.56h-3v-2.4h3.06v-.55H31.83v6.57h3.68v-.56H32.43v-2.5ZM27,126.5a1.85,1.85,0,0,0,2.09-1.82,1.9,1.9,0,0,0-1.4-1.84l-.83-.33c-.8-.32-1-.66-1-1.12A1.09,1.09,0,0,1,27,120.33a2,2,0,0,1,1.46.59l.38-.45a2.52,2.52,0,0,0-1.84-.7,1.68,1.68,0,0,0-1.81,1.63c0,.82.5,1.3,1.4,1.66l.83.33a1.4,1.4,0,0,1,1,1.3A1.32,1.32,0,0,1,27,125.94a2.6,2.6,0,0,1-1.84-.85l-.42.41a3.11,3.11,0,0,0,2.24,1m-6.77-.06h.43l2.68-6.57h-.62l-2.26,5.56-2.24-5.56h-.64Zm-5.64,0h.6v-6.57h-.6Zm-4.78-6a1.36,1.36,0,0,1,1.43,1.35,1.35,1.35,0,0,1-1.45,1.36H8v-2.71Zm-2.38,6H8v-2.78H9l2.19,2.78h.73l-2.2-2.78h.08a1.9,1.9,0,1,0,0-3.79H7.39Zm-7.39-6H2.22v6h.59v-6H5v-.56H0Z" transform="translate(0 0)"/><g class="cls-3"><rect class="cls-4" x="17.62" width="77.83" height="152.6"/></g></g></g></svg>