<svg id="Layer_1" data-name="Layer 1" xmlns="http://www.w3.org/2000/svg" viewBox="0 0 300 600"><defs><style>.cls-1{fill:#d5ad77;}</style></defs><title>text</title><path class="cls-1" d="M104.65,98.19V66.5h9A15.53,15.53,0,0,1,124.92,71a15.25,15.25,0,0,1,4.66,11.42,14.82,14.82,0,0,1-4.73,11.31,16.18,16.18,0,0,1-11.49,4.43h-8.72Zm9.11-26.4h-3.62V92.9h3.66a9.13,9.13,0,0,0,7-3.07,10.75,10.75,0,0,0,2.82-7.55,10.45,10.45,0,0,0-2.86-7.49A9.3,9.3,0,0,0,113.77,71.79Z"/><path class="cls-1" d="M138.85,98.19V66.5h5.94V98.19h-5.94Z"/><path class="cls-1" d="M152.46,72.2V66.5h26.12v5.7H168.49v26h-5.94v-26H152.46Z"/><path class="cls-1" d="M184.15,72.2V66.5h26.12v5.7H200.18v26h-5.94v-26H184.15Z"/><path class="cls-1" d="M109.74,147.39V115.7h5.94v26h11.64v5.7H109.74Z"/><path class="cls-1" d="M135.9,147.39V115.7h5.94v31.69H135.9Z"/><path class="cls-1" d="M161.34,147.39L149.22,115.7h6.19l8.7,22.79,8.6-22.79h6l-12,31.69h-5.39Z"/><path class="cls-1" d="M193.44,147.8a15.23,15.23,0,0,1-6-1.25,15.62,15.62,0,0,1-5.13-3.46l3.77-4.52a11.49,11.49,0,0,0,3.5,2.83,8.93,8.93,0,0,0,4.17,1.11,5.13,5.13,0,0,0,3.38-1.09,3.4,3.4,0,0,0,1.32-2.73q0-3-3.48-4.4l-3.53-1.41a13.58,13.58,0,0,1-5.27-3.5,8.08,8.08,0,0,1-1.7-5.39,8.23,8.23,0,0,1,2.69-6,9.2,9.2,0,0,1,6.72-2.64,13.65,13.65,0,0,1,9.76,3.62l-3.5,4.42a8.16,8.16,0,0,0-6.26-2.75,4.24,4.24,0,0,0-2.84.91,2.82,2.82,0,0,0-1.07,2.23,3,3,0,0,0,.84,2.17,8.42,8.42,0,0,0,2.72,1.63l3.7,1.48q7,2.82,7.18,9.15a8.87,8.87,0,0,1-3,6.94A11.54,11.54,0,0,1,193.44,147.8Z"/><path class="cls-1" d="M106.11,196.59L94,164.9h6.19l8.7,22.79,8.6-22.79h6l-12,31.69h-5.39Z"/><path class="cls-1" d="M148.65,183.19H136.92v8.12H149.8v5.29H131V164.9h18.45v5.29h-12.5v7.71h11.73v5.29Z"/><path class="cls-1" d="M159.43,196.59V164.9h12.4a10.68,10.68,0,0,1,7.63,2.88,9.86,9.86,0,0,1,3,7.52,9.52,9.52,0,0,1-2.27,6.42,10.2,10.2,0,0,1-5.91,3.37l8.51,11.5h-6.68l-8.22-11.32h-2.56v11.32h-5.94Zm11.48-26.4h-5.54v10.33h5.54a5.87,5.87,0,0,0,4.12-1.41,4.73,4.73,0,0,0,1.54-3.66A5,5,0,0,0,175,171.7,5.66,5.66,0,0,0,170.91,170.19Z"/><path class="cls-1" d="M191.78,196.59V164.9h5.49v14l12.14-14h7.34l-11.18,12.64,11.43,19h-6.85l-8.63-14.47-4.24,4.8v9.67h-5.49Z"/></svg>