<svg id="Layer_1" data-name="Layer 1" xmlns="http://www.w3.org/2000/svg" viewBox="0 0 300 600"><defs><style>.cls-1{fill:#d5ad77;}</style></defs><title>text</title><path class="cls-1" d="M53.68,78.19V53.46h7.06A12.16,12.16,0,0,1,69.5,57a11.94,11.94,0,0,1,3.64,8.92,11.58,11.58,0,0,1-3.69,8.83,12.65,12.65,0,0,1-9,3.45Zm7.11-20.61H58V74.06h2.86a7.11,7.11,0,0,0,5.47-2.39,8.42,8.42,0,0,0,2.2-5.89,8.21,8.21,0,0,0-2.23-5.85A7.3,7.3,0,0,0,60.79,57.58Z"/><path class="cls-1" d="M80.37,78.19V53.46h9.68a8.35,8.35,0,0,1,6,2.24,7.7,7.7,0,0,1,2.38,5.87,7.41,7.41,0,0,1-1.77,5A7.93,7.93,0,0,1,92,69.22l6.64,9H93.42L87,69.36H85v8.83Zm9-20.61H85v8.07h4.32a4.58,4.58,0,0,0,3.21-1.1,3.68,3.68,0,0,0,1.2-2.85,3.9,3.9,0,0,0-1.23-2.94A4.43,4.43,0,0,0,89.33,57.58Z"/><path class="cls-1" d="M130,65.81a12.85,12.85,0,1,1-21.93-9.07A12.85,12.85,0,0,1,130,65.81Zm-18.67,5.9a8.13,8.13,0,0,0,11.63,0,8.5,8.5,0,0,0,0-11.84,8.13,8.13,0,0,0-11.63,0,8.55,8.55,0,0,0,0,11.84ZM115,50.91a2.08,2.08,0,0,1-3,0,2.21,2.21,0,0,1,1.52-3.79,2,2,0,0,1,1.5.64,2.16,2.16,0,0,1,.63,1.57A2.2,2.2,0,0,1,115,50.91Zm7.36,0a2.37,2.37,0,0,1-3.28,0,2.08,2.08,0,0,1-.68-1.58,2.05,2.05,0,0,1,.68-1.57,2.42,2.42,0,0,1,3.28,0,2.09,2.09,0,0,1,.68,1.57A2.11,2.11,0,0,1,122.38,50.91Z"/><path class="cls-1" d="M137.14,78.19V53.46h4.48l7.65,12.19L157,53.46h4.86V78.19h-4.64V61.26l-.37,0-7.67,11.84L141.7,61.37h.08V78.19Z"/><path class="cls-1" d="M170.42,78.19V53.46h4.48l7.64,12.19,7.75-12.19h4.86V78.19h-4.64V61.26l-.37,0-7.67,11.84L175,61.37h.08V78.19Z"/><path class="cls-1" d="M217.49,67.73h-9.15v6.33h10v4.13H203.7V53.46h14.4v4.12h-9.76v6h9.15Z"/><path class="cls-1" d="M225.9,78.19V53.46h9.68a8.37,8.37,0,0,1,6,2.24,7.7,7.7,0,0,1,2.38,5.87,7.41,7.41,0,0,1-1.77,5,7.93,7.93,0,0,1-4.62,2.64l6.65,9H239l-6.42-8.83h-2v8.83Zm9-20.61h-4.32v8.07h4.32a4.59,4.59,0,0,0,3.22-1.1,3.68,3.68,0,0,0,1.2-2.85,3.9,3.9,0,0,0-1.23-2.94A4.44,4.44,0,0,0,234.86,57.58Z"/><path class="cls-1" d="M80.38,116.59V91.86h7.06a12.16,12.16,0,0,1,8.76,3.53,11.9,11.9,0,0,1,3.64,8.92,11.58,11.58,0,0,1-3.69,8.83,12.63,12.63,0,0,1-9,3.45ZM87.5,96H84.67v16.48h2.86A7.1,7.1,0,0,0,93,110.07a8.37,8.37,0,0,0,2.2-5.89A8.16,8.16,0,0,0,93,98.33,7.28,7.28,0,0,0,87.5,96Z"/><path class="cls-1" d="M123.22,114.37a10.09,10.09,0,0,1-13.54,0,8.77,8.77,0,0,1-2.67-6.55v-16h4.64v15.36a5.64,5.64,0,0,0,1.27,3.81,4.91,4.91,0,0,0,7,0,5.57,5.57,0,0,0,1.28-3.77V91.86h4.64v16A8.77,8.77,0,0,1,123.22,114.37Z"/><path class="cls-1" d="M171.33,104.21a12.84,12.84,0,1,1-3.76-9.07A12.31,12.31,0,0,1,171.33,104.21Zm-18.67,5.9a8.13,8.13,0,0,0,11.63,0,8.5,8.5,0,0,0,0-11.84,8.13,8.13,0,0,0-11.63,0,8.53,8.53,0,0,0,0,11.84Z"/><path class="cls-1" d="M178.43,116.59V91.86h4.48l7.65,12.19,7.74-12.19h4.87v24.73h-4.64V99.66l-.37,0-7.68,11.84L183,99.77h.07v16.82Z"/><path class="cls-1" d="M106.8,155l9.54-24.73h4.19L130,155h-4.77L124,151.57H112.89L111.57,155Zm11.64-17.81-4,10.26h7.89Z"/><path class="cls-1" d="M131,134.7v-4.44h20.39v4.44H143.5V155h-4.64V134.7Z"/><path class="cls-1" d="M155.73,134.7v-4.44h20.38v4.44h-7.87V155H163.6V134.7Z"/><path class="cls-1" d="M79,193.39V168.66h8.14a7.47,7.47,0,0,1,5.41,2.06,6.84,6.84,0,0,1,2.13,5.11,5.83,5.83,0,0,1-2.77,5A6.84,6.84,0,0,1,94.67,183a5.25,5.25,0,0,1,1,3.14,6.81,6.81,0,0,1-2.17,5.24,7.73,7.73,0,0,1-5.46,2Zm7.6-20.61H83.31V179H87a3.38,3.38,0,0,0,2.46-.91,3,3,0,0,0,1-2.28,2.63,2.63,0,0,0-1-2.19A4.31,4.31,0,0,0,86.62,172.78Zm.71,9.92h-4v6.57h3.92a4,4,0,0,0,2.8-.94,3.1,3.1,0,0,0,1-2.39,3,3,0,0,0-1-2.35A3.93,3.93,0,0,0,87.33,182.7Z"/><path class="cls-1" d="M115,168.66h5l-8.19,14.69v10h-4.64V183.5l-8.29-14.84H104l5.58,10.25Z"/><path class="cls-1" d="M139.66,183.06v-4.13h8.87l0,2.11a12.8,12.8,0,0,1-1.81,6.56,12.58,12.58,0,0,1-4.69,4.56,12.74,12.74,0,0,1-6.3,1.62,12.84,12.84,0,1,1,.06-25.67,12.22,12.22,0,0,1,9.22,4l-3.17,3.13a8,8,0,0,0-6.08-2.68,7.89,7.89,0,0,0-5.92,2.42,8.75,8.75,0,0,0,0,11.92,7.55,7.55,0,0,0,5.62,2.43,8.72,8.72,0,0,0,5.5-1.72,7.8,7.8,0,0,0,2.92-4.55Z"/><path class="cls-1" d="M171.34,183.06v-4.13h8.87l0,2.11a12.8,12.8,0,0,1-1.81,6.56,12.58,12.58,0,0,1-4.69,4.56,12.74,12.74,0,0,1-6.3,1.62,12.84,12.84,0,1,1,.06-25.67,12.22,12.22,0,0,1,9.22,4l-3.17,3.13a8,8,0,0,0-6.08-2.68,7.88,7.88,0,0,0-5.92,2.42,8.75,8.75,0,0,0,0,11.92,7.55,7.55,0,0,0,5.62,2.43,8.72,8.72,0,0,0,5.5-1.72,7.8,7.8,0,0,0,2.92-4.55Z"/><path class="cls-1" d="M183.6,193.39l9.54-24.73h4.19l9.5,24.73h-4.77L200.75,190H189.69l-1.32,3.42Zm11.64-17.81-4,10.26h7.89Z"/><path class="cls-1" d="M118.19,231.79V221.46H107.6v10.33H103V207.06h4.64V217h10.59v-9.95h4.64v24.73Z"/><path class="cls-1" d="M147.36,229.57a10.09,10.09,0,0,1-13.54,0,8.77,8.77,0,0,1-2.67-6.55v-16h4.64v15.36a5.64,5.64,0,0,0,1.28,3.81,4.91,4.91,0,0,0,7.05,0,5.57,5.57,0,0,0,1.27-3.77V207.06H150v16A8.77,8.77,0,0,1,147.36,229.57Z"/><path class="cls-1" d="M165,232.11a11.92,11.92,0,0,1-4.67-1,12.2,12.2,0,0,1-4-2.71l2.94-3.52a9.12,9.12,0,0,0,2.73,2.21,6.91,6.91,0,0,0,3.26.86,4,4,0,0,0,2.63-.85,2.62,2.62,0,0,0,1-2.13q0-2.31-2.71-3.43l-2.76-1.11a10.61,10.61,0,0,1-4.11-2.72,6.3,6.3,0,0,1-1.33-4.21,6.43,6.43,0,0,1,2.1-4.7,7.2,7.2,0,0,1,5.24-2.06,10.68,10.68,0,0,1,7.62,2.82L170.23,213a6.39,6.39,0,0,0-4.89-2.14,3.29,3.29,0,0,0-2.22.71,2.21,2.21,0,0,0-.83,1.74,2.34,2.34,0,0,0,.65,1.7,6.65,6.65,0,0,0,2.12,1.27l2.89,1.16q5.51,2.19,5.6,7.14a6.9,6.9,0,0,1-2.33,5.41A9,9,0,0,1,165,232.11Z"/><path class="cls-1" d="M183.44,224.94v-.83a6.25,6.25,0,0,1,.71-3.2,5.87,5.87,0,0,1,2.39-2l1.73-1.06a4.15,4.15,0,0,0,1.47-3.22,3.42,3.42,0,0,0-.94-2.44,3.48,3.48,0,0,0-2.55-1,3,3,0,0,0-2.46,1.12,4.5,4.5,0,0,0-1,2.88h-3.58a8,8,0,0,1,2-5.58,6.88,6.88,0,0,1,5.34-2.13,7.33,7.33,0,0,1,5.43,2,6.67,6.67,0,0,1,2,4.92,5.84,5.84,0,0,1-3.11,5.84l-1.86,1.18a3.65,3.65,0,0,0-1.59,1A2.47,2.47,0,0,0,187,224v1Zm3.51,6.55a2.33,2.33,0,0,1-1.67.72,2,2,0,0,1-1.58-.72,2.52,2.52,0,0,1-.64-1.75,2.6,2.6,0,0,1,.64-1.76,2,2,0,0,1,1.58-.73,2.35,2.35,0,0,1,1.67.7,2.48,2.48,0,0,1,.75,1.79A2.33,2.33,0,0,1,187,231.49Z"/></svg>