<svg id="Layer_1" data-name="Layer 1" xmlns="http://www.w3.org/2000/svg" viewBox="0 0 300 250"><defs><style>.cls-1{fill:#d4ac76;}</style></defs><title>text</title><path class="cls-1" d="M123.28,169.67v-8.89H125v7.29h3.26v1.6Z"/><path class="cls-1" d="M129.52,169.67l3.43-8.89h1.51l3.41,8.89h-1.71l-.47-1.23h-4l-.47,1.23Zm3.42-9.81a.72.72,0,0,1-.55.24.75.75,0,0,1-.55-.24.84.84,0,0,1,0-1.13.8.8,0,0,1,.55-.23.74.74,0,0,1,.54.23.77.77,0,0,1,.23.56A.81.81,0,0,1,132.94,159.86Zm.77,3.4L132.28,167h2.84Zm1.87-3.4a.81.81,0,0,1-.59.24.82.82,0,0,1-.59-.24.79.79,0,0,1,0-1.13.86.86,0,0,1,.59-.23.84.84,0,0,1,.59.23.76.76,0,0,1,0,1.13Z"/><path class="cls-1" d="M142.24,169.78a4.32,4.32,0,0,1-1.68-.35,4.46,4.46,0,0,1-1.44-1l1.06-1.27a3.22,3.22,0,0,0,1,.8,2.56,2.56,0,0,0,1.17.31,1.43,1.43,0,0,0,.95-.31,1,1,0,0,0,.37-.76,1.33,1.33,0,0,0-1-1.24l-1-.4a3.71,3.71,0,0,1-1.48-1,2.24,2.24,0,0,1-.47-1.51,2.29,2.29,0,0,1,.75-1.68,2.56,2.56,0,0,1,1.88-.75,3.83,3.83,0,0,1,2.74,1l-1,1.24a2.27,2.27,0,0,0-1.76-.77,1.17,1.17,0,0,0-.79.25.8.8,0,0,0-.3.63.81.81,0,0,0,.23.61,2.44,2.44,0,0,0,.76.46l1,.41a2.74,2.74,0,0,1,2,2.57,2.46,2.46,0,0,1-.83,1.94A3.24,3.24,0,0,1,142.24,169.78Z"/><path class="cls-1" d="M152,169.67v-8.89h1.61l2.75,4.38,2.78-4.38h1.75v8.89h-1.67v-6.09l-.13,0-2.76,4.26-2.69-4.2h0v6Z"/><path class="cls-1" d="M168.69,165.91H165.4v2.27H169v1.49h-5.28v-8.89h5.17v1.48H165.4v2.16h3.29Z"/><path class="cls-1" d="M171.49,169.67v-8.89H175a3,3,0,0,1,2.14.8,2.78,2.78,0,0,1,.85,2.11,2.67,2.67,0,0,1-.63,1.8,2.87,2.87,0,0,1-1.66.95l2.38,3.23h-1.87l-2.31-3.18h-.71v3.18Zm3.22-7.41h-1.55v2.9h1.55a1.6,1.6,0,0,0,1.15-.4,1.3,1.3,0,0,0,.43-1,1.39,1.39,0,0,0-.44-1.06A1.57,1.57,0,0,0,174.71,162.26Z"/></svg>