<svg id="Layer_1" data-name="Layer 1" xmlns="http://www.w3.org/2000/svg" viewBox="0 0 300 250"><defs><style>.cls-1{fill:#fff;}</style></defs><title>text</title><path class="cls-1" d="M96.09,114.42C94,116.66,90.74,116.3,88,116.3v7.91H83.8V102.87H90c2.11,0,4,.15,5.63,1.63a6.79,6.79,0,0,1,2.17,5.15A7,7,0,0,1,96.09,114.42Zm-3.65-7.27a5,5,0,0,0-3-.67H88v6.21h1.69c2.08,0,3.88-.67,3.88-3.07A3.2,3.2,0,0,0,92.44,107.15Z"/><path class="cls-1" d="M109.37,113.87a3.45,3.45,0,0,0-1.86-.48c-2.62,0-3.33,1.86-3.33,4.16v6.66h-3.87V110.35h3.87v2.08a4.46,4.46,0,0,1,4-2.53,4.54,4.54,0,0,1,1.7.32Z"/><path class="cls-1" d="M113.72,106.83a2.34,2.34,0,1,1,0-4.67,2.34,2.34,0,0,1,0,4.67Zm-2,17.38V110.35h3.87v13.86Z"/><path class="cls-1" d="M123.7,124.66a7.39,7.39,0,0,1-5.28-2.31l2-2.37a4.49,4.49,0,0,0,3.26,1.64,1.63,1.63,0,0,0,1.76-1.54c0-2.37-6.17-1.18-6.17-5.86,0-2.81,2.33-4.38,5-4.38a7.16,7.16,0,0,1,4.51,1.47l-1.92,2.27a3.86,3.86,0,0,0-2.31-.92c-.67,0-1.47.41-1.47,1.18,0,2,6.4,1.12,6.4,5.86C129.49,122.93,126.68,124.66,123.7,124.66Z"/><path class="cls-1" d="M150.84,124.21v-1.83a5.36,5.36,0,0,1-4.52,2.28c-4.15,0-6.81-3.46-6.81-7.43s2.66-7.33,6.72-7.33a5.78,5.78,0,0,1,4.61,2.21V100.24h3.9v24Zm-3.46-10.82a3.89,3.89,0,1,0,3.87,3.87A3.87,3.87,0,0,0,147.38,113.39Z"/><path class="cls-1" d="M160.34,106.83a2.34,2.34,0,1,1,0-4.67,2.34,2.34,0,0,1,0,4.67Zm-2,17.38V110.35h3.87v13.86Z"/><path class="cls-1" d="M175,113.87a3.44,3.44,0,0,0-1.85-.48c-2.63,0-3.33,1.86-3.33,4.16v6.66h-3.87V110.35h3.87v2.08a4.46,4.46,0,0,1,4-2.53,4.54,4.54,0,0,1,1.7.32Z"/><path class="cls-1" d="M180.66,117.9c.06,2.15,1.09,3.72,3.39,3.72a3.64,3.64,0,0,0,3.3-1.86l3.58.58a6.8,6.8,0,0,1-6.81,4.32c-4.48,0-7.43-2.88-7.43-7.4s2.82-7.36,7.27-7.36S191,113,191,117.39v.51Zm3.36-5.24a3.14,3.14,0,0,0-3.23,2.78h6.56A3.22,3.22,0,0,0,184,112.66Z"/><path class="cls-1" d="M203.51,124.21l-5.22-5.95-.41.41v5.54H194v-24h3.88v15.17l5.18-5.06h5.25l-6.5,6.08,7,7.78Z"/><path class="cls-1" d="M214.45,113.68v10.53h-3.87V113.68H209v-3.33h1.54v-4.73h3.87v4.73h2.72v3.33Z"/><path class="cls-1" d="M63.62,141.83a2.34,2.34,0,1,1,2.31-2.33A2.34,2.34,0,0,1,63.62,141.83Zm-1.95,17.38V145.35h3.87v13.86Z"/><path class="cls-1" d="M85,159.21H77.8V137.87h5.28c1.73,0,3.84.16,5.21,1.28a5.69,5.69,0,0,1,1.92,4.38,4.48,4.48,0,0,1-2.33,4.29,4.83,4.83,0,0,1,2.78,1.34,5.71,5.71,0,0,1,1.54,4C92.2,157.42,88.81,159.21,85,159.21Zm-1.8-18H82v5.5h1.18c1.86,0,3.23-.74,3.23-2.75S85,141.26,83.17,141.26Zm.71,8.67H82v5.92h1.79c2,0,4.16-.48,4.16-3S85.86,149.93,83.88,149.93Z"/><path class="cls-1" d="M99.46,166.63H95.08l5.09-9.5-6.56-11.78h4.51l4.16,7.87,4-7.87h4.41Z"/><path class="cls-1" d="M125.41,164.23a7.54,7.54,0,0,1-5.88,2.43c-3.56,0-7-2-7.36-5.82h4.19a3.08,3.08,0,0,0,3.29,2.53c2.43,0,3.43-1.7,3.43-3.94v-2.08a5.75,5.75,0,0,1-4.67,2.31c-4.1,0-6.6-3.3-6.6-7.2s2.56-7.55,6.79-7.55a5.21,5.21,0,0,1,4.48,2.23v-1.79H127V158.7C127,160.87,126.88,162.5,125.41,164.23Zm-5.72-15.84a3.89,3.89,0,1,0,3.87,3.87A3.87,3.87,0,0,0,119.69,148.39Z"/><path class="cls-1" d="M143.56,164.23a7.56,7.56,0,0,1-5.89,2.43c-3.55,0-7-2-7.36-5.82h4.19a3.09,3.09,0,0,0,3.3,2.53c2.43,0,3.42-1.7,3.42-3.94v-2.08a5.75,5.75,0,0,1-4.67,2.31c-4.1,0-6.59-3.3-6.59-7.2s2.56-7.55,6.78-7.55a5.21,5.21,0,0,1,4.48,2.23v-1.79h3.9V158.7C145.12,160.87,145,162.5,143.56,164.23Zm-5.73-15.84a3.89,3.89,0,1,0,3.87,3.87A3.87,3.87,0,0,0,137.83,148.39Z"/><path class="cls-1" d="M164,159.66c-4.42,0-7.94-2.76-7.94-7.36s3.52-7.39,8-7.39,7.87,2.78,7.87,7.35S168.42,159.66,164,159.66Zm0-11.27a3.89,3.89,0,1,0,3.94,3.91A3.92,3.92,0,0,0,164,148.39Z"/><path class="cls-1" d="M184.39,159.21v-7.68c0-1.89-.42-3.33-2.63-3.33-2.4,0-3,1.76-3,3.84v7.17h-3.87V145.35h3.87v1.7a5.12,5.12,0,0,1,4.35-2.14,4.78,4.78,0,0,1,5.12,5.5v8.8Z"/><path class="cls-1" d="M192,159.21v-24h3.87v24Z"/><path class="cls-1" d="M201.44,141.83a2.34,2.34,0,1,1,2.31-2.33A2.34,2.34,0,0,1,201.44,141.83Zm-1.95,17.38V145.35h3.87v13.86Z"/><path class="cls-1" d="M216.48,159.21v-7.68c0-1.89-.41-3.33-2.62-3.33-2.4,0-3,1.76-3,3.84v7.17H207V145.35h3.87v1.7a5.12,5.12,0,0,1,4.36-2.14,4.77,4.77,0,0,1,5.11,5.5v8.8Z"/><path class="cls-1" d="M227.3,152.9c.06,2.15,1.09,3.72,3.39,3.72a3.64,3.64,0,0,0,3.3-1.86l3.58.58c-1.22,3-3.68,4.32-6.82,4.32-4.47,0-7.42-2.88-7.42-7.4s2.82-7.35,7.26-7.35,7.08,3.07,7.08,7.48v.51Zm3.36-5.24a3.14,3.14,0,0,0-3.23,2.78H234A3.22,3.22,0,0,0,230.66,147.66Z"/></svg>