<svg id="Layer_1" data-name="Layer 1" xmlns="http://www.w3.org/2000/svg" viewBox="0 0 980 240"><defs><style>.cls-1{fill:#d80201;}.cls-2{fill:#fff;}</style></defs><title>text</title><rect class="cls-1" x="50.65" y="104.54" width="186.99" height="30.19" rx="15.09"/><path class="cls-2" d="M86.42,125.5l-4.19-5.26-.26.26v5H79.68V113.76H82v5l4.31-5h2.89l-5,5.42,5.23,6.32Z"/><path class="cls-2" d="M95.88,125.77a6.14,6.14,0,1,1,6.28-6.13A6.1,6.1,0,0,1,95.88,125.77Zm0-10.18a4.05,4.05,0,1,0,3.92,4A4,4,0,0,0,95.88,115.59Z"/><path class="cls-2" d="M115.16,125.5l-1-7.23-3.24,7.39h-.63l-3.12-7.39L106,125.5h-2.31l2.19-12h1.56l3.21,7.68,3.34-7.68h1.57l2,12Z"/><path class="cls-2" d="M124,125.5V113.76h2.28V125.5Z"/><path class="cls-2" d="M140.08,121.44a5.44,5.44,0,0,1-5.57,4.33,5.93,5.93,0,0,1-6.16-6.11,6,6,0,0,1,6.23-6.16,5.61,5.61,0,0,1,5,2.76l-2,1.07a3.46,3.46,0,0,0-3.06-1.74,3.89,3.89,0,0,0-3.86,4.07,3.84,3.84,0,0,0,3.86,4,2.89,2.89,0,0,0,3.06-2.5h-2.77v-2h5.39v.28A10.52,10.52,0,0,1,140.08,121.44Z"/><path class="cls-2" d="M149.89,125.5l-1-2.48h-4.79L143,125.5h-2.43l5.09-12h1.72l4.95,12ZM146.52,117l-1.71,4.22h3.37Zm-.05-4.33a1.65,1.65,0,0,1-1.64-1.64,1.64,1.64,0,0,1,3.28,0A1.65,1.65,0,0,1,146.47,112.62Zm0-2.31a.67.67,0,1,0,.67.67A.67.67,0,0,0,146.47,110.31Z"/><path class="cls-2" d="M163.16,125.73,156,117.56v7.94h-2.29v-12h1.59l7.15,8.17v-7.91h2.29v12Z"/><path class="cls-2" d="M178.57,121.44a5.43,5.43,0,0,1-5.56,4.33,5.93,5.93,0,0,1-6.17-6.11,6,6,0,0,1,6.24-6.16,5.59,5.59,0,0,1,5,2.76l-2,1.07a3.44,3.44,0,0,0-3.06-1.74,3.89,3.89,0,0,0-3.86,4.07,3.84,3.84,0,0,0,3.86,4,2.89,2.89,0,0,0,3.06-2.5h-2.76v-2h5.39v.28A10.53,10.53,0,0,1,178.57,121.44Z"/><polygon class="cls-2" points="202.85 121.11 190.48 121.11 190.48 117.96 202.85 117.96 202.85 113.19 211.65 119.53 202.85 125.61 202.85 121.11"/></svg>