<svg id="Layer_1" data-name="Layer 1" xmlns="http://www.w3.org/2000/svg" viewBox="0 0 980 240"><defs><style>.cls-1{fill:#d80201;}</style></defs><title>text</title><path class="cls-1" d="M330.09,109V79H346.7v5.08H335.94v6.66h10.35v5.09H335.94v8.1H346.7V109Z"/><path class="cls-1" d="M367.22,109l-5.58-6.79L356,109h-7l9.27-10.62-7.47-8.86h6.88l4,5,4.09-5h6.93L365,98.38,374.15,109Z"/><path class="cls-1" d="M382.29,94.2V109h-5.44V94.2h-2.16V89.52h2.16V82.86h5.44v6.66h3.83V94.2Z"/><path class="cls-1" d="M401.69,94.47a4.79,4.79,0,0,0-2.61-.68c-3.69,0-4.68,2.61-4.68,5.85V109H389V89.52h5.45v2.92a6.26,6.26,0,0,1,5.67-3.55,6.14,6.14,0,0,1,2.38.45Z"/><path class="cls-1" d="M420.05,109v-2.56a7.55,7.55,0,0,1-6.35,3.19c-5.85,0-9.58-4.86-9.58-10.44s3.73-10.3,9.45-10.3a8.14,8.14,0,0,1,6.48,3.1V89.52h5.49V109Zm-4.86-15.21a5.47,5.47,0,1,0,5.44,5.45A5.44,5.44,0,0,0,415.19,93.79Z"/><path class="cls-1" d="M453.84,109.63a7.68,7.68,0,0,1-6.39-3.19V109H442V75.3h5.44V92c1.94-2,3.69-3.1,6.53-3.1,5.71,0,9.49,4.86,9.49,10.3S459.69,109.63,453.84,109.63Zm-1.48-15.84a5.47,5.47,0,1,0,5.44,5.45A5.44,5.44,0,0,0,452.36,93.79Z"/><path class="cls-1" d="M480.35,94.47a4.79,4.79,0,0,0-2.61-.68c-3.69,0-4.68,2.61-4.68,5.85V109h-5.45V89.52h5.45v2.92a6.26,6.26,0,0,1,5.67-3.55,6.14,6.14,0,0,1,2.38.45Z"/><path class="cls-1" d="M498.71,109v-2.56a7.55,7.55,0,0,1-6.35,3.19c-5.85,0-9.58-4.86-9.58-10.44s3.73-10.3,9.45-10.3a8.14,8.14,0,0,1,6.48,3.1V89.52h5.49V109Zm-4.86-15.21a5.47,5.47,0,1,0,5.44,5.45A5.44,5.44,0,0,0,493.85,93.79Z"/><path class="cls-1" d="M535.56,109v-2.56a7.53,7.53,0,0,1-6.34,3.19c-5.85,0-9.59-4.86-9.59-10.44s3.74-10.3,9.45-10.3a8.12,8.12,0,0,1,6.48,3.1V75.3h5.49V109ZM530.7,93.79a5.47,5.47,0,1,0,5.45,5.45A5.44,5.44,0,0,0,530.7,93.79Z"/><path class="cls-1" d="M550.82,100.14c.09,3,1.52,5.22,4.76,5.22a5.12,5.12,0,0,0,4.64-2.61l5,.81c-1.71,4.18-5.18,6.07-9.59,6.07-6.29,0-10.43-4-10.43-10.39s4-10.35,10.21-10.35c6.43,0,9.94,4.32,9.94,10.53v.72Zm4.72-7.38A4.42,4.42,0,0,0,551,96.67h9.22A4.52,4.52,0,0,0,555.54,92.76Z"/><path class="cls-1" d="M584.47,109v-2.56a7.53,7.53,0,0,1-6.34,3.19c-5.85,0-9.59-4.86-9.59-10.44s3.74-10.3,9.45-10.3a8.12,8.12,0,0,1,6.48,3.1V89.52H590V109Zm-4.86-15.21a5.47,5.47,0,1,0,5.45,5.45A5.44,5.44,0,0,0,579.61,93.79Z"/><path class="cls-1" d="M595.18,109V75.3h5.45V109Z"/><path class="cls-1" d="M622.72,94.2V109h-5.44V94.2h-2.12V89.52h2.12V83.26a9.57,9.57,0,0,1,.85-4.59,7.71,7.71,0,0,1,6.75-3.91,6.41,6.41,0,0,1,2.88.67v5a5.35,5.35,0,0,0-2.47-.72c-2.43,0-2.57,2.52-2.57,4.36v5.45h5V94.2Z"/><path class="cls-1" d="M640.41,109.63c-6.21,0-11.16-3.87-11.16-10.35s5-10.39,11.2-10.39,11.07,3.91,11.07,10.35S646.57,109.63,640.41,109.63Zm-4.73-23.76a3.24,3.24,0,1,1,0-6.48,3.24,3.24,0,1,1,0,6.48Zm4.68,7.92a5.47,5.47,0,1,0,5.54,5.49A5.52,5.52,0,0,0,640.36,93.79ZM645,85.87a3.29,3.29,0,0,1-3.24-3.24A3.24,3.24,0,1,1,645,85.87Z"/><path class="cls-1" d="M668.44,94.47a4.77,4.77,0,0,0-2.61-.68c-3.69,0-4.68,2.61-4.68,5.85V109h-5.44V89.52h5.44v2.92a6.26,6.26,0,0,1,5.67-3.55,6.15,6.15,0,0,1,2.39.45Z"/><path class="cls-1" d="M369.94,160v-2.56a7.53,7.53,0,0,1-6.34,3.19c-5.85,0-9.59-4.86-9.59-10.44s3.74-10.3,9.45-10.3a8.12,8.12,0,0,1,6.48,3.1v-2.47h5.49V160Zm-4.86-15.21a5.47,5.47,0,1,0,5.45,5.45A5.44,5.44,0,0,0,365.08,144.79Z"/><path class="cls-1" d="M380.65,160V126.3h5.45V160Z"/><path class="cls-1" d="M391.32,160V126.3h5.44V160Z"/><path class="cls-1" d="M416.87,160v-2.56a7.53,7.53,0,0,1-6.34,3.19c-5.85,0-9.59-4.86-9.59-10.44s3.74-10.3,9.45-10.3a8.12,8.12,0,0,1,6.48,3.1v-2.47h5.49V160ZM412,144.79a5.47,5.47,0,1,0,5.45,5.45A5.44,5.44,0,0,0,412,144.79Z"/><path class="cls-1" d="M452.15,160V149.2c0-2.65-.58-4.68-3.69-4.68-3.37,0-4.18,2.48-4.18,5.4V160h-5.45V140.52h5.45v2.38c1.8-2.07,3.33-3,6.12-3a7.48,7.48,0,0,1,5.67,2.34c1.39,1.62,1.53,3.37,1.53,5.4V160Z"/><path class="cls-1" d="M467.5,170.44h-6.17l7.16-13.36-9.23-16.56h6.35l5.85,11.07L477,140.52h6.21Z"/><path class="cls-1" d="M499.72,160v-2.56a7.54,7.54,0,0,1-6.34,3.19c-5.86,0-9.59-4.86-9.59-10.44s3.73-10.3,9.45-10.3a8.14,8.14,0,0,1,6.48,3.1v-2.47h5.49V160Zm-4.86-15.21a5.47,5.47,0,1,0,5.44,5.45A5.44,5.44,0,0,0,494.86,144.79Z"/><path class="cls-1" d="M531.58,160.41h-2.52l-9.95-19.89h6.12l5.13,11,5.13-11h6.12Z"/><path class="cls-1" d="M559.16,160v-2.56a7.53,7.53,0,0,1-6.34,3.19c-5.85,0-9.59-4.86-9.59-10.44s3.74-10.3,9.45-10.3a8.12,8.12,0,0,1,6.48,3.1v-2.47h5.49V160Zm-9.4-23.13a3.24,3.24,0,0,1,0-6.48,3.24,3.24,0,0,1,0,6.48Zm4.54,7.92a5.47,5.47,0,1,0,5.45,5.45A5.44,5.44,0,0,0,554.3,144.79Zm4.82-7.92a3.28,3.28,0,0,1-3.24-3.24,3.24,3.24,0,1,1,3.24,3.24Z"/><path class="cls-1" d="M583.19,160V149.2c0-2.65-.58-4.68-3.69-4.68-3.37,0-4.18,2.48-4.18,5.4V160h-5.45V140.52h5.45v2.38c1.8-2.07,3.33-3,6.12-3a7.48,7.48,0,0,1,5.67,2.34c1.39,1.62,1.53,3.37,1.53,5.4V160Z"/><path class="cls-1" d="M607.18,160V149.2c0-2.65-.59-4.68-3.69-4.68-3.38,0-4.19,2.48-4.19,5.4V160h-5.44V140.52h5.44v2.38c1.8-2.07,3.33-3,6.12-3a7.47,7.47,0,0,1,5.67,2.34c1.4,1.62,1.53,3.37,1.53,5.4V160Z"/><path class="cls-1" d="M622.39,151.14c.09,3,1.53,5.22,4.77,5.22a5.1,5.1,0,0,0,4.63-2.61l5,.81c-1.71,4.18-5.17,6.07-9.58,6.07-6.3,0-10.44-4-10.44-10.39s4-10.35,10.21-10.35c6.44,0,10,4.32,10,10.53v.72Zm4.72-7.38a4.42,4.42,0,0,0-4.54,3.91h9.22A4.51,4.51,0,0,0,627.11,143.76Z"/><path class="cls-1" d="M653.89,145.47a4.79,4.79,0,0,0-2.61-.68c-3.69,0-4.68,2.61-4.68,5.85V160h-5.45V140.52h5.45v2.92a6.26,6.26,0,0,1,5.67-3.55,6.14,6.14,0,0,1,2.38.45Z"/></svg>