<svg id="Layer_1" data-name="Layer 1" xmlns="http://www.w3.org/2000/svg" viewBox="0 0 980 240"><defs><style>.cls-1{fill:#d80201;}</style></defs><title>text</title><path class="cls-1" d="M493.89,115.54a7.29,7.29,0,0,1-6.15,3.12,9.32,9.32,0,0,1-6.4-2.59l3.24-3.89a3.18,3.18,0,0,0,2.63,1.51c3,0,2.74-3.27,2.74-5.41V90.65h5.33V109.1A11.69,11.69,0,0,1,493.89,115.54Z"/><path class="cls-1" d="M509.39,118.57c-4.88,0-8.57-2.17-8.57-7.46V100.25h5v10c0,2.42,1,4.06,3.61,4.06s3.6-1.64,3.6-4.06v-10h5v10.86C518,116.4,514.27,118.57,509.39,118.57Z"/><path class="cls-1" d="M528.41,118.57a9.45,9.45,0,0,1-6.77-2.95l2.63-3a5.77,5.77,0,0,0,4.18,2.09,2.1,2.1,0,0,0,2.26-2c0-3-7.92-1.52-7.92-7.5,0-3.61,3-5.62,6.36-5.62a9.16,9.16,0,0,1,5.78,1.89l-2.46,2.91a4.94,4.94,0,0,0-3-1.19c-.86,0-1.89.53-1.89,1.52,0,2.58,8.2,1.43,8.2,7.5C535.83,116.36,532.22,118.57,528.41,118.57Z"/><path class="cls-1" d="M544.36,104.51V118h-5V104.51h-2v-4.26h2V94.18h5v6.07h3.48v4.26Z"/><path class="cls-1" d="M572.81,118v-9.84c0-2.42-.53-4.26-3.36-4.26-3.07,0-3.81,2.25-3.81,4.92V118h-5V100.25h5v2.17c1.64-1.89,3-2.75,5.57-2.75a6.83,6.83,0,0,1,5.17,2.13c1.27,1.48,1.39,3.08,1.39,4.93V118Z"/><path class="cls-1" d="M591.1,118.57c-4.88,0-8.57-2.17-8.57-7.46V100.25h5v10c0,2.42,1,4.06,3.61,4.06s3.61-1.64,3.61-4.06v-10h5v10.86C599.71,116.4,596,118.57,591.1,118.57Z"/><path class="cls-1" d="M637.39,118v-9.72c0-2.09-.33-4.38-3-4.38-2.91,0-3.4,2.66-3.4,5V118h-5v-9.43a7.88,7.88,0,0,0-.37-2.95A2.87,2.87,0,0,0,623,103.9a3.22,3.22,0,0,0-2.79,1.6,7.39,7.39,0,0,0-.58,3.4V118h-5V100.25h5v2a6.81,6.81,0,0,1,5.42-2.59,6,6,0,0,1,5.53,3.24,6.58,6.58,0,0,1,5.82-3.24,5.86,5.86,0,0,1,5,2.54,7.93,7.93,0,0,1,.94,4.31V118Z"/><path class="cls-1" d="M651.24,109.92c.09,2.75,1.4,4.76,4.35,4.76a4.64,4.64,0,0,0,4.22-2.38l4.6.74c-1.56,3.81-4.72,5.53-8.74,5.53-5.74,0-9.51-3.69-9.51-9.47s3.61-9.43,9.31-9.43c5.86,0,9.06,3.94,9.06,9.6v.65Zm4.31-6.72a4,4,0,0,0-4.14,3.57h8.4A4.11,4.11,0,0,0,655.55,103.2Z"/><path class="cls-1" d="M681.91,118v-2.34a6.84,6.84,0,0,1-5.78,2.91c-5.33,0-8.73-4.42-8.73-9.51s3.4-9.39,8.61-9.39a7.41,7.41,0,0,1,5.9,2.83V87.29h5V118Zm-4.43-13.86a5,5,0,1,0,5,5A5,5,0,0,0,677.48,104.14Z"/><path class="cls-1" d="M448,146.29V169h-5.33V146.29h-6.11v-4.64h17.59v4.64Z"/><path class="cls-1" d="M467.28,155.76a4.39,4.39,0,0,0-2.38-.62c-3.36,0-4.26,2.38-4.26,5.33V169h-5V151.25h5v2.66a5.71,5.71,0,0,1,5.17-3.24,5.84,5.84,0,0,1,2.17.41Z"/><path class="cls-1" d="M476.71,178.51h-5.62l6.52-12.18-8.4-15.08H475l5.33,10.08,5.08-10.08h5.66Z"/><path class="cls-1" d="M510,175.44a9.67,9.67,0,0,1-7.54,3.11c-4.55,0-8.94-2.62-9.43-7.46h5.37a4,4,0,0,0,4.22,3.24c3.12,0,4.39-2.17,4.39-5v-2.67a7.37,7.37,0,0,1-6,2.95c-5.25,0-8.44-4.22-8.44-9.22s3.28-9.68,8.69-9.68a6.65,6.65,0,0,1,5.74,2.87v-2.29h5v17.09C512,171.13,511.85,173.22,510,175.44Zm-7.34-20.3a5,5,0,1,0,5,5A5,5,0,0,0,502.62,155.14Z"/><path class="cls-1" d="M533.21,175.44a9.7,9.7,0,0,1-7.55,3.11c-4.55,0-8.93-2.62-9.43-7.46h5.37a4,4,0,0,0,4.23,3.24c3.11,0,4.38-2.17,4.38-5v-2.67a7.36,7.36,0,0,1-6,2.95c-5.25,0-8.45-4.22-8.45-9.22s3.28-9.68,8.69-9.68a6.63,6.63,0,0,1,5.74,2.87v-2.29h5v17.09C535.22,171.13,535.09,173.22,533.21,175.44Zm-7.34-20.3a5,5,0,1,0,5,5A5,5,0,0,0,525.87,155.14Z"/><path class="cls-1" d="M552.11,169v-9.72c0-2.46-.53-4.38-3.4-4.38-3.08,0-3.78,2.37-3.78,5V169h-5V138.29h5v15.25a6.49,6.49,0,0,1,5.58-2.87,6.8,6.8,0,0,1,5.17,2.18c1.27,1.47,1.39,3.15,1.39,5V169Z"/><path class="cls-1" d="M566,160.92c.08,2.75,1.39,4.76,4.34,4.76a4.66,4.66,0,0,0,4.23-2.38l4.59.74c-1.56,3.81-4.72,5.53-8.74,5.53-5.74,0-9.51-3.69-9.51-9.47s3.61-9.43,9.31-9.43c5.86,0,9.06,3.94,9.06,9.6v.65Zm4.3-6.72a4,4,0,0,0-4.14,3.57h8.41A4.12,4.12,0,0,0,570.27,154.2Z"/><path class="cls-1" d="M588.06,155.51V169h-5V155.51h-2v-4.26h2v-6.07h5v6.07h3.49v4.26Z"/><path class="cls-1" d="M599.79,169.57a9.41,9.41,0,0,1-6.76-2.95l2.62-3a5.77,5.77,0,0,0,4.18,2.09,2.1,2.1,0,0,0,2.26-2c0-3-7.92-1.52-7.92-7.5,0-3.61,3-5.62,6.36-5.62a9.16,9.16,0,0,1,5.78,1.89l-2.46,2.91a4.94,4.94,0,0,0-3-1.19c-.86,0-1.89.53-1.89,1.52,0,2.58,8.2,1.43,8.2,7.5C607.21,167.36,603.6,169.57,599.79,169.57Z"/><path class="cls-1" d="M627.22,175.44a9.7,9.7,0,0,1-7.55,3.11c-4.55,0-8.93-2.62-9.42-7.46h5.37a4,4,0,0,0,4.22,3.24c3.12,0,4.39-2.17,4.39-5v-2.67a7.39,7.39,0,0,1-6,2.95c-5.25,0-8.45-4.22-8.45-9.22s3.28-9.68,8.7-9.68a6.65,6.65,0,0,1,5.74,2.87v-2.29h5v17.09C629.23,171.13,629.11,173.22,627.22,175.44Zm-7.34-20.3a5,5,0,1,0,5,5A5,5,0,0,0,619.88,155.14Z"/><path class="cls-1" d="M647.55,169v-2.34a6.84,6.84,0,0,1-5.78,2.91c-5.33,0-8.73-4.42-8.73-9.51s3.4-9.39,8.61-9.39a7.39,7.39,0,0,1,5.9,2.83v-2.25h5V169Zm-4.42-13.86a5,5,0,1,0,5,5A5,5,0,0,0,643.13,155.14Z"/><path class="cls-1" d="M668.92,155.76a4.44,4.44,0,0,0-2.38-.62c-3.37,0-4.27,2.38-4.27,5.33V169h-5V151.25h5v2.66a5.71,5.71,0,0,1,5.17-3.24,5.81,5.81,0,0,1,2.17.41Z"/><path class="cls-1" d="M685.64,169v-2.34a6.84,6.84,0,0,1-5.78,2.91c-5.33,0-8.73-4.42-8.73-9.51s3.4-9.39,8.61-9.39a7.41,7.41,0,0,1,5.9,2.83v-2.25h5V169Zm-4.43-13.86a5,5,0,1,0,5,5A5,5,0,0,0,681.21,155.14Z"/><path class="cls-1" d="M707.54,169v-9.84c0-2.42-.54-4.26-3.37-4.26-3.07,0-3.81,2.25-3.81,4.92V169h-5V151.25h5v2.17c1.64-1.89,3-2.75,5.58-2.75a6.83,6.83,0,0,1,5.16,2.13c1.27,1.48,1.4,3.08,1.4,4.93V169Z"/><path class="cls-1" d="M722.25,155.51V169h-5V155.51h-2v-4.26h2v-6.07h5v6.07h3.49v4.26Z"/><path class="cls-1" d="M730.74,146.74a3,3,0,0,1,0-6,3,3,0,0,1,0,6ZM728.24,169V151.25h5V169Z"/><path class="cls-1" d="M740.62,169.53a3.2,3.2,0,1,1,3.2-3.2A3.2,3.2,0,0,1,740.62,169.53Zm-2.54-8.36V141.65h5.08v19.52Z"/></svg>