<svg id="Layer_1" data-name="Layer 1" xmlns="http://www.w3.org/2000/svg" viewBox="0 0 980 240"><defs><style>.cls-1{fill:#d80201;}</style></defs><title>text</title><path class="cls-1" d="M335.57,109V79h5.85v24.93h9.23V109Z"/><path class="cls-1" d="M358.39,100.16c.09,3,1.53,5.22,4.77,5.22a5.1,5.1,0,0,0,4.63-2.61l5,.81c-1.71,4.18-5.17,6.07-9.58,6.07-6.3,0-10.44-4.05-10.44-10.39s4-10.35,10.21-10.35c6.44,0,9.94,4.32,9.94,10.53v.72Zm4.72-7.38a4.42,4.42,0,0,0-4.54,3.91h9.22A4.51,4.51,0,0,0,363.11,92.78Z"/><path class="cls-1" d="M382.64,94.22V109H377.2V94.22H375V89.54h2.16V82.88h5.44v6.66h3.82v4.68Z"/><path class="cls-1" d="M398.25,86.12l-2.56-1.8,5.35-6.8L405,80Z"/><path class="cls-1" d="M418,109.65a10.37,10.37,0,0,1-7.43-3.24l2.88-3.33a6.34,6.34,0,0,0,4.59,2.3,2.3,2.3,0,0,0,2.48-2.16c0-3.33-8.69-1.67-8.69-8.24,0-4,3.29-6.16,7-6.16a10,10,0,0,1,6.34,2.07l-2.7,3.19a5.4,5.4,0,0,0-3.24-1.3c-.94,0-2.07.58-2.07,1.66,0,2.84,9,1.58,9,8.24C426.15,107.22,422.19,109.65,418,109.65Z"/><path class="cls-1" d="M453.11,109.65a7.67,7.67,0,0,1-6.39-3.19V109h-5.45V75.32h5.45V92c1.93-2,3.69-3.1,6.52-3.1,5.72,0,9.5,4.86,9.5,10.3S459,109.65,453.11,109.65Zm-1.49-15.84a5.47,5.47,0,1,0,5.45,5.45A5.44,5.44,0,0,0,451.62,93.81Z"/><path class="cls-1" d="M471.42,100.16c.09,3,1.53,5.22,4.77,5.22a5.13,5.13,0,0,0,4.64-2.61l5,.81c-1.71,4.18-5.18,6.07-9.59,6.07-6.3,0-10.44-4.05-10.44-10.39s4-10.35,10.22-10.35c6.43,0,9.94,4.32,9.94,10.53v.72Zm4.73-7.38a4.42,4.42,0,0,0-4.55,3.91h9.23A4.52,4.52,0,0,0,476.15,92.78Z"/><path class="cls-1" d="M507.06,94.22V109h-5.44V94.22H499.5V89.54h2.12V83.28a9.57,9.57,0,0,1,.85-4.59,7.71,7.71,0,0,1,6.75-3.91,6.41,6.41,0,0,1,2.88.67v5a5.35,5.35,0,0,0-2.47-.72c-2.43,0-2.57,2.52-2.57,4.36v5.45h5v4.68Z"/><path class="cls-1" d="M527.36,94.49a4.79,4.79,0,0,0-2.61-.68c-3.69,0-4.68,2.61-4.68,5.85V109h-5.45V89.54h5.45v2.92a6.26,6.26,0,0,1,5.67-3.55,6.14,6.14,0,0,1,2.38.45Z"/><path class="cls-1" d="M533.48,84.59a3.29,3.29,0,1,1,0-6.57,3.29,3.29,0,0,1,0,6.57ZM530.73,109V89.54h5.45V109Z"/><path class="cls-1" d="M545.85,100.16c.09,3,1.53,5.22,4.77,5.22a5.13,5.13,0,0,0,4.64-2.61l5,.81c-1.71,4.18-5.18,6.07-9.59,6.07-6.3,0-10.44-4.05-10.44-10.39s4-10.35,10.22-10.35c6.43,0,9.94,4.32,9.94,10.53v.72Zm4.73-7.38A4.42,4.42,0,0,0,546,96.69h9.23A4.52,4.52,0,0,0,550.58,92.78Z"/><path class="cls-1" d="M577.94,109V98.22c0-2.65-.59-4.68-3.69-4.68-3.38,0-4.19,2.48-4.19,5.4V109h-5.44V89.54h5.44v2.38c1.8-2.07,3.33-3,6.12-3a7.47,7.47,0,0,1,5.67,2.34c1.4,1.62,1.53,3.37,1.53,5.4V109Z"/><path class="cls-1" d="M603.5,109v-2.56a7.55,7.55,0,0,1-6.35,3.19c-5.85,0-9.58-4.86-9.58-10.44s3.73-10.3,9.45-10.3A8.14,8.14,0,0,1,603.5,92V75.32H609V109Zm-4.86-15.21a5.47,5.47,0,1,0,5.44,5.45A5.44,5.44,0,0,0,598.64,93.81Z"/><path class="cls-1" d="M620.42,109.65a10.37,10.37,0,0,1-7.43-3.24l2.88-3.33a6.34,6.34,0,0,0,4.59,2.3,2.3,2.3,0,0,0,2.48-2.16c0-3.33-8.69-1.67-8.69-8.24,0-4,3.29-6.16,7-6.16a10,10,0,0,1,6.34,2.07l-2.7,3.19a5.4,5.4,0,0,0-3.24-1.3c-.94,0-2.07.58-2.07,1.66,0,2.84,9,1.58,9,8.24C628.56,107.22,624.6,109.65,620.42,109.65Z"/><path class="cls-1" d="M331.72,152v-4.59h10.13V152Z"/><path class="cls-1" d="M367.54,160.65a7.68,7.68,0,0,1-6.39-3.19V160h-5.44v-33.7h5.44V143c1.94-2,3.69-3.1,6.53-3.1,5.71,0,9.49,4.86,9.49,10.3S373.39,160.65,367.54,160.65Zm-1.48-15.84a5.47,5.47,0,1,0,5.44,5.45A5.44,5.44,0,0,0,366.06,144.81Z"/><path class="cls-1" d="M391.44,160.65c-6.21,0-11.16-3.87-11.16-10.35s5-10.39,11.2-10.39,11.07,3.91,11.07,10.35S397.6,160.65,391.44,160.65Zm-.05-15.84a5.47,5.47,0,1,0,5.54,5.49A5.52,5.52,0,0,0,391.39,144.81Z"/><path class="cls-1" d="M420.1,160l-7.33-8.37-.59.59V160h-5.44v-33.7h5.44v21.33l7.29-7.11h7.38l-9.13,8.55L427.57,160Z"/><path class="cls-1" d="M443.86,160v-2.56a7.53,7.53,0,0,1-6.34,3.19c-5.85,0-9.59-4.86-9.59-10.44s3.74-10.3,9.45-10.3a8.12,8.12,0,0,1,6.48,3.1v-2.47h5.49V160ZM439,144.81a5.47,5.47,0,1,0,5.45,5.45A5.44,5.44,0,0,0,439,144.81Z"/><path class="cls-1" d="M490.71,160V149.36c0-2.3-.36-4.82-3.24-4.82-3.2,0-3.74,2.93-3.74,5.49v10h-5.44V149.67a8.58,8.58,0,0,0-.41-3.24,3.14,3.14,0,0,0-2.92-1.89,3.54,3.54,0,0,0-3.06,1.76,8,8,0,0,0-.63,3.73v10h-5.45V140.54h5.45v2.2a7.49,7.49,0,0,1,5.94-2.83,6.61,6.61,0,0,1,6.07,3.55,7.2,7.2,0,0,1,6.39-3.55,6.4,6.4,0,0,1,5.45,2.79,8.55,8.55,0,0,1,1,4.72V160Z"/><path class="cls-1" d="M511.5,160.65c-6.21,0-11.16-3.87-11.16-10.35s5-10.39,11.2-10.39,11.07,3.91,11.07,10.35S517.66,160.65,511.5,160.65Zm-4.73-23.76a3.24,3.24,0,0,1,0-6.48,3.24,3.24,0,1,1,0,6.48Zm4.68,7.92A5.47,5.47,0,1,0,517,150.3,5.52,5.52,0,0,0,511.45,144.81Zm4.68-7.92a3.29,3.29,0,0,1-3.24-3.24,3.24,3.24,0,1,1,3.24,3.24Z"/><path class="cls-1" d="M532.29,145.22V160h-5.45v-14.8h-2.16v-4.68h2.16v-6.66h5.45v6.66h3.82v4.68Z"/><path class="cls-1" d="M543.49,151.16c.09,3,1.53,5.22,4.77,5.22a5.13,5.13,0,0,0,4.64-2.61l5,.81c-1.71,4.18-5.17,6.07-9.58,6.07-6.3,0-10.44-4.05-10.44-10.39s4-10.35,10.22-10.35c6.43,0,9.94,4.32,9.94,10.53v.72Zm4.72-7.38a4.42,4.42,0,0,0-4.54,3.91h9.23A4.52,4.52,0,0,0,548.21,143.78Z"/><path class="cls-1" d="M586.82,160v-10.8c0-2.65-.58-4.68-3.69-4.68-3.37,0-4.18,2.48-4.18,5.4V160H573.5V140.54H579v2.38c1.8-2.07,3.33-3,6.12-3a7.48,7.48,0,0,1,5.67,2.34c1.39,1.62,1.53,3.37,1.53,5.4V160Z"/><path class="cls-1" d="M606.89,160.65c-5.35,0-9.4-2.38-9.4-8.19V140.54h5.44v11c0,2.66,1.13,4.46,4,4.46s4-1.8,4-4.46v-11h5.49v11.92C616.34,158.27,612.25,160.65,606.89,160.65Z"/><path class="cls-1" d="M624.58,160.6a3.51,3.51,0,1,1,3.51-3.5A3.51,3.51,0,0,1,624.58,160.6Zm-2.79-9.17V130h5.58v21.42Z"/></svg>