<svg id="Layer_1" data-name="Layer 1" xmlns="http://www.w3.org/2000/svg" viewBox="0 0 980 240"><defs><style>.cls-1{fill:#d80201;}</style></defs><title>text</title><path class="cls-1" d="M297.08,132l-10-12.56-.63.63V132H281V104h5.46v11.85L296.74,104h6.89l-11.85,12.94L304.26,132Z"/><path class="cls-1" d="M316.4,132.61c-5.8,0-10.42-3.62-10.42-9.67s4.62-9.7,10.46-9.7,10.33,3.66,10.33,9.66S322.15,132.61,316.4,132.61ZM312,110.43a3,3,0,1,1,0-6.05,3,3,0,0,1,0,6.05Zm4.36,7.39a5.11,5.11,0,1,0,5.17,5.12A5.14,5.14,0,0,0,316.35,117.82Zm4.37-7.39a3.07,3.07,0,0,1-3-3,3,3,0,1,1,3,3Z"/><path class="cls-1" d="M341.85,132.61a7.27,7.27,0,0,1-6.09-3v12.1h-5.09V113.83h5.09v2.31a7.25,7.25,0,0,1,6-2.9c5.42,0,9,4.5,9,9.7S347.18,132.61,341.85,132.61Zm-1.51-14.79a5.11,5.11,0,1,0,5.08,5.08A5.08,5.08,0,0,0,340.34,117.82Z"/><path class="cls-1" d="M377.51,132V121.94c0-2.48-.55-4.37-3.45-4.37-3.15,0-3.91,2.31-3.91,5V132h-5.08V113.83h5.08v2.23c1.68-1.94,3.11-2.82,5.72-2.82a7,7,0,0,1,5.29,2.19c1.3,1.51,1.43,3.15,1.43,5V132Z"/><path class="cls-1" d="M396.24,132.61c-5,0-8.78-2.23-8.78-7.65V113.83h5.08v10.29c0,2.48,1,4.16,3.7,4.16s3.69-1.68,3.69-4.16V113.83h5.13V125C405.06,130.38,401.24,132.61,396.24,132.61Z"/><path class="cls-1" d="M443.66,132v-10c0-2.14-.34-4.49-3-4.49-3,0-3.48,2.73-3.48,5.12V132h-5.09v-9.66a8.08,8.08,0,0,0-.38-3,2.94,2.94,0,0,0-2.73-1.76,3.3,3.3,0,0,0-2.85,1.64,7.47,7.47,0,0,0-.59,3.48V132h-5.08V113.83h5.08v2.06a7,7,0,0,1,5.54-2.65,6.2,6.2,0,0,1,5.68,3.32,6.72,6.72,0,0,1,6-3.32,6,6,0,0,1,5.08,2.61,8,8,0,0,1,1,4.41V132Z"/><path class="cls-1" d="M457.85,123.74c.08,2.82,1.43,4.88,4.45,4.88a4.77,4.77,0,0,0,4.33-2.44l4.7.76c-1.59,3.9-4.83,5.67-8.94,5.67-5.89,0-9.75-3.78-9.75-9.71s3.7-9.66,9.54-9.66c6,0,9.28,4,9.28,9.83v.67Zm4.41-6.89a4.13,4.13,0,0,0-4.24,3.66h8.61A4.23,4.23,0,0,0,462.26,116.85Z"/><path class="cls-1" d="M489.27,132v-2.4a7,7,0,0,1-5.93,3c-5.46,0-8.94-4.54-8.94-9.75s3.48-9.62,8.82-9.62a7.59,7.59,0,0,1,6,2.9V100.56h5.12V132Zm-4.54-14.2a5.11,5.11,0,1,0,5.08,5.08A5.07,5.07,0,0,0,484.73,117.82Z"/><path class="cls-1" d="M514.88,118.2V132H509.8V118.2h-2v-4.37h2v-6.22h5.08v6.22h3.57v4.37Z"/><path class="cls-1" d="M533,118.45a4.52,4.52,0,0,0-2.44-.63c-3.44,0-4.37,2.44-4.37,5.46V132H521.1V113.83h5.08v2.73a5.85,5.85,0,0,1,5.29-3.32,5.92,5.92,0,0,1,2.23.42Z"/><path class="cls-1" d="M542.64,141.76h-5.75l6.68-12.47L535,113.83h5.92l5.46,10.33,5.21-10.33h5.8Z"/><path class="cls-1" d="M576.71,138.61a9.91,9.91,0,0,1-7.73,3.2c-4.66,0-9.16-2.69-9.66-7.65h5.5a4.05,4.05,0,0,0,4.33,3.32c3.19,0,4.49-2.23,4.49-5.17v-2.73a7.54,7.54,0,0,1-6.13,3c-5.38,0-8.66-4.33-8.66-9.46s3.37-9.91,8.91-9.91a6.83,6.83,0,0,1,5.88,2.94v-2.35h5.13v17.52C578.77,134.2,578.64,136.35,576.71,138.61Zm-7.52-20.79a5.11,5.11,0,1,0,5.08,5.08A5.07,5.07,0,0,0,569.19,117.82Z"/><path class="cls-1" d="M600.52,138.61a9.91,9.91,0,0,1-7.73,3.2c-4.66,0-9.16-2.69-9.66-7.65h5.5a4.05,4.05,0,0,0,4.33,3.32c3.19,0,4.5-2.23,4.5-5.17v-2.73a7.57,7.57,0,0,1-6.14,3c-5.37,0-8.65-4.33-8.65-9.46s3.36-9.91,8.9-9.91a6.84,6.84,0,0,1,5.89,2.94v-2.35h5.12v17.52C602.58,134.2,602.45,136.35,600.52,138.61ZM593,117.82a5.11,5.11,0,1,0,5.08,5.08A5.07,5.07,0,0,0,593,117.82Z"/><path class="cls-1" d="M619.88,132v-10c0-2.52-.54-4.49-3.48-4.49-3.15,0-3.87,2.43-3.87,5.12V132h-5.08V100.56h5.08v15.62a6.64,6.64,0,0,1,5.71-2.94,7,7,0,0,1,5.3,2.23c1.3,1.51,1.42,3.23,1.42,5.12V132Z"/><path class="cls-1" d="M634.08,123.74c.08,2.82,1.42,4.88,4.45,4.88a4.77,4.77,0,0,0,4.33-2.44l4.7.76c-1.6,3.9-4.83,5.67-8.95,5.67-5.88,0-9.74-3.78-9.74-9.71s3.69-9.66,9.53-9.66c6,0,9.29,4,9.29,9.83v.67Zm4.41-6.89a4.14,4.14,0,0,0-4.25,3.66h8.62A4.23,4.23,0,0,0,638.49,116.85Z"/><path class="cls-1" d="M656.71,118.2V132h-5.08V118.2h-2v-4.37h2v-6.22h5.08v6.22h3.57v4.37Z"/><path class="cls-1" d="M668.73,132.61a9.7,9.7,0,0,1-6.94-3l2.69-3.11a5.92,5.92,0,0,0,4.29,2.15,2.15,2.15,0,0,0,2.31-2c0-3.11-8.11-1.55-8.11-7.69,0-3.69,3.07-5.75,6.51-5.75a9.42,9.42,0,0,1,5.93,1.93l-2.53,3a5.08,5.08,0,0,0-3-1.22c-.88,0-1.93.55-1.93,1.56,0,2.64,8.4,1.47,8.4,7.69C676.33,130.34,672.63,132.61,668.73,132.61Z"/><path class="cls-1" d="M696.83,138.61a9.94,9.94,0,0,1-7.73,3.2c-4.67,0-9.16-2.69-9.67-7.65h5.51a4,4,0,0,0,4.32,3.32c3.2,0,4.5-2.23,4.5-5.17v-2.73a7.55,7.55,0,0,1-6.13,3c-5.38,0-8.66-4.33-8.66-9.46s3.36-9.91,8.91-9.91a6.84,6.84,0,0,1,5.88,2.94v-2.35h5.12v17.52C698.88,134.2,698.76,136.35,696.83,138.61Zm-7.52-20.79a5.11,5.11,0,1,0,5.08,5.08A5.08,5.08,0,0,0,689.31,117.82Z"/><path class="cls-1" d="M717.66,132v-2.4a7,7,0,0,1-5.93,3c-5.46,0-8.94-4.54-8.94-9.75s3.48-9.62,8.82-9.62a7.59,7.59,0,0,1,6,2.9v-2.31h5.12V132Zm-4.54-14.2a5.11,5.11,0,1,0,5.08,5.08A5.07,5.07,0,0,0,713.12,117.82Z"/><path class="cls-1" d="M739.54,118.45a4.52,4.52,0,0,0-2.44-.63c-3.44,0-4.37,2.44-4.37,5.46V132h-5.08V113.83h5.08v2.73a5.93,5.93,0,0,1,7.52-2.9Z"/><path class="cls-1" d="M756.67,132v-2.4a7,7,0,0,1-5.92,3c-5.46,0-9-4.54-9-9.75s3.49-9.62,8.82-9.62a7.59,7.59,0,0,1,6,2.9v-2.31h5.13V132Zm-4.53-14.2a5.11,5.11,0,1,0,5.08,5.08A5.08,5.08,0,0,0,752.14,117.82Z"/><path class="cls-1" d="M779.1,132V121.94c0-2.48-.55-4.37-3.44-4.37-3.16,0-3.91,2.31-3.91,5V132h-5.08V113.83h5.08v2.23c1.68-1.94,3.11-2.82,5.71-2.82a7,7,0,0,1,5.29,2.19c1.31,1.51,1.43,3.15,1.43,5V132Z"/><path class="cls-1" d="M794.18,118.2V132h-5.09V118.2h-2v-4.37h2v-6.22h5.09v6.22h3.57v4.37Z"/><path class="cls-1" d="M802.87,109.21a3.07,3.07,0,1,1,0-6.13,3.07,3.07,0,0,1,0,6.13ZM800.31,132V113.83h5.08V132Z"/><path class="cls-1" d="M813,132.56a3.28,3.28,0,1,1,3.28-3.27A3.28,3.28,0,0,1,813,132.56Zm-2.6-8.56V104h5.21v20Z"/></svg>