<svg id="Layer_1" data-name="Layer 1" xmlns="http://www.w3.org/2000/svg" viewBox="0 0 980 240"><defs><style>.cls-1{fill:#d80201;}</style></defs><title>text</title><path class="cls-1" d="M509.52,81.62c-8.07,0-14.59-6-14.59-14.23a14.62,14.62,0,1,1,14.59,14.23Zm0-23.7a9.43,9.43,0,1,0,9.15,9.39A9.28,9.28,0,0,0,509.52,57.92Zm-4.59-7.26A3,3,0,0,1,502,47.71a2.95,2.95,0,1,1,2.95,2.95Zm9.19,0a3,3,0,0,1-3-2.95,3,3,0,1,1,3,2.95Z"/><path class="cls-1" d="M539.21,81.58a7.12,7.12,0,0,1-6-2.91v11.8h-5V63.25h5V65.5a7.08,7.08,0,0,1,5.82-2.82c5.29,0,8.78,4.38,8.78,9.47S544.41,81.58,539.21,81.58Zm-1.48-14.44a5,5,0,1,0,5,5A5,5,0,0,0,537.73,67.14Z"/><path class="cls-1" d="M562.54,81.58a7.12,7.12,0,0,1-5.95-2.91v11.8h-5V63.25h5V65.5a7.08,7.08,0,0,1,5.82-2.82c5.29,0,8.78,4.38,8.78,9.47S567.74,81.58,562.54,81.58Zm-1.48-14.44a5,5,0,1,0,5,5A5,5,0,0,0,561.06,67.14Z"/><path class="cls-1" d="M579.1,72.93c.08,2.74,1.39,4.75,4.35,4.75a4.66,4.66,0,0,0,4.22-2.38l4.59.74c-1.56,3.81-4.72,5.54-8.73,5.54-5.74,0-9.52-3.69-9.52-9.47s3.61-9.43,9.31-9.43c5.86,0,9.06,3.93,9.06,9.59v.66Zm4.3-6.73a4,4,0,0,0-4.14,3.57h8.41A4.12,4.12,0,0,0,583.4,66.2Z"/><path class="cls-1" d="M601.2,67.51V81h-5V67.51h-2V63.25h2V57.18h5v6.07h3.48v4.26Z"/><path class="cls-1" d="M629.69,81,623,73.38l-.53.53V81h-5V50.29h5V69.73l6.64-6.48h6.72L627.52,71l9,10Z"/><path class="cls-1" d="M647.94,81.58c-5.66,0-10.17-3.53-10.17-9.43s4.51-9.47,10.21-9.47,10.08,3.56,10.08,9.43S653.55,81.58,647.94,81.58Zm-4.31-21.65a3,3,0,0,1,0-5.91,3,3,0,0,1,0,5.91Zm4.27,7.21a5,5,0,1,0,5,5A5,5,0,0,0,647.9,67.14Zm4.26-7.21a3,3,0,0,1-2.95-3,3,3,0,1,1,2.95,3Z"/><path class="cls-1" d="M672.78,81.58a7.12,7.12,0,0,1-5.94-2.91v11.8h-5V63.25h5V65.5a7.08,7.08,0,0,1,5.82-2.82c5.29,0,8.77,4.38,8.77,9.47S678,81.58,672.78,81.58Zm-1.47-14.44a5,5,0,1,0,5,5A5,5,0,0,0,671.31,67.14Z"/><path class="cls-1" d="M511.9,119.46c-2.66,2.87-6.84,2.42-10.41,2.42V132h-5.33V104.66h7.95c2.71,0,5.09.2,7.22,2.09a8.73,8.73,0,0,1,2.79,6.6A9,9,0,0,1,511.9,119.46Zm-4.67-9.31c-1-.82-2.63-.86-3.9-.86h-1.84v7.95h2.17c2.67,0,5-.86,5-3.93A4.07,4.07,0,0,0,507.23,110.15Z"/><path class="cls-1" d="M528.92,118.76a4.42,4.42,0,0,0-2.38-.62c-3.36,0-4.27,2.38-4.27,5.33V132h-5V114.25h5v2.66a5.72,5.72,0,0,1,5.17-3.23,5.58,5.58,0,0,1,2.17.41Z"/><path class="cls-1" d="M534.49,109.74a3,3,0,1,1,3-3A3,3,0,0,1,534.49,109.74ZM532,132V114.25h5V132Z"/><path class="cls-1" d="M547.28,132.58a9.45,9.45,0,0,1-6.76-3l2.62-3a5.77,5.77,0,0,0,4.19,2.09,2.09,2.09,0,0,0,2.25-2c0-3-7.91-1.51-7.91-7.5,0-3.61,3-5.62,6.35-5.62a9.16,9.16,0,0,1,5.78,1.89l-2.46,2.91a4.91,4.91,0,0,0-3-1.19c-.86,0-1.89.53-1.89,1.52,0,2.58,8.21,1.43,8.21,7.5C554.71,130.36,551.1,132.58,547.28,132.58Z"/><path class="cls-1" d="M574.71,138.44a9.68,9.68,0,0,1-7.54,3.12c-4.55,0-8.94-2.63-9.43-7.47h5.37a3.94,3.94,0,0,0,4.22,3.24c3.12,0,4.39-2.17,4.39-5v-2.66a7.39,7.39,0,0,1-6,3c-5.24,0-8.44-4.23-8.44-9.23s3.28-9.67,8.69-9.67a6.67,6.67,0,0,1,5.74,2.86v-2.29h5v17.1C576.72,134.13,576.6,136.23,574.71,138.44Zm-7.34-20.3a5,5,0,1,0,5,5A5,5,0,0,0,567.37,118.14Z"/><path class="cls-1" d="M595.05,132v-2.33a6.88,6.88,0,0,1-5.78,2.91c-5.33,0-8.74-4.43-8.74-9.52s3.41-9.38,8.61-9.38a7.42,7.42,0,0,1,5.91,2.82v-2.25h5V132Zm-4.43-13.86a5,5,0,1,0,5,5A5,5,0,0,0,590.62,118.14Z"/><path class="cls-1" d="M616.41,118.76a4.42,4.42,0,0,0-2.38-.62c-3.36,0-4.26,2.38-4.26,5.33V132h-5V114.25h5v2.66a5.8,5.8,0,0,1,7.34-2.82Z"/><path class="cls-1" d="M633.14,132v-2.33a6.9,6.9,0,0,1-5.79,2.91c-5.33,0-8.73-4.43-8.73-9.52s3.4-9.38,8.61-9.38a7.42,7.42,0,0,1,5.91,2.82v-2.25h5V132Zm-4.43-13.86a5,5,0,1,0,5,5A5,5,0,0,0,628.71,118.14Z"/><path class="cls-1" d="M655,132v-9.84c0-2.42-.53-4.26-3.36-4.26-3.08,0-3.82,2.25-3.82,4.92V132h-5V114.25h5v2.17c1.64-1.88,3-2.74,5.58-2.74a6.8,6.8,0,0,1,5.17,2.13c1.27,1.47,1.39,3.07,1.39,4.92V132Z"/><path class="cls-1" d="M669.75,118.51V132h-5V118.51h-2v-4.26h2v-6.07h5v6.07h3.48v4.26Z"/><path class="cls-1" d="M678.23,109.74a3,3,0,1,1,3-3A3,3,0,0,1,678.23,109.74ZM675.73,132V114.25h5V132Z"/><path class="cls-1" d="M509.34,183h-9.19V155.66h6.77c2.21,0,4.92.2,6.68,1.64a7.29,7.29,0,0,1,2.46,5.61,5.74,5.74,0,0,1-3,5.5,6.19,6.19,0,0,1,3.57,1.72,7.36,7.36,0,0,1,2,5.12C518.6,180.71,514.26,183,509.34,183ZM507,160h-1.56v7.05H507c2.38,0,4.14-.94,4.14-3.52S509.42,160,507,160Zm.9,11.11h-2.46v7.59h2.3c2.62,0,5.33-.62,5.33-3.82C513.11,171.85,510.49,171.11,507.94,171.11Z"/><path class="cls-1" d="M526.89,174.93c.08,2.74,1.39,4.75,4.34,4.75a4.66,4.66,0,0,0,4.23-2.38l4.59.74c-1.56,3.81-4.72,5.54-8.74,5.54-5.74,0-9.51-3.69-9.51-9.47s3.61-9.43,9.31-9.43c5.86,0,9.06,3.93,9.06,9.59v.66Zm4.3-6.73a4,4,0,0,0-4.14,3.57h8.41A4.12,4.12,0,0,0,531.19,168.2Z"/><path class="cls-1" d="M549,169.51V183h-5V169.51h-2v-4.26h2v-6.07h5v6.07h3.49v4.26Z"/><path class="cls-1" d="M568.62,183v-2.33a6.87,6.87,0,0,1-5.78,2.91c-5.33,0-8.73-4.43-8.73-9.52s3.4-9.38,8.61-9.38a7.4,7.4,0,0,1,5.9,2.82v-2.25h5V183Zm-4.42-13.86a5,5,0,1,0,5,5A5,5,0,0,0,564.2,169.14Z"/><path class="cls-1" d="M578.38,183V152.29h5V183Z"/><path class="cls-1" d="M601.67,183v-2.33a6.88,6.88,0,0,1-5.78,2.91c-5.33,0-8.74-4.43-8.74-9.52s3.41-9.38,8.61-9.38a7.42,7.42,0,0,1,5.91,2.82v-2.25h5V183Zm-4.43-13.86a5,5,0,1,0,5,5A5,5,0,0,0,597.24,169.14Z"/><path class="cls-1" d="M627.33,183.58a9.45,9.45,0,0,1-6.76-3l2.62-3a5.77,5.77,0,0,0,4.19,2.09,2.09,2.09,0,0,0,2.25-2c0-3-7.91-1.51-7.91-7.5,0-3.61,3-5.62,6.35-5.62a9.16,9.16,0,0,1,5.78,1.89l-2.46,2.91a4.91,4.91,0,0,0-2.95-1.19c-.86,0-1.89.53-1.89,1.52,0,2.58,8.2,1.43,8.2,7.5C634.75,181.36,631.15,183.58,627.33,183.58Z"/><path class="cls-1" d="M642.42,174.93c.08,2.74,1.4,4.75,4.35,4.75A4.65,4.65,0,0,0,651,177.3l4.59.74c-1.55,3.81-4.71,5.54-8.73,5.54-5.74,0-9.51-3.69-9.51-9.47s3.61-9.43,9.31-9.43c5.86,0,9.06,3.93,9.06,9.59v.66Zm4.31-6.73a4,4,0,0,0-4.14,3.57H651A4.11,4.11,0,0,0,646.73,168.2Z"/><path class="cls-1" d="M671.65,183v-9.84c0-2.42-.53-4.26-3.36-4.26-3.07,0-3.81,2.25-3.81,4.92V183h-5V165.25h5v2.17c1.64-1.88,3-2.74,5.58-2.74a6.79,6.79,0,0,1,5.16,2.13c1.27,1.47,1.4,3.07,1.4,4.92V183Z"/></svg>