<svg id="Layer_1" data-name="Layer 1" xmlns="http://www.w3.org/2000/svg" viewBox="0 0 320 320"><defs><style>.cls-1{fill:#d4ac76;}</style></defs><title>text</title><path class="cls-1" d="M73.19,252.59l3.42-8.5h1.07l3.35,8.5H79.72l-.52-1.31H75l-.52,1.31Zm4-6.55-1.65,4.11h3.27Z"/><path class="cls-1" d="M85.66,252.7a3.89,3.89,0,0,1-1.59-.34,4.4,4.4,0,0,1-1.35-.91l.84-1a3.31,3.31,0,0,0,1,.78,2.57,2.57,0,0,0,1.18.31,1.63,1.63,0,0,0,1.09-.36,1.14,1.14,0,0,0,.43-.91,1.49,1.49,0,0,0-1.08-1.39l-1-.4a3.46,3.46,0,0,1-1.39-.91,2,2,0,0,1-.46-1.35,2.19,2.19,0,0,1,.7-1.61,2.45,2.45,0,0,1,1.74-.66,3.46,3.46,0,0,1,2.47.94l-.72,1a2.34,2.34,0,0,0-1.75-.77,1.32,1.32,0,0,0-.9.3,1,1,0,0,0-.35.79.91.91,0,0,0,.25.65,2.41,2.41,0,0,0,.87.53l1,.41a2.43,2.43,0,0,1,1.79,2.43,2.34,2.34,0,0,1-.75,1.79A2.9,2.9,0,0,1,85.66,252.7Z"/><path class="cls-1" d="M91.34,252.59v-8.5h1.19v4l3.54-4h1.6l-3,3.37,3.07,5.13H96.27l-2.47-4.15-1.27,1.43v2.72Z"/><path class="cls-1" d="M100.33,252.59v-8.5h1.19v8.5Z"/><path class="cls-1" d="M105,252.59v-8.5h1.22l2.74,4.53,2.79-4.53h1.16v8.5h-1.19v-6.28l0,0L109,250.68l-2.68-4.33h-.08v6.24Z"/><path class="cls-1" d="M121,252.59v-8.5h1.19v4l3.54-4h1.59l-3,3.37,3.08,5.13h-1.47l-2.48-4.15-1.26,1.43v2.72Z"/><path class="cls-1" d="M134.59,244.09H136l-2.83,5.08v3.42h-1.19v-3.38l-2.86-5.12h1.43l2.05,3.77Z"/><path class="cls-1" d="M138.38,252.59v-8.5h3.15a2.68,2.68,0,0,1,1.92.74,2.55,2.55,0,0,1,.77,1.92,2.52,2.52,0,0,1-.64,1.77,2.47,2.47,0,0,1-1.62.84l2.46,3.23H143l-2.44-3.24h-.94v3.24Zm3-7.37h-1.81v3.07h1.79a1.73,1.73,0,0,0,1.21-.42,1.43,1.43,0,0,0,.46-1.12,1.46,1.46,0,0,0-.47-1.09A1.67,1.67,0,0,0,141.38,245.22Z"/><path class="cls-1" d="M147.2,252.59v-8.5h1.19v4l3.54-4h1.59l-3,3.37,3.08,5.13h-1.47l-2.48-4.15-1.26,1.43v2.72Z"/><path class="cls-1" d="M158.68,252.59l-3.32-8.5h1.34l2.54,6.53,2.56-6.53h1.31l-3.33,8.5Z"/><path class="cls-1" d="M163.83,252.59l3.42-8.5h1.07l3.35,8.5h-1.32l-.51-1.31h-4.17l-.52,1.31Zm3.07-9.4a.56.56,0,0,1-.42.18.54.54,0,0,1-.42-.18.65.65,0,0,1-.17-.47.64.64,0,0,1,.17-.46.54.54,0,0,1,.42-.18.56.56,0,0,1,.42.18.65.65,0,0,1,.18.46A.66.66,0,0,1,166.9,243.19Zm.88,2.85-1.65,4.11h3.26Zm1.48-2.85a.58.58,0,0,1-.42.18.58.58,0,0,1-.43-.18.7.7,0,0,1-.17-.47.69.69,0,0,1,.17-.46.58.58,0,0,1,.43-.18.58.58,0,0,1,.42.18.69.69,0,0,1,.17.46A.7.7,0,0,1,169.26,243.19Z"/><path class="cls-1" d="M179.18,248.89v-1.13H182v.6a4.37,4.37,0,0,1-4.4,4.37,4.15,4.15,0,0,1-3.1-1.27,4.6,4.6,0,0,1,0-6.28,4.18,4.18,0,0,1,3.1-1.27,4.51,4.51,0,0,1,1.79.36,4.32,4.32,0,0,1,1.46,1l-.88.9A3,3,0,0,0,177.6,245a3,3,0,0,0-2.25,1,3.43,3.43,0,0,0,0,4.63,3,3,0,0,0,2.25,1,3,3,0,0,0,2-.74,3.22,3.22,0,0,0,1.08-2Z"/><path class="cls-1" d="M191.46,252.72a2.65,2.65,0,0,1-1.86-.72,2.38,2.38,0,0,1-.79-1.73H190a1.27,1.27,0,0,0,.44.93,1.45,1.45,0,0,0,1,.39,1.42,1.42,0,0,0,1.05-.41,1.36,1.36,0,0,0,.43-1,1.42,1.42,0,0,0-1.45-1.46H191v-1.06h.48a1.33,1.33,0,0,0,1-.39,1.32,1.32,0,0,0,0-1.89,1.37,1.37,0,0,0-1-.38,1.35,1.35,0,0,0-1,.39,1.3,1.3,0,0,0-.39,1H188.9a2.21,2.21,0,0,1,.74-1.7,2.6,2.6,0,0,1,1.83-.7,2.54,2.54,0,0,1,1.83.7,2.22,2.22,0,0,1,.74,1.7,1.93,1.93,0,0,1-.36,1.14,2.09,2.09,0,0,1-.94.72,2,2,0,0,1,1,.76,2.06,2.06,0,0,1,.37,1.23,2.44,2.44,0,0,1-.77,1.8A2.65,2.65,0,0,1,191.46,252.72Z"/><path class="cls-1" d="M199.14,252.72a2.89,2.89,0,0,1-1.72-.52,2.64,2.64,0,0,1-1-1.38l1.08-.42a1.72,1.72,0,0,0,3.36-.5,1.61,1.61,0,0,0-.5-1.2,1.69,1.69,0,0,0-1.2-.48,1.59,1.59,0,0,0-1.21.52h-1.19v-4.65h4.77v1.13h-3.58v2.29a2.24,2.24,0,0,1,1.21-.34,2.86,2.86,0,0,1,2.09.78,2.6,2.6,0,0,1,.79,2,2.7,2.7,0,0,1-.84,2A2.78,2.78,0,0,1,199.14,252.72Z"/><path class="cls-1" d="M203.46,254.15l1-2.72,1.09.38-1.34,2.62Z"/><path class="cls-1" d="M212.07,252.59l3.41-8.5h1.07l3.35,8.5h-1.31l-.52-1.31h-4.16l-.53,1.31ZM216,246l-1.65,4.11h3.27Z"/><path class="cls-1" d="M224.53,252.7a4,4,0,0,1-1.59-.34,4.24,4.24,0,0,1-1.34-.91l.83-1a3.31,3.31,0,0,0,1,.78,2.6,2.6,0,0,0,1.18.31,1.66,1.66,0,0,0,1.1-.36,1.16,1.16,0,0,0,.42-.91,1.49,1.49,0,0,0-1.07-1.39l-1-.4a3.54,3.54,0,0,1-1.39-.91,2,2,0,0,1-.45-1.35,2.15,2.15,0,0,1,.7-1.61,2.41,2.41,0,0,1,1.73-.66,3.44,3.44,0,0,1,2.47.94l-.71,1a2.37,2.37,0,0,0-1.76-.77,1.32,1.32,0,0,0-.9.3,1,1,0,0,0-.35.79.92.92,0,0,0,.26.65,2.36,2.36,0,0,0,.86.53l1,.41a2.42,2.42,0,0,1,1.79,2.43,2.34,2.34,0,0,1-.75,1.79A2.86,2.86,0,0,1,224.53,252.7Z"/><path class="cls-1" d="M230.21,252.59v-8.5h1.19v4l3.54-4h1.6l-3,3.37,3.08,5.13h-1.48l-2.47-4.15-1.27,1.43v2.72Z"/><path class="cls-1" d="M239.2,252.59v-8.5h1.19v8.5Z"/><path class="cls-1" d="M243.88,252.59v-8.5h1.22l2.74,4.53,2.78-4.53h1.17v8.5H250.6v-6.28l0,0-2.74,4.39-2.68-4.33h-.07v6.24Z"/><path class="cls-1" d="M69,265.7a3.89,3.89,0,0,1-1.59-.34,4.4,4.4,0,0,1-1.35-.91l.84-1a3.31,3.31,0,0,0,1,.78,2.57,2.57,0,0,0,1.18.31,1.63,1.63,0,0,0,1.09-.36,1.14,1.14,0,0,0,.43-.91,1.49,1.49,0,0,0-1.08-1.39l-1-.4a3.46,3.46,0,0,1-1.39-.91,2,2,0,0,1-.46-1.35,2.19,2.19,0,0,1,.7-1.61A2.45,2.45,0,0,1,69.1,257a3.46,3.46,0,0,1,2.47.94l-.72,1a2.34,2.34,0,0,0-1.75-.77,1.32,1.32,0,0,0-.9.3,1,1,0,0,0-.35.79.91.91,0,0,0,.25.65,2.41,2.41,0,0,0,.87.53l1,.41a2.42,2.42,0,0,1,1.79,2.43A2.34,2.34,0,0,1,71,265,2.88,2.88,0,0,1,69,265.7Z"/><path class="cls-1" d="M78.58,265.75a4.17,4.17,0,0,1-3.06-1.26,4.55,4.55,0,0,1,0-6.31,4.33,4.33,0,0,1,6.12,0,4.42,4.42,0,0,1-3.06,7.56Zm-2.22-2.09a3.08,3.08,0,0,0,4.45,0,3.24,3.24,0,0,0,.91-2.33A3.18,3.18,0,0,0,80.8,259a3,3,0,0,0-4.44,0,3.39,3.39,0,0,0,0,4.64Zm1.43-7.47a.58.58,0,0,1-.43.18.54.54,0,0,1-.42-.18.7.7,0,0,1-.17-.47.69.69,0,0,1,.17-.46.54.54,0,0,1,.42-.18.58.58,0,0,1,.43.18.69.69,0,0,1,.17.46A.7.7,0,0,1,77.79,256.19Zm2.35,0a.58.58,0,0,1-.84,0,.65.65,0,0,1-.17-.47.64.64,0,0,1,.17-.46.58.58,0,0,1,.84,0,.64.64,0,0,1,.17.46A.65.65,0,0,1,80.14,256.19Z"/><path class="cls-1" d="M85.89,265.59v-8.5h.83l4.6,5.86v-5.86h1.19v8.5h-.66l-4.77-6.07v6.07Z"/><path class="cls-1" d="M96.06,265.59v-8.5h2.28a4.22,4.22,0,0,1,4.21,4.23,4.17,4.17,0,0,1-4.25,4.27Zm2.33-7.37H97.25v6.24h1.17a2.79,2.79,0,0,0,2.1-.91,3.18,3.18,0,0,0,.85-2.23,3,3,0,0,0-.88-2.2A2.81,2.81,0,0,0,98.39,258.22Z"/><path class="cls-1" d="M104.24,265.59l3.41-8.5h1.08l3.35,8.5h-1.32l-.51-1.31h-4.17l-.53,1.31Zm4-6.55-1.65,4.11h3.26Z"/><path class="cls-1" d="M119.58,261.89v-1.13h2.83v.6a4.37,4.37,0,0,1-4.4,4.37,4.15,4.15,0,0,1-3.1-1.27,4.6,4.6,0,0,1,0-6.28,4.18,4.18,0,0,1,3.1-1.27,4.51,4.51,0,0,1,1.79.36,4.42,4.42,0,0,1,1.46,1l-.88.9A3,3,0,0,0,118,258a3,3,0,0,0-2.25,1,3.4,3.4,0,0,0,0,4.63,3,3,0,0,0,2.25,1,3,3,0,0,0,2-.74,3.21,3.21,0,0,0,1.07-2Z"/><path class="cls-1" d="M131.86,265.72A2.61,2.61,0,0,1,130,265a2.34,2.34,0,0,1-.79-1.73h1.19a1.2,1.2,0,0,0,.44.93,1.44,1.44,0,0,0,1,.39,1.42,1.42,0,0,0,1.06-.41,1.35,1.35,0,0,0,.42-1,1.4,1.4,0,0,0-1.45-1.46h-.48v-1.06h.47a1.34,1.34,0,0,0,1-.39,1.3,1.3,0,0,0,.4-.93,1.25,1.25,0,0,0-.4-1,1.38,1.38,0,0,0-1-.38,1.33,1.33,0,0,0-1,.39,1.3,1.3,0,0,0-.39.95h-1.19a2.24,2.24,0,0,1,.73-1.7,2.62,2.62,0,0,1,1.84-.7,2.54,2.54,0,0,1,1.83.7,2.21,2.21,0,0,1,.73,1.7,1.93,1.93,0,0,1-.36,1.14,2.06,2.06,0,0,1-.93.72,2,2,0,0,1,1,.76,2.06,2.06,0,0,1,.37,1.23,2.41,2.41,0,0,1-.78,1.8A2.63,2.63,0,0,1,131.86,265.72Z"/><path class="cls-1" d="M141.93,265.59v-8.5h4.65v1.13h-3.46v2.67h3.06V262h-3.06v3.56Z"/><path class="cls-1" d="M153.9,261.86h-3.49v2.6h3.74v1.13h-4.93v-8.5h4.86v1.13h-3.67v2.51h3.49Z"/><path class="cls-1" d="M157.09,265.59v-8.5h2.6a2.73,2.73,0,0,1,1.88.66,2.18,2.18,0,0,1,.74,1.71,2,2,0,0,1-1,1.83,2.18,2.18,0,0,1,.91.76,2,2,0,0,1,.34,1.15,2.21,2.21,0,0,1-.75,1.74,2.76,2.76,0,0,1-1.89.65Zm2.48-7.37h-1.29v2.59h1.51a1.31,1.31,0,0,0,1-.38,1.33,1.33,0,0,0,.38-1,1.07,1.07,0,0,0-.43-.89A1.7,1.7,0,0,0,159.57,258.22Zm.27,3.64h-1.56v2.6h1.48a1.78,1.78,0,0,0,1.17-.36,1.22,1.22,0,0,0,.43-1,1.18,1.18,0,0,0-.39-.91A1.66,1.66,0,0,0,159.84,261.86Z"/><path class="cls-1" d="M165.53,265.59v-8.5h3.16a2.66,2.66,0,0,1,1.91.74,2.55,2.55,0,0,1,.77,1.92,2.52,2.52,0,0,1-.64,1.77,2.47,2.47,0,0,1-1.62.84l2.46,3.23h-1.46l-2.45-3.24h-.94v3.24Zm3-7.37h-1.81v3.07h1.8a1.72,1.72,0,0,0,1.2-.42,1.55,1.55,0,0,0,0-2.21A1.66,1.66,0,0,0,168.53,258.22Z"/><path class="cls-1" d="M177.24,265.73a3,3,0,0,1-2.22-.89,3.07,3.07,0,0,1-.87-2.24v-5.51h1.19v5.44a2.16,2.16,0,0,0,.51,1.48,1.72,1.72,0,0,0,1.39.59,1.78,1.78,0,0,0,1.41-.58,2.15,2.15,0,0,0,.51-1.48v-5.45h1.19v5.51a3.07,3.07,0,0,1-.87,2.24A3,3,0,0,1,177.24,265.73Z"/><path class="cls-1" d="M182.4,265.59l3.42-8.5h1.07l3.35,8.5h-1.31l-.52-1.31h-4.17l-.52,1.31Zm3.95-6.55-1.65,4.11H188Z"/><path class="cls-1" d="M192.6,265.59v-8.5h3.16a2.66,2.66,0,0,1,1.91.74,2.51,2.51,0,0,1,.77,1.92,2.56,2.56,0,0,1-.63,1.77,2.52,2.52,0,0,1-1.63.84l2.46,3.23h-1.46l-2.44-3.24h-1v3.24Zm3-7.37h-1.81v3.07h1.8a1.72,1.72,0,0,0,1.2-.42,1.55,1.55,0,0,0,0-2.21A1.66,1.66,0,0,0,195.6,258.22Z"/><path class="cls-1" d="M201.42,265.59v-8.5h1.19v8.5Z"/><path class="cls-1" d="M210.69,265.59v-8.5h1.19v4l3.55-4H217l-3,3.37,3.08,5.13h-1.48l-2.47-4.15-1.27,1.43v2.72Z"/><path class="cls-1" d="M219.68,265.59v-8.5h1.19v7.37h3.5v1.13Z"/><path class="cls-1" d="M232.54,265.59v-7l-1.59.81v-1.13L233.2,257h.53v8.55Z"/><path class="cls-1" d="M236.47,265.59v-.75l3.4-4.48a1.76,1.76,0,0,0,.47-1.08,1.23,1.23,0,0,0-.37-.91,1.34,1.34,0,0,0-1-.37,1.19,1.19,0,0,0-.93.41,1.62,1.62,0,0,0-.39,1.08H236.5a2.53,2.53,0,0,1,.71-1.81A2.38,2.38,0,0,1,239,257a2.55,2.55,0,0,1,1.81.66,2.2,2.2,0,0,1,.71,1.67,3.06,3.06,0,0,1-.89,1.88L238,264.54h3.66v1Z"/><path class="cls-1" d="M244.06,261.88v-1.05h3.32v1.05Z"/><path class="cls-1" d="M250.6,265.59v-7l-1.59.81v-1.13l2.25-1.25h.53v8.55Z"/><path class="cls-1" d="M254.46,263.64v-.74l3-5.81h1.25l-2.8,5.5h1.84v-1.43h1.19v1.43h1v1.05h-1v1.95h-1.19v-1.95Z"/></svg>