<svg id="Layer_1" data-name="Layer 1" xmlns="http://www.w3.org/2000/svg" viewBox="0 0 320 320"><defs><style>.cls-1{fill:#d80201;}</style></defs><title>text</title><path class="cls-1" d="M60.27,143.58c-1.09,5.39-5.67,8.61-11.06,8.61-7.07,0-12.25-5-12.25-12.15a12,12,0,0,1,12.39-12.25,11.15,11.15,0,0,1,10,5.5l-4,2.13A6.83,6.83,0,0,0,49.31,132c-4.55,0-7.66,3.67-7.66,8.08s3.11,8,7.66,8c3,0,5.71-1.82,6.09-5H49.91v-3.92H60.62v.56A20.65,20.65,0,0,1,60.27,143.58Z"/><path class="cls-1" d="M64.15,151.67V125.45h4.24v26.22Z"/><path class="cls-1" d="M80.32,152.16c-4.83,0-8.68-3-8.68-8.06S75.49,136,80.36,136s8.61,3,8.61,8S85.12,152.16,80.32,152.16Zm-3.67-18.49a2.52,2.52,0,0,1,0-5,2.52,2.52,0,0,1,0,5Zm3.64,6.16a4.26,4.26,0,1,0,4.3,4.27A4.29,4.29,0,0,0,80.29,139.83Zm3.64-6.16a2.55,2.55,0,0,1-2.52-2.52,2.52,2.52,0,1,1,2.52,2.52Z"/><path class="cls-1" d="M111.58,151.67v-8.3c0-1.79-.28-3.75-2.52-3.75-2.49,0-2.91,2.28-2.91,4.28v7.77h-4.23v-8a6.71,6.71,0,0,0-.32-2.53,2.46,2.46,0,0,0-2.27-1.47A2.76,2.76,0,0,0,97,141a6.22,6.22,0,0,0-.49,2.91v7.77H92.22V136.51h4.24v1.71a5.82,5.82,0,0,1,4.62-2.2,5.14,5.14,0,0,1,4.72,2.76,5.6,5.6,0,0,1,5-2.76,5,5,0,0,1,4.24,2.17,6.65,6.65,0,0,1,.8,3.67v9.81Z"/><path class="cls-1" d="M124.14,140.15v11.52h-4.23V140.15h-1.68v-3.64h1.68v-5.18h4.23v5.18h3v3.64Z"/><path class="cls-1" d="M149.66,151.67v-2a5.86,5.86,0,0,1-4.94,2.49c-4.55,0-7.45-3.78-7.45-8.12s2.9-8,7.35-8a6.33,6.33,0,0,1,5,2.41v-1.92h4.27v15.16Zm-3.78-11.84a4.26,4.26,0,1,0,4.23,4.24A4.24,4.24,0,0,0,145.88,139.83Z"/><path class="cls-1" d="M162.26,140.15v11.52H158V140.15h-1.68v-3.64H158v-5.18h4.24v5.18h3v3.64Z"/><path class="cls-1" d="M171.71,140.15v11.52h-4.24V140.15h-1.68v-3.64h1.68v-5.18h4.24v5.18h3v3.64Z"/><path class="cls-1" d="M190,140.15v11.52h-4.24V140.15h-1.64v-3.64h1.64v-4.87a7.35,7.35,0,0,1,.67-3.57,6,6,0,0,1,5.25-3,5,5,0,0,1,2.24.52v3.89a4.14,4.14,0,0,0-1.92-.56c-1.89,0-2,2-2,3.39v4.24h3.92v3.64Z"/><path class="cls-1" d="M203.77,152.16c-4.83,0-8.69-3-8.69-8.06s3.86-8.08,8.72-8.08,8.61,3,8.61,8S208.56,152.16,203.77,152.16Zm0-12.33A4.26,4.26,0,1,0,208,144.1,4.29,4.29,0,0,0,203.73,139.83Z"/><path class="cls-1" d="M225.57,140.36a3.7,3.7,0,0,0-2-.53c-2.87,0-3.64,2-3.64,4.56v7.28h-4.24V136.51h4.24v2.27a4.87,4.87,0,0,1,4.41-2.76,4.77,4.77,0,0,1,1.86.35Z"/><path class="cls-1" d="M247.62,151.67v-8.3c0-1.79-.28-3.75-2.52-3.75-2.48,0-2.9,2.28-2.9,4.28v7.77H238v-8a6.71,6.71,0,0,0-.32-2.53,2.46,2.46,0,0,0-2.27-1.47A2.76,2.76,0,0,0,233,141a6.22,6.22,0,0,0-.49,2.91v7.77h-4.24V136.51h4.24v1.71a5.82,5.82,0,0,1,4.62-2.2,5.15,5.15,0,0,1,4.73,2.76,5.6,5.6,0,0,1,5-2.76,5,5,0,0,1,4.23,2.17,6.65,6.65,0,0,1,.81,3.67v9.81Z"/><path class="cls-1" d="M267.5,151.67v-2a5.86,5.86,0,0,1-4.94,2.49c-4.55,0-7.45-3.78-7.45-8.12s2.9-8,7.35-8a6.33,6.33,0,0,1,5,2.41v-1.92h4.27v15.16Zm-3.78-11.84a4.26,4.26,0,1,0,4.24,4.24A4.24,4.24,0,0,0,263.72,139.83Z"/><path class="cls-1" d="M38.08,188.67l-5.71-6.51-.45.45v6.06H27.68V162.45h4.24V179l5.67-5.53h5.74l-7.11,6.65,7.67,8.51Z"/><path class="cls-1" d="M45.78,188.67V162.45H50v26.22Z"/><path class="cls-1" d="M65.66,188.67v-2a5.86,5.86,0,0,1-4.94,2.49c-4.55,0-7.45-3.78-7.45-8.12s2.9-8,7.35-8a6.33,6.33,0,0,1,5,2.41v-1.92h4.27v15.16Zm-3.78-11.84a4.26,4.26,0,1,0,4.23,4.24A4.24,4.24,0,0,0,61.88,176.83Z"/><path class="cls-1" d="M83.89,177.36a3.7,3.7,0,0,0-2-.53c-2.87,0-3.64,2-3.64,4.56v7.28H74V173.51h4.23v2.28A4.86,4.86,0,0,1,82.63,173a5,5,0,0,1,1.86.35Z"/><path class="cls-1" d="M91.63,177.15v11.52H87.39V177.15H85.71v-3.64h1.68v-5.18h4.24v5.18h3v3.64Z"/><path class="cls-1" d="M117.14,188.67v-2a5.84,5.84,0,0,1-4.93,2.49c-4.55,0-7.46-3.78-7.46-8.12s2.91-8,7.35-8a6.32,6.32,0,0,1,5,2.41v-13h4.27v26.22Zm-3.78-11.84a4.26,4.26,0,1,0,4.24,4.24A4.23,4.23,0,0,0,113.36,176.83Z"/><path class="cls-1" d="M127.54,169.66a2.56,2.56,0,1,1,0-5.11,2.56,2.56,0,0,1,0,5.11Zm-2.14,19V173.51h4.24v15.16Z"/><path class="cls-1" d="M137.9,177.15v11.52h-4.24V177.15H132v-3.64h1.68v-5.18h4.24v5.18h3v3.64Z"/><path class="cls-1" d="M147.34,177.15v11.52h-4.23V177.15h-1.68v-3.64h1.68v-5.18h4.23v5.18h3v3.64Z"/><path class="cls-1" d="M171.63,188.67v-8.4c0-2.07-.45-3.64-2.87-3.64-2.62,0-3.25,1.92-3.25,4.2v7.84h-4.24V173.51h4.24v1.86a5.57,5.57,0,0,1,4.76-2.35,5.23,5.23,0,0,1,5.6,6v9.63Z"/><path class="cls-1" d="M183.57,196.79h-4.8l5.57-10.4-7.18-12.88h4.94l4.55,8.61,4.34-8.61h4.83Z"/><path class="cls-1" d="M208.63,188.67v-2a5.84,5.84,0,0,1-4.94,2.49c-4.55,0-7.45-3.78-7.45-8.12s2.9-8,7.35-8a6.32,6.32,0,0,1,5,2.41v-1.92h4.27v15.16Zm-3.78-11.84a4.26,4.26,0,1,0,4.23,4.24A4.24,4.24,0,0,0,204.85,176.83Z"/><path class="cls-1" d="M236.07,188.67v-8.3c0-2.1-.46-3.74-2.91-3.74-2.62,0-3.22,2-3.22,4.27v7.77h-4.23V162.45h4.23v13a5.55,5.55,0,0,1,4.77-2.45,5.78,5.78,0,0,1,4.41,1.86,6,6,0,0,1,1.19,4.27v9.52Z"/><path class="cls-1" d="M251.68,189.16c-4.17,0-7.32-1.86-7.32-6.37v-9.28h4.24v8.58c0,2.06.87,3.46,3.08,3.46s3.08-1.4,3.08-3.46v-8.58H259v9.28C259,187.3,255.84,189.16,251.68,189.16Z"/><path class="cls-1" d="M267.92,189.16a8.1,8.1,0,0,1-5.78-2.52l2.24-2.59a5,5,0,0,0,3.57,1.78,1.79,1.79,0,0,0,1.93-1.68c0-2.59-6.76-1.29-6.76-6.4,0-3.08,2.56-4.8,5.43-4.8a7.78,7.78,0,0,1,4.93,1.61l-2.1,2.48a4.26,4.26,0,0,0-2.52-1c-.73,0-1.61.46-1.61,1.3,0,2.2,7,1.22,7,6.4C274.25,187.27,271.17,189.16,267.92,189.16Z"/><path class="cls-1" d="M285.14,177.88v3h-4.31V174.7a7,7,0,0,0,1.23.14c2.13,0,4.41-1.09,4.41-3.5a2.64,2.64,0,0,0-2.7-2.7,2.48,2.48,0,0,0-2.52,2.49c0,.14,0,.28,0,.42h-4.55v-.42c0-3.82,3.57-6.27,7.14-6.27,3.74,0,7.07,2.7,7.07,6.58C291,175,288.36,177.12,285.14,177.88Zm-2.07,11.24a2.73,2.73,0,1,1,2.73-2.73A2.74,2.74,0,0,1,283.07,189.12Z"/></svg>