<svg id="Layer_1" data-name="Layer 1" xmlns="http://www.w3.org/2000/svg" viewBox="0 0 320 320"><defs><style>.cls-1{fill:#d80201;}.cls-2{fill:#fff;}</style></defs><title>text</title><rect class="cls-1" x="84" y="252" width="148.67" height="24" rx="12"/><path class="cls-2" d="M99.9,260.91V263h2.93v1.58H99.9v4.11H98.08v-9.35H103v1.59Z"/><path class="cls-2" d="M109.13,268.88a4.89,4.89,0,1,1,5-4.88A4.85,4.85,0,0,1,109.13,268.88Zm0-8.1a3.22,3.22,0,1,0,3.12,3.21A3.17,3.17,0,0,0,109.13,260.78Z"/><path class="cls-2" d="M120.37,268.67l-2.52-3.76h-.23v3.76H115.8v-9.35h2.71a3.86,3.86,0,0,1,2.38.68,2.72,2.72,0,0,1,.92,2.1,3.08,3.08,0,0,1-.53,1.71,2.43,2.43,0,0,1-1.6.92l2.94,3.94Zm-2.2-7.86h-.55v2.81h.52c.94,0,1.79-.33,1.79-1.41S119.11,260.81,118.17,260.81Z"/><path class="cls-2" d="M126.78,260.91v7.76H125v-7.76h-2.09v-1.59h6v1.59Z"/><path class="cls-2" d="M132.65,268.89a3.64,3.64,0,0,1-3.21-1.78l1.17-1.13a2.15,2.15,0,0,0,2,1.24,1.33,1.33,0,0,0,1.44-1.31c0-1.92-4.11-1-4.11-4a2.74,2.74,0,0,1,2.92-2.72,4.06,4.06,0,0,1,2.73,1l-.95,1.24a1.91,1.91,0,0,0-1.52-.75c-.6,0-1.3.38-1.3,1.05,0,1.58,4.11.8,4.11,4.06A3,3,0,0,1,132.65,268.89Z"/><path class="cls-2" d="M143.83,268.67l-.79-2h-3.82l-.85,2h-1.93l4.05-9.54h1.37l3.93,9.54Zm-4.28-10.37a1,1,0,0,1-1-1,1,1,0,0,1,2,0A1,1,0,0,1,139.55,258.3Zm1.61,3.56-1.36,3.36h2.67Zm1.52-3.56a1,1,0,0,1-1-1,1,1,0,1,1,1,1Z"/><path class="cls-2" d="M149.36,260.91v7.76h-1.82v-7.76h-2.09v-1.59h6v1.59Z"/><path class="cls-2" d="M155.56,260.91v7.76h-1.82v-7.76h-2.08v-1.59h6v1.59Z"/><path class="cls-2" d="M168.11,268.67v-4.16h-4v4.16h-1.82v-9.35h1.82v3.62h4v-3.62h1.82v9.35Z"/><path class="cls-2" d="M178.4,268.67l-.8-2h-3.81l-.85,2H171l4.05-9.54h1.37l3.94,9.54Zm-4.29-10.37a1,1,0,0,1-1-1,1,1,0,1,1,1,1Zm1.61,3.56-1.35,3.36H177Zm1.53-3.56a1,1,0,0,1-1-1,1,1,0,0,1,2,0A1,1,0,0,1,177.25,258.3Z"/><path class="cls-2" d="M186,268.67l-2.52-3.76h-.22v3.76h-1.82v-9.35h2.7a3.84,3.84,0,0,1,2.38.68,2.7,2.7,0,0,1,.93,2.1,3.09,3.09,0,0,1-.54,1.71,2.43,2.43,0,0,1-1.59.92l2.94,3.94Zm-2.19-7.86h-.55v2.81h.52c.94,0,1.79-.33,1.79-1.41S184.75,260.81,183.82,260.81Z"/><polygon class="cls-2" points="205 265.17 195.17 265.17 195.17 262.67 205 262.67 205 258.88 212 263.92 205 268.75 205 265.17"/></svg>