<svg id="Layer_1" data-name="Layer 1" xmlns="http://www.w3.org/2000/svg" viewBox="0 0 320 320"><defs><style>.cls-1{fill:#d80201;}</style></defs><title>text</title><path class="cls-1" d="M95.39,119c-2.28,2.45-5.85,2.06-8.89,2.06v8.65H82V106.32h6.79c2.31,0,4.34.17,6.16,1.78a7.44,7.44,0,0,1,2.38,5.64A7.7,7.7,0,0,1,95.39,119Zm-4-7.95a5.46,5.46,0,0,0-3.33-.74H86.5v6.8h1.85c2.28,0,4.24-.74,4.24-3.36A3.47,3.47,0,0,0,91.4,111Z"/><path class="cls-1" d="M109.91,118.36a3.78,3.78,0,0,0-2-.52c-2.87,0-3.64,2-3.64,4.55v7.28H100V114.51h4.23v2.28a4.86,4.86,0,0,1,4.41-2.77,5,5,0,0,1,1.86.35Z"/><path class="cls-1" d="M114.67,110.66a2.56,2.56,0,0,1,0-5.11,2.56,2.56,0,0,1,0,5.11Zm-2.13,19V114.51h4.23v15.16Z"/><path class="cls-1" d="M125.59,130.16a8.06,8.06,0,0,1-5.77-2.52l2.24-2.59a4.92,4.92,0,0,0,3.57,1.78,1.78,1.78,0,0,0,1.92-1.68c0-2.59-6.75-1.29-6.75-6.4,0-3.08,2.55-4.8,5.42-4.8a7.83,7.83,0,0,1,4.94,1.61l-2.1,2.49a4.26,4.26,0,0,0-2.52-1c-.74,0-1.61.46-1.61,1.3,0,2.2,7,1.22,7,6.4C131.93,128.27,128.85,130.16,125.59,130.16Z"/><path class="cls-1" d="M155.27,129.67v-2a5.84,5.84,0,0,1-4.93,2.49c-4.55,0-7.46-3.78-7.46-8.12s2.91-8,7.35-8a6.3,6.3,0,0,1,5,2.42v-13h4.27v26.22Zm-3.78-11.83a4.25,4.25,0,1,0,4.24,4.23A4.23,4.23,0,0,0,151.49,117.84Z"/><path class="cls-1" d="M165.67,110.66a2.56,2.56,0,1,1,0-5.11,2.56,2.56,0,0,1,0,5.11Zm-2.14,19V114.51h4.24v15.16Z"/><path class="cls-1" d="M181.66,118.36a3.78,3.78,0,0,0-2-.52c-2.87,0-3.64,2-3.64,4.55v7.28h-4.24V114.51H176v2.28A4.86,4.86,0,0,1,180.4,114a5,5,0,0,1,1.86.35Z"/><path class="cls-1" d="M187.89,122.77c.07,2.35,1.19,4.06,3.71,4.06a4,4,0,0,0,3.61-2l3.92.63c-1.33,3.26-4,4.73-7.46,4.73-4.9,0-8.12-3.15-8.12-8.09s3.08-8,7.95-8,7.73,3.36,7.73,8.19v.56Zm3.68-5.74a3.44,3.44,0,0,0-3.54,3h7.18A3.52,3.52,0,0,0,191.57,117Z"/><path class="cls-1" d="M212.88,129.67l-5.71-6.51-.45.45v6.06h-4.24V103.45h4.24V120l5.67-5.53h5.74l-7.1,6.65,7.66,8.51Z"/><path class="cls-1" d="M224.85,118.15v11.52h-4.24V118.15h-1.68v-3.64h1.68v-5.18h4.24v5.18h3v3.64Z"/><path class="cls-1" d="M232.37,130.12a2.73,2.73,0,1,1,2.73-2.73A2.73,2.73,0,0,1,232.37,130.12ZM230.2,123V106.32h4.34V123Z"/><path class="cls-1" d="M95.76,172.67l-2-4.94H84.24l-2.14,4.94H77.27l10.12-23.84h3.43l9.84,23.84Zm-6.69-17-3.4,8.41h6.69Z"/><path class="cls-1" d="M102.72,172.67V146.45H107v26.22Z"/><path class="cls-1" d="M111,172.67V146.45h4.24v26.22Z"/><path class="cls-1" d="M130.9,172.67v-2a5.86,5.86,0,0,1-4.94,2.49c-4.55,0-7.46-3.78-7.46-8.12s2.91-8,7.35-8a6.32,6.32,0,0,1,5.05,2.42v-1.93h4.27v15.16Zm-3.78-11.83a4.25,4.25,0,1,0,4.23,4.23A4.23,4.23,0,0,0,127.12,160.84Z"/><path class="cls-1" d="M158.33,172.67v-8.3c0-2.1-.45-3.74-2.9-3.74-2.63,0-3.22,2-3.22,4.27v7.77H148V146.45h4.24v13A5.52,5.52,0,0,1,157,157a5.76,5.76,0,0,1,4.41,1.86,6,6,0,0,1,1.19,4.27v9.52Z"/><path class="cls-1" d="M173.94,173.16c-4.16,0-7.31-1.86-7.31-6.37v-9.28h4.23v8.58c0,2.06.88,3.46,3.08,3.46s3.08-1.4,3.08-3.46v-8.58h4.27v9.28C181.29,171.3,178.11,173.16,173.94,173.16Z"/><path class="cls-1" d="M190.18,173.16a8.06,8.06,0,0,1-5.77-2.52l2.24-2.59a4.92,4.92,0,0,0,3.57,1.78,1.78,1.78,0,0,0,1.92-1.68c0-2.59-6.75-1.29-6.75-6.4,0-3.08,2.55-4.8,5.42-4.8a7.83,7.83,0,0,1,4.94,1.61l-2.1,2.49a4.26,4.26,0,0,0-2.52-1c-.74,0-1.61.46-1.61,1.3,0,2.2,7,1.22,7,6.4C196.52,171.27,193.44,173.16,190.18,173.16Z"/><path class="cls-1" d="M219.86,172.67v-2a5.84,5.84,0,0,1-4.93,2.49c-4.55,0-7.46-3.78-7.46-8.12s2.91-8,7.35-8a6.3,6.3,0,0,1,5,2.42v-1.93h4.27v15.16Zm-7.31-18a2.52,2.52,0,0,1,0-5,2.52,2.52,0,0,1,0,5Zm3.53,6.17a4.25,4.25,0,1,0,4.24,4.23A4.23,4.23,0,0,0,216.08,160.84Zm3.75-6.17a2.55,2.55,0,0,1-2.52-2.52,2.52,2.52,0,1,1,2.52,2.52Z"/><path class="cls-1" d="M238.1,161.36a3.8,3.8,0,0,0-2-.52c-2.87,0-3.64,2-3.64,4.55v7.28h-4.24V157.51h4.24v2.28a4.86,4.86,0,0,1,4.41-2.77,4.94,4.94,0,0,1,1.85.35Z"/><path class="cls-1" d="M58,210.23a9.08,9.08,0,0,1-8-4.45L52.9,203a5.35,5.35,0,0,0,4.9,3.11,3.32,3.32,0,0,0,3.6-3.29c0-4.79-10.25-2.52-10.25-10.05,0-4.13,3.32-6.79,7.28-6.79a10.22,10.22,0,0,1,6.82,2.59l-2.38,3.12a4.72,4.72,0,0,0-3.78-1.89c-1.5,0-3.25.94-3.25,2.63,0,4,10.25,2,10.25,10.15C66.09,207.29,62.59,210.23,58,210.23Z"/><path class="cls-1" d="M77.15,210h-2l-7.73-15.47h4.76l4,8.54,4-8.54H85Z"/><path class="cls-1" d="M97.84,209.67v-2a5.86,5.86,0,0,1-4.94,2.49c-4.55,0-7.45-3.78-7.45-8.12s2.9-8,7.35-8a6.31,6.31,0,0,1,5,2.42v-1.93h4.27v15.16Zm-3.78-11.83a4.25,4.25,0,1,0,4.23,4.23A4.23,4.23,0,0,0,94.06,197.84Z"/><path class="cls-1" d="M116.53,209.67v-8.4c0-2.07-.46-3.64-2.87-3.64-2.63,0-3.26,1.92-3.26,4.2v7.84h-4.23V194.51h4.23v1.86a5.57,5.57,0,0,1,4.76-2.35,5.23,5.23,0,0,1,5.6,6v9.63Z"/><path class="cls-1" d="M128.36,202.77c.07,2.35,1.19,4.06,3.71,4.06a4,4,0,0,0,3.6-2l3.92.63c-1.33,3.26-4,4.73-7.45,4.73-4.9,0-8.12-3.15-8.12-8.09s3.08-8,7.94-8,7.74,3.36,7.74,8.19v.56ZM132,197a3.44,3.44,0,0,0-3.53,3.05h7.17A3.51,3.51,0,0,0,132,197Z"/><path class="cls-1" d="M153.31,209.67v-8.4c0-2.07-.45-3.64-2.87-3.64-2.62,0-3.25,1.92-3.25,4.2v7.84H143V194.51h4.24v1.86A5.57,5.57,0,0,1,152,194a5.23,5.23,0,0,1,5.6,6v9.63Z"/><path class="cls-1" d="M181,209.67v-8.3c0-1.78-.28-3.74-2.52-3.74-2.48,0-2.9,2.27-2.9,4.27v7.77H171.3v-8a6.85,6.85,0,0,0-.31-2.52,2.47,2.47,0,0,0-2.28-1.47,2.77,2.77,0,0,0-2.38,1.36,6.39,6.39,0,0,0-.49,2.91v7.77h-4.23V194.51h4.23v1.72a5.82,5.82,0,0,1,4.62-2.21,5.14,5.14,0,0,1,4.73,2.77,5.59,5.59,0,0,1,5-2.77,5,5,0,0,1,4.23,2.17,6.71,6.71,0,0,1,.81,3.68v9.8Z"/><path class="cls-1" d="M200.84,209.67v-2a5.84,5.84,0,0,1-4.93,2.49c-4.55,0-7.46-3.78-7.46-8.12s2.91-8,7.35-8a6.3,6.3,0,0,1,5,2.42v-1.93h4.27v15.16Zm-7.31-18a2.52,2.52,0,0,1,0-5,2.52,2.52,0,0,1,0,5Zm3.53,6.17a4.25,4.25,0,1,0,4.24,4.23A4.23,4.23,0,0,0,197.06,197.84Zm3.75-6.17a2.55,2.55,0,0,1-2.52-2.52,2.52,2.52,0,1,1,2.52,2.52Z"/><path class="cls-1" d="M219.08,198.36a3.8,3.8,0,0,0-2-.52c-2.87,0-3.64,2-3.64,4.55v7.28h-4.24V194.51h4.24v2.28a4.86,4.86,0,0,1,4.41-2.77,4.94,4.94,0,0,1,1.85.35Z"/><path class="cls-1" d="M232.17,209.67l-5.71-6.51-.46.45v6.06h-4.23V183.45H226V200l5.68-5.53h5.74l-7.11,6.65,7.67,8.51Z"/><path class="cls-1" d="M244.13,198.15v11.52H239.9V198.15h-1.68v-3.64h1.68v-5.18h4.23v5.18h3v3.64Z"/><path class="cls-1" d="M260.9,209.67v-2a5.84,5.84,0,0,1-4.94,2.49c-4.55,0-7.45-3.78-7.45-8.12s2.9-8,7.35-8a6.3,6.3,0,0,1,5,2.42v-1.93h4.27v15.16Zm-3.78-11.83a4.25,4.25,0,1,0,4.24,4.23A4.23,4.23,0,0,0,257.12,197.84Z"/></svg>