<svg id="Layer_1" data-name="Layer 1" xmlns="http://www.w3.org/2000/svg" viewBox="0 0 320 320"><defs><style>.cls-1{fill:#d80201;}</style></defs><title>text</title><path class="cls-1" d="M59,134.23a9.08,9.08,0,0,1-8-4.45L53.9,127a5.35,5.35,0,0,0,4.9,3.11,3.32,3.32,0,0,0,3.6-3.29c0-4.79-10.25-2.52-10.25-10,0-4.13,3.32-6.79,7.28-6.79a10.22,10.22,0,0,1,6.82,2.59l-2.38,3.12a4.72,4.72,0,0,0-3.78-1.89c-1.5,0-3.25.94-3.25,2.62,0,4,10.25,2,10.25,10.16C67.09,131.29,63.59,134.23,59,134.23Z"/><path class="cls-1" d="M78.15,134h-2l-7.73-15.47h4.76l4,8.54,4-8.54H86Z"/><path class="cls-1" d="M98.84,133.67v-2a5.86,5.86,0,0,1-4.94,2.49c-4.55,0-7.45-3.78-7.45-8.12s2.9-8,7.35-8a6.31,6.31,0,0,1,5,2.42v-1.93h4.27v15.16Zm-3.78-11.83a4.25,4.25,0,1,0,4.23,4.23A4.23,4.23,0,0,0,95.06,121.84Z"/><path class="cls-1" d="M117.53,133.67v-8.4c0-2.07-.46-3.64-2.87-3.64-2.63,0-3.26,1.92-3.26,4.2v7.84h-4.23V118.51h4.23v1.86a5.57,5.57,0,0,1,4.76-2.35,5.23,5.23,0,0,1,5.6,6v9.63Z"/><path class="cls-1" d="M129.36,126.77c.07,2.35,1.19,4.06,3.71,4.06a4,4,0,0,0,3.6-2l3.92.63c-1.33,3.26-4,4.73-7.45,4.73-4.9,0-8.12-3.15-8.12-8.09s3.08-8,7.94-8,7.74,3.36,7.74,8.19v.56ZM133,121a3.44,3.44,0,0,0-3.53,3h7.17A3.51,3.51,0,0,0,133,121Z"/><path class="cls-1" d="M154.31,133.67v-8.4c0-2.07-.45-3.64-2.87-3.64-2.62,0-3.25,1.92-3.25,4.2v7.84H144V118.51h4.24v1.86A5.57,5.57,0,0,1,153,118a5.23,5.23,0,0,1,5.6,6v9.63Z"/><path class="cls-1" d="M182,133.67v-8.3c0-1.78-.28-3.74-2.52-3.74-2.48,0-2.9,2.27-2.9,4.27v7.77H172.3v-8a6.85,6.85,0,0,0-.31-2.52,2.47,2.47,0,0,0-2.28-1.47,2.77,2.77,0,0,0-2.38,1.36,6.39,6.39,0,0,0-.49,2.91v7.77h-4.23V118.51h4.23v1.72a5.82,5.82,0,0,1,4.62-2.21,5.14,5.14,0,0,1,4.73,2.77,5.59,5.59,0,0,1,5-2.77,5,5,0,0,1,4.23,2.17,6.71,6.71,0,0,1,.81,3.68v9.8Z"/><path class="cls-1" d="M201.84,133.67v-2a5.84,5.84,0,0,1-4.93,2.49c-4.55,0-7.46-3.78-7.46-8.12s2.91-8,7.35-8a6.3,6.3,0,0,1,5,2.42v-1.93h4.27v15.16Zm-7.31-18a2.52,2.52,0,0,1,0-5,2.52,2.52,0,1,1,0,5Zm3.53,6.17a4.25,4.25,0,1,0,4.24,4.23A4.23,4.23,0,0,0,198.06,121.84Zm3.75-6.17a2.55,2.55,0,0,1-2.52-2.52,2.52,2.52,0,1,1,2.52,2.52Z"/><path class="cls-1" d="M220.08,122.36a3.8,3.8,0,0,0-2-.52c-2.87,0-3.64,2-3.64,4.55v7.28h-4.24V118.51h4.24v2.28a4.86,4.86,0,0,1,4.41-2.77,4.94,4.94,0,0,1,1.85.35Z"/><path class="cls-1" d="M233.17,133.67l-5.71-6.51-.46.45v6.06h-4.23V107.45H227V124l5.68-5.53h5.74l-7.11,6.65,7.67,8.51Z"/><path class="cls-1" d="M245.13,122.15v11.52H240.9V122.15h-1.68v-3.64h1.68v-5.18h4.23v5.18h3v3.64Z"/><path class="cls-1" d="M261.9,133.67v-2a5.84,5.84,0,0,1-4.94,2.49c-4.55,0-7.45-3.78-7.45-8.12s2.9-8,7.35-8a6.3,6.3,0,0,1,5,2.42v-1.93h4.27v15.16Zm-3.78-11.83a4.25,4.25,0,1,0,4.24,4.23A4.23,4.23,0,0,0,258.12,121.84Z"/><path class="cls-1" d="M57.05,169.67v-8.3c0-2.1-.46-3.74-2.91-3.74-2.62,0-3.22,2-3.22,4.27v7.77H46.69V143.45h4.23v13A5.54,5.54,0,0,1,55.68,154a5.75,5.75,0,0,1,4.41,1.86,6,6,0,0,1,1.19,4.27v9.52Z"/><path class="cls-1" d="M72.66,170.16c-4.17,0-7.32-1.86-7.32-6.37v-9.28h4.24v8.58c0,2.06.87,3.46,3.08,3.46s3.08-1.4,3.08-3.46v-8.58H80v9.28C80,168.3,76.82,170.16,72.66,170.16Z"/><path class="cls-1" d="M88.9,170.16a8.1,8.1,0,0,1-5.78-2.52l2.24-2.59a5,5,0,0,0,3.57,1.78,1.79,1.79,0,0,0,1.93-1.68c0-2.59-6.76-1.29-6.76-6.4,0-3.08,2.56-4.8,5.43-4.8a7.78,7.78,0,0,1,4.93,1.61l-2.1,2.49a4.21,4.21,0,0,0-2.52-1c-.73,0-1.61.46-1.61,1.3,0,2.2,7,1.22,7,6.4C95.23,168.27,92.15,170.16,88.9,170.16Z"/><path class="cls-1" d="M111.37,158.15v11.52h-4.24V158.15h-1.64v-3.64h1.64v-4.87a7.35,7.35,0,0,1,.67-3.57,6,6,0,0,1,5.25-3,5,5,0,0,1,2.24.52v3.89a4.18,4.18,0,0,0-1.93-.56c-1.89,0-2,2-2,3.39v4.24h3.92v3.64Z"/><path class="cls-1" d="M125.12,170.16c-4.83,0-8.68-3-8.68-8s3.85-8.09,8.72-8.09,8.61,3,8.61,8S129.92,170.16,125.12,170.16Zm-3.67-18.49a2.52,2.52,0,0,1,0-5,2.52,2.52,0,0,1,0,5Zm3.64,6.17a4.25,4.25,0,1,0,4.3,4.27A4.28,4.28,0,0,0,125.09,157.84Zm3.64-6.17a2.55,2.55,0,0,1-2.52-2.52,2.52,2.52,0,1,1,2.52,2.52Z"/><path class="cls-1" d="M146.93,158.36a3.8,3.8,0,0,0-2-.52c-2.87,0-3.64,2-3.64,4.55v7.28H137V154.51h4.24v2.28a4.86,4.86,0,0,1,4.41-2.77,4.94,4.94,0,0,1,1.85.35Z"/><path class="cls-1" d="M161.91,162.77c.07,2.35,1.19,4.06,3.71,4.06a4,4,0,0,0,3.6-2l3.92.63c-1.33,3.26-4,4.73-7.45,4.73-4.9,0-8.12-3.15-8.12-8.09s3.08-8,7.94-8c5,0,7.74,3.36,7.74,8.19v.56Zm3.67-5.74a3.44,3.44,0,0,0-3.53,3.05h7.17A3.51,3.51,0,0,0,165.58,157Z"/><path class="cls-1" d="M186.86,169.67v-8.4c0-2.07-.45-3.64-2.87-3.64-2.62,0-3.25,1.92-3.25,4.2v7.84H176.5V154.51h4.24v1.86A5.57,5.57,0,0,1,185.5,154a5.23,5.23,0,0,1,5.6,6v9.63Z"/><path class="cls-1" d="M208.74,170.16a8.07,8.07,0,0,1-5.78-2.52l2.24-2.59a4.92,4.92,0,0,0,3.57,1.78,1.79,1.79,0,0,0,1.93-1.68c0-2.59-6.76-1.29-6.76-6.4,0-3.08,2.56-4.8,5.43-4.8a7.78,7.78,0,0,1,4.93,1.61l-2.1,2.49a4.23,4.23,0,0,0-2.52-1c-.73,0-1.61.46-1.61,1.3,0,2.2,7,1.22,7,6.4C215.07,168.27,212,170.16,208.74,170.16Z"/><path class="cls-1" d="M225.4,170.16c-4.17,0-7.32-1.86-7.32-6.37v-9.28h4.24v8.58c0,2.06.87,3.46,3.08,3.46s3.08-1.4,3.08-3.46v-8.58h4.27v9.28C232.75,168.3,229.56,170.16,225.4,170.16Z"/><path class="cls-1" d="M247.17,169.67v-8.4c0-2.07-.46-3.64-2.88-3.64-2.62,0-3.25,1.92-3.25,4.2v7.84H236.8V154.51H241v1.86A5.57,5.57,0,0,1,245.8,154a5.23,5.23,0,0,1,5.6,6v9.63Z"/><path class="cls-1" d="M267,169.67v-2a5.84,5.84,0,0,1-4.93,2.49c-4.55,0-7.46-3.78-7.46-8.12s2.91-8,7.35-8a6.3,6.3,0,0,1,5,2.42v-13h4.28v26.22Zm-3.78-11.83a4.25,4.25,0,1,0,4.24,4.23A4.23,4.23,0,0,0,263.26,157.84Z"/><path class="cls-1" d="M90.91,186.66a2.56,2.56,0,1,1,0-5.11,2.56,2.56,0,0,1,0,5.11Zm-2.14,19V190.51H93v15.16Z"/><path class="cls-1" d="M107.36,205.67v-8.4c0-2.07-.46-3.64-2.87-3.64-2.63,0-3.26,1.92-3.26,4.2v7.84H97V190.51h4.23v1.86A5.58,5.58,0,0,1,106,190a5.23,5.23,0,0,1,5.6,6v9.63Z"/><path class="cls-1" d="M126,205.67v-8.4c0-2.07-.45-3.64-2.87-3.64-2.62,0-3.25,1.92-3.25,4.2v7.84h-4.24V190.51h4.24v1.86a5.57,5.57,0,0,1,4.76-2.35,5.23,5.23,0,0,1,5.6,6v9.63Z"/><path class="cls-1" d="M137.84,198.77c.07,2.35,1.19,4.06,3.71,4.06a4,4,0,0,0,3.61-2l3.92.63c-1.33,3.26-4,4.73-7.46,4.73-4.9,0-8.12-3.15-8.12-8.09s3.08-8,7.95-8,7.73,3.36,7.73,8.19v.56Zm3.68-5.74a3.44,3.44,0,0,0-3.54,3.05h7.18A3.52,3.52,0,0,0,141.52,193Z"/><path class="cls-1" d="M171.79,205.67v-8.3c0-1.78-.28-3.74-2.52-3.74-2.48,0-2.9,2.27-2.9,4.27v7.77h-4.24v-8a6.85,6.85,0,0,0-.31-2.52,2.47,2.47,0,0,0-2.28-1.47,2.77,2.77,0,0,0-2.38,1.36,6.39,6.39,0,0,0-.49,2.91v7.77h-4.23V190.51h4.23v1.72a5.82,5.82,0,0,1,4.62-2.21,5.14,5.14,0,0,1,4.73,2.77,5.59,5.59,0,0,1,5-2.77,5,5,0,0,1,4.23,2.17,6.71,6.71,0,0,1,.81,3.68v9.8Z"/><path class="cls-1" d="M182.15,186.66a2.56,2.56,0,0,1,0-5.11,2.56,2.56,0,0,1,0,5.11Zm-2.13,19V190.51h4.23v15.16Z"/><path class="cls-1" d="M188.24,205.67V179.45h4.24v26.22Z"/><path class="cls-1" d="M198.6,186.66a2.56,2.56,0,0,1,0-5.11,2.56,2.56,0,0,1,0,5.11Zm-2.13,27.09V190.51h4.23v23.24Z"/><path class="cls-1" d="M212.57,206.16c-4.83,0-8.68-3-8.68-8s3.85-8.09,8.71-8.09,8.61,3,8.61,8S217.36,206.16,212.57,206.16Zm-3.68-18.49a2.52,2.52,0,1,1,0-5,2.52,2.52,0,1,1,0,5Zm3.64,6.17a4.25,4.25,0,1,0,4.31,4.27A4.29,4.29,0,0,0,212.53,193.84Zm3.64-6.17a2.56,2.56,0,0,1-2.52-2.52,2.52,2.52,0,1,1,2.52,2.52Z"/><path class="cls-1" d="M226.81,206.12a2.73,2.73,0,1,1,2.73-2.73A2.73,2.73,0,0,1,226.81,206.12ZM224.64,199V182.32H229V199Z"/></svg>