<svg id="Layer_1" data-name="Layer 1" xmlns="http://www.w3.org/2000/svg" viewBox="0 0 160 600"><defs><style>.cls-1{fill:#d80201;}</style></defs><title>text</title><path class="cls-1" d="M16.29,289.54A7.28,7.28,0,0,1,9.88,286l2.35-2.27a4.28,4.28,0,0,0,3.92,2.49A2.66,2.66,0,0,0,19,283.58c0-3.84-8.2-2-8.2-8,0-3.3,2.66-5.43,5.82-5.43a8.19,8.19,0,0,1,5.46,2.07l-1.9,2.49a3.78,3.78,0,0,0-3-1.51c-1.2,0-2.6.76-2.6,2.1,0,3.16,8.2,1.6,8.2,8.12C22.79,287.19,20,289.54,16.29,289.54Z"/><path class="cls-1" d="M29.31,279.88v9.21H25.92v-9.21H24.58V277h1.34v-4.14h3.39V277h2.38v2.91Z"/><path class="cls-1" d="M39.76,289.49c-3.86,0-6.94-2.41-6.94-6.44s3.08-6.47,7-6.47S46.67,279,46.67,283,43.59,289.49,39.76,289.49Zm0-9.86A3.4,3.4,0,1,0,43.17,283,3.43,3.43,0,0,0,39.73,279.63Z"/><path class="cls-1" d="M57.2,280.05a3,3,0,0,0-1.62-.42c-2.3,0-2.91,1.62-2.91,3.64v5.82H49.28V277h3.39v1.82a4,4,0,0,1,5-1.93Z"/><path class="cls-1" d="M16.74,322.95H15.17L9,310.57h3.81L16,317.4l3.19-6.83H23Z"/><path class="cls-1" d="M33.91,322.7v-1.6a4.68,4.68,0,0,1-3.95,2c-3.64,0-6-3-6-6.5s2.32-6.41,5.88-6.41a5.05,5.05,0,0,1,4,1.93v-1.54h3.42V322.7Zm-3-9.46a3.4,3.4,0,1,0,3.39,3.39A3.38,3.38,0,0,0,30.88,313.23Zm-.48-4.79a2.52,2.52,0,0,1,0-5,2.52,2.52,0,0,1,0,5Zm0-3.5a1,1,0,1,0,1,1A1,1,0,0,0,30.41,304.95Z"/><path class="cls-1" d="M48.49,313.65a3,3,0,0,0-1.62-.42c-2.3,0-2.91,1.63-2.91,3.64v5.82H40.57V310.57H44v1.82a4,4,0,0,1,5-1.93Z"/><path class="cls-1" d="M59,322.7l-4.56-5.21-.36.37v4.84H50.65v-21H54V315l4.54-4.42h4.59l-5.68,5.32,6.13,6.8Z"/><path class="cls-1" d="M73.75,322.7v-1.6a4.68,4.68,0,0,1-3.95,2c-3.64,0-6-3-6-6.5s2.32-6.41,5.88-6.41a5.05,5.05,0,0,1,4,1.93v-1.54h3.42V322.7Zm-3-9.46a3.4,3.4,0,1,0,3.39,3.39A3.38,3.38,0,0,0,70.72,313.23Z"/><path class="cls-1" d="M95.9,322.7v-6.64c0-1.43-.22-3-2-3-2,0-2.32,1.82-2.32,3.42v6.22H88.17v-6.44a5.41,5.41,0,0,0-.25-2,2,2,0,0,0-1.82-1.18,2.21,2.21,0,0,0-1.9,1.09,5,5,0,0,0-.39,2.32v6.22H80.41V310.57H83.8v1.37a4.65,4.65,0,0,1,3.7-1.76,4.12,4.12,0,0,1,3.78,2.21,4.49,4.49,0,0,1,4-2.21,4,4,0,0,1,3.39,1.74,5.34,5.34,0,0,1,.64,2.94v7.84Z"/><path class="cls-1" d="M110,323.09a4.85,4.85,0,0,1-4.06-2v8.06h-3.39V310.57h3.39v1.54a4.83,4.83,0,0,1,4-1.93c3.61,0,6,3,6,6.47S113.54,323.09,110,323.09Zm-1-9.86a3.4,3.4,0,1,0,3.39,3.39A3.38,3.38,0,0,0,109,313.23Z"/><path class="cls-1" d="M127.73,322.7v-1.6a4.68,4.68,0,0,1-3.95,2c-3.64,0-6-3-6-6.5s2.32-6.41,5.88-6.41a5.05,5.05,0,0,1,4,1.93v-1.54h3.42V322.7Zm-3-9.46a3.4,3.4,0,1,0,3.39,3.39A3.38,3.38,0,0,0,124.71,313.23Z"/><path class="cls-1" d="M142.68,322.7V316c0-1.65-.36-2.91-2.3-2.91-2.1,0-2.6,1.54-2.6,3.36v6.27H134.4V310.57h3.39v1.48a4.48,4.48,0,0,1,3.81-1.88,4.19,4.19,0,0,1,4.48,4.82v7.7Z"/><path class="cls-1" d="M151,307.49a2,2,0,1,1,0-4.09,2,2,0,0,1,0,4.09Zm-1.71,21.67V310.57h3.39v18.59Z"/></svg>