<svg id="Layer_1" data-name="Layer 1" xmlns="http://www.w3.org/2000/svg" viewBox="0 0 160 600"><defs><style>.cls-1{fill:#d80201;}</style></defs><title>text</title><path class="cls-1" d="M32.38,272.1H26.11V253.42h4.62c1.51,0,3.36.14,4.56,1.12A5,5,0,0,1,37,258.38a3.92,3.92,0,0,1-2,3.75,4.22,4.22,0,0,1,2.43,1.17,5,5,0,0,1,1.35,3.5C38.71,270.53,35.74,272.1,32.38,272.1Zm-1.57-15.71H29.75v4.81h1c1.63,0,2.83-.64,2.83-2.4S32.44,256.39,30.81,256.39Zm.62,7.59H29.75v5.18h1.56c1.8,0,3.65-.42,3.65-2.61S33.16,264,31.43,264Z"/><path class="cls-1" d="M45.06,278.59H41.23l4.45-8.31L39.94,260h4l3.64,6.89L51,260h3.86Z"/><path class="cls-1" d="M67.77,276.49a6.62,6.62,0,0,1-5.15,2.13c-3.11,0-6.11-1.79-6.44-5.1h3.67a2.69,2.69,0,0,0,2.88,2.22c2.13,0,3-1.49,3-3.45v-1.82a5,5,0,0,1-4.09,2c-3.59,0-5.77-2.89-5.77-6.3s2.24-6.61,5.94-6.61a4.57,4.57,0,0,1,3.92,2V260h3.41v11.68C69.14,273.55,69.06,275,67.77,276.49Zm-5-13.86A3.41,3.41,0,1,0,66.15,266,3.38,3.38,0,0,0,62.76,262.63Z"/><path class="cls-1" d="M83.65,276.49a6.63,6.63,0,0,1-5.16,2.13c-3.1,0-6.1-1.79-6.44-5.1h3.67a2.7,2.7,0,0,0,2.89,2.22c2.12,0,3-1.49,3-3.45v-1.82a5,5,0,0,1-4.09,2c-3.58,0-5.76-2.89-5.76-6.3s2.24-6.61,5.93-6.61a4.54,4.54,0,0,1,3.92,2V260H85v11.68C85,273.55,84.93,275,83.65,276.49Zm-5-13.86A3.41,3.41,0,1,0,82,266,3.38,3.38,0,0,0,78.63,262.63Z"/><path class="cls-1" d="M103.55,272.1v-6.72c0-1.66-.36-2.92-2.29-2.92-2.1,0-2.61,1.54-2.61,3.36v6.28H95.27V260h3.38v1.49a4.48,4.48,0,0,1,3.81-1.88,4.19,4.19,0,0,1,4.48,4.82v7.7Z"/><path class="cls-1" d="M113.1,278.59h-3.83l4.45-8.31L108,260h4l3.64,6.89L119,260h3.86Z"/><path class="cls-1" d="M128,262.88v9.22h-3.39v-9.22h-1.34V260h1.34v-4.14H128V260h2.38v2.91Z"/><path class="cls-1" d="M135.53,262.88v9.22h-3.39v-9.22H130.8V260h1.34v-4.14h3.39V260h2.38v2.91Z"/><path class="cls-1" d="M40.51,305.7v-6.64c0-1.68-.36-3-2.32-3s-2.58,1.63-2.58,3.42v6.22H32.22v-21h3.39v10.41a4.41,4.41,0,0,1,3.81-2A4.63,4.63,0,0,1,43,294.67a4.77,4.77,0,0,1,.95,3.41v7.62Z"/><path class="cls-1" d="M53,306.09c-3.33,0-5.85-1.48-5.85-5.1v-7.42h3.39v6.86c0,1.65.7,2.78,2.46,2.78s2.46-1.13,2.46-2.78v-6.86h3.42V301C58.88,304.61,56.33,306.09,53,306.09Z"/><path class="cls-1" d="M66,306.09a6.47,6.47,0,0,1-4.62-2L63.16,302A4,4,0,0,0,66,303.43a1.43,1.43,0,0,0,1.54-1.35c0-2.07-5.4-1-5.4-5.12,0-2.46,2-3.83,4.34-3.83a6.25,6.25,0,0,1,3.94,1.28l-1.68,2a3.35,3.35,0,0,0-2-.81c-.59,0-1.29.36-1.29,1,0,1.76,5.6,1,5.6,5.12C71.06,304.58,68.6,306.09,66,306.09Z"/><path class="cls-1" d="M96,305.7v-6.64c0-1.43-.22-3-2-3-2,0-2.33,1.82-2.33,3.42v6.22H88.22v-6.44a5.45,5.45,0,0,0-.25-2,2,2,0,0,0-1.82-1.18,2.2,2.2,0,0,0-1.9,1.1,4.93,4.93,0,0,0-.39,2.32v6.22H80.47V293.57h3.39v1.37a4.65,4.65,0,0,1,3.69-1.76,4.12,4.12,0,0,1,3.78,2.21,4.49,4.49,0,0,1,4-2.21,4,4,0,0,1,3.39,1.74,5.32,5.32,0,0,1,.64,2.94v7.84Z"/><path class="cls-1" d="M105.42,300.18c0,1.88,1,3.25,3,3.25a3.17,3.17,0,0,0,2.89-1.63l3.13.51a5.94,5.94,0,0,1-6,3.78,6.08,6.08,0,0,1-6.5-6.47c0-3.86,2.47-6.44,6.36-6.44s6.19,2.69,6.19,6.55v.45Zm2.94-4.59a2.75,2.75,0,0,0-2.83,2.43h5.74A2.81,2.81,0,0,0,108.36,295.59Z"/><path class="cls-1" d="M126.36,305.7v-1.6a4.67,4.67,0,0,1-4,2c-3.64,0-6-3-6-6.5s2.32-6.41,5.88-6.41a5,5,0,0,1,4,1.93V284.73h3.42v21Zm-3-9.47a3.41,3.41,0,1,0,3.38,3.39A3.38,3.38,0,0,0,123.34,296.23Z"/><path class="cls-1" d="M39.74,339.69a4.74,4.74,0,0,1-4-2v1.6H32.38v-21h3.39v10.38a5.13,5.13,0,0,1,4.06-1.93c3.55,0,5.9,3,5.9,6.41S43.38,339.69,39.74,339.69Zm-.92-9.86a3.41,3.41,0,1,0,3.39,3.39A3.38,3.38,0,0,0,38.82,329.83Z"/><path class="cls-1" d="M56.23,330.25a3.07,3.07,0,0,0-1.62-.42c-2.3,0-2.91,1.63-2.91,3.64v5.83H48.31V327.17H51.7V329a3.89,3.89,0,0,1,3.53-2.21,4,4,0,0,1,1.48.28Z"/><path class="cls-1" d="M67.66,339.3v-1.6a4.68,4.68,0,0,1-3.95,2c-3.64,0-6-3-6-6.5s2.32-6.41,5.88-6.41a5,5,0,0,1,4,1.93v-1.54h3.41V339.3Zm-3-9.47A3.41,3.41,0,1,0,68,333.22,3.38,3.38,0,0,0,64.63,329.83Z"/><path class="cls-1" d="M78.19,339.69a6.44,6.44,0,0,1-4.62-2l1.79-2.07A3.94,3.94,0,0,0,78.21,337a1.42,1.42,0,0,0,1.54-1.34c0-2.08-5.4-1-5.4-5.13,0-2.46,2-3.84,4.34-3.84a6.28,6.28,0,0,1,4,1.29L81,330a3.37,3.37,0,0,0-2-.81c-.59,0-1.29.36-1.29,1,0,1.77,5.6,1,5.6,5.13C83.25,338.18,80.79,339.69,78.19,339.69Z"/><path class="cls-1" d="M101.15,339.3v-6.64c0-1.43-.23-3-2-3-2,0-2.32,1.81-2.32,3.41v6.22H93.42v-6.44a5.45,5.45,0,0,0-.25-2,2,2,0,0,0-1.82-1.17,2.2,2.2,0,0,0-1.91,1.09,5.06,5.06,0,0,0-.39,2.32v6.22H85.66V327.17h3.39v1.37a4.69,4.69,0,0,1,3.7-1.76A4.14,4.14,0,0,1,96.53,329a4.49,4.49,0,0,1,4-2.21,4,4,0,0,1,3.39,1.74,5.32,5.32,0,0,1,.64,2.94v7.84Z"/><path class="cls-1" d="M110.72,345.79h-3.83l4.45-8.31-5.74-10.31h4l3.64,6.89,3.47-6.89h3.86Z"/><path class="cls-1" d="M125.39,339.69a6.47,6.47,0,0,1-4.62-2l1.8-2.07a3.92,3.92,0,0,0,2.85,1.43,1.42,1.42,0,0,0,1.54-1.34c0-2.08-5.4-1-5.4-5.13,0-2.46,2-3.84,4.34-3.84a6.3,6.3,0,0,1,3.95,1.29l-1.68,2a3.37,3.37,0,0,0-2-.81c-.59,0-1.29.36-1.29,1,0,1.77,5.6,1,5.6,5.13C130.46,338.18,128,339.69,125.39,339.69Z"/></svg>