<svg id="Layer_1" data-name="Layer 1" xmlns="http://www.w3.org/2000/svg" viewBox="0 0 160 600"><defs><style>.cls-1{fill:#d80201;}</style></defs><title>text</title><path class="cls-1" d="M10.59,237.14v4h5.64v3.05H10.59v7.91H7.08v-18h9.53v3.05Z"/><path class="cls-1" d="M25.25,252.47c-3.73,0-6.69-2.32-6.69-6.21s3-6.24,6.72-6.24,6.64,2.35,6.64,6.21S28.95,252.47,25.25,252.47Zm0-9.5a3.28,3.28,0,1,0,3.32,3.29A3.31,3.31,0,0,0,25.22,243Z"/><path class="cls-1" d="M42.07,243.38a2.89,2.89,0,0,0-1.57-.4c-2.21,0-2.81,1.57-2.81,3.51v5.61H34.43V240.41H37.7v1.75a3.81,3.81,0,0,1,4.83-1.86Z"/><path class="cls-1" d="M59.08,252.1v-6.4c0-1.38-.22-2.89-1.94-2.89-1.92,0-2.24,1.75-2.24,3.29v6H51.63v-6.21a5.22,5.22,0,0,0-.24-1.94,1.89,1.89,0,0,0-1.75-1.13,2.13,2.13,0,0,0-1.84,1.05,4.86,4.86,0,0,0-.38,2.24v6H44.15V240.41h3.27v1.32A4.49,4.49,0,0,1,51,240a4,4,0,0,1,3.64,2.13A4.32,4.32,0,0,1,58.45,240a3.84,3.84,0,0,1,3.27,1.67,5.15,5.15,0,0,1,.62,2.83v7.56Z"/><path class="cls-1" d="M74.41,252.1v-1.54a4.52,4.52,0,0,1-3.81,1.92c-3.51,0-5.75-2.92-5.75-6.26S67.1,240,70.53,240a4.87,4.87,0,0,1,3.89,1.86v-1.48h3.29V252.1ZM71.5,243a3.28,3.28,0,1,0,3.27,3.27A3.26,3.26,0,0,0,71.5,243Z"/><path class="cls-1" d="M95.58,252.1v-6.4c0-1.62-.35-2.89-2.24-2.89s-2.48,1.57-2.48,3.29v6H87.59V231.88h3.27v10A4.26,4.26,0,0,1,94.53,240a4.47,4.47,0,0,1,3.4,1.43,4.63,4.63,0,0,1,.92,3.29v7.34Z"/><path class="cls-1" d="M107.62,252.47c-3.21,0-5.64-1.43-5.64-4.91v-7.15h3.27V247c0,1.59.67,2.67,2.38,2.67S110,248.61,110,247v-6.61h3.29v7.15C113.29,251,110.84,252.47,107.62,252.47Z"/><path class="cls-1" d="M120.15,252.47a6.22,6.22,0,0,1-4.45-1.94l1.73-2a3.8,3.8,0,0,0,2.75,1.38,1.38,1.38,0,0,0,1.49-1.3c0-2-5.21-1-5.21-4.94,0-2.38,2-3.7,4.18-3.7a6,6,0,0,1,3.81,1.24l-1.62,1.92a3.26,3.26,0,0,0-1.94-.78c-.57,0-1.24.35-1.24,1,0,1.7,5.4.94,5.4,4.94C125,251,122.66,252.47,120.15,252.47Z"/><path class="cls-1" d="M130.09,246.78c.05,1.81.92,3.13,2.86,3.13a3.06,3.06,0,0,0,2.78-1.57l3,.49a5.73,5.73,0,0,1-5.75,3.64,5.86,5.86,0,0,1-6.26-6.24c0-3.73,2.38-6.21,6.13-6.21s6,2.59,6,6.32v.43Zm2.83-4.43a2.65,2.65,0,0,0-2.73,2.35h5.53A2.71,2.71,0,0,0,132.92,242.35Z"/><path class="cls-1" d="M144.64,243.22v8.88h-3.27v-8.88h-1.3v-2.81h1.3v-4h3.27v4h2.29v2.81Z"/><path class="cls-1" d="M8.16,273.44a2,2,0,1,1,0-3.94,2,2,0,0,1,0,3.94ZM6.51,288.1V276.41H9.78V288.1Z"/><path class="cls-1" d="M26.17,288.1h-6v-18h4.45a7.11,7.11,0,0,1,4.4,1.08,4.81,4.81,0,0,1,1.62,3.7,3.77,3.77,0,0,1-2,3.62A4.1,4.1,0,0,1,31,279.62a4.84,4.84,0,0,1,1.3,3.37C32.27,286.58,29.4,288.1,26.17,288.1ZM24.65,273h-1v4.64h1c1.57,0,2.73-.62,2.73-2.32S26.22,273,24.65,273Zm.59,7.31H23.63v5h1.51c1.73,0,3.51-.4,3.51-2.51S26.92,280.27,25.25,280.27Z"/><path class="cls-1" d="M38.4,294.36H34.7l4.29-8-5.53-9.93h3.81L40.77,283l3.35-6.64h3.72Z"/><path class="cls-1" d="M60.29,292.33a6.37,6.37,0,0,1-5,2.05c-3,0-5.88-1.73-6.21-4.91h3.54a2.6,2.6,0,0,0,2.78,2.13c2.05,0,2.89-1.43,2.89-3.32v-1.75a4.86,4.86,0,0,1-3.94,1.94c-3.46,0-5.56-2.78-5.56-6.07S51,276,54.54,276a4.38,4.38,0,0,1,3.78,1.89v-1.51h3.29v11.26C61.61,289.5,61.53,290.88,60.29,292.33ZM55.46,279a3.28,3.28,0,1,0,3.27,3.27A3.26,3.26,0,0,0,55.46,279Z"/><path class="cls-1" d="M75.6,292.33a6.37,6.37,0,0,1-5,2.05c-3,0-5.88-1.73-6.21-4.91H68a2.6,2.6,0,0,0,2.78,2.13c2.05,0,2.89-1.43,2.89-3.32v-1.75a4.86,4.86,0,0,1-3.94,1.94c-3.46,0-5.56-2.78-5.56-6.07S66.29,276,69.85,276a4.38,4.38,0,0,1,3.78,1.89v-1.51h3.29v11.26C76.92,289.5,76.84,290.88,75.6,292.33ZM70.77,279A3.28,3.28,0,1,0,74,282.24,3.26,3.26,0,0,0,70.77,279Z"/><path class="cls-1" d="M92.88,288.47c-3.72,0-6.69-2.32-6.69-6.21s3-6.24,6.72-6.24,6.64,2.35,6.64,6.21S96.58,288.47,92.88,288.47Zm0-9.5a3.28,3.28,0,1,0,3.32,3.29A3.31,3.31,0,0,0,92.85,279Z"/><path class="cls-1" d="M110.05,288.1v-6.48c0-1.59-.35-2.81-2.21-2.81-2,0-2.51,1.48-2.51,3.24v6h-3.27V276.41h3.27v1.43A4.32,4.32,0,0,1,109,276a4,4,0,0,1,4.32,4.64v7.42Z"/><path class="cls-1" d="M116.45,288.1V267.88h3.27V288.1Z"/><path class="cls-1" d="M124.44,273.44a2,2,0,1,1,0-3.94,2,2,0,0,1,0,3.94ZM122.8,288.1V276.41h3.27V288.1Z"/><path class="cls-1" d="M137.13,288.1v-6.48c0-1.59-.35-2.81-2.21-2.81-2,0-2.51,1.48-2.51,3.24v6h-3.27V276.41h3.27v1.43a4.32,4.32,0,0,1,3.67-1.81,4,4,0,0,1,4.32,4.64v7.42Z"/><path class="cls-1" d="M146.26,282.78c.05,1.81.92,3.13,2.86,3.13a3.06,3.06,0,0,0,2.78-1.57l3,.49a5.73,5.73,0,0,1-5.75,3.64,5.86,5.86,0,0,1-6.26-6.24c0-3.73,2.38-6.21,6.13-6.21s6,2.59,6,6.32v.43Zm2.83-4.43a2.65,2.65,0,0,0-2.73,2.35h5.53A2.71,2.71,0,0,0,149.09,278.35Z"/><path class="cls-1" d="M12.64,324.47c-3.72,0-6.69-2.32-6.69-6.21s3-6.23,6.72-6.23,6.64,2.35,6.64,6.21S16.34,324.47,12.64,324.47Zm0-9.5a3.28,3.28,0,1,0,3.32,3.29A3.31,3.31,0,0,0,12.61,315Z"/><path class="cls-1" d="M27.57,324.47a6.16,6.16,0,0,1-6.37-6.18A6.24,6.24,0,0,1,27.62,312a6,6,0,0,1,3,.7V316a4,4,0,0,0-2.65-1,3.28,3.28,0,1,0,0,6.56,4,4,0,0,0,2.65-1v3.21A6.25,6.25,0,0,1,27.57,324.47Z"/><path class="cls-1" d="M41.45,324.1v-6.4c0-1.62-.35-2.89-2.24-2.89s-2.48,1.57-2.48,3.29v6H33.46V303.88h3.27v10A4.26,4.26,0,0,1,40.39,312a4.47,4.47,0,0,1,3.4,1.43,4.64,4.64,0,0,1,.92,3.29v7.34Z"/><path class="cls-1" d="M58.32,324.47a6.22,6.22,0,0,1-4.45-1.94l1.73-2a3.8,3.8,0,0,0,2.75,1.38,1.38,1.38,0,0,0,1.49-1.29c0-2-5.21-1-5.21-4.94,0-2.38,2-3.7,4.18-3.7a6,6,0,0,1,3.81,1.24L61,315.13a3.26,3.26,0,0,0-1.94-.78c-.57,0-1.24.35-1.24,1,0,1.7,5.4.94,5.4,4.94C63.21,323,60.83,324.47,58.32,324.47Z"/><path class="cls-1" d="M68.26,318.78c.05,1.81.92,3.13,2.86,3.13a3.06,3.06,0,0,0,2.78-1.57l3,.49a5.73,5.73,0,0,1-5.75,3.64,5.86,5.86,0,0,1-6.26-6.24c0-3.73,2.38-6.21,6.13-6.21s6,2.59,6,6.32v.43Zm2.83-4.43a2.65,2.65,0,0,0-2.73,2.35H73.9A2.71,2.71,0,0,0,71.09,314.35Z"/><path class="cls-1" d="M93.45,324.47a4.68,4.68,0,0,1-3.91-1.92v7.77H86.27V312.41h3.27v1.49A4.66,4.66,0,0,1,93.37,312c3.48,0,5.78,2.89,5.78,6.23S96.88,324.47,93.45,324.47Zm-1-9.5a3.28,3.28,0,1,0,3.27,3.27A3.26,3.26,0,0,0,92.48,315Z"/><path class="cls-1" d="M109.27,315.38a2.89,2.89,0,0,0-1.57-.41c-2.21,0-2.81,1.57-2.81,3.51v5.61h-3.27V312.41h3.27v1.76a3.81,3.81,0,0,1,4.83-1.86Z"/><path class="cls-1" d="M112.94,309.44a2,2,0,0,1,0-3.94,2,2,0,0,1,0,3.94ZM111.3,324.1V312.41h3.27V324.1Z"/><path class="cls-1" d="M121.37,324.47a6.22,6.22,0,0,1-4.45-1.94l1.73-2a3.8,3.8,0,0,0,2.75,1.38,1.38,1.38,0,0,0,1.49-1.29c0-2-5.21-1-5.21-4.94,0-2.38,2-3.7,4.18-3.7a6,6,0,0,1,3.81,1.24L124,315.13a3.26,3.26,0,0,0-1.94-.78c-.57,0-1.24.35-1.24,1,0,1.7,5.4.94,5.4,4.94C126.25,323,123.88,324.47,121.37,324.47Z"/><path class="cls-1" d="M131.3,318.78c.05,1.81.92,3.13,2.86,3.13a3.06,3.06,0,0,0,2.78-1.57l3,.49a5.73,5.73,0,0,1-5.75,3.64,5.86,5.86,0,0,1-6.26-6.24c0-3.73,2.38-6.21,6.13-6.21s6,2.59,6,6.32v.43Zm2.83-4.43a2.65,2.65,0,0,0-2.73,2.35h5.53A2.71,2.71,0,0,0,134.14,314.35Z"/><path class="cls-1" d="M145.85,315.22v8.88h-3.27v-8.88h-1.3v-2.81h1.3v-4h3.27v4h2.29v2.81Z"/><path class="cls-1" d="M15.5,360.1v-1.54a4.51,4.51,0,0,1-3.81,1.92c-3.51,0-5.75-2.91-5.75-6.26S8.18,348,11.61,348a4.87,4.87,0,0,1,3.89,1.86v-10h3.29V360.1ZM12.58,351a3.28,3.28,0,1,0,3.27,3.27A3.26,3.26,0,0,0,12.58,351Z"/><path class="cls-1" d="M23.52,345.44a2,2,0,1,1,0-3.94,2,2,0,0,1,0,3.94ZM21.87,360.1V348.41h3.27V360.1Z"/><path class="cls-1" d="M35.86,351.38a2.89,2.89,0,0,0-1.57-.41c-2.21,0-2.81,1.57-2.81,3.51v5.62H28.22V348.41h3.27v1.75a3.81,3.81,0,0,1,4.83-1.86Z"/><path class="cls-1" d="M40.67,354.78c.05,1.81.92,3.13,2.86,3.13a3.06,3.06,0,0,0,2.78-1.56l3,.48a5.73,5.73,0,0,1-5.75,3.64,5.86,5.86,0,0,1-6.26-6.23c0-3.72,2.38-6.21,6.13-6.21s6,2.59,6,6.32v.43Zm2.83-4.43a2.65,2.65,0,0,0-2.73,2.35h5.53A2.71,2.71,0,0,0,43.5,350.35Z"/><path class="cls-1" d="M59.94,360.1l-4.4-5-.35.35v4.67H51.92V339.88h3.27v12.79l4.37-4.26H64l-5.48,5.13,5.91,6.56Z"/><path class="cls-1" d="M69.18,351.22v8.88H65.91v-8.88h-1.3v-2.81h1.3v-4h3.27v4h2.29v2.81Z"/><path class="cls-1" d="M75,360.45a2.11,2.11,0,1,1,2.11-2.11A2.11,2.11,0,0,1,75,360.45Zm-1.67-5.51V342.09h3.35v12.85Z"/></svg>