<svg id="Layer_1" data-name="Layer 1" xmlns="http://www.w3.org/2000/svg" viewBox="0 0 160 600"><defs><style>.cls-1{fill:#d80201;}</style></defs><title>text</title><path class="cls-1" d="M36.49,263.53c-1.82,2-4.67,1.65-7.11,1.65v6.92H25.74V253.42h5.43c1.85,0,3.48.14,4.93,1.43A6,6,0,0,1,38,259.36,6.12,6.12,0,0,1,36.49,263.53Zm-3.19-6.36a4.35,4.35,0,0,0-2.66-.59H29.38V262h1.49c1.82,0,3.38-.59,3.38-2.69A2.76,2.76,0,0,0,33.3,257.17Z"/><path class="cls-1" d="M48.9,272.1v-1.6a4.68,4.68,0,0,1-3.95,2c-3.64,0-6-3-6-6.5s2.32-6.41,5.88-6.41a5,5,0,0,1,4,1.93V260h3.41V272.1Zm-3-9.47A3.41,3.41,0,1,0,49.26,266,3.38,3.38,0,0,0,45.88,262.63Z"/><path class="cls-1" d="M59.43,272.49a6.44,6.44,0,0,1-4.62-2l1.79-2.07a3.94,3.94,0,0,0,2.85,1.43A1.43,1.43,0,0,0,61,268.48c0-2.07-5.4-1-5.4-5.12,0-2.46,2-3.84,4.34-3.84a6.28,6.28,0,0,1,4,1.29l-1.68,2a3.37,3.37,0,0,0-2-.81c-.59,0-1.29.36-1.29,1,0,1.77,5.6,1,5.6,5.13C64.49,271,62,272.49,59.43,272.49Z"/><path class="cls-1" d="M70.77,272.49a6.44,6.44,0,0,1-4.62-2l1.79-2.07a3.94,3.94,0,0,0,2.85,1.43,1.43,1.43,0,0,0,1.54-1.35c0-2.07-5.4-1-5.4-5.12,0-2.46,2-3.84,4.34-3.84a6.28,6.28,0,0,1,4,1.29l-1.68,2a3.37,3.37,0,0,0-2-.81c-.59,0-1.29.36-1.29,1,0,1.77,5.6,1,5.6,5.13C75.83,271,73.37,272.49,70.77,272.49Z"/><path class="cls-1" d="M87.51,272.1v-1.6a4.67,4.67,0,0,1-4,2c-3.64,0-6-3-6-6.5s2.32-6.41,5.88-6.41a5,5,0,0,1,4,1.93V260h3.42V272.1Zm-3-9.47A3.41,3.41,0,1,0,87.87,266,3.38,3.38,0,0,0,84.49,262.63Z"/><path class="cls-1" d="M108.62,272.49a4.87,4.87,0,0,1-4.06-2v8.06h-3.39V260h3.39v1.54a4.83,4.83,0,0,1,4-1.93c3.61,0,6,3,6,6.47S112.18,272.49,108.62,272.49Zm-1-9.86A3.41,3.41,0,1,0,111,266,3.38,3.38,0,0,0,107.61,262.63Z"/><path class="cls-1" d="M126.37,272.1v-1.6a4.66,4.66,0,0,1-3.94,2c-3.64,0-6-3-6-6.5s2.33-6.41,5.88-6.41a5,5,0,0,1,4,1.93V260h3.42V272.1Zm-3-9.47a3.41,3.41,0,1,0,3.39,3.39A3.38,3.38,0,0,0,123.35,262.63Zm-.48-4.79a2.52,2.52,0,0,1,0-5,2.52,2.52,0,1,1,0,5Zm0-3.5a1,1,0,1,0,0,2,1,1,0,0,0,1-1A1,1,0,0,0,122.87,254.34Z"/><path class="cls-1" d="M45.19,306.09a6.44,6.44,0,0,1-4.62-2L42.36,302a4,4,0,0,0,2.86,1.43,1.43,1.43,0,0,0,1.54-1.35c0-2.07-5.41-1-5.41-5.12,0-2.46,2-3.83,4.34-3.83a6.28,6.28,0,0,1,4,1.28l-1.68,2a3.37,3.37,0,0,0-2-.81c-.58,0-1.28.36-1.28,1,0,1.76,5.6,1,5.6,5.12C50.26,304.58,47.79,306.09,45.19,306.09Z"/><path class="cls-1" d="M55.49,300.18c.06,1.88.95,3.25,3,3.25a3.16,3.16,0,0,0,2.88-1.63l3.14.51a5.94,5.94,0,0,1-6,3.78,6.08,6.08,0,0,1-6.5-6.47c0-3.86,2.46-6.44,6.36-6.44s6.18,2.69,6.18,6.55v.45Zm2.94-4.59A2.75,2.75,0,0,0,55.6,298h5.74A2.8,2.8,0,0,0,58.43,295.59Z"/><path class="cls-1" d="M75.46,305.7V299c0-1.66-.37-2.92-2.3-2.92-2.1,0-2.6,1.54-2.6,3.36v6.28H67.17V293.57h3.39v1.49a4.47,4.47,0,0,1,3.8-1.88A4.19,4.19,0,0,1,78.84,298v7.7Z"/><path class="cls-1" d="M91.36,305.7v-1.6a4.67,4.67,0,0,1-4,2c-3.64,0-6-3-6-6.5s2.32-6.41,5.88-6.41a5,5,0,0,1,4,1.93v-1.54h3.42V305.7Zm-3-9.47a3.41,3.41,0,1,0,3.38,3.39A3.38,3.38,0,0,0,88.34,296.23Z"/><path class="cls-1" d="M101.89,306.09a6.44,6.44,0,0,1-4.62-2L99.06,302a4,4,0,0,0,2.86,1.43,1.43,1.43,0,0,0,1.54-1.35c0-2.07-5.41-1-5.41-5.12,0-2.46,2-3.83,4.34-3.83a6.28,6.28,0,0,1,4,1.28l-1.68,2a3.37,3.37,0,0,0-2-.81c-.58,0-1.28.36-1.28,1,0,1.76,5.6,1,5.6,5.12C107,304.58,104.49,306.09,101.89,306.09Z"/><path class="cls-1" d="M112.78,296.48v9.22h-3.39v-9.22h-1.34v-2.91h1.34v-4.14h3.39v4.14h2.38v2.91Z"/><path class="cls-1" d="M18.42,339.77c-3.47,0-6.52-2.24-6.72-5.85h3.67a2.86,2.86,0,0,0,3.08,2.66,3,3,0,0,0,.08-5.94,5.21,5.21,0,0,0-.67.06v-2.63a2.91,2.91,0,0,0,.51,0,2.54,2.54,0,0,0,.08-5.07c-1.6,0-2.35,1-2.55,2.46H12.46c.53-3.53,2.69-5.35,6.24-5.35,3.11,0,5.69,1.85,5.69,5.16a4.16,4.16,0,0,1-2.16,4,4.61,4.61,0,0,1,2.86,4.6C25.09,337.67,22,339.77,18.42,339.77Z"/><path class="cls-1" d="M33.26,339.3V323.81H30.57v-3.19H36.9V339.3Z"/><path class="cls-1" d="M57.7,339.69c-3.86,0-6.94-2.41-6.94-6.44s3.08-6.47,7-6.47,6.89,2.44,6.89,6.44S61.54,339.69,57.7,339.69Zm0-9.86a3.41,3.41,0,1,0,3.44,3.42A3.43,3.43,0,0,0,57.68,329.83Z"/><path class="cls-1" d="M75.54,339.3,71,334.09l-.37.36v4.85H67.22v-21h3.39V331.6l4.54-4.43h4.59l-5.68,5.32,6.13,6.81Z"/><path class="cls-1" d="M85.12,330.08v9.22H81.73v-9.22H80.38v-2.91h1.35V323h3.39v4.14H87.5v2.91Z"/><path class="cls-1" d="M95.56,339.69c-3.86,0-6.94-2.41-6.94-6.44s3.08-6.47,7-6.47,6.89,2.44,6.89,6.44S99.4,339.69,95.56,339.69Zm0-9.86A3.41,3.41,0,1,0,99,333.25,3.43,3.43,0,0,0,95.53,329.83Z"/><path class="cls-1" d="M112.44,339.69a4.74,4.74,0,0,1-4-2v1.6h-3.39v-21h3.39v10.38a5.13,5.13,0,0,1,4.06-1.93c3.55,0,5.91,3,5.91,6.41S116.08,339.69,112.44,339.69Zm-.92-9.86a3.41,3.41,0,1,0,3.39,3.39A3.38,3.38,0,0,0,111.52,329.83Z"/><path class="cls-1" d="M123.84,333.78c.06,1.88,1,3.25,3,3.25a3.16,3.16,0,0,0,2.88-1.63l3.14.51a6,6,0,0,1-6,3.78,6.07,6.07,0,0,1-6.49-6.47c0-3.86,2.46-6.44,6.35-6.44s6.19,2.69,6.19,6.55v.45Zm2.94-4.59a2.75,2.75,0,0,0-2.83,2.44h5.74A2.81,2.81,0,0,0,126.78,329.19Z"/><path class="cls-1" d="M143.44,330.25a3.08,3.08,0,0,0-1.63-.42c-2.29,0-2.91,1.63-2.91,3.64v5.83h-3.39V327.17h3.39V329a3.91,3.91,0,0,1,3.53-2.21,4,4,0,0,1,1.48.28Z"/><path class="cls-1" d="M147.47,339.66a2.19,2.19,0,1,1,2.18-2.18A2.19,2.19,0,0,1,147.47,339.66ZM145.73,334V320.62h3.48V334Z"/></svg>