<svg id="Layer_1" data-name="Layer 1" xmlns="http://www.w3.org/2000/svg" viewBox="0 0 160 600"><defs><style>.cls-1{fill:#d80201;}</style></defs><title>text</title><path class="cls-1" d="M22.5,241.45l-11-12.52V241.1H8V222.69h2.43l11,12.52V223.09h3.51v18.36Z"/><path class="cls-1" d="M32,247.36h-3.7l4.29-8L27,229.41h3.81L34.33,236l3.35-6.64H41.4Z"/><path class="cls-1" d="M51.29,241.1v-1.54a4.52,4.52,0,0,1-3.81,1.92c-3.51,0-5.75-2.92-5.75-6.26S44,229,47.4,229a4.87,4.87,0,0,1,3.89,1.86v-1.48h3.29V241.1ZM48.37,232a3.28,3.28,0,1,0,3.27,3.27A3.26,3.26,0,0,0,48.37,232Z"/><path class="cls-1" d="M15.51,273.5v-6.4c0-1.62-.35-2.89-2.24-2.89s-2.48,1.57-2.48,3.29v6H7.52V253.28h3.27v10a4.26,4.26,0,0,1,3.67-1.89,4.47,4.47,0,0,1,3.4,1.43,4.63,4.63,0,0,1,.92,3.29v7.34Z"/><path class="cls-1" d="M27.55,273.87c-3.21,0-5.64-1.43-5.64-4.91v-7.15h3.27v6.61c0,1.59.67,2.67,2.38,2.67s2.38-1.08,2.38-2.67v-6.61h3.29V269C33.22,272.44,30.77,273.87,27.55,273.87Z"/><path class="cls-1" d="M40.08,273.87a6.22,6.22,0,0,1-4.45-1.94l1.73-2a3.8,3.8,0,0,0,2.75,1.38,1.38,1.38,0,0,0,1.48-1.3c0-2-5.21-1-5.21-4.94,0-2.37,2-3.7,4.18-3.7a6,6,0,0,1,3.81,1.24l-1.62,1.92a3.26,3.26,0,0,0-1.94-.78c-.57,0-1.24.35-1.24,1,0,1.7,5.4.94,5.4,4.94C45,272.42,42.59,273.87,40.08,273.87Z"/><path class="cls-1" d="M62.22,273.5v-6.4c0-1.38-.22-2.89-1.94-2.89-1.92,0-2.24,1.75-2.24,3.29v6H54.77v-6.21a5.21,5.21,0,0,0-.24-1.94,1.89,1.89,0,0,0-1.75-1.13,2.13,2.13,0,0,0-1.84,1.05,4.86,4.86,0,0,0-.38,2.24v6H47.29V261.81h3.27v1.32a4.49,4.49,0,0,1,3.56-1.7,4,4,0,0,1,3.64,2.13,4.32,4.32,0,0,1,3.83-2.13,3.84,3.84,0,0,1,3.27,1.67,5.15,5.15,0,0,1,.62,2.83v7.56Z"/><path class="cls-1" d="M74.7,273.87c-3.73,0-6.69-2.32-6.69-6.21s3-6.24,6.72-6.24,6.64,2.35,6.64,6.21S78.39,273.87,74.7,273.87Zm0-9.5A3.28,3.28,0,1,0,78,267.67,3.31,3.31,0,0,0,74.67,264.37Z"/><path class="cls-1" d="M92.81,273.5V272A4.52,4.52,0,0,1,89,273.87c-3.51,0-5.75-2.92-5.75-6.26s2.24-6.18,5.67-6.18a4.87,4.87,0,0,1,3.89,1.86v-10h3.29V273.5Zm-2.92-9.12a3.28,3.28,0,1,0,3.27,3.27A3.26,3.26,0,0,0,89.9,264.37Z"/><path class="cls-1" d="M102,268.18c.05,1.81.92,3.13,2.86,3.13a3.06,3.06,0,0,0,2.78-1.57l3,.49a5.73,5.73,0,0,1-5.75,3.64,5.86,5.86,0,0,1-6.26-6.24c0-3.73,2.38-6.21,6.13-6.21s6,2.59,6,6.32v.43Zm2.83-4.43a2.65,2.65,0,0,0-2.73,2.35h5.53A2.71,2.71,0,0,0,104.8,263.75Z"/><path class="cls-1" d="M113.23,273.5V253.28h3.27V273.5Z"/><path class="cls-1" d="M119.62,273.5V253.28h3.27V273.5Z"/><path class="cls-1" d="M128.75,268.18c.05,1.81.92,3.13,2.86,3.13a3.06,3.06,0,0,0,2.78-1.57l3,.49a5.73,5.73,0,0,1-5.75,3.64,5.86,5.86,0,0,1-6.26-6.24c0-3.73,2.38-6.21,6.13-6.21s6,2.59,6,6.32v.43Zm2.83-4.43a2.65,2.65,0,0,0-2.73,2.35h5.53A2.71,2.71,0,0,0,131.58,263.75Z"/><path class="cls-1" d="M147.65,264.78a2.89,2.89,0,0,0-1.57-.4c-2.21,0-2.81,1.57-2.81,3.51v5.61H140V261.81h3.27v1.75a3.81,3.81,0,0,1,4.83-1.86Z"/><path class="cls-1" d="M151.54,273.85a2.11,2.11,0,1,1,2.11-2.11A2.11,2.11,0,0,1,151.54,273.85Zm-1.67-5.51V255.49h3.35v12.85Z"/><path class="cls-1" d="M22.5,306.25l-11-12.53V305.9H8V287.49h2.43l11,12.52V287.89h3.51v18.36Z"/><path class="cls-1" d="M34.2,306.27c-3.21,0-5.64-1.43-5.64-4.91v-7.15h3.27v6.61c0,1.59.67,2.67,2.38,2.67s2.38-1.08,2.38-2.67v-6.61h3.29v7.15C39.87,304.84,37.41,306.27,34.2,306.27Z"/><path class="cls-1" d="M58.68,305.9v-1.54a4.51,4.51,0,0,1-3.81,1.92c-3.51,0-5.75-2.92-5.75-6.26s2.24-6.18,5.67-6.18a4.87,4.87,0,0,1,3.89,1.86v-1.48H62V305.9ZM53,292a1.94,1.94,0,1,1,0-3.89A1.94,1.94,0,0,1,53,292Zm2.73,4.75A3.28,3.28,0,1,0,59,300,3.26,3.26,0,0,0,55.77,296.77ZM58.66,292a2,2,0,0,1-1.94-1.94A1.94,1.94,0,1,1,58.66,292Z"/><path class="cls-1" d="M71.05,306.14H69.54l-6-11.93h3.67l3.08,6.59,3.08-6.59h3.67Z"/><path class="cls-1" d="M80.8,300.58c.05,1.81.92,3.13,2.86,3.13a3.06,3.06,0,0,0,2.78-1.57l3,.49a5.73,5.73,0,0,1-5.75,3.64A5.86,5.86,0,0,1,77.45,300c0-3.73,2.38-6.21,6.13-6.21s6,2.59,6,6.32v.43Zm2.83-4.43a2.65,2.65,0,0,0-2.73,2.35h5.53A2.71,2.71,0,0,0,83.63,296.15Z"/><path class="cls-1" d="M100,305.9v-6.48c0-1.59-.35-2.81-2.21-2.81-2,0-2.51,1.48-2.51,3.24v6H92.06V294.21h3.27v1.43A4.31,4.31,0,0,1,99,293.83a4,4,0,0,1,4.32,4.64v7.42Z"/><path class="cls-1" d="M13,338.73a7,7,0,0,1-6.18-3.43l2.27-2.19a4.13,4.13,0,0,0,3.78,2.4A2.56,2.56,0,0,0,15.67,333c0-3.7-7.91-1.94-7.91-7.75,0-3.19,2.56-5.24,5.61-5.24a7.89,7.89,0,0,1,5.26,2l-1.84,2.4a3.65,3.65,0,0,0-2.92-1.46c-1.16,0-2.51.73-2.51,2,0,3,7.91,1.54,7.91,7.83C19.29,336.46,16.59,338.73,13,338.73Z"/><path class="cls-1" d="M36.81,338.3v-6.4c0-1.38-.22-2.89-1.94-2.89-1.92,0-2.24,1.75-2.24,3.29v6H29.36v-6.21a5.22,5.22,0,0,0-.24-1.94A1.89,1.89,0,0,0,27.37,329a2.13,2.13,0,0,0-1.84,1.05,4.86,4.86,0,0,0-.38,2.24v6H21.89V326.61h3.27v1.32a4.49,4.49,0,0,1,3.56-1.7,4,4,0,0,1,3.64,2.13,4.32,4.32,0,0,1,3.83-2.13,3.84,3.84,0,0,1,3.27,1.67,5.15,5.15,0,0,1,.62,2.83v7.56Z"/><path class="cls-1" d="M52.15,338.3v-1.54a4.51,4.51,0,0,1-3.81,1.92c-3.51,0-5.75-2.92-5.75-6.26s2.24-6.18,5.67-6.18a4.87,4.87,0,0,1,3.89,1.86v-1.48h3.29V338.3Zm-2.92-9.12a3.28,3.28,0,1,0,3.27,3.27A3.26,3.26,0,0,0,49.24,329.17Z"/><path class="cls-1" d="M66.22,329.58a2.89,2.89,0,0,0-1.57-.4c-2.21,0-2.81,1.56-2.81,3.51v5.62H58.58V326.61h3.27v1.75a3.81,3.81,0,0,1,4.83-1.86Z"/><path class="cls-1" d="M72.19,329.42v8.88H68.92v-8.88h-1.3v-2.81h1.3v-4h3.27v4h2.29v2.81Z"/><path class="cls-1" d="M94.57,338.3v-8H87v8H83.44v-18H87v7h7.61v-7h3.51v18Z"/><path class="cls-1" d="M107.77,338.67c-3.73,0-6.69-2.32-6.69-6.21s3-6.24,6.72-6.24,6.64,2.35,6.64,6.21S111.47,338.67,107.77,338.67Zm0-9.5a3.28,3.28,0,1,0,3.32,3.29A3.31,3.31,0,0,0,107.74,329.17Z"/><path class="cls-1" d="M131.88,338.3v-6.4c0-1.38-.22-2.89-1.94-2.89-1.92,0-2.24,1.75-2.24,3.29v6h-3.27v-6.21a5.22,5.22,0,0,0-.24-1.94,1.89,1.89,0,0,0-1.75-1.13,2.13,2.13,0,0,0-1.84,1.05,4.86,4.86,0,0,0-.38,2.24v6H117V326.61h3.27v1.32a4.49,4.49,0,0,1,3.56-1.7,4,4,0,0,1,3.64,2.13,4.32,4.32,0,0,1,3.83-2.13,3.85,3.85,0,0,1,3.27,1.67,5.15,5.15,0,0,1,.62,2.83v7.56Z"/><path class="cls-1" d="M141,333c.05,1.81.92,3.13,2.86,3.13a3.06,3.06,0,0,0,2.78-1.57l3,.49a5.73,5.73,0,0,1-5.75,3.64,5.86,5.86,0,0,1-6.26-6.24c0-3.72,2.38-6.21,6.13-6.21s6,2.59,6,6.32V333Zm2.83-4.43a2.65,2.65,0,0,0-2.73,2.35h5.53A2.71,2.71,0,0,0,143.84,328.55Z"/><path class="cls-1" d="M16.83,370.7,12,363.46h-.43v7.23H8v-18h5.21A7.42,7.42,0,0,1,17.83,354a5.25,5.25,0,0,1,1.78,4,5.94,5.94,0,0,1-1,3.29,4.64,4.64,0,0,1-3.08,1.78l5.67,7.59ZM12.6,355.55H11.54V361h1c1.81,0,3.46-.65,3.46-2.72S14.41,355.55,12.6,355.55Z"/><path class="cls-1" d="M25.48,365.38c.05,1.81.92,3.13,2.86,3.13a3.06,3.06,0,0,0,2.78-1.56l3,.48a5.73,5.73,0,0,1-5.75,3.64,5.86,5.86,0,0,1-6.26-6.23c0-3.72,2.38-6.21,6.13-6.21s6,2.59,6,6.32v.43ZM28.31,361a2.65,2.65,0,0,0-2.73,2.35h5.53A2.71,2.71,0,0,0,28.31,361Z"/><path class="cls-1" d="M45.67,370.7v-1.54a4.51,4.51,0,0,1-3.81,1.92c-3.51,0-5.75-2.91-5.75-6.26s2.24-6.18,5.67-6.18a4.87,4.87,0,0,1,3.89,1.86V359H49V370.7Zm-2.92-9.12A3.28,3.28,0,1,0,46,364.84,3.26,3.26,0,0,0,42.76,361.57Z"/><path class="cls-1" d="M61,370.7v-1.54a4.51,4.51,0,0,1-3.81,1.92c-3.51,0-5.75-2.91-5.75-6.26s2.24-6.18,5.67-6.18A4.87,4.87,0,0,1,61,360.49v-10h3.29V370.7Zm-2.92-9.12a3.28,3.28,0,1,0,3.27,3.27A3.26,3.26,0,0,0,58.12,361.57Z"/><path class="cls-1" d="M70.86,377h-3.7l4.29-8L65.92,359h3.81l3.51,6.64L76.58,359h3.73Z"/></svg>