<svg id="Layer_1" data-name="Layer 1" xmlns="http://www.w3.org/2000/svg" viewBox="0 0 160 600"><defs><style>.cls-1{fill:#d80201;}</style></defs><title>text</title><path class="cls-1" d="M60.45,291.54A7.28,7.28,0,0,1,54,288l2.35-2.27a4.28,4.28,0,0,0,3.92,2.49,2.66,2.66,0,0,0,2.88-2.63c0-3.84-8.2-2-8.2-8,0-3.3,2.66-5.43,5.82-5.43a8.19,8.19,0,0,1,5.46,2.07l-1.9,2.49a3.78,3.78,0,0,0-3-1.51c-1.2,0-2.6.76-2.6,2.1,0,3.16,8.2,1.6,8.2,8.12C66.94,289.19,64.14,291.54,60.45,291.54Z"/><path class="cls-1" d="M73.47,281.88v9.21H70.08v-9.21H68.74V279h1.34v-4.14h3.39V279h2.38v2.91Z"/><path class="cls-1" d="M83.91,291.49C80,291.49,77,289.08,77,285s3.08-6.47,7-6.47S90.83,281,90.83,285,87.75,291.49,83.91,291.49Zm0-9.86A3.4,3.4,0,1,0,87.33,285,3.43,3.43,0,0,0,83.88,281.63Z"/><path class="cls-1" d="M101.36,282.05a3,3,0,0,0-1.62-.42c-2.3,0-2.91,1.62-2.91,3.64v5.82H93.43V279h3.39v1.82a4,4,0,0,1,5-1.93Z"/><path class="cls-1" d="M16.15,324.95H14.59L8.4,312.57h3.81l3.19,6.83,3.19-6.83H22.4Z"/><path class="cls-1" d="M33.32,324.7v-1.6a4.68,4.68,0,0,1-3.95,2c-3.64,0-6-3-6-6.5s2.32-6.41,5.88-6.41a5.05,5.05,0,0,1,4,1.93v-1.54h3.42V324.7Zm-3-9.46a3.4,3.4,0,1,0,3.39,3.39A3.38,3.38,0,0,0,30.29,315.23Zm-.48-4.79a2.52,2.52,0,0,1,0-5,2.52,2.52,0,0,1,0,5Zm0-3.5a1,1,0,1,0,1,1A1,1,0,0,0,29.82,306.95Z"/><path class="cls-1" d="M47.9,315.65a3,3,0,0,0-1.62-.42c-2.3,0-2.91,1.63-2.91,3.64v5.82H40V312.57h3.39v1.82a4,4,0,0,1,5-1.93Z"/><path class="cls-1" d="M58.38,324.7l-4.56-5.21-.36.37v4.84H50.06v-21h3.39V317L58,312.57h4.59l-5.68,5.32L63,324.7Z"/><path class="cls-1" d="M73.16,324.7v-1.6a4.68,4.68,0,0,1-3.95,2c-3.64,0-6-3-6-6.5s2.32-6.41,5.88-6.41a5.05,5.05,0,0,1,4,1.93v-1.54h3.42V324.7Zm-3-9.46a3.4,3.4,0,1,0,3.39,3.39A3.38,3.38,0,0,0,70.14,315.23Z"/><path class="cls-1" d="M95.31,324.7v-6.64c0-1.43-.22-3-2-3-2,0-2.32,1.82-2.32,3.42v6.22H87.58v-6.44a5.41,5.41,0,0,0-.25-2,2,2,0,0,0-1.82-1.18,2.21,2.21,0,0,0-1.9,1.09,5,5,0,0,0-.39,2.32v6.22H79.82V312.57h3.39v1.37a4.65,4.65,0,0,1,3.7-1.76,4.12,4.12,0,0,1,3.78,2.21,4.49,4.49,0,0,1,4-2.21,4,4,0,0,1,3.39,1.74,5.34,5.34,0,0,1,.64,2.94v7.84Z"/><path class="cls-1" d="M109.39,325.09a4.85,4.85,0,0,1-4.06-2v8.06h-3.39V312.57h3.39v1.54a4.83,4.83,0,0,1,4-1.93c3.61,0,6,3,6,6.47S112.95,325.09,109.39,325.09Zm-1-9.86a3.4,3.4,0,1,0,3.39,3.39A3.38,3.38,0,0,0,108.38,315.23Z"/><path class="cls-1" d="M127.14,324.7v-1.6a4.68,4.68,0,0,1-3.95,2c-3.64,0-6-3-6-6.5s2.32-6.41,5.88-6.41a5.05,5.05,0,0,1,4,1.93v-1.54h3.42V324.7Zm-3-9.46a3.4,3.4,0,1,0,3.39,3.39A3.38,3.38,0,0,0,124.12,315.23Z"/><path class="cls-1" d="M142.1,324.7V318c0-1.65-.36-2.91-2.3-2.91-2.1,0-2.6,1.54-2.6,3.36v6.27h-3.39V312.57h3.39v1.48a4.48,4.48,0,0,1,3.81-1.88,4.19,4.19,0,0,1,4.48,4.82v7.7Z"/><path class="cls-1" d="M150.38,309.49a2,2,0,1,1,0-4.09,2,2,0,0,1,0,4.09Zm-1.71,21.67V312.57h3.39v18.59Z"/></svg>