<svg id="Layer_1" data-name="Layer 1" xmlns="http://www.w3.org/2000/svg" viewBox="0 0 160 600"><defs><style>.cls-1{fill:#d80201;}</style></defs><title>text</title><path class="cls-1" d="M27,276.58V292.1H23.37V276.58H19.2v-3.16h12v3.16Z"/><path class="cls-1" d="M34.68,276.89a2,2,0,1,1,0-4.09,2,2,0,0,1,0,4.09ZM33,292.1V280h3.39V292.1Z"/><path class="cls-1" d="M39.55,292.1v-21h3.39v21Z"/><path class="cls-1" d="M46.19,292.1v-21h3.39v21Z"/><path class="cls-1" d="M59,292.35H57.42L51.23,280H55l3.19,6.83L61.42,280h3.81Z"/><path class="cls-1" d="M75.53,292.1v-1.6a4.68,4.68,0,0,1-3.95,2c-3.64,0-6-3-6-6.5s2.32-6.41,5.88-6.41a5.05,5.05,0,0,1,4,1.93V280h3.42V292.1Zm-3-9.46A3.4,3.4,0,1,0,75.9,286,3.38,3.38,0,0,0,72.51,282.63Z"/><path class="cls-1" d="M82.2,292.1v-21h3.39v21Z"/><path class="cls-1" d="M99.33,282.88v9.21H95.94v-9.21H94.63V280h1.32v-3.89a5.91,5.91,0,0,1,.53-2.86,4.8,4.8,0,0,1,4.2-2.44,4,4,0,0,1,1.79.42v3.11a3.38,3.38,0,0,0-1.54-.45c-1.51,0-1.6,1.57-1.6,2.72V280h3.14v2.91Z"/><path class="cls-1" d="M110.33,292.49c-3.86,0-6.94-2.41-6.94-6.44s3.08-6.47,7-6.47,6.89,2.44,6.89,6.44S114.17,292.49,110.33,292.49Zm-2.94-14.78a2,2,0,0,1,0-4,2,2,0,1,1,0,4Zm2.91,4.93a3.4,3.4,0,1,0,3.44,3.42A3.43,3.43,0,0,0,110.31,282.63Zm2.91-4.93a2,2,0,0,1-2-2,2,2,0,1,1,2,2Z"/><path class="cls-1" d="M127.78,283.05a3,3,0,0,0-1.62-.42c-2.3,0-2.91,1.62-2.91,3.64v5.82h-3.39V280h3.39v1.82a4,4,0,0,1,5-1.93Z"/><path class="cls-1" d="M25.69,328.57a8,8,0,0,1-6-2.44l1.2-3.14a6.26,6.26,0,0,0,4.7,2.38,3.7,3.7,0,0,0,3.72-3.61c0-2.3-2.13-3.72-4.26-3.72a6.17,6.17,0,0,0-3.58,1.18h-.2l2.21-9.8h8.62v3.19H26l-.73,2.88a11.6,11.6,0,0,1,1.37-.11A6.27,6.27,0,0,1,33,321.91C33,326.14,29.7,328.57,25.69,328.57Z"/><path class="cls-1" d="M42.8,328.57c-5.15,0-7.22-5.43-7.22-9.8s2-9.83,7.22-9.83,7.22,5.4,7.22,9.8S48,328.57,42.8,328.57Zm0-16.41c-2.86,0-3.58,4.42-3.58,6.58s.73,6.64,3.58,6.64,3.58-4.48,3.58-6.64S45.66,312.16,42.8,312.16Z"/><path class="cls-1" d="M65.67,328.57c-5.15,0-7.22-5.43-7.22-9.8s2-9.83,7.22-9.83,7.22,5.4,7.22,9.8S70.86,328.57,65.67,328.57Zm0-16.41c-2.86,0-3.58,4.42-3.58,6.58s.73,6.64,3.58,6.64,3.58-4.48,3.58-6.64S68.53,312.16,65.67,312.16Z"/><path class="cls-1" d="M81.55,328.57c-5.15,0-7.22-5.43-7.22-9.8s2-9.83,7.22-9.83,7.22,5.4,7.22,9.8S86.73,328.57,81.55,328.57Zm0-16.41c-2.86,0-3.58,4.42-3.58,6.58s.73,6.64,3.58,6.64,3.58-4.48,3.58-6.64S84.41,312.16,81.55,312.16Z"/><path class="cls-1" d="M97.43,328.57c-5.15,0-7.22-5.43-7.22-9.8s2-9.83,7.22-9.83,7.22,5.4,7.22,9.8S102.61,328.57,97.43,328.57Zm0-16.41c-2.86,0-3.58,4.42-3.58,6.58s.73,6.64,3.58,6.64,3.58-4.48,3.58-6.64S100.28,312.16,97.43,312.16Z"/><path class="cls-1" d="M122.32,328.1l-4.56-5.21-.36.36v4.84H114v-21h3.39V320.4l4.54-4.42h4.59l-5.68,5.32,6.13,6.8Z"/><path class="cls-1" d="M136.4,319.05a3,3,0,0,0-1.62-.42c-2.3,0-2.91,1.62-2.91,3.64v5.82h-3.39V316h3.39v1.82a4,4,0,0,1,5-1.93Z"/></svg>