<svg id="Layer_1" data-name="Layer 1" xmlns="http://www.w3.org/2000/svg" viewBox="0 0 250 500"><defs><style>.cls-1{fill:#d80201;}</style></defs><title>text</title><path class="cls-1" d="M64.44,258.46c-2,2.17-5.18,1.83-7.88,1.83V268h-4V247.27h6c2,0,3.84.16,5.46,1.58a6.58,6.58,0,0,1,2.11,5A6.79,6.79,0,0,1,64.44,258.46Zm-3.54-7a4.82,4.82,0,0,0-2.95-.65h-1.4v6H58.2c2,0,3.75-.65,3.75-3A3.06,3.06,0,0,0,60.9,251.43Z"/><path class="cls-1" d="M77.3,257.94a3.32,3.32,0,0,0-1.8-.46c-2.54,0-3.22,1.8-3.22,4V268H68.52V254.53h3.75v2a4.38,4.38,0,0,1,5.55-2.14Z"/><path class="cls-1" d="M82.81,261.84c.06,2.08,1.05,3.6,3.29,3.6a3.52,3.52,0,0,0,3.19-1.8l3.47.56a6.58,6.58,0,0,1-6.6,4.19c-4.34,0-7.19-2.79-7.19-7.16s2.73-7.13,7-7.13,6.85,3,6.85,7.26v.5Zm3.26-5.08a3,3,0,0,0-3.13,2.7H89.3A3.11,3.11,0,0,0,86.07,256.76Z"/><path class="cls-1" d="M112.89,268V260.6c0-1.58-.25-3.32-2.23-3.32-2.2,0-2.57,2-2.57,3.78V268h-3.75v-7.13a6,6,0,0,0-.28-2.23,2.17,2.17,0,0,0-2-1.3,2.45,2.45,0,0,0-2.11,1.21,5.57,5.57,0,0,0-.43,2.57V268H95.74V254.53h3.75V256a5.16,5.16,0,0,1,4.09-2,4.56,4.56,0,0,1,4.19,2.45,5,5,0,0,1,4.4-2.45,4.42,4.42,0,0,1,3.75,1.92,5.91,5.91,0,0,1,.71,3.26V268Z"/><path class="cls-1" d="M122.06,251.12a2.26,2.26,0,1,1,0-4.53,2.26,2.26,0,0,1,0,4.53ZM120.17,268V254.53h3.75V268Z"/><path class="cls-1" d="M137.72,268v-1.77a5.19,5.19,0,0,1-4.37,2.2c-4,0-6.6-3.35-6.6-7.19s2.57-7.1,6.51-7.1a5.59,5.59,0,0,1,4.46,2.14v-1.71h3.78V268ZM131.24,252a2.23,2.23,0,1,1,0-4.46,2.23,2.23,0,1,1,0,4.46Zm3.13,5.46a3.77,3.77,0,1,0,3.75,3.75A3.75,3.75,0,0,0,134.37,257.47Zm3.32-5.46a2.26,2.26,0,0,1-2.23-2.23,2.23,2.23,0,1,1,2.23,2.23Z"/><path class="cls-1" d="M153.87,257.94a3.32,3.32,0,0,0-1.8-.46c-2.54,0-3.22,1.8-3.22,4V268h-3.75V254.53h3.75v2a4.38,4.38,0,0,1,5.55-2.14Z"/><path class="cls-1" d="M167.88,257.75V268h-3.75v-10.2h-1.46v-3.22h1.46v-4.31a6.54,6.54,0,0,1,.59-3.16,5.32,5.32,0,0,1,4.65-2.7,4.44,4.44,0,0,1,2,.46v3.44a3.74,3.74,0,0,0-1.71-.5c-1.67,0-1.77,1.74-1.77,3v3.75h3.47v3.22Z"/><path class="cls-1" d="M180.06,268.39c-4.28,0-7.69-2.67-7.69-7.13s3.41-7.16,7.72-7.16,7.63,2.7,7.63,7.13S184.31,268.39,180.06,268.39ZM176.81,252a2.23,2.23,0,1,1,0-4.46,2.23,2.23,0,1,1,0,4.46Zm3.22,5.46a3.77,3.77,0,1,0,3.81,3.78A3.8,3.8,0,0,0,180,257.47Zm3.22-5.46a2.26,2.26,0,0,1-2.23-2.23,2.23,2.23,0,1,1,2.23,2.23Z"/><path class="cls-1" d="M199.37,257.94a3.32,3.32,0,0,0-1.8-.46c-2.54,0-3.22,1.8-3.22,4V268H190.6V254.53h3.75v2a4.38,4.38,0,0,1,5.55-2.14Z"/><path class="cls-1" d="M28.92,294.75V305H25.17v-10.2H23.71v-3.22h1.46v-4.31a6.55,6.55,0,0,1,.59-3.16,5.32,5.32,0,0,1,4.65-2.7,4.45,4.45,0,0,1,2,.46v3.44a3.75,3.75,0,0,0-1.71-.5c-1.67,0-1.77,1.74-1.77,3v3.75H32.4v3.22Z"/><path class="cls-1" d="M42.9,294.94a3.32,3.32,0,0,0-1.8-.46c-2.54,0-3.22,1.8-3.22,4V305H34.13V291.53h3.75v2a4.38,4.38,0,0,1,5.55-2.14Z"/><path class="cls-1" d="M55.55,305v-1.77a5.19,5.19,0,0,1-4.37,2.2c-4,0-6.6-3.35-6.6-7.19s2.57-7.1,6.51-7.1a5.59,5.59,0,0,1,4.46,2.14v-1.71h3.78V305ZM52.2,294.47A3.77,3.77,0,1,0,56,298.22,3.75,3.75,0,0,0,52.2,294.47Z"/><path class="cls-1" d="M80.07,305V297.6c0-1.58-.25-3.32-2.23-3.32-2.2,0-2.57,2-2.57,3.78V305H71.52v-7.13a6,6,0,0,0-.28-2.23,2.17,2.17,0,0,0-2-1.3,2.45,2.45,0,0,0-2.11,1.21,5.57,5.57,0,0,0-.43,2.57V305H62.93V291.53h3.75V293a5.16,5.16,0,0,1,4.09-2A4.56,4.56,0,0,1,75,293.54a5,5,0,0,1,4.4-2.45A4.42,4.42,0,0,1,83.11,293a5.91,5.91,0,0,1,.71,3.26V305Z"/><path class="cls-1" d="M91.2,294.75V305H87.45v-10.2H86v-3.22h1.49v-4.59H91.2v4.59h2.64v3.22Z"/><path class="cls-1" d="M97.62,288.12a2.26,2.26,0,1,1,0-4.53,2.26,2.26,0,0,1,0,4.53ZM95.73,305V291.53h3.75V305Z"/><path class="cls-1" d="M113.27,305v-1.77a5.19,5.19,0,0,1-4.37,2.2c-4,0-6.6-3.35-6.6-7.19s2.57-7.1,6.51-7.1a5.6,5.6,0,0,1,4.46,2.14v-11.5h3.78V305Zm-3.35-10.48a3.77,3.77,0,1,0,3.75,3.75A3.75,3.75,0,0,0,109.92,294.47Z"/><path class="cls-1" d="M123.78,298.84c.06,2.08,1.05,3.6,3.29,3.6a3.52,3.52,0,0,0,3.19-1.8l3.47.56a6.58,6.58,0,0,1-6.6,4.19c-4.34,0-7.19-2.79-7.19-7.16s2.73-7.13,7-7.13,6.85,3,6.85,7.26v.5Zm3.26-5.08a3,3,0,0,0-3.13,2.7h6.36A3.11,3.11,0,0,0,127,293.76Z"/><path class="cls-1" d="M145.88,305v-7.44c0-1.83-.4-3.22-2.54-3.22-2.33,0-2.88,1.71-2.88,3.72V305h-3.75V291.53h3.75v1.64a5,5,0,0,1,4.22-2.08,4.64,4.64,0,0,1,5,5.33V305Z"/><path class="cls-1" d="M157.51,305.39a7.14,7.14,0,0,1-5.12-2.23l2-2.29a4.36,4.36,0,0,0,3.16,1.58,1.58,1.58,0,0,0,1.71-1.49c0-2.29-6-1.15-6-5.67,0-2.73,2.26-4.25,4.81-4.25a6.92,6.92,0,0,1,4.37,1.43l-1.86,2.2a3.75,3.75,0,0,0-2.23-.9c-.65,0-1.43.4-1.43,1.15,0,2,6.2,1.08,6.2,5.67C163.12,303.71,160.39,305.39,157.51,305.39Z"/><path class="cls-1" d="M180.35,305.23h-1.74l-6.85-13.7H176l3.54,7.57,3.53-7.57h4.22Z"/><path class="cls-1" d="M190.93,288.12a2.26,2.26,0,1,1,0-4.53,2.26,2.26,0,0,1,0,4.53ZM189,305V291.53h3.75V305Z"/><path class="cls-1" d="M196.32,305V281.73h3.75V305Z"/><path class="cls-1" d="M203.67,305V281.73h3.75V305Z"/><path class="cls-1" d="M221.27,305v-1.77a5.19,5.19,0,0,1-4.37,2.2c-4,0-6.6-3.35-6.6-7.19s2.57-7.1,6.51-7.1a5.59,5.59,0,0,1,4.46,2.14v-1.71h3.78V305Zm-3.35-10.48a3.77,3.77,0,1,0,3.75,3.75A3.75,3.75,0,0,0,217.93,294.47Z"/></svg>