<svg id="Layer_1" data-name="Layer 1" xmlns="http://www.w3.org/2000/svg" viewBox="0 0 250 360"><defs><style>.cls-1{fill:#d80201;}.cls-2{fill:#fff;}</style></defs><title>text</title><rect class="cls-1" x="60.3" y="286" width="129.39" height="20.89" rx="10.44" ry="10.44"/><path class="cls-2" d="M82,293.75v1.8h2.55v1.38H82v3.57H80.39v-8.13h4.3v1.38Z"/><path class="cls-2" d="M90,300.69a4.22,4.22,0,0,1-4.34-4.23A4.35,4.35,0,1,1,90,300.69Zm0-7a2.81,2.81,0,1,0,2.72,2.79A2.76,2.76,0,0,0,90,293.64Z"/><path class="cls-2" d="M99.79,300.5l-2.19-3.27h-.2v3.27H95.81v-8.13h2.35a3.35,3.35,0,0,1,2.07.58,2.37,2.37,0,0,1,.8,1.83,2.69,2.69,0,0,1-.46,1.49,2.1,2.1,0,0,1-1.39.8l2.56,3.43Zm-1.91-6.84H97.4v2.45h.45c.82,0,1.56-.29,1.56-1.23S98.69,293.66,97.88,293.66Z"/><path class="cls-2" d="M105.37,293.75v6.75h-1.58v-6.75H102v-1.38h5.23v1.38Z"/><path class="cls-2" d="M110.47,300.7a3.17,3.17,0,0,1-2.79-1.55l1-1a1.86,1.86,0,0,0,1.71,1.08,1.16,1.16,0,0,0,1.26-1.15c0-1.67-3.57-.88-3.57-3.5a2.39,2.39,0,0,1,2.54-2.37,3.57,3.57,0,0,1,2.38.9l-.83,1.09a1.65,1.65,0,0,0-1.32-.66c-.52,0-1.13.33-1.13.92,0,1.38,3.57.69,3.57,3.54A2.63,2.63,0,0,1,110.47,300.7Z"/><path class="cls-2" d="M120.21,300.5l-.69-1.72H116.2l-.74,1.72h-1.68l3.52-8.3h1.2l3.43,8.3Zm-3.73-9a.89.89,0,0,1-.88-.88.88.88,0,1,1,.88.88Zm1.4,3.1-1.18,2.93H119Zm1.33-3.1a.89.89,0,0,1-.88-.88.88.88,0,1,1,.88.88Z"/><path class="cls-2" d="M125,293.75v6.75h-1.58v-6.75h-1.82v-1.38h5.23v1.38Z"/><path class="cls-2" d="M130.42,293.75v6.75h-1.58v-6.75H127v-1.38h5.23v1.38Z"/><path class="cls-2" d="M142.85,300.66l-5-5.66v5.5h-1.58v-8.31h1.1l5,5.66v-5.47H144v8.29Z"/><path class="cls-2" d="M151.75,299.52a3.37,3.37,0,0,1-2.67,1.17,3.32,3.32,0,0,1-2.67-1.17,3.51,3.51,0,0,1-.6-2.17v-5h1.58V297a2.75,2.75,0,0,0,.26,1.46,1.64,1.64,0,0,0,1.43.76,1.68,1.68,0,0,0,1.43-.76,2.62,2.62,0,0,0,.26-1.46v-4.66h1.58v5A3.43,3.43,0,0,1,151.75,299.52Z"/><polygon class="cls-2" points="165.62 297.46 157.06 297.46 157.06 295.28 165.62 295.28 165.62 291.98 171.71 296.37 165.62 300.58 165.62 297.46"/></svg>