<svg id="Layer_1" data-name="Layer 1" xmlns="http://www.w3.org/2000/svg" viewBox="0 0 250 360"><defs><style>.cls-1{fill:#d80201;}</style></defs><title>text</title><path class="cls-1" d="M56.49,158.11a6.49,6.49,0,0,1-5.72-3.17l2.1-2a3.82,3.82,0,0,0,3.5,2.22,2.37,2.37,0,0,0,2.57-2.35c0-3.42-7.32-1.8-7.32-7.17a4.89,4.89,0,0,1,5.2-4.85,7.31,7.31,0,0,1,4.87,1.85L60,144.84a3.37,3.37,0,0,0-2.7-1.35c-1.07,0-2.32.67-2.32,1.87,0,2.82,7.32,1.42,7.32,7.25C62.29,156,59.79,158.11,56.49,158.11Z"/><path class="cls-1" d="M70.19,157.93h-1.4l-5.52-11h3.4l2.85,6.1,2.85-6.1h3.4Z"/><path class="cls-1" d="M85,157.71v-1.42a4.18,4.18,0,0,1-3.52,1.77c-3.25,0-5.32-2.7-5.32-5.8s2.07-5.72,5.25-5.72a4.51,4.51,0,0,1,3.6,1.72v-1.37h3v10.82Zm-2.7-8.45a3,3,0,1,0,3,3A3,3,0,0,0,82.27,149.26Z"/><path class="cls-1" d="M98.32,157.71v-6c0-1.47-.32-2.6-2-2.6-1.87,0-2.32,1.38-2.32,3v5.6h-3V146.89h3v1.32a4,4,0,0,1,3.4-1.67,3.74,3.74,0,0,1,4,4.3v6.87Z"/><path class="cls-1" d="M106.77,152.79c0,1.67.85,2.9,2.65,2.9a2.84,2.84,0,0,0,2.57-1.45l2.8.45a5.31,5.31,0,0,1-5.32,3.37,5.42,5.42,0,0,1-5.8-5.77,5.36,5.36,0,0,1,5.67-5.75c3.57,0,5.52,2.4,5.52,5.85v.4Zm2.62-4.1a2.45,2.45,0,0,0-2.52,2.17H112A2.51,2.51,0,0,0,109.39,148.69Z"/><path class="cls-1" d="M124.59,157.71v-6c0-1.47-.32-2.6-2-2.6-1.87,0-2.32,1.38-2.32,3v5.6h-3V146.89h3v1.32a4,4,0,0,1,3.4-1.67,3.74,3.74,0,0,1,4,4.3v6.87Z"/><path class="cls-1" d="M144.34,157.71v-5.92c0-1.27-.2-2.67-1.8-2.67-1.77,0-2.08,1.63-2.08,3v5.55h-3V152a4.81,4.81,0,0,0-.23-1.8,1.75,1.75,0,0,0-1.62-1,2,2,0,0,0-1.7,1,4.5,4.5,0,0,0-.35,2.07v5.55h-3V146.89h3v1.22a4.16,4.16,0,0,1,3.3-1.57,3.68,3.68,0,0,1,3.38,2,4,4,0,0,1,3.55-2,3.56,3.56,0,0,1,3,1.55,4.77,4.77,0,0,1,.57,2.62v7Z"/><path class="cls-1" d="M158.54,157.71v-1.42a4.18,4.18,0,0,1-3.52,1.77c-3.25,0-5.32-2.7-5.32-5.8s2.07-5.72,5.25-5.72a4.51,4.51,0,0,1,3.6,1.72v-1.37h3v10.82Zm-5.22-12.85a1.8,1.8,0,1,1,0-3.6,1.8,1.8,0,0,1,0,3.6Zm2.52,4.4a3,3,0,1,0,3,3A3,3,0,0,0,155.84,149.26Zm2.67-4.4a1.83,1.83,0,0,1-1.8-1.8,1.8,1.8,0,1,1,1.8,1.8Z"/><path class="cls-1" d="M171.57,149.64a2.68,2.68,0,0,0-1.45-.37c-2,0-2.6,1.45-2.6,3.25v5.2h-3V146.89h3v1.62a3.53,3.53,0,0,1,4.47-1.72Z"/><path class="cls-1" d="M180.92,157.71l-4.07-4.65-.33.33v4.32h-3V139h3v11.85l4-3.95h4.1l-5.07,4.75,5.47,6.07Z"/><path class="cls-1" d="M189.47,149.49v8.22h-3v-8.22h-1.2v-2.6h1.2v-3.7h3v3.7h2.12v2.6Z"/><path class="cls-1" d="M201.44,157.71v-1.42a4.18,4.18,0,0,1-3.52,1.77c-3.25,0-5.32-2.7-5.32-5.8s2.07-5.72,5.25-5.72a4.51,4.51,0,0,1,3.6,1.72v-1.37h3v10.82Zm-2.7-8.45a3,3,0,1,0,3,3A3,3,0,0,0,198.74,149.26Z"/><path class="cls-1" d="M58.79,187.71v-5.92c0-1.5-.33-2.67-2.07-2.67s-2.3,1.45-2.3,3v5.55h-3V169h3v9.3a3.94,3.94,0,0,1,3.4-1.75A4.14,4.14,0,0,1,61,177.86a4.29,4.29,0,0,1,.85,3v6.8Z"/><path class="cls-1" d="M69.94,188.06c-3,0-5.22-1.32-5.22-4.55v-6.62h3V183c0,1.47.62,2.47,2.2,2.47s2.2-1,2.2-2.47v-6.12h3v6.62C75.19,186.74,72.92,188.06,69.94,188.06Z"/><path class="cls-1" d="M81.54,188.06a5.76,5.76,0,0,1-4.12-1.8l1.6-1.85a3.51,3.51,0,0,0,2.55,1.28,1.27,1.27,0,0,0,1.37-1.2c0-1.85-4.82-.92-4.82-4.57,0-2.2,1.82-3.42,3.87-3.42a5.58,5.58,0,0,1,3.52,1.15L84,179.41a3,3,0,0,0-1.8-.73c-.52,0-1.15.33-1.15.92,0,1.58,5,.88,5,4.57C86.07,186.71,83.87,188.06,81.54,188.06Z"/><path class="cls-1" d="M97.59,179.49v8.22h-3v-8.22H93.39v-2.6h1.17v-3.47a5.28,5.28,0,0,1,.47-2.55,4.28,4.28,0,0,1,3.75-2.17,3.58,3.58,0,0,1,1.6.38v2.77a3,3,0,0,0-1.38-.4c-1.35,0-1.42,1.4-1.42,2.42v3h2.8v2.6Z"/><path class="cls-1" d="M107.42,188.06c-3.45,0-6.2-2.15-6.2-5.75s2.75-5.77,6.22-5.77,6.15,2.17,6.15,5.75S110.84,188.06,107.42,188.06Zm-2.62-13.2a1.8,1.8,0,0,1,0-3.6,1.8,1.8,0,1,1,0,3.6Zm2.6,4.4a3,3,0,1,0,3.07,3A3.06,3.06,0,0,0,107.39,179.26Zm2.6-4.4a1.83,1.83,0,0,1-1.8-1.8,1.8,1.8,0,1,1,1.8,1.8Z"/><path class="cls-1" d="M123,179.64a2.68,2.68,0,0,0-1.45-.37c-2,0-2.6,1.45-2.6,3.25v5.2h-3V176.89h3v1.62a3.53,3.53,0,0,1,4.47-1.72Z"/><path class="cls-1" d="M133.69,182.79c0,1.67.85,2.9,2.65,2.9a2.84,2.84,0,0,0,2.57-1.45l2.8.45a5.31,5.31,0,0,1-5.32,3.37,5.43,5.43,0,0,1-5.8-5.77,5.36,5.36,0,0,1,5.67-5.75c3.57,0,5.52,2.4,5.52,5.85v.4Zm2.62-4.1a2.46,2.46,0,0,0-2.52,2.17h5.12A2.51,2.51,0,0,0,136.32,178.69Z"/><path class="cls-1" d="M151.52,187.71v-6c0-1.47-.33-2.6-2-2.6s-2.32,1.38-2.32,3v5.6h-3V176.89h3v1.32a4,4,0,0,1,3.4-1.67,3.74,3.74,0,0,1,4,4.3v6.87Z"/><path class="cls-1" d="M167.14,188.06a5.75,5.75,0,0,1-4.12-1.8l1.6-1.85a3.51,3.51,0,0,0,2.55,1.28,1.27,1.27,0,0,0,1.38-1.2c0-1.85-4.82-.92-4.82-4.57,0-2.2,1.83-3.42,3.87-3.42a5.57,5.57,0,0,1,3.52,1.15l-1.5,1.77a3,3,0,0,0-1.8-.73c-.53,0-1.15.33-1.15.92,0,1.58,5,.88,5,4.57C171.67,186.71,169.47,188.06,167.14,188.06Z"/><path class="cls-1" d="M179,188.06c-3,0-5.22-1.32-5.22-4.55v-6.62h3V183c0,1.47.63,2.47,2.2,2.47s2.2-1,2.2-2.47v-6.12h3v6.62C184.29,186.74,182,188.06,179,188.06Z"/><path class="cls-1" d="M194.59,187.71v-6c0-1.47-.33-2.6-2-2.6-1.87,0-2.33,1.38-2.33,3v5.6h-3V176.89h3v1.32a4,4,0,0,1,3.4-1.67,3.74,3.74,0,0,1,4,4.3v6.87Z"/><path class="cls-1" d="M208.79,187.71v-1.42a4.18,4.18,0,0,1-3.52,1.77c-3.25,0-5.32-2.7-5.32-5.8s2.07-5.72,5.25-5.72a4.51,4.51,0,0,1,3.6,1.72V169h3v18.72Zm-2.7-8.45a3,3,0,1,0,3,3A3,3,0,0,0,206.09,179.26Z"/><path class="cls-1" d="M52.87,204.14a1.82,1.82,0,0,1,0-3.65,1.82,1.82,0,0,1,0,3.65Zm-1.52,13.57V206.89h3v10.82Z"/><path class="cls-1" d="M64.62,217.71v-6c0-1.47-.32-2.6-2-2.6-1.87,0-2.32,1.38-2.32,3v5.6h-3V206.89h3v1.32a4,4,0,0,1,3.4-1.67,3.74,3.74,0,0,1,4,4.3v6.87Z"/><path class="cls-1" d="M77.94,217.71v-6c0-1.47-.33-2.6-2-2.6s-2.32,1.38-2.32,3v5.6h-3V206.89h3v1.32a4,4,0,0,1,3.4-1.67,3.74,3.74,0,0,1,4,4.3v6.87Z"/><path class="cls-1" d="M86.39,212.79c0,1.67.85,2.9,2.65,2.9a2.84,2.84,0,0,0,2.57-1.45l2.8.45a5.31,5.31,0,0,1-5.32,3.37,5.43,5.43,0,0,1-5.8-5.77A5.36,5.36,0,0,1,89,206.54c3.57,0,5.52,2.4,5.52,5.85v.4Zm2.62-4.1a2.46,2.46,0,0,0-2.52,2.17h5.12A2.51,2.51,0,0,0,89,208.69Z"/><path class="cls-1" d="M110.64,217.71v-5.92c0-1.27-.2-2.67-1.8-2.67-1.77,0-2.08,1.63-2.08,3v5.55h-3V212a4.81,4.81,0,0,0-.23-1.8,1.75,1.75,0,0,0-1.62-1,2,2,0,0,0-1.7,1,4.5,4.5,0,0,0-.35,2.07v5.55h-3V206.89h3v1.22a4.15,4.15,0,0,1,3.3-1.58,3.68,3.68,0,0,1,3.38,2,4,4,0,0,1,3.55-2,3.56,3.56,0,0,1,3,1.55,4.77,4.77,0,0,1,.57,2.62v7Z"/><path class="cls-1" d="M118,204.14a1.82,1.82,0,1,1,0-3.65,1.82,1.82,0,0,1,0,3.65Zm-1.52,13.57V206.89h3v10.82Z"/><path class="cls-1" d="M122.39,217.71V199h3v18.72Z"/><path class="cls-1" d="M129.79,204.14a1.82,1.82,0,1,1,0-3.65,1.82,1.82,0,0,1,0,3.65Zm-1.53,19.35v-16.6h3v16.6Z"/><path class="cls-1" d="M139.77,218.06c-3.45,0-6.2-2.15-6.2-5.75s2.75-5.77,6.22-5.77,6.15,2.17,6.15,5.75S143.19,218.06,139.77,218.06Zm-2.62-13.2a1.8,1.8,0,0,1,0-3.6,1.8,1.8,0,0,1,0,3.6Zm2.6,4.4a3,3,0,1,0,3.07,3A3.06,3.06,0,0,0,139.74,209.26Zm2.6-4.4a1.83,1.83,0,0,1-1.8-1.8,1.8,1.8,0,1,1,1.8,1.8Z"/><path class="cls-1" d="M149.94,218a1.95,1.95,0,1,1,2-1.95A2,2,0,0,1,149.94,218Zm-1.55-5.1V201h3.1v11.9Z"/></svg>