<svg id="Layer_1" data-name="Layer 1" xmlns="http://www.w3.org/2000/svg" viewBox="0 0 300 250"><defs><style>.cls-1{fill:#d4ac76;}</style></defs><title>text</title><path class="cls-1" d="M83.76,108.5l3.57-8.89h1.12L92,108.5H90.58L90,107.13H85.68l-.55,1.37Zm4.12-6.85L86.16,106h3.41ZM88.74,99A1.22,1.22,0,0,1,87,99a1.23,1.23,0,0,1,0-1.72,1.22,1.22,0,0,1,1.71,0,1.23,1.23,0,0,1,0,1.72Zm-.86-.37a.48.48,0,0,0,.34-.14.49.49,0,0,0,.15-.35.47.47,0,0,0-.15-.35.44.44,0,0,0-.34-.14.47.47,0,0,0-.35.14.5.5,0,0,0-.14.35.48.48,0,0,0,.49.49Z"/><path class="cls-1" d="M92.47,100.79V99.61h7.2v1.18h-3v7.71H95.45v-7.71Z"/><path class="cls-1" d="M101.43,100.79V99.61h7.2v1.18h-3v7.71h-1.24v-7.71Z"/><path class="cls-1" d="M109.21,108.5l3.57-8.89h1.12l3.5,8.89H116l-.53-1.37h-4.36l-.55,1.37Zm4.12-6.85-1.72,4.3H115Z"/><path class="cls-1" d="M124.82,108.5V99.61h.87l4.81,6.12V99.61h1.25v8.89h-.69l-5-6.35v6.35Z"/><path class="cls-1" d="M140.09,99.61h1.43l-3,5.31v3.58h-1.24V105l-3-5.36h1.49l2.15,4Z"/><path class="cls-1" d="M142,108.5l3.57-8.89h1.12l3.5,8.89h-1.37l-.54-1.37H144l-.55,1.37Zm4.13-6.85-1.73,4.3h3.41Z"/><path class="cls-1" d="M163.22,108.5v-3.85H158.9v3.85h-1.25V99.61h1.25v3.85h4.32V99.61h1.24v8.89Z"/><path class="cls-1" d="M171.2,108.65a3.08,3.08,0,0,1-2.32-.93,3.2,3.2,0,0,1-.91-2.35V99.61h1.24v5.69a2.31,2.31,0,0,0,.53,1.55,1.83,1.83,0,0,0,1.46.61,1.88,1.88,0,0,0,1.47-.6,2.28,2.28,0,0,0,.53-1.55v-5.7h1.25v5.76a3.24,3.24,0,0,1-.91,2.35A3.11,3.11,0,0,1,171.2,108.65Z"/><path class="cls-1" d="M180.29,108.62a4.11,4.11,0,0,1-1.66-.36,4.4,4.4,0,0,1-1.41-1l.87-1a3.63,3.63,0,0,0,1,.81,2.68,2.68,0,0,0,1.23.32,1.73,1.73,0,0,0,1.15-.38,1.21,1.21,0,0,0,.44-1,1.55,1.55,0,0,0-1.12-1.45l-1-.42a3.74,3.74,0,0,1-1.46-1,2.14,2.14,0,0,1-.47-1.41,2.24,2.24,0,0,1,.73-1.68,2.54,2.54,0,0,1,1.81-.69,3.58,3.58,0,0,1,2.58,1l-.74,1a2.48,2.48,0,0,0-1.84-.8,1.4,1.4,0,0,0-.94.31,1,1,0,0,0-.36.82,1,1,0,0,0,.26.69,2.41,2.41,0,0,0,.91.55l1.07.43a2.52,2.52,0,0,1,1.86,2.54,2.45,2.45,0,0,1-.78,1.87A3,3,0,0,1,180.29,108.62Z"/><path class="cls-1" d="M191.1,108.5V99.61H196v1.18h-3.61v2.8h3.2v1.18h-3.2v3.73Z"/><path class="cls-1" d="M202.66,108.66a4.36,4.36,0,0,1-3.2-1.31,4.76,4.76,0,0,1,0-6.6,4.55,4.55,0,0,1,6.4,0,4.73,4.73,0,0,1,0,6.58A4.38,4.38,0,0,1,202.66,108.66Zm-2.33-2.18a3.21,3.21,0,0,0,4.66,0,3.39,3.39,0,0,0,.95-2.43,3.35,3.35,0,0,0-1-2.42,3.18,3.18,0,0,0-4.65,0,3.57,3.57,0,0,0,0,4.85Zm1.5-7.81a.58.58,0,0,1-.45.19.54.54,0,0,1-.43-.19.69.69,0,0,1-.18-.49.68.68,0,0,1,.18-.48.54.54,0,0,1,.43-.19.58.58,0,0,1,.45.19.68.68,0,0,1,.18.48A.69.69,0,0,1,201.83,98.67Zm2.46,0a.6.6,0,0,1-.88,0,.69.69,0,0,1-.18-.49.68.68,0,0,1,.18-.48.6.6,0,0,1,.88,0,.68.68,0,0,1,.18.48A.69.69,0,0,1,204.29,98.67Z"/><path class="cls-1" d="M210.3,108.5V99.61h3.3a2.78,2.78,0,0,1,2,.77,2.75,2.75,0,0,1-1.56,4.74l2.58,3.38h-1.53l-2.56-3.39h-1v3.39Zm3.14-7.71h-1.9V104h1.88a1.76,1.76,0,0,0,1.26-.44,1.59,1.59,0,0,0,0-2.3A1.74,1.74,0,0,0,213.44,100.79Z"/><path class="cls-1" d="M81.64,119.6H78v2.72h3.91v1.18H76.74v-8.89h5.08v1.18H78v2.63h3.66Z"/><path class="cls-1" d="M85,123.5v-8.89h.86l4.82,6.12v-6.12H91.9v8.89h-.69l-5-6.35v6.35Z"/><path class="cls-1" d="M105.32,119.6h-3.66v2.72h3.91v1.18h-5.15v-8.89h5.08v1.18h-3.84v2.63h3.66Z"/><path class="cls-1" d="M108.65,123.5v-8.89h.87l4.81,6.12v-6.12h1.25v8.89h-.69l-5-6.35v6.35Z"/><path class="cls-1" d="M119.29,123.5v-8.89h1.24v4.22l3.71-4.22h1.66l-3.13,3.53L126,123.5h-1.54l-2.58-4.34-1.33,1.49v2.85Z"/><path class="cls-1" d="M128.69,123.5v-8.89h1.24v7.71h3.65v1.18Z"/><path class="cls-1" d="M135.39,123.5l3.57-8.89h1.12l3.5,8.89h-1.37l-.54-1.37h-4.35l-.55,1.37Zm4.13-6.85-1.73,4.3h3.42Z"/><path class="cls-1" d="M146.05,123.5v-8.89h3.3a2.78,2.78,0,0,1,2,.77,2.75,2.75,0,0,1-1.56,4.74l2.58,3.38h-1.53l-2.56-3.39h-1v3.39Zm3.14-7.71h-1.9V119h1.88a1.76,1.76,0,0,0,1.26-.44,1.59,1.59,0,0,0,0-2.3A1.74,1.74,0,0,0,149.19,115.79Z"/><path class="cls-1" d="M160.17,119.6h-3.65v2.72h3.91v1.18h-5.16v-8.89h5.09v1.18h-3.84v2.63h3.65Z"/><path class="cls-1" d="M173.88,123.5v-3.85h-4.32v3.85h-1.25v-8.89h1.25v3.85h4.32v-3.85h1.24v8.89Z"/><path class="cls-1" d="M181.86,123.65a3.1,3.1,0,0,1-2.32-.93,3.2,3.2,0,0,1-.91-2.35v-5.76h1.24v5.69a2.31,2.31,0,0,0,.53,1.55,1.83,1.83,0,0,0,1.46.61,1.88,1.88,0,0,0,1.47-.6,2.28,2.28,0,0,0,.53-1.55v-5.7h1.25v5.76a3.24,3.24,0,0,1-.91,2.35A3.11,3.11,0,0,1,181.86,123.65Z"/><path class="cls-1" d="M191,123.62a4.11,4.11,0,0,1-1.66-.36,4.4,4.4,0,0,1-1.41-1l.87-1a3.63,3.63,0,0,0,1,.81,2.68,2.68,0,0,0,1.23.32,1.73,1.73,0,0,0,1.15-.38,1.18,1.18,0,0,0,.44-1,1.55,1.55,0,0,0-1.12-1.45l-1-.42a3.74,3.74,0,0,1-1.46-1,2.14,2.14,0,0,1-.47-1.41,2.24,2.24,0,0,1,.73-1.68,2.54,2.54,0,0,1,1.81-.69,3.62,3.62,0,0,1,2.59,1l-.75,1a2.48,2.48,0,0,0-1.84-.8,1.4,1.4,0,0,0-.94.31,1,1,0,0,0-.36.82,1,1,0,0,0,.26.69,2.41,2.41,0,0,0,.91.55l1.07.43a2.52,2.52,0,0,1,1.86,2.54,2.45,2.45,0,0,1-.78,1.87A3,3,0,0,1,191,123.62Z"/><path class="cls-1" d="M196.89,123.5v-8.89h3.3a2.78,2.78,0,0,1,2,.77,2.75,2.75,0,0,1-1.56,4.74l2.58,3.38h-1.53l-2.56-3.39h-1v3.39Zm3.14-7.71h-1.9V119H200a1.76,1.76,0,0,0,1.26-.44,1.48,1.48,0,0,0,.49-1.17,1.51,1.51,0,0,0-.49-1.13A1.74,1.74,0,0,0,200,115.79Z"/><path class="cls-1" d="M211,119.6h-3.65v2.72h3.91v1.18h-5.15v-8.89h5.08v1.18h-3.84v2.63H211Z"/><path class="cls-1" d="M216.61,123.62a4.15,4.15,0,0,1-1.67-.36,4.47,4.47,0,0,1-1.4-1l.87-1a3.49,3.49,0,0,0,1,.81,2.68,2.68,0,0,0,1.23.32,1.7,1.7,0,0,0,1.14-.38,1.19,1.19,0,0,0,.45-1,1.56,1.56,0,0,0-1.13-1.45l-1-.42a3.66,3.66,0,0,1-1.46-1,2.1,2.1,0,0,1-.48-1.41,2.25,2.25,0,0,1,.74-1.68,2.54,2.54,0,0,1,1.81-.69,3.58,3.58,0,0,1,2.58,1l-.75,1a2.46,2.46,0,0,0-1.83-.8,1.38,1.38,0,0,0-.94.31,1,1,0,0,0-.36.82,1,1,0,0,0,.26.69,2.44,2.44,0,0,0,.9.55l1.07.43A2.52,2.52,0,0,1,219.5,121a2.43,2.43,0,0,1-.79,1.87A3,3,0,0,1,216.61,123.62Z"/><path class="cls-1" d="M221.51,123.5l3.57-8.89h1.13l3.5,8.89h-1.38l-.53-1.37h-4.36l-.55,1.37Zm4.13-6.85-1.72,4.3h3.41Z"/></svg>