<svg id="Layer_1" data-name="Layer 1" xmlns="http://www.w3.org/2000/svg" viewBox="0 0 980 300"><defs><style>.cls-1{fill:#fff;}</style></defs><title>text</title><path class="cls-1" d="M499.85,219h-11c-.9,0-1.35-.35-1.35-1.06V200.59c0-.73.45-1.09,1.35-1.09s1.35.36,1.35,1.09v15.95h9.64c.61,0,.92.41.92,1.23S500.46,219,499.85,219Z"/><path class="cls-1" d="M514.61,216.42q.93,0,.93,1.11a1.21,1.21,0,0,1-.93,1.35,23,23,0,0,1-4.88.35c-2.28,0-3.92-.37-4.9-1.11a4.4,4.4,0,0,1-1.5-3.73v-5.5c0-1.83.45-3.07,1.35-3.7s2.57-1,5-1,4.1.31,5,.91S516,207,516,208.89v2.38a1.66,1.66,0,0,1-.4,1.14,1.32,1.32,0,0,1-1,.41H506v1.75q0,2.22,3.85,2.2a23.26,23.26,0,0,0,2.93-.17A15.36,15.36,0,0,1,514.61,216.42ZM506,208.9v1.54h7.23V208.9a1.9,1.9,0,0,0-.73-1.75,6.11,6.11,0,0,0-2.85-.46,6.65,6.65,0,0,0-2.88.43A1.91,1.91,0,0,0,506,208.9Z"/><path class="cls-1" d="M528.47,214.59v-.34a1.08,1.08,0,0,0-.7-1,6,6,0,0,0-2.45-.33,15,15,0,0,1-3.87-.54,3.13,3.13,0,0,1-1.75-1.19,3.83,3.83,0,0,1-.71-2.4v-.25c0-1.68.51-2.8,1.51-3.37a9.36,9.36,0,0,1,4.6-.88,19.4,19.4,0,0,1,4.57.4,1.2,1.2,0,0,1,.92,1.35c0,.74-.3,1.11-.92,1.11a16.77,16.77,0,0,1-1.89-.19,20.38,20.38,0,0,0-3-.21,7.47,7.47,0,0,0-2.35.27c-.49.17-.74.67-.74,1.48v.28c0,1.06,1.11,1.63,3.34,1.69.93,0,1.86.12,2.8.24a4.28,4.28,0,0,1,2.37,1,3.14,3.14,0,0,1,1,2.5v.37c0,1.8-.51,3-1.53,3.68a9.52,9.52,0,0,1-4.91,1,21.11,21.11,0,0,1-4.84-.38,1.2,1.2,0,0,1-.93-1.34c0-.75.31-1.12.93-1.12.36,0,1.07.07,2.12.19a25.08,25.08,0,0,0,3.08.19,6.21,6.21,0,0,0,2.44-.4A1.72,1.72,0,0,0,528.47,214.59Z"/><path class="cls-1" d="M544.79,200v4.64a20,20,0,0,1,3.75-.4,15.7,15.7,0,0,1,2.84.21,3.4,3.4,0,0,1,3,2.71,16.41,16.41,0,0,1,.26,3.27v7.52c0,.71-.45,1.06-1.35,1.06s-1.34-.35-1.34-1.06V210.7a16.18,16.18,0,0,0-.12-2.27,1.75,1.75,0,0,0-.62-1.19,2.07,2.07,0,0,0-1.05-.47,16.3,16.3,0,0,0-1.91-.08,25.6,25.6,0,0,0-3.45.31v10.94c0,.71-.45,1.06-1.34,1.06s-1.35-.35-1.36-1.06V200c0-.73.46-1.09,1.36-1.09S544.79,199.26,544.79,200Z"/><path class="cls-1" d="M564.8,219.15a2.32,2.32,0,0,1-1.44-.49,2.73,2.73,0,0,1-.91-1.21L558.21,206a4.61,4.61,0,0,0-.11-.49c0-.7.44-1.05,1.31-1a1.26,1.26,0,0,1,1.32.78l4,11.28h.15l4-11.28c.2-.52.68-.78,1.45-.78s1.16.35,1.16,1c0,0,0,.18-.09.49l-4.26,11.44a2.53,2.53,0,0,1-.91,1.23A2.45,2.45,0,0,1,564.8,219.15Z"/><path class="cls-1" d="M575.77,207.09c-.63,0-.94-.37-.94-1.11a1.21,1.21,0,0,1,.94-1.35,21,21,0,0,1,4.86-.4c2.27,0,3.8.37,4.6,1.09s1.22,2,1.22,3.78v5.78c0,1.81-.44,3-1.32,3.53s-2.56.82-5,.82-4.15-.27-5-.82-1.27-1.71-1.27-3.51.32-3,1-3.71,2-1,4-1h5v-1.55a1.66,1.66,0,0,0-.69-1.52,5,5,0,0,0-2.44-.42,19.33,19.33,0,0,0-3.06.21A11,11,0,0,1,575.77,207.09Zm8,8v-2.55h-4.16a5.18,5.18,0,0,0-2.52.39c-.38.25-.57.83-.57,1.72s.24,1.49.72,1.75a7.47,7.47,0,0,0,2.86.36,8.48,8.48,0,0,0,2.9-.32A1.33,1.33,0,0,0,583.75,215.1Z"/><path class="cls-1" d="M603.28,219.15a2.32,2.32,0,0,1-1.44-.49,2.63,2.63,0,0,1-.9-1.21L596.69,206a4.61,4.61,0,0,0-.11-.49c0-.7.44-1.05,1.31-1a1.26,1.26,0,0,1,1.32.78l4,11.28h.15l4-11.28c.19-.52.67-.78,1.45-.78s1.15.35,1.15,1c0,0,0,.18-.08.49l-4.27,11.44a2.53,2.53,0,0,1-.91,1.23A2.42,2.42,0,0,1,603.28,219.15Z"/><path class="cls-1" d="M614.22,207.09c-.62,0-.94-.37-.94-1.11a1.22,1.22,0,0,1,.94-1.35,21,21,0,0,1,4.86-.4c2.27,0,3.8.37,4.6,1.09s1.22,2,1.22,3.78v5.78c0,1.81-.44,3-1.32,3.53s-2.57.82-5.06.82-4.15-.27-5-.82-1.24-1.71-1.24-3.51.32-3,1-3.71,2-1,4-1h5v-1.55a1.66,1.66,0,0,0-.69-1.52,5,5,0,0,0-2.45-.42,19.33,19.33,0,0,0-3.06.21A11,11,0,0,1,614.22,207.09Zm8,8v-2.55h-4.15a5.13,5.13,0,0,0-2.51.39c-.38.25-.57.83-.57,1.72s.24,1.49.71,1.75a7.47,7.47,0,0,0,2.86.36,8.45,8.45,0,0,0,2.89-.32A1.33,1.33,0,0,0,622.21,215.1ZM617,202.71a2.72,2.72,0,0,1-.8-2,2.66,2.66,0,0,1,.81-2,2.63,2.63,0,0,1,2-.82,2.66,2.66,0,0,1,2,.82,2.79,2.79,0,0,1-3.95,4Zm.78-2a1.22,1.22,0,0,0,.35.87,1.15,1.15,0,0,0,.86.33,1.11,1.11,0,0,0,.84-.35,1.17,1.17,0,0,0,.35-.86,1.13,1.13,0,0,0-.35-.85,1.12,1.12,0,0,0-.85-.35,1.14,1.14,0,0,0-.86.35A1.1,1.1,0,0,0,617.75,200.73Z"/><path class="cls-1" d="M631.77,210.47v7.47c0,.71-.45,1.06-1.34,1.06s-1.35-.35-1.35-1.06v-7.82a9.25,9.25,0,0,1,.48-3.73,5.22,5.22,0,0,1,.88-1.28c.65-.58,2.25-.88,4.83-.88a8.55,8.55,0,0,1,2.61.26,1,1,0,0,1,.66,1,1.38,1.38,0,0,1-.37,1,1.27,1.27,0,0,1-.92.34l-2-.14a8.77,8.77,0,0,0-2.3.18,2.12,2.12,0,0,0-.67.34,2.27,2.27,0,0,0-.32.68,3.1,3.1,0,0,0-.19,1.05C631.78,209.3,631.77,209.81,631.77,210.47Z"/><path class="cls-1" d="M652,216.42c.61,0,.92.37.92,1.11a1.21,1.21,0,0,1-.92,1.35,23.09,23.09,0,0,1-4.88.35c-2.29,0-3.92-.37-4.91-1.11a4.4,4.4,0,0,1-1.49-3.73v-5.5c0-1.83.45-3.07,1.34-3.7s2.58-1,5-1,4.11.31,5,.91,1.29,1.86,1.29,3.75v2.38a1.71,1.71,0,0,1-.39,1.14,1.36,1.36,0,0,1-1,.41H643.4v1.75c0,1.48,1.29,2.21,3.85,2.2a23.15,23.15,0,0,0,2.93-.17A15.28,15.28,0,0,1,652,216.42Zm-8.59-7.52v1.54h7.24V208.9a1.93,1.93,0,0,0-.73-1.75,6.13,6.13,0,0,0-2.86-.46,6.6,6.6,0,0,0-2.87.43A1.89,1.89,0,0,0,643.4,208.9Z"/><path class="cls-1" d="M667.23,200v11.57l6.71-6.78a1.39,1.39,0,0,1,1-.46,1.31,1.31,0,0,1,.94.38,1.17,1.17,0,0,1,.38.88,1.37,1.37,0,0,1-.49,1l-3.86,3.6,4.77,6.67a1.51,1.51,0,0,1,.3.89,1.16,1.16,0,0,1-.43.88,1.42,1.42,0,0,1-1,.41,1,1,0,0,1-.87-.48L670,212l-2.76,2.55v3.41c0,.71-.44,1.06-1.34,1.06s-1.34-.35-1.35-1.06V200c0-.73.46-1.09,1.35-1.09S667.23,199.26,667.23,200Z"/><path class="cls-1" d="M684.13,216.76h2.79a3.94,3.94,0,0,0,.94-.16,1.77,1.77,0,0,0,.76-.46,1.85,1.85,0,0,0,.32-1.2c0-.6,0-1.24,0-1.93v-7.48c0-.71.45-1.06,1.34-1.06s1.35.35,1.35,1.05v7.84a17.7,17.7,0,0,1-.23,3.24,2.91,2.91,0,0,1-1,1.74,3.92,3.92,0,0,1-1.82.75,33.62,33.62,0,0,1-6.13,0,3.84,3.84,0,0,1-1.81-.75,2.75,2.75,0,0,1-1-1.74,17.38,17.38,0,0,1-.25-3.24v-7.84q0-1.05,1.35-1.05c.9,0,1.34.35,1.34,1.06V213c0,1.82.16,2.91.49,3.26a1.5,1.5,0,0,0,.63.33A3.86,3.86,0,0,0,684.13,216.76Z"/><path class="cls-1" d="M699.07,207.21c-.34.34-.5,1.42-.5,3.24v7.49c0,.71-.45,1.06-1.34,1.06s-1.35-.35-1.36-1.06v-7.82a14.93,14.93,0,0,1,.27-3.22,2.81,2.81,0,0,1,1.05-1.76,3.88,3.88,0,0,1,1.85-.74,26.9,26.9,0,0,1,3.32-.17c2.52,0,4.11.3,4.78.93a4,4,0,0,1,1.17,2.63,22,22,0,0,1,.1,2.33v7.82c0,.71-.45,1.06-1.35,1.06s-1.34-.35-1.34-1.06v-7.49c0-1.8-.18-2.87-.52-3.23s-1.37-.53-3.08-.53S699.4,206.87,699.07,207.21Z"/><path class="cls-1" d="M725.75,200v11.88a17.79,17.79,0,0,1-.32,3.83,4.17,4.17,0,0,1-1.18,2.23,4.39,4.39,0,0,1-2,1,14.26,14.26,0,0,1-3.12.26A15.44,15.44,0,0,1,716,219a4.26,4.26,0,0,1-2-1,3.94,3.94,0,0,1-1.18-2.24,20,20,0,0,1-.32-3.83,17.65,17.65,0,0,1,.34-3.89,4.16,4.16,0,0,1,3.18-3.45,15,15,0,0,1,3.46-.3,8.86,8.86,0,0,1,3.6.6V200q0-1.08,1.35-1.08C725.31,198.9,725.75,199.26,725.75,200Zm-10.25,8.44a7.89,7.89,0,0,0-.32,2.69c0,1.27,0,2.29.1,3a3.67,3.67,0,0,0,.76,2,2.38,2.38,0,0,0,1.76.6c.29,0,.74,0,1.34,0,1.76,0,2.79-.21,3.1-.63a4,4,0,0,0,.78-2c.06-.73.1-1.48.1-2.27q0-3.49-.66-4.23a3.92,3.92,0,0,0-.51-.54,3.52,3.52,0,0,0-2.11-.42c-1.08,0-1.77,0-2.06,0-.92.06-1.5.27-1.74.62A6.39,6.39,0,0,0,715.5,208.43Z"/><path class="cls-1" d="M741,216.42q.93,0,.93,1.11a1.21,1.21,0,0,1-.93,1.35,22.91,22.91,0,0,1-4.87.35c-2.29,0-3.92-.37-4.91-1.11a4.4,4.4,0,0,1-1.49-3.73v-5.5c0-1.83.44-3.07,1.34-3.7s2.58-1,5-1,4.1.31,5,.91,1.29,1.86,1.29,3.75v2.38a1.71,1.71,0,0,1-.39,1.14,1.36,1.36,0,0,1-1,.41h-8.52v1.75q0,2.22,3.85,2.2a23.15,23.15,0,0,0,2.93-.17A15.36,15.36,0,0,1,741,216.42Zm-8.58-7.52v1.54h7.24V208.9a1.91,1.91,0,0,0-.74-1.75,6.08,6.08,0,0,0-2.85-.46,6.57,6.57,0,0,0-2.87.43A1.89,1.89,0,0,0,732.39,208.9Z"/><path class="cls-1" d="M749.06,210.47v7.47c0,.71-.45,1.06-1.34,1.06s-1.34-.35-1.35-1.06v-7.82a9.25,9.25,0,0,1,.48-3.73,5.22,5.22,0,0,1,.88-1.28c.65-.58,2.25-.88,4.83-.88a8.55,8.55,0,0,1,2.61.26,1,1,0,0,1,.66,1,1.38,1.38,0,0,1-.37,1,1.27,1.27,0,0,1-.92.34l-2-.14a8.77,8.77,0,0,0-2.3.18,2.12,2.12,0,0,0-.67.34,2.27,2.27,0,0,0-.32.68,3.1,3.1,0,0,0-.19,1.05C749.07,209.3,749.06,209.81,749.06,210.47Z"/><path class="cls-1" d="M774.37,214.59v-.34a1.08,1.08,0,0,0-.7-1,6,6,0,0,0-2.45-.33,14.83,14.83,0,0,1-3.86-.54,3.16,3.16,0,0,1-1.76-1.19,3.82,3.82,0,0,1-.7-2.4v-.25c0-1.68.5-2.8,1.5-3.37a9.36,9.36,0,0,1,4.6-.88,19.34,19.34,0,0,1,4.57.4,1.21,1.21,0,0,1,.93,1.35q0,1.11-.93,1.11a16.77,16.77,0,0,1-1.89-.19,20.18,20.18,0,0,0-3-.21,7.44,7.44,0,0,0-2.34.27c-.5.17-.75.67-.75,1.48v.28c0,1.06,1.11,1.63,3.34,1.69.93,0,1.86.12,2.8.24a4.22,4.22,0,0,1,2.37,1,3.08,3.08,0,0,1,1,2.5v.37c0,1.8-.51,3-1.53,3.68a9.5,9.5,0,0,1-4.9,1,21.21,21.21,0,0,1-4.85-.38,1.2,1.2,0,0,1-.92-1.34c0-.75.3-1.12.92-1.12.36,0,1.07.07,2.12.19a25.2,25.2,0,0,0,3.08.19,6.27,6.27,0,0,0,2.45-.4A1.73,1.73,0,0,0,774.37,214.59Z"/><path class="cls-1" d="M780.94,201a1.39,1.39,0,0,1,.44-1,1.42,1.42,0,0,1,1-.46,1.38,1.38,0,0,1,1,.46,1.54,1.54,0,0,1,.43,1,1.46,1.46,0,0,1-2.51,1A1.47,1.47,0,0,1,780.94,201Zm2.81,4.52v12.42c0,.71-.45,1.06-1.35,1.06s-1.35-.35-1.35-1.06V205.52q0-1.05,1.35-1.05T783.75,205.52Z"/><path class="cls-1" d="M799.33,216.42q.93,0,.93,1.11a1.21,1.21,0,0,1-.93,1.35,22.91,22.91,0,0,1-4.87.35c-2.29,0-3.92-.37-4.91-1.11a4.4,4.4,0,0,1-1.5-3.73v-5.5c0-1.83.45-3.07,1.35-3.7s2.58-1,5-1,4.1.31,5,.91,1.29,1.86,1.29,3.75v2.38a1.71,1.71,0,0,1-.39,1.14,1.36,1.36,0,0,1-1,.41h-8.52v1.75q0,2.22,3.85,2.2a23.15,23.15,0,0,0,2.93-.17A15.36,15.36,0,0,1,799.33,216.42Zm-8.58-7.52v1.54H798V208.9a1.91,1.91,0,0,0-.74-1.75,6.08,6.08,0,0,0-2.85-.46,6.57,6.57,0,0,0-2.87.43A1.89,1.89,0,0,0,790.75,208.9Z"/><path class="cls-1" d="M807.42,210.47v7.47c0,.71-.45,1.06-1.34,1.06s-1.35-.35-1.36-1.06v-7.82a9,9,0,0,1,.49-3.73,5.22,5.22,0,0,1,.88-1.28c.65-.58,2.25-.88,4.83-.88a8.55,8.55,0,0,1,2.61.26,1,1,0,0,1,.66,1,1.38,1.38,0,0,1-.37,1,1.27,1.27,0,0,1-.92.34l-2-.14a8.77,8.77,0,0,0-2.3.18,2,2,0,0,0-.67.34,2.27,2.27,0,0,0-.32.68,3.37,3.37,0,0,0-.2,1.05C807.42,209.3,807.42,209.81,807.42,210.47Z"/><path class="cls-1" d="M823.55,211.87a18.38,18.38,0,0,1,.33-3.89,4.17,4.17,0,0,1,3.19-3.45,16.53,16.53,0,0,1,6.27,0,4.2,4.2,0,0,1,2,1.14,4.71,4.71,0,0,1,1.18,2.3,18.34,18.34,0,0,1,.33,3.88,18,18,0,0,1-.33,3.86,4.12,4.12,0,0,1-1.2,2.22,4.31,4.31,0,0,1-2,1,14.55,14.55,0,0,1-3.13.26,15.31,15.31,0,0,1-3.14-.25,4.29,4.29,0,0,1-2-1,4,4,0,0,1-1.17-2.24A17.79,17.79,0,0,1,823.55,211.87Zm3-3.44a7.89,7.89,0,0,0-.32,2.69c0,1.27,0,2.29.11,3a3.59,3.59,0,0,0,.76,2,2.35,2.35,0,0,0,1.75.6q.43,0,1.35,0,2.63,0,3.09-.63a4,4,0,0,0,.78-2c.07-.73.1-1.48.1-2.27q0-3.49-.66-4.23a3,3,0,0,0-.51-.54,3.49,3.49,0,0,0-2.1-.42c-1.09,0-1.77,0-2.06,0-.92.06-1.5.27-1.74.62A7.07,7.07,0,0,0,826.56,208.43Z"/><path class="cls-1" d="M855.82,206.69c-.81,0-1.39,0-1.75.06a1.62,1.62,0,0,0-.93.44,1.57,1.57,0,0,0-.49,1,17.77,17.77,0,0,0-.07,1.91v7.84c0,.71-.45,1.06-1.35,1.06s-1.35-.35-1.35-1.06v-8.23c0-1.39-.18-2.23-.54-2.55a3.7,3.7,0,0,0-2.25-.47c-1.13,0-1.87,0-2.21.06a1.47,1.47,0,0,0-.93.49,1.82,1.82,0,0,0-.44,1.08c0,.45-.06,1.15-.06,2.13v7.49c0,.71-.44,1.06-1.34,1.06s-1.34-.35-1.35-1.06v-7.82a9.74,9.74,0,0,1,.69-4.32,3.25,3.25,0,0,1,2.82-1.46c.56-.06,1.36-.1,2.41-.11,2.32,0,3.84.28,4.55.84.71-.55,2.22-.83,4.56-.84,1,0,1.82,0,2.39.09,1.45.17,2.38.63,2.79,1.39a9.87,9.87,0,0,1,.74,4.41v7.82c0,.71-.45,1.06-1.35,1.06s-1.35-.35-1.35-1.06v-7.49c0-1,0-1.68-.07-2.13a1.82,1.82,0,0,0-.44-1.08,1.45,1.45,0,0,0-.92-.49C857.22,206.71,856.64,206.69,855.82,206.69Z"/><path class="cls-1" d="M873,211.87a18.38,18.38,0,0,1,.33-3.89,4.18,4.18,0,0,1,3.19-3.45,13.32,13.32,0,0,1,3.14-.3,13.17,13.17,0,0,1,3.13.3,4.15,4.15,0,0,1,2,1.14A4.72,4.72,0,0,1,886,208a19.13,19.13,0,0,1,.32,3.88,18.78,18.78,0,0,1-.32,3.86,4.12,4.12,0,0,1-1.2,2.22,4.4,4.4,0,0,1-2,1,14.43,14.43,0,0,1-3.13.26,15.37,15.37,0,0,1-3.14-.25,4.26,4.26,0,0,1-2-1,3.94,3.94,0,0,1-1.18-2.24A18.46,18.46,0,0,1,873,211.87Zm3-3.44a7.64,7.64,0,0,0-.32,2.69c0,1.27,0,2.29.1,3a3.67,3.67,0,0,0,.76,2,2.37,2.37,0,0,0,1.75.6q.45,0,1.35,0c1.75,0,2.79-.21,3.1-.63a3.88,3.88,0,0,0,.77-2c.07-.73.11-1.48.11-2.27q0-3.49-.66-4.23a3.92,3.92,0,0,0-.51-.54,3.52,3.52,0,0,0-2.11-.42c-1.08,0-1.77,0-2.06,0-.92.06-1.5.27-1.74.62A6.39,6.39,0,0,0,876,208.43Z"/><path class="cls-1" d="M899.25,214.59v-.34a1.08,1.08,0,0,0-.7-1,6,6,0,0,0-2.45-.33,15,15,0,0,1-3.87-.54,3.13,3.13,0,0,1-1.75-1.19,3.83,3.83,0,0,1-.71-2.4v-.25c0-1.68.51-2.8,1.51-3.37a9.36,9.36,0,0,1,4.6-.88,19.4,19.4,0,0,1,4.57.4,1.2,1.2,0,0,1,.92,1.35c0,.74-.3,1.11-.92,1.11a16.77,16.77,0,0,1-1.89-.19,20.38,20.38,0,0,0-3-.21,7.47,7.47,0,0,0-2.35.27c-.49.17-.74.67-.74,1.48v.28c0,1.06,1.11,1.63,3.34,1.69.93,0,1.86.12,2.8.24a4.28,4.28,0,0,1,2.37,1,3.11,3.11,0,0,1,1,2.5v.37c0,1.8-.51,3-1.53,3.68a9.52,9.52,0,0,1-4.91,1,21.11,21.11,0,0,1-4.84-.38,1.2,1.2,0,0,1-.93-1.34c0-.75.31-1.12.93-1.12.36,0,1.07.07,2.12.19a25.08,25.08,0,0,0,3.08.19,6.21,6.21,0,0,0,2.44-.4A1.72,1.72,0,0,0,899.25,214.59Z"/><path class="cls-1" d="M914.15,214.59v-.34a1.1,1.1,0,0,0-.7-1,6,6,0,0,0-2.45-.33,15,15,0,0,1-3.87-.54,3.19,3.19,0,0,1-1.76-1.19,3.89,3.89,0,0,1-.7-2.4v-.25c0-1.68.5-2.8,1.51-3.37a9.36,9.36,0,0,1,4.6-.88,19.4,19.4,0,0,1,4.57.4,1.21,1.21,0,0,1,.92,1.35c0,.74-.31,1.11-.92,1.11a16.77,16.77,0,0,1-1.89-.19,20.38,20.38,0,0,0-3-.21,7.47,7.47,0,0,0-2.35.27c-.49.17-.74.67-.74,1.48v.28c0,1.06,1.11,1.63,3.34,1.69.92,0,1.86.12,2.79.24a4.28,4.28,0,0,1,2.38,1,3.1,3.1,0,0,1,1,2.5v.37c0,1.8-.5,3-1.52,3.68a9.55,9.55,0,0,1-4.91,1,21.27,21.27,0,0,1-4.85-.38,1.21,1.21,0,0,1-.92-1.34c0-.75.31-1.12.92-1.12.37,0,1.07.07,2.13.19a25,25,0,0,0,3.07.19,6.23,6.23,0,0,0,2.45-.4A1.72,1.72,0,0,0,914.15,214.59Z"/></svg>