<svg id="Layer_1" data-name="Layer 1" xmlns="http://www.w3.org/2000/svg" viewBox="0 0 980 300"><defs><style>.cls-1{fill:#fff;}</style></defs><title>text</title><path class="cls-1" d="M398.12,155.91V139.4h-6.24c-.63,0-.95-.43-.95-1.28s.32-1.27.95-1.27h15.26c.63,0,.95.43.95,1.27s-.32,1.28-.95,1.28H400.9v16.51c0,.73-.46,1.09-1.39,1.09S398.12,156.64,398.12,155.91Z"/><path class="cls-1" d="M408.44,144.69c-.65,0-1-.38-1-1.15a1.25,1.25,0,0,1,1-1.39,21.74,21.74,0,0,1,5-.41c2.34,0,3.92.38,4.75,1.12s1.26,2,1.26,3.91v6c0,1.86-.46,3.08-1.37,3.64s-2.64.85-5.21.85-4.3-.28-5.17-.85-1.32-1.77-1.32-3.63.34-3.13,1-3.83,2.05-1.05,4.13-1h5.14v-1.61a1.74,1.74,0,0,0-.71-1.57,5.35,5.35,0,0,0-2.53-.42,20.6,20.6,0,0,0-3.16.21A11.77,11.77,0,0,1,408.44,144.69Zm8.25,8.28v-2.63h-4.3a5.49,5.49,0,0,0-2.6.39c-.4.27-.59.86-.59,1.79s.24,1.54.74,1.8a7.63,7.63,0,0,0,3,.38,8.92,8.92,0,0,0,3-.33A1.39,1.39,0,0,0,416.69,153Z"/><path class="cls-1" d="M436.87,157.15a2.41,2.41,0,0,1-1.49-.5,2.81,2.81,0,0,1-.93-1.25l-4.39-11.83c-.06-.31-.1-.48-.11-.5,0-.72.45-1.08,1.35-1.07a1.3,1.3,0,0,1,1.36.8l4.15,11.66H437l4.16-11.66c.2-.53.7-.8,1.5-.8s1.2.36,1.2,1.07c0,0,0,.19-.1.5l-4.4,11.83a2.58,2.58,0,0,1-.94,1.27A2.52,2.52,0,0,1,436.87,157.15Z"/><path class="cls-1" d="M448.17,144.69c-.64,0-1-.38-1-1.15a1.26,1.26,0,0,1,1-1.39,21.74,21.74,0,0,1,5-.41c2.34,0,3.93.38,4.75,1.12s1.26,2,1.26,3.91v6c0,1.86-.46,3.08-1.36,3.64s-2.66.85-5.23.85-4.3-.28-5.16-.85-1.28-1.77-1.28-3.63.33-3.13,1-3.83,2.05-1.05,4.12-1h5.12v-1.61a1.71,1.71,0,0,0-.71-1.57,5.27,5.27,0,0,0-2.52-.42,20.65,20.65,0,0,0-3.17.21A11.67,11.67,0,0,1,448.17,144.69Zm8.25,8.28v-2.63h-4.28a5.44,5.44,0,0,0-2.59.39c-.39.27-.59.86-.59,1.79s.25,1.54.74,1.8a7.57,7.57,0,0,0,2.95.38,8.85,8.85,0,0,0,3-.33A1.39,1.39,0,0,0,456.42,153Zm-5.4-12.8a2.78,2.78,0,0,1-.83-2,2.81,2.81,0,0,1,.83-2,2.89,2.89,0,0,1,4.07,4.09,2.91,2.91,0,0,1-4.07,0Zm.8-2a1.22,1.22,0,0,0,.36.9,1.26,1.26,0,0,0,1.76,0,1.26,1.26,0,0,0,.37-.89,1.22,1.22,0,0,0-.37-.88,1.19,1.19,0,0,0-.88-.36,1.21,1.21,0,0,0-.89.36A1.17,1.17,0,0,0,451.82,138.12Z"/><path class="cls-1" d="M466.31,148.19v7.72c0,.73-.46,1.09-1.39,1.09s-1.39-.36-1.4-1.09v-8.08A9.56,9.56,0,0,1,464,144a5.15,5.15,0,0,1,.92-1.32c.66-.61,2.32-.91,5-.91a8.62,8.62,0,0,1,2.69.27,1,1,0,0,1,.68,1,1.4,1.4,0,0,1-.38,1.07,1.3,1.3,0,0,1-.95.35l-2-.13a9.38,9.38,0,0,0-2.38.18,2.22,2.22,0,0,0-.7.35,2.4,2.4,0,0,0-.33.7,3.62,3.62,0,0,0-.2,1.08C466.31,147,466.31,147.51,466.31,148.19Z"/><path class="cls-1" d="M488.29,157a3.89,3.89,0,0,1-3-.91,4.54,4.54,0,0,1-.84-3.11v-8.53h-1.95c-.63,0-.94-.41-.94-1.22s.31-1.23.94-1.23h1.95v-3.94c0-.73.47-1.09,1.4-1.09s1.39.36,1.39,1.09V142h3.95c.62,0,.94.41.94,1.23s-.32,1.22-.94,1.22h-3.95v8.74c0,.84.5,1.27,1.51,1.27l2.64-.15q1,0,1,1.11a1.44,1.44,0,0,1-1,1.49Q490.41,157,488.29,157Z"/><path class="cls-1" d="M506.8,154.34c.64,0,.95.38.95,1.15a1.25,1.25,0,0,1-.95,1.39,24.37,24.37,0,0,1-5,.36q-3.54,0-5.07-1.15a4.55,4.55,0,0,1-1.55-3.86v-5.67c0-1.9.47-3.18,1.4-3.83s2.66-1,5.19-1,4.24.31,5.13.94,1.33,1.92,1.33,3.88V149a1.74,1.74,0,0,1-.41,1.18,1.36,1.36,0,0,1-1,.42h-8.8v1.82q0,2.28,4,2.27a22.86,22.86,0,0,0,3-.18A16.44,16.44,0,0,1,506.8,154.34Zm-8.87-7.78v1.6h7.48v-1.6a2,2,0,0,0-.76-1.8,6.22,6.22,0,0,0-2.95-.47,6.73,6.73,0,0,0-3,.44A2,2,0,0,0,497.93,146.56Z"/><path class="cls-1" d="M521.12,152.45v-.36a1.14,1.14,0,0,0-.73-1.07,6.36,6.36,0,0,0-2.53-.33,15.47,15.47,0,0,1-4-.56,3.32,3.32,0,0,1-1.82-1.23,4,4,0,0,1-.72-2.48v-.26c0-1.73.51-2.89,1.55-3.49a9.81,9.81,0,0,1,4.76-.9,20,20,0,0,1,4.72.41,1.25,1.25,0,0,1,.95,1.39c0,.77-.31,1.15-.95,1.15a17.85,17.85,0,0,1-2-.19,21.83,21.83,0,0,0-3.11-.21,8,8,0,0,0-2.42.27c-.51.18-.77.69-.77,1.53v.28c0,1.1,1.15,1.69,3.45,1.76,1,0,1.92.12,2.89.24a4.34,4.34,0,0,1,2.45,1.08,3.17,3.17,0,0,1,1,2.59v.37c0,1.86-.52,3.13-1.57,3.8a9.75,9.75,0,0,1-5.07,1,22.48,22.48,0,0,1-5-.39,1.26,1.26,0,0,1-1-1.39c0-.77.32-1.15,1-1.15.37,0,1.1.06,2.19.19a26.88,26.88,0,0,0,3.18.2,6.45,6.45,0,0,0,2.53-.42A1.78,1.78,0,0,0,521.12,152.45Z"/><path class="cls-1" d="M532.66,157a3.87,3.87,0,0,1-2.95-.91,4.54,4.54,0,0,1-.84-3.11v-8.53h-2c-.62,0-.93-.41-.93-1.22s.31-1.23.93-1.23h2v-3.94c0-.73.46-1.09,1.39-1.09s1.39.36,1.39,1.09V142h4c.63,0,.94.41.94,1.23s-.31,1.22-.94,1.22h-4v8.74c0,.84.51,1.27,1.52,1.27l2.63-.15c.65,0,1,.37,1,1.11a1.43,1.43,0,0,1-1,1.49C535.11,157,534.07,157,532.66,157Z"/><path class="cls-1" d="M549.85,137.35v4.8a20.51,20.51,0,0,1,3.88-.41,16.72,16.72,0,0,1,2.93.21,3.54,3.54,0,0,1,3.09,2.8,16.7,16.7,0,0,1,.27,3.38v7.78c0,.73-.46,1.09-1.39,1.09s-1.4-.36-1.4-1.09v-7.48a15.79,15.79,0,0,0-.12-2.35,1.83,1.83,0,0,0-.63-1.23,2.18,2.18,0,0,0-1.1-.49,17.84,17.84,0,0,0-2-.07,25.52,25.52,0,0,0-3.56.31v11.31c0,.73-.46,1.09-1.39,1.09s-1.39-.36-1.4-1.09V137.35c0-.74.48-1.12,1.4-1.12S549.85,136.61,549.85,137.35Z"/><path class="cls-1" d="M576.38,154.34c.64,0,1,.38,1,1.15a1.26,1.26,0,0,1-1,1.39,24.37,24.37,0,0,1-5,.36q-3.54,0-5.07-1.15a4.54,4.54,0,0,1-1.54-3.86v-5.67c0-1.9.46-3.18,1.39-3.83s2.66-1,5.19-1,4.25.31,5.13.94,1.34,1.92,1.34,3.88V149a1.74,1.74,0,0,1-.41,1.18,1.39,1.39,0,0,1-1,.42h-8.81v1.82q0,2.28,4,2.27a22.86,22.86,0,0,0,3-.18A16.44,16.44,0,0,1,576.38,154.34Zm-8.87-7.78v1.6H575v-1.6a1.93,1.93,0,0,0-.76-1.8,6.2,6.2,0,0,0-3-.47,6.73,6.73,0,0,0-3,.44A2,2,0,0,0,567.51,146.56Z"/><path class="cls-1" d="M584.74,148.19v7.72c0,.73-.46,1.09-1.39,1.09s-1.39-.36-1.4-1.09v-8.08a9.56,9.56,0,0,1,.5-3.86,5.15,5.15,0,0,1,.92-1.32c.66-.61,2.32-.91,5-.91a8.62,8.62,0,0,1,2.69.27,1,1,0,0,1,.68,1,1.4,1.4,0,0,1-.38,1.07,1.3,1.3,0,0,1-1,.35l-2-.13a9.38,9.38,0,0,0-2.38.18,2.22,2.22,0,0,0-.7.35,2.4,2.4,0,0,0-.33.7,3.62,3.62,0,0,0-.2,1.08C584.74,147,584.74,147.51,584.74,148.19Z"/></svg>