<svg id="Layer_1" data-name="Layer 1" xmlns="http://www.w3.org/2000/svg" viewBox="0 0 980 300"><defs><style>.cls-1{fill:#fff;}</style></defs><title>text</title><path class="cls-1" d="M477,40l3.47,6.18h-2.28l-3.5-6.25,5-6.26h2.48Zm5.58,0,3.47,6.18h-2.28l-3.54-6.25,5-6.26h2.49Z"/><path class="cls-1" d="M501.88,25.57l-4.35,22.92H494.7l4.35-22.92Z"/><path class="cls-1" d="M502.56,48.49l2.21-11.66c.37-1.84.57-3.44.78-4.8h2.51l-.4,3.23h.06a7.22,7.22,0,0,1,6.09-3.6c2,0,4.18,1.12,4.18,4.59a15.81,15.81,0,0,1-.3,2.65l-1.84,9.59H513l1.8-9.49a10.49,10.49,0,0,0,.24-2.11c0-1.66-.65-2.89-2.59-2.89s-4.86,2.42-5.61,6.5l-1.49,8Z"/><path class="cls-1" d="M520.71,48.49l2.21-11.66c.38-1.84.58-3.44.78-4.8h2.52l-.41,3.23h.07a7.19,7.19,0,0,1,6.08-3.6c2,0,4.19,1.12,4.19,4.59a15.9,15.9,0,0,1-.31,2.65L534,48.49h-2.82L533,39a11.27,11.27,0,0,0,.23-2.11c0-1.66-.64-2.89-2.58-2.89s-4.86,2.42-5.61,6.5l-1.5,8Z"/><path class="cls-1" d="M554.64,38.53c0,5.06-3.6,10.33-9.11,10.33-4.11,0-6.42-3.06-6.42-6.76,0-5.41,3.77-10.44,9.11-10.44C552.67,31.66,554.64,35,554.64,38.53ZM542,42c0,2.69,1.46,4.63,3.88,4.63,3.33,0,5.84-4.29,5.84-8.13,0-1.9-.88-4.59-3.84-4.59C544.38,33.9,542,38.22,542,42Z"/><path class="cls-1" d="M557,48.49l2.69-14.25h-2.18l.41-2.21h2.21l.17-.85A9.59,9.59,0,0,1,563,25.44,5.81,5.81,0,0,1,566.92,24a4.41,4.41,0,0,1,2.24.44l-.61,2.24a4.12,4.12,0,0,0-1.67-.3c-2.24,0-3.33,2.17-3.8,4.89l-.14.78h3.67l-.44,2.21h-3.64l-2.72,14.25Z"/><path class="cls-1" d="M576.91,48.49a40.94,40.94,0,0,1,.38-4.25h-.07c-1.8,3.4-4.05,4.62-6.39,4.62-2.89,0-4.73-2.31-4.73-5.44,0-5.71,4.22-11.76,11.39-11.76a15.51,15.51,0,0,1,4.42.64l-1.67,8.57a37.75,37.75,0,0,0-.71,7.62Zm1.84-14.35a7.7,7.7,0,0,0-2-.24c-4.25,0-7.72,4.46-7.75,9,0,1.84.64,3.64,2.82,3.64,2.34,0,5.13-3.06,5.95-7.45Z"/><path class="cls-1" d="M595.07,47.84a11.32,11.32,0,0,1-4.76,1c-4.25,0-6.32-2.86-6.32-6.36,0-5.61,4.14-10.78,10.06-10.78a8.22,8.22,0,0,1,3.43.72l-.81,2.24a6.38,6.38,0,0,0-2.79-.61c-4.29,0-7,4.21-7,8.09,0,2.65,1.39,4.39,4.08,4.39a8.8,8.8,0,0,0,3.81-.92Z"/><path class="cls-1" d="M605.71,27.61,604.86,32h3.94l-.44,2.21h-3.94l-1.53,8a14.48,14.48,0,0,0-.31,2.65,1.39,1.39,0,0,0,1.57,1.57,8.66,8.66,0,0,0,1.32-.1l-.13,2.2a6.42,6.42,0,0,1-2.18.31c-2.52,0-3.47-1.53-3.47-3.19a15.17,15.17,0,0,1,.34-3.1l1.63-8.33h-2.38l.45-2.21h2.34l.72-3.7Z"/><path class="cls-1" d="M624.61,38.53c0,5.06-3.6,10.33-9.11,10.33-4.11,0-6.42-3.06-6.42-6.76,0-5.41,3.77-10.44,9.11-10.44C622.64,31.66,624.61,35,624.61,38.53ZM612,42c0,2.69,1.46,4.63,3.88,4.63,3.33,0,5.84-4.29,5.84-8.13,0-1.9-.88-4.59-3.84-4.59C614.35,33.9,612,38.22,612,42Z"/><path class="cls-1" d="M626.59,48.49l2-10.61c.41-2.14.68-4.32.85-5.85h2.48c-.13,1.16-.27,2.31-.44,3.57h.1c1.06-2.24,2.83-3.94,5-3.94a4.94,4.94,0,0,1,.79.07l-.55,2.78a4.52,4.52,0,0,0-.75-.06c-2.44,0-4.62,2.95-5.33,6.8l-1.36,7.24Z"/><path class="cls-1" d="M637.53,45.63a7.48,7.48,0,0,0,3.54,1A2.84,2.84,0,0,0,644.2,44c0-1.3-.58-2.08-2.28-3-1.9-1-3-2.52-3-4.18,0-2.89,2.48-5.1,5.95-5.1a6.9,6.9,0,0,1,3.43.81l-.78,2.15a5.84,5.84,0,0,0-2.85-.75,2.65,2.65,0,0,0-2.93,2.48c0,1.19.79,1.94,2.25,2.75,1.83,1.06,3.09,2.49,3.09,4.32,0,3.47-2.82,5.41-6.29,5.41a7.28,7.28,0,0,1-4.08-1.12Z"/><path class="cls-1" d="M672.21,47.74a15,15,0,0,1-6,1.09c-5.78,0-9.28-3.64-9.28-9.49a14.25,14.25,0,0,1,4.9-11.05,13,13,0,0,1,8.63-3.09,9.32,9.32,0,0,1,5,1.12l-.92,2.28a9.42,9.42,0,0,0-4.52-1,9.72,9.72,0,0,0-6.57,2.58,12.06,12.06,0,0,0-3.5,8.7c0,4.12,1.87,7.48,7,7.48a11.64,11.64,0,0,0,4.9-1Z"/><path class="cls-1" d="M675.17,48.49l4.59-24.14h2.82L678,48.49Z"/><path class="cls-1" d="M698.7,38.53c0,5.06-3.61,10.33-9.11,10.33-4.12,0-6.43-3.06-6.43-6.76,0-5.41,3.77-10.44,9.11-10.44C696.73,31.66,698.7,35,698.7,38.53ZM686.08,42c0,2.69,1.47,4.63,3.88,4.63,3.33,0,5.85-4.29,5.85-8.13,0-1.9-.89-4.59-3.84-4.59C688.43,33.9,686.05,38.22,686.08,42Z"/><path class="cls-1" d="M716.72,32l-2.21,11.66c-.34,1.84-.58,3.44-.75,4.8h-2.55l.44-3.1h-.07a7.29,7.29,0,0,1-5.81,3.47c-2.11,0-4.32-1-4.32-4.76a14.59,14.59,0,0,1,.31-2.75L703.53,32h2.82l-1.74,9.18a11.38,11.38,0,0,0-.3,2.42c0,1.7.71,2.85,2.65,2.85s4.66-2.38,5.34-6L713.89,32Z"/><path class="cls-1" d="M736.06,24.35l-3.6,18.94a42.93,42.93,0,0,0-.72,5.2h-2.58l.44-3.27h-.07a7,7,0,0,1-5.91,3.64c-3.2,0-4.93-2.62-4.93-6,0-5.85,4.35-11.22,10.16-11.22a7.48,7.48,0,0,1,2.93.58l1.46-7.89Zm-4.72,10.27a5.08,5.08,0,0,0-2.72-.68c-4,0-7,4.18-7,8.56,0,2,.68,4,3.1,4,2.17,0,4.79-2.48,5.5-6.19Z"/><path class="cls-1" d="M741.2,45.87a7.62,7.62,0,0,0,2.89.48c2.41,0,3.91-1.26,4.69-5.31l2.92-15.47h2.82l-3,15.78c-1,5.37-3.26,7.51-7.54,7.51a9.58,9.58,0,0,1-3.4-.58Z"/><path class="cls-1" d="M770.84,38.53c0,5.06-3.6,10.33-9.11,10.33-4.11,0-6.42-3.06-6.42-6.76,0-5.41,3.77-10.44,9.11-10.44C768.87,31.66,770.84,35,770.84,38.53ZM758.23,42c0,2.69,1.46,4.63,3.88,4.63,3.33,0,5.84-4.29,5.84-8.13,0-1.9-.88-4.59-3.84-4.59C760.58,33.9,758.2,38.22,758.23,42Z"/><path class="cls-1" d="M788.86,32l-2.21,11.66c-.34,1.84-.57,3.44-.74,4.8h-2.55l.44-3.1h-.07a7.3,7.3,0,0,1-5.81,3.47c-2.11,0-4.32-1-4.32-4.76a15.35,15.35,0,0,1,.3-2.75L775.67,32h2.82l-1.73,9.18a11.45,11.45,0,0,0-.31,2.42c0,1.7.72,2.85,2.66,2.85s4.65-2.38,5.33-6L786,32Z"/><path class="cls-1" d="M790.7,48.49l2-10.61c.4-2.14.68-4.32.85-5.85H796c-.14,1.16-.27,2.31-.44,3.57h.1c1-2.24,2.82-3.94,5-3.94a4.71,4.71,0,0,1,.78.07L801,34.51a4.52,4.52,0,0,0-.75-.06c-2.45,0-4.62,2.95-5.34,6.8l-1.36,7.24Z"/><path class="cls-1" d="M801.51,48.49l2.21-11.66c.37-1.84.58-3.44.78-4.8H807l-.41,3.23h.07a7.19,7.19,0,0,1,6.08-3.6c2,0,4.19,1.12,4.19,4.59a15.9,15.9,0,0,1-.31,2.65l-1.84,9.59H812l1.8-9.49a10.49,10.49,0,0,0,.24-2.11c0-1.66-.64-2.89-2.58-2.89s-4.86,2.42-5.61,6.5l-1.5,8Z"/><path class="cls-1" d="M831.53,47.54a11.38,11.38,0,0,1-5.44,1.29c-4.35,0-6.25-3-6.25-6.6,0-5,3.67-10.57,9-10.57,3.13,0,4.83,1.87,4.83,4.21,0,4.32-4.86,5.48-10.95,5.38a6.93,6.93,0,0,0,.34,3.12,3.74,3.74,0,0,0,3.68,2.21,9.29,9.29,0,0,0,4.42-1.15Zm-3.12-13.67c-2.69,0-4.7,2.62-5.38,5.2,4.42,0,7.89-.54,7.89-3.09C830.92,34.62,829.9,33.87,828.41,33.87Z"/><path class="cls-1" d="M838.67,32l1.63,8.88c.38,1.87.58,3.09.75,4.31h.07c.44-1,.92-2.21,1.77-4L847.07,32h3l-6.15,12.51c-1.77,3.57-3.44,6.46-5.68,8.64A10.27,10.27,0,0,1,833.44,56l-.68-2.41a10.78,10.78,0,0,0,3-1.6,12.62,12.62,0,0,0,3.16-3.77,1.17,1.17,0,0,0,.11-.75L835.75,32Z"/><path class="cls-1" d="M856.42,52.23a8.76,8.76,0,0,0,4.35,1.08c2.76,0,4.93-1.42,5.92-5.88l.54-2.44h-.1a6.57,6.57,0,0,1-5.71,3.5c-3.3,0-5-2.79-5-5.71,0-5.58,4.08-11.12,10.44-11.12a13.48,13.48,0,0,1,5.27,1.15l-2.52,13.6c-.68,3.47-1.6,5.89-3.33,7.35a8.71,8.71,0,0,1-5.75,1.83,9.8,9.8,0,0,1-4.93-1.15ZM869,34.48a6.85,6.85,0,0,0-2.72-.54c-4.11,0-6.93,4.28-7,8.36,0,1.8.65,3.94,3.17,3.94S867.37,43.18,868,40Z"/><path class="cls-1" d="M880.19,32l-3.13,16.39C876.55,51.17,876,52.91,875,54a5.09,5.09,0,0,1-3.77,1.6,6.31,6.31,0,0,1-1.87-.2l.34-2.21a5.68,5.68,0,0,0,1.29.13c1.43,0,2.55-.88,3.2-4.28l3.19-17Zm-2.45-4.59a1.89,1.89,0,0,1,1.87-1.9,1.63,1.63,0,0,1,1.66,1.77,1.85,1.85,0,0,1-1.9,1.9A1.63,1.63,0,0,1,877.74,27.44Z"/><path class="cls-1" d="M881.55,48.76l1.93-2.21A7.15,7.15,0,0,1,882,41.89c0-5.27,3.78-10.23,9.05-10.23A6.05,6.05,0,0,1,895,32.88l1.87-2.07,1.12,1-1.9,2.18a7.3,7.3,0,0,1,1.49,4.48c0,5.75-4.11,10.44-8.9,10.44a6.23,6.23,0,0,1-4.19-1.32l-1.9,2.24Zm11.79-13.94a3.37,3.37,0,0,0-2.62-1c-3.56,0-5.81,4.38-5.84,7.71a5.29,5.29,0,0,0,.61,2.72l.07,0ZM886.2,45.63a3.57,3.57,0,0,0,2.72,1.06c3,0,5.75-3.91,5.78-7.76a6.25,6.25,0,0,0-.54-2.65h-.07Z"/><path class="cls-1" d="M899.57,48.49l2-10.61c.41-2.14.68-4.32.85-5.85h2.48c-.13,1.16-.27,2.31-.44,3.57h.1c1.06-2.24,2.82-3.94,5-3.94a4.94,4.94,0,0,1,.79.07l-.55,2.78a4.52,4.52,0,0,0-.75-.06c-2.44,0-4.62,2.95-5.33,6.8l-1.36,7.24Z"/><path class="cls-1" d="M492.05,65.15l-3.6,18.94a41,41,0,0,0-.72,5.2h-2.58l.44-3.27h-.07a7,7,0,0,1-5.91,3.64c-3.2,0-4.93-2.62-4.93-6,0-5.85,4.35-11.22,10.16-11.22a7.48,7.48,0,0,1,2.93.58l1.46-7.89Zm-4.73,10.27a5.06,5.06,0,0,0-2.72-.68c-3.94,0-7,4.18-7,8.56,0,2,.68,4,3.1,4,2.17,0,4.79-2.48,5.5-6.19Z"/><path class="cls-1" d="M504.26,88.34a11.41,11.41,0,0,1-5.44,1.29c-4.36,0-6.26-3-6.26-6.6,0-5,3.67-10.57,9-10.57,3.12,0,4.82,1.87,4.82,4.21,0,4.32-4.86,5.48-10.94,5.38a6.66,6.66,0,0,0,.34,3.12,3.74,3.74,0,0,0,3.67,2.21,9.22,9.22,0,0,0,4.42-1.15Zm-3.13-13.67c-2.69,0-4.69,2.62-5.37,5.2,4.42,0,7.88-.54,7.88-3.09C503.64,75.42,502.62,74.67,501.13,74.67Z"/><path class="cls-1" d="M515.17,68.41l-.85,4.42h3.94L517.82,75h-3.94l-1.53,8a14.48,14.48,0,0,0-.31,2.65,1.39,1.39,0,0,0,1.57,1.57,8.66,8.66,0,0,0,1.32-.1l-.13,2.2a6.42,6.42,0,0,1-2.18.31c-2.52,0-3.47-1.53-3.47-3.2a15.15,15.15,0,0,1,.34-3.09L511.13,75h-2.38l.44-2.21h2.34l.72-3.7Z"/><path class="cls-1" d="M524.62,89.29l2.21-11.66c.34-1.84.58-3.44.75-4.8h2.48l-.44,3.1h.1a7,7,0,0,1,5.78-3.47,3.57,3.57,0,0,1,3.84,3.67,7,7,0,0,1,6-3.67c1.91,0,4,1.22,4,4.32a16.61,16.61,0,0,1-.27,2.78l-1.84,9.73h-2.75l1.77-9.49a11.3,11.3,0,0,0,.24-2.14c0-1.73-.65-2.86-2.49-2.86-2,0-4.45,2.38-5.13,6.06l-1.6,8.43h-2.72l1.84-9.66a11,11,0,0,0,.2-2c0-1.4-.37-2.83-2.45-2.83s-4.62,2.72-5.26,6.23l-1.53,8.26Z"/><path class="cls-1" d="M568,72.83l-2.21,11.66c-.34,1.84-.58,3.44-.75,4.8h-2.55l.45-3.1h-.07A7.31,7.31,0,0,1,557,89.66c-2.1,0-4.31-1-4.31-4.76a15.35,15.35,0,0,1,.3-2.75l1.77-9.32h2.82L555.87,82a10.83,10.83,0,0,0-.31,2.42c0,1.7.72,2.85,2.65,2.85s4.66-2.38,5.34-6l1.6-8.43Z"/><path class="cls-1" d="M569.84,89.29l4.59-24.14h2.82l-4.62,24.14Z"/><path class="cls-1" d="M577.59,89.29l3.17-16.46h2.82l-3.16,16.46Zm3.68-21.05a1.87,1.87,0,0,1,1.86-1.9,1.63,1.63,0,0,1,1.67,1.77,1.85,1.85,0,0,1-1.9,1.9A1.63,1.63,0,0,1,581.27,68.24Z"/><path class="cls-1" d="M585.55,93a8.76,8.76,0,0,0,4.35,1.08c2.75,0,4.93-1.42,5.92-5.88l.54-2.44h-.1a6.58,6.58,0,0,1-5.71,3.5c-3.3,0-5-2.79-5-5.71,0-5.58,4.08-11.12,10.44-11.12a13.48,13.48,0,0,1,5.27,1.15l-2.52,13.6c-.68,3.47-1.6,5.88-3.33,7.35a8.71,8.71,0,0,1-5.75,1.83,9.8,9.8,0,0,1-4.93-1.15Zm12.61-17.75a6.85,6.85,0,0,0-2.72-.54c-4.11,0-6.93,4.28-7,8.36,0,1.8.65,3.94,3.16,3.94s4.87-3.06,5.48-6.29Z"/><path class="cls-1" d="M609.79,89.29,612.48,75H610.3l.41-2.21h2.21l.17-.85a9.58,9.58,0,0,1,2.68-5.74,5.83,5.83,0,0,1,3.91-1.46,4.46,4.46,0,0,1,2.25.44l-.61,2.24a4.16,4.16,0,0,0-1.67-.3c-2.24,0-3.33,2.17-3.81,4.89l-.13.78h3.67L618.94,75H615.3l-2.72,14.25Z"/><path class="cls-1" d="M634.78,79.33c0,5.06-3.61,10.33-9.11,10.33-4.12,0-6.43-3.06-6.43-6.76,0-5.41,3.78-10.44,9.11-10.44C632.81,72.46,634.78,75.82,634.78,79.33Zm-12.61,3.46c0,2.69,1.46,4.63,3.87,4.63,3.33,0,5.85-4.29,5.85-8.13,0-1.9-.89-4.59-3.84-4.59C624.51,74.7,622.13,79,622.17,82.79Z"/><path class="cls-1" d="M636.75,89.29l2-10.61c.41-2.14.68-4.32.85-5.85h2.48c-.14,1.16-.27,2.31-.44,3.57h.1c1-2.24,2.82-3.94,5-3.94a4.71,4.71,0,0,1,.78.07L647,75.31a4.52,4.52,0,0,0-.75-.06c-2.45,0-4.62,3-5.34,6.8l-1.36,7.24Z"/><path class="cls-1" d="M657.22,89.29,656.1,66.37H659l.48,13.74c.1,3,0,4.52,0,6h.07c.54-1.49,1.08-3,2.38-5.81l6.32-13.91h3l.48,13.19c.1,3,.1,5,.07,6.46h.07c.68-2,1.36-3.8,2.24-5.88l6.15-13.77h3L672.55,89.29h-3l-.61-13a60.37,60.37,0,0,1,.07-6.6H669a62.31,62.31,0,0,1-2.31,6l-6.4,13.6Z"/><path class="cls-1" d="M691.59,89.29A40.94,40.94,0,0,1,692,85h-.07c-1.8,3.4-4,4.62-6.39,4.62-2.89,0-4.73-2.31-4.73-5.44,0-5.71,4.22-11.76,11.39-11.76a15.51,15.51,0,0,1,4.42.64l-1.67,8.57a37.75,37.75,0,0,0-.71,7.62Zm1.84-14.35a7.7,7.7,0,0,0-2-.24c-4.25,0-7.72,4.46-7.75,9,0,1.84.64,3.64,2.82,3.64,2.34,0,5.13-3.06,6-7.45Z"/><path class="cls-1" d="M698.46,89.29l4.59-24.14h2.82l-4.62,24.14Z"/><path class="cls-1" d="M706.25,89.29l4.59-24.14h2.82L709,89.29Z"/><path class="cls-1" d="M725.86,88.34a11.38,11.38,0,0,1-5.44,1.29c-4.35,0-6.25-3-6.25-6.6,0-5,3.67-10.57,9-10.57,3.13,0,4.83,1.87,4.83,4.21,0,4.32-4.86,5.48-11,5.38a6.93,6.93,0,0,0,.34,3.12A3.75,3.75,0,0,0,721,87.38a9.29,9.29,0,0,0,4.42-1.15Zm-3.12-13.67c-2.69,0-4.7,2.62-5.38,5.2,4.42,0,7.89-.54,7.89-3.09C725.25,75.42,724.23,74.67,722.74,74.67Z"/><path class="cls-1" d="M729.4,89.29l2.21-11.66c.37-1.84.58-3.44.78-4.8h2.52l-.41,3.23h.07a7.19,7.19,0,0,1,6.08-3.6c2,0,4.18,1.12,4.18,4.59a15.81,15.81,0,0,1-.3,2.65l-1.84,9.59h-2.82l1.8-9.49a10.49,10.49,0,0,0,.24-2.11c0-1.66-.65-2.89-2.58-2.89s-4.87,2.42-5.61,6.5l-1.5,8Z"/><path class="cls-1" d="M747.56,89.29l3.16-16.46h2.82l-3.16,16.46Zm3.67-21.05a1.87,1.87,0,0,1,1.87-1.9,1.63,1.63,0,0,1,1.66,1.77,1.85,1.85,0,0,1-1.9,1.9A1.63,1.63,0,0,1,751.23,68.24Z"/><path class="cls-1" d="M771.39,72.83l-2.21,11.66c-.34,1.84-.58,3.44-.75,4.8h-2.55l.44-3.1h-.07a7.29,7.29,0,0,1-5.81,3.47c-2.11,0-4.32-1-4.32-4.76a15.47,15.47,0,0,1,.31-2.75l1.77-9.32H761L759.29,82a10.83,10.83,0,0,0-.31,2.42c0,1.7.71,2.85,2.65,2.85s4.66-2.38,5.34-6l1.6-8.43Z"/><path class="cls-1" d="M773.36,86.43a7.44,7.44,0,0,0,3.54,1A2.83,2.83,0,0,0,780,84.77c0-1.3-.57-2.08-2.27-3-1.91-1-3-2.52-3-4.18,0-2.89,2.48-5.1,6-5.1a6.93,6.93,0,0,1,3.43.81l-.78,2.15a5.89,5.89,0,0,0-2.86-.75,2.64,2.64,0,0,0-2.92,2.48c0,1.19.78,1.94,2.24,2.75,1.84,1.06,3.1,2.49,3.1,4.32,0,3.47-2.82,5.41-6.29,5.41a7.2,7.2,0,0,1-4.08-1.13Z"/><path class="cls-1" d="M795.56,89.29l-1.12-22.92h2.85l.48,13.74c.1,3,0,4.52,0,6h.07c.54-1.49,1.09-3,2.38-5.81l6.32-13.91h3L810,79.56c.11,3,.11,5,.07,6.46h.07c.68-2,1.36-3.8,2.24-5.88l6.16-13.77h2.95L810.89,89.29h-2.95l-.62-13a63,63,0,0,1,.07-6.6h-.1a62.31,62.31,0,0,1-2.31,6l-6.39,13.6Z"/><path class="cls-1" d="M820,89.29l3.16-16.46H826l-3.16,16.46Zm3.67-21.05a1.87,1.87,0,0,1,1.87-1.9,1.63,1.63,0,0,1,1.66,1.77,1.85,1.85,0,0,1-1.9,1.9A1.63,1.63,0,0,1,823.68,68.24Z"/><path class="cls-1" d="M827.83,89.29l4.59-24.14h2.82l-4.62,24.14Z"/><path class="cls-1" d="M835.58,89.29l4.59-24.14H843l-2,10.61H841a7.06,7.06,0,0,1,5.88-3.3c1.87,0,4.08,1.15,4.08,4.42a15.25,15.25,0,0,1-.27,2.79l-1.84,9.62h-2.82l1.84-9.49a13.67,13.67,0,0,0,.2-2.28c0-1.53-.71-2.72-2.55-2.72-2.18,0-4.93,2.55-5.61,6.26l-1.53,8.23Z"/><path class="cls-1" d="M865.6,88.34a11.38,11.38,0,0,1-5.44,1.29c-4.35,0-6.25-3-6.25-6.6,0-5,3.67-10.57,9-10.57,3.13,0,4.83,1.87,4.83,4.21,0,4.32-4.86,5.48-11,5.38a6.93,6.93,0,0,0,.34,3.12,3.75,3.75,0,0,0,3.67,2.21,9.22,9.22,0,0,0,4.42-1.15Zm-3.13-13.67c-2.68,0-4.69,2.62-5.37,5.2,4.42,0,7.89-.54,7.89-3.09C865,75.42,864,74.67,862.47,74.67Z"/><path class="cls-1" d="M869.17,89.29l4.59-24.14h2.82L872,89.29Z"/><path class="cls-1" d="M876.92,89.29l2.21-11.66c.34-1.84.58-3.44.75-4.8h2.48l-.44,3.1h.1a7,7,0,0,1,5.78-3.47,3.57,3.57,0,0,1,3.84,3.67,7,7,0,0,1,6.05-3.67c1.91,0,4,1.22,4,4.32a16.61,16.61,0,0,1-.27,2.78l-1.84,9.73h-2.75l1.77-9.49a11.3,11.3,0,0,0,.24-2.14c0-1.73-.65-2.86-2.49-2.86-2,0-4.45,2.38-5.13,6.06l-1.6,8.43h-2.72l1.84-9.66a10.19,10.19,0,0,0,.2-2c0-1.4-.37-2.83-2.44-2.83s-4.63,2.72-5.27,6.23l-1.53,8.26Z"/><path class="cls-1" d="M904.53,86.43a7.44,7.44,0,0,0,3.54,1,2.83,2.83,0,0,0,3.12-2.68c0-1.3-.57-2.08-2.27-3-1.91-1-3-2.52-3-4.18,0-2.89,2.48-5.1,5.95-5.1a6.93,6.93,0,0,1,3.43.81l-.78,2.15a5.89,5.89,0,0,0-2.86-.75,2.64,2.64,0,0,0-2.92,2.48c0,1.19.78,1.94,2.24,2.75,1.84,1.06,3.1,2.49,3.1,4.32,0,3.47-2.82,5.41-6.29,5.41a7.2,7.2,0,0,1-4.08-1.13Z"/><path class="cls-1" d="M928.94,88.34a11.38,11.38,0,0,1-5.44,1.29c-4.35,0-6.25-3-6.25-6.6,0-5,3.67-10.57,9-10.57,3.13,0,4.83,1.87,4.83,4.21,0,4.32-4.86,5.48-10.95,5.38a6.93,6.93,0,0,0,.34,3.12,3.75,3.75,0,0,0,3.67,2.21,9.22,9.22,0,0,0,4.42-1.15Zm-3.13-13.67c-2.68,0-4.69,2.62-5.37,5.2,4.42,0,7.89-.54,7.89-3.09C928.33,75.42,927.31,74.67,925.81,74.67Z"/><path class="cls-1" d="M932.48,89.29l2.21-11.66c.37-1.84.57-3.44.78-4.8H938l-.4,3.23h.06a7.22,7.22,0,0,1,6.09-3.6c2,0,4.18,1.12,4.18,4.59a15.81,15.81,0,0,1-.3,2.65l-1.84,9.59H943l1.8-9.49a10.49,10.49,0,0,0,.24-2.11c0-1.66-.65-2.89-2.59-2.89s-4.86,2.42-5.61,6.5l-1.49,8Z"/><path class="cls-1" d="M485.45,130.09a40.94,40.94,0,0,1,.38-4.25h-.07c-1.8,3.4-4.05,4.62-6.39,4.62-2.89,0-4.73-2.31-4.73-5.44,0-5.71,4.22-11.76,11.39-11.76a15.45,15.45,0,0,1,4.42.64l-1.66,8.57a37.14,37.14,0,0,0-.72,7.62Zm1.84-14.35a7.7,7.7,0,0,0-2-.24c-4.25,0-7.72,4.46-7.75,9,0,1.84.64,3.64,2.82,3.64,2.34,0,5.13-3.06,5.95-7.45Zm1.26-7a3.37,3.37,0,0,1-3.54,3.23,3.08,3.08,0,0,1-3.26-3,3.32,3.32,0,0,1,3.53-3.33A3,3,0,0,1,488.55,108.7Zm-5.1.17a1.68,1.68,0,0,0,1.63,1.77,1.84,1.84,0,0,0,1.77-2,1.66,1.66,0,0,0-1.67-1.77A1.81,1.81,0,0,0,483.45,108.87Z"/><path class="cls-1" d="M498.61,127.23a7.44,7.44,0,0,0,3.54,1,2.84,2.84,0,0,0,3.13-2.68c0-1.3-.58-2.08-2.28-3-1.91-1.05-3-2.52-3-4.18,0-2.89,2.48-5.1,5.95-5.1a6.78,6.78,0,0,1,3.43.82l-.78,2.14a5.88,5.88,0,0,0-2.85-.75,2.65,2.65,0,0,0-2.93,2.48c0,1.19.78,1.94,2.25,2.75,1.83,1.06,3.09,2.49,3.09,4.32,0,3.47-2.82,5.41-6.29,5.41a7.28,7.28,0,0,1-4.08-1.12Z"/><path class="cls-1" d="M511.19,130.09,515.75,106h2.82l-2.89,15.13h.07c.51-.58,1.12-1.19,1.53-1.67l5.81-5.78h3.47l-7.17,6.77,4.92,9.69h-3.12l-4-8.13-2.07,1.87L514,130.09Z"/><path class="cls-1" d="M537.1,130.09c0-1,.17-2.55.37-4.25h-.06c-1.81,3.4-4,4.62-6.4,4.62-2.89,0-4.72-2.31-4.72-5.44,0-5.71,4.21-11.76,11.39-11.76a15.56,15.56,0,0,1,4.42.64l-1.67,8.57a37.75,37.75,0,0,0-.71,7.62Zm1.84-14.35a7.72,7.72,0,0,0-2-.24c-4.25,0-7.71,4.46-7.75,9,0,1.84.65,3.64,2.82,3.64,2.35,0,5.14-3.06,6-7.45Z"/><path class="cls-1" d="M544,130.09,548.56,106h2.82l-4.62,24.14Z"/><path class="cls-1" d="M563.58,129.13a11.25,11.25,0,0,1-5.43,1.3c-4.36,0-6.26-3-6.26-6.6,0-5,3.67-10.57,9-10.57,3.12,0,4.82,1.87,4.82,4.21,0,4.32-4.86,5.48-10.94,5.38a6.78,6.78,0,0,0,.33,3.12,3.75,3.75,0,0,0,3.68,2.21,9.26,9.26,0,0,0,4.42-1.15Zm-3.12-13.66c-2.69,0-4.69,2.62-5.38,5.2,4.42,0,7.89-.54,7.89-3.09C563,116.22,562,115.47,560.46,115.47Z"/><path class="cls-1" d="M567.12,130.09l2-10.61c.41-2.14.68-4.32.85-5.85h2.48c-.14,1.16-.27,2.31-.44,3.57h.1c1-2.24,2.82-3.94,5-3.94a4.71,4.71,0,0,1,.78.07l-.54,2.78a4.52,4.52,0,0,0-.75-.06c-2.45,0-4.62,3-5.34,6.8l-1.36,7.24Z"/><path class="cls-1" d="M589.59,129.13a11.26,11.26,0,0,1-5.44,1.3c-4.35,0-6.25-3-6.25-6.6,0-5,3.67-10.57,9-10.57,3.13,0,4.83,1.87,4.83,4.21,0,4.32-4.86,5.48-11,5.38a6.93,6.93,0,0,0,.34,3.12,3.75,3.75,0,0,0,3.68,2.21,9.26,9.26,0,0,0,4.42-1.15Zm-3.12-13.66c-2.69,0-4.7,2.62-5.38,5.2,4.42,0,7.89-.54,7.89-3.09C589,116.22,588,115.47,586.47,115.47Z"/><path class="cls-1" d="M611.18,129.13a11.26,11.26,0,0,1-5.44,1.3c-4.35,0-6.25-3-6.25-6.6,0-5,3.67-10.57,9-10.57,3.13,0,4.83,1.87,4.83,4.21,0,4.32-4.86,5.48-10.95,5.38a6.93,6.93,0,0,0,.34,3.12,3.75,3.75,0,0,0,3.68,2.21,9.29,9.29,0,0,0,4.42-1.15Zm-3.12-13.66c-2.69,0-4.7,2.62-5.38,5.2,4.42,0,7.89-.54,7.89-3.09C610.57,116.22,609.55,115.47,608.06,115.47Z"/><path class="cls-1" d="M622.1,109.21l-.85,4.42h3.94l-.44,2.21h-4l-1.52,8a14.48,14.48,0,0,0-.31,2.65,1.39,1.39,0,0,0,1.56,1.57,8.79,8.79,0,0,0,1.33-.1l-.14,2.21a6.68,6.68,0,0,1-2.17.3c-2.52,0-3.47-1.53-3.47-3.19a15.17,15.17,0,0,1,.34-3.1l1.63-8.33h-2.38l.44-2.21h2.35l.71-3.7Z"/><path class="cls-1" d="M632.74,109.21l-.85,4.42h3.94l-.44,2.21h-3.94l-1.53,8a14.48,14.48,0,0,0-.31,2.65,1.39,1.39,0,0,0,1.56,1.57,8.69,8.69,0,0,0,1.33-.1l-.14,2.21a6.68,6.68,0,0,1-2.17.3c-2.52,0-3.47-1.53-3.47-3.19a15.17,15.17,0,0,1,.34-3.1l1.63-8.33h-2.38l.44-2.21h2.35l.71-3.7Z"/><path class="cls-1" d="M647.73,129.13a11.26,11.26,0,0,1-5.44,1.3c-4.35,0-6.25-3-6.25-6.6,0-5,3.67-10.57,9-10.57,3.13,0,4.83,1.87,4.83,4.21,0,4.32-4.86,5.48-11,5.38a6.93,6.93,0,0,0,.34,3.12,3.73,3.73,0,0,0,3.67,2.21,9.22,9.22,0,0,0,4.42-1.15Zm-3.13-13.66c-2.68,0-4.69,2.62-5.37,5.2,4.42,0,7.89-.54,7.89-3.09C647.12,116.22,646.1,115.47,644.6,115.47Z"/><path class="cls-1" d="M651.27,130.09l2-10.61c.41-2.14.68-4.32.85-5.85h2.49c-.14,1.16-.28,2.31-.45,3.57h.11c1.05-2.24,2.82-3.94,5-3.94a4.71,4.71,0,0,1,.78.07l-.54,2.78a4.62,4.62,0,0,0-.75-.06c-2.45,0-4.63,3-5.34,6.8l-1.36,7.24Z"/><path class="cls-1" d="M675.54,106l-2.17,10.67h.07a7,7,0,0,1,5.77-3.36c3.61,0,5,3,5,5.91,0,5-3.64,11.29-10.23,11.29-2.89,0-5.07-1.19-5.07-4.25a17,17,0,0,1,.27-2.55L672.72,106ZM672,123.73a7.58,7.58,0,0,0-.2,2.07c0,1.57.88,2.45,2.65,2.45,4.25,0,6.83-5.06,6.83-8.7,0-2-.88-4-3.12-4-2.45,0-5,2.52-5.78,6.4Z"/><path class="cls-1" d="M698.08,129.13a11.26,11.26,0,0,1-5.44,1.3c-4.35,0-6.25-3-6.25-6.6,0-5,3.67-10.57,9-10.57,3.13,0,4.83,1.87,4.83,4.21,0,4.32-4.86,5.48-10.94,5.38a6.78,6.78,0,0,0,.33,3.12,3.75,3.75,0,0,0,3.68,2.21,9.26,9.26,0,0,0,4.42-1.15ZM695,115.47c-2.69,0-4.7,2.62-5.38,5.2,4.42,0,7.89-.54,7.89-3.09C697.47,116.22,696.45,115.47,695,115.47Z"/><path class="cls-1" d="M701.62,130.09,706.21,106H709l-2,10.61h.07a7.06,7.06,0,0,1,5.88-3.3c1.87,0,4.08,1.16,4.08,4.42a15.25,15.25,0,0,1-.27,2.79l-1.84,9.62h-2.82l1.84-9.49a13.67,13.67,0,0,0,.2-2.28c0-1.52-.71-2.72-2.55-2.72-2.17,0-4.93,2.55-5.61,6.26l-1.53,8.23Z"/><path class="cls-1" d="M735.55,120.13c0,5.06-3.6,10.33-9.11,10.33-4.11,0-6.43-3.06-6.43-6.76,0-5.41,3.78-10.44,9.12-10.44C733.58,113.26,735.55,116.62,735.55,120.13Zm-12.61,3.46c0,2.69,1.46,4.63,3.87,4.63,3.34,0,5.85-4.29,5.85-8.13,0-1.9-.88-4.59-3.84-4.59C725.28,115.5,722.91,119.82,722.94,123.59Z"/><path class="cls-1" d="M741,113.63l1.43,9.39c.23,1.87.44,3.12.51,4h.1a37.91,37.91,0,0,1,1.73-3.84l5-9.59h3.1l-9.15,16.46h-2.79l-2.85-16.46Z"/><path class="cls-1" d="M753.74,115.26H756l3.54,6.26-5,6.26H752l5.17-6.36Zm5.58,0h2.28l3.53,6.26-5,6.26h-2.48l5.17-6.36Z"/></svg>