<svg id="Layer_1" data-name="Layer 1" xmlns="http://www.w3.org/2000/svg" viewBox="0 0 980 300"><defs><style>.cls-1{fill:#fff;}</style></defs><title>text</title><path class="cls-1" d="M800.83,138.84V121.26h-6.64c-.67,0-1-.45-1-1.35s.34-1.36,1-1.36h16.24c.68,0,1,.45,1,1.36s-.34,1.35-1,1.35H803.8v17.58c0,.77-.5,1.16-1.49,1.16S800.83,139.61,800.83,138.84Z"/><path class="cls-1" d="M811.82,126.9c-.69,0-1-.41-1-1.23a1.34,1.34,0,0,1,1-1.48,23,23,0,0,1,5.35-.43c2.49,0,4.18.39,5.06,1.19s1.34,2.18,1.34,4.16v6.36c0,2-.49,3.28-1.45,3.88s-2.82.91-5.56.91-4.57-.3-5.5-.9-1.4-1.89-1.4-3.87.36-3.33,1.07-4.08,2.19-1.12,4.4-1.11h5.47v-1.71a1.81,1.81,0,0,0-.76-1.67,5.59,5.59,0,0,0-2.69-.46,21.6,21.6,0,0,0-3.36.23A12.75,12.75,0,0,1,811.82,126.9Zm8.78,8.81v-2.8H816a5.8,5.8,0,0,0-2.77.42c-.42.28-.62.91-.62,1.9s.26,1.64.78,1.92a8.14,8.14,0,0,0,3.16.4,9.64,9.64,0,0,0,3.18-.35A1.47,1.47,0,0,0,820.6,135.71Z"/><path class="cls-1" d="M842.08,140.16a2.55,2.55,0,0,1-1.58-.53,3.08,3.08,0,0,1-1-1.34l-4.67-12.58a4.86,4.86,0,0,0-.11-.53c0-.78.48-1.16,1.43-1.15a1.37,1.37,0,0,1,1.45.86l4.42,12.4h.16l4.43-12.4c.21-.57.75-.86,1.59-.86s1.28.38,1.28,1.15c0,0,0,.19-.1.53l-4.69,12.58a2.72,2.72,0,0,1-1,1.36A2.68,2.68,0,0,1,842.08,140.16Z"/><path class="cls-1" d="M854.12,126.9c-.69,0-1-.41-1-1.23a1.34,1.34,0,0,1,1-1.48,23,23,0,0,1,5.35-.43c2.49,0,4.18.39,5.06,1.19s1.33,2.18,1.33,4.16v6.36c0,2-.48,3.28-1.45,3.88s-2.82.91-5.56.91-4.57-.3-5.49-.9-1.37-1.89-1.37-3.87.36-3.33,1.07-4.08,2.18-1.12,4.39-1.11h5.45v-1.71a1.81,1.81,0,0,0-.76-1.67,5.59,5.59,0,0,0-2.69-.46,21.83,21.83,0,0,0-3.37.23A12.65,12.65,0,0,1,854.12,126.9Zm8.78,8.81v-2.8h-4.57a5.76,5.76,0,0,0-2.75.42c-.42.28-.62.91-.62,1.9s.26,1.64.78,1.92a8,8,0,0,0,3.14.4,9.53,9.53,0,0,0,3.17-.35A1.47,1.47,0,0,0,862.9,135.71Zm-5.76-13.63a2.94,2.94,0,0,1-.88-2.17,3,3,0,0,1,.89-2.18,3.05,3.05,0,0,1,4.33,0,3,3,0,0,1,.9,2.18,2.92,2.92,0,0,1-.9,2.17,3.09,3.09,0,0,1-4.34,0Zm.86-2.17a1.33,1.33,0,0,0,.38,1,1.31,1.31,0,0,0,1,.37,1.27,1.27,0,0,0,.93-.39,1.31,1.31,0,0,0,.38-1,1.23,1.23,0,0,0-.38-.93,1.34,1.34,0,0,0-1.89,0A1.22,1.22,0,0,0,858,119.91Z"/><path class="cls-1" d="M873.42,130.62v8.22c0,.77-.49,1.16-1.47,1.16s-1.48-.39-1.49-1.16v-8.61a10,10,0,0,1,.53-4.1,5.51,5.51,0,0,1,1-1.41q1.06-1,5.31-1a9.34,9.34,0,0,1,2.87.28,1.07,1.07,0,0,1,.73,1.06,1.5,1.5,0,0,1-.41,1.13,1.35,1.35,0,0,1-1,.38l-2.18-.15a9.74,9.74,0,0,0-2.53.2,2.36,2.36,0,0,0-.74.37,2.64,2.64,0,0,0-.35.75,3.71,3.71,0,0,0-.21,1.15C873.43,129.33,873.42,129.9,873.42,130.62Z"/><path class="cls-1" d="M800,179.6a4.17,4.17,0,0,1-3.14-1,4.91,4.91,0,0,1-.89-3.32v-9.08H793.9c-.67,0-1-.43-1-1.3s.33-1.31,1-1.31H796v-4.19c0-.77.49-1.16,1.48-1.16s1.49.39,1.49,1.16v4.19h4.2c.67,0,1,.44,1,1.31s-.33,1.3-1,1.3H799v9.3c0,.9.53,1.35,1.61,1.35l2.8-.16c.69,0,1,.4,1,1.19a1.52,1.52,0,0,1-1.06,1.58C802.62,179.57,801.51,179.6,800,179.6Z"/><path class="cls-1" d="M819.72,176.76c.67,0,1,.41,1,1.23a1.34,1.34,0,0,1-1,1.48,25.61,25.61,0,0,1-5.37.39q-3.76,0-5.4-1.23c-1.08-.81-1.63-2.18-1.64-4.11v-6c0-2,.49-3.38,1.48-4.08s2.83-1,5.53-1,4.52.33,5.46,1,1.42,2,1.42,4.12v2.61a1.83,1.83,0,0,1-.44,1.26,1.45,1.45,0,0,1-1.11.45h-9.38v1.93c0,1.62,1.42,2.43,4.24,2.42a23.85,23.85,0,0,0,3.22-.19A17.57,17.57,0,0,1,819.72,176.76Zm-9.45-8.27v1.7h8v-1.7a2.09,2.09,0,0,0-.8-1.92,6.6,6.6,0,0,0-3.14-.51,7.07,7.07,0,0,0-3.16.48A2.06,2.06,0,0,0,810.27,168.49Z"/><path class="cls-1" d="M835,174.75v-.37a1.22,1.22,0,0,0-.77-1.14,6.71,6.71,0,0,0-2.7-.36,16.37,16.37,0,0,1-4.25-.6,3.47,3.47,0,0,1-1.93-1.3,4.24,4.24,0,0,1-.78-2.65v-.27c0-1.84.56-3.08,1.66-3.71a10.42,10.42,0,0,1,5.06-1,21.2,21.2,0,0,1,5,.43,1.34,1.34,0,0,1,1,1.49c0,.81-.33,1.22-1,1.22a19.28,19.28,0,0,1-2.08-.21,22.94,22.94,0,0,0-3.3-.22,8.19,8.19,0,0,0-2.58.29c-.55.19-.82.73-.82,1.62v.31c0,1.17,1.22,1.79,3.67,1.87,1,0,2.05.13,3.08.26a4.72,4.72,0,0,1,2.61,1.14,3.4,3.4,0,0,1,1.06,2.76v.4c0,2-.55,3.32-1.67,4a10.42,10.42,0,0,1-5.4,1.07,23.6,23.6,0,0,1-5.33-.42,1.34,1.34,0,0,1-1-1.48q0-1.23,1-1.23c.39,0,1.17.07,2.33.21a28.29,28.29,0,0,0,3.39.21,7,7,0,0,0,2.69-.44A1.9,1.9,0,0,0,835,174.75Z"/><path class="cls-1" d="M847.24,179.6a4.17,4.17,0,0,1-3.14-1,4.85,4.85,0,0,1-.89-3.32v-9.08h-2.08c-.67,0-1-.43-1-1.3s.33-1.31,1-1.31h2.08v-4.19c0-.77.49-1.16,1.48-1.16s1.48.39,1.48,1.16v4.19h4.21c.66,0,1,.44,1,1.31s-.34,1.3-1,1.3h-4.21v9.3q0,1.35,1.62,1.35l2.8-.16c.69,0,1,.4,1,1.19a1.52,1.52,0,0,1-1.06,1.58C849.85,179.57,848.74,179.6,847.24,179.6Z"/><path class="cls-1" d="M865.54,158.68v5.11a21.72,21.72,0,0,1,4.13-.43,17.67,17.67,0,0,1,3.12.22,3.75,3.75,0,0,1,3.29,3,17.8,17.8,0,0,1,.29,3.6v8.28c0,.77-.49,1.16-1.48,1.16s-1.48-.39-1.48-1.16v-8a19.32,19.32,0,0,0-.13-2.5,2,2,0,0,0-.68-1.31,2.35,2.35,0,0,0-1.16-.51,16.65,16.65,0,0,0-2.1-.09,28.2,28.2,0,0,0-3.8.34v12c0,.77-.49,1.16-1.47,1.16s-1.48-.39-1.49-1.16V158.68c0-.79.5-1.19,1.49-1.19S865.54,157.89,865.54,158.68Z"/><path class="cls-1" d="M893.79,176.76c.67,0,1,.41,1,1.23a1.34,1.34,0,0,1-1,1.48,25.55,25.55,0,0,1-5.37.39q-3.76,0-5.4-1.23c-1.08-.81-1.63-2.18-1.64-4.11v-6c0-2,.5-3.38,1.48-4.08s2.83-1,5.53-1,4.52.33,5.46,1,1.42,2,1.42,4.12v2.61a1.83,1.83,0,0,1-.44,1.26,1.45,1.45,0,0,1-1.11.45h-9.37v1.93q0,2.43,4.23,2.42a24,24,0,0,0,3.23-.19A17.25,17.25,0,0,1,893.79,176.76Zm-9.44-8.27v1.7h8v-1.7a2.07,2.07,0,0,0-.81-1.92,6.58,6.58,0,0,0-3.14-.51,7.07,7.07,0,0,0-3.16.48A2.06,2.06,0,0,0,884.35,168.49Z"/><path class="cls-1" d="M902.68,170.22v8.22c0,.77-.49,1.16-1.47,1.16s-1.48-.39-1.49-1.16v-8.61a10,10,0,0,1,.53-4.1,5.51,5.51,0,0,1,1-1.41q1.06-1,5.31-1a9.34,9.34,0,0,1,2.87.28,1.06,1.06,0,0,1,.73,1.06,1.5,1.5,0,0,1-.41,1.13,1.32,1.32,0,0,1-1,.38l-2.18-.15a9.74,9.74,0,0,0-2.53.2,2.36,2.36,0,0,0-.74.37,3,3,0,0,0-.35.75,3.71,3.71,0,0,0-.21,1.15C902.69,168.93,902.68,169.5,902.68,170.22Z"/></svg>