<svg id="Layer_1" data-name="Layer 1" xmlns="http://www.w3.org/2000/svg" viewBox="0 0 320 160"><defs><style>.cls-1{fill:#d4ac76;}</style></defs><title>2text</title><path class="cls-1" d="M131.41,99.92V93h1v3.3l2.9-3.3h1.31l-2.45,2.76,2.52,4.2h-1.21l-2-3.39-1,1.16v2.23Z"/><path class="cls-1" d="M138.76,99.92V93h2.58a2.18,2.18,0,0,1,1.57.61,2.15,2.15,0,0,1-1.22,3.7l2,2.65h-1.2l-2-2.66h-.77v2.66Zm2.45-6h-1.48v2.51h1.47a1.41,1.41,0,0,0,1-.34,1.26,1.26,0,0,0,0-1.8A1.36,1.36,0,0,0,141.22,93.89Z"/><path class="cls-1" d="M149.12,100.05a3.42,3.42,0,0,1-2.51-1,3.74,3.74,0,0,1,0-5.16,3.56,3.56,0,0,1,5,0,3.71,3.71,0,0,1,0,5.15A3.42,3.42,0,0,1,149.12,100.05Zm-1.82-1.71a2.52,2.52,0,0,0,3.64,0,2.78,2.78,0,0,0,0-3.8,2.5,2.5,0,0,0-3.64,0,2.79,2.79,0,0,0,0,3.8Zm1.17-6.12a.46.46,0,0,1-.35.15.44.44,0,0,1-.34-.15.58.58,0,0,1,0-.76.45.45,0,0,1,.34-.15.46.46,0,0,1,.35.15.57.57,0,0,1,0,.76Zm1.93,0a.47.47,0,0,1-.69,0,.58.58,0,0,1,0-.76.47.47,0,0,1,.69,0,.58.58,0,0,1,0,.76Z"/><path class="cls-1" d="M155.1,99.92V93h.68l3.77,4.79V93h1v7H160l-3.91-5v5Z"/><path class="cls-1" d="M165.26,99.92l-2.71-7h1.09l2.08,5.35L167.81,93h1.07l-2.72,7Z"/><path class="cls-1" d="M169.47,99.92l2.79-7h.88l2.74,7h-1.08l-.42-1.07H171l-.43,1.07Zm2.51-7.7a.45.45,0,0,1-.35.15.44.44,0,0,1-.34-.15.58.58,0,0,1,0-.76.44.44,0,0,1,.34-.15.46.46,0,0,1,.35.15.57.57,0,0,1,0,.76Zm.72,2.33-1.35,3.36H174Zm1.21-2.33a.47.47,0,0,1-.69,0,.58.58,0,0,1,0-.76.47.47,0,0,1,.69,0,.58.58,0,0,1,0,.76Z"/><path class="cls-1" d="M182,96.9V96h2.31v.49a3.58,3.58,0,0,1-3.6,3.58,3.41,3.41,0,0,1-2.54-1,3.75,3.75,0,0,1,0-5.14,3.41,3.41,0,0,1,2.54-1,3.75,3.75,0,0,1,1.46.29,3.57,3.57,0,0,1,1.19.81l-.72.74a2.46,2.46,0,0,0-1.93-.9,2.42,2.42,0,0,0-1.84.79,2.8,2.8,0,0,0,0,3.79,2.43,2.43,0,0,0,1.84.79,2.48,2.48,0,0,0,1.67-.61,2.64,2.64,0,0,0,.88-1.61Z"/><path class="cls-1" d="M190.57,96.87h-2.86V99h3.06v.93h-4V93h4v.93h-3v2.05h2.86Z"/><path class="cls-1" d="M193.18,99.92V93h.68l3.77,4.79V93h1v7h-.54l-3.91-5v5Z"/><path class="cls-1" d="M206.06,99.92V94.21l-1.3.67v-.93l1.85-1H207v7Z"/><path class="cls-1" d="M210.55,99.92V94.21l-1.3.67v-.93l1.85-1h.43v7Z"/><path class="cls-1" d="M213.35,101.2l.8-2.23.89.32-1.1,2.14Z"/><path class="cls-1" d="M223,100a3.25,3.25,0,0,1-1.3-.28,3.44,3.44,0,0,1-1.1-.75l.68-.79a2.66,2.66,0,0,0,.8.63,2.05,2.05,0,0,0,1,.25,1.34,1.34,0,0,0,.9-.3.93.93,0,0,0,.35-.74,1.22,1.22,0,0,0-.88-1.14l-.82-.33a2.87,2.87,0,0,1-1.14-.75,1.64,1.64,0,0,1-.37-1.1,1.75,1.75,0,0,1,.57-1.31,2,2,0,0,1,1.42-.55,2.83,2.83,0,0,1,2,.77l-.58.78A1.92,1.92,0,0,0,223,93.8a1.1,1.1,0,0,0-.74.24.8.8,0,0,0-.29.64.77.77,0,0,0,.21.54,1.94,1.94,0,0,0,.71.43l.84.34a2,2,0,0,1,1.46,2,1.91,1.91,0,0,1-.61,1.46A2.33,2.33,0,0,1,223,100Z"/><path class="cls-1" d="M226.8,99.92l2.79-7h.88l2.74,7h-1.08l-.42-1.07h-3.41l-.43,1.07ZM230,94.56l-1.35,3.36h2.67Z"/><path class="cls-1" d="M235.14,99.92V93h1v6H239v.93Z"/><path class="cls-1" d="M239.16,93.89V93h5.63v.93h-2.33v6h-1v-6Z"/><path class="cls-1" d="M248.41,100a3.25,3.25,0,0,1-1.3-.28A3.44,3.44,0,0,1,246,99l.68-.79a2.66,2.66,0,0,0,.8.63,2.05,2.05,0,0,0,1,.25,1.34,1.34,0,0,0,.9-.3.93.93,0,0,0,.35-.74,1.22,1.22,0,0,0-.88-1.14l-.82-.33a2.87,2.87,0,0,1-1.14-.75,1.64,1.64,0,0,1-.37-1.1,1.75,1.75,0,0,1,.57-1.31,2,2,0,0,1,1.42-.55,2.83,2.83,0,0,1,2,.77l-.58.78a1.92,1.92,0,0,0-1.43-.62,1.1,1.1,0,0,0-.74.24.8.8,0,0,0-.29.64.77.77,0,0,0,.21.54,1.94,1.94,0,0,0,.71.43l.84.34a2,2,0,0,1,1.46,2,1.91,1.91,0,0,1-.61,1.46A2.33,2.33,0,0,1,248.41,100Z"/><path class="cls-1" d="M254.56,100a2.34,2.34,0,0,1-1.38-.42,2.16,2.16,0,0,1-.82-1.12l.9-.44a1.53,1.53,0,0,0,.49.77,1.23,1.23,0,0,0,.81.29,1.18,1.18,0,0,0,.94-.39,1.57,1.57,0,0,0,.35-1.08V93h1v4.64a2.42,2.42,0,0,1-.63,1.79A2.2,2.2,0,0,1,254.56,100Z"/><path class="cls-1" d="M262.65,100.05a3.42,3.42,0,0,1-2.51-1,3.74,3.74,0,0,1,0-5.16,3.56,3.56,0,0,1,5,0,3.71,3.71,0,0,1,0,5.15A3.42,3.42,0,0,1,262.65,100.05Zm-1.82-1.71a2.52,2.52,0,0,0,3.64,0,2.78,2.78,0,0,0,0-3.8,2.5,2.5,0,0,0-3.64,0,2.79,2.79,0,0,0,0,3.8ZM262,92.23a.46.46,0,0,1-.35.15.44.44,0,0,1-.34-.15.58.58,0,0,1,0-.76.45.45,0,0,1,.34-.15.46.46,0,0,1,.35.15.57.57,0,0,1,0,.76Zm1.93,0a.47.47,0,0,1-.69,0,.58.58,0,0,1,0-.76.47.47,0,0,1,.69,0,.58.58,0,0,1,0,.76Z"/><path class="cls-1" d="M268.36,96.89V96h2.72v.86Z"/><path class="cls-1" d="M273.51,99.92V93h2.13a2.22,2.22,0,0,1,1.53.54,1.79,1.79,0,0,1,.61,1.41A1.64,1.64,0,0,1,277,96.4a1.78,1.78,0,0,1,.75.63A1.64,1.64,0,0,1,278,98a1.8,1.8,0,0,1-.61,1.42,2.27,2.27,0,0,1-1.55.53Zm2-6h-1.06V96h1.24a1.06,1.06,0,0,0,.77-.31,1.07,1.07,0,0,0,.31-.8.89.89,0,0,0-.35-.73A1.43,1.43,0,0,0,275.54,93.89Zm.22,3h-1.27V99h1.21a1.44,1.44,0,0,0,1-.3,1,1,0,0,0,.35-.79,1,1,0,0,0-.32-.74A1.34,1.34,0,0,0,275.76,96.87Z"/><path class="cls-1" d="M283.43,100.05a3.42,3.42,0,0,1-2.51-1,3.74,3.74,0,0,1,0-5.16,3.56,3.56,0,0,1,5,0,3.71,3.71,0,0,1,0,5.15A3.42,3.42,0,0,1,283.43,100.05Zm-1.82-1.71a2.52,2.52,0,0,0,3.64,0,2.78,2.78,0,0,0,0-3.8,2.5,2.5,0,0,0-3.64,0,2.79,2.79,0,0,0,0,3.8Z"/><path class="cls-1" d="M292.64,100.05a3.42,3.42,0,0,1-2.51-1,3.74,3.74,0,0,1,0-5.16,3.56,3.56,0,0,1,5,0,3.71,3.71,0,0,1,0,5.15A3.42,3.42,0,0,1,292.64,100.05Zm-1.82-1.71a2.52,2.52,0,0,0,3.64,0,2.78,2.78,0,0,0,0-3.8,2.5,2.5,0,0,0-3.64,0,2.79,2.79,0,0,0,0,3.8Z"/><path class="cls-1" d="M135.15,113a3.25,3.25,0,0,1-1.3-.28,3.44,3.44,0,0,1-1.1-.75l.68-.79a2.66,2.66,0,0,0,.8.63,2.05,2.05,0,0,0,1,.25,1.34,1.34,0,0,0,.9-.3.93.93,0,0,0,.35-.74,1.22,1.22,0,0,0-.88-1.14l-.82-.33a2.87,2.87,0,0,1-1.14-.75,1.64,1.64,0,0,1-.37-1.1,1.75,1.75,0,0,1,.57-1.31,2,2,0,0,1,1.42-.55,2.83,2.83,0,0,1,2,.77l-.58.78a1.92,1.92,0,0,0-1.43-.62,1.1,1.1,0,0,0-.74.24.8.8,0,0,0-.29.64.77.77,0,0,0,.21.54,1.94,1.94,0,0,0,.71.43l.84.34a2,2,0,0,1,1.46,2,1.91,1.91,0,0,1-.61,1.46A2.33,2.33,0,0,1,135.15,113Z"/><path class="cls-1" d="M143,113.05a3.42,3.42,0,0,1-2.51-1,3.74,3.74,0,0,1,0-5.16,3.56,3.56,0,0,1,5,0,3.71,3.71,0,0,1,0,5.15A3.42,3.42,0,0,1,143,113.05Zm-1.82-1.71a2.52,2.52,0,0,0,3.64,0,2.78,2.78,0,0,0,0-3.8,2.5,2.5,0,0,0-3.64,0,2.79,2.79,0,0,0,0,3.8Zm1.17-6.12a.46.46,0,0,1-.35.15.44.44,0,0,1-.34-.15.58.58,0,0,1,0-.76.45.45,0,0,1,.34-.15.46.46,0,0,1,.35.15.57.57,0,0,1,0,.76Zm1.93,0a.47.47,0,0,1-.69,0,.58.58,0,0,1,0-.76.47.47,0,0,1,.69,0,.58.58,0,0,1,0,.76Z"/><path class="cls-1" d="M149,112.92v-7h.68l3.77,4.79V106h1v7h-.54l-3.91-5v5Z"/><path class="cls-1" d="M157.29,112.92v-7h1.86a3.5,3.5,0,0,1,2.43,6,3.4,3.4,0,0,1-2.47,1Zm1.9-6h-.93V112h1a2.25,2.25,0,0,0,1.71-.75,2.57,2.57,0,0,0,.69-1.82,2.48,2.48,0,0,0-.72-1.81A2.32,2.32,0,0,0,159.19,106.89Z"/><path class="cls-1" d="M164,112.92l2.79-7h.88l2.74,7h-1.08l-.42-1.07h-3.41l-.43,1.07Zm3.23-5.36-1.35,3.36h2.67Z"/><path class="cls-1" d="M176.53,109.9V109h2.31v.49a3.58,3.58,0,0,1-3.6,3.58,3.41,3.41,0,0,1-2.54-1,3.75,3.75,0,0,1,0-5.14,3.41,3.41,0,0,1,2.54-1,3.75,3.75,0,0,1,1.46.29,3.57,3.57,0,0,1,1.19.81l-.72.74a2.46,2.46,0,0,0-1.93-.9,2.42,2.42,0,0,0-1.84.79,2.8,2.8,0,0,0,0,3.79,2.43,2.43,0,0,0,1.84.79,2.48,2.48,0,0,0,1.67-.61,2.64,2.64,0,0,0,.88-1.61Z"/><path class="cls-1" d="M185.79,112.92v-5.71l-1.3.67v-.93l1.85-1h.43v7Z"/><path class="cls-1" d="M190.28,112.92v-5.71l-1.3.67v-.93l1.85-1h.43v7Z"/><path class="cls-1" d="M197.74,112.92v-7h3.8v.93h-2.83v2.19h2.5V110h-2.5v2.92Z"/><path class="cls-1" d="M207.53,109.87h-2.86V112h3.06v.93h-4v-7h4v.93h-3v2.05h2.86Z"/><path class="cls-1" d="M210.14,112.92v-7h2.13a2.22,2.22,0,0,1,1.53.54,1.79,1.79,0,0,1,.61,1.41,1.64,1.64,0,0,1-.83,1.49,1.78,1.78,0,0,1,.75.63,1.64,1.64,0,0,1,.28.94,1.8,1.8,0,0,1-.61,1.42,2.27,2.27,0,0,1-1.55.53Zm2-6h-1.06V109h1.24a1.06,1.06,0,0,0,.77-.31,1.07,1.07,0,0,0,.31-.8.89.89,0,0,0-.35-.73A1.43,1.43,0,0,0,212.17,106.89Zm.22,3h-1.27V112h1.21a1.44,1.44,0,0,0,1-.3,1,1,0,0,0,.35-.79,1,1,0,0,0-.32-.74A1.34,1.34,0,0,0,212.39,109.87Z"/><path class="cls-1" d="M217,112.92v-7h2.58a2.18,2.18,0,0,1,1.57.61,2.15,2.15,0,0,1-1.22,3.7l2,2.65h-1.2l-2-2.66H218v2.66Zm2.45-6H218v2.51h1.47a1.41,1.41,0,0,0,1-.34,1.26,1.26,0,0,0,0-1.8A1.36,1.36,0,0,0,219.5,106.89Z"/><path class="cls-1" d="M226.63,113a2.42,2.42,0,0,1-1.81-.73,2.52,2.52,0,0,1-.71-1.84V106h1v4.45a1.79,1.79,0,0,0,.42,1.22,1.43,1.43,0,0,0,1.14.48,1.46,1.46,0,0,0,1.15-.47,1.77,1.77,0,0,0,.42-1.22V106h1v4.51a2.53,2.53,0,0,1-.71,1.84A2.44,2.44,0,0,1,226.63,113Z"/><path class="cls-1" d="M230.85,112.92l2.79-7h.88l2.74,7h-1.08l-.42-1.07h-3.41l-.43,1.07Zm3.23-5.36-1.35,3.36h2.67Z"/><path class="cls-1" d="M239.2,112.92v-7h2.58a2.18,2.18,0,0,1,1.57.61,2.15,2.15,0,0,1-1.22,3.7l2,2.65h-1.2l-2-2.66h-.77v2.66Zm2.45-6h-1.48v2.51h1.47a1.41,1.41,0,0,0,1-.34,1.26,1.26,0,0,0,0-1.8A1.36,1.36,0,0,0,241.65,106.89Z"/><path class="cls-1" d="M246.41,112.92v-7h1v7Z"/><path class="cls-1" d="M254,112.92v-7h1v3.3l2.9-3.3h1.31l-2.45,2.76,2.52,4.2H258l-2-3.39-1,1.16v2.23Z"/><path class="cls-1" d="M261.35,112.92v-7h1v6h2.86v.93Z"/><path class="cls-1" d="M271.87,112.92v-5.71l-1.3.67v-.93l1.85-1h.43v7Z"/><path class="cls-1" d="M275,111.33v-.61l2.42-4.75h1l-2.29,4.5h1.5V109.3h1v1.17h.84v.86h-.84v1.59h-1v-1.59Z"/><path class="cls-1" d="M281.34,109.89V109h2.72v.86Z"/><path class="cls-1" d="M286.7,112.92v-5.71l-1.3.67v-.93l1.85-1h.43v7Z"/><path class="cls-1" d="M292.36,113a2.09,2.09,0,0,1-1.53-.61,2,2,0,0,1-.62-1.47V108a2.08,2.08,0,0,1,.62-1.56,2.26,2.26,0,0,1,3-.06,1.83,1.83,0,0,1,.6,1.43h-1a1.07,1.07,0,0,0-.31-.8,1.09,1.09,0,0,0-.8-.31,1.12,1.12,0,0,0-.84.35,1.24,1.24,0,0,0-.34.9v1.48a1.54,1.54,0,0,1,1.2-.55,2.1,2.1,0,0,1,1.52.6,2,2,0,0,1,0,2.94A2.13,2.13,0,0,1,292.36,113Zm0-.86a1.13,1.13,0,0,0,.84-.36,1.18,1.18,0,0,0,.35-.85,1.18,1.18,0,0,0-2-.87,1.13,1.13,0,0,0-.35.87,1.21,1.21,0,0,0,.34.85A1.08,1.08,0,0,0,292.36,112.17Z"/></svg>