<svg id="Layer_1" data-name="Layer 1" xmlns="http://www.w3.org/2000/svg" viewBox="0 0 320 320"><defs><style>.cls-1{fill:#d80201;}</style></defs><title>text</title><path class="cls-1" d="M24.34,151.11V170.5H19.79V151.11H14.58v-4h15v4Z"/><path class="cls-1" d="M33.93,151.49a2.56,2.56,0,1,1,0-5.11,2.56,2.56,0,0,1,0,5.11Zm-2.13,19V155.34H36V170.5Z"/><path class="cls-1" d="M40,170.5V144.28h4.24V170.5Z"/><path class="cls-1" d="M48.32,170.5V144.28h4.24V170.5Z"/><path class="cls-1" d="M64.31,170.81h-2l-7.74-15.47h4.76l4,8.54,4-8.54h4.76Z"/><path class="cls-1" d="M85,170.5v-2A5.86,5.86,0,0,1,80.06,171c-4.55,0-7.46-3.78-7.46-8.12s2.91-8,7.35-8a6.31,6.31,0,0,1,5,2.42v-1.93h4.27V170.5Zm-3.78-11.83a4.25,4.25,0,1,0,4.24,4.24A4.23,4.23,0,0,0,81.22,158.67Z"/><path class="cls-1" d="M93.33,170.5V144.28h4.24V170.5Z"/><path class="cls-1" d="M114.75,159V170.5h-4.24V159h-1.65v-3.64h1.65v-4.87a7.39,7.39,0,0,1,.67-3.57,6,6,0,0,1,5.25-3,5,5,0,0,1,2.24.52v3.89a4.23,4.23,0,0,0-1.93-.56c-1.89,0-2,2-2,3.4v4.24h3.92V159Z"/><path class="cls-1" d="M128.5,171c-4.83,0-8.68-3-8.68-8.05s3.85-8.08,8.72-8.08,8.61,3,8.61,8.05S133.3,171,128.5,171Zm-3.68-18.48a2.52,2.52,0,1,1,0-5,2.52,2.52,0,1,1,0,5Zm3.64,6.16a4.25,4.25,0,1,0,4.3,4.27A4.29,4.29,0,0,0,128.47,158.67Zm3.64-6.16a2.56,2.56,0,0,1-2.52-2.52,2.52,2.52,0,1,1,2.52,2.52Z"/><path class="cls-1" d="M150.31,159.19a3.75,3.75,0,0,0-2-.52c-2.87,0-3.64,2-3.64,4.55v7.28H140.4V155.34h4.24v2.28a4.94,4.94,0,0,1,6.27-2.42Z"/><path class="cls-1" d="M168.09,171.09a10,10,0,0,1-7.46-3l1.5-3.92a7.82,7.82,0,0,0,5.88,3,4.62,4.62,0,0,0,4.66-4.52c0-2.87-2.66-4.66-5.32-4.66a7.71,7.71,0,0,0-4.48,1.47h-.25l2.77-12.25h10.78v4h-7.7l-.91,3.61a14.09,14.09,0,0,1,1.71-.14,7.84,7.84,0,0,1,7.95,8.16C177.22,168,173.09,171.09,168.09,171.09Z"/><path class="cls-1" d="M189.47,171.09c-6.44,0-9-6.79-9-12.25s2.56-12.29,9-12.29,9,6.76,9,12.25S195.95,171.09,189.47,171.09Zm0-20.51c-3.57,0-4.48,5.53-4.48,8.23s.91,8.3,4.48,8.3,4.48-5.6,4.48-8.3S193,150.58,189.47,150.58Z"/><path class="cls-1" d="M218.07,171.09c-6.44,0-9-6.79-9-12.25s2.56-12.29,9-12.29,9,6.76,9,12.25S224.54,171.09,218.07,171.09Zm0-20.51c-3.57,0-4.48,5.53-4.48,8.23s.91,8.3,4.48,8.3,4.48-5.6,4.48-8.3S221.64,150.58,218.07,150.58Z"/><path class="cls-1" d="M237.91,171.09c-6.44,0-9-6.79-9-12.25s2.56-12.29,9-12.29,9,6.76,9,12.25S244.39,171.09,237.91,171.09Zm0-20.51c-3.57,0-4.48,5.53-4.48,8.23s.91,8.3,4.48,8.3,4.48-5.6,4.48-8.3S241.48,150.58,237.91,150.58Z"/><path class="cls-1" d="M257.76,171.09c-6.44,0-9-6.79-9-12.25s2.56-12.29,9-12.29,9,6.76,9,12.25S264.23,171.09,257.76,171.09Zm0-20.51c-3.57,0-4.48,5.53-4.48,8.23s.91,8.3,4.48,8.3,4.48-5.6,4.48-8.3S261.33,150.58,257.76,150.58Z"/><path class="cls-1" d="M288.87,170.5,283.17,164l-.46.46v6.06h-4.24V144.28h4.24v16.59l5.67-5.53h5.74L287,162l7.67,8.51Z"/><path class="cls-1" d="M306.48,159.19a3.75,3.75,0,0,0-2-.52c-2.87,0-3.64,2-3.64,4.55v7.28h-4.24V155.34h4.24v2.28a4.94,4.94,0,0,1,6.27-2.42Z"/></svg>