<?xml version="1.0" encoding="utf-8"?>
<!-- Generator: Adobe Illustrator 19.1.1, SVG Export Plug-In . SVG Version: 6.00 Build 0)  -->
<svg version="1.1" id="Layer_1" xmlns="http://www.w3.org/2000/svg" xmlns:xlink="http://www.w3.org/1999/xlink" x="0px" y="0px"
	 viewBox="0 0 468 60" style="enable-background:new 0 0 468 60;" xml:space="preserve">
<style type="text/css">
	.st0{fill:#D80201;}
	.st1{fill:#FFFFFF;}
</style>
<path class="st0" d="M102.7,38.4H26.1c-4.1,0-7.4-3.3-7.4-7.4v0c0-4.1,3.3-7.4,7.4-7.4h76.7c4.1,0,7.4,3.3,7.4,7.4v0
	C110.1,35.1,106.8,38.4,102.7,38.4z"/>
<g>
	<path class="st1" d="M36.2,33.9l-2-2.6L34,31.4v2.4h-1.1v-5.7H34v2.4l2.1-2.4h1.4l-2.4,2.7l2.6,3.1H36.2z"/>
	<path class="st1" d="M40.8,34c-1.7,0-3.1-1.3-3.1-3c0-1.7,1.4-3,3.1-3c1.7,0,3.1,1.3,3.1,3C43.9,32.7,42.5,34,40.8,34z M40.8,29
		c-1.1,0-1.9,0.9-1.9,2s0.8,2,1.9,2c1.1,0,1.9-0.9,1.9-2C42.7,29.9,41.9,29,40.8,29z"/>
	<path class="st1" d="M50.2,33.9l-0.5-3.5l-1.6,3.6h-0.3l-1.5-3.6l-0.6,3.5h-1.1l1.1-5.8h0.8l1.6,3.8l1.6-3.8h0.8l1,5.8H50.2z"/>
	<path class="st1" d="M54.5,33.9v-5.7h1.1v5.7H54.5z"/>
	<path class="st1" d="M62.4,31.9C62.1,33.2,61,34,59.7,34c-1.7,0-3-1.2-3-3s1.3-3,3-3c1,0,1.9,0.4,2.5,1.4l-1,0.5
		c-0.3-0.6-0.9-0.9-1.5-0.9c-1.1,0-1.9,0.9-1.9,2c0,1.1,0.8,2,1.9,2c0.7,0,1.4-0.4,1.5-1.2h-1.4v-1h2.6v0.1
		C62.5,31.3,62.5,31.6,62.4,31.9z"/>
	<path class="st1" d="M67.2,33.9l-0.5-1.2h-2.3l-0.5,1.2h-1.2l2.5-5.9H66l2.4,5.9H67.2z M65.6,29.7l-0.8,2.1h1.6L65.6,29.7z
		 M65.5,27.6c-0.4,0-0.8-0.4-0.8-0.8c0-0.4,0.4-0.8,0.8-0.8c0.4,0,0.8,0.4,0.8,0.8C66.3,27.2,66,27.6,65.5,27.6z M65.5,26.4
		c-0.2,0-0.3,0.1-0.3,0.3s0.1,0.3,0.3,0.3s0.3-0.1,0.3-0.3S65.7,26.4,65.5,26.4z"/>
	<path class="st1" d="M73.7,34l-3.5-4v3.9h-1.1V28h0.8l3.5,4v-3.9h1.1V34H73.7z"/>
	<path class="st1" d="M81.2,31.9C81,33.2,79.8,34,78.5,34c-1.7,0-3-1.2-3-3s1.3-3,3-3c1,0,1.9,0.4,2.5,1.4l-1,0.5
		c-0.3-0.6-0.9-0.9-1.5-0.9c-1.1,0-1.9,0.9-1.9,2c0,1.1,0.8,2,1.9,2c0.7,0,1.4-0.4,1.5-1.2h-1.4v-1h2.6v0.1
		C81.3,31.3,81.3,31.6,81.2,31.9z"/>
</g>
<polygon class="st1" points="93.1,31.7 87.1,31.7 87.1,30.2 93.1,30.2 93.1,27.8 97.4,30.9 93.1,33.9 "/>
</svg>
