<?xml version="1.0" encoding="utf-8"?>
<!-- Generator: Adobe Illustrator 19.1.1, SVG Export Plug-In . SVG Version: 6.00 Build 0)  -->
<svg version="1.1" id="Layer_1" xmlns="http://www.w3.org/2000/svg" xmlns:xlink="http://www.w3.org/1999/xlink" x="0px" y="0px"
	 viewBox="0 0 468 60" style="enable-background:new 0 0 468 60;" xml:space="preserve">
<style type="text/css">
	.st0{fill:#D80201;}
	.st1{fill:#FFFFFF;}
</style>
<g>
	<path class="st0" d="M172.3,34.2c-1.4,1.1-2.9,1.5-4.6,1.5H164V22.8h3.7c3.8,0,6.9,2.4,6.9,6.4C174.6,31.1,173.8,33,172.3,34.2z
		 M170.6,26c-1-0.9-2.2-1-3.4-1h-0.7v8.5h0.7c1.3,0,2.5-0.2,3.4-1c0.9-0.8,1.4-2,1.4-3.2S171.5,26.8,170.6,26z"/>
	<path class="st0" d="M180.6,35.9c-2.3,0-4-1-4-3.5v-5.1h2.3V32c0,1.1,0.5,1.9,1.7,1.9c1.2,0,1.7-0.8,1.7-1.9v-4.7h2.4v5.1
		C184.6,34.9,182.9,35.9,180.6,35.9z"/>
	<path class="st0" d="M194.1,29.3v6.4h-2.3v-6.4h-0.9v-2h0.9v-2.7c0-0.7,0-1.3,0.4-2c0.5-1,1.7-1.7,2.9-1.7c0.5,0,0.8,0.1,1.2,0.3
		v2.1c-0.3-0.2-0.7-0.3-1.1-0.3c-1,0-1.1,1.1-1.1,1.9v2.3h2.2v2H194.1z"/>
	<path class="st0" d="M201.7,35.9c-2.7,0-4.8-1.7-4.8-4.4c0-2.8,2.1-4.5,4.8-4.5c2.6,0,4.7,1.7,4.7,4.4
		C206.5,34.2,204.4,35.9,201.7,35.9z M201.7,29.1c-1.3,0-2.4,1.1-2.4,2.4c0,1.3,1.1,2.3,2.4,2.3c1.3,0,2.4-1,2.4-2.3
		S203,29.1,201.7,29.1z"/>
	<path class="st0" d="M213.7,29.4c-0.4-0.2-0.7-0.3-1.1-0.3c-1.6,0-2,1.1-2,2.5v4h-2.3v-8.4h2.3v1.3c0.5-0.9,1.3-1.5,2.4-1.5
		c0.4,0,0.7,0.1,1,0.2L213.7,29.4z"/>
	<path class="st0" d="M225.9,35.7v-4.6c0-1-0.2-2.1-1.4-2.1c-1.4,0-1.6,1.3-1.6,2.4v4.3h-2.3v-4.4c0-0.4,0-1-0.2-1.4
		c-0.2-0.5-0.7-0.8-1.3-0.8c-0.5,0-1.1,0.3-1.3,0.8c-0.3,0.4-0.3,1.1-0.3,1.6v4.3h-2.3v-8.4h2.3v0.9c0.7-0.8,1.5-1.2,2.5-1.2
		c1.2,0,2,0.5,2.6,1.5c0.7-1,1.5-1.5,2.7-1.5c0.9,0,1.8,0.4,2.3,1.2c0.4,0.6,0.4,1.3,0.4,2v5.4H225.9z"/>
	<path class="st0" d="M236.9,35.7v-1.1c-0.6,0.9-1.6,1.4-2.7,1.4c-2.5,0-4.1-2.1-4.1-4.5c0-2.3,1.6-4.4,4.1-4.4c1.2,0,2,0.5,2.8,1.3
		v-1.1h2.4v8.4H236.9z M234.8,29.1c-1.3,0-2.3,1-2.3,2.3c0,1.3,1,2.4,2.3,2.4s2.3-1.1,2.3-2.4C237.1,30.2,236.1,29.1,234.8,29.1z"/>
	<path class="st0" d="M246.9,29.4c-0.4-0.2-0.7-0.3-1.1-0.3c-1.6,0-2,1.1-2,2.5v4h-2.3v-8.4h2.3v1.3c0.5-0.9,1.3-1.5,2.4-1.5
		c0.4,0,0.7,0.1,1,0.2L246.9,29.4z"/>
	<path class="st0" d="M248.8,35.9c-0.8,0-1.5-0.7-1.5-1.5s0.7-1.5,1.5-1.5c0.8,0,1.5,0.7,1.5,1.5S249.7,35.9,248.8,35.9z"/>
	<path class="st0" d="M262.9,36h-1.3l-5.5-13.2h2.7l3.4,8.6l3.5-8.6h2.7L262.9,36z"/>
	<path class="st0" d="M270.8,25.2c-0.8,0-1.4-0.6-1.4-1.4s0.6-1.4,1.4-1.4c0.8,0,1.4,0.6,1.4,1.4S271.5,25.2,270.8,25.2z
		 M269.6,35.7v-8.4h2.3v8.4H269.6z"/>
	<path class="st0" d="M284,35.9c-1.2,0-2-0.5-2.7-1.4v1.1h-2.3V21.2h2.3v7.2c0.8-0.9,1.6-1.3,2.8-1.3c2.5,0,4.1,2.1,4.1,4.4
		C288.2,33.9,286.5,35.9,284,35.9z M283.4,29.1c-1.3,0-2.3,1-2.3,2.3c0,1.3,1,2.4,2.3,2.4c1.3,0,2.3-1.1,2.3-2.4
		C285.7,30.2,284.7,29.1,283.4,29.1z"/>
	<path class="st0" d="M291.9,40.1h-2.6l3.1-5.7l-4-7.1h2.7l2.5,4.7l2.4-4.7h2.7L291.9,40.1z"/>
	<path class="st0" d="M307.5,38.7c-0.9,1-2.2,1.5-3.6,1.5c-2.1,0-4.2-1.2-4.4-3.5h2.5c0.3,1,0.9,1.5,2,1.5c1.5,0,2.1-1,2.1-2.4v-1.3
		c-0.8,0.9-1.6,1.4-2.8,1.4c-2.5,0-4-2-4-4.3c0-2.4,1.5-4.6,4.1-4.6c1.2,0,2,0.4,2.7,1.4v-1.1h2.4v8
		C308.5,36.7,308.4,37.7,307.5,38.7z M304.1,29.1c-1.3,0-2.3,1-2.3,2.3c0,1.3,1,2.4,2.3,2.4s2.3-1.1,2.3-2.4
		C306.4,30.2,305.4,29.1,304.1,29.1z"/>
	<path class="st0" d="M318.5,38.7c-0.9,1-2.2,1.5-3.6,1.5c-2.1,0-4.2-1.2-4.4-3.5h2.5c0.3,1,0.9,1.5,2,1.5c1.5,0,2.1-1,2.1-2.4v-1.3
		c-0.8,0.9-1.6,1.4-2.8,1.4c-2.5,0-4-2-4-4.3c0-2.4,1.5-4.6,4.1-4.6c1.2,0,2,0.4,2.7,1.4v-1.1h2.4v8
		C319.4,36.7,319.4,37.7,318.5,38.7z M315,29.1c-1.3,0-2.3,1-2.3,2.3c0,1.3,1,2.4,2.3,2.4s2.3-1.1,2.3-2.4
		C317.4,30.2,316.3,29.1,315,29.1z"/>
	<path class="st0" d="M323.6,31.9c0,1.3,0.7,2.2,2,2.2c0.9,0,1.5-0.4,2-1.1l2.2,0.3c-0.7,1.8-2.2,2.6-4.1,2.6
		c-2.7,0-4.5-1.7-4.5-4.5c0-2.7,1.7-4.4,4.4-4.4c2.8,0,4.3,1.9,4.3,4.5v0.3H323.6z M325.6,28.7c-1.1,0-1.8,0.7-1.9,1.7h4
		C327.4,29.3,326.7,28.7,325.6,28.7z"/>
	<path class="st0" d="M337.1,29.4c-0.4-0.2-0.7-0.3-1.1-0.3c-1.6,0-2,1.1-2,2.5v4h-2.3v-8.4h2.3v1.3c0.5-0.9,1.3-1.5,2.4-1.5
		c0.4,0,0.7,0.1,1,0.2L337.1,29.4z"/>
	<path class="st0" d="M339,35.9c-0.8,0-1.5-0.7-1.5-1.5s0.7-1.5,1.5-1.5s1.5,0.7,1.5,1.5S339.9,35.9,339,35.9z"/>
</g>
</svg>
