<svg id="Layer_1" data-name="Layer 1" xmlns="http://www.w3.org/2000/svg" viewBox="0 0 980 300"><defs><style>.cls-1{fill:#fff;}</style></defs><title>text</title><path class="cls-1" d="M318.11,129.72h6.82c4.43,0,7.69,1.55,7.69,6.27,0,4.49-3.35,6.57-7.69,6.57H321.7V150h-3.59Zm6.51,10c3,0,4.46-1.21,4.46-3.69s-1.52-3.38-4.46-3.38H321.7v7.07Z"/><path class="cls-1" d="M341.6,134.4c3.82,0,7.26,2.92,7.26,8s-3.44,8-7.26,8-7.22-2.91-7.22-8S337.82,134.4,341.6,134.4Zm0,13.06c2.24,0,3.6-2,3.6-5.06s-1.36-5.08-3.6-5.08-3.56,2-3.56,5.08S339.37,147.46,341.6,147.46Z"/><path class="cls-1" d="M350.69,134.78h3.59l1.83,7.9c.31,1.46.53,2.89.81,4.37H357c.28-1.48.59-2.94,1-4.37l2-7.9h3.25l2,7.9c.37,1.46.68,2.89,1,4.37h.13c.28-1.48.52-2.91.8-4.37l1.83-7.9h3.35L368.51,150h-4.24l-1.77-7.1c-.34-1.43-.59-2.82-.93-4.43h-.12c-.28,1.61-.56,3-.9,4.46L358.81,150h-4.09Z"/><path class="cls-1" d="M381.22,134.4c4.13,0,6.3,3,6.3,7.23a7.76,7.76,0,0,1-.16,1.67h-9.67c.31,2.76,2,4.31,4.49,4.31a6.39,6.39,0,0,0,3.54-1.11l1.21,2.23a9.63,9.63,0,0,1-5.21,1.64c-4.22,0-7.51-2.94-7.51-8S377.66,134.4,381.22,134.4Zm3.2,6.64c0-2.42-1-3.88-3.1-3.88-1.8,0-3.35,1.34-3.66,3.88Z"/><path class="cls-1" d="M390.92,128.11h3.57v18.17c0,.87.4,1.18.77,1.18a2.2,2.2,0,0,0,.56-.06l.47,2.66a4.83,4.83,0,0,1-1.89.31c-2.55,0-3.48-1.64-3.48-4.28Z"/><path class="cls-1" d="M405.68,128.11h3.57v5.64l-.13,2.95a7,7,0,0,1,4.87-2.3c3.25,0,4.68,2.21,4.68,6V150h-3.56v-9.08c0-2.52-.72-3.45-2.39-3.45-1.34,0-2.2.66-3.47,1.9V150h-3.57Z"/><path class="cls-1" d="M431.29,140.27c0-1.62-.72-3-2.76-3a8.43,8.43,0,0,0-4.28,1.49l-1.3-2.39a11.81,11.81,0,0,1,6.23-2c3.81,0,5.67,2.33,5.67,6.58v9h-2.91l-.28-1.67h-.09a7.47,7.47,0,0,1-4.72,2,4.28,4.28,0,0,1-4.52-4.46C422.33,142.65,425.05,141,431.29,140.27ZM428,147.58a4.8,4.8,0,0,0,3.32-1.67V142.5c-4.13.53-5.49,1.61-5.49,3.13C425.8,147,426.7,147.58,428,147.58Z"/><path class="cls-1" d="M439.35,146a6.78,6.78,0,0,0,4.21,1.71c1.65,0,2.42-.78,2.42-1.83,0-1.28-1.64-1.83-3.26-2.45-2-.75-4.27-1.89-4.27-4.44s2.14-4.56,5.55-4.56a8.23,8.23,0,0,1,5.05,1.83l-1.64,2.17a5.71,5.71,0,0,0-3.35-1.3c-1.52,0-2.23.72-2.23,1.68,0,1.18,1.51,1.67,3.16,2.26,2.08.78,4.37,1.77,4.37,4.62,0,2.6-2.08,4.71-5.92,4.71a9.64,9.64,0,0,1-5.77-2.11Z"/><path class="cls-1" d="M459.06,146a6.83,6.83,0,0,0,4.22,1.71c1.64,0,2.42-.78,2.42-1.83,0-1.28-1.65-1.83-3.26-2.45-2-.75-4.28-1.89-4.28-4.44s2.14-4.56,5.55-4.56a8.24,8.24,0,0,1,5.06,1.83l-1.65,2.17a5.69,5.69,0,0,0-3.35-1.3c-1.52,0-2.23.72-2.23,1.68,0,1.18,1.52,1.67,3.16,2.26,2.08.78,4.38,1.77,4.38,4.62,0,2.6-2.08,4.71-5.93,4.71a9.64,9.64,0,0,1-5.76-2.11Z"/><path class="cls-1" d="M472.79,137.6h-2.17v-2.67l2.36-.15.43-4.16h3v4.16h3.88v2.82h-3.88v7.25c0,1.8.68,2.67,2.14,2.67a4.25,4.25,0,0,0,1.58-.34l.62,2.63a9.7,9.7,0,0,1-3.1.56c-3.53,0-4.84-2.23-4.84-5.52Z"/><path class="cls-1" d="M491.3,140.27c0-1.62-.71-3-2.76-3a8.46,8.46,0,0,0-4.28,1.49l-1.3-2.39a11.87,11.87,0,0,1,6.23-2c3.82,0,5.68,2.33,5.68,6.58v9H492l-.28-1.67h-.09a7.42,7.42,0,0,1-4.71,2,4.28,4.28,0,0,1-4.53-4.46C482.34,142.65,485.07,141,491.3,140.27ZM488,147.58a4.79,4.79,0,0,0,3.32-1.67V142.5c-4.12.53-5.49,1.61-5.49,3.13C485.81,147,486.71,147.58,488,147.58Z"/><path class="cls-1" d="M499.73,137.6h-2.17v-2.67l2.36-.15.43-4.16h3v4.16h3.88v2.82h-3.88v7.25c0,1.8.68,2.67,2.14,2.67a4.25,4.25,0,0,0,1.58-.34l.62,2.63a9.7,9.7,0,0,1-3.1.56c-3.53,0-4.84-2.23-4.84-5.52Z"/><path class="cls-1" d="M516.1,134.4c4.13,0,6.3,3,6.3,7.23a7.76,7.76,0,0,1-.16,1.67h-9.67c.31,2.76,2,4.31,4.49,4.31a6.39,6.39,0,0,0,3.54-1.11l1.21,2.23a9.63,9.63,0,0,1-5.21,1.64c-4.22,0-7.51-2.94-7.51-8S512.54,134.4,516.1,134.4Zm3.19,6.64c0-2.42-1-3.88-3.09-3.88-1.8,0-3.35,1.34-3.66,3.88Z"/><path class="cls-1" d="M538.39,134.4c3.81,0,7.26,2.92,7.26,8s-3.45,8-7.26,8-7.22-2.91-7.22-8S534.61,134.4,538.39,134.4Zm0,13.06c2.23,0,3.6-2,3.6-5.06s-1.37-5.08-3.6-5.08-3.57,2-3.57,5.08S536.16,147.46,538.39,147.46Z"/><path class="cls-1" d="M556.83,130.93a4.11,4.11,0,0,0-1.67-.37c-1.24,0-1.92.81-1.92,2.57v1.65h3v2.82h-3V150h-3.57V137.6h-2v-2.67l2-.15V133.2c0-3.17,1.46-5.46,5.06-5.46a7.74,7.74,0,0,1,2.79.53Z"/><path class="cls-1" d="M565.76,137.6h-2.17v-2.67l2.36-.15.43-4.16h3v4.16h3.87v2.82h-3.87v7.25c0,1.8.68,2.67,2.14,2.67a4.33,4.33,0,0,0,1.58-.34l.62,2.63a9.7,9.7,0,0,1-3.1.56c-3.54,0-4.84-2.23-4.84-5.52Z"/><path class="cls-1" d="M576.42,128.11H580v5.64l-.12,2.95a7,7,0,0,1,4.86-2.3c3.26,0,4.69,2.21,4.69,6V150h-3.57v-9.08c0-2.52-.71-3.45-2.39-3.45-1.33,0-2.2.66-3.47,1.9V150h-3.57Z"/><path class="cls-1" d="M599.74,134.4c4.12,0,6.29,3,6.29,7.23a7.86,7.86,0,0,1-.15,1.67H596.2c.31,2.76,2,4.31,4.5,4.31a6.35,6.35,0,0,0,3.53-1.11l1.21,2.23a9.58,9.58,0,0,1-5.21,1.64c-4.21,0-7.5-2.94-7.5-8S596.17,134.4,599.74,134.4Zm3.19,6.64c0-2.42-1-3.88-3.1-3.88-1.8,0-3.35,1.34-3.66,3.88Z"/><path class="cls-1" d="M624.1,140.27c0-1.62-.71-3-2.76-3a8.46,8.46,0,0,0-4.28,1.49l-1.3-2.39a11.88,11.88,0,0,1,6.24-2c3.81,0,5.67,2.33,5.67,6.58v9h-2.92l-.27-1.67h-.1a7.42,7.42,0,0,1-4.71,2,4.28,4.28,0,0,1-4.53-4.46C615.14,142.65,617.87,141,624.1,140.27Zm-3.31,7.31a4.76,4.76,0,0,0,3.31-1.67V142.5c-4.12.53-5.48,1.61-5.48,3.13C618.62,147,619.51,147.58,620.79,147.58Z"/><path class="cls-1" d="M632,134.78H635l.25,2.69h.12c1.09-2,2.7-3.07,4.31-3.07a4,4,0,0,1,1.74.31l-.62,3.11a4.85,4.85,0,0,0-1.58-.25c-1.21,0-2.67.83-3.6,3.13V150H632Z"/><path class="cls-1" d="M644.1,137.6h-2.17v-2.67l2.35-.15.44-4.16h3v4.16h3.88v2.82h-3.88v7.25c0,1.8.69,2.67,2.14,2.67a4.25,4.25,0,0,0,1.58-.34l.62,2.63a9.65,9.65,0,0,1-3.1.56c-3.53,0-4.83-2.23-4.83-5.52Z"/><path class="cls-1" d="M661.27,146a6.8,6.8,0,0,0,4.22,1.71c1.64,0,2.41-.78,2.41-1.83,0-1.28-1.64-1.83-3.25-2.45-2-.75-4.28-1.89-4.28-4.44s2.14-4.56,5.55-4.56a8.21,8.21,0,0,1,5.05,1.83l-1.64,2.17a5.69,5.69,0,0,0-3.35-1.3c-1.52,0-2.23.72-2.23,1.68,0,1.18,1.52,1.67,3.16,2.26,2.08.78,4.37,1.77,4.37,4.62,0,2.6-2.07,4.71-5.92,4.71a9.64,9.64,0,0,1-5.77-2.11Z"/><path class="cls-1" d="M680.71,134.4c3.81,0,7.25,2.92,7.25,8s-3.44,8-7.25,8-7.23-2.91-7.23-8S676.92,134.4,680.71,134.4Zm0,13.06c2.23,0,3.59-2,3.59-5.06s-1.36-5.08-3.59-5.08-3.57,2-3.57,5.08S678.47,147.46,680.71,147.46Z"/><path class="cls-1" d="M708.55,149.81a9.74,9.74,0,0,1-3.13.56c-3.51,0-4.81-2.23-4.81-5.52V137.6h-5.05V150H692V137.6h-2v-2.67l2-.15V133.2c0-3.17,1.46-5.46,5-5.46a7.75,7.75,0,0,1,2.8.53l-.69,2.66a4.11,4.11,0,0,0-1.67-.37c-1.24,0-1.92.81-1.92,2.57v1.65h5.24l.43-4.16h2.95v4.16h3.9v2.82h-3.9v7.25c0,1.8.71,2.67,2.17,2.67a4.33,4.33,0,0,0,1.58-.34Z"/><path class="cls-1" d="M709.75,134.78h3.6l1.83,7.9c.31,1.46.53,2.89.81,4.37h.12c.28-1.48.59-2.94,1-4.37l2-7.9h3.26l2,7.9c.37,1.46.68,2.89,1,4.37h.12c.28-1.48.53-2.91.81-4.37l1.83-7.9h3.35L727.58,150h-4.25l-1.76-7.1c-.35-1.43-.59-2.82-.93-4.43h-.13c-.28,1.61-.56,3-.9,4.46L717.88,150h-4.1Z"/><path class="cls-1" d="M742.46,140.27c0-1.62-.71-3-2.76-3a8.43,8.43,0,0,0-4.28,1.49l-1.3-2.39a11.81,11.81,0,0,1,6.23-2c3.82,0,5.68,2.33,5.68,6.58v9h-2.92l-.28-1.67h-.09a7.44,7.44,0,0,1-4.71,2,4.28,4.28,0,0,1-4.53-4.46C733.5,142.65,736.23,141,742.46,140.27Zm-3.32,7.31a4.8,4.8,0,0,0,3.32-1.67V142.5c-4.12.53-5.49,1.61-5.49,3.13C737,147,737.87,147.58,739.14,147.58Z"/><path class="cls-1" d="M750.36,134.78h2.95l.25,2.69h.12c1.09-2,2.7-3.07,4.31-3.07a4,4,0,0,1,1.74.31l-.62,3.11a4.85,4.85,0,0,0-1.58-.25c-1.21,0-2.67.83-3.6,3.13V150h-3.57Z"/><path class="cls-1" d="M767.63,134.4c4.12,0,6.3,3,6.3,7.23a7.76,7.76,0,0,1-.16,1.67H764.1c.31,2.76,2,4.31,4.49,4.31a6.41,6.41,0,0,0,3.54-1.11l1.21,2.23a9.63,9.63,0,0,1-5.21,1.64c-4.22,0-7.51-2.94-7.51-8S764.07,134.4,767.63,134.4Zm3.19,6.64c0-2.42-1-3.88-3.1-3.88-1.79,0-3.34,1.34-3.65,3.88Z"/><path class="cls-1" d="M784.21,137.6H782v-2.67l2.36-.15.43-4.16h3v4.16h3.88v2.82h-3.88v7.25c0,1.8.68,2.67,2.14,2.67a4.25,4.25,0,0,0,1.58-.34l.62,2.63a9.7,9.7,0,0,1-3.1.56c-3.53,0-4.84-2.23-4.84-5.52Z"/><path class="cls-1" d="M800.8,134.4c3.81,0,7.26,2.92,7.26,8s-3.45,8-7.26,8-7.22-2.91-7.22-8S797,134.4,800.8,134.4Zm0,13.06c2.23,0,3.6-2,3.6-5.06s-1.37-5.08-3.6-5.08-3.57,2-3.57,5.08S798.57,147.46,800.8,147.46Z"/><path class="cls-1" d="M326.14,177.46c0-1.61-.72-3-2.76-3A8.43,8.43,0,0,0,319.1,176l-1.3-2.39a11.81,11.81,0,0,1,6.23-2c3.81,0,5.67,2.32,5.67,6.57v9h-2.91l-.28-1.67h-.09a7.47,7.47,0,0,1-4.72,2,4.27,4.27,0,0,1-4.52-4.46C317.18,179.85,319.9,178.15,326.14,177.46Zm-3.32,7.32a4.8,4.8,0,0,0,3.32-1.67V179.7c-4.13.52-5.49,1.61-5.49,3.13C320.65,184.19,321.55,184.78,322.82,184.78Z"/><path class="cls-1" d="M333.88,172h3.57v9.08c0,2.51.71,3.44,2.36,3.44,1.33,0,2.23-.62,3.38-2.11V172h3.56V187.2h-2.91l-.28-2.23h-.1a6.19,6.19,0,0,1-4.89,2.6c-3.26,0-4.69-2.2-4.69-6Z"/><path class="cls-1" d="M351.8,174.8h-2.17v-2.67L352,172l.43-4.16h3V172h3.87v2.82H355.4v7.25c0,1.8.68,2.67,2.14,2.67a4.25,4.25,0,0,0,1.58-.34l.62,2.64a10,10,0,0,1-3.1.55c-3.54,0-4.84-2.23-4.84-5.52Z"/><path class="cls-1" d="M368.39,171.61c3.81,0,7.25,2.91,7.25,8s-3.44,8-7.25,8-7.23-2.91-7.23-8S364.61,171.61,368.39,171.61Zm0,13c2.23,0,3.59-2,3.59-5s-1.36-5.09-3.59-5.09-3.57,2-3.57,5.09S366.16,184.66,368.39,184.66Z"/><path class="cls-1" d="M379.17,172h2.95l.25,2.07h.12a6.44,6.44,0,0,1,4.65-2.44,4.14,4.14,0,0,1,4.22,2.72c1.46-1.55,3-2.72,4.9-2.72,3.22,0,4.71,2.2,4.71,6v9.55h-3.59v-9.08c0-2.51-.75-3.45-2.33-3.45-1,0-2,.62-3.19,1.9V187.2h-3.57v-9.08c0-2.51-.74-3.45-2.36-3.45-.93,0-2,.62-3.19,1.9V187.2h-3.57Z"/><path class="cls-1" d="M413.62,177.46c0-1.61-.72-3-2.76-3a8.43,8.43,0,0,0-4.28,1.49l-1.3-2.39a11.81,11.81,0,0,1,6.23-2c3.81,0,5.67,2.32,5.67,6.57v9h-2.91l-.28-1.67h-.09a7.47,7.47,0,0,1-4.72,2,4.27,4.27,0,0,1-4.52-4.46C404.66,179.85,407.39,178.15,413.62,177.46Zm-3.32,7.32a4.8,4.8,0,0,0,3.32-1.67V179.7c-4.13.52-5.49,1.61-5.49,3.13C408.13,184.19,409,184.78,410.3,184.78Z"/><path class="cls-1" d="M422.05,174.8h-2.17v-2.67l2.35-.15.44-4.16h3V172h3.88v2.82h-3.88v7.25c0,1.8.69,2.67,2.14,2.67a4.25,4.25,0,0,0,1.58-.34L430,187a10,10,0,0,1-3.1.55c-3.53,0-4.83-2.23-4.83-5.52Z"/><path class="cls-1" d="M438.42,171.61c4.12,0,6.29,3,6.29,7.22a7.86,7.86,0,0,1-.15,1.67h-9.68c.31,2.76,2.05,4.31,4.5,4.31a6.35,6.35,0,0,0,3.53-1.11l1.21,2.23a9.63,9.63,0,0,1-5.21,1.64c-4.21,0-7.5-2.94-7.5-8S434.85,171.61,438.42,171.61Zm3.19,6.63c0-2.42-1-3.87-3.1-3.87-1.8,0-3.35,1.33-3.66,3.87Z"/><path class="cls-1" d="M460.49,171.61c4.12,0,6.29,3,6.29,7.22a7.86,7.86,0,0,1-.15,1.67H457c.31,2.76,2.05,4.31,4.5,4.31A6.35,6.35,0,0,0,465,183.7l1.21,2.23a9.58,9.58,0,0,1-5.21,1.64c-4.21,0-7.5-2.94-7.5-8S456.92,171.61,460.49,171.61Zm3.19,6.63c0-2.42-1-3.87-3.1-3.87-1.8,0-3.35,1.33-3.66,3.87Z"/><path class="cls-1" d="M470.19,172h2.94l.25,2h.13a7.06,7.06,0,0,1,5-2.41c3.25,0,4.68,2.2,4.68,6v9.55h-3.56v-9.08c0-2.51-.72-3.45-2.39-3.45-1.34,0-2.2.66-3.48,1.9V187.2h-3.56Z"/><path class="cls-1" d="M493.56,171.61c4.13,0,6.3,3,6.3,7.22a7.16,7.16,0,0,1-.16,1.67H490c.31,2.76,2.05,4.31,4.5,4.31a6.38,6.38,0,0,0,3.53-1.11l1.21,2.23a9.63,9.63,0,0,1-5.21,1.64c-4.22,0-7.5-2.94-7.5-8S490,171.61,493.56,171.61Zm3.2,6.63c0-2.42-1-3.87-3.1-3.87-1.8,0-3.35,1.33-3.66,3.87Z"/><path class="cls-1" d="M503.27,172h2.94l.25,2.69h.12c1.09-2,2.7-3.06,4.31-3.06a3.82,3.82,0,0,1,1.74.31L512,175a4.85,4.85,0,0,0-1.58-.25c-1.21,0-2.67.84-3.6,3.13v9.3h-3.56Z"/><path class="cls-1" d="M515.67,186.71v-.13A2.86,2.86,0,0,1,514.3,184a3.67,3.67,0,0,1,1.68-2.82v-.13a5.11,5.11,0,0,1-2-4c0-3.5,2.82-5.45,6-5.45a6.8,6.8,0,0,1,2.23.37h5.46v2.63h-2.79a4.11,4.11,0,0,1,.86,2.58c0,3.38-2.54,5.17-5.76,5.17a5.6,5.6,0,0,1-2.08-.4,1.75,1.75,0,0,0-.75,1.46c0,.87.62,1.39,2.49,1.39h2.69c3.66,0,5.58,1.12,5.58,3.76,0,3-3.16,5.36-8.12,5.36-3.63,0-6.32-1.3-6.32-4A3.9,3.9,0,0,1,515.67,186.71Zm4.71,4.89c2.45,0,4.12-1.14,4.12-2.45s-1-1.52-2.7-1.52h-2.07a8.33,8.33,0,0,1-2.08-.21,2.55,2.55,0,0,0-1.18,2C516.47,190.8,518,191.6,520.38,191.6Zm2.26-14.54c0-1.89-1.15-3-2.63-3a2.7,2.7,0,0,0-2.67,3c0,2,1.18,3.07,2.67,3.07S522.64,179,522.64,177.06Z"/><path class="cls-1" d="M531.23,190.58c1.61,0,2.54-1.08,3-2.6l.27-1-6-15h3.63l2.63,7.47c.44,1.33.87,2.85,1.34,4.28h.12c.37-1.4.78-2.92,1.15-4.28l2.29-7.47h3.44l-5.51,15.9c-1.28,3.44-2.86,5.58-6.18,5.58a5.83,5.83,0,0,1-2-.31l.65-2.79A3.57,3.57,0,0,0,531.23,190.58Z"/><path class="cls-1" d="M560.46,177.46c0-1.61-.71-3-2.76-3a8.46,8.46,0,0,0-4.28,1.49l-1.3-2.39a11.81,11.81,0,0,1,6.23-2c3.82,0,5.68,2.32,5.68,6.57v9h-2.92l-.28-1.67h-.09a7.42,7.42,0,0,1-4.71,2,4.28,4.28,0,0,1-4.53-4.46C551.5,179.85,554.23,178.15,560.46,177.46Zm-3.32,7.32a4.79,4.79,0,0,0,3.32-1.67V179.7c-4.12.52-5.49,1.61-5.49,3.13C555,184.19,555.87,184.78,557.14,184.78Z"/><path class="cls-1" d="M568.52,183.17a6.8,6.8,0,0,0,4.22,1.71c1.64,0,2.42-.78,2.42-1.83,0-1.27-1.65-1.83-3.26-2.45-2-.75-4.28-1.89-4.28-4.44s2.14-4.55,5.55-4.55a8.21,8.21,0,0,1,5.05,1.82l-1.64,2.18a5.64,5.64,0,0,0-3.35-1.31c-1.52,0-2.23.72-2.23,1.68,0,1.18,1.52,1.67,3.16,2.26,2.08.78,4.38,1.77,4.38,4.62,0,2.6-2.08,4.71-5.93,4.71a9.62,9.62,0,0,1-5.76-2.11Z"/><path class="cls-1" d="M581.88,183.17a6.8,6.8,0,0,0,4.22,1.71c1.64,0,2.42-.78,2.42-1.83,0-1.27-1.65-1.83-3.26-2.45-2-.75-4.28-1.89-4.28-4.44s2.14-4.55,5.55-4.55a8.21,8.21,0,0,1,5.05,1.82l-1.64,2.18a5.64,5.64,0,0,0-3.35-1.31c-1.52,0-2.23.72-2.23,1.68,0,1.18,1.52,1.67,3.16,2.26,2.08.78,4.38,1.77,4.38,4.62,0,2.6-2.08,4.71-5.93,4.71a9.62,9.62,0,0,1-5.76-2.11Z"/><path class="cls-1" d="M601.1,171.61c4.13,0,6.3,3,6.3,7.22a7.76,7.76,0,0,1-.16,1.67h-9.67c.31,2.76,2,4.31,4.49,4.31a6.39,6.39,0,0,0,3.54-1.11l1.21,2.23a9.63,9.63,0,0,1-5.21,1.64c-4.22,0-7.51-2.94-7.51-8S597.54,171.61,601.1,171.61Zm3.19,6.63c0-2.42-1-3.87-3.09-3.87-1.8,0-3.35,1.33-3.66,3.87Z"/><path class="cls-1" d="M610.83,174.8h-2.17v-2.67L611,172l.44-4.16h3V172h3.88v2.82h-3.88v7.25c0,1.8.68,2.67,2.14,2.67a4.25,4.25,0,0,0,1.58-.34l.62,2.64a10,10,0,0,1-3.1.55c-3.53,0-4.84-2.23-4.84-5.52Z"/><path class="cls-1" d="M634.09,171.61c3.81,0,7.25,2.91,7.25,8s-3.44,8-7.25,8-7.23-2.91-7.23-8S630.3,171.61,634.09,171.61Zm0,13c2.23,0,3.59-2,3.59-5s-1.36-5.09-3.59-5.09-3.57,2-3.57,5.09S631.85,184.66,634.09,184.66Z"/><path class="cls-1" d="M648.44,188.44v4.78h-3.57V172h3l.25,1.61h.12a7.38,7.38,0,0,1,4.59-2c3.78,0,6,3,6,7.75,0,5.21-3.13,8.21-6.51,8.21a6.19,6.19,0,0,1-3.91-1.67Zm3.07-3.81c2,0,3.56-1.8,3.56-5.24,0-3-1-4.84-3.28-4.84a4.86,4.86,0,0,0-3.35,1.71v7.1A4.8,4.8,0,0,0,651.51,184.63Z"/><path class="cls-1" d="M662.88,174.8h-2.17v-2.67l2.36-.15.43-4.16h3V172h3.87v2.82h-3.87v7.25c0,1.8.68,2.67,2.14,2.67a4.25,4.25,0,0,0,1.58-.34l.62,2.64a10,10,0,0,1-3.1.55c-3.54,0-4.84-2.23-4.84-5.52Z"/><path class="cls-1" d="M673.14,167.29a2.21,2.21,0,1,1,2.2,2A2,2,0,0,1,673.14,167.29Zm.41,4.69h3.56V187.2h-3.56Z"/><path class="cls-1" d="M681.67,172h2.94l.25,2.07H685a6.44,6.44,0,0,1,4.65-2.44,4.13,4.13,0,0,1,4.21,2.72c1.46-1.55,3-2.72,4.9-2.72,3.23,0,4.71,2.2,4.71,6v9.55h-3.59v-9.08c0-2.51-.75-3.45-2.33-3.45-1,0-2,.62-3.19,1.9V187.2h-3.57v-9.08c0-2.51-.74-3.45-2.35-3.45-.93,0-2,.62-3.2,1.9V187.2h-3.56Z"/><path class="cls-1" d="M707.4,167.29a2.21,2.21,0,1,1,2.2,2A2,2,0,0,1,707.4,167.29Zm.4,4.69h3.57V187.2H707.8Z"/><path class="cls-1" d="M714.71,185.28l7.2-10.48h-6.39V172h10.85v1.89l-7.16,10.48h7.41v2.85H714.71Z"/><path class="cls-1" d="M737.41,177.46c0-1.61-.72-3-2.76-3a8.43,8.43,0,0,0-4.28,1.49l-1.3-2.39a11.81,11.81,0,0,1,6.23-2c3.81,0,5.67,2.32,5.67,6.57v9h-2.91l-.28-1.67h-.09a7.47,7.47,0,0,1-4.72,2,4.27,4.27,0,0,1-4.52-4.46C728.45,179.85,731.17,178.15,737.41,177.46Zm-3.32,7.32a4.8,4.8,0,0,0,3.32-1.67V179.7c-4.13.52-5.49,1.61-5.49,3.13C731.92,184.19,732.82,184.78,734.09,184.78Z"/><path class="cls-1" d="M745.84,174.8h-2.17v-2.67L746,172l.44-4.16h3V172h3.88v2.82h-3.88v7.25c0,1.8.69,2.67,2.14,2.67a4.25,4.25,0,0,0,1.58-.34l.63,2.64a10.07,10.07,0,0,1-3.11.55c-3.53,0-4.83-2.23-4.83-5.52Z"/><path class="cls-1" d="M756.1,167.29a2.21,2.21,0,1,1,2.2,2A2,2,0,0,1,756.1,167.29Zm.4,4.69h3.57V187.2H756.5Z"/><path class="cls-1" d="M770.86,171.61c3.81,0,7.25,2.91,7.25,8s-3.44,8-7.25,8-7.23-2.91-7.23-8S767.07,171.61,770.86,171.61Zm0,13c2.23,0,3.59-2,3.59-5s-1.36-5.09-3.59-5.09-3.57,2-3.57,5.09S768.62,184.66,770.86,184.66Z"/><path class="cls-1" d="M781.64,172h3l.25,2H785a7.08,7.08,0,0,1,5-2.41c3.26,0,4.68,2.2,4.68,6v9.55h-3.56v-9.08c0-2.51-.71-3.45-2.39-3.45-1.33,0-2.2.66-3.47,1.9V187.2h-3.57Z"/></svg>