<svg id="Layer_1" data-name="Layer 1" xmlns="http://www.w3.org/2000/svg" viewBox="0 0 980 300"><defs><style>.cls-1{fill:#fff;}</style></defs><title>text</title><path class="cls-1" d="M370.63,132.76h-5.86v-3h15.28v3h-5.82V150h-3.6Z"/><path class="cls-1" d="M383.09,128.11h3.57v5.64l-.13,2.95a7,7,0,0,1,4.87-2.3c3.25,0,4.68,2.21,4.68,6V150h-3.56v-9.08c0-2.52-.72-3.45-2.39-3.45-1.34,0-2.2.65-3.47,1.89V150h-3.57Z"/><path class="cls-1" d="M406.4,134.4c4.13,0,6.3,3,6.3,7.23a7.76,7.76,0,0,1-.16,1.67h-9.67c.31,2.76,2,4.31,4.49,4.31a6.39,6.39,0,0,0,3.54-1.11l1.21,2.23a9.63,9.63,0,0,1-5.21,1.64c-4.22,0-7.5-2.94-7.5-8S402.84,134.4,406.4,134.4Zm3.2,6.64c0-2.42-1-3.88-3.1-3.88-1.8,0-3.35,1.34-3.66,3.88Z"/><path class="cls-1" d="M422.61,146a6.81,6.81,0,0,0,4.22,1.7c1.64,0,2.42-.77,2.42-1.82,0-1.28-1.64-1.83-3.26-2.45-2-.75-4.28-1.9-4.28-4.44s2.14-4.56,5.55-4.56a8.24,8.24,0,0,1,5.06,1.83l-1.64,2.17a5.71,5.71,0,0,0-3.35-1.3c-1.52,0-2.24.72-2.24,1.68,0,1.17,1.52,1.67,3.17,2.26,2.07.77,4.37,1.77,4.37,4.62,0,2.6-2.08,4.71-5.92,4.71a9.64,9.64,0,0,1-5.77-2.11Z"/><path class="cls-1" d="M439.39,151.24V156h-3.57V134.78h2.95l.24,1.61h.13a7.39,7.39,0,0,1,4.59-2c3.78,0,6,3,6,7.76,0,5.2-3.13,8.21-6.51,8.21a6.19,6.19,0,0,1-3.91-1.67Zm3.06-3.81c2,0,3.57-1.8,3.57-5.24,0-3-1-4.84-3.29-4.84a4.84,4.84,0,0,0-3.34,1.71v7.1A4.8,4.8,0,0,0,442.45,147.43Z"/><path class="cls-1" d="M459.32,134.4c4.12,0,6.29,3,6.29,7.23a7.86,7.86,0,0,1-.15,1.67h-9.68c.31,2.76,2.05,4.31,4.5,4.31a6.35,6.35,0,0,0,3.53-1.11l1.21,2.23a9.58,9.58,0,0,1-5.21,1.64c-4.21,0-7.5-2.94-7.5-8S455.75,134.4,459.32,134.4Zm3.19,6.64c0-2.42-1-3.88-3.1-3.88-1.8,0-3.35,1.34-3.66,3.88Z"/><path class="cls-1" d="M475,134.4c4.12,0,6.29,3,6.29,7.23a7.16,7.16,0,0,1-.16,1.67H471.5c.31,2.76,2.05,4.31,4.5,4.31a6.35,6.35,0,0,0,3.53-1.11l1.21,2.23a9.63,9.63,0,0,1-5.21,1.64c-4.22,0-7.5-2.94-7.5-8S471.47,134.4,475,134.4Zm3.19,6.64c0-2.42-1-3.88-3.1-3.88-1.8,0-3.35,1.34-3.66,3.88Z"/><path class="cls-1" d="M490.26,134.4a5.65,5.65,0,0,1,4,1.68l-.13-2.45v-5.52h3.57V150h-2.95l-.25-1.64h-.12a6.38,6.38,0,0,1-4.31,2c-3.81,0-6.26-2.94-6.26-8S486.94,134.4,490.26,134.4Zm.68,13a4.1,4.1,0,0,0,3.19-1.71v-7.1a4.53,4.53,0,0,0-3.1-1.27c-1.95,0-3.53,1.83-3.53,5S488.74,147.43,490.94,147.43Z"/><path class="cls-1" d="M508.17,130.09a2.21,2.21,0,1,1,2.2,2A2,2,0,0,1,508.17,130.09Zm.41,4.69h3.56V150h-3.56Z"/><path class="cls-1" d="M516.7,134.78h2.94l.25,2H520a7.07,7.07,0,0,1,5-2.42c3.25,0,4.68,2.21,4.68,6V150h-3.57v-9.08c0-2.52-.71-3.45-2.38-3.45-1.34,0-2.2.65-3.48,1.89V150H516.7Z"/><path class="cls-1" d="M540.94,137.6h-2.17v-2.67l2.36-.15.43-4.16h3v4.16h3.87v2.82h-3.87v7.25c0,1.8.68,2.67,2.13,2.67a4.56,4.56,0,0,0,1.59-.34l.62,2.63a9.76,9.76,0,0,1-3.1.56c-3.54,0-4.84-2.23-4.84-5.52Z"/><path class="cls-1" d="M551.6,128.11h3.57v5.64L555,136.7a7,7,0,0,1,4.87-2.3c3.26,0,4.68,2.21,4.68,6V150H561v-9.08c0-2.52-.72-3.45-2.39-3.45-1.33,0-2.2.65-3.47,1.89V150H551.6Z"/><path class="cls-1" d="M574.92,134.4c4.12,0,6.29,3,6.29,7.23a7.16,7.16,0,0,1-.16,1.67h-9.67c.31,2.76,2,4.31,4.5,4.31a6.38,6.38,0,0,0,3.53-1.11l1.21,2.23a9.63,9.63,0,0,1-5.21,1.64c-4.21,0-7.5-2.94-7.5-8S571.35,134.4,574.92,134.4Zm3.19,6.64c0-2.42-1-3.88-3.1-3.88-1.8,0-3.35,1.34-3.66,3.88Z"/><path class="cls-1" d="M594.54,151.24V156H591V134.78h2.95l.25,1.61h.12a7.39,7.39,0,0,1,4.59-2c3.78,0,6,3,6,7.76,0,5.2-3.13,8.21-6.51,8.21a6.16,6.16,0,0,1-3.9-1.67Zm3.07-3.81c2,0,3.56-1.8,3.56-5.24,0-3-1-4.84-3.28-4.84a4.84,4.84,0,0,0-3.35,1.71v7.1A4.8,4.8,0,0,0,597.61,147.43Z"/><path class="cls-1" d="M614.69,134.4c3.81,0,7.25,2.92,7.25,8s-3.44,8-7.25,8-7.23-2.91-7.23-8S610.9,134.4,614.69,134.4Zm0,13.06c2.23,0,3.59-2,3.59-5.06s-1.36-5.08-3.59-5.08-3.57,2-3.57,5.08S612.46,147.46,614.69,147.46Z"/><path class="cls-1" d="M623.77,134.78h3.6l1.83,7.9c.31,1.46.52,2.89.8,4.37h.13c.27-1.48.58-2.94,1-4.37l2-7.9h3.26l2,7.9c.37,1.46.68,2.89,1,4.37h.12c.28-1.48.53-2.91.8-4.37l1.84-7.9h3.34L641.6,150h-4.25l-1.77-7.1c-.34-1.43-.59-2.82-.93-4.43h-.12c-.28,1.61-.56,3-.9,4.46L631.89,150H627.8Z"/><path class="cls-1" d="M654.3,134.4c4.13,0,6.3,3,6.3,7.23a7.86,7.86,0,0,1-.15,1.67h-9.68c.31,2.76,2.05,4.31,4.5,4.31a6.35,6.35,0,0,0,3.53-1.11l1.21,2.23a9.63,9.63,0,0,1-5.21,1.64c-4.22,0-7.5-2.94-7.5-8S650.74,134.4,654.3,134.4Zm3.2,6.64c0-2.42-1-3.88-3.1-3.88-1.8,0-3.35,1.34-3.66,3.88Z"/><path class="cls-1" d="M664,134.78H667l.25,2.69h.12c1.09-2,2.7-3.07,4.31-3.07a4,4,0,0,1,1.74.31l-.62,3.11a4.85,4.85,0,0,0-1.58-.25c-1.21,0-2.67.83-3.6,3.13V150H664Z"/><path class="cls-1" d="M365.85,167.29a2.21,2.21,0,1,1,2.21,2A2,2,0,0,1,365.85,167.29Zm.41,4.69h3.56V187.2h-3.56Z"/><path class="cls-1" d="M374.38,172h2.94l.25,2h.13a7.07,7.07,0,0,1,5-2.42c3.25,0,4.68,2.21,4.68,6.05v9.55H383.8v-9.08c0-2.52-.71-3.45-2.38-3.45-1.34,0-2.2.65-3.48,1.9V187.2h-3.56Z"/><path class="cls-1" d="M392.27,174.8H390.1v-2.67l2.35-.15.44-4.16h3V172h3.88v2.82h-3.88v7.25c0,1.8.68,2.67,2.14,2.67a4.25,4.25,0,0,0,1.58-.34l.62,2.63a9.65,9.65,0,0,1-3.1.56c-3.53,0-4.83-2.23-4.83-5.52Z"/><path class="cls-1" d="M402.93,172h2.94l.25,2.69h.13c1.08-2,2.69-3.07,4.31-3.07a3.94,3.94,0,0,1,1.73.31l-.62,3.11a4.8,4.8,0,0,0-1.58-.25c-1.21,0-2.67.83-3.6,3.13v9.3h-3.56Z"/><path class="cls-1" d="M422,177.46c0-1.61-.71-3-2.75-3a8.43,8.43,0,0,0-4.28,1.49l-1.31-2.39a11.79,11.79,0,0,1,6.24-2c3.81,0,5.67,2.33,5.67,6.58v9h-2.91l-.28-1.67h-.1a7.42,7.42,0,0,1-4.71,2,4.28,4.28,0,0,1-4.53-4.46C413,179.85,415.73,178.15,422,177.46Zm-3.31,7.32a4.76,4.76,0,0,0,3.31-1.67V179.7c-4.12.52-5.48,1.61-5.48,3.13C416.48,184.19,417.38,184.78,418.65,184.78Z"/><path class="cls-1" d="M435.39,171.6a5.65,5.65,0,0,1,4,1.68l-.13-2.45v-5.52h3.57V187.2h-2.95l-.25-1.64h-.12a6.38,6.38,0,0,1-4.31,2c-3.81,0-6.26-2.94-6.26-8S432.07,171.6,435.39,171.6Zm.68,13a4.1,4.1,0,0,0,3.19-1.71v-7.1a4.52,4.52,0,0,0-3.1-1.27c-2,0-3.53,1.83-3.53,5S433.87,184.63,436.07,184.63Z"/><path class="cls-1" d="M455.66,177.46c0-1.61-.71-3-2.76-3a8.46,8.46,0,0,0-4.28,1.49l-1.3-2.39a11.76,11.76,0,0,1,6.23-2c3.82,0,5.68,2.33,5.68,6.58v9h-2.92l-.28-1.67h-.09a7.42,7.42,0,0,1-4.71,2,4.28,4.28,0,0,1-4.53-4.46C446.7,179.85,449.43,178.15,455.66,177.46Zm-3.32,7.32a4.79,4.79,0,0,0,3.32-1.67V179.7c-4.12.52-5.49,1.61-5.49,3.13C450.17,184.19,451.07,184.78,452.34,184.78Z"/><path class="cls-1" d="M464.34,190.58c1.61,0,2.54-1.09,3-2.6l.28-1-6-15h3.63l2.64,7.47c.43,1.33.86,2.85,1.33,4.28h.12c.38-1.4.78-2.92,1.15-4.28l2.29-7.47h3.45l-5.52,15.9c-1.27,3.44-2.86,5.58-6.17,5.58a5.85,5.85,0,0,1-2-.31l.65-2.79A3.57,3.57,0,0,0,464.34,190.58Z"/><path class="cls-1" d="M485.26,172h2.95l.25,2.07h.12a6.45,6.45,0,0,1,4.65-2.45,4.15,4.15,0,0,1,4.22,2.73c1.46-1.55,3-2.73,4.9-2.73,3.22,0,4.71,2.21,4.71,6.05v9.55h-3.6v-9.08c0-2.52-.74-3.45-2.32-3.45-1,0-2,.62-3.19,1.9V187.2h-3.57v-9.08c0-2.52-.75-3.45-2.36-3.45-.93,0-2,.62-3.19,1.9V187.2h-3.57Z"/><path class="cls-1" d="M519.71,177.46c0-1.61-.72-3-2.76-3a8.43,8.43,0,0,0-4.28,1.49l-1.3-2.39a11.73,11.73,0,0,1,6.23-2c3.81,0,5.67,2.33,5.67,6.58v9h-2.91l-.28-1.67H520a7.42,7.42,0,0,1-4.71,2,4.28,4.28,0,0,1-4.52-4.46C510.75,179.85,513.47,178.15,519.71,177.46Zm-3.32,7.32a4.8,4.8,0,0,0,3.32-1.67V179.7c-4.13.52-5.49,1.61-5.49,3.13C514.22,184.19,515.12,184.78,516.39,184.78Z"/><path class="cls-1" d="M527.61,172h2.94l.25,2.69h.13c1.08-2,2.7-3.07,4.31-3.07a3.94,3.94,0,0,1,1.73.31l-.62,3.11a4.8,4.8,0,0,0-1.58-.25c-1.21,0-2.66.83-3.59,3.13v9.3h-3.57Z"/><path class="cls-1" d="M539.17,165.31h3.51V179h.09l5.64-7h3.91l-5.21,6.2,5.74,9H549l-3.91-6.6-2.38,2.72v3.88h-3.51Z"/><path class="cls-1" d="M560.66,171.6c4.12,0,6.29,3,6.29,7.23a7.16,7.16,0,0,1-.16,1.67h-9.67c.31,2.76,2,4.31,4.5,4.31a6.35,6.35,0,0,0,3.53-1.11l1.21,2.23a9.63,9.63,0,0,1-5.21,1.64c-4.21,0-7.5-2.94-7.5-8S557.09,171.6,560.66,171.6Zm3.19,6.64c0-2.42-1-3.88-3.1-3.88-1.8,0-3.35,1.34-3.66,3.88Z"/><path class="cls-1" d="M570.39,174.8h-2.17v-2.67l2.35-.15.44-4.16h3V172h3.88v2.82H574v7.25c0,1.8.69,2.67,2.15,2.67a4.33,4.33,0,0,0,1.58-.34l.62,2.63a9.71,9.71,0,0,1-3.11.56c-3.53,0-4.83-2.23-4.83-5.52Z"/><path class="cls-1" d="M587,167.29a2.21,2.21,0,1,1,2.21,2A2,2,0,0,1,587,167.29Zm.41,4.69H591V187.2h-3.56Z"/><path class="cls-1" d="M595.68,183.17a6.81,6.81,0,0,0,4.22,1.7c1.64,0,2.42-.77,2.42-1.82,0-1.28-1.64-1.83-3.26-2.45-2-.75-4.27-1.9-4.27-4.44s2.13-4.56,5.54-4.56a8.24,8.24,0,0,1,5.06,1.83l-1.65,2.17a5.66,5.66,0,0,0-3.34-1.3c-1.52,0-2.24.72-2.24,1.68,0,1.17,1.52,1.67,3.17,2.26,2.07.77,4.37,1.77,4.37,4.62,0,2.6-2.08,4.71-5.92,4.71a9.64,9.64,0,0,1-5.77-2.11Z"/><path class="cls-1" d="M614.84,167.29a2.21,2.21,0,1,1,2.2,2A2,2,0,0,1,614.84,167.29Zm.4,4.69h3.57V187.2h-3.57Z"/><path class="cls-1" d="M623.37,172h2.94l.25,2h.12a7.11,7.11,0,0,1,5-2.42c3.25,0,4.68,2.21,4.68,6.05v9.55h-3.57v-9.08c0-2.52-.71-3.45-2.39-3.45-1.33,0-2.2.65-3.47,1.9V187.2h-3.56Z"/><path class="cls-1" d="M647.36,171.6a6.32,6.32,0,0,1,4.47,1.77l-1.71,2.27a3.77,3.77,0,0,0-2.57-1.12c-2.45,0-4.16,2-4.16,5.08s1.68,5.06,4.06,5.06a5.07,5.07,0,0,0,3.14-1.3l1.48,2.26a7.6,7.6,0,0,1-5,1.95c-4.15,0-7.35-2.91-7.35-8S643.3,171.6,647.36,171.6Z"/><path class="cls-1" d="M655.05,172H658l.25,2.69h.13c1.08-2,2.69-3.07,4.31-3.07a3.94,3.94,0,0,1,1.73.31l-.62,3.11a4.85,4.85,0,0,0-1.58-.25c-1.21,0-2.67.83-3.6,3.13v9.3h-3.56Z"/><path class="cls-1" d="M672.31,171.6c4.13,0,6.3,3,6.3,7.23a7.86,7.86,0,0,1-.15,1.67h-9.68c.31,2.76,2.05,4.31,4.5,4.31a6.35,6.35,0,0,0,3.53-1.11l1.21,2.23a9.63,9.63,0,0,1-5.21,1.64c-4.22,0-7.5-2.94-7.5-8S668.75,171.6,672.31,171.6Zm3.2,6.64c0-2.42-1-3.88-3.1-3.88-1.8,0-3.35,1.34-3.66,3.88Z"/><path class="cls-1" d="M690,177.46c0-1.61-.72-3-2.76-3a8.43,8.43,0,0,0-4.28,1.49l-1.31-2.39a11.79,11.79,0,0,1,6.24-2c3.81,0,5.67,2.33,5.67,6.58v9h-2.91l-.28-1.67h-.1a7.42,7.42,0,0,1-4.71,2,4.28,4.28,0,0,1-4.53-4.46C681,179.85,683.72,178.15,690,177.46Zm-3.32,7.32a4.8,4.8,0,0,0,3.32-1.67V179.7c-4.13.52-5.49,1.61-5.49,3.13C684.47,184.19,685.37,184.78,686.64,184.78Z"/><path class="cls-1" d="M698,183.17a6.81,6.81,0,0,0,4.22,1.7c1.64,0,2.42-.77,2.42-1.82,0-1.28-1.65-1.83-3.26-2.45-2-.75-4.28-1.9-4.28-4.44s2.14-4.56,5.55-4.56a8.24,8.24,0,0,1,5.06,1.83l-1.65,2.17a5.67,5.67,0,0,0-3.35-1.3c-1.51,0-2.23.72-2.23,1.68,0,1.17,1.52,1.67,3.17,2.26,2.07.77,4.37,1.77,4.37,4.62,0,2.6-2.08,4.71-5.92,4.71a9.64,9.64,0,0,1-5.77-2.11Z"/><path class="cls-1" d="M710.82,167.29a2.21,2.21,0,1,1,2.2,2A2,2,0,0,1,710.82,167.29Zm.4,4.69h3.57V187.2h-3.57Z"/><path class="cls-1" d="M719.34,172h2.95l.25,2h.12a7.07,7.07,0,0,1,5-2.42c3.26,0,4.68,2.21,4.68,6.05v9.55h-3.56v-9.08c0-2.52-.72-3.45-2.39-3.45-1.33,0-2.2.65-3.47,1.9V187.2h-3.57Z"/><path class="cls-1" d="M737.85,186.7v-.12a2.86,2.86,0,0,1-1.37-2.54,3.67,3.67,0,0,1,1.68-2.82v-.13a5.11,5.11,0,0,1-2-4c0-3.5,2.82-5.46,6-5.46a6.74,6.74,0,0,1,2.23.38h5.46v2.63h-2.79a4.11,4.11,0,0,1,.87,2.58c0,3.38-2.55,5.17-5.77,5.17a5.6,5.6,0,0,1-2.08-.4,1.76,1.76,0,0,0-.74,1.46c0,.87.62,1.39,2.48,1.39h2.69c3.66,0,5.59,1.12,5.59,3.75,0,3-3.17,5.37-8.13,5.37-3.62,0-6.32-1.3-6.32-4A3.92,3.92,0,0,1,737.85,186.7Zm4.71,4.9c2.45,0,4.12-1.14,4.12-2.45s-1-1.52-2.69-1.52h-2.08a8.33,8.33,0,0,1-2.08-.21,2.58,2.58,0,0,0-1.18,2C738.65,190.8,740.14,191.6,742.56,191.6Zm2.26-14.54c0-1.89-1.14-3-2.63-3a2.7,2.7,0,0,0-2.67,3c0,1.95,1.18,3.07,2.67,3.07S744.82,179,744.82,177.06Z"/><path class="cls-1" d="M754.84,182.74a2.42,2.42,0,0,1,0,4.83,2.42,2.42,0,0,1,0-4.83Z"/></svg>