<svg id="Layer_1" data-name="Layer 1" xmlns="http://www.w3.org/2000/svg" viewBox="0 0 980 240"><defs><style>.cls-1{fill:#d80201;}</style></defs><title>text</title><path class="cls-1" d="M290.2,111.21v6.22H299v4.75H290.2v12.31h-5.46v-28h14.83v4.75Z"/><path class="cls-1" d="M313,135.07c-5.8,0-10.42-3.61-10.42-9.66s4.62-9.7,10.46-9.7,10.33,3.65,10.33,9.66S318.76,135.07,313,135.07Zm0-14.79a5.1,5.1,0,1,0,5.17,5.13A5.15,5.15,0,0,0,313,120.28Z"/><path class="cls-1" d="M339.17,120.91a4.5,4.5,0,0,0-2.44-.63c-3.44,0-4.37,2.44-4.37,5.46v8.74h-5.08V116.29h5.08V119a5.93,5.93,0,0,1,7.52-2.9Z"/><path class="cls-1" d="M365.63,134.48v-10c0-2.14-.34-4.5-3-4.5-3,0-3.49,2.73-3.49,5.13v9.33H354v-9.66a8.11,8.11,0,0,0-.38-3,2.94,2.94,0,0,0-2.73-1.76,3.32,3.32,0,0,0-2.86,1.64,7.56,7.56,0,0,0-.59,3.49v9.33H342.4V116.29h5.08v2.06A7,7,0,0,1,353,115.7,6.18,6.18,0,0,1,358.7,119a6.73,6.73,0,0,1,6-3.32,6,6,0,0,1,5.08,2.6,8,8,0,0,1,1,4.41v11.76Z"/><path class="cls-1" d="M389.49,134.48v-2.39a7,7,0,0,1-5.92,3c-5.46,0-8.95-4.54-8.95-9.75s3.49-9.62,8.82-9.62a7.58,7.58,0,0,1,6,2.9v-2.31h5.13v18.19Zm-4.54-14.2a5.1,5.1,0,1,0,5.08,5.08A5.07,5.07,0,0,0,384.95,120.28Z"/><path class="cls-1" d="M423.88,134.48v-2.39a7,7,0,0,1-5.92,3c-5.46,0-8.95-4.54-8.95-9.75s3.49-9.62,8.82-9.62a7.58,7.58,0,0,1,6,2.9V103H429v31.46Zm-4.54-14.2a5.1,5.1,0,1,0,5.08,5.08A5.07,5.07,0,0,0,419.35,120.28Z"/><path class="cls-1" d="M436.35,111.67a3.07,3.07,0,1,1,0-6.13,3.07,3.07,0,0,1,0,6.13Zm-2.56,22.81V116.29h5.08v18.19Z"/><path class="cls-1" d="M448.79,120.66v13.82H443.7V120.66h-2v-4.37h2v-6.22h5.08v6.22h3.57v4.37Z"/><path class="cls-1" d="M460.13,120.66v13.82H455V120.66h-2v-4.37h2v-6.22h5.08v6.22h3.57v4.37Z"/><path class="cls-1" d="M489.27,134.48v-10c0-2.52-.55-4.5-3.49-4.5-3.15,0-3.86,2.44-3.86,5.13v9.33h-5.08V103h5.08v15.63a6.62,6.62,0,0,1,5.71-2.94,7,7,0,0,1,5.29,2.23c1.3,1.51,1.43,3.23,1.43,5.12v11.43Z"/><path class="cls-1" d="M508,135.07c-5,0-8.78-2.23-8.78-7.65V116.29h5.08v10.29c0,2.48,1,4.16,3.7,4.16s3.7-1.68,3.7-4.16V116.29h5.13v11.13C516.83,132.84,513,135.07,508,135.07Z"/><path class="cls-1" d="M527.49,135.07a9.67,9.67,0,0,1-6.93-3l2.69-3.11a5.91,5.91,0,0,0,4.28,2.14,2.14,2.14,0,0,0,2.31-2c0-3.11-8.11-1.55-8.11-7.69,0-3.7,3.07-5.75,6.51-5.75a9.37,9.37,0,0,1,5.92,1.93l-2.52,3a5.07,5.07,0,0,0-3-1.22c-.88,0-1.93.55-1.93,1.55,0,2.65,8.4,1.47,8.4,7.69C535.1,132.8,531.4,135.07,527.49,135.07Z"/><path class="cls-1" d="M560.38,135.07a7.28,7.28,0,0,1-6.09-3v12.1h-5.08V116.29h5.08v2.31a7.25,7.25,0,0,1,6-2.9c5.42,0,9,4.49,9,9.7S565.71,135.07,560.38,135.07Zm-1.51-14.79a5.1,5.1,0,1,0,5.08,5.08A5.07,5.07,0,0,0,558.87,120.28Z"/><path class="cls-1" d="M587,134.48v-2.39a7,7,0,0,1-5.92,3c-5.46,0-8.95-4.54-8.95-9.75s3.49-9.62,8.82-9.62a7.58,7.58,0,0,1,6,2.9v-2.31h5.13v18.19Zm-4.54-14.2a5.1,5.1,0,1,0,5.08,5.08A5.07,5.07,0,0,0,582.47,120.28Zm-.71-7.18a3.78,3.78,0,0,1,0-7.56,3.78,3.78,0,1,1,0,7.56Zm0-5.25a1.47,1.47,0,1,0,1.47,1.47A1.44,1.44,0,0,0,581.76,107.85Z"/><path class="cls-1" d="M612.75,120.66v13.82h-5.08V120.66h-2v-4.37h2v-5.84a8.86,8.86,0,0,1,.8-4.29,7.2,7.2,0,0,1,6.3-3.65,6,6,0,0,1,2.69.63v4.66a5.07,5.07,0,0,0-2.31-.67c-2.27,0-2.39,2.35-2.39,4.07v5.08h4.71v4.37Z"/><path class="cls-1" d="M624,126.2c.08,2.81,1.43,4.87,4.45,4.87a4.77,4.77,0,0,0,4.33-2.44l4.71.76c-1.6,3.91-4.83,5.67-8.95,5.67-5.88,0-9.75-3.78-9.75-9.7s3.7-9.66,9.54-9.66c6,0,9.28,4,9.28,9.83v.67Zm4.41-6.89a4.13,4.13,0,0,0-4.24,3.65h8.61A4.22,4.22,0,0,0,628.46,119.31Z"/><path class="cls-1" d="M664.79,134.48v-10c0-2.14-.34-4.5-3-4.5-3,0-3.49,2.73-3.49,5.13v9.33H653.2v-9.66a8.11,8.11,0,0,0-.38-3,2.94,2.94,0,0,0-2.73-1.76,3.32,3.32,0,0,0-2.86,1.64,7.56,7.56,0,0,0-.59,3.49v9.33h-5.08V116.29h5.08v2.06a7,7,0,0,1,5.54-2.65,6.18,6.18,0,0,1,5.67,3.32,6.73,6.73,0,0,1,6-3.32,6,6,0,0,1,5.08,2.6,8,8,0,0,1,1,4.41v11.76Z"/><path class="cls-1" d="M708.47,134.48v-10c0-2.14-.34-4.5-3-4.5-3,0-3.49,2.73-3.49,5.13v9.33h-5.08v-9.66a8.11,8.11,0,0,0-.38-3,2.94,2.94,0,0,0-2.73-1.76,3.32,3.32,0,0,0-2.86,1.64,7.56,7.56,0,0,0-.59,3.49v9.33h-5.08V116.29h5.08v2.06a7,7,0,0,1,5.54-2.65,6.18,6.18,0,0,1,5.67,3.32,6.73,6.73,0,0,1,6-3.32,6,6,0,0,1,5.08,2.6,8,8,0,0,1,1,4.41v11.76Z"/><path class="cls-1" d="M720.9,111.67a3.07,3.07,0,1,1,0-6.13,3.07,3.07,0,0,1,0,6.13Zm-2.56,22.81V116.29h5.08v18.19Z"/><path class="cls-1" d="M740.64,134.48V124.4c0-2.48-.55-4.37-3.45-4.37-3.15,0-3.91,2.31-3.91,5v9.41h-5.08V116.29h5.08v2.23c1.68-1.93,3.11-2.81,5.71-2.81a7,7,0,0,1,5.29,2.18c1.3,1.51,1.43,3.15,1.43,5v11.55Z"/><path class="cls-1" d="M759.37,135.07c-5,0-8.78-2.23-8.78-7.65V116.29h5.08v10.29c0,2.48,1,4.16,3.7,4.16s3.7-1.68,3.7-4.16V116.29h5.12v11.13C768.19,132.84,764.37,135.07,759.37,135.07Z"/><path class="cls-1" d="M778.19,120.66v13.82H773.1V120.66h-2v-4.37h2v-6.22h5.08v6.22h3.57v4.37Z"/><path class="cls-1" d="M788.64,126.2c.08,2.81,1.43,4.87,4.45,4.87a4.77,4.77,0,0,0,4.33-2.44l4.71.76c-1.6,3.91-4.83,5.67-8.95,5.67-5.88,0-9.75-3.78-9.75-9.7s3.7-9.66,9.54-9.66c6,0,9.28,4,9.28,9.83v.67Zm4.41-6.89a4.13,4.13,0,0,0-4.24,3.65h8.61A4.22,4.22,0,0,0,793.05,119.31Z"/><path class="cls-1" d="M818,120.91a4.5,4.5,0,0,0-2.44-.63c-3.44,0-4.37,2.44-4.37,5.46v8.74h-5.08V116.29h5.08V119a5.93,5.93,0,0,1,7.52-2.9Z"/><path class="cls-1" d="M822.24,135a3.28,3.28,0,1,1,3.28-3.28A3.28,3.28,0,0,1,822.24,135Z"/></svg>