<svg id="Layer_1" data-name="Layer 1" xmlns="http://www.w3.org/2000/svg" viewBox="0 0 980 240"><defs><style>.cls-1{fill:#d80201;}</style></defs><title>text</title><path class="cls-1" d="M302.69,101.59,284.42,80.71V101h-5.85V70.31h4l18.27,20.88V71h5.85v30.6Z"/><path class="cls-1" d="M318.44,111.44h-6.17l7.15-13.36L310.2,81.52h6.34l5.85,11.07L328,81.52h6.21Z"/><path class="cls-1" d="M350.16,101V90.34c0-2.7-.58-4.81-3.73-4.81-3.37,0-4.14,2.61-4.14,5.49v10h-5.44V67.3h5.44V84a7.1,7.1,0,0,1,6.12-3.15,7.45,7.45,0,0,1,5.67,2.38c1.4,1.62,1.53,3.46,1.53,5.49V101Z"/><path class="cls-1" d="M365.37,92.14c.09,3,1.53,5.22,4.77,5.22a5.11,5.11,0,0,0,4.64-2.61l5,.81c-1.71,4.19-5.17,6.07-9.58,6.07-6.3,0-10.44-4-10.44-10.39s4-10.35,10.21-10.35c6.43,0,9.94,4.32,9.94,10.53v.72Zm4.72-7.38a4.42,4.42,0,0,0-4.54,3.91h9.23A4.52,4.52,0,0,0,370.1,84.76Z"/><path class="cls-1" d="M389.63,86.2V101h-5.44V86.2H382V81.52h2.16V74.86h5.44v6.66h3.82V86.2Z"/><path class="cls-1" d="M399.3,101.59a3.51,3.51,0,1,1,3.51-3.51A3.51,3.51,0,0,1,399.3,101.59Zm-2.79-9.18V71h5.58V92.41Z"/><path class="cls-1" d="M297.32,152l-2.39-5.92H283.5L280.94,152h-5.8l12.14-28.61h4.12L303.21,152Zm-8-20.42-4.07,10.08h8Z"/><path class="cls-1" d="M305.68,152V120.54h5.08V152Z"/><path class="cls-1" d="M315.63,152V120.54h5.08V152Z"/><path class="cls-1" d="M339.49,152v-2.39a7,7,0,0,1-5.92,3c-5.46,0-8.95-4.54-8.95-9.75s3.49-9.62,8.82-9.62a7.58,7.58,0,0,1,6,2.9v-2.31h5.13V152ZM335,137.8a5.1,5.1,0,1,0,5.08,5.08A5.07,5.07,0,0,0,335,137.8Z"/><path class="cls-1" d="M372.42,152V142c0-2.52-.55-4.5-3.49-4.5-3.15,0-3.86,2.44-3.86,5.13V152H360V120.54h5.08v15.63a6.62,6.62,0,0,1,5.71-2.94,7,7,0,0,1,5.29,2.23c1.3,1.51,1.43,3.23,1.43,5.12V152Z"/><path class="cls-1" d="M391.15,152.59c-5,0-8.78-2.23-8.78-7.65V133.81h5.08V144.1c0,2.48,1,4.16,3.7,4.16s3.7-1.68,3.7-4.16V133.81H400v11.13C400,150.36,396.15,152.59,391.15,152.59Z"/><path class="cls-1" d="M410.64,152.59a9.68,9.68,0,0,1-6.93-3l2.69-3.11a5.91,5.91,0,0,0,4.29,2.14,2.14,2.14,0,0,0,2.31-2c0-3.11-8.11-1.55-8.11-7.69,0-3.7,3.07-5.75,6.51-5.75a9.37,9.37,0,0,1,5.92,1.93l-2.52,3a5.07,5.07,0,0,0-3-1.22c-.88,0-1.93.55-1.93,1.55,0,2.65,8.4,1.47,8.4,7.69C418.24,150.32,414.54,152.59,410.64,152.59Z"/><path class="cls-1" d="M446.25,152v-2.39a7,7,0,0,1-5.92,3c-5.46,0-8.95-4.54-8.95-9.75s3.49-9.62,8.82-9.62a7.58,7.58,0,0,1,6,2.9v-2.31h5.13V152Zm-8.78-21.59a3,3,0,0,1,0-6,3,3,0,0,1,0,6Zm4.24,7.39a5.1,5.1,0,1,0,5.08,5.08A5.07,5.07,0,0,0,441.72,137.8Zm4.5-7.39a3.07,3.07,0,0,1-3-3,3,3,0,1,1,3,3Z"/><path class="cls-1" d="M468.13,138.43a4.5,4.5,0,0,0-2.44-.63c-3.44,0-4.37,2.44-4.37,5.46V152h-5.08V133.81h5.08v2.73a5.93,5.93,0,0,1,7.52-2.9Z"/><path class="cls-1" d="M494.3,152V141.92c0-2.48-.55-4.37-3.45-4.37-3.15,0-3.91,2.31-3.91,5V152h-5.08V133.81h5.08V136c1.68-1.93,3.11-2.81,5.71-2.81a7,7,0,0,1,5.29,2.18c1.3,1.51,1.43,3.15,1.43,5V152Z"/><path class="cls-1" d="M513,152.59c-5,0-8.78-2.23-8.78-7.65V133.81h5.08V144.1c0,2.48,1,4.16,3.7,4.16s3.7-1.68,3.7-4.16V133.81h5.12v11.13C521.85,150.36,518,152.59,513,152.59Z"/><path class="cls-1" d="M545.79,152.67c-4.24,0-7.27-1.85-9.62-5.33l3.53-3.4a6.42,6.42,0,0,0,5.88,3.74c2.35,0,4.33-1.47,4.33-3.95,0-5.75-12.31-3-12.31-12.06,0-5,4-8.15,8.74-8.15a12.29,12.29,0,0,1,8.19,3.11l-2.86,3.74a5.67,5.67,0,0,0-4.54-2.27c-1.81,0-3.91,1.13-3.91,3.15,0,4.75,12.31,2.39,12.31,12.18C555.54,149.14,551.33,152.67,545.79,152.67Z"/><path class="cls-1" d="M568.81,152.38h-2.35l-9.28-18.57h5.71l4.79,10.25,4.79-10.25h5.71Z"/><path class="cls-1" d="M593.63,152v-2.39a7,7,0,0,1-5.92,3c-5.46,0-8.95-4.54-8.95-9.75s3.49-9.62,8.82-9.62a7.58,7.58,0,0,1,6,2.9v-2.31h5.13V152Zm-4.54-14.2a5.1,5.1,0,1,0,5.08,5.08A5.07,5.07,0,0,0,589.09,137.8Z"/><path class="cls-1" d="M616.06,152V141.92c0-2.48-.55-4.37-3.45-4.37-3.15,0-3.91,2.31-3.91,5V152h-5.08V133.81h5.08V136c1.68-1.93,3.11-2.81,5.71-2.81a7,7,0,0,1,5.29,2.18c1.3,1.51,1.43,3.15,1.43,5V152Z"/><path class="cls-1" d="M630.25,143.73c.08,2.81,1.43,4.87,4.45,4.87a4.77,4.77,0,0,0,4.33-2.44l4.7.76c-1.6,3.91-4.83,5.67-8.95,5.67-5.88,0-9.75-3.78-9.75-9.7s3.7-9.66,9.54-9.66c6,0,9.28,4,9.28,9.83v.67Zm4.41-6.89a4.13,4.13,0,0,0-4.24,3.65H639A4.22,4.22,0,0,0,634.66,136.84Z"/><path class="cls-1" d="M660.2,152V141.92c0-2.48-.55-4.37-3.45-4.37-3.15,0-3.91,2.31-3.91,5V152h-5.08V133.81h5.08V136c1.68-1.93,3.11-2.81,5.71-2.81a7,7,0,0,1,5.29,2.18c1.3,1.51,1.43,3.15,1.43,5V152Z"/><path class="cls-1" d="M693.38,152V142c0-2.14-.34-4.5-3-4.5-3,0-3.49,2.73-3.49,5.13V152h-5.08v-9.66a8.1,8.1,0,0,0-.38-3,2.94,2.94,0,0,0-2.73-1.76,3.32,3.32,0,0,0-2.86,1.64,7.56,7.56,0,0,0-.59,3.49V152h-5.08V133.81h5.08v2.06a7,7,0,0,1,5.54-2.65,6.18,6.18,0,0,1,5.67,3.32,6.73,6.73,0,0,1,6-3.32,6,6,0,0,1,5.08,2.6,8,8,0,0,1,1,4.41V152Z"/><path class="cls-1" d="M717.23,152v-2.39a7,7,0,0,1-5.92,3c-5.46,0-8.95-4.54-8.95-9.75s3.49-9.62,8.82-9.62a7.58,7.58,0,0,1,6,2.9v-2.31h5.13V152Zm-8.78-21.59a3,3,0,0,1,0-6,3,3,0,0,1,0,6Zm4.24,7.39a5.1,5.1,0,1,0,5.08,5.08A5.07,5.07,0,0,0,712.7,137.8Zm4.5-7.39a3.07,3.07,0,0,1-3-3,3,3,0,1,1,3,3Z"/><path class="cls-1" d="M739.11,138.43a4.5,4.5,0,0,0-2.44-.63c-3.44,0-4.37,2.44-4.37,5.46V152h-5.08V133.81h5.08v2.73a5.93,5.93,0,0,1,7.52-2.9Z"/><path class="cls-1" d="M754.82,152,748,144.19l-.55.55V152h-5.08V120.54h5.08v19.91l6.8-6.64h6.89l-8.53,8,9.2,10.21Z"/><path class="cls-1" d="M769.18,138.18V152H764.1V138.18h-2v-4.37h2v-6.22h5.08v6.22h3.57v4.37Z"/><path class="cls-1" d="M789.3,152v-2.39a7,7,0,0,1-5.92,3c-5.46,0-8.95-4.54-8.95-9.75s3.49-9.62,8.82-9.62a7.58,7.58,0,0,1,6,2.9v-2.31h5.13V152Zm-4.54-14.2a5.1,5.1,0,1,0,5.08,5.08A5.07,5.07,0,0,0,784.77,137.8Z"/></svg>