<svg id="Layer_1" data-name="Layer 1" xmlns="http://www.w3.org/2000/svg" viewBox="0 0 980 300"><defs><style>.cls-1{fill:#fff;}</style></defs><title>text</title><path class="cls-1" d="M41.29,266.79v2.27H29.08V248.4h2.65v18.39Z"/><path class="cls-1" d="M54.15,264.51l2.21.45A6.16,6.16,0,0,1,54,268.2a6.79,6.79,0,0,1-4.13,1.29,6.43,6.43,0,0,1-5.07-2.21,8.4,8.4,0,0,1-1.94-5.78,8.53,8.53,0,0,1,2-5.9,6.5,6.5,0,0,1,5.06-2.25,6.11,6.11,0,0,1,4.82,2.07q1.83,2.09,1.87,6.21H45.51q0,3.47,1.45,4.68A4.77,4.77,0,0,0,50,267.52,4.21,4.21,0,0,0,54.15,264.51ZM54,259.86a6.72,6.72,0,0,0-.43-2.29,4,4,0,0,0-1.33-1.7,3.66,3.66,0,0,0-2.26-.7,4,4,0,0,0-3,1.27,5.28,5.28,0,0,0-1.39,3.42Z"/><path class="cls-1" d="M58.13,265.1l2.27-.47c.51,1.92,2.1,2.89,4.79,2.89a4.5,4.5,0,0,0,2.51-.67,2.12,2.12,0,0,0,1-1.87c0-1.2-.88-2-2.62-2.28l-3.22-.62a5.84,5.84,0,0,1-3-1.42,3.69,3.69,0,0,1-1.12-2.8,4.07,4.07,0,0,1,1.53-3.22,6.18,6.18,0,0,1,4.12-1.29q5,0,6.14,3.89l-2.17.47a3.75,3.75,0,0,0-3.87-2.39,4.42,4.42,0,0,0-2.38.59,1.89,1.89,0,0,0-.93,1.68c0,1.12.79,1.83,2.38,2.13l3,.53q4.68.86,4.68,4.54a4.05,4.05,0,0,1-1.74,3.4,7.64,7.64,0,0,1-4.64,1.3C61.23,269.49,59,268,58.13,265.1Z"/><path class="cls-1" d="M102.8,269.06h-2.31v-9.5a8.65,8.65,0,0,0-.21-2.21,2.67,2.67,0,0,0-1-1.34,2.83,2.83,0,0,0-1.77-.62,3.75,3.75,0,0,0-2.63,1.25,5.15,5.15,0,0,0-1.26,3.81v8.61h-2.3V259a3.61,3.61,0,0,0-1-2.85,3.08,3.08,0,0,0-2-.83,3.39,3.39,0,0,0-2.64,1.3,4.87,4.87,0,0,0-1.12,3.3v9.14H82.32V253.77h2v2.94q1.71-3.36,4.71-3.36a4,4,0,0,1,2.8,1.07A5,5,0,0,1,93.36,257c1-2.44,2.65-3.66,4.82-3.66a4.45,4.45,0,0,1,2.74.89,4.17,4.17,0,0,1,1.53,2.05,12,12,0,0,1,.35,3.27Z"/><path class="cls-1" d="M117.65,264.51l2.21.45a6.16,6.16,0,0,1-2.36,3.24,6.79,6.79,0,0,1-4.13,1.29,6.43,6.43,0,0,1-5.07-2.21,8.4,8.4,0,0,1-1.94-5.78,8.53,8.53,0,0,1,2-5.9,6.5,6.5,0,0,1,5.06-2.25,6.13,6.13,0,0,1,4.82,2.07c1.21,1.39,1.84,3.46,1.87,6.21H109q0,3.47,1.45,4.68a4.77,4.77,0,0,0,3.07,1.21A4.21,4.21,0,0,0,117.65,264.51Zm-.14-4.65a6.72,6.72,0,0,0-.42-2.29,4,4,0,0,0-1.33-1.7,3.66,3.66,0,0,0-2.26-.7,4,4,0,0,0-3,1.27,5.28,5.28,0,0,0-1.39,3.42Z"/><path class="cls-1" d="M126.07,269.06h-2.38V253.77h2.09v3.58a7.53,7.53,0,0,1,2.22-3.28,4,4,0,0,1,2.27-.75,9.25,9.25,0,0,1,.94.06v2.27h-.48a4.19,4.19,0,0,0-3.27,1.47,5.94,5.94,0,0,0-1.39,3.86Z"/><path class="cls-1" d="M147.14,269.49a5.82,5.82,0,0,1-4.92-2.34,9.34,9.34,0,0,1-1.76-5.79,8.36,8.36,0,0,1,2-5.83,6.43,6.43,0,0,1,4.94-2.18,6.06,6.06,0,0,1,5,2.29,9,9,0,0,1,1.82,5.74,8.6,8.6,0,0,1-2,5.84A6.43,6.43,0,0,1,147.14,269.49Zm.18-2a3.78,3.78,0,0,0,3-1.5,7.27,7.27,0,0,0,1.23-4.66c0-2.12-.43-3.66-1.29-4.61a3.92,3.92,0,0,0-3-1.43,3.8,3.8,0,0,0-3,1.44,7,7,0,0,0-1.23,4.58c0,2.21.41,3.79,1.23,4.75A3.85,3.85,0,0,0,147.32,267.52Z"/><path class="cls-1" d="M178.24,269.06h-2.31v-9.5a8.65,8.65,0,0,0-.21-2.21,2.62,2.62,0,0,0-1-1.34,2.79,2.79,0,0,0-1.77-.62,3.77,3.77,0,0,0-2.63,1.25,5.15,5.15,0,0,0-1.26,3.81v8.61h-2.3V259a3.61,3.61,0,0,0-1-2.85,3.08,3.08,0,0,0-2-.83,3.39,3.39,0,0,0-2.64,1.3,4.92,4.92,0,0,0-1.12,3.3v9.14h-2.27V253.77h2.05v2.94c1.14-2.24,2.7-3.36,4.7-3.36a4,4,0,0,1,2.8,1.07A4.91,4.91,0,0,1,168.8,257q1.57-3.66,4.83-3.66a4.4,4.4,0,0,1,2.73.89,4.17,4.17,0,0,1,1.53,2.05,12,12,0,0,1,.35,3.27Z"/><path class="cls-1" d="M204.32,266.79v2.27H191V248.4H204v2.27H193.55v6.57h8.32v2.1h-8.32v7.45Z"/><path class="cls-1" d="M210.1,274.22h-2.37V253.77h2.15v3c1.08-2.26,2.68-3.39,4.82-3.39a5.19,5.19,0,0,1,4.37,2.27,10.95,10.95,0,0,1,0,11.67,5.33,5.33,0,0,1-4.39,2.2,5.08,5.08,0,0,1-4.53-2.74Zm0-15v4.31a4.65,4.65,0,0,0,1.47,2.87,3.84,3.84,0,0,0,2.59,1.13,3.62,3.62,0,0,0,2.76-1.36c.81-.91,1.21-2.48,1.21-4.71A7.79,7.79,0,0,0,217,257a3.38,3.38,0,0,0-2.89-1.57,3.54,3.54,0,0,0-2.55,1.11A5.38,5.38,0,0,0,210.1,259.21Z"/><path class="cls-1" d="M226.74,248.4v2.65h-2.56V248.4Zm-.07,5.37v15.29h-2.38V253.77Z"/><path class="cls-1" d="M229.34,265.1l2.27-.47c.51,1.92,2.1,2.89,4.79,2.89a4.48,4.48,0,0,0,2.51-.67,2.1,2.1,0,0,0,1-1.87c0-1.2-.87-2-2.62-2.28l-3.22-.62a5.84,5.84,0,0,1-3-1.42,3.69,3.69,0,0,1-1.12-2.8,4.07,4.07,0,0,1,1.53-3.22,6.18,6.18,0,0,1,4.12-1.29q5,0,6.15,3.89l-2.18.47a3.74,3.74,0,0,0-3.86-2.39,4.43,4.43,0,0,0-2.39.59,1.89,1.89,0,0,0-.93,1.68c0,1.12.79,1.83,2.38,2.13l3,.53q4.68.86,4.68,4.54a4.05,4.05,0,0,1-1.74,3.4,7.62,7.62,0,0,1-4.64,1.3C232.44,269.49,230.2,268,229.34,265.1Z"/><path class="cls-1" d="M255.88,264.51l2.21.45a6.16,6.16,0,0,1-2.36,3.24,6.79,6.79,0,0,1-4.13,1.29,6.46,6.46,0,0,1-5.08-2.21,9.64,9.64,0,0,1,.08-11.68,6.5,6.5,0,0,1,5.06-2.25,6.13,6.13,0,0,1,4.82,2.07c1.21,1.39,1.84,3.46,1.87,6.21H247.24q0,3.47,1.45,4.68a4.77,4.77,0,0,0,3.07,1.21A4.21,4.21,0,0,0,255.88,264.51Zm-.14-4.65a6.72,6.72,0,0,0-.42-2.29,4,4,0,0,0-1.33-1.7,3.66,3.66,0,0,0-2.26-.7,4,4,0,0,0-3,1.27,5.23,5.23,0,0,0-1.39,3.42Z"/><path class="cls-1" d="M264.29,269.06h-2.37V253.77H264v3.58a7.61,7.61,0,0,1,2.21-3.28,4,4,0,0,1,2.28-.75c.24,0,.56,0,.94.06v2.27H269a4.16,4.16,0,0,0-3.27,1.47,5.94,5.94,0,0,0-1.4,3.86Z"/><path class="cls-1" d="M284.14,253.77l-5.29,15.29H276.4l-5.48-15.29h2.64l4.26,12.43,4.2-12.43Z"/><path class="cls-1" d="M296.52,264.51l2.21.45a6.16,6.16,0,0,1-2.36,3.24,6.79,6.79,0,0,1-4.13,1.29,6.43,6.43,0,0,1-5.07-2.21,8.4,8.4,0,0,1-1.94-5.78,8.53,8.53,0,0,1,2-5.9,6.5,6.5,0,0,1,5.06-2.25,6.11,6.11,0,0,1,4.82,2.07c1.21,1.39,1.84,3.46,1.87,6.21H287.88q0,3.47,1.45,4.68a4.77,4.77,0,0,0,3.07,1.21A4.21,4.21,0,0,0,296.52,264.51Zm-.14-4.65a6.72,6.72,0,0,0-.42-2.29,4,4,0,0,0-1.33-1.7,3.66,3.66,0,0,0-2.26-.7,4,4,0,0,0-3,1.27,5.28,5.28,0,0,0-1.39,3.42Z"/><path class="cls-1" d="M304.94,269.06h-2.38V253.77h2.09v3.58a7.7,7.7,0,0,1,2.22-3.28,4,4,0,0,1,2.27-.75,9.25,9.25,0,0,1,.94.06v2.27h-.48a4.19,4.19,0,0,0-3.27,1.47,5.94,5.94,0,0,0-1.39,3.86Z"/><path class="cls-1" d="M333.12,262.11l2.36.53q-1.69,6.86-7.66,6.85a7.13,7.13,0,0,1-6.15-3.17,13.17,13.17,0,0,1-2.23-7.79,11.81,11.81,0,0,1,2.33-7.66A7.61,7.61,0,0,1,328,248q5.81,0,7.46,6.64l-2.44.49q-1.32-4.94-5-4.94a4.81,4.81,0,0,0-4.24,2.29,11.64,11.64,0,0,0-1.51,6.44,10.75,10.75,0,0,0,1.55,6.1,4.71,4.71,0,0,0,4.08,2.29C330.52,267.29,332.26,265.56,333.12,262.11Z"/><path class="cls-1" d="M344,269.49a5.79,5.79,0,0,1-4.91-2.34,9.28,9.28,0,0,1-1.77-5.79,8.36,8.36,0,0,1,2-5.83,6.39,6.39,0,0,1,4.93-2.18,6.06,6.06,0,0,1,5,2.29,8.94,8.94,0,0,1,1.82,5.74,8.55,8.55,0,0,1-2,5.84A6.41,6.41,0,0,1,344,269.49Zm.18-2a3.77,3.77,0,0,0,3-1.5,7.27,7.27,0,0,0,1.23-4.66c0-2.12-.43-3.66-1.29-4.61a3.9,3.9,0,0,0-3-1.43,3.8,3.8,0,0,0-3,1.44,7.07,7.07,0,0,0-1.22,4.58c0,2.21.41,3.79,1.22,4.75A3.85,3.85,0,0,0,344.14,267.52Z"/><path class="cls-1" d="M375.07,269.06h-2.32v-9.5a8.65,8.65,0,0,0-.21-2.21,2.56,2.56,0,0,0-1-1.34,2.79,2.79,0,0,0-1.77-.62,3.75,3.75,0,0,0-2.62,1.25,5.11,5.11,0,0,0-1.27,3.81v8.61h-2.3V259a3.61,3.61,0,0,0-1-2.85,3.06,3.06,0,0,0-2-.83,3.35,3.35,0,0,0-2.63,1.3,4.87,4.87,0,0,0-1.12,3.3v9.14h-2.27V253.77h2v2.94q1.71-3.36,4.71-3.36a4,4,0,0,1,2.8,1.07,5,5,0,0,1,1.48,2.59q1.58-3.66,4.83-3.66a4.4,4.4,0,0,1,2.73.89,4.17,4.17,0,0,1,1.53,2.05,11.57,11.57,0,0,1,.36,3.27Z"/><path class="cls-1" d="M400.3,269.06H398v-9.5a9.24,9.24,0,0,0-.2-2.21,2.67,2.67,0,0,0-1-1.34,2.83,2.83,0,0,0-1.77-.62,3.75,3.75,0,0,0-2.63,1.25,5.15,5.15,0,0,0-1.26,3.81v8.61h-2.31V259a3.61,3.61,0,0,0-1-2.85,3.06,3.06,0,0,0-2-.83,3.37,3.37,0,0,0-2.63,1.3,4.87,4.87,0,0,0-1.12,3.3v9.14h-2.27V253.77h2v2.94q1.71-3.36,4.71-3.36a4,4,0,0,1,2.8,1.07,4.89,4.89,0,0,1,1.48,2.59q1.57-3.66,4.83-3.66a4.4,4.4,0,0,1,2.73.89,4.05,4.05,0,0,1,1.53,2.05,11.57,11.57,0,0,1,.36,3.27Z"/><path class="cls-1" d="M415.15,264.51l2.21.45A6.22,6.22,0,0,1,415,268.2a6.82,6.82,0,0,1-4.14,1.29,6.43,6.43,0,0,1-5.07-2.21,9.6,9.6,0,0,1,.08-11.68,6.48,6.48,0,0,1,5.05-2.25,6.1,6.1,0,0,1,4.82,2.07q1.83,2.09,1.87,6.21H406.5q0,3.47,1.46,4.68a4.77,4.77,0,0,0,3.07,1.21A4.21,4.21,0,0,0,415.15,264.51Zm-.14-4.65a6.72,6.72,0,0,0-.42-2.29,4,4,0,0,0-1.34-1.7,3.61,3.61,0,0,0-2.25-.7,4,4,0,0,0-3,1.27,5.28,5.28,0,0,0-1.38,3.42Z"/><path class="cls-1" d="M423.56,269.06h-2.37V253.77h2.09v3.58a7.61,7.61,0,0,1,2.21-3.28,4,4,0,0,1,2.28-.75c.24,0,.56,0,.94.06v2.27h-.48a4.16,4.16,0,0,0-3.27,1.47,5.94,5.94,0,0,0-1.4,3.86Z"/><path class="cls-1" d="M440,263.7l2.15.38a6.83,6.83,0,0,1-2,4,6.07,6.07,0,0,1-8.71-.9,9.52,9.52,0,0,1-1.66-5.69,9.3,9.3,0,0,1,1.75-5.8,5.64,5.64,0,0,1,4.76-2.31,5.45,5.45,0,0,1,4,1.49,6.63,6.63,0,0,1,1.87,3.85l-2.15.41q-.6-3.78-3.65-3.78a3.4,3.4,0,0,0-3,1.67,8.06,8.06,0,0,0-1.05,4.34,8.36,8.36,0,0,0,1.05,4.56,3.33,3.33,0,0,0,2.95,1.63C438.2,267.52,439.45,266.25,440,263.7Z"/><path class="cls-1" d="M455.47,264.51l2.21.45a6.16,6.16,0,0,1-2.36,3.24,6.79,6.79,0,0,1-4.13,1.29,6.43,6.43,0,0,1-5.07-2.21,8.4,8.4,0,0,1-1.94-5.78,8.53,8.53,0,0,1,2-5.9,6.5,6.5,0,0,1,5.06-2.25,6.11,6.11,0,0,1,4.82,2.07c1.21,1.39,1.84,3.46,1.87,6.21H446.83q0,3.47,1.45,4.68a4.77,4.77,0,0,0,3.07,1.21A4.21,4.21,0,0,0,455.47,264.51Zm-.14-4.65a6.72,6.72,0,0,0-.42-2.29,4,4,0,0,0-1.33-1.7,3.66,3.66,0,0,0-2.26-.7,4,4,0,0,0-3,1.27,5.28,5.28,0,0,0-1.39,3.42Z"/></svg>