<svg id="Layer_1" data-name="Layer 1" xmlns="http://www.w3.org/2000/svg" viewBox="0 0 980 120"><defs><style>.cls-1{fill:#d4ac76;}</style></defs><title>text</title><path class="cls-1" d="M305.21,61V27h9.7a16.66,16.66,0,0,1,12,4.86,16.37,16.37,0,0,1,5,12.25,15.91,15.91,0,0,1-5.07,12.14A17.37,17.37,0,0,1,314.57,61ZM315,32.66h-3.88V55.32H315A9.79,9.79,0,0,0,322.56,52a11.54,11.54,0,0,0,3-8.1,11.21,11.21,0,0,0-3.07-8A10,10,0,0,0,315,32.66Z"/><path class="cls-1" d="M341.91,61V27h6.38V61Z"/><path class="cls-1" d="M356.52,33.1V27h28V33.1H373.72V61h-6.38V33.1Z"/><path class="cls-1" d="M390.53,33.1V27h28V33.1H407.73V61h-6.38V33.1Z"/><path class="cls-1" d="M445.09,61V27h6.38v27.9H464V61Z"/><path class="cls-1" d="M473.16,61V27h6.38V61Z"/><path class="cls-1" d="M500.46,61l-13-34h6.64l9.34,24.45L512.67,27h6.45L506.25,61Z"/><path class="cls-1" d="M534.91,61.44a16.35,16.35,0,0,1-6.42-1.34A16.76,16.76,0,0,1,523,56.38l4-4.85a12.33,12.33,0,0,0,3.75,3,9.58,9.58,0,0,0,4.48,1.19,5.5,5.5,0,0,0,3.63-1.17,3.65,3.65,0,0,0,1.42-2.93q0-3.18-3.73-4.72l-3.79-1.52a14.57,14.57,0,0,1-5.65-3.75,8.67,8.67,0,0,1-1.83-5.78,8.83,8.83,0,0,1,2.88-6.46,9.87,9.87,0,0,1,7.21-2.84,14.65,14.65,0,0,1,10.47,3.89l-3.75,4.74a8.76,8.76,0,0,0-6.72-3,4.55,4.55,0,0,0-3.05,1,3,3,0,0,0-1.15,2.4,3.18,3.18,0,0,0,.9,2.33A9,9,0,0,0,535,39.73l4,1.59q7.56,3,7.7,9.82a9.52,9.52,0,0,1-3.2,7.44A12.38,12.38,0,0,1,534.91,61.44Z"/><path class="cls-1" d="M565.41,61l-13-34H559l9.34,24.45L577.62,27h6.45L571.19,61Z"/><path class="cls-1" d="M611.06,46.61H598.47v8.71h13.82V61h-20.2V27h19.8v5.68H598.47v8.27h12.58Z"/><path class="cls-1" d="M622.63,61V27h13.31a11.47,11.47,0,0,1,8.19,3.09,10.58,10.58,0,0,1,3.27,8.07A10.21,10.21,0,0,1,645,45a11,11,0,0,1-6.35,3.62L647.75,61h-7.17l-8.83-12.14H629V61Zm12.32-28.34H629V43.75h5.94a6.3,6.3,0,0,0,4.42-1.51A5.07,5.07,0,0,0,641,38.32a5.35,5.35,0,0,0-1.69-4A6.08,6.08,0,0,0,634.95,32.66Z"/><path class="cls-1" d="M657.34,61V27h5.9V42l13-15h7.88l-12,13.57L684.4,61h-7.35l-9.26-15.53-4.55,5.15V61Z"/></svg>