<svg id="Layer_1" data-name="Layer 1" xmlns="http://www.w3.org/2000/svg" viewBox="0 0 250 240"><defs><style>.cls-1{fill:#d80201;}</style></defs><title>text</title><path class="cls-1" d="M47.28,139.35a6.49,6.49,0,0,1-5.72-3.17l2.1-2a3.82,3.82,0,0,0,3.5,2.22A2.37,2.37,0,0,0,49.72,134c0-3.42-7.32-1.8-7.32-7.17A4.89,4.89,0,0,1,47.6,122a7.31,7.31,0,0,1,4.87,1.85l-1.7,2.22a3.37,3.37,0,0,0-2.7-1.35c-1.07,0-2.32.67-2.32,1.87,0,2.83,7.32,1.42,7.32,7.25C53.07,137.25,50.57,139.35,47.28,139.35Z"/><path class="cls-1" d="M60.7,139.3c-3,0-5.22-1.32-5.22-4.55v-6.62h3v6.12c0,1.47.62,2.47,2.2,2.47s2.2-1,2.2-2.47v-6.12h3v6.62C65.95,138,63.67,139.3,60.7,139.3Z"/><path class="cls-1" d="M74.18,139.3a5.7,5.7,0,0,1-5.9-5.72,5.77,5.77,0,0,1,5.95-5.8,5.57,5.57,0,0,1,2.75.65v3a3.74,3.74,0,0,0-2.45-.92,3,3,0,1,0,0,6.07,3.68,3.68,0,0,0,2.45-.92v3A5.79,5.79,0,0,1,74.18,139.3Z"/><path class="cls-1" d="M84.6,139.3a5.7,5.7,0,0,1-5.9-5.72,5.77,5.77,0,0,1,5.95-5.8,5.57,5.57,0,0,1,2.75.65v3a3.74,3.74,0,0,0-2.45-.92,3,3,0,1,0,0,6.07,3.68,3.68,0,0,0,2.45-.92v3A5.79,5.79,0,0,1,84.6,139.3Z"/><path class="cls-1" d="M92.23,134c0,1.67.85,2.9,2.65,2.9a2.84,2.84,0,0,0,2.57-1.45l2.8.45a5.31,5.31,0,0,1-5.32,3.37,5.42,5.42,0,0,1-5.8-5.77,5.36,5.36,0,0,1,5.67-5.75c3.57,0,5.52,2.4,5.52,5.85v.4Zm2.62-4.1a2.46,2.46,0,0,0-2.52,2.17h5.12A2.51,2.51,0,0,0,94.85,129.93Zm0-3.7-1.42-1,3-3.77,2.2,1.4Z"/><path class="cls-1" d="M108.15,139.18h-1.4l-5.52-11h3.4l2.85,6.1,2.85-6.1h3.4Z"/><path class="cls-1" d="M116.68,125.38a1.82,1.82,0,1,1,0-3.65,1.82,1.82,0,0,1,0,3.65ZM115.15,139V128.13h3V139Z"/><path class="cls-1" d="M124.47,139.3a5.76,5.76,0,0,1-4.12-1.8l1.6-1.85a3.51,3.51,0,0,0,2.55,1.28,1.27,1.27,0,0,0,1.37-1.2c0-1.85-4.82-.92-4.82-4.57,0-2.2,1.82-3.42,3.87-3.42a5.58,5.58,0,0,1,3.52,1.15l-1.5,1.78a3,3,0,0,0-1.8-.73c-.52,0-1.15.33-1.15.92,0,1.58,5,.88,5,4.57C129,138,126.8,139.3,124.47,139.3Z"/><path class="cls-1" d="M138.55,139v-6c0-1.47-.32-2.6-2-2.6s-2.32,1.38-2.32,3V139h-3V128.13h3v1.32a4,4,0,0,1,3.4-1.67,3.74,3.74,0,0,1,4,4.3V139Z"/><path class="cls-1" d="M145.95,125.38a1.82,1.82,0,1,1,0-3.65,1.82,1.82,0,0,1,0,3.65ZM144.43,139V128.13h3V139Z"/><path class="cls-1" d="M157.7,139v-6c0-1.47-.32-2.6-2-2.6s-2.32,1.38-2.32,3V139h-3V128.13h3v1.32a4,4,0,0,1,3.4-1.67,3.74,3.74,0,0,1,4,4.3V139Z"/><path class="cls-1" d="M173.67,142.88a5.9,5.9,0,0,1-4.6,1.9c-2.77,0-5.45-1.6-5.75-4.55h3.27a2.41,2.41,0,0,0,2.57,2c1.9,0,2.67-1.33,2.67-3.07V137.5a4.5,4.5,0,0,1-3.65,1.8c-3.2,0-5.15-2.57-5.15-5.62s2-5.9,5.3-5.9a4.06,4.06,0,0,1,3.5,1.75v-1.4h3v10.42C174.9,140.25,174.82,141.53,173.67,142.88ZM169.2,130.5a3,3,0,1,0,3,3A3,3,0,0,0,169.2,130.5Z"/><path class="cls-1" d="M192.32,139v-1.42a4.18,4.18,0,0,1-3.52,1.77c-3.25,0-5.32-2.7-5.32-5.8s2.07-5.72,5.25-5.72a4.51,4.51,0,0,1,3.6,1.72v-1.37h3V139Zm-2.7-8.45a3,3,0,1,0,3,3A3,3,0,0,0,189.62,130.5Z"/><path class="cls-1" d="M203.77,139.18h-1.4l-5.52-11h3.4l2.85,6.1,2.85-6.1h3.4Z"/><path class="cls-1" d="M47.53,160.73V169h-3v-8.22H43.33v-2.6H44.5v-3.47a5.27,5.27,0,0,1,.47-2.55,4.28,4.28,0,0,1,3.75-2.17,3.58,3.58,0,0,1,1.6.38v2.77a3,3,0,0,0-1.37-.4c-1.35,0-1.42,1.4-1.42,2.42v3h2.8v2.6Z"/><path class="cls-1" d="M58.8,160.88a2.67,2.67,0,0,0-1.45-.37c-2,0-2.6,1.45-2.6,3.25V169h-3V158.13h3v1.62A3.53,3.53,0,0,1,59.23,158Z"/><path class="cls-1" d="M69,169v-1.42a4.18,4.18,0,0,1-3.52,1.77c-3.25,0-5.32-2.7-5.32-5.8s2.07-5.72,5.25-5.72A4.51,4.51,0,0,1,69,159.5v-1.37h3V169Zm-2.7-8.45a3,3,0,1,0,3,3A3,3,0,0,0,66.3,160.5Z"/><path class="cls-1" d="M88.77,169V163c0-1.27-.2-2.67-1.8-2.67-1.77,0-2.07,1.63-2.07,3V169h-3V163.2a4.82,4.82,0,0,0-.23-1.8,1.75,1.75,0,0,0-1.62-1,2,2,0,0,0-1.7,1A4.49,4.49,0,0,0,78,163.4V169H75V158.13h3v1.22a4.15,4.15,0,0,1,3.3-1.58,3.68,3.68,0,0,1,3.37,2,4,4,0,0,1,3.55-2,3.56,3.56,0,0,1,3,1.55A4.77,4.77,0,0,1,91.8,162v7Z"/><path class="cls-1" d="M97.75,160.73V169h-3v-8.22h-1.2v-2.6h1.2v-3.7h3v3.7h2.12v2.6Z"/><path class="cls-1" d="M102.93,155.38a1.82,1.82,0,1,1,0-3.65,1.82,1.82,0,0,1,0,3.65ZM101.4,169V158.13h3V169Z"/><path class="cls-1" d="M115.55,169v-1.42A4.18,4.18,0,0,1,112,169.3c-3.25,0-5.32-2.7-5.32-5.8s2.07-5.72,5.25-5.72a4.51,4.51,0,0,1,3.6,1.72v-9.27h3V169Zm-2.7-8.45a3,3,0,1,0,3,3A3,3,0,0,0,112.85,160.5Z"/><path class="cls-1" d="M124,164c0,1.67.85,2.9,2.65,2.9a2.84,2.84,0,0,0,2.57-1.45l2.8.45a5.31,5.31,0,0,1-5.32,3.37,5.42,5.42,0,0,1-5.8-5.77,5.36,5.36,0,0,1,5.67-5.75c3.57,0,5.52,2.4,5.52,5.85v.4Zm2.62-4.1a2.46,2.46,0,0,0-2.52,2.17h5.12A2.51,2.51,0,0,0,126.65,159.93Z"/><path class="cls-1" d="M141.85,169v-6c0-1.47-.32-2.6-2-2.6s-2.32,1.38-2.32,3V169h-3V158.13h3v1.32a4,4,0,0,1,3.4-1.67,3.74,3.74,0,0,1,4,4.3V169Z"/><path class="cls-1" d="M151.22,169.3a5.76,5.76,0,0,1-4.12-1.8l1.6-1.85a3.51,3.51,0,0,0,2.55,1.28,1.27,1.27,0,0,0,1.37-1.2c0-1.85-4.82-.92-4.82-4.57,0-2.2,1.82-3.42,3.87-3.42a5.58,5.58,0,0,1,3.52,1.15l-1.5,1.78a3,3,0,0,0-1.8-.73c-.52,0-1.15.33-1.15.92,0,1.58,5,.88,5,4.57C155.75,168,153.55,169.3,151.22,169.3Z"/><path class="cls-1" d="M169.65,169.18h-1.4l-5.52-11h3.4l2.85,6.1,2.85-6.1h3.4Z"/><path class="cls-1" d="M178.17,155.38a1.82,1.82,0,1,1,0-3.65,1.82,1.82,0,0,1,0,3.65ZM176.65,169V158.13h3V169Z"/><path class="cls-1" d="M182.52,169V150.23h3V169Z"/><path class="cls-1" d="M188.45,169V150.23h3V169Z"/><path class="cls-1" d="M202.65,169v-1.42a4.18,4.18,0,0,1-3.52,1.77c-3.25,0-5.32-2.7-5.32-5.8s2.07-5.72,5.25-5.72a4.51,4.51,0,0,1,3.6,1.72v-1.37h3V169Zm-2.7-8.45a3,3,0,1,0,3,3A3,3,0,0,0,199.95,160.5Z"/></svg>