<svg id="Layer_1" data-name="Layer 1" xmlns="http://www.w3.org/2000/svg" viewBox="0 0 320 320"><defs><style>.cls-1{fill:#d80201;}</style></defs><title>text</title><path class="cls-1" d="M52.58,107.27v5.18h7.32v4H52.58v10.26H48V103.32H60.38v4Z"/><path class="cls-1" d="M71.58,127.16c-4.83,0-8.68-3-8.68-8.05S66.75,111,71.62,111s8.61,3,8.61,8.05S76.38,127.16,71.58,127.16Zm0-12.32a4.25,4.25,0,1,0,4.31,4.27A4.29,4.29,0,0,0,71.55,114.84Z"/><path class="cls-1" d="M93.39,115.36a3.74,3.74,0,0,0-2-.52c-2.87,0-3.64,2-3.64,4.55v7.28H83.48V111.51h4.24v2.28A4.94,4.94,0,0,1,94,111.37Z"/><path class="cls-1" d="M115.44,126.67v-8.3c0-1.79-.28-3.75-2.52-3.75-2.49,0-2.91,2.28-2.91,4.27v7.77h-4.24v-8.05a6.75,6.75,0,0,0-.32-2.52,2.45,2.45,0,0,0-2.28-1.47,2.76,2.76,0,0,0-2.38,1.37,6.29,6.29,0,0,0-.49,2.91v7.77H96.08V111.51h4.24v1.72a5.82,5.82,0,0,1,4.62-2.21,5.15,5.15,0,0,1,4.73,2.77,5.6,5.6,0,0,1,5-2.77,5,5,0,0,1,4.24,2.17,6.68,6.68,0,0,1,.81,3.68v9.8Z"/><path class="cls-1" d="M135.32,126.67v-2a5.86,5.86,0,0,1-4.94,2.49c-4.55,0-7.46-3.78-7.46-8.12s2.91-8,7.35-8a6.32,6.32,0,0,1,5,2.42v-1.93h4.27v15.16Zm-3.78-11.83a4.25,4.25,0,1,0,4.24,4.24A4.23,4.23,0,0,0,131.54,114.84Z"/><path class="cls-1" d="M162.76,126.67v-8.3c0-2.1-.46-3.75-2.91-3.75-2.62,0-3.22,2-3.22,4.27v7.77H152.4V100.45h4.24v13a5.52,5.52,0,0,1,4.76-2.45,5.79,5.79,0,0,1,4.41,1.85,6,6,0,0,1,1.19,4.27v9.52Z"/><path class="cls-1" d="M178.37,127.16c-4.17,0-7.32-1.86-7.32-6.37v-9.28h4.24v8.58c0,2.06.88,3.47,3.08,3.47s3.08-1.4,3.08-3.47v-8.58h4.27v9.28C185.72,125.3,182.53,127.16,178.37,127.16Z"/><path class="cls-1" d="M194.61,127.16a8.06,8.06,0,0,1-5.78-2.52l2.24-2.59a4.92,4.92,0,0,0,3.57,1.79,1.79,1.79,0,0,0,1.93-1.68c0-2.59-6.76-1.29-6.76-6.41,0-3.08,2.55-4.8,5.43-4.8a7.81,7.81,0,0,1,4.94,1.61l-2.1,2.49a4.23,4.23,0,0,0-2.52-1c-.74,0-1.61.46-1.61,1.29,0,2.21,7,1.23,7,6.41C200.94,125.27,197.86,127.16,194.61,127.16Z"/><path class="cls-1" d="M207.49,119.77c.07,2.35,1.19,4.06,3.71,4.06a4,4,0,0,0,3.6-2l3.92.63c-1.33,3.26-4,4.73-7.46,4.73-4.9,0-8.12-3.15-8.12-8.09s3.08-8.05,7.95-8.05,7.74,3.36,7.74,8.19v.56Zm3.68-5.74a3.44,3.44,0,0,0-3.54,3h7.17A3.51,3.51,0,0,0,211.16,114Z"/><path class="cls-1" d="M226.35,115.15v11.52h-4.24V115.15h-1.68v-3.64h1.68v-5.18h4.24v5.18h3v3.64Z"/><path class="cls-1" d="M242.35,107.66a2.56,2.56,0,1,1,0-5.11,2.56,2.56,0,0,1,0,5.11Zm-2.14,19V111.51h4.24v15.16Z"/><path class="cls-1" d="M55.87,169.67H48V146.32H53.8c1.89,0,4.2.18,5.71,1.4a6.24,6.24,0,0,1,2.1,4.8,4.89,4.89,0,0,1-2.56,4.69,5.32,5.32,0,0,1,3,1.47,6.28,6.28,0,0,1,1.68,4.38C63.78,167.71,60.07,169.67,55.87,169.67Zm-2-19.64H52.58v6h1.29c2,0,3.54-.81,3.54-3S55.94,150,53.91,150Zm.77,9.49h-2.1V166h2c2.24,0,4.55-.53,4.55-3.25S56.85,159.52,54.68,159.52Z"/><path class="cls-1" d="M71.72,177.79h-4.8l5.57-10.4-7.18-12.88h4.94l4.55,8.61,4.34-8.61H84Z"/><path class="cls-1" d="M100.11,175.16a8.26,8.26,0,0,1-6.44,2.66c-3.89,0-7.63-2.24-8.05-6.37H90.2a3.37,3.37,0,0,0,3.61,2.76c2.66,0,3.75-1.85,3.75-4.3v-2.28a6.3,6.3,0,0,1-5.11,2.52c-4.48,0-7.21-3.61-7.21-7.88S88,154,92.65,154a5.68,5.68,0,0,1,4.9,2.45v-2h4.27v14.6C101.82,171.49,101.72,173.27,100.11,175.16Zm-6.27-17.33a4.25,4.25,0,1,0,4.24,4.24A4.23,4.23,0,0,0,93.84,157.84Z"/><path class="cls-1" d="M120,175.16a8.26,8.26,0,0,1-6.44,2.66c-3.89,0-7.63-2.24-8.05-6.37H110a3.37,3.37,0,0,0,3.61,2.76c2.66,0,3.75-1.85,3.75-4.3v-2.28a6.3,6.3,0,0,1-5.11,2.52c-4.48,0-7.21-3.61-7.21-7.88s2.8-8.26,7.42-8.26a5.68,5.68,0,0,1,4.9,2.45v-2h4.27v14.6C121.67,171.49,121.56,173.27,120,175.16Zm-6.27-17.33a4.25,4.25,0,1,0,4.24,4.24A4.23,4.23,0,0,0,113.69,157.84Z"/><path class="cls-1" d="M142.35,170.16c-4.83,0-8.68-3-8.68-8.05s3.85-8.08,8.72-8.08,8.61,3,8.61,8.05S147.15,170.16,142.35,170.16Zm0-12.32a4.25,4.25,0,1,0,4.31,4.27A4.29,4.29,0,0,0,142.32,157.84Z"/><path class="cls-1" d="M164.61,169.67v-8.4c0-2.06-.46-3.64-2.87-3.64-2.63,0-3.26,1.93-3.26,4.2v7.84h-4.24V154.51h4.24v1.86a5.6,5.6,0,0,1,4.76-2.35,5.23,5.23,0,0,1,5.6,6v9.63Z"/><path class="cls-1" d="M172.91,169.67V143.45h4.24v26.22Z"/><path class="cls-1" d="M183.27,150.66a2.56,2.56,0,1,1,0-5.11,2.56,2.56,0,0,1,0,5.11Zm-2.14,19V154.51h4.24v15.16Z"/><path class="cls-1" d="M199.72,169.67v-8.4c0-2.06-.46-3.64-2.87-3.64-2.63,0-3.26,1.93-3.26,4.2v7.84h-4.24V154.51h4.24v1.86a5.59,5.59,0,0,1,4.76-2.35,5.23,5.23,0,0,1,5.6,6v9.63Z"/><path class="cls-1" d="M211.55,162.77c.07,2.34,1.19,4.06,3.71,4.06a4,4,0,0,0,3.61-2l3.92.63c-1.33,3.25-4,4.73-7.46,4.73-4.9,0-8.12-3.15-8.12-8.09s3.08-8.05,7.95-8.05,7.74,3.36,7.74,8.19v.56Zm3.68-5.74a3.44,3.44,0,0,0-3.54,3h7.18A3.51,3.51,0,0,0,215.22,157Z"/><path class="cls-1" d="M242.77,170.16c-4.83,0-8.68-3-8.68-8.05s3.85-8.08,8.72-8.08,8.61,3,8.61,8.05S247.56,170.16,242.77,170.16Zm0-12.32a4.25,4.25,0,1,0,4.31,4.27A4.29,4.29,0,0,0,242.73,157.84Z"/><path class="cls-1" d="M262.12,170.16a8,8,0,0,1-8.26-8,8.09,8.09,0,0,1,8.33-8.12,7.8,7.8,0,0,1,3.85.91v4.2a5.23,5.23,0,0,0-3.43-1.29,4.25,4.25,0,1,0,0,8.51A5.16,5.16,0,0,0,266,165v4.17A8.11,8.11,0,0,1,262.12,170.16Z"/><path class="cls-1" d="M280.11,169.67v-8.3c0-2.1-.46-3.75-2.91-3.75-2.63,0-3.22,2-3.22,4.27v7.77h-4.24V143.45H274v13a5.52,5.52,0,0,1,4.76-2.45,5.79,5.79,0,0,1,4.41,1.85,6,6,0,0,1,1.19,4.27v9.52Z"/><path class="cls-1" d="M52.19,213.16a8.06,8.06,0,0,1-5.78-2.52L48.66,208a4.92,4.92,0,0,0,3.57,1.79,1.79,1.79,0,0,0,1.93-1.68c0-2.59-6.76-1.29-6.76-6.41,0-3.08,2.56-4.79,5.43-4.79a7.81,7.81,0,0,1,4.94,1.61L55.66,201a4.23,4.23,0,0,0-2.52-1c-.73,0-1.61.46-1.61,1.29,0,2.21,7,1.23,7,6.41C58.53,211.27,55.45,213.16,52.19,213.16Z"/><path class="cls-1" d="M65.07,205.77c.07,2.34,1.19,4.06,3.71,4.06a4,4,0,0,0,3.61-2l3.92.63c-1.33,3.25-4,4.73-7.46,4.73-4.9,0-8.12-3.15-8.12-8.09S63.81,197,68.68,197s7.74,3.36,7.74,8.19v.56ZM68.75,200a3.44,3.44,0,0,0-3.54,3h7.18A3.51,3.51,0,0,0,68.75,200Z"/><path class="cls-1" d="M97.73,213.16a6.07,6.07,0,0,1-5.08-2.49v10.08H88.42V197.51h4.24v1.93a6,6,0,0,1,5-2.42c4.52,0,7.49,3.75,7.49,8.08S102.17,213.16,97.73,213.16Zm-1.26-12.32a4.25,4.25,0,1,0,4.24,4.24A4.23,4.23,0,0,0,96.47,200.84Z"/><path class="cls-1" d="M118.24,201.36a3.75,3.75,0,0,0-2-.52c-2.87,0-3.64,2-3.64,4.55v7.28h-4.24V197.51h4.24v2.28a4.95,4.95,0,0,1,6.27-2.42Z"/><path class="cls-1" d="M123,193.66a2.56,2.56,0,0,1,0-5.11,2.56,2.56,0,0,1,0,5.11Zm-2.13,19V197.51h4.24v15.16Z"/><path class="cls-1" d="M133.92,213.16a8.06,8.06,0,0,1-5.78-2.52l2.24-2.59a4.92,4.92,0,0,0,3.57,1.79,1.78,1.78,0,0,0,1.92-1.68c0-2.59-6.75-1.29-6.75-6.41,0-3.08,2.55-4.79,5.42-4.79a7.81,7.81,0,0,1,4.94,1.61l-2.1,2.49a4.23,4.23,0,0,0-2.52-1c-.74,0-1.61.46-1.61,1.29,0,2.21,7,1.23,7,6.41C140.25,211.27,137.17,213.16,133.92,213.16Z"/><path class="cls-1" d="M146.8,205.77c.07,2.34,1.19,4.06,3.71,4.06a4,4,0,0,0,3.61-2l3.92.63c-1.33,3.25-4,4.73-7.46,4.73-4.9,0-8.12-3.15-8.12-8.09s3.08-8.05,7.95-8.05,7.74,3.36,7.74,8.19v.56Zm3.68-5.74a3.44,3.44,0,0,0-3.54,3h7.18A3.51,3.51,0,0,0,150.47,200Z"/><path class="cls-1" d="M165.66,201.15v11.52h-4.24V201.15h-1.68v-3.64h1.68v-5.18h4.24v5.18h3v3.64Z"/><path class="cls-1" d="M191.18,212.67v-2a5.86,5.86,0,0,1-4.94,2.49c-4.55,0-7.46-3.78-7.46-8.12s2.91-8,7.35-8a6.32,6.32,0,0,1,5,2.42v-13h4.27v26.22Zm-3.78-11.83a4.25,4.25,0,1,0,4.24,4.24A4.23,4.23,0,0,0,187.4,200.84Z"/><path class="cls-1" d="M201.57,193.66a2.56,2.56,0,0,1,0-5.11,2.56,2.56,0,0,1,0,5.11Zm-2.14,19V197.51h4.24v15.16Z"/><path class="cls-1" d="M217.57,201.36a3.75,3.75,0,0,0-2-.52c-2.87,0-3.64,2-3.64,4.55v7.28h-4.24V197.51h4.24v2.28a4.95,4.95,0,0,1,6.27-2.42Z"/><path class="cls-1" d="M223.79,205.77c.07,2.34,1.19,4.06,3.71,4.06a4,4,0,0,0,3.6-2l3.92.63c-1.33,3.25-4,4.73-7.46,4.73-4.9,0-8.12-3.15-8.12-8.09s3.08-8.05,7.95-8.05,7.74,3.36,7.74,8.19v.56Zm3.68-5.74a3.44,3.44,0,0,0-3.54,3h7.17A3.51,3.51,0,0,0,227.47,200Z"/><path class="cls-1" d="M248.79,212.67l-5.71-6.51-.46.46v6.06h-4.24V186.45h4.24V203l5.67-5.53H254l-7.11,6.65,7.67,8.51Z"/><path class="cls-1" d="M260.75,201.15v11.52h-4.24V201.15h-1.68v-3.64h1.68v-5.18h4.24v5.18h3v3.64Z"/><path class="cls-1" d="M268.28,213.12a2.73,2.73,0,1,1,2.73-2.73A2.73,2.73,0,0,1,268.28,213.12ZM266.11,206V189.32h4.34V206Z"/></svg>