<svg id="Layer_1" data-name="Layer 1" xmlns="http://www.w3.org/2000/svg" viewBox="0 0 250 360"><defs><style>.cls-1{fill:#d80201;}</style></defs><title>text</title><path class="cls-1" d="M67.93,174.52H66.21l-7.1-17.09h3.55l4.45,11.19,4.5-11.19h3.52Z"/><path class="cls-1" d="M83.61,174.1v-1.43a4.17,4.17,0,0,1-3.53,1.78c-3.24,0-5.32-2.7-5.32-5.8s2.08-5.73,5.25-5.73a4.51,4.51,0,0,1,3.6,1.73v-1.38h3V174.1Zm-2.7-8.45a3,3,0,1,0,3,3A3,3,0,0,0,80.91,165.65Z"/><path class="cls-1" d="M89.56,174.1V155.38h3V174.1Z"/><path class="cls-1" d="M98.61,165.87v8.23h-3v-8.23H94.41v-2.6h1.18V159.8a5.34,5.34,0,0,1,.47-2.55,4.28,4.28,0,0,1,3.75-2.17,3.61,3.61,0,0,1,1.6.37v2.78a2.94,2.94,0,0,0-1.37-.4c-1.35,0-1.43,1.4-1.43,2.42v3h2.8v2.6Z"/><path class="cls-1" d="M109.88,166a2.71,2.71,0,0,0-1.45-.37c-2,0-2.59,1.45-2.59,3.25v5.2h-3V163.27h3v1.63a3.47,3.47,0,0,1,3.14-2,3.57,3.57,0,0,1,1.33.25Z"/><path class="cls-1" d="M113.29,160.52a1.82,1.82,0,1,1,0-3.64,1.82,1.82,0,0,1,0,3.64Zm-1.53,13.58V163.27h3V174.1Z"/><path class="cls-1" d="M125.91,174.1v-1.43a4.18,4.18,0,0,1-3.53,1.78c-3.25,0-5.32-2.7-5.32-5.8s2.07-5.73,5.25-5.73a4.51,4.51,0,0,1,3.6,1.73v-1.38H129V174.1Zm-2.7-8.45a3,3,0,1,0,3,3A3,3,0,0,0,123.21,165.65Z"/><path class="cls-1" d="M141.16,165.87v8.23h-3v-8.23h-1.19v-2.6h1.19v-3.69h3v3.69h2.12v2.6Z"/><path class="cls-1" d="M146.33,160.52a1.82,1.82,0,1,1,1.8-1.82A1.83,1.83,0,0,1,146.33,160.52Zm-1.52,13.58V163.27h3V174.1Z"/><path class="cls-1" d="M150.68,174.1V155.38h3V174.1Z"/><path class="cls-1" d="M156.61,174.1V155.38h3V174.1Z"/><path class="cls-1" d="M168,174.32h-1.4l-5.52-11h3.4l2.85,6.1,2.85-6.1h3.4Z"/><path class="cls-1" d="M182.81,174.1v-1.43a4.18,4.18,0,0,1-3.53,1.78c-3.25,0-5.32-2.7-5.32-5.8s2.07-5.73,5.25-5.73a4.51,4.51,0,0,1,3.6,1.73v-1.38h3.05V174.1Zm-2.7-8.45a3,3,0,1,0,3,3A3,3,0,0,0,180.11,165.65Z"/><path class="cls-1" d="M188.76,174.1V155.38h3V174.1Z"/><path class="cls-1" d="M59.74,195.87v8.23h-3v-8.23H55.54v-2.6h1.17V189.8a5.23,5.23,0,0,1,.48-2.55,4.28,4.28,0,0,1,3.75-2.17,3.61,3.61,0,0,1,1.6.37v2.78a3,3,0,0,0-1.38-.4c-1.35,0-1.42,1.4-1.42,2.42v3h2.8v2.6Z"/><path class="cls-1" d="M69.56,204.45c-3.45,0-6.2-2.15-6.2-5.75s2.75-5.78,6.23-5.78,6.14,2.18,6.14,5.75S73,204.45,69.56,204.45Zm-2.62-13.2a1.8,1.8,0,1,1,0-3.6,1.8,1.8,0,1,1,0,3.6Zm2.6,4.4a3,3,0,1,0,3.07,3A3.06,3.06,0,0,0,69.54,195.65Zm2.59-4.4a1.82,1.82,0,0,1-1.79-1.8,1.8,1.8,0,1,1,1.79,1.8Z"/><path class="cls-1" d="M85.13,196a2.69,2.69,0,0,0-1.44-.37c-2,0-2.6,1.45-2.6,3.25v5.2h-3V193.27h3v1.63a3.47,3.47,0,0,1,3.15-2,3.56,3.56,0,0,1,1.32.25Z"/><path class="cls-1" d="M97.83,204.52a7.13,7.13,0,0,1-5.32-2.17l1.08-2.8a5.58,5.58,0,0,0,4.2,2.12,3.3,3.3,0,0,0,3.32-3.22,3.57,3.57,0,0,0-3.8-3.33,5.54,5.54,0,0,0-3.2,1h-.17l2-8.74h7.7v2.85h-5.5l-.65,2.57a10.2,10.2,0,0,1,1.22-.1,5.6,5.6,0,0,1,5.68,5.82C104.36,202.35,101.41,204.52,97.83,204.52Z"/><path class="cls-1" d="M113.11,204.52c-4.6,0-6.45-4.85-6.45-8.75s1.83-8.77,6.45-8.77,6.45,4.83,6.45,8.75S117.73,204.52,113.11,204.52Zm0-14.64c-2.55,0-3.2,3.94-3.2,5.87s.65,5.92,3.2,5.92,3.2-4,3.2-5.92S115.66,189.88,113.11,189.88Z"/><path class="cls-1" d="M133.53,204.52c-4.59,0-6.44-4.85-6.44-8.75s1.82-8.77,6.44-8.77,6.45,4.83,6.45,8.75S138.16,204.52,133.53,204.52Zm0-14.64c-2.54,0-3.2,3.94-3.2,5.87s.66,5.92,3.2,5.92,3.2-4,3.2-5.92S136.08,189.88,133.53,189.88Z"/><path class="cls-1" d="M147.71,204.52c-4.6,0-6.45-4.85-6.45-8.75s1.82-8.77,6.45-8.77,6.45,4.83,6.45,8.75S152.33,204.52,147.71,204.52Zm0-14.64c-2.55,0-3.2,3.94-3.2,5.87s.65,5.92,3.2,5.92,3.2-4,3.2-5.92S150.26,189.88,147.71,189.88Z"/><path class="cls-1" d="M161.88,204.52c-4.59,0-6.44-4.85-6.44-8.75s1.82-8.77,6.44-8.77,6.45,4.83,6.45,8.75S166.51,204.52,161.88,204.52Zm0-14.64c-2.55,0-3.2,3.94-3.2,5.87s.65,5.92,3.2,5.92,3.2-4,3.2-5.92S164.43,189.88,161.88,189.88Z"/><path class="cls-1" d="M184.11,204.1,180,199.45l-.32.32v4.33h-3V185.38h3v11.84l4-3.95h4.1L182.78,198l5.48,6.08Z"/><path class="cls-1" d="M196.68,196a2.71,2.71,0,0,0-1.45-.37c-2,0-2.6,1.45-2.6,3.25v5.2h-3V193.27h3v1.63a3.47,3.47,0,0,1,3.15-2,3.57,3.57,0,0,1,1.33.25Z"/></svg>