<svg id="Layer_1" data-name="Layer 1" xmlns="http://www.w3.org/2000/svg" viewBox="0 0 320 320"><defs><style>.cls-1{fill:#d80201;}</style></defs><title>text</title><path class="cls-1" d="M41.5,171.06a9.09,9.09,0,0,1-8-4.45l2.94-2.83a5.35,5.35,0,0,0,4.9,3.12,3.32,3.32,0,0,0,3.6-3.29c0-4.8-10.26-2.52-10.26-10,0-4.13,3.33-6.79,7.28-6.79a10.24,10.24,0,0,1,6.83,2.59l-2.38,3.12a4.72,4.72,0,0,0-3.78-1.89c-1.5,0-3.26.94-3.26,2.63,0,4,10.26,2,10.26,10.15C49.63,168.12,46.13,171.06,41.5,171.06Z"/><path class="cls-1" d="M57.78,159V170.5H53.54V159H51.86v-3.64h1.68v-5.18h4.24v5.18h3V159Z"/><path class="cls-1" d="M70.83,171c-4.83,0-8.68-3-8.68-8.05s3.85-8.08,8.72-8.08,8.61,3,8.61,8.05S75.63,171,70.83,171Zm0-12.32a4.25,4.25,0,1,0,4.31,4.27A4.29,4.29,0,0,0,70.8,158.67Z"/><path class="cls-1" d="M92.64,159.19a3.74,3.74,0,0,0-2-.52c-2.87,0-3.64,2-3.64,4.55v7.28H82.73V155.34H87v2.28a4.94,4.94,0,0,1,6.27-2.42Z"/><path class="cls-1" d="M111.78,170.81h-2l-7.74-15.47h4.76l4,8.54,4-8.54h4.76Z"/><path class="cls-1" d="M133.24,170.5v-2A5.86,5.86,0,0,1,128.3,171c-4.55,0-7.46-3.78-7.46-8.12s2.91-8,7.35-8a6.32,6.32,0,0,1,5,2.42v-1.93h4.27V170.5Zm-3.78-11.83a4.25,4.25,0,1,0,4.24,4.24A4.23,4.23,0,0,0,129.46,158.67Zm-.59-6a3.15,3.15,0,1,1,0-6.3,3.15,3.15,0,0,1,0,6.3Zm0-4.38a1.23,1.23,0,1,0,1.23,1.23A1.2,1.2,0,0,0,128.86,148.31Z"/><path class="cls-1" d="M151.47,159.19a3.74,3.74,0,0,0-2-.52c-2.87,0-3.64,2-3.64,4.55v7.28h-4.24V155.34h4.24v2.28a4.94,4.94,0,0,1,6.27-2.42Z"/><path class="cls-1" d="M164.56,170.5,158.86,164l-.46.46v6.06h-4.24V144.28h4.24v16.59l5.67-5.53h5.74L162.71,162l7.67,8.51Z"/><path class="cls-1" d="M183,170.5v-2a5.86,5.86,0,0,1-4.94,2.49c-4.55,0-7.46-3.78-7.46-8.12s2.91-8,7.35-8a6.32,6.32,0,0,1,5,2.42v-1.93h4.27V170.5Zm-3.78-11.83a4.25,4.25,0,1,0,4.24,4.24A4.23,4.23,0,0,0,179.26,158.67Z"/><path class="cls-1" d="M210.73,170.5v-8.3c0-1.79-.28-3.75-2.52-3.75-2.49,0-2.91,2.28-2.91,4.27v7.77h-4.24v-8.05a6.75,6.75,0,0,0-.32-2.52,2.45,2.45,0,0,0-2.28-1.47,2.76,2.76,0,0,0-2.38,1.37,6.29,6.29,0,0,0-.49,2.9v7.77h-4.24V155.34h4.24v1.72a5.82,5.82,0,0,1,4.62-2.21,5.15,5.15,0,0,1,4.73,2.77,5.61,5.61,0,0,1,5-2.77,5,5,0,0,1,4.24,2.17,6.68,6.68,0,0,1,.81,3.68v9.8Z"/><path class="cls-1" d="M228.33,171a6.06,6.06,0,0,1-5.08-2.49v10.08H219V155.34h4.24v1.93a6,6,0,0,1,5-2.42c4.52,0,7.49,3.75,7.49,8.08S232.78,171,228.33,171Zm-1.26-12.32a4.25,4.25,0,1,0,4.24,4.24A4.23,4.23,0,0,0,227.07,158.67Z"/><path class="cls-1" d="M250.52,170.5v-2a5.86,5.86,0,0,1-4.94,2.49c-4.55,0-7.46-3.78-7.46-8.12s2.91-8,7.35-8a6.32,6.32,0,0,1,5,2.42v-1.93h4.27V170.5Zm-3.78-11.83A4.25,4.25,0,1,0,251,162.9,4.23,4.23,0,0,0,246.74,158.67Z"/><path class="cls-1" d="M269.21,170.5v-8.4c0-2.06-.46-3.64-2.87-3.64-2.63,0-3.26,1.93-3.26,4.2v7.84h-4.24V155.34h4.24v1.86a5.59,5.59,0,0,1,4.76-2.35,5.23,5.23,0,0,1,5.6,6v9.63Z"/><path class="cls-1" d="M279.57,151.49a2.56,2.56,0,1,1,0-5.11,2.56,2.56,0,0,1,0,5.11Zm-2.14,27.09V155.34h4.24v23.24Z"/></svg>