<svg xmlns="http://www.w3.org/2000/svg" viewBox="0 0 146.08 17.7"><defs><style>.cls-1{fill:#fff;}</style></defs><title>Asset 1a</title><g id="Layer_2" data-name="Layer 2"><g id="Layer_1-2" data-name="Layer 1"><path class="cls-1" d="M.48,6.68H3.4l1,4.6c.16,1,.28,1.94.44,2.94h.08c.18-1,.34-2,.58-2.94l1.1-4.6H9.1l1.12,4.6c.24,1,.42,1.94.62,2.94h.08c.18-1,.28-2,.46-2.94l.94-4.6H15L12.66,16.6H9.22l-.9-4c-.2-.92-.36-1.84-.54-2.9H7.7c-.18,1.06-.32,2-.5,2.9l-.88,4H3Z" transform="translate(-0.48 -2.58)"/><path class="cls-1" d="M16,6.68h2.92l1,4.6c.16,1,.28,1.94.44,2.94h.08c.18-1,.34-2,.58-2.94l1.1-4.6h2.54l1.12,4.6c.24,1,.42,1.94.62,2.94h.08c.18-1,.28-2,.46-2.94l.94-4.6h2.72L28.18,16.6H24.74l-.9-4c-.2-.92-.36-1.84-.54-2.9h-.08c-.18,1.06-.32,2-.5,2.9l-.88,4H18.48Z" transform="translate(-0.48 -2.58)"/><path class="cls-1" d="M31.52,6.68h2.92l1,4.6c.16,1,.28,1.94.44,2.94h.08c.18-1,.34-2,.58-2.94l1.1-4.6h2.54l1.12,4.6c.24,1,.42,1.94.62,2.94H42c.18-1,.28-2,.46-2.94l.94-4.6h2.72L43.7,16.6H40.26l-.9-4c-.2-.92-.36-1.84-.54-2.9h-.08c-.18,1.06-.32,2-.5,2.9l-.88,4H34Z" transform="translate(-0.48 -2.58)"/><path class="cls-1" d="M47.9,13.14A1.85,1.85,0,1,1,46.12,15,1.78,1.78,0,0,1,47.9,13.14Z" transform="translate(-0.48 -2.58)"/><path class="cls-1" d="M55.14,17.38v2.9H52.2V6.68h2.4l.2,1h.08A4.36,4.36,0,0,1,57.7,6.44c2.4,0,3.88,2,3.88,5,0,3.4-2,5.36-4.18,5.36a3.44,3.44,0,0,1-2.36-1Zm1.58-2.94c1,0,1.84-.88,1.84-2.92,0-1.78-.54-2.68-1.72-2.68a2.29,2.29,0,0,0-1.7.9V13.8A2.28,2.28,0,0,0,56.72,14.44Z" transform="translate(-0.48 -2.58)"/><path class="cls-1" d="M67.92,6.44a4.86,4.86,0,0,1,4.82,5.2,4.84,4.84,0,1,1-9.66,0A4.86,4.86,0,0,1,67.92,6.44Zm0,8c1.2,0,1.82-1.1,1.82-2.82s-.62-2.82-1.82-2.82-1.82,1.1-1.82,2.82S66.7,14.46,67.92,14.46Z" transform="translate(-0.48 -2.58)"/><path class="cls-1" d="M73.78,6.68H76.7l1,4.6c.16,1,.28,1.94.44,2.94h.08c.18-1,.34-2,.58-2.94l1.1-4.6H82.4l1.12,4.6c.24,1,.42,1.94.62,2.94h.08c.18-1,.28-2,.46-2.94l.94-4.6h2.72L86,16.6H82.52l-.9-4c-.2-.92-.36-1.84-.54-2.9H81c-.18,1.06-.32,2-.5,2.9l-.88,4H76.26Z" transform="translate(-0.48 -2.58)"/><path class="cls-1" d="M94.06,6.44c2.82,0,4.22,2.06,4.22,4.76a5.82,5.82,0,0,1-.12,1.24H92.22A2.4,2.4,0,0,0,94.8,14.6a4,4,0,0,0,2.14-.66l1,1.78a6.49,6.49,0,0,1-3.52,1.12,4.84,4.84,0,0,1-5-5.2A4.87,4.87,0,0,1,94.06,6.44Zm1.72,4.18c0-1.14-.48-1.94-1.66-1.94-.92,0-1.72.62-1.92,1.94Z" transform="translate(-0.48 -2.58)"/><path class="cls-1" d="M100.32,2.58h2.94V13.64c0,.62.28.82.52.82a1.23,1.23,0,0,0,.36,0l.36,2.18a3.83,3.83,0,0,1-1.48.24c-2,0-2.7-1.32-2.7-3.32Z" transform="translate(-0.48 -2.58)"/><path class="cls-1" d="M107.74,13.14A1.85,1.85,0,1,1,106,15,1.78,1.78,0,0,1,107.74,13.14Z" transform="translate(-0.48 -2.58)"/><path class="cls-1" d="M116.62,6.44a4,4,0,0,1,2.9,1.14L118.18,9.4a2.12,2.12,0,0,0-1.38-.58c-1.42,0-2.32,1.1-2.32,2.82s.94,2.82,2.22,2.82a2.86,2.86,0,0,0,1.78-.72l1.18,1.86a5.15,5.15,0,0,1-3.3,1.24c-2.76,0-4.9-1.9-4.9-5.2A5,5,0,0,1,116.62,6.44Z" transform="translate(-0.48 -2.58)"/><path class="cls-1" d="M125.08,6.44a4.86,4.86,0,0,1,4.82,5.2,4.84,4.84,0,1,1-9.66,0A4.86,4.86,0,0,1,125.08,6.44Zm0,8c1.2,0,1.82-1.1,1.82-2.82s-.62-2.82-1.82-2.82-1.82,1.1-1.82,2.82S123.86,14.46,125.08,14.46Z" transform="translate(-0.48 -2.58)"/><path class="cls-1" d="M131.92,6.68h2.4l.2,1.28h.08a4.15,4.15,0,0,1,3-1.52,2.74,2.74,0,0,1,2.74,1.66,4.35,4.35,0,0,1,3.12-1.66c2.14,0,3.1,1.52,3.1,4V16.6h-2.94V10.82c0-1.44-.38-1.88-1.22-1.88a2.62,2.62,0,0,0-1.7,1v6.7h-2.94V10.82c0-1.44-.38-1.88-1.22-1.88a2.59,2.59,0,0,0-1.68,1v6.7h-2.94Z" transform="translate(-0.48 -2.58)"/></g></g></svg>