<svg id="Layer_1" data-name="Layer 1" xmlns="http://www.w3.org/2000/svg" viewBox="0 0 300 250"><defs><style>.cls-1{fill:#d4ac76;}</style></defs><title>text</title><path class="cls-1" d="M41.49,44.18v-17h5.59a5.13,5.13,0,0,1,3.72,1.42,4.7,4.7,0,0,1,1.47,3.51,4,4,0,0,1-1.91,3.42A4.76,4.76,0,0,1,52.25,37,3.64,3.64,0,0,1,53,39.2a4.66,4.66,0,0,1-1.49,3.61,5.33,5.33,0,0,1-3.75,1.37ZM46.71,30H44.44v4.27H47a2.34,2.34,0,0,0,1.69-.63,2.1,2.1,0,0,0,.65-1.57,1.81,1.81,0,0,0-.72-1.5A3,3,0,0,0,46.71,30Zm.49,6.82H44.44v4.51h2.69a2.73,2.73,0,0,0,1.92-.64,2.14,2.14,0,0,0,.71-1.65,2.1,2.1,0,0,0-.66-1.61A2.7,2.7,0,0,0,47.2,36.83Z"/><path class="cls-1" d="M75.08,35.67A8.84,8.84,0,0,1,60,41.89a8.81,8.81,0,0,1,0-12.46,8.83,8.83,0,0,1,15.08,6.24Zm-12.83,4a5.57,5.57,0,0,0,8,0,5.84,5.84,0,0,0,0-8.14,5.59,5.59,0,0,0-8,0,5.87,5.87,0,0,0,0,8.14Z"/><path class="cls-1" d="M80.52,44.18v-17h3v7.5L90,27.17h3.94l-6,6.79,6.14,10.22H90.37l-4.63-7.76L83.47,39v5.19Z"/><path class="cls-1" d="M97.7,44.18l6.56-17h2.88l6.53,17h-3.28l-.9-2.35h-7.61l-.9,2.35Zm8-12.25L103,39h5.42Z"/><path class="cls-1" d="M127.82,44.18v-17h3.08l5.25,8.39,5.33-8.39h3.34v17h-3.19V32.54l-.25,0-5.28,8.15-5.14-8h0V44.18Z"/><path class="cls-1" d="M167.73,35.67a8.84,8.84,0,1,1-15.09-6.24,8.84,8.84,0,0,1,15.09,6.24Zm-12.84,4a5.33,5.33,0,0,0,4,1.69,5.39,5.39,0,0,0,4-1.69,5.84,5.84,0,0,0,0-8.14,5.42,5.42,0,0,0-4-1.68,5.36,5.36,0,0,0-4,1.68,5.87,5.87,0,0,0,0,8.14Zm2.51-14.3a1.35,1.35,0,0,1-1,.46,1.38,1.38,0,0,1-1.05-.46,1.52,1.52,0,0,1,1.05-2.6,1.37,1.37,0,0,1,1,.44,1.47,1.47,0,0,1,.44,1.08A1.54,1.54,0,0,1,157.4,25.42Zm5.06,0a1.54,1.54,0,0,1-1.13.46,1.52,1.52,0,0,1-1.12-.46,1.45,1.45,0,0,1-.47-1.08,1.42,1.42,0,0,1,.47-1.08,1.54,1.54,0,0,1,1.12-.44,1.56,1.56,0,0,1,1.13.44,1.42,1.42,0,0,1,.47,1.08A1.45,1.45,0,0,1,162.46,25.42Z"/><path class="cls-1" d="M170.78,30.23V27.17h14v3.06h-5.42v14H176.2V30.23Z"/><path class="cls-1" d="M198.9,37h-6.29v4.35h6.91v2.84h-10.1v-17h9.9V30h-6.71v4.14h6.29Z"/><path class="cls-1" d="M231.33,35.67a8.84,8.84,0,1,1-15.08-6.24,8.84,8.84,0,0,1,15.08,6.24Zm-12.84,4a5.33,5.33,0,0,0,4,1.69,5.39,5.39,0,0,0,4-1.69,5.84,5.84,0,0,0,0-8.14,5.42,5.42,0,0,0-4-1.68,5.36,5.36,0,0,0-4,1.68,5.87,5.87,0,0,0,0,8.14Z"/><path class="cls-1" d="M251.37,41.78a8.83,8.83,0,0,1-12.58.11,8.8,8.8,0,0,1,0-12.47,8.86,8.86,0,0,1,12.56.06l-2.25,2.18a5.33,5.33,0,0,0-4-1.76,5.39,5.39,0,0,0-4,1.68,5.87,5.87,0,0,0,0,8.14,5.61,5.61,0,0,0,8.11-.09Z"/><path class="cls-1" d="M267,44.18V37.07h-7.28v7.11h-3.19v-17h3.19V34H267V27.17h3.19v17Z"/><path class="cls-1" d="M19.87,62.18V50.58h6.32v1.94H22.05v3.16h3.69v1.94H22.05v4.56Z"/><path class="cls-1" d="M41.13,56.37a6,6,0,0,1-6,6,6,6,0,1,1,6-6Zm-8.76,2.77a3.82,3.82,0,0,0,5.46,0,4,4,0,0,0,0-5.55,3.82,3.82,0,0,0-5.46,0,4,4,0,0,0,0,5.55Zm1.72-9.75a.93.93,0,0,1-.71.31,1,1,0,0,1-.72-.31,1,1,0,0,1-.29-.74,1,1,0,0,1,.28-.74,1.06,1.06,0,0,1,.73-.3,1,1,0,0,1,.7.3,1,1,0,0,1,.3.74A1,1,0,0,1,34.09,49.39Zm3.45,0a1.06,1.06,0,0,1-.77.31,1,1,0,0,1-.77-.31,1,1,0,0,1,0-1.48,1.08,1.08,0,0,1,.77-.3,1.1,1.1,0,0,1,.77.3,1,1,0,0,1,0,1.48Z"/><path class="cls-1" d="M44.83,62.18V50.58h4.54a3.91,3.91,0,0,1,2.79,1.06,3.62,3.62,0,0,1,1.12,2.75,3.47,3.47,0,0,1-.84,2.35A3.73,3.73,0,0,1,50.28,58l3.12,4.21H51l-3-4.14H47v4.14ZM49,52.52H47V56.3h2a2.17,2.17,0,0,0,1.51-.51,1.76,1.76,0,0,0,.56-1.34,1.82,1.82,0,0,0-.58-1.38A2,2,0,0,0,49,52.52Z"/><path class="cls-1" d="M60.05,62.18l-4.43-11.6h2.26l3.18,8.34,3.15-8.34h2.2L62,62.18Z"/><path class="cls-1" d="M76,57.27H71.7v3h4.71v1.94H69.52V50.58h6.75v1.94H71.7v2.82H76Z"/><path class="cls-1" d="M80.31,62.18V50.58h4.53a3.91,3.91,0,0,1,2.79,1.06,3.59,3.59,0,0,1,1.12,2.75,3.52,3.52,0,0,1-.83,2.35A3.76,3.76,0,0,1,85.76,58l3.11,4.21H86.43l-3-4.14h-.94v4.14Zm4.2-9.66h-2V56.3h2a2.13,2.13,0,0,0,1.5-.51,1.73,1.73,0,0,0,.57-1.34A1.86,1.86,0,0,0,86,53.07,2.06,2.06,0,0,0,84.51,52.52Z"/><path class="cls-1" d="M92.52,62.18V50.58h2V55.7L99,50.58h2.68l-4.09,4.63,4.18,7h-2.5l-3.16-5.29-1.55,1.75v3.54Z"/><path class="cls-1" d="M105.19,62.18V50.58h2.18v9.51h4.26v2.09Z"/><path class="cls-1" d="M115.14,62.18V50.58h2.17v11.6Z"/><path class="cls-1" d="M128.91,57.33V55.4h4.15v1a6,6,0,0,1-.85,3.07A5.86,5.86,0,0,1,130,61.6a6,6,0,0,1-3,.76,6,6,0,1,1,0-12,5.71,5.71,0,0,1,4.32,1.87l-1.49,1.47a3.74,3.74,0,0,0-2.85-1.26,3.67,3.67,0,0,0-2.77,1.14,4.1,4.1,0,0,0,0,5.59,3.55,3.55,0,0,0,2.64,1.13,4.09,4.09,0,0,0,2.58-.8,3.68,3.68,0,0,0,1.36-2.14Z"/><path class="cls-1" d="M135,62.18l4.47-11.6h2l4.46,11.6h-2.24l-.61-1.61h-5.19l-.62,1.61Zm5.45-8.35-1.85,4.81h3.69Z"/><path class="cls-1" d="M162.7,62.18V57.33h-5v4.85h-2.18V50.58h2.18v4.67h5V50.58h2.18v11.6Z"/><path class="cls-1" d="M176.75,61.14a4.74,4.74,0,0,1-6.35,0,4.14,4.14,0,0,1-1.25-3.07V50.58h2.18v7.21a2.62,2.62,0,0,0,.59,1.78,2.32,2.32,0,0,0,3.31,0,2.6,2.6,0,0,0,.6-1.77V50.58H178v7.49A4.14,4.14,0,0,1,176.75,61.14Z"/><path class="cls-1" d="M185.39,62.33a5.49,5.49,0,0,1-2.19-.46,5.68,5.68,0,0,1-1.88-1.27L182.7,59A4.21,4.21,0,0,0,184,60a3.27,3.27,0,0,0,1.53.4,1.89,1.89,0,0,0,1.23-.39,1.25,1.25,0,0,0,.48-1A1.71,1.71,0,0,0,186,57.39l-1.29-.52a5,5,0,0,1-1.93-1.28,3,3,0,0,1-.62-2,3,3,0,0,1,1-2.2,3.36,3.36,0,0,1,2.46-1,5,5,0,0,1,3.57,1.32l-1.28,1.62a3,3,0,0,0-2.29-1,1.57,1.57,0,0,0-1,.34,1,1,0,0,0-.39.82,1.06,1.06,0,0,0,.31.79,2.92,2.92,0,0,0,1,.6l1.35.54a3.59,3.59,0,0,1,2.63,3.35,3.22,3.22,0,0,1-1.09,2.53A4.23,4.23,0,0,1,185.39,62.33Z"/><path class="cls-1" d="M193.09,62.18V50.58h3.31a5.68,5.68,0,0,1,4.1,1.66,5.59,5.59,0,0,1,1.71,4.18,5.43,5.43,0,0,1-1.73,4.14,5.91,5.91,0,0,1-4.2,1.62Zm3.33-9.66H195.1v7.72h1.34A3.32,3.32,0,0,0,199,59.12a3.93,3.93,0,0,0,1-2.76,3.81,3.81,0,0,0-1-2.74A3.42,3.42,0,0,0,196.42,52.52Z"/><path class="cls-1" d="M206,62.18V50.58h4.53a3.91,3.91,0,0,1,2.79,1.06,3.59,3.59,0,0,1,1.12,2.75,3.52,3.52,0,0,1-.83,2.35A3.76,3.76,0,0,1,211.43,58l3.11,4.21H212.1l-3-4.14h-.94v4.14Zm4.2-9.66h-2V56.3h2a2.13,2.13,0,0,0,1.5-.51,1.73,1.73,0,0,0,.57-1.34,1.86,1.86,0,0,0-.58-1.38A2.06,2.06,0,0,0,210.18,52.52Z"/><path class="cls-1" d="M229.63,56.37a6,6,0,1,1-1.76-4.25A5.8,5.8,0,0,1,229.63,56.37Zm-8.75,2.77a3.63,3.63,0,0,0,2.72,1.15,3.66,3.66,0,0,0,2.73-1.15,4,4,0,0,0,0-5.55,3.7,3.7,0,0,0-2.73-1.15,3.66,3.66,0,0,0-2.72,1.15,4,4,0,0,0,0,5.55Zm1.71-9.75a1,1,0,0,1-1.42,0,1,1,0,0,1-.3-.74,1,1,0,0,1,.29-.74,1,1,0,0,1,.72-.3.94.94,0,0,1,.7.3,1,1,0,0,1,.3.74A1,1,0,0,1,222.59,49.39Zm3.45,0a1,1,0,0,1-.77.31,1.06,1.06,0,0,1-.77-.31,1,1,0,0,1,0-1.48,1.1,1.1,0,0,1,.77-.3,1.08,1.08,0,0,1,.77.3,1,1,0,0,1,0,1.48Z"/><path class="cls-1" d="M233.33,62.18V50.58h2.11L239,56.3l3.63-5.72h2.28v11.6h-2.18V54.24l-.17,0L239,59.77l-3.5-5.48h0v7.89Z"/><path class="cls-1" d="M249.31,62.18V50.58h2.1L255,56.3l3.63-5.72h2.28v11.6h-2.18V54.24l-.17,0L255,59.77l-3.51-5.48h0v7.89Z"/><path class="cls-1" d="M271.75,57.27h-4.29v3h4.71v1.94h-6.88V50.58H272v1.94h-4.58v2.82h4.29Z"/><path class="cls-1" d="M276.07,62.18V50.58h1.52l5.71,7.3v-7.3h2.18v11.6H284l-5.77-7.38v7.38Z"/></svg>