<svg id="Layer_1" data-name="Layer 1" xmlns="http://www.w3.org/2000/svg" viewBox="0 0 300 250"><defs><style>.cls-1{fill:#d4ac76;}</style></defs><title>text</title><path class="cls-1" d="M92.37,169.67v-8.89H95.3a2.65,2.65,0,0,1,1.94.74,2.45,2.45,0,0,1,.77,1.83,2.09,2.09,0,0,1-1,1.79,2.53,2.53,0,0,1,1,.8,1.91,1.91,0,0,1,.37,1.13,2.44,2.44,0,0,1-.78,1.88,2.8,2.8,0,0,1-2,.72Zm2.73-7.41H93.91v2.23h1.33a1.24,1.24,0,0,0,.89-.33,1.12,1.12,0,0,0,.34-.82.93.93,0,0,0-.38-.78A1.54,1.54,0,0,0,95.1,162.26Zm.26,3.57H93.91v2.35h1.41a1.46,1.46,0,0,0,1-.33,1.14,1.14,0,0,0,.37-.86,1.12,1.12,0,0,0-.35-.85A1.42,1.42,0,0,0,95.36,165.83Z"/><path class="cls-1" d="M105.76,165.91h-3.29v2.27h3.61v1.49H100.8v-8.89H106v1.48h-3.51v2.16h3.29Z"/><path class="cls-1" d="M110.92,169.78a4.32,4.32,0,0,1-1.68-.35,4.46,4.46,0,0,1-1.44-1l1.06-1.27a3.22,3.22,0,0,0,1,.8,2.56,2.56,0,0,0,1.17.31A1.43,1.43,0,0,0,112,168a1,1,0,0,0,.37-.76,1.33,1.33,0,0,0-1-1.24l-1-.4a3.71,3.71,0,0,1-1.48-1,2.24,2.24,0,0,1-.48-1.51,2.3,2.3,0,0,1,.76-1.68,2.56,2.56,0,0,1,1.88-.75,3.83,3.83,0,0,1,2.74,1l-1,1.24a2.27,2.27,0,0,0-1.76-.77,1.17,1.17,0,0,0-.79.25.8.8,0,0,0-.3.63.81.81,0,0,0,.23.61,2.44,2.44,0,0,0,.76.46l1,.41a2.74,2.74,0,0,1,2,2.57,2.5,2.5,0,0,1-.83,1.94A3.24,3.24,0,0,1,110.92,169.78Z"/><path class="cls-1" d="M115.42,162.38v-1.6h7.33v1.6h-2.83v7.29h-1.67v-7.29Z"/><path class="cls-1" d="M122.83,169.67l3.42-8.89h1.51l3.42,8.89h-1.72l-.47-1.23h-4l-.47,1.23Zm3.41-9.81a.74.74,0,0,1-1.09,0,.74.74,0,0,1-.23-.57.76.76,0,0,1,.22-.56.8.8,0,0,1,.55-.23.74.74,0,0,1,.54.23.82.82,0,0,1,0,1.13Zm.77,3.4L125.59,167h2.83Zm1.87-3.4a.81.81,0,0,1-.59.24.82.82,0,0,1-.59-.24.79.79,0,0,1,0-1.13.86.86,0,0,1,.59-.23.84.84,0,0,1,.59.23.76.76,0,0,1,0,1.13Z"/><path class="cls-1" d="M133,169.67v-8.89h1.66v7.29H138v1.6Z"/><path class="cls-1" d="M140.13,169.67v-8.89h1.67v7.29h3.27v1.6Z"/><path class="cls-1" d="M154,169.67l-3.4-8.89h1.74l2.44,6.39,2.41-6.39h1.69l-3.37,8.89Z"/><path class="cls-1" d="M159.12,169.67l3.43-8.89h1.5l3.42,8.89h-1.72l-.47-1.23h-4l-.48,1.23Zm4.18-6.41L161.88,167h2.83Zm1.29-4a1.22,1.22,0,0,1-.37.9,1.24,1.24,0,0,1-.91.38,1.27,1.27,0,0,1-.91-.37,1.28,1.28,0,1,1,2.19-.91Zm-1.61.33a.49.49,0,0,0,.34.14.42.42,0,0,0,.32-.14.45.45,0,0,0,.14-.33.49.49,0,0,0-.14-.34.44.44,0,0,0-.33-.13.46.46,0,0,0-.33.13.48.48,0,0,0-.13.34A.44.44,0,0,0,163,159.59Z"/><path class="cls-1" d="M169.32,169.67v-8.89h3.48a3,3,0,0,1,2.14.8,2.78,2.78,0,0,1,.85,2.11,2.67,2.67,0,0,1-.63,1.8,2.87,2.87,0,0,1-1.66.95l2.39,3.23H174l-2.3-3.18H171v3.18Zm3.22-7.41H171v2.9h1.55a1.64,1.64,0,0,0,1.16-.4,1.33,1.33,0,0,0,.43-1,1.4,1.4,0,0,0-.45-1.06A1.57,1.57,0,0,0,172.54,162.26Z"/><path class="cls-1" d="M182.51,169.67v-8.89h2.93a2.65,2.65,0,0,1,1.94.74,2.45,2.45,0,0,1,.77,1.83,2.11,2.11,0,0,1-1,1.79,2.43,2.43,0,0,1,1,.8,1.84,1.84,0,0,1,.37,1.13,2.44,2.44,0,0,1-.78,1.88,2.76,2.76,0,0,1-2,.72Zm2.73-7.41h-1.19v2.23h1.33a1.2,1.2,0,0,0,.88-.33,1.08,1.08,0,0,0,.34-.82.92.92,0,0,0-.37-.78A1.54,1.54,0,0,0,185.24,162.26Zm.25,3.57h-1.44v2.35h1.41a1.44,1.44,0,0,0,1-.33,1.21,1.21,0,0,0,0-1.71A1.43,1.43,0,0,0,185.49,165.83Z"/><path class="cls-1" d="M199.55,165.22A4.63,4.63,0,1,1,198.2,162,4.42,4.42,0,0,1,199.55,165.22Zm-6.71,2.12a2.92,2.92,0,0,0,4.18,0,3,3,0,0,0,0-4.26,2.92,2.92,0,0,0-4.18,0,3.09,3.09,0,0,0,0,4.26Z"/><path class="cls-1" d="M201.88,169.67v-8.89h1.54v3.92l3.4-3.92h2.06l-3.14,3.54,3.21,5.35H207l-2.42-4.06L203.42,167v2.72Z"/></svg>