<svg id="Layer_1" data-name="Layer 1" xmlns="http://www.w3.org/2000/svg" viewBox="0 0 300 250"><defs><style>.cls-1{fill:#d80201;}</style></defs><title>text</title><path class="cls-1" d="M27.3,121V99.66H39.1v3.61H31.46V108h7.36v3.62H31.46v5.75H39.1V121Z"/><path class="cls-1" d="M53.7,121l-4-4.83-4,4.83h-5l6.59-7.55L42,107.14h4.89l2.85,3.59,2.91-3.59h4.93l-5.44,6.31L58.62,121Z"/><path class="cls-1" d="M64.42,110.47V121H60.55V110.47H59v-3.33h1.54v-4.73h3.87v4.73h2.72v3.33Z"/><path class="cls-1" d="M78.21,110.66a3.45,3.45,0,0,0-1.86-.48c-2.62,0-3.33,1.86-3.33,4.16V121H69.15V107.14H73v2.08a4.47,4.47,0,0,1,4-2.52,4.3,4.3,0,0,1,1.69.32Z"/><path class="cls-1" d="M91.26,121v-1.82a5.34,5.34,0,0,1-4.51,2.27c-4.16,0-6.81-3.46-6.81-7.43s2.65-7.32,6.72-7.32a5.74,5.74,0,0,1,4.6,2.2v-1.76h3.91V121Zm-3.45-10.82a3.89,3.89,0,1,0,3.87,3.88A3.86,3.86,0,0,0,87.81,110.18Z"/><path class="cls-1" d="M115.3,121.45a5.48,5.48,0,0,1-4.55-2.27V121h-3.87V97h3.87V108.9a5.89,5.89,0,0,1,4.64-2.2c4.07,0,6.75,3.45,6.75,7.32S119.46,121.45,115.3,121.45Zm-1.06-11.27a3.89,3.89,0,1,0,3.87,3.88A3.87,3.87,0,0,0,114.24,110.18Z"/><path class="cls-1" d="M134.14,110.66a3.44,3.44,0,0,0-1.85-.48c-2.63,0-3.33,1.86-3.33,4.16V121h-3.87V107.14H129v2.08a4.47,4.47,0,0,1,4-2.52,4.35,4.35,0,0,1,1.7.32Z"/><path class="cls-1" d="M147.2,121v-1.82a5.37,5.37,0,0,1-4.51,2.27c-4.16,0-6.82-3.46-6.82-7.43s2.66-7.32,6.72-7.32a5.77,5.77,0,0,1,4.61,2.2v-1.76h3.9V121Zm-3.46-10.82a3.89,3.89,0,1,0,3.87,3.88A3.87,3.87,0,0,0,143.74,110.18Z"/><path class="cls-1" d="M173.41,121v-1.82a5.37,5.37,0,0,1-4.52,2.27c-4.16,0-6.81-3.46-6.81-7.43s2.65-7.32,6.72-7.32a5.77,5.77,0,0,1,4.61,2.2V97h3.9v24ZM170,110.18a3.89,3.89,0,1,0,3.87,3.88A3.87,3.87,0,0,0,170,110.18Z"/><path class="cls-1" d="M184.25,114.7c.07,2.14,1.09,3.71,3.4,3.71a3.62,3.62,0,0,0,3.29-1.86l3.58.58c-1.21,3-3.68,4.32-6.81,4.32-4.48,0-7.42-2.88-7.42-7.39s2.81-7.36,7.26-7.36,7.07,3.07,7.07,7.48v.52Zm3.36-5.25a3.14,3.14,0,0,0-3.23,2.78h6.56A3.2,3.2,0,0,0,187.61,109.45Z"/><path class="cls-1" d="M208.19,121v-1.82a5.37,5.37,0,0,1-4.51,2.27c-4.16,0-6.82-3.46-6.82-7.43s2.66-7.32,6.72-7.32a5.77,5.77,0,0,1,4.61,2.2v-1.76h3.9V121Zm-3.46-10.82a3.89,3.89,0,1,0,3.87,3.88A3.87,3.87,0,0,0,204.73,110.18Z"/><path class="cls-1" d="M215.8,121V97h3.88v24Z"/><path class="cls-1" d="M235.39,110.47V121h-3.87V110.47H230v-3.33h1.51V102.7a6.7,6.7,0,0,1,.61-3.27,5.48,5.48,0,0,1,4.79-2.78,4.57,4.57,0,0,1,2.05.48v3.55a3.81,3.81,0,0,0-1.76-.51c-1.73,0-1.82,1.79-1.82,3.1v3.87H239v3.33Z"/><path class="cls-1" d="M248,121.45c-4.41,0-7.93-2.75-7.93-7.36s3.52-7.39,8-7.39,7.87,2.78,7.87,7.36S252.35,121.45,248,121.45Zm-3.36-16.9a2.3,2.3,0,1,1,0-4.6,2.3,2.3,0,1,1,0,4.6Zm3.33,5.63a3.89,3.89,0,1,0,3.94,3.91A3.93,3.93,0,0,0,247.93,110.18Zm3.33-5.63a2.33,2.33,0,0,1-2.3-2.3,2.3,2.3,0,1,1,2.3,2.3Z"/><path class="cls-1" d="M267.9,110.66a3.45,3.45,0,0,0-1.86-.48c-2.62,0-3.32,1.86-3.32,4.16V121h-3.88V107.14h3.88v2.08a4.44,4.44,0,0,1,4-2.52,4.27,4.27,0,0,1,1.69.32Z"/><path class="cls-1" d="M37.28,156v-1.82a5.36,5.36,0,0,1-4.51,2.27C28.61,156.45,26,153,26,149s2.66-7.32,6.72-7.32a5.77,5.77,0,0,1,4.61,2.2v-1.76h3.9V156Zm-3.45-10.82a3.89,3.89,0,1,0,3.87,3.88A3.87,3.87,0,0,0,33.83,145.18Z"/><path class="cls-1" d="M44.9,156V132h3.87v24Z"/><path class="cls-1" d="M52.48,156V132h3.87v24Z"/><path class="cls-1" d="M70.66,156v-1.82a5.37,5.37,0,0,1-4.51,2.27c-4.16,0-6.82-3.46-6.82-7.43s2.66-7.32,6.72-7.32a5.77,5.77,0,0,1,4.61,2.2v-1.76h3.9V156ZM67.2,145.18a3.89,3.89,0,1,0,3.87,3.88A3.87,3.87,0,0,0,67.2,145.18Z"/><path class="cls-1" d="M95.74,156v-7.68c0-1.89-.41-3.33-2.62-3.33-2.4,0-3,1.76-3,3.84V156H86.27V142.14h3.87v1.7a5.12,5.12,0,0,1,4.36-2.14,4.78,4.78,0,0,1,5.12,5.5V156Z"/><path class="cls-1" d="M106.66,163.42h-4.39l5.09-9.5-6.56-11.78h4.51l4.16,7.88,4-7.88h4.42Z"/><path class="cls-1" d="M129.57,156v-1.82a5.37,5.37,0,0,1-4.51,2.27c-4.16,0-6.82-3.46-6.82-7.43s2.66-7.32,6.72-7.32a5.77,5.77,0,0,1,4.61,2.2v-1.76h3.9V156Zm-3.46-10.82a3.89,3.89,0,1,0,3.87,3.88A3.87,3.87,0,0,0,126.11,145.18Z"/><path class="cls-1" d="M152.22,156.29h-1.79l-7.07-14.15h4.35l3.65,7.81,3.65-7.81h4.35Z"/><path class="cls-1" d="M171.84,156v-1.82a5.37,5.37,0,0,1-4.51,2.27c-4.16,0-6.82-3.46-6.82-7.43s2.66-7.32,6.72-7.32a5.77,5.77,0,0,1,4.61,2.2v-1.76h3.9V156Zm-6.69-16.45a2.3,2.3,0,1,1,0-4.6,2.3,2.3,0,1,1,0,4.6Zm3.23,5.63a3.89,3.89,0,1,0,3.87,3.88A3.87,3.87,0,0,0,168.38,145.18Zm3.43-5.63a2.34,2.34,0,0,1-2.31-2.3,2.31,2.31,0,1,1,2.31,2.3Z"/><path class="cls-1" d="M188.93,156v-7.68c0-1.89-.42-3.33-2.63-3.33-2.4,0-3,1.76-3,3.84V156h-3.87V142.14h3.87v1.7a5.12,5.12,0,0,1,4.35-2.14,4.78,4.78,0,0,1,5.12,5.5V156Z"/><path class="cls-1" d="M206,156v-7.68c0-1.89-.41-3.33-2.62-3.33-2.4,0-3,1.76-3,3.84V156h-3.87V142.14h3.87v1.7a5.12,5.12,0,0,1,4.35-2.14,4.77,4.77,0,0,1,5.12,5.5V156Z"/><path class="cls-1" d="M216.8,149.7c.06,2.14,1.09,3.71,3.39,3.71a3.64,3.64,0,0,0,3.3-1.86l3.58.58c-1.22,3-3.68,4.32-6.82,4.32-4.48,0-7.42-2.88-7.42-7.39s2.82-7.36,7.26-7.36,7.08,3.07,7.08,7.48v.52Zm3.36-5.25a3.14,3.14,0,0,0-3.23,2.78h6.56A3.22,3.22,0,0,0,220.16,144.45Z"/><path class="cls-1" d="M239.2,145.66a3.45,3.45,0,0,0-1.86-.48c-2.62,0-3.33,1.86-3.33,4.16V156h-3.87V142.14H234v2.08a4.47,4.47,0,0,1,4-2.52,4.3,4.3,0,0,1,1.69.32Z"/></svg>