<svg id="Layer_1" data-name="Layer 1" xmlns="http://www.w3.org/2000/svg" viewBox="0 0 1250 240"><defs><style>.cls-1{fill:#d4ac76;}</style></defs><title>text</title><path class="cls-1" d="M406,162l-8.15-20.87h3.28l6.25,16,6.27-16h3.22L408.73,162Z"/><path class="cls-1" d="M418.66,162,427,141.11h2.64L437.9,162h-3.22l-1.27-3.21H423.18L421.89,162Zm7.54-23.08a1.4,1.4,0,0,1-1,.46,1.36,1.36,0,0,1-1-.46,1.64,1.64,0,0,1-.42-1.14,1.61,1.61,0,0,1,.42-1.13,1.33,1.33,0,0,1,1-.46,1.36,1.36,0,0,1,1,.46,1.58,1.58,0,0,1,.43,1.13A1.6,1.6,0,0,1,426.2,138.9Zm2.16,7L424.3,156h8Zm3.63-7a1.41,1.41,0,0,1-2.08,0,1.64,1.64,0,0,1-.42-1.14,1.61,1.61,0,0,1,.42-1.13,1.41,1.41,0,0,1,2.08,0,1.61,1.61,0,0,1,.42,1.13A1.64,1.64,0,0,1,432,138.9Z"/><path class="cls-1" d="M443.69,162V141.11h7.75a6.53,6.53,0,0,1,4.7,1.82A6.45,6.45,0,0,1,452.47,154l6,7.94h-3.59l-6-8h-2.32v8Zm7.36-18.09h-4.44v7.54H451a4.24,4.24,0,0,0,3-1,3.78,3.78,0,0,0,0-5.41A4,4,0,0,0,451.05,143.89Z"/><path class="cls-1" d="M465.35,162V141.11h5.59a10.51,10.51,0,0,1,7.3,17.9,10.18,10.18,0,0,1-7.41,3Zm5.7-18.09h-2.79V159.2h2.87a6.74,6.74,0,0,0,5.15-2.24,7.7,7.7,0,0,0,2.08-5.45,7.45,7.45,0,0,0-2.15-5.42A7,7,0,0,0,471.05,143.89Z"/><path class="cls-1" d="M500,152.83h-8.58v6.37h9.18V162h-12.1V141.11h11.93v2.78h-9v6.16H500Z"/><path class="cls-1" d="M507.79,162V141.11h11.4v2.78h-8.48v6.56h7.5v2.78h-7.5V162Z"/><path class="cls-1" d="M532.75,162.33a7.29,7.29,0,0,1-5.44-2.18,7.59,7.59,0,0,1-2.13-5.51V141.11h2.91v13.35a5.39,5.39,0,0,0,1.25,3.65,4.28,4.28,0,0,0,3.41,1.44,4.39,4.39,0,0,0,3.45-1.41,5.31,5.31,0,0,0,1.26-3.65V141.11h2.92v13.53a7.59,7.59,0,0,1-2.13,5.51A7.34,7.34,0,0,1,532.75,162.33Z"/><path class="cls-1" d="M548.67,162V141.11h2.91V159.2h8.59V162Z"/><path class="cls-1" d="M566.57,162V141.11h2.92V159.2h8.58V162Z"/><path class="cls-1" d="M578.61,143.89v-2.78h16.9v2.78h-7V162H585.6V143.89Z"/><path class="cls-1" d="M624.65,152.83h-8.59v6.37h9.18V162h-12.1V141.11h11.94v2.78h-9v6.16h8.59Z"/><path class="cls-1" d="M632.48,162V141.11h7.74a6.53,6.53,0,0,1,4.7,1.82A6.45,6.45,0,0,1,641.26,154l6,7.94h-3.59l-6-8h-2.32v8Zm7.35-18.09h-4.44v7.54h4.42a4.22,4.22,0,0,0,3-1,3.5,3.5,0,0,0,1.14-2.74,3.54,3.54,0,0,0-1.15-2.67A4.07,4.07,0,0,0,639.83,143.89Z"/><path class="cls-1" d="M654.13,162V141.11h6.38a6.64,6.64,0,0,1,4.6,1.62,5.36,5.36,0,0,1,1.82,4.21,4.92,4.92,0,0,1-2.49,4.48,5.31,5.31,0,0,1,2.25,1.88,4.92,4.92,0,0,1,.83,2.81,5.39,5.39,0,0,1-1.83,4.27A6.79,6.79,0,0,1,661,162Zm6.09-18.09H657v6.35h3.72a3.17,3.17,0,0,0,2.32-.93,3.21,3.21,0,0,0,.93-2.39,2.7,2.7,0,0,0-1-2.2A4.33,4.33,0,0,0,660.22,143.89Zm.65,8.94H657v6.37h3.64a4.34,4.34,0,0,0,2.87-.89,3,3,0,0,0,1.06-2.39,2.88,2.88,0,0,0-1-2.23A4,4,0,0,0,660.87,152.83Z"/><path class="cls-1" d="M678.81,162.31a7,7,0,0,1-4.15-1.25,6.46,6.46,0,0,1-2.47-3.36l2.7-1.33a4.64,4.64,0,0,0,1.47,2.3,3.76,3.76,0,0,0,2.45.86,3.55,3.55,0,0,0,2.82-1.19,4.75,4.75,0,0,0,1-3.23v-14h2.91V155a7.27,7.27,0,0,1-1.89,5.38A6.61,6.61,0,0,1,678.81,162.31Z"/><path class="cls-1" d="M700.77,162.33a7.29,7.29,0,0,1-5.44-2.18,7.59,7.59,0,0,1-2.13-5.51V141.11h2.91v13.35a5.39,5.39,0,0,0,1.25,3.65,4.28,4.28,0,0,0,3.41,1.44,4.39,4.39,0,0,0,3.45-1.41,5.31,5.31,0,0,0,1.26-3.65V141.11h2.92v13.53a7.59,7.59,0,0,1-2.13,5.51A7.34,7.34,0,0,1,700.77,162.33Z"/><path class="cls-1" d="M716.69,162V141.11h5.59a10.51,10.51,0,0,1,7.3,17.9,10.18,10.18,0,0,1-7.41,3Zm5.7-18.09H719.6V159.2h2.87a6.74,6.74,0,0,0,5.15-2.24,7.7,7.7,0,0,0,2.08-5.45,7.45,7.45,0,0,0-2.15-5.42A7,7,0,0,0,722.39,143.89Z"/><path class="cls-1" d="M736.75,162l8.38-20.87h2.63L756,162h-3.22l-1.26-3.21H741.27L740,162Zm9.69-16.08L742.39,156h8Z"/><path class="cls-1" d="M761.78,162V141.11h2l11.31,14.38V141.11H778V162h-1.62l-11.72-14.9V162Z"/><path class="cls-1" d="M786.75,162V141.11h5.6a10.52,10.52,0,0,1,7.3,17.9,10.18,10.18,0,0,1-7.41,3Zm5.71-18.09h-2.79V159.2h2.87a6.72,6.72,0,0,0,5.14-2.24,7.71,7.71,0,0,0,2.09-5.45,7.42,7.42,0,0,0-2.16-5.42A7,7,0,0,0,792.46,143.89Z"/><path class="cls-1" d="M821.37,152.83h-8.59v6.37H822V162h-12.1V141.11H821.8v2.78h-9v6.16h8.59Z"/></svg>