<svg id="Layer_1" data-name="Layer 1" xmlns="http://www.w3.org/2000/svg" viewBox="0 0 980 240"><defs><style>.cls-1{fill:#d80201;}</style></defs><title>text</title><path class="cls-1" d="M295.82,132l8.27-9.37c2.27-2.56,6.43-6.8,6.43-10.38a4.18,4.18,0,0,0-4.24-4.15c-2.78,0-4.08,2-4.16,4.62h-5.84c.38-5.67,4.07-9.45,9.83-9.45,5.25,0,9.87,3.44,9.87,9,0,3.91-2.56,7.1-5.08,9.79L306,127.27h10.17V132Z"/><path class="cls-1" d="M330.8,132.73c-7.73,0-10.83-8.15-10.83-14.7s3.06-14.74,10.83-14.74,10.84,8.1,10.84,14.7S338.58,132.73,330.8,132.73Zm0-24.61c-4.28,0-5.37,6.63-5.37,9.87s1.09,10,5.37,10,5.38-6.72,5.38-10S335.09,108.12,330.8,108.12Z"/><path class="cls-1" d="M368.1,132v-10c0-2.52-.55-4.49-3.49-4.49-3.15,0-3.86,2.43-3.86,5.12V132h-5.08V100.56h5.08v15.62a6.63,6.63,0,0,1,5.71-2.94,7,7,0,0,1,5.29,2.23c1.31,1.51,1.43,3.23,1.43,5.12V132Z"/><path class="cls-1" d="M386.83,132.61c-5,0-8.78-2.23-8.78-7.65V113.83h5.08v10.29c0,2.48,1.05,4.16,3.7,4.16s3.7-1.68,3.7-4.16V113.83h5.12V125C395.65,130.38,391.83,132.61,386.83,132.61Z"/><path class="cls-1" d="M406.32,132.61a9.66,9.66,0,0,1-6.93-3l2.69-3.11a5.9,5.9,0,0,0,4.28,2.15,2.14,2.14,0,0,0,2.31-2c0-3.11-8.11-1.55-8.11-7.69,0-3.69,3.07-5.75,6.51-5.75a9.42,9.42,0,0,1,5.93,1.93l-2.52,3a5.11,5.11,0,0,0-3-1.22c-.88,0-1.93.55-1.93,1.56,0,2.64,8.4,1.47,8.4,7.69C413.92,130.34,410.22,132.61,406.32,132.61Z"/><path class="cls-1" d="M440.76,132v-10c0-2.14-.34-4.49-3-4.49-3,0-3.49,2.73-3.49,5.12V132h-5.08v-9.66a8.08,8.08,0,0,0-.38-3,3,3,0,0,0-2.73-1.76,3.32,3.32,0,0,0-2.86,1.64,7.6,7.6,0,0,0-.59,3.48V132h-5.08V113.83h5.08v2.06a7,7,0,0,1,5.55-2.65,6.2,6.2,0,0,1,5.67,3.32,6.74,6.74,0,0,1,6-3.32,6,6,0,0,1,5.09,2.61,8,8,0,0,1,1,4.41V132Z"/><path class="cls-1" d="M460.16,132.61c-5.8,0-10.42-3.62-10.42-9.67s4.62-9.7,10.46-9.7,10.34,3.66,10.34,9.66S465.92,132.61,460.16,132.61Zm0-14.79a5.11,5.11,0,1,0,5.17,5.12A5.14,5.14,0,0,0,460.12,117.82Z"/><path class="cls-1" d="M488.34,132v-2.4a7,7,0,0,1-5.92,3c-5.46,0-8.95-4.54-8.95-9.75s3.49-9.62,8.82-9.62a7.56,7.56,0,0,1,6,2.9V100.56h5.13V132Zm-4.53-14.2a5.11,5.11,0,1,0,5.08,5.08A5.08,5.08,0,0,0,483.81,117.82Z"/><path class="cls-1" d="M502.58,123.74c.08,2.82,1.43,4.88,4.45,4.88a4.77,4.77,0,0,0,4.33-2.44l4.7.76c-1.59,3.9-4.83,5.67-8.94,5.67-5.88,0-9.75-3.78-9.75-9.71s3.7-9.66,9.54-9.66c6,0,9.28,4,9.28,9.83v.67Zm4.41-6.89a4.13,4.13,0,0,0-4.24,3.66h8.61A4.22,4.22,0,0,0,507,116.85Z"/><path class="cls-1" d="M520.09,132V100.56h5.09V132Z"/><path class="cls-1" d="M530.05,132V100.56h5.08V132Z"/><path class="cls-1" d="M544.24,123.74c.09,2.82,1.43,4.88,4.46,4.88a4.76,4.76,0,0,0,4.32-2.44l4.71.76c-1.6,3.9-4.83,5.67-9,5.67-5.88,0-9.74-3.78-9.74-9.71s3.69-9.66,9.53-9.66c6,0,9.28,4,9.28,9.83v.67Zm4.41-6.89a4.13,4.13,0,0,0-4.24,3.66H553A4.21,4.21,0,0,0,548.65,116.85Z"/><path class="cls-1" d="M573.64,118.45a4.51,4.51,0,0,0-2.43-.63c-3.45,0-4.37,2.44-4.37,5.46V132h-5.08V113.83h5.08v2.73a5.84,5.84,0,0,1,5.29-3.32,5.92,5.92,0,0,1,2.23.42Z"/><path class="cls-1" d="M598,120.13v6.55h-5.12v-6.55h-6.55v-4.7h6.55v-6.56H598v6.56h6.56v4.7Z"/><path class="cls-1" d="M621.35,109.21a3.07,3.07,0,0,1,0-6.13,3.07,3.07,0,0,1,0,6.13ZM618.79,132V113.83h5.08V132Z"/><path class="cls-1" d="M641.1,132V121.94c0-2.48-.55-4.37-3.45-4.37-3.15,0-3.91,2.31-3.91,5V132h-5.08V113.83h5.08v2.23c1.68-1.94,3.11-2.82,5.72-2.82a7,7,0,0,1,5.29,2.19c1.3,1.51,1.43,3.15,1.43,5V132Z"/><path class="cls-1" d="M656.84,132.61a9.69,9.69,0,0,1-6.93-3l2.69-3.11a5.92,5.92,0,0,0,4.29,2.15,2.15,2.15,0,0,0,2.31-2c0-3.11-8.11-1.55-8.11-7.69,0-3.69,3.07-5.75,6.51-5.75a9.39,9.39,0,0,1,5.92,1.93l-2.52,3a5.08,5.08,0,0,0-3-1.22c-.88,0-1.93.55-1.93,1.56,0,2.64,8.4,1.47,8.4,7.69C664.45,130.34,660.75,132.61,656.84,132.61Z"/><path class="cls-1" d="M679.23,132.61a7.27,7.27,0,0,1-6.09-3v12.1h-5.08V113.83h5.08v2.31a7.25,7.25,0,0,1,6-2.9c5.42,0,9,4.5,9,9.7S684.57,132.61,679.23,132.61Zm-1.51-14.79a5.11,5.11,0,1,0,5.08,5.08A5.07,5.07,0,0,0,677.72,117.82Z"/><path class="cls-1" d="M694.43,109.21a3.07,3.07,0,0,1,0-6.13,3.07,3.07,0,0,1,0,6.13ZM691.87,132V113.83H697V132Z"/><path class="cls-1" d="M713.63,118.45a4.52,4.52,0,0,0-2.44-.63c-3.44,0-4.37,2.44-4.37,5.46V132h-5.08V113.83h5.08v2.73a5.85,5.85,0,0,1,5.3-3.32,5.91,5.91,0,0,1,2.22.42Z"/><path class="cls-1" d="M730.76,132v-2.4a7,7,0,0,1-5.92,3c-5.46,0-9-4.54-9-9.75s3.49-9.62,8.82-9.62a7.59,7.59,0,0,1,6,2.9v-2.31h5.13V132Zm-4.53-14.2a5.11,5.11,0,1,0,5.08,5.08A5.08,5.08,0,0,0,726.23,117.82Z"/><path class="cls-1" d="M745.88,118.2V132H740.8V118.2h-2v-4.37h2v-6.22h5.08v6.22h3.57v4.37Z"/><path class="cls-1" d="M754.57,109.21a3.07,3.07,0,0,1,0-6.13,3.07,3.07,0,0,1,0,6.13ZM752,132V113.83h5.08V132Z"/><path class="cls-1" d="M771.33,132.61c-5.79,0-10.41-3.62-10.41-9.67s4.62-9.7,10.45-9.7,10.34,3.66,10.34,9.66S777.09,132.61,771.33,132.61Zm0-14.79a5.11,5.11,0,1,0,5.17,5.12A5.14,5.14,0,0,0,771.29,117.82Z"/><path class="cls-1" d="M798,132V121.94c0-2.48-.54-4.37-3.44-4.37-3.15,0-3.91,2.31-3.91,5V132h-5.08V113.83h5.08v2.23c1.68-1.94,3.11-2.82,5.72-2.82a7,7,0,0,1,5.29,2.19c1.3,1.51,1.43,3.15,1.43,5V132Z"/></svg>