<svg id="Layer_1" data-name="Layer 1" xmlns="http://www.w3.org/2000/svg" viewBox="0 0 980 240"><defs><style>.cls-1{fill:#d80201;}</style></defs><title>text</title><path class="cls-1" d="M324.47,132.73h-2.9L309.64,104h6l7.47,18.82L330.64,104h5.93Z"/><path class="cls-1" d="M350.8,132v-2.4a7,7,0,0,1-5.92,3c-5.46,0-8.95-4.54-8.95-9.75s3.49-9.62,8.82-9.62a7.56,7.56,0,0,1,6.05,2.9v-2.31h5.13V132Zm-4.53-14.2a5.11,5.11,0,1,0,5.08,5.08A5.08,5.08,0,0,0,346.27,117.82Z"/><path class="cls-1" d="M360.8,132V100.56h5.08V132Z"/><path class="cls-1" d="M376,118.2V132h-5.08V118.2h-2v-4.37h2V108a8.77,8.77,0,0,1,.8-4.28,7.2,7.2,0,0,1,6.3-3.66,6,6,0,0,1,2.69.63v4.66a5.18,5.18,0,0,0-2.31-.67c-2.27,0-2.4,2.35-2.4,4.08v5.08h4.71v4.37Z"/><path class="cls-1" d="M395,118.45a4.56,4.56,0,0,0-2.44-.63c-3.45,0-4.37,2.44-4.37,5.46V132h-5.08V113.83h5.08v2.73a5.85,5.85,0,0,1,5.29-3.32,5.92,5.92,0,0,1,2.23.42Z"/><path class="cls-1" d="M400.65,109.21a3.07,3.07,0,0,1,0-6.13,3.07,3.07,0,0,1,0,6.13ZM398.09,132V113.83h5.08V132Z"/><path class="cls-1" d="M421.87,132v-2.4a7,7,0,0,1-5.93,3c-5.46,0-8.94-4.54-8.94-9.75s3.48-9.62,8.82-9.62a7.59,7.59,0,0,1,6.05,2.9v-2.31H427V132Zm-4.54-14.2a5.11,5.11,0,1,0,5.08,5.08A5.07,5.07,0,0,0,417.33,117.82Z"/><path class="cls-1" d="M447.48,118.2V132H442.4V118.2h-2v-4.37h2v-6.22h5.08v6.22h3.57v4.37Z"/><path class="cls-1" d="M456.18,109.21a3.07,3.07,0,1,1,0-6.13,3.07,3.07,0,0,1,0,6.13ZM453.61,132V113.83h5.09V132Z"/><path class="cls-1" d="M463.48,132V100.56h5.09V132Z"/><path class="cls-1" d="M473.44,132V100.56h5.08V132Z"/><path class="cls-1" d="M492.63,132.4h-2.35L481,113.83h5.71l4.79,10.25,4.79-10.25H502Z"/><path class="cls-1" d="M517.46,132v-2.4a7,7,0,0,1-5.93,3c-5.46,0-8.94-4.54-8.94-9.75s3.48-9.62,8.82-9.62a7.59,7.59,0,0,1,6.05,2.9v-2.31h5.12V132Zm-4.54-14.2A5.11,5.11,0,1,0,518,122.9,5.07,5.07,0,0,0,512.92,117.82Z"/><path class="cls-1" d="M527.45,132V100.56h5.08V132Z"/><path class="cls-1" d="M553.15,118.2V132h-5.08V118.2h-2v-4.37h2V108a8.89,8.89,0,0,1,.8-4.28,7.21,7.21,0,0,1,6.3-3.66,6,6,0,0,1,2.69.63v4.66a5.18,5.18,0,0,0-2.31-.67c-2.27,0-2.4,2.35-2.4,4.08v5.08h4.71v4.37Z"/><path class="cls-1" d="M569.66,132.61c-5.8,0-10.42-3.62-10.42-9.67s4.62-9.7,10.46-9.7S580,116.9,580,122.9,575.42,132.61,569.66,132.61Zm-4.41-22.18a3,3,0,0,1,0-6.05,3,3,0,0,1,0,6.05Zm4.37,7.39a5.11,5.11,0,1,0,5.17,5.12A5.14,5.14,0,0,0,569.62,117.82Zm4.37-7.39a3.07,3.07,0,0,1-3-3,3,3,0,1,1,3,3Z"/><path class="cls-1" d="M595.83,118.45a4.52,4.52,0,0,0-2.44-.63c-3.44,0-4.37,2.44-4.37,5.46V132h-5.08V113.83H589v2.73a5.85,5.85,0,0,1,5.29-3.32,5.92,5.92,0,0,1,2.23.42Z"/><path class="cls-1" d="M617.16,132.73a12,12,0,0,1-8.95-3.65l1.81-4.71a9.39,9.39,0,0,0,7.06,3.57,5.55,5.55,0,0,0,5.59-5.42c0-3.44-3.2-5.58-6.39-5.58a9.3,9.3,0,0,0-5.38,1.76h-.29l3.32-14.7h12.94v4.79h-9.25l-1.09,4.33a15.89,15.89,0,0,1,2.06-.17,9.4,9.4,0,0,1,9.54,9.78C628.13,129.08,623.17,132.73,617.16,132.73Z"/><path class="cls-1" d="M642.82,132.73c-7.73,0-10.83-8.15-10.83-14.7s3.06-14.74,10.83-14.74,10.84,8.1,10.84,14.7S650.59,132.73,642.82,132.73Zm0-24.61c-4.28,0-5.37,6.63-5.37,9.87s1.09,10,5.37,10,5.38-6.72,5.38-10S647.11,108.12,642.82,108.12Z"/><path class="cls-1" d="M677.14,132.73c-7.73,0-10.84-8.15-10.84-14.7s3.07-14.74,10.84-14.74S688,111.39,688,118,684.91,132.73,677.14,132.73Zm0-24.61c-4.29,0-5.38,6.63-5.38,9.87s1.09,10,5.38,10,5.37-6.72,5.37-10S681.42,108.12,677.14,108.12Z"/><path class="cls-1" d="M701,132.73c-7.73,0-10.84-8.15-10.84-14.7s3.07-14.74,10.84-14.74,10.84,8.1,10.84,14.7S708.72,132.73,701,132.73Zm0-24.61c-4.28,0-5.38,6.63-5.38,9.87s1.1,10,5.38,10,5.38-6.72,5.38-10S705.23,108.12,701,108.12Z"/><path class="cls-1" d="M724.76,132.73c-7.73,0-10.84-8.15-10.84-14.7s3.07-14.74,10.84-14.74,10.84,8.1,10.84,14.7S732.53,132.73,724.76,132.73Zm0-24.61c-4.28,0-5.37,6.63-5.37,9.87s1.09,10,5.37,10,5.38-6.72,5.38-10S729.05,108.12,724.76,108.12Z"/><path class="cls-1" d="M762.1,132l-6.85-7.81-.54.54V132h-5.08V100.56h5.08v19.91l6.8-6.64h6.89l-8.52,8L769.07,132Z"/><path class="cls-1" d="M783.23,118.45a4.52,4.52,0,0,0-2.44-.63c-3.44,0-4.37,2.44-4.37,5.46V132h-5.08V113.83h5.08v2.73a5.85,5.85,0,0,1,5.29-3.32,5.92,5.92,0,0,1,2.23.42Z"/></svg>