<svg id="Layer_1" data-name="Layer 1" xmlns="http://www.w3.org/2000/svg" viewBox="0 0 300 600"><defs><style>.cls-1{fill:#fff;}</style></defs><title>text</title><path class="cls-1" d="M70.08,60.65V63H56.28V41.66h13.5V44H59v6.78h8.6V53H59v7.69Z"/><path class="cls-1" d="M86,63h-2.3V52.85a4.09,4.09,0,0,0-1-3.08,3.26,3.26,0,0,0-2.31-.89,4,4,0,0,0-3.15,1.5,5.9,5.9,0,0,0-1.27,4V63H73.59V47.21h2.29v2.91q1.92-3.34,5-3.35a4.94,4.94,0,0,1,3,.92,4.84,4.84,0,0,1,1.7,2.05A12.45,12.45,0,0,1,86,53.87Z"/><path class="cls-1" d="M108.27,57.46l2.21.39a7.06,7.06,0,0,1-2.07,4.1,6.29,6.29,0,0,1-9-.93,9.87,9.87,0,0,1-1.71-5.88,9.58,9.58,0,0,1,1.81-6,5.83,5.83,0,0,1,4.91-2.39,5.62,5.62,0,0,1,4.13,1.54,6.88,6.88,0,0,1,1.93,4l-2.21.42q-.63-3.9-3.78-3.9a3.48,3.48,0,0,0-3.12,1.72A8.35,8.35,0,0,0,100.28,55a8.59,8.59,0,0,0,1.09,4.71,3.41,3.41,0,0,0,3,1.68Q107.46,61.4,108.27,57.46Z"/><path class="cls-1" d="M119.5,63.43A6,6,0,0,1,114.43,61a9.64,9.64,0,0,1-1.82-6,8.57,8.57,0,0,1,2-6,6.57,6.57,0,0,1,5.09-2.26,6.23,6.23,0,0,1,5.15,2.37,9.26,9.26,0,0,1,1.88,5.92,8.89,8.89,0,0,1-2,6A6.62,6.62,0,0,1,119.5,63.43Zm.19-2a3.92,3.92,0,0,0,3.14-1.55A7.54,7.54,0,0,0,124.09,55c0-2.19-.44-3.77-1.32-4.76a4.09,4.09,0,0,0-3.11-1.47,3.91,3.91,0,0,0-3.1,1.49A7.24,7.24,0,0,0,115.3,55q0,3.43,1.26,4.9A4,4,0,0,0,119.69,61.4Z"/><path class="cls-1" d="M151.61,63h-2.39V53.18a9.08,9.08,0,0,0-.21-2.27,2.66,2.66,0,0,0-1-1.39,2.85,2.85,0,0,0-1.82-.64,3.84,3.84,0,0,0-2.71,1.29,5.31,5.31,0,0,0-1.31,3.93V63h-2.37V52.6a3.75,3.75,0,0,0-1-2.94,3.13,3.13,0,0,0-2.08-.85A3.48,3.48,0,0,0,134,50.15a5,5,0,0,0-1.16,3.41V63h-2.34V47.21h2.11v3c1.17-2.31,2.8-3.47,4.86-3.47a4.08,4.08,0,0,1,2.89,1.11,5.08,5.08,0,0,1,1.53,2.68q1.62-3.8,5-3.79a4.47,4.47,0,0,1,2.82.93,4.2,4.2,0,0,1,1.58,2.11,11.83,11.83,0,0,1,.37,3.37Z"/><path class="cls-1" d="M177.66,63h-2.39V53.18a8.54,8.54,0,0,0-.22-2.27,2.69,2.69,0,0,0-1-1.39,2.86,2.86,0,0,0-1.83-.64,3.87,3.87,0,0,0-2.71,1.29,5.31,5.31,0,0,0-1.3,3.93V63h-2.38V52.6a3.75,3.75,0,0,0-1-2.94,3.16,3.16,0,0,0-2.09-.85A3.46,3.46,0,0,0,160,50.15a5,5,0,0,0-1.16,3.41V63h-2.34V47.21h2.11v3q1.76-3.47,4.85-3.47a4.11,4.11,0,0,1,2.9,1.11,5.08,5.08,0,0,1,1.53,2.68q1.62-3.8,5-3.79a4.51,4.51,0,0,1,2.82.93,4.26,4.26,0,0,1,1.58,2.11,12.21,12.21,0,0,1,.37,3.37Z"/><path class="cls-1" d="M193,58.29l2.29.47a6.46,6.46,0,0,1-2.44,3.35,7.06,7.06,0,0,1-4.27,1.32,6.63,6.63,0,0,1-5.23-2.28,8.65,8.65,0,0,1-2-6,8.77,8.77,0,0,1,2.08-6.09,6.69,6.69,0,0,1,5.22-2.33,6.31,6.31,0,0,1,5,2.14q1.89,2.15,1.93,6.41H184.06q0,3.59,1.5,4.83a4.91,4.91,0,0,0,3.17,1.25A4.34,4.34,0,0,0,193,58.29Zm-.14-4.8a6.89,6.89,0,0,0-.43-2.36A4,4,0,0,0,191,49.38a3.72,3.72,0,0,0-2.33-.73A4.17,4.17,0,0,0,185.6,50a5.46,5.46,0,0,0-1.43,3.53Z"/><path class="cls-1" d="M201.67,63h-2.45V47.21h2.16V50.9a7.91,7.91,0,0,1,2.28-3.38,4.16,4.16,0,0,1,2.36-.78,7.69,7.69,0,0,1,1,.07v2.34h-.5a4.3,4.3,0,0,0-3.37,1.51,6.15,6.15,0,0,0-1.44,4Z"/><path class="cls-1" d="M218.61,57.46l2.22.39a7.07,7.07,0,0,1-2.08,4.1,6.27,6.27,0,0,1-9-.93,9.87,9.87,0,0,1-1.71-5.88,9.64,9.64,0,0,1,1.8-6,5.83,5.83,0,0,1,4.92-2.39,5.66,5.66,0,0,1,4.13,1.54,6.94,6.94,0,0,1,1.93,4l-2.22.42c-.42-2.6-1.67-3.9-3.77-3.9a3.46,3.46,0,0,0-3.12,1.72A8.26,8.26,0,0,0,210.63,55a8.69,8.69,0,0,0,1.08,4.71,3.43,3.43,0,0,0,3,1.68Q217.81,61.4,218.61,57.46Z"/><path class="cls-1" d="M234.61,58.29l2.28.47a6.46,6.46,0,0,1-2.44,3.35,7,7,0,0,1-4.26,1.32A6.65,6.65,0,0,1,225,61.15a8.7,8.7,0,0,1-2-6A8.82,8.82,0,0,1,225,49.1a6.72,6.72,0,0,1,5.22-2.33,6.34,6.34,0,0,1,5,2.14c1.25,1.43,1.9,3.57,1.93,6.41H225.69q0,3.59,1.5,4.83a4.89,4.89,0,0,0,3.17,1.25A4.34,4.34,0,0,0,234.61,58.29Zm-.14-4.8a6.89,6.89,0,0,0-.44-2.36,4,4,0,0,0-1.37-1.75,3.76,3.76,0,0,0-2.33-.73,4.17,4.17,0,0,0-3.1,1.31,5.41,5.41,0,0,0-1.43,3.53Z"/><path class="cls-1" d="M68.65,101.39H66.2V80.06h2.45Z"/><path class="cls-1" d="M74,99.18a9.65,9.65,0,0,1-1.65-5.75,8.58,8.58,0,0,1,2.05-6,6.6,6.6,0,0,1,5.08-2.26,6.53,6.53,0,0,1,4,1.29l1.41-1.88h2.19L84.74,87.7a9.32,9.32,0,0,1,1.75,5.76,8.88,8.88,0,0,1-2,6,6.62,6.62,0,0,1-5.26,2.34,6,6,0,0,1-4.06-1.36l-1.36,1.8H71.66ZM75.57,97l6.55-8.74a4,4,0,0,0-2.75-1.09,3.93,3.93,0,0,0-3.09,1.48Q75,90.18,75,93.46A10.15,10.15,0,0,0,75.57,97Zm7.6-7.26-6.64,8.84a4,4,0,0,0,2.88,1.18,3.91,3.91,0,0,0,3.13-1.55,7.54,7.54,0,0,0,1.26-4.81A8.92,8.92,0,0,0,83.17,89.78Z"/><path class="cls-1" d="M88.05,97.3l2.35-.49c.52,2,2.16,3,4.94,3a4.65,4.65,0,0,0,2.59-.69A2.17,2.17,0,0,0,99,97.18c0-1.24-.9-2-2.7-2.36L93,94.19a6.08,6.08,0,0,1-3.11-1.47,3.79,3.79,0,0,1-1.15-2.89,4.18,4.18,0,0,1,1.57-3.32,6.38,6.38,0,0,1,4.25-1.34c3.43,0,5.54,1.34,6.35,4l-2.25.48a3.86,3.86,0,0,0-4-2.46,4.49,4.49,0,0,0-2.46.61,2,2,0,0,0-1,1.73c0,1.16.82,1.89,2.46,2.2l3.07.55q4.83.87,4.83,4.68a4.17,4.17,0,0,1-1.8,3.51A7.81,7.81,0,0,1,95,101.83Q89.38,101.83,88.05,97.3Z"/><path class="cls-1" d="M117.46,101.39h-2.3V91.25a4.09,4.09,0,0,0-1-3.08,3.28,3.28,0,0,0-2.31-.89,4,4,0,0,0-3.15,1.5,5.9,5.9,0,0,0-1.27,4v8.65H105V85.61h2.28v2.91q1.94-3.34,5-3.35a4.94,4.94,0,0,1,3,.92,4.84,4.84,0,0,1,1.7,2,12.45,12.45,0,0,1,.46,4.13Z"/><path class="cls-1" d="M124.9,80.06V82.8h-2.64V80.06Zm-.08,5.55v15.78h-2.45V85.61Z"/><path class="cls-1" d="M142.15,101.39h-2.3V91.25a4.13,4.13,0,0,0-.95-3.08,3.29,3.29,0,0,0-2.31-.89,4,4,0,0,0-3.15,1.5,5.91,5.91,0,0,0-1.28,4v8.65h-2.45V85.61H132v2.91q1.92-3.34,5-3.35a5.1,5.1,0,0,1,4.71,3,12.73,12.73,0,0,1,.46,4.13Z"/><path class="cls-1" d="M160,83.14v2a4.41,4.41,0,0,0-2.26.39,2.05,2.05,0,0,0-.76,1.4,5.73,5.73,0,0,1,1.52,3.82,4.9,4.9,0,0,1-1.65,3.7A6.23,6.23,0,0,1,152.37,96a5.52,5.52,0,0,1-1.08-.1,8.39,8.39,0,0,0-1.08-.17,1.9,1.9,0,0,0-1,.41,1.27,1.27,0,0,0-.6,1.07,1.16,1.16,0,0,0,.86,1.22,18.31,18.31,0,0,0,4,.36,23,23,0,0,1,4,.37,4,4,0,0,1,2.18,1.28,3.52,3.52,0,0,1,.89,2.43q0,4.52-7.94,4.52-3.76,0-5.49-1.14a3.46,3.46,0,0,1-1.73-3,3.18,3.18,0,0,1,2.41-3.16,3,3,0,0,1-1.55-2.55c0-1.22.73-2.15,2.19-2.8a5.15,5.15,0,0,1-2.05-4.17,4.85,4.85,0,0,1,1.75-3.84,6.34,6.34,0,0,1,4.27-1.5,7.53,7.53,0,0,1,3.23.68,3,3,0,0,1,1.09-2.14,4.52,4.52,0,0,1,2.59-.6Zm-10.44,17.61a2.38,2.38,0,0,0-1.72,2.17,2,2,0,0,0,1.41,1.87,8.57,8.57,0,0,0,3.6.67,11.52,11.52,0,0,0,3.72-.58c1.13-.38,1.69-1,1.69-1.92a1.6,1.6,0,0,0-.5-1.21,2.44,2.44,0,0,0-1.37-.59c-.57-.08-1.58-.15-3-.19C151.6,100.93,150.33,100.86,149.51,100.75Zm2.94-6.67a3.47,3.47,0,0,0,2.54-1,3.31,3.31,0,0,0,1-2.49,3.45,3.45,0,0,0-3.5-3.55A3.67,3.67,0,0,0,150,88a3.71,3.71,0,0,0-.11,5.12A3.44,3.44,0,0,0,152.45,94.08Z"/><path class="cls-1" d="M191.91,101.39h-2.39V91.58a9.08,9.08,0,0,0-.21-2.27,2.69,2.69,0,0,0-1-1.39,2.86,2.86,0,0,0-1.83-.64,3.85,3.85,0,0,0-2.71,1.29,5.31,5.31,0,0,0-1.3,3.93v8.89h-2.38V91a3.75,3.75,0,0,0-1-2.94,3.16,3.16,0,0,0-2.09-.85,3.48,3.48,0,0,0-2.72,1.34A5,5,0,0,0,173.12,92v9.43h-2.35V85.61h2.11v3q1.77-3.47,4.86-3.47a4.07,4.07,0,0,1,2.89,1.11A5.08,5.08,0,0,1,182.16,89q1.64-3.79,5-3.79a4.51,4.51,0,0,1,2.82.93,4.26,4.26,0,0,1,1.58,2.11,12.27,12.27,0,0,1,.36,3.37Z"/><path class="cls-1" d="M207.24,96.69l2.28.47a6.45,6.45,0,0,1-2.43,3.35,7.06,7.06,0,0,1-4.27,1.32,6.61,6.61,0,0,1-5.23-2.28,8.65,8.65,0,0,1-2-6,8.8,8.8,0,0,1,2.07-6.09,6.72,6.72,0,0,1,5.22-2.33,6.33,6.33,0,0,1,5,2.14c1.25,1.43,1.9,3.57,1.93,6.41H198.32q0,3.59,1.5,4.83A4.91,4.91,0,0,0,203,99.8,4.34,4.34,0,0,0,207.24,96.69Zm-.14-4.8a6.89,6.89,0,0,0-.44-2.36,4,4,0,0,0-1.37-1.75,3.74,3.74,0,0,0-2.33-.73,4.17,4.17,0,0,0-3.1,1.31,5.41,5.41,0,0,0-1.43,3.53Z"/><path class="cls-1" d="M225.8,80.06v21.33h-2.21v-2.7a5.35,5.35,0,0,1-5,3.14A5.5,5.5,0,0,1,214,99.51a9.37,9.37,0,0,1-1.78-5.88,10,10,0,0,1,1.76-6,5.54,5.54,0,0,1,4.69-2.42,5.44,5.44,0,0,1,4.64,2.6V80.06Zm-2.45,11.65a4.47,4.47,0,0,0-1.26-3.33,4.06,4.06,0,0,0-3-1.25,3.56,3.56,0,0,0-3,1.62A7.65,7.65,0,0,0,215,93.31,8.86,8.86,0,0,0,216,98.14a3.38,3.38,0,0,0,3,1.66,4,4,0,0,0,3-1.44A4.86,4.86,0,0,0,223.35,95Z"/><path class="cls-1" d="M92.75,139.79H90.19v-5.08H79.63v-1.79L89.43,118h3.32V132.6H96.2v2.11H92.75Zm-2.56-7.19V122.52c0-.72,0-1.51,0-2.35-.44.82-.83,1.49-1.15,2L82.41,132.6Z"/><path class="cls-1" d="M103.59,129.76v-2.11H106a5.38,5.38,0,0,0,3.82-1.1,3.53,3.53,0,0,0,1.15-2.66,3.31,3.31,0,0,0-1.28-2.74,5.4,5.4,0,0,0-8.19,2.47l-2.4-.69q2.06-4.91,7.62-4.9a7.44,7.44,0,0,1,5,1.66,5.14,5.14,0,0,1,1.92,4,4.73,4.73,0,0,1-1.16,3.17,5,5,0,0,1-3,1.7,6.16,6.16,0,0,1,3.5,1.7,4.84,4.84,0,0,1,1.46,3.64,5.67,5.67,0,0,1-2.17,4.5,10.34,10.34,0,0,1-11.09.4,7.38,7.38,0,0,1-3-3.78l2.49-.83q1.13,3.86,5.55,3.86a5.78,5.78,0,0,0,4.13-1.23,4,4,0,0,0,1.26-2.94,3.61,3.61,0,0,0-1.51-3,6.91,6.91,0,0,0-4.23-1.14Z"/><path class="cls-1" d="M122.36,129.76v-2.11h2.44a5.4,5.4,0,0,0,3.82-1.1,3.57,3.57,0,0,0,1.15-2.66,3.3,3.3,0,0,0-1.29-2.74,5.39,5.39,0,0,0-8.18,2.47l-2.41-.69Q120,118,125.52,118a7.42,7.42,0,0,1,5,1.66,5.14,5.14,0,0,1,1.92,4,4.72,4.72,0,0,1-1.15,3.17,5,5,0,0,1-3,1.7,6.13,6.13,0,0,1,3.49,1.7,4.81,4.81,0,0,1,1.46,3.64,5.64,5.64,0,0,1-2.17,4.5,10.34,10.34,0,0,1-11.09.4,7.31,7.31,0,0,1-2.94-3.78l2.48-.83q1.13,3.86,5.55,3.86a5.76,5.76,0,0,0,4.13-1.23,4,4,0,0,0,1.26-2.94,3.58,3.58,0,0,0-1.51-3,6.85,6.85,0,0,0-4.22-1.14Z"/><path class="cls-1" d="M140.52,129.34a3.77,3.77,0,0,1-3.23-1.63,6.47,6.47,0,0,1-1.18-3.93,6.61,6.61,0,0,1,1.14-3.93,4.08,4.08,0,0,1,6.54.08,7,7,0,0,1,1.12,3.91,6.54,6.54,0,0,1-1.16,3.85A3.72,3.72,0,0,1,140.52,129.34Zm0-1.22a2.19,2.19,0,0,0,2-1.17,6,6,0,0,0,.66-3,6.8,6.8,0,0,0-.68-3.26,2.23,2.23,0,0,0-2.09-1.27q-2.69,0-2.68,4.26C137.78,126.65,138.71,128.12,140.55,128.12Zm.45,11.67h-2L152,118.46h1.94Zm11.44.22a3.74,3.74,0,0,1-3.24-1.64,7.27,7.27,0,0,1,0-7.85,4.07,4.07,0,0,1,6.53.08,7,7,0,0,1,1.11,3.91,6.6,6.6,0,0,1-1.15,3.84A3.69,3.69,0,0,1,152.44,140Zm0-1.25a2.16,2.16,0,0,0,2-1.15,5.91,5.91,0,0,0,.67-3,7.07,7.07,0,0,0-.67-3.22,2.21,2.21,0,0,0-2.09-1.3q-2.7,0-2.7,4.25C149.67,137.31,150.6,138.76,152.46,138.76Z"/><path class="cls-1" d="M184,139.79h-2.8l-3.93-9.23h-6.11v9.23h-2.5V118.46h8.4a6.44,6.44,0,0,1,5.07,1.87,6.06,6.06,0,0,1,1.65,4.09,6.37,6.37,0,0,1-.92,3.26,5.15,5.15,0,0,1-3.05,2.24Zm-12.84-11.4h5.57a4.27,4.27,0,0,0,3.29-1.17,4,4,0,0,0,1.09-2.85,3.18,3.18,0,0,0-1.15-2.62,4.4,4.4,0,0,0-2.9-.94h-5.9Z"/><path class="cls-1" d="M195.2,140.23a7.43,7.43,0,0,1-6.4-3.2,13.08,13.08,0,0,1-2.3-7.84,12.77,12.77,0,0,1,2.41-8,8,8,0,0,1,12.72-.06A12.48,12.48,0,0,1,204,129a13.64,13.64,0,0,1-2.32,7.9A7.45,7.45,0,0,1,195.2,140.23Zm.07-2.17a4.9,4.9,0,0,0,4.37-2.55,12.34,12.34,0,0,0,1.58-6.57,11.05,11.05,0,0,0-1.63-6.43,5.09,5.09,0,0,0-4.34-2.3,4.94,4.94,0,0,0-4.34,2.49,11.76,11.76,0,0,0-1.61,6.51,11.47,11.47,0,0,0,1.62,6.39A5,5,0,0,0,195.27,138.06Z"/><path class="cls-1" d="M210.7,139.79H208V118.46h2.67Z"/><path class="cls-1" d="M90.34,183.52H87.89V162.41h2.22v3.06q1.67-3.5,5-3.5a5.35,5.35,0,0,1,4.51,2.34,11.33,11.33,0,0,1,0,12.05A5.51,5.51,0,0,1,95,178.63a5.24,5.24,0,0,1-4.68-2.83Zm0-15.5v4.45a4.68,4.68,0,0,0,1.52,3,3.92,3.92,0,0,0,2.67,1.17,3.72,3.72,0,0,0,2.85-1.41c.83-.94,1.25-2.55,1.25-4.86a8,8,0,0,0-1.13-4.6,3.47,3.47,0,0,0-3-1.62,3.73,3.73,0,0,0-2.64,1.14A5.65,5.65,0,0,0,90.34,168Z"/><path class="cls-1" d="M117.33,178.19h-2.42a26.12,26.12,0,0,1-.28-2.84,5.69,5.69,0,0,1-5.54,3.28,5.52,5.52,0,0,1-4.07-1.41,4.58,4.58,0,0,1-1.43-3.38,4.72,4.72,0,0,1,2-3.93q2-1.54,6.9-1.55c.44,0,1.14,0,2.1.07a9.13,9.13,0,0,0-.29-2.71,2.45,2.45,0,0,0-1.23-1.34,5.31,5.31,0,0,0-2.47-.5q-3.73,0-4.34,2.84l-2.27-.39c.55-2.9,2.88-4.36,7-4.36,2.18,0,3.72.49,4.63,1.45s1.37,2.63,1.37,5v6.7A13.17,13.17,0,0,0,117.33,178.19Zm-2.7-7.89c-1-.06-1.77-.09-2.29-.09a9,9,0,0,0-4.51.95,3.05,3.05,0,0,0-1.61,2.79,2.6,2.6,0,0,0,.87,2,3.47,3.47,0,0,0,2.5.82,4.67,4.67,0,0,0,3.65-1.61,5.52,5.52,0,0,0,1.43-3.8C114.67,171,114.66,170.7,114.63,170.3Zm-1-12.83a2.7,2.7,0,0,1-2.68,2.69,2.65,2.65,0,0,1-1.93-.8,2.56,2.56,0,0,1-.81-1.9,2.62,2.62,0,0,1,.81-1.91,2.68,2.68,0,0,1,2-.81,2.49,2.49,0,0,1,1.83.8A2.65,2.65,0,0,1,113.59,157.47Zm-1.29,0a1.4,1.4,0,0,0-.41-1A1.25,1.25,0,0,0,111,156a1.47,1.47,0,0,0-1.09.42,1.39,1.39,0,0,0,0,2,1.39,1.39,0,0,0,1,.42,1.31,1.31,0,0,0,1-.41A1.34,1.34,0,0,0,112.3,157.47Z"/><path class="cls-1" d="M142.33,178.19h-2.22v-3c-1.12,2.3-2.8,3.45-5,3.45a4.73,4.73,0,0,1-3.8-1.6,6.7,6.7,0,0,1-1.38-4.53V162.41h2.45v10.08a4.23,4.23,0,0,0,1,3.23,3.15,3.15,0,0,0,2.14.88,3.63,3.63,0,0,0,2.15-.67,5.12,5.12,0,0,0,1.6-1.92,5.8,5.8,0,0,0,.65-2.71v-8.89h2.45Z"/><path class="cls-1" d="M159.67,178.19h-2.29V168.05a4.09,4.09,0,0,0-1-3.08,3.26,3.26,0,0,0-2.31-.89,4,4,0,0,0-3.15,1.5,5.9,5.9,0,0,0-1.27,4v8.65h-2.46V162.41h2.29v2.91q1.92-3.34,5-3.35a4.94,4.94,0,0,1,3,.92,4.84,4.84,0,0,1,1.7,2.05,12.45,12.45,0,0,1,.46,4.13Z"/><path class="cls-1" d="M176.91,156.86v21.33h-2.22v-2.7a5.35,5.35,0,0,1-5,3.14,5.51,5.51,0,0,1-4.56-2.32,9.37,9.37,0,0,1-1.78-5.88,10,10,0,0,1,1.77-6,5.51,5.51,0,0,1,4.68-2.42,5.44,5.44,0,0,1,4.64,2.6v-7.71Zm-2.46,11.64a4.46,4.46,0,0,0-1.26-3.32,4.06,4.06,0,0,0-3-1.25,3.57,3.57,0,0,0-3,1.62,7.65,7.65,0,0,0-1.18,4.56,8.86,8.86,0,0,0,1.08,4.83,3.39,3.39,0,0,0,3,1.66,4,4,0,0,0,3-1.44,4.81,4.81,0,0,0,1.31-3.37Z"/><path class="cls-1" d="M192.23,173.49l2.29.47a6.46,6.46,0,0,1-2.44,3.35,7.06,7.06,0,0,1-4.27,1.32,6.63,6.63,0,0,1-5.23-2.28,8.65,8.65,0,0,1-2-6,8.76,8.76,0,0,1,2.08-6.09,6.69,6.69,0,0,1,5.22-2.33,6.31,6.31,0,0,1,5,2.14q1.89,2.14,1.93,6.41H183.31q0,3.58,1.5,4.83A4.91,4.91,0,0,0,188,176.6,4.34,4.34,0,0,0,192.23,173.49Zm-.14-4.8a6.89,6.89,0,0,0-.43-2.36,4,4,0,0,0-1.38-1.75,3.72,3.72,0,0,0-2.33-.73,4.17,4.17,0,0,0-3.1,1.31,5.46,5.46,0,0,0-1.43,3.53Z"/><path class="cls-1" d="M200.92,178.19h-2.45V162.41h2.16v3.69a7.91,7.91,0,0,1,2.28-3.38,4.16,4.16,0,0,1,2.36-.78q.38,0,1,.06v2.35h-.5a4.3,4.3,0,0,0-3.37,1.51,6.15,6.15,0,0,0-1.44,4Z"/><path class="cls-1" d="M93.05,199.62l-2.4.66a4.5,4.5,0,0,0-4.5-3.25q-6,0-6.14,9.92a6.79,6.79,0,0,1,2.7-3.26,7,7,0,0,1,3.7-1.07,6.67,6.67,0,0,1,5,2.08,6.86,6.86,0,0,1,2,5,7.18,7.18,0,0,1-2.13,5.19A7.35,7.35,0,0,1,85.8,217a7.27,7.27,0,0,1-6-2.85,12.29,12.29,0,0,1-2.24-7.77,15.08,15.08,0,0,1,2.12-8.19,7.17,7.17,0,0,1,6.55-3.39A6.68,6.68,0,0,1,93.05,199.62Zm-7.29,15.27a5.11,5.11,0,0,0,3.74-8.63A4.64,4.64,0,0,0,86,204.78a5.25,5.25,0,0,0-3.76,1.55,4.86,4.86,0,0,0-.18,7.06A4.92,4.92,0,0,0,85.76,214.89Z"/><path class="cls-1" d="M126.27,216.59h-2.39v-9.81a9.08,9.08,0,0,0-.21-2.27,2.69,2.69,0,0,0-1-1.39,2.86,2.86,0,0,0-1.83-.64,3.85,3.85,0,0,0-2.71,1.29,5.31,5.31,0,0,0-1.31,3.93v8.89h-2.37V206.2a3.75,3.75,0,0,0-1-2.94,3.16,3.16,0,0,0-2.09-.85,3.48,3.48,0,0,0-2.72,1.34,5,5,0,0,0-1.15,3.41v9.43h-2.35V200.81h2.11v3q1.77-3.47,4.86-3.47a4.07,4.07,0,0,1,2.89,1.11,5.08,5.08,0,0,1,1.53,2.68q1.64-3.79,5-3.79a4.51,4.51,0,0,1,2.82.93,4.26,4.26,0,0,1,1.58,2.11,12.27,12.27,0,0,1,.36,3.37Z"/><path class="cls-1" d="M143.52,216.59H141.1c-.09-.5-.19-1.44-.28-2.84a5.68,5.68,0,0,1-5.53,3.28,5.56,5.56,0,0,1-4.08-1.41,4.57,4.57,0,0,1-1.42-3.38,4.74,4.74,0,0,1,2-3.93c1.35-1,3.66-1.55,6.91-1.55.43,0,1.13,0,2.09.07a9.13,9.13,0,0,0-.29-2.71,2.38,2.38,0,0,0-1.23-1.34,5.24,5.24,0,0,0-2.46-.5q-3.74,0-4.35,2.84l-2.26-.39c.55-2.9,2.87-4.36,7-4.36,2.17,0,3.72.49,4.63,1.45s1.37,2.63,1.37,5v6.7A13.19,13.19,0,0,0,143.52,216.59Zm-2.7-7.89q-1.5-.09-2.28-.09a9,9,0,0,0-4.52.95,3.07,3.07,0,0,0-1.61,2.79,2.63,2.63,0,0,0,.87,2,3.56,3.56,0,0,0,2.51.81,4.68,4.68,0,0,0,3.65-1.61,5.56,5.56,0,0,0,1.43-3.79C140.87,209.44,140.85,209.1,140.82,208.7Zm-1-12.83a2.7,2.7,0,0,1-2.69,2.69,2.61,2.61,0,0,1-1.92-.8,2.56,2.56,0,0,1-.81-1.9,2.65,2.65,0,0,1,.8-1.91,2.7,2.7,0,0,1,2-.81,2.53,2.53,0,0,1,1.84.8A2.65,2.65,0,0,1,139.79,195.87Zm-1.3,0a1.39,1.39,0,0,0-.4-1,1.27,1.27,0,0,0-.93-.42,1.45,1.45,0,0,0-1.08.42,1.37,1.37,0,0,0,0,2,1.34,1.34,0,0,0,1,.42,1.38,1.38,0,0,0,1.39-1.39Z"/><path class="cls-1" d="M160.54,216.59h-2.3V206.45a4.13,4.13,0,0,0-1-3.08,3.29,3.29,0,0,0-2.31-.89,4,4,0,0,0-3.15,1.5,5.91,5.91,0,0,0-1.28,4v8.65H148.1V200.81h2.28v2.91c1.28-2.23,3-3.35,5-3.35a5.07,5.07,0,0,1,4.71,3,12.45,12.45,0,0,1,.46,4.13Z"/><path class="cls-1" d="M175.87,211.89l2.28.47a6.46,6.46,0,0,1-2.44,3.35,7,7,0,0,1-4.26,1.32,6.63,6.63,0,0,1-5.24-2.28,9.92,9.92,0,0,1,.08-12.05,6.69,6.69,0,0,1,5.22-2.33,6.31,6.31,0,0,1,5,2.14q1.89,2.15,1.93,6.41H167q0,3.59,1.5,4.83a4.89,4.89,0,0,0,3.17,1.25A4.34,4.34,0,0,0,175.87,211.89Zm-.14-4.8a6.89,6.89,0,0,0-.44-2.36,4,4,0,0,0-1.38-1.75,3.71,3.71,0,0,0-2.32-.73,4.19,4.19,0,0,0-3.11,1.31,5.51,5.51,0,0,0-1.43,3.53Z"/><path class="cls-1" d="M194.43,195.26v21.33h-2.22v-2.7a5.34,5.34,0,0,1-5,3.14,5.49,5.49,0,0,1-4.55-2.32,9.38,9.38,0,0,1-1.79-5.88,10,10,0,0,1,1.77-6,5.54,5.54,0,0,1,4.69-2.42A5.45,5.45,0,0,1,192,203v-7.71ZM192,206.91a4.48,4.48,0,0,0-1.27-3.33,4,4,0,0,0-3-1.25,3.59,3.59,0,0,0-3,1.62,7.65,7.65,0,0,0-1.18,4.56,8.77,8.77,0,0,0,1.09,4.83,3.36,3.36,0,0,0,3,1.66,4,4,0,0,0,3-1.44,4.82,4.82,0,0,0,1.32-3.37Z"/><path class="cls-1" d="M209.76,211.89l2.28.47a6.46,6.46,0,0,1-2.44,3.35,7,7,0,0,1-4.26,1.32,6.63,6.63,0,0,1-5.24-2.28,9.92,9.92,0,0,1,.08-12.05,6.69,6.69,0,0,1,5.22-2.33,6.34,6.34,0,0,1,5,2.14q1.88,2.15,1.92,6.41H200.84q0,3.59,1.5,4.83a4.89,4.89,0,0,0,3.17,1.25A4.34,4.34,0,0,0,209.76,211.89Zm-.14-4.8a6.89,6.89,0,0,0-.44-2.36A4,4,0,0,0,207.8,203a3.71,3.71,0,0,0-2.32-.73,4.15,4.15,0,0,0-3.1,1.31,5.41,5.41,0,0,0-1.43,3.53Z"/><path class="cls-1" d="M218.45,216.59H216V200.81h2.16v3.69a7.82,7.82,0,0,1,2.29-3.38,4.13,4.13,0,0,1,2.35-.78,8,8,0,0,1,1,.07v2.34h-.5a4.32,4.32,0,0,0-3.38,1.51,6.19,6.19,0,0,0-1.43,4Z"/></svg>