<svg id="Layer_1" data-name="Layer 1" xmlns="http://www.w3.org/2000/svg" viewBox="0 0 300 600"><defs><style>.cls-1{fill:#fff;}</style></defs><title>text</title><path class="cls-1" d="M132.44,288.83l2.63-.6Q136.66,293,142,293a6.36,6.36,0,0,0,4.17-1.17,3.93,3.93,0,0,0,1.4-3.15,3,3,0,0,0-1.07-2.4A5.76,5.76,0,0,0,144,285l-4.67-1.15a12.07,12.07,0,0,1-3-1.13,5.28,5.28,0,0,1-2-2,6.07,6.07,0,0,1-.81-3.14,5.63,5.63,0,0,1,2.21-4.66,8.84,8.84,0,0,1,5.65-1.74q6.36,0,8.36,5.76l-2.65.79a4.68,4.68,0,0,0-2.17-3.1,6.83,6.83,0,0,0-3.64-1.05,5.9,5.9,0,0,0-3.41,1,3.27,3.27,0,0,0-1.49,2.87c0,1.73,1.26,2.89,3.79,3.5l4.36,1q6,1.44,6,6.45a6.47,6.47,0,0,1-2.25,5,9.18,9.18,0,0,1-6.33,2Q134.77,295.48,132.44,288.83Z"/><path class="cls-1" d="M166.09,289.86l2.5.51a7.1,7.1,0,0,1-2.67,3.66,7.67,7.67,0,0,1-4.67,1.45,7.26,7.26,0,0,1-5.72-2.49,9.51,9.51,0,0,1-2.19-6.53,9.64,9.64,0,0,1,2.27-6.66,7.36,7.36,0,0,1,5.71-2.54,6.92,6.92,0,0,1,5.45,2.34q2.05,2.34,2.11,7H156.33q0,3.92,1.64,5.28a5.37,5.37,0,0,0,3.47,1.37A4.75,4.75,0,0,0,166.09,289.86Zm-.15-5.25a7.8,7.8,0,0,0-.48-2.58,4.42,4.42,0,0,0-1.51-1.92,4.1,4.1,0,0,0-2.54-.8,4.53,4.53,0,0,0-3.39,1.44,5.94,5.94,0,0,0-1.57,3.86Z"/><path class="cls-1" d="M107.55,337h-2.68V326.52a12.59,12.59,0,0,0-.23-2.77,2.93,2.93,0,0,0-1.1-1.59,3.14,3.14,0,0,0-2-.68,4.33,4.33,0,0,0-3.46,1.69,6.91,6.91,0,0,0-1.39,4.53V337H94V313.67H96.7v9.25q1.83-3.66,5.23-3.66a6,6,0,0,1,2.71.6,4.61,4.61,0,0,1,1.82,1.57,6.22,6.22,0,0,1,.86,1.92,15.44,15.44,0,0,1,.23,3.17Z"/><path class="cls-1" d="M125.56,319.74l-6,17.26h-2.76l-6.19-17.26h3l4.81,14,4.75-14Z"/><path class="cls-1" d="M134.36,337.48a6.53,6.53,0,0,1-5.54-2.64,10.48,10.48,0,0,1-2-6.53,9.4,9.4,0,0,1,2.24-6.59,7.22,7.22,0,0,1,5.57-2.46,6.8,6.8,0,0,1,5.63,2.59,10.12,10.12,0,0,1,2.06,6.48,9.68,9.68,0,0,1-2.22,6.59A7.26,7.26,0,0,1,134.36,337.48Zm.21-2.22a4.26,4.26,0,0,0,3.43-1.7c.93-1.12,1.39-2.88,1.39-5.26s-.49-4.13-1.45-5.2a4.46,4.46,0,0,0-3.41-1.62,4.29,4.29,0,0,0-3.38,1.63c-.92,1.09-1.38,2.82-1.38,5.17q0,3.75,1.38,5.36A4.32,4.32,0,0,0,134.57,335.26Z"/><path class="cls-1" d="M149,337h-2.68V319.74h2.36v4a8.77,8.77,0,0,1,2.5-3.7,4.59,4.59,0,0,1,2.57-.84c.28,0,.63,0,1.06.06v2.57h-.54a4.71,4.71,0,0,0-3.69,1.66,6.71,6.71,0,0,0-1.58,4.35Z"/><path class="cls-1" d="M170.82,313.67V337h-2.43v-3a5.85,5.85,0,0,1-5.46,3.44,6,6,0,0,1-5-2.54,10.27,10.27,0,0,1-1.95-6.43,10.92,10.92,0,0,1,1.93-6.61,6.06,6.06,0,0,1,5.13-2.64,6,6,0,0,1,5.07,2.84v-8.43Zm-2.69,12.73a4.92,4.92,0,0,0-1.38-3.64,4.45,4.45,0,0,0-3.23-1.36,3.92,3.92,0,0,0-3.29,1.77,8.39,8.39,0,0,0-1.29,5,9.62,9.62,0,0,0,1.19,5.29,3.7,3.7,0,0,0,3.25,1.81,4.4,4.4,0,0,0,3.32-1.58,5.29,5.29,0,0,0,1.43-3.69Z"/><path class="cls-1" d="M189.68,337H187c-.1-.55-.2-1.58-.3-3.11a6.23,6.23,0,0,1-6,3.59,6.08,6.08,0,0,1-4.46-1.54,5,5,0,0,1-1.56-3.7,5.18,5.18,0,0,1,2.22-4.3q2.22-1.69,7.56-1.69c.48,0,1.24,0,2.29.07a10,10,0,0,0-.32-3,2.66,2.66,0,0,0-1.34-1.46,5.78,5.78,0,0,0-2.7-.54c-2.72,0-4.31,1-4.75,3.11l-2.48-.43q.9-4.77,7.62-4.77,3.57,0,5.07,1.58c1,1.06,1.49,2.88,1.49,5.48v7.33A14.52,14.52,0,0,0,189.68,337Zm-3-8.63c-1.1-.07-1.93-.1-2.5-.1a9.81,9.81,0,0,0-4.94,1,3.35,3.35,0,0,0-1.76,3.05,2.85,2.85,0,0,0,.95,2.16,3.88,3.88,0,0,0,2.74.89,5.1,5.1,0,0,0,4-1.76,6,6,0,0,0,1.57-4.15C186.78,329.18,186.76,328.8,186.73,328.37Z"/><path class="cls-1" d="M208.29,337h-2.51V325.91a4.5,4.5,0,0,0-1-3.37,3.58,3.58,0,0,0-2.53-1,4.32,4.32,0,0,0-3.44,1.64,6.43,6.43,0,0,0-1.4,4.32V337h-2.68V319.74h2.5v3.18c1.4-2.44,3.21-3.66,5.45-3.66a5.51,5.51,0,0,1,5.15,3.25,13.55,13.55,0,0,1,.5,4.51Z"/><path class="cls-1" d="M119.06,367.24v12.08h-1.79l-.8-2.92a7.32,7.32,0,0,1-6.41,3.08,8.42,8.42,0,0,1-7.18-3.47,13.82,13.82,0,0,1-2.57-8.43,14.12,14.12,0,0,1,2.72-8.85,8.8,8.8,0,0,1,7.38-3.54q6.45,0,8.41,6.77l-2.77.67a6.12,6.12,0,0,0-2.24-3.78,6,6,0,0,0-3.59-1.18,5.49,5.49,0,0,0-5.09,2.79,13.66,13.66,0,0,0-1.64,7,12,12,0,0,0,1.84,7.09,5.83,5.83,0,0,0,5,2.55,5.6,5.6,0,0,0,4.11-1.63,6.08,6.08,0,0,0,1.65-4.52c0-.35,0-.77,0-1.26h-5.77v-2.45Z"/><path class="cls-1" d="M137.69,379H135c-.1-.55-.21-1.58-.31-3.11a6.22,6.22,0,0,1-6,3.59,6.1,6.1,0,0,1-4.46-1.54,5,5,0,0,1-1.55-3.7,5.18,5.18,0,0,1,2.22-4.3q2.22-1.69,7.55-1.69c.48,0,1.24,0,2.29.07a9.64,9.64,0,0,0-.32-3,2.63,2.63,0,0,0-1.34-1.46,5.78,5.78,0,0,0-2.7-.54c-2.72,0-4.3,1-4.75,3.11l-2.48-.43q.92-4.77,7.63-4.77,3.57,0,5.06,1.58c1,1.06,1.5,2.88,1.5,5.48v7.33A14.52,14.52,0,0,0,137.69,379Zm-3-8.63c-1.09-.07-1.93-.1-2.49-.1a9.79,9.79,0,0,0-4.94,1,3.33,3.33,0,0,0-1.76,3.05,2.84,2.84,0,0,0,.94,2.16,3.9,3.9,0,0,0,2.75.89,5.1,5.1,0,0,0,4-1.76,6.07,6.07,0,0,0,1.56-4.15C134.78,371.18,134.76,370.8,134.73,370.37Z"/><path class="cls-1" d="M145.38,379h-2.69V361.74h2.36v4a8.68,8.68,0,0,1,2.51-3.7,4.55,4.55,0,0,1,2.57-.84c.27,0,.62,0,1.06.06v2.57h-.55a4.71,4.71,0,0,0-3.69,1.66,6.7,6.7,0,0,0-1.57,4.35Z"/><path class="cls-1" d="M163.22,377.17v2.12a18.41,18.41,0,0,1-2.46.19q-5,0-5-5.24v-10.4h-3.06v-2.1h3.06l.12-4.34,2.5-.24v4.58h3.86v2.1h-3.86v10.85q0,2.67,2.76,2.67A12.74,12.74,0,0,0,163.22,377.17Z"/><path class="cls-1" d="M179.76,379h-2.51V367.91a4.5,4.5,0,0,0-1-3.37,3.58,3.58,0,0,0-2.53-1,4.33,4.33,0,0,0-3.45,1.64,6.48,6.48,0,0,0-1.39,4.32V379h-2.68V361.74h2.49v3.18c1.41-2.44,3.22-3.66,5.46-3.66a5.51,5.51,0,0,1,5.15,3.25,13.82,13.82,0,0,1,.5,4.51Z"/><path class="cls-1" d="M196.53,373.86l2.49.51a7,7,0,0,1-2.66,3.66,7.67,7.67,0,0,1-4.67,1.45A7.23,7.23,0,0,1,186,377a9.51,9.51,0,0,1-2.19-6.53,9.62,9.62,0,0,1,2.27-6.66,7.36,7.36,0,0,1,5.71-2.54,6.88,6.88,0,0,1,5.44,2.34q2.07,2.34,2.11,7H186.77q0,3.92,1.64,5.28a5.35,5.35,0,0,0,3.47,1.37A4.75,4.75,0,0,0,196.53,373.86Zm-.16-5.25a7.55,7.55,0,0,0-.47-2.58,4.42,4.42,0,0,0-1.51-1.92,4.13,4.13,0,0,0-2.55-.8,4.54,4.54,0,0,0-3.39,1.44,5.89,5.89,0,0,0-1.56,3.86Z"/><path class="cls-1" d="M206,379h-2.68V361.74h2.36v4a8.68,8.68,0,0,1,2.5-3.7,4.57,4.57,0,0,1,2.57-.84c.27,0,.63,0,1.06.06v2.57h-.55a4.71,4.71,0,0,0-3.69,1.66,6.7,6.7,0,0,0-1.57,4.35Z"/><path class="cls-1" d="M93.66,421H91V403.74h2.36v4a8.77,8.77,0,0,1,2.5-3.7,4.6,4.6,0,0,1,2.58-.84q.4,0,1,.06v2.57h-.54a4.71,4.71,0,0,0-3.69,1.66,6.71,6.71,0,0,0-1.58,4.35Z"/><path class="cls-1" d="M116,421h-2.65c-.1-.55-.21-1.58-.31-3.11a6.22,6.22,0,0,1-6,3.59,6.1,6.1,0,0,1-4.46-1.54,5,5,0,0,1-1.55-3.7,5.18,5.18,0,0,1,2.22-4.3q2.22-1.69,7.55-1.69c.48,0,1.24,0,2.29.07a9.64,9.64,0,0,0-.32-3,2.63,2.63,0,0,0-1.34-1.46,5.78,5.78,0,0,0-2.7-.54c-2.72,0-4.3,1-4.75,3.11l-2.48-.43q.91-4.77,7.63-4.77,3.57,0,5.06,1.58c1,1.06,1.5,2.88,1.5,5.48v7.33A14.52,14.52,0,0,0,116,421Zm-3-8.63c-1.09-.07-1.93-.1-2.49-.1a9.79,9.79,0,0,0-4.94,1,3.34,3.34,0,0,0-1.76,3.05,2.84,2.84,0,0,0,.94,2.16,3.9,3.9,0,0,0,2.75.89,5.1,5.1,0,0,0,4-1.76,6.07,6.07,0,0,0,1.56-4.15C113.11,413.18,113.09,412.8,113.06,412.37Z"/><path class="cls-1" d="M134.63,421h-2.51V409.91a4.46,4.46,0,0,0-1.05-3.37,3.54,3.54,0,0,0-2.53-1,4.36,4.36,0,0,0-3.44,1.64,6.43,6.43,0,0,0-1.39,4.32V421H121V403.74h2.5v3.18q2.1-3.66,5.45-3.66a5.36,5.36,0,0,1,3.29,1,5.26,5.26,0,0,1,1.86,2.25,13.48,13.48,0,0,1,.51,4.51Z"/><path class="cls-1" d="M154.09,401v2.14a4.91,4.91,0,0,0-2.47.42,2.32,2.32,0,0,0-.83,1.54,6.24,6.24,0,0,1,1.66,4.17,5.37,5.37,0,0,1-1.8,4.05,6.79,6.79,0,0,1-4.85,1.69,5.73,5.73,0,0,1-1.17-.1,9.89,9.89,0,0,0-1.18-.19,2.06,2.06,0,0,0-1.11.45,1.38,1.38,0,0,0-.65,1.18,1.27,1.27,0,0,0,.94,1.33,21,21,0,0,0,4.42.39,25.65,25.65,0,0,1,4.37.4,4.4,4.4,0,0,1,2.38,1.41,3.81,3.81,0,0,1,1,2.65q0,4.94-8.68,4.94-4.12,0-6-1.24A3.8,3.8,0,0,1,138.2,423a3.48,3.48,0,0,1,2.63-3.46,3.24,3.24,0,0,1-1.69-2.78c0-1.33.8-2.35,2.39-3.06a5.62,5.62,0,0,1-2.24-4.56,5.27,5.27,0,0,1,1.92-4.2,6.92,6.92,0,0,1,4.66-1.64,8.34,8.34,0,0,1,3.54.74,3.34,3.34,0,0,1,1.19-2.35,5,5,0,0,1,2.83-.65ZM142.68,420.3a2.59,2.59,0,0,0-1.88,2.37,2.26,2.26,0,0,0,1.54,2.05,9.4,9.4,0,0,0,3.94.72,12.55,12.55,0,0,0,4.07-.62c1.23-.42,1.85-1.12,1.85-2.11a1.74,1.74,0,0,0-.55-1.32,2.67,2.67,0,0,0-1.5-.65,32.61,32.61,0,0,0-3.3-.2Q144,420.47,142.68,420.3Zm3.21-7.3a3.83,3.83,0,0,0,2.79-1.05,3.67,3.67,0,0,0,1.07-2.73,3.71,3.71,0,0,0-1.12-2.79,3.75,3.75,0,0,0-2.71-1.08,4,4,0,0,0-2.7,1,4.08,4.08,0,0,0-.12,5.61A3.83,3.83,0,0,0,145.89,413Z"/><path class="cls-1" d="M168.59,415.86l2.49.51a7,7,0,0,1-2.66,3.66,7.7,7.7,0,0,1-4.67,1.45A7.27,7.27,0,0,1,158,419a10.89,10.89,0,0,1,.09-13.19,7.36,7.36,0,0,1,5.71-2.54,6.89,6.89,0,0,1,5.44,2.34c1.37,1.56,2.08,3.9,2.11,7H158.83c0,2.61.54,4.37,1.64,5.28a5.35,5.35,0,0,0,3.47,1.37A4.75,4.75,0,0,0,168.59,415.86Zm-.16-5.25A7.32,7.32,0,0,0,168,408a4.33,4.33,0,0,0-1.5-1.92,4.15,4.15,0,0,0-2.55-.8,4.54,4.54,0,0,0-3.39,1.44,5.89,5.89,0,0,0-1.56,3.86Z"/><path class="cls-1" d="M178.09,421H175.4V403.74h2.36v4a8.68,8.68,0,0,1,2.51-3.7,4.55,4.55,0,0,1,2.57-.84c.27,0,.62,0,1.06.06v2.57h-.55a4.71,4.71,0,0,0-3.69,1.66,6.7,6.7,0,0,0-1.57,4.35Z"/><path class="cls-1" d="M198.34,415.86l2.49.51a7,7,0,0,1-2.66,3.66,7.67,7.67,0,0,1-4.67,1.45,7.25,7.25,0,0,1-5.72-2.49,9.51,9.51,0,0,1-2.19-6.53,9.64,9.64,0,0,1,2.27-6.66,7.36,7.36,0,0,1,5.71-2.54A6.88,6.88,0,0,1,199,405.6c1.38,1.56,2.08,3.9,2.12,7H188.58q0,3.92,1.64,5.28a5.37,5.37,0,0,0,3.47,1.37A4.75,4.75,0,0,0,198.34,415.86Zm-.15-5.25a7.8,7.8,0,0,0-.48-2.58,4.42,4.42,0,0,0-1.51-1.92,4.1,4.1,0,0,0-2.54-.8,4.55,4.55,0,0,0-3.4,1.44,5.89,5.89,0,0,0-1.56,3.86Z"/><path class="cls-1" d="M207.84,421h-2.68V403.74h2.36v4a8.68,8.68,0,0,1,2.5-3.7,4.57,4.57,0,0,1,2.57-.84c.28,0,.63,0,1.06.06v2.57h-.55a4.71,4.71,0,0,0-3.69,1.66,6.7,6.7,0,0,0-1.57,4.35Z"/><path class="cls-1" d="M133.78,455.16l2.67.59q-1.92,7.72-8.65,7.73a8,8,0,0,1-7-3.58,14.86,14.86,0,0,1-2.52-8.79,13.4,13.4,0,0,1,2.63-8.65,8.61,8.61,0,0,1,7.06-3.27q6.57,0,8.43,7.51l-2.75.54c-1-3.71-2.9-5.57-5.69-5.57a5.44,5.44,0,0,0-4.8,2.59,13.23,13.23,0,0,0-1.7,7.27,12.13,12.13,0,0,0,1.74,6.88,5.35,5.35,0,0,0,4.62,2.59Q132.32,461,133.78,455.16Z"/><path class="cls-1" d="M162.6,463h-2.84V442.63L152.19,463h-2l-7.65-20.37V463h-2.48V439.67h4.33l7,18.66,6.88-18.66h4.28Z"/><path class="cls-1" d="M165.86,456.83l2.63-.6q1.59,4.77,6.89,4.77a6.4,6.4,0,0,0,4.17-1.17,3.93,3.93,0,0,0,1.4-3.15,3,3,0,0,0-1.07-2.4,5.74,5.74,0,0,0-2.47-1.25l-4.66-1.15a12.07,12.07,0,0,1-3-1.13,5.28,5.28,0,0,1-1.95-2,6.07,6.07,0,0,1-.81-3.14,5.63,5.63,0,0,1,2.21-4.66,8.84,8.84,0,0,1,5.65-1.74q6.36,0,8.36,5.76l-2.65.79a4.68,4.68,0,0,0-2.17-3.1,6.83,6.83,0,0,0-3.64-1.05,5.9,5.9,0,0,0-3.41,1,3.25,3.25,0,0,0-1.49,2.87c0,1.73,1.26,2.89,3.79,3.5l4.36,1q6,1.44,6,6.45a6.47,6.47,0,0,1-2.25,5,9.18,9.18,0,0,1-6.33,2Q168.19,463.48,165.86,456.83Z"/><path class="cls-1" d="M76.25,500.52l2.56-.53q.85,3.27,5.4,3.27a5.11,5.11,0,0,0,2.84-.75,2.41,2.41,0,0,0,1.16-2.12c0-1.35-1-2.21-3-2.58l-3.63-.69a6.71,6.71,0,0,1-3.41-1.6A4.18,4.18,0,0,1,77,492.35a4.59,4.59,0,0,1,1.73-3.63,7,7,0,0,1,4.64-1.46c3.75,0,6.07,1.46,6.94,4.39l-2.46.53c-.7-1.8-2.16-2.7-4.36-2.7a4.9,4.9,0,0,0-2.69.68,2.12,2.12,0,0,0-1,1.88c0,1.28.9,2.08,2.69,2.41l3.36.6Q91,496,91,500.17a4.55,4.55,0,0,1-2,3.84,8.54,8.54,0,0,1-5.23,1.47Q77.71,505.48,76.25,500.52Z"/><path class="cls-1" d="M106.66,487.74,99.74,507q-1.51,4.17-4.81,4.17a8.47,8.47,0,0,1-2.31-.36v-2.1a8.76,8.76,0,0,0,1.8.23,3.19,3.19,0,0,0,2.14-.73,8.24,8.24,0,0,0,1.72-3.58l-6-16.91H95l4.63,13,4.72-13Z"/><path class="cls-1" d="M107,500.52l2.56-.53q.86,3.27,5.4,3.27a5.11,5.11,0,0,0,2.84-.75,2.39,2.39,0,0,0,1.16-2.12c0-1.35-1-2.21-3-2.58l-3.64-.69a6.63,6.63,0,0,1-3.4-1.6,4.15,4.15,0,0,1-1.27-3.17,4.59,4.59,0,0,1,1.73-3.63,7,7,0,0,1,4.65-1.46c3.74,0,6.06,1.46,6.93,4.39l-2.46.53a4.2,4.2,0,0,0-4.35-2.7,4.91,4.91,0,0,0-2.7.68,2.12,2.12,0,0,0-1.05,1.88c0,1.28.9,2.08,2.69,2.41l3.36.6q5.28,1,5.28,5.12a4.55,4.55,0,0,1-2,3.84,8.54,8.54,0,0,1-5.23,1.47Q108.47,505.48,107,500.52Z"/><path class="cls-1" d="M133.4,503.17v2.12a18.41,18.41,0,0,1-2.46.19q-5,0-5-5.24v-10.4h-3.06v-2.1h3.06l.12-4.34,2.49-.24v4.58h3.87v2.1h-3.87v10.85c0,1.78.93,2.67,2.77,2.67A12.74,12.74,0,0,0,133.4,503.17Z"/><path class="cls-1" d="M147.14,499.86l2.49.51A7,7,0,0,1,147,504a7.67,7.67,0,0,1-4.67,1.45,7.23,7.23,0,0,1-5.72-2.49,9.51,9.51,0,0,1-2.19-6.53,9.64,9.64,0,0,1,2.27-6.66,7.36,7.36,0,0,1,5.71-2.54,6.88,6.88,0,0,1,5.44,2.34q2.07,2.34,2.11,7H137.38q0,3.92,1.64,5.28a5.35,5.35,0,0,0,3.47,1.37A4.75,4.75,0,0,0,147.14,499.86Zm-.16-5.25a7.55,7.55,0,0,0-.47-2.58,4.42,4.42,0,0,0-1.51-1.92,4.12,4.12,0,0,0-2.54-.8,4.55,4.55,0,0,0-3.4,1.44,5.89,5.89,0,0,0-1.56,3.86Z"/><path class="cls-1" d="M177.08,505h-2.62V494.27a9.67,9.67,0,0,0-.23-2.49,2.92,2.92,0,0,0-1.12-1.52,3.15,3.15,0,0,0-2-.69,4.22,4.22,0,0,0-3,1.41,5.81,5.81,0,0,0-1.43,4.3V505h-2.59V493.63a4.09,4.09,0,0,0-1.09-3.21,3.46,3.46,0,0,0-2.28-.94,3.8,3.8,0,0,0-3,1.47,5.48,5.48,0,0,0-1.27,3.73V505H154V487.74h2.3v3.31c1.29-2.52,3.06-3.79,5.32-3.79a4.5,4.5,0,0,1,3.16,1.21,5.61,5.61,0,0,1,1.68,2.93q1.77-4.14,5.45-4.14a5,5,0,0,1,3.08,1,4.67,4.67,0,0,1,1.73,2.31,13.13,13.13,0,0,1,.4,3.69Z"/><path class="cls-1" d="M193.84,499.86l2.5.51a7,7,0,0,1-2.67,3.66,7.64,7.64,0,0,1-4.66,1.45,7.27,7.27,0,0,1-5.73-2.49,10.89,10.89,0,0,1,.09-13.19,7.34,7.34,0,0,1,5.71-2.54,6.89,6.89,0,0,1,5.44,2.34c1.37,1.56,2.08,3.9,2.11,7H184.09c0,2.61.54,4.37,1.64,5.28a5.35,5.35,0,0,0,3.47,1.37A4.75,4.75,0,0,0,193.84,499.86Zm-.15-5.25a7.32,7.32,0,0,0-.48-2.58,4.4,4.4,0,0,0-1.5-1.92,4.15,4.15,0,0,0-2.55-.8,4.54,4.54,0,0,0-3.39,1.44,5.89,5.89,0,0,0-1.56,3.86Z"/><path class="cls-1" d="M214.27,505h-2.52V493.91a4.46,4.46,0,0,0-1-3.37,3.56,3.56,0,0,0-2.53-1,4.36,4.36,0,0,0-3.44,1.64,6.43,6.43,0,0,0-1.39,4.32V505h-2.69V487.74h2.5v3.18q2.1-3.66,5.45-3.66a5.38,5.38,0,0,1,3.29,1,5.26,5.26,0,0,1,1.86,2.25,13.48,13.48,0,0,1,.51,4.51Z"/><path class="cls-1" d="M231,499.86l2.5.51a7.1,7.1,0,0,1-2.67,3.66,7.67,7.67,0,0,1-4.66,1.45,7.27,7.27,0,0,1-5.73-2.49,10.85,10.85,0,0,1,.09-13.19,7.32,7.32,0,0,1,5.7-2.54,6.92,6.92,0,0,1,5.45,2.34q2.06,2.34,2.11,7H221.27q0,3.92,1.64,5.28a5.37,5.37,0,0,0,3.47,1.37A4.75,4.75,0,0,0,231,499.86Zm-.15-5.25a7.32,7.32,0,0,0-.48-2.58,4.47,4.47,0,0,0-1.5-1.92,4.15,4.15,0,0,0-2.55-.8,4.54,4.54,0,0,0-3.39,1.44,5.94,5.94,0,0,0-1.57,3.86Z"/></svg>