<svg id="Layer_1" data-name="Layer 1" xmlns="http://www.w3.org/2000/svg" viewBox="0 0 300 600"><defs><style>.cls-1{fill:#fff;}</style></defs><title>text</title><path class="cls-1" d="M115.26,182.05h-2.93V170.94H101.52v11.11H98.59V158.72h2.93v9.66h10.81v-9.66h2.93Z"/><path class="cls-1" d="M133.49,164.79l-6,17.26h-2.76l-6.19-17.26h3l4.81,14,4.74-14Z"/><path class="cls-1" d="M139.37,158.72v3h-2.89v-3Zm-.09,6.07v17.26H136.6V164.79Z"/><path class="cls-1" d="M147.32,182.05h-2.69V158.72h2.69Z"/><path class="cls-1" d="M166.94,182.05h-2.79l-5-9.63-3.74,4.3v5.33h-2.69V158.72h2.69v15l8-8.89h2.87l-5.39,6.06Z"/><path class="cls-1" d="M180.85,176.91l2.49.51a7,7,0,0,1-2.66,3.66,7.7,7.7,0,0,1-4.67,1.45,7.23,7.23,0,0,1-5.72-2.49,9.51,9.51,0,0,1-2.19-6.52,9.67,9.67,0,0,1,2.27-6.67,7.36,7.36,0,0,1,5.71-2.54,6.89,6.89,0,0,1,5.44,2.34c1.38,1.57,2.08,3.9,2.11,7H171.09q0,3.92,1.64,5.28a5.35,5.35,0,0,0,3.47,1.37A4.74,4.74,0,0,0,180.85,176.91Zm-.16-5.25a7.32,7.32,0,0,0-.48-2.58,4.33,4.33,0,0,0-1.5-1.92,4.13,4.13,0,0,0-2.55-.8,4.54,4.54,0,0,0-3.39,1.44,5.91,5.91,0,0,0-1.56,3.86Z"/><path class="cls-1" d="M195.32,180.22v2.12a18.18,18.18,0,0,1-2.46.19q-5,0-5-5.23V166.89h-3.06v-2.1h3.06l.12-4.34,2.5-.24v4.58h3.86v2.1h-3.86v10.85c0,1.78.92,2.67,2.77,2.67A12.63,12.63,0,0,0,195.32,180.22Z"/><path class="cls-1" d="M128.25,216.21l2.67.6q-1.92,7.73-8.65,7.72a8,8,0,0,1-7-3.57,14.9,14.9,0,0,1-2.52-8.79,13.38,13.38,0,0,1,2.64-8.66,8.56,8.56,0,0,1,7-3.26q6.57,0,8.43,7.5l-2.75.55c-1-3.72-2.9-5.58-5.69-5.58a5.44,5.44,0,0,0-4.8,2.59,13.23,13.23,0,0,0-1.7,7.27,12,12,0,0,0,1.75,6.88,5.32,5.32,0,0,0,4.61,2.59Q126.8,222.05,128.25,216.21Z"/><path class="cls-1" d="M157.07,224.05h-2.84V203.68l-7.57,20.37h-2L137,203.68v20.37h-2.48V200.72h4.33l7,18.66,6.87-18.66h4.28Z"/><path class="cls-1" d="M160.33,217.88l2.63-.59q1.59,4.76,6.89,4.76a6.38,6.38,0,0,0,4.17-1.17,3.9,3.9,0,0,0,1.4-3.15,3,3,0,0,0-1.07-2.4,5.87,5.87,0,0,0-2.46-1.25l-4.67-1.15a12.09,12.09,0,0,1-3-1.12,5.38,5.38,0,0,1-1.95-2,6,6,0,0,1-.81-3.13A5.65,5.65,0,0,1,163.7,202a8.89,8.89,0,0,1,5.65-1.73q6.36,0,8.36,5.76l-2.65.78a4.68,4.68,0,0,0-2.17-3.1,6.83,6.83,0,0,0-3.64-1.05,6,6,0,0,0-3.41,1,3.26,3.26,0,0,0-1.49,2.87q0,2.59,3.79,3.5l4.36,1q6,1.44,6,6.45a6.45,6.45,0,0,1-2.25,5,9.18,9.18,0,0,1-6.33,2Q162.65,224.53,160.33,217.88Z"/><path class="cls-1" d="M92.68,261.58l2.56-.54q.86,3.27,5.4,3.27a5.11,5.11,0,0,0,2.84-.75,2.37,2.37,0,0,0,1.16-2.12c0-1.35-1-2.21-3-2.58l-3.64-.69a6.55,6.55,0,0,1-3.4-1.6,4.13,4.13,0,0,1-1.27-3.16,4.6,4.6,0,0,1,1.73-3.64,7,7,0,0,1,4.65-1.46c3.74,0,6.06,1.47,6.93,4.4l-2.46.53a4.2,4.2,0,0,0-4.35-2.7,4.91,4.91,0,0,0-2.7.67,2.13,2.13,0,0,0-1.05,1.89c0,1.27.9,2.07,2.69,2.4l3.36.61q5.28,1,5.28,5.11a4.58,4.58,0,0,1-2,3.85,8.6,8.6,0,0,1-5.23,1.46Q94.14,266.53,92.68,261.58Z"/><path class="cls-1" d="M125.49,266.05h-2.78l-5-9.63-3.75,4.3v5.33h-2.68V242.72h2.68v15l8-8.89h2.87l-5.39,6.06Z"/><path class="cls-1" d="M142,266.05h-2.65c-.1-.54-.2-1.58-.3-3.11a6.23,6.23,0,0,1-6.05,3.59,6,6,0,0,1-4.46-1.54,5,5,0,0,1-1.56-3.7,5.18,5.18,0,0,1,2.22-4.3c1.48-1.12,4-1.69,7.56-1.69.47,0,1.24,0,2.29.07a9.88,9.88,0,0,0-.32-3,2.63,2.63,0,0,0-1.34-1.46,5.71,5.71,0,0,0-2.7-.55q-4.09,0-4.75,3.11l-2.48-.43q.9-4.77,7.62-4.77,3.57,0,5.07,1.58c1,1.06,1.49,2.88,1.49,5.48v7.33A14.52,14.52,0,0,0,142,266.05Zm-2.95-8.63c-1.1-.07-1.93-.1-2.5-.1a9.79,9.79,0,0,0-4.94,1,3.36,3.36,0,0,0-1.76,3.05,2.85,2.85,0,0,0,1,2.16,3.83,3.83,0,0,0,2.74.89,5.07,5.07,0,0,0,4-1.76,6,6,0,0,0,1.57-4.15C139.1,258.23,139.08,257.86,139.05,257.42Z"/><path class="cls-1" d="M149.69,266.05H147V242.72h2.68Z"/><path class="cls-1" d="M177.29,242.72v23.33h-2.42V263.1a5.84,5.84,0,0,1-5.46,3.43,6,6,0,0,1-5-2.54,10.22,10.22,0,0,1-2-6.42,10.87,10.87,0,0,1,1.93-6.61,6,6,0,0,1,5.12-2.65,6,6,0,0,1,5.08,2.84v-8.43Zm-2.68,12.74a4.88,4.88,0,0,0-1.38-3.64,4.47,4.47,0,0,0-3.23-1.37,3.89,3.89,0,0,0-3.29,1.78,8.3,8.3,0,0,0-1.29,5,9.7,9.7,0,0,0,1.18,5.28,3.7,3.7,0,0,0,3.26,1.81,4.35,4.35,0,0,0,3.31-1.57,5.29,5.29,0,0,0,1.44-3.69Z"/><path class="cls-1" d="M196.25,266.05h-2.43v-3.3q-1.84,3.78-5.5,3.78a5.21,5.21,0,0,1-4.15-1.74,7.35,7.35,0,0,1-1.51-5v-11h2.68v11c0,1.71.36,2.89,1.07,3.53a3.41,3.41,0,0,0,2.35,1,4,4,0,0,0,2.35-.74,5.62,5.62,0,0,0,1.75-2.09,6.3,6.3,0,0,0,.7-3v-9.73h2.69Z"/><path class="cls-1" d="M122.5,290.79l-6,17.26h-2.76l-6.19-17.26h3l4.81,14,4.75-14Z"/><path class="cls-1" d="M136.48,302.91l2.5.51a7,7,0,0,1-2.67,3.66,7.67,7.67,0,0,1-4.66,1.45,7.27,7.27,0,0,1-5.73-2.49,9.51,9.51,0,0,1-2.19-6.52,9.62,9.62,0,0,1,2.28-6.67,7.32,7.32,0,0,1,5.7-2.54,6.92,6.92,0,0,1,5.45,2.34c1.37,1.57,2.07,3.9,2.11,7H126.72q0,3.91,1.64,5.28a5.37,5.37,0,0,0,3.47,1.37A4.74,4.74,0,0,0,136.48,302.91Zm-.15-5.25a7.32,7.32,0,0,0-.48-2.58,4.47,4.47,0,0,0-1.5-1.92,4.15,4.15,0,0,0-2.55-.8,4.54,4.54,0,0,0-3.39,1.44,6,6,0,0,0-1.57,3.86Z"/><path class="cls-1" d="M146,308.05H143.3V284.72H146Z"/><path class="cls-1" d="M165.45,288.09v2.14a4.78,4.78,0,0,0-2.47.43,2.23,2.23,0,0,0-.83,1.53,6.24,6.24,0,0,1,1.66,4.17,5.34,5.34,0,0,1-1.8,4.05,6.81,6.81,0,0,1-4.85,1.7A5.71,5.71,0,0,1,156,302a9.89,9.89,0,0,0-1.18-.19,2.09,2.09,0,0,0-1.11.46,1.37,1.37,0,0,0-.65,1.17,1.27,1.27,0,0,0,.94,1.33,19.72,19.72,0,0,0,4.43.39,25.28,25.28,0,0,1,4.36.41,4.41,4.41,0,0,1,2.39,1.4,3.83,3.83,0,0,1,1,2.66q0,4.94-8.68,4.93c-2.74,0-4.75-.41-6-1.24a3.8,3.8,0,0,1-1.88-3.31,3.46,3.46,0,0,1,2.63-3.45,3.26,3.26,0,0,1-1.69-2.79c0-1.33.79-2.35,2.39-3a5.64,5.64,0,0,1-2.24-4.56,5.32,5.32,0,0,1,1.91-4.21,7,7,0,0,1,4.67-1.64,8.34,8.34,0,0,1,3.54.74,3.28,3.28,0,0,1,1.18-2.34,5,5,0,0,1,2.83-.65ZM154,307.35a2.61,2.61,0,0,0-1.88,2.38,2.26,2.26,0,0,0,1.55,2,9.33,9.33,0,0,0,3.94.73,12.54,12.54,0,0,0,4.07-.63c1.23-.41,1.84-1.12,1.84-2.11a1.73,1.73,0,0,0-.54-1.31,2.66,2.66,0,0,0-1.5-.65c-.63-.09-1.73-.16-3.31-.21A41.43,41.43,0,0,1,154,307.35Zm3.22-7.3A3.81,3.81,0,0,0,160,299a3.63,3.63,0,0,0,1.08-2.72,3.76,3.76,0,0,0-3.83-3.88,4,4,0,0,0-2.7,1,4.06,4.06,0,0,0-.12,5.6A3.83,3.83,0,0,0,157.25,300.05Z"/><path class="cls-1" d="M179.94,302.91l2.5.51a7,7,0,0,1-2.67,3.66,7.67,7.67,0,0,1-4.67,1.45,7.26,7.26,0,0,1-5.72-2.49,9.51,9.51,0,0,1-2.19-6.52,9.62,9.62,0,0,1,2.28-6.67,7.32,7.32,0,0,1,5.7-2.54,6.92,6.92,0,0,1,5.45,2.34c1.37,1.57,2.07,3.9,2.11,7H170.18q0,3.91,1.64,5.28a5.37,5.37,0,0,0,3.47,1.37A4.74,4.74,0,0,0,179.94,302.91Zm-.15-5.25a7.8,7.8,0,0,0-.48-2.58,4.47,4.47,0,0,0-1.5-1.92,4.15,4.15,0,0,0-2.55-.8,4.53,4.53,0,0,0-3.39,1.44,6,6,0,0,0-1.57,3.86Z"/><path class="cls-1" d="M107.18,332.79v2.1h-4.1v15.16H100.4V334.89H97.46v-2.1h2.94q.06-4.16,1.59-5.35a5.93,5.93,0,0,1,3.74-1.19,14.53,14.53,0,0,1,2.46.24v2.13a6.6,6.6,0,0,0-1.66-.22,3.72,3.72,0,0,0-2.6.78,3.87,3.87,0,0,0-.85,2.91v.7Z"/><path class="cls-1" d="M115.9,350.53a6.58,6.58,0,0,1-5.55-2.63,10.53,10.53,0,0,1-2-6.54,9.41,9.41,0,0,1,2.24-6.58,7.2,7.2,0,0,1,5.57-2.47,6.8,6.8,0,0,1,5.63,2.6,10.07,10.07,0,0,1,2.06,6.47,9.68,9.68,0,0,1-2.22,6.59A7.24,7.24,0,0,1,115.9,350.53Zm.2-2.22a4.28,4.28,0,0,0,3.44-1.69c.92-1.13,1.38-2.88,1.38-5.27s-.48-4.12-1.45-5.2a4.43,4.43,0,0,0-3.4-1.61,4.28,4.28,0,0,0-3.39,1.63q-1.38,1.63-1.38,5.17c0,2.49.46,4.28,1.38,5.35A4.35,4.35,0,0,0,116.1,348.31Z"/><path class="cls-1" d="M130.58,350.05h-2.69V332.79h2.36v4a8.55,8.55,0,0,1,2.51-3.7,4.48,4.48,0,0,1,2.57-.85,9.59,9.59,0,0,1,1.06.07v2.56h-.55a4.71,4.71,0,0,0-3.69,1.66,6.73,6.73,0,0,0-1.57,4.36Z"/><path class="cls-1" d="M161.66,326.72v23.33h-2.42V347.1a5.84,5.84,0,0,1-5.46,3.43,6,6,0,0,1-5-2.54,10.22,10.22,0,0,1-2-6.42,10.87,10.87,0,0,1,1.93-6.61,6,6,0,0,1,5.12-2.65,6,6,0,0,1,5.08,2.84v-8.43ZM159,339.46a4.88,4.88,0,0,0-1.38-3.64,4.47,4.47,0,0,0-3.23-1.37,3.89,3.89,0,0,0-3.29,1.78,8.37,8.37,0,0,0-1.29,5A9.7,9.7,0,0,0,151,346.5a3.71,3.71,0,0,0,3.26,1.81,4.35,4.35,0,0,0,3.31-1.57,5.29,5.29,0,0,0,1.44-3.69Z"/><path class="cls-1" d="M169.8,326.72v3h-2.89v-3Zm-.09,6.07v17.26H167V332.79Z"/><path class="cls-1" d="M182.89,348.22v2.12a18.41,18.41,0,0,1-2.46.19q-5,0-5-5.23V334.89h-3.06v-2.1h3.06l.12-4.34,2.5-.24v4.58h3.86v2.1H178v10.85q0,2.67,2.76,2.67A12.74,12.74,0,0,0,182.89,348.22Z"/><path class="cls-1" d="M193.66,348.22v2.12a18.43,18.43,0,0,1-2.47.19q-5,0-5-5.23V334.89h-3.06v-2.1h3.06l.12-4.34,2.49-.24v4.58h3.86v2.1H188.8v10.85c0,1.78.93,2.67,2.77,2.67A12.74,12.74,0,0,0,193.66,348.22Z"/><path class="cls-1" d="M108,368.72v23.33h-2.43V389.1a5.84,5.84,0,0,1-5.46,3.43,6,6,0,0,1-5-2.54,10.22,10.22,0,0,1-1.95-6.42A10.87,10.87,0,0,1,95.08,377a6,6,0,0,1,5.13-2.65,6,6,0,0,1,5.07,2.84v-8.43Zm-2.69,12.74a4.88,4.88,0,0,0-1.38-3.64,4.46,4.46,0,0,0-3.23-1.37,3.91,3.91,0,0,0-3.29,1.78,8.37,8.37,0,0,0-1.29,5,9.69,9.69,0,0,0,1.19,5.28,3.68,3.68,0,0,0,3.25,1.81,4.37,4.37,0,0,0,3.32-1.57,5.28,5.28,0,0,0,1.43-3.69Z"/><path class="cls-1" d="M116.1,368.72v3h-2.89v-3Zm-.08,6.07v17.26h-2.69V374.79Z"/><path class="cls-1" d="M135.46,372.09v2.14a4.71,4.71,0,0,0-2.46.43,2.19,2.19,0,0,0-.83,1.53,6.27,6.27,0,0,1,1.65,4.17,5.34,5.34,0,0,1-1.8,4.05,6.79,6.79,0,0,1-4.84,1.7A5.71,5.71,0,0,1,126,386a9.89,9.89,0,0,0-1.18-.19,2.09,2.09,0,0,0-1.11.46,1.35,1.35,0,0,0-.65,1.17,1.27,1.27,0,0,0,.94,1.33,19.61,19.61,0,0,0,4.42.39,25.42,25.42,0,0,1,4.37.41,4.38,4.38,0,0,1,2.38,1.4,3.83,3.83,0,0,1,1,2.66q0,4.94-8.68,4.93-4.12,0-6-1.24a3.78,3.78,0,0,1-1.89-3.31,3.47,3.47,0,0,1,2.63-3.45,3.28,3.28,0,0,1-1.69-2.79c0-1.33.8-2.35,2.39-3a5.63,5.63,0,0,1-2.23-4.56,5.29,5.29,0,0,1,1.91-4.21,6.92,6.92,0,0,1,4.66-1.64,8.34,8.34,0,0,1,3.54.74,3.29,3.29,0,0,1,1.19-2.34,4.91,4.91,0,0,1,2.83-.65Zm-11.41,19.26a2.61,2.61,0,0,0-1.88,2.38,2.24,2.24,0,0,0,1.55,2,9.31,9.31,0,0,0,3.93.73,12.5,12.5,0,0,0,4.07-.63c1.23-.41,1.85-1.12,1.85-2.11a1.7,1.7,0,0,0-.55-1.31,2.6,2.6,0,0,0-1.49-.65c-.64-.09-1.74-.16-3.31-.21A41.43,41.43,0,0,1,124.05,391.35Zm3.21-7.3a3.83,3.83,0,0,0,2.79-1.05,3.62,3.62,0,0,0,1.07-2.72,3.76,3.76,0,0,0-3.82-3.88,4,4,0,0,0-2.7,1,4.06,4.06,0,0,0-.12,5.6A3.79,3.79,0,0,0,127.26,384.05Z"/><path class="cls-1" d="M141.33,368.72v3h-2.89v-3Zm-.09,6.07v17.26h-2.68V374.79Z"/><path class="cls-1" d="M154.42,390.22v2.12a18.41,18.41,0,0,1-2.46.19q-5,0-5-5.23V376.89h-3.06v-2.1H147l.12-4.34,2.49-.24v4.58h3.87v2.1h-3.87v10.85c0,1.78.93,2.67,2.77,2.67A12.74,12.74,0,0,0,154.42,390.22Z"/><path class="cls-1" d="M170.86,392.05h-2.65c-.1-.54-.21-1.58-.31-3.11a6.22,6.22,0,0,1-6.05,3.59,6.06,6.06,0,0,1-4.46-1.54,5,5,0,0,1-1.55-3.7,5.18,5.18,0,0,1,2.22-4.3c1.48-1.12,4-1.69,7.55-1.69.48,0,1.24,0,2.29.07a9.56,9.56,0,0,0-.32-3,2.6,2.6,0,0,0-1.34-1.46,5.65,5.65,0,0,0-2.7-.55q-4.08,0-4.75,3.11l-2.48-.43q.91-4.77,7.63-4.77,3.57,0,5.06,1.58c1,1.06,1.5,2.88,1.5,5.48v7.33A14.52,14.52,0,0,0,170.86,392.05Zm-3-8.63c-1.09-.07-1.92-.1-2.49-.1a9.79,9.79,0,0,0-4.94,1,3.34,3.34,0,0,0-1.76,3.05,2.82,2.82,0,0,0,.95,2.16,3.82,3.82,0,0,0,2.74.89,5.07,5.07,0,0,0,4-1.76,6.07,6.07,0,0,0,1.56-4.15C168,384.23,167.94,383.86,167.9,383.42Z"/><path class="cls-1" d="M178.55,392.05h-2.68V368.72h2.68Z"/><path class="cls-1" d="M195.31,386.91l2.5.51a7,7,0,0,1-2.67,3.66,7.64,7.64,0,0,1-4.66,1.45,7.27,7.27,0,0,1-5.73-2.49,9.51,9.51,0,0,1-2.19-6.52,9.62,9.62,0,0,1,2.28-6.67,7.34,7.34,0,0,1,5.71-2.54,6.89,6.89,0,0,1,5.44,2.34c1.37,1.57,2.07,3.9,2.11,7H185.56c0,2.61.54,4.37,1.64,5.28a5.35,5.35,0,0,0,3.47,1.37A4.73,4.73,0,0,0,195.31,386.91Zm-.15-5.25a7.32,7.32,0,0,0-.48-2.58,4.47,4.47,0,0,0-1.5-1.92,4.15,4.15,0,0,0-2.55-.8,4.54,4.54,0,0,0-3.39,1.44,6,6,0,0,0-1.57,3.86Z"/><path class="cls-1" d="M87.25,439.88H84.56V416.79H87v3.35q1.83-3.83,5.44-3.83a5.87,5.87,0,0,1,4.94,2.56,12.38,12.38,0,0,1-.06,13.18,6,6,0,0,1-5,2.48,5.71,5.71,0,0,1-5.11-3.09Zm0-16.95v4.87A5.14,5.14,0,0,0,88.9,431a4.34,4.34,0,0,0,2.93,1.28A4.07,4.07,0,0,0,95,430.77c.9-1,1.35-2.8,1.35-5.31a8.77,8.77,0,0,0-1.23-5,3.8,3.8,0,0,0-3.26-1.77,4,4,0,0,0-2.88,1.25A6,6,0,0,0,87.25,422.93Z"/><path class="cls-1" d="M105.94,434.05h-2.68V416.79h2.36v4a8.55,8.55,0,0,1,2.5-3.7,4.53,4.53,0,0,1,2.57-.85,9.3,9.3,0,0,1,1.06.07v2.56h-.54a4.72,4.72,0,0,0-3.7,1.66,6.73,6.73,0,0,0-1.57,4.36Z"/><path class="cls-1" d="M120.35,434.53a6.58,6.58,0,0,1-5.55-2.63,10.6,10.6,0,0,1-2-6.54,9.41,9.41,0,0,1,2.24-6.58,7.2,7.2,0,0,1,5.57-2.47,6.8,6.8,0,0,1,5.63,2.6,10,10,0,0,1,2.06,6.47,9.68,9.68,0,0,1-2.22,6.59A7.23,7.23,0,0,1,120.35,434.53Zm.2-2.22a4.26,4.26,0,0,0,3.44-1.69c.92-1.13,1.38-2.88,1.38-5.27s-.48-4.12-1.45-5.2a4.43,4.43,0,0,0-3.4-1.61,4.26,4.26,0,0,0-3.38,1.63q-1.4,1.63-1.39,5.17c0,2.49.46,4.28,1.39,5.35A4.31,4.31,0,0,0,120.55,432.31Z"/><path class="cls-1" d="M130,429.58l2.57-.54c.56,2.18,2.37,3.27,5.4,3.27a5.1,5.1,0,0,0,2.83-.75,2.37,2.37,0,0,0,1.16-2.12c0-1.35-1-2.21-2.95-2.57l-3.64-.7a6.55,6.55,0,0,1-3.4-1.6,4.13,4.13,0,0,1-1.27-3.16,4.6,4.6,0,0,1,1.73-3.64,7,7,0,0,1,4.65-1.46q5.63,0,6.94,4.4l-2.47.53q-1-2.7-4.35-2.7a4.88,4.88,0,0,0-2.69.67,2.12,2.12,0,0,0-1.06,1.89c0,1.27.9,2.07,2.69,2.4l3.36.61q5.28,1,5.28,5.11a4.58,4.58,0,0,1-2,3.85,8.58,8.58,0,0,1-5.23,1.46Q131.48,434.53,130,429.58Z"/><path class="cls-1" d="M151.26,416.6v18c0,2-.48,3.44-1.44,4.24a5.34,5.34,0,0,1-3.53,1.2,11,11,0,0,1-2.51-.36v-2.12a8.9,8.9,0,0,0,2,.25,2.83,2.83,0,0,0,2.18-.72,3.71,3.71,0,0,0,.66-2.5v-18Zm.14-5.88v3h-3v-3Z"/><path class="cls-1" d="M168,428.91l2.49.51a7,7,0,0,1-2.67,3.66,7.64,7.64,0,0,1-4.66,1.45,7.27,7.27,0,0,1-5.73-2.49,10.89,10.89,0,0,1,.09-13.19,7.34,7.34,0,0,1,5.71-2.54,6.89,6.89,0,0,1,5.44,2.34c1.37,1.57,2.08,3.9,2.11,7H158.24c0,2.61.54,4.37,1.64,5.28a5.35,5.35,0,0,0,3.47,1.37A4.74,4.74,0,0,0,168,428.91Zm-.16-5.25a7.32,7.32,0,0,0-.48-2.58,4.33,4.33,0,0,0-1.5-1.92,4.15,4.15,0,0,0-2.55-.8,4.54,4.54,0,0,0-3.39,1.44,5.91,5.91,0,0,0-1.56,3.86Z"/><path class="cls-1" d="M189.07,434.05h-2.78l-5-9.63-3.74,4.3v5.33h-2.69V410.72h2.69v15l8-8.89h2.87L183,422.85Z"/><path class="cls-1" d="M200.18,432.22v2.12a18.43,18.43,0,0,1-2.47.19q-5,0-5-5.23V418.89h-3.06v-2.1h3.06l.12-4.34,2.49-.24v4.58h3.86v2.1h-3.86v10.85c0,1.78.93,2.67,2.77,2.67A12.74,12.74,0,0,0,200.18,432.22Z"/><path class="cls-1" d="M209.61,428.24h-2.46c0-1.78,0-2.88.08-3.32a4.07,4.07,0,0,1,.36-1.32,3.48,3.48,0,0,1,.69-1,10.64,10.64,0,0,1,1.82-1.17,16.22,16.22,0,0,0,2.15-1.36,4.28,4.28,0,0,0,1-1.35,4,4,0,0,0,.44-1.89,3.68,3.68,0,0,0-1.41-3.06,5.22,5.22,0,0,0-3.32-1.11c-2.9,0-4.66,1.68-5.3,5l-2.55-.55q1.29-6.88,8-6.88a8,8,0,0,1,5.52,1.87,6.1,6.1,0,0,1,2.11,4.79q0,3.81-4.38,6.09a7.82,7.82,0,0,0-2.34,1.58,2.93,2.93,0,0,0-.43,1.78Zm.58,2.45v3.36h-3.45v-3.36Z"/></svg>