<svg id="Layer_1" data-name="Layer 1" xmlns="http://www.w3.org/2000/svg" viewBox="0 0 300 600"><defs><style>.cls-1{fill:#fff;}</style></defs><title>text</title><path class="cls-1" d="M109.32,474.59v1.46h-7.87V462.72h1.71v11.87Z"/><path class="cls-1" d="M117.63,473.11l1.42.3a4,4,0,0,1-1.52,2.09,4.44,4.44,0,0,1-2.67.83,4.14,4.14,0,0,1-3.27-1.43,6.2,6.2,0,0,1,0-7.53,4.17,4.17,0,0,1,3.26-1.45,3.93,3.93,0,0,1,3.11,1.33,6.05,6.05,0,0,1,1.21,4h-7.17c0,1.49.31,2.49.94,3a3,3,0,0,0,2,.79A2.72,2.72,0,0,0,117.63,473.11Zm-.09-3a4.42,4.42,0,0,0-.28-1.47,2.46,2.46,0,0,0-.86-1.1,2.34,2.34,0,0,0-1.45-.45,2.59,2.59,0,0,0-1.94.82,3.35,3.35,0,0,0-.89,2.2Z"/><path class="cls-1" d="M120.19,473.49l1.47-.3c.32,1.24,1.35,1.87,3.08,1.87a3,3,0,0,0,1.63-.43,1.37,1.37,0,0,0,.66-1.21c0-.78-.57-1.27-1.69-1.48l-2.08-.39a3.79,3.79,0,0,1-1.94-.92,2.34,2.34,0,0,1-.73-1.8,2.62,2.62,0,0,1,1-2.08,4,4,0,0,1,2.66-.83q3.21,0,4,2.5l-1.41.31a2.4,2.4,0,0,0-2.49-1.55,2.76,2.76,0,0,0-1.53.39,1.22,1.22,0,0,0-.6,1.08c0,.73.51,1.18,1.53,1.37l1.92.35c2,.36,3,1.34,3,2.92a2.61,2.61,0,0,1-1.12,2.2,4.89,4.89,0,0,1-3,.84C122.19,476.33,120.75,475.38,120.19,473.49Z"/><path class="cls-1" d="M149,476.05h-1.49v-6.13a5.49,5.49,0,0,0-.14-1.42,1.66,1.66,0,0,0-.63-.87,1.85,1.85,0,0,0-1.15-.4,2.4,2.4,0,0,0-1.69.81,3.33,3.33,0,0,0-.82,2.46v5.55h-1.48v-6.49a2.34,2.34,0,0,0-.62-1.84,2,2,0,0,0-1.3-.54,2.17,2.17,0,0,0-1.7.84,3.11,3.11,0,0,0-.73,2.13v5.9H135.8v-9.86h1.32v1.89a3.36,3.36,0,0,1,3-2.16,2.56,2.56,0,0,1,1.81.69,3.18,3.18,0,0,1,1,1.67,3.3,3.3,0,0,1,3.11-2.36,2.83,2.83,0,0,1,1.76.57,2.66,2.66,0,0,1,1,1.32,7.65,7.65,0,0,1,.23,2.11Z"/><path class="cls-1" d="M158.59,473.11l1.43.3a4,4,0,0,1-1.53,2.09,4.39,4.39,0,0,1-2.66.83,4.14,4.14,0,0,1-3.27-1.43,6.2,6.2,0,0,1,.05-7.53,4.17,4.17,0,0,1,3.26-1.45,4,4,0,0,1,3.11,1.33,6.05,6.05,0,0,1,1.2,4H153c0,1.49.31,2.49.93,3a3.09,3.09,0,0,0,2,.79A2.7,2.7,0,0,0,158.59,473.11Zm-.09-3a4.18,4.18,0,0,0-.27-1.47,2.54,2.54,0,0,0-.86-1.1,2.36,2.36,0,0,0-1.45-.45,2.58,2.58,0,0,0-1.94.82,3.4,3.4,0,0,0-.9,2.2Z"/><path class="cls-1" d="M164,476.05h-1.53v-9.86h1.35v2.3a4.9,4.9,0,0,1,1.43-2.11,2.57,2.57,0,0,1,1.47-.48l.6,0v1.47H167a2.67,2.67,0,0,0-2.11,1,3.84,3.84,0,0,0-.9,2.49Z"/><path class="cls-1" d="M177.62,476.33a3.74,3.74,0,0,1-3.17-1.51,6,6,0,0,1-1.14-3.73,5.37,5.37,0,0,1,1.28-3.77,4.1,4.1,0,0,1,3.18-1.4A3.89,3.89,0,0,1,181,467.4a5.77,5.77,0,0,1,1.18,3.7,5.56,5.56,0,0,1-1.27,3.76A4.14,4.14,0,0,1,177.62,476.33Zm.11-1.27a2.48,2.48,0,0,0,2-1,4.77,4.77,0,0,0,.79-3,4.37,4.37,0,0,0-.83-3,2.54,2.54,0,0,0-1.95-.93,2.46,2.46,0,0,0-1.93.94,4.49,4.49,0,0,0-.79,2.95,4.66,4.66,0,0,0,.79,3.06A2.47,2.47,0,0,0,177.73,475.06Z"/><path class="cls-1" d="M197.68,476.05h-1.49v-6.13a6.08,6.08,0,0,0-.13-1.42,1.68,1.68,0,0,0-.64-.87,1.84,1.84,0,0,0-1.14-.4,2.41,2.41,0,0,0-1.7.81,3.33,3.33,0,0,0-.81,2.46v5.55h-1.49v-6.49a2.34,2.34,0,0,0-.62-1.84,2,2,0,0,0-1.3-.54,2.18,2.18,0,0,0-1.7.84,3.16,3.16,0,0,0-.72,2.13v5.9h-1.47v-9.86h1.32v1.89a3.36,3.36,0,0,1,3-2.16,2.53,2.53,0,0,1,1.8.69,3.12,3.12,0,0,1,1,1.67,3.31,3.31,0,0,1,3.12-2.36,2.85,2.85,0,0,1,1.76.57,2.7,2.7,0,0,1,1,1.32,7.28,7.28,0,0,1,.23,2.11Z"/><path class="cls-1" d="M75,498.59v1.46H66.33V486.72h8.43v1.47H68v4.23h5.37v1.36H68v4.81Z"/><path class="cls-1" d="M78.68,503.38H77.15V490.19h1.38v1.91a3.37,3.37,0,0,1,5.93-.72,7,7,0,0,1,0,7.53,3.44,3.44,0,0,1-2.83,1.42,3.26,3.26,0,0,1-2.92-1.77Zm0-9.69v2.79a3,3,0,0,0,.95,1.85,2.49,2.49,0,0,0,1.67.73,2.35,2.35,0,0,0,1.78-.88,4.61,4.61,0,0,0,.78-3,5,5,0,0,0-.71-2.88,2.18,2.18,0,0,0-1.86-1,2.29,2.29,0,0,0-1.65.72A3.5,3.5,0,0,0,78.68,493.69Z"/><path class="cls-1" d="M89.41,486.72v1.71H87.76v-1.71Zm0,3.47v9.86H87.83v-9.86Z"/><path class="cls-1" d="M91.09,497.49l1.47-.3c.32,1.24,1.35,1.87,3.08,1.87a3,3,0,0,0,1.62-.43,1.36,1.36,0,0,0,.67-1.21c0-.78-.57-1.27-1.69-1.48l-2.08-.39a3.82,3.82,0,0,1-2-.92,2.37,2.37,0,0,1-.72-1.8,2.62,2.62,0,0,1,1-2.08,4,4,0,0,1,2.65-.83q3.23,0,4,2.5l-1.41.31a2.4,2.4,0,0,0-2.49-1.55,2.79,2.79,0,0,0-1.54.39,1.22,1.22,0,0,0-.6,1.08c0,.73.52,1.18,1.54,1.37l1.92.35c2,.36,3,1.34,3,2.92a2.64,2.64,0,0,1-1.12,2.2,4.89,4.89,0,0,1-3,.84Q91.92,500.33,91.09,497.49Z"/><path class="cls-1" d="M108.21,497.11l1.43.3a4,4,0,0,1-1.53,2.09,4.39,4.39,0,0,1-2.66.83,4.14,4.14,0,0,1-3.27-1.43,5.39,5.39,0,0,1-1.25-3.73,5.49,5.49,0,0,1,1.29-3.8,4.2,4.2,0,0,1,3.27-1.45,4,4,0,0,1,3.11,1.33,6.05,6.05,0,0,1,1.2,4h-7.17a3.82,3.82,0,0,0,.94,3,3.09,3.09,0,0,0,2,.79A2.71,2.71,0,0,0,108.21,497.11Zm-.09-3a4.18,4.18,0,0,0-.27-1.47,2.54,2.54,0,0,0-.86-1.1,2.36,2.36,0,0,0-1.45-.45,2.58,2.58,0,0,0-1.94.82,3.4,3.4,0,0,0-.9,2.2Z"/><path class="cls-1" d="M113.64,500.05h-1.53v-9.86h1.35v2.3a5,5,0,0,1,1.42-2.11,2.63,2.63,0,0,1,1.48-.48l.6,0v1.47h-.31a2.67,2.67,0,0,0-2.11,1,3.84,3.84,0,0,0-.9,2.49Z"/><path class="cls-1" d="M126.44,490.19,123,500.05h-1.58l-3.53-9.86h1.7l2.75,8,2.71-8Z"/><path class="cls-1" d="M134.43,497.11l1.43.3a4,4,0,0,1-1.53,2.09,4.39,4.39,0,0,1-2.66.83,4.14,4.14,0,0,1-3.27-1.43,6.2,6.2,0,0,1,0-7.53,4.17,4.17,0,0,1,3.26-1.45,4,4,0,0,1,3.11,1.33,6.05,6.05,0,0,1,1.2,4h-7.16c0,1.49.31,2.49.93,3a3.09,3.09,0,0,0,2,.79A2.7,2.7,0,0,0,134.43,497.11Zm-.09-3a4.18,4.18,0,0,0-.27-1.47,2.54,2.54,0,0,0-.86-1.1,2.36,2.36,0,0,0-1.45-.45,2.58,2.58,0,0,0-1.94.82,3.4,3.4,0,0,0-.9,2.2Z"/><path class="cls-1" d="M139.86,500.05h-1.53v-9.86h1.35v2.3a4.9,4.9,0,0,1,1.43-2.11,2.57,2.57,0,0,1,1.47-.48l.6,0v1.47h-.31a2.67,2.67,0,0,0-2.11,1,3.84,3.84,0,0,0-.9,2.49Z"/><path class="cls-1" d="M158,495.57l1.53.34c-.73,2.94-2.38,4.42-4.94,4.42a4.6,4.6,0,0,1-4-2.05,8.48,8.48,0,0,1-1.44-5,7.69,7.69,0,0,1,1.5-4.95,4.92,4.92,0,0,1,4-1.86q3.75,0,4.82,4.29l-1.57.31c-.58-2.13-1.66-3.19-3.26-3.19a3.12,3.12,0,0,0-2.74,1.48,7.62,7.62,0,0,0-1,4.16,7,7,0,0,0,1,3.93,3,3,0,0,0,2.64,1.48Q157.22,498.91,158,495.57Z"/><path class="cls-1" d="M165,500.33a3.76,3.76,0,0,1-3.17-1.51,6,6,0,0,1-1.14-3.73,5.42,5.42,0,0,1,1.28-3.77,4.1,4.1,0,0,1,3.18-1.4,3.88,3.88,0,0,1,3.22,1.48,5.72,5.72,0,0,1,1.18,3.7,5.56,5.56,0,0,1-1.27,3.76A4.14,4.14,0,0,1,165,500.33Zm.11-1.27a2.46,2.46,0,0,0,2-1,4.77,4.77,0,0,0,.79-3,4.37,4.37,0,0,0-.83-3,2.54,2.54,0,0,0-2-.93,2.46,2.46,0,0,0-1.93.94,4.49,4.49,0,0,0-.79,2.95,4.66,4.66,0,0,0,.79,3.06A2.47,2.47,0,0,0,165.15,499.06Z"/><path class="cls-1" d="M185.11,500.05h-1.5v-6.13a5.58,5.58,0,0,0-.13-1.42,1.68,1.68,0,0,0-.64-.87,1.84,1.84,0,0,0-1.14-.4,2.42,2.42,0,0,0-1.7.81,3.33,3.33,0,0,0-.81,2.46v5.55H177.7v-6.49a2.31,2.31,0,0,0-.62-1.84,2,2,0,0,0-1.3-.54,2.18,2.18,0,0,0-1.7.84,3.16,3.16,0,0,0-.72,2.13v5.9h-1.47v-9.86h1.32v1.89a3.37,3.37,0,0,1,3-2.16,2.53,2.53,0,0,1,1.8.69,3.12,3.12,0,0,1,1,1.67,3.32,3.32,0,0,1,3.12-2.36,2.85,2.85,0,0,1,1.76.57,2.79,2.79,0,0,1,1,1.32,7.65,7.65,0,0,1,.23,2.11Z"/><path class="cls-1" d="M201.38,500.05h-1.49v-6.13a5.58,5.58,0,0,0-.13-1.42,1.68,1.68,0,0,0-.64-.87,1.84,1.84,0,0,0-1.14-.4,2.42,2.42,0,0,0-1.7.81,3.33,3.33,0,0,0-.81,2.46v5.55H194v-6.49a2.31,2.31,0,0,0-.62-1.84,2,2,0,0,0-1.3-.54,2.18,2.18,0,0,0-1.7.84,3.16,3.16,0,0,0-.72,2.13v5.9h-1.47v-9.86h1.32v1.89a3.37,3.37,0,0,1,3-2.16,2.53,2.53,0,0,1,1.8.69,3.12,3.12,0,0,1,1,1.67,3.32,3.32,0,0,1,3.12-2.36,2.85,2.85,0,0,1,1.76.57,2.7,2.7,0,0,1,1,1.32,7.28,7.28,0,0,1,.23,2.11Z"/><path class="cls-1" d="M211,497.11l1.43.3a4,4,0,0,1-1.52,2.09,4.44,4.44,0,0,1-2.67.83,4.14,4.14,0,0,1-3.27-1.43,6.2,6.2,0,0,1,0-7.53,4.17,4.17,0,0,1,3.26-1.45,3.93,3.93,0,0,1,3.11,1.33,6.05,6.05,0,0,1,1.21,4h-7.17c0,1.49.31,2.49.94,3a3,3,0,0,0,2,.79A2.7,2.7,0,0,0,211,497.11Zm-.08-3a4.42,4.42,0,0,0-.28-1.47,2.46,2.46,0,0,0-.86-1.1,2.34,2.34,0,0,0-1.45-.45,2.59,2.59,0,0,0-1.94.82,3.35,3.35,0,0,0-.89,2.2Z"/><path class="cls-1" d="M216.39,500.05h-1.53v-9.86h1.35v2.3a4.9,4.9,0,0,1,1.43-2.11,2.62,2.62,0,0,1,1.47-.48l.6,0v1.47h-.31a2.69,2.69,0,0,0-2.11,1,3.84,3.84,0,0,0-.9,2.49Z"/><path class="cls-1" d="M227,496.59l1.39.25a4.46,4.46,0,0,1-1.3,2.56,3.91,3.91,0,0,1-5.62-.58,6.13,6.13,0,0,1-1.07-3.68,6,6,0,0,1,1.13-3.73,3.62,3.62,0,0,1,3.07-1.49,3.52,3.52,0,0,1,2.58,1,4.32,4.32,0,0,1,1.21,2.48l-1.39.27c-.26-1.63-1-2.45-2.36-2.45a2.19,2.19,0,0,0-2,1.08,5.23,5.23,0,0,0-.68,2.8,5.37,5.37,0,0,0,.68,2.95,2.13,2.13,0,0,0,1.9,1.05C225.84,499.06,226.64,498.24,227,496.59Z"/><path class="cls-1" d="M237,497.11l1.43.3a4,4,0,0,1-1.53,2.09,4.39,4.39,0,0,1-2.66.83A4.14,4.14,0,0,1,231,498.9a5.39,5.39,0,0,1-1.25-3.73,5.49,5.49,0,0,1,1.29-3.8,4.2,4.2,0,0,1,3.27-1.45,4,4,0,0,1,3.11,1.33,6.05,6.05,0,0,1,1.2,4H231.4a3.82,3.82,0,0,0,.94,3,3.09,3.09,0,0,0,2,.79A2.71,2.71,0,0,0,237,497.11Zm-.09-3a4.18,4.18,0,0,0-.27-1.47,2.54,2.54,0,0,0-.86-1.1,2.37,2.37,0,0,0-1.46-.45,2.57,2.57,0,0,0-1.93.82,3.35,3.35,0,0,0-.9,2.2Z"/></svg>