<svg id="Layer_1" data-name="Layer 1" xmlns="http://www.w3.org/2000/svg" viewBox="0 0 711 250"><defs><style>.cls-1{fill:#d80201;}</style></defs><title>text</title><path class="cls-1" d="M356.81,110.69a8.58,8.58,0,0,1-7.56-4.19l2.77-2.67a5,5,0,0,0,4.62,2.94,3.13,3.13,0,0,0,3.4-3.1c0-4.52-9.67-2.38-9.67-9.47,0-3.89,3.14-6.4,6.87-6.4a9.65,9.65,0,0,1,6.44,2.44l-2.24,2.94a4.45,4.45,0,0,0-3.56-1.78c-1.42,0-3.07.89-3.07,2.48,0,3.73,9.67,1.88,9.67,9.57C364.47,107.92,361.17,110.69,356.81,110.69Z"/><path class="cls-1" d="M376.41,110.63a5.72,5.72,0,0,1-4.79-2.34v9.5h-4V95.88h4v1.82a5.69,5.69,0,0,1,4.69-2.28c4.26,0,7.06,3.53,7.06,7.62S380.61,110.63,376.41,110.63ZM375.23,99a4,4,0,1,0,4,4A4,4,0,0,0,375.23,99Z"/><path class="cls-1" d="M397.34,110.17v-1.88a5.52,5.52,0,0,1-4.65,2.34c-4.29,0-7-3.56-7-7.66s2.74-7.56,6.93-7.56a6,6,0,0,1,4.75,2.28V95.88h4v14.29Zm-6.9-17a2.38,2.38,0,1,1,0-4.75,2.38,2.38,0,0,1,0,4.75ZM393.77,99a4,4,0,1,0,4,4A4,4,0,0,0,393.77,99Zm3.53-5.81a2.41,2.41,0,0,1-2.38-2.38,2.38,2.38,0,1,1,2.38,2.38Z"/><path class="cls-1" d="M415,110.17v-7.92c0-1.95-.43-3.43-2.71-3.43-2.48,0-3.07,1.82-3.07,4v7.39h-4V95.88h4v1.75a5.28,5.28,0,0,1,4.49-2.21,4.94,4.94,0,0,1,5.28,5.68v9.08Z"/><path class="cls-1" d="M432.55,110.17v-7.92c0-1.95-.43-3.43-2.71-3.43-2.48,0-3.07,1.82-3.07,4v7.39h-4V95.88h4v1.75a5.28,5.28,0,0,1,4.49-2.21,4.94,4.94,0,0,1,5.28,5.68v9.08Z"/><path class="cls-1" d="M451.29,110.17v-1.88a5.52,5.52,0,0,1-4.65,2.34c-4.29,0-7-3.56-7-7.66s2.74-7.56,6.93-7.56a6,6,0,0,1,4.75,2.28V95.88h4v14.29ZM447.73,99a4,4,0,1,0,4,4A4,4,0,0,0,447.73,99Z"/><path class="cls-1" d="M468.91,110.17v-7.92c0-1.95-.43-3.43-2.71-3.43-2.48,0-3.07,1.82-3.07,4v7.39h-4V95.88h4v1.75a5.28,5.28,0,0,1,4.49-2.21,4.94,4.94,0,0,1,5.28,5.68v9.08Z"/><path class="cls-1" d="M487.66,110.17v-1.88a5.52,5.52,0,0,1-4.65,2.34c-4.29,0-7-3.56-7-7.66s2.74-7.56,6.93-7.56a6,6,0,0,1,4.75,2.28V85.45h4v24.72ZM484.09,99a4,4,0,1,0,4,4A4,4,0,0,0,484.09,99Z"/><path class="cls-1" d="M498.84,103.66c.07,2.21,1.12,3.83,3.5,3.83a3.74,3.74,0,0,0,3.4-1.92l3.7.59c-1.25,3.07-3.79,4.46-7,4.46-4.62,0-7.66-3-7.66-7.62s2.9-7.59,7.49-7.59,7.29,3.17,7.29,7.72v.53Zm3.47-5.41a3.24,3.24,0,0,0-3.33,2.87h6.77A3.31,3.31,0,0,0,502.31,98.25Z"/><path class="cls-1" d="M513.36,114.79l-2.54-.3,3.5-8.88,3.7.43Z"/><path class="cls-1" d="M359.72,148.17v-1.88a5.52,5.52,0,0,1-4.65,2.34c-4.29,0-7-3.56-7-7.66s2.74-7.56,6.93-7.56a6,6,0,0,1,4.75,2.28v-1.82h4v14.29ZM356.15,137a4,4,0,1,0,4,4A4,4,0,0,0,356.15,137Z"/><path class="cls-1" d="M377.34,148.17v-7.92c0-1.95-.43-3.43-2.71-3.43-2.48,0-3.07,1.82-3.07,4v7.39h-4V133.88h4v1.75a5.28,5.28,0,0,1,4.49-2.21,4.94,4.94,0,0,1,5.28,5.68v9.08Z"/><path class="cls-1" d="M394.93,148.17v-7.92c0-1.95-.43-3.43-2.71-3.43-2.48,0-3.07,1.82-3.07,4v7.39h-4V133.88h4v1.75a5.28,5.28,0,0,1,4.49-2.21,4.94,4.94,0,0,1,5.28,5.68v9.08Z"/><path class="cls-1" d="M410.17,148.63c-4.55,0-8.18-2.84-8.18-7.59s3.63-7.62,8.22-7.62,8.12,2.87,8.12,7.59S414.69,148.63,410.17,148.63Zm0-11.62a4,4,0,1,0,4.06,4A4,4,0,0,0,410.14,137Z"/><path class="cls-1" d="M430.73,137.51a3.53,3.53,0,0,0-1.91-.5c-2.71,0-3.43,1.91-3.43,4.29v6.86h-4V133.88h4V136a4.66,4.66,0,0,1,5.91-2.28Z"/><path class="cls-1" d="M433.27,148.17V123.45h4v24.72Z"/><path class="cls-1" d="M448,148.63c-3.93,0-6.9-1.75-6.9-6v-8.75h4V142c0,1.95.83,3.27,2.9,3.27s2.9-1.32,2.9-3.27v-8.09h4v8.75C454.92,146.88,451.92,148.63,448,148.63Z"/><path class="cls-1" d="M468.52,148.17v-7.92c0-1.95-.43-3.43-2.71-3.43-2.47,0-3.07,1.82-3.07,4v7.39h-4V133.88h4v1.75a5.28,5.28,0,0,1,4.49-2.21,4.94,4.94,0,0,1,5.28,5.68v9.08Z"/><path class="cls-1" d="M487.26,148.17v-1.88a5.52,5.52,0,0,1-4.65,2.34c-4.29,0-7-3.56-7-7.66s2.74-7.56,6.93-7.56a6,6,0,0,1,4.75,2.28V123.45h4v24.72ZM483.69,137a4,4,0,1,0,4,4A4,4,0,0,0,483.69,137Z"/><path class="cls-1" d="M506,148.17v-1.88a5.52,5.52,0,0,1-4.65,2.34c-4.29,0-7-3.56-7-7.66s2.74-7.56,6.93-7.56a6,6,0,0,1,4.75,2.28v-1.82h4v14.29ZM502.47,137a4,4,0,1,0,4,4A4,4,0,0,0,502.47,137Z"/><path class="cls-1" d="M516.1,148.6a2.57,2.57,0,1,1,2.58-2.58A2.58,2.58,0,0,1,516.1,148.6Zm-2-6.73V126.15h4.09v15.71Z"/></svg>