<svg id="Layer_1" data-name="Layer 1" xmlns="http://www.w3.org/2000/svg" viewBox="0 0 980 240"><defs><style>.cls-1{fill:#d80201;}</style></defs><title>text</title><path class="cls-1" d="M348.78,106.53v6.66h9.41v5.09h-9.41v13.18h-5.84v-30h15.88v5.08Z"/><path class="cls-1" d="M375.83,116.93a4.79,4.79,0,0,0-2.61-.68c-3.69,0-4.68,2.61-4.68,5.85v9.36h-5.45V112h5.45v2.92a6.26,6.26,0,0,1,5.67-3.55,6.14,6.14,0,0,1,2.38.45Z"/><path class="cls-1" d="M382,107a3.29,3.29,0,1,1,0-6.57,3.29,3.29,0,0,1,0,6.57Zm-2.75,24.43V112h5.45v19.48Z"/><path class="cls-1" d="M404.67,131.46V128.9a7.53,7.53,0,0,1-6.34,3.19c-5.85,0-9.59-4.86-9.59-10.44s3.74-10.3,9.45-10.3a8.12,8.12,0,0,1,6.48,3.1V112h5.49v19.48Zm-4.86-15.21a5.47,5.47,0,1,0,5.45,5.45A5.44,5.44,0,0,0,399.81,116.25Z"/><path class="cls-1" d="M432.12,116.66v14.8h-5.44v-14.8h-2.16V112h2.16v-6.66h5.44V112H436v4.68Z"/><path class="cls-1" d="M441.44,107a3.29,3.29,0,1,1,0-6.57,3.29,3.29,0,0,1,0,6.57Zm-2.75,24.43V112h5.45v19.48Z"/><path class="cls-1" d="M449.27,131.46V97.76h5.44v33.7Z"/><path class="cls-1" d="M459.93,131.46V97.76h5.45v33.7Z"/><path class="cls-1" d="M480.5,131.87H478L468,112h6.12l5.13,11,5.13-11h6.12Z"/><path class="cls-1" d="M507.09,131.46V128.9a7.53,7.53,0,0,1-6.34,3.19c-5.85,0-9.59-4.86-9.59-10.44s3.74-10.3,9.45-10.3a8.12,8.12,0,0,1,6.48,3.1V112h5.49v19.48Zm-4.86-15.21a5.47,5.47,0,1,0,5.45,5.45A5.44,5.44,0,0,0,502.23,116.25Z"/><path class="cls-1" d="M517.8,131.46V97.76h5.45v33.7Z"/><path class="cls-1" d="M547.86,132.23a12.83,12.83,0,0,1-9.58-3.92l1.93-5a10.06,10.06,0,0,0,7.56,3.83,6,6,0,0,0,6-5.81c0-3.69-3.42-6-6.84-6a9.87,9.87,0,0,0-5.76,1.89h-.32l3.56-15.75h13.86v5.13h-9.9l-1.17,4.63a18.12,18.12,0,0,1,2.2-.18c6,0,10.22,4.59,10.22,10.49C559.61,128.31,554.3,132.23,547.86,132.23Z"/><path class="cls-1" d="M575.36,132.23c-8.28,0-11.61-8.73-11.61-15.75s3.28-15.8,11.61-15.8,11.6,8.69,11.6,15.75S583.68,132.23,575.36,132.23Zm0-26.37c-4.59,0-5.76,7.11-5.76,10.57s1.17,10.67,5.76,10.67,5.76-7.2,5.76-10.67S580,105.86,575.36,105.86Z"/><path class="cls-1" d="M612.12,132.23c-8.28,0-11.61-8.73-11.61-15.75s3.29-15.8,11.61-15.8,11.61,8.69,11.61,15.75S620.45,132.23,612.12,132.23Zm0-26.37c-4.59,0-5.76,7.11-5.76,10.57s1.17,10.67,5.76,10.67,5.76-7.2,5.76-10.67S616.71,105.86,612.12,105.86Z"/><path class="cls-1" d="M637.63,132.23c-8.28,0-11.61-8.73-11.61-15.75s3.29-15.8,11.61-15.8,11.61,8.69,11.61,15.75S646,132.23,637.63,132.23Zm0-26.37c-4.59,0-5.76,7.11-5.76,10.57s1.17,10.67,5.76,10.67,5.76-7.2,5.76-10.67S642.22,105.86,637.63,105.86Z"/><path class="cls-1" d="M663.15,132.23c-8.28,0-11.61-8.73-11.61-15.75s3.28-15.8,11.61-15.8,11.61,8.69,11.61,15.75S671.47,132.23,663.15,132.23Zm0-26.37c-4.59,0-5.76,7.11-5.76,10.57s1.17,10.67,5.76,10.67,5.76-7.2,5.76-10.67S667.74,105.86,663.15,105.86Z"/><path class="cls-1" d="M703.15,131.46l-7.33-8.37-.59.59v7.78h-5.44V97.76h5.44v21.33l7.29-7.11h7.38l-9.13,8.55,9.85,10.93Z"/><path class="cls-1" d="M725.79,116.93a4.79,4.79,0,0,0-2.61-.68c-3.69,0-4.68,2.61-4.68,5.85v9.36h-5.45V112h5.45v2.92a6.26,6.26,0,0,1,5.67-3.55,6.14,6.14,0,0,1,2.38.45Z"/><path class="cls-1" d="M750.4,131.87h-2.52L737.94,112h6.12l5.13,11,5.13-11h6.12Z"/><path class="cls-1" d="M765.75,107a3.29,3.29,0,1,1,0-6.57,3.29,3.29,0,0,1,0,6.57ZM763,131.46V112h5.45v19.48Z"/><path class="cls-1" d="M788.47,131.46V128.9a7.53,7.53,0,0,1-6.34,3.19c-5.85,0-9.59-4.86-9.59-10.44s3.74-10.3,9.45-10.3a8.12,8.12,0,0,1,6.48,3.1V97.76H794v33.7Zm-4.86-15.21a5.47,5.47,0,1,0,5.45,5.45A5.44,5.44,0,0,0,783.61,116.25Z"/><path class="cls-1" d="M823.8,131.46l-7.34-8.37-.58.59v7.78h-5.45V97.76h5.45v21.33l7.29-7.11h7.37l-9.13,8.55,9.86,10.93Z"/><path class="cls-1" d="M843.82,132.09c-6.21,0-11.16-3.87-11.16-10.35s5-10.39,11.21-10.39,11.06,3.91,11.06,10.35S850,132.09,843.82,132.09Zm-4.72-23.76a3.24,3.24,0,0,1,0-6.48,3.24,3.24,0,1,1,0,6.48Zm4.68,7.92a5.47,5.47,0,1,0,5.53,5.49A5.51,5.51,0,0,0,843.78,116.25Zm4.68-7.92a3.28,3.28,0,0,1-3.24-3.24,3.24,3.24,0,1,1,3.24,3.24Z"/><path class="cls-1" d="M871.09,132.09a7.78,7.78,0,0,1-6.52-3.19v13h-5.45V112h5.45v2.47a7.76,7.76,0,0,1,6.39-3.1c5.8,0,9.62,4.81,9.62,10.39S876.8,132.09,871.09,132.09Zm-1.62-15.84a5.47,5.47,0,1,0,5.45,5.45A5.44,5.44,0,0,0,869.47,116.25Z"/></svg>