<svg id="Layer_1" data-name="Layer 1" xmlns="http://www.w3.org/2000/svg" viewBox="0 0 980 240"><defs><style>.cls-1{fill:#d80201;}</style></defs><title>text</title><path class="cls-1" d="M284.42,86.53v6.66h9.4v5.08h-9.4v13.18h-5.85v-30h15.88v5.08Z"/><path class="cls-1" d="M308.85,112.09c-6.21,0-11.16-3.87-11.16-10.35s5-10.39,11.2-10.39S320,95.26,320,101.7,315,112.09,308.85,112.09Zm0-15.84a5.47,5.47,0,1,0,5.53,5.49A5.51,5.51,0,0,0,308.81,96.25Z"/><path class="cls-1" d="M336.88,96.93a4.82,4.82,0,0,0-2.61-.68c-3.69,0-4.68,2.61-4.68,5.85v9.36h-5.44V92h5.44V94.9a6.36,6.36,0,0,1,8.05-3.1Z"/><path class="cls-1" d="M365.23,111.46V100.8c0-2.29-.36-4.81-3.24-4.81-3.19,0-3.73,2.92-3.73,5.49v10h-5.44V101.11a8.69,8.69,0,0,0-.4-3.24A3.15,3.15,0,0,0,349.48,96a3.55,3.55,0,0,0-3.06,1.75,8.09,8.09,0,0,0-.63,3.73v10h-5.44V92h5.44v2.21a7.48,7.48,0,0,1,5.94-2.83,6.62,6.62,0,0,1,6.07,3.55,7.2,7.2,0,0,1,6.39-3.55,6.41,6.41,0,0,1,5.44,2.79,8.58,8.58,0,0,1,1,4.72v12.6Z"/><path class="cls-1" d="M390.79,111.46V108.9a7.53,7.53,0,0,1-6.34,3.2c-5.85,0-9.58-4.86-9.58-10.44s3.73-10.3,9.45-10.3a8.12,8.12,0,0,1,6.48,3.1V92h5.49v19.48Zm-4.86-15.21a5.47,5.47,0,1,0,5.44,5.45A5.44,5.44,0,0,0,385.93,96.25Z"/><path class="cls-1" d="M426.07,111.46V100.8c0-2.7-.58-4.81-3.74-4.81-3.37,0-4.14,2.61-4.14,5.49v10h-5.44V77.76h5.44V94.5a7.1,7.1,0,0,1,6.12-3.15A7.45,7.45,0,0,1,430,93.73c1.4,1.62,1.53,3.46,1.53,5.49v12.24Z"/><path class="cls-1" d="M446.14,112.09c-5.35,0-9.4-2.38-9.4-8.19V92h5.44v11c0,2.66,1.13,4.46,4,4.46s4-1.8,4-4.46V92h5.49V103.9C455.59,109.71,451.5,112.09,446.14,112.09Z"/><path class="cls-1" d="M467,112.09a10.36,10.36,0,0,1-7.42-3.24l2.88-3.33a6.33,6.33,0,0,0,4.59,2.29,2.29,2.29,0,0,0,2.48-2.16c0-3.33-8.68-1.67-8.68-8.24,0-4,3.28-6.16,7-6.16a10,10,0,0,1,6.34,2.07l-2.7,3.2a5.44,5.44,0,0,0-3.24-1.3c-.94,0-2.07.58-2.07,1.66,0,2.83,9,1.58,9,8.24C475.17,109.66,471.21,112.09,467,112.09Z"/><path class="cls-1" d="M483.58,102.6c.09,3,1.53,5.22,4.77,5.22a5.11,5.11,0,0,0,4.64-2.61l5,.81c-1.71,4.19-5.17,6.08-9.58,6.08-6.3,0-10.44-4-10.44-10.39s4-10.35,10.21-10.35c6.44,0,9.95,4.32,9.95,10.53v.72Zm4.73-7.38a4.42,4.42,0,0,0-4.54,3.91H493A4.52,4.52,0,0,0,488.31,95.22Z"/><path class="cls-1" d="M507.84,96.66v14.8h-5.44V96.66h-2.16V92h2.16V85.32h5.44V92h3.83v4.68Z"/><path class="cls-1" d="M528.4,87a3.28,3.28,0,1,1,0-6.57,3.28,3.28,0,0,1,0,6.57Zm-2.75,24.43V92h5.45v19.48Z"/><path class="cls-1" d="M558.42,111.46H548.34v-30h7.42c2.43,0,5.4.22,7.33,1.8a8,8,0,0,1,2.7,6.16,6.29,6.29,0,0,1-3.28,6,6.83,6.83,0,0,1,3.91,1.89,8.08,8.08,0,0,1,2.16,5.63C568.59,108.94,563.82,111.46,558.42,111.46ZM555.9,86.22h-1.71V94h1.67c2.61,0,4.54-1,4.54-3.87S558.51,86.22,555.9,86.22Zm1,12.19h-2.7v8.33h2.52c2.88,0,5.85-.68,5.85-4.19C562.56,99.22,559.68,98.41,556.89,98.41Z"/><path class="cls-1" d="M578.8,121.9h-6.16l7.15-13.36L570.57,92h6.34L582.76,103,588.34,92h6.21Z"/><path class="cls-1" d="M615.29,118.53a10.62,10.62,0,0,1-8.28,3.42c-5,0-9.81-2.88-10.35-8.19h5.89a4.34,4.34,0,0,0,4.63,3.55c3.42,0,4.81-2.38,4.81-5.54v-2.92a8.1,8.1,0,0,1-6.57,3.24c-5.76,0-9.27-4.63-9.27-10.12s3.6-10.62,9.54-10.62A7.3,7.3,0,0,1,612,94.5V92h5.49v18.76C617.5,113.8,617.37,116.1,615.29,118.53Zm-8.05-22.27a5.47,5.47,0,1,0,5.44,5.45A5.44,5.44,0,0,0,607.24,96.25Z"/><path class="cls-1" d="M640.81,118.53a10.62,10.62,0,0,1-8.28,3.42c-5,0-9.81-2.88-10.35-8.19h5.89a4.34,4.34,0,0,0,4.63,3.55c3.42,0,4.81-2.38,4.81-5.54v-2.92a8.1,8.1,0,0,1-6.57,3.24c-5.76,0-9.27-4.63-9.27-10.12s3.6-10.62,9.54-10.62a7.3,7.3,0,0,1,6.3,3.15V92H643v18.76C643,113.8,642.88,116.1,640.81,118.53Zm-8.05-22.27a5.47,5.47,0,1,0,5.44,5.45A5.44,5.44,0,0,0,632.75,96.25Z"/><path class="cls-1" d="M669.61,112.09c-6.21,0-11.16-3.87-11.16-10.35s4.95-10.39,11.2-10.39,11.07,3.92,11.07,10.35S675.77,112.09,669.61,112.09Zm0-15.84a5.47,5.47,0,1,0,5.54,5.49A5.51,5.51,0,0,0,669.56,96.25Z"/><path class="cls-1" d="M698.23,111.46v-10.8c0-2.66-.58-4.68-3.69-4.68-3.37,0-4.18,2.47-4.18,5.4v10.08h-5.44V92h5.44v2.38c1.8-2.07,3.33-3,6.12-3a7.47,7.47,0,0,1,5.67,2.34c1.4,1.62,1.53,3.38,1.53,5.4v12.38Z"/><path class="cls-1" d="M708.89,111.46V77.76h5.44v33.7Z"/><path class="cls-1" d="M722.21,87a3.28,3.28,0,1,1,0-6.57,3.28,3.28,0,0,1,0,6.57Zm-2.75,24.43V92h5.45v19.48Z"/><path class="cls-1" d="M743.36,111.46v-10.8c0-2.66-.58-4.68-3.69-4.68-3.37,0-4.18,2.47-4.18,5.4v10.08H730V92h5.44v2.38c1.8-2.07,3.33-3,6.12-3a7.47,7.47,0,0,1,5.67,2.34c1.4,1.62,1.53,3.38,1.53,5.4v12.38Z"/><path class="cls-1" d="M758.57,102.6c.09,3,1.53,5.22,4.77,5.22a5.11,5.11,0,0,0,4.63-2.61l5,.81c-1.71,4.19-5.17,6.08-9.58,6.08-6.3,0-10.44-4-10.44-10.39s4-10.35,10.21-10.35c6.44,0,9.95,4.32,9.95,10.53v.72Zm4.73-7.38a4.42,4.42,0,0,0-4.54,3.91H768A4.52,4.52,0,0,0,763.3,95.22Z"/><path class="cls-1" d="M287,163c-5.8,0-10.42-3.61-10.42-9.66s4.62-9.7,10.46-9.7,10.33,3.65,10.33,9.66S292.74,163,287,163Zm0-14.79a5.1,5.1,0,1,0,5.17,5.13A5.15,5.15,0,0,0,286.95,148.26Z"/><path class="cls-1" d="M310.21,163a9.58,9.58,0,0,1-9.91-9.62,9.7,9.7,0,0,1,10-9.75,9.37,9.37,0,0,1,4.62,1.09v5a6.28,6.28,0,0,0-4.12-1.55,5.11,5.11,0,1,0,0,10.21,6.2,6.2,0,0,0,4.12-1.55v5A9.73,9.73,0,0,1,310.21,163Z"/><path class="cls-1" d="M331.8,162.46v-10c0-2.52-.55-4.5-3.49-4.5-3.15,0-3.86,2.44-3.86,5.13v9.33h-5.08V131h5.08v15.63a6.62,6.62,0,0,1,5.71-2.94,7,7,0,0,1,5.29,2.23c1.3,1.51,1.43,3.23,1.43,5.12v11.43Z"/><path class="cls-1" d="M358.05,163a9.67,9.67,0,0,1-6.93-3l2.69-3.11a5.91,5.91,0,0,0,4.28,2.14,2.14,2.14,0,0,0,2.31-2c0-3.11-8.11-1.55-8.11-7.69,0-3.7,3.07-5.75,6.51-5.75a9.37,9.37,0,0,1,5.92,1.93l-2.52,3a5.07,5.07,0,0,0-3-1.22c-.88,0-1.93.55-1.93,1.55,0,2.65,8.4,1.47,8.4,7.69C365.65,160.78,362,163,358.05,163Z"/><path class="cls-1" d="M373.51,154.19c.08,2.81,1.43,4.87,4.45,4.87a4.77,4.77,0,0,0,4.33-2.44l4.7.76c-1.6,3.91-4.83,5.67-8.95,5.67-5.88,0-9.75-3.78-9.75-9.7s3.7-9.66,9.54-9.66c6,0,9.28,4,9.28,9.83v.67Zm4.41-6.89a4.13,4.13,0,0,0-4.24,3.65h8.61A4.22,4.22,0,0,0,377.92,147.3Z"/><path class="cls-1" d="M412.69,163a7.27,7.27,0,0,1-6.09-3v12.1h-5.08V144.27h5.08v2.31a7.24,7.24,0,0,1,6-2.9c5.42,0,9,4.49,9,9.7S418,163,412.69,163Zm-1.51-14.79a5.1,5.1,0,1,0,5.08,5.08A5.07,5.07,0,0,0,411.18,148.26Z"/><path class="cls-1" d="M437.31,148.89a4.5,4.5,0,0,0-2.44-.63c-3.44,0-4.37,2.44-4.37,5.46v8.74h-5.08V144.27h5.08V147a5.93,5.93,0,0,1,7.52-2.9Z"/><path class="cls-1" d="M443,139.65a3.07,3.07,0,0,1,0-6.13,3.07,3.07,0,0,1,0,6.13Zm-2.56,22.81V144.27h5.08v18.19Z"/><path class="cls-1" d="M456.12,163a9.68,9.68,0,0,1-6.93-3l2.69-3.11a5.91,5.91,0,0,0,4.29,2.14,2.14,2.14,0,0,0,2.31-2c0-3.11-8.11-1.55-8.11-7.69,0-3.7,3.07-5.75,6.51-5.75a9.37,9.37,0,0,1,5.92,1.93l-2.52,3a5.07,5.07,0,0,0-3-1.22c-.88,0-1.93.55-1.93,1.55,0,2.65,8.4,1.47,8.4,7.69C463.72,160.78,460,163,456.12,163Z"/><path class="cls-1" d="M471.57,154.19c.08,2.81,1.43,4.87,4.45,4.87a4.77,4.77,0,0,0,4.33-2.44l4.71.76c-1.6,3.91-4.83,5.67-8.95,5.67-5.88,0-9.75-3.78-9.75-9.7s3.7-9.66,9.54-9.66c6,0,9.28,4,9.28,9.83v.67ZM476,147.3a4.13,4.13,0,0,0-4.24,3.65h8.61A4.22,4.22,0,0,0,476,147.3Z"/><path class="cls-1" d="M494.21,148.64v13.82h-5.08V148.64h-2v-4.37h2v-6.22h5.08v6.22h3.57v4.37Z"/><path class="cls-1" d="M524.83,162.46v-2.39a7,7,0,0,1-5.92,3c-5.46,0-8.95-4.54-8.95-9.75s3.49-9.62,8.82-9.62a7.58,7.58,0,0,1,6,2.9V131H530v31.46Zm-4.54-14.2a5.1,5.1,0,1,0,5.08,5.08A5.07,5.07,0,0,0,520.29,148.26Z"/><path class="cls-1" d="M537.3,139.65a3.07,3.07,0,0,1,0-6.13,3.07,3.07,0,0,1,0,6.13Zm-2.56,22.81V144.27h5.08v18.19Z"/><path class="cls-1" d="M556.5,148.89a4.5,4.5,0,0,0-2.44-.63c-3.44,0-4.37,2.44-4.37,5.46v8.74h-5.08V144.27h5.08V147a5.93,5.93,0,0,1,7.52-2.9Z"/><path class="cls-1" d="M564,154.19c.08,2.81,1.43,4.87,4.45,4.87a4.77,4.77,0,0,0,4.33-2.44l4.71.76c-1.6,3.91-4.83,5.67-8.95,5.67-5.88,0-9.75-3.78-9.75-9.7s3.7-9.66,9.54-9.66c6,0,9.28,4,9.28,9.83v.67Zm4.41-6.89a4.13,4.13,0,0,0-4.24,3.65h8.61A4.22,4.22,0,0,0,568.38,147.3Z"/><path class="cls-1" d="M594,162.46l-6.85-7.81-.55.55v7.27h-5.08V131h5.08v19.91l6.8-6.64h6.89l-8.53,8,9.2,10.21Z"/><path class="cls-1" d="M608.32,148.64v13.82h-5.08V148.64h-2v-4.37h2v-6.22h5.08v6.22h3.57v4.37Z"/><path class="cls-1" d="M617.35,163a3.28,3.28,0,1,1,3.28-3.28A3.28,3.28,0,0,1,617.35,163Zm-2.6-8.57v-20H620v20Z"/></svg>