<svg id="Layer_1" data-name="Layer 1" xmlns="http://www.w3.org/2000/svg" viewBox="0 0 980 240"><defs><style>.cls-1{fill:#d80201;}</style></defs><title>text</title><path class="cls-1" d="M408.23,132.69c-4.24,0-7.27-1.85-9.62-5.33l3.53-3.4a6.42,6.42,0,0,0,5.88,3.74c2.35,0,4.33-1.47,4.33-3.95,0-5.75-12.31-3-12.31-12.06,0-5,4-8.15,8.74-8.15a12.29,12.29,0,0,1,8.19,3.11l-2.86,3.74a5.67,5.67,0,0,0-4.54-2.27c-1.81,0-3.91,1.13-3.91,3.15,0,4.75,12.31,2.39,12.31,12.18C418,129.16,413.77,132.69,408.23,132.69Z"/><path class="cls-1" d="M427.75,118.2V132h-5.08V118.2h-2v-4.37h2v-6.22h5.08v6.22h3.57v4.37Z"/><path class="cls-1" d="M443.42,132.61c-5.8,0-10.42-3.61-10.42-9.66s4.62-9.7,10.46-9.7,10.33,3.65,10.33,9.66S449.18,132.61,443.42,132.61Zm0-14.79a5.1,5.1,0,1,0,5.17,5.13A5.15,5.15,0,0,0,443.38,117.82Z"/><path class="cls-1" d="M469.59,118.45a4.5,4.5,0,0,0-2.44-.63c-3.44,0-4.37,2.44-4.37,5.46V132H457.7V113.83h5.08v2.73a5.93,5.93,0,0,1,7.52-2.9Z"/><path class="cls-1" d="M492.56,132.4h-2.35l-9.28-18.57h5.71l4.79,10.25,4.79-10.25h5.71Z"/><path class="cls-1" d="M518.31,132v-2.39a7,7,0,0,1-5.92,3c-5.46,0-8.95-4.54-8.95-9.75s3.49-9.62,8.82-9.62a7.58,7.58,0,0,1,6,2.9v-2.31h5.13V132Zm-4.54-14.2a5.1,5.1,0,1,0,5.08,5.08A5.07,5.07,0,0,0,513.77,117.82Zm-.71-7.18a3.78,3.78,0,0,1,0-7.56,3.78,3.78,0,1,1,0,7.56Zm0-5.25a1.47,1.47,0,1,0,1.47,1.47A1.44,1.44,0,0,0,513.06,105.39Z"/><path class="cls-1" d="M540.19,118.45a4.5,4.5,0,0,0-2.44-.63c-3.45,0-4.37,2.44-4.37,5.46V132H528.3V113.83h5.08v2.73a5.93,5.93,0,0,1,7.52-2.9Z"/><path class="cls-1" d="M555.9,132,549,124.21l-.55.55V132h-5.08V100.56h5.08v19.91l6.8-6.64h6.89l-8.53,8,9.2,10.21Z"/><path class="cls-1" d="M578.07,132v-2.39a7,7,0,0,1-5.92,3c-5.46,0-8.95-4.54-8.95-9.75s3.49-9.62,8.82-9.62a7.58,7.58,0,0,1,6,2.9v-2.31h5.13V132Zm-4.54-14.2a5.1,5.1,0,1,0,5.08,5.08A5.07,5.07,0,0,0,573.54,117.82Z"/><path class="cls-1" d="M611.29,132v-10c0-2.14-.34-4.5-3-4.5-3,0-3.49,2.73-3.49,5.13V132H599.7v-9.66a8.1,8.1,0,0,0-.38-3,2.94,2.94,0,0,0-2.73-1.76,3.32,3.32,0,0,0-2.86,1.64,7.56,7.56,0,0,0-.59,3.49V132h-5.08V113.83h5.08v2.06a7,7,0,0,1,5.54-2.65,6.18,6.18,0,0,1,5.67,3.32,6.72,6.72,0,0,1,6-3.32,6,6,0,0,1,5.08,2.6,8,8,0,0,1,1,4.41V132Z"/><path class="cls-1" d="M632.42,132.61a7.27,7.27,0,0,1-6.09-3v12.1h-5.08V113.83h5.08v2.31a7.25,7.25,0,0,1,6-2.9c5.42,0,9,4.49,9,9.7S637.75,132.61,632.42,132.61Zm-1.51-14.79A5.1,5.1,0,1,0,636,122.9,5.07,5.07,0,0,0,630.91,117.82Z"/><path class="cls-1" d="M659,132v-2.39a7,7,0,0,1-5.92,3c-5.46,0-8.95-4.54-8.95-9.75s3.49-9.62,8.82-9.62a7.58,7.58,0,0,1,6,2.9v-2.31h5.13V132Zm-4.54-14.2a5.1,5.1,0,1,0,5.08,5.08A5.07,5.07,0,0,0,654.51,117.82Z"/><path class="cls-1" d="M681.47,132V121.94c0-2.48-.55-4.37-3.45-4.37-3.15,0-3.91,2.31-3.91,5V132H669V113.83h5.08v2.23c1.68-1.93,3.11-2.81,5.71-2.81a7,7,0,0,1,5.29,2.18c1.3,1.51,1.43,3.15,1.43,5V132Z"/><path class="cls-1" d="M693.9,109.21a3.07,3.07,0,0,1,0-6.13,3.07,3.07,0,0,1,0,6.13Zm-2.56,32.51V113.83h5.08v27.89Z"/></svg>