<svg id="Layer_1" data-name="Layer 1" xmlns="http://www.w3.org/2000/svg" viewBox="0 0 980 240"><defs><style>.cls-1{fill:#d80201;}</style></defs><title>text</title><path class="cls-1" d="M361.47,131.46V118.1H348.78v13.36h-5.84v-30h5.84v11.61h12.69V101.45h5.85v30Z"/><path class="cls-1" d="M388.25,131.46V128.9a7.55,7.55,0,0,1-6.35,3.19c-5.85,0-9.58-4.86-9.58-10.44s3.73-10.3,9.45-10.3a8.14,8.14,0,0,1,6.48,3.1V112h5.49v19.48Zm-4.86-15.21a5.47,5.47,0,1,0,5.44,5.45A5.44,5.44,0,0,0,383.39,116.25Z"/><path class="cls-1" d="M399,131.46V97.76h5.44v33.7Z"/><path class="cls-1" d="M419.52,131.87H417L407.06,112h6.12l5.13,11,5.13-11h6.12Z"/><path class="cls-1" d="M446.12,131.46V128.9a7.55,7.55,0,0,1-6.35,3.19c-5.85,0-9.58-4.86-9.58-10.44s3.73-10.3,9.45-10.3a8.14,8.14,0,0,1,6.48,3.1V112h5.49v19.48Zm-4.86-15.21a5.47,5.47,0,1,0,5.44,5.45A5.44,5.44,0,0,0,441.26,116.25Z"/><path class="cls-1" d="M480.05,132.09a7.79,7.79,0,0,1-6.53-3.19v13h-5.44V112h5.44v2.47a7.76,7.76,0,0,1,6.39-3.1c5.81,0,9.63,4.81,9.63,10.39S485.76,132.09,480.05,132.09Zm-1.62-15.84a5.47,5.47,0,1,0,5.44,5.45A5.44,5.44,0,0,0,478.43,116.25Z"/><path class="cls-1" d="M506.42,116.93a4.79,4.79,0,0,0-2.61-.68c-3.69,0-4.68,2.61-4.68,5.85v9.36h-5.45V112h5.45v2.92a6.26,6.26,0,0,1,5.67-3.55,6.14,6.14,0,0,1,2.38.45Z"/><path class="cls-1" d="M512.54,107a3.29,3.29,0,1,1,0-6.57,3.29,3.29,0,0,1,0,6.57Zm-2.75,24.43V112h5.45v19.48Z"/><path class="cls-1" d="M526.58,132.09a10.37,10.37,0,0,1-7.43-3.24l2.88-3.33a6.34,6.34,0,0,0,4.59,2.3,2.3,2.3,0,0,0,2.48-2.16c0-3.33-8.69-1.67-8.69-8.24,0-4,3.29-6.16,7-6.16a10,10,0,0,1,6.34,2.07l-2.7,3.19a5.4,5.4,0,0,0-3.24-1.3c-.94,0-2.07.58-2.07,1.66,0,2.84,9,1.58,9,8.24C534.72,129.66,530.76,132.09,526.58,132.09Z"/><path class="cls-1" d="M543.14,122.6c.09,3,1.53,5.22,4.77,5.22a5.1,5.1,0,0,0,4.63-2.61l5,.81c-1.71,4.18-5.17,6.07-9.58,6.07-6.3,0-10.44-4.05-10.44-10.39s4-10.35,10.21-10.35c6.44,0,10,4.32,10,10.53v.72Zm4.72-7.38a4.42,4.42,0,0,0-4.54,3.91h9.22A4.51,4.51,0,0,0,547.86,115.22Z"/><path class="cls-1" d="M567.39,116.66v14.8H562v-14.8h-2.16V112H562v-6.66h5.44V112h3.83v4.68Z"/><path class="cls-1" d="M597.27,132.09a7.79,7.79,0,0,1-6.52-3.19v13H585.3V112h5.45v2.47a7.76,7.76,0,0,1,6.39-3.1c5.8,0,9.63,4.81,9.63,10.39S603,132.09,597.27,132.09Zm-1.62-15.84a5.47,5.47,0,1,0,5.45,5.45A5.44,5.44,0,0,0,595.65,116.25Z"/><path class="cls-1" d="M625.8,131.46V128.9a7.55,7.55,0,0,1-6.35,3.19c-5.85,0-9.58-4.86-9.58-10.44s3.73-10.3,9.45-10.3a8.14,8.14,0,0,1,6.48,3.1V112h5.49v19.48Zm-4.86-15.21a5.47,5.47,0,1,0,5.44,5.45A5.43,5.43,0,0,0,620.94,116.25Zm-.77-7.69a4.05,4.05,0,0,1,0-8.1,4,4,0,1,1,0,8.1Zm0-5.63a1.58,1.58,0,1,0,1.58,1.58A1.55,1.55,0,0,0,620.17,102.93Z"/><path class="cls-1" d="M659.59,132.09a7.68,7.68,0,0,1-6.39-3.19v2.56h-5.44V97.76h5.44v16.69c1.94-2,3.69-3.1,6.53-3.1,5.71,0,9.49,4.86,9.49,10.3S665.44,132.09,659.59,132.09Zm-1.48-15.84a5.47,5.47,0,1,0,5.44,5.45A5.44,5.44,0,0,0,658.11,116.25Z"/><path class="cls-1" d="M686.1,116.93a4.79,4.79,0,0,0-2.61-.68c-3.69,0-4.68,2.61-4.68,5.85v9.36h-5.45V112h5.45v2.92a6.26,6.26,0,0,1,5.67-3.55,6.14,6.14,0,0,1,2.38.45Z"/><path class="cls-1" d="M704.46,131.46V128.9a7.55,7.55,0,0,1-6.35,3.19c-5.85,0-9.58-4.86-9.58-10.44s3.73-10.3,9.45-10.3a8.14,8.14,0,0,1,6.48,3.1V112H710v19.48Zm-4.86-15.21A5.47,5.47,0,1,0,705,121.7,5.44,5.44,0,0,0,699.6,116.25Z"/><path class="cls-1" d="M721.38,132.09a10.37,10.37,0,0,1-7.43-3.24l2.88-3.33a6.34,6.34,0,0,0,4.59,2.3,2.3,2.3,0,0,0,2.48-2.16c0-3.33-8.69-1.67-8.69-8.24,0-4,3.29-6.16,7-6.16a10,10,0,0,1,6.34,2.07l-2.7,3.19a5.4,5.4,0,0,0-3.24-1.3c-.94,0-2.07.58-2.07,1.66,0,2.84,9,1.58,9,8.24C729.52,129.66,725.56,132.09,721.38,132.09Z"/><path class="cls-1" d="M746.76,131.46l-7.34-8.37-.58.59v7.78h-5.45V97.76h5.45v21.33l7.29-7.11h7.38l-9.14,8.55,9.86,10.93Z"/><path class="cls-1" d="M770.52,131.46V128.9a7.55,7.55,0,0,1-6.35,3.19c-5.85,0-9.58-4.86-9.58-10.44s3.73-10.3,9.45-10.3a8.14,8.14,0,0,1,6.48,3.1V112H776v19.48Zm-4.86-15.21a5.47,5.47,0,1,0,5.44,5.45A5.44,5.44,0,0,0,765.66,116.25Z"/><path class="cls-1" d="M806.11,131.46V120.8c0-2.3-.36-4.82-3.24-4.82-3.19,0-3.73,2.93-3.73,5.49v10h-5.45V121.11a8.78,8.78,0,0,0-.4-3.24,3.17,3.17,0,0,0-2.93-1.89,3.57,3.57,0,0,0-3.06,1.76,8.12,8.12,0,0,0-.63,3.73v10h-5.44V112h5.44v2.2a7.5,7.5,0,0,1,5.94-2.83,6.62,6.62,0,0,1,6.08,3.55,7.2,7.2,0,0,1,6.39-3.55,6.39,6.39,0,0,1,5.44,2.79,8.56,8.56,0,0,1,1,4.72v12.6Z"/><path class="cls-1" d="M819.43,107a3.29,3.29,0,0,1,0-6.57,3.29,3.29,0,0,1,0,6.57Zm-2.74,24.43V112h5.44v19.48Z"/><path class="cls-1" d="M840.58,131.46v-10.8c0-2.65-.58-4.68-3.69-4.68-3.37,0-4.18,2.48-4.18,5.4v10.08h-5.45V112h5.45v2.38c1.8-2.07,3.33-3,6.12-3a7.48,7.48,0,0,1,5.67,2.34c1.39,1.62,1.53,3.37,1.53,5.4v12.37Z"/></svg>