<svg id="Layer_1" data-name="Layer 1" xmlns="http://www.w3.org/2000/svg" viewBox="0 0 711 250"><defs><style>.cls-1{fill:#d80201;}</style></defs><title>text</title><path class="cls-1" d="M318.31,188.53a4.08,4.08,0,0,1-4.12-3.44l1.44-.4a2.72,2.72,0,0,0,2.72,2.44,2.63,2.63,0,0,0,2.68-2.64c0-3.14-6.16-2.4-6.16-6.32a3.53,3.53,0,0,1,3.74-3.44,3.8,3.8,0,0,1,3.44,2.08l-1.18.78a2.47,2.47,0,0,0-2.28-1.46,2.12,2.12,0,0,0-2.22,2c0,2.76,6.16,2,6.16,6.26A4.11,4.11,0,0,1,318.31,188.53Z"/><path class="cls-1" d="M330,188.29l-3.36-3.78-.36.36v3.42h-1.42V173.7h1.42V183l3-3.06h1.9l-3.56,3.52,4.22,4.78Z"/><path class="cls-1" d="M336.19,188.83,332.11,180h1.6l2.48,5.58,2.46-5.58h1.6Z"/><path class="cls-1" d="M347.83,188.29v-1.16a3.54,3.54,0,0,1-2.88,1.4c-2.48,0-4-2.08-4-4.42a4,4,0,0,1,4-4.32,3.51,3.51,0,0,1,2.9,1.38V180h1.42v8.3Zm-2.68-7.22a2.83,2.83,0,0,0-2.74,3,2.86,2.86,0,0,0,2.74,3.12,2.83,2.83,0,0,0,2.76-3.12A2.8,2.8,0,0,0,345.15,181.06Z"/><path class="cls-1" d="M358.31,188.29v-1.16a3.54,3.54,0,0,1-2.88,1.4,4.11,4.11,0,0,1-4-4.4,4.07,4.07,0,0,1,4-4.34,3.56,3.56,0,0,1,2.9,1.38V173.7h1.42v14.58Zm-2.68-7.2a3.09,3.09,0,1,0,2.76,3A2.78,2.78,0,0,0,355.63,181.08Z"/><path class="cls-1" d="M366.35,181.42a1.26,1.26,0,0,0-.84-.28,1.54,1.54,0,0,0-.72.18c-.92.5-.92,1.68-.92,2.58v4.38h-1.42V180h1.42v.9a2.22,2.22,0,0,1,1.88-1.1,2.36,2.36,0,0,1,1.28.34Z"/><path class="cls-1" d="M371.91,188.53a4.37,4.37,0,1,1,4.38-4.36A4.34,4.34,0,0,1,371.91,188.53Zm0-7.44a3.07,3.07,0,1,0,2.94,3.08A2.91,2.91,0,0,0,371.89,181.08Z"/><path class="cls-1" d="M383.69,188.29v-4.9c0-1.3-.18-2.32-1.74-2.32-1.84,0-2.06,1.6-2.06,3.06v4.16h-1.42V180h1.42v1a3,3,0,0,1,4.76-.06,3.8,3.8,0,0,1,.48,2.2v5.16Z"/><path class="cls-1" d="M390.73,188.83,386.65,180h1.6l2.48,5.58,2.46-5.58h1.6Z"/><path class="cls-1" d="M402.65,188.29v-1.16a3.54,3.54,0,0,1-2.88,1.4c-2.48,0-4-2.08-4-4.42a4,4,0,0,1,4-4.32,3.51,3.51,0,0,1,2.9,1.38V180h1.42v8.3ZM400,181.06a2.83,2.83,0,0,0-2.74,3,2.86,2.86,0,0,0,2.74,3.12,2.83,2.83,0,0,0,2.76-3.12A2.8,2.8,0,0,0,400,181.06Zm-1.66-2.78a1,1,0,0,1-1-1,1,1,0,1,1,1,1Zm3.48,0a1,1,0,0,1-1-1,1,1,0,1,1,1,1Z"/><path class="cls-1" d="M413.77,191.37a4,4,0,0,1-3.32,1.54,3.74,3.74,0,0,1-4-3.8h1.42a2.48,2.48,0,0,0,2.64,2.52c2,0,2.66-1.5,2.66-3.28v-1.22a3.75,3.75,0,0,1-2.92,1.38,4.38,4.38,0,0,1,.06-8.72,3.55,3.55,0,0,1,2.86,1.36V180h1.44v8.12A5,5,0,0,1,413.77,191.37Zm-3.34-10.3a2.85,2.85,0,0,0-2.72,3.14,2.8,2.8,0,0,0,2.72,3,3.1,3.1,0,0,0,0-6.16Z"/><path class="cls-1" d="M418.25,184.43a2.69,2.69,0,0,0,2.64,2.8,2.86,2.86,0,0,0,2.56-1.72l1.2.66a4.14,4.14,0,0,1-3.8,2.36,4,4,0,0,1-4.1-4.34c0-2.4,1.5-4.4,4-4.4s4,2,4,4.36v.28Zm2.56-3.34a2.55,2.55,0,0,0-2.46,2.14h4.88A2.49,2.49,0,0,0,420.81,181.08Z"/><path class="cls-1" d="M432.13,188.29v-4.9c0-1.3-.18-2.32-1.74-2.32-1.84,0-2.06,1.6-2.06,3.06v4.16h-1.42V180h1.42v1a3,3,0,0,1,4.76-.06,3.8,3.8,0,0,1,.48,2.2v5.16Z"/><path class="cls-1" d="M446.69,183.79,444,186.91h5.6v1.38h-8.62l4.86-5.62c.9-1,2.3-2.54,2.3-4a2.66,2.66,0,0,0-5.32.16h-1.5a5.54,5.54,0,0,1,.28-1.5,4.17,4.17,0,0,1,8,1.36C449.57,180.7,447.93,182.38,446.69,183.79Z"/><path class="cls-1" d="M460.43,182.3l-4.54,6.3-1.12-.82,3.08-4.28a4.19,4.19,0,0,1-1.22.18,4.31,4.31,0,0,1-4.28-4.38,4.6,4.6,0,0,1,9.2-.06A5.36,5.36,0,0,1,460.43,182.3ZM457,176.1a3.13,3.13,0,1,0,3.14,3.14A3.13,3.13,0,0,0,457,176.1Z"/><path class="cls-1" d="M464,191.33l-.94-.38,1.64-4.62,1.32.48Z"/><path class="cls-1" d="M477.69,189.09l-5.4-14.14h1.62l3.8,10.18,3.78-10.18h1.6Z"/><path class="cls-1" d="M490,188.29v-1.16a3.54,3.54,0,0,1-2.88,1.4c-2.48,0-4-2.08-4-4.42a4,4,0,0,1,4-4.32,3.51,3.51,0,0,1,2.9,1.38V180h1.42v8.3Zm-2.68-7.22a2.83,2.83,0,0,0-2.74,3,2.86,2.86,0,0,0,2.74,3.12,2.83,2.83,0,0,0,2.76-3.12A2.8,2.8,0,0,0,487.35,181.06Z"/><path class="cls-1" d="M494.17,188.29V173.7h1.42v14.58Z"/><path class="cls-1" d="M498.31,188.29V173.7h1.42v14.58Z"/><path class="cls-1" d="M503.41,184.43a2.69,2.69,0,0,0,2.64,2.8,2.86,2.86,0,0,0,2.56-1.72l1.2.66a4.14,4.14,0,0,1-3.8,2.36,4,4,0,0,1-4.1-4.34c0-2.4,1.5-4.4,4-4.4s4,2,4,4.36v.28Zm2.56-3.34a2.55,2.55,0,0,0-2.46,2.14h4.88A2.49,2.49,0,0,0,506,181.08Z"/><path class="cls-1" d="M517.29,188.29v-4.9c0-1.3-.18-2.32-1.74-2.32-1.84,0-2.06,1.6-2.06,3.06v4.16h-1.42V180h1.42v1a3,3,0,0,1,4.76-.06,3.8,3.8,0,0,1,.48,2.2v5.16Z"/><path class="cls-1" d="M522.89,181.3v7h-1.44v-7h-.86V180h.86v-3h1.44v3h1.46v1.32Z"/><path class="cls-1" d="M531.57,187.49a3.62,3.62,0,0,1-5.08,0,3.4,3.4,0,0,1-.76-2.5v-5h1.42v4.84a3.18,3.18,0,0,0,.26,1.56,2,2,0,0,0,3.22,0,3.22,3.22,0,0,0,.26-1.56V180h1.42v5A3.39,3.39,0,0,1,531.57,187.49Z"/><path class="cls-1" d="M540.25,188.29v-4.9c0-1.3-.18-2.32-1.74-2.32-1.84,0-2.06,1.6-2.06,3.06v4.16H535V180h1.42v1a3,3,0,0,1,4.76-.06,3.8,3.8,0,0,1,.48,2.2v5.16Z"/><path class="cls-1" d="M550.75,188.29v-1.16a3.54,3.54,0,0,1-2.88,1.4c-2.48,0-4-2.08-4-4.42a4,4,0,0,1,4-4.32,3.51,3.51,0,0,1,2.9,1.38V180h1.42v8.3Zm-2.68-7.22a2.83,2.83,0,0,0-2.74,3,2.86,2.86,0,0,0,2.74,3.12,2.83,2.83,0,0,0,2.76-3.12A2.8,2.8,0,0,0,548.07,181.06Z"/><path class="cls-1" d="M291.23,209.53a4.08,4.08,0,0,1-4.12-3.44l1.44-.4a2.72,2.72,0,0,0,2.72,2.44,2.63,2.63,0,0,0,2.68-2.64c0-3.14-6.16-2.4-6.16-6.32a3.53,3.53,0,0,1,3.74-3.44A3.8,3.8,0,0,1,295,197.8l-1.18.78a2.47,2.47,0,0,0-2.28-1.46,2.12,2.12,0,0,0-2.22,2c0,2.76,6.16,2,6.16,6.26A4.11,4.11,0,0,1,291.23,209.53Z"/><path class="cls-1" d="M301.67,209.53a4.37,4.37,0,1,1,4.38-4.36A4.34,4.34,0,0,1,301.67,209.53Zm0-7.44a3.07,3.07,0,1,0,2.94,3.08A2.91,2.91,0,0,0,301.65,202.08Zm-1.72-2.8a1,1,0,0,1-1-1,1,1,0,1,1,1,1Zm3.48,0a1,1,0,0,1-1-1,1,1,0,1,1,1,1Z"/><path class="cls-1" d="M313.45,209.29v-4.9c0-1.3-.18-2.32-1.74-2.32-1.84,0-2.06,1.6-2.06,3.06v4.16h-1.42V201h1.42v1a3,3,0,0,1,4.76-.06,3.8,3.8,0,0,1,.48,2.2v5.16Z"/><path class="cls-1" d="M324,209.29v-1.16a3.54,3.54,0,0,1-2.88,1.4,4.11,4.11,0,0,1-4-4.4,4.07,4.07,0,0,1,4-4.34,3.56,3.56,0,0,1,2.9,1.38V194.7h1.42v14.58Zm-2.68-7.2a3.09,3.09,0,1,0,2.76,3A2.78,2.78,0,0,0,321.27,202.08Z"/><path class="cls-1" d="M334.43,209.29v-1.16a3.54,3.54,0,0,1-2.88,1.4c-2.48,0-4-2.08-4-4.42a4,4,0,0,1,4-4.32,3.51,3.51,0,0,1,2.9,1.38V201h1.42v8.3Zm-2.68-7.22a2.83,2.83,0,0,0-2.74,3,2.86,2.86,0,0,0,2.74,3.12,2.83,2.83,0,0,0,2.76-3.12A2.8,2.8,0,0,0,331.75,202.06Z"/><path class="cls-1" d="M345.55,212.37a4,4,0,0,1-3.32,1.54,3.74,3.74,0,0,1-4-3.8h1.42a2.48,2.48,0,0,0,2.64,2.52c2,0,2.66-1.5,2.66-3.28v-1.22a3.75,3.75,0,0,1-2.92,1.38,4.38,4.38,0,0,1,.06-8.72,3.55,3.55,0,0,1,2.86,1.36V201h1.44v8.12A5,5,0,0,1,345.55,212.37Zm-3.34-10.3a2.85,2.85,0,0,0-2.72,3.14,2.8,2.8,0,0,0,2.72,3,3.1,3.1,0,0,0,0-6.16Z"/><path class="cls-1" d="M359.47,204.79l-2.74,3.12h5.6v1.38h-8.62l4.86-5.62c.9-1,2.3-2.54,2.3-4a2.66,2.66,0,0,0-5.32.16h-1.5a5.54,5.54,0,0,1,.28-1.5,4.17,4.17,0,0,1,8,1.36C362.35,201.7,360.71,203.38,359.47,204.79Z"/><path class="cls-1" d="M373.21,203.3l-4.54,6.3-1.12-.82,3.08-4.28a4.19,4.19,0,0,1-1.22.18,4.31,4.31,0,0,1-4.28-4.38,4.6,4.6,0,0,1,9.2-.06A5.36,5.36,0,0,1,373.21,203.3Zm-3.48-6.2a3.13,3.13,0,1,0,3.14,3.14A3.13,3.13,0,0,0,369.73,197.1Z"/><path class="cls-1" d="M388.09,209.29v-1.16a3.54,3.54,0,0,1-2.88,1.4c-2.48,0-4-2.08-4-4.42a4,4,0,0,1,4-4.32,3.51,3.51,0,0,1,2.9,1.38V201h1.42v8.3Zm-2.68-7.22a2.83,2.83,0,0,0-2.74,3,2.86,2.86,0,0,0,2.74,3.12,2.83,2.83,0,0,0,2.76-3.12A2.8,2.8,0,0,0,385.41,202.06Z"/><path class="cls-1" d="M396.55,209.53a3.58,3.58,0,0,1-2.9-1.4V214h-1.42V201h1.42v1.16a3.59,3.59,0,0,1,2.88-1.36,4.11,4.11,0,0,1,4,4.4A4.07,4.07,0,0,1,396.55,209.53Zm-.22-7.46a2.86,2.86,0,0,0-2.76,3.12,2.76,2.76,0,1,0,5.5,0A2.86,2.86,0,0,0,396.33,202.06Z"/><path class="cls-1" d="M406.61,202.42a1.26,1.26,0,0,0-.84-.28,1.54,1.54,0,0,0-.72.18c-.92.5-.92,1.68-.92,2.58v4.38h-1.42V201h1.42v.9a2.22,2.22,0,0,1,1.88-1.1,2.36,2.36,0,0,1,1.28.34Z"/><path class="cls-1" d="M409.33,198.86a1,1,0,1,1,1-1A1,1,0,0,1,409.33,198.86Zm-.72,10.42V201H410v8.3Z"/><path class="cls-1" d="M412.77,209.29V194.7h1.42v14.58Z"/><path class="cls-1" d="M421.21,203.28V202h8.68v1.32Z"/><path class="cls-1" d="M437.87,205.43a2.69,2.69,0,0,0,2.64,2.8,2.86,2.86,0,0,0,2.56-1.72l1.2.66a4.14,4.14,0,0,1-3.8,2.36,4,4,0,0,1-4.1-4.34c0-2.4,1.5-4.4,4-4.4s4,2,4,4.36v.28Zm2.56-3.34a2.55,2.55,0,0,0-2.46,2.14h4.88A2.49,2.49,0,0,0,440.43,202.08Z"/><path class="cls-1" d="M451.75,209.29v-4.9c0-1.3-.18-2.32-1.74-2.32-1.84,0-2.06,1.6-2.06,3.06v4.16h-1.42V201H448v1a3,3,0,0,1,4.76-.06,3.8,3.8,0,0,1,.48,2.2v5.16Z"/><path class="cls-1" d="M462.25,209.29v-1.16a3.54,3.54,0,0,1-2.88,1.4,4.11,4.11,0,0,1-4-4.4,4.07,4.07,0,0,1,4-4.34,3.56,3.56,0,0,1,2.9,1.38V194.7h1.42v14.58Zm-2.68-7.2a3.09,3.09,0,1,0,2.76,3A2.78,2.78,0,0,0,459.57,202.08Z"/><path class="cls-1" d="M472.73,209.29v-1.16a3.54,3.54,0,0,1-2.88,1.4c-2.48,0-4-2.08-4-4.42a4,4,0,0,1,4-4.32,3.51,3.51,0,0,1,2.9,1.38V201h1.42v8.3Zm-2.68-7.22a2.83,2.83,0,0,0-2.74,3,2.86,2.86,0,0,0,2.74,3.12,2.83,2.83,0,0,0,2.76-3.12A2.8,2.8,0,0,0,470.05,202.06Z"/><path class="cls-1" d="M479.11,209.53a3,3,0,0,1-2.9-2.12l1.24-.52c.34.74.8,1.34,1.68,1.34a1.29,1.29,0,0,0,1.36-1.3c0-1.8-3.74-1.24-3.74-3.82a2.33,2.33,0,0,1,2.42-2.32,2.49,2.49,0,0,1,2.28,1.5l-1.18.62a1.33,1.33,0,0,0-1.16-.82,1,1,0,0,0-1,.92c0,1.46,3.84,1.08,3.84,3.8A2.73,2.73,0,0,1,479.11,209.53Z"/><path class="cls-1" d="M485.31,202.3v7h-1.44v-7H483V201h.86v-3h1.44v3h1.46v1.32Z"/><path class="cls-1" d="M494.57,202.3v7h-1.42v-7h-.78V201h.78v-3.54a4.76,4.76,0,0,1,.22-1.6,2.31,2.31,0,0,1,2.24-1.38,3.66,3.66,0,0,1,1,.18v1.44a2.55,2.55,0,0,0-.94-.2c-1,0-1.14.78-1.14,1.62V201h2.08v1.32Z"/><path class="cls-1" d="M501.79,209.53a4.37,4.37,0,1,1,4.38-4.36A4.34,4.34,0,0,1,501.79,209.53Zm0-7.44a3.07,3.07,0,1,0,2.94,3.08A2.91,2.91,0,0,0,501.77,202.08Zm-1.72-2.8a1,1,0,0,1-1-1,1,1,0,1,1,1,1Zm3.48,0a1,1,0,0,1-1-1,1,1,0,1,1,1,1Z"/><path class="cls-1" d="M512.25,202.42a1.26,1.26,0,0,0-.84-.28,1.54,1.54,0,0,0-.72.18c-.92.5-.92,1.68-.92,2.58v4.38h-1.42V201h1.42v.9a2.22,2.22,0,0,1,1.88-1.1,2.36,2.36,0,0,1,1.28.34Z"/><path class="cls-1" d="M520.37,209.29v-1.16a3.54,3.54,0,0,1-2.88,1.4c-2.48,0-4-2.08-4-4.42a4,4,0,0,1,4-4.32,3.51,3.51,0,0,1,2.9,1.38V201h1.42v8.3Zm-2.68-7.22a2.83,2.83,0,0,0-2.74,3,2.86,2.86,0,0,0,2.74,3.12,2.83,2.83,0,0,0,2.76-3.12A2.8,2.8,0,0,0,517.69,202.06Z"/><path class="cls-1" d="M529.73,209.29v-4.9c0-1.3-.18-2.32-1.74-2.32-1.84,0-2.06,1.6-2.06,3.06v4.16h-1.42V201h1.42v1a3,3,0,0,1,4.76-.06,3.8,3.8,0,0,1,.48,2.2v5.16Z"/><path class="cls-1" d="M543.35,209.29v-5c0-1.06-.18-2.18-1.5-2.18-1.5,0-1.78,1.4-1.78,2.6v4.62h-1.42v-4.92c0-1-.22-2.3-1.52-2.3a1.72,1.72,0,0,0-1.5.9,4,4,0,0,0-.32,1.8v4.52h-1.42V201h1.42v.88a2.37,2.37,0,0,1,2.06-1.08,2.53,2.53,0,0,1,2.28,1.34,2.83,2.83,0,0,1,4.66-.22,3.88,3.88,0,0,1,.46,2.12v5.26Z"/><path class="cls-1" d="M553.83,209.29v-1.16a3.54,3.54,0,0,1-2.88,1.4c-2.48,0-4-2.08-4-4.42a4,4,0,0,1,4-4.32,3.51,3.51,0,0,1,2.9,1.38V201h1.42v8.3Zm-2.68-7.22a2.83,2.83,0,0,0-2.74,3,2.86,2.86,0,0,0,2.74,3.12,2.83,2.83,0,0,0,2.76-3.12A2.8,2.8,0,0,0,551.15,202.06Zm-1.66-2.78a1,1,0,0,1-1-1,1,1,0,1,1,1,1Zm3.48,0a1,1,0,0,1-1-1,1,1,0,1,1,1,1Z"/><path class="cls-1" d="M558,209.29V194.7h1.42v14.58Z"/><path class="cls-1" d="M568.45,209.29v-1.16a3.54,3.54,0,0,1-2.88,1.4c-2.48,0-4-2.08-4-4.42a4,4,0,0,1,4-4.32,3.51,3.51,0,0,1,2.9,1.38V201h1.42v8.3Zm-2.68-7.22a2.83,2.83,0,0,0-2.74,3,2.86,2.86,0,0,0,2.74,3.12,2.83,2.83,0,0,0,2.76-3.12A2.8,2.8,0,0,0,565.77,202.06Z"/><path class="cls-1" d="M577.81,209.29v-4.9c0-1.3-.18-2.32-1.74-2.32-1.84,0-2.06,1.6-2.06,3.06v4.16h-1.42V201H574v1a3,3,0,0,1,4.76-.06,3.8,3.8,0,0,1,.48,2.2v5.16Z"/></svg>