<svg id="Layer_1" data-name="Layer 1" xmlns="http://www.w3.org/2000/svg" viewBox="0 0 980 240"><defs><style>.cls-1{fill:#d80201;}</style></defs><title>text</title><path class="cls-1" d="M345.21,117.25c-2.92,3.15-7.51,2.65-11.42,2.65V131h-5.85V101h8.73c3,0,5.58.22,7.91,2.29a9.56,9.56,0,0,1,3.06,7.24A9.85,9.85,0,0,1,345.21,117.25ZM340.08,107c-1.12-.9-2.87-1-4.27-1h-2v8.73h2.38c2.93,0,5.45-.95,5.45-4.32A4.42,4.42,0,0,0,340.08,107Z"/><path class="cls-1" d="M365.15,131v-2.57a7.51,7.51,0,0,1-6.34,3.2c-5.85,0-9.59-4.86-9.59-10.44s3.74-10.31,9.45-10.31a8.1,8.1,0,0,1,6.48,3.11v-2.48h5.49V131Zm-4.86-15.21a5.47,5.47,0,1,0,5.44,5.44A5.43,5.43,0,0,0,360.29,115.81Z"/><path class="cls-1" d="M382.07,131.65a10.37,10.37,0,0,1-7.42-3.24l2.87-3.33a6.36,6.36,0,0,0,4.59,2.29,2.3,2.3,0,0,0,2.48-2.16c0-3.33-8.69-1.66-8.69-8.23,0-4,3.29-6.17,7-6.17a10,10,0,0,1,6.34,2.07l-2.7,3.2a5.42,5.42,0,0,0-3.24-1.31c-.94,0-2.07.59-2.07,1.67,0,2.83,9,1.57,9,8.23C390.21,129.22,386.25,131.65,382.07,131.65Z"/><path class="cls-1" d="M400.29,131.65a10.38,10.38,0,0,1-7.42-3.24l2.88-3.33a6.32,6.32,0,0,0,4.59,2.29,2.29,2.29,0,0,0,2.47-2.16c0-3.33-8.68-1.66-8.68-8.23,0-4,3.29-6.17,7-6.17a10.06,10.06,0,0,1,6.35,2.07l-2.7,3.2a5.47,5.47,0,0,0-3.24-1.31c-.95,0-2.07.59-2.07,1.67,0,2.83,9,1.57,9,8.23C408.44,129.22,404.48,131.65,400.29,131.65Z"/><path class="cls-1" d="M427.2,131v-2.57a7.51,7.51,0,0,1-6.34,3.2c-5.85,0-9.59-4.86-9.59-10.44s3.74-10.31,9.45-10.31A8.1,8.1,0,0,1,427.2,114v-2.48h5.49V131Zm-4.86-15.21a5.47,5.47,0,1,0,5.45,5.44A5.43,5.43,0,0,0,422.34,115.81Z"/><path class="cls-1" d="M461.13,131.65a7.8,7.8,0,0,1-6.52-3.2v13h-5.45V111.53h5.45V114A7.77,7.77,0,0,1,461,110.9c5.8,0,9.63,4.82,9.63,10.4S466.85,131.65,461.13,131.65Zm-1.62-15.84a5.47,5.47,0,1,0,5.45,5.44A5.43,5.43,0,0,0,459.51,115.81Z"/><path class="cls-1" d="M489.66,131v-2.57a7.51,7.51,0,0,1-6.34,3.2c-5.85,0-9.59-4.86-9.59-10.44s3.74-10.31,9.45-10.31a8.1,8.1,0,0,1,6.48,3.11v-2.48h5.49V131Zm-4.86-15.21a5.47,5.47,0,1,0,5.45,5.44A5.43,5.43,0,0,0,484.8,115.81Zm-.76-7.7a4,4,0,1,1,0-8.09,4,4,0,1,1,0,8.09Zm0-5.62a1.58,1.58,0,1,0,1.57,1.57A1.54,1.54,0,0,0,484,102.49Z"/><path class="cls-1" d="M517.83,131.65a10.37,10.37,0,0,1-7.42-3.24l2.88-3.33a6.32,6.32,0,0,0,4.59,2.29,2.29,2.29,0,0,0,2.47-2.16c0-3.33-8.68-1.66-8.68-8.23,0-4,3.28-6.17,7-6.17a10.06,10.06,0,0,1,6.35,2.07l-2.7,3.2a5.47,5.47,0,0,0-3.24-1.31c-.95,0-2.07.59-2.07,1.67,0,2.83,9,1.57,9,8.23C526,129.22,522,131.65,517.83,131.65Z"/><path class="cls-1" d="M534.39,122.15c.09,3,1.53,5.22,4.77,5.22a5.11,5.11,0,0,0,4.64-2.61l5,.81c-1.71,4.19-5.18,6.08-9.59,6.08-6.3,0-10.44-4.05-10.44-10.4s4-10.35,10.22-10.35c6.43,0,9.94,4.32,9.94,10.53v.72Zm4.73-7.38a4.42,4.42,0,0,0-4.55,3.92h9.23A4.52,4.52,0,0,0,539.12,114.77Z"/><path class="cls-1" d="M566.48,131v-10.8c0-2.66-.59-4.68-3.69-4.68-3.38,0-4.19,2.47-4.19,5.4V131h-5.44V111.53h5.44v2.39c1.8-2.07,3.33-3,6.12-3a7.5,7.5,0,0,1,5.67,2.34c1.4,1.62,1.53,3.38,1.53,5.4V131Z"/><path class="cls-1" d="M592,131v-2.57a7.53,7.53,0,0,1-6.35,3.2c-5.85,0-9.58-4.86-9.58-10.44s3.73-10.31,9.45-10.31A8.12,8.12,0,0,1,592,114v-2.48h5.49V131Zm-4.86-15.21a5.47,5.47,0,1,0,5.44,5.44A5.44,5.44,0,0,0,587.18,115.81Z"/><path class="cls-1" d="M609,131.65a10.4,10.4,0,0,1-7.43-3.24l2.88-3.33a6.36,6.36,0,0,0,4.59,2.29,2.3,2.3,0,0,0,2.48-2.16c0-3.33-8.69-1.66-8.69-8.23,0-4,3.29-6.17,7-6.17a10,10,0,0,1,6.34,2.07l-2.7,3.2a5.44,5.44,0,0,0-3.24-1.31c-.94,0-2.07.59-2.07,1.67,0,2.83,9,1.57,9,8.23C617.1,129.22,613.14,131.65,609,131.65Z"/><path class="cls-1" d="M626.46,116.21V131H621V116.21h-2.16v-4.68H621v-6.65h5.44v6.65h3.83v4.68Z"/><path class="cls-1" d="M653.64,131.78c-5.58,0-10.49-3.6-10.8-9.4h5.89a4.89,4.89,0,1,0,5.09-5.27,9.83,9.83,0,0,0-1.08.09V113a4.41,4.41,0,0,0,.81,0,4.07,4.07,0,1,0,.13-8.14c-2.56,0-3.78,1.57-4.09,4h-5.54c.86-5.66,4.32-8.59,10-8.59,5,0,9.13,3,9.13,8.28a6.69,6.69,0,0,1-3.46,6.39c3.15,1.3,4.59,4,4.59,7.38C664.35,128.41,659.35,131.78,653.64,131.78Z"/><path class="cls-1" d="M677.49,131V106.14h-4.32V101h10.17v30Z"/><path class="cls-1" d="M716.77,131.65c-6.21,0-11.16-3.87-11.16-10.35s4.95-10.4,11.21-10.4,11.07,3.92,11.07,10.35S722.94,131.65,716.77,131.65Zm0-15.84a5.47,5.47,0,1,0,5.53,5.49A5.51,5.51,0,0,0,716.73,115.81Z"/><path class="cls-1" d="M745.44,131l-7.34-8.37-.58.58V131h-5.45V97.32h5.45v21.32l7.29-7.11h7.38l-9.14,8.55L752.91,131Z"/><path class="cls-1" d="M760.83,116.21V131h-5.45V116.21h-2.16v-4.68h2.16v-6.65h5.45v6.65h3.82v4.68Z"/><path class="cls-1" d="M777.61,131.65c-6.21,0-11.16-3.87-11.16-10.35s4.95-10.4,11.21-10.4,11.07,3.92,11.07,10.35S783.78,131.65,777.61,131.65Zm0-15.84a5.47,5.47,0,1,0,5.53,5.49A5.51,5.51,0,0,0,777.57,115.81Z"/><path class="cls-1" d="M804.75,131.65a7.65,7.65,0,0,1-6.39-3.2V131h-5.45V97.32h5.45V114c1.93-2,3.69-3.11,6.52-3.11,5.72,0,9.5,4.86,9.5,10.31S810.6,131.65,804.75,131.65Zm-1.49-15.84a5.47,5.47,0,1,0,5.45,5.44A5.43,5.43,0,0,0,803.26,115.81Z"/><path class="cls-1" d="M823.06,122.15c.09,3,1.53,5.22,4.77,5.22a5.11,5.11,0,0,0,4.64-2.61l5,.81c-1.7,4.19-5.17,6.08-9.58,6.08-6.3,0-10.44-4.05-10.44-10.4s4-10.35,10.22-10.35c6.43,0,9.94,4.32,9.94,10.53v.72Zm4.73-7.38a4.42,4.42,0,0,0-4.55,3.92h9.23A4.52,4.52,0,0,0,827.79,114.77Z"/><path class="cls-1" d="M854.56,116.48a4.85,4.85,0,0,0-2.61-.67c-3.69,0-4.68,2.61-4.68,5.85V131h-5.44V111.53h5.44v2.93a6.26,6.26,0,0,1,5.67-3.56,6.38,6.38,0,0,1,2.39.45Z"/><path class="cls-1" d="M861,131.6a3.51,3.51,0,1,1,3.51-3.51A3.51,3.51,0,0,1,861,131.6Zm-2.79-9.18V101h5.58v21.41Z"/></svg>