<svg id="Layer_1" data-name="Layer 1" xmlns="http://www.w3.org/2000/svg" viewBox="0 0 980 240"><defs><style>.cls-1{fill:#d80201;}</style></defs><title>text</title><path class="cls-1" d="M300.62,118.52,284.38,100v18h-5.2V90.72h3.6L299,109.28v-18h5.2v27.2Z"/><path class="cls-1" d="M314.62,127.28h-5.48l6.36-11.88-8.2-14.72h5.64l5.2,9.84,5-9.84h5.52Z"/><path class="cls-1" d="M343.26,118v-2.28a6.69,6.69,0,0,1-5.64,2.84c-5.2,0-8.52-4.32-8.52-9.28s3.32-9.16,8.4-9.16a7.22,7.22,0,0,1,5.76,2.76v-2.2h4.88V118Zm-4.32-13.52a4.86,4.86,0,1,0,4.84,4.84A4.83,4.83,0,0,0,338.94,104.48Z"/><path class="cls-1" d="M374.62,118v-9.48c0-2.4-.52-4.28-3.32-4.28-3,0-3.68,2.32-3.68,4.88V118h-4.84V88h4.84v14.88a6.31,6.31,0,0,1,5.44-2.8,6.62,6.62,0,0,1,5,2.12c1.24,1.44,1.36,3.08,1.36,4.88V118Z"/><path class="cls-1" d="M392.46,118.56c-4.76,0-8.36-2.12-8.36-7.28v-10.6h4.84v9.8c0,2.36,1,4,3.52,4s3.52-1.6,3.52-4v-9.8h4.88v10.6C400.86,116.44,397.22,118.56,392.46,118.56Z"/><path class="cls-1" d="M411,118.56a9.21,9.21,0,0,1-6.6-2.88l2.56-3a5.62,5.62,0,0,0,4.08,2,2,2,0,0,0,2.2-1.92c0-3-7.72-1.48-7.72-7.32,0-3.52,2.92-5.48,6.2-5.48a8.92,8.92,0,0,1,5.64,1.84l-2.4,2.84a4.83,4.83,0,0,0-2.88-1.16c-.84,0-1.84.52-1.84,1.48,0,2.52,8,1.4,8,7.32C418.26,116.4,414.74,118.56,411,118.56Z"/><path class="cls-1" d="M443.82,118v-9.48c0-2-.32-4.28-2.88-4.28-2.84,0-3.32,2.6-3.32,4.88V118h-4.84v-9.2a7.73,7.73,0,0,0-.36-2.88,2.8,2.8,0,0,0-2.6-1.68,3.16,3.16,0,0,0-2.72,1.56,7.19,7.19,0,0,0-.56,3.32V118H421.7V100.68h4.84v2a6.65,6.65,0,0,1,5.28-2.52,5.88,5.88,0,0,1,5.4,3.16,6.4,6.4,0,0,1,5.68-3.16,5.7,5.7,0,0,1,4.84,2.48,7.63,7.63,0,0,1,.92,4.2V118Z"/><path class="cls-1" d="M462.3,118.56c-5.52,0-9.92-3.44-9.92-9.2s4.4-9.24,10-9.24,9.84,3.48,9.84,9.2S467.78,118.56,462.3,118.56Zm0-14.08a4.86,4.86,0,1,0,4.92,4.88A4.9,4.9,0,0,0,462.26,104.48Z"/><path class="cls-1" d="M489.14,118v-2.28a6.69,6.69,0,0,1-5.64,2.84c-5.2,0-8.52-4.32-8.52-9.28s3.32-9.16,8.4-9.16a7.22,7.22,0,0,1,5.76,2.76V88H494v30Zm-4.32-13.52a4.86,4.86,0,1,0,4.84,4.84A4.83,4.83,0,0,0,484.82,104.48Z"/><path class="cls-1" d="M502.7,110.12c.08,2.68,1.36,4.64,4.24,4.64a4.54,4.54,0,0,0,4.12-2.32l4.48.72c-1.52,3.72-4.6,5.4-8.52,5.4-5.6,0-9.28-3.6-9.28-9.24s3.52-9.2,9.08-9.2c5.72,0,8.84,3.84,8.84,9.36v.64Zm4.2-6.56a3.93,3.93,0,0,0-4,3.48h8.2A4,4,0,0,0,506.9,103.56Z"/><path class="cls-1" d="M519.38,118V88h4.84v30Z"/><path class="cls-1" d="M528.86,118V88h4.84v30Z"/><path class="cls-1" d="M542.38,110.12c.08,2.68,1.36,4.64,4.24,4.64a4.54,4.54,0,0,0,4.12-2.32l4.48.72c-1.52,3.72-4.6,5.4-8.52,5.4-5.6,0-9.28-3.6-9.28-9.24s3.52-9.2,9.08-9.2c5.72,0,8.84,3.84,8.84,9.36v.64Zm4.2-6.56a3.93,3.93,0,0,0-4,3.48h8.2A4,4,0,0,0,546.58,103.56Z"/><path class="cls-1" d="M570.38,105.08a4.28,4.28,0,0,0-2.32-.6c-3.28,0-4.16,2.32-4.16,5.2V118h-4.84V100.68h4.84v2.6a5.65,5.65,0,0,1,7.16-2.76Z"/><path class="cls-1" d="M576.14,118.52a3.12,3.12,0,1,1,3.12-3.12A3.12,3.12,0,0,1,576.14,118.52Zm-2.48-8.16v-19h5v19Z"/><path class="cls-1" d="M300.62,165.52,284.38,147v18h-5.2V137.72h3.6L299,156.28v-18h5.2v27.2Z"/><path class="cls-1" d="M317.94,165.56c-4.76,0-8.36-2.12-8.36-7.28v-10.6h4.84v9.8c0,2.36,1,4,3.52,4s3.52-1.6,3.52-4v-9.8h4.88v10.6C326.34,163.44,322.7,165.56,317.94,165.56Z"/><path class="cls-1" d="M354.22,165v-2.28a6.69,6.69,0,0,1-5.64,2.84c-5.2,0-8.52-4.32-8.52-9.28s3.32-9.16,8.4-9.16a7.22,7.22,0,0,1,5.76,2.76v-2.2h4.88V165Zm-8.36-20.56a2.88,2.88,0,0,1,0-5.76,2.88,2.88,0,0,1,0,5.76Zm4,7a4.86,4.86,0,1,0,4.84,4.84A4.83,4.83,0,0,0,349.9,151.48Zm4.28-7a2.92,2.92,0,0,1-2.88-2.88,2.88,2.88,0,1,1,2.88,2.88Z"/><path class="cls-1" d="M372.54,165.36H370.3l-8.84-17.68h5.44l4.56,9.76,4.56-9.76h5.44Z"/><path class="cls-1" d="M387,157.12c.08,2.68,1.36,4.64,4.24,4.64a4.54,4.54,0,0,0,4.12-2.32l4.48.72c-1.52,3.72-4.6,5.4-8.52,5.4-5.6,0-9.28-3.6-9.28-9.24s3.52-9.2,9.08-9.2c5.72,0,8.84,3.84,8.84,9.36v.64Zm4.2-6.56a3.93,3.93,0,0,0-4,3.48h8.2A4,4,0,0,0,391.18,150.56Z"/><path class="cls-1" d="M415.5,165v-9.6c0-2.36-.52-4.16-3.28-4.16-3,0-3.72,2.2-3.72,4.8v9h-4.84V147.68h4.84v2.12c1.6-1.84,3-2.68,5.44-2.68a6.64,6.64,0,0,1,5,2.08c1.24,1.44,1.36,3,1.36,4.8v11Z"/><path class="cls-1" d="M443.14,165.64a10.39,10.39,0,0,1-9.16-5.08l3.36-3.24a6.12,6.12,0,0,0,5.6,3.56c2.24,0,4.12-1.4,4.12-3.76,0-5.48-11.72-2.88-11.72-11.48,0-4.72,3.8-7.76,8.32-7.76a11.7,11.7,0,0,1,7.8,3l-2.72,3.56a5.4,5.4,0,0,0-4.32-2.16c-1.72,0-3.72,1.08-3.72,3,0,4.52,11.72,2.28,11.72,11.6C452.42,162.28,448.42,165.64,443.14,165.64Z"/><path class="cls-1" d="M478.38,165v-9.48c0-2-.32-4.28-2.88-4.28-2.84,0-3.32,2.6-3.32,4.88V165h-4.84v-9.2a7.73,7.73,0,0,0-.36-2.88,2.8,2.8,0,0,0-2.6-1.68,3.16,3.16,0,0,0-2.72,1.56,7.19,7.19,0,0,0-.56,3.32V165h-4.84V147.68h4.84v2a6.65,6.65,0,0,1,5.28-2.52,5.88,5.88,0,0,1,5.4,3.16,6.4,6.4,0,0,1,5.68-3.16,5.7,5.7,0,0,1,4.84,2.48,7.63,7.63,0,0,1,.92,4.2V165Z"/><path class="cls-1" d="M501.1,165v-2.28a6.69,6.69,0,0,1-5.64,2.84c-5.2,0-8.52-4.32-8.52-9.28s3.32-9.16,8.4-9.16a7.22,7.22,0,0,1,5.76,2.76v-2.2H506V165Zm-4.32-13.52a4.86,4.86,0,1,0,4.84,4.84A4.83,4.83,0,0,0,496.78,151.48Z"/><path class="cls-1" d="M521.94,152.08a4.28,4.28,0,0,0-2.32-.6c-3.28,0-4.16,2.32-4.16,5.2V165h-4.84V147.68h4.84v2.6a5.65,5.65,0,0,1,7.16-2.76Z"/><path class="cls-1" d="M530.78,151.84V165h-4.84V151.84H524v-4.16h1.92v-5.92h4.84v5.92h3.4v4.16Z"/><path class="cls-1" d="M563.93,165V153.12H552.66V165h-5.2V138.32h5.2v10.32h11.28V138.32h5.2V165Z"/><path class="cls-1" d="M583.5,165.56c-5.52,0-9.92-3.44-9.92-9.2s4.4-9.24,10-9.24,9.84,3.48,9.84,9.2S589,165.56,583.5,165.56Zm0-14.08a4.86,4.86,0,1,0,4.92,4.88A4.9,4.9,0,0,0,583.46,151.48Z"/><path class="cls-1" d="M619.21,165v-9.48c0-2-.32-4.28-2.88-4.28-2.84,0-3.32,2.6-3.32,4.88V165h-4.84v-9.2a7.73,7.73,0,0,0-.36-2.88,2.8,2.8,0,0,0-2.6-1.68,3.16,3.16,0,0,0-2.72,1.56,7.19,7.19,0,0,0-.56,3.32V165H597.1V147.68h4.84v2a6.65,6.65,0,0,1,5.28-2.52,5.88,5.88,0,0,1,5.4,3.16,6.4,6.4,0,0,1,5.68-3.16,5.7,5.7,0,0,1,4.84,2.48,7.63,7.63,0,0,1,.92,4.2V165Z"/><path class="cls-1" d="M632.74,157.12c.08,2.68,1.36,4.64,4.24,4.64a4.54,4.54,0,0,0,4.12-2.32l4.48.72c-1.52,3.72-4.6,5.4-8.52,5.4-5.6,0-9.28-3.6-9.28-9.24s3.52-9.2,9.08-9.2c5.72,0,8.84,3.84,8.84,9.36v.64Zm4.2-6.56a3.93,3.93,0,0,0-4,3.48h8.2A4,4,0,0,0,636.94,150.56Z"/><path class="cls-1" d="M673.21,165,666,154.28h-.64V165h-5.2V138.32h7.72a11,11,0,0,1,6.8,1.92,7.77,7.77,0,0,1,2.64,6,8.8,8.8,0,0,1-1.52,4.88,6.88,6.88,0,0,1-4.56,2.64l8.4,11.24Zm-6.28-22.44h-1.56v8h1.48c2.68,0,5.12-1,5.12-4S669.61,142.56,666.93,142.56Z"/><path class="cls-1" d="M686,157.12c.08,2.68,1.36,4.64,4.24,4.64a4.54,4.54,0,0,0,4.12-2.32l4.48.72c-1.52,3.72-4.6,5.4-8.52,5.4-5.6,0-9.28-3.6-9.28-9.24s3.52-9.2,9.08-9.2c5.72,0,8.84,3.84,8.84,9.36v.64Zm4.2-6.56a3.93,3.93,0,0,0-4,3.48h8.2A4,4,0,0,0,690.21,150.56Z"/><path class="cls-1" d="M715.93,165v-2.28a6.69,6.69,0,0,1-5.64,2.84c-5.2,0-8.52-4.32-8.52-9.28s3.32-9.16,8.4-9.16a7.22,7.22,0,0,1,5.76,2.76v-2.2h4.88V165Zm-4.32-13.52a4.86,4.86,0,1,0,4.84,4.84A4.83,4.83,0,0,0,711.61,151.48Z"/><path class="cls-1" d="M738.69,165v-2.28a6.69,6.69,0,0,1-5.64,2.84c-5.2,0-8.52-4.32-8.52-9.28s3.32-9.16,8.4-9.16a7.22,7.22,0,0,1,5.76,2.76V135h4.88v30Zm-4.32-13.52a4.86,4.86,0,1,0,4.84,4.84A4.83,4.83,0,0,0,734.37,151.48Z"/><path class="cls-1" d="M753.25,174.28h-5.48l6.36-11.88-8.2-14.72h5.64l5.2,9.84,5-9.84h5.52Z"/></svg>