<?xml version="1.0" encoding="utf-8"?>
<!-- Generator: Adobe Illustrator 24.0.0, SVG Export Plug-In . SVG Version: 6.00 Build 0)  -->
<svg version="1.1" id="Layer_1" xmlns="http://www.w3.org/2000/svg" xmlns:xlink="http://www.w3.org/1999/xlink" x="0px" y="0px"
	 viewBox="0 0 91.6 19.2" style="enable-background:new 0 0 91.6 19.2;" xml:space="preserve">
<style type="text/css">
	.st0{fill:#D6F0EF;}
</style>
<title>buttonbbb</title>
<g id="Layer_2_1_">
	<g id="Layer_1-2">
		<path class="st0" d="M0,0h2.5v16h9.4v2.2H0V0z"/>
		<path class="st0" d="M22.6,5.3c0.8,0.4,1.5,1,2.1,1.7c0.5,0.7,0.8,1.5,0.9,2.3c0.2,1,0.2,1.9,0.2,2.9h-9.9c0,1.2,0.3,2.3,1,3.2
			c0.7,0.8,1.7,1.3,2.8,1.2c1.1,0,2.1-0.4,2.8-1.2c0.4-0.4,0.7-1,0.8-1.5h2.3c-0.1,0.6-0.3,1.1-0.6,1.6c-0.3,0.5-0.7,1-1.1,1.5
			c-0.7,0.7-1.6,1.1-2.6,1.3c-0.6,0.1-1.2,0.2-1.9,0.2c-1.6,0-3.2-0.6-4.3-1.8c-1.2-1.4-1.9-3.2-1.8-5c-0.1-1.9,0.5-3.7,1.8-5.2
			c1.1-1.3,2.8-2.1,4.6-2C20.7,4.6,21.7,4.9,22.6,5.3z M23.4,10.5c0-0.8-0.3-1.6-0.6-2.3c-0.6-1.1-1.8-1.7-3.1-1.6
			c-1,0-1.9,0.4-2.6,1.1C16.4,8.5,16,9.5,16,10.5H23.4z"/>
		<path class="st0" d="M30,14c0,0.6,0.2,1.2,0.6,1.7c0.8,0.8,1.9,1.2,3.1,1.1c0.8,0,1.6-0.2,2.3-0.5c0.6-0.3,1-1,1-1.7
			c0-0.5-0.3-1.1-0.8-1.3c-0.6-0.3-1.3-0.5-2-0.6l-1.8-0.4c-0.9-0.2-1.8-0.5-2.6-1c-0.9-0.5-1.5-1.5-1.5-2.5c0-1.2,0.5-2.3,1.4-3
			c1.1-0.8,2.4-1.2,3.8-1.2c1.7-0.2,3.4,0.5,4.5,1.8c0.6,0.7,0.8,1.5,0.8,2.4h-2.2c0-0.5-0.2-1-0.5-1.4c-0.8-0.7-1.8-1-2.8-0.9
			c-0.7,0-1.4,0.1-2,0.5c-0.4,0.3-0.7,0.8-0.7,1.3c0,0.6,0.4,1.1,0.9,1.4c0.5,0.3,1,0.4,1.5,0.5l1.5,0.4c1.2,0.2,2.3,0.6,3.4,1.1
			c0.9,0.6,1.4,1.6,1.3,2.7c0,1.2-0.5,2.3-1.4,3c-1.2,0.9-2.7,1.4-4.3,1.3c-2,0-3.5-0.4-4.4-1.3s-1.3-2.1-1.4-3.3L30,14z"/>
		<path class="st0" d="M48.8,4.9h2.3v1.9c0.4-0.5,0.9-1,1.5-1.4c0.8-0.5,1.7-0.8,2.6-0.8c0.9,0,1.9,0.2,2.6,0.8
			c0.4,0.4,0.8,0.8,1,1.3c0.5-0.7,1.1-1.2,1.8-1.5s1.5-0.5,2.3-0.5c1.5-0.2,3,0.6,3.7,1.9c0.4,0.9,0.6,1.8,0.5,2.8v8.8h-2.4V9
			c0.1-0.7-0.2-1.4-0.7-1.8c-0.5-0.3-1.1-0.5-1.7-0.5c-0.9,0-1.7,0.3-2.3,0.9c-0.7,0.8-1.1,1.9-1,2.9v7.7h-2.3V9.5
			c0-0.7-0.1-1.3-0.3-1.9c-0.4-0.7-1.2-1-1.9-0.9c-0.9,0-1.7,0.4-2.4,1C51.4,8.4,51,9.5,51,11.2v7h-2.3L48.8,4.9L48.8,4.9z"/>
		<path class="st0" d="M78.9,5.3c0.8,0.4,1.5,1,2.1,1.7c0.5,0.7,0.8,1.5,0.9,2.3c0.2,1,0.2,1.9,0.2,2.9h-9.9c0,1.2,0.3,2.3,1,3.2
			c0.7,0.8,1.7,1.3,2.8,1.2c1.1,0,2.1-0.4,2.8-1.2c0.4-0.5,0.7-1,0.8-1.5h2.2c-0.1,0.6-0.3,1.1-0.6,1.6c-0.3,0.5-0.7,1-1.1,1.5
			c-0.7,0.7-1.6,1.1-2.6,1.3c-0.6,0.1-1.2,0.2-1.9,0.2c-1.6,0-3.2-0.6-4.3-1.8c-1.2-1.4-1.9-3.2-1.8-5C69.4,9.8,70,8,71.3,6.5
			c1.1-1.3,2.8-2.1,4.6-2C77.1,4.6,78,4.9,78.9,5.3z M79.7,10.5c0-0.8-0.3-1.6-0.6-2.3c-0.6-1.1-1.8-1.7-3.1-1.6
			c-1,0-1.9,0.4-2.6,1.1c-0.7,0.8-1.1,1.8-1.1,2.8H79.7z"/>
		<path class="st0" d="M85,4.9h2.2v2.3C87.5,6.6,88,6,88.5,5.6c0.6-0.6,1.5-1,2.4-1h0.2c0.1,0,0.3,0,0.5,0V7c-0.1,0-0.3,0-0.4,0
			h-0.4c-1,0-2,0.4-2.7,1.1c-0.6,0.7-0.9,1.6-0.9,2.5v7.6H85V4.9z"/>
	</g>
</g>
</svg>
