<svg id="Layer_1" data-name="Layer 1" xmlns="http://www.w3.org/2000/svg" viewBox="0 0 980 120"><defs><style>.cls-1{fill:#d4ac76;}</style></defs><title>text</title><path class="cls-1" d="M336.6,90,330.87,75.3h2.31l4.4,11.28L342,75.3h2.26L338.51,90Z"/><path class="cls-1" d="M345.5,90l5.9-14.68h1.86L359,90h-2.27l-.89-2.26h-7.2L347.77,90Zm5.31-16.24a1,1,0,0,1-.74.32,1,1,0,0,1-.72-.32,1.25,1.25,0,0,1,0-1.6,1,1,0,0,1,.72-.32,1,1,0,0,1,.74.32,1.22,1.22,0,0,1,0,1.6Zm1.52,4.93-2.86,7.09h5.64Zm2.55-4.93a1,1,0,0,1-1.46,0,1.22,1.22,0,0,1,0-1.6,1,1,0,0,1,1.46,0,1.25,1.25,0,0,1,0,1.6Z"/><path class="cls-1" d="M363.12,90V75.3h5.45a4.6,4.6,0,0,1,3.31,1.27,4.82,4.82,0,0,1,.23,6.39,4.36,4.36,0,0,1-2.81,1.43L373.55,90H371l-4.22-5.6h-1.63V90Zm5.17-12.73h-3.12v5.3h3.11a3,3,0,0,0,2.07-.72,2.66,2.66,0,0,0,0-3.81A2.86,2.86,0,0,0,368.29,77.25Z"/><path class="cls-1" d="M378.35,90V75.3h3.94a7.4,7.4,0,0,1,5.14,12.59A7.14,7.14,0,0,1,382.22,90Zm4-12.73h-2V88h2a4.77,4.77,0,0,0,3.62-1.58,5.46,5.46,0,0,0,1.46-3.84A5.23,5.23,0,0,0,386,78.8,4.91,4.91,0,0,0,382.37,77.25Z"/><path class="cls-1" d="M402.71,83.54h-6V88h6.46v2h-8.51V75.3H403v2h-6.35v4.33h6Z"/><path class="cls-1" d="M408.22,90V75.3h8v2h-6v4.62h5.29v2h-5.29V90Z"/><path class="cls-1" d="M425.79,90.23A5.09,5.09,0,0,1,422,88.69a5.34,5.34,0,0,1-1.5-3.88V75.3h2.05v9.39a3.78,3.78,0,0,0,.88,2.57,3,3,0,0,0,2.4,1,3.09,3.09,0,0,0,2.43-1,3.75,3.75,0,0,0,.88-2.57V75.3h2.06v9.51a5.34,5.34,0,0,1-1.5,3.88A5.15,5.15,0,0,1,425.79,90.23Z"/><path class="cls-1" d="M437,90V75.3H439V88h6v2Z"/><path class="cls-1" d="M449.59,90V75.3h2.05V88h6v2Z"/><path class="cls-1" d="M458.06,77.25v-2H470v2H465V90h-2V77.25Z"/><path class="cls-1" d="M490.45,83.54h-6V88h6.46v2h-8.51V75.3h8.4v2h-6.35v4.33h6Z"/><path class="cls-1" d="M496,90V75.3h5.46a4.59,4.59,0,0,1,3.3,1.27A4.82,4.82,0,0,1,505,83a4.33,4.33,0,0,1-2.81,1.43L506.39,90h-2.52l-4.22-5.6H498V90Zm5.18-12.73H498v5.3h3.1a3,3,0,0,0,2.08-.72,2.51,2.51,0,0,0,.8-1.94,2.47,2.47,0,0,0-.81-1.87A2.86,2.86,0,0,0,501.14,77.25Z"/><path class="cls-1" d="M511.2,90V75.3h4.5a4.66,4.66,0,0,1,3.23,1.13,3.8,3.8,0,0,1,1.28,3,3.45,3.45,0,0,1-1.75,3.15A3.71,3.71,0,0,1,520,83.87a3.47,3.47,0,0,1,.59,2,3.78,3.78,0,0,1-1.29,3A4.76,4.76,0,0,1,516.06,90Zm4.29-12.73h-2.24v4.47h2.62a2.24,2.24,0,0,0,1.63-.65,2.28,2.28,0,0,0,.66-1.69,1.87,1.87,0,0,0-.74-1.54A3,3,0,0,0,515.49,77.25Zm.45,6.29h-2.69V88h2.56a3,3,0,0,0,2-.63,2.08,2.08,0,0,0,.74-1.68,2,2,0,0,0-.67-1.57A2.82,2.82,0,0,0,515.94,83.54Z"/><path class="cls-1" d="M528.57,90.21a5,5,0,0,1-2.92-.87A4.62,4.62,0,0,1,523.91,87l1.9-.94a3.2,3.2,0,0,0,1,1.62,2.61,2.61,0,0,0,1.72.6,2.49,2.49,0,0,0,2-.83,3.31,3.31,0,0,0,.73-2.27V75.3h2.06v9.8A5.15,5.15,0,0,1,532,88.88,4.66,4.66,0,0,1,528.57,90.21Z"/><path class="cls-1" d="M544,90.23a5.11,5.11,0,0,1-3.83-1.54,5.34,5.34,0,0,1-1.5-3.88V75.3h2.06v9.39a3.83,3.83,0,0,0,.87,2.57,3,3,0,0,0,2.4,1,3.09,3.09,0,0,0,2.43-1,3.75,3.75,0,0,0,.89-2.57V75.3h2v9.51a5.37,5.37,0,0,1-1.49,3.88A5.16,5.16,0,0,1,544,90.23Z"/><path class="cls-1" d="M555.22,90V75.3h3.94a7.4,7.4,0,0,1,5.14,12.59A7.14,7.14,0,0,1,559.09,90Zm4-12.73h-2V88h2a4.77,4.77,0,0,0,3.62-1.58,5.46,5.46,0,0,0,1.46-3.84,5.23,5.23,0,0,0-1.51-3.81A4.91,4.91,0,0,0,559.24,77.25Z"/><path class="cls-1" d="M569.34,90l5.9-14.68h1.85L582.88,90h-2.27l-.89-2.26h-7.2L571.61,90Zm6.82-11.31-2.85,7.09H579Z"/><path class="cls-1" d="M587,90V75.3h1.43l8,10.11V75.3h2V90h-1.14L589,79.5V90Z"/><path class="cls-1" d="M604.53,90V75.3h3.93a7.39,7.39,0,0,1,5.14,12.59A7.14,7.14,0,0,1,608.39,90Zm4-12.73h-2V88h2a4.75,4.75,0,0,0,3.62-1.58,5.42,5.42,0,0,0,1.47-3.84,5.23,5.23,0,0,0-1.52-3.81A4.91,4.91,0,0,0,608.54,77.25Z"/><path class="cls-1" d="M628.89,83.54h-6V88h6.46v2h-8.51V75.3h8.4v2h-6.35v4.33h6Z"/></svg>