<svg id="Layer_1" data-name="Layer 1" xmlns="http://www.w3.org/2000/svg" viewBox="0 0 980 120"><defs><style>.cls-1{fill:#d4ac76;}</style></defs><title>text</title><path class="cls-1" d="M854.27,55.85a4.1,4.1,0,0,1-5.5,0,3.56,3.56,0,0,1-1.09-2.66V46.7h1.89v6.24a2.32,2.32,0,0,0,.51,1.55,2,2,0,0,0,2.87,0,2.29,2.29,0,0,0,.52-1.53V46.7h1.88v6.49A3.59,3.59,0,0,1,854.27,55.85Z"/><path class="cls-1" d="M858.46,56.75v-10h3.61a3.43,3.43,0,0,1,3.49,3.47,3.17,3.17,0,0,1-1,2.42,3.53,3.53,0,0,1-2.51,1h-1.69v3.2Zm3.44-8.24h-1.56v3.37h1.59a1.77,1.77,0,0,0,1.26-.45,1.57,1.57,0,0,0,.48-1.21,1.63,1.63,0,0,0-.49-1.23A1.77,1.77,0,0,0,861.9,48.51Z"/><path class="cls-1" d="M868.07,56.75v-10h3.6a3.42,3.42,0,0,1,3.49,3.47,3.17,3.17,0,0,1-1,2.42,3.51,3.51,0,0,1-2.5,1H870v3.2Zm3.44-8.24H870v3.37h1.59a1.77,1.77,0,0,0,1.26-.45,1.57,1.57,0,0,0,.48-1.21,1.67,1.67,0,0,0-.49-1.23A1.77,1.77,0,0,0,871.51,48.51Z"/><path class="cls-1" d="M876.72,48.51V46.7H885v1.81h-3.19v8.24h-1.89V48.51Z"/><path class="cls-1" d="M885.1,56.75l3.87-10h1.7l3.87,10H892.6l-.54-1.39h-4.49L887,56.75ZM889,45.67a.78.78,0,0,1-.61.26.82.82,0,0,1-.62-.26.91.91,0,0,1-.26-.65.87.87,0,0,1,.88-.89.81.81,0,0,1,.61.26.85.85,0,0,1,.25.63A.9.9,0,0,1,889,45.67Zm.87,3.84-1.6,4.17h3.2Zm2.12-3.84a.89.89,0,0,1-.66.26.91.91,0,0,1-.67-.26.88.88,0,0,1-.28-.65.84.84,0,0,1,.28-.63.91.91,0,0,1,.67-.26.89.89,0,0,1,.66.26.81.81,0,0,1,.28.63A.85.85,0,0,1,891.94,45.67Z"/><path class="cls-1" d="M904.75,55.33A5,5,0,0,1,901,56.92a5.09,5.09,0,0,1-3.71-1.52,5.21,5.21,0,1,1,7.41-7.33l-1.33,1.28a3.29,3.29,0,0,0-4.76,0,3.29,3.29,0,0,0-1,2.4,3.33,3.33,0,0,0,1,2.41,3.32,3.32,0,0,0,4.79-.06Z"/><path class="cls-1" d="M907.22,56.75v-10H909v4.43l3.85-4.43h2.33l-3.55,4,3.63,6h-2.17l-2.74-4.59L909,53.68v3.07Z"/><path class="cls-1" d="M866.84,71.75v-10h1.82l3.1,5,3.15-5h2v10H875V64.87l-.15,0-3.12,4.81-3-4.75h0v6.84Z"/><path class="cls-1" d="M885.7,67.5H882v2.57h4.08v1.68h-6v-10H886v1.68h-4v2.44h3.72Z"/><path class="cls-1" d="M888.86,71.75v-10h3.93a3.37,3.37,0,0,1,2.42.91,3.13,3.13,0,0,1,1,2.39,3,3,0,0,1-.72,2,3.21,3.21,0,0,1-1.88,1.07l2.7,3.65h-2.12l-2.6-3.59h-.82v3.59Zm3.64-8.37h-1.76v3.27h1.76a1.9,1.9,0,0,0,1.31-.44,1.65,1.65,0,0,0,0-2.35A1.77,1.77,0,0,0,892.5,63.38Z"/></svg>