<svg id="Layer_1" data-name="Layer 1" xmlns="http://www.w3.org/2000/svg" viewBox="0 0 980 120"><defs><style>.cls-1{fill:#d4ac76;}</style></defs><title>text</title><path class="cls-1" d="M269.09,79.9h-4.77v3.54h5.1V85H262.7V73.39h6.63v1.54h-5v3.42h4.77Z"/><path class="cls-1" d="M272.21,74.93V73.39h9.39v1.54h-3.89V85h-1.62v-10Z"/><path class="cls-1" d="M283.89,74.93V73.39h9.39v1.54H289.4V85h-1.62v-10Z"/><path class="cls-1" d="M306.33,85,301.8,73.39h1.82l3.48,8.91,3.48-8.91h1.79L307.83,85Z"/><path class="cls-1" d="M313.35,85,318,73.39h1.46L324,85h-1.79l-.7-1.78h-5.69L315.15,85Zm4.19-12.82a.76.76,0,0,1-.58.25.72.72,0,0,1-.57-.25,1,1,0,0,1,0-1.26.73.73,0,0,1,.57-.26.77.77,0,0,1,.58.26.95.95,0,0,1,0,1.26Zm1.2,3.89-2.25,5.6h4.45Zm2-3.89a.72.72,0,0,1-.57.25.76.76,0,0,1-.58-.25,1,1,0,0,1,0-1.26.77.77,0,0,1,.58-.26.73.73,0,0,1,.57.26.95.95,0,0,1,0,1.26Z"/><path class="cls-1" d="M327.26,85V73.39h4.3a3.59,3.59,0,0,1,2.61,1A3.46,3.46,0,0,1,335.22,77a3.53,3.53,0,0,1-.86,2.42,3.46,3.46,0,0,1-2.22,1.13L335.49,85h-2l-3.33-4.42h-1.29V85Zm4.09-10h-2.47v4.19h2.45a2.32,2.32,0,0,0,1.64-.58A2,2,0,0,0,333.6,77a1.93,1.93,0,0,0-.64-1.48A2.21,2.21,0,0,0,331.35,74.93Z"/><path class="cls-1" d="M339.29,85V73.39h3.11a5.83,5.83,0,0,1,4.05,9.94A5.64,5.64,0,0,1,342.34,85Zm3.17-10h-1.55v8.51h1.59a3.74,3.74,0,0,0,2.86-1.25,4.28,4.28,0,0,0,1.16-3,4.14,4.14,0,0,0-1.2-3A3.86,3.86,0,0,0,342.46,74.93Z"/><path class="cls-1" d="M358.52,79.9h-4.77v3.54h5.1V85h-6.72V73.39h6.63v1.54h-5v3.42h4.77Z"/><path class="cls-1" d="M362.87,85V73.39h6.33v1.54h-4.71v3.65h4.17v1.54h-4.17V85Z"/><path class="cls-1" d="M376.74,85.18a4.05,4.05,0,0,1-3-1.22,4.2,4.2,0,0,1-1.18-3.06V73.39h1.62V80.8a3,3,0,0,0,.69,2,2.35,2.35,0,0,0,1.9.8,2.42,2.42,0,0,0,1.91-.78,3,3,0,0,0,.7-2V73.39H381V80.9A4.2,4.2,0,0,1,379.79,84,4.05,4.05,0,0,1,376.74,85.18Z"/><path class="cls-1" d="M385.58,85V73.39h1.62v10H392V85Z"/><path class="cls-1" d="M395.52,85V73.39h1.62v10h4.77V85Z"/><path class="cls-1" d="M402.21,74.93V73.39h9.39v1.54h-3.88V85H406.1v-10Z"/><path class="cls-1" d="M427.79,79.9H423v3.54h5.1V85H421.4V73.39H428v1.54h-5v3.42h4.77Z"/><path class="cls-1" d="M432.14,85V73.39h4.3a3.59,3.59,0,0,1,2.61,1,3.8,3.8,0,0,1,.18,5A3.42,3.42,0,0,1,437,80.57L440.37,85h-2l-3.33-4.42h-1.29V85Zm4.09-10h-2.47v4.19h2.45a2.32,2.32,0,0,0,1.64-.58,2,2,0,0,0,.63-1.52,1.93,1.93,0,0,0-.64-1.48A2.21,2.21,0,0,0,436.23,74.93Z"/><path class="cls-1" d="M444.17,85V73.39h3.54a3.75,3.75,0,0,1,2.56.89,3,3,0,0,1,1,2.35,2.75,2.75,0,0,1-1.38,2.49,2.86,2.86,0,0,1,1.24,1,2.69,2.69,0,0,1,.47,1.56,3,3,0,0,1-1,2.37A3.73,3.73,0,0,1,448,85Zm3.38-10h-1.76v3.53h2.06a1.75,1.75,0,0,0,1.29-.52,1.8,1.8,0,0,0,.52-1.33,1.51,1.51,0,0,0-.58-1.22A2.44,2.44,0,0,0,447.55,74.93Zm.36,5h-2.12v3.54h2a2.39,2.39,0,0,0,1.6-.5,1.65,1.65,0,0,0,.59-1.32,1.58,1.58,0,0,0-.54-1.24A2.22,2.22,0,0,0,447.91,79.9Z"/><path class="cls-1" d="M457.88,85.16a3.89,3.89,0,0,1-2.3-.69,3.57,3.57,0,0,1-1.38-1.87l1.5-.74a2.59,2.59,0,0,0,.82,1.28,2.06,2.06,0,0,0,1.36.48,2,2,0,0,0,1.57-.66,2.65,2.65,0,0,0,.57-1.79V73.39h1.62v7.74a4,4,0,0,1-1.05,3A3.66,3.66,0,0,1,457.88,85.16Z"/><path class="cls-1" d="M470.08,85.18a4,4,0,0,1-3-1.22,4.21,4.21,0,0,1-1.19-3.06V73.39h1.62V80.8a3,3,0,0,0,.69,2,2.38,2.38,0,0,0,1.9.8,2.46,2.46,0,0,0,1.92-.78,3,3,0,0,0,.7-2V73.39h1.62V80.9A4.24,4.24,0,0,1,473.14,84,4.09,4.09,0,0,1,470.08,85.18Z"/><path class="cls-1" d="M478.92,85V73.39H482a5.84,5.84,0,0,1,4.06,9.94A5.68,5.68,0,0,1,482,85Zm3.17-10h-1.55v8.51h1.6A3.74,3.74,0,0,0,485,82.19a4.24,4.24,0,0,0,1.16-3,4.17,4.17,0,0,0-1.19-3A3.9,3.9,0,0,0,482.09,74.93Z"/><path class="cls-1" d="M490.07,85l4.65-11.59h1.47L500.75,85H499l-.7-1.78h-5.68L491.86,85Zm5.38-8.93-2.25,5.6h4.45Z"/><path class="cls-1" d="M504,85V73.39h1.13l6.28,8v-8H513V85h-.9l-6.51-8.28V85Z"/><path class="cls-1" d="M517.85,85V73.39H521a5.77,5.77,0,0,1,5.75,5.77A5.7,5.7,0,0,1,520.9,85Zm3.17-10h-1.55v8.51h1.59a3.76,3.76,0,0,0,2.86-1.25,4.28,4.28,0,0,0,1.16-3,4.14,4.14,0,0,0-1.2-3A3.88,3.88,0,0,0,521,74.93Z"/><path class="cls-1" d="M537.08,79.9h-4.77v3.54h5.1V85h-6.72V73.39h6.63v1.54h-5v3.42h4.77Z"/><path class="cls-1" d="M551,85l-4.53-11.59h1.82l3.48,8.91,3.48-8.91H557L552.45,85Z"/><path class="cls-1" d="M558,85l4.66-11.59h1.46L568.66,85h-1.79l-.7-1.78h-5.69L559.76,85Zm4.19-12.82a.76.76,0,0,1-.58.25.72.72,0,0,1-.57-.25,1,1,0,0,1,0-1.26.73.73,0,0,1,.57-.26.77.77,0,0,1,.58.26.95.95,0,0,1,0,1.26Zm1.2,3.89-2.26,5.6h4.46Zm2-3.89a.72.72,0,0,1-.57.25.76.76,0,0,1-.58-.25,1,1,0,0,1,0-1.26.77.77,0,0,1,.58-.26.73.73,0,0,1,.57.26.95.95,0,0,1,0,1.26Z"/><path class="cls-1" d="M571.88,85V73.39H573l6.28,8v-8h1.62V85H580L573.5,76.7V85Z"/><path class="cls-1" d="M584.22,74.93V73.39h9.39v1.54h-3.88V85h-1.62v-10Z"/><path class="cls-1" d="M594.36,85,599,73.39h1.46L605.05,85h-1.79l-.7-1.78h-5.69L596.16,85Zm5.39-8.93-2.26,5.6H602Z"/><path class="cls-1" d="M608.27,85V73.39h4.3a3.59,3.59,0,0,1,2.61,1,3.8,3.8,0,0,1,.18,5,3.42,3.42,0,0,1-2.21,1.13L616.5,85h-2l-3.33-4.42h-1.29V85Zm4.08-10h-2.46v4.19h2.45a2.32,2.32,0,0,0,1.64-.58,2,2,0,0,0,.63-1.52,1.93,1.93,0,0,0-.64-1.48A2.22,2.22,0,0,0,612.35,74.93Z"/><path class="cls-1" d="M626.57,85V73.39h3.95a3.62,3.62,0,0,1,2.69,1.08,3.74,3.74,0,0,1,1.08,2.76,3.63,3.63,0,0,1-1.11,2.71A3.73,3.73,0,0,1,630.46,81h-2.27v4Zm3.84-10h-2.22v4.55h2.24a2.31,2.31,0,0,0,1.6-3.9A2.17,2.17,0,0,0,630.41,74.93Z"/><path class="cls-1" d="M635.81,85l4.65-11.59h1.47L646.49,85H644.7L644,83.2h-5.68L637.6,85Zm5.38-8.93-2.25,5.6h4.45Zm1.12-3.45a1.52,1.52,0,0,1-1.12.46,1.48,1.48,0,0,1-1.11-.46,1.52,1.52,0,0,1-.46-1.12,1.57,1.57,0,0,1,1.57-1.57,1.52,1.52,0,0,1,1.12.46,1.48,1.48,0,0,1,.46,1.11A1.52,1.52,0,0,1,642.31,72.6Zm-1.12-.47a.59.59,0,0,0,.44-.2.61.61,0,0,0,.19-.45.58.58,0,0,0-.19-.45.58.58,0,0,0-.44-.19.65.65,0,0,0-.64.64.61.61,0,0,0,.19.45A.59.59,0,0,0,641.19,72.13Z"/><path class="cls-1" d="M662.57,79.9H657.8v3.54h5.1V85h-6.72V73.39h6.63v1.54h-5v3.42h4.77Z"/><path class="cls-1" d="M666.92,85V73.39h4.3a3.59,3.59,0,0,1,2.61,1,3.8,3.8,0,0,1,.18,5,3.42,3.42,0,0,1-2.21,1.13L675.15,85h-2l-3.33-4.42h-1.29V85Zm4.08-10h-2.46v4.19H671a2.32,2.32,0,0,0,1.64-.58,2,2,0,0,0,.63-1.52,1.93,1.93,0,0,0-.64-1.48A2.22,2.22,0,0,0,671,74.93Z"/></svg>