<svg id="Layer_1" data-name="Layer 1" xmlns="http://www.w3.org/2000/svg" viewBox="0 0 980 120"><defs><style>.cls-1{fill:#d4ac76;}</style></defs><title>text</title><path class="cls-1" d="M221.94,61V33.94h8.9a8.17,8.17,0,0,1,5.92,2.26,7.49,7.49,0,0,1,2.33,5.59,6.37,6.37,0,0,1-3,5.44,7.43,7.43,0,0,1,3,2.42,5.7,5.7,0,0,1,1.12,3.43,7.44,7.44,0,0,1-2.36,5.74,8.5,8.5,0,0,1-6,2.18Zm8.31-22.54h-3.62v6.79h4a3.7,3.7,0,0,0,2.69-1,3.32,3.32,0,0,0,1-2.49,2.9,2.9,0,0,0-1.14-2.4A4.73,4.73,0,0,0,230.25,38.46ZM231,49.31h-4.39v7.17h4.29a4.34,4.34,0,0,0,3.06-1,3.39,3.39,0,0,0,1.12-2.61,3.33,3.33,0,0,0-1-2.57A4.33,4.33,0,0,0,231,49.31Z"/><path class="cls-1" d="M274.51,47.46a14.05,14.05,0,1,1-24-9.93,14.05,14.05,0,0,1,24,9.93Zm-20.42,6.45a8.89,8.89,0,0,0,12.72,0,9.29,9.29,0,0,0,0-12.95,8.91,8.91,0,0,0-12.72,0,9.34,9.34,0,0,0,0,12.95Z"/><path class="cls-1" d="M282.28,61V33.94H287V45.87l10.36-11.93h6.27l-9.55,10.8L303.81,61H298l-7.37-12.35L287,52.74V61Z"/><path class="cls-1" d="M308.74,61l10.43-27.06h4.58L334.15,61h-5.21l-1.44-3.75H315.4L314,61Zm12.73-19.48-4.33,11.22h8.63Z"/><path class="cls-1" d="M354.9,61V33.94h4.9l8.37,13.34,8.47-13.34H382V61h-5.08V42.48l-.4,0-8.4,13L359.9,42.6H360V61Z"/><path class="cls-1" d="M417.52,47.46a14.05,14.05,0,1,1-24-9.93,14.05,14.05,0,0,1,24,9.93ZM397.1,53.91a8.89,8.89,0,0,0,12.72,0,9.31,9.31,0,0,0,0-12.95,8.91,8.91,0,0,0-12.72,0,9.34,9.34,0,0,0,0,12.95Zm4-22.75a2.2,2.2,0,0,1-1.66.72,2.23,2.23,0,0,1-1.67-.72,2.53,2.53,0,0,1,0-3.45,2.43,2.43,0,0,1,1.69-.69,2.25,2.25,0,0,1,1.64.69,2.36,2.36,0,0,1,.69,1.72A2.47,2.47,0,0,1,401.1,31.16Zm8,0a2.51,2.51,0,0,1-1.8.72,2.47,2.47,0,0,1-1.79-.72,2.3,2.3,0,0,1-.75-1.73,2.27,2.27,0,0,1,.75-1.72,2.52,2.52,0,0,1,1.79-.69,2.57,2.57,0,0,1,1.8.69,2.29,2.29,0,0,1,.74,1.72A2.33,2.33,0,0,1,409.15,31.16Z"/><path class="cls-1" d="M421.51,38.81V33.94H443.8v4.87h-8.61V61h-5.07V38.81Z"/><path class="cls-1" d="M465.37,49.56h-10v6.92h11V61H450.28V33.94H466v4.52H455.36V45h10Z"/><path class="cls-1" d="M488.5,61V33.94h10.59a9.11,9.11,0,0,1,6.51,2.46,8.41,8.41,0,0,1,2.6,6.42,8.12,8.12,0,0,1-1.93,5.48,8.67,8.67,0,0,1-5,2.88L508.48,61h-5.7l-7-9.66h-2.19V61Zm9.8-22.54h-4.73v8.82h4.73a5,5,0,0,0,3.52-1.2A4,4,0,0,0,503.13,43a4.26,4.26,0,0,0-1.35-3.21A4.83,4.83,0,0,0,498.3,38.46Z"/><path class="cls-1" d="M531.2,49.56h-10v6.92h11V61H516.12V33.94h15.75v4.52H521.19V45h10Z"/><path class="cls-1" d="M540.4,61V33.94h7.72a13.25,13.25,0,0,1,9.58,3.87,13,13,0,0,1,4,9.75,12.65,12.65,0,0,1-4,9.66A13.82,13.82,0,0,1,547.84,61Zm7.78-22.54h-3.09v18h3.13a7.76,7.76,0,0,0,6-2.62,9.13,9.13,0,0,0,2.41-6.44A8.94,8.94,0,0,0,554.17,41,8,8,0,0,0,548.18,38.46Z"/><path class="cls-1" d="M565.85,61l10.43-27.06h4.58L591.26,61H586l-1.43-3.75h-12.1L571.06,61Zm12.73-19.48-4.33,11.22h8.63Z"/><path class="cls-1" d="M597.6,61V33.94h3.55l13.31,17v-17h5.08V61h-3.39L602.67,43.78V61Z"/><path class="cls-1" d="M643.13,61V33.94h5.07V61Z"/><path class="cls-1" d="M657.86,61V33.94h7.72a13.25,13.25,0,0,1,9.58,3.87,13,13,0,0,1,4,9.75,12.65,12.65,0,0,1-4,9.66A13.82,13.82,0,0,1,665.3,61Zm7.78-22.54h-3.09v18h3.13a7.76,7.76,0,0,0,6-2.62,9.13,9.13,0,0,0,2.41-6.44A8.94,8.94,0,0,0,671.63,41,8,8,0,0,0,665.64,38.46Z"/><path class="cls-1" d="M683.31,61l10.43-27.06h4.58L708.72,61H703.5l-1.43-3.75H690L688.52,61ZM696,41.52l-4.33,11.22h8.63Z"/><path class="cls-1" d="M731.19,49.69V45.18h9.69l0,2.31a13.81,13.81,0,0,1-2,7.18,13.66,13.66,0,0,1-5.12,5,14,14,0,0,1-6.9,1.77,14,14,0,0,1-14.07-14,14,14,0,0,1,14.14-14A13.34,13.34,0,0,1,737,37.72l-3.46,3.42a8.79,8.79,0,0,0-6.66-2.93,8.62,8.62,0,0,0-6.47,2.65,9.58,9.58,0,0,0,0,13,8.25,8.25,0,0,0,6.14,2.66,9.61,9.61,0,0,0,6-1.88,8.63,8.63,0,0,0,3.19-5Z"/></svg>