<svg id="Layer_1" data-name="Layer 1" xmlns="http://www.w3.org/2000/svg" viewBox="0 0 320 320"><defs><style>.cls-1{fill:#d80201;}</style></defs><title>text</title><path class="cls-1" d="M95.35,149.5v-8.91H86.89v8.91H83v-20h3.9v7.74h8.46v-7.74h3.9v20Z"/><path class="cls-1" d="M113.2,149.5v-1.71a5,5,0,0,1-4.23,2.13c-3.9,0-6.39-3.24-6.39-7s2.49-6.87,6.3-6.87a5.41,5.41,0,0,1,4.32,2.07v-1.65h3.66v13ZM110,139.36a3.65,3.65,0,1,0,3.63,3.63A3.62,3.62,0,0,0,110,139.36Z"/><path class="cls-1" d="M120.34,149.5V127H124V149.5Z"/><path class="cls-1" d="M134.05,149.77h-1.68l-6.63-13.26h4.08l3.42,7.32,3.42-7.32h4.08Z"/><path class="cls-1" d="M151.78,149.5v-1.71a5,5,0,0,1-4.23,2.13c-3.9,0-6.39-3.24-6.39-7s2.49-6.87,6.3-6.87a5.41,5.41,0,0,1,4.32,2.07v-1.65h3.66v13Zm-3.24-10.14a3.65,3.65,0,1,0,3.63,3.63A3.62,3.62,0,0,0,148.54,139.36Z"/><path class="cls-1" d="M174.4,149.92a5.21,5.21,0,0,1-4.36-2.13v8.64h-3.62V136.51H170v1.65a5.2,5.2,0,0,1,4.26-2.07c3.87,0,6.42,3.21,6.42,6.93S178.21,149.92,174.4,149.92Zm-1.08-10.56A3.65,3.65,0,1,0,177,143,3.62,3.62,0,0,0,173.32,139.36Z"/><path class="cls-1" d="M192,139.81a3.18,3.18,0,0,0-1.73-.45c-2.46,0-3.12,1.74-3.12,3.9v6.24h-3.63v-13h3.63v2a4.24,4.24,0,0,1,5.37-2.07Z"/><path class="cls-1" d="M196.05,133.21a2.19,2.19,0,0,1,0-4.38,2.19,2.19,0,0,1,0,4.38Zm-1.83,16.29v-13h3.63v13Z"/><path class="cls-1" d="M205.41,149.92a6.91,6.91,0,0,1-4.95-2.16l1.92-2.22a4.22,4.22,0,0,0,3.06,1.53,1.53,1.53,0,0,0,1.65-1.44c0-2.22-5.79-1.11-5.79-5.49,0-2.64,2.19-4.11,4.65-4.11a6.69,6.69,0,0,1,4.23,1.38l-1.8,2.13a3.62,3.62,0,0,0-2.16-.87c-.63,0-1.38.39-1.38,1.11,0,1.89,6,1.05,6,5.49C210.84,148.3,208.2,149.92,205.41,149.92Z"/><path class="cls-1" d="M216.45,143.59c.06,2,1,3.48,3.18,3.48a3.4,3.4,0,0,0,3.09-1.74l3.36.54a6.37,6.37,0,0,1-6.39,4c-4.2,0-7-2.7-7-6.93s2.64-6.9,6.81-6.9,6.63,2.88,6.63,7v.48Zm3.15-4.92a3,3,0,0,0-3,2.61h6.15A3,3,0,0,0,219.6,138.67Z"/><path class="cls-1" d="M232.62,139.63v9.87H229v-9.87h-1.44v-3.12H229v-4.44h3.63v4.44h2.55v3.12Z"/><path class="cls-1" d="M79.07,185.92a5.2,5.2,0,0,1-4.35-2.13v8.64H71.09V172.51h3.63v1.65A5.18,5.18,0,0,1,79,172.09c3.87,0,6.42,3.21,6.42,6.93S82.88,185.92,79.07,185.92ZM78,175.36A3.65,3.65,0,1,0,81.62,179,3.62,3.62,0,0,0,78,175.36Z"/><path class="cls-1" d="M98.09,185.5v-1.71a5,5,0,0,1-4.23,2.13c-3.9,0-6.39-3.24-6.39-7s2.49-6.87,6.3-6.87a5.41,5.41,0,0,1,4.32,2.07v-1.65h3.66v13Zm-3.24-10.14A3.65,3.65,0,1,0,98.48,179,3.62,3.62,0,0,0,94.85,175.36Zm-.51-5.13a2.7,2.7,0,0,1,0-5.4,2.7,2.7,0,1,1,0,5.4Zm0-3.75a1.05,1.05,0,1,0,1,1.05A1,1,0,0,0,94.34,166.48Z"/><path class="cls-1" d="M120.62,185.92a5.11,5.11,0,0,1-4.26-2.13v1.71h-3.63V163h3.63v11.13a5.51,5.51,0,0,1,4.35-2.07c3.81,0,6.33,3.24,6.33,6.87S124.52,185.92,120.62,185.92Zm-1-10.56a3.65,3.65,0,1,0,3.63,3.63A3.62,3.62,0,0,0,119.63,175.36Z"/><path class="cls-1" d="M138.29,175.81a3.21,3.21,0,0,0-1.74-.45c-2.46,0-3.12,1.74-3.12,3.9v6.24H129.8v-13h3.63v2a4.24,4.24,0,0,1,5.37-2.07Z"/><path class="cls-1" d="M150.53,185.5v-1.71a5,5,0,0,1-4.23,2.13c-3.9,0-6.39-3.24-6.39-7s2.49-6.87,6.3-6.87a5.41,5.41,0,0,1,4.32,2.07v-1.65h3.66v13Zm-3.24-10.14a3.65,3.65,0,1,0,3.63,3.63A3.62,3.62,0,0,0,147.29,175.36Z"/><path class="cls-1" d="M161.81,185.92a6.91,6.91,0,0,1-4.95-2.16l1.92-2.22a4.22,4.22,0,0,0,3.06,1.53,1.53,1.53,0,0,0,1.65-1.44c0-2.22-5.79-1.11-5.79-5.49,0-2.64,2.19-4.11,4.65-4.11a6.69,6.69,0,0,1,4.23,1.38l-1.8,2.13a3.62,3.62,0,0,0-2.16-.87c-.63,0-1.38.39-1.38,1.11,0,1.89,6,1.05,6,5.49C167.24,184.3,164.6,185.92,161.81,185.92Z"/><path class="cls-1" d="M178.73,185.5l-4.89-5.58-.39.39v5.19h-3.63V163h3.63v14.22l4.86-4.74h4.92l-6.09,5.7,6.57,7.29Z"/><path class="cls-1" d="M194.57,185.5v-1.71a5,5,0,0,1-4.23,2.13c-3.9,0-6.39-3.24-6.39-7s2.49-6.87,6.3-6.87a5.41,5.41,0,0,1,4.32,2.07v-1.65h3.66v13Zm-3.24-10.14A3.65,3.65,0,1,0,195,179,3.62,3.62,0,0,0,191.33,175.36Z"/><path class="cls-1" d="M218.3,185.5v-7.11c0-1.53-.24-3.21-2.16-3.21-2.13,0-2.49,1.95-2.49,3.66v6.66H210v-6.9a5.79,5.79,0,0,0-.27-2.16,2.1,2.1,0,0,0-1.95-1.26,2.37,2.37,0,0,0-2,1.17,5.39,5.39,0,0,0-.42,2.49v6.66h-3.63v-13h3.63V174a5,5,0,0,1,4-1.89,4.41,4.41,0,0,1,4,2.37,4.8,4.8,0,0,1,4.26-2.37,4.27,4.27,0,0,1,3.63,1.86,5.72,5.72,0,0,1,.69,3.15v8.4Z"/><path class="cls-1" d="M227.18,169.21a2.19,2.19,0,0,1,0-4.38,2.19,2.19,0,0,1,0,4.38Zm-1.83,16.29v-13H229v13Z"/><path class="cls-1" d="M241.28,185.5v-7.2c0-1.77-.39-3.12-2.46-3.12-2.25,0-2.79,1.65-2.79,3.6v6.72H232.4v-13H236v1.59a4.79,4.79,0,0,1,4.08-2,4.49,4.49,0,0,1,4.8,5.16v8.25Z"/></svg>