<svg id="Layer_1" data-name="Layer 1" xmlns="http://www.w3.org/2000/svg" viewBox="0 0 320 160"><defs><style>.cls-1{fill:#d4ac76;}</style></defs><title>text</title><path class="cls-1" d="M144.71,47.27h-4.29v3h4.71v1.93h-6.89V40.58H145v1.93h-4.57v2.82h4.29Z"/><path class="cls-1" d="M148.66,52.18V40.58H152a5.68,5.68,0,0,1,4.11,1.66,5.58,5.58,0,0,1,1.71,4.18A5.42,5.42,0,0,1,156,50.56a5.92,5.92,0,0,1-4.2,1.62ZM152,42.52h-1.32v7.73H152a3.34,3.34,0,0,0,2.56-1.12,3.93,3.93,0,0,0,1-2.76,3.82,3.82,0,0,0-1-2.74A3.4,3.4,0,0,0,152,42.52Z"/><path class="cls-1" d="M164.16,52.33a5.56,5.56,0,0,1-2.19-.46,5.72,5.72,0,0,1-1.88-1.27L161.47,49a4.21,4.21,0,0,0,1.28,1,3.28,3.28,0,0,0,1.53.41,1.87,1.87,0,0,0,1.24-.4,1.24,1.24,0,0,0,.48-1,1.73,1.73,0,0,0-1.27-1.61l-1.29-.52a5,5,0,0,1-1.93-1.28,3,3,0,0,1-.62-2,3,3,0,0,1,1-2.2,3.36,3.36,0,0,1,2.46-1,5,5,0,0,1,3.57,1.32l-1.28,1.62a3,3,0,0,0-2.29-1,1.55,1.55,0,0,0-1,.33,1,1,0,0,0-.39.82,1.09,1.09,0,0,0,.31.79,3.07,3.07,0,0,0,1,.6l1.35.54a3.59,3.59,0,0,1,2.63,3.35,3.24,3.24,0,0,1-1.09,2.54A4.22,4.22,0,0,1,164.16,52.33Z"/><path class="cls-1" d="M178.82,47.33V45.4H183v1a6,6,0,0,1-.85,3.08,5.86,5.86,0,0,1-2.2,2.14,6,6,0,0,1-3,.76,6,6,0,1,1,0-12,5.72,5.72,0,0,1,4.32,1.87l-1.49,1.47A3.75,3.75,0,0,0,177,42.41a3.69,3.69,0,0,0-2.78,1.13,4.1,4.1,0,0,0,0,5.59,3.54,3.54,0,0,0,2.63,1.14,4.11,4.11,0,0,0,2.58-.8,3.67,3.67,0,0,0,1.36-2.13Z"/><path class="cls-1" d="M184.57,52.18,189,40.58h2l4.46,11.59h-2.24l-.62-1.61h-5.19l-.62,1.61ZM190,43.83l-1.86,4.81h3.7Z"/><path class="cls-1" d="M195.91,42.67V40.58h9.56v2.08h-3.69v9.51H199.6V42.67Z"/><path class="cls-1" d="M205.87,52.18l4.47-11.59h2l4.46,11.59h-2.24l-.62-1.61h-5.19l-.62,1.61Zm5.45-8.35-1.85,4.81h3.7Z"/><path class="cls-1" d="M219.47,52.18V40.58H221l5.71,7.29V40.58h2.17V52.18h-1.46l-5.78-7.38v7.38Z"/><path class="cls-1" d="M239,52.18V40.58h1.52l5.71,7.29V40.58h2.17V52.18h-1.46l-5.78-7.38v7.38Z"/><path class="cls-1" d="M251.26,52.18l4.47-11.59h2l4.46,11.59h-2.24l-.62-1.61h-5.19l-.62,1.61Zm4.45-12.79a.93.93,0,0,1-.71.31,1,1,0,0,1-.72-.31,1,1,0,0,1,.71-1.78,1,1,0,0,1,.7.3,1,1,0,0,1,.3.73A1,1,0,0,1,255.71,39.39Zm1,4.44-1.85,4.81h3.7Zm2.45-4.44a1.11,1.11,0,0,1-1.54,0,1,1,0,0,1-.32-.74,1,1,0,0,1,.32-.73,1.13,1.13,0,0,1,1.54,0,1,1,0,0,1,.32.73A1,1,0,0,1,259.16,39.39Z"/><path class="cls-1" d="M264.86,52.18V40.58h4.54a3.91,3.91,0,0,1,2.79,1.05,3.61,3.61,0,0,1,1.12,2.75,3.48,3.48,0,0,1-.83,2.35A3.73,3.73,0,0,1,270.31,48l3.12,4.21H271L268,48H267v4.14Zm4.2-9.66h-2V46.3h2a2.15,2.15,0,0,0,1.51-.51,1.73,1.73,0,0,0,.56-1.34,1.82,1.82,0,0,0-.58-1.37A2.07,2.07,0,0,0,269.06,42.52Z"/><path class="cls-1" d="M275.41,52.18l4.47-11.59h2l4.46,11.59h-2.24l-.62-1.61h-5.19l-.62,1.61Zm5.45-8.35L279,48.64h3.7Z"/><path class="cls-1" d="M120.89,70.18V58.58h2v5.11l4.44-5.11H130l-4.09,4.63,4.18,7h-2.5l-3.16-5.29-1.55,1.75v3.54Z"/><path class="cls-1" d="M132.23,70.18l4.47-11.59h2l4.46,11.59h-2.24l-.62-1.61h-5.19l-.62,1.61Zm5.46-8.35-1.86,4.81h3.7Z"/><path class="cls-1" d="M145.84,70.18V58.58h4.54a3.91,3.91,0,0,1,2.79,1.05,3.61,3.61,0,0,1,1.12,2.75,3.48,3.48,0,0,1-.83,2.35A3.73,3.73,0,0,1,151.29,66l3.11,4.21H152L149,66H148v4.14Zm4.2-9.66h-2V64.3h2a2.15,2.15,0,0,0,1.51-.51,1.73,1.73,0,0,0,.56-1.34,1.82,1.82,0,0,0-.58-1.37A2.07,2.07,0,0,0,150,60.52Z"/><path class="cls-1" d="M157.67,70.18V58.58h2.18v9.51h4.26v2.08Z"/><path class="cls-1" d="M170.37,70.33a5.56,5.56,0,0,1-2.19-.46,5.72,5.72,0,0,1-1.88-1.27L167.68,67A4.21,4.21,0,0,0,169,68a3.27,3.27,0,0,0,1.53.41,1.88,1.88,0,0,0,1.24-.4,1.24,1.24,0,0,0,.48-1,1.73,1.73,0,0,0-1.27-1.61l-1.29-.52a5,5,0,0,1-1.93-1.28,3,3,0,0,1-.62-2,3,3,0,0,1,1-2.2,3.36,3.36,0,0,1,2.46-1,5,5,0,0,1,3.57,1.33l-1.28,1.62a3,3,0,0,0-2.29-1,1.56,1.56,0,0,0-1,.33,1,1,0,0,0-.39.82,1.08,1.08,0,0,0,.31.79,3.07,3.07,0,0,0,1,.6l1.35.54a3.59,3.59,0,0,1,2.63,3.35,3.24,3.24,0,0,1-1.09,2.54A4.22,4.22,0,0,1,170.37,70.33Z"/><path class="cls-1" d="M176.54,60.67V58.58h9.56v2.08h-3.69v9.51h-2.17V60.67Z"/><path class="cls-1" d="M186.5,70.18,191,58.58h2l4.46,11.59h-2.24l-.62-1.61h-5.19l-.62,1.61ZM192,61.83l-1.86,4.81h3.7Z"/><path class="cls-1" d="M200.11,70.18V58.58h3.31a5.68,5.68,0,0,1,4.11,1.66,5.58,5.58,0,0,1,1.71,4.18,5.42,5.42,0,0,1-1.73,4.14,5.92,5.92,0,0,1-4.2,1.62Zm3.33-9.66h-1.32v7.73h1.34A3.34,3.34,0,0,0,206,67.12a3.93,3.93,0,0,0,1-2.76,3.82,3.82,0,0,0-1-2.74A3.4,3.4,0,0,0,203.44,60.52Z"/><path class="cls-1" d="M228.55,68.54a5.79,5.79,0,0,1-4.3,1.83A5.86,5.86,0,0,1,220,68.62a6,6,0,0,1,0-8.51,6,6,0,0,1,8.56,0L227,61.64a3.63,3.63,0,0,0-2.75-1.2,3.68,3.68,0,0,0-2.75,1.15,4,4,0,0,0,0,5.55,3.82,3.82,0,0,0,5.53-.07Z"/><path class="cls-1" d="M238.16,65.27h-4.29v3h4.71v1.93H231.7V58.58h6.75v1.93h-4.58v2.82h4.29Z"/><path class="cls-1" d="M242.11,70.18V58.58h1.52l5.71,7.29V58.58h2.17V70.18h-1.46l-5.78-7.38v7.38Z"/><path class="cls-1" d="M254.32,60.67V58.58h9.56v2.08h-3.69v9.51H258V60.67Z"/><path class="cls-1" d="M266.65,70.18V58.58h4.54A3.91,3.91,0,0,1,274,59.64a3.61,3.61,0,0,1,1.12,2.75,3.48,3.48,0,0,1-.83,2.35A3.73,3.73,0,0,1,272.1,66l3.12,4.21h-2.45l-3-4.14h-.94v4.14Zm4.2-9.66h-2V64.3h2a2.15,2.15,0,0,0,1.51-.51,1.73,1.73,0,0,0,.56-1.34,1.83,1.83,0,0,0-.58-1.37A2.07,2.07,0,0,0,270.85,60.52Z"/><path class="cls-1" d="M285.84,69.14a4.73,4.73,0,0,1-6.35,0,4.11,4.11,0,0,1-1.25-3.07V58.58h2.18v7.2a2.66,2.66,0,0,0,.6,1.79,2.31,2.31,0,0,0,3.3,0,2.61,2.61,0,0,0,.6-1.77V58.58h2.17v7.48A4.11,4.11,0,0,1,285.84,69.14Z"/><path class="cls-1" d="M291,70.18V58.58h2.1l3.59,5.71,3.63-5.71h2.28V70.18H300.4V62.24l-.17,0-3.6,5.55-3.51-5.48h0v7.89Z"/></svg>