<?xml version="1.0" encoding="utf-8"?>
<!-- Generator: Adobe Illustrator 19.1.1, SVG Export Plug-In . SVG Version: 6.00 Build 0)  -->
<svg version="1.1" id="Layer_1" xmlns="http://www.w3.org/2000/svg" xmlns:xlink="http://www.w3.org/1999/xlink" x="0px" y="0px"
	 viewBox="0 0 580 400" style="enable-background:new 0 0 580 400;" xml:space="preserve">
<style type="text/css">
	.st0{fill:#D4AC76;}
</style>
<g>
	<path class="st0" d="M55.2,104.1V61.6h12.1c5.9,0,10.9,2,15.1,6.1c4.2,4.1,6.3,9.2,6.3,15.3s-2.1,11.2-6.3,15.2s-9.4,5.9-15.4,5.9
		H55.2z M67.4,68.7h-4.9V97h4.9c3.8,0,6.9-1.4,9.4-4.1c2.5-2.7,3.8-6.1,3.8-10.1s-1.3-7.4-3.8-10S71.1,68.7,67.4,68.7z"/>
	<path class="st0" d="M101.1,104.1V61.6h8v42.5H101.1z"/>
	<path class="st0" d="M119.3,69.3v-7.6h35v7.6h-13.5v34.9h-8V69.3H119.3z"/>
	<path class="st0" d="M161.8,69.3v-7.6h35v7.6h-13.5v34.9h-8V69.3H161.8z"/>
	<path class="st0" d="M230,104.1V61.6h8v34.9h15.6v7.6H230z"/>
	<path class="st0" d="M265.1,104.1V61.6h8v42.5H265.1z"/>
	<path class="st0" d="M299.3,104.1L283,61.6h8.3L303,92.2l11.5-30.6h8.1l-16.1,42.5H299.3z"/>
	<path class="st0" d="M342.3,104.7c-2.7,0-5.4-0.6-8-1.7c-2.6-1.1-4.9-2.7-6.9-4.6l5.1-6.1c1.3,1.5,2.8,2.8,4.7,3.8
		c1.9,1,3.8,1.5,5.6,1.5c1.8,0,3.4-0.5,4.5-1.5c1.2-1,1.8-2.2,1.8-3.7c0-2.6-1.6-4.6-4.7-5.9l-4.7-1.9c-3.2-1.3-5.5-2.9-7.1-4.7
		c-1.5-1.8-2.3-4.2-2.3-7.2c0-3,1.2-5.7,3.6-8.1c2.4-2.4,5.4-3.5,9-3.5c5.3,0,9.7,1.6,13.1,4.9l-4.7,5.9c-2.3-2.5-5.1-3.7-8.4-3.7
		c-1.6,0-2.9,0.4-3.8,1.2c-1,0.8-1.4,1.8-1.4,3c0,1.2,0.4,2.2,1.1,2.9c0.7,0.8,2,1.5,3.6,2.2l5,2c6.3,2.5,9.5,6.6,9.6,12.3
		c0,3.8-1.3,6.9-4,9.3C350.4,103.5,346.8,104.7,342.3,104.7z"/>
	<path class="st0" d="M380.4,104.1l-16.3-42.5h8.3l11.7,30.6l11.5-30.6h8.1l-16.1,42.5H380.4z"/>
	<path class="st0" d="M437.5,86.1h-15.7V97H439v7.1h-25.2V61.6h24.8v7.1h-16.8V79h15.7V86.1z"/>
	<path class="st0" d="M452,104.1V61.6h16.6c4.1,0,7.5,1.3,10.2,3.9c2.7,2.6,4.1,5.9,4.1,10.1c0,3.4-1,6.3-3,8.6
		c-2,2.4-4.7,3.9-7.9,4.5l11.4,15.4h-9l-11-15.2h-3.4v15.2H452z M467.4,68.7h-7.4v13.9h7.4c2.3,0,4.2-0.6,5.5-1.9
		c1.4-1.3,2.1-2.9,2.1-4.9c0-2-0.7-3.7-2.1-5C471.4,69.4,469.6,68.7,467.4,68.7z"/>
	<path class="st0" d="M495.4,104.1V61.6h7.4v18.7L519,61.6h9.8l-15,17l15.3,25.6H520l-11.6-19.4l-5.7,6.4v13H495.4z"/>
</g>
</svg>
