<svg id="Layer_1" data-name="Layer 1" xmlns="http://www.w3.org/2000/svg" viewBox="0 0 320 160"><defs><style>.cls-1{fill:#d80201;}</style></defs><title>text</title><path class="cls-1" d="M138.45,117.43,135.21,109h1l2.28,6.1,2.27-6.1h1Z"/><path class="cls-1" d="M145.85,117v-.7a2.13,2.13,0,0,1-1.73.84,2.47,2.47,0,0,1-2.4-2.65,2.42,2.42,0,0,1,2.39-2.59,2.1,2.1,0,0,1,1.74.83V112h.85v5Zm-1.61-4.33a1.7,1.7,0,0,0-1.64,1.82,1.72,1.72,0,0,0,1.64,1.87,1.7,1.7,0,0,0,1.66-1.87A1.68,1.68,0,0,0,144.24,112.62Z"/><path class="cls-1" d="M148.34,117v-8.74h.85V117Z"/><path class="cls-1" d="M150.82,117v-8.74h.85V117Z"/><path class="cls-1" d="M159,117v-3c0-.64-.11-1.31-.9-1.31s-1.07.84-1.07,1.56V117h-.85v-3c0-.62-.13-1.38-.91-1.38a1,1,0,0,0-.9.54,2.36,2.36,0,0,0-.19,1.08V117h-.85v-5h.85v.53a1.42,1.42,0,0,1,1.24-.65,1.52,1.52,0,0,1,1.37.8,1.7,1.7,0,0,1,2.79-.13,2.33,2.33,0,0,1,.28,1.27V117Z"/><path class="cls-1" d="M162.17,119.76h-1l1.61-3.27L160.53,112h1l1.76,3.56,1.61-3.56h1Z"/><path class="cls-1" d="M169.11,112.84a.75.75,0,0,0-.5-.17.92.92,0,0,0-.43.11c-.55.3-.55,1-.55,1.55V117h-.85v-5h.85v.54a1.33,1.33,0,0,1,1.13-.66,1.42,1.42,0,0,1,.77.2Z"/><path class="cls-1" d="M174,117v-.7a2.13,2.13,0,0,1-1.73.84,2.47,2.47,0,0,1-2.4-2.65,2.42,2.42,0,0,1,2.39-2.59,2.1,2.1,0,0,1,1.74.83V112h.85v5Zm-1.61-4.33a1.7,1.7,0,0,0-1.64,1.82,1.72,1.72,0,0,0,1.64,1.87,1.7,1.7,0,0,0,1.65-1.87A1.68,1.68,0,0,0,172.37,112.62Z"/><path class="cls-1" d="M178.19,117.28l-2.45-5.3h1l1.49,3.35,1.47-3.35h1Z"/><path class="cls-1" d="M185.34,117v-.7a2.13,2.13,0,0,1-1.73.84,2.47,2.47,0,0,1-2.4-2.65,2.42,2.42,0,0,1,2.39-2.59,2.1,2.1,0,0,1,1.74.83V112h.85v5Zm-1.61-4.33a1.7,1.7,0,0,0-1.64,1.82,1.72,1.72,0,0,0,1.64,1.87,1.7,1.7,0,0,0,1.66-1.87A1.68,1.68,0,0,0,183.73,112.62Zm-1-1.67a.61.61,0,0,1-.6-.6.6.6,0,1,1,.6.6Zm2.09,0a.61.61,0,0,1-.6-.6.6.6,0,1,1,.6.6Z"/><path class="cls-1" d="M192,118.8a2.42,2.42,0,0,1-2,.92,2.24,2.24,0,0,1-2.42-2.28h.85A1.49,1.49,0,0,0,190,119c1.2,0,1.59-.9,1.59-2v-.73a2.24,2.24,0,0,1-1.75.83,2.63,2.63,0,0,1,0-5.23,2.13,2.13,0,0,1,1.71.82V112h.86v4.87A3,3,0,0,1,192,118.8Zm-2-6.18a1.71,1.71,0,0,0-1.63,1.88,1.68,1.68,0,0,0,1.63,1.81,1.86,1.86,0,0,0,0-3.69Z"/><path class="cls-1" d="M194.7,114.64a1.61,1.61,0,0,0,1.58,1.68,1.72,1.72,0,0,0,1.54-1l.72.4a2.48,2.48,0,0,1-2.28,1.42,2.63,2.63,0,0,1,0-5.24,2.38,2.38,0,0,1,2.37,2.62v.17Zm1.54-2a1.53,1.53,0,0,0-1.47,1.28h2.93A1.49,1.49,0,0,0,196.24,112.63Z"/><path class="cls-1" d="M203,117V114c0-.78-.11-1.39-1-1.39-1.1,0-1.24,1-1.24,1.83V117h-.85v-5h.85v.6a1.8,1.8,0,0,1,2.85,0,2.28,2.28,0,0,1,.29,1.32V117Z"/><path class="cls-1" d="M211.12,117.08a2.75,2.75,0,0,1-2.77-2.71,3.2,3.2,0,0,1,.66-1.83l2.72-3.78.67.5-1.83,2.55a2.54,2.54,0,0,1,.73-.11,2.6,2.6,0,0,1,2.57,2.64A2.76,2.76,0,0,1,211.12,117.08Zm0-4.58a1.88,1.88,0,1,0,1.87,1.87A1.87,1.87,0,0,0,211.11,112.5Z"/><path class="cls-1" d="M219.47,116.4a2.81,2.81,0,0,1-1.92.55h-2v-8H217a2.76,2.76,0,0,1,1.81.5,2.17,2.17,0,0,1,.74,1.67,1.84,1.84,0,0,1-.79,1.56,2,2,0,0,1,1.51,2A2.19,2.19,0,0,1,219.47,116.4Zm-2.33-6.61h-.7v2.69h.67a1.66,1.66,0,0,0,1.14-.3,1.35,1.35,0,0,0,.42-1C218.68,110.14,218.05,109.79,217.14,109.79Zm1.57,3.69a2.56,2.56,0,0,0-1.27-.24h-1v2.88h1.12a2,2,0,0,0,1.31-.35,1.4,1.4,0,0,0,.52-1.1A1.37,1.37,0,0,0,218.71,113.49Z"/><path class="cls-1" d="M221.73,118.78l-.56-.23,1-2.77.79.29Z"/><path class="cls-1" d="M229.67,117.1A2.45,2.45,0,0,1,227.2,115l.86-.24a1.63,1.63,0,0,0,1.63,1.46,1.58,1.58,0,0,0,1.61-1.58c0-1.88-3.69-1.44-3.69-3.79a2.11,2.11,0,0,1,2.24-2.06,2.28,2.28,0,0,1,2.06,1.25l-.71.47a1.48,1.48,0,0,0-1.37-.87,1.27,1.27,0,0,0-1.33,1.22c0,1.66,3.7,1.18,3.7,3.75A2.46,2.46,0,0,1,229.67,117.1Z"/><path class="cls-1" d="M236.7,117l-2-2.27-.21.22V117h-.85v-8.74h.85v5.6l1.81-1.83h1.14l-2.14,2.11,2.53,2.87Z"/><path class="cls-1" d="M240.69,117.1a2.62,2.62,0,1,1,2.63-2.61A2.6,2.6,0,0,1,240.69,117.1Zm0-4.46a1.84,1.84,0,1,0,1.76,1.85A1.75,1.75,0,0,0,240.67,112.63Z"/><path class="cls-1" d="M248.81,118.8a2.42,2.42,0,0,1-2,.92,2.24,2.24,0,0,1-2.42-2.28h.85a1.49,1.49,0,0,0,1.58,1.51c1.2,0,1.59-.9,1.59-2v-.73a2.25,2.25,0,0,1-1.75.83,2.63,2.63,0,0,1,0-5.23,2.13,2.13,0,0,1,1.72.82V112h.86v4.87A3,3,0,0,1,248.81,118.8Zm-2-6.18a1.71,1.71,0,0,0-1.63,1.88,1.68,1.68,0,0,0,1.63,1.81,1.86,1.86,0,0,0,0-3.69Z"/><path class="cls-1" d="M254.72,117v-.7a2.12,2.12,0,0,1-1.73.84,2.47,2.47,0,0,1-2.4-2.65,2.42,2.42,0,0,1,2.39-2.59,2.1,2.1,0,0,1,1.74.83V112h.85v5Zm-1.61-4.33a1.7,1.7,0,0,0-1.64,1.82,1.72,1.72,0,0,0,1.64,1.87,1.7,1.7,0,0,0,1.66-1.87A1.68,1.68,0,0,0,253.12,112.62Zm0-1.63a1,1,0,1,1,1-1A1,1,0,0,1,253.09,111Zm0-1.54a.5.5,0,1,0,.5.5A.51.51,0,0,0,253.09,109.46Z"/><path class="cls-1" d="M258.55,117.1a1.77,1.77,0,0,1-1.74-1.27l.74-.31c.2.44.48.8,1,.8a.77.77,0,0,0,.81-.78c0-1.08-2.24-.74-2.24-2.29a1.4,1.4,0,0,1,1.45-1.39,1.49,1.49,0,0,1,1.37.9l-.71.37a.8.8,0,0,0-.7-.49.59.59,0,0,0-.6.55c0,.88,2.3.65,2.3,2.28A1.63,1.63,0,0,1,258.55,117.1Z"/><path class="cls-1" d="M133.32,132.1a2.45,2.45,0,0,1-2.47-2.06l.86-.24a1.63,1.63,0,0,0,1.63,1.46,1.58,1.58,0,0,0,1.61-1.58c0-1.88-3.69-1.44-3.69-3.79a2.11,2.11,0,0,1,2.24-2.06,2.28,2.28,0,0,1,2.06,1.25l-.71.47a1.48,1.48,0,0,0-1.37-.87,1.27,1.27,0,0,0-1.33,1.22c0,1.66,3.69,1.18,3.69,3.75A2.46,2.46,0,0,1,133.32,132.1Z"/><path class="cls-1" d="M139.59,132.1a2.62,2.62,0,1,1,2.63-2.61A2.6,2.6,0,0,1,139.59,132.1Zm0-4.46a1.84,1.84,0,1,0,1.76,1.85A1.75,1.75,0,0,0,139.58,127.63Zm-1-1.68a.61.61,0,0,1-.6-.6.6.6,0,1,1,.6.6Zm2.09,0a.61.61,0,0,1-.6-.6.6.6,0,1,1,.6.6Z"/><path class="cls-1" d="M146.65,132V129c0-.78-.11-1.39-1-1.39-1.1,0-1.24,1-1.24,1.83V132h-.85v-5h.85v.6a1.8,1.8,0,0,1,2.85,0,2.28,2.28,0,0,1,.29,1.32V132Z"/><path class="cls-1" d="M153,132v-.7a2.13,2.13,0,0,1-1.73.84,2.46,2.46,0,0,1-2.4-2.64,2.44,2.44,0,0,1,2.39-2.6,2.14,2.14,0,0,1,1.74.83v-4.47h.85V132Zm-1.61-4.32a1.85,1.85,0,1,0,1.65,1.81A1.67,1.67,0,0,0,151.35,127.63Z"/><path class="cls-1" d="M159.24,132v-.7a2.13,2.13,0,0,1-1.73.84,2.47,2.47,0,0,1-2.4-2.65,2.42,2.42,0,0,1,2.39-2.59,2.1,2.1,0,0,1,1.74.83V127h.85v5Zm-1.61-4.33a1.7,1.7,0,0,0-1.64,1.82,1.72,1.72,0,0,0,1.64,1.87,1.7,1.7,0,0,0,1.66-1.87A1.68,1.68,0,0,0,157.63,127.62Z"/><path class="cls-1" d="M165.91,133.8a2.42,2.42,0,0,1-2,.92,2.24,2.24,0,0,1-2.42-2.28h.85a1.49,1.49,0,0,0,1.58,1.51c1.2,0,1.59-.9,1.59-2v-.73a2.25,2.25,0,0,1-1.75.83,2.63,2.63,0,0,1,0-5.23,2.13,2.13,0,0,1,1.72.82V127h.86v4.87A3,3,0,0,1,165.91,133.8Zm-2-6.18a1.71,1.71,0,0,0-1.63,1.88,1.68,1.68,0,0,0,1.63,1.81,1.86,1.86,0,0,0,0-3.69Z"/><path class="cls-1" d="M174.27,129.25l-1.64,1.87H176V132h-5.17l2.91-3.37c.54-.62,1.38-1.52,1.38-2.39a1.6,1.6,0,1,0-3.19.1H171a3.35,3.35,0,0,1,.17-.9,2.5,2.5,0,0,1,4.81.82C176,127.41,175,128.42,174.27,129.25Z"/><path class="cls-1" d="M181.07,129.25l-1.64,1.87h3.36V132h-5.17l2.92-3.37c.54-.62,1.38-1.52,1.38-2.39a1.6,1.6,0,0,0-3.19.1h-.9a3.27,3.27,0,0,1,.17-.9,2.5,2.5,0,0,1,4.81.82C182.8,127.41,181.81,128.42,181.07,129.25Z"/><path class="cls-1" d="M190,132.1a2.62,2.62,0,1,1,2.63-2.61A2.6,2.6,0,0,1,190,132.1Zm0-4.46a1.84,1.84,0,1,0,1.76,1.85A1.75,1.75,0,0,0,189.94,127.63Z"/><path class="cls-1" d="M197,132l-2-2.27-.22.22V132h-.85v-8.74h.85v5.6l1.81-1.83h1.14l-2.13,2.11,2.53,2.87Z"/><path class="cls-1" d="M199.8,127.77V132h-.86v-4.19h-.52V127h.52v-1.8h.86V127h.88v.79Z"/><path class="cls-1" d="M203.82,132.1a2.62,2.62,0,1,1,2.63-2.61A2.6,2.6,0,0,1,203.82,132.1Zm0-4.46a1.84,1.84,0,1,0,1.76,1.85A1.75,1.75,0,0,0,203.81,127.63Z"/><path class="cls-1" d="M210.34,132.1a2.12,2.12,0,0,1-1.73-.84v.7h-.85v-8.74h.85v4.47a2.14,2.14,0,0,1,1.74-.83,2.44,2.44,0,0,1,2.39,2.6A2.46,2.46,0,0,1,210.34,132.1Zm-.12-4.46a1.68,1.68,0,0,0-1.66,1.84,1.66,1.66,0,1,0,1.66-1.84Z"/><path class="cls-1" d="M214.62,129.64a1.61,1.61,0,0,0,1.58,1.68,1.72,1.72,0,0,0,1.54-1l.72.4a2.48,2.48,0,0,1-2.28,1.42,2.63,2.63,0,0,1,0-5.24,2.38,2.38,0,0,1,2.38,2.62v.17Zm1.54-2a1.53,1.53,0,0,0-1.48,1.28h2.93A1.49,1.49,0,0,0,216.16,127.63Z"/><path class="cls-1" d="M222.16,127.84a.75.75,0,0,0-.5-.17.91.91,0,0,0-.43.11c-.55.3-.55,1-.55,1.55V132h-.85v-5h.85v.54a1.33,1.33,0,0,1,1.13-.66,1.42,1.42,0,0,1,.77.2Z"/><path class="cls-1" d="M229.44,132l-2-2.27-.21.22V132h-.85v-8.74h.85v5.6L229,127h1.14L228,129.09l2.53,2.87Z"/><path class="cls-1" d="M231.41,132v-8.74h.85V132Z"/><path class="cls-1" d="M239.26,132v-7.16h-1.33l.47-.84h1.75v8Z"/><path class="cls-1" d="M248.1,130.65V132h-.89v-1.31h-4.1l5-7.14v6.32h1v.82Zm-.89-4.43-2.53,3.61h2.53Z"/><path class="cls-1" d="M249.69,129.78V129h2.17v.77Z"/><path class="cls-1" d="M255,132v-7.16h-1.33l.47-.84h1.75v8Z"/><path class="cls-1" d="M262.07,132.08a2.75,2.75,0,0,1-2.77-2.71,3.2,3.2,0,0,1,.66-1.83l2.72-3.78.67.5-1.83,2.55a2.52,2.52,0,0,1,.73-.11,2.6,2.6,0,0,1,2.57,2.64A2.76,2.76,0,0,1,262.07,132.08Zm0-4.58a1.88,1.88,0,1,0,1.87,1.87A1.87,1.87,0,0,0,262.06,127.5Z"/></svg>