<svg id="Layer_1" data-name="Layer 1" xmlns="http://www.w3.org/2000/svg" viewBox="0 0 320 320"><defs><style>.cls-1{fill:#d80201;}</style></defs><title>text</title><path class="cls-1" d="M80.06,149.5H73.34v-20h5c1.62,0,3.6.15,4.89,1.2A5.35,5.35,0,0,1,85,134.8a4.19,4.19,0,0,1-2.19,4,4.56,4.56,0,0,1,2.61,1.26,5.39,5.39,0,0,1,1.44,3.75C86.84,147.82,83.66,149.5,80.06,149.5Zm-1.68-16.83H77.24v5.16h1.11c1.74,0,3-.69,3-2.58S80.12,132.67,78.38,132.67ZM79,140.8h-1.8v5.55h1.68c1.92,0,3.9-.45,3.9-2.79S80.9,140.8,79,140.8Z"/><path class="cls-1" d="M93.65,156.46H89.54l4.77-8.91-6.15-11h4.23l3.9,7.38,3.72-7.38h4.14Z"/><path class="cls-1" d="M118,154.21a7.08,7.08,0,0,1-5.52,2.28c-3.33,0-6.54-1.92-6.9-5.46h3.93a2.89,2.89,0,0,0,3.09,2.37c2.28,0,3.21-1.59,3.21-3.69v-2a5.4,5.4,0,0,1-4.38,2.16c-3.84,0-6.18-3.09-6.18-6.75s2.4-7.08,6.36-7.08a4.87,4.87,0,0,1,4.2,2.1v-1.68h3.66V149C119.45,151.06,119.36,152.59,118,154.21Zm-5.37-14.85a3.65,3.65,0,1,0,3.63,3.63A3.62,3.62,0,0,0,112.61,139.36Z"/><path class="cls-1" d="M135,154.21a7.08,7.08,0,0,1-5.52,2.28c-3.33,0-6.54-1.92-6.9-5.46h3.93a2.89,2.89,0,0,0,3.09,2.37c2.28,0,3.21-1.59,3.21-3.69v-2a5.4,5.4,0,0,1-4.38,2.16c-3.84,0-6.18-3.09-6.18-6.75s2.4-7.08,6.36-7.08a4.87,4.87,0,0,1,4.2,2.1v-1.68h3.66V149C136.46,151.06,136.37,152.59,135,154.21Zm-5.37-14.85a3.65,3.65,0,1,0,3.63,3.63A3.62,3.62,0,0,0,129.62,139.36Z"/><path class="cls-1" d="M156.32,149.5v-7.2c0-1.77-.39-3.12-2.46-3.12-2.25,0-2.79,1.65-2.79,3.6v6.72h-3.63v-13h3.63v1.59a4.79,4.79,0,0,1,4.08-2,4.49,4.49,0,0,1,4.8,5.16v8.25Z"/><path class="cls-1" d="M166.55,156.46h-4.11l4.77-8.91-6.15-11h4.23l3.9,7.38,3.72-7.38h4.14Z"/><path class="cls-1" d="M182.48,139.63v9.87h-3.63v-9.87h-1.44v-3.12h1.44v-4.44h3.63v4.44H185v3.12Z"/><path class="cls-1" d="M190.58,139.63v9.87H187v-9.87h-1.44v-3.12H187v-4.44h3.63v4.44h2.55v3.12Z"/><path class="cls-1" d="M211.4,149.5v-7.11c0-1.8-.39-3.21-2.49-3.21-2.25,0-2.76,1.74-2.76,3.66v6.66h-3.63V127h3.63v11.16a4.73,4.73,0,0,1,4.08-2.1,5,5,0,0,1,3.78,1.59,5.15,5.15,0,0,1,1,3.66v8.16Z"/><path class="cls-1" d="M224.78,149.92c-3.57,0-6.27-1.59-6.27-5.46v-8h3.63v7.35c0,1.77.75,3,2.64,3s2.64-1.2,2.64-3v-7.35h3.66v8C231.08,148.33,228.35,149.92,224.78,149.92Z"/><path class="cls-1" d="M238.7,149.92a6.91,6.91,0,0,1-4.95-2.16l1.92-2.22a4.22,4.22,0,0,0,3.06,1.53,1.53,1.53,0,0,0,1.65-1.44c0-2.22-5.79-1.11-5.79-5.49,0-2.64,2.19-4.11,4.65-4.11a6.69,6.69,0,0,1,4.23,1.38l-1.8,2.13a3.62,3.62,0,0,0-2.16-.87c-.63,0-1.38.39-1.38,1.11,0,1.89,6,1.05,6,5.49C244.13,148.3,241.49,149.92,238.7,149.92Z"/><path class="cls-1" d="M90.59,185.5v-7.11c0-1.53-.24-3.21-2.16-3.21-2.13,0-2.49,1.95-2.49,3.66v6.66H82.31v-6.9a5.79,5.79,0,0,0-.27-2.16,2.1,2.1,0,0,0-2-1.26,2.37,2.37,0,0,0-2,1.17,5.39,5.39,0,0,0-.42,2.49v6.66H74v-13h3.63V174a5,5,0,0,1,4-1.89,4.41,4.41,0,0,1,4,2.37,4.8,4.8,0,0,1,4.26-2.37A4.27,4.27,0,0,1,93.53,174a5.72,5.72,0,0,1,.69,3.15v8.4Z"/><path class="cls-1" d="M100.73,179.59c.06,2,1,3.48,3.18,3.48a3.4,3.4,0,0,0,3.09-1.74l3.36.54a6.37,6.37,0,0,1-6.39,4c-4.2,0-7-2.7-7-6.93s2.64-6.9,6.81-6.9,6.63,2.88,6.63,7v.48Zm3.15-4.92a3,3,0,0,0-3,2.61H107A3,3,0,0,0,103.88,174.67Z"/><path class="cls-1" d="M123.17,185.5v-1.71a5,5,0,0,1-4.23,2.13c-3.9,0-6.39-3.24-6.39-7s2.49-6.87,6.3-6.87a5.41,5.41,0,0,1,4.32,2.07V163h3.66V185.5Zm-3.24-10.14a3.65,3.65,0,1,0,3.63,3.63A3.62,3.62,0,0,0,119.93,175.36Z"/><path class="cls-1" d="M145.7,185.92a5.11,5.11,0,0,1-4.26-2.13v1.71h-3.63V163h3.63v11.13a5.51,5.51,0,0,1,4.35-2.07c3.81,0,6.33,3.24,6.33,6.87S149.6,185.92,145.7,185.92Zm-1-10.56a3.65,3.65,0,1,0,3.63,3.63A3.62,3.62,0,0,0,144.71,175.36Z"/><path class="cls-1" d="M163.37,175.81a3.21,3.21,0,0,0-1.74-.45c-2.46,0-3.12,1.74-3.12,3.9v6.24h-3.63v-13h3.63v2a4.24,4.24,0,0,1,5.37-2.07Z"/><path class="cls-1" d="M175.61,185.5v-1.71a5,5,0,0,1-4.23,2.13c-3.9,0-6.39-3.24-6.39-7s2.49-6.87,6.3-6.87a5.41,5.41,0,0,1,4.32,2.07v-1.65h3.66v13Zm-3.24-10.14A3.65,3.65,0,1,0,176,179,3.62,3.62,0,0,0,172.37,175.36Z"/><path class="cls-1" d="M186.89,185.92a6.91,6.91,0,0,1-4.95-2.16l1.92-2.22a4.22,4.22,0,0,0,3.06,1.53,1.53,1.53,0,0,0,1.65-1.44c0-2.22-5.79-1.11-5.79-5.49,0-2.64,2.19-4.11,4.65-4.11a6.69,6.69,0,0,1,4.23,1.38l-1.8,2.13a3.62,3.62,0,0,0-2.16-.87c-.63,0-1.38.39-1.38,1.11,0,1.89,6,1.05,6,5.49C192.32,184.3,189.68,185.92,186.89,185.92Z"/><path class="cls-1" d="M211.49,185.5v-7.11c0-1.53-.24-3.21-2.16-3.21-2.13,0-2.49,1.95-2.49,3.66v6.66h-3.63v-6.9a5.79,5.79,0,0,0-.27-2.16,2.1,2.1,0,0,0-1.95-1.26,2.37,2.37,0,0,0-2,1.17,5.39,5.39,0,0,0-.42,2.49v6.66H194.9v-13h3.63V174a5,5,0,0,1,4-1.89,4.41,4.41,0,0,1,4,2.37,4.8,4.8,0,0,1,4.26-2.37,4.27,4.27,0,0,1,3.63,1.86,5.72,5.72,0,0,1,.69,3.15v8.4Z"/><path class="cls-1" d="M221.75,192.46h-4.11l4.77-8.91-6.15-11h4.23l3.9,7.38,3.72-7.38h4.14Z"/><path class="cls-1" d="M237.47,185.92a6.91,6.91,0,0,1-4.95-2.16l1.92-2.22a4.22,4.22,0,0,0,3.06,1.53,1.53,1.53,0,0,0,1.65-1.44c0-2.22-5.79-1.11-5.79-5.49,0-2.64,2.19-4.11,4.65-4.11a6.69,6.69,0,0,1,4.23,1.38l-1.8,2.13a3.62,3.62,0,0,0-2.16-.87c-.63,0-1.38.39-1.38,1.11,0,1.89,6,1.05,6,5.49C242.9,184.3,240.26,185.92,237.47,185.92Z"/></svg>