<svg id="Layer_1" data-name="Layer 1" xmlns="http://www.w3.org/2000/svg" viewBox="0 0 580 400"><defs><style>.cls-1{fill:#d4ac76;}</style></defs><title>text</title><path class="cls-1" d="M231,247.48a5.36,5.36,0,0,1-7.2,0,4.66,4.66,0,0,1-1.41-3.47v-8.48h2.46v8.16a3,3,0,0,0,.68,2,2.6,2.6,0,0,0,3.74,0,2.91,2.91,0,0,0,.68-2v-8.19h2.47V244A4.67,4.67,0,0,1,231,247.48Z"/><path class="cls-1" d="M236.47,248.67V235.53h4.72a4.46,4.46,0,0,1,4.56,4.53,4.16,4.16,0,0,1-1.33,3.17,4.58,4.58,0,0,1-3.28,1.25h-2.21v4.19Zm4.5-10.78h-2v4.4H241a2.33,2.33,0,0,0,1.65-.58,2.07,2.07,0,0,0,.63-1.58,2.13,2.13,0,0,0-.65-1.61A2.29,2.29,0,0,0,241,237.89Z"/><path class="cls-1" d="M249,248.67V235.53h4.72a4.46,4.46,0,0,1,4.56,4.53,4.16,4.16,0,0,1-1.33,3.17,4.58,4.58,0,0,1-3.27,1.25H251.5v4.19Zm4.51-10.78h-2v4.4h2.07a2.33,2.33,0,0,0,1.65-.58,2.07,2.07,0,0,0,.63-1.58,2.13,2.13,0,0,0-.65-1.61A2.27,2.27,0,0,0,253.54,237.89Z"/><path class="cls-1" d="M260.35,237.89v-2.36h10.83v2.36H267v10.78h-2.46V237.89Z"/><path class="cls-1" d="M271.3,248.67l5.07-13.14h2.23l5,13.14h-2.54l-.7-1.82h-5.87l-.71,1.82Zm5.05-14.5a1,1,0,0,1-.81.35,1.08,1.08,0,0,1-.81-.35,1.17,1.17,0,0,1,.81-2,1.08,1.08,0,0,1,.8.34,1.15,1.15,0,0,1,.33.83A1.2,1.2,0,0,1,276.35,234.17Zm1.13,5-2.1,5.45h4.19Zm2.78-5a1.27,1.27,0,0,1-1.75,0,1.12,1.12,0,0,1-.36-.84,1.1,1.1,0,0,1,.36-.83,1.3,1.3,0,0,1,1.75,0,1.1,1.1,0,0,1,.36.83A1.12,1.12,0,0,1,280.26,234.17Z"/><path class="cls-1" d="M297,246.81a6.55,6.55,0,0,1-4.87,2.08,6.68,6.68,0,0,1-4.86-2,6.82,6.82,0,0,1,0-9.64,6.62,6.62,0,0,1,4.85-2,6.55,6.55,0,0,1,4.85,2L295.24,239a4.14,4.14,0,0,0-3.12-1.36,4.19,4.19,0,0,0-3.11,1.3,4.53,4.53,0,0,0,0,6.29,4.34,4.34,0,0,0,6.26-.07Z"/><path class="cls-1" d="M300.24,248.67V235.53h2.27v5.79l5-5.79h3L306,240.77l4.74,7.9h-2.84l-3.58-6-1.76,2v4Z"/><path class="cls-1" d="M320.5,248.67V235.53h2.38l4.06,6.47,4.12-6.47h2.58v13.14h-2.46v-9l-.2,0-4.08,6.3-4-6.21h0v8.94Z"/><path class="cls-1" d="M345.17,243.11H340.3v3.36h5.34v2.2h-7.8V235.53h7.65v2.19H340.3v3.19h4.87Z"/><path class="cls-1" d="M349.3,248.67V235.53h5.14a4.39,4.39,0,0,1,3.16,1.19,4,4,0,0,1,1.27,3.11,4,4,0,0,1-.94,2.67,4.24,4.24,0,0,1-2.46,1.4l3.53,4.77h-2.77l-3.41-4.7h-1.06v4.7Zm4.76-10.95h-2.3V242h2.3a2.45,2.45,0,0,0,1.71-.58,2,2,0,0,0,.63-1.52,2.06,2.06,0,0,0-.65-1.56A2.38,2.38,0,0,0,354.06,237.72Z"/></svg>