<svg id="Layer_1" data-name="Layer 1" xmlns="http://www.w3.org/2000/svg" viewBox="0 0 580 400"><defs><style>.cls-1{fill:#d4ac76;}</style></defs><title>text</title><path class="cls-1" d="M56,150.07,49,132.29h2.79L57.15,146l5.34-13.66h2.74l-7,17.78Z"/><path class="cls-1" d="M66.74,150.07l7.14-17.78h2.25l7,17.78H80.38l-1.07-2.74H70.59l-1.1,2.74Zm6.42-19.66a1.16,1.16,0,0,1-.88.39,1.15,1.15,0,0,1-.88-.39,1.4,1.4,0,0,1-.36-1,1.39,1.39,0,0,1,.36-1,1.15,1.15,0,0,1,.88-.39,1.16,1.16,0,0,1,.88.39,1.35,1.35,0,0,1,.37,1A1.37,1.37,0,0,1,73.16,130.41Zm1.84,6L71.55,145h6.83Zm3.09-6a1.15,1.15,0,0,1-.88.39,1.13,1.13,0,0,1-.88-.39,1.4,1.4,0,0,1-.36-1,1.39,1.39,0,0,1,.36-1,1.13,1.13,0,0,1,.88-.39,1.15,1.15,0,0,1,.88.39,1.39,1.39,0,0,1,.36,1A1.4,1.4,0,0,1,78.09,130.41Z"/><path class="cls-1" d="M88.07,150.07V132.29h6.59a5.58,5.58,0,0,1,4,1.55,5.33,5.33,0,0,1,1.61,4A5.39,5.39,0,0,1,99,141.57a5.28,5.28,0,0,1-3.41,1.74l5.15,6.76H97.63l-5.1-6.78h-2v6.78Zm6.26-15.41H90.55v6.42h3.76a3.65,3.65,0,0,0,2.52-.88,3,3,0,0,0,1-2.34,3,3,0,0,0-1-2.28A3.49,3.49,0,0,0,94.33,134.66Z"/><path class="cls-1" d="M106.51,150.07V132.29h4.76a8.84,8.84,0,0,1,8.81,8.86,8.58,8.58,0,0,1-2.58,6.39,8.69,8.69,0,0,1-6.32,2.53Zm4.86-15.41H109v13h2.45a5.71,5.71,0,0,0,4.38-1.91,6.58,6.58,0,0,0,1.78-4.64,6.33,6.33,0,0,0-1.84-4.62A5.91,5.91,0,0,0,111.37,134.66Z"/><path class="cls-1" d="M136,142.27h-7.32v5.43h7.82v2.37H126.2V132.29h10.17v2.37h-7.69v5.24H136Z"/><path class="cls-1" d="M142.67,150.07V132.29h9.7v2.37h-7.22v5.59h6.39v2.37h-6.39v7.45Z"/><path class="cls-1" d="M163.93,150.37a6.21,6.21,0,0,1-4.64-1.86,6.47,6.47,0,0,1-1.81-4.7V132.29H160v11.37a4.63,4.63,0,0,0,1.06,3.11,3.65,3.65,0,0,0,2.91,1.23,3.7,3.7,0,0,0,2.94-1.21,4.47,4.47,0,0,0,1.07-3.11V132.29h2.49v11.52a6.51,6.51,0,0,1-1.81,4.7A6.26,6.26,0,0,1,163.93,150.37Z"/><path class="cls-1" d="M177.49,150.07V132.29H180V147.7h7.32v2.37Z"/><path class="cls-1" d="M192.74,150.07V132.29h2.48V147.7h7.32v2.37Z"/><path class="cls-1" d="M203,134.66v-2.37h14.39v2.37h-5.95v15.41H209V134.66Z"/><path class="cls-1" d="M242.21,142.27H234.9v5.43h7.82v2.37H232.41V132.29h10.17v2.37H234.9v5.24h7.31Z"/><path class="cls-1" d="M248.88,150.07V132.29h6.6a5.56,5.56,0,0,1,4,1.55,5.5,5.5,0,0,1-3.12,9.47l5.15,6.76h-3.06l-5.11-6.78h-2v6.78Zm6.27-15.41h-3.79v6.42h3.76a3.63,3.63,0,0,0,2.52-.88,3.22,3.22,0,0,0,0-4.62A3.51,3.51,0,0,0,255.15,134.66Z"/><path class="cls-1" d="M267.33,150.07V132.29h5.44a5.66,5.66,0,0,1,3.91,1.38,4.57,4.57,0,0,1,1.55,3.59,4.19,4.19,0,0,1-2.12,3.81,4.54,4.54,0,0,1,1.91,1.6,4.13,4.13,0,0,1,.71,2.4,4.61,4.61,0,0,1-1.55,3.63,5.76,5.76,0,0,1-4,1.37Zm5.18-15.41h-2.7v5.41H273a2.72,2.72,0,0,0,2-.79,2.76,2.76,0,0,0,.79-2,2.24,2.24,0,0,0-.89-1.87A3.65,3.65,0,0,0,272.51,134.66Zm.55,7.61h-3.25v5.43h3.09a3.67,3.67,0,0,0,2.45-.76,2.51,2.51,0,0,0,.9-2,2.42,2.42,0,0,0-.82-1.9A3.43,3.43,0,0,0,273.06,142.27Z"/><path class="cls-1" d="M288.35,150.35a6,6,0,0,1-3.53-1.06,5.52,5.52,0,0,1-2.11-2.87l2.3-1.13a3.91,3.91,0,0,0,1.26,2,3.2,3.2,0,0,0,2.08.73,3,3,0,0,0,2.4-1,4,4,0,0,0,.89-2.75V132.29h2.48v11.87a6.22,6.22,0,0,1-1.61,4.58A5.64,5.64,0,0,1,288.35,150.35Z"/><path class="cls-1" d="M307.06,150.37a6.21,6.21,0,0,1-4.64-1.86,6.47,6.47,0,0,1-1.81-4.7V132.29h2.48v11.37a4.58,4.58,0,0,0,1.06,3.11,3.65,3.65,0,0,0,2.91,1.23,3.73,3.73,0,0,0,2.94-1.21,4.52,4.52,0,0,0,1.07-3.11V132.29h2.49v11.52a6.51,6.51,0,0,1-1.81,4.7A6.26,6.26,0,0,1,307.06,150.37Z"/><path class="cls-1" d="M320.62,150.07V132.29h4.76a8.84,8.84,0,0,1,8.81,8.86,8.75,8.75,0,0,1-8.9,8.92Zm4.86-15.41H323.1v13h2.44a5.75,5.75,0,0,0,4.39-1.91,6.57,6.57,0,0,0,1.77-4.64,6.36,6.36,0,0,0-1.83-4.62A5.92,5.92,0,0,0,325.48,134.66Z"/><path class="cls-1" d="M337.71,150.07l7.13-17.78h2.25l7,17.78h-2.75l-1.07-2.74h-8.71l-1.11,2.74Zm8.25-13.7L342.51,145h6.83Z"/><path class="cls-1" d="M359,150.07V132.29h1.73l9.63,12.25V132.29h2.48v17.78h-1.38l-10-12.69v12.69Z"/><path class="cls-1" d="M380.3,150.07V132.29h4.76a8.84,8.84,0,0,1,8.81,8.86,8.58,8.58,0,0,1-2.58,6.39,8.69,8.69,0,0,1-6.32,2.53Zm4.86-15.41h-2.37v13h2.44a5.71,5.71,0,0,0,4.38-1.91,6.58,6.58,0,0,0,1.78-4.64,6.33,6.33,0,0,0-1.84-4.62A5.91,5.91,0,0,0,385.16,134.66Z"/><path class="cls-1" d="M409.79,142.27h-7.32v5.43h7.82v2.37H400V132.29h10.17v2.37h-7.69v5.24h7.32Z"/><path class="cls-1" d="M431.05,150.07l-6.93-17.78h2.79L432.23,146l5.34-13.66h2.74l-6.95,17.78Z"/><path class="cls-1" d="M441.83,150.07,449,132.29h2.25l7,17.78h-2.75l-1.07-2.74h-8.72l-1.1,2.74Zm6.42-19.66a1.18,1.18,0,0,1-.89.39,1.15,1.15,0,0,1-.88-.39,1.4,1.4,0,0,1-.35-1,1.38,1.38,0,0,1,.35-1,1.15,1.15,0,0,1,.88-.39,1.18,1.18,0,0,1,.89.39,1.39,1.39,0,0,1,.36,1A1.4,1.4,0,0,1,448.25,130.41Zm1.83,6L446.63,145h6.83Zm3.09-6a1.19,1.19,0,0,1-1.76,0,1.4,1.4,0,0,1-.36-1,1.39,1.39,0,0,1,.36-1,1.19,1.19,0,0,1,1.76,0,1.39,1.39,0,0,1,.36,1A1.4,1.4,0,0,1,453.17,130.41Z"/><path class="cls-1" d="M463.15,150.07V132.29h1.73l9.63,12.25V132.29H477v17.78h-1.38l-10-12.69v12.69Z"/><path class="cls-1" d="M482.08,134.66v-2.37h14.39v2.37h-6v15.41H488V134.66Z"/><path class="cls-1" d="M497.62,150.07l7.14-17.78H507l7,17.78h-2.75l-1.07-2.74h-8.72l-1.1,2.74Zm8.26-13.7L502.43,145h6.83Z"/><path class="cls-1" d="M519,150.07V132.29h6.59a5.58,5.58,0,0,1,4,1.55,5.33,5.33,0,0,1,1.61,4,5.39,5.39,0,0,1-1.33,3.71,5.28,5.28,0,0,1-3.41,1.74l5.15,6.76h-3.06l-5.1-6.78h-2v6.78Zm6.26-15.41h-3.78v6.42h3.76a3.65,3.65,0,0,0,2.52-.88,3,3,0,0,0,1-2.34,3,3,0,0,0-1-2.28A3.49,3.49,0,0,0,525.21,134.66Z"/></svg>