<svg id="Layer_1" data-name="Layer 1" xmlns="http://www.w3.org/2000/svg" viewBox="0 0 320 160"><defs><style>.cls-1{fill:#d80201;}</style></defs><title>text</title><path class="cls-1" d="M92.76,75.42H91l-7.1-17.09h3.55l4.45,11.2,4.5-11.2H100Z"/><path class="cls-1" d="M109.74,75V73.57a4.18,4.18,0,0,1-3.53,1.78c-3.25,0-5.32-2.7-5.32-5.8s2.07-5.72,5.25-5.72a4.53,4.53,0,0,1,3.6,1.72V64.18h3.05V75Zm-5.23-12.85a1.8,1.8,0,0,1,0-3.6,1.8,1.8,0,0,1,0,3.6Zm2.53,4.4a3,3,0,1,0,3,3A3,3,0,0,0,107,66.55Zm2.67-4.4a1.83,1.83,0,0,1-1.8-1.8,1.8,1.8,0,1,1,1.8,1.8Z"/><path class="cls-1" d="M115.69,75V56.28h3V75Z"/><path class="cls-1" d="M123.09,61.43a1.83,1.83,0,1,1,0-3.65,1.83,1.83,0,0,1,0,3.65Zm-1.53,19.34V64.18h3V80.77Z"/><path class="cls-1" d="M137.14,75.35a5.8,5.8,0,0,1-4.13-1.8l1.6-1.85A3.52,3.52,0,0,0,137.16,73a1.29,1.29,0,0,0,1.38-1.2c0-1.85-4.83-.93-4.83-4.58,0-2.2,1.83-3.42,3.88-3.42a5.55,5.55,0,0,1,3.52,1.15l-1.5,1.77a3,3,0,0,0-1.8-.72c-.52,0-1.15.32-1.15.92,0,1.58,5,.88,5,4.58C141.66,74,139.46,75.35,137.14,75.35Z"/><path class="cls-1" d="M149.44,75.35c-3.45,0-6.2-2.15-6.2-5.75s2.75-5.77,6.22-5.77,6.15,2.17,6.15,5.75S152.86,75.35,149.44,75.35Zm0-8.8a3,3,0,1,0,3.08,3A3.07,3.07,0,0,0,149.41,66.55Z"/><path class="cls-1" d="M157.94,75V56.28h3V75Z"/><path class="cls-1" d="M169.19,75.35a5.7,5.7,0,0,1-5.9-5.72,5.78,5.78,0,0,1,6-5.8,5.55,5.55,0,0,1,2.75.65v3a3.74,3.74,0,0,0-2.45-.93,3,3,0,1,0,0,6.08A3.7,3.7,0,0,0,172,71.7v3A5.77,5.77,0,0,1,169.19,75.35Z"/><path class="cls-1" d="M176.81,70.08c.05,1.67.85,2.9,2.65,2.9A2.86,2.86,0,0,0,182,71.53l2.79.45a5.3,5.3,0,0,1-5.32,3.37,5.43,5.43,0,0,1-5.8-5.77,5.36,5.36,0,0,1,5.68-5.75c3.57,0,5.52,2.4,5.52,5.85v.4Zm2.63-4.1a2.46,2.46,0,0,0-2.53,2.17H182A2.51,2.51,0,0,0,179.44,66Z"/><path class="cls-1" d="M187.24,75V56.28h3V75Z"/><path class="cls-1" d="M193.16,75V56.28h3V75Z"/><path class="cls-1" d="M201.61,70.08c0,1.67.85,2.9,2.65,2.9a2.83,2.83,0,0,0,2.57-1.45l2.8.45a5.3,5.3,0,0,1-5.32,3.37,5.43,5.43,0,0,1-5.8-5.77,5.36,5.36,0,0,1,5.68-5.75c3.57,0,5.52,2.4,5.52,5.85v.4Zm2.62-4.1a2.45,2.45,0,0,0-2.52,2.17h5.12A2.5,2.5,0,0,0,204.23,66Z"/><path class="cls-1" d="M219.11,66.93a2.65,2.65,0,0,0-1.45-.38c-2,0-2.6,1.45-2.6,3.25V75h-3V64.18h3V65.8a3.48,3.48,0,0,1,3.15-2,3.33,3.33,0,0,1,1.32.25Z"/><path class="cls-1" d="M105,100.35c-3.45,0-6.2-2.15-6.2-5.75s2.75-5.77,6.23-5.77,6.15,2.17,6.15,5.75S108.39,100.35,105,100.35Zm0-8.8a3,3,0,1,0,3.07,3A3.06,3.06,0,0,0,104.94,91.55Z"/><path class="cls-1" d="M118.79,100.35a5.7,5.7,0,0,1-5.9-5.72,5.78,5.78,0,0,1,6-5.8,5.55,5.55,0,0,1,2.75.65v3a3.74,3.74,0,0,0-2.45-.93,3,3,0,1,0,0,6.08,3.7,3.7,0,0,0,2.45-.93v3A5.77,5.77,0,0,1,118.79,100.35Z"/><path class="cls-1" d="M131.64,100V94.08c0-1.5-.33-2.68-2.08-2.68s-2.3,1.45-2.3,3V100h-3V81.28h3v9.3a3.94,3.94,0,0,1,3.4-1.75,4.12,4.12,0,0,1,3.15,1.32,4.28,4.28,0,0,1,.85,3V100Z"/><path class="cls-1" d="M146.94,91.78V100h-3V91.78h-1.17v-2.6h1.17V85.7a5.23,5.23,0,0,1,.48-2.55A4.28,4.28,0,0,1,148.14,81a3.61,3.61,0,0,1,1.6.37v2.78a3,3,0,0,0-1.38-.4c-1.35,0-1.42,1.4-1.42,2.42v3h2.8v2.6Z"/><path class="cls-1" d="M159.41,100V98.58a4.18,4.18,0,0,1-3.52,1.77c-3.25,0-5.33-2.7-5.33-5.8s2.08-5.72,5.25-5.72a4.51,4.51,0,0,1,3.6,1.72V89.18h3.05V100Zm-2.7-8.45a3,3,0,1,0,3,3A3,3,0,0,0,156.71,91.55Zm-.42-4.27a2.25,2.25,0,0,1,0-4.5,2.25,2.25,0,0,1,0,4.5Zm0-3.13a.88.88,0,1,0,.87.88A.85.85,0,0,0,156.29,84.15Z"/><path class="cls-1" d="M185.43,100V94.08c0-1.28-.2-2.68-1.8-2.68-1.77,0-2.07,1.63-2.07,3V100h-3V94.25a4.72,4.72,0,0,0-.23-1.8,1.74,1.74,0,0,0-1.62-1,2,2,0,0,0-1.7,1,4.4,4.4,0,0,0-.35,2.07V100h-3V89.18h3V90.4a4.16,4.16,0,0,1,3.3-1.57,3.68,3.68,0,0,1,3.37,2,4,4,0,0,1,3.55-2,3.55,3.55,0,0,1,3,1.55,4.75,4.75,0,0,1,.58,2.62v7Z"/><path class="cls-1" d="M193.89,95.08c.05,1.67.85,2.9,2.65,2.9a2.84,2.84,0,0,0,2.57-1.45l2.8.45a5.31,5.31,0,0,1-5.32,3.37,5.43,5.43,0,0,1-5.8-5.77,5.36,5.36,0,0,1,5.67-5.75c3.57,0,5.52,2.4,5.52,5.85v.4Zm2.62-4.1A2.45,2.45,0,0,0,194,93.15h5.12A2.5,2.5,0,0,0,196.51,91Z"/><path class="cls-1" d="M211.38,91.93a2.62,2.62,0,0,0-1.44-.38c-2.05,0-2.6,1.45-2.6,3.25V100h-3V89.18h3V90.8a3.48,3.48,0,0,1,3.14-2,3.38,3.38,0,0,1,1.33.25Z"/><path class="cls-1" d="M215,100.32a1.95,1.95,0,1,1,1.95-1.94A1.94,1.94,0,0,1,215,100.32Zm-1.55-5.09V83.33h3.1v11.9Z"/></svg>