<svg id="Layer_1" data-name="Layer 1" xmlns="http://www.w3.org/2000/svg" viewBox="0 0 580 400"><defs><style>.cls-1{fill:#d4ac76;}</style></defs><title>text</title><path class="cls-1" d="M22.88,109.13V63.52h15a13.76,13.76,0,0,1,10,3.81,12.59,12.59,0,0,1,3.92,9.41q0,5.61-5.11,9.17a12.69,12.69,0,0,1,5,4.08,9.7,9.7,0,0,1,1.89,5.8,12.53,12.53,0,0,1-4,9.66,14.31,14.31,0,0,1-10.08,3.68Zm14-38h-6.1V82.58H37.6a6.29,6.29,0,0,0,4.54-1.68,5.64,5.64,0,0,0,1.75-4.21,4.89,4.89,0,0,0-1.93-4A8,8,0,0,0,36.89,71.13Zm1.3,18.29h-7.4v12.1H38a7.4,7.4,0,0,0,5.15-1.72,5.69,5.69,0,0,0,1.9-4.42,5.61,5.61,0,0,0-1.78-4.32A7.27,7.27,0,0,0,38.19,89.42Z"/><path class="cls-1" d="M111.5,86.3a23.63,23.63,0,0,1-23.69,23.6A23.64,23.64,0,0,1,64.12,86.3,23.68,23.68,0,0,1,87.81,62.64,23.66,23.66,0,0,1,111.5,86.3ZM77.07,97.18a15,15,0,0,0,21.45,0,15.66,15.66,0,0,0,0-21.83,15,15,0,0,0-21.45,0,15.76,15.76,0,0,0,0,21.83Z"/><path class="cls-1" d="M124.6,109.13V63.52h7.91V83.63L150,63.52h10.56l-16.09,18.2,16.44,27.41H151L138.61,88.31l-6.1,6.9v13.92Z"/><path class="cls-1" d="M169.2,109.13l17.59-45.61h7.72L212,109.13h-8.79l-2.42-6.31h-20.4L178,109.13Zm21.46-32.85-7.3,18.92h14.55Z"/><path class="cls-1" d="M247,109.13V63.52h8.26L269.39,86l14.27-22.48h9v45.61h-8.55V77.92l-.69-.1L269.24,99.65,255.45,78.1h.13v31Z"/><path class="cls-1" d="M352.58,86.3a23.69,23.69,0,1,1-40.45-16.73A23.7,23.7,0,0,1,352.58,86.3ZM318.15,97.18a15,15,0,0,0,21.45,0,15.69,15.69,0,0,0,0-21.83,15,15,0,0,0-21.45,0,15.74,15.74,0,0,0,0,21.83Zm6.74-38.35A3.67,3.67,0,0,1,322.1,60a3.73,3.73,0,0,1-2.81-1.21,4.07,4.07,0,0,1,2.81-7A3.75,3.75,0,0,1,324.86,53,4,4,0,0,1,326,55.91,4.09,4.09,0,0,1,324.89,58.83Zm13.57,0a4.39,4.39,0,0,1-6,0,3.92,3.92,0,0,1-1.25-2.92A3.84,3.84,0,0,1,332.41,53a4.47,4.47,0,0,1,6,0,3.8,3.8,0,0,1,1.25,2.89A3.88,3.88,0,0,1,338.46,58.83Z"/><path class="cls-1" d="M359.3,71.72v-8.2h37.58v8.2H382.37v37.41h-8.55V71.72Z"/><path class="cls-1" d="M433.23,89.84H416.36v11.68h18.52v7.61H407.8V63.52h26.55v7.61h-18V82.22h16.87Z"/><path class="cls-1" d="M472.23,109.13V63.52h6L500.67,92.2V63.52h8.55v45.61H503.5l-22.72-29v29Z"/><path class="cls-1" d="M554.45,105a18.61,18.61,0,0,1-25,0A16.19,16.19,0,0,1,524.56,93V63.52h8.56V91.84a10.45,10.45,0,0,0,2.35,7,9.06,9.06,0,0,0,13,0,10.25,10.25,0,0,0,2.35-7V63.52h8.56V93A16.19,16.19,0,0,1,554.45,105Z"/></svg>