<svg id="Layer_1" data-name="Layer 1" xmlns="http://www.w3.org/2000/svg" viewBox="0 0 320 160"><defs><style>.cls-1{fill:#d80201;}</style></defs><title>text</title><path class="cls-1" d="M100.11,75.42H98.38l-7.1-17.09h3.55l4.45,11.2,4.5-11.2h3.52Z"/><path class="cls-1" d="M115.78,75V73.57a4.17,4.17,0,0,1-3.52,1.78c-3.25,0-5.33-2.7-5.33-5.8s2.08-5.72,5.25-5.72a4.51,4.51,0,0,1,3.6,1.72V64.18h3V75Zm-2.7-8.45a3,3,0,1,0,3,3A3,3,0,0,0,113.08,66.55Z"/><path class="cls-1" d="M121.73,75V56.28h3V75Z"/><path class="cls-1" d="M130.78,66.78V75h-3V66.78h-1.18v-2.6h1.18V60.7a5.34,5.34,0,0,1,.47-2.55A4.28,4.28,0,0,1,132,56a3.54,3.54,0,0,1,1.6.37v2.78a2.94,2.94,0,0,0-1.37-.4c-1.35,0-1.43,1.4-1.43,2.42v3h2.8v2.6Z"/><path class="cls-1" d="M142.06,66.93a2.65,2.65,0,0,0-1.45-.38c-2.05,0-2.6,1.45-2.6,3.25V75h-3V64.18h3V65.8a3.48,3.48,0,0,1,3.15-2,3.37,3.37,0,0,1,1.32.25Z"/><path class="cls-1" d="M145.46,61.43a1.83,1.83,0,1,1,0-3.65,1.83,1.83,0,0,1,0,3.65ZM143.93,75V64.18h3V75Z"/><path class="cls-1" d="M158.08,75V73.57a4.17,4.17,0,0,1-3.52,1.78c-3.25,0-5.33-2.7-5.33-5.8s2.08-5.72,5.25-5.72a4.51,4.51,0,0,1,3.6,1.72V64.18h3V75Zm-2.7-8.45a3,3,0,1,0,3,3A3,3,0,0,0,155.38,66.55Z"/><path class="cls-1" d="M173.33,66.78V75h-3V66.78h-1.2v-2.6h1.2v-3.7h3v3.7h2.13v2.6Z"/><path class="cls-1" d="M178.51,61.43a1.83,1.83,0,1,1,0-3.65,1.83,1.83,0,0,1,0,3.65ZM177,75V64.18h3V75Z"/><path class="cls-1" d="M182.86,75V56.28h3V75Z"/><path class="cls-1" d="M188.78,75V56.28h3V75Z"/><path class="cls-1" d="M200.21,75.22h-1.4l-5.53-11h3.4l2.85,6.1,2.85-6.1h3.4Z"/><path class="cls-1" d="M215,75V73.57a4.17,4.17,0,0,1-3.52,1.78c-3.25,0-5.33-2.7-5.33-5.8s2.08-5.72,5.25-5.72a4.51,4.51,0,0,1,3.6,1.72V64.18H218V75Zm-2.7-8.45a3,3,0,1,0,3,3A3,3,0,0,0,212.28,66.55Z"/><path class="cls-1" d="M220.93,75V56.28h3V75Z"/><path class="cls-1" d="M91.91,91.78V100h-3V91.78H87.71v-2.6h1.17V85.7a5.23,5.23,0,0,1,.48-2.55A4.28,4.28,0,0,1,93.11,81a3.61,3.61,0,0,1,1.6.37v2.78a3,3,0,0,0-1.38-.4c-1.35,0-1.42,1.4-1.42,2.42v3h2.8v2.6Z"/><path class="cls-1" d="M101.73,100.35c-3.45,0-6.19-2.15-6.19-5.75s2.74-5.77,6.22-5.77,6.15,2.17,6.15,5.75S105.16,100.35,101.73,100.35Zm-2.62-13.2a1.8,1.8,0,1,1,0-3.6,1.8,1.8,0,0,1,0,3.6Zm2.6,4.4a3,3,0,1,0,3.07,3A3.06,3.06,0,0,0,101.71,91.55Zm2.6-4.4a1.82,1.82,0,0,1-1.8-1.8,1.8,1.8,0,1,1,1.8,1.8Z"/><path class="cls-1" d="M117.31,91.93a2.65,2.65,0,0,0-1.45-.38c-2,0-2.6,1.45-2.6,3.25V100h-3V89.18h3V90.8a3.48,3.48,0,0,1,3.15-2,3.37,3.37,0,0,1,1.32.25Z"/><path class="cls-1" d="M130,100.42a7.14,7.14,0,0,1-5.33-2.17l1.08-2.8a5.59,5.59,0,0,0,4.2,2.13,3.31,3.31,0,0,0,3.32-3.23,3.56,3.56,0,0,0-3.8-3.32,5.47,5.47,0,0,0-3.2,1h-.17l2-8.75h7.7v2.85h-5.5l-.65,2.57a10.2,10.2,0,0,1,1.23-.1,5.6,5.6,0,0,1,5.67,5.83C136.53,98.25,133.58,100.42,130,100.42Z"/><path class="cls-1" d="M145.28,100.42c-4.6,0-6.45-4.84-6.45-8.74s1.83-8.78,6.45-8.78,6.45,4.83,6.45,8.75S149.91,100.42,145.28,100.42Zm0-14.64c-2.55,0-3.2,4-3.2,5.87s.65,5.93,3.2,5.93,3.2-4,3.2-5.93S147.83,85.78,145.28,85.78Z"/><path class="cls-1" d="M165.71,100.42c-4.6,0-6.45-4.84-6.45-8.74s1.82-8.78,6.45-8.78,6.45,4.83,6.45,8.75S170.33,100.42,165.71,100.42Zm0-14.64c-2.55,0-3.2,4-3.2,5.87s.65,5.93,3.2,5.93,3.2-4,3.2-5.93S168.26,85.78,165.71,85.78Z"/><path class="cls-1" d="M179.88,100.42c-4.6,0-6.45-4.84-6.45-8.74s1.83-8.78,6.45-8.78,6.45,4.83,6.45,8.75S184.5,100.42,179.88,100.42Zm0-14.64c-2.55,0-3.2,4-3.2,5.87s.65,5.93,3.2,5.93,3.2-4,3.2-5.93S182.43,85.78,179.88,85.78Z"/><path class="cls-1" d="M194.06,100.42c-4.6,0-6.45-4.84-6.45-8.74s1.82-8.78,6.45-8.78,6.44,4.83,6.44,8.75S198.68,100.42,194.06,100.42Zm0-14.64c-2.55,0-3.2,4-3.2,5.87s.65,5.93,3.2,5.93,3.19-4,3.19-5.93S196.61,85.78,194.06,85.78Z"/><path class="cls-1" d="M216.28,100l-4.07-4.65-.33.33V100h-3V81.28h3V93.13l4.05-3.95H220L215,93.93l5.47,6.07Z"/><path class="cls-1" d="M228.86,91.93a2.65,2.65,0,0,0-1.45-.38c-2,0-2.6,1.45-2.6,3.25V100h-3V89.18h3V90.8a3.48,3.48,0,0,1,3.15-2,3.37,3.37,0,0,1,1.32.25Z"/></svg>