<svg id="Layer_1" data-name="Layer 1" xmlns="http://www.w3.org/2000/svg" viewBox="0 0 300 250"><defs><style>.cls-1{fill:#d4ac76;}</style></defs><title>text</title><path class="cls-1" d="M29.89,73.5l2.8-7h.87l2.74,7H35.23l-.42-1.07H31.4L31,73.5Zm3.23-5.36L31.77,71.5h2.67Zm.67-2.07a.9.9,0,0,1-.67.27.94.94,0,0,1-.67-.27,1,1,0,0,1,0-1.34.94.94,0,0,1,.67-.27.9.9,0,0,1,.67.27.94.94,0,0,1,0,1.34Zm-.67-.28a.37.37,0,0,0,.27-.12.4.4,0,0,0,.11-.27.37.37,0,0,0-.11-.27.37.37,0,0,0-.27-.12.34.34,0,0,0-.27.12.33.33,0,0,0-.11.27.36.36,0,0,0,.11.27A.34.34,0,0,0,33.12,65.79Z"/><path class="cls-1" d="M36.71,67.47v-.93h5.64v.93H40v6H39v-6Z"/><path class="cls-1" d="M43.72,67.47v-.93h5.64v.93H47v6h-1v-6Z"/><path class="cls-1" d="M49.81,73.5l2.79-7h.88l2.74,7H55.15l-.42-1.07H51.31l-.43,1.07ZM53,68.14,51.69,71.5h2.67Z"/><path class="cls-1" d="M66.39,73.5v-3H63v3H62v-7h1v3h3.39v-3h1v7Z"/><path class="cls-1" d="M72.63,73.62a2.46,2.46,0,0,1-1.82-.73,2.55,2.55,0,0,1-.71-1.84V66.54h1V71a1.78,1.78,0,0,0,.41,1.22,1.44,1.44,0,0,0,1.14.48,1.47,1.47,0,0,0,1.15-.47A1.77,1.77,0,0,0,74.2,71V66.54h1v4.51a2.55,2.55,0,0,1-.71,1.84A2.46,2.46,0,0,1,72.63,73.62Z"/><path class="cls-1" d="M79.75,73.59a3.22,3.22,0,0,1-1.31-.28,3.36,3.36,0,0,1-1.1-.75l.69-.78a2.66,2.66,0,0,0,.8.63,2,2,0,0,0,1,.25,1.37,1.37,0,0,0,.9-.29,1,1,0,0,0,.35-.74,1.22,1.22,0,0,0-.88-1.14l-.82-.33a2.76,2.76,0,0,1-1.14-.75,1.63,1.63,0,0,1-.37-1.1A1.74,1.74,0,0,1,78.4,67a2,2,0,0,1,1.42-.55,2.86,2.86,0,0,1,2,.77l-.59.78a1.94,1.94,0,0,0-1.43-.62,1.12,1.12,0,0,0-.74.24A.85.85,0,0,0,79,68.81a1.83,1.83,0,0,0,.7.42l.84.34a2,2,0,0,1,1.46,2A1.9,1.9,0,0,1,81.4,73,2.33,2.33,0,0,1,79.75,73.59Z"/><path class="cls-1" d="M88.2,73.5v-7h1l2.24,3.71,2.28-3.71h1v7h-1V68.36l0,0-2.24,3.6-2.19-3.55h-.07V73.5Z"/><path class="cls-1" d="M101.37,70.45H98.51v2.12h3.06v.93h-4v-7h4v.93h-3v2h2.86Z"/><path class="cls-1" d="M104,73.5v-7h1.86A3.47,3.47,0,0,1,109.29,70a3.36,3.36,0,0,1-1,2.5,3.41,3.41,0,0,1-2.47,1Zm1.9-6H105v5.1h1a2.26,2.26,0,0,0,1.71-.74,2.56,2.56,0,0,0,.7-1.82,2.48,2.48,0,0,0-.72-1.81A2.31,2.31,0,0,0,105.88,67.47Z"/><path class="cls-1" d="M119.89,73.5v-3h-3.38v3h-1v-7h1v3h3.38v-3h1v7Z"/><path class="cls-1" d="M126.82,73.63a3.44,3.44,0,0,1-2.51-1,3.72,3.72,0,0,1,0-5.16,3.56,3.56,0,0,1,5,0,3.71,3.71,0,0,1,0,5.15A3.42,3.42,0,0,1,126.82,73.63ZM125,71.92a2.41,2.41,0,0,0,1.82.78,2.44,2.44,0,0,0,1.82-.78,2.63,2.63,0,0,0,.75-1.9,2.6,2.6,0,0,0-.76-1.9,2.48,2.48,0,0,0-3.63,0,2.78,2.78,0,0,0,0,3.8Zm1.17-6.12a.46.46,0,0,1-.35.16.44.44,0,0,1-.35-.16.52.52,0,0,1-.13-.37.55.55,0,0,1,.13-.38.47.47,0,0,1,.35-.15.49.49,0,0,1,.35.15.56.56,0,0,1,.14.38A.53.53,0,0,1,126.17,65.8Zm1.92,0a.41.41,0,0,1-.34.16.44.44,0,0,1-.35-.16.53.53,0,0,1-.14-.37.56.56,0,0,1,.14-.38.47.47,0,0,1,.35-.15.43.43,0,0,1,.34.15.51.51,0,0,1,.14.38A.49.49,0,0,1,128.09,65.8Z"/><path class="cls-1" d="M137.32,70.48v-.93h2.32V70a3.58,3.58,0,0,1-3.6,3.58,3.42,3.42,0,0,1-2.54-1,3.75,3.75,0,0,1,0-5.14,3.42,3.42,0,0,1,2.54-1,3.8,3.8,0,0,1,1.46.29,3.52,3.52,0,0,1,1.19.8l-.72.74a2.55,2.55,0,0,0-3.78-.12,2.7,2.7,0,0,0-.74,1.9,2.66,2.66,0,0,0,.74,1.89,2.41,2.41,0,0,0,1.85.79,2.46,2.46,0,0,0,1.67-.61,2.62,2.62,0,0,0,.87-1.6Z"/><path class="cls-1" d="M145.79,73.5v-7h1v3.3l2.9-3.3H151l-2.46,2.76L151,73.5h-1.21l-2-3.39-1,1.16V73.5Z"/><path class="cls-1" d="M155.19,73.5l-2.72-7h1.09l2.09,5.35,2.09-5.35h1.07l-2.72,7Z"/><path class="cls-1" d="M159.4,73.5l2.79-7h.88l2.74,7h-1.07l-.42-1.07h-3.41l-.43,1.07Zm3.23-5.36-1.35,3.36H164Z"/><path class="cls-1" d="M167.74,73.5v-7h1v6h2.86v.93Z"/><path class="cls-1" d="M173.71,73.5v-7h1v7Z"/><path class="cls-1" d="M176.62,67.47v-.93h5.63v.93h-2.33v6h-1v-6Z"/><path class="cls-1" d="M188,70.45h-2.86v2.12h3.06v.93h-4v-7h4v.93h-3v2H188Z"/><path class="cls-1" d="M189.89,67.47v-.93h5.64v.93H193.2v6h-1v-6Z"/><path class="cls-1" d="M200.67,67.47v-.93h5.63v.93H204v6h-1v-6Z"/><path class="cls-1" d="M208.23,73.5v-7h1v7Z"/><path class="cls-1" d="M212.06,73.5v-7h1v6h2.86v.93Z"/><path class="cls-1" d="M218,73.5v-7h1v6h2.86v.93Z"/><path class="cls-1" d="M227.76,73.5v-7h2.12a2.24,2.24,0,0,1,1.54.54,1.81,1.81,0,0,1,.6,1.41,1.63,1.63,0,0,1-.83,1.49,1.7,1.7,0,0,1,.75.62,1.62,1.62,0,0,1,.28.94,1.81,1.81,0,0,1-.61,1.43,2.28,2.28,0,0,1-1.55.53Zm2-6h-1.06v2.11H230a1.09,1.09,0,0,0,.78-.3,1.07,1.07,0,0,0,.31-.8.88.88,0,0,0-.35-.73A1.39,1.39,0,0,0,229.79,67.47Zm.21,3h-1.27v2.12h1.21a1.5,1.5,0,0,0,1-.29,1,1,0,0,0,.35-.8,1,1,0,0,0-.32-.74A1.33,1.33,0,0,0,230,70.45Z"/><path class="cls-1" d="M234.66,73.5v-7h2.58a2.19,2.19,0,0,1,1.57.61,2.08,2.08,0,0,1,.63,1.57,2.11,2.11,0,0,1-.52,1.45,2,2,0,0,1-1.34.68l2,2.65h-1.2l-2-2.66h-.78V73.5Zm2.45-6h-1.48V70h1.47a1.42,1.42,0,0,0,1-.34,1.2,1.2,0,0,0,.38-.92,1.17,1.17,0,0,0-.39-.89A1.35,1.35,0,0,0,237.11,67.47Z"/><path class="cls-1" d="M241,73.5l2.79-7h.88l2.74,7h-1.07L246,72.43h-3.41l-.43,1.07Zm3.23-5.36-1.35,3.36h2.67Z"/><path class="cls-1" d="M253.26,73.5v-7h2.38a2.19,2.19,0,0,1,1.61.65,2.28,2.28,0,0,1,.65,1.66,2.18,2.18,0,0,1-.67,1.62,2.22,2.22,0,0,1-1.63.65h-1.37V73.5Zm2.31-6h-1.34V70.2h1.35a1.34,1.34,0,0,0,1-.37,1.48,1.48,0,0,0,0-2A1.31,1.31,0,0,0,255.57,67.47Z"/><path class="cls-1" d="M260.2,73.5v-7h2.58a2.19,2.19,0,0,1,1.57.61,2.28,2.28,0,0,1,.11,3,2,2,0,0,1-1.33.68l2,2.65h-1.2l-2-2.66h-.78V73.5Zm2.45-6h-1.48V70h1.47a1.4,1.4,0,0,0,1-.34,1.2,1.2,0,0,0,.38-.92,1.17,1.17,0,0,0-.39-.89A1.35,1.35,0,0,0,262.65,67.47Z"/><path class="cls-1" d="M267.42,73.5v-7h1v7Z"/><path class="cls-1" d="M272.94,73.59a3.47,3.47,0,0,1-2.4-1l.68-.78a2.66,2.66,0,0,0,.8.63,2,2,0,0,0,1,.25,1.37,1.37,0,0,0,.9-.29.92.92,0,0,0,.35-.74,1.22,1.22,0,0,0-.88-1.14l-.82-.33a2.76,2.76,0,0,1-1.14-.75,1.63,1.63,0,0,1-.37-1.1,1.74,1.74,0,0,1,.57-1.31,2,2,0,0,1,1.42-.55,2.84,2.84,0,0,1,2,.77l-.58.78a2,2,0,0,0-1.44-.62,1.07,1.07,0,0,0-.73.24.78.78,0,0,0-.29.65.8.8,0,0,0,.21.54,1.92,1.92,0,0,0,.7.42l.84.34a2,2,0,0,1,1.46,2,1.9,1.9,0,0,1-.61,1.46A2.33,2.33,0,0,1,272.94,73.59Z"/></svg>