<svg id="Layer_1" data-name="Layer 1" xmlns="http://www.w3.org/2000/svg" viewBox="0 0 320 320"><defs><style>.cls-1{fill:#d80201;}</style></defs><title>text</title><path class="cls-1" d="M65.94,141.71c-2.08,2.24-5.35,1.89-8.13,1.89v7.9H53.65V130.16h6.21c2.11,0,4,.16,5.63,1.63a6.8,6.8,0,0,1,2.18,5.15A7,7,0,0,1,65.94,141.71Zm-3.65-7.26a5,5,0,0,0-3-.68H57.81V140h1.7c2.08,0,3.87-.67,3.87-3.07A3.13,3.13,0,0,0,62.29,134.45Z"/><path class="cls-1" d="M80.11,151.5v-1.82A5.34,5.34,0,0,1,75.6,152c-4.16,0-6.81-3.46-6.81-7.43s2.65-7.32,6.72-7.32a5.74,5.74,0,0,1,4.6,2.2v-1.75H84V151.5Zm-3.45-10.82a3.89,3.89,0,1,0,3.87,3.88A3.86,3.86,0,0,0,76.66,140.68Z"/><path class="cls-1" d="M92.15,152a7.36,7.36,0,0,1-5.28-2.31l2-2.36a4.56,4.56,0,0,0,3.27,1.63,1.64,1.64,0,0,0,1.76-1.54c0-2.37-6.18-1.18-6.18-5.85,0-2.82,2.34-4.39,5-4.39a7.16,7.16,0,0,1,4.51,1.47l-1.92,2.28A3.81,3.81,0,0,0,93,140c-.67,0-1.47.41-1.47,1.18,0,2,6.4,1.12,6.4,5.86C97.94,150.22,95.12,152,92.15,152Z"/><path class="cls-1" d="M105.1,152a7.35,7.35,0,0,1-5.27-2.31l2-2.36a4.56,4.56,0,0,0,3.27,1.63,1.64,1.64,0,0,0,1.76-1.54c0-2.37-6.18-1.18-6.18-5.85,0-2.82,2.34-4.39,5-4.39a7.16,7.16,0,0,1,4.51,1.47l-1.92,2.28A3.81,3.81,0,0,0,106,140c-.67,0-1.47.41-1.47,1.18,0,2,6.4,1.12,6.4,5.86C110.9,150.22,108.08,152,105.1,152Z"/><path class="cls-1" d="M124.24,151.5v-1.82a5.37,5.37,0,0,1-4.51,2.27c-4.16,0-6.82-3.46-6.82-7.43s2.66-7.32,6.72-7.32a5.77,5.77,0,0,1,4.61,2.2v-1.75h3.9V151.5Zm-3.46-10.82a3.89,3.89,0,1,0,3.88,3.88A3.87,3.87,0,0,0,120.78,140.68Z"/><path class="cls-1" d="M148.37,152a5.55,5.55,0,0,1-4.64-2.27v9.21h-3.87V137.65h3.87v1.75a5.52,5.52,0,0,1,4.54-2.2c4.13,0,6.85,3.42,6.85,7.39S152.43,152,148.37,152Zm-1.15-11.27a3.89,3.89,0,1,0,3.87,3.88A3.87,3.87,0,0,0,147.22,140.68Z"/><path class="cls-1" d="M168.66,151.5v-1.82a5.37,5.37,0,0,1-4.52,2.27c-4.16,0-6.81-3.46-6.81-7.43s2.65-7.32,6.72-7.32a5.77,5.77,0,0,1,4.61,2.2v-1.75h3.9V151.5Zm-3.46-10.82a3.89,3.89,0,1,0,3.87,3.88A3.87,3.87,0,0,0,165.2,140.68Zm-.54-5.47a2.88,2.88,0,0,1,0-5.76,2.88,2.88,0,0,1,0,5.76Zm0-4a1.12,1.12,0,1,0,1.12,1.12A1.09,1.09,0,0,0,164.66,131.21Z"/><path class="cls-1" d="M188.69,152a7.36,7.36,0,0,1-5.28-2.31l2.05-2.36a4.52,4.52,0,0,0,3.26,1.63,1.63,1.63,0,0,0,1.76-1.54c0-2.37-6.18-1.18-6.18-5.85,0-2.82,2.34-4.39,5-4.39a7.19,7.19,0,0,1,4.52,1.47l-1.92,2.28a3.84,3.84,0,0,0-2.31-.93c-.67,0-1.47.41-1.47,1.18,0,2,6.4,1.12,6.4,5.86C194.48,150.22,191.66,152,188.69,152Z"/><path class="cls-1" d="M200.46,145.2c.07,2.14,1.09,3.71,3.4,3.71a3.62,3.62,0,0,0,3.29-1.86l3.58.58c-1.21,3-3.67,4.32-6.81,4.32-4.48,0-7.42-2.88-7.42-7.39s2.81-7.36,7.26-7.36,7.07,3.07,7.07,7.48v.52Zm3.36-5.25a3.14,3.14,0,0,0-3.23,2.78h6.56A3.2,3.2,0,0,0,203.82,140Z"/><path class="cls-1" d="M223.28,151.5v-7.68c0-1.89-.42-3.33-2.63-3.33-2.39,0-3,1.76-3,3.84v7.17h-3.87V137.65h3.87v1.69A5.12,5.12,0,0,1,222,137.2a4.78,4.78,0,0,1,5.12,5.5v8.8Z"/><path class="cls-1" d="M241.46,151.5v-1.82a5.37,5.37,0,0,1-4.52,2.27c-4.16,0-6.81-3.46-6.81-7.43s2.65-7.32,6.72-7.32a5.77,5.77,0,0,1,4.61,2.2v-1.75h3.9V151.5ZM238,140.68a3.89,3.89,0,1,0,3.87,3.88A3.87,3.87,0,0,0,238,140.68Z"/><path class="cls-1" d="M253.49,152a7.36,7.36,0,0,1-5.28-2.31l2-2.36a4.56,4.56,0,0,0,3.27,1.63,1.63,1.63,0,0,0,1.76-1.54c0-2.37-6.18-1.18-6.18-5.85,0-2.82,2.34-4.39,5-4.39a7.14,7.14,0,0,1,4.51,1.47l-1.92,2.28a3.81,3.81,0,0,0-2.3-.93c-.67,0-1.47.41-1.47,1.18,0,2,6.4,1.12,6.4,5.86C259.28,150.22,256.46,152,253.49,152Z"/><path class="cls-1" d="M265.93,141V151.5h-3.87V141h-1.53v-3.32h1.53v-4.74h3.87v4.74h2.72V141Z"/><path class="cls-1" d="M88.48,189c-4,0-7.45-2.56-7.68-6.68H85a3.28,3.28,0,0,0,3.52,3,3.4,3.4,0,0,0,.1-6.79,5,5,0,0,0-.77.07v-3a3.76,3.76,0,0,0,.58,0,2.9,2.9,0,0,0,.09-5.79c-1.82,0-2.68,1.12-2.91,2.81H81.67c.6-4,3.07-6.11,7.13-6.11,3.55,0,6.5,2.12,6.5,5.89A4.76,4.76,0,0,1,92.83,177a5.26,5.26,0,0,1,3.27,5.25C96.1,186.64,92.54,189,88.48,189Z"/><path class="cls-1" d="M105.44,188.5V170.8h-3.07v-3.64h7.23V188.5Z"/><path class="cls-1" d="M133.38,189c-4.42,0-7.94-2.75-7.94-7.36s3.52-7.39,8-7.39,7.87,2.78,7.87,7.36S137.76,189,133.38,189Zm0-11.27a3.89,3.89,0,1,0,3.94,3.91A3.92,3.92,0,0,0,133.34,177.68Z"/><path class="cls-1" d="M153.76,188.5l-5.22-5.95-.41.41v5.54h-3.87v-24h3.87V179.7l5.18-5.06h5.25l-6.5,6.08,7,7.78Z"/><path class="cls-1" d="M164.7,178V188.5h-3.87V178H159.3v-3.33h1.53v-4.73h3.87v4.73h2.72V178Z"/><path class="cls-1" d="M176.64,189c-4.42,0-7.94-2.75-7.94-7.36s3.52-7.39,8-7.39,7.87,2.78,7.87,7.36S181,189,176.64,189Zm0-11.27a3.89,3.89,0,1,0,3.93,3.91A3.92,3.92,0,0,0,176.61,177.68Z"/><path class="cls-1" d="M195.94,189a5.48,5.48,0,0,1-4.55-2.27v1.82h-3.87v-24h3.87V176.4a5.89,5.89,0,0,1,4.64-2.2c4.06,0,6.75,3.45,6.75,7.32S200.09,189,195.94,189Zm-1.06-11.27a3.89,3.89,0,1,0,3.87,3.88A3.86,3.86,0,0,0,194.88,177.68Z"/><path class="cls-1" d="M209,182.2c.06,2.14,1.09,3.71,3.39,3.71a3.64,3.64,0,0,0,3.3-1.86l3.58.58c-1.22,3-3.68,4.32-6.82,4.32-4.48,0-7.42-2.88-7.42-7.39s2.82-7.36,7.26-7.36,7.08,3.07,7.08,7.48v.52Zm3.36-5.25a3.14,3.14,0,0,0-3.23,2.78h6.56A3.22,3.22,0,0,0,212.32,177Z"/><path class="cls-1" d="M231.36,178.16a3.45,3.45,0,0,0-1.86-.48c-2.62,0-3.33,1.86-3.33,4.16v6.66H222.3V174.64h3.87v2.08a4.47,4.47,0,0,1,4-2.52,4.3,4.3,0,0,1,1.69.32Z"/><path class="cls-1" d="M236,188.92a2.5,2.5,0,1,1,2.49-2.5A2.5,2.5,0,0,1,236,188.92Zm-2-6.53V167.16h4v15.23Z"/></svg>