<svg id="Layer_1" data-name="Layer 1" xmlns="http://www.w3.org/2000/svg" viewBox="0 0 320 320"><defs><style>.cls-1{fill:#d80201;}</style></defs><title>text</title><path class="cls-1" d="M129,148.12l-14.21-16.24v15.79h-4.55V123.79h3.15L127.57,140V124.32h4.55v23.8Z"/><path class="cls-1" d="M141.22,155.79h-4.8l5.57-10.4-7.18-12.88h4.94l4.55,8.61,4.34-8.61h4.83Z"/><path class="cls-1" d="M165.89,147.67v-8.3c0-2.1-.45-3.75-2.9-3.75-2.63,0-3.22,2-3.22,4.28v7.77h-4.24V121.45h4.24v13a5.5,5.5,0,0,1,4.76-2.45,5.8,5.8,0,0,1,4.41,1.85,6.05,6.05,0,0,1,1.19,4.28v9.52Z"/><path class="cls-1" d="M177.72,140.77c.07,2.35,1.19,4.06,3.71,4.06a4,4,0,0,0,3.61-2l3.92.63c-1.33,3.26-4,4.73-7.46,4.73-4.9,0-8.12-3.15-8.12-8.09s3.08-8,8-8,7.73,3.36,7.73,8.19v.56ZM181.4,135a3.44,3.44,0,0,0-3.54,3.05H185A3.52,3.52,0,0,0,181.4,135Z"/><path class="cls-1" d="M196.59,136.15v11.52h-4.24V136.15h-1.68v-3.64h1.68v-5.18h4.24v5.18h3v3.64Z"/><path class="cls-1" d="M204.11,148.12a2.73,2.73,0,1,1,2.73-2.73A2.73,2.73,0,0,1,204.11,148.12ZM201.94,141V124.32h4.34V141Z"/><path class="cls-1" d="M30.08,190.67,37,182.86c1.89-2.13,5.36-5.67,5.36-8.65a3.49,3.49,0,0,0-3.54-3.46c-2.31,0-3.39,1.71-3.46,3.85H30.46c.32-4.73,3.4-7.88,8.19-7.88,4.38,0,8.23,2.87,8.23,7.49,0,3.26-2.14,5.92-4.24,8.16l-4.06,4.34h8.47v4Z"/><path class="cls-1" d="M49.33,184.4v-3.57H57.2v3.57Z"/><path class="cls-1" d="M61.3,171.66a2.56,2.56,0,1,1,0-5.11,2.56,2.56,0,0,1,0,5.11Zm-2.14,19V175.51H63.4v15.16Z"/><path class="cls-1" d="M77.75,190.67v-8.4c0-2.07-.46-3.64-2.87-3.64-2.63,0-3.26,1.92-3.26,4.2v7.84H67.39V175.51h4.23v1.86A5.57,5.57,0,0,1,76.38,175a5.23,5.23,0,0,1,5.6,6v9.63Z"/><path class="cls-1" d="M84,184.4v-3.57h7.88v3.57Z"/><path class="cls-1" d="M99.83,190.67V171.31H96.47v-4h7.91v23.35Z"/><path class="cls-1" d="M132.87,190.67v-8.3c0-2.1-.45-3.74-2.9-3.74-2.63,0-3.22,2-3.22,4.27v7.77h-4.24V164.45h4.24v13a5.52,5.52,0,0,1,4.76-2.45,5.78,5.78,0,0,1,4.41,1.86,6,6,0,0,1,1.19,4.27v9.52Z"/><path class="cls-1" d="M148.48,191.16c-4.16,0-7.31-1.86-7.31-6.37v-9.28h4.23v8.58c0,2.06.88,3.46,3.08,3.46s3.08-1.4,3.08-3.46v-8.58h4.27v9.28C155.83,189.3,152.65,191.16,148.48,191.16Z"/><path class="cls-1" d="M164.72,191.16a8.1,8.1,0,0,1-5.78-2.52l2.25-2.59a4.92,4.92,0,0,0,3.57,1.78,1.78,1.78,0,0,0,1.92-1.68c0-2.59-6.75-1.29-6.75-6.4,0-3.08,2.55-4.8,5.42-4.8a7.83,7.83,0,0,1,4.94,1.61l-2.1,2.48a4.31,4.31,0,0,0-2.52-1c-.74,0-1.61.46-1.61,1.3,0,2.2,7,1.22,7,6.4C171.06,189.27,168,191.16,164.72,191.16Z"/><path class="cls-1" d="M184.46,190.67l-5.7-6.51-.46.45v6.06h-4.24V164.45h4.24V181l5.67-5.53h5.74l-7.1,6.65,7.66,8.51Z"/><path class="cls-1" d="M202.94,190.67v-2a5.84,5.84,0,0,1-4.93,2.49c-4.55,0-7.46-3.78-7.46-8.12s2.91-8,7.35-8a6.32,6.32,0,0,1,5,2.41v-1.92h4.27v15.16Zm-3.78-11.84a4.26,4.26,0,1,0,4.24,4.24A4.23,4.23,0,0,0,199.16,178.83Z"/><path class="cls-1" d="M215.54,179.15v11.52H211.3V179.15h-1.68v-3.64h1.68v-5.18h4.24v5.18h3v3.64Z"/><path class="cls-1" d="M232.31,190.67v-2a5.86,5.86,0,0,1-4.94,2.49c-4.55,0-7.46-3.78-7.46-8.12s2.91-8,7.35-8a6.34,6.34,0,0,1,5.05,2.41v-1.92h4.27v15.16Zm-3.78-11.84a4.26,4.26,0,1,0,4.23,4.24A4.24,4.24,0,0,0,228.53,178.83Z"/><path class="cls-1" d="M240.63,190.67V164.45h4.24v26.22Z"/><path class="cls-1" d="M256.8,191.16c-4.83,0-8.68-3-8.68-8S252,175,256.84,175s8.61,3,8.61,8S261.6,191.16,256.8,191.16Zm0-12.33a4.26,4.26,0,1,0,4.31,4.28A4.29,4.29,0,0,0,256.77,178.83Z"/><path class="cls-1" d="M282.77,196.16a8.24,8.24,0,0,1-6.44,2.66c-3.88,0-7.63-2.24-8.05-6.37h4.59a3.36,3.36,0,0,0,3.6,2.77c2.66,0,3.75-1.86,3.75-4.31v-2.27a6.33,6.33,0,0,1-5.11,2.52c-4.48,0-7.21-3.61-7.21-7.88s2.8-8.26,7.42-8.26a5.68,5.68,0,0,1,4.9,2.45v-2h4.27v14.6C284.49,192.49,284.38,194.27,282.77,196.16Zm-6.26-17.33a4.26,4.26,0,1,0,4.23,4.24A4.24,4.24,0,0,0,276.51,178.83Z"/></svg>