<svg id="Layer_1" data-name="Layer 1" xmlns="http://www.w3.org/2000/svg" viewBox="0 0 320 160"><defs><style>.cls-1{fill:#d4ac76;}</style></defs><title>text</title><path class="cls-1" d="M184,52.18V40.58h3.82a3.5,3.5,0,0,1,2.54,1,3.2,3.2,0,0,1,1,2.39,2.73,2.73,0,0,1-1.3,2.33,3.22,3.22,0,0,1,1.28,1,2.45,2.45,0,0,1,.48,1.47,3.18,3.18,0,0,1-1,2.46,3.63,3.63,0,0,1-2.56.94Zm3.56-9.66H186v2.91h1.73a1.59,1.59,0,0,0,1.15-.43,1.42,1.42,0,0,0,.44-1.07,1.24,1.24,0,0,0-.49-1A2,2,0,0,0,187.58,42.52Zm.33,4.65H186v3.08h1.84a1.88,1.88,0,0,0,1.31-.44,1.45,1.45,0,0,0,.48-1.12,1.43,1.43,0,0,0-.45-1.1A1.85,1.85,0,0,0,187.91,47.17Z"/><path class="cls-1" d="M201.77,47.27h-4.29v3h4.71v1.93h-6.89V40.58h6.75v1.93h-4.57v2.82h4.29Z"/><path class="cls-1" d="M208.8,52.33a5.56,5.56,0,0,1-2.19-.46,5.72,5.72,0,0,1-1.88-1.27L206.12,49a4.21,4.21,0,0,0,1.28,1,3.28,3.28,0,0,0,1.53.41,1.87,1.87,0,0,0,1.24-.4,1.24,1.24,0,0,0,.48-1,1.73,1.73,0,0,0-1.27-1.61l-1.29-.52a5,5,0,0,1-1.93-1.28,3,3,0,0,1-.62-2,3,3,0,0,1,1-2.2,3.36,3.36,0,0,1,2.46-1,5,5,0,0,1,3.57,1.32l-1.28,1.62a3,3,0,0,0-2.29-1,1.55,1.55,0,0,0-1,.33,1,1,0,0,0-.39.82,1.09,1.09,0,0,0,.31.79,3.07,3.07,0,0,0,1,.6l1.35.54a3.59,3.59,0,0,1,2.63,3.35,3.24,3.24,0,0,1-1.09,2.54A4.22,4.22,0,0,1,208.8,52.33Z"/><path class="cls-1" d="M227.62,46.37a6,6,0,1,1-1.76-4.25A5.77,5.77,0,0,1,227.62,46.37Zm-8.75,2.77a3.81,3.81,0,0,0,5.45,0,4,4,0,0,0,0-5.55,3.81,3.81,0,0,0-5.45,0,4,4,0,0,0,0,5.55Zm1.71-9.75a.94.94,0,0,1-.71.31,1,1,0,0,1-.72-.31,1,1,0,0,1-.3-.74,1,1,0,0,1,1-1,1,1,0,0,1,.7.3,1,1,0,0,1,.3.73A1,1,0,0,1,220.58,39.39Zm3.45,0a1.11,1.11,0,0,1-1.54,0,1,1,0,0,1-.32-.74,1,1,0,0,1,.32-.73,1.13,1.13,0,0,1,1.54,0,1,1,0,0,1,.32.73A1,1,0,0,1,224,39.39Z"/><path class="cls-1" d="M230.95,52.18V40.58h2v5.11l4.44-5.11h2.68L236,45.21l4.18,7h-2.5l-3.16-5.29L233,48.64v3.54Z"/><path class="cls-1" d="M143.88,70.18l-4.43-11.59h2.26l3.18,8.34L148,58.58h2.2l-4.39,11.59Z"/><path class="cls-1" d="M153,70.18V58.58h2.18V70.18Z"/><path class="cls-1" d="M159.29,70.18V58.58h2.17v9.51h4.26v2.08Z"/><path class="cls-1" d="M168.86,70.18V58.58H171v9.51h4.26v2.08Z"/><path class="cls-1" d="M177.31,70.18l4.47-11.59h2l4.46,11.59H186l-.62-1.61h-5.19l-.62,1.61Zm5.46-8.35-1.86,4.81h3.7Z"/><path class="cls-1" d="M197.09,70.18V58.58h2.1l3.59,5.71,3.63-5.71h2.28V70.18h-2.17V62.24l-.17,0-3.6,5.55-3.51-5.48h0v7.89Z"/><path class="cls-1" d="M223.93,64.37a6,6,0,1,1-1.76-4.25A5.77,5.77,0,0,1,223.93,64.37Zm-8.75,2.77a3.81,3.81,0,0,0,5.45,0,4,4,0,0,0,0-5.55,3.81,3.81,0,0,0-5.45,0,4,4,0,0,0,0,5.55Zm1.71-9.75a.94.94,0,0,1-.71.31,1,1,0,0,1-.72-.31,1,1,0,0,1-.3-.74,1,1,0,0,1,1-1,1,1,0,0,1,.7.3,1,1,0,0,1,.3.73A1,1,0,0,1,216.89,57.39Zm3.45,0a1.12,1.12,0,0,1-1.54,0,1,1,0,0,1-.32-.74,1,1,0,0,1,.32-.73,1.13,1.13,0,0,1,1.54,0,1,1,0,0,1,.32.73A1,1,0,0,1,220.34,57.39Z"/><path class="cls-1" d="M227.26,70.18V58.58h4.54a3.91,3.91,0,0,1,2.79,1.05,3.61,3.61,0,0,1,1.12,2.75,3.48,3.48,0,0,1-.83,2.35A3.73,3.73,0,0,1,232.71,66l3.12,4.21h-2.45l-3-4.14h-.94v4.14Zm4.2-9.66h-2V64.3h2a2.15,2.15,0,0,0,1.51-.51,1.73,1.73,0,0,0,.56-1.34,1.83,1.83,0,0,0-.58-1.37A2.07,2.07,0,0,0,231.46,60.52Z"/><path class="cls-1" d="M237.94,60.67V58.58h9.56v2.08H243.8v9.51h-2.17V60.67Z"/><path class="cls-1" d="M250.27,70.18V58.58h1.52l5.71,7.29V58.58h2.17V70.18h-1.46l-5.78-7.38v7.38Z"/><path class="cls-1" d="M262.54,70.18,267,58.58h2l4.46,11.59h-2.24l-.62-1.61h-5.19l-.62,1.61ZM267,57.39a.93.93,0,0,1-.71.31,1,1,0,0,1-.72-.31,1,1,0,0,1-.3-.74,1,1,0,0,1,1-1,1,1,0,0,1,.7.3,1,1,0,0,1,.3.73A1,1,0,0,1,267,57.39Zm1,4.44-1.85,4.81h3.7Zm2.45-4.44a1.12,1.12,0,0,1-1.54,0,1,1,0,0,1-.32-.74,1,1,0,0,1,.32-.73,1.13,1.13,0,0,1,1.54,0,1,1,0,0,1,.32.73A1,1,0,0,1,270.44,57.39Z"/><path class="cls-1" d="M279.42,70.33a5.56,5.56,0,0,1-2.19-.46,5.7,5.7,0,0,1-1.88-1.27L276.73,67A4.2,4.2,0,0,0,278,68a3.27,3.27,0,0,0,1.53.41,1.88,1.88,0,0,0,1.24-.4,1.24,1.24,0,0,0,.48-1A1.73,1.73,0,0,0,280,65.39l-1.29-.52a5,5,0,0,1-1.93-1.28,3,3,0,0,1-.62-2,3,3,0,0,1,1-2.2,3.36,3.36,0,0,1,2.46-1,5,5,0,0,1,3.57,1.33l-1.28,1.62a3,3,0,0,0-2.29-1,1.55,1.55,0,0,0-1,.33,1,1,0,0,0-.39.82,1.08,1.08,0,0,0,.31.79,3.08,3.08,0,0,0,1,.6l1.35.54a3.59,3.59,0,0,1,2.63,3.35,3.24,3.24,0,0,1-1.09,2.54A4.22,4.22,0,0,1,279.42,70.33Z"/></svg>