<svg id="Layer_1" data-name="Layer 1" xmlns="http://www.w3.org/2000/svg" viewBox="0 0 320 160"><defs><style>.cls-1{fill:#d80201;}</style></defs><title>text</title><path class="cls-1" d="M154.69,117v-8h.89v7.17h2.21V117Z"/><path class="cls-1" d="M162.56,117v-.7a2.13,2.13,0,0,1-1.73.84,2.47,2.47,0,0,1-2.4-2.65,2.42,2.42,0,0,1,2.39-2.59,2.1,2.1,0,0,1,1.74.83V112h.85v5ZM161,112.62a1.7,1.7,0,0,0-1.64,1.82,1.72,1.72,0,0,0,1.64,1.87,1.7,1.7,0,0,0,1.65-1.87A1.68,1.68,0,0,0,161,112.62Z"/><path class="cls-1" d="M168.18,117V114c0-.78-.11-1.39-1-1.39-1.1,0-1.24,1-1.24,1.83V117H165v-5h.85v.6a1.8,1.8,0,0,1,2.86,0,2.28,2.28,0,0,1,.29,1.32V117Z"/><path class="cls-1" d="M171.54,112.77V117h-.86v-4.19h-.52V112h.52v-1.8h.86V112h.88v.79Z"/><path class="cls-1" d="M174.25,116.16h3.43V117h-5.16l3.6-4.19h-2.93V112h4.64Z"/><path class="cls-1" d="M183.49,117.28,181,112h1l1.49,3.35L185,112h1Z"/><path class="cls-1" d="M190.64,117v-.7a2.12,2.12,0,0,1-1.73.84,2.47,2.47,0,0,1-2.4-2.65,2.42,2.42,0,0,1,2.39-2.59,2.1,2.1,0,0,1,1.74.83V112h.85v5ZM189,112.62a1.7,1.7,0,0,0-1.64,1.82,1.72,1.72,0,0,0,1.64,1.87,1.7,1.7,0,0,0,1.66-1.87A1.68,1.68,0,0,0,189,112.62ZM188,111a.61.61,0,0,1-.6-.6.6.6,0,1,1,.6.6Zm2.09,0a.61.61,0,0,1-.6-.6.6.6,0,1,1,.6.6Z"/><path class="cls-1" d="M197.31,118.8a2.41,2.41,0,0,1-2,.92,2.24,2.24,0,0,1-2.42-2.28h.85a1.49,1.49,0,0,0,1.58,1.51c1.2,0,1.6-.9,1.6-2v-.73a2.25,2.25,0,0,1-1.75.83,2.63,2.63,0,0,1,0-5.23,2.13,2.13,0,0,1,1.72.82V112h.86v4.87A3,3,0,0,1,197.31,118.8Zm-2-6.18a1.71,1.71,0,0,0-1.63,1.88,1.68,1.68,0,0,0,1.63,1.81,1.86,1.86,0,0,0,0-3.69Z"/><path class="cls-1" d="M205.66,114.25,204,116.13h3.36V117h-5.17l2.91-3.37c.54-.62,1.38-1.52,1.38-2.39a1.6,1.6,0,0,0-3.19.1h-.9a3.31,3.31,0,0,1,.17-.9,2.5,2.5,0,0,1,4.81.82C207.39,112.41,206.41,113.42,205.66,114.25Z"/><path class="cls-1" d="M209.26,118.78l-.56-.23,1-2.77.79.29Z"/><path class="cls-1" d="M215.18,117v-8h4.14v.84h-3.25v2.38h3.17V113h-3.17v3.13h3.25V117Z"/><path class="cls-1" d="M223.82,117l-2-2.27-.22.22V117h-.85v-8.74h.85v5.6L223.4,112h1.14l-2.14,2.11,2.53,2.87Z"/><path class="cls-1" d="M226.1,114.64a1.61,1.61,0,0,0,1.58,1.68,1.72,1.72,0,0,0,1.54-1l.72.4a2.48,2.48,0,0,1-2.28,1.42,2.63,2.63,0,0,1,0-5.24,2.38,2.38,0,0,1,2.38,2.62v.17Zm1.54-2a1.53,1.53,0,0,0-1.47,1.28h2.93A1.49,1.49,0,0,0,227.63,112.63Z"/><path class="cls-1" d="M233.88,117.1a2.12,2.12,0,0,1-1.73-.84v.7h-.85v-8.74h.85v4.47a2.14,2.14,0,0,1,1.74-.83,2.44,2.44,0,0,1,2.39,2.6A2.46,2.46,0,0,1,233.88,117.1Zm-.12-4.46a1.68,1.68,0,0,0-1.66,1.84,1.66,1.66,0,1,0,1.66-1.84Z"/><path class="cls-1" d="M238.29,119.76h-1l1.61-3.27L236.65,112h1l1.76,3.56L241,112h1Z"/><path class="cls-1" d="M140.09,132.1a2.44,2.44,0,0,1-2.47-2.06l.86-.24a1.63,1.63,0,0,0,1.63,1.46,1.58,1.58,0,0,0,1.61-1.58c0-1.88-3.69-1.44-3.69-3.79a2.11,2.11,0,0,1,2.24-2.06,2.28,2.28,0,0,1,2.06,1.25l-.71.47a1.48,1.48,0,0,0-1.37-.87,1.27,1.27,0,0,0-1.33,1.22c0,1.66,3.69,1.18,3.69,3.75A2.46,2.46,0,0,1,140.09,132.1Z"/><path class="cls-1" d="M146.36,132.1a2.62,2.62,0,1,1,2.63-2.61A2.6,2.6,0,0,1,146.36,132.1Zm0-4.46a1.84,1.84,0,1,0,1.76,1.85A1.75,1.75,0,0,0,146.34,127.63Zm-1-1.68a.61.61,0,0,1-.6-.6.6.6,0,1,1,.6.6Zm2.09,0a.61.61,0,0,1-.6-.6.6.6,0,1,1,.6.6Z"/><path class="cls-1" d="M153.42,132V129c0-.78-.11-1.39-1-1.39-1.1,0-1.23,1-1.23,1.83V132h-.85v-5h.85v.6a1.8,1.8,0,0,1,2.85,0,2.28,2.28,0,0,1,.29,1.32V132Z"/><path class="cls-1" d="M159.72,132v-.7a2.12,2.12,0,0,1-1.73.84,2.46,2.46,0,0,1-2.4-2.64,2.44,2.44,0,0,1,2.39-2.6,2.14,2.14,0,0,1,1.74.83v-4.47h.85V132Zm-1.61-4.32a1.85,1.85,0,1,0,1.66,1.81A1.67,1.67,0,0,0,158.12,127.63Z"/><path class="cls-1" d="M166,132v-.7a2.12,2.12,0,0,1-1.73.84,2.47,2.47,0,0,1-2.4-2.65,2.42,2.42,0,0,1,2.39-2.59,2.1,2.1,0,0,1,1.74.83V127h.85v5Zm-1.61-4.33a1.7,1.7,0,0,0-1.64,1.82,1.72,1.72,0,0,0,1.64,1.87,1.7,1.7,0,0,0,1.66-1.87A1.68,1.68,0,0,0,164.4,127.62Z"/><path class="cls-1" d="M172.68,133.8a2.41,2.41,0,0,1-2,.92,2.24,2.24,0,0,1-2.42-2.28h.85A1.49,1.49,0,0,0,170.7,134c1.2,0,1.6-.9,1.6-2v-.73a2.25,2.25,0,0,1-1.75.83,2.63,2.63,0,0,1,0-5.23,2.13,2.13,0,0,1,1.72.82V127h.86v4.87A3,3,0,0,1,172.68,133.8Zm-2-6.18a1.71,1.71,0,0,0-1.63,1.88,1.68,1.68,0,0,0,1.63,1.81,1.86,1.86,0,0,0,0-3.69Z"/><path class="cls-1" d="M180.16,132v-7.16h-1.33l.47-.84H181v8Z"/><path class="cls-1" d="M187.25,132.08a2.34,2.34,0,0,1-2.45-2.34,2.09,2.09,0,0,1,1.19-2,2,2,0,0,1-1-1.75,2.24,2.24,0,0,1,4.47,0,2.08,2.08,0,0,1-1,1.76,2.07,2.07,0,0,1,1.16,1.93A2.32,2.32,0,0,1,187.25,132.08Zm0-3.89a1.53,1.53,0,1,0,1.55,1.52A1.54,1.54,0,0,0,187.23,128.2Zm0-3.55a1.39,1.39,0,1,0,1.39,1.39A1.39,1.39,0,0,0,187.25,124.65Z"/><path class="cls-1" d="M200.08,132v-3c0-.64-.11-1.31-.9-1.31s-1.07.84-1.07,1.56V132h-.85v-3c0-.62-.13-1.38-.91-1.38a1,1,0,0,0-.9.54,2.36,2.36,0,0,0-.19,1.08V132h-.85v-5h.85v.53a1.42,1.42,0,0,1,1.24-.65,1.52,1.52,0,0,1,1.37.8,1.7,1.7,0,0,1,2.79-.13,2.33,2.33,0,0,1,.28,1.27V132Z"/><path class="cls-1" d="M206.37,132v-.7a2.12,2.12,0,0,1-1.73.84,2.47,2.47,0,0,1-2.4-2.65,2.42,2.42,0,0,1,2.39-2.59,2.1,2.1,0,0,1,1.74.83V127h.85v5Zm-1.61-4.33a1.7,1.7,0,0,0-1.64,1.82,1.72,1.72,0,0,0,1.64,1.87,1.7,1.7,0,0,0,1.66-1.87A1.68,1.68,0,0,0,204.76,127.62Z"/><path class="cls-1" d="M211.19,127.84a.75.75,0,0,0-.5-.17.92.92,0,0,0-.43.11c-.55.3-.55,1-.55,1.55V132h-.85v-5h.85v.54a1.33,1.33,0,0,1,1.13-.66,1.42,1.42,0,0,1,.77.2Z"/><path class="cls-1" d="M213.73,132.1a1.77,1.77,0,0,1-1.74-1.27l.74-.31c.2.44.48.8,1,.8a.77.77,0,0,0,.82-.78c0-1.08-2.24-.74-2.24-2.29a1.4,1.4,0,0,1,1.45-1.39,1.49,1.49,0,0,1,1.37.9l-.71.37a.8.8,0,0,0-.7-.49.59.59,0,0,0-.6.55c0,.88,2.3.65,2.3,2.28A1.63,1.63,0,0,1,213.73,132.1Z"/><path class="cls-1" d="M222.67,132l-2-2.27-.21.22V132h-.85v-8.74h.85v5.6l1.81-1.83h1.14l-2.14,2.11,2.53,2.87Z"/><path class="cls-1" d="M224.64,132v-8.74h.85V132Z"/><path class="cls-1" d="M232.49,132v-7.16h-1.33l.47-.84h1.75v8Z"/><path class="cls-1" d="M239.29,132v-7.16H238l.47-.84h1.75v8Z"/><path class="cls-1" d="M242.92,129.78V129h2.17v.77Z"/><path class="cls-1" d="M248.27,132v-7.16h-1.33l.47-.84h1.75v8Z"/><path class="cls-1" d="M255,132.08a2.49,2.49,0,0,1-1.85-.79,2.11,2.11,0,0,1-.53-1.42h.86a1.53,1.53,0,0,0,.28.78,1.61,1.61,0,0,0,1.26.6,1.56,1.56,0,0,0,1.57-1.59c0-1-.73-1.51-1.7-1.51v-.78a1.84,1.84,0,0,0,.95-.19,1.38,1.38,0,1,0-1.82-2,1.94,1.94,0,0,0-.26.77h-.88a2.11,2.11,0,0,1,2.23-2.1,2.14,2.14,0,0,1,2.25,2.15,2,2,0,0,1-1,1.77,2,2,0,0,1,1.15,1.93A2.37,2.37,0,0,1,255,132.08Z"/></svg>