<svg id="Layer_1" data-name="Layer 1" xmlns="http://www.w3.org/2000/svg" viewBox="0 0 320 160"><defs><style>.cls-1{fill:#d80201;}</style></defs><title>text</title><path class="cls-1" d="M116,117v-7.34h.81v6.58h2V117Z"/><path class="cls-1" d="M121.81,117.08a2.4,2.4,0,1,1,2.41-2.4A2.39,2.39,0,0,1,121.81,117.08Zm0-4.09a1.69,1.69,0,1,0,1.62,1.69A1.6,1.6,0,0,0,121.8,113Z"/><path class="cls-1" d="M128.63,116.51a2,2,0,0,1-2.79,0,1.87,1.87,0,0,1-.42-1.37v-2.75h.78V115a1.76,1.76,0,0,0,.14.86,1.08,1.08,0,0,0,1.77,0,1.78,1.78,0,0,0,.14-.86v-2.66H129v2.75A1.86,1.86,0,0,1,128.63,116.51Z"/><path class="cls-1" d="M130.93,111.22a.56.56,0,1,1,.56-.56A.56.56,0,0,1,130.93,111.22Zm-.4,5.73v-4.57h.78V117Z"/><path class="cls-1" d="M134.05,117.08a1.63,1.63,0,0,1-1.6-1.17l.68-.29c.19.41.44.74.92.74a.71.71,0,0,0,.75-.72c0-1-2.06-.68-2.06-2.1a1.28,1.28,0,0,1,1.33-1.28,1.37,1.37,0,0,1,1.25.83l-.65.34a.73.73,0,0,0-.64-.45.54.54,0,0,0-.55.51c0,.8,2.11.59,2.11,2.09A1.5,1.5,0,0,1,134.05,117.08Z"/><path class="cls-1" d="M137.2,114.83a1.48,1.48,0,0,0,1.45,1.54,1.57,1.57,0,0,0,1.41-.95l.66.36a2.28,2.28,0,0,1-2.09,1.3,2.41,2.41,0,0,1,0-4.81,2.18,2.18,0,0,1,2.18,2.4v.15ZM138.6,113a1.4,1.4,0,0,0-1.35,1.18h2.68A1.37,1.37,0,0,0,138.6,113Z"/><path class="cls-1" d="M144.32,117.08a2,2,0,0,1-1.58-.77V117H142v-8h.78V113a2,2,0,0,1,1.6-.76,2.24,2.24,0,0,1,2.19,2.39A2.26,2.26,0,0,1,144.32,117.08Zm-.11-4.09a1.54,1.54,0,0,0-1.52,1.68,1.52,1.52,0,1,0,1.52-1.68Z"/><path class="cls-1" d="M148.25,114.83a1.48,1.48,0,0,0,1.45,1.54,1.57,1.57,0,0,0,1.41-.95l.66.36a2.28,2.28,0,0,1-2.09,1.3,2.41,2.41,0,0,1,0-4.81,2.18,2.18,0,0,1,2.18,2.4v.15Zm1.41-1.84a1.4,1.4,0,0,0-1.35,1.18H151A1.37,1.37,0,0,0,149.66,113Z"/><path class="cls-1" d="M155.16,113.18a.69.69,0,0,0-.46-.15.85.85,0,0,0-.4.1c-.51.28-.51.92-.51,1.42V117H153v-4.57h.78v.49a1.22,1.22,0,0,1,1-.6,1.3,1.3,0,0,1,.7.19Z"/><path class="cls-1" d="M159.95,118.65a2.22,2.22,0,0,1-1.83.85,2.06,2.06,0,0,1-2.22-2.09h.78a1.36,1.36,0,0,0,1.45,1.39c1.1,0,1.46-.83,1.46-1.8v-.67a2.06,2.06,0,0,1-1.61.76,2.41,2.41,0,0,1,0-4.8,2,2,0,0,1,1.57.75v-.64h.79v4.47A2.78,2.78,0,0,1,159.95,118.65ZM158.11,113a1.57,1.57,0,0,0-1.5,1.73,1.54,1.54,0,0,0,1.5,1.66,1.7,1.7,0,0,0,0-3.39Z"/><path class="cls-1" d="M163.11,117.08a1.63,1.63,0,0,1-1.59-1.17l.68-.29c.19.41.44.74.92.74a.71.71,0,0,0,.75-.72c0-1-2.06-.68-2.06-2.1a1.28,1.28,0,0,1,1.33-1.28,1.37,1.37,0,0,1,1.25.83l-.65.34a.73.73,0,0,0-.64-.45.54.54,0,0,0-.55.51c0,.8,2.11.59,2.11,2.09A1.5,1.5,0,0,1,163.11,117.08Z"/><path class="cls-1" d="M167.31,117.25l-2.25-4.86h.88l1.37,3.07,1.35-3.07h.88Z"/><path class="cls-1" d="M170.43,117.06a.54.54,0,1,1,.54-.54A.54.54,0,0,1,170.43,117.06Z"/><path class="cls-1" d="M177.33,117v-6.57h-1.22l.43-.77h1.61V117Z"/><path class="cls-1" d="M181.94,117.13l-.64-.43,4.16-6.32h-4v-.77h5.4Z"/><path class="cls-1" d="M187.67,118.63l-.52-.21.9-2.54.73.26Z"/><path class="cls-1" d="M195,117.08a2.24,2.24,0,0,1-2.27-1.89l.79-.22a1.49,1.49,0,0,0,1.5,1.34,1.45,1.45,0,0,0,1.47-1.45c0-1.73-3.39-1.32-3.39-3.48a1.94,1.94,0,0,1,2.06-1.89,2.09,2.09,0,0,1,1.89,1.14l-.65.43a1.36,1.36,0,0,0-1.25-.8,1.16,1.16,0,0,0-1.22,1.12c0,1.52,3.39,1.08,3.39,3.44A2.26,2.26,0,0,1,195,117.08Z"/><path class="cls-1" d="M199.37,113.11V117h-.79v-3.84h-.47v-.73h.47v-1.65h.79v1.65h.8v.73Z"/><path class="cls-1" d="M203.05,117.08a2.4,2.4,0,1,1,2.41-2.4A2.39,2.39,0,0,1,203.05,117.08Zm0-4.09a1.69,1.69,0,1,0,1.62,1.69A1.6,1.6,0,0,0,203,113Z"/><path class="cls-1" d="M208.8,113.18a.69.69,0,0,0-.46-.15.85.85,0,0,0-.4.1c-.51.28-.51.92-.51,1.42V117h-.78v-4.57h.78v.49a1.22,1.22,0,0,1,1-.6,1.3,1.3,0,0,1,.71.19Z"/><path class="cls-1" d="M213.27,117v-.64a2,2,0,0,1-1.58.77,2.26,2.26,0,0,1-2.2-2.43,2.22,2.22,0,0,1,2.19-2.38,1.93,1.93,0,0,1,1.59.76v-.65h.78V117Zm-1.47-4a1.56,1.56,0,0,0-1.51,1.67,1.52,1.52,0,1,0,3,0A1.54,1.54,0,0,0,211.8,113Z"/><path class="cls-1" d="M223.25,116.07a2.75,2.75,0,0,1-4.27,0,2.69,2.69,0,0,1-.47-1.74v-4.72h.81v4.5a2.58,2.58,0,0,0,.25,1.41,1.85,1.85,0,0,0,1.54.79,1.87,1.87,0,0,0,1.55-.79,2.69,2.69,0,0,0,.24-1.41v-4.5h.82v4.72A2.63,2.63,0,0,1,223.25,116.07Z"/><path class="cls-1" d="M227.81,117.08a2,2,0,0,1-1.59-.77v3.21h-.78v-7.14h.78V113a2,2,0,0,1,1.58-.75,2.26,2.26,0,0,1,2.2,2.42A2.24,2.24,0,0,1,227.81,117.08Zm-.12-4.1a1.57,1.57,0,0,0-1.52,1.72,1.52,1.52,0,1,0,3,0A1.58,1.58,0,0,0,227.69,113Z"/><path class="cls-1" d="M233.58,117.08a2,2,0,0,1-1.59-.77v3.21h-.78v-7.14H232V113a2,2,0,0,1,1.58-.75,2.26,2.26,0,0,1,2.2,2.42A2.24,2.24,0,0,1,233.58,117.08Zm-.12-4.1a1.57,1.57,0,0,0-1.52,1.72,1.52,1.52,0,1,0,3,0A1.58,1.58,0,0,0,233.46,113Z"/><path class="cls-1" d="M240.45,117v-.64a2,2,0,0,1-1.58.77,2.26,2.26,0,0,1-2.2-2.43,2.22,2.22,0,0,1,2.19-2.38,1.93,1.93,0,0,1,1.6.76v-.65h.78V117ZM239,113a1.56,1.56,0,0,0-1.51,1.67,1.58,1.58,0,0,0,1.51,1.72,1.56,1.56,0,0,0,1.52-1.72A1.54,1.54,0,0,0,239,113Zm0-1.5a.95.95,0,1,1,.95-.95A.94.94,0,0,1,239,111.49Zm0-1.41a.46.46,0,1,0,.46.46A.46.46,0,0,0,239,110.08Z"/><path class="cls-1" d="M245.56,117l-1.85-2.08-.2.2V117h-.78v-8h.78v5.14l1.66-1.68h1l-2,1.94,2.32,2.63Z"/><path class="cls-1" d="M249.5,113.18A.69.69,0,0,0,249,113a.85.85,0,0,0-.4.1c-.51.28-.51.92-.51,1.42V117h-.78v-4.57h.78v.49a1.22,1.22,0,0,1,1-.6,1.3,1.3,0,0,1,.7.19Z"/><path class="cls-1" d="M254,117v-.64a2,2,0,0,1-1.58.77,2.26,2.26,0,0,1-2.2-2.43,2.22,2.22,0,0,1,2.19-2.38A1.93,1.93,0,0,1,254,113v-.65h.78V117Zm-1.47-4a1.56,1.56,0,0,0-1.51,1.67,1.52,1.52,0,1,0,3,0A1.54,1.54,0,0,0,252.5,113Z"/><path class="cls-1" d="M256.28,118.63l-.52-.21.9-2.54.73.26Z"/><path class="cls-1" d="M261.7,117v-7.34h.81v6.58h2V117Z"/><path class="cls-1" d="M268.64,116.51a2,2,0,0,1-2.79,0,1.87,1.87,0,0,1-.42-1.37v-2.75h.78V115a1.75,1.75,0,0,0,.14.86,1.08,1.08,0,0,0,1.77,0,1.77,1.77,0,0,0,.14-.86v-2.66h.78v2.75A1.86,1.86,0,0,1,268.64,116.51Z"/><path class="cls-1" d="M273.42,117v-2.7c0-.72-.1-1.28-1-1.28-1,0-1.13.88-1.13,1.68V117h-.78v-4.57h.78v.55a1.65,1.65,0,0,1,2.62,0,2.09,2.09,0,0,1,.26,1.21V117Z"/><path class="cls-1" d="M279.19,117v-.64a2,2,0,0,1-1.58.77,2.26,2.26,0,0,1-2.2-2.42,2.24,2.24,0,0,1,2.19-2.39,2,2,0,0,1,1.59.76v-4.1H280v8Zm-1.47-4a1.7,1.7,0,1,0,1.52,1.66A1.53,1.53,0,0,0,277.72,113Z"/><path class="cls-1" d="M133.32,132.1a2.45,2.45,0,0,1-2.47-2.06l.86-.24a1.63,1.63,0,0,0,1.63,1.46,1.58,1.58,0,0,0,1.61-1.58c0-1.88-3.69-1.44-3.69-3.79a2.11,2.11,0,0,1,2.24-2.06,2.28,2.28,0,0,1,2.06,1.25l-.71.47a1.48,1.48,0,0,0-1.37-.87,1.27,1.27,0,0,0-1.33,1.22c0,1.66,3.69,1.18,3.69,3.75A2.46,2.46,0,0,1,133.32,132.1Z"/><path class="cls-1" d="M139.59,132.1a2.62,2.62,0,1,1,2.63-2.61A2.6,2.6,0,0,1,139.59,132.1Zm0-4.46a1.84,1.84,0,1,0,1.76,1.85A1.75,1.75,0,0,0,139.58,127.63Zm-1-1.68a.61.61,0,0,1-.6-.6.6.6,0,1,1,.6.6Zm2.09,0a.61.61,0,0,1-.6-.6.6.6,0,1,1,.6.6Z"/><path class="cls-1" d="M146.65,132V129c0-.78-.11-1.39-1-1.39-1.1,0-1.24,1-1.24,1.83V132h-.85v-5h.85v.6a1.8,1.8,0,0,1,2.85,0,2.28,2.28,0,0,1,.29,1.32V132Z"/><path class="cls-1" d="M153,132v-.7a2.13,2.13,0,0,1-1.73.84,2.46,2.46,0,0,1-2.4-2.64,2.44,2.44,0,0,1,2.39-2.6,2.14,2.14,0,0,1,1.74.83v-4.47h.85V132Zm-1.61-4.32a1.85,1.85,0,1,0,1.65,1.81A1.67,1.67,0,0,0,151.35,127.63Z"/><path class="cls-1" d="M159.24,132v-.7a2.13,2.13,0,0,1-1.73.84,2.47,2.47,0,0,1-2.4-2.65,2.42,2.42,0,0,1,2.39-2.59,2.1,2.1,0,0,1,1.74.83V127h.85v5Zm-1.61-4.33a1.7,1.7,0,0,0-1.64,1.82,1.72,1.72,0,0,0,1.64,1.87,1.7,1.7,0,0,0,1.66-1.87A1.68,1.68,0,0,0,157.63,127.62Z"/><path class="cls-1" d="M165.91,133.8a2.42,2.42,0,0,1-2,.92,2.24,2.24,0,0,1-2.42-2.28h.85a1.49,1.49,0,0,0,1.58,1.51c1.2,0,1.59-.9,1.59-2v-.73a2.25,2.25,0,0,1-1.75.83,2.63,2.63,0,0,1,0-5.23,2.13,2.13,0,0,1,1.72.82V127h.86v4.87A3,3,0,0,1,165.91,133.8Zm-2-6.18a1.71,1.71,0,0,0-1.63,1.88,1.68,1.68,0,0,0,1.63,1.81,1.86,1.86,0,0,0,0-3.69Z"/><path class="cls-1" d="M174.27,129.25l-1.64,1.87H176V132h-5.17l2.91-3.37c.54-.62,1.38-1.52,1.38-2.39a1.6,1.6,0,1,0-3.19.1H171a3.35,3.35,0,0,1,.17-.9,2.5,2.5,0,0,1,4.81.82C176,127.41,175,128.42,174.27,129.25Z"/><path class="cls-1" d="M181.07,129.25l-1.64,1.87h3.36V132h-5.17l2.92-3.37c.54-.62,1.38-1.52,1.38-2.39a1.6,1.6,0,0,0-3.19.1h-.9a3.27,3.27,0,0,1,.17-.9,2.5,2.5,0,0,1,4.81.82C182.8,127.41,181.81,128.42,181.07,129.25Z"/><path class="cls-1" d="M190,132.1a2.62,2.62,0,1,1,2.63-2.61A2.6,2.6,0,0,1,190,132.1Zm0-4.46a1.84,1.84,0,1,0,1.76,1.85A1.75,1.75,0,0,0,189.94,127.63Z"/><path class="cls-1" d="M197,132l-2-2.27-.22.22V132h-.85v-8.74h.85v5.6l1.81-1.83h1.14l-2.13,2.11,2.53,2.87Z"/><path class="cls-1" d="M199.8,127.77V132h-.86v-4.19h-.52V127h.52v-1.8h.86V127h.88v.79Z"/><path class="cls-1" d="M203.82,132.1a2.62,2.62,0,1,1,2.63-2.61A2.6,2.6,0,0,1,203.82,132.1Zm0-4.46a1.84,1.84,0,1,0,1.76,1.85A1.75,1.75,0,0,0,203.81,127.63Z"/><path class="cls-1" d="M210.34,132.1a2.12,2.12,0,0,1-1.73-.84v.7h-.85v-8.74h.85v4.47a2.14,2.14,0,0,1,1.74-.83,2.44,2.44,0,0,1,2.39,2.6A2.46,2.46,0,0,1,210.34,132.1Zm-.12-4.46a1.68,1.68,0,0,0-1.66,1.84,1.66,1.66,0,1,0,1.66-1.84Z"/><path class="cls-1" d="M214.62,129.64a1.61,1.61,0,0,0,1.58,1.68,1.72,1.72,0,0,0,1.54-1l.72.4a2.48,2.48,0,0,1-2.28,1.42,2.63,2.63,0,0,1,0-5.24,2.38,2.38,0,0,1,2.38,2.62v.17Zm1.54-2a1.53,1.53,0,0,0-1.48,1.28h2.93A1.49,1.49,0,0,0,216.16,127.63Z"/><path class="cls-1" d="M222.16,127.84a.75.75,0,0,0-.5-.17.91.91,0,0,0-.43.11c-.55.3-.55,1-.55,1.55V132h-.85v-5h.85v.54a1.33,1.33,0,0,1,1.13-.66,1.42,1.42,0,0,1,.77.2Z"/><path class="cls-1" d="M229.44,132l-2-2.27-.21.22V132h-.85v-8.74h.85v5.6L229,127h1.14L228,129.09l2.53,2.87Z"/><path class="cls-1" d="M231.41,132v-8.74h.85V132Z"/><path class="cls-1" d="M239.26,132v-7.16h-1.33l.47-.84h1.75v8Z"/><path class="cls-1" d="M246.06,132v-7.16h-1.33l.47-.84h1.75v8Z"/><path class="cls-1" d="M249.69,129.78V129h2.17v.77Z"/><path class="cls-1" d="M255,132v-7.16h-1.33l.47-.84h1.75v8Z"/><path class="cls-1" d="M261.82,132.08a2.49,2.49,0,0,1-1.85-.79,2.11,2.11,0,0,1-.53-1.42h.86a1.53,1.53,0,0,0,.28.78,1.61,1.61,0,0,0,1.26.6,1.56,1.56,0,0,0,1.57-1.59c0-1-.73-1.51-1.7-1.51v-.78a1.84,1.84,0,0,0,.95-.19,1.38,1.38,0,1,0-1.82-2,1.94,1.94,0,0,0-.26.77h-.88a2.11,2.11,0,0,1,2.23-2.1,2.14,2.14,0,0,1,2.25,2.15,2,2,0,0,1-1,1.77,2,2,0,0,1,1.15,1.93A2.37,2.37,0,0,1,261.82,132.08Z"/></svg>