<svg id="Layer_1" data-name="Layer 1" xmlns="http://www.w3.org/2000/svg" viewBox="0 0 320 160"><defs><style>.cls-1{fill:#d4ac76;}</style></defs><title>text</title><path class="cls-1" d="M187.22,51.14a4.73,4.73,0,0,1-6.35,0,4.11,4.11,0,0,1-1.25-3.07V40.58h2.17v7.2a2.66,2.66,0,0,0,.6,1.79,2.31,2.31,0,0,0,3.3,0,2.61,2.61,0,0,0,.6-1.77V40.58h2.17v7.48A4.11,4.11,0,0,1,187.22,51.14Z"/><path class="cls-1" d="M192.35,52.18V40.58h4.16a3.94,3.94,0,0,1,4,4,3.67,3.67,0,0,1-1.18,2.79,4.06,4.06,0,0,1-2.89,1.11h-2v3.69Zm4-9.51h-1.8v3.88h1.83a2.05,2.05,0,0,0,1.46-.52,1.81,1.81,0,0,0,.55-1.39,1.9,1.9,0,0,0-.57-1.43A2,2,0,0,0,196.33,42.67Z"/><path class="cls-1" d="M203.74,52.18V40.58h4.16a3.95,3.95,0,0,1,4,4,3.67,3.67,0,0,1-1.18,2.79,4.05,4.05,0,0,1-2.89,1.11h-2v3.69Zm4-9.51h-1.8v3.88h1.83A2.05,2.05,0,0,0,209.2,46a1.81,1.81,0,0,0,.55-1.39,1.9,1.9,0,0,0-.57-1.43A2,2,0,0,0,207.71,42.67Z"/><path class="cls-1" d="M215.12,52.18V40.58h2.17v9.51h4.26v2.08Z"/><path class="cls-1" d="M231.16,47.27h-4.29v3h4.71v1.93h-6.88V40.58h6.75v1.93h-4.58v2.82h4.29Z"/><path class="cls-1" d="M238.31,52.18l-4.43-11.59h2.26l3.18,8.34,3.15-8.34h2.2l-4.39,11.59Z"/><path class="cls-1" d="M158.73,60.67V58.58h9.55v2.08H164.6v9.51h-2.17V60.67Z"/><path class="cls-1" d="M171.06,70.18V58.58h4.54a3.91,3.91,0,0,1,2.79,1.05,3.61,3.61,0,0,1,1.12,2.75,3.48,3.48,0,0,1-.83,2.35A3.73,3.73,0,0,1,176.51,66l3.11,4.21h-2.44l-3-4.14h-.94v4.14Zm4.2-9.66h-2V64.3h2a2.15,2.15,0,0,0,1.51-.51,1.73,1.73,0,0,0,.56-1.34,1.82,1.82,0,0,0-.58-1.37A2.07,2.07,0,0,0,175.26,60.52Z"/><path class="cls-1" d="M182.9,70.18V58.58h2.17V70.18Z"/><path class="cls-1" d="M192.2,70.18l-4.43-11.59H190l3.18,8.34,3.15-8.34h2.2l-4.39,11.59Z"/><path class="cls-1" d="M203.95,70.33a5.56,5.56,0,0,1-2.19-.46,5.72,5.72,0,0,1-1.88-1.27L201.26,67a4.21,4.21,0,0,0,1.28,1,3.27,3.27,0,0,0,1.53.41,1.88,1.88,0,0,0,1.24-.4,1.24,1.24,0,0,0,.48-1,1.73,1.73,0,0,0-1.27-1.61l-1.29-.52a5,5,0,0,1-1.93-1.28,3,3,0,0,1-.62-2,3,3,0,0,1,1-2.2,3.36,3.36,0,0,1,2.46-1,5,5,0,0,1,3.57,1.33l-1.28,1.62a3,3,0,0,0-2.29-1,1.56,1.56,0,0,0-1,.33,1,1,0,0,0-.39.82,1.08,1.08,0,0,0,.31.79,3.07,3.07,0,0,0,1,.6l1.35.54A3.59,3.59,0,0,1,208,66.81a3.24,3.24,0,0,1-1.09,2.54A4.22,4.22,0,0,1,203.95,70.33Z"/><path class="cls-1" d="M217.74,65.27h-4.29v3h4.71v1.93h-6.88V58.58H218v1.93h-4.58v2.82h4.29Z"/><path class="cls-1" d="M221.69,70.18V58.58h2.17v9.51h4.26v2.08Z"/><path class="cls-1" d="M238.4,70.18V65.33h-5v4.84h-2.17V58.58h2.17v4.67h5V58.58h2.18V70.18Z"/><path class="cls-1" d="M252.07,69.14a4.73,4.73,0,0,1-6.35,0,4.11,4.11,0,0,1-1.25-3.07V58.58h2.18v7.2a2.66,2.66,0,0,0,.6,1.79,2.31,2.31,0,0,0,3.3,0,2.61,2.61,0,0,0,.6-1.77V58.58h2.17v7.48A4.11,4.11,0,0,1,252.07,69.14Z"/><path class="cls-1" d="M260.33,70.33a5.56,5.56,0,0,1-2.19-.46,5.7,5.7,0,0,1-1.88-1.27L257.65,67a4.2,4.2,0,0,0,1.28,1,3.27,3.27,0,0,0,1.53.41,1.88,1.88,0,0,0,1.24-.4,1.24,1.24,0,0,0,.48-1,1.73,1.73,0,0,0-1.27-1.61l-1.29-.52a5,5,0,0,1-1.93-1.28,3,3,0,0,1-.62-2,3,3,0,0,1,1-2.2,3.36,3.36,0,0,1,2.46-1,5,5,0,0,1,3.57,1.33l-1.28,1.62a3,3,0,0,0-2.29-1,1.55,1.55,0,0,0-1,.33,1,1,0,0,0-.39.82,1.08,1.08,0,0,0,.31.79,3.08,3.08,0,0,0,1,.6l1.35.54a3.59,3.59,0,0,1,2.63,3.35,3.24,3.24,0,0,1-1.09,2.54A4.22,4.22,0,0,1,260.33,70.33Z"/></svg>