<svg id="Layer_1" data-name="Layer 1" xmlns="http://www.w3.org/2000/svg" viewBox="0 0 320 160"><defs><style>.cls-1{fill:#d4ac76;}</style></defs><title>text</title><path class="cls-1" d="M128.93,99.92l-2.71-7h1.09l2.08,5.35L131.48,93h1.07l-2.72,7Z"/><path class="cls-1" d="M138.35,99.92V93h1l2.24,3.71L143.86,93h1v7h-1V94.79l0,0-2.24,3.6-2.19-3.54h-.06v5.11Z"/><path class="cls-1" d="M150.73,100.05a3.42,3.42,0,0,1-2.51-1,3.74,3.74,0,0,1,0-5.16,3.56,3.56,0,0,1,5,0,3.71,3.71,0,0,1,0,5.15A3.42,3.42,0,0,1,150.73,100.05Zm-1.82-1.71a2.52,2.52,0,0,0,3.64,0,2.78,2.78,0,0,0,0-3.8,2.5,2.5,0,0,0-3.64,0,2.79,2.79,0,0,0,0,3.8Zm1.17-6.12a.46.46,0,0,1-.35.15.44.44,0,0,1-.34-.15.58.58,0,0,1,0-.76.45.45,0,0,1,.34-.15.46.46,0,0,1,.35.15.57.57,0,0,1,0,.76Zm1.93,0a.47.47,0,0,1-.69,0,.58.58,0,0,1,0-.76.47.47,0,0,1,.69,0,.58.58,0,0,1,0,.76Z"/><path class="cls-1" d="M156.71,99.92V93h1v6h2.86v.93Z"/><path class="cls-1" d="M162.67,99.92V93h1v6h2.86v.93Z"/><path class="cls-1" d="M172.47,96.87h-2.86V99h3.06v.93h-4V93h4v.93h-3v2.05h2.86Z"/><path class="cls-1" d="M175.08,99.92V93h1.86a3.5,3.5,0,0,1,2.43,6,3.4,3.4,0,0,1-2.47,1Zm1.9-6h-.93V99h1a2.25,2.25,0,0,0,1.71-.75,2.57,2.57,0,0,0,.69-1.82,2.48,2.48,0,0,0-.72-1.81A2.32,2.32,0,0,0,177,93.89Z"/><path class="cls-1" d="M181.77,99.92l2.79-7h.88l2.74,7h-1.08l-.42-1.07h-3.41l-.43,1.07ZM185,94.56l-1.35,3.36h2.67Z"/><path class="cls-1" d="M190.11,99.92V93h1v6h2.86v.93Z"/><path class="cls-1" d="M197.89,100a3.25,3.25,0,0,1-1.3-.28,3.44,3.44,0,0,1-1.1-.75l.68-.79a2.66,2.66,0,0,0,.8.63,2.05,2.05,0,0,0,1,.25,1.34,1.34,0,0,0,.9-.3.93.93,0,0,0,.35-.74,1.22,1.22,0,0,0-.88-1.14l-.82-.33a2.87,2.87,0,0,1-1.14-.75,1.64,1.64,0,0,1-.37-1.1,1.75,1.75,0,0,1,.57-1.31,2,2,0,0,1,1.42-.55,2.83,2.83,0,0,1,2,.77l-.58.78A1.92,1.92,0,0,0,198,93.8a1.1,1.1,0,0,0-.74.24.8.8,0,0,0-.29.64.77.77,0,0,0,.21.54,1.94,1.94,0,0,0,.71.43l.84.34a2,2,0,0,1,1.46,2,1.91,1.91,0,0,1-.61,1.46A2.33,2.33,0,0,1,197.89,100Z"/><path class="cls-1" d="M204.34,99.92l-2.71-7h1.09l2.08,5.35L206.89,93H208l-2.72,7Z"/><path class="cls-1" d="M209.59,99.86a.56.56,0,0,1-.41.17.55.55,0,0,1-.41-.17.57.57,0,0,1-.17-.41.58.58,0,0,1,.16-.42.55.55,0,0,1,.41-.17.57.57,0,0,1,.41.17.59.59,0,0,1,0,.83Z"/><path class="cls-1" d="M216.75,99.92V94.21l-1.3.67v-.93l1.85-1h.43v7Z"/><path class="cls-1" d="M219.9,98.33v-.61L222.33,93h1l-2.29,4.5h1.5V96.3h1v1.17h.84v.86h-.84v1.59h-1V98.33Z"/><path class="cls-1" d="M225.81,99.92l2.79-7h.88l2.74,7h-1.08l-.42-1.07h-3.41l-.43,1.07ZM229,94.56l-1.35,3.36h2.67Z"/><path class="cls-1" d="M233.68,101.2l.8-2.23.89.32-1.1,2.14Z"/><path class="cls-1" d="M245.84,99.92v-3h-3.38v3h-1V93h1v3h3.38V93h1v7Z"/><path class="cls-1" d="M252.77,100.05a3.42,3.42,0,0,1-2.51-1,3.74,3.74,0,0,1,0-5.16,3.56,3.56,0,0,1,5,0,3.71,3.71,0,0,1,0,5.15A3.42,3.42,0,0,1,252.77,100.05Zm-1.82-1.71a2.52,2.52,0,0,0,3.64,0,2.78,2.78,0,0,0,0-3.8,2.5,2.5,0,0,0-3.64,0,2.79,2.79,0,0,0,0,3.8Zm1.17-6.12a.46.46,0,0,1-.35.15.44.44,0,0,1-.34-.15.58.58,0,0,1,0-.76.45.45,0,0,1,.34-.15.46.46,0,0,1,.35.15.57.57,0,0,1,0,.76Zm1.93,0a.47.47,0,0,1-.69,0,.58.58,0,0,1,0-.76.47.47,0,0,1,.69,0,.58.58,0,0,1,0,.76Z"/><path class="cls-1" d="M258.75,99.92V93h1v6h2.86v.93Z"/><path class="cls-1" d="M264.71,99.92V93h1v6h2.86v.93Z"/><path class="cls-1" d="M271.66,99.92l-2.71-7H270l2.08,5.35L274.21,93h1.07l-2.72,7Z"/><path class="cls-1" d="M277.2,99.92V93h1v7Z"/><path class="cls-1" d="M281,99.92V93h1v3.3l2.9-3.3h1.31l-2.45,2.76,2.52,4.2h-1.21l-2-3.39-1,1.16v2.23Z"/><path class="cls-1" d="M292.21,96.87h-2.86V99h3.06v.93h-4V93h4v.93h-3v2.05h2.86Z"/><path class="cls-1" d="M294.82,99.92V93h.68l3.77,4.79V93h1v7h-.54l-3.91-5v5Z"/><path class="cls-1" d="M136.14,113a3.25,3.25,0,0,1-1.3-.28,3.44,3.44,0,0,1-1.1-.75l.68-.79a2.66,2.66,0,0,0,.8.63,2.05,2.05,0,0,0,1,.25,1.34,1.34,0,0,0,.9-.3.93.93,0,0,0,.35-.74,1.22,1.22,0,0,0-.88-1.14l-.82-.33a2.87,2.87,0,0,1-1.14-.75,1.64,1.64,0,0,1-.37-1.1,1.75,1.75,0,0,1,.57-1.31,2,2,0,0,1,1.42-.55,2.83,2.83,0,0,1,2,.77l-.58.78a1.92,1.92,0,0,0-1.43-.62,1.1,1.1,0,0,0-.74.24.8.8,0,0,0-.29.64.77.77,0,0,0,.21.54,1.94,1.94,0,0,0,.71.43l.84.34a2,2,0,0,1,1.46,2,1.91,1.91,0,0,1-.61,1.46A2.33,2.33,0,0,1,136.14,113Z"/><path class="cls-1" d="M144,113.05a3.42,3.42,0,0,1-2.51-1,3.74,3.74,0,0,1,0-5.16,3.56,3.56,0,0,1,5,0,3.71,3.71,0,0,1,0,5.15A3.42,3.42,0,0,1,144,113.05Zm-1.82-1.71a2.52,2.52,0,0,0,3.64,0,2.78,2.78,0,0,0,0-3.8,2.5,2.5,0,0,0-3.64,0,2.79,2.79,0,0,0,0,3.8Zm1.17-6.12a.46.46,0,0,1-.35.15.44.44,0,0,1-.34-.15.58.58,0,0,1,0-.76.45.45,0,0,1,.34-.15.46.46,0,0,1,.35.15.57.57,0,0,1,0,.76Zm1.93,0a.47.47,0,0,1-.69,0,.58.58,0,0,1,0-.76.47.47,0,0,1,.69,0,.58.58,0,0,1,0,.76Z"/><path class="cls-1" d="M149.95,112.92v-7h.68l3.77,4.79V106h1v7h-.54l-3.91-5v5Z"/><path class="cls-1" d="M158.27,112.92v-7h1.86a3.5,3.5,0,0,1,2.43,6,3.4,3.4,0,0,1-2.47,1Zm1.9-6h-.93V112h1a2.25,2.25,0,0,0,1.71-.75,2.57,2.57,0,0,0,.69-1.82,2.48,2.48,0,0,0-.72-1.81A2.32,2.32,0,0,0,160.17,106.89Z"/><path class="cls-1" d="M165,112.92l2.79-7h.88l2.74,7H170.3l-.42-1.07h-3.41l-.43,1.07Zm3.23-5.36-1.35,3.36h2.67Z"/><path class="cls-1" d="M177.51,109.9V109h2.31v.49a3.58,3.58,0,0,1-3.6,3.58,3.41,3.41,0,0,1-2.54-1,3.75,3.75,0,0,1,0-5.14,3.41,3.41,0,0,1,2.54-1,3.75,3.75,0,0,1,1.46.29,3.57,3.57,0,0,1,1.19.81l-.72.74a2.46,2.46,0,0,0-1.93-.9,2.42,2.42,0,0,0-1.84.79,2.8,2.8,0,0,0,0,3.79,2.43,2.43,0,0,0,1.84.79,2.48,2.48,0,0,0,1.67-.61,2.64,2.64,0,0,0,.88-1.61Z"/><path class="cls-1" d="M186.78,112.92v-5.71l-1.3.67v-.93l1.85-1h.43v7Z"/><path class="cls-1" d="M191.27,112.92v-5.71l-1.3.67v-.93l1.85-1h.43v7Z"/><path class="cls-1" d="M198.73,112.92v-7h3.8v.93H199.7v2.19h2.5V110h-2.5v2.92Z"/><path class="cls-1" d="M208.52,109.87h-2.86V112h3.06v.93h-4v-7h4v.93h-3v2.05h2.86Z"/><path class="cls-1" d="M211.13,112.92v-7h2.13a2.22,2.22,0,0,1,1.53.54,1.79,1.79,0,0,1,.61,1.41,1.64,1.64,0,0,1-.83,1.49,1.78,1.78,0,0,1,.75.63,1.64,1.64,0,0,1,.28.94,1.8,1.8,0,0,1-.61,1.42,2.27,2.27,0,0,1-1.55.53Zm2-6H212.1V109h1.24a1.06,1.06,0,0,0,.77-.31,1.07,1.07,0,0,0,.31-.8.89.89,0,0,0-.35-.73A1.43,1.43,0,0,0,213.16,106.89Zm.22,3H212.1V112h1.21a1.44,1.44,0,0,0,1-.3,1,1,0,0,0,.35-.79,1,1,0,0,0-.32-.74A1.34,1.34,0,0,0,213.38,109.87Z"/><path class="cls-1" d="M218,112.92v-7h2.58a2.18,2.18,0,0,1,1.57.61,2.15,2.15,0,0,1-1.22,3.7l2,2.65h-1.2l-2-2.66H219v2.66Zm2.45-6H219v2.51h1.47a1.41,1.41,0,0,0,1-.34,1.26,1.26,0,0,0,0-1.8A1.36,1.36,0,0,0,220.48,106.89Z"/><path class="cls-1" d="M227.61,113a2.42,2.42,0,0,1-1.81-.73,2.52,2.52,0,0,1-.71-1.84V106h1v4.45a1.79,1.79,0,0,0,.42,1.22,1.43,1.43,0,0,0,1.14.48,1.46,1.46,0,0,0,1.15-.47,1.77,1.77,0,0,0,.42-1.22V106h1v4.51a2.53,2.53,0,0,1-.71,1.84A2.44,2.44,0,0,1,227.61,113Z"/><path class="cls-1" d="M231.84,112.92l2.79-7h.88l2.74,7h-1.08l-.42-1.07h-3.41l-.43,1.07Zm3.23-5.36-1.35,3.36h2.67Z"/><path class="cls-1" d="M240.18,112.92v-7h2.58a2.18,2.18,0,0,1,1.57.61,2.15,2.15,0,0,1-1.22,3.7l2,2.65h-1.2l-2-2.66h-.77v2.66Zm2.45-6h-1.48v2.51h1.47a1.41,1.41,0,0,0,1-.34,1.26,1.26,0,0,0,0-1.8A1.36,1.36,0,0,0,242.63,106.89Z"/><path class="cls-1" d="M247.4,112.92v-7h1v7Z"/><path class="cls-1" d="M255,112.92v-7h1v3.3l2.9-3.3h1.31l-2.45,2.76,2.52,4.2H259l-2-3.39-1,1.16v2.23Z"/><path class="cls-1" d="M262.34,112.92v-7h1v6h2.86v.93Z"/><path class="cls-1" d="M272.86,112.92v-5.71l-1.3.67v-.93l1.85-1h.43v7Z"/><path class="cls-1" d="M277.35,112.92v-5.71l-1.3.67v-.93l1.85-1h.43v7Z"/><path class="cls-1" d="M280.69,109.89V109h2.72v.86Z"/><path class="cls-1" d="M286,112.92v-5.71l-1.3.67v-.93l1.85-1H287v7Z"/><path class="cls-1" d="M291.32,113a2.14,2.14,0,0,1-1.52-.59,1.94,1.94,0,0,1-.65-1.42h1a1,1,0,0,0,.36.76,1.25,1.25,0,0,0,1.68,0,1.11,1.11,0,0,0,.35-.83,1.16,1.16,0,0,0-1.19-1.19h-.4v-.86h.39a1.1,1.1,0,0,0,.81-.32,1.09,1.09,0,0,0,0-1.55,1.13,1.13,0,0,0-.82-.31,1.09,1.09,0,0,0-.8.32,1.06,1.06,0,0,0-.32.78h-1a1.8,1.8,0,0,1,.6-1.39,2.27,2.27,0,0,1,3,0,1.84,1.84,0,0,1,.6,1.39,1.57,1.57,0,0,1-.3.93,1.62,1.62,0,0,1-.77.59,1.68,1.68,0,0,1,.81.62,1.71,1.71,0,0,1,.3,1,2,2,0,0,1-.64,1.47A2.12,2.12,0,0,1,291.32,113Z"/></svg>