<svg id="Layer_1" data-name="Layer 1" xmlns="http://www.w3.org/2000/svg" viewBox="0 0 580 400"><defs><style>.cls-1{fill:#d4ac76;}</style></defs><title>text</title><path class="cls-1" d="M175.19,248.67V234.75h4.58a4.19,4.19,0,0,1,3,1.16,3.84,3.84,0,0,1,1.2,2.87,3.28,3.28,0,0,1-1.56,2.8,3.87,3.87,0,0,1,1.54,1.25,3,3,0,0,1,.58,1.77,3.82,3.82,0,0,1-1.22,2.95,4.36,4.36,0,0,1-3.07,1.12Zm4.27-11.59H177.6v3.49h2.08a1.91,1.91,0,0,0,1.38-.51,1.71,1.71,0,0,0,.53-1.28,1.49,1.49,0,0,0-.59-1.23A2.43,2.43,0,0,0,179.46,237.07Zm.4,5.58H177.6v3.69h2.21a2.25,2.25,0,0,0,1.57-.52,1.74,1.74,0,0,0,.58-1.35,1.71,1.71,0,0,0-.54-1.32A2.22,2.22,0,0,0,179.86,242.65Z"/><path class="cls-1" d="M196.14,242.78H191v3.56h5.65v2.32h-8.26V234.75h8.1v2.32H191v3.38h5.15Z"/><path class="cls-1" d="M204.21,248.85a6.69,6.69,0,0,1-2.62-.55,6.87,6.87,0,0,1-2.25-1.52l1.66-2a5,5,0,0,0,1.53,1.24,3.93,3.93,0,0,0,1.83.49,2.25,2.25,0,0,0,1.48-.48,1.49,1.49,0,0,0,.58-1.2,2.07,2.07,0,0,0-1.53-1.93l-1.55-.62a6,6,0,0,1-2.31-1.54,3.55,3.55,0,0,1-.75-2.37,3.61,3.61,0,0,1,1.18-2.64,4,4,0,0,1,3-1.16,6,6,0,0,1,4.28,1.59l-1.54,1.94a3.58,3.58,0,0,0-2.75-1.21,1.86,1.86,0,0,0-1.25.4,1.24,1.24,0,0,0-.47,1,1.3,1.3,0,0,0,.37,1,3.7,3.7,0,0,0,1.19.72l1.62.65q3.09,1.24,3.15,4a3.89,3.89,0,0,1-1.31,3A5.06,5.06,0,0,1,204.21,248.85Z"/><path class="cls-1" d="M211.26,237.25v-2.5h11.47v2.5H218.3v11.41h-2.61V237.25Z"/><path class="cls-1" d="M222.85,248.67l5.36-13.91h2.36l5.35,13.91h-2.68l-.74-1.93h-6.22l-.74,1.93Zm5.34-15.34a1.12,1.12,0,0,1-.85.37,1.15,1.15,0,0,1-.86-.37,1.24,1.24,0,0,1-.36-.89,1.21,1.21,0,0,1,1.21-1.24,1.15,1.15,0,0,1,.84.36,1.21,1.21,0,0,1,.36.88A1.26,1.26,0,0,1,228.19,233.32Zm1.2,5.32-2.23,5.77h4.44Zm2.94-5.32a1.34,1.34,0,0,1-1.85,0,1.19,1.19,0,0,1-.38-.89,1.17,1.17,0,0,1,.38-.88,1.36,1.36,0,0,1,1.85,0,1.17,1.17,0,0,1,.38.88A1.19,1.19,0,0,1,232.33,233.32Z"/><path class="cls-1" d="M238.82,248.67V234.75h2.61v11.41h5.11v2.5Z"/><path class="cls-1" d="M249.94,248.67V234.75h2.61v11.41h5.11v2.5Z"/><path class="cls-1" d="M271.71,248.67l-5.32-13.91h2.72l3.82,10,3.77-10h2.64l-5.27,13.91Z"/><path class="cls-1" d="M279.66,248.67,285,234.75h2.36l5.35,13.91H290l-.74-1.93h-6.22l-.74,1.93Zm6.55-10L284,244.42h4.44Zm2-6.27a2,2,0,0,1-2,2,2,2,0,0,1-1.42-.58,2,2,0,0,1,0-2.84,2,2,0,0,1,2.84,0A1.93,1.93,0,0,1,288.23,232.38Zm-2.52.52a.71.71,0,0,0,.52.22.68.68,0,0,0,.51-.22.73.73,0,0,0,.21-.52.71.71,0,0,0-.22-.52.72.72,0,0,0-1,0,.74.74,0,0,0,0,1Z"/><path class="cls-1" d="M295.63,248.67V234.75h5.45a4.69,4.69,0,0,1,3.35,1.26,4.33,4.33,0,0,1,1.34,3.3,4.18,4.18,0,0,1-1,2.82,4.48,4.48,0,0,1-2.6,1.48l3.74,5H303l-3.61-5h-1.12v5Zm5-11.59h-2.43v4.54h2.43a2.57,2.57,0,0,0,1.81-.62,2.08,2.08,0,0,0,.67-1.61,2.19,2.19,0,0,0-.69-1.65A2.49,2.49,0,0,0,300.67,237.07Z"/><path class="cls-1" d="M316.27,248.67V234.75h1.83l6.85,8.75v-8.75h2.61v13.91h-1.75l-6.93-8.86v8.86Z"/><path class="cls-1" d="M339.51,234.75h2.8L337.71,243v5.65H335.1V243.1l-4.66-8.35h2.87l3.14,5.77Z"/><path class="cls-1" d="M342.1,248.67l5.37-13.91h2.36l5.35,13.91h-2.68l-.74-1.93h-6.22l-.74,1.93Zm6.54-10-2.23,5.77h4.44Z"/><path class="cls-1" d="M365.12,248.67V234.75h4.58a4.2,4.2,0,0,1,3,1.16,3.84,3.84,0,0,1,1.2,2.87,3.28,3.28,0,0,1-1.56,2.8,3.87,3.87,0,0,1,1.54,1.25,3,3,0,0,1,.58,1.77,3.82,3.82,0,0,1-1.22,2.95,4.36,4.36,0,0,1-3.07,1.12Zm4.27-11.59h-1.86v3.49h2.08a1.91,1.91,0,0,0,1.38-.51,1.71,1.71,0,0,0,.53-1.28,1.49,1.49,0,0,0-.59-1.23A2.43,2.43,0,0,0,369.4,237.07Zm.4,5.58h-2.26v3.69h2.21a2.25,2.25,0,0,0,1.57-.52,1.74,1.74,0,0,0,.58-1.35,1.71,1.71,0,0,0-.54-1.32A2.22,2.22,0,0,0,369.79,242.65Z"/><path class="cls-1" d="M391.8,241.7a7.22,7.22,0,1,1-2.11-5.1A6.93,6.93,0,0,1,391.8,241.7ZM381.3,245a4.57,4.57,0,0,0,6.54,0,4.78,4.78,0,0,0,0-6.66,4.57,4.57,0,0,0-6.54,0,4.81,4.81,0,0,0,0,6.66Z"/><path class="cls-1" d="M395.44,248.67V234.75h2.41v6.13l5.33-6.13h3.22l-4.91,5.55,5,8.36h-3l-3.79-6.35-1.86,2.1v4.25Z"/></svg>