<svg id="Layer_1" data-name="Layer 1" xmlns="http://www.w3.org/2000/svg" viewBox="0 0 580 400"><defs><style>.cls-1{fill:#d4ac76;}</style></defs><title>text</title><path class="cls-1" d="M201.87,248.67V235.53h4.33a4,4,0,0,1,2.87,1.09,3.61,3.61,0,0,1,1.13,2.71,3.12,3.12,0,0,1-1.47,2.65,3.69,3.69,0,0,1,1.46,1.17,2.82,2.82,0,0,1,.54,1.67,3.61,3.61,0,0,1-1.15,2.79,4.14,4.14,0,0,1-2.9,1.06Zm4-10.95h-1.76V241h2a1.81,1.81,0,0,0,1.3-.49,1.6,1.6,0,0,0,.51-1.21,1.43,1.43,0,0,0-.56-1.17A2.3,2.3,0,0,0,205.91,237.72Zm.38,5.27h-2.14v3.48h2.08a2.13,2.13,0,0,0,1.49-.49,1.66,1.66,0,0,0,.55-1.27,1.59,1.59,0,0,0-.52-1.25A2.05,2.05,0,0,0,206.29,243Z"/><path class="cls-1" d="M221.66,243.11H216.8v3.36h5.34v2.2h-7.8V235.53H222v2.19H216.8v3.19h4.86Z"/><path class="cls-1" d="M229.29,248.84a6.38,6.38,0,0,1-2.48-.52,6.57,6.57,0,0,1-2.13-1.44l1.56-1.87a4.73,4.73,0,0,0,1.45,1.17,3.68,3.68,0,0,0,1.73.46,2.12,2.12,0,0,0,1.4-.45,1.4,1.4,0,0,0,.55-1.13,2,2,0,0,0-1.44-1.83l-1.47-.58a5.63,5.63,0,0,1-2.18-1.45,3.56,3.56,0,0,1,.41-4.73,3.81,3.81,0,0,1,2.78-1.1,5.67,5.67,0,0,1,4.05,1.5l-1.45,1.84a3.4,3.4,0,0,0-2.6-1.14,1.77,1.77,0,0,0-1.18.37,1.18,1.18,0,0,0-.44.93,1.22,1.22,0,0,0,.35.9,3.51,3.51,0,0,0,1.13.68l1.53.61c1.95.78,2.94,2.05,3,3.79a3.7,3.7,0,0,1-1.23,2.88A4.78,4.78,0,0,1,229.29,248.84Z"/><path class="cls-1" d="M235.94,237.89v-2.36h10.83v2.36h-4.18v10.78h-2.47V237.89Z"/><path class="cls-1" d="M246.89,248.67,252,235.53h2.22l5.05,13.14H256.7l-.7-1.82h-5.88l-.7,1.82Zm5-14.5a1,1,0,0,1-.8.35,1,1,0,0,1-.81-.35,1.18,1.18,0,0,1-.34-.84,1.15,1.15,0,0,1,.33-.83,1.16,1.16,0,0,1,.82-.34,1.08,1.08,0,0,1,.8.34,1.15,1.15,0,0,1,.33.83A1.17,1.17,0,0,1,251.93,234.17Zm1.14,5-2.1,5.45h4.19Zm2.78-5a1.21,1.21,0,0,1-.88.35,1.18,1.18,0,0,1-.87-.35,1.12,1.12,0,0,1-.36-.84,1.1,1.1,0,0,1,.36-.83,1.21,1.21,0,0,1,.87-.34,1.25,1.25,0,0,1,.88.34,1.1,1.1,0,0,1,.36.83A1.12,1.12,0,0,1,255.85,234.17Z"/><path class="cls-1" d="M262,248.67V235.53h2.46V246.3h4.83v2.37Z"/><path class="cls-1" d="M272.48,248.67V235.53h2.46V246.3h4.83v2.37Z"/><path class="cls-1" d="M289.41,248.67V235.53h2.28v5.79l5-5.79h3l-4.64,5.24,4.74,7.9H297l-3.58-6-1.75,2v4Z"/><path class="cls-1" d="M301.92,248.67,307,235.53h2.22l5.05,13.14h-2.53l-.7-1.82h-5.88l-.7,1.82Zm6.18-9.47-2.1,5.45h4.19Z"/><path class="cls-1" d="M314.43,237.89v-2.36h10.83v2.36h-4.18v10.78h-2.47V237.89Z"/><path class="cls-1" d="M325.38,248.67l5.07-13.14h2.22l5.05,13.14h-2.53l-.7-1.82h-5.88l-.7,1.82Zm6.18-9.47-2.1,5.45h4.19Z"/><path class="cls-1" d="M340.46,248.67V235.53h2.46V246.3h4.83v2.37Z"/><path class="cls-1" d="M363,242.09a6.55,6.55,0,0,1-2,4.81,6.86,6.86,0,0,1-9.66,0A6.82,6.82,0,1,1,363,242.09Zm-9.92,3.13a4.32,4.32,0,0,0,6.18,0,4.5,4.5,0,0,0,0-6.29,4.32,4.32,0,0,0-6.18,0,4.56,4.56,0,0,0,0,6.29Z"/><path class="cls-1" d="M374.92,243.17V241h4.71l0,1.12a6.73,6.73,0,0,1-1,3.49,6.64,6.64,0,0,1-2.49,2.42,6.82,6.82,0,0,1-3.35.86,6.82,6.82,0,1,1,0-13.63,6.47,6.47,0,0,1,4.9,2.12L376.06,239a4.26,4.26,0,0,0-3.23-1.42,4.22,4.22,0,0,0-3.15,1.28,4.66,4.66,0,0,0,0,6.34,4,4,0,0,0,3,1.29,4.68,4.68,0,0,0,2.93-.92,4.09,4.09,0,0,0,1.54-2.42Z"/></svg>