<svg id="Layer_1" data-name="Layer 1" xmlns="http://www.w3.org/2000/svg" viewBox="0 0 300 250"><defs><style>.cls-1{fill:#d4ac76;}</style></defs><title>text</title><path class="cls-1" d="M9.15,49.18V28.31H16a6.3,6.3,0,0,1,4.57,1.74,5.75,5.75,0,0,1,1.79,4.31A4.91,4.91,0,0,1,20,38.55a5.9,5.9,0,0,1,2.32,1.87,4.46,4.46,0,0,1,.86,2.65A5.77,5.77,0,0,1,21.4,47.5a6.57,6.57,0,0,1-4.62,1.68Zm6.42-17.39h-2.8V37h3.12A2.9,2.9,0,0,0,18,36.26a2.58,2.58,0,0,0,.8-1.93,2.22,2.22,0,0,0-.89-1.84A3.58,3.58,0,0,0,15.57,31.79Zm.59,8.37H12.77V45.7h3.31a3.42,3.42,0,0,0,2.36-.79,2.6,2.6,0,0,0,.87-2,2.54,2.54,0,0,0-.82-2A3.31,3.31,0,0,0,16.16,40.16Z"/><path class="cls-1" d="M50.38,38.73a10.81,10.81,0,0,1-10.84,10.8A10.82,10.82,0,0,1,28.7,38.73,10.86,10.86,0,0,1,39.54,27.9,10.84,10.84,0,0,1,50.38,38.73Zm-15.75,5a6.85,6.85,0,0,0,9.81,0,7.16,7.16,0,0,0,0-10,6.87,6.87,0,0,0-9.81,0,7.21,7.21,0,0,0,0,10Z"/><path class="cls-1" d="M57.05,49.18V28.31h3.62v9.2l8-9.2H73.5l-7.37,8.32,7.53,12.55H69.15l-5.69-9.53-2.79,3.16v6.37Z"/><path class="cls-1" d="M78.14,49.18l8-20.87h3.53l8,20.87h-4l-1.11-2.89H83.28l-1.12,2.89Zm9.82-15-3.34,8.66h6.66Z"/><path class="cls-1" d="M115.1,49.18V28.31h3.78l6.46,10.29,6.53-10.29H136V49.18h-3.91V34.9l-.32,0-6.47,10L119,35H119v14.2Z"/><path class="cls-1" d="M164.08,38.73a10.84,10.84,0,1,1-18.51-7.65,10.84,10.84,0,0,1,18.51,7.65Zm-15.75,5a6.85,6.85,0,0,0,9.81,0,7.16,7.16,0,0,0,0-10,6.87,6.87,0,0,0-9.81,0,7.19,7.19,0,0,0,0,10Zm3.08-17.55a1.74,1.74,0,0,1-2.56,0,1.83,1.83,0,0,1-.54-1.33A1.81,1.81,0,0,1,150.13,23a1.73,1.73,0,0,1,1.27.54,1.83,1.83,0,0,1,.53,1.33A1.86,1.86,0,0,1,151.41,26.16Zm6.21,0a1.91,1.91,0,0,1-1.38.56,1.93,1.93,0,0,1-1.39-.56,1.79,1.79,0,0,1-.57-1.33,1.75,1.75,0,0,1,.57-1.33,2,2,0,0,1,1.39-.54,1.93,1.93,0,0,1,1.38.54,1.75,1.75,0,0,1,.57,1.33A1.79,1.79,0,0,1,157.62,26.16Z"/><path class="cls-1" d="M167.83,32.06V28.31H185v3.75h-6.64V49.18h-3.91V32.06Z"/><path class="cls-1" d="M202.34,40.35h-7.72V45.7h8.48v3.48H190.7V28.31h12.15v3.48h-8.23v5.08h7.72Z"/><path class="cls-1" d="M242.14,38.73a10.84,10.84,0,1,1-18.51-7.65,10.85,10.85,0,0,1,18.51,7.65Zm-15.76,5a6.86,6.86,0,0,0,9.82,0,7.19,7.19,0,0,0,0-10,6.88,6.88,0,0,0-9.82,0,7.21,7.21,0,0,0,0,10Z"/><path class="cls-1" d="M266.73,46.24a10.85,10.85,0,0,1-18.63-7.52,10.4,10.4,0,0,1,3.18-7.66A10.51,10.51,0,0,1,259,27.9a10.4,10.4,0,0,1,7.71,3.24l-2.75,2.68a6.55,6.55,0,0,0-5-2.16A6.65,6.65,0,0,0,254,33.72a7.21,7.21,0,0,0,0,10,6.88,6.88,0,0,0,10-.12Z"/><path class="cls-1" d="M285.93,49.18V40.46H277v8.72h-3.91V28.31H277v8.4h8.94v-8.4h3.92V49.18Z"/><path class="cls-1" d="M7.84,70.18V57.81h6.74v2.07H10.16v3.37H14.1v2.07H10.16v4.86Z"/><path class="cls-1" d="M30.52,64a6.18,6.18,0,0,1-1.88,4.53,6.46,6.46,0,0,1-9.09,0,6.42,6.42,0,0,1,4.54-10.95A6.42,6.42,0,0,1,30.52,64Zm-9.34,2.95a4.08,4.08,0,0,0,5.82,0A4.25,4.25,0,0,0,27,61a4.08,4.08,0,0,0-5.82,0,4.28,4.28,0,0,0,0,5.92ZM23,56.54a1,1,0,0,1-1.52,0,1.1,1.1,0,0,1-.32-.79,1.14,1.14,0,0,1,.31-.79,1.11,1.11,0,0,1,.77-.32A1,1,0,0,1,23,55a1.1,1.1,0,0,1,.32.79A1.14,1.14,0,0,1,23,56.54Zm3.68,0a1.14,1.14,0,0,1-.82.33,1.12,1.12,0,0,1-.82-.33,1.09,1.09,0,0,1,0-1.58,1.16,1.16,0,0,1,.82-.32,1.17,1.17,0,0,1,.82.32,1.09,1.09,0,0,1,0,1.58Z"/><path class="cls-1" d="M34.47,70.18V57.81h4.84a4.19,4.19,0,0,1,3,1.13,3.84,3.84,0,0,1,1.19,2.93,3.7,3.7,0,0,1-.89,2.5,4,4,0,0,1-2.31,1.32l3.32,4.49H41l-3.21-4.42h-1v4.42ZM39,59.88H36.79v4H39a2.33,2.33,0,0,0,1.61-.55,1.85,1.85,0,0,0,.6-1.43,2,2,0,0,0-.62-1.47A2.21,2.21,0,0,0,39,59.88Z"/><path class="cls-1" d="M50.7,70.18,46,57.81h2.42l3.4,8.89,3.35-8.89h2.35L52.81,70.18Z"/><path class="cls-1" d="M67.7,65H63.12v3.17h5v2.06H60.8V57.81H68v2.07H63.12v3H67.7Z"/><path class="cls-1" d="M72.31,70.18V57.81h4.84a4.19,4.19,0,0,1,3,1.13,3.84,3.84,0,0,1,1.19,2.93,3.7,3.7,0,0,1-.89,2.5,4,4,0,0,1-2.31,1.32l3.32,4.49h-2.6l-3.21-4.42h-1v4.42Zm4.48-10.3H74.63v4h2.16a2.33,2.33,0,0,0,1.61-.55,1.85,1.85,0,0,0,.6-1.43,2,2,0,0,0-.62-1.47A2.21,2.21,0,0,0,76.79,59.88Z"/><path class="cls-1" d="M85.33,70.18V57.81h2.15v5.45l4.73-5.45h2.87l-4.37,4.94,4.46,7.43H92.5l-3.37-5.65L87.48,66.4v3.78Z"/><path class="cls-1" d="M98.85,70.18V57.81h2.32V68h4.55v2.22Z"/><path class="cls-1" d="M109.46,70.18V57.81h2.32V70.18Z"/><path class="cls-1" d="M124.15,65V63h4.43l0,1a6.33,6.33,0,0,1-.9,3.28,6.09,6.09,0,0,1-2.34,2.28,6.41,6.41,0,0,1-3.16.81,6.42,6.42,0,1,1,0-12.83,6.08,6.08,0,0,1,4.6,2l-1.58,1.56a4.17,4.17,0,0,0-6-.13,4.13,4.13,0,0,0-1.17,3,4.08,4.08,0,0,0,1.18,3A3.77,3.77,0,0,0,122,68.15a4.42,4.42,0,0,0,2.75-.86A3.86,3.86,0,0,0,126.24,65Z"/><path class="cls-1" d="M130.68,70.18l4.77-12.37h2.09l4.75,12.37h-2.38l-.66-1.71h-5.53l-.66,1.71Zm5.82-8.91-2,5.13h3.94Z"/><path class="cls-1" d="M160.2,70.18V65h-5.3v5.17h-2.32V57.81h2.32v5h5.3v-5h2.32V70.18Z"/><path class="cls-1" d="M175.18,69.07a5.06,5.06,0,0,1-6.77,0,4.38,4.38,0,0,1-1.33-3.27v-8h2.32v7.68A2.86,2.86,0,0,0,170,67.4a2.46,2.46,0,0,0,3.53,0,2.81,2.81,0,0,0,.64-1.89V57.81h2.32v8A4.39,4.39,0,0,1,175.18,69.07Z"/><path class="cls-1" d="M184.4,70.34a6.24,6.24,0,0,1-4.34-1.84l1.47-1.76a4.49,4.49,0,0,0,1.37,1.1,3.47,3.47,0,0,0,1.62.44,2,2,0,0,0,1.32-.43,1.31,1.31,0,0,0,.52-1.07A1.84,1.84,0,0,0,185,65.07l-1.38-.55a5.36,5.36,0,0,1-2.06-1.37,3.14,3.14,0,0,1-.66-2.1,3.21,3.21,0,0,1,1-2.35,3.57,3.57,0,0,1,2.62-1,5.34,5.34,0,0,1,3.81,1.41L187,60.81a3.16,3.16,0,0,0-2.44-1.08,1.65,1.65,0,0,0-1.11.36A1.08,1.08,0,0,0,183,61a1.16,1.16,0,0,0,.33.85,3.41,3.41,0,0,0,1.06.64l1.45.57q2.75,1.11,2.8,3.57a3.47,3.47,0,0,1-1.17,2.71A4.5,4.5,0,0,1,184.4,70.34Z"/><path class="cls-1" d="M192.61,70.18V57.81h3.53a6,6,0,0,1,4.38,1.77A6,6,0,0,1,202.34,64a5.77,5.77,0,0,1-1.84,4.41A6.34,6.34,0,0,1,196,70.18Zm3.56-10.3h-1.41v8.24h1.42a3.55,3.55,0,0,0,2.74-1.2,4.21,4.21,0,0,0,1.1-3,4.09,4.09,0,0,0-1.11-2.92A3.65,3.65,0,0,0,196.17,59.88Z"/><path class="cls-1" d="M206.36,70.18V57.81h4.84a4.15,4.15,0,0,1,3,1.13,3.8,3.8,0,0,1,1.19,2.93,3.69,3.69,0,0,1-.88,2.5,4,4,0,0,1-2.31,1.32l3.32,4.49h-2.61l-3.2-4.42h-1v4.42Zm4.48-10.3h-2.16v4h2.16a2.3,2.3,0,0,0,1.6-.55,1.85,1.85,0,0,0,.6-1.43,2,2,0,0,0-.61-1.47A2.21,2.21,0,0,0,210.84,59.88Z"/><path class="cls-1" d="M231.59,64a6.42,6.42,0,1,1-1.88-4.54A6.18,6.18,0,0,1,231.59,64Zm-9.34,2.95a4.08,4.08,0,0,0,5.82,0,4.25,4.25,0,0,0,0-5.92,4.08,4.08,0,0,0-5.82,0,4.28,4.28,0,0,0,0,5.92Zm1.83-10.4a1,1,0,0,1-.76.33,1,1,0,0,1-.76-.33,1.1,1.1,0,0,1-.32-.79,1.08,1.08,0,0,1,1.08-1.11,1,1,0,0,1,.75.32,1.15,1.15,0,0,1,0,1.58Zm3.68,0a1.18,1.18,0,0,1-1.64,0,1.09,1.09,0,0,1,0-1.58,1.21,1.21,0,0,1,1.64,0,1.09,1.09,0,0,1,0,1.58Z"/><path class="cls-1" d="M235.54,70.18V57.81h2.24l3.82,6.1,3.88-6.1h2.43V70.18h-2.32V61.72l-.19,0-3.83,5.92-3.75-5.84h0v8.41Z"/><path class="cls-1" d="M252.58,70.18V57.81h2.24l3.82,6.1,3.88-6.1H265V70.18h-2.32V61.72l-.19,0-3.83,5.92-3.75-5.84h0v8.41Z"/><path class="cls-1" d="M276.52,65h-4.58v3.17h5v2.06h-7.34V57.81h7.2v2.07h-4.88v3h4.58Z"/><path class="cls-1" d="M281.12,70.18V57.81h1.63l6.09,7.78V57.81h2.32V70.18H289.6l-6.16-7.87v7.87Z"/></svg>