<svg id="Layer_1" data-name="Layer 1" xmlns="http://www.w3.org/2000/svg" viewBox="0 0 300 250"><defs><style>.cls-1{fill:#fff;}</style></defs><title>text</title><path class="cls-1" d="M29.76,158.17l1.81-.41A4.5,4.5,0,0,0,36.29,161a4.34,4.34,0,0,0,2.86-.81,2.67,2.67,0,0,0,1-2.16,2,2,0,0,0-.73-1.64,4.05,4.05,0,0,0-1.69-.86l-3.21-.79a8.38,8.38,0,0,1-2-.77,3.67,3.67,0,0,1-1.34-1.39,4.15,4.15,0,0,1-.55-2.15,3.84,3.84,0,0,1,1.51-3.19,6.05,6.05,0,0,1,3.88-1.2,5.51,5.51,0,0,1,5.73,4l-1.82.54a3.21,3.21,0,0,0-1.48-2.12,4.74,4.74,0,0,0-2.5-.73,4.11,4.11,0,0,0-2.34.7,2.24,2.24,0,0,0-1,2c0,1.18.86,2,2.59,2.4l3,.7c2.73.65,4.1,2.13,4.1,4.42a4.46,4.46,0,0,1-1.54,3.45,6.31,6.31,0,0,1-4.35,1.38A6.34,6.34,0,0,1,29.76,158.17Z"/><path class="cls-1" d="M52.84,158.87l1.71.35a4.84,4.84,0,0,1-1.83,2.51,5.23,5.23,0,0,1-3.2,1A5,5,0,0,1,45.59,161a7.44,7.44,0,0,1,.06-9,5,5,0,0,1,3.92-1.75,4.74,4.74,0,0,1,3.73,1.61,7.25,7.25,0,0,1,1.45,4.8h-8.6c0,1.79.37,3,1.12,3.63a3.68,3.68,0,0,0,2.38.93A3.25,3.25,0,0,0,52.84,158.87Zm-.11-3.6a4.89,4.89,0,0,0-.33-1.77,2.94,2.94,0,0,0-1-1.31,2.76,2.76,0,0,0-1.74-.55,3.11,3.11,0,0,0-2.33,1,4,4,0,0,0-1.07,2.64Z"/><path class="cls-1" d="M72.79,162.4H71v-7.19a8.8,8.8,0,0,0-.15-1.89,2,2,0,0,0-.75-1.1,2.16,2.16,0,0,0-1.37-.46,2.92,2.92,0,0,0-2.37,1.16,4.71,4.71,0,0,0-1,3.1v6.38H63.51v-16h1.84v6.34a3.91,3.91,0,0,1,3.59-2.51,4.17,4.17,0,0,1,1.86.41A3.21,3.21,0,0,1,72,151.72a4.52,4.52,0,0,1,.6,1.32,10.87,10.87,0,0,1,.15,2.17Z"/><path class="cls-1" d="M85.15,150.56l-4.1,11.84H79.16l-4.25-11.84h2l3.29,9.62,3.26-9.62Z"/><path class="cls-1" d="M91.18,162.73a4.51,4.51,0,0,1-3.8-1.81A7.22,7.22,0,0,1,86,156.44a6.44,6.44,0,0,1,1.54-4.52,5,5,0,0,1,3.82-1.69A4.68,4.68,0,0,1,95.23,152a6.94,6.94,0,0,1,1.41,4.44A6.66,6.66,0,0,1,95.12,161,5,5,0,0,1,91.18,162.73Zm.14-1.53A2.92,2.92,0,0,0,93.68,160a5.65,5.65,0,0,0,.95-3.61,5.24,5.24,0,0,0-1-3.56,3,3,0,0,0-2.33-1.11A2.91,2.91,0,0,0,89,152.88a5.35,5.35,0,0,0-1,3.54,5.62,5.62,0,0,0,1,3.68A3,3,0,0,0,91.32,161.2Z"/><path class="cls-1" d="M101.25,162.4H99.41V150.56H101v2.77a6,6,0,0,1,1.72-2.54,3.08,3.08,0,0,1,1.76-.58c.19,0,.43,0,.73,0V152h-.37a3.25,3.25,0,0,0-2.54,1.13,4.6,4.6,0,0,0-1.07,3Z"/><path class="cls-1" d="M116.18,146.4v16h-1.67v-2a4,4,0,0,1-3.74,2.36,4.13,4.13,0,0,1-3.42-1.75,7,7,0,0,1-1.33-4.4,7.48,7.48,0,0,1,1.32-4.53,4.15,4.15,0,0,1,3.52-1.82,4.08,4.08,0,0,1,3.48,2V146.4Zm-1.84,8.73a3.34,3.34,0,0,0-1-2.49,3,3,0,0,0-2.22-.94,2.69,2.69,0,0,0-2.25,1.22,5.73,5.73,0,0,0-.89,3.42,6.55,6.55,0,0,0,.82,3.62,2.52,2.52,0,0,0,2.23,1.24,3,3,0,0,0,2.27-1.07,3.64,3.64,0,0,0,1-2.54Z"/><path class="cls-1" d="M129.11,162.4H127.3q-.1-.57-.21-2.13a4.28,4.28,0,0,1-4.15,2.46,4.18,4.18,0,0,1-3.06-1.06,3.45,3.45,0,0,1-1.07-2.54,3.55,3.55,0,0,1,1.53-2.95q1.51-1.16,5.18-1.15c.32,0,.85,0,1.57,0a7,7,0,0,0-.22-2,1.78,1.78,0,0,0-.92-1,3.94,3.94,0,0,0-1.85-.38c-1.87,0-2.95.72-3.26,2.14l-1.7-.3q.63-3.27,5.23-3.27a4.64,4.64,0,0,1,3.47,1.09,5.38,5.38,0,0,1,1,3.75v5A10.28,10.28,0,0,0,129.11,162.4Zm-2-5.92c-.75,0-1.32-.07-1.71-.07a6.62,6.62,0,0,0-3.39.72,2.27,2.27,0,0,0-1.21,2.09,2,2,0,0,0,.65,1.48,2.69,2.69,0,0,0,1.88.61,3.5,3.5,0,0,0,2.74-1.21,4.18,4.18,0,0,0,1.07-2.84Q127.12,156.93,127.09,156.48Z"/><path class="cls-1" d="M141.88,162.4h-1.73v-7.61a3.11,3.11,0,0,0-.71-2.31,2.48,2.48,0,0,0-1.74-.66,3,3,0,0,0-2.36,1.12,4.47,4.47,0,0,0-1,3v6.49h-1.84V150.56h1.71v2.18a4.27,4.27,0,0,1,3.74-2.51,3.81,3.81,0,0,1,3.53,2.23,9.33,9.33,0,0,1,.35,3.09Z"/><path class="cls-1" d="M163.57,154.34v8.28h-1.23l-.55-2a5,5,0,0,1-4.4,2.11,5.78,5.78,0,0,1-4.92-2.38,9.5,9.5,0,0,1-1.76-5.79,9.68,9.68,0,0,1,1.86-6.06,6.05,6.05,0,0,1,5.07-2.43q4.41,0,5.76,4.64l-1.9.46a4.17,4.17,0,0,0-1.53-2.59,4.12,4.12,0,0,0-2.46-.81,3.77,3.77,0,0,0-3.49,1.91,9.37,9.37,0,0,0-1.13,4.8,8.21,8.21,0,0,0,1.26,4.86,4,4,0,0,0,3.43,1.76A3.89,3.89,0,0,0,160.4,160a4.19,4.19,0,0,0,1.13-3.1q0-.36,0-.87h-4v-1.67Z"/><path class="cls-1" d="M176.34,162.4h-1.82q-.11-.57-.21-2.13a4.26,4.26,0,0,1-4.15,2.46,4.17,4.17,0,0,1-3-1.06,3.41,3.41,0,0,1-1.07-2.54,3.57,3.57,0,0,1,1.52-2.95c1-.77,2.74-1.15,5.18-1.15.33,0,.85,0,1.57,0a7,7,0,0,0-.21-2,1.85,1.85,0,0,0-.92-1,4,4,0,0,0-1.86-.38c-1.86,0-2.95.72-3.25,2.14l-1.7-.3q.62-3.27,5.22-3.27a4.66,4.66,0,0,1,3.48,1.09,5.43,5.43,0,0,1,1,3.75v5A10.26,10.26,0,0,0,176.34,162.4Zm-2-5.92c-.75,0-1.32-.07-1.71-.07a6.67,6.67,0,0,0-3.39.72,2.28,2.28,0,0,0-1.2,2.09,1.94,1.94,0,0,0,.65,1.48,2.67,2.67,0,0,0,1.88.61,3.5,3.5,0,0,0,2.74-1.21,4.18,4.18,0,0,0,1.07-2.84C174.35,157,174.34,156.78,174.31,156.48Z"/><path class="cls-1" d="M181.61,162.4h-1.84V150.56h1.62v2.77a5.89,5.89,0,0,1,1.72-2.54,3.08,3.08,0,0,1,1.76-.58c.19,0,.43,0,.73,0V152h-.38a3.23,3.23,0,0,0-2.53,1.13,4.66,4.66,0,0,0-1.08,3Z"/><path class="cls-1" d="M193.85,161.14v1.46a14.28,14.28,0,0,1-1.69.13q-3.43,0-3.43-3.59V152h-2.1v-1.44h2.1l.08-3,1.71-.17v3.14h2.65V152h-2.65v7.44c0,1.22.63,1.83,1.9,1.83A8.61,8.61,0,0,0,193.85,161.14Z"/><path class="cls-1" d="M205.19,162.4h-1.72v-7.61a3.07,3.07,0,0,0-.72-2.31,2.44,2.44,0,0,0-1.73-.66,3,3,0,0,0-2.36,1.12,4.42,4.42,0,0,0-1,3v6.49h-1.84V150.56h1.71v2.18a4.28,4.28,0,0,1,3.74-2.51,3.81,3.81,0,0,1,3.54,2.23,9.4,9.4,0,0,1,.34,3.09Z"/><path class="cls-1" d="M216.69,158.87l1.71.35a4.78,4.78,0,0,1-1.83,2.51,5.23,5.23,0,0,1-3.2,1,5,5,0,0,1-3.92-1.71,7.46,7.46,0,0,1,.05-9,5,5,0,0,1,3.92-1.75,4.74,4.74,0,0,1,3.73,1.61,7.25,7.25,0,0,1,1.45,4.8H210c0,1.79.37,3,1.12,3.63a3.68,3.68,0,0,0,2.38.93A3.25,3.25,0,0,0,216.69,158.87Zm-.11-3.6a4.89,4.89,0,0,0-.33-1.77,2.94,2.94,0,0,0-1-1.31,2.76,2.76,0,0,0-1.74-.55,3.11,3.11,0,0,0-2.33,1,4,4,0,0,0-1.07,2.64Z"/><path class="cls-1" d="M223.2,162.4h-1.84V150.56H223v2.77a5.89,5.89,0,0,1,1.72-2.54,3.08,3.08,0,0,1,1.76-.58c.19,0,.43,0,.73,0V152h-.38a3.23,3.23,0,0,0-2.53,1.13,4.66,4.66,0,0,0-1.08,3Z"/><path class="cls-1" d="M33.2,191.2H31.36V179.36H33v2.77a6,6,0,0,1,1.72-2.54,3.08,3.08,0,0,1,1.76-.58c.19,0,.43,0,.73.05v1.76h-.37A3.25,3.25,0,0,0,34.27,182a4.6,4.6,0,0,0-1.07,3Z"/><path class="cls-1" d="M48.52,191.2H46.71q-.1-.57-.21-2.13a4.28,4.28,0,0,1-4.15,2.46,4.18,4.18,0,0,1-3.06-1.06,3.45,3.45,0,0,1-1.07-2.54,3.55,3.55,0,0,1,1.53-3q1.52-1.15,5.18-1.15c.32,0,.85,0,1.57,0a7,7,0,0,0-.22-2,1.78,1.78,0,0,0-.92-1,3.94,3.94,0,0,0-1.85-.38c-1.87,0-2.95.71-3.26,2.14l-1.7-.3q.63-3.27,5.23-3.27a4.64,4.64,0,0,1,3.47,1.09,5.38,5.38,0,0,1,1,3.75v5A10.28,10.28,0,0,0,48.52,191.2Zm-2-5.92c-.75-.05-1.32-.07-1.71-.07a6.62,6.62,0,0,0-3.39.72A2.27,2.27,0,0,0,40.19,188a2,2,0,0,0,.65,1.48,2.69,2.69,0,0,0,1.88.61,3.5,3.5,0,0,0,2.74-1.21,4.18,4.18,0,0,0,1.07-2.84Q46.53,185.73,46.5,185.28Z"/><path class="cls-1" d="M61.29,191.2H59.56v-7.61a3.11,3.11,0,0,0-.71-2.31,2.48,2.48,0,0,0-1.74-.66,3,3,0,0,0-2.36,1.12,4.47,4.47,0,0,0-1,3v6.49H52V179.36h1.71v2.18A4.27,4.27,0,0,1,57.41,179a3.81,3.81,0,0,1,3.53,2.23,9.33,9.33,0,0,1,.35,3.09Z"/><path class="cls-1" d="M74.63,177.51V179a3.27,3.27,0,0,0-1.69.29,1.55,1.55,0,0,0-.57,1,4.29,4.29,0,0,1,1.14,2.86A3.66,3.66,0,0,1,72.27,186,4.66,4.66,0,0,1,69,187.12a3.88,3.88,0,0,1-.81-.07,5.35,5.35,0,0,0-.81-.13,1.4,1.4,0,0,0-.76.31.94.94,0,0,0-.44.8.87.87,0,0,0,.64.92,14.1,14.1,0,0,0,3,.27,18,18,0,0,1,3,.27,3.1,3.1,0,0,1,1.63,1,2.63,2.63,0,0,1,.67,1.83q0,3.38-5.95,3.38a7.68,7.68,0,0,1-4.12-.85,2.6,2.6,0,0,1-1.3-2.27,2.39,2.39,0,0,1,1.81-2.37,2.23,2.23,0,0,1-1.16-1.91A2.29,2.29,0,0,1,66,186.17,3.88,3.88,0,0,1,64.48,183a3.61,3.61,0,0,1,1.32-2.88A4.74,4.74,0,0,1,69,179a5.61,5.61,0,0,1,2.42.51,2.27,2.27,0,0,1,.82-1.61,3.46,3.46,0,0,1,1.94-.44Zm-7.82,13.21a1.78,1.78,0,0,0-1.29,1.63,1.54,1.54,0,0,0,1.06,1.4,6.35,6.35,0,0,0,2.7.5,8.87,8.87,0,0,0,2.79-.43c.84-.29,1.26-.77,1.26-1.45a1.16,1.16,0,0,0-.37-.9,1.78,1.78,0,0,0-1-.45c-.43-.06-1.19-.11-2.27-.14C68.38,190.85,67.42,190.8,66.81,190.72Zm2.2-5a2.62,2.62,0,0,0,1.91-.72,2.5,2.5,0,0,0,.74-1.87A2.6,2.6,0,0,0,69,180.46a2.79,2.79,0,0,0-1.85.7,2.49,2.49,0,0,0-.81,2A2.45,2.45,0,0,0,67.1,185,2.58,2.58,0,0,0,69,185.71Z"/><path class="cls-1" d="M84.57,187.67l1.71.35a4.78,4.78,0,0,1-1.83,2.51,5.21,5.21,0,0,1-3.2,1,5,5,0,0,1-3.92-1.71,7.44,7.44,0,0,1,.06-9A5,5,0,0,1,81.3,179,4.72,4.72,0,0,1,85,180.64a7.15,7.15,0,0,1,1.45,4.8h-8.6c0,1.79.37,3,1.12,3.63a3.7,3.7,0,0,0,2.38.93A3.25,3.25,0,0,0,84.57,187.67Zm-.1-3.6a5.36,5.36,0,0,0-.33-1.77,3.09,3.09,0,0,0-1-1.31,2.81,2.81,0,0,0-1.75-.55,3.16,3.16,0,0,0-2.33,1A4.13,4.13,0,0,0,78,184.07Z"/><path class="cls-1" d="M91.09,191.2H89.25V179.36h1.61v2.77a6,6,0,0,1,1.72-2.54,3.08,3.08,0,0,1,1.76-.58c.19,0,.43,0,.73.05v1.76H94.7A3.25,3.25,0,0,0,92.16,182a4.6,4.6,0,0,0-1.07,3Z"/><path class="cls-1" d="M105,187.67l1.71.35a4.82,4.82,0,0,1-1.82,2.51,5.25,5.25,0,0,1-3.2,1,5,5,0,0,1-3.93-1.71,7.44,7.44,0,0,1,.06-9A5,5,0,0,1,101.7,179a4.76,4.76,0,0,1,3.74,1.61,7.2,7.2,0,0,1,1.44,4.8h-8.6c0,1.79.38,3,1.13,3.63a3.68,3.68,0,0,0,2.38.93A3.23,3.23,0,0,0,105,187.67Zm-.1-3.6a5.36,5.36,0,0,0-.33-1.77,3,3,0,0,0-1-1.31,2.81,2.81,0,0,0-1.75-.55,3.12,3.12,0,0,0-2.32,1,4.08,4.08,0,0,0-1.08,2.65Z"/><path class="cls-1" d="M111.49,191.2h-1.84V179.36h1.62v2.77a6,6,0,0,1,1.71-2.54,3.13,3.13,0,0,1,1.77-.58c.18,0,.43,0,.72.05v1.76h-.37a3.22,3.22,0,0,0-2.53,1.13,4.66,4.66,0,0,0-1.08,3Z"/><path class="cls-1" d="M133.31,185.82l1.83.41c-.88,3.53-2.85,5.3-5.93,5.3a5.53,5.53,0,0,1-4.77-2.45,10.24,10.24,0,0,1-1.72-6,9.21,9.21,0,0,1,1.8-5.94,5.9,5.9,0,0,1,4.84-2.24q4.5,0,5.78,5.15l-1.89.37c-.69-2.54-2-3.82-3.9-3.82a3.73,3.73,0,0,0-3.29,1.78,9,9,0,0,0-1.16,5,8.27,8.27,0,0,0,1.19,4.72,3.65,3.65,0,0,0,3.16,1.78C131.29,189.83,132.65,188.49,133.31,185.82Z"/><path class="cls-1" d="M153.07,191.2h-1.95v-14l-5.19,14h-1.36l-5.25-14v14h-1.7v-16h3l4.83,12.8,4.72-12.8h2.93Z"/><path class="cls-1" d="M155.3,187l1.81-.41a4.51,4.51,0,0,0,4.72,3.27,4.34,4.34,0,0,0,2.86-.81,2.67,2.67,0,0,0,1-2.16,2,2,0,0,0-.73-1.64,4.05,4.05,0,0,0-1.69-.86l-3.2-.79a8.31,8.31,0,0,1-2-.77,3.74,3.74,0,0,1-1.34-1.39,4.24,4.24,0,0,1-.55-2.15,3.86,3.86,0,0,1,1.51-3.19,6.05,6.05,0,0,1,3.88-1.2,5.51,5.51,0,0,1,5.73,3.95l-1.81.54a3.2,3.2,0,0,0-1.49-2.12,4.63,4.63,0,0,0-2.5-.73,4.13,4.13,0,0,0-2.34.7,2.24,2.24,0,0,0-1,2c0,1.18.86,2,2.6,2.4l3,.7c2.73.65,4.1,2.13,4.1,4.42a4.43,4.43,0,0,1-1.54,3.45A7.17,7.17,0,0,1,155.3,187Z"/><path class="cls-1" d="M175,188.13l1.76-.37c.39,1.5,1.62,2.24,3.7,2.24a3.56,3.56,0,0,0,1.95-.51,1.64,1.64,0,0,0,.79-1.45c0-.93-.67-1.52-2-1.77l-2.49-.47a4.51,4.51,0,0,1-2.33-1.11,2.83,2.83,0,0,1-.87-2.16,3.11,3.11,0,0,1,1.18-2.49,4.77,4.77,0,0,1,3.19-1q3.85,0,4.76,3l-1.69.36a2.88,2.88,0,0,0-3-1.85,3.33,3.33,0,0,0-1.84.46,1.46,1.46,0,0,0-.72,1.29c0,.88.61,1.43,1.84,1.65l2.3.42q3.63.66,3.63,3.51a3.12,3.12,0,0,1-1.35,2.63,5.88,5.88,0,0,1-3.59,1C177.37,191.53,175.63,190.39,175,188.13Z"/><path class="cls-1" d="M195.82,179.36l-4.75,13.22q-1,2.86-3.29,2.86a5.56,5.56,0,0,1-1.58-.25v-1.44a5.54,5.54,0,0,0,1.23.17,2.19,2.19,0,0,0,1.47-.51,5.72,5.72,0,0,0,1.18-2.45l-4.1-11.6h1.87l3.18,8.9,3.24-8.9Z"/><path class="cls-1" d="M196.06,188.13l1.76-.37c.39,1.5,1.63,2.24,3.7,2.24a3.54,3.54,0,0,0,1.95-.51,1.65,1.65,0,0,0,.8-1.45c0-.93-.68-1.52-2-1.77l-2.5-.47a4.58,4.58,0,0,1-2.33-1.11,2.83,2.83,0,0,1-.87-2.16,3.12,3.12,0,0,1,1.19-2.49,4.76,4.76,0,0,1,3.18-1q3.85,0,4.76,3l-1.69.36a2.87,2.87,0,0,0-3-1.85,3.36,3.36,0,0,0-1.85.46,1.46,1.46,0,0,0-.72,1.29c0,.88.61,1.43,1.84,1.65l2.31.42q3.61.66,3.62,3.51a3.12,3.12,0,0,1-1.35,2.63,5.85,5.85,0,0,1-3.58,1C198.46,191.53,196.73,190.39,196.06,188.13Z"/><path class="cls-1" d="M214.16,189.94v1.46a14.28,14.28,0,0,1-1.69.13q-3.43,0-3.43-3.59V180.8h-2.1v-1.44H209l.08-3,1.71-.17v3.14h2.65v1.44h-2.65v7.44c0,1.22.63,1.83,1.9,1.83A8.61,8.61,0,0,0,214.16,189.94Z"/><path class="cls-1" d="M223.58,187.67l1.71.35a4.78,4.78,0,0,1-1.83,2.51,5.23,5.23,0,0,1-3.2,1,5,5,0,0,1-3.92-1.71,6.54,6.54,0,0,1-1.5-4.48,6.61,6.61,0,0,1,1.55-4.56,5,5,0,0,1,3.92-1.75,4.72,4.72,0,0,1,3.73,1.61,7.25,7.25,0,0,1,1.45,4.8h-8.6c0,1.79.37,3,1.12,3.63a3.68,3.68,0,0,0,2.38.93A3.25,3.25,0,0,0,223.58,187.67Zm-.11-3.6a4.89,4.89,0,0,0-.33-1.77,2.94,2.94,0,0,0-1-1.31,2.76,2.76,0,0,0-1.74-.55,3.14,3.14,0,0,0-2.33,1,4.08,4.08,0,0,0-1.07,2.65Z"/><path class="cls-1" d="M244.11,191.2h-1.79v-7.36a7.12,7.12,0,0,0-.16-1.71,2.06,2.06,0,0,0-.77-1,2.15,2.15,0,0,0-1.37-.47,2.9,2.9,0,0,0-2,1,4,4,0,0,0-1,2.95v6.67h-1.78v-7.79a2.79,2.79,0,0,0-.75-2.21,2.35,2.35,0,0,0-1.56-.64,2.6,2.6,0,0,0-2,1,3.76,3.76,0,0,0-.87,2.55v7.08h-1.76V179.36h1.59v2.28q1.32-2.61,3.64-2.61a3.06,3.06,0,0,1,2.17.84,3.8,3.8,0,0,1,1.15,2Q238,179,240.54,179a3.35,3.35,0,0,1,2.11.7,3.14,3.14,0,0,1,1.18,1.58,8.78,8.78,0,0,1,.28,2.53Z"/><path class="cls-1" d="M255.61,187.67l1.71.35a4.89,4.89,0,0,1-1.83,2.51,5.23,5.23,0,0,1-3.2,1,5,5,0,0,1-3.93-1.71,7.44,7.44,0,0,1,.06-9,5,5,0,0,1,3.92-1.75,4.74,4.74,0,0,1,3.73,1.61,7.25,7.25,0,0,1,1.45,4.8h-8.61c0,1.79.38,3,1.13,3.63a3.68,3.68,0,0,0,2.38.93A3.25,3.25,0,0,0,255.61,187.67Zm-.11-3.6a5.12,5.12,0,0,0-.33-1.77,2.94,2.94,0,0,0-1-1.31,2.79,2.79,0,0,0-1.75-.55,3.14,3.14,0,0,0-2.32,1,4,4,0,0,0-1.07,2.65Z"/><path class="cls-1" d="M269.61,191.2h-1.72v-7.61a3.07,3.07,0,0,0-.72-2.31,2.44,2.44,0,0,0-1.73-.66,3,3,0,0,0-2.36,1.12,4.42,4.42,0,0,0-1,3v6.49h-1.84V179.36H262v2.18a4.27,4.27,0,0,1,3.74-2.51,3.7,3.7,0,0,1,2.26.69,3.64,3.64,0,0,1,1.27,1.54,9.33,9.33,0,0,1,.35,3.09Z"/><path class="cls-1" d="M281.11,187.67l1.71.35a4.89,4.89,0,0,1-1.83,2.51,5.23,5.23,0,0,1-3.2,1,5,5,0,0,1-3.93-1.71,7.44,7.44,0,0,1,.06-9,5,5,0,0,1,3.92-1.75,4.74,4.74,0,0,1,3.73,1.61,7.25,7.25,0,0,1,1.45,4.8h-8.61c0,1.79.38,3,1.13,3.63a3.68,3.68,0,0,0,2.38.93A3.25,3.25,0,0,0,281.11,187.67Zm-.11-3.6a5.12,5.12,0,0,0-.33-1.77,2.94,2.94,0,0,0-1-1.31,2.79,2.79,0,0,0-1.75-.55,3.14,3.14,0,0,0-2.32,1,4,4,0,0,0-1.07,2.65Z"/></svg>