<svg id="Layer_1" data-name="Layer 1" xmlns="http://www.w3.org/2000/svg" viewBox="0 0 300 250"><defs><style>.cls-1{fill:#fff;}</style></defs><title>text</title><path class="cls-1" d="M14.48,237.45v1.1H8.58v-10H9.86v8.89Z"/><path class="cls-1" d="M20.71,236.35l1.06.22a3,3,0,0,1-1.14,1.57,3.3,3.3,0,0,1-2,.62,3.1,3.1,0,0,1-2.45-1.07,4.05,4.05,0,0,1-.94-2.8,4.11,4.11,0,0,1,1-2.85A3.11,3.11,0,0,1,18.66,231,3,3,0,0,1,21,232a4.54,4.54,0,0,1,.91,3H16.52a2.85,2.85,0,0,0,.71,2.26,2.27,2.27,0,0,0,1.48.59A2,2,0,0,0,20.71,236.35Zm-.07-2.25a3.18,3.18,0,0,0-.21-1.11,1.86,1.86,0,0,0-.64-.82,1.75,1.75,0,0,0-1.09-.34,2,2,0,0,0-1.46.61,2.61,2.61,0,0,0-.67,1.66Z"/><path class="cls-1" d="M22.63,236.63l1.1-.22c.24.93,1,1.4,2.31,1.4a2.16,2.16,0,0,0,1.22-.33,1,1,0,0,0,.5-.9c0-.58-.42-1-1.27-1.11l-1.56-.29a2.89,2.89,0,0,1-1.46-.69,1.79,1.79,0,0,1-.54-1.36,2,2,0,0,1,.74-1.55,3,3,0,0,1,2-.63c1.61,0,2.6.63,3,1.88l-1.06.23a1.8,1.8,0,0,0-1.87-1.16,2.13,2.13,0,0,0-1.15.29.91.91,0,0,0-.45.81c0,.55.38.89,1.15,1l1.44.26c1.51.27,2.27,1,2.27,2.19a2,2,0,0,1-.85,1.65,3.63,3.63,0,0,1-2.24.63C24.13,238.76,23.05,238.05,22.63,236.63Z"/><path class="cls-1" d="M44.25,238.55H43.12V234a4.66,4.66,0,0,0-.09-1.06,1.28,1.28,0,0,0-.48-.65,1.36,1.36,0,0,0-.86-.3,1.82,1.82,0,0,0-1.27.6,2.5,2.5,0,0,0-.61,1.85v4.16H38.69v-4.87a1.71,1.71,0,0,0-.46-1.37,1.49,1.49,0,0,0-1-.41,1.62,1.62,0,0,0-1.27.63,2.32,2.32,0,0,0-.55,1.6v4.42H34.34v-7.39h1v1.42A2.54,2.54,0,0,1,37.6,231a1.91,1.91,0,0,1,1.36.52,2.32,2.32,0,0,1,.71,1.25A2.49,2.49,0,0,1,42,231a2.11,2.11,0,0,1,1.32.43,2,2,0,0,1,.74,1,5.31,5.31,0,0,1,.18,1.57Z"/><path class="cls-1" d="M51.43,236.35l1.07.22a3.1,3.1,0,0,1-1.14,1.57,3.35,3.35,0,0,1-2,.62,3.14,3.14,0,0,1-2.46-1.07,4.68,4.68,0,0,1,0-5.65A3.14,3.14,0,0,1,49.39,231a3,3,0,0,1,2.33,1,4.49,4.49,0,0,1,.9,3H47.25a2.85,2.85,0,0,0,.7,2.26,2.31,2.31,0,0,0,1.49.59A2,2,0,0,0,51.43,236.35Zm-.07-2.25a3.18,3.18,0,0,0-.2-1.11,1.89,1.89,0,0,0-.65-.82,1.73,1.73,0,0,0-1.09-.34,1.94,1.94,0,0,0-1.45.61,2.56,2.56,0,0,0-.67,1.66Z"/><path class="cls-1" d="M55.5,238.55H54.35v-7.39h1v1.72a3.73,3.73,0,0,1,1.08-1.58,2,2,0,0,1,1.1-.36l.45,0v1.1h-.23a2,2,0,0,0-1.58.71,2.91,2.91,0,0,0-.68,1.87Z"/><path class="cls-1" d="M65.7,238.76a2.82,2.82,0,0,1-2.38-1.13,4.5,4.5,0,0,1-.85-2.8,4,4,0,0,1,1-2.82A3.07,3.07,0,0,1,65.81,231a2.92,2.92,0,0,1,2.42,1.11,4.32,4.32,0,0,1,.88,2.78,4.16,4.16,0,0,1-1,2.82A3.13,3.13,0,0,1,65.7,238.76Zm.09-.95a1.86,1.86,0,0,0,1.47-.73,3.54,3.54,0,0,0,.59-2.25,3.35,3.35,0,0,0-.62-2.24,1.91,1.91,0,0,0-1.46-.69,1.86,1.86,0,0,0-1.45.7,3.45,3.45,0,0,0-.59,2.22,3.54,3.54,0,0,0,.59,2.29A1.84,1.84,0,0,0,65.79,237.81Z"/><path class="cls-1" d="M80.75,238.55H79.63V234a4.06,4.06,0,0,0-.1-1.06,1.28,1.28,0,0,0-.48-.65,1.34,1.34,0,0,0-.86-.3,1.82,1.82,0,0,0-1.27.6,2.5,2.5,0,0,0-.61,1.85v4.16H75.2v-4.87a1.72,1.72,0,0,0-.47-1.37,1.47,1.47,0,0,0-1-.41,1.64,1.64,0,0,0-1.27.63,2.37,2.37,0,0,0-.54,1.6v4.42h-1.1v-7.39h1v1.42A2.52,2.52,0,0,1,74.11,231a1.89,1.89,0,0,1,1.35.52,2.41,2.41,0,0,1,.72,1.25A2.49,2.49,0,0,1,78.52,231a2.11,2.11,0,0,1,1.32.43,2,2,0,0,1,.74,1,5.74,5.74,0,0,1,.17,1.57Z"/><path class="cls-1" d="M93.37,237.45v1.1H86.9v-10h6.33v1.09H88.15v3.18h4v1h-4v3.6Z"/><path class="cls-1" d="M96.17,241.05H95v-9.89h1v1.43a2.52,2.52,0,0,1,4.44-.54,4.53,4.53,0,0,1,.81,2.77,4.59,4.59,0,0,1-.83,2.88,2.59,2.59,0,0,1-2.12,1.06,2.44,2.44,0,0,1-2.19-1.33Zm0-7.26v2.08a2.21,2.21,0,0,0,.71,1.39,1.86,1.86,0,0,0,1.25.55,1.76,1.76,0,0,0,1.34-.66,3.51,3.51,0,0,0,.58-2.28,3.79,3.79,0,0,0-.53-2.16,1.64,1.64,0,0,0-1.4-.76,1.69,1.69,0,0,0-1.23.54A2.47,2.47,0,0,0,96.17,233.79Z"/><path class="cls-1" d="M104.22,228.56v1.28H103v-1.28Zm0,2.6v7.39H103v-7.39Z"/><path class="cls-1" d="M105.48,236.63l1.09-.22c.25.93,1,1.4,2.32,1.4a2.12,2.12,0,0,0,1.21-.33,1,1,0,0,0,.5-.9c0-.58-.42-1-1.27-1.11l-1.55-.29a2.89,2.89,0,0,1-1.46-.69,1.79,1.79,0,0,1-.54-1.36,1.92,1.92,0,0,1,.74-1.55,3,3,0,0,1,2-.63c1.6,0,2.6.63,3,1.88l-1,.23a1.82,1.82,0,0,0-1.87-1.16,2.11,2.11,0,0,0-1.15.29.89.89,0,0,0-.45.81c0,.55.38.89,1.15,1l1.44.26c1.51.27,2.26,1,2.26,2.19a2,2,0,0,1-.84,1.65,3.65,3.65,0,0,1-2.24.63C107,238.76,105.89,238.05,105.48,236.63Z"/><path class="cls-1" d="M118.31,236.35l1.07.22a3,3,0,0,1-1.14,1.57,3.3,3.3,0,0,1-2,.62,3.1,3.1,0,0,1-2.45-1.07,4.05,4.05,0,0,1-.94-2.8,4.11,4.11,0,0,1,1-2.85,3.11,3.11,0,0,1,2.44-1.09,3,3,0,0,1,2.33,1,4.54,4.54,0,0,1,.91,3h-5.38a2.85,2.85,0,0,0,.71,2.26,2.27,2.27,0,0,0,1.48.59A2,2,0,0,0,118.31,236.35Zm-.06-2.25A3.18,3.18,0,0,0,118,233a1.86,1.86,0,0,0-.64-.82,1.75,1.75,0,0,0-1.09-.34,2,2,0,0,0-1.46.61,2.61,2.61,0,0,0-.67,1.66Z"/><path class="cls-1" d="M122.39,238.55h-1.15v-7.39h1v1.72a3.64,3.64,0,0,1,1.07-1.58,2,2,0,0,1,1.1-.36l.46,0v1.1h-.24a2,2,0,0,0-1.58.71,2.91,2.91,0,0,0-.67,1.87Z"/><path class="cls-1" d="M132,231.16l-2.56,7.39h-1.18l-2.65-7.39h1.27l2.06,6,2-6Z"/><path class="cls-1" d="M138,236.35l1.07.22a3.1,3.1,0,0,1-1.14,1.57,3.35,3.35,0,0,1-2,.62,3.14,3.14,0,0,1-2.46-1.07,4.68,4.68,0,0,1,0-5.65,3.14,3.14,0,0,1,2.45-1.09,3,3,0,0,1,2.33,1,4.49,4.49,0,0,1,.9,3H133.8a2.85,2.85,0,0,0,.7,2.26,2.31,2.31,0,0,0,1.49.59A2,2,0,0,0,138,236.35Zm-.07-2.25a3.18,3.18,0,0,0-.2-1.11,1.89,1.89,0,0,0-.65-.82,1.73,1.73,0,0,0-1.09-.34,1.94,1.94,0,0,0-1.45.61,2.56,2.56,0,0,0-.67,1.66Z"/><path class="cls-1" d="M142.05,238.55H140.9v-7.39h1v1.72A3.73,3.73,0,0,1,143,231.3a2,2,0,0,1,1.1-.36l.45,0v1.1h-.23a2,2,0,0,0-1.58.71,2.91,2.91,0,0,0-.68,1.87Z"/><path class="cls-1" d="M155.69,235.19l1.14.26c-.54,2.2-1.78,3.31-3.7,3.31a3.45,3.45,0,0,1-3-1.53,6.38,6.38,0,0,1-1.08-3.77,5.69,5.69,0,0,1,1.13-3.71,3.69,3.69,0,0,1,3-1.4q2.82,0,3.61,3.22l-1.18.23c-.43-1.59-1.24-2.39-2.44-2.39a2.32,2.32,0,0,0-2.05,1.11,5.63,5.63,0,0,0-.73,3.12,5.2,5.2,0,0,0,.75,3,2.28,2.28,0,0,0,2,1.11C154.43,237.7,155.27,236.86,155.69,235.19Z"/><path class="cls-1" d="M160.93,238.76a2.81,2.81,0,0,1-2.37-1.13,4.5,4.5,0,0,1-.85-2.8,4,4,0,0,1,1-2.82,3.05,3.05,0,0,1,2.38-1.06,2.93,2.93,0,0,1,2.42,1.11,4.38,4.38,0,0,1,.88,2.78,4.16,4.16,0,0,1-.95,2.82A3.13,3.13,0,0,1,160.93,238.76Zm.09-.95a1.86,1.86,0,0,0,1.48-.73,3.54,3.54,0,0,0,.59-2.25,3.35,3.35,0,0,0-.62-2.24,1.91,1.91,0,0,0-1.46-.69,1.85,1.85,0,0,0-1.45.7,3.39,3.39,0,0,0-.6,2.22,3.47,3.47,0,0,0,.6,2.29A1.82,1.82,0,0,0,161,237.81Z"/><path class="cls-1" d="M176,238.55h-1.12V234a4.55,4.55,0,0,0-.1-1.06,1.28,1.28,0,0,0-.48-.65,1.36,1.36,0,0,0-.86-.3,1.82,1.82,0,0,0-1.27.6,2.5,2.5,0,0,0-.61,1.85v4.16h-1.12v-4.87a1.71,1.71,0,0,0-.46-1.37,1.49,1.49,0,0,0-1-.41,1.62,1.62,0,0,0-1.27.63,2.37,2.37,0,0,0-.55,1.6v4.42h-1.09v-7.39h1v1.42a2.51,2.51,0,0,1,2.27-1.63,1.9,1.9,0,0,1,1.36.52,2.41,2.41,0,0,1,.72,1.25,2.47,2.47,0,0,1,2.33-1.77,2.09,2.09,0,0,1,1.32.43,2,2,0,0,1,.74,1A5.31,5.31,0,0,1,176,234Z"/><path class="cls-1" d="M188.2,238.55h-1.12V234a4.55,4.55,0,0,0-.1-1.06,1.28,1.28,0,0,0-.48-.65,1.36,1.36,0,0,0-.86-.3,1.82,1.82,0,0,0-1.27.6,2.5,2.5,0,0,0-.61,1.85v4.16h-1.12v-4.87a1.71,1.71,0,0,0-.46-1.37,1.49,1.49,0,0,0-1-.41,1.62,1.62,0,0,0-1.27.63,2.32,2.32,0,0,0-.55,1.6v4.42h-1.09v-7.39h1v1.42a2.53,2.53,0,0,1,2.28-1.63,1.91,1.91,0,0,1,1.36.52,2.41,2.41,0,0,1,.72,1.25A2.47,2.47,0,0,1,186,231a2.09,2.09,0,0,1,1.32.43,2,2,0,0,1,.74,1,5.31,5.31,0,0,1,.18,1.57Z"/><path class="cls-1" d="M195.38,236.35l1.07.22a3.1,3.1,0,0,1-1.14,1.57,3.35,3.35,0,0,1-2,.62,3.14,3.14,0,0,1-2.46-1.07,4.68,4.68,0,0,1,0-5.65,3.13,3.13,0,0,1,2.45-1.09,3,3,0,0,1,2.33,1,4.49,4.49,0,0,1,.9,3H191.2a2.85,2.85,0,0,0,.7,2.26,2.31,2.31,0,0,0,1.49.59A2,2,0,0,0,195.38,236.35Zm-.07-2.25a3.18,3.18,0,0,0-.2-1.11,1.89,1.89,0,0,0-.65-.82,1.73,1.73,0,0,0-1.09-.34,1.94,1.94,0,0,0-1.45.61,2.56,2.56,0,0,0-.67,1.66Z"/><path class="cls-1" d="M199.45,238.55H198.3v-7.39h1v1.72a3.73,3.73,0,0,1,1.08-1.58,2,2,0,0,1,1.1-.36l.45,0v1.1h-.23a2,2,0,0,0-1.58.71,2.91,2.91,0,0,0-.68,1.87Z"/><path class="cls-1" d="M207.39,236l1,.18a3.27,3.27,0,0,1-1,1.92,2.64,2.64,0,0,1-1.88.7,2.71,2.71,0,0,1-2.34-1.13,4.66,4.66,0,0,1-.8-2.76,4.46,4.46,0,0,1,.85-2.8,2.71,2.71,0,0,1,2.3-1.12,2.64,2.64,0,0,1,1.94.72,3.21,3.21,0,0,1,.9,1.87l-1,.19q-.28-1.83-1.77-1.83a1.63,1.63,0,0,0-1.46.81,3.89,3.89,0,0,0-.51,2.1,4.06,4.06,0,0,0,.51,2.21,1.62,1.62,0,0,0,1.43.79C206.54,237.81,207.14,237.19,207.39,236Z"/><path class="cls-1" d="M214.89,236.35l1.07.22a3,3,0,0,1-1.14,1.57,3.35,3.35,0,0,1-2,.62,3.1,3.1,0,0,1-2.45-1.07,4.05,4.05,0,0,1-.94-2.8,4.11,4.11,0,0,1,1-2.85,3.14,3.14,0,0,1,2.45-1.09,3,3,0,0,1,2.33,1,4.49,4.49,0,0,1,.9,3h-5.37a2.85,2.85,0,0,0,.7,2.26,2.31,2.31,0,0,0,1.49.59A2,2,0,0,0,214.89,236.35Zm-.06-2.25a3.18,3.18,0,0,0-.21-1.11,1.94,1.94,0,0,0-.64-.82,1.78,1.78,0,0,0-1.1-.34,1.94,1.94,0,0,0-1.45.61,2.56,2.56,0,0,0-.67,1.66Z"/></svg>