<svg id="Layer_1" data-name="Layer 1" xmlns="http://www.w3.org/2000/svg" viewBox="0 0 1250 240"><defs><style>.cls-1{fill:#d4ac76;}</style></defs><title>text</title><path class="cls-1" d="M335,162l-8.15-20.87h3.28l6.25,16,6.27-16h3.22L337.75,162Z"/><path class="cls-1" d="M347.68,162l8.38-20.87h2.64L366.92,162h-3.23l-1.26-3.21H352.2L350.91,162Zm7.54-23.08a1.41,1.41,0,0,1-1,.46,1.34,1.34,0,0,1-1-.46,1.64,1.64,0,0,1-.42-1.14,1.61,1.61,0,0,1,.42-1.13,1.31,1.31,0,0,1,1-.46,1.38,1.38,0,0,1,1,.46,1.62,1.62,0,0,1,.43,1.13A1.65,1.65,0,0,1,355.22,138.9Zm2.16,7L353.32,156h8Zm3.62-7a1.39,1.39,0,0,1-2.07,0,1.64,1.64,0,0,1-.42-1.14,1.61,1.61,0,0,1,.42-1.13,1.39,1.39,0,0,1,2.07,0,1.61,1.61,0,0,1,.42,1.13A1.64,1.64,0,0,1,361,138.9Z"/><path class="cls-1" d="M372.71,162V141.11h7.75a6.53,6.53,0,0,1,4.7,1.82A6.45,6.45,0,0,1,381.49,154l6,7.94h-3.59l-6-8h-2.32v8Zm7.36-18.09h-4.44v7.54H380a4.2,4.2,0,0,0,2.95-1,3.77,3.77,0,0,0,0-5.41A4.06,4.06,0,0,0,380.07,143.89Z"/><path class="cls-1" d="M394.36,162V141.11H400a10.52,10.52,0,0,1,7.3,17.9,10.18,10.18,0,0,1-7.41,3Zm5.71-18.09h-2.79V159.2h2.87a6.72,6.72,0,0,0,5.14-2.24,7.71,7.71,0,0,0,2.09-5.45,7.45,7.45,0,0,0-2.15-5.42A7,7,0,0,0,400.07,143.89Z"/><path class="cls-1" d="M429,152.83h-8.59v6.37h9.18V162H417.48V141.11h11.93v2.78h-9v6.16H429Z"/><path class="cls-1" d="M436.81,162V141.11H448.2v2.78h-8.48v6.56h7.51v2.78h-7.51V162Z"/><path class="cls-1" d="M461.77,162.33a7.29,7.29,0,0,1-5.44-2.18,7.59,7.59,0,0,1-2.13-5.51V141.11h2.91v13.35a5.39,5.39,0,0,0,1.25,3.65,4.26,4.26,0,0,0,3.41,1.44,4.39,4.39,0,0,0,3.45-1.41,5.31,5.31,0,0,0,1.26-3.65V141.11h2.92v13.53a7.59,7.59,0,0,1-2.13,5.51A7.34,7.34,0,0,1,461.77,162.33Z"/><path class="cls-1" d="M477.69,162V141.11h2.91V159.2h8.59V162Z"/><path class="cls-1" d="M495.59,162V141.11h2.91V159.2h8.59V162Z"/><path class="cls-1" d="M507.63,143.89v-2.78h16.9v2.78h-7V162h-2.92V143.89Z"/><path class="cls-1" d="M553.66,152.83h-8.58v6.37h9.18V162h-12.1V141.11H554.1v2.78h-9v6.16h8.58Z"/><path class="cls-1" d="M561.49,162V141.11h7.75a6.53,6.53,0,0,1,4.7,1.82A6.45,6.45,0,0,1,570.27,154l6.05,7.94h-3.6l-6-8h-2.32v8Zm7.36-18.09h-4.44v7.54h4.41a4.24,4.24,0,0,0,3-1,3.78,3.78,0,0,0,0-5.41A4,4,0,0,0,568.85,143.89Z"/><path class="cls-1" d="M583.15,162V141.11h6.38a6.66,6.66,0,0,1,4.6,1.62,5.36,5.36,0,0,1,1.81,4.21,4.91,4.91,0,0,1-2.48,4.48,5.22,5.22,0,0,1,2.24,1.88,4.85,4.85,0,0,1,.84,2.81,5.39,5.39,0,0,1-1.83,4.27,6.79,6.79,0,0,1-4.65,1.6Zm6.08-18.09h-3.17v6.35h3.72a3.14,3.14,0,0,0,2.31-.93,3.18,3.18,0,0,0,.94-2.39,2.68,2.68,0,0,0-1-2.2A4.29,4.29,0,0,0,589.23,143.89Zm.65,8.94h-3.82v6.37h3.63a4.37,4.37,0,0,0,2.88-.89,3,3,0,0,0,1-2.39,2.87,2.87,0,0,0-1-2.23A4.06,4.06,0,0,0,589.88,152.83Z"/><path class="cls-1" d="M607.82,162.31a7,7,0,0,1-4.14-1.25,6.46,6.46,0,0,1-2.47-3.36l2.7-1.33a4.64,4.64,0,0,0,1.47,2.3,3.73,3.73,0,0,0,2.44.86,3.59,3.59,0,0,0,2.83-1.19,4.75,4.75,0,0,0,1-3.23v-14h2.91V155a7.27,7.27,0,0,1-1.89,5.38A6.62,6.62,0,0,1,607.82,162.31Z"/><path class="cls-1" d="M629.79,162.33a7.29,7.29,0,0,1-5.44-2.18,7.56,7.56,0,0,1-2.14-5.51V141.11h2.92v13.35a5.39,5.39,0,0,0,1.25,3.65,4.26,4.26,0,0,0,3.41,1.44,4.39,4.39,0,0,0,3.45-1.41,5.31,5.31,0,0,0,1.26-3.65V141.11h2.92v13.53a7.59,7.59,0,0,1-2.13,5.51A7.34,7.34,0,0,1,629.79,162.33Z"/><path class="cls-1" d="M645.71,162V141.11h5.59a10.52,10.52,0,0,1,7.3,17.9,10.18,10.18,0,0,1-7.41,3Zm5.7-18.09h-2.79V159.2h2.87a6.7,6.7,0,0,0,5.14-2.24,7.71,7.71,0,0,0,2.09-5.45,7.45,7.45,0,0,0-2.15-5.42A7,7,0,0,0,651.41,143.89Z"/><path class="cls-1" d="M665.77,162l8.38-20.87h2.63L685,162h-3.22l-1.26-3.21H670.29L669,162Zm9.69-16.08L671.4,156h8Z"/><path class="cls-1" d="M690.79,162V141.11h2l11.3,14.38V141.11h2.92V162h-1.62l-11.72-14.9V162Z"/><path class="cls-1" d="M715.77,162V141.11h5.59a10.52,10.52,0,0,1,7.31,17.9,10.22,10.22,0,0,1-7.41,3Zm5.7-18.09h-2.78V159.2h2.87A6.73,6.73,0,0,0,726.7,157a7.7,7.7,0,0,0,2.08-5.45,7.41,7.41,0,0,0-2.15-5.42A7,7,0,0,0,721.47,143.89Z"/><path class="cls-1" d="M750.38,152.83H741.8v6.37H751V162h-12.1V141.11h11.94v2.78h-9v6.16h8.58Z"/><path class="cls-1" d="M775.35,162l-8.15-20.87h3.28l6.25,16,6.27-16h3.22L778.06,162Z"/><path class="cls-1" d="M788,162l8.39-20.87H799L807.23,162H804l-1.26-3.21H792.51L791.22,162Zm7.54-23.08a1.4,1.4,0,0,1-1,.46,1.36,1.36,0,0,1-1-.46,1.64,1.64,0,0,1-.42-1.14,1.61,1.61,0,0,1,.42-1.13,1.33,1.33,0,0,1,1-.46,1.36,1.36,0,0,1,1,.46,1.58,1.58,0,0,1,.43,1.13A1.6,1.6,0,0,1,795.53,138.9Zm2.16,7L793.63,156h8Zm3.63-7a1.41,1.41,0,0,1-2.08,0,1.64,1.64,0,0,1-.42-1.14,1.61,1.61,0,0,1,.42-1.13,1.41,1.41,0,0,1,2.08,0,1.61,1.61,0,0,1,.42,1.13A1.64,1.64,0,0,1,801.32,138.9Z"/><path class="cls-1" d="M813,162V141.11h2l11.3,14.38V141.11h2.92V162h-1.62l-11.72-14.9V162Z"/><path class="cls-1" d="M835.25,143.89v-2.78h16.9v2.78h-7V162h-2.91V143.89Z"/><path class="cls-1" d="M853.5,162l8.38-20.87h2.63L872.73,162h-3.22l-1.26-3.21H858l-1.3,3.21Zm9.69-16.08L859.13,156h8Z"/><path class="cls-1" d="M878.53,162V141.11h7.74a6.53,6.53,0,0,1,4.7,1.82A6.45,6.45,0,0,1,887.31,154l6,7.94h-3.59l-6-8h-2.32v8Zm7.35-18.09h-4.44v7.54h4.42a4.22,4.22,0,0,0,2.95-1,3.76,3.76,0,0,0,0-5.41A4,4,0,0,0,885.88,143.89Z"/></svg>