<svg id="Layer_1" data-name="Layer 1" xmlns="http://www.w3.org/2000/svg" viewBox="0 0 160 600"><defs><style>.cls-1{fill:#d80201;}.cls-2{fill:#fff;}</style></defs><title>text</title><rect class="cls-1" x="14.3" y="523.33" width="129.39" height="20.89" rx="10.44"/><path class="cls-2" d="M36.64,538a3.16,3.16,0,0,1-2.79-1.55l1-1a1.86,1.86,0,0,0,1.7,1.08,1.16,1.16,0,0,0,1.26-1.14c0-1.68-3.57-.88-3.57-3.5a2.38,2.38,0,0,1,2.53-2.37,3.6,3.6,0,0,1,2.38.9l-.83,1.09A1.62,1.62,0,0,0,37,530.9c-.52,0-1.13.33-1.13.91,0,1.38,3.57.7,3.57,3.54A2.62,2.62,0,0,1,36.64,538Z"/><path class="cls-2" d="M40.87,537.84v-8.13h4.5v1.37H42.46v1.81h2.8v1.37h-2.8v2.2h2.91v1.38Z"/><path class="cls-2" d="M54.62,537.84l-2.9-3.65-.19.18v3.47H50v-8.13h1.58v3.43l3-3.43h2l-3.44,3.75,3.62,4.38Z"/><path class="cls-2" d="M63.22,537.84l-.69-1.72H59.21l-.74,1.72H56.78l3.53-8.31H61.5l3.43,8.31Zm-2.33-5.93-1.18,2.93H62Z"/><path class="cls-2" d="M73.41,537.84l-.72-5L70.45,538H70l-2.16-5.12-.82,5H65.44L67,529.56H68l2.22,5.31,2.32-5.31h1.08L75,537.84Z"/><path class="cls-2" d="M81.13,534.11c-.79.85-2,.72-3.09.72v3H76.45v-8.13h2.37a2.94,2.94,0,0,1,2.14.62,2.58,2.58,0,0,1,.83,2A2.69,2.69,0,0,1,81.13,534.11Zm-1.39-2.77a1.85,1.85,0,0,0-1.16-.26H78v2.37h.64c.79,0,1.48-.26,1.48-1.17A1.2,1.2,0,0,0,79.74,531.34Z"/><path class="cls-2" d="M88,537.84l-.69-1.72H84l-.74,1.72H81.56l3.52-8.31h1.19l3.43,8.31Zm-2.32-5.93-1.19,2.93h2.33Z"/><path class="cls-2" d="M97.18,538l-5-5.66v5.5H90.65v-8.32h1.09l5,5.66v-5.47h1.59V538Z"/><path class="cls-2" d="M102.6,537.11a2.18,2.18,0,0,1-1.83.92,2.76,2.76,0,0,1-1.9-.77l1-1.15a1,1,0,0,0,.78.45c.89,0,.82-1,.82-1.61v-5.24H103v5.48A3.47,3.47,0,0,1,102.6,537.11Z"/><polygon class="cls-2" points="119.62 534.79 111.06 534.79 111.06 532.62 119.62 532.62 119.62 529.32 125.71 533.71 119.62 537.91 119.62 534.79"/></svg>