<svg id="Layer_1" data-name="Layer 1" xmlns="http://www.w3.org/2000/svg" viewBox="0 0 160 600"><defs><style>.cls-1{fill:#d80201;}.cls-2{fill:#fff;}</style></defs><title>text</title><rect class="cls-1" x="14.3" y="523.33" width="129.39" height="20.89" rx="10.44" ry="10.44"/><path class="cls-2" d="M36.64,538a3.17,3.17,0,0,1-2.79-1.55l1-1a1.86,1.86,0,0,0,1.71,1.08,1.16,1.16,0,0,0,1.26-1.15c0-1.67-3.57-.88-3.57-3.5a2.39,2.39,0,0,1,2.54-2.37,3.57,3.57,0,0,1,2.38.9l-.83,1.09A1.65,1.65,0,0,0,37,530.9c-.52,0-1.13.33-1.13.92,0,1.38,3.57.69,3.57,3.54A2.63,2.63,0,0,1,36.64,538Z"/><path class="cls-2" d="M40.87,537.84v-8.13h4.5v1.38H42.46v1.8h2.8v1.38h-2.8v2.19h2.91v1.38Z"/><path class="cls-2" d="M54.62,537.84l-2.9-3.65-.18.18v3.46H49.95v-8.13h1.58v3.44l3-3.44h2l-3.44,3.75,3.62,4.38Z"/><path class="cls-2" d="M63.22,537.84l-.69-1.72H59.21l-.74,1.72H56.78l3.52-8.3h1.2l3.43,8.3Zm-2.33-5.92-1.18,2.93H62Z"/><path class="cls-2" d="M73.41,537.84l-.72-5-2.24,5.12H70l-2.16-5.12-.82,5h-1.6l1.51-8.28H68l2.22,5.32,2.32-5.32h1.08L75,537.84Z"/><path class="cls-2" d="M81.13,534.11c-.79.85-2,.72-3.1.72v3H76.45v-8.13h2.37a3,3,0,0,1,2.15.62,2.59,2.59,0,0,1,.83,2A2.67,2.67,0,0,1,81.13,534.11Zm-1.39-2.77a1.89,1.89,0,0,0-1.16-.26H78v2.37h.65c.79,0,1.48-.26,1.48-1.17A1.21,1.21,0,0,0,79.74,531.34Z"/><path class="cls-2" d="M88,537.84l-.69-1.72H84l-.74,1.72H81.56l3.52-8.3h1.2l3.43,8.3Zm-2.33-5.92-1.18,2.93h2.33Z"/><path class="cls-2" d="M97.18,538l-5-5.66v5.5H90.65v-8.31h1.1l5,5.66v-5.47h1.58V538Z"/><path class="cls-2" d="M102.6,537.11a2.17,2.17,0,0,1-1.83.93,2.77,2.77,0,0,1-1.9-.77l1-1.16a.94.94,0,0,0,.78.45c.89,0,.82-1,.82-1.61v-5.24H103v5.49A3.47,3.47,0,0,1,102.6,537.11Z"/><polygon class="cls-2" points="119.62 534.79 111.06 534.79 111.06 532.62 119.62 532.62 119.62 529.32 125.71 533.71 119.62 537.91 119.62 534.79"/></svg>