<svg id="Layer_1" data-name="Layer 1" xmlns="http://www.w3.org/2000/svg" viewBox="0 0 250 720"><defs><style>.cls-1{fill:#d4ac76;}</style></defs><title>text</title><path class="cls-1" d="M14.25,537.26l4-10h1.27l4,10H22l-.61-1.55H16.42l-.62,1.55Zm4.66-7.74L17,534.37h3.86Z"/><path class="cls-1" d="M29,537.39a4.85,4.85,0,0,1-1.88-.4,5,5,0,0,1-1.59-1.08l1-1.14a3.78,3.78,0,0,0,1.16.91,2.87,2.87,0,0,0,1.39.37,1.92,1.92,0,0,0,1.3-.43,1.35,1.35,0,0,0,.5-1.07,1.76,1.76,0,0,0-1.27-1.64l-1.19-.48a4.06,4.06,0,0,1-1.64-1.07,2.39,2.39,0,0,1-.54-1.59,2.5,2.5,0,0,1,.83-1.9,2.83,2.83,0,0,1,2.05-.79A4.06,4.06,0,0,1,32,528.19l-.84,1.13a2.78,2.78,0,0,0-2.07-.9,1.57,1.57,0,0,0-1.07.35,1.16,1.16,0,0,0-.41.93,1.12,1.12,0,0,0,.3.78,2.89,2.89,0,0,0,1,.62l1.21.48a2.85,2.85,0,0,1,2.11,2.87,2.74,2.74,0,0,1-.89,2.12A3.39,3.39,0,0,1,29,537.39Z"/><path class="cls-1" d="M35.7,537.26v-10h1.4V532l4.19-4.76h1.88l-3.54,4,3.63,6.07H41.52l-2.92-4.91L37.1,534v3.22Z"/><path class="cls-1" d="M46.32,537.26v-10h1.4v10Z"/><path class="cls-1" d="M51.84,537.26v-10h1.45l3.23,5.35,3.29-5.35h1.38v10h-1.4v-7.43l0,0L56.51,535l-3.17-5.12h-.09v7.38Z"/><path class="cls-1" d="M67.77,537.39a4.85,4.85,0,0,1-1.88-.4,5,5,0,0,1-1.59-1.08l1-1.14a3.78,3.78,0,0,0,1.16.91,2.9,2.9,0,0,0,1.39.37,1.92,1.92,0,0,0,1.3-.43,1.35,1.35,0,0,0,.5-1.07,1.75,1.75,0,0,0-1.27-1.64l-1.19-.48a4.13,4.13,0,0,1-1.64-1.07,2.39,2.39,0,0,1-.54-1.59,2.53,2.53,0,0,1,.83-1.9,2.83,2.83,0,0,1,2-.79,4.06,4.06,0,0,1,2.91,1.11L70,529.32a2.78,2.78,0,0,0-2.07-.9,1.57,1.57,0,0,0-1.07.35,1.16,1.16,0,0,0-.41.93,1.12,1.12,0,0,0,.3.78,2.89,2.89,0,0,0,1,.62l1.21.48A2.84,2.84,0,0,1,71,534.45a2.77,2.77,0,0,1-.88,2.12A3.43,3.43,0,0,1,67.77,537.39Z"/><path class="cls-1" d="M80,537.26v-10h1.4V532l4.19-4.76h1.88l-3.54,4,3.63,6.07H85.81l-2.92-4.91L81.39,534v3.22Z"/><path class="cls-1" d="M96,527.21h1.63l-3.35,6v4h-1.4v-4l-3.38-6.06h1.68l2.43,4.46Z"/><path class="cls-1" d="M100.52,537.26v-10h3.73a3.15,3.15,0,0,1,2.26.87,3.3,3.3,0,0,1,.16,4.37,3,3,0,0,1-1.93,1l2.91,3.83h-1.73L103,533.42h-1.12v3.84Zm3.54-8.71h-2.14v3.62H104a2.05,2.05,0,0,0,1.43-.49,1.83,1.83,0,0,0,0-2.61A2,2,0,0,0,104.06,528.55Z"/><path class="cls-1" d="M110.94,537.26v-10h1.4V532l4.19-4.76h1.89l-3.55,4,3.64,6.07h-1.75l-2.92-4.91-1.5,1.69v3.22Z"/><path class="cls-1" d="M124.51,537.26l-3.92-10h1.57l3,7.72,3-7.72h1.55l-3.93,10Z"/><path class="cls-1" d="M130.6,537.26l4-10h1.27l4,10h-1.55l-.61-1.55h-4.93l-.62,1.55Zm3.63-11.12a.67.67,0,0,1-.51.22.63.63,0,0,1-.49-.22.74.74,0,0,1-.2-.54.76.76,0,0,1,.2-.55.63.63,0,0,1,.49-.22.67.67,0,0,1,.51.22.81.81,0,0,1,.2.55A.78.78,0,0,1,134.23,526.14Zm1,3.38-1.95,4.85h3.86Zm1.75-3.38a.63.63,0,0,1-.5.22.65.65,0,0,1-.5-.22.78.78,0,0,1-.2-.54.81.81,0,0,1,.2-.55.65.65,0,0,1,.5-.22.63.63,0,0,1,.5.22.76.76,0,0,1,.2.55A.74.74,0,0,1,137,526.14Z"/><path class="cls-1" d="M148.73,532.89v-1.34h3.34v.7a5.17,5.17,0,0,1-5.2,5.18,4.89,4.89,0,0,1-3.66-1.51,5.42,5.42,0,0,1,0-7.42,4.92,4.92,0,0,1,3.66-1.5,5.42,5.42,0,0,1,2.12.42,5.22,5.22,0,0,1,1.72,1.16l-1,1.06a3.57,3.57,0,0,0-2.8-1.3,3.52,3.52,0,0,0-2.66,1.13,4,4,0,0,0,0,5.48,3.49,3.49,0,0,0,2.66,1.14,3.6,3.6,0,0,0,2.41-.88,3.8,3.8,0,0,0,1.27-2.32Z"/><path class="cls-1" d="M163.25,537.41a3.06,3.06,0,0,1-2.19-.85,2.78,2.78,0,0,1-.94-2h1.4a1.49,1.49,0,0,0,.53,1.11,1.78,1.78,0,0,0,2.42,0,1.61,1.61,0,0,0,.5-1.2,1.67,1.67,0,0,0-1.71-1.72h-.58v-1.25h.56a1.58,1.58,0,0,0,1.17-.46,1.54,1.54,0,0,0,.47-1.11,1.48,1.48,0,0,0-.47-1.13,1.61,1.61,0,0,0-1.17-.45,1.58,1.58,0,0,0-1.16.47,1.52,1.52,0,0,0-.46,1.12h-1.41a2.6,2.6,0,0,1,.87-2,3.3,3.3,0,0,1,4.34,0,2.69,2.69,0,0,1,.86,2,2.3,2.3,0,0,1-.42,1.35,2.4,2.4,0,0,1-1.11.86,2.37,2.37,0,0,1,1.17.89,2.4,2.4,0,0,1,.44,1.45,2.83,2.83,0,0,1-.92,2.13A3.06,3.06,0,0,1,163.25,537.41Z"/><path class="cls-1" d="M172.32,537.41a3.45,3.45,0,0,1-2-.61,3.13,3.13,0,0,1-1.19-1.63l1.27-.5a2,2,0,0,0,.73,1,2,2,0,0,0,1.22.4,2,2,0,0,0,2-2,1.89,1.89,0,0,0-.59-1.41,2,2,0,0,0-1.42-.56,1.85,1.85,0,0,0-1.42.61h-1.4v-5.5h5.62v1.34h-4.22v2.7a2.63,2.63,0,0,1,1.42-.4,3.38,3.38,0,0,1,2.47.92,3.08,3.08,0,0,1,.95,2.3,3.2,3.2,0,0,1-1,2.36A3.3,3.3,0,0,1,172.32,537.41Z"/><path class="cls-1" d="M177.43,539.1l1.16-3.22,1.29.45-1.59,3.1Z"/><path class="cls-1" d="M187.6,537.26l4-10h1.27l4,10h-1.55l-.61-1.55h-4.92l-.62,1.55Zm4.67-7.74-2,4.85h3.86Z"/><path class="cls-1" d="M202.34,537.39a4.77,4.77,0,0,1-1.88-.4,5.13,5.13,0,0,1-1.6-1.08l1-1.14a3.91,3.91,0,0,0,1.16.91,2.9,2.9,0,0,0,1.39.37,1.92,1.92,0,0,0,1.3-.43,1.32,1.32,0,0,0,.5-1.07,1.75,1.75,0,0,0-1.27-1.64l-1.18-.48a4.11,4.11,0,0,1-1.65-1.07,2.39,2.39,0,0,1-.54-1.59,2.53,2.53,0,0,1,.83-1.9,2.85,2.85,0,0,1,2.05-.79,4.1,4.1,0,0,1,2.92,1.11l-.85,1.13a2.78,2.78,0,0,0-2.07-.9,1.53,1.53,0,0,0-1.06.35,1.19,1.19,0,0,0-.11,1.71,2.89,2.89,0,0,0,1,.62l1.2.48a2.86,2.86,0,0,1,2.12,2.87,2.78,2.78,0,0,1-.89,2.12A3.41,3.41,0,0,1,202.34,537.39Z"/><path class="cls-1" d="M209.05,537.26v-10h1.41V532l4.18-4.76h1.89l-3.55,4,3.64,6.07h-1.74L212,532.35,210.46,534v3.22Z"/><path class="cls-1" d="M219.67,537.26v-10h1.41v10Z"/><path class="cls-1" d="M225.2,537.26v-10h1.44l3.24,5.35,3.29-5.35h1.37v10h-1.4v-7.43l0,0L229.86,535l-3.17-5.12h-.09v7.38Z"/><path class="cls-1" d="M28.14,557.39a4.85,4.85,0,0,1-1.88-.4,5,5,0,0,1-1.59-1.08l1-1.14a3.78,3.78,0,0,0,1.16.91,2.87,2.87,0,0,0,1.39.37,1.92,1.92,0,0,0,1.3-.43,1.35,1.35,0,0,0,.5-1.07,1.76,1.76,0,0,0-1.27-1.64l-1.19-.48a4.13,4.13,0,0,1-1.64-1.07,2.39,2.39,0,0,1-.54-1.59,2.5,2.5,0,0,1,.83-1.9,2.83,2.83,0,0,1,2.05-.79,4.06,4.06,0,0,1,2.91,1.11l-.84,1.13a2.78,2.78,0,0,0-2.07-.9,1.57,1.57,0,0,0-1.07.35,1.16,1.16,0,0,0-.41.93,1.12,1.12,0,0,0,.3.78,2.89,2.89,0,0,0,1,.62l1.21.48a2.85,2.85,0,0,1,2.11,2.87,2.77,2.77,0,0,1-.88,2.12A3.43,3.43,0,0,1,28.14,557.39Z"/><path class="cls-1" d="M39.45,557.44A5,5,0,0,1,35.83,556a5.4,5.4,0,0,1,0-7.45,5.13,5.13,0,0,1,7.24,0,5.36,5.36,0,0,1,0,7.44A5,5,0,0,1,39.45,557.44ZM36.82,555a3.63,3.63,0,0,0,5.26,0,4,4,0,0,0,0-5.48,3.6,3.6,0,0,0-5.26,0,4,4,0,0,0,0,5.48Zm1.69-8.83a.68.68,0,0,1-1,0,.78.78,0,0,1-.2-.54.81.81,0,0,1,.2-.55.68.68,0,0,1,1,0,.77.77,0,0,1,.21.55A.75.75,0,0,1,38.51,546.14Zm2.79,0a.65.65,0,0,1-.5.22.63.63,0,0,1-.5-.22.74.74,0,0,1-.2-.54.76.76,0,0,1,.2-.55.63.63,0,0,1,.5-.22.65.65,0,0,1,.5.22.81.81,0,0,1,.2.55A.78.78,0,0,1,41.3,546.14Z"/><path class="cls-1" d="M48.09,557.26v-10h1l5.44,6.92v-6.92h1.41v10h-.78l-5.64-7.18v7.18Z"/><path class="cls-1" d="M60.12,557.26v-10h2.69a5,5,0,0,1,5,5,4.88,4.88,0,0,1-1.46,3.62,4.94,4.94,0,0,1-3.57,1.43Zm2.74-8.71H61.52v7.37H62.9a3.26,3.26,0,0,0,2.48-1.08,3.7,3.7,0,0,0,1-2.63,3.56,3.56,0,0,0-1-2.6A3.34,3.34,0,0,0,62.86,548.55Z"/><path class="cls-1" d="M69.78,557.26l4-10h1.27l4,10H77.48l-.6-1.55H72l-.62,1.55Zm4.66-7.74-2,4.85h3.86Z"/><path class="cls-1" d="M87.91,552.89v-1.34h3.34v.7a5.17,5.17,0,0,1-5.2,5.18,4.89,4.89,0,0,1-3.66-1.51,5.42,5.42,0,0,1,0-7.42,4.92,4.92,0,0,1,3.66-1.5,5.33,5.33,0,0,1,2.11.42,5.16,5.16,0,0,1,1.73,1.16l-1,1.06a3.57,3.57,0,0,0-2.8-1.3,3.52,3.52,0,0,0-2.66,1.13,4,4,0,0,0,0,5.48,3.49,3.49,0,0,0,2.66,1.14,3.6,3.6,0,0,0,2.41-.88,3.8,3.8,0,0,0,1.27-2.32Z"/><path class="cls-1" d="M99.44,557.26v-.89l4-5.3a2,2,0,0,0,.56-1.27,1.47,1.47,0,0,0-.44-1.08,1.55,1.55,0,0,0-1.13-.43,1.41,1.41,0,0,0-1.11.49,2,2,0,0,0-.46,1.26h-1.4a3,3,0,0,1,.84-2.13,2.8,2.8,0,0,1,2.13-.87,2.94,2.94,0,0,1,2.13.79,2.58,2.58,0,0,1,.84,2,3.61,3.61,0,0,1-1,2.22l-3.14,4h4.32v1.25Z"/><path class="cls-1" d="M111.21,557.41a3.09,3.09,0,0,1-2.19-.85,2.77,2.77,0,0,1-.93-2h1.4a1.48,1.48,0,0,0,.52,1.11,1.77,1.77,0,0,0,1.18.46,1.75,1.75,0,0,0,1.25-.49,1.61,1.61,0,0,0,.5-1.2,1.69,1.69,0,0,0-1.72-1.72h-.57v-1.25h.56a1.58,1.58,0,0,0,1.17-.46,1.54,1.54,0,0,0,.47-1.11,1.52,1.52,0,0,0-.47-1.13,1.62,1.62,0,0,0-1.18-.45,1.56,1.56,0,0,0-1.15.47,1.53,1.53,0,0,0-.47,1.12h-1.4a2.6,2.6,0,0,1,.87-2,3.28,3.28,0,0,1,4.33,0,2.67,2.67,0,0,1,.87,2,2.24,2.24,0,0,1-.43,1.35,2.33,2.33,0,0,1-1.1.86,2.37,2.37,0,0,1,1.17.89,2.46,2.46,0,0,1,.44,1.45,2.86,2.86,0,0,1-.92,2.13A3.06,3.06,0,0,1,111.21,557.41Z"/><path class="cls-1" d="M125.73,557.39a4.85,4.85,0,0,1-1.88-.4,5,5,0,0,1-1.59-1.08l1-1.14a3.78,3.78,0,0,0,1.16.91,2.87,2.87,0,0,0,1.39.37,1.92,1.92,0,0,0,1.3-.43,1.35,1.35,0,0,0,.5-1.07,1.75,1.75,0,0,0-1.27-1.64l-1.19-.48a4.13,4.13,0,0,1-1.64-1.07,2.39,2.39,0,0,1-.54-1.59,2.53,2.53,0,0,1,.83-1.9,2.83,2.83,0,0,1,2-.79,4.06,4.06,0,0,1,2.91,1.11l-.84,1.13a2.78,2.78,0,0,0-2.07-.9,1.57,1.57,0,0,0-1.07.35,1.16,1.16,0,0,0-.41.93,1.12,1.12,0,0,0,.3.78,2.89,2.89,0,0,0,1,.62l1.21.48a2.84,2.84,0,0,1,2.11,2.87,2.77,2.77,0,0,1-.88,2.12A3.43,3.43,0,0,1,125.73,557.39Z"/><path class="cls-1" d="M138,552.85h-4.14v3.07h4.42v1.34h-5.82v-10h5.74v1.34h-4.34v3H138Z"/><path class="cls-1" d="M141.76,557.26v-10h3.43a3.14,3.14,0,0,1,2.33.94,3.24,3.24,0,0,1,.93,2.39,3.16,3.16,0,0,1-1,2.35,3.28,3.28,0,0,1-2.36.94h-2v3.43Zm3.33-8.71h-1.93v3.94h1.94a1.85,1.85,0,0,0,2-2,2,2,0,0,0-.56-1.43A1.89,1.89,0,0,0,145.09,548.55Z"/><path class="cls-1" d="M150.52,548.55v-1.34h8.14v1.34h-3.37v8.71h-1.4v-8.71Z"/><path class="cls-1" d="M167.15,557.26v-10h1.4V552l4.19-4.76h1.88l-3.54,4,3.63,6.07H173L170,552.35,168.55,554v3.22Z"/><path class="cls-1" d="M177.77,557.26v-10h1.4v8.71h4.13v1.34Z"/><path class="cls-1" d="M193,557.26V549l-1.88,1v-1.33l2.66-1.47h.63v10.1Z"/><path class="cls-1" d="M197.6,557.26v-.89l4-5.3a2,2,0,0,0,.56-1.27,1.47,1.47,0,0,0-.44-1.08,1.53,1.53,0,0,0-1.13-.43,1.4,1.4,0,0,0-1.1.49,1.87,1.87,0,0,0-.46,1.26h-1.41a3,3,0,0,1,.84-2.13,2.83,2.83,0,0,1,2.13-.87,3,3,0,0,1,2.14.79,2.6,2.6,0,0,1,.83,2,3.61,3.61,0,0,1-1.05,2.22l-3.13,4h4.31v1.25Z"/><path class="cls-1" d="M206.57,552.88v-1.25h3.93v1.25Z"/><path class="cls-1" d="M214.31,557.26V549l-1.89,1v-1.33l2.67-1.47h.62v10.1Z"/><path class="cls-1" d="M218.87,555v-.89l3.5-6.86h1.47l-3.31,6.5h2.18V552h1.4v1.69h1.21V555h-1.21v2.3h-1.4V555Z"/></svg>