<svg id="Layer_1" data-name="Layer 1" xmlns="http://www.w3.org/2000/svg" viewBox="0 0 250 720"><defs><style>.cls-1{fill:#d4ac76;}</style></defs><title>text</title><path class="cls-1" d="M49.81,537.26l-3.92-10h1.58l3,7.72,3-7.72H55l-3.93,10Z"/><path class="cls-1" d="M57.55,537.26v-10H59v10Z"/><path class="cls-1" d="M65.26,537.39a4.69,4.69,0,0,1-1.88-.4,5,5,0,0,1-1.59-1.08l1-1.14a3.81,3.81,0,0,0,1.16.92,3,3,0,0,0,1.39.37,1.94,1.94,0,0,0,1.3-.43,1.35,1.35,0,0,0,.5-1.07,1.76,1.76,0,0,0-1.27-1.64l-1.19-.47A4.14,4.14,0,0,1,63,531.36a2.37,2.37,0,0,1-.54-1.59,2.53,2.53,0,0,1,.83-1.9,2.86,2.86,0,0,1,2-.79,4.09,4.09,0,0,1,2.92,1.11l-.84,1.13a2.77,2.77,0,0,0-2.07-.9,1.59,1.59,0,0,0-1.06.35,1.16,1.16,0,0,0-.41.93,1.12,1.12,0,0,0,.3.78,2.8,2.8,0,0,0,1,.62l1.21.49a2.85,2.85,0,0,1,2.11,2.87,2.75,2.75,0,0,1-.89,2.11A3.37,3.37,0,0,1,65.26,537.39Z"/><path class="cls-1" d="M71.72,537.26v-10h1l5.44,6.92v-6.92h1.4v10h-.78l-5.64-7.17v7.17Z"/><path class="cls-1" d="M83.49,537.26v-10h1.4v10Z"/><path class="cls-1" d="M88.75,537.26v-10h1l5.44,6.92v-6.92h1.4v10H95.8l-5.64-7.17v7.17Z"/><path class="cls-1" d="M106.79,532.89v-1.34h3.34v.7a5.17,5.17,0,0,1-5.2,5.17,4.92,4.92,0,0,1-3.67-1.5,5.42,5.42,0,0,1,0-7.42,4.92,4.92,0,0,1,3.67-1.5,5.4,5.4,0,0,1,2.11.42,5.14,5.14,0,0,1,1.72,1.16l-1,1.06a3.56,3.56,0,0,0-2.79-1.3,3.5,3.5,0,0,0-2.67,1.13,4.05,4.05,0,0,0,0,5.48,3.5,3.5,0,0,0,2.67,1.14,3.57,3.57,0,0,0,2.41-.88,3.81,3.81,0,0,0,1.27-2.32Z"/><path class="cls-1" d="M118.51,537.26v-10h1.4v8.71H124v1.34Z"/><path class="cls-1" d="M125.83,537.26l4-10h1.27l4,10h-1.55l-.61-1.55H128l-.62,1.55Zm3.63-11.12a.66.66,0,0,1-.5.22.64.64,0,0,1-.5-.22.84.84,0,0,1,0-1.09.64.64,0,0,1,.5-.22.66.66,0,0,1,.5.22.83.83,0,0,1,0,1.09Zm1,3.37-2,4.86h3.86Zm1.75-3.37a.67.67,0,0,1-1,0,.84.84,0,0,1,0-1.09.68.68,0,0,1,1,0,.84.84,0,0,1,0,1.09Z"/><path class="cls-1" d="M143.7,532.89v-1.34H147v.7a5.17,5.17,0,0,1-5.2,5.17,4.92,4.92,0,0,1-3.67-1.5,5.42,5.42,0,0,1,0-7.42,4.92,4.92,0,0,1,3.67-1.5,5.4,5.4,0,0,1,2.11.42,5.14,5.14,0,0,1,1.72,1.16l-1,1.06a3.56,3.56,0,0,0-2.79-1.3,3.5,3.5,0,0,0-2.67,1.13,4.05,4.05,0,0,0,0,5.48,3.5,3.5,0,0,0,2.67,1.14,3.57,3.57,0,0,0,2.41-.88,3.81,3.81,0,0,0,1.27-2.32Z"/><path class="cls-1" d="M155.78,532.85h-4.13v3.07h4.42v1.34h-5.82v-10H156v1.34h-4.34v3h4.13Z"/><path class="cls-1" d="M159.29,537.26v-10h1l5.44,6.92v-6.92h1.4v10h-.78l-5.64-7.17v7.17Z"/><path class="cls-1" d="M177.34,537.26V532.9h-4.89v4.36h-1.4v-10h1.4v4.35h4.89v-4.35h1.4v10Z"/><path class="cls-1" d="M188.22,532.85h-4.13v3.07h4.42v1.34h-5.82v-10h5.75v1.34h-4.34v3h4.13Z"/><path class="cls-1" d="M190.67,528.55v-1.34h8.14v1.34h-3.37v8.71H194v-8.71Z"/><path class="cls-1" d="M49.05,557.43a3.5,3.5,0,0,1-2.62-1.05,3.65,3.65,0,0,1-1-2.65v-6.51h1.4v6.43a2.59,2.59,0,0,0,.6,1.76,2.05,2.05,0,0,0,1.64.7,2.11,2.11,0,0,0,1.66-.68,2.55,2.55,0,0,0,.61-1.76v-6.44h1.4v6.51a3.65,3.65,0,0,1-1,2.65A3.53,3.53,0,0,1,49.05,557.43Z"/><path class="cls-1" d="M56.46,557.26v-10h1l5.44,6.92v-6.92h1.4v10H63.5l-5.64-7.17v7.17Z"/><path class="cls-1" d="M68.22,557.26v-10h2.69a5.06,5.06,0,0,1,3.52,8.62,4.91,4.91,0,0,1-3.57,1.43ZM71,548.55H69.63v7.37H71a3.25,3.25,0,0,0,2.48-1.08,3.72,3.72,0,0,0,1-2.63,3.58,3.58,0,0,0-1-2.61A3.35,3.35,0,0,0,71,548.55Z"/><path class="cls-1" d="M84.63,552.85H80.5v3.07h4.42v1.34H79.09v-10h5.75v1.34H80.5v3h4.13Z"/><path class="cls-1" d="M88.14,557.26v-10h3.73a3.14,3.14,0,0,1,2.26.87,3.11,3.11,0,0,1-1.76,5.35l2.91,3.82H93.55l-2.88-3.83H89.54v3.83Zm3.54-8.71H89.54v3.63h2.13a2,2,0,0,0,1.42-.5,1.82,1.82,0,0,0,0-2.61A2,2,0,0,0,91.68,548.55Z"/><path class="cls-1" d="M103.48,557.26v-10h3.07a3.21,3.21,0,0,1,2.21.78,2.59,2.59,0,0,1,.87,2,2.37,2.37,0,0,1-1.2,2.16,2.56,2.56,0,0,1,1.08.9,2.36,2.36,0,0,1,.4,1.35,2.6,2.6,0,0,1-.88,2.06,3.27,3.27,0,0,1-2.24.77Zm2.93-8.71h-1.53v3.05h1.79a1.53,1.53,0,0,0,1.12-.44,1.55,1.55,0,0,0,.45-1.15,1.29,1.29,0,0,0-.5-1.06A2.06,2.06,0,0,0,106.41,548.55Zm.31,4.3h-1.84v3.07h1.75a2.08,2.08,0,0,0,1.38-.43,1.43,1.43,0,0,0,.51-1.15,1.38,1.38,0,0,0-.46-1.07A1.94,1.94,0,0,0,106.72,552.85Z"/><path class="cls-1" d="M118,547.21h1.62l-3.34,6v4h-1.4v-4l-3.38-6.06h1.68l2.43,4.46Z"/><path class="cls-1" d="M128,552.89v-1.34h3.34v.7a5.17,5.17,0,0,1-5.2,5.17,4.92,4.92,0,0,1-3.67-1.5,5.42,5.42,0,0,1,0-7.42,4.92,4.92,0,0,1,3.67-1.5,5.4,5.4,0,0,1,2.11.42,5.14,5.14,0,0,1,1.72,1.16l-1,1.06a3.56,3.56,0,0,0-2.79-1.3,3.5,3.5,0,0,0-2.67,1.13,4.05,4.05,0,0,0,0,5.48,3.5,3.5,0,0,0,2.67,1.14,3.57,3.57,0,0,0,2.41-.88,3.81,3.81,0,0,0,1.27-2.32Z"/><path class="cls-1" d="M140.92,552.89v-1.34h3.34v.7a5.17,5.17,0,0,1-5.2,5.17,4.92,4.92,0,0,1-3.67-1.5,5.42,5.42,0,0,1,0-7.42,4.92,4.92,0,0,1,3.67-1.5,5.4,5.4,0,0,1,2.11.42,5.14,5.14,0,0,1,1.72,1.16l-1,1.06a3.56,3.56,0,0,0-2.79-1.3,3.5,3.5,0,0,0-2.67,1.13,4.05,4.05,0,0,0,0,5.48,3.5,3.5,0,0,0,2.67,1.14,3.57,3.57,0,0,0,2.41-.88,3.81,3.81,0,0,0,1.27-2.32Z"/><path class="cls-1" d="M147.46,557.26v-10h1l5.44,6.92v-6.92h1.4v10h-.78l-5.64-7.17v7.17Z"/><path class="cls-1" d="M158.05,557.26l4-10h1.27l4,10h-1.55l-.61-1.55h-4.93l-.62,1.55Zm4.67-7.74-2,4.86h3.86Z"/><path class="cls-1" d="M167.65,548.55v-1.34h8.14v1.34h-3.37v8.71H171v-8.71Z"/><path class="cls-1" d="M178.32,557.26v-10h1.4v10Z"/><path class="cls-1" d="M188,557.44a4.94,4.94,0,0,1-3.62-1.49,5.4,5.4,0,0,1,0-7.45,5.14,5.14,0,0,1,7.24,0,5.36,5.36,0,0,1,0,7.44A4.94,4.94,0,0,1,188,557.44ZM185.35,555a3.64,3.64,0,0,0,5.26,0,4,4,0,0,0,0-5.49,3.61,3.61,0,0,0-5.25,0,4,4,0,0,0,0,5.49Z"/><path class="cls-1" d="M196.36,557.26v-10h1l5.44,6.92v-6.92h1.4v10h-.78l-5.64-7.17v7.17Z"/><path class="cls-1" d="M36.45,577.26v-10h1.4v8.71H42v1.34Z"/><path class="cls-1" d="M48.55,577.44A4.94,4.94,0,0,1,44.93,576a5.4,5.4,0,0,1,0-7.45,5.14,5.14,0,0,1,7.24,0,5.36,5.36,0,0,1,0,7.44A4.94,4.94,0,0,1,48.55,577.44ZM45.92,575a3.64,3.64,0,0,0,5.26,0,4,4,0,0,0,0-5.49,3.61,3.61,0,0,0-5.25,0,4,4,0,0,0,0,5.49Zm1.69-8.83a.66.66,0,0,1-.5.22.64.64,0,0,1-.5-.22.84.84,0,0,1,0-1.09.64.64,0,0,1,.5-.22.66.66,0,0,1,.5.22.82.82,0,0,1,0,1.09Zm2.79,0a.67.67,0,0,1-1,0,.84.84,0,0,1,0-1.09.68.68,0,0,1,1,0,.84.84,0,0,1,0,1.09Z"/><path class="cls-1" d="M56.93,577.26v-10h3.73a3.14,3.14,0,0,1,2.26.87,3.11,3.11,0,0,1-1.76,5.35l2.91,3.82H62.34l-2.88-3.83H58.34v3.83Zm3.54-8.71H58.34v3.63h2.13a2,2,0,0,0,1.42-.5,1.82,1.82,0,0,0,0-2.61A2,2,0,0,0,60.48,568.55Z"/><path class="cls-1" d="M67.1,577.26v-10h2.69a5.06,5.06,0,0,1,3.52,8.62,4.91,4.91,0,0,1-3.57,1.43Zm2.75-8.71H68.5v7.37h1.38a3.25,3.25,0,0,0,2.48-1.08,3.72,3.72,0,0,0,1-2.63,3.58,3.58,0,0,0-1-2.61A3.35,3.35,0,0,0,69.85,568.55Z"/><path class="cls-1" d="M76.5,577.26l4-10H81.8l4,10H84.21l-.61-1.55H78.67l-.62,1.55Zm4.67-7.74-2,4.86h3.86Z"/><path class="cls-1" d="M94.37,572.89v-1.34h3.34v.7a5.17,5.17,0,0,1-5.2,5.17,4.92,4.92,0,0,1-3.67-1.5,5.42,5.42,0,0,1,0-7.42,4.92,4.92,0,0,1,3.67-1.5,5.4,5.4,0,0,1,2.11.42,5.14,5.14,0,0,1,1.72,1.16l-1,1.06a3.56,3.56,0,0,0-2.79-1.3,3.5,3.5,0,0,0-2.67,1.13,4.05,4.05,0,0,0,0,5.48,3.5,3.5,0,0,0,2.67,1.14,3.57,3.57,0,0,0,2.41-.88,3.81,3.81,0,0,0,1.27-2.32Z"/><path class="cls-1" d="M107.23,577.26V569l-1.88,1v-1.34l2.67-1.47h.62v10.1Z"/><path class="cls-1" d="M114.83,577.41a3.05,3.05,0,0,1-2.22-.9,3,3,0,0,1-.92-2.2,2.76,2.76,0,0,1,.4-1.44,3.07,3.07,0,0,1,1.06-1.06,2.49,2.49,0,0,1-.35-4,3,3,0,0,1,4.05,0,2.47,2.47,0,0,1-.34,4,3.07,3.07,0,0,1,1.07,1.06,2.75,2.75,0,0,1,.4,1.45,3,3,0,0,1-.92,2.2A3.07,3.07,0,0,1,114.83,577.41Zm0-1.34a1.67,1.67,0,0,0,1.24-.52,1.74,1.74,0,0,0,.5-1.25,1.65,1.65,0,0,0-.5-1.23,1.71,1.71,0,0,0-1.24-.5,1.69,1.69,0,0,0-1.23.5,1.65,1.65,0,0,0-.5,1.23,1.74,1.74,0,0,0,.5,1.25A1.65,1.65,0,0,0,114.83,576.08Zm0-7.79a1.43,1.43,0,0,0-1,.42,1.41,1.41,0,0,0-.43,1,1.45,1.45,0,0,0,.42,1.06,1.49,1.49,0,0,0,2.1,0,1.43,1.43,0,0,0,.43-1.06,1.4,1.4,0,0,0-.43-1A1.43,1.43,0,0,0,114.83,568.29Z"/><path class="cls-1" d="M126.29,577.26v-10h1l5.44,6.92v-6.92h1.4v10h-.78l-5.64-7.17v7.17Z"/><path class="cls-1" d="M142.45,577.44a4.94,4.94,0,0,1-3.62-1.49,5.4,5.4,0,0,1,0-7.45,5.14,5.14,0,0,1,7.24,0,5.36,5.36,0,0,1,0,7.44A4.94,4.94,0,0,1,142.45,577.44ZM139.82,575a3.64,3.64,0,0,0,5.26,0,4,4,0,0,0,0-5.49,3.61,3.61,0,0,0-5.25,0,4,4,0,0,0,0,5.49Z"/><path class="cls-1" d="M153.22,577.26l-3.92-10h1.58l3,7.72,3-7.72h1.55l-3.93,10Z"/><path class="cls-1" d="M166.5,572.85h-4.13v3.07h4.42v1.34H161v-10h5.75v1.34h-4.34v3h4.13Z"/><path class="cls-1" d="M170,577.26v-10h1.44l3.24,5.36,3.29-5.36h1.38v10h-1.4v-7.42l0,0L174.67,575l-3.17-5.12h-.09v7.38Z"/><path class="cls-1" d="M183.23,577.26v-10h3.07a3.21,3.21,0,0,1,2.21.78,2.59,2.59,0,0,1,.87,2,2.37,2.37,0,0,1-1.2,2.16,2.56,2.56,0,0,1,1.08.9,2.36,2.36,0,0,1,.4,1.35,2.6,2.6,0,0,1-.88,2.06,3.27,3.27,0,0,1-2.24.77Zm2.93-8.71h-1.53v3.05h1.79a1.53,1.53,0,0,0,1.12-.44A1.55,1.55,0,0,0,188,570a1.29,1.29,0,0,0-.5-1.06A2.06,2.06,0,0,0,186.16,568.55Zm.31,4.3h-1.84v3.07h1.75a2.08,2.08,0,0,0,1.38-.43,1.43,1.43,0,0,0,.51-1.15,1.38,1.38,0,0,0-.46-1.07A1.94,1.94,0,0,0,186.47,572.85Z"/><path class="cls-1" d="M198.48,572.85h-4.13v3.07h4.42v1.34h-5.82v-10h5.75v1.34h-4.34v3h4.13Z"/><path class="cls-1" d="M202,577.26v-10h3.73a3.14,3.14,0,0,1,2.26.87,3.11,3.11,0,0,1-1.76,5.35l2.91,3.82h-1.73l-2.88-3.83h-1.12v3.83Zm3.54-8.71h-2.14v3.63h2.13a2,2,0,0,0,1.42-.5,1.82,1.82,0,0,0,0-2.61A2,2,0,0,0,205.53,568.55Z"/><path class="cls-1" d="M75.83,597.26v-10h1.4V592l4.19-4.77h1.88l-3.54,4,3.63,6.06H81.66l-2.92-4.9L77.24,594v3.22Z"/><path class="cls-1" d="M86.2,597.26v-10h1.4v8.71h4.13v1.34Z"/><path class="cls-1" d="M100.87,597.26V589L99,590v-1.34l2.67-1.47h.62v10.1Z"/><path class="cls-1" d="M107.1,597.26V589l-1.88,1v-1.34l2.67-1.47h.62v10.1Z"/><path class="cls-1" d="M113,597.17a.81.81,0,0,1-.6.25.8.8,0,0,1-.59-.25.88.88,0,0,1,0-1.2.8.8,0,0,1,.6-.24.82.82,0,0,1,.6.24.86.86,0,0,1,0,1.2Z"/><path class="cls-1" d="M118.87,597.41a3.09,3.09,0,0,1-2.19-.85,2.8,2.8,0,0,1-.94-2h1.4a1.47,1.47,0,0,0,.52,1.1,1.71,1.71,0,0,0,1.17.46,1.73,1.73,0,0,0,1.25-.48,1.6,1.6,0,0,0,.5-1.2,1.68,1.68,0,0,0-1.71-1.72h-.58v-1.25h.56A1.59,1.59,0,0,0,120,591a1.57,1.57,0,0,0,0-2.23,1.63,1.63,0,0,0-1.18-.45,1.57,1.57,0,0,0-1.15.46,1.52,1.52,0,0,0-.47,1.12h-1.4a2.6,2.6,0,0,1,.87-2,3.27,3.27,0,0,1,4.33,0,2.65,2.65,0,0,1,.87,2,2.26,2.26,0,0,1-.43,1.35,2.35,2.35,0,0,1-1.11.86,2.43,2.43,0,0,1,1.17.89,2.46,2.46,0,0,1,.44,1.46,2.84,2.84,0,0,1-.92,2.13A3.07,3.07,0,0,1,118.87,597.41Z"/><path class="cls-1" d="M128.1,597.4a3.21,3.21,0,0,1-3.28-3.29V590.3a3.14,3.14,0,0,1,1-2.33,3.39,3.39,0,0,1,4.67,0,3.1,3.1,0,0,1,.95,2.31v3.85a3.15,3.15,0,0,1-1,2.34A3.2,3.2,0,0,1,128.1,597.4Zm-1.35-1.88a1.95,1.95,0,0,0,2.69,0,1.9,1.9,0,0,0,.53-1.39V590.3a1.88,1.88,0,0,0-.53-1.38,1.94,1.94,0,0,0-2.69,0,1.9,1.9,0,0,0-.53,1.38v3.82A1.9,1.9,0,0,0,126.75,595.52Z"/><path class="cls-1" d="M134.37,592.88v-1.25h3.93v1.25Z"/><path class="cls-1" d="M141.85,597.26V589L140,590v-1.34l2.67-1.47h.62v10.1Z"/><path class="cls-1" d="M149.21,597.41a3.09,3.09,0,0,1-2.19-.85,2.8,2.8,0,0,1-.94-2h1.4a1.47,1.47,0,0,0,.52,1.1,1.71,1.71,0,0,0,1.17.46,1.73,1.73,0,0,0,1.25-.48,1.6,1.6,0,0,0,.5-1.2,1.68,1.68,0,0,0-1.71-1.72h-.58v-1.25h.56a1.59,1.59,0,0,0,1.17-.47,1.57,1.57,0,0,0,0-2.23,1.63,1.63,0,0,0-1.18-.45,1.57,1.57,0,0,0-1.15.46,1.52,1.52,0,0,0-.47,1.12h-1.4a2.6,2.6,0,0,1,.87-2,3.27,3.27,0,0,1,4.33,0,2.65,2.65,0,0,1,.87,2,2.26,2.26,0,0,1-.43,1.35,2.35,2.35,0,0,1-1.11.86,2.43,2.43,0,0,1,1.17.89,2.46,2.46,0,0,1,.44,1.46,2.84,2.84,0,0,1-.92,2.13A3.07,3.07,0,0,1,149.21,597.41Z"/><path class="cls-1" d="M156,597.17a.81.81,0,0,1-.6.25.8.8,0,0,1-.59-.25.88.88,0,0,1,0-1.2.8.8,0,0,1,.6-.24.82.82,0,0,1,.6.24.86.86,0,0,1,0,1.2Z"/><path class="cls-1" d="M161.91,597.41a3.09,3.09,0,0,1-2.19-.85,2.8,2.8,0,0,1-.94-2h1.4a1.47,1.47,0,0,0,.52,1.1,1.71,1.71,0,0,0,1.17.46,1.73,1.73,0,0,0,1.25-.48,1.6,1.6,0,0,0,.5-1.2,1.68,1.68,0,0,0-1.71-1.72h-.58v-1.25h.56a1.59,1.59,0,0,0,1.17-.47,1.57,1.57,0,0,0,0-2.23,1.63,1.63,0,0,0-1.18-.45,1.57,1.57,0,0,0-1.15.46,1.52,1.52,0,0,0-.47,1.12h-1.4a2.6,2.6,0,0,1,.87-2,3.27,3.27,0,0,1,4.33,0,2.65,2.65,0,0,1,.87,2,2.26,2.26,0,0,1-.43,1.35,2.35,2.35,0,0,1-1.11.86,2.43,2.43,0,0,1,1.17.89,2.46,2.46,0,0,1,.44,1.46,2.84,2.84,0,0,1-.92,2.13A3.07,3.07,0,0,1,161.91,597.41Z"/><path class="cls-1" d="M171.14,597.4a3.21,3.21,0,0,1-3.28-3.29V590.3a3.14,3.14,0,0,1,1-2.33,3.39,3.39,0,0,1,4.67,0,3.1,3.1,0,0,1,.95,2.31v3.85a3.15,3.15,0,0,1-1,2.34A3.2,3.2,0,0,1,171.14,597.4Zm-1.35-1.88a1.95,1.95,0,0,0,2.69,0,1.9,1.9,0,0,0,.53-1.39V590.3a1.88,1.88,0,0,0-.53-1.38,1.94,1.94,0,0,0-2.69,0,1.9,1.9,0,0,0-.53,1.38v3.82A1.9,1.9,0,0,0,169.8,595.52Z"/></svg>