<svg id="Layer_1" data-name="Layer 1" xmlns="http://www.w3.org/2000/svg" viewBox="0 0 250 720"><defs><style>.cls-1{fill:#d80201;}</style></defs><title>text</title><path class="cls-1" d="M23.5,401V392H15V401h-3.9v-20H15v7.74H23.5v-7.74h3.9v20Z"/><path class="cls-1" d="M41.35,401v-1.71a5,5,0,0,1-4.23,2.13c-3.9,0-6.39-3.24-6.39-7s2.49-6.87,6.3-6.87a5.41,5.41,0,0,1,4.32,2.07V388H45v13Zm-6.27-15.42a2.16,2.16,0,0,1,0-4.32,2.16,2.16,0,1,1,0,4.32Zm3,5.28a3.65,3.65,0,1,0,3.63,3.63A3.62,3.62,0,0,0,38.11,390.81Zm3.21-5.28a2.19,2.19,0,0,1-2.16-2.16,2.16,2.16,0,1,1,2.16,2.16Z"/><path class="cls-1" d="M57,391.26a3.21,3.21,0,0,0-1.74-.45c-2.46,0-3.12,1.74-3.12,3.9V401H48.49V388h3.63v2a4.24,4.24,0,0,1,5.37-2.07Z"/><path class="cls-1" d="M76.72,401v-1.71a5,5,0,0,1-4.23,2.13c-3.9,0-6.39-3.24-6.39-7s2.49-6.87,6.3-6.87a5.41,5.41,0,0,1,4.32,2.07V388h3.66v13Zm-6.27-15.42a2.16,2.16,0,0,1,0-4.32,2.16,2.16,0,0,1,0,4.32Zm3,5.28a3.65,3.65,0,1,0,3.63,3.63A3.62,3.62,0,0,0,73.48,390.81Zm3.21-5.28a2.19,2.19,0,0,1-2.16-2.16,2.16,2.16,0,1,1,2.16,2.16Z"/><path class="cls-1" d="M92.35,391.26a3.21,3.21,0,0,0-1.74-.45c-2.46,0-3.12,1.74-3.12,3.9V401H83.86V388h3.63v2a4.24,4.24,0,0,1,5.37-2.07Z"/><path class="cls-1" d="M112.09,401v-1.71a5,5,0,0,1-4.23,2.13c-3.9,0-6.39-3.24-6.39-7s2.49-6.87,6.3-6.87a5.41,5.41,0,0,1,4.32,2.07V378.48h3.66V401Zm-3.24-10.14a3.65,3.65,0,1,0,3.63,3.63A3.62,3.62,0,0,0,108.85,390.81Z"/><path class="cls-1" d="M127.72,391.26a3.21,3.21,0,0,0-1.74-.45c-2.46,0-3.12,1.74-3.12,3.9V401h-3.63V388h3.63v2a4.24,4.24,0,0,1,5.37-2.07Z"/><path class="cls-1" d="M136.78,401.37c-4.14,0-7.44-2.58-7.44-6.9s3.3-6.93,7.47-6.93,7.38,2.61,7.38,6.9S140.89,401.37,136.78,401.37Zm-3.15-15.84a2.16,2.16,0,0,1,0-4.32,2.16,2.16,0,0,1,0,4.32Zm3.12,5.28a3.65,3.65,0,1,0,3.69,3.66A3.67,3.67,0,0,0,136.75,390.81Zm3.12-5.28a2.19,2.19,0,0,1-2.16-2.16,2.16,2.16,0,1,1,2.16,2.16Z"/><path class="cls-1" d="M163.57,401v-7.11c0-1.53-.24-3.21-2.16-3.21-2.13,0-2.49,1.95-2.49,3.66V401h-3.63v-6.9a5.79,5.79,0,0,0-.27-2.16,2.1,2.1,0,0,0-2-1.26,2.37,2.37,0,0,0-2,1.17,5.39,5.39,0,0,0-.42,2.49V401H147V388h3.63v1.47a5,5,0,0,1,4-1.89,4.41,4.41,0,0,1,4.05,2.37,4.8,4.8,0,0,1,4.26-2.37,4.27,4.27,0,0,1,3.63,1.86,5.72,5.72,0,0,1,.69,3.15V401Z"/><path class="cls-1" d="M170.68,401V378.48h3.63V401Z"/><path class="cls-1" d="M187.72,401v-1.71a5,5,0,0,1-4.23,2.13c-3.9,0-6.39-3.24-6.39-7s2.49-6.87,6.3-6.87a5.41,5.41,0,0,1,4.32,2.07V388h3.66v13Zm-6.27-15.42a2.16,2.16,0,0,1,0-4.32,2.16,2.16,0,0,1,0,4.32Zm3,5.28a3.65,3.65,0,1,0,3.63,3.63A3.62,3.62,0,0,0,184.48,390.81Zm3.21-5.28a2.19,2.19,0,0,1-2.16-2.16,2.16,2.16,0,1,1,2.16,2.16Z"/><path class="cls-1" d="M206.92,405.66a7.08,7.08,0,0,1-5.52,2.28c-3.33,0-6.54-1.92-6.9-5.46h3.93a2.89,2.89,0,0,0,3.09,2.37c2.28,0,3.21-1.59,3.21-3.69v-2a5.4,5.4,0,0,1-4.38,2.16c-3.84,0-6.18-3.09-6.18-6.75s2.4-7.08,6.36-7.08a4.87,4.87,0,0,1,4.2,2.1V388h3.66v12.51C208.39,402.51,208.3,404,206.92,405.66Zm-5.37-14.85a3.65,3.65,0,1,0,3.63,3.63A3.62,3.62,0,0,0,201.55,390.81Z"/><path class="cls-1" d="M214.9,395c.06,2,1,3.48,3.18,3.48a3.4,3.4,0,0,0,3.09-1.74l3.36.54a6.37,6.37,0,0,1-6.39,4.05c-4.2,0-7-2.7-7-6.93s2.64-6.9,6.81-6.9,6.63,2.88,6.63,7V395Zm3.15-4.92a3,3,0,0,0-3,2.61h6.15A3,3,0,0,0,218.05,390.12Z"/><path class="cls-1" d="M231.07,391.08V401h-3.63v-9.87H226V388h1.44v-4.44h3.63V388h2.55v3.12Z"/><path class="cls-1" d="M237.52,401.34a2.34,2.34,0,1,1,2.34-2.34A2.34,2.34,0,0,1,237.52,401.34Zm-1.86-6.12V380.94h3.72v14.28Z"/><path class="cls-1" d="M27.34,438H20.62v-20h4.95c1.62,0,3.6.15,4.89,1.2a5.35,5.35,0,0,1,1.8,4.11,4.19,4.19,0,0,1-2.19,4,4.56,4.56,0,0,1,2.61,1.26,5.39,5.39,0,0,1,1.44,3.75C34.12,436.27,30.94,438,27.34,438Zm-1.68-16.83H24.52v5.16h1.11c1.74,0,3-.69,3-2.58S27.4,421.12,25.66,421.12Zm.66,8.13h-1.8v5.55H26.2c1.92,0,3.9-.45,3.9-2.79S28.18,429.25,26.32,429.25Z"/><path class="cls-1" d="M40.93,444.91H36.82L41.59,436l-6.15-11h4.23l3.9,7.38L47.29,425h4.14Z"/><path class="cls-1" d="M65.26,442.66a7.08,7.08,0,0,1-5.52,2.28c-3.33,0-6.54-1.92-6.9-5.46h3.93a2.89,2.89,0,0,0,3.09,2.37c2.28,0,3.21-1.59,3.21-3.69v-2a5.4,5.4,0,0,1-4.38,2.16c-3.84,0-6.18-3.09-6.18-6.75s2.4-7.08,6.36-7.08a4.87,4.87,0,0,1,4.2,2.1V425h3.66v12.51C66.73,439.51,66.64,441,65.26,442.66Zm-5.37-14.85a3.65,3.65,0,1,0,3.63,3.63A3.62,3.62,0,0,0,59.89,427.81Z"/><path class="cls-1" d="M82.27,442.66a7.08,7.08,0,0,1-5.52,2.28c-3.33,0-6.54-1.92-6.9-5.46h3.93a2.89,2.89,0,0,0,3.09,2.37c2.28,0,3.21-1.59,3.21-3.69v-2a5.4,5.4,0,0,1-4.38,2.16c-3.84,0-6.18-3.09-6.18-6.75s2.4-7.08,6.36-7.08a4.87,4.87,0,0,1,4.2,2.1V425h3.66v12.51C83.74,439.51,83.65,441,82.27,442.66ZM76.9,427.81a3.65,3.65,0,1,0,3.63,3.63A3.62,3.62,0,0,0,76.9,427.81Z"/><path class="cls-1" d="M103.6,438v-7.2c0-1.77-.39-3.12-2.46-3.12-2.25,0-2.79,1.65-2.79,3.6V438H94.72V425h3.63v1.59a4.79,4.79,0,0,1,4.08-2,4.49,4.49,0,0,1,4.8,5.16V438Z"/><path class="cls-1" d="M113.83,444.91h-4.11l4.77-8.91-6.15-11h4.23l3.9,7.38,3.72-7.38h4.14Z"/><path class="cls-1" d="M129.76,428.08V438h-3.63v-9.87h-1.44V425h1.44v-4.44h3.63V425h2.55v3.12Z"/><path class="cls-1" d="M137.86,428.08V438h-3.63v-9.87h-1.44V425h1.44v-4.44h3.63V425h2.55v3.12Z"/><path class="cls-1" d="M158.68,438v-7.11c0-1.8-.39-3.21-2.49-3.21-2.25,0-2.76,1.74-2.76,3.66V438H149.8V415.48h3.63v11.16a4.73,4.73,0,0,1,4.08-2.1,5,5,0,0,1,3.78,1.59,5.15,5.15,0,0,1,1,3.66V438Z"/><path class="cls-1" d="M172.06,438.37c-3.57,0-6.27-1.59-6.27-5.46v-8h3.63v7.35c0,1.77.75,3,2.64,3s2.64-1.2,2.64-3V425h3.66v8C178.36,436.78,175.63,438.37,172.06,438.37Z"/><path class="cls-1" d="M186,438.37a6.91,6.91,0,0,1-4.95-2.16L183,434a4.22,4.22,0,0,0,3.06,1.53,1.53,1.53,0,0,0,1.65-1.44c0-2.22-5.79-1.11-5.79-5.49,0-2.64,2.19-4.11,4.65-4.11a6.69,6.69,0,0,1,4.23,1.38L189,428a3.62,3.62,0,0,0-2.16-.87c-.63,0-1.38.39-1.38,1.11,0,1.89,6,1,6,5.49C191.41,436.75,188.77,438.37,186,438.37Z"/><path class="cls-1" d="M210.37,438v-7.2c0-1.77-.39-3.12-2.46-3.12-2.25,0-2.79,1.65-2.79,3.6V438h-3.63V425h3.63v1.59a4.79,4.79,0,0,1,4.08-2,4.49,4.49,0,0,1,4.8,5.16V438Z"/><path class="cls-1" d="M223.75,438.37c-3.57,0-6.27-1.59-6.27-5.46v-8h3.63v7.35c0,1.77.75,3,2.64,3s2.64-1.2,2.64-3V425h3.66v8C230.05,436.78,227.32,438.37,223.75,438.37Z"/></svg>