<svg id="Layer_1" data-name="Layer 1" xmlns="http://www.w3.org/2000/svg" viewBox="0 0 250 720"><defs><style>.cls-1{fill:#d80201;}</style></defs><title>text</title><path class="cls-1" d="M92.74,398.44a8.57,8.57,0,0,1-6.79,3,8.43,8.43,0,0,1-6.79-3,8.93,8.93,0,0,1-1.52-5.52V380.27h4v11.84a7,7,0,0,0,.65,3.72A4.17,4.17,0,0,0,86,397.76a4.27,4.27,0,0,0,3.63-1.92,6.66,6.66,0,0,0,.65-3.72V380.27h4v12.65A8.73,8.73,0,0,1,92.74,398.44Z"/><path class="cls-1" d="M106.66,401.39a5.37,5.37,0,0,1-4.5-2.2v8.93H98.41V387.53h3.75v1.71a5.35,5.35,0,0,1,4.4-2.14c4,0,6.64,3.32,6.64,7.16S110.6,401.39,106.66,401.39Zm-1.12-10.91a3.77,3.77,0,1,0,3.75,3.75A3.74,3.74,0,0,0,105.55,390.47Z"/><path class="cls-1" d="M124.3,401.39a5.37,5.37,0,0,1-4.5-2.2v8.93h-3.75V387.53h3.75v1.71a5.35,5.35,0,0,1,4.4-2.14c4,0,6.64,3.32,6.64,7.16S128.24,401.39,124.3,401.39Zm-1.12-10.91a3.77,3.77,0,1,0,3.75,3.75A3.74,3.74,0,0,0,123.18,390.47Z"/><path class="cls-1" d="M133.69,401V377.73h3.75V401Z"/><path class="cls-1" d="M144.17,394.84c.06,2.08,1.05,3.6,3.29,3.6a3.52,3.52,0,0,0,3.19-1.8l3.47.56a6.58,6.58,0,0,1-6.6,4.19c-4.34,0-7.19-2.79-7.19-7.16s2.73-7.13,7-7.13,6.85,3,6.85,7.26v.5Zm3.26-5.08a3,3,0,0,0-3.13,2.7h6.36A3.11,3.11,0,0,0,147.43,389.76Z"/><path class="cls-1" d="M163.24,401.23H161.5l-6.85-13.7h4.22l3.54,7.57,3.53-7.57h4.22Z"/><path class="cls-1" d="M61.68,438l-1.83-12.74-5.71,13H53l-5.49-13L45.47,438H41.41l3.84-21.05H48l5.64,13.52,5.89-13.52H62.3L65.75,438Z"/><path class="cls-1" d="M79.41,438.42a10.73,10.73,0,0,1-11-10.76,11.06,11.06,0,1,1,11,10.76Zm0-17.92a7.13,7.13,0,1,0,6.92,7.1A7,7,0,0,0,79.41,420.5Z"/><path class="cls-1" d="M101.89,438.48H99.75l-8.81-21.21h4.4l5.52,13.89,5.58-13.89h4.37Z"/><path class="cls-1" d="M113.26,438V417.27h11.44v3.5h-7.41v4.59h7.13v3.5h-7.13v5.58h7.41V438Z"/><path class="cls-1" d="M152.11,426H149l-.43,2.79h3.16l-.53,3.38H148l-.93,5.77h-3.88l.93-5.77h-2.85l-.9,5.77h-3.84l.93-5.77h-3.19l.53-3.38H138l.43-2.79h-3.16l.53-3.41H139l.84-5.33h3.84l-.87,5.33h2.85l.84-5.33h3.88l-.84,5.33h3.13Zm-9.86,0-.43,2.79h2.85l.43-2.79Z"/><path class="cls-1" d="M160.76,438.48c-3.84,0-7.22-2.48-7.44-6.48h4.06a3.37,3.37,0,1,0,3.5-3.63,6,6,0,0,0-.74.06v-2.91a3.44,3.44,0,0,0,.56,0,2.81,2.81,0,1,0,.09-5.61c-1.77,0-2.6,1.08-2.82,2.73h-3.81c.59-3.91,3-5.92,6.91-5.92,3.44,0,6.29,2,6.29,5.71a4.61,4.61,0,0,1-2.39,4.4,5.09,5.09,0,0,1,3.16,5.08C168.14,436.15,164.69,438.48,160.76,438.48Z"/><path class="cls-1" d="M178.92,438.48c-5.71,0-8-6-8-10.85s2.26-10.88,8-10.88,8,6,8,10.85S184.66,438.48,178.92,438.48Zm0-18.17c-3.16,0-4,4.9-4,7.29s.81,7.35,4,7.35,4-5,4-7.35S182.08,420.31,178.92,420.31Z"/><path class="cls-1" d="M188.25,438l6.11-6.91c1.67-1.89,4.74-5,4.74-7.66a3.09,3.09,0,0,0-3.13-3.07c-2,0-3,1.52-3.07,3.41h-4.31c.28-4.19,3-7,7.25-7,3.88,0,7.29,2.54,7.29,6.64,0,2.88-1.89,5.24-3.75,7.22l-3.6,3.84h7.5V438Z"/></svg>