<svg id="Layer_1" data-name="Layer 1" xmlns="http://www.w3.org/2000/svg" viewBox="0 0 250 720"><defs><style>.cls-1{fill:#d4ac76;}</style></defs><title>text</title><path class="cls-1" d="M94,66.52a6,6,0,0,1-8,0,5.21,5.21,0,0,1-1.58-3.89V53.16h2.75v9.12a3.37,3.37,0,0,0,.76,2.27,2.92,2.92,0,0,0,4.19,0,3.3,3.3,0,0,0,.76-2.24V53.16h2.76v9.48A5.21,5.21,0,0,1,94,66.52Z"/><path class="cls-1" d="M100.54,67.84V53.16h5.27a5,5,0,0,1,5.1,5.07,4.65,4.65,0,0,1-1.49,3.54,5.14,5.14,0,0,1-3.66,1.4h-2.47v4.67Zm5-12h-2.28v4.92h2.32a2.6,2.6,0,0,0,1.84-.65,2.29,2.29,0,0,0,.7-1.76,2.41,2.41,0,0,0-.72-1.81A2.56,2.56,0,0,0,105.57,55.8Z"/><path class="cls-1" d="M115,67.84V53.16h5.27a5,5,0,0,1,5.1,5.07,4.66,4.66,0,0,1-1.49,3.54,5.14,5.14,0,0,1-3.66,1.4h-2.47v4.67Zm5-12h-2.28v4.92H120a2.6,2.6,0,0,0,1.84-.65,2.29,2.29,0,0,0,.7-1.76,2.41,2.41,0,0,0-.72-1.81A2.56,2.56,0,0,0,120,55.8Z"/><path class="cls-1" d="M129.38,67.84V53.16h2.75v12h5.4v2.64Z"/><path class="cls-1" d="M149.69,61.63h-5.43v3.76h6v2.45H141.5V53.16h8.55v2.45h-5.79v3.57h5.43Z"/><path class="cls-1" d="M158.74,67.84l-5.61-14.69H156l4,10.56,4-10.56h2.79l-5.56,14.69Z"/><path class="cls-1" d="M57.95,78.6V76h12.1V78.6H65.38v12H62.62v-12Z"/><path class="cls-1" d="M73.57,90.64V76h5.75a5,5,0,0,1,3.54,1.33,4.57,4.57,0,0,1,1.41,3.48,4.41,4.41,0,0,1-1.05,3,4.73,4.73,0,0,1-2.74,1.56l3.95,5.33h-3.1L77.51,85.4H76.32v5.24Zm5.32-12.24H76.32V83.2h2.56a2.72,2.72,0,0,0,1.91-.65,2.19,2.19,0,0,0,.71-1.7,2.31,2.31,0,0,0-.73-1.74A2.62,2.62,0,0,0,78.89,78.41Z"/><path class="cls-1" d="M88.56,90.64V76h2.75V90.64Z"/><path class="cls-1" d="M100.35,90.64,94.73,76H97.6l4,10.56,4-10.56h2.79l-5.56,14.69Z"/><path class="cls-1" d="M115.22,90.83a7.06,7.06,0,0,1-2.77-.58,7.24,7.24,0,0,1-2.38-1.61l1.75-2.09a5.33,5.33,0,0,0,1.62,1.31,4.15,4.15,0,0,0,1.93.51,2.38,2.38,0,0,0,1.57-.5,1.58,1.58,0,0,0,.61-1.27,2.18,2.18,0,0,0-1.61-2l-1.64-.66a6.3,6.3,0,0,1-2.44-1.62,3.74,3.74,0,0,1-.79-2.5A3.82,3.82,0,0,1,112.32,77a4.27,4.27,0,0,1,3.11-1.23A6.32,6.32,0,0,1,120,77.46l-1.62,2a3.79,3.79,0,0,0-2.9-1.28,2,2,0,0,0-1.32.42,1.31,1.31,0,0,0-.5,1,1.37,1.37,0,0,0,.39,1,3.92,3.92,0,0,0,1.26.76l1.71.68q3.27,1.31,3.33,4.24a4.11,4.11,0,0,1-1.38,3.21A5.35,5.35,0,0,1,115.22,90.83Z"/><path class="cls-1" d="M132.7,84.43h-5.43v3.76h6v2.45h-8.72V76h8.55v2.45h-5.79V82h5.43Z"/><path class="cls-1" d="M137.69,90.64V76h2.75V88h5.4v2.64Z"/><path class="cls-1" d="M158.86,90.64V84.51h-6.29v6.14h-2.75V76h2.75v5.91h6.29V76h2.75V90.64Z"/><path class="cls-1" d="M176.18,89.32a6,6,0,0,1-8,0,5.21,5.21,0,0,1-1.59-3.89V76h2.75v9.12a3.37,3.37,0,0,0,.76,2.27,2.92,2.92,0,0,0,4.18,0,3.3,3.3,0,0,0,.76-2.24V76h2.75v9.48A5.21,5.21,0,0,1,176.18,89.32Z"/><path class="cls-1" d="M186.64,90.83a7.05,7.05,0,0,1-2.77-.58,7.22,7.22,0,0,1-2.38-1.61l1.75-2.09a5.33,5.33,0,0,0,1.62,1.31,4.15,4.15,0,0,0,1.93.51,2.38,2.38,0,0,0,1.57-.5,1.58,1.58,0,0,0,.61-1.27,2.18,2.18,0,0,0-1.61-2l-1.64-.66a6.3,6.3,0,0,1-2.44-1.62,3.74,3.74,0,0,1-.79-2.5A3.81,3.81,0,0,1,183.74,77a4.26,4.26,0,0,1,3.11-1.23,6.32,6.32,0,0,1,4.52,1.68l-1.62,2a3.78,3.78,0,0,0-2.9-1.28,2,2,0,0,0-1.32.42,1.31,1.31,0,0,0-.5,1,1.37,1.37,0,0,0,.39,1,3.92,3.92,0,0,0,1.26.76l1.71.68q3.27,1.31,3.33,4.24a4.11,4.11,0,0,1-1.38,3.21A5.35,5.35,0,0,1,186.64,90.83Z"/></svg>