<svg id="Layer_1" data-name="Layer 1" xmlns="http://www.w3.org/2000/svg" viewBox="0 0 250 720"><defs><style>.cls-1{fill:#d80201;}</style></defs><title>text</title><path class="cls-1" d="M85.28,401l-1.83-12.74-5.71,13H76.63l-5.49-13L69.07,401H65l3.84-21.05h2.76l5.64,13.52,5.89-13.52H85.9L89.34,401Z"/><path class="cls-1" d="M99.42,401.39c-4.28,0-7.69-2.67-7.69-7.13s3.41-7.16,7.72-7.16,7.63,2.7,7.63,7.13S103.66,401.39,99.42,401.39ZM96.16,385a2.23,2.23,0,1,1,0-4.46,2.23,2.23,0,1,1,0,4.46Zm3.22,5.46a3.77,3.77,0,1,0,3.81,3.78A3.8,3.8,0,0,0,99.39,390.47Zm3.22-5.46a2.26,2.26,0,0,1-2.23-2.23,2.23,2.23,0,1,1,2.23,2.23Z"/><path class="cls-1" d="M118.11,401.39a5.28,5.28,0,0,1-4.4-2.2V401H110V377.73h3.75v11.5a5.7,5.7,0,0,1,4.5-2.14c3.94,0,6.54,3.35,6.54,7.1S122.14,401.39,118.11,401.39Zm-1-10.91a3.77,3.77,0,1,0,3.75,3.75A3.74,3.74,0,0,0,117.09,390.47Z"/><path class="cls-1" d="M127.59,401V377.73h3.75V401Z"/><path class="cls-1" d="M138.07,394.84c.06,2.08,1.05,3.6,3.29,3.6a3.52,3.52,0,0,0,3.19-1.8l3.47.56a6.58,6.58,0,0,1-6.6,4.19c-4.34,0-7.19-2.79-7.19-7.16s2.73-7.13,7-7.13,6.85,3,6.85,7.26v.5Zm3.26-5.08a3,3,0,0,0-3.13,2.7h6.36A3.11,3.11,0,0,0,141.33,389.76Z"/><path class="cls-1" d="M159.77,390.94a3.32,3.32,0,0,0-1.8-.46c-2.54,0-3.22,1.8-3.22,4V401H151V387.53h3.75v2a4.38,4.38,0,0,1,5.55-2.14Z"/><path class="cls-1" d="M172.42,401v-1.77a5.19,5.19,0,0,1-4.37,2.2c-4,0-6.6-3.35-6.6-7.19s2.57-7.1,6.51-7.1a5.6,5.6,0,0,1,4.46,2.14v-1.71h3.78V401Zm-3.35-10.48a3.77,3.77,0,1,0,3.75,3.75A3.75,3.75,0,0,0,169.07,390.47Z"/><path class="cls-1" d="M183.58,390.75V401h-3.75v-10.2h-1.49v-3.22h1.49v-4.59h3.75v4.59h2.64v3.22Z"/><path class="cls-1" d="M58,438.23H56.23l-6.85-13.7H53.6l3.53,7.57,3.54-7.57h4.22Z"/><path class="cls-1" d="M68.54,421.12a2.26,2.26,0,1,1,0-4.53,2.26,2.26,0,0,1,0,4.53ZM66.65,438V424.53H70.4V438Z"/><path class="cls-1" d="M78.21,438.39a7.14,7.14,0,0,1-5.12-2.23l2-2.29a4.36,4.36,0,0,0,3.16,1.58A1.58,1.58,0,0,0,79.95,434c0-2.29-6-1.15-6-5.67,0-2.73,2.26-4.25,4.81-4.25a6.92,6.92,0,0,1,4.37,1.43l-1.86,2.2a3.75,3.75,0,0,0-2.23-.9c-.65,0-1.43.4-1.43,1.15,0,2,6.2,1.08,6.2,5.67C83.82,436.71,81.1,438.39,78.21,438.39Z"/><path class="cls-1" d="M95.67,438v-7.44c0-1.83-.4-3.22-2.54-3.22-2.33,0-2.88,1.71-2.88,3.72V438H86.49V424.53h3.75v1.64a5,5,0,0,1,4.22-2.08,4.64,4.64,0,0,1,5,5.33V438Z"/><path class="cls-1" d="M104.84,421.12a2.26,2.26,0,1,1,0-4.53,2.26,2.26,0,0,1,0,4.53ZM102.95,438V424.53h3.75V438Z"/><path class="cls-1" d="M119.41,438v-7.44c0-1.83-.4-3.22-2.54-3.22-2.33,0-2.88,1.71-2.88,3.72V438h-3.75V424.53H114v1.64a5,5,0,0,1,4.22-2.08,4.64,4.64,0,0,1,5,5.33V438Z"/><path class="cls-1" d="M139.22,442.82a7.32,7.32,0,0,1-5.71,2.36c-3.44,0-6.76-2-7.13-5.64h4.06a3,3,0,0,0,3.19,2.45c2.36,0,3.32-1.64,3.32-3.81v-2a5.58,5.58,0,0,1-4.53,2.23c-4,0-6.39-3.19-6.39-7s2.48-7.32,6.57-7.32a5,5,0,0,1,4.34,2.17v-1.74h3.78v12.93C140.74,439.57,140.65,441.15,139.22,442.82Zm-5.55-15.35a3.77,3.77,0,1,0,3.75,3.75A3.75,3.75,0,0,0,133.67,427.47Z"/><path class="cls-1" d="M148.61,438.39a7.14,7.14,0,0,1-5.12-2.23l2-2.29a4.36,4.36,0,0,0,3.16,1.58,1.58,1.58,0,0,0,1.71-1.49c0-2.29-6-1.15-6-5.67,0-2.73,2.26-4.25,4.81-4.25a6.92,6.92,0,0,1,4.37,1.43l-1.86,2.2a3.75,3.75,0,0,0-2.23-.9c-.65,0-1.43.4-1.43,1.15,0,2,6.2,1.08,6.2,5.67C154.22,436.71,151.49,438.39,148.61,438.39Z"/><path class="cls-1" d="M166.06,438V430.6c0-1.86-.4-3.32-2.57-3.32-2.33,0-2.85,1.8-2.85,3.78V438h-3.75V414.73h3.75v11.53a4.89,4.89,0,0,1,4.22-2.17,5.13,5.13,0,0,1,3.91,1.64,5.32,5.32,0,0,1,1.05,3.78V438Z"/><path class="cls-1" d="M179.89,438.39c-3.69,0-6.48-1.64-6.48-5.64v-8.22h3.75v7.6c0,1.83.78,3.07,2.73,3.07s2.73-1.24,2.73-3.07v-7.6h3.78v8.22C186.4,436.74,183.58,438.39,179.89,438.39Z"/><path class="cls-1" d="M194.27,438.39a7.14,7.14,0,0,1-5.12-2.23l2-2.29a4.36,4.36,0,0,0,3.16,1.58A1.58,1.58,0,0,0,196,434c0-2.29-6-1.15-6-5.67,0-2.73,2.26-4.25,4.81-4.25a6.92,6.92,0,0,1,4.37,1.43l-1.86,2.2a3.75,3.75,0,0,0-2.23-.9c-.65,0-1.43.4-1.43,1.15,0,2,6.2,1.08,6.2,5.67C199.89,436.71,197.16,438.39,194.27,438.39Z"/></svg>