<svg id="Layer_1" data-name="Layer 1" xmlns="http://www.w3.org/2000/svg" viewBox="0 0 250 720"><defs><style>.cls-1{fill:#d4ac76;}</style></defs><title>text</title><path class="cls-1" d="M90,67.84V53.16h4.83A4.43,4.43,0,0,1,98,54.38a4.05,4.05,0,0,1,1.26,3,3.46,3.46,0,0,1-1.65,3,4.09,4.09,0,0,1,1.63,1.32,3.12,3.12,0,0,1,.61,1.87,4,4,0,0,1-1.29,3.11,4.6,4.6,0,0,1-3.25,1.19Zm4.51-12.24h-2v3.69h2.19a2,2,0,0,0,1.46-.54,1.8,1.8,0,0,0,.56-1.36,1.57,1.57,0,0,0-.62-1.3A2.57,2.57,0,0,0,94.49,55.61Zm.42,5.89H92.52v3.89h2.33a2.37,2.37,0,0,0,1.66-.55,1.83,1.83,0,0,0,.61-1.42A1.8,1.8,0,0,0,96.54,62,2.34,2.34,0,0,0,94.9,61.5Z"/><path class="cls-1" d="M112.47,61.63H107v3.76h6v2.45h-8.72V53.16h8.55v2.45H107v3.57h5.43Z"/><path class="cls-1" d="M121.37,68a7.06,7.06,0,0,1-2.77-.58,7.24,7.24,0,0,1-2.38-1.61L118,63.76a5.33,5.33,0,0,0,1.62,1.31,4.14,4.14,0,0,0,1.93.51,2.38,2.38,0,0,0,1.57-.5,1.58,1.58,0,0,0,.61-1.27,2.18,2.18,0,0,0-1.61-2l-1.64-.66A6.31,6.31,0,0,1,118,59.5a3.75,3.75,0,0,1-.79-2.5,3.81,3.81,0,0,1,1.25-2.79A4.26,4.26,0,0,1,121.58,53a6.32,6.32,0,0,1,4.52,1.68l-1.62,2a3.78,3.78,0,0,0-2.9-1.28,2,2,0,0,0-1.32.42,1.31,1.31,0,0,0-.5,1,1.37,1.37,0,0,0,.39,1,3.9,3.9,0,0,0,1.26.76l1.71.69q3.27,1.31,3.33,4.24a4.11,4.11,0,0,1-1.38,3.21A5.35,5.35,0,0,1,121.37,68Z"/><path class="cls-1" d="M145.21,60.49A7.62,7.62,0,1,1,143,55.1,7.31,7.31,0,0,1,145.21,60.49ZM134.12,64A4.83,4.83,0,0,0,141,64a5,5,0,0,0,0-7,4.83,4.83,0,0,0-6.91,0,5.07,5.07,0,0,0,0,7Zm2.17-12.35a1.18,1.18,0,0,1-.9.39,1.21,1.21,0,0,1-.91-.39,1.3,1.3,0,0,1-.38-.94,1.28,1.28,0,0,1,1.28-1.31,1.21,1.21,0,0,1,.89.38,1.27,1.27,0,0,1,.38.93A1.32,1.32,0,0,1,136.29,51.65Zm4.37,0a1.41,1.41,0,0,1-1.95,0,1.26,1.26,0,0,1-.4-.94,1.23,1.23,0,0,1,.4-.93,1.44,1.44,0,0,1,1.95,0,1.23,1.23,0,0,1,.4.93A1.26,1.26,0,0,1,140.66,51.65Z"/><path class="cls-1" d="M149.42,67.84V53.16H152v6.47l5.62-6.47H161L155.81,59l5.3,8.83h-3.17l-4-6.71-2,2.22v4.48Z"/><path class="cls-1" d="M39.14,90.64,33.52,76h2.87l4,10.56,4-10.56H47.2L41.64,90.64Z"/><path class="cls-1" d="M50.66,90.64V76h2.75V90.64Z"/><path class="cls-1" d="M58.66,90.64V76h2.75V88h5.4v2.64Z"/><path class="cls-1" d="M70.78,90.64V76h2.75V88h5.4v2.64Z"/><path class="cls-1" d="M81.48,90.64,87.14,76h2.49l5.64,14.69H92.44l-.78-2H85.09l-.78,2Zm6.91-10.58L86,86.16h4.68Z"/><path class="cls-1" d="M106.54,90.64V76h2.66l4.54,7.24,4.6-7.24h2.89V90.64h-2.75V80.59l-.22,0-4.56,7-4.44-6.94h0v10Z"/><path class="cls-1" d="M140.53,83.29a7.62,7.62,0,1,1-2.23-5.39A7.31,7.31,0,0,1,140.53,83.29Zm-11.09,3.5a4.83,4.83,0,0,0,6.91,0,5,5,0,0,0,0-7,4.83,4.83,0,0,0-6.91,0,5.07,5.07,0,0,0,0,7Zm2.17-12.35a1.18,1.18,0,0,1-.9.39,1.21,1.21,0,0,1-.91-.39,1.31,1.31,0,0,1,.91-2.25,1.21,1.21,0,0,1,.89.38,1.28,1.28,0,0,1,.38.93A1.32,1.32,0,0,1,131.62,74.45Zm4.37,0a1.41,1.41,0,0,1-1.95,0,1.26,1.26,0,0,1-.4-.94,1.23,1.23,0,0,1,.4-.93,1.44,1.44,0,0,1,1.95,0,1.23,1.23,0,0,1,.4.93A1.26,1.26,0,0,1,136,74.45Z"/><path class="cls-1" d="M144.75,90.64V76h5.75A5,5,0,0,1,154,77.29a4.57,4.57,0,0,1,1.41,3.48,4.41,4.41,0,0,1-1.05,3,4.72,4.72,0,0,1-2.74,1.56l3.95,5.33h-3.1l-3.81-5.24h-1.19v5.24Zm5.32-12.24h-2.56V83.2h2.56a2.72,2.72,0,0,0,1.91-.65,2.19,2.19,0,0,0,.71-1.7,2.31,2.31,0,0,0-.73-1.74A2.62,2.62,0,0,0,150.07,78.41Z"/><path class="cls-1" d="M158.28,78.6V76h12.1V78.6h-4.67v12H163v-12Z"/><path class="cls-1" d="M173.9,90.64V76h1.93l7.23,9.24V76h2.75V90.64H184l-7.31-9.35v9.35Z"/><path class="cls-1" d="M189.44,90.64,195.1,76h2.49l5.64,14.69H200.4l-.78-2h-6.57l-.78,2Zm5.64-16.2a1.18,1.18,0,0,1-.9.39,1.21,1.21,0,0,1-.91-.39,1.31,1.31,0,0,1,.91-2.25,1.21,1.21,0,0,1,.89.38,1.28,1.28,0,0,1,.38.93A1.32,1.32,0,0,1,195.08,74.45Zm1.27,5.62L194,86.16h4.68Zm3.1-5.62a1.41,1.41,0,0,1-1.95,0,1.26,1.26,0,0,1-.4-.94,1.23,1.23,0,0,1,.4-.93,1.44,1.44,0,0,1,1.95,0,1.23,1.23,0,0,1,.4.93A1.26,1.26,0,0,1,199.45,74.45Z"/><path class="cls-1" d="M210.82,90.83a7.05,7.05,0,0,1-2.77-.58,7.22,7.22,0,0,1-2.38-1.61l1.75-2.09A5.33,5.33,0,0,0,209,87.87a4.15,4.15,0,0,0,1.93.51,2.38,2.38,0,0,0,1.57-.5,1.58,1.58,0,0,0,.61-1.27,2.18,2.18,0,0,0-1.61-2l-1.64-.66a6.3,6.3,0,0,1-2.44-1.62,3.74,3.74,0,0,1-.79-2.5A3.81,3.81,0,0,1,207.92,77,4.26,4.26,0,0,1,211,75.79a6.32,6.32,0,0,1,4.52,1.68l-1.62,2a3.78,3.78,0,0,0-2.9-1.28,2,2,0,0,0-1.32.42,1.31,1.31,0,0,0-.5,1,1.37,1.37,0,0,0,.39,1,3.92,3.92,0,0,0,1.26.76l1.71.68q3.27,1.31,3.33,4.24a4.11,4.11,0,0,1-1.38,3.21A5.35,5.35,0,0,1,210.82,90.83Z"/></svg>