<svg id="Layer_1" data-name="Layer 1" xmlns="http://www.w3.org/2000/svg" viewBox="0 0 250 720"><defs><style>.cls-1{fill:#d80201;}</style></defs><title>text</title><path class="cls-1" d="M24.43,392.69c-1.76,1.89-4.51,1.6-6.86,1.6V401H14.06V383H19.3c1.78,0,3.35.13,4.75,1.38a5.71,5.71,0,0,1,1.83,4.34A5.89,5.89,0,0,1,24.43,392.69Zm-3.08-6.12a4.2,4.2,0,0,0-2.56-.57H17.57v5.24H19c1.76,0,3.27-.57,3.27-2.6A2.66,2.66,0,0,0,21.35,386.57Z"/><path class="cls-1" d="M35.63,392.23a2.93,2.93,0,0,0-1.56-.4c-2.22,0-2.81,1.56-2.81,3.51V401H28V389.26h3.27V391a3.76,3.76,0,0,1,3.4-2.13,3.71,3.71,0,0,1,1.43.27Z"/><path class="cls-1" d="M40.44,395.63c.05,1.81.92,3.14,2.86,3.14a3.07,3.07,0,0,0,2.78-1.57l3,.49a5.72,5.72,0,0,1-5.75,3.64,5.86,5.86,0,0,1-6.26-6.24c0-3.72,2.38-6.2,6.13-6.2s6,2.59,6,6.31v.43Zm2.83-4.42a2.65,2.65,0,0,0-2.72,2.35h5.53A2.71,2.71,0,0,0,43.27,391.21Z"/><path class="cls-1" d="M66.63,401v-6.4c0-1.37-.22-2.88-1.95-2.88-1.91,0-2.24,1.75-2.24,3.29v6H59.18v-6.21a5.06,5.06,0,0,0-.25-1.94,1.88,1.88,0,0,0-1.75-1.13,2.13,2.13,0,0,0-1.84,1.05A4.87,4.87,0,0,0,55,395v6H51.7V389.26H55v1.33a4.5,4.5,0,0,1,3.57-1.7A4,4,0,0,1,62.17,391,4.33,4.33,0,0,1,66,388.89a3.84,3.84,0,0,1,3.27,1.67,5.14,5.14,0,0,1,.62,2.83V401Z"/><path class="cls-1" d="M74.62,386.29a2,2,0,1,1,1.94-2A2,2,0,0,1,74.62,386.29ZM73,401V389.26h3.27V401Z"/><path class="cls-1" d="M88.25,401v-1.54a4.5,4.5,0,0,1-3.8,1.92c-3.51,0-5.75-2.91-5.75-6.26s2.24-6.18,5.67-6.18a4.84,4.84,0,0,1,3.88,1.86v-1.49h3.3V401Zm-5.64-13.87a1.95,1.95,0,0,1,0-3.89,1.95,1.95,0,1,1,0,3.89Zm2.73,4.75a3.28,3.28,0,1,0,3.26,3.26A3.26,3.26,0,0,0,85.34,391.83Zm2.89-4.75a2,2,0,0,1-2-1.95,1.95,1.95,0,1,1,2,1.95Z"/><path class="cls-1" d="M102.32,392.23a2.93,2.93,0,0,0-1.56-.4c-2.22,0-2.81,1.56-2.81,3.51V401H94.68V389.26H98V391a3.81,3.81,0,0,1,4.83-1.86Z"/><path class="cls-1" d="M117.09,401.2h-1.51l-6-11.94h3.67l3.08,6.59,3.08-6.59h3.67Z"/><path class="cls-1" d="M126.3,386.29a2,2,0,1,1,1.94-2A2,2,0,0,1,126.3,386.29ZM124.65,401V389.26h3.27V401Z"/><path class="cls-1" d="M134.72,401.33a6.23,6.23,0,0,1-4.45-1.94l1.73-2a3.78,3.78,0,0,0,2.75,1.38,1.38,1.38,0,0,0,1.48-1.3c0-2-5.21-1-5.21-4.94,0-2.37,2-3.7,4.19-3.7a6,6,0,0,1,3.8,1.24L137.39,392a3.24,3.24,0,0,0-1.94-.78c-.57,0-1.24.35-1.24,1,0,1.7,5.4.94,5.4,4.94C139.61,399.87,137.23,401.33,134.72,401.33Z"/><path class="cls-1" d="M149.92,401v-6.48c0-1.59-.35-2.8-2.21-2.8-2,0-2.51,1.48-2.51,3.24v6h-3.27V389.26h3.27v1.44a4.29,4.29,0,0,1,3.67-1.81,4,4,0,0,1,4.32,4.64V401Z"/><path class="cls-1" d="M157.91,386.29a2,2,0,1,1,2-2A2,2,0,0,1,157.91,386.29ZM156.27,401V389.26h3.26V401Z"/><path class="cls-1" d="M170.6,401v-6.48c0-1.59-.35-2.8-2.21-2.8-2,0-2.51,1.48-2.51,3.24v6h-3.27V389.26h3.27v1.44a4.3,4.3,0,0,1,3.67-1.81,4,4,0,0,1,4.32,4.64V401Z"/><path class="cls-1" d="M187.85,405.19a6.35,6.35,0,0,1-5,2.05c-3,0-5.89-1.73-6.21-4.91h3.53a2.61,2.61,0,0,0,2.79,2.13c2.05,0,2.88-1.43,2.88-3.32v-1.75a4.84,4.84,0,0,1-3.94,1.94c-3.45,0-5.56-2.78-5.56-6.07s2.16-6.37,5.72-6.37a4.36,4.36,0,0,1,3.78,1.89v-1.52h3.3v11.26C189.18,402.36,189.1,403.73,187.85,405.19ZM183,391.83a3.28,3.28,0,0,0,0,6.56,3.28,3.28,0,0,0,0-6.56Z"/><path class="cls-1" d="M196,401.33a6.23,6.23,0,0,1-4.46-1.94l1.73-2a3.82,3.82,0,0,0,2.75,1.38,1.38,1.38,0,0,0,1.49-1.3c0-2-5.21-1-5.21-4.94,0-2.37,2-3.7,4.18-3.7a6,6,0,0,1,3.81,1.24L198.71,392a3.29,3.29,0,0,0-1.94-.78c-.57,0-1.25.35-1.25,1,0,1.7,5.4.94,5.4,4.94C200.92,399.87,198.55,401.33,196,401.33Z"/><path class="cls-1" d="M211.24,401v-6.4c0-1.61-.35-2.88-2.24-2.88s-2.49,1.56-2.49,3.29v6h-3.26V380.73h3.26v10a4.26,4.26,0,0,1,3.67-1.89,4.46,4.46,0,0,1,3.4,1.43,4.62,4.62,0,0,1,.92,3.29V401Z"/><path class="cls-1" d="M223.28,401.33c-3.21,0-5.64-1.43-5.64-4.91v-7.16h3.26v6.62c0,1.59.68,2.67,2.38,2.67s2.37-1.08,2.37-2.67v-6.62H229v7.16C229,399.9,226.49,401.33,223.28,401.33Z"/><path class="cls-1" d="M235.81,401.33a6.23,6.23,0,0,1-4.46-1.94l1.73-2a3.82,3.82,0,0,0,2.75,1.38,1.38,1.38,0,0,0,1.49-1.3c0-2-5.21-1-5.21-4.94,0-2.37,2-3.7,4.18-3.7a6,6,0,0,1,3.81,1.24L238.48,392a3.29,3.29,0,0,0-1.94-.78c-.57,0-1.25.35-1.25,1,0,1.7,5.4.94,5.4,4.94C240.69,399.87,238.32,401.33,235.81,401.33Z"/><path class="cls-1" d="M24.78,438H18.73V420h4.46A7.05,7.05,0,0,1,27.58,421a4.78,4.78,0,0,1,1.63,3.7,3.76,3.76,0,0,1-2,3.61,4,4,0,0,1,2.35,1.14,4.81,4.81,0,0,1,1.3,3.37C30.88,436.44,28,438,24.78,438Zm-1.51-15.14h-1v4.64h1c1.56,0,2.73-.62,2.73-2.32S24.83,422.81,23.27,422.81Zm.59,7.31H22.24v5h1.51c1.73,0,3.51-.41,3.51-2.51S25.53,430.12,23.86,430.12Z"/><path class="cls-1" d="M36.33,432.63c.06,1.81.92,3.14,2.87,3.14A3.08,3.08,0,0,0,42,434.2l3,.49a5.73,5.73,0,0,1-5.75,3.64A5.86,5.86,0,0,1,33,432.09c0-3.72,2.37-6.2,6.13-6.2s6,2.59,6,6.31v.43Zm2.84-4.42a2.65,2.65,0,0,0-2.73,2.35H42A2.71,2.71,0,0,0,39.17,428.21Z"/><path class="cls-1" d="M51.32,438.33a6.23,6.23,0,0,1-4.45-1.94l1.72-2a3.82,3.82,0,0,0,2.76,1.38,1.38,1.38,0,0,0,1.48-1.3c0-2-5.21-1-5.21-4.94,0-2.37,2-3.7,4.18-3.7a6,6,0,0,1,3.81,1.24L54,429a3.26,3.26,0,0,0-1.94-.78c-.57,0-1.24.35-1.24,1,0,1.7,5.4.94,5.4,4.94C56.21,436.87,53.83,438.33,51.32,438.33Z"/><path class="cls-1" d="M64.6,438.33c-3.72,0-6.69-2.32-6.69-6.21s3-6.23,6.72-6.23,6.64,2.35,6.64,6.2S68.3,438.33,64.6,438.33Zm-2.83-14.25a1.95,1.95,0,0,1,0-3.89,1.95,1.95,0,0,1,0,3.89Zm2.81,4.75a3.28,3.28,0,1,0,3.32,3.29A3.31,3.31,0,0,0,64.58,428.83Zm2.8-4.75a2,2,0,0,1-1.94-1.95,1.95,1.95,0,1,1,1.94,1.95Z"/><path class="cls-1" d="M81.8,438l-4.4-5-.35.35V438H73.78V417.73h3.27v12.8l4.37-4.27h4.43l-5.48,5.13L86.28,438Z"/><path class="cls-1" d="M111.69,438l-1.6-11.09-5,11.34h-1l-4.78-11.34L97.57,438H94l3.35-18.33h2.4l4.92,11.77,5.12-11.77h2.41l3,18.33Z"/><path class="cls-1" d="M127.13,438.36a9.41,9.41,0,1,1,9.64-9.4A9.35,9.35,0,0,1,127.13,438.36Zm0-15.6a6.21,6.21,0,1,0,6,6.18A6.11,6.11,0,0,0,127.13,422.76Z"/><path class="cls-1" d="M146.71,438.41h-1.86L137.18,420H141L145.82,432,150.68,420h3.8Z"/><path class="cls-1" d="M156.62,438V420h10V423h-6.45v4h6.21V430h-6.21v4.86h6.45V438Z"/><path class="cls-1" d="M190.45,427.56h-2.73l-.38,2.43h2.76l-.46,2.94h-2.76l-.81,5H182.7l.81-5H181l-.79,5H176.9l.81-5h-2.78l.45-2.94h2.79l.37-2.43h-2.75l.46-3H179l.73-4.64h3.35l-.76,4.64h2.49l.72-4.64h3.38l-.73,4.64h2.73Zm-8.59,0-.37,2.43H184l.38-2.43Z"/><path class="cls-1" d="M198,438.41c-3.35,0-6.29-2.16-6.48-5.64H195a2.94,2.94,0,0,0,5.86-.3,2.79,2.79,0,0,0-2.81-2.86,4.76,4.76,0,0,0-.65.06v-2.54a2.69,2.69,0,0,0,.49,0,2.45,2.45,0,1,0-2.38-2.52h-3.32c.52-3.4,2.59-5.15,6-5.15,3,0,5.48,1.78,5.48,5a4,4,0,0,1-2.08,3.83,4.43,4.43,0,0,1,2.76,4.43C204.41,436.39,201.41,438.41,198,438.41Z"/><path class="cls-1" d="M213.8,438.41c-5,0-7-5.24-7-9.45s2-9.47,7-9.47,7,5.21,7,9.45S218.8,438.41,213.8,438.41Zm0-15.82c-2.75,0-3.45,4.27-3.45,6.35s.7,6.39,3.45,6.39,3.46-4.31,3.46-6.39S216.56,422.59,213.8,422.59Z"/><path class="cls-1" d="M225.63,438.46l-2.81-1.67L231.06,423h-8.35V420h13.88Z"/></svg>