<svg id="Layer_1" data-name="Layer 1" xmlns="http://www.w3.org/2000/svg" viewBox="0 0 250 720"><defs><style>.cls-1{fill:#d80201;}</style></defs><title>text</title><path class="cls-1" d="M25.62,401l-1.53-10.69L19.3,401.19h-.94l-4.6-10.92L12,401H8.62l3.22-17.65h2.31l4.73,11.34,4.94-11.34h2.31L29,401Z"/><path class="cls-1" d="M37.48,401.32c-3.59,0-6.45-2.24-6.45-6s2.86-6,6.47-6,6.4,2.26,6.4,6S41,401.32,37.48,401.32Zm-2.73-13.73a1.87,1.87,0,1,1,0-3.74,1.87,1.87,0,1,1,0,3.74Zm2.7,4.58a3.16,3.16,0,1,0,3.2,3.17A3.18,3.18,0,0,0,37.45,392.16Zm2.7-4.58a1.9,1.9,0,0,1-1.87-1.87,1.87,1.87,0,1,1,1.87,1.87Z"/><path class="cls-1" d="M53.15,401.32a4.43,4.43,0,0,1-3.69-1.85V401H46.31V381.48h3.15v9.65a4.78,4.78,0,0,1,3.77-1.79c3.3,0,5.49,2.81,5.49,6S56.53,401.32,53.15,401.32Zm-.86-9.15a3.16,3.16,0,1,0,3.15,3.15A3.14,3.14,0,0,0,52.29,392.16Z"/><path class="cls-1" d="M61.11,401V381.48h3.15V401Z"/><path class="cls-1" d="M69.9,395.83c.05,1.74.88,3,2.76,3a3,3,0,0,0,2.68-1.51l2.91.47a5.52,5.52,0,0,1-5.54,3.51,5.64,5.64,0,0,1-6-6c0-3.59,2.29-6,5.9-6s5.75,2.5,5.75,6.08v.42Zm2.73-4.26A2.55,2.55,0,0,0,70,393.83h5.33A2.61,2.61,0,0,0,72.63,391.57Z"/><path class="cls-1" d="M88.1,392.55a2.79,2.79,0,0,0-1.51-.39c-2.13,0-2.7,1.51-2.7,3.38V401H80.74V389.69h3.15v1.69a3.67,3.67,0,0,1,4.65-1.79Z"/><path class="cls-1" d="M98.7,401v-1.48A4.35,4.35,0,0,1,95,401.32c-3.38,0-5.54-2.81-5.54-6s2.16-6,5.46-6a4.69,4.69,0,0,1,3.74,1.79v-1.43h3.17V401Zm-2.81-8.79A3.16,3.16,0,1,0,99,395.31,3.14,3.14,0,0,0,95.9,392.16Z"/><path class="cls-1" d="M108.06,392.4V401h-3.15V392.4h-1.25v-2.7h1.25v-3.85h3.15v3.85h2.21v2.7Z"/><path class="cls-1" d="M124.13,401.19h-1.46l-5.75-11.49h3.54l3,6.34,3-6.34h3.54Z"/><path class="cls-1" d="M133,386.83a1.9,1.9,0,0,1,0-3.8,1.9,1.9,0,0,1,0,3.8ZM131.41,401V389.69h3.15V401Z"/><path class="cls-1" d="M141.11,401.32a6,6,0,0,1-4.29-1.87l1.66-1.92a3.66,3.66,0,0,0,2.65,1.33,1.33,1.33,0,0,0,1.43-1.25c0-1.92-5-1-5-4.76,0-2.29,1.9-3.56,4-3.56a5.8,5.8,0,0,1,3.67,1.2l-1.56,1.85a3.14,3.14,0,0,0-1.87-.75c-.55,0-1.2.34-1.2,1,0,1.64,5.2.91,5.2,4.76C145.82,399.91,143.53,401.32,141.11,401.32Z"/><path class="cls-1" d="M155.75,401v-6.24c0-1.53-.34-2.7-2.13-2.7-2,0-2.42,1.43-2.42,3.12V401h-3.15V389.69h3.15v1.38a4.15,4.15,0,0,1,3.54-1.74,3.89,3.89,0,0,1,4.16,4.47V401Z"/><path class="cls-1" d="M163.44,386.83a1.9,1.9,0,0,1,0-3.8,1.9,1.9,0,0,1,0,3.8ZM161.86,401V389.69H165V401Z"/><path class="cls-1" d="M175.66,401v-6.24c0-1.53-.34-2.7-2.13-2.7-2,0-2.42,1.43-2.42,3.12V401H168V389.69h3.15v1.38a4.15,4.15,0,0,1,3.54-1.74,3.89,3.89,0,0,1,4.16,4.47V401Z"/><path class="cls-1" d="M192.28,405a6.14,6.14,0,0,1-4.78,2c-2.89,0-5.67-1.66-6-4.73h3.41a2.51,2.51,0,0,0,2.68,2.05c2,0,2.78-1.38,2.78-3.2v-1.69a4.68,4.68,0,0,1-3.8,1.87c-3.33,0-5.36-2.68-5.36-5.85s2.08-6.14,5.51-6.14a4.22,4.22,0,0,1,3.64,1.82v-1.46h3.17v10.84C193.55,402.3,193.47,403.63,192.28,405Zm-4.65-12.87a3.16,3.16,0,1,0,3.15,3.15A3.14,3.14,0,0,0,187.62,392.16Z"/><path class="cls-1" d="M200.15,401.32a6,6,0,0,1-4.29-1.87l1.66-1.92a3.66,3.66,0,0,0,2.65,1.33,1.33,1.33,0,0,0,1.43-1.25c0-1.92-5-1-5-4.76,0-2.29,1.9-3.56,4-3.56a5.8,5.8,0,0,1,3.67,1.2l-1.56,1.85a3.14,3.14,0,0,0-1.87-.75c-.55,0-1.2.34-1.2,1,0,1.64,5.2.91,5.2,4.76C204.86,399.91,202.57,401.32,200.15,401.32Z"/><path class="cls-1" d="M214.79,401v-6.16c0-1.56-.34-2.78-2.16-2.78s-2.39,1.51-2.39,3.17V401H207.1V381.48h3.15v9.67a4.1,4.1,0,0,1,3.54-1.82,4.3,4.3,0,0,1,3.28,1.38,4.46,4.46,0,0,1,.88,3.17V401Z"/><path class="cls-1" d="M226.39,401.32c-3.09,0-5.43-1.38-5.43-4.73v-6.89h3.15v6.37c0,1.53.65,2.57,2.29,2.57s2.29-1,2.29-2.57v-6.37h3.17v6.89C231.85,399.94,229.48,401.32,226.39,401.32Z"/><path class="cls-1" d="M238.45,401.32a6,6,0,0,1-4.29-1.87l1.66-1.92a3.66,3.66,0,0,0,2.65,1.33,1.33,1.33,0,0,0,1.43-1.25c0-1.92-5-1-5-4.76,0-2.29,1.9-3.56,4-3.56a5.8,5.8,0,0,1,3.67,1.2L241,392.32a3.14,3.14,0,0,0-1.87-.75c-.55,0-1.2.34-1.2,1,0,1.64,5.2.91,5.2,4.76C243.16,399.91,240.87,401.32,238.45,401.32Z"/><path class="cls-1" d="M32.9,434l-1.53-10.69-4.78,10.92h-.94L21,423.27,19.3,434H15.9l3.22-17.65h2.31l4.73,11.34,4.94-11.34h2.31L36.31,434Z"/><path class="cls-1" d="M47.77,434.34a9,9,0,0,1-9.26-9,9.27,9.27,0,1,1,9.26,9Zm0-15a6,6,0,1,0,5.8,6A5.88,5.88,0,0,0,47.77,419.31Z"/><path class="cls-1" d="M66.62,434.39H64.83l-7.38-17.79h3.69l4.63,11.65,4.68-11.65h3.67Z"/><path class="cls-1" d="M76.16,434V416.61h9.59v2.94H79.54v3.85h6v2.94h-6V431h6.21V434Z"/><path class="cls-1" d="M108.74,423.94h-2.63l-.36,2.34h2.65l-.44,2.83h-2.65l-.78,4.84h-3.25l.78-4.84H99.67L98.91,434H95.69l.78-4.84H93.79l.44-2.83h2.68l.36-2.34H94.62l.44-2.86h2.65l.7-4.47h3.22l-.73,4.47h2.39l.7-4.47h3.25l-.7,4.47h2.63Zm-8.27,0-.36,2.34h2.39l.36-2.34Z"/><path class="cls-1" d="M116,434.39c-3.22,0-6.06-2.08-6.24-5.43h3.41a2.83,2.83,0,1,0,2.94-3,5.17,5.17,0,0,0-.62.05v-2.44a2.88,2.88,0,0,0,.47,0,2.35,2.35,0,0,0,.08-4.71,2.26,2.26,0,0,0-2.37,2.29h-3.2c.49-3.28,2.5-5,5.8-5,2.89,0,5.28,1.72,5.28,4.78a3.87,3.87,0,0,1-2,3.69,4.27,4.27,0,0,1,2.65,4.26C122.18,432.44,119.3,434.39,116,434.39Z"/><path class="cls-1" d="M131.23,434.39c-4.78,0-6.71-5-6.71-9.1s1.9-9.13,6.71-9.13,6.71,5,6.71,9.1S136,434.39,131.23,434.39Zm0-15.24c-2.65,0-3.33,4.11-3.33,6.11s.68,6.16,3.33,6.16,3.33-4.16,3.33-6.16S133.88,419.16,131.23,419.16Z"/><path class="cls-1" d="M139.06,434l5.12-5.8c1.4-1.59,4-4.21,4-6.42a2.59,2.59,0,0,0-2.63-2.57c-1.72,0-2.52,1.27-2.57,2.86h-3.61c.23-3.51,2.52-5.85,6.08-5.85,3.25,0,6.11,2.13,6.11,5.56,0,2.42-1.59,4.39-3.15,6.06l-3,3.22h6.29V434Z"/><path class="cls-1" d="M162.9,419.83a1.9,1.9,0,0,1,0-3.8,1.9,1.9,0,0,1,0,3.8ZM161.31,434V422.69h3.15V434Z"/><path class="cls-1" d="M180.24,434h-5.82V416.61h4.29a6.85,6.85,0,0,1,4.24,1,4.64,4.64,0,0,1,1.56,3.56,3.64,3.64,0,0,1-1.9,3.48,4,4,0,0,1,2.26,1.09,4.67,4.67,0,0,1,1.25,3.25C186.12,432.5,183.36,434,180.24,434Zm-1.46-14.59h-1v4.47h1c1.51,0,2.63-.6,2.63-2.24S180.29,419.37,178.78,419.37Zm.57,7H177.8v4.81h1.46c1.66,0,3.38-.39,3.38-2.42S181,426.41,179.36,426.41Z"/><path class="cls-1" d="M194.59,434.32c-3.59,0-6.45-2.24-6.45-6s2.86-6,6.47-6,6.4,2.26,6.4,6S198.15,434.32,194.59,434.32Zm0-9.15a3.16,3.16,0,1,0,3.2,3.17A3.18,3.18,0,0,0,194.57,425.16Z"/><path class="cls-1" d="M210.79,425.55a2.79,2.79,0,0,0-1.51-.39c-2.13,0-2.7,1.51-2.7,3.38V434h-3.15V422.69h3.15v1.69a3.67,3.67,0,0,1,4.65-1.79Z"/><path class="cls-1" d="M221.4,434v-1.48a4.35,4.35,0,0,1-3.67,1.85c-3.38,0-5.54-2.81-5.54-6s2.16-6,5.46-6a4.69,4.69,0,0,1,3.74,1.79v-1.43h3.17V434Zm-2.81-8.79a3.16,3.16,0,1,0,3.15,3.15A3.14,3.14,0,0,0,218.59,425.16Zm-.44-4.45a2.34,2.34,0,1,1,0-4.68,2.34,2.34,0,0,1,0,4.68Zm0-3.25a.91.91,0,1,0,.91.91A.89.89,0,0,0,218.15,417.47Z"/><path class="cls-1" d="M231.17,434.32a6,6,0,0,1-4.29-1.87l1.66-1.92a3.66,3.66,0,0,0,2.65,1.33,1.33,1.33,0,0,0,1.43-1.25c0-1.92-5-1-5-4.76,0-2.29,1.9-3.56,4-3.56a5.8,5.8,0,0,1,3.67,1.2l-1.56,1.85a3.14,3.14,0,0,0-1.87-.75c-.55,0-1.2.34-1.2,1,0,1.64,5.2.91,5.2,4.76C235.88,432.91,233.59,434.32,231.17,434.32Z"/></svg>