<svg id="Layer_1" data-name="Layer 1" xmlns="http://www.w3.org/2000/svg" viewBox="0 0 250 720"><defs><style>.cls-1{fill:#d80201;}</style></defs><title>text</title><path class="cls-1" d="M68.11,401.41H66.24L58.58,383h3.83L67.22,395,72.07,383h3.81Z"/><path class="cls-1" d="M79.1,386.3a2,2,0,1,1,1.94-2A2,2,0,0,1,79.1,386.3ZM77.45,401V389.26h3.27V401Z"/><path class="cls-1" d="M83.8,401V380.74h3.26V401Z"/><path class="cls-1" d="M90.19,401V380.74h3.27V401Z"/><path class="cls-1" d="M105.53,401v-1.54a4.52,4.52,0,0,1-3.81,1.92c-3.51,0-5.75-2.91-5.75-6.26s2.24-6.18,5.67-6.18a4.88,4.88,0,0,1,3.89,1.86v-1.49h3.29V401Zm-2.92-9.12a3.28,3.28,0,1,0,3.27,3.27A3.26,3.26,0,0,0,102.61,391.83Z"/><path class="cls-1" d="M117.89,401.2h-1.51l-6-11.94h3.67l3.08,6.59,3.07-6.59h3.67Z"/><path class="cls-1" d="M127.1,386.3a2,2,0,1,1,2-2A2,2,0,0,1,127.1,386.3ZM125.46,401V389.26h3.26V401Z"/><path class="cls-1" d="M135.53,401.33a6.23,6.23,0,0,1-4.46-1.94l1.73-2a3.82,3.82,0,0,0,2.75,1.38,1.38,1.38,0,0,0,1.49-1.3c0-2-5.21-1-5.21-4.94,0-2.37,2-3.7,4.18-3.7a6,6,0,0,1,3.81,1.25L138.2,392a3.29,3.29,0,0,0-1.95-.78c-.56,0-1.24.35-1.24,1,0,1.7,5.4.94,5.4,4.94C140.41,399.87,138,401.33,135.53,401.33Z"/><path class="cls-1" d="M150.73,401v-6.48c0-1.59-.36-2.8-2.22-2.8-2,0-2.51,1.48-2.51,3.24v6h-3.26V389.26H146v1.44a4.3,4.3,0,0,1,3.67-1.81,4,4,0,0,1,4.32,4.64V401Z"/><path class="cls-1" d="M158.72,386.3a2,2,0,1,1,1.94-2A2,2,0,0,1,158.72,386.3ZM157.07,401V389.26h3.27V401Z"/><path class="cls-1" d="M171.41,401v-6.48c0-1.59-.35-2.8-2.22-2.8-2,0-2.51,1.48-2.51,3.24v6h-3.26V389.26h3.26v1.44a4.3,4.3,0,0,1,3.67-1.81,4,4,0,0,1,4.32,4.64V401Z"/><path class="cls-1" d="M188.66,405.19a6.37,6.37,0,0,1-5,2.05c-3,0-5.88-1.73-6.21-4.91H181a2.6,2.6,0,0,0,2.78,2.13c2,0,2.89-1.43,2.89-3.32v-1.75a4.85,4.85,0,0,1-3.94,1.94c-3.46,0-5.56-2.78-5.56-6.07s2.16-6.37,5.72-6.37a4.38,4.38,0,0,1,3.78,1.89v-1.52H190v11.26C190,402.36,189.9,403.73,188.66,405.19Zm-4.83-13.36a3.28,3.28,0,1,0,3.26,3.27A3.26,3.26,0,0,0,183.83,391.83Z"/><path class="cls-1" d="M31.15,435.93a6.92,6.92,0,0,1-5.48,2.4,6.81,6.81,0,0,1-5.47-2.4A7.24,7.24,0,0,1,19,431.48v-10.2h3.25v9.55a5.63,5.63,0,0,0,.52,3,3.36,3.36,0,0,0,2.92,1.55,3.46,3.46,0,0,0,2.93-1.55,5.42,5.42,0,0,0,.52-3v-9.55h3.25v10.2A7,7,0,0,1,31.15,435.93Z"/><path class="cls-1" d="M42.38,438.3a4.33,4.33,0,0,1-3.63-1.77v7.2h-3v-16.6h3v1.37a4.34,4.34,0,0,1,3.55-1.72c3.22,0,5.35,2.68,5.35,5.77S45.55,438.3,42.38,438.3Zm-.9-8.8a3,3,0,1,0,3,3A3,3,0,0,0,41.48,429.5Z"/><path class="cls-1" d="M56.6,438.3A4.31,4.31,0,0,1,53,436.53v7.2H50v-16.6h3v1.37a4.33,4.33,0,0,1,3.54-1.72c3.23,0,5.35,2.68,5.35,5.77S59.77,438.3,56.6,438.3Zm-.9-8.8a3,3,0,1,0,3,3A3,3,0,0,0,55.7,429.5Z"/><path class="cls-1" d="M64.18,438V419.23h3V438Z"/><path class="cls-1" d="M72.63,433c0,1.67.84,2.9,2.64,2.9a2.86,2.86,0,0,0,2.58-1.45l2.8.45a5.32,5.32,0,0,1-5.33,3.37,5.42,5.42,0,0,1-5.79-5.77,5.36,5.36,0,0,1,5.67-5.75c3.57,0,5.52,2.4,5.52,5.85v.4Zm2.62-4.1a2.44,2.44,0,0,0-2.52,2.17h5.12A2.51,2.51,0,0,0,75.25,428.93Z"/><path class="cls-1" d="M88,438.18H86.6l-5.52-11.05h3.4l2.84,6.1,2.85-6.1h3.4Z"/><path class="cls-1" d="M117.22,438l-1.47-10.27-4.6,10.5h-.9l-4.43-10.5L104.15,438h-3.27l3.1-17h2.22l4.55,10.9L115.5,421h2.22l2.78,17Z"/><path class="cls-1" d="M131.52,438.33a8.71,8.71,0,1,1,8.93-8.7A8.65,8.65,0,0,1,131.52,438.33Zm0-14.45a5.75,5.75,0,1,0,5.58,5.72A5.66,5.66,0,0,0,131.52,423.88Z"/><path class="cls-1" d="M149.65,438.38h-1.73l-7.09-17.1h3.55l4.44,11.2,4.5-11.2h3.53Z"/><path class="cls-1" d="M158.83,438V421.28h9.22v2.83h-6v3.7h5.75v2.82h-5.75v4.5h6V438Z"/><path class="cls-1" d="M190.15,428.33h-2.53l-.35,2.25h2.55l-.42,2.72h-2.55L186.1,438H183l.75-4.65h-2.3L180.7,438h-3.1l.75-4.65h-2.57l.42-2.72h2.57l.36-2.25h-2.55l.42-2.75h2.55l.67-4.3h3.1l-.7,4.3h2.3l.68-4.3h3.12l-.67,4.3h2.52Zm-8,0-.35,2.25h2.3l.35-2.25Z"/><path class="cls-1" d="M197.12,438.38c-3.1,0-5.82-2-6-5.23h3.27a2.71,2.71,0,1,0,2.82-2.92,4,4,0,0,0-.6,0v-2.35a2.27,2.27,0,0,0,.45,0,2.27,2.27,0,0,0,.08-4.53c-1.43,0-2.1.88-2.28,2.2H191.8c.47-3.15,2.4-4.77,5.57-4.77,2.78,0,5.08,1.65,5.08,4.6a3.7,3.7,0,0,1-1.93,3.54,4.11,4.11,0,0,1,2.55,4.1C203.07,436.5,200.3,438.38,197.12,438.38Z"/><path class="cls-1" d="M211.77,438.38c-4.6,0-6.44-4.85-6.44-8.75s1.82-8.77,6.44-8.77,6.45,4.82,6.45,8.74S216.4,438.38,211.77,438.38Zm0-14.65c-2.55,0-3.2,3.95-3.2,5.87s.65,5.93,3.2,5.93,3.2-4,3.2-5.93S214.32,423.73,211.77,423.73Z"/><path class="cls-1" d="M219.3,438l4.92-5.57c1.35-1.53,3.83-4.05,3.83-6.17a2.5,2.5,0,0,0-2.53-2.48c-1.65,0-2.42,1.23-2.47,2.75h-3.48c.23-3.37,2.43-5.62,5.85-5.62,3.13,0,5.88,2.05,5.88,5.35,0,2.32-1.53,4.22-3,5.82l-2.9,3.1h6V438Z"/></svg>