<svg id="Layer_1" data-name="Layer 1" xmlns="http://www.w3.org/2000/svg" viewBox="0 0 728 90"><defs><style>.cls-1{fill:#d80201;}</style></defs><title>text</title><path class="cls-1" d="M369,67.43a2.45,2.45,0,0,1-2.47-2.06l.86-.24A1.63,1.63,0,0,0,369,66.59,1.58,1.58,0,0,0,370.65,65c0-1.88-3.69-1.44-3.69-3.79a2.11,2.11,0,0,1,2.24-2.06,2.28,2.28,0,0,1,2.06,1.25l-.71.47a1.48,1.48,0,0,0-1.37-.88,1.27,1.27,0,0,0-1.33,1.22c0,1.66,3.69,1.18,3.69,3.75A2.46,2.46,0,0,1,369,67.43Z"/><path class="cls-1" d="M376.05,67.29,374,65l-.22.22v2.05H373V58.54h.85v5.6l1.81-1.83h1.14l-2.13,2.11,2.53,2.87Z"/><path class="cls-1" d="M379.75,67.61l-2.45-5.3h1l1.49,3.35,1.48-3.35h1Z"/><path class="cls-1" d="M386.73,67.29v-.7a2.13,2.13,0,0,1-1.73.84,2.47,2.47,0,0,1-2.4-2.65A2.42,2.42,0,0,1,385,62.19a2.1,2.1,0,0,1,1.74.83v-.71h.85v5ZM385.12,63a1.7,1.7,0,0,0-1.64,1.82,1.72,1.72,0,0,0,1.64,1.87,1.7,1.7,0,0,0,1.66-1.87A1.68,1.68,0,0,0,385.12,63Z"/><path class="cls-1" d="M393,67.29v-.7a2.13,2.13,0,0,1-1.73.84,2.46,2.46,0,0,1-2.4-2.64,2.44,2.44,0,0,1,2.39-2.6A2.14,2.14,0,0,1,393,63V58.54h.85v8.74ZM391.41,63a1.85,1.85,0,1,0,1.66,1.81A1.67,1.67,0,0,0,391.41,63Z"/><path class="cls-1" d="M397.84,63.17a.75.75,0,0,0-.5-.17.92.92,0,0,0-.43.11c-.55.3-.55,1-.55,1.55v2.63h-.85v-5h.85v.54a1.33,1.33,0,0,1,1.13-.66,1.42,1.42,0,0,1,.77.2Z"/><path class="cls-1" d="M401.18,67.43a2.62,2.62,0,1,1,2.63-2.61A2.6,2.6,0,0,1,401.18,67.43Zm0-4.46a1.84,1.84,0,1,0,1.76,1.85A1.75,1.75,0,0,0,401.17,63Z"/><path class="cls-1" d="M408.25,67.29V64.35c0-.78-.11-1.39-1-1.39-1.1,0-1.24,1-1.24,1.83v2.49h-.85v-5H406v.6a1.8,1.8,0,0,1,2.85,0,2.28,2.28,0,0,1,.29,1.32v3.09Z"/><path class="cls-1" d="M412.47,67.61,410,62.31h1l1.49,3.35,1.48-3.35h1Z"/><path class="cls-1" d="M419.62,67.29v-.7a2.13,2.13,0,0,1-1.73.84,2.47,2.47,0,0,1-2.4-2.65,2.42,2.42,0,0,1,2.39-2.59,2.1,2.1,0,0,1,1.74.83v-.71h.85v5ZM418,63a1.7,1.7,0,0,0-1.64,1.82A1.72,1.72,0,0,0,418,66.65a1.7,1.7,0,0,0,1.66-1.87A1.68,1.68,0,0,0,418,63Zm-1-1.67a.61.61,0,0,1-.6-.6.6.6,0,1,1,.6.6Zm2.09,0a.61.61,0,0,1-.6-.6.6.6,0,1,1,.6.6Z"/><path class="cls-1" d="M426.29,69.13a2.42,2.42,0,0,1-2,.92,2.24,2.24,0,0,1-2.42-2.28h.85a1.49,1.49,0,0,0,1.58,1.51c1.2,0,1.6-.9,1.6-2v-.73a2.25,2.25,0,0,1-1.75.83,2.62,2.62,0,0,1,0-5.23,2.13,2.13,0,0,1,1.72.82v-.7h.86v4.87A3,3,0,0,1,426.29,69.13Zm-2-6.18a1.71,1.71,0,0,0-1.63,1.88,1.68,1.68,0,0,0,1.63,1.81,1.86,1.86,0,0,0,0-3.69Z"/><path class="cls-1" d="M429,65a1.61,1.61,0,0,0,1.58,1.68,1.71,1.71,0,0,0,1.54-1l.72.4a2.48,2.48,0,0,1-2.28,1.42,2.63,2.63,0,0,1,0-5.24,2.38,2.38,0,0,1,2.38,2.61V65Zm1.54-2A1.53,1.53,0,0,0,429,64.25H432A1.49,1.49,0,0,0,430.52,63Z"/><path class="cls-1" d="M437.31,67.29V64.35c0-.78-.11-1.39-1-1.39-1.1,0-1.24,1-1.24,1.83v2.49h-.85v-5H435v.6a1.8,1.8,0,0,1,2.85,0,2.28,2.28,0,0,1,.29,1.32v3.09Z"/><path class="cls-1" d="M446,64.59l-1.64,1.87h3.36v.83h-5.17l2.91-3.37c.54-.62,1.38-1.52,1.38-2.39a1.6,1.6,0,1,0-3.19.1h-.9a3.27,3.27,0,0,1,.17-.9,2.5,2.5,0,0,1,4.81.82C447.77,62.74,446.79,63.75,446,64.59Z"/><path class="cls-1" d="M454.29,63.7l-2.72,3.78L450.9,67l1.85-2.57a2.51,2.51,0,0,1-.73.11,2.58,2.58,0,0,1-2.57-2.63,2.76,2.76,0,0,1,5.52,0A3.21,3.21,0,0,1,454.29,63.7ZM452.2,60a1.88,1.88,0,1,0,1.88,1.88A1.88,1.88,0,0,0,452.2,60Z"/><path class="cls-1" d="M456.45,69.11l-.56-.23,1-2.77.79.29Z"/><path class="cls-1" d="M464.65,67.77l-3.24-8.48h1l2.28,6.1,2.27-6.1h1Z"/><path class="cls-1" d="M472,67.29v-.7a2.13,2.13,0,0,1-1.73.84,2.47,2.47,0,0,1-2.4-2.65,2.42,2.42,0,0,1,2.39-2.59A2.1,2.1,0,0,1,472,63v-.71h.85v5ZM470.44,63a1.7,1.7,0,0,0-1.64,1.82,1.72,1.72,0,0,0,1.64,1.87,1.7,1.7,0,0,0,1.66-1.87A1.68,1.68,0,0,0,470.44,63Z"/><path class="cls-1" d="M474.54,67.29V58.54h.85v8.74Z"/><path class="cls-1" d="M477,67.29V58.54h.85v8.74Z"/><path class="cls-1" d="M480.08,65a1.61,1.61,0,0,0,1.58,1.68,1.71,1.71,0,0,0,1.54-1l.72.4a2.48,2.48,0,0,1-2.28,1.42,2.63,2.63,0,0,1,0-5.24A2.38,2.38,0,0,1,484,64.8V65Zm1.54-2a1.53,1.53,0,0,0-1.48,1.28h2.93A1.49,1.49,0,0,0,481.61,63Z"/><path class="cls-1" d="M488.41,67.29V64.35c0-.78-.11-1.39-1-1.39-1.1,0-1.24,1-1.24,1.83v2.49h-.85v-5h.85v.6a1.8,1.8,0,0,1,2.85,0,2.28,2.28,0,0,1,.29,1.32v3.09Z"/><path class="cls-1" d="M491.77,63.1v4.19h-.86V63.1h-.52v-.79h.52v-1.8h.86v1.8h.88v.79Z"/><path class="cls-1" d="M497,66.81a2.17,2.17,0,0,1-3,0,2,2,0,0,1-.46-1.5v-3h.85v2.9a1.9,1.9,0,0,0,.16.94,1.18,1.18,0,0,0,1.93,0,1.93,1.93,0,0,0,.16-.94v-2.9h.85v3A2,2,0,0,1,497,66.81Z"/><path class="cls-1" d="M502.18,67.29V64.35c0-.78-.11-1.39-1-1.39-1.1,0-1.24,1-1.24,1.83v2.49h-.85v-5h.85v.6a1.8,1.8,0,0,1,2.85,0,2.28,2.28,0,0,1,.29,1.32v3.09Z"/><path class="cls-1" d="M508.48,67.29v-.7a2.13,2.13,0,0,1-1.73.84,2.47,2.47,0,0,1-2.4-2.65,2.42,2.42,0,0,1,2.39-2.59,2.1,2.1,0,0,1,1.74.83v-.71h.85v5ZM506.87,63a1.7,1.7,0,0,0-1.64,1.82,1.72,1.72,0,0,0,1.64,1.87,1.7,1.7,0,0,0,1.66-1.87A1.68,1.68,0,0,0,506.87,63Z"/><path class="cls-1" d="M356.11,80.43a2.45,2.45,0,0,1-2.47-2.06l.86-.24a1.63,1.63,0,0,0,1.63,1.46A1.58,1.58,0,0,0,357.75,78c0-1.88-3.69-1.44-3.69-3.79a2.11,2.11,0,0,1,2.24-2.06,2.28,2.28,0,0,1,2.06,1.25l-.71.47a1.48,1.48,0,0,0-1.37-.88A1.27,1.27,0,0,0,355,74.22c0,1.66,3.69,1.18,3.69,3.75A2.46,2.46,0,0,1,356.11,80.43Z"/><path class="cls-1" d="M362.38,80.43A2.62,2.62,0,1,1,365,77.82,2.6,2.6,0,0,1,362.38,80.43Zm0-4.46a1.84,1.84,0,1,0,1.76,1.85A1.75,1.75,0,0,0,362.37,76Zm-1-1.68a.61.61,0,0,1-.6-.6.6.6,0,1,1,.6.6Zm2.09,0a.61.61,0,0,1-.6-.6.6.6,0,1,1,.6.6Z"/><path class="cls-1" d="M369.45,80.29V77.35c0-.78-.11-1.39-1-1.39-1.1,0-1.24,1-1.24,1.83v2.49h-.85v-5h.85v.6a1.8,1.8,0,0,1,2.85,0,2.28,2.28,0,0,1,.29,1.32v3.09Z"/><path class="cls-1" d="M375.75,80.29v-.7a2.12,2.12,0,0,1-1.73.84,2.46,2.46,0,0,1-2.4-2.64,2.44,2.44,0,0,1,2.39-2.6,2.14,2.14,0,0,1,1.74.83V71.54h.85v8.74ZM374.14,76a1.85,1.85,0,1,0,1.66,1.81A1.67,1.67,0,0,0,374.14,76Z"/><path class="cls-1" d="M382,80.29v-.7a2.13,2.13,0,0,1-1.73.84,2.47,2.47,0,0,1-2.4-2.65,2.42,2.42,0,0,1,2.39-2.59A2.1,2.1,0,0,1,382,76v-.71h.85v5ZM380.43,76a1.7,1.7,0,0,0-1.64,1.82,1.72,1.72,0,0,0,1.64,1.87,1.7,1.7,0,0,0,1.66-1.87A1.68,1.68,0,0,0,380.43,76Z"/><path class="cls-1" d="M388.71,82.13a2.42,2.42,0,0,1-2,.92,2.24,2.24,0,0,1-2.42-2.28h.85a1.49,1.49,0,0,0,1.58,1.51c1.2,0,1.6-.9,1.6-2v-.73a2.25,2.25,0,0,1-1.75.83,2.62,2.62,0,0,1,0-5.23,2.13,2.13,0,0,1,1.72.82v-.7h.86v4.87A3,3,0,0,1,388.71,82.13Zm-2-6.18a1.71,1.71,0,0,0-1.63,1.88,1.68,1.68,0,0,0,1.63,1.81,1.86,1.86,0,0,0,0-3.69Z"/><path class="cls-1" d="M397.06,77.59l-1.64,1.87h3.36v.83H393.6l2.92-3.37c.54-.62,1.38-1.52,1.38-2.39a1.6,1.6,0,0,0-3.19.1h-.9a3.31,3.31,0,0,1,.17-.9,2.5,2.5,0,0,1,4.81.82C398.78,75.74,397.8,76.75,397.06,77.59Z"/><path class="cls-1" d="M403.27,80.42a2.34,2.34,0,0,1-2.45-2.34,2.09,2.09,0,0,1,1.19-2,2,2,0,0,1-1-1.75,2.24,2.24,0,0,1,4.47,0,2.08,2.08,0,0,1-1,1.76,2.07,2.07,0,0,1,1.16,1.93A2.32,2.32,0,0,1,403.27,80.42Zm0-3.89a1.53,1.53,0,1,0,1.55,1.52A1.54,1.54,0,0,0,403.25,76.53Zm0-3.55a1.39,1.39,0,1,0,1.39,1.39A1.39,1.39,0,0,0,403.27,73Z"/><path class="cls-1" d="M410.86,74a.61.61,0,1,1,.61-.61A.61.61,0,0,1,410.86,74Zm-.43,9.06V75.31h.85v7.78Z"/><path class="cls-1" d="M416.72,80.29v-.7a2.13,2.13,0,0,1-1.73.84,2.47,2.47,0,0,1-2.4-2.65A2.42,2.42,0,0,1,415,75.19a2.1,2.1,0,0,1,1.74.83v-.71h.85v5ZM415.12,76a1.7,1.7,0,0,0-1.64,1.82,1.72,1.72,0,0,0,1.64,1.87,1.7,1.7,0,0,0,1.66-1.87A1.68,1.68,0,0,0,415.12,76Z"/><path class="cls-1" d="M422.34,80.29V77.35c0-.78-.11-1.39-1-1.39-1.1,0-1.24,1-1.24,1.83v2.49h-.85v-5h.85v.6a1.8,1.8,0,0,1,2.85,0,2.28,2.28,0,0,1,.29,1.32v3.09Z"/><path class="cls-1" d="M427.42,76.69V75.9h5.21v.79Z"/><path class="cls-1" d="M437.41,78A1.61,1.61,0,0,0,439,79.65a1.71,1.71,0,0,0,1.54-1l.72.4A2.48,2.48,0,0,1,439,80.43a2.63,2.63,0,0,1,0-5.24,2.38,2.38,0,0,1,2.38,2.61V78Zm1.54-2a1.53,1.53,0,0,0-1.48,1.28h2.93A1.49,1.49,0,0,0,438.95,76Z"/><path class="cls-1" d="M445.74,80.29V77.35c0-.78-.11-1.39-1-1.39-1.1,0-1.24,1-1.24,1.83v2.49h-.85v-5h.85v.6a1.8,1.8,0,0,1,2.85,0,2.28,2.28,0,0,1,.29,1.32v3.09Z"/><path class="cls-1" d="M452,80.29v-.7a2.13,2.13,0,0,1-1.73.84,2.46,2.46,0,0,1-2.4-2.64,2.44,2.44,0,0,1,2.39-2.6A2.14,2.14,0,0,1,452,76V71.54h.85v8.74ZM450.43,76a1.85,1.85,0,1,0,1.66,1.81A1.67,1.67,0,0,0,450.43,76Z"/><path class="cls-1" d="M458.33,80.29v-.7a2.13,2.13,0,0,1-1.73.84,2.47,2.47,0,0,1-2.4-2.65,2.42,2.42,0,0,1,2.39-2.59,2.1,2.1,0,0,1,1.74.83v-.71h.85v5ZM456.72,76a1.7,1.7,0,0,0-1.64,1.82,1.72,1.72,0,0,0,1.64,1.87,1.7,1.7,0,0,0,1.66-1.87A1.68,1.68,0,0,0,456.72,76Z"/><path class="cls-1" d="M462.16,80.43a1.77,1.77,0,0,1-1.74-1.27l.74-.31c.2.44.48.8,1,.8a.77.77,0,0,0,.82-.78c0-1.08-2.24-.74-2.24-2.29a1.4,1.4,0,0,1,1.45-1.39,1.49,1.49,0,0,1,1.37.9l-.71.37a.8.8,0,0,0-.7-.49.59.59,0,0,0-.6.55c0,.88,2.3.65,2.3,2.28A1.63,1.63,0,0,1,462.16,80.43Z"/><path class="cls-1" d="M465.88,76.1v4.19H465V76.1h-.52v-.79H465v-1.8h.86v1.8h.88v.79Z"/><path class="cls-1" d="M471.43,76.1v4.19h-.85V76.1h-.47v-.79h.47V73.19a2.87,2.87,0,0,1,.13-1,1.38,1.38,0,0,1,1.34-.83,2.2,2.2,0,0,1,.62.11v.86a1.53,1.53,0,0,0-.56-.12c-.62,0-.68.47-.68,1v2.09h1.25v.79Z"/><path class="cls-1" d="M475.76,80.43a2.62,2.62,0,1,1,2.63-2.61A2.6,2.6,0,0,1,475.76,80.43Zm0-4.46a1.84,1.84,0,1,0,1.76,1.85A1.75,1.75,0,0,0,475.75,76Zm-1-1.68a.61.61,0,0,1-.6-.6.6.6,0,1,1,.6.6Zm2.09,0a.61.61,0,0,1-.6-.6.6.6,0,1,1,.6.6Z"/><path class="cls-1" d="M482,76.17a.75.75,0,0,0-.5-.17.92.92,0,0,0-.43.11c-.55.3-.55,1-.55,1.55v2.63h-.85v-5h.85v.54a1.33,1.33,0,0,1,1.13-.66,1.41,1.41,0,0,1,.77.2Z"/><path class="cls-1" d="M486.91,80.29v-.7a2.13,2.13,0,0,1-1.73.84,2.47,2.47,0,0,1-2.4-2.65,2.42,2.42,0,0,1,2.39-2.59,2.1,2.1,0,0,1,1.74.83v-.71h.85v5ZM485.3,76a1.7,1.7,0,0,0-1.64,1.82,1.72,1.72,0,0,0,1.64,1.87A1.7,1.7,0,0,0,487,77.78,1.68,1.68,0,0,0,485.3,76Z"/><path class="cls-1" d="M492.53,80.29V77.35c0-.78-.11-1.39-1-1.39-1.1,0-1.24,1-1.24,1.83v2.49h-.85v-5h.85v.6a1.8,1.8,0,0,1,2.85,0,2.28,2.28,0,0,1,.29,1.32v3.09Z"/><path class="cls-1" d="M500.7,80.29v-3c0-.64-.11-1.31-.9-1.31s-1.07.84-1.07,1.56v2.77h-.85v-3c0-.62-.13-1.38-.91-1.38a1,1,0,0,0-.9.54,2.37,2.37,0,0,0-.19,1.08v2.71H495v-5h.85v.53a1.42,1.42,0,0,1,1.24-.65,1.52,1.52,0,0,1,1.37.8,1.7,1.7,0,0,1,2.79-.13,2.33,2.33,0,0,1,.28,1.27v3.15Z"/><path class="cls-1" d="M507,80.29v-.7a2.13,2.13,0,0,1-1.73.84,2.47,2.47,0,0,1-2.4-2.65,2.42,2.42,0,0,1,2.39-2.59A2.1,2.1,0,0,1,507,76v-.71h.85v5ZM505.38,76a1.7,1.7,0,0,0-1.64,1.82,1.72,1.72,0,0,0,1.64,1.87A1.7,1.7,0,0,0,507,77.78,1.68,1.68,0,0,0,505.38,76Zm-1-1.67a.61.61,0,0,1-.6-.6.6.6,0,1,1,.6.6Zm2.09,0a.61.61,0,0,1-.6-.6.6.6,0,1,1,.6.6Z"/><path class="cls-1" d="M509.47,80.29V71.54h.85v8.74Z"/><path class="cls-1" d="M515.76,80.29v-.7a2.13,2.13,0,0,1-1.73.84,2.47,2.47,0,0,1-2.4-2.65A2.42,2.42,0,0,1,514,75.19a2.1,2.1,0,0,1,1.74.83v-.71h.85v5ZM514.15,76a1.7,1.7,0,0,0-1.64,1.82,1.72,1.72,0,0,0,1.64,1.87,1.7,1.7,0,0,0,1.66-1.87A1.68,1.68,0,0,0,514.15,76Z"/><path class="cls-1" d="M521.38,80.29V77.35c0-.78-.11-1.39-1-1.39-1.1,0-1.24,1-1.24,1.83v2.49h-.85v-5h.85v.6a1.8,1.8,0,0,1,2.85,0,2.28,2.28,0,0,1,.29,1.32v3.09Z"/></svg>