<svg id="Layer_1" data-name="Layer 1" xmlns="http://www.w3.org/2000/svg" viewBox="0 0 980 120"><defs><style>.cls-1{fill:#d4ac76;}</style></defs><title>text</title><path class="cls-1" d="M199.34,61V34.72h14.31V39.1h-9.38v7.18h8.36v4.38h-8.36V61Z"/><path class="cls-1" d="M246.67,47.84a13.66,13.66,0,1,1-23.31-9.64,13.66,13.66,0,0,1,23.31,9.64Zm-19.84,6.28a8.63,8.63,0,0,0,12.35,0,9,9,0,0,0,0-12.58,8.61,8.61,0,0,0-12.35,0,9.06,9.06,0,0,0,0,12.58ZM230.71,32a2.13,2.13,0,0,1-1.61.69,2.19,2.19,0,0,1-1.62-.69,2.35,2.35,0,0,1-.67-1.69A2.27,2.27,0,0,1,229.1,28a2.14,2.14,0,0,1,1.59.68,2.25,2.25,0,0,1,.67,1.66A2.37,2.37,0,0,1,230.71,32Zm7.82,0a2.42,2.42,0,0,1-1.74.69A2.46,2.46,0,0,1,235,32a2.28,2.28,0,0,1-.72-1.69,2.18,2.18,0,0,1,.72-1.66,2.45,2.45,0,0,1,1.75-.68,2.41,2.41,0,0,1,1.74.68,2.18,2.18,0,0,1,.72,1.66A2.28,2.28,0,0,1,238.53,32Z"/><path class="cls-1" d="M254.21,61V34.72H264.5a8.88,8.88,0,0,1,6.33,2.38,8.21,8.21,0,0,1,2.52,6.24,7.85,7.85,0,0,1-1.88,5.32,8.37,8.37,0,0,1-4.9,2.8L273.63,61h-5.55l-6.81-9.38h-2.13V61Zm9.52-21.9h-4.59v8.57h4.59a4.9,4.9,0,0,0,3.42-1.16,3.93,3.93,0,0,0,1.27-3,4.16,4.16,0,0,0-1.3-3.12A4.73,4.73,0,0,0,263.73,39.1Z"/><path class="cls-1" d="M287.86,61,277.81,34.72h5.13l7.22,18.89,7.13-18.89h5L292.33,61Z"/><path class="cls-1" d="M323.13,49.88h-9.72v6.73h10.67V61h-15.6V34.72h15.3V39.1H313.41v6.4h9.72Z"/><path class="cls-1" d="M332.07,61V34.72h10.29a8.88,8.88,0,0,1,6.33,2.38,8.21,8.21,0,0,1,2.52,6.24,7.85,7.85,0,0,1-1.88,5.32,8.4,8.4,0,0,1-4.9,2.8L351.49,61h-5.55l-6.82-9.38H337V61Zm9.52-21.9H337v8.57h4.59A4.9,4.9,0,0,0,345,46.51a3.93,3.93,0,0,0,1.27-3,4.16,4.16,0,0,0-1.3-3.12A4.74,4.74,0,0,0,341.59,39.1Z"/><path class="cls-1" d="M358.9,61V34.72h4.55V46.3l10.07-11.58h6.08L370.33,45.2,379.81,61h-5.68L367,49l-3.52,4v8Z"/><path class="cls-1" d="M386.78,61V34.72h4.93V56.27h9.65V61Z"/><path class="cls-1" d="M408.47,61V34.72h4.93V61Z"/><path class="cls-1" d="M438.83,50V45.63h9.42l0,2.25a13.54,13.54,0,0,1-1.93,7,13.14,13.14,0,0,1-5,4.84,13.5,13.5,0,0,1-6.69,1.72A13.61,13.61,0,0,1,421,47.79a13.62,13.62,0,0,1,13.73-13.65,13,13,0,0,1,9.8,4.25l-3.37,3.32a8.48,8.48,0,0,0-6.46-2.84,8.34,8.34,0,0,0-6.29,2.57,9.29,9.29,0,0,0,0,12.66,8,8,0,0,0,6,2.58,9.36,9.36,0,0,0,5.85-1.82,8.35,8.35,0,0,0,3.1-4.84Z"/><path class="cls-1" d="M451.85,61,462,34.72h4.45L476.54,61h-5.07l-1.39-3.64H458.32L456.92,61Zm12.37-18.93L460,53h8.39Z"/><path class="cls-1" d="M496.7,61V34.72h7.5a12.84,12.84,0,0,1,9.3,3.76,12.63,12.63,0,0,1,3.87,9.46,12.28,12.28,0,0,1-3.92,9.39A13.39,13.39,0,0,1,503.93,61Zm7.56-21.9h-3V56.61h3a7.57,7.57,0,0,0,5.82-2.54,9,9,0,0,0,2.33-6.26,8.65,8.65,0,0,0-2.37-6.21A7.72,7.72,0,0,0,504.26,39.1Z"/><path class="cls-1" d="M525.06,61V34.72H530V61Z"/><path class="cls-1" d="M536.34,39.44V34.72H558v4.72h-8.36V61h-4.93V39.44Z"/><path class="cls-1" d="M562.63,39.44V34.72h21.65v4.72h-8.36V61H571V39.44Z"/><path class="cls-1" d="M604.79,61V34.72h4.93V56.27h9.65V61Z"/><path class="cls-1" d="M626.48,61V34.72h4.93V61Z"/><path class="cls-1" d="M647.58,61,637.53,34.72h5.13l7.22,18.89L657,34.72h5L652.05,61Z"/><path class="cls-1" d="M674.19,61.34a12.46,12.46,0,0,1-5-1A13,13,0,0,1,665,57.43l3.13-3.75A9.29,9.29,0,0,0,671,56a7.29,7.29,0,0,0,3.46.92,4.26,4.26,0,0,0,2.8-.9,2.82,2.82,0,0,0,1.09-2.27c0-1.63-1-2.85-2.88-3.64L672.55,49a11.13,11.13,0,0,1-4.37-2.9,6.68,6.68,0,0,1-1.41-4.46,6.84,6.84,0,0,1,2.23-5,7.61,7.61,0,0,1,5.57-2.19,11.32,11.32,0,0,1,8.09,3l-2.9,3.67a6.77,6.77,0,0,0-5.19-2.28,3.53,3.53,0,0,0-2.36.75,2.36,2.36,0,0,0-.89,1.86,2.43,2.43,0,0,0,.7,1.8,6.83,6.83,0,0,0,2.25,1.35l3.07,1.23q5.85,2.34,5.95,7.59a7.35,7.35,0,0,1-2.47,5.75A9.6,9.6,0,0,1,674.19,61.34Z"/><path class="cls-1" d="M697.76,61l-10-26.28h5.13l7.22,18.89,7.13-18.89h5L702.23,61Z"/><path class="cls-1" d="M733,49.88h-9.72v6.73H734V61H718.38V34.72h15.3V39.1H723.31v6.4H733Z"/><path class="cls-1" d="M742,61V34.72h10.28a8.88,8.88,0,0,1,6.33,2.38,8.22,8.22,0,0,1,2.53,6.24,7.86,7.86,0,0,1-1.89,5.32,8.37,8.37,0,0,1-4.9,2.8L761.39,61h-5.54L749,51.62h-2.12V61Zm9.52-21.9h-4.59v8.57h4.59a4.89,4.89,0,0,0,3.41-1.16,3.93,3.93,0,0,0,1.28-3,4.17,4.17,0,0,0-1.31-3.12A4.7,4.7,0,0,0,751.5,39.1Z"/><path class="cls-1" d="M768.8,61V34.72h4.56V46.3l10.06-11.58h6.09L780.23,45.2,789.71,61H784l-7.16-12-3.51,4v8Z"/></svg>