<svg id="Layer_1" data-name="Layer 1" xmlns="http://www.w3.org/2000/svg" viewBox="0 0 728 90"><defs><style>.cls-1{fill:#d80201;}</style></defs><title>text</title><path class="cls-1" d="M375.91,26.57a6.49,6.49,0,0,1-5.72-3.17l2.1-2a3.82,3.82,0,0,0,3.5,2.22,2.37,2.37,0,0,0,2.57-2.35c0-3.42-7.32-1.8-7.32-7.17a4.89,4.89,0,0,1,5.2-4.85,7.31,7.31,0,0,1,4.87,1.85l-1.7,2.22a3.37,3.37,0,0,0-2.7-1.35c-1.08,0-2.32.67-2.32,1.87,0,2.82,7.32,1.42,7.32,7.25C381.71,24.47,379.21,26.57,375.91,26.57Z"/><path class="cls-1" d="M390.76,26.52a4.33,4.33,0,0,1-3.62-1.77v7.2h-3V15.34h3v1.37A4.31,4.31,0,0,1,390.69,15c3.22,0,5.35,2.67,5.35,5.77S393.94,26.52,390.76,26.52Zm-.9-8.8a3,3,0,1,0,3,3A3,3,0,0,0,389.86,17.72Z"/><path class="cls-1" d="M406.61,26.17V24.74a4.18,4.18,0,0,1-3.52,1.77c-3.25,0-5.32-2.7-5.32-5.8S399.84,15,403,15a4.51,4.51,0,0,1,3.6,1.72V15.34h3V26.17Zm-5.22-12.85a1.8,1.8,0,1,1,0-3.6,1.8,1.8,0,1,1,0,3.6Zm2.52,4.4a3,3,0,1,0,3,3A3,3,0,0,0,403.91,17.72Zm2.67-4.4a1.82,1.82,0,0,1-1.8-1.8,1.8,1.8,0,1,1,1.8,1.8Z"/><path class="cls-1" d="M420,26.17v-6c0-1.47-.32-2.6-2-2.6-1.87,0-2.32,1.38-2.32,3v5.6h-3V15.34h3v1.32A4,4,0,0,1,419,15a4.15,4.15,0,0,1,3.15,1.3,4.17,4.17,0,0,1,.85,3v6.87Z"/><path class="cls-1" d="M433.29,26.17v-6c0-1.47-.33-2.6-2-2.6s-2.32,1.38-2.32,3v5.6h-3V15.34h3v1.32a4,4,0,0,1,3.4-1.67,4.15,4.15,0,0,1,3.15,1.3,4.17,4.17,0,0,1,.85,3v6.87Z"/><path class="cls-1" d="M447.49,26.17V24.74A4.18,4.18,0,0,1,444,26.52c-3.25,0-5.32-2.7-5.32-5.8S440.71,15,443.89,15a4.51,4.51,0,0,1,3.6,1.72V15.34h3V26.17Zm-2.7-8.45a3,3,0,1,0,3,3A3,3,0,0,0,444.79,17.72Z"/><path class="cls-1" d="M460.83,26.17v-6c0-1.47-.32-2.6-2-2.6-1.87,0-2.32,1.38-2.32,3v5.6h-3V15.34h3v1.32a4,4,0,0,1,3.4-1.67,4.15,4.15,0,0,1,3.15,1.3,4.17,4.17,0,0,1,.85,3v6.87Z"/><path class="cls-1" d="M475,26.17V24.74a4.18,4.18,0,0,1-3.52,1.77c-3.25,0-5.32-2.7-5.32-5.8S468.26,15,471.44,15a4.51,4.51,0,0,1,3.6,1.72V7.45h3V26.17Zm-2.7-8.45a3,3,0,1,0,3,3A3,3,0,0,0,472.34,17.72Z"/><path class="cls-1" d="M483.51,21.24c0,1.67.85,2.9,2.65,2.9a2.84,2.84,0,0,0,2.57-1.45l2.8.45a5.3,5.3,0,0,1-5.32,3.37,5.43,5.43,0,0,1-5.8-5.77A5.36,5.36,0,0,1,486.09,15c3.57,0,5.52,2.4,5.52,5.85v.4Zm2.62-4.1a2.46,2.46,0,0,0-2.52,2.17h5.12A2.51,2.51,0,0,0,486.14,17.14Z"/><path class="cls-1" d="M494.51,29.67l-1.92-.22,2.65-6.72L498,23Z"/><path class="cls-1" d="M378.11,51.17V49.74a4.18,4.18,0,0,1-3.52,1.77c-3.25,0-5.32-2.7-5.32-5.8S371.34,40,374.51,40a4.51,4.51,0,0,1,3.6,1.72V40.34h3V51.17Zm-2.7-8.45a3,3,0,1,0,3,3A3,3,0,0,0,375.41,42.72Z"/><path class="cls-1" d="M391.46,51.17v-6c0-1.47-.33-2.6-2-2.6s-2.32,1.38-2.32,3v5.6h-3V40.34h3v1.32a4,4,0,0,1,3.4-1.67,3.74,3.74,0,0,1,4,4.3v6.87Z"/><path class="cls-1" d="M404.79,51.17v-6c0-1.47-.32-2.6-2-2.6-1.87,0-2.32,1.38-2.32,3v5.6h-3V40.34h3v1.32a4,4,0,0,1,3.4-1.67,3.74,3.74,0,0,1,4,4.3v6.87Z"/><path class="cls-1" d="M416.34,51.52c-3.45,0-6.2-2.15-6.2-5.75S412.89,40,416.36,40s6.15,2.17,6.15,5.75S419.76,51.52,416.34,51.52Zm0-8.8a3,3,0,1,0,3.07,3A3.06,3.06,0,0,0,416.31,42.72Z"/><path class="cls-1" d="M431.91,43.09a2.68,2.68,0,0,0-1.45-.37c-2,0-2.6,1.45-2.6,3.25v5.2h-3V40.34h3V42a3.53,3.53,0,0,1,4.47-1.72Z"/><path class="cls-1" d="M433.84,51.17V32.45h3V51.17Z"/><path class="cls-1" d="M445,51.52c-3,0-5.22-1.32-5.22-4.55V40.34h3v6.12c0,1.47.62,2.47,2.2,2.47s2.2-1,2.2-2.47V40.34h3V47C450.23,50.19,448,51.52,445,51.52Z"/><path class="cls-1" d="M460.54,51.17v-6c0-1.47-.32-2.6-2-2.6-1.87,0-2.32,1.38-2.32,3v5.6h-3V40.34h3v1.32a4,4,0,0,1,3.4-1.67,3.74,3.74,0,0,1,4,4.3v6.87Z"/><path class="cls-1" d="M474.74,51.17V49.74a4.18,4.18,0,0,1-3.52,1.77c-3.25,0-5.32-2.7-5.32-5.8S468,40,471.14,40a4.51,4.51,0,0,1,3.6,1.72V32.45h3V51.17ZM472,42.72a3,3,0,1,0,3,3A3,3,0,0,0,472,42.72Z"/><path class="cls-1" d="M489,51.17V49.74a4.18,4.18,0,0,1-3.52,1.77c-3.25,0-5.32-2.7-5.32-5.8S482.19,40,485.36,40a4.51,4.51,0,0,1,3.6,1.72V40.34h3V51.17Zm-2.7-8.45a3,3,0,1,0,3,3A3,3,0,0,0,486.26,42.72Z"/><path class="cls-1" d="M496.59,51.49a1.95,1.95,0,1,1,1.95-1.95A2,2,0,0,1,496.59,51.49ZM495,46.39V34.5h3.1v11.9Z"/></svg>