<svg id="Layer_1" data-name="Layer 1" xmlns="http://www.w3.org/2000/svg" viewBox="0 0 980 240"><defs><style>.cls-1{fill:#d80201;}</style></defs><title>text</title><path class="cls-1" d="M264,108.76v7.4H274.4v5.65H264v14.65h-6.5V103.11H275.1v5.65Z"/><path class="cls-1" d="M294,120.31a5.35,5.35,0,0,0-2.9-.75c-4.1,0-5.2,2.9-5.2,6.5v10.4h-6V114.81h6v3.25a7.06,7.06,0,0,1,9-3.45Z"/><path class="cls-1" d="M300.8,109.31a3.65,3.65,0,0,1,0-7.3,3.65,3.65,0,0,1,0,7.3Zm-3.05,27.15V114.81h6.05v21.65Z"/><path class="cls-1" d="M326.05,136.46v-2.85a8.37,8.37,0,0,1-7.05,3.55c-6.5,0-10.65-5.4-10.65-11.6s4.15-11.45,10.5-11.45a9,9,0,0,1,7.2,3.45v-2.75h6.1v21.65Zm-5.4-16.9a6.08,6.08,0,1,0,6.05,6A6,6,0,0,0,320.65,119.56Z"/><path class="cls-1" d="M356.55,120v16.45H350.5V120h-2.4v-5.2h2.4v-7.4h6.05v7.4h4.25V120Z"/><path class="cls-1" d="M366.9,109.31a3.65,3.65,0,1,1,0-7.3,3.65,3.65,0,0,1,0,7.3Zm-3,27.15V114.81h6v21.65Z"/><path class="cls-1" d="M375.6,136.46V99h6v37.45Z"/><path class="cls-1" d="M387.45,136.46V99h6.05v37.45Z"/><path class="cls-1" d="M410.3,136.91h-2.8l-11.05-22.1h6.8L409,127l5.7-12.2h6.8Z"/><path class="cls-1" d="M439.85,136.46v-2.85a8.37,8.37,0,0,1-7.05,3.55c-6.5,0-10.65-5.4-10.65-11.6s4.15-11.45,10.5-11.45a9,9,0,0,1,7.2,3.45v-2.75H446v21.65Zm-5.4-16.9a6.08,6.08,0,1,0,6.05,6A6,6,0,0,0,434.45,119.56Z"/><path class="cls-1" d="M451.75,136.46V99h6.05v37.45Z"/><path class="cls-1" d="M485.15,137.31A14.26,14.26,0,0,1,474.5,133l2.15-5.6c2.2,2.5,5,4.25,8.4,4.25a6.61,6.61,0,0,0,6.65-6.45c0-4.1-3.8-6.65-7.6-6.65a11,11,0,0,0-6.4,2.1h-.35l3.95-17.5h15.4v5.7h-11L484.4,114a20.23,20.23,0,0,1,2.45-.2c6.65,0,11.35,5.1,11.35,11.65C498.2,133,492.3,137.31,485.15,137.31Z"/><path class="cls-1" d="M515.7,137.31c-9.2,0-12.91-9.7-12.91-17.5s3.66-17.55,12.91-17.55,12.9,9.65,12.9,17.5S525,137.31,515.7,137.31Zm0-29.3c-5.1,0-6.41,7.9-6.41,11.75s1.31,11.85,6.41,11.85,6.4-8,6.4-11.85S520.8,108,515.7,108Z"/><path class="cls-1" d="M556.54,137.31c-9.2,0-12.9-9.7-12.9-17.5s3.65-17.55,12.9-17.55,12.91,9.65,12.91,17.5S565.79,137.31,556.54,137.31Zm0-29.3c-5.1,0-6.4,7.9-6.4,11.75s1.3,11.85,6.4,11.85,6.4-8,6.4-11.85S561.64,108,556.54,108Z"/><path class="cls-1" d="M584.89,137.31c-9.2,0-12.9-9.7-12.9-17.5s3.65-17.55,12.9-17.55,12.9,9.65,12.9,17.5S594.14,137.31,584.89,137.31Zm0-29.3c-5.1,0-6.4,7.9-6.4,11.75s1.3,11.85,6.4,11.85,6.4-8,6.4-11.85S590,108,584.89,108Z"/><path class="cls-1" d="M613.24,137.31c-9.2,0-12.9-9.7-12.9-17.5s3.65-17.55,12.9-17.55,12.9,9.65,12.9,17.5S622.49,137.31,613.24,137.31Zm0-29.3c-5.1,0-6.4,7.9-6.4,11.75s1.3,11.85,6.4,11.85,6.4-8,6.4-11.85S618.34,108,613.24,108Z"/><path class="cls-1" d="M657.69,136.46l-8.15-9.3-.65.65v8.65h-6V99h6v23.7l8.1-7.9h8.2L655,124.31l11,12.15Z"/><path class="cls-1" d="M682.84,120.31a5.35,5.35,0,0,0-2.9-.75c-4.1,0-5.2,2.9-5.2,6.5v10.4h-6V114.81h6v3.25a7.06,7.06,0,0,1,9-3.45Z"/><path class="cls-1" d="M710.19,136.91h-2.8l-11-22.1h6.8l5.7,12.2,5.7-12.2h6.8Z"/><path class="cls-1" d="M727.24,109.31a3.65,3.65,0,1,1,0-7.3,3.65,3.65,0,0,1,0,7.3Zm-3,27.15V114.81h6v21.65Z"/><path class="cls-1" d="M752.49,136.46v-2.85a8.37,8.37,0,0,1-7,3.55c-6.5,0-10.65-5.4-10.65-11.6s4.15-11.45,10.5-11.45a9,9,0,0,1,7.2,3.45V99h6.1v37.45Zm-5.4-16.9a6.08,6.08,0,1,0,6,6A6,6,0,0,0,747.09,119.56Z"/><path class="cls-1" d="M791.74,136.46l-8.15-9.3-.65.65v8.65h-6.05V99h6.05v23.7l8.1-7.9h8.2l-10.15,9.5L800,136.46Z"/><path class="cls-1" d="M814,137.16c-6.9,0-12.4-4.3-12.4-11.5s5.5-11.55,12.45-11.55,12.3,4.35,12.3,11.5S820.84,137.16,814,137.16Zm-5.25-26.4a3.6,3.6,0,0,1,0-7.2,3.6,3.6,0,1,1,0,7.2Zm5.2,8.8a6.08,6.08,0,1,0,6.15,6.1A6.12,6.12,0,0,0,813.94,119.56Zm5.2-8.8a3.65,3.65,0,0,1-3.6-3.6,3.6,3.6,0,1,1,3.6,3.6Z"/><path class="cls-1" d="M844.29,137.16a8.66,8.66,0,0,1-7.25-3.55V148h-6v-33.2h6v2.75a8.63,8.63,0,0,1,7.1-3.45c6.45,0,10.7,5.35,10.7,11.55C854.84,131.71,850.64,137.16,844.29,137.16Zm-1.8-17.6a6.08,6.08,0,1,0,6,6A6,6,0,0,0,842.49,119.56Z"/></svg>