<svg id="Layer_1" data-name="Layer 1" xmlns="http://www.w3.org/2000/svg" viewBox="0 0 980 120"><defs><style>.cls-1{fill:#d4ac76;}</style></defs><title>text</title><path class="cls-1" d="M602.32,46.51a7,7,0,0,0,.26-1.59c0-.68-.78-1.11-2-1.11h-1.2a.28.28,0,0,1-.31-.35l.18-1c0-.26.21-.26.56-.26h3.26c1.16,0,2.28,0,3.4-.08s2.28,0,3.4,0,4.77,0,7.05,1.41a5.32,5.32,0,0,1,2.58,4.56c0,5.25-4.64,7.48-8.94,8.26-.18,0-.18.08-.09.17,4,1,6.36,3.35,6.36,7a7.12,7.12,0,0,1-2.4,5.11c-1.64,1.47-4.3,2.58-9.55,2.58-2.06,0-4.21-.13-6.28-.13s-4,.13-6,.13c-.26,0-.43-.08-.34-.43l.17-.94a.32.32,0,0,1,.34-.35h1.55c1.46,0,2.15-.94,2.58-2.53Zm-.52,20.13c-.34,1.29-.34,2.06.43,2.49a6.36,6.36,0,0,0,2.67.52,6.65,6.65,0,0,0,6.88-7c0-4.47-4.21-5.59-6.88-5.67h-.52Zm2.93-11.27a9.92,9.92,0,0,0,2.15.17c4,0,7.74-2.06,7.82-7.13,0-2.58-2.4-4.82-5.41-4.82a6.67,6.67,0,0,0-1.38.09Z"/><path class="cls-1" d="M632.46,66.77c.22.13.22.21.13.38a9.69,9.69,0,0,1-7.65,4.3c-2.84,0-4.56-1.54-4.56-4.55a16.06,16.06,0,0,1,5.33-11.1,10.08,10.08,0,0,1,6.45-2.66,2.7,2.7,0,0,1,3,2.53c0,2.2-1.46,4.17-4,5.55A16.19,16.19,0,0,1,624.94,63a10.15,10.15,0,0,0-.43,3.18A2.49,2.49,0,0,0,626.83,69a6.05,6.05,0,0,0,4.64-2.58c.09-.09.26-.17.35-.09Zm-7.18-5.12a8.75,8.75,0,0,0,4.3-1.63,4.69,4.69,0,0,0,1.81-3.27c0-.78-.35-1.55-1.29-1.55C628,55.2,625.8,59.33,625.28,61.65Z"/><path class="cls-1" d="M639.13,71.45c-2.84,0-4.3-1-4.3-2.49a1.68,1.68,0,0,1,1.63-1.81,2.2,2.2,0,0,1,2.07,1.72c.25.69.6,1.12,1.37,1.12,1.21,0,2.15-.94,2.15-2.75.09-1.46-1-2.71-1.93-4.26s-1.68-2.53-1.59-4.34c0-2.75,2.32-5.5,6.36-5.5,1.46,0,3.35.6,3.35,2.4a1.68,1.68,0,0,1-3.35.35c-.17-.52-.35-1.21-1-1.21-.86,0-1.81.61-1.81,2.5,0,1.46,1.51,3.22,2,3.87a7.61,7.61,0,0,1,1.63,4.64C645.66,69.05,643,71.45,639.13,71.45Z"/><path class="cls-1" d="M654.91,65.43a10.89,10.89,0,0,0-.78,2.5.72.72,0,0,0,.78.77c1,0,3.65-2.15,3.91-2.41s.26-.17.43,0l.47.52c.18.09.18.17.09.34-.52.69-4.39,4.3-8.26,4.3-1.29,0-1.8-.68-1.8-1.29a7.79,7.79,0,0,1,.43-2.4L654.74,56h-3.19c-.25,0-.34-.08-.25-.43l.34-1.11c.09-.26.17-.35.43-.35h3.31l1.76-4.56c.18-.43.35-.51,1.12-.6a9.34,9.34,0,0,0,2.93-1.12,3.65,3.65,0,0,1,.68-.25c.26,0,.43.43.26.86l-2.79,5.67h4.43c.17,0,.25.17.17.43l-.35,1.25c0,.17-.17.21-.43.21h-4.47Z"/><path class="cls-1" d="M681,53.05c.25,0,.34.17.25.43-.77,1.81-2.83,7.31-3.18,8.43-.17.77-1.8,5.76-1.8,6.28s.17.51.51.51c.6,0,2.32-2.06,2.67-2.49.17-.17.26-.26.43-.13l.51.39q.14.12,0,.51c-.43.86-3.44,4.47-6.79,4.47-1,0-1.38-.43-1.38-1.11s.26-1.55,1.81-6l-.26-.09c-1.8,2.67-5.33,7.22-8.86,7.22a3.1,3.1,0,0,1-2.66-3.09c0-5.76,6-15.22,11.78-15.22a3.69,3.69,0,0,1,3.27,1.46l.69-1.21a.79.79,0,0,1,.68-.34Zm-6.45,7.57a8.66,8.66,0,0,0,1-3.87,2.11,2.11,0,0,0-2-1.89c-1.12,0-2.41,1-3.53,2.62a18.76,18.76,0,0,0-3.61,9.67c0,.95.35,1.38,1,1.38C669.1,68.53,673.74,62.25,674.52,60.62ZM670.73,46a2.07,2.07,0,0,1,4.13.17,1.8,1.8,0,0,1-2,1.8A1.91,1.91,0,0,1,670.73,46Zm6.8,0a2.07,2.07,0,0,1,4.12.17,1.8,1.8,0,0,1-2,1.8A1.91,1.91,0,0,1,677.53,46Z"/><path class="cls-1" d="M690.73,46.17c.56-1.5.51-2.62-.78-2.62h-1.37c-.17,0-.22-.13-.17-.35l.25-1A.32.32,0,0,1,689,42h6.62c.39,0,.47.26.34.64l-8.68,23.48c-.43,1.12-.86,2.58,0,2.58s2.58-1.63,3.09-2.23c.18-.09.26-.09.43.08l.52.43a.39.39,0,0,1,0,.52c-.17.26-3.87,4-7.65,4a1.52,1.52,0,0,1-1.47-1.54,26.58,26.58,0,0,1,1.38-4.3Z"/><path class="cls-1" d="M701.82,46.17c.56-1.5.52-2.62-.77-2.62h-1.38c-.17,0-.21-.13-.17-.35l.26-1a.31.31,0,0,1,.34-.21h6.62c.39,0,.48.26.35.64l-8.69,23.48c-.43,1.12-.86,2.58,0,2.58s2.58-1.63,3.1-2.23c.17-.09.26-.09.43.08l.51.43a.39.39,0,0,1,0,.52c-.17.26-3.87,4-7.65,4a1.52,1.52,0,0,1-1.46-1.54,26.4,26.4,0,0,1,1.37-4.3Z"/></svg>