<svg id="Layer_1" data-name="Layer 1" xmlns="http://www.w3.org/2000/svg" viewBox="0 0 728 90"><defs><style>.cls-1{fill:#d80201;}</style></defs><title>text</title><path class="cls-1" d="M387.78,18.52c-1.62,1.75-4.17,1.47-6.35,1.47v6.17h-3.25V9.5H383a6,6,0,0,1,4.4,1.27,5.31,5.31,0,0,1,1.7,4A5.48,5.48,0,0,1,387.78,18.52Zm-2.85-5.67a3.88,3.88,0,0,0-2.37-.52h-1.12v4.85h1.32c1.62,0,3-.52,3-2.4A2.47,2.47,0,0,0,384.93,12.84Z"/><path class="cls-1" d="M398.15,18.09a2.68,2.68,0,0,0-1.45-.37c-2,0-2.6,1.45-2.6,3.25v5.2h-3V15.34h3V17a3.53,3.53,0,0,1,4.47-1.72Z"/><path class="cls-1" d="M402.6,21.24c0,1.67.85,2.9,2.65,2.9a2.84,2.84,0,0,0,2.57-1.45l2.8.45a5.31,5.31,0,0,1-5.32,3.37,5.43,5.43,0,0,1-5.8-5.77A5.36,5.36,0,0,1,405.18,15c3.57,0,5.52,2.4,5.52,5.85v.4Zm2.62-4.1a2.45,2.45,0,0,0-2.52,2.17h5.12A2.51,2.51,0,0,0,405.23,17.14Z"/><path class="cls-1" d="M426.85,26.17V20.24c0-1.27-.2-2.67-1.8-2.67-1.77,0-2.07,1.63-2.07,3v5.55h-3V20.42a4.82,4.82,0,0,0-.23-1.8,1.75,1.75,0,0,0-1.62-1,2,2,0,0,0-1.7,1,4.5,4.5,0,0,0-.35,2.07v5.55h-3V15.34h3v1.22a4.16,4.16,0,0,1,3.3-1.57,3.68,3.68,0,0,1,3.37,2,4,4,0,0,1,3.55-2,3.56,3.56,0,0,1,3,1.55,4.77,4.77,0,0,1,.57,2.62v7Z"/><path class="cls-1" d="M434.25,12.59a1.82,1.82,0,1,1,0-3.65,1.82,1.82,0,0,1,0,3.65Zm-1.52,13.57V15.34h3V26.17Z"/><path class="cls-1" d="M446.88,26.17V24.74a4.18,4.18,0,0,1-3.52,1.77c-3.25,0-5.32-2.7-5.32-5.8S440.1,15,443.28,15a4.51,4.51,0,0,1,3.6,1.72V15.34h3V26.17Zm-5.22-12.85a1.8,1.8,0,1,1,0-3.6,1.8,1.8,0,0,1,0,3.6Zm2.52,4.4a3,3,0,1,0,3,3A3,3,0,0,0,444.18,17.72Zm2.67-4.4a1.82,1.82,0,0,1-1.8-1.8,1.8,1.8,0,1,1,1.8,1.8Z"/><path class="cls-1" d="M459.9,18.09a2.68,2.68,0,0,0-1.45-.37c-2,0-2.6,1.45-2.6,3.25v5.2h-3V15.34h3V17a3.53,3.53,0,0,1,4.47-1.72Z"/><path class="cls-1" d="M471.2,17.94v8.22h-3V17.94H467v-2.6h1.17V11.87a5.28,5.28,0,0,1,.47-2.55,4.28,4.28,0,0,1,3.75-2.17,3.58,3.58,0,0,1,1.6.38V10.3a3,3,0,0,0-1.37-.4c-1.35,0-1.42,1.4-1.42,2.42v3H474v2.6Z"/><path class="cls-1" d="M481,26.52c-3.45,0-6.2-2.15-6.2-5.75S477.58,15,481.05,15s6.15,2.17,6.15,5.75S484.45,26.52,481,26.52Zm-2.62-13.2a1.8,1.8,0,0,1,0-3.6,1.8,1.8,0,1,1,0,3.6Zm2.6,4.4a3,3,0,1,0,3.07,3A3.06,3.06,0,0,0,481,17.72Zm2.6-4.4a1.82,1.82,0,0,1-1.8-1.8,1.8,1.8,0,1,1,1.8,1.8Z"/><path class="cls-1" d="M496.6,18.09a2.68,2.68,0,0,0-1.45-.37c-2,0-2.6,1.45-2.6,3.25v5.2h-3V15.34h3V17A3.53,3.53,0,0,1,497,15.24Z"/><path class="cls-1" d="M359.14,42.94v8.22h-3V42.94h-1.17v-2.6h1.17V36.87a5.28,5.28,0,0,1,.47-2.55,4.28,4.28,0,0,1,3.75-2.17,3.58,3.58,0,0,1,1.6.38V35.3a3,3,0,0,0-1.37-.4c-1.35,0-1.42,1.4-1.42,2.42v3h2.8v2.6Z"/><path class="cls-1" d="M370.42,43.09a2.68,2.68,0,0,0-1.45-.37c-2,0-2.6,1.45-2.6,3.25v5.2h-3V40.34h3V42a3.53,3.53,0,0,1,4.47-1.72Z"/><path class="cls-1" d="M380.62,51.17V49.74a4.18,4.18,0,0,1-3.52,1.77c-3.25,0-5.32-2.7-5.32-5.8S373.84,40,377,40a4.51,4.51,0,0,1,3.6,1.72V40.34h3V51.17Zm-2.7-8.45a3,3,0,1,0,3,3A3,3,0,0,0,377.92,42.72Z"/><path class="cls-1" d="M400.39,51.17V45.24c0-1.27-.2-2.67-1.8-2.67-1.77,0-2.07,1.63-2.07,3v5.55h-3V45.42a4.82,4.82,0,0,0-.23-1.8,1.75,1.75,0,0,0-1.62-1,2,2,0,0,0-1.7,1,4.5,4.5,0,0,0-.35,2.07v5.55h-3V40.34h3v1.22a4.16,4.16,0,0,1,3.3-1.57,3.68,3.68,0,0,1,3.37,2,4,4,0,0,1,3.55-2,3.56,3.56,0,0,1,3,1.55,4.77,4.77,0,0,1,.57,2.62v7Z"/><path class="cls-1" d="M409.37,42.94v8.22h-3V42.94h-1.2v-2.6h1.2v-3.7h3v3.7h2.12v2.6Z"/><path class="cls-1" d="M414.54,37.59a1.82,1.82,0,1,1,0-3.65,1.82,1.82,0,0,1,0,3.65ZM413,51.17V40.34h3V51.17Z"/><path class="cls-1" d="M427.17,51.17V49.74a4.18,4.18,0,0,1-3.52,1.77c-3.25,0-5.32-2.7-5.32-5.8S420.39,40,423.57,40a4.51,4.51,0,0,1,3.6,1.72V32.45h3V51.17Zm-2.7-8.45a3,3,0,1,0,3,3A3,3,0,0,0,424.47,42.72Z"/><path class="cls-1" d="M435.64,46.24c0,1.67.85,2.9,2.65,2.9a2.84,2.84,0,0,0,2.57-1.45l2.8.45a5.31,5.31,0,0,1-5.32,3.37,5.43,5.43,0,0,1-5.8-5.77A5.36,5.36,0,0,1,438.22,40c3.57,0,5.52,2.4,5.52,5.85v.4Zm2.62-4.1a2.45,2.45,0,0,0-2.52,2.17h5.12A2.51,2.51,0,0,0,438.27,42.14Z"/><path class="cls-1" d="M453.46,51.17v-6c0-1.47-.32-2.6-2-2.6s-2.32,1.38-2.32,3v5.6h-3V40.34h3v1.32a4,4,0,0,1,3.4-1.67,3.74,3.74,0,0,1,4,4.3v6.87Z"/><path class="cls-1" d="M462.84,51.52a5.76,5.76,0,0,1-4.12-1.8l1.6-1.85a3.51,3.51,0,0,0,2.55,1.27,1.27,1.27,0,0,0,1.37-1.2c0-1.85-4.82-.92-4.82-4.57,0-2.2,1.82-3.42,3.87-3.42a5.58,5.58,0,0,1,3.52,1.15l-1.5,1.77a3,3,0,0,0-1.8-.73c-.52,0-1.15.33-1.15.92,0,1.57,5,.88,5,4.57C467.36,50.17,465.16,51.52,462.84,51.52Z"/><path class="cls-1" d="M481.26,51.39h-1.4l-5.52-11h3.4l2.85,6.1,2.85-6.1h3.4Z"/><path class="cls-1" d="M489.79,37.59a1.82,1.82,0,1,1,0-3.65,1.82,1.82,0,0,1,0,3.65Zm-1.52,13.57V40.34h3V51.17Z"/><path class="cls-1" d="M494.14,51.17V32.45h3V51.17Z"/><path class="cls-1" d="M500.07,51.17V32.45h3V51.17Z"/><path class="cls-1" d="M514.26,51.17V49.74a4.18,4.18,0,0,1-3.52,1.77c-3.25,0-5.32-2.7-5.32-5.8S507.49,40,510.66,40a4.51,4.51,0,0,1,3.6,1.72V40.34h3V51.17Zm-2.7-8.45a3,3,0,1,0,3,3A3,3,0,0,0,511.56,42.72Z"/></svg>