<svg id="Layer_1" data-name="Layer 1" xmlns="http://www.w3.org/2000/svg" viewBox="0 0 980 120"><defs><style>.cls-1{fill:#d4ac76;}</style></defs><title>text</title><path class="cls-1" d="M231,46.42v-3.2h14.65v3.2H240V61h-3.33V46.42Z"/><path class="cls-1" d="M249.87,61V43.22h6.95a6,6,0,0,1,4.28,1.62,5.52,5.52,0,0,1,1.71,4.21,5.34,5.34,0,0,1-1.27,3.61,5.81,5.81,0,0,1-3.32,1.89L263,61h-3.75l-4.61-6.35H253.2V61Zm6.44-14.81H253.2V52h3.11a3.29,3.29,0,0,0,2.31-.79,2.66,2.66,0,0,0,.86-2,2.82,2.82,0,0,0-.89-2.11A3.18,3.18,0,0,0,256.31,46.19Z"/><path class="cls-1" d="M277,43.22h3.58l-5.89,10.56V61h-3.33V53.89l-6-10.67h3.66l4,7.37Z"/><path class="cls-1" d="M294.72,53.57v-3h6.37l0,1.52a9.09,9.09,0,0,1-1.3,4.72,8.88,8.88,0,0,1-3.37,3.27,9.1,9.1,0,0,1-4.53,1.17,9.23,9.23,0,0,1-6.55-15.74,8.92,8.92,0,0,1,6.6-2.71,8.77,8.77,0,0,1,6.62,2.87L296.26,48A5.77,5.77,0,0,0,291.89,46a5.67,5.67,0,0,0-4.26,1.74,6.28,6.28,0,0,0,0,8.56,5.42,5.42,0,0,0,4,1.75,6.3,6.3,0,0,0,4-1.24,5.61,5.61,0,0,0,2.09-3.27Z"/><path class="cls-1" d="M317.49,53.57v-3h6.37l0,1.52a9.09,9.09,0,0,1-1.3,4.72,8.88,8.88,0,0,1-3.37,3.27,9.1,9.1,0,0,1-4.53,1.17,9.23,9.23,0,0,1-6.55-15.74,8.92,8.92,0,0,1,6.6-2.71,8.77,8.77,0,0,1,6.62,2.87L319,48A5.77,5.77,0,0,0,314.66,46a5.67,5.67,0,0,0-4.26,1.74,6.28,6.28,0,0,0,0,8.56,5.42,5.42,0,0,0,4,1.75,6.3,6.3,0,0,0,4-1.24,5.61,5.61,0,0,0,2.09-3.27Z"/><path class="cls-1" d="M325.93,64.24l2-6,2.79,1-3,5.75Z"/><path class="cls-1" d="M343.54,46.42v-3.2h14.65v3.2h-5.65V61H349.2V46.42Z"/><path class="cls-1" d="M362.45,61V43.22h7a6,6,0,0,1,4.28,1.62,5.52,5.52,0,0,1,1.71,4.21,5.39,5.39,0,0,1-1.27,3.61,5.81,5.81,0,0,1-3.32,1.89L375.58,61h-3.75l-4.61-6.35h-1.43V61Zm6.44-14.81h-3.1V52h3.1a3.26,3.26,0,0,0,2.31-.79,2.62,2.62,0,0,0,.86-2,2.81,2.81,0,0,0-.88-2.11A3.18,3.18,0,0,0,368.89,46.19Z"/><path class="cls-1" d="M389.57,43.22h3.59l-5.89,10.56V61h-3.34V53.89L378,43.22h3.66l4,7.37Z"/><path class="cls-1" d="M407.3,53.57v-3h6.37l0,1.52a9.19,9.19,0,0,1-1.3,4.72A9,9,0,0,1,409,60.11a9.16,9.16,0,0,1-4.53,1.17,9.23,9.23,0,0,1-6.56-15.74,9,9,0,0,1,6.6-2.71,8.79,8.79,0,0,1,6.63,2.87L408.84,48A5.74,5.74,0,0,0,404.47,46a5.65,5.65,0,0,0-4.25,1.74,6.28,6.28,0,0,0,0,8.56,5.39,5.39,0,0,0,4,1.75,6.26,6.26,0,0,0,4-1.24,5.61,5.61,0,0,0,2.09-3.27Z"/><path class="cls-1" d="M430.07,53.57v-3h6.37l0,1.52a9.19,9.19,0,0,1-1.3,4.72,9,9,0,0,1-3.37,3.27,9.16,9.16,0,0,1-4.53,1.17,9.23,9.23,0,0,1-6.56-15.74,9,9,0,0,1,6.6-2.71,8.79,8.79,0,0,1,6.63,2.87L431.61,48A5.74,5.74,0,0,0,427.24,46,5.65,5.65,0,0,0,423,47.77a6.28,6.28,0,0,0,0,8.56,5.39,5.39,0,0,0,4,1.75,6.26,6.26,0,0,0,4-1.24,5.61,5.61,0,0,0,2.09-3.27Z"/><path class="cls-1" d="M438.88,61l6.85-17.78h3L455.58,61h-3.43l-.94-2.46h-8L442.31,61Zm8.36-12.8-2.84,7.37h5.67Z"/><path class="cls-1" d="M459.74,61V43.22h7A6,6,0,0,1,471,44.84a5.52,5.52,0,0,1,1.71,4.21,5.39,5.39,0,0,1-1.27,3.61,5.81,5.81,0,0,1-3.32,1.89L472.87,61h-3.75l-4.61-6.35h-1.43V61Zm6.44-14.81h-3.1V52h3.1a3.26,3.26,0,0,0,2.31-.79,2.62,2.62,0,0,0,.86-2,2.81,2.81,0,0,0-.88-2.11A3.18,3.18,0,0,0,466.18,46.19Z"/><path class="cls-1" d="M487.8,53.48h-6.58V58h7.22v3H477.89V43.22h10.35v3h-7v4.32h6.58Z"/><path class="cls-1" d="M495.88,60.78a1.58,1.58,0,0,1-1.19.52,1.52,1.52,0,0,1-1.17-.52,1.76,1.76,0,0,1-.48-1.25,1.84,1.84,0,0,1,.48-1.27,1.53,1.53,0,0,1,1.17-.53,1.6,1.6,0,0,1,1.19.51,1.88,1.88,0,0,1,.5,1.29A1.74,1.74,0,0,1,495.88,60.78Zm5.41,0a1.6,1.6,0,0,1-1.2.52,1.52,1.52,0,0,1-1.17-.52,1.8,1.8,0,0,1-.47-1.25,1.88,1.88,0,0,1,.47-1.27,1.53,1.53,0,0,1,1.17-.53,1.63,1.63,0,0,1,1.2.51,1.87,1.87,0,0,1,.49,1.29A1.73,1.73,0,0,1,501.29,60.78Zm5.4,0a1.58,1.58,0,0,1-1.19.52,1.52,1.52,0,0,1-1.17-.52,1.76,1.76,0,0,1-.48-1.25,1.84,1.84,0,0,1,.48-1.27,1.53,1.53,0,0,1,1.17-.53,1.6,1.6,0,0,1,1.19.51,1.88,1.88,0,0,1,.5,1.29A1.74,1.74,0,0,1,506.69,60.78Z"/><path class="cls-1" d="M520.34,46.42v-3.2H535v3.2h-5.66V61H526V46.42Z"/><path class="cls-1" d="M539.25,61V43.22h7a6,6,0,0,1,4.28,1.62,5.52,5.52,0,0,1,1.71,4.21,5.34,5.34,0,0,1-1.27,3.61,5.81,5.81,0,0,1-3.32,1.89L552.38,61h-3.75L544,54.65h-1.43V61Zm6.44-14.81h-3.1V52h3.1a3.26,3.26,0,0,0,2.31-.79,2.63,2.63,0,0,0,.87-2A2.82,2.82,0,0,0,548,47,3.18,3.18,0,0,0,545.69,46.19Z"/><path class="cls-1" d="M557.4,61V43.22h3.33V61Z"/><path class="cls-1" d="M571.67,61l-6.8-17.78h3.48L573.23,56l4.82-12.78h3.37L574.69,61Z"/><path class="cls-1" d="M589.68,61.23a8.54,8.54,0,0,1-3.36-.7,9,9,0,0,1-2.88-2l2.12-2.53a6.24,6.24,0,0,0,2,1.59,4.94,4.94,0,0,0,2.34.62,2.89,2.89,0,0,0,1.9-.61,1.92,1.92,0,0,0,.74-1.53,2.65,2.65,0,0,0-2-2.47l-2-.79a7.69,7.69,0,0,1-2.95-2,4.55,4.55,0,0,1-1-3,4.63,4.63,0,0,1,1.51-3.37A5.16,5.16,0,0,1,589.93,43a7.65,7.65,0,0,1,5.48,2l-2,2.47A4.59,4.59,0,0,0,589.93,46a2.37,2.37,0,0,0-1.59.51,1.56,1.56,0,0,0-.6,1.26A1.64,1.64,0,0,0,588.2,49a4.76,4.76,0,0,0,1.53.92l2.07.83q4,1.59,4,5.13a5,5,0,0,1-1.67,3.89A6.47,6.47,0,0,1,589.68,61.23Z"/><path class="cls-1" d="M610.83,53.48h-6.58V58h7.22v3H600.91V43.22h10.35v3h-7v4.32h6.58Z"/><path class="cls-1" d="M616.88,61V43.22h3.33V57.8h6.53V61Z"/><path class="cls-1" d="M627,46.42v-3.2h14.65v3.2H636V61h-3.33V46.42Z"/><path class="cls-1" d="M645.92,61V43.22h7a6,6,0,0,1,4.28,1.62,5.52,5.52,0,0,1,1.71,4.21,5.34,5.34,0,0,1-1.27,3.61,5.81,5.81,0,0,1-3.32,1.89L659.06,61h-3.75l-4.61-6.35h-1.44V61Zm6.45-14.81h-3.11V52h3.11a3.29,3.29,0,0,0,2.31-.79,2.66,2.66,0,0,0,.86-2,2.82,2.82,0,0,0-.89-2.11A3.18,3.18,0,0,0,652.37,46.19Z"/><path class="cls-1" d="M673.05,43.22h3.58l-5.89,10.56V61h-3.33V53.89l-6-10.67h3.66l4,7.37Z"/><path class="cls-1" d="M690.77,53.57v-3h6.38l0,1.52a9.09,9.09,0,0,1-1.3,4.72,8.88,8.88,0,0,1-3.37,3.27,9.1,9.1,0,0,1-4.53,1.17,9.23,9.23,0,0,1-6.55-15.74,8.92,8.92,0,0,1,6.6-2.71,8.77,8.77,0,0,1,6.62,2.87L692.32,48A5.77,5.77,0,0,0,688,46a5.67,5.67,0,0,0-4.26,1.74,6.28,6.28,0,0,0,0,8.56,5.41,5.41,0,0,0,4,1.75,6.25,6.25,0,0,0,4-1.24,5.58,5.58,0,0,0,2.1-3.27Z"/><path class="cls-1" d="M713.54,53.57v-3h6.38l0,1.52a9.09,9.09,0,0,1-1.3,4.72,8.88,8.88,0,0,1-3.37,3.27,9.1,9.1,0,0,1-4.53,1.17,9.23,9.23,0,0,1-6.55-15.74,8.92,8.92,0,0,1,6.6-2.71,8.78,8.78,0,0,1,6.62,2.87L715.08,48A5.74,5.74,0,0,0,710.71,46a5.66,5.66,0,0,0-4.25,1.74,6.28,6.28,0,0,0,0,8.56,5.41,5.41,0,0,0,4,1.75,6.25,6.25,0,0,0,4-1.24,5.58,5.58,0,0,0,2.1-3.27Z"/><path class="cls-1" d="M727.91,60.78a1.6,1.6,0,0,1-2.36,0,1.76,1.76,0,0,1-.48-1.25,1.84,1.84,0,0,1,.48-1.27,1.57,1.57,0,0,1,1.18-.53,1.6,1.6,0,0,1,1.18.51,1.87,1.87,0,0,1,.49,1.29A1.73,1.73,0,0,1,727.91,60.78Zm-2.43-4.7-.3-12.38h3.15l-.27,12.38Z"/></svg>