<svg id="Layer_1" data-name="Layer 1" xmlns="http://www.w3.org/2000/svg" viewBox="0 0 980 120"><defs><style>.cls-1{fill:#d4ac76;}</style></defs><title>text</title><path class="cls-1" d="M831,47.75v-10h3.31a3,3,0,0,1,2.2.84,2.77,2.77,0,0,1,.87,2.08,2.37,2.37,0,0,1-1.13,2,2.8,2.8,0,0,1,1.11.9,2.13,2.13,0,0,1,.42,1.28,2.76,2.76,0,0,1-.88,2.13,3.15,3.15,0,0,1-2.22.81Zm3.09-8.37h-1.34V41.9h1.5a1.38,1.38,0,0,0,1-.37,1.24,1.24,0,0,0,.38-.93,1.08,1.08,0,0,0-.42-.89A1.75,1.75,0,0,0,834.09,39.38Zm.29,4h-1.63v2.67h1.59a1.63,1.63,0,0,0,1.14-.38,1.25,1.25,0,0,0,.42-1,1.23,1.23,0,0,0-.39-1A1.6,1.6,0,0,0,834.38,43.41Z"/><path class="cls-1" d="M840.54,47.75v-10h3.93a3.39,3.39,0,0,1,2.42.91,3.13,3.13,0,0,1,1,2.38,3,3,0,0,1-.72,2,3.24,3.24,0,0,1-1.88,1.07l2.7,3.65h-2.12l-2.61-3.59h-.81v3.59Zm3.64-8.37h-1.75v3.28h1.75a1.86,1.86,0,0,0,1.31-.45A1.5,1.5,0,0,0,846,41a1.58,1.58,0,0,0-.5-1.19A1.79,1.79,0,0,0,844.18,39.38Z"/><path class="cls-1" d="M860.45,42.72A5.22,5.22,0,1,1,858.92,39,5,5,0,0,1,860.45,42.72Zm-7.59,2.4a3.3,3.3,0,0,0,4.73,0,3.45,3.45,0,0,0,0-4.81,3.3,3.3,0,0,0-4.73,0,3.47,3.47,0,0,0,0,4.81Z"/><path class="cls-1" d="M865.67,47.88a4.82,4.82,0,0,1-1.89-.4,5,5,0,0,1-1.63-1.1l1.2-1.43a3.64,3.64,0,0,0,1.11.9,2.83,2.83,0,0,0,1.32.35,1.62,1.62,0,0,0,1.07-.35,1.08,1.08,0,0,0,.42-.87,1.49,1.49,0,0,0-1.1-1.39L865,43.15A4.31,4.31,0,0,1,863.37,42a2.56,2.56,0,0,1-.54-1.71,2.61,2.61,0,0,1,.85-1.91,2.91,2.91,0,0,1,2.13-.84,4.33,4.33,0,0,1,3.09,1.15l-1.11,1.4a2.59,2.59,0,0,0-2-.87,1.34,1.34,0,0,0-.9.29.9.9,0,0,0-.34.71.94.94,0,0,0,.26.69,2.67,2.67,0,0,0,.86.52l1.17.47a3.11,3.11,0,0,1,2.28,2.9,2.81,2.81,0,0,1-.95,2.2A3.65,3.65,0,0,1,865.67,47.88Z"/><path class="cls-1" d="M880.25,46.33a5,5,0,0,1-3.72,1.59,5.08,5.08,0,0,1-3.71-1.52,5.2,5.2,0,0,1,0-7.37,5.23,5.23,0,0,1,7.42,0l-1.33,1.29a3.15,3.15,0,0,0-2.39-1,3.19,3.19,0,0,0-2.38,1,3.47,3.47,0,0,0,0,4.81,3.31,3.31,0,0,0,4.79-.06Z"/><path class="cls-1" d="M888.91,47.75v-4.2h-4.3v4.2h-1.88v-10h1.88v4h4.3v-4h1.88v10Z"/><path class="cls-1" d="M899.43,37.7h2l-3.33,6v4.08h-1.89v-4l-3.37-6h2.07l2.27,4.17Z"/><path class="cls-1" d="M903.53,47.75v-10h3.93a3.39,3.39,0,0,1,2.42.91,3.13,3.13,0,0,1,1,2.38,3,3,0,0,1-.72,2,3.24,3.24,0,0,1-1.87,1.07l2.7,3.65h-2.12l-2.61-3.59h-.81v3.59Zm3.64-8.37h-1.75v3.28h1.75a1.86,1.86,0,0,0,1.31-.45A1.5,1.5,0,0,0,909,41a1.58,1.58,0,0,0-.5-1.19A1.79,1.79,0,0,0,907.17,39.38Z"/><path class="cls-1" d="M919.13,43.5h-3.72v2.57h4.08v1.68h-6v-10h5.85v1.68h-4v2.44h3.72Z"/><path class="cls-1" d="M922.29,47.75v-10h1.32L928.56,44V37.7h1.89v10h-1.26l-5-6.4v6.4Z"/><path class="cls-1" d="M854.86,62.75v-4.2h-4.3v4.2h-1.88v-10h1.88v4h4.3v-4h1.88v10Z"/><path class="cls-1" d="M858.82,62.75l3.88-10h1.7l3.86,10h-1.94l-.53-1.39h-4.5l-.54,1.39Zm4.73-7.24-1.61,4.17h3.21ZM865,51a1.44,1.44,0,0,1-1.45,1.44,1.41,1.41,0,0,1-1-.42,1.46,1.46,0,0,1,0-2.05,1.47,1.47,0,0,1,2.05,0A1.39,1.39,0,0,1,865,51Zm-1.82.38a.51.51,0,0,0,.38.16.49.49,0,0,0,.37-.16.53.53,0,0,0,.15-.38.51.51,0,0,0-.16-.38.52.52,0,0,0-.74,0,.53.53,0,0,0,0,.75Z"/><path class="cls-1" d="M870.35,62.75v-10h1.88v8.24h3.69v1.81Z"/><path class="cls-1" d="M878.39,62.75v-10h1.88v8.24H884v1.81Z"/><path class="cls-1" d="M886.42,62.75v-10h3.31a3,3,0,0,1,2.2.84,2.77,2.77,0,0,1,.87,2.08,2.37,2.37,0,0,1-1.13,2,2.8,2.8,0,0,1,1.11.9,2.13,2.13,0,0,1,.42,1.28,2.76,2.76,0,0,1-.88,2.13,3.15,3.15,0,0,1-2.22.81Zm3.09-8.37h-1.34V56.9h1.5a1.38,1.38,0,0,0,1-.37,1.24,1.24,0,0,0,.38-.93,1.08,1.08,0,0,0-.42-.89A1.75,1.75,0,0,0,889.51,54.38Zm.29,4h-1.63v2.67h1.59a1.63,1.63,0,0,0,1.14-.38,1.25,1.25,0,0,0,.42-1,1.23,1.23,0,0,0-.39-1A1.6,1.6,0,0,0,889.79,58.41Z"/><path class="cls-1" d="M894.58,62.75l3.88-10h1.7l3.86,10h-1.94l-.53-1.39h-4.5l-.54,1.39Zm4.73-7.24-1.61,4.17h3.21Z"/><path class="cls-1" d="M906.12,62.75v-10H910a3.39,3.39,0,0,1,2.42.91,3.13,3.13,0,0,1,1,2.38,3,3,0,0,1-.72,2,3.24,3.24,0,0,1-1.88,1.07l2.7,3.65h-2.12l-2.61-3.59H908v3.59Zm3.64-8.37H908v3.28h1.75a1.86,1.86,0,0,0,1.31-.45,1.5,1.5,0,0,0,.49-1.16,1.58,1.58,0,0,0-.5-1.19A1.79,1.79,0,0,0,909.75,54.38Z"/><path class="cls-1" d="M841.53,77.75v-10h1.88v10Z"/><path class="cls-1" d="M846.74,77.75v-10h1.32L853,74V67.7h1.89v10h-1.26l-5-6.4v6.4Z"/><path class="cls-1" d="M858.22,77.75v-10h3.93a3.39,3.39,0,0,1,2.42.91,3.13,3.13,0,0,1,1,2.38,3,3,0,0,1-.72,2,3.24,3.24,0,0,1-1.88,1.07l2.7,3.65h-2.12l-2.61-3.59h-.81v3.59Zm3.64-8.37h-1.75v3.28h1.75a1.86,1.86,0,0,0,1.31-.45,1.5,1.5,0,0,0,.49-1.16,1.58,1.58,0,0,0-.5-1.19A1.79,1.79,0,0,0,861.86,69.38Z"/><path class="cls-1" d="M873.82,73.5H870.1v2.57h4.08v1.68h-6v-10h5.85v1.68h-4v2.44h3.72Z"/><path class="cls-1" d="M877,77.75v-10h2.87a4.92,4.92,0,0,1,3.56,1.44,4.84,4.84,0,0,1,1.48,3.62,4.7,4.7,0,0,1-1.5,3.59,5.13,5.13,0,0,1-3.64,1.4Zm2.89-8.37h-1.15v6.7h1.16a2.89,2.89,0,0,0,2.22-1,3.41,3.41,0,0,0,.89-2.39,3.31,3.31,0,0,0-.91-2.37A3,3,0,0,0,879.87,69.38Z"/><path class="cls-1" d="M887.56,77.75v-10h1.32L893.83,74V67.7h1.88v10h-1.26l-5-6.4v6.4Z"/><path class="cls-1" d="M899,77.75v-10h1.88v10Z"/><path class="cls-1" d="M904.26,77.75v-10h1.32L910.52,74V67.7h1.89v10h-1.26l-5-6.4v6.4Z"/><path class="cls-1" d="M921.87,73.55V71.87h3.6v.86a5.16,5.16,0,0,1-.73,2.67,5.07,5.07,0,0,1-1.91,1.85,5.18,5.18,0,0,1-2.56.66,5.21,5.21,0,1,1,0-10.43A5,5,0,0,1,924,69.1l-1.29,1.27a3.26,3.26,0,0,0-2.47-1.09,3.2,3.2,0,0,0-2.4,1,3.55,3.55,0,0,0,0,4.84,3.07,3.07,0,0,0,2.28,1,3.57,3.57,0,0,0,2.24-.7,3.19,3.19,0,0,0,1.18-1.85Z"/></svg>