<svg id="Layer_1" data-name="Layer 1" xmlns="http://www.w3.org/2000/svg" viewBox="0 0 980 240"><defs><style>.cls-1{fill:#d80201;}</style></defs><title>text</title><path class="cls-1" d="M241.57,121.11c-3.38,3.64-8.68,3.06-13.21,3.06V137H221.6V102.33h10.09c3.43,0,6.45.26,9.15,2.66a11,11,0,0,1,3.54,8.37A11.37,11.37,0,0,1,241.57,121.11Zm-5.93-11.81c-1.3-1-3.32-1.09-4.94-1.09h-2.34V118.3h2.76c3.38,0,6.29-1.09,6.29-5A5.14,5.14,0,0,0,235.64,109.3Z"/><path class="cls-1" d="M264.61,137v-3a8.7,8.7,0,0,1-7.33,3.7c-6.76,0-11.08-5.62-11.08-12.07,0-6.29,4.32-11.91,10.92-11.91a9.39,9.39,0,0,1,7.49,3.59V114.5H271V137ZM259,119.44a6.32,6.32,0,1,0,6.29,6.29A6.28,6.28,0,0,0,259,119.44Z"/><path class="cls-1" d="M284.16,137.75a12,12,0,0,1-8.58-3.75l3.33-3.85a7.3,7.3,0,0,0,5.3,2.66,2.65,2.65,0,0,0,2.86-2.5c0-3.85-10-1.92-10-9.52,0-4.57,3.8-7.12,8.06-7.12a11.65,11.65,0,0,1,7.34,2.39l-3.12,3.69a6.3,6.3,0,0,0-3.75-1.5c-1.09,0-2.39.67-2.39,1.92,0,3.28,10.4,1.82,10.4,9.52C293.57,134.94,289,137.75,284.16,137.75Z"/><path class="cls-1" d="M305.22,137.75a12,12,0,0,1-8.58-3.75l3.33-3.85a7.3,7.3,0,0,0,5.3,2.66,2.65,2.65,0,0,0,2.86-2.5c0-3.85-10-1.92-10-9.52,0-4.57,3.8-7.12,8.06-7.12a11.65,11.65,0,0,1,7.34,2.39l-3.12,3.69a6.3,6.3,0,0,0-3.75-1.5c-1.09,0-2.39.67-2.39,1.92,0,3.28,10.4,1.82,10.4,9.52C314.63,134.94,310.05,137.75,305.22,137.75Z"/><path class="cls-1" d="M336.31,137v-3a8.67,8.67,0,0,1-7.33,3.7c-6.76,0-11.07-5.62-11.07-12.07,0-6.29,4.31-11.91,10.92-11.91a9.36,9.36,0,0,1,7.48,3.59V114.5h6.35V137Zm-5.61-17.58a6.32,6.32,0,1,0,6.29,6.29A6.28,6.28,0,0,0,330.7,119.44Z"/><path class="cls-1" d="M375.52,137.75a9,9,0,0,1-7.54-3.7v15h-6.29V114.5H368v2.86c2.08-2.39,4.16-3.59,7.39-3.59,6.71,0,11.13,5.57,11.13,12C386.5,132.08,382.13,137.75,375.52,137.75Zm-1.87-18.31a6.32,6.32,0,1,0,6.29,6.29A6.28,6.28,0,0,0,373.65,119.44Z"/><path class="cls-1" d="M408.49,137v-3a8.7,8.7,0,0,1-7.33,3.7c-6.76,0-11.08-5.62-11.08-12.07,0-6.29,4.32-11.91,10.92-11.91a9.39,9.39,0,0,1,7.49,3.59V114.5h6.34V137Zm-5.62-17.58a6.32,6.32,0,1,0,6.3,6.29A6.28,6.28,0,0,0,402.87,119.44Zm-.88-8.89a4.68,4.68,0,0,1,0-9.36,4.68,4.68,0,1,1,0,9.36Zm0-6.5a1.82,1.82,0,1,0,1.82,1.82A1.78,1.78,0,0,0,402,104.05Z"/><path class="cls-1" d="M441,137.75a12,12,0,0,1-8.58-3.75l3.33-3.85a7.3,7.3,0,0,0,5.3,2.66,2.65,2.65,0,0,0,2.86-2.5c0-3.85-10-1.92-10-9.52,0-4.57,3.79-7.12,8.06-7.12a11.62,11.62,0,0,1,7.33,2.39l-3.12,3.69a6.28,6.28,0,0,0-3.75-1.5c-1.09,0-2.39.67-2.39,1.92,0,3.28,10.4,1.82,10.4,9.52C450.45,134.94,445.88,137.75,441,137.75Z"/><path class="cls-1" d="M460.18,126.77c.1,3.49,1.76,6,5.51,6a5.88,5.88,0,0,0,5.35-3l5.83.94c-2,4.83-6,7-11.08,7-7.28,0-12.06-4.68-12.06-12,0-7.17,4.57-12,11.8-12,7.44,0,11.5,5,11.5,12.17v.83Zm5.46-8.52a5.11,5.11,0,0,0-5.26,4.52H471C470.42,120,468.6,118.25,465.64,118.25Z"/><path class="cls-1" d="M497.25,137V124.54c0-3.07-.67-5.41-4.26-5.41-3.9,0-4.84,2.86-4.84,6.24V137h-6.29V114.5h6.29v2.76c2.08-2.39,3.85-3.49,7.07-3.49a8.67,8.67,0,0,1,6.56,2.71c1.61,1.87,1.76,3.9,1.76,6.24V137Z"/><path class="cls-1" d="M526.79,137v-3a8.7,8.7,0,0,1-7.33,3.7c-6.77,0-11.08-5.62-11.08-12.07,0-6.29,4.31-11.91,10.92-11.91a9.39,9.39,0,0,1,7.49,3.59V114.5h6.34V137Zm-5.62-17.58a6.32,6.32,0,1,0,6.29,6.29A6.28,6.28,0,0,0,521.17,119.44Z"/><path class="cls-1" d="M546.34,137.75a12,12,0,0,1-8.58-3.75l3.33-3.85a7.3,7.3,0,0,0,5.3,2.66,2.65,2.65,0,0,0,2.86-2.5c0-3.85-10-1.92-10-9.52,0-4.57,3.8-7.12,8.06-7.12a11.65,11.65,0,0,1,7.34,2.39l-3.12,3.69a6.3,6.3,0,0,0-3.75-1.5c-1.09,0-2.39.67-2.39,1.92,0,3.28,10.4,1.82,10.4,9.52C555.75,134.94,551.17,137.75,546.34,137.75Z"/><path class="cls-1" d="M566.57,119.91V137h-6.3V119.91h-2.49V114.5h2.49v-7.69h6.3v7.69H571v5.41Z"/><path class="cls-1" d="M598,137.9c-6.44,0-12.11-4.16-12.48-10.87h6.82A5.31,5.31,0,0,0,598,132a5.51,5.51,0,0,0,.15-11,10.7,10.7,0,0,0-1.25.1v-4.88a6,6,0,0,0,.94,0,4.71,4.71,0,0,0,.16-9.41c-3,0-4.37,1.82-4.74,4.57H586.9c1-6.55,5-9.93,11.59-9.93,5.78,0,10.56,3.43,10.56,9.57,0,3.33-1.09,5.61-4,7.38,3.64,1.51,5.3,4.63,5.3,8.53C610.35,134,604.58,137.9,598,137.9Z"/><path class="cls-1" d="M625.53,137V108.26h-5v-5.93h11.75V137Z"/><path class="cls-1" d="M670.93,137.75c-7.18,0-12.9-4.48-12.9-12s5.72-12,13-12,12.79,4.53,12.79,12S678.05,137.75,670.93,137.75Zm0-18.31a6.32,6.32,0,1,0,6.39,6.35A6.37,6.37,0,0,0,670.88,119.44Z"/><path class="cls-1" d="M704.05,137l-8.47-9.67-.68.67v9h-6.29v-39h6.29v24.65l8.42-8.22h8.53l-10.55,9.88L712.68,137Z"/><path class="cls-1" d="M721.84,119.91V137h-6.3V119.91h-2.49V114.5h2.49v-7.69h6.3v7.69h4.42v5.41Z"/><path class="cls-1" d="M741.23,137.75c-7.18,0-12.9-4.48-12.9-12s5.72-12,12.95-12,12.8,4.53,12.8,12S748.36,137.75,741.23,137.75Zm-.05-18.31a6.32,6.32,0,1,0,6.4,6.35A6.38,6.38,0,0,0,741.18,119.44Z"/><path class="cls-1" d="M772.59,137.75a8.87,8.87,0,0,1-7.39-3.7v3h-6.29v-39h6.29v19.29c2.24-2.34,4.27-3.59,7.54-3.59,6.61,0,11,5.62,11,11.91C783.71,132.13,779.35,137.75,772.59,137.75Zm-1.72-18.31a6.32,6.32,0,1,0,6.29,6.29A6.28,6.28,0,0,0,770.87,119.44Z"/><path class="cls-1" d="M793.75,126.77c.1,3.49,1.77,6,5.51,6a5.91,5.91,0,0,0,5.36-3l5.82.94c-2,4.83-6,7-11.07,7-7.28,0-12.07-4.68-12.07-12,0-7.17,4.58-12,11.81-12,7.43,0,11.49,5,11.49,12.17v.83Zm5.46-8.52a5.1,5.1,0,0,0-5.25,4.52h10.66C804,120,802.17,118.25,799.21,118.25Z"/><path class="cls-1" d="M830.15,120.22a5.59,5.59,0,0,0-3-.78c-4.26,0-5.4,3-5.4,6.76V137h-6.3V114.5h6.3v3.38c1.45-2.55,3.53-4.11,6.55-4.11a7.22,7.22,0,0,1,2.75.52Z"/><path class="cls-1" d="M837.64,137.7a4.06,4.06,0,1,1,4.05-4.06A4.06,4.06,0,0,1,837.64,137.7Zm-3.23-10.61V102.33h6.45v24.76Z"/></svg>