<svg id="Layer_1" data-name="Layer 1" xmlns="http://www.w3.org/2000/svg" viewBox="0 0 980 120"><defs><style>.cls-1{fill:#d4ac76;}</style></defs><title>text</title><path class="cls-1" d="M838.76,47.51V45.7H847v1.81h-3.2v8.24H842V47.51Z"/><path class="cls-1" d="M849.19,55.75v-10h1.88v10Z"/><path class="cls-1" d="M854.4,55.75v-10h2.87a4.92,4.92,0,0,1,3.56,1.44,4.84,4.84,0,0,1,1.48,3.62,4.7,4.7,0,0,1-1.5,3.59,5.13,5.13,0,0,1-3.64,1.4Zm2.89-8.37h-1.15v6.7h1.16a2.89,2.89,0,0,0,2.22-1,3.41,3.41,0,0,0,.89-2.39,3.31,3.31,0,0,0-.91-2.37A3,3,0,0,0,857.29,47.38Z"/><path class="cls-1" d="M870.59,51.5h-3.72v2.57H871v1.68h-6v-10h5.85v1.68h-4v2.44h3.72Z"/><path class="cls-1" d="M873.75,55.75v-10h3.93a3.39,3.39,0,0,1,2.42.91,3.13,3.13,0,0,1,1,2.38,3,3,0,0,1-.72,2,3.24,3.24,0,0,1-1.88,1.07l2.7,3.65h-2.12l-2.61-3.59h-.81v3.59Zm3.64-8.37h-1.75v3.28h1.75a1.86,1.86,0,0,0,1.31-.45,1.5,1.5,0,0,0,.49-1.16,1.58,1.58,0,0,0-.5-1.19A1.79,1.79,0,0,0,877.39,47.38Z"/><path class="cls-1" d="M888.66,55.75v-10h5.47v1.68h-3.59v2.74h3.2V51.8h-3.2v4Z"/><path class="cls-1" d="M906.5,50.72A5.22,5.22,0,1,1,905,47,5,5,0,0,1,906.5,50.72Zm-7.59,2.4a3.3,3.3,0,0,0,4.73,0,3.45,3.45,0,0,0,0-4.81,3.3,3.3,0,0,0-4.73,0,3.47,3.47,0,0,0,0,4.81Zm1.49-8.45a.81.81,0,0,1-.61.27.83.83,0,0,1-.62-.27.9.9,0,0,1,.62-1.54.83.83,0,0,1,.61.26.87.87,0,0,1,.26.64A.91.91,0,0,1,900.39,44.67Zm3,0a1,1,0,0,1-1.33,0,.86.86,0,0,1-.28-.64.84.84,0,0,1,.28-.64,1,1,0,0,1,1.33,0,.84.84,0,0,1,.28.64A.86.86,0,0,1,903.38,44.67Z"/><path class="cls-1" d="M909.12,55.75v-10h3.93a3.39,3.39,0,0,1,2.42.91,3.13,3.13,0,0,1,1,2.38,3,3,0,0,1-.72,2,3.24,3.24,0,0,1-1.88,1.07l2.7,3.65h-2.12l-2.61-3.59H911v3.59Zm3.64-8.37H911v3.28h1.75a1.86,1.86,0,0,0,1.31-.45,1.5,1.5,0,0,0,.49-1.16,1.58,1.58,0,0,0-.5-1.19A1.79,1.79,0,0,0,912.76,47.38Z"/><path class="cls-1" d="M852.18,70.75l-3.84-10h2l2.76,7.22,2.73-7.22h1.91l-3.8,10Z"/><path class="cls-1" d="M859.81,70.75v-10h1.88v10Z"/><path class="cls-1" d="M867.6,70.88a4.83,4.83,0,0,1-1.9-.4,5,5,0,0,1-1.63-1.1l1.2-1.43a3.64,3.64,0,0,0,1.11.9,2.83,2.83,0,0,0,1.32.35,1.63,1.63,0,0,0,1.07-.35,1.08,1.08,0,0,0,.42-.87,1.49,1.49,0,0,0-1.1-1.39L867,66.15A4.3,4.3,0,0,1,865.3,65a2.56,2.56,0,0,1-.54-1.71,2.61,2.61,0,0,1,.85-1.91,2.91,2.91,0,0,1,2.13-.84,4.33,4.33,0,0,1,3.09,1.15l-1.11,1.4a2.59,2.59,0,0,0-2-.87,1.35,1.35,0,0,0-.9.29.9.9,0,0,0-.34.71.94.94,0,0,0,.27.69,2.66,2.66,0,0,0,.86.52l1.17.47a3.11,3.11,0,0,1,2.28,2.9,2.81,2.81,0,0,1-.95,2.2A3.66,3.66,0,0,1,867.6,70.88Z"/><path class="cls-1" d="M873.69,70.75v-10H875L880,67V60.7h1.88v10h-1.26l-5-6.4v6.4Z"/><path class="cls-1" d="M885.17,70.75v-10h1.88v10Z"/><path class="cls-1" d="M890.38,70.75v-10h1.32L896.65,67V60.7h1.89v10h-1.26l-5-6.4v6.4Z"/><path class="cls-1" d="M908,66.55V64.87h3.6v.86a5.16,5.16,0,0,1-.73,2.67,5.07,5.07,0,0,1-1.91,1.85,5.18,5.18,0,0,1-2.56.66,5.21,5.21,0,1,1,0-10.43,5,5,0,0,1,3.74,1.62l-1.29,1.27a3.26,3.26,0,0,0-2.47-1.09,3.2,3.2,0,0,0-2.4,1,3.55,3.55,0,0,0,0,4.84,3.07,3.07,0,0,0,2.28,1,3.57,3.57,0,0,0,2.24-.7,3.19,3.19,0,0,0,1.18-1.85Z"/></svg>