<svg id="Layer_1" data-name="Layer 1" xmlns="http://www.w3.org/2000/svg" viewBox="0 0 300 250"><defs><style>.cls-1{fill:#fff;}</style></defs><title>text</title><path class="cls-1" d="M44.52,156.16v-16h6.33a4.78,4.78,0,0,1,3.54,1.17,3.73,3.73,0,0,1,1.15,2.71,3.55,3.55,0,0,1-2.83,3.61,4.31,4.31,0,0,1,2.51,1.55,4.18,4.18,0,0,1,.82,2.52,4.32,4.32,0,0,1-1.27,3.16,5.34,5.34,0,0,1-3.92,1.27ZM46.45,147h3.48c1.45,0,2.41-.27,2.9-.83a2.84,2.84,0,0,0,.72-1.94,2.26,2.26,0,0,0-.78-1.78,3.45,3.45,0,0,0-2.32-.68h-4Zm0,7.38h4.29a3.52,3.52,0,0,0,2.43-.76,2.53,2.53,0,0,0,.85-2,3.34,3.34,0,0,0-.39-1.59,2.7,2.7,0,0,0-1.09-1.13,4.37,4.37,0,0,0-2.09-.4h-4Z"/><path class="cls-1" d="M60.7,156.16H58.86V144.33h1.62v2.76a6,6,0,0,1,1.72-2.54A3.16,3.16,0,0,1,64,144c.19,0,.43,0,.73.05v1.76h-.38a3.22,3.22,0,0,0-2.53,1.14,4.61,4.61,0,0,0-1.08,3Z"/><path class="cls-1" d="M76.09,156.16H74.42V153.9a4,4,0,0,1-3.76,2.59,3.57,3.57,0,0,1-2.85-1.2,5,5,0,0,1-1-3.4v-7.56h1.84v7.55a3.21,3.21,0,0,0,.73,2.42A2.34,2.34,0,0,0,71,155a2.73,2.73,0,0,0,1.61-.51,3.81,3.81,0,0,0,1.2-1.43,4.38,4.38,0,0,0,.48-2v-6.66h1.84Z"/><path class="cls-1" d="M89.54,156.16H87.63l-3.46-6.61-2.56,2.95v3.66H79.77v-16h1.84v10.25l5.49-6.09h2l-3.7,4.15Z"/><path class="cls-1" d="M108.73,156.16h-2l-1.61-4.67H99.14l-1.43,4.67H96l5.2-16h2.27ZM104.65,150l-2.48-7.69L99.69,150Z"/><path class="cls-1" d="M112.81,156.16h-2v-16h2Z"/><path class="cls-1" d="M126.89,156.49a4.47,4.47,0,0,1-3.8-1.81,7.2,7.2,0,0,1-1.37-4.48,6.41,6.41,0,0,1,1.54-4.51,4.92,4.92,0,0,1,3.82-1.69,4.67,4.67,0,0,1,3.86,1.77,6.94,6.94,0,0,1,1.41,4.44,6.69,6.69,0,0,1-1.52,4.53A5,5,0,0,1,126.89,156.49ZM127,155a2.92,2.92,0,0,0,2.35-1.16,5.63,5.63,0,0,0,1-3.61,5.29,5.29,0,0,0-1-3.57,3.05,3.05,0,0,0-2.33-1.11,2.91,2.91,0,0,0-2.32,1.12,5.39,5.39,0,0,0-1,3.54,5.6,5.6,0,0,0,1,3.68A3,3,0,0,0,127,155Z"/><path class="cls-1" d="M144.78,142.47v1.47a3.38,3.38,0,0,0-1.69.29,1.58,1.58,0,0,0-.57,1.06,4.25,4.25,0,0,1,1.14,2.86,3.65,3.65,0,0,1-1.24,2.77,4.62,4.62,0,0,1-3.32,1.16,3.88,3.88,0,0,1-.81-.07,7.22,7.22,0,0,0-.81-.13,1.48,1.48,0,0,0-.76.31.94.94,0,0,0-.44.81.86.86,0,0,0,.64.91,14.1,14.1,0,0,0,3,.27,16.73,16.73,0,0,1,3,.28,3,3,0,0,1,1.63,1,2.59,2.59,0,0,1,.67,1.82q0,3.39-5.95,3.39a7.77,7.77,0,0,1-4.12-.85,2.62,2.62,0,0,1-1.3-2.27,2.39,2.39,0,0,1,1.81-2.37,2.25,2.25,0,0,1-1.16-1.91,2.29,2.29,0,0,1,1.64-2.1,3.88,3.88,0,0,1-1.54-3.13,3.61,3.61,0,0,1,1.32-2.88,4.73,4.73,0,0,1,3.2-1.12,5.75,5.75,0,0,1,2.42.5,2.24,2.24,0,0,1,.82-1.6,3.37,3.37,0,0,1,1.94-.45ZM137,155.68a1.79,1.79,0,0,0-1.29,1.63,1.54,1.54,0,0,0,1.06,1.4,6.35,6.35,0,0,0,2.7.5,8.59,8.59,0,0,0,2.79-.43c.84-.28,1.26-.77,1.26-1.45a1.19,1.19,0,0,0-.37-.9,1.84,1.84,0,0,0-1-.44,22.64,22.64,0,0,0-2.27-.15C138.53,155.81,137.57,155.76,137,155.68Zm2.2-5a2.62,2.62,0,0,0,1.91-.72,2.52,2.52,0,0,0,.74-1.87,2.58,2.58,0,0,0-.77-1.92,2.55,2.55,0,0,0-1.86-.74,2.78,2.78,0,0,0-1.85.69,2.49,2.49,0,0,0-.81,2,2.46,2.46,0,0,0,.73,1.86A2.62,2.62,0,0,0,139.16,150.68Z"/><path class="cls-1" d="M162.16,156.16h-1.81c-.07-.37-.14-1.08-.22-2.13a4.25,4.25,0,0,1-4.14,2.46,4.14,4.14,0,0,1-3.06-1.06,3.44,3.44,0,0,1-1.07-2.53,3.56,3.56,0,0,1,1.52-3q1.53-1.15,5.18-1.16c.33,0,.86,0,1.57.05a7.07,7.07,0,0,0-.21-2,1.85,1.85,0,0,0-.92-1,4,4,0,0,0-1.85-.37c-1.87,0-3,.71-3.26,2.13l-1.7-.29c.41-2.18,2.16-3.27,5.23-3.27a4.64,4.64,0,0,1,3.47,1.08,5.46,5.46,0,0,1,1,3.76v5A10.22,10.22,0,0,0,162.16,156.16Zm-2-5.92c-.75,0-1.32-.07-1.71-.07a6.61,6.61,0,0,0-3.38.72,2.28,2.28,0,0,0-1.21,2.09,2,2,0,0,0,.65,1.48,2.63,2.63,0,0,0,1.88.61,3.5,3.5,0,0,0,2.74-1.21,4.17,4.17,0,0,0,1.07-2.84C160.17,150.8,160.16,150.54,160.13,150.24Z"/><path class="cls-1" d="M174.91,156.16h-1.66V153.9a4,4,0,0,1-3.77,2.59,3.57,3.57,0,0,1-2.85-1.2,5,5,0,0,1-1-3.4v-7.56h1.84v7.55a3.17,3.17,0,0,0,.73,2.42,2.32,2.32,0,0,0,1.61.67,2.73,2.73,0,0,0,1.61-.51,3.81,3.81,0,0,0,1.2-1.43,4.38,4.38,0,0,0,.48-2v-6.66h1.84Z"/><path class="cls-1" d="M184,154.91v1.45a12.42,12.42,0,0,1-1.69.13q-3.44,0-3.43-3.59v-7.13h-2.1v-1.44h2.1l.08-3,1.71-.17v3.15h2.65v1.44h-2.65v7.44c0,1.22.63,1.83,1.9,1.83A9.84,9.84,0,0,0,184,154.91Z"/><path class="cls-1" d="M189.85,156.49a4.49,4.49,0,0,1-3.8-1.81,7.19,7.19,0,0,1-1.36-4.48,6.45,6.45,0,0,1,1.53-4.51A4.94,4.94,0,0,1,190,144a4.67,4.67,0,0,1,3.86,1.77,6.94,6.94,0,0,1,1.41,4.44,6.64,6.64,0,0,1-1.52,4.53A5,5,0,0,1,189.85,156.49ZM190,155a2.94,2.94,0,0,0,2.36-1.16,5.69,5.69,0,0,0,1-3.61,5.23,5.23,0,0,0-1-3.57,3,3,0,0,0-2.33-1.11,2.92,2.92,0,0,0-2.32,1.12,5.45,5.45,0,0,0-1,3.54,5.66,5.66,0,0,0,1,3.68A3,3,0,0,0,190,155Z"/><path class="cls-1" d="M213.94,156.16h-1.8V148.8a6.55,6.55,0,0,0-.16-1.7,2.05,2.05,0,0,0-.76-1,2.23,2.23,0,0,0-1.37-.47,2.88,2.88,0,0,0-2,1,4,4,0,0,0-1,2.94v6.67h-1.78v-7.79a2.79,2.79,0,0,0-.74-2.2,2.38,2.38,0,0,0-1.57-.65,2.6,2.6,0,0,0-2,1,3.76,3.76,0,0,0-.87,2.55v7.08h-1.76V144.33h1.58v2.27c.88-1.74,2.1-2.6,3.65-2.6a3,3,0,0,1,2.16.83,3.73,3.73,0,0,1,1.15,2c.82-1.89,2.06-2.83,3.74-2.83a3.41,3.41,0,0,1,2.12.69,3.18,3.18,0,0,1,1.18,1.59,9.07,9.07,0,0,1,.28,2.52Z"/><path class="cls-1" d="M226.87,156.16h-1.81q-.1-.56-.21-2.13a4.28,4.28,0,0,1-4.15,2.46,4.14,4.14,0,0,1-3.06-1.06,3.44,3.44,0,0,1-1.07-2.53,3.54,3.54,0,0,1,1.53-3q1.52-1.15,5.18-1.16c.32,0,.85,0,1.57.05a7,7,0,0,0-.22-2,1.85,1.85,0,0,0-.92-1,4,4,0,0,0-1.85-.37c-1.87,0-3,.71-3.26,2.13l-1.7-.29c.41-2.18,2.16-3.27,5.23-3.27a4.64,4.64,0,0,1,3.47,1.08,5.4,5.4,0,0,1,1,3.76v5A10.22,10.22,0,0,0,226.87,156.16Zm-2-5.92c-.75,0-1.32-.07-1.72-.07a6.61,6.61,0,0,0-3.38.72,2.28,2.28,0,0,0-1.21,2.09,2,2,0,0,0,.65,1.48,2.64,2.64,0,0,0,1.88.61,3.5,3.5,0,0,0,2.74-1.21,4.17,4.17,0,0,0,1.07-2.84Q224.88,150.69,224.85,150.24Z"/><path class="cls-1" d="M235.67,154.91v1.45a12.29,12.29,0,0,1-1.68.13q-3.44,0-3.44-3.59v-7.13h-2.09v-1.44h2.09l.08-3,1.72-.17v3.15H235v1.44h-2.64v7.44a1.64,1.64,0,0,0,1.89,1.83A9.72,9.72,0,0,0,235.67,154.91Z"/><path class="cls-1" d="M239.59,140.17v2.05h-2v-2.05Zm-.06,4.16v11.83h-1.84V144.33Z"/><path class="cls-1" d="M241.6,153.09l1.76-.36c.39,1.49,1.63,2.24,3.7,2.24a3.54,3.54,0,0,0,1.95-.52,1.64,1.64,0,0,0,.8-1.45c0-.93-.68-1.52-2-1.77l-2.5-.47a4.66,4.66,0,0,1-2.33-1.1,2.85,2.85,0,0,1-.87-2.17,3.14,3.14,0,0,1,1.19-2.49,4.76,4.76,0,0,1,3.19-1q3.85,0,4.75,3l-1.68.36a2.9,2.9,0,0,0-3-1.85,3.36,3.36,0,0,0-1.85.46,1.46,1.46,0,0,0-.72,1.3c0,.87.61,1.42,1.84,1.65l2.31.41q3.62.66,3.62,3.51a3.14,3.14,0,0,1-1.35,2.64,5.85,5.85,0,0,1-3.58,1C244,156.49,242.27,155.36,241.6,153.09Z"/><path class="cls-1" d="M264.1,156.16h-1.9l-3.46-6.61-2.57,2.95v3.66h-1.84v-16h1.84v10.25l5.5-6.09h2l-3.69,4.15Z"/><path class="cls-1" d="M49.26,173.13v1.44H46.45V185H44.61V174.57h-2v-1.44h2c0-1.9.4-3.13,1.1-3.67a4,4,0,0,1,2.56-.82,10,10,0,0,1,1.69.16v1.47a4.29,4.29,0,0,0-1.14-.16,2.55,2.55,0,0,0-1.79.54,2.64,2.64,0,0,0-.58,2v.49Z"/><path class="cls-1" d="M55.24,185.29a4.49,4.49,0,0,1-3.8-1.81A7.2,7.2,0,0,1,50.07,179a6.41,6.41,0,0,1,1.54-4.51,4.92,4.92,0,0,1,3.82-1.69,4.67,4.67,0,0,1,3.86,1.77A6.94,6.94,0,0,1,60.7,179a6.69,6.69,0,0,1-1.52,4.53A5,5,0,0,1,55.24,185.29Zm.14-1.52a3,3,0,0,0,2.36-1.16,5.69,5.69,0,0,0,.95-3.61,5.29,5.29,0,0,0-1-3.57,3,3,0,0,0-2.33-1.11A2.91,2.91,0,0,0,53,175.44a5.39,5.39,0,0,0-.95,3.54,5.6,5.6,0,0,0,.95,3.68A3,3,0,0,0,55.38,183.77Z"/><path class="cls-1" d="M65.31,185H63.47V173.13h1.61v2.76a6,6,0,0,1,1.72-2.54,3.18,3.18,0,0,1,1.76-.58c.19,0,.43,0,.73,0v1.76h-.37a3.28,3.28,0,0,0-2.54,1.13,4.6,4.6,0,0,0-1.07,3Z"/><path class="cls-1" d="M72.27,185h-.89V169h1.84v6.13a3.85,3.85,0,0,1,3.49-2.29,4.33,4.33,0,0,1,3.42,1.6,7.05,7.05,0,0,1,1.37,4.67,7.14,7.14,0,0,1-1.35,4.43,4.23,4.23,0,0,1-3.52,1.79A4.05,4.05,0,0,1,72.92,183Zm1-4.64A3.59,3.59,0,0,0,74.34,183a3.27,3.27,0,0,0,2.09.82,2.69,2.69,0,0,0,2.28-1.22,5.75,5.75,0,0,0,.86-3.35,6.6,6.6,0,0,0-.84-3.59,2.6,2.6,0,0,0-2.31-1.31,2.89,2.89,0,0,0-2.09.93,3.88,3.88,0,0,0-1.11,2.41Z"/><path class="cls-1" d="M92.08,181.43l1.71.36A4.86,4.86,0,0,1,92,184.3a5.31,5.31,0,0,1-3.2,1,5,5,0,0,1-3.93-1.71,6.51,6.51,0,0,1-1.5-4.47,6.58,6.58,0,0,1,1.56-4.57,5,5,0,0,1,3.91-1.74,4.73,4.73,0,0,1,3.74,1.6A7.21,7.21,0,0,1,94,179.21h-8.6c0,1.79.38,3,1.13,3.62a3.69,3.69,0,0,0,2.38.94A3.24,3.24,0,0,0,92.08,181.43Zm-.1-3.59a5.26,5.26,0,0,0-.33-1.77,3,3,0,0,0-1-1.32,2.81,2.81,0,0,0-1.75-.55,3.09,3.09,0,0,0-2.32,1,4.06,4.06,0,0,0-1.08,2.65Z"/><path class="cls-1" d="M106,169v16h-1.67v-2a4,4,0,0,1-3.74,2.36,4.14,4.14,0,0,1-3.42-1.74,7,7,0,0,1-1.33-4.41,7.5,7.5,0,0,1,1.32-4.53,4.13,4.13,0,0,1,3.52-1.81,4.09,4.09,0,0,1,3.48,1.94V169Zm-1.84,8.74a3.36,3.36,0,0,0-1-2.5,3,3,0,0,0-2.22-.94,2.69,2.69,0,0,0-2.25,1.22,5.73,5.73,0,0,0-.89,3.42,6.53,6.53,0,0,0,.82,3.62,2.53,2.53,0,0,0,2.23,1.25,3,3,0,0,0,2.27-1.08,3.62,3.62,0,0,0,1-2.53Z"/><path class="cls-1" d="M111.53,185h-1.84V173.13h1.61v2.76a6,6,0,0,1,1.72-2.54,3.16,3.16,0,0,1,1.76-.58c.19,0,.43,0,.73,0v1.76h-.38a3.28,3.28,0,0,0-2.53,1.13,4.6,4.6,0,0,0-1.07,3Z"/><path class="cls-1" d="M119.49,169V171h-2V169Zm0,4.17V185H117.6V173.13Z"/><path class="cls-1" d="M132.43,185h-1.72v-7.6a3,3,0,0,0-.72-2.31,2.41,2.41,0,0,0-1.73-.67,3,3,0,0,0-2.36,1.12,4.42,4.42,0,0,0-1,3V185H123.1V173.13h1.71v2.17a4.27,4.27,0,0,1,3.74-2.5,3.74,3.74,0,0,1,2.26.68,3.67,3.67,0,0,1,1.28,1.54,9.47,9.47,0,0,1,.34,3.1Z"/><path class="cls-1" d="M145.78,171.27v1.47a3.35,3.35,0,0,0-1.69.29,1.54,1.54,0,0,0-.57,1.06,4.24,4.24,0,0,1,1.13,2.86,3.68,3.68,0,0,1-1.23,2.77,4.63,4.63,0,0,1-3.32,1.16,3.75,3.75,0,0,1-.81-.07,7.22,7.22,0,0,0-.81-.13,1.45,1.45,0,0,0-.76.31,1,1,0,0,0-.45.81.87.87,0,0,0,.65.91,14.06,14.06,0,0,0,3,.27,16.86,16.86,0,0,1,3,.28,3,3,0,0,1,1.63,1,2.59,2.59,0,0,1,.67,1.82q0,3.39-6,3.39a7.73,7.73,0,0,1-4.11-.85,2.6,2.6,0,0,1-1.3-2.27,2.38,2.38,0,0,1,1.81-2.37,2.23,2.23,0,0,1-1.16-1.91,2.28,2.28,0,0,1,1.64-2.1,3.85,3.85,0,0,1-1.54-3.13,3.64,3.64,0,0,1,1.31-2.88,4.75,4.75,0,0,1,3.2-1.12,5.68,5.68,0,0,1,2.43.5,2.27,2.27,0,0,1,.81-1.6,3.41,3.41,0,0,1,1.94-.45ZM138,184.48a1.79,1.79,0,0,0-1.29,1.63,1.55,1.55,0,0,0,1.06,1.4,6.41,6.41,0,0,0,2.7.5,8.51,8.51,0,0,0,2.79-.43c.85-.29,1.27-.77,1.27-1.45a1.18,1.18,0,0,0-.38-.9,1.84,1.84,0,0,0-1-.44c-.44-.07-1.19-.11-2.27-.15C139.52,184.61,138.57,184.56,138,184.48Zm2.2-5a2.6,2.6,0,0,0,1.91-.72,2.48,2.48,0,0,0,.74-1.87,2.56,2.56,0,0,0-2.62-2.66,2.76,2.76,0,0,0-1.85.69,2.81,2.81,0,0,0-.09,3.85A2.65,2.65,0,0,0,140.15,179.48Z"/><path class="cls-1" d="M159.27,183.71v1.45a12.42,12.42,0,0,1-1.69.13q-3.44,0-3.43-3.59v-7.13h-2.1v-1.44h2.1l.08-3,1.71-.17v3.15h2.65v1.44h-2.65V182c0,1.22.63,1.83,1.9,1.83A9.84,9.84,0,0,0,159.27,183.71Z"/><path class="cls-1" d="M163.18,169V171h-2V169Zm-.06,4.17V185h-1.84V173.13Z"/><path class="cls-1" d="M168.63,185h-1.84V169h1.84Z"/><path class="cls-1" d="M187.57,185h-1.82q-.1-.56-.21-2.13a4.26,4.26,0,0,1-4.15,2.46,4.14,4.14,0,0,1-3.06-1.06,3.43,3.43,0,0,1-1.06-2.53,3.56,3.56,0,0,1,1.52-2.95c1-.77,2.74-1.16,5.18-1.16.33,0,.85,0,1.57,0a6.66,6.66,0,0,0-.22-2,1.81,1.81,0,0,0-.92-1,3.9,3.9,0,0,0-1.85-.37c-1.86,0-3,.71-3.26,2.13l-1.69-.29q.61-3.27,5.22-3.27a4.66,4.66,0,0,1,3.48,1.08,5.46,5.46,0,0,1,1,3.76v5A9.65,9.65,0,0,0,187.57,185Zm-2-5.92c-.75,0-1.32-.07-1.71-.07a6.67,6.67,0,0,0-3.39.72,2.29,2.29,0,0,0-1.2,2.09,1.94,1.94,0,0,0,.65,1.48,2.63,2.63,0,0,0,1.88.61,3.46,3.46,0,0,0,2.73-1.21,4.13,4.13,0,0,0,1.08-2.84C185.58,179.6,185.56,179.34,185.54,179Zm-.77-9.62a2,2,0,0,1-2,2,2,2,0,0,1-1.44-.6,1.93,1.93,0,0,1-.61-1.43,2,2,0,0,1,.6-1.43,2,2,0,0,1,1.5-.61,1.9,1.9,0,0,1,1.38.6A2,2,0,0,1,184.77,169.42Zm-1,0a1.06,1.06,0,0,0-.3-.76.93.93,0,0,0-.69-.32,1.11,1.11,0,0,0-.82.32,1,1,0,0,0,0,1.49,1,1,0,0,0,.76.31,1,1,0,0,0,.74-.3A1,1,0,0,0,183.79,169.42Z"/><path class="cls-1" d="M195.41,181.89l1.76-.36c.39,1.49,1.62,2.24,3.7,2.24a3.53,3.53,0,0,0,1.94-.52,1.62,1.62,0,0,0,.8-1.45c0-.93-.67-1.52-2-1.77l-2.49-.47a4.58,4.58,0,0,1-2.33-1.1,2.85,2.85,0,0,1-.87-2.17,3.13,3.13,0,0,1,1.18-2.49,4.76,4.76,0,0,1,3.19-1q3.86,0,4.76,3l-1.69.36a2.89,2.89,0,0,0-3-1.85,3.33,3.33,0,0,0-1.84.46,1.46,1.46,0,0,0-.72,1.3c0,.87.61,1.42,1.84,1.65l2.3.41c2.42.44,3.62,1.61,3.62,3.51a3.13,3.13,0,0,1-1.34,2.64,5.88,5.88,0,0,1-3.59,1C197.81,185.29,196.07,184.16,195.41,181.89Z"/><path class="cls-1" d="M213.5,183.71v1.45a12.42,12.42,0,0,1-1.69.13c-2.28,0-3.43-1.2-3.43-3.59v-7.13h-2.1v-1.44h2.1l.08-3,1.71-.17v3.15h2.65v1.44h-2.65V182a1.65,1.65,0,0,0,1.9,1.83A9.84,9.84,0,0,0,213.5,183.71Z"/><path class="cls-1" d="M223.64,173.13l-4.74,13.22q-1,2.85-3.3,2.85A6,6,0,0,1,214,189v-1.44a5.46,5.46,0,0,0,1.23.16,2.24,2.24,0,0,0,1.47-.5,5.73,5.73,0,0,0,1.18-2.46l-4.1-11.59h1.87l3.18,8.89,3.24-8.89Z"/><path class="cls-1" d="M227.32,185h-1.84V173.13h1.62v2.76a6,6,0,0,1,1.71-2.54,3.19,3.19,0,0,1,1.77-.58c.18,0,.43,0,.72,0v1.76h-.37a3.25,3.25,0,0,0-2.53,1.13,4.61,4.61,0,0,0-1.08,3Z"/><path class="cls-1" d="M243,185h-1.9l-3.46-6.61-2.57,3V185h-1.84V169h1.84v10.26l5.5-6.09h2l-3.7,4.15Z"/><path class="cls-1" d="M252.58,181.43l1.71.36a4.86,4.86,0,0,1-1.82,2.51,5.31,5.31,0,0,1-3.2,1,5,5,0,0,1-3.93-1.71,6.51,6.51,0,0,1-1.5-4.47,6.58,6.58,0,0,1,1.56-4.57,5,5,0,0,1,3.91-1.74,4.73,4.73,0,0,1,3.74,1.6,7.21,7.21,0,0,1,1.44,4.81h-8.6c0,1.79.38,3,1.13,3.62a3.69,3.69,0,0,0,2.38.94A3.24,3.24,0,0,0,252.58,181.43Zm-.1-3.59a5.26,5.26,0,0,0-.33-1.77,3,3,0,0,0-1-1.32,2.81,2.81,0,0,0-1.75-.55,3.09,3.09,0,0,0-2.32,1,4.06,4.06,0,0,0-1.08,2.65Z"/><path class="cls-1" d="M53.6,197.77v16H51.94v-2a4,4,0,0,1-3.75,2.36,4.12,4.12,0,0,1-3.41-1.74,7,7,0,0,1-1.34-4.41,7.5,7.5,0,0,1,1.32-4.53,4.16,4.16,0,0,1,3.52-1.81,4.09,4.09,0,0,1,3.48,1.94v-5.77Zm-1.84,8.73a3.38,3.38,0,0,0-.95-2.5,3.07,3.07,0,0,0-2.21-.94,2.69,2.69,0,0,0-2.26,1.22,5.73,5.73,0,0,0-.88,3.42,6.63,6.63,0,0,0,.81,3.62,2.54,2.54,0,0,0,2.23,1.25,3,3,0,0,0,2.28-1.08,3.65,3.65,0,0,0,1-2.53Z"/><path class="cls-1" d="M59.18,197.77v2h-2v-2Zm-.06,4.16v11.83H57.28V201.93Z"/><path class="cls-1" d="M72.12,213.76H70.39v-7.6a3.08,3.08,0,0,0-.71-2.31,2.45,2.45,0,0,0-1.74-.67,3,3,0,0,0-2.36,1.12,4.47,4.47,0,0,0-1,3v6.49H62.79V201.93H64.5v2.18a4.25,4.25,0,0,1,3.74-2.51,3.73,3.73,0,0,1,2.25.68,3.67,3.67,0,0,1,1.28,1.54,9.4,9.4,0,0,1,.35,3.1Z"/><path class="cls-1" d="M83.69,197.77v2h-2v-2Zm-.06,4.16v11.83H81.79V201.93Z"/><path class="cls-1" d="M96.63,213.76H94.91v-7.6a3,3,0,0,0-.72-2.31,2.41,2.41,0,0,0-1.73-.67,3,3,0,0,0-2.36,1.12,4.42,4.42,0,0,0-1,3v6.49H87.3V201.93H89v2.18a4.25,4.25,0,0,1,3.74-2.51,3.78,3.78,0,0,1,3.54,2.22,9.47,9.47,0,0,1,.34,3.1Z"/><path class="cls-1" d="M109.64,213.76h-1.72v-7.6a3,3,0,0,0-.72-2.31,2.42,2.42,0,0,0-1.73-.67,3,3,0,0,0-2.36,1.12,4.42,4.42,0,0,0-1,3v6.49h-1.84V201.93H102v2.18a4.25,4.25,0,0,1,3.74-2.51,3.78,3.78,0,0,1,2.26.68,3.64,3.64,0,0,1,1.27,1.54,9.4,9.4,0,0,1,.35,3.1Z"/><path class="cls-1" d="M117.56,214.09a4.49,4.49,0,0,1-3.8-1.81,7.22,7.22,0,0,1-1.37-4.48,6.41,6.41,0,0,1,1.54-4.51,4.92,4.92,0,0,1,3.82-1.69,4.67,4.67,0,0,1,3.86,1.77,6.94,6.94,0,0,1,1.41,4.44,6.69,6.69,0,0,1-1.52,4.53A5,5,0,0,1,117.56,214.09Zm.14-1.52a3,3,0,0,0,2.36-1.16,5.69,5.69,0,0,0,1-3.61,5.29,5.29,0,0,0-1-3.57,3,3,0,0,0-2.33-1.11,2.91,2.91,0,0,0-2.32,1.12,5.4,5.4,0,0,0-1,3.55,5.59,5.59,0,0,0,1,3.67A3,3,0,0,0,117.7,212.57Z"/><path class="cls-1" d="M134.05,201.93,130,213.76h-1.9l-4.24-11.83h2l3.3,9.62,3.25-9.62Z"/><path class="cls-1" d="M145.21,213.76h-1.82q-.1-.56-.21-2.13a4.27,4.27,0,0,1-4.15,2.46A4.14,4.14,0,0,1,136,213a3.44,3.44,0,0,1-1.07-2.53,3.54,3.54,0,0,1,1.53-2.95q1.51-1.16,5.18-1.16c.33,0,.85,0,1.57.05a6.66,6.66,0,0,0-.22-2,1.81,1.81,0,0,0-.92-1,3.92,3.92,0,0,0-1.85-.37c-1.87,0-2.95.71-3.26,2.13l-1.7-.29q.63-3.27,5.23-3.27a4.64,4.64,0,0,1,3.47,1.08,5.4,5.4,0,0,1,1,3.76v5A9.65,9.65,0,0,0,145.21,213.76Zm-2-5.92c-.75,0-1.32-.07-1.71-.07a6.62,6.62,0,0,0-3.39.72,2.3,2.3,0,0,0-1.21,2.09,2,2,0,0,0,.65,1.48,2.64,2.64,0,0,0,1.88.61,3.48,3.48,0,0,0,2.74-1.21,4.1,4.1,0,0,0,1.07-2.84Q143.21,208.29,143.18,207.84Z"/><path class="cls-1" d="M147,210.69l1.76-.36c.39,1.49,1.63,2.24,3.71,2.24a3.53,3.53,0,0,0,1.94-.52,1.64,1.64,0,0,0,.8-1.45c0-.93-.68-1.52-2-1.77l-2.5-.47a4.66,4.66,0,0,1-2.33-1.1,2.84,2.84,0,0,1-.86-2.17,3.13,3.13,0,0,1,1.18-2.49,4.76,4.76,0,0,1,3.19-1q3.85,0,4.75,3L155,205a2.9,2.9,0,0,0-3-1.85,3.45,3.45,0,0,0-1.85.46,1.46,1.46,0,0,0-.72,1.3c0,.87.62,1.42,1.84,1.65l2.31.41q3.62.66,3.62,3.51a3.14,3.14,0,0,1-1.35,2.64,5.89,5.89,0,0,1-3.58,1C149.44,214.09,147.71,213,147,210.69Z"/><path class="cls-1" d="M161.61,201.8v12.33a3.6,3.6,0,0,1-1,2.9,3.66,3.66,0,0,1-2.42.82,7.71,7.71,0,0,1-1.72-.24v-1.46a6,6,0,0,0,1.35.18,1.94,1.94,0,0,0,1.49-.5,2.54,2.54,0,0,0,.45-1.71V201.8Zm.1-4v2h-2.09v-2Z"/><path class="cls-1" d="M169.51,214.09a4.47,4.47,0,0,1-3.8-1.81,7.22,7.22,0,0,1-1.37-4.48,6.41,6.41,0,0,1,1.54-4.51,4.92,4.92,0,0,1,3.82-1.69,4.67,4.67,0,0,1,3.86,1.77,6.94,6.94,0,0,1,1.41,4.44,6.69,6.69,0,0,1-1.52,4.53A5,5,0,0,1,169.51,214.09Zm.14-1.52a3,3,0,0,0,2.36-1.16,5.69,5.69,0,0,0,1-3.61,5.29,5.29,0,0,0-1-3.57,3.05,3.05,0,0,0-2.33-1.11,2.91,2.91,0,0,0-2.32,1.12,5.4,5.4,0,0,0-.95,3.55,5.59,5.59,0,0,0,.95,3.67A3,3,0,0,0,169.65,212.57Z"/><path class="cls-1" d="M187.06,213.76h-1.72v-7.6a3.08,3.08,0,0,0-.71-2.31,2.45,2.45,0,0,0-1.74-.67,3,3,0,0,0-2.36,1.12,4.41,4.41,0,0,0-.95,3v6.49h-1.84V201.93h1.71v2.18a4.24,4.24,0,0,1,3.74-2.51,3.73,3.73,0,0,1,2.25.68,3.67,3.67,0,0,1,1.28,1.54,9.47,9.47,0,0,1,.34,3.1Z"/></svg>