<svg id="Layer_1" data-name="Layer 1" xmlns="http://www.w3.org/2000/svg" viewBox="0 0 300 250"><defs><style>.cls-1{fill:#fff;}</style></defs><title>text</title><path class="cls-1" d="M37,163.16H35v-7.62H27.54v7.62h-2v-16h2v6.62H35v-6.62h2Z"/><path class="cls-1" d="M48.61,159.63l1.71.36a4.82,4.82,0,0,1-1.83,2.51,5.27,5.27,0,0,1-3.2,1,5,5,0,0,1-3.92-1.71,6.51,6.51,0,0,1-1.5-4.47,6.58,6.58,0,0,1,1.56-4.57A5,5,0,0,1,45.34,151a4.71,4.71,0,0,1,3.73,1.6,7.23,7.23,0,0,1,1.45,4.81h-8.6c0,1.79.37,3,1.12,3.62a3.71,3.71,0,0,0,2.38.94A3.26,3.26,0,0,0,48.61,159.63ZM48.5,156a5,5,0,0,0-.32-1.77,3.06,3.06,0,0,0-1-1.32,2.87,2.87,0,0,0-1.75-.55,3.13,3.13,0,0,0-2.33,1A4.11,4.11,0,0,0,42,156Z"/><path class="cls-1" d="M62.61,163.16H60.89v-7.6a3.08,3.08,0,0,0-.71-2.31,2.45,2.45,0,0,0-1.74-.67,3,3,0,0,0-2.36,1.13,4.39,4.39,0,0,0-.95,3v6.49H53.29V151.33H55v2.18A4.24,4.24,0,0,1,58.74,151a3.73,3.73,0,0,1,2.25.68,3.67,3.67,0,0,1,1.28,1.54,9.47,9.47,0,0,1,.34,3.1Z"/><path class="cls-1" d="M76,149.47v1.47a3.35,3.35,0,0,0-1.69.29,1.54,1.54,0,0,0-.57,1.06,4.27,4.27,0,0,1,1.14,2.86,3.69,3.69,0,0,1-1.24,2.77,4.62,4.62,0,0,1-3.32,1.16,3.88,3.88,0,0,1-.81-.07,7.22,7.22,0,0,0-.81-.13,1.43,1.43,0,0,0-.76.32.92.92,0,0,0-.45.8.87.87,0,0,0,.65.91,14.06,14.06,0,0,0,3,.27,16.76,16.76,0,0,1,3,.28,3,3,0,0,1,1.63,1,2.59,2.59,0,0,1,.67,1.82q0,3.39-6,3.39a7.75,7.75,0,0,1-4.12-.85,2.62,2.62,0,0,1-1.3-2.27,2.39,2.39,0,0,1,1.81-2.37,2.23,2.23,0,0,1-1.16-1.91,2.29,2.29,0,0,1,1.64-2.1A3.88,3.88,0,0,1,65.81,155a3.61,3.61,0,0,1,1.32-2.88,4.73,4.73,0,0,1,3.2-1.12,5.79,5.79,0,0,1,2.42.5,2.24,2.24,0,0,1,.82-1.6,3.35,3.35,0,0,1,1.93-.45Zm-7.83,13.21a1.79,1.79,0,0,0-1.29,1.63,1.55,1.55,0,0,0,1.07,1.4,6.35,6.35,0,0,0,2.7.5,8.59,8.59,0,0,0,2.79-.43c.84-.28,1.26-.77,1.26-1.45a1.19,1.19,0,0,0-.37-.9,1.88,1.88,0,0,0-1-.44,20.61,20.61,0,0,0-2.27-.14C69.7,162.81,68.75,162.76,68.13,162.68Zm2.21-5a2.63,2.63,0,0,0,1.91-.72,2.52,2.52,0,0,0,.74-1.87,2.58,2.58,0,0,0-2.63-2.66,2.74,2.74,0,0,0-1.85.7,2.78,2.78,0,0,0-.08,3.84A2.62,2.62,0,0,0,70.34,157.68Z"/><path class="cls-1" d="M85.9,159.63l1.71.36a4.82,4.82,0,0,1-1.83,2.51,5.27,5.27,0,0,1-3.2,1,5,5,0,0,1-3.92-1.71,6.51,6.51,0,0,1-1.5-4.47,6.58,6.58,0,0,1,1.56-4.57A5,5,0,0,1,82.63,151a4.71,4.71,0,0,1,3.73,1.6,7.23,7.23,0,0,1,1.45,4.81h-8.6c0,1.79.37,3,1.12,3.62a3.71,3.71,0,0,0,2.38.94A3.26,3.26,0,0,0,85.9,159.63ZM85.79,156a5,5,0,0,0-.32-1.77,3,3,0,0,0-1-1.32,2.82,2.82,0,0,0-1.74-.55,3.11,3.11,0,0,0-2.33,1A4.11,4.11,0,0,0,79.29,156Z"/><path class="cls-1" d="M92.42,163.16H90.58V151.33h1.61v2.76a6,6,0,0,1,1.72-2.54,3.16,3.16,0,0,1,1.76-.58c.19,0,.43,0,.73.05v1.76H96a3.25,3.25,0,0,0-2.53,1.14,4.55,4.55,0,0,0-1.07,3Z"/><path class="cls-1" d="M106.38,147.17v2.05h-2v-2.05Zm0,4.16v11.83h-1.84V151.33Z"/><path class="cls-1" d="M119.77,163.16h-1.91l-3.46-6.61-2.57,3v3.65H110v-16h1.84v10.25l5.5-6.09h2l-3.7,4.15Z"/><path class="cls-1" d="M131.79,163.16h-1.91l-3.46-6.61-2.56,3v3.65H122v-16h1.84v10.25l5.49-6.09h2l-3.7,4.15Z"/><path class="cls-1" d="M141.33,159.63,143,160a4.82,4.82,0,0,1-1.83,2.51,5.27,5.27,0,0,1-3.2,1,5,5,0,0,1-3.92-1.71,6.51,6.51,0,0,1-1.5-4.47,6.58,6.58,0,0,1,1.56-4.57,5,5,0,0,1,3.91-1.74,4.71,4.71,0,0,1,3.73,1.6,7.23,7.23,0,0,1,1.45,4.81h-8.6c0,1.79.37,3,1.12,3.62a3.71,3.71,0,0,0,2.38.94A3.26,3.26,0,0,0,141.33,159.63Zm-.11-3.59a5,5,0,0,0-.32-1.77,3,3,0,0,0-1-1.32,2.82,2.82,0,0,0-1.74-.55,3.11,3.11,0,0,0-2.33,1,4.05,4.05,0,0,0-1.07,2.65Z"/><path class="cls-1" d="M161.25,147.17v16h-1.66v-2a4,4,0,0,1-3.75,2.36,4.12,4.12,0,0,1-3.41-1.74,7,7,0,0,1-1.34-4.41,7.44,7.44,0,0,1,1.33-4.53,4.2,4.2,0,0,1,7,.13v-5.77Zm-1.84,8.73a3.38,3.38,0,0,0-.95-2.5,3.07,3.07,0,0,0-2.21-.94,2.69,2.69,0,0,0-2.26,1.22,5.73,5.73,0,0,0-.88,3.42,6.63,6.63,0,0,0,.81,3.62,2.54,2.54,0,0,0,2.23,1.25,3,3,0,0,0,2.28-1.08,3.65,3.65,0,0,0,1-2.53Z"/><path class="cls-1" d="M166.83,147.17v2.05h-2v-2.05Zm-.06,4.16v11.83h-1.84V151.33Z"/><path class="cls-1" d="M179.77,163.16H178v-7.6a3,3,0,0,0-.71-2.31,2.45,2.45,0,0,0-1.74-.67,3,3,0,0,0-2.36,1.13,4.44,4.44,0,0,0-.95,3v6.49h-1.84V151.33h1.71v2.18a4.25,4.25,0,0,1,3.74-2.51,3.73,3.73,0,0,1,2.25.68,3.67,3.67,0,0,1,1.28,1.54,9.4,9.4,0,0,1,.35,3.1Z"/><path class="cls-1" d="M191.26,159.63,193,160a4.86,4.86,0,0,1-1.82,2.51,5.31,5.31,0,0,1-3.2,1,5,5,0,0,1-3.93-1.71,6.51,6.51,0,0,1-1.5-4.47,6.58,6.58,0,0,1,1.56-4.57A5,5,0,0,1,188,151a4.75,4.75,0,0,1,3.74,1.6,7.23,7.23,0,0,1,1.44,4.81h-8.6c0,1.79.38,3,1.13,3.62a3.69,3.69,0,0,0,2.38.94A3.24,3.24,0,0,0,191.26,159.63Zm-.1-3.59a5.26,5.26,0,0,0-.33-1.77,3,3,0,0,0-1-1.32,2.87,2.87,0,0,0-1.75-.55,3.09,3.09,0,0,0-2.32,1,4.06,4.06,0,0,0-1.08,2.65Z"/><path class="cls-1" d="M211.18,147.17v16h-1.66v-2a4,4,0,0,1-3.74,2.36,4.13,4.13,0,0,1-3.42-1.74,7,7,0,0,1-1.34-4.41,7.5,7.5,0,0,1,1.33-4.53,4.13,4.13,0,0,1,3.51-1.81,4.07,4.07,0,0,1,3.48,1.94v-5.77Zm-1.84,8.73a3.37,3.37,0,0,0-.94-2.5,3.11,3.11,0,0,0-2.22-.94,2.7,2.7,0,0,0-2.26,1.22,5.73,5.73,0,0,0-.88,3.42,6.63,6.63,0,0,0,.81,3.62,2.56,2.56,0,0,0,2.24,1.25,3,3,0,0,0,2.27-1.08,3.61,3.61,0,0,0,1-2.53Z"/><path class="cls-1" d="M216.76,147.17v2.05h-2v-2.05Zm-.06,4.16v11.83h-1.84V151.33Z"/><path class="cls-1" d="M230,149.47v1.47a3.35,3.35,0,0,0-1.69.29,1.54,1.54,0,0,0-.57,1.06,4.27,4.27,0,0,1,1.14,2.86,3.69,3.69,0,0,1-1.24,2.77,4.63,4.63,0,0,1-3.32,1.16,3.75,3.75,0,0,1-.81-.07,7.22,7.22,0,0,0-.81-.13,1.4,1.4,0,0,0-.76.32.92.92,0,0,0-.45.8.87.87,0,0,0,.65.91,14.06,14.06,0,0,0,3,.27,16.86,16.86,0,0,1,3,.28,3,3,0,0,1,1.63,1,2.59,2.59,0,0,1,.67,1.82c0,2.26-2,3.39-5.95,3.39a7.75,7.75,0,0,1-4.12-.85,2.6,2.6,0,0,1-1.3-2.27,2.38,2.38,0,0,1,1.81-2.37,2.23,2.23,0,0,1-1.16-1.91,2.29,2.29,0,0,1,1.64-2.1,3.85,3.85,0,0,1-1.54-3.13,3.64,3.64,0,0,1,1.31-2.88,4.77,4.77,0,0,1,3.2-1.12,5.83,5.83,0,0,1,2.43.5,2.27,2.27,0,0,1,.81-1.6,3.41,3.41,0,0,1,1.94-.45Zm-7.83,13.21a1.79,1.79,0,0,0-1.29,1.63,1.55,1.55,0,0,0,1.06,1.4,6.41,6.41,0,0,0,2.7.5,8.51,8.51,0,0,0,2.79-.43c.85-.28,1.27-.77,1.27-1.45a1.2,1.2,0,0,0-.38-.9,1.84,1.84,0,0,0-1-.44,20.61,20.61,0,0,0-2.27-.14C223.78,162.81,222.83,162.76,222.21,162.68Zm2.21-5a2.63,2.63,0,0,0,1.91-.72,2.51,2.51,0,0,0,.73-1.87,2.57,2.57,0,0,0-.76-1.92,2.61,2.61,0,0,0-1.86-.74,2.72,2.72,0,0,0-1.85.7,2.46,2.46,0,0,0-.81,2,2.49,2.49,0,0,0,.72,1.86A2.66,2.66,0,0,0,224.42,157.68Z"/><path class="cls-1" d="M234.06,147.17v2.05h-2v-2.05Zm-.06,4.16v11.83h-1.84V151.33Z"/><path class="cls-1" d="M243,161.91v1.45a12.42,12.42,0,0,1-1.69.13q-3.43,0-3.43-3.59v-7.13h-2.1v-1.44h2.1l.08-3,1.71-.16v3.14h2.65v1.44h-2.65v7.44c0,1.22.63,1.83,1.9,1.83A10,10,0,0,0,243,161.91Z"/><path class="cls-1" d="M254.31,163.16h-1.82q-.11-.56-.21-2.13a4.26,4.26,0,0,1-4.15,2.46,4.13,4.13,0,0,1-3-1.06A3.4,3.4,0,0,1,244,159.9a3.56,3.56,0,0,1,1.52-3c1-.77,2.74-1.16,5.18-1.16.33,0,.85,0,1.57.05a7.07,7.07,0,0,0-.21-2,1.89,1.89,0,0,0-.92-1,4,4,0,0,0-1.86-.37c-1.86,0-2.95.71-3.25,2.13l-1.7-.29Q245,151,249.56,151a4.66,4.66,0,0,1,3.48,1.08,5.46,5.46,0,0,1,1,3.76v5A10.17,10.17,0,0,0,254.31,163.16Zm-2-5.92c-.75,0-1.32-.07-1.71-.07a6.67,6.67,0,0,0-3.39.72A2.29,2.29,0,0,0,246,160a1.94,1.94,0,0,0,.65,1.48,2.63,2.63,0,0,0,1.88.61,3.5,3.5,0,0,0,2.74-1.21,4.17,4.17,0,0,0,1.07-2.84C252.32,157.8,252.31,157.54,252.28,157.24Z"/><path class="cls-1" d="M259.58,163.16h-1.84v-16h1.84Z"/><path class="cls-1" d="M271.08,159.63l1.71.36A4.82,4.82,0,0,1,271,162.5a5.27,5.27,0,0,1-3.2,1,5,5,0,0,1-3.92-1.71,6.51,6.51,0,0,1-1.5-4.47,6.58,6.58,0,0,1,1.56-4.57,5,5,0,0,1,3.91-1.74,4.71,4.71,0,0,1,3.73,1.6,7.23,7.23,0,0,1,1.45,4.81h-8.6c0,1.79.37,3,1.12,3.62a3.71,3.71,0,0,0,2.38.94A3.26,3.26,0,0,0,271.08,159.63ZM271,156a5,5,0,0,0-.32-1.77,3,3,0,0,0-1-1.32,2.82,2.82,0,0,0-1.74-.55,3.11,3.11,0,0,0-2.33,1,4.11,4.11,0,0,0-1.07,2.65Z"/><path class="cls-1" d="M35.15,192H33.24l-3.46-6.61-2.57,3V192H25.37V176h1.84v10.26l5.5-6.09h2L31,184.28Z"/><path class="cls-1" d="M46.47,192H44.65q-.1-.56-.21-2.13a4.27,4.27,0,0,1-4.15,2.46,4.14,4.14,0,0,1-3.06-1.06,3.43,3.43,0,0,1-1.06-2.53,3.53,3.53,0,0,1,1.52-2.95q1.52-1.16,5.18-1.16c.33,0,.85,0,1.57,0a6.66,6.66,0,0,0-.22-2,1.81,1.81,0,0,0-.92-1,3.92,3.92,0,0,0-1.85-.37c-1.87,0-3,.71-3.26,2.13l-1.7-.29q.63-3.27,5.23-3.27a4.64,4.64,0,0,1,3.47,1.08,5.4,5.4,0,0,1,1,3.76v5A9.65,9.65,0,0,0,46.47,192Zm-2-5.92c-.75,0-1.32-.07-1.71-.07a6.65,6.65,0,0,0-3.39.72,2.3,2.3,0,0,0-1.21,2.09,2,2,0,0,0,.65,1.48,2.65,2.65,0,0,0,1.89.61,3.48,3.48,0,0,0,2.73-1.21,4.1,4.1,0,0,0,1.07-2.84Q44.47,186.49,44.44,186Z"/><path class="cls-1" d="M59.23,192H57.5v-7.6a3,3,0,0,0-.71-2.31,2.42,2.42,0,0,0-1.73-.67,3,3,0,0,0-2.37,1.12,4.47,4.47,0,0,0-.95,3V192H49.9V180.13h1.71v2.17a4.26,4.26,0,0,1,3.74-2.5,3.73,3.73,0,0,1,2.25.68A3.59,3.59,0,0,1,58.88,182a9.4,9.4,0,0,1,.35,3.1Z"/><path class="cls-1" d="M72.17,192H70.35q-.1-.56-.21-2.13A4.27,4.27,0,0,1,66,192.29a4.14,4.14,0,0,1-3.06-1.06,3.44,3.44,0,0,1-1.07-2.53,3.54,3.54,0,0,1,1.53-2.95q1.52-1.16,5.18-1.16c.33,0,.85,0,1.57,0a6.66,6.66,0,0,0-.22-2,1.81,1.81,0,0,0-.92-1,3.92,3.92,0,0,0-1.85-.37c-1.87,0-3,.71-3.26,2.13l-1.7-.29q.63-3.27,5.23-3.27a4.64,4.64,0,0,1,3.47,1.08,5.4,5.4,0,0,1,1,3.76v5A9.65,9.65,0,0,0,72.17,192Zm-2-5.92c-.75,0-1.32-.07-1.71-.07a6.62,6.62,0,0,0-3.39.72,2.3,2.3,0,0,0-1.21,2.09,2,2,0,0,0,.65,1.48,2.64,2.64,0,0,0,1.88.61,3.48,3.48,0,0,0,2.74-1.21,4.1,4.1,0,0,0,1.07-2.84Q70.17,186.49,70.14,186Z"/><path class="cls-1" d="M77.44,192H75.6V176h1.84Z"/><path class="cls-1" d="M88.93,188.43l1.72.36a4.93,4.93,0,0,1-1.83,2.51,5.31,5.31,0,0,1-3.2,1,5,5,0,0,1-3.93-1.71,6.51,6.51,0,0,1-1.5-4.47,6.58,6.58,0,0,1,1.56-4.57,5,5,0,0,1,3.92-1.74,4.73,4.73,0,0,1,3.73,1.6,7.21,7.21,0,0,1,1.44,4.81h-8.6c0,1.79.38,3,1.13,3.62a3.69,3.69,0,0,0,2.38.94A3.24,3.24,0,0,0,88.93,188.43Zm-.1-3.59a5.26,5.26,0,0,0-.33-1.77,3,3,0,0,0-1-1.32,2.79,2.79,0,0,0-1.75-.55,3.09,3.09,0,0,0-2.32,1,4,4,0,0,0-1.07,2.65Z"/><path class="cls-1" d="M95.45,192H93.61V180.13h1.62v2.76a6,6,0,0,1,1.71-2.54,3.21,3.21,0,0,1,1.77-.58c.19,0,.43,0,.72,0v1.76h-.37a3.25,3.25,0,0,0-2.53,1.13,4.66,4.66,0,0,0-1.08,3Z"/><path class="cls-1" d="M123.38,192h-1.8V184.6a6.55,6.55,0,0,0-.16-1.7,2.05,2.05,0,0,0-.76-1.05,2.23,2.23,0,0,0-1.37-.47,2.88,2.88,0,0,0-2,1,4,4,0,0,0-1,2.94V192h-1.78v-7.79a2.83,2.83,0,0,0-.74-2.21,2.42,2.42,0,0,0-1.57-.64,2.6,2.6,0,0,0-2,1,3.76,3.76,0,0,0-.87,2.55V192h-1.76V180.13h1.58v2.27c.88-1.74,2.1-2.6,3.65-2.6a3,3,0,0,1,2.16.83,3.73,3.73,0,0,1,1.15,2c.82-1.89,2.06-2.83,3.74-2.83a3.41,3.41,0,0,1,2.12.69,3.18,3.18,0,0,1,1.18,1.59,9.07,9.07,0,0,1,.28,2.52Z"/><path class="cls-1" d="M134.87,188.43l1.71.36a4.82,4.82,0,0,1-1.83,2.51,5.26,5.26,0,0,1-3.19,1,5,5,0,0,1-3.93-1.71,6.51,6.51,0,0,1-1.5-4.47,6.58,6.58,0,0,1,1.56-4.57,5,5,0,0,1,3.91-1.74,4.71,4.71,0,0,1,3.73,1.6,7.16,7.16,0,0,1,1.45,4.81h-8.6c0,1.79.38,3,1.13,3.62a3.68,3.68,0,0,0,2.37.94A3.26,3.26,0,0,0,134.87,188.43Zm-.1-3.59a5.26,5.26,0,0,0-.33-1.77,3.06,3.06,0,0,0-1-1.32,2.81,2.81,0,0,0-1.75-.55,3.13,3.13,0,0,0-2.33,1,4.11,4.11,0,0,0-1.07,2.65Z"/><path class="cls-1" d="M148.79,176v16h-1.66v-2a4,4,0,0,1-3.74,2.36,4.13,4.13,0,0,1-3.42-1.74,7,7,0,0,1-1.34-4.41,7.44,7.44,0,0,1,1.33-4.53,4.13,4.13,0,0,1,3.51-1.81,4.07,4.07,0,0,1,3.48,1.94V176ZM147,184.7a3.32,3.32,0,0,0-.95-2.5,3,3,0,0,0-2.21-.94,2.7,2.7,0,0,0-2.26,1.22,5.73,5.73,0,0,0-.88,3.42,6.63,6.63,0,0,0,.81,3.62,2.56,2.56,0,0,0,2.24,1.25,3,3,0,0,0,2.27-1.08,3.61,3.61,0,0,0,1-2.53Z"/><path class="cls-1" d="M160.37,176V178h-2V176Zm-.06,4.17V192h-1.84V180.13Z"/><path class="cls-1" d="M175.35,190.71v1.45a12.42,12.42,0,0,1-1.69.13q-3.43,0-3.43-3.59v-7.13h-2.1v-1.44h2.1l.08-3L172,177v3.15h2.65v1.44H172V189c0,1.22.63,1.83,1.9,1.83A9.84,9.84,0,0,0,175.35,190.71Z"/><path class="cls-1" d="M179.26,176V178h-2V176Zm-.06,4.17V192h-1.84V180.13Z"/><path class="cls-1" d="M192.12,176v16h-1.67v-2a4,4,0,0,1-3.74,2.36,4.12,4.12,0,0,1-3.41-1.74,7,7,0,0,1-1.34-4.41,7.5,7.5,0,0,1,1.32-4.53,4.16,4.16,0,0,1,3.52-1.81,4.09,4.09,0,0,1,3.48,1.94V176Zm-1.84,8.74a3.36,3.36,0,0,0-.95-2.5,3,3,0,0,0-2.22-.94,2.69,2.69,0,0,0-2.25,1.22,5.73,5.73,0,0,0-.89,3.42,6.62,6.62,0,0,0,.82,3.62,2.54,2.54,0,0,0,2.23,1.25,3,3,0,0,0,2.27-1.08,3.62,3.62,0,0,0,1-2.53Z"/><path class="cls-1" d="M203.61,188.43l1.72.36a4.93,4.93,0,0,1-1.83,2.51,5.31,5.31,0,0,1-3.2,1,5,5,0,0,1-3.93-1.71,6.51,6.51,0,0,1-1.5-4.47,6.58,6.58,0,0,1,1.56-4.57,5,5,0,0,1,3.91-1.74,4.73,4.73,0,0,1,3.74,1.6,7.21,7.21,0,0,1,1.44,4.81h-8.6c0,1.79.38,3,1.13,3.62a3.69,3.69,0,0,0,2.38.94A3.24,3.24,0,0,0,203.61,188.43Zm-.1-3.59a5.26,5.26,0,0,0-.33-1.77,3,3,0,0,0-1-1.32,2.79,2.79,0,0,0-1.75-.55,3.09,3.09,0,0,0-2.32,1,4.06,4.06,0,0,0-1.08,2.65Z"/><path class="cls-1" d="M217.62,192H215.9v-7.6a3,3,0,0,0-.72-2.31,2.42,2.42,0,0,0-1.73-.67,3,3,0,0,0-2.37,1.12,4.47,4.47,0,0,0-1,3V192h-1.84V180.13H210v2.17a4.26,4.26,0,0,1,3.74-2.5,3.78,3.78,0,0,1,2.26.68,3.64,3.64,0,0,1,1.27,1.54,9.4,9.4,0,0,1,.35,3.1Z"/><path class="cls-1" d="M225.75,188h-1.69q0-1.83.06-2.28a2.64,2.64,0,0,1,.25-.91,2.44,2.44,0,0,1,.47-.7,7.61,7.61,0,0,1,1.25-.8,11.66,11.66,0,0,0,1.47-.93,2.74,2.74,0,0,0,.7-.93,2.79,2.79,0,0,0,.3-1.29,2.54,2.54,0,0,0-1-2.1,3.58,3.58,0,0,0-2.28-.76q-3,0-3.64,3.45l-1.74-.37c.58-3.15,2.41-4.72,5.47-4.72a5.47,5.47,0,0,1,3.79,1.28,4.21,4.21,0,0,1,1.44,3.29q0,2.61-3,4.17a5.53,5.53,0,0,0-1.61,1.08,2.1,2.1,0,0,0-.29,1.23Zm.4,1.67V192h-2.37v-2.31Z"/></svg>