<svg id="Layer_1" data-name="Layer 1" xmlns="http://www.w3.org/2000/svg" viewBox="0 0 300 250"><defs><style>.cls-1{fill:#fff;}</style></defs><title>text</title><path class="cls-1" d="M152.25,203.36a5.59,5.59,0,0,0,4,1.8c1.89,0,3-.94,3-2.35s-1.05-1.94-2.42-2.55l-2.07-.9c-1.34-.58-2.92-1.61-2.92-3.72s1.93-3.83,4.55-3.83a5.88,5.88,0,0,1,4.25,1.78l-1,1.19a4.63,4.63,0,0,0-3.28-1.37c-1.63,0-2.7.82-2.7,2.12s1.27,1.91,2.4,2.39l2.06.88c1.68.73,3,1.72,3,3.86s-1.89,4.11-4.92,4.11a7,7,0,0,1-5-2.13Z"/><path class="cls-1" d="M167.71,195.55c2.73,0,4.27,2,4.27,5a7.1,7.1,0,0,1-.06,1H164.7c.13,2.31,1.52,3.76,3.56,3.76a4.83,4.83,0,0,0,2.67-.84l.63,1.19a6.37,6.37,0,0,1-3.52,1.1c-2.86,0-5.12-2.09-5.12-5.59S165.27,195.55,167.71,195.55Zm2.69,4.82c0-2.18-1-3.39-2.64-3.39-1.5,0-2.86,1.23-3.08,3.39Z"/><path class="cls-1" d="M178.63,195.55c2.72,0,4.26,2,4.26,5a7.1,7.1,0,0,1-.06,1h-7.22c.13,2.31,1.52,3.76,3.56,3.76a4.83,4.83,0,0,0,2.67-.84l.63,1.19a6.37,6.37,0,0,1-3.52,1.1c-2.86,0-5.12-2.09-5.12-5.59S176.18,195.55,178.63,195.55Zm2.68,4.82c0-2.18-1-3.39-2.64-3.39-1.5,0-2.86,1.23-3.08,3.39Z"/><path class="cls-1" d="M190,190.84h1.8v4.27l-.07,2.2a5.12,5.12,0,0,1,3.57-1.76c2.24,0,3.26,1.45,3.26,4.18v6.78h-1.81V200c0-2-.61-2.86-2-2.86-1.1,0-1.85.57-2.93,1.65v7.75H190Z"/><path class="cls-1" d="M206.1,195.55c2.62,0,5,2,5,5.63s-2.33,5.59-5,5.59-4.95-2.05-4.95-5.59S203.48,195.55,206.1,195.55Zm0,9.72c1.85,0,3.08-1.65,3.08-4.09S208,197,206.1,197s-3.08,1.68-3.08,4.14S204.28,205.27,206.1,205.27Z"/><path class="cls-1" d="M212.5,195.81h1.85l1.59,6.19c.24,1,.44,2,.63,3h.09c.24-1,.46-2,.73-3l1.65-6.19h1.76l1.67,6.19c.27,1,.51,2,.75,3h.09c.24-1,.44-2,.66-3l1.56-6.19h1.72l-2.86,10.7h-2.21l-1.54-5.75c-.26-1-.46-2-.72-3.08h-.09c-.24,1.08-.46,2.09-.75,3.11l-1.49,5.72h-2.12Z"/></svg>