<svg id="Layer_1" data-name="Layer 1" xmlns="http://www.w3.org/2000/svg" viewBox="0 0 250 720"><defs><style>.cls-1{fill:#d4ac76;}</style></defs><title>2text</title><path class="cls-1" d="M15.33,537.26V528h1.3v4.4l3.86-4.4h1.74L19,531.66l3.36,5.6H20.7L18,532.73l-1.38,1.55v3Z"/><path class="cls-1" d="M25.13,537.26V528h3.44a2.9,2.9,0,0,1,2.09.81A2.87,2.87,0,0,1,29,533.73l2.69,3.53h-1.6l-2.66-3.54h-1v3.54Zm3.27-8h-2v3.35h2a1.88,1.88,0,0,0,1.31-.46,1.68,1.68,0,0,0,0-2.41A1.81,1.81,0,0,0,28.4,529.22Z"/><path class="cls-1" d="M38.94,537.43a4.56,4.56,0,0,1-3.34-1.37,5,5,0,0,1,0-6.88,4.74,4.74,0,0,1,6.68,0,4.95,4.95,0,0,1,0,6.87A4.56,4.56,0,0,1,38.94,537.43Zm-2.43-2.28a3.36,3.36,0,0,0,4.86,0,3.71,3.71,0,0,0,0-5.07,3.33,3.33,0,0,0-4.85,0,3.72,3.72,0,0,0,0,5.07ZM38.07,527a.61.61,0,0,1-.46.2.59.59,0,0,1-.46-.2.78.78,0,0,1,0-1,.59.59,0,0,1,.46-.2.61.61,0,0,1,.46.2.76.76,0,0,1,0,1Zm2.57,0a.62.62,0,0,1-.92,0,.77.77,0,0,1,0-1,.62.62,0,0,1,.92,0,.77.77,0,0,1,0,1Z"/><path class="cls-1" d="M46.91,537.26V528h.9l5,6.39V528h1.3v9.28h-.72l-5.21-6.62v6.62Z"/><path class="cls-1" d="M60.45,537.26,56.83,528h1.46l2.78,7.13L63.85,528h1.43l-3.63,9.28Z"/><path class="cls-1" d="M66.07,537.26,69.8,528H71l3.65,9.28H73.19l-.56-1.43H68.08l-.57,1.43ZM69.42,527a.61.61,0,0,1-.46.2.6.6,0,0,1-.46-.2.78.78,0,0,1,0-1,.59.59,0,0,1,.46-.2.61.61,0,0,1,.46.2.76.76,0,0,1,0,1Zm1,3.11-1.8,4.48h3.56ZM72,527a.62.62,0,0,1-.92,0,.77.77,0,0,1,0-1,.62.62,0,0,1,.92,0,.77.77,0,0,1,0,1Z"/><path class="cls-1" d="M82.81,533.23V532H85.9v.65a4.77,4.77,0,0,1-4.8,4.78A4.54,4.54,0,0,1,77.71,536a5,5,0,0,1,0-6.85,4.54,4.54,0,0,1,3.38-1.39,5,5,0,0,1,2,.38,4.75,4.75,0,0,1,1.59,1.07l-1,1A3.28,3.28,0,0,0,81.1,529a3.23,3.23,0,0,0-2.46,1,3.74,3.74,0,0,0,0,5.06,3.24,3.24,0,0,0,2.46,1,3.3,3.3,0,0,0,2.23-.81,3.51,3.51,0,0,0,1.17-2.14Z"/><path class="cls-1" d="M94.2,533.19H90.39V536h4.08v1.24H89.09V528h5.3v1.24h-4V532H94.2Z"/><path class="cls-1" d="M97.68,537.26V528h.9l5,6.39V528h1.3v9.28h-.72L99,530.63v6.62Z"/><path class="cls-1" d="M114.85,537.26v-7.62l-1.74.89v-1.24l2.46-1.36h.58v9.32Z"/><path class="cls-1" d="M120.84,537.26v-7.62l-1.74.89v-1.24l2.46-1.36h.58v9.32Z"/><path class="cls-1" d="M124.57,539l1.07-3,1.19.42-1.46,2.86Z"/><path class="cls-1" d="M137.4,537.38a4.32,4.32,0,0,1-1.74-.37,4.57,4.57,0,0,1-1.47-1l.91-1.05a3.54,3.54,0,0,0,1.07.85,2.73,2.73,0,0,0,1.28.34,1.78,1.78,0,0,0,1.2-.39,1.24,1.24,0,0,0,.46-1,1.62,1.62,0,0,0-1.17-1.52l-1.1-.44a3.83,3.83,0,0,1-1.52-1,2.19,2.19,0,0,1-.5-1.47,2.33,2.33,0,0,1,.77-1.75,2.64,2.64,0,0,1,1.89-.73,3.78,3.78,0,0,1,2.69,1l-.78,1a2.56,2.56,0,0,0-1.91-.83,1.46,1.46,0,0,0-1,.32,1.07,1.07,0,0,0-.38.86,1,1,0,0,0,.28.72,2.57,2.57,0,0,0,.94.57l1.12.45a2.63,2.63,0,0,1,2,2.65,2.54,2.54,0,0,1-.82,2A3.11,3.11,0,0,1,137.4,537.38Z"/><path class="cls-1" d="M142.51,537.26l3.72-9.28h1.17l3.65,9.28h-1.43l-.56-1.43h-4.55l-.57,1.43Zm4.31-7.15-1.8,4.48h3.56Z"/><path class="cls-1" d="M153.64,537.26V528h1.3v8h3.82v1.24Z"/><path class="cls-1" d="M159,529.22V528h7.51v1.24h-3.11v8h-1.3v-8Z"/><path class="cls-1" d="M171.32,537.38a4.32,4.32,0,0,1-1.74-.37,4.57,4.57,0,0,1-1.47-1L169,535a3.54,3.54,0,0,0,1.07.85,2.73,2.73,0,0,0,1.28.34,1.78,1.78,0,0,0,1.2-.39,1.24,1.24,0,0,0,.46-1,1.62,1.62,0,0,0-1.17-1.52l-1.1-.44a3.83,3.83,0,0,1-1.52-1,2.19,2.19,0,0,1-.5-1.47,2.33,2.33,0,0,1,.77-1.75,2.64,2.64,0,0,1,1.89-.73,3.78,3.78,0,0,1,2.69,1l-.78,1a2.56,2.56,0,0,0-1.91-.83,1.46,1.46,0,0,0-1,.32,1.07,1.07,0,0,0-.38.86,1,1,0,0,0,.28.72,2.57,2.57,0,0,0,.94.57l1.12.45a2.63,2.63,0,0,1,2,2.65,2.54,2.54,0,0,1-.82,2A3.11,3.11,0,0,1,171.32,537.38Z"/><path class="cls-1" d="M179.52,537.4a3.12,3.12,0,0,1-1.84-.55,2.89,2.89,0,0,1-1.1-1.5l1.2-.59a2,2,0,0,0,.65,1,1.65,1.65,0,0,0,1.09.38,1.58,1.58,0,0,0,1.25-.53,2.1,2.1,0,0,0,.46-1.44V528h1.3v6.19a3.23,3.23,0,0,1-.84,2.39A2.94,2.94,0,0,1,179.52,537.4Z"/><path class="cls-1" d="M190.32,537.43a4.56,4.56,0,0,1-3.34-1.37,5,5,0,0,1,0-6.88,4.74,4.74,0,0,1,6.68,0,4.95,4.95,0,0,1,0,6.87A4.56,4.56,0,0,1,190.32,537.43Zm-2.43-2.28a3.36,3.36,0,0,0,4.86,0,3.71,3.71,0,0,0,0-5.07,3.33,3.33,0,0,0-4.85,0,3.72,3.72,0,0,0,0,5.07Zm1.56-8.15a.61.61,0,0,1-.46.2.59.59,0,0,1-.46-.2.78.78,0,0,1,0-1,.59.59,0,0,1,.46-.2.61.61,0,0,1,.46.2.76.76,0,0,1,0,1Zm2.57,0a.62.62,0,0,1-.92,0,.77.77,0,0,1,0-1,.62.62,0,0,1,.92,0,.77.77,0,0,1,0,1Z"/><path class="cls-1" d="M197.93,533.21v-1.15h3.62v1.15Z"/><path class="cls-1" d="M204.79,537.26V528h2.84a3,3,0,0,1,2,.72,2.39,2.39,0,0,1,.81,1.88,2.19,2.19,0,0,1-1.1,2,2.36,2.36,0,0,1,1,.83,2.17,2.17,0,0,1,.37,1.25,2.4,2.4,0,0,1-.81,1.9,3,3,0,0,1-2.07.71Zm2.71-8h-1.41V532h1.65a1.4,1.4,0,0,0,1-.41,1.43,1.43,0,0,0,.42-1.06,1.19,1.19,0,0,0-.46-1A1.91,1.91,0,0,0,207.5,529.22Zm.29,4h-1.7V536h1.61a1.92,1.92,0,0,0,1.28-.4,1.32,1.32,0,0,0,.47-1.06,1.27,1.27,0,0,0-.43-1A1.79,1.79,0,0,0,207.79,533.19Z"/><path class="cls-1" d="M218,537.43a4.56,4.56,0,0,1-3.34-1.37,5,5,0,0,1,0-6.88,4.74,4.74,0,0,1,6.68,0,4.95,4.95,0,0,1,0,6.87A4.56,4.56,0,0,1,218,537.43Zm-2.43-2.28a3.36,3.36,0,0,0,4.86,0,3.71,3.71,0,0,0,0-5.07,3.33,3.33,0,0,0-4.85,0,3.72,3.72,0,0,0,0,5.07Z"/><path class="cls-1" d="M230.3,537.43a4.56,4.56,0,0,1-3.34-1.37,5,5,0,0,1,0-6.88,4.74,4.74,0,0,1,6.68,0,4.95,4.95,0,0,1,0,6.87A4.56,4.56,0,0,1,230.3,537.43Zm-2.43-2.28a3.36,3.36,0,0,0,4.86,0,3.71,3.71,0,0,0,0-5.07,3.33,3.33,0,0,0-4.85,0,3.72,3.72,0,0,0,0,5.07Z"/><path class="cls-1" d="M20.31,557.38a4.32,4.32,0,0,1-1.74-.37,4.57,4.57,0,0,1-1.47-1L18,555a3.54,3.54,0,0,0,1.07.85,2.73,2.73,0,0,0,1.28.34,1.78,1.78,0,0,0,1.2-.39,1.24,1.24,0,0,0,.46-1,1.62,1.62,0,0,0-1.17-1.52l-1.1-.44a3.83,3.83,0,0,1-1.52-1,2.19,2.19,0,0,1-.5-1.47,2.33,2.33,0,0,1,.77-1.75,2.64,2.64,0,0,1,1.89-.73,3.78,3.78,0,0,1,2.69,1l-.78,1a2.56,2.56,0,0,0-1.91-.83,1.46,1.46,0,0,0-1,.32,1.07,1.07,0,0,0-.38.86,1,1,0,0,0,.28.72,2.57,2.57,0,0,0,.94.57l1.12.45a2.63,2.63,0,0,1,2,2.65,2.54,2.54,0,0,1-.82,2A3.11,3.11,0,0,1,20.31,557.38Z"/><path class="cls-1" d="M30.75,557.43a4.56,4.56,0,0,1-3.34-1.37,5,5,0,0,1,0-6.88,4.74,4.74,0,0,1,6.68,0,4.95,4.95,0,0,1,0,6.87A4.56,4.56,0,0,1,30.75,557.43Zm-2.43-2.28a3.36,3.36,0,0,0,4.86,0,3.71,3.71,0,0,0,0-5.07,3.33,3.33,0,0,0-4.85,0,3.72,3.72,0,0,0,0,5.07ZM29.88,547a.61.61,0,0,1-.46.2A.59.59,0,0,1,29,547a.78.78,0,0,1,0-1,.59.59,0,0,1,.46-.2.61.61,0,0,1,.46.2.76.76,0,0,1,0,1Zm2.57,0a.62.62,0,0,1-.92,0,.77.77,0,0,1,0-1,.62.62,0,0,1,.92,0,.77.77,0,0,1,0,1Z"/><path class="cls-1" d="M38.73,557.26V548h.9l5,6.39V548H46v9.28h-.72L40,550.63v6.62Z"/><path class="cls-1" d="M49.83,557.26V548h2.49a4.67,4.67,0,0,1,3.25,8,4.53,4.53,0,0,1-3.29,1.32Zm2.54-8H51.12V556H52.4a3,3,0,0,0,2.29-1,3.43,3.43,0,0,0,.93-2.43,3.3,3.3,0,0,0-1-2.41A3.09,3.09,0,0,0,52.36,549.22Z"/><path class="cls-1" d="M58.74,557.26,62.47,548h1.17l3.65,9.28H65.86l-.56-1.43H60.75l-.57,1.43Zm4.31-7.15-1.8,4.48h3.56Z"/><path class="cls-1" d="M75.48,553.23V552h3.08v.65a4.77,4.77,0,0,1-4.8,4.78A4.54,4.54,0,0,1,70.38,556a5,5,0,0,1,0-6.85,4.54,4.54,0,0,1,3.38-1.39,5,5,0,0,1,2,.38,4.75,4.75,0,0,1,1.59,1.07l-1,1a3.28,3.28,0,0,0-2.58-1.2,3.23,3.23,0,0,0-2.46,1,3.74,3.74,0,0,0,0,5.06,3.24,3.24,0,0,0,2.46,1,3.3,3.3,0,0,0,2.23-.81,3.51,3.51,0,0,0,1.17-2.14Z"/><path class="cls-1" d="M87.83,557.26v-7.62l-1.74.89v-1.24l2.46-1.36h.58v9.32Z"/><path class="cls-1" d="M93.82,557.26v-7.62l-1.74.89v-1.24l2.46-1.36h.58v9.32Z"/><path class="cls-1" d="M103.77,557.26V548h5.06v1.24h-3.77v2.92h3.34v1.24h-3.34v3.89Z"/><path class="cls-1" d="M116.82,553.19H113V556h4.08v1.24h-5.38V548H117v1.24h-4V552h3.82Z"/><path class="cls-1" d="M120.3,557.26V548h2.84a3,3,0,0,1,2,.72,2.39,2.39,0,0,1,.81,1.88,2.19,2.19,0,0,1-1.1,2,2.36,2.36,0,0,1,1,.83,2.17,2.17,0,0,1,.37,1.25,2.4,2.4,0,0,1-.81,1.9,3,3,0,0,1-2.07.71Zm2.71-8H121.6V552h1.65a1.4,1.4,0,0,0,1-.41,1.43,1.43,0,0,0,.42-1.06,1.19,1.19,0,0,0-.46-1A1.91,1.91,0,0,0,123,549.22Zm.29,4h-1.7V556h1.61a1.92,1.92,0,0,0,1.28-.4,1.32,1.32,0,0,0,.47-1.06,1.27,1.27,0,0,0-.43-1A1.79,1.79,0,0,0,123.3,553.19Z"/><path class="cls-1" d="M129.51,557.26V548h3.44a2.9,2.9,0,0,1,2.09.81,2.87,2.87,0,0,1-1.63,4.94l2.69,3.53h-1.6l-2.66-3.54h-1v3.54Zm3.27-8h-2v3.35h2a1.88,1.88,0,0,0,1.31-.46,1.68,1.68,0,0,0,0-2.41A1.81,1.81,0,0,0,132.78,549.22Z"/><path class="cls-1" d="M142.28,557.41a3.23,3.23,0,0,1-2.42-1,3.36,3.36,0,0,1-.95-2.45v-6h1.3v5.93a2.39,2.39,0,0,0,.55,1.62,1.9,1.9,0,0,0,1.52.64,2,2,0,0,0,1.53-.63,2.35,2.35,0,0,0,.56-1.62V548h1.3v6a3.37,3.37,0,0,1-.94,2.45A3.26,3.26,0,0,1,142.28,557.41Z"/><path class="cls-1" d="M147.91,557.26l3.72-9.28h1.17l3.65,9.28H155l-.56-1.43h-4.55l-.57,1.43Zm4.31-7.15-1.8,4.48H154Z"/><path class="cls-1" d="M159,557.26V548h3.44a2.9,2.9,0,0,1,2.09.81,2.87,2.87,0,0,1-1.63,4.94l2.69,3.53H164l-2.66-3.54h-1v3.54Zm3.27-8h-2v3.35h2a1.88,1.88,0,0,0,1.31-.46,1.68,1.68,0,0,0,0-2.41A1.81,1.81,0,0,0,162.31,549.22Z"/><path class="cls-1" d="M168.66,557.26V548H170v9.28Z"/><path class="cls-1" d="M178.78,557.26V548h1.3v4.4l3.86-4.4h1.74l-3.27,3.68,3.36,5.6h-1.61l-2.7-4.53-1.38,1.55v3Z"/><path class="cls-1" d="M188.58,557.26V548h1.3v8h3.82v1.24Z"/><path class="cls-1" d="M202.61,557.26v-7.62l-1.74.89v-1.24l2.46-1.36h.58v9.32Z"/><path class="cls-1" d="M206.82,555.13v-.82L210,548h1.36l-3.05,6h2v-1.56h1.3V554h1.12v1.15h-1.12v2.12h-1.3v-2.12Z"/><path class="cls-1" d="M215.23,553.21v-1.15h3.62v1.15Z"/><path class="cls-1" d="M222.37,557.26v-7.62l-1.74.89v-1.24l2.46-1.36h.58v9.32Z"/><path class="cls-1" d="M229.93,557.4a2.78,2.78,0,0,1-2-.82,2.65,2.65,0,0,1-.83-2v-3.92a2.77,2.77,0,0,1,.83-2.08,3,3,0,0,1,4-.08,2.45,2.45,0,0,1,.8,1.9h-1.3a1.43,1.43,0,0,0-.42-1.06,1.46,1.46,0,0,0-1.06-.41,1.49,1.49,0,0,0-1.12.46,1.66,1.66,0,0,0-.45,1.2v2a2,2,0,0,1,1.6-.74,2.81,2.81,0,0,1,2,.79,2.72,2.72,0,0,1,0,3.92A2.84,2.84,0,0,1,229.93,557.4Zm0-1.15a1.51,1.51,0,0,0,1.12-.48,1.58,1.58,0,0,0,.47-1.14,1.57,1.57,0,0,0-2.66-1.16,1.5,1.5,0,0,0-.47,1.16,1.61,1.61,0,0,0,.45,1.14A1.44,1.44,0,0,0,229.93,556.25Z"/></svg>