<svg id="Layer_1" data-name="Layer 1" xmlns="http://www.w3.org/2000/svg" viewBox="0 0 250 720"><defs><style>.cls-1{fill:#d80201;}</style></defs><title>text</title><path class="cls-1" d="M82.95,401l-1.83-12.74-5.71,13H74.3l-5.49-13L66.73,401H62.67l3.84-21.05h2.76l5.64,13.52,5.89-13.52h2.76L87,401Z"/><path class="cls-1" d="M97.08,401.39c-4.28,0-7.69-2.67-7.69-7.13s3.41-7.16,7.72-7.16,7.63,2.7,7.63,7.13S101.33,401.39,97.08,401.39ZM93.83,385a2.23,2.23,0,1,1,0-4.46,2.23,2.23,0,1,1,0,4.46Zm3.22,5.46a3.77,3.77,0,1,0,3.81,3.78A3.8,3.8,0,0,0,97.05,390.47Zm3.22-5.46A2.26,2.26,0,0,1,98,382.78a2.23,2.23,0,1,1,2.23,2.23Z"/><path class="cls-1" d="M115.78,401.39a5.28,5.28,0,0,1-4.4-2.2V401h-3.75V377.73h3.75v11.5a5.7,5.7,0,0,1,4.5-2.14c3.94,0,6.54,3.35,6.54,7.1S119.81,401.39,115.78,401.39Zm-1-10.91a3.77,3.77,0,1,0,3.75,3.75A3.74,3.74,0,0,0,114.75,390.47Z"/><path class="cls-1" d="M125.26,401V377.73H129V401Z"/><path class="cls-1" d="M135.74,394.84c.06,2.08,1.05,3.6,3.29,3.6a3.52,3.52,0,0,0,3.19-1.8l3.47.56a6.58,6.58,0,0,1-6.6,4.19c-4.34,0-7.19-2.79-7.19-7.16s2.73-7.13,7-7.13,6.85,3,6.85,7.26v.5Zm3.26-5.08a3,3,0,0,0-3.13,2.7h6.36A3.11,3.11,0,0,0,139,389.76Z"/><path class="cls-1" d="M157.44,390.94a3.32,3.32,0,0,0-1.8-.46c-2.54,0-3.22,1.8-3.22,4V401h-3.75V387.53h3.75v2A4.38,4.38,0,0,1,158,387.4Z"/><path class="cls-1" d="M170.09,401v-1.77a5.19,5.19,0,0,1-4.37,2.2c-4,0-6.6-3.35-6.6-7.19s2.57-7.1,6.51-7.1a5.59,5.59,0,0,1,4.46,2.14v-1.71h3.78V401Zm-3.35-10.48a3.77,3.77,0,1,0,3.75,3.75A3.74,3.74,0,0,0,166.74,390.47Z"/><path class="cls-1" d="M181.25,390.75V401h-3.75v-10.2H176v-3.22h1.49v-4.59h3.75v4.59h2.64v3.22Z"/><path class="cls-1" d="M55.64,438.23H53.9L47,424.53h4.22l3.53,7.57,3.54-7.57h4.22Z"/><path class="cls-1" d="M66.21,421.12a2.26,2.26,0,0,1,0-4.53,2.26,2.26,0,0,1,0,4.53ZM64.32,438V424.53h3.75V438Z"/><path class="cls-1" d="M75.88,438.39a7.14,7.14,0,0,1-5.12-2.23l2-2.29a4.36,4.36,0,0,0,3.16,1.58A1.58,1.58,0,0,0,77.62,434c0-2.29-6-1.15-6-5.67,0-2.73,2.26-4.25,4.81-4.25a6.92,6.92,0,0,1,4.37,1.43l-1.86,2.2a3.74,3.74,0,0,0-2.23-.9c-.65,0-1.43.4-1.43,1.15,0,2,6.2,1.09,6.2,5.67C81.49,436.71,78.76,438.39,75.88,438.39Z"/><path class="cls-1" d="M93.33,438v-7.44c0-1.83-.4-3.22-2.54-3.22-2.33,0-2.88,1.71-2.88,3.72V438H84.15V424.53h3.75v1.64a5,5,0,0,1,4.22-2.08,4.64,4.64,0,0,1,5,5.33V438Z"/><path class="cls-1" d="M102.51,421.12a2.26,2.26,0,1,1,0-4.53,2.26,2.26,0,0,1,0,4.53ZM100.62,438V424.53h3.75V438Z"/><path class="cls-1" d="M117.08,438v-7.44c0-1.83-.4-3.22-2.54-3.22-2.33,0-2.88,1.71-2.88,3.72V438H107.9V424.53h3.75v1.64a5,5,0,0,1,4.22-2.08,4.64,4.64,0,0,1,5,5.33V438Z"/><path class="cls-1" d="M136.89,442.82a7.32,7.32,0,0,1-5.71,2.36c-3.44,0-6.76-2-7.13-5.64h4.06a3,3,0,0,0,3.19,2.45c2.36,0,3.32-1.64,3.32-3.81v-2a5.58,5.58,0,0,1-4.53,2.23c-4,0-6.39-3.19-6.39-7s2.48-7.32,6.57-7.32a5,5,0,0,1,4.34,2.17v-1.74h3.78v12.93C138.41,439.56,138.31,441.15,136.89,442.82Zm-5.55-15.35a3.77,3.77,0,1,0,3.75,3.75A3.74,3.74,0,0,0,131.34,427.47Z"/><path class="cls-1" d="M146.28,438.39a7.14,7.14,0,0,1-5.12-2.23l2-2.29a4.36,4.36,0,0,0,3.16,1.58A1.58,1.58,0,0,0,148,434c0-2.29-6-1.15-6-5.67,0-2.73,2.26-4.25,4.81-4.25a6.92,6.92,0,0,1,4.37,1.43l-1.86,2.2a3.74,3.74,0,0,0-2.23-.9c-.65,0-1.43.4-1.43,1.15,0,2,6.2,1.09,6.2,5.67C151.89,436.71,149.16,438.39,146.28,438.39Z"/><path class="cls-1" d="M163.73,438V430.6c0-1.86-.4-3.32-2.57-3.32-2.33,0-2.85,1.8-2.85,3.78V438h-3.75V414.73h3.75v11.53a4.89,4.89,0,0,1,4.22-2.17,5.13,5.13,0,0,1,3.91,1.64,5.32,5.32,0,0,1,1.05,3.78V438Z"/><path class="cls-1" d="M177.56,438.39c-3.69,0-6.48-1.64-6.48-5.64v-8.22h3.75v7.6c0,1.83.78,3.07,2.73,3.07s2.73-1.24,2.73-3.07v-7.6h3.78v8.22C184.07,436.74,181.25,438.39,177.56,438.39Z"/><path class="cls-1" d="M191.94,438.39a7.14,7.14,0,0,1-5.12-2.23l2-2.29a4.36,4.36,0,0,0,3.16,1.58,1.58,1.58,0,0,0,1.71-1.49c0-2.29-6-1.15-6-5.67,0-2.73,2.26-4.25,4.81-4.25a6.92,6.92,0,0,1,4.37,1.43l-1.86,2.2a3.74,3.74,0,0,0-2.23-.9c-.65,0-1.43.4-1.43,1.15,0,2,6.2,1.09,6.2,5.67C197.55,436.71,194.82,438.39,191.94,438.39Z"/></svg>