<svg id="Layer_1" data-name="Layer 1" xmlns="http://www.w3.org/2000/svg" viewBox="0 0 250 720"><defs><style>.cls-1{fill:#d80201;}</style></defs><title>text</title><path class="cls-1" d="M32.25,398.77a7.45,7.45,0,0,1-5.91,2.59,7.37,7.37,0,0,1-5.91-2.59A7.82,7.82,0,0,1,19.11,394V383h3.51v10.31a6,6,0,0,0,.57,3.24,3.59,3.59,0,0,0,3.15,1.67,3.72,3.72,0,0,0,3.16-1.67,5.8,5.8,0,0,0,.57-3.24V383h3.51v11A7.63,7.63,0,0,1,32.25,398.77Z"/><path class="cls-1" d="M44.38,401.33a4.66,4.66,0,0,1-3.91-1.92v7.78H37.2V389.26h3.27v1.49a4.66,4.66,0,0,1,3.83-1.86c3.48,0,5.78,2.88,5.78,6.23S47.81,401.33,44.38,401.33Zm-1-9.5a3.28,3.28,0,1,0,3.26,3.26A3.26,3.26,0,0,0,43.41,391.83Z"/><path class="cls-1" d="M59.74,401.33a4.66,4.66,0,0,1-3.91-1.92v7.78H52.56V389.26h3.27v1.49a4.66,4.66,0,0,1,3.83-1.86c3.48,0,5.78,2.88,5.78,6.23S63.17,401.33,59.74,401.33Zm-1-9.5A3.28,3.28,0,1,0,62,395.09,3.26,3.26,0,0,0,58.77,391.83Z"/><path class="cls-1" d="M67.92,401V380.73h3.27V401Z"/><path class="cls-1" d="M77.05,395.63c0,1.81.92,3.14,2.86,3.14a3.07,3.07,0,0,0,2.78-1.57l3,.49A5.72,5.72,0,0,1,80,401.33a5.86,5.86,0,0,1-6.26-6.24c0-3.72,2.38-6.2,6.13-6.2s6,2.59,6,6.31v.43Zm2.83-4.42a2.65,2.65,0,0,0-2.72,2.35h5.53A2.71,2.71,0,0,0,79.88,391.21Z"/><path class="cls-1" d="M93.65,401.2H92.14l-6-11.94h3.67l3.08,6.59L96,389.26h3.67Z"/><path class="cls-1" d="M125.21,401l-1.59-11.09-5,11.34h-1l-4.77-11.34L111.1,401h-3.54l3.35-18.33h2.4l4.91,11.77,5.13-11.77h2.4l3,18.33Z"/><path class="cls-1" d="M137.53,401.33c-3.73,0-6.7-2.32-6.7-6.21s3-6.23,6.73-6.23,6.64,2.35,6.64,6.2S141.23,401.33,137.53,401.33Zm0-9.5a3.28,3.28,0,1,0,3.32,3.29A3.3,3.3,0,0,0,137.5,391.83Z"/><path class="cls-1" d="M152,401.2h-1.51l-6-11.94h3.68l3.07,6.59,3.08-6.59H158Z"/><path class="cls-1" d="M161.75,395.63c.05,1.81.92,3.14,2.86,3.14a3.07,3.07,0,0,0,2.78-1.57l3,.49a5.72,5.72,0,0,1-5.75,3.64,5.86,5.86,0,0,1-6.26-6.24c0-3.72,2.38-6.2,6.13-6.2s6,2.59,6,6.31v.43Zm2.83-4.42a2.65,2.65,0,0,0-2.72,2.35h5.53A2.71,2.71,0,0,0,164.58,391.21Z"/><path class="cls-1" d="M181,401v-6.4c0-1.61-.35-2.88-2.24-2.88s-2.49,1.56-2.49,3.29v6H173V380.73h3.26v10a4.27,4.27,0,0,1,3.68-1.89,4.49,4.49,0,0,1,3.4,1.43,4.66,4.66,0,0,1,.91,3.29V401Z"/><path class="cls-1" d="M193.47,401.33c-3.72,0-6.69-2.32-6.69-6.21s3-6.23,6.72-6.23,6.64,2.35,6.64,6.2S197.17,401.33,193.47,401.33Zm0-9.5a3.28,3.28,0,1,0,3.32,3.29A3.31,3.31,0,0,0,193.45,391.83Z"/><path class="cls-1" d="M217.58,401v-6.4c0-1.37-.21-2.88-1.94-2.88-1.92,0-2.24,1.75-2.24,3.29v6h-3.27v-6.21a5.26,5.26,0,0,0-.24-1.94,1.9,1.9,0,0,0-1.76-1.13,2.12,2.12,0,0,0-1.83,1.05,4.87,4.87,0,0,0-.38,2.24v6h-3.27V389.26h3.27v1.33a4.48,4.48,0,0,1,3.56-1.7,4,4,0,0,1,3.65,2.13,4.32,4.32,0,0,1,3.83-2.13,3.85,3.85,0,0,1,3.27,1.67,5.14,5.14,0,0,1,.62,2.83V401Z"/><path class="cls-1" d="M226.71,395.63c0,1.81.92,3.14,2.86,3.14a3.07,3.07,0,0,0,2.78-1.57l3,.49a5.74,5.74,0,0,1-5.75,3.64,5.87,5.87,0,0,1-6.27-6.24c0-3.72,2.38-6.2,6.13-6.2s6,2.59,6,6.31v.43Zm2.83-4.42a2.65,2.65,0,0,0-2.72,2.35h5.53A2.71,2.71,0,0,0,229.54,391.21Z"/><path class="cls-1" d="M23.71,438l-1.41-9.86-4.42,10.08H17l-4.25-10.08L11.16,438H8l3-16.29h2.14l4.37,10.46,4.56-10.46h2.13L26.86,438Z"/><path class="cls-1" d="M37.44,438.31A8.3,8.3,0,0,1,28.9,430a8.56,8.56,0,1,1,8.54,8.33Zm0-13.87a5.52,5.52,0,1,0,5.35,5.5A5.43,5.43,0,0,0,37.44,424.44Z"/><path class="cls-1" d="M54.84,438.36H53.18l-6.81-16.42h3.41l4.27,10.76,4.32-10.76h3.38Z"/><path class="cls-1" d="M63.65,438v-16H72.5v2.72H66.77v3.55h5.52v2.71H66.77v4.32H72.5V438Z"/><path class="cls-1" d="M93.72,428.71H91.3L91,430.87h2.45L93,433.49H90.55L89.83,438h-3l.72-4.46H85.34L84.65,438h-3l.72-4.46H79.92l.41-2.62H82.8l.34-2.16H80.69l.41-2.64h2.44l.65-4.13h3l-.67,4.13h2.2l.65-4.13h3l-.65,4.13h2.43Zm-7.63,0-.34,2.16H88l.34-2.16Z"/><path class="cls-1" d="M99.53,438V424.68H97.22v-2.74h5.43v16Z"/><path class="cls-1" d="M114.48,438.36c-4.42,0-6.19-4.66-6.19-8.4s1.75-8.42,6.19-8.42,6.19,4.63,6.19,8.4S118.92,438.36,114.48,438.36Zm0-14.07c-2.45,0-3.07,3.8-3.07,5.65s.62,5.68,3.07,5.68,3.07-3.84,3.07-5.68S116.93,424.29,114.48,424.29Z"/><path class="cls-1" d="M128,438.36c-3.24,0-6-2.09-6-5.5a9,9,0,0,1,2-5.06c1.58-2.21,3.24-4.34,4.87-6.53l2.21,1.68-3.79,4.85a5,5,0,0,1,1.87-.38,5.06,5.06,0,0,1,5,5.28C134.16,436.27,131.45,438.36,128,438.36Zm.1-8.45a3,3,0,1,0,2.93,3A2.94,2.94,0,0,0,128.11,429.91Z"/><path class="cls-1" d="M143.71,424.92a1.75,1.75,0,1,1,1.73-1.75A1.76,1.76,0,0,1,143.71,424.92Zm-1.46,13V427.56h2.9V438Z"/><path class="cls-1" d="M167.21,438.26l-9.75-11.13V438h-3.12V421.58h2.16l9.75,11.14V421.94h3.12v16.32Z"/><path class="cls-1" d="M178,438.29c-3.31,0-5.95-2.07-5.95-5.52s2.64-5.55,6-5.55,5.9,2.09,5.9,5.52S181.27,438.29,178,438.29Zm0-8.45a2.92,2.92,0,1,0,2.95,2.93A2.94,2.94,0,0,0,178,429.84Z"/><path class="cls-1" d="M192.93,430.2a2.6,2.6,0,0,0-1.39-.36c-2,0-2.49,1.39-2.49,3.12v5h-2.91V427.56h2.91v1.56a3.33,3.33,0,0,1,3-1.9,3.45,3.45,0,0,1,1.27.24Z"/><path class="cls-1" d="M201.57,430.2a2.6,2.6,0,0,0-1.39-.36c-2,0-2.49,1.39-2.49,3.12v5h-2.91V427.56h2.91v1.56a3.33,3.33,0,0,1,3-1.9,3.45,3.45,0,0,1,1.27.24Z"/><path class="cls-1" d="M206.88,430.06V438H204v-7.89h-1.15v-2.5H204V424h2.91v3.55h2v2.5Z"/><path class="cls-1" d="M218.37,438v-1.37a4,4,0,0,1-3.38,1.71c-3.12,0-5.11-2.59-5.11-5.57s2-5.5,5-5.5a4.31,4.31,0,0,1,3.45,1.66v-1.32h2.93V438Zm-5-12.33a1.73,1.73,0,0,1,0-3.46,1.73,1.73,0,0,1,0,3.46Zm2.42,4.22a2.92,2.92,0,1,0,2.9,2.9A2.9,2.9,0,0,0,215.78,429.84Zm2.57-4.22a1.76,1.76,0,0,1-1.73-1.73,1.73,1.73,0,1,1,1.73,1.73Z"/><path class="cls-1" d="M224.08,438V420H227v18Z"/><path class="cls-1" d="M231.19,424.92a1.75,1.75,0,1,1,1.73-1.75A1.76,1.76,0,0,1,231.19,424.92Zm-1.47,18.58V427.56h2.91V443.5Z"/><path class="cls-1" d="M237.79,433.22c.05,1.61.81,2.79,2.54,2.79a2.72,2.72,0,0,0,2.47-1.39l2.69.43a5.09,5.09,0,0,1-5.11,3.24,5.21,5.21,0,0,1-5.57-5.55,5.15,5.15,0,0,1,5.45-5.52c3.43,0,5.3,2.31,5.3,5.62v.38Zm2.52-3.93a2.36,2.36,0,0,0-2.43,2.09h4.92A2.39,2.39,0,0,0,240.31,429.29Z"/></svg>