<svg id="Layer_1" data-name="Layer 1" xmlns="http://www.w3.org/2000/svg" viewBox="0 0 250 720"><defs><style>.cls-1{fill:#d80201;}</style></defs><title>text</title><path class="cls-1" d="M81.41,401l-1.83-12.74-5.71,13H72.76l-5.49-13L65.19,401H61.13L65,379.9h2.75l5.65,13.52,5.89-13.52H82L85.47,401Z"/><path class="cls-1" d="M95.54,401.39c-4.28,0-7.69-2.67-7.69-7.13s3.41-7.17,7.72-7.17,7.63,2.7,7.63,7.13S99.79,401.39,95.54,401.39ZM92.29,385a2.24,2.24,0,1,1,0-4.47,2.24,2.24,0,0,1,0,4.47Zm3.22,5.45a3.77,3.77,0,1,0,3.81,3.79A3.8,3.8,0,0,0,95.51,390.47ZM98.73,385a2.27,2.27,0,0,1-2.23-2.24A2.24,2.24,0,1,1,98.73,385Z"/><path class="cls-1" d="M114.23,401.39a5.3,5.3,0,0,1-4.4-2.2V401h-3.75V377.73h3.75v11.5a5.71,5.71,0,0,1,4.5-2.14c3.94,0,6.54,3.35,6.54,7.1S118.27,401.39,114.23,401.39Zm-1-10.92a3.77,3.77,0,1,0,3.75,3.75A3.74,3.74,0,0,0,113.21,390.47Z"/><path class="cls-1" d="M123.72,401V377.73h3.75V401Z"/><path class="cls-1" d="M134.2,394.84c.06,2.08,1.05,3.6,3.28,3.6a3.53,3.53,0,0,0,3.2-1.8l3.47.56a6.59,6.59,0,0,1-6.6,4.19c-4.35,0-7.2-2.79-7.2-7.17s2.73-7.13,7-7.13,6.85,3,6.85,7.26v.49Zm3.25-5.08a3,3,0,0,0-3.13,2.7h6.36A3.11,3.11,0,0,0,137.45,389.76Z"/><path class="cls-1" d="M155.9,390.94a3.35,3.35,0,0,0-1.8-.47c-2.54,0-3.23,1.8-3.23,4V401h-3.75V387.53h3.75v2a4.32,4.32,0,0,1,3.91-2.45,4.38,4.38,0,0,1,1.64.31Z"/><path class="cls-1" d="M168.55,401v-1.76a5.22,5.22,0,0,1-4.38,2.2c-4,0-6.6-3.35-6.6-7.2s2.57-7.1,6.51-7.1a5.62,5.62,0,0,1,4.47,2.14v-1.7h3.78V401Zm-3.35-10.48a3.77,3.77,0,1,0,3.75,3.75A3.75,3.75,0,0,0,165.2,390.47Z"/><path class="cls-1" d="M179.7,390.75V401H176v-10.2h-1.49v-3.22H176v-4.59h3.75v4.59h2.64v3.22Z"/><path class="cls-1" d="M58,438.23H56.23l-6.85-13.7H53.6l3.53,7.56,3.54-7.56h4.21Z"/><path class="cls-1" d="M68.54,421.12a2.27,2.27,0,0,1,0-4.53,2.27,2.27,0,0,1,0,4.53ZM66.65,438V424.53H70.4V438Z"/><path class="cls-1" d="M78.21,438.39a7.12,7.12,0,0,1-5.11-2.24l2-2.29a4.36,4.36,0,0,0,3.16,1.58A1.59,1.59,0,0,0,80,434c0-2.29-6-1.14-6-5.67,0-2.73,2.27-4.25,4.81-4.25a6.87,6.87,0,0,1,4.37,1.43l-1.86,2.2a3.7,3.7,0,0,0-2.23-.9c-.65,0-1.43.4-1.43,1.15,0,1.95,6.2,1.08,6.2,5.67C83.82,436.71,81.1,438.39,78.21,438.39Z"/><path class="cls-1" d="M95.67,438v-7.44c0-1.83-.41-3.22-2.55-3.22-2.32,0-2.88,1.7-2.88,3.72V438H86.49V424.53h3.75v1.64a4.94,4.94,0,0,1,4.22-2.08,4.65,4.65,0,0,1,5,5.34V438Z"/><path class="cls-1" d="M104.84,421.12a2.27,2.27,0,0,1,0-4.53,2.27,2.27,0,0,1,0,4.53ZM103,438V424.53h3.75V438Z"/><path class="cls-1" d="M119.41,438v-7.44c0-1.83-.4-3.22-2.54-3.22-2.33,0-2.89,1.7-2.89,3.72V438h-3.75V424.53H114v1.64a5,5,0,0,1,4.22-2.08,4.64,4.64,0,0,1,5,5.34V438Z"/><path class="cls-1" d="M139.22,442.82a7.31,7.31,0,0,1-5.7,2.36c-3.45,0-6.76-2-7.14-5.65h4.07a3,3,0,0,0,3.19,2.45c2.36,0,3.32-1.64,3.32-3.81v-2a5.59,5.59,0,0,1-4.53,2.24c-4,0-6.39-3.2-6.39-7s2.48-7.32,6.58-7.32a5.05,5.05,0,0,1,4.34,2.17v-1.73h3.78v12.93C140.74,439.57,140.65,441.15,139.22,442.82Zm-5.55-15.35a3.77,3.77,0,1,0,3.75,3.75A3.74,3.74,0,0,0,133.67,427.47Z"/><path class="cls-1" d="M148.61,438.39a7.12,7.12,0,0,1-5.11-2.24l2-2.29a4.36,4.36,0,0,0,3.16,1.58,1.59,1.59,0,0,0,1.71-1.49c0-2.29-6-1.14-6-5.67,0-2.73,2.27-4.25,4.81-4.25a6.87,6.87,0,0,1,4.37,1.43l-1.86,2.2a3.7,3.7,0,0,0-2.23-.9c-.65,0-1.43.4-1.43,1.15,0,1.95,6.2,1.08,6.2,5.67C154.22,436.71,151.49,438.39,148.61,438.39Z"/><path class="cls-1" d="M166.06,438V430.6c0-1.86-.4-3.31-2.57-3.31-2.32,0-2.85,1.79-2.85,3.78V438h-3.75V414.73h3.75v11.53a4.9,4.9,0,0,1,4.22-2.17,5.12,5.12,0,0,1,3.9,1.65,5.31,5.31,0,0,1,1.06,3.78V438Z"/><path class="cls-1" d="M179.89,438.39c-3.69,0-6.48-1.65-6.48-5.65v-8.21h3.75v7.59c0,1.83.78,3.07,2.73,3.07s2.73-1.24,2.73-3.07v-7.59h3.78v8.21C186.4,436.74,183.58,438.39,179.89,438.39Z"/><path class="cls-1" d="M194.27,438.39a7.12,7.12,0,0,1-5.11-2.24l2-2.29a4.36,4.36,0,0,0,3.16,1.58A1.59,1.59,0,0,0,196,434c0-2.29-6-1.14-6-5.67,0-2.73,2.26-4.25,4.8-4.25a6.87,6.87,0,0,1,4.37,1.43l-1.86,2.2a3.7,3.7,0,0,0-2.23-.9c-.65,0-1.43.4-1.43,1.15,0,1.95,6.21,1.08,6.21,5.67C199.89,436.71,197.16,438.39,194.27,438.39Z"/></svg>