<svg id="Layer_1" data-name="Layer 1" xmlns="http://www.w3.org/2000/svg" viewBox="0 0 250 720"><defs><style>.cls-1{fill:#d80201;}</style></defs><title>text</title><path class="cls-1" d="M76.28,391.46c-2,2.17-5.17,1.83-7.87,1.83V401h-4V380.27h6c2,0,3.85.16,5.46,1.58a6.57,6.57,0,0,1,2.11,5A6.77,6.77,0,0,1,76.28,391.46Zm-3.53-7a4.84,4.84,0,0,0-3-.65H68.41v6h1.64c2,0,3.75-.65,3.75-3A3.07,3.07,0,0,0,72.75,384.43Z"/><path class="cls-1" d="M86.7,401.39c-4.28,0-7.69-2.67-7.69-7.14s3.41-7.16,7.72-7.16,7.63,2.7,7.63,7.13S91,401.39,86.7,401.39Zm0-10.92a3.77,3.77,0,1,0,3.81,3.78A3.8,3.8,0,0,0,86.67,390.47Z"/><path class="cls-1" d="M105.48,401.39a5.38,5.38,0,0,1-4.49-2.2v8.93H97.24V387.53H101v1.7a5.36,5.36,0,0,1,4.4-2.14c4,0,6.64,3.32,6.64,7.16S109.42,401.39,105.48,401.39Zm-1.11-10.92a3.77,3.77,0,1,0,3.75,3.75A3.74,3.74,0,0,0,104.37,390.47Z"/><path class="cls-1" d="M121.36,401.39c-3.69,0-6.48-1.65-6.48-5.65v-8.21h3.75v7.59c0,1.83.77,3.07,2.73,3.07s2.72-1.24,2.72-3.07v-7.59h3.79v8.21C127.87,399.74,125,401.39,121.36,401.39Z"/><path class="cls-1" d="M131.46,401V377.73h3.75V401Z"/><path class="cls-1" d="M149.07,401v-1.76a5.21,5.21,0,0,1-4.37,2.2c-4,0-6.61-3.35-6.61-7.2s2.58-7.1,6.51-7.1a5.62,5.62,0,0,1,4.47,2.14v-1.7h3.78V401ZM142.59,385a2.24,2.24,0,0,1,0-4.47,2.24,2.24,0,0,1,0,4.47Zm3.13,5.45a3.77,3.77,0,1,0,3.75,3.75A3.74,3.74,0,0,0,145.72,390.47ZM149,385a2.27,2.27,0,0,1-2.23-2.24A2.23,2.23,0,1,1,149,385Z"/><path class="cls-1" d="M165.22,390.94a3.35,3.35,0,0,0-1.8-.47c-2.54,0-3.22,1.8-3.22,4V401h-3.75V387.53h3.75v2a4.31,4.31,0,0,1,3.9-2.45,4.47,4.47,0,0,1,1.65.31Z"/><path class="cls-1" d="M177.87,401v-1.76a5.22,5.22,0,0,1-4.37,2.2c-4,0-6.61-3.35-6.61-7.2s2.57-7.1,6.51-7.1a5.62,5.62,0,0,1,4.47,2.14v-1.7h3.78V401Zm-3.35-10.48a3.77,3.77,0,1,0,3.75,3.75A3.74,3.74,0,0,0,174.52,390.47Z"/><path class="cls-1" d="M61.68,438l-1.83-12.74-5.7,13H53l-5.49-13L45.47,438H41.41l3.84-21.05H48l5.64,13.52,5.89-13.52H62.3L65.75,438Z"/><path class="cls-1" d="M79.41,438.42a10.73,10.73,0,0,1-11-10.76,11.05,11.05,0,1,1,11,10.76Zm0-17.92a7.13,7.13,0,1,0,6.92,7.1A7,7,0,0,0,79.41,420.5Z"/><path class="cls-1" d="M101.89,438.48H99.75l-8.81-21.21h4.41l5.52,13.89,5.58-13.89h4.37Z"/><path class="cls-1" d="M113.26,438V417.27h11.45v3.51h-7.42v4.58h7.14v3.51h-7.14v5.58h7.42V438Z"/><path class="cls-1" d="M152.11,426H149l-.44,2.79h3.17l-.53,3.38H148l-.93,5.76h-3.88l.93-5.76h-2.85l-.9,5.76h-3.85l.93-5.76h-3.19l.53-3.38H138l.44-2.79h-3.17l.53-3.42H139l.84-5.33h3.85l-.87,5.33h2.85l.84-5.33h3.87l-.84,5.33h3.14Zm-9.86,0-.43,2.79h2.85l.43-2.79Z"/><path class="cls-1" d="M159.61,438V420.81h-3v-3.54h7V438Z"/><path class="cls-1" d="M178.92,438.48c-5.7,0-8-6-8-10.85s2.27-10.89,8-10.89,8,6,8,10.86S184.66,438.48,178.92,438.48Zm0-18.17c-3.16,0-4,4.9-4,7.29s.81,7.35,4,7.35,4-5,4-7.35S182.08,420.31,178.92,420.31Z"/><path class="cls-1" d="M195.13,438.48a8.84,8.84,0,0,1-6.6-2.7l1.33-3.47a6.94,6.94,0,0,0,5.21,2.64,4.11,4.11,0,0,0,4.13-4c0-2.55-2.36-4.13-4.72-4.13a6.9,6.9,0,0,0-4,1.3h-.21l2.45-10.85h9.55v3.54h-6.82l-.81,3.19a13,13,0,0,1,1.52-.12,6.94,6.94,0,0,1,7,7.22C203.23,435.78,199.57,438.48,195.13,438.48Z"/></svg>