<svg id="Layer_1" data-name="Layer 1" xmlns="http://www.w3.org/2000/svg" viewBox="0 0 250 720"><defs><style>.cls-1{fill:#d80201;}</style></defs><title>text</title><path class="cls-1" d="M95.08,398.44a8.56,8.56,0,0,1-6.79,3,8.43,8.43,0,0,1-6.79-3A8.91,8.91,0,0,1,80,392.92V380.27h4v11.85a7,7,0,0,0,.65,3.72,4.16,4.16,0,0,0,3.63,1.92,4.29,4.29,0,0,0,3.63-1.92,6.69,6.69,0,0,0,.65-3.72V380.27h4v12.65A8.72,8.72,0,0,1,95.08,398.44Z"/><path class="cls-1" d="M109,401.39a5.39,5.39,0,0,1-4.5-2.2v8.93h-3.75V387.53h3.75v1.7a5.36,5.36,0,0,1,4.4-2.14c4,0,6.64,3.32,6.64,7.17S112.93,401.39,109,401.39Zm-1.12-10.92a3.77,3.77,0,1,0,3.75,3.75A3.74,3.74,0,0,0,107.88,390.47Z"/><path class="cls-1" d="M126.63,401.39a5.38,5.38,0,0,1-4.49-2.2v8.93h-3.75V387.53h3.75v1.7a5.36,5.36,0,0,1,4.4-2.14c4,0,6.64,3.32,6.64,7.17S130.57,401.39,126.63,401.39Zm-1.11-10.92a3.77,3.77,0,1,0,3.75,3.75A3.74,3.74,0,0,0,125.52,390.47Z"/><path class="cls-1" d="M136,401V377.73h3.76V401Z"/><path class="cls-1" d="M146.5,394.84c.06,2.08,1.06,3.6,3.29,3.6a3.5,3.5,0,0,0,3.19-1.8l3.48.56a6.6,6.6,0,0,1-6.61,4.19c-4.34,0-7.19-2.79-7.19-7.17s2.73-7.13,7-7.13,6.85,3,6.85,7.26v.49Zm3.26-5.08a3,3,0,0,0-3.13,2.7H153A3.1,3.1,0,0,0,149.76,389.76Z"/><path class="cls-1" d="M165.57,401.23h-1.74L157,387.53h4.22l3.53,7.56,3.54-7.56h4.21Z"/><path class="cls-1" d="M72,438l-1.83-12.74-5.71,13H63.35l-5.49-13L55.78,438H51.72l3.85-21.05h2.76L64,430.42l5.89-13.52h2.76L76.06,438Z"/><path class="cls-1" d="M86.13,438.39c-4.28,0-7.69-2.67-7.69-7.13s3.41-7.17,7.72-7.17,7.63,2.7,7.63,7.13S90.38,438.39,86.13,438.39Zm0-10.92a3.77,3.77,0,1,0,3.81,3.79A3.8,3.8,0,0,0,86.1,427.47Z"/><path class="cls-1" d="M102.75,438.23H101l-6.85-13.7h4.22l3.53,7.56,3.54-7.56h4.21Z"/><path class="cls-1" d="M113.94,431.84c.06,2.08,1,3.6,3.29,3.6a3.52,3.52,0,0,0,3.19-1.8l3.47.56a6.59,6.59,0,0,1-6.6,4.19c-4.34,0-7.2-2.79-7.2-7.17s2.73-7.13,7-7.13,6.85,3,6.85,7.26v.49Zm3.25-5.08a3,3,0,0,0-3.13,2.7h6.36A3.11,3.11,0,0,0,117.19,426.76Z"/><path class="cls-1" d="M136,438V430.6c0-1.86-.4-3.31-2.57-3.31-2.33,0-2.85,1.79-2.85,3.78V438h-3.76V414.73h3.76v11.53a4.89,4.89,0,0,1,4.21-2.17,5.13,5.13,0,0,1,3.91,1.65,5.3,5.3,0,0,1,1,3.78V438Z"/><path class="cls-1" d="M150.36,438.39c-4.27,0-7.69-2.67-7.69-7.13s3.42-7.17,7.73-7.17,7.62,2.7,7.62,7.13S154.61,438.39,150.36,438.39Zm0-10.92a3.77,3.77,0,1,0,3.82,3.79A3.8,3.8,0,0,0,150.33,427.47Z"/><path class="cls-1" d="M178.05,438V430.6c0-1.58-.25-3.31-2.23-3.31-2.21,0-2.58,2-2.58,3.78V438h-3.75v-7.13a6,6,0,0,0-.28-2.23,2.16,2.16,0,0,0-2-1.3,2.43,2.43,0,0,0-2.11,1.21,5.59,5.59,0,0,0-.44,2.57V438H160.9V424.53h3.75v1.52a5.18,5.18,0,0,1,4.1-2,4.56,4.56,0,0,1,4.18,2.45,5,5,0,0,1,4.41-2.45,4.41,4.41,0,0,1,3.75,1.93,5.9,5.9,0,0,1,.71,3.25V438Z"/><path class="cls-1" d="M188.52,431.84c.07,2.08,1.06,3.6,3.29,3.6a3.5,3.5,0,0,0,3.19-1.8l3.48.56a6.6,6.6,0,0,1-6.61,4.19c-4.34,0-7.19-2.79-7.19-7.17s2.73-7.13,7-7.13,6.85,3,6.85,7.26v.49Zm3.26-5.08a3,3,0,0,0-3.13,2.7H195A3.1,3.1,0,0,0,191.78,426.76Z"/></svg>