<svg id="Layer_1" data-name="Layer 1" xmlns="http://www.w3.org/2000/svg" viewBox="0 0 250 720"><defs><style>.cls-1{fill:#d4ac76;}</style></defs><title>text</title><path class="cls-1" d="M9.38,529.89v-1.14h6.89v1.14H13.42v7.37H12.23v-7.37Z"/><path class="cls-1" d="M18.63,537.26v-8.51h3.16a2.66,2.66,0,0,1,1.92.75,2.63,2.63,0,0,1-1.5,4.52l2.46,3.24H23.21L20.77,534h-.95v3.25Zm3-7.37H19.82V533h1.8a1.69,1.69,0,0,0,1.2-.42,1.53,1.53,0,0,0,0-2.21A1.68,1.68,0,0,0,21.63,529.89Z"/><path class="cls-1" d="M31.68,528.75h1.38l-2.83,5.09v3.42H29v-3.38l-2.86-5.13H27.6l2.06,3.78Z"/><path class="cls-1" d="M40.37,533.56v-1.13H43.2V533a4.37,4.37,0,0,1-4.4,4.38,4.15,4.15,0,0,1-3.1-1.27,4.57,4.57,0,0,1,0-6.28,4.15,4.15,0,0,1,3.1-1.27,4.68,4.68,0,0,1,1.79.35,4.45,4.45,0,0,1,1.45,1l-.88.89a3.11,3.11,0,0,0-4.62-.14,3.44,3.44,0,0,0,0,4.64,3,3,0,0,0,2.26,1,3,3,0,0,0,2-.75,3.18,3.18,0,0,0,1.07-2Z"/><path class="cls-1" d="M44.77,537.26l3.42-8.51h1.07l3.35,8.51H51.29L50.78,536H46.61l-.52,1.31Zm3.95-6.55-1.65,4.11h3.26Z"/><path class="cls-1" d="M55,537.26v-8.51h3.15a2.63,2.63,0,0,1,1.92.75,2.55,2.55,0,0,1,.77,1.92,2.53,2.53,0,0,1-2.26,2.6L61,537.26H59.54L57.1,534h-.94v3.25Zm3-7.37H56.16V533H58a1.72,1.72,0,0,0,1.2-.42,1.44,1.44,0,0,0,.46-1.12,1.46,1.46,0,0,0-.47-1.09A1.67,1.67,0,0,0,58,529.89Z"/><path class="cls-1" d="M63.79,537.26v-8.51h.83l4.6,5.86v-5.86h1.19v8.51h-.66L65,531.19v6.07Z"/><path class="cls-1" d="M76,537.37a4.23,4.23,0,0,1-2.94-1.26l.84-1a3,3,0,0,0,1,.77,2.44,2.44,0,0,0,1.17.31,1.64,1.64,0,0,0,1.1-.36,1.12,1.12,0,0,0,.43-.9,1.48,1.48,0,0,0-1.08-1.39l-1-.4a3.47,3.47,0,0,1-1.39-.92,2,2,0,0,1-.46-1.34,2.14,2.14,0,0,1,.7-1.61,2.46,2.46,0,0,1,1.74-.67,3.5,3.5,0,0,1,2.47.94l-.72,1a2.33,2.33,0,0,0-1.75-.76,1.37,1.37,0,0,0-.9.29,1,1,0,0,0-.35.79,1,1,0,0,0,.25.66A2.28,2.28,0,0,0,76,532l1,.42a2.41,2.41,0,0,1,1.79,2.42,2.3,2.3,0,0,1-.76,1.79A2.81,2.81,0,0,1,76,537.37Z"/><path class="cls-1" d="M83.92,537.26l-3.32-8.51h1.33l2.55,6.54L87,528.75h1.31L85,537.26Z"/><path class="cls-1" d="M89.07,537.26l3.41-8.51h1.08l3.35,8.51H95.59L95.08,536H90.91l-.53,1.31Zm3.07-9.41a.56.56,0,0,1-.43.19.55.55,0,0,1-.42-.19.74.74,0,0,1,0-.92.55.55,0,0,1,.42-.19.56.56,0,0,1,.43.19.71.71,0,0,1,0,.92Zm.88,2.86-1.65,4.11h3.26Zm1.48-2.86a.56.56,0,0,1-.43.19.54.54,0,0,1-.42-.19.71.71,0,0,1,0-.92.54.54,0,0,1,.42-.19.56.56,0,0,1,.43.19.71.71,0,0,1,0,.92Z"/><path class="cls-1" d="M104.41,533.56v-1.13h2.83V533a4.37,4.37,0,0,1-4.4,4.38,4.15,4.15,0,0,1-3.1-1.27,4.6,4.6,0,0,1,0-6.28,4.15,4.15,0,0,1,3.1-1.27,4.68,4.68,0,0,1,1.79.35,4.6,4.6,0,0,1,1.46,1l-.88.89a3,3,0,0,0-2.37-1.1,3,3,0,0,0-2.25,1,3.41,3.41,0,0,0,0,4.64,3,3,0,0,0,2.25,1,3,3,0,0,0,2-.75,3.18,3.18,0,0,0,1.07-2Z"/><path class="cls-1" d="M114.85,533.53h-3.5v2.6h3.74v1.13h-4.92v-8.51H115v1.14h-3.68v2.51h3.5Z"/><path class="cls-1" d="M118,537.26v-8.51h.83l4.61,5.86v-5.86h1.18v8.51H124l-4.77-6.07v6.07Z"/><path class="cls-1" d="M133.78,537.26v-7l-1.59.82V530l2.25-1.24H135v8.55Z"/><path class="cls-1" d="M138.3,537.26v-8.51h2.61a2.72,2.72,0,0,1,1.87.66,2.2,2.2,0,0,1,.74,1.72,2,2,0,0,1-1,1.83,2.11,2.11,0,0,1,.91.76,2,2,0,0,1,.34,1.14,2.2,2.2,0,0,1-.74,1.74,2.76,2.76,0,0,1-1.9.66Zm2.48-7.37h-1.29v2.58H141a1.29,1.29,0,0,0,.95-.37,1.33,1.33,0,0,0,.38-1,1.08,1.08,0,0,0-.42-.89A1.75,1.75,0,0,0,140.78,529.89Zm.27,3.64h-1.56v2.6H141a1.78,1.78,0,0,0,1.17-.37,1.28,1.28,0,0,0,0-1.88A1.66,1.66,0,0,0,141.05,533.53Z"/><path class="cls-1" d="M145.55,538.82l1-2.73,1.09.39-1.34,2.61Z"/><path class="cls-1" d="M154.16,537.26l3.41-8.51h1.07l3.35,8.51h-1.31l-.52-1.31H156l-.53,1.31Zm3.94-6.55-1.65,4.11h3.27Zm.82-2.53a1.16,1.16,0,0,1-2-.82,1.09,1.09,0,0,1,.34-.82,1.15,1.15,0,0,1,1.63,0,1.09,1.09,0,0,1,.34.82A1.11,1.11,0,0,1,158.92,528.18Zm-.82-.35a.45.45,0,0,0,.33-.14.49.49,0,0,0,.14-.33.48.48,0,0,0-.14-.34.46.46,0,0,0-.66,0,.48.48,0,0,0-.14.34.49.49,0,0,0,.14.33A.45.45,0,0,0,158.1,527.83Z"/><path class="cls-1" d="M164.35,537.26v-8.51h1.19v4l3.54-4h1.6l-3,3.38,3.07,5.13h-1.47l-2.47-4.15-1.27,1.42v2.73Z"/><path class="cls-1" d="M178,533.53h-3.5v2.6h3.74v1.13h-4.93v-8.51h4.86v1.14h-3.67v2.51H178Z"/><path class="cls-1" d="M181.21,537.26v-8.51h3.16a2.66,2.66,0,0,1,1.92.75,2.63,2.63,0,0,1-1.5,4.52l2.46,3.24h-1.46L183.35,534h-.95v3.25Zm3-7.37H182.4V533h1.8a1.69,1.69,0,0,0,1.2-.42,1.53,1.53,0,0,0,0-2.21A1.68,1.68,0,0,0,184.21,529.89Z"/><path class="cls-1" d="M192.14,537.37a4.18,4.18,0,0,1-2.93-1.26l.83-1a3.13,3.13,0,0,0,1,.77,2.48,2.48,0,0,0,1.18.31,1.66,1.66,0,0,0,1.1-.36,1.14,1.14,0,0,0,.42-.9,1.48,1.48,0,0,0-1.07-1.39l-1-.4a3.55,3.55,0,0,1-1.39-.92,2,2,0,0,1-.46-1.34,2.15,2.15,0,0,1,.71-1.61,2.42,2.42,0,0,1,1.73-.67,3.49,3.49,0,0,1,2.47.94l-.71,1a2.36,2.36,0,0,0-1.76-.76,1.37,1.37,0,0,0-.9.29,1,1,0,0,0-.35.79,1,1,0,0,0,.26.66,2.23,2.23,0,0,0,.86.52l1,.42a2.4,2.4,0,0,1,1.79,2.42,2.33,2.33,0,0,1-.75,1.79A2.82,2.82,0,0,1,192.14,537.37Z"/><path class="cls-1" d="M197.82,537.26v-8.51h2.61a2.72,2.72,0,0,1,1.87.66,2.2,2.2,0,0,1,.74,1.72,2,2,0,0,1-1,1.83,2.11,2.11,0,0,1,.91.76,2,2,0,0,1,.34,1.14,2.2,2.2,0,0,1-.74,1.74,2.76,2.76,0,0,1-1.9.66Zm2.48-7.37H199v2.58h1.52a1.28,1.28,0,0,0,.94-.37,1.33,1.33,0,0,0,.38-1,1.08,1.08,0,0,0-.42-.89A1.75,1.75,0,0,0,200.3,529.89Zm.27,3.64H199v2.6h1.48a1.74,1.74,0,0,0,1.17-.37,1.28,1.28,0,0,0,0-1.88A1.66,1.66,0,0,0,200.57,533.53Z"/><path class="cls-1" d="M211,533.53h-3.5v2.6h3.74v1.13h-4.93v-8.51h4.86v1.14h-3.67v2.51H211Z"/><path class="cls-1" d="M214.14,537.26v-8.51h3.15a2.63,2.63,0,0,1,1.92.75,2.55,2.55,0,0,1,.77,1.92,2.53,2.53,0,0,1-2.26,2.6l2.46,3.24h-1.47L216.27,534h-.94v3.25Zm3-7.37h-1.81V533h1.8a1.72,1.72,0,0,0,1.2-.42,1.44,1.44,0,0,0,.46-1.12,1.46,1.46,0,0,0-.47-1.09A1.67,1.67,0,0,0,217.14,529.89Z"/><path class="cls-1" d="M228.38,533.56v-1.13h2.83V533a4.37,4.37,0,0,1-4.4,4.38,4.15,4.15,0,0,1-3.1-1.27,4.57,4.57,0,0,1,0-6.28,4.15,4.15,0,0,1,3.1-1.27,4.68,4.68,0,0,1,1.79.35,4.45,4.45,0,0,1,1.45,1l-.88.89a3.11,3.11,0,0,0-4.62-.14,3.44,3.44,0,0,0,0,4.64,3,3,0,0,0,2.26,1,3,3,0,0,0,2-.75,3.18,3.18,0,0,0,1.07-2Z"/><path class="cls-1" d="M232.78,537.26l3.42-8.51h1.07l3.35,8.51h-1.31l-.52-1.31h-4.17l-.52,1.31Zm3.95-6.55-1.65,4.11h3.27Z"/><path class="cls-1" d="M21,557.37a4.14,4.14,0,0,1-1.6-.34,4.1,4.1,0,0,1-1.34-.92l.83-1a3.25,3.25,0,0,0,1,.77,2.51,2.51,0,0,0,1.18.31,1.64,1.64,0,0,0,1.1-.36,1.15,1.15,0,0,0,.43-.9,1.48,1.48,0,0,0-1.08-1.39l-1-.4a3.52,3.52,0,0,1-1.4-.92,2,2,0,0,1-.45-1.34,2.14,2.14,0,0,1,.7-1.61,2.43,2.43,0,0,1,1.73-.67,3.47,3.47,0,0,1,2.47.94l-.71,1a2.36,2.36,0,0,0-1.76-.76,1.41,1.41,0,0,0-.9.29,1,1,0,0,0-.34.79,1,1,0,0,0,.25.66,2.31,2.31,0,0,0,.86.52l1,.42a2.4,2.4,0,0,1,1.79,2.42,2.33,2.33,0,0,1-.75,1.79A2.81,2.81,0,0,1,21,557.37Z"/><path class="cls-1" d="M30.52,557.41a4.17,4.17,0,0,1-3.07-1.26,4.57,4.57,0,0,1,0-6.3,4.35,4.35,0,0,1,6.12,0,4.54,4.54,0,0,1,0,6.3A4.16,4.16,0,0,1,30.52,557.41Zm-2.23-2.08a3.08,3.08,0,0,0,4.45,0,3.4,3.4,0,0,0,0-4.65,3.06,3.06,0,0,0-4.45,0,3.43,3.43,0,0,0,0,4.65Zm1.43-7.48a.55.55,0,0,1-.42.19.52.52,0,0,1-.42-.19.71.71,0,0,1,0-.92.52.52,0,0,1,.42-.19.55.55,0,0,1,.42.19.68.68,0,0,1,0,.92Zm2.36,0a.55.55,0,0,1-.42.19.56.56,0,0,1-.43-.19.71.71,0,0,1,0-.92.56.56,0,0,1,.43-.19.55.55,0,0,1,.42.19.71.71,0,0,1,0,.92Z"/><path class="cls-1" d="M37.83,557.26v-8.51h.82l4.61,5.86v-5.86h1.19v8.51h-.66L39,551.19v6.07Z"/><path class="cls-1" d="M48,557.26v-8.51h2.28a4.29,4.29,0,0,1,3,7.3,4.17,4.17,0,0,1-3,1.21Zm2.32-7.37H49.19v6.24h1.17a2.73,2.73,0,0,0,2.09-.92A3.11,3.11,0,0,0,53.3,553a3.06,3.06,0,0,0-.87-2.21A2.88,2.88,0,0,0,50.32,549.89Z"/><path class="cls-1" d="M56.17,557.26l3.42-8.51h1.07L64,557.26H62.7L62.18,556H58l-.52,1.31Zm3.95-6.55-1.65,4.11h3.27Z"/><path class="cls-1" d="M71.52,553.56v-1.13h2.83V553A4.36,4.36,0,0,1,73,556.16,4.28,4.28,0,0,1,70,557.4a4.17,4.17,0,0,1-3.11-1.27,4.6,4.6,0,0,1,0-6.28A4.17,4.17,0,0,1,70,548.58a4.63,4.63,0,0,1,1.78.35,4.49,4.49,0,0,1,1.46,1l-.88.89a3,3,0,0,0-2.36-1.1,3,3,0,0,0-2.26,1,3.44,3.44,0,0,0,0,4.64,3,3,0,0,0,2.26,1,3,3,0,0,0,2-.75,3.23,3.23,0,0,0,1.07-2Z"/><path class="cls-1" d="M81.28,557.26v-.75L84.67,552a1.68,1.68,0,0,0,.48-1.08,1.23,1.23,0,0,0-.37-.9,1.3,1.3,0,0,0-1-.37,1.19,1.19,0,0,0-.93.41,1.59,1.59,0,0,0-.39,1.07H81.31a2.47,2.47,0,0,1,.71-1.8,2.39,2.39,0,0,1,1.8-.74,2.53,2.53,0,0,1,1.81.67,2.2,2.2,0,0,1,.71,1.67,3,3,0,0,1-.9,1.88l-2.65,3.37h3.66v1.06Z"/><path class="cls-1" d="M91.24,557.39a2.63,2.63,0,0,1-1.86-.72,2.4,2.4,0,0,1-.79-1.73h1.19a1.25,1.25,0,0,0,.44.93,1.44,1.44,0,0,0,1,.39,1.46,1.46,0,0,0,1.06-.41,1.36,1.36,0,0,0,.42-1,1.4,1.4,0,0,0-1.44-1.45h-.49v-1.06h.47a1.31,1.31,0,0,0,1-.4,1.3,1.3,0,0,0,0-1.88,1.45,1.45,0,0,0-2,0,1.3,1.3,0,0,0-.39,1H88.68a2.18,2.18,0,0,1,.74-1.7,2.54,2.54,0,0,1,1.83-.7,2.57,2.57,0,0,1,1.83.69,2.25,2.25,0,0,1,.74,1.7,1.91,1.91,0,0,1-.36,1.14,2.1,2.1,0,0,1-.94.73,2,2,0,0,1,1.36,2,2.41,2.41,0,0,1-.78,1.8A2.59,2.59,0,0,1,91.24,557.39Z"/><path class="cls-1" d="M103.52,557.37a4.06,4.06,0,0,1-1.59-.34,4.25,4.25,0,0,1-1.35-.92l.84-1a3.13,3.13,0,0,0,1,.77,2.45,2.45,0,0,0,1.18.31,1.66,1.66,0,0,0,1.1-.36,1.14,1.14,0,0,0,.42-.9,1.48,1.48,0,0,0-1.07-1.39l-1-.4a3.47,3.47,0,0,1-1.39-.92,2,2,0,0,1-.46-1.34,2.15,2.15,0,0,1,.71-1.61,2.42,2.42,0,0,1,1.73-.67,3.49,3.49,0,0,1,2.47.94l-.72,1a2.33,2.33,0,0,0-1.75-.76,1.37,1.37,0,0,0-.9.29,1,1,0,0,0-.35.79,1,1,0,0,0,.26.66,2.23,2.23,0,0,0,.86.52l1,.42a2.4,2.4,0,0,1,1.79,2.42,2.33,2.33,0,0,1-.75,1.79A2.82,2.82,0,0,1,103.52,557.37Z"/><path class="cls-1" d="M113.89,553.53h-3.5v2.6h3.74v1.13H109.2v-8.51h4.87v1.14h-3.68v2.51h3.5Z"/><path class="cls-1" d="M117.08,557.26v-8.51H120a2.69,2.69,0,0,1,2,.8,2.77,2.77,0,0,1,.79,2,2.68,2.68,0,0,1-.82,2,2.72,2.72,0,0,1-2,.79h-1.67v2.91Zm2.82-7.37h-1.63v3.33h1.64a1.68,1.68,0,0,0,1.18-2.85A1.59,1.59,0,0,0,119.9,549.89Z"/><path class="cls-1" d="M124.49,549.89v-1.14h6.89v1.14h-2.85v7.37h-1.19v-7.37Z"/><path class="cls-1" d="M138.43,553.53h-3.5v2.6h3.74v1.13h-4.92v-8.51h4.86v1.14h-3.68v2.51h3.5Z"/><path class="cls-1" d="M141.62,557.26v-8.51h1.22l2.74,4.54,2.78-4.54h1.17v8.51h-1.19V551l0,0-2.73,4.4L142.88,551h-.07v6.24Z"/><path class="cls-1" d="M153,557.26v-8.51h2.6a2.7,2.7,0,0,1,1.87.66,2.17,2.17,0,0,1,.74,1.72,1.32,1.32,0,0,0-.1,2.59,2,2,0,0,1,.34,1.14,2.17,2.17,0,0,1-.74,1.74,2.76,2.76,0,0,1-1.9.66Zm2.48-7.37h-1.29v2.58h1.51a1.28,1.28,0,0,0,.94-.37,1.3,1.3,0,0,0,.38-1,1.08,1.08,0,0,0-.42-.89A1.74,1.74,0,0,0,155.51,549.89Zm.26,3.64h-1.55v2.6h1.48a1.78,1.78,0,0,0,1.17-.37,1.22,1.22,0,0,0,.43-1,1.16,1.16,0,0,0-.4-.91A1.64,1.64,0,0,0,155.77,553.53Z"/><path class="cls-1" d="M166.15,553.53h-3.5v2.6h3.74v1.13h-4.93v-8.51h4.87v1.14h-3.68v2.51h3.5Z"/><path class="cls-1" d="M169.34,557.26v-8.51h3.16a2.62,2.62,0,0,1,1.91.75,2.51,2.51,0,0,1,.77,1.92,2.51,2.51,0,0,1-2.26,2.6l2.46,3.24h-1.46L171.48,554h-.95v3.25Zm3-7.37h-1.81V553h1.8a1.72,1.72,0,0,0,1.2-.42,1.56,1.56,0,0,0,0-2.21A1.7,1.7,0,0,0,172.34,549.89Z"/><path class="cls-1" d="M182.76,557.26v-8.51H184v4l3.54-4h1.6l-3,3.38,3.07,5.13h-1.47l-2.48-4.15L184,554.53v2.73Z"/><path class="cls-1" d="M191.75,557.26v-8.51h1.19v7.38h3.49v1.13Z"/><path class="cls-1" d="M204.61,557.26v-7l-1.6.82V550l2.26-1.24h.52v8.55Z"/><path class="cls-1" d="M208.53,557.26v-.75l3.4-4.49a1.68,1.68,0,0,0,.48-1.08,1.2,1.2,0,0,0-.38-.9,1.27,1.27,0,0,0-.95-.37,1.23,1.23,0,0,0-.94.41,1.7,1.7,0,0,0-.39,1.07h-1.18a2.5,2.5,0,0,1,.7-1.8,2.41,2.41,0,0,1,1.81-.74,2.49,2.49,0,0,1,1.8.67,2.16,2.16,0,0,1,.71,1.67,3,3,0,0,1-.89,1.88l-2.65,3.37h3.65v1.06Z"/><path class="cls-1" d="M216.12,553.55v-1h3.33v1Z"/><path class="cls-1" d="M222.67,557.26v-7l-1.6.82V550l2.26-1.24h.53v8.55Z"/><path class="cls-1" d="M226.53,555.31v-.75l3-5.81h1.24l-2.79,5.5h1.84v-1.42H231v1.42h1v1.06h-1v2h-1.18v-2Z"/></svg>