<svg id="Layer_1" data-name="Layer 1" xmlns="http://www.w3.org/2000/svg" viewBox="0 0 300 600"><defs><style>.cls-1{fill:#d5ad77;}</style></defs><title>text</title><path class="cls-1" d="M90.17,244.1H85.08v3.77h5.44v1.65H83.35V237.15h7.08v1.65H85.08v3.65h5.09Z"/><path class="cls-1" d="M94.81,249.52V237.15H99.4a3.83,3.83,0,0,1,2.78,1.08,4.06,4.06,0,0,1,.2,5.37,3.64,3.64,0,0,1-2.37,1.21l3.58,4.71h-2.13l-3.55-4.72H96.54v4.72Zm4.36-10.72H96.54v4.46h2.61a2.49,2.49,0,0,0,1.75-.61,2.22,2.22,0,0,0,0-3.21A2.38,2.38,0,0,0,99.17,238.8Z"/><path class="cls-1" d="M106.09,238.8v-1.65h10v1.65H112v10.72h-1.73V238.8Z"/><path class="cls-1" d="M126.55,249.52V237.15h1.21l6.7,8.52v-8.52h1.73v12.37h-1l-6.94-8.83v8.83Z"/><path class="cls-1" d="M147.79,237.15h2l-4.12,7.39v5H144v-4.91l-4.16-7.46h2.07l3,5.49Z"/><path class="cls-1" d="M150.5,249.52l5-12.37H157l4.87,12.37H160l-.74-1.9h-6.07l-.76,1.9Zm5.75-9.53-2.4,6h4.75Z"/><path class="cls-1" d="M180,249.52v-5.36h-6v5.36h-1.73V237.15H174v5.36h6v-5.36h1.73v12.37Z"/><path class="cls-1" d="M193.69,244.1H188.6v3.77H194v1.65h-7.17V237.15H194v1.65H188.6v3.65h5.09Z"/><path class="cls-1" d="M198.33,249.52V237.15h1.77l4,6.59,4-6.59h1.69v12.37H208.1v-9.14l0,0-4,6.39-3.9-6.3h-.11v9.08Z"/><path class="cls-1" d="M86,270.52l-4.83-12.37h1.94l3.71,9.5,3.71-9.5h1.91l-4.84,12.37Z"/><path class="cls-1" d="M93.44,270.52l5-12.37H100l4.87,12.37h-1.91l-.75-1.9H96.12l-.77,1.9Zm4.47-13.68a.83.83,0,0,1-.62.27.79.79,0,0,1-.61-.27,1,1,0,0,1-.25-.67.93.93,0,0,1,.25-.67.77.77,0,0,1,.61-.28.8.8,0,0,1,.62.28.93.93,0,0,1,.25.67A1,1,0,0,1,97.91,256.84ZM99.19,261l-2.41,6h4.75Zm2.15-4.15a.83.83,0,0,1-.62.27.79.79,0,0,1-.61-.27,1,1,0,0,1-.25-.67.93.93,0,0,1,.25-.67.77.77,0,0,1,.61-.28.8.8,0,0,1,.62.28,1,1,0,0,1,.24.67A1,1,0,0,1,101.34,256.84Z"/><path class="cls-1" d="M108.27,270.52V258.15h1.21l6.7,8.52v-8.52h1.72v12.37h-1l-7-8.83v8.83Z"/><path class="cls-1" d="M121.44,259.8v-1.65h10v1.65h-4.15v10.72h-1.73V259.8Z"/><path class="cls-1" d="M132.26,270.52l5-12.37h1.57l4.87,12.37h-1.92l-.74-1.9h-6.06l-.77,1.9ZM138,261l-2.4,6h4.75Z"/><path class="cls-1" d="M147.09,270.52V258.15h4.59a3.83,3.83,0,0,1,2.78,1.08,4.06,4.06,0,0,1,.2,5.37,3.64,3.64,0,0,1-2.37,1.21l3.58,4.71h-2.12l-3.56-4.72h-1.37v4.72Zm4.36-10.72h-2.63v4.46h2.61a2.49,2.49,0,0,0,1.75-.61,2.22,2.22,0,0,0,0-3.21A2.4,2.4,0,0,0,151.45,259.8Z"/><path class="cls-1" d="M166.61,270.52V258.15h4.22a3.89,3.89,0,0,1,2.87,1.16,4,4,0,0,1,1.15,2.94,3.86,3.86,0,0,1-1.18,2.89,4,4,0,0,1-2.91,1.16h-2.42v4.22Zm4.1-10.72h-2.37v4.85h2.39a2.28,2.28,0,0,0,2.39-2.4,2.44,2.44,0,0,0-.68-1.76A2.34,2.34,0,0,0,170.71,259.8Z"/><path class="cls-1" d="M176.46,270.52l5-12.37H183l4.87,12.37H186l-.74-1.9h-6.07l-.76,1.9Zm5.75-9.53-2.4,6h4.75Zm1.19-3.68a1.69,1.69,0,1,1,.49-1.19A1.59,1.59,0,0,1,183.4,257.31Zm-1.19-.5a.62.62,0,0,0,.47-.21.69.69,0,0,0,.2-.48.68.68,0,0,0-.2-.49.65.65,0,0,0-.47-.2.68.68,0,0,0-.69.69.69.69,0,0,0,.2.48A.65.65,0,0,0,182.21,256.81Z"/><path class="cls-1" d="M205,265.1h-5.09v3.77h5.44v1.65h-7.17V258.15h7.07v1.65h-5.34v3.65H205Z"/><path class="cls-1" d="M209.65,270.52V258.15h4.59a3.83,3.83,0,0,1,2.78,1.08,4.06,4.06,0,0,1,.2,5.37,3.64,3.64,0,0,1-2.37,1.21l3.58,4.71H216.3l-3.55-4.72h-1.37v4.72ZM214,259.8h-2.63v4.46H214a2.49,2.49,0,0,0,1.75-.61,2.22,2.22,0,0,0,0-3.21A2.4,2.4,0,0,0,214,259.8Z"/></svg>