<svg id="Layer_1" data-name="Layer 1" xmlns="http://www.w3.org/2000/svg" viewBox="0 0 160 600"><defs><style>.cls-1{fill:#010121;}</style></defs><title>text</title><path class="cls-1" d="M51.54,190.63h2.63v17.06h9.71V210H51.54Z"/><path class="cls-1" d="M66.24,190.63h2.41v2.69H66.24Zm0,5.32h2.41V210H66.24Z"/><path class="cls-1" d="M73.35,191.57c.55-.81,1.62-1.21,3.2-1.21H77l.54,0v2.16l-.54,0H76.7c-.73,0-1.16.19-1.31.56a11.21,11.21,0,0,0-.21,2.86h2.37v1.87H75.18V210H72.83V197.82h-2V196h2v-2.22A4.26,4.26,0,0,1,73.35,191.57Z"/><path class="cls-1" d="M79.81,190.63h2.37V210H79.81Z"/><path class="cls-1" d="M85.74,190.63h2.41v2.69H85.74Zm0,5.32h2.41V210H85.74Z"/><path class="cls-1" d="M99.59,196.45a6.3,6.3,0,0,1,1.36,1.34V196h2.19v12.84a9.44,9.44,0,0,1-.79,4.25Q100.88,216,96.8,216A6.84,6.84,0,0,1,93,215a4,4,0,0,1-1.73-3.2h2.41a2.69,2.69,0,0,0,.68,1.47,3.49,3.49,0,0,0,2.52.79c1.81,0,3-.64,3.55-1.93a10.8,10.8,0,0,0,.46-4,4.56,4.56,0,0,1-1.71,1.6,5.53,5.53,0,0,1-2.64.53,5.59,5.59,0,0,1-4-1.63c-1.15-1.08-1.72-2.88-1.72-5.38a8.19,8.19,0,0,1,1.73-5.54,5.32,5.32,0,0,1,4.17-2A5.1,5.1,0,0,1,99.59,196.45Zm.29,2.54a3.45,3.45,0,0,0-2.74-1.26,3.38,3.38,0,0,0-3.41,2.34,9.11,9.11,0,0,0-.49,3.28,5.81,5.81,0,0,0,1,3.64,3.09,3.09,0,0,0,2.59,1.24,3.64,3.64,0,0,0,3.58-2.3,7.58,7.58,0,0,0,.57-3.05A5.94,5.94,0,0,0,99.88,199Z"/><path class="cls-1" d="M108,196.06h2.75v2.88H108Zm0,11.07h2.75V210H108Z"/><path class="cls-1" d="M31.5,236.15a5.37,5.37,0,0,0,.74,2.68q1.26,1.92,4.44,1.92a7.61,7.61,0,0,0,2.59-.42,3,3,0,0,0,2.26-2.93,2.56,2.56,0,0,0-1-2.25,9.61,9.61,0,0,0-3-1.15L35,233.41a11.3,11.3,0,0,1-3.53-1.28,4.1,4.1,0,0,1-1.78-3.63,5.65,5.65,0,0,1,1.75-4.28,6.93,6.93,0,0,1,5-1.68,8.55,8.55,0,0,1,5,1.47,5.38,5.38,0,0,1,2.07,4.7H41.05a4.83,4.83,0,0,0-.81-2.38,4.58,4.58,0,0,0-3.9-1.52,4.41,4.41,0,0,0-3.2,1,3.1,3.1,0,0,0-1,2.27,2.23,2.23,0,0,0,1.15,2.08,16.51,16.51,0,0,0,3.41,1.05l2.63.62A7.92,7.92,0,0,1,42.3,233,4.65,4.65,0,0,1,44.09,237a4.93,4.93,0,0,1-2.29,4.6A10,10,0,0,1,36.5,243,7.82,7.82,0,0,1,31,241.12a6.32,6.32,0,0,1-1.95-5Z"/><path class="cls-1" d="M57.7,229.69A7.11,7.11,0,0,1,59.58,235a9.19,9.19,0,0,1-1.65,5.63,5.94,5.94,0,0,1-5.12,2.23,5.79,5.79,0,0,1-4.6-2,7.82,7.82,0,0,1-1.7-5.29A8.46,8.46,0,0,1,48.3,230a6,6,0,0,1,4.82-2.11A6.31,6.31,0,0,1,57.7,229.69Zm-1.47,9.38a8.93,8.93,0,0,0,.87-4,7.08,7.08,0,0,0-.63-3.21,3.51,3.51,0,0,0-3.41-1.95,3.35,3.35,0,0,0-3.13,1.66,7.78,7.78,0,0,0-1,4,6.81,6.81,0,0,0,1,3.76,3.42,3.42,0,0,0,3.1,1.5A3.23,3.23,0,0,0,56.23,239.07Z"/><path class="cls-1" d="M63.6,224c.55-.81,1.62-1.21,3.2-1.21h.46l.54,0V225l-.54,0H67c-.73,0-1.16.19-1.31.56a11.21,11.21,0,0,0-.21,2.86H67.8v1.87H65.43V242.4H63.08V230.22h-2v-1.87h2v-2.22A4.26,4.26,0,0,1,63.6,224Z"/><path class="cls-1" d="M70.47,224.34h2.4v3.94h2.25v1.94H72.87v9.21a1,1,0,0,0,.5,1,2,2,0,0,0,.92.15h.37c.13,0,.28,0,.46-.05v1.89a4.74,4.74,0,0,1-.85.17,7.24,7.24,0,0,1-1,.05,2.57,2.57,0,0,1-2.25-.85,3.73,3.73,0,0,1-.59-2.21v-9.34H68.55v-1.94h1.92Z"/><path class="cls-1" d="M78.59,228.28l2.72,11.13,2.76-11.13h2.66l2.77,11.06,2.88-11.06h2.38l-4.1,14.12H88.19l-2.87-10.93L82.54,242.4H80.07L76,228.28Z"/><path class="cls-1" d="M104.56,233.85a1.27,1.27,0,0,0,1.09-.68,2,2,0,0,0,.16-.91,2,2,0,0,0-.86-1.77,4.57,4.57,0,0,0-2.47-.55,3.14,3.14,0,0,0-2.63,1,3.23,3.23,0,0,0-.56,1.65H97.07A4.09,4.09,0,0,1,98.76,229a7,7,0,0,1,3.78-1,7.62,7.62,0,0,1,4,.95,3.22,3.22,0,0,1,1.54,3V240a1.07,1.07,0,0,0,.15.6c.1.15.31.22.64.22l.36,0,.42-.06v1.76a6,6,0,0,1-.85.19,5.45,5.45,0,0,1-.79,0,2,2,0,0,1-1.78-.87,3.37,3.37,0,0,1-.41-1.3,6,6,0,0,1-2.08,1.65,6.48,6.48,0,0,1-3,.69,4.43,4.43,0,0,1-3.21-1.19,4,4,0,0,1-1.25-3,3.83,3.83,0,0,1,1.23-3,5.87,5.87,0,0,1,3.22-1.33Zm-5,6.42a2.83,2.83,0,0,0,1.78.59,5.5,5.5,0,0,0,2.43-.58,3.26,3.26,0,0,0,2-3.15v-1.91a4.19,4.19,0,0,1-1.12.47,9.86,9.86,0,0,1-1.34.26l-1.44.18a5.78,5.78,0,0,0-1.94.54,2.12,2.12,0,0,0-1.1,2A2,2,0,0,0,99.56,240.27Z"/><path class="cls-1" d="M112.07,228.28h2.26v2.44a5.14,5.14,0,0,1,1.36-1.73,3.49,3.49,0,0,1,2.49-1l.22,0,.54.05v2.5l-.39-.05h-.39a3.38,3.38,0,0,0-2.75,1.15,4,4,0,0,0-1,2.66v8.12h-2.38Z"/><path class="cls-1" d="M129.72,228.67a5.44,5.44,0,0,1,2.14,1.82,6.47,6.47,0,0,1,.94,2.5,16.31,16.31,0,0,1,.21,3.11H122.74a6,6,0,0,0,1,3.45,3.34,3.34,0,0,0,2.91,1.31,3.78,3.78,0,0,0,3-1.23,4.2,4.2,0,0,0,.87-1.66h2.33a4.94,4.94,0,0,1-.61,1.73,6.6,6.6,0,0,1-1.16,1.57,5.54,5.54,0,0,1-2.66,1.42,8.06,8.06,0,0,1-1.92.21A5.88,5.88,0,0,1,122,241a7.47,7.47,0,0,1-1.83-5.37,8.14,8.14,0,0,1,1.84-5.52,6,6,0,0,1,4.79-2.13A6.37,6.37,0,0,1,129.72,228.67Zm.85,5.54a6.17,6.17,0,0,0-.67-2.46,3.4,3.4,0,0,0-3.23-1.72,3.57,3.57,0,0,0-2.71,1.18,4.44,4.44,0,0,0-1.17,3Z"/><path class="cls-1" d="M28.79,255.43h2.37V274.8H28.79Z"/><path class="cls-1" d="M34.19,274.75,35.88,273a7.63,7.63,0,0,1-1-2.18,10.2,10.2,0,0,1-.36-2.88,8.84,8.84,0,0,1,1.68-5.31,5.66,5.66,0,0,1,4.89-2.33,6.75,6.75,0,0,1,2.93.6,7.85,7.85,0,0,1,1.7,1.14l1.68-1.86.68.67-1.69,1.89a8,8,0,0,1,1.19,2.78,9.43,9.43,0,0,1,.23,2A8.45,8.45,0,0,1,46,273.13,6.13,6.13,0,0,1,41,275.34a7.27,7.27,0,0,1-2.6-.43,4.76,4.76,0,0,1-1.85-1.16L35,275.43Zm8.82-12a4.39,4.39,0,0,0-1.84-.38,3.66,3.66,0,0,0-3.1,1.61,6.88,6.88,0,0,0-1.16,4.12,8.34,8.34,0,0,0,.2,1.83,11.71,11.71,0,0,0,.41,1.24l6.69-7.48A2.88,2.88,0,0,0,43,262.73ZM39.53,273a4.85,4.85,0,0,0,1.55.26,3.64,3.64,0,0,0,3.57-2.35,7.71,7.71,0,0,0,.64-3.24,9.26,9.26,0,0,0-.2-2,6.8,6.8,0,0,0-.36-1.08L38.12,272A3.32,3.32,0,0,0,39.53,273Z"/><path class="cls-1" d="M52.62,270.37a3.41,3.41,0,0,0,.61,1.82,3.86,3.86,0,0,0,3.17,1.15,4.68,4.68,0,0,0,2.37-.58,1.89,1.89,0,0,0,1-1.77A1.52,1.52,0,0,0,59,269.6a10.49,10.49,0,0,0-2.07-.67L55,268.46a9.4,9.4,0,0,1-2.71-1,3,3,0,0,1-1.55-2.67,4,4,0,0,1,1.46-3.24,5.86,5.86,0,0,1,3.93-1.24c2.16,0,3.71.62,4.67,1.87a4.13,4.13,0,0,1,.87,2.56H59.42a2.62,2.62,0,0,0-.58-1.46,3.75,3.75,0,0,0-2.9-.93,3.47,3.47,0,0,0-2.08.52,1.59,1.59,0,0,0-.71,1.35,1.66,1.66,0,0,0,.93,1.47,5.77,5.77,0,0,0,1.59.58l1.59.38a12.33,12.33,0,0,1,3.5,1.2,3.18,3.18,0,0,1,1.38,2.86A4.33,4.33,0,0,1,60.69,274a6.21,6.21,0,0,1-4.41,1.37c-2.13,0-3.63-.48-4.52-1.43a5.37,5.37,0,0,1-1.42-3.54Z"/><path class="cls-1" d="M64.71,260.68H67v2a6.28,6.28,0,0,1,2.12-1.78,5.68,5.68,0,0,1,2.49-.54c2,0,3.36.7,4.06,2.1a7.38,7.38,0,0,1,.58,3.28v9.06H73.81v-8.9a4.86,4.86,0,0,0-.38-2.08,2.33,2.33,0,0,0-2.3-1.32,4.8,4.8,0,0,0-1.38.17,3.85,3.85,0,0,0-2.49,2.6,9.66,9.66,0,0,0-.18,2.13v7.4H64.71Z"/><path class="cls-1" d="M79.73,255.43h2.41v2.69H79.73Zm0,5.32h2.41V274.8H79.73Z"/><path class="cls-1" d="M85.73,260.68H88v2a6.48,6.48,0,0,1,2.12-1.78,5.68,5.68,0,0,1,2.49-.54c2,0,3.36.7,4.07,2.1a7.53,7.53,0,0,1,.58,3.28v9.06H94.82v-8.9a4.71,4.71,0,0,0-.38-2.08,2.32,2.32,0,0,0-2.29-1.32,4.83,4.83,0,0,0-1.39.17,3.86,3.86,0,0,0-2.48,2.6,9.66,9.66,0,0,0-.18,2.13v7.4H85.73Z"/><path class="cls-1" d="M108.59,261.25a6.32,6.32,0,0,1,1.37,1.34v-1.78h2.19v12.84a9.58,9.58,0,0,1-.79,4.25c-1,1.91-2.84,2.87-5.56,2.87a6.78,6.78,0,0,1-3.82-1,4,4,0,0,1-1.74-3.2h2.41a2.77,2.77,0,0,0,.69,1.47,3.48,3.48,0,0,0,2.51.79c1.81,0,3-.64,3.56-1.93a11,11,0,0,0,.46-4.05,4.66,4.66,0,0,1-1.71,1.61,5.71,5.71,0,0,1-2.64.53,5.61,5.61,0,0,1-4-1.63c-1.14-1.08-1.71-2.88-1.71-5.38a8.18,8.18,0,0,1,1.72-5.54,5.32,5.32,0,0,1,4.17-2A5.05,5.05,0,0,1,108.59,261.25Zm.29,2.54a3.43,3.43,0,0,0-2.74-1.26,3.38,3.38,0,0,0-3.41,2.34,9.35,9.35,0,0,0-.48,3.28,5.87,5.87,0,0,0,1,3.64A3.1,3.1,0,0,0,105.8,273a3.64,3.64,0,0,0,3.58-2.3,7.41,7.41,0,0,0,.58-3.05A5.88,5.88,0,0,0,108.88,263.79Z"/><path class="cls-1" d="M123.26,255.43h2.41v2.69h-2.41Zm0,5.32h2.41V274.8h-2.41Z"/><path class="cls-1" d="M37.8,287.83h2.38V307.2H37.8Z"/><path class="cls-1" d="M43.74,287.83h2.41v2.69H43.74Zm0,5.32h2.41V307.2H43.74Z"/><path class="cls-1" d="M50.9,293.08l3.77,11.5,3.93-11.5h2.6L55.88,307.2H53.35l-5.2-14.12Z"/><path class="cls-1" d="M64.65,302.77a3.41,3.41,0,0,0,.6,1.82,3.87,3.87,0,0,0,3.18,1.15,4.77,4.77,0,0,0,2.36-.58,1.88,1.88,0,0,0,1-1.77A1.51,1.51,0,0,0,71,302a9.76,9.76,0,0,0-2.06-.68L67,300.86a9.64,9.64,0,0,1-2.71-1,3,3,0,0,1-1.55-2.67A4.07,4.07,0,0,1,64.22,294a5.89,5.89,0,0,1,3.94-1.24c2.15,0,3.71.62,4.66,1.87a4,4,0,0,1,.87,2.56H71.45a2.71,2.71,0,0,0-.58-1.45,3.74,3.74,0,0,0-2.9-.94,3.56,3.56,0,0,0-2.09.52,1.59,1.59,0,0,0-.71,1.35,1.66,1.66,0,0,0,.93,1.47,5.77,5.77,0,0,0,1.59.58l1.6.38a13,13,0,0,1,3.49,1.2,3.18,3.18,0,0,1,1.38,2.86,4.34,4.34,0,0,1-1.44,3.26,6.26,6.26,0,0,1-4.42,1.37c-2.12,0-3.63-.48-4.51-1.43a5.32,5.32,0,0,1-1.42-3.54Z"/><path class="cls-1" d="M76.8,287.83h2.37V307.2H76.8Z"/><path class="cls-1" d="M82.21,307.15l1.69-1.78a7.93,7.93,0,0,1-1-2.18,10.2,10.2,0,0,1-.36-2.88A8.84,8.84,0,0,1,84.2,295a5.66,5.66,0,0,1,4.89-2.33,6.77,6.77,0,0,1,2.94.6,8.37,8.37,0,0,1,1.7,1.14l1.67-1.86.69.68-1.7,1.88a8,8,0,0,1,1.2,2.79,9.26,9.26,0,0,1,.22,2A8.4,8.4,0,0,1,94,305.53,6.09,6.09,0,0,1,89,307.74a7.29,7.29,0,0,1-2.61-.43,4.84,4.84,0,0,1-1.85-1.16L83,307.83Zm8.82-12a4.42,4.42,0,0,0-1.84-.38,3.66,3.66,0,0,0-3.1,1.61,6.81,6.81,0,0,0-1.17,4.12,7.78,7.78,0,0,0,.21,1.83,11.3,11.3,0,0,0,.4,1.24l6.7-7.48A2.88,2.88,0,0,0,91,295.13Zm-3.48,10.28a4.79,4.79,0,0,0,1.54.26,3.66,3.66,0,0,0,3.58-2.35,7.87,7.87,0,0,0,.64-3.24,9.26,9.26,0,0,0-.2-2,8.19,8.19,0,0,0-.37-1.08l-6.61,7.44A3.41,3.41,0,0,0,87.55,305.41Z"/><path class="cls-1" d="M99,293.15h2.32V295a5.74,5.74,0,0,1,1.56-1.49,5,5,0,0,1,2.83-.79,5.31,5.31,0,0,1,4.08,1.84,7.49,7.49,0,0,1,1.68,5.25c0,3.08-.81,5.27-2.42,6.59a5.48,5.48,0,0,1-3.58,1.25,4.9,4.9,0,0,1-2.68-.69,6.23,6.23,0,0,1-1.42-1.36v7.21H99ZM108,304.21a6.62,6.62,0,0,0,1.1-4.16,7.69,7.69,0,0,0-.49-2.9,3.59,3.59,0,0,0-6.77.14,9.58,9.58,0,0,0-.49,3.34,7.07,7.07,0,0,0,.49,2.79,3.61,3.61,0,0,0,6.16.79Z"/><path class="cls-1" d="M115.65,302.77a3.41,3.41,0,0,0,.61,1.82,3.86,3.86,0,0,0,3.17,1.15,4.78,4.78,0,0,0,2.37-.58,1.9,1.9,0,0,0,1-1.77A1.51,1.51,0,0,0,122,302a9.69,9.69,0,0,0-2.07-.68l-1.91-.47a9.4,9.4,0,0,1-2.71-1,3,3,0,0,1-1.55-2.67,4.07,4.07,0,0,1,1.46-3.24,5.89,5.89,0,0,1,3.94-1.24c2.15,0,3.71.62,4.66,1.87a4.13,4.13,0,0,1,.87,2.56h-2.24a2.71,2.71,0,0,0-.58-1.45,3.75,3.75,0,0,0-2.91-.94,3.54,3.54,0,0,0-2.08.52,1.59,1.59,0,0,0-.71,1.35,1.66,1.66,0,0,0,.93,1.47,5.77,5.77,0,0,0,1.59.58l1.59.38a13,13,0,0,1,3.5,1.2,3.18,3.18,0,0,1,1.38,2.86,4.32,4.32,0,0,1-1.45,3.26,6.21,6.21,0,0,1-4.41,1.37c-2.12,0-3.63-.48-4.52-1.43a5.37,5.37,0,0,1-1.42-3.54Z"/><path class="cls-1" d="M17.26,325.55h2.32v1.87a5.89,5.89,0,0,1,1.56-1.49,5,5,0,0,1,2.83-.79A5.32,5.32,0,0,1,28.06,327a7.49,7.49,0,0,1,1.68,5.25c0,3.08-.81,5.27-2.43,6.59a5.44,5.44,0,0,1-3.57,1.25,4.93,4.93,0,0,1-2.69-.69A6.43,6.43,0,0,1,19.64,338v7.21H17.26Zm8.93,11.06a6.56,6.56,0,0,0,1.11-4.16,7.89,7.89,0,0,0-.49-2.9,3.39,3.39,0,0,0-3.39-2.33A3.38,3.38,0,0,0,20,329.69a9.82,9.82,0,0,0-.49,3.34,7.25,7.25,0,0,0,.49,2.79A3.38,3.38,0,0,0,23.42,338,3.38,3.38,0,0,0,26.19,336.61Z"/><path class="cls-1" d="M41.2,325.87a5.28,5.28,0,0,1,2.13,1.83,6.22,6.22,0,0,1,1,2.49,16.31,16.31,0,0,1,.21,3.11H34.22a6,6,0,0,0,1,3.45,3.34,3.34,0,0,0,2.91,1.31,3.74,3.74,0,0,0,2.94-1.23,4.1,4.1,0,0,0,.88-1.66h2.33a4.94,4.94,0,0,1-.61,1.73,6.6,6.6,0,0,1-1.16,1.57,5.54,5.54,0,0,1-2.66,1.42,8.06,8.06,0,0,1-1.92.21,5.91,5.91,0,0,1-4.45-1.92,7.51,7.51,0,0,1-1.82-5.37,8.14,8.14,0,0,1,1.84-5.52,6,6,0,0,1,4.79-2.13A6.4,6.4,0,0,1,41.2,325.87Zm.85,5.54a6.17,6.17,0,0,0-.67-2.46,3.4,3.4,0,0,0-3.23-1.72,3.6,3.6,0,0,0-2.72,1.18,4.48,4.48,0,0,0-1.16,3Z"/><path class="cls-1" d="M47.56,325.48h2.25v2.44a5.42,5.42,0,0,1,1.36-1.73,3.49,3.49,0,0,1,2.49-1l.23,0,.54.05v2.5l-.39-.05h-.39a3.38,3.38,0,0,0-2.75,1.15,4,4,0,0,0-1,2.66v8.12H47.56Z"/><path class="cls-1" d="M57.9,335.17a3.41,3.41,0,0,0,.6,1.82,3.87,3.87,0,0,0,3.18,1.15,4.67,4.67,0,0,0,2.36-.58,1.88,1.88,0,0,0,1-1.77,1.51,1.51,0,0,0-.82-1.38,9.76,9.76,0,0,0-2.06-.68l-1.92-.47a9.64,9.64,0,0,1-2.71-1A3,3,0,0,1,56,329.59a4.07,4.07,0,0,1,1.46-3.24,5.89,5.89,0,0,1,3.94-1.24c2.15,0,3.71.62,4.66,1.87a4,4,0,0,1,.87,2.56H64.7a2.77,2.77,0,0,0-.58-1.46,3.78,3.78,0,0,0-2.9-.93,3.56,3.56,0,0,0-2.09.52,1.59,1.59,0,0,0-.71,1.35,1.66,1.66,0,0,0,.93,1.47,5.77,5.77,0,0,0,1.59.58l1.6.38a13,13,0,0,1,3.49,1.2,3.18,3.18,0,0,1,1.38,2.86A4.34,4.34,0,0,1,66,338.77a6.26,6.26,0,0,1-4.42,1.37c-2.12,0-3.63-.48-4.51-1.43a5.32,5.32,0,0,1-1.42-3.54Z"/><path class="cls-1" d="M69.79,325.55h2.32v1.87a5.61,5.61,0,0,1,1.56-1.49,5,5,0,0,1,2.83-.79A5.31,5.31,0,0,1,80.58,327a7.49,7.49,0,0,1,1.68,5.25c0,3.08-.81,5.27-2.42,6.59a5.48,5.48,0,0,1-3.58,1.25,4.9,4.9,0,0,1-2.68-.69A6.23,6.23,0,0,1,72.16,338v7.21H69.79Zm8.93,11.06a6.62,6.62,0,0,0,1.1-4.16,7.69,7.69,0,0,0-.49-2.9,3.59,3.59,0,0,0-6.77.14,9.58,9.58,0,0,0-.49,3.34,7.07,7.07,0,0,0,.49,2.79A3.35,3.35,0,0,0,75.94,338,3.4,3.4,0,0,0,78.72,336.61Z"/><path class="cls-1" d="M93.72,325.87a5.32,5.32,0,0,1,2.14,1.83,6.36,6.36,0,0,1,.94,2.49A16.31,16.31,0,0,1,97,333.3H86.74a6.11,6.11,0,0,0,1,3.45,3.36,3.36,0,0,0,2.92,1.31,3.74,3.74,0,0,0,2.94-1.23,4.2,4.2,0,0,0,.87-1.66h2.33a4.75,4.75,0,0,1-.61,1.73A6.34,6.34,0,0,1,95,338.47a5.54,5.54,0,0,1-2.66,1.42,8,8,0,0,1-1.92.21A5.88,5.88,0,0,1,86,338.18a7.47,7.47,0,0,1-1.82-5.37A8.14,8.14,0,0,1,86,327.29a6,6,0,0,1,4.8-2.13A6.36,6.36,0,0,1,93.72,325.87Zm.85,5.54a6.18,6.18,0,0,0-.66-2.46,3.42,3.42,0,0,0-3.23-1.72A3.59,3.59,0,0,0,88,328.41a4.54,4.54,0,0,0-1.17,3Z"/><path class="cls-1" d="M100,320.23h2.29v11.25l6.08-6h3l-5.42,5.25,5.73,8.87h-3l-4.44-7.19-1.94,1.89v5.3H100Z"/><path class="cls-1" d="M114,321.54h2.4v3.94h2.26v1.94h-2.26v9.21a1,1,0,0,0,.5,1,2.09,2.09,0,0,0,.93.15h.36c.14,0,.29,0,.47-.05v1.89a4.92,4.92,0,0,1-.85.17,7.33,7.33,0,0,1-1,.05,2.58,2.58,0,0,1-2.26-.85,3.79,3.79,0,0,1-.59-2.2v-9.35h-1.91v-1.94H114Z"/><path class="cls-1" d="M121,320.23h2.41v2.69H121Zm0,5.32h2.41V339.6H121Z"/><path class="cls-1" d="M128.18,325.48,132,337l3.92-11.5h2.6l-5.31,14.12h-2.53l-5.21-14.12Z"/><path class="cls-1" d="M42.36,363.26H49v2.44H42.36Z"/><path class="cls-1" d="M67,363.46a1.3,1.3,0,0,0,1.09-.69,2,2,0,0,0,.16-.91,2,2,0,0,0-.86-1.77,4.59,4.59,0,0,0-2.47-.55,3.14,3.14,0,0,0-2.63,1,3.33,3.33,0,0,0-.57,1.65H59.55a4.09,4.09,0,0,1,1.69-3.64,7,7,0,0,1,3.77-1,7.64,7.64,0,0,1,4,.95,3.22,3.22,0,0,1,1.54,2.95v8.13a1.07,1.07,0,0,0,.15.6c.1.15.31.22.64.22l.36,0,.42-.06v1.76a6,6,0,0,1-.85.19,5.45,5.45,0,0,1-.79,0,2,2,0,0,1-1.78-.87,3.37,3.37,0,0,1-.41-1.3,6,6,0,0,1-2.08,1.65,6.48,6.48,0,0,1-3,.69,4.43,4.43,0,0,1-3.21-1.19,4,4,0,0,1-1.25-3,3.83,3.83,0,0,1,1.23-3,5.87,5.87,0,0,1,3.21-1.33Zm-5,6.41a2.83,2.83,0,0,0,1.78.59,5.53,5.53,0,0,0,2.43-.58,3.25,3.25,0,0,0,2-3.15v-1.91a4,4,0,0,1-1.11.47,9.71,9.71,0,0,1-1.35.26l-1.43.18a5.78,5.78,0,0,0-1.94.54,2.12,2.12,0,0,0-1.1,2A2,2,0,0,0,62,369.87Z"/><path class="cls-1" d="M74.55,352.63h2.38V372H74.55Z"/><path class="cls-1" d="M80.55,352.63h2.37V372H80.55Z"/><path class="cls-1" d="M87,353.94h2.4v3.94h2.25v1.94H89.36V369a1,1,0,0,0,.5,1,2,2,0,0,0,.92.15h.37a4.57,4.57,0,0,0,.46-.05V372a4.57,4.57,0,0,1-.85.17,7.08,7.08,0,0,1-1,.05,2.58,2.58,0,0,1-2.26-.85,3.79,3.79,0,0,1-.59-2.2v-9.35H85.05v-1.94H87Z"/><path class="cls-1" d="M94,352.63H96.4v2.69H94ZM94,358H96.4V372H94Z"/><path class="cls-1" d="M107.74,358.31a6.46,6.46,0,0,1,1.43,1.39v-7.13h2.28V372h-2.13v-2a5.15,5.15,0,0,1-2,1.88,5.52,5.52,0,0,1-2.59.58,5.25,5.25,0,0,1-4.07-2A7.84,7.84,0,0,1,99,365.24a9.12,9.12,0,0,1,1.57-5.35,5.13,5.13,0,0,1,4.49-2.26A5.06,5.06,0,0,1,107.74,358.31Zm-5.3,10.59a3.36,3.36,0,0,0,3.07,1.53,3.21,3.21,0,0,0,2.7-1.42,6.73,6.73,0,0,0,1.06-4.06,6.09,6.09,0,0,0-1.09-4,3.42,3.42,0,0,0-2.69-1.28,3.54,3.54,0,0,0-2.89,1.37,6.29,6.29,0,0,0-1.11,4A7.09,7.09,0,0,0,102.44,368.9Z"/><path class="cls-1" d="M35.92,391.69A7.11,7.11,0,0,1,37.8,397a9.24,9.24,0,0,1-1.65,5.64A6,6,0,0,1,31,404.9a5.79,5.79,0,0,1-4.6-2,7.82,7.82,0,0,1-1.7-5.29,8.41,8.41,0,0,1,1.8-5.66,6,6,0,0,1,4.81-2.11A6.31,6.31,0,0,1,35.92,391.69Zm-1.47,9.38a8.93,8.93,0,0,0,.87-4,7.08,7.08,0,0,0-.63-3.21,3.51,3.51,0,0,0-3.41-1.95,3.35,3.35,0,0,0-3.13,1.66,7.78,7.78,0,0,0-1,4,6.76,6.76,0,0,0,1,3.76,3.42,3.42,0,0,0,3.1,1.5A3.23,3.23,0,0,0,34.45,401.07Z"/><path class="cls-1" d="M40.51,390.35h2.32v1.87a5.89,5.89,0,0,1,1.56-1.49,5,5,0,0,1,2.83-.79,5.32,5.32,0,0,1,4.09,1.84A7.54,7.54,0,0,1,53,397c0,3.08-.8,5.27-2.42,6.59A5.45,5.45,0,0,1,47,404.88a4.94,4.94,0,0,1-2.69-.7,6.43,6.43,0,0,1-1.41-1.36V410H40.51Zm8.93,11.06a6.56,6.56,0,0,0,1.11-4.16,7.89,7.89,0,0,0-.49-2.9,3.6,3.6,0,0,0-6.78.14,9.86,9.86,0,0,0-.49,3.34,7.25,7.25,0,0,0,.49,2.79,3.61,3.61,0,0,0,6.16.79Z"/><path class="cls-1" d="M55.53,390.35h2.32v1.87a5.74,5.74,0,0,1,1.56-1.49,5,5,0,0,1,2.83-.79,5.31,5.31,0,0,1,4.08,1.84A7.49,7.49,0,0,1,68,397c0,3.08-.81,5.27-2.42,6.59A5.49,5.49,0,0,1,62,404.88a4.9,4.9,0,0,1-2.68-.7,6.23,6.23,0,0,1-1.42-1.36V410H55.53Zm8.93,11.06a6.62,6.62,0,0,0,1.1-4.16,7.69,7.69,0,0,0-.49-2.9,3.59,3.59,0,0,0-6.77.14,9.62,9.62,0,0,0-.49,3.34,7.07,7.07,0,0,0,.49,2.79,3.61,3.61,0,0,0,6.16.79Z"/><path class="cls-1" d="M78.5,390.71a6.46,6.46,0,0,1,1.43,1.39V385h2.28V404.4H80.08v-2a5.15,5.15,0,0,1-2,1.88,5.55,5.55,0,0,1-2.59.58,5.25,5.25,0,0,1-4.07-2,7.79,7.79,0,0,1-1.72-5.28,9.12,9.12,0,0,1,1.57-5.35A5.13,5.13,0,0,1,75.79,390,5.07,5.07,0,0,1,78.5,390.71ZM73.2,401.3a3.36,3.36,0,0,0,3.07,1.53,3.22,3.22,0,0,0,2.7-1.42,6.73,6.73,0,0,0,1-4.06,6.09,6.09,0,0,0-1.08-4,3.42,3.42,0,0,0-2.69-1.28,3.57,3.57,0,0,0-2.9,1.37,6.36,6.36,0,0,0-1.1,4A7,7,0,0,0,73.2,401.3Z"/><path class="cls-1" d="M93.33,395.86a1.28,1.28,0,0,0,1.09-.69,2,2,0,0,0,.16-.91,2,2,0,0,0-.86-1.77,4.68,4.68,0,0,0-2.47-.55,3.12,3.12,0,0,0-2.63,1,3.33,3.33,0,0,0-.57,1.66H85.84A4.1,4.1,0,0,1,87.53,391a6.93,6.93,0,0,1,3.77-1,7.64,7.64,0,0,1,4,.95,3.22,3.22,0,0,1,1.54,2.95V402a1.07,1.07,0,0,0,.15.6c.1.15.31.22.64.22a2.24,2.24,0,0,0,.35,0l.43-.06v1.76a6.34,6.34,0,0,1-.85.19,5.54,5.54,0,0,1-.79,0,2,2,0,0,1-1.78-.87,3.37,3.37,0,0,1-.41-1.3,6.13,6.13,0,0,1-2.08,1.65,6.52,6.52,0,0,1-3,.7,4.43,4.43,0,0,1-3.21-1.2,3.92,3.92,0,0,1-1.25-3,3.83,3.83,0,0,1,1.23-3,5.84,5.84,0,0,1,3.21-1.33Zm-5,6.41a2.81,2.81,0,0,0,1.78.59,5.56,5.56,0,0,0,2.43-.58,3.27,3.27,0,0,0,2-3.15v-1.91a4.06,4.06,0,0,1-1.12.47,9.31,9.31,0,0,1-1.34.26l-1.43.18a5.78,5.78,0,0,0-1.94.54,2.12,2.12,0,0,0-1.1,2A2,2,0,0,0,88.33,402.27Z"/><path class="cls-1" d="M101.25,386.34h2.4v3.94h2.25v1.94h-2.25v9.21a1,1,0,0,0,.5,1,2,2,0,0,0,.92.15h.37l.46,0v1.88a4.57,4.57,0,0,1-.85.17,7,7,0,0,1-1,.06,2.58,2.58,0,0,1-2.26-.86,3.79,3.79,0,0,1-.59-2.2v-9.35H99.34v-1.94h1.91Z"/><path class="cls-1" d="M117,390.67a5.35,5.35,0,0,1,2.13,1.83,6.22,6.22,0,0,1,1,2.49,16.31,16.31,0,0,1,.21,3.11H110a6.08,6.08,0,0,0,1,3.45,3.36,3.36,0,0,0,2.92,1.31,3.74,3.74,0,0,0,2.94-1.23,4.35,4.35,0,0,0,.88-1.66h2.33a4.94,4.94,0,0,1-.61,1.73,6.36,6.36,0,0,1-1.17,1.57,5.51,5.51,0,0,1-2.65,1.42,8.09,8.09,0,0,1-1.93.21,5.91,5.91,0,0,1-4.44-1.92,7.51,7.51,0,0,1-1.82-5.37,8.09,8.09,0,0,1,1.84-5.52A6,6,0,0,1,114.1,390,6.4,6.4,0,0,1,117,390.67Zm.85,5.54a6.22,6.22,0,0,0-.67-2.46A3.41,3.41,0,0,0,114,392a3.59,3.59,0,0,0-2.72,1.18,4.48,4.48,0,0,0-1.16,3Z"/><path class="cls-1" d="M123.36,390.28h2.25v2.44A5.42,5.42,0,0,1,127,391a3.49,3.49,0,0,1,2.49-1l.23,0,.54,0v2.51l-.39-.06h-.39a3.4,3.4,0,0,0-2.76,1.15,4,4,0,0,0-1,2.66v8.12h-2.37Z"/><path class="cls-1" d="M132.76,386.34h2.4v3.94h2.25v1.94h-2.25v9.21a1,1,0,0,0,.5,1,2,2,0,0,0,.92.15H137l.46,0v1.88a4.57,4.57,0,0,1-.85.17,7,7,0,0,1-.95.06,2.58,2.58,0,0,1-2.26-.86,3.79,3.79,0,0,1-.59-2.2v-9.35h-1.91v-1.94h1.91Z"/></svg>