<svg id="Layer_1" data-name="Layer 1" xmlns="http://www.w3.org/2000/svg" viewBox="0 0 160 600"><defs><style>.cls-1{fill:#fff;}</style></defs><title>text</title><path class="cls-1" d="M40.31,277.86H34.08c-.51,0-.76-.2-.76-.6v-9.83c0-.41.25-.62.76-.62s.76.21.76.62v9h5.47c.34,0,.52.23.52.7S40.65,277.86,40.31,277.86Z"/><path class="cls-1" d="M48.67,276.4c.35,0,.53.21.53.63a.7.7,0,0,1-.53.77,13.36,13.36,0,0,1-2.76.2,4.7,4.7,0,0,1-2.78-.64,2.5,2.5,0,0,1-.85-2.11v-3.12A2.45,2.45,0,0,1,43,270a5.31,5.31,0,0,1,2.85-.53,5.38,5.38,0,0,1,2.82.51,2.48,2.48,0,0,1,.73,2.12v1.35a1,1,0,0,1-.23.65.75.75,0,0,1-.57.23H43.81v1c0,.84.73,1.26,2.18,1.25a11.75,11.75,0,0,0,1.66-.1A8.24,8.24,0,0,1,48.67,276.4Zm-4.86-4.26V273h4.1v-.87a1.06,1.06,0,0,0-.42-1,3.44,3.44,0,0,0-1.61-.26,3.75,3.75,0,0,0-1.63.24A1.07,1.07,0,0,0,43.81,272.14Z"/><path class="cls-1" d="M56.53,275.36v-.19a.64.64,0,0,0-.4-.59,3.75,3.75,0,0,0-1.39-.18,8.24,8.24,0,0,1-2.19-.31,1.78,1.78,0,0,1-1-.67,2.22,2.22,0,0,1-.39-1.36v-.14A2,2,0,0,1,52,270a5.35,5.35,0,0,1,2.61-.5,10.85,10.85,0,0,1,2.59.23.68.68,0,0,1,.52.76c0,.42-.18.63-.52.63a10.43,10.43,0,0,1-1.07-.11,11.61,11.61,0,0,0-1.71-.11,4.24,4.24,0,0,0-1.32.15c-.29.1-.43.37-.43.83v.16c0,.6.63.93,1.9,1,.52,0,1.05.07,1.58.14a2.32,2.32,0,0,1,1.34.59,1.71,1.71,0,0,1,.55,1.42v.2a2.29,2.29,0,0,1-.86,2.09,5.42,5.42,0,0,1-2.78.55,12.38,12.38,0,0,1-2.75-.22.68.68,0,0,1-.52-.76c0-.42.17-.64.52-.64s.61,0,1.21.11a14.78,14.78,0,0,0,1.74.11,3.54,3.54,0,0,0,1.38-.23A1,1,0,0,0,56.53,275.36Z"/><path class="cls-1" d="M65.77,267.09v2.63a11.17,11.17,0,0,1,2.13-.22,8.94,8.94,0,0,1,1.61.11,1.93,1.93,0,0,1,1.69,1.54,9,9,0,0,1,.15,1.85v4.26c0,.4-.25.6-.76.6s-.77-.2-.77-.6v-4.1a10.45,10.45,0,0,0-.06-1.29,1,1,0,0,0-.35-.67,1.25,1.25,0,0,0-.6-.27,9.08,9.08,0,0,0-1.08,0,15.08,15.08,0,0,0-2,.17v6.2c0,.4-.25.6-.76.6s-.76-.2-.76-.6V267.09c0-.41.26-.62.76-.62S65.77,266.68,65.77,267.09Z"/><path class="cls-1" d="M77.11,278a1.33,1.33,0,0,1-.81-.28,1.55,1.55,0,0,1-.52-.69l-2.4-6.48-.06-.27c0-.4.24-.6.74-.59a.7.7,0,0,1,.74.44l2.28,6.39h.08l2.28-6.39c.11-.3.39-.44.83-.44s.65.19.65.59a2,2,0,0,1,0,.27L78.46,277a1.4,1.4,0,0,1-.52.7A1.35,1.35,0,0,1,77.11,278Z"/><path class="cls-1" d="M83.33,271.11c-.36,0-.53-.21-.53-.63a.68.68,0,0,1,.53-.76,11.79,11.79,0,0,1,2.75-.22,4,4,0,0,1,2.61.61,2.76,2.76,0,0,1,.69,2.14v3.28c0,1-.25,1.69-.75,2a6,6,0,0,1-2.86.47,5.78,5.78,0,0,1-2.83-.47c-.48-.31-.72-1-.72-2a3,3,0,0,1,.55-2.1,3.14,3.14,0,0,1,2.26-.57h2.82V272a.94.94,0,0,0-.39-.87,2.92,2.92,0,0,0-1.38-.23,11,11,0,0,0-1.74.12A6.52,6.52,0,0,1,83.33,271.11Zm4.52,4.54v-1.44H85.49a2.87,2.87,0,0,0-1.42.22c-.22.14-.33.47-.33,1s.14.84.41,1a4.14,4.14,0,0,0,1.62.21,4.88,4.88,0,0,0,1.64-.18A.75.75,0,0,0,87.85,275.65Z"/><path class="cls-1" d="M98.92,278a1.33,1.33,0,0,1-.82-.28,1.53,1.53,0,0,1-.51-.69l-2.41-6.48a1.37,1.37,0,0,0-.06-.27c0-.4.25-.6.74-.59a.7.7,0,0,1,.75.44l2.27,6.39H99l2.28-6.39c.11-.3.38-.44.82-.44s.66.19.66.59l0,.27L100.26,277a1.44,1.44,0,0,1-.51.7A1.37,1.37,0,0,1,98.92,278Z"/><path class="cls-1" d="M105.12,271.11c-.36,0-.53-.21-.53-.63a.68.68,0,0,1,.53-.76,11.79,11.79,0,0,1,2.75-.22,4,4,0,0,1,2.61.61,2.76,2.76,0,0,1,.69,2.14v3.28c0,1-.25,1.69-.75,2a6,6,0,0,1-2.87.47,5.7,5.7,0,0,1-2.82-.47,2.25,2.25,0,0,1-.71-2,3.08,3.08,0,0,1,.55-2.1,3.14,3.14,0,0,1,2.26-.57h2.81V272a.94.94,0,0,0-.39-.87,2.92,2.92,0,0,0-1.38-.23,11,11,0,0,0-1.74.12A6.52,6.52,0,0,1,105.12,271.11Zm4.52,4.54v-1.44h-2.35a2.9,2.9,0,0,0-1.42.22c-.21.14-.32.47-.32,1s.13.84.4,1a4.14,4.14,0,0,0,1.62.21,4.92,4.92,0,0,0,1.64-.18A.76.76,0,0,0,109.64,275.65Zm-3-7a1.5,1.5,0,0,1-.46-1.12,1.54,1.54,0,0,1,.46-1.12,1.5,1.5,0,0,1,1.12-.46,1.48,1.48,0,0,1,1.11.46,1.53,1.53,0,0,1,.47,1.12,1.59,1.59,0,0,1-1.58,1.58A1.49,1.49,0,0,1,106.68,268.63Zm.44-1.12a.67.67,0,0,0,.68.68.62.62,0,0,0,.48-.2.7.7,0,0,0,.2-.49.69.69,0,0,0-1.17-.48A.63.63,0,0,0,107.12,267.51Z"/><path class="cls-1" d="M115.06,273v4.23c0,.4-.25.6-.76.6s-.76-.2-.76-.6v-4.43a5.25,5.25,0,0,1,.27-2.11,3.11,3.11,0,0,1,.5-.73,7.86,7.86,0,0,1,4.21-.35.55.55,0,0,1,.38.54.77.77,0,0,1-.21.59.66.66,0,0,1-.52.19l-1.12-.07a5,5,0,0,0-1.31.1,1.45,1.45,0,0,0-.38.19,1.84,1.84,0,0,0-.18.39,2,2,0,0,0-.11.59C115.07,272.37,115.06,272.66,115.06,273Z"/><path class="cls-1" d="M126.52,276.4c.35,0,.52.21.52.63a.69.69,0,0,1-.52.77,13.48,13.48,0,0,1-2.77.2,4.72,4.72,0,0,1-2.78-.64,2.46,2.46,0,0,1-.84-2.11v-3.12a2.42,2.42,0,0,1,.76-2.1,8,8,0,0,1,5.66,0,2.45,2.45,0,0,1,.73,2.12v1.35a.94.94,0,0,1-.22.65.78.78,0,0,1-.58.23h-4.83v1c0,.84.73,1.26,2.19,1.25a11.84,11.84,0,0,0,1.66-.1A7.92,7.92,0,0,1,126.52,276.4Zm-4.87-4.26V273h4.1v-.87a1.06,1.06,0,0,0-.41-1,3.46,3.46,0,0,0-1.62-.26,3.75,3.75,0,0,0-1.63.24A1.11,1.11,0,0,0,121.65,272.14Z"/><path class="cls-1" d="M10.16,287.49v6.56L14,290.2a.79.79,0,0,1,.57-.26.73.73,0,0,1,.53.22.67.67,0,0,1,.22.5.78.78,0,0,1-.28.56l-2.19,2L15.52,297a.88.88,0,0,1,.16.51.63.63,0,0,1-.24.5.8.8,0,0,1-.56.23.56.56,0,0,1-.5-.28l-2.66-3.71-1.56,1.44v1.93c0,.4-.25.6-.76.6s-.76-.2-.77-.6V287.49c0-.41.27-.62.77-.62S10.16,287.08,10.16,287.49Z"/><path class="cls-1" d="M19.74,297h1.58a1.69,1.69,0,0,0,.53-.09.89.89,0,0,0,.43-.26,1,1,0,0,0,.18-.68c0-.34,0-.7,0-1.09v-4.24c0-.4.25-.6.76-.6s.77.2.77.6v4.44a9.41,9.41,0,0,1-.14,1.83,1.62,1.62,0,0,1-.59,1,2.09,2.09,0,0,1-1,.42,12.14,12.14,0,0,1-1.73.09,12.3,12.3,0,0,1-1.74-.09,2.09,2.09,0,0,1-1-.42,1.6,1.6,0,0,1-.58-1,11.32,11.32,0,0,1-.14-1.83v-4.44c0-.4.26-.6.77-.6s.76.2.76.6v4.24a3.58,3.58,0,0,0,.27,1.85,1,1,0,0,0,.36.18A1.7,1.7,0,0,0,19.74,297Z"/><path class="cls-1" d="M28.2,291.58a3.36,3.36,0,0,0-.28,1.84v4.24c0,.4-.26.6-.76.6s-.76-.2-.77-.6v-4.43a8.51,8.51,0,0,1,.15-1.82,1.58,1.58,0,0,1,.6-1,2.13,2.13,0,0,1,1-.42,14,14,0,0,1,1.89-.09c1.43,0,2.33.16,2.7.52a2.19,2.19,0,0,1,.67,1.49,12.23,12.23,0,0,1,.06,1.32v4.43c0,.4-.26.6-.77.6s-.76-.2-.76-.6v-4.24a3.33,3.33,0,0,0-.29-1.83,3,3,0,0,0-1.75-.3A3,3,0,0,0,28.2,291.58Z"/><path class="cls-1" d="M43.32,287.49v6.73a10.39,10.39,0,0,1-.18,2.17,2.39,2.39,0,0,1-.67,1.27,2.51,2.51,0,0,1-1.13.59,8.15,8.15,0,0,1-1.76.15,8.35,8.35,0,0,1-1.78-.15,2.39,2.39,0,0,1-1.15-.59,2.29,2.29,0,0,1-.67-1.27,12,12,0,0,1-.18-2.17A10.68,10.68,0,0,1,36,292a2.38,2.38,0,0,1,1.81-2,8.77,8.77,0,0,1,2-.16,5.17,5.17,0,0,1,2,.33v-2.74c0-.41.25-.62.76-.62S43.32,287.08,43.32,287.49Zm-5.81,4.78a4.45,4.45,0,0,0-.18,1.52c0,.73,0,1.3.06,1.73a2.08,2.08,0,0,0,.43,1.12c.14.2.47.31,1,.34.17,0,.42,0,.77,0,1,0,1.58-.12,1.75-.36a2.19,2.19,0,0,0,.44-1.13c0-.41.06-.84.06-1.28a4.49,4.49,0,0,0-.37-2.4c-.11-.13-.21-.23-.29-.31a2.1,2.1,0,0,0-1.2-.23c-.61,0-1,0-1.17,0a1.27,1.27,0,0,0-1,.35A4.11,4.11,0,0,0,37.51,292.27Z"/><path class="cls-1" d="M52,296.8c.35,0,.52.21.52.63a.69.69,0,0,1-.52.77,13.48,13.48,0,0,1-2.77.2,4.72,4.72,0,0,1-2.78-.64,2.46,2.46,0,0,1-.84-2.11v-3.12a2.42,2.42,0,0,1,.76-2.1,5.31,5.31,0,0,1,2.85-.53,5.31,5.31,0,0,1,2.81.51,2.45,2.45,0,0,1,.73,2.12v1.35a.94.94,0,0,1-.22.65.78.78,0,0,1-.58.23H47.08v1c0,.84.73,1.26,2.19,1.25a11.84,11.84,0,0,0,1.66-.1A7.92,7.92,0,0,1,52,296.8Zm-4.87-4.26v.87h4.1v-.87a1.06,1.06,0,0,0-.41-1,3.46,3.46,0,0,0-1.62-.26,3.75,3.75,0,0,0-1.63.24A1.11,1.11,0,0,0,47.08,292.54Z"/><path class="cls-1" d="M56.53,293.43v4.23c0,.4-.25.6-.76.6s-.76-.2-.77-.6v-4.43a5,5,0,0,1,.28-2.11,3.11,3.11,0,0,1,.5-.73,4.67,4.67,0,0,1,2.73-.49A4.79,4.79,0,0,1,60,290a.55.55,0,0,1,.38.54.77.77,0,0,1-.21.59.68.68,0,0,1-.53.19l-1.12-.07a4.89,4.89,0,0,0-1.3.1,1.3,1.3,0,0,0-.38.19,1.19,1.19,0,0,0-.18.39,1.67,1.67,0,0,0-.11.59C56.53,292.77,56.53,293.06,56.53,293.43Z"/><path class="cls-1" d="M70.87,295.76v-.19a.63.63,0,0,0-.39-.59,3.75,3.75,0,0,0-1.39-.18,8.24,8.24,0,0,1-2.19-.31,1.78,1.78,0,0,1-1-.67,2.22,2.22,0,0,1-.4-1.36v-.14a2,2,0,0,1,.86-1.91,5.34,5.34,0,0,1,2.6-.5,10.74,10.74,0,0,1,2.59.23.68.68,0,0,1,.53.76c0,.42-.18.63-.53.63a10.7,10.7,0,0,1-1.07-.11,11.47,11.47,0,0,0-1.7-.11,4.36,4.36,0,0,0-1.33.15c-.28.1-.42.37-.42.83v.16c0,.6.63.93,1.89,1,.53,0,1.06.07,1.59.14a2.32,2.32,0,0,1,1.34.59,1.74,1.74,0,0,1,.55,1.42v.2a2.31,2.31,0,0,1-.86,2.09,5.42,5.42,0,0,1-2.78.55,12.38,12.38,0,0,1-2.75-.22.68.68,0,0,1-.52-.76c0-.42.17-.64.52-.64.2,0,.61,0,1.2.11A15.09,15.09,0,0,0,69,297a3.54,3.54,0,0,0,1.38-.23A1,1,0,0,0,70.87,295.76Z"/><path class="cls-1" d="M74.59,288.06a.83.83,0,0,1,.25-.59.89.89,0,0,1,.58-.26.79.79,0,0,1,.59.26.88.88,0,0,1,.24.6.79.79,0,0,1-.25.58.77.77,0,0,1-.58.25.81.81,0,0,1-.59-.25A.82.82,0,0,1,74.59,288.06Zm1.6,2.57v7c0,.4-.26.6-.77.6s-.76-.2-.76-.6v-7c0-.4.25-.6.76-.6S76.19,290.23,76.19,290.63Z"/><path class="cls-1" d="M85,296.8c.35,0,.52.21.52.63a.69.69,0,0,1-.52.77,13.48,13.48,0,0,1-2.77.2,4.72,4.72,0,0,1-2.78-.64,2.46,2.46,0,0,1-.84-2.11v-3.12a2.42,2.42,0,0,1,.76-2.1,5.31,5.31,0,0,1,2.85-.53,5.31,5.31,0,0,1,2.81.51,2.45,2.45,0,0,1,.73,2.12v1.35a.94.94,0,0,1-.22.65.78.78,0,0,1-.58.23H80.15v1c0,.84.73,1.26,2.19,1.25a11.84,11.84,0,0,0,1.66-.1A7.92,7.92,0,0,1,85,296.8Zm-4.87-4.26v.87h4.1v-.87a1.06,1.06,0,0,0-.41-1,3.46,3.46,0,0,0-1.62-.26,3.75,3.75,0,0,0-1.63.24A1.11,1.11,0,0,0,80.15,292.54Z"/><path class="cls-1" d="M89.6,293.43v4.23c0,.4-.25.6-.76.6s-.76-.2-.77-.6v-4.43a5,5,0,0,1,.28-2.11,3.11,3.11,0,0,1,.5-.73,4.67,4.67,0,0,1,2.73-.49,4.79,4.79,0,0,1,1.48.14.55.55,0,0,1,.38.54.77.77,0,0,1-.21.59.68.68,0,0,1-.52.19l-1.13-.07a4.89,4.89,0,0,0-1.3.1,1.3,1.3,0,0,0-.38.19,1.19,1.19,0,0,0-.18.39,1.67,1.67,0,0,0-.11.59C89.6,292.77,89.6,293.06,89.6,293.43Z"/><path class="cls-1" d="M98.74,294.22a10,10,0,0,1,.19-2.2,2.37,2.37,0,0,1,1.8-2,10,10,0,0,1,3.56,0,2.45,2.45,0,0,1,1.15.65,2.64,2.64,0,0,1,.67,1.3,10.85,10.85,0,0,1,.18,2.2,10.67,10.67,0,0,1-.18,2.19,2.34,2.34,0,0,1-.68,1.26,2.6,2.6,0,0,1-1.14.59,10.64,10.64,0,0,1-3.56,0,2.41,2.41,0,0,1-1.14-.59,2.23,2.23,0,0,1-.67-1.27A10.39,10.39,0,0,1,98.74,294.22Zm1.71-2a4.45,4.45,0,0,0-.18,1.52c0,.73,0,1.3.06,1.73a2,2,0,0,0,.43,1.12c.14.2.47.31,1,.34.17,0,.42,0,.76,0,1,0,1.58-.12,1.76-.36a2.28,2.28,0,0,0,.44-1.13c0-.41.06-.84.06-1.28a4.45,4.45,0,0,0-.38-2.4,2.23,2.23,0,0,0-.29-.31,2.06,2.06,0,0,0-1.19-.23c-.61,0-1,0-1.17,0-.52,0-.85.15-1,.35A3.32,3.32,0,0,0,100.45,292.27Z"/><path class="cls-1" d="M117,291.29q-.69,0-1,0a1,1,0,0,0-.53.25.91.91,0,0,0-.28.57c0,.23,0,.59,0,1.08v4.44c0,.4-.25.6-.76.6s-.77-.2-.77-.6V293q0-1.19-.3-1.44a2.08,2.08,0,0,0-1.28-.27c-.64,0-1.06,0-1.25,0a.89.89,0,0,0-.53.28,1.09,1.09,0,0,0-.25.61c0,.25,0,.65,0,1.21v4.24c0,.4-.25.6-.76.6s-.76-.2-.77-.6v-4.43a5.54,5.54,0,0,1,.39-2.45,1.87,1.87,0,0,1,1.61-.83c.31,0,.76-.05,1.36-.05a4.64,4.64,0,0,1,2.58.47,4.69,4.69,0,0,1,2.58-.47c.58,0,1,0,1.35,0a1.93,1.93,0,0,1,1.59.79,5.74,5.74,0,0,1,.41,2.5v4.43c0,.4-.25.6-.76.6s-.76-.2-.76-.6v-4.24a11.15,11.15,0,0,0,0-1.21,1,1,0,0,0-.25-.61.84.84,0,0,0-.52-.28Q117.72,291.29,117,291.29Z"/><path class="cls-1" d="M126.75,294.22a10.78,10.78,0,0,1,.18-2.2,2.38,2.38,0,0,1,1.81-2,9.93,9.93,0,0,1,3.55,0,2.4,2.4,0,0,1,1.15.65,2.65,2.65,0,0,1,.68,1.3,10.85,10.85,0,0,1,.18,2.2,10.67,10.67,0,0,1-.18,2.19,2.35,2.35,0,0,1-.69,1.26,2.49,2.49,0,0,1-1.14.59,8.25,8.25,0,0,1-1.77.15,8.35,8.35,0,0,1-1.78-.15,2.44,2.44,0,0,1-1.15-.59,2.22,2.22,0,0,1-.66-1.27A10.39,10.39,0,0,1,126.75,294.22Zm1.71-2a4.15,4.15,0,0,0-.19,1.52c0,.73,0,1.3.06,1.73a2.08,2.08,0,0,0,.43,1.12,1.33,1.33,0,0,0,1,.34,7.55,7.55,0,0,0,.76,0c1,0,1.58-.12,1.76-.36a2.27,2.27,0,0,0,.43-1.13c0-.41.06-.84.06-1.28a4.49,4.49,0,0,0-.37-2.4,3.05,3.05,0,0,0-.29-.31,2.06,2.06,0,0,0-1.19-.23c-.62,0-1,0-1.17,0a1.28,1.28,0,0,0-1,.35A4.3,4.3,0,0,0,128.46,292.27Z"/><path class="cls-1" d="M141.64,295.76v-.19a.64.64,0,0,0-.4-.59,3.75,3.75,0,0,0-1.39-.18,8.24,8.24,0,0,1-2.19-.31,1.72,1.72,0,0,1-1-.67,2.16,2.16,0,0,1-.4-1.36v-.14a2,2,0,0,1,.85-1.91,5.35,5.35,0,0,1,2.61-.5,10.8,10.8,0,0,1,2.59.23.68.68,0,0,1,.52.76c0,.42-.17.63-.52.63a10.7,10.7,0,0,1-1.07-.11,11.47,11.47,0,0,0-1.7-.11,4.27,4.27,0,0,0-1.33.15c-.28.1-.43.37-.43.83v.16c0,.6.64.93,1.9,1,.52,0,1.05.07,1.58.14a2.38,2.38,0,0,1,1.35.59,1.77,1.77,0,0,1,.55,1.42v.2a2.29,2.29,0,0,1-.87,2.09,5.4,5.4,0,0,1-2.78.55,12.44,12.44,0,0,1-2.75-.22.68.68,0,0,1-.52-.76c0-.42.17-.64.52-.64s.61,0,1.21.11a15.05,15.05,0,0,0,1.74.11,3.63,3.63,0,0,0,1.39-.23A1,1,0,0,0,141.64,295.76Z"/><path class="cls-1" d="M150.08,295.76v-.19a.63.63,0,0,0-.4-.59,3.72,3.72,0,0,0-1.39-.18,8.35,8.35,0,0,1-2.19-.31,1.75,1.75,0,0,1-1-.67,2.16,2.16,0,0,1-.4-1.36v-.14a2,2,0,0,1,.85-1.91,5.35,5.35,0,0,1,2.61-.5,10.8,10.8,0,0,1,2.59.23.68.68,0,0,1,.52.76c0,.42-.17.63-.52.63a10.7,10.7,0,0,1-1.07-.11,11.47,11.47,0,0,0-1.7-.11,4.27,4.27,0,0,0-1.33.15c-.28.1-.42.37-.42.83v.16c0,.6.63.93,1.89,1,.53,0,1.05.07,1.58.14a2.35,2.35,0,0,1,1.35.59,1.77,1.77,0,0,1,.55,1.42v.2a2.29,2.29,0,0,1-.87,2.09,5.4,5.4,0,0,1-2.78.55,12.28,12.28,0,0,1-2.74-.22.69.69,0,0,1-.53-.76c0-.42.18-.64.53-.64.2,0,.6,0,1.2.11a15.05,15.05,0,0,0,1.74.11,3.63,3.63,0,0,0,1.39-.23A1,1,0,0,0,150.08,295.76Z"/></svg>