<svg id="Layer_1" data-name="Layer 1" xmlns="http://www.w3.org/2000/svg" viewBox="0 0 300 600"><defs><style>.cls-1{fill:#d5ad77;}</style></defs><title>text</title><path class="cls-1" d="M128,86.48H115.15v8.91h14.13v5.8H108.63V66.41h20.25v5.8H115.15v8.46H128Z"/><path class="cls-1" d="M139.86,101.19V66.41h13.61a11.72,11.72,0,0,1,8.38,3.16,10.81,10.81,0,0,1,3.34,8.25,10.48,10.48,0,0,1-2.49,7.05,11.19,11.19,0,0,1-6.49,3.7l9.34,12.62h-7.33l-9-12.42h-2.81v12.42Zm12.6-29h-6.08V83.55h6.08A6.42,6.42,0,0,0,157,82a5.18,5.18,0,0,0,1.69-4,5.48,5.48,0,0,0-1.73-4.12A6.2,6.2,0,0,0,152.46,72.21Z"/><path class="cls-1" d="M171.9,72.66V66.41h28.66v6.25H189.49v28.53H183V72.66Z"/><path class="cls-1" d="M102.22,155.19V120.41h6.52v28.53h12.78v6.25Z"/><path class="cls-1" d="M130.93,155.19V120.41h6.52v34.78Z"/><path class="cls-1" d="M158.85,155.19l-13.3-34.78h6.8l9.55,25,9.44-25h6.6l-13.17,34.78Z"/><path class="cls-1" d="M194.08,155.64a16.64,16.64,0,0,1-6.56-1.37,17,17,0,0,1-5.63-3.8l4.14-5a12.57,12.57,0,0,0,3.83,3.11,9.83,9.83,0,0,0,4.58,1.22,5.61,5.61,0,0,0,3.71-1.2,3.7,3.7,0,0,0,1.45-3q0-3.24-3.82-4.83l-3.88-1.55a14.87,14.87,0,0,1-5.78-3.83,8.86,8.86,0,0,1-1.87-5.92,9,9,0,0,1,2.95-6.6,10.1,10.1,0,0,1,7.38-2.91,15,15,0,0,1,10.71,4l-3.84,4.85a9,9,0,0,0-6.87-3,4.62,4.62,0,0,0-3.12,1,3.07,3.07,0,0,0-1.18,2.45,3.27,3.27,0,0,0,.92,2.39,9.32,9.32,0,0,0,3,1.79l4.05,1.62q7.74,3.1,7.88,10a9.76,9.76,0,0,1-3.27,7.62A12.68,12.68,0,0,1,194.08,155.64Z"/><path class="cls-1" d="M98.24,209.19l-13.3-34.78h6.79l9.56,25,9.43-25h6.6l-13.17,34.78Z"/><path class="cls-1" d="M144.92,194.48H132.05v8.91h14.13v5.8H125.53V174.41h20.25v5.8H132.05v8.46h12.87Z"/><path class="cls-1" d="M156.76,209.19V174.41h13.61a11.74,11.74,0,0,1,8.38,3.16,10.81,10.81,0,0,1,3.34,8.25,10.48,10.48,0,0,1-2.49,7.05,11.19,11.19,0,0,1-6.49,3.7l9.34,12.62h-7.33l-9-12.42h-2.81v12.42Zm12.6-29h-6.08v11.34h6.08a6.44,6.44,0,0,0,4.52-1.54,5.22,5.22,0,0,0,1.69-4,5.45,5.45,0,0,0-1.74-4.12A6.21,6.21,0,0,0,169.36,180.21Z"/><path class="cls-1" d="M192.26,209.19V174.41h6v15.33l13.32-15.33h8.06l-12.28,13.88,12.55,20.9h-7.52L203,193.31l-4.66,5.27v10.61Z"/></svg>