<svg id="Layer_1" data-name="Layer 1" xmlns="http://www.w3.org/2000/svg" viewBox="0 0 160 600"><defs><style>.cls-1{fill:#fff;}</style></defs><title>text</title><path class="cls-1" d="M13.32,23.25l2.35,4.19H14.13l-2.37-4.23L15.14,19h1.68Zm3.77,0,2.35,4.19H17.9l-2.39-4.23L18.91,19h1.68Z"/><path class="cls-1" d="M30.13,13.5,27.19,29H25.28l2.95-15.5Z"/><path class="cls-1" d="M30.6,29l1.49-7.89c.25-1.24.39-2.32.53-3.24h1.7L34,20.06h.05a4.85,4.85,0,0,1,4.12-2.44c1.33,0,2.82.76,2.82,3.1a11.36,11.36,0,0,1-.2,1.8L39.59,29H37.68l1.22-6.42a7.35,7.35,0,0,0,.16-1.42c0-1.13-.44-2-1.75-2S34,20.84,33.52,23.6l-1,5.4Z"/><path class="cls-1" d="M42.88,29l1.49-7.89c.26-1.24.39-2.32.53-3.24h1.7l-.27,2.19h0a4.87,4.87,0,0,1,4.12-2.44c1.33,0,2.83.76,2.83,3.1a10.39,10.39,0,0,1-.21,1.8L51.87,29H50l1.22-6.42a7.35,7.35,0,0,0,.16-1.42c0-1.13-.44-2-1.75-2s-3.29,1.64-3.79,4.4l-1,5.4Z"/><path class="cls-1" d="M65.83,22.26c0,3.43-2.44,7-6.16,7a4.25,4.25,0,0,1-4.35-4.57c0-3.66,2.55-7.06,6.16-7.06C64.5,17.62,65.83,19.89,65.83,22.26ZM57.3,24.61c0,1.81,1,3.13,2.62,3.13,2.25,0,3.95-2.9,3.95-5.5,0-1.29-.59-3.1-2.59-3.1C58.88,19.14,57.27,22.06,57.3,24.61Z"/><path class="cls-1" d="M67.44,29l1.82-9.63H67.79l.27-1.5h1.5l.11-.57a6.49,6.49,0,0,1,1.82-3.89,4,4,0,0,1,2.64-1,3,3,0,0,1,1.52.3l-.41,1.52A2.71,2.71,0,0,0,74.11,14c-1.52,0-2.25,1.47-2.58,3.31l-.09.53h2.49l-.3,1.5H71.17L69.33,29Z"/><path class="cls-1" d="M80.89,29a28.35,28.35,0,0,1,.26-2.87H81.1c-1.22,2.3-2.74,3.12-4.32,3.12-2,0-3.2-1.56-3.2-3.68a7.77,7.77,0,0,1,7.71-7.95,10.42,10.42,0,0,1,3,.43l-1.12,5.8A25,25,0,0,0,82.67,29Zm1.25-9.7a5.16,5.16,0,0,0-1.34-.16c-2.87,0-5.22,3-5.24,6.09,0,1.24.44,2.46,1.91,2.46s3.47-2.07,4-5Z"/><path class="cls-1" d="M93.18,28.56a7.66,7.66,0,0,1-3.22.67,4,4,0,0,1-4.28-4.3,7,7,0,0,1,6.81-7.29,5.78,5.78,0,0,1,2.32.48l-.55,1.52a4.31,4.31,0,0,0-1.89-.41c-2.9,0-4.71,2.85-4.71,5.47,0,1.79.94,3,2.76,3A5.92,5.92,0,0,0,93,27.05Z"/><path class="cls-1" d="M100.38,14.88l-.58,3h2.67l-.3,1.5H99.5l-1,5.4a9.29,9.29,0,0,0-.21,1.79.94.94,0,0,0,1.06,1.06,4.8,4.8,0,0,0,.89-.07l-.09,1.5a4.66,4.66,0,0,1-1.47.2,2.07,2.07,0,0,1-2.35-2.16A10.4,10.4,0,0,1,96.53,25l1.11-5.63H96l.3-1.5h1.58l.49-2.51Z"/><path class="cls-1" d="M113.16,22.26c0,3.43-2.44,7-6.16,7a4.25,4.25,0,0,1-4.35-4.57c0-3.66,2.56-7.06,6.17-7.06C111.83,17.62,113.16,19.89,113.16,22.26Zm-8.53,2.35c0,1.81,1,3.13,2.62,3.13,2.26,0,4-2.9,4-5.5,0-1.29-.6-3.1-2.6-3.1C106.22,19.14,104.61,22.06,104.63,24.61Z"/><path class="cls-1" d="M114.5,29l1.35-7.17c.28-1.45.46-2.92.58-4h1.68c-.09.78-.19,1.56-.3,2.41h.07a4,4,0,0,1,3.4-2.66,4.39,4.39,0,0,1,.53,0l-.37,1.89a2.87,2.87,0,0,0-.5-.05c-1.66,0-3.13,2-3.61,4.6l-.92,4.9Z"/><path class="cls-1" d="M121.9,27.07a5.12,5.12,0,0,0,2.4.69,1.92,1.92,0,0,0,2.11-1.82c0-.87-.39-1.4-1.54-2a3.34,3.34,0,0,1-2-2.83c0-2,1.68-3.45,4-3.45a4.61,4.61,0,0,1,2.33.55l-.53,1.45a4,4,0,0,0-1.93-.51,1.79,1.79,0,0,0-2,1.68c0,.81.53,1.31,1.52,1.86a3.51,3.51,0,0,1,2.09,2.92c0,2.35-1.91,3.66-4.26,3.66a4.85,4.85,0,0,1-2.75-.76Z"/><path class="cls-1" d="M22.43,56.09a10.06,10.06,0,0,1-4,.74c-3.9,0-6.27-2.46-6.27-6.42a9.64,9.64,0,0,1,3.31-7.47,8.74,8.74,0,0,1,5.84-2.09,6.28,6.28,0,0,1,3.36.76L24,43.15A6.33,6.33,0,0,0,21,42.5a6.57,6.57,0,0,0-4.44,1.75,8.14,8.14,0,0,0-2.37,5.89c0,2.78,1.27,5.06,4.71,5.06a7.8,7.8,0,0,0,3.32-.67Z"/><path class="cls-1" d="M24.43,56.6l3.11-16.33h1.9L26.32,56.6Z"/><path class="cls-1" d="M40.35,49.86c0,3.43-2.44,7-6.17,7a4.24,4.24,0,0,1-4.34-4.57c0-3.66,2.55-7.06,6.16-7.06C39,45.22,40.35,47.49,40.35,49.86Zm-8.54,2.35c0,1.81,1,3.13,2.63,3.13,2.25,0,4-2.9,4-5.5,0-1.29-.6-3.1-2.6-3.1C33.4,46.74,31.79,49.66,31.81,52.21Z"/><path class="cls-1" d="M52.53,45.47,51,53.36c-.23,1.24-.39,2.32-.51,3.24H48.81l.3-2.09h0a4.94,4.94,0,0,1-3.93,2.34c-1.43,0-2.92-.69-2.92-3.22a10,10,0,0,1,.21-1.86l1.19-6.3h1.91l-1.17,6.21a7.43,7.43,0,0,0-.21,1.63c0,1.15.48,1.93,1.8,1.93s3.15-1.61,3.61-4.07l1.08-5.7Z"/><path class="cls-1" d="M65.62,40.27,63.18,53.08a28.24,28.24,0,0,0-.48,3.52H61l.3-2.21h0a4.76,4.76,0,0,1-4,2.46c-2.17,0-3.34-1.77-3.34-4,0-4,2.94-7.59,6.88-7.59a5,5,0,0,1,2,.39l1-5.34Zm-3.2,6.95a3.48,3.48,0,0,0-1.84-.46c-2.66,0-4.73,2.83-4.73,5.79,0,1.34.46,2.74,2.09,2.74,1.47,0,3.24-1.68,3.73-4.19Z"/><path class="cls-1" d="M69.1,54.83a5,5,0,0,0,2,.32c1.63,0,2.65-.85,3.17-3.59l2-10.46h1.91l-2,10.67c-.69,3.63-2.21,5.08-5.11,5.08a6.38,6.38,0,0,1-2.3-.39Z"/><path class="cls-1" d="M89.15,49.86c0,3.43-2.44,7-6.16,7a4.25,4.25,0,0,1-4.35-4.57c0-3.66,2.55-7.06,6.16-7.06C87.82,45.22,89.15,47.49,89.15,49.86Zm-8.53,2.35c0,1.81,1,3.13,2.62,3.13,2.25,0,4-2.9,4-5.5,0-1.29-.6-3.1-2.6-3.1C82.21,46.74,80.6,49.66,80.62,52.21Z"/><path class="cls-1" d="M101.34,45.47l-1.49,7.89q-.34,1.86-.51,3.24H97.61l.3-2.09h0a4.94,4.94,0,0,1-3.93,2.34c-1.43,0-2.92-.69-2.92-3.22a9.93,9.93,0,0,1,.2-1.86l1.2-6.3h1.91l-1.18,6.21a8,8,0,0,0-.2,1.63c0,1.15.48,1.93,1.79,1.93s3.15-1.61,3.61-4.07l1.08-5.7Z"/><path class="cls-1" d="M102.58,56.6l1.36-7.17c.28-1.45.46-2.92.58-4h1.67c-.09.78-.18,1.56-.29,2.41H106c.72-1.51,1.91-2.66,3.41-2.66a4.39,4.39,0,0,1,.53,0l-.37,1.89a3,3,0,0,0-.51,0c-1.65,0-3.12,2-3.61,4.6l-.92,4.9Z"/><path class="cls-1" d="M109.9,56.6l1.49-7.89c.26-1.24.39-2.32.53-3.24h1.7l-.27,2.19h0a4.87,4.87,0,0,1,4.12-2.44c1.33,0,2.83.76,2.83,3.1a10.39,10.39,0,0,1-.21,1.8l-1.24,6.48H117l1.22-6.42a7.35,7.35,0,0,0,.16-1.42c0-1.13-.44-2-1.75-2s-3.29,1.64-3.79,4.4l-1,5.4Z"/><path class="cls-1" d="M130.2,56a7.66,7.66,0,0,1-3.67.87c-3,0-4.24-2-4.24-4.46,0-3.36,2.49-7.15,6.08-7.15,2.11,0,3.26,1.26,3.26,2.85,0,2.92-3.29,3.7-7.4,3.63a4.43,4.43,0,0,0,.23,2.12,2.52,2.52,0,0,0,2.48,1.49,6.19,6.19,0,0,0,3-.78Zm-2.11-9.25c-1.82,0-3.17,1.77-3.63,3.52,3,0,5.33-.37,5.33-2.09C129.79,47.22,129.1,46.71,128.09,46.71Z"/><path class="cls-1" d="M135,45.47l1.1,6c.25,1.27.39,2.09.51,2.92h0c.3-.71.62-1.49,1.2-2.71l2.83-6.21h2l-4.16,8.46a20.91,20.91,0,0,1-3.84,5.84,7,7,0,0,1-3.25,1.94L131,60.07A7.19,7.19,0,0,0,133.08,59a8.53,8.53,0,0,0,2.14-2.55.82.82,0,0,0,.07-.51l-2.23-10.46Z"/><path class="cls-1" d="M11.76,86.73a5.94,5.94,0,0,0,2.94.74c1.86,0,3.34-1,4-4l.37-1.66H19a4.42,4.42,0,0,1-3.86,2.37c-2.23,0-3.38-1.89-3.38-3.86a7.26,7.26,0,0,1,7.06-7.52,9.08,9.08,0,0,1,3.56.78l-1.7,9.2c-.46,2.34-1.08,4-2.25,5A5.87,5.87,0,0,1,14.54,89a6.56,6.56,0,0,1-3.33-.79Zm8.53-12a4.66,4.66,0,0,0-1.84-.37c-2.78,0-4.69,2.9-4.71,5.66,0,1.21.43,2.66,2.14,2.66s3.28-2.07,3.7-4.25Z"/><path class="cls-1" d="M27.83,73.07,25.72,84.15a7.82,7.82,0,0,1-1.4,3.78A3.48,3.48,0,0,1,21.76,89a4.42,4.42,0,0,1-1.26-.14l.23-1.5a3.57,3.57,0,0,0,.87.1c1,0,1.73-.6,2.16-2.9l2.17-11.5ZM26.18,70a1.27,1.27,0,0,1,1.26-1.29,1.1,1.1,0,0,1,1.13,1.19,1.26,1.26,0,0,1-1.29,1.29A1.1,1.1,0,0,1,26.18,70Z"/><path class="cls-1" d="M28.76,84.38l1.31-1.49a4.77,4.77,0,0,1-1-3.15c0-3.57,2.55-6.92,6.11-6.92a4.07,4.07,0,0,1,2.67.83l1.27-1.41.75.65L38.6,74.36a4.94,4.94,0,0,1,1,3c0,3.89-2.78,7.06-6,7.06a4.18,4.18,0,0,1-2.82-.89l-1.29,1.51Zm8-9.42A2.24,2.24,0,0,0,35,74.29c-2.41,0-3.93,3-3.95,5.22a3.55,3.55,0,0,0,.41,1.84l0,0Zm-4.82,7.31a2.39,2.39,0,0,0,1.84.71c2,0,3.88-2.64,3.9-5.24a4.26,4.26,0,0,0-.36-1.8h0Z"/><path class="cls-1" d="M41,84.2,42.3,77c.28-1.45.46-2.92.58-4h1.68c-.1.78-.19,1.56-.3,2.41h.07c.71-1.51,1.9-2.66,3.4-2.66a4.39,4.39,0,0,1,.53,0l-.37,1.89a3,3,0,0,0-.51,0c-1.65,0-3.12,2-3.61,4.6l-.92,4.9Z"/><path class="cls-1" d="M64.29,67.87,61.85,80.68a28.24,28.24,0,0,0-.48,3.52H59.62l.3-2.21h-.05a4.73,4.73,0,0,1-4,2.46c-2.16,0-3.33-1.77-3.33-4,0-4,2.94-7.59,6.87-7.59a5,5,0,0,1,2,.39l1-5.34Zm-3.2,6.95a3.48,3.48,0,0,0-1.84-.46c-2.67,0-4.74,2.83-4.74,5.79,0,1.34.46,2.74,2.1,2.74,1.47,0,3.24-1.68,3.72-4.19Z"/><path class="cls-1" d="M72.54,83.56a7.66,7.66,0,0,1-3.67.87c-3,0-4.24-2-4.24-4.46,0-3.36,2.49-7.15,6.08-7.15,2.11,0,3.26,1.26,3.26,2.85,0,2.92-3.29,3.7-7.4,3.63a4.43,4.43,0,0,0,.23,2.12,2.52,2.52,0,0,0,2.48,1.49,6.19,6.19,0,0,0,3-.78Zm-2.11-9.25c-1.82,0-3.17,1.77-3.63,3.52,3,0,5.33-.37,5.33-2.09C72.13,74.82,71.44,74.31,70.43,74.31Z"/><path class="cls-1" d="M79.93,70.08l-.58,3H82l-.3,1.5H79.05L78,80a9.38,9.38,0,0,0-.21,1.79.94.94,0,0,0,1.06,1.06,5,5,0,0,0,.9-.07l-.09,1.5a4.72,4.72,0,0,1-1.48.2,2.06,2.06,0,0,1-2.34-2.16,10.4,10.4,0,0,1,.23-2.09l1.1-5.63H75.58l.3-1.5h1.59L78,70.56Z"/><path class="cls-1" d="M86.32,84.2l1.5-7.89c.23-1.24.39-2.32.5-3.24H90l-.3,2.09h.07a4.76,4.76,0,0,1,3.91-2.34,2.42,2.42,0,0,1,2.6,2.48,4.76,4.76,0,0,1,4.09-2.48,2.64,2.64,0,0,1,2.69,2.92,11.78,11.78,0,0,1-.18,1.88l-1.24,6.58H99.77l1.2-6.42a7.38,7.38,0,0,0,.16-1.44c0-1.18-.44-1.94-1.68-1.94S96.44,76,96,78.5L94.9,84.2H93.06l1.24-6.53a7.3,7.3,0,0,0,.14-1.36c0-.94-.25-1.91-1.66-1.91s-3.12,1.84-3.56,4.21l-1,5.59Z"/><path class="cls-1" d="M115.65,73.07,114.15,81c-.23,1.24-.39,2.32-.5,3.24h-1.73l.3-2.09h0a4.93,4.93,0,0,1-3.93,2.34c-1.42,0-2.92-.69-2.92-3.22a10.14,10.14,0,0,1,.21-1.86l1.19-6.3h1.91l-1.17,6.21a7.43,7.43,0,0,0-.21,1.63c0,1.15.49,1.93,1.8,1.93s3.15-1.61,3.61-4.07l1.08-5.7Z"/><path class="cls-1" d="M116.91,84.2,120,67.87h1.91L118.8,84.2Z"/><path class="cls-1" d="M122.16,84.2l2.13-11.13h1.91L124.06,84.2ZM124.64,70a1.26,1.26,0,0,1,1.26-1.29A1.1,1.1,0,0,1,127,69.87a1.26,1.26,0,0,1-1.29,1.29A1.1,1.1,0,0,1,124.64,70Z"/><path class="cls-1" d="M127.54,86.73a5.94,5.94,0,0,0,2.94.74c1.86,0,3.34-1,4-4l.37-1.66h-.07a4.42,4.42,0,0,1-3.86,2.37c-2.23,0-3.38-1.89-3.38-3.86a7.26,7.26,0,0,1,7.06-7.52,9.08,9.08,0,0,1,3.56.78l-1.7,9.2c-.46,2.34-1.08,4-2.25,5A5.87,5.87,0,0,1,130.32,89a6.56,6.56,0,0,1-3.33-.79Zm8.53-12a4.7,4.7,0,0,0-1.84-.37c-2.78,0-4.69,2.9-4.71,5.66,0,1.21.43,2.66,2.13,2.66s3.29-2.07,3.71-4.25Z"/><path class="cls-1" d="M11.92,111.8l1.82-9.63H12.26l.28-1.5H14l.11-.57A6.49,6.49,0,0,1,16,96.21a4,4,0,0,1,2.64-1,3,3,0,0,1,1.52.3L19.72,97a2.71,2.71,0,0,0-1.13-.21c-1.52,0-2.26,1.47-2.58,3.31l-.09.53H18.4l-.29,1.5H15.65l-1.84,9.63Z"/><path class="cls-1" d="M28.82,105.06c0,3.43-2.44,7-6.16,7a4.25,4.25,0,0,1-4.35-4.57c0-3.66,2.56-7.06,6.17-7.06C27.49,100.42,28.82,102.69,28.82,105.06Zm-8.53,2.35c0,1.81,1,3.13,2.62,3.13,2.26,0,4-2.9,4-5.5,0-1.29-.6-3.1-2.6-3.1C21.88,101.94,20.27,104.86,20.29,107.41Z"/><path class="cls-1" d="M30.16,111.8l1.36-7.17c.27-1.45.46-2.92.57-4h1.68c-.09.78-.19,1.56-.3,2.41h.07a4,4,0,0,1,3.4-2.66,4.39,4.39,0,0,1,.53,0l-.37,1.89a2.87,2.87,0,0,0-.5,0c-1.66,0-3.13,2-3.61,4.6l-.92,4.9Z"/><path class="cls-1" d="M44,111.8l-.76-15.5h1.94l.32,9.29c.07,2,0,3.06,0,4h0c.37-1,.74-2,1.61-3.93l4.28-9.41h2l.32,8.92c.07,2,.07,3.36.05,4.37h0c.46-1.33.92-2.57,1.52-4l4.16-9.31h2l-7.2,15.5h-2L52,103a38.94,38.94,0,0,1,0-4.46h-.07a40.74,40.74,0,0,1-1.57,4.07l-4.32,9.2Z"/><path class="cls-1" d="M67.26,111.8a27.84,27.84,0,0,1,.25-2.87h-.05c-1.22,2.3-2.73,3.12-4.32,3.12-2,0-3.2-1.56-3.2-3.68a7.77,7.77,0,0,1,7.71-8,10.55,10.55,0,0,1,3,.43l-1.13,5.8A25,25,0,0,0,69,111.8Zm1.24-9.7a5.16,5.16,0,0,0-1.34-.16c-2.87,0-5.22,3-5.24,6.09,0,1.24.44,2.46,1.91,2.46s3.47-2.07,4-5Z"/><path class="cls-1" d="M71.9,111.8,75,95.47h1.91L73.79,111.8Z"/><path class="cls-1" d="M77.17,111.8l3.1-16.33h1.91L79.06,111.8Z"/><path class="cls-1" d="M90.44,111.16a7.73,7.73,0,0,1-3.68.87c-2.94,0-4.23-2-4.23-4.46,0-3.36,2.48-7.15,6.07-7.15,2.11,0,3.26,1.26,3.26,2.85,0,2.92-3.28,3.7-7.4,3.63a4.71,4.71,0,0,0,.23,2.12,2.52,2.52,0,0,0,2.48,1.49,6.19,6.19,0,0,0,3-.78Zm-2.12-9.25c-1.81,0-3.17,1.77-3.63,3.52,3,0,5.33-.37,5.33-2.09C90,102.42,89.33,101.91,88.32,101.91Z"/><path class="cls-1" d="M92.83,111.8l1.5-7.89c.25-1.24.39-2.32.53-3.24h1.7l-.28,2.18h0a4.86,4.86,0,0,1,4.11-2.43c1.34,0,2.83.76,2.83,3.1a10.39,10.39,0,0,1-.21,1.8l-1.24,6.48H99.91l1.22-6.42a6.64,6.64,0,0,0,.16-1.42c0-1.13-.43-2-1.74-2s-3.29,1.64-3.8,4.4l-1,5.4Z"/><path class="cls-1" d="M105.11,111.8l2.14-11.13h1.91L107,111.8Zm2.49-14.23a1.26,1.26,0,0,1,1.26-1.29A1.1,1.1,0,0,1,110,97.47a1.26,1.26,0,0,1-1.29,1.29A1.09,1.09,0,0,1,107.6,97.57Z"/><path class="cls-1" d="M121.23,100.67l-1.49,7.89c-.23,1.24-.39,2.32-.51,3.24h-1.72l.3-2.09h0a4.94,4.94,0,0,1-3.93,2.34c-1.43,0-2.92-.69-2.92-3.22a10,10,0,0,1,.21-1.86l1.19-6.3h1.91l-1.17,6.21a7.43,7.43,0,0,0-.21,1.63c0,1.15.48,1.93,1.79,1.93s3.16-1.61,3.62-4.07l1.08-5.7Z"/><path class="cls-1" d="M122.57,109.87a5.08,5.08,0,0,0,2.39.69,1.92,1.92,0,0,0,2.12-1.82c0-.87-.39-1.4-1.54-2a3.31,3.31,0,0,1-2-2.82c0-2,1.67-3.45,4-3.45a4.57,4.57,0,0,1,2.32.55l-.53,1.45a4,4,0,0,0-1.93-.51,1.79,1.79,0,0,0-2,1.68c0,.81.53,1.31,1.52,1.86a3.51,3.51,0,0,1,2.09,2.92c0,2.35-1.9,3.66-4.25,3.66a4.89,4.89,0,0,1-2.76-.76Z"/><path class="cls-1" d="M14,139.4l-.76-15.5h1.93l.32,9.29c.07,2,0,3.06,0,4.05h0c.37-1,.74-2,1.61-3.93l4.28-9.41h2l.33,8.92c.06,2,.06,3.36,0,4.37h.05c.46-1.33.92-2.57,1.52-4l4.16-9.31h2l-7.2,15.5h-2L22,130.59a41.38,41.38,0,0,1,0-4.46h-.07a40.68,40.68,0,0,1-1.56,4.07L16,139.4Z"/><path class="cls-1" d="M30.53,139.4l2.14-11.13h1.9L32.44,139.4ZM33,125.17a1.26,1.26,0,0,1,1.26-1.29,1.1,1.1,0,0,1,1.13,1.19,1.26,1.26,0,0,1-1.29,1.29A1.1,1.1,0,0,1,33,125.17Z"/><path class="cls-1" d="M35.82,139.4l3.1-16.33h1.91L37.7,139.4Z"/><path class="cls-1" d="M41.06,139.4l3.1-16.33h1.91l-1.38,7.18h.05a4.77,4.77,0,0,1,4-2.23,2.7,2.7,0,0,1,2.76,3,9.83,9.83,0,0,1-.19,1.88l-1.24,6.51H48.14L49.38,133a8.91,8.91,0,0,0,.14-1.54,1.62,1.62,0,0,0-1.72-1.84c-1.47,0-3.34,1.73-3.8,4.23l-1,5.57Z"/><path class="cls-1" d="M61.37,138.76a7.73,7.73,0,0,1-3.68.87c-2.95,0-4.23-2-4.23-4.46,0-3.36,2.48-7.15,6.07-7.15,2.11,0,3.26,1.26,3.26,2.85,0,2.92-3.29,3.7-7.4,3.63a4.71,4.71,0,0,0,.23,2.12,2.52,2.52,0,0,0,2.48,1.49,6.19,6.19,0,0,0,3-.78Zm-2.12-9.25c-1.81,0-3.17,1.77-3.63,3.52,3,0,5.33-.37,5.33-2.09C61,130,60.26,129.51,59.25,129.51Z"/><path class="cls-1" d="M63.78,139.4l3.11-16.33H68.8L65.67,139.4Z"/><path class="cls-1" d="M69,139.4l1.49-7.89c.23-1.24.39-2.32.51-3.24h1.68l-.3,2.09h.07A4.73,4.73,0,0,1,76.39,128,2.41,2.41,0,0,1,79,130.5a4.77,4.77,0,0,1,4.1-2.48,2.64,2.64,0,0,1,2.69,2.92,10.79,10.79,0,0,1-.19,1.88l-1.24,6.58H82.48l1.2-6.42a7.38,7.38,0,0,0,.16-1.44c0-1.18-.44-1.94-1.68-1.94s-3,1.61-3.47,4.1l-1.09,5.7H75.77L77,132.87a7.3,7.3,0,0,0,.14-1.36c0-.94-.26-1.91-1.66-1.91s-3.13,1.84-3.57,4.21l-1,5.59Z"/><path class="cls-1" d="M87.7,137.47a5.12,5.12,0,0,0,2.4.69,1.92,1.92,0,0,0,2.11-1.82c0-.87-.39-1.4-1.54-2.05a3.31,3.31,0,0,1-2-2.82c0-2,1.68-3.45,4-3.45a4.61,4.61,0,0,1,2.33.55L94.49,130a4,4,0,0,0-1.93-.51,1.79,1.79,0,0,0-2,1.68c0,.81.53,1.31,1.52,1.86A3.51,3.51,0,0,1,94.19,136c0,2.35-1.91,3.66-4.26,3.66a4.91,4.91,0,0,1-2.76-.76Z"/><path class="cls-1" d="M104.22,138.76a7.73,7.73,0,0,1-3.68.87c-3,0-4.23-2-4.23-4.46,0-3.36,2.48-7.15,6.07-7.15,2.11,0,3.26,1.26,3.26,2.85,0,2.92-3.29,3.7-7.4,3.63a4.57,4.57,0,0,0,.23,2.12,2.52,2.52,0,0,0,2.48,1.49,6.19,6.19,0,0,0,3-.78Zm-2.12-9.25c-1.82,0-3.17,1.77-3.63,3.52,3,0,5.33-.37,5.33-2.09C103.8,130,103.11,129.51,102.1,129.51Z"/><path class="cls-1" d="M106.61,139.4l1.49-7.89c.26-1.24.39-2.32.53-3.24h1.7l-.27,2.19h0a4.87,4.87,0,0,1,4.12-2.44c1.33,0,2.83.76,2.83,3.1a10.39,10.39,0,0,1-.21,1.8l-1.24,6.48h-1.91l1.22-6.42a7.35,7.35,0,0,0,.16-1.42c0-1.13-.44-2-1.75-2s-3.28,1.64-3.79,4.4l-1,5.4Z"/><path class="cls-1" d="M130.46,139.4a27.84,27.84,0,0,1,.25-2.87h0c-1.22,2.3-2.74,3.12-4.33,3.12-2,0-3.19-1.56-3.19-3.68a7.77,7.77,0,0,1,7.7-7.95,10.49,10.49,0,0,1,3,.43l-1.13,5.8a25,25,0,0,0-.48,5.15Zm1.24-9.7a5.14,5.14,0,0,0-1.33-.16c-2.88,0-5.22,3-5.25,6.09,0,1.24.44,2.46,1.91,2.46s3.47-2.07,4-5Zm.85-4.76a2.27,2.27,0,0,1-2.39,2.18,2.09,2.09,0,0,1-2.21-2,2.25,2.25,0,0,1,2.39-2.26A2.07,2.07,0,0,1,132.55,124.94Zm-3.45.11a1.15,1.15,0,0,0,1.11,1.2,1.25,1.25,0,0,0,1.19-1.36,1.12,1.12,0,0,0-1.13-1.2A1.23,1.23,0,0,0,129.1,125.05Z"/><path class="cls-1" d="M11.74,165.07a5,5,0,0,0,2.39.69,1.92,1.92,0,0,0,2.11-1.82c0-.87-.39-1.4-1.54-2a3.34,3.34,0,0,1-2-2.83c0-2,1.68-3.45,4-3.45a4.6,4.6,0,0,1,2.32.55l-.53,1.45a4,4,0,0,0-1.93-.51,1.79,1.79,0,0,0-2,1.68c0,.81.53,1.31,1.52,1.86a3.51,3.51,0,0,1,2.09,2.92c0,2.35-1.91,3.66-4.25,3.66a4.86,4.86,0,0,1-2.76-.76Z"/><path class="cls-1" d="M20.25,167l3.08-16.33h1.91l-2,10.24h0c.34-.39.76-.81,1-1.13l3.93-3.91h2.35l-4.85,4.58L29.12,167H27l-2.67-5.5-1.4,1.27L22.13,167Z"/><path class="cls-1" d="M37.77,167a27.84,27.84,0,0,1,.25-2.87h0c-1.22,2.3-2.74,3.12-4.33,3.12-1.95,0-3.19-1.56-3.19-3.68a7.77,7.77,0,0,1,7.7-7.95,10.49,10.49,0,0,1,3,.43L40,161.85a25.69,25.69,0,0,0-.48,5.15ZM39,157.3a5.07,5.07,0,0,0-1.33-.16c-2.88,0-5.22,3-5.24,6.09,0,1.24.43,2.46,1.9,2.46s3.48-2.07,4-5Z"/><path class="cls-1" d="M42.42,167l3.1-16.33h1.91L44.3,167Z"/><path class="cls-1" d="M55.69,166.36a7.73,7.73,0,0,1-3.68.87c-2.95,0-4.23-2-4.23-4.46,0-3.36,2.48-7.15,6.07-7.15,2.11,0,3.26,1.26,3.26,2.85,0,2.92-3.29,3.7-7.4,3.63a4.57,4.57,0,0,0,.23,2.12,2.52,2.52,0,0,0,2.48,1.49,6.19,6.19,0,0,0,3-.78Zm-2.12-9.25c-1.82,0-3.17,1.77-3.63,3.52,3,0,5.33-.37,5.33-2.09C55.27,157.62,54.58,157.11,53.57,157.11Z"/><path class="cls-1" d="M58.08,167l1.36-7.17c.27-1.45.46-2.92.57-4h1.68c-.09.78-.18,1.56-.3,2.41h.07a4,4,0,0,1,3.4-2.66,4.39,4.39,0,0,1,.53,0L65,157.55a2.77,2.77,0,0,0-.5-.05c-1.66,0-3.13,2-3.61,4.6L60,167Z"/><path class="cls-1" d="M73.28,166.36a7.7,7.7,0,0,1-3.68.87c-2.94,0-4.23-2-4.23-4.46,0-3.36,2.48-7.15,6.07-7.15,2.12,0,3.27,1.26,3.27,2.85,0,2.92-3.29,3.7-7.41,3.63a4.71,4.71,0,0,0,.23,2.12A2.54,2.54,0,0,0,70,165.71a6.15,6.15,0,0,0,3-.78Zm-2.11-9.25c-1.82,0-3.18,1.77-3.64,3.52,3,0,5.34-.37,5.34-2.09C72.87,157.62,72.18,157.11,71.17,157.11Z"/><path class="cls-1" d="M87.89,166.36a7.73,7.73,0,0,1-3.68.87c-2.95,0-4.23-2-4.23-4.46,0-3.36,2.48-7.15,6.07-7.15,2.11,0,3.26,1.26,3.26,2.85,0,2.92-3.29,3.7-7.4,3.63a4.45,4.45,0,0,0,.23,2.12,2.52,2.52,0,0,0,2.48,1.49,6.19,6.19,0,0,0,3-.78Zm-2.12-9.25c-1.82,0-3.17,1.77-3.63,3.52,3,0,5.33-.37,5.33-2.09C87.47,157.62,86.78,157.11,85.77,157.11Z"/><path class="cls-1" d="M95.27,152.88l-.58,3h2.67l-.3,1.5H94.4l-1,5.4a10.14,10.14,0,0,0-.21,1.79.94.94,0,0,0,1.06,1.06,5,5,0,0,0,.9-.07l-.09,1.5a4.72,4.72,0,0,1-1.48.2,2.06,2.06,0,0,1-2.34-2.16,10.4,10.4,0,0,1,.23-2.09l1.1-5.63H90.92l.3-1.5h1.59l.48-2.51Z"/><path class="cls-1" d="M102.47,152.88l-.58,3h2.67l-.3,1.5h-2.67l-1,5.4a9.29,9.29,0,0,0-.21,1.79.94.94,0,0,0,1.06,1.06,5,5,0,0,0,.9-.07l-.1,1.5a4.66,4.66,0,0,1-1.47.2,2.06,2.06,0,0,1-2.34-2.16,10.4,10.4,0,0,1,.23-2.09l1.1-5.63H98.12l.3-1.5H100l.48-2.51Z"/><path class="cls-1" d="M112.61,166.36a7.73,7.73,0,0,1-3.68.87c-2.94,0-4.23-2-4.23-4.46,0-3.36,2.48-7.15,6.07-7.15,2.12,0,3.27,1.26,3.27,2.85,0,2.92-3.29,3.7-7.41,3.63a4.71,4.71,0,0,0,.23,2.12,2.52,2.52,0,0,0,2.48,1.49,6.19,6.19,0,0,0,3-.78Zm-2.12-9.25c-1.81,0-3.17,1.77-3.63,3.52,3,0,5.34-.37,5.34-2.09C112.2,157.62,111.51,157.11,110.49,157.11Z"/><path class="cls-1" d="M115,167l1.36-7.17c.28-1.45.46-2.92.57-4h1.68c-.09.78-.18,1.56-.3,2.41h.07c.72-1.51,1.91-2.66,3.41-2.66a4.39,4.39,0,0,1,.53,0l-.37,1.89a3,3,0,0,0-.51-.05c-1.65,0-3.13,2-3.61,4.6l-.92,4.9Z"/><path class="cls-1" d="M16.56,178.27l-1.47,7.22h.05a4.69,4.69,0,0,1,3.91-2.27c2.44,0,3.36,2,3.36,4,0,3.4-2.47,7.63-6.93,7.63-2,0-3.42-.8-3.42-2.87a11.28,11.28,0,0,1,.18-1.73l2.42-12Zm-2.41,12a5.07,5.07,0,0,0-.14,1.4c0,1.06.6,1.66,1.8,1.66,2.87,0,4.62-3.43,4.62-5.89,0-1.38-.6-2.67-2.12-2.67s-3.35,1.71-3.91,4.33Z"/><path class="cls-1" d="M31.81,194a7.7,7.7,0,0,1-3.68.87c-2.94,0-4.23-2-4.23-4.46,0-3.36,2.49-7.15,6.07-7.15,2.12,0,3.27,1.26,3.27,2.85,0,2.92-3.29,3.7-7.41,3.63a4.71,4.71,0,0,0,.23,2.12,2.54,2.54,0,0,0,2.49,1.49,6.19,6.19,0,0,0,3-.78Zm-2.11-9.25c-1.82,0-3.18,1.77-3.64,3.52,3,0,5.34-.37,5.34-2.09C31.4,185.22,30.71,184.71,29.7,184.71Z"/><path class="cls-1" d="M34.21,194.6l3.1-16.33h1.91l-1.38,7.18h0a4.77,4.77,0,0,1,4-2.23,2.7,2.7,0,0,1,2.76,3,10.69,10.69,0,0,1-.18,1.88L43.2,194.6H41.29l1.24-6.42a8.91,8.91,0,0,0,.14-1.54,1.62,1.62,0,0,0-1.73-1.84c-1.47,0-3.33,1.73-3.79,4.23l-1,5.57Z"/><path class="cls-1" d="M57.16,187.86c0,3.43-2.44,7-6.16,7a4.25,4.25,0,0,1-4.35-4.57c0-3.66,2.55-7.06,6.16-7.06C55.82,183.22,57.16,185.49,57.16,187.86Zm-8.53,2.35c0,1.81,1,3.12,2.62,3.12,2.25,0,4-2.89,4-5.49,0-1.29-.59-3.11-2.6-3.11C50.21,184.73,48.6,187.66,48.63,190.21Z"/><path class="cls-1" d="M60.82,183.47l1,6.35c.16,1.26.3,2.11.35,2.73h.07a27.36,27.36,0,0,1,1.17-2.6l3.4-6.48h2.1L62.68,194.6H60.79l-1.93-11.13Z"/><path class="cls-1" d="M73.65,184.57h1.54l2.39,4.23L74.18,193H72.5l3.5-4.3Zm3.77,0H79l2.39,4.23L78,193H76.27l3.5-4.3Z"/></svg>