<svg id="Layer_1" data-name="Layer 1" xmlns="http://www.w3.org/2000/svg" viewBox="0 0 160 600"><defs><style>.cls-1{fill:#010121;}</style></defs><title>text</title><path class="cls-1" d="M20.05,177.21h1.24V195H20.05Z"/><path class="cls-1" d="M30.37,178.28H24.7v-1.07H37.27v1.07H31.61V195H30.37Z"/><path class="cls-1" d="M46,193.26V175.58h1.19v17.84c0,.58.24.85.56.85a2.27,2.27,0,0,0,.49-.05l.2,1a2.78,2.78,0,0,1-.86.13C46.49,195.32,46,194.68,46,193.26Z"/><path class="cls-1" d="M51.1,195l11.25-13.56.7.56L51.8,195.6Zm.15-6.5c0-4.33,2.71-6.83,5.82-6.83s5.82,2.5,5.82,6.83-2.7,6.78-5.82,6.78S51.25,192.83,51.25,188.54Zm10.42,0c0-3.47-2-5.82-4.6-5.82s-4.59,2.36-4.59,5.77,2,5.77,4.59,5.77S61.67,192,61.67,188.57Z"/><path class="cls-1" d="M65.15,193.53l.69-.87A6,6,0,0,0,70,194.3c2,0,3.1-1.19,3.1-2.56,0-1.62-1.68-2.33-3.18-2.87-1.95-.7-4.13-1.49-4.13-3.71,0-1.86,1.48-3.45,4.18-3.45a6.05,6.05,0,0,1,3.7,1.35l-.64.86a4.88,4.88,0,0,0-3.09-1.19c-2,0-2.94,1.17-2.94,2.36,0,1.48,1.53,2,3.07,2.63,2,.76,4.24,1.42,4.24,3.95,0,2-1.56,3.65-4.37,3.65A7.4,7.4,0,0,1,65.15,193.53Z"/><path class="cls-1" d="M77.7,182h1l.13,2h.06c1.32-1.32,2.67-2.34,4.45-2.34,2.68,0,3.92,1.63,3.92,5V195H86.08v-8.16c0-2.75-.87-4.05-3-4.05-1.55,0-2.66.81-4.24,2.43V195H77.7Z"/><path class="cls-1" d="M91.6,177.85a1.09,1.09,0,0,1,2.17,0,1.09,1.09,0,0,1-2.17,0Zm.46,4.19h1.19v13H92.06Z"/><path class="cls-1" d="M98.24,182h1l.13,2h.06c1.32-1.32,2.67-2.34,4.46-2.34,2.68,0,3.92,1.63,3.92,5V195h-1.19v-8.16c0-2.75-.87-4.05-3-4.05-1.54,0-2.66.81-4.23,2.43V195h-1.2Z"/><path class="cls-1" d="M111.51,197.65a4.1,4.1,0,0,1,1.94-3.13v-.1a2.34,2.34,0,0,1-1.14-2.08,3,3,0,0,1,1.41-2.39v-.11a4.76,4.76,0,0,1-1.64-3.55,4.57,4.57,0,0,1,6.28-4.25h4.39v1h-3a4.28,4.28,0,0,1,1.43,3.25,4.51,4.51,0,0,1-6.67,4,2.38,2.38,0,0,0-1.06,1.87c0,.94.54,1.69,2.48,1.69h2.77c2.92,0,4.28.93,4.28,3,0,2.24-2.39,4.38-6.13,4.38C113.57,201.24,111.51,199.84,111.51,197.65Zm10.24-.66c0-1.43-1-2-3-2H116a8.87,8.87,0,0,1-1.6-.21,3.33,3.33,0,0,0-1.7,2.72c0,1.64,1.56,2.74,4.29,2.74C119.89,200.27,121.75,198.62,121.75,197ZM120,186.29a3.36,3.36,0,1,0-6.7,0,3.36,3.36,0,1,0,6.7,0Z"/><path class="cls-1" d="M124.37,188.54c0-4.22,2.75-6.83,5.65-6.83,3.07,0,5,2.19,5,6a6.24,6.24,0,0,1-.06,1h-9.33c0,3.27,2,5.61,4.89,5.61a5.81,5.81,0,0,0,3.48-1.15l.49.91a7.09,7.09,0,0,1-4.09,1.27C127.05,195.32,124.37,192.78,124.37,188.54Zm9.49-.84c0-3.31-1.5-5-3.83-5s-4.17,1.86-4.44,5Z"/><path class="cls-1" d="M138.5,182h1l.13,2.42h.06c.88-1.6,2.14-2.75,3.69-2.75a2.71,2.71,0,0,1,1.28.27l-.27,1.08a3,3,0,0,0-1.17-.21c-1.17,0-2.55.88-3.54,3.33V195H138.5Z"/><path class="cls-1" d="M35,225.93l.69-.87a6,6,0,0,0,4.12,1.64c2,0,3.1-1.19,3.1-2.56,0-1.62-1.68-2.33-3.18-2.87-2-.7-4.13-1.49-4.13-3.71,0-1.86,1.48-3.45,4.18-3.45a6.1,6.1,0,0,1,3.71,1.35l-.65.86a4.88,4.88,0,0,0-3.09-1.19c-2,0-2.94,1.17-2.94,2.36,0,1.48,1.53,2,3.07,2.63,2,.76,4.24,1.42,4.24,3.95,0,2-1.56,3.65-4.37,3.65A7.4,7.4,0,0,1,35,225.93Z"/><path class="cls-1" d="M46.41,220.94c0-4.33,2.7-6.83,5.82-6.83s5.82,2.5,5.82,6.83-2.71,6.78-5.82,6.78S46.41,225.23,46.41,220.94Zm10.38,0c0-3.41-1.94-5.77-4.56-5.77s-4.57,2.36-4.57,5.77,2,5.73,4.57,5.73S56.79,224.35,56.79,220.94Z"/><path class="cls-1" d="M61.94,214.44h1l.13,2h.06a6,6,0,0,1,4.1-2.34,3.35,3.35,0,0,1,3.58,2.65c1.47-1.62,2.9-2.65,4.4-2.65,2.58,0,3.87,1.63,3.87,5v8.31H77.9v-8.16c0-2.75-.92-4.05-2.9-4.05-1.22,0-2.45.81-3.88,2.43v9.78h-1.2v-8.16c0-2.75-.92-4.05-2.9-4.05-1.17,0-2.45.81-3.88,2.43v9.78h-1.2Z"/><path class="cls-1" d="M90.45,226.09h0l-.14,1.31h-1V208h1.19v5.64l-.06,2.52a7.42,7.42,0,0,1,4.46-2c3.48,0,5.19,2.61,5.19,6.61,0,4.41-2.65,7-5.71,7A6.61,6.61,0,0,1,90.45,226.09Zm8.35-5.36c0-3.18-1.13-5.56-4.12-5.56-1.29,0-2.7.76-4.22,2.14V225a6.19,6.19,0,0,0,3.82,1.67C96.91,226.67,98.8,224.25,98.8,220.73Z"/><path class="cls-1" d="M103.87,225.66V208h1.2v17.84c0,.58.23.85.56.85a2.15,2.15,0,0,0,.48,0l.2,1a2.66,2.66,0,0,1-.85.13C104.41,227.72,103.87,227.08,103.87,225.66Z"/><path class="cls-1" d="M109.81,210.25a1.09,1.09,0,0,1,2.17,0,1.09,1.09,0,0,1-2.17,0Zm.46,4.19h1.2v13h-1.2Z"/><path class="cls-1" d="M116.46,214.44h1l.13,2.42h.06c.88-1.6,2.15-2.75,3.69-2.75a2.75,2.75,0,0,1,1.29.27l-.27,1.08a3.06,3.06,0,0,0-1.18-.21c-1.16,0-2.54.88-3.53,3.33v8.82h-1.19Z"/><path class="cls-1" d="M45.15,253.34c0-4.18,2.66-6.83,5.75-6.83a6,6,0,0,1,3.91,1.6l-.07-2.38v-5.35h1.2V259.8h-1l-.13-1.68h-.06a6.13,6.13,0,0,1-4.23,2C47.26,260.12,45.15,257.72,45.15,253.34Zm9.59,3.59v-7.69A5.41,5.41,0,0,0,51,247.57c-2.57,0-4.56,2.52-4.56,5.77,0,3.45,1.54,5.73,4.28,5.73C52.11,259.07,53.38,258.31,54.74,256.93Z"/><path class="cls-1" d="M59.07,265.43l.27-1a3.32,3.32,0,0,0,1.06.21c1.58,0,2.66-1.46,3.32-3.44l.36-1.13-5.33-13.2H60L63.17,255c.43,1.1.94,2.49,1.41,3.64h.11c.41-1.15.83-2.53,1.2-3.64l2.76-8.14h1.22l-5.12,14.59c-.72,2.16-2,4.27-4.36,4.27A3.34,3.34,0,0,1,59.07,265.43Z"/><path class="cls-1" d="M72.69,246.84h1l.13,2.42h.06c.87-1.6,2.14-2.75,3.68-2.75a2.72,2.72,0,0,1,1.29.27l-.27,1.08a3,3,0,0,0-1.17-.21c-1.17,0-2.55.88-3.54,3.33v8.82H72.69Z"/><path class="cls-1" d="M79.89,253.34c0-4.22,2.74-6.83,5.65-6.83,3.07,0,5,2.19,5,6a5.28,5.28,0,0,1-.07,1H81.11c0,3.27,2,5.61,4.88,5.61a5.78,5.78,0,0,0,3.48-1.15l.5.91a7.09,7.09,0,0,1-4.09,1.27C82.57,260.12,79.89,257.58,79.89,253.34Zm9.49-.84c0-3.31-1.5-5-3.83-5s-4.17,1.86-4.44,5Z"/><path class="cls-1" d="M94,246.84h1l.13,2.42h.06c.87-1.6,2.14-2.75,3.68-2.75a2.72,2.72,0,0,1,1.29.27l-.27,1.08a3,3,0,0,0-1.17-.21c-1.17,0-2.55.88-3.54,3.33v8.82H94Z"/><path class="cls-1" d="M101.22,253.34c0-4.22,2.74-6.83,5.65-6.83,3.07,0,5,2.19,5,6a5.28,5.28,0,0,1-.07,1h-9.32c0,3.27,2,5.61,4.88,5.61a5.78,5.78,0,0,0,3.48-1.15l.5.91a7.09,7.09,0,0,1-4.09,1.27C103.9,260.12,101.22,257.58,101.22,253.34Zm9.49-.84c0-3.31-1.5-5-3.83-5s-4.17,1.86-4.44,5Z"/><path class="cls-1" d="M58.81,285.74c0-4.22,2.75-6.83,5.66-6.83,3.07,0,5,2.19,5,6a5.22,5.22,0,0,1-.07,1H60c0,3.27,2,5.61,4.88,5.61a5.81,5.81,0,0,0,3.48-1.15l.49.91a7.05,7.05,0,0,1-4.08,1.27C61.5,292.52,58.81,290,58.81,285.74Zm9.5-.84c0-3.31-1.51-5-3.83-5s-4.18,1.86-4.45,5Z"/><path class="cls-1" d="M73,279.24h1l.13,2h.06c1.33-1.32,2.68-2.34,4.46-2.34,2.68,0,3.92,1.63,3.92,5v8.31H81.33V284c0-2.75-.87-4.05-3-4.05-1.55,0-2.67.81-4.24,2.43v9.78H73Z"/><path class="cls-1" d="M87.31,279.24h1l.13,2h.06c1.32-1.32,2.67-2.34,4.46-2.34,2.68,0,3.92,1.63,3.92,5v8.31h-1.2V284c0-2.75-.87-4.05-3-4.05-1.54,0-2.66.81-4.24,2.43v9.78H87.31Z"/><path class="cls-1" d="M45,321.37c0-2.88,2.6-4.25,8.37-4.88,0-2-.51-4.13-3.06-4.13a7.1,7.1,0,0,0-4.13,1.52l-.55-.88a8.71,8.71,0,0,1,4.82-1.69c3.07,0,4.11,2.23,4.11,5v8.28h-1l-.13-1.68H53.4a7.67,7.67,0,0,1-4.6,2C46.75,324.92,45,323.81,45,321.37Zm8.37.43v-4.41c-5.33.62-7.15,1.85-7.15,3.92A2.44,2.44,0,0,0,49,323.89C50.5,323.89,51.8,323.17,53.41,321.8Z"/><path class="cls-1" d="M59.23,311.64h1l.13,2h.06c1.32-1.32,2.67-2.34,4.46-2.34,2.67,0,3.92,1.63,3.92,5v8.31h-1.2v-8.16c0-2.75-.87-4.05-3-4.05-1.54,0-2.66.81-4.24,2.43v9.78H59.23Z"/><path class="cls-1" d="M73.9,321v-8.34h-2v-.93l2-.11.15-3.75h1v3.75h3.76v1H75.09v8.43c0,1.65.41,2.77,2.2,2.77a4.61,4.61,0,0,0,1.63-.41l.31,1a7.58,7.58,0,0,1-2.12.48C74.62,324.92,73.9,323.34,73.9,321Z"/><path class="cls-1" d="M80.49,321.37c0-2.88,2.6-4.25,8.37-4.88,0-2-.51-4.13-3.06-4.13a7.1,7.1,0,0,0-4.13,1.52l-.55-.88a8.71,8.71,0,0,1,4.82-1.69c3.07,0,4.11,2.23,4.11,5v8.28H89l-.13-1.68h-.06a7.67,7.67,0,0,1-4.6,2C82.2,324.92,80.49,323.81,80.49,321.37Zm8.37.43v-4.41c-5.33.62-7.15,1.85-7.15,3.92a2.44,2.44,0,0,0,2.75,2.58C86,323.89,87.25,323.17,88.86,321.8Z"/><path class="cls-1" d="M94.69,321v-8.34h-2v-.93l2-.11.15-3.75h1v3.75h3.76v1H95.88v8.43c0,1.65.41,2.77,2.2,2.77a4.61,4.61,0,0,0,1.63-.41l.31,1a7.58,7.58,0,0,1-2.12.48C95.42,324.92,94.69,323.34,94.69,321Z"/><path class="cls-1" d="M102.57,321v-8.34h-2v-.93l2-.11.15-3.75h1v3.75h3.76v1h-3.76v8.43c0,1.65.42,2.77,2.21,2.77a4.55,4.55,0,0,0,1.62-.41l.31,1a7.6,7.6,0,0,1-2.11.48C103.3,324.92,102.57,323.34,102.57,321Z"/><path class="cls-1" d="M115.93,310.39a2.9,2.9,0,0,0-3.06-3.15,4.58,4.58,0,0,0-3.48,1.72l-.74-.67a5.75,5.75,0,0,1,4.33-2.1,3.93,3.93,0,0,1,4.17,4.12c0,3.68-4.52,5.34-4,9.45h-1.08C111.47,315.28,115.93,313.72,115.93,310.39Zm-4.38,13.33a1.15,1.15,0,1,1,2.29,0,1.15,1.15,0,1,1-2.29,0Z"/></svg>