<?xml version="1.0" encoding="utf-8"?>
<!-- Generator: Adobe Illustrator 19.1.1, SVG Export Plug-In . SVG Version: 6.00 Build 0)  -->
<svg version="1.1" id="Layer_1" xmlns="http://www.w3.org/2000/svg" xmlns:xlink="http://www.w3.org/1999/xlink" x="0px" y="0px"
	 viewBox="0 0 320 50" style="enable-background:new 0 0 320 50;" xml:space="preserve">
<style type="text/css">
	.st0{fill:#D80201;}
	.st1{fill:#FFFFFF;}
</style>
<g>
	<path class="st0" d="M28.4,20.6v2.5h3.6V25h-3.6v5h-2.2V18.7h6v1.9H28.4z"/>
	<path class="st0" d="M37.6,30.2c-2.3,0-4.2-1.5-4.2-3.9c0-2.5,1.9-3.9,4.2-3.9c2.3,0,4.2,1.5,4.2,3.9
		C41.8,28.7,39.9,30.2,37.6,30.2z M37.6,24.3c-1.1,0-2.1,0.9-2.1,2.1c0,1.1,1,2.1,2.1,2.1c1.1,0,2.1-0.9,2.1-2.1
		C39.7,25.2,38.7,24.3,37.6,24.3z"/>
	<path class="st0" d="M48.2,24.5c-0.3-0.2-0.6-0.3-1-0.3c-1.4,0-1.8,1-1.8,2.2V30h-2.1v-7.4h2.1v1.1c0.5-0.8,1.2-1.3,2.1-1.3
		c0.3,0,0.6,0.1,0.9,0.2L48.2,24.5z"/>
	<path class="st0" d="M58.9,30v-4c0-0.9-0.1-1.8-1.2-1.8c-1.2,0-1.4,1.1-1.4,2.1V30h-2.1v-3.9c0-0.4,0-0.9-0.2-1.2
		c-0.2-0.4-0.6-0.7-1.1-0.7c-0.5,0-0.9,0.3-1.2,0.7c-0.2,0.4-0.2,1-0.2,1.4V30h-2.1v-7.4h2.1v0.8c0.6-0.7,1.3-1.1,2.2-1.1
		c1.1,0,1.8,0.5,2.3,1.3c0.6-0.9,1.4-1.3,2.4-1.3c0.8,0,1.6,0.4,2.1,1.1c0.3,0.5,0.4,1.2,0.4,1.8V30H58.9z"/>
	<path class="st0" d="M68.6,30v-1c-0.6,0.8-1.4,1.2-2.4,1.2c-2.2,0-3.6-1.8-3.6-3.9c0-2.1,1.4-3.9,3.6-3.9c1,0,1.8,0.4,2.4,1.2v-0.9
		h2.1V30H68.6z M66.7,24.3c-1.1,0-2.1,0.9-2.1,2.1c0,1.1,0.9,2.1,2.1,2.1c1.1,0,2.1-0.9,2.1-2.1C68.8,25.2,67.9,24.3,66.7,24.3z"/>
	<path class="st0" d="M82.5,30v-1c-0.6,0.8-1.4,1.2-2.4,1.2c-2.2,0-3.6-1.8-3.6-3.9c0-2.1,1.4-3.9,3.6-3.9c1,0,1.8,0.4,2.4,1.2v-6.3
		h2.1V30H82.5z M80.7,24.3c-1.1,0-2.1,0.9-2.1,2.1c0,1.1,0.9,2.1,2.1,2.1c1.1,0,2.1-0.9,2.1-2.1C82.7,25.2,81.8,24.3,80.7,24.3z"/>
	<path class="st0" d="M87.5,20.8c-0.7,0-1.2-0.6-1.2-1.2c0-0.7,0.6-1.2,1.2-1.2c0.7,0,1.2,0.6,1.2,1.2
		C88.8,20.2,88.2,20.8,87.5,20.8z M86.5,30v-7.4h2.1V30H86.5z"/>
	<path class="st0" d="M92.6,24.4V30h-2.1v-5.6h-0.8v-1.8h0.8v-2.5h2.1v2.5H94v1.8H92.6z"/>
	<path class="st0" d="M97.2,24.4V30h-2.1v-5.6h-0.8v-1.8h0.8v-2.5h2.1v2.5h1.4v1.8H97.2z"/>
	<path class="st0" d="M109,30v-4c0-1-0.2-1.8-1.4-1.8c-1.3,0-1.6,1-1.6,2.1V30h-2.1V17.3h2.1v6.3c0.6-0.8,1.3-1.2,2.3-1.2
		c0.8,0,1.6,0.3,2.1,0.9s0.6,1.3,0.6,2.1V30H109z"/>
	<path class="st0" d="M116.5,30.2c-2,0-3.6-0.9-3.6-3.1v-4.5h2.1v4.2c0,1,0.4,1.7,1.5,1.7s1.5-0.7,1.5-1.7v-4.2h2.1v4.5
		C120.1,29.3,118.6,30.2,116.5,30.2z"/>
	<path class="st0" d="M124.4,30.2c-1.1,0-2.1-0.5-2.8-1.2l1.1-1.3c0.5,0.5,1,0.9,1.7,0.9c0.5,0,0.9-0.3,0.9-0.8
		c0-1.3-3.3-0.6-3.3-3.1c0-1.5,1.2-2.3,2.6-2.3c0.9,0,1.7,0.2,2.4,0.8l-1,1.2c-0.4-0.3-0.8-0.5-1.2-0.5c-0.4,0-0.8,0.2-0.8,0.6
		c0,1.1,3.4,0.6,3.4,3.1C127.5,29.3,126,30.2,124.4,30.2z"/>
	<path class="st0" d="M137.7,30.2c-1.1,0-1.8-0.4-2.5-1.2v4.9h-2.1V22.6h2.1v0.9c0.7-0.8,1.4-1.2,2.4-1.2c2.2,0,3.6,1.8,3.6,3.9
		C141.3,28.4,139.9,30.2,137.7,30.2z M137.1,24.3c-1.1,0-2.1,0.9-2.1,2.1c0,1.1,0.9,2.1,2.1,2.1s2.1-0.9,2.1-2.1
		C139.2,25.2,138.3,24.3,137.1,24.3z"/>
	<path class="st0" d="M148.5,30v-1c-0.6,0.8-1.4,1.2-2.4,1.2c-2.2,0-3.6-1.8-3.6-3.9c0-2.1,1.4-3.9,3.6-3.9c1,0,1.8,0.4,2.4,1.2
		v-0.9h2.1V30H148.5z M146.7,24.3c-1.1,0-2.1,0.9-2.1,2.1c0,1.1,0.9,2.1,2.1,2.1c1.1,0,2.1-0.9,2.1-2.1
		C148.7,25.2,147.8,24.3,146.7,24.3z M146.4,21.3c-0.8,0-1.5-0.7-1.5-1.5s0.7-1.5,1.5-1.5c0.9,0,1.5,0.7,1.5,1.5
		C147.9,20.7,147.2,21.3,146.4,21.3z M146.4,19.2c-0.3,0-0.6,0.3-0.6,0.6c0,0.3,0.3,0.6,0.6,0.6c0.3,0,0.6-0.3,0.6-0.6
		C147,19.5,146.7,19.2,146.4,19.2z"/>
	<path class="st0" d="M158.9,24.4V30h-2.1v-5.6h-0.8v-1.8h0.8v-2.4c0-0.6,0-1.2,0.3-1.7c0.5-0.9,1.5-1.5,2.5-1.5
		c0.4,0,0.7,0.1,1.1,0.3v1.9c-0.3-0.2-0.6-0.3-0.9-0.3c-0.9,0-1,1-1,1.6v2.1h1.9v1.8H158.9z"/>
	<path class="st0" d="M163.5,26.7c0,1.1,0.6,2,1.8,2c0.8,0,1.3-0.3,1.8-1l1.9,0.3c-0.6,1.6-2,2.3-3.6,2.3c-2.4,0-3.9-1.5-3.9-3.9
		c0-2.3,1.5-3.9,3.9-3.9c2.4,0,3.8,1.6,3.8,4v0.3H163.5z M165.3,23.9c-0.9,0-1.5,0.6-1.7,1.5h3.5C166.9,24.4,166.3,23.9,165.3,23.9z
		"/>
	<path class="st0" d="M180,30v-4c0-0.9-0.1-1.8-1.2-1.8c-1.2,0-1.4,1.1-1.4,2.1V30h-2.1v-3.9c0-0.4,0-0.9-0.2-1.2
		c-0.2-0.4-0.6-0.7-1.1-0.7c-0.5,0-0.9,0.3-1.2,0.7c-0.2,0.4-0.2,1-0.2,1.4V30h-2.1v-7.4h2.1v0.8c0.6-0.7,1.3-1.1,2.2-1.1
		c1.1,0,1.8,0.5,2.3,1.3c0.6-0.9,1.4-1.3,2.4-1.3c0.8,0,1.6,0.4,2.1,1.1c0.3,0.5,0.4,1.2,0.4,1.8V30H180z"/>
	<path class="st0" d="M197.7,30v-4c0-0.9-0.1-1.8-1.2-1.8c-1.2,0-1.4,1.1-1.4,2.1V30H193v-3.9c0-0.4,0-0.9-0.2-1.2
		c-0.2-0.4-0.6-0.7-1.1-0.7c-0.5,0-0.9,0.3-1.2,0.7c-0.2,0.4-0.2,1-0.2,1.4V30h-2.1v-7.4h2.1v0.8c0.6-0.7,1.3-1.1,2.2-1.1
		c1.1,0,1.8,0.5,2.3,1.3c0.6-0.9,1.4-1.3,2.4-1.3c0.8,0,1.6,0.4,2.1,1.1c0.3,0.5,0.4,1.2,0.4,1.8V30H197.7z"/>
	<path class="st0" d="M202.7,20.8c-0.7,0-1.2-0.6-1.2-1.2c0-0.7,0.6-1.2,1.2-1.2c0.7,0,1.2,0.6,1.2,1.2
		C203.9,20.2,203.4,20.8,202.7,20.8z M201.7,30v-7.4h2.1V30H201.7z"/>
	<path class="st0" d="M210.7,30v-4.1c0-1-0.2-1.8-1.4-1.8c-1.3,0-1.6,0.9-1.6,2V30h-2.1v-7.4h2.1v0.9c0.7-0.8,1.3-1.1,2.3-1.1
		c0.8,0,1.6,0.3,2.1,0.9c0.5,0.6,0.6,1.3,0.6,2V30H210.7z"/>
	<path class="st0" d="M218.3,30.2c-2,0-3.6-0.9-3.6-3.1v-4.5h2.1v4.2c0,1,0.4,1.7,1.5,1.7c1.1,0,1.5-0.7,1.5-1.7v-4.2h2.1v4.5
		C221.9,29.3,220.3,30.2,218.3,30.2z"/>
	<path class="st0" d="M225.9,24.4V30h-2.1v-5.6H223v-1.8h0.8v-2.5h2.1v2.5h1.4v1.8H225.9z"/>
	<path class="st0" d="M230.1,26.7c0,1.1,0.6,2,1.8,2c0.8,0,1.3-0.3,1.8-1l1.9,0.3c-0.6,1.6-2,2.3-3.6,2.3c-2.4,0-3.9-1.5-3.9-3.9
		c0-2.3,1.5-3.9,3.9-3.9c2.4,0,3.8,1.6,3.8,4v0.3H230.1z M231.9,23.9c-0.9,0-1.5,0.6-1.7,1.5h3.5C233.5,24.4,232.9,23.9,231.9,23.9z
		"/>
	<path class="st0" d="M242,24.5c-0.3-0.2-0.6-0.3-1-0.3c-1.4,0-1.8,1-1.8,2.2V30h-2.1v-7.4h2.1v1.1c0.5-0.8,1.2-1.3,2.1-1.3
		c0.3,0,0.6,0.1,0.9,0.2L242,24.5z"/>
	<path class="st0" d="M243.7,30.2c-0.7,0-1.3-0.6-1.3-1.3s0.6-1.3,1.3-1.3c0.7,0,1.3,0.6,1.3,1.3S244.5,30.2,243.7,30.2z"/>
</g>
</svg>
