<svg id="Layer_1" data-name="Layer 1" xmlns="http://www.w3.org/2000/svg" viewBox="0 0 740 160"><defs><style>.cls-1{fill:#d4ac76;}</style></defs><title>text</title><path class="cls-1" d="M410.18,41.58a7.25,7.25,0,0,1-9.73,0,6.3,6.3,0,0,1-1.92-4.7V25.4h3.33v11a4.08,4.08,0,0,0,.92,2.74,3.54,3.54,0,0,0,5.07,0,4,4,0,0,0,.92-2.71V25.4h3.33V36.88A6.3,6.3,0,0,1,410.18,41.58Z"/><path class="cls-1" d="M418.05,43.18V25.4h6.38a6,6,0,0,1,6.18,6.14,5.63,5.63,0,0,1-1.8,4.28,6.21,6.21,0,0,1-4.43,1.7h-3v5.66Zm6.09-14.58h-2.76v6h2.81a3.14,3.14,0,0,0,2.23-.79,2.77,2.77,0,0,0,.85-2.13,2.91,2.91,0,0,0-.87-2.19A3.1,3.1,0,0,0,424.15,28.6Z"/><path class="cls-1" d="M435.51,43.18V25.4h6.38a6,6,0,0,1,6.18,6.14,5.63,5.63,0,0,1-1.8,4.28,6.21,6.21,0,0,1-4.43,1.7h-3v5.66Zm6.1-14.58h-2.76v6h2.81a3.14,3.14,0,0,0,2.23-.79,2.77,2.77,0,0,0,.85-2.13,2.92,2.92,0,0,0-.87-2.19A3.1,3.1,0,0,0,441.61,28.6Z"/><path class="cls-1" d="M453,43.18V25.4h3.33V40h6.53v3.2Z"/><path class="cls-1" d="M477.55,35.66H471v4.55h7.22v3H467.64V25.4H478v3h-7v4.32h6.58Z"/><path class="cls-1" d="M488.51,43.18l-6.8-17.78h3.47l4.88,12.78L494.9,25.4h3.37l-6.73,17.78Z"/><path class="cls-1" d="M366.5,56.2V53h14.65v3.2h-5.66V70.78h-3.33V56.2Z"/><path class="cls-1" d="M385.41,70.78V53h7a6,6,0,0,1,4.28,1.62,5.53,5.53,0,0,1,1.71,4.22,5.34,5.34,0,0,1-1.27,3.6,5.72,5.72,0,0,1-3.32,1.89l4.78,6.45h-3.75l-4.61-6.35h-1.44v6.35ZM391.85,56h-3.1v5.8h3.1a3.29,3.29,0,0,0,2.31-.79,2.65,2.65,0,0,0,.86-2.05,2.8,2.8,0,0,0-.89-2.11A3.18,3.18,0,0,0,391.85,56Z"/><path class="cls-1" d="M403.55,70.78V53h3.33V70.78Z"/><path class="cls-1" d="M417.82,70.78,411,53h3.47l4.88,12.78L424.21,53h3.37l-6.73,17.78Z"/><path class="cls-1" d="M435.83,71a8.55,8.55,0,0,1-3.35-.7,8.77,8.77,0,0,1-2.88-1.94l2.12-2.53a6.44,6.44,0,0,0,2,1.59A5,5,0,0,0,436,68a2.88,2.88,0,0,0,1.9-.61,1.91,1.91,0,0,0,.74-1.53,2.64,2.64,0,0,0-2-2.47l-2-.79a7.61,7.61,0,0,1-3-2,4.53,4.53,0,0,1-1-3,4.62,4.62,0,0,1,1.51-3.38,5.16,5.16,0,0,1,3.77-1.48,7.66,7.66,0,0,1,5.47,2l-2,2.48a4.58,4.58,0,0,0-3.51-1.54,2.38,2.38,0,0,0-1.59.51,1.58,1.58,0,0,0-.6,1.25,1.66,1.66,0,0,0,.47,1.22,4.71,4.71,0,0,0,1.53.92l2.07.83q4,1.58,4,5.13a5,5,0,0,1-1.67,3.89A6.48,6.48,0,0,1,435.83,71Z"/><path class="cls-1" d="M457,63.26H450.4v4.55h7.22v3H447.07V53h10.35v3h-7v4.32H457Z"/><path class="cls-1" d="M463,70.78V53h3.33V67.58h6.53v3.2Z"/><path class="cls-1" d="M488.65,70.78V63.35H481v7.43H477.7V53H481v7.15h7.61V53H492V70.78Z"/><path class="cls-1" d="M509.62,69.18a7.25,7.25,0,0,1-9.73,0,6.3,6.3,0,0,1-1.92-4.7V53h3.33V64a4.08,4.08,0,0,0,.92,2.74,3.54,3.54,0,0,0,5.07,0,4,4,0,0,0,.92-2.71V53h3.33V64.48A6.3,6.3,0,0,1,509.62,69.18Z"/><path class="cls-1" d="M522.29,71a8.55,8.55,0,0,1-3.35-.7,8.76,8.76,0,0,1-2.88-1.94l2.12-2.53a6.43,6.43,0,0,0,2,1.59,5,5,0,0,0,2.34.62,2.87,2.87,0,0,0,1.89-.61,1.91,1.91,0,0,0,.74-1.53,2.65,2.65,0,0,0-2-2.47l-2-.79a7.61,7.61,0,0,1-3-2,4.53,4.53,0,0,1-1-3,4.62,4.62,0,0,1,1.51-3.38,5.16,5.16,0,0,1,3.77-1.48,7.66,7.66,0,0,1,5.47,2l-2,2.48a4.58,4.58,0,0,0-3.51-1.54,2.38,2.38,0,0,0-1.59.51,1.58,1.58,0,0,0-.6,1.25,1.66,1.66,0,0,0,.47,1.22,4.73,4.73,0,0,0,1.53.92l2.07.83q4,1.58,4,5.13a5,5,0,0,1-1.67,3.89A6.48,6.48,0,0,1,522.29,71Z"/></svg>