<svg id="Layer_1" data-name="Layer 1" xmlns="http://www.w3.org/2000/svg" viewBox="0 0 740 160"><defs><style>.cls-1{fill:#d80201;}</style></defs><title>text</title><path class="cls-1" d="M366.89,120.62l-5.46-6.12-.38.38v5.74h-1.48V107.28h1.48V113l5.68-5.72h2l-6.24,6.22,6.44,7.12Z"/><path class="cls-1" d="M373.45,121.16l-4.08-8.84H371l2.48,5.58,2.46-5.58h1.6Z"/><path class="cls-1" d="M385.09,120.62v-1.16a3.54,3.54,0,0,1-2.88,1.4c-2.48,0-4-2.08-4-4.42a4,4,0,0,1,4-4.32,3.51,3.51,0,0,1,2.9,1.38v-1.18h1.42v8.3Zm-2.68-7.22a2.83,2.83,0,0,0-2.74,3,2.86,2.86,0,0,0,2.74,3.12,2.83,2.83,0,0,0,2.76-3.12A2.8,2.8,0,0,0,382.41,113.4Z"/><path class="cls-1" d="M393.13,113.76a1.26,1.26,0,0,0-.84-.28,1.54,1.54,0,0,0-.72.18c-.92.5-.92,1.68-.92,2.58v4.38h-1.42v-8.3h1.42v.9a2.22,2.22,0,0,1,1.88-1.1,2.36,2.36,0,0,1,1.28.34Z"/><path class="cls-1" d="M400.35,120.62v-4.9c0-1.3-.18-2.32-1.74-2.32-1.84,0-2.06,1.6-2.06,3.06v4.16h-1.42v-8.3h1.42v1a3,3,0,0,1,4.76-.06,3.8,3.8,0,0,1,.48,2.2v5.16Z"/><path class="cls-1" d="M411.49,123.7a4,4,0,0,1-3.32,1.54,3.74,3.74,0,0,1-4-3.8h1.42a2.48,2.48,0,0,0,2.64,2.52c2,0,2.66-1.5,2.66-3.28v-1.22a3.75,3.75,0,0,1-2.92,1.38,4.38,4.38,0,0,1,.06-8.72,3.55,3.55,0,0,1,2.86,1.36v-1.16h1.44v8.12A5,5,0,0,1,411.49,123.7Zm-3.34-10.3a2.85,2.85,0,0,0-2.72,3.14,2.8,2.8,0,0,0,2.72,3,3.1,3.1,0,0,0,0-6.16Z"/><path class="cls-1" d="M421.35,120.62v-1.16a3.54,3.54,0,0,1-2.88,1.4c-2.48,0-4-2.08-4-4.42a4,4,0,0,1,4-4.32,3.51,3.51,0,0,1,2.9,1.38v-1.18h1.42v8.3Zm-2.68-7.22a2.83,2.83,0,0,0-2.74,3,2.86,2.86,0,0,0,2.74,3.12,2.83,2.83,0,0,0,2.76-3.12A2.8,2.8,0,0,0,418.67,113.4Z"/><path class="cls-1" d="M426.93,113.64v7h-1.44v-7h-.86v-1.32h.86v-3h1.44v3h1.46v1.32Z"/><path class="cls-1" d="M436.11,120.62v-1.16a3.54,3.54,0,0,1-2.88,1.4c-2.48,0-4-2.08-4-4.42a4,4,0,0,1,4-4.32,3.51,3.51,0,0,1,2.9,1.38v-1.18h1.42v8.3Zm-2.68-7.22a2.83,2.83,0,0,0-2.74,3,2.86,2.86,0,0,0,2.74,3.12,2.83,2.83,0,0,0,2.76-3.12A2.8,2.8,0,0,0,433.43,113.4Z"/><path class="cls-1" d="M445.47,120.62v-4.9c0-1.3-.18-2.32-1.74-2.32-1.84,0-2.06,1.6-2.06,3.06v4.16h-1.42v-8.3h1.42v1a3,3,0,0,1,4.76-.06,3.8,3.8,0,0,1,.48,2.2v5.16Z"/><path class="cls-1" d="M460,116.12l-2.74,3.12h5.6v1.38h-8.62l4.86-5.62c.9-1,2.3-2.54,2.3-4a2.66,2.66,0,0,0-5.32.16h-1.5a5.52,5.52,0,0,1,.28-1.5,4.17,4.17,0,0,1,8,1.36C462.91,113,461.27,114.72,460,116.12Z"/><path class="cls-1" d="M470.29,120.84a4.59,4.59,0,0,1-4.62-4.52,5.34,5.34,0,0,1,1.1-3.06l4.54-6.3,1.12.84-3.06,4.26a4.19,4.19,0,0,1,1.22-.18,4.34,4.34,0,0,1,4.28,4.4A4.6,4.6,0,0,1,470.29,120.84Zm0-7.64a3.13,3.13,0,1,0,3.12,3.12A3.12,3.12,0,0,0,470.27,113.2Z"/><path class="cls-1" d="M486.57,120.62,485,116.84h-5.7l-1.6,3.78h-1.62l6.14-14,6,14Zm-4.38-10.5-2.28,5.34h4.52Z"/><path class="cls-1" d="M489.77,123.66l-.94-.38,1.64-4.62,1.32.48Z"/><path class="cls-1" d="M507.93,120.62V114.1h-6.82v6.52h-1.48V107.28h1.48v5.44h6.82v-5.44h1.5v13.34Z"/><path class="cls-1" d="M516.37,120.86a4.37,4.37,0,1,1,4.38-4.36A4.34,4.34,0,0,1,516.37,120.86Zm0-7.44a3.07,3.07,0,1,0,2.94,3.08A2.91,2.91,0,0,0,516.35,113.42Zm-1.72-2.8a1,1,0,0,1-1-1,1,1,0,1,1,1,1Zm3.48,0a1,1,0,0,1-1-1,1,1,0,1,1,1,1Z"/><path class="cls-1" d="M526.79,120.86a4.37,4.37,0,1,1,4.38-4.36A4.34,4.34,0,0,1,526.79,120.86Zm0-7.44a3.07,3.07,0,1,0,2.94,3.08A2.91,2.91,0,0,0,526.77,113.42Zm-1.72-2.8a1,1,0,0,1-1-1,1,1,0,1,1,1,1Zm3.48,0a1,1,0,0,1-1-1,1,1,0,1,1,1,1Z"/><path class="cls-1" d="M537.25,113.76a1.26,1.26,0,0,0-.84-.28,1.54,1.54,0,0,0-.72.18c-.92.5-.92,1.68-.92,2.58v4.38h-1.42v-8.3h1.42v.9a2.22,2.22,0,0,1,1.88-1.1,2.36,2.36,0,0,1,1.28.34Z"/><path class="cls-1" d="M349.08,141.86a4.08,4.08,0,0,1-4.12-3.44l1.44-.4a2.71,2.71,0,0,0,2.72,2.44,2.63,2.63,0,0,0,2.68-2.64c0-3.14-6.16-2.4-6.16-6.32a3.52,3.52,0,0,1,3.74-3.44,3.8,3.8,0,0,1,3.44,2.08l-1.18.78a2.47,2.47,0,0,0-2.28-1.46,2.12,2.12,0,0,0-2.22,2c0,2.76,6.16,2,6.16,6.26A4.11,4.11,0,0,1,349.08,141.86Z"/><path class="cls-1" d="M359.52,141.86a4.37,4.37,0,1,1,4.38-4.36A4.34,4.34,0,0,1,359.52,141.86Zm0-7.44a3.07,3.07,0,1,0,2.94,3.08A2.91,2.91,0,0,0,359.5,134.42Zm-1.72-2.8a1,1,0,0,1-1-1,1,1,0,1,1,1,1Zm3.48,0a1,1,0,0,1-1-1,1,1,0,1,1,1,1Z"/><path class="cls-1" d="M371.3,141.62v-4.9c0-1.3-.18-2.32-1.74-2.32-1.84,0-2.06,1.6-2.06,3.06v4.16h-1.42v-8.3h1.42v1a3,3,0,0,1,4.76-.06,3.8,3.8,0,0,1,.48,2.2v5.16Z"/><path class="cls-1" d="M381.8,141.62v-1.16a3.54,3.54,0,0,1-2.88,1.4,4.11,4.11,0,0,1-4-4.4,4.06,4.06,0,0,1,4-4.34,3.56,3.56,0,0,1,2.9,1.38V127h1.42v14.58Zm-2.68-7.2a3.09,3.09,0,1,0,2.76,3A2.78,2.78,0,0,0,379.12,134.42Z"/><path class="cls-1" d="M392.28,141.62v-1.16a3.54,3.54,0,0,1-2.88,1.4c-2.48,0-4-2.08-4-4.42a4,4,0,0,1,4-4.32,3.51,3.51,0,0,1,2.9,1.38v-1.18h1.42v8.3Zm-2.68-7.22a2.83,2.83,0,0,0-2.74,3,2.86,2.86,0,0,0,2.74,3.12,2.83,2.83,0,0,0,2.76-3.12A2.8,2.8,0,0,0,389.6,134.4Z"/><path class="cls-1" d="M403.4,144.7a4,4,0,0,1-3.32,1.54,3.74,3.74,0,0,1-4-3.8h1.42A2.48,2.48,0,0,0,400.1,145c2,0,2.66-1.5,2.66-3.28v-1.22a3.75,3.75,0,0,1-2.92,1.38,4.38,4.38,0,0,1,.06-8.72,3.55,3.55,0,0,1,2.86,1.36v-1.16h1.44v8.12A5,5,0,0,1,403.4,144.7Zm-3.34-10.3a2.85,2.85,0,0,0-2.72,3.14,2.8,2.8,0,0,0,2.72,3,3.1,3.1,0,0,0,0-6.16Z"/><path class="cls-1" d="M417.32,137.12l-2.74,3.12h5.6v1.38h-8.62l4.86-5.62c.9-1,2.3-2.54,2.3-4a2.66,2.66,0,0,0-5.32.16h-1.5a5.52,5.52,0,0,1,.28-1.5,4.17,4.17,0,0,1,8,1.36C420.2,134,418.56,135.72,417.32,137.12Z"/><path class="cls-1" d="M427.2,141.62V129.68H425l.78-1.4h2.92v13.34Z"/><path class="cls-1" d="M443.46,141.86a4.37,4.37,0,1,1,4.38-4.36A4.34,4.34,0,0,1,443.46,141.86Zm0-7.44a3.07,3.07,0,1,0,2.94,3.08A2.91,2.91,0,0,0,443.44,134.42Z"/><path class="cls-1" d="M455.16,141.62l-3.36-3.78-.36.36v3.42H450V127h1.42v9.34l3-3.06h1.9l-3.56,3.52,4.22,4.78Z"/><path class="cls-1" d="M459.88,134.64v7h-1.44v-7h-.86v-1.32h.86v-3h1.44v3h1.46v1.32Z"/><path class="cls-1" d="M466.58,141.86A4.37,4.37,0,1,1,471,137.5,4.34,4.34,0,0,1,466.58,141.86Zm0-7.44a3.07,3.07,0,1,0,2.94,3.08A2.91,2.91,0,0,0,466.56,134.42Z"/><path class="cls-1" d="M477.44,141.86a3.54,3.54,0,0,1-2.88-1.4v1.16h-1.42V127h1.42v7.46a3.56,3.56,0,0,1,2.9-1.38,4.06,4.06,0,0,1,4,4.34A4.11,4.11,0,0,1,477.44,141.86Zm-.2-7.44a2.79,2.79,0,0,0-2.76,3.06,2.76,2.76,0,1,0,2.76-3.06Z"/><path class="cls-1" d="M484.58,137.76a2.69,2.69,0,0,0,2.64,2.8,2.86,2.86,0,0,0,2.56-1.72l1.2.66a4.14,4.14,0,0,1-3.8,2.36,4,4,0,0,1-4.1-4.34c0-2.4,1.5-4.4,4-4.4s4,2,4,4.36v.28Zm2.56-3.34a2.55,2.55,0,0,0-2.46,2.14h4.88A2.49,2.49,0,0,0,487.14,134.42Z"/><path class="cls-1" d="M497.14,134.76a1.26,1.26,0,0,0-.84-.28,1.54,1.54,0,0,0-.72.18c-.92.5-.92,1.68-.92,2.58v4.38h-1.42v-8.3h1.42v.9a2.22,2.22,0,0,1,1.88-1.1,2.36,2.36,0,0,1,1.28.34Z"/><path class="cls-1" d="M508.08,141.62V129.68h-2.22l.78-1.4h2.92v13.34Z"/><path class="cls-1" d="M520.88,137.12l-2.74,3.12h5.6v1.38h-8.62L520,136c.9-1,2.3-2.54,2.3-4a2.66,2.66,0,0,0-5.32.16h-1.5a5.52,5.52,0,0,1,.28-1.5,4.17,4.17,0,0,1,8,1.36C523.76,134,522.12,135.72,520.88,137.12Z"/><path class="cls-1" d="M525.46,138v-1.28h3.62V138Z"/><path class="cls-1" d="M534.38,141.62V129.68h-2.22l.78-1.4h2.92v13.34Z"/><path class="cls-1" d="M549.12,139.44v2.18h-1.48v-2.18H540.8l8.32-11.9v10.54h1.64v1.36Zm-1.48-7.38-4.22,6h4.22Z"/></svg>