<svg id="Layer_1" data-name="Layer 1" xmlns="http://www.w3.org/2000/svg" viewBox="0 0 740 160"><defs><style>.cls-1{fill:#d80201;}</style></defs><title>text</title><path class="cls-1" d="M328.09,47.17l-7.85-9.87-.5.49v9.38h-4.29v-22h4.29v9.31l8.09-9.31h5.41l-9.3,10.17,9.8,11.85Z"/><path class="cls-1" d="M335.85,47.17V22.45h4V47.17Z"/><path class="cls-1" d="M345.61,29.25A2.41,2.41,0,1,1,348,26.84,2.42,2.42,0,0,1,345.61,29.25Zm-2,17.92V32.88h4V47.17Z"/><path class="cls-1" d="M369.61,47.17V39.34c0-1.68-.27-3.53-2.38-3.53-2.34,0-2.74,2.15-2.74,4v7.33h-4V39.58a6.32,6.32,0,0,0-.3-2.38,2.31,2.31,0,0,0-2.14-1.39,2.62,2.62,0,0,0-2.25,1.29,5.92,5.92,0,0,0-.46,2.74v7.33h-4V32.88h4v1.61a5.5,5.5,0,0,1,4.36-2.08A4.86,4.86,0,0,1,364.16,35a5.3,5.3,0,0,1,4.69-2.61,4.71,4.71,0,0,1,4,2.05,6.3,6.3,0,0,1,.76,3.47v9.24Z"/><path class="cls-1" d="M388.35,47.17V45.29a5.52,5.52,0,0,1-4.65,2.34c-4.29,0-7-3.57-7-7.66s2.74-7.56,6.93-7.56a6,6,0,0,1,4.75,2.28V32.88h4V47.17ZM384.79,36a4,4,0,1,0,4,4A4,4,0,0,0,384.79,36Z"/><path class="cls-1" d="M400.23,36.31V47.17h-4V36.31h-1.59V32.88h1.59V28h4v4.89H403v3.43Z"/><path class="cls-1" d="M409.67,47.63a7.59,7.59,0,0,1-5.45-2.38l2.11-2.44a4.64,4.64,0,0,0,3.37,1.68,1.69,1.69,0,0,0,1.82-1.58c0-2.44-6.37-1.22-6.37-6,0-2.9,2.4-4.52,5.11-4.52a7.32,7.32,0,0,1,4.65,1.52l-2,2.34a4,4,0,0,0-2.37-1c-.7,0-1.52.43-1.52,1.22,0,2.08,6.6,1.16,6.6,6C415.64,45.85,412.74,47.63,409.67,47.63Z"/><path class="cls-1" d="M436.73,47.17V39.34c0-1.68-.27-3.53-2.38-3.53-2.34,0-2.74,2.15-2.74,4v7.33h-4V39.58a6.32,6.32,0,0,0-.3-2.38,2.31,2.31,0,0,0-2.14-1.39,2.62,2.62,0,0,0-2.25,1.29,5.92,5.92,0,0,0-.46,2.74v7.33h-4V32.88h4v1.61a5.5,5.5,0,0,1,4.36-2.08A4.86,4.86,0,0,1,431.28,35,5.31,5.31,0,0,1,436,32.41a4.7,4.7,0,0,1,4,2.05,6.3,6.3,0,0,1,.76,3.47v9.24Z"/><path class="cls-1" d="M455.47,47.17V45.29a5.52,5.52,0,0,1-4.65,2.34c-4.29,0-7-3.57-7-7.66s2.74-7.56,6.93-7.56a6,6,0,0,1,4.75,2.28V32.88h4V47.17ZM451.91,36a4,4,0,1,0,4,4A4,4,0,0,0,451.91,36Z"/><path class="cls-1" d="M472.66,36.51a3.46,3.46,0,0,0-1.91-.5c-2.71,0-3.43,1.92-3.43,4.29v6.87h-4V32.88h4V35a4.58,4.58,0,0,1,4.16-2.61,4.64,4.64,0,0,1,1.75.33Z"/><path class="cls-1" d="M480,36.31V47.17h-4V36.31h-1.58V32.88H476V28h4v4.89h2.8v3.43Z"/><path class="cls-1" d="M501.77,47.63a5.63,5.63,0,0,1-4.69-2.34v1.88h-4V22.45h4V34.69a6.09,6.09,0,0,1,4.79-2.28c4.19,0,7,3.57,7,7.56S506.06,47.63,501.77,47.63ZM500.68,36a4,4,0,1,0,4,4A4,4,0,0,0,500.68,36Z"/><path class="cls-1" d="M519.29,47.63c-4.55,0-8.18-2.84-8.18-7.59s3.63-7.63,8.21-7.63,8.12,2.88,8.12,7.59S523.81,47.63,519.29,47.63Zm0-11.62a4,4,0,1,0,4.06,4A4.05,4.05,0,0,0,519.26,36Z"/><path class="cls-1" d="M535.06,47.63a7.59,7.59,0,0,1-5.44-2.38l2.11-2.44a4.62,4.62,0,0,0,3.37,1.68,1.68,1.68,0,0,0,1.81-1.58c0-2.44-6.37-1.22-6.37-6,0-2.9,2.41-4.52,5.12-4.52a7.34,7.34,0,0,1,4.65,1.52l-2,2.34a4,4,0,0,0-2.38-1c-.69,0-1.51.43-1.51,1.22,0,2.08,6.6,1.16,6.6,6C541,45.85,538.13,47.63,535.06,47.63Z"/><path class="cls-1" d="M547.9,36.31V47.17h-4V36.31h-1.59V32.88h1.59V28h4v4.89h2.81v3.43Z"/><path class="cls-1" d="M563.71,47.17V45.29a5.52,5.52,0,0,1-4.66,2.34c-4.29,0-7-3.57-7-7.66s2.74-7.56,6.94-7.56a6,6,0,0,1,4.75,2.28V32.88h4V47.17ZM560.14,36a4,4,0,1,0,4,4A4,4,0,0,0,560.14,36Z"/><path class="cls-1" d="M582.48,47.17V45.29a5.51,5.51,0,0,1-4.65,2.34c-4.29,0-7-3.57-7-7.66s2.74-7.56,6.93-7.56a6,6,0,0,1,4.75,2.28V22.45h4V47.17ZM578.92,36a4,4,0,1,0,4,4A4,4,0,0,0,578.92,36Z"/><path class="cls-1" d="M324.76,85.17h-7.39v-22h5.44c1.78,0,4,.17,5.38,1.32a5.89,5.89,0,0,1,2,4.52,4.62,4.62,0,0,1-2.41,4.43,5,5,0,0,1,2.87,1.38,5.92,5.92,0,0,1,1.59,4.13C332.22,83.32,328.72,85.17,324.76,85.17Zm-1.85-18.52h-1.25v5.68h1.22c1.91,0,3.33-.76,3.33-2.84S324.82,66.65,322.91,66.65Zm.73,8.95h-2v6.1h1.84c2.12,0,4.29-.49,4.29-3.07S325.68,75.6,323.64,75.6Z"/><path class="cls-1" d="M338.88,78.67c.07,2.21,1.12,3.82,3.5,3.82a3.74,3.74,0,0,0,3.4-1.91l3.7.59c-1.26,3.07-3.8,4.46-7,4.46-4.62,0-7.66-3-7.66-7.63s2.9-7.59,7.49-7.59,7.3,3.17,7.3,7.73v.53Zm3.47-5.42A3.24,3.24,0,0,0,339,76.12h6.77A3.31,3.31,0,0,0,342.35,73.25Z"/><path class="cls-1" d="M357.2,85.63a7.59,7.59,0,0,1-5.45-2.38l2.11-2.44a4.64,4.64,0,0,0,3.37,1.68A1.68,1.68,0,0,0,359,80.91c0-2.44-6.37-1.22-6.37-6,0-2.9,2.41-4.52,5.12-4.52a7.32,7.32,0,0,1,4.65,1.52l-2,2.34a4,4,0,0,0-2.37-1c-.7,0-1.52.43-1.52,1.22,0,2.08,6.6,1.16,6.6,6C363.17,83.85,360.27,85.63,357.2,85.63Z"/><path class="cls-1" d="M373.43,85.63c-4.55,0-8.18-2.84-8.18-7.59s3.63-7.63,8.22-7.63,8.12,2.88,8.12,7.59S378,85.63,373.43,85.63ZM370,68.2a2.38,2.38,0,1,1,0-4.75,2.38,2.38,0,0,1,0,4.75ZM373.4,74a4,4,0,1,0,4.06,4A4.05,4.05,0,0,0,373.4,74Zm3.43-5.81a2.41,2.41,0,0,1-2.37-2.37,2.38,2.38,0,1,1,2.37,2.37Z"/><path class="cls-1" d="M394.45,85.17,389.07,79l-.42.43v5.71h-4V60.45h4V76.09L394,70.88h5.41l-6.7,6.27,7.23,8Z"/><path class="cls-1" d="M424.19,85.17V75.36h-9.31v9.81h-4.29v-22h4.29v8.52h9.31V63.15h4.29v22Z"/><path class="cls-1" d="M444.15,85.66A11.42,11.42,0,0,1,432.4,74.21a11.77,11.77,0,1,1,11.75,11.45Zm0-19.07a7.59,7.59,0,1,0,7.36,7.55A7.47,7.47,0,0,0,444.15,66.59Z"/><path class="cls-1" d="M480.29,85.17l-2-13.57-6.07,13.86h-1.19L465.24,71.6,463,85.17H458.7l4.1-22.41h2.93l6,14.39L478,62.76H481l3.66,22.41Z"/><path class="cls-1" d="M488.54,85.17v-22h12.17v3.73h-7.88v4.89h7.59V75.5h-7.59v5.94h7.88v3.73Z"/><path class="cls-1" d="M529.89,72.46h-3.34l-.46,3h3.37L528.9,79h-3.37l-1,6.14h-4.13l1-6.14h-3l-1,6.14h-4.09l1-6.14h-3.4l.56-3.6h3.4l.46-3H512l.57-3.63h3.36l.89-5.68h4.1L520,68.83h3l.89-5.68H528l-.9,5.68h3.34Zm-10.5,0-.46,3h3l.46-3Z"/><path class="cls-1" d="M539.62,85.73c-4.46,0-8.25-2.87-8.25-7.56,0-2.54,1.32-5,2.77-7,2.18-3,4.46-6,6.7-9l3,2.31-5.22,6.67a6.79,6.79,0,0,1,9.41,6.73C548.07,82.86,544.34,85.73,539.62,85.73Zm.13-11.62a4.11,4.11,0,1,0,4,4.09A4.07,4.07,0,0,0,539.75,74.11Z"/><path class="cls-1" d="M558.43,85.73c-6.07,0-8.52-6.4-8.52-11.55s2.41-11.59,8.52-11.59,8.51,6.37,8.51,11.55S564.54,85.73,558.43,85.73Zm0-19.34c-3.37,0-4.23,5.21-4.23,7.75s.86,7.83,4.23,7.83,4.22-5.29,4.22-7.83S561.8,66.39,558.43,66.39Z"/><path class="cls-1" d="M575.29,85.17V66.92h-3.17V63.15h7.46v22Z"/></svg>