<svg id="Layer_1" data-name="Layer 1" xmlns="http://www.w3.org/2000/svg" viewBox="0 0 740 160"><defs><style>.cls-1{fill:#d80201;}</style></defs><title>text</title><path class="cls-1" d="M348,47.69a8.57,8.57,0,0,1-7.56-4.19l2.77-2.67a5,5,0,0,0,4.62,2.94,3.13,3.13,0,0,0,3.4-3.1c0-4.52-9.67-2.38-9.67-9.47,0-3.89,3.14-6.4,6.86-6.4a9.65,9.65,0,0,1,6.44,2.44l-2.24,2.94a4.46,4.46,0,0,0-3.56-1.78c-1.42,0-3.07.89-3.07,2.48,0,3.73,9.67,1.88,9.67,9.57C355.66,44.92,352.36,47.69,348,47.69Z"/><path class="cls-1" d="M365.73,47.63c-3.93,0-6.9-1.75-6.9-6V32.88h4V41c0,1.95.83,3.27,2.9,3.27s2.9-1.32,2.9-3.27V32.88h4v8.75C372.66,45.88,369.66,47.63,365.73,47.63Z"/><path class="cls-1" d="M383.51,47.63a7.53,7.53,0,0,1-7.79-7.56,7.63,7.63,0,0,1,7.85-7.66,7.36,7.36,0,0,1,3.63.86v4A4.93,4.93,0,0,0,384,36a4,4,0,1,0,0,8,4.87,4.87,0,0,0,3.23-1.22v3.93A7.64,7.64,0,0,1,383.51,47.63Z"/><path class="cls-1" d="M397.28,47.63a7.53,7.53,0,0,1-7.79-7.56,7.63,7.63,0,0,1,7.85-7.66,7.36,7.36,0,0,1,3.63.86v4A4.93,4.93,0,0,0,397.74,36a4,4,0,1,0,0,8A4.87,4.87,0,0,0,401,42.81v3.93A7.64,7.64,0,0,1,397.28,47.63Z"/><path class="cls-1" d="M407.34,40.67c.07,2.21,1.12,3.83,3.5,3.83a3.74,3.74,0,0,0,3.4-1.91l3.7.59c-1.25,3.07-3.8,4.46-7,4.46-4.62,0-7.66-3-7.66-7.62s2.9-7.59,7.49-7.59S418,35.58,418,40.14v.53Zm3.47-5.41a3.24,3.24,0,0,0-3.33,2.87h6.77A3.31,3.31,0,0,0,410.81,35.25Zm.07-4.88L409,29l3.93-5,2.9,1.85Z"/><path class="cls-1" d="M428.36,47.46h-1.85l-7.29-14.59h4.49l3.76,8.05,3.76-8.05h4.49Z"/><path class="cls-1" d="M439.61,29.25a2.41,2.41,0,0,1,0-4.82,2.41,2.41,0,0,1,0,4.82Zm-2,17.92V32.88h4V47.17Z"/><path class="cls-1" d="M449.91,47.63a7.6,7.6,0,0,1-5.45-2.38l2.11-2.44a4.64,4.64,0,0,0,3.37,1.68,1.68,1.68,0,0,0,1.82-1.58c0-2.44-6.37-1.22-6.37-6,0-2.9,2.41-4.52,5.12-4.52a7.36,7.36,0,0,1,4.65,1.52l-2,2.34a4,4,0,0,0-2.38-1c-.69,0-1.52.43-1.52,1.22,0,2.08,6.6,1.15,6.6,6C455.88,45.85,453,47.63,449.91,47.63Z"/><path class="cls-1" d="M468.49,47.17V39.25c0-1.95-.43-3.43-2.71-3.43-2.48,0-3.07,1.81-3.07,4v7.39h-4V32.88h4v1.75a5.28,5.28,0,0,1,4.49-2.21,5.48,5.48,0,0,1,4.16,1.72,5.5,5.5,0,0,1,1.12,4v9.08Z"/><path class="cls-1" d="M478.25,29.25a2.41,2.41,0,0,1,0-4.82,2.41,2.41,0,0,1,0,4.82Zm-2,17.92V32.88h4V47.17Z"/><path class="cls-1" d="M493.77,47.17V39.25c0-1.95-.43-3.43-2.71-3.43-2.48,0-3.07,1.81-3.07,4v7.39h-4V32.88h4v1.75a5.28,5.28,0,0,1,4.49-2.21,5.48,5.48,0,0,1,4.16,1.72,5.5,5.5,0,0,1,1.12,4v9.08Z"/><path class="cls-1" d="M514.85,52.35a7.79,7.79,0,0,1-6.07,2.51c-3.66,0-7.2-2.11-7.59-6h4.32a3.18,3.18,0,0,0,3.4,2.61c2.51,0,3.53-1.75,3.53-4.06V45.25a5.94,5.94,0,0,1-4.82,2.38c-4.22,0-6.8-3.4-6.8-7.43s2.64-7.79,7-7.79a5.36,5.36,0,0,1,4.62,2.31V32.88h4V46.64C516.47,48.88,516.37,50.57,514.85,52.35ZM508.95,36a4,4,0,1,0,4,4A4,4,0,0,0,508.95,36Z"/><path class="cls-1" d="M539.47,47.17V45.29a5.52,5.52,0,0,1-4.65,2.34c-4.29,0-7-3.56-7-7.66s2.74-7.56,6.93-7.56a6,6,0,0,1,4.75,2.28V32.88h4V47.17ZM535.91,36a4,4,0,1,0,4,4A4,4,0,0,0,535.91,36Z"/><path class="cls-1" d="M554.58,47.46h-1.85l-7.29-14.59h4.49l3.76,8.05,3.76-8.05h4.49Z"/><path class="cls-1" d="M348.34,74.31V85.17h-4V74.31h-1.55V70.88h1.55V66.29a7,7,0,0,1,.63-3.37,5.66,5.66,0,0,1,5-2.87,4.73,4.73,0,0,1,2.11.5v3.66a4,4,0,0,0-1.82-.53c-1.78,0-1.88,1.85-1.88,3.2v4H352v3.43Z"/><path class="cls-1" d="M363.22,74.51a3.53,3.53,0,0,0-1.91-.5c-2.71,0-3.43,1.91-3.43,4.29v6.86h-4V70.88h4V73a4.66,4.66,0,0,1,5.91-2.28Z"/><path class="cls-1" d="M376.68,85.17V83.29A5.52,5.52,0,0,1,372,85.63c-4.29,0-7-3.56-7-7.66s2.74-7.56,6.93-7.56a6,6,0,0,1,4.75,2.28V70.88h4V85.17ZM373.12,74a4,4,0,1,0,4,4A4,4,0,0,0,373.12,74Z"/><path class="cls-1" d="M402.79,85.17V77.34c0-1.68-.26-3.53-2.38-3.53-2.34,0-2.74,2.15-2.74,4v7.33h-4V77.58a6.37,6.37,0,0,0-.3-2.38,2.31,2.31,0,0,0-2.15-1.39A2.6,2.6,0,0,0,389,75.1a5.93,5.93,0,0,0-.46,2.74v7.33h-4V70.88h4v1.62a5.49,5.49,0,0,1,4.36-2.08A4.86,4.86,0,0,1,397.34,73,5.28,5.28,0,0,1,402,70.41a4.7,4.7,0,0,1,4,2,6.3,6.3,0,0,1,.76,3.47v9.24Z"/><path class="cls-1" d="M414.63,74.31V85.17h-4V74.31h-1.58V70.88h1.58V66h4v4.88h2.81v3.43Z"/><path class="cls-1" d="M421.46,67.25a2.41,2.41,0,0,1,0-4.82,2.41,2.41,0,0,1,0,4.82Zm-2,17.92V70.88h4V85.17Z"/><path class="cls-1" d="M438.13,85.17V83.29a5.52,5.52,0,0,1-4.65,2.34c-4.29,0-7-3.56-7-7.66s2.74-7.56,6.93-7.56a6,6,0,0,1,4.75,2.28V60.45h4V85.17ZM434.56,74a4,4,0,1,0,4,4A4,4,0,0,0,434.56,74Z"/><path class="cls-1" d="M449.31,78.67c.07,2.21,1.12,3.83,3.5,3.83a3.74,3.74,0,0,0,3.4-1.91l3.7.59c-1.25,3.07-3.8,4.46-7,4.46-4.62,0-7.66-3-7.66-7.62s2.9-7.59,7.49-7.59S460,73.58,460,78.14v.53Zm3.47-5.41a3.24,3.24,0,0,0-3.33,2.87h6.77A3.31,3.31,0,0,0,452.78,73.25Z"/><path class="cls-1" d="M472.84,85.17V77.25c0-1.95-.43-3.43-2.71-3.43-2.48,0-3.07,1.81-3.07,4v7.39h-4V70.88h4v1.75a5.28,5.28,0,0,1,4.49-2.21,4.94,4.94,0,0,1,5.28,5.68v9.08Z"/><path class="cls-1" d="M485.22,85.63a7.6,7.6,0,0,1-5.45-2.38l2.11-2.44a4.64,4.64,0,0,0,3.37,1.68,1.68,1.68,0,0,0,1.82-1.58c0-2.44-6.37-1.22-6.37-6,0-2.9,2.41-4.52,5.12-4.52a7.36,7.36,0,0,1,4.65,1.52l-2,2.34a4,4,0,0,0-2.38-1c-.69,0-1.52.43-1.52,1.22,0,2.08,6.6,1.15,6.6,6C491.19,83.85,488.29,85.63,485.22,85.63Z"/><path class="cls-1" d="M509.54,85.46h-1.85L500.4,70.88h4.49l3.76,8.05,3.76-8.05h4.49Z"/><path class="cls-1" d="M520.79,67.25a2.41,2.41,0,0,1,0-4.82,2.41,2.41,0,0,1,0,4.82Zm-2,17.92V70.88h4V85.17Z"/><path class="cls-1" d="M526.53,85.17V60.45h4V85.17Z"/><path class="cls-1" d="M534.35,85.17V60.45h4V85.17Z"/><path class="cls-1" d="M553.1,85.17V83.29a5.52,5.52,0,0,1-4.65,2.34c-4.29,0-7-3.56-7-7.66s2.74-7.56,6.93-7.56a6,6,0,0,1,4.75,2.28V70.88h4V85.17ZM549.54,74a4,4,0,1,0,4,4A4,4,0,0,0,549.54,74Z"/></svg>