<svg id="Layer_1" data-name="Layer 1" xmlns="http://www.w3.org/2000/svg" viewBox="0 0 740 160"><defs><style>.cls-1{fill:#d80201;}</style></defs><title>text</title><path class="cls-1" d="M380.07,37.07c-2.15,2.31-5.51,1.94-8.39,1.94v8.16h-4.29v-22h6.41c2.18,0,4.09.17,5.81,1.69a7,7,0,0,1,2.24,5.31A7.24,7.24,0,0,1,380.07,37.07Zm-3.76-7.49a5.16,5.16,0,0,0-3.14-.7h-1.49v6.41h1.75c2.15,0,4-.7,4-3.17A3.27,3.27,0,0,0,376.31,29.58Z"/><path class="cls-1" d="M393.76,36.51a3.46,3.46,0,0,0-1.91-.5c-2.71,0-3.43,1.92-3.43,4.29v6.87h-4V32.88h4V35a4.65,4.65,0,0,1,5.9-2.28Z"/><path class="cls-1" d="M399.63,40.67c.07,2.21,1.13,3.82,3.5,3.82a3.73,3.73,0,0,0,3.4-1.91l3.7.59c-1.26,3.07-3.8,4.46-7,4.46-4.62,0-7.66-3-7.66-7.63s2.91-7.59,7.49-7.59,7.3,3.17,7.3,7.73v.53Zm3.47-5.42a3.23,3.23,0,0,0-3.33,2.87h6.76A3.31,3.31,0,0,0,403.1,35.25Z"/><path class="cls-1" d="M431.65,47.17V39.34c0-1.68-.27-3.53-2.38-3.53-2.34,0-2.74,2.15-2.74,4v7.33h-4V39.58a6.32,6.32,0,0,0-.3-2.38,2.31,2.31,0,0,0-2.15-1.39,2.61,2.61,0,0,0-2.24,1.29,5.92,5.92,0,0,0-.46,2.74v7.33h-4V32.88h4v1.61a5.5,5.5,0,0,1,4.36-2.08A4.87,4.87,0,0,1,426.2,35a5.3,5.3,0,0,1,4.69-2.61,4.71,4.71,0,0,1,4,2.05,6.3,6.3,0,0,1,.76,3.47v9.24Z"/><path class="cls-1" d="M441.41,29.25a2.41,2.41,0,0,1,0-4.82,2.41,2.41,0,0,1,0,4.82Zm-2,17.92V32.88h4V47.17Z"/><path class="cls-1" d="M458.08,47.17V45.29a5.52,5.52,0,0,1-4.66,2.34c-4.29,0-7-3.57-7-7.66s2.74-7.56,6.93-7.56a6,6,0,0,1,4.76,2.28V32.88h4V47.17Zm-6.9-17a2.38,2.38,0,1,1,0-4.75,2.38,2.38,0,1,1,0,4.75ZM454.51,36a4,4,0,1,0,4,4A4,4,0,0,0,454.51,36ZM458,30.2a2.41,2.41,0,0,1-2.37-2.37A2.38,2.38,0,1,1,458,30.2Z"/><path class="cls-1" d="M475.27,36.51a3.48,3.48,0,0,0-1.91-.5c-2.71,0-3.44,1.92-3.44,4.29v6.87h-4V32.88h4V35a4.66,4.66,0,0,1,5.91-2.28Z"/><path class="cls-1" d="M495.83,47.17V39.25c0-2-.43-3.44-2.71-3.44-2.47,0-3.07,1.82-3.07,4v7.4h-4V32.88h4v1.75a5.28,5.28,0,0,1,4.49-2.22,5.48,5.48,0,0,1,4.16,1.72,5.52,5.52,0,0,1,1.12,4v9.08Z"/><path class="cls-1" d="M507.08,54.82h-4.52l5.25-9.8L501,32.88h4.65L510,41l4.1-8.12h4.55Z"/><path class="cls-1" d="M524.6,36.31V47.17h-4V36.31H519V32.88h1.58V28h4v4.89h2.81v3.43Z"/><path class="cls-1" d="M533.51,36.31V47.17h-4V36.31h-1.58V32.88h1.58V28h4v4.89h2.81v3.43Z"/><path class="cls-1" d="M375.13,85.46h-1.85L366,70.88h4.49l3.76,8.05L378,70.88h4.49Z"/><path class="cls-1" d="M386.38,67.25a2.41,2.41,0,1,1,2.38-2.41A2.42,2.42,0,0,1,386.38,67.25Zm-2,17.92V70.88h4V85.17Z"/><path class="cls-1" d="M396.68,85.63a7.59,7.59,0,0,1-5.45-2.38l2.12-2.44a4.62,4.62,0,0,0,3.36,1.68,1.68,1.68,0,0,0,1.82-1.58c0-2.44-6.37-1.22-6.37-6,0-2.9,2.41-4.52,5.11-4.52a7.35,7.35,0,0,1,4.66,1.52l-2,2.34a4,4,0,0,0-2.38-1c-.69,0-1.52.43-1.52,1.22,0,2.08,6.6,1.16,6.6,6C402.65,83.85,399.75,85.63,396.68,85.63Z"/><path class="cls-1" d="M415.26,85.17V77.25c0-2-.43-3.44-2.71-3.44-2.47,0-3.07,1.82-3.07,4v7.4h-4V70.88h4v1.75A5.3,5.3,0,0,1,414,70.41a4.94,4.94,0,0,1,5.28,5.68v9.08Z"/><path class="cls-1" d="M425,67.25a2.41,2.41,0,1,1,0-4.82,2.41,2.41,0,0,1,0,4.82Zm-2,17.92V70.88h4V85.17Z"/><path class="cls-1" d="M440.54,85.17V77.25c0-2-.43-3.44-2.71-3.44-2.47,0-3.07,1.82-3.07,4v7.4h-4V70.88h4v1.75a5.28,5.28,0,0,1,4.49-2.22,4.94,4.94,0,0,1,5.28,5.68v9.08Z"/><path class="cls-1" d="M461.63,90.35a7.81,7.81,0,0,1-6.08,2.51c-3.66,0-7.19-2.12-7.59-6h4.32a3.19,3.19,0,0,0,3.4,2.61c2.51,0,3.54-1.75,3.54-4.06V83.25a6,6,0,0,1-4.82,2.38c-4.23,0-6.8-3.4-6.8-7.43s2.64-7.79,7-7.79a5.38,5.38,0,0,1,4.62,2.31V70.88h4V84.64C463.24,86.88,463.14,88.57,461.63,90.35ZM455.72,74a4,4,0,1,0,4,4A4,4,0,0,0,455.72,74Z"/><path class="cls-1" d="M471.62,85.63a7.59,7.59,0,0,1-5.44-2.38l2.11-2.44a4.62,4.62,0,0,0,3.37,1.68,1.68,1.68,0,0,0,1.81-1.58c0-2.44-6.37-1.22-6.37-6,0-2.9,2.41-4.52,5.12-4.52a7.34,7.34,0,0,1,4.65,1.52l-2,2.34a4,4,0,0,0-2.38-1c-.69,0-1.51.43-1.51,1.22,0,2.08,6.6,1.16,6.6,6C477.6,83.85,474.69,85.63,471.62,85.63Z"/><path class="cls-1" d="M490.2,85.17V77.34c0-2-.43-3.53-2.74-3.53-2.47,0-3,1.92-3,4v7.33h-4V60.45h4V72.72a5.2,5.2,0,0,1,4.49-2.31,5.47,5.47,0,0,1,4.15,1.75,5.64,5.64,0,0,1,1.13,4v9Z"/><path class="cls-1" d="M504.92,85.63c-3.93,0-6.9-1.75-6.9-6V70.88h4V79c0,2,.83,3.27,2.91,3.27s2.9-1.32,2.9-3.27V70.88h4v8.74C511.85,83.88,508.85,85.63,504.92,85.63Z"/><path class="cls-1" d="M520.23,85.63a7.59,7.59,0,0,1-5.45-2.38l2.12-2.44a4.62,4.62,0,0,0,3.36,1.68,1.68,1.68,0,0,0,1.82-1.58c0-2.44-6.37-1.22-6.37-6,0-2.9,2.41-4.52,5.11-4.52a7.35,7.35,0,0,1,4.66,1.52l-2,2.34a4,4,0,0,0-2.38-1c-.69,0-1.52.43-1.52,1.22,0,2.08,6.6,1.16,6.6,6C526.2,83.85,523.3,85.63,520.23,85.63Z"/><path class="cls-1" d="M531.25,85.6A2.58,2.58,0,1,1,533.83,83,2.58,2.58,0,0,1,531.25,85.6Zm-2-6.74V63.15h4.09V78.86Z"/></svg>