<svg id="Layer_1" data-name="Layer 1" xmlns="http://www.w3.org/2000/svg" viewBox="0 0 740 160"><defs><style>.cls-1{fill:#d4ac76;}</style></defs><title>text</title><path class="cls-1" d="M323.9,43.18V25.4h3.22l5.5,8.76,5.57-8.76h3.49V43.18h-3.33V31l-.27,0-5.52,8.51-5.37-8.4h.05v12.1Z"/><path class="cls-1" d="M365.05,34.28a9.24,9.24,0,1,1-15.77-6.52,9.24,9.24,0,0,1,15.77,6.52Zm-13.42,4.24a5.84,5.84,0,0,0,8.36,0A6.1,6.1,0,0,0,360,30a5.84,5.84,0,0,0-8.36,0,6.15,6.15,0,0,0,0,8.51Z"/><path class="cls-1" d="M370.16,43.18V25.4h5.07a8.75,8.75,0,0,1,6.3,2.54,8.58,8.58,0,0,1,2.61,6.41,8.29,8.29,0,0,1-2.65,6.34,9.06,9.06,0,0,1-6.44,2.49Zm5.11-14.81h-2V40.21h2.05a5.13,5.13,0,0,0,3.94-1.72,6.05,6.05,0,0,0,1.58-4.24,5.88,5.88,0,0,0-1.61-4.2A5.23,5.23,0,0,0,375.27,28.37Z"/><path class="cls-1" d="M399.25,35.66h-6.58v4.55h7.23v3H389.34V25.4h10.35v3h-7v4.32h6.58Z"/><path class="cls-1" d="M405.3,43.18V25.4h7A6,6,0,0,1,416.54,27a5.55,5.55,0,0,1,1.71,4.22,5.33,5.33,0,0,1-1.27,3.6,5.77,5.77,0,0,1-3.32,1.9l4.77,6.45h-3.74l-4.62-6.35h-1.43v6.35Zm6.44-14.81h-3.1v5.79h3.1a3.26,3.26,0,0,0,2.31-.79,2.63,2.63,0,0,0,.87-2,2.82,2.82,0,0,0-.89-2.11A3.18,3.18,0,0,0,411.74,28.37Z"/><path class="cls-1" d="M423.45,43.18V25.4h2.34l8.74,11.18V25.4h3.34V43.18h-2.23l-8.86-11.32V43.18Z"/><path class="cls-1" d="M458.28,43.18,451.49,25.4H455l4.88,12.78,4.82-12.78H468l-6.73,17.78Z"/><path class="cls-1" d="M482.14,35.66h-6.57v4.55h7.22v3H472.23V25.4h10.35v3h-7v4.32h6.57Z"/><path class="cls-1" d="M488.19,43.18V25.4h7A6,6,0,0,1,499.43,27a5.55,5.55,0,0,1,1.71,4.22,5.33,5.33,0,0,1-1.27,3.6,5.77,5.77,0,0,1-3.32,1.9l4.78,6.45h-3.75L493,36.83h-1.43v6.35Zm6.44-14.81h-3.1v5.79h3.1a3.26,3.26,0,0,0,2.31-.79,2.63,2.63,0,0,0,.87-2,2.82,2.82,0,0,0-.89-2.11A3.18,3.18,0,0,0,494.63,28.37Z"/><path class="cls-1" d="M511,43.41a8.92,8.92,0,0,1-6.23-2.65l2.12-2.53a6.53,6.53,0,0,0,2,1.59,5.06,5.06,0,0,0,2.34.62,2.84,2.84,0,0,0,1.89-.61,1.89,1.89,0,0,0,.74-1.53,2.65,2.65,0,0,0-1.95-2.47l-2-.79a7.59,7.59,0,0,1-2.95-2,4.5,4.5,0,0,1-1-3,4.58,4.58,0,0,1,1.51-3.37,5.15,5.15,0,0,1,3.77-1.49,7.66,7.66,0,0,1,5.47,2l-2,2.48a4.58,4.58,0,0,0-3.51-1.54,2.4,2.4,0,0,0-1.6.51,1.59,1.59,0,0,0-.6,1.25,1.66,1.66,0,0,0,.47,1.22,4.65,4.65,0,0,0,1.53.92l2.07.83q4,1.57,4,5.13a5,5,0,0,1-1.67,3.89A6.48,6.48,0,0,1,511,43.41Z"/><path class="cls-1" d="M522.23,43.18V25.4h3.34V43.18Z"/><path class="cls-1" d="M549.14,34.28a9.24,9.24,0,1,1-15.76-6.52,9.23,9.23,0,0,1,15.76,6.52Zm-13.42,4.24a5.84,5.84,0,0,0,8.36,0,6.1,6.1,0,0,0,0-8.51,5.84,5.84,0,0,0-8.36,0,6.15,6.15,0,0,0,0,8.51Z"/><path class="cls-1" d="M554.25,43.18V25.4h2.34l8.74,11.18V25.4h3.34V43.18h-2.23l-8.86-11.32V43.18Z"/><path class="cls-1" d="M331.43,70.78,338.28,53h3l6.83,17.78H344.7l-.95-2.46H335.8l-.95,2.46ZM339.79,58l-2.85,7.38h5.68Z"/><path class="cls-1" d="M355.75,70.78,349,53h3.47l4.89,12.78L362.13,53h3.37l-6.73,17.78Z"/><path class="cls-1" d="M384,71a8.72,8.72,0,0,1-3.36-.7,9,9,0,0,1-2.88-2l2.12-2.53a6.65,6.65,0,0,0,2,1.59,5.06,5.06,0,0,0,2.34.62,2.89,2.89,0,0,0,1.9-.61,1.92,1.92,0,0,0,.74-1.53,2.65,2.65,0,0,0-2-2.47l-2-.79a7.59,7.59,0,0,1-3-2,4.5,4.5,0,0,1-1-3,4.65,4.65,0,0,1,1.51-3.38,5.2,5.2,0,0,1,3.77-1.48,7.69,7.69,0,0,1,5.48,2l-2,2.48a4.55,4.55,0,0,0-3.51-1.54,2.37,2.37,0,0,0-1.59.51,1.59,1.59,0,0,0-.6,1.25,1.67,1.67,0,0,0,.46,1.22,4.76,4.76,0,0,0,1.53.92l2.07.83q4,1.57,4,5.13a5,5,0,0,1-1.67,3.89A6.47,6.47,0,0,1,384,71Z"/><path class="cls-1" d="M395.2,70.78V53h3.09v7.84l6.8-7.84h4.12l-6.27,7.09,6.41,10.69h-3.84l-4.84-8.12-2.38,2.69v5.43Z"/><path class="cls-1" d="M412.59,70.78,419.45,53h3l6.83,17.78h-3.43l-.94-2.46H417l-1,2.46ZM421,58l-2.85,7.38h5.67Zm2.58-8A2.56,2.56,0,0,1,421,52.52a2.5,2.5,0,0,1-1.82-.74,2.57,2.57,0,0,1,0-3.63,2.5,2.5,0,0,1,1.82-.74A2.56,2.56,0,0,1,423.54,50Zm-3.22.67a.93.93,0,0,0,.67.28.87.87,0,0,0,.65-.28.92.92,0,0,0,.27-.67,1,1,0,0,0-.28-.67.93.93,0,0,0-1.31,0A1,1,0,0,0,420,50,.93.93,0,0,0,420.32,50.63Z"/><path class="cls-1" d="M433.45,70.78V53h2.34l8.75,11.18V53h3.33V70.78h-2.23l-8.85-11.32V70.78Z"/><path class="cls-1" d="M464.13,63.26h-6.57v4.55h7.22v3H454.22V53h10.35v3h-7v4.32h6.57Z"/><path class="cls-1" d="M470.18,70.78V53h3.34V67.58h6.53v3.2Z"/><path class="cls-1" d="M483.13,70.78,490,53h3l6.83,17.78H496.4l-.94-2.46h-7.95l-.95,2.46ZM490,51.17a1.46,1.46,0,0,1-1.09.47,1.5,1.5,0,0,1-1.1-.47,1.58,1.58,0,0,1-.45-1.14,1.6,1.6,0,0,1,.44-1.13,1.62,1.62,0,0,1,1.11-.46,1.52,1.52,0,0,1,1.08.46A1.57,1.57,0,0,1,490.4,50,1.61,1.61,0,0,1,490,51.17ZM491.5,58l-2.85,7.38h5.67Zm3.75-6.8a1.66,1.66,0,0,1-1.18.47,1.65,1.65,0,0,1-1.18-.47,1.56,1.56,0,0,1,0-2.27,1.68,1.68,0,0,1,1.18-.46,1.7,1.7,0,0,1,1.18.46,1.56,1.56,0,0,1,0,2.27Z"/><path class="cls-1" d="M504,70.78V53h2.34l8.75,11.18V53h3.33V70.78h-2.23l-8.85-11.32V70.78Z"/><path class="cls-1" d="M535.62,63.35v-3H542l0,1.52a9.15,9.15,0,0,1-1.3,4.71,8.91,8.91,0,0,1-3.37,3.28,9.15,9.15,0,0,1-4.53,1.16,9.22,9.22,0,1,1,0-18.44,8.79,8.79,0,0,1,6.63,2.87l-2.28,2.25a5.77,5.77,0,0,0-4.37-1.93,5.67,5.67,0,0,0-4.26,1.74,6.29,6.29,0,0,0,0,8.57,5.42,5.42,0,0,0,4,1.75,6.28,6.28,0,0,0,4-1.24,5.61,5.61,0,0,0,2.09-3.27Z"/><path class="cls-1" d="M544.43,70.78,551.28,53h3l6.84,17.78H557.7l-1-2.46h-8l-.95,2.46ZM552.79,58,550,65.35h5.67Z"/></svg>