<svg id="Layer_1" data-name="Layer 1" xmlns="http://www.w3.org/2000/svg" viewBox="0 0 740 160"><defs><style>.cls-1{fill:#d4ac76;}</style></defs><title>text</title><path class="cls-1" d="M339.6,28.6V25.4h14.65v3.2H348.6V43.18h-3.34V28.6Z"/><path class="cls-1" d="M364,43.18l-6.8-17.78h3.48l4.88,12.78,4.82-12.78h3.37l-6.73,17.78Z"/><path class="cls-1" d="M374.65,43.18l6.86-17.78h3l6.83,17.78h-3.43L387,40.72h-8l-.95,2.46ZM383,30.37l-2.85,7.38h5.67Zm2.58-8A2.56,2.56,0,0,1,383,24.92a2.5,2.5,0,0,1-1.82-.74,2.57,2.57,0,0,1,0-3.63,2.5,2.5,0,0,1,1.82-.74,2.56,2.56,0,0,1,2.56,2.55Zm-3.22.67a1,1,0,0,0,.67.28.87.87,0,0,0,.65-.28.92.92,0,0,0,.27-.67,1,1,0,0,0-.93-.94.88.88,0,0,0-.66.28.9.9,0,0,0-.27.66A.92.92,0,0,0,382.38,23Z"/><path class="cls-1" d="M395.51,43.18V25.4h6.39a6,6,0,0,1,6.17,6.14,5.63,5.63,0,0,1-1.8,4.28,6.23,6.23,0,0,1-4.43,1.7h-3v5.66Zm6.1-14.58h-2.76v5.95h2.81a3.14,3.14,0,0,0,2.23-.79,2.8,2.8,0,0,0,.85-2.13,2.87,2.87,0,0,0-.88-2.18A3.07,3.07,0,0,0,401.61,28.6Z"/><path class="cls-1" d="M413,43.18V25.4h3.34V40h6.53v3.2Z"/><path class="cls-1" d="M425.92,43.18l6.86-17.78h3l6.83,17.78h-3.43l-.94-2.46H430.3l-.95,2.46Zm8.36-12.81-2.84,7.38h5.67Z"/><path class="cls-1" d="M446.78,43.18V25.4h2.34l8.75,11.18V25.4h3.33V43.18H459l-8.85-11.32V43.18Z"/><path class="cls-1" d="M472.11,43.41a8.92,8.92,0,0,1-6.23-2.65L468,38.23a6.53,6.53,0,0,0,2,1.59,5.06,5.06,0,0,0,2.34.62,2.84,2.84,0,0,0,1.89-.61,1.89,1.89,0,0,0,.74-1.53A2.65,2.65,0,0,0,473,35.83L471,35a7.71,7.71,0,0,1-3-2,4.83,4.83,0,0,1,.56-6.39,5.15,5.15,0,0,1,3.77-1.49,7.66,7.66,0,0,1,5.47,2l-2,2.48a4.58,4.58,0,0,0-3.51-1.54,2.4,2.4,0,0,0-1.6.51,1.59,1.59,0,0,0-.6,1.25,1.66,1.66,0,0,0,.47,1.22,4.65,4.65,0,0,0,1.53.92l2.07.83q4,1.57,4,5.13a5,5,0,0,1-1.68,3.89A6.44,6.44,0,0,1,472.11,43.41Z"/><path class="cls-1" d="M488.05,43.18,481.26,25.4h3.47l4.88,12.78,4.83-12.78h3.37l-6.73,17.78Z"/><path class="cls-1" d="M502,43.18V25.4h3.34V43.18Z"/><path class="cls-1" d="M511.69,43.18V25.4H515V40h6.53v3.2Z"/><path class="cls-1" d="M526.36,43.18V25.4h3.34V40h6.53v3.2Z"/><path class="cls-1" d="M539.31,43.18l6.85-17.78h3L556,43.18h-3.43l-.94-2.46h-8l-.94,2.46Zm8.36-12.81-2.84,7.38h5.67Z"/><path class="cls-1" d="M395.47,70.78V53h3.33V70.78Z"/><path class="cls-1" d="M424.22,63.26h-6.58v4.55h7.22v3H414.31V53h10.35v3h-7v4.32h6.58Z"/><path class="cls-1" d="M430.27,70.78V53h3.08v7.84L440.16,53h4.11L438,60.09l6.41,10.69h-3.84l-4.84-8.12-2.38,2.69v5.43Z"/><path class="cls-1" d="M459,63.26h-6.58v4.55h7.22v3H449.13V53h10.35v3h-7v4.32H459Z"/><path class="cls-1" d="M465.09,70.78V53h7a6,6,0,0,1,4.28,1.61A5.55,5.55,0,0,1,478,58.83a5.34,5.34,0,0,1-1.28,3.6,5.74,5.74,0,0,1-3.31,1.9l4.77,6.45h-3.75l-4.61-6.35h-1.44v6.35ZM471.53,56h-3.11v5.79h3.11a3.26,3.26,0,0,0,2.31-.79,2.62,2.62,0,0,0,.86-2,2.81,2.81,0,0,0-.88-2.11A3.2,3.2,0,0,0,471.53,56Z"/><path class="cls-1" d="M500.79,61.88a9.25,9.25,0,1,1-2.71-6.52A8.88,8.88,0,0,1,500.79,61.88Zm-13.42,4.24a5.61,5.61,0,0,0,4.17,1.76,5.67,5.67,0,0,0,4.19-1.76,6.12,6.12,0,0,0,0-8.51,5.67,5.67,0,0,0-4.19-1.76,5.61,5.61,0,0,0-4.17,1.76,6.12,6.12,0,0,0,0,8.51Zm2.62-15a1.44,1.44,0,0,1-1.08.47,1.48,1.48,0,0,1-1.1-.47,1.55,1.55,0,0,1-.46-1.14,1.55,1.55,0,0,1,1.56-1.59,1.48,1.48,0,0,1,1.07.46,1.64,1.64,0,0,1,0,2.27Zm5.29,0a1.65,1.65,0,0,1-1.18.47,1.66,1.66,0,0,1-1.18-.47,1.58,1.58,0,0,1,0-2.27,1.7,1.7,0,0,1,1.18-.46,1.68,1.68,0,0,1,1.18.46,1.56,1.56,0,0,1,0,2.27Z"/></svg>