<svg id="Layer_1" data-name="Layer 1" xmlns="http://www.w3.org/2000/svg" viewBox="0 0 740 160"><defs><style>.cls-1{fill:#d4ac76;}</style></defs><title>text</title><path class="cls-1" d="M380.36,43.18V25.4h3.08v7.84l6.81-7.84h4.12l-6.27,7.09,6.41,10.69h-3.84l-4.84-8.12-2.38,2.69v5.43Z"/><path class="cls-1" d="M397.75,43.18,404.6,25.4h3l6.83,17.78H411l-.94-2.46h-8l-.95,2.46Zm8.36-12.8-2.84,7.38h5.67Z"/><path class="cls-1" d="M418.61,43.18V25.4h7A6,6,0,0,1,429.84,27a5.54,5.54,0,0,1,1.71,4.22,5.34,5.34,0,0,1-1.27,3.6A5.72,5.72,0,0,1,427,36.73l4.78,6.45H428l-4.61-6.35h-1.44v6.35ZM425,28.37h-3.11v5.79H425a3.29,3.29,0,0,0,2.31-.79,2.65,2.65,0,0,0,.86-2.05,2.79,2.79,0,0,0-.89-2.11A3.17,3.17,0,0,0,425,28.37Z"/><path class="cls-1" d="M436.75,43.18V25.4h3.33V40h6.53v3.2Z"/><path class="cls-1" d="M456.22,43.41a8.55,8.55,0,0,1-3.35-.7A8.76,8.76,0,0,1,450,40.76l2.12-2.53a6.46,6.46,0,0,0,2,1.59,5,5,0,0,0,2.34.62,2.87,2.87,0,0,0,1.89-.61A1.91,1.91,0,0,0,459,38.3a2.65,2.65,0,0,0-2-2.47l-2-.79a7.63,7.63,0,0,1-3-2,4.53,4.53,0,0,1-1-3,4.62,4.62,0,0,1,1.51-3.38,5.16,5.16,0,0,1,3.77-1.48,7.65,7.65,0,0,1,5.47,2l-2,2.48a4.58,4.58,0,0,0-3.51-1.54,2.38,2.38,0,0,0-1.59.51,1.58,1.58,0,0,0-.6,1.25,1.66,1.66,0,0,0,.47,1.22,4.71,4.71,0,0,0,1.53.92l2.07.83q4,1.58,4,5.13a5,5,0,0,1-1.67,3.89A6.48,6.48,0,0,1,456.22,43.41Z"/><path class="cls-1" d="M465.69,28.6V25.4h14.65v3.2h-5.66V43.18h-3.33V28.6Z"/><path class="cls-1" d="M481,43.18l6.85-17.78h3l6.83,17.78h-3.43l-.94-2.46h-8l-.95,2.46Zm8.36-12.8-2.84,7.38h5.67Z"/><path class="cls-1" d="M501.82,43.18V25.4h5.07a8.71,8.71,0,0,1,6.3,2.54,8.55,8.55,0,0,1,2.62,6.41,8.32,8.32,0,0,1-2.65,6.35,9.08,9.08,0,0,1-6.44,2.48Zm5.11-14.81h-2V40.21H507a5.12,5.12,0,0,0,3.93-1.72,6,6,0,0,0,1.58-4.24,5.86,5.86,0,0,0-1.6-4.2A5.22,5.22,0,0,0,506.93,28.37Z"/><path class="cls-1" d="M398.49,68.27a8.87,8.87,0,0,1-6.59,2.81,9,9,0,0,1-6.57-2.69,9.2,9.2,0,0,1,0-13,9.26,9.26,0,0,1,13.12.07l-2.35,2.28a5.57,5.57,0,0,0-4.22-1.84,5.64,5.64,0,0,0-4.21,1.76,6.14,6.14,0,0,0,0,8.51,5.87,5.87,0,0,0,8.48-.1Z"/><path class="cls-1" d="M413.24,63.26h-6.58v4.55h7.22v3H403.32V53h10.35v3h-7v4.32h6.58Z"/><path class="cls-1" d="M419.28,70.78V53h2.34l8.75,11.18V53h3.33V70.78h-2.23l-8.85-11.32V70.78Z"/><path class="cls-1" d="M438,56.2V53h14.65v3.2H447V70.78h-3.33V56.2Z"/><path class="cls-1" d="M456.91,70.78V53h7a6,6,0,0,1,4.28,1.62,5.53,5.53,0,0,1,1.71,4.22,5.34,5.34,0,0,1-1.27,3.6,5.72,5.72,0,0,1-3.32,1.89L470,70.78H466.3l-4.61-6.35h-1.44v6.35ZM463.35,56h-3.11v5.8h3.11a3.29,3.29,0,0,0,2.31-.79,2.65,2.65,0,0,0,.86-2.05,2.8,2.8,0,0,0-.89-2.11A3.18,3.18,0,0,0,463.35,56Z"/><path class="cls-1" d="M486.34,69.18a7.25,7.25,0,0,1-9.73,0,6.3,6.3,0,0,1-1.92-4.7V53H478V64a4.08,4.08,0,0,0,.92,2.74,3.54,3.54,0,0,0,5.07,0,4,4,0,0,0,.92-2.71V53h3.33V64.48A6.3,6.3,0,0,1,486.34,69.18Z"/><path class="cls-1" d="M494.22,70.78V53h3.22l5.5,8.76L508.5,53H512V70.78h-3.33V58.61l-.27,0-5.52,8.51-5.38-8.4h.05V70.78Z"/></svg>