<svg id="Layer_1" data-name="Layer 1" xmlns="http://www.w3.org/2000/svg" viewBox="0 0 740 160"><defs><style>.cls-1{fill:#d4ac76;}</style></defs><title>text</title><path class="cls-1" d="M348.36,43.18V25.4h6.39a6,6,0,0,1,6.17,6.14,5.63,5.63,0,0,1-1.8,4.28,6.23,6.23,0,0,1-4.43,1.7h-3v5.66Zm6.1-14.58H351.7v5.95h2.81a3.14,3.14,0,0,0,2.23-.79,2.8,2.8,0,0,0,.85-2.13,2.87,2.87,0,0,0-.88-2.18A3.07,3.07,0,0,0,354.46,28.6Z"/><path class="cls-1" d="M365.82,43.18V25.4h7A6,6,0,0,1,377.06,27a5.55,5.55,0,0,1,1.71,4.22,5.33,5.33,0,0,1-1.27,3.6,5.77,5.77,0,0,1-3.32,1.9L379,43.18h-3.75l-4.62-6.35h-1.43v6.35Zm6.44-14.81h-3.1v5.79h3.1a3.26,3.26,0,0,0,2.31-.79,2.63,2.63,0,0,0,.87-2,2.82,2.82,0,0,0-.89-2.11A3.18,3.18,0,0,0,372.26,28.37Z"/><path class="cls-1" d="M393.88,35.66H387.3v4.55h7.23v3H384V25.4h10.35v3h-7v4.32h6.58Z"/><path class="cls-1" d="M399.93,43.18V25.4h3.22l5.5,8.76,5.56-8.76h3.5V43.18h-3.34V31l-.26,0-5.52,8.51-5.38-8.4h.06v12.1Z"/><path class="cls-1" d="M423.85,43.18V25.4h3.34V43.18Z"/><path class="cls-1" d="M431.33,43.18l6.85-17.78h3L448,43.18H444.6l-1-2.46H435.7l-.95,2.46Zm6.82-19.61a1.5,1.5,0,0,1-2.18,0,1.55,1.55,0,0,1-.46-1.14,1.55,1.55,0,0,1,1.55-1.59,1.5,1.5,0,0,1,1.08.46,1.67,1.67,0,0,1,0,2.27Zm1.54,6.8-2.85,7.38h5.68Zm3.75-6.8a1.65,1.65,0,0,1-1.18.47,1.66,1.66,0,0,1-1.18-.47,1.56,1.56,0,0,1,0-2.27,1.7,1.7,0,0,1,1.18-.46,1.68,1.68,0,0,1,1.18.46,1.56,1.56,0,0,1,0,2.27Z"/><path class="cls-1" d="M452.19,43.18V25.4h6.95A6,6,0,0,1,463.42,27a5.53,5.53,0,0,1,1.72,4.22,5.34,5.34,0,0,1-1.28,3.6,5.74,5.74,0,0,1-3.32,1.9l4.78,6.45h-3.75L457,36.83h-1.44v6.35Zm6.44-14.81h-3.11v5.79h3.11a3.29,3.29,0,0,0,2.31-.79,2.66,2.66,0,0,0,.86-2,2.85,2.85,0,0,0-.88-2.11A3.22,3.22,0,0,0,458.63,28.37Z"/><path class="cls-1" d="M479.49,43.18V25.4h2.33l8.75,11.18V25.4h3.34V43.18h-2.23l-8.86-11.32V43.18Z"/><path class="cls-1" d="M509.65,25.4h3.58L507.34,36v7.22H504V36.07l-6-10.67h3.66l4,7.37Z"/><path class="cls-1" d="M516.17,28.6V25.4h14.65v3.2h-5.65V43.18h-3.34V28.6Z"/><path class="cls-1" d="M534,28.6V25.4H548.6v3.2h-5.66V43.18h-3.33V28.6Z"/><path class="cls-1" d="M356,70.78,349.19,53h3.48l4.88,12.78L362.37,53h3.37L359,70.78Z"/><path class="cls-1" d="M369.94,70.78V53h3.33V70.78Z"/><path class="cls-1" d="M384.19,71A8.92,8.92,0,0,1,378,68.36l2.12-2.53a6.53,6.53,0,0,0,2,1.59,5.06,5.06,0,0,0,2.34.62,2.89,2.89,0,0,0,1.9-.61A1.91,1.91,0,0,0,387,65.9a2.65,2.65,0,0,0-1.95-2.47l-2-.79a7.59,7.59,0,0,1-2.95-2,4.5,4.5,0,0,1-1-3,4.61,4.61,0,0,1,1.51-3.38,5.18,5.18,0,0,1,3.77-1.48,7.66,7.66,0,0,1,5.47,2l-2,2.48a4.58,4.58,0,0,0-3.51-1.54,2.42,2.42,0,0,0-1.6.51,1.59,1.59,0,0,0-.6,1.25,1.67,1.67,0,0,0,.47,1.22,4.76,4.76,0,0,0,1.53.92l2.07.83q4,1.57,4,5.13a5,5,0,0,1-1.67,3.89A6.47,6.47,0,0,1,384.19,71Z"/><path class="cls-1" d="M395.42,70.78V53h2.34l8.75,11.18V53h3.33V70.78h-2.23l-8.85-11.32V70.78Z"/><path class="cls-1" d="M416.19,70.78V53h3.34V70.78Z"/><path class="cls-1" d="M425.87,70.78V53h2.34L437,64.18V53h3.33V70.78h-2.23l-8.85-11.32V70.78Z"/><path class="cls-1" d="M457.5,63.35v-3h6.37l0,1.52a9.15,9.15,0,0,1-1.3,4.71,8.91,8.91,0,0,1-3.37,3.28,9.15,9.15,0,0,1-4.53,1.16,9.22,9.22,0,1,1,0-18.44,8.79,8.79,0,0,1,6.63,2.87L459,57.73a5.77,5.77,0,0,0-4.37-1.93,5.63,5.63,0,0,0-4.25,1.74,6.29,6.29,0,0,0,0,8.57,5.39,5.39,0,0,0,4,1.75,6.26,6.26,0,0,0,4-1.24,5.61,5.61,0,0,0,2.09-3.27Z"/><path class="cls-1" d="M473.7,71a8.64,8.64,0,0,1-3.35-.7,8.73,8.73,0,0,1-2.88-2l2.11-2.53a6.78,6.78,0,0,0,2,1.59,5.1,5.1,0,0,0,2.35.62,2.84,2.84,0,0,0,1.89-.61,1.92,1.92,0,0,0,.74-1.53,2.65,2.65,0,0,0-1.95-2.47l-2-.79a7.63,7.63,0,0,1-3-2,4.55,4.55,0,0,1-.95-3,4.61,4.61,0,0,1,1.51-3.38A5.18,5.18,0,0,1,474,52.79a7.68,7.68,0,0,1,5.47,2l-2,2.48A4.58,4.58,0,0,0,474,55.76a2.38,2.38,0,0,0-1.6.51,1.59,1.59,0,0,0-.6,1.25,1.67,1.67,0,0,0,.47,1.22,4.58,4.58,0,0,0,1.52.92l2.08.83c2.63,1,4,2.76,4,5.13a5,5,0,0,1-1.68,3.89A6.45,6.45,0,0,1,473.7,71Z"/><path class="cls-1" d="M495.89,70.78V63.35h-7.62v7.43h-3.33V53h3.33v7.15h7.62V53h3.33V70.78Z"/><path class="cls-1" d="M516.85,69.18a7.26,7.26,0,0,1-9.73,0,6.3,6.3,0,0,1-1.92-4.7V53h3.34V64a4.06,4.06,0,0,0,.91,2.74,3.53,3.53,0,0,0,5.07,0,4,4,0,0,0,.92-2.71V53h3.33V64.48A6.3,6.3,0,0,1,516.85,69.18Z"/><path class="cls-1" d="M529.52,71a8.92,8.92,0,0,1-6.23-2.65l2.12-2.53a6.53,6.53,0,0,0,2,1.59,5.06,5.06,0,0,0,2.34.62,2.84,2.84,0,0,0,1.89-.61,1.92,1.92,0,0,0,.74-1.53,2.65,2.65,0,0,0-2-2.47l-2-.79a7.63,7.63,0,0,1-3-2,4.55,4.55,0,0,1-1-3A4.61,4.61,0,0,1,526,54.27a5.18,5.18,0,0,1,3.77-1.48,7.66,7.66,0,0,1,5.47,2l-2,2.48a4.58,4.58,0,0,0-3.51-1.54,2.38,2.38,0,0,0-1.6.51,1.59,1.59,0,0,0-.6,1.25,1.67,1.67,0,0,0,.47,1.22,4.54,4.54,0,0,0,1.53.92l2.07.83q4,1.57,4,5.13A5,5,0,0,1,534,69.51,6.45,6.45,0,0,1,529.52,71Z"/><path class="cls-1" d="M543.6,70.56a1.59,1.59,0,0,1-1.18.52,1.56,1.56,0,0,1-1.17-.52,1.74,1.74,0,0,1-.49-1.25,1.77,1.77,0,0,1,.49-1.27,1.53,1.53,0,0,1,1.17-.53,1.58,1.58,0,0,1,1.18.51,1.86,1.86,0,0,1,.49,1.29A1.74,1.74,0,0,1,543.6,70.56Zm-2.43-4.7-.3-12.38H544l-.28,12.38Z"/></svg>