<svg id="Layer_1" data-name="Layer 1" xmlns="http://www.w3.org/2000/svg" viewBox="0 0 740 160"><defs><style>.cls-1{fill:#d80201;}</style></defs><title>text</title><path class="cls-1" d="M371.31,47.69a8.58,8.58,0,0,1-7.56-4.19l2.77-2.67a5,5,0,0,0,4.62,2.94,3.13,3.13,0,0,0,3.4-3.1c0-4.52-9.67-2.38-9.67-9.47,0-3.89,3.14-6.4,6.87-6.4a9.65,9.65,0,0,1,6.44,2.44l-2.24,2.94a4.45,4.45,0,0,0-3.56-1.78c-1.42,0-3.07.89-3.07,2.48,0,3.73,9.67,1.88,9.67,9.57C379,44.92,375.67,47.69,371.31,47.69Z"/><path class="cls-1" d="M390.91,47.63a5.72,5.72,0,0,1-4.79-2.34v9.51h-4V32.88h4v1.82a5.69,5.69,0,0,1,4.69-2.28c4.26,0,7.06,3.53,7.06,7.62S395.11,47.63,390.91,47.63ZM389.73,36a4,4,0,1,0,4,4A4,4,0,0,0,389.73,36Z"/><path class="cls-1" d="M411.84,47.17V45.29a5.52,5.52,0,0,1-4.65,2.34c-4.29,0-7-3.56-7-7.66s2.74-7.56,6.93-7.56a6,6,0,0,1,4.75,2.28V32.88h4V47.17Zm-6.9-17a2.38,2.38,0,1,1,0-4.75,2.38,2.38,0,0,1,0,4.75ZM408.27,36a4,4,0,1,0,4,4A4,4,0,0,0,408.27,36Zm3.53-5.81a2.41,2.41,0,0,1-2.38-2.38,2.38,2.38,0,1,1,2.38,2.38Z"/><path class="cls-1" d="M429.46,47.17V39.25c0-1.95-.43-3.43-2.71-3.43-2.48,0-3.07,1.81-3.07,4v7.39h-4V32.88h4v1.75a5.28,5.28,0,0,1,4.49-2.21,5.48,5.48,0,0,1,4.16,1.72,5.51,5.51,0,0,1,1.12,4v9.08Z"/><path class="cls-1" d="M447,47.17V39.25c0-1.95-.43-3.43-2.71-3.43-2.48,0-3.07,1.81-3.07,4v7.39h-4V32.88h4v1.75a5.28,5.28,0,0,1,4.49-2.21,5.48,5.48,0,0,1,4.16,1.72,5.51,5.51,0,0,1,1.12,4v9.08Z"/><path class="cls-1" d="M465.79,47.17V45.29a5.52,5.52,0,0,1-4.65,2.34c-4.29,0-7-3.56-7-7.66s2.74-7.56,6.93-7.56a6,6,0,0,1,4.75,2.28V32.88h4V47.17ZM462.23,36a4,4,0,1,0,4,4A4,4,0,0,0,462.23,36Z"/><path class="cls-1" d="M483.41,47.17V39.25c0-1.95-.43-3.43-2.71-3.43-2.48,0-3.07,1.81-3.07,4v7.39h-4V32.88h4v1.75a5.28,5.28,0,0,1,4.49-2.21,5.48,5.48,0,0,1,4.16,1.72,5.51,5.51,0,0,1,1.12,4v9.08Z"/><path class="cls-1" d="M502.16,47.17V45.29a5.52,5.52,0,0,1-4.65,2.34c-4.29,0-7-3.56-7-7.66s2.74-7.56,6.93-7.56a6,6,0,0,1,4.75,2.28V22.45h4V47.17ZM498.59,36a4,4,0,1,0,4,4A4,4,0,0,0,498.59,36Z"/><path class="cls-1" d="M513.34,40.67c.07,2.21,1.12,3.83,3.5,3.83a3.74,3.74,0,0,0,3.4-1.91l3.7.59c-1.25,3.07-3.79,4.46-7,4.46-4.62,0-7.66-3-7.66-7.62s2.9-7.59,7.49-7.59S524,35.58,524,40.14v.53Zm3.47-5.41a3.24,3.24,0,0,0-3.33,2.87h6.77A3.31,3.31,0,0,0,516.81,35.25Z"/><path class="cls-1" d="M527.86,51.79l-2.54-.3,3.5-8.88,3.7.43Z"/><path class="cls-1" d="M374.22,85.17V83.29a5.52,5.52,0,0,1-4.65,2.34c-4.29,0-7-3.56-7-7.66s2.74-7.56,6.93-7.56a6,6,0,0,1,4.75,2.28V70.88h4V85.17ZM370.65,74a4,4,0,1,0,4,4A4,4,0,0,0,370.65,74Z"/><path class="cls-1" d="M391.84,85.17V77.25c0-1.95-.43-3.43-2.71-3.43-2.48,0-3.07,1.82-3.07,4v7.39h-4V70.88h4v1.75a5.28,5.28,0,0,1,4.49-2.21,4.94,4.94,0,0,1,5.28,5.68v9.08Z"/><path class="cls-1" d="M409.43,85.17V77.25c0-1.95-.43-3.43-2.71-3.43-2.48,0-3.07,1.82-3.07,4v7.39h-4V70.88h4v1.75a5.28,5.28,0,0,1,4.49-2.21,4.94,4.94,0,0,1,5.28,5.68v9.08Z"/><path class="cls-1" d="M424.67,85.63c-4.55,0-8.18-2.84-8.18-7.59s3.63-7.62,8.22-7.62,8.12,2.87,8.12,7.59S429.19,85.63,424.67,85.63Zm0-11.62a4,4,0,1,0,4.06,4A4,4,0,0,0,424.64,74Z"/><path class="cls-1" d="M445.23,74.51a3.53,3.53,0,0,0-1.91-.5c-2.71,0-3.43,1.91-3.43,4.29v6.86h-4V70.88h4V73a4.66,4.66,0,0,1,5.91-2.28Z"/><path class="cls-1" d="M447.77,85.17V60.45h4V85.17Z"/><path class="cls-1" d="M462.49,85.63c-3.93,0-6.9-1.75-6.9-6V70.88h4V79c0,1.95.83,3.27,2.9,3.27s2.9-1.32,2.9-3.27V70.88h4v8.75C469.42,83.88,466.42,85.63,462.49,85.63Z"/><path class="cls-1" d="M483,85.17V77.25c0-1.95-.43-3.43-2.71-3.43-2.47,0-3.07,1.82-3.07,4v7.39h-4V70.88h4v1.75a5.28,5.28,0,0,1,4.49-2.21A4.94,4.94,0,0,1,487,76.09v9.08Z"/><path class="cls-1" d="M501.76,85.17V83.29a5.52,5.52,0,0,1-4.65,2.34c-4.29,0-7-3.56-7-7.66s2.74-7.56,6.93-7.56a6,6,0,0,1,4.75,2.28V60.45h4V85.17ZM498.19,74a4,4,0,1,0,4,4A4,4,0,0,0,498.19,74Z"/><path class="cls-1" d="M520.54,85.17V83.29a5.52,5.52,0,0,1-4.65,2.34c-4.29,0-7-3.56-7-7.66s2.74-7.56,6.93-7.56a6,6,0,0,1,4.75,2.28V70.88h4V85.17ZM517,74a4,4,0,1,0,4,4A4,4,0,0,0,517,74Z"/><path class="cls-1" d="M530.6,85.6A2.57,2.57,0,1,1,533.17,83,2.58,2.58,0,0,1,530.6,85.6Zm-2-6.73V63.15h4.09V78.86Z"/></svg>