<svg id="Layer_1" data-name="Layer 1" xmlns="http://www.w3.org/2000/svg" viewBox="0 0 580 400"><defs><style>.cls-1{fill:#d4ac76;}</style></defs><title>text</title><path class="cls-1" d="M55.2,104.13V61.61H67.33a20.83,20.83,0,0,1,15.05,6.08A20.46,20.46,0,0,1,88.64,83,19.89,19.89,0,0,1,82.3,98.19a21.71,21.71,0,0,1-15.41,5.94ZM67.42,68.71H62.57V97h4.91a12.24,12.24,0,0,0,9.41-4.12,14.42,14.42,0,0,0,3.78-10.13,14,14,0,0,0-3.83-10A12.47,12.47,0,0,0,67.42,68.71Z"/><path class="cls-1" d="M101.07,104.13V61.61h8v42.52Z"/><path class="cls-1" d="M119.33,69.26V61.61h35v7.65H140.83v34.87h-8V69.26Z"/><path class="cls-1" d="M161.84,69.26V61.61h35v7.65H183.35v34.87h-8V69.26Z"/><path class="cls-1" d="M230,104.13V61.61h8V96.48h15.62v7.65Z"/><path class="cls-1" d="M265.13,104.13V61.61h8v42.52Z"/><path class="cls-1" d="M299.26,104.13,283,61.61h8.3L303,92.18l11.54-30.57h8.07l-16.1,42.52Z"/><path class="cls-1" d="M342.32,104.68a20.44,20.44,0,0,1-8-1.68,21,21,0,0,1-6.89-4.65l5.06-6.06a15.41,15.41,0,0,0,4.69,3.8,12,12,0,0,0,5.6,1.49,6.88,6.88,0,0,0,4.53-1.46,4.57,4.57,0,0,0,1.77-3.67q0-4-4.66-5.9l-4.74-1.9A18.21,18.21,0,0,1,332.59,80a10.83,10.83,0,0,1-2.28-7.23,11,11,0,0,1,3.61-8.07,12.34,12.34,0,0,1,9-3.55A18.31,18.31,0,0,1,356,66l-4.69,5.93a11,11,0,0,0-8.4-3.69,5.68,5.68,0,0,0-3.81,1.22,3.79,3.79,0,0,0-1.44,3,4,4,0,0,0,1.12,2.91,11.29,11.29,0,0,0,3.65,2.19l5,2q9.46,3.78,9.63,12.27a11.9,11.9,0,0,1-4,9.3Q349,104.68,342.32,104.68Z"/><path class="cls-1" d="M380.44,104.13,364.19,61.61h8.3l11.68,30.57L395.7,61.61h8.07l-16.09,42.52Z"/><path class="cls-1" d="M437.5,86.14H421.77V97H439v7.1H413.8V61.61h24.75v7.1H421.77V79H437.5Z"/><path class="cls-1" d="M452,104.13V61.61H468.6a14.34,14.34,0,0,1,10.24,3.86,13.23,13.23,0,0,1,4.09,10.08,12.77,12.77,0,0,1-3,8.62A13.68,13.68,0,0,1,472,88.7l11.42,15.43h-9l-11-15.18h-3.43v15.18Zm15.4-35.42h-7.42V82.57h7.42a7.87,7.87,0,0,0,5.53-1.89A6.34,6.34,0,0,0,475,75.77a6.69,6.69,0,0,0-2.12-5A7.6,7.6,0,0,0,467.37,68.71Z"/><path class="cls-1" d="M495.36,104.13V61.61h7.37V80.35L519,61.61h9.84l-15,17,15.33,25.55H520L508.42,84.72l-5.69,6.43v13Z"/></svg>