<svg id="Layer_1" data-name="Layer 1" xmlns="http://www.w3.org/2000/svg" viewBox="0 0 580 400"><defs><style>.cls-1{fill:#d4ac76;}</style></defs><title>text</title><path class="cls-1" d="M84.69,144.63h-6v4.48H85.1v2H76.59V136.38H85v2H78.64v4.33h6Z"/><path class="cls-1" d="M88.64,138.34v-2h11.89v2H95.61v12.73H93.56V138.34Z"/><path class="cls-1" d="M103.44,138.34v-2h11.89v2h-4.92v12.73h-2.05V138.34Z"/><path class="cls-1" d="M136.93,151.07v-6.37h-7.14v6.37h-2.05V136.38h2.05v6.36h7.14v-6.36H139v14.69Z"/><path class="cls-1" d="M150.11,151.32a5.11,5.11,0,0,1-3.83-1.54,5.33,5.33,0,0,1-1.5-3.88v-9.52h2.05v9.39a3.79,3.79,0,0,0,.88,2.57,3,3,0,0,0,2.4,1,3.08,3.08,0,0,0,2.43-1,3.72,3.72,0,0,0,.89-2.57v-9.41h2.05v9.52a5.34,5.34,0,0,1-1.5,3.88A5.16,5.16,0,0,1,150.11,151.32Z"/><path class="cls-1" d="M165.14,151.26a6.85,6.85,0,0,1-2.75-.59,7.25,7.25,0,0,1-2.33-1.58l1.44-1.66a5.6,5.6,0,0,0,1.69,1.34,4.32,4.32,0,0,0,2,.54,2.83,2.83,0,0,0,1.9-.62,2,2,0,0,0,.73-1.57,2.57,2.57,0,0,0-1.86-2.4l-1.73-.69a6.07,6.07,0,0,1-2.4-1.58,3.46,3.46,0,0,1-.79-2.32,3.69,3.69,0,0,1,1.21-2.78,4.18,4.18,0,0,1,3-1.15,6,6,0,0,1,4.26,1.62l-1.23,1.66a4.05,4.05,0,0,0-3-1.32,2.31,2.31,0,0,0-1.55.51,1.7,1.7,0,0,0-.6,1.36,1.63,1.63,0,0,0,.44,1.14,4.09,4.09,0,0,0,1.49.91l1.76.71q3.21,1.29,3.09,4.19a4,4,0,0,1-1.3,3.09A4.92,4.92,0,0,1,165.14,151.26Z"/><path class="cls-1" d="M183,151.07V136.38h8v2h-6V143h5.28v2H185v6.16Z"/><path class="cls-1" d="M202.09,151.34a7.22,7.22,0,0,1-5.29-2.17,7.89,7.89,0,0,1,0-10.89,7.51,7.51,0,0,1,10.58,0,7.83,7.83,0,0,1,0,10.87A7.22,7.22,0,0,1,202.09,151.34Zm-3.84-3.6a5.31,5.31,0,0,0,7.69,0,5.87,5.87,0,0,0,0-8,5.28,5.28,0,0,0-7.68,0,5.88,5.88,0,0,0,0,8Zm2.47-12.91a1,1,0,0,1-.73.32.94.94,0,0,1-.72-.32,1.23,1.23,0,0,1,0-1.6.94.94,0,0,1,.72-.32,1,1,0,0,1,.73.32,1.2,1.2,0,0,1,0,1.6Zm4.07,0a1,1,0,0,1-1.46,0,1.22,1.22,0,0,1,0-1.6,1,1,0,0,1,1.46,0,1.22,1.22,0,0,1,0,1.6Z"/><path class="cls-1" d="M214.72,151.07V136.38h5.45a4.59,4.59,0,0,1,3.31,1.28,4.54,4.54,0,0,1-2.58,7.82l4.25,5.59h-2.53l-4.22-5.61h-1.63v5.61Zm5.18-12.73h-3.13v5.3h3.11a3,3,0,0,0,2.08-.73,2.66,2.66,0,0,0,0-3.81A2.87,2.87,0,0,0,219.9,138.34Z"/><path class="cls-1" d="M236.28,151.07l5.9-14.69H244l5.78,14.69h-2.27l-.89-2.26h-7.2l-.91,2.26Zm6.82-11.32-2.85,7.1h5.64Z"/><path class="cls-1" d="M253.9,151.07V136.38H256v12.73h6v2Z"/><path class="cls-1" d="M266.5,151.07V136.38h2.05v12.73h6v2Z"/><path class="cls-1" d="M277.57,151.07l5.9-14.69h1.85l5.78,14.69h-2.27l-.89-2.26h-7.2l-.91,2.26Zm6.82-11.32-2.85,7.1h5.64Z"/><path class="cls-1" d="M301.76,151.07l5.9-14.69h1.85l5.78,14.69H313l-.89-2.26h-7.2l-.91,2.26Zm6.82-11.32-2.85,7.1h5.64Z"/><path class="cls-1" d="M323.29,151.26a6.85,6.85,0,0,1-2.75-.59,7.26,7.26,0,0,1-2.33-1.58l1.44-1.66a5.6,5.6,0,0,0,1.69,1.34,4.32,4.32,0,0,0,2,.54,2.83,2.83,0,0,0,1.9-.62,2,2,0,0,0,.73-1.57,2.57,2.57,0,0,0-1.86-2.4l-1.73-.69a6.07,6.07,0,0,1-2.4-1.58,3.46,3.46,0,0,1-.79-2.32,3.69,3.69,0,0,1,1.21-2.78,4.18,4.18,0,0,1,3-1.15,6,6,0,0,1,4.26,1.62l-1.24,1.66a4.05,4.05,0,0,0-3-1.32,2.32,2.32,0,0,0-1.55.51,1.7,1.7,0,0,0-.6,1.36,1.63,1.63,0,0,0,.44,1.14,4.08,4.08,0,0,0,1.49.91l1.76.71q3.21,1.29,3.09,4.19a4,4,0,0,1-1.3,3.09A4.92,4.92,0,0,1,323.29,151.26Z"/><path class="cls-1" d="M333.11,151.07V136.38h5a4.61,4.61,0,0,1,3.41,1.37,4.74,4.74,0,0,1,1.36,3.49,4.6,4.6,0,0,1-1.4,3.43,4.75,4.75,0,0,1-3.45,1.37h-2.88v5ZM338,138.34h-2.82v5.76H338a2.7,2.7,0,0,0,2.84-2.85,2.85,2.85,0,0,0-.81-2.08A2.75,2.75,0,0,0,338,138.34Z"/><path class="cls-1" d="M355.85,144.63h-6v4.48h6.46v2h-8.51V136.38h8.4v2h-6.35v4.33h6Z"/><path class="cls-1" d="M361.36,151.07V136.38h2.05v7l6.12-7h2.75l-5.18,5.82,5.31,8.86h-2.55l-4.27-7.17-2.19,2.46v4.71Z"/><path class="cls-1" d="M375.52,138.34v-2h11.89v2h-4.92v12.73h-2.05V138.34Z"/><path class="cls-1" d="M399.59,144.63h-6v4.48H400v2H391.5V136.38h8.4v2h-6.35v4.33h6Z"/><path class="cls-1" d="M405.1,151.07V136.38h5.45a4.58,4.58,0,0,1,3.31,1.28,4.54,4.54,0,0,1-2.58,7.82l4.25,5.59H413l-4.22-5.61h-1.63v5.61Zm5.18-12.73h-3.13v5.3h3.11a3,3,0,0,0,2.08-.73,2.66,2.66,0,0,0,0-3.81A2.87,2.87,0,0,0,410.28,138.34Z"/><path class="cls-1" d="M426.66,151.07l5.9-14.69h1.85l5.78,14.69h-2.27l-.89-2.26h-7.2l-.91,2.26Zm6.82-11.32-2.85,7.1h5.64Z"/><path class="cls-1" d="M447.21,151.07l-5.73-14.69h2.3l4.4,11.28,4.41-11.28h2.27l-5.74,14.69Z"/><path class="cls-1" d="M467.1,151.07V136.38H471a7.4,7.4,0,0,1,5.14,12.6,7.17,7.17,0,0,1-5.21,2.09Zm4-12.73h-2v10.77h2a4.75,4.75,0,0,0,3.62-1.57,5.43,5.43,0,0,0,1.47-3.84,5.24,5.24,0,0,0-1.51-3.81A4.9,4.9,0,0,0,471.11,138.34Z"/><path class="cls-1" d="M483.36,151.07V136.38h2.05v14.69Z"/><path class="cls-1" d="M500.61,144.69v-2h4.88v1a7.56,7.56,0,0,1-7.6,7.56,7.18,7.18,0,0,1-5.36-2.2,7.92,7.92,0,0,1,0-10.85,7.19,7.19,0,0,1,5.36-2.2,7.9,7.9,0,0,1,3.09.61,7.56,7.56,0,0,1,2.52,1.7L502,139.94a5.19,5.19,0,0,0-4.08-1.91A5.12,5.12,0,0,0,494,139.7a5.92,5.92,0,0,0,0,8,5.12,5.12,0,0,0,3.89,1.66,5.22,5.22,0,0,0,3.52-1.29,5.56,5.56,0,0,0,1.85-3.39Z"/></svg>