<svg id="Layer_1" data-name="Layer 1" xmlns="http://www.w3.org/2000/svg" viewBox="0 0 320 320"><defs><style>.cls-1{fill:#d80201;}</style></defs><title>text</title><path class="cls-1" d="M131,191a8.56,8.56,0,0,1-6.79,3,8.43,8.43,0,0,1-6.79-3,8.93,8.93,0,0,1-1.52-5.52V172.82h4v11.84a7,7,0,0,0,.65,3.72,4.15,4.15,0,0,0,3.63,1.93,4.25,4.25,0,0,0,3.62-1.93,6.58,6.58,0,0,0,.66-3.72V172.82h4v12.65A8.74,8.74,0,0,1,131,191Z"/><path class="cls-1" d="M144.94,193.93a5.36,5.36,0,0,1-4.49-2.2v8.93H136.7V180.08h3.75v1.7a5.34,5.34,0,0,1,4.4-2.14c4,0,6.64,3.32,6.64,7.16S148.88,193.93,144.94,193.93ZM143.83,183a3.77,3.77,0,1,0,3.75,3.75A3.74,3.74,0,0,0,143.83,183Z"/><path class="cls-1" d="M162.58,193.93a5.36,5.36,0,0,1-4.49-2.2v8.93h-3.75V180.08h3.75v1.7a5.34,5.34,0,0,1,4.4-2.14c4,0,6.64,3.32,6.64,7.16S166.52,193.93,162.58,193.93ZM161.47,183a3.77,3.77,0,1,0,3.75,3.75A3.74,3.74,0,0,0,161.47,183Z"/><path class="cls-1" d="M172,193.5V170.28h3.76V193.5Z"/><path class="cls-1" d="M182.45,187.39c.06,2.08,1.06,3.6,3.29,3.6a3.5,3.5,0,0,0,3.19-1.8l3.48.56c-1.18,2.88-3.57,4.18-6.61,4.18-4.34,0-7.19-2.79-7.19-7.16s2.73-7.13,7-7.13,6.85,3,6.85,7.26v.49Zm3.26-5.08a3,3,0,0,0-3.13,2.69h6.35A3.1,3.1,0,0,0,185.71,182.31Z"/><path class="cls-1" d="M201.52,193.78h-1.74l-6.85-13.7h4.22l3.53,7.56,3.54-7.56h4.21Z"/><path class="cls-1" d="M108,226.5l-1.83-12.74-5.71,13H99.3l-5.49-13L91.73,226.5H87.67l3.85-21.05h2.75L99.92,219l5.89-13.52h2.76L112,226.5Z"/><path class="cls-1" d="M122.08,226.93c-4.28,0-7.69-2.66-7.69-7.13s3.41-7.16,7.72-7.16,7.63,2.7,7.63,7.13S126.33,226.93,122.08,226.93Zm0-10.91a3.77,3.77,0,1,0,3.81,3.78A3.8,3.8,0,0,0,122.05,216Z"/><path class="cls-1" d="M138.7,226.78H137l-6.85-13.7h4.22l3.53,7.56,3.54-7.56h4.21Z"/><path class="cls-1" d="M149.89,220.39c.06,2.08,1.05,3.6,3.28,3.6a3.53,3.53,0,0,0,3.2-1.8l3.47.56a6.58,6.58,0,0,1-6.6,4.18c-4.34,0-7.2-2.79-7.2-7.16s2.73-7.13,7-7.13,6.85,3,6.85,7.26v.49Zm3.25-5.08A3,3,0,0,0,150,218h6.36A3.11,3.11,0,0,0,153.14,215.31Z"/><path class="cls-1" d="M172,226.5v-7.35c0-1.86-.4-3.32-2.57-3.32-2.33,0-2.85,1.8-2.85,3.79v6.88h-3.76V203.28h3.76v11.53a4.86,4.86,0,0,1,4.21-2.17,5.15,5.15,0,0,1,3.91,1.64,5.34,5.34,0,0,1,1.05,3.79v8.43Z"/><path class="cls-1" d="M186.31,226.93c-4.27,0-7.69-2.66-7.69-7.13s3.42-7.16,7.72-7.16,7.63,2.7,7.63,7.13S190.56,226.93,186.31,226.93Zm0-10.91a3.77,3.77,0,1,0,3.82,3.78A3.8,3.8,0,0,0,186.28,216Z"/><path class="cls-1" d="M214,226.5v-7.35c0-1.58-.25-3.32-2.23-3.32-2.21,0-2.58,2-2.58,3.79v6.88h-3.75v-7.13a6,6,0,0,0-.28-2.23,2.17,2.17,0,0,0-2-1.31A2.45,2.45,0,0,0,201,217a5.52,5.52,0,0,0-.44,2.58v6.88h-3.75V213.08h3.75v1.51a5.17,5.17,0,0,1,4.1-2,4.56,4.56,0,0,1,4.18,2.45,5,5,0,0,1,4.41-2.45,4.43,4.43,0,0,1,3.75,1.92,5.92,5.92,0,0,1,.71,3.26v8.68Z"/><path class="cls-1" d="M224.47,220.39c.07,2.08,1.06,3.6,3.29,3.6a3.5,3.5,0,0,0,3.19-1.8l3.48.56c-1.18,2.88-3.57,4.18-6.61,4.18-4.34,0-7.19-2.79-7.19-7.16s2.73-7.13,7-7.13,6.85,3,6.85,7.26v.49Zm3.26-5.08A3,3,0,0,0,224.6,218H231A3.1,3.1,0,0,0,227.73,215.31Z"/></svg>