<svg id="Layer_1" data-name="Layer 1" xmlns="http://www.w3.org/2000/svg" viewBox="0 0 320 320"><defs><style>.cls-1{fill:#d4ac76;}</style></defs><title>text</title><path class="cls-1" d="M69.44,197.51,62.34,179H66l5.09,13.34,5-13.34h3.52l-7,18.55Z"/><path class="cls-1" d="M84,197.51V179h3.48v18.55Z"/><path class="cls-1" d="M98.86,197.75a8.86,8.86,0,0,1-3.5-.73,9.24,9.24,0,0,1-3-2l2.21-2.64a7,7,0,0,0,2,1.66,5.23,5.23,0,0,0,2.44.64,3.05,3.05,0,0,0,2-.63,2,2,0,0,0,.77-1.6,2.76,2.76,0,0,0-2-2.58L97.7,189a8,8,0,0,1-3.09-2,5.07,5.07,0,0,1,.58-6.68,5.39,5.39,0,0,1,3.93-1.55,8,8,0,0,1,5.72,2.12l-2,2.59a4.8,4.8,0,0,0-3.67-1.61,2.5,2.5,0,0,0-1.66.53,1.66,1.66,0,0,0-.63,1.31,1.75,1.75,0,0,0,.49,1.27,5.09,5.09,0,0,0,1.59,1l2.17.86q4.13,1.65,4.2,5.36a5.18,5.18,0,0,1-1.75,4.06A6.74,6.74,0,0,1,98.86,197.75Z"/><path class="cls-1" d="M110.58,197.51V179H113l9.13,11.67V179h3.48v18.55H123.3l-9.24-11.81v11.81Z"/><path class="cls-1" d="M132.26,197.51V179h3.48v18.55Z"/><path class="cls-1" d="M142.36,197.51V179h2.44l9.13,11.67V179h3.48v18.55h-2.33l-9.24-11.81v11.81Z"/><path class="cls-1" d="M175.36,189.76v-3.1H182l0,1.59a9.52,9.52,0,0,1-4.87,8.34,9.65,9.65,0,0,1-4.73,1.21,9.63,9.63,0,1,1,.05-19.25,9.13,9.13,0,0,1,6.91,3L177,183.89a6,6,0,0,0-4.56-2A5.91,5.91,0,0,0,168,183.7a6.57,6.57,0,0,0,0,8.94,5.64,5.64,0,0,0,4.21,1.82,6.59,6.59,0,0,0,4.13-1.29,5.8,5.8,0,0,0,2.18-3.41Z"/><path class="cls-1" d="M192.27,197.75a8.86,8.86,0,0,1-3.5-.73,9.24,9.24,0,0,1-3-2l2.21-2.64A6.84,6.84,0,0,0,190,194a5.2,5.2,0,0,0,2.44.64,3.05,3.05,0,0,0,2-.63,2,2,0,0,0,.77-1.6,2.76,2.76,0,0,0-2-2.58L191.1,189a7.9,7.9,0,0,1-3.08-2,4.77,4.77,0,0,1-1-3.16,4.82,4.82,0,0,1,1.58-3.52,5.39,5.39,0,0,1,3.93-1.55,8,8,0,0,1,5.71,2.12l-2,2.59a4.8,4.8,0,0,0-3.67-1.61,2.49,2.49,0,0,0-1.66.53,1.66,1.66,0,0,0-.63,1.31,1.71,1.71,0,0,0,.49,1.27,5.09,5.09,0,0,0,1.59,1l2.17.86q4.13,1.65,4.2,5.36a5.18,5.18,0,0,1-1.75,4.06A6.74,6.74,0,0,1,192.27,197.75Z"/><path class="cls-1" d="M215.42,197.51v-7.75h-7.95v7.75H204V179h3.48v7.46h7.95V179h3.48v18.55Z"/><path class="cls-1" d="M237.29,195.84a7.55,7.55,0,0,1-10.15,0,6.55,6.55,0,0,1-2-4.91V179h3.48v11.52a4.24,4.24,0,0,0,.95,2.86,3.69,3.69,0,0,0,5.29,0,4.16,4.16,0,0,0,1-2.82V179h3.48v12A6.56,6.56,0,0,1,237.29,195.84Z"/><path class="cls-1" d="M250.51,197.75A8.93,8.93,0,0,1,247,197a9.3,9.3,0,0,1-3-2l2.21-2.64a6.79,6.79,0,0,0,2,1.66,5.27,5.27,0,0,0,2.45.64,3,3,0,0,0,2-.63,2,2,0,0,0,.78-1.6,2.76,2.76,0,0,0-2-2.58l-2.07-.83a7.9,7.9,0,0,1-3.08-2,4.71,4.71,0,0,1-1-3.16,4.85,4.85,0,0,1,1.57-3.52,5.4,5.4,0,0,1,3.94-1.55,8,8,0,0,1,5.71,2.12l-2.05,2.59a4.78,4.78,0,0,0-3.66-1.61,2.53,2.53,0,0,0-1.67.53,1.68,1.68,0,0,0-.62,1.31A1.71,1.71,0,0,0,249,185a4.86,4.86,0,0,0,1.59,1l2.16.86q4.13,1.65,4.21,5.36a5.22,5.22,0,0,1-1.75,4.06A6.75,6.75,0,0,1,250.51,197.75Z"/><path class="cls-1" d="M99.32,224.51V206h3.48v18.55Z"/><path class="cls-1" d="M119,224.51V206h3.36l5.74,9.14,5.81-9.14h3.64v18.55H134v-12.7l-.28,0L128,220.66l-5.61-8.77h0v12.62Z"/><path class="cls-1" d="M141.63,224.51,148.78,206h3.14l7.13,18.55h-3.57l-1-2.57h-8.3l-1,2.57Zm8.73-13.36-3,7.7h5.91Z"/><path class="cls-1" d="M163.4,224.51V206h3.47v15.21h6.82v3.34Z"/><path class="cls-1" d="M178.71,224.51V206h3.36l5.73,9.14,5.81-9.14h3.65v18.55h-3.48v-12.7l-.28,0-5.76,8.89-5.61-8.77h.06v12.62Z"/><path class="cls-1" d="M221.64,215.22a9.63,9.63,0,1,1-2.82-6.8A9.22,9.22,0,0,1,221.64,215.22Zm-14,4.43a6.09,6.09,0,0,0,8.72,0,6.38,6.38,0,0,0,0-8.88,6.09,6.09,0,0,0-8.72,0,6.4,6.4,0,0,0,0,8.88Zm2.74-15.6a1.49,1.49,0,0,1-1.13.49,1.54,1.54,0,0,1-1.15-.49,1.67,1.67,0,0,1-.47-1.19,1.61,1.61,0,0,1,.46-1.17,1.65,1.65,0,0,1,1.16-.48,1.53,1.53,0,0,1,1.12.48,1.58,1.58,0,0,1,.47,1.17A1.66,1.66,0,0,1,210.38,204.05Zm5.52,0a1.79,1.79,0,0,1-2.46,0,1.59,1.59,0,0,1-.51-1.19,1.55,1.55,0,0,1,.51-1.17,1.82,1.82,0,0,1,2.46,0,1.55,1.55,0,0,1,.51,1.17A1.59,1.59,0,0,1,215.9,204.05Z"/></svg>