<svg id="Layer_1" data-name="Layer 1" xmlns="http://www.w3.org/2000/svg" viewBox="0 0 580 400"><defs><style>.cls-1{fill:#d4ac76;}</style></defs><title>text-02</title><path class="cls-1" d="M101.46,151.5V136.81h4.19a7.2,7.2,0,0,1,5.2,2.1,7.07,7.07,0,0,1,2.16,5.29,6.87,6.87,0,0,1-2.19,5.24,7.5,7.5,0,0,1-5.32,2.05h-4Zm4.22-12.24H104V149h1.7a4.23,4.23,0,0,0,3.25-1.42,5,5,0,0,0,1.31-3.5,4.84,4.84,0,0,0-1.32-3.47A4.31,4.31,0,0,0,105.68,139.26Z"/><path class="cls-1" d="M117.69,151.5V136.81h2.75V151.5h-2.75Z"/><path class="cls-1" d="M124.38,139.45v-2.64h12.1v2.64H131.8v12H129v-12h-4.67Z"/><path class="cls-1" d="M139.44,139.45v-2.64h12.1v2.64h-4.67v12h-2.75v-12h-4.67Z"/><path class="cls-1" d="M163.76,151.5V136.81h1.93l7.23,9.24v-9.24h2.75V151.5h-1.84l-7.31-9.35v9.35h-2.75Z"/><path class="cls-1" d="M189.06,136.81h3l-4.86,8.72v6H184.4v-5.87l-4.92-8.81h3l3.31,6.09Z"/><path class="cls-1" d="M192.55,151.5l5.66-14.69h2.49l5.64,14.69h-2.83l-0.78-2h-6.57l-0.78,2h-2.83Zm6.91-10.58L197.11,147h4.68Z"/><path class="cls-1" d="M227.41,151.5v-6.14h-6.29v6.14h-2.75V136.81h2.75v5.91h6.29v-5.91h2.75V151.5h-2.75Z"/><path class="cls-1" d="M244,145.29h-5.43V149h6v2.45h-8.72V136.81h8.55v2.45h-5.8v3.57H244v2.45Z"/><path class="cls-1" d="M249.36,151.5V136.81H252l4.54,7.24,4.6-7.24H264V151.5h-2.75V141.45l-0.22,0-4.56,7-4.44-6.94h0v10h-2.75Z"/><path class="cls-1" d="M281.5,151.5l-5.61-14.69h2.87l4,10.56,4-10.56h2.79L284,151.5h-2.5Z"/><path class="cls-1" d="M290.64,151.5l5.66-14.69h2.49l5.64,14.69h-2.83l-0.78-2h-6.57l-0.78,2h-2.83Zm5.64-16.2a1.19,1.19,0,0,1-.9.39,1.21,1.21,0,0,1-.91-0.39,1.31,1.31,0,0,1-.37-0.94,1.27,1.27,0,0,1,1.28-1.31,1.21,1.21,0,0,1,.89.38,1.27,1.27,0,0,1,.38.93A1.32,1.32,0,0,1,296.28,135.3Zm1.27,5.62L295.2,147h4.68Zm3.1-5.62a1.41,1.41,0,0,1-1.95,0,1.26,1.26,0,0,1-.4-0.94,1.23,1.23,0,0,1,.4-0.93,1.44,1.44,0,0,1,1.95,0,1.23,1.23,0,0,1,.4.93A1.26,1.26,0,0,1,300.65,135.3Z"/><path class="cls-1" d="M308.26,151.5V136.81h1.93l7.23,9.24v-9.24h2.75V151.5h-1.84L311,142.15v9.35h-2.75Z"/><path class="cls-1" d="M324.1,139.45v-2.64h12.1v2.64h-4.67v12h-2.75v-12H324.1Z"/><path class="cls-1" d="M337.1,151.5l5.66-14.69h2.49l5.64,14.69h-2.83l-0.78-2h-6.57l-0.78,2H337.1ZM344,140.92L341.66,147h4.68Z"/><path class="cls-1" d="M354.71,151.5V136.81h5.75a5,5,0,0,1,3.54,1.33,4.57,4.57,0,0,1,1.41,3.48,4.41,4.41,0,0,1-1.05,3,4.72,4.72,0,0,1-2.74,1.56l3.95,5.33h-3.1l-3.81-5.24h-1.19v5.24h-2.75ZM360,139.26h-2.56v4.79H360a2.72,2.72,0,0,0,1.91-.65,2.19,2.19,0,0,0,.71-1.7,2.31,2.31,0,0,0-.73-1.74A2.62,2.62,0,0,0,360,139.26Z"/><path class="cls-1" d="M378,151.5V136.81h5.27a5,5,0,0,1,5.1,5.07,4.65,4.65,0,0,1-1.49,3.54,5.14,5.14,0,0,1-3.66,1.4h-2.47v4.67H378Zm5-12h-2.28v4.92h2.32a2.59,2.59,0,0,0,1.84-.66,2.29,2.29,0,0,0,.7-1.76,2.41,2.41,0,0,0-.72-1.8A2.56,2.56,0,0,0,383.06,139.45Z"/><path class="cls-1" d="M390,151.5l5.66-14.69h2.49l5.64,14.69H401l-0.78-2h-6.57l-0.78,2H390Zm6.91-10.58L394.57,147h4.68Zm2.13-6.62a2.12,2.12,0,1,1-3.62-1.5,2.15,2.15,0,0,1,3,0A2,2,0,0,1,399.06,134.3Zm-2.66.55a0.75,0.75,0,0,0,.55.23,0.72,0.72,0,0,0,.54-0.23,0.77,0.77,0,0,0,.22-0.55,0.75,0.75,0,0,0-.23-0.55,0.76,0.76,0,0,0-1.08,0A0.78,0.78,0,0,0,396.4,134.86Z"/><path class="cls-1" d="M415.83,151.5V136.81H420a7.2,7.2,0,0,1,5.2,2.1,7.07,7.07,0,0,1,2.16,5.29,6.87,6.87,0,0,1-2.19,5.24,7.5,7.5,0,0,1-5.32,2.05h-4Zm4.22-12.24h-1.68V149h1.7a4.23,4.23,0,0,0,3.25-1.42,5,5,0,0,0,1.31-3.5,4.84,4.84,0,0,0-1.33-3.47A4.31,4.31,0,0,0,420.06,139.26Z"/><path class="cls-1" d="M432.06,151.5V136.81h2.75V151.5h-2.75Z"/><path class="cls-1" d="M449.41,145.36v-2.45h5.26l0,1.25a7.52,7.52,0,0,1-1.07,3.89,7.4,7.4,0,0,1-2.78,2.71,7.59,7.59,0,0,1-3.74,1,7.62,7.62,0,1,1,0-15.24,7.24,7.24,0,0,1,5.47,2.37l-1.88,1.86a4.75,4.75,0,0,0-3.61-1.59,4.67,4.67,0,0,0-3.51,1.44,5.19,5.19,0,0,0,0,7.08,4.48,4.48,0,0,0,3.33,1.44,5.21,5.21,0,0,0,3.27-1,4.65,4.65,0,0,0,1.73-2.7h-2.49Z"/></svg>