<svg id="Layer_1" data-name="Layer 1" xmlns="http://www.w3.org/2000/svg" viewBox="0 0 580 400"><defs><style>.cls-1{fill:#d4ac76;}</style></defs><title>text</title><path class="cls-1" d="M55.2,104.13V61.61H67.33a20.84,20.84,0,0,1,15,6.08A20.48,20.48,0,0,1,88.64,83,19.87,19.87,0,0,1,82.3,98.19a21.72,21.72,0,0,1-15.41,5.94ZM67.42,68.71H62.57V97h4.91a12.25,12.25,0,0,0,9.4-4.11,14.45,14.45,0,0,0,3.78-10.13,14,14,0,0,0-3.83-10.05A12.47,12.47,0,0,0,67.42,68.71Z"/><path class="cls-1" d="M101.07,104.13V61.61h8v42.52Z"/><path class="cls-1" d="M119.33,69.26V61.61h35v7.65H140.83v34.87h-8V69.26Z"/><path class="cls-1" d="M161.84,69.26V61.61h35v7.65H183.35v34.87h-8V69.26Z"/><path class="cls-1" d="M230,104.13V61.61h8V96.48h15.62v7.65Z"/><path class="cls-1" d="M265.13,104.13V61.61h8v42.52Z"/><path class="cls-1" d="M299.26,104.13,283,61.61h8.3L303,92.18l11.53-30.57h8.07l-16.1,42.52Z"/><path class="cls-1" d="M342.32,104.68a20.43,20.43,0,0,1-8-1.68,21,21,0,0,1-6.88-4.65l5.06-6.06a15.38,15.38,0,0,0,4.69,3.81,11.93,11.93,0,0,0,5.59,1.48,6.86,6.86,0,0,0,4.54-1.46,4.56,4.56,0,0,0,1.76-3.66q0-4-4.66-5.9l-4.74-1.9A18.32,18.32,0,0,1,332.59,80a10.84,10.84,0,0,1-2.28-7.23,11,11,0,0,1,3.61-8.07,12.3,12.3,0,0,1,9-3.55A18.29,18.29,0,0,1,356,66l-4.69,5.93a10.92,10.92,0,0,0-8.4-3.7,5.63,5.63,0,0,0-3.81,1.23,3.77,3.77,0,0,0-1.44,3,4,4,0,0,0,1.12,2.92,11.29,11.29,0,0,0,3.65,2.19l5,2q9.45,3.8,9.63,12.28a11.88,11.88,0,0,1-4,9.3Q349,104.69,342.32,104.68Z"/><path class="cls-1" d="M380.44,104.13,364.19,61.61h8.3l11.68,30.57L395.7,61.61h8.07l-16.1,42.52Z"/><path class="cls-1" d="M437.5,86.14H421.77V97H439v7.1H413.8V61.61h24.75v7.1H421.77V79.05H437.5Z"/><path class="cls-1" d="M452,104.13V61.61H468.6a14.34,14.34,0,0,1,10.24,3.86,13.24,13.24,0,0,1,4.09,10.09,12.75,12.75,0,0,1-3,8.61A13.66,13.66,0,0,1,472,88.7l11.42,15.43h-9L463.38,89h-3.44v15.18Zm15.4-35.42h-7.43V82.57h7.43a7.88,7.88,0,0,0,5.53-1.89A6.36,6.36,0,0,0,475,75.77a6.7,6.7,0,0,0-2.12-5A7.59,7.59,0,0,0,467.37,68.71Z"/><path class="cls-1" d="M495.36,104.13V61.61h7.37V80.35L519,61.61h9.85l-15,17,15.33,25.56H520L508.42,84.72l-5.69,6.43v13Z"/></svg>