<svg id="Layer_1" data-name="Layer 1" xmlns="http://www.w3.org/2000/svg" viewBox="0 0 980 120"><defs><style>.cls-1{fill:#d4ac76;}</style></defs><title>text</title><path class="cls-1" d="M604.08,53.31a19.89,19.89,0,0,0,1.08-3.91.63.63,0,0,0-.69-.69,12.66,12.66,0,0,0-2.06.6l-2.5.95a.37.37,0,0,1-.43-.18l-.43-.77c-.08-.17,0-.34.26-.43l10.15-5a4.85,4.85,0,0,1,1.63-.6c.39,0,.56.21.56.43a3.42,3.42,0,0,1-.26,1.2c-.13.35-2.28,6.45-3.39,9.85l-2.24,6.88c-.34,1.29-1.55,5.07-1.81,5.76-.51,1.38-.17,2,1.55,2h2.32c.26,0,.35.18.26.43l-.17,1c-.09.26-.09.34-.43.34s-6-.13-6.79-.13c-1.12,0-6.54.13-6.88.13-.18,0-.26-.17-.18-.34l.26-1c0-.26.17-.35.52-.35H596c1.46,0,2.67-.08,3.36-1.93.43-1.21,1.72-5.08,2.15-6.54Z"/><path class="cls-1" d="M627.52,59.84a5.14,5.14,0,0,1-1.55.78,7.8,7.8,0,0,1-2.15.26c-5,0-6.19-4.22-6.19-6.45,0-5,4-11.14,10.4-11.14,4.82,0,7,2.92,7,7.35,0,9.81-9.46,18.58-17.46,20.81a3.56,3.56,0,0,1-.94.22A.69.69,0,0,1,616,71a.82.82,0,0,1,.43-.77A24.2,24.2,0,0,0,627.69,60Zm1.37-3a15.83,15.83,0,0,0,1.9-7.48c0-1.76-.43-4.43-2.93-4.43-4,0-5.76,6.8-5.76,9.94,0,1.89.77,4.3,2.92,4.3A4.34,4.34,0,0,0,628.89,56.83Z"/><path class="cls-1" d="M647.38,67.58c2.5,0,4-1.54,5.25-3.18.17-.34.34-.43.52-.34l.6.34c.08.17.08.26-.09.52a52,52,0,0,0-3,6.53c-.08.35-.17.43-.43.43a1,1,0,0,1-.86-.51C649,71,648.07,71,646.87,71h-9.2c-.74,0-1.34,0-1.85.09s-.91,0-1.16,0c-.43,0-.52-.17-.52-.56a1.33,1.33,0,0,1,.6-.94c5.85-4.3,16.34-12.13,16.43-18.62,0-1.72-.78-4.47-3.87-4.47-2.93,0-4.9,2.84-5.68,4.13-.26.43-.34.6-.51.51l-.86-.43c-.09-.08-.09-.17,0-.51.94-2.41,4.21-7,9.2-7,4,0,6.45,2.75,6.45,6.58,0,7.39-11.44,14.53-15.48,17.37v.34Z"/><path class="cls-1" d="M669.4,71.45c-2.84,0-4.3-1-4.3-2.49a1.68,1.68,0,0,1,1.63-1.81,2.19,2.19,0,0,1,2.07,1.72c.26.69.6,1.12,1.37,1.12,1.21,0,2.15-.94,2.15-2.75.09-1.46-1-2.71-1.93-4.26s-1.68-2.53-1.59-4.34c0-2.75,2.32-5.5,6.36-5.5,1.46,0,3.36.6,3.36,2.4a1.69,1.69,0,0,1-3.36.35c-.17-.52-.34-1.21-1-1.21-.86,0-1.81.61-1.81,2.5,0,1.46,1.51,3.22,2,3.87a7.61,7.61,0,0,1,1.64,4.64C675.94,69.05,673.27,71.45,669.4,71.45Z"/><path class="cls-1" d="M686.08,65.52a9.47,9.47,0,0,0-.77,2.75c0,.35.17.6.52.6.86-.08,3.09-2.4,3.35-2.75a.23.23,0,0,1,.39,0l.47.47c.17.17.26.26.09.43-.26.35-3.27,4.47-8,4.47a1.1,1.1,0,0,1-1.25-1.2c0-.86.69-2.88,2.41-7.65l1.21-3.36a8.75,8.75,0,0,0,.68-2.49.45.45,0,0,0-.51-.52c-.69,0-2.67,2.24-3.27,2.93a.33.33,0,0,1-.52,0l-.43-.39c-.17-.13-.25-.22-.17-.39.26-.25,4.13-5.24,7.91-5.24,1,0,1.55.51,1.55,1.37A18.22,18.22,0,0,1,688.49,59Zm.73-19.91a2.45,2.45,0,0,1,2.41-2.32c1.72,0,2.63,1.08,2.63,2.15a2.68,2.68,0,0,1-2.54,2.49A2.33,2.33,0,0,1,686.81,45.61Z"/><path class="cls-1" d="M714.38,42c.6,0,.77.43.64.73-.64,1.55-7.52,21.59-8.21,24.25-.26,1.29-.35,1.89.26,1.89s2.49-1.89,2.75-2.15.34-.17.47,0l.56.47a.37.37,0,0,1,0,.43c-.34.43-3.44,3.87-6.88,3.87-.94,0-1.46-.34-1.46-1.11a27.93,27.93,0,0,1,1.72-6l-.43-.18c-2.06,3.36-5.42,7.31-8.51,7.31a3.37,3.37,0,0,1-3.19-3.52c0-3,2-7.91,5.55-11.48,1.12-1.12,3.4-3.31,6.41-3.31a4,4,0,0,1,3.05,1.37L710,45.18c.26-.77,0-1.63-1.12-1.63h-1.29c-.34,0-.43-.17-.34-.26l.17-1c.09-.17.17-.26.69-.26ZM703.46,54.68c-3,0-7,9.12-7,12.65,0,.94.51,1.46,1.12,1.46,1.29,0,3.78-3.1,5.42-5.42,1.2-1.63,2.75-4.47,2.75-6.19A2.31,2.31,0,0,0,703.46,54.68Z"/><path class="cls-1" d="M713.43,65.56A14.13,14.13,0,0,1,717,55.89a8,8,0,0,1,6.11-2.75,5.1,5.1,0,0,1,5.33,5.41,16.4,16.4,0,0,1-3.7,10.07,7.7,7.7,0,0,1-6.19,2.83C716.05,71.45,713.43,69.52,713.43,65.56Zm9.46-.43c1.59-2.71,2.92-6.27,2.92-7.82A1.82,1.82,0,0,0,724,55.37c-1.77,0-3.4,1.51-5.51,5a14.92,14.92,0,0,0-2.28,6.71,1.93,1.93,0,0,0,1.81,2C719.67,69.13,721.21,67.93,722.89,65.13Z"/><path class="cls-1" d="M731.83,71c-.25,0-.43-.17-.34-.34l2.15-7a74.7,74.7,0,0,0,2.07-7.31.76.76,0,0,0-.78-.68c-.77,0-2.49,1.63-3.1,2.49-.08.17-.25.17-.43.09l-.51-.35a.37.37,0,0,1,0-.43c.77-1.29,3.27-4.38,6.79-4.38a1.55,1.55,0,0,1,1.72,1.63,35,35,0,0,1-1.72,5.85l.3.17c1.12-2.41,4.17-7.65,7-7.65a2.15,2.15,0,0,1,2.24,2.15,2.38,2.38,0,0,1-1.81,2.4,2.08,2.08,0,0,1-1.29-.34,1.72,1.72,0,0,0-1.2-.52c-1.21,0-3.61,3.53-4.9,6a32,32,0,0,0-1.38,3.53l-1.46,4.39a.53.53,0,0,1-.52.25Z"/></svg>