<svg id="Layer_1" data-name="Layer 1" xmlns="http://www.w3.org/2000/svg" viewBox="0 0 580 400"><defs><style>.cls-1{fill:#d4ac76;}</style></defs><title>text</title><path class="cls-1" d="M161.14,248.67V235.53h4.33a4,4,0,0,1,2.87,1.09,3.61,3.61,0,0,1,1.13,2.71A3.12,3.12,0,0,1,168,242a3.59,3.59,0,0,1,1.45,1.17,2.76,2.76,0,0,1,.55,1.67,3.61,3.61,0,0,1-1.15,2.79,4.16,4.16,0,0,1-2.9,1.06Zm4-10.95h-1.76V241h2a1.83,1.83,0,0,0,1.31-.49,1.59,1.59,0,0,0,.5-1.21,1.42,1.42,0,0,0-.55-1.17A2.3,2.3,0,0,0,165.18,237.72Zm.37,5.27h-2.13v3.48h2.08A2.14,2.14,0,0,0,167,246a1.66,1.66,0,0,0,.54-1.27,1.61,1.61,0,0,0-.51-1.25A2.06,2.06,0,0,0,165.55,243Z"/><path class="cls-1" d="M180.93,243.11h-4.86v3.36h5.34v2.2H173.6V235.53h7.65v2.19h-5.18v3.19h4.86Z"/><path class="cls-1" d="M188.55,248.84a6.45,6.45,0,0,1-2.48-.52,6.64,6.64,0,0,1-2.12-1.44l1.56-1.87a4.62,4.62,0,0,0,1.45,1.17,3.65,3.65,0,0,0,1.73.46,2.12,2.12,0,0,0,1.4-.45,1.4,1.4,0,0,0,.55-1.13,2,2,0,0,0-1.44-1.83l-1.47-.58a5.56,5.56,0,0,1-2.18-1.45,3.36,3.36,0,0,1-.71-2.24,3.41,3.41,0,0,1,1.11-2.49,3.85,3.85,0,0,1,2.79-1.1,5.67,5.67,0,0,1,4,1.5l-1.45,1.84a3.4,3.4,0,0,0-2.6-1.14,1.77,1.77,0,0,0-1.18.37,1.18,1.18,0,0,0-.44.93,1.21,1.21,0,0,0,.34.9,3.75,3.75,0,0,0,1.13.68l1.54.61c1.94.78,2.94,2.05,3,3.79a3.7,3.7,0,0,1-1.23,2.88A4.79,4.79,0,0,1,188.55,248.84Z"/><path class="cls-1" d="M195.21,237.89v-2.36H206v2.36h-4.18v10.78h-2.47V237.89Z"/><path class="cls-1" d="M206.16,248.67l5.07-13.14h2.22l5.05,13.14H216l-.7-1.82h-5.88l-.7,1.82Zm5-14.5a1,1,0,0,1-.8.35,1,1,0,0,1-.81-.35,1.17,1.17,0,0,1,.81-2,1,1,0,0,1,.79.34,1.12,1.12,0,0,1,.34.83A1.17,1.17,0,0,1,211.2,234.17Zm1.14,5-2.1,5.45h4.19Zm2.77-5a1.26,1.26,0,0,1-1.74,0,1.12,1.12,0,0,1-.36-.84,1.1,1.1,0,0,1,.36-.83,1.28,1.28,0,0,1,1.74,0,1.1,1.1,0,0,1,.36.83A1.12,1.12,0,0,1,215.11,234.17Z"/><path class="cls-1" d="M221.24,248.67V235.53h2.46V246.3h4.83v2.37Z"/><path class="cls-1" d="M231.74,248.67V235.53h2.47V246.3H239v2.37Z"/><path class="cls-1" d="M252.3,248.67l-5-13.14h2.57l3.61,9.44,3.56-9.44h2.5l-5,13.14Z"/><path class="cls-1" d="M259.81,248.67l5.07-13.14h2.22l5,13.14h-2.53l-.7-1.82H263l-.7,1.82ZM266,239.2l-2.1,5.45h4.19Zm1.91-5.92a1.83,1.83,0,0,1-.55,1.34,1.87,1.87,0,0,1-1.34.55,1.83,1.83,0,0,1-1.35-.55,1.91,1.91,0,0,1,0-2.68,1.87,1.87,0,0,1,1.35-.55,1.84,1.84,0,0,1,1.34.56A1.79,1.79,0,0,1,267.9,233.28Zm-2.38.49a.67.67,0,0,0,.5.21.63.63,0,0,0,.48-.21.67.67,0,0,0,.19-.49.64.64,0,0,0-.2-.49.67.67,0,0,0-1,0,.7.7,0,0,0,0,1Z"/><path class="cls-1" d="M274.89,248.67V235.53H280a4.43,4.43,0,0,1,3.17,1.19,4.08,4.08,0,0,1,1.26,3.11,3.94,3.94,0,0,1-.94,2.67,4.24,4.24,0,0,1-2.45,1.4l3.53,4.77h-2.77l-3.41-4.7h-1.07v4.7Zm4.76-10.95h-2.3V242h2.3a2.45,2.45,0,0,0,1.71-.58,2,2,0,0,0,.64-1.52,2.07,2.07,0,0,0-.66-1.56A2.38,2.38,0,0,0,279.65,237.72Z"/><path class="cls-1" d="M298,248.67l-5-13.14h2.57l3.61,9.44,3.56-9.44h2.5l-5,13.14Z"/><path class="cls-1" d="M305.52,248.67l5.07-13.14h2.23l5.05,13.14h-2.54l-.7-1.82h-5.87l-.7,1.82Zm6.19-9.47-2.11,5.45h4.19Z"/><path class="cls-1" d="M331.23,246.81a6.55,6.55,0,0,1-4.87,2.08,6.68,6.68,0,0,1-4.86-2,6.82,6.82,0,1,1,9.69-9.59L329.46,239a4.14,4.14,0,0,0-3.12-1.36,4.19,4.19,0,0,0-3.11,1.3,4.53,4.53,0,0,0,0,6.29,4.34,4.34,0,0,0,6.26-.07Z"/><path class="cls-1" d="M334.46,248.67V235.53h2.27v5.79l5-5.79h3l-4.64,5.24,4.74,7.9h-2.84l-3.58-6-1.76,2v4Z"/><path class="cls-1" d="M348.06,248.67V235.53h5.14a4.4,4.4,0,0,1,3.16,1.19,4,4,0,0,1,1.27,3.11,4,4,0,0,1-.94,2.67,4.24,4.24,0,0,1-2.46,1.4l3.53,4.77H355l-3.41-4.7h-1.06v4.7Zm4.76-10.95h-2.3V242h2.3a2.45,2.45,0,0,0,1.71-.58,2,2,0,0,0,.63-1.52,2.1,2.1,0,0,0-.65-1.56A2.38,2.38,0,0,0,352.82,237.72Z"/><path class="cls-1" d="M359.67,248.67l5.06-13.14H367L372,248.67h-2.53l-.7-1.82H362.9l-.7,1.82Zm6.18-9.47-2.1,5.45h4.19Z"/><path class="cls-1" d="M381.41,248.67V235.53h4.33a4,4,0,0,1,2.87,1.09,3.65,3.65,0,0,1,1.13,2.71,3.12,3.12,0,0,1-1.47,2.65,3.65,3.65,0,0,1,1.45,1.17,2.76,2.76,0,0,1,.55,1.67,3.65,3.65,0,0,1-1.15,2.79,4.17,4.17,0,0,1-2.91,1.06Zm4-10.95h-1.76V241h2a1.83,1.83,0,0,0,1.31-.49,1.63,1.63,0,0,0,.5-1.21,1.42,1.42,0,0,0-.55-1.17A2.3,2.3,0,0,0,385.45,237.72Zm.37,5.27h-2.13v3.48h2.08a2.14,2.14,0,0,0,1.49-.49,1.66,1.66,0,0,0,.54-1.27,1.61,1.61,0,0,0-.51-1.25A2.06,2.06,0,0,0,385.82,243Z"/><path class="cls-1" d="M406.6,242.09a6.55,6.55,0,0,1-2,4.81,6.82,6.82,0,1,1,2-4.81Zm-9.91,3.13a4.31,4.31,0,0,0,6.17,0,4.5,4.5,0,0,0,0-6.29,4.31,4.31,0,0,0-6.17,0,4.53,4.53,0,0,0,0,6.29Z"/><path class="cls-1" d="M410,248.67V235.53h2.28v5.79l5-5.79h3l-4.64,5.24,4.74,7.9h-2.83l-3.58-6-1.76,2v4Z"/></svg>