<svg id="Layer_1" data-name="Layer 1" xmlns="http://www.w3.org/2000/svg" viewBox="0 0 580 400"><defs><style>.cls-1{fill:#d4ac76;}</style></defs><title>text</title><path class="cls-1" d="M84.69,144.63h-6v4.48H85.1v2H76.59V136.38H85v2H78.64v4.33h6Z"/><path class="cls-1" d="M88.64,138.34v-2h11.89v2H95.61v12.73h-2V138.34Z"/><path class="cls-1" d="M103.44,138.34v-2h11.89v2h-4.92v12.73h-2V138.34Z"/><path class="cls-1" d="M136.93,151.07v-6.36h-7.14v6.36h-2V136.38h2v6.37h7.14v-6.37H139v14.69Z"/><path class="cls-1" d="M150.11,151.32a5.15,5.15,0,0,1-3.83-1.54,5.34,5.34,0,0,1-1.5-3.88v-9.52h2.05v9.4a3.79,3.79,0,0,0,.88,2.56,3,3,0,0,0,2.4,1,3.07,3.07,0,0,0,2.43-1,3.72,3.72,0,0,0,.89-2.57v-9.41h2v9.52a5.34,5.34,0,0,1-1.5,3.88A5.16,5.16,0,0,1,150.11,151.32Z"/><path class="cls-1" d="M165.14,151.26a6.87,6.87,0,0,1-2.75-.59,7.33,7.33,0,0,1-2.33-1.58l1.45-1.66a5.66,5.66,0,0,0,1.69,1.34,4.3,4.3,0,0,0,2,.53,2.86,2.86,0,0,0,1.9-.62,2,2,0,0,0,.74-1.57,2.58,2.58,0,0,0-1.86-2.4l-1.73-.69a6,6,0,0,1-2.41-1.58,3.47,3.47,0,0,1-.79-2.32,3.73,3.73,0,0,1,1.21-2.78,4.23,4.23,0,0,1,3-1.15,6,6,0,0,1,4.27,1.62l-1.24,1.66a4.07,4.07,0,0,0-3-1.32,2.3,2.3,0,0,0-1.55.51,1.7,1.7,0,0,0-.6,1.36,1.64,1.64,0,0,0,.43,1.14,4.26,4.26,0,0,0,1.5.91l1.76.71c2.14.86,3.17,2.25,3.09,4.19a4,4,0,0,1-1.3,3.09A4.92,4.92,0,0,1,165.14,151.26Z"/><path class="cls-1" d="M183,151.07V136.38h8v2h-6V143h5.28v1.95H185v6.16Z"/><path class="cls-1" d="M202.09,151.34a7.22,7.22,0,0,1-5.29-2.18,7.89,7.89,0,0,1,0-10.89,7.52,7.52,0,0,1,10.58,0,7.84,7.84,0,0,1,0,10.87A7.23,7.23,0,0,1,202.09,151.34Zm-3.84-3.61a5.31,5.31,0,0,0,7.69,0,5.87,5.87,0,0,0,0-8,5.29,5.29,0,0,0-7.68,0,5.88,5.88,0,0,0,0,8Zm2.47-12.9a1,1,0,0,1-.73.32,1,1,0,0,1-.73-.32,1.19,1.19,0,0,1-.29-.8,1.17,1.17,0,0,1,.29-.8.94.94,0,0,1,.73-.32,1,1,0,0,1,.73.32,1.14,1.14,0,0,1,.3.8A1.15,1.15,0,0,1,200.72,134.83Zm4.07,0a1,1,0,0,1-1.46,0,1.15,1.15,0,0,1-.3-.8,1.14,1.14,0,0,1,.3-.8,1,1,0,0,1,1.46,0,1.14,1.14,0,0,1,.3.8A1.15,1.15,0,0,1,204.79,134.83Z"/><path class="cls-1" d="M214.72,151.07V136.38h5.45a4.61,4.61,0,0,1,3.31,1.28,4.38,4.38,0,0,1,1.33,3.32,4.44,4.44,0,0,1-1.1,3.07,4.38,4.38,0,0,1-2.81,1.43l4.25,5.59h-2.53l-4.21-5.61h-1.64v5.61Zm5.18-12.73h-3.13v5.3h3.11a3,3,0,0,0,2.08-.72,2.67,2.67,0,0,0,0-3.82A2.87,2.87,0,0,0,219.9,138.34Z"/><path class="cls-1" d="M236.28,151.07l5.9-14.69H244l5.78,14.69h-2.27l-.89-2.26h-7.19l-.91,2.26Zm6.83-11.32-2.86,7.1h5.64Z"/><path class="cls-1" d="M253.9,151.07V136.38h2v12.73h6v2Z"/><path class="cls-1" d="M266.5,151.07V136.38h2.05v12.73h6v2Z"/><path class="cls-1" d="M277.57,151.07l5.9-14.69h1.85l5.79,14.69h-2.27l-.89-2.26h-7.2l-.91,2.26Zm6.82-11.32-2.85,7.1h5.64Z"/><path class="cls-1" d="M301.76,151.07l5.9-14.69h1.85l5.78,14.69H313l-.89-2.26h-7.2l-.91,2.26Zm6.82-11.32-2.85,7.1h5.64Z"/><path class="cls-1" d="M323.29,151.26a7,7,0,0,1-2.75-.59,7.28,7.28,0,0,1-2.32-1.58l1.44-1.66a5.84,5.84,0,0,0,1.7,1.34,4.24,4.24,0,0,0,2,.53,2.86,2.86,0,0,0,1.9-.62,2,2,0,0,0,.73-1.57,2.58,2.58,0,0,0-1.85-2.4l-1.74-.69a5.93,5.93,0,0,1-2.4-1.58,3.42,3.42,0,0,1-.79-2.32,3.7,3.7,0,0,1,1.21-2.78,4.23,4.23,0,0,1,3-1.15,6,6,0,0,1,4.26,1.62l-1.23,1.66a4.07,4.07,0,0,0-3-1.32,2.33,2.33,0,0,0-1.56.51,1.7,1.7,0,0,0-.6,1.36,1.65,1.65,0,0,0,.44,1.14,4.21,4.21,0,0,0,1.49.91l1.77.71c2.14.86,3.17,2.25,3.08,4.19a4,4,0,0,1-1.29,3.09A5,5,0,0,1,323.29,151.26Z"/><path class="cls-1" d="M333.11,151.07V136.38h5a4.64,4.64,0,0,1,3.41,1.37,4.76,4.76,0,0,1,1.36,3.5,4.58,4.58,0,0,1-1.4,3.43,4.72,4.72,0,0,1-3.45,1.37h-2.88v5ZM338,138.34h-2.82v5.76H338a2.71,2.71,0,0,0,2.84-2.85,2.87,2.87,0,0,0-.81-2.09A2.78,2.78,0,0,0,338,138.34Z"/><path class="cls-1" d="M355.85,144.63h-6v4.48h6.46v2h-8.51V136.38h8.4v2h-6.35v4.33h6Z"/><path class="cls-1" d="M361.36,151.07V136.38h2.05v7l6.12-7h2.76l-5.18,5.83,5.31,8.86h-2.55l-4.27-7.17-2.19,2.46v4.71Z"/><path class="cls-1" d="M375.52,138.34v-2h11.89v2h-4.92v12.73h-2.05V138.34Z"/><path class="cls-1" d="M399.59,144.63h-6v4.48H400v2H391.5V136.38h8.39v2h-6.34v4.33h6Z"/><path class="cls-1" d="M405.1,151.07V136.38h5.45a4.61,4.61,0,0,1,3.31,1.28,4.38,4.38,0,0,1,1.33,3.32,4.44,4.44,0,0,1-1.1,3.07,4.38,4.38,0,0,1-2.81,1.43l4.25,5.59H413l-4.21-5.61h-1.64v5.61Zm5.18-12.73h-3.13v5.3h3.11a3,3,0,0,0,2.08-.72,2.67,2.67,0,0,0,0-3.82A2.87,2.87,0,0,0,410.28,138.34Z"/><path class="cls-1" d="M426.66,151.07l5.9-14.69h1.86l5.78,14.69h-2.27l-.89-2.26h-7.2l-.9,2.26Zm6.83-11.32-2.86,7.1h5.64Z"/><path class="cls-1" d="M447.21,151.07l-5.73-14.69h2.31l4.4,11.29,4.41-11.29h2.27l-5.75,14.69Z"/><path class="cls-1" d="M467.1,151.07V136.38H471a7.4,7.4,0,0,1,5.14,12.6,7.17,7.17,0,0,1-5.21,2.09Zm4-12.73h-2v10.77h2a4.76,4.76,0,0,0,3.62-1.57,5.46,5.46,0,0,0,1.46-3.84,5.23,5.23,0,0,0-1.51-3.81A4.91,4.91,0,0,0,471.11,138.34Z"/><path class="cls-1" d="M483.36,151.07V136.38h2.05v14.69Z"/><path class="cls-1" d="M500.61,144.69v-2h4.89v1a7.58,7.58,0,0,1-7.61,7.57,7.15,7.15,0,0,1-5.35-2.2,7.91,7.91,0,0,1,0-10.84,7.15,7.15,0,0,1,5.35-2.2,7.85,7.85,0,0,1,3.09.61,7.43,7.43,0,0,1,2.52,1.7L502,139.94a5.19,5.19,0,0,0-4.09-1.9A5.11,5.11,0,0,0,494,139.7a5.91,5.91,0,0,0,0,8,5.11,5.11,0,0,0,3.89,1.66,5.23,5.23,0,0,0,3.53-1.29,5.54,5.54,0,0,0,1.85-3.38Z"/></svg>