<svg id="Layer_1" data-name="Layer 1" xmlns="http://www.w3.org/2000/svg" viewBox="0 0 250 720"><defs><style>.cls-1{fill:#d80201;}</style></defs><title>text</title><path class="cls-1" d="M89.19,401.42a10.81,10.81,0,1,1,11.07-10.79A10.73,10.73,0,0,1,89.19,401.42Zm0-17.92a7.13,7.13,0,1,0,6.91,7.1A7,7,0,0,0,89.19,383.5Z"/><path class="cls-1" d="M112.56,401v-7.44c0-1.83-.4-3.22-2.54-3.22-2.33,0-2.89,1.7-2.89,3.72V401h-3.75V387.53h3.75v1.64a5,5,0,0,1,4.22-2.08,4.64,4.64,0,0,1,5,5.34V401Z"/><path class="cls-1" d="M124.18,401.39a7.12,7.12,0,0,1-5.11-2.24l2-2.29a4.36,4.36,0,0,0,3.17,1.58,1.58,1.58,0,0,0,1.7-1.49c0-2.29-6-1.14-6-5.67,0-2.73,2.26-4.25,4.8-4.25a6.87,6.87,0,0,1,4.37,1.43l-1.86,2.2a3.7,3.7,0,0,0-2.23-.9c-.65,0-1.42.4-1.42,1.15,0,1.95,6.2,1.08,6.2,5.67C129.8,399.71,127.07,401.39,124.18,401.39Z"/><path class="cls-1" d="M142.72,401v-1.76a5.19,5.19,0,0,1-4.37,2.2c-4,0-6.6-3.35-6.6-7.2s2.57-7.1,6.51-7.1a5.6,5.6,0,0,1,4.46,2.14v-1.7h3.79V401Zm-3.35-10.48a3.77,3.77,0,1,0,3.76,3.75A3.75,3.75,0,0,0,139.37,390.47Z"/><path class="cls-1" d="M150.1,401V377.73h3.75V401Z"/><path class="cls-1" d="M167.71,401v-1.76a5.21,5.21,0,0,1-4.37,2.2c-4,0-6.61-3.35-6.61-7.2s2.58-7.1,6.51-7.1a5.62,5.62,0,0,1,4.47,2.14v-1.7h3.78V401Zm-3.35-10.48a3.77,3.77,0,1,0,3.75,3.75A3.74,3.74,0,0,0,164.36,390.47Z"/><path class="cls-1" d="M54.41,438,47,428.68l-.47.47V438h-4V417.27h4V426l7.6-8.75h5.08l-8.74,9.55L59.71,438Z"/><path class="cls-1" d="M70.87,438v-7.44c0-1.83-.41-3.22-2.55-3.22-2.32,0-2.88,1.7-2.88,3.72V438H61.69V424.53h3.75v1.64a4.94,4.94,0,0,1,4.22-2.08,4.65,4.65,0,0,1,5,5.34V438Z"/><path class="cls-1" d="M88.47,438v-1.76a5.19,5.19,0,0,1-4.37,2.2c-4,0-6.6-3.35-6.6-7.2s2.57-7.1,6.51-7.1a5.59,5.59,0,0,1,4.46,2.14v-1.7h3.79V438Zm-3.34-10.48a3.77,3.77,0,1,0,3.75,3.75A3.75,3.75,0,0,0,85.13,427.47Z"/><path class="cls-1" d="M100.13,438.39A7.16,7.16,0,0,1,95,436.15l2-2.29a4.34,4.34,0,0,0,3.16,1.58,1.59,1.59,0,0,0,1.71-1.49c0-2.29-6-1.14-6-5.67,0-2.73,2.26-4.25,4.81-4.25a6.87,6.87,0,0,1,4.37,1.43l-1.86,2.2a3.73,3.73,0,0,0-2.23-.9c-.66,0-1.43.4-1.43,1.15,0,1.95,6.2,1.08,6.2,5.67C105.74,436.71,103,438.39,100.13,438.39Z"/><path class="cls-1" d="M112.19,427.75V438h-3.75v-10.2H107v-3.22h1.49v-4.59h3.75v4.59h2.63v3.22Z"/><path class="cls-1" d="M127,438v-1.76a5.22,5.22,0,0,1-4.37,2.2c-4,0-6.61-3.35-6.61-7.2s2.57-7.1,6.51-7.1a5.62,5.62,0,0,1,4.47,2.14v-1.7h3.78V438Zm-3.35-10.48a3.77,3.77,0,1,0,3.75,3.75A3.74,3.74,0,0,0,123.69,427.47Zm-.53-5.3a2.79,2.79,0,1,1,0-5.58,2.79,2.79,0,0,1,0,5.58Zm0-3.88a1.09,1.09,0,1,0,1.09,1.09A1.07,1.07,0,0,0,123.16,418.29Z"/><path class="cls-1" d="M138.69,438.39a7.12,7.12,0,0,1-5.11-2.24l2-2.29a4.36,4.36,0,0,0,3.16,1.58,1.59,1.59,0,0,0,1.71-1.49c0-2.29-6-1.14-6-5.67,0-2.73,2.27-4.25,4.81-4.25a6.87,6.87,0,0,1,4.37,1.43l-1.86,2.2a3.7,3.7,0,0,0-2.23-.9c-.65,0-1.43.4-1.43,1.15,0,1.95,6.2,1.08,6.2,5.67C144.3,436.71,141.58,438.39,138.69,438.39Z"/><path class="cls-1" d="M147,438V414.73h3.75V438Z"/><path class="cls-1" d="M156.14,421.12a2.27,2.27,0,0,1,0-4.53,2.27,2.27,0,0,1,0,4.53ZM154.25,438V424.53H158V438Z"/><path class="cls-1" d="M171.8,438v-1.76a5.19,5.19,0,0,1-4.37,2.2c-4,0-6.61-3.35-6.61-7.2s2.58-7.1,6.52-7.1a5.6,5.6,0,0,1,4.46,2.14v-11.5h3.78V438Zm-3.35-10.48a3.77,3.77,0,1,0,3.75,3.75A3.74,3.74,0,0,0,168.45,427.47Z"/><path class="cls-1" d="M182.31,431.84c.06,2.08,1.05,3.6,3.28,3.6a3.53,3.53,0,0,0,3.2-1.8l3.47.56a6.59,6.59,0,0,1-6.6,4.19c-4.34,0-7.2-2.79-7.2-7.17s2.73-7.13,7-7.13,6.85,3,6.85,7.26v.49Zm3.25-5.08a3,3,0,0,0-3.13,2.7h6.36A3.11,3.11,0,0,0,185.56,426.76Z"/><path class="cls-1" d="M204.41,438v-7.44c0-1.83-.4-3.22-2.54-3.22-2.33,0-2.88,1.7-2.88,3.72V438h-3.76V424.53H199v1.64a4.94,4.94,0,0,1,4.21-2.08,4.64,4.64,0,0,1,5,5.34V438Z"/></svg>