<svg id="Layer_1" data-name="Layer 1" xmlns="http://www.w3.org/2000/svg" viewBox="0 0 250 720"><defs><style>.cls-1{fill:#d80201;}</style></defs><title>text</title><path class="cls-1" d="M51.85,526V515.28h5.52v1.12H53v3.17h4.23v1.1H53v4.18h4.34V526Z"/><path class="cls-1" d="M63.43,526V522c0-1-.14-1.86-1.39-1.86-1.47,0-1.65,1.28-1.65,2.45V526H59.25v-6.64h1.14v.8a2.23,2.23,0,0,1,1.92-1,2.26,2.26,0,0,1,1.89.91,3,3,0,0,1,.38,1.76V526Z"/><path class="cls-1" d="M68.55,526.14a2.37,2.37,0,0,1-2.32-1.69l1-.42a1.48,1.48,0,0,0,1.35,1.07,1,1,0,0,0,1.09-1c0-1.44-3-1-3-3a1.87,1.87,0,0,1,1.94-1.86,2,2,0,0,1,1.82,1.2l-.94.5a1.07,1.07,0,0,0-.93-.66.79.79,0,0,0-.8.74c0,1.16,3.07.86,3.07,3A2.17,2.17,0,0,1,68.55,526.14Z"/><path class="cls-1" d="M76.47,526l-2.69-3-.28.28V526H72.36V514.28H73.5v7.48l2.41-2.45h1.52l-2.85,2.82L78,526Z"/><path class="cls-1" d="M79.67,517.61a.82.82,0,0,1-.82-.81.82.82,0,1,1,1.64,0A.82.82,0,0,1,79.67,517.61ZM79.09,526v-6.64h1.14V526Z"/><path class="cls-1" d="M83.56,520.37V526H82.42v-5.58H81.8v-1.06h.62v-2.83a3.64,3.64,0,0,1,.18-1.28,1.84,1.84,0,0,1,1.79-1.11,2.9,2.9,0,0,1,.83.15v1.15a1.94,1.94,0,0,0-.75-.16c-.83,0-.91.62-.91,1.29v2.79h1.66v1.06Z"/><path class="cls-1" d="M87.85,520.37V526H86.69v-5.58H86v-1.06h.68v-2.4h1.16v2.4H89v1.06Z"/><path class="cls-1" d="M90.89,522.86A2.14,2.14,0,0,0,93,525.1a2.3,2.3,0,0,0,2-1.37l1,.53a3.31,3.31,0,0,1-3,1.88,3.5,3.5,0,0,1-.07-7c2,0,3.17,1.57,3.17,3.49v.22Zm2-2.67a2,2,0,0,0-2,1.71h3.9A2,2,0,0,0,92.94,520.19Z"/><path class="cls-1" d="M99.61,526.14a2.36,2.36,0,0,1-2.32-1.69l1-.42c.27.59.64,1.07,1.34,1.07a1,1,0,0,0,1.09-1c0-1.44-3-1-3-3a1.87,1.87,0,0,1,1.93-1.86,2,2,0,0,1,1.83,1.2l-1,.5a1.05,1.05,0,0,0-.92-.66.79.79,0,0,0-.8.74c0,1.16,3.07.86,3.07,3A2.18,2.18,0,0,1,99.61,526.14Z"/><path class="cls-1" d="M105.72,526.38l-3.27-7.07h1.28l2,4.47,2-4.47H109Z"/><path class="cls-1" d="M115.26,526V525a2.84,2.84,0,0,1-2.31,1.12,3.29,3.29,0,0,1-3.2-3.53,3.23,3.23,0,0,1,3.18-3.46,2.83,2.83,0,0,1,2.33,1.1v-.94h1.13V526Zm-2.15-5.78a2.48,2.48,0,1,0,2.21,2.44A2.24,2.24,0,0,0,113.11,520.17ZM111.78,518a.82.82,0,0,1-.8-.8.8.8,0,1,1,.8.8Zm2.79,0a.81.81,0,0,1-.8-.8.8.8,0,1,1,.8.8Z"/><path class="cls-1" d="M124.15,528.42a3.21,3.21,0,0,1-2.66,1.23,3,3,0,0,1-3.23-3h1.14a2,2,0,0,0,2.11,2c1.6,0,2.13-1.21,2.13-2.63v-1a3,3,0,0,1-2.34,1.11,3.5,3.5,0,0,1,0-7,2.84,2.84,0,0,1,2.29,1.09v-.93h1.15v6.5A4.05,4.05,0,0,1,124.15,528.42Zm-2.67-8.25a2.29,2.29,0,0,0-2.18,2.52,2.24,2.24,0,0,0,2.18,2.41,2.48,2.48,0,0,0,0-4.93Z"/><path class="cls-1" d="M127.73,522.86a2.16,2.16,0,0,0,2.12,2.24,2.28,2.28,0,0,0,2-1.37l1,.53a3.32,3.32,0,0,1-3.05,1.88,3.5,3.5,0,0,1-.06-7,3.18,3.18,0,0,1,3.17,3.49v.22Zm2-2.67a2,2,0,0,0-2,1.71h3.91A2,2,0,0,0,129.78,520.19Z"/><path class="cls-1" d="M138.84,526V522c0-1-.15-1.86-1.39-1.86-1.48,0-1.65,1.28-1.65,2.45V526h-1.14v-6.64h1.14v.8a2.23,2.23,0,0,1,1.92-1,2.26,2.26,0,0,1,1.89.91,3,3,0,0,1,.38,1.76V526Z"/><path class="cls-1" d="M149.29,526.13a3.33,3.33,0,0,1-2.47-1.06,2.77,2.77,0,0,1-.7-1.89h1.15a2,2,0,0,0,.37,1,2.11,2.11,0,0,0,1.68.8,2.07,2.07,0,0,0,2.09-2.12c0-1.4-1-2-2.27-2v-1a2.44,2.44,0,0,0,1.27-.26,1.84,1.84,0,0,0-1-3.38,1.8,1.8,0,0,0-1.46.69,2.58,2.58,0,0,0-.35,1h-1.17c.24-1.73,1.15-2.8,3-2.8a2.86,2.86,0,0,1,3,2.86,2.6,2.6,0,0,1-1.38,2.37,2.72,2.72,0,0,1,1.54,2.58A3.17,3.17,0,0,1,149.29,526.13Z"/><path class="cls-1" d="M155.28,528.39l-.75-.31,1.31-3.7,1.06.39Z"/><path class="cls-1" d="M165.4,521.28h-1V526h-1.19V515.28h1.94a3.91,3.91,0,0,1,2.69.75,3,3,0,0,1,1,2.26C168.77,520.32,167.29,521.28,165.4,521.28Zm-.16-4.88h-.88v3.79h1c1.25,0,2.28-.54,2.28-1.92S166.5,516.4,165.24,516.4Z"/><path class="cls-1" d="M174.82,526V525a2.82,2.82,0,0,1-2.3,1.12,3.28,3.28,0,0,1-3.2-3.53,3.23,3.23,0,0,1,3.18-3.46,2.8,2.8,0,0,1,2.32,1.1v-.94H176V526Zm-2.14-5.78a2.48,2.48,0,1,0,2.21,2.44A2.24,2.24,0,0,0,172.68,520.17Z"/><path class="cls-1" d="M181.25,520.46a1,1,0,0,0-.67-.22,1.34,1.34,0,0,0-.58.14c-.73.4-.73,1.35-.73,2.07V526h-1.14v-6.64h1.14V520a1.77,1.77,0,0,1,1.5-.88,1.91,1.91,0,0,1,1,.27Z"/><path class="cls-1" d="M184.44,520.37V526h-1.16v-5.58h-.68v-1.06h.68v-2.4h1.16v2.4h1.16v1.06Z"/><path class="cls-1" d="M187.28,517.61a.81.81,0,0,1-.81-.81.82.82,0,0,1,.81-.82.82.82,0,0,1,.82.82A.82.82,0,0,1,187.28,517.61Zm-.57,8.34v-6.64h1.13V526Z"/><path class="cls-1" d="M190,526V514.28h1.13V526Z"/><path class="cls-1" d="M193.35,526V514.28h1.13V526Z"/><path class="cls-1" d="M197.43,522.86a2.14,2.14,0,0,0,2.11,2.24,2.3,2.3,0,0,0,2.05-1.37l1,.53a3.31,3.31,0,0,1-3,1.88,3.5,3.5,0,0,1-.07-7c2,0,3.17,1.57,3.17,3.49v.22Zm2-2.67a2,2,0,0,0-2,1.71h3.9A2,2,0,0,0,199.48,520.19Z"/><path class="cls-1" d="M12.11,552.14a3.27,3.27,0,0,1-3.3-2.75l1.16-.32A2.16,2.16,0,0,0,12.14,551a2.11,2.11,0,0,0,2.15-2.11c0-2.51-4.93-1.92-4.93-5.06a2.82,2.82,0,0,1,3-2.75,3.06,3.06,0,0,1,2.76,1.66l-.95.63a2,2,0,0,0-1.82-1.17,1.7,1.7,0,0,0-1.78,1.63c0,2.21,4.93,1.57,4.93,5A3.29,3.29,0,0,1,12.11,552.14Z"/><path class="cls-1" d="M20.46,552.14A3.5,3.5,0,1,1,24,548.66,3.47,3.47,0,0,1,20.46,552.14Zm0-5.95a2.46,2.46,0,1,0,2.35,2.47A2.33,2.33,0,0,0,20.45,546.19ZM19.07,544a.82.82,0,0,1-.8-.8.8.8,0,1,1,.8.8Zm2.79,0a.81.81,0,0,1-.8-.8.8.8,0,1,1,.8.8Z"/><path class="cls-1" d="M29.89,552V548c0-1-.15-1.86-1.39-1.86-1.48,0-1.65,1.28-1.65,2.45V552H25.71v-6.64h1.14v.8a2.23,2.23,0,0,1,1.92-1,2.26,2.26,0,0,1,1.89.91,3,3,0,0,1,.38,1.76V552Z"/><path class="cls-1" d="M38.29,552V551A2.82,2.82,0,0,1,36,552.14a3.51,3.51,0,0,1,0-7,2.87,2.87,0,0,1,2.32,1.1v-6h1.14V552Zm-2.15-5.76a2.47,2.47,0,1,0,2.21,2.42A2.22,2.22,0,0,0,36.14,546.19Z"/><path class="cls-1" d="M46.67,552V551a2.82,2.82,0,0,1-2.3,1.12,3.28,3.28,0,0,1-3.2-3.53,3.23,3.23,0,0,1,3.18-3.46,2.8,2.8,0,0,1,2.32,1.1v-.94h1.14V552Zm-2.14-5.78a2.48,2.48,0,1,0,2.21,2.44A2.24,2.24,0,0,0,44.53,546.17Z"/><path class="cls-1" d="M55.57,554.42a3.22,3.22,0,0,1-2.66,1.23,3,3,0,0,1-3.23-3h1.13a2,2,0,0,0,2.12,2c1.6,0,2.13-1.21,2.13-2.63v-1a3,3,0,0,1-2.34,1.11,3.5,3.5,0,0,1,.05-7,2.86,2.86,0,0,1,2.29,1.09v-.93h1.15v6.5A4.05,4.05,0,0,1,55.57,554.42Zm-2.67-8.25a2.29,2.29,0,0,0-2.18,2.52,2.24,2.24,0,0,0,2.18,2.41,2.48,2.48,0,0,0,0-4.93Z"/><path class="cls-1" d="M65.54,552V542.4H63.76l.62-1.12h2.34V552Z"/><path class="cls-1" d="M72.24,552.21l-.93-.63,6-9.18H71.53v-1.12h7.86Z"/><path class="cls-1" d="M88.7,552V548c0-1-.14-1.86-1.39-1.86-1.47,0-1.65,1.28-1.65,2.45V552H84.53v-6.64h1.13v.8a2.23,2.23,0,0,1,1.92-1,2.26,2.26,0,0,1,1.89.91,3,3,0,0,1,.39,1.76V552Z"/><path class="cls-1" d="M95.12,552.14a3.5,3.5,0,1,1,3.5-3.48A3.47,3.47,0,0,1,95.12,552.14Zm0-5.95a2.46,2.46,0,1,0,2.36,2.47A2.32,2.32,0,0,0,95.1,546.19Z"/><path class="cls-1" d="M102.4,552.38l-3.27-7.07h1.28l2,4.47,2-4.47h1.28Z"/><path class="cls-1" d="M107.41,548.86a2.14,2.14,0,0,0,2.11,2.24,2.3,2.3,0,0,0,2-1.37l1,.53a3.31,3.31,0,0,1-3,1.88,3.5,3.5,0,0,1-.07-7c2,0,3.17,1.57,3.17,3.49v.22Zm2-2.67a2,2,0,0,0-2,1.71h3.9A2,2,0,0,0,109.46,546.19Z"/><path class="cls-1" d="M121.9,552v-4c0-.85-.14-1.75-1.2-1.75s-1.42,1.12-1.42,2.08V552h-1.14V548c0-.83-.17-1.84-1.21-1.84a1.37,1.37,0,0,0-1.2.72,3.1,3.1,0,0,0-.26,1.44V552h-1.14v-6.64h1.14v.7a1.9,1.9,0,0,1,1.65-.86,2,2,0,0,1,1.82,1.07,2.14,2.14,0,0,1,1.94-1.07,2.11,2.11,0,0,1,1.79.9,3.09,3.09,0,0,1,.37,1.69V552Z"/><path class="cls-1" d="M128.65,552.14a2.82,2.82,0,0,1-2.3-1.12V552h-1.14V540.28h1.14v6a2.87,2.87,0,0,1,2.32-1.1,3.51,3.51,0,0,1,0,7Zm-.16-5.95a2.23,2.23,0,0,0-2.2,2.45,2.21,2.21,0,1,0,2.2-2.45Z"/><path class="cls-1" d="M134.37,548.86a2.14,2.14,0,0,0,2.11,2.24,2.3,2.3,0,0,0,2.05-1.37l1,.53a3.31,3.31,0,0,1-3,1.88,3.5,3.5,0,0,1-.07-7c2,0,3.17,1.57,3.17,3.49v.22Zm2-2.67a2,2,0,0,0-2,1.71h3.9A2,2,0,0,0,136.41,546.19Z"/><path class="cls-1" d="M144.41,546.46a1,1,0,0,0-.67-.22,1.26,1.26,0,0,0-.57.14c-.74.4-.74,1.35-.74,2.07V552h-1.14v-6.64h1.14V546a1.77,1.77,0,0,1,1.5-.88,1.91,1.91,0,0,1,1,.27Z"/><path class="cls-1" d="M154.13,552l-2.69-3-.29.28V552H150V540.28h1.14v7.48l2.42-2.45h1.52l-2.85,2.82,3.38,3.82Z"/><path class="cls-1" d="M156.75,552V540.28h1.14V552Z"/><path class="cls-1" d="M167.21,552V542.4h-1.77l.62-1.12h2.34V552Z"/><path class="cls-1" d="M176.25,552.13a3.32,3.32,0,0,1-2.46-1.06,2.82,2.82,0,0,1-.71-1.89h1.16a2,2,0,0,0,.36,1,2.14,2.14,0,0,0,1.69.8,2.07,2.07,0,0,0,2.09-2.12c0-1.4-1-2-2.27-2v-1a2.39,2.39,0,0,0,1.26-.26,1.83,1.83,0,0,0-1-3.38,1.8,1.8,0,0,0-1.46.69,2.58,2.58,0,0,0-.35,1h-1.17c.24-1.73,1.15-2.8,3-2.8a2.86,2.86,0,0,1,3,2.86,2.6,2.6,0,0,1-1.38,2.37,2.74,2.74,0,0,1,1.54,2.58A3.17,3.17,0,0,1,176.25,552.13Z"/><path class="cls-1" d="M182.94,552.11a.79.79,0,1,1,0-1.58.79.79,0,0,1,.8.8A.78.78,0,0,1,182.94,552.11Z"/><path class="cls-1" d="M189,552.13a3.33,3.33,0,0,1-2.47-1.06,2.82,2.82,0,0,1-.7-1.89h1.15a2,2,0,0,0,.37,1,2.12,2.12,0,0,0,1.68.8,2.08,2.08,0,0,0,2.1-2.12c0-1.4-1-2-2.28-2v-1a2.42,2.42,0,0,0,1.27-.26,1.83,1.83,0,0,0-1-3.38,1.8,1.8,0,0,0-1.46.69,2.93,2.93,0,0,0-.35,1h-1.17c.24-1.73,1.16-2.8,3-2.8a2.85,2.85,0,0,1,3,2.86,2.6,2.6,0,0,1-1.38,2.37,2.72,2.72,0,0,1,1.54,2.58A3.17,3.17,0,0,1,189,552.13Z"/><path class="cls-1" d="M201.89,548.78c-.47,1.64-1.67,3.35-3.54,3.35s-3-1.63-3.47-3.2a7.75,7.75,0,0,1-.34-2.29,8.42,8.42,0,0,1,.29-2.18c.46-1.63,1.66-3.34,3.54-3.34s3,1.61,3.47,3.18a8.08,8.08,0,0,1,.33,2.29A8.54,8.54,0,0,1,201.89,548.78Zm-3.57-6.58c-1.36,0-2.13,1.56-2.4,2.69a7,7,0,0,0-.21,1.76,7.15,7.15,0,0,0,.22,1.85c.31,1.13,1.09,2.52,2.44,2.52s2.09-1.45,2.4-2.57a7.11,7.11,0,0,0,.22-1.83C201,545.05,200.33,542.2,198.32,542.2Z"/><path class="cls-1" d="M202.89,549.06v-1h2.9v1Z"/><path class="cls-1" d="M210,552V542.4h-1.78l.63-1.12h2.33V552Z"/><path class="cls-1" d="M221.82,550.21V552h-1.18v-1.74h-5.48l6.66-9.53v8.44h1.31v1.09Zm-1.18-5.91-3.38,4.82h3.38Z"/><path class="cls-1" d="M225.75,552.11a.79.79,0,0,1-.79-.78.8.8,0,0,1,.78-.8.79.79,0,1,1,0,1.58Z"/><path class="cls-1" d="M231.77,552.13a3.32,3.32,0,0,1-2.46-1.06,2.78,2.78,0,0,1-.71-1.89h1.15a2,2,0,0,0,.37,1,2.14,2.14,0,0,0,1.68.8,2.08,2.08,0,0,0,2.1-2.12c0-1.4-1-2-2.27-2v-1a2.39,2.39,0,0,0,1.26-.26,1.83,1.83,0,0,0-1-3.38,1.8,1.8,0,0,0-1.46.69,2.58,2.58,0,0,0-.35,1h-1.17c.24-1.73,1.15-2.8,3-2.8a2.85,2.85,0,0,1,3,2.86,2.59,2.59,0,0,1-1.37,2.37,2.73,2.73,0,0,1,1.53,2.58A3.16,3.16,0,0,1,231.77,552.13Z"/><path class="cls-1" d="M244.7,548.78c-.46,1.64-1.66,3.35-3.54,3.35s-3-1.63-3.47-3.2a8.09,8.09,0,0,1-.34-2.29,8.42,8.42,0,0,1,.29-2.18c.47-1.63,1.67-3.34,3.54-3.34s3,1.61,3.47,3.18a7.75,7.75,0,0,1,.34,2.29A8.55,8.55,0,0,1,244.7,548.78Zm-3.57-6.58c-1.36,0-2.13,1.56-2.4,2.69a7.5,7.5,0,0,0-.21,1.76,7.16,7.16,0,0,0,.23,1.85c.3,1.13,1.08,2.52,2.43,2.52s2.1-1.45,2.4-2.57a7.11,7.11,0,0,0,.22-1.83C243.8,545.05,243.15,542.2,241.13,542.2Z"/></svg>