<svg id="Layer_1" data-name="Layer 1" xmlns="http://www.w3.org/2000/svg" viewBox="0 0 160 600"><defs><style>.cls-1{fill:#d80201;}</style></defs><title>text</title><path class="cls-1" d="M25.91,266.53c-1.82,2-4.68,1.65-7.11,1.65v6.92H15.16V256.42h5.43c1.85,0,3.47.14,4.93,1.43a6,6,0,0,1,1.9,4.51A6.13,6.13,0,0,1,25.91,266.53Zm-3.19-6.36a4.35,4.35,0,0,0-2.66-.59H18.8V265h1.48c1.82,0,3.39-.59,3.39-2.69A2.77,2.77,0,0,0,22.72,260.17Z"/><path class="cls-1" d="M37.53,266.05a3,3,0,0,0-1.62-.42c-2.3,0-2.91,1.62-2.91,3.64v5.82H29.6V263H33v1.82a4,4,0,0,1,5-1.93Z"/><path class="cls-1" d="M41.33,259.89a2,2,0,1,1,0-4.09,2,2,0,0,1,0,4.09Zm-1.71,15.2V263H43V275.1Z"/><path class="cls-1" d="M50.07,275.49a6.45,6.45,0,0,1-4.62-2l1.79-2.07a3.94,3.94,0,0,0,2.86,1.43,1.43,1.43,0,0,0,1.54-1.34c0-2.07-5.4-1-5.4-5.12,0-2.46,2-3.84,4.34-3.84a6.24,6.24,0,0,1,3.95,1.29l-1.68,2a3.38,3.38,0,0,0-2-.81c-.59,0-1.29.36-1.29,1,0,1.76,5.6,1,5.6,5.12C55.14,274,52.67,275.49,50.07,275.49Z"/><path class="cls-1" d="M73.81,275.1v-1.6a4.68,4.68,0,0,1-3.95,2c-3.64,0-6-3-6-6.5s2.32-6.41,5.88-6.41a5.05,5.05,0,0,1,4,1.93V254.13h3.42v21Zm-3-9.46A3.4,3.4,0,1,0,74.18,269,3.38,3.38,0,0,0,70.79,265.63Z"/><path class="cls-1" d="M82.13,259.89a2,2,0,1,1,0-4.09,2,2,0,0,1,0,4.09Zm-1.71,15.2V263h3.39V275.1Z"/><path class="cls-1" d="M94.93,266.05a3,3,0,0,0-1.62-.42c-2.3,0-2.91,1.62-2.91,3.64v5.82H87V263h3.39v1.82a4,4,0,0,1,5-1.93Z"/><path class="cls-1" d="M99.91,269.58c.06,1.88,1,3.25,3,3.25a3.18,3.18,0,0,0,2.88-1.62l3.14.5a6,6,0,0,1-6,3.78,6.08,6.08,0,0,1-6.5-6.47c0-3.86,2.46-6.44,6.36-6.44s6.19,2.69,6.19,6.55v.45Zm2.94-4.59a2.75,2.75,0,0,0-2.83,2.44h5.74A2.81,2.81,0,0,0,102.85,265Z"/><path class="cls-1" d="M119.9,275.1l-4.56-5.21-.36.36v4.84h-3.39v-21H115V267.4l4.54-4.42h4.59l-5.68,5.32,6.13,6.8Z"/><path class="cls-1" d="M129.48,265.88v9.21h-3.39v-9.21h-1.34V263h1.34v-4.14h3.39V263h2.38v2.91Z"/><path class="cls-1" d="M135.5,275.46a2.18,2.18,0,1,1,2.18-2.18A2.19,2.19,0,0,1,135.5,275.46Zm-1.74-5.71V256.42h3.47v13.33Z"/><path class="cls-1" d="M27.81,311.1l-1.6-3.95H18.6l-1.71,3.95H13L21.12,292h2.74l7.87,19.07Zm-5.35-13.61-2.72,6.72H25.1Z"/><path class="cls-1" d="M33.38,311.1v-21h3.39v21Z"/><path class="cls-1" d="M40,311.1v-21h3.39v21Z"/><path class="cls-1" d="M55.92,311.1v-1.6a4.69,4.69,0,0,1-3.95,2c-3.64,0-6-3-6-6.5s2.32-6.41,5.88-6.41a5.06,5.06,0,0,1,4,1.93V299h3.42V311.1Zm-3-9.46A3.4,3.4,0,1,0,56.29,305,3.38,3.38,0,0,0,52.9,301.63Z"/><path class="cls-1" d="M77.88,311.1v-6.64c0-1.68-.36-3-2.32-3S73,303.09,73,304.88v6.22H69.59v-21H73v10.42a4.41,4.41,0,0,1,3.81-2,4.64,4.64,0,0,1,3.53,1.48,4.81,4.81,0,0,1,1,3.42v7.62Z"/><path class="cls-1" d="M90.36,311.49c-3.33,0-5.85-1.48-5.85-5.1V299H87.9v6.86c0,1.65.7,2.77,2.46,2.77s2.46-1.12,2.46-2.77V299h3.42v7.42C96.24,310,93.7,311.49,90.36,311.49Z"/><path class="cls-1" d="M103.35,311.49a6.45,6.45,0,0,1-4.62-2l1.79-2.07a3.94,3.94,0,0,0,2.86,1.43,1.43,1.43,0,0,0,1.54-1.34c0-2.07-5.4-1-5.4-5.12,0-2.46,2-3.84,4.34-3.84a6.25,6.25,0,0,1,3.95,1.29l-1.68,2a3.38,3.38,0,0,0-2-.81c-.59,0-1.29.36-1.29,1,0,1.76,5.6,1,5.6,5.12C108.42,310,106,311.49,103.35,311.49Z"/><path class="cls-1" d="M127.1,311.1v-1.6a4.68,4.68,0,0,1-3.95,2c-3.64,0-6-3-6-6.5s2.32-6.41,5.88-6.41a5.05,5.05,0,0,1,4,1.93V299h3.42V311.1Zm-5.85-14.39a2,2,0,1,1,0-4,2,2,0,0,1,0,4Zm2.83,4.93a3.4,3.4,0,1,0,3.39,3.39A3.38,3.38,0,0,0,124.08,301.63Zm3-4.93a2,2,0,0,1-2-2,2,2,0,1,1,2,2Z"/><path class="cls-1" d="M141.69,302.05a3,3,0,0,0-1.62-.42c-2.3,0-2.91,1.62-2.91,3.64v5.82h-3.39V299h3.39v1.82a4,4,0,0,1,5-1.93Z"/><path class="cls-1" d="M18.76,340.45a5.72,5.72,0,0,1-5-2.79l1.85-1.78a3.37,3.37,0,0,0,3.08,2,2.09,2.09,0,0,0,2.27-2.07c0-3-6.45-1.58-6.45-6.31a4.31,4.31,0,0,1,4.58-4.27,6.43,6.43,0,0,1,4.29,1.63l-1.5,2a3,3,0,0,0-2.38-1.19c-.95,0-2,.59-2,1.65,0,2.49,6.45,1.25,6.45,6.38C23.87,338.6,21.67,340.45,18.76,340.45Z"/><path class="cls-1" d="M30.82,340.29H29.59l-4.86-9.73h3l2.51,5.37,2.51-5.37h3Z"/><path class="cls-1" d="M43.82,340.1v-1.25a3.68,3.68,0,0,1-3.1,1.56c-2.86,0-4.69-2.38-4.69-5.1a4.76,4.76,0,0,1,4.62-5,4,4,0,0,1,3.17,1.52v-1.21h2.68v9.53Zm-2.38-7.44a2.67,2.67,0,1,0,2.66,2.66A2.66,2.66,0,0,0,41.45,332.66Z"/><path class="cls-1" d="M55.57,340.1v-5.28c0-1.3-.29-2.29-1.8-2.29s-2,1.21-2,2.64v4.93H49.06v-9.53h2.66v1.17a3.52,3.52,0,0,1,3-1.47A3.29,3.29,0,0,1,58.23,334v6.05Z"/><path class="cls-1" d="M63,335.76c0,1.47.75,2.55,2.33,2.55A2.5,2.5,0,0,0,67.6,337l2.46.4a4.67,4.67,0,0,1-4.69,3,4.78,4.78,0,0,1-5.11-5.08,4.72,4.72,0,0,1,5-5.06c3.15,0,4.86,2.11,4.86,5.15v.35Zm2.31-3.61a2.16,2.16,0,0,0-2.22,1.92H67.6A2.21,2.21,0,0,0,65.32,332.15Z"/><path class="cls-1" d="M78.69,340.1v-5.28c0-1.3-.29-2.29-1.8-2.29s-2,1.21-2,2.64v4.93H72.18v-9.53h2.66v1.17a3.51,3.51,0,0,1,3-1.47A3.29,3.29,0,0,1,81.35,334v6.05Z"/><path class="cls-1" d="M96.07,340.1v-5.21c0-1.12-.18-2.35-1.58-2.35-1.56,0-1.83,1.43-1.83,2.68v4.88H90V335a4.24,4.24,0,0,0-.2-1.58,1.54,1.54,0,0,0-1.43-.92,1.74,1.74,0,0,0-1.5.86,4,4,0,0,0-.31,1.83v4.88H83.91v-9.53h2.66v1.08a3.66,3.66,0,0,1,2.9-1.39,3.24,3.24,0,0,1,3,1.74,3.52,3.52,0,0,1,3.13-1.74,3.13,3.13,0,0,1,2.66,1.36,4.2,4.2,0,0,1,.51,2.31v6.16Z"/><path class="cls-1" d="M108.57,340.1v-1.25a3.68,3.68,0,0,1-3.1,1.56c-2.86,0-4.69-2.38-4.69-5.1a4.76,4.76,0,0,1,4.62-5,4,4,0,0,1,3.17,1.52v-1.21h2.68v9.53ZM104,328.79a1.58,1.58,0,1,1,0-3.17,1.58,1.58,0,0,1,0,3.17Zm2.22,3.87a2.67,2.67,0,1,0,2.66,2.66A2.66,2.66,0,0,0,106.19,332.66Zm2.35-3.87A1.61,1.61,0,0,1,107,327.2a1.58,1.58,0,1,1,1.58,1.58Z"/><path class="cls-1" d="M120,333a2.35,2.35,0,0,0-1.28-.33c-1.8,0-2.29,1.28-2.29,2.86v4.58H113.8v-9.53h2.66V332a3.11,3.11,0,0,1,3.94-1.52Z"/><path class="cls-1" d="M128.26,340.1,124.67,336l-.29.29v3.81h-2.66V323.62h2.66V334l3.56-3.48h3.61l-4.47,4.18,4.82,5.35Z"/><path class="cls-1" d="M135.78,332.86v7.24h-2.66v-7.24h-1.06v-2.29h1.06v-3.26h2.66v3.26h1.87v2.29Z"/><path class="cls-1" d="M146.32,340.1v-1.25a3.68,3.68,0,0,1-3.1,1.56c-2.86,0-4.69-2.38-4.69-5.1a4.76,4.76,0,0,1,4.62-5,4,4,0,0,1,3.17,1.52v-1.21H149v9.53Zm-2.38-7.44a2.67,2.67,0,1,0,2.66,2.66A2.66,2.66,0,0,0,143.94,332.66Z"/></svg>