<svg id="Layer_1" data-name="Layer 1" xmlns="http://www.w3.org/2000/svg" viewBox="0 0 250 720"><defs><style>.cls-1{fill:#d80201;}</style></defs><title>text</title><path class="cls-1" d="M61.77,517.72V526H60.59V514.83l8.31,8.72v-8.27h1.2v11.15Z"/><path class="cls-1" d="M73.79,529.7H72.51l2.14-4.37-3.05-6h1.31l2.35,4.75,2.15-4.75H78.7Z"/><path class="cls-1" d="M83.38,526.14A2.87,2.87,0,0,1,81.05,525v4.68H79.92V519.31h1.13v.93a2.89,2.89,0,0,1,2.31-1.09,3.29,3.29,0,0,1,3.2,3.52A3.25,3.25,0,0,1,83.38,526.14Zm-.18-6a2.29,2.29,0,0,0-2.21,2.5,2.21,2.21,0,1,0,4.4,0A2.3,2.3,0,0,0,83.2,520.17Z"/><path class="cls-1" d="M91.42,520.46a1,1,0,0,0-.67-.22,1.34,1.34,0,0,0-.58.14c-.73.4-.73,1.35-.73,2.07V526H88.3v-6.64h1.14V520a1.77,1.77,0,0,1,1.5-.88,1.91,1.91,0,0,1,1,.27Z"/><path class="cls-1" d="M95.87,526.14a3.5,3.5,0,1,1,3.51-3.48A3.47,3.47,0,0,1,95.87,526.14Zm0-5.95a2.46,2.46,0,1,0,2.36,2.47A2.33,2.33,0,0,0,95.85,520.19Z"/><path class="cls-1" d="M106.19,526V525a2.82,2.82,0,0,1-2.3,1.12,3.51,3.51,0,0,1,0-7,2.87,2.87,0,0,1,2.32,1.1v-6h1.14V526Zm-2.14-5.76a2.47,2.47,0,1,0,2.21,2.42A2.23,2.23,0,0,0,104.05,520.19Z"/><path class="cls-1" d="M114.18,525.31a2.66,2.66,0,0,1-4.68-2v-4h1.14v3.87a2.53,2.53,0,0,0,.21,1.25,1.41,1.41,0,0,0,1.29.67,1.44,1.44,0,0,0,1.28-.67,2.57,2.57,0,0,0,.21-1.25v-3.87h1.14v4A2.74,2.74,0,0,1,114.18,525.31Z"/><path class="cls-1" d="M121.06,526l-2.69-3-.29.28V526h-1.14V514.28h1.14v7.48l2.42-2.45H122l-2.85,2.82,3.37,3.82Z"/><path class="cls-1" d="M124.83,520.37V526h-1.15v-5.58H123v-1.06h.69v-2.4h1.15v2.4H126v1.06Z"/><path class="cls-1" d="M127.68,517.61a.82.82,0,0,1-.82-.81.82.82,0,0,1,.82-.82.82.82,0,0,1,.81.82A.81.81,0,0,1,127.68,517.61ZM127.1,526v-6.64h1.14V526Z"/><path class="cls-1" d="M133.52,526.14a3.5,3.5,0,1,1,3.5-3.48A3.47,3.47,0,0,1,133.52,526.14Zm0-5.95a2.46,2.46,0,1,0,2.35,2.47A2.32,2.32,0,0,0,133.5,520.19Z"/><path class="cls-1" d="M142.94,526V522c0-1-.14-1.86-1.39-1.86-1.47,0-1.65,1.28-1.65,2.45V526h-1.14v-6.64h1.14v.8a2.23,2.23,0,0,1,1.92-1,2.26,2.26,0,0,1,1.89.91,3,3,0,0,1,.38,1.76V526Z"/><path class="cls-1" d="M153.73,526.14a2.84,2.84,0,0,1-2.32-1.12v4.68h-1.14V519.31h1.14v.93a2.86,2.86,0,0,1,2.3-1.09,3.29,3.29,0,0,1,3.2,3.52A3.25,3.25,0,0,1,153.73,526.14Zm-.18-6a2.29,2.29,0,0,0-2.21,2.5,2.21,2.21,0,1,0,4.4,0A2.3,2.3,0,0,0,153.55,520.17Z"/><path class="cls-1" d="M163.73,526V525a2.84,2.84,0,0,1-2.31,1.12,3.29,3.29,0,0,1-3.2-3.53,3.23,3.23,0,0,1,3.19-3.46,2.82,2.82,0,0,1,2.32,1.1v-.94h1.13V526Zm-2.15-5.78a2.48,2.48,0,1,0,2.21,2.44A2.24,2.24,0,0,0,161.58,520.17Zm0-2.17a1.38,1.38,0,1,1,1.38-1.38A1.37,1.37,0,0,1,161.55,518Zm0-2a.67.67,0,1,0,.67.67A.67.67,0,0,0,161.55,516Z"/><path class="cls-1" d="M172.19,520.37V526H171v-5.58h-.69v-1.06H171v-2.4h1.15v2.4h1.17v1.06Z"/><path class="cls-1" d="M176.76,526.38l-3.26-7.07h1.28l2,4.47,2-4.47H180Z"/><path class="cls-1" d="M186.3,526V525a2.82,2.82,0,0,1-2.3,1.12,3.28,3.28,0,0,1-3.2-3.53,3.23,3.23,0,0,1,3.18-3.46,2.8,2.8,0,0,1,2.32,1.1v-.94h1.14V526Zm-2.14-5.78a2.48,2.48,0,1,0,2.21,2.44A2.24,2.24,0,0,0,184.16,520.17Zm0-2.17a1.38,1.38,0,1,1,1.37-1.38A1.37,1.37,0,0,1,184.13,518Zm0-2a.67.67,0,1,0,.67.67A.68.68,0,0,0,184.13,516Z"/><path class="cls-1" d="M29,546.37V552H27.85v-5.58h-.68v-1.06h.68v-2.4H29v2.4h1.17v1.06Z"/><path class="cls-1" d="M34.37,552.14a3.5,3.5,0,1,1,3.5-3.48A3.47,3.47,0,0,1,34.37,552.14Zm0-5.95a2.46,2.46,0,1,0,2.35,2.47A2.33,2.33,0,0,0,34.35,546.19Z"/><path class="cls-1" d="M47.19,552v-4c0-.85-.15-1.75-1.21-1.75s-1.42,1.12-1.42,2.08V552H43.42V548c0-.83-.17-1.84-1.21-1.84a1.37,1.37,0,0,0-1.2.72,3.1,3.1,0,0,0-.26,1.44V552H39.61v-6.64h1.14v.7a1.9,1.9,0,0,1,1.65-.86,2,2,0,0,1,1.82,1.07,2.14,2.14,0,0,1,1.94-1.07,2.11,2.11,0,0,1,1.79.9,3.09,3.09,0,0,1,.37,1.69V552Z"/><path class="cls-1" d="M51.65,546.37V552H50.49v-5.58h-.68v-1.06h.68v-2.4h1.16v2.4h1.16v1.06Z"/><path class="cls-1" d="M54.69,548.86a2.14,2.14,0,0,0,2.11,2.24,2.3,2.3,0,0,0,2.05-1.37l1,.53a3.31,3.31,0,0,1-3,1.88,3.5,3.5,0,0,1-.07-7c2,0,3.17,1.57,3.17,3.49v.22Zm2.05-2.67a2,2,0,0,0-2,1.71h3.9A2,2,0,0,0,56.74,546.19Z"/><path class="cls-1" d="M64.73,546.46a1,1,0,0,0-.67-.22,1.26,1.26,0,0,0-.57.14c-.74.4-.74,1.35-.74,2.07V552H61.61v-6.64h1.14V546a1.77,1.77,0,0,1,1.5-.88,1.91,1.91,0,0,1,1,.27Z"/><path class="cls-1" d="M77.91,552v-4c0-.85-.15-1.75-1.21-1.75s-1.42,1.12-1.42,2.08V552H74.14V548c0-.83-.17-1.84-1.21-1.84a1.37,1.37,0,0,0-1.2.72,3.1,3.1,0,0,0-.26,1.44V552H70.33v-6.64h1.14v.7a1.9,1.9,0,0,1,1.65-.86,2,2,0,0,1,1.82,1.07,2.14,2.14,0,0,1,1.94-1.07,2.11,2.11,0,0,1,1.79.9,3.09,3.09,0,0,1,.37,1.69V552Z"/><path class="cls-1" d="M82,548.86a2.16,2.16,0,0,0,2.12,2.24,2.28,2.28,0,0,0,2-1.37l1,.53a3.3,3.3,0,0,1-3,1.88,3.5,3.5,0,0,1-.06-7,3.18,3.18,0,0,1,3.17,3.49v.22Zm2-2.67a2,2,0,0,0-2,1.71H86A2,2,0,0,0,84,546.19Z"/><path class="cls-1" d="M94,552V551a2.82,2.82,0,0,1-2.3,1.12,3.51,3.51,0,0,1,0-7,2.85,2.85,0,0,1,2.32,1.1v-6h1.14V552Zm-2.14-5.76a2.47,2.47,0,1,0,2.21,2.42A2.23,2.23,0,0,0,91.84,546.19Z"/><path class="cls-1" d="M106,551.31a2.66,2.66,0,0,1-4.68-2v-4h1.14v3.87a2.53,2.53,0,0,0,.21,1.25,1.57,1.57,0,0,0,2.57,0,2.57,2.57,0,0,0,.21-1.25v-3.87h1.14v4A2.7,2.7,0,0,1,106,551.31Z"/><path class="cls-1" d="M109.89,546.37V552h-1.16v-5.58h-.68v-1.06h.68v-2.4h1.16v2.4h1.16v1.06Z"/><path class="cls-1" d="M114.46,552.38l-3.26-7.07h1.28l2,4.47,2-4.47h1.28Z"/><path class="cls-1" d="M123.78,552V551a2.84,2.84,0,0,1-2.31,1.12,3.29,3.29,0,0,1-3.2-3.53,3.23,3.23,0,0,1,3.18-3.46,2.83,2.83,0,0,1,2.33,1.1v-.94h1.13V552Zm-2.15-5.78a2.48,2.48,0,1,0,2.21,2.44A2.24,2.24,0,0,0,121.63,546.17Z"/><path class="cls-1" d="M127.08,552V540.28h1.14V552Z"/><path class="cls-1" d="M135.47,552V551a2.82,2.82,0,0,1-2.3,1.12,3.51,3.51,0,0,1,0-7,2.87,2.87,0,0,1,2.32,1.1v-6h1.14V552Zm-2.14-5.76a2.47,2.47,0,1,0,2.2,2.42A2.22,2.22,0,0,0,133.33,546.19Z"/><path class="cls-1" d="M143.85,552V551a2.81,2.81,0,0,1-2.3,1.12,3.28,3.28,0,0,1-3.2-3.53,3.23,3.23,0,0,1,3.18-3.46,2.8,2.8,0,0,1,2.32,1.1v-.94H145V552Zm-2.14-5.78a2.48,2.48,0,1,0,2.21,2.44A2.24,2.24,0,0,0,141.71,546.17Z"/><path class="cls-1" d="M155.36,552v-4c0-1-.24-1.73-1.38-1.73-1.49,0-1.68,1.25-1.68,2.45V552h-1.14V540.28h1.14v5.8a2.35,2.35,0,0,1,1.91-.93,2.3,2.3,0,0,1,1.9.91,3.14,3.14,0,0,1,.38,1.78V552Z"/><path class="cls-1" d="M163.34,551.31a2.9,2.9,0,0,1-4.06,0,2.71,2.71,0,0,1-.61-2v-4h1.13v3.87a2.53,2.53,0,0,0,.21,1.25,1.58,1.58,0,0,0,2.58,0,2.57,2.57,0,0,0,.21-1.25v-3.87h1.13v4A2.7,2.7,0,0,1,163.34,551.31Z"/><path class="cls-1" d="M167.9,552.14a2.37,2.37,0,0,1-2.32-1.69l1-.42a1.48,1.48,0,0,0,1.35,1.07,1,1,0,0,0,1.08-1c0-1.44-3-1-3-3a1.87,1.87,0,0,1,1.94-1.86,2,2,0,0,1,1.82,1.2l-.94.5a1.07,1.07,0,0,0-.93-.66.79.79,0,0,0-.8.74c0,1.16,3.07.86,3.07,3A2.17,2.17,0,0,1,167.9,552.14Z"/><path class="cls-1" d="M179.28,552v-4c0-.85-.15-1.75-1.2-1.75-1.2,0-1.43,1.12-1.43,2.08V552h-1.13V548c0-.83-.18-1.84-1.22-1.84a1.37,1.37,0,0,0-1.2.72,3.23,3.23,0,0,0-.26,1.44V552h-1.13v-6.64h1.13v.7a1.92,1.92,0,0,1,1.65-.86,2,2,0,0,1,1.83,1.07,2.26,2.26,0,0,1,3.73-.17,3.09,3.09,0,0,1,.37,1.69V552Z"/><path class="cls-1" d="M185.68,552.14a3.5,3.5,0,1,1,3.5-3.48A3.47,3.47,0,0,1,185.68,552.14Zm0-5.95a2.46,2.46,0,1,0,2.35,2.47A2.33,2.33,0,0,0,185.66,546.19Z"/><path class="cls-1" d="M196,552V551a2.82,2.82,0,0,1-2.31,1.12,3.51,3.51,0,0,1,0-7,2.87,2.87,0,0,1,2.32,1.1v-6h1.13V552Zm-2.15-5.76a2.47,2.47,0,1,0,2.21,2.42A2.22,2.22,0,0,0,193.85,546.19Z"/><path class="cls-1" d="M200.08,548.86a2.14,2.14,0,0,0,2.11,2.24,2.3,2.3,0,0,0,2.05-1.37l1,.53a3.31,3.31,0,0,1-3,1.88,3.5,3.5,0,0,1-.07-7c2,0,3.17,1.57,3.17,3.49v.22Zm2-2.67a2,2,0,0,0-2,1.71h3.9A2,2,0,0,0,202.13,546.19Z"/><path class="cls-1" d="M207,552V540.28h1.14V552Z"/><path class="cls-1" d="M210.31,552V540.28h1.14V552Z"/><path class="cls-1" d="M214.4,548.86a2.14,2.14,0,0,0,2.11,2.24,2.3,2.3,0,0,0,2.05-1.37l1,.53a3.32,3.32,0,0,1-3,1.88,3.5,3.5,0,0,1-.07-7,3.18,3.18,0,0,1,3.17,3.49v.22Zm2-2.67a2,2,0,0,0-2,1.71h3.9A2,2,0,0,0,216.44,546.19Z"/><path class="cls-1" d="M224.44,546.46a1,1,0,0,0-.67-.22,1.26,1.26,0,0,0-.57.14c-.74.4-.74,1.35-.74,2.07V552h-1.14v-6.64h1.14V546a1.77,1.77,0,0,1,1.5-.88,1.91,1.91,0,0,1,1,.27Z"/></svg>