<svg id="Layer_1" data-name="Layer 1" xmlns="http://www.w3.org/2000/svg" viewBox="0 0 250 720"><defs><style>.cls-1{fill:#d80201;}</style></defs><title>text</title><path class="cls-1" d="M68.78,383.78v4.58h6.48v3.51H68.78V401h-4V380.27H75.69v3.51Z"/><path class="cls-1" d="M80.47,384.12a2.27,2.27,0,1,1,0-4.53,2.27,2.27,0,0,1,0,4.53ZM78.58,401V387.53h3.75V401Z"/><path class="cls-1" d="M95,401v-7.44c0-1.83-.41-3.22-2.55-3.22-2.32,0-2.88,1.7-2.88,3.72V401H85.86V387.53h3.75v1.64a5,5,0,0,1,4.22-2.08,4.65,4.65,0,0,1,5,5.34V401Z"/><path class="cls-1" d="M106.17,390.75V401h-3.76v-10.2h-1.49v-3.22h1.49v-4.59h3.76v4.59h2.63v3.22Z"/><path class="cls-1" d="M118.5,401V377.73h3.75V401Z"/><path class="cls-1" d="M136.11,401v-1.76a5.19,5.19,0,0,1-4.37,2.2c-4,0-6.6-3.35-6.6-7.2s2.57-7.1,6.51-7.1a5.6,5.6,0,0,1,4.46,2.14v-1.7h3.78V401ZM129.63,385a2.24,2.24,0,0,1,0-4.47,2.24,2.24,0,0,1,0,4.47Zm3.13,5.45a3.77,3.77,0,1,0,3.75,3.75A3.75,3.75,0,0,0,132.76,390.47Zm3.32-5.45a2.27,2.27,0,0,1-2.23-2.24,2.23,2.23,0,1,1,2.23,2.24Z"/><path class="cls-1" d="M156,405.82a7.28,7.28,0,0,1-5.7,2.36c-3.45,0-6.76-2-7.13-5.65h4.06a3,3,0,0,0,3.19,2.45c2.36,0,3.32-1.64,3.32-3.81v-2a5.59,5.59,0,0,1-4.53,2.24c-4,0-6.39-3.2-6.39-7s2.48-7.32,6.58-7.32a5.05,5.05,0,0,1,4.34,2.17v-1.73h3.78v12.93C157.47,402.56,157.38,404.15,156,405.82Zm-5.55-15.35a3.77,3.77,0,1,0,3.75,3.75A3.74,3.74,0,0,0,150.4,390.47Z"/><path class="cls-1" d="M164.2,394.84c.06,2.08,1.05,3.6,3.28,3.6a3.53,3.53,0,0,0,3.2-1.8l3.47.56a6.6,6.6,0,0,1-6.61,4.19c-4.34,0-7.19-2.79-7.19-7.17s2.73-7.13,7-7.13,6.85,3,6.85,7.26v.49Zm3.25-5.08a3,3,0,0,0-3.13,2.7h6.36A3.12,3.12,0,0,0,167.45,389.76Z"/><path class="cls-1" d="M61.6,438v-7.44c0-1.83-.4-3.22-2.54-3.22-2.32,0-2.88,1.7-2.88,3.72V438H52.43V424.53h3.75v1.64a4.94,4.94,0,0,1,4.22-2.08,4.65,4.65,0,0,1,5,5.34V438Z"/><path class="cls-1" d="M79.21,438v-1.76a5.19,5.19,0,0,1-4.37,2.2c-4,0-6.6-3.35-6.6-7.2s2.57-7.1,6.51-7.1a5.6,5.6,0,0,1,4.46,2.14v-1.7H83V438ZM72.73,422a2.24,2.24,0,0,1,0-4.47,2.24,2.24,0,0,1,0,4.47Zm3.13,5.45a3.77,3.77,0,1,0,3.76,3.75A3.75,3.75,0,0,0,75.86,427.47ZM79.18,422A2.27,2.27,0,0,1,77,419.78,2.23,2.23,0,1,1,79.18,422Z"/><path class="cls-1" d="M95.36,427.94a3.32,3.32,0,0,0-1.8-.47c-2.54,0-3.22,1.8-3.22,4V438H86.59V424.53h3.75v2a4.32,4.32,0,0,1,3.91-2.45,4.42,4.42,0,0,1,1.64.31Z"/><path class="cls-1" d="M108,438v-1.76a5.19,5.19,0,0,1-4.37,2.2c-4,0-6.61-3.35-6.61-7.2s2.58-7.1,6.52-7.1a5.6,5.6,0,0,1,4.46,2.14v-1.7h3.78V438Zm-3.35-10.48a3.77,3.77,0,1,0,3.75,3.75A3.74,3.74,0,0,0,104.66,427.47Z"/><path class="cls-1" d="M132.31,438V430.6c0-1.86-.4-3.31-2.57-3.31-2.32,0-2.85,1.79-2.85,3.78V438h-3.75V414.73h3.75v11.53a4.9,4.9,0,0,1,4.21-2.17,5.13,5.13,0,0,1,3.91,1.65,5.31,5.31,0,0,1,1.06,3.78V438Z"/><path class="cls-1" d="M149.92,438v-1.76a5.19,5.19,0,0,1-4.37,2.2c-4,0-6.6-3.35-6.6-7.2s2.57-7.1,6.51-7.1a5.6,5.6,0,0,1,4.46,2.14v-1.7h3.78V438Zm-3.35-10.48a3.77,3.77,0,1,0,3.76,3.75A3.75,3.75,0,0,0,146.57,427.47Z"/><path class="cls-1" d="M164.12,438.23h-1.74l-6.85-13.7h4.22l3.53,7.56,3.54-7.56H171Z"/><path class="cls-1" d="M175.31,431.84c.06,2.08,1.05,3.6,3.29,3.6a3.52,3.52,0,0,0,3.19-1.8l3.47.56a6.59,6.59,0,0,1-6.6,4.19c-4.34,0-7.2-2.79-7.2-7.17s2.73-7.13,7-7.13,6.86,3,6.86,7.26v.49Zm3.26-5.08a3,3,0,0,0-3.14,2.7h6.36A3.11,3.11,0,0,0,178.57,426.76Z"/><path class="cls-1" d="M192,427.75V438h-3.75v-10.2h-1.49v-3.22h1.49v-4.59H192v4.59h2.63v3.22Z"/></svg>