<svg id="Layer_1" data-name="Layer 1" xmlns="http://www.w3.org/2000/svg" viewBox="0 0 980 120"><defs><style>.cls-1{fill:#d4ac76;}</style></defs><title>text</title><path class="cls-1" d="M307.14,90.18a5.38,5.38,0,0,1-3.91-1.6,5.84,5.84,0,0,1,0-8,5.54,5.54,0,0,1,7.8,0,5.76,5.76,0,0,1,0,8A5.34,5.34,0,0,1,307.14,90.18Zm-2.84-2.66a3.9,3.9,0,0,0,5.67,0,4.07,4.07,0,0,0,1.16-3,4.12,4.12,0,0,0-1.17-3,3.89,3.89,0,0,0-5.66,0,4.16,4.16,0,0,0-1.16,3A4.11,4.11,0,0,0,304.3,87.52ZM306.12,78a.71.71,0,0,1-.54.24.68.68,0,0,1-.53-.24.89.89,0,0,1,0-1.17.68.68,0,0,1,.53-.24.71.71,0,0,1,.54.24.86.86,0,0,1,0,1.17Zm3,0a.72.72,0,0,1-1.07,0,.89.89,0,0,1,0-1.17.72.72,0,0,1,1.07,0,.89.89,0,0,1,0,1.17Z"/><path class="cls-1" d="M316.44,90V79.16h3.69a3.4,3.4,0,0,1,2.51,1,3.5,3.5,0,0,1,1,2.58,3.44,3.44,0,0,1-1,2.53,3.52,3.52,0,0,1-2.55,1H318V90ZM320,80.6H318v4.24H320a2,2,0,0,0,2.1-2.09,2.1,2.1,0,0,0-.6-1.54A2,2,0,0,0,320,80.6Z"/><path class="cls-1" d="M327.23,90V79.16h3.7a3.42,3.42,0,0,1,2.51,1,3.49,3.49,0,0,1,1,2.58,3.4,3.4,0,0,1-1,2.53,3.52,3.52,0,0,1-2.54,1h-2.12V90Zm3.59-9.38h-2.07v4.24h2.09a2,2,0,0,0,2.09-2.09,2.1,2.1,0,0,0-.6-1.54A2,2,0,0,0,330.82,80.6Z"/><path class="cls-1" d="M344,85.24h-4.45v3.3h4.76V90H338V79.16h6.19V80.6h-4.68v3.19H344Z"/><path class="cls-1" d="M346.9,80.6V79.16h8.77V80.6H352V90h-1.51V80.6Z"/><path class="cls-1" d="M364.81,90V79.16h1.51v5.13l4.51-5.13h2L369,83.45,373,90h-1.88l-3.15-5.28-1.61,1.81V90Z"/><path class="cls-1" d="M380.36,90.18a5.38,5.38,0,0,1-3.91-1.6,5.84,5.84,0,0,1,0-8,5.54,5.54,0,0,1,7.8,0,5.76,5.76,0,0,1,0,8A5.34,5.34,0,0,1,380.36,90.18Zm-2.84-2.66a3.9,3.9,0,0,0,5.67,0,4.33,4.33,0,0,0,0-5.91,3.89,3.89,0,0,0-5.66,0,4.16,4.16,0,0,0-1.16,3A4.11,4.11,0,0,0,377.52,87.52ZM379.34,78a.71.71,0,0,1-.54.24.68.68,0,0,1-.53-.24.89.89,0,0,1,0-1.17.68.68,0,0,1,.53-.24.71.71,0,0,1,.54.24.89.89,0,0,1,0,1.17Zm3,0a.72.72,0,0,1-1.07,0,.89.89,0,0,1,0-1.17.72.72,0,0,1,1.07,0,.89.89,0,0,1,0,1.17Z"/><path class="cls-1" d="M389.66,90V79.16h3.69a3.4,3.4,0,0,1,2.51,1,3.5,3.5,0,0,1,1,2.58,3.41,3.41,0,0,1-1,2.53,3.48,3.48,0,0,1-2.54,1h-2.12V90Zm3.59-9.38h-2.08v4.24h2.09a2,2,0,0,0,2.1-2.09,2.1,2.1,0,0,0-.6-1.54A2,2,0,0,0,393.25,80.6Z"/><path class="cls-1" d="M405.82,86.36V85h7.35v1.35Z"/><path class="cls-1" d="M422.87,90V79.16h3.69a3.42,3.42,0,0,1,2.51,1,3.5,3.5,0,0,1,1,2.58,3.41,3.41,0,0,1-1,2.53,3.5,3.5,0,0,1-2.54,1h-2.12V90Zm3.59-9.38h-2.08v4.24h2.09a2,2,0,0,0,2.1-2.09,2.1,2.1,0,0,0-.6-1.54A2,2,0,0,0,426.46,80.6Z"/><path class="cls-1" d="M433.66,90V79.16h4a3.35,3.35,0,0,1,2.43.94,3.24,3.24,0,0,1,1,2.45,3.21,3.21,0,0,1-2.89,3.32L441.35,90h-1.86l-3.11-4.13h-1.21V90Zm3.82-9.38h-2.31v3.91h2.29A2.17,2.17,0,0,0,439,84a1.79,1.79,0,0,0,.59-1.42,1.83,1.83,0,0,0-.59-1.38A2.12,2.12,0,0,0,437.48,80.6Z"/><path class="cls-1" d="M444.89,90V79.16h1.51V90Z"/><path class="cls-1" d="M453.48,90.12a5,5,0,0,1-2-.43,5.44,5.44,0,0,1-1.71-1.16l1.06-1.23a4.28,4.28,0,0,0,1.25,1,3.23,3.23,0,0,0,1.5.39,2.09,2.09,0,0,0,1.4-.46,1.45,1.45,0,0,0,.54-1.15,1.89,1.89,0,0,0-1.37-1.77l-1.28-.51a4.57,4.57,0,0,1-1.77-1.16,2.56,2.56,0,0,1-.58-1.72,2.73,2.73,0,0,1,.89-2,3.07,3.07,0,0,1,2.21-.85,4.42,4.42,0,0,1,3.14,1.19l-.91,1.22a3,3,0,0,0-2.23-1,1.73,1.73,0,0,0-1.15.38,1.25,1.25,0,0,0-.44,1,1.24,1.24,0,0,0,.32.84,3.11,3.11,0,0,0,1.1.67l1.3.52A3.07,3.07,0,0,1,457,87a3,3,0,0,1-1,2.28A3.6,3.6,0,0,1,453.48,90.12Z"/><path class="cls-1" d="M467.68,85.28V83.84h3.6v.75a5.56,5.56,0,0,1-5.6,5.57,5.29,5.29,0,0,1-3.95-1.61,5.85,5.85,0,0,1,0-8,5.33,5.33,0,0,1,3.95-1.61,5.78,5.78,0,0,1,2.27.45,5.31,5.31,0,0,1,1.86,1.25l-1.12,1.14a3.85,3.85,0,0,0-3-1.4,3.78,3.78,0,0,0-2.87,1.22,4.36,4.36,0,0,0,0,5.9,3.78,3.78,0,0,0,2.87,1.22,3.83,3.83,0,0,0,2.6-1,4.1,4.1,0,0,0,1.36-2.49Z"/><path class="cls-1" d="M473.28,90l4.35-10.82H479L483.25,90h-1.67l-.65-1.66h-5.31L475,90Zm5-8.34-2.11,5.23h4.16Z"/><path class="cls-1" d="M486.26,90V79.16h4a3.35,3.35,0,0,1,2.43.94,3.23,3.23,0,0,1,1,2.45,3.21,3.21,0,0,1-2.88,3.32L494,90h-1.87L489,85.85h-1.21V90Zm3.81-9.38h-2.3v3.91h2.29a2.17,2.17,0,0,0,1.53-.54,1.83,1.83,0,0,0,.59-1.42,1.8,1.8,0,0,0-.6-1.38A2.08,2.08,0,0,0,490.07,80.6Z"/><path class="cls-1" d="M496.18,90l4.35-10.82h1.37L506.16,90h-1.67l-.66-1.66h-5.3L497.86,90Zm5-8.34-2.1,5.23h4.16Z"/><path class="cls-1" d="M509.16,90V79.16h1.06l5.86,7.45V79.16h1.51V90h-.84l-6.08-7.72V90Z"/><path class="cls-1" d="M520.68,80.6V79.16h8.77V80.6h-3.63V90h-1.51V80.6Z"/><path class="cls-1" d="M532.46,90V79.16H534V90Z"/><path class="cls-1" d="M543.77,86.36V85h7.35v1.35Z"/><path class="cls-1" d="M560.82,90V79.16h3.31a3.47,3.47,0,0,1,2.39.84,2.81,2.81,0,0,1,.94,2.18,2.56,2.56,0,0,1-1.29,2.33,2.69,2.69,0,0,1,1.16,1,2.52,2.52,0,0,1,.44,1.46,2.79,2.79,0,0,1-.95,2.21,3.5,3.5,0,0,1-2.41.83ZM564,80.6h-1.65v3.29h1.93A1.66,1.66,0,0,0,566,82.17a1.39,1.39,0,0,0-.54-1.14A2.3,2.3,0,0,0,564,80.6Zm.34,4.64h-2v3.3h1.89a2.25,2.25,0,0,0,1.49-.46,1.55,1.55,0,0,0,.54-1.24,1.46,1.46,0,0,0-.49-1.15A2.11,2.11,0,0,0,564.32,85.24Z"/><path class="cls-1" d="M577.53,85.24h-4.46v3.3h4.76V90h-6.27V79.16h6.19V80.6h-4.68v3.19h4.46Z"/><path class="cls-1" d="M580.44,80.6V79.16h8.76V80.6h-3.63V90h-1.51V80.6Z"/><path class="cls-1" d="M589.9,90l4.35-10.82h1.36L599.87,90H598.2l-.65-1.66h-5.31L591.57,90Zm5-8.34-2.11,5.23H597Z"/><path class="cls-1" d="M602.88,90V79.16h1.51v9.38h4.45V90Z"/><path class="cls-1" d="M611,90l4.35-10.82h1.36L621,90h-1.67l-.65-1.66h-5.31L612.71,90Zm5-8.34L614,86.87h4.16Z"/><path class="cls-1" d="M632.87,90.12a5,5,0,0,1-2-.43,5.49,5.49,0,0,1-1.72-1.16l1.07-1.23a4.28,4.28,0,0,0,1.25,1,3.16,3.16,0,0,0,1.49.39,2.07,2.07,0,0,0,1.4-.46,1.45,1.45,0,0,0,.54-1.15,1.87,1.87,0,0,0-1.37-1.77l-1.27-.51a4.54,4.54,0,0,1-1.78-1.16,2.61,2.61,0,0,1-.58-1.72,2.7,2.7,0,0,1,.9-2A3,3,0,0,1,633,79a4.46,4.46,0,0,1,3.15,1.19l-.91,1.22a3,3,0,0,0-2.24-1,1.7,1.7,0,0,0-1.14.38,1.22,1.22,0,0,0-.44,1,1.19,1.19,0,0,0,.32.84,2.93,2.93,0,0,0,1.1.67l1.3.52A3,3,0,0,1,636.39,87a3,3,0,0,1-.95,2.28A3.63,3.63,0,0,1,632.87,90.12Z"/><path class="cls-1" d="M646.07,85.24h-4.45v3.3h4.76V90h-6.27V79.16h6.18V80.6h-4.67v3.19h4.45Z"/><path class="cls-1" d="M650.13,90V79.16h1L657,86.61V79.16h1.52V90h-.84l-6.08-7.72V90Z"/></svg>