<svg id="Layer_1" data-name="Layer 1" xmlns="http://www.w3.org/2000/svg" viewBox="0 0 980 120"><defs><style>.cls-1{fill:#d4ac76;}</style></defs><title>text</title><path class="cls-1" d="M311.86,38V33.81H331V38h-7.38V57h-4.35V38Z"/><path class="cls-1" d="M336.52,57V33.81h9.08a7.78,7.78,0,0,1,5.58,2.11,7.2,7.2,0,0,1,2.24,5.5,7,7,0,0,1-1.67,4.7,7.47,7.47,0,0,1-4.32,2.46L353.66,57h-4.89l-6-8.28h-1.87V57Zm8.41-19.32h-4.05v7.56h4.05a4.26,4.26,0,0,0,3-1,3.47,3.47,0,0,0,1.12-2.68,3.66,3.66,0,0,0-1.15-2.75A4.17,4.17,0,0,0,344.93,37.68Z"/><path class="cls-1" d="M371.9,33.81h4.68L368.9,47.58V57h-4.36V47.73l-7.77-13.92h4.78l5.23,9.62Z"/><path class="cls-1" d="M395,47.31V43.44h8.31l0,2a12,12,0,0,1-1.7,6.15,11.73,11.73,0,0,1-4.4,4.28,11.94,11.94,0,0,1-5.9,1.51,12,12,0,0,1-12.06-12A12,12,0,0,1,391.36,33.3,11.41,11.41,0,0,1,400,37.05L397,40a7.53,7.53,0,0,0-5.71-2.51,7.36,7.36,0,0,0-5.54,2.27,8.22,8.22,0,0,0,0,11.18,7.09,7.09,0,0,0,5.26,2.27,8.3,8.3,0,0,0,5.17-1.61A7.39,7.39,0,0,0,399,47.31Z"/><path class="cls-1" d="M424.72,47.31V43.44H433l0,2a11.88,11.88,0,0,1-1.69,6.15,11.73,11.73,0,0,1-4.4,4.28A12,12,0,0,1,421,57.36a12,12,0,0,1-12.06-12A12,12,0,0,1,421.06,33.3a11.43,11.43,0,0,1,8.64,3.75l-3,2.93a7.51,7.51,0,0,0-5.7-2.51,7.39,7.39,0,0,0-5.55,2.27,8.2,8.2,0,0,0,0,11.18,7.09,7.09,0,0,0,5.26,2.27,8.25,8.25,0,0,0,5.16-1.61,7.34,7.34,0,0,0,2.73-4.27Z"/><path class="cls-1" d="M435.73,61.23l2.67-7.83L442,54.66l-3.86,7.5Z"/><path class="cls-1" d="M458.71,38V33.81h19.11V38h-7.38V57h-4.35V38Z"/><path class="cls-1" d="M483.38,57V33.81h9.07A7.76,7.76,0,0,1,498,35.92a7.2,7.2,0,0,1,2.24,5.5,7,7,0,0,1-1.67,4.7,7.44,7.44,0,0,1-4.32,2.46L500.5,57h-4.88l-6-8.28h-1.87V57Zm8.4-19.32h-4v7.56h4a4.26,4.26,0,0,0,3-1,3.47,3.47,0,0,0,1.13-2.68,3.67,3.67,0,0,0-1.16-2.75A4.15,4.15,0,0,0,491.78,37.68Z"/><path class="cls-1" d="M518.75,33.81h4.68l-7.68,13.77V57H511.4V47.73l-7.77-13.92h4.77l5.23,9.62Z"/><path class="cls-1" d="M541.88,47.31V43.44h8.31l0,2a12,12,0,0,1-1.7,6.15,11.77,11.77,0,0,1-4.39,4.28,12,12,0,0,1-5.91,1.51,12,12,0,0,1-12.07-12A12,12,0,0,1,538.21,33.3a11.44,11.44,0,0,1,8.65,3.75l-3,2.93a7.82,7.82,0,0,0-11.25-.24,8.23,8.23,0,0,0,0,11.18,7.11,7.11,0,0,0,5.27,2.27,8.27,8.27,0,0,0,5.16-1.61,7.38,7.38,0,0,0,2.72-4.27Z"/><path class="cls-1" d="M571.58,47.31V43.44h8.31l0,2a12,12,0,0,1-1.7,6.15,11.77,11.77,0,0,1-4.39,4.28,12,12,0,0,1-5.91,1.51,12,12,0,0,1-12.07-12A12,12,0,0,1,567.92,33.3a11.43,11.43,0,0,1,8.64,3.75l-3,2.93a7.82,7.82,0,0,0-11.25-.24,8.23,8.23,0,0,0,0,11.18,7.11,7.11,0,0,0,5.27,2.27,8.25,8.25,0,0,0,5.16-1.61,7.38,7.38,0,0,0,2.72-4.27Z"/><path class="cls-1" d="M583.07,57,592,33.81h3.93L604.85,57h-4.47l-1.23-3.21H588.77L587.54,57ZM594,40.3l-3.72,9.62h7.4Z"/><path class="cls-1" d="M610.28,57V33.81h9.07a7.76,7.76,0,0,1,5.58,2.11,7.2,7.2,0,0,1,2.24,5.5,7,7,0,0,1-1.67,4.7,7.44,7.44,0,0,1-4.32,2.46L627.41,57h-4.89l-6-8.28h-1.87V57Zm8.4-19.32h-4v7.56h4a4.26,4.26,0,0,0,3-1,3.47,3.47,0,0,0,1.13-2.68,3.67,3.67,0,0,0-1.16-2.75A4.15,4.15,0,0,0,618.68,37.68Z"/><path class="cls-1" d="M646.88,47.19H638.3v5.94h9.42V57H634V33.81h13.5v3.87H638.3v5.64h8.58Z"/><path class="cls-1" d="M657.42,56.71a2.08,2.08,0,0,1-1.56.68,2,2,0,0,1-1.52-.68,2.3,2.3,0,0,1-.63-1.63,2.36,2.36,0,0,1,.63-1.65,2,2,0,0,1,1.52-.69,2.13,2.13,0,0,1,1.56.66,2.43,2.43,0,0,1,.64,1.68A2.26,2.26,0,0,1,657.42,56.71Zm7,0a2,2,0,0,1-1.55.68,2,2,0,0,1-1.52-.68,2.3,2.3,0,0,1-.63-1.63,2.36,2.36,0,0,1,.63-1.65,2,2,0,0,1,1.52-.69,2.1,2.1,0,0,1,1.55.66,2.41,2.41,0,0,1,.66,1.68A2.24,2.24,0,0,1,664.46,56.71Zm7,0a2,2,0,0,1-1.55.68,2,2,0,0,1-1.52-.68,2.3,2.3,0,0,1-.63-1.63,2.36,2.36,0,0,1,.63-1.65,2,2,0,0,1,1.52-.69,2.1,2.1,0,0,1,1.55.66,2.41,2.41,0,0,1,.66,1.68A2.24,2.24,0,0,1,671.51,56.71Z"/><path class="cls-1" d="M355.73,74V69.81h19.1V74h-7.37V93H363.1V74Z"/><path class="cls-1" d="M380.39,93V69.81h9.07A7.76,7.76,0,0,1,395,71.92a7.2,7.2,0,0,1,2.24,5.5,7,7,0,0,1-1.67,4.7,7.47,7.47,0,0,1-4.32,2.46L397.52,93h-4.89l-6-8.28h-1.87V93Zm8.4-19.32h-4.05v7.56h4.05a4.26,4.26,0,0,0,3-1,3.47,3.47,0,0,0,1.13-2.68,3.67,3.67,0,0,0-1.16-2.75A4.17,4.17,0,0,0,388.79,73.68Z"/><path class="cls-1" d="M404.06,93V69.81h4.35V93Z"/><path class="cls-1" d="M422.67,93l-8.86-23.19h4.52l6.37,16.67L431,69.81h4.39L426.62,93Z"/><path class="cls-1" d="M446.16,93.3a11,11,0,0,1-4.38-.92A11.29,11.29,0,0,1,438,89.85l2.76-3.31a8.17,8.17,0,0,0,2.56,2.08,6.51,6.51,0,0,0,3,.81,3.71,3.71,0,0,0,2.47-.8,2.5,2.5,0,0,0,1-2c0-1.44-.85-2.51-2.55-3.22l-2.58-1a10,10,0,0,1-3.86-2.56,5.91,5.91,0,0,1-1.24-3.94,6,6,0,0,1,2-4.41,6.72,6.72,0,0,1,4.92-1.93,10,10,0,0,1,7.14,2.65l-2.56,3.23a6,6,0,0,0-4.58-2,3.08,3.08,0,0,0-2.08.67,2.06,2.06,0,0,0-.78,1.63,2.15,2.15,0,0,0,.61,1.59,6.17,6.17,0,0,0,2,1.2l2.7,1.08q5.16,2.07,5.26,6.69A6.48,6.48,0,0,1,452,91.35,8.43,8.43,0,0,1,446.16,93.3Z"/><path class="cls-1" d="M473.75,83.19h-8.58v5.94h9.41V93H460.81V69.81h13.5v3.87h-9.14v5.64h8.58Z"/><path class="cls-1" d="M481.63,93V69.81H486v19h8.52V93Z"/><path class="cls-1" d="M494.86,74V69.81H514V74h-7.38V93h-4.34V74Z"/><path class="cls-1" d="M519.53,93V69.81h9.07a7.76,7.76,0,0,1,5.58,2.11,7.2,7.2,0,0,1,2.24,5.5,7,7,0,0,1-1.67,4.7,7.44,7.44,0,0,1-4.32,2.46L536.66,93h-4.89l-6-8.28h-1.87V93Zm8.4-19.32h-4v7.56h4a4.26,4.26,0,0,0,3-1,3.47,3.47,0,0,0,1.13-2.68,3.67,3.67,0,0,0-1.16-2.75A4.15,4.15,0,0,0,527.93,73.68Z"/><path class="cls-1" d="M554.9,69.81h4.68l-7.69,13.77V93h-4.35V83.73l-7.77-13.92h4.78l5.23,9.62Z"/><path class="cls-1" d="M578,83.31V79.44h8.31l0,2a11.89,11.89,0,0,1-1.7,6.15,11.67,11.67,0,0,1-4.39,4.27,11.91,11.91,0,0,1-5.91,1.52,12,12,0,1,1,.06-24.06A11.43,11.43,0,0,1,583,73.05L580,76a7.51,7.51,0,0,0-5.7-2.51,7.39,7.39,0,0,0-5.55,2.27,8.22,8.22,0,0,0,0,11.18,7.11,7.11,0,0,0,5.27,2.27,8.25,8.25,0,0,0,5.16-1.61A7.34,7.34,0,0,0,582,83.31Z"/><path class="cls-1" d="M607.72,83.31V79.44H616l0,2a11.88,11.88,0,0,1-1.69,6.15,11.75,11.75,0,0,1-4.39,4.27A12,12,0,0,1,604,93.36a12,12,0,0,1-8.54-20.53,11.65,11.65,0,0,1,8.6-3.53,11.47,11.47,0,0,1,8.65,3.75l-3,2.93A7.51,7.51,0,0,0,604,73.47a7.4,7.4,0,0,0-5.56,2.27,8.2,8.2,0,0,0,0,11.18,7.09,7.09,0,0,0,5.26,2.27,8.25,8.25,0,0,0,5.16-1.61,7.34,7.34,0,0,0,2.73-4.27Z"/><path class="cls-1" d="M626.46,92.71a2,2,0,0,1-1.54.68,2,2,0,0,1-1.53-.68,2.31,2.31,0,0,1-.64-1.63,2.37,2.37,0,0,1,.64-1.65,2,2,0,0,1,1.53-.69,2.07,2.07,0,0,1,1.54.66,2.43,2.43,0,0,1,.64,1.68A2.26,2.26,0,0,1,626.46,92.71Zm-3.17-6.13-.38-16.14H627l-.35,16.14Z"/></svg>