<svg id="Layer_1" data-name="Layer 1" xmlns="http://www.w3.org/2000/svg" viewBox="0 0 980 120"><defs><style>.cls-1{fill:#d4ac76;}</style></defs><title>text</title><path class="cls-1" d="M843,63.75l3.88-10h1.7l3.86,10H850.5L850,62.36h-4.5l-.54,1.39Zm4.73-7.24-1.61,4.17h3.21Z"/><path class="cls-1" d="M854.53,63.75v-10h1.32L860.8,60V53.7h1.88v10h-1.26l-5-6.4v6.4Z"/><path class="cls-1" d="M866,63.75v-10h1.82l3.11,5,3.15-5h2v10h-1.88V56.87l-.15,0-3.12,4.81-3-4.75h0v6.84Z"/><path class="cls-1" d="M878,63.75l3.87-10h1.7l3.86,10h-1.94L885,62.36h-4.5L880,63.75Zm3.86-11.08a.81.81,0,0,1-.61.27.83.83,0,0,1-.62-.27.9.9,0,0,1-.26-.64.87.87,0,0,1,.88-.9.83.83,0,0,1,.61.26.87.87,0,0,1,.26.64A.91.91,0,0,1,881.88,52.67Zm.87,3.84-1.61,4.17h3.21Zm2.12-3.84a1,1,0,0,1-1.33,0,.86.86,0,0,1-.28-.64.84.84,0,0,1,.28-.64,1,1,0,0,1,1.33,0,.84.84,0,0,1,.28.64A.86.86,0,0,1,884.87,52.67Z"/><path class="cls-1" d="M889.56,63.75v-10h1.88v8.24h3.69v1.81Z"/><path class="cls-1" d="M896.62,63.75l3.87-10h1.7l3.86,10h-1.94l-.53-1.39h-4.5l-.54,1.39Zm4.73-7.24-1.61,4.17h3.21Z"/><path class="cls-1" d="M908.15,63.75v-10h1.32L914.41,60V53.7h1.89v10H915l-5-6.4v6.4Z"/></svg>