<?xml version="1.0" encoding="utf-8"?>
<!-- Generator: Adobe Illustrator 19.2.0, SVG Export Plug-In . SVG Version: 6.00 Build 0)  -->
<svg version="1.1" id="Layer_1" xmlns="http://www.w3.org/2000/svg" xmlns:xlink="http://www.w3.org/1999/xlink" x="0px" y="0px"
	 viewBox="0 0 657.211 276.717" enable-background="new 0 0 657.211 276.717" xml:space="preserve">
<g>
	<path fill="#F3730C" d="M68.917,168.909l-5.791-29.132l-44.403,0.126l-5.521,29.006H0L31.838,0h17.278l33.197,168.909H68.917z
		 M60.639,126.976L40.574,23.569c-5.436,27.704-12.803,70.122-19.21,103.407H60.639z"/>
	<path fill="#F3730C" d="M152.392,134.59V0h13.007v134.59c0,19.433-16.113,35.353-35.526,35.353
		c-19.22,0-34.944-15.92-35.138-35.353V0h12.813v134.59c0,11.577,10.483,21.708,22.325,21.708
		C141.715,156.298,152.392,146.166,152.392,134.59z"/>
	<path fill="#F3730C" d="M224.798,168.909h-12.813V13.646h-28.343V0h68.723v13.646h-27.567V168.909z"/>
	<path fill="#F3730C" d="M344.576,136.037c0,19.433-18.249,34.112-39.021,34.112c-20.384,0-38.827-14.679-39.021-34.112V34.113
		C266.534,14.679,285.171,0,305.555,0c20.772,0,39.021,14.679,39.021,34.113V136.037z M331.763,136.037V34.113
		c0-12.198-12.425-20.881-26.207-20.881c-13.59,0-26.208,8.684-26.208,20.881v101.924c0,12.198,12.618,20.88,26.208,20.88
		C319.338,156.917,331.763,148.234,331.763,136.037z"/>
	<path d="M8.327,211.058c0,6.78,6.959,11.048,14.788,11.424c11.432,0.879,22.492,7.658,22.492,18.204v14.689
		c0,12.052-10.314,21.844-22.741,21.844c-12.675,0-22.741-9.792-22.865-21.844v-9.918h8.202v9.918
		c0,7.156,6.835,13.558,14.663,13.558c8.202,0,14.415-6.402,14.415-13.558v-14.689c0-6.026-6.959-10.169-14.663-10.169
		C10.563,230.517,0,222.232,0,211.058v-15.065c0-12.052,10.19-21.845,22.865-21.845s22.741,9.793,22.741,21.845v10.294h-8.201
		v-10.294c0-7.658-6.835-13.559-14.54-13.559c-8.326,0-14.539,6.403-14.539,13.559V211.058z"/>
	<path d="M96.18,174.148v8.286H65.362v31.002h27.463v7.03H65.362v47.965H96.18v8.286H57.284L57.16,174.148H96.18z"/>
	<path d="M114.941,276.717h-8.201l-0.125-102.569h21.622c11.93,0,21.747,9.793,21.747,21.845v25.241
		c0,5.649-3.604,11.299-8.947,15.316c6.213,4.143,9.818,10.42,9.818,16.571v23.595h-8.327v-23.595c0-6.779-6.461-12.68-13.669-12.68
		h-13.918V276.717z M114.941,182.435v50.977h13.794c7.333,0,12.8-5.775,12.8-12.178v-25.241c0-7.658-4.225-13.559-9.569-13.559
		H114.941z"/>
	<path d="M166.633,174.148l18.019,92.149l17.646-92.149h8.45L192.48,276.717h-15.657l-18.64-102.569H166.633z"/>
	<path d="M230.875,276.717H222.3l-0.123-102.569h8.698V276.717z"/>
	<path d="M245.911,255.751v-59.758c0-12.052,11.806-21.845,25.35-21.845c12.676,0,22.865,9.793,22.865,21.845v6.779h-8.326v-6.779
		c0-7.156-6.835-13.559-14.54-13.559c-8.947,0-17.024,6.403-17.024,13.559v59.758c0,7.156,8.077,13.559,17.024,13.559
		c7.705,0,14.54-6.403,14.54-13.559v-7.281h8.326v7.281c0,12.053-10.189,21.845-22.865,21.845
		C257.716,277.596,246.035,267.804,245.911,255.751z"/>
	<path d="M344.576,174.148v8.286h-30.819v31.002h27.463v7.03h-27.463v47.965h30.819v8.286H305.68l-0.125-102.569H344.576z"/>
	<g>
		<path d="M397.058,0v15.137c0,7.452-4.384,13.507-9.783,13.507h-5.506c-2.673,0-4.918-2.175-6.682-5.513
			c-1.979,4.813-6.674,7.764-10.043,7.764h-2.565c-5.932,0-10.583-6.598-10.583-14.67V0.079L397.058,0z M371.567,5.122h-16.142
			v11.102c0,5.122,2.458,9.469,5.451,9.469h4.169c3.529,0,6.522-4.347,6.522-9.469V5.122z M393.529,5.122h-17.48v10.015
			c0,4.426,2.673,8.306,5.721,8.306h7.108c2.515,0,4.652-3.88,4.652-8.306V5.122z"/>
		<path d="M360.395,66.134c-5.023,0-8.819-7.294-8.819-15.601c0-8.152,3.796-15.525,8.819-15.603h27.841
			c5.025,0,8.821,7.452,8.821,15.603c0,8.306-3.796,15.601-8.821,15.601H360.395z M360.395,61.011h27.841
			c3.155,0,5.398-4.968,5.398-10.478c0-5.434-2.243-10.481-5.398-10.481h-27.841c-3.153,0-5.398,5.047-5.398,10.481
			C354.997,56.043,357.242,61.011,360.395,61.011z"/>
		<path d="M351.897,85.772v-5.125h41.633V69.315h3.529v27.478h-3.529v-11.02H351.897z"/>
		<path d="M351.897,106.807v-5.047l45.161-0.076v5.122h-19.512c6.309,6.831,13.364,14.437,19.512,21.189v6.289l-16.945-18.242
			l-28.216,16.691v-4.968l25.491-15.449l-6.246-5.51H351.897z"/>
		<path d="M351.897,151.749h22.551c7-4.889,15.661-10.633,22.611-15.525v5.822l-17.748,12.341
			c5.773,3.959,12.188,8.539,17.748,12.344v5.822l-22.611-15.682h-22.551V151.749z"/>
		<path d="M351.897,181.244v-5.125l45.161-0.076v13.507c0,7.452-4.169,13.583-9.302,13.583h-10.675
			c-2.405,0-6.299-2.251-8.009-5.589c-1.764,3.88-4.437,6.131-7.057,6.131h-10.119v-5.201h10.119c2.888,0,5.398-4.035,5.398-8.536
			v-8.694H351.897z M393.529,181.244h-23.122v8.615c0,4.58,3.949,7.997,6.674,7.997h10.675c3.261,0,5.773-2.641,5.773-5.98V181.244z
			"/>
		<path d="M351.897,214.232v-5.047l45.161-0.076v5.122h-19.512c6.309,6.829,13.364,14.436,19.512,21.191v6.286l-16.945-18.242
			l-28.216,16.691v-4.968l25.491-15.449l-6.246-5.509H351.897z"/>
		<path d="M351.897,271.359l8.201-2.341v-17.57l-8.201-2.365v-5.28l45.161,12.732v6.91l-45.161,13.274V271.359z M363.143,268.318
			l27.819-8.292c-7.162-2.172-19.213-5.32-27.819-7.879V268.318z"/>
	</g>
</g>
<g>
	<path fill-rule="evenodd" clip-rule="evenodd" fill="#D43554" d="M647.6,6.473c-2.777-0.228-5.579-0.35-8.411-0.35
		c-56.061,0-101.511,45.452-101.511,101.511c0,56.059,45.45,101.508,101.511,101.508c2.832,0,5.636-0.119,8.411-0.35v-47.818
		c-2.741,0.428-5.55,0.654-8.411,0.654c-29.823,0-53.994-24.172-53.994-53.994c0-29.819,24.172-53.994,53.994-53.994
		c2.858,0,5.667,0.225,8.408,0.651L647.6,6.473L647.6,6.473z"/>
	<path fill-rule="evenodd" clip-rule="evenodd" fill="#0390CB" d="M410.702,160.97c2.748,0.43,5.567,0.657,8.438,0.657
		c29.819,0,53.995-24.172,53.995-53.994c0-29.819-24.176-53.994-53.995-53.994c-2.871,0-5.69,0.225-8.438,0.657V6.477
		c2.781-0.232,5.597-0.354,8.438-0.354c56.062,0,101.508,45.452,101.508,101.511c0,56.059-45.446,101.508-101.508,101.508
		c-2.841,0-5.658-0.119-8.438-0.35V160.97L410.702,160.97z"/>
	<path fill-rule="evenodd" clip-rule="evenodd" fill="#D43554" d="M466.085,244.131c-0.966,23.935-26.414,24.905-26.414,24.905
		c-7.918,0.356-13.455-1.494-17.333-4.008c-9.638-6.25-8.979-17.716-8.979-17.716c1.886-23.994,27.982-24.1,27.982-24.1
		c7.713-0.149,17.247,3.037,21.47,10.044C464.364,235.823,466.282,239.326,466.085,244.131L466.085,244.131L466.085,244.131z
		 M442.799,231.084c0,0-7.98-0.916-11.376,8.082c0,0-2.952,7.475-2.866,13.534c0.068,4.793,2.756,8.409,8.15,8.355
		c0,0,7.653,1.029,11.213-8.301c3.559-9.324,2.857-14.825,2.857-14.825s-0.108-2.86-2.48-4.906
		C445.808,230.877,443.863,231.233,442.799,231.084L442.799,231.084z"/>
	<path fill-rule="evenodd" clip-rule="evenodd" fill="#D43554" d="M471.937,226.548c2.182,0.225,1.483,3.888,1.483,3.888
		l-6.687,29.109c0,0-1.133,4.335-1.448,4.858c-0.351,0.589-1.563,1.927-2.816,1.981c0,0-0.418,0.035-0.473,0.464l-0.074,0.981
		c0,0,0.006,0.148,0.303,0.107h20.748c0.434,0.011,0.44-0.245,0.44-0.245s0.11-0.41,0.229-0.915
		c0.119-0.506-0.112-0.487-0.112-0.487c-2.851-0.322-2.201-3.313-2.201-3.313l7.32-32.082c0.783-4.139,2.656-4.341,3.315-4.56
		c0,0,0.568-0.013,0.649-0.333c0.079-0.321,0.189-0.904,0.189-0.904s0.024-0.392-0.731-0.374h-20.216c0,0-0.312-0.108-0.446,0.576
		c-0.133,0.689-0.172,0.874-0.172,0.874s0,0.341,0.443,0.37L471.937,226.548L471.937,226.548z"/>
	<path fill-rule="evenodd" clip-rule="evenodd" fill="#D43554" d="M504.554,226.226c0,0-0.111-0.077,0.645,0.22
		c0.755,0.298,0.084,1.374,0.084,1.374l-2.671,2.32l-17.438,14.688c0,0,9.004,12.725,12.262,17.256
		c3.265,4.525,5.554,4.877,7.416,5.578c1.858,0.703,5.958,0.703,7.656,0.703c1.695,0,5.578-0.703,6.226-0.946
		c0.646-0.244,0.619-0.701,0.728-1.106c0.107-0.404-0.16-0.404-0.485-0.481c-0.326-0.084-0.838-0.489-0.838-0.489
		c-1.725-0.481-9.595-11.886-9.595-11.886s-7.736-10.431-7.953-10.728c-0.217-0.297,0.11-0.565,0.11-0.565s3.558-2.831,7.486-6.047
		c4.326-3.545,9.107-7.535,10.18-8.319c1.957-1.434,4.059-1.553,4.059-1.553c0.41-0.066,0.42-0.374,0.42-0.374l0.092-0.423
		c0.178-0.743-0.066-0.724-0.066-0.724h-18.128c0,0-0.19-0.073-0.243,0.439l-0.122,0.786
		C504.378,225.947,504.378,226.137,504.554,226.226L504.554,226.226z"/>
	<path fill-rule="evenodd" clip-rule="evenodd" fill="#0390CB" d="M554.21,259.051c-1.21,0.475-2.528,0.718-3.877,0.718
		c-6.725,0-11.816-6.207-11.816-13.391c0-7.309,5.091-13.391,11.816-13.391c6.695,0,11.812,6.082,11.812,13.391
		c0,2.129-0.469,4.192-1.215,5.934l-2.858-2.818c-2.126-2.057-5.12-2.075-6.987-0.214c-1.87,1.868-1.796,4.918,0.3,6.988
		L554.21,259.051L554.21,259.051L554.21,259.051z M568.794,260.062c2.548-3.806,3.984-8.398,3.984-13.683
		c0-13.047-9.586-23.625-22.445-23.625c-12.978,0-22.448,10.579-22.448,23.625c0,13.666,10.063,23.542,22.448,23.542
		c4.323,0,8.26-1.147,11.631-3.228l2.639,2.61c2.123,2.052,5.12,2.075,6.988,0.207c1.87-1.866,1.797-4.918-0.3-6.981
		L568.794,260.062L568.794,260.062z"/>
	<path fill-rule="evenodd" clip-rule="evenodd" fill="#0390CB" d="M601.42,244.398c0,0-0.154,0.191-0.711,0.238
		c0.381-0.006,0.717,0.22,0.717,0.22c4.261,2.7,5.948,7.106,5.948,10.549c0,9.358-6.723,14.783-15.477,14.783
		s-15.47-5.424-15.47-14.783c0-3.498,1.689-7.886,5.942-10.568c0,0,0.333-0.214,0.715-0.207c-0.553-0.048-0.709-0.233-0.709-0.233
		c-3.065-2.306-4.102-5.792-4.102-8.985c0-7.254,6.102-12.619,13.624-12.619c7.525,0,13.622,5.407,13.622,12.619
		C605.519,238.607,604.488,242.092,601.42,244.398L601.42,244.398L601.42,244.398z M591.905,240.564c2.59,0,4.229-1.946,4.229-4.466
		c0-2.51-1.698-4.467-4.234-4.467c-2.536,0-4.235,1.957-4.235,4.467C587.665,238.618,589.31,240.564,591.905,240.564
		L591.905,240.564L591.905,240.564z M591.894,260.953c2.872,0,5.131-2.348,5.131-5.863c0-3.347-2.168-5.786-5.126-5.786
		c-2.959,0-5.129,2.439-5.129,5.786C586.771,258.605,589.02,260.953,591.894,260.953L591.894,260.953z"/>
	<path fill-rule="evenodd" clip-rule="evenodd" fill="#FFFFFF" d="M624.368,269.892l0.43-0.667l1.647,0.667h11.386
		c13.477-26.767,3.888-44.446,3.888-44.446c-1.71,0.702-4.638,2.521-7.332,4.567c-0.401-4.556-1.403-7.1-1.403-7.1
		s-19.591,4.727-33.28,35.555c0,0,5.792,5.553,18.402,11.424H624.368L624.368,269.892z"/>
	<path fill-rule="evenodd" clip-rule="evenodd" fill="#F4C743" d="M618.106,269.892c-12.61-5.871-18.402-11.424-18.402-11.424
		c13.689-30.828,33.28-35.555,33.28-35.555s1.002,2.545,1.403,7.1c2.693-2.046,5.622-3.865,7.332-4.567
		c0,0,9.589,17.679-3.888,44.446h-11.386l-1.647-0.667l-0.43,0.667H618.106L618.106,269.892z"/>
	<path fill-rule="evenodd" clip-rule="evenodd" fill="#FFFFFF" d="M637.495,269.338c4.133-8.288,6.234-15.995,6.837-23.392
		c0.615-7.582-0.555-14.64-2.863-19.797c-2.775,1.314-5.858,3.609-7.05,4.531c0,0,0.066,0.737,0.108,2.39h-16.862
		c-0.903,0.845-1.768,1.708-2.587,2.562h19.452c0,0-0.039,1.863-0.108,2.725h-21.781c-0.037,0.041-0.074,0.083-0.108,0.124
		c-0.868,1.005-1.693,2.04-2.482,3.093h24.098c0,0-0.146,1.599-0.382,3.074h-25.893c-0.77,1.148-1.489,2.283-2.152,3.384h27.451
		c0,0-0.549,2.569-0.861,3.675h-28.69c-0.705,1.302-1.309,2.487-1.796,3.472h29.474c0,0-0.63,1.986-1.096,3.152h-29.831
		c-0.003,0.006-0.006,0-0.006,0s1.32,1.23,4.121,3.199h24.396c0,0-0.117,0.339-1.412,2.968h-18.425
		c1.398,0.837,2.967,1.724,4.679,2.622h12.324c0,0-0.341,0.654-0.962,1.635l1.46,0.582H637.495L637.495,269.338z"/>
	<path fill-rule="evenodd" clip-rule="evenodd" fill="#FFFFFF" d="M633.887,230.674c-0.053-0.809-0.131-1.565-0.225-2.266h-10.276
		c-1.025,0.72-2.021,1.475-2.979,2.266H633.887L633.887,230.674z"/>
	<path fill-rule="evenodd" clip-rule="evenodd" fill="#FFFFFF" d="M633.315,226.297c-0.113-0.589-0.23-1.094-0.33-1.505h-3.392
		c-0.987,0.459-1.954,0.959-2.906,1.505H633.315L633.315,226.297z"/>
	<path fill-rule="evenodd" clip-rule="evenodd" fill="#D43554" d="M638.56,267.121c0.403-0.88,0.786-1.753,1.15-2.622h-24.592
		c1.762,0.956,3.999,1.962,5.619,2.622H638.56L638.56,267.121z"/>
	<path fill-rule="evenodd" clip-rule="evenodd" fill="#D43554" d="M640.861,261.531c0.393-1.076,0.748-2.141,1.073-3.199h-28.549
		c0,0-0.489,1.355-0.931,3.199H640.861L640.861,261.531z"/>
	<path fill-rule="evenodd" clip-rule="evenodd" fill="#D43554" d="M642.807,255.179c0.288-1.165,0.542-2.324,0.756-3.472h-27.319
		c-0.607,1.124-1.219,2.427-1.662,3.472H642.807L642.807,255.179z"/>
	<path fill-rule="evenodd" clip-rule="evenodd" fill="#D43554" d="M634.419,230.68c0.632-0.488,1.793-1.361,3.158-2.266h4.786
		c0.258,0.726,0.492,1.48,0.703,2.266H634.419L634.419,230.68z"/>
	<path fill-rule="evenodd" clip-rule="evenodd" fill="#D43554" d="M631.509,233.07c-0.678,0.583-1.867,1.665-2.818,2.562h15.378
		c-0.123-0.872-0.268-1.73-0.434-2.562H631.509L631.509,233.07z"/>
	<path fill-rule="evenodd" clip-rule="evenodd" fill="#D43554" d="M644.493,241.575c-0.009-1.095-0.052-2.166-0.133-3.217h-18.379
		c-0.769,0.808-2.08,2.295-2.851,3.217H644.493L644.493,241.575z"/>
	<path fill-rule="evenodd" clip-rule="evenodd" fill="#D43554" d="M644.125,248.038c0.083-0.701,0.154-1.397,0.208-2.092
		c0.039-0.441,0.069-0.868,0.089-1.303h-23.714c-0.687,0.922-1.761,2.479-2.326,3.395H644.125L644.125,248.038z"/>
	<path fill-rule="evenodd" clip-rule="evenodd" fill="#0390CB" d="M638.56,267.127c-0.339,0.731-0.697,1.468-1.065,2.211h-10.948
		l-1.46-0.582c0.621-0.981,0.962-1.635,0.962-1.635h12.513L638.56,267.127L638.56,267.127z"/>
	<path fill-rule="evenodd" clip-rule="evenodd" fill="#0390CB" d="M627.472,264.499c1.295-2.629,1.412-2.968,1.412-2.968h11.979
		l-0.003,0.006c-0.357,0.981-0.74,1.968-1.151,2.962h0.003H627.472L627.472,264.499z"/>
	<path fill-rule="evenodd" clip-rule="evenodd" fill="#0390CB" d="M630.204,258.332c0.467-1.166,1.096-3.152,1.096-3.152
		l11.503,0.007l0.003-0.007c-0.259,1.041-0.55,2.094-0.874,3.152v-0.006h-11.729V258.332L630.204,258.332z"/>
	<path fill-rule="evenodd" clip-rule="evenodd" fill="#0390CB" d="M644.125,248.038c-0.145,1.213-0.333,2.439-0.561,3.669h-11.251
		l0,0c0.311-1.105,0.861-3.675,0.861-3.675h10.951V248.038L644.125,248.038z"/>
	<path fill-rule="evenodd" clip-rule="evenodd" fill="#0390CB" d="M642.363,228.414c-0.276-0.791-0.573-1.546-0.894-2.265
		c-1.307,0.618-2.682,1.451-3.892,2.265H642.363L642.363,228.414z"/>
	<path fill-rule="evenodd" clip-rule="evenodd" fill="#0390CB" d="M643.635,233.07c-0.17-0.82-0.358-1.617-0.569-2.39h-8.647
		c0,0,0.066,0.737,0.108,2.39H643.635L643.635,233.07z"/>
	<path fill-rule="evenodd" clip-rule="evenodd" fill="#0390CB" d="M644.36,238.358c-0.071-0.927-0.17-1.832-0.292-2.725h-9.541
		h0.003c0,0-0.039,1.863-0.108,2.725H644.36L644.36,238.358L644.36,238.358z"/>
	<path fill-rule="evenodd" clip-rule="evenodd" fill="#0390CB" d="M644.421,244.643c0.057-1.036,0.081-2.058,0.071-3.068h-10.343
		c0,0-0.146,1.599-0.382,3.074h10.654V244.643L644.421,244.643z"/>
</g>
</svg>
