<?xml version="1.0" encoding="utf-8"?>
<!-- Generator: Adobe Illustrator 19.2.0, SVG Export Plug-In . SVG Version: 6.00 Build 0)  -->
<svg version="1.1" id="Layer_1" xmlns="http://www.w3.org/2000/svg" xmlns:xlink="http://www.w3.org/1999/xlink" x="0px" y="0px"
	 viewBox="0 0 468 60" enable-background="new 0 0 468 60" xml:space="preserve">
<g>
	<path fill="#00A8DC" d="M193.582,50.338c-0.189-0.68-0.25-1.13-0.27-1.439h-0.04c-0.02,0.31-0.08,0.77-0.28,1.439l-0.789,2.708
		c-0.16,0.05-0.35,0.07-0.569,0.07c-0.21,0-0.41-0.021-0.58-0.07l-1.509-5.117c0,0,0.18-0.07,0.499-0.07c0.34,0,0.43,0.07,0.43,0.07
		l0.95,3.188c0.13,0.43,0.18,0.77,0.21,0.979h0.029c0.04-0.22,0.09-0.54,0.22-0.979l0.92-3.188c0,0,0.24-0.07,0.54-0.07
		c0.329,0,0.489,0.07,0.489,0.07l0.89,3.168c0.13,0.45,0.18,0.79,0.2,1h0.029c0.04-0.21,0.11-0.53,0.25-0.989l0.939-3.179
		c0,0,0.16-0.07,0.44-0.07c0.31,0,0.43,0.07,0.43,0.07l-1.51,5.117c-0.18,0.05-0.359,0.07-0.569,0.07s-0.39-0.021-0.58-0.07
		L193.582,50.338z"/>
	<path fill="#00A8DC" d="M201.552,50.338c-0.189-0.68-0.25-1.13-0.27-1.439h-0.04c-0.02,0.31-0.08,0.77-0.28,1.439l-0.789,2.708
		c-0.16,0.05-0.35,0.07-0.569,0.07c-0.21,0-0.41-0.021-0.58-0.07l-1.509-5.117c0,0,0.18-0.07,0.499-0.07c0.34,0,0.43,0.07,0.43,0.07
		l0.95,3.188c0.13,0.43,0.18,0.77,0.21,0.979h0.029c0.04-0.22,0.09-0.54,0.22-0.979l0.92-3.188c0,0,0.24-0.07,0.54-0.07
		c0.329,0,0.489,0.07,0.489,0.07l0.89,3.168c0.13,0.45,0.18,0.79,0.2,1h0.029c0.04-0.21,0.11-0.53,0.25-0.989l0.939-3.179
		c0,0,0.16-0.07,0.44-0.07c0.31,0,0.43,0.07,0.43,0.07l-1.51,5.117c-0.18,0.05-0.359,0.07-0.569,0.07s-0.39-0.021-0.58-0.07
		L201.552,50.338z"/>
	<path fill="#00A8DC" d="M209.522,50.338c-0.19-0.68-0.25-1.13-0.271-1.439h-0.039c-0.021,0.31-0.08,0.77-0.28,1.439l-0.79,2.708
		c-0.159,0.05-0.35,0.07-0.569,0.07c-0.21,0-0.41-0.021-0.579-0.07l-1.51-5.117c0,0,0.18-0.07,0.5-0.07c0.34,0,0.43,0.07,0.43,0.07
		l0.949,3.188c0.13,0.43,0.18,0.77,0.21,0.979h0.03c0.04-0.22,0.09-0.54,0.22-0.979l0.92-3.188c0,0,0.239-0.07,0.539-0.07
		c0.33,0,0.49,0.07,0.49,0.07l0.89,3.168c0.13,0.45,0.18,0.79,0.199,1h0.03c0.04-0.21,0.109-0.53,0.25-0.989l0.939-3.179
		c0,0,0.16-0.07,0.439-0.07c0.31,0,0.43,0.07,0.43,0.07l-1.509,5.117c-0.18,0.05-0.36,0.07-0.57,0.07
		c-0.209,0-0.39-0.021-0.579-0.07L209.522,50.338z"/>
	<path fill="#00A8DC" d="M214.533,53.046c0,0-0.18,0.07-0.52,0.07c-0.359,0-0.52-0.07-0.52-0.07v-0.939c0,0,0.16-0.07,0.52-0.07
		c0.34,0,0.52,0.07,0.52,0.07V53.046z"/>
	<path fill="#00A8DC" d="M217.733,47.759c1.449,0,1.908,0.649,1.908,1.939v3.348c0,0-0.109,0.07-0.39,0.07
		c-0.25,0-0.399-0.07-0.399-0.07l-0.15-0.64c-0.26,0.53-0.81,0.81-1.569,0.81c-0.939,0-1.549-0.55-1.549-1.669
		c0-1.09,0.67-1.569,1.919-1.569c0.45,0,0.88,0.03,1.14,0.061v-0.37c0-0.68-0.26-1.069-1.029-1.069c-0.7,0-1.34,0.25-1.34,0.25
		c-0.01-0.011-0.13-0.09-0.229-0.3c-0.09-0.21-0.06-0.41-0.06-0.42C215.984,48.129,216.733,47.759,217.733,47.759z M217.633,50.657
		c-0.67,0-1.02,0.26-1.02,0.89c0,0.649,0.33,0.899,0.87,0.899c0.789,0,1.159-0.67,1.159-1.379v-0.35
		C218.412,50.697,218.013,50.657,217.633,50.657z"/>
	<path fill="#00A8DC" d="M221.024,47.929c0,0,0.17-0.07,0.5-0.07c0.34,0,0.499,0.07,0.499,0.07v3.598c0,0.561,0.29,0.88,0.93,0.88
		c0.439,0,0.859-0.229,1.13-0.64v-3.838c0,0,0.18-0.07,0.499-0.07c0.351,0,0.5,0.07,0.5,0.07v5.117c0,0-0.149,0.07-0.5,0.07
		c-0.319,0-0.499-0.07-0.499-0.07v-0.46c-0.36,0.41-0.89,0.63-1.51,0.63c-0.999,0-1.549-0.609-1.549-1.509V47.929z"/>
	<path fill="#00A8DC" d="M227.883,51.227c0,0.91,0.29,1.18,1,1.18c0.199,0,0.42-0.04,0.42-0.04s0.069,0.17,0.069,0.4
		c0,0.229-0.05,0.359-0.05,0.359c-0.18,0.05-0.45,0.09-0.72,0.09c-1.229,0-1.719-0.67-1.719-1.938v-2.669h-0.77
		c0,0-0.061-0.14-0.061-0.37c0-0.249,0.061-0.38,0.061-0.38h0.77v-0.909c0.26-0.16,0.63-0.229,0.999-0.2v1.109h1.3
		c0,0,0.06,0.131,0.06,0.37c0,0.23-0.06,0.38-0.06,0.38h-1.3V51.227z"/>
	<path fill="#00A8DC" d="M232.323,47.759c1.379,0,2.219,0.75,2.219,2.729c0,1.979-0.85,2.729-2.219,2.729
		c-1.37,0-2.22-0.749-2.22-2.729C230.104,48.509,230.953,47.759,232.323,47.759z M232.323,48.528c-0.73,0-1.2,0.42-1.2,1.959
		s0.47,1.959,1.2,1.959c0.729,0,1.188-0.42,1.188-1.959S233.053,48.528,232.323,48.528z"/>
	<path fill="#00A8DC" d="M237.423,47.759c0.979,0,1.409,0.27,1.409,0.27c0,0.261-0.09,0.55-0.26,0.71c0,0-0.479-0.16-1.05-0.16
		c-0.68,0-1.02,0.25-1.02,0.72c0,0.49,0.63,0.61,1.26,0.819c0.649,0.21,1.329,0.521,1.329,1.5c0,1.009-0.63,1.599-1.898,1.599
		c-1.05,0-1.669-0.359-1.669-0.359c0-0.29,0.09-0.57,0.27-0.74c0,0,0.649,0.25,1.349,0.25c0.61,0,0.96-0.229,0.96-0.72
		c0-0.55-0.55-0.669-1.14-0.839c-0.68-0.2-1.419-0.49-1.419-1.479C235.544,48.389,236.153,47.759,237.423,47.759z"/>
	<path fill="#00A8DC" d="M241.033,50.797c0.08,1.189,0.56,1.569,1.39,1.569c0.709,0,1.179-0.29,1.179-0.29
		c0.181,0.16,0.311,0.43,0.32,0.72c0,0-0.57,0.42-1.659,0.42c-1.539,0-2.259-0.949-2.259-2.759c0-1.889,0.89-2.698,2.219-2.698
		c1.229,0,1.979,0.68,1.979,2.009c0,0.63-0.109,1.029-0.109,1.029H241.033z M242.223,48.549c-0.649,0-1.109,0.43-1.189,1.539h2.139
		c0.011-0.08,0.03-0.24,0.03-0.45C243.202,49.048,242.962,48.549,242.223,48.549z"/>
	<path fill="#00A8DC" d="M247.593,47.769c0.37,0,0.649,0.11,0.869,0.25c-0.029,0.36-0.17,0.62-0.439,0.84
		c-0.189-0.14-0.39-0.21-0.62-0.21c-0.39,0-0.77,0.3-1.029,0.76v3.638c0,0-0.17,0.07-0.499,0.07c-0.351,0-0.5-0.07-0.5-0.07v-5.117
		c0,0,0.149-0.07,0.5-0.07c0.329,0,0.499,0.07,0.499,0.07v0.689C246.753,47.989,247.193,47.769,247.593,47.769z"/>
	<path fill="#00A8DC" d="M250.893,51.077c0.19,0.56,0.28,1.069,0.28,1.069h0.04c0,0,0.12-0.489,0.31-1.069l1.09-3.148
		c0,0,0.159-0.07,0.449-0.07c0.311,0,0.47,0.07,0.47,0.07l-1.759,5.117c0,0-0.25,0.07-0.6,0.07c-0.37,0-0.6-0.07-0.6-0.07
		l-1.799-5.117c0,0,0.189-0.07,0.52-0.07c0.35,0,0.52,0.07,0.52,0.07L250.893,51.077z"/>
	<path fill="#00A8DC" d="M255.513,46.85c0,0-0.18,0.069-0.52,0.069c-0.359,0-0.52-0.069-0.52-0.069V45.91c0,0,0.16-0.07,0.52-0.07
		c0.34,0,0.52,0.07,0.52,0.07V46.85z M255.493,53.046c0,0-0.17,0.07-0.5,0.07c-0.35,0-0.5-0.07-0.5-0.07v-5.117
		c0,0,0.15-0.07,0.5-0.07c0.33,0,0.5,0.07,0.5,0.07V53.046z"/>
	<path fill="#00A8DC" d="M257.773,50.487c0,1.31,0.419,1.879,1.379,1.879c0.55,0,0.939-0.17,0.939-0.17
		c0.17,0.15,0.28,0.44,0.29,0.72c0,0-0.44,0.3-1.439,0.3c-1.459,0-2.199-0.949-2.199-2.729s0.74-2.729,2.199-2.729
		c0.96,0,1.339,0.25,1.339,0.25c0,0.27-0.109,0.55-0.289,0.72c0,0-0.351-0.15-0.88-0.15
		C258.153,48.578,257.773,49.188,257.773,50.487z"/>
	<path fill="#00A8DC" d="M262.243,50.797c0.08,1.189,0.56,1.569,1.39,1.569c0.709,0,1.179-0.29,1.179-0.29
		c0.181,0.16,0.311,0.43,0.32,0.72c0,0-0.57,0.42-1.659,0.42c-1.539,0-2.259-0.949-2.259-2.759c0-1.889,0.89-2.698,2.219-2.698
		c1.229,0,1.979,0.68,1.979,2.009c0,0.63-0.109,1.029-0.109,1.029H262.243z M263.433,48.549c-0.649,0-1.109,0.43-1.189,1.539h2.139
		c0.011-0.08,0.03-0.24,0.03-0.45C264.412,49.048,264.172,48.549,263.433,48.549z"/>
	<path fill="#00A8DC" d="M267.583,48.408c0.279-0.409,0.729-0.649,1.439-0.649c1.139,0,1.879,0.689,1.879,2.729
		s-0.74,2.729-1.879,2.729c-0.71,0-1.16-0.24-1.439-0.649v0.479c0,0-0.17,0.07-0.51,0.07c-0.33,0-0.49-0.07-0.49-0.07V45.69
		c0,0,0.16-0.07,0.49-0.07c0.34,0,0.51,0.07,0.51,0.07V48.408z M268.672,48.578c-0.699,0-1.089,0.58-1.089,1.26v1.279
		c0,0.689,0.39,1.279,1.089,1.279c0.8,0,1.199-0.42,1.199-1.909S269.472,48.578,268.672,48.578z"/>
	<path fill="#00A8DC" d="M274.133,47.759c1.379,0,2.219,0.75,2.219,2.729c0,1.979-0.85,2.729-2.219,2.729
		c-1.37,0-2.22-0.749-2.22-2.729C271.913,48.509,272.763,47.759,274.133,47.759z M274.133,48.528c-0.73,0-1.2,0.42-1.2,1.959
		s0.47,1.959,1.2,1.959c0.729,0,1.188-0.42,1.188-1.959S274.862,48.528,274.133,48.528z"/>
	<path fill="#00A8DC" d="M278.843,51.227c0,0.91,0.29,1.18,1,1.18c0.199,0,0.42-0.04,0.42-0.04s0.069,0.17,0.069,0.4
		c0,0.229-0.05,0.359-0.05,0.359c-0.18,0.05-0.45,0.09-0.72,0.09c-1.229,0-1.719-0.67-1.719-1.938v-2.669h-0.77
		c0,0-0.061-0.14-0.061-0.37c0-0.249,0.061-0.38,0.061-0.38h0.77v-0.909c0.26-0.16,0.63-0.229,0.999-0.2v1.109h1.3
		c0,0,0.06,0.131,0.06,0.37c0,0.23-0.06,0.38-0.06,0.38h-1.3V51.227z"/>
	<path fill="#00A8DC" d="M284.222,47.929c0,0,0.2-0.07,0.51-0.07c0.28,0,0.489,0.061,0.489,0.061l-1.539,2.389l1.77,2.738
		c0,0-0.22,0.08-0.56,0.08s-0.54-0.08-0.54-0.08l-1.499-2.299h-0.56v2.299c0,0-0.2,0.07-0.49,0.07c-0.319,0-0.51-0.07-0.51-0.07
		V45.67c0,0,0.2-0.05,0.51-0.05c0.271,0,0.49,0.05,0.49,0.05v4.328h0.569L284.222,47.929z"/>
	<path fill="#00A8DC" d="M288.683,53.886c-0.36,1.1-0.71,1.729-1.789,1.729c-0.33,0-0.55-0.1-0.55-0.1c0-0.01-0.07-0.17-0.07-0.37
		c0-0.22,0.07-0.39,0.08-0.399c0,0,0.22,0.04,0.45,0.04c0.449,0,0.68-0.12,0.979-1.06l0.209-0.609c-0.1-0.01-0.209-0.021-0.319-0.07
		l-1.899-5.117c0,0,0.19-0.07,0.521-0.07c0.34,0,0.52,0.07,0.52,0.07l1.14,3.038c0.249,0.69,0.35,1.17,0.35,1.17h0.04
		c0,0,0.1-0.47,0.319-1.159l0.989-3.049c0,0,0.16-0.07,0.49-0.07c0.29,0,0.47,0.07,0.47,0.07L288.683,53.886z"/>
	<path fill="#00A8DC" d="M293.782,47.769c0.37,0,0.649,0.11,0.869,0.25c-0.029,0.36-0.17,0.62-0.439,0.84
		c-0.189-0.14-0.39-0.21-0.62-0.21c-0.39,0-0.77,0.3-1.029,0.76v3.638c0,0-0.17,0.07-0.499,0.07c-0.351,0-0.5-0.07-0.5-0.07v-5.117
		c0,0,0.149-0.07,0.5-0.07c0.329,0,0.499,0.07,0.499,0.07v0.689C292.942,47.989,293.383,47.769,293.782,47.769z"/>
	<path fill="#00A8DC" d="M297.253,47.759c1.449,0,1.908,0.649,1.908,1.939v3.348c0,0-0.109,0.07-0.39,0.07
		c-0.25,0-0.399-0.07-0.399-0.07l-0.15-0.64c-0.26,0.53-0.81,0.81-1.569,0.81c-0.939,0-1.549-0.55-1.549-1.669
		c0-1.09,0.67-1.569,1.919-1.569c0.45,0,0.88,0.03,1.14,0.061v-0.37c0-0.68-0.26-1.069-1.029-1.069c-0.7,0-1.34,0.25-1.34,0.25
		c-0.01-0.011-0.13-0.09-0.229-0.3c-0.09-0.21-0.06-0.41-0.06-0.42C295.504,48.129,296.253,47.759,297.253,47.759z M297.152,50.657
		c-0.67,0-1.02,0.26-1.02,0.89c0,0.649,0.33,0.899,0.87,0.899c0.789,0,1.159-0.67,1.159-1.379v-0.35
		C297.932,50.697,297.532,50.657,297.152,50.657z"/>
	<path fill="#00A8DC" d="M301.543,53.046c0,0-0.18,0.07-0.52,0.07c-0.36,0-0.521-0.07-0.521-0.07v-0.939c0,0,0.16-0.07,0.521-0.07
		c0.34,0,0.52,0.07,0.52,0.07V53.046z"/>
	<path fill="#00A8DC" d="M304.572,47.759c0.979,0,1.409,0.27,1.409,0.27c0,0.261-0.09,0.55-0.26,0.71c0,0-0.479-0.16-1.05-0.16
		c-0.68,0-1.02,0.25-1.02,0.72c0,0.49,0.63,0.61,1.26,0.819c0.649,0.21,1.329,0.521,1.329,1.5c0,1.009-0.63,1.599-1.898,1.599
		c-1.05,0-1.669-0.359-1.669-0.359c0-0.29,0.09-0.57,0.27-0.74c0,0,0.649,0.25,1.349,0.25c0.61,0,0.96-0.229,0.96-0.72
		c0-0.55-0.55-0.669-1.14-0.839c-0.68-0.2-1.419-0.49-1.419-1.479C302.693,48.389,303.303,47.759,304.572,47.759z"/>
	<path fill="#00A8DC" d="M308.183,50.797c0.08,1.189,0.56,1.569,1.39,1.569c0.709,0,1.179-0.29,1.179-0.29
		c0.181,0.16,0.311,0.43,0.32,0.72c0,0-0.57,0.42-1.659,0.42c-1.539,0-2.259-0.949-2.259-2.759c0-1.889,0.89-2.698,2.219-2.698
		c1.229,0,1.979,0.68,1.979,2.009c0,0.63-0.109,1.029-0.109,1.029H308.183z M309.372,48.549c-0.649,0-1.109,0.43-1.189,1.539h2.139
		c0.011-0.08,0.03-0.24,0.03-0.45C310.352,49.048,310.111,48.549,309.372,48.549z"/>
</g>
</svg>
