<?xml version="1.0" encoding="utf-8"?>
<!-- Generator: Adobe Illustrator 19.2.0, SVG Export Plug-In . SVG Version: 6.00 Build 0)  -->
<svg version="1.1" id="Layer_1" xmlns="http://www.w3.org/2000/svg" xmlns:xlink="http://www.w3.org/1999/xlink" x="0px" y="0px"
	 viewBox="0 0 468 60" enable-background="new 0 0 468 60" xml:space="preserve">
<g>
	<path fill="#FFFFFF" d="M421.338,22.804c1.289,0,1.959,0.84,1.959,1.979c0,0.83-0.439,1.29-0.799,1.52
		c0.43,0.22,1.009,0.68,1.009,1.669c0,1.21-0.77,2.029-2.129,2.029h-2.718v-7.196H421.338z M421.118,25.972
		c0.81,0,1.14-0.499,1.14-1.189c0-0.709-0.32-1.188-1.149-1.188h-1.429v2.378H421.118z M421.188,29.21c0.9,0,1.27-0.46,1.27-1.239
		c0-0.84-0.399-1.239-1.279-1.239h-1.498v2.479H421.188z"/>
	<path fill="#FFFFFF" d="M427.447,22.704c1.729,0,2.819,1.109,2.819,3.697c0,2.589-1.069,3.698-2.819,3.698
		c-1.748,0-2.818-1.109-2.818-3.698C424.629,23.833,425.719,22.704,427.447,22.704z M427.447,23.554
		c-1.059,0-1.748,0.64-1.748,2.848c0,2.209,0.689,2.849,1.748,2.849c1.07,0,1.75-0.64,1.75-2.849
		C429.197,24.193,428.518,23.554,427.447,23.554z"/>
	<path fill="#FFFFFF" d="M435.547,22.874c0.13-0.03,0.311-0.07,0.51-0.07c0.21,0,0.4,0.04,0.55,0.07l-2.269,3.278l2.568,3.777
		c0,0-0.21,0.07-0.6,0.07c-0.369,0-0.59-0.07-0.59-0.07l-2.229-3.258h-0.729v3.258c0,0-0.149,0.07-0.51,0.07
		c-0.319,0-0.51-0.07-0.51-0.07v-7.056c0,0,0.18-0.07,0.52-0.07c0.33,0,0.5,0.07,0.5,0.07v2.978h0.729L435.547,22.874z"/>
	<path fill="#FFFFFF" d="M440.287,22.804c0.381,0,0.6,0.07,0.6,0.07l2.51,7.056c0,0-0.18,0.07-0.551,0.07
		c-0.34,0-0.499-0.07-0.499-0.07l-0.62-1.759h-2.958l-0.63,1.759c0,0-0.17,0.07-0.489,0.07c-0.31,0-0.47-0.07-0.47-0.07l2.508-7.056
		C439.688,22.874,439.938,22.804,440.287,22.804z M440.238,23.913c0,0-0.09,0.399-0.26,0.899l-0.92,2.528h2.379l-0.91-2.528
		c-0.18-0.52-0.26-0.899-0.26-0.899H440.238z"/>
	<path fill="#FFFFFF" d="M450.447,22.804c0,0,0.08,0.18,0.08,0.43c0,0.26-0.08,0.45-0.08,0.45h-1.859v6.246c0,0-0.18,0.07-0.51,0.07
		c-0.359,0-0.51-0.07-0.51-0.07v-6.246h-1.908c0,0-0.08-0.17-0.08-0.44c0-0.25,0.08-0.439,0.08-0.439H450.447z"/>
	<path fill="#FFFFFF" d="M451.68,22.874c0,0,0.17-0.07,0.5-0.07c0.35,0,0.52,0.07,0.52,0.07v7.056c0,0-0.18,0.07-0.51,0.07
		c-0.359,0-0.51-0.07-0.51-0.07V22.874z"/>
	<path fill="#FFFFFF" d="M456.698,22.804c1.849,0,2.938,0.949,2.938,3.598S458.547,30,456.698,30h-2.219v-7.196H456.698z
		 M456.629,29.15c1.168,0,1.918-0.5,1.918-2.749c0-2.259-0.75-2.748-1.918-2.748h-1.13v5.497H456.629z"/>
	<path fill="#FFFFFF" d="M433.189,37.382c-0.37-0.649-0.59-1.289-0.59-1.289h-0.041c0,0,0.07,0.67,0.07,1.68v4.157
		c0,0-0.149,0.07-0.479,0.07c-0.319,0-0.46-0.07-0.46-0.07v-7.056c0,0,0.211-0.07,0.609-0.07c0.4,0,0.6,0.07,0.6,0.07l2.489,4.507
		c0.36,0.65,0.62,1.33,0.62,1.33h0.029c0,0-0.07-0.74-0.07-1.67v-4.167c0,0,0.15-0.07,0.48-0.07s0.459,0.07,0.459,0.07v7.056
		c0,0-0.189,0.07-0.589,0.07s-0.61-0.07-0.61-0.07L433.189,37.382z"/>
	<path fill="#FFFFFF" d="M443.678,39.562c0,1.629-1,2.538-2.529,2.538c-1.52,0-2.509-0.93-2.509-2.538v-4.688
		c0,0,0.17-0.07,0.5-0.07c0.34,0,0.51,0.07,0.51,0.07v4.847c0,0.96,0.56,1.52,1.519,1.52c0.97,0,1.51-0.56,1.51-1.52v-4.847
		c0,0,0.16-0.07,0.49-0.07c0.329,0,0.51,0.07,0.51,0.07V39.562z"/>
	<path fill="#FFFFFF" d="M445.32,34.874c0,0,0.159-0.07,0.539-0.07c0.359,0,0.539,0.07,0.539,0.07l-0.17,5.207
		c0,0-0.129,0.08-0.359,0.08c-0.24,0-0.38-0.08-0.38-0.08L445.32,34.874z M446.369,41.93c0,0-0.17,0.07-0.51,0.07
		c-0.359,0-0.51-0.07-0.51-0.07V40.99c0,0,0.15-0.07,0.51-0.07c0.34,0,0.51,0.07,0.51,0.07V41.93z"/>
</g>
</svg>
