<?xml version="1.0" encoding="utf-8"?>
<!-- Generator: Adobe Illustrator 19.1.1, SVG Export Plug-In . SVG Version: 6.00 Build 0)  -->
<svg version="1.1" id="Layer_1" xmlns="http://www.w3.org/2000/svg" xmlns:xlink="http://www.w3.org/1999/xlink" x="0px" y="0px"
	 viewBox="0 0 468 60" style="enable-background:new 0 0 468 60;" xml:space="preserve">
<style type="text/css">
	.st0{fill:#D4AC76;}
</style>
<g>
	<path class="st0" d="M160.5,45.9v-6.2h1.7c0.8,0,1.6,0.3,2.2,0.9c0.6,0.6,0.9,1.3,0.9,2.2c0,0.9-0.3,1.6-0.9,2.2
		c-0.6,0.6-1.3,0.9-2.2,0.9H160.5z M162.1,40.6h-0.8v4.5h0.9c0.6,0,1.1-0.2,1.5-0.7c0.4-0.4,0.6-1,0.6-1.6c0-0.6-0.2-1.2-0.6-1.6
		C163.2,40.8,162.7,40.6,162.1,40.6z"/>
	<path class="st0" d="M167.3,45.9v-6.2h0.9v6.2H167.3z"/>
	<path class="st0" d="M169.9,40.6v-0.8h5v0.8h-2.1v5.4H172v-5.4H169.9z"/>
	<path class="st0" d="M176.1,40.6v-0.8h5v0.8h-2.1v5.4h-0.9v-5.4H176.1z"/>
	<path class="st0" d="M186.3,45.9v-6.2h0.6l3.3,4.3v-4.3h0.9v6.2h-0.5l-3.5-4.4v4.4H186.3z"/>
	<path class="st0" d="M197,39.7h1l-2.1,3.7v2.5H195v-2.5l-2.1-3.7h1l1.5,2.7L197,39.7z"/>
	<path class="st0" d="M198.3,45.9l2.5-6.2h0.8l2.4,6.2h-1l-0.4-1h-3l-0.4,1H198.3z M201.2,41.2l-1.2,3h2.4L201.2,41.2z"/>
	<path class="st0" d="M213.1,45.9v-2.7h-3v2.7h-0.9v-6.2h0.9v2.7h3v-2.7h0.9v6.2H213.1z"/>
	<path class="st0" d="M219.9,43.2h-2.5v1.9h2.7v0.8h-3.6v-6.2h3.5v0.8h-2.7v1.8h2.5V43.2z"/>
	<path class="st0" d="M222.2,45.9v-6.2h0.9l2,3.3l2-3.3h0.8v6.2h-0.9v-4.6l0,0l-2,3.2l-2-3.2h-0.1v4.5H222.2z"/>
	<path class="st0" d="M235.6,45.9l-2.4-6.2h1l1.9,4.8l1.9-4.8h1l-2.4,6.2H235.6z"/>
	<path class="st0" d="M239.4,45.9l2.5-6.2h0.8l2.4,6.2h-1l-0.4-1h-3l-0.4,1H239.4z M241.6,39.1c-0.1,0.1-0.2,0.1-0.3,0.1
		s-0.2,0-0.3-0.1s-0.1-0.2-0.1-0.3c0-0.1,0-0.2,0.1-0.3s0.2-0.1,0.3-0.1s0.2,0,0.3,0.1s0.1,0.2,0.1,0.3
		C241.7,38.9,241.7,39,241.6,39.1z M242.2,41.2l-1.2,3h2.4L242.2,41.2z M243.3,39.1c-0.1,0.1-0.2,0.1-0.3,0.1s-0.2,0-0.3-0.1
		s-0.1-0.2-0.1-0.3c0-0.1,0-0.2,0.1-0.3s0.2-0.1,0.3-0.1s0.2,0,0.3,0.1s0.1,0.2,0.1,0.3C243.4,38.9,243.4,39,243.3,39.1z"/>
	<path class="st0" d="M246.8,45.9v-6.2h0.6l3.3,4.3v-4.3h0.9v6.2h-0.5l-3.5-4.4v4.4H246.8z"/>
	<path class="st0" d="M253.4,40.6v-0.8h5v0.8h-2.1v5.4h-0.9v-5.4H253.4z"/>
	<path class="st0" d="M258.8,45.9l2.5-6.2h0.8l2.4,6.2h-1l-0.4-1h-3l-0.4,1H258.8z M261.6,41.2l-1.2,3h2.4L261.6,41.2z"/>
	<path class="st0" d="M266.2,45.9v-6.2h2.3c0.6,0,1,0.2,1.4,0.5c0.4,0.4,0.6,0.8,0.6,1.4c0,0.5-0.2,0.9-0.5,1.3
		c-0.3,0.3-0.7,0.5-1.2,0.6l1.8,2.4h-1.1l-1.8-2.4H267v2.4H266.2z M268.4,40.6H267v2.2h1.3c0.4,0,0.6-0.1,0.9-0.3
		c0.2-0.2,0.3-0.5,0.3-0.8c0-0.3-0.1-0.6-0.3-0.8C269,40.7,268.7,40.6,268.4,40.6z"/>
	<path class="st0" d="M275.9,45.9v-6.2h2.1c0.6,0,1.1,0.2,1.4,0.6s0.6,0.9,0.6,1.5c0,0.6-0.2,1.1-0.6,1.4c-0.4,0.4-0.9,0.6-1.5,0.6
		h-1.2v2.1H275.9z M278,40.6h-1.2V43h1.2c0.4,0,0.6-0.1,0.9-0.3s0.3-0.5,0.3-0.9c0-0.4-0.1-0.6-0.3-0.9
		C278.6,40.7,278.3,40.6,278,40.6z"/>
	<path class="st0" d="M280.9,45.9l2.5-6.2h0.8l2.4,6.2h-1l-0.4-1h-3l-0.4,1H280.9z M283.7,41.2l-1.2,3h2.4L283.7,41.2z M284.3,39.3
		c-0.2,0.2-0.4,0.2-0.6,0.2s-0.4-0.1-0.6-0.2c-0.2-0.2-0.2-0.4-0.2-0.6c0-0.2,0.1-0.4,0.2-0.6c0.2-0.2,0.4-0.2,0.6-0.2
		s0.4,0.1,0.6,0.2c0.2,0.2,0.2,0.4,0.2,0.6C284.6,39,284.5,39.2,284.3,39.3z M283.7,39.1c0.1,0,0.2,0,0.2-0.1
		c0.1-0.1,0.1-0.1,0.1-0.2c0-0.1,0-0.2-0.1-0.2c-0.1-0.1-0.1-0.1-0.2-0.1c-0.1,0-0.2,0-0.2,0.1c-0.1,0.1-0.1,0.1-0.1,0.2
		c0,0.1,0,0.2,0.1,0.2C283.6,39,283.6,39.1,283.7,39.1z"/>
	<path class="st0" d="M291.7,45.9v-6.2h1.7c0.8,0,1.6,0.3,2.2,0.9c0.6,0.6,0.9,1.3,0.9,2.2c0,0.9-0.3,1.6-0.9,2.2
		c-0.6,0.6-1.3,0.9-2.2,0.9H291.7z M293.4,40.6h-0.8v4.5h0.8c0.6,0,1.1-0.2,1.5-0.7c0.4-0.4,0.6-1,0.6-1.6c0-0.6-0.2-1.2-0.6-1.6
		C294.5,40.8,294,40.6,293.4,40.6z"/>
	<path class="st0" d="M298.6,45.9v-6.2h0.9v6.2H298.6z"/>
	<path class="st0" d="M305.8,43.2v-0.8h2.1v0.4c0,0.9-0.3,1.7-1,2.3s-1.4,0.9-2.2,0.9c-0.9,0-1.7-0.3-2.3-0.9
		c-0.6-0.6-0.9-1.4-0.9-2.3c0-0.9,0.3-1.7,0.9-2.3c0.6-0.6,1.4-0.9,2.3-0.9c0.5,0,0.9,0.1,1.3,0.3c0.4,0.2,0.8,0.4,1.1,0.7l-0.6,0.7
		c-0.5-0.5-1-0.8-1.7-0.8c-0.7,0-1.2,0.2-1.6,0.7s-0.7,1-0.7,1.7c0,0.7,0.2,1.2,0.7,1.7s1,0.7,1.6,0.7c0.6,0,1.1-0.2,1.5-0.5
		s0.7-0.8,0.8-1.4H305.8z"/>
</g>
</svg>
