<?xml version="1.0" encoding="utf-8"?>
<!-- Generator: Adobe Illustrator 19.1.1, SVG Export Plug-In . SVG Version: 6.00 Build 0)  -->
<svg version="1.1" id="Layer_1" xmlns="http://www.w3.org/2000/svg" xmlns:xlink="http://www.w3.org/1999/xlink" x="0px" y="0px"
	 viewBox="0 0 468 60" style="enable-background:new 0 0 468 60;" xml:space="preserve">
<style type="text/css">
	.st0{fill:#D4AC76;}
</style>
<g>
	<path class="st0" d="M393.9,30v-5.8h1.9c0.5,0,0.9,0.2,1.3,0.5c0.3,0.3,0.5,0.7,0.5,1.2c0,0.5-0.2,0.9-0.7,1.2
		c0.3,0.1,0.5,0.3,0.6,0.5s0.2,0.5,0.2,0.7c0,0.5-0.2,0.9-0.5,1.2S396.5,30,396,30H393.9z M395.7,25.2h-0.8v1.5h0.9
		c0.2,0,0.4-0.1,0.6-0.2c0.1-0.1,0.2-0.3,0.2-0.5s-0.1-0.4-0.2-0.5C396.1,25.2,395.9,25.2,395.7,25.2z M395.8,27.5h-0.9V29h0.9
		c0.3,0,0.5-0.1,0.7-0.2c0.2-0.1,0.2-0.3,0.2-0.6s-0.1-0.4-0.2-0.5C396.3,27.6,396.1,27.5,395.8,27.5z"/>
	<path class="st0" d="M402.6,27.5h-2.1V29h2.4v1h-3.4v-5.8h3.4v1h-2.3v1.4h2.1V27.5z"/>
	<path class="st0" d="M406,30.1c-0.4,0-0.7-0.1-1.1-0.2c-0.4-0.2-0.7-0.4-0.9-0.6l0.7-0.8c0.2,0.2,0.4,0.4,0.6,0.5
		c0.3,0.1,0.5,0.2,0.8,0.2s0.5-0.1,0.6-0.2s0.2-0.3,0.2-0.5c0-0.4-0.2-0.6-0.6-0.8l-0.6-0.3c-0.4-0.2-0.8-0.4-1-0.6
		c-0.2-0.2-0.3-0.6-0.3-1s0.2-0.8,0.5-1.1c0.3-0.3,0.7-0.5,1.2-0.5c0.7,0,1.3,0.2,1.8,0.7l-0.6,0.8c-0.3-0.3-0.7-0.5-1.1-0.5
		c-0.2,0-0.4,0.1-0.5,0.2c-0.1,0.1-0.2,0.2-0.2,0.4c0,0.2,0.1,0.3,0.2,0.4c0.1,0.1,0.3,0.2,0.5,0.3l0.7,0.3c0.9,0.3,1.3,0.9,1.3,1.7
		c0,0.5-0.2,0.9-0.5,1.3C407.1,29.9,406.6,30.1,406,30.1z"/>
	<path class="st0" d="M408.9,25.2v-1h4.8v1h-1.8V30h-1.1v-4.8H408.9z"/>
	<path class="st0" d="M413.7,30l2.2-5.8h1l2.2,5.8h-1.1l-0.3-0.8h-2.6l-0.3,0.8H413.7z M416,23.6c-0.1,0.1-0.2,0.2-0.4,0.2
		s-0.3-0.1-0.4-0.2c-0.1-0.1-0.1-0.2-0.1-0.4c0-0.1,0-0.3,0.1-0.4c0.1-0.1,0.2-0.1,0.4-0.1s0.3,0,0.4,0.1c0.1,0.1,0.1,0.2,0.1,0.4
		C416.1,23.4,416.1,23.5,416,23.6z M416.5,25.8l-0.9,2.4h1.8L416.5,25.8z M417.7,23.6c-0.1,0.1-0.2,0.2-0.4,0.2s-0.3-0.1-0.4-0.2
		s-0.2-0.2-0.2-0.4c0-0.1,0.1-0.3,0.2-0.4c0.1-0.1,0.2-0.1,0.4-0.1s0.3,0,0.4,0.1c0.1,0.1,0.2,0.2,0.2,0.4
		C417.8,23.4,417.8,23.5,417.7,23.6z"/>
	<path class="st0" d="M420.4,30v-5.8h1.1V29h2.1v1H420.4z"/>
	<path class="st0" d="M425,30v-5.8h1.1V29h2.1v1H425z"/>
	<path class="st0" d="M434.1,30l-2.2-5.8h1.1l1.6,4.2l1.6-4.2h1.1l-2.2,5.8H434.1z"/>
	<path class="st0" d="M437.4,30l2.2-5.8h1l2.2,5.8h-1.1l-0.3-0.8h-2.6l-0.3,0.8H437.4z M440.1,25.8l-0.9,2.4h1.8L440.1,25.8z
		 M441,23.2c0,0.2-0.1,0.4-0.2,0.6c-0.2,0.2-0.4,0.2-0.6,0.2s-0.4-0.1-0.6-0.2c-0.2-0.2-0.2-0.4-0.2-0.6c0-0.2,0.1-0.4,0.2-0.6
		c0.2-0.2,0.4-0.2,0.6-0.2s0.4,0.1,0.6,0.2C440.9,22.8,441,23,441,23.2z M439.9,23.4c0.1,0.1,0.1,0.1,0.2,0.1s0.2,0,0.2-0.1
		c0.1-0.1,0.1-0.1,0.1-0.2s0-0.2-0.1-0.2c-0.1-0.1-0.1-0.1-0.2-0.1c-0.1,0-0.2,0-0.2,0.1c-0.1,0.1-0.1,0.1-0.1,0.2
		S439.9,23.4,439.9,23.4z"/>
	<path class="st0" d="M444.1,30v-5.8h2.3c0.6,0,1,0.2,1.4,0.5c0.4,0.4,0.6,0.8,0.6,1.4c0,0.5-0.1,0.9-0.4,1.2s-0.6,0.5-1.1,0.6
		l1.6,2.1h-1.2l-1.5-2.1h-0.5V30H444.1z M446.2,25.2h-1v1.9h1c0.3,0,0.6-0.1,0.8-0.3s0.3-0.4,0.3-0.7s-0.1-0.5-0.3-0.7
		C446.7,25.3,446.5,25.2,446.2,25.2z"/>
	<path class="st0" d="M449.2,25.2v-1h4.8v1h-1.8V30h-1.1v-4.8H449.2z"/>
	<path class="st0" d="M404,38v-5.8h1l1.8,2.9l1.8-2.9h1.1V38h-1.1v-4l-0.1,0l-1.8,2.8l-1.8-2.7h0V38H404z"/>
	<path class="st0" d="M411,38l2.2-5.8h1l2.2,5.8h-1.1l-0.3-0.8h-2.6l-0.3,0.8H411z M413.7,33.8l-0.9,2.4h1.8L413.7,33.8z"/>
	<path class="st0" d="M421.1,35.6v-1h2.1l0,0.5c0,0.6-0.1,1.1-0.4,1.5s-0.6,0.8-1.1,1.1c-0.5,0.3-0.9,0.4-1.5,0.4
		c-0.8,0-1.6-0.3-2.1-0.9c-0.6-0.6-0.9-1.3-0.9-2.1s0.3-1.5,0.9-2.1s1.3-0.9,2.2-0.9c0.9,0,1.6,0.3,2.2,0.9l-0.7,0.7
		c-0.4-0.4-0.9-0.6-1.4-0.6c-0.6,0-1,0.2-1.4,0.6s-0.5,0.8-0.5,1.4s0.2,1,0.6,1.4c0.4,0.4,0.8,0.6,1.3,0.6c0.5,0,0.9-0.1,1.3-0.4
		c0.4-0.3,0.6-0.6,0.7-1.1H421.1z"/>
	<path class="st0" d="M423.8,38l2.2-5.8h1l2.2,5.8h-1.1l-0.3-0.8h-2.6l-0.3,0.8H423.8z M426.5,33.8l-0.9,2.4h1.8L426.5,33.8z"/>
	<path class="st0" d="M432.1,38.1c-0.4,0-0.7-0.1-1.1-0.2c-0.4-0.2-0.7-0.4-0.9-0.6l0.7-0.8c0.2,0.2,0.4,0.4,0.6,0.5
		c0.3,0.1,0.5,0.2,0.8,0.2c0.3,0,0.5-0.1,0.6-0.2c0.2-0.1,0.2-0.3,0.2-0.5c0-0.4-0.2-0.6-0.6-0.8l-0.6-0.3c-0.4-0.2-0.8-0.4-1-0.6
		c-0.2-0.2-0.3-0.6-0.3-1s0.2-0.8,0.5-1.1c0.3-0.3,0.7-0.5,1.2-0.5c0.7,0,1.3,0.2,1.8,0.7l-0.6,0.8c-0.3-0.3-0.7-0.5-1.1-0.5
		c-0.2,0-0.4,0.1-0.5,0.2c-0.1,0.1-0.2,0.2-0.2,0.4c0,0.2,0.1,0.3,0.2,0.4c0.1,0.1,0.3,0.2,0.5,0.3l0.7,0.3c0.9,0.3,1.3,0.9,1.3,1.7
		c0,0.5-0.2,0.9-0.5,1.3C433.2,37.9,432.7,38.1,432.1,38.1z"/>
	<path class="st0" d="M435.6,38v-5.8h1.1V38H435.6z"/>
	<path class="st0" d="M438.6,38v-5.8h0.8l2.9,3.6v-3.6h1.1V38h-0.7l-2.9-3.7V38H438.6z"/>
</g>
</svg>
