<svg id="Layer_1" data-name="Layer 1" xmlns="http://www.w3.org/2000/svg" viewBox="0 0 160 600"><defs><style>.cls-1{fill:#fff;}</style></defs><title>text</title><path class="cls-1" d="M30,114h5.47c3.27,0,5.87,1.19,5.87,4.83s-2.69,5.08-5.87,5.08H33.42V129H30Zm5.27,7.22c1.86,0,2.76-.83,2.76-2.39s-1-2.14-2.76-2.14H33.42v4.53Z"/><path class="cls-1" d="M48.1,117.32c2.87,0,5.54,2.18,5.54,6s-2.67,6-5.54,6a6,6,0,0,1,0-12Zm0,9.22c1.38,0,2.09-1.27,2.09-3.24s-.71-3.25-2.09-3.25S46,121.32,46,123.3,46.7,126.54,48.1,126.54Z"/><path class="cls-1" d="M54.84,117.59H58.2l1.1,5.29c.18,1.13.32,2.23.5,3.38h.1c.2-1.15.39-2.3.66-3.38l1.27-5.29h2.92L66,122.88c.27,1.13.48,2.23.71,3.38h.09c.21-1.15.32-2.25.53-3.38l1.08-5.29h3.13L68.84,129h-4l-1-4.55c-.23-1.06-.41-2.12-.62-3.34h-.09c-.21,1.22-.37,2.28-.58,3.34l-1,4.55H57.69Z"/><path class="cls-1" d="M78.16,117.32c3.24,0,4.85,2.37,4.85,5.47a6.66,6.66,0,0,1-.14,1.43H76a2.77,2.77,0,0,0,3,2.48,4.57,4.57,0,0,0,2.46-.76l1.13,2a7.52,7.52,0,0,1-4,1.29c-3.27,0-5.77-2.21-5.77-6S75.42,117.32,78.16,117.32Zm2,4.8c0-1.31-.56-2.23-1.91-2.23-1.06,0-2,.72-2.21,2.23Z"/><path class="cls-1" d="M85.36,112.88h3.38V125.6c0,.71.32.94.6.94a1.3,1.3,0,0,0,.41-.05l.41,2.51a4.37,4.37,0,0,1-1.7.28c-2.32,0-3.1-1.52-3.1-3.82Z"/><path class="cls-1" d="M96.72,112.88h3.38v4l-.16,2a5.24,5.24,0,0,1,3.52-1.56c2.48,0,3.54,1.75,3.54,4.6V129h-3.38v-6.65c0-1.65-.44-2.16-1.4-2.16a2.89,2.89,0,0,0-2.12,1.11V129H96.72Z"/><path class="cls-1" d="M115.85,121.66a1.58,1.58,0,0,0-1.79-1.65,6.12,6.12,0,0,0-3,1l-1.2-2.23a9.46,9.46,0,0,1,4.88-1.49c2.92,0,4.52,1.65,4.52,5.15V129h-2.75l-.26-1.17h-.07a5,5,0,0,1-3.33,1.45,3.28,3.28,0,0,1-3.38-3.45C109.44,123.43,111.35,122.12,115.85,121.66Zm-1.88,5a2.51,2.51,0,0,0,1.88-1v-2c-2.41.32-3.19,1-3.19,1.88S113.16,126.65,114,126.65Z"/><path class="cls-1" d="M122.64,125.57a5,5,0,0,0,2.94,1.2c1,0,1.45-.37,1.45-1,0-.76-1.15-1.1-2.32-1.56-1.38-.53-3-1.47-3-3.36,0-2.11,1.72-3.56,4.37-3.56a6.54,6.54,0,0,1,4,1.45l-1.52,2a4.18,4.18,0,0,0-2.41-1c-.87,0-1.29.33-1.29.9,0,.74,1.06,1,2.23,1.45,1.45.53,3.08,1.33,3.08,3.43s-1.63,3.68-4.69,3.68a7.4,7.4,0,0,1-4.37-1.59Z"/><path class="cls-1" d="M43.17,153.17a4.84,4.84,0,0,0,2.94,1.2c1,0,1.45-.37,1.45-1,0-.76-1.15-1.1-2.32-1.56-1.38-.53-3-1.47-3-3.36,0-2.11,1.73-3.56,4.37-3.56a6.55,6.55,0,0,1,4,1.45l-1.52,2a4.21,4.21,0,0,0-2.42-1c-.87,0-1.28.33-1.28.9,0,.74,1.05,1,2.23,1.45,1.45.53,3.08,1.33,3.08,3.43s-1.63,3.68-4.69,3.68a7.37,7.37,0,0,1-4.37-1.59Z"/><path class="cls-1" d="M53.31,147.84H51.75v-2.51l1.74-.14.39-3h2.81v3h2.73v2.65H56.69v4.57c0,1.29.57,1.82,1.47,1.82a3.1,3.1,0,0,0,1.08-.23l.53,2.46a8,8,0,0,1-2.53.42c-2.83,0-3.93-1.78-3.93-4.42Z"/><path class="cls-1" d="M67.38,149.26a1.58,1.58,0,0,0-1.79-1.65,6.19,6.19,0,0,0-3,1l-1.19-2.23a9.46,9.46,0,0,1,4.87-1.49c2.92,0,4.53,1.65,4.53,5.15v6.53H68l-.25-1.17h-.07a5,5,0,0,1-3.33,1.45A3.28,3.28,0,0,1,61,153.43C61,151,62.88,149.72,67.38,149.26Zm-1.88,5a2.51,2.51,0,0,0,1.88-1v-2c-2.41.32-3.19,1-3.19,1.88S64.69,154.25,65.5,154.25Z"/><path class="cls-1" d="M74.12,147.84H72.56v-2.51l1.75-.14.39-3h2.8v3h2.74v2.65H77.5v4.57c0,1.29.58,1.82,1.48,1.82a3.15,3.15,0,0,0,1.08-.23l.52,2.46a7.92,7.92,0,0,1-2.52.42c-2.83,0-3.94-1.78-3.94-4.42Z"/><path class="cls-1" d="M87,144.92c3.24,0,4.85,2.37,4.85,5.47a6.66,6.66,0,0,1-.14,1.43H84.84a2.77,2.77,0,0,0,3,2.48,4.57,4.57,0,0,0,2.46-.76l1.12,2.05a7.49,7.49,0,0,1-4,1.29c-3.27,0-5.77-2.21-5.77-6S84.22,144.92,87,144.92Zm2,4.8c0-1.31-.55-2.23-1.9-2.23-1.06,0-2,.72-2.21,2.23Z"/><path class="cls-1" d="M103.84,144.92c2.87,0,5.54,2.18,5.54,6s-2.67,6-5.54,6a6,6,0,0,1,0-12Zm0,9.22c1.38,0,2.09-1.27,2.09-3.24s-.71-3.25-2.09-3.25-2.09,1.27-2.09,3.25S102.43,154.14,103.84,154.14Z"/><path class="cls-1" d="M118,143.1a3.62,3.62,0,0,0-1.17-.23c-.83,0-1.32.46-1.32,1.63v.69h2v2.65h-2v8.76h-3.37v-8.76h-1.52v-2.51l1.52-.11v-.62c0-2.42,1.12-4.4,4.2-4.4a6.66,6.66,0,0,1,2.28.42Z"/><path class="cls-1" d="M47.06,175.44H45.5v-2.51l1.75-.14.39-3h2.8v3h2.74v2.65H50.44V180c0,1.29.58,1.82,1.48,1.82A3.15,3.15,0,0,0,53,181.6l.53,2.46a8,8,0,0,1-2.53.42c-2.83,0-3.94-1.77-3.94-4.42Z"/><path class="cls-1" d="M55.41,168.08h3.38v4l-.16,2a5.24,5.24,0,0,1,3.52-1.56c2.48,0,3.54,1.75,3.54,4.6v7.08H62.31v-6.65c0-1.65-.44-2.16-1.4-2.16a2.89,2.89,0,0,0-2.12,1.11v7.7H55.41Z"/><path class="cls-1" d="M73.26,172.52c3.24,0,4.85,2.37,4.85,5.47a6.66,6.66,0,0,1-.14,1.43H71.14a2.77,2.77,0,0,0,3,2.48,4.57,4.57,0,0,0,2.46-.76l1.13,2.05a7.5,7.5,0,0,1-4,1.29c-3.26,0-5.77-2.21-5.77-6S70.52,172.52,73.26,172.52Zm2,4.8c0-1.31-.55-2.23-1.91-2.23-1.06,0-2,.72-2.21,2.23Z"/><path class="cls-1" d="M91.25,176.86a1.59,1.59,0,0,0-1.8-1.65,6.15,6.15,0,0,0-3,1L85.22,174a9.46,9.46,0,0,1,4.88-1.49c2.92,0,4.53,1.65,4.53,5.15v6.53H91.87L91.61,183h-.07a5,5,0,0,1-3.33,1.45A3.28,3.28,0,0,1,84.83,181C84.83,178.63,86.74,177.32,91.25,176.86Zm-1.89,5a2.54,2.54,0,0,0,1.89-1v-2c-2.42.32-3.2,1-3.2,1.88S88.55,181.85,89.36,181.85Z"/><path class="cls-1" d="M97.53,172.79h2.75l.23,2h.1a3.8,3.8,0,0,1,3.24-2.27,3.3,3.3,0,0,1,1.36.23l-.56,2.92a4.08,4.08,0,0,0-1.24-.19,2.82,2.82,0,0,0-2.5,2.1v6.62H97.53Z"/><path class="cls-1" d="M107.14,175.44h-1.56v-2.51l1.74-.14.39-3h2.81v3h2.74v2.65h-2.74V180c0,1.29.57,1.82,1.47,1.82a3.1,3.1,0,0,0,1.08-.23l.53,2.46a8,8,0,0,1-2.53.42c-2.83,0-3.93-1.77-3.93-4.42Z"/><path class="cls-1" d="M36.85,208.37a5,5,0,0,0,2.94,1.2c1,0,1.45-.37,1.45-1,0-.76-1.15-1.1-2.32-1.56-1.38-.53-3-1.47-3-3.36,0-2.11,1.72-3.56,4.37-3.56a6.52,6.52,0,0,1,4,1.45l-1.52,2a4.18,4.18,0,0,0-2.41-1c-.87,0-1.29.33-1.29.9,0,.74,1.06,1,2.23,1.45,1.45.53,3.08,1.33,3.08,3.43s-1.63,3.68-4.69,3.68a7.4,7.4,0,0,1-4.37-1.59Z"/><path class="cls-1" d="M51.43,200.12c2.88,0,5.54,2.18,5.54,6s-2.66,6-5.54,6a5.59,5.59,0,0,1-5.56-6C45.87,202.3,48.54,200.12,51.43,200.12Zm0,9.22c1.38,0,2.1-1.27,2.1-3.24s-.72-3.25-2.1-3.25-2.09,1.27-2.09,3.25S50,209.34,51.43,209.34Z"/><path class="cls-1" d="M73.12,211.66a8,8,0,0,1-2.53.42c-2.83,0-3.93-1.78-3.93-4.42V203H63.14v8.76H59.76V203H58.24v-2.51l1.52-.11v-.62c0-2.42,1.13-4.4,4.21-4.4a6.6,6.6,0,0,1,2.27.42l-.62,2.48a3.57,3.57,0,0,0-1.17-.23c-.83,0-1.31.46-1.31,1.63v.69h3.7l.39-3H70v3h2.74V203H70v4.57c0,1.29.57,1.82,1.47,1.82a3.1,3.1,0,0,0,1.08-.23Z"/><path class="cls-1" d="M74.07,200.39h3.35l1.11,5.29c.18,1.13.32,2.23.5,3.38h.1c.2-1.15.39-2.3.66-3.38l1.27-5.29H84l1.28,5.29c.28,1.13.49,2.23.72,3.38h.09c.21-1.15.32-2.25.53-3.38l1.08-5.29h3.13L88.07,211.8h-4l-1-4.55c-.23-1.06-.41-2.12-.62-3.34h-.09c-.21,1.22-.37,2.28-.58,3.34l-1,4.55H76.92Z"/><path class="cls-1" d="M98.63,204.46a1.59,1.59,0,0,0-1.8-1.65,6.15,6.15,0,0,0-3,1l-1.2-2.23a9.46,9.46,0,0,1,4.88-1.49c2.92,0,4.53,1.65,4.53,5.15v6.53H99.25L99,210.63h-.07a5,5,0,0,1-3.34,1.45,3.28,3.28,0,0,1-3.38-3.45C92.21,206.23,94.12,204.92,98.63,204.46Zm-1.89,5a2.54,2.54,0,0,0,1.89-1v-2c-2.42.32-3.2,1-3.2,1.88S95.94,209.45,96.74,209.45Z"/><path class="cls-1" d="M104.91,200.39h2.76l.23,2H108a3.81,3.81,0,0,1,3.24-2.27,3.23,3.23,0,0,1,1.36.23l-.55,2.92a4.15,4.15,0,0,0-1.25-.19,2.83,2.83,0,0,0-2.5,2.1v6.62h-3.38Z"/><path class="cls-1" d="M118.55,200.12c3.24,0,4.85,2.37,4.85,5.47a6.66,6.66,0,0,1-.14,1.43h-6.83a2.77,2.77,0,0,0,3,2.48,4.57,4.57,0,0,0,2.46-.76l1.12,2a7.49,7.49,0,0,1-4,1.29c-3.27,0-5.77-2.21-5.77-6S115.81,200.12,118.55,200.12Zm2,4.8c0-1.31-.55-2.23-1.9-2.23-1.06,0-2,.72-2.21,2.23Z"/><path class="cls-1" d="M18.85,230.64H17.29v-2.51L19,228l.39-3h2.8v3H25v2.65H22.23v4.57c0,1.29.58,1.82,1.48,1.82a3.15,3.15,0,0,0,1.08-.23l.53,2.46a8,8,0,0,1-2.53.42c-2.83,0-3.94-1.78-3.94-4.42Z"/><path class="cls-1" d="M31.87,227.72c2.88,0,5.54,2.18,5.54,6s-2.66,6-5.54,6-5.56-2.19-5.56-6S29,227.72,31.87,227.72Zm0,9.22c1.38,0,2.09-1.27,2.09-3.24s-.71-3.25-2.09-3.25-2.09,1.27-2.09,3.25S30.47,236.94,31.87,236.94Z"/><path class="cls-1" d="M50.52,232.06a1.58,1.58,0,0,0-1.79-1.65,6.19,6.19,0,0,0-3,1l-1.19-2.23a9.46,9.46,0,0,1,4.87-1.49c2.92,0,4.53,1.65,4.53,5.15v6.53H51.14l-.25-1.17h-.07a5,5,0,0,1-3.33,1.45,3.28,3.28,0,0,1-3.38-3.45C44.11,233.83,46,232.52,50.52,232.06Zm-1.88,5a2.51,2.51,0,0,0,1.88-1v-2c-2.41.32-3.19,1-3.19,1.88S47.83,237.05,48.64,237.05Z"/><path class="cls-1" d="M56.69,228h3.38v6.65c0,1.63.44,2.16,1.43,2.16s1.35-.37,2-1.26V228H66.9V239.4H64.14l-.25-1.59h-.07a4.47,4.47,0,0,1-3.59,1.87c-2.48,0-3.54-1.75-3.54-4.6Z"/><path class="cls-1" d="M70.33,230.64H68.76v-2.51l1.75-.14.39-3h2.81v3h2.73v2.65H73.71v4.57c0,1.29.57,1.82,1.47,1.82a3.1,3.1,0,0,0,1.08-.23l.53,2.46a8,8,0,0,1-2.53.42c-2.83,0-3.93-1.78-3.93-4.42Z"/><path class="cls-1" d="M83.34,227.72c2.88,0,5.55,2.18,5.55,6s-2.67,6-5.55,6a5.59,5.59,0,0,1-5.56-6C77.78,229.9,80.45,227.72,83.34,227.72Zm0,9.22c1.38,0,2.1-1.27,2.1-3.24s-.72-3.25-2.1-3.25-2.09,1.27-2.09,3.25S81.94,236.94,83.34,236.94Z"/><path class="cls-1" d="M91.21,228H94l.23,1.48h.09a4.77,4.77,0,0,1,3.45-1.75,3.15,3.15,0,0,1,3.15,1.91,5,5,0,0,1,3.59-1.91c2.46,0,3.56,1.75,3.56,4.6v7.08h-3.38v-6.65c0-1.65-.43-2.16-1.4-2.16a3,3,0,0,0-2,1.11v7.7H97.93v-6.65c0-1.65-.44-2.16-1.41-2.16a3,3,0,0,0-1.93,1.11v7.7H91.21Z"/><path class="cls-1" d="M116.92,232.06a1.58,1.58,0,0,0-1.79-1.65,6.15,6.15,0,0,0-3,1l-1.2-2.23a9.46,9.46,0,0,1,4.87-1.49c2.93,0,4.53,1.65,4.53,5.15v6.53h-2.76l-.25-1.17h-.07a5,5,0,0,1-3.33,1.45,3.28,3.28,0,0,1-3.38-3.45C110.51,233.83,112.42,232.52,116.92,232.06Zm-1.88,5a2.51,2.51,0,0,0,1.88-1v-2c-2.41.32-3.19,1-3.19,1.88S114.23,237.05,115,237.05Z"/><path class="cls-1" d="M123.66,230.64H122.1v-2.51l1.75-.14.39-3H127v3h2.74v2.65H127v4.57c0,1.29.58,1.82,1.48,1.82a3.15,3.15,0,0,0,1.08-.23l.53,2.46a8,8,0,0,1-2.53.42c-2.83,0-3.94-1.78-3.94-4.42Z"/><path class="cls-1" d="M136.5,227.72c3.24,0,4.85,2.37,4.85,5.47a6.66,6.66,0,0,1-.14,1.43h-6.83a2.77,2.77,0,0,0,3,2.48,4.57,4.57,0,0,0,2.46-.76l1.13,2a7.52,7.52,0,0,1-4.05,1.29c-3.27,0-5.77-2.21-5.77-6S133.76,227.72,136.5,227.72Zm2,4.8c0-1.31-.55-2.23-1.9-2.23-1.06,0-2,.72-2.21,2.23Z"/><path class="cls-1" d="M21.89,255.32c3.24,0,4.85,2.37,4.85,5.47a6.66,6.66,0,0,1-.14,1.43H19.77a2.77,2.77,0,0,0,3,2.48,4.57,4.57,0,0,0,2.46-.76L26.33,266a7.5,7.5,0,0,1-4,1.29c-3.26,0-5.77-2.21-5.77-6S19.15,255.32,21.89,255.32Zm2,4.8c0-1.31-.55-2.23-1.91-2.23-1.06,0-2,.72-2.21,2.23Z"/><path class="cls-1" d="M29.09,255.59h2.76l.23,1.45h.09a5.27,5.27,0,0,1,3.66-1.72c2.48,0,3.54,1.75,3.54,4.6V267H36v-6.65c0-1.65-.44-2.16-1.41-2.16a2.87,2.87,0,0,0-2.11,1.11V267H29.09Z"/><path class="cls-1" d="M47,255.32c3.24,0,4.85,2.37,4.85,5.47a6.66,6.66,0,0,1-.14,1.43H44.84a2.77,2.77,0,0,0,3,2.48,4.57,4.57,0,0,0,2.46-.76L51.4,266a7.52,7.52,0,0,1-4,1.29c-3.27,0-5.77-2.21-5.77-6S44.22,255.32,47,255.32Zm2,4.8c0-1.31-.56-2.23-1.91-2.23-1.06,0-2,.72-2.21,2.23Z"/><path class="cls-1" d="M54.16,255.59h2.76l.23,2h.09a3.81,3.81,0,0,1,3.24-2.27,3.23,3.23,0,0,1,1.36.23l-.55,2.92a4.13,4.13,0,0,0-1.24-.19,2.84,2.84,0,0,0-2.51,2.1V267H54.16Z"/><path class="cls-1" d="M64,266.65v-.09a2.18,2.18,0,0,1-1-1.93,2.77,2.77,0,0,1,1.28-2.14v-.09a3.66,3.66,0,0,1-1.54-3c0-2.73,2.26-4.11,4.72-4.11a5.44,5.44,0,0,1,1.77.27h4.16v2.46H71.52a3,3,0,0,1,.37,1.5c0,2.62-2,3.84-4.48,3.84a4.52,4.52,0,0,1-1.38-.23,1,1,0,0,0-.42.85c0,.57.46.85,1.73.85h1.84c2.8,0,4.34.85,4.34,2.9,0,2.37-2.46,4.09-6.37,4.09-2.66,0-4.78-.87-4.78-2.9A2.7,2.7,0,0,1,64,266.65Zm3.68,3.09c1.52,0,2.62-.62,2.62-1.41s-.62-.89-1.74-.89H67.38a6.74,6.74,0,0,1-1.61-.14,1.51,1.51,0,0,0-.62,1.13C65.15,269.28,66.16,269.74,67.68,269.74ZM69,259.43c0-1.19-.67-1.84-1.56-1.84s-1.57.63-1.57,1.84.67,1.91,1.57,1.91S69,260.7,69,259.43Z"/><path class="cls-1" d="M76.19,268.79a1.93,1.93,0,0,0,2-1.49l.16-.6L74,255.59h3.41l1.63,4.9c.32,1,.6,2.12.89,3.24H80c.25-1.08.5-2.16.78-3.24l1.38-4.9h3.24l-4,11.52c-1.09,2.88-2.3,4.35-5,4.35a5.14,5.14,0,0,1-1.61-.23l.59-2.57A4.3,4.3,0,0,0,76.19,268.79Z"/><path class="cls-1" d="M98,259.66A1.59,1.59,0,0,0,96.16,258a6.16,6.16,0,0,0-3,1l-1.2-2.23a9.49,9.49,0,0,1,4.88-1.49c2.92,0,4.53,1.65,4.53,5.15V267H98.57l-.25-1.17h-.07a5,5,0,0,1-3.34,1.45,3.28,3.28,0,0,1-3.38-3.45C91.53,261.43,93.44,260.12,98,259.66Zm-1.89,5a2.53,2.53,0,0,0,1.89-1v-2c-2.41.32-3.2,1-3.2,1.88S95.26,264.65,96.06,264.65Z"/><path class="cls-1" d="M104.74,263.57a4.91,4.91,0,0,0,2.94,1.2c1,0,1.45-.37,1.45-1,0-.76-1.15-1.1-2.32-1.56-1.38-.53-3-1.47-3-3.36,0-2.11,1.73-3.56,4.37-3.56a6.55,6.55,0,0,1,4,1.45l-1.52,2a4.21,4.21,0,0,0-2.42-1c-.87,0-1.28.33-1.28.9,0,.74,1,1,2.23,1.45,1.45.53,3.08,1.33,3.08,3.43s-1.63,3.68-4.69,3.68a7.37,7.37,0,0,1-4.37-1.59Z"/><path class="cls-1" d="M114.92,263.57a5,5,0,0,0,3,1.2c1,0,1.45-.37,1.45-1,0-.76-1.15-1.1-2.33-1.56-1.38-.53-3-1.47-3-3.36,0-2.11,1.73-3.56,4.37-3.56a6.55,6.55,0,0,1,4,1.45l-1.52,2a4.21,4.21,0,0,0-2.42-1c-.87,0-1.29.33-1.29.9,0,.74,1.06,1,2.23,1.45,1.45.53,3.09,1.33,3.09,3.43s-1.64,3.68-4.69,3.68a7.37,7.37,0,0,1-4.37-1.59Z"/><path class="cls-1" d="M129.32,255.32c3.24,0,4.85,2.37,4.85,5.47a7.56,7.56,0,0,1-.13,1.43h-6.83a2.75,2.75,0,0,0,3,2.48,4.57,4.57,0,0,0,2.46-.76l1.13,2.05a7.5,7.5,0,0,1-4,1.29c-3.26,0-5.77-2.21-5.77-6S126.58,255.32,129.32,255.32Zm2,4.8c0-1.31-.55-2.23-1.91-2.23-1.06,0-2,.72-2.21,2.23Z"/><path class="cls-1" d="M136.57,258.24H135v-2.51l1.75-.14.39-3H140v3h2.73v2.65H140v4.57c0,1.29.57,1.82,1.47,1.82a3.1,3.1,0,0,0,1.08-.23l.53,2.46a8,8,0,0,1-2.53.42c-2.83,0-3.93-1.78-3.93-4.42Z"/><path class="cls-1" d="M23,282.92c2.87,0,5.54,2.18,5.54,6s-2.67,6-5.54,6a6,6,0,0,1,0-12Zm0,9.22c1.38,0,2.09-1.27,2.09-3.24s-.71-3.25-2.09-3.25-2.09,1.27-2.09,3.25S21.54,292.14,23,292.14Z"/><path class="cls-1" d="M34.19,295.5v3.33H30.81V283.19h2.76l.23,1.13h.1a5,5,0,0,1,3.24-1.4c2.76,0,4.46,2.27,4.46,5.79,0,3.91-2.35,6.17-4.81,6.17a3.93,3.93,0,0,1-2.71-1.2ZM36,292.12c1.17,0,2.12-1,2.12-3.36,0-2.05-.62-3.08-2-3.08a2.66,2.66,0,0,0-2,1v4.67A2.66,2.66,0,0,0,36,292.12Z"/><path class="cls-1" d="M44.45,285.84H42.89v-2.51l1.75-.14.39-3h2.8v3h2.74v2.65H47.83v4.57c0,1.29.58,1.82,1.48,1.82a3.15,3.15,0,0,0,1.08-.23l.53,2.46a8,8,0,0,1-2.53.42c-2.83,0-3.94-1.78-3.94-4.42Z"/><path class="cls-1" d="M52.53,279.74a2,2,0,0,1,3.91,0,2,2,0,0,1-3.91,0Zm.27,3.45h3.38V294.6H52.8Z"/><path class="cls-1" d="M59.15,283.19h2.76l.23,1.48h.09a4.76,4.76,0,0,1,3.45-1.75,3.15,3.15,0,0,1,3.15,1.91,5,5,0,0,1,3.59-1.91c2.46,0,3.56,1.75,3.56,4.6v7.08H72.6V288c0-1.65-.43-2.16-1.4-2.16a3,3,0,0,0-2,1.11v7.7H65.86V288c0-1.65-.43-2.16-1.4-2.16a3,3,0,0,0-1.93,1.11v7.7H59.15Z"/><path class="cls-1" d="M78.58,279.74a1.79,1.79,0,0,1,2-1.74,1.77,1.77,0,0,1,1.95,1.74,1.79,1.79,0,0,1-1.95,1.78A1.81,1.81,0,0,1,78.58,279.74Zm.28,3.45h3.38V294.6H78.86Z"/><path class="cls-1" d="M84.59,292.78l4.78-6.94H85.12v-2.65h8.46V285l-4.78,7h4.94v2.65H84.59Z"/><path class="cls-1" d="M101.47,287.26a1.59,1.59,0,0,0-1.8-1.65,6.15,6.15,0,0,0-3,1l-1.2-2.23a9.49,9.49,0,0,1,4.88-1.49c2.92,0,4.53,1.65,4.53,5.15v6.53h-2.76l-.25-1.17h-.07a5,5,0,0,1-3.34,1.45,3.28,3.28,0,0,1-3.38-3.45C95.05,289,97,287.72,101.47,287.26Zm-1.89,5a2.54,2.54,0,0,0,1.89-1v-2c-2.42.32-3.2,1-3.2,1.88S98.78,292.25,99.58,292.25Z"/><path class="cls-1" d="M108.21,285.84h-1.57v-2.51l1.75-.14.39-3h2.81v3h2.74v2.65h-2.74v4.57c0,1.29.57,1.82,1.47,1.82a3.1,3.1,0,0,0,1.08-.23l.53,2.46a8,8,0,0,1-2.53.42c-2.83,0-3.93-1.78-3.93-4.42Z"/><path class="cls-1" d="M116.28,279.74a1.79,1.79,0,0,1,2-1.74,1.77,1.77,0,0,1,2,1.74,1.79,1.79,0,0,1-2,1.78A1.81,1.81,0,0,1,116.28,279.74Zm.28,3.45h3.38V294.6h-3.38Z"/><path class="cls-1" d="M127.8,282.92c2.88,0,5.54,2.18,5.54,6s-2.66,6-5.54,6a5.59,5.59,0,0,1-5.56-6C122.24,285.1,124.91,282.92,127.8,282.92Zm0,9.22c1.38,0,2.1-1.27,2.1-3.24s-.72-3.25-2.1-3.25-2.09,1.27-2.09,3.25S126.4,292.14,127.8,292.14Z"/><path class="cls-1" d="M135.67,283.19h2.76l.23,1.45h.09a5.27,5.27,0,0,1,3.66-1.72c2.48,0,3.54,1.75,3.54,4.6v7.08h-3.38V288c0-1.65-.44-2.16-1.4-2.16a2.87,2.87,0,0,0-2.12,1.11v7.7h-3.38Z"/></svg>