<svg id="Layer_1" data-name="Layer 1" xmlns="http://www.w3.org/2000/svg" viewBox="0 0 980 300"><defs><style>.cls-1{fill:#fff;}</style></defs><title>text</title><path class="cls-1" d="M120.4,120.46V138.4c0,.72-.48,1.09-1.4,1.09s-1.39-.37-1.39-1.09v-8.21h-9.73v8.21c0,.72-.46,1.09-1.39,1.09s-1.39-.37-1.39-1.09V120.46c0-.75.46-1.12,1.39-1.12s1.39.37,1.39,1.12v7.19h9.73v-7.19c0-.75.47-1.12,1.39-1.12S120.39,119.71,120.4,120.46Z"/><path class="cls-1" d="M131.34,139.64a2.38,2.38,0,0,1-1.48-.5,2.8,2.8,0,0,1-.94-1.26l-4.39-11.82c-.06-.31-.09-.48-.1-.5,0-.72.44-1.08,1.34-1.07a1.3,1.3,0,0,1,1.37.8l4.14,11.65h.15l4.17-11.65c.2-.54.7-.8,1.5-.8s1.19.36,1.19,1.07c0,0,0,.19-.09.5l-4.4,11.82a2.61,2.61,0,0,1-.94,1.27A2.49,2.49,0,0,1,131.34,139.64Z"/><path class="cls-1" d="M141,132.12a18.84,18.84,0,0,1,.34-4,4.32,4.32,0,0,1,3.29-3.57,17.65,17.65,0,0,1,6.48,0,4.39,4.39,0,0,1,2.1,1.18,4.82,4.82,0,0,1,1.22,2.38,18.8,18.8,0,0,1,.34,4,18.4,18.4,0,0,1-.34,4,4.28,4.28,0,0,1-1.24,2.3,4.55,4.55,0,0,1-2.08,1.07,15.4,15.4,0,0,1-3.24.27,16.22,16.22,0,0,1-3.24-.26,4.5,4.5,0,0,1-2.09-1.07,4.22,4.22,0,0,1-1.22-2.32A19.08,19.08,0,0,1,141,132.12Zm3.11-3.55a8,8,0,0,0-.33,2.77c0,1.32,0,2.37.11,3.15a3.81,3.81,0,0,0,.78,2,2.41,2.41,0,0,0,1.81.63c.31,0,.77,0,1.39,0q2.73,0,3.21-.66a4.12,4.12,0,0,0,.8-2.05c.07-.75.1-1.54.1-2.35,0-2.4-.22-3.86-.68-4.37a2.45,2.45,0,0,0-2.7-1q-1.68,0-2.13,0c-1,.06-1.55.28-1.8.64A7.3,7.3,0,0,0,144.07,128.57Z"/><path class="cls-1" d="M161.53,130.68v7.72c0,.72-.47,1.09-1.39,1.09s-1.39-.37-1.4-1.09v-8.09a9.63,9.63,0,0,1,.5-3.86,5.25,5.25,0,0,1,.92-1.31c.66-.61,2.32-.91,5-.91a8.7,8.7,0,0,1,2.7.27,1,1,0,0,1,.68,1,1.44,1.44,0,0,1-.38,1.07,1.3,1.3,0,0,1-.95.35l-2.05-.14a8.66,8.66,0,0,0-2.37.19,1.93,1.93,0,0,0-.7.35,2.4,2.4,0,0,0-.33.7,3.5,3.5,0,0,0-.2,1.08C161.53,129.47,161.53,130,161.53,130.68Z"/><path class="cls-1" d="M184.47,119.84v12.28a19,19,0,0,1-.33,4,4.29,4.29,0,0,1-1.22,2.3,4.51,4.51,0,0,1-2.06,1.08,15.12,15.12,0,0,1-3.22.27,16.22,16.22,0,0,1-3.24-.26,4.58,4.58,0,0,1-2.1-1.07,4.21,4.21,0,0,1-1.21-2.32,20.46,20.46,0,0,1-.33-4,18.84,18.84,0,0,1,.34-4,4.33,4.33,0,0,1,3.3-3.57,15.93,15.93,0,0,1,3.57-.3,9.24,9.24,0,0,1,3.72.61v-5c0-.75.46-1.12,1.39-1.12S184.47,119.09,184.47,119.84Zm-10.59,8.73a8,8,0,0,0-.34,2.77c0,1.32,0,2.37.11,3.15a3.74,3.74,0,0,0,.79,2,2.39,2.39,0,0,0,1.81.63c.3,0,.76,0,1.39,0,1.81,0,2.88-.22,3.2-.66a4.12,4.12,0,0,0,.8-2.05c.07-.75.11-1.54.11-2.35,0-2.4-.23-3.86-.68-4.37a2.49,2.49,0,0,0-2.71-1q-1.67,0-2.13,0a2.34,2.34,0,0,0-1.79.64A6.48,6.48,0,0,0,173.88,128.57Z"/><path class="cls-1" d="M190.27,127.18c-.65,0-1-.38-1-1.15a1.25,1.25,0,0,1,1-1.39,21.68,21.68,0,0,1,5-.41c2.34,0,3.92.37,4.75,1.12s1.26,2.05,1.26,3.9v6c0,1.87-.46,3.09-1.37,3.65s-2.64.85-5.21.85-4.3-.28-5.17-.85-1.32-1.77-1.32-3.63.34-3.13,1-3.83,2.05-1,4.13-1h5.14v-1.61a1.73,1.73,0,0,0-.71-1.57,5.32,5.32,0,0,0-2.53-.43,20.51,20.51,0,0,0-3.16.21A11,11,0,0,1,190.27,127.18Zm8.25,8.28v-2.63h-4.31a5.47,5.47,0,0,0-2.59.39c-.4.26-.59.86-.59,1.79s.24,1.54.74,1.8a7.63,7.63,0,0,0,3,.38,8.59,8.59,0,0,0,3-.34A1.37,1.37,0,0,0,198.52,135.46Z"/><path class="cls-1" d="M208.89,127.3c-.34.36-.52,1.48-.52,3.36v7.74c0,.72-.46,1.09-1.38,1.09s-1.39-.37-1.4-1.09v-8.09a16,16,0,0,1,.27-3.33,3,3,0,0,1,1.09-1.81,4,4,0,0,1,1.91-.77,28.67,28.67,0,0,1,3.43-.17c2.61,0,4.25.31,4.94,1a4.09,4.09,0,0,1,1.21,2.73,23,23,0,0,1,.11,2.4v8.09c0,.72-.47,1.09-1.4,1.09s-1.39-.37-1.39-1.09v-7.74c0-1.86-.18-3-.53-3.34s-1.42-.55-3.19-.55S209.23,127,208.89,127.3Z"/><path class="cls-1" d="M233.09,130.68v7.72c0,.72-.46,1.09-1.38,1.09s-1.39-.37-1.4-1.09v-8.09a9.68,9.68,0,0,1,.49-3.86,5.52,5.52,0,0,1,.92-1.31c.67-.61,2.33-.91,5-.91a8.62,8.62,0,0,1,2.69.27,1,1,0,0,1,.69,1,1.44,1.44,0,0,1-.38,1.07,1.33,1.33,0,0,1-1,.35l-2-.14a8.81,8.81,0,0,0-2.38.19,2,2,0,0,0-.69.35,2.4,2.4,0,0,0-.33.7,3.23,3.23,0,0,0-.2,1.08C233.1,129.47,233.09,130,233.09,130.68Z"/><path class="cls-1" d="M254,136.82c.64,0,1,.39,1,1.15a1.25,1.25,0,0,1-1,1.4,24.37,24.37,0,0,1-5,.36q-3.54,0-5.07-1.15a4.59,4.59,0,0,1-1.55-3.86V129c0-1.89.47-3.17,1.4-3.83s2.66-1,5.19-1,4.24.31,5.13.94,1.33,1.92,1.33,3.87v2.46a1.71,1.71,0,0,1-.41,1.18,1.36,1.36,0,0,1-1,.42h-8.81v1.81q0,2.29,4,2.28a21.18,21.18,0,0,0,3-.19A16.44,16.44,0,0,1,254,136.82Zm-8.87-7.77v1.6h7.48v-1.6a1.93,1.93,0,0,0-.76-1.8,6.17,6.17,0,0,0-3-.48,6.69,6.69,0,0,0-3,.45A1.94,1.94,0,0,0,245.11,129.05Z"/><path class="cls-1" d="M273.15,119.84v12.28a18.88,18.88,0,0,1-.34,4,4.29,4.29,0,0,1-1.22,2.3,4.46,4.46,0,0,1-2.06,1.08,15.12,15.12,0,0,1-3.22.27,16.22,16.22,0,0,1-3.24-.26A4.5,4.5,0,0,1,261,138.4a4.16,4.16,0,0,1-1.22-2.32,20.46,20.46,0,0,1-.33-4,19.51,19.51,0,0,1,.34-4,4.33,4.33,0,0,1,3.3-3.57,15.93,15.93,0,0,1,3.57-.3,9.24,9.24,0,0,1,3.72.61v-5c0-.75.46-1.12,1.39-1.12S273.15,119.09,273.15,119.84Zm-10.6,8.73a8,8,0,0,0-.33,2.77c0,1.32,0,2.37.1,3.15a3.74,3.74,0,0,0,.79,2,2.39,2.39,0,0,0,1.81.63c.3,0,.77,0,1.39,0,1.81,0,2.88-.22,3.2-.66a4,4,0,0,0,.8-2.05c.07-.75.11-1.54.11-2.35,0-2.4-.23-3.86-.68-4.37a3.66,3.66,0,0,0-.53-.56,3.62,3.62,0,0,0-2.17-.43c-1.12,0-1.83,0-2.14,0a2.34,2.34,0,0,0-1.79.64A7.3,7.3,0,0,0,262.55,128.57Z"/><path class="cls-1" d="M282.25,137.17l1.44,0,1.44,0a3.36,3.36,0,0,0,1-.17,1.74,1.74,0,0,0,.79-.47,1.94,1.94,0,0,0,.33-1.24c0-.62,0-1.28,0-2v-7.74c0-.72.46-1.09,1.39-1.09s1.39.37,1.39,1.09v8.1a17.73,17.73,0,0,1-.24,3.34,3,3,0,0,1-1.08,1.81,4,4,0,0,1-1.87.77,33.57,33.57,0,0,1-6.34,0,4,4,0,0,1-1.87-.77,2.94,2.94,0,0,1-1.06-1.81,18.45,18.45,0,0,1-.25-3.34v-8.1c0-.72.47-1.09,1.4-1.09s1.38.37,1.38,1.09v7.74c0,1.88.17,3,.5,3.37a1.54,1.54,0,0,0,.65.33A3.36,3.36,0,0,0,282.25,137.17Z"/><path class="cls-1" d="M303.75,134.93v-.35a1.14,1.14,0,0,0-.73-1.07,6.3,6.3,0,0,0-2.52-.33,15.16,15.16,0,0,1-4-.57,3.25,3.25,0,0,1-1.82-1.22,4,4,0,0,1-.72-2.49v-.25c0-1.73.52-2.9,1.56-3.49a9.77,9.77,0,0,1,4.75-.9,20,20,0,0,1,4.72.41,1.24,1.24,0,0,1,.95,1.39c0,.77-.31,1.15-.95,1.15A16.26,16.26,0,0,1,303,127a21.68,21.68,0,0,0-3.1-.21,7.64,7.64,0,0,0-2.43.28c-.51.18-.77.69-.77,1.52v.29c0,1.1,1.15,1.69,3.45,1.76,1,0,1.93.12,2.89.24a4.46,4.46,0,0,1,2.46,1.07,3.23,3.23,0,0,1,1,2.59v.38c0,1.86-.53,3.12-1.58,3.8a9.75,9.75,0,0,1-5.07,1,22.48,22.48,0,0,1-5-.39,1.26,1.26,0,0,1-.95-1.4c0-.76.31-1.15.95-1.15.37,0,1.11.07,2.2.2a26.71,26.71,0,0,0,3.17.2,6.41,6.41,0,0,0,2.53-.42A1.78,1.78,0,0,0,303.75,134.93Z"/><path class="cls-1" d="M321.93,136.82c.63,0,.95.39.95,1.15a1.26,1.26,0,0,1-.95,1.4,24.37,24.37,0,0,1-5,.36q-3.54,0-5.07-1.15a4.56,4.56,0,0,1-1.55-3.86V129c0-1.89.47-3.17,1.4-3.83s2.66-1,5.19-1,4.24.31,5.13.94,1.33,1.92,1.33,3.87v2.46a1.71,1.71,0,0,1-.41,1.18,1.36,1.36,0,0,1-1.05.42h-8.8v1.81q0,2.29,4,2.28a21.18,21.18,0,0,0,3-.19A16.44,16.44,0,0,1,321.93,136.82Zm-8.87-7.77v1.6h7.48v-1.6a2,2,0,0,0-.76-1.8,6.17,6.17,0,0,0-2.95-.48,6.69,6.69,0,0,0-3,.45A1.94,1.94,0,0,0,313.06,129.05Z"/><path class="cls-1" d="M330.28,130.68v7.72c0,.72-.46,1.09-1.38,1.09s-1.39-.37-1.4-1.09v-8.09a9.63,9.63,0,0,1,.5-3.86,5,5,0,0,1,.92-1.31c.66-.61,2.32-.91,5-.91a8.74,8.74,0,0,1,2.7.27,1,1,0,0,1,.68,1,1.44,1.44,0,0,1-.38,1.07,1.3,1.3,0,0,1-.95.35l-2.05-.14a8.66,8.66,0,0,0-2.37.19,1.93,1.93,0,0,0-.7.35,2.4,2.4,0,0,0-.33.7,3.5,3.5,0,0,0-.2,1.08C330.29,129.47,330.28,130,330.28,130.68Z"/><path class="cls-1" d="M351.17,136.82c.64,0,1,.39,1,1.15a1.26,1.26,0,0,1-1,1.4,24.37,24.37,0,0,1-5,.36q-3.54,0-5.07-1.15a4.55,4.55,0,0,1-1.54-3.86V129c0-1.89.46-3.17,1.39-3.83s2.66-1,5.19-1,4.25.31,5.13.94,1.34,1.92,1.34,3.87v2.46a1.75,1.75,0,0,1-.41,1.18,1.39,1.39,0,0,1-1.05.42H342.3v1.81q0,2.29,4,2.28a21.18,21.18,0,0,0,3-.19A16.44,16.44,0,0,1,351.17,136.82Zm-8.87-7.77v1.6h7.48v-1.6a1.93,1.93,0,0,0-.76-1.8,6.14,6.14,0,0,0-2.95-.48,6.61,6.61,0,0,0-3,.45A1.92,1.92,0,0,0,342.3,129.05Z"/><path class="cls-1" d="M371.72,139.49h-7.57q-1,0-1-1.23c0-.82.32-1.22,1-1.22h2.39V121.79h-2.39c-.64,0-1-.41-1-1.22s.32-1.23,1-1.23h7.57c.63,0,.95.41.95,1.23s-.32,1.22-.95,1.22h-2.4V137h2.4c.63,0,.95.4.95,1.22S372.35,139.49,371.72,139.49Z"/><path class="cls-1" d="M382,138.4V121.88h-6.24c-.64,0-.95-.42-.95-1.27s.31-1.27.95-1.27H391c.63,0,.95.42.95,1.27s-.32,1.27-.95,1.27h-6.24V138.4c0,.72-.46,1.09-1.39,1.09S382,139.12,382,138.4Z"/><path class="cls-1" d="M400.06,131.43h-8.71c-.64,0-1-.42-1-1.27s.32-1.27,1-1.27h8.71c.64,0,1,.43,1,1.27S400.7,131.43,400.06,131.43Z"/><path class="cls-1" d="M405.41,127.18c-.65,0-1-.38-1-1.15a1.25,1.25,0,0,1,1-1.39,21.64,21.64,0,0,1,5-.41c2.34,0,3.93.37,4.76,1.12s1.25,2.05,1.25,3.9v6c0,1.87-.45,3.09-1.36,3.65s-2.65.85-5.22.85-4.29-.28-5.17-.85-1.31-1.77-1.31-3.63.33-3.13,1-3.83,2.06-1,4.14-1h5.14v-1.61a1.73,1.73,0,0,0-.71-1.57,5.32,5.32,0,0,0-2.53-.43,20.74,20.74,0,0,0-3.17.21A10.79,10.79,0,0,1,405.41,127.18Zm8.25,8.28v-2.63h-4.31a5.52,5.52,0,0,0-2.6.39c-.39.26-.59.86-.59,1.79s.25,1.54.75,1.8a7.63,7.63,0,0,0,3,.38,8.63,8.63,0,0,0,3-.34A1.37,1.37,0,0,0,413.66,135.46Z"/><path class="cls-1" d="M424,127.3c-.35.36-.52,1.48-.52,3.36v7.74c0,.72-.46,1.09-1.38,1.09s-1.39-.37-1.4-1.09v-8.09A16,16,0,0,1,421,127a2.9,2.9,0,0,1,1.09-1.81,4,4,0,0,1,1.91-.77,28.67,28.67,0,0,1,3.43-.17c2.61,0,4.25.31,4.94,1a4.14,4.14,0,0,1,1.21,2.73,23.28,23.28,0,0,1,.1,2.4v8.09c0,.72-.46,1.09-1.39,1.09s-1.39-.37-1.39-1.09v-7.74c0-1.86-.18-3-.53-3.34s-1.42-.55-3.19-.55S424.37,127,424,127.3Z"/><path class="cls-1" d="M448.91,122.77c0-.66.47-1,1.39-1s1.4.34,1.4,1v6.56q0,2.92-1.47,3.84a9.55,9.55,0,0,1-4.88.93,22.71,22.71,0,0,1-4.55-.29v2.39h5.65c2.12,0,3.55.37,4.31,1.11a5.08,5.08,0,0,1,1.12,3.71c0,1.74-.51,2.93-1.52,3.58s-2.79,1-5.36,1-4.37-.29-5.41-.88S438,143,438,141.14V129a5.22,5.22,0,0,1,.86-3.39,4.74,4.74,0,0,1,3.28-1.18,26.2,26.2,0,0,1,6.76.32Zm-8.11,6.53c0,1.11.21,1.79.62,2a7.37,7.37,0,0,0,3,.36,13.78,13.78,0,0,0,3.22-.25,1.53,1.53,0,0,0,1.07-.76,4.73,4.73,0,0,0,.21-1.68v-1.84a34.07,34.07,0,0,0-4.43-.32,6.2,6.2,0,0,0-2.85.46,2,2,0,0,0-.83,1.89Zm0,9.39v2.56a1.5,1.5,0,0,0,1,1.47,8.91,8.91,0,0,0,3.27.43,6.8,6.8,0,0,0,3.06-.46,1.86,1.86,0,0,0,.78-1.76,1.92,1.92,0,0,0-.75-1.77,5.49,5.49,0,0,0-2.73-.47Z"/><path class="cls-1" d="M458.17,130.68v7.72c0,.72-.46,1.09-1.38,1.09s-1.39-.37-1.4-1.09v-8.09a9.63,9.63,0,0,1,.5-3.86,5,5,0,0,1,.92-1.31c.66-.61,2.32-.91,5-.91a8.74,8.74,0,0,1,2.7.27,1,1,0,0,1,.68,1,1.44,1.44,0,0,1-.38,1.07,1.3,1.3,0,0,1-1,.35l-2-.14a8.66,8.66,0,0,0-2.37.19,1.93,1.93,0,0,0-.7.35,2.4,2.4,0,0,0-.33.7,3.5,3.5,0,0,0-.2,1.08C458.18,129.47,458.17,130,458.17,130.68Z"/><path class="cls-1" d="M479.06,136.82c.64,0,1,.39,1,1.15a1.26,1.26,0,0,1-1,1.4,24.31,24.31,0,0,1-5,.36q-3.54,0-5.07-1.15a4.55,4.55,0,0,1-1.54-3.86V129c0-1.89.46-3.17,1.39-3.83s2.66-1,5.19-1,4.25.31,5.14.94,1.33,1.92,1.33,3.87v2.46a1.75,1.75,0,0,1-.41,1.18,1.38,1.38,0,0,1-1.05.42h-8.81v1.81q0,2.29,4,2.28a21,21,0,0,0,3-.19A16.44,16.44,0,0,1,479.06,136.82Zm-8.87-7.77v1.6h7.48v-1.6a1.93,1.93,0,0,0-.76-1.8,6.14,6.14,0,0,0-3-.48,6.61,6.61,0,0,0-3,.45A1.92,1.92,0,0,0,470.19,129.05Z"/><path class="cls-1" d="M484.63,144.45V131.86a18.17,18.17,0,0,1,.35-4,4.2,4.2,0,0,1,3.28-3.39,15.06,15.06,0,0,1,3.22-.27,15.44,15.44,0,0,1,3.25.27,4.57,4.57,0,0,1,2.1,1.07,4.22,4.22,0,0,1,1.22,2.32,20,20,0,0,1,.31,4,18.67,18.67,0,0,1-.34,4,4.3,4.3,0,0,1-3.29,3.56,16.72,16.72,0,0,1-3.58.29,9.26,9.26,0,0,1-3.73-.61v5.33c0,.73-.46,1.09-1.39,1.09S484.64,145.18,484.63,144.45Zm10.61-9a7.69,7.69,0,0,0,.34-2.78c0-1.33,0-2.39-.11-3.16a4,4,0,0,0-.77-2.06c-.32-.44-1.4-.66-3.22-.66s-2.89.22-3.21.66a4,4,0,0,0-.81,2.09c-.07.75-.1,1.53-.1,2.34s0,1.47.07,2,.12,1,.19,1.41a2.66,2.66,0,0,0,.95,1.52,1.91,1.91,0,0,0,1.24.39c.58,0,1.16,0,1.75,0s1,0,1.32,0a6.44,6.44,0,0,0,1-.17,1.28,1.28,0,0,0,.81-.47A9.27,9.27,0,0,0,495.24,135.43Z"/><path class="cls-1" d="M109.83,176.84a2.38,2.38,0,0,1-1.48-.5,2.8,2.8,0,0,1-.94-1.26L103,163.26c-.06-.31-.09-.48-.1-.5,0-.72.45-1.08,1.34-1.07a1.3,1.3,0,0,1,1.37.8l4.14,11.65h.15l4.17-11.65c.2-.54.7-.8,1.5-.8s1.19.36,1.19,1.07c0,0,0,.19-.09.5l-4.4,11.82a2.61,2.61,0,0,1-.94,1.27A2.49,2.49,0,0,1,109.83,176.84Z"/><path class="cls-1" d="M131.4,174c.64,0,1,.39,1,1.15a1.26,1.26,0,0,1-1,1.4,24.37,24.37,0,0,1-5,.36q-3.54,0-5.07-1.15a4.55,4.55,0,0,1-1.54-3.86v-5.68c0-1.89.46-3.17,1.39-3.83s2.66-1,5.19-1,4.25.31,5.13.94,1.34,1.92,1.34,3.87v2.46a1.75,1.75,0,0,1-.41,1.18,1.39,1.39,0,0,1-1,.42h-8.81v1.81q0,2.29,4,2.28a22.86,22.86,0,0,0,3-.18A14.9,14.9,0,0,1,131.4,174Zm-8.87-7.77v1.6H130v-1.6a1.93,1.93,0,0,0-.76-1.8,6.14,6.14,0,0,0-3-.48,6.61,6.61,0,0,0-3,.45A1.92,1.92,0,0,0,122.53,166.25Z"/><path class="cls-1" d="M150.57,157v12.28a18.22,18.22,0,0,1-.34,4,4.29,4.29,0,0,1-1.22,2.3,4.46,4.46,0,0,1-2.06,1.08,15.06,15.06,0,0,1-3.22.27,16.22,16.22,0,0,1-3.24-.26,4.5,4.5,0,0,1-2.09-1.07,4.16,4.16,0,0,1-1.22-2.32,20.46,20.46,0,0,1-.33-4,18.74,18.74,0,0,1,.35-4,4.31,4.31,0,0,1,3.29-3.57,15.93,15.93,0,0,1,3.57-.3,9.17,9.17,0,0,1,3.72.61v-5c0-.75.47-1.12,1.39-1.12S150.57,156.29,150.57,157ZM140,165.77a8,8,0,0,0-.33,2.77c0,1.32,0,2.37.1,3.15a3.82,3.82,0,0,0,.79,2,2.41,2.41,0,0,0,1.81.63c.3,0,.77,0,1.39,0,1.82,0,2.88-.22,3.21-.66a4.12,4.12,0,0,0,.8-2c.07-.75.1-1.54.1-2.35,0-2.4-.22-3.86-.68-4.37a3.66,3.66,0,0,0-.53-.56,3.6,3.6,0,0,0-2.17-.43q-1.68,0-2.13,0c-1,.06-1.55.28-1.8.64A7.3,7.3,0,0,0,140,165.77Z"/><path class="cls-1" d="M162.19,169.32V157c0-.75.48-1.12,1.4-1.12s1.39.37,1.39,1.12v5a9.26,9.26,0,0,1,3.73-.61,16,16,0,0,1,3.58.3,4.35,4.35,0,0,1,2.1,1.18,4.92,4.92,0,0,1,1.2,2.39,19.62,19.62,0,0,1,.33,4,20.11,20.11,0,0,1-.31,4,4.13,4.13,0,0,1-1.22,2.28,4.78,4.78,0,0,1-2.1,1.07,15.44,15.44,0,0,1-3.25.27,15.86,15.86,0,0,1-3.22-.26,4.35,4.35,0,0,1-2.06-1.07,4.49,4.49,0,0,1-1.22-2.32A18.13,18.13,0,0,1,162.19,169.32Zm10.95.62c0-1.33,0-2.39-.11-3.17a4.36,4.36,0,0,0-.77-2.13c-.31-.44-1.38-.67-3.22-.67a5.77,5.77,0,0,0-2.91.43,2.47,2.47,0,0,0-.93,1.39,16.66,16.66,0,0,0-.28,3.11c0,1.09,0,2,.1,2.8a3.84,3.84,0,0,0,.81,2.06,2.43,2.43,0,0,0,1.83.63q.45,0,1.38,0t1.38,0a6.47,6.47,0,0,0,1-.17,1.39,1.39,0,0,0,.81-.44,7.22,7.22,0,0,0,.54-1.09A7.65,7.65,0,0,0,173.14,169.94Z"/><path class="cls-1" d="M182.76,167.88v7.72c0,.72-.46,1.09-1.38,1.09s-1.39-.37-1.4-1.09v-8.09a9.68,9.68,0,0,1,.49-3.86,5.52,5.52,0,0,1,.92-1.31c.67-.61,2.33-.91,5-.91a8.62,8.62,0,0,1,2.69.27,1,1,0,0,1,.69,1,1.44,1.44,0,0,1-.38,1.07,1.33,1.33,0,0,1-1,.35l-2-.14a8.81,8.81,0,0,0-2.38.19,2.14,2.14,0,0,0-.69.35,2.64,2.64,0,0,0-.34.7,3.55,3.55,0,0,0-.19,1.08C182.77,166.67,182.76,167.2,182.76,167.88Z"/><path class="cls-1" d="M197,174.37l1.44,0,1.44,0a3.64,3.64,0,0,0,1-.16,1.85,1.85,0,0,0,.79-.48,1.94,1.94,0,0,0,.33-1.24c0-.62.05-1.28.05-2v-7.74c0-.72.46-1.09,1.39-1.09s1.39.37,1.39,1.09v8.1a17.92,17.92,0,0,1-.24,3.35,3,3,0,0,1-1.08,1.8,4,4,0,0,1-1.87.77,33.57,33.57,0,0,1-6.34,0,4,4,0,0,1-1.87-.77,2.94,2.94,0,0,1-1.06-1.8,18.66,18.66,0,0,1-.25-3.35v-8.1c0-.72.47-1.09,1.4-1.09s1.38.37,1.38,1.09v7.74c0,1.88.17,3,.5,3.37a1.64,1.64,0,0,0,.66.34A3.58,3.58,0,0,0,197,174.37Z"/><path class="cls-1" d="M211.92,157v12l6.93-7a1.43,1.43,0,0,1,1-.47,1.34,1.34,0,0,1,1,.39,1.21,1.21,0,0,1,.39.91,1.43,1.43,0,0,1-.5,1l-4,3.73,4.94,6.88a1.63,1.63,0,0,1,.3.93,1.15,1.15,0,0,1-.44.9,1.43,1.43,0,0,1-1,.43,1,1,0,0,1-.9-.5l-4.85-6.78-2.84,2.63v3.53c0,.72-.47,1.09-1.39,1.09s-1.39-.37-1.4-1.09V157c0-.75.48-1.12,1.4-1.12S211.92,156.29,211.92,157Z"/><path class="cls-1" d="M233.5,164.38c-.65,0-1-.38-1-1.15a1.25,1.25,0,0,1,1-1.39,21.74,21.74,0,0,1,5-.41c2.34,0,3.92.37,4.75,1.12s1.26,2,1.26,3.91v6c0,1.87-.46,3.09-1.37,3.65s-2.64.85-5.21.85-4.3-.28-5.17-.85-1.32-1.77-1.32-3.63.34-3.13,1-3.83,2.05-1.05,4.13-1h5.14V166a1.74,1.74,0,0,0-.71-1.57,5.32,5.32,0,0,0-2.53-.43,20.6,20.6,0,0,0-3.16.21A11,11,0,0,1,233.5,164.38Zm8.25,8.28V170h-4.31a5.47,5.47,0,0,0-2.59.39c-.4.26-.59.86-.59,1.79s.24,1.54.74,1.8a7.63,7.63,0,0,0,3,.38,8.59,8.59,0,0,0,3-.34A1.37,1.37,0,0,0,241.75,172.66Z"/><path class="cls-1" d="M254.5,176.84a2.41,2.41,0,0,1-1.49-.5,2.88,2.88,0,0,1-.94-1.26l-4.39-11.82c-.06-.31-.09-.48-.1-.5,0-.72.45-1.08,1.35-1.07a1.28,1.28,0,0,1,1.36.8l4.15,11.65h.15l4.16-11.65c.2-.54.7-.8,1.5-.8s1.19.36,1.19,1.07c0,0,0,.19-.09.5L257,175.08a2.55,2.55,0,0,1-.94,1.27A2.48,2.48,0,0,1,254.5,176.84Z"/><path class="cls-1" d="M282.5,169.12a2.83,2.83,0,0,1-2.44-1.76l-4.22-7.85h-.15v16.06c0,.74-.47,1.12-1.39,1.12s-1.4-.38-1.4-1.12V159.2a2.75,2.75,0,0,1,.77-2.1,2.54,2.54,0,0,1,1.74-.71,2.93,2.93,0,0,1,2.79,1.76l4.22,7.94h.15l4.21-7.94a2.89,2.89,0,0,1,2.79-1.76,2.47,2.47,0,0,1,1.72.71,2.76,2.76,0,0,1,.79,2.1v16.37c0,.74-.48,1.12-1.4,1.12s-1.38-.38-1.38-1.12V159.51h-.16l-4.22,7.85A2.78,2.78,0,0,1,282.5,169.12Z"/><path class="cls-1" d="M297.48,158.08a1.48,1.48,0,0,1,.46-1.07,1.51,1.51,0,0,1,1.06-.47,1.45,1.45,0,0,1,1.07.47,1.6,1.6,0,0,1,.44,1.09,1.46,1.46,0,0,1-.45,1.06,1.5,1.5,0,0,1-2.14,0A1.5,1.5,0,0,1,297.48,158.08Zm2.91,4.68V175.6c0,.72-.46,1.09-1.39,1.09s-1.4-.37-1.4-1.09V162.76c0-.72.47-1.09,1.4-1.09S300.39,162,300.39,162.76Z"/><path class="cls-1" d="M315.88,164.38a6.76,6.76,0,0,1-1.55-.2,15.53,15.53,0,0,0-2.95-.21,6.48,6.48,0,0,0-2.83.47,1.91,1.91,0,0,0-.92,1.86v5.8c0,1.54,1.32,2.3,4,2.29a15.05,15.05,0,0,0,2.72-.2,9.27,9.27,0,0,1,1.55-.2c.64,0,1,.39,1,1.15a1.26,1.26,0,0,1-1,1.4,20.79,20.79,0,0,1-4.74.39,7.87,7.87,0,0,1-4.75-1.15,4.56,4.56,0,0,1-1.55-3.86v-5.68c0-1.87.48-3.15,1.45-3.81a8.69,8.69,0,0,1,4.77-1,16.9,16.9,0,0,1,4.82.5,1.21,1.21,0,0,1,1,1.34Q316.84,164.38,315.88,164.38Z"/><path class="cls-1" d="M323,167.88v7.72c0,.72-.46,1.09-1.39,1.09s-1.39-.37-1.4-1.09v-8.09a9.63,9.63,0,0,1,.5-3.86,5.25,5.25,0,0,1,.92-1.31c.66-.61,2.32-.91,5-.91a8.62,8.62,0,0,1,2.69.27,1,1,0,0,1,.68,1,1.4,1.4,0,0,1-.38,1.07,1.3,1.3,0,0,1-.95.35l-2-.14a8.75,8.75,0,0,0-2.38.19,2.34,2.34,0,0,0-.7.35,2.4,2.4,0,0,0-.33.7,3.56,3.56,0,0,0-.2,1.08C323,166.67,323,167.2,323,167.88Z"/><path class="cls-1" d="M331.33,169.32a18.84,18.84,0,0,1,.34-4,4.33,4.33,0,0,1,3.3-3.57,14.14,14.14,0,0,1,3.24-.3,14,14,0,0,1,3.23.3,4.39,4.39,0,0,1,2.1,1.18,4.9,4.9,0,0,1,1.23,2.39,19.4,19.4,0,0,1,.33,4,19.16,19.16,0,0,1-.33,4,4.34,4.34,0,0,1-1.24,2.3,4.64,4.64,0,0,1-2.09,1.07,15.23,15.23,0,0,1-3.23.27,16.22,16.22,0,0,1-3.24-.26,4.58,4.58,0,0,1-2.1-1.07,4.15,4.15,0,0,1-1.21-2.32A19,19,0,0,1,331.33,169.32Zm3.12-3.55a8,8,0,0,0-.34,2.77c0,1.32,0,2.37.11,3.15a3.74,3.74,0,0,0,.79,2,2.39,2.39,0,0,0,1.81.63c.3,0,.76,0,1.39,0,1.81,0,2.88-.22,3.2-.66a4.12,4.12,0,0,0,.8-2c.07-.75.11-1.54.11-2.35,0-2.4-.23-3.86-.68-4.37a2.49,2.49,0,0,0-2.71-1q-1.67,0-2.13,0a2.34,2.34,0,0,0-1.79.64A6.48,6.48,0,0,0,334.45,165.77Z"/><path class="cls-1" d="M358.48,172.13v-.35a1.14,1.14,0,0,0-.72-1.07,6.39,6.39,0,0,0-2.53-.33,15.22,15.22,0,0,1-4-.57,3.22,3.22,0,0,1-1.81-1.22,3.94,3.94,0,0,1-.73-2.49v-.25c0-1.73.52-2.9,1.56-3.49a9.77,9.77,0,0,1,4.75-.9,20.06,20.06,0,0,1,4.73.41,1.25,1.25,0,0,1,.95,1.39c0,.77-.32,1.15-.95,1.15a16.17,16.17,0,0,1-2-.2,21.68,21.68,0,0,0-3.1-.21,7.53,7.53,0,0,0-2.42.28c-.52.18-.77.69-.77,1.52v.29c0,1.1,1.15,1.69,3.45,1.76,1,0,1.92.12,2.89.24a4.43,4.43,0,0,1,2.45,1.07,3.2,3.2,0,0,1,1,2.59v.38c0,1.86-.52,3.12-1.57,3.8a9.77,9.77,0,0,1-5.08,1,22.48,22.48,0,0,1-5-.39,1.26,1.26,0,0,1-.95-1.4c0-.76.32-1.15.95-1.15.38,0,1.11.07,2.2.2a26.88,26.88,0,0,0,3.18.2,6.45,6.45,0,0,0,2.53-.42A1.79,1.79,0,0,0,358.48,172.13Z"/><path class="cls-1" d="M365,169.32a18.84,18.84,0,0,1,.34-4,4.33,4.33,0,0,1,3.3-3.57,14.14,14.14,0,0,1,3.24-.3,14,14,0,0,1,3.23.3,4.39,4.39,0,0,1,2.1,1.18,4.9,4.9,0,0,1,1.23,2.39,19.4,19.4,0,0,1,.33,4,19.16,19.16,0,0,1-.33,4,4.34,4.34,0,0,1-1.24,2.3,4.64,4.64,0,0,1-2.09,1.07,15.23,15.23,0,0,1-3.23.27,16.22,16.22,0,0,1-3.24-.26,4.53,4.53,0,0,1-2.1-1.07,4.15,4.15,0,0,1-1.21-2.32A19,19,0,0,1,365,169.32Zm3.12-3.55a7.74,7.74,0,0,0-.34,2.77c0,1.32,0,2.37.11,3.15a3.74,3.74,0,0,0,.79,2,2.39,2.39,0,0,0,1.81.63c.3,0,.76,0,1.39,0,1.81,0,2.88-.22,3.2-.66a4.12,4.12,0,0,0,.8-2c.07-.75.11-1.54.11-2.35,0-2.4-.23-3.86-.68-4.37a2.49,2.49,0,0,0-2.71-1q-1.67,0-2.13,0a2.34,2.34,0,0,0-1.79.64A6.48,6.48,0,0,0,368.13,165.77Z"/><path class="cls-1" d="M387,161.53v.16h3.93c.64,0,1,.41,1,1.22s-.32,1.23-1,1.23H387V175.6c0,.73-.47,1.09-1.4,1.09s-1.39-.36-1.39-1.09V164.14h-2c-.63,0-.95-.41-.95-1.23s.32-1.22.95-1.22h2v-.53c0-2.13.36-3.54,1.09-4.23s2.1-1,4.09-1a8.62,8.62,0,0,1,2.69.27,1,1,0,0,1,.68,1,1.29,1.29,0,0,1-.37,1,1.38,1.38,0,0,1-1,.36l-2-.09a2.61,2.61,0,0,0-1.95.52A4.54,4.54,0,0,0,387,161.53Z"/><path class="cls-1" d="M399.54,176.69a3.87,3.87,0,0,1-3-.91,4.54,4.54,0,0,1-.84-3.11v-8.53h-2q-.93,0-.93-1.23c0-.81.31-1.22.93-1.22h2v-3.95c0-.72.47-1.08,1.39-1.08s1.4.36,1.4,1.08v3.95h3.94c.63,0,.95.41.95,1.22s-.32,1.23-.95,1.23h-3.94v8.74c0,.84.5,1.26,1.51,1.26l2.63-.15c.65,0,1,.38,1,1.12a1.44,1.44,0,0,1-1,1.49C402,176.66,401,176.69,399.54,176.69Z"/><path class="cls-1" d="M415.88,172.13v-.35a1.14,1.14,0,0,0-.72-1.07,6.39,6.39,0,0,0-2.53-.33,15.22,15.22,0,0,1-4-.57,3.22,3.22,0,0,1-1.81-1.22,3.94,3.94,0,0,1-.73-2.49v-.25c0-1.73.52-2.9,1.56-3.49a9.77,9.77,0,0,1,4.75-.9,20,20,0,0,1,4.72.41,1.25,1.25,0,0,1,1,1.39c0,.77-.32,1.15-1,1.15a16.26,16.26,0,0,1-1.95-.2,21.68,21.68,0,0,0-3.1-.21,7.53,7.53,0,0,0-2.42.28c-.52.18-.78.69-.78,1.52v.29c0,1.1,1.15,1.69,3.46,1.76.95,0,1.92.12,2.89.24a4.43,4.43,0,0,1,2.45,1.07,3.2,3.2,0,0,1,1,2.59v.38c0,1.86-.53,3.12-1.58,3.8a9.75,9.75,0,0,1-5.07,1,22.48,22.48,0,0,1-5-.39,1.26,1.26,0,0,1-.95-1.4c0-.76.32-1.15.95-1.15.38,0,1.11.07,2.2.2a26.88,26.88,0,0,0,3.18.2,6.36,6.36,0,0,0,2.52-.42A1.78,1.78,0,0,0,415.88,172.13Z"/><path class="cls-1" d="M435.15,176.69a3.89,3.89,0,0,1-2.95-.91,4.6,4.6,0,0,1-.83-3.11v-8.53h-2q-.93,0-.93-1.23c0-.81.31-1.22.93-1.22h2v-3.95c0-.72.46-1.08,1.39-1.08s1.39.36,1.39,1.08v3.95h4c.63,0,.94.41.94,1.22s-.31,1.23-.94,1.23h-4v8.74c0,.84.51,1.26,1.52,1.26l2.63-.15c.65,0,1,.38,1,1.12a1.44,1.44,0,0,1-1,1.49C437.6,176.66,436.57,176.69,435.15,176.69Z"/><path class="cls-1" d="M453.66,174c.64,0,1,.39,1,1.15a1.26,1.26,0,0,1-1,1.4,24.37,24.37,0,0,1-5,.36q-3.54,0-5.07-1.15a4.55,4.55,0,0,1-1.54-3.86v-5.68c0-1.89.46-3.17,1.39-3.83s2.66-1,5.19-1,4.25.31,5.14.94,1.33,1.92,1.33,3.87v2.46a1.75,1.75,0,0,1-.41,1.18,1.39,1.39,0,0,1-1,.42h-8.81v1.81q0,2.29,4,2.28a22.86,22.86,0,0,0,3-.18A14.9,14.9,0,0,1,453.66,174Zm-8.87-7.77v1.6h7.48v-1.6a1.93,1.93,0,0,0-.76-1.8,6.14,6.14,0,0,0-2.95-.48,6.61,6.61,0,0,0-3,.45A1.92,1.92,0,0,0,444.79,166.25Z"/><path class="cls-1" d="M462,157v12l6.93-7a1.46,1.46,0,0,1,1-.47,1.31,1.31,0,0,1,1,.39,1.21,1.21,0,0,1,.39.91,1.39,1.39,0,0,1-.5,1l-4,3.73,4.93,6.88a1.57,1.57,0,0,1,.31.93,1.18,1.18,0,0,1-.44.9,1.46,1.46,0,0,1-1,.43,1,1,0,0,1-.91-.5l-4.84-6.78L462,172.07v3.53c0,.72-.46,1.09-1.39,1.09s-1.38-.37-1.39-1.09V157c0-.75.47-1.12,1.39-1.12S462,156.29,462,157Z"/><path class="cls-1" d="M477.84,164.5c-.35.36-.52,1.48-.52,3.36v7.74c0,.72-.46,1.09-1.38,1.09s-1.39-.37-1.4-1.09v-8.09a16,16,0,0,1,.27-3.33,3,3,0,0,1,1.09-1.81,4,4,0,0,1,1.91-.77,28.67,28.67,0,0,1,3.43-.17c2.61,0,4.25.31,4.94.95a4.14,4.14,0,0,1,1.21,2.73,23.28,23.28,0,0,1,.1,2.4v8.09c0,.72-.46,1.09-1.39,1.09s-1.39-.37-1.39-1.09v-7.74c0-1.86-.18-3-.53-3.34S482.76,164,481,164,478.18,164.15,477.84,164.5Z"/><path class="cls-1" d="M491.7,169.32a18.74,18.74,0,0,1,.35-4,4.31,4.31,0,0,1,3.29-3.57,17.65,17.65,0,0,1,6.48,0,4.49,4.49,0,0,1,2.1,1.18,4.81,4.81,0,0,1,1.22,2.39,18.63,18.63,0,0,1,.34,4,18.4,18.4,0,0,1-.34,4,4.28,4.28,0,0,1-1.24,2.3,4.6,4.6,0,0,1-2.08,1.07,15.4,15.4,0,0,1-3.24.27,16.22,16.22,0,0,1-3.24-.26,4.5,4.5,0,0,1-2.09-1.07,4.16,4.16,0,0,1-1.22-2.32A19,19,0,0,1,491.7,169.32Zm3.12-3.55a8,8,0,0,0-.33,2.77c0,1.32,0,2.37.1,3.15a3.82,3.82,0,0,0,.79,2,2.41,2.41,0,0,0,1.81.63c.3,0,.77,0,1.39,0,1.82,0,2.88-.22,3.21-.66a4.12,4.12,0,0,0,.8-2c.07-.75.1-1.54.1-2.35,0-2.4-.23-3.86-.68-4.37a3.66,3.66,0,0,0-.53-.56,3.6,3.6,0,0,0-2.17-.43q-1.68,0-2.13,0c-.95.06-1.55.28-1.8.64A7.3,7.3,0,0,0,494.82,165.77Z"/><path class="cls-1" d="M512.53,157V175.6c0,.72-.46,1.09-1.39,1.09s-1.39-.37-1.39-1.09V157c0-.75.46-1.12,1.39-1.12S512.53,156.29,512.53,157Z"/><path class="cls-1" d="M517,169.32a19.51,19.51,0,0,1,.34-4,4.33,4.33,0,0,1,3.3-3.57,17.65,17.65,0,0,1,6.48,0,4.41,4.41,0,0,1,2.09,1.18,4.82,4.82,0,0,1,1.23,2.39,19.3,19.3,0,0,1,.34,4,19.06,19.06,0,0,1-.34,4,4.34,4.34,0,0,1-1.24,2.3,4.6,4.6,0,0,1-2.08,1.07,15.4,15.4,0,0,1-3.24.27,16.22,16.22,0,0,1-3.24-.26,4.5,4.5,0,0,1-2.09-1.07,4.16,4.16,0,0,1-1.22-2.32A19,19,0,0,1,517,169.32Zm3.12-3.55a8,8,0,0,0-.33,2.77c0,1.32,0,2.37.1,3.15a3.82,3.82,0,0,0,.79,2,2.39,2.39,0,0,0,1.81.63c.3,0,.77,0,1.39,0,1.81,0,2.88-.22,3.2-.66a4,4,0,0,0,.81-2c.07-.75.1-1.54.1-2.35,0-2.4-.23-3.86-.68-4.37a3.66,3.66,0,0,0-.53-.56,3.6,3.6,0,0,0-2.17-.43q-1.68,0-2.13,0c-1,.06-1.55.28-1.8.64A7.3,7.3,0,0,0,520.1,165.77Z"/><path class="cls-1" d="M545.66,160c0-.66.47-1,1.4-1s1.39.34,1.39,1v6.56q0,2.92-1.47,3.84a9.52,9.52,0,0,1-4.88.93,22.78,22.78,0,0,1-4.55-.29v2.39h5.66c2.11,0,3.55.37,4.3,1.11a5.08,5.08,0,0,1,1.12,3.71c0,1.74-.5,2.93-1.51,3.58s-2.8,1-5.37,1-4.37-.29-5.41-.88-1.56-1.77-1.57-3.58V166.15a5.16,5.16,0,0,1,.86-3.39,4.72,4.72,0,0,1,3.28-1.18,26.12,26.12,0,0,1,6.75.32Zm-8.11,6.53c0,1.11.22,1.79.62,2a7.37,7.37,0,0,0,3,.36,13.72,13.72,0,0,0,3.22-.25,1.5,1.5,0,0,0,1.07-.76,4.73,4.73,0,0,0,.21-1.68v-1.84a33.92,33.92,0,0,0-4.42-.32,6.42,6.42,0,0,0-2.86.46,2,2,0,0,0-.83,1.89Zm0,9.39v2.56a1.5,1.5,0,0,0,1,1.47,9,9,0,0,0,3.28.43,6.72,6.72,0,0,0,3-.46,1.86,1.86,0,0,0,.78-1.76,1.91,1.91,0,0,0-.74-1.77,5.49,5.49,0,0,0-2.73-.47Z"/><path class="cls-1" d="M552.28,158.08a1.47,1.47,0,0,1,.45-1.07,1.54,1.54,0,0,1,1.06-.47,1.47,1.47,0,0,1,1.08.47,1.6,1.6,0,0,1,.44,1.09,1.56,1.56,0,0,1-1.52,1.51,1.47,1.47,0,0,1-1.07-.45A1.5,1.5,0,0,1,552.28,158.08Zm2.91,4.68V175.6c0,.72-.47,1.09-1.4,1.09s-1.39-.37-1.39-1.09V162.76c0-.72.47-1.09,1.39-1.09S555.19,162,555.19,162.76Z"/><path class="cls-1" d="M567.48,171v.29c0,.77-.46,1.15-1.39,1.15s-1.39-.39-1.4-1.15v-.32a6.64,6.64,0,0,1,.44-2.52,3.51,3.51,0,0,1,1.07-1.56,15.54,15.54,0,0,1,2.83-1.75,2.47,2.47,0,0,0,1.46-2.32c0-1.36-.22-2.21-.68-2.55a4.88,4.88,0,0,0-2.73-.52,34.37,34.37,0,0,0-3.8.2c-1.16.13-1.92.2-2.27.2-.65,0-1-.39-1-1.15a1.27,1.27,0,0,1,1-1.4,25.34,25.34,0,0,1,5.45-.39q3.93,0,5.37,1.17c1,.77,1.45,2.29,1.46,4.54a6.6,6.6,0,0,1-.42,2.47,2.86,2.86,0,0,1-1.06,1.39q-.63.39-1.35.75c-.49.25-.94.45-1.36.63a2.49,2.49,0,0,0-1.13,1A3.25,3.25,0,0,0,567.48,171Zm-3.09,4.24a1.86,1.86,0,0,1,.48-1.29,1.63,1.63,0,0,1,1.21-.53,1.9,1.9,0,0,1,1.29.53,1.7,1.7,0,0,1,.58,1.27,1.63,1.63,0,0,1-.58,1.26,2,2,0,0,1-1.31.5,1.63,1.63,0,0,1-1.2-.48A1.76,1.76,0,0,1,564.39,175.19Z"/></svg>