<svg id="Layer_1" data-name="Layer 1" xmlns="http://www.w3.org/2000/svg" viewBox="0 0 980 300"><defs><style>.cls-1{fill:#fff;}</style></defs><title>text</title><path class="cls-1" d="M128.84,139H117.49c-.93,0-1.39-.36-1.39-1.09V120c0-.74.46-1.12,1.39-1.12s1.39.38,1.39,1.12v16.49h10c.64,0,.95.42.95,1.27S129.48,139,128.84,139Z"/><path class="cls-1" d="M144.1,136.34c.63,0,1,.38,1,1.15a1.26,1.26,0,0,1-1,1.39,24.37,24.37,0,0,1-5,.36q-3.54,0-5.07-1.15a4.56,4.56,0,0,1-1.55-3.86v-5.67c0-1.9.47-3.18,1.4-3.83s2.66-1,5.19-1,4.24.31,5.13.94,1.33,1.92,1.33,3.88V131a1.74,1.74,0,0,1-.41,1.18,1.36,1.36,0,0,1-1.05.42h-8.8v1.82q0,2.28,4,2.27a22.86,22.86,0,0,0,3-.18A16.44,16.44,0,0,1,144.1,136.34Zm-8.87-7.78v1.6h7.48v-1.6a2,2,0,0,0-.76-1.8,6.17,6.17,0,0,0-2.95-.48,6.66,6.66,0,0,0-3,.45A2,2,0,0,0,135.23,128.56Z"/><path class="cls-1" d="M158.42,134.44v-.35a1.14,1.14,0,0,0-.73-1.07,6.36,6.36,0,0,0-2.53-.33,15.47,15.47,0,0,1-4-.56,3.32,3.32,0,0,1-1.82-1.23,4,4,0,0,1-.72-2.49v-.25c0-1.73.51-2.89,1.55-3.49a9.81,9.81,0,0,1,4.76-.9,20,20,0,0,1,4.72.41,1.25,1.25,0,0,1,1,1.39c0,.77-.31,1.15-1,1.15a17.85,17.85,0,0,1-1.95-.19,21.78,21.78,0,0,0-3.11-.22,7.87,7.87,0,0,0-2.42.28c-.51.18-.77.69-.77,1.53v.28c0,1.1,1.15,1.69,3.45,1.76,1,0,1.92.12,2.89.24a4.34,4.34,0,0,1,2.45,1.08,3.16,3.16,0,0,1,1,2.58v.38c0,1.86-.52,3.13-1.57,3.8a9.75,9.75,0,0,1-5.07,1,22.48,22.48,0,0,1-5-.39,1.26,1.26,0,0,1-1-1.39c0-.77.32-1.15,1-1.15.37,0,1.1.06,2.19.19a26.88,26.88,0,0,0,3.18.2,6.45,6.45,0,0,0,2.53-.42A1.77,1.77,0,0,0,158.42,134.44Z"/><path class="cls-1" d="M172.63,120.4a1.44,1.44,0,0,1,.46-1.08,1.51,1.51,0,0,1,1.06-.47,1.45,1.45,0,0,1,1.07.47,1.61,1.61,0,0,1,.44,1.09,1.44,1.44,0,0,1-.45,1.06,1.51,1.51,0,0,1-2.58-1.07Zm2.91,4.67v12.84c0,.73-.47,1.09-1.39,1.09s-1.4-.36-1.4-1.09V125.07c0-.72.47-1.09,1.4-1.09S175.54,124.35,175.54,125.07Z"/><path class="cls-1" d="M183.41,126.82c-.34.35-.52,1.47-.52,3.35v7.74c0,.73-.46,1.09-1.38,1.09s-1.39-.36-1.4-1.09v-8.08a15.83,15.83,0,0,1,.27-3.33,2.94,2.94,0,0,1,1.09-1.82,4.13,4.13,0,0,1,1.91-.77,28.8,28.8,0,0,1,3.43-.17c2.61,0,4.25.31,4.94,1a4,4,0,0,1,1.21,2.72,23.16,23.16,0,0,1,.11,2.41v8.08c0,.73-.47,1.09-1.4,1.09s-1.39-.36-1.39-1.09v-7.74c0-1.86-.18-3-.53-3.34s-1.42-.55-3.19-.55S183.75,126.46,183.41,126.82Z"/><path class="cls-1" d="M202.59,139a3.89,3.89,0,0,1-3-.91,4.54,4.54,0,0,1-.84-3.11v-8.53h-2c-.63,0-.94-.41-.94-1.22s.31-1.23.94-1.23h2v-3.94c0-.73.47-1.09,1.4-1.09s1.39.36,1.39,1.09V124h3.95c.62,0,.94.41.94,1.23s-.32,1.22-.94,1.22h-3.95v8.74c0,.84.5,1.27,1.51,1.27l2.64-.15q1,0,1,1.11a1.44,1.44,0,0,1-1,1.49Q204.71,139,202.59,139Z"/><path class="cls-1" d="M221.1,136.34c.64,0,1,.38,1,1.15a1.25,1.25,0,0,1-1,1.39,24.37,24.37,0,0,1-5,.36q-3.54,0-5.07-1.15a4.56,4.56,0,0,1-1.55-3.86v-5.67c0-1.9.47-3.18,1.4-3.83s2.66-1,5.19-1,4.24.31,5.13.94,1.33,1.92,1.33,3.88V131a1.69,1.69,0,0,1-.41,1.18,1.36,1.36,0,0,1-1.05.42h-8.8v1.82q0,2.28,4,2.27a22.86,22.86,0,0,0,3-.18A16.44,16.44,0,0,1,221.1,136.34Zm-8.87-7.78v1.6h7.48v-1.6a2,2,0,0,0-.76-1.8,6.17,6.17,0,0,0-2.95-.48,6.69,6.69,0,0,0-3,.45A2,2,0,0,0,212.23,128.56Z"/><path class="cls-1" d="M229.46,130.19v7.72c0,.73-.47,1.09-1.39,1.09s-1.39-.36-1.4-1.09v-8.08a9.56,9.56,0,0,1,.5-3.86,5.16,5.16,0,0,1,.91-1.32c.67-.61,2.33-.91,5-.91a8.74,8.74,0,0,1,2.7.27,1,1,0,0,1,.68,1,1.44,1.44,0,0,1-.38,1.07,1.3,1.3,0,0,1-.95.35l-2.05-.14a9.11,9.11,0,0,0-2.37.19,2.1,2.1,0,0,0-.7.35,2.4,2.4,0,0,0-.33.7,3.62,3.62,0,0,0-.2,1.08C229.46,129,229.46,129.51,229.46,130.19Z"/><path class="cls-1" d="M244.49,139.15a2.41,2.41,0,0,1-1.49-.5,2.9,2.9,0,0,1-.94-1.25l-4.39-11.83c-.06-.31-.09-.48-.1-.5,0-.72.45-1.08,1.35-1.07a1.3,1.3,0,0,1,1.36.8l4.15,11.66h.15l4.16-11.66c.2-.53.7-.8,1.5-.8s1.19.36,1.19,1.07c0,0,0,.19-.09.5l-4.4,11.83a2.64,2.64,0,0,1-.94,1.27A2.52,2.52,0,0,1,244.49,139.15Z"/><path class="cls-1" d="M253.48,145h-1.09c-.64,0-1-.42-1-1.27s.32-1.27,1-1.27h1.06a1.36,1.36,0,0,0,.9-.32,1.13,1.13,0,0,0,.43-1V125c0-.72.46-1.09,1.39-1.09s1.39.37,1.39,1.09v16a4.68,4.68,0,0,1-.81,3.11C256.2,144.72,255.11,145,253.48,145Zm1.18-24.64a1.47,1.47,0,0,1,.45-1.08,1.52,1.52,0,0,1,1.06-.47,1.47,1.47,0,0,1,1.08.47,1.61,1.61,0,0,1,.44,1.09,1.45,1.45,0,0,1-.46,1.06,1.51,1.51,0,0,1-2.57-1.07Z"/><path class="cls-1" d="M267,136.68l1.45,0,1.44,0a3.71,3.71,0,0,0,1-.16,1.89,1.89,0,0,0,.79-.47,2,2,0,0,0,.33-1.25c0-.61,0-1.28,0-2v-7.73c0-.73.47-1.1,1.4-1.1s1.39.37,1.39,1.09v8.1a17.85,17.85,0,0,1-.24,3.35,3,3,0,0,1-1.08,1.8,4,4,0,0,1-1.88.77,33.47,33.47,0,0,1-6.33,0,4,4,0,0,1-1.87-.77,2.94,2.94,0,0,1-1.06-1.8,18.58,18.58,0,0,1-.25-3.35v-8.1c0-.72.47-1.09,1.4-1.09s1.38.37,1.38,1.1v7.73c0,1.89.17,3,.5,3.37a1.53,1.53,0,0,0,.65.34A3.71,3.71,0,0,0,267,136.68Z"/><path class="cls-1" d="M286.49,131.63a18.73,18.73,0,0,1,.34-4,4.33,4.33,0,0,1,3.3-3.58,14.14,14.14,0,0,1,3.24-.3,14,14,0,0,1,3.23.3,4.48,4.48,0,0,1,2.1,1.18,5,5,0,0,1,1.23,2.39,19.3,19.3,0,0,1,.34,4,19.06,19.06,0,0,1-.34,4,4.31,4.31,0,0,1-1.24,2.3A4.59,4.59,0,0,1,296.6,139a15.23,15.23,0,0,1-3.23.27,15.5,15.5,0,0,1-3.24-.26,4.5,4.5,0,0,1-2.09-1.07,4.16,4.16,0,0,1-1.22-2.32A18.91,18.91,0,0,1,286.49,131.63Zm3.12-3.55a8,8,0,0,0-.34,2.77c0,1.32,0,2.37.11,3.15a3.68,3.68,0,0,0,.79,2,2.39,2.39,0,0,0,1.81.63c.3,0,.77,0,1.39,0,1.81,0,2.88-.22,3.2-.66a4,4,0,0,0,.8-2c.07-.75.11-1.53.11-2.35,0-2.4-.23-3.86-.68-4.37a3.66,3.66,0,0,0-.53-.56,3.69,3.69,0,0,0-2.17-.43c-1.12,0-1.83,0-2.14,0-.94.07-1.54.28-1.79.64A7.3,7.3,0,0,0,289.61,128.08Z"/><path class="cls-1" d="M319.84,126.28a17.73,17.73,0,0,0-1.8.07,1.65,1.65,0,0,0-1,.45,1.58,1.58,0,0,0-.5,1,18.32,18.32,0,0,0-.08,2v8.11c0,.73-.46,1.09-1.39,1.09s-1.39-.36-1.39-1.09V129.4c0-1.43-.19-2.31-.56-2.63a3.85,3.85,0,0,0-2.33-.49c-1.17,0-1.93,0-2.29.07a1.46,1.46,0,0,0-.95.5,1.81,1.81,0,0,0-.46,1.12c0,.45-.06,1.19-.06,2.2v7.74c0,.73-.46,1.09-1.38,1.09s-1.39-.36-1.4-1.09v-8.08a10,10,0,0,1,.71-4.47,3.37,3.37,0,0,1,2.92-1.51c.57-.06,1.4-.1,2.48-.11q3.6,0,4.71.87,1.09-.85,4.71-.87,1.59,0,2.46.09c1.51.17,2.47.65,2.89,1.44a10.16,10.16,0,0,1,.76,4.56v8.08c0,.73-.46,1.09-1.39,1.09s-1.39-.36-1.39-1.09v-7.74c0-1,0-1.75-.08-2.2a1.86,1.86,0,0,0-.45-1.12,1.48,1.48,0,0,0-1-.5A18,18,0,0,0,319.84,126.28Z"/><path class="cls-1" d="M128.75,156.55v12.28a18.91,18.91,0,0,1-.33,4,4.23,4.23,0,0,1-1.23,2.3,4.42,4.42,0,0,1-2,1.08,15.12,15.12,0,0,1-3.22.27,15.67,15.67,0,0,1-3.25-.26,4.54,4.54,0,0,1-2.09-1.07,4.22,4.22,0,0,1-1.22-2.32,21.34,21.34,0,0,1-.32-4,18.73,18.73,0,0,1,.34-4,4.34,4.34,0,0,1,3.29-3.58,16.09,16.09,0,0,1,3.58-.3,9.22,9.22,0,0,1,3.72.62v-5c0-.74.46-1.12,1.39-1.12S128.75,155.81,128.75,156.55Zm-10.6,8.73a8,8,0,0,0-.33,2.77c0,1.32,0,2.37.11,3.15a3.75,3.75,0,0,0,.78,2,2.44,2.44,0,0,0,1.82.63c.3,0,.76,0,1.39,0,1.81,0,2.88-.22,3.2-.66a4.08,4.08,0,0,0,.8-2.05c.07-.75.11-1.53.11-2.35,0-2.4-.23-3.86-.68-4.37a4.22,4.22,0,0,0-.53-.56,3.73,3.73,0,0,0-2.18-.43c-1.12,0-1.83,0-2.13,0q-1.42.09-1.8.63A8.35,8.35,0,0,0,118.15,165.28Z"/><path class="cls-1" d="M134.55,163.89c-.65,0-1-.38-1-1.15a1.25,1.25,0,0,1,1-1.39,21.64,21.64,0,0,1,5-.41c2.34,0,3.93.38,4.76,1.12s1.25,2.05,1.25,3.91v6c0,1.86-.45,3.08-1.36,3.64s-2.65.85-5.22.85-4.29-.28-5.17-.85-1.31-1.77-1.31-3.63.33-3.13,1-3.83,2.06-1,4.14-1h5.14v-1.61a1.74,1.74,0,0,0-.71-1.57,5.32,5.32,0,0,0-2.53-.43,20.62,20.62,0,0,0-3.17.22A11.58,11.58,0,0,1,134.55,163.89Zm8.25,8.28v-2.63h-4.31a5.52,5.52,0,0,0-2.6.39c-.39.27-.59.86-.59,1.79s.25,1.54.74,1.8a7.73,7.73,0,0,0,3,.38,9,9,0,0,0,3-.33A1.39,1.39,0,0,0,142.8,172.17Z"/><path class="cls-1" d="M155.06,176.2a3.89,3.89,0,0,1-2.95-.91,4.54,4.54,0,0,1-.84-3.11v-8.53h-2c-.63,0-.94-.41-.94-1.22s.31-1.23.94-1.23h2v-3.94c0-.72.47-1.09,1.4-1.09s1.39.37,1.39,1.09v3.94H158c.62,0,.94.41.94,1.23s-.32,1.22-.94,1.22h-3.95v8.74c0,.84.5,1.27,1.51,1.27l2.64-.15c.64,0,1,.37,1,1.12a1.44,1.44,0,0,1-1,1.48Q157.17,176.2,155.06,176.2Z"/><path class="cls-1" d="M163.64,163.89c-.65,0-1-.38-1-1.15a1.25,1.25,0,0,1,1-1.39,21.68,21.68,0,0,1,5-.41c2.34,0,3.92.38,4.75,1.12s1.26,2.05,1.26,3.91v6c0,1.86-.46,3.08-1.37,3.64s-2.64.85-5.21.85-4.3-.28-5.17-.85-1.32-1.77-1.32-3.63.34-3.13,1-3.83,2-1,4.13-1h5.14v-1.61a1.74,1.74,0,0,0-.71-1.57,5.32,5.32,0,0,0-2.53-.43,20.49,20.49,0,0,0-3.16.22A11.77,11.77,0,0,1,163.64,163.89Zm8.25,8.28v-2.63h-4.31a5.47,5.47,0,0,0-2.59.39c-.4.27-.59.86-.59,1.79s.24,1.54.74,1.8a7.63,7.63,0,0,0,3,.38,8.92,8.92,0,0,0,3-.33A1.39,1.39,0,0,0,171.89,172.17Z"/><path class="cls-1" d="M180.56,163.89c-.64,0-1-.38-1-1.15a1.26,1.26,0,0,1,1-1.39,21.74,21.74,0,0,1,5-.41c2.34,0,3.92.38,4.75,1.12s1.26,2.05,1.26,3.91v6c0,1.86-.46,3.08-1.36,3.64s-2.65.85-5.22.85-4.29-.28-5.17-.85-1.31-1.77-1.31-3.63.33-3.13,1-3.83,2.06-1,4.13-1h5.14v-1.61a1.71,1.71,0,0,0-.71-1.57,5.3,5.3,0,0,0-2.53-.43,20.49,20.49,0,0,0-3.16.22A11.67,11.67,0,0,1,180.56,163.89Zm8.25,8.28v-2.63h-4.3a5.49,5.49,0,0,0-2.6.39c-.39.27-.59.86-.59,1.79s.25,1.54.74,1.8a7.63,7.63,0,0,0,3,.38,8.92,8.92,0,0,0,3-.33A1.38,1.38,0,0,0,188.81,172.17Z"/><path class="cls-1" d="M199.18,164c-.34.35-.51,1.47-.51,3.35v7.74c0,.73-.46,1.09-1.39,1.09s-1.39-.36-1.4-1.09V167a15.83,15.83,0,0,1,.27-3.33,3,3,0,0,1,1.09-1.82,4.13,4.13,0,0,1,1.91-.77,28.87,28.87,0,0,1,3.44-.17c2.6,0,4.25.31,4.93,1a4,4,0,0,1,1.21,2.72,23.16,23.16,0,0,1,.11,2.41v8.08c0,.73-.47,1.09-1.39,1.09s-1.4-.36-1.4-1.09v-7.74c0-1.86-.17-3-.53-3.34s-1.41-.55-3.18-.55S199.53,163.66,199.18,164Z"/><path class="cls-1" d="M224.07,159.48c0-.66.46-1,1.39-1s1.39.34,1.39,1v6.56q0,2.93-1.47,3.84a9.52,9.52,0,0,1-4.88.93,22.78,22.78,0,0,1-4.55-.29V173h5.66c2.11,0,3.55.36,4.3,1.1a5.09,5.09,0,0,1,1.12,3.72c0,1.73-.5,2.92-1.51,3.57s-2.8,1-5.37,1-4.37-.29-5.41-.87-1.56-1.77-1.57-3.59V165.66a5.16,5.16,0,0,1,.86-3.39,4.72,4.72,0,0,1,3.28-1.18,26.22,26.22,0,0,1,6.76.32ZM216,166c0,1.12.22,1.79.62,2a7.67,7.67,0,0,0,3,.35,13.12,13.12,0,0,0,3.22-.25,1.52,1.52,0,0,0,1.07-.75,4.53,4.53,0,0,0,.22-1.68v-1.85a34,34,0,0,0-4.43-.31,6.45,6.45,0,0,0-2.86.45,2,2,0,0,0-.83,1.89Zm0,9.39V178a1.49,1.49,0,0,0,1,1.47,9,9,0,0,0,3.28.43,6.72,6.72,0,0,0,3.05-.46,1.86,1.86,0,0,0,.79-1.76,1.93,1.93,0,0,0-.75-1.77,5.6,5.6,0,0,0-2.73-.47Z"/><path class="cls-1" d="M233.33,167.39v7.72c0,.73-.46,1.09-1.39,1.09s-1.39-.36-1.4-1.09V167a9.56,9.56,0,0,1,.5-3.86,5.15,5.15,0,0,1,.92-1.32c.66-.61,2.33-.91,5-.91a8.62,8.62,0,0,1,2.69.27,1,1,0,0,1,.68,1,1.4,1.4,0,0,1-.38,1.07,1.3,1.3,0,0,1-.95.35l-2-.14a9.21,9.21,0,0,0-2.38.19,1.22,1.22,0,0,0-1,1.05,3.32,3.32,0,0,0-.19,1.08C233.33,166.18,233.33,166.71,233.33,167.39Z"/><path class="cls-1" d="M254.22,173.54c.63,0,.95.38.95,1.15a1.26,1.26,0,0,1-.95,1.39,24.37,24.37,0,0,1-5,.36q-3.54,0-5.07-1.15a4.56,4.56,0,0,1-1.55-3.86v-5.67c0-1.9.47-3.18,1.4-3.83s2.65-1,5.19-1,4.24.31,5.13.94,1.33,1.92,1.33,3.88v2.45a1.74,1.74,0,0,1-.41,1.18,1.36,1.36,0,0,1-1,.42h-8.8v1.82q0,2.28,4,2.27a22.86,22.86,0,0,0,3-.18A16.24,16.24,0,0,1,254.22,173.54Zm-8.87-7.78v1.6h7.48v-1.6a2,2,0,0,0-.76-1.8,6.17,6.17,0,0,0-2.95-.48,6.66,6.66,0,0,0-3,.45A2,2,0,0,0,245.35,165.76Z"/><path class="cls-1" d="M259.79,181.16V168.57a17.63,17.63,0,0,1,.35-4,4.21,4.21,0,0,1,3.27-3.39,15.16,15.16,0,0,1,3.23-.27,15.5,15.5,0,0,1,3.25.27,4.69,4.69,0,0,1,2.1,1.08,4.22,4.22,0,0,1,1.22,2.31,20.86,20.86,0,0,1,.31,4,18.58,18.58,0,0,1-.35,4,4.29,4.29,0,0,1-3.28,3.57,16.92,16.92,0,0,1-3.58.28,9.51,9.51,0,0,1-3.74-.6v5.33q0,1.08-1.38,1.08C260.27,182.25,259.8,181.89,259.79,181.16Zm10.61-9a8,8,0,0,0,.33-2.78c0-1.33,0-2.38-.1-3.16a4,4,0,0,0-.78-2.06q-.48-.66-3.21-.66c-1.82,0-2.89.22-3.22.66a4,4,0,0,0-.8,2.09c-.07.76-.11,1.54-.11,2.34s0,1.48.08,2,.11,1,.18,1.4a2.69,2.69,0,0,0,1,1.53,1.94,1.94,0,0,0,1.24.38l1.74,0q.89,0,1.32,0a6.36,6.36,0,0,0,1-.17,1.28,1.28,0,0,0,.8-.47A9,9,0,0,0,270.4,172.14Z"/><path class="cls-1" d="M289.11,173.54c.63,0,.95.38.95,1.15a1.26,1.26,0,0,1-.95,1.39,24.37,24.37,0,0,1-5,.36q-3.54,0-5.07-1.15a4.56,4.56,0,0,1-1.55-3.86v-5.67c0-1.9.47-3.18,1.4-3.83s2.66-1,5.19-1,4.24.31,5.13.94,1.33,1.92,1.33,3.88v2.45a1.74,1.74,0,0,1-.41,1.18,1.36,1.36,0,0,1-1,.42h-8.8v1.82q0,2.28,4,2.27a22.86,22.86,0,0,0,3-.18A16.44,16.44,0,0,1,289.11,173.54Zm-8.87-7.78v1.6h7.48v-1.6A2,2,0,0,0,287,164a6.17,6.17,0,0,0-2.95-.48,6.69,6.69,0,0,0-3,.45A2,2,0,0,0,280.24,165.76Z"/><path class="cls-1" d="M299.87,176.2a3.89,3.89,0,0,1-2.95-.91,4.54,4.54,0,0,1-.83-3.11v-8.53h-2c-.62,0-.93-.41-.93-1.22s.31-1.23.93-1.23h2v-3.94c0-.72.46-1.09,1.39-1.09s1.39.37,1.39,1.09v3.94h3.95c.63,0,.94.41.94,1.23s-.31,1.22-.94,1.22h-3.95v8.74c0,.84.51,1.27,1.52,1.27l2.63-.15c.64,0,1,.37,1,1.12a1.44,1.44,0,0,1-1,1.48Q302,176.2,299.87,176.2Z"/><path class="cls-1" d="M329.84,163.48a17.73,17.73,0,0,0-1.8.07,1.68,1.68,0,0,0-1,.45,1.63,1.63,0,0,0-.5,1,19,19,0,0,0-.07,2v8.11c0,.73-.47,1.09-1.4,1.09s-1.39-.36-1.39-1.09V166.6c0-1.43-.19-2.31-.56-2.63a3.82,3.82,0,0,0-2.32-.49c-1.17,0-1.94,0-2.29.07a1.46,1.46,0,0,0-1,.5,1.86,1.86,0,0,0-.45,1.12c0,.45-.06,1.19-.06,2.2v7.74c0,.73-.47,1.09-1.39,1.09s-1.39-.36-1.4-1.09V167a10.18,10.18,0,0,1,.71-4.47,3.38,3.38,0,0,1,2.92-1.51c.58-.06,1.41-.1,2.49-.11,2.4,0,4,.29,4.7.87q1.09-.85,4.71-.87c1.06,0,1.88,0,2.47.09,1.5.17,2.47.65,2.89,1.44a10.3,10.3,0,0,1,.76,4.56v8.08c0,.73-.47,1.09-1.4,1.09s-1.39-.36-1.39-1.09v-7.74c0-1,0-1.75-.07-2.2a1.87,1.87,0,0,0-.46-1.12,1.46,1.46,0,0,0-.95-.5A18.21,18.21,0,0,0,329.84,163.48Z"/><path class="cls-1" d="M340.13,168.83a18.64,18.64,0,0,1,.35-4,4.32,4.32,0,0,1,3.29-3.58,17.65,17.65,0,0,1,6.48,0,4.48,4.48,0,0,1,2.1,1.18,4.85,4.85,0,0,1,1.22,2.39,18.63,18.63,0,0,1,.34,4,18.4,18.4,0,0,1-.34,4,4.24,4.24,0,0,1-1.24,2.3,4.55,4.55,0,0,1-2.08,1.07,19.94,19.94,0,0,1-6.48,0,4.5,4.5,0,0,1-2.09-1.07,4.22,4.22,0,0,1-1.22-2.32A18.91,18.91,0,0,1,340.13,168.83Zm3.12-3.55a8,8,0,0,0-.33,2.77c0,1.32,0,2.37.11,3.15a3.75,3.75,0,0,0,.78,2,2.41,2.41,0,0,0,1.81.63c.31,0,.77,0,1.39,0q2.73,0,3.21-.66a4.08,4.08,0,0,0,.8-2.05c.07-.75.1-1.53.1-2.35,0-2.4-.22-3.86-.68-4.37a3.66,3.66,0,0,0-.52-.56,3.73,3.73,0,0,0-2.18-.43c-1.12,0-1.83,0-2.13,0q-1.42.09-1.8.63A7.3,7.3,0,0,0,343.25,165.28Z"/><path class="cls-1" d="M363.12,176.2a3.91,3.91,0,0,1-3-.91,4.6,4.6,0,0,1-.83-3.11v-8.53h-2c-.62,0-.93-.41-.93-1.22s.31-1.23.93-1.23h2v-3.94c0-.72.46-1.09,1.39-1.09s1.39.37,1.39,1.09v3.94h3.95c.63,0,.94.41.94,1.23s-.31,1.22-.94,1.22h-3.95v8.74c0,.84.51,1.27,1.52,1.27l2.63-.15c.65,0,1,.37,1,1.12a1.43,1.43,0,0,1-1,1.48C365.56,176.17,364.53,176.2,363.12,176.2Z"/><path class="cls-1" d="M392.92,173.22V157.17c0-.74.46-1.12,1.39-1.12s1.39.38,1.39,1.12v16.37a2.73,2.73,0,0,1-.76,2.1,2.56,2.56,0,0,1-1.78.71,2.69,2.69,0,0,1-1.63-.45,4.27,4.27,0,0,1-1.12-1.3l-9-15.58h-.15v16.06c0,.75-.47,1.12-1.4,1.12s-1.39-.37-1.39-1.12V158.72a2.79,2.79,0,0,1,.75-2.11,2.46,2.46,0,0,1,1.76-.71,2.77,2.77,0,0,1,1.64.47,4.51,4.51,0,0,1,1.11,1.29l9,15.56Z"/><path class="cls-1" d="M400.8,168.83a18.64,18.64,0,0,1,.35-4,4.31,4.31,0,0,1,3.29-3.58,17.65,17.65,0,0,1,6.48,0,4.58,4.58,0,0,1,2.1,1.18,4.85,4.85,0,0,1,1.22,2.39,19.3,19.3,0,0,1,.34,4,19.06,19.06,0,0,1-.34,4,4.24,4.24,0,0,1-1.24,2.3,4.6,4.6,0,0,1-2.08,1.07,19.94,19.94,0,0,1-6.48,0,4.5,4.5,0,0,1-2.09-1.07,4.16,4.16,0,0,1-1.22-2.32A18.91,18.91,0,0,1,400.8,168.83Zm3.12-3.55a8,8,0,0,0-.33,2.77c0,1.32,0,2.37.1,3.15a3.76,3.76,0,0,0,.79,2,2.41,2.41,0,0,0,1.81.63c.3,0,.77,0,1.39,0,1.82,0,2.88-.22,3.21-.66a4.08,4.08,0,0,0,.8-2.05c.07-.75.1-1.53.1-2.35,0-2.4-.23-3.86-.68-4.37a2.48,2.48,0,0,0-2.7-1c-1.12,0-1.83,0-2.13,0q-1.42.09-1.8.63A7.3,7.3,0,0,0,403.92,165.28Z"/><path class="cls-1" d="M421.37,167.39v7.72c0,.73-.46,1.09-1.38,1.09s-1.39-.36-1.4-1.09V167a9.38,9.38,0,0,1,.5-3.86,5.16,5.16,0,0,1,.91-1.32c.67-.61,2.33-.91,5-.91a8.74,8.74,0,0,1,2.7.27,1,1,0,0,1,.68,1,1.44,1.44,0,0,1-.38,1.07,1.3,1.3,0,0,1-.95.35l-2.05-.14a9.11,9.11,0,0,0-2.37.19,2.1,2.1,0,0,0-.7.35,2.4,2.4,0,0,0-.33.7,3.62,3.62,0,0,0-.2,1.08C421.38,166.18,421.37,166.71,421.37,167.39Z"/><path class="cls-1" d="M440.1,171.65v-.36a1.15,1.15,0,0,0-.73-1.07,6.36,6.36,0,0,0-2.53-.33,15.47,15.47,0,0,1-4-.56A3.28,3.28,0,0,1,431,168.1a4,4,0,0,1-.73-2.49v-.25c0-1.73.52-2.89,1.56-3.49a9.81,9.81,0,0,1,4.76-.9,20,20,0,0,1,4.72.41,1.26,1.26,0,0,1,1,1.39c0,.77-.32,1.15-1,1.15a17.63,17.63,0,0,1-1.95-.19,21.83,21.83,0,0,0-3.11-.21,7.94,7.94,0,0,0-2.42.27c-.51.18-.77.69-.77,1.53v.28c0,1.1,1.15,1.69,3.45,1.76,1,0,1.92.12,2.89.24a4.34,4.34,0,0,1,2.45,1.08,3.18,3.18,0,0,1,1,2.59v.37c0,1.86-.52,3.13-1.57,3.8a9.75,9.75,0,0,1-5.07,1,22.48,22.48,0,0,1-5-.39,1.26,1.26,0,0,1-1-1.39c0-.77.32-1.15,1-1.15.37,0,1.1.06,2.19.19a26.88,26.88,0,0,0,3.18.2,6.45,6.45,0,0,0,2.53-.42A1.78,1.78,0,0,0,440.1,171.65Z"/><path class="cls-1" d="M449.5,156.55v12l6.93-7a1.45,1.45,0,0,1,1-.47,1.3,1.3,0,0,1,1,.4,1.17,1.17,0,0,1,.39.9,1.39,1.39,0,0,1-.5,1l-4,3.73,4.93,6.88a1.66,1.66,0,0,1,.3.93,1.2,1.2,0,0,1-.43.91,1.5,1.5,0,0,1-1,.42,1,1,0,0,1-.91-.5L452.34,169l-2.84,2.63v3.53c0,.73-.46,1.09-1.39,1.09s-1.39-.36-1.4-1.09V156.55c0-.74.48-1.12,1.4-1.12S449.5,155.81,449.5,156.55Z"/><path class="cls-1" d="M485.72,157.17v17.94c0,.73-.48,1.09-1.4,1.09s-1.39-.36-1.39-1.09v-8.2H473.2v8.2c0,.73-.46,1.09-1.39,1.09s-1.39-.36-1.39-1.09V157.17c0-.74.46-1.12,1.39-1.12s1.39.38,1.39,1.12v7.19h9.73v-7.19c0-.74.47-1.12,1.39-1.12S485.71,156.43,485.72,157.17Z"/><path class="cls-1" d="M494.86,182.24c-.8,0-1.2-.36-1.21-1.08,0,0,0-.18.11-.49l1.66-4.47a2.61,2.61,0,0,1-1.51-1.6l-4.41-11.83c-.06-.31-.09-.48-.09-.5,0-.72.4-1.09,1.2-1.09s1.3.28,1.5.82l4.16,11.66h.15L500.57,162c.2-.53.7-.8,1.5-.8s1.19.36,1.19,1.07c0,0,0,.19-.09.5l-6.81,18.67C496.16,182,495.66,182.24,494.86,182.24Z"/><path class="cls-1" d="M519.61,156.55v12.28a18.91,18.91,0,0,1-.33,4,4.23,4.23,0,0,1-1.23,2.3,4.42,4.42,0,0,1-2,1.08,15.12,15.12,0,0,1-3.22.27,15.5,15.5,0,0,1-3.24-.26,4.53,4.53,0,0,1-2.1-1.07,4.22,4.22,0,0,1-1.22-2.32,21.34,21.34,0,0,1-.32-4,18.73,18.73,0,0,1,.34-4,4.33,4.33,0,0,1,3.3-3.58,15.93,15.93,0,0,1,3.57-.3,9.22,9.22,0,0,1,3.72.62v-5c0-.74.46-1.12,1.39-1.12S519.61,155.81,519.61,156.55ZM509,165.28a7.74,7.74,0,0,0-.34,2.77c0,1.32,0,2.37.11,3.15a3.75,3.75,0,0,0,.78,2,2.44,2.44,0,0,0,1.82.63c.3,0,.76,0,1.39,0,1.81,0,2.88-.22,3.2-.66a4.08,4.08,0,0,0,.8-2.05c.07-.75.11-1.53.11-2.35,0-2.4-.23-3.86-.68-4.37a3.66,3.66,0,0,0-.53-.56,3.71,3.71,0,0,0-2.18-.43c-1.12,0-1.83,0-2.13,0a2.38,2.38,0,0,0-1.8.63A7.47,7.47,0,0,0,509,165.28Z"/><path class="cls-1" d="M526.59,167.39v7.72c0,.73-.46,1.09-1.39,1.09s-1.39-.36-1.4-1.09V167a9.56,9.56,0,0,1,.5-3.86,5.15,5.15,0,0,1,.92-1.32c.66-.61,2.32-.91,5-.91a8.62,8.62,0,0,1,2.69.27,1,1,0,0,1,.68,1,1.4,1.4,0,0,1-.38,1.07,1.3,1.3,0,0,1-1,.35l-2-.14a9.15,9.15,0,0,0-2.38.19,2.22,2.22,0,0,0-.7.35,2.4,2.4,0,0,0-.33.7,3.62,3.62,0,0,0-.2,1.08C526.59,166.18,526.59,166.71,526.59,167.39Z"/><path class="cls-1" d="M534.9,168.83a18.73,18.73,0,0,1,.34-4,4.33,4.33,0,0,1,3.3-3.58,14.14,14.14,0,0,1,3.24-.3,14,14,0,0,1,3.23.3,4.48,4.48,0,0,1,2.1,1.18,5,5,0,0,1,1.23,2.39,19.4,19.4,0,0,1,.33,4,19.16,19.16,0,0,1-.33,4,4.31,4.31,0,0,1-1.24,2.3,4.64,4.64,0,0,1-2.09,1.07,15.23,15.23,0,0,1-3.23.27,15.5,15.5,0,0,1-3.24-.26,4.5,4.5,0,0,1-2.09-1.07,4.16,4.16,0,0,1-1.22-2.32A18.91,18.91,0,0,1,534.9,168.83Zm3.12-3.55a7.74,7.74,0,0,0-.34,2.77c0,1.32,0,2.37.11,3.15a3.68,3.68,0,0,0,.79,2,2.39,2.39,0,0,0,1.81.63c.3,0,.76,0,1.39,0,1.81,0,2.88-.22,3.2-.66a4,4,0,0,0,.8-2.05c.07-.75.11-1.53.11-2.35,0-2.4-.23-3.86-.68-4.37a3.66,3.66,0,0,0-.53-.56,3.71,3.71,0,0,0-2.18-.43c-1.11,0-1.82,0-2.13,0-.94.06-1.54.27-1.79.63A7.3,7.3,0,0,0,538,165.28Z"/></svg>