<svg id="Layer_1" data-name="Layer 1" xmlns="http://www.w3.org/2000/svg" viewBox="0 0 980 300"><defs><style>.cls-1{fill:#fff;}</style></defs><title>text</title><path class="cls-1" d="M326.21,100.73h14v2.59H329.32v7.62h9.18v2.63h-9.18v8.8h11.25V125H326.21Z"/><path class="cls-1" d="M345.34,107h2.52l.26,2.59h.11c1.7-1.71,3.55-3,6-3,3.77,0,5.47,2.45,5.47,7V125h-3V114c0-3.37-1-4.81-3.4-4.81-1.85,0-3.11,1-4.92,2.78v13h-3Z"/><path class="cls-1" d="M372.31,106.57c4.59,0,7.18,3.3,7.18,8.44a9.93,9.93,0,0,1-.11,1.66H367.24c.23,3.89,2.56,6.33,6,6.33a8.16,8.16,0,0,0,4.48-1.4l1.07,2a10.7,10.7,0,0,1-5.92,1.85c-4.81,0-8.62-3.51-8.62-9.39S368.21,106.57,372.31,106.57Zm4.52,8.11c0-3.67-1.63-5.7-4.44-5.7-2.52,0-4.81,2.07-5.18,5.7Z"/><path class="cls-1" d="M383.93,98.65h3V121.6c0,1,.4,1.33.85,1.33a2.34,2.34,0,0,0,.66-.08l.41,2.3a4.21,4.21,0,0,1-1.74.29c-2.29,0-3.22-1.44-3.22-4.07Z"/><path class="cls-1" d="M398.69,107h3.11l2.67,10.39c.4,1.71.74,3.33,1.07,5h.15c.4-1.67.77-3.33,1.22-5L409.68,107h3l2.82,10.39c.44,1.71.85,3.33,1.25,5h.15c.41-1.67.74-3.29,1.11-5L420.6,107h2.89l-4.81,18H415l-2.6-9.66c-.44-1.7-.77-3.36-1.22-5.18H411c-.41,1.82-.78,3.52-1.26,5.22L407.24,125h-3.55Z"/><path class="cls-1" d="M426.85,101.36a2.11,2.11,0,0,1,4.22,0,2.12,2.12,0,0,1-4.22,0Zm.56,5.66h3v18h-3Z"/><path class="cls-1" d="M436.51,98.65h3V121.6c0,1,.41,1.33.85,1.33a2.36,2.36,0,0,0,.67-.08l.41,2.3a4.21,4.21,0,0,1-1.74.29c-2.3,0-3.22-1.44-3.22-4.07Z"/><path class="cls-1" d="M445.94,98.65h3V121.6c0,1,.4,1.33.85,1.33a2.34,2.34,0,0,0,.66-.08l.41,2.3a4.18,4.18,0,0,1-1.74.29c-2.29,0-3.22-1.44-3.22-4.07Z"/><path class="cls-1" d="M462.59,107h3.07v11c0,3.36,1,4.81,3.37,4.81,1.85,0,3.14-.93,4.85-3V107h3v18H474.4l-.26-2.81H474c-1.66,2-3.44,3.25-5.92,3.25-3.81,0-5.51-2.44-5.51-7Z"/><path class="cls-1" d="M482.5,120.93a8.06,8.06,0,0,0,5.29,2.15c2.37,0,3.55-1.26,3.55-2.82,0-1.85-2.15-2.66-4.11-3.4-2.55-.93-5.36-2.15-5.36-5.18s2.29-5.11,6.18-5.11a9,9,0,0,1,5.58,2l-1.44,1.92a6.69,6.69,0,0,0-4.11-1.59c-2.25,0-3.29,1.22-3.29,2.59,0,1.67,2,2.33,4,3.11,2.59,1,5.47,2,5.47,5.44,0,2.92-2.33,5.36-6.58,5.36A10.79,10.79,0,0,1,481,123Z"/><path class="cls-1" d="M505.21,106.57c4.59,0,7.18,3.3,7.18,8.44a9.93,9.93,0,0,1-.11,1.66H500.14c.23,3.89,2.56,6.33,6,6.33a8.14,8.14,0,0,0,4.48-1.4l1.07,2a10.7,10.7,0,0,1-5.92,1.85c-4.81,0-8.62-3.51-8.62-9.39S501.11,106.57,505.21,106.57Zm4.52,8.11c0-3.67-1.63-5.7-4.44-5.7-2.52,0-4.81,2.07-5.18,5.7Z"/><path class="cls-1" d="M524.49,100.73H532c5.37,0,9,1.81,9,7.14,0,5.1-3.66,7.51-9,7.51H527.6V125h-3.11Zm7.07,12.13c4.25,0,6.29-1.55,6.29-5s-2.11-4.66-6.29-4.66h-4v9.65Z"/><path class="cls-1" d="M551.54,106.57c4.4,0,8.33,3.44,8.33,9.48s-3.93,9.39-8.33,9.39-8.33-3.44-8.33-9.39S547.13,106.57,551.54,106.57Zm0,16.36c3.11,0,5.18-2.78,5.18-6.88s-2.07-7-5.18-7-5.18,2.81-5.18,7S548.47,122.93,551.54,122.93Z"/><path class="cls-1" d="M562.3,107h3.11l2.67,10.39c.4,1.71.74,3.33,1.07,5h.15c.41-1.67.77-3.33,1.22-5L573.29,107h3l2.82,10.39c.44,1.71.85,3.33,1.25,5h.15c.41-1.67.74-3.29,1.11-5L584.21,107h2.89l-4.81,18h-3.7L576,115.34c-.45-1.7-.78-3.36-1.22-5.18h-.15c-.41,1.82-.78,3.52-1.26,5.22L570.85,125H567.3Z"/><path class="cls-1" d="M597.6,106.57c4.59,0,7.18,3.3,7.18,8.44a11.13,11.13,0,0,1-.11,1.66H592.53c.23,3.89,2.56,6.33,6,6.33a8.16,8.16,0,0,0,4.48-1.4l1.07,2a10.7,10.7,0,0,1-5.92,1.85c-4.81,0-8.62-3.51-8.62-9.39S593.5,106.57,597.6,106.57Zm4.52,8.11c0-3.67-1.63-5.7-4.44-5.7-2.52,0-4.81,2.07-5.18,5.7Z"/><path class="cls-1" d="M609.22,98.65h3V121.6c0,1,.41,1.33.86,1.33a2.34,2.34,0,0,0,.66-.08l.41,2.3a4.21,4.21,0,0,1-1.74.29c-2.3,0-3.22-1.44-3.22-4.07Z"/><path class="cls-1" d="M625.65,120.93a8.06,8.06,0,0,0,5.29,2.15c2.37,0,3.55-1.26,3.55-2.82,0-1.85-2.14-2.66-4.11-3.4-2.55-.93-5.36-2.15-5.36-5.18s2.29-5.11,6.18-5.11a9,9,0,0,1,5.59,2l-1.45,1.92a6.69,6.69,0,0,0-4.11-1.59c-2.25,0-3.29,1.22-3.29,2.59,0,1.67,2,2.33,4,3.11,2.59,1,5.47,2,5.47,5.44,0,2.92-2.33,5.36-6.58,5.36a10.81,10.81,0,0,1-6.7-2.48Z"/><path class="cls-1" d="M648.63,106.57c4.4,0,8.32,3.44,8.32,9.48s-3.92,9.39-8.32,9.39-8.33-3.44-8.33-9.39S644.22,106.57,648.63,106.57Zm0,16.36c3.1,0,5.17-2.78,5.17-6.88s-2.07-7-5.17-7-5.18,2.81-5.18,7S645.55,122.93,648.63,122.93Z"/><path class="cls-1" d="M680.15,124.78a11.2,11.2,0,0,1-3.33.66c-3.85,0-5.14-2.44-5.14-6v-10h-6.44V125h-3V109.5h-2.44v-2.3l2.44-.18v-2.85c0-3.67,1.67-6,5.26-6a8.25,8.25,0,0,1,3,.59l-.67,2.33a5.17,5.17,0,0,0-2-.44c-1.7,0-2.51,1.18-2.51,3.48V107h6.58l.37-5h2.52v5h4.88v2.48h-4.88v10c0,2.22.74,3.47,2.81,3.47a6.39,6.39,0,0,0,2-.48Z"/><path class="cls-1" d="M681.52,107h3.11l2.66,10.39c.41,1.71.74,3.33,1.07,5h.15c.41-1.67.78-3.33,1.22-5L692.51,107h3l2.81,10.39c.44,1.71.85,3.33,1.26,5h.15c.4-1.67.73-3.29,1.1-5L703.42,107h2.89l-4.81,18h-3.7l-2.59-9.66c-.45-1.7-.78-3.36-1.22-5.18h-.15c-.41,1.82-.78,3.52-1.26,5.22L690.06,125h-3.55Z"/><path class="cls-1" d="M720,113.6c0-2.29-.77-4.51-3.7-4.51A9.68,9.68,0,0,0,711,111l-1.22-2.11a13.35,13.35,0,0,1,7.06-2.33c4.41,0,6.26,2.93,6.26,7.4v11h-2.52l-.26-2.15h-.07a9.76,9.76,0,0,1-6,2.59c-3,0-5.29-1.88-5.29-5.1C709,116.42,712.38,114.45,720,113.6Zm-4.92,9.4c1.74,0,3.18-.85,4.92-2.4v-5c-6,.74-8.06,2.22-8.06,4.52C712,122.15,713.34,123,715.11,123Z"/><path class="cls-1" d="M728.8,107h2.52l.26,3.25h.11c1.22-2.25,3.07-3.7,5.1-3.7a4.46,4.46,0,0,1,1.93.37l-.59,2.67a4.91,4.91,0,0,0-1.74-.3c-1.52,0-3.33,1.11-4.55,4.15V125h-3Z"/><path class="cls-1" d="M748,106.57c4.58,0,7.17,3.3,7.17,8.44a9.93,9.93,0,0,1-.11,1.66H742.94c.22,3.89,2.55,6.33,6,6.33a8.14,8.14,0,0,0,4.48-1.4l1.07,2a10.7,10.7,0,0,1-5.92,1.85c-4.81,0-8.62-3.51-8.62-9.39S743.9,106.57,748,106.57Zm4.51,8.11c0-3.67-1.63-5.7-4.44-5.7-2.52,0-4.81,2.07-5.18,5.7Z"/><path class="cls-1" d="M767.61,109.5H765v-2.3l2.81-.18.37-5h2.56v5h4.84v2.48h-4.84v10c0,2.22.7,3.47,2.77,3.47a6.39,6.39,0,0,0,2-.48l.59,2.3a11.2,11.2,0,0,1-3.33.66c-3.85,0-5.15-2.44-5.15-6Z"/><path class="cls-1" d="M786.22,106.57c4.41,0,8.33,3.44,8.33,9.48s-3.92,9.39-8.33,9.39-8.32-3.44-8.32-9.39S781.82,106.57,786.22,106.57Zm0,16.36c3.11,0,5.19-2.78,5.19-6.88s-2.08-7-5.19-7-5.18,2.81-5.18,7S783.15,122.93,786.22,122.93Z"/><path class="cls-1" d="M806.21,101.36a2.11,2.11,0,0,1,4.21,0,2.11,2.11,0,0,1-4.21,0Zm.55,5.66h3v18h-3Z"/><path class="cls-1" d="M815.86,107h2.52l.26,2.59h.11c1.7-1.71,3.55-3,6-3,3.77,0,5.47,2.45,5.47,7V125h-3V114c0-3.37-1-4.81-3.4-4.81-1.85,0-3.11,1-4.93,2.78v13h-3Z"/><path class="cls-1" d="M843.43,106.57a7.41,7.41,0,0,1,5.25,2.15l-1.52,2a5.4,5.4,0,0,0-3.62-1.59c-3.26,0-5.63,2.81-5.63,7s2.26,6.88,5.55,6.88a6.36,6.36,0,0,0,4.22-1.82l1.37,2a8.87,8.87,0,0,1-5.84,2.33c-4.78,0-8.44-3.44-8.44-9.39S838.8,106.57,843.43,106.57Z"/><path class="cls-1" d="M853,107h2.52l.26,3.25h.11c1.22-2.25,3.07-3.7,5.1-3.7a4.46,4.46,0,0,1,1.93.37l-.59,2.67a4.91,4.91,0,0,0-1.74-.3c-1.52,0-3.33,1.11-4.55,4.15V125h-3Z"/><path class="cls-1" d="M872.18,106.57c4.58,0,7.17,3.3,7.17,8.44a9.93,9.93,0,0,1-.11,1.66H867.11c.22,3.89,2.55,6.33,6,6.33a8.14,8.14,0,0,0,4.48-1.4l1.07,2a10.7,10.7,0,0,1-5.92,1.85c-4.81,0-8.62-3.51-8.62-9.39S868.07,106.57,872.18,106.57Zm4.51,8.11c0-3.67-1.63-5.7-4.44-5.7-2.52,0-4.81,2.07-5.18,5.7Z"/><path class="cls-1" d="M893.45,113.6c0-2.29-.78-4.51-3.7-4.51a9.71,9.71,0,0,0-5.37,1.92l-1.22-2.11a13.39,13.39,0,0,1,7.07-2.33c4.4,0,6.25,2.93,6.25,7.4v11H894l-.26-2.15h-.08a9.71,9.71,0,0,1-6,2.59c-3,0-5.29-1.88-5.29-5.1C882.39,116.42,885.79,114.45,893.45,113.6Zm-4.92,9.4c1.74,0,3.18-.85,4.92-2.4v-5c-6,.74-8.07,2.22-8.07,4.52C885.38,122.15,886.75,123,888.53,123Z"/><path class="cls-1" d="M901.74,120.93a8.06,8.06,0,0,0,5.29,2.15c2.37,0,3.55-1.26,3.55-2.82,0-1.85-2.14-2.66-4.11-3.4-2.55-.93-5.36-2.15-5.36-5.18s2.29-5.11,6.18-5.11a9,9,0,0,1,5.59,2l-1.45,1.92a6.69,6.69,0,0,0-4.11-1.59c-2.25,0-3.29,1.22-3.29,2.59,0,1.67,2,2.33,4,3.11,2.59,1,5.47,2,5.47,5.44,0,2.92-2.33,5.36-6.58,5.36a10.81,10.81,0,0,1-6.7-2.48Z"/><path class="cls-1" d="M924.46,106.57c4.58,0,7.17,3.3,7.17,8.44a9.93,9.93,0,0,1-.11,1.66H919.39c.22,3.89,2.55,6.33,6,6.33a8.14,8.14,0,0,0,4.48-1.4l1.07,2a10.7,10.7,0,0,1-5.92,1.85c-4.81,0-8.62-3.51-8.62-9.39S920.35,106.57,924.46,106.57Zm4.51,8.11c0-3.67-1.63-5.7-4.44-5.7-2.52,0-4.81,2.07-5.18,5.7Z"/><path class="cls-1" d="M326,151.42h2.51l.26,3.25h.11c1.22-2.25,3.07-3.7,5.11-3.7a4.42,4.42,0,0,1,1.92.37l-.59,2.67a4.91,4.91,0,0,0-1.74-.3c-1.51,0-3.33,1.11-4.55,4.15V169.4h-3Z"/><path class="cls-1" d="M345.23,151c4.59,0,7.18,3.3,7.18,8.44a11.13,11.13,0,0,1-.11,1.66H340.16c.22,3.89,2.55,6.33,6,6.33a8.11,8.11,0,0,0,4.47-1.4l1.08,2a10.72,10.72,0,0,1-5.92,1.85c-4.81,0-8.63-3.51-8.63-9.39S341.12,151,345.23,151Zm4.52,8.11c0-3.67-1.63-5.7-4.45-5.7-2.51,0-4.81,2.07-5.18,5.7Z"/><path class="cls-1" d="M354.44,151.42h3.15l3.4,10.21c.52,1.78,1.11,3.59,1.67,5.29h.14c.52-1.7,1.11-3.51,1.63-5.29l3.41-10.21h3l-6.36,18h-3.55Z"/><path class="cls-1" d="M380.9,151c4.59,0,7.18,3.3,7.18,8.44a9.83,9.83,0,0,1-.12,1.66H375.83c.22,3.89,2.55,6.33,6,6.33a8.14,8.14,0,0,0,4.48-1.4l1.07,2a10.67,10.67,0,0,1-5.92,1.85c-4.81,0-8.62-3.51-8.62-9.39S376.79,151,380.9,151Zm4.51,8.11c0-3.67-1.63-5.7-4.44-5.7-2.51,0-4.81,2.07-5.18,5.7Z"/><path class="cls-1" d="M392.51,151.42H395l.26,2.59h.11c1.7-1.71,3.55-3,6-3,3.78,0,5.48,2.44,5.48,7v11.4h-3v-11c0-3.37-1-4.81-3.4-4.81-1.85,0-3.11,1-4.92,2.78v13h-3Z"/><path class="cls-1" d="M412.49,151.42h3.08v11c0,3.36,1,4.81,3.36,4.81,1.85,0,3.15-.93,4.85-3V151.42h3v18H424.3l-.26-2.81h-.11c-1.67,2-3.44,3.25-5.92,3.25-3.81,0-5.52-2.44-5.52-7Z"/><path class="cls-1" d="M439.62,151c4.58,0,7.17,3.3,7.17,8.44a9.93,9.93,0,0,1-.11,1.66H434.55c.22,3.89,2.55,6.33,6,6.33A8.14,8.14,0,0,0,445,166l1.07,2a10.7,10.7,0,0,1-5.92,1.85c-4.81,0-8.62-3.51-8.62-9.39S435.51,151,439.62,151Zm4.51,8.11c0-3.67-1.63-5.7-4.44-5.7-2.52,0-4.81,2.07-5.18,5.7Z"/><path class="cls-1" d="M450.75,165.33a8.1,8.1,0,0,0,5.29,2.15c2.37,0,3.56-1.26,3.56-2.82,0-1.85-2.15-2.66-4.11-3.4-2.56-.93-5.37-2.15-5.37-5.18s2.3-5.11,6.18-5.11a9,9,0,0,1,5.59,2l-1.44,1.92a6.71,6.71,0,0,0-4.11-1.59c-2.26,0-3.29,1.22-3.29,2.59,0,1.67,2,2.33,4,3.11,2.59,1,5.48,2,5.48,5.44,0,2.92-2.33,5.36-6.59,5.36a10.83,10.83,0,0,1-6.7-2.48Z"/><path class="cls-1" d="M482.31,145.53a5.13,5.13,0,0,0-2-.44c-1.7,0-2.52,1.18-2.52,3.48v2.85h3.81v2.48h-3.81v15.5h-3V153.9h-2.44v-2.3l2.44-.18v-2.85c0-3.67,1.66-6,5.25-6a8.21,8.21,0,0,1,3,.59Z"/><path class="cls-1" d="M485,151.42h2.52l.26,3.25h.11c1.22-2.25,3.07-3.7,5.11-3.7a4.45,4.45,0,0,1,1.92.37l-.59,2.67a4.91,4.91,0,0,0-1.74-.3c-1.52,0-3.33,1.11-4.55,4.15V169.4h-3Z"/><path class="cls-1" d="M504.47,151c4.41,0,8.33,3.44,8.33,9.48s-3.92,9.39-8.33,9.39-8.32-3.44-8.32-9.39S500.07,151,504.47,151Zm0,16.36c3.11,0,5.19-2.78,5.19-6.88s-2.08-7-5.19-7-5.18,2.81-5.18,7S501.4,167.33,504.47,167.33Z"/><path class="cls-1" d="M517.54,151.42h2.51l.26,2.59h.11c1.56-1.71,3.44-3,5.59-3a4.72,4.72,0,0,1,5,3.44c1.89-2,3.74-3.44,5.92-3.44,3.7,0,5.48,2.44,5.48,7v11.4h-3v-11c0-3.37-1.07-4.81-3.33-4.81-1.41,0-2.85.92-4.51,2.78v13h-3v-11c0-3.37-1.07-4.81-3.37-4.81-1.33,0-2.85.92-4.51,2.78v13h-3Z"/><path class="cls-1" d="M558.72,170.92V177h-3V151.42h2.52l.26,2.07h.11A9.32,9.32,0,0,1,564.3,151c4.63,0,7.11,3.59,7.11,9.18,0,6.1-3.67,9.69-7.77,9.69a8.32,8.32,0,0,1-5-2.07Zm4.4-3.63c3,0,5.14-2.7,5.14-7.14,0-4-1.33-6.62-4.73-6.62-1.52,0-3,.85-4.81,2.44v9.43A7.1,7.1,0,0,0,563.12,167.29Z"/><path class="cls-1" d="M583.21,151c4.4,0,8.33,3.44,8.33,9.48s-3.93,9.39-8.33,9.39-8.33-3.44-8.33-9.39S578.81,151,583.21,151Zm0,16.36c3.11,0,5.18-2.78,5.18-6.88s-2.07-7-5.18-7-5.18,2.81-5.18,7S580.14,167.33,583.21,167.33Z"/><path class="cls-1" d="M594,151.42h3.1l2.67,10.39c.41,1.71.74,3.33,1.07,5H601c.41-1.67.78-3.33,1.22-5L605,151.42h3l2.81,10.39c.44,1.71.85,3.33,1.26,5h.14c.41-1.67.74-3.29,1.11-5l2.63-10.39h2.89l-4.81,18h-3.7l-2.59-9.66c-.45-1.7-.78-3.36-1.22-5.18h-.15c-.41,1.82-.78,3.52-1.26,5.22l-2.52,9.62H599Z"/><path class="cls-1" d="M629.27,151c4.59,0,7.18,3.3,7.18,8.44a9.93,9.93,0,0,1-.11,1.66H624.21c.22,3.89,2.55,6.33,6,6.33a8.16,8.16,0,0,0,4.48-1.4l1.07,2a10.7,10.7,0,0,1-5.92,1.85c-4.81,0-8.62-3.51-8.62-9.39S625.17,151,629.27,151Zm4.52,8.11c0-3.67-1.63-5.7-4.44-5.7-2.52,0-4.81,2.07-5.18,5.7Z"/><path class="cls-1" d="M640.89,151.42h2.52l.26,3.25h.11c1.22-2.25,3.07-3.7,5.1-3.7a4.49,4.49,0,0,1,1.93.37l-.6,2.67a4.86,4.86,0,0,0-1.73-.3c-1.52,0-3.33,1.11-4.55,4.15V169.4h-3Z"/><path class="cls-1" d="M662.46,168.77v-.15a3.3,3.3,0,0,1-1.59-2.92,4.22,4.22,0,0,1,2-3.33v-.15a6.37,6.37,0,0,1-2.33-4.85c0-3.92,3.11-6.4,6.77-6.4a7.2,7.2,0,0,1,2.56.45h6.25v2.33h-3.7a5.21,5.21,0,0,1,1.48,3.7c0,3.85-2.92,6.25-6.59,6.25a6.22,6.22,0,0,1-2.7-.63,2.74,2.74,0,0,0-1.15,2.15c0,1.15.74,2,3.19,2h3.47c4.19,0,6.3,1.29,6.3,4.29,0,3.33-3.52,6.22-9.11,6.22-4.4,0-7.44-1.74-7.44-4.85A5.19,5.19,0,0,1,662.46,168.77Zm5.26,6.81c3.44,0,5.69-1.78,5.69-3.66,0-1.67-1.29-2.22-3.62-2.22h-3.11a8.87,8.87,0,0,1-2.33-.3,3.78,3.78,0,0,0-1.85,3C662.5,174.36,664.46,175.58,667.72,175.58Zm3.36-18.21c0-2.62-1.7-4.18-3.81-4.18s-3.81,1.56-3.81,4.18,1.74,4.3,3.81,4.3S671.08,160,671.08,157.37Z"/><path class="cls-1" d="M686.07,151c4.59,0,7.18,3.3,7.18,8.44a11.13,11.13,0,0,1-.11,1.66H681c.22,3.89,2.55,6.33,6,6.33a8.11,8.11,0,0,0,4.48-1.4l1.07,2a10.67,10.67,0,0,1-5.92,1.85c-4.81,0-8.62-3.51-8.62-9.39S682,151,686.07,151Zm4.51,8.11c0-3.67-1.62-5.7-4.44-5.7-2.51,0-4.81,2.07-5.18,5.7Z"/><path class="cls-1" d="M697.69,151.42h2.51l.26,2.59h.11c1.7-1.71,3.55-3,6-3,3.78,0,5.48,2.44,5.48,7v11.4h-3v-11c0-3.37-1-4.81-3.4-4.81-1.85,0-3.11,1-4.92,2.78v13h-3Z"/><path class="cls-1" d="M724.66,151c4.59,0,7.18,3.3,7.18,8.44a11.13,11.13,0,0,1-.11,1.66H719.59c.22,3.89,2.55,6.33,6,6.33a8.11,8.11,0,0,0,4.48-1.4l1.07,2a10.67,10.67,0,0,1-5.92,1.85c-4.81,0-8.62-3.51-8.62-9.39S720.55,151,724.66,151Zm4.51,8.11c0-3.67-1.63-5.7-4.44-5.7-2.51,0-4.81,2.07-5.18,5.7Z"/><path class="cls-1" d="M736.28,151.42h2.51l.26,3.25h.11c1.22-2.25,3.07-3.7,5.11-3.7a4.45,4.45,0,0,1,1.92.37L745.6,154a4.91,4.91,0,0,0-1.74-.3c-1.52,0-3.33,1.11-4.55,4.15V169.4h-3Z"/><path class="cls-1" d="M758.37,158c0-2.29-.78-4.51-3.7-4.51a9.71,9.71,0,0,0-5.37,1.92l-1.22-2.11a13.36,13.36,0,0,1,7.07-2.33c4.4,0,6.25,2.93,6.25,7.4v11h-2.52l-.25-2.15h-.08a9.76,9.76,0,0,1-6,2.59c-3,0-5.29-1.88-5.29-5.1C747.3,160.82,750.71,158.85,758.37,158Zm-4.93,9.4c1.74,0,3.19-.85,4.93-2.4v-5c-6,.74-8.07,2.22-8.07,4.52C750.3,166.55,751.67,167.4,753.44,167.4Z"/><path class="cls-1" d="M767.65,153.9H765v-2.3l2.81-.18.37-5h2.55v5h4.85v2.48h-4.85v10c0,2.22.71,3.47,2.78,3.47a6.27,6.27,0,0,0,2-.48l.6,2.3a11.26,11.26,0,0,1-3.34.66c-3.84,0-5.14-2.44-5.14-6Z"/><path class="cls-1" d="M779.08,145.76a2.12,2.12,0,1,1,2.11,2A2,2,0,0,1,779.08,145.76Zm.56,5.66h3v18h-3Z"/><path class="cls-1" d="M795.73,151c4.41,0,8.33,3.44,8.33,9.48s-3.92,9.39-8.33,9.39-8.32-3.44-8.32-9.39S791.33,151,795.73,151Zm0,16.36c3.11,0,5.18-2.78,5.18-6.88s-2.07-7-5.18-7-5.18,2.81-5.18,7S792.66,167.33,795.73,167.33Z"/><path class="cls-1" d="M808.79,151.42h2.52l.26,2.59h.11c1.7-1.71,3.55-3,6-3,3.78,0,5.48,2.44,5.48,7v11.4h-3v-11c0-3.37-1-4.81-3.4-4.81-1.85,0-3.11,1-4.92,2.78v13h-3Z"/></svg>