<svg id="Layer_1" data-name="Layer 1" xmlns="http://www.w3.org/2000/svg" viewBox="0 0 250 360"><defs><style>.cls-1{fill:#d80201;}.cls-2{fill:#fff;}</style></defs><title>text</title><rect class="cls-1" x="60.3" y="286" width="129.39" height="20.89" rx="10.44"/><path class="cls-2" d="M83.12,300.5H80.39v-8.13h2a3.2,3.2,0,0,1,2,.49,2.16,2.16,0,0,1,.73,1.67,1.69,1.69,0,0,1-.89,1.63,1.87,1.87,0,0,1,1.06.52,2.18,2.18,0,0,1,.59,1.52C85.88,299.82,84.58,300.5,83.12,300.5Zm-.68-6.84H82v2.1h.45c.71,0,1.24-.28,1.24-1.05S83.14,293.66,82.44,293.66Zm.27,3.31H82v2.25h.69c.78,0,1.58-.18,1.58-1.13S83.46,297,82.71,297Z"/><path class="cls-2" d="M87.33,300.5v-8.13h4.5v1.38H88.92v1.8h2.8v1.38h-2.8v2.2h2.91v1.37Z"/><path class="cls-2" d="M95.62,300.7a3.17,3.17,0,0,1-2.79-1.55l1-1a1.87,1.87,0,0,0,1.71,1.09,1.17,1.17,0,0,0,1.26-1.15c0-1.67-3.58-.88-3.58-3.5a2.38,2.38,0,0,1,2.54-2.36,3.55,3.55,0,0,1,2.38.9l-.83,1.09a1.65,1.65,0,0,0-1.32-.66c-.52,0-1.13.33-1.13.91,0,1.38,3.57.7,3.57,3.54A2.63,2.63,0,0,1,95.62,300.7Z"/><path class="cls-2" d="M102.4,293.75v6.75h-1.59v-6.75H99v-1.38h5.23v1.38Z"/><path class="cls-2" d="M110.34,300.5l-.69-1.71h-3.32l-.74,1.71H103.9l3.53-8.3h1.19l3.43,8.3Zm-3.73-9a.89.89,0,0,1-.88-.88.88.88,0,1,1,.88.88Zm1.4,3.1-1.18,2.92h2.33Zm1.33-3.1a.89.89,0,0,1-.88-.88.88.88,0,1,1,.88.88Z"/><path class="cls-2" d="M113,300.5v-8.13h1.58v6.76h2.5v1.37Z"/><path class="cls-2" d="M118.17,300.5v-8.13h1.59v6.76h2.5v1.37Z"/><path class="cls-2" d="M131.42,300.5v-3.62H128v3.62H126.4v-8.13H128v3.15h3.44v-3.15H133v8.13Z"/><path class="cls-2" d="M140.38,300.5l-.7-1.71h-3.31l-.75,1.71h-1.68l3.52-8.3h1.2l3.42,8.3Zm-3.73-9a.89.89,0,0,1-.88-.88.88.88,0,0,1,1.76,0A.88.88,0,0,1,136.65,291.48Zm1.4,3.1-1.18,2.92h2.33Zm1.33-3.1a.89.89,0,0,1-.88-.88.88.88,0,1,1,.88.88Z"/><path class="cls-2" d="M147,300.5l-2.2-3.26h-.19v3.26H143v-8.13h2.35a3.38,3.38,0,0,1,2.08.59,2.38,2.38,0,0,1,.8,1.83,2.67,2.67,0,0,1-.46,1.48,2.08,2.08,0,0,1-1.39.81L149,300.5Zm-1.92-6.84h-.47v2.46h.45c.81,0,1.56-.3,1.56-1.24S145.91,293.66,145.09,293.66Z"/><polygon class="cls-2" points="165.62 297.46 157.06 297.46 157.06 295.28 165.62 295.28 165.62 291.98 171.71 296.37 165.62 300.58 165.62 297.46"/></svg>