<svg id="Layer_1" data-name="Layer 1" xmlns="http://www.w3.org/2000/svg" viewBox="0 0 250 240"><defs><style>.cls-1{fill:#d80201;}</style></defs><title>text</title><path class="cls-1" d="M61.72,191.08a2.24,2.24,0,0,1-2.27-1.89l.79-.22a1.49,1.49,0,0,0,1.5,1.34,1.45,1.45,0,0,0,1.47-1.45c0-1.73-3.39-1.32-3.39-3.48a1.94,1.94,0,0,1,2.06-1.89,2.09,2.09,0,0,1,1.89,1.14l-.65.43a1.36,1.36,0,0,0-1.25-.8,1.16,1.16,0,0,0-1.22,1.12c0,1.52,3.39,1.08,3.39,3.44A2.26,2.26,0,0,1,61.72,191.08Z"/><path class="cls-1" d="M68.17,191l-1.85-2.08-.2.2V191h-.78v-8h.78v5.14l1.66-1.68h1l-2,1.94L69.19,191Z"/><path class="cls-1" d="M71.56,191.25l-2.24-4.86h.88l1.36,3.07,1.35-3.07h.88Z"/><path class="cls-1" d="M78,191v-.64a2,2,0,0,1-1.58.77,2.26,2.26,0,0,1-2.2-2.43,2.22,2.22,0,0,1,2.19-2.38A1.93,1.93,0,0,1,78,187v-.65h.78V191Zm-1.47-4A1.56,1.56,0,0,0,75,188.65a1.58,1.58,0,0,0,1.51,1.72A1.56,1.56,0,0,0,78,188.65,1.54,1.54,0,0,0,76.49,187Z"/><path class="cls-1" d="M83.72,191v-.64a2,2,0,0,1-1.58.77,2.26,2.26,0,0,1-2.2-2.42,2.24,2.24,0,0,1,2.19-2.39,2,2,0,0,1,1.6.76v-4.1h.78v8Zm-1.47-4a1.7,1.7,0,1,0,1.52,1.66A1.53,1.53,0,0,0,82.25,187Z"/><path class="cls-1" d="M88.15,187.18a.69.69,0,0,0-.46-.15.85.85,0,0,0-.4.1c-.51.28-.51.92-.51,1.42V191H86v-4.57h.78v.49a1.22,1.22,0,0,1,1-.6,1.3,1.3,0,0,1,.7.19Z"/><path class="cls-1" d="M91.2,191.08a2.4,2.4,0,1,1,2.41-2.4A2.39,2.39,0,0,1,91.2,191.08Zm0-4.09a1.69,1.69,0,1,0,1.62,1.69A1.6,1.6,0,0,0,91.19,187Z"/><path class="cls-1" d="M97.68,191v-2.7c0-.72-.1-1.28-1-1.28-1,0-1.13.88-1.13,1.68V191h-.78v-4.57h.78v.55a1.65,1.65,0,0,1,2.62,0,2.09,2.09,0,0,1,.26,1.21V191Z"/><path class="cls-1" d="M101.55,191.25l-2.24-4.86h.88l1.36,3.07,1.35-3.07h.88Z"/><path class="cls-1" d="M108.11,191v-.64a2,2,0,0,1-1.58.77,2.26,2.26,0,0,1-2.2-2.43,2.22,2.22,0,0,1,2.19-2.38,1.93,1.93,0,0,1,1.6.76v-.65h.78V191Zm-1.47-4a1.56,1.56,0,0,0-1.51,1.67,1.58,1.58,0,0,0,1.51,1.72,1.56,1.56,0,0,0,1.52-1.72A1.54,1.54,0,0,0,106.64,187Zm-.91-1.53a.56.56,0,0,1-.55-.55.55.55,0,1,1,.55.55Zm1.91,0a.56.56,0,0,1-.55-.55.55.55,0,1,1,.55.55Z"/><path class="cls-1" d="M114.23,192.65a2.22,2.22,0,0,1-1.83.85,2.06,2.06,0,0,1-2.22-2.09H111a1.36,1.36,0,0,0,1.45,1.39c1.1,0,1.46-.83,1.46-1.8v-.67a2.06,2.06,0,0,1-1.61.76,2.41,2.41,0,0,1,0-4.8,2,2,0,0,1,1.57.75v-.64h.79v4.47A2.78,2.78,0,0,1,114.23,192.65ZM112.39,187a1.57,1.57,0,0,0-1.5,1.73,1.54,1.54,0,0,0,1.5,1.66,1.7,1.7,0,0,0,0-3.39Z"/><path class="cls-1" d="M116.69,188.83a1.48,1.48,0,0,0,1.45,1.54,1.57,1.57,0,0,0,1.41-.95l.66.36a2.28,2.28,0,0,1-2.09,1.3,2.41,2.41,0,0,1,0-4.81,2.18,2.18,0,0,1,2.18,2.4v.15ZM118.1,187a1.4,1.4,0,0,0-1.35,1.18h2.68A1.37,1.37,0,0,0,118.1,187Z"/><path class="cls-1" d="M124.32,191v-2.7c0-.72-.1-1.28-1-1.28-1,0-1.13.88-1.13,1.68V191h-.78v-4.57h.78v.55a1.65,1.65,0,0,1,2.62,0,2.09,2.09,0,0,1,.26,1.21V191Z"/><path class="cls-1" d="M132.33,188.48l-1.51,1.72h3.08V191h-4.74l2.67-3.09c.5-.57,1.26-1.4,1.26-2.19a1.46,1.46,0,0,0-2.93.09h-.82a3,3,0,0,1,.15-.83,2.29,2.29,0,0,1,4.41.75C133.92,186.78,133,187.71,132.33,188.48Z"/><path class="cls-1" d="M139.89,187.66l-2.5,3.47-.62-.45,1.69-2.35a2.3,2.3,0,0,1-.67.1,2.37,2.37,0,0,1-2.35-2.41,2.53,2.53,0,0,1,5.06,0A3,3,0,0,1,139.89,187.66ZM138,184.25A1.72,1.72,0,1,0,139.7,186,1.72,1.72,0,0,0,138,184.25Z"/><path class="cls-1" d="M141.87,192.63l-.52-.21.9-2.54.73.26Z"/><path class="cls-1" d="M149.38,191.39l-3-7.78h.89l2.09,5.6,2.08-5.6h.88Z"/><path class="cls-1" d="M156.17,191v-.64a2,2,0,0,1-1.58.77,2.26,2.26,0,0,1-2.2-2.43,2.22,2.22,0,0,1,2.19-2.38,1.93,1.93,0,0,1,1.59.76v-.65h.78V191Zm-1.47-4a1.56,1.56,0,0,0-1.51,1.67,1.58,1.58,0,0,0,1.51,1.72,1.56,1.56,0,0,0,1.52-1.72A1.54,1.54,0,0,0,154.69,187Z"/><path class="cls-1" d="M158.44,191v-8h.78v8Z"/><path class="cls-1" d="M160.72,191v-8h.78v8Z"/><path class="cls-1" d="M163.53,188.83a1.48,1.48,0,0,0,1.45,1.54,1.58,1.58,0,0,0,1.41-.95l.66.36a2.28,2.28,0,0,1-2.09,1.3,2.41,2.41,0,0,1,0-4.81,2.18,2.18,0,0,1,2.18,2.4v.15Zm1.41-1.84a1.4,1.4,0,0,0-1.35,1.18h2.68A1.37,1.37,0,0,0,164.94,187Z"/><path class="cls-1" d="M171.16,191v-2.7c0-.72-.1-1.28-1-1.28-1,0-1.13.88-1.13,1.68V191h-.78v-4.57h.78v.55a1.54,1.54,0,0,1,1.32-.66,1.56,1.56,0,0,1,1.3.63,2.09,2.09,0,0,1,.26,1.21V191Z"/><path class="cls-1" d="M174.24,187.11V191h-.79v-3.84H173v-.73h.47v-1.65h.79v1.65h.8v.73Z"/><path class="cls-1" d="M179,190.51a2,2,0,0,1-2.79,0,1.87,1.87,0,0,1-.42-1.37v-2.75h.78V189a1.76,1.76,0,0,0,.14.86,1.08,1.08,0,0,0,1.77,0,1.78,1.78,0,0,0,.14-.86v-2.66h.78v2.75A1.86,1.86,0,0,1,179,190.51Z"/><path class="cls-1" d="M183.79,191v-2.7c0-.72-.1-1.28-1-1.28-1,0-1.13.88-1.13,1.68V191h-.78v-4.57h.78v.55a1.54,1.54,0,0,1,1.32-.66,1.56,1.56,0,0,1,1.3.63,2.09,2.09,0,0,1,.26,1.21V191Z"/><path class="cls-1" d="M189.56,191v-.64a2,2,0,0,1-1.58.77,2.26,2.26,0,0,1-2.2-2.43,2.22,2.22,0,0,1,2.19-2.38,1.93,1.93,0,0,1,1.6.76v-.65h.78V191Zm-1.47-4a1.56,1.56,0,0,0-1.51,1.67,1.58,1.58,0,0,0,1.51,1.72,1.56,1.56,0,0,0,1.52-1.72A1.54,1.54,0,0,0,188.09,187Z"/><path class="cls-1" d="M49.66,206.08a2.24,2.24,0,0,1-2.27-1.89l.79-.22a1.49,1.49,0,0,0,1.5,1.34,1.45,1.45,0,0,0,1.47-1.45c0-1.73-3.39-1.32-3.39-3.48a1.94,1.94,0,0,1,2.06-1.89,2.09,2.09,0,0,1,1.89,1.14l-.65.43a1.36,1.36,0,0,0-1.25-.8,1.16,1.16,0,0,0-1.22,1.12c0,1.52,3.39,1.08,3.39,3.44A2.26,2.26,0,0,1,49.66,206.08Z"/><path class="cls-1" d="M55.4,206.08a2.4,2.4,0,1,1,2.41-2.4A2.39,2.39,0,0,1,55.4,206.08Zm0-4.09A1.69,1.69,0,1,0,57,203.69,1.6,1.6,0,0,0,55.39,202Zm-.95-1.54a.56.56,0,0,1-.55-.55.55.55,0,1,1,.55.55Zm1.91,0a.56.56,0,0,1-.55-.55.55.55,0,1,1,.55.55Z"/><path class="cls-1" d="M61.88,206v-2.7c0-.72-.1-1.28-1-1.28-1,0-1.13.88-1.13,1.68V206H59v-4.57h.78v.55a1.65,1.65,0,0,1,2.62,0,2.09,2.09,0,0,1,.26,1.21V206Z"/><path class="cls-1" d="M67.65,206v-.64a2,2,0,0,1-1.58.77,2.26,2.26,0,0,1-2.2-2.42,2.24,2.24,0,0,1,2.19-2.39,2,2,0,0,1,1.6.76v-4.1h.78v8Zm-1.47-4a1.7,1.7,0,1,0,1.52,1.66A1.53,1.53,0,0,0,66.18,202Z"/><path class="cls-1" d="M73.42,206v-.64a2,2,0,0,1-1.58.77,2.26,2.26,0,0,1-2.2-2.43,2.22,2.22,0,0,1,2.19-2.38,1.93,1.93,0,0,1,1.6.76v-.65h.78V206Zm-1.47-4a1.56,1.56,0,0,0-1.51,1.67,1.58,1.58,0,0,0,1.51,1.72,1.56,1.56,0,0,0,1.52-1.72A1.54,1.54,0,0,0,71.94,202Z"/><path class="cls-1" d="M79.53,207.65a2.22,2.22,0,0,1-1.83.85,2.06,2.06,0,0,1-2.22-2.09h.78a1.36,1.36,0,0,0,1.45,1.39c1.1,0,1.46-.83,1.46-1.8v-.67a2.06,2.06,0,0,1-1.61.76,2.41,2.41,0,0,1,0-4.8,2,2,0,0,1,1.57.75v-.64H80v4.47A2.78,2.78,0,0,1,79.53,207.65ZM77.7,202a1.57,1.57,0,0,0-1.5,1.73,1.54,1.54,0,0,0,1.5,1.66,1.7,1.7,0,0,0,0-3.39Z"/><path class="cls-1" d="M86.39,206v-6.57H85.16l.43-.77H87.2V206Z"/><path class="cls-1" d="M92.89,206.07a2.15,2.15,0,0,1-2.24-2.15,1.91,1.91,0,0,1,1.09-1.79,1.84,1.84,0,0,1-.89-1.61,2.05,2.05,0,0,1,4.1,0,1.91,1.91,0,0,1-.92,1.62,1.9,1.9,0,0,1,1.07,1.77A2.13,2.13,0,0,1,92.89,206.07Zm0-3.56a1.4,1.4,0,1,0,1.42,1.4A1.41,1.41,0,0,0,92.86,202.51Zm0-3.26a1.28,1.28,0,1,0,1.28,1.28A1.28,1.28,0,0,0,92.89,199.25Z"/><path class="cls-1" d="M100.22,202.11V206h-.78v-3.84H99v-.73h.43v-1.95a2.62,2.62,0,0,1,.12-.88,1.27,1.27,0,0,1,1.23-.76,2,2,0,0,1,.57.1v.79a1.42,1.42,0,0,0-.52-.11c-.57,0-.63.43-.63.89v1.92h1.14v.73Z"/><path class="cls-1" d="M102.6,203.83a1.48,1.48,0,0,0,1.45,1.54,1.57,1.57,0,0,0,1.41-.95l.66.36a2.28,2.28,0,0,1-2.09,1.3,2.41,2.41,0,0,1,0-4.81,2.18,2.18,0,0,1,2.18,2.4v.15ZM104,202a1.4,1.4,0,0,0-1.35,1.18h2.68A1.37,1.37,0,0,0,104,202Z"/><path class="cls-1" d="M109.73,206.08a2,2,0,0,1-1.58-.77V206h-.78v-8h.78V202a2,2,0,0,1,1.6-.76,2.24,2.24,0,0,1,2.19,2.39A2.26,2.26,0,0,1,109.73,206.08Zm-.11-4.09a1.54,1.54,0,0,0-1.52,1.68,1.52,1.52,0,1,0,1.52-1.68Z"/><path class="cls-1" d="M115.49,202.65v-.73h4.77v.73Z"/><path class="cls-1" d="M124.65,203.83a1.48,1.48,0,0,0,1.45,1.54,1.57,1.57,0,0,0,1.41-.95l.66.36a2.28,2.28,0,0,1-2.09,1.3,2.41,2.41,0,0,1,0-4.81,2.18,2.18,0,0,1,2.18,2.4v.15Zm1.41-1.84a1.4,1.4,0,0,0-1.35,1.18h2.68A1.37,1.37,0,0,0,126.06,202Z"/><path class="cls-1" d="M132.29,206v-2.7c0-.72-.1-1.28-1-1.28-1,0-1.13.88-1.13,1.68V206h-.78v-4.57h.78v.55a1.54,1.54,0,0,1,1.32-.66,1.56,1.56,0,0,1,1.3.63,2.09,2.09,0,0,1,.26,1.21V206Z"/><path class="cls-1" d="M138.06,206v-.64a2,2,0,0,1-1.58.77,2.26,2.26,0,0,1-2.2-2.42,2.24,2.24,0,0,1,2.19-2.39,2,2,0,0,1,1.59.76v-4.1h.78v8Zm-1.47-4a1.7,1.7,0,1,0,1.52,1.66A1.53,1.53,0,0,0,136.59,202Z"/><path class="cls-1" d="M143.83,206v-.64a2,2,0,0,1-1.58.77,2.26,2.26,0,0,1-2.2-2.43,2.22,2.22,0,0,1,2.19-2.38,1.93,1.93,0,0,1,1.59.76v-.65h.78V206Zm-1.47-4a1.56,1.56,0,0,0-1.51,1.67,1.58,1.58,0,0,0,1.51,1.72,1.56,1.56,0,0,0,1.52-1.72A1.54,1.54,0,0,0,142.35,202Z"/><path class="cls-1" d="M147.34,206.08a1.63,1.63,0,0,1-1.59-1.17l.68-.29c.19.41.44.74.92.74a.71.71,0,0,0,.75-.72c0-1-2.06-.68-2.06-2.1a1.28,1.28,0,0,1,1.33-1.28,1.37,1.37,0,0,1,1.25.83l-.65.34a.73.73,0,0,0-.64-.45.54.54,0,0,0-.55.51c0,.8,2.11.59,2.11,2.09A1.5,1.5,0,0,1,147.34,206.08Z"/><path class="cls-1" d="M150.74,202.11V206H150v-3.84h-.47v-.73H150v-1.65h.79v1.65h.8v.73Z"/><path class="cls-1" d="M155.84,202.11V206h-.78v-3.84h-.43v-.73h.43v-1.95a2.61,2.61,0,0,1,.12-.88,1.27,1.27,0,0,1,1.23-.76,2,2,0,0,1,.57.1v.79a1.42,1.42,0,0,0-.52-.11c-.57,0-.63.43-.63.89v1.92H157v.73Z"/><path class="cls-1" d="M159.81,206.08a2.4,2.4,0,1,1,2.41-2.4A2.39,2.39,0,0,1,159.81,206.08Zm0-4.09a1.69,1.69,0,1,0,1.62,1.69A1.6,1.6,0,0,0,159.8,202Zm-.95-1.54a.56.56,0,0,1-.55-.55.55.55,0,1,1,.55.55Zm1.91,0a.56.56,0,0,1-.55-.55.55.55,0,1,1,.55.55Z"/><path class="cls-1" d="M165.56,202.18a.69.69,0,0,0-.46-.15.85.85,0,0,0-.4.1c-.51.28-.51.92-.51,1.42V206h-.78v-4.57h.78v.49a1.22,1.22,0,0,1,1-.6,1.3,1.3,0,0,1,.7.19Z"/><path class="cls-1" d="M170,206v-.64a2,2,0,0,1-1.58.77,2.26,2.26,0,0,1-2.2-2.43,2.22,2.22,0,0,1,2.19-2.38,1.93,1.93,0,0,1,1.6.76v-.65h.78V206Zm-1.47-4a1.56,1.56,0,0,0-1.51,1.67,1.58,1.58,0,0,0,1.51,1.72,1.56,1.56,0,0,0,1.52-1.72A1.54,1.54,0,0,0,168.55,202Z"/><path class="cls-1" d="M175.18,206v-2.7c0-.72-.1-1.28-1-1.28-1,0-1.13.88-1.13,1.68V206h-.78v-4.57h.78v.55a1.54,1.54,0,0,1,1.32-.66,1.56,1.56,0,0,1,1.3.63,2.09,2.09,0,0,1,.26,1.21V206Z"/><path class="cls-1" d="M182.67,206v-2.77c0-.58-.1-1.2-.83-1.2s-1,.77-1,1.43V206h-.78v-2.71c0-.57-.12-1.26-.84-1.26a1,1,0,0,0-.83.5,2.18,2.18,0,0,0-.18,1V206h-.78v-4.57h.78v.48a1.3,1.3,0,0,1,1.13-.59,1.39,1.39,0,0,1,1.25.74,1.56,1.56,0,0,1,2.56-.12,2.14,2.14,0,0,1,.25,1.17V206Z"/><path class="cls-1" d="M188.43,206v-.64a2,2,0,0,1-1.58.77,2.26,2.26,0,0,1-2.2-2.43,2.22,2.22,0,0,1,2.19-2.38,1.93,1.93,0,0,1,1.59.76v-.65h.78V206ZM187,202a1.56,1.56,0,0,0-1.51,1.67,1.58,1.58,0,0,0,1.51,1.72,1.56,1.56,0,0,0,1.52-1.72A1.54,1.54,0,0,0,187,202Zm-.91-1.53a.56.56,0,0,1-.55-.55.55.55,0,1,1,.55.55Zm1.92,0a.56.56,0,0,1-.55-.55.55.55,0,1,1,.55.55Z"/><path class="cls-1" d="M190.71,206v-8h.78v8Z"/><path class="cls-1" d="M196.47,206v-.64a2,2,0,0,1-1.58.77,2.26,2.26,0,0,1-2.2-2.43,2.22,2.22,0,0,1,2.19-2.38,1.93,1.93,0,0,1,1.6.76v-.65h.78V206ZM195,202a1.56,1.56,0,0,0-1.51,1.67,1.58,1.58,0,0,0,1.51,1.72,1.56,1.56,0,0,0,1.52-1.72A1.54,1.54,0,0,0,195,202Z"/><path class="cls-1" d="M201.62,206v-2.7c0-.72-.1-1.28-1-1.28-1,0-1.13.88-1.13,1.68V206h-.78v-4.57h.78v.55a1.54,1.54,0,0,1,1.32-.66,1.56,1.56,0,0,1,1.3.63,2.09,2.09,0,0,1,.26,1.21V206Z"/></svg>