<svg id="Layer_1" data-name="Layer 1" xmlns="http://www.w3.org/2000/svg" viewBox="0 0 250 360"><defs><style>.cls-1{fill:#d80201;}</style></defs><title>text</title><path class="cls-1" d="M42.29,173.71l4.92-5.57c1.35-1.53,3.83-4,3.83-6.18a2.49,2.49,0,0,0-2.53-2.47c-1.65,0-2.42,1.22-2.47,2.75H42.56c.23-3.38,2.43-5.63,5.85-5.63,3.13,0,5.88,2,5.88,5.35,0,2.33-1.53,4.23-3,5.83l-2.9,3.1h6v2.82Z"/><path class="cls-1" d="M63.11,174.13c-4.6,0-6.45-4.84-6.45-8.74s1.83-8.78,6.45-8.78,6.45,4.83,6.45,8.75S67.74,174.13,63.11,174.13Zm0-14.64c-2.55,0-3.2,3.95-3.2,5.87s.65,5.93,3.2,5.93,3.2-4,3.2-5.93S65.66,159.49,63.11,159.49Z"/><path class="cls-1" d="M85.31,173.71v-5.92c0-1.5-.32-2.68-2.07-2.68s-2.3,1.45-2.3,3v5.55h-3V155h3v9.3a3.92,3.92,0,0,1,3.4-1.75,4.15,4.15,0,0,1,3.15,1.32,4.32,4.32,0,0,1,.84,3v6.8Z"/><path class="cls-1" d="M96.46,174.06c-3,0-5.22-1.32-5.22-4.55v-6.62h3V169c0,1.48.63,2.48,2.2,2.48s2.2-1,2.2-2.48v-6.12h3v6.62C101.71,172.74,99.43,174.06,96.46,174.06Z"/><path class="cls-1" d="M108.06,174.06a5.72,5.72,0,0,1-4.12-1.8l1.6-1.85a3.49,3.49,0,0,0,2.55,1.28,1.27,1.27,0,0,0,1.37-1.2c0-1.85-4.82-.93-4.82-4.58,0-2.2,1.82-3.42,3.87-3.42a5.6,5.6,0,0,1,3.53,1.15l-1.5,1.77a3,3,0,0,0-1.8-.72c-.53,0-1.15.32-1.15.92,0,1.58,5,.88,5,4.58C112.58,172.71,110.39,174.06,108.06,174.06Z"/><path class="cls-1" d="M128.56,173.71v-5.92c0-1.28-.2-2.68-1.8-2.68-1.78,0-2.08,1.63-2.08,3v5.55h-3V168a4.93,4.93,0,0,0-.22-1.8,1.76,1.76,0,0,0-1.63-1,2,2,0,0,0-1.7,1,4.53,4.53,0,0,0-.35,2.07v5.55h-3V162.89h3v1.22a4.17,4.17,0,0,1,3.3-1.57,3.67,3.67,0,0,1,3.37,2,4,4,0,0,1,3.55-2,3.55,3.55,0,0,1,3,1.55,4.74,4.74,0,0,1,.57,2.62v7Z"/><path class="cls-1" d="M140.11,174.06c-3.45,0-6.2-2.15-6.2-5.75s2.75-5.77,6.22-5.77,6.15,2.17,6.15,5.75S143.53,174.06,140.11,174.06Zm0-8.8a3,3,0,1,0,3.08,3.05A3.06,3.06,0,0,0,140.08,165.26Z"/><path class="cls-1" d="M156.88,173.71v-1.42a4.17,4.17,0,0,1-3.52,1.77c-3.25,0-5.32-2.7-5.32-5.8s2.07-5.72,5.25-5.72a4.5,4.5,0,0,1,3.59,1.72V155h3.05v18.72Zm-2.69-8.45a3,3,0,1,0,3,3A3,3,0,0,0,154.19,165.26Z"/><path class="cls-1" d="M165.36,168.79c0,1.67.85,2.9,2.65,2.9a2.83,2.83,0,0,0,2.57-1.45l2.8.45a5.3,5.3,0,0,1-5.32,3.37,5.43,5.43,0,0,1-5.8-5.77,5.36,5.36,0,0,1,5.67-5.75c3.58,0,5.53,2.4,5.53,5.85v.4Zm2.62-4.1a2.45,2.45,0,0,0-2.52,2.17h5.12A2.5,2.5,0,0,0,168,164.69Z"/><path class="cls-1" d="M175.79,173.71V155h3v18.72Z"/><path class="cls-1" d="M181.71,173.71V155h3v18.72Z"/><path class="cls-1" d="M190.16,168.79c.05,1.67.85,2.9,2.65,2.9a2.83,2.83,0,0,0,2.57-1.45l2.8.45a5.3,5.3,0,0,1-5.32,3.37,5.43,5.43,0,0,1-5.8-5.77,5.36,5.36,0,0,1,5.67-5.75c3.58,0,5.53,2.4,5.53,5.85v.4Zm2.62-4.1a2.45,2.45,0,0,0-2.52,2.17h5.12A2.5,2.5,0,0,0,192.78,164.69Z"/><path class="cls-1" d="M207.66,165.64a2.65,2.65,0,0,0-1.45-.38c-2.05,0-2.6,1.45-2.6,3.25v5.2h-3V162.89h3v1.62a3.48,3.48,0,0,1,3.15-2,3.37,3.37,0,0,1,1.32.25Z"/><path class="cls-1" d="M67.11,196.64v3.9h-3v-3.9h-3.9v-2.8h3.9v-3.9h3v3.9H71v2.8Z"/><path class="cls-1" d="M81,190.14a1.83,1.83,0,0,1,0-3.65,1.83,1.83,0,0,1,0,3.65Zm-1.52,13.57V192.89h3v10.82Z"/><path class="cls-1" d="M92.76,203.71v-6c0-1.47-.32-2.6-2.05-2.6s-2.32,1.38-2.32,3v5.6h-3V192.89h3v1.32a4,4,0,0,1,3.4-1.67,3.74,3.74,0,0,1,4,4.3v6.87Z"/><path class="cls-1" d="M102.14,204.06a5.8,5.8,0,0,1-4.13-1.8l1.6-1.85a3.52,3.52,0,0,0,2.55,1.28,1.28,1.28,0,0,0,1.38-1.2c0-1.85-4.83-.93-4.83-4.58,0-2.2,1.83-3.42,3.88-3.42a5.55,5.55,0,0,1,3.52,1.15l-1.5,1.77a3,3,0,0,0-1.8-.72c-.52,0-1.15.32-1.15.92,0,1.58,5,.88,5,4.58C106.66,202.71,104.46,204.06,102.14,204.06Z"/><path class="cls-1" d="M115.46,204.06a4.35,4.35,0,0,1-3.62-1.77v7.19h-3V192.89h3v1.37a4.31,4.31,0,0,1,3.55-1.72c3.22,0,5.35,2.67,5.35,5.77S118.64,204.06,115.46,204.06Zm-.9-8.8a3,3,0,1,0,3,3A3,3,0,0,0,114.56,195.26Z"/><path class="cls-1" d="M124.51,190.14a1.83,1.83,0,0,1,0-3.65,1.83,1.83,0,0,1,0,3.65ZM123,203.71V192.89h3v10.82Z"/><path class="cls-1" d="M135.94,195.64a2.65,2.65,0,0,0-1.45-.38c-2.05,0-2.6,1.45-2.6,3.25v5.2h-3V192.89h3v1.62a3.48,3.48,0,0,1,3.15-2,3.37,3.37,0,0,1,1.32.25Z"/><path class="cls-1" d="M146.13,203.71v-1.42a4.17,4.17,0,0,1-3.52,1.77c-3.25,0-5.32-2.7-5.32-5.8s2.07-5.72,5.25-5.72a4.5,4.5,0,0,1,3.59,1.72v-1.37h3.05v10.82Zm-2.69-8.45a3,3,0,1,0,3,3A3,3,0,0,0,143.44,195.26Z"/><path class="cls-1" d="M155.14,195.49v8.22h-3v-8.22h-1.2v-2.6h1.2v-3.7h3v3.7h2.12v2.6Z"/><path class="cls-1" d="M160.31,190.14a1.83,1.83,0,0,1,0-3.65,1.83,1.83,0,0,1,0,3.65Zm-1.52,13.57V192.89h3v10.82Z"/><path class="cls-1" d="M170.28,204.06c-3.45,0-6.19-2.15-6.19-5.75s2.74-5.77,6.22-5.77,6.15,2.17,6.15,5.75S173.71,204.06,170.28,204.06Zm0-8.8a3,3,0,1,0,3.07,3.05A3.06,3.06,0,0,0,170.26,195.26Z"/><path class="cls-1" d="M186.18,203.71v-6c0-1.47-.32-2.6-2.05-2.6s-2.32,1.38-2.32,3v5.6h-3V192.89h3v1.32a4,4,0,0,1,3.4-1.67,3.74,3.74,0,0,1,4,4.3v6.87Z"/></svg>