<svg id="Layer_1" data-name="Layer 1" xmlns="http://www.w3.org/2000/svg" viewBox="0 0 300 250"><defs><style>.cls-1{fill:#d4ac76;}</style></defs><title>text</title><path class="cls-1" d="M205.84,171.65c-.2-.33-.46-.33-.53.07l-3.3,11c-1.12,3.76-1,5.31.4,5.31h1.25c.26,0,.33.13.33.33l-.13.69c-.07.23-.07.3-.4.3s-1.72-.1-4-.1-3.37.1-3.76.1c-.2,0-.26-.13-.23-.36l.1-.69c.07-.13.13-.26.33-.26h.73c1.52,0,2.31-1.12,3.3-4.06l4-12.74c.63-1.95-.07-2.87-1.45-2.87h-1.25c-.26,0-.33-.13-.26-.4l.13-.59c.07-.2.13-.33.4-.33s1.72.1,5.61.1c.59,0,.79.4,1,.86l7.33,15.25c.26.4.4.33.66-.46l3.5-10.69c.86-2.67.59-3.73-.53-3.73h-1c-.33,0-.4-.07-.33-.33l.07-.73c.07-.13.13-.26.33-.26.4,0,1.45.1,3.76.1,1.72,0,2.38-.1,2.84-.1s.4.2.33.46l-.13.59c0,.2-.07.26-.26.26h-.86c-.79,0-1.45.79-2.11,2.67l-6.07,17.36a1.36,1.36,0,0,1-.66.86,1,1,0,0,1-.86-.66Z"/><path class="cls-1" d="M229.17,188.48a41.23,41.23,0,0,0,3-6.6,8.6,8.6,0,0,0,.4-2.11,4.83,4.83,0,0,0-.26-1.52,4.32,4.32,0,0,1-.33-1.32,1.47,1.47,0,0,1,1.65-1.39c1.25,0,1.65.92,1.65,2.11,0,1.45-1.19,4.36-2.31,6.6-1.65,3.23-5.15,9-8,11.82-1,.92-2.94,3-5,3-1.45,0-2.11-.79-2.11-1.72a1.72,1.72,0,0,1,1.52-1.72,1.5,1.5,0,0,1,1.19.59,1.53,1.53,0,0,0,.92.46,2.78,2.78,0,0,0,1.48-.56,14.28,14.28,0,0,0,3.27-3.76,3.33,3.33,0,0,0,.33-2.24c-.07-1.06-.82-9.84-1.22-11.29-.17-.59-.23-.86-.63-.86-.59,0-1.45,1.65-1.72,2.38-.07.2-.13.2-.3.17l-.5-.17c-.13,0-.13-.13-.07-.4s1.52-4.42,4.42-4.42c1.19,0,1.85.86,2,3.63.26,3.76.4,7.66.43,9.31Z"/><path class="cls-1" d="M241.9,180.36c1.58-2.38,3.76-4.82,6.27-4.82,2,0,2.64,1.58,2.64,3.07a16,16,0,0,1-2.18,7.29c-1.45,2.64-3.3,4.42-5.48,4.42a1.81,1.81,0,0,1-1.91-1.78,1.54,1.54,0,0,1,1.39-1.65,1.17,1.17,0,0,1,1.19,1.12c.07.46.2.89.66.89.73,0,1.45-2.08,2-3.79a21.39,21.39,0,0,0,1.25-5.91c0-.76-.2-1.55-1-1.55-1.45,0-3.89,2.77-4.82,4a13,13,0,0,0-1.85,3.37l-1.72,4c-.07.2-.17.26-.4.26h-2.11c-.3,0-.36-.2-.26-.46l7.06-18.42a5.58,5.58,0,0,0,.43-1.55c0-.4-.43-.66-1-.66h-1a.23.23,0,0,1-.2-.33l.13-.59c.07-.2.13-.26.46-.26h5.21c.26,0,.4.13.4.33a3.75,3.75,0,0,1-.33,1l-5,11.82Z"/><path class="cls-1" d="M261.61,186c.17.1.17.17.1.3a7.45,7.45,0,0,1-5.87,3.3,3.17,3.17,0,0,1-3.5-3.5,12.31,12.31,0,0,1,4.09-8.51,7.74,7.74,0,0,1,5-2,2.08,2.08,0,0,1,2.31,1.95c0,1.68-1.12,3.2-3,4.26a12.32,12.32,0,0,1-4.82,1.39,7.74,7.74,0,0,0-.33,2.44,1.91,1.91,0,0,0,1.78,2.11,4.66,4.66,0,0,0,3.56-2c.07-.07.2-.13.26-.07Zm-5.51-3.93a6.69,6.69,0,0,0,3.3-1.25,3.59,3.59,0,0,0,1.39-2.51c0-.59-.26-1.19-1-1.19C258.14,177.13,256.49,180.3,256.09,182.08Z"/><path class="cls-1" d="M268.54,185a8.5,8.5,0,0,0-.59,1.92.55.55,0,0,0,.59.59c.76,0,2.8-1.65,3-1.85s.2-.13.33,0l.36.4c.13.07.13.13.07.26-.4.53-3.37,3.3-6.34,3.3-1,0-1.39-.53-1.39-1a6.06,6.06,0,0,1,.33-1.85l3.5-9H266c-.2,0-.26-.07-.2-.33l.26-.86c.07-.2.13-.26.33-.26h2.54l1.35-3.5c.13-.33.26-.4.86-.46a7.26,7.26,0,0,0,2.24-.86,2.68,2.68,0,0,1,.53-.2c.2,0,.33.33.2.66l-2.14,4.36h3.4c.13,0,.2.13.13.33l-.26,1c0,.13-.13.17-.33.17h-3.43Z"/></svg>