<svg id="Layer_1" data-name="Layer 1" xmlns="http://www.w3.org/2000/svg" viewBox="0 0 250 240"><defs><style>.cls-1{fill:#d80201;}</style></defs><title>text</title><path class="cls-1" d="M56.28,98.09,46.13,86.49V97.76H42.88v-17h2.25l10.15,11.6V81.09h3.25v17Z"/><path class="cls-1" d="M65,103.56H61.61l4-7.42-5.12-9.2H64l3.25,6.15,3.1-6.15h3.45Z"/><path class="cls-1" d="M82.65,97.76V91.84c0-1.5-.32-2.67-2.07-2.67s-2.3,1.45-2.3,3v5.55h-3V79h3v9.3a3.94,3.94,0,0,1,3.4-1.75,4.14,4.14,0,0,1,3.15,1.32,4.29,4.29,0,0,1,.85,3v6.8Z"/><path class="cls-1" d="M91.11,92.84c0,1.67.85,2.9,2.65,2.9a2.84,2.84,0,0,0,2.57-1.45l2.8.45a5.31,5.31,0,0,1-5.32,3.37A5.43,5.43,0,0,1,88,92.34a5.36,5.36,0,0,1,5.67-5.75c3.57,0,5.52,2.4,5.52,5.85v.4Zm2.62-4.1a2.45,2.45,0,0,0-2.52,2.17h5.12A2.51,2.51,0,0,0,93.73,88.74Z"/><path class="cls-1" d="M104.58,89.54v8.22h-3V89.54h-1.2v-2.6h1.2v-3.7h3v3.7h2.12v2.6Z"/><path class="cls-1" d="M110,98.09a1.95,1.95,0,1,1,1.95-1.95A2,2,0,0,1,110,98.09ZM108.41,93V81.09h3.1V93Z"/><path class="cls-1" d="M54.18,127.76l-1.42-3.52H46l-1.52,3.52H41l7.22-17h2.45l7,17ZM49.4,115.62l-2.42,6h4.77Z"/><path class="cls-1" d="M59.16,127.76V109h3v18.72Z"/><path class="cls-1" d="M65.08,127.76V109h3v18.72Z"/><path class="cls-1" d="M79.28,127.76v-1.42a4.18,4.18,0,0,1-3.52,1.77c-3.25,0-5.32-2.7-5.32-5.8s2.07-5.72,5.25-5.72a4.51,4.51,0,0,1,3.6,1.72v-1.37h3v10.82Zm-2.7-8.45a3,3,0,1,0,3,3A3,3,0,0,0,76.58,119.32Z"/><path class="cls-1" d="M98.88,127.76v-5.92c0-1.5-.32-2.67-2.07-2.67s-2.3,1.45-2.3,3v5.55h-3V109h3v9.3a3.94,3.94,0,0,1,3.4-1.75,4.14,4.14,0,0,1,3.15,1.32,4.29,4.29,0,0,1,.85,3v6.8Z"/><path class="cls-1" d="M110,128.11c-3,0-5.22-1.32-5.22-4.55v-6.62h3v6.12c0,1.47.62,2.47,2.2,2.47s2.2-1,2.2-2.47v-6.12h3v6.62C115.28,126.79,113,128.11,110,128.11Z"/><path class="cls-1" d="M121.63,128.11a5.76,5.76,0,0,1-4.12-1.8l1.6-1.85a3.51,3.51,0,0,0,2.55,1.28,1.27,1.27,0,0,0,1.37-1.2c0-1.85-4.82-.92-4.82-4.57,0-2.2,1.82-3.42,3.87-3.42a5.58,5.58,0,0,1,3.52,1.15l-1.5,1.77a3,3,0,0,0-1.8-.73c-.52,0-1.15.33-1.15.92,0,1.58,5,.88,5,4.57C126.15,126.76,124,128.11,121.63,128.11Z"/><path class="cls-1" d="M142.83,127.76v-1.42a4.18,4.18,0,0,1-3.52,1.77c-3.25,0-5.32-2.7-5.32-5.8s2.07-5.72,5.25-5.72a4.51,4.51,0,0,1,3.6,1.72v-1.37h3v10.82Zm-5.22-12.85a1.8,1.8,0,1,1,0-3.6,1.8,1.8,0,0,1,0,3.6Zm2.52,4.4a3,3,0,1,0,3,3A3,3,0,0,0,140.13,119.32Zm2.67-4.4a1.82,1.82,0,0,1-1.8-1.8,1.8,1.8,0,1,1,1.8,1.8Z"/><path class="cls-1" d="M155.85,119.69a2.68,2.68,0,0,0-1.45-.37c-2,0-2.6,1.45-2.6,3.25v5.2h-3V116.94h3v1.62a3.53,3.53,0,0,1,4.47-1.72Z"/><path class="cls-1" d="M171.43,127.76v-6c0-1.47-.33-2.6-2-2.6-1.87,0-2.32,1.38-2.32,3v5.6h-3V116.94h3v1.32a4,4,0,0,1,3.4-1.67,3.74,3.74,0,0,1,4,4.3v6.87Z"/><path class="cls-1" d="M182.58,128.11c-3,0-5.22-1.32-5.22-4.55v-6.62h3v6.12c0,1.47.63,2.47,2.2,2.47s2.2-1,2.2-2.47v-6.12h3v6.62C187.83,126.79,185.55,128.11,182.58,128.11Z"/><path class="cls-1" d="M47.51,158.16A6.49,6.49,0,0,1,41.78,155l2.1-2a3.82,3.82,0,0,0,3.5,2.22A2.37,2.37,0,0,0,50,152.84c0-3.42-7.32-1.8-7.32-7.17a4.89,4.89,0,0,1,5.2-4.85,7.31,7.31,0,0,1,4.87,1.85L51,144.89a3.37,3.37,0,0,0-2.7-1.35c-1.07,0-2.32.67-2.32,1.87,0,2.83,7.32,1.42,7.32,7.25C53.3,156.06,50.8,158.16,47.51,158.16Z"/><path class="cls-1" d="M61.21,158h-1.4l-5.52-11h3.4l2.85,6.1,2.85-6.1h3.4Z"/><path class="cls-1" d="M76,157.76v-1.42a4.18,4.18,0,0,1-3.52,1.77c-3.25,0-5.32-2.7-5.32-5.8s2.07-5.72,5.25-5.72a4.51,4.51,0,0,1,3.6,1.72v-1.37h3v10.82Zm-2.7-8.45a3,3,0,1,0,3,3A3,3,0,0,0,73.28,149.32Z"/><path class="cls-1" d="M89.33,157.76v-6c0-1.47-.32-2.6-2-2.6s-2.32,1.38-2.32,3v5.6h-3V146.94h3v1.32a4,4,0,0,1,3.4-1.67,3.74,3.74,0,0,1,4,4.3v6.87Z"/><path class="cls-1" d="M97.78,152.84c0,1.67.85,2.9,2.65,2.9a2.84,2.84,0,0,0,2.57-1.45l2.8.45a5.31,5.31,0,0,1-5.32,3.37,5.42,5.42,0,0,1-5.8-5.77,5.36,5.36,0,0,1,5.67-5.75c3.57,0,5.52,2.4,5.52,5.85v.4Zm2.62-4.1a2.46,2.46,0,0,0-2.52,2.17H103A2.51,2.51,0,0,0,100.4,148.74Z"/><path class="cls-1" d="M115.6,157.76v-6c0-1.47-.32-2.6-2-2.6s-2.32,1.38-2.32,3v5.6h-3V146.94h3v1.32a4,4,0,0,1,3.4-1.67,3.74,3.74,0,0,1,4,4.3v6.87Z"/><path class="cls-1" d="M135.35,157.76v-5.92c0-1.27-.2-2.67-1.8-2.67-1.77,0-2.07,1.63-2.07,3v5.55h-3V152a4.82,4.82,0,0,0-.23-1.8,1.75,1.75,0,0,0-1.62-1,2,2,0,0,0-1.7,1,4.49,4.49,0,0,0-.35,2.07v5.55h-3V146.94h3v1.22a4.15,4.15,0,0,1,3.3-1.58,3.68,3.68,0,0,1,3.37,2,4,4,0,0,1,3.55-2,3.56,3.56,0,0,1,3,1.55,4.77,4.77,0,0,1,.57,2.62v7Z"/><path class="cls-1" d="M149.55,157.76v-1.42a4.18,4.18,0,0,1-3.52,1.77c-3.25,0-5.32-2.7-5.32-5.8s2.07-5.72,5.25-5.72a4.51,4.51,0,0,1,3.6,1.72v-1.37h3v10.82Zm-5.22-12.85a1.8,1.8,0,1,1,0-3.6,1.8,1.8,0,0,1,0,3.6Zm2.52,4.4a3,3,0,1,0,3,3A3,3,0,0,0,146.85,149.32Zm2.67-4.4a1.82,1.82,0,0,1-1.8-1.8,1.8,1.8,0,1,1,1.8,1.8Z"/><path class="cls-1" d="M162.58,149.69a2.67,2.67,0,0,0-1.45-.37c-2,0-2.6,1.45-2.6,3.25v5.2h-3V146.94h3v1.62a3.53,3.53,0,0,1,4.47-1.72Z"/><path class="cls-1" d="M171.93,157.76l-4.07-4.65-.33.33v4.32h-3V139h3v11.85l4-3.95h4.1l-5.07,4.75,5.47,6.07Z"/><path class="cls-1" d="M180.48,149.54v8.22h-3v-8.22h-1.2v-2.6h1.2v-3.7h3v3.7h2.12v2.6Z"/><path class="cls-1" d="M192.45,157.76v-1.42a4.18,4.18,0,0,1-3.52,1.77c-3.25,0-5.32-2.7-5.32-5.8s2.07-5.72,5.25-5.72a4.51,4.51,0,0,1,3.6,1.72v-1.37h3v10.82Zm-2.7-8.45a3,3,0,1,0,3,3A3,3,0,0,0,189.75,149.32Z"/></svg>