<svg id="Layer_1" data-name="Layer 1" xmlns="http://www.w3.org/2000/svg" viewBox="0 0 250 240"><defs><style>.cls-1{fill:#d80201;}</style></defs><title>text</title><path class="cls-1" d="M76.16,131.3c-1.62,1.75-4.17,1.47-6.35,1.47V139H66.56V122.28h4.85a6,6,0,0,1,4.4,1.27,5.31,5.31,0,0,1,1.7,4A5.48,5.48,0,0,1,76.16,131.3Zm-2.85-5.67a3.88,3.88,0,0,0-2.37-.52H69.81V130h1.32c1.62,0,3-.52,3-2.4A2.47,2.47,0,0,0,73.31,125.63Z"/><path class="cls-1" d="M86.54,130.88a2.67,2.67,0,0,0-1.45-.37c-2,0-2.6,1.45-2.6,3.25V139h-3V128.13h3v1.62A3.53,3.53,0,0,1,87,128Z"/><path class="cls-1" d="M91,134c0,1.67.85,2.9,2.65,2.9a2.84,2.84,0,0,0,2.57-1.45l2.8.45a5.31,5.31,0,0,1-5.32,3.37,5.42,5.42,0,0,1-5.8-5.77,5.36,5.36,0,0,1,5.67-5.75c3.57,0,5.52,2.4,5.52,5.85v.4Zm2.62-4.1a2.46,2.46,0,0,0-2.52,2.17h5.12A2.51,2.51,0,0,0,93.61,129.93Z"/><path class="cls-1" d="M115.24,139V133c0-1.27-.2-2.67-1.8-2.67-1.77,0-2.07,1.63-2.07,3V139h-3V133.2a4.82,4.82,0,0,0-.23-1.8,1.75,1.75,0,0,0-1.62-1,2,2,0,0,0-1.7,1,4.49,4.49,0,0,0-.35,2.07V139h-3V128.13h3v1.22a4.15,4.15,0,0,1,3.3-1.58,3.68,3.68,0,0,1,3.37,2,4,4,0,0,1,3.55-2,3.56,3.56,0,0,1,3,1.55,4.77,4.77,0,0,1,.57,2.62v7Z"/><path class="cls-1" d="M122.64,125.38a1.82,1.82,0,1,1,0-3.65,1.82,1.82,0,0,1,0,3.65ZM121.11,139V128.13h3V139Z"/><path class="cls-1" d="M135.26,139v-1.42a4.18,4.18,0,0,1-3.52,1.77c-3.25,0-5.32-2.7-5.32-5.8s2.07-5.72,5.25-5.72a4.51,4.51,0,0,1,3.6,1.72v-1.37h3V139ZM130,126.11a1.8,1.8,0,0,1,0-3.6,1.8,1.8,0,0,1,0,3.6Zm2.52,4.4a3,3,0,1,0,3,3A3,3,0,0,0,132.56,130.5Zm2.67-4.4a1.82,1.82,0,0,1-1.8-1.8,1.8,1.8,0,1,1,1.8,1.8Z"/><path class="cls-1" d="M148.29,130.88a2.67,2.67,0,0,0-1.45-.37c-2,0-2.6,1.45-2.6,3.25V139h-3V128.13h3v1.62a3.53,3.53,0,0,1,4.47-1.72Z"/><path class="cls-1" d="M159.59,130.73V139h-3v-8.22h-1.17v-2.6h1.17v-3.47a5.27,5.27,0,0,1,.47-2.55,4.28,4.28,0,0,1,3.75-2.17,3.58,3.58,0,0,1,1.6.38v2.77a3,3,0,0,0-1.37-.4c-1.35,0-1.42,1.4-1.42,2.42v3h2.8v2.6Z"/><path class="cls-1" d="M169.41,139.3c-3.45,0-6.2-2.15-6.2-5.75s2.75-5.77,6.22-5.77,6.15,2.17,6.15,5.75S172.83,139.3,169.41,139.3Zm-2.62-13.2a1.8,1.8,0,0,1,0-3.6,1.8,1.8,0,0,1,0,3.6Zm2.6,4.4a3,3,0,1,0,3.07,3A3.06,3.06,0,0,0,169.39,130.5Zm2.6-4.4a1.82,1.82,0,0,1-1.8-1.8,1.8,1.8,0,1,1,1.8,1.8Z"/><path class="cls-1" d="M185,130.88a2.67,2.67,0,0,0-1.45-.37c-2,0-2.6,1.45-2.6,3.25V139h-3V128.13h3v1.62a3.53,3.53,0,0,1,4.47-1.72Z"/><path class="cls-1" d="M47.53,160.73V169h-3v-8.22H43.33v-2.6H44.5v-3.47a5.27,5.27,0,0,1,.47-2.55,4.28,4.28,0,0,1,3.75-2.17,3.58,3.58,0,0,1,1.6.38v2.77a3,3,0,0,0-1.37-.4c-1.35,0-1.42,1.4-1.42,2.42v3h2.8v2.6Z"/><path class="cls-1" d="M58.8,160.88a2.67,2.67,0,0,0-1.45-.37c-2,0-2.6,1.45-2.6,3.25V169h-3V158.13h3v1.62A3.53,3.53,0,0,1,59.23,158Z"/><path class="cls-1" d="M69,169v-1.42a4.18,4.18,0,0,1-3.52,1.77c-3.25,0-5.32-2.7-5.32-5.8s2.07-5.72,5.25-5.72A4.51,4.51,0,0,1,69,159.5v-1.37h3V169Zm-2.7-8.45a3,3,0,1,0,3,3A3,3,0,0,0,66.3,160.5Z"/><path class="cls-1" d="M88.77,169V163c0-1.27-.2-2.67-1.8-2.67-1.77,0-2.07,1.63-2.07,3V169h-3V163.2a4.82,4.82,0,0,0-.23-1.8,1.75,1.75,0,0,0-1.62-1,2,2,0,0,0-1.7,1A4.49,4.49,0,0,0,78,163.4V169H75V158.13h3v1.22a4.15,4.15,0,0,1,3.3-1.58,3.68,3.68,0,0,1,3.37,2,4,4,0,0,1,3.55-2,3.56,3.56,0,0,1,3,1.55A4.77,4.77,0,0,1,91.8,162v7Z"/><path class="cls-1" d="M97.75,160.73V169h-3v-8.22h-1.2v-2.6h1.2v-3.7h3v3.7h2.12v2.6Z"/><path class="cls-1" d="M102.93,155.38a1.82,1.82,0,1,1,0-3.65,1.82,1.82,0,0,1,0,3.65ZM101.4,169V158.13h3V169Z"/><path class="cls-1" d="M115.55,169v-1.42A4.18,4.18,0,0,1,112,169.3c-3.25,0-5.32-2.7-5.32-5.8s2.07-5.72,5.25-5.72a4.51,4.51,0,0,1,3.6,1.72v-9.27h3V169Zm-2.7-8.45a3,3,0,1,0,3,3A3,3,0,0,0,112.85,160.5Z"/><path class="cls-1" d="M124,164c0,1.67.85,2.9,2.65,2.9a2.84,2.84,0,0,0,2.57-1.45l2.8.45a5.31,5.31,0,0,1-5.32,3.37,5.42,5.42,0,0,1-5.8-5.77,5.36,5.36,0,0,1,5.67-5.75c3.57,0,5.52,2.4,5.52,5.85v.4Zm2.62-4.1a2.46,2.46,0,0,0-2.52,2.17h5.12A2.51,2.51,0,0,0,126.65,159.93Z"/><path class="cls-1" d="M141.85,169v-6c0-1.47-.32-2.6-2-2.6s-2.32,1.38-2.32,3V169h-3V158.13h3v1.32a4,4,0,0,1,3.4-1.67,3.74,3.74,0,0,1,4,4.3V169Z"/><path class="cls-1" d="M151.22,169.3a5.76,5.76,0,0,1-4.12-1.8l1.6-1.85a3.51,3.51,0,0,0,2.55,1.28,1.27,1.27,0,0,0,1.37-1.2c0-1.85-4.82-.92-4.82-4.57,0-2.2,1.82-3.42,3.87-3.42a5.58,5.58,0,0,1,3.52,1.15l-1.5,1.78a3,3,0,0,0-1.8-.73c-.52,0-1.15.33-1.15.92,0,1.58,5,.88,5,4.57C155.75,168,153.55,169.3,151.22,169.3Z"/><path class="cls-1" d="M169.65,169.18h-1.4l-5.52-11h3.4l2.85,6.1,2.85-6.1h3.4Z"/><path class="cls-1" d="M178.17,155.38a1.82,1.82,0,1,1,0-3.65,1.82,1.82,0,0,1,0,3.65ZM176.65,169V158.13h3V169Z"/><path class="cls-1" d="M182.52,169V150.23h3V169Z"/><path class="cls-1" d="M188.45,169V150.23h3V169Z"/><path class="cls-1" d="M202.65,169v-1.42a4.18,4.18,0,0,1-3.52,1.77c-3.25,0-5.32-2.7-5.32-5.8s2.07-5.72,5.25-5.72a4.51,4.51,0,0,1,3.6,1.72v-1.37h3V169Zm-2.7-8.45a3,3,0,1,0,3,3A3,3,0,0,0,199.95,160.5Z"/></svg>