<svg id="Layer_1" data-name="Layer 1" xmlns="http://www.w3.org/2000/svg" viewBox="0 0 250 240"><defs><style>.cls-1{fill:#d80201;}</style></defs><title>text</title><path class="cls-1" d="M64.58,139.35a6.49,6.49,0,0,1-5.72-3.17l2.1-2a3.82,3.82,0,0,0,3.5,2.22A2.37,2.37,0,0,0,67,134c0-3.42-7.32-1.8-7.32-7.17A4.89,4.89,0,0,1,64.9,122a7.31,7.31,0,0,1,4.87,1.85l-1.7,2.22a3.37,3.37,0,0,0-2.7-1.35c-1.08,0-2.32.67-2.32,1.88,0,2.82,7.32,1.42,7.32,7.25C70.38,137.25,67.88,139.35,64.58,139.35Z"/><path class="cls-1" d="M79.43,139.3a4.33,4.33,0,0,1-3.62-1.78v7.2h-3v-16.6h3v1.38a4.31,4.31,0,0,1,3.55-1.72c3.22,0,5.35,2.67,5.35,5.77S82.6,139.3,79.43,139.3Zm-.9-8.8a3,3,0,1,0,3,3A3,3,0,0,0,78.53,130.5Z"/><path class="cls-1" d="M95.28,139v-1.42a4.18,4.18,0,0,1-3.52,1.78c-3.25,0-5.32-2.7-5.32-5.8s2.07-5.72,5.25-5.72a4.51,4.51,0,0,1,3.6,1.72v-1.37h3V139Zm-5.22-12.85a1.8,1.8,0,1,1,0-3.6,1.8,1.8,0,1,1,0,3.6Zm2.52,4.4a3,3,0,1,0,3,3A3,3,0,0,0,92.58,130.5Zm2.67-4.4a1.82,1.82,0,0,1-1.8-1.8,1.8,1.8,0,1,1,1.8,1.8Z"/><path class="cls-1" d="M108.63,139v-6c0-1.47-.32-2.6-2-2.6-1.87,0-2.32,1.38-2.32,3V139h-3V128.13h3v1.33a4,4,0,0,1,3.4-1.67,3.74,3.74,0,0,1,4,4.3V139Z"/><path class="cls-1" d="M122,139v-6c0-1.47-.33-2.6-2-2.6s-2.32,1.38-2.32,3V139h-3V128.13h3v1.33a4,4,0,0,1,3.4-1.67,3.74,3.74,0,0,1,4,4.3V139Z"/><path class="cls-1" d="M136.15,139v-1.42a4.18,4.18,0,0,1-3.52,1.78c-3.25,0-5.32-2.7-5.32-5.8s2.07-5.72,5.25-5.72a4.51,4.51,0,0,1,3.6,1.72v-1.37h3V139Zm-2.7-8.45a3,3,0,1,0,3,3A3,3,0,0,0,133.45,130.5Z"/><path class="cls-1" d="M149.5,139v-6c0-1.47-.32-2.6-2-2.6-1.87,0-2.32,1.38-2.32,3V139h-3V128.13h3v1.33a4,4,0,0,1,3.4-1.67,3.74,3.74,0,0,1,4,4.3V139Z"/><path class="cls-1" d="M163.7,139v-1.42a4.18,4.18,0,0,1-3.52,1.78c-3.25,0-5.32-2.7-5.32-5.8s2.07-5.72,5.25-5.72a4.51,4.51,0,0,1,3.6,1.72v-9.27h3V139ZM161,130.5a3,3,0,1,0,3,3A3,3,0,0,0,161,130.5Z"/><path class="cls-1" d="M172.18,134c0,1.67.85,2.9,2.65,2.9a2.84,2.84,0,0,0,2.57-1.45l2.8.45a5.3,5.3,0,0,1-5.32,3.38,5.43,5.43,0,0,1-5.8-5.77,5.36,5.36,0,0,1,5.67-5.75c3.57,0,5.52,2.4,5.52,5.85v.4Zm2.62-4.1a2.45,2.45,0,0,0-2.52,2.17h5.12A2.51,2.51,0,0,0,174.8,129.93Z"/><path class="cls-1" d="M183.18,142.45l-1.92-.22,2.65-6.72,2.8.33Z"/><path class="cls-1" d="M66.78,169v-1.42a4.18,4.18,0,0,1-3.52,1.78c-3.25,0-5.32-2.7-5.32-5.8s2.07-5.72,5.25-5.72a4.51,4.51,0,0,1,3.6,1.72v-1.37h3V169Zm-2.7-8.45a3,3,0,1,0,3,3A3,3,0,0,0,64.08,160.5Z"/><path class="cls-1" d="M80.13,169v-6c0-1.47-.33-2.6-2-2.6s-2.32,1.38-2.32,3V169h-3V158.13h3v1.33a4,4,0,0,1,3.4-1.67,3.74,3.74,0,0,1,4,4.3V169Z"/><path class="cls-1" d="M93.45,169v-6c0-1.47-.32-2.6-2-2.6-1.87,0-2.32,1.38-2.32,3V169h-3V158.13h3v1.33a4,4,0,0,1,3.4-1.67,3.74,3.74,0,0,1,4,4.3V169Z"/><path class="cls-1" d="M105,169.3c-3.45,0-6.2-2.15-6.2-5.75s2.75-5.77,6.22-5.77,6.15,2.17,6.15,5.75S108.43,169.3,105,169.3Zm0-8.8a3,3,0,1,0,3.07,3A3.06,3.06,0,0,0,105,160.5Z"/><path class="cls-1" d="M120.58,160.88a2.68,2.68,0,0,0-1.45-.37c-2,0-2.6,1.45-2.6,3.25V169h-3V158.13h3v1.63A3.53,3.53,0,0,1,121,158Z"/><path class="cls-1" d="M122.5,169V150.23h3V169Z"/><path class="cls-1" d="M133.65,169.3c-3,0-5.22-1.33-5.22-4.55v-6.62h3v6.12c0,1.47.62,2.47,2.2,2.47s2.2-1,2.2-2.47v-6.12h3v6.62C138.9,168,136.63,169.3,133.65,169.3Z"/><path class="cls-1" d="M149.2,169v-6c0-1.47-.32-2.6-2-2.6-1.87,0-2.32,1.38-2.32,3V169h-3V158.13h3v1.33a4,4,0,0,1,3.4-1.67,3.74,3.74,0,0,1,4,4.3V169Z"/><path class="cls-1" d="M163.4,169v-1.42a4.18,4.18,0,0,1-3.52,1.78c-3.25,0-5.32-2.7-5.32-5.8s2.07-5.72,5.25-5.72a4.51,4.51,0,0,1,3.6,1.72v-9.27h3V169Zm-2.7-8.45a3,3,0,1,0,3,3A3,3,0,0,0,160.7,160.5Z"/><path class="cls-1" d="M177.63,169v-1.42a4.18,4.18,0,0,1-3.52,1.78c-3.25,0-5.32-2.7-5.32-5.8s2.07-5.72,5.25-5.72a4.51,4.51,0,0,1,3.6,1.72v-1.37h3V169Zm-2.7-8.45a3,3,0,1,0,3,3A3,3,0,0,0,174.93,160.5Z"/><path class="cls-1" d="M185.25,169.28a1.95,1.95,0,1,1,1.95-1.95A2,2,0,0,1,185.25,169.28Zm-1.55-5.1v-11.9h3.1v11.9Z"/></svg>