<svg id="Layer_1" data-name="Layer 1" xmlns="http://www.w3.org/2000/svg" viewBox="0 0 300 250"><defs><style>.cls-1{fill:#d4ac76;}</style></defs><title>text</title><path class="cls-1" d="M12.87,30.23V27.17h14v3.06H21.47v14H18.28V30.23Z"/><path class="cls-1" d="M31.5,44.18v-17h6.66a5.72,5.72,0,0,1,4.09,1.55,5.29,5.29,0,0,1,1.64,4,5.14,5.14,0,0,1-1.22,3.45A5.48,5.48,0,0,1,39.5,38l4.56,6.17H40.48l-4.41-6.07H34.69v6.07ZM37.66,30h-3v5.55h3a3.15,3.15,0,0,0,2.21-.76,2.54,2.54,0,0,0,.83-2,2.66,2.66,0,0,0-.85-2A3,3,0,0,0,37.66,30Z"/><path class="cls-1" d="M58,27.17h3.42l-5.63,10.1v6.91H52.6v-6.8L46.9,27.17h3.51l3.83,7.06Z"/><path class="cls-1" d="M75.5,37.07V34.24h6.1l0,1.45a8.71,8.71,0,0,1-1.25,4.51,8.55,8.55,0,0,1-3.22,3.13,8.81,8.81,0,0,1-4.33,1.11,8.81,8.81,0,0,1-8.85-8.81,8.83,8.83,0,0,1,8.89-8.83,8.42,8.42,0,0,1,6.34,2.75L77,31.7a5.5,5.5,0,0,0-4.18-1.84,5.4,5.4,0,0,0-4.07,1.66,6,6,0,0,0,0,8.2,5.2,5.2,0,0,0,3.86,1.67,6,6,0,0,0,3.78-1.18,5.42,5.42,0,0,0,2-3.14Z"/><path class="cls-1" d="M97.83,37.07V34.24h6.1l0,1.45a8.73,8.73,0,0,1-4.46,7.64,8.82,8.82,0,0,1-4.34,1.11,8.79,8.79,0,0,1-8.84-8.81,8.81,8.81,0,0,1,8.89-8.83,8.38,8.38,0,0,1,6.33,2.75L99.31,31.7a5.5,5.5,0,0,0-4.18-1.84,5.4,5.4,0,0,0-4.07,1.66,6,6,0,0,0,0,8.2,5.2,5.2,0,0,0,3.86,1.67,6.07,6.07,0,0,0,3.78-1.18,5.36,5.36,0,0,0,2-3.14Z"/><path class="cls-1" d="M106.46,47.28l2-5.74,2.66.92L108.24,48Z"/><path class="cls-1" d="M124.41,30.23V27.17h14v3.06H133v14h-3.19V30.23Z"/><path class="cls-1" d="M143,44.18v-17h6.66a5.72,5.72,0,0,1,4.09,1.55,5.29,5.29,0,0,1,1.64,4,5.14,5.14,0,0,1-1.22,3.45A5.48,5.48,0,0,1,151,38l4.57,6.17H152l-4.41-6.07h-1.38v6.07ZM149.2,30h-3v5.55h3a3.15,3.15,0,0,0,2.21-.76,2.54,2.54,0,0,0,.83-2,2.66,2.66,0,0,0-.85-2A3,3,0,0,0,149.2,30Z"/><path class="cls-1" d="M169.54,27.17H173l-5.63,10.1v6.91h-3.19v-6.8l-5.7-10.21H162l3.83,7.06Z"/><path class="cls-1" d="M187,37.07V34.24h6.1l0,1.45a8.71,8.71,0,0,1-1.25,4.51,8.55,8.55,0,0,1-3.22,3.13,8.81,8.81,0,0,1-4.33,1.11,8.81,8.81,0,0,1-8.85-8.81,8.83,8.83,0,0,1,8.89-8.83,8.42,8.42,0,0,1,6.34,2.75l-2.18,2.15a5.5,5.5,0,0,0-4.18-1.84,5.4,5.4,0,0,0-4.07,1.66,6,6,0,0,0,0,8.2,5.2,5.2,0,0,0,3.86,1.67,6,6,0,0,0,3.78-1.18,5.42,5.42,0,0,0,2-3.14Z"/><path class="cls-1" d="M209.37,37.07V34.24h6.1l0,1.45a8.71,8.71,0,0,1-1.25,4.51A8.55,8.55,0,0,1,211,43.33a8.81,8.81,0,0,1-4.33,1.11,8.81,8.81,0,0,1-8.85-8.81,8.83,8.83,0,0,1,8.89-8.83A8.42,8.42,0,0,1,213,29.55l-2.18,2.15a5.5,5.5,0,0,0-4.18-1.84,5.4,5.4,0,0,0-4.07,1.66,6,6,0,0,0,0,8.2,5.2,5.2,0,0,0,3.86,1.67,6,6,0,0,0,3.78-1.18,5.42,5.42,0,0,0,2-3.14Z"/><path class="cls-1" d="M218.35,44.18l6.56-17h2.88l6.53,17H231l-.9-2.35h-7.6l-.91,2.35Zm8-12.25L223.63,39h5.42Z"/><path class="cls-1" d="M238.85,44.18v-17h6.66a5.72,5.72,0,0,1,4.09,1.55,5.29,5.29,0,0,1,1.64,4A5.14,5.14,0,0,1,250,36.2,5.48,5.48,0,0,1,246.85,38l4.57,6.17h-3.59l-4.41-6.07H242v6.07ZM245,30h-3v5.55h3a3.15,3.15,0,0,0,2.21-.76,2.54,2.54,0,0,0,.83-2,2.66,2.66,0,0,0-.85-2A3,3,0,0,0,245,30Z"/><path class="cls-1" d="M266.24,37H260v4.35h6.91v2.84h-10.1v-17h9.9V30H260v4.14h6.29Z"/><path class="cls-1" d="M274.52,44a1.51,1.51,0,0,1-1.14.5,1.48,1.48,0,0,1-1.12-.5,1.72,1.72,0,0,1-.45-1.2,1.76,1.76,0,0,1,.45-1.21,1.45,1.45,0,0,1,1.12-.5,1.53,1.53,0,0,1,1.14.48,1.76,1.76,0,0,1,.48,1.23A1.66,1.66,0,0,1,274.52,44Zm5.17,0a1.51,1.51,0,0,1-1.14.5,1.48,1.48,0,0,1-1.12-.5,1.72,1.72,0,0,1-.45-1.2,1.76,1.76,0,0,1,.45-1.21,1.45,1.45,0,0,1,1.12-.5,1.53,1.53,0,0,1,1.14.48,1.76,1.76,0,0,1,.48,1.23A1.66,1.66,0,0,1,279.69,44Zm5.17,0a1.52,1.52,0,0,1-1.14.5,1.48,1.48,0,0,1-1.12-.5,1.72,1.72,0,0,1-.45-1.2,1.76,1.76,0,0,1,.45-1.21,1.45,1.45,0,0,1,1.12-.5,1.54,1.54,0,0,1,1.14.48,1.76,1.76,0,0,1,.48,1.23A1.66,1.66,0,0,1,284.86,44Z"/><path class="cls-1" d="M45.86,56.63V53.57h14v3.06H54.46V70.58H51.27V56.63Z"/><path class="cls-1" d="M64.49,70.58v-17h6.66a5.72,5.72,0,0,1,4.09,1.55,5.29,5.29,0,0,1,1.64,4,5.14,5.14,0,0,1-1.22,3.45,5.48,5.48,0,0,1-3.17,1.81l4.56,6.17H73.47l-4.41-6.07H67.68v6.07Zm6.16-14.17h-3V62h3a3.15,3.15,0,0,0,2.21-.76,2.54,2.54,0,0,0,.83-2,2.66,2.66,0,0,0-.85-2A3,3,0,0,0,70.65,56.41Z"/><path class="cls-1" d="M82.4,70.58v-17h3.19v17Z"/><path class="cls-1" d="M96.6,70.58l-6.5-17h3.32L98.09,65.8l4.62-12.23h3.22l-6.44,17Z"/><path class="cls-1" d="M114.38,70.8a8.14,8.14,0,0,1-3.21-.67,8.5,8.5,0,0,1-2.76-1.86l2-2.42a6.34,6.34,0,0,0,1.87,1.52,4.87,4.87,0,0,0,2.24.59,2.73,2.73,0,0,0,1.81-.58,1.81,1.81,0,0,0,.71-1.47,2.52,2.52,0,0,0-1.86-2.36l-1.9-.76a7.29,7.29,0,0,1-2.83-1.87,4.36,4.36,0,0,1-.91-2.9A4.44,4.44,0,0,1,111,54.79a5,5,0,0,1,3.61-1.41,7.28,7.28,0,0,1,5.23,1.94L118,57.69a4.41,4.41,0,0,0-3.36-1.48,2.32,2.32,0,0,0-1.53.49,1.53,1.53,0,0,0-.57,1.2,1.6,1.6,0,0,0,.45,1.17,4.5,4.5,0,0,0,1.46.87l2,.8c2.52,1,3.81,2.64,3.85,4.91a4.76,4.76,0,0,1-1.6,3.72A6.2,6.2,0,0,1,114.38,70.8Z"/><path class="cls-1" d="M135.16,63.39h-6.3v4.35h6.91v2.84h-10.1v-17h9.9v2.84h-6.71v4.14h6.3Z"/><path class="cls-1" d="M141.49,70.58v-17h3.19V67.52h6.25v3.06Z"/><path class="cls-1" d="M151.74,56.63V53.57h14v3.06h-5.41V70.58h-3.19V56.63Z"/><path class="cls-1" d="M170.38,70.58v-17H177a5.74,5.74,0,0,1,4.1,1.55,5.28,5.28,0,0,1,1.63,4,5.13,5.13,0,0,1-1.21,3.45,5.54,5.54,0,0,1-3.18,1.81l4.57,6.17h-3.59l-4.41-6.07h-1.37v6.07Zm6.16-14.17h-3V62h3a3.17,3.17,0,0,0,2.21-.76,2.53,2.53,0,0,0,.82-2,2.69,2.69,0,0,0-.84-2A3.06,3.06,0,0,0,176.54,56.41Z"/><path class="cls-1" d="M196.87,53.57h3.43l-5.63,10.1v6.91h-3.19v-6.8l-5.7-10.21h3.5l3.84,7.06Z"/><path class="cls-1" d="M214.38,63.47V60.64h6.09l0,1.45a8.7,8.7,0,0,1-1.24,4.51A8.58,8.58,0,0,1,216,69.73a8.75,8.75,0,0,1-4.33,1.11,8.82,8.82,0,1,1,0-17.64A8.39,8.39,0,0,1,218,56l-2.18,2.15a5.49,5.49,0,0,0-4.18-1.84,5.41,5.41,0,0,0-4.07,1.66,6,6,0,0,0,0,8.2,5.21,5.21,0,0,0,3.86,1.67,6,6,0,0,0,3.79-1.19,5.35,5.35,0,0,0,2-3.13Z"/><path class="cls-1" d="M236.71,63.47V60.64h6.09l0,1.45a8.7,8.7,0,0,1-1.24,4.51,8.58,8.58,0,0,1-3.23,3.13A8.78,8.78,0,0,1,234,70.84a8.82,8.82,0,1,1,0-17.64A8.39,8.39,0,0,1,240.36,56l-2.18,2.15A5.49,5.49,0,0,0,234,56.26a5.41,5.41,0,0,0-4.07,1.66,6,6,0,0,0,0,8.2,5.21,5.21,0,0,0,3.86,1.67,6,6,0,0,0,3.79-1.19,5.4,5.4,0,0,0,2-3.13Z"/><path class="cls-1" d="M251,70.37a1.53,1.53,0,0,1-1.13.5,1.47,1.47,0,0,1-1.12-.5,1.65,1.65,0,0,1-.47-1.2,1.69,1.69,0,0,1,.47-1.21,1.43,1.43,0,0,1,1.12-.5,1.55,1.55,0,0,1,1.13.48,1.8,1.8,0,0,1,.47,1.23A1.69,1.69,0,0,1,251,70.37Zm-2.32-4.5L248.39,54h3l-.26,11.83Z"/></svg>