<svg id="Layer_1" data-name="Layer 1" xmlns="http://www.w3.org/2000/svg" viewBox="0 0 250 360"><defs><style>.cls-1{fill:#d80201;}</style></defs><title>text</title><path class="cls-1" d="M50.28,173.42l-10.15-11.6V173.1H36.88v-17h2.25l10.15,11.6V156.43h3.25v17Z"/><path class="cls-1" d="M59,178.9H55.61l4-7.43-5.12-9.2H58l3.25,6.15,3.1-6.15h3.45Z"/><path class="cls-1" d="M76.65,173.1v-5.93c0-1.5-.32-2.67-2.07-2.67s-2.3,1.45-2.3,3.05v5.55h-3V154.38h3v9.29a3.94,3.94,0,0,1,3.4-1.75,4.16,4.16,0,0,1,3.15,1.33,4.31,4.31,0,0,1,.85,3.05v6.8Z"/><path class="cls-1" d="M85.1,168.17c.05,1.68.85,2.9,2.65,2.9a2.84,2.84,0,0,0,2.58-1.45l2.8.45a5.31,5.31,0,0,1-5.33,3.38A5.43,5.43,0,0,1,82,167.67a5.36,5.36,0,0,1,5.67-5.75c3.57,0,5.52,2.4,5.52,5.85v.4Zm2.63-4.1a2.44,2.44,0,0,0-2.52,2.18h5.12A2.52,2.52,0,0,0,87.73,164.07Z"/><path class="cls-1" d="M98.58,164.87v8.23h-3v-8.23h-1.2v-2.6h1.2v-3.69h3v3.69h2.12v2.6Z"/><path class="cls-1" d="M104,173.42a1.95,1.95,0,1,1,2-1.95A2,2,0,0,1,104,173.42Zm-1.55-5.1V156.43h3.1v11.89Z"/><path class="cls-1" d="M35.38,203.1l4.93-5.58c1.34-1.52,3.82-4.05,3.82-6.17a2.49,2.49,0,0,0-2.53-2.47c-1.64,0-2.42,1.22-2.47,2.75H35.66c.22-3.38,2.42-5.63,5.84-5.63,3.13,0,5.88,2.05,5.88,5.35,0,2.32-1.53,4.22-3,5.82l-2.89,3.1h6v2.83Z"/><path class="cls-1" d="M49.13,198.62v-2.55h5.62v2.55Z"/><path class="cls-1" d="M57.68,189.53a1.83,1.83,0,0,1,0-3.65,1.83,1.83,0,0,1,0,3.65ZM56.16,203.1V192.27h3V203.1Z"/><path class="cls-1" d="M69.43,203.1v-6c0-1.48-.33-2.6-2.05-2.6-1.88,0-2.33,1.37-2.33,3v5.6H62V192.27h3v1.33a4,4,0,0,1,3.4-1.68,3.74,3.74,0,0,1,4,4.3v6.88Z"/><path class="cls-1" d="M73.91,198.62v-2.55h5.62v2.55Z"/><path class="cls-1" d="M85.2,203.1V189.28H82.8v-2.85h5.65V203.1Z"/><path class="cls-1" d="M108.8,203.1v-5.93c0-1.5-.32-2.67-2.07-2.67s-2.3,1.45-2.3,3.05v5.55h-3V184.38h3v9.29a3.94,3.94,0,0,1,3.4-1.75,4.16,4.16,0,0,1,3.15,1.33,4.31,4.31,0,0,1,.85,3.05v6.8Z"/><path class="cls-1" d="M120,203.45c-3,0-5.22-1.33-5.22-4.55v-6.63h3v6.13c0,1.47.63,2.47,2.2,2.47s2.2-1,2.2-2.47v-6.13h3v6.63C125.2,202.12,122.93,203.45,120,203.45Z"/><path class="cls-1" d="M131.55,203.45a5.76,5.76,0,0,1-4.12-1.8l1.6-1.85a3.51,3.51,0,0,0,2.55,1.27,1.27,1.27,0,0,0,1.37-1.2c0-1.85-4.82-.92-4.82-4.57,0-2.2,1.82-3.42,3.87-3.42a5.59,5.59,0,0,1,3.53,1.14L134,194.8a3.05,3.05,0,0,0-1.8-.73c-.53,0-1.15.33-1.15.93,0,1.57,5,.87,5,4.57C136.08,202.1,133.88,203.45,131.55,203.45Z"/><path class="cls-1" d="M145.65,203.1l-4.07-4.65-.33.32v4.33h-3V184.38h3v11.84l4.05-3.95h4.1L144.33,197l5.47,6.08Z"/><path class="cls-1" d="M158.85,203.1v-1.43a4.17,4.17,0,0,1-3.52,1.78c-3.25,0-5.33-2.7-5.33-5.8s2.08-5.73,5.25-5.73a4.49,4.49,0,0,1,3.6,1.73v-1.38h3.05V203.1Zm-2.7-8.45a3,3,0,1,0,3,3A3,3,0,0,0,156.15,194.65Z"/><path class="cls-1" d="M167.85,194.87v8.23h-3v-8.23h-1.2v-2.6h1.2v-3.69h3v3.69H170v2.6Z"/><path class="cls-1" d="M179.83,203.1v-1.43a4.18,4.18,0,0,1-3.53,1.78c-3.25,0-5.32-2.7-5.32-5.8s2.07-5.73,5.25-5.73a4.51,4.51,0,0,1,3.6,1.73v-1.38h3V203.1Zm-2.7-8.45a3,3,0,1,0,3,3A3,3,0,0,0,177.13,194.65Z"/><path class="cls-1" d="M185.78,203.1V184.38h3V203.1Z"/><path class="cls-1" d="M197.33,203.45c-3.45,0-6.2-2.15-6.2-5.75s2.75-5.78,6.22-5.78,6.15,2.18,6.15,5.75S200.75,203.45,197.33,203.45Zm0-8.8a3,3,0,1,0,3.08,3A3.06,3.06,0,0,0,197.3,194.65Z"/><path class="cls-1" d="M215.88,207a5.91,5.91,0,0,1-4.6,1.9c-2.78,0-5.45-1.6-5.75-4.55h3.27a2.42,2.42,0,0,0,2.58,2c1.9,0,2.67-1.33,2.67-3.08v-1.62a4.5,4.5,0,0,1-3.65,1.8c-3.2,0-5.15-2.58-5.15-5.63s2-5.9,5.3-5.9a4.06,4.06,0,0,1,3.5,1.75v-1.4h3V202.7C217.1,204.4,217,205.67,215.88,207Zm-4.48-12.37a3,3,0,1,0,3,3A3,3,0,0,0,211.4,194.65Z"/></svg>