<svg id="Layer_1" data-name="Layer 1" xmlns="http://www.w3.org/2000/svg" viewBox="0 0 300 250"><defs><style>.cls-1{fill:#d4ac76;}</style></defs><title>text</title><path class="cls-1" d="M28.83,44.18V21.76H41V25.5H33v6.12h7.13v3.74H33v8.82Z"/><path class="cls-1" d="M69.92,33a11.61,11.61,0,0,1-11.64,11.6A11.61,11.61,0,0,1,46.64,33,11.63,11.63,0,0,1,58.28,21.33,11.63,11.63,0,0,1,69.92,33ZM53,38.31a7.37,7.37,0,0,0,10.54,0,7.69,7.69,0,0,0,0-10.73,7.37,7.37,0,0,0-10.54,0,7.74,7.74,0,0,0,0,10.73Zm3.32-18.85a1.84,1.84,0,0,1-1.37.59,1.88,1.88,0,0,1-1.39-.59A2,2,0,0,1,53,18a1.95,1.95,0,0,1,2-2,1.82,1.82,0,0,1,1.35.58A2,2,0,0,1,56.87,18,2,2,0,0,1,56.32,19.46Zm6.67,0a2.18,2.18,0,0,1-3,0A1.94,1.94,0,0,1,59.4,18,1.88,1.88,0,0,1,60,16.6a2.2,2.2,0,0,1,3,0A1.88,1.88,0,0,1,63.6,18,1.94,1.94,0,0,1,63,19.46Z"/><path class="cls-1" d="M77.09,44.18V21.76h8.77a7.56,7.56,0,0,1,5.4,2,7,7,0,0,1,2.15,5.32,6.74,6.74,0,0,1-1.6,4.54A7.22,7.22,0,0,1,87.62,36l6,8.14H88.92l-5.82-8H81.29v8ZM85.21,25.5H81.29v7.31h3.92a4.14,4.14,0,0,0,2.91-1,3.35,3.35,0,0,0,1.09-2.59,3.51,3.51,0,0,0-1.12-2.66A4,4,0,0,0,85.21,25.5Z"/><path class="cls-1" d="M106.51,44.18,97.94,21.76h4.38l6.15,16.12,6.09-16.12h4.25l-8.49,22.42Z"/><path class="cls-1" d="M137.32,34.7H129v5.74h9.1v3.74H124.82V21.76h13.05V25.5H129V31h8.29Z"/><path class="cls-1" d="M145.67,44.18V21.76h8.77a7.54,7.54,0,0,1,5.4,2A7,7,0,0,1,162,29.12a6.74,6.74,0,0,1-1.61,4.54A7.19,7.19,0,0,1,156.21,36l6,8.14H157.5l-5.81-8h-1.81v8Zm8.12-18.68h-3.91v7.31h3.91a4.18,4.18,0,0,0,2.92-1,3.37,3.37,0,0,0,1.08-2.59,3.54,3.54,0,0,0-1.11-2.66A4,4,0,0,0,153.79,25.5Z"/><path class="cls-1" d="M169.28,44.18V21.76h3.88v9.88l8.59-9.88h5.19l-7.91,9,8.08,13.47h-4.84L176.16,34l-3,3.39v6.84Z"/><path class="cls-1" d="M193.78,44.18V21.76H198V40.15h8.23v4Z"/><path class="cls-1" d="M213,44.18V21.76h4.2V44.18Z"/><path class="cls-1" d="M239.63,34.81V31.07h8l0,1.92A11.52,11.52,0,0,1,246,38.93a11.3,11.3,0,0,1-4.25,4.13A11.56,11.56,0,0,1,236,44.53a11.59,11.59,0,0,1-11.66-11.62,11.63,11.63,0,0,1,11.71-11.64,11.08,11.08,0,0,1,8.36,3.62l-2.87,2.83a7.28,7.28,0,0,0-5.51-2.42,7.15,7.15,0,0,0-5.37,2.19,7.51,7.51,0,0,0-2.12,5.4,7.48,7.48,0,0,0,2.13,5.41,6.88,6.88,0,0,0,5.09,2.2,7.93,7.93,0,0,0,5-1.56,7,7,0,0,0,2.64-4.13Z"/><path class="cls-1" d="M251.46,44.18l8.65-22.42h3.8l8.61,22.42H268.2L267,41.08H257l-1.19,3.1ZM262,28l-3.59,9.3h7.15Z"/><path class="cls-1" d="M21,76.18V53.76h6.39A11,11,0,0,1,35.35,57,10.79,10.79,0,0,1,38.65,65a10.53,10.53,0,0,1-3.34,8,11.45,11.45,0,0,1-8.13,3.13ZM27.46,57.5H24.9V72.44h2.59a6.48,6.48,0,0,0,5-2.17,7.6,7.6,0,0,0,2-5.34,7.38,7.38,0,0,0-2-5.3A6.57,6.57,0,0,0,27.46,57.5Z"/><path class="cls-1" d="M45.93,76.18V53.76h4.2V76.18Z"/><path class="cls-1" d="M56.28,57.79v-4H74.75v4H67.62V76.18H63.41V57.79Z"/><path class="cls-1" d="M79.42,57.79v-4H97.9v4H90.76V76.18h-4.2V57.79Z"/><path class="cls-1" d="M116.83,76.18V53.76H121V72.15h8.23v4Z"/><path class="cls-1" d="M136.06,76.18V53.76h4.2V76.18Z"/><path class="cls-1" d="M154.78,76.18l-8.57-22.42h4.38l6.15,16.12,6.09-16.12h4.25l-8.49,22.42Z"/><path class="cls-1" d="M178.21,76.47a11.33,11.33,0,0,1-7.86-3.34L173,69.94a8.09,8.09,0,0,0,2.47,2,6.25,6.25,0,0,0,2.95.79,3.65,3.65,0,0,0,2.39-.77,2.42,2.42,0,0,0,.93-1.94c0-1.39-.82-2.43-2.46-3.11l-2.5-1a9.49,9.49,0,0,1-3.72-2.47,5.73,5.73,0,0,1-1.21-3.81,5.84,5.84,0,0,1,1.91-4.26,6.51,6.51,0,0,1,4.75-1.87,9.68,9.68,0,0,1,6.9,2.56L183,59.19a5.78,5.78,0,0,0-4.43-1.95,3,3,0,0,0-2,.65,2,2,0,0,0-.76,1.58,2.1,2.1,0,0,0,.59,1.53,6,6,0,0,0,1.93,1.16l2.61,1.05c3.32,1.33,5,3.48,5.08,6.47a6.28,6.28,0,0,1-2.11,4.9A8.16,8.16,0,0,1,178.21,76.47Z"/><path class="cls-1" d="M199,76.18l-8.57-22.42h4.38L201,69.88l6.08-16.12h4.25l-8.48,22.42Z"/><path class="cls-1" d="M229.84,66.7h-8.29v5.74h9.11v3.74H217.35V53.76H230.4V57.5h-8.85V63h8.29Z"/><path class="cls-1" d="M238.2,76.18V53.76H247a7.56,7.56,0,0,1,5.4,2,7,7,0,0,1,2.15,5.32,6.74,6.74,0,0,1-1.6,4.54A7.22,7.22,0,0,1,248.73,68l6,8.14H250l-5.82-8H242.4v8Zm8.12-18.68H242.4v7.31h3.92a4.14,4.14,0,0,0,2.91-1,3.35,3.35,0,0,0,1.09-2.59,3.51,3.51,0,0,0-1.12-2.66A4,4,0,0,0,246.32,57.5Z"/><path class="cls-1" d="M261.8,76.18V53.76h3.89v9.88l8.58-9.88h5.19l-7.91,9,8.09,13.47h-4.85L268.69,66l-3,3.39v6.84Z"/></svg>