<svg id="Layer_1" data-name="Layer 1" xmlns="http://www.w3.org/2000/svg" viewBox="0 0 300 250"><defs><style>.cls-1{fill:#fff;}</style></defs><title>text</title><path class="cls-1" d="M22.12,53.5l-5.39,16H14.8l-5.39-16H11.5L16,66.69,20.38,53.5Z"/><path class="cls-1" d="M25.94,53.5v2H24v-2Zm-.06,4.16V69.49H24V57.66Z"/><path class="cls-1" d="M45.32,69.49h-1.9L40,62.88l-2.57,2.95v3.66H35.55v-16h1.84V63.75l5.5-6.09h2l-3.69,4.15Z"/><path class="cls-1" d="M51.31,69.82A4.49,4.49,0,0,1,47.51,68a7.22,7.22,0,0,1-1.37-4.48A6.46,6.46,0,0,1,47.68,59a4.94,4.94,0,0,1,3.82-1.69,4.67,4.67,0,0,1,3.86,1.77,6.94,6.94,0,0,1,1.41,4.44,6.64,6.64,0,0,1-1.52,4.53A5,5,0,0,1,51.31,69.82Zm.14-1.52a2.94,2.94,0,0,0,2.36-1.16,5.69,5.69,0,0,0,.95-3.61,5.23,5.23,0,0,0-1-3.57,3,3,0,0,0-2.33-1.11A2.92,2.92,0,0,0,49.11,60a5.45,5.45,0,0,0-1,3.54,5.66,5.66,0,0,0,1,3.68A3,3,0,0,0,51.45,68.3Z"/><path class="cls-1" d="M60.43,69.49h-.89v-16h1.84v6.12a3.86,3.86,0,0,1,3.49-2.29,4.33,4.33,0,0,1,3.42,1.6,7,7,0,0,1,1.37,4.67A7.14,7.14,0,0,1,68.31,68a4.23,4.23,0,0,1-3.52,1.79,4,4,0,0,1-3.7-2.29Zm1-4.64A3.59,3.59,0,0,0,62.5,67.5a3.28,3.28,0,0,0,2.1.82,2.68,2.68,0,0,0,2.27-1.22,5.75,5.75,0,0,0,.86-3.35,6.69,6.69,0,0,0-.83-3.59,2.62,2.62,0,0,0-2.32-1.31,2.89,2.89,0,0,0-2.09.93,4,4,0,0,0-1.11,2.41Z"/><path class="cls-1" d="M74.27,69.49H72.43v-16h1.84Z"/><path class="cls-1" d="M85.77,66l1.71.36a4.93,4.93,0,0,1-1.83,2.51,5.29,5.29,0,0,1-3.2,1,5,5,0,0,1-3.93-1.71,7.44,7.44,0,0,1,.06-9,5,5,0,0,1,3.92-1.74,4.73,4.73,0,0,1,3.73,1.6,7.26,7.26,0,0,1,1.45,4.81H79.07c0,1.79.38,3,1.13,3.62a3.69,3.69,0,0,0,2.38.94A3.26,3.26,0,0,0,85.77,66Zm-.11-3.59a5.26,5.26,0,0,0-.33-1.77,3,3,0,0,0-1-1.32,2.85,2.85,0,0,0-1.75-.55,3.09,3.09,0,0,0-2.32,1,4,4,0,0,0-1.07,2.65Z"/><path class="cls-1" d="M92.28,69.49H90.44V57.66h1.62v2.76a6,6,0,0,1,1.71-2.54,3.21,3.21,0,0,1,1.77-.58c.19,0,.43,0,.73.05v1.76h-.38a3.22,3.22,0,0,0-2.53,1.14,4.61,4.61,0,0,0-1.08,3Z"/><path class="cls-1" d="M13.06,82.29v2.06h-2V82.29ZM13,86.46V98.29H11.16V86.46Z"/><path class="cls-1" d="M26,98.29H24.28v-7.6a3,3,0,0,0-.72-2.31,2.41,2.41,0,0,0-1.73-.67,3,3,0,0,0-2.36,1.12,4.42,4.42,0,0,0-1,3v6.49H16.67V86.46h1.71v2.17a4.26,4.26,0,0,1,3.74-2.5,3.76,3.76,0,0,1,2.26.68,3.64,3.64,0,0,1,1.27,1.54,9.4,9.4,0,0,1,.35,3.1Z"/><path class="cls-1" d="M39,98.29H37.28v-7.6a3,3,0,0,0-.71-2.31,2.42,2.42,0,0,0-1.73-.67,3,3,0,0,0-2.37,1.12,4.47,4.47,0,0,0-.95,3v6.49H29.68V86.46h1.71v2.17a4.26,4.26,0,0,1,3.74-2.5,3.73,3.73,0,0,1,2.25.68,3.59,3.59,0,0,1,1.28,1.54,9.4,9.4,0,0,1,.35,3.1Z"/><path class="cls-1" d="M52,98.29H50.13V91.11a8.12,8.12,0,0,0-.16-1.9,2.07,2.07,0,0,0-.75-1.1,2.14,2.14,0,0,0-1.37-.46,3,3,0,0,0-2.37,1.16,4.77,4.77,0,0,0-.95,3.11v6.37H42.69v-16h1.84v6.34a3.89,3.89,0,0,1,3.58-2.5,4,4,0,0,1,1.86.41,3.09,3.09,0,0,1,1.25,1.08,4.32,4.32,0,0,1,.59,1.31A10.1,10.1,0,0,1,52,91.11Z"/><path class="cls-1" d="M59.89,98.62a4.49,4.49,0,0,1-3.8-1.81,7.22,7.22,0,0,1-1.37-4.48,6.41,6.41,0,0,1,1.54-4.51,4.92,4.92,0,0,1,3.82-1.69,4.67,4.67,0,0,1,3.86,1.77,6.94,6.94,0,0,1,1.41,4.44,6.69,6.69,0,0,1-1.52,4.53A5,5,0,0,1,59.89,98.62ZM60,97.1a3,3,0,0,0,2.36-1.16,5.69,5.69,0,0,0,1-3.61,5.29,5.29,0,0,0-1-3.57A3,3,0,0,0,60,87.65a2.91,2.91,0,0,0-2.32,1.12,5.39,5.39,0,0,0-.95,3.54A5.6,5.6,0,0,0,57.69,96,3,3,0,0,0,60,97.1Z"/><path class="cls-1" d="M70,98.29H68.12v-16H70Z"/><path class="cls-1" d="M82.88,82.29v16H81.22v-2a4,4,0,0,1-3.74,2.36,4.13,4.13,0,0,1-3.42-1.74,7,7,0,0,1-1.34-4.41,7.44,7.44,0,0,1,1.33-4.53,4.2,4.2,0,0,1,7,.13V82.29ZM81,91a3.32,3.32,0,0,0-1-2.5,3,3,0,0,0-2.21-.94,2.69,2.69,0,0,0-2.26,1.22,5.73,5.73,0,0,0-.88,3.42,6.63,6.63,0,0,0,.81,3.62,2.55,2.55,0,0,0,2.23,1.25A3,3,0,0,0,80.06,96a3.65,3.65,0,0,0,1-2.53Z"/><path class="cls-1" d="M89,95.62V98l-1.75,3.28h-1l1.38-3h-1.2V95.62Z"/><path class="cls-1" d="M100.38,94.76l1.71.36a4.82,4.82,0,0,1-1.83,2.51,5.29,5.29,0,0,1-3.2,1,5,5,0,0,1-3.92-1.71,6.53,6.53,0,0,1-1.5-4.47,6.62,6.62,0,0,1,1.55-4.57,5,5,0,0,1,3.92-1.74,4.71,4.71,0,0,1,3.73,1.6,7.21,7.21,0,0,1,1.45,4.81h-8.6c0,1.79.37,3,1.12,3.62a3.69,3.69,0,0,0,2.38.94A3.26,3.26,0,0,0,100.38,94.76Zm-.11-3.59a4.81,4.81,0,0,0-.33-1.77,2.92,2.92,0,0,0-1-1.32,2.76,2.76,0,0,0-1.74-.55,3.11,3.11,0,0,0-2.33,1,4.05,4.05,0,0,0-1.07,2.65Z"/><path class="cls-1" d="M108.86,91.58V93h-5.29V91.58Z"/><path class="cls-1" d="M120.34,98.29H118.5V91.11a8.71,8.71,0,0,0-.16-1.9,2.07,2.07,0,0,0-.75-1.1,2.16,2.16,0,0,0-1.37-.46,3,3,0,0,0-2.37,1.16,4.72,4.72,0,0,0-1,3.11v6.37h-1.84v-16h1.84v6.34a3.91,3.91,0,0,1,3.59-2.5,4,4,0,0,1,1.86.41,3.09,3.09,0,0,1,1.25,1.08,4.58,4.58,0,0,1,.59,1.31,10.8,10.8,0,0,1,.16,2.18Z"/><path class="cls-1" d="M133.27,98.29h-1.81q-.11-.56-.21-2.13a4.28,4.28,0,0,1-4.15,2.46A4.14,4.14,0,0,1,124,97.56,3.44,3.44,0,0,1,123,95a3.54,3.54,0,0,1,1.53-3c1-.78,2.74-1.16,5.18-1.16.32,0,.85,0,1.57,0a7,7,0,0,0-.22-2,1.85,1.85,0,0,0-.92-1,4,4,0,0,0-1.85-.37c-1.87,0-3,.71-3.26,2.13l-1.7-.29c.41-2.18,2.16-3.27,5.23-3.27A4.64,4.64,0,0,1,132,87.21,5.4,5.4,0,0,1,133,91v5A10.22,10.22,0,0,0,133.27,98.29Zm-2-5.92c-.75,0-1.32-.07-1.72-.07a6.61,6.61,0,0,0-3.38.72,2.28,2.28,0,0,0-1.21,2.09,2,2,0,0,0,.65,1.48,2.63,2.63,0,0,0,1.88.61A3.5,3.5,0,0,0,130.21,96a4.17,4.17,0,0,0,1.07-2.84Q131.28,92.82,131.25,92.37Z"/><path class="cls-1" d="M146,98.29h-1.72v-7.6a3.08,3.08,0,0,0-.71-2.31,2.45,2.45,0,0,0-1.74-.67,3,3,0,0,0-2.36,1.12,4.41,4.41,0,0,0-.95,3v6.49h-1.84V86.46h1.71v2.17a4.25,4.25,0,0,1,3.74-2.5,3.73,3.73,0,0,1,2.25.68,3.67,3.67,0,0,1,1.28,1.54,9.47,9.47,0,0,1,.34,3.1Z"/><path class="cls-1" d="M159,82.29v16H157.3v-2a4,4,0,0,1-3.75,2.36,4.12,4.12,0,0,1-3.41-1.74,7,7,0,0,1-1.34-4.41,7.5,7.5,0,0,1,1.32-4.53,4.16,4.16,0,0,1,3.52-1.81,4.09,4.09,0,0,1,3.48,1.94V82.29ZM157.12,91a3.36,3.36,0,0,0-1-2.5,3,3,0,0,0-2.21-.94,2.69,2.69,0,0,0-2.26,1.22,5.73,5.73,0,0,0-.88,3.42,6.63,6.63,0,0,0,.81,3.62,2.54,2.54,0,0,0,2.23,1.25A3,3,0,0,0,156.14,96a3.65,3.65,0,0,0,1-2.53Z"/><path class="cls-1" d="M170.46,94.76l1.71.36a4.88,4.88,0,0,1-1.83,2.51,5.29,5.29,0,0,1-3.2,1,5,5,0,0,1-3.93-1.71,7.44,7.44,0,0,1,.06-9,5,5,0,0,1,3.92-1.74,4.73,4.73,0,0,1,3.73,1.6,7.26,7.26,0,0,1,1.45,4.81h-8.61c0,1.79.38,3,1.13,3.62a3.69,3.69,0,0,0,2.38.94A3.26,3.26,0,0,0,170.46,94.76Zm-.11-3.59A5,5,0,0,0,170,89.4a2.92,2.92,0,0,0-1-1.32,2.78,2.78,0,0,0-1.74-.55,3.11,3.11,0,0,0-2.33,1,4,4,0,0,0-1.07,2.65Z"/><path class="cls-1" d="M177,98.29h-1.84v-16H177Z"/><path class="cls-1" d="M15.41,127.42a4.49,4.49,0,0,1-3.81-1.81,7.19,7.19,0,0,1-1.36-4.48,6.45,6.45,0,0,1,1.53-4.51,5,5,0,0,1,3.82-1.69,4.66,4.66,0,0,1,3.86,1.77,6.89,6.89,0,0,1,1.42,4.44,6.64,6.64,0,0,1-1.53,4.53A5,5,0,0,1,15.41,127.42Zm.14-1.52a2.93,2.93,0,0,0,2.35-1.16,5.69,5.69,0,0,0,1-3.61,5.23,5.23,0,0,0-1-3.57,3,3,0,0,0-2.33-1.11,2.94,2.94,0,0,0-2.32,1.12,5.45,5.45,0,0,0-.95,3.54,5.66,5.66,0,0,0,.95,3.68A3,3,0,0,0,15.55,125.9Z"/><path class="cls-1" d="M33.3,113.4v1.47a3.35,3.35,0,0,0-1.69.29,1.54,1.54,0,0,0-.57,1.06,4.25,4.25,0,0,1,1.14,2.86,3.69,3.69,0,0,1-1.24,2.77A4.63,4.63,0,0,1,27.62,123a3.75,3.75,0,0,1-.81-.07,7.22,7.22,0,0,0-.81-.13,1.45,1.45,0,0,0-.76.31,1,1,0,0,0-.45.81.87.87,0,0,0,.65.91,14.06,14.06,0,0,0,3,.27,16.86,16.86,0,0,1,3,.28,3,3,0,0,1,1.63,1,2.59,2.59,0,0,1,.67,1.82c0,2.26-2,3.39-6,3.39a7.75,7.75,0,0,1-4.12-.85,2.6,2.6,0,0,1-1.3-2.27,2.38,2.38,0,0,1,1.81-2.37,2.23,2.23,0,0,1-1.16-1.91,2.28,2.28,0,0,1,1.64-2.1,3.85,3.85,0,0,1-1.54-3.13,3.64,3.64,0,0,1,1.31-2.88,4.77,4.77,0,0,1,3.2-1.12,5.68,5.68,0,0,1,2.43.5,2.27,2.27,0,0,1,.81-1.6,3.41,3.41,0,0,1,1.94-.45Zm-7.83,13.21a1.79,1.79,0,0,0-1.29,1.63,1.55,1.55,0,0,0,1.06,1.4,6.41,6.41,0,0,0,2.7.5,8.51,8.51,0,0,0,2.79-.43c.85-.29,1.27-.77,1.27-1.45a1.18,1.18,0,0,0-.38-.9,1.84,1.84,0,0,0-1-.44,22.64,22.64,0,0,0-2.27-.15C27,126.74,26.09,126.69,25.47,126.61Zm2.21-5a2.63,2.63,0,0,0,1.91-.72,2.51,2.51,0,0,0,.73-1.87,2.56,2.56,0,0,0-2.62-2.66,2.76,2.76,0,0,0-1.85.69,2.79,2.79,0,0,0-.08,3.85A2.62,2.62,0,0,0,27.68,121.61Z"/><path class="cls-1" d="M50.67,111.09v16H49v-2a4,4,0,0,1-3.74,2.36,4.12,4.12,0,0,1-3.41-1.74,7,7,0,0,1-1.34-4.41,7.5,7.5,0,0,1,1.32-4.53,4.14,4.14,0,0,1,3.52-1.81,4.09,4.09,0,0,1,3.48,1.94v-5.78Zm-1.84,8.74a3.36,3.36,0,0,0-.95-2.5,3,3,0,0,0-2.22-.94,2.69,2.69,0,0,0-2.25,1.22,5.73,5.73,0,0,0-.89,3.42,6.53,6.53,0,0,0,.82,3.62,2.53,2.53,0,0,0,2.23,1.25,3,3,0,0,0,2.27-1.08,3.64,3.64,0,0,0,1-2.53Z"/><path class="cls-1" d="M56.25,111.09v2.06h-2v-2.06Zm-.06,4.16v11.84H54.35V115.25Z"/><path class="cls-1" d="M69.52,113.4v1.47a3.35,3.35,0,0,0-1.69.29,1.54,1.54,0,0,0-.57,1.06,4.25,4.25,0,0,1,1.14,2.86,3.65,3.65,0,0,1-1.24,2.77A4.62,4.62,0,0,1,63.84,123a3.88,3.88,0,0,1-.81-.07,7.22,7.22,0,0,0-.81-.13,1.48,1.48,0,0,0-.76.31.94.94,0,0,0-.44.81.86.86,0,0,0,.64.91,14.06,14.06,0,0,0,3,.27,16.76,16.76,0,0,1,3,.28,3,3,0,0,1,1.63,1,2.59,2.59,0,0,1,.67,1.82q0,3.39-5.95,3.39a7.77,7.77,0,0,1-4.12-.85,2.62,2.62,0,0,1-1.3-2.27,2.39,2.39,0,0,1,1.81-2.37,2.25,2.25,0,0,1-1.16-1.91,2.29,2.29,0,0,1,1.64-2.1,3.88,3.88,0,0,1-1.54-3.13,3.61,3.61,0,0,1,1.32-2.88,4.73,4.73,0,0,1,3.2-1.12,5.6,5.6,0,0,1,2.42.5,2.24,2.24,0,0,1,.82-1.6,3.37,3.37,0,0,1,1.94-.45Zm-7.83,13.21a1.79,1.79,0,0,0-1.28,1.63,1.54,1.54,0,0,0,1.06,1.4,6.35,6.35,0,0,0,2.7.5,8.59,8.59,0,0,0,2.79-.43c.84-.29,1.26-.77,1.26-1.45a1.18,1.18,0,0,0-.37-.9,1.84,1.84,0,0,0-1-.44,22.64,22.64,0,0,0-2.27-.15C63.27,126.74,62.31,126.69,61.69,126.61Zm2.21-5a2.62,2.62,0,0,0,1.91-.72,2.52,2.52,0,0,0,.74-1.87,2.58,2.58,0,0,0-.77-1.92,2.55,2.55,0,0,0-1.86-.74,2.78,2.78,0,0,0-1.85.69A2.79,2.79,0,0,0,62,120.9,2.62,2.62,0,0,0,63.9,121.61Z"/><path class="cls-1" d="M73.54,111.09v2.06h-2v-2.06Zm-.06,4.16v11.84H71.64V115.25Z"/><path class="cls-1" d="M82.52,125.84v1.45a12.42,12.42,0,0,1-1.69.13q-3.43,0-3.43-3.59V116.7H75.3v-1.45h2.1l.08-3,1.71-.17v3.14h2.65v1.45H79.19v7.44c0,1.22.63,1.83,1.9,1.83A9.84,9.84,0,0,0,82.52,125.84Z"/><path class="cls-1" d="M93.79,127.09H92c-.07-.37-.14-1.09-.21-2.13a4.28,4.28,0,0,1-4.15,2.46,4.14,4.14,0,0,1-3.06-1.06,3.44,3.44,0,0,1-1.07-2.53,3.54,3.54,0,0,1,1.53-3c1-.77,2.74-1.16,5.17-1.16.33,0,.86,0,1.58,0a7,7,0,0,0-.22-2,1.85,1.85,0,0,0-.92-1,4,4,0,0,0-1.85-.37c-1.87,0-3,.71-3.26,2.13l-1.7-.29c.41-2.18,2.16-3.27,5.23-3.27A4.64,4.64,0,0,1,92.52,116a5.46,5.46,0,0,1,1,3.76v5A10.22,10.22,0,0,0,93.79,127.09Zm-2-5.92c-.75,0-1.33-.07-1.72-.07a6.61,6.61,0,0,0-3.38.72,2.28,2.28,0,0,0-1.21,2.09,2,2,0,0,0,.65,1.48A2.63,2.63,0,0,0,88,126a3.5,3.5,0,0,0,2.74-1.21A4.17,4.17,0,0,0,91.8,122Q91.8,121.62,91.77,121.17Z"/><path class="cls-1" d="M99.07,127.09H97.23v-16h1.84Z"/><path class="cls-1" d="M27,155.89H25.23v-7.36a7,7,0,0,0-.16-1.7,2.08,2.08,0,0,0-.77-1.05,2.21,2.21,0,0,0-1.37-.47,2.87,2.87,0,0,0-2,1,3.92,3.92,0,0,0-1,2.94v6.67H18.14V148.1a2.79,2.79,0,0,0-.75-2.21,2.35,2.35,0,0,0-1.56-.64,2.63,2.63,0,0,0-2,1,3.76,3.76,0,0,0-.87,2.55v7.08H11.16V144.05h1.59v2.28c.88-1.74,2.09-2.6,3.64-2.6a3.05,3.05,0,0,1,2.17.83,3.86,3.86,0,0,1,1.15,2c.81-1.89,2.06-2.83,3.73-2.83a3.41,3.41,0,0,1,2.12.69A3.12,3.12,0,0,1,26.74,146a8.7,8.7,0,0,1,.28,2.52Z"/><path class="cls-1" d="M40,155.89H38.14c-.07-.37-.14-1.09-.21-2.13a4.27,4.27,0,0,1-4.15,2.46,4.14,4.14,0,0,1-3.06-1.06,3.43,3.43,0,0,1-1.06-2.53,3.53,3.53,0,0,1,1.52-2.95q1.51-1.16,5.18-1.16c.33,0,.85,0,1.57,0a6.66,6.66,0,0,0-.22-2,1.81,1.81,0,0,0-.92-1,3.92,3.92,0,0,0-1.85-.37c-1.87,0-2.95.71-3.26,2.13L30,147q.63-3.27,5.23-3.27a4.68,4.68,0,0,1,3.48,1.08,5.46,5.46,0,0,1,1,3.76v5A9.65,9.65,0,0,0,40,155.89Zm-2-5.92c-.75,0-1.32-.07-1.71-.07a6.67,6.67,0,0,0-3.39.72,2.3,2.3,0,0,0-1.21,2.09,2,2,0,0,0,.65,1.48,2.67,2.67,0,0,0,1.89.61,3.46,3.46,0,0,0,2.73-1.21A4.12,4.12,0,0,0,38,150.75Q38,150.42,37.93,150Z"/><path class="cls-1" d="M45.23,155.89H43.39V144.05H45v2.77a6,6,0,0,1,1.71-2.54,3.21,3.21,0,0,1,1.77-.58c.19,0,.43,0,.72.05v1.76h-.37a3.25,3.25,0,0,0-2.53,1.13,4.66,4.66,0,0,0-1.08,3Z"/><path class="cls-1" d="M61,155.89H59.05l-3.46-6.61L53,152.23v3.66H51.18v-16H53v10.26l5.5-6.1h2l-3.7,4.16Z"/><path class="cls-1" d="M70.5,152.36l1.71.35a4.92,4.92,0,0,1-1.83,2.52,5.29,5.29,0,0,1-3.2,1,5,5,0,0,1-3.93-1.71,6.51,6.51,0,0,1-1.5-4.47,6.58,6.58,0,0,1,1.56-4.57,5,5,0,0,1,3.92-1.74,4.73,4.73,0,0,1,3.73,1.6,7.26,7.26,0,0,1,1.45,4.81H63.8c0,1.79.38,3,1.13,3.62a3.69,3.69,0,0,0,2.38.94A3.26,3.26,0,0,0,70.5,152.36Zm-.11-3.59a5,5,0,0,0-.33-1.77,2.92,2.92,0,0,0-1-1.32,2.79,2.79,0,0,0-1.75-.55,3.11,3.11,0,0,0-2.32,1,4,4,0,0,0-1.07,2.65Z"/><path class="cls-1" d="M84.42,139.89v16H82.75v-2A4,4,0,0,1,79,156.22a4.12,4.12,0,0,1-3.41-1.74,7,7,0,0,1-1.34-4.41,7.5,7.5,0,0,1,1.32-4.53,4.14,4.14,0,0,1,3.52-1.81,4.09,4.09,0,0,1,3.48,1.94v-5.78Zm-1.84,8.74a3.36,3.36,0,0,0-1-2.5,3,3,0,0,0-2.22-.94,2.69,2.69,0,0,0-2.25,1.22,5.73,5.73,0,0,0-.89,3.42,6.53,6.53,0,0,0,.82,3.62,2.53,2.53,0,0,0,2.23,1.25,3,3,0,0,0,2.27-1.08,3.64,3.64,0,0,0,1-2.53Z"/><path class="cls-1" d="M86.5,152.82l1.76-.36c.39,1.49,1.63,2.24,3.7,2.24a3.54,3.54,0,0,0,2-.52,1.64,1.64,0,0,0,.8-1.45c0-.93-.68-1.52-2-1.77l-2.5-.47a4.66,4.66,0,0,1-2.33-1.1,2.85,2.85,0,0,1-.87-2.17,3.14,3.14,0,0,1,1.19-2.49,4.75,4.75,0,0,1,3.18-1c2.58,0,4.16,1,4.76,3l-1.68.36a2.9,2.9,0,0,0-3-1.85,3.36,3.36,0,0,0-1.85.46,1.46,1.46,0,0,0-.72,1.3c0,.87.61,1.42,1.84,1.65l2.31.41q3.62.66,3.62,3.51a3.14,3.14,0,0,1-1.35,2.64,5.91,5.91,0,0,1-3.58,1C88.9,156.22,87.17,155.09,86.5,152.82Z"/><path class="cls-1" d="M104.14,144.05v1.45h-2.81v10.39H99.49V145.5h-2v-1.45h2c0-1.89.39-3.12,1.09-3.66a4,4,0,0,1,2.56-.82,9.86,9.86,0,0,1,1.69.16v1.47a4.29,4.29,0,0,0-1.14-.16,2.53,2.53,0,0,0-1.78.54,2.64,2.64,0,0,0-.58,2v.48Z"/><path class="cls-1" d="M106.74,154.23a7.18,7.18,0,0,1-1.24-4.31,6.46,6.46,0,0,1,1.53-4.5,5.2,5.2,0,0,1,6.85-.73l1.05-1.41h1.64l-1.76,2.35a6.93,6.93,0,0,1,1.32,4.31,6.64,6.64,0,0,1-1.52,4.52,5,5,0,0,1-3.94,1.76,4.53,4.53,0,0,1-3-1l-1,1.35H105Zm1.2-1.6,4.91-6.56a3,3,0,0,0-2.07-.82,2.93,2.93,0,0,0-2.31,1.12,5.41,5.41,0,0,0-1,3.57A7.56,7.56,0,0,0,107.94,152.63Zm5.7-5.45-5,6.63a3,3,0,0,0,2.16.89,2.92,2.92,0,0,0,2.34-1.16,5.63,5.63,0,0,0,1-3.61A6.63,6.63,0,0,0,113.64,147.18Z"/><path class="cls-1" d="M120.73,155.89h-1.84V144.05h1.62v2.77a6,6,0,0,1,1.72-2.54,3.16,3.16,0,0,1,1.76-.58c.19,0,.43,0,.73.05v1.76h-.38a3.26,3.26,0,0,0-2.53,1.13,4.66,4.66,0,0,0-1.08,3Z"/><path class="cls-1" d="M128.7,139.89V142h-2v-2.06Zm-.06,4.16v11.84H126.8V144.05Z"/><path class="cls-1" d="M141.64,155.89h-1.72v-7.6a3,3,0,0,0-.72-2.31,2.41,2.41,0,0,0-1.73-.67,3,3,0,0,0-2.36,1.12,4.42,4.42,0,0,0-1,3v6.49h-1.84V144.05H134v2.18a4.26,4.26,0,0,1,3.74-2.5,3.76,3.76,0,0,1,2.26.68,3.64,3.64,0,0,1,1.27,1.54,9.36,9.36,0,0,1,.35,3.1Z"/><path class="cls-1" d="M155,142.2v1.47a3.4,3.4,0,0,0-1.7.29,1.57,1.57,0,0,0-.56,1.06,4.29,4.29,0,0,1,1.13,2.86,3.68,3.68,0,0,1-1.23,2.77,4.66,4.66,0,0,1-3.33,1.16,3.72,3.72,0,0,1-.8-.07,7.22,7.22,0,0,0-.81-.13,1.51,1.51,0,0,0-.77.31,1,1,0,0,0-.44.81.86.86,0,0,0,.64.91,14.18,14.18,0,0,0,3,.27,16.62,16.62,0,0,1,3,.28,3,3,0,0,1,1.64,1,2.64,2.64,0,0,1,.67,1.82q0,3.39-6,3.39a7.69,7.69,0,0,1-4.12-.86,2.59,2.59,0,0,1-1.29-2.26,2.38,2.38,0,0,1,1.8-2.37,2.25,2.25,0,0,1-1.16-1.91,2.29,2.29,0,0,1,1.64-2.1,3.87,3.87,0,0,1-1.53-3.13,3.64,3.64,0,0,1,1.31-2.88,4.75,4.75,0,0,1,3.2-1.12,5.68,5.68,0,0,1,2.43.5,2.24,2.24,0,0,1,.81-1.6,3.39,3.39,0,0,1,1.94-.45Zm-7.83,13.21a1.79,1.79,0,0,0-1.29,1.63,1.54,1.54,0,0,0,1.06,1.4,6.41,6.41,0,0,0,2.7.5,8.78,8.78,0,0,0,2.79-.43c.84-.29,1.27-.77,1.27-1.45a1.18,1.18,0,0,0-.38-.9,1.92,1.92,0,0,0-1-.45c-.44-.06-1.19-.1-2.27-.14C148.73,155.54,147.78,155.49,147.16,155.41Zm2.2-5a2.62,2.62,0,0,0,1.91-.72,2.52,2.52,0,0,0,.74-1.87,2.58,2.58,0,0,0-.77-1.92,2.54,2.54,0,0,0-1.85-.74,2.79,2.79,0,0,0-1.86.69,2.82,2.82,0,0,0-.08,3.85A2.64,2.64,0,0,0,149.36,150.41Z"/><path class="cls-1" d="M13.06,168.69v2.06h-2v-2.06ZM13,172.85v11.84H11.16V172.85Z"/><path class="cls-1" d="M21.08,181.62l1.76-.36c.39,1.49,1.62,2.24,3.7,2.24a3.53,3.53,0,0,0,1.94-.52,1.62,1.62,0,0,0,.8-1.45c0-.93-.68-1.52-2-1.77l-2.49-.47a4.58,4.58,0,0,1-2.33-1.1,2.85,2.85,0,0,1-.87-2.17,3.13,3.13,0,0,1,1.18-2.49,4.76,4.76,0,0,1,3.19-1q3.86,0,4.76,3L29,175.9a2.89,2.89,0,0,0-3-1.85,3.33,3.33,0,0,0-1.84.46,1.47,1.47,0,0,0-.73,1.3c0,.87.62,1.42,1.85,1.65l2.3.41c2.42.44,3.62,1.61,3.62,3.51A3.1,3.1,0,0,1,29.87,184a5.88,5.88,0,0,1-3.59,1C23.48,185,21.74,183.89,21.08,181.62Z"/><path class="cls-1" d="M43.06,184.69H41.25a21,21,0,0,1-.22-2.13A4.25,4.25,0,0,1,36.89,185,4.14,4.14,0,0,1,33.83,184a3.44,3.44,0,0,1-1.07-2.53,3.56,3.56,0,0,1,1.52-3q1.53-1.15,5.18-1.16c.33,0,.86,0,1.57.05a7.07,7.07,0,0,0-.21-2,1.85,1.85,0,0,0-.92-1,4,4,0,0,0-1.85-.37c-1.87,0-3,.71-3.26,2.13l-1.7-.29c.41-2.18,2.16-3.27,5.23-3.27a4.64,4.64,0,0,1,3.47,1.08,5.44,5.44,0,0,1,1,3.76v5A10.22,10.22,0,0,0,43.06,184.69Zm-2-5.92c-.75,0-1.32-.07-1.71-.07a6.61,6.61,0,0,0-3.38.72,2.28,2.28,0,0,0-1.21,2.09,2,2,0,0,0,.65,1.48,2.63,2.63,0,0,0,1.88.61A3.5,3.5,0,0,0,40,182.39a4.17,4.17,0,0,0,1.07-2.84C41.07,179.33,41.06,179.07,41,178.77Z"/><path class="cls-1" d="M62.35,184.69H60.56v-7.36a6.5,6.5,0,0,0-.16-1.7,2.08,2.08,0,0,0-.77-1,2.19,2.19,0,0,0-1.37-.47,2.87,2.87,0,0,0-2,1,4,4,0,0,0-1,2.94v6.67H53.47V176.9a2.79,2.79,0,0,0-.75-2.21,2.33,2.33,0,0,0-1.56-.64,2.63,2.63,0,0,0-2,1,3.76,3.76,0,0,0-.87,2.55v7.08H46.5V172.85h1.58v2.28c.88-1.74,2.1-2.6,3.64-2.6a3,3,0,0,1,2.17.83,3.8,3.8,0,0,1,1.15,2q1.22-2.84,3.74-2.83a3.38,3.38,0,0,1,2.11.69,3.2,3.2,0,0,1,1.19,1.59,9.13,9.13,0,0,1,.27,2.52Z"/><path class="cls-1" d="M81.89,184.69h-1.8v-7.36a7.08,7.08,0,0,0-.15-1.7,2.14,2.14,0,0,0-.77-1,2.23,2.23,0,0,0-1.37-.47,2.89,2.89,0,0,0-2,1,4,4,0,0,0-1,2.94v6.67H73V176.9a2.79,2.79,0,0,0-.74-2.21,2.37,2.37,0,0,0-1.57-.64,2.6,2.6,0,0,0-2,1,3.76,3.76,0,0,0-.87,2.55v7.08H66V172.85h1.58v2.28c.89-1.74,2.1-2.6,3.65-2.6a3.05,3.05,0,0,1,2.17.83,3.78,3.78,0,0,1,1.14,2c.82-1.89,2.06-2.83,3.74-2.83a3.41,3.41,0,0,1,2.12.69,3.18,3.18,0,0,1,1.18,1.59,9.07,9.07,0,0,1,.28,2.52Z"/><path class="cls-1" d="M93.38,181.16l1.71.35A4.84,4.84,0,0,1,93.27,184a5.31,5.31,0,0,1-3.2,1,5,5,0,0,1-3.93-1.71,7.44,7.44,0,0,1,.06-9,5,5,0,0,1,3.91-1.74,4.75,4.75,0,0,1,3.74,1.6,7.21,7.21,0,0,1,1.44,4.81h-8.6c0,1.79.38,3,1.13,3.62a3.68,3.68,0,0,0,2.37.94A3.25,3.25,0,0,0,93.38,181.16Zm-.1-3.59A5.26,5.26,0,0,0,93,175.8a3,3,0,0,0-1-1.32,2.81,2.81,0,0,0-1.75-.55,3.09,3.09,0,0,0-2.32,1,4.06,4.06,0,0,0-1.08,2.65Z"/><path class="cls-1" d="M105.9,184.69h-1.84v-16h1.84Z"/><path class="cls-1" d="M109.89,183a7.18,7.18,0,0,1-1.24-4.31,6.42,6.42,0,0,1,1.54-4.5,5.19,5.19,0,0,1,6.84-.73l1.06-1.41h1.64L118,174.42a7,7,0,0,1,1.32,4.32,6.64,6.64,0,0,1-1.52,4.52,5,5,0,0,1-3.94,1.76,4.53,4.53,0,0,1-3-1l-1,1.35h-1.59Zm1.2-1.6,4.91-6.56a3,3,0,0,0-2.06-.82,2.94,2.94,0,0,0-2.32,1.12,5.47,5.47,0,0,0-1,3.57A7.6,7.6,0,0,0,111.09,181.43Zm5.7-5.45-5,6.63a3,3,0,0,0,2.16.89,2.9,2.9,0,0,0,2.34-1.17,5.57,5.57,0,0,0,1-3.6A6.62,6.62,0,0,0,116.79,176Z"/><path class="cls-1" d="M120.45,181.62l1.76-.36c.39,1.49,1.63,2.24,3.7,2.24a3.54,3.54,0,0,0,2-.52,1.64,1.64,0,0,0,.8-1.45c0-.93-.68-1.52-2-1.77l-2.5-.47a4.66,4.66,0,0,1-2.33-1.1,2.85,2.85,0,0,1-.87-2.17,3.14,3.14,0,0,1,1.19-2.49,4.75,4.75,0,0,1,3.18-1q3.86,0,4.76,3l-1.69.36a2.88,2.88,0,0,0-3-1.85,3.36,3.36,0,0,0-1.85.46,1.46,1.46,0,0,0-.72,1.3c0,.87.61,1.42,1.84,1.65l2.31.41q3.61.66,3.62,3.51a3.11,3.11,0,0,1-1.35,2.63,5.85,5.85,0,0,1-3.58,1C122.85,185,121.12,183.89,120.45,181.62Z"/><path class="cls-1" d="M142.51,184.69h-1.73v-7.61a3,3,0,0,0-.71-2.3,2.45,2.45,0,0,0-1.74-.67,3,3,0,0,0-2.36,1.12,4.47,4.47,0,0,0-.95,3v6.49h-1.84V172.85h1.71V175a4.26,4.26,0,0,1,3.74-2.5,3.78,3.78,0,0,1,3.53,2.22,9.36,9.36,0,0,1,.35,3.1Z"/><path class="cls-1" d="M148.08,168.69v2.06h-2v-2.06Zm-.05,4.16v11.84h-1.84V172.85Z"/><path class="cls-1" d="M161,184.69H159.3v-7.61a3,3,0,0,0-.72-2.3,2.41,2.41,0,0,0-1.73-.67,3,3,0,0,0-2.36,1.12,4.42,4.42,0,0,0-1,3v6.49h-1.84V172.85h1.72V175a4.24,4.24,0,0,1,3.73-2.5,3.78,3.78,0,0,1,3.54,2.22,9.43,9.43,0,0,1,.34,3.1Z"/><path class="cls-1" d="M174.37,171v1.47a3.35,3.35,0,0,0-1.69.29,1.54,1.54,0,0,0-.57,1.06,4.24,4.24,0,0,1,1.14,2.85,3.69,3.69,0,0,1-1.24,2.78,4.63,4.63,0,0,1-3.32,1.16,3.75,3.75,0,0,1-.81-.07,7.22,7.22,0,0,0-.81-.13,1.45,1.45,0,0,0-.76.31,1,1,0,0,0-.45.81.87.87,0,0,0,.65.91,14.06,14.06,0,0,0,3,.27,16.86,16.86,0,0,1,3,.28,3,3,0,0,1,1.63,1,2.59,2.59,0,0,1,.67,1.82c0,2.26-2,3.39-6,3.39a7.64,7.64,0,0,1-4.12-.86,2.58,2.58,0,0,1-1.3-2.26,2.37,2.37,0,0,1,1.81-2.37,2.23,2.23,0,0,1-1.16-1.91,2.28,2.28,0,0,1,1.64-2.1,3.85,3.85,0,0,1-1.54-3.13,3.64,3.64,0,0,1,1.31-2.88,4.77,4.77,0,0,1,3.2-1.12,5.68,5.68,0,0,1,2.43.5,2.32,2.32,0,0,1,.81-1.61,3.5,3.5,0,0,1,1.94-.44Zm-7.83,13.21a1.78,1.78,0,0,0-1.29,1.63,1.55,1.55,0,0,0,1.06,1.4,6.41,6.41,0,0,0,2.7.5,8.78,8.78,0,0,0,2.79-.43c.85-.29,1.27-.77,1.27-1.45a1.18,1.18,0,0,0-.38-.9,1.92,1.92,0,0,0-1-.45c-.43-.06-1.19-.1-2.27-.14C168.11,184.34,167.16,184.29,166.54,184.21Zm2.21-5a2.63,2.63,0,0,0,1.91-.72,2.52,2.52,0,0,0,.73-1.87,2.56,2.56,0,0,0-2.62-2.66,2.76,2.76,0,0,0-1.85.69,2.81,2.81,0,0,0-.09,3.85A2.66,2.66,0,0,0,168.75,179.21Z"/></svg>