<svg id="Layer_1" data-name="Layer 1" xmlns="http://www.w3.org/2000/svg" viewBox="0 0 300 250"><defs><style>.cls-1{fill:#d80201;}</style></defs><title>text</title><path class="cls-1" d="M63.73,117.61c-1,4.93-5.19,7.87-10.11,7.87a10.76,10.76,0,0,1-11.2-11.1,10.94,10.94,0,0,1,11.33-11.2,10.19,10.19,0,0,1,9.15,5l-3.62,2A6.26,6.26,0,0,0,53.71,107c-4.16,0-7,3.36-7,7.39s2.84,7.32,7,7.32c2.79,0,5.22-1.66,5.57-4.54h-5v-3.58h9.79v.51A18.82,18.82,0,0,1,63.73,117.61Z"/><path class="cls-1" d="M67.28,125V101h3.87v24Z"/><path class="cls-1" d="M82.06,125.45c-4.41,0-7.93-2.75-7.93-7.36s3.52-7.39,8-7.39S90,113.48,90,118.06,86.45,125.45,82.06,125.45Zm-3.35-16.9a2.3,2.3,0,1,1,0-4.6,2.3,2.3,0,1,1,0,4.6ZM82,114.18A3.89,3.89,0,1,0,86,118.09,3.92,3.92,0,0,0,82,114.18Zm3.33-5.63a2.33,2.33,0,0,1-2.3-2.3,2.3,2.3,0,1,1,2.3,2.3Z"/><path class="cls-1" d="M110.64,125v-7.58c0-1.64-.26-3.43-2.3-3.43-2.28,0-2.66,2.08-2.66,3.91V125h-3.87v-7.36a6.12,6.12,0,0,0-.29-2.3A2.23,2.23,0,0,0,99.44,114a2.51,2.51,0,0,0-2.17,1.25,5.71,5.71,0,0,0-.45,2.66V125H93V111.15h3.87v1.56a5.31,5.31,0,0,1,4.22-2,4.7,4.7,0,0,1,4.32,2.53,5.11,5.11,0,0,1,4.54-2.53,4.57,4.57,0,0,1,3.88,2,6.1,6.1,0,0,1,.73,3.36v9Z"/><path class="cls-1" d="M122.13,114.47V125h-3.87V114.47h-1.54v-3.32h1.54v-4.74h3.87v4.74h2.72v3.32Z"/><path class="cls-1" d="M145.46,125v-1.82a5.37,5.37,0,0,1-4.52,2.27c-4.16,0-6.81-3.46-6.81-7.43s2.65-7.32,6.72-7.32a5.77,5.77,0,0,1,4.61,2.2v-1.75h3.9V125ZM142,114.18a3.89,3.89,0,1,0,3.87,3.88A3.87,3.87,0,0,0,142,114.18Z"/><path class="cls-1" d="M157,114.47V125H153.1V114.47h-1.53v-3.32h1.53v-4.74H157v4.74h2.72v3.32Z"/><path class="cls-1" d="M165.62,114.47V125h-3.88V114.47h-1.53v-3.32h1.53v-4.74h3.88v4.74h2.71v3.32Z"/><path class="cls-1" d="M182.35,114.47V125h-3.87V114.47H177v-3.32h1.5V106.7a6.72,6.72,0,0,1,.61-3.27,5.49,5.49,0,0,1,4.8-2.78,4.53,4.53,0,0,1,2,.48v3.55a3.81,3.81,0,0,0-1.76-.51c-1.72,0-1.82,1.79-1.82,3.1v3.88h3.58v3.32Z"/><path class="cls-1" d="M194.93,125.45c-4.42,0-7.94-2.75-7.94-7.36s3.52-7.39,8-7.39,7.87,2.78,7.87,7.36S199.31,125.45,194.93,125.45Zm0-11.27a3.89,3.89,0,1,0,3.94,3.91A3.92,3.92,0,0,0,194.89,114.18Z"/><path class="cls-1" d="M214.86,114.66a3.44,3.44,0,0,0-1.85-.48c-2.63,0-3.33,1.86-3.33,4.16V125h-3.87V111.15h3.87v2.08a4.44,4.44,0,0,1,4-2.53,4.35,4.35,0,0,1,1.7.32Z"/><path class="cls-1" d="M235,125v-7.58c0-1.64-.26-3.43-2.3-3.43-2.27,0-2.66,2.08-2.66,3.91V125h-3.87v-7.36a6.12,6.12,0,0,0-.29-2.3,2.23,2.23,0,0,0-2.08-1.35,2.51,2.51,0,0,0-2.17,1.25,5.71,5.71,0,0,0-.45,2.66V125h-3.87V111.15h3.87v1.56a5.31,5.31,0,0,1,4.22-2,4.69,4.69,0,0,1,4.32,2.53,5.12,5.12,0,0,1,4.55-2.53,4.56,4.56,0,0,1,3.87,2,6.1,6.1,0,0,1,.73,3.36v9Z"/><path class="cls-1" d="M253.2,125v-1.82a5.37,5.37,0,0,1-4.51,2.27c-4.16,0-6.82-3.46-6.82-7.43s2.66-7.32,6.72-7.32a5.77,5.77,0,0,1,4.61,2.2v-1.75h3.9V125Zm-3.46-10.82a3.89,3.89,0,1,0,3.87,3.88A3.87,3.87,0,0,0,249.74,114.18Z"/><path class="cls-1" d="M39.44,160l-5.21-5.95-.42.41V160H29.94V136h3.87V151.2l5.18-5h5.25l-6.49,6.07,7,7.78Z"/><path class="cls-1" d="M46.48,160V136h3.87v24Z"/><path class="cls-1" d="M64.66,160v-1.82a5.37,5.37,0,0,1-4.51,2.27c-4.16,0-6.82-3.46-6.82-7.43s2.66-7.32,6.72-7.32a5.75,5.75,0,0,1,4.61,2.21v-1.76h3.9V160ZM61.2,149.18a3.89,3.89,0,1,0,3.87,3.88A3.87,3.87,0,0,0,61.2,149.18Z"/><path class="cls-1" d="M81.33,149.67a3.37,3.37,0,0,0-1.86-.49c-2.62,0-3.32,1.86-3.32,4.16V160H72.27V146.15h3.88v2.08a4.44,4.44,0,0,1,4-2.53,4.27,4.27,0,0,1,1.69.32Z"/><path class="cls-1" d="M88.4,149.47V160H84.53V149.47H83v-3.32h1.54v-4.74H88.4v4.74h2.72v3.32Z"/><path class="cls-1" d="M111.73,160v-1.82a5.37,5.37,0,0,1-4.51,2.27c-4.16,0-6.82-3.46-6.82-7.43s2.66-7.32,6.72-7.32a5.75,5.75,0,0,1,4.61,2.21V136h3.9v24Zm-3.46-10.82a3.89,3.89,0,1,0,3.87,3.88A3.87,3.87,0,0,0,108.27,149.18Z"/><path class="cls-1" d="M121.23,142.63a2.34,2.34,0,1,1,2.31-2.34A2.35,2.35,0,0,1,121.23,142.63Zm-2,17.37V146.15h3.87V160Z"/><path class="cls-1" d="M130.7,149.47V160h-3.87V149.47H125.3v-3.32h1.53v-4.74h3.87v4.74h2.72v3.32Z"/><path class="cls-1" d="M139.34,149.47V160h-3.87V149.47h-1.53v-3.32h1.53v-4.74h3.87v4.74h2.72v3.32Z"/><path class="cls-1" d="M161.55,160v-7.68c0-1.89-.42-3.33-2.62-3.33-2.4,0-3,1.76-3,3.84V160h-3.87V146.15H156v1.69a5.12,5.12,0,0,1,4.35-2.14,4.78,4.78,0,0,1,5.12,5.5V160Z"/><path class="cls-1" d="M172.46,167.42h-4.38l5.09-9.5-6.56-11.77h4.51l4.16,7.87,4-7.87h4.41Z"/><path class="cls-1" d="M195.37,160v-1.82a5.34,5.34,0,0,1-4.51,2.27c-4.16,0-6.81-3.46-6.81-7.43s2.65-7.32,6.72-7.32a5.72,5.72,0,0,1,4.6,2.21v-1.76h3.91V160Zm-3.45-10.82a3.89,3.89,0,1,0,3.87,3.88A3.86,3.86,0,0,0,191.92,149.18Z"/><path class="cls-1" d="M220.46,160v-7.58c0-1.92-.41-3.43-2.65-3.43-2.4,0-2.95,1.86-2.95,3.91V160H211V136h3.87v11.91a5,5,0,0,1,4.35-2.24,5.32,5.32,0,0,1,4,1.69,5.51,5.51,0,0,1,1.08,3.91V160Z"/><path class="cls-1" d="M234.73,160.45c-3.8,0-6.68-1.7-6.68-5.82v-8.48h3.87V154c0,1.89.8,3.17,2.81,3.17s2.82-1.28,2.82-3.17v-7.83h3.9v8.48C241.45,158.75,238.54,160.45,234.73,160.45Z"/><path class="cls-1" d="M249.58,160.45a7.39,7.39,0,0,1-5.28-2.31l2-2.36a4.52,4.52,0,0,0,3.26,1.63,1.63,1.63,0,0,0,1.76-1.54c0-2.37-6.17-1.18-6.17-5.85,0-2.82,2.33-4.39,5-4.39a7.11,7.11,0,0,1,4.51,1.48l-1.92,2.27a3.87,3.87,0,0,0-2.3-.93c-.68,0-1.48.42-1.48,1.18,0,2,6.4,1.12,6.4,5.86C255.37,158.72,252.56,160.45,249.58,160.45Z"/><path class="cls-1" d="M265.33,150.14v2.73h-3.94v-5.64a5.82,5.82,0,0,0,1.12.13c1.95,0,4-1,4-3.2a2.4,2.4,0,0,0-2.46-2.46,2.27,2.27,0,0,0-2.31,2.27c0,.13,0,.26,0,.38h-4.16V144c0-3.49,3.26-5.73,6.52-5.73a6.2,6.2,0,0,1,6.47,6C270.64,147.49,268.27,149.44,265.33,150.14Zm-1.89,10.28a2.5,2.5,0,1,1,2.49-2.5A2.51,2.51,0,0,1,263.44,160.42Z"/></svg>