<svg id="Layer_1" data-name="Layer 1" xmlns="http://www.w3.org/2000/svg" viewBox="0 0 160 600"><defs><style>.cls-1{fill:#d80201;}</style></defs><title>text</title><path class="cls-1" d="M25.81,265.63c-.87,4.31-4.54,6.89-8.85,6.89a9.42,9.42,0,0,1-9.8-9.72,9.58,9.58,0,0,1,9.91-9.8,8.91,8.91,0,0,1,8,4.4l-3.16,1.71A5.48,5.48,0,0,0,17,256.33a6.17,6.17,0,0,0-6.13,6.47A6.11,6.11,0,0,0,17,269.21a4.62,4.62,0,0,0,4.87-4h-4.4V262.1h8.57v.45A16.18,16.18,0,0,1,25.81,265.63Z"/><path class="cls-1" d="M28.92,272.1v-21h3.39v21Z"/><path class="cls-1" d="M41.85,272.49c-3.86,0-6.94-2.41-6.94-6.44s3.08-6.47,7-6.47S48.77,262,48.77,266,45.69,272.49,41.85,272.49ZM38.91,257.7a2,2,0,1,1,0-4,2,2,0,1,1,0,4Zm2.91,4.93A3.4,3.4,0,1,0,45.27,266,3.43,3.43,0,0,0,41.82,262.63Zm2.91-4.93a2,2,0,0,1-2-2,2,2,0,1,1,2,2Z"/><path class="cls-1" d="M66.86,272.1v-6.64c0-1.43-.22-3-2-3-2,0-2.32,1.82-2.32,3.42v6.22H59.13v-6.44a5.4,5.4,0,0,0-.25-2,2,2,0,0,0-1.82-1.18,2.21,2.21,0,0,0-1.9,1.09,5,5,0,0,0-.39,2.32v6.22H51.37V260h3.39v1.37a4.66,4.66,0,0,1,3.7-1.76,4.12,4.12,0,0,1,3.78,2.21,4.48,4.48,0,0,1,4-2.21,4,4,0,0,1,3.39,1.74,5.34,5.34,0,0,1,.64,2.94v7.84Z"/><path class="cls-1" d="M76.91,262.88v9.21H73.52v-9.21H72.18V260h1.34v-4.14h3.39V260h2.38v2.91Z"/><path class="cls-1" d="M97.32,272.1v-1.6a4.68,4.68,0,0,1-3.95,2c-3.64,0-6-3-6-6.5s2.32-6.41,5.88-6.41a5.05,5.05,0,0,1,4,1.93V260h3.42V272.1Zm-3-9.46A3.4,3.4,0,1,0,97.68,266,3.38,3.38,0,0,0,94.3,262.63Z"/><path class="cls-1" d="M107.4,262.88v9.21H104v-9.21h-1.34V260H104v-4.14h3.39V260h2.38v2.91Z"/><path class="cls-1" d="M115,262.88v9.21h-3.39v-9.21h-1.34V260h1.34v-4.14H115V260h2.38v2.91Z"/><path class="cls-1" d="M11.08,296.48v9.21H7.69v-9.21H6.38v-2.91H7.69v-3.89a5.91,5.91,0,0,1,.53-2.86,4.8,4.8,0,0,1,4.2-2.44,4,4,0,0,1,1.79.42v3.11a3.38,3.38,0,0,0-1.54-.45c-1.51,0-1.6,1.57-1.6,2.72v3.39h3.14v2.91Z"/><path class="cls-1" d="M22.08,306.09c-3.86,0-6.94-2.41-6.94-6.44s3.08-6.47,7-6.47S29,295.62,29,299.62,25.92,306.09,22.08,306.09Zm0-9.86a3.4,3.4,0,1,0,3.44,3.42A3.43,3.43,0,0,0,22.06,296.23Z"/><path class="cls-1" d="M39.53,296.65a3,3,0,0,0-1.62-.42c-2.3,0-2.91,1.62-2.91,3.64v5.82H31.6V293.57H35v1.82a4,4,0,0,1,5-1.93Z"/><path class="cls-1" d="M57.17,305.7v-6.64c0-1.43-.22-3-2-3-2,0-2.32,1.82-2.32,3.42v6.22H49.44v-6.44a5.4,5.4,0,0,0-.25-2,2,2,0,0,0-1.82-1.18,2.21,2.21,0,0,0-1.9,1.09,5,5,0,0,0-.39,2.32v6.22H41.68V293.57h3.39v1.37a4.66,4.66,0,0,1,3.7-1.76,4.12,4.12,0,0,1,3.78,2.21,4.48,4.48,0,0,1,4-2.21,4,4,0,0,1,3.39,1.74,5.34,5.34,0,0,1,.64,2.94v7.84Z"/><path class="cls-1" d="M73.07,305.7v-1.6a4.68,4.68,0,0,1-3.95,2c-3.64,0-6-3-6-6.5s2.32-6.41,5.88-6.41a5.05,5.05,0,0,1,4,1.93v-1.54h3.42V305.7Zm-3-9.46a3.4,3.4,0,1,0,3.39,3.39A3.38,3.38,0,0,0,70,296.23Z"/><path class="cls-1" d="M95.05,305.7l-4.56-5.21-.36.36v4.84H86.74v-21h3.39V298l4.54-4.42h4.59l-5.68,5.32,6.13,6.8Z"/><path class="cls-1" d="M101.21,305.7v-21h3.39v21Z"/><path class="cls-1" d="M117.12,305.7v-1.6a4.68,4.68,0,0,1-3.95,2c-3.64,0-6-3-6-6.5s2.32-6.41,5.88-6.41a5.05,5.05,0,0,1,4,1.93v-1.54h3.42V305.7Zm-3-9.46a3.4,3.4,0,1,0,3.39,3.39A3.38,3.38,0,0,0,114.09,296.23Z"/><path class="cls-1" d="M131.7,296.65a3,3,0,0,0-1.62-.42c-2.3,0-2.91,1.62-2.91,3.64v5.82h-3.39V293.57h3.39v1.82a4,4,0,0,1,5-1.93Z"/><path class="cls-1" d="M137.89,296.48v9.21H134.5v-9.21h-1.34v-2.91h1.34v-4.14h3.39v4.14h2.38v2.91Z"/><path class="cls-1" d="M16.85,339.3v-1.6a4.68,4.68,0,0,1-3.95,2c-3.64,0-6-3-6-6.5s2.32-6.41,5.88-6.41a5.05,5.05,0,0,1,4,1.93V318.33h3.42v21Zm-3-9.46a3.4,3.4,0,1,0,3.39,3.39A3.38,3.38,0,0,0,13.83,329.83Z"/><path class="cls-1" d="M25.16,324.09a2,2,0,1,1,0-4.09,2,2,0,0,1,0,4.09Zm-1.71,15.2V327.17h3.39V339.3Z"/><path class="cls-1" d="M33.45,330.08v9.21H30.06v-9.21H28.72v-2.91h1.34V323h3.39v4.14h2.38v2.91Z"/><path class="cls-1" d="M41,330.08v9.21H37.62v-9.21H36.28v-2.91h1.34V323H41v4.14h2.38v2.91Z"/><path class="cls-1" d="M60.44,339.3v-6.72c0-1.65-.36-2.91-2.3-2.91-2.1,0-2.6,1.54-2.6,3.36v6.27H52.16V327.17h3.39v1.48a4.48,4.48,0,0,1,3.81-1.87,4.19,4.19,0,0,1,4.48,4.82v7.7Z"/><path class="cls-1" d="M70,345.79H66.16l4.45-8.32-5.74-10.3h3.95l3.64,6.89,3.47-6.89h3.86Z"/><path class="cls-1" d="M90,339.3v-1.6a4.68,4.68,0,0,1-3.95,2c-3.64,0-6-3-6-6.5s2.32-6.41,5.88-6.41a5.05,5.05,0,0,1,4,1.93v-1.54h3.42V339.3Zm-3-9.46a3.4,3.4,0,1,0,3.39,3.39A3.38,3.38,0,0,0,87,329.83Z"/><path class="cls-1" d="M112,339.3v-6.64c0-1.68-.36-3-2.32-3s-2.58,1.62-2.58,3.42v6.22H103.7v-21h3.39v10.42a4.41,4.41,0,0,1,3.81-2,4.63,4.63,0,0,1,3.53,1.48,4.81,4.81,0,0,1,1,3.42v7.62Z"/><path class="cls-1" d="M124.48,339.69c-3.33,0-5.85-1.48-5.85-5.1v-7.42H122V334c0,1.65.7,2.77,2.46,2.77s2.46-1.12,2.46-2.77v-6.86h3.42v7.42C130.36,338.21,127.81,339.69,124.48,339.69Z"/><path class="cls-1" d="M137.47,339.69a6.45,6.45,0,0,1-4.62-2l1.79-2.07A3.94,3.94,0,0,0,137.5,337a1.43,1.43,0,0,0,1.54-1.34c0-2.07-5.4-1-5.4-5.12,0-2.46,2-3.84,4.34-3.84a6.25,6.25,0,0,1,3.95,1.29l-1.68,2a3.38,3.38,0,0,0-2-.81c-.59,0-1.29.36-1.29,1,0,1.76,5.6,1,5.6,5.13C142.54,338.18,140.07,339.69,137.47,339.69Z"/><path class="cls-1" d="M151.25,330.67v2.38H147.8v-4.93a5.48,5.48,0,0,0,1,.11c1.71,0,3.53-.87,3.53-2.8a2.11,2.11,0,0,0-2.16-2.16,2,2,0,0,0-2,2c0,.11,0,.22,0,.34h-3.64v-.34c0-3.05,2.86-5,5.71-5a5.42,5.42,0,0,1,5.66,5.26C155.9,328.35,153.82,330.06,151.25,330.67Zm-1.65,9a2.18,2.18,0,1,1,2.18-2.18A2.19,2.19,0,0,1,149.6,339.66Z"/></svg>