<svg id="Layer_1" data-name="Layer 1" xmlns="http://www.w3.org/2000/svg" viewBox="0 0 160 600"><defs><style>.cls-1{fill:#d80201;}.cls-2{fill:#fff;}</style></defs><title>text</title><rect class="cls-1" x="14.3" y="523.33" width="129.39" height="20.89" rx="10.44" ry="10.44"/><path class="cls-2" d="M28.93,531.19V533h2.51v1.36H28.93v3.51H27.37v-8h4.23v1.36Z"/><path class="cls-2" d="M36.84,538a4.15,4.15,0,0,1-4.27-4.16A4.28,4.28,0,1,1,36.84,538Zm0-6.93a2.76,2.76,0,1,0,2.67,2.75A2.71,2.71,0,0,0,36.84,531.08Z"/><path class="cls-2" d="M46.48,537.84l-2.16-3.21h-.19v3.21H42.57v-8h2.31a3.3,3.3,0,0,1,2,.58,2.33,2.33,0,0,1,.79,1.8,2.64,2.64,0,0,1-.46,1.46,2.07,2.07,0,0,1-1.37.79l2.52,3.37Zm-1.88-6.73h-.47v2.41h.44c.8,0,1.54-.29,1.54-1.21S45.4,531.11,44.59,531.11Z"/><path class="cls-2" d="M52,531.19v6.64H50.41v-6.64H48.63v-1.36h5.15v1.36Z"/><path class="cls-2" d="M57,538a3.12,3.12,0,0,1-2.75-1.52l1-1a1.84,1.84,0,0,0,1.68,1.07,1.14,1.14,0,0,0,1.24-1.13c0-1.64-3.51-.86-3.51-3.44a2.35,2.35,0,0,1,2.49-2.33,3.51,3.51,0,0,1,2.34.89l-.82,1.07a1.62,1.62,0,0,0-1.29-.65c-.52,0-1.12.32-1.12.9,0,1.36,3.51.68,3.51,3.48A2.58,2.58,0,0,1,57,538Z"/><path class="cls-2" d="M66.59,537.84l-.68-1.69H62.64l-.73,1.69H60.25l3.47-8.17H64.9l3.37,8.17ZM62.92,529a.88.88,0,0,1-.86-.86.86.86,0,1,1,.86.86Zm1.38,3-1.16,2.88h2.29Zm1.31-3a.88.88,0,0,1-.86-.86.86.86,0,1,1,.86.86Z"/><path class="cls-2" d="M71.33,531.19v6.64H69.77v-6.64H68v-1.36h5.15v1.36Z"/><path class="cls-2" d="M76.64,531.19v6.64H75.08v-6.64H73.3v-1.36h5.15v1.36Z"/><path class="cls-2" d="M87.39,537.84v-3.56H84v3.56H82.45v-8H84v3.09h3.38v-3.09H89v8Z"/><path class="cls-2" d="M96.21,537.84l-.68-1.69H92.27l-.73,1.69H89.88l3.47-8.17h1.17l3.37,8.17ZM92.54,529a.88.88,0,0,1-.86-.86.86.86,0,1,1,.86.86Zm1.38,3-1.16,2.88h2.29Zm1.31-3a.88.88,0,0,1-.86-.86.86.86,0,1,1,.86.86Z"/><path class="cls-2" d="M102.74,537.84l-2.16-3.21h-.19v3.21H98.83v-8h2.31a3.3,3.3,0,0,1,2,.58,2.33,2.33,0,0,1,.79,1.8,2.64,2.64,0,0,1-.46,1.46,2.07,2.07,0,0,1-1.37.79l2.52,3.37Zm-1.88-6.73h-.47v2.41h.44c.8,0,1.54-.29,1.54-1.21S101.66,531.11,100.86,531.11Z"/><polygon class="cls-2" points="119.62 534.79 111.06 534.79 111.06 532.62 119.62 532.62 119.62 529.32 125.71 533.71 119.62 537.91 119.62 534.79"/></svg>