<svg id="Layer_1" data-name="Layer 1" xmlns="http://www.w3.org/2000/svg" viewBox="0 0 160 600"><defs><style>.cls-1{fill:#d80201;}</style></defs><title>text</title><path class="cls-1" d="M13,274.46a6,6,0,0,1-5.27-2.92l1.93-1.86a3.52,3.52,0,0,0,3.22,2,2.18,2.18,0,0,0,2.37-2.16c0-3.15-6.74-1.66-6.74-6.6a4.5,4.5,0,0,1,4.78-4.46,6.73,6.73,0,0,1,4.48,1.7l-1.56,2A3.1,3.1,0,0,0,13.72,261c-1,0-2.14.62-2.14,1.72,0,2.6,6.74,1.31,6.74,6.67C18.32,272.53,16,274.46,13,274.46Z"/><path class="cls-1" d="M25.58,274.3H24.3l-5.08-10.16h3.13L25,269.75l2.62-5.61h3.13Z"/><path class="cls-1" d="M39.18,274.1v-1.31a3.85,3.85,0,0,1-3.24,1.63c-3,0-4.9-2.48-4.9-5.33a5,5,0,0,1,4.83-5.27,4.15,4.15,0,0,1,3.31,1.59v-1.27H42v10Zm-2.48-7.77a2.79,2.79,0,1,0,2.78,2.78A2.78,2.78,0,0,0,36.69,266.32Z"/><path class="cls-1" d="M51.46,274.1v-5.52c0-1.36-.3-2.39-1.89-2.39s-2.14,1.26-2.14,2.76v5.15H44.65v-10h2.78v1.22a3.68,3.68,0,0,1,3.13-1.54,3.44,3.44,0,0,1,3.68,4v6.32Z"/><path class="cls-1" d="M59.23,269.57c0,1.54.78,2.67,2.44,2.67A2.61,2.61,0,0,0,64,270.9l2.58.41a4.88,4.88,0,0,1-4.9,3.1,5,5,0,0,1-5.33-5.31,4.93,4.93,0,0,1,5.22-5.29c3.29,0,5.08,2.21,5.08,5.38v.37Zm2.42-3.77a2.26,2.26,0,0,0-2.32,2H64A2.31,2.31,0,0,0,61.65,265.8Z"/><path class="cls-1" d="M75.63,274.1v-5.52c0-1.36-.3-2.39-1.89-2.39s-2.14,1.26-2.14,2.76v5.15H68.83v-10h2.78v1.22a3.67,3.67,0,0,1,3.13-1.54,3.44,3.44,0,0,1,3.68,4v6.32Z"/><path class="cls-1" d="M93.8,274.1v-5.45c0-1.17-.18-2.46-1.66-2.46-1.63,0-1.91,1.49-1.91,2.81v5.1H87.45v-5.29a4.43,4.43,0,0,0-.21-1.66,1.61,1.61,0,0,0-1.5-1,1.82,1.82,0,0,0-1.56.9,4.14,4.14,0,0,0-.32,1.91v5.1H81.08v-10h2.78v1.13a3.82,3.82,0,0,1,3-1.45,3.38,3.38,0,0,1,3.1,1.82,3.68,3.68,0,0,1,3.26-1.82,3.27,3.27,0,0,1,2.78,1.43,4.39,4.39,0,0,1,.53,2.41v6.44Z"/><path class="cls-1" d="M106.87,274.1v-1.31a3.85,3.85,0,0,1-3.24,1.63c-3,0-4.9-2.48-4.9-5.33a5,5,0,0,1,4.83-5.27,4.15,4.15,0,0,1,3.31,1.59v-1.27h2.81v10Zm-4.81-11.82a1.66,1.66,0,0,1,0-3.31,1.66,1.66,0,1,1,0,3.31Zm2.32,4a2.79,2.79,0,1,0,2.78,2.78A2.78,2.78,0,0,0,104.38,266.32Zm2.46-4a1.68,1.68,0,0,1-1.66-1.66,1.66,1.66,0,1,1,1.66,1.66Z"/><path class="cls-1" d="M118.85,266.67a2.46,2.46,0,0,0-1.33-.35c-1.89,0-2.39,1.33-2.39,3v4.78h-2.78v-10h2.78v1.49a3.25,3.25,0,0,1,4.12-1.59Z"/><path class="cls-1" d="M127.45,274.1l-3.75-4.28-.3.3v4h-2.78V256.87h2.78v10.9l3.72-3.63h3.77l-4.67,4.37,5,5.59Z"/><path class="cls-1" d="M135.32,266.53v7.57h-2.78v-7.57h-1.1v-2.39h1.1v-3.4h2.78v3.4h2v2.39Z"/><path class="cls-1" d="M146.33,274.1v-1.31a3.85,3.85,0,0,1-3.24,1.63c-3,0-4.9-2.48-4.9-5.33a5,5,0,0,1,4.83-5.27,4.15,4.15,0,0,1,3.31,1.59v-1.27h2.8v10Zm-2.48-7.77a2.79,2.79,0,1,0,2.78,2.78A2.78,2.78,0,0,0,143.85,266.32Z"/><path class="cls-1" d="M15.1,308.1v-5.45c0-1.38-.3-2.46-1.91-2.46s-2.12,1.33-2.12,2.81v5.1H8.29V290.87h2.78v8.55a3.62,3.62,0,0,1,3.13-1.61A3.81,3.81,0,0,1,17.1,299a4,4,0,0,1,.78,2.81v6.25Z"/><path class="cls-1" d="M25.36,308.42c-2.74,0-4.81-1.22-4.81-4.18v-6.09h2.78v5.63c0,1.36.57,2.28,2,2.28s2-.92,2-2.28v-5.63h2.81v6.09C30.18,307.2,28.09,308.42,25.36,308.42Z"/><path class="cls-1" d="M36,308.42a5.3,5.3,0,0,1-3.79-1.65l1.47-1.7A3.23,3.23,0,0,0,36,306.23a1.17,1.17,0,0,0,1.27-1.1c0-1.7-4.44-.85-4.44-4.21,0-2,1.68-3.15,3.56-3.15a5.13,5.13,0,0,1,3.24,1.06l-1.38,1.63a2.78,2.78,0,0,0-1.66-.67c-.48,0-1.06.3-1.06.85,0,1.45,4.6.8,4.6,4.21C40.19,307.18,38.17,308.42,36,308.42Z"/><path class="cls-1" d="M50.79,300.53v7.57H48v-7.57H46.93v-2.39H48v-3.2a4.85,4.85,0,0,1,.44-2.35,3.94,3.94,0,0,1,3.45-2,3.3,3.3,0,0,1,1.47.34v2.55a2.78,2.78,0,0,0-1.27-.37c-1.24,0-1.31,1.29-1.31,2.23v2.78h2.58v2.39Z"/><path class="cls-1" d="M59.83,308.42c-3.17,0-5.7-2-5.7-5.29s2.53-5.31,5.73-5.31,5.66,2,5.66,5.29S63,308.42,59.83,308.42Zm-2.41-12.14a1.66,1.66,0,1,1,0-3.31,1.66,1.66,0,0,1,0,3.31Zm2.39,4a2.79,2.79,0,1,0,2.83,2.81A2.82,2.82,0,0,0,59.81,300.32Zm2.39-4a1.68,1.68,0,0,1-1.66-1.66,1.66,1.66,0,1,1,1.66,1.66Z"/><path class="cls-1" d="M74.16,300.67a2.46,2.46,0,0,0-1.33-.35c-1.89,0-2.39,1.33-2.39,3v4.78H67.65v-10h2.78v1.49A3.25,3.25,0,0,1,74.55,298Z"/><path class="cls-1" d="M84,303.57c0,1.54.78,2.67,2.44,2.67a2.61,2.61,0,0,0,2.37-1.33l2.58.41a4.88,4.88,0,0,1-4.9,3.1,5,5,0,0,1-5.33-5.31,4.93,4.93,0,0,1,5.22-5.29c3.29,0,5.08,2.21,5.08,5.38v.37Zm2.41-3.77a2.26,2.26,0,0,0-2.32,2h4.71A2.31,2.31,0,0,0,86.42,299.8Z"/><path class="cls-1" d="M100.4,308.1v-5.52c0-1.36-.3-2.39-1.89-2.39s-2.14,1.26-2.14,2.76v5.15H93.6v-10h2.78v1.22a3.67,3.67,0,0,1,3.13-1.54,3.44,3.44,0,0,1,3.68,4v6.32Z"/><path class="cls-1" d="M11.46,342.42a5.3,5.3,0,0,1-3.79-1.65l1.47-1.7a3.23,3.23,0,0,0,2.34,1.17,1.17,1.17,0,0,0,1.27-1.1c0-1.7-4.44-.85-4.44-4.21,0-2,1.68-3.15,3.56-3.15a5.13,5.13,0,0,1,3.24,1.06l-1.38,1.63a2.77,2.77,0,0,0-1.66-.67c-.48,0-1.06.3-1.06.85,0,1.45,4.6.8,4.6,4.21C15.63,341.18,13.6,342.42,11.46,342.42Z"/><path class="cls-1" d="M22.41,342.42c-2.74,0-4.81-1.22-4.81-4.18v-6.09h2.78v5.63c0,1.36.58,2.28,2,2.28s2-.92,2-2.28v-5.63h2.81v6.09C27.24,341.2,25.15,342.42,22.41,342.42Z"/><path class="cls-1" d="M36.72,342.1v-5.52c0-1.36-.3-2.39-1.89-2.39s-2.14,1.26-2.14,2.76v5.15H29.91v-10h2.78v1.22a3.68,3.68,0,0,1,3.13-1.54,3.44,3.44,0,0,1,3.68,4v6.32Z"/><path class="cls-1" d="M49.78,342.1v-1.31a3.85,3.85,0,0,1-3.24,1.63c-3,0-4.9-2.48-4.9-5.33a5,5,0,0,1,4.83-5.27,4.15,4.15,0,0,1,3.31,1.59v-8.53h2.81V342.1Zm-2.48-7.77a2.79,2.79,0,1,0,2.78,2.78A2.78,2.78,0,0,0,47.3,334.32Z"/><path class="cls-1" d="M62.36,329.61a1.68,1.68,0,0,1,0-3.36,1.68,1.68,0,0,1,0,3.36ZM61,342.1v-10h2.78v10Z"/><path class="cls-1" d="M73.17,342.1v-5.52c0-1.36-.3-2.39-1.89-2.39s-2.14,1.26-2.14,2.76v5.15H66.36v-10h2.78v1.22a3.68,3.68,0,0,1,3.13-1.54,3.44,3.44,0,0,1,3.68,4v6.32Z"/><path class="cls-1" d="M85.43,342.1v-5.52c0-1.36-.3-2.39-1.89-2.39s-2.14,1.26-2.14,2.76v5.15H78.62v-10h2.78v1.22a3.68,3.68,0,0,1,3.13-1.54,3.44,3.44,0,0,1,3.68,4v6.32Z"/><path class="cls-1" d="M93.2,337.57c0,1.54.78,2.67,2.44,2.67A2.61,2.61,0,0,0,98,338.9l2.58.41a4.88,4.88,0,0,1-4.9,3.1,5,5,0,0,1-5.33-5.31,4.93,4.93,0,0,1,5.22-5.29c3.29,0,5.08,2.21,5.08,5.38v.37Zm2.42-3.77a2.26,2.26,0,0,0-2.32,2H98A2.31,2.31,0,0,0,95.62,333.79Z"/><path class="cls-1" d="M115.51,342.1v-5.45c0-1.17-.18-2.46-1.66-2.46-1.63,0-1.91,1.5-1.91,2.81v5.1h-2.78v-5.29a4.43,4.43,0,0,0-.21-1.66,1.61,1.61,0,0,0-1.5-1,1.82,1.82,0,0,0-1.56.9,4.14,4.14,0,0,0-.32,1.91v5.1h-2.78v-10h2.78v1.13a3.82,3.82,0,0,1,3-1.45,3.38,3.38,0,0,1,3.1,1.82,3.68,3.68,0,0,1,3.26-1.82,3.27,3.27,0,0,1,2.78,1.43,4.38,4.38,0,0,1,.53,2.41v6.44Z"/><path class="cls-1" d="M122.32,329.61a1.68,1.68,0,0,1,0-3.36,1.68,1.68,0,0,1,0,3.36Zm-1.4,12.49v-10h2.78v10Z"/><path class="cls-1" d="M126.32,342.1V324.87h2.78V342.1Z"/><path class="cls-1" d="M133.13,329.61a1.68,1.68,0,0,1,0-3.36,1.68,1.68,0,0,1,0,3.36Zm-1.4,17.8V332.14h2.78v15.27Z"/><path class="cls-1" d="M142.31,342.42c-3.17,0-5.7-2-5.7-5.29s2.53-5.31,5.73-5.31,5.66,2,5.66,5.29S145.46,342.42,142.31,342.42Zm-2.42-12.14a1.66,1.66,0,0,1,0-3.31,1.66,1.66,0,1,1,0,3.31Zm2.39,4a2.79,2.79,0,1,0,2.83,2.81A2.82,2.82,0,0,0,142.28,334.32Zm2.39-4a1.68,1.68,0,0,1-1.66-1.66,1.66,1.66,0,1,1,1.66,1.66Z"/><path class="cls-1" d="M151.67,342.4a1.79,1.79,0,1,1,1.79-1.79A1.8,1.8,0,0,1,151.67,342.4Zm-1.43-4.69V326.76h2.85v10.95Z"/></svg>