<svg id="Layer_1" data-name="Layer 1" xmlns="http://www.w3.org/2000/svg" viewBox="0 0 980 120"><defs><style>.cls-1{fill:#d4ac76;}</style></defs><title>text</title><path class="cls-1" d="M871.94,47.75V38.47h3a2.78,2.78,0,0,1,2,.78,2.55,2.55,0,0,1,.8,1.91,2.21,2.21,0,0,1-1,1.87,2.56,2.56,0,0,1,1,.83,2,2,0,0,1,.38,1.18,2.54,2.54,0,0,1-.81,2,2.89,2.89,0,0,1-2,.75ZM874.79,40h-1.24v2.33h1.38a1.29,1.29,0,0,0,.93-.34,1.18,1.18,0,0,0,.35-.86,1,1,0,0,0-.39-.82A1.66,1.66,0,0,0,874.79,40Zm.26,3.72h-1.5V46.2H875a1.48,1.48,0,0,0,1.05-.35,1.26,1.26,0,0,0,0-1.78A1.49,1.49,0,0,0,875.05,43.74Z"/><path class="cls-1" d="M880.74,47.75V38.47h1.73v7.61h3.41v1.67Z"/><path class="cls-1" d="M888.15,47.75V38.47h1.74v9.28Z"/><path class="cls-1" d="M826,62.89a3.18,3.18,0,0,1-1.91-.58A3,3,0,0,1,823,60.77l1.48-.77a1.72,1.72,0,0,0,.58.89,1.65,1.65,0,0,0,1.05.34,1.27,1.27,0,0,0,1-.48,1.89,1.89,0,0,0,.4-1.26v-6h1.74v6.09a3.23,3.23,0,0,1-.93,2.46A3.28,3.28,0,0,1,826,62.89Z"/><path class="cls-1" d="M838,61.92a3.8,3.8,0,0,1-5.07,0,3.3,3.3,0,0,1-1-2.46v-6h1.74v5.76a2.16,2.16,0,0,0,.48,1.44,1.66,1.66,0,0,0,1.32.56,1.63,1.63,0,0,0,1.32-.56,2.08,2.08,0,0,0,.48-1.41V53.47H839v6A3.29,3.29,0,0,1,838,61.92Z"/><path class="cls-1" d="M841.89,62.75V53.47h3.05a2.78,2.78,0,0,1,2,.78,2.55,2.55,0,0,1,.8,1.91,2.21,2.21,0,0,1-1,1.87,2.56,2.56,0,0,1,1,.83,2,2,0,0,1,.38,1.18,2.54,2.54,0,0,1-.81,2,2.89,2.89,0,0,1-2.05.75ZM844.74,55H843.5v2.33h1.39a1.28,1.28,0,0,0,.92-.34,1.18,1.18,0,0,0,.35-.86,1,1,0,0,0-.39-.82A1.64,1.64,0,0,0,844.74,55Zm.27,3.72H843.5V61.2H845a1.48,1.48,0,0,0,1-.35,1.26,1.26,0,0,0,0-1.78A1.47,1.47,0,0,0,845,58.74Z"/><path class="cls-1" d="M850.69,62.75V53.47h1.74v9.28Z"/><path class="cls-1" d="M855.5,62.75V53.47h1.74v7.61h3.41v1.67Z"/><path class="cls-1" d="M868.09,58.83h-3.43V61.2h3.76v1.55h-5.5V53.47h5.4V55h-3.66v2.26h3.43Z"/><path class="cls-1" d="M876.89,61.92a3.81,3.81,0,0,1-5.08,0,3.29,3.29,0,0,1-1-2.46v-6h1.74v5.76a2.16,2.16,0,0,0,.48,1.44,1.84,1.84,0,0,0,2.64,0,2.08,2.08,0,0,0,.48-1.41V53.47h1.74v6A3.29,3.29,0,0,1,876.89,61.92Z"/><path class="cls-1" d="M880.76,62.75V53.47h1.68l2.87,4.58,2.9-4.58H890v9.28h-1.75V56.4l-.13,0-2.88,4.44-2.81-4.38h0v6.31Z"/><path class="cls-1" d="M895.38,62.87a4.37,4.37,0,0,1-1.75-.37,4.46,4.46,0,0,1-1.5-1l1.1-1.32a3.61,3.61,0,0,0,1,.83,2.72,2.72,0,0,0,1.23.32,1.43,1.43,0,0,0,1-.32,1,1,0,0,0,.39-.8,1.38,1.38,0,0,0-1-1.28l-1-.42a4,4,0,0,1-1.54-1,2.34,2.34,0,0,1-.5-1.58,2.39,2.39,0,0,1,.79-1.76,2.66,2.66,0,0,1,2-.77,4,4,0,0,1,2.86,1.06l-1,1.29a2.37,2.37,0,0,0-1.83-.81,1.24,1.24,0,0,0-.83.27.83.83,0,0,0-.31.65.88.88,0,0,0,.24.64,2.4,2.4,0,0,0,.8.48l1.08.43a2.85,2.85,0,0,1,2.1,2.68,2.6,2.6,0,0,1-.87,2A3.38,3.38,0,0,1,895.38,62.87Z"/><path class="cls-1" d="M901,62.75V53.47h1.61v4.09l3.55-4.09h2.15L905,57.17l3.34,5.58h-2l-2.53-4.23-1.24,1.4v2.83Z"/><path class="cls-1" d="M916.41,61.92a3.81,3.81,0,0,1-5.08,0,3.29,3.29,0,0,1-1-2.46v-6h1.74v5.76a2.21,2.21,0,0,0,.47,1.44,1.85,1.85,0,0,0,2.65,0,2.08,2.08,0,0,0,.48-1.41V53.47h1.74v6A3.33,3.33,0,0,1,916.41,61.92Z"/><path class="cls-1" d="M920.27,62.75V53.47h1.22l4.57,5.84V53.47h1.74v9.28h-1.17L922,56.85v5.9Z"/><path class="cls-1" d="M930.87,62.75V53.47h2.65a4.55,4.55,0,0,1,3.28,1.33,4.46,4.46,0,0,1,1.37,3.34,4.3,4.3,0,0,1-1.39,3.31,4.71,4.71,0,0,1-3.36,1.3ZM933.54,55h-1.06V61.2h1.07a2.66,2.66,0,0,0,2.05-.9,3.13,3.13,0,0,0,.83-2.21,3.06,3.06,0,0,0-.84-2.19A2.75,2.75,0,0,0,933.54,55Z"/><path class="cls-1" d="M874.54,77.75V68.47h1.22l4.57,5.84V68.47h1.74v9.28H880.9l-4.62-5.9v5.9Z"/><path class="cls-1" d="M891,76.92a3.81,3.81,0,0,1-5.08,0,3.29,3.29,0,0,1-1-2.46v-6h1.74v5.76a2.16,2.16,0,0,0,.48,1.44,1.63,1.63,0,0,0,1.32.56,1.66,1.66,0,0,0,1.32-.56,2.08,2.08,0,0,0,.48-1.41V68.47H892v6A3.33,3.33,0,0,1,891,76.92Z"/></svg>