<svg id="Layer_1" data-name="Layer 1" xmlns="http://www.w3.org/2000/svg" viewBox="0 0 980 120"><defs><style>.cls-1{fill:#d4ac76;}</style></defs><title>text</title><path class="cls-1" d="M346.13,90l-4.52-11.59h1.82l3.47,8.91,3.48-8.91h1.79L347.64,90Z"/><path class="cls-1" d="M355.36,90V78.39H357V90Z"/><path class="cls-1" d="M368,90V78.39h6.33v1.54h-4.71v3.65h4.17v1.54h-4.17V90Z"/><path class="cls-1" d="M377.94,90V78.39h1.62V90Z"/><path class="cls-1" d="M384.31,90V78.39h4.31a3.59,3.59,0,0,1,2.61,1,3.58,3.58,0,0,1-2,6.17L392.55,90h-2l-3.33-4.42h-1.29V90Zm4.09-10h-2.47v4.19h2.46a2.33,2.33,0,0,0,1.64-.58,2,2,0,0,0,.63-1.52,1.93,1.93,0,0,0-.64-1.48A2.25,2.25,0,0,0,388.4,79.93Z"/><path class="cls-1" d="M395,90l4.65-11.59h1.47L405.63,90h-1.79l-.7-1.78h-5.68L396.74,90Zm5.38-8.93-2.25,5.6h4.46Z"/><path class="cls-1" d="M408.85,90V78.39h4.31a3.59,3.59,0,0,1,2.61,1,3.58,3.58,0,0,1-2,6.17L417.09,90h-2l-3.33-4.42h-1.29V90Zm4.09-10h-2.47v4.19h2.46a2.32,2.32,0,0,0,1.64-.58A2,2,0,0,0,415.2,82a1.93,1.93,0,0,0-.64-1.48A2.25,2.25,0,0,0,412.94,79.93Z"/><path class="cls-1" d="M426.34,90V89L431,82.84a2.32,2.32,0,0,0,.64-1.47,1.71,1.71,0,0,0-.5-1.24,1.8,1.8,0,0,0-1.3-.5,1.62,1.62,0,0,0-1.28.57,2.19,2.19,0,0,0-.53,1.46h-1.62a3.43,3.43,0,0,1,1-2.46,3.29,3.29,0,0,1,2.47-1,3.49,3.49,0,0,1,2.46.91,3,3,0,0,1,1,2.28A4.13,4.13,0,0,1,432,83.94l-3.62,4.6h5V90Z"/><path class="cls-1" d="M440.3,90.16a4,4,0,0,1-2.34-.71,3.61,3.61,0,0,1-1.38-1.88l1.47-.57a2.26,2.26,0,0,0,.84,1.16,2.33,2.33,0,0,0,1.41.46,2.26,2.26,0,0,0,2.33-2.31,2.15,2.15,0,0,0-.68-1.63,2.29,2.29,0,0,0-1.63-.65,2.16,2.16,0,0,0-1.65.7h-1.62V78.39h6.5v1.54h-4.88v3.12a3.07,3.07,0,0,1,1.65-.46,3.91,3.91,0,0,1,2.85,1.06,3.57,3.57,0,0,1,1.08,2.66A3.69,3.69,0,0,1,443.11,89,3.83,3.83,0,0,1,440.3,90.16Z"/><path class="cls-1" d="M453,90l4.65-11.59h1.47L463.68,90h-1.79l-.7-1.78h-5.68L454.79,90Zm5.38-8.93-2.25,5.6h4.45Zm1.12-3.45a1.5,1.5,0,0,1-1.12.46,1.48,1.48,0,0,1-1.11-.46,1.52,1.52,0,0,1-.46-1.12,1.57,1.57,0,0,1,1.57-1.57,1.5,1.5,0,0,1,1.12.46,1.48,1.48,0,0,1,.46,1.11A1.52,1.52,0,0,1,459.5,77.6Zm-1.12-.47a.62.62,0,0,0,.45-.2.64.64,0,0,0,.18-.45.63.63,0,0,0-.63-.64.65.65,0,0,0-.64.64.61.61,0,0,0,.19.45A.59.59,0,0,0,458.38,77.13Z"/><path class="cls-1" d="M466.9,90V78.39h4.31a3.59,3.59,0,0,1,2.61,1,3.58,3.58,0,0,1-2,6.17L475.14,90h-2l-3.33-4.42h-1.29V90Zm4.09-10h-2.47v4.19H471a2.33,2.33,0,0,0,1.64-.58,2.09,2.09,0,0,0,0-3A2.25,2.25,0,0,0,471,79.93Z"/><path class="cls-1" d="M483.93,90l4.65-11.59h1.47L494.61,90h-1.79l-.7-1.78h-5.68L485.72,90Zm5.38-8.93-2.25,5.6h4.45Z"/><path class="cls-1" d="M500.15,90l-4.52-11.59h1.82l3.47,8.91,3.48-8.91h1.79L501.66,90Z"/><path class="cls-1" d="M523.11,90V85h-5.64v5h-1.62V78.39h1.62v5h5.64v-5h1.62V90Z"/><path class="cls-1" d="M533.51,90.18a4,4,0,0,1-3-1.22,4.21,4.21,0,0,1-1.19-3.06V78.39h1.62V85.8a3,3,0,0,0,.69,2,2.38,2.38,0,0,0,1.9.8,2.46,2.46,0,0,0,1.92-.78,3,3,0,0,0,.7-2V78.39h1.62V85.9A4.24,4.24,0,0,1,536.57,89,4.09,4.09,0,0,1,533.51,90.18Z"/><path class="cls-1" d="M545.37,90.13a5.43,5.43,0,0,1-2.17-.46,5.77,5.77,0,0,1-1.83-1.25l1.14-1.31a4.55,4.55,0,0,0,1.33,1.06,3.45,3.45,0,0,0,1.61.42,2.24,2.24,0,0,0,1.5-.5,1.56,1.56,0,0,0,.58-1.23,2,2,0,0,0-1.47-1.9l-1.37-.54a4.8,4.8,0,0,1-1.9-1.25,2.76,2.76,0,0,1-.62-1.83,2.89,2.89,0,0,1,1-2.19,3.28,3.28,0,0,1,2.36-.91,4.69,4.69,0,0,1,3.37,1.28l-1,1.3a3.23,3.23,0,0,0-2.4-1,1.8,1.8,0,0,0-1.22.41,1.39,1.39,0,0,0-.13,2,3.2,3.2,0,0,0,1.18.71l1.39.56a3.31,3.31,0,0,1,2.44,3.32,3.14,3.14,0,0,1-1,2.43A3.85,3.85,0,0,1,545.37,90.13Z"/><path class="cls-1" d="M553.12,90V78.39h3.11a5.84,5.84,0,0,1,4.06,9.94A5.68,5.68,0,0,1,556.17,90Zm3.17-10h-1.55v8.51h1.6a3.74,3.74,0,0,0,2.85-1.25,4.24,4.24,0,0,0,1.16-3,4.17,4.17,0,0,0-1.19-3A3.9,3.9,0,0,0,556.29,79.93Z"/><path class="cls-1" d="M566,90V78.39h4.31a3.59,3.59,0,0,1,2.61,1,3.58,3.58,0,0,1-2,6.17L574.2,90h-2l-3.33-4.42h-1.29V90Zm4.09-10h-2.47v4.19H570a2.33,2.33,0,0,0,1.64-.58,2.09,2.09,0,0,0,0-3A2.25,2.25,0,0,0,570.05,79.93Z"/><path class="cls-1" d="M583.22,90.19A5.71,5.71,0,0,1,579,88.48a6.24,6.24,0,0,1,0-8.6,5.91,5.91,0,0,1,8.35,0,6.18,6.18,0,0,1,0,8.58A5.69,5.69,0,0,1,583.22,90.19Zm-3-2.84a4.2,4.2,0,0,0,6.08,0,4.66,4.66,0,0,0,0-6.34,4.19,4.19,0,0,0-6.07,0,4.67,4.67,0,0,0,0,6.34Zm2-10.19a.74.74,0,0,1-.57.25.76.76,0,0,1-.58-.25,1,1,0,0,1,0-1.26.77.77,0,0,1,.58-.26.75.75,0,0,1,.57.26.95.95,0,0,1,0,1.26Zm3.22,0a.76.76,0,0,1-.58.25.72.72,0,0,1-.57-.25.95.95,0,0,1,0-1.26.73.73,0,0,1,.57-.26.77.77,0,0,1,.58.26,1,1,0,0,1,0,1.26Z"/><path class="cls-1" d="M593.19,90V78.39h1.66l3.74,6.18,3.79-6.18H604V90h-1.62V81.42l-.05,0-3.73,6-3.66-5.91h-.1V90Z"/><path class="cls-1" d="M608.74,90V78.39h1.67l3.73,6.18,3.8-6.18h1.59V90h-1.62V81.42l0,0-3.74,6-3.66-5.91h-.1V90Z"/><path class="cls-1" d="M622.83,90l4.65-11.59H629L633.51,90h-1.79L631,88.2h-5.68L624.62,90Zm5.38-8.93L626,86.65h4.45Z"/><path class="cls-1" d="M636.73,90V78.39H641a3.59,3.59,0,0,1,2.61,1,3.58,3.58,0,0,1-2,6.17L645,90h-2l-3.33-4.42h-1.29V90Zm4.09-10h-2.47v4.19h2.45a2.34,2.34,0,0,0,1.65-.58,2.09,2.09,0,0,0,0-3A2.25,2.25,0,0,0,640.82,79.93Z"/></svg>