<svg id="Layer_1" data-name="Layer 1" xmlns="http://www.w3.org/2000/svg" viewBox="0 0 250 720"><defs><style>.cls-1{fill:#d4ac76;}</style></defs><title>text</title><path class="cls-1" d="M52.16,67.84,46.55,53.16h2.87l4,10.56,4-10.56h2.78L54.66,67.84Z"/><path class="cls-1" d="M63.69,67.84V53.16h2.75V67.84Z"/><path class="cls-1" d="M75.46,68a7,7,0,0,1-2.77-.58,7.13,7.13,0,0,1-2.38-1.6l1.75-2.09a5.11,5.11,0,0,0,1.62,1.31,4.13,4.13,0,0,0,1.93.51,2.32,2.32,0,0,0,1.56-.5,1.59,1.59,0,0,0,.62-1.27,2.2,2.2,0,0,0-1.62-2l-1.63-.65A6.24,6.24,0,0,1,72.1,59.5a3.73,3.73,0,0,1-.79-2.5,3.82,3.82,0,0,1,1.24-2.79A4.25,4.25,0,0,1,75.67,53a6.32,6.32,0,0,1,4.52,1.67l-1.62,2.05a3.78,3.78,0,0,0-2.9-1.27,2,2,0,0,0-1.32.42,1.32,1.32,0,0,0-.5,1,1.37,1.37,0,0,0,.39,1,3.92,3.92,0,0,0,1.26.76l1.71.68q3.27,1.32,3.33,4.24a4.13,4.13,0,0,1-1.38,3.22A5.37,5.37,0,0,1,75.46,68Z"/><path class="cls-1" d="M84.74,67.84V53.16h1.93l7.23,9.23V53.16h2.75V67.84H94.81L87.49,58.5v9.34Z"/><path class="cls-1" d="M101.9,67.84V53.16h2.75V67.84Z"/><path class="cls-1" d="M109.9,67.84V53.16h1.93l7.22,9.23V53.16h2.76V67.84H120l-7.31-9.34v9.34Z"/><path class="cls-1" d="M136,61.71V59.26h5.26l0,1.25a7.56,7.56,0,0,1-1.07,3.9,7.42,7.42,0,0,1-2.78,2.7,7.61,7.61,0,0,1-3.75,1,7.62,7.62,0,1,1,0-15.24,7.25,7.25,0,0,1,5.47,2.38l-1.88,1.85a4.75,4.75,0,0,0-3.61-1.59,4.65,4.65,0,0,0-3.51,1.44,5.19,5.19,0,0,0,0,7.08,4.48,4.48,0,0,0,3.33,1.44,5.23,5.23,0,0,0,3.27-1,4.66,4.66,0,0,0,1.73-2.7Z"/><path class="cls-1" d="M149.4,68a7,7,0,0,1-2.77-.58,7.34,7.34,0,0,1-2.38-1.6L146,63.76a5.34,5.34,0,0,0,1.62,1.31,4.2,4.2,0,0,0,1.94.51,2.36,2.36,0,0,0,1.56-.5,1.58,1.58,0,0,0,.61-1.27,2.19,2.19,0,0,0-1.61-2l-1.64-.65A6.4,6.4,0,0,1,146,59.5a3.78,3.78,0,0,1-.79-2.5,3.83,3.83,0,0,1,1.25-2.79A4.24,4.24,0,0,1,149.61,53a6.34,6.34,0,0,1,4.53,1.67l-1.63,2.05a3.76,3.76,0,0,0-2.9-1.27,2,2,0,0,0-1.31.42,1.29,1.29,0,0,0-.5,1,1.37,1.37,0,0,0,.39,1,3.92,3.92,0,0,0,1.26.76l1.71.68q3.27,1.32,3.33,4.24a4.13,4.13,0,0,1-1.38,3.22A5.39,5.39,0,0,1,149.4,68Z"/><path class="cls-1" d="M167.73,67.84V61.71h-6.29v6.13h-2.75V53.16h2.75v5.91h6.29V53.16h2.76V67.84Z"/><path class="cls-1" d="M185.05,66.52a6,6,0,0,1-8,0,5.17,5.17,0,0,1-1.58-3.88V53.16h2.75v9.12a3.32,3.32,0,0,0,.76,2.26,2.91,2.91,0,0,0,4.18,0,3.26,3.26,0,0,0,.76-2.23V53.16h2.76v9.48A5.18,5.18,0,0,1,185.05,66.52Z"/><path class="cls-1" d="M195.52,68a7,7,0,0,1-2.77-.58,7.13,7.13,0,0,1-2.38-1.6l1.75-2.09a5.22,5.22,0,0,0,1.62,1.31,4.13,4.13,0,0,0,1.93.51,2.37,2.37,0,0,0,1.57-.5,1.61,1.61,0,0,0,.61-1.27,2.2,2.2,0,0,0-1.61-2l-1.64-.65a6.32,6.32,0,0,1-2.44-1.62,3.73,3.73,0,0,1-.79-2.5,3.82,3.82,0,0,1,1.24-2.79A4.25,4.25,0,0,1,195.73,53a6.32,6.32,0,0,1,4.52,1.67l-1.62,2.05a3.78,3.78,0,0,0-2.9-1.27,2,2,0,0,0-1.32.42,1.32,1.32,0,0,0-.5,1,1.37,1.37,0,0,0,.39,1,3.92,3.92,0,0,0,1.26.76l1.71.68q3.27,1.32,3.33,4.24a4.13,4.13,0,0,1-1.38,3.22A5.37,5.37,0,0,1,195.52,68Z"/><path class="cls-1" d="M53.28,90.64V76H56V90.64Z"/><path class="cls-1" d="M78.08,84.51V82.06h5.26l0,1.25a7.5,7.5,0,0,1-1.07,3.89,7.37,7.37,0,0,1-2.78,2.71,7.61,7.61,0,0,1-3.75,1,7.62,7.62,0,1,1,0-15.24A7.2,7.2,0,0,1,81.23,78l-1.88,1.85a4.75,4.75,0,0,0-3.61-1.59,4.65,4.65,0,0,0-3.51,1.44,5.19,5.19,0,0,0,0,7.08,4.48,4.48,0,0,0,3.33,1.44,5.23,5.23,0,0,0,3.27-1,4.66,4.66,0,0,0,1.73-2.7Z"/><path class="cls-1" d="M102.15,83.29a7.31,7.31,0,0,1-2.23,5.38,7.67,7.67,0,0,1-10.79,0,7.62,7.62,0,0,1,0-10.77,7.63,7.63,0,0,1,13,5.39ZM91.07,86.8a4.83,4.83,0,0,0,6.9,0,5,5,0,0,0,0-7,4.81,4.81,0,0,0-6.9,0,5.06,5.06,0,0,0,0,7Zm2.17-12.35a1.25,1.25,0,0,1-1.81,0,1.31,1.31,0,0,1-.37-.94,1.27,1.27,0,0,1,1.28-1.32,1.23,1.23,0,0,1,.89.38,1.3,1.3,0,0,1,.37.94A1.35,1.35,0,0,1,93.24,74.45Zm4.37,0a1.37,1.37,0,0,1-1,.39,1.34,1.34,0,0,1-1-.39,1.26,1.26,0,0,1-.4-.94,1.25,1.25,0,0,1,.4-.94,1.38,1.38,0,0,1,1-.38,1.4,1.4,0,0,1,1,.38,1.25,1.25,0,0,1,.4.94A1.26,1.26,0,0,1,97.61,74.45Z"/><path class="cls-1" d="M104.32,78.6V76h12.1V78.6h-4.67v12H109v-12Z"/><path class="cls-1" d="M128.13,84.43h-5.44v3.76h6v2.45h-8.72V76h8.55v2.45h-5.8V82h5.44Z"/><path class="cls-1" d="M133.12,90.64V76H138a4.46,4.46,0,0,1,3.21,1.22,4.07,4.07,0,0,1,1.26,3,3.49,3.49,0,0,1-1.64,3,4,4,0,0,1,1.62,1.31,3.1,3.1,0,0,1,.61,1.87,4.06,4.06,0,0,1-1.28,3.11,4.61,4.61,0,0,1-3.25,1.18Zm4.51-12.23h-2v3.68h2.19a2,2,0,0,0,1.46-.54,1.78,1.78,0,0,0,.57-1.35,1.56,1.56,0,0,0-.62-1.3A2.56,2.56,0,0,0,137.63,78.41Zm.42,5.89h-2.38v3.89H138a2.38,2.38,0,0,0,1.66-.55,1.85,1.85,0,0,0,.61-1.42,1.79,1.79,0,0,0-.58-1.4A2.32,2.32,0,0,0,138.05,84.3Z"/><path class="cls-1" d="M161.66,83.29a7.31,7.31,0,0,1-2.23,5.38,7.62,7.62,0,1,1,2.23-5.38ZM150.57,86.8a4.84,4.84,0,0,0,6.91,0,5,5,0,0,0,0-7,4.82,4.82,0,0,0-6.91,0,5.09,5.09,0,0,0,0,7Z"/><path class="cls-1" d="M165.88,90.64V76h5.75a4.93,4.93,0,0,1,3.53,1.33,4.58,4.58,0,0,1,1.42,3.48,4.44,4.44,0,0,1-1.06,3,4.65,4.65,0,0,1-2.74,1.56l3.95,5.33h-3.1l-3.81-5.24h-1.19v5.24Zm5.32-12.23h-2.57V83.2h2.57a2.7,2.7,0,0,0,1.91-.66,2.2,2.2,0,0,0,.71-1.69,2.28,2.28,0,0,0-.73-1.74A2.61,2.61,0,0,0,171.2,78.41Z"/><path class="cls-1" d="M190.1,84.51V82.06h5.27l0,1.25a7.51,7.51,0,0,1-1.08,3.89,7.37,7.37,0,0,1-2.78,2.71,7.57,7.57,0,0,1-3.74,1,7.62,7.62,0,1,1,0-15.24A7.23,7.23,0,0,1,193.26,78l-1.88,1.85a4.75,4.75,0,0,0-3.61-1.59,4.69,4.69,0,0,0-3.52,1.44,5.19,5.19,0,0,0,0,7.08,4.48,4.48,0,0,0,3.34,1.44,5.18,5.18,0,0,0,3.26-1,4.61,4.61,0,0,0,1.73-2.7Z"/></svg>