<svg id="Layer_1" data-name="Layer 1" xmlns="http://www.w3.org/2000/svg" viewBox="0 0 250 720"><defs><style>.cls-1{fill:#d4ac76;}</style></defs><title>text</title><path class="cls-1" d="M21.93,537.26,25.65,528h1.17l3.66,9.28H29l-.56-1.43H23.94l-.58,1.43Zm4.31-7.15-1.81,4.48H28Z"/><path class="cls-1" d="M35.53,537.38a4.46,4.46,0,0,1-1.74-.37,4.61,4.61,0,0,1-1.47-1l.92-1a3.4,3.4,0,0,0,1.06.84,2.71,2.71,0,0,0,1.29.34,1.8,1.8,0,0,0,1.2-.39,1.25,1.25,0,0,0,.46-1,1.62,1.62,0,0,0-1.17-1.52l-1.1-.43a4,4,0,0,1-1.52-1,2.19,2.19,0,0,1-.49-1.47,2.32,2.32,0,0,1,.76-1.75,2.62,2.62,0,0,1,1.89-.73,3.76,3.76,0,0,1,2.7,1l-.78,1a2.59,2.59,0,0,0-1.92-.83,1.5,1.5,0,0,0-1,.32,1.09,1.09,0,0,0-.38.86,1.07,1.07,0,0,0,.28.72,2.63,2.63,0,0,0,.94.57l1.12.45a2.64,2.64,0,0,1,1.95,2.65,2.57,2.57,0,0,1-.82,2A3.1,3.1,0,0,1,35.53,537.38Z"/><path class="cls-1" d="M41.73,537.26V528H43v4.4l3.87-4.4h1.74l-3.27,3.68,3.35,5.6H47.1l-2.7-4.53L43,534.28v3Z"/><path class="cls-1" d="M51.53,537.26V528h1.3v9.28Z"/><path class="cls-1" d="M56.63,537.26V528H58l3,4.95L64,528h1.27v9.28H64v-6.85l0,0-3,4.79L58,530.45h-.08v6.81Z"/><path class="cls-1" d="M71.34,537.38A4.46,4.46,0,0,1,69.6,537a4.61,4.61,0,0,1-1.47-1l.91-1a3.44,3.44,0,0,0,1.07.84,2.71,2.71,0,0,0,1.29.34,1.76,1.76,0,0,0,1.19-.39,1.26,1.26,0,0,0,.47-1,1.62,1.62,0,0,0-1.17-1.52l-1.1-.43a3.9,3.9,0,0,1-1.52-1,2.2,2.2,0,0,1-.5-1.47,2.33,2.33,0,0,1,.77-1.75,2.62,2.62,0,0,1,1.89-.73,3.78,3.78,0,0,1,2.7,1l-.79,1a2.57,2.57,0,0,0-1.91-.83,1.48,1.48,0,0,0-1,.32,1.09,1.09,0,0,0-.38.86,1,1,0,0,0,.28.72,2.63,2.63,0,0,0,.94.57l1.11.45a2.61,2.61,0,0,1,1.95,2.65,2.56,2.56,0,0,1-.81,2A3.1,3.1,0,0,1,71.34,537.38Z"/><path class="cls-1" d="M82.61,537.26V528h1.3v4.4l3.86-4.4h1.74l-3.27,3.68,3.35,5.6H88l-2.7-4.53-1.38,1.55v3Z"/><path class="cls-1" d="M97.42,528h1.5l-3.09,5.55v3.73H94.54v-3.69L91.42,528H93l2.24,4.12Z"/><path class="cls-1" d="M101.56,537.26V528H105a2.9,2.9,0,0,1,2.09.81,2.87,2.87,0,0,1-1.63,4.94l2.69,3.53h-1.6l-2.66-3.54h-1v3.54Zm3.27-8h-2v3.35h2a1.9,1.9,0,0,0,1.31-.46,1.69,1.69,0,0,0,0-2.41A1.81,1.81,0,0,0,104.83,529.22Z"/><path class="cls-1" d="M111.18,537.26V528h1.3v4.4l3.86-4.4h1.74l-3.27,3.68,3.36,5.6h-1.61l-2.7-4.53-1.38,1.55v3Z"/><path class="cls-1" d="M123.71,537.26,120.09,528h1.45l2.78,7.13,2.79-7.13h1.43l-3.63,9.28Z"/><path class="cls-1" d="M129.33,537.26l3.72-9.28h1.17l3.66,9.28h-1.44l-.56-1.43h-4.55l-.57,1.43ZM132.68,527a.65.65,0,0,1-.47.2.63.63,0,0,1-.46-.2.76.76,0,0,1-.18-.51.73.73,0,0,1,.18-.5.59.59,0,0,1,.46-.2.61.61,0,0,1,.47.2.74.74,0,0,1,.19.5A.76.76,0,0,1,132.68,527Zm.95,3.11-1.8,4.48h3.57Zm1.62-3.11a.63.63,0,0,1-.46.2.6.6,0,0,1-.46-.2.72.72,0,0,1-.19-.51.69.69,0,0,1,.19-.5.57.57,0,0,1,.46-.2.59.59,0,0,1,.46.2.73.73,0,0,1,.18.5A.76.76,0,0,1,135.25,527Z"/><path class="cls-1" d="M146.07,533.23V532h3.08v.65a4.76,4.76,0,0,1-4.8,4.77A4.54,4.54,0,0,1,141,536a5,5,0,0,1,0-6.85,4.51,4.51,0,0,1,3.38-1.39,5.1,5.1,0,0,1,2,.38,4.87,4.87,0,0,1,1.59,1.08l-1,1a3.4,3.4,0,0,0-5-.16,3.76,3.76,0,0,0,0,5.06,3.24,3.24,0,0,0,2.46,1,3.31,3.31,0,0,0,2.23-.81,3.63,3.63,0,0,0,1.17-2.14Z"/><path class="cls-1" d="M159.46,537.4a2.88,2.88,0,0,1-2-.78,2.57,2.57,0,0,1-.86-1.89h1.29a1.35,1.35,0,0,0,.49,1,1.53,1.53,0,0,0,1.08.43,1.57,1.57,0,0,0,1.15-.45,1.48,1.48,0,0,0,.46-1.11,1.54,1.54,0,0,0-1.58-1.59h-.53v-1.15h.52a1.45,1.45,0,0,0,1.08-.43,1.39,1.39,0,0,0,.43-1,1.36,1.36,0,0,0-.43-1,1.49,1.49,0,0,0-1.09-.41,1.46,1.46,0,0,0-1.06.42,1.4,1.4,0,0,0-.43,1h-1.3a2.39,2.39,0,0,1,.81-1.85,3,3,0,0,1,4,0,2.45,2.45,0,0,1,.8,1.85,2.07,2.07,0,0,1-.4,1.25,2.15,2.15,0,0,1-1,.79,2.21,2.21,0,0,1,1.08.82,2.26,2.26,0,0,1,.41,1.34,2.63,2.63,0,0,1-.85,2A2.83,2.83,0,0,1,159.46,537.4Z"/><path class="cls-1" d="M167.84,537.4a3.16,3.16,0,0,1-1.87-.57,2.87,2.87,0,0,1-1.11-1.5l1.18-.46a1.78,1.78,0,0,0,.67.93,1.87,1.87,0,0,0,1.13.37,1.83,1.83,0,0,0,1.87-1.85,1.73,1.73,0,0,0-.55-1.3,1.82,1.82,0,0,0-1.31-.53,1.71,1.71,0,0,0-1.31.57h-1.3V528h5.2v1.24h-3.9v2.49a2.43,2.43,0,0,1,1.31-.37,3.15,3.15,0,0,1,2.28.85,2.87,2.87,0,0,1,.87,2.13,2.93,2.93,0,0,1-.92,2.18A3.06,3.06,0,0,1,167.84,537.4Z"/><path class="cls-1" d="M172.56,539l1.07-3,1.19.42-1.47,2.85Z"/><path class="cls-1" d="M182,537.26l3.72-9.28h1.17l3.66,9.28h-1.44l-.56-1.43H184l-.58,1.43Zm4.3-7.15-1.8,4.48H188Z"/><path class="cls-1" d="M195.55,537.38a4.46,4.46,0,0,1-1.74-.37,4.61,4.61,0,0,1-1.47-1l.91-1a3.56,3.56,0,0,0,1.07.84,2.71,2.71,0,0,0,1.29.34,1.8,1.8,0,0,0,1.2-.39,1.25,1.25,0,0,0,.46-1,1.62,1.62,0,0,0-1.17-1.52l-1.1-.43a4,4,0,0,1-1.52-1,2.19,2.19,0,0,1-.49-1.47,2.32,2.32,0,0,1,.76-1.75,2.62,2.62,0,0,1,1.89-.73,3.78,3.78,0,0,1,2.7,1l-.78,1a2.61,2.61,0,0,0-1.92-.83,1.5,1.5,0,0,0-1,.32,1.09,1.09,0,0,0-.38.86,1.07,1.07,0,0,0,.28.72,2.63,2.63,0,0,0,.94.57l1.12.45a2.64,2.64,0,0,1,1.95,2.65,2.57,2.57,0,0,1-.82,2A3.1,3.1,0,0,1,195.55,537.38Z"/><path class="cls-1" d="M201.75,537.26V528H203v4.4l3.87-4.4h1.74l-3.28,3.68,3.36,5.6h-1.61l-2.7-4.53L203,534.28v3Z"/><path class="cls-1" d="M211.55,537.26V528h1.3v9.28Z"/><path class="cls-1" d="M216.65,537.26V528H218l3,4.95,3-4.95h1.27v9.28H224v-6.85l0,0-3,4.79L218,530.45H218v6.81Z"/><path class="cls-1" d="M12.14,557.38A4.46,4.46,0,0,1,10.4,557a4.61,4.61,0,0,1-1.47-1l.92-1a3.33,3.33,0,0,0,1.07.84,2.64,2.64,0,0,0,1.28.34,1.8,1.8,0,0,0,1.2-.39,1.25,1.25,0,0,0,.46-1,1.62,1.62,0,0,0-1.17-1.52l-1.1-.43a3.86,3.86,0,0,1-1.51-1,2.15,2.15,0,0,1-.5-1.47,2.32,2.32,0,0,1,.76-1.75,2.63,2.63,0,0,1,1.9-.73,3.75,3.75,0,0,1,2.69,1l-.78,1a2.58,2.58,0,0,0-1.91-.83,1.51,1.51,0,0,0-1,.32,1.09,1.09,0,0,0-.38.86,1.07,1.07,0,0,0,.28.72,2.72,2.72,0,0,0,.94.57l1.12.45a2.64,2.64,0,0,1,1.95,2.65,2.57,2.57,0,0,1-.82,2A3.1,3.1,0,0,1,12.14,557.38Z"/><path class="cls-1" d="M22.58,557.43a4.53,4.53,0,0,1-3.34-1.38,5,5,0,0,1,0-6.88,4.74,4.74,0,0,1,6.68,0,5,5,0,0,1,0,6.87A4.58,4.58,0,0,1,22.58,557.43Zm-2.43-2.28a3.36,3.36,0,0,0,4.86,0,3.7,3.7,0,0,0,0-5.07,3.35,3.35,0,0,0-4.85,0,3.71,3.71,0,0,0,0,5.07ZM21.71,547a.63.63,0,0,1-.46.2.61.61,0,0,1-.46-.2.76.76,0,0,1-.18-.51.73.73,0,0,1,.18-.5.58.58,0,0,1,.46-.2.59.59,0,0,1,.46.2.69.69,0,0,1,.19.5A.72.72,0,0,1,21.71,547Zm2.57,0a.61.61,0,0,1-.46.2.63.63,0,0,1-.46-.2.76.76,0,0,1-.19-.51.74.74,0,0,1,.19-.5.59.59,0,0,1,.46-.2.58.58,0,0,1,.46.2.69.69,0,0,1,.19.5A.72.72,0,0,1,24.28,547Z"/><path class="cls-1" d="M30.55,557.26V548h.91l5,6.39V548h1.3v9.28h-.72l-5.21-6.63v6.63Z"/><path class="cls-1" d="M41.65,557.26V548h2.49a4.61,4.61,0,0,1,4.59,4.62,4.56,4.56,0,0,1-4.64,4.66Zm2.54-8H43V556h1.28a3,3,0,0,0,2.28-1,3.43,3.43,0,0,0,.93-2.43,3.31,3.31,0,0,0-1-2.41A3.09,3.09,0,0,0,44.19,549.22Z"/><path class="cls-1" d="M50.57,557.26,54.29,548h1.18l3.65,9.28H57.69l-.56-1.43H52.58L52,557.26Zm4.31-7.15-1.8,4.48h3.56Z"/><path class="cls-1" d="M67.31,553.23V552h3.08v.65a4.76,4.76,0,0,1-4.8,4.77A4.54,4.54,0,0,1,62.21,556a5,5,0,0,1,0-6.85,4.51,4.51,0,0,1,3.38-1.39,5.1,5.1,0,0,1,2,.38,4.67,4.67,0,0,1,1.59,1.08l-1,1a3.4,3.4,0,0,0-5-.16,3.76,3.76,0,0,0,0,5.06,3.24,3.24,0,0,0,2.46,1,3.31,3.31,0,0,0,2.23-.81A3.53,3.53,0,0,0,69,553.23Z"/><path class="cls-1" d="M78,557.26v-.82l3.71-4.89a1.84,1.84,0,0,0,.52-1.18,1.35,1.35,0,0,0-.41-1,1.41,1.41,0,0,0-1-.4,1.31,1.31,0,0,0-1,.45,1.74,1.74,0,0,0-.42,1.17H78a2.76,2.76,0,0,1,.77-2,2.6,2.6,0,0,1,2-.8,2.76,2.76,0,0,1,2,.72,2.38,2.38,0,0,1,.77,1.82,3.29,3.29,0,0,1-1,2l-2.89,3.69h4v1.15Z"/><path class="cls-1" d="M85.57,555.13v-.81L88.8,548h1.36l-3,6h2v-1.56h1.3V554h1.12v1.15H90.41v2.13h-1.3v-2.13Z"/><path class="cls-1" d="M99.48,557.26V548h.91l5,6.39V548h1.3v9.28H106l-5.21-6.63v6.63Z"/><path class="cls-1" d="M114.64,557.43a4.54,4.54,0,0,1-3.34-1.38,5,5,0,0,1,0-6.88,4.74,4.74,0,0,1,6.68,0,4.94,4.94,0,0,1,0,6.87A4.56,4.56,0,0,1,114.64,557.43Zm-2.43-2.28a3.36,3.36,0,0,0,4.86,0,3.51,3.51,0,0,0,1-2.54,3.56,3.56,0,0,0-1-2.53,3.36,3.36,0,0,0-4.86,0,3.74,3.74,0,0,0,0,5.07Z"/><path class="cls-1" d="M124.82,557.26,121.2,548h1.46l2.78,7.13,2.78-7.13h1.43L126,557.26Z"/><path class="cls-1" d="M137.32,553.19H133.5V556h4.08v1.24h-5.37V548h5.3v1.24h-4V552h3.82Z"/><path class="cls-1" d="M140.8,557.26V548h1.33l3,4.95,3-4.95h1.28v9.28h-1.3v-6.85l0,0-3,4.79-2.92-4.72h-.09v6.81Z"/><path class="cls-1" d="M153.24,557.26V548h2.84a3,3,0,0,1,2,.72,2.38,2.38,0,0,1,.81,1.87,2.19,2.19,0,0,1-1.1,2,2.32,2.32,0,0,1,1,.84,2.14,2.14,0,0,1,.37,1.25,2.38,2.38,0,0,1-.81,1.89,3,3,0,0,1-2.07.72Zm2.71-8h-1.41V552h1.65a1.4,1.4,0,0,0,1.44-1.48,1.17,1.17,0,0,0-.46-1A1.89,1.89,0,0,0,156,549.22Zm.29,4h-1.7V556h1.61a1.94,1.94,0,0,0,1.28-.39,1.34,1.34,0,0,0,.47-1.07,1.3,1.3,0,0,0-.43-1A1.81,1.81,0,0,0,156.24,553.19Z"/><path class="cls-1" d="M167.56,553.19h-3.82V556h4.08v1.24h-5.37V548h5.3v1.24h-4V552h3.82Z"/><path class="cls-1" d="M171,557.26V548h3.44a2.9,2.9,0,0,1,2.09.81,2.79,2.79,0,0,1,.84,2.1,2.77,2.77,0,0,1-2.47,2.84l2.69,3.53H176l-2.66-3.54h-1v3.54Zm3.27-8h-2v3.35h2a1.92,1.92,0,0,0,1.31-.46,1.69,1.69,0,0,0,0-2.41A1.81,1.81,0,0,0,174.31,549.22Z"/><path class="cls-1" d="M185.68,557.26V548H187v4.4l3.87-4.4h1.74l-3.27,3.68,3.35,5.6h-1.61l-2.7-4.53L187,554.28v3Z"/><path class="cls-1" d="M195.48,557.26V548h1.3v8h3.81v1.24Z"/><path class="cls-1" d="M209.51,557.26v-7.62l-1.74.89v-1.24l2.46-1.36h.57v9.33Z"/><path class="cls-1" d="M213.79,557.26v-.82l3.71-4.89a1.89,1.89,0,0,0,.52-1.18,1.35,1.35,0,0,0-.41-1,1.41,1.41,0,0,0-1-.4,1.31,1.31,0,0,0-1,.45,1.74,1.74,0,0,0-.42,1.17h-1.3a2.76,2.76,0,0,1,.77-2,2.59,2.59,0,0,1,2-.8,2.78,2.78,0,0,1,2,.72,2.42,2.42,0,0,1,.77,1.82,3.29,3.29,0,0,1-1,2l-2.89,3.69h4v1.15Z"/><path class="cls-1" d="M222.07,553.21v-1.15h3.63v1.15Z"/><path class="cls-1" d="M229.21,557.26v-7.62l-1.74.89v-1.24l2.46-1.36h.58v9.33Z"/><path class="cls-1" d="M233.43,555.13v-.81l3.22-6.34H238l-3,6h2v-1.56h1.29V554h1.12v1.15h-1.12v2.13H237v-2.13Z"/></svg>