<svg id="Layer_1" data-name="Layer 1" xmlns="http://www.w3.org/2000/svg" viewBox="0 0 250 720"><defs><style>.cls-1{fill:#d80201;}</style></defs><title>text</title><path class="cls-1" d="M21.76,401l-1.59-11.09-5,11.34h-1L9.46,389.86,7.65,401H4.11l3.35-18.33h2.4l4.91,11.77,5.13-11.77h2.4l3,18.33Z"/><path class="cls-1" d="M34.08,401.33c-3.73,0-6.69-2.32-6.69-6.21s3-6.23,6.72-6.23,6.64,2.35,6.64,6.2S37.78,401.33,34.08,401.33Zm-2.83-14.25a1.95,1.95,0,1,1,0-3.89,1.95,1.95,0,0,1,0,3.89Zm2.8,4.75a3.28,3.28,0,1,0,3.32,3.29A3.3,3.3,0,0,0,34.05,391.83Zm2.81-4.75a2,2,0,0,1-1.94-1.95,1.94,1.94,0,1,1,1.94,1.95Z"/><path class="cls-1" d="M50.36,401.33a4.59,4.59,0,0,1-3.83-1.92V401H43.26V380.73h3.27v10a4.94,4.94,0,0,1,3.91-1.86c3.43,0,5.7,2.91,5.7,6.18S53.87,401.33,50.36,401.33Zm-.89-9.5a3.28,3.28,0,1,0,3.27,3.26A3.26,3.26,0,0,0,49.47,391.83Z"/><path class="cls-1" d="M58.62,401V380.73h3.27V401Z"/><path class="cls-1" d="M67.75,395.63c0,1.81.92,3.14,2.86,3.14a3.08,3.08,0,0,0,2.78-1.57l3,.49a5.72,5.72,0,0,1-5.75,3.64,5.86,5.86,0,0,1-6.26-6.24c0-3.72,2.38-6.2,6.13-6.2s6,2.59,6,6.31v.43Zm2.83-4.42a2.65,2.65,0,0,0-2.72,2.35h5.53A2.71,2.71,0,0,0,70.58,391.21Z"/><path class="cls-1" d="M86.65,392.23a3,3,0,0,0-1.57-.4c-2.21,0-2.81,1.56-2.81,3.51V401H79V389.26h3.26V391a3.82,3.82,0,0,1,4.84-1.86Z"/><path class="cls-1" d="M97.66,401v-1.54a4.5,4.5,0,0,1-3.8,1.92c-3.51,0-5.75-2.91-5.75-6.26s2.24-6.18,5.67-6.18a4.84,4.84,0,0,1,3.88,1.86v-1.49H101V401Zm-2.91-9.12A3.28,3.28,0,1,0,98,395.09,3.26,3.26,0,0,0,94.75,391.83Z"/><path class="cls-1" d="M107.38,392.07V401h-3.26v-8.88h-1.3v-2.81h1.3v-4h3.26v4h2.3v2.81Z"/><path class="cls-1" d="M124.07,401.2h-1.51l-6-11.94h3.67l3.08,6.59,3.08-6.59h3.67Z"/><path class="cls-1" d="M133.28,386.29a2,2,0,1,1,1.94-2A2,2,0,0,1,133.28,386.29ZM131.63,401V389.26h3.27V401Z"/><path class="cls-1" d="M141.7,401.33a6.23,6.23,0,0,1-4.45-1.94l1.72-2a3.82,3.82,0,0,0,2.76,1.38,1.38,1.38,0,0,0,1.48-1.3c0-2-5.21-1-5.21-4.94,0-2.37,2-3.7,4.19-3.7a6,6,0,0,1,3.8,1.24L144.37,392a3.26,3.26,0,0,0-1.94-.78c-.57,0-1.24.35-1.24,1,0,1.7,5.39.94,5.39,4.94C146.58,399.87,144.21,401.33,141.7,401.33Z"/><path class="cls-1" d="M156.9,401v-6.48c0-1.59-.35-2.8-2.21-2.8-2,0-2.51,1.48-2.51,3.24v6h-3.27V389.26h3.27v1.44a4.29,4.29,0,0,1,3.67-1.81,4,4,0,0,1,4.32,4.64V401Z"/><path class="cls-1" d="M164.89,386.29a2,2,0,1,1,2-2A2,2,0,0,1,164.89,386.29ZM163.25,401V389.26h3.26V401Z"/><path class="cls-1" d="M177.58,401v-6.48c0-1.59-.35-2.8-2.21-2.8-2,0-2.51,1.48-2.51,3.24v6h-3.27V389.26h3.27v1.44a4.29,4.29,0,0,1,3.67-1.81,4,4,0,0,1,4.32,4.64V401Z"/><path class="cls-1" d="M194.83,405.19a6.35,6.35,0,0,1-5,2.05c-3,0-5.89-1.73-6.21-4.91h3.53a2.6,2.6,0,0,0,2.78,2.13c2.06,0,2.89-1.43,2.89-3.32v-1.75a4.84,4.84,0,0,1-3.94,1.94c-3.45,0-5.56-2.78-5.56-6.07s2.16-6.37,5.72-6.37a4.36,4.36,0,0,1,3.78,1.89v-1.52h3.3v11.26C196.16,402.36,196.07,403.73,194.83,405.19ZM190,391.83a3.28,3.28,0,0,0,0,6.56,3.28,3.28,0,0,0,0-6.56Z"/><path class="cls-1" d="M203,401.33a6.23,6.23,0,0,1-4.46-1.94l1.73-2a3.82,3.82,0,0,0,2.75,1.38,1.38,1.38,0,0,0,1.49-1.3c0-2-5.21-1-5.21-4.94,0-2.37,2-3.7,4.18-3.7a6,6,0,0,1,3.81,1.24L205.69,392a3.29,3.29,0,0,0-1.95-.78c-.56,0-1.24.35-1.24,1,0,1.7,5.4.94,5.4,4.94C207.9,399.87,205.53,401.33,203,401.33Z"/><path class="cls-1" d="M218.21,401v-6.4c0-1.61-.35-2.88-2.24-2.88s-2.48,1.56-2.48,3.29v6h-3.27V380.73h3.27v10a4.26,4.26,0,0,1,3.67-1.89,4.46,4.46,0,0,1,3.4,1.43,4.62,4.62,0,0,1,.92,3.29V401Z"/><path class="cls-1" d="M230.26,401.33c-3.21,0-5.64-1.43-5.64-4.91v-7.16h3.26v6.62c0,1.59.68,2.67,2.38,2.67s2.37-1.08,2.37-2.67v-6.62h3.3v7.16C235.93,399.9,233.47,401.33,230.26,401.33Z"/><path class="cls-1" d="M242.79,401.33a6.23,6.23,0,0,1-4.46-1.94l1.73-2a3.82,3.82,0,0,0,2.75,1.38,1.38,1.38,0,0,0,1.49-1.3c0-2-5.21-1-5.21-4.94,0-2.37,2-3.7,4.18-3.7a6.07,6.07,0,0,1,3.81,1.24L245.46,392a3.29,3.29,0,0,0-2-.78c-.56,0-1.24.35-1.24,1,0,1.7,5.4.94,5.4,4.94C247.67,399.87,245.3,401.33,242.79,401.33Z"/><path class="cls-1" d="M23.78,438H17.73V420h4.46A7.05,7.05,0,0,1,26.58,421a4.78,4.78,0,0,1,1.63,3.7,3.76,3.76,0,0,1-2,3.61,4,4,0,0,1,2.35,1.14,4.81,4.81,0,0,1,1.3,3.37C29.88,436.44,27,438,23.78,438Zm-1.51-15.14h-1v4.64h1c1.56,0,2.73-.62,2.73-2.32S23.83,422.81,22.27,422.81Zm.59,7.31H21.24v5h1.51c1.73,0,3.51-.41,3.51-2.51S24.53,430.12,22.86,430.12Z"/><path class="cls-1" d="M35.33,432.63c.06,1.81.92,3.14,2.87,3.14A3.08,3.08,0,0,0,41,434.2l3,.49a5.73,5.73,0,0,1-5.75,3.64A5.86,5.86,0,0,1,32,432.09c0-3.72,2.37-6.2,6.13-6.2s6,2.59,6,6.31v.43Zm2.84-4.42a2.65,2.65,0,0,0-2.73,2.35H41A2.71,2.71,0,0,0,38.17,428.21Z"/><path class="cls-1" d="M50.32,438.33a6.23,6.23,0,0,1-4.45-1.94l1.72-2a3.82,3.82,0,0,0,2.76,1.38,1.38,1.38,0,0,0,1.48-1.3c0-2-5.21-1-5.21-4.94,0-2.37,2-3.7,4.18-3.7a6,6,0,0,1,3.81,1.24L53,429a3.26,3.26,0,0,0-1.94-.78c-.57,0-1.24.35-1.24,1,0,1.7,5.4.94,5.4,4.94C55.21,436.87,52.83,438.33,50.32,438.33Z"/><path class="cls-1" d="M63.6,438.33c-3.72,0-6.69-2.32-6.69-6.21s3-6.23,6.72-6.23,6.64,2.35,6.64,6.2S67.3,438.33,63.6,438.33Zm-2.83-14.25a1.95,1.95,0,0,1,0-3.89,1.95,1.95,0,0,1,0,3.89Zm2.81,4.75a3.28,3.28,0,1,0,3.32,3.29A3.31,3.31,0,0,0,63.58,428.83Zm2.8-4.75a2,2,0,0,1-1.94-1.95,1.95,1.95,0,1,1,1.94,1.95Z"/><path class="cls-1" d="M80.8,438l-4.4-5-.35.35V438H72.78V417.73h3.27v12.8l4.37-4.27h4.43l-5.48,5.13L85.28,438Z"/><path class="cls-1" d="M110.69,438l-1.6-11.09-5,11.34h-1l-4.78-11.34L96.57,438H93l3.35-18.33h2.4l4.92,11.77,5.12-11.77h2.41l3,18.33Z"/><path class="cls-1" d="M126.13,438.36a9.41,9.41,0,1,1,9.64-9.4A9.35,9.35,0,0,1,126.13,438.36Zm0-15.6a6.21,6.21,0,1,0,6,6.18A6.11,6.11,0,0,0,126.13,422.76Z"/><path class="cls-1" d="M145.71,438.41h-1.86L136.18,420H140L144.82,432,149.68,420h3.8Z"/><path class="cls-1" d="M155.62,438V420h10V423h-6.45v4h6.21V430h-6.21v4.86h6.45V438Z"/><path class="cls-1" d="M189.45,427.56h-2.73l-.38,2.43h2.76l-.46,2.94h-2.76l-.81,5H181.7l.81-5H180l-.79,5H175.9l.81-5h-2.78l.45-2.94h2.79l.37-2.43h-2.75l.46-3H178l.73-4.64h3.35l-.76,4.64h2.49l.72-4.64h3.38l-.73,4.64h2.73Zm-8.59,0-.37,2.43H183l.38-2.43Z"/><path class="cls-1" d="M197,438.41c-3.35,0-6.29-2.16-6.48-5.64H194a2.94,2.94,0,0,0,5.86-.3,2.79,2.79,0,0,0-2.81-2.86,4.76,4.76,0,0,0-.65.06v-2.54a2.69,2.69,0,0,0,.49,0,2.45,2.45,0,1,0-2.38-2.52h-3.32c.52-3.4,2.59-5.15,6-5.15,3,0,5.48,1.78,5.48,5a4,4,0,0,1-2.08,3.83,4.43,4.43,0,0,1,2.76,4.43C203.41,436.39,200.41,438.41,197,438.41Z"/><path class="cls-1" d="M212.8,438.41c-5,0-7-5.24-7-9.45s2-9.47,7-9.47,7,5.21,7,9.45S217.8,438.41,212.8,438.41Zm0-15.82c-2.75,0-3.45,4.27-3.45,6.35s.7,6.39,3.45,6.39,3.46-4.31,3.46-6.39S215.56,422.59,212.8,422.59Z"/><path class="cls-1" d="M220.93,438l5.32-6c1.46-1.64,4.13-4.37,4.13-6.66a2.69,2.69,0,0,0-2.73-2.68c-1.78,0-2.61,1.33-2.67,3h-3.75c.24-3.64,2.62-6.07,6.31-6.07,3.38,0,6.35,2.21,6.35,5.78,0,2.51-1.65,4.56-3.27,6.28l-3.13,3.35H234V438Z"/></svg>