<svg id="Layer_1" data-name="Layer 1" xmlns="http://www.w3.org/2000/svg" viewBox="0 0 250 720"><defs><style>.cls-1{fill:#d80201;}</style></defs><title>text</title><path class="cls-1" d="M48.7,526.14a3.25,3.25,0,0,1-3.29-2.75l1.15-.32A2.16,2.16,0,0,0,48.74,525a2.1,2.1,0,0,0,2.14-2.11c0-2.51-4.93-1.92-4.93-5.06a2.82,2.82,0,0,1,3-2.75,3.05,3.05,0,0,1,2.76,1.66l-1,.63a2,2,0,0,0-1.82-1.17,1.7,1.7,0,0,0-1.78,1.63c0,2.21,4.93,1.57,4.93,5A3.29,3.29,0,0,1,48.7,526.14Z"/><path class="cls-1" d="M57.06,526.14a3.5,3.5,0,1,1,3.5-3.48A3.47,3.47,0,0,1,57.06,526.14Zm0-5.95a2.46,2.46,0,1,0,2.35,2.47A2.33,2.33,0,0,0,57,520.19Z"/><path class="cls-1" d="M62.3,526V514.28h1.14V526Z"/><path class="cls-1" d="M69.06,526.14A2.82,2.82,0,0,1,66.75,525V526H65.61V514.28h1.14v6a2.87,2.87,0,0,1,2.32-1.1,3.51,3.51,0,0,1,0,7Zm-.16-5.95a2.24,2.24,0,0,0-2.21,2.45,2.21,2.21,0,1,0,2.21-2.45Z"/><path class="cls-1" d="M79.07,526V525a2.82,2.82,0,0,1-2.3,1.12,3.28,3.28,0,0,1-3.2-3.53,3.23,3.23,0,0,1,3.18-3.46,2.8,2.8,0,0,1,2.32,1.1v-.94h1.14V526Zm-2.14-5.78a2.48,2.48,0,1,0,2.21,2.44A2.24,2.24,0,0,0,76.93,520.17Z"/><path class="cls-1" d="M85.49,526.14a3.5,3.5,0,1,1,0-7,3.61,3.61,0,0,1,2.06.64v1.5a2.65,2.65,0,0,0-2.08-1.1,2.37,2.37,0,0,0-2.35,2.47,2.34,2.34,0,0,0,2.32,2.44A2.67,2.67,0,0,0,87.6,524v1.51A3.63,3.63,0,0,1,85.49,526.14Z"/><path class="cls-1" d="M93.46,526l-2.69-3-.29.28V526H89.34V514.28h1.14v7.48l2.42-2.45h1.52l-2.85,2.82L94.94,526Z"/><path class="cls-1" d="M96.49,522.86a2.16,2.16,0,0,0,2.12,2.24,2.3,2.3,0,0,0,2-1.37l1,.53a3.32,3.32,0,0,1-3.05,1.88,3.5,3.5,0,0,1-.06-7,3.18,3.18,0,0,1,3.17,3.49v.22Zm2.05-2.67a2,2,0,0,0-2,1.71h3.91A2,2,0,0,0,98.54,520.19Z"/><path class="cls-1" d="M107.6,526V522c0-1-.14-1.86-1.39-1.86-1.48,0-1.65,1.28-1.65,2.45V526h-1.14v-6.64h1.14v.8a2.23,2.23,0,0,1,1.92-1,2.26,2.26,0,0,1,1.89.91,3,3,0,0,1,.38,1.76V526Z"/><path class="cls-1" d="M118.05,526.13a3.33,3.33,0,0,1-2.47-1.06,2.82,2.82,0,0,1-.7-1.89H116a2,2,0,0,0,.37,1,2.11,2.11,0,0,0,1.68.8,2.08,2.08,0,0,0,2.1-2.12c0-1.4-1-2-2.28-2v-1a2.44,2.44,0,0,0,1.27-.26,1.83,1.83,0,0,0-1-3.38,1.8,1.8,0,0,0-1.46.69,2.93,2.93,0,0,0-.35,1h-1.17c.24-1.73,1.16-2.8,3-2.8a2.85,2.85,0,0,1,3,2.86,2.6,2.6,0,0,1-1.38,2.37,2.72,2.72,0,0,1,1.54,2.58A3.17,3.17,0,0,1,118.05,526.13Z"/><path class="cls-1" d="M128.32,522.35l-2.19,2.5h4.48V526h-6.9l3.89-4.5c.72-.83,1.84-2,1.84-3.18a2.13,2.13,0,1,0-4.26.13H124a4.11,4.11,0,0,1,.23-1.2,3.33,3.33,0,0,1,6.41,1.09C130.62,519.89,129.31,521.23,128.32,522.35Z"/><path class="cls-1" d="M133.12,528.39l-.76-.31,1.32-3.7,1,.39Z"/><path class="cls-1" d="M141,526V515.28h1.19v9.57h2.94V526Z"/><path class="cls-1" d="M151.5,526V525a2.82,2.82,0,0,1-2.3,1.12,3.28,3.28,0,0,1-3.2-3.53,3.23,3.23,0,0,1,3.18-3.46,2.8,2.8,0,0,1,2.32,1.1v-.94h1.14V526Zm-2.14-5.78a2.48,2.48,0,1,0,2.21,2.44A2.24,2.24,0,0,0,149.36,520.17Z"/><path class="cls-1" d="M159,526V522c0-1-.14-1.86-1.39-1.86-1.47,0-1.65,1.28-1.65,2.45V526h-1.14v-6.64H156v.8a2.23,2.23,0,0,1,1.92-1,2.26,2.26,0,0,1,1.89.91,3,3,0,0,1,.38,1.76V526Z"/><path class="cls-1" d="M167.39,526V525a2.82,2.82,0,0,1-2.31,1.12,3.51,3.51,0,0,1,0-7,2.87,2.87,0,0,1,2.32,1.1v-6h1.14V526Zm-2.14-5.76a2.47,2.47,0,1,0,2.2,2.42A2.22,2.22,0,0,0,165.25,520.19Z"/><path class="cls-1" d="M173,526.38l-3.26-7.07H171l2,4.47,2-4.47h1.28Z"/><path class="cls-1" d="M178,522.86a2.16,2.16,0,0,0,2.12,2.24,2.28,2.28,0,0,0,2-1.37l1,.53a3.3,3.3,0,0,1-3,1.88,3.5,3.5,0,0,1-.06-7,3.18,3.18,0,0,1,3.17,3.49v.22Zm2.05-2.67a2,2,0,0,0-2,1.71H182A2,2,0,0,0,180.06,520.19Z"/><path class="cls-1" d="M186.09,520.37V526h-1.15v-5.58h-.69v-1.06h.69v-2.4h1.15v2.4h1.17v1.06Z"/><path class="cls-1" d="M189.52,520.37V526h-1.16v-5.58h-.69v-1.06h.69v-2.4h1.16v2.4h1.16v1.06Z"/><path class="cls-1" d="M192.56,522.86a2.14,2.14,0,0,0,2.11,2.24,2.3,2.3,0,0,0,2.05-1.37l1,.53a3.32,3.32,0,0,1-3,1.88,3.5,3.5,0,0,1-.07-7,3.18,3.18,0,0,1,3.17,3.49v.22Zm2-2.67a2,2,0,0,0-2,1.71h3.9A2,2,0,0,0,194.6,520.19Z"/><path class="cls-1" d="M202.6,520.46a1,1,0,0,0-.67-.22,1.26,1.26,0,0,0-.57.14c-.74.4-.74,1.35-.74,2.07V526h-1.14v-6.64h1.14V520a1.77,1.77,0,0,1,1.5-.88,1.91,1.91,0,0,1,1,.27Z"/><path class="cls-1" d="M30.89,552.14a3.25,3.25,0,0,1-3.3-2.75l1.15-.32A2.17,2.17,0,0,0,30.92,551a2.1,2.1,0,0,0,2.14-2.11c0-2.51-4.93-1.92-4.93-5.06a2.83,2.83,0,0,1,3-2.75,3,3,0,0,1,2.75,1.66l-.94.63a2,2,0,0,0-1.83-1.17,1.7,1.7,0,0,0-1.78,1.63c0,2.21,4.94,1.57,4.94,5A3.29,3.29,0,0,1,30.89,552.14Z"/><path class="cls-1" d="M39.24,552.14a3.5,3.5,0,1,1,3.51-3.48A3.47,3.47,0,0,1,39.24,552.14Zm0-5.95a2.46,2.46,0,1,0,2.36,2.47A2.32,2.32,0,0,0,39.22,546.19ZM37.85,544a.82.82,0,0,1-.8-.8.8.8,0,1,1,.8.8Zm2.78,0a.82.82,0,0,1-.8-.8.8.8,0,1,1,.8.8Z"/><path class="cls-1" d="M48.66,552V548c0-1-.14-1.86-1.39-1.86-1.47,0-1.65,1.28-1.65,2.45V552H44.49v-6.64h1.13v.8a2.41,2.41,0,0,1,3.81-.05,3,3,0,0,1,.39,1.76V552Z"/><path class="cls-1" d="M57.06,552V551a2.82,2.82,0,0,1-2.3,1.12,3.51,3.51,0,0,1,0-7,2.85,2.85,0,0,1,2.32,1.1v-6H58.2V552Zm-2.14-5.76a2.47,2.47,0,1,0,2.21,2.42A2.23,2.23,0,0,0,54.92,546.19Z"/><path class="cls-1" d="M65.45,552V551a2.84,2.84,0,0,1-2.31,1.12,3.29,3.29,0,0,1-3.2-3.53,3.23,3.23,0,0,1,3.19-3.46,2.82,2.82,0,0,1,2.32,1.1v-.94h1.13V552Zm-2.15-5.78a2.48,2.48,0,1,0,2.21,2.44A2.24,2.24,0,0,0,63.3,546.17Z"/><path class="cls-1" d="M74.34,554.42a3.2,3.2,0,0,1-2.65,1.23,3,3,0,0,1-3.24-3h1.14a2,2,0,0,0,2.11,2c1.6,0,2.13-1.21,2.13-2.63v-1a3,3,0,0,1-2.33,1.11,3.5,3.5,0,0,1,0-7,2.84,2.84,0,0,1,2.29,1.09v-.93H75v6.5A4,4,0,0,1,74.34,554.42Zm-2.67-8.25a2.29,2.29,0,0,0-2.18,2.52,2.24,2.24,0,0,0,2.18,2.41,2.48,2.48,0,0,0,0-4.93Z"/><path class="cls-1" d="M84.31,552V542.4H82.53l.63-1.12H85.5V552Z"/><path class="cls-1" d="M91,552.21l-.92-.63,6-9.18H90.31v-1.12h7.86Z"/><path class="cls-1" d="M107.48,552V548c0-1-.15-1.86-1.39-1.86-1.48,0-1.65,1.28-1.65,2.45V552H103.3v-6.64h1.14v.8a2.23,2.23,0,0,1,1.92-1,2.26,2.26,0,0,1,1.89.91,3,3,0,0,1,.38,1.76V552Z"/><path class="cls-1" d="M113.89,552.14a3.5,3.5,0,1,1,3.51-3.48A3.47,3.47,0,0,1,113.89,552.14Zm0-5.95a2.46,2.46,0,1,0,2.35,2.47A2.33,2.33,0,0,0,113.88,546.19Z"/><path class="cls-1" d="M121.17,552.38l-3.26-7.07h1.28l2,4.47,2-4.47h1.28Z"/><path class="cls-1" d="M126.18,548.86a2.15,2.15,0,0,0,2.11,2.24,2.29,2.29,0,0,0,2.05-1.37l1,.53a3.31,3.31,0,0,1-3,1.88,3.5,3.5,0,0,1-.06-7,3.18,3.18,0,0,1,3.17,3.49v.22Zm2-2.67a2,2,0,0,0-2,1.71h3.91A2,2,0,0,0,128.23,546.19Z"/><path class="cls-1" d="M140.68,552v-4c0-.85-.14-1.75-1.2-1.75s-1.43,1.12-1.43,2.08V552h-1.13V548c0-.83-.18-1.84-1.22-1.84a1.39,1.39,0,0,0-1.2.72,3.23,3.23,0,0,0-.25,1.44V552h-1.14v-6.64h1.14v.7a1.9,1.9,0,0,1,1.64-.86,2,2,0,0,1,1.83,1.07,2.26,2.26,0,0,1,3.73-.17,3.09,3.09,0,0,1,.37,1.69V552Z"/><path class="cls-1" d="M147.43,552.14a2.82,2.82,0,0,1-2.3-1.12V552H144V540.28h1.14v6a2.85,2.85,0,0,1,2.32-1.1,3.51,3.51,0,0,1,0,7Zm-.16-5.95a2.24,2.24,0,0,0-2.21,2.45,2.21,2.21,0,1,0,2.21-2.45Z"/><path class="cls-1" d="M153.14,548.86a2.15,2.15,0,0,0,2.11,2.24,2.29,2.29,0,0,0,2.05-1.37l1,.53a3.31,3.31,0,0,1-3,1.88,3.5,3.5,0,0,1-.06-7,3.18,3.18,0,0,1,3.17,3.49v.22Zm2.05-2.67a2,2,0,0,0-2,1.71h3.91A2,2,0,0,0,155.19,546.19Z"/><path class="cls-1" d="M163.19,546.46a1,1,0,0,0-.67-.22,1.34,1.34,0,0,0-.58.14c-.73.4-.73,1.35-.73,2.07V552h-1.14v-6.64h1.14V546a1.76,1.76,0,0,1,1.5-.88,1.88,1.88,0,0,1,1,.27Z"/><path class="cls-1" d="M172.9,552l-2.69-3-.29.28V552h-1.13V540.28h1.13v7.48l2.42-2.45h1.52L171,548.13l3.38,3.82Z"/><path class="cls-1" d="M175.52,552V540.28h1.14V552Z"/><path class="cls-1" d="M186,552V542.4h-1.78l.63-1.12h2.33V552Z"/><path class="cls-1" d="M196.23,548.35l-2.19,2.5h4.48V552h-6.9l3.89-4.5c.72-.83,1.84-2,1.84-3.18a2.13,2.13,0,1,0-4.26.13h-1.2a4.11,4.11,0,0,1,.23-1.2,3.33,3.33,0,0,1,6.41,1.09C198.53,545.89,197.22,547.23,196.23,548.35Z"/><path class="cls-1" d="M199.89,549.06v-1h2.9v1Z"/><path class="cls-1" d="M207,552V542.4h-1.78l.63-1.12h2.33V552Z"/><path class="cls-1" d="M216.07,552.13a3.34,3.34,0,0,1-2.47-1.06,2.82,2.82,0,0,1-.7-1.89h1.15a2,2,0,0,0,.37,1,2.12,2.12,0,0,0,1.68.8,2.08,2.08,0,0,0,2.1-2.12c0-1.4-1-2-2.28-2v-1a2.42,2.42,0,0,0,1.27-.26,1.84,1.84,0,1,0-2.43-2.69,2.76,2.76,0,0,0-.36,1h-1.16c.24-1.73,1.15-2.8,3-2.8a2.85,2.85,0,0,1,3,2.86,2.6,2.6,0,0,1-1.38,2.37,2.72,2.72,0,0,1,1.54,2.58A3.17,3.17,0,0,1,216.07,552.13Z"/></svg>