<svg id="Layer_1" data-name="Layer 1" xmlns="http://www.w3.org/2000/svg" viewBox="0 0 300 600"><defs><style>.cls-1{fill:#fff;}</style></defs><title>text</title><path class="cls-1" d="M15.33,35.66l3.37,6H16.49l-3.4-6.07,4.85-6.07h2.41Zm5.42,0,3.36,6H21.9L18.47,35.6l4.88-6.07h2.41Z"/><path class="cls-1" d="M36.75,21.67h2.74L37.41,32.5l.16,0c.76-.92,1.52-1.71,2.18-2.47l7.83-8.32H51l-9.38,9.57,5.75,12.68h-3L39.52,33l-2.67,2.48-1.62,8.45H32.52Z"/><path class="cls-1" d="M64.47,34.25c0,4.91-3.5,10-8.84,10-4,0-6.24-3-6.24-6.57,0-5.25,3.66-10.13,8.84-10.13C62.56,27.58,64.47,30.85,64.47,34.25ZM52.23,37.61c0,2.61,1.42,4.49,3.76,4.49,3.23,0,5.68-4.16,5.68-7.89,0-1.85-.86-4.45-3.73-4.45C54.5,29.76,52.19,34,52.23,37.61Z"/><path class="cls-1" d="M66.38,43.92l2.15-11.33c.36-1.78.56-3.33.76-4.65h2.44l-.4,3.14h.07a7,7,0,0,1,5.91-3.5c1.91,0,4.06,1.09,4.06,4.45a14.94,14.94,0,0,1-.3,2.58l-1.78,9.31H76.55l1.75-9.21a10.73,10.73,0,0,0,.23-2.05c0-1.62-.63-2.8-2.51-2.8s-4.72,2.34-5.45,6.3l-1.45,7.76Z"/><path class="cls-1" d="M84.14,41.14a7.28,7.28,0,0,0,3.43,1,2.75,2.75,0,0,0,3-2.6c0-1.26-.57-2-2.22-2.94-1.84-1-2.87-2.44-2.87-4.06,0-2.81,2.41-5,5.78-5a6.58,6.58,0,0,1,3.33.79l-.76,2.08a5.69,5.69,0,0,0-2.77-.73,2.57,2.57,0,0,0-2.84,2.41c0,1.16.76,1.88,2.18,2.68,1.78,1,3,2.4,3,4.19,0,3.36-2.74,5.25-6.1,5.25a7,7,0,0,1-4-1.09Z"/><path class="cls-1" d="M111.89,27.94l-2.14,11.32c-.33,1.78-.56,3.33-.73,4.66h-2.48l.43-3h-.06a7.11,7.11,0,0,1-5.65,3.37c-2,0-4.19-1-4.19-4.62a14.57,14.57,0,0,1,.3-2.68l1.72-9h2.74l-1.69,8.91a10.72,10.72,0,0,0-.3,2.35c0,1.65.7,2.77,2.58,2.77s4.52-2.31,5.18-5.84l1.55-8.19Z"/><path class="cls-1" d="M113.7,43.92l4.46-23.44h2.74l-4.49,23.44Z"/><path class="cls-1" d="M132.75,43a11.06,11.06,0,0,1-5.28,1.26c-4.23,0-6.08-2.88-6.08-6.41,0-4.82,3.57-10.26,8.72-10.26,3,0,4.68,1.81,4.68,4.09,0,4.19-4.72,5.31-10.63,5.22a6.68,6.68,0,0,0,.33,3,3.65,3.65,0,0,0,3.57,2.15A9,9,0,0,0,132.35,41Zm-3-13.27c-2.61,0-4.56,2.54-5.22,5.05,4.3,0,7.66-.52,7.66-3C132.15,30.45,131.16,29.72,129.71,29.72Z"/><path class="cls-1" d="M136.18,43.92l2.14-11.33c.36-1.78.56-3.33.76-4.65h2.44l-.39,3.14h.06a7,7,0,0,1,5.91-3.5c1.92,0,4.06,1.09,4.06,4.45a14.94,14.94,0,0,1-.3,2.58l-1.78,9.31h-2.74l1.75-9.21a10.73,10.73,0,0,0,.23-2.05c0-1.62-.63-2.8-2.51-2.8s-4.72,2.34-5.44,6.3l-1.45,7.76Z"/><path class="cls-1" d="M161,23.65l-.82,4.29H164l-.43,2.15h-3.82l-1.49,7.75a14.49,14.49,0,0,0-.3,2.58,1.35,1.35,0,0,0,1.52,1.51,8.33,8.33,0,0,0,1.29-.09L160.6,44a6.35,6.35,0,0,1-2.12.3c-2.44,0-3.36-1.49-3.36-3.1a15,15,0,0,1,.33-3L157,30.09h-2.31l.43-2.15h2.28l.69-3.6Z"/><path class="cls-1" d="M175.51,43a11,11,0,0,1-5.28,1.26c-4.22,0-6.07-2.88-6.07-6.41,0-4.82,3.56-10.26,8.71-10.26,3,0,4.69,1.81,4.69,4.09,0,4.19-4.72,5.31-10.63,5.22a6.68,6.68,0,0,0,.33,3,3.65,3.65,0,0,0,3.57,2.15A9,9,0,0,0,175.12,41Zm-3-13.27c-2.61,0-4.56,2.54-5.22,5.05,4.29,0,7.66-.52,7.66-3C174.92,30.45,173.93,29.72,172.48,29.72Z"/><path class="cls-1" d="M178.94,43.92l2.15-11.33c.36-1.78.56-3.33.76-4.65h2.44l-.4,3.14H184a7,7,0,0,1,5.91-3.5c1.91,0,4.06,1.09,4.06,4.45a14.94,14.94,0,0,1-.3,2.58l-1.78,9.31h-2.74l1.75-9.21a10.73,10.73,0,0,0,.23-2.05c0-1.62-.63-2.8-2.51-2.8s-4.72,2.34-5.45,6.3l-1.45,7.76Z"/><path class="cls-1" d="M208.08,43a11,11,0,0,1-5.28,1.26c-4.22,0-6.07-2.88-6.07-6.41,0-4.82,3.56-10.26,8.71-10.26,3,0,4.69,1.81,4.69,4.09,0,4.19-4.72,5.31-10.63,5.22a6.68,6.68,0,0,0,.33,3,3.65,3.65,0,0,0,3.57,2.15A9,9,0,0,0,207.69,41Zm-3-13.27c-2.61,0-4.56,2.54-5.22,5.05,4.29,0,7.66-.52,7.66-3C207.49,30.45,206.5,29.72,205.05,29.72Z"/><path class="cls-1" d="M217.52,43.92l3.07-16h2.74l-3.07,16Zm3.56-20.43a1.82,1.82,0,0,1,1.82-1.85,1.58,1.58,0,0,1,1.62,1.71,1.81,1.81,0,0,1-1.85,1.85A1.58,1.58,0,0,1,221.08,23.49Z"/><path class="cls-1" d="M20,61.27,15.73,83.52H13l4.22-22.25Z"/><path class="cls-1" d="M20.61,83.52l2.15-11.33c.36-1.78.56-3.33.76-4.65H26l-.4,3.14h.07a7,7,0,0,1,5.91-3.5c1.91,0,4.06,1.09,4.06,4.45a16,16,0,0,1-.3,2.58l-1.78,9.31H30.78l1.75-9.21a10.73,10.73,0,0,0,.23-2c0-1.62-.63-2.8-2.51-2.8s-4.72,2.34-5.45,6.3l-1.45,7.76Z"/><path class="cls-1" d="M38.23,83.52l2.15-11.33c.36-1.78.56-3.33.76-4.65h2.44l-.39,3.14h.06a7,7,0,0,1,5.91-3.5c1.91,0,4.06,1.09,4.06,4.45a14.94,14.94,0,0,1-.3,2.58l-1.78,9.31H48.4l1.75-9.21a10.73,10.73,0,0,0,.23-2c0-1.62-.63-2.8-2.51-2.8s-4.72,2.34-5.44,6.3L41,83.52Z"/><path class="cls-1" d="M71.17,73.84c0,4.92-3.5,10-8.85,10-4,0-6.23-3-6.23-6.57,0-5.25,3.66-10.13,8.84-10.13C69.26,67.18,71.17,70.45,71.17,73.84ZM58.93,77.21c0,2.61,1.41,4.49,3.76,4.49,3.23,0,5.67-4.16,5.67-7.89,0-1.85-.85-4.45-3.72-4.45C61.2,69.36,58.89,73.55,58.93,77.21Z"/><path class="cls-1" d="M73.48,83.52l2.6-13.83H74l.4-2.15h2.14l.17-.82a9.26,9.26,0,0,1,2.61-5.58,5.61,5.61,0,0,1,3.79-1.42,4.33,4.33,0,0,1,2.18.43l-.59,2.18a3.91,3.91,0,0,0-1.62-.3c-2.18,0-3.24,2.11-3.7,4.75l-.13.76h3.56l-.42,2.15H78.82L76.18,83.52Z"/><path class="cls-1" d="M92.78,83.52a41,41,0,0,1,.37-4.13h-.07c-1.75,3.3-3.93,4.49-6.2,4.49-2.81,0-4.59-2.25-4.59-5.28,0-5.55,4.09-11.42,11.06-11.42a15.06,15.06,0,0,1,4.29.62L96,76.12a36.06,36.06,0,0,0-.69,7.4Zm1.79-13.93a7.41,7.41,0,0,0-1.92-.23c-4.12,0-7.49,4.32-7.52,8.74,0,1.78.62,3.53,2.74,3.53s5-3,5.77-7.22Z"/><path class="cls-1" d="M110.41,82.89a11.16,11.16,0,0,1-4.62,1c-4.13,0-6.14-2.78-6.14-6.18,0-5.44,4-10.46,9.77-10.46a8.25,8.25,0,0,1,3.33.69L112,70.08a6.34,6.34,0,0,0-2.71-.59c-4.16,0-6.77,4.09-6.77,7.85,0,2.58,1.36,4.26,4,4.26a8.33,8.33,0,0,0,3.69-.89Z"/><path class="cls-1" d="M120.73,63.25l-.82,4.29h3.83l-.43,2.15h-3.83L118,77.44A14.46,14.46,0,0,0,117.7,80a1.35,1.35,0,0,0,1.52,1.52,8.12,8.12,0,0,0,1.28-.1l-.13,2.14a6.29,6.29,0,0,1-2.11.3c-2.44,0-3.37-1.49-3.37-3.1a15,15,0,0,1,.33-3l1.59-8.08H114.5l.42-2.15h2.28l.7-3.6Z"/><path class="cls-1" d="M139.08,73.84c0,4.92-3.5,10-8.84,10-4,0-6.24-3-6.24-6.57,0-5.25,3.66-10.13,8.84-10.13C137.17,67.18,139.08,70.45,139.08,73.84Zm-12.24,3.37c0,2.61,1.42,4.49,3.76,4.49,3.23,0,5.68-4.16,5.68-7.89,0-1.85-.86-4.45-3.73-4.45C129.12,69.36,126.8,73.55,126.84,77.21Z"/><path class="cls-1" d="M141,83.52l1.95-10.3c.4-2.08.66-4.19.83-5.68h2.41c-.14,1.12-.27,2.25-.43,3.47h.1c1-2.18,2.73-3.83,4.88-3.83a6,6,0,0,1,.76.06L151,70a4,4,0,0,0-.72-.07c-2.38,0-4.49,2.88-5.19,6.61l-1.32,7Z"/><path class="cls-1" d="M169,82.59a11,11,0,0,1-5.28,1.26c-4.22,0-6.07-2.88-6.07-6.41,0-4.82,3.56-10.26,8.71-10.26,3,0,4.69,1.81,4.69,4.09,0,4.19-4.72,5.31-10.63,5.22a6.68,6.68,0,0,0,.33,3,3.65,3.65,0,0,0,3.57,2.15,8.88,8.88,0,0,0,4.29-1.13Zm-3-13.27c-2.61,0-4.56,2.54-5.22,5.05,4.29,0,7.66-.53,7.66-3C168.42,70.05,167.43,69.32,166,69.32Z"/><path class="cls-1" d="M172.44,83.52l1.95-10.3c.4-2.08.66-4.19.82-5.68h2.41c-.13,1.12-.26,2.25-.43,3.47h.1c1-2.18,2.74-3.83,4.89-3.83a6,6,0,0,1,.76.06L182.41,70a4.18,4.18,0,0,0-.73-.07c-2.37,0-4.49,2.88-5.18,6.61l-1.32,7Z"/><path class="cls-1" d="M205.94,60.08l-3.5,18.39a40.17,40.17,0,0,0-.69,5h-2.51l.43-3.17h-.07a6.82,6.82,0,0,1-5.74,3.53c-3.1,0-4.79-2.54-4.79-5.81,0-5.68,4.23-10.89,9.87-10.89a7.21,7.21,0,0,1,2.84.56l1.42-7.66Zm-4.59,10a5,5,0,0,0-2.64-.66c-3.83,0-6.8,4.06-6.8,8.32,0,1.91.66,3.92,3,3.92,2.11,0,4.65-2.41,5.34-6Z"/><path class="cls-1" d="M209.77,67.54l1.58,8.62c.36,1.81.56,3,.73,4.19h.06c.43-1,.89-2.15,1.72-3.9l4.06-8.91h2.9l-6,12.15c-1.72,3.46-3.34,6.27-5.51,8.38a10,10,0,0,1-4.66,2.77L204,88.5A10.41,10.41,0,0,0,207,87,12.33,12.33,0,0,0,210,83.28a1.14,1.14,0,0,0,.1-.72l-3.2-15Z"/><path class="cls-1" d="M220.85,83.52l4.42-23.44H228l-2.8,14.69h.06c.5-.56,1.09-1.16,1.49-1.62l5.64-5.61h3.37l-7,6.57,4.78,9.41h-3l-3.83-7.89-2,1.81-1.15,6.08Z"/><path class="cls-1" d="M243,63.25l-.83,4.29H246l-.43,2.15h-3.83l-1.48,7.75A13.62,13.62,0,0,0,240,80a1.35,1.35,0,0,0,1.52,1.52,8.25,8.25,0,0,0,1.29-.1l-.13,2.14a6.35,6.35,0,0,1-2.12.3c-2.44,0-3.36-1.49-3.36-3.1a15,15,0,0,1,.33-3l1.58-8.08h-2.31l.43-2.15h2.28l.69-3.6Z"/><path class="cls-1" d="M246.2,83.52l3.07-16H252l-3.06,16Zm3.56-20.44a1.82,1.82,0,0,1,1.82-1.84A1.58,1.58,0,0,1,253.19,63a1.8,1.8,0,0,1-1.85,1.85A1.58,1.58,0,0,1,249.76,63.08Z"/><path class="cls-1" d="M253.92,87.15a8.48,8.48,0,0,0,4.22,1c2.68,0,4.79-1.38,5.74-5.71l.53-2.37h-.1a6.37,6.37,0,0,1-5.54,3.4c-3.2,0-4.85-2.71-4.85-5.55,0-5.41,4-10.79,10.13-10.79a13.11,13.11,0,0,1,5.12,1.12l-2.45,13.2c-.66,3.37-1.55,5.71-3.23,7.13a8.41,8.41,0,0,1-5.58,1.78,9.44,9.44,0,0,1-4.78-1.12Zm12.24-17.23a6.64,6.64,0,0,0-2.64-.53c-4,0-6.73,4.16-6.76,8.12,0,1.75.62,3.83,3.07,3.83s4.71-3,5.31-6.11Z"/><path class="cls-1" d="M282.56,82.59a11,11,0,0,1-5.28,1.26c-4.22,0-6.07-2.88-6.07-6.41,0-4.82,3.56-10.26,8.71-10.26,3,0,4.69,1.81,4.69,4.09,0,4.19-4.72,5.31-10.63,5.22a6.68,6.68,0,0,0,.33,3,3.65,3.65,0,0,0,3.57,2.15,8.88,8.88,0,0,0,4.29-1.13Zm-3-13.27c-2.61,0-4.56,2.54-5.22,5.05,4.29,0,7.66-.53,7.66-3C282,70.05,281,69.32,279.53,69.32Z"/><path class="cls-1" d="M283.25,87.58a53.67,53.67,0,0,0,3.24-7.89l3.26-.33a48.3,48.3,0,0,1-4.38,8Z"/><path class="cls-1" d="M13,123.12l4.42-23.44h2.74l-2.81,14.69h.07c.49-.56,1.09-1.16,1.48-1.62l5.65-5.61h3.37l-7,6.57,4.79,9.41h-3l-3.83-7.89-2,1.81-1.16,6.08Z"/><path class="cls-1" d="M38.1,123.12a41,41,0,0,1,.37-4.13H38.4c-1.75,3.3-3.93,4.49-6.2,4.49-2.81,0-4.59-2.25-4.59-5.28,0-5.55,4.09-11.42,11.06-11.42a14.7,14.7,0,0,1,4.29.63l-1.62,8.31a36.12,36.12,0,0,0-.69,7.4Zm1.79-13.93A7.41,7.41,0,0,0,38,109c-4.12,0-7.49,4.32-7.52,8.74,0,1.79.62,3.53,2.74,3.53,2.27,0,5-3,5.77-7.22Z"/><path class="cls-1" d="M43.32,129.65l3.2-16.83c.33-1.92.66-4.06.89-5.68h2.51l-.46,3h.06a7.25,7.25,0,0,1,5.74-3.36c3.47,0,4.92,2.84,4.92,5.77,0,5.62-4,10.93-9.34,10.93a6.91,6.91,0,0,1-3.46-.73h-.07L46,129.65Zm4.48-9.21a4.85,4.85,0,0,0,3,.89c3.53,0,6.5-4.39,6.5-8.58,0-1.68-.76-3.69-3.07-3.69-2.14,0-4.85,2.47-5.67,6.93Z"/><path class="cls-1" d="M72.65,123.12A41,41,0,0,1,73,119H73c-1.75,3.3-3.93,4.49-6.2,4.49-2.81,0-4.59-2.25-4.59-5.28,0-5.55,4.09-11.42,11.06-11.42a14.7,14.7,0,0,1,4.29.63l-1.62,8.31a36.12,36.12,0,0,0-.69,7.4Zm1.79-13.93a7.41,7.41,0,0,0-1.92-.23C68.4,109,65,113.28,65,117.7c0,1.79.62,3.53,2.74,3.53,2.27,0,5-3,5.77-7.22Z"/><path class="cls-1" d="M86.35,99.68l-2.11,10.37h.06a6.73,6.73,0,0,1,5.61-3.27c3.5,0,4.82,2.9,4.82,5.74,0,4.89-3.53,11-9.93,11-2.81,0-4.92-1.16-4.92-4.13a15.93,15.93,0,0,1,.26-2.47l3.47-17.2Zm-3.47,17.26a6.91,6.91,0,0,0-.19,2c0,1.51.85,2.37,2.57,2.37,4.12,0,6.63-4.91,6.63-8.45,0-2-.85-3.82-3-3.82-2.38,0-4.82,2.44-5.61,6.2Z"/><path class="cls-1" d="M96.64,123.12l4.46-23.44h2.74l-4.49,23.44Z"/><path class="cls-1" d="M115.69,122.19a11.06,11.06,0,0,1-5.28,1.26c-4.23,0-6.08-2.88-6.08-6.41,0-4.82,3.57-10.26,8.72-10.26,3,0,4.68,1.81,4.68,4.09,0,4.19-4.72,5.31-10.63,5.22a6.68,6.68,0,0,0,.33,3,3.65,3.65,0,0,0,3.57,2.15,9,9,0,0,0,4.29-1.12Zm-3-13.27c-2.61,0-4.56,2.54-5.22,5,4.3,0,7.66-.52,7.66-3C115.09,109.65,114.1,108.92,112.65,108.92Z"/><path class="cls-1" d="M140.44,113.45c0,4.91-3.5,10-8.85,10-4,0-6.24-3-6.24-6.57,0-5.25,3.67-10.13,8.85-10.13C138.52,106.78,140.44,110.05,140.44,113.45Zm-12.25,3.36c0,2.61,1.42,4.49,3.76,4.49,3.24,0,5.68-4.16,5.68-7.89,0-1.85-.86-4.45-3.73-4.45C130.47,109,128.16,113.15,128.19,116.81Z"/><path class="cls-1" d="M142.61,126.75a8.52,8.52,0,0,0,4.23,1c2.67,0,4.78-1.38,5.74-5.71l.53-2.37H153a6.4,6.4,0,0,1-5.55,3.4c-3.2,0-4.85-2.71-4.85-5.55,0-5.41,4-10.79,10.13-10.79a13.11,13.11,0,0,1,5.12,1.12l-2.44,13.2c-.66,3.37-1.55,5.71-3.24,7.13A8.39,8.39,0,0,1,146.6,130a9.47,9.47,0,0,1-4.78-1.12Zm12.25-17.23a6.74,6.74,0,0,0-2.65-.53c-4,0-6.73,4.16-6.76,8.12,0,1.75.63,3.83,3.07,3.83s4.72-3,5.31-6.11Z"/><path class="cls-1" d="M165.78,123.12l4.45-23.44H173l-4.49,23.44Z"/><path class="cls-1" d="M184.82,122.19a11.06,11.06,0,0,1-5.28,1.26c-4.23,0-6.08-2.88-6.08-6.41,0-4.82,3.57-10.26,8.72-10.26,3,0,4.68,1.81,4.68,4.09,0,4.19-4.71,5.31-10.62,5.22a6.41,6.41,0,0,0,.33,3,3.62,3.62,0,0,0,3.56,2.15,9,9,0,0,0,4.29-1.12Zm-3-13.27c-2.61,0-4.55,2.54-5.21,5,4.29,0,7.65-.52,7.65-3C184.22,109.65,183.23,108.92,181.78,108.92Z"/><path class="cls-1" d="M195.41,102.85l-.82,4.29h3.82l-.43,2.15h-3.82L192.67,117a14.49,14.49,0,0,0-.3,2.58,1.35,1.35,0,0,0,1.52,1.51,8.33,8.33,0,0,0,1.29-.09l-.13,2.14a6.33,6.33,0,0,1-2.11.3c-2.45,0-3.37-1.49-3.37-3.1a15,15,0,0,1,.33-3l1.58-8.08h-2.31l.43-2.15h2.28l.69-3.6Z"/><path class="cls-1" d="M205.74,102.85l-.83,4.29h3.83l-.43,2.15h-3.83L203,117a13.62,13.62,0,0,0-.3,2.58,1.34,1.34,0,0,0,1.52,1.51,8.33,8.33,0,0,0,1.29-.09l-.13,2.14a6.35,6.35,0,0,1-2.12.3c-2.44,0-3.36-1.49-3.36-3.1a15,15,0,0,1,.33-3l1.58-8.08H199.5l.43-2.15h2.28l.69-3.6Z"/><path class="cls-1" d="M220.29,122.19a11,11,0,0,1-5.28,1.26c-4.22,0-6.07-2.88-6.07-6.41,0-4.82,3.56-10.26,8.71-10.26,3,0,4.69,1.81,4.69,4.09,0,4.19-4.72,5.31-10.63,5.22a6.68,6.68,0,0,0,.33,3,3.65,3.65,0,0,0,3.57,2.15,9,9,0,0,0,4.29-1.12Zm-3-13.27c-2.61,0-4.56,2.54-5.22,5,4.29,0,7.66-.52,7.66-3C219.7,109.65,218.71,108.92,217.26,108.92Z"/><path class="cls-1" d="M23.52,162.71a40.56,40.56,0,0,1,.36-4.12h-.06c-1.75,3.3-3.93,4.49-6.21,4.49-2.81,0-4.59-2.25-4.59-5.28,0-5.55,4.1-11.42,11.06-11.42a15,15,0,0,1,4.29.62l-1.62,8.32a36,36,0,0,0-.69,7.39Zm1.78-13.92a7.38,7.38,0,0,0-1.91-.23c-4.13,0-7.5,4.32-7.53,8.74,0,1.78.63,3.53,2.74,3.53,2.28,0,5-3,5.78-7.22ZM26.52,142a3.26,3.26,0,0,1-3.43,3.13,3,3,0,0,1-3.17-2.9A3.23,3.23,0,0,1,23.35,139,3,3,0,0,1,26.52,142Zm-4.95.16a1.64,1.64,0,0,0,1.59,1.72,1.79,1.79,0,0,0,1.71-2,1.61,1.61,0,0,0-1.62-1.72A1.77,1.77,0,0,0,21.57,142.12Z"/><path class="cls-1" d="M42.1,146.74l-3,15.91c-.5,2.67-1.06,4.36-2,5.41a5,5,0,0,1-3.67,1.55,6.29,6.29,0,0,1-1.81-.19l.33-2.15a5.28,5.28,0,0,0,1.25.13c1.39,0,2.48-.86,3.1-4.16l3.11-16.5Zm-2.38-4.45a1.83,1.83,0,0,1,1.81-1.85,1.58,1.58,0,0,1,1.62,1.71A1.8,1.8,0,0,1,41.3,144,1.58,1.58,0,0,1,39.72,142.29Z"/><path class="cls-1" d="M59,153c0,4.92-3.5,10-8.85,10-4,0-6.23-3-6.23-6.57,0-5.25,3.66-10.13,8.84-10.13C57.05,146.38,59,149.65,59,153Zm-12.24,3.37c0,2.61,1.41,4.49,3.76,4.49,3.23,0,5.67-4.16,5.67-7.89,0-1.85-.85-4.45-3.72-4.45C49,148.56,46.68,152.75,46.72,156.41Z"/><path class="cls-1" d="M67.93,139.28l-2.11,10.37h.07a6.72,6.72,0,0,1,5.61-3.27c3.5,0,4.82,2.9,4.82,5.74,0,4.88-3.53,11-9.94,11-2.8,0-4.91-1.16-4.91-4.13a15.93,15.93,0,0,1,.26-2.47l3.46-17.2Zm-3.46,17.26a7.23,7.23,0,0,0-.2,2c0,1.51.86,2.37,2.58,2.37,4.12,0,6.63-4.92,6.63-8.45,0-2-.86-3.82-3-3.82-2.37,0-4.82,2.44-5.61,6.2Z"/><path class="cls-1" d="M85.26,139.28l-2.11,10.37h.06a6.73,6.73,0,0,1,5.61-3.27c3.5,0,4.82,2.9,4.82,5.74,0,4.88-3.53,11-9.93,11-2.81,0-4.92-1.16-4.92-4.13a15.93,15.93,0,0,1,.26-2.47l3.47-17.2Zm-3.47,17.26a6.91,6.91,0,0,0-.19,2c0,1.51.85,2.37,2.57,2.37,4.13,0,6.63-4.92,6.63-8.45,0-2-.85-3.82-3-3.82-2.38,0-4.82,2.44-5.61,6.2Z"/><path class="cls-1" d="M107.14,161.79a11.07,11.07,0,0,1-5.28,1.25c-4.23,0-6.08-2.87-6.08-6.4,0-4.82,3.57-10.26,8.72-10.26,3,0,4.68,1.81,4.68,4.09,0,4.19-4.72,5.31-10.62,5.22a6.41,6.41,0,0,0,.33,3,3.62,3.62,0,0,0,3.56,2.15,9,9,0,0,0,4.29-1.12Zm-3-13.27c-2.61,0-4.55,2.54-5.21,5,4.29,0,7.65-.53,7.65-3C106.54,149.25,105.55,148.52,104.1,148.52Z"/><path class="cls-1" d="M116.57,162.71l2.15-11.32c.33-1.78.56-3.33.73-4.65h2.4l-.42,3h.09a6.83,6.83,0,0,1,5.62-3.36,3.48,3.48,0,0,1,3.73,3.56,6.82,6.82,0,0,1,5.87-3.56c1.85,0,3.86,1.19,3.86,4.19a16.93,16.93,0,0,1-.26,2.71l-1.78,9.43h-2.68l1.72-9.2a10.77,10.77,0,0,0,.23-2.08c0-1.69-.63-2.77-2.41-2.77-2,0-4.32,2.31-5,5.87l-1.56,8.18h-2.64l1.79-9.37a10.37,10.37,0,0,0,.19-2c0-1.35-.36-2.73-2.37-2.73s-4.49,2.64-5.12,6l-1.48,8Z"/><path class="cls-1" d="M154.76,161.79a11.07,11.07,0,0,1-5.28,1.25c-4.23,0-6.08-2.87-6.08-6.4,0-4.82,3.57-10.26,8.72-10.26,3,0,4.68,1.81,4.68,4.09,0,4.19-4.72,5.31-10.63,5.22a6.68,6.68,0,0,0,.33,3,3.65,3.65,0,0,0,3.57,2.15,9,9,0,0,0,4.29-1.12Zm-3-13.27c-2.61,0-4.55,2.54-5.22,5,4.3,0,7.66-.53,7.66-3C154.16,149.25,153.17,148.52,151.72,148.52Z"/><path class="cls-1" d="M175.18,139.28l-3.49,18.39a40.34,40.34,0,0,0-.7,5h-2.51l.43-3.16h-.06a6.85,6.85,0,0,1-5.75,3.53c-3.1,0-4.78-2.54-4.78-5.81,0-5.68,4.22-10.89,9.87-10.89a7.28,7.28,0,0,1,2.84.56l1.41-7.66Zm-4.58,10a5,5,0,0,0-2.64-.66c-3.83,0-6.8,4.06-6.8,8.32,0,1.91.66,3.92,3,3.92,2.11,0,4.65-2.41,5.35-6Z"/><path class="cls-1" d="M182.47,148.33h2.22l3.43,6.07-4.89,6.07h-2.41l5-6.17Zm5.42,0h2.21l3.43,6.07-4.88,6.07h-2.41l5-6.17Z"/></svg>