<svg id="Layer_1" data-name="Layer 1" xmlns="http://www.w3.org/2000/svg" viewBox="0 0 300 600"><defs><style>.cls-1{fill:#fff;}</style></defs><title>text</title><path class="cls-1" d="M32,114.32H43.29v2.1H34.47v6.18h7.44v2.13H34.47v7.14h9.12V134H32Z"/><path class="cls-1" d="M47.46,119.42h2l.21,2.1h.09a6.87,6.87,0,0,1,4.89-2.46c3.06,0,4.44,2,4.44,5.7V134H56.67v-8.91c0-2.73-.84-3.9-2.76-3.9-1.5,0-2.52.78-4,2.25V134H47.46Z"/><path class="cls-1" d="M69.33,119.06c3.72,0,5.82,2.67,5.82,6.84a8.69,8.69,0,0,1-.09,1.35H65.22c.18,3.15,2.07,5.13,4.86,5.13a6.59,6.59,0,0,0,3.63-1.14l.87,1.62a8.68,8.68,0,0,1-4.8,1.5c-3.9,0-7-2.85-7-7.62S66,119.06,69.33,119.06ZM73,125.63c0-3-1.32-4.62-3.6-4.62-2,0-3.9,1.68-4.2,4.62Z"/><path class="cls-1" d="M78.75,112.64h2.46v18.6c0,.78.33,1.08.69,1.08a2.07,2.07,0,0,0,.54-.06l.33,1.86a3.31,3.31,0,0,1-1.41.24c-1.86,0-2.61-1.17-2.61-3.3Z"/><path class="cls-1" d="M90.72,119.42h2.52l2.16,8.43c.33,1.38.6,2.7.87,4.05h.12c.33-1.35.63-2.7,1-4.05l2.25-8.43H102l2.28,8.43c.36,1.38.69,2.7,1,4.05h.12c.33-1.35.6-2.67.9-4.05l2.13-8.43h2.34L106.92,134h-3l-2.1-7.83c-.36-1.38-.63-2.73-1-4.2h-.12c-.33,1.47-.63,2.85-1,4.23l-2,7.8H94.77Z"/><path class="cls-1" d="M113.55,114.83a1.71,1.71,0,0,1,3.42,0,1.71,1.71,0,0,1-3.42,0Zm.45,4.59h2.46V134H114Z"/><path class="cls-1" d="M121.38,112.64h2.46v18.6c0,.78.33,1.08.69,1.08a2.07,2.07,0,0,0,.54-.06l.33,1.86a3.31,3.31,0,0,1-1.41.24c-1.86,0-2.61-1.17-2.61-3.3Z"/><path class="cls-1" d="M129,112.64h2.46v18.6c0,.78.33,1.08.69,1.08a2.07,2.07,0,0,0,.54-.06l.33,1.86a3.31,3.31,0,0,1-1.41.24c-1.86,0-2.61-1.17-2.61-3.3Z"/><path class="cls-1" d="M142.52,119.42H145v8.91c0,2.73.81,3.9,2.73,3.9,1.5,0,2.55-.75,3.93-2.46V119.42h2.46V134h-2l-.21-2.28h-.09c-1.35,1.59-2.79,2.64-4.8,2.64-3.09,0-4.47-2-4.47-5.7Z"/><path class="cls-1" d="M158.66,130.7a6.56,6.56,0,0,0,4.29,1.74c1.92,0,2.88-1,2.88-2.28,0-1.5-1.74-2.16-3.33-2.76-2.07-.75-4.35-1.74-4.35-4.2s1.86-4.14,5-4.14a7.28,7.28,0,0,1,4.53,1.65l-1.17,1.56a5.41,5.41,0,0,0-3.33-1.29c-1.83,0-2.67,1-2.67,2.1,0,1.35,1.59,1.89,3.24,2.52,2.1.78,4.44,1.65,4.44,4.41,0,2.37-1.89,4.35-5.34,4.35a8.78,8.78,0,0,1-5.43-2Z"/><path class="cls-1" d="M177.08,119.06c3.72,0,5.82,2.67,5.82,6.84a8.69,8.69,0,0,1-.09,1.35H173c.18,3.15,2.07,5.13,4.86,5.13a6.59,6.59,0,0,0,3.63-1.14l.87,1.62a8.68,8.68,0,0,1-4.8,1.5c-3.9,0-7-2.85-7-7.62S173.75,119.06,177.08,119.06Zm3.66,6.57c0-3-1.32-4.62-3.6-4.62-2,0-3.9,1.68-4.2,4.62Z"/><path class="cls-1" d="M192.71,114.32h6.06c4.35,0,7.26,1.47,7.26,5.79,0,4.14-3,6.09-7.26,6.09h-3.54V134h-2.52Zm5.73,9.84c3.45,0,5.1-1.26,5.1-4s-1.71-3.78-5.1-3.78h-3.21v7.83Z"/><path class="cls-1" d="M214.64,119.06c3.57,0,6.75,2.79,6.75,7.68s-3.18,7.62-6.75,7.62-6.75-2.79-6.75-7.62S211.07,119.06,214.64,119.06Zm0,13.26c2.52,0,4.2-2.25,4.2-5.58s-1.68-5.64-4.2-5.64-4.2,2.28-4.2,5.64S212.15,132.32,214.64,132.32Z"/><path class="cls-1" d="M223.37,119.42h2.52l2.16,8.43c.33,1.38.6,2.7.87,4.05H229c.33-1.35.63-2.7,1-4.05l2.25-8.43h2.4l2.28,8.43c.36,1.38.69,2.7,1,4.05h.12c.33-1.35.6-2.67.9-4.05l2.13-8.43h2.34L239.57,134h-3l-2.1-7.83c-.36-1.38-.63-2.73-1-4.2h-.12c-.33,1.47-.63,2.85-1,4.23l-2,7.8h-2.88Z"/><path class="cls-1" d="M252,119.06c3.72,0,5.82,2.67,5.82,6.84a8.69,8.69,0,0,1-.09,1.35h-9.84c.18,3.15,2.07,5.13,4.86,5.13a6.59,6.59,0,0,0,3.63-1.14l.87,1.62a8.68,8.68,0,0,1-4.8,1.5c-3.9,0-7-2.85-7-7.62S248.66,119.06,252,119.06Zm3.66,6.57c0-3-1.32-4.62-3.6-4.62-2,0-3.9,1.68-4.2,4.62Z"/><path class="cls-1" d="M261.41,112.64h2.46v18.6c0,.78.33,1.08.69,1.08a2.07,2.07,0,0,0,.54-.06l.33,1.86a3.31,3.31,0,0,1-1.41.24c-1.86,0-2.61-1.17-2.61-3.3Z"/><path class="cls-1" d="M22.27,157.43H20.11v-1.86l2.28-.15.3-4.08h2.07v4.08h3.93v2H24.76v8.1c0,1.8.57,2.82,2.25,2.82a5.3,5.3,0,0,0,1.65-.39l.48,1.86a9,9,0,0,1-2.7.54c-3.12,0-4.17-2-4.17-4.86Z"/><path class="cls-1" d="M37.36,155.06c3.57,0,6.75,2.79,6.75,7.68s-3.18,7.62-6.75,7.62-6.75-2.79-6.75-7.62S33.79,155.06,37.36,155.06Zm0,13.26c2.52,0,4.2-2.25,4.2-5.58s-1.68-5.64-4.2-5.64-4.2,2.28-4.2,5.64S34.87,168.32,37.36,168.32Z"/><path class="cls-1" d="M53.56,150.83a1.71,1.71,0,0,1,3.42,0,1.71,1.71,0,0,1-3.42,0Zm.45,4.59h2.46V170H54Z"/><path class="cls-1" d="M61.39,155.42h2l.21,2.1h.09a6.87,6.87,0,0,1,4.89-2.46c3.06,0,4.44,2,4.44,5.7V170H70.6v-8.91c0-2.73-.84-3.9-2.76-3.9-1.5,0-2.52.78-4,2.25V170H61.39Z"/><path class="cls-1" d="M83.74,155.06A6,6,0,0,1,88,156.8l-1.23,1.59a4.41,4.41,0,0,0-2.94-1.29c-2.64,0-4.56,2.28-4.56,5.64s1.83,5.58,4.5,5.58a5.2,5.2,0,0,0,3.42-1.47l1.11,1.62a7.22,7.22,0,0,1-4.74,1.89c-3.87,0-6.84-2.79-6.84-7.62S80,155.06,83.74,155.06Z"/><path class="cls-1" d="M91.48,155.42h2l.21,2.64h.09c1-1.83,2.49-3,4.14-3a3.62,3.62,0,0,1,1.56.3L99,157.52a4.08,4.08,0,0,0-1.41-.24c-1.23,0-2.7.9-3.69,3.36V170H91.48Z"/><path class="cls-1" d="M107.05,155.06c3.72,0,5.82,2.67,5.82,6.84a8.69,8.69,0,0,1-.09,1.35h-9.84c.18,3.15,2.07,5.13,4.86,5.13a6.59,6.59,0,0,0,3.63-1.14l.87,1.62a8.68,8.68,0,0,1-4.8,1.5c-3.9,0-7-2.85-7-7.62S103.72,155.06,107.05,155.06Zm3.66,6.57c0-3-1.32-4.62-3.6-4.62-2,0-3.9,1.68-4.2,4.62Z"/><path class="cls-1" d="M124.3,160.76c0-1.86-.63-3.66-3-3.66a7.84,7.84,0,0,0-4.35,1.56L116,157a10.82,10.82,0,0,1,5.73-1.89c3.57,0,5.07,2.37,5.07,6V170h-2l-.21-1.74h-.06a7.92,7.92,0,0,1-4.83,2.1,4,4,0,0,1-4.29-4.14C115.33,163,118.09,161.45,124.3,160.76Zm-4,7.62c1.41,0,2.58-.69,4-1.95v-4.05c-4.89.6-6.54,1.8-6.54,3.66C117.76,167.69,118.87,168.38,120.31,168.38Z"/><path class="cls-1" d="M131,166.7a6.56,6.56,0,0,0,4.29,1.74c1.92,0,2.88-1,2.88-2.28,0-1.5-1.74-2.16-3.33-2.76-2.07-.75-4.35-1.74-4.35-4.2s1.86-4.14,5-4.14a7.28,7.28,0,0,1,4.53,1.65l-1.17,1.56a5.41,5.41,0,0,0-3.33-1.29c-1.83,0-2.67,1-2.67,2.1,0,1.35,1.59,1.89,3.24,2.52,2.1.78,4.44,1.65,4.44,4.41,0,2.37-1.89,4.35-5.34,4.35a8.78,8.78,0,0,1-5.43-2Z"/><path class="cls-1" d="M149.44,155.06c3.72,0,5.82,2.67,5.82,6.84a8.69,8.69,0,0,1-.09,1.35h-9.84c.18,3.15,2.07,5.13,4.86,5.13a6.59,6.59,0,0,0,3.63-1.14l.87,1.62a8.68,8.68,0,0,1-4.8,1.5c-3.9,0-7-2.85-7-7.62S146.11,155.06,149.44,155.06Zm3.66,6.57c0-3-1.32-4.62-3.6-4.62-2,0-3.9,1.68-4.2,4.62Z"/><path class="cls-1" d="M164.92,155.42h2l.21,2.64h.09c1-1.83,2.49-3,4.14-3a3.62,3.62,0,0,1,1.56.3l-.48,2.16a4.08,4.08,0,0,0-1.41-.24c-1.23,0-2.7.9-3.69,3.36V170h-2.46Z"/><path class="cls-1" d="M180.49,155.06c3.72,0,5.82,2.67,5.82,6.84a8.69,8.69,0,0,1-.09,1.35h-9.84c.18,3.15,2.07,5.13,4.86,5.13a6.59,6.59,0,0,0,3.63-1.14l.87,1.62a8.68,8.68,0,0,1-4.8,1.5c-3.9,0-7-2.85-7-7.62S177.16,155.06,180.49,155.06Zm3.66,6.57c0-3-1.32-4.62-3.6-4.62-2,0-3.9,1.68-4.2,4.62Z"/><path class="cls-1" d="M188,155.42h2.55l2.76,8.28c.42,1.44.9,2.91,1.35,4.29h.12c.42-1.38.9-2.85,1.32-4.29l2.76-8.28h2.43L196.09,170h-2.88Z"/><path class="cls-1" d="M209.41,155.06c3.72,0,5.82,2.67,5.82,6.84a8.69,8.69,0,0,1-.09,1.35H205.3c.18,3.15,2.07,5.13,4.86,5.13a6.59,6.59,0,0,0,3.63-1.14l.87,1.62a8.68,8.68,0,0,1-4.8,1.5c-3.9,0-7-2.85-7-7.62S206.08,155.06,209.41,155.06Zm3.66,6.57c0-3-1.32-4.62-3.6-4.62-2,0-3.9,1.68-4.2,4.62Z"/><path class="cls-1" d="M218.83,155.42h2l.21,2.1h.09a6.87,6.87,0,0,1,4.89-2.46c3.06,0,4.44,2,4.44,5.7V170H228v-8.91c0-2.73-.84-3.9-2.76-3.9-1.5,0-2.52.78-4,2.25V170h-2.46Z"/><path class="cls-1" d="M235,155.42h2.49v8.91c0,2.73.81,3.9,2.73,3.9,1.5,0,2.55-.75,3.93-2.46V155.42h2.46V170h-2l-.21-2.28h-.09c-1.35,1.59-2.79,2.64-4.8,2.64-3.09,0-4.47-2-4.47-5.7Z"/><path class="cls-1" d="M257,155.06c3.72,0,5.82,2.67,5.82,6.84a8.69,8.69,0,0,1-.09,1.35h-9.84c.18,3.15,2.07,5.13,4.86,5.13a6.59,6.59,0,0,0,3.63-1.14l.87,1.62a8.68,8.68,0,0,1-4.8,1.5c-3.9,0-7-2.85-7-7.62S253.69,155.06,257,155.06Zm3.66,6.57c0-3-1.32-4.62-3.6-4.62-2,0-3.9,1.68-4.2,4.62Z"/><path class="cls-1" d="M266.05,166.7a6.56,6.56,0,0,0,4.29,1.74c1.92,0,2.88-1,2.88-2.28,0-1.5-1.74-2.16-3.33-2.76-2.07-.75-4.35-1.74-4.35-4.2s1.86-4.14,5-4.14a7.28,7.28,0,0,1,4.53,1.65l-1.17,1.56a5.41,5.41,0,0,0-3.33-1.29c-1.83,0-2.67,1-2.67,2.1,0,1.35,1.59,1.89,3.24,2.52,2.1.78,4.44,1.65,4.44,4.41,0,2.37-1.89,4.35-5.34,4.35a8.78,8.78,0,0,1-5.43-2Z"/><path class="cls-1" d="M16.18,186.65a4.1,4.1,0,0,0-1.65-.36c-1.38,0-2,1-2,2.82v2.31h3.09v2H12.49V206H10V193.43h-2v-1.86l2-.15v-2.31c0-3,1.35-4.83,4.26-4.83a6.61,6.61,0,0,1,2.43.48Z"/><path class="cls-1" d="M18.37,191.42h2l.21,2.64h.09c1-1.83,2.49-3,4.14-3a3.62,3.62,0,0,1,1.56.3l-.48,2.16a4.08,4.08,0,0,0-1.41-.24c-1.23,0-2.7.9-3.69,3.36V206H18.37Z"/><path class="cls-1" d="M34.15,191.06c3.57,0,6.75,2.79,6.75,7.68s-3.18,7.62-6.75,7.62-6.75-2.79-6.75-7.62S30.58,191.06,34.15,191.06Zm0,13.26c2.52,0,4.2-2.25,4.2-5.58s-1.68-5.64-4.2-5.64-4.2,2.28-4.2,5.64S31.66,204.32,34.15,204.32Z"/><path class="cls-1" d="M44.74,191.42h2l.21,2.1h.09a6.41,6.41,0,0,1,4.53-2.46,3.83,3.83,0,0,1,4,2.79c1.53-1.65,3-2.79,4.8-2.79,3,0,4.44,2,4.44,5.7V206H62.41v-8.91c0-2.73-.87-3.9-2.7-3.9-1.14,0-2.31.75-3.66,2.25V206H53.59v-8.91c0-2.73-.87-3.9-2.73-3.9-1.08,0-2.31.75-3.66,2.25V206H44.74Z"/><path class="cls-1" d="M78.13,207.23v4.92H75.67V191.42h2l.21,1.68H78a7.54,7.54,0,0,1,4.65-2c3.75,0,5.76,2.91,5.76,7.44,0,4.95-3,7.86-6.3,7.86a6.76,6.76,0,0,1-4.05-1.68Zm3.57-2.94c2.4,0,4.17-2.19,4.17-5.79,0-3.21-1.08-5.37-3.84-5.37-1.23,0-2.46.69-3.9,2v7.65A5.77,5.77,0,0,0,81.7,204.29Z"/><path class="cls-1" d="M98,191.06c3.57,0,6.75,2.79,6.75,7.68s-3.18,7.62-6.75,7.62-6.75-2.79-6.75-7.62S94.42,191.06,98,191.06Zm0,13.26c2.52,0,4.2-2.25,4.2-5.58s-1.68-5.64-4.2-5.64-4.2,2.28-4.2,5.64S95.5,204.32,98,204.32Z"/><path class="cls-1" d="M106.72,191.42h2.52l2.16,8.43c.33,1.38.6,2.7.87,4.05h.12c.33-1.35.63-2.7,1-4.05l2.25-8.43H118l2.28,8.43c.36,1.38.69,2.7,1,4.05h.12c.33-1.35.6-2.67.9-4.05l2.13-8.43h2.34L122.92,206h-3l-2.1-7.83c-.36-1.38-.63-2.73-1-4.2h-.12c-.33,1.47-.63,2.85-1,4.23l-2,7.8h-2.88Z"/><path class="cls-1" d="M135.34,191.06c3.72,0,5.82,2.67,5.82,6.84a8.69,8.69,0,0,1-.09,1.35h-9.84c.18,3.15,2.07,5.13,4.86,5.13a6.59,6.59,0,0,0,3.63-1.14l.87,1.62a8.68,8.68,0,0,1-4.8,1.5c-3.9,0-7-2.85-7-7.62S132,191.06,135.34,191.06Zm3.66,6.57c0-3-1.32-4.62-3.6-4.62-2,0-3.9,1.68-4.2,4.62Z"/><path class="cls-1" d="M144.76,191.42h2l.21,2.64h.09c1-1.83,2.49-3,4.14-3a3.62,3.62,0,0,1,1.56.3l-.48,2.16a4.08,4.08,0,0,0-1.41-.24c-1.23,0-2.7.9-3.69,3.36V206h-2.46Z"/><path class="cls-1" d="M162.25,205.49v-.12A2.69,2.69,0,0,1,161,203a3.42,3.42,0,0,1,1.59-2.7v-.12a5.15,5.15,0,0,1,3.6-9.12,5.82,5.82,0,0,1,2.07.36h5.07v1.89h-3a4.23,4.23,0,0,1,1.2,3,5,5,0,0,1-5.34,5.07,5.09,5.09,0,0,1-2.19-.51,2.21,2.21,0,0,0-.93,1.74c0,.93.6,1.59,2.58,1.59h2.82c3.39,0,5.1,1.05,5.1,3.48,0,2.7-2.85,5-7.38,5-3.57,0-6-1.41-6-3.93A4.21,4.21,0,0,1,162.25,205.49Zm4.26,5.52c2.79,0,4.62-1.44,4.62-3,0-1.35-1-1.8-2.94-1.8h-2.52a7.1,7.1,0,0,1-1.89-.24,3.07,3.07,0,0,0-1.5,2.46C162.28,210,163.87,211,166.51,211Zm2.73-14.76a3.1,3.1,0,1,0-6.18,0,3.11,3.11,0,1,0,6.18,0Z"/><path class="cls-1" d="M181.39,191.06c3.72,0,5.82,2.67,5.82,6.84a8.69,8.69,0,0,1-.09,1.35h-9.84c.18,3.15,2.07,5.13,4.86,5.13a6.59,6.59,0,0,0,3.63-1.14l.87,1.62a8.68,8.68,0,0,1-4.8,1.5c-3.9,0-7-2.85-7-7.62S178.06,191.06,181.39,191.06Zm3.66,6.57c0-3-1.32-4.62-3.6-4.62-2,0-3.9,1.68-4.2,4.62Z"/><path class="cls-1" d="M190.81,191.42h2l.21,2.1h.09a6.87,6.87,0,0,1,4.89-2.46c3.06,0,4.44,2,4.44,5.7V206H200v-8.91c0-2.73-.84-3.9-2.76-3.9-1.5,0-2.52.78-4,2.25V206h-2.46Z"/><path class="cls-1" d="M212.68,191.06c3.72,0,5.82,2.67,5.82,6.84a8.69,8.69,0,0,1-.09,1.35h-9.84c.18,3.15,2.07,5.13,4.86,5.13a6.59,6.59,0,0,0,3.63-1.14l.87,1.62a8.68,8.68,0,0,1-4.8,1.5c-3.9,0-7-2.85-7-7.62S209.35,191.06,212.68,191.06Zm3.66,6.57c0-3-1.32-4.62-3.6-4.62-2,0-3.9,1.68-4.2,4.62Z"/><path class="cls-1" d="M222.1,191.42h2l.21,2.64h.09c1-1.83,2.49-3,4.14-3a3.62,3.62,0,0,1,1.56.3l-.48,2.16a4.08,4.08,0,0,0-1.41-.24c-1.23,0-2.7.9-3.69,3.36V206H222.1Z"/><path class="cls-1" d="M240,196.76c0-1.86-.63-3.66-3-3.66a7.84,7.84,0,0,0-4.35,1.56l-1-1.71a10.82,10.82,0,0,1,5.73-1.89c3.57,0,5.07,2.37,5.07,6V206h-2l-.21-1.74h-.06a7.92,7.92,0,0,1-4.83,2.1,4,4,0,0,1-4.29-4.14C231,199,233.8,197.45,240,196.76Zm-4,7.62c1.41,0,2.58-.69,4-1.95v-4.05c-4.89.6-6.54,1.8-6.54,3.66C233.47,203.69,234.58,204.38,236,204.38Z"/><path class="cls-1" d="M247.54,193.43h-2.16v-1.86l2.28-.15.3-4.08H250v4.08H254v2H250v8.1c0,1.8.57,2.82,2.25,2.82a5.3,5.3,0,0,0,1.65-.39l.48,1.86a9,9,0,0,1-2.7.54c-3.12,0-4.17-2-4.17-4.86Z"/><path class="cls-1" d="M256.81,186.83a1.71,1.71,0,0,1,3.42,0,1.71,1.71,0,0,1-3.42,0Zm.45,4.59h2.46V206h-2.46Z"/><path class="cls-1" d="M270.31,191.06c3.57,0,6.75,2.79,6.75,7.68s-3.18,7.62-6.75,7.62-6.75-2.79-6.75-7.62S266.74,191.06,270.31,191.06Zm0,13.26c2.52,0,4.2-2.25,4.2-5.58s-1.68-5.64-4.2-5.64-4.2,2.28-4.2,5.64S267.82,204.32,270.31,204.32Z"/><path class="cls-1" d="M280.9,191.42h2l.21,2.1h.09a6.87,6.87,0,0,1,4.89-2.46c3.06,0,4.44,2,4.44,5.7V206h-2.46v-8.91c0-2.73-.84-3.9-2.76-3.9-1.5,0-2.52.78-4,2.25V206H280.9Z"/></svg>