<svg id="Layer_1" data-name="Layer 1" xmlns="http://www.w3.org/2000/svg" viewBox="0 0 300 600"><defs><style>.cls-1{fill:#001012;}</style></defs><title>text</title><path class="cls-1" d="M99.19,156.93h1.61V178.6h10.61V180H99.19Z"/><path class="cls-1" d="M120.75,162.78c4,0,6.44,2.83,6.44,7.77a8.86,8.86,0,0,1-.06,1.26H115c.07,4.23,2.56,7.28,6.34,7.28a7.43,7.43,0,0,0,4.51-1.51l.63,1.19a9.31,9.31,0,0,1-5.28,1.65c-4.31,0-7.77-3.29-7.77-8.79S117,162.78,120.75,162.78Zm5,7.84c0-4.31-1.92-6.51-4.93-6.51s-5.43,2.48-5.78,6.51Z"/><path class="cls-1" d="M130.55,177a7.76,7.76,0,0,0,5.36,2.14c2.62,0,4-1.54,4-3.33,0-2.1-2.17-3-4.1-3.71-2.55-.91-5.35-1.92-5.35-4.79,0-2.45,1.92-4.48,5.42-4.48a7.78,7.78,0,0,1,4.8,1.75l-.84,1.08a6.36,6.36,0,0,0-4-1.5c-2.59,0-3.78,1.5-3.78,3,0,1.86,2,2.66,4,3.4,2.62,1,5.49,1.85,5.49,5.14,0,2.52-2,4.73-5.67,4.73a9.75,9.75,0,0,1-6.16-2.31Z"/><path class="cls-1" d="M152.88,154.83h1.54v11c1.75-1.75,3.5-3,5.81-3,3.47,0,5.08,2.1,5.08,6.44V180h-1.54V169.43c0-3.57-1.12-5.25-3.85-5.25-2,0-3.43,1-5.5,3.15V180h-1.54Z"/><path class="cls-1" d="M168.56,163.2h1.68L174,173.73c.53,1.61,1.16,3.29,1.68,4.83h.14c.56-1.54,1.16-3.22,1.72-4.83l3.78-10.53h1.57L176.68,180h-1.82Z"/><path class="cls-1" d="M195.76,169.46c.07-2.55-.67-5.32-4-5.32a9.26,9.26,0,0,0-5.35,2l-.7-1.15a11.21,11.21,0,0,1,6.23-2.17c4,0,5.32,2.87,5.32,6.47V180H196l-.17-2.17h-.07c-1.72,1.36-3.75,2.59-5.95,2.59-2.66,0-4.9-1.44-4.9-4.62C184.91,172.09,188.3,170.3,195.76,169.46Zm-5.71,9.63c1.93,0,3.64-.94,5.71-2.73v-5.71c-6.9.81-9.24,2.42-9.24,5.08C186.52,178.15,188.13,179.09,190.05,179.09Z"/><path class="cls-1" d="M65.12,205.2H66.8l3.78,10.53c.53,1.61,1.16,3.29,1.68,4.83h.14c.56-1.54,1.16-3.22,1.72-4.83L77.9,205.2h1.57L73.24,222H71.42Z"/><path class="cls-1" d="M92.32,211.46c.07-2.55-.67-5.32-4-5.32a9.26,9.26,0,0,0-5.35,2l-.7-1.15a11.21,11.21,0,0,1,6.23-2.17c4,0,5.32,2.87,5.32,6.47V222h-1.3l-.17-2.17h-.07c-1.72,1.36-3.75,2.59-5.95,2.59-2.66,0-4.9-1.44-4.9-4.62C81.47,214.09,84.86,212.3,92.32,211.46Zm-5.71,9.63c1.93,0,3.64-.94,5.71-2.73v-5.71c-6.9.81-9.24,2.42-9.24,5.08C83.08,220.15,84.69,221.09,86.61,221.09Zm-1.12-21a2.89,2.89,0,1,1,2.91,3A2.87,2.87,0,0,1,85.49,200.12Zm4.73,0a1.86,1.86,0,1,0-1.82,2.1A1.92,1.92,0,0,0,90.22,200.12Z"/><path class="cls-1" d="M99.88,205.2h1.33l.14,3.11h.1c1.12-2.06,2.77-3.53,4.76-3.53a3.46,3.46,0,0,1,1.68.35l-.35,1.4a3.65,3.65,0,0,0-1.54-.28c-1.5,0-3.29,1.15-4.58,4.3V222H99.88Z"/><path class="cls-1" d="M116.54,204.78c4,0,6.44,2.83,6.44,7.77a7.61,7.61,0,0,1-.07,1.26H110.8c.07,4.23,2.55,7.28,6.33,7.28a7.46,7.46,0,0,0,4.52-1.51l.63,1.19a9.34,9.34,0,0,1-5.29,1.65c-4.3,0-7.77-3.29-7.77-8.79S112.79,204.78,116.54,204.78Zm5,7.84c0-4.31-1.93-6.51-4.94-6.51s-5.42,2.48-5.77,6.51Z"/><path class="cls-1" d="M134.49,196.83H136v18.55h.07l8.3-10.18h1.78l-5.46,6.65L147.09,222h-1.71l-5.57-9L136,217.41V222h-1.54Z"/><path class="cls-1" d="M150.1,205.2h1.54v10.57c0,3.57,1.12,5.25,3.82,5.25,2,0,3.46-1.05,5.42-3.43V205.2h1.54V222h-1.29l-.18-2.8h-.07c-1.64,1.93-3.39,3.22-5.7,3.22-3.47,0-5.08-2.1-5.08-6.44Z"/><path class="cls-1" d="M168.86,205.2h1.33l.14,2.59h.11c1.71-1.72,3.46-3,5.77-3,3.47,0,5.08,2.1,5.08,6.44V222h-1.54V211.43c0-3.57-1.12-5.25-3.85-5.25-2,0-3.43,1-5.5,3.15V222h-1.54Z"/><path class="cls-1" d="M193.54,204.78a7.77,7.77,0,0,1,5.07,2.06l-.07-3.08v-6.93h1.54V222h-1.33l-.14-2.17h-.1a7.9,7.9,0,0,1-5.46,2.59c-4.24,0-7-3.12-7-8.79C186.08,208.21,189.55,204.78,193.54,204.78Zm-.28,16.27c1.85,0,3.5-1,5.28-2.76v-10a7.11,7.11,0,0,0-4.9-2.17c-3.36,0-5.91,3.26-5.91,7.49C187.73,218.08,189.69,221.05,193.26,221.05Z"/><path class="cls-1" d="M212.44,204.78c4,0,6.44,2.83,6.44,7.77a7.61,7.61,0,0,1-.07,1.26H206.7c.07,4.23,2.55,7.28,6.33,7.28a7.46,7.46,0,0,0,4.52-1.51l.63,1.19a9.34,9.34,0,0,1-5.29,1.65c-4.3,0-7.77-3.29-7.77-8.79S208.69,204.78,212.44,204.78Zm5,7.84c0-4.31-1.93-6.51-4.94-6.51s-5.42,2.48-5.77,6.51Z"/><path class="cls-1" d="M223.42,205.2h1.33l.14,3.11H225c1.12-2.06,2.76-3.53,4.76-3.53a3.46,3.46,0,0,1,1.68.35l-.35,1.4a3.65,3.65,0,0,0-1.54-.28c-1.51,0-3.29,1.15-4.59,4.3V222h-1.54Z"/><path class="cls-1" d="M70.86,261a7.76,7.76,0,0,0,5.36,2.14c2.62,0,4-1.54,4-3.33,0-2.1-2.17-3-4.1-3.71-2.55-.91-5.35-1.92-5.35-4.79,0-2.45,1.92-4.48,5.42-4.48a7.78,7.78,0,0,1,4.8,1.75l-.84,1.08a6.36,6.36,0,0,0-4-1.5c-2.59,0-3.78,1.5-3.78,3,0,1.86,2,2.66,4,3.4,2.62,1,5.49,1.85,5.49,5.14,0,2.52-2,4.73-5.67,4.73A9.75,9.75,0,0,1,70,262.11Z"/><path class="cls-1" d="M85.63,241.77a1.4,1.4,0,1,1,1.4,1.37A1.34,1.34,0,0,1,85.63,241.77Zm.6,5.43h1.54V264H86.23Z"/><path class="cls-1" d="M100.16,246.78c4,0,6.44,2.83,6.44,7.77a7.61,7.61,0,0,1-.07,1.26H94.42c.07,4.23,2.55,7.28,6.33,7.28a7.46,7.46,0,0,0,4.52-1.51l.63,1.19a9.34,9.34,0,0,1-5.29,1.65c-4.3,0-7.77-3.29-7.77-8.79S96.41,246.78,100.16,246.78Zm5,7.84c0-4.31-1.93-6.51-4.94-6.51s-5.42,2.48-5.77,6.51Z"/><path class="cls-1" d="M111.15,247.2h1.33l.14,3.11h.1c1.12-2.06,2.77-3.53,4.76-3.53a3.46,3.46,0,0,1,1.68.35l-.35,1.4a3.65,3.65,0,0,0-1.54-.28c-1.5,0-3.29,1.15-4.58,4.3V264h-1.54Z"/><path class="cls-1" d="M135.33,246.78c4.06,0,7.56,3.22,7.56,8.85s-3.5,8.79-7.56,8.79-7.52-3.22-7.52-8.79S131.31,246.78,135.33,246.78Zm0,16.27c3.4,0,5.95-3,5.95-7.42s-2.55-7.49-5.95-7.49-5.91,3.05-5.91,7.49S131.94,263.05,135.33,263.05Z"/><path class="cls-1" d="M147.93,247.2h1.33l.14,2.59h.1c1.51-1.72,3.44-3,5.29-3a4.37,4.37,0,0,1,4.66,3.43c1.92-2.1,3.78-3.43,5.7-3.43,3.36,0,5,2.1,5,6.44V264h-1.57V253.43c0-3.57-1.19-5.25-3.75-5.25-1.57,0-3.18,1-5,3.15V264h-1.54V253.43c0-3.57-1.19-5.25-3.78-5.25q-2.25,0-5,3.15V264h-1.54Z"/><path class="cls-1" d="M189.44,246.78c4.06,0,7.56,3.22,7.56,8.85s-3.5,8.79-7.56,8.79-7.53-3.22-7.53-8.79S185.41,246.78,189.44,246.78Zm0,16.27c3.39,0,5.95-3,5.95-7.42s-2.56-7.49-5.95-7.49-5.92,3.05-5.92,7.49S186,263.05,189.44,263.05Z"/><path class="cls-1" d="M200.85,261a7.74,7.74,0,0,0,5.35,2.14c2.63,0,4-1.54,4-3.33,0-2.1-2.17-3-4.09-3.71-2.56-.91-5.36-1.92-5.36-4.79,0-2.45,1.93-4.48,5.43-4.48a7.75,7.75,0,0,1,4.79,1.75l-.84,1.08a6.35,6.35,0,0,0-4-1.5c-2.59,0-3.78,1.5-3.78,3,0,1.86,2,2.66,4,3.4,2.63,1,5.5,1.85,5.5,5.14,0,2.52-2,4.73-5.67,4.73a9.7,9.7,0,0,1-6.16-2.31Z"/><path class="cls-1" d="M215,261a7.76,7.76,0,0,0,5.36,2.14c2.62,0,4-1.54,4-3.33,0-2.1-2.17-3-4.1-3.71-2.55-.91-5.35-1.92-5.35-4.79,0-2.45,1.92-4.48,5.42-4.48a7.75,7.75,0,0,1,4.8,1.75l-.84,1.08a6.36,6.36,0,0,0-4-1.5c-2.59,0-3.78,1.5-3.78,3,0,1.86,2,2.66,4,3.4,2.62,1,5.49,1.85,5.49,5.14,0,2.52-2,4.73-5.67,4.73a9.75,9.75,0,0,1-6.16-2.31Z"/></svg>