<svg id="Layer_1" data-name="Layer 1" xmlns="http://www.w3.org/2000/svg" viewBox="0 0 300 600"><defs><style>.cls-1{fill:#010121;}</style></defs><title>text</title><path class="cls-1" d="M88.33,243.9h3.44v10.37h12.9V243.9h3.44V269h-3.44V257.26H91.77V269H88.33Z"/><path class="cls-1" d="M122.92,257.92a1.66,1.66,0,0,0,1.42-.88,2.7,2.7,0,0,0,.21-1.19,2.53,2.53,0,0,0-1.12-2.29,6,6,0,0,0-3.2-.71,4.05,4.05,0,0,0-3.41,1.31,4.2,4.2,0,0,0-.73,2.14h-2.88q.09-3.39,2.2-4.72a9,9,0,0,1,4.89-1.33,9.94,9.94,0,0,1,5.24,1.23,4.19,4.19,0,0,1,2,3.83v10.55a1.37,1.37,0,0,0,.19.77,1,1,0,0,0,.83.29l.46,0c.17,0,.36,0,.55-.08v2.28a8.81,8.81,0,0,1-1.09.25,7.17,7.17,0,0,1-1,.05,2.53,2.53,0,0,1-2.31-1.12,4.54,4.54,0,0,1-.53-1.7,7.67,7.67,0,0,1-2.7,2.14,8.37,8.37,0,0,1-3.88.91,5.79,5.79,0,0,1-4.16-1.55,5.15,5.15,0,0,1-1.61-3.87,5,5,0,0,1,1.59-3.94,7.54,7.54,0,0,1,4.17-1.72Zm-6.47,8.31a3.53,3.53,0,0,0,2.3.77,7.08,7.08,0,0,0,3.15-.75,4.22,4.22,0,0,0,2.56-4.08V259.7a5.32,5.32,0,0,1-1.45.6,12.41,12.41,0,0,1-1.74.34l-1.86.24a7.19,7.19,0,0,0-2.51.7,2.72,2.72,0,0,0-1.43,2.56A2.52,2.52,0,0,0,116.45,266.23Z"/><path class="cls-1" d="M132.66,250.7h2.93v3.16a6.84,6.84,0,0,1,1.76-2.25,4.56,4.56,0,0,1,3.23-1.32h.29l.7.07v3.25a3.44,3.44,0,0,0-.51-.07l-.5,0A4.38,4.38,0,0,0,137,255a5.23,5.23,0,0,0-1.25,3.44V269h-3.08Z"/><path class="cls-1" d="M164,251.26a8,8,0,0,1,1.86,1.8v-9.25h3V269h-2.77v-2.55a6.65,6.65,0,0,1-2.54,2.45,7.25,7.25,0,0,1-3.35.75,6.79,6.79,0,0,1-5.28-2.57,10.09,10.09,0,0,1-2.23-6.85,11.92,11.92,0,0,1,2-6.93,6.68,6.68,0,0,1,5.82-2.93A6.47,6.47,0,0,1,164,251.26ZM157.15,265a4.32,4.32,0,0,0,4,2,4.2,4.2,0,0,0,3.49-1.84,8.73,8.73,0,0,0,1.37-5.27,7.83,7.83,0,0,0-1.41-5.14,4.4,4.4,0,0,0-3.49-1.66,4.61,4.61,0,0,0-3.75,1.77,8.17,8.17,0,0,0-1.43,5.23A9.07,9.07,0,0,0,157.15,265Z"/><path class="cls-1" d="M184.73,251.2a7,7,0,0,1,2.77,2.37,8.14,8.14,0,0,1,1.22,3.23,21.38,21.38,0,0,1,.27,4H175.68a8,8,0,0,0,1.3,4.48,4.36,4.36,0,0,0,3.79,1.69,4.84,4.84,0,0,0,3.81-1.6,5.38,5.38,0,0,0,1.13-2.14h3a6.34,6.34,0,0,1-.8,2.24,7.84,7.84,0,0,1-1.51,2,7.07,7.07,0,0,1-3.44,1.85,10.5,10.5,0,0,1-2.49.27,7.62,7.62,0,0,1-5.76-2.49,9.73,9.73,0,0,1-2.36-7,10.53,10.53,0,0,1,2.38-7.16,7.8,7.8,0,0,1,6.21-2.75A8.24,8.24,0,0,1,184.73,251.2Zm1.1,7.19a8,8,0,0,0-.86-3.2,4.44,4.44,0,0,0-4.19-2.22,4.63,4.63,0,0,0-3.53,1.53,5.8,5.8,0,0,0-1.5,3.89Z"/><path class="cls-1" d="M193,250.7h2.93v3.16a6.7,6.7,0,0,1,1.76-2.25,4.56,4.56,0,0,1,3.23-1.32h.29l.7.07v3.25a3.44,3.44,0,0,0-.51-.07l-.5,0a4.38,4.38,0,0,0-3.57,1.5,5.17,5.17,0,0,0-1.25,3.44V269H193Z"/><path class="cls-1" d="M215.85,251.2a7,7,0,0,1,2.77,2.37,8.14,8.14,0,0,1,1.22,3.23,21.38,21.38,0,0,1,.27,4H206.8a8,8,0,0,0,1.3,4.48,4.36,4.36,0,0,0,3.79,1.69,4.84,4.84,0,0,0,3.81-1.6,5.38,5.38,0,0,0,1.13-2.14h3a6.34,6.34,0,0,1-.8,2.24,7.84,7.84,0,0,1-1.51,2,7.07,7.07,0,0,1-3.44,1.85,10.44,10.44,0,0,1-2.49.27,7.64,7.64,0,0,1-5.76-2.49,9.73,9.73,0,0,1-2.36-7,10.53,10.53,0,0,1,2.38-7.16,7.8,7.8,0,0,1,6.21-2.75A8.24,8.24,0,0,1,215.85,251.2Zm1.1,7.19a8,8,0,0,0-.86-3.2A4.44,4.44,0,0,0,211.9,253a4.6,4.6,0,0,0-3.52,1.53,5.76,5.76,0,0,0-1.51,3.89Z"/><path class="cls-1" d="M56.85,292.7v12.15a5.25,5.25,0,0,0,.44,2.29,3,3,0,0,0,3,1.64,4.22,4.22,0,0,0,4.26-2.87,11.74,11.74,0,0,0,.61-4.22v-9h3.08V311H65.31l0-2.7a6.13,6.13,0,0,1-1.46,1.76,6.33,6.33,0,0,1-4.19,1.44c-2.57,0-4.31-.88-5.24-2.62a7.93,7.93,0,0,1-.75-3.74V292.7Z"/><path class="cls-1" d="M74.68,287.11c.72-1.05,2.1-1.57,4.15-1.57h.6l.7.05v2.81l-.7-.05H79c-.94,0-1.51.24-1.69.72a14.39,14.39,0,0,0-.28,3.7h3.08v2.43H77.05V311H74V295.21H71.46v-2.43H74v-2.87A5.51,5.51,0,0,1,74.68,287.11Z"/><path class="cls-1" d="M96.23,294.52c1.62,1.57,2.43,3.89,2.43,6.94a12,12,0,0,1-2.14,7.3q-2.14,2.89-6.64,2.89a7.49,7.49,0,0,1-6-2.55,10.15,10.15,0,0,1-2.2-6.86A11,11,0,0,1,84,294.9a7.8,7.8,0,0,1,6.25-2.73A8.21,8.21,0,0,1,96.23,294.52Zm-1.91,12.17a11.61,11.61,0,0,0,1.12-5.15,9.22,9.22,0,0,0-.81-4.16,4.55,4.55,0,0,0-4.43-2.53,4.35,4.35,0,0,0-4,2.15,10,10,0,0,0-1.27,5.19,8.66,8.66,0,0,0,1.27,4.86,4.43,4.43,0,0,0,4,1.95A4.19,4.19,0,0,0,94.32,306.69Z"/><path class="cls-1" d="M102.52,292.7h2.92v3.16a7,7,0,0,1,1.76-2.25,4.56,4.56,0,0,1,3.23-1.32h.29l.7.07v3.25a3.32,3.32,0,0,0-.5-.07l-.51,0a4.38,4.38,0,0,0-3.57,1.5,5.23,5.23,0,0,0-1.25,3.44V311h-3.07Z"/><path class="cls-1" d="M117.16,292.7v12.15a5.25,5.25,0,0,0,.44,2.29,3,3,0,0,0,3,1.64,4.22,4.22,0,0,0,4.26-2.87,11.74,11.74,0,0,0,.61-4.22v-9h3.08V311h-2.91l0-2.7a6.13,6.13,0,0,1-1.46,1.76,6.34,6.34,0,0,1-4.2,1.44c-2.55,0-4.3-.88-5.23-2.62a7.93,7.93,0,0,1-.75-3.74V292.7Z"/><path class="cls-1" d="M134.17,287.59h3.11v5.11h2.92v2.51h-2.92v11.94a1.3,1.3,0,0,0,.65,1.29,2.83,2.83,0,0,0,1.19.19l.48,0a4.83,4.83,0,0,0,.6-.05V311a6.49,6.49,0,0,1-1.1.22,9.64,9.64,0,0,1-1.24.07,3.34,3.34,0,0,1-2.92-1.1,4.86,4.86,0,0,1-.77-2.86V295.21h-2.48V292.7h2.48Z"/><path class="cls-1" d="M145.11,305.26a4.42,4.42,0,0,0,.78,2.36c.79,1,2.16,1.48,4.12,1.48a6.15,6.15,0,0,0,3.07-.74,2.46,2.46,0,0,0,1.32-2.3,2,2,0,0,0-1.06-1.79,13.17,13.17,0,0,0-2.67-.88l-2.49-.61a12.24,12.24,0,0,1-3.5-1.3,3.86,3.86,0,0,1-2-3.45,5.26,5.26,0,0,1,1.9-4.21,7.62,7.62,0,0,1,5.1-1.6c2.79,0,4.81.81,6,2.43a5.19,5.19,0,0,1,1.13,3.31h-2.91a3.46,3.46,0,0,0-.75-1.89c-.72-.8-2-1.2-3.76-1.2a4.6,4.6,0,0,0-2.7.66,2.05,2.05,0,0,0-.92,1.76,2.13,2.13,0,0,0,1.21,1.9,6.83,6.83,0,0,0,2.05.75l2.07.5a16.22,16.22,0,0,1,4.53,1.55,4.12,4.12,0,0,1,1.79,3.71,5.61,5.61,0,0,1-1.87,4.22q-1.87,1.79-5.72,1.78-4.14,0-5.86-1.85a7,7,0,0,1-1.84-4.59Z"/><path class="cls-1" d="M160.78,285.9h3.12v3.48h-3.12Zm0,6.88h3.12V311h-3.12Z"/><path class="cls-1" d="M178.73,293.43a8.45,8.45,0,0,1,1.77,1.74v-2.3h2.83v16.64a12.36,12.36,0,0,1-1,5.51q-1.91,3.72-7.2,3.72a8.84,8.84,0,0,1-5-1.32,5.19,5.19,0,0,1-2.25-4.15H171a3.51,3.51,0,0,0,.88,1.9,4.53,4.53,0,0,0,3.27,1c2.34,0,3.88-.84,4.6-2.5a14.21,14.21,0,0,0,.6-5.25,6,6,0,0,1-2.21,2.09,7.47,7.47,0,0,1-3.43.68,7.27,7.27,0,0,1-5.18-2.11q-2.22-2.1-2.22-7a10.58,10.58,0,0,1,2.24-7.18,6.9,6.9,0,0,1,5.4-2.58A6.7,6.7,0,0,1,178.73,293.43Zm.37,3.3a4.46,4.46,0,0,0-3.55-1.64,4.38,4.38,0,0,0-4.42,3,12,12,0,0,0-.63,4.26,7.57,7.57,0,0,0,1.25,4.7,4,4,0,0,0,3.36,1.62,4.72,4.72,0,0,0,4.64-3,9.67,9.67,0,0,0,.75-4A7.64,7.64,0,0,0,179.1,296.73Z"/><path class="cls-1" d="M187.76,285.81h3v9.11a6.73,6.73,0,0,1,5.48-2.7,7.15,7.15,0,0,1,5.56,2.35q2.15,2.34,2.14,6.93a11.89,11.89,0,0,1-2.11,7.21,6.87,6.87,0,0,1-5.85,2.87,6,6,0,0,1-3.54-1,8.44,8.44,0,0,1-1.83-1.91V311h-2.84Zm11.76,21.07a9.71,9.71,0,0,0,1.25-5.23,8.54,8.54,0,0,0-1.25-4.78,4.09,4.09,0,0,0-3.66-1.9,5.12,5.12,0,0,0-3.69,1.55q-1.59,1.56-1.59,5.13a11.41,11.41,0,0,0,.65,4.19,4.5,4.5,0,0,0,4.55,3A4.12,4.12,0,0,0,199.52,306.88Z"/><path class="cls-1" d="M217.29,299.92a1.66,1.66,0,0,0,1.42-.88,2.7,2.7,0,0,0,.21-1.19,2.53,2.53,0,0,0-1.12-2.29,6,6,0,0,0-3.2-.71,4.05,4.05,0,0,0-3.41,1.31,4.2,4.2,0,0,0-.73,2.14h-2.87q.07-3.39,2.19-4.72a9,9,0,0,1,4.89-1.33,9.94,9.94,0,0,1,5.24,1.23,4.19,4.19,0,0,1,2,3.83v10.55a1.37,1.37,0,0,0,.19.77,1,1,0,0,0,.83.29l.46,0c.17,0,.36,0,.55-.08v2.28a8.81,8.81,0,0,1-1.09.25,7.17,7.17,0,0,1-1,.05,2.53,2.53,0,0,1-2.31-1.12,4.54,4.54,0,0,1-.53-1.7,7.67,7.67,0,0,1-2.7,2.14,8.36,8.36,0,0,1-3.87.91,5.8,5.8,0,0,1-4.17-1.55,5.15,5.15,0,0,1-1.61-3.86,5,5,0,0,1,1.59-3.95,7.54,7.54,0,0,1,4.17-1.72Zm-6.47,8.31a3.53,3.53,0,0,0,2.3.77,7,7,0,0,0,3.15-.75,4.22,4.22,0,0,0,2.56-4.08V301.7a5.19,5.19,0,0,1-1.45.6,12.41,12.41,0,0,1-1.74.34l-1.86.24a7.19,7.19,0,0,0-2.51.7,2.71,2.71,0,0,0-1.43,2.56A2.52,2.52,0,0,0,210.82,308.23Z"/><path class="cls-1" d="M227,292.7H230v3.16a6.84,6.84,0,0,1,1.76-2.25,4.56,4.56,0,0,1,3.23-1.32h.29l.7.07v3.25a3.44,3.44,0,0,0-.51-.07l-.5,0a4.38,4.38,0,0,0-3.57,1.5,5.23,5.23,0,0,0-1.25,3.44V311H227Z"/><path class="cls-1" d="M249.91,293.2a7,7,0,0,1,2.77,2.37,8.14,8.14,0,0,1,1.22,3.23,21.38,21.38,0,0,1,.27,4H240.86a7.88,7.88,0,0,0,1.31,4.48A4.33,4.33,0,0,0,246,309a4.84,4.84,0,0,0,3.81-1.6,5.38,5.38,0,0,0,1.13-2.14h3a6.34,6.34,0,0,1-.8,2.24,8,8,0,0,1-1.5,2,7.15,7.15,0,0,1-3.45,1.85,10.44,10.44,0,0,1-2.49.27,7.65,7.65,0,0,1-5.76-2.49,9.73,9.73,0,0,1-2.36-7,10.53,10.53,0,0,1,2.38-7.16,7.8,7.8,0,0,1,6.22-2.75A8.23,8.23,0,0,1,249.91,293.2Zm1.1,7.19a8,8,0,0,0-.86-3.2A4.43,4.43,0,0,0,246,295a4.6,4.6,0,0,0-3.52,1.53,5.76,5.76,0,0,0-1.51,3.89Z"/><path class="cls-1" d="M70.53,327.89H74V353H70.53Z"/><path class="cls-1" d="M97.74,327.89v3H89.28V353H85.85V330.89H77.39v-3Z"/><path class="cls-1" d="M97.74,341.67h8.58v3.16H97.74Z"/><path class="cls-1" d="M109.94,334.78h3v2.43a7.47,7.47,0,0,1,2-1.93,6.47,6.47,0,0,1,3.67-1,6.89,6.89,0,0,1,5.29,2.39q2.17,2.39,2.18,6.81,0,6-3.14,8.54a7.13,7.13,0,0,1-4.63,1.63,6.36,6.36,0,0,1-3.49-.91A8.09,8.09,0,0,1,113,351v9.35h-3.08Zm11.58,14.35a8.58,8.58,0,0,0,1.43-5.39,9.89,9.89,0,0,0-.64-3.76,4.65,4.65,0,0,0-8.78.17,12.68,12.68,0,0,0-.63,4.34,9.29,9.29,0,0,0,.63,3.61,4.38,4.38,0,0,0,4.39,2.83A4.43,4.43,0,0,0,121.52,349.13Z"/><path class="cls-1" d="M129.75,334.7h2.92v3.16a7,7,0,0,1,1.76-2.25,4.58,4.58,0,0,1,3.23-1.32H138l.7.07v3.25a3.32,3.32,0,0,0-.5-.07l-.5,0a4.41,4.41,0,0,0-3.58,1.5,5.22,5.22,0,0,0-1.24,3.44V353h-3.08Z"/><path class="cls-1" d="M154.58,336.52c1.62,1.57,2.43,3.89,2.43,6.94a12,12,0,0,1-2.14,7.3q-2.15,2.89-6.64,2.89a7.46,7.46,0,0,1-5.95-2.55,10.15,10.15,0,0,1-2.21-6.86,11,11,0,0,1,2.33-7.34,7.78,7.78,0,0,1,6.24-2.73A8.21,8.21,0,0,1,154.58,336.52Zm-1.91,12.17a11.61,11.61,0,0,0,1.12-5.15,9.22,9.22,0,0,0-.81-4.16,4.54,4.54,0,0,0-4.42-2.53A4.37,4.37,0,0,0,144.5,339a10.11,10.11,0,0,0-1.27,5.19,8.74,8.74,0,0,0,1.27,4.86,4.46,4.46,0,0,0,4,1.95A4.19,4.19,0,0,0,152.67,348.69Z"/><path class="cls-1" d="M162.61,347.26a4.51,4.51,0,0,0,.79,2.36c.79,1,2.16,1.48,4.11,1.48a6.09,6.09,0,0,0,3.07-.74,2.46,2.46,0,0,0,1.33-2.3,2,2,0,0,0-1.06-1.79,13.17,13.17,0,0,0-2.67-.88l-2.49-.61a12.45,12.45,0,0,1-3.51-1.3,3.87,3.87,0,0,1-2-3.45,5.26,5.26,0,0,1,1.9-4.21,7.62,7.62,0,0,1,5.1-1.6c2.79,0,4.81.81,6,2.42a5.3,5.3,0,0,1,1.13,3.32h-2.91a3.54,3.54,0,0,0-.75-1.89c-.72-.8-2-1.2-3.76-1.2a4.6,4.6,0,0,0-2.7.66,2.05,2.05,0,0,0-.92,1.76,2.14,2.14,0,0,0,1.2,1.9,7,7,0,0,0,2.06.75l2.07.5a16.22,16.22,0,0,1,4.53,1.55A4.14,4.14,0,0,1,175,347.7a5.61,5.61,0,0,1-1.87,4.22c-1.26,1.19-3.16,1.78-5.72,1.78q-4.14,0-5.86-1.85a7,7,0,0,1-1.84-4.59Z"/><path class="cls-1" d="M175.38,357.63a6,6,0,0,0,2.49-.37c.28-.2.42-.82.42-1.87V334.78h3.07v20.94a5.55,5.55,0,0,1-.65,3c-.72,1.11-2.08,1.67-4.08,1.67h-.47l-.78-.07Zm6-26.18h-3.07v-3.56h3.07Z"/><path class="cls-1" d="M197.37,335.2a6.89,6.89,0,0,1,2.76,2.37,8.15,8.15,0,0,1,1.23,3.23,21.38,21.38,0,0,1,.27,4H188.32a7.88,7.88,0,0,0,1.3,4.48A4.36,4.36,0,0,0,193.4,351a4.85,4.85,0,0,0,3.82-1.6,5.38,5.38,0,0,0,1.13-2.14h3a6.3,6.3,0,0,1-.79,2.24,7.84,7.84,0,0,1-1.51,2,7.07,7.07,0,0,1-3.44,1.85,10.55,10.55,0,0,1-2.49.27,7.62,7.62,0,0,1-5.76-2.49,9.69,9.69,0,0,1-2.36-7A10.53,10.53,0,0,1,187.4,337a7.78,7.78,0,0,1,6.21-2.75A8.3,8.3,0,0,1,197.37,335.2Zm1.1,7.19a8,8,0,0,0-.87-3.2,4.41,4.41,0,0,0-4.18-2.22,4.63,4.63,0,0,0-3.53,1.53,5.81,5.81,0,0,0-1.51,3.89Z"/><path class="cls-1" d="M205.46,327.89h2.95v14.58l7.89-7.77h3.93l-7,6.8,7.43,11.5H216.7l-5.76-9.31-2.53,2.44V353h-2.95Z"/><path class="cls-1" d="M223.64,329.59h3.11v5.11h2.92v2.51h-2.92v11.94a1.31,1.31,0,0,0,.65,1.29,2.85,2.85,0,0,0,1.2.19l.48,0a4.54,4.54,0,0,0,.59-.05V353a6.49,6.49,0,0,1-1.1.22,9.54,9.54,0,0,1-1.24.07,3.35,3.35,0,0,1-2.92-1.1,4.93,4.93,0,0,1-.77-2.86V337.21h-2.48V334.7h2.48Z"/><path class="cls-1" d="M235.27,329.82a7.57,7.57,0,0,1,5.8-2.25,7.68,7.68,0,0,1,5.46,1.92,6.47,6.47,0,0,1,2.05,4.92,5.26,5.26,0,0,1-.75,2.94,22.64,22.64,0,0,1-3,3.31,9.93,9.93,0,0,0-2.19,2.69,8.29,8.29,0,0,0-.5,3.26h-3a11,11,0,0,1,.58-3.94,10.41,10.41,0,0,1,2.58-3.43l1.4-1.35a5.66,5.66,0,0,0,1-1.21,4.25,4.25,0,0,0,.71-2.31,4.42,4.42,0,0,0-1-2.9,5,5,0,0,0-7.4.89,8.05,8.05,0,0,0-.72,3.4h-3A8.3,8.3,0,0,1,235.27,329.82ZM239,349.45h3.4V353H239Z"/></svg>