<svg id="Layer_1" data-name="Layer 1" xmlns="http://www.w3.org/2000/svg" viewBox="0 0 300 600"><defs><style>.cls-1{fill:#010121;}</style></defs><title>text</title><path class="cls-1" d="M110,218.08h3.4V240.2H126v3H110Z"/><path class="cls-1" d="M129,218.08h3.12v3.49H129Zm0,6.89h3.12v18.22H129Z"/><path class="cls-1" d="M138.22,219.3c.71-1.05,2.1-1.57,4.15-1.57h.6l.7,0v2.81l-.7,0h-.41c-.94,0-1.51.24-1.69.72a13.93,13.93,0,0,0-.28,3.7h3.08v2.43h-3.08v15.79h-3V227.4H135V225h2.55V222.1A5.51,5.51,0,0,1,138.22,219.3Z"/><path class="cls-1" d="M146.59,218.08h3.08v25.11h-3.08Z"/><path class="cls-1" d="M154.28,218.08h3.13v3.49h-3.13Zm0,6.89h3.13v18.22h-3.13Z"/><path class="cls-1" d="M172.23,225.62a8.45,8.45,0,0,1,1.77,1.74v-2.3h2.84V241.7a12.36,12.36,0,0,1-1,5.51c-1.27,2.48-3.68,3.72-7.21,3.72a8.83,8.83,0,0,1-5-1.32,5.19,5.19,0,0,1-2.25-4.15h3.13a3.44,3.44,0,0,0,.88,1.9,4.5,4.5,0,0,0,3.26,1c2.35,0,3.88-.84,4.61-2.5a14,14,0,0,0,.59-5.25,6,6,0,0,1-2.21,2.09,7.39,7.39,0,0,1-3.42.68,7.3,7.3,0,0,1-5.19-2.11c-1.48-1.41-2.22-3.73-2.22-7a10.63,10.63,0,0,1,2.24-7.18,6.92,6.92,0,0,1,5.41-2.58A6.64,6.64,0,0,1,172.23,225.62Zm.38,3.3a4.48,4.48,0,0,0-3.56-1.64,4.39,4.39,0,0,0-4.42,3,12,12,0,0,0-.62,4.26,7.57,7.57,0,0,0,1.24,4.7,4,4,0,0,0,3.36,1.62,4.71,4.71,0,0,0,4.64-3A9.67,9.67,0,0,0,174,234,7.64,7.64,0,0,0,172.61,228.92Z"/><path class="cls-1" d="M183.15,225.13h3.57v3.72h-3.57Zm0,14.33h3.57v3.73h-3.57Z"/><path class="cls-1" d="M66,260.08h3.43v25.11H66Z"/><path class="cls-1" d="M93.19,260.08v3H84.73v22.11H81.3V263.08H72.84v-3Z"/><path class="cls-1" d="M93.19,273.86h8.58V277H93.19Z"/><path class="cls-1" d="M105.74,260.08h3.07v25.11h-3.07Z"/><path class="cls-1" d="M112.74,285.12l2.2-2.3a10.08,10.08,0,0,1-1.32-2.83,13.23,13.23,0,0,1-.47-3.73,11.49,11.49,0,0,1,2.18-6.89,7.33,7.33,0,0,1,6.34-3,8.76,8.76,0,0,1,3.81.77,11.12,11.12,0,0,1,2.2,1.48l2.17-2.41.89.87-2.2,2.45a10.4,10.4,0,0,1,1.55,3.61,12.39,12.39,0,0,1,.29,2.63A10.93,10.93,0,0,1,128,283a7.89,7.89,0,0,1-6.38,2.86,9.62,9.62,0,0,1-3.38-.55,6.41,6.41,0,0,1-2.4-1.51L113.75,286Zm11.44-15.57a5.64,5.64,0,0,0-2.39-.49,4.7,4.7,0,0,0-4,2.08,8.84,8.84,0,0,0-1.52,5.34,10.19,10.19,0,0,0,.27,2.37,13.4,13.4,0,0,0,.53,1.61l8.67-9.7A3.64,3.64,0,0,0,124.18,269.55Zm-4.51,13.32a6.22,6.22,0,0,0,2,.34,4.73,4.73,0,0,0,4.63-3,10,10,0,0,0,.83-4.21,11.42,11.42,0,0,0-.26-2.65,9.18,9.18,0,0,0-.47-1.4l-8.57,9.65A4.37,4.37,0,0,0,119.67,282.87Z"/><path class="cls-1" d="M136.64,279.45a4.42,4.42,0,0,0,.78,2.36c.79,1,2.16,1.48,4.12,1.48a6.15,6.15,0,0,0,3.07-.74,2.46,2.46,0,0,0,1.32-2.3,1.94,1.94,0,0,0-1.06-1.79,13.17,13.17,0,0,0-2.67-.88l-2.49-.61a12.24,12.24,0,0,1-3.5-1.3,3.86,3.86,0,0,1-2-3.45,5.26,5.26,0,0,1,1.9-4.21,7.62,7.62,0,0,1,5.1-1.6c2.79,0,4.81.81,6,2.42a5.24,5.24,0,0,1,1.13,3.32h-2.91a3.46,3.46,0,0,0-.75-1.89c-.72-.8-2-1.2-3.76-1.2a4.6,4.6,0,0,0-2.7.66,2.07,2.07,0,0,0-.92,1.76,2.13,2.13,0,0,0,1.21,1.9,6.94,6.94,0,0,0,2.05.75l2.07.5a16.22,16.22,0,0,1,4.53,1.55,4.12,4.12,0,0,1,1.79,3.71,5.61,5.61,0,0,1-1.87,4.22q-1.87,1.78-5.72,1.78-4.14,0-5.86-1.85a7,7,0,0,1-1.84-4.59Z"/><path class="cls-1" d="M152.31,266.89h2.92v2.59a8.12,8.12,0,0,1,2.75-2.3,7.32,7.32,0,0,1,3.23-.7q3.9,0,5.26,2.71a9.55,9.55,0,0,1,.76,4.26v11.74H164.1V273.65a6.29,6.29,0,0,0-.5-2.7,3,3,0,0,0-3-1.7,5.93,5.93,0,0,0-1.79.22,4.62,4.62,0,0,0-2.23,1.5,4.69,4.69,0,0,0-1,1.87,12.93,12.93,0,0,0-.23,2.76v9.59h-3.07Z"/><path class="cls-1" d="M171.77,260.08h3.13v3.49h-3.13Zm0,6.89h3.13v18.22h-3.13Z"/><path class="cls-1" d="M179.55,266.89h2.92v2.59a8.12,8.12,0,0,1,2.75-2.3,7.32,7.32,0,0,1,3.23-.7c2.6,0,4.35.9,5.27,2.71a9.71,9.71,0,0,1,.75,4.26v11.74h-3.13V273.65a6.29,6.29,0,0,0-.5-2.7,3,3,0,0,0-3-1.7,5.93,5.93,0,0,0-1.79.22,4.55,4.55,0,0,0-2.22,1.5,4.46,4.46,0,0,0-1,1.87,12.3,12.3,0,0,0-.23,2.76v9.59h-3.08Z"/><path class="cls-1" d="M209.19,267.62a8.45,8.45,0,0,1,1.77,1.74v-2.3h2.84V283.7a12.21,12.21,0,0,1-1,5.51q-1.91,3.72-7.2,3.72a8.86,8.86,0,0,1-5-1.32,5.19,5.19,0,0,1-2.25-4.15h3.13a3.45,3.45,0,0,0,.89,1.9,4.49,4.49,0,0,0,3.26,1c2.34,0,3.88-.84,4.61-2.5a14.27,14.27,0,0,0,.59-5.25,6,6,0,0,1-2.21,2.09,7.45,7.45,0,0,1-3.42.68A7.28,7.28,0,0,1,200,283.3c-1.48-1.41-2.22-3.73-2.22-7a10.63,10.63,0,0,1,2.24-7.18,6.9,6.9,0,0,1,5.4-2.58A6.7,6.7,0,0,1,209.19,267.62Zm.38,3.3a4.48,4.48,0,0,0-3.56-1.64,4.38,4.38,0,0,0-4.42,3,12,12,0,0,0-.63,4.26,7.57,7.57,0,0,0,1.25,4.7,4,4,0,0,0,3.36,1.62,4.71,4.71,0,0,0,4.64-3,9.67,9.67,0,0,0,.75-4A7.7,7.7,0,0,0,209.57,270.92Z"/><path class="cls-1" d="M228.2,260.08h3.13v3.49H228.2Zm0,6.89h3.13v18.22H228.2Z"/><path class="cls-1" d="M12.38,302.08h3.08v25.11H12.38Z"/><path class="cls-1" d="M20.07,302.08H23.2v3.49H20.07Zm0,6.89H23.2v18.22H20.07Z"/><path class="cls-1" d="M29.36,308.89l4.89,14.9,5.09-14.9h3.37l-6.89,18.3H32.54l-6.75-18.3Z"/><path class="cls-1" d="M47.18,321.45a4.42,4.42,0,0,0,.78,2.36c.79,1,2.17,1.48,4.12,1.48a6.23,6.23,0,0,0,3.07-.74,2.47,2.47,0,0,0,1.33-2.3,2,2,0,0,0-1.06-1.79,13.57,13.57,0,0,0-2.68-.88L50.26,319a12.2,12.2,0,0,1-3.51-1.3,3.87,3.87,0,0,1-2-3.45A5.28,5.28,0,0,1,46.63,310a7.65,7.65,0,0,1,5.1-1.6c2.8,0,4.81.81,6.05,2.42a5.23,5.23,0,0,1,1.12,3.32H56a3.54,3.54,0,0,0-.75-1.89c-.73-.8-2-1.2-3.77-1.2a4.6,4.6,0,0,0-2.7.66,2.07,2.07,0,0,0-.92,1.75,2.15,2.15,0,0,0,1.21,1.91,6.91,6.91,0,0,0,2.06.75l2.07.5a16,16,0,0,1,4.52,1.55,4.13,4.13,0,0,1,1.8,3.71,5.62,5.62,0,0,1-1.88,4.22q-1.87,1.78-5.72,1.78c-2.75,0-4.71-.62-5.85-1.85a7,7,0,0,1-1.85-4.59Z"/><path class="cls-1" d="M62.94,302.08H66v25.11H62.94Z"/><path class="cls-1" d="M69.94,327.12l2.2-2.3A9.81,9.81,0,0,1,70.82,322a13.23,13.23,0,0,1-.47-3.73,11.49,11.49,0,0,1,2.18-6.89,7.32,7.32,0,0,1,6.34-3,8.86,8.86,0,0,1,3.8.77,10.87,10.87,0,0,1,2.21,1.48l2.17-2.4.89.86-2.2,2.45a10.4,10.4,0,0,1,1.55,3.61,12.39,12.39,0,0,1,.29,2.63,10.93,10.93,0,0,1-2.4,7.27,7.89,7.89,0,0,1-6.38,2.86,9.62,9.62,0,0,1-3.38-.55,6.41,6.41,0,0,1-2.4-1.51L71,328Zm11.44-15.57a5.64,5.64,0,0,0-2.39-.49,4.73,4.73,0,0,0-4,2.08,8.9,8.9,0,0,0-1.51,5.34,10.19,10.19,0,0,0,.27,2.37,15.83,15.83,0,0,0,.52,1.61l8.68-9.7A3.64,3.64,0,0,0,81.38,311.55Zm-4.51,13.32a6.22,6.22,0,0,0,2,.34,4.73,4.73,0,0,0,4.63-3,10,10,0,0,0,.83-4.21,11.42,11.42,0,0,0-.26-2.65,9.18,9.18,0,0,0-.47-1.4L75,323.56A4.37,4.37,0,0,0,76.87,324.87Z"/><path class="cls-1" d="M91.75,309h3v2.43a7.33,7.33,0,0,1,2-1.93,6.47,6.47,0,0,1,3.67-1,6.89,6.89,0,0,1,5.29,2.39q2.17,2.39,2.18,6.81c0,4-1,6.83-3.14,8.54a7.13,7.13,0,0,1-4.64,1.62,6.34,6.34,0,0,1-3.48-.9,7.89,7.89,0,0,1-1.83-1.76v9.35H91.75Zm11.57,14.35a8.52,8.52,0,0,0,1.43-5.39,10.1,10.1,0,0,0-.63-3.76,4.65,4.65,0,0,0-8.78.17,12.68,12.68,0,0,0-.63,4.34,9.29,9.29,0,0,0,.63,3.61,4.67,4.67,0,0,0,8,1Z"/><path class="cls-1" d="M113.3,321.45a4.42,4.42,0,0,0,.78,2.36c.8,1,2.17,1.48,4.12,1.48a6.23,6.23,0,0,0,3.07-.74,2.47,2.47,0,0,0,1.33-2.3,2,2,0,0,0-1.06-1.79,13.33,13.33,0,0,0-2.68-.88l-2.48-.61a12.2,12.2,0,0,1-3.51-1.3,3.87,3.87,0,0,1-2-3.45,5.28,5.28,0,0,1,1.89-4.21,7.65,7.65,0,0,1,5.1-1.6c2.8,0,4.81.81,6.05,2.42a5.23,5.23,0,0,1,1.12,3.32h-2.9a3.54,3.54,0,0,0-.75-1.89c-.73-.8-2-1.2-3.77-1.2a4.62,4.62,0,0,0-2.7.66,2.07,2.07,0,0,0-.92,1.75,2.15,2.15,0,0,0,1.21,1.91,6.91,6.91,0,0,0,2.06.75l2.07.5a16,16,0,0,1,4.52,1.55,4.13,4.13,0,0,1,1.8,3.71,5.62,5.62,0,0,1-1.88,4.22q-1.87,1.78-5.72,1.78c-2.75,0-4.71-.62-5.85-1.85a7,7,0,0,1-1.85-4.59Z"/><path class="cls-1" d="M128.71,309h3v2.43a7.47,7.47,0,0,1,2-1.93,6.5,6.5,0,0,1,3.67-1,6.93,6.93,0,0,1,5.3,2.39q2.17,2.39,2.17,6.81c0,4-1,6.83-3.14,8.54a7.1,7.1,0,0,1-4.63,1.62,6.32,6.32,0,0,1-3.48-.9,8.1,8.1,0,0,1-1.84-1.76v9.35h-3.08Zm11.58,14.35a8.58,8.58,0,0,0,1.43-5.39,10.1,10.1,0,0,0-.63-3.76,4.65,4.65,0,0,0-8.78.17,12.42,12.42,0,0,0-.64,4.34,9.1,9.1,0,0,0,.64,3.61,4.67,4.67,0,0,0,8,1Z"/><path class="cls-1" d="M159.74,309.39a6.92,6.92,0,0,1,2.77,2.37,8.14,8.14,0,0,1,1.22,3.23,21.18,21.18,0,0,1,.28,4H150.69A7.88,7.88,0,0,0,152,323.5a4.33,4.33,0,0,0,3.78,1.69,4.84,4.84,0,0,0,3.81-1.6,5.26,5.26,0,0,0,1.13-2.14h3a6.45,6.45,0,0,1-.8,2.25,8.17,8.17,0,0,1-1.5,2,7.16,7.16,0,0,1-3.44,1.85,10.58,10.58,0,0,1-2.5.27,7.65,7.65,0,0,1-5.76-2.49,9.71,9.71,0,0,1-2.36-7,10.58,10.58,0,0,1,2.38-7.16,7.82,7.82,0,0,1,6.22-2.75A8.23,8.23,0,0,1,159.74,309.39Zm1.1,7.19a8,8,0,0,0-.86-3.2,4.43,4.43,0,0,0-4.19-2.22,4.61,4.61,0,0,0-3.52,1.53,5.81,5.81,0,0,0-1.51,3.89Z"/><path class="cls-1" d="M168,308.89h2.92v3.16a7,7,0,0,1,1.76-2.25,4.56,4.56,0,0,1,3.23-1.32h.29l.7.07v3.25c-.18,0-.35-.06-.5-.07l-.51,0a4.38,4.38,0,0,0-3.57,1.5,5.23,5.23,0,0,0-1.25,3.44v10.53H168Z"/><path class="cls-1" d="M181.39,321.45a4.42,4.42,0,0,0,.78,2.36c.79,1,2.16,1.48,4.12,1.48a6.25,6.25,0,0,0,3.07-.74,2.46,2.46,0,0,0,1.32-2.3,1.94,1.94,0,0,0-1.06-1.79,13.17,13.17,0,0,0-2.67-.88l-2.49-.61a12.24,12.24,0,0,1-3.5-1.3,3.86,3.86,0,0,1-2-3.45,5.26,5.26,0,0,1,1.9-4.21,7.62,7.62,0,0,1,5.1-1.6c2.79,0,4.81.81,6,2.42a5.24,5.24,0,0,1,1.13,3.32H190.2a3.46,3.46,0,0,0-.75-1.89c-.72-.8-2-1.2-3.76-1.2a4.6,4.6,0,0,0-2.7.66,2.07,2.07,0,0,0-.92,1.75,2.14,2.14,0,0,0,1.21,1.91,6.94,6.94,0,0,0,2.05.75l2.07.5a16.22,16.22,0,0,1,4.53,1.55,4.12,4.12,0,0,1,1.79,3.71,5.61,5.61,0,0,1-1.87,4.22q-1.87,1.78-5.72,1.78-4.14,0-5.86-1.85a7,7,0,0,1-1.84-4.59Z"/><path class="cls-1" d="M196.8,309h3v2.43a7.47,7.47,0,0,1,2-1.93,6.47,6.47,0,0,1,3.67-1,6.89,6.89,0,0,1,5.29,2.39q2.18,2.39,2.18,6.81c0,4-1.05,6.83-3.14,8.54a7.12,7.12,0,0,1-4.63,1.62,6.35,6.35,0,0,1-3.49-.9,7.89,7.89,0,0,1-1.83-1.76v9.35H196.8Zm11.58,14.35a8.58,8.58,0,0,0,1.43-5.39,10.09,10.09,0,0,0-.64-3.76,4.65,4.65,0,0,0-8.78.17,12.68,12.68,0,0,0-.63,4.34,9.29,9.29,0,0,0,.63,3.61,4.38,4.38,0,0,0,4.39,2.83A4.43,4.43,0,0,0,208.38,323.32Z"/><path class="cls-1" d="M227.83,309.39a7,7,0,0,1,2.77,2.37,8.14,8.14,0,0,1,1.22,3.23,21.38,21.38,0,0,1,.27,4H218.78a7.88,7.88,0,0,0,1.3,4.48,4.36,4.36,0,0,0,3.79,1.69,4.84,4.84,0,0,0,3.81-1.6,5.38,5.38,0,0,0,1.13-2.14h3a6.41,6.41,0,0,1-.79,2.25,8,8,0,0,1-1.51,2,7.07,7.07,0,0,1-3.44,1.85,10.44,10.44,0,0,1-2.49.27,7.62,7.62,0,0,1-5.76-2.49,9.71,9.71,0,0,1-2.36-7,10.53,10.53,0,0,1,2.38-7.16,7.8,7.8,0,0,1,6.21-2.75A8.24,8.24,0,0,1,227.83,309.39Zm1.1,7.19a8.15,8.15,0,0,0-.86-3.2,4.44,4.44,0,0,0-4.19-2.22,4.6,4.6,0,0,0-3.52,1.53,5.76,5.76,0,0,0-1.51,3.89Z"/><path class="cls-1" d="M235.92,302.08h3v14.58l7.88-7.77h3.93l-7,6.8,7.43,11.5h-3.93l-5.76-9.31-2.52,2.44v6.87h-3Z"/><path class="cls-1" d="M254.1,303.78h3.11v5.11h2.93v2.51h-2.93v11.94a1.31,1.31,0,0,0,.65,1.29,2.89,2.89,0,0,0,1.2.18h.48a4.83,4.83,0,0,0,.6-.05v2.44a6.61,6.61,0,0,1-1.11.22,9.54,9.54,0,0,1-1.24.07,3.35,3.35,0,0,1-2.92-1.1,4.93,4.93,0,0,1-.77-2.86V311.4h-2.47v-2.51h2.47Z"/><path class="cls-1" d="M263.21,302.08h3.13v3.49h-3.13Zm0,6.89h3.13v18.22h-3.13Z"/><path class="cls-1" d="M272.5,308.89l4.89,14.9,5.09-14.9h3.37L279,327.19h-3.28l-6.75-18.3Z"/><path class="cls-1" d="M29,357.86h8.58V361H29Z"/><path class="cls-1" d="M61,358.11a1.66,1.66,0,0,0,1.42-.88,2.7,2.7,0,0,0,.21-1.19,2.51,2.51,0,0,0-1.12-2.29,6,6,0,0,0-3.2-.71,4,4,0,0,0-3.41,1.31,4.3,4.3,0,0,0-.73,2.14H51.25c0-2.26.79-3.83,2.19-4.72a9,9,0,0,1,4.89-1.33,9.94,9.94,0,0,1,5.24,1.23,4.19,4.19,0,0,1,2,3.83v10.55a1.32,1.32,0,0,0,.19.76.94.94,0,0,0,.83.3l.46,0c.18,0,.36,0,.55-.08v2.28a8.81,8.81,0,0,1-1.09.25,7.08,7.08,0,0,1-1,.05,2.51,2.51,0,0,1-2.3-1.12,4.21,4.21,0,0,1-.53-1.7A7.86,7.86,0,0,1,60,368.9a8.43,8.43,0,0,1-3.88.9,5.79,5.79,0,0,1-4.17-1.54,5.15,5.15,0,0,1-1.61-3.87,5,5,0,0,1,1.59-3.94,7.54,7.54,0,0,1,4.17-1.72Zm-6.47,8.31a3.55,3.55,0,0,0,2.3.77,7,7,0,0,0,3.15-.75,4.22,4.22,0,0,0,2.56-4.08v-2.47a5.19,5.19,0,0,1-1.45.6,12.41,12.41,0,0,1-1.74.34l-1.86.24a7.19,7.19,0,0,0-2.51.7,2.72,2.72,0,0,0-1.43,2.56A2.52,2.52,0,0,0,54.48,366.42Z"/><path class="cls-1" d="M70.7,344.08h3.07v25.11H70.7Z"/><path class="cls-1" d="M78.47,344.08h3.08v25.11H78.47Z"/><path class="cls-1" d="M86.78,345.78h3.11v5.11h2.92v2.51H89.89v11.94a1.3,1.3,0,0,0,.65,1.29,2.83,2.83,0,0,0,1.19.18h.48a4.83,4.83,0,0,0,.6-.05v2.44a6.49,6.49,0,0,1-1.1.22,9.75,9.75,0,0,1-1.24.07,3.37,3.37,0,0,1-2.93-1.1,4.93,4.93,0,0,1-.76-2.86V353.4H84.3v-2.51h2.48Z"/><path class="cls-1" d="M95.88,344.08H99v3.49H95.88Zm0,6.89H99v18.22H95.88Z"/><path class="cls-1" d="M113.72,351.45a8.18,8.18,0,0,1,1.85,1.8V344h3v25.19h-2.77v-2.55a6.65,6.65,0,0,1-2.54,2.45,7.22,7.22,0,0,1-3.35.75,6.81,6.81,0,0,1-5.28-2.57,10.14,10.14,0,0,1-2.23-6.85,11.85,11.85,0,0,1,2-6.93,6.65,6.65,0,0,1,5.81-2.93A6.49,6.49,0,0,1,113.72,351.45Zm-6.87,13.72a4.33,4.33,0,0,0,4,2,4.18,4.18,0,0,0,3.49-1.84,8.66,8.66,0,0,0,1.37-5.27,7.83,7.83,0,0,0-1.41-5.14,4.39,4.39,0,0,0-3.49-1.66,4.57,4.57,0,0,0-3.74,1.77,8.17,8.17,0,0,0-1.44,5.23A9.07,9.07,0,0,0,106.85,365.17Z"/><path class="cls-1" d="M146.11,352.71c1.62,1.57,2.43,3.89,2.43,6.94a11.9,11.9,0,0,1-2.14,7.3q-2.15,2.9-6.63,2.89a7.48,7.48,0,0,1-6-2.55,10.15,10.15,0,0,1-2.21-6.86,11,11,0,0,1,2.33-7.34,7.78,7.78,0,0,1,6.24-2.73A8.21,8.21,0,0,1,146.11,352.71Zm-1.91,12.17a11.62,11.62,0,0,0,1.13-5.15,9.22,9.22,0,0,0-.81-4.16,4.56,4.56,0,0,0-4.43-2.53,4.37,4.37,0,0,0-4.06,2.15,10.11,10.11,0,0,0-1.27,5.19,8.74,8.74,0,0,0,1.27,4.86,4.46,4.46,0,0,0,4,1.95A4.19,4.19,0,0,0,144.2,364.88Z"/><path class="cls-1" d="M152.06,351h3v2.43a7.33,7.33,0,0,1,2-1.93,6.47,6.47,0,0,1,3.67-1,6.91,6.91,0,0,1,5.29,2.39q2.17,2.39,2.18,6.81c0,4-1,6.83-3.14,8.54a7.12,7.12,0,0,1-4.63,1.62,6.35,6.35,0,0,1-3.49-.9,7.89,7.89,0,0,1-1.83-1.76v9.35h-3.08Zm11.57,14.35a8.52,8.52,0,0,0,1.43-5.39,10.1,10.1,0,0,0-.63-3.76,4.65,4.65,0,0,0-8.78.17,12.68,12.68,0,0,0-.63,4.34,9.29,9.29,0,0,0,.63,3.61,4.67,4.67,0,0,0,8,1Z"/><path class="cls-1" d="M171.53,351h3v2.43a7.47,7.47,0,0,1,2-1.93,6.5,6.5,0,0,1,3.67-1,6.93,6.93,0,0,1,5.3,2.39q2.17,2.39,2.17,6.81c0,4-1.05,6.83-3.14,8.54a7.12,7.12,0,0,1-4.63,1.62,6.34,6.34,0,0,1-3.48-.9,8.1,8.1,0,0,1-1.84-1.76v9.35h-3.07Zm11.57,14.35a8.58,8.58,0,0,0,1.43-5.39,10.1,10.1,0,0,0-.63-3.76,4.65,4.65,0,0,0-8.78.17,12.42,12.42,0,0,0-.64,4.34,9.1,9.1,0,0,0,.64,3.61,4.67,4.67,0,0,0,8,1Z"/><path class="cls-1" d="M201.3,351.45a8,8,0,0,1,1.86,1.8V344h3v25.19h-2.77v-2.55a6.65,6.65,0,0,1-2.54,2.45,7.28,7.28,0,0,1-3.35.75,6.78,6.78,0,0,1-5.28-2.57,10.09,10.09,0,0,1-2.23-6.85,11.92,11.92,0,0,1,2-6.93,6.68,6.68,0,0,1,5.82-2.93A6.47,6.47,0,0,1,201.3,351.45Zm-6.86,13.72a4.32,4.32,0,0,0,4,2,4.2,4.2,0,0,0,3.49-1.84,8.73,8.73,0,0,0,1.37-5.27,7.83,7.83,0,0,0-1.41-5.14,4.4,4.4,0,0,0-3.49-1.66,4.61,4.61,0,0,0-3.75,1.77,8.17,8.17,0,0,0-1.43,5.23A9.07,9.07,0,0,0,194.44,365.17Z"/><path class="cls-1" d="M220.52,358.11a1.66,1.66,0,0,0,1.42-.88,2.72,2.72,0,0,0,.2-1.19,2.53,2.53,0,0,0-1.11-2.29,6,6,0,0,0-3.2-.71,4,4,0,0,0-3.41,1.31,4.2,4.2,0,0,0-.73,2.14h-2.88q.09-3.39,2.2-4.72a8.91,8.91,0,0,1,4.89-1.33,9.94,9.94,0,0,1,5.24,1.23,4.19,4.19,0,0,1,2,3.83v10.55a1.32,1.32,0,0,0,.19.76.94.94,0,0,0,.83.3l.46,0c.17,0,.36,0,.55-.08v2.28a8.81,8.81,0,0,1-1.09.25,7.25,7.25,0,0,1-1,.05,2.53,2.53,0,0,1-2.31-1.12,4.54,4.54,0,0,1-.53-1.7,7.67,7.67,0,0,1-2.7,2.14,8.37,8.37,0,0,1-3.88.9,5.78,5.78,0,0,1-4.16-1.54,5.15,5.15,0,0,1-1.61-3.87,5,5,0,0,1,1.59-3.94,7.54,7.54,0,0,1,4.17-1.72ZM214,366.42a3.58,3.58,0,0,0,2.31.77,7.08,7.08,0,0,0,3.15-.75,4.22,4.22,0,0,0,2.56-4.08v-2.47a5.32,5.32,0,0,1-1.45.6,12.41,12.41,0,0,1-1.74.34l-1.86.24a7.19,7.19,0,0,0-2.51.7,2.72,2.72,0,0,0-1.43,2.56A2.51,2.51,0,0,0,214,366.42Z"/><path class="cls-1" d="M230.79,345.78h3.11v5.11h2.93v2.51H233.9v11.94a1.31,1.31,0,0,0,.65,1.29,2.89,2.89,0,0,0,1.2.18h.48a4.83,4.83,0,0,0,.6-.05v2.44a6.81,6.81,0,0,1-1.11.22,9.54,9.54,0,0,1-1.24.07,3.35,3.35,0,0,1-2.92-1.1,4.93,4.93,0,0,1-.77-2.86V353.4h-2.48v-2.51h2.48Z"/><path class="cls-1" d="M251.21,351.39a7,7,0,0,1,2.77,2.37A8.3,8.3,0,0,1,255.2,357a21.38,21.38,0,0,1,.27,4H242.16a7.88,7.88,0,0,0,1.3,4.48,4.36,4.36,0,0,0,3.78,1.69,4.85,4.85,0,0,0,3.82-1.6,5.38,5.38,0,0,0,1.13-2.14h3a6.41,6.41,0,0,1-.79,2.25,8,8,0,0,1-1.51,2,7.07,7.07,0,0,1-3.44,1.85,10.55,10.55,0,0,1-2.49.27,7.62,7.62,0,0,1-5.76-2.49,9.71,9.71,0,0,1-2.36-7,10.53,10.53,0,0,1,2.38-7.16,7.78,7.78,0,0,1,6.21-2.75A8.27,8.27,0,0,1,251.21,351.39Zm1.1,7.19a8,8,0,0,0-.87-3.2,4.41,4.41,0,0,0-4.18-2.22,4.63,4.63,0,0,0-3.53,1.53,5.8,5.8,0,0,0-1.5,3.89Z"/><path class="cls-1" d="M259.45,350.89h2.93v3.16a6.78,6.78,0,0,1,1.75-2.25,4.6,4.6,0,0,1,3.24-1.32h.29l.7.07v3.25c-.19,0-.35-.06-.51-.07l-.5,0a4.38,4.38,0,0,0-3.57,1.5,5.17,5.17,0,0,0-1.25,3.44v10.53h-3.08Z"/><path class="cls-1" d="M271.64,345.78h3.11v5.11h2.92v2.51h-2.92v11.94a1.3,1.3,0,0,0,.65,1.29,2.86,2.86,0,0,0,1.19.18h.48a4.83,4.83,0,0,0,.6-.05v2.44a6.49,6.49,0,0,1-1.1.22,9.64,9.64,0,0,1-1.24.07,3.34,3.34,0,0,1-2.92-1.1,4.86,4.86,0,0,1-.77-2.86V353.4h-2.48v-2.51h2.48Z"/></svg>