<svg id="Layer_1" data-name="Layer 1" xmlns="http://www.w3.org/2000/svg" viewBox="0 0 300 600"><defs><style>.cls-1{fill:#001012;}</style></defs><title>text</title><path class="cls-1" d="M113.76,138.12h1.61v21.67H126v1.4H113.76Z"/><path class="cls-1" d="M129.19,139a1.4,1.4,0,1,1,1.4,1.37A1.34,1.34,0,0,1,129.19,139Zm.6,5.43h1.54v16.8h-1.54Z"/><path class="cls-1" d="M144.24,137.42a4.54,4.54,0,0,0-2-.49c-1.78,0-2.63,1.4-2.63,3.82v3.64h3.89v1.33h-3.89v15.47H138V145.72h-2.31v-1.19l2.31-.14v-3.75c0-3.32,1.51-5,4.17-5a6.23,6.23,0,0,1,2.45.56Z"/><path class="cls-1" d="M147,136h1.54v23.14c0,.74.32,1.08.74,1.08a2.71,2.71,0,0,0,.63-.07l.28,1.27a3.38,3.38,0,0,1-1.12.17c-1.36,0-2.07-.84-2.07-2.66Z"/><path class="cls-1" d="M154.71,139a1.4,1.4,0,1,1,1.39,1.37A1.34,1.34,0,0,1,154.71,139Zm.59,5.43h1.54v16.8H155.3Z"/><path class="cls-1" d="M164.4,160.56v-.14a3,3,0,0,1-1.47-2.7,4,4,0,0,1,1.82-3.08v-.14a6.27,6.27,0,0,1-2.1-4.62,5.77,5.77,0,0,1,5.91-5.91,6.06,6.06,0,0,1,2.21.42h5.71v1.29h-3.93a5.59,5.59,0,0,1,1.86,4.24,5.87,5.87,0,0,1-8.65,5.21,3,3,0,0,0-1.36,2.42c0,1.22.7,2.2,3.22,2.2h3.6c3.79,0,5.54,1.19,5.54,3.85,0,2.91-3.12,5.68-7.95,5.68-4.24,0-6.9-1.82-6.9-4.66A5.31,5.31,0,0,1,164.4,160.56ZM169,168c3.79,0,6.2-2.14,6.2-4.24,0-1.86-1.36-2.55-3.89-2.55h-3.6a10.57,10.57,0,0,1-2.1-.29,4.42,4.42,0,0,0-2.21,3.54C163.38,166.58,165.41,168,169,168Zm3.93-18.14a4.37,4.37,0,1,0-8.72,0,4.37,4.37,0,1,0,8.72,0Z"/><path class="cls-1" d="M185.5,151.77h7.71v1.37H185.5Z"/><path class="cls-1" d="M38.31,178h1.54v23.14c0,.74.32,1.08.74,1.08a2.71,2.71,0,0,0,.63-.07l.28,1.27a3.43,3.43,0,0,1-1.12.17c-1.37,0-2.07-.84-2.07-2.66Z"/><path class="cls-1" d="M52.52,186c4,0,6.44,2.83,6.44,7.77A8.86,8.86,0,0,1,58.9,195H46.78c.07,4.23,2.56,7.28,6.34,7.28a7.41,7.41,0,0,0,4.51-1.51l.64,1.19A9.34,9.34,0,0,1,53,203.61c-4.31,0-7.77-3.29-7.77-8.79S48.78,186,52.52,186Zm5,7.84c0-4.31-1.93-6.51-4.94-6.51s-5.43,2.48-5.78,6.51Z"/><path class="cls-1" d="M61.13,186.39h1.68l3.78,10.53c.53,1.61,1.16,3.29,1.68,4.83h.14c.56-1.54,1.16-3.22,1.72-4.83l3.78-10.53h1.57l-6.23,16.8H67.43Z"/><path class="cls-1" d="M85,186c4,0,6.44,2.83,6.44,7.77a7.61,7.61,0,0,1-.07,1.26H79.3c.07,4.23,2.55,7.28,6.33,7.28a7.46,7.46,0,0,0,4.52-1.51l.63,1.19a9.34,9.34,0,0,1-5.29,1.65c-4.3,0-7.77-3.29-7.77-8.79S81.29,186,85,186Zm5,7.84c0-4.31-1.93-6.51-4.94-6.51s-5.42,2.48-5.77,6.51Z"/><path class="cls-1" d="M96,186.39h1.33l.14,3.11h.1c1.12-2.06,2.77-3.53,4.76-3.53a3.46,3.46,0,0,1,1.68.35l-.35,1.4a3.65,3.65,0,0,0-1.54-.28c-1.5,0-3.29,1.15-4.58,4.3v11.45H96Z"/><path class="cls-1" d="M116.22,192.65c.07-2.55-.66-5.32-4-5.32a9.27,9.27,0,0,0-5.36,2l-.7-1.15a11.21,11.21,0,0,1,6.23-2.17c4,0,5.32,2.87,5.32,6.47v10.75h-1.29l-.18-2.17h-.07c-1.71,1.36-3.74,2.59-6,2.59-2.66,0-4.9-1.44-4.9-4.62C105.37,195.28,108.77,193.49,116.22,192.65Zm-5.7,9.63c1.92,0,3.64-.95,5.7-2.73v-5.71c-6.89.81-9.24,2.42-9.24,5.08C107,201.33,108.59,202.28,110.52,202.28Z"/><path class="cls-1" d="M123.78,186.39h1.33l.14,2.59h.11c1.71-1.72,3.46-3,5.77-3,3.47,0,5.08,2.1,5.08,6.44v10.78h-1.54V192.62c0-3.57-1.12-5.25-3.85-5.25-2,0-3.43,1-5.5,3.15v12.67h-1.54Z"/><path class="cls-1" d="M141.21,200.14a7.81,7.81,0,0,0,5.36,2.14c2.62,0,4-1.54,4-3.33,0-2.1-2.17-3-4.1-3.71-2.55-.91-5.35-1.92-5.35-4.79,0-2.45,1.92-4.48,5.42-4.48a7.78,7.78,0,0,1,4.8,1.75l-.84,1.08a6.36,6.36,0,0,0-4-1.5c-2.59,0-3.78,1.5-3.78,3,0,1.86,2,2.66,4,3.4,2.62,1,5.49,1.85,5.49,5.14,0,2.52-2,4.73-5.67,4.73a9.75,9.75,0,0,1-6.16-2.31Z"/><path class="cls-1" d="M162.49,186c4,0,6.44,2.83,6.44,7.77a7.61,7.61,0,0,1-.07,1.26H156.75c.07,4.23,2.56,7.28,6.34,7.28a7.43,7.43,0,0,0,4.51-1.51l.63,1.19a9.31,9.31,0,0,1-5.28,1.65c-4.31,0-7.77-3.29-7.77-8.79S158.75,186,162.49,186Zm5,7.84c0-4.31-1.92-6.51-4.93-6.51s-5.43,2.48-5.78,6.51Z"/><path class="cls-1" d="M173.48,186.39h1.33L175,189h.11c1.5-1.72,3.43-3,5.28-3A4.37,4.37,0,0,1,185,189.4c1.92-2.1,3.78-3.43,5.7-3.43,3.36,0,5,2.1,5,6.44v10.78h-1.57V192.62c0-3.57-1.19-5.25-3.75-5.25-1.57,0-3.18,1-5,3.15v12.67h-1.54V192.62c0-3.57-1.19-5.25-3.78-5.25q-2.25,0-5,3.15v12.67h-1.54Z"/><path class="cls-1" d="M208,186c4.06,0,7.56,3.22,7.56,8.85s-3.5,8.79-7.56,8.79-7.53-3.22-7.53-8.79S204,186,208,186Zm0,16.27c3.39,0,5.95-3,5.95-7.42s-2.56-7.49-5.95-7.49-5.92,3-5.92,7.49S204.63,202.24,208,202.24Z"/><path class="cls-1" d="M226.68,186a7.79,7.79,0,0,1,5.08,2.06l-.07-3.08V178h1.54v25.17H231.9l-.14-2.17h-.11a7.88,7.88,0,0,1-5.46,2.59c-4.23,0-7-3.12-7-8.79C219.23,189.4,222.69,186,226.68,186Zm-.28,16.27c1.86,0,3.5-1,5.29-2.76v-10a7.15,7.15,0,0,0-4.9-2.17c-3.36,0-5.92,3.26-5.92,7.49C220.87,199.27,222.83,202.24,226.4,202.24Z"/><path class="cls-1" d="M245.58,186c4,0,6.44,2.83,6.44,7.77A7.61,7.61,0,0,1,252,195H239.84c.07,4.23,2.56,7.28,6.34,7.28a7.43,7.43,0,0,0,4.51-1.51l.63,1.19a9.31,9.31,0,0,1-5.28,1.65c-4.31,0-7.77-3.29-7.77-8.79S241.84,186,245.58,186Zm5,7.84c0-4.31-1.92-6.51-4.93-6.51s-5.43,2.48-5.78,6.51Z"/><path class="cls-1" d="M256.57,178h1.54v23.14c0,.74.32,1.08.74,1.08a2.59,2.59,0,0,0,.62-.07l.29,1.27a3.45,3.45,0,0,1-1.13.17c-1.36,0-2.06-.84-2.06-2.66Z"/><path class="cls-1" d="M264.87,178h1.54v23.14c0,.74.31,1.08.73,1.08a2.71,2.71,0,0,0,.63-.07l.28,1.27a3.38,3.38,0,0,1-1.12.17c-1.37,0-2.06-.84-2.06-2.66Z"/><path class="cls-1" d="M43.71,221.42a4.57,4.57,0,0,0-2-.49c-1.79,0-2.63,1.4-2.63,3.82v3.64h3.89v1.33H39.05v15.47H37.51V229.72H35.2v-1.19l2.31-.14v-3.75c0-3.32,1.51-5,4.17-5a6.23,6.23,0,0,1,2.45.56Z"/><path class="cls-1" d="M52.25,228c4,0,7.56,3.22,7.56,8.85s-3.51,8.79-7.56,8.79-7.53-3.22-7.53-8.79S48.22,228,52.25,228Zm0,16.27c3.39,0,6-3,6-7.42s-2.56-7.49-6-7.49-5.92,3-5.92,7.49S48.85,244.24,52.25,244.24Z"/><path class="cls-1" d="M64.84,228.39h1.33l.14,3.11h.11c1.12-2.06,2.76-3.53,4.76-3.53a3.46,3.46,0,0,1,1.68.35l-.35,1.4a3.68,3.68,0,0,0-1.54-.28c-1.51,0-3.29,1.15-4.59,4.3v11.45H64.84Z"/><path class="cls-1" d="M81.71,242.14a7.81,7.81,0,0,0,5.36,2.14c2.62,0,4-1.54,4-3.33,0-2.1-2.17-3-4.1-3.71-2.55-.91-5.35-1.92-5.35-4.79C81.61,230,83.53,228,87,228a7.78,7.78,0,0,1,4.8,1.75L91,230.8a6.36,6.36,0,0,0-4-1.5c-2.59,0-3.78,1.5-3.78,3,0,1.86,2,2.66,4,3.4,2.62,1,5.49,1.85,5.49,5.14,0,2.52-2,4.73-5.67,4.73a9.75,9.75,0,0,1-6.16-2.31Z"/><path class="cls-1" d="M97.08,220h1.54v18.55h.07L107,228.39h1.79L103.31,235l6.37,10.15H108l-5.56-9-3.78,4.41v4.59H97.08Z"/><path class="cls-1" d="M113.32,228.39h1.33l.14,3.11h.1c1.12-2.06,2.77-3.53,4.76-3.53a3.46,3.46,0,0,1,1.68.35l-.35,1.4a3.65,3.65,0,0,0-1.54-.28c-1.5,0-3.29,1.15-4.58,4.3v11.45h-1.54Z"/><path class="cls-1" d="M130,228c4,0,6.44,2.83,6.44,7.77a7.61,7.61,0,0,1-.07,1.26H124.24c.07,4.23,2.55,7.28,6.33,7.28a7.46,7.46,0,0,0,4.52-1.51l.63,1.19a9.34,9.34,0,0,1-5.29,1.65c-4.3,0-7.77-3.29-7.77-8.79S126.23,228,130,228Zm5,7.84c0-4.31-1.93-6.51-4.94-6.51s-5.42,2.48-5.77,6.51Z"/><path class="cls-1" d="M147,228A7.79,7.79,0,0,1,152.1,230L152,227V220h1.54v25.17h-1.33L152.1,243H152a7.88,7.88,0,0,1-5.46,2.59c-4.23,0-7-3.12-7-8.79C139.57,231.4,143,228,147,228Zm-.28,16.27c1.86,0,3.5-1,5.29-2.76v-10a7.15,7.15,0,0,0-4.9-2.17c-3.36,0-5.92,3.26-5.92,7.49C141.21,241.27,143.17,244.24,146.74,244.24Z"/><path class="cls-1" d="M166.06,228a7.79,7.79,0,0,1,5.08,2.06l-.07-3.08V220h1.54v25.17h-1.33l-.14-2.17H171a7.88,7.88,0,0,1-5.46,2.59c-4.23,0-7-3.12-7-8.79C158.61,231.4,162.07,228,166.06,228Zm-.28,16.27c1.86,0,3.5-1,5.29-2.76v-10a7.15,7.15,0,0,0-4.9-2.17c-3.36,0-5.92,3.26-5.92,7.49C160.25,241.27,162.21,244.24,165.78,244.24Z"/><path class="cls-1" d="M185,228c4,0,6.44,2.83,6.44,7.77a7.61,7.61,0,0,1-.07,1.26H179.22c.07,4.23,2.56,7.28,6.34,7.28a7.43,7.43,0,0,0,4.51-1.51l.63,1.19a9.31,9.31,0,0,1-5.28,1.65c-4.31,0-7.77-3.29-7.77-8.79S181.22,228,185,228Zm5,7.84c0-4.31-1.92-6.51-4.93-6.51s-5.43,2.48-5.78,6.51Z"/><path class="cls-1" d="M196,228.39h1.33l.14,3.11h.11c1.12-2.06,2.76-3.53,4.76-3.53a3.46,3.46,0,0,1,1.68.35l-.35,1.4a3.68,3.68,0,0,0-1.54-.28c-1.51,0-3.29,1.15-4.59,4.3v11.45H196Z"/><path class="cls-1" d="M205.51,242.14a7.78,7.78,0,0,0,5.35,2.14c2.63,0,4-1.54,4-3.33,0-2.1-2.17-3-4.09-3.71-2.56-.91-5.36-1.92-5.36-4.79,0-2.45,1.93-4.48,5.43-4.48a7.75,7.75,0,0,1,4.79,1.75l-.84,1.08a6.35,6.35,0,0,0-4-1.5c-2.59,0-3.78,1.5-3.78,3,0,1.86,2,2.66,4,3.4,2.63,1,5.5,1.85,5.5,5.14,0,2.52-2,4.73-5.67,4.73a9.7,9.7,0,0,1-6.16-2.31Z"/><path class="cls-1" d="M220.21,251.42c2.06,0,3.46-1.89,4.3-4.44l.46-1.48-6.9-17.11h1.68L223.81,239c.53,1.4,1.19,3.22,1.82,4.69h.14c.53-1.47,1.09-3.29,1.54-4.69l3.61-10.57h1.57l-6.65,18.9c-.94,2.8-2.62,5.57-5.63,5.57a4.32,4.32,0,0,1-1.72-.35l.35-1.37A4,4,0,0,0,220.21,251.42Z"/><path class="cls-1" d="M242.19,228a7.77,7.77,0,0,1,5.07,2.06l-.07-3.08V220h1.54v25.17H247.4l-.14-2.17h-.1a7.9,7.9,0,0,1-5.46,2.59c-4.24,0-7-3.12-7-8.79C234.73,231.4,238.2,228,242.19,228Zm-.28,16.27c1.85,0,3.5-1,5.28-2.76v-10a7.11,7.11,0,0,0-4.9-2.17c-3.36,0-5.91,3.26-5.91,7.49C236.38,241.27,238.34,244.24,241.91,244.24Z"/><path class="cls-1" d="M261.23,228A7.77,7.77,0,0,1,266.3,230l-.07-3.08V220h1.54v25.17h-1.33L266.3,243h-.1a7.9,7.9,0,0,1-5.46,2.59c-4.24,0-7-3.12-7-8.79C253.77,231.4,257.24,228,261.23,228ZM261,244.24c1.85,0,3.5-1,5.28-2.76v-10a7.11,7.11,0,0,0-4.9-2.17c-3.36,0-5.91,3.26-5.91,7.49C255.42,241.27,257.38,244.24,261,244.24Z"/><path class="cls-1" d="M97.78,284.14a7.78,7.78,0,0,0,5.35,2.14c2.63,0,4-1.54,4-3.33,0-2.1-2.17-3-4.09-3.71-2.56-.91-5.36-1.92-5.36-4.79,0-2.45,1.93-4.48,5.43-4.48a7.75,7.75,0,0,1,4.79,1.75l-.84,1.08a6.35,6.35,0,0,0-4-1.5c-2.59,0-3.78,1.5-3.78,3,0,1.86,2,2.66,4,3.4,2.63,1,5.5,1.85,5.5,5.14,0,2.52-2,4.73-5.67,4.73a9.7,9.7,0,0,1-6.16-2.31Z"/><path class="cls-1" d="M119.27,270c4.06,0,7.56,3.22,7.56,8.85s-3.5,8.79-7.56,8.79-7.53-3.22-7.53-8.79S115.24,270,119.27,270Zm0,16.27c3.39,0,6-3,6-7.42s-2.56-7.49-6-7.49-5.92,3.05-5.92,7.49S115.87,286.24,119.27,286.24Z"/><path class="cls-1" d="M147.13,287a9.61,9.61,0,0,1-2.77.63c-3.22,0-4.16-2.07-4.16-5.08V271.72h-6.55v15.47h-1.54V271.72H129.8v-1.19l2.31-.14v-3.75c0-3.32,1.51-5,4.17-5a6.23,6.23,0,0,1,2.45.56l-.42,1.26a4.54,4.54,0,0,0-2-.49c-1.79,0-2.63,1.4-2.63,3.82v3.64h6.58l.21-4.87h1.3v4.87h4.9v1.33h-4.9v10.95c0,2.14.56,3.57,2.87,3.57a5.64,5.64,0,0,0,2.1-.52Z"/><path class="cls-1" d="M148.35,270.39H150l3,10.88c.42,1.54.81,3,1.16,4.48h.14c.38-1.5.8-2.94,1.22-4.48l3.05-10.88h1.85l3,10.88c.42,1.54.84,3,1.26,4.48h.14c.38-1.5.8-2.94,1.19-4.48l3-10.88h1.58l-4.83,16.8h-2l-2.94-10.43c-.49-1.61-.81-3.15-1.3-4.8h-.14c-.38,1.65-.8,3.26-1.33,4.87l-2.9,10.36h-1.86Z"/><path class="cls-1" d="M184.26,276.65c.07-2.55-.66-5.32-3.95-5.32a9.27,9.27,0,0,0-5.36,2l-.7-1.15a11.21,11.21,0,0,1,6.23-2.17c4,0,5.32,2.87,5.32,6.47v10.75h-1.29l-.18-2.17h-.07c-1.71,1.36-3.74,2.59-5.95,2.59-2.66,0-4.9-1.44-4.9-4.62C173.41,279.28,176.81,277.49,184.26,276.65Zm-5.7,9.63c1.92,0,3.64-.95,5.7-2.73v-5.71c-6.89.81-9.24,2.42-9.24,5.08C175,285.33,176.63,286.28,178.56,286.28Z"/><path class="cls-1" d="M191.82,270.39h1.33l.14,3.11h.11c1.12-2.06,2.76-3.53,4.76-3.53a3.46,3.46,0,0,1,1.68.35l-.35,1.4a3.68,3.68,0,0,0-1.54-.28c-1.51,0-3.29,1.15-4.59,4.3v11.45h-1.54Z"/><path class="cls-1" d="M208.48,270c4,0,6.44,2.83,6.44,7.77a7.61,7.61,0,0,1-.07,1.26H202.74c.07,4.23,2.56,7.28,6.34,7.28a7.43,7.43,0,0,0,4.51-1.51l.63,1.19a9.31,9.31,0,0,1-5.28,1.65c-4.31,0-7.77-3.29-7.77-8.79S204.74,270,208.48,270Zm5,7.84c0-4.31-1.92-6.51-4.93-6.51s-5.43,2.48-5.78,6.51Z"/></svg>