<svg id="Layer_1" data-name="Layer 1" xmlns="http://www.w3.org/2000/svg" viewBox="0 0 300 600"><defs><style>.cls-1{fill:#fff;}</style></defs><title>text</title><path class="cls-1" d="M93.18,133.51h6.06c4.34,0,7.26,1.47,7.26,5.79,0,4.14-3,6.09-7.26,6.09H95.7v7.8H93.18Zm5.73,9.84c3.45,0,5.09-1.26,5.09-4s-1.71-3.78-5.09-3.78H95.7v7.83Z"/><path class="cls-1" d="M115.11,138.25c3.57,0,6.75,2.79,6.75,7.68s-3.18,7.62-6.75,7.62-6.75-2.79-6.75-7.62S111.54,138.25,115.11,138.25Zm0,13.26c2.52,0,4.2-2.25,4.2-5.58s-1.68-5.64-4.2-5.64-4.2,2.28-4.2,5.64S112.62,151.51,115.11,151.51Z"/><path class="cls-1" d="M123.84,138.61h2.52l2.16,8.43c.33,1.38.6,2.7.87,4.05h.12c.33-1.35.63-2.7,1-4.05l2.25-8.43h2.4l2.28,8.43c.36,1.38.69,2.7,1,4.05h.12c.33-1.35.6-2.67.89-4.05l2.14-8.43h2.34L140,153.19h-3l-2.1-7.83c-.36-1.38-.63-2.73-1-4.2h-.12c-.33,1.47-.63,2.85-1,4.23l-2,7.8h-2.88Z"/><path class="cls-1" d="M152.46,138.25c3.71,0,5.81,2.67,5.81,6.84a7.61,7.61,0,0,1-.09,1.35h-9.83c.18,3.15,2.07,5.13,4.86,5.13a6.58,6.58,0,0,0,3.62-1.14l.88,1.62a8.71,8.71,0,0,1-4.8,1.5c-3.91,0-7-2.85-7-7.62S149.13,138.25,152.46,138.25Zm3.66,6.57c0-3-1.33-4.62-3.61-4.62-2,0-3.89,1.68-4.19,4.62Z"/><path class="cls-1" d="M161.88,131.83h2.45v18.6c0,.78.34,1.08.7,1.08a2.15,2.15,0,0,0,.54-.06l.33,1.86a3.31,3.31,0,0,1-1.41.24c-1.86,0-2.61-1.17-2.61-3.3Z"/><path class="cls-1" d="M175.58,131.83H178v5.82l-.09,3c1.38-1.32,2.85-2.4,4.86-2.4,3.06,0,4.44,2,4.44,5.7v9.24h-2.46v-8.91c0-2.73-.84-3.9-2.76-3.9-1.5,0-2.52.78-4,2.25v10.56h-2.46Z"/><path class="cls-1" d="M200.15,144c0-1.86-.63-3.66-3-3.66a7.84,7.84,0,0,0-4.35,1.56l-1-1.71a10.82,10.82,0,0,1,5.73-1.89c3.57,0,5.07,2.37,5.07,6v8.94h-2l-.21-1.74h-.06a7.92,7.92,0,0,1-4.83,2.1,4,4,0,0,1-4.29-4.14C191.18,146.23,193.94,144.64,200.15,144Zm-4,7.62c1.41,0,2.58-.69,4-1.95v-4.05c-4.89.6-6.54,1.8-6.54,3.66C193.61,150.88,194.72,151.57,196.16,151.57Z"/><path class="cls-1" d="M206.87,149.89a6.56,6.56,0,0,0,4.29,1.74c1.92,0,2.88-1,2.88-2.28,0-1.5-1.74-2.16-3.33-2.76-2.07-.75-4.35-1.74-4.35-4.2s1.86-4.14,5-4.14a7.28,7.28,0,0,1,4.53,1.65l-1.17,1.56a5.41,5.41,0,0,0-3.33-1.29c-1.83,0-2.67,1-2.67,2.1,0,1.35,1.59,1.89,3.24,2.52,2.1.78,4.44,1.65,4.44,4.41,0,2.37-1.89,4.35-5.34,4.35a8.78,8.78,0,0,1-5.43-2Z"/><path class="cls-1" d="M64.69,185.89A6.56,6.56,0,0,0,69,187.63c1.92,0,2.88-1,2.88-2.28,0-1.5-1.74-2.16-3.33-2.76-2.07-.75-4.35-1.74-4.35-4.2s1.86-4.14,5-4.14a7.28,7.28,0,0,1,4.53,1.65l-1.17,1.56a5.41,5.41,0,0,0-3.33-1.29c-1.83,0-2.67,1-2.67,2.1,0,1.35,1.59,1.89,3.24,2.52,2.1.78,4.44,1.65,4.44,4.41,0,2.37-1.89,4.35-5.34,4.35a8.78,8.78,0,0,1-5.43-2Z"/><path class="cls-1" d="M78.07,176.62H75.91v-1.86l2.28-.15.3-4.08h2.07v4.08h3.93v2H80.56v8.1c0,1.8.57,2.82,2.25,2.82a5.3,5.3,0,0,0,1.65-.39l.48,1.86a9,9,0,0,1-2.7.54c-3.12,0-4.17-2-4.17-4.86Z"/><path class="cls-1" d="M95.5,180c0-1.86-.63-3.66-3-3.66a7.84,7.84,0,0,0-4.35,1.56l-1-1.71a10.82,10.82,0,0,1,5.73-1.89c3.57,0,5.07,2.37,5.07,6v8.94h-2l-.21-1.74h-.06a7.92,7.92,0,0,1-4.83,2.1,4,4,0,0,1-4.29-4.14C86.53,182.23,89.29,180.64,95.5,180Zm-4,7.62c1.41,0,2.58-.69,4-1.95v-4.05c-4.89.6-6.54,1.8-6.54,3.66C89,186.88,90.07,187.57,91.51,187.57Z"/><path class="cls-1" d="M103,176.62h-2.16v-1.86l2.28-.15.3-4.08h2.07v4.08h3.93v2h-3.93v8.1c0,1.8.57,2.82,2.25,2.82a5.3,5.3,0,0,0,1.65-.39l.48,1.86a9,9,0,0,1-2.7.54c-3.12,0-4.17-2-4.17-4.86Z"/><path class="cls-1" d="M117.91,174.25c3.72,0,5.82,2.67,5.82,6.84a8.69,8.69,0,0,1-.09,1.35H113.8c.18,3.15,2.07,5.13,4.86,5.13a6.59,6.59,0,0,0,3.63-1.14l.87,1.62a8.68,8.68,0,0,1-4.8,1.5c-3.9,0-7-2.85-7-7.62S114.58,174.25,117.91,174.25Zm3.66,6.57c0-3-1.32-4.62-3.6-4.62-2,0-3.9,1.68-4.2,4.62Z"/><path class="cls-1" d="M139.06,174.25c3.57,0,6.75,2.79,6.75,7.68s-3.18,7.62-6.75,7.62-6.75-2.79-6.75-7.62S135.49,174.25,139.06,174.25Zm0,13.26c2.52,0,4.2-2.25,4.2-5.58s-1.68-5.64-4.2-5.64-4.2,2.28-4.2,5.64S136.57,187.51,139.06,187.51Z"/><path class="cls-1" d="M156.22,169.84a4.1,4.1,0,0,0-1.65-.36c-1.38,0-2,1-2,2.82v2.31h3.09v2h-3.09v12.57h-2.46V176.62h-2v-1.86l2-.15V172.3c0-3,1.35-4.83,4.26-4.83a6.61,6.61,0,0,1,2.43.48Z"/><path class="cls-1" d="M164.89,176.62h-2.16v-1.86l2.28-.15.3-4.08h2.07v4.08h3.93v2h-3.93v8.1c0,1.8.57,2.82,2.25,2.82a5.3,5.3,0,0,0,1.65-.39l.48,1.86a9,9,0,0,1-2.7.54c-3.12,0-4.17-2-4.17-4.86Z"/><path class="cls-1" d="M174.61,167.83h2.46v5.82l-.09,3c1.38-1.32,2.85-2.4,4.86-2.4,3.06,0,4.44,2,4.44,5.7v9.24h-2.46v-8.91c0-2.73-.84-3.9-2.76-3.9-1.5,0-2.52.78-4,2.25v10.56h-2.46Z"/><path class="cls-1" d="M196.39,174.25c3.72,0,5.82,2.67,5.82,6.84a8.69,8.69,0,0,1-.09,1.35h-9.84c.18,3.15,2.07,5.13,4.86,5.13a6.59,6.59,0,0,0,3.63-1.14l.87,1.62a8.68,8.68,0,0,1-4.8,1.5c-3.9,0-7-2.85-7-7.62S193.06,174.25,196.39,174.25Zm3.66,6.57c0-3-1.32-4.62-3.6-4.62-2,0-3.9,1.68-4.2,4.62Z"/><path class="cls-1" d="M220.12,180c0-1.86-.63-3.66-3-3.66a7.84,7.84,0,0,0-4.35,1.56l-1-1.71a10.82,10.82,0,0,1,5.73-1.89c3.57,0,5.07,2.37,5.07,6v8.94h-2l-.21-1.74h-.06a7.92,7.92,0,0,1-4.83,2.1,4,4,0,0,1-4.29-4.14C211.15,182.23,213.91,180.64,220.12,180Zm-4,7.62c1.41,0,2.58-.69,4-1.95v-4.05c-4.89.6-6.54,1.8-6.54,3.66C213.58,186.88,214.69,187.57,216.13,187.57Z"/><path class="cls-1" d="M227.23,174.61h2l.21,2.64h.09c1-1.83,2.49-3,4.14-3a3.62,3.62,0,0,1,1.56.3l-.48,2.16a4.08,4.08,0,0,0-1.41-.24c-1.23,0-2.7.9-3.69,3.36v9.36h-2.46Z"/><path class="cls-1" d="M238.06,176.62H235.9v-1.86l2.28-.15.3-4.08h2.07v4.08h3.93v2h-3.93v8.1c0,1.8.57,2.82,2.25,2.82a5.3,5.3,0,0,0,1.65-.39l.48,1.86a9,9,0,0,1-2.7.54c-3.12,0-4.17-2-4.17-4.86Z"/><path class="cls-1" d="M85.84,221.89a6.56,6.56,0,0,0,4.29,1.74c1.92,0,2.88-1,2.88-2.28,0-1.5-1.74-2.16-3.33-2.76-2.07-.75-4.35-1.74-4.35-4.2s1.86-4.14,5-4.14a7.28,7.28,0,0,1,4.53,1.65l-1.17,1.56a5.41,5.41,0,0,0-3.33-1.29c-1.83,0-2.67,1-2.67,2.1,0,1.35,1.59,1.89,3.24,2.52,2.1.78,4.44,1.65,4.44,4.41,0,2.37-1.89,4.35-5.34,4.35a8.78,8.78,0,0,1-5.43-2Z"/><path class="cls-1" d="M104.47,210.25c3.57,0,6.75,2.79,6.75,7.68s-3.18,7.62-6.75,7.62-6.75-2.79-6.75-7.62S100.9,210.25,104.47,210.25Zm0,13.26c2.52,0,4.2-2.25,4.2-5.58s-1.68-5.64-4.2-5.64-4.2,2.28-4.2,5.64S102,223.51,104.47,223.51Z"/><path class="cls-1" d="M130,225a9,9,0,0,1-2.7.54c-3.12,0-4.17-2-4.17-4.86v-8.07h-5.22v12.57h-2.46V212.62h-2v-1.86l2-.15V208.3c0-3,1.35-4.83,4.26-4.83a6.61,6.61,0,0,1,2.43.48l-.54,1.89a4.1,4.1,0,0,0-1.65-.36c-1.38,0-2,1-2,2.82v2.31h5.34l.3-4.08h2v4.08h4v2h-4v8.1c0,1.8.6,2.82,2.28,2.82a5.3,5.3,0,0,0,1.65-.39Z"/><path class="cls-1" d="M131.14,210.61h2.52l2.16,8.43c.33,1.38.6,2.7.87,4.05h.12c.33-1.35.63-2.7,1-4.05l2.25-8.43h2.4l2.28,8.43c.36,1.38.69,2.7,1,4.05h.12c.33-1.35.6-2.67.9-4.05l2.13-8.43h2.34l-3.9,14.58h-3l-2.1-7.83c-.36-1.38-.63-2.73-1-4.2h-.12c-.33,1.47-.63,2.85-1,4.23l-2,7.8h-2.88Z"/><path class="cls-1" d="M162.37,216c0-1.86-.63-3.66-3-3.66a7.84,7.84,0,0,0-4.35,1.56l-1-1.71a10.82,10.82,0,0,1,5.73-1.89c3.57,0,5.07,2.37,5.07,6v8.94h-2l-.21-1.74h-.06a7.92,7.92,0,0,1-4.83,2.1,4,4,0,0,1-4.29-4.14C153.4,218.23,156.16,216.64,162.37,216Zm-4,7.62c1.41,0,2.58-.69,4-1.95v-4.05c-4.89.6-6.54,1.8-6.54,3.66C155.83,222.88,156.94,223.57,158.38,223.57Z"/><path class="cls-1" d="M169.48,210.61h2l.21,2.64h.09c1-1.83,2.49-3,4.14-3a3.62,3.62,0,0,1,1.56.3l-.48,2.16a4.08,4.08,0,0,0-1.41-.24c-1.23,0-2.7.9-3.69,3.36v9.36h-2.46Z"/><path class="cls-1" d="M185.05,210.25c3.72,0,5.82,2.67,5.82,6.84a8.69,8.69,0,0,1-.09,1.35h-9.84c.18,3.15,2.07,5.13,4.86,5.13a6.59,6.59,0,0,0,3.63-1.14l.87,1.62a8.68,8.68,0,0,1-4.8,1.5c-3.9,0-7-2.85-7-7.62S181.72,210.25,185.05,210.25Zm3.66,6.57c0-3-1.32-4.62-3.6-4.62-2,0-3.9,1.68-4.2,4.62Z"/><path class="cls-1" d="M201,212.62h-2.16v-1.86l2.28-.15.3-4.08h2.07v4.08h3.93v2h-3.93v8.1c0,1.8.57,2.82,2.25,2.82a5.3,5.3,0,0,0,1.65-.39l.48,1.86a9,9,0,0,1-2.7.54c-3.12,0-4.17-2-4.17-4.86Z"/><path class="cls-1" d="M216,210.25c3.57,0,6.75,2.79,6.75,7.68s-3.18,7.62-6.75,7.62-6.75-2.79-6.75-7.62S212.47,210.25,216,210.25Zm0,13.26c2.52,0,4.2-2.25,4.2-5.58s-1.68-5.64-4.2-5.64-4.2,2.28-4.2,5.64S213.55,223.51,216,223.51Z"/><path class="cls-1" d="M57.64,252c0-1.86-.63-3.66-3-3.66a7.84,7.84,0,0,0-4.35,1.56l-1-1.71A10.82,10.82,0,0,1,55,246.25c3.57,0,5.07,2.37,5.07,6v8.94h-2l-.21-1.74h-.06a7.92,7.92,0,0,1-4.83,2.1,4,4,0,0,1-4.29-4.14C48.67,254.23,51.43,252.64,57.64,252Zm-4,7.62c1.41,0,2.58-.69,4-1.95v-4.05c-4.89.6-6.54,1.8-6.54,3.66C51.1,258.88,52.21,259.57,53.65,259.57Z"/><path class="cls-1" d="M64.54,246.61H67v8.91c0,2.73.81,3.9,2.73,3.9,1.5,0,2.55-.75,3.93-2.46V246.61h2.46v14.58h-2l-.21-2.28h-.09c-1.35,1.59-2.79,2.64-4.8,2.64-3.09,0-4.47-2-4.47-5.7Z"/><path class="cls-1" d="M81.49,248.62H79.33v-1.86l2.28-.15.3-4.08H84v4.08h3.93v2H84v8.1c0,1.8.57,2.82,2.25,2.82a5.3,5.3,0,0,0,1.65-.39l.48,1.86a9,9,0,0,1-2.7.54c-3.12,0-4.17-2-4.17-4.86Z"/><path class="cls-1" d="M96.58,246.25c3.57,0,6.75,2.79,6.75,7.68s-3.18,7.62-6.75,7.62-6.75-2.79-6.75-7.62S93,246.25,96.58,246.25Zm0,13.26c2.52,0,4.2-2.25,4.2-5.58s-1.68-5.64-4.2-5.64-4.2,2.28-4.2,5.64S94.09,259.51,96.58,259.51Z"/><path class="cls-1" d="M107.17,246.61h2l.21,2.1h.09a6.41,6.41,0,0,1,4.53-2.46,3.83,3.83,0,0,1,4,2.79c1.53-1.65,3-2.79,4.8-2.79,3,0,4.44,2,4.44,5.7v9.24h-2.46v-8.91c0-2.73-.87-3.9-2.7-3.9-1.14,0-2.31.75-3.66,2.25v10.56H116v-8.91c0-2.73-.87-3.9-2.73-3.9-1.08,0-2.31.75-3.66,2.25v10.56h-2.46Z"/><path class="cls-1" d="M140.29,252c0-1.86-.63-3.66-3-3.66a7.84,7.84,0,0,0-4.35,1.56l-1-1.71a10.82,10.82,0,0,1,5.73-1.89c3.57,0,5.07,2.37,5.07,6v8.94h-2l-.21-1.74h-.06a7.92,7.92,0,0,1-4.83,2.1,4,4,0,0,1-4.29-4.14C131.32,254.23,134.08,252.64,140.29,252Zm-4,7.62c1.41,0,2.58-.69,4-1.95v-4.05c-4.89.6-6.54,1.8-6.54,3.66C133.75,258.88,134.86,259.57,136.3,259.57Z"/><path class="cls-1" d="M147.82,248.62h-2.16v-1.86l2.28-.15.3-4.08h2.07v4.08h3.93v2h-3.93v8.1c0,1.8.57,2.82,2.25,2.82a5.3,5.3,0,0,0,1.65-.39l.48,1.86a9,9,0,0,1-2.7.54c-3.12,0-4.17-2-4.17-4.86Z"/><path class="cls-1" d="M162.7,246.25c3.72,0,5.82,2.67,5.82,6.84a8.69,8.69,0,0,1-.09,1.35h-9.84c.18,3.15,2.07,5.13,4.86,5.13a6.59,6.59,0,0,0,3.63-1.14l.87,1.62a8.68,8.68,0,0,1-4.8,1.5c-3.9,0-7-2.85-7-7.62S159.37,246.25,162.7,246.25Zm3.66,6.57c0-3-1.32-4.62-3.6-4.62-2,0-3.9,1.68-4.2,4.62Z"/><path class="cls-1" d="M183.64,246.25c3.72,0,5.82,2.67,5.82,6.84a8.69,8.69,0,0,1-.09,1.35h-9.84c.18,3.15,2.07,5.13,4.86,5.13a6.59,6.59,0,0,0,3.63-1.14l.87,1.62a8.68,8.68,0,0,1-4.8,1.5c-3.9,0-7-2.85-7-7.62S180.31,246.25,183.64,246.25Zm3.66,6.57c0-3-1.32-4.62-3.6-4.62-2,0-3.9,1.68-4.2,4.62Z"/><path class="cls-1" d="M193.06,246.61h2l.21,2.1h.09a6.87,6.87,0,0,1,4.89-2.46c3.06,0,4.44,2,4.44,5.7v9.24h-2.46v-8.91c0-2.73-.84-3.9-2.76-3.9-1.5,0-2.52.78-4,2.25v10.56h-2.46Z"/><path class="cls-1" d="M214.93,246.25c3.72,0,5.82,2.67,5.82,6.84a8.69,8.69,0,0,1-.09,1.35h-9.84c.18,3.15,2.07,5.13,4.86,5.13a6.59,6.59,0,0,0,3.63-1.14l.87,1.62a8.68,8.68,0,0,1-4.8,1.5c-3.9,0-7-2.85-7-7.62S211.6,246.25,214.93,246.25Zm3.66,6.57c0-3-1.32-4.62-3.6-4.62-2,0-3.9,1.68-4.2,4.62Z"/><path class="cls-1" d="M224.35,246.61h2l.21,2.64h.09c1-1.83,2.49-3,4.14-3a3.62,3.62,0,0,1,1.56.3l-.48,2.16a4.08,4.08,0,0,0-1.41-.24c-1.23,0-2.7.9-3.69,3.36v9.36h-2.46Z"/><path class="cls-1" d="M235.48,260.68v-.12a2.69,2.69,0,0,1-1.29-2.37,3.42,3.42,0,0,1,1.59-2.7v-.12a5.15,5.15,0,0,1,3.6-9.12,5.82,5.82,0,0,1,2.07.36h5.07v1.89h-3a4.23,4.23,0,0,1,1.2,3,5,5,0,0,1-5.34,5.07,5.09,5.09,0,0,1-2.19-.51,2.21,2.21,0,0,0-.93,1.74c0,.93.6,1.59,2.58,1.59h2.82c3.39,0,5.1,1.05,5.1,3.48,0,2.7-2.85,5-7.38,5-3.57,0-6-1.41-6-3.93A4.21,4.21,0,0,1,235.48,260.68Zm4.26,5.52c2.79,0,4.62-1.44,4.62-3,0-1.35-1.05-1.8-2.94-1.8H238.9a7.1,7.1,0,0,1-1.89-.24,3.07,3.07,0,0,0-1.5,2.46C235.51,265.21,237.1,266.2,239.74,266.2Zm2.73-14.76a3.1,3.1,0,1,0-6.18,0,3.11,3.11,0,1,0,6.18,0Z"/><path class="cls-1" d="M249.58,265.42c1.65,0,2.7-1.32,3.3-3.12l.33-1.08-5.85-14.61h2.55l3,8.07c.45,1.26,1,2.76,1.41,4.11h.12c.42-1.32.84-2.82,1.23-4.11l2.61-8.07h2.4l-5.49,15.78c-1,2.88-2.52,5.07-5.46,5.07a4.84,4.84,0,0,1-1.71-.3l.48-2A4.29,4.29,0,0,0,249.58,265.42Z"/><path class="cls-1" d="M52,288c0-1.86-.63-3.66-3-3.66a7.84,7.84,0,0,0-4.35,1.56l-1-1.71a10.82,10.82,0,0,1,5.73-1.89c3.57,0,5.07,2.37,5.07,6v8.94h-2l-.21-1.74h-.06a7.92,7.92,0,0,1-4.83,2.1A4,4,0,0,1,43,293.41C43,290.23,45.78,288.64,52,288Zm-4,7.62c1.41,0,2.58-.69,4-1.95v-4.05c-4.89.6-6.54,1.8-6.54,3.66C45.45,294.88,46.56,295.57,48,295.57Z"/><path class="cls-1" d="M58.71,293.89A6.56,6.56,0,0,0,63,295.63c1.92,0,2.88-1,2.88-2.28,0-1.5-1.74-2.16-3.33-2.76-2.07-.75-4.35-1.74-4.35-4.2s1.86-4.14,5-4.14a7.28,7.28,0,0,1,4.53,1.65l-1.17,1.56a5.41,5.41,0,0,0-3.33-1.29c-1.83,0-2.67,1-2.67,2.1,0,1.35,1.59,1.89,3.24,2.52,2.1.78,4.44,1.65,4.44,4.41,0,2.37-1.89,4.35-5.34,4.35a8.78,8.78,0,0,1-5.43-2Z"/><path class="cls-1" d="M71.28,293.89a6.56,6.56,0,0,0,4.29,1.74c1.92,0,2.88-1,2.88-2.28,0-1.5-1.74-2.16-3.33-2.76-2.07-.75-4.35-1.74-4.35-4.2s1.86-4.14,5-4.14a7.28,7.28,0,0,1,4.53,1.65l-1.17,1.56a5.41,5.41,0,0,0-3.33-1.29c-1.83,0-2.67,1-2.67,2.1,0,1.35,1.59,1.89,3.24,2.52,2.1.78,4.44,1.65,4.44,4.41,0,2.37-1.89,4.35-5.34,4.35a8.78,8.78,0,0,1-5.43-2Z"/><path class="cls-1" d="M89.7,282.25c3.72,0,5.82,2.67,5.82,6.84a8.69,8.69,0,0,1-.09,1.35H85.59c.18,3.15,2.07,5.13,4.86,5.13a6.59,6.59,0,0,0,3.63-1.14l.87,1.62a8.68,8.68,0,0,1-4.8,1.5c-3.9,0-7-2.85-7-7.62S86.37,282.25,89.7,282.25Zm3.66,6.57c0-3-1.32-4.62-3.6-4.62-2,0-3.9,1.68-4.2,4.62Z"/><path class="cls-1" d="M99.12,284.62H97v-1.86l2.28-.15.3-4.08h2.07v4.08h3.93v2h-3.93v8.1c0,1.8.57,2.82,2.25,2.82a5.17,5.17,0,0,0,1.64-.39L106,297a9.06,9.06,0,0,1-2.7.54c-3.12,0-4.17-2-4.17-4.86Z"/><path class="cls-1" d="M120.57,282.25c3.56,0,6.74,2.79,6.74,7.68s-3.18,7.62-6.74,7.62-6.75-2.79-6.75-7.62S117,282.25,120.57,282.25Zm0,13.26c2.51,0,4.19-2.25,4.19-5.58s-1.68-5.64-4.19-5.64-4.2,2.28-4.2,5.64S118.08,295.51,120.57,295.51Z"/><path class="cls-1" d="M133.62,298.42v4.92h-2.46V282.61h2l.21,1.68h.09a7.49,7.49,0,0,1,4.64-2c3.75,0,5.76,2.91,5.76,7.44,0,4.95-3,7.86-6.3,7.86a6.78,6.78,0,0,1-4-1.68Zm3.56-2.94c2.4,0,4.17-2.19,4.17-5.79,0-3.21-1.08-5.37-3.84-5.37-1.22,0-2.46.69-3.89,2V294A5.73,5.73,0,0,0,137.18,295.48Z"/><path class="cls-1" d="M148.22,284.62h-2.15v-1.86l2.27-.15.3-4.08h2.07v4.08h3.93v2h-3.93v8.1c0,1.8.58,2.82,2.25,2.82a5.3,5.3,0,0,0,1.65-.39l.48,1.86a9,9,0,0,1-2.7.54c-3.12,0-4.17-2-4.17-4.86Z"/><path class="cls-1" d="M157.5,278a1.71,1.71,0,0,1,3.42,0,1.71,1.71,0,0,1-3.42,0Zm.45,4.59h2.46v14.58H158Z"/><path class="cls-1" d="M165.32,282.61h2l.21,2.1h.09a6.41,6.41,0,0,1,4.53-2.46,3.83,3.83,0,0,1,4,2.79c1.53-1.65,3-2.79,4.8-2.79,3,0,4.44,2,4.44,5.7v9.24H183v-8.91c0-2.73-.87-3.9-2.7-3.9-1.14,0-2.31.75-3.66,2.25v10.56h-2.46v-8.91c0-2.73-.87-3.9-2.73-3.9-1.08,0-2.31.75-3.66,2.25v10.56h-2.46Z"/><path class="cls-1" d="M189.74,278a1.71,1.71,0,0,1,3.42,0,1.71,1.71,0,0,1-3.42,0Zm.45,4.59h2.46v14.58h-2.46Z"/><path class="cls-1" d="M196,295.87l7.68-11.25h-6.84v-2h10v1.32l-7.68,11.25h7.92v2H196Z"/><path class="cls-1" d="M217.88,288c0-1.86-.63-3.66-3-3.66a7.84,7.84,0,0,0-4.35,1.56l-1-1.71a10.82,10.82,0,0,1,5.73-1.89c3.57,0,5.07,2.37,5.07,6v8.94h-2l-.21-1.74H218a7.92,7.92,0,0,1-4.83,2.1,4,4,0,0,1-4.29-4.14C208.91,290.23,211.67,288.64,217.88,288Zm-4,7.62c1.41,0,2.58-.69,4-1.95v-4.05c-4.89.6-6.54,1.8-6.54,3.66C211.34,294.88,212.45,295.57,213.89,295.57Z"/><path class="cls-1" d="M225.41,284.62h-2.16v-1.86l2.28-.15.3-4.08h2.07v4.08h3.93v2H227.9v8.1c0,1.8.57,2.82,2.25,2.82a5.3,5.3,0,0,0,1.65-.39l.48,1.86a9,9,0,0,1-2.7.54c-3.12,0-4.17-2-4.17-4.86Z"/><path class="cls-1" d="M234.68,278a1.71,1.71,0,0,1,3.42,0,1.71,1.71,0,0,1-3.42,0Zm.45,4.59h2.46v14.58h-2.46Z"/><path class="cls-1" d="M248.18,282.25c3.57,0,6.75,2.79,6.75,7.68s-3.18,7.62-6.75,7.62-6.75-2.79-6.75-7.62S244.61,282.25,248.18,282.25Zm0,13.26c2.52,0,4.2-2.25,4.2-5.58s-1.68-5.64-4.2-5.64-4.2,2.28-4.2,5.64S245.69,295.51,248.18,295.51Z"/><path class="cls-1" d="M258.77,282.61h2l.21,2.1h.09a6.87,6.87,0,0,1,4.89-2.46c3.06,0,4.44,2,4.44,5.7v9.24H268v-8.91c0-2.73-.84-3.9-2.76-3.9-1.5,0-2.52.78-4,2.25v10.56h-2.46Z"/></svg>