<svg id="Layer_1" data-name="Layer 1" xmlns="http://www.w3.org/2000/svg" viewBox="0 0 160 600"><defs><style>.cls-1{fill:#fff;}</style></defs><title>text</title><path class="cls-1" d="M34.66,120.88v13.31c0,.54-.36.81-1,.81s-1-.27-1-.81V128.1H25.37v6.09c0,.54-.35.81-1,.81s-1-.27-1-.81V120.88c0-.55.35-.83,1-.83s1,.28,1,.83v5.34h7.22v-5.34c0-.55.34-.83,1-.83S34.65,120.33,34.66,120.88Z"/><path class="cls-1" d="M42.78,135.11a1.72,1.72,0,0,1-1.1-.37,2.06,2.06,0,0,1-.7-.93L37.72,125a2.25,2.25,0,0,0-.08-.37c0-.54.34-.81,1-.8a1,1,0,0,1,1,.6l3.08,8.64h.11l3.09-8.64q.23-.6,1.11-.6c.59,0,.89.27.89.8,0,0,0,.14-.07.37l-3.26,8.77a1.94,1.94,0,0,1-.7.94A1.85,1.85,0,0,1,42.78,135.11Z"/><path class="cls-1" d="M49.91,129.53a14.07,14.07,0,0,1,.25-3,3.21,3.21,0,0,1,2.45-2.65,10.42,10.42,0,0,1,2.4-.22,10.3,10.3,0,0,1,2.4.22,3.2,3.2,0,0,1,1.56.88,3.64,3.64,0,0,1,.91,1.77,17.71,17.71,0,0,1,0,5.93,3.22,3.22,0,0,1-.92,1.7,3.44,3.44,0,0,1-1.55.8,14.87,14.87,0,0,1-4.8,0,3.33,3.33,0,0,1-1.56-.8,3.1,3.1,0,0,1-.9-1.72A14.31,14.31,0,0,1,49.91,129.53Zm2.31-2.63A6,6,0,0,0,52,129c0,1,0,1.75.08,2.33a2.86,2.86,0,0,0,.58,1.52,1.83,1.83,0,0,0,1.35.46c.22,0,.57,0,1,0,1.35,0,2.14-.16,2.38-.48a3.09,3.09,0,0,0,.59-1.53c.05-.55.08-1.13.08-1.74,0-1.78-.17-2.86-.5-3.24a3.32,3.32,0,0,0-.4-.42,2.72,2.72,0,0,0-1.61-.31c-.83,0-1.36,0-1.58,0a1.74,1.74,0,0,0-1.34.47A5.48,5.48,0,0,0,52.22,126.9Z"/><path class="cls-1" d="M65.17,128.46v5.73c0,.54-.34.81-1,.81s-1-.27-1-.81v-6a7.21,7.21,0,0,1,.37-2.86,4,4,0,0,1,.68-1c.49-.45,1.73-.67,3.7-.67a6.5,6.5,0,0,1,2,.2.73.73,0,0,1,.51.73,1.09,1.09,0,0,1-.28.8,1,1,0,0,1-.71.26l-1.52-.1a6.9,6.9,0,0,0-1.76.13,1.75,1.75,0,0,0-.52.26,2.16,2.16,0,0,0-.24.52,2.76,2.76,0,0,0-.15.81C65.17,127.57,65.17,128,65.17,128.46Z"/><path class="cls-1" d="M82.19,120.42v9.11a14.31,14.31,0,0,1-.24,2.94,3.2,3.2,0,0,1-.91,1.71,3.37,3.37,0,0,1-1.53.8,11.43,11.43,0,0,1-2.39.2,11.78,11.78,0,0,1-2.4-.19,3.25,3.25,0,0,1-1.55-.8,3.11,3.11,0,0,1-.91-1.72,15.88,15.88,0,0,1-.24-2.94,14.07,14.07,0,0,1,.25-3,3.22,3.22,0,0,1,2.45-2.65,11.79,11.79,0,0,1,2.65-.22,6.9,6.9,0,0,1,2.76.45v-3.71c0-.55.34-.83,1-.83S82.19,119.87,82.19,120.42Zm-7.86,6.48a6.09,6.09,0,0,0-.24,2.06c0,1,0,1.75.08,2.33a2.78,2.78,0,0,0,.58,1.52,1.78,1.78,0,0,0,1.34.46c.23,0,.57,0,1,0,1.35,0,2.14-.16,2.38-.48a2.92,2.92,0,0,0,.59-1.53,16.13,16.13,0,0,0,.08-1.74c0-1.78-.17-2.86-.5-3.24a2.74,2.74,0,0,0-.39-.42,2.78,2.78,0,0,0-1.62-.31c-.83,0-1.35,0-1.58,0-.7,0-1.15.2-1.33.47A6.37,6.37,0,0,0,74.33,126.9Z"/><path class="cls-1" d="M86.5,125.87c-.48,0-.72-.29-.72-.85a.94.94,0,0,1,.72-1,16.07,16.07,0,0,1,3.72-.3c1.74,0,2.92.28,3.53.83a3.75,3.75,0,0,1,.93,2.9v4.43c0,1.39-.33,2.29-1,2.71a8.07,8.07,0,0,1-3.87.63,7.85,7.85,0,0,1-3.83-.63c-.65-.42-1-1.32-1-2.69a4.08,4.08,0,0,1,.75-2.84q.75-.79,3.06-.78h3.82v-1.19a1.3,1.3,0,0,0-.53-1.17,4,4,0,0,0-1.88-.31,15.75,15.75,0,0,0-2.34.15A8.05,8.05,0,0,1,86.5,125.87ZM92.62,132v-1.95h-3.2a4.16,4.16,0,0,0-1.93.29c-.29.2-.43.64-.43,1.33s.18,1.14.55,1.33a5.55,5.55,0,0,0,2.19.28,6.77,6.77,0,0,0,2.22-.24A1,1,0,0,0,92.62,132Z"/><path class="cls-1" d="M100.31,126a4.61,4.61,0,0,0-.38,2.49v5.74c0,.54-.34.81-1,.81s-1-.27-1-.81v-6a12.09,12.09,0,0,1,.2-2.47,2.17,2.17,0,0,1,.81-1.34,3.08,3.08,0,0,1,1.42-.58,23.31,23.31,0,0,1,2.55-.12c1.93,0,3.15.23,3.66.71a3.1,3.1,0,0,1,.9,2c0,.49.07,1.08.07,1.78v6c0,.54-.34.81-1,.81s-1-.27-1-.81v-5.74A4.38,4.38,0,0,0,105,126c-.26-.27-1.05-.4-2.36-.4A4.06,4.06,0,0,0,100.31,126Z"/><path class="cls-1" d="M24.67,156.06v5.73c0,.54-.34.81-1,.81s-1-.27-1-.81v-6a7.26,7.26,0,0,1,.36-2.86,4,4,0,0,1,.69-1c.49-.45,1.72-.67,3.7-.67a6.59,6.59,0,0,1,2,.2.73.73,0,0,1,.5.73,1.05,1.05,0,0,1-.28.8,1,1,0,0,1-.71.26l-1.51-.1a7.06,7.06,0,0,0-1.77.13,1.66,1.66,0,0,0-.51.26,1.78,1.78,0,0,0-.25.52,2.76,2.76,0,0,0-.15.81C24.68,155.17,24.67,155.56,24.67,156.06Z"/><path class="cls-1" d="M40.17,160.62c.47,0,.71.29.71.86a.93.93,0,0,1-.71,1,17.9,17.9,0,0,1-3.74.27,6.36,6.36,0,0,1-3.76-.85,3.39,3.39,0,0,1-1.15-2.87v-4.21a3.27,3.27,0,0,1,1-2.84,7.11,7.11,0,0,1,3.85-.73,7.13,7.13,0,0,1,3.81.7c.65.46,1,1.42,1,2.87v1.82a1.28,1.28,0,0,1-.3.88,1,1,0,0,1-.78.31H33.59v1.35c0,1.13,1,1.69,2.95,1.68a16.85,16.85,0,0,0,2.25-.13A12.42,12.42,0,0,1,40.17,160.62Zm-6.58-5.76V156h5.55v-1.18a1.46,1.46,0,0,0-.56-1.34,4.61,4.61,0,0,0-2.19-.35,5,5,0,0,0-2.21.33A1.47,1.47,0,0,0,33.59,154.86Z"/><path class="cls-1" d="M54.39,148v9.11a13.54,13.54,0,0,1-.25,2.94,3.14,3.14,0,0,1-.91,1.71,3.34,3.34,0,0,1-1.52.8,11.49,11.49,0,0,1-2.39.2,11.89,11.89,0,0,1-2.41-.19,3.35,3.35,0,0,1-1.55-.8,3,3,0,0,1-.9-1.72,14.94,14.94,0,0,1-.25-2.94,14,14,0,0,1,.26-3,3.2,3.2,0,0,1,2.44-2.65,11.79,11.79,0,0,1,2.65-.22,6.9,6.9,0,0,1,2.76.45V148c0-.55.35-.83,1-.83S54.39,147.47,54.39,148Zm-7.86,6.48a5.78,5.78,0,0,0-.25,2.06c0,1,0,1.75.08,2.33a2.78,2.78,0,0,0,.58,1.52,1.81,1.81,0,0,0,1.35.46c.22,0,.56,0,1,0,1.34,0,2.14-.16,2.37-.48a3,3,0,0,0,.6-1.53c.05-.55.08-1.13.08-1.74q0-2.67-.51-3.24a2.74,2.74,0,0,0-.39-.42,2.74,2.74,0,0,0-1.61-.31c-.83,0-1.36,0-1.59,0a1.71,1.71,0,0,0-1.33.47A5.48,5.48,0,0,0,46.53,154.5Z"/><path class="cls-1" d="M61.14,160.88h2.14a3,3,0,0,0,.72-.12,1.35,1.35,0,0,0,.58-.35,1.42,1.42,0,0,0,.25-.92c0-.46,0-1,0-1.48v-5.74c0-.54.34-.81,1-.81s1,.27,1,.81v6a13.11,13.11,0,0,1-.18,2.48,2.11,2.11,0,0,1-.8,1.33,2.93,2.93,0,0,1-1.39.58,25.16,25.16,0,0,1-4.7,0,3,3,0,0,1-1.39-.58,2.14,2.14,0,0,1-.78-1.33,13.84,13.84,0,0,1-.19-2.48v-6c0-.54.35-.81,1-.81s1,.27,1,.81V158a4.72,4.72,0,0,0,.37,2.5,1.15,1.15,0,0,0,.48.25A3,3,0,0,0,61.14,160.88Z"/><path class="cls-1" d="M77.1,159.22V159a.83.83,0,0,0-.54-.79,4.51,4.51,0,0,0-1.88-.25,11.45,11.45,0,0,1-3-.42,2.43,2.43,0,0,1-1.35-.91,2.94,2.94,0,0,1-.54-1.84v-.19A2.72,2.72,0,0,1,71,152a7.28,7.28,0,0,1,3.52-.67,14.34,14.34,0,0,1,3.51.31.92.92,0,0,1,.7,1c0,.57-.23.85-.7.85-.25,0-.73-.05-1.45-.14a15.29,15.29,0,0,0-2.3-.16,6,6,0,0,0-1.8.2c-.38.14-.57.51-.57,1.14v.21c0,.81.85,1.25,2.56,1.3.71,0,1.42.09,2.14.18a3.27,3.27,0,0,1,1.82.8,2.36,2.36,0,0,1,.74,1.92v.28A3.1,3.1,0,0,1,78,162a7.28,7.28,0,0,1-3.76.74,16.71,16.71,0,0,1-3.71-.29.93.93,0,0,1-.71-1c0-.56.23-.85.71-.85q.41,0,1.62.15a21.45,21.45,0,0,0,2.36.14,4.76,4.76,0,0,0,1.88-.31A1.31,1.31,0,0,0,77.1,159.22Z"/><path class="cls-1" d="M90.58,160.62c.48,0,.71.29.71.86a.92.92,0,0,1-.71,1,17.83,17.83,0,0,1-3.74.27,6.38,6.38,0,0,1-3.76-.85,3.39,3.39,0,0,1-1.14-2.87v-4.21A3.27,3.27,0,0,1,83,152a7.11,7.11,0,0,1,3.85-.73,7.13,7.13,0,0,1,3.81.7c.66.46,1,1.42,1,2.87v1.82a1.29,1.29,0,0,1-.31.88,1,1,0,0,1-.77.31H84v1.35c0,1.13,1,1.69,3,1.68a16.8,16.8,0,0,0,2.24-.13A12.42,12.42,0,0,1,90.58,160.62ZM84,154.86V156h5.55v-1.18a1.46,1.46,0,0,0-.56-1.34,4.56,4.56,0,0,0-2.19-.35,5,5,0,0,0-2.2.33A1.45,1.45,0,0,0,84,154.86Z"/><path class="cls-1" d="M96.78,156.06v5.73q0,.81-1,.81c-.69,0-1-.27-1-.81v-6a7,7,0,0,1,.37-2.86,3.78,3.78,0,0,1,.68-1c.49-.45,1.72-.67,3.7-.67a6.59,6.59,0,0,1,2,.2.73.73,0,0,1,.5.73,1.05,1.05,0,0,1-.28.8,1,1,0,0,1-.71.26l-1.51-.1a7.06,7.06,0,0,0-1.77.13,1.66,1.66,0,0,0-.51.26,1.78,1.78,0,0,0-.25.52,2.76,2.76,0,0,0-.15.81C96.79,155.17,96.78,155.56,96.78,156.06Z"/><path class="cls-1" d="M112.28,160.62c.47,0,.71.29.71.86a.93.93,0,0,1-.71,1,17.9,17.9,0,0,1-3.74.27,6.38,6.38,0,0,1-3.76-.85,3.39,3.39,0,0,1-1.15-2.87v-4.21a3.27,3.27,0,0,1,1-2.84,7.11,7.11,0,0,1,3.85-.73,7.13,7.13,0,0,1,3.81.7c.65.46,1,1.42,1,2.87v1.82a1.24,1.24,0,0,1-.3.88,1,1,0,0,1-.78.31H105.7v1.35c0,1.13,1,1.69,3,1.68a16.85,16.85,0,0,0,2.25-.13A12.42,12.42,0,0,1,112.28,160.62Zm-6.58-5.76V156h5.55v-1.18a1.46,1.46,0,0,0-.56-1.34,4.61,4.61,0,0,0-2.19-.35,5,5,0,0,0-2.2.33A1.45,1.45,0,0,0,105.7,154.86Z"/><path class="cls-1" d="M28.2,190.2H22.58c-.47,0-.7-.3-.7-.91s.23-.91.7-.91h1.78V177.07H22.58c-.47,0-.7-.3-.7-.91s.23-.91.7-.91H28.2c.47,0,.71.31.71.91s-.24.91-.71.91H26.42v11.31H28.2c.47,0,.71.3.71.91S28.67,190.2,28.2,190.2Z"/><path class="cls-1" d="M35.81,189.39V177.14H31.19c-.48,0-.71-.32-.71-.94s.23-.95.71-.95H42.51c.47,0,.7.32.7.95s-.23.94-.7.94H37.88v12.25c0,.54-.34.81-1,.81S35.81,189.93,35.81,189.39Z"/><path class="cls-1" d="M49.23,184.23H42.76c-.47,0-.7-.32-.7-.95s.23-.94.7-.94h6.47c.48,0,.71.31.71.94S49.71,184.23,49.23,184.23Z"/><path class="cls-1" d="M53.2,181.07c-.48,0-.72-.28-.72-.85a.94.94,0,0,1,.72-1,16.17,16.17,0,0,1,3.73-.3c1.73,0,2.91.28,3.52.83a3.76,3.76,0,0,1,.93,2.9V187c0,1.39-.33,2.29-1,2.71a8.07,8.07,0,0,1-3.87.63,7.85,7.85,0,0,1-3.83-.63c-.65-.42-1-1.32-1-2.69a4.08,4.08,0,0,1,.75-2.84c.5-.53,1.52-.79,3.07-.78h3.81v-1.19a1.3,1.3,0,0,0-.53-1.17,3.9,3.9,0,0,0-1.87-.31,15.9,15.9,0,0,0-2.35.15A8.05,8.05,0,0,1,53.2,181.07Zm6.12,6.14v-2h-3.2a4.08,4.08,0,0,0-1.92.29c-.3.2-.44.64-.44,1.33s.18,1.14.55,1.33a5.55,5.55,0,0,0,2.19.28,6.69,6.69,0,0,0,2.22-.24A1,1,0,0,0,59.32,187.21Z"/><path class="cls-1" d="M67,181.16a4.61,4.61,0,0,0-.38,2.49v5.74c0,.54-.34.81-1,.81s-1-.27-1-.81v-6a11.37,11.37,0,0,1,.21-2.47,2.11,2.11,0,0,1,.8-1.34A3.13,3.13,0,0,1,67,179a23.31,23.31,0,0,1,2.55-.12c1.93,0,3.15.23,3.66.71a3,3,0,0,1,.9,2,17.7,17.7,0,0,1,.08,1.78v6c0,.54-.35.81-1,.81s-1-.27-1-.81v-5.74a4.5,4.5,0,0,0-.39-2.48c-.27-.27-1-.4-2.37-.4A4.06,4.06,0,0,0,67,181.16Z"/><path class="cls-1" d="M85.47,177.79c0-.48.35-.73,1-.73s1,.25,1,.76v4.87c0,1.44-.36,2.39-1.09,2.85a7.07,7.07,0,0,1-3.62.68,17.22,17.22,0,0,1-3.38-.21v1.78h4.2a4.71,4.71,0,0,1,3.2.81,3.84,3.84,0,0,1,.83,2.76A2.9,2.9,0,0,1,86.55,194a7.73,7.73,0,0,1-4,.73,8.87,8.87,0,0,1-4-.65,2.81,2.81,0,0,1-1.17-2.67v-9a3.85,3.85,0,0,1,.63-2.51,3.5,3.5,0,0,1,2.44-.88,19.52,19.52,0,0,1,5,.24Zm-6,4.85c0,.83.17,1.33.46,1.5a5.44,5.44,0,0,0,2.22.27,10,10,0,0,0,2.39-.19,1.13,1.13,0,0,0,.8-.56,3.67,3.67,0,0,0,.15-1.25v-1.36a24.48,24.48,0,0,0-3.28-.24,4.63,4.63,0,0,0-2.12.34,1.49,1.49,0,0,0-.62,1.4Zm0,7v1.91a1.12,1.12,0,0,0,.74,1.09,6.82,6.82,0,0,0,2.44.32,5.13,5.13,0,0,0,2.26-.34,1.38,1.38,0,0,0,.58-1.31,1.42,1.42,0,0,0-.55-1.31,4,4,0,0,0-2-.36Z"/><path class="cls-1" d="M92.35,183.66v5.73c0,.54-.35.81-1,.81s-1-.27-1-.81v-6a7,7,0,0,1,.37-2.86,4,4,0,0,1,.68-1c.49-.45,1.73-.67,3.7-.67a6.55,6.55,0,0,1,2,.2.73.73,0,0,1,.51.73,1.06,1.06,0,0,1-.29.8.94.94,0,0,1-.7.26l-1.52-.1a6.9,6.9,0,0,0-1.76.13,1.62,1.62,0,0,0-.52.26,2.09,2.09,0,0,0-.25.52,2.75,2.75,0,0,0-.14.81C92.35,182.77,92.35,183.16,92.35,183.66Z"/><path class="cls-1" d="M107.85,188.22c.47,0,.7.29.7.86a.92.92,0,0,1-.7,1,18,18,0,0,1-3.74.27,6.39,6.39,0,0,1-3.77-.85,3.42,3.42,0,0,1-1.14-2.87v-4.21a3.27,3.27,0,0,1,1-2.84,7.11,7.11,0,0,1,3.85-.73,7.13,7.13,0,0,1,3.81.7c.66.46,1,1.42,1,2.87v1.82a1.27,1.27,0,0,1-.31.88,1,1,0,0,1-.77.31h-6.54v1.35c0,1.13,1,1.69,3,1.68a16.59,16.59,0,0,0,2.24-.13A12.32,12.32,0,0,1,107.85,188.22Zm-6.59-5.76v1.18h5.55v-1.18a1.44,1.44,0,0,0-.56-1.34,4.56,4.56,0,0,0-2.19-.35,5,5,0,0,0-2.2.33A1.45,1.45,0,0,0,101.26,182.46Z"/><path class="cls-1" d="M112,193.88v-9.34a12.85,12.85,0,0,1,.26-2.94,3.26,3.26,0,0,1,.9-1.71,3.39,3.39,0,0,1,1.53-.81,11.43,11.43,0,0,1,2.39-.2,11.71,11.71,0,0,1,2.41.2,3.42,3.42,0,0,1,1.56.8,3.07,3.07,0,0,1,.9,1.71,14.64,14.64,0,0,1,.23,3,13.84,13.84,0,0,1-.25,3,3.2,3.2,0,0,1-2.44,2.65,12.59,12.59,0,0,1-2.66.21,7,7,0,0,1-2.77-.45v4c0,.53-.34.8-1,.8S112,194.42,112,193.88Zm7.87-6.69a5.71,5.71,0,0,0,.25-2.06c0-1,0-1.77-.08-2.35a3,3,0,0,0-.58-1.53c-.23-.32-1-.48-2.38-.48s-2.15.16-2.39.48a3,3,0,0,0-.59,1.56c0,.55-.08,1.13-.08,1.73s0,1.09.06,1.49.08.75.13,1.05a2,2,0,0,0,.71,1.13,1.42,1.42,0,0,0,.92.28c.43,0,.86,0,1.3,0s.76,0,1,0a4.07,4.07,0,0,0,.76-.12,1,1,0,0,0,.59-.35A5.27,5.27,0,0,0,119.85,187.19Z"/><path class="cls-1" d="M26.82,217.91a1.74,1.74,0,0,1-1.1-.37,2.13,2.13,0,0,1-.7-.93l-3.26-8.77c0-.23-.07-.36-.07-.37,0-.54.33-.81,1-.8a1,1,0,0,1,1,.6l3.07,8.64h.11L30,207.27q.23-.6,1.11-.6c.6,0,.89.27.89.8,0,0,0,.14-.07.37l-3.26,8.77a1.94,1.94,0,0,1-.7.94A1.85,1.85,0,0,1,26.82,217.91Z"/><path class="cls-1" d="M42.82,215.82c.47,0,.71.29.71.86a.93.93,0,0,1-.71,1,17.9,17.9,0,0,1-3.74.27,6.46,6.46,0,0,1-3.76-.85,3.39,3.39,0,0,1-1.15-2.87v-4.21a3.27,3.27,0,0,1,1-2.84,7.11,7.11,0,0,1,3.85-.73,7.13,7.13,0,0,1,3.81.7c.65.46,1,1.42,1,2.87v1.82a1.24,1.24,0,0,1-.3.88,1,1,0,0,1-.78.31H36.24v1.35c0,1.13,1,1.69,2.95,1.68a16.85,16.85,0,0,0,2.25-.13A12.42,12.42,0,0,1,42.82,215.82Zm-6.58-5.76v1.18h5.55v-1.18a1.46,1.46,0,0,0-.56-1.34,4.61,4.61,0,0,0-2.19-.35,5,5,0,0,0-2.21.33A1.47,1.47,0,0,0,36.24,210.06Z"/><path class="cls-1" d="M57,203.22v9.11a13.54,13.54,0,0,1-.25,2.94,3.14,3.14,0,0,1-.91,1.71,3.34,3.34,0,0,1-1.52.8A11.49,11.49,0,0,1,52,218a11.89,11.89,0,0,1-2.41-.19A3.35,3.35,0,0,1,48,217a3,3,0,0,1-.9-1.72,14.94,14.94,0,0,1-.25-2.94,14,14,0,0,1,.26-3,3.21,3.21,0,0,1,2.44-2.65,11.79,11.79,0,0,1,2.65-.22,6.9,6.9,0,0,1,2.76.45v-3.71c0-.55.35-.83,1-.83S57,202.67,57,203.22Zm-7.86,6.48a5.78,5.78,0,0,0-.25,2.06c0,1,0,1.75.08,2.33a2.86,2.86,0,0,0,.58,1.52,1.85,1.85,0,0,0,1.35.46c.22,0,.56,0,1,0,1.34,0,2.14-.16,2.37-.48a3,3,0,0,0,.6-1.53c.05-.56.08-1.13.08-1.74q0-2.67-.51-3.24a1.8,1.8,0,0,0-2-.73c-.83,0-1.36,0-1.58,0-.71,0-1.15.2-1.34.47A5.48,5.48,0,0,0,49.18,209.7Z"/><path class="cls-1" d="M65.66,212.33v-9.11c0-.55.36-.83,1-.83s1,.28,1,.83v3.71a7,7,0,0,1,2.77-.45,11.89,11.89,0,0,1,2.66.22,3.2,3.2,0,0,1,1.55.88,3.55,3.55,0,0,1,.9,1.77,14.81,14.81,0,0,1,.24,3,15.33,15.33,0,0,1-.23,3,3.08,3.08,0,0,1-.91,1.7,3.47,3.47,0,0,1-1.55.79,11.78,11.78,0,0,1-2.41.2,11.65,11.65,0,0,1-2.4-.19,3.16,3.16,0,0,1-1.52-.8,3.3,3.3,0,0,1-.91-1.72A13.44,13.44,0,0,1,65.66,212.33Zm8.12.47c0-1,0-1.78-.08-2.36a3.18,3.18,0,0,0-.57-1.58c-.22-.33-1-.49-2.38-.49a4.36,4.36,0,0,0-2.17.31,1.83,1.83,0,0,0-.68,1,12.51,12.51,0,0,0-.21,2.32c0,.8,0,1.49.07,2.07a3,3,0,0,0,.6,1.53,1.84,1.84,0,0,0,1.36.46c.23,0,.57,0,1,0s.79,0,1,0a4,4,0,0,0,.76-.12,1,1,0,0,0,.6-.33,5,5,0,0,0,.41-.8A5.84,5.84,0,0,0,73.78,212.8Z"/><path class="cls-1" d="M80.93,211.26V217c0,.54-.35.81-1,.81s-1-.27-1-.81v-6a7,7,0,0,1,.37-2.86,3.78,3.78,0,0,1,.68-1c.49-.45,1.72-.67,3.7-.67a6.55,6.55,0,0,1,2,.2.72.72,0,0,1,.5.73,1.07,1.07,0,0,1-.28.8,1,1,0,0,1-.7.26l-1.52-.1a6.9,6.9,0,0,0-1.76.13,1.62,1.62,0,0,0-.52.26,2.09,2.09,0,0,0-.25.52,2.46,2.46,0,0,0-.14.81C80.93,210.37,80.93,210.76,80.93,211.26Z"/><path class="cls-1" d="M91.51,216.08h2.14a3,3,0,0,0,.72-.12,1.35,1.35,0,0,0,.58-.35,1.49,1.49,0,0,0,.25-.92c0-.46,0-.95,0-1.48v-5.74c0-.54.35-.81,1-.81s1,.27,1,.81v6a13.11,13.11,0,0,1-.18,2.48,2.16,2.16,0,0,1-.8,1.33,3,3,0,0,1-1.39.58,19.18,19.18,0,0,1-2.35.11,19,19,0,0,1-2.35-.11,3,3,0,0,1-1.39-.58,2.14,2.14,0,0,1-.78-1.33,13,13,0,0,1-.19-2.48v-6c0-.54.35-.81,1-.81s1,.27,1,.81v5.74a4.83,4.83,0,0,0,.37,2.5,1.28,1.28,0,0,0,.49.25A3,3,0,0,0,91.51,216.08Z"/><path class="cls-1" d="M102.56,203.22v8.87l5.14-5.19a1,1,0,0,1,.76-.35.94.94,0,0,1,.72.29.85.85,0,0,1,.29.67,1.06,1.06,0,0,1-.37.77l-3,2.76,3.66,5.11a1.17,1.17,0,0,1,.22.68.89.89,0,0,1-.32.68,1.1,1.1,0,0,1-.77.31.77.77,0,0,1-.67-.37l-3.59-5-2.11,2V217c0,.54-.35.81-1,.81s-1-.27-1-.81V203.22c0-.55.35-.83,1-.83S102.56,202.67,102.56,203.22Z"/><path class="cls-1" d="M118.57,208.67c-.48,0-.72-.29-.72-.85a.94.94,0,0,1,.72-1,16.17,16.17,0,0,1,3.73-.3c1.74,0,2.91.28,3.53.83a3.75,3.75,0,0,1,.93,2.9v4.43c0,1.39-.34,2.29-1,2.71a8.12,8.12,0,0,1-3.87.63,7.87,7.87,0,0,1-3.84-.63c-.65-.42-1-1.32-1-2.69a4.09,4.09,0,0,1,.74-2.84c.5-.53,1.53-.79,3.07-.78h3.81v-1.19a1.27,1.27,0,0,0-.53-1.17,3.9,3.9,0,0,0-1.87-.31,15.9,15.9,0,0,0-2.35.15A8.05,8.05,0,0,1,118.57,208.67Zm6.12,6.14v-1.95H121.5a4.1,4.1,0,0,0-1.93.29c-.29.2-.44.64-.44,1.33s.18,1.14.55,1.33a5.61,5.61,0,0,0,2.2.28,6.77,6.77,0,0,0,2.22-.24A1,1,0,0,0,124.69,214.81Z"/><path class="cls-1" d="M134.15,217.91a1.74,1.74,0,0,1-1.1-.37,2.06,2.06,0,0,1-.7-.93l-3.26-8.77a2.25,2.25,0,0,0-.08-.37c0-.54.34-.81,1-.8a.94.94,0,0,1,1,.6l3.08,8.64h.11l3.09-8.64q.22-.6,1.11-.6c.6,0,.89.27.89.8,0,0,0,.14-.07.37L136,216.61a1.94,1.94,0,0,1-.7.94A1.85,1.85,0,0,1,134.15,217.91Z"/><path class="cls-1" d="M30.42,239.78a2.1,2.1,0,0,1-1.81-1.3l-3.13-5.83h-.11v11.92c0,.55-.35.83-1,.83s-1-.28-1-.83V232.43a2,2,0,0,1,.58-1.56,1.86,1.86,0,0,1,1.29-.53,2.17,2.17,0,0,1,2.06,1.3l3.14,5.9h.11l3.12-5.9a2.16,2.16,0,0,1,2.07-1.3,1.85,1.85,0,0,1,1.28.53,2.06,2.06,0,0,1,.58,1.56v12.14c0,.55-.35.83-1,.83s-1-.28-1-.83V232.65h-.11l-3.13,5.83A2.06,2.06,0,0,1,30.42,239.78Z"/><path class="cls-1" d="M41.54,231.6a1.07,1.07,0,0,1,.34-.8,1.13,1.13,0,0,1,.78-.35,1.08,1.08,0,0,1,.8.35,1.17,1.17,0,0,1,.33.81,1.12,1.12,0,0,1-.34.79,1.11,1.11,0,0,1-1.58,0A1.13,1.13,0,0,1,41.54,231.6Zm2.16,3.47v9.52c0,.54-.35.81-1,.81s-1-.27-1-.81v-9.52c0-.54.34-.81,1-.81S43.7,234.53,43.7,235.07Z"/><path class="cls-1" d="M55.19,236.27a4.92,4.92,0,0,1-1.15-.15,12,12,0,0,0-2.19-.15,4.85,4.85,0,0,0-2.1.34,1.45,1.45,0,0,0-.69,1.39V242c0,1.14,1,1.7,3,1.69a12,12,0,0,0,2-.14,6.53,6.53,0,0,1,1.15-.15c.47,0,.71.29.71.85a.94.94,0,0,1-.71,1,15.6,15.6,0,0,1-3.52.29,6,6,0,0,1-3.53-.85A3.42,3.42,0,0,1,47,241.86v-4.21a3.21,3.21,0,0,1,1.08-2.83,6.46,6.46,0,0,1,3.53-.74,12.35,12.35,0,0,1,3.58.37.91.91,0,0,1,.71,1C55.9,236,55.66,236.27,55.19,236.27Z"/><path class="cls-1" d="M60.49,238.86v5.73c0,.54-.35.81-1,.81s-1-.27-1-.81v-6a7,7,0,0,1,.37-2.86,3.78,3.78,0,0,1,.68-1c.49-.45,1.72-.67,3.7-.67a6.55,6.55,0,0,1,2,.2.72.72,0,0,1,.5.73,1.05,1.05,0,0,1-.28.8,1,1,0,0,1-.7.26l-1.52-.1a6.9,6.9,0,0,0-1.76.13,1.62,1.62,0,0,0-.52.26,2.09,2.09,0,0,0-.25.52,2.46,2.46,0,0,0-.14.81C60.49,238,60.49,238.36,60.49,238.86Z"/><path class="cls-1" d="M66.65,239.93a14,14,0,0,1,.26-3,3.2,3.2,0,0,1,2.44-2.65,13.26,13.26,0,0,1,4.81,0,3.21,3.21,0,0,1,1.55.88,3.55,3.55,0,0,1,.91,1.77,17.71,17.71,0,0,1,0,5.93,3.15,3.15,0,0,1-.92,1.7,3.4,3.4,0,0,1-1.54.8,11.67,11.67,0,0,1-2.4.2,11.89,11.89,0,0,1-2.41-.19,3.3,3.3,0,0,1-1.55-.8,3,3,0,0,1-.9-1.72A13.54,13.54,0,0,1,66.65,239.93ZM69,237.3a6.09,6.09,0,0,0-.24,2.06c0,1,0,1.75.08,2.33a2.78,2.78,0,0,0,.58,1.52,1.78,1.78,0,0,0,1.34.46c.23,0,.57,0,1,0q2,0,2.37-.48a3,3,0,0,0,.6-1.53c0-.55.08-1.13.08-1.74q0-2.67-.51-3.24a2.74,2.74,0,0,0-.39-.42,2.78,2.78,0,0,0-1.62-.31c-.83,0-1.35,0-1.58,0a1.71,1.71,0,0,0-1.33.47A6.37,6.37,0,0,0,69,237.3Z"/><path class="cls-1" d="M86.8,242v-.26a.83.83,0,0,0-.54-.79,4.48,4.48,0,0,0-1.88-.25,11.51,11.51,0,0,1-3-.42,2.43,2.43,0,0,1-1.35-.91,2.94,2.94,0,0,1-.54-1.84v-.19a2.72,2.72,0,0,1,1.16-2.59,7.33,7.33,0,0,1,3.53-.67,14.25,14.25,0,0,1,3.5.31.92.92,0,0,1,.71,1c0,.57-.24.85-.71.85-.25,0-.73,0-1.45-.14A15.19,15.19,0,0,0,84,236a6,6,0,0,0-1.8.2c-.38.14-.57.51-.57,1.14v.21c0,.81.85,1.25,2.56,1.3.71,0,1.43.09,2.15.18a3.27,3.27,0,0,1,1.81.8,2.36,2.36,0,0,1,.75,1.92V242a3.1,3.1,0,0,1-1.17,2.82,7.3,7.3,0,0,1-3.76.74,16.87,16.87,0,0,1-3.72-.29.94.94,0,0,1-.71-1c0-.56.24-.85.71-.85.28,0,.82,0,1.63.15a21.31,21.31,0,0,0,2.36.14,4.71,4.71,0,0,0,1.87-.31A1.31,1.31,0,0,0,86.8,242Z"/><path class="cls-1" d="M91.64,239.93a14.07,14.07,0,0,1,.25-3,3.22,3.22,0,0,1,2.45-2.65,10.42,10.42,0,0,1,2.4-.22,10.3,10.3,0,0,1,2.4.22,3.2,3.2,0,0,1,1.56.88,3.55,3.55,0,0,1,.91,1.77,17.71,17.71,0,0,1,0,5.93,3.15,3.15,0,0,1-.92,1.7,3.44,3.44,0,0,1-1.55.8,14.87,14.87,0,0,1-4.8,0,3.25,3.25,0,0,1-1.55-.8,3.11,3.11,0,0,1-.91-1.72A14.31,14.31,0,0,1,91.64,239.93ZM94,237.3a6.09,6.09,0,0,0-.24,2.06c0,1,0,1.75.07,2.33a2.87,2.87,0,0,0,.59,1.52,1.78,1.78,0,0,0,1.34.46c.23,0,.57,0,1,0,1.35,0,2.14-.16,2.38-.48a3,3,0,0,0,.59-1.53,16.13,16.13,0,0,0,.08-1.74c0-1.78-.17-2.86-.5-3.24a2.74,2.74,0,0,0-.39-.42,2.78,2.78,0,0,0-1.62-.31c-.83,0-1.35,0-1.58,0-.7,0-1.15.2-1.33.47A6.37,6.37,0,0,0,94,237.3Z"/><path class="cls-1" d="M108,234.16v.11h2.92c.47,0,.7.3.7.91s-.23.91-.7.91H108v8.5c0,.54-.35.81-1,.81s-1-.27-1-.81v-8.5H104.4c-.47,0-.71-.3-.71-.91s.24-.91.71-.91h1.48v-.39c0-1.58.27-2.63.81-3.14a4.45,4.45,0,0,1,3-.75,6.55,6.55,0,0,1,2,.2.71.71,0,0,1,.51.71,1,1,0,0,1-1,1l-1.52-.07a2,2,0,0,0-1.45.38A3.43,3.43,0,0,0,108,234.16Z"/><path class="cls-1" d="M117.26,245.4a2.88,2.88,0,0,1-2.19-.67,3.42,3.42,0,0,1-.62-2.31v-6.33H113c-.47,0-.7-.3-.7-.91s.23-.91.7-.91h1.45v-2.92c0-.54.34-.81,1-.81s1,.27,1,.81v2.92h2.92c.47,0,.7.3.7.91s-.23.91-.7.91h-2.92v6.48c0,.63.37.94,1.12.94l2-.11c.48,0,.72.28.72.83a1.06,1.06,0,0,1-.74,1.1C119.08,245.38,118.31,245.4,117.26,245.4Z"/><path class="cls-1" d="M129.39,242v-.26a.83.83,0,0,0-.54-.79,4.51,4.51,0,0,0-1.88-.25,11.45,11.45,0,0,1-3-.42,2.43,2.43,0,0,1-1.35-.91,2.94,2.94,0,0,1-.54-1.84v-.19a2.7,2.7,0,0,1,1.16-2.59,7.28,7.28,0,0,1,3.52-.67,14.34,14.34,0,0,1,3.51.31.92.92,0,0,1,.7,1c0,.57-.23.85-.7.85-.25,0-.73,0-1.45-.14a15.29,15.29,0,0,0-2.3-.16,6,6,0,0,0-1.8.2c-.38.14-.57.51-.57,1.14v.21c0,.81.85,1.25,2.56,1.3.71,0,1.42.09,2.14.18a3.27,3.27,0,0,1,1.82.8,2.36,2.36,0,0,1,.74,1.92V242a3.1,3.1,0,0,1-1.17,2.82,7.3,7.3,0,0,1-3.76.74,16.87,16.87,0,0,1-3.72-.29.93.93,0,0,1-.7-1c0-.56.23-.85.7-.85.28,0,.82,0,1.63.15a21.45,21.45,0,0,0,2.36.14,4.76,4.76,0,0,0,1.88-.31A1.31,1.31,0,0,0,129.39,242Z"/><path class="cls-1" d="M26.46,273a2.88,2.88,0,0,1-2.19-.67,3.42,3.42,0,0,1-.62-2.31v-6.33H22.2c-.46,0-.69-.3-.69-.91s.23-.91.69-.91h1.45V259c0-.54.34-.81,1-.81s1,.27,1,.81v2.92h2.93c.46,0,.69.3.69.91s-.23.91-.69.91H25.72v6.48c0,.63.37.94,1.12.94l1.95-.11c.48,0,.72.28.72.83a1.05,1.05,0,0,1-.74,1.1C28.28,273,27.51,273,26.46,273Z"/><path class="cls-1" d="M40.19,271c.47,0,.71.29.71.86a.93.93,0,0,1-.71,1,17.83,17.83,0,0,1-3.74.27,6.38,6.38,0,0,1-3.76-.85,3.36,3.36,0,0,1-1.14-2.87v-4.21a3.27,3.27,0,0,1,1-2.84,7.11,7.11,0,0,1,3.85-.73,7.13,7.13,0,0,1,3.81.7c.66.46,1,1.42,1,2.87v1.82a1.29,1.29,0,0,1-.31.88,1,1,0,0,1-.77.31H33.61v1.35c0,1.13,1,1.69,3,1.68a16.8,16.8,0,0,0,2.24-.13A12.42,12.42,0,0,1,40.19,271Zm-6.58-5.76v1.18h5.55v-1.18a1.46,1.46,0,0,0-.56-1.34,4.56,4.56,0,0,0-2.19-.35,5,5,0,0,0-2.2.33A1.45,1.45,0,0,0,33.61,265.26Z"/><path class="cls-1" d="M46.37,258.42v8.87l5.14-5.19a1.06,1.06,0,0,1,.77-.35A1,1,0,0,1,53,262a.88.88,0,0,1,.29.67,1.1,1.1,0,0,1-.37.77l-3,2.76,3.66,5.11a1.18,1.18,0,0,1,.23.68.87.87,0,0,1-.33.68,1.07,1.07,0,0,1-.76.31.77.77,0,0,1-.68-.37l-3.59-5-2.11,1.95v2.62c0,.54-.34.81-1,.81s-1-.27-1-.81V258.42c0-.55.36-.83,1-.83S46.37,257.87,46.37,258.42Z"/><path class="cls-1" d="M58.13,264c-.26.26-.38,1.09-.38,2.49v5.74c0,.54-.35.81-1,.81s-1-.27-1-.81v-6a12.09,12.09,0,0,1,.2-2.47,2.17,2.17,0,0,1,.81-1.34,3,3,0,0,1,1.42-.58,23.24,23.24,0,0,1,2.54-.12c1.94,0,3.16.23,3.67.71a3,3,0,0,1,.89,2,15.15,15.15,0,0,1,.08,1.78v6c0,.54-.34.81-1,.81s-1-.27-1-.81v-5.74a4.38,4.38,0,0,0-.4-2.48c-.26-.27-1-.4-2.36-.4S58.38,263.7,58.13,264Z"/><path class="cls-1" d="M68.42,267.53a14.07,14.07,0,0,1,.25-3,3.21,3.21,0,0,1,2.44-2.65,13.26,13.26,0,0,1,4.81,0,3.29,3.29,0,0,1,1.56.88,3.55,3.55,0,0,1,.9,1.77,17.71,17.71,0,0,1,0,5.93,3.09,3.09,0,0,1-.92,1.7,3.4,3.4,0,0,1-1.54.8,11.6,11.6,0,0,1-2.4.2,11.89,11.89,0,0,1-2.41-.19,3.35,3.35,0,0,1-1.55-.8,3,3,0,0,1-.9-1.72A14.31,14.31,0,0,1,68.42,267.53Zm2.31-2.63a5.78,5.78,0,0,0-.25,2.06c0,1,0,1.75.08,2.33a2.86,2.86,0,0,0,.58,1.52,1.83,1.83,0,0,0,1.35.46c.22,0,.57,0,1,0,1.34,0,2.14-.16,2.38-.48a3.09,3.09,0,0,0,.59-1.53c.05-.55.08-1.13.08-1.74q0-2.67-.51-3.24a1.8,1.8,0,0,0-2-.73c-.83,0-1.36,0-1.58,0-.71,0-1.15.2-1.34.47A5.48,5.48,0,0,0,70.73,264.9Z"/><path class="cls-1" d="M83.87,258.42v13.77c0,.54-.35.81-1,.81s-1-.27-1-.81V258.42c0-.55.35-.83,1-.83S83.87,257.87,83.87,258.42Z"/><path class="cls-1" d="M87.17,267.53a14.07,14.07,0,0,1,.25-3,3.22,3.22,0,0,1,2.45-2.65,10.42,10.42,0,0,1,2.4-.22,10.3,10.3,0,0,1,2.4.22,3.2,3.2,0,0,1,1.56.88,3.55,3.55,0,0,1,.91,1.77,17.71,17.71,0,0,1,0,5.93,3.15,3.15,0,0,1-.92,1.7,3.44,3.44,0,0,1-1.55.8,11.6,11.6,0,0,1-2.4.2,11.78,11.78,0,0,1-2.4-.19,3.25,3.25,0,0,1-1.55-.8,3.11,3.11,0,0,1-.91-1.72A14.31,14.31,0,0,1,87.17,267.53Zm2.31-2.63a6.09,6.09,0,0,0-.24,2.06c0,1,0,1.75.07,2.33a2.87,2.87,0,0,0,.59,1.52,1.78,1.78,0,0,0,1.34.46c.23,0,.57,0,1,0,1.35,0,2.14-.16,2.38-.48a2.92,2.92,0,0,0,.59-1.53,16.13,16.13,0,0,0,.08-1.74c0-1.78-.17-2.86-.5-3.24a2.74,2.74,0,0,0-.39-.42,2.78,2.78,0,0,0-1.62-.31c-.83,0-1.35,0-1.58,0-.7,0-1.15.2-1.33.47A6.37,6.37,0,0,0,89.48,264.9Z"/><path class="cls-1" d="M108.45,260.59c0-.49.35-.73,1-.73s1,.25,1,.76v4.87c0,1.44-.37,2.39-1.09,2.84a7.07,7.07,0,0,1-3.62.69,17.15,17.15,0,0,1-3.38-.21v1.78h4.2a4.66,4.66,0,0,1,3.19.81,3.8,3.8,0,0,1,.83,2.76,2.9,2.9,0,0,1-1.12,2.65,7.76,7.76,0,0,1-4,.73,8.89,8.89,0,0,1-4-.65,2.79,2.79,0,0,1-1.16-2.67v-9a3.85,3.85,0,0,1,.63-2.51,3.5,3.5,0,0,1,2.44-.88,19.52,19.52,0,0,1,5,.24Zm-6,4.85c0,.83.16,1.33.46,1.5a5.44,5.44,0,0,0,2.22.27,10,10,0,0,0,2.39-.19,1.11,1.11,0,0,0,.79-.56,3.38,3.38,0,0,0,.16-1.25v-1.36a24.48,24.48,0,0,0-3.28-.24,4.63,4.63,0,0,0-2.12.34,1.49,1.49,0,0,0-.62,1.4Zm0,7v1.91a1.12,1.12,0,0,0,.74,1.09,6.76,6.76,0,0,0,2.43.32,5.16,5.16,0,0,0,2.27-.34,1.38,1.38,0,0,0,.58-1.31,1.42,1.42,0,0,0-.55-1.31,4,4,0,0,0-2-.36Z"/><path class="cls-1" d="M113.36,259.2a1.08,1.08,0,0,1,.34-.8,1.13,1.13,0,0,1,.78-.35,1.08,1.08,0,0,1,.8.35,1.17,1.17,0,0,1,.33.81,1.14,1.14,0,0,1-1.13,1.12,1.09,1.09,0,0,1-.79-.33A1.13,1.13,0,0,1,113.36,259.2Zm2.16,3.47v9.52c0,.54-.35.81-1,.81s-1-.27-1-.81v-9.52c0-.54.34-.81,1-.81S115.52,262.13,115.52,262.67Z"/><path class="cls-1" d="M124.63,268.74V269c0,.57-.34.85-1,.85s-1-.28-1-.85v-.24a5,5,0,0,1,.32-1.87,2.72,2.72,0,0,1,.8-1.16,10.92,10.92,0,0,1,2.1-1.29,1.84,1.84,0,0,0,1.08-1.73c0-1-.17-1.63-.5-1.89a3.69,3.69,0,0,0-2-.38,24.76,24.76,0,0,0-2.82.15c-.86.09-1.42.14-1.68.14-.49,0-.73-.28-.73-.85a.94.94,0,0,1,.72-1,19,19,0,0,1,4-.29q2.92,0,4,.87c.71.57,1.07,1.7,1.08,3.37a4.93,4.93,0,0,1-.31,1.83,2.11,2.11,0,0,1-.79,1c-.31.2-.65.38-1,.56s-.7.33-1,.46a2,2,0,0,0-.84.73A2.4,2.4,0,0,0,124.63,268.74Zm-2.29,3.15a1.38,1.38,0,0,1,.36-1,1.2,1.2,0,0,1,.9-.39,1.38,1.38,0,0,1,1,.39,1.24,1.24,0,0,1,.43.95,1.2,1.2,0,0,1-.43.93,1.43,1.43,0,0,1-1,.37,1.22,1.22,0,0,1-.9-.36A1.33,1.33,0,0,1,122.34,271.89Z"/></svg>