<svg id="Layer_1" data-name="Layer 1" xmlns="http://www.w3.org/2000/svg" viewBox="0 0 160 600"><defs><style>.cls-1{fill:#fff;}</style></defs><title>text</title><path class="cls-1" d="M41.84,278.54A7.29,7.29,0,0,1,35.42,275l2.36-2.27a4.27,4.27,0,0,0,3.92,2.49,2.66,2.66,0,0,0,2.88-2.63c0-3.83-8.2-2-8.2-8,0-3.3,2.66-5.43,5.82-5.43a8.2,8.2,0,0,1,5.46,2.07l-1.9,2.5a3.77,3.77,0,0,0-3-1.51c-1.2,0-2.6.75-2.6,2.09,0,3.17,8.2,1.6,8.2,8.12C48.33,276.19,45.53,278.54,41.84,278.54Z"/><path class="cls-1" d="M57.18,278.35H55.61L49.42,266h3.81l3.19,6.83,3.2-6.83h3.8Z"/><path class="cls-1" d="M73.73,278.1v-1.6a4.68,4.68,0,0,1-4,2c-3.64,0-6-3-6-6.5s2.32-6.41,5.88-6.41a5,5,0,0,1,4,1.93V266h3.41V278.1Zm-3-9.47A3.41,3.41,0,1,0,74.09,272,3.38,3.38,0,0,0,70.71,268.63Z"/><path class="cls-1" d="M88.68,278.1v-6.72c0-1.66-.36-2.92-2.3-2.92-2.1,0-2.6,1.54-2.6,3.37v6.27H80.39V266h3.39v1.49a4.47,4.47,0,0,1,3.81-1.88,4.19,4.19,0,0,1,4.48,4.82v7.7Z"/><path class="cls-1" d="M104.58,278.1v-1.6a4.66,4.66,0,0,1-3.94,2c-3.64,0-6-3-6-6.5s2.33-6.41,5.88-6.41a5,5,0,0,1,4,1.93V266H108V278.1Zm-3-9.47A3.41,3.41,0,1,0,105,272,3.38,3.38,0,0,0,101.56,268.63Z"/><path class="cls-1" d="M118.7,262l2.57,2.51-2.1,1.52-1.62-3.22-1.6,3.24-2.1-1.51L116.4,262l-3.56-.54.82-2.46,3.19,1.62-.59-3.52h2.6l-.58,3.52,3.19-1.65.78,2.46Z"/><path class="cls-1" d="M16.11,311.7v-1.6a4.7,4.7,0,0,1-3.95,2c-3.64,0-6-3-6-6.5s2.33-6.41,5.88-6.41a5.08,5.08,0,0,1,4,1.93V290.73h3.41v21Zm-3-9.47a3.41,3.41,0,1,0,3.39,3.39A3.39,3.39,0,0,0,13.08,302.23Z"/><path class="cls-1" d="M24.42,296.49a2,2,0,1,1,2-2A2,2,0,0,1,24.42,296.49ZM22.71,311.7V299.57H26.1V311.7Z"/><path class="cls-1" d="M37.58,311.7V305c0-1.65-.36-2.91-2.29-2.91-2.11,0-2.61,1.54-2.61,3.35v6.28H29.29V299.57h3.39v1.49a4.47,4.47,0,0,1,3.81-1.88A4.65,4.65,0,0,1,40,300.64,4.71,4.71,0,0,1,41,304v7.7Z"/><path class="cls-1" d="M59.5,311.7v-6.64c0-1.68-.36-3-2.32-3s-2.58,1.62-2.58,3.41v6.22H51.22v-21H54.6v10.41a4.43,4.43,0,0,1,3.81-2,4.63,4.63,0,0,1,3.53,1.49,4.77,4.77,0,0,1,1,3.41v7.62Z"/><path class="cls-1" d="M72,312.09c-3.33,0-5.85-1.48-5.85-5.1v-7.42h3.39v6.86c0,1.65.7,2.78,2.46,2.78s2.47-1.13,2.47-2.78v-6.86h3.41V307C77.87,310.61,75.32,312.09,72,312.09Z"/><path class="cls-1" d="M85,312.09a6.47,6.47,0,0,1-4.62-2l1.8-2.07A3.92,3.92,0,0,0,85,309.43a1.43,1.43,0,0,0,1.54-1.35c0-2.07-5.4-1-5.4-5.12,0-2.46,2-3.83,4.34-3.83a6.3,6.3,0,0,1,4,1.28l-1.68,2a3.37,3.37,0,0,0-2-.81c-.59,0-1.29.36-1.29,1,0,1.76,5.6,1,5.6,5.12C90.05,310.58,87.59,312.09,85,312.09Z"/><path class="cls-1" d="M101.73,311.7v-1.6a4.68,4.68,0,0,1-4,2c-3.64,0-6-3-6-6.5s2.32-6.41,5.88-6.41a5.06,5.06,0,0,1,4,1.93V290.73h3.41v21Zm-3-9.47a3.41,3.41,0,1,0,3.39,3.39A3.38,3.38,0,0,0,98.7,302.23Z"/><path class="cls-1" d="M116.31,302.65a3,3,0,0,0-1.62-.42c-2.3,0-2.91,1.63-2.91,3.64v5.83h-3.39V299.57h3.39v1.82a3.89,3.89,0,0,1,3.53-2.21,3.78,3.78,0,0,1,1.48.28Z"/><path class="cls-1" d="M124.77,312.09c-3.86,0-6.94-2.41-6.94-6.44s3.08-6.47,7-6.47,6.89,2.44,6.89,6.44S128.61,312.09,124.77,312.09Zm-2.94-14.79a2,2,0,1,1,0-4,2,2,0,1,1,0,4Zm2.91,4.93a3.41,3.41,0,1,0,3.45,3.42A3.43,3.43,0,0,0,124.74,302.23Zm2.91-4.93a2,2,0,0,1-2-2,2,2,0,1,1,2,2Z"/><path class="cls-1" d="M149.77,311.7v-6.64c0-1.43-.22-3-2-3-2,0-2.33,1.81-2.33,3.41v6.22h-3.38v-6.44a5.26,5.26,0,0,0-.26-2,1.94,1.94,0,0,0-1.82-1.17,2.21,2.21,0,0,0-1.9,1.09,5.06,5.06,0,0,0-.39,2.32v6.22h-3.39V299.57h3.39V301a4.65,4.65,0,0,1,3.7-1.77,4.11,4.11,0,0,1,3.77,2.21,4.5,4.5,0,0,1,4-2.21,4,4,0,0,1,3.39,1.74,5.34,5.34,0,0,1,.64,2.94v7.84Z"/></svg>