<svg id="Layer_1" data-name="Layer 1" xmlns="http://www.w3.org/2000/svg" viewBox="0 0 160 600"><defs><style>.cls-1{fill:#010121;}</style></defs><title>text</title><path class="cls-1" d="M40.1,214.87h1.19v7.5h9.16v-7.5h1.2V232h-1.2v-8.58H41.29V232H40.1Z"/><path class="cls-1" d="M55.69,228.89c0-2.77,2.5-4.09,8.05-4.71,0-1.91-.49-4-2.94-4a6.81,6.81,0,0,0-4,1.47l-.53-.86a8.38,8.38,0,0,1,4.64-1.62c3,0,4,2.15,4,4.82v8h-1l-.13-1.62h-.06a7.33,7.33,0,0,1-4.43,1.93C57.33,232.31,55.69,231.24,55.69,228.89Zm8.05.42v-4.25c-5.13.59-6.88,1.78-6.88,3.77a2.34,2.34,0,0,0,2.65,2.48C60.94,231.31,62.2,230.62,63.74,229.31Z"/><path class="cls-1" d="M69.35,219.51h1l.12,2.33h.06c.84-1.53,2.07-2.64,3.55-2.64a2.64,2.64,0,0,1,1.24.26l-.26,1a2.81,2.81,0,0,0-1.13-.21c-1.12,0-2.45.86-3.41,3.22V232H69.35Z"/><path class="cls-1" d="M81.75,225.78c0-4,2.56-6.58,5.54-6.58a5.75,5.75,0,0,1,3.76,1.54l-.06-2.3v-5.15h1.15V232h-1L91,230.38H91a5.84,5.84,0,0,1-4.07,1.93C83.78,232.31,81.75,230,81.75,225.78ZM91,229.23v-7.4a5.27,5.27,0,0,0-3.64-1.61c-2.48,0-4.4,2.43-4.4,5.56,0,3.32,1.48,5.51,4.13,5.51A5.53,5.53,0,0,0,91,229.23Z"/><path class="cls-1" d="M95.88,225.78c0-4.07,2.65-6.58,5.45-6.58,3,0,4.77,2.11,4.77,5.78a6,6,0,0,1-.06.94h-9c0,3.15,1.89,5.4,4.7,5.4a5.66,5.66,0,0,0,3.36-1.11l.47.87a6.79,6.79,0,0,1-3.94,1.23C98.46,232.31,95.88,229.86,95.88,225.78ZM105,225c0-3.19-1.44-4.77-3.68-4.77s-4,1.78-4.28,4.77Z"/><path class="cls-1" d="M109.49,219.51h1l.13,2.33h0c.85-1.53,2.07-2.64,3.55-2.64a2.64,2.64,0,0,1,1.24.26l-.26,1a2.81,2.81,0,0,0-1.13-.21c-1.12,0-2.45.86-3.4,3.22V232h-1.15Z"/><path class="cls-1" d="M116.42,225.78c0-4.07,2.65-6.58,5.44-6.58,3,0,4.78,2.11,4.78,5.78a6,6,0,0,1-.06.94h-9c0,3.15,1.89,5.4,4.7,5.4a5.66,5.66,0,0,0,3.36-1.11l.47.87a6.79,6.79,0,0,1-3.94,1.23C119,232.31,116.42,229.86,116.42,225.78Zm9.14-.81c0-3.19-1.44-4.77-3.68-4.77s-4,1.78-4.28,4.77Z"/><path class="cls-1" d="M12.08,258.72v-8h1.15v7.86c0,2.65.83,3.91,2.84,3.91,1.49,0,2.57-.78,4-2.55v-9.22h1.15V263.2h-1l-.12-2.09h-.06c-1.23,1.43-2.51,2.4-4.24,2.4C13.27,263.51,12.08,262,12.08,258.72Z"/><path class="cls-1" d="M24.49,250.82l1.74-.11h4v1H24.49Zm1.71-2.88c0-2.48,1.11-3.76,3.09-3.76a4.73,4.73,0,0,1,1.82.42l-.31.94a3.4,3.4,0,0,0-1.49-.35c-1.35,0-2,1-2,2.83V263.2H26.2Z"/><path class="cls-1" d="M31.56,257c0-4.17,2.6-6.58,5.6-6.58s5.61,2.41,5.61,6.58-2.61,6.53-5.61,6.53S31.56,261.11,31.56,257Zm10,0c0-3.29-1.87-5.56-4.4-5.56s-4.4,2.27-4.4,5.56,1.88,5.52,4.4,5.52S41.56,260.27,41.56,257Z"/><path class="cls-1" d="M46.52,250.71h1l.12,2.33h.06c.85-1.53,2.07-2.64,3.55-2.64a2.64,2.64,0,0,1,1.24.26l-.26,1a2.81,2.81,0,0,0-1.13-.21c-1.12,0-2.45.86-3.4,3.22v8.49H46.52Z"/><path class="cls-1" d="M54.56,258.72v-8h1.15v7.86c0,2.65.84,3.91,2.85,3.91,1.48,0,2.56-.78,4-2.55v-9.22h1.15V263.2h-1l-.13-2.09h-.05c-1.23,1.43-2.52,2.4-4.24,2.4C55.76,263.51,54.56,262,54.56,258.72Z"/><path class="cls-1" d="M68.8,259.75v-8h-2v-.9l2-.11L69,247.1h1v3.61h3.62v1H70v8.12c0,1.59.4,2.67,2.13,2.67a4.44,4.44,0,0,0,1.56-.4l.3.93a7,7,0,0,1-2,.47C69.51,263.51,68.8,262,68.8,259.75Z"/><path class="cls-1" d="M74.81,261.79l.67-.84a5.77,5.77,0,0,0,4,1.58c2,0,3-1.15,3-2.47,0-1.56-1.62-2.25-3.06-2.77-1.88-.67-4-1.43-4-3.56,0-1.8,1.43-3.33,4-3.33A5.86,5.86,0,0,1,83,251.7l-.61.82a4.82,4.82,0,0,0-3-1.13c-2,0-2.83,1.12-2.83,2.27,0,1.42,1.47,2,3,2.53,1.93.73,4.07,1.37,4.07,3.8,0,1.88-1.5,3.52-4.2,3.52A7.16,7.16,0,0,1,74.81,261.79Z"/><path class="cls-1" d="M86.45,246.68a1,1,0,0,1,2.09,0,1,1,0,0,1-2.09,0Zm.45,4H88V263.2H86.9Z"/><path class="cls-1" d="M91.79,265.75a3.91,3.91,0,0,1,1.87-3v-.1a2.25,2.25,0,0,1-1.1-2,2.94,2.94,0,0,1,1.36-2.31v-.1a4.58,4.58,0,0,1-1.58-3.42,4.31,4.31,0,0,1,4.39-4.41,4.5,4.5,0,0,1,1.66.31h4.23v1h-2.9a4.15,4.15,0,0,1,1.38,3.13,4.35,4.35,0,0,1-6.43,3.88,2.28,2.28,0,0,0-1,1.81c0,.9.52,1.62,2.39,1.62h2.67c2.81,0,4.12.89,4.12,2.86,0,2.16-2.31,4.22-5.9,4.22C93.77,269.21,91.79,267.86,91.79,265.75Zm9.86-.63c0-1.38-1-1.9-2.89-1.9H96.09a8.27,8.27,0,0,1-1.55-.21,3.23,3.23,0,0,0-1.63,2.62c0,1.58,1.5,2.65,4.13,2.65C99.86,268.28,101.65,266.69,101.65,265.12ZM100,254.81a3.24,3.24,0,1,0-6.46,0,3.24,3.24,0,1,0,6.46,0Z"/><path class="cls-1" d="M106.65,261.94h-.05l-.13,1.26h-1V244.5h1.15v5.42l-.06,2.44a7.08,7.08,0,0,1,4.3-2c3.35,0,5,2.51,5,6.37,0,4.24-2.56,6.74-5.5,6.74A6.4,6.4,0,0,1,106.65,261.94Zm8-5.16c0-3.07-1.09-5.36-4-5.36a6.46,6.46,0,0,0-4.06,2.06v7.41a5.93,5.93,0,0,0,3.68,1.6C112.87,262.49,114.69,260.16,114.69,256.78Z"/><path class="cls-1" d="M118.32,260.09c0-2.77,2.5-4.09,8.05-4.71,0-1.91-.49-4-2.94-4a6.81,6.81,0,0,0-4,1.47l-.53-.86a8.45,8.45,0,0,1,4.64-1.62c3,0,4,2.15,4,4.82v8h-1l-.13-1.62h0a7.36,7.36,0,0,1-4.43,1.93C120,263.51,118.32,262.44,118.32,260.09Zm8.05.42v-4.25c-5.12.59-6.88,1.78-6.88,3.77a2.34,2.34,0,0,0,2.65,2.48C123.57,262.51,124.83,261.82,126.37,260.51Z"/><path class="cls-1" d="M132,250.71h1l.13,2.33h0c.85-1.53,2.07-2.64,3.55-2.64a2.64,2.64,0,0,1,1.24.26l-.26,1a2.81,2.81,0,0,0-1.13-.21c-1.12,0-2.45.86-3.4,3.22v8.49H132Z"/><path class="cls-1" d="M138.91,257c0-4.07,2.65-6.58,5.44-6.58,3,0,4.78,2.11,4.78,5.78a6,6,0,0,1-.06.94h-9c0,3.15,1.89,5.4,4.7,5.4a5.66,5.66,0,0,0,3.36-1.11l.47.88a6.87,6.87,0,0,1-3.94,1.22C141.49,263.51,138.91,261.06,138.91,257Zm9.14-.81c0-3.19-1.44-4.77-3.69-4.77s-4,1.78-4.28,4.77Z"/><path class="cls-1" d="M22.31,277.27h1.2V294.4h-1.2Z"/><path class="cls-1" d="M32.24,278.29H26.79v-1h12.1v1H33.44V294.4h-1.2Z"/><path class="cls-1" d="M38.67,287.41h5.71v1H38.67Z"/><path class="cls-1" d="M47.79,281.91h1l.13,1.57H49a7.24,7.24,0,0,1,4.23-1.88c3.35,0,5,2.51,5,6.37,0,4.24-2.56,6.74-5.5,6.74a6.55,6.55,0,0,1-3.76-1.53l0,2.3v4.57H47.79ZM57,288c0-3.07-1.1-5.36-4-5.36-1.24,0-2.55.73-4.06,2.06v7.41a6,6,0,0,0,3.68,1.6C55.15,293.69,57,291.36,57,288Z"/><path class="cls-1" d="M61.94,281.91h1l.12,2.33h.06c.84-1.53,2.07-2.64,3.55-2.64a2.64,2.64,0,0,1,1.24.26l-.26,1a2.81,2.81,0,0,0-1.13-.21c-1.12,0-2.45.86-3.41,3.22v8.49H61.94Z"/><path class="cls-1" d="M68.87,288.18c0-4.18,2.6-6.58,5.6-6.58s5.61,2.4,5.61,6.58-2.61,6.53-5.61,6.53S68.87,292.31,68.87,288.18Zm10,0c0-3.29-1.88-5.56-4.4-5.56s-4.4,2.27-4.4,5.56,1.88,5.52,4.4,5.52S78.87,291.47,78.87,288.18Z"/><path class="cls-1" d="M82.25,293l.66-.84a5.8,5.8,0,0,0,4,1.58c2,0,3-1.15,3-2.47,0-1.56-1.61-2.25-3-2.77-1.89-.67-4-1.43-4-3.56,0-1.8,1.42-3.33,4-3.33a5.86,5.86,0,0,1,3.57,1.3l-.62.82a4.75,4.75,0,0,0-3-1.14c-1.95,0-2.83,1.13-2.83,2.28,0,1.42,1.47,2,3,2.52,1.94.74,4.08,1.38,4.08,3.81,0,1.88-1.5,3.52-4.21,3.52A7.11,7.11,0,0,1,82.25,293Z"/><path class="cls-1" d="M91.09,300.05l.26-.94a4.18,4.18,0,0,0,1.31.25c1.41,0,1.68-1.13,1.68-2.72V281.91h1.14v14.81c0,2.44-.86,3.64-2.79,3.64A4.5,4.5,0,0,1,91.09,300.05Zm2.8-22.17a1,1,0,0,1,2.09,0,1,1,0,0,1-2.09,0Z"/><path class="cls-1" d="M99.23,288.18c0-4.07,2.65-6.58,5.45-6.58,3,0,4.78,2.11,4.78,5.78a5,5,0,0,1-.07.94h-9c0,3.15,1.89,5.4,4.7,5.4a5.64,5.64,0,0,0,3.36-1.11l.47.87a6.76,6.76,0,0,1-3.93,1.23C101.82,294.71,99.23,292.26,99.23,288.18Zm9.15-.81c0-3.19-1.45-4.77-3.69-4.77s-4,1.78-4.28,4.77Z"/><path class="cls-1" d="M112.84,275.69H114v13.79H114l6.16-7.57h1.33l-4.07,4.94,4.75,7.55h-1.28l-4.15-6.69L114,291v3.4h-1.14Z"/><path class="cls-1" d="M124.86,291v-8h-2V282l2-.11.14-3.61h1v3.61h3.62v1H126V291c0,1.59.4,2.67,2.12,2.67a4.55,4.55,0,0,0,1.57-.4l.3.93a7.06,7.06,0,0,1-2,.47C125.56,294.71,124.86,293.19,124.86,291Z"/><path class="cls-1" d="M137.73,280.71a2.8,2.8,0,0,0-2.95-3,4.4,4.4,0,0,0-3.35,1.65l-.72-.64a5.52,5.52,0,0,1,4.17-2,3.78,3.78,0,0,1,4,4c0,3.55-4.35,5.15-3.86,9.11h-1C133.43,285.42,137.73,283.92,137.73,280.71Zm-4.22,12.84a1.1,1.1,0,1,1,1.1,1.16A1.12,1.12,0,0,1,133.51,293.55Z"/></svg>