<svg id="Layer_1" data-name="Layer 1" xmlns="http://www.w3.org/2000/svg" viewBox="0 0 980 240"><defs><style>.cls-1{fill:#d80201;}</style></defs><title>text</title><path class="cls-1" d="M491.31,105.69a8.58,8.58,0,0,1-7.56-4.19l2.77-2.67a5,5,0,0,0,4.62,2.94,3.13,3.13,0,0,0,3.4-3.1c0-4.52-9.67-2.38-9.67-9.47,0-3.89,3.14-6.4,6.87-6.4a9.65,9.65,0,0,1,6.44,2.44l-2.24,2.94a4.45,4.45,0,0,0-3.56-1.78c-1.42,0-3.07.89-3.07,2.48,0,3.73,9.67,1.88,9.67,9.57C499,102.92,495.67,105.69,491.31,105.69Z"/><path class="cls-1" d="M510.91,105.63a5.72,5.72,0,0,1-4.79-2.34v9.5h-4V90.88h4v1.82a5.69,5.69,0,0,1,4.69-2.28c4.26,0,7.06,3.53,7.06,7.62S515.11,105.63,510.91,105.63ZM509.73,94a4,4,0,1,0,4,4A4,4,0,0,0,509.73,94Z"/><path class="cls-1" d="M531.84,105.17v-1.88a5.52,5.52,0,0,1-4.65,2.34c-4.29,0-7-3.56-7-7.66s2.74-7.56,6.93-7.56a6,6,0,0,1,4.75,2.28V90.88h4v14.29Zm-6.9-17a2.38,2.38,0,1,1,0-4.75,2.38,2.38,0,0,1,0,4.75ZM528.27,94a4,4,0,1,0,4,4A4,4,0,0,0,528.27,94Zm3.53-5.81a2.41,2.41,0,0,1-2.38-2.38,2.38,2.38,0,1,1,2.38,2.38Z"/><path class="cls-1" d="M549.46,105.17V97.25c0-1.95-.43-3.43-2.71-3.43-2.48,0-3.07,1.82-3.07,4v7.39h-4V90.88h4v1.75a5.28,5.28,0,0,1,4.49-2.21,4.94,4.94,0,0,1,5.28,5.68v9.08Z"/><path class="cls-1" d="M567,105.17V97.25c0-1.95-.43-3.43-2.71-3.43-2.48,0-3.07,1.82-3.07,4v7.39h-4V90.88h4v1.75a5.28,5.28,0,0,1,4.49-2.21A4.94,4.94,0,0,1,571,96.09v9.08Z"/><path class="cls-1" d="M585.79,105.17v-1.88a5.52,5.52,0,0,1-4.65,2.34c-4.29,0-7-3.56-7-7.66s2.74-7.56,6.93-7.56a6,6,0,0,1,4.75,2.28V90.88h4v14.29ZM582.23,94a4,4,0,1,0,4,4A4,4,0,0,0,582.23,94Z"/><path class="cls-1" d="M603.41,105.17V97.25c0-1.95-.43-3.43-2.71-3.43-2.48,0-3.07,1.82-3.07,4v7.39h-4V90.88h4v1.75a5.28,5.28,0,0,1,4.49-2.21,4.94,4.94,0,0,1,5.28,5.68v9.08Z"/><path class="cls-1" d="M622.16,105.17v-1.88a5.52,5.52,0,0,1-4.65,2.34c-4.29,0-7-3.56-7-7.66s2.74-7.56,6.93-7.56a6,6,0,0,1,4.75,2.28V80.45h4v24.72ZM618.59,94a4,4,0,1,0,4,4A4,4,0,0,0,618.59,94Z"/><path class="cls-1" d="M633.34,98.66c.07,2.21,1.12,3.83,3.5,3.83a3.74,3.74,0,0,0,3.4-1.92l3.7.59c-1.25,3.07-3.79,4.46-7,4.46-4.62,0-7.66-3-7.66-7.62s2.9-7.59,7.49-7.59S644,93.58,644,98.14v.53Zm3.47-5.41a3.24,3.24,0,0,0-3.33,2.87h6.77A3.31,3.31,0,0,0,636.81,93.25Z"/><path class="cls-1" d="M647.86,109.79l-2.54-.3,3.5-8.88,3.7.43Z"/><path class="cls-1" d="M494.22,143.17v-1.88a5.52,5.52,0,0,1-4.65,2.34c-4.29,0-7-3.56-7-7.66s2.74-7.56,6.93-7.56a6,6,0,0,1,4.75,2.28v-1.82h4v14.29ZM490.65,132a4,4,0,1,0,4,4A4,4,0,0,0,490.65,132Z"/><path class="cls-1" d="M511.84,143.17v-7.92c0-1.95-.43-3.43-2.71-3.43-2.48,0-3.07,1.82-3.07,4v7.39h-4V128.88h4v1.75a5.28,5.28,0,0,1,4.49-2.21,4.94,4.94,0,0,1,5.28,5.68v9.08Z"/><path class="cls-1" d="M529.43,143.17v-7.92c0-1.95-.43-3.43-2.71-3.43-2.48,0-3.07,1.82-3.07,4v7.39h-4V128.88h4v1.75a5.28,5.28,0,0,1,4.49-2.21,4.94,4.94,0,0,1,5.28,5.68v9.08Z"/><path class="cls-1" d="M544.67,143.63c-4.55,0-8.18-2.84-8.18-7.59s3.63-7.62,8.22-7.62,8.12,2.87,8.12,7.59S549.19,143.63,544.67,143.63Zm0-11.62a4,4,0,1,0,4.06,4A4,4,0,0,0,544.64,132Z"/><path class="cls-1" d="M565.23,132.51a3.53,3.53,0,0,0-1.91-.5c-2.71,0-3.43,1.91-3.43,4.29v6.86h-4V128.88h4V131a4.66,4.66,0,0,1,5.91-2.28Z"/><path class="cls-1" d="M567.77,143.17V118.45h4v24.72Z"/><path class="cls-1" d="M582.49,143.63c-3.93,0-6.9-1.75-6.9-6v-8.75h4V137c0,1.95.83,3.27,2.9,3.27s2.9-1.32,2.9-3.27v-8.09h4v8.75C589.42,141.88,586.42,143.63,582.49,143.63Z"/><path class="cls-1" d="M603,143.17v-7.92c0-1.95-.43-3.43-2.71-3.43-2.47,0-3.07,1.82-3.07,4v7.39h-4V128.88h4v1.75a5.28,5.28,0,0,1,4.49-2.21,4.94,4.94,0,0,1,5.28,5.68v9.08Z"/><path class="cls-1" d="M621.76,143.17v-1.88a5.52,5.52,0,0,1-4.65,2.34c-4.29,0-7-3.56-7-7.66s2.74-7.56,6.93-7.56a6,6,0,0,1,4.75,2.28V118.45h4v24.72ZM618.19,132a4,4,0,1,0,4,4A4,4,0,0,0,618.19,132Z"/><path class="cls-1" d="M640.54,143.17v-1.88a5.52,5.52,0,0,1-4.65,2.34c-4.29,0-7-3.56-7-7.66s2.74-7.56,6.93-7.56a6,6,0,0,1,4.75,2.28v-1.82h4v14.29ZM637,132a4,4,0,1,0,4,4A4,4,0,0,0,637,132Z"/><path class="cls-1" d="M650.6,143.6a2.57,2.57,0,1,1,2.58-2.58A2.58,2.58,0,0,1,650.6,143.6Zm-2-6.73V121.15h4.09v15.71Z"/></svg>