<svg id="Layer_1" data-name="Layer 1" xmlns="http://www.w3.org/2000/svg" viewBox="0 0 980 240"><defs><style>.cls-1{fill:#d80201;}</style></defs><title>text</title><path class="cls-1" d="M553.23,95.46c-2.28,2.45-5.85,2.06-8.89,2.06v8.65h-4.55V82.82h6.79c2.31,0,4.34.18,6.16,1.79a7.43,7.43,0,0,1,2.38,5.64A7.67,7.67,0,0,1,553.23,95.46Zm-4-7.95a5.44,5.44,0,0,0-3.33-.74h-1.58v6.79h1.86c2.27,0,4.24-.74,4.24-3.36A3.46,3.46,0,0,0,549.24,87.51Z"/><path class="cls-1" d="M567.75,94.86a3.74,3.74,0,0,0-2-.52c-2.87,0-3.64,2-3.64,4.55v7.28h-4.24V91h4.24v2.28a4.94,4.94,0,0,1,6.27-2.42Z"/><path class="cls-1" d="M574,99.27c.07,2.35,1.19,4.06,3.71,4.06a4,4,0,0,0,3.61-2l3.92.63c-1.33,3.26-4,4.73-7.46,4.73-4.9,0-8.12-3.15-8.12-8.09s3.08-8.05,7.95-8.05,7.74,3.36,7.74,8.19v.56Zm3.68-5.74a3.44,3.44,0,0,0-3.54,3h7.18A3.51,3.51,0,0,0,577.66,93.53Z"/><path class="cls-1" d="M607.93,106.17v-8.3c0-1.79-.28-3.75-2.52-3.75-2.49,0-2.91,2.28-2.91,4.27v7.77h-4.24V98.12A6.76,6.76,0,0,0,598,95.6a2.45,2.45,0,0,0-2.28-1.47,2.76,2.76,0,0,0-2.38,1.37,6.29,6.29,0,0,0-.49,2.91v7.77h-4.24V91h4.24v1.72a5.82,5.82,0,0,1,4.62-2.21,5.15,5.15,0,0,1,4.73,2.77,5.6,5.6,0,0,1,5-2.77,5,5,0,0,1,4.24,2.17,6.68,6.68,0,0,1,.81,3.68v9.8Z"/><path class="cls-1" d="M618.29,87.16a2.56,2.56,0,0,1,0-5.11,2.56,2.56,0,0,1,0,5.11Zm-2.14,19V91h4.24v15.16Z"/><path class="cls-1" d="M636,106.17v-2a5.86,5.86,0,0,1-4.94,2.49c-4.55,0-7.46-3.78-7.46-8.12s2.91-8,7.35-8a6.32,6.32,0,0,1,5,2.42V91h4.27v15.16Zm-7.32-18a2.52,2.52,0,1,1,0-5,2.52,2.52,0,0,1,0,5Zm3.54,6.16a4.25,4.25,0,1,0,4.24,4.24A4.23,4.23,0,0,0,632.19,94.34Zm3.75-6.16a2.56,2.56,0,0,1-2.52-2.52,2.52,2.52,0,1,1,2.52,2.52Z"/><path class="cls-1" d="M654.2,94.86a3.74,3.74,0,0,0-2-.52c-2.87,0-3.64,2-3.64,4.55v7.28h-4.24V91h4.24v2.28a4.94,4.94,0,0,1,6.27-2.42Z"/><path class="cls-1" d="M670,94.65v11.52h-4.24V94.65h-1.65V91h1.65V86.14a7.39,7.39,0,0,1,.67-3.57,6,6,0,0,1,5.25-3,5,5,0,0,1,2.24.52v3.89a4.22,4.22,0,0,0-1.93-.56c-1.89,0-2,2-2,3.4V91h3.92v3.64Z"/><path class="cls-1" d="M683.77,106.66c-4.83,0-8.68-3-8.68-8.05s3.85-8.09,8.72-8.09,8.61,3,8.61,8.05S688.57,106.66,683.77,106.66ZM680.1,88.17a2.52,2.52,0,0,1,0-5,2.52,2.52,0,1,1,0,5Zm3.64,6.16A4.25,4.25,0,1,0,688,98.61,4.29,4.29,0,0,0,683.74,94.34Zm3.64-6.16a2.56,2.56,0,0,1-2.52-2.52,2.52,2.52,0,1,1,2.52,2.52Z"/><path class="cls-1" d="M705.58,94.86a3.74,3.74,0,0,0-2-.52c-2.87,0-3.64,2-3.64,4.55v7.28h-4.24V91h4.24v2.28a4.94,4.94,0,0,1,6.27-2.42Z"/><path class="cls-1" d="M513.13,132.65v11.52H508.9V132.65h-1.65V129h1.65v-4.87a7.39,7.39,0,0,1,.67-3.57,6,6,0,0,1,5.25-3,5,5,0,0,1,2.24.52v3.89a4.22,4.22,0,0,0-1.93-.56c-1.89,0-2,2-2,3.4V129h3.92v3.64Z"/><path class="cls-1" d="M528.92,132.86a3.74,3.74,0,0,0-2-.52c-2.87,0-3.64,2-3.64,4.55v7.28H519V129h4.24v2.28a4.94,4.94,0,0,1,6.27-2.42Z"/><path class="cls-1" d="M543.2,144.17v-2a5.86,5.86,0,0,1-4.94,2.49c-4.55,0-7.46-3.78-7.46-8.12s2.91-8,7.35-8a6.32,6.32,0,0,1,5,2.42V129h4.27v15.16Zm-3.78-11.83a4.25,4.25,0,1,0,4.24,4.24A4.23,4.23,0,0,0,539.42,132.34Z"/><path class="cls-1" d="M570.89,144.17v-8.3c0-1.79-.28-3.75-2.52-3.75-2.49,0-2.91,2.28-2.91,4.27v7.77h-4.24v-8.05a6.76,6.76,0,0,0-.31-2.52,2.45,2.45,0,0,0-2.28-1.47,2.76,2.76,0,0,0-2.38,1.37,6.29,6.29,0,0,0-.49,2.91v7.77h-4.24V129h4.24v1.72a5.82,5.82,0,0,1,4.62-2.21,5.15,5.15,0,0,1,4.73,2.77,5.6,5.6,0,0,1,5-2.77,5,5,0,0,1,4.24,2.17,6.68,6.68,0,0,1,.81,3.68v9.8Z"/><path class="cls-1" d="M583.45,132.65v11.52h-4.24V132.65h-1.68V129h1.68v-5.18h4.24V129h3v3.64Z"/><path class="cls-1" d="M590.69,125.16a2.56,2.56,0,0,1,0-5.11,2.56,2.56,0,0,1,0,5.11Zm-2.14,19V129h4.24v15.16Z"/><path class="cls-1" d="M608.37,144.17v-2a5.86,5.86,0,0,1-4.94,2.49c-4.55,0-7.46-3.78-7.46-8.12s2.91-8,7.35-8a6.32,6.32,0,0,1,5,2.42v-13h4.27v26.22Zm-3.78-11.83a4.25,4.25,0,1,0,4.24,4.24A4.23,4.23,0,0,0,604.59,132.34Z"/><path class="cls-1" d="M620.23,137.27c.07,2.35,1.19,4.06,3.71,4.06a4,4,0,0,0,3.61-2l3.92.63c-1.33,3.26-4,4.73-7.46,4.73-4.9,0-8.12-3.15-8.12-8.09s3.08-8.05,7.95-8.05,7.74,3.36,7.74,8.19v.56Zm3.68-5.74a3.44,3.44,0,0,0-3.54,3h7.18A3.51,3.51,0,0,0,623.91,131.53Z"/><path class="cls-1" d="M645.19,144.17v-8.4c0-2.07-.46-3.64-2.87-3.64-2.63,0-3.26,1.93-3.26,4.2v7.84h-4.24V129h4.24v1.86a5.59,5.59,0,0,1,4.76-2.35,5.23,5.23,0,0,1,5.6,6v9.63Z"/><path class="cls-1" d="M658.31,144.66a8.06,8.06,0,0,1-5.78-2.52l2.24-2.59a4.92,4.92,0,0,0,3.57,1.79,1.78,1.78,0,0,0,1.93-1.68c0-2.59-6.76-1.29-6.76-6.41,0-3.08,2.56-4.8,5.43-4.8a7.81,7.81,0,0,1,4.94,1.61l-2.1,2.49a4.23,4.23,0,0,0-2.52-1c-.73,0-1.61.46-1.61,1.29,0,2.21,7,1.23,7,6.41C664.65,142.77,661.57,144.66,658.31,144.66Z"/><path class="cls-1" d="M684.11,144.48h-2L674.41,129h4.76l4,8.54,4-8.54h4.76Z"/><path class="cls-1" d="M696,125.16a2.56,2.56,0,0,1,0-5.11,2.56,2.56,0,0,1,0,5.11Zm-2.13,19V129h4.24v15.16Z"/><path class="cls-1" d="M702.13,144.17V117.95h4.24v26.22Z"/><path class="cls-1" d="M710.43,144.17V117.95h4.24v26.22Z"/><path class="cls-1" d="M730.31,144.17v-2a5.86,5.86,0,0,1-4.94,2.49c-4.55,0-7.46-3.78-7.46-8.12s2.91-8,7.35-8a6.32,6.32,0,0,1,5,2.42V129h4.27v15.16Zm-3.78-11.83a4.25,4.25,0,1,0,4.24,4.24A4.23,4.23,0,0,0,726.53,132.34Z"/></svg>