<svg id="Layer_1" data-name="Layer 1" xmlns="http://www.w3.org/2000/svg" viewBox="0 0 980 240"><defs><style>.cls-1{fill:#d80201;}</style></defs><title>text</title><path class="cls-1" d="M537.66,106.73a9.09,9.09,0,0,1-8-4.45l2.94-2.84a5.35,5.35,0,0,0,4.9,3.12,3.32,3.32,0,0,0,3.6-3.29c0-4.8-10.26-2.52-10.26-10,0-4.13,3.33-6.79,7.28-6.79A10.23,10.23,0,0,1,544.94,85l-2.38,3.12a4.72,4.72,0,0,0-3.78-1.89c-1.5,0-3.26.95-3.26,2.63,0,4,10.26,2,10.26,10.15C545.78,103.79,542.28,106.73,537.66,106.73Z"/><path class="cls-1" d="M558.45,106.66a6.06,6.06,0,0,1-5.08-2.49v10.08h-4.24V91h4.24v1.92a6,6,0,0,1,5-2.42c4.51,0,7.49,3.75,7.49,8.09S562.9,106.66,558.45,106.66Zm-1.26-12.32a4.25,4.25,0,1,0,4.24,4.24A4.23,4.23,0,0,0,557.19,94.34Z"/><path class="cls-1" d="M580.64,106.17v-2a5.86,5.86,0,0,1-4.94,2.49c-4.55,0-7.46-3.78-7.46-8.12s2.91-8,7.35-8a6.32,6.32,0,0,1,5,2.42V91h4.27v15.16Zm-7.32-18a2.52,2.52,0,0,1,0-5,2.52,2.52,0,0,1,0,5Zm3.54,6.16a4.25,4.25,0,1,0,4.24,4.24A4.23,4.23,0,0,0,576.86,94.34Zm3.75-6.16a2.56,2.56,0,0,1-2.52-2.52,2.52,2.52,0,1,1,2.52,2.52Z"/><path class="cls-1" d="M599.33,106.17v-8.4c0-2.07-.46-3.64-2.87-3.64-2.63,0-3.26,1.92-3.26,4.2v7.84H589V91h4.24v1.86A5.6,5.6,0,0,1,598,90.52a5.24,5.24,0,0,1,5.6,6v9.63Z"/><path class="cls-1" d="M618,106.17v-8.4c0-2.07-.46-3.64-2.87-3.64-2.62,0-3.25,1.92-3.25,4.2v7.84h-4.24V91h4.24v1.86a5.59,5.59,0,0,1,4.76-2.35,5.24,5.24,0,0,1,5.6,6v9.63Z"/><path class="cls-1" d="M637.86,106.17v-2a5.85,5.85,0,0,1-4.94,2.49c-4.55,0-7.46-3.78-7.46-8.12s2.91-8,7.35-8a6.31,6.31,0,0,1,5,2.42V91h4.27v15.16Zm-3.78-11.83a4.25,4.25,0,1,0,4.24,4.24A4.23,4.23,0,0,0,634.08,94.34Z"/><path class="cls-1" d="M656.55,106.17v-8.4c0-2.07-.46-3.64-2.87-3.64-2.63,0-3.26,1.92-3.26,4.2v7.84h-4.24V91h4.24v1.86a5.6,5.6,0,0,1,4.76-2.35,5.24,5.24,0,0,1,5.6,6v9.63Z"/><path class="cls-1" d="M676.43,106.17v-2a5.86,5.86,0,0,1-4.94,2.49c-4.55,0-7.46-3.78-7.46-8.12s2.91-8,7.35-8a6.32,6.32,0,0,1,5,2.42v-13h4.27v26.22Zm-3.78-11.83a4.25,4.25,0,1,0,4.24,4.24A4.23,4.23,0,0,0,672.65,94.34Z"/><path class="cls-1" d="M688.3,99.27c.07,2.35,1.19,4.06,3.71,4.06a4,4,0,0,0,3.61-2l3.92.63c-1.33,3.26-4,4.73-7.46,4.73-4.9,0-8.12-3.15-8.12-8.09s3.08-8.05,7.95-8.05,7.74,3.36,7.74,8.19v.56ZM692,93.53a3.44,3.44,0,0,0-3.54,3h7.18A3.51,3.51,0,0,0,692,93.53Z"/><path class="cls-1" d="M703.7,111.07l-2.7-.31,3.71-9.42,3.92.46Z"/><path class="cls-1" d="M540.74,144.17v-2a5.85,5.85,0,0,1-4.94,2.49c-4.55,0-7.46-3.78-7.46-8.12s2.91-8,7.35-8a6.31,6.31,0,0,1,5,2.42V129H545v15.16ZM537,132.34a4.25,4.25,0,1,0,4.24,4.24A4.23,4.23,0,0,0,537,132.34Z"/><path class="cls-1" d="M559.43,144.17v-8.4c0-2.07-.46-3.64-2.87-3.64-2.62,0-3.25,1.92-3.25,4.2v7.84h-4.24V129h4.24v1.86a5.59,5.59,0,0,1,4.76-2.35,5.24,5.24,0,0,1,5.6,6v9.63Z"/><path class="cls-1" d="M578.09,144.17v-8.4c0-2.07-.46-3.64-2.87-3.64-2.63,0-3.26,1.92-3.26,4.2v7.84h-4.24V129H572v1.86a5.6,5.6,0,0,1,4.76-2.35,5.24,5.24,0,0,1,5.6,6v9.63Z"/><path class="cls-1" d="M594.25,144.66c-4.83,0-8.68-3-8.68-8.05s3.85-8.09,8.72-8.09,8.61,3,8.61,8.05S599.05,144.66,594.25,144.66Zm0-12.32a4.25,4.25,0,1,0,4.31,4.27A4.29,4.29,0,0,0,594.22,132.34Z"/><path class="cls-1" d="M616.06,132.86a3.74,3.74,0,0,0-2-.53c-2.87,0-3.64,2-3.64,4.55v7.28h-4.24V129h4.24v2.28a4.94,4.94,0,0,1,6.27-2.42Z"/><path class="cls-1" d="M618.75,144.17V117.95H623v26.22Z"/><path class="cls-1" d="M634.36,144.66c-4.17,0-7.32-1.86-7.32-6.37V129h4.24v8.58c0,2.06.88,3.46,3.08,3.46s3.08-1.4,3.08-3.46V129h4.27v9.28C641.71,142.8,638.53,144.66,634.36,144.66Z"/><path class="cls-1" d="M656.13,144.17v-8.4c0-2.07-.46-3.64-2.87-3.64-2.63,0-3.26,1.92-3.26,4.2v7.84h-4.24V129H650v1.86a5.6,5.6,0,0,1,4.76-2.35,5.24,5.24,0,0,1,5.6,6v9.63Z"/><path class="cls-1" d="M676,144.17v-2a5.86,5.86,0,0,1-4.94,2.49c-4.55,0-7.46-3.78-7.46-8.12s2.91-8,7.35-8a6.32,6.32,0,0,1,5,2.42v-13h4.27v26.22Zm-3.78-11.83a4.25,4.25,0,1,0,4.24,4.24A4.23,4.23,0,0,0,672.23,132.34Z"/><path class="cls-1" d="M695.93,144.17v-2a5.85,5.85,0,0,1-4.94,2.49c-4.55,0-7.46-3.78-7.46-8.12s2.91-8,7.35-8a6.31,6.31,0,0,1,5,2.42V129h4.27v15.16Zm-3.78-11.83a4.25,4.25,0,1,0,4.24,4.24A4.23,4.23,0,0,0,692.15,132.34Z"/><path class="cls-1" d="M706.6,144.62a2.73,2.73,0,1,1,2.73-2.73A2.73,2.73,0,0,1,706.6,144.62Zm-2.17-7.14V120.82h4.34v16.66Z"/></svg>