<svg id="Layer_1" data-name="Layer 1" xmlns="http://www.w3.org/2000/svg" viewBox="0 0 980 240"><defs><style>.cls-1{fill:#d80201;}</style></defs><title>text</title><path class="cls-1" d="M303.26,125.24c-1.24,6.16-6.48,9.84-12.64,9.84-8.08,0-14-5.76-14-13.88s6.08-14,14.16-14a12.73,12.73,0,0,1,11.44,6.28l-4.52,2.44a7.83,7.83,0,0,0-7-4c-5.2,0-8.76,4.2-8.76,9.24s3.56,9.16,8.76,9.16c3.48,0,6.52-2.08,7-5.68h-6.28V120.2h12.24v.64A23.11,23.11,0,0,1,303.26,125.24Z"/><path class="cls-1" d="M307.7,134.48v-30h4.84v30Z"/><path class="cls-1" d="M326.18,135c-5.52,0-9.92-3.44-9.92-9.2s4.4-9.24,10-9.24,9.84,3.48,9.84,9.2S331.66,135,326.18,135ZM322,113.92a2.88,2.88,0,1,1,0-5.76,2.88,2.88,0,1,1,0,5.76Zm4.16,7a4.86,4.86,0,1,0,4.92,4.88A4.9,4.9,0,0,0,326.14,121Zm4.16-7a2.92,2.92,0,0,1-2.88-2.88,2.88,2.88,0,1,1,2.88,2.88Z"/><path class="cls-1" d="M361.9,134.48V125c0-2-.32-4.28-2.88-4.28-2.84,0-3.32,2.6-3.32,4.88v8.88h-4.84v-9.2a7.71,7.71,0,0,0-.36-2.88,2.8,2.8,0,0,0-2.6-1.68,3.16,3.16,0,0,0-2.72,1.56,7.19,7.19,0,0,0-.56,3.32v8.88h-4.84V117.16h4.84v2a6.65,6.65,0,0,1,5.28-2.52,5.88,5.88,0,0,1,5.4,3.16A6.4,6.4,0,0,1,361,116.6a5.7,5.7,0,0,1,4.84,2.48,7.63,7.63,0,0,1,.92,4.2v11.2Z"/><path class="cls-1" d="M376.26,121.32v13.16h-4.84V121.32H369.5v-4.16h1.92v-5.92h4.84v5.92h3.4v4.16Z"/><path class="cls-1" d="M405.42,134.48V132.2a6.69,6.69,0,0,1-5.64,2.84c-5.2,0-8.52-4.32-8.52-9.28s3.32-9.16,8.4-9.16a7.22,7.22,0,0,1,5.76,2.76v-2.2h4.88v17.32ZM401.1,121a4.86,4.86,0,1,0,4.84,4.84A4.83,4.83,0,0,0,401.1,121Z"/><path class="cls-1" d="M419.82,121.32v13.16H415V121.32h-1.92v-4.16H415v-5.92h4.84v5.92h3.4v4.16Z"/><path class="cls-1" d="M430.62,121.32v13.16h-4.84V121.32h-1.92v-4.16h1.92v-5.92h4.84v5.92H434v4.16Z"/><path class="cls-1" d="M451.54,121.32v13.16H446.7V121.32h-1.88v-4.16h1.88V111.6a8.45,8.45,0,0,1,.76-4.08,6.86,6.86,0,0,1,6-3.48,5.72,5.72,0,0,1,2.56.6v4.44a4.82,4.82,0,0,0-2.2-.64c-2.16,0-2.28,2.24-2.28,3.88v4.84H456v4.16Z"/><path class="cls-1" d="M467.26,135c-5.52,0-9.92-3.44-9.92-9.2s4.4-9.24,10-9.24,9.84,3.48,9.84,9.2S472.74,135,467.26,135Zm0-14.08a4.86,4.86,0,1,0,4.92,4.88A4.9,4.9,0,0,0,467.22,121Z"/><path class="cls-1" d="M492.18,121.56a4.28,4.28,0,0,0-2.32-.6c-3.28,0-4.16,2.32-4.16,5.2v8.32h-4.84V117.16h4.84v2.6a5.65,5.65,0,0,1,7.16-2.76Z"/><path class="cls-1" d="M517.37,134.48V125c0-2-.32-4.28-2.88-4.28-2.84,0-3.32,2.6-3.32,4.88v8.88h-4.84v-9.2a7.71,7.71,0,0,0-.36-2.88,2.8,2.8,0,0,0-2.6-1.68,3.16,3.16,0,0,0-2.72,1.56,7.2,7.2,0,0,0-.56,3.32v8.88h-4.84V117.16h4.84v2a6.65,6.65,0,0,1,5.28-2.52,5.88,5.88,0,0,1,5.4,3.16,6.4,6.4,0,0,1,5.68-3.16,5.7,5.7,0,0,1,4.84,2.48,7.63,7.63,0,0,1,.92,4.2v11.2Z"/><path class="cls-1" d="M540.1,134.48V132.2a6.69,6.69,0,0,1-5.64,2.84c-5.2,0-8.52-4.32-8.52-9.28s3.32-9.16,8.4-9.16a7.22,7.22,0,0,1,5.76,2.76v-2.2H545v17.32ZM535.78,121a4.86,4.86,0,1,0,4.84,4.84A4.83,4.83,0,0,0,535.78,121Z"/><path class="cls-1" d="M571.5,134.48,565,127l-.52.52v6.92h-4.84v-30h4.84v19l6.48-6.32h6.56l-8.12,7.6,8.76,9.72Z"/><path class="cls-1" d="M580.3,134.48v-30h4.84v30Z"/><path class="cls-1" d="M603,134.48V132.2a6.69,6.69,0,0,1-5.64,2.84c-5.2,0-8.52-4.32-8.52-9.28s3.32-9.16,8.4-9.16a7.22,7.22,0,0,1,5.76,2.76v-2.2h4.88v17.32ZM598.7,121a4.86,4.86,0,1,0,4.84,4.84A4.83,4.83,0,0,0,598.7,121Z"/><path class="cls-1" d="M623.85,121.56a4.28,4.28,0,0,0-2.32-.6c-3.28,0-4.16,2.32-4.16,5.2v8.32h-4.84V117.16h4.84v2.6a5.65,5.65,0,0,1,7.16-2.76Z"/><path class="cls-1" d="M632.69,121.32v13.16h-4.84V121.32h-1.92v-4.16h1.92v-5.92h4.84v5.92h3.4v4.16Z"/><path class="cls-1" d="M661.85,134.48V132.2a6.69,6.69,0,0,1-5.64,2.84c-5.2,0-8.52-4.32-8.52-9.28s3.32-9.16,8.4-9.16a7.22,7.22,0,0,1,5.76,2.76V104.52h4.88v30ZM657.53,121a4.86,4.86,0,1,0,4.84,4.84A4.83,4.83,0,0,0,657.53,121Z"/><path class="cls-1" d="M673.73,112.76a2.92,2.92,0,0,1,0-5.84,2.92,2.92,0,0,1,0,5.84Zm-2.44,21.72V117.16h4.84v17.32Z"/><path class="cls-1" d="M685.57,121.32v13.16h-4.84V121.32h-1.92v-4.16h1.92v-5.92h4.84v5.92H689v4.16Z"/><path class="cls-1" d="M696.37,121.32v13.16h-4.84V121.32h-1.92v-4.16h1.92v-5.92h4.84v5.92h3.4v4.16Z"/><path class="cls-1" d="M724.13,134.48v-9.6c0-2.36-.52-4.16-3.28-4.16-3,0-3.72,2.2-3.72,4.8v9h-4.84V117.16h4.84v2.12c1.6-1.84,3-2.68,5.44-2.68a6.64,6.64,0,0,1,5,2.08c1.24,1.44,1.36,3,1.36,4.8v11Z"/><path class="cls-1" d="M737.77,143.76h-5.48l6.36-11.88-8.2-14.72h5.64l5.2,9.84,5-9.84h5.52Z"/><path class="cls-1" d="M766.41,134.48V132.2a6.69,6.69,0,0,1-5.64,2.84c-5.2,0-8.52-4.32-8.52-9.28s3.32-9.16,8.4-9.16a7.22,7.22,0,0,1,5.76,2.76v-2.2h4.88v17.32ZM762.09,121a4.86,4.86,0,1,0,4.84,4.84A4.83,4.83,0,0,0,762.09,121Z"/><path class="cls-1" d="M797.77,134.48V125c0-2.4-.52-4.28-3.32-4.28-3,0-3.68,2.32-3.68,4.88v8.88h-4.84v-30h4.84V119.4a6.31,6.31,0,0,1,5.44-2.8,6.62,6.62,0,0,1,5,2.12c1.24,1.44,1.36,3.08,1.36,4.88v10.88Z"/><path class="cls-1" d="M815.61,135c-4.76,0-8.36-2.12-8.36-7.28v-10.6h4.84V127c0,2.36,1,4,3.52,4s3.52-1.6,3.52-4v-9.8H824v10.6C824,132.92,820.37,135,815.61,135Z"/><path class="cls-1" d="M834.17,135a9.21,9.21,0,0,1-6.6-2.88l2.56-3a5.62,5.62,0,0,0,4.08,2,2,2,0,0,0,2.2-1.92c0-3-7.72-1.48-7.72-7.32,0-3.52,2.92-5.48,6.2-5.48a8.92,8.92,0,0,1,5.64,1.84l-2.4,2.84a4.83,4.83,0,0,0-2.88-1.16c-.84,0-1.84.52-1.84,1.48,0,2.52,8,1.4,8,7.32C841.41,132.88,837.89,135,834.17,135Z"/><path class="cls-1" d="M853.85,122.16v3.4h-4.92v-7a7.89,7.89,0,0,0,1.4.16c2.44,0,5-1.24,5-4a3,3,0,0,0-3.08-3.08,2.83,2.83,0,0,0-2.88,2.84c0,.16,0,.32,0,.48h-5.2v-.48c0-4.36,4.08-7.16,8.16-7.16,4.28,0,8.08,3.08,8.08,7.52C860.49,118.84,857.53,121.28,853.85,122.16ZM851.49,135a3.12,3.12,0,1,1,3.12-3.12A3.13,3.13,0,0,1,851.49,135Z"/></svg>