<svg id="Layer_1" data-name="Layer 1" xmlns="http://www.w3.org/2000/svg" viewBox="0 0 980 120"><defs><style>.cls-1{fill:#d4ac76;}</style></defs><title>text</title><path class="cls-1" d="M854,56.88a4.77,4.77,0,0,1-1.9-.4,4.94,4.94,0,0,1-1.63-1.1l1.2-1.43a3.49,3.49,0,0,0,1.11.9,2.75,2.75,0,0,0,1.32.35,1.62,1.62,0,0,0,1.07-.34,1.08,1.08,0,0,0,.42-.87,1.49,1.49,0,0,0-1.1-1.39l-1.12-.45A4.3,4.3,0,0,1,851.7,51a2.58,2.58,0,0,1-.54-1.71,2.61,2.61,0,0,1,.85-1.91,2.92,2.92,0,0,1,2.13-.84,4.38,4.38,0,0,1,3.1,1.15l-1.11,1.4a2.61,2.61,0,0,0-2-.87,1.37,1.37,0,0,0-.9.29.88.88,0,0,0-.34.71.93.93,0,0,0,.27.69,2.61,2.61,0,0,0,.86.52l1.17.46a3.13,3.13,0,0,1,2.28,2.9,2.8,2.8,0,0,1-1,2.2A3.64,3.64,0,0,1,854,56.88Z"/><path class="cls-1" d="M865.69,52.5H862v2.57h4.09v1.68h-6v-10h5.85v1.68h-4v2.44h3.72Z"/><path class="cls-1" d="M876.54,56.75l-3.84-10h2l2.76,7.23,2.73-7.23h1.9l-3.8,10Z"/><path class="cls-1" d="M882.28,56.75l3.87-10h1.71l3.86,10h-1.94l-.53-1.39h-4.5l-.53,1.39ZM887,49.51l-1.61,4.17h3.2ZM888.47,45A1.45,1.45,0,0,1,887,46.43a1.41,1.41,0,0,1-1-.42,1.46,1.46,0,0,1,0-2,1.41,1.41,0,0,1,1-.42A1.45,1.45,0,0,1,888.47,45Zm-1.82.37a.49.49,0,0,0,.37.16.47.47,0,0,0,.37-.16.51.51,0,0,0,.15-.37.52.52,0,0,0-.15-.38.5.5,0,0,0-.37-.16.49.49,0,0,0-.37.16.49.49,0,0,0-.16.38A.49.49,0,0,0,886.65,45.36Z"/><path class="cls-1" d="M893.81,56.75v-10h3.93a3.37,3.37,0,0,1,2.42.91,3.13,3.13,0,0,1,1,2.39,3,3,0,0,1-.72,2,3.21,3.21,0,0,1-1.88,1.07l2.7,3.65h-2.12l-2.6-3.59h-.81v3.59Zm3.64-8.37H895.7v3.27h1.75a1.9,1.9,0,0,0,1.31-.44,1.63,1.63,0,0,0,0-2.35A1.77,1.77,0,0,0,897.45,48.38Z"/><path class="cls-1" d="M902.81,48.51V46.7h8.28v1.81h-3.2v8.24H906V48.51Z"/><path class="cls-1" d="M840.88,67.5h-3.72v2.57h4.08v1.68h-6v-10h5.85v1.68h-4v2.44h3.72Z"/><path class="cls-1" d="M844,71.75v-10H848a3.4,3.4,0,0,1,2.42.91,3.16,3.16,0,0,1,1,2.39,3,3,0,0,1-.72,2,3.19,3.19,0,0,1-1.87,1.07l2.7,3.65h-2.12l-2.61-3.59h-.81v3.59Zm3.64-8.37h-1.75v3.27h1.75a1.89,1.89,0,0,0,1.31-.44,1.53,1.53,0,0,0,.49-1.16,1.57,1.57,0,0,0-.5-1.19A1.82,1.82,0,0,0,847.67,63.38Z"/><path class="cls-1" d="M854,71.75v-10h3.31a3,3,0,0,1,2.2.84,2.79,2.79,0,0,1,.86,2.07,2.37,2.37,0,0,1-1.13,2,2.87,2.87,0,0,1,1.12.9,2.19,2.19,0,0,1,.41,1.28,2.75,2.75,0,0,1-.88,2.13,3.13,3.13,0,0,1-2.22.81Zm3.09-8.37h-1.35V65.9h1.5a1.36,1.36,0,0,0,1-.37,1.24,1.24,0,0,0,.39-.93,1.06,1.06,0,0,0-.43-.89A1.75,1.75,0,0,0,857.12,63.38Zm.28,4h-1.63v2.66h1.6a1.6,1.6,0,0,0,1.13-.38,1.34,1.34,0,0,0,0-1.92A1.61,1.61,0,0,0,857.4,67.41Z"/><path class="cls-1" d="M865.68,71.91a3.43,3.43,0,0,1-2.06-.64,3.27,3.27,0,0,1-1.22-1.66l1.6-.84a1.92,1.92,0,0,0,.63,1,1.77,1.77,0,0,0,1.14.36,1.38,1.38,0,0,0,1.12-.52,2.09,2.09,0,0,0,.43-1.36V61.7h1.88v6.59a3.47,3.47,0,0,1-1,2.67A3.53,3.53,0,0,1,865.68,71.91Z"/><path class="cls-1" d="M878.69,70.85a4.1,4.1,0,0,1-5.5,0,3.56,3.56,0,0,1-1.09-2.66V61.7H874v6.24a2.32,2.32,0,0,0,.51,1.55,2,2,0,0,0,2.87,0,2.28,2.28,0,0,0,.51-1.53V61.7h1.89v6.49A3.59,3.59,0,0,1,878.69,70.85Z"/><path class="cls-1" d="M882.88,71.75v-10h2.86a4.91,4.91,0,0,1,3.56,1.44,4.82,4.82,0,0,1,1.48,3.62,4.72,4.72,0,0,1-1.5,3.59,5.15,5.15,0,0,1-3.64,1.4Zm2.89-8.37h-1.15v6.69h1.16a2.87,2.87,0,0,0,2.22-1,3.4,3.4,0,0,0,.9-2.39,3.35,3.35,0,0,0-.91-2.38A3,3,0,0,0,885.77,63.38Z"/><path class="cls-1" d="M892.07,71.75l3.87-10h1.71l3.86,10h-1.94L899,70.36h-4.5L894,71.75Zm4.73-7.24-1.61,4.17h3.2Z"/><path class="cls-1" d="M903.6,71.75v-10h1.32l5,6.32V61.7h1.88v10h-1.26l-5-6.4v6.4Z"/><path class="cls-1" d="M915.08,71.75v-10H918a4.9,4.9,0,0,1,3.55,1.44A4.82,4.82,0,0,1,923,66.76a4.72,4.72,0,0,1-1.5,3.59,5.13,5.13,0,0,1-3.64,1.4ZM918,63.38h-1.15v6.69H918a2.87,2.87,0,0,0,2.22-1,3.4,3.4,0,0,0,.9-2.39,3.35,3.35,0,0,0-.91-2.38A3,3,0,0,0,918,63.38Z"/><path class="cls-1" d="M931.26,67.5h-3.72v2.57h4.09v1.68h-6v-10h5.85v1.68h-4v2.44h3.72Z"/></svg>