<svg id="Layer_1" data-name="Layer 1" xmlns="http://www.w3.org/2000/svg" viewBox="0 0 980 120"><defs><style>.cls-1{fill:#d4ac76;}</style></defs><title>text</title><path class="cls-1" d="M310,52V25.72h7.5a12.84,12.84,0,0,1,9.3,3.76,12.63,12.63,0,0,1,3.87,9.46,12.28,12.28,0,0,1-3.92,9.39A13.39,13.39,0,0,1,317.27,52Zm7.56-21.9h-3V47.61h3a7.57,7.57,0,0,0,5.82-2.54,9,9,0,0,0,2.33-6.26,8.65,8.65,0,0,0-2.37-6.21A7.72,7.72,0,0,0,317.6,30.1Z"/><path class="cls-1" d="M338.4,52V25.72h10.28A8.88,8.88,0,0,1,355,28.1a8.22,8.22,0,0,1,2.53,6.24,7.86,7.86,0,0,1-1.89,5.32,8.37,8.37,0,0,1-4.9,2.8L357.81,52h-5.54l-6.82-9.38h-2.12V52Zm9.52-21.9h-4.59v8.57h4.59a4.89,4.89,0,0,0,3.41-1.16,3.93,3.93,0,0,0,1.28-3,4.17,4.17,0,0,0-1.31-3.12A4.7,4.7,0,0,0,347.92,30.1Z"/><path class="cls-1" d="M391.16,38.84a13.65,13.65,0,0,1-27.3,0,13.65,13.65,0,0,1,27.3,0Zm-19.84,6.28a8.64,8.64,0,0,0,12.36,0,9,9,0,0,0,0-12.58,8.62,8.62,0,0,0-12.36,0,9.08,9.08,0,0,0,0,12.58ZM375.21,23a2.13,2.13,0,0,1-1.61.69A2.19,2.19,0,0,1,372,23a2.35,2.35,0,0,1-.67-1.69A2.27,2.27,0,0,1,373.6,19a2.14,2.14,0,0,1,1.59.68,2.25,2.25,0,0,1,.67,1.66A2.37,2.37,0,0,1,375.21,23ZM383,23a2.55,2.55,0,0,1-3.49,0,2.28,2.28,0,0,1-.72-1.69,2.18,2.18,0,0,1,.72-1.66,2.58,2.58,0,0,1,3.49,0,2.18,2.18,0,0,1,.72,1.66A2.28,2.28,0,0,1,383,23Z"/><path class="cls-1" d="M398.71,52V25.72h4.76l8.13,13,8.23-13H425V52h-4.93V34l-.39,0-8.15,12.58-7.95-12.42h.07V52Z"/><path class="cls-1" d="M434.07,52V25.72h4.76l8.13,13,8.23-13h5.16V52h-4.93V34L455,34l-8.15,12.58-7.95-12.42H439V52Z"/><path class="cls-1" d="M484.09,40.88h-9.73v6.73H485V52H469.43V25.72h15.3V30.1H474.36v6.4h9.73Z"/><path class="cls-1" d="M493,52V25.72h10.28a8.84,8.84,0,0,1,6.33,2.38,8.18,8.18,0,0,1,2.53,6.24,7.9,7.9,0,0,1-1.88,5.32,8.4,8.4,0,0,1-4.91,2.8L512.44,52H506.9l-6.82-9.38H498V52Zm9.52-21.9H498v8.57h4.59A4.86,4.86,0,0,0,506,37.51a3.9,3.9,0,0,0,1.28-3,4.17,4.17,0,0,0-1.31-3.12A4.7,4.7,0,0,0,502.55,30.1Z"/><path class="cls-1" d="M533.39,52V25.72h7.49a12.86,12.86,0,0,1,9.31,3.76,12.63,12.63,0,0,1,3.87,9.46,12.32,12.32,0,0,1-3.92,9.39A13.41,13.41,0,0,1,540.61,52Zm7.55-21.9h-3V47.61h3a7.56,7.56,0,0,0,5.81-2.54,8.92,8.92,0,0,0,2.34-6.26,8.65,8.65,0,0,0-2.37-6.21A7.73,7.73,0,0,0,540.94,30.1Z"/><path class="cls-1" d="M578.9,49.64a10.73,10.73,0,0,1-14.39,0,9.34,9.34,0,0,1-2.84-7v-17h4.93V42A6,6,0,0,0,568,46.09a5.23,5.23,0,0,0,7.49,0,5.92,5.92,0,0,0,1.35-4V25.72h4.93v17A9.33,9.33,0,0,1,578.9,49.64Z"/><path class="cls-1" d="M630,38.84a13.65,13.65,0,0,1-27.3,0,13.65,13.65,0,0,1,27.3,0Zm-19.84,6.28a8.64,8.64,0,0,0,12.36,0,9,9,0,0,0,0-12.58,8.62,8.62,0,0,0-12.36,0,9.08,9.08,0,0,0,0,12.58Z"/><path class="cls-1" d="M637.56,52V25.72h4.76l8.13,13,8.22-13h5.17V52h-4.93V34l-.39,0-8.16,12.58-7.94-12.42h.07V52Z"/><path class="cls-1" d="M319.25,92.8l10.14-26.28h4.45l10.1,26.28h-5.07l-1.39-3.64H325.72l-1.4,3.64Zm12.37-18.93-4.21,10.91h8.39Z"/><path class="cls-1" d="M345,71.24V66.52h21.66v4.72h-8.37V92.8h-4.93V71.24Z"/><path class="cls-1" d="M371.24,71.24V66.52H392.9v4.72h-8.37V92.8H379.6V71.24Z"/><path class="cls-1" d="M413.4,92.8V66.52h8.65a7.94,7.94,0,0,1,5.75,2.19,7.24,7.24,0,0,1,2.26,5.43,6.19,6.19,0,0,1-2.95,5.28A7.22,7.22,0,0,1,430,81.77a5.56,5.56,0,0,1,1.09,3.34,7.19,7.19,0,0,1-2.3,5.57A8.22,8.22,0,0,1,423,92.8Zm8.07-21.9H418v6.6h3.92a3.63,3.63,0,0,0,2.62-1,3.22,3.22,0,0,0,1-2.42,2.8,2.8,0,0,0-1.11-2.33A4.6,4.6,0,0,0,421.47,70.9Zm.75,10.54H418v7h4.16a4.26,4.26,0,0,0,3-1,3.54,3.54,0,0,0,.07-5A4.22,4.22,0,0,0,422.22,81.44Z"/><path class="cls-1" d="M451.63,66.52h5.29l-8.7,15.6V92.8h-4.93V82.29l-8.81-15.77h5.41l5.93,10.9Z"/><path class="cls-1" d="M477.83,81.82V77.43h9.42l0,2.25a13.44,13.44,0,0,1-1.92,7,13.21,13.21,0,0,1-5,4.84,13.51,13.51,0,0,1-6.7,1.72,13.65,13.65,0,0,1-9.69-23.27,13.24,13.24,0,0,1,9.76-4,12.94,12.94,0,0,1,9.79,4.25l-3.36,3.32a8.48,8.48,0,0,0-6.46-2.84,8.34,8.34,0,0,0-6.29,2.57,9.29,9.29,0,0,0,0,12.66,8,8,0,0,0,6,2.58,9.38,9.38,0,0,0,5.85-1.82,8.28,8.28,0,0,0,3.09-4.84Z"/><path class="cls-1" d="M511.49,81.82V77.43h9.42l0,2.25a13.44,13.44,0,0,1-1.92,7,13.14,13.14,0,0,1-5,4.84,13.51,13.51,0,0,1-6.7,1.72,13.65,13.65,0,0,1-9.69-23.27,13.24,13.24,0,0,1,9.76-4,12.94,12.94,0,0,1,9.79,4.25l-3.36,3.32a8.48,8.48,0,0,0-6.46-2.84A8.34,8.34,0,0,0,501,73.24a9.29,9.29,0,0,0,0,12.66,8,8,0,0,0,6,2.58,9.38,9.38,0,0,0,5.85-1.82,8.28,8.28,0,0,0,3.09-4.84Z"/><path class="cls-1" d="M524.51,92.8l10.14-26.28h4.45L549.2,92.8h-5.07l-1.39-3.64H531l-1.4,3.64Zm12.37-18.93-4.21,10.91h8.38Z"/><path class="cls-1" d="M585.54,92.8v-11H574.29v11h-4.93V66.52h4.93V77.09h11.25V66.52h4.93V92.8Z"/><path class="cls-1" d="M616.53,90.44a10.72,10.72,0,0,1-14.38,0,9.34,9.34,0,0,1-2.84-7v-17h4.93V82.84a6,6,0,0,0,1.36,4,4.65,4.65,0,0,0,3.74,1.59,4.7,4.7,0,0,0,3.75-1.57,5.92,5.92,0,0,0,1.35-4V66.52h4.93v17A9.3,9.3,0,0,1,616.53,90.44Z"/><path class="cls-1" d="M635.26,93.14a12.64,12.64,0,0,1-5-1,13,13,0,0,1-4.26-2.87l3.13-3.75a9.29,9.29,0,0,0,2.9,2.35,7.32,7.32,0,0,0,3.46.92,4.26,4.26,0,0,0,2.8-.9,2.82,2.82,0,0,0,1.09-2.27c0-1.63-1-2.85-2.88-3.64l-2.93-1.18a11.13,11.13,0,0,1-4.37-2.9,6.68,6.68,0,0,1-1.41-4.46,6.8,6.8,0,0,1,2.23-5,7.58,7.58,0,0,1,5.57-2.2,11.32,11.32,0,0,1,8.09,3l-2.9,3.67a6.77,6.77,0,0,0-5.19-2.28,3.53,3.53,0,0,0-2.36.75,2.36,2.36,0,0,0-.89,1.86,2.47,2.47,0,0,0,.7,1.8,6.83,6.83,0,0,0,2.25,1.35l3.07,1.23q5.85,2.34,6,7.59a7.35,7.35,0,0,1-2.47,5.75A9.6,9.6,0,0,1,635.26,93.14Z"/><path class="cls-1" d="M654.87,85.52v-.88a6.51,6.51,0,0,1,.76-3.4,6.13,6.13,0,0,1,2.54-2.18L660,77.94a4.43,4.43,0,0,0,1.57-3.43,3.67,3.67,0,0,0-1-2.59,3.73,3.73,0,0,0-2.71-1,3.23,3.23,0,0,0-2.62,1.19,4.74,4.74,0,0,0-1,3.06h-3.81a8.58,8.58,0,0,1,2.11-5.93,7.3,7.3,0,0,1,5.68-2.26A7.81,7.81,0,0,1,664,69.07a7.09,7.09,0,0,1,2.16,5.23q.4,3.87-3.3,6.21l-2,1.25a3.94,3.94,0,0,0-1.68,1,2.65,2.65,0,0,0-.47,1.72v1Zm3.73,7a2.5,2.5,0,0,1-1.78.76,2.17,2.17,0,0,1-1.68-.76,2.72,2.72,0,0,1-.68-1.86,2.8,2.8,0,0,1,.68-1.87,2.16,2.16,0,0,1,1.68-.78,2.53,2.53,0,0,1,1.78.75,2.63,2.63,0,0,1,.79,1.9A2.48,2.48,0,0,1,658.6,92.48Z"/></svg>