<svg id="Layer_1" data-name="Layer 1" xmlns="http://www.w3.org/2000/svg" viewBox="0 0 980 120"><defs><style>.cls-1{fill:#d4ac76;}</style></defs><title>text</title><path class="cls-1" d="M850.14,62.75v-10H852v8.24h3.69v1.81Z"/><path class="cls-1" d="M857.2,62.75l3.88-10h1.7l3.86,10H864.7l-.53-1.39h-4.5l-.53,1.39Zm3.86-11.08a.86.86,0,0,1-1.23,0,.87.87,0,0,1-.26-.65.87.87,0,0,1,.88-.89.79.79,0,0,1,.6.26.86.86,0,0,1,.26.63A.9.9,0,0,1,861.06,51.67Zm.87,3.84-1.61,4.17h3.21Zm2.12-3.84a.91.91,0,0,1-.67.26.89.89,0,0,1-.66-.26.85.85,0,0,1-.28-.65.81.81,0,0,1,.28-.63.89.89,0,0,1,.66-.26.91.91,0,0,1,.67.26.84.84,0,0,1,.28.63A.88.88,0,0,1,864.05,51.67Z"/><path class="cls-1" d="M871.57,62.88a4.69,4.69,0,0,1-1.89-.4,4.84,4.84,0,0,1-1.63-1.1l1.2-1.43a3.57,3.57,0,0,0,1.1.9,2.79,2.79,0,0,0,1.33.35,1.63,1.63,0,0,0,1.07-.34,1.08,1.08,0,0,0,.42-.87,1.49,1.49,0,0,0-1.11-1.39l-1.12-.45A4.38,4.38,0,0,1,869.27,57a2.58,2.58,0,0,1-.54-1.71,2.62,2.62,0,0,1,.86-1.91,2.89,2.89,0,0,1,2.13-.84,4.34,4.34,0,0,1,3.09,1.15l-1.11,1.4a2.59,2.59,0,0,0-2-.87,1.33,1.33,0,0,0-.9.29.88.88,0,0,0-.34.71.93.93,0,0,0,.26.69,2.85,2.85,0,0,0,.86.52l1.18.46a3.13,3.13,0,0,1,2.27,2.9,2.79,2.79,0,0,1-.94,2.2A3.65,3.65,0,0,1,871.57,62.88Z"/><path class="cls-1" d="M882.62,62.75v-10h1.82l3.1,4.95,3.15-4.95h2v10h-1.89V55.87l-.15,0-3.12,4.81-3-4.75h0v6.84Z"/><path class="cls-1" d="M901.48,58.5h-3.72v2.57h4.08v1.68h-6v-10h5.85v1.68h-4v2.44h3.72Z"/><path class="cls-1" d="M904.64,62.75v-10h3.93a3.37,3.37,0,0,1,2.42.91A3.13,3.13,0,0,1,912,56a3,3,0,0,1-.72,2,3.21,3.21,0,0,1-1.88,1.07l2.7,3.65h-2.12l-2.61-3.59h-.81v3.59Zm3.64-8.37h-1.76v3.27h1.76a1.86,1.86,0,0,0,1.3-.44,1.5,1.5,0,0,0,.49-1.16,1.54,1.54,0,0,0-.5-1.19A1.77,1.77,0,0,0,908.28,54.38Z"/></svg>