<svg id="Layer_1" data-name="Layer 1" xmlns="http://www.w3.org/2000/svg" viewBox="0 0 980 240"><defs><style>.cls-1{fill:#d80201;}</style></defs><title>text</title><path class="cls-1" d="M468,105.69a8.57,8.57,0,0,1-7.56-4.19l2.77-2.67a5,5,0,0,0,4.62,2.94,3.13,3.13,0,0,0,3.4-3.1c0-4.52-9.67-2.38-9.67-9.47,0-3.89,3.14-6.4,6.86-6.4a9.65,9.65,0,0,1,6.44,2.44l-2.24,2.94a4.46,4.46,0,0,0-3.56-1.78c-1.42,0-3.07.89-3.07,2.48,0,3.73,9.67,1.88,9.67,9.57C475.66,102.92,472.36,105.69,468,105.69Z"/><path class="cls-1" d="M485.73,105.63c-3.93,0-6.9-1.75-6.9-6V90.88h4V99c0,1.95.83,3.27,2.9,3.27s2.9-1.32,2.9-3.27V90.88h4v8.75C492.66,103.88,489.66,105.63,485.73,105.63Z"/><path class="cls-1" d="M503.51,105.63a7.53,7.53,0,0,1-7.79-7.56,7.63,7.63,0,0,1,7.85-7.66,7.36,7.36,0,0,1,3.63.86v4A4.93,4.93,0,0,0,504,94a4,4,0,1,0,0,8,4.87,4.87,0,0,0,3.23-1.22v3.93A7.64,7.64,0,0,1,503.51,105.63Z"/><path class="cls-1" d="M517.28,105.63a7.53,7.53,0,0,1-7.79-7.56,7.63,7.63,0,0,1,7.85-7.66,7.36,7.36,0,0,1,3.63.86v4A4.93,4.93,0,0,0,517.74,94a4,4,0,1,0,0,8,4.87,4.87,0,0,0,3.23-1.22v3.93A7.64,7.64,0,0,1,517.28,105.63Z"/><path class="cls-1" d="M527.34,98.66c.07,2.21,1.12,3.83,3.5,3.83a3.74,3.74,0,0,0,3.4-1.91l3.7.59c-1.25,3.07-3.8,4.46-7,4.46-4.62,0-7.66-3-7.66-7.62s2.9-7.59,7.49-7.59S538,93.58,538,98.14v.53Zm3.47-5.41a3.24,3.24,0,0,0-3.33,2.87h6.77A3.31,3.31,0,0,0,530.81,93.25Zm.07-4.88L529,87l3.93-5,2.9,1.85Z"/><path class="cls-1" d="M548.36,105.46h-1.85l-7.29-14.59h4.49l3.76,8.05,3.76-8.05h4.49Z"/><path class="cls-1" d="M559.61,87.25a2.41,2.41,0,0,1,0-4.82,2.41,2.41,0,0,1,0,4.82Zm-2,17.92V90.88h4v14.29Z"/><path class="cls-1" d="M569.91,105.63a7.6,7.6,0,0,1-5.45-2.38l2.11-2.44a4.64,4.64,0,0,0,3.37,1.68,1.68,1.68,0,0,0,1.82-1.58c0-2.44-6.37-1.22-6.37-6,0-2.9,2.41-4.52,5.12-4.52a7.36,7.36,0,0,1,4.65,1.52l-2,2.34a4,4,0,0,0-2.38-1c-.69,0-1.52.43-1.52,1.22,0,2.08,6.6,1.15,6.6,6C575.88,103.85,573,105.63,569.91,105.63Z"/><path class="cls-1" d="M588.49,105.17V97.25c0-1.95-.43-3.43-2.71-3.43-2.48,0-3.07,1.81-3.07,4v7.39h-4V90.88h4v1.75a5.28,5.28,0,0,1,4.49-2.21,4.94,4.94,0,0,1,5.28,5.68v9.08Z"/><path class="cls-1" d="M598.25,87.25a2.41,2.41,0,0,1,0-4.82,2.41,2.41,0,0,1,0,4.82Zm-2,17.92V90.88h4v14.29Z"/><path class="cls-1" d="M613.77,105.17V97.25c0-1.95-.43-3.43-2.71-3.43-2.48,0-3.07,1.81-3.07,4v7.39h-4V90.88h4v1.75a5.28,5.28,0,0,1,4.49-2.21,4.94,4.94,0,0,1,5.28,5.68v9.08Z"/><path class="cls-1" d="M634.85,110.35a7.79,7.79,0,0,1-6.07,2.51c-3.66,0-7.2-2.11-7.59-6h4.32a3.18,3.18,0,0,0,3.4,2.61c2.51,0,3.53-1.75,3.53-4.06v-2.15a5.94,5.94,0,0,1-4.82,2.38c-4.22,0-6.8-3.4-6.8-7.43s2.64-7.79,7-7.79a5.36,5.36,0,0,1,4.62,2.31V90.88h4v13.76C636.47,106.88,636.37,108.57,634.85,110.35ZM628.95,94a4,4,0,1,0,4,4A4,4,0,0,0,628.95,94Z"/><path class="cls-1" d="M659.47,105.17v-1.88a5.52,5.52,0,0,1-4.65,2.34c-4.29,0-7-3.56-7-7.66s2.74-7.56,6.93-7.56a6,6,0,0,1,4.75,2.28V90.88h4v14.29ZM655.91,94a4,4,0,1,0,4,4A4,4,0,0,0,655.91,94Z"/><path class="cls-1" d="M674.58,105.46h-1.85l-7.29-14.59h4.49l3.76,8.05,3.76-8.05h4.49Z"/><path class="cls-1" d="M468.34,132.31v10.86h-4V132.31h-1.55v-3.43h1.55v-4.59a7,7,0,0,1,.63-3.37,5.66,5.66,0,0,1,5-2.87,4.73,4.73,0,0,1,2.11.5v3.66a4,4,0,0,0-1.82-.53c-1.78,0-1.88,1.85-1.88,3.2v4H472v3.43Z"/><path class="cls-1" d="M483.22,132.51a3.53,3.53,0,0,0-1.91-.5c-2.71,0-3.43,1.91-3.43,4.29v6.86h-4V128.88h4V131a4.66,4.66,0,0,1,5.91-2.28Z"/><path class="cls-1" d="M496.68,143.17v-1.88a5.52,5.52,0,0,1-4.65,2.34c-4.29,0-7-3.56-7-7.66s2.74-7.56,6.93-7.56a6,6,0,0,1,4.75,2.28v-1.82h4v14.29ZM493.12,132a4,4,0,1,0,4,4A4,4,0,0,0,493.12,132Z"/><path class="cls-1" d="M522.79,143.17v-7.82c0-1.68-.26-3.53-2.38-3.53-2.34,0-2.74,2.15-2.74,4v7.33h-4v-7.59a6.37,6.37,0,0,0-.3-2.38,2.31,2.31,0,0,0-2.15-1.39A2.6,2.6,0,0,0,509,133.1a5.93,5.93,0,0,0-.46,2.74v7.33h-4V128.88h4v1.62a5.49,5.49,0,0,1,4.36-2.08,4.86,4.86,0,0,1,4.46,2.61,5.28,5.28,0,0,1,4.69-2.61,4.7,4.7,0,0,1,4,2,6.3,6.3,0,0,1,.76,3.47v9.24Z"/><path class="cls-1" d="M534.63,132.31v10.86h-4V132.31h-1.58v-3.43h1.58V124h4v4.88h2.81v3.43Z"/><path class="cls-1" d="M541.46,125.25a2.41,2.41,0,0,1,0-4.82,2.41,2.41,0,0,1,0,4.82Zm-2,17.92V128.88h4v14.29Z"/><path class="cls-1" d="M558.13,143.17v-1.88a5.52,5.52,0,0,1-4.65,2.34c-4.29,0-7-3.56-7-7.66s2.74-7.56,6.93-7.56a6,6,0,0,1,4.75,2.28V118.45h4v24.72ZM554.56,132a4,4,0,1,0,4,4A4,4,0,0,0,554.56,132Z"/><path class="cls-1" d="M569.31,136.66c.07,2.21,1.12,3.83,3.5,3.83a3.74,3.74,0,0,0,3.4-1.91l3.7.59c-1.25,3.07-3.8,4.46-7,4.46-4.62,0-7.66-3-7.66-7.62s2.9-7.59,7.49-7.59,7.29,3.17,7.29,7.72v.53Zm3.47-5.41a3.24,3.24,0,0,0-3.33,2.87h6.77A3.31,3.31,0,0,0,572.78,131.25Z"/><path class="cls-1" d="M592.84,143.17v-7.92c0-1.95-.43-3.43-2.71-3.43-2.48,0-3.07,1.81-3.07,4v7.39h-4V128.88h4v1.75a5.28,5.28,0,0,1,4.49-2.21,4.94,4.94,0,0,1,5.28,5.68v9.08Z"/><path class="cls-1" d="M605.22,143.63a7.6,7.6,0,0,1-5.45-2.38l2.11-2.44a4.64,4.64,0,0,0,3.37,1.68,1.68,1.68,0,0,0,1.82-1.58c0-2.44-6.37-1.22-6.37-6,0-2.9,2.41-4.52,5.12-4.52a7.36,7.36,0,0,1,4.65,1.52l-2,2.34a4,4,0,0,0-2.38-1c-.69,0-1.52.43-1.52,1.22,0,2.08,6.6,1.15,6.6,6C611.19,141.85,608.29,143.63,605.22,143.63Z"/><path class="cls-1" d="M629.54,143.46h-1.85l-7.29-14.59h4.49l3.76,8.05,3.76-8.05h4.49Z"/><path class="cls-1" d="M640.79,125.25a2.41,2.41,0,0,1,0-4.82,2.41,2.41,0,0,1,0,4.82Zm-2,17.92V128.88h4v14.29Z"/><path class="cls-1" d="M646.53,143.17V118.45h4v24.72Z"/><path class="cls-1" d="M654.35,143.17V118.45h4v24.72Z"/><path class="cls-1" d="M673.1,143.17v-1.88a5.52,5.52,0,0,1-4.65,2.34c-4.29,0-7-3.56-7-7.66s2.74-7.56,6.93-7.56a6,6,0,0,1,4.75,2.28v-1.82h4v14.29ZM669.54,132a4,4,0,1,0,4,4A4,4,0,0,0,669.54,132Z"/></svg>