<svg id="Layer_1" data-name="Layer 1" xmlns="http://www.w3.org/2000/svg" viewBox="0 0 980 240"><defs><style>.cls-1{fill:#d80201;}</style></defs><title>text</title><path class="cls-1" d="M301.85,116.55,284.8,97.05V116h-5.46V87.35h3.78l17.06,19.49V88h5.46v28.56Z"/><path class="cls-1" d="M316.55,125.75h-5.76l6.68-12.48-8.61-15.46h5.92l5.46,10.33,5.21-10.33h5.8Z"/><path class="cls-1" d="M346.62,116v-2.39a7,7,0,0,1-5.92,3c-5.46,0-8.95-4.54-8.95-9.75s3.49-9.62,8.82-9.62a7.58,7.58,0,0,1,6,2.9V97.81h5.13V116Zm-4.54-14.2a5.1,5.1,0,1,0,5.08,5.08A5.07,5.07,0,0,0,342.09,101.8Z"/><path class="cls-1" d="M379.55,116V106c0-2.52-.55-4.5-3.49-4.5-3.15,0-3.86,2.44-3.86,5.13V116h-5.08V84.54h5.08v15.63a6.62,6.62,0,0,1,5.71-2.94,7,7,0,0,1,5.29,2.23c1.3,1.51,1.43,3.23,1.43,5.12V116Z"/><path class="cls-1" d="M398.28,116.59c-5,0-8.78-2.23-8.78-7.65V97.81h5.08V108.1c0,2.48,1,4.16,3.7,4.16s3.7-1.68,3.7-4.16V97.81h5.12v11.13C407.1,114.36,403.28,116.59,398.28,116.59Z"/><path class="cls-1" d="M417.77,116.59a9.68,9.68,0,0,1-6.93-3l2.69-3.11a5.91,5.91,0,0,0,4.29,2.14,2.14,2.14,0,0,0,2.31-2c0-3.11-8.11-1.55-8.11-7.69,0-3.7,3.07-5.75,6.51-5.75a9.37,9.37,0,0,1,5.92,1.93l-2.52,3a5.07,5.07,0,0,0-3-1.22c-.88,0-1.93.55-1.93,1.55,0,2.65,8.4,1.47,8.4,7.69C425.37,114.32,421.67,116.59,417.77,116.59Z"/><path class="cls-1" d="M452.21,116V106c0-2.14-.34-4.5-3-4.5-3,0-3.49,2.73-3.49,5.13V116h-5.08v-9.66a8.1,8.1,0,0,0-.38-3,2.94,2.94,0,0,0-2.73-1.76,3.32,3.32,0,0,0-2.86,1.64,7.56,7.56,0,0,0-.59,3.49V116H429V97.81h5.08v2.06a7,7,0,0,1,5.54-2.65,6.18,6.18,0,0,1,5.67,3.32,6.72,6.72,0,0,1,6-3.32,6,6,0,0,1,5.08,2.6,8,8,0,0,1,1,4.41V116Z"/><path class="cls-1" d="M471.61,116.59c-5.8,0-10.42-3.61-10.42-9.66s4.62-9.7,10.46-9.7S482,100.88,482,106.88,477.37,116.59,471.61,116.59Zm0-14.79a5.1,5.1,0,1,0,5.17,5.13A5.14,5.14,0,0,0,471.57,101.8Z"/><path class="cls-1" d="M499.79,116v-2.39a7,7,0,0,1-5.92,3c-5.46,0-8.95-4.54-8.95-9.75s3.49-9.62,8.82-9.62a7.58,7.58,0,0,1,6,2.9V84.54h5.13V116Zm-4.54-14.2a5.1,5.1,0,1,0,5.08,5.08A5.07,5.07,0,0,0,495.26,101.8Z"/><path class="cls-1" d="M514,107.72c.08,2.81,1.43,4.87,4.45,4.87a4.77,4.77,0,0,0,4.33-2.44l4.7.76c-1.6,3.91-4.83,5.67-8.95,5.67-5.88,0-9.75-3.78-9.75-9.7s3.7-9.66,9.54-9.66c6,0,9.28,4,9.28,9.83v.67Zm4.41-6.89a4.13,4.13,0,0,0-4.24,3.65h8.61A4.22,4.22,0,0,0,518.44,100.84Z"/><path class="cls-1" d="M531.54,116V84.54h5.08V116Z"/><path class="cls-1" d="M541.5,116V84.54h5.08V116Z"/><path class="cls-1" d="M555.69,107.72c.08,2.81,1.43,4.87,4.45,4.87a4.77,4.77,0,0,0,4.33-2.44l4.7.76c-1.6,3.91-4.83,5.67-8.95,5.67-5.88,0-9.75-3.78-9.75-9.7s3.7-9.66,9.54-9.66c6,0,9.28,4,9.28,9.83v.67Zm4.41-6.89a4.13,4.13,0,0,0-4.24,3.65h8.61A4.22,4.22,0,0,0,560.1,100.84Z"/><path class="cls-1" d="M585.09,102.43a4.5,4.5,0,0,0-2.44-.63c-3.44,0-4.37,2.44-4.37,5.46V116h-5.08V97.81h5.08v2.73a5.93,5.93,0,0,1,7.52-2.9Z"/><path class="cls-1" d="M591.14,116.55a3.28,3.28,0,1,1,3.28-3.28A3.28,3.28,0,0,1,591.14,116.55Zm-2.6-8.57V88h5.21v20Z"/><path class="cls-1" d="M301.85,167.55,284.8,148.05V167h-5.46V138.35h3.78l17.06,19.49V139h5.46v28.56Z"/><path class="cls-1" d="M320,167.59c-5,0-8.78-2.23-8.78-7.65V148.81h5.08V159.1c0,2.48,1,4.16,3.7,4.16s3.7-1.68,3.7-4.16V148.81h5.13v11.13C328.86,165.36,325,167.59,320,167.59Z"/><path class="cls-1" d="M358.13,167v-2.39a7,7,0,0,1-5.92,3c-5.46,0-8.95-4.54-8.95-9.75s3.49-9.62,8.82-9.62a7.58,7.58,0,0,1,6,2.9v-2.31h5.13V167Zm-8.78-21.59a3,3,0,1,1,0-6,3,3,0,0,1,0,6Zm4.24,7.39a5.1,5.1,0,1,0,5.08,5.08A5.07,5.07,0,0,0,353.59,152.8Zm4.49-7.39a3.07,3.07,0,0,1-3-3,3,3,0,1,1,3,3Z"/><path class="cls-1" d="M377.36,167.38H375l-9.28-18.57h5.71l4.79,10.25L381,148.81h5.71Z"/><path class="cls-1" d="M392.53,158.72c.08,2.81,1.43,4.87,4.45,4.87a4.77,4.77,0,0,0,4.33-2.44l4.71.76c-1.6,3.91-4.83,5.67-8.95,5.67-5.88,0-9.75-3.78-9.75-9.7s3.7-9.66,9.54-9.66c6,0,9.28,4,9.28,9.83v.67Zm4.41-6.89a4.13,4.13,0,0,0-4.24,3.65h8.61A4.22,4.22,0,0,0,396.94,151.84Z"/><path class="cls-1" d="M422.47,167V156.92c0-2.48-.55-4.37-3.45-4.37-3.15,0-3.91,2.31-3.91,5V167H410V148.81h5.08V151c1.68-1.93,3.11-2.81,5.71-2.81a7,7,0,0,1,5.29,2.18c1.3,1.51,1.43,3.15,1.43,5V167Z"/><path class="cls-1" d="M451.49,167.67c-4.24,0-7.27-1.85-9.62-5.33l3.53-3.4a6.42,6.42,0,0,0,5.88,3.74c2.35,0,4.33-1.47,4.33-3.95,0-5.75-12.31-3-12.31-12.06,0-5,4-8.15,8.74-8.15a12.29,12.29,0,0,1,8.19,3.11l-2.86,3.74a5.67,5.67,0,0,0-4.54-2.27c-1.81,0-3.91,1.13-3.91,3.15,0,4.75,12.31,2.39,12.31,12.18C461.24,164.14,457,167.67,451.49,167.67Z"/><path class="cls-1" d="M488.5,167V157c0-2.14-.34-4.5-3-4.5-3,0-3.49,2.73-3.49,5.13V167H476.9v-9.66a8.1,8.1,0,0,0-.38-3,2.94,2.94,0,0,0-2.73-1.76,3.32,3.32,0,0,0-2.86,1.64,7.56,7.56,0,0,0-.59,3.49V167h-5.08V148.81h5.08v2.06a7,7,0,0,1,5.54-2.65,6.18,6.18,0,0,1,5.67,3.32,6.73,6.73,0,0,1,6-3.32,6,6,0,0,1,5.08,2.6,8,8,0,0,1,1,4.41V167Z"/><path class="cls-1" d="M512.35,167v-2.39a7,7,0,0,1-5.92,3c-5.46,0-8.95-4.54-8.95-9.75s3.49-9.62,8.82-9.62a7.58,7.58,0,0,1,6,2.9v-2.31h5.13V167Zm-4.54-14.2a5.1,5.1,0,1,0,5.08,5.08A5.07,5.07,0,0,0,507.82,152.8Z"/><path class="cls-1" d="M534.23,153.43a4.5,4.5,0,0,0-2.44-.63c-3.44,0-4.37,2.44-4.37,5.46V167h-5.08V148.81h5.08v2.73a5.93,5.93,0,0,1,7.52-2.9Z"/><path class="cls-1" d="M543.51,153.18V167h-5.08V153.18h-2v-4.37h2v-6.22h5.08v6.22h3.57v4.37Z"/><path class="cls-1" d="M578.33,167V154.52H566.49V167H561V139h5.46v10.84h11.85V139h5.46v28Z"/><path class="cls-1" d="M598.87,167.59c-5.8,0-10.42-3.61-10.42-9.66s4.62-9.7,10.46-9.7,10.33,3.65,10.33,9.66S604.63,167.59,598.87,167.59Zm0-14.79a5.1,5.1,0,1,0,5.17,5.13A5.14,5.14,0,0,0,598.83,152.8Z"/><path class="cls-1" d="M636.38,167V157c0-2.14-.34-4.5-3-4.5-3,0-3.49,2.73-3.49,5.13V167h-5.08v-9.66a8.1,8.1,0,0,0-.38-3,2.94,2.94,0,0,0-2.73-1.76,3.32,3.32,0,0,0-2.86,1.64,7.56,7.56,0,0,0-.59,3.49V167h-5.08V148.81h5.08v2.06a7,7,0,0,1,5.54-2.65,6.18,6.18,0,0,1,5.67,3.32,6.73,6.73,0,0,1,6-3.32,6,6,0,0,1,5.08,2.6,8,8,0,0,1,1,4.41V167Z"/><path class="cls-1" d="M650.57,158.72c.08,2.81,1.43,4.87,4.45,4.87a4.77,4.77,0,0,0,4.33-2.44l4.71.76c-1.6,3.91-4.83,5.67-8.95,5.67-5.88,0-9.75-3.78-9.75-9.7s3.7-9.66,9.54-9.66c6,0,9.28,4,9.28,9.83v.67Zm4.41-6.89a4.13,4.13,0,0,0-4.24,3.65h8.61A4.22,4.22,0,0,0,655,151.84Z"/><path class="cls-1" d="M693.08,167l-7.56-11.26h-.67V167h-5.46V139h8.11c2.44,0,5.21.46,7.14,2a8.16,8.16,0,0,1,2.77,6.3,9.23,9.23,0,0,1-1.6,5.13A7.22,7.22,0,0,1,691,155.2l8.82,11.8Zm-6.59-23.57h-1.64v8.44h1.55c2.81,0,5.38-1,5.38-4.24S689.29,143.43,686.48,143.43Z"/><path class="cls-1" d="M706.51,158.72c.08,2.81,1.43,4.87,4.45,4.87a4.77,4.77,0,0,0,4.33-2.44l4.71.76c-1.6,3.91-4.83,5.67-8.95,5.67-5.88,0-9.75-3.78-9.75-9.7s3.7-9.66,9.54-9.66c6,0,9.28,4,9.28,9.83v.67Zm4.41-6.89a4.13,4.13,0,0,0-4.24,3.65h8.61A4.22,4.22,0,0,0,710.92,151.84Z"/><path class="cls-1" d="M737.93,167v-2.39a7,7,0,0,1-5.92,3c-5.46,0-8.95-4.54-8.95-9.75s3.49-9.62,8.82-9.62a7.58,7.58,0,0,1,6,2.9v-2.31h5.13V167Zm-4.54-14.2a5.1,5.1,0,1,0,5.08,5.08A5.07,5.07,0,0,0,733.39,152.8Z"/><path class="cls-1" d="M761.83,167v-2.39a7,7,0,0,1-5.92,3c-5.46,0-8.95-4.54-8.95-9.75s3.49-9.62,8.82-9.62a7.58,7.58,0,0,1,6,2.9V135.54H767V167Zm-4.54-14.2a5.1,5.1,0,1,0,5.08,5.08A5.07,5.07,0,0,0,757.29,152.8Z"/><path class="cls-1" d="M777.11,176.75h-5.75L778,164.27l-8.61-15.46h5.92l5.46,10.33L786,148.81h5.8Z"/></svg>