<svg id="Layer_1" data-name="Layer 1" xmlns="http://www.w3.org/2000/svg" viewBox="0 0 980 240"><defs><style>.cls-1{fill:#d80201;}</style></defs><title>text</title><path class="cls-1" d="M452.81,183.53a4.08,4.08,0,0,1-4.12-3.44l1.44-.4a2.72,2.72,0,0,0,2.72,2.44,2.63,2.63,0,0,0,2.68-2.64c0-3.14-6.16-2.4-6.16-6.32a3.53,3.53,0,0,1,3.74-3.44,3.8,3.8,0,0,1,3.44,2.08l-1.18.78a2.47,2.47,0,0,0-2.28-1.46,2.12,2.12,0,0,0-2.22,2c0,2.76,6.16,2,6.16,6.26A4.11,4.11,0,0,1,452.81,183.53Z"/><path class="cls-1" d="M464.53,183.29l-3.36-3.78-.36.36v3.42h-1.42V168.7h1.42V178l3-3.06h1.9l-3.56,3.52,4.22,4.78Z"/><path class="cls-1" d="M470.69,183.83,466.61,175h1.6l2.48,5.58,2.46-5.58h1.6Z"/><path class="cls-1" d="M482.33,183.29v-1.16a3.54,3.54,0,0,1-2.88,1.4c-2.48,0-4-2.08-4-4.42a4,4,0,0,1,4-4.32,3.51,3.51,0,0,1,2.9,1.38V175h1.42v8.3Zm-2.68-7.22a2.83,2.83,0,0,0-2.74,3,2.86,2.86,0,0,0,2.74,3.12,2.83,2.83,0,0,0,2.76-3.12A2.8,2.8,0,0,0,479.65,176.06Z"/><path class="cls-1" d="M492.81,183.29v-1.16a3.54,3.54,0,0,1-2.88,1.4,4.11,4.11,0,0,1-4-4.4,4.07,4.07,0,0,1,4-4.34,3.56,3.56,0,0,1,2.9,1.38V168.7h1.42v14.58Zm-2.68-7.2a3.09,3.09,0,1,0,2.76,3A2.78,2.78,0,0,0,490.13,176.08Z"/><path class="cls-1" d="M500.85,176.42a1.26,1.26,0,0,0-.84-.28,1.54,1.54,0,0,0-.72.18c-.92.5-.92,1.68-.92,2.58v4.38H497V175h1.42v.9a2.22,2.22,0,0,1,1.88-1.1,2.36,2.36,0,0,1,1.28.34Z"/><path class="cls-1" d="M506.41,183.53a4.37,4.37,0,1,1,4.38-4.36A4.34,4.34,0,0,1,506.41,183.53Zm0-7.44a3.07,3.07,0,1,0,2.94,3.08A2.91,2.91,0,0,0,506.39,176.08Z"/><path class="cls-1" d="M518.19,183.29v-4.9c0-1.3-.18-2.32-1.74-2.32-1.84,0-2.06,1.6-2.06,3.06v4.16H513V175h1.42v1a3,3,0,0,1,4.76-.06,3.8,3.8,0,0,1,.48,2.2v5.16Z"/><path class="cls-1" d="M525.23,183.83,521.15,175h1.6l2.48,5.58,2.46-5.58h1.6Z"/><path class="cls-1" d="M537.15,183.29v-1.16a3.54,3.54,0,0,1-2.88,1.4c-2.48,0-4-2.08-4-4.42a4,4,0,0,1,4-4.32,3.51,3.51,0,0,1,2.9,1.38V175h1.42v8.3Zm-2.68-7.22a2.83,2.83,0,0,0-2.74,3,2.86,2.86,0,0,0,2.74,3.12,2.83,2.83,0,0,0,2.76-3.12A2.8,2.8,0,0,0,534.47,176.06Zm-1.66-2.78a1,1,0,0,1-1-1,1,1,0,1,1,1,1Zm3.48,0a1,1,0,0,1-1-1,1,1,0,1,1,1,1Z"/><path class="cls-1" d="M548.27,186.37a4,4,0,0,1-3.32,1.54,3.74,3.74,0,0,1-4-3.8h1.42a2.48,2.48,0,0,0,2.64,2.52c2,0,2.66-1.5,2.66-3.28v-1.22a3.75,3.75,0,0,1-2.92,1.38,4.38,4.38,0,0,1,.06-8.72,3.55,3.55,0,0,1,2.86,1.36V175h1.44v8.12A5,5,0,0,1,548.27,186.37Zm-3.34-10.3a2.85,2.85,0,0,0-2.72,3.14,2.8,2.8,0,0,0,2.72,3,3.1,3.1,0,0,0,0-6.16Z"/><path class="cls-1" d="M552.75,179.43a2.69,2.69,0,0,0,2.64,2.8,2.86,2.86,0,0,0,2.56-1.72l1.2.66a4.14,4.14,0,0,1-3.8,2.36,4,4,0,0,1-4.1-4.34c0-2.4,1.5-4.4,4-4.4s4,2,4,4.36v.28Zm2.56-3.34a2.55,2.55,0,0,0-2.46,2.14h4.88A2.49,2.49,0,0,0,555.31,176.08Z"/><path class="cls-1" d="M566.63,183.29v-4.9c0-1.3-.18-2.32-1.74-2.32-1.84,0-2.06,1.6-2.06,3.06v4.16h-1.42V175h1.42v1a3,3,0,0,1,4.76-.06,3.8,3.8,0,0,1,.48,2.2v5.16Z"/><path class="cls-1" d="M581.19,178.79l-2.74,3.12h5.6v1.38h-8.62l4.86-5.62c.9-1,2.3-2.54,2.3-4a2.66,2.66,0,0,0-5.32.16h-1.5a5.54,5.54,0,0,1,.28-1.5,4.17,4.17,0,0,1,8,1.36C584.07,175.7,582.43,177.38,581.19,178.79Z"/><path class="cls-1" d="M594.93,177.3l-4.54,6.3-1.12-.82,3.08-4.28a4.19,4.19,0,0,1-1.22.18,4.31,4.31,0,0,1-4.28-4.38,4.6,4.6,0,0,1,9.2-.06A5.36,5.36,0,0,1,594.93,177.3Zm-3.48-6.2a3.13,3.13,0,1,0,3.14,3.14A3.13,3.13,0,0,0,591.45,171.1Z"/><path class="cls-1" d="M598.53,186.33l-.94-.38,1.64-4.62,1.32.48Z"/><path class="cls-1" d="M612.19,184.09l-5.4-14.14h1.62l3.8,10.18L616,169.94h1.6Z"/><path class="cls-1" d="M624.53,183.29v-1.16a3.54,3.54,0,0,1-2.88,1.4c-2.48,0-4-2.08-4-4.42a4,4,0,0,1,4-4.32,3.51,3.51,0,0,1,2.9,1.38V175H626v8.3Zm-2.68-7.22a2.83,2.83,0,0,0-2.74,3,2.86,2.86,0,0,0,2.74,3.12,2.83,2.83,0,0,0,2.76-3.12A2.8,2.8,0,0,0,621.85,176.06Z"/><path class="cls-1" d="M628.67,183.29V168.7h1.42v14.58Z"/><path class="cls-1" d="M632.81,183.29V168.7h1.42v14.58Z"/><path class="cls-1" d="M637.91,179.43a2.69,2.69,0,0,0,2.64,2.8,2.86,2.86,0,0,0,2.56-1.72l1.2.66a4.14,4.14,0,0,1-3.8,2.36,4,4,0,0,1-4.1-4.34c0-2.4,1.5-4.4,4-4.4s4,2,4,4.36v.28Zm2.56-3.34a2.55,2.55,0,0,0-2.46,2.14h4.88A2.49,2.49,0,0,0,640.47,176.08Z"/><path class="cls-1" d="M651.79,183.29v-4.9c0-1.3-.18-2.32-1.74-2.32-1.84,0-2.06,1.6-2.06,3.06v4.16h-1.42V175H648v1a3,3,0,0,1,4.76-.06,3.8,3.8,0,0,1,.48,2.2v5.16Z"/><path class="cls-1" d="M657.39,176.3v7h-1.44v-7h-.86V175h.86v-3h1.44v3h1.46v1.32Z"/><path class="cls-1" d="M666.07,182.49a3.62,3.62,0,0,1-5.08,0,3.4,3.4,0,0,1-.76-2.5v-5h1.42v4.84a3.18,3.18,0,0,0,.26,1.56,2,2,0,0,0,3.22,0,3.22,3.22,0,0,0,.26-1.56V175h1.42v5A3.39,3.39,0,0,1,666.07,182.49Z"/><path class="cls-1" d="M674.75,183.29v-4.9c0-1.3-.18-2.32-1.74-2.32-1.84,0-2.06,1.6-2.06,3.06v4.16h-1.42V175h1.42v1a3,3,0,0,1,4.76-.06,3.8,3.8,0,0,1,.48,2.2v5.16Z"/><path class="cls-1" d="M685.25,183.29v-1.16a3.54,3.54,0,0,1-2.88,1.4c-2.48,0-4-2.08-4-4.42a4,4,0,0,1,4-4.32,3.51,3.51,0,0,1,2.9,1.38V175h1.42v8.3Zm-2.68-7.22a2.83,2.83,0,0,0-2.74,3,2.86,2.86,0,0,0,2.74,3.12,2.83,2.83,0,0,0,2.76-3.12A2.8,2.8,0,0,0,682.57,176.06Z"/><path class="cls-1" d="M425.73,204.53a4.08,4.08,0,0,1-4.12-3.44l1.44-.4a2.72,2.72,0,0,0,2.72,2.44,2.63,2.63,0,0,0,2.68-2.64c0-3.14-6.16-2.4-6.16-6.32a3.53,3.53,0,0,1,3.74-3.44,3.8,3.8,0,0,1,3.44,2.08l-1.18.78a2.47,2.47,0,0,0-2.28-1.46,2.12,2.12,0,0,0-2.22,2c0,2.76,6.16,2,6.16,6.26A4.11,4.11,0,0,1,425.73,204.53Z"/><path class="cls-1" d="M436.17,204.53a4.37,4.37,0,1,1,4.38-4.36A4.34,4.34,0,0,1,436.17,204.53Zm0-7.44a3.07,3.07,0,1,0,2.94,3.08A2.91,2.91,0,0,0,436.15,197.08Zm-1.72-2.8a1,1,0,0,1-1-1,1,1,0,1,1,1,1Zm3.48,0a1,1,0,0,1-1-1,1,1,0,1,1,1,1Z"/><path class="cls-1" d="M448,204.29v-4.9c0-1.3-.18-2.32-1.74-2.32-1.84,0-2.06,1.6-2.06,3.06v4.16h-1.42V196h1.42v1a3,3,0,0,1,4.76-.06,3.8,3.8,0,0,1,.48,2.2v5.16Z"/><path class="cls-1" d="M458.45,204.29v-1.16a3.54,3.54,0,0,1-2.88,1.4,4.11,4.11,0,0,1-4-4.4,4.07,4.07,0,0,1,4-4.34,3.56,3.56,0,0,1,2.9,1.38V189.7h1.42v14.58Zm-2.68-7.2a3.09,3.09,0,1,0,2.76,3A2.78,2.78,0,0,0,455.77,197.08Z"/><path class="cls-1" d="M468.93,204.29v-1.16a3.54,3.54,0,0,1-2.88,1.4c-2.48,0-4-2.08-4-4.42a4,4,0,0,1,4-4.32,3.51,3.51,0,0,1,2.9,1.38V196h1.42v8.3Zm-2.68-7.22a2.83,2.83,0,0,0-2.74,3,2.86,2.86,0,0,0,2.74,3.12,2.83,2.83,0,0,0,2.76-3.12A2.8,2.8,0,0,0,466.25,197.06Z"/><path class="cls-1" d="M480.05,207.37a4,4,0,0,1-3.32,1.54,3.74,3.74,0,0,1-4-3.8h1.42a2.48,2.48,0,0,0,2.64,2.52c2,0,2.66-1.5,2.66-3.28v-1.22a3.75,3.75,0,0,1-2.92,1.38,4.38,4.38,0,0,1,.06-8.72,3.55,3.55,0,0,1,2.86,1.36V196h1.44v8.12A5,5,0,0,1,480.05,207.37Zm-3.34-10.3a2.85,2.85,0,0,0-2.72,3.14,2.8,2.8,0,0,0,2.72,3,3.1,3.1,0,0,0,0-6.16Z"/><path class="cls-1" d="M494,199.79l-2.74,3.12h5.6v1.38h-8.62l4.86-5.62c.9-1,2.3-2.54,2.3-4a2.66,2.66,0,0,0-5.32.16h-1.5a5.54,5.54,0,0,1,.28-1.5,4.17,4.17,0,0,1,8,1.36C496.85,196.7,495.21,198.38,494,199.79Z"/><path class="cls-1" d="M507.71,198.3l-4.54,6.3-1.12-.82,3.08-4.28a4.19,4.19,0,0,1-1.22.18,4.31,4.31,0,0,1-4.28-4.38,4.6,4.6,0,0,1,9.2-.06A5.36,5.36,0,0,1,507.71,198.3Zm-3.48-6.2a3.13,3.13,0,1,0,3.14,3.14A3.13,3.13,0,0,0,504.23,192.1Z"/><path class="cls-1" d="M522.59,204.29v-1.16a3.54,3.54,0,0,1-2.88,1.4c-2.48,0-4-2.08-4-4.42a4,4,0,0,1,4-4.32,3.51,3.51,0,0,1,2.9,1.38V196H524v8.3Zm-2.68-7.22a2.83,2.83,0,0,0-2.74,3,2.86,2.86,0,0,0,2.74,3.12,2.83,2.83,0,0,0,2.76-3.12A2.8,2.8,0,0,0,519.91,197.06Z"/><path class="cls-1" d="M531.05,204.53a3.58,3.58,0,0,1-2.9-1.4V209h-1.42V196h1.42v1.16a3.59,3.59,0,0,1,2.88-1.36,4.11,4.11,0,0,1,4,4.4A4.07,4.07,0,0,1,531.05,204.53Zm-.22-7.46a2.86,2.86,0,0,0-2.76,3.12,2.76,2.76,0,1,0,5.5,0A2.86,2.86,0,0,0,530.83,197.06Z"/><path class="cls-1" d="M541.11,197.42a1.26,1.26,0,0,0-.84-.28,1.54,1.54,0,0,0-.72.18c-.92.5-.92,1.68-.92,2.58v4.38h-1.42V196h1.42v.9a2.22,2.22,0,0,1,1.88-1.1,2.36,2.36,0,0,1,1.28.34Z"/><path class="cls-1" d="M543.83,193.86a1,1,0,1,1,1-1A1,1,0,0,1,543.83,193.86Zm-.72,10.42V196h1.42v8.3Z"/><path class="cls-1" d="M547.27,204.29V189.7h1.42v14.58Z"/><path class="cls-1" d="M555.71,198.28V197h8.68v1.32Z"/><path class="cls-1" d="M572.37,200.43a2.69,2.69,0,0,0,2.64,2.8,2.86,2.86,0,0,0,2.56-1.72l1.2.66a4.14,4.14,0,0,1-3.8,2.36,4,4,0,0,1-4.1-4.34c0-2.4,1.5-4.4,4-4.4s4,2,4,4.36v.28Zm2.56-3.34a2.55,2.55,0,0,0-2.46,2.14h4.88A2.49,2.49,0,0,0,574.93,197.08Z"/><path class="cls-1" d="M586.25,204.29v-4.9c0-1.3-.18-2.32-1.74-2.32-1.84,0-2.06,1.6-2.06,3.06v4.16H581V196h1.42v1a3,3,0,0,1,4.76-.06,3.8,3.8,0,0,1,.48,2.2v5.16Z"/><path class="cls-1" d="M596.75,204.29v-1.16a3.54,3.54,0,0,1-2.88,1.4,4.11,4.11,0,0,1-4-4.4,4.07,4.07,0,0,1,4-4.34,3.56,3.56,0,0,1,2.9,1.38V189.7h1.42v14.58Zm-2.68-7.2a3.09,3.09,0,1,0,2.76,3A2.78,2.78,0,0,0,594.07,197.08Z"/><path class="cls-1" d="M607.23,204.29v-1.16a3.54,3.54,0,0,1-2.88,1.4c-2.48,0-4-2.08-4-4.42a4,4,0,0,1,4-4.32,3.51,3.51,0,0,1,2.9,1.38V196h1.42v8.3Zm-2.68-7.22a2.83,2.83,0,0,0-2.74,3,2.86,2.86,0,0,0,2.74,3.12,2.83,2.83,0,0,0,2.76-3.12A2.8,2.8,0,0,0,604.55,197.06Z"/><path class="cls-1" d="M613.61,204.53a3,3,0,0,1-2.9-2.12l1.24-.52c.34.74.8,1.34,1.68,1.34a1.29,1.29,0,0,0,1.36-1.3c0-1.8-3.74-1.24-3.74-3.82a2.33,2.33,0,0,1,2.42-2.32,2.49,2.49,0,0,1,2.28,1.5l-1.18.62a1.33,1.33,0,0,0-1.16-.82,1,1,0,0,0-1,.92c0,1.46,3.84,1.08,3.84,3.8A2.73,2.73,0,0,1,613.61,204.53Z"/><path class="cls-1" d="M619.81,197.3v7h-1.44v-7h-.86V196h.86v-3h1.44v3h1.46v1.32Z"/><path class="cls-1" d="M629.07,197.3v7h-1.42v-7h-.78V196h.78v-3.54a4.76,4.76,0,0,1,.22-1.6,2.31,2.31,0,0,1,2.24-1.38,3.66,3.66,0,0,1,1,.18v1.44a2.55,2.55,0,0,0-.94-.2c-1,0-1.14.78-1.14,1.62V196h2.08v1.32Z"/><path class="cls-1" d="M636.29,204.53a4.37,4.37,0,1,1,4.38-4.36A4.34,4.34,0,0,1,636.29,204.53Zm0-7.44a3.07,3.07,0,1,0,2.94,3.08A2.91,2.91,0,0,0,636.27,197.08Zm-1.72-2.8a1,1,0,0,1-1-1,1,1,0,1,1,1,1Zm3.48,0a1,1,0,0,1-1-1,1,1,0,1,1,1,1Z"/><path class="cls-1" d="M646.75,197.42a1.26,1.26,0,0,0-.84-.28,1.54,1.54,0,0,0-.72.18c-.92.5-.92,1.68-.92,2.58v4.38h-1.42V196h1.42v.9a2.22,2.22,0,0,1,1.88-1.1,2.36,2.36,0,0,1,1.28.34Z"/><path class="cls-1" d="M654.87,204.29v-1.16a3.54,3.54,0,0,1-2.88,1.4c-2.48,0-4-2.08-4-4.42a4,4,0,0,1,4-4.32,3.51,3.51,0,0,1,2.9,1.38V196h1.42v8.3Zm-2.68-7.22a2.83,2.83,0,0,0-2.74,3,2.86,2.86,0,0,0,2.74,3.12,2.83,2.83,0,0,0,2.76-3.12A2.8,2.8,0,0,0,652.19,197.06Z"/><path class="cls-1" d="M664.23,204.29v-4.9c0-1.3-.18-2.32-1.74-2.32-1.84,0-2.06,1.6-2.06,3.06v4.16H659V196h1.42v1a3,3,0,0,1,4.76-.06,3.8,3.8,0,0,1,.48,2.2v5.16Z"/><path class="cls-1" d="M677.85,204.29v-5c0-1.06-.18-2.18-1.5-2.18-1.5,0-1.78,1.4-1.78,2.6v4.62h-1.42v-4.92c0-1-.22-2.3-1.52-2.3a1.72,1.72,0,0,0-1.5.9,4,4,0,0,0-.32,1.8v4.52h-1.42V196h1.42v.88a2.37,2.37,0,0,1,2.06-1.08,2.53,2.53,0,0,1,2.28,1.34,2.83,2.83,0,0,1,4.66-.22,3.88,3.88,0,0,1,.46,2.12v5.26Z"/><path class="cls-1" d="M688.33,204.29v-1.16a3.54,3.54,0,0,1-2.88,1.4c-2.48,0-4-2.08-4-4.42a4,4,0,0,1,4-4.32,3.51,3.51,0,0,1,2.9,1.38V196h1.42v8.3Zm-2.68-7.22a2.83,2.83,0,0,0-2.74,3,2.86,2.86,0,0,0,2.74,3.12,2.83,2.83,0,0,0,2.76-3.12A2.8,2.8,0,0,0,685.65,197.06ZM684,194.28a1,1,0,0,1-1-1,1,1,0,1,1,1,1Zm3.48,0a1,1,0,0,1-1-1,1,1,0,1,1,1,1Z"/><path class="cls-1" d="M692.47,204.29V189.7h1.42v14.58Z"/><path class="cls-1" d="M702.95,204.29v-1.16a3.54,3.54,0,0,1-2.88,1.4c-2.48,0-4-2.08-4-4.42a4,4,0,0,1,4-4.32,3.51,3.51,0,0,1,2.9,1.38V196h1.42v8.3Zm-2.68-7.22a2.83,2.83,0,0,0-2.74,3,2.86,2.86,0,0,0,2.74,3.12,2.83,2.83,0,0,0,2.76-3.12A2.8,2.8,0,0,0,700.27,197.06Z"/><path class="cls-1" d="M712.31,204.29v-4.9c0-1.3-.18-2.32-1.74-2.32-1.84,0-2.06,1.6-2.06,3.06v4.16h-1.42V196h1.42v1a3,3,0,0,1,4.76-.06,3.8,3.8,0,0,1,.48,2.2v5.16Z"/></svg>