<svg id="Lager_1" data-name="Lager 1" xmlns="http://www.w3.org/2000/svg" xmlns:xlink="http://www.w3.org/1999/xlink" viewBox="0 0 159.45 208.35"><defs><style>.cls-1{fill:none;}.cls-2{fill:#25303b;}.cls-3{fill:#fff;}.cls-4{clip-path:url(#clip-path);}.cls-5{fill:url(#Namnlös_övertoning);}</style><clipPath id="clip-path" transform="translate(-33.59 -36)"><path class="cls-1" d="M103.51,128.25h41.92v19H103.51ZM73.41,83.3h1.28a19.87,19.87,0,0,1,20.18-20c12.19,0,20.51,8.44,20.51,19.29,0,4.47-2.18,10-5.53,14.42L71.4,147.46l.56,1.12h30.21v21.76l1.39.73a26.28,26.28,0,0,1,18.84-8.16c14.64,0,25.43,11.12,25.43,25.2,0,13.75-10.45,25.27-25.65,25.27-11.85,0-20.91-6.93-24.26-16.77l-1.29.5c3.58,10.28,13.25,17.55,25.55,17.55,15.87,0,27-12.13,27-26.55,0-14.75-11.52-26.49-26.83-26.49a27.38,27.38,0,0,0-18.89,7.77V148.58h43.23V127H102.17v20.32h-29L111,97.94c3.57-4.69,5.81-10.4,5.81-15.31,0-11.52-9-20.57-21.91-20.57-11.51,0-21.24,8.49-21.46,21.24"/></clipPath><linearGradient id="Namnlös_övertoning" y1="283.72" x2="1" y2="283.72" gradientTransform="matrix(0, -152.6, -152.6, 0, 43373.11, 178.66)" gradientUnits="userSpaceOnUse"><stop offset="0" stop-color="#ad7f29"/><stop offset="0.3" stop-color="#dfba67"/><stop offset="0.49" stop-color="#ffdf8e"/><stop offset="0.66" stop-color="#e2bd6d"/><stop offset="1" stop-color="#ad7f2f"/></linearGradient></defs><title>TH 25 logo skiffer</title><rect class="cls-2" width="159.45" height="208.35"/><path class="cls-3" d="M170.74,182.34a1.19,1.19,0,0,1,0,2.38,1.19,1.19,0,1,1,0-2.38Zm0,5.72a1.41,1.41,0,0,1-1.4-1.42,1.4,1.4,0,0,1,2.8,0,1.41,1.41,0,0,1-1.4,1.42m0,.55a2,2,0,0,0,2-2,1.89,1.89,0,0,0-1.07-1.69,1.7,1.7,0,0,0,.83-1.45,1.75,1.75,0,0,0-3.49,0,1.66,1.66,0,0,0,.83,1.45,1.89,1.89,0,0,0-1.06,1.69,2,2,0,0,0,2,2m-5.15-.12h.57v-6.63h-.3l-1.8,1,.26.47,1.27-.72Zm-5.84-.44a1.42,1.42,0,0,1-1.46-1.49v-2.71a1.47,1.47,0,1,1,2.94,0v2.73a1.43,1.43,0,0,1-1.48,1.48m0,.56a2,2,0,0,0,2.05-2v-2.73a2,2,0,0,0-2.05-2,2,2,0,0,0-2,2v2.71a2,2,0,0,0,2,2.05m-8.39-.12h4V188h-3.11l2.37-3.09a2.19,2.19,0,0,0,.53-1.31,1.76,1.76,0,0,0-1.86-1.75,1.81,1.81,0,0,0-1.83,1.83H152a1.26,1.26,0,0,1,1.27-1.29,1.2,1.2,0,0,1,1.28,1.21,1.51,1.51,0,0,1-.37.95l-2.8,3.68Zm-9.45.12a1.94,1.94,0,0,0,2-1.9,1.65,1.65,0,0,0-1.14-1.67,1.53,1.53,0,0,0,1-1.47,1.78,1.78,0,0,0-1.88-1.76,1.81,1.81,0,0,0-1.85,1.77h.56a1.27,1.27,0,0,1,1.29-1.25,1.23,1.23,0,0,1,1.31,1.24,1.25,1.25,0,0,1-1.34,1.19h-.19l0,.55h.21a1.39,1.39,0,0,1,1.43,1.4,1.36,1.36,0,0,1-1.43,1.35,1.38,1.38,0,0,1-1.37-1.26H140a2,2,0,0,0,1.92,1.81m-5.74-3.56a1.36,1.36,0,0,1,0-2.71,1.36,1.36,0,0,1,0,2.71m0,.54a1.87,1.87,0,0,0,.68-.12c-.53,1-1.08,2-1.6,3h.62c.68-1.29,1.37-2.56,2-3.84a1.9,1.9,0,0,0,.24-1,1.88,1.88,0,0,0-1.88-1.86,1.9,1.9,0,0,0-1.92,1.89,1.88,1.88,0,0,0,1.83,1.89m-5.78-.54a1.36,1.36,0,0,1,0-2.71,1.36,1.36,0,0,1,0,2.71m-.05.54a1.78,1.78,0,0,0,.67-.12c-.52,1-1.07,2-1.59,3H130c.68-1.29,1.37-2.56,2-3.84a1.9,1.9,0,0,0,.24-1,1.88,1.88,0,0,0-1.88-1.86,1.9,1.9,0,0,0-1.92,1.89,1.88,1.88,0,0,0,1.83,1.89m-4.86,2.9H126v-6.63h-.31l-1.79,1,.26.47,1.27-.72Zm-9.64.07a1.85,1.85,0,0,0,2.09-1.82,1.9,1.9,0,0,0-1.4-1.84l-.83-.33c-.8-.32-1-.66-1-1.12a1.1,1.1,0,0,1,1.22-1.06,2,2,0,0,1,1.46.59l.38-.45a2.52,2.52,0,0,0-1.84-.7,1.68,1.68,0,0,0-1.81,1.63c0,.82.5,1.3,1.4,1.66l.83.32a1.42,1.42,0,0,1,1,1.31,1.32,1.32,0,0,1-1.49,1.25,2.57,2.57,0,0,1-1.84-.86l-.42.42a3.11,3.11,0,0,0,2.24,1m-7.12.05a2.29,2.29,0,0,0,2.38-2.4v-4.28h-.6v4.25a1.78,1.78,0,1,1-3.55,0v-4.25h-.59v4.28a2.29,2.29,0,0,0,2.36,2.4m-6-.12h.6v-6.56h-.6v3H98.88v-3h-.6v6.56h.6v-3h3.76Zm-10.49,0h3.59v-.55h-3v-6h-.59Zm-3-3.06v-.55h-3v-2.4h3.07v-.55H85.61v6.56h3.68v-.55H86.2v-2.51Zm-8.43,3.13a1.86,1.86,0,0,0,2.09-1.82,1.9,1.9,0,0,0-1.4-1.84l-.84-.33c-.8-.32-1-.66-1-1.12a1.09,1.09,0,0,1,1.22-1.06,2,2,0,0,1,1.45.59l.39-.45a2.52,2.52,0,0,0-1.84-.7A1.68,1.68,0,0,0,79,183.46c0,.82.5,1.3,1.39,1.66l.84.32a1.42,1.42,0,0,1,1,1.31A1.32,1.32,0,0,1,80.75,188a2.55,2.55,0,0,1-1.83-.86l-.43.42a3.12,3.12,0,0,0,2.25,1M74,188.49h.44l2.67-6.56h-.62l-2.26,5.56L72,181.93h-.64Zm-5.63,0h.59v-6.56h-.59Zm-4.79-6A1.37,1.37,0,0,1,65,183.82a1.35,1.35,0,0,1-1.45,1.36H61.77v-2.71Zm-2.37,6h.6v-2.77h1L65,188.49h.73l-2.21-2.77h.09a1.9,1.9,0,1,0,0-3.79H61.17Zm-7.39-6H56v6h.6v-6H58.8v-.56h-5Z" transform="translate(-33.59 -36)"/><g class="cls-4"><rect class="cls-5" x="37.81" y="26.06" width="77.83" height="152.6"/></g></svg>