<svg id="Layer_1" data-name="Layer 1" xmlns="http://www.w3.org/2000/svg" viewBox="0 0 300 250"><defs><style>.cls-1{fill:#fff;}</style></defs><title>text</title><path class="cls-1" d="M195.88,55.72V67.3c0,.47-.31.7-.91.7s-.89-.23-.89-.7V62H187.8v5.3c0,.47-.3.7-.9.7s-.9-.23-.9-.7V55.72q0-.72.9-.72t.9.72v4.64h6.28V55.72c0-.48.3-.72.89-.72S195.87,55.24,195.88,55.72Z"/><path class="cls-1" d="M202.94,68.1a1.56,1.56,0,0,1-1-.32,1.91,1.91,0,0,1-.61-.82l-2.83-7.62a2.56,2.56,0,0,0-.07-.32c0-.47.29-.7.87-.7a.83.83,0,0,1,.88.52l2.68,7.52H203l2.69-7.52c.13-.35.45-.52,1-.52s.77.23.77.7c0,0,0,.12-.06.32L204.52,67a1.69,1.69,0,0,1-.61.83A1.65,1.65,0,0,1,202.94,68.1Z"/><path class="cls-1" d="M209.14,63.24a11.94,11.94,0,0,1,.22-2.58,2.79,2.79,0,0,1,2.12-2.31,9.16,9.16,0,0,1,2.1-.19,9,9,0,0,1,2.08.19,2.83,2.83,0,0,1,1.36.76,3.27,3.27,0,0,1,.79,1.54,12.72,12.72,0,0,1,.21,2.58,12.58,12.58,0,0,1-.21,2.58,2.83,2.83,0,0,1-.8,1.48,3.05,3.05,0,0,1-1.35.69,9.53,9.53,0,0,1-2.08.18,10.53,10.53,0,0,1-2.1-.17,2.91,2.91,0,0,1-1.35-.69,2.64,2.64,0,0,1-.78-1.5A12.37,12.37,0,0,1,209.14,63.24Zm2-2.28a4.9,4.9,0,0,0-.22,1.78c0,.86,0,1.53.07,2a2.48,2.48,0,0,0,.51,1.31,1.57,1.57,0,0,0,1.17.41l.9,0c1.17,0,1.85-.14,2.06-.43a2.63,2.63,0,0,0,.52-1.32c0-.49.07-1,.07-1.52,0-1.55-.15-2.49-.44-2.81a3.3,3.3,0,0,0-.34-.37A2.45,2.45,0,0,0,214,59.8c-.72,0-1.18,0-1.37,0-.61,0-1,.17-1.16.41A4.07,4.07,0,0,0,211.15,61Z"/><path class="cls-1" d="M222.41,62.32v5c0,.47-.3.7-.9.7s-.89-.23-.9-.7V62.08a6.27,6.27,0,0,1,.32-2.49,3.56,3.56,0,0,1,.59-.85c.43-.39,1.5-.58,3.22-.58a5.49,5.49,0,0,1,1.74.17.65.65,0,0,1,.44.64.93.93,0,0,1-.24.69.82.82,0,0,1-.62.22l-1.32-.08a5.81,5.81,0,0,0-1.53.12,1.32,1.32,0,0,0-.45.22,1.54,1.54,0,0,0-.22.45,2.39,2.39,0,0,0-.12.7C222.41,61.54,222.41,61.88,222.41,62.32Z"/><path class="cls-1" d="M237.21,55.32v7.92A12.44,12.44,0,0,1,237,65.8a2.78,2.78,0,0,1-.79,1.49,3,3,0,0,1-1.33.69,9.46,9.46,0,0,1-2.08.18,10.49,10.49,0,0,1-2.09-.17,2.91,2.91,0,0,1-1.35-.69,2.64,2.64,0,0,1-.78-1.5,12.44,12.44,0,0,1-.21-2.56,11.94,11.94,0,0,1,.22-2.58,2.78,2.78,0,0,1,2.12-2.31,10.33,10.33,0,0,1,2.31-.19,6.06,6.06,0,0,1,2.4.39V55.32c0-.48.3-.72.89-.72S237.21,54.84,237.21,55.32ZM230.38,61a4.9,4.9,0,0,0-.22,1.78c0,.86,0,1.53.07,2a2.4,2.4,0,0,0,.51,1.31,1.57,1.57,0,0,0,1.17.41l.89,0c1.17,0,1.86-.14,2.07-.43a2.72,2.72,0,0,0,.52-1.32c0-.49.07-1,.07-1.52,0-1.55-.15-2.49-.44-2.81a2.56,2.56,0,0,0-.35-.37,2.39,2.39,0,0,0-1.4-.27c-.72,0-1.18,0-1.37,0-.61,0-1,.17-1.16.41A4.07,4.07,0,0,0,230.38,61Z"/><path class="cls-1" d="M241,60.06c-.41,0-.62-.25-.62-.74a.81.81,0,0,1,.62-.9,13.74,13.74,0,0,1,3.25-.26,4.71,4.71,0,0,1,3.06.72,3.25,3.25,0,0,1,.81,2.52v3.86c0,1.2-.29,2-.88,2.35a7,7,0,0,1-3.36.55,6.92,6.92,0,0,1-3.34-.55,2.63,2.63,0,0,1-.85-2.34,3.59,3.59,0,0,1,.65-2.47,3.71,3.71,0,0,1,2.67-.68h3.32v-1a1.13,1.13,0,0,0-.46-1,3.46,3.46,0,0,0-1.63-.27,13.58,13.58,0,0,0-2.05.13A7.4,7.4,0,0,1,241,60.06Zm5.33,5.34V63.7H243.5a3.5,3.5,0,0,0-1.68.26c-.25.17-.38.55-.38,1.15s.16,1,.48,1.16a4.91,4.91,0,0,0,1.91.25,5.77,5.77,0,0,0,1.93-.22A.89.89,0,0,0,246.28,65.4Z"/><path class="cls-1" d="M253,60.14a3.86,3.86,0,0,0-.34,2.16v5c0,.47-.3.7-.89.7s-.9-.23-.9-.7V62.08a10.1,10.1,0,0,1,.17-2.15,1.94,1.94,0,0,1,.7-1.17,2.67,2.67,0,0,1,1.24-.5,18.59,18.59,0,0,1,2.21-.1c1.68,0,2.74.19,3.19.61a2.67,2.67,0,0,1,.78,1.76c0,.42.07.94.07,1.55V67.3c0,.47-.3.7-.9.7s-.9-.23-.9-.7v-5a3.93,3.93,0,0,0-.34-2.15c-.23-.24-.92-.35-2.06-.35S253.19,59.91,253,60.14Z"/><path class="cls-1" d="M185.32,87.24a11.94,11.94,0,0,1,.22-2.58,2.79,2.79,0,0,1,2.13-2.31,9.07,9.07,0,0,1,2.09-.19,9,9,0,0,1,2.08.19,2.83,2.83,0,0,1,1.36.76,3.18,3.18,0,0,1,.79,1.54,12.61,12.61,0,0,1,.22,2.58,12.48,12.48,0,0,1-.22,2.58,2.76,2.76,0,0,1-.8,1.48,3.05,3.05,0,0,1-1.35.69,9.53,9.53,0,0,1-2.08.18,10.35,10.35,0,0,1-2.09-.17,2.86,2.86,0,0,1-1.35-.69,2.65,2.65,0,0,1-.79-1.5A12.37,12.37,0,0,1,185.32,87.24Zm2-2.28a5.2,5.2,0,0,0-.21,1.78c0,.86,0,1.53.06,2a2.48,2.48,0,0,0,.51,1.31,1.57,1.57,0,0,0,1.17.41l.9,0c1.17,0,1.86-.14,2.06-.43a2.54,2.54,0,0,0,.52-1.32c0-.49.07-1,.07-1.52,0-1.55-.15-2.49-.44-2.81a2.56,2.56,0,0,0-.34-.37,2.43,2.43,0,0,0-1.41-.27c-.72,0-1.18,0-1.37,0-.61,0-1,.17-1.16.41A4.07,4.07,0,0,0,187.33,85Z"/><path class="cls-1" d="M196.79,95.2V87.08a11.59,11.59,0,0,1,.23-2.56,2.75,2.75,0,0,1,2.11-2.19,9.56,9.56,0,0,1,2.08-.17,9.83,9.83,0,0,1,2.1.17,3,3,0,0,1,1.35.69,2.78,2.78,0,0,1,.79,1.5,13.28,13.28,0,0,1,.2,2.57,11.88,11.88,0,0,1-.22,2.58,2.77,2.77,0,0,1-2.12,2.3,11,11,0,0,1-2.31.19,6.08,6.08,0,0,1-2.41-.39V95.2c0,.47-.3.71-.89.71S196.8,95.67,196.79,95.2Zm6.85-5.82a5.19,5.19,0,0,0,.21-1.79q0-1.29-.06-2a2.7,2.7,0,0,0-.5-1.33c-.21-.28-.9-.42-2.08-.42s-1.86.14-2.07.42a2.54,2.54,0,0,0-.52,1.35,14.84,14.84,0,0,0-.07,1.51c0,.52,0,1,0,1.3a8.27,8.27,0,0,0,.12.9,1.71,1.71,0,0,0,.61,1,1.32,1.32,0,0,0,.81.25l1.12,0,.85,0a5,5,0,0,0,.66-.11.81.81,0,0,0,.52-.31A6.15,6.15,0,0,0,203.64,89.38Z"/><path class="cls-1" d="M208.27,95.2V87.08a11.68,11.68,0,0,1,.22-2.56,2.74,2.74,0,0,1,2.12-2.19,9.5,9.5,0,0,1,2.08-.17,9.66,9.66,0,0,1,2.09.17,3.09,3.09,0,0,1,1.36.69,2.71,2.71,0,0,1,.78,1.5,12.41,12.41,0,0,1,.21,2.57,11.79,11.79,0,0,1-.23,2.58,2.77,2.77,0,0,1-2.11,2.3,11.08,11.08,0,0,1-2.32.19,6.08,6.08,0,0,1-2.41-.39V95.2c0,.47-.29.71-.89.71S208.27,95.67,208.27,95.2Zm6.84-5.82a4.89,4.89,0,0,0,.22-1.79c0-.86,0-1.54-.07-2a2.6,2.6,0,0,0-.5-1.33q-.31-.42-2.07-.42c-1.18,0-1.87.14-2.08.42a2.62,2.62,0,0,0-.52,1.35c0,.49-.06,1-.06,1.51s0,1,0,1.3.08.65.12.9a1.73,1.73,0,0,0,.62,1,1.31,1.31,0,0,0,.8.25l1.13,0,.85,0a4.9,4.9,0,0,0,.65-.11.81.81,0,0,0,.52-.31A4.86,4.86,0,0,0,215.11,89.38Z"/><path class="cls-1" d="M221.87,84.14a4,4,0,0,0-.33,2.16v5c0,.47-.3.7-.89.7s-.9-.23-.91-.7V86.08a10,10,0,0,1,.18-2.15,1.89,1.89,0,0,1,.7-1.17,2.68,2.68,0,0,1,1.23-.5,18.67,18.67,0,0,1,2.22-.1c1.68,0,2.74.19,3.18.61a2.63,2.63,0,0,1,.78,1.76,13.61,13.61,0,0,1,.07,1.55V91.3c0,.47-.3.7-.9.7s-.9-.23-.9-.7v-5a3.84,3.84,0,0,0-.34-2.15c-.23-.24-.91-.35-2.05-.35S222.09,83.91,221.87,84.14Z"/><path class="cls-1" d="M231.91,84.06c-.42,0-.62-.25-.62-.74a.8.8,0,0,1,.62-.9,13.7,13.7,0,0,1,3.24-.26,4.76,4.76,0,0,1,3.07.72A3.25,3.25,0,0,1,239,85.4v3.86c0,1.2-.29,2-.88,2.35a7.12,7.12,0,0,1-3.37.55,6.82,6.82,0,0,1-3.33-.55,2.66,2.66,0,0,1-.83-2.34,3.59,3.59,0,0,1,.65-2.47,3.67,3.67,0,0,1,2.66-.68h3.3v-1a1.11,1.11,0,0,0-.46-1,3.43,3.43,0,0,0-1.63-.27,13.35,13.35,0,0,0-2,.13A7.4,7.4,0,0,1,231.91,84.06Zm5.32,5.34V87.7h-2.76a3.45,3.45,0,0,0-1.67.26c-.26.17-.38.55-.38,1.15s.16,1,.47,1.16a4.91,4.91,0,0,0,1.91.25,5.74,5.74,0,0,0,1.92-.22A.88.88,0,0,0,237.23,89.4Zm-3.49-8.26a1.83,1.83,0,0,1-.53-1.32,1.8,1.8,0,0,1,.54-1.32,1.86,1.86,0,0,1,2.62,0,1.8,1.8,0,0,1,.55,1.32,1.77,1.77,0,0,1-.55,1.32,1.87,1.87,0,0,1-2.63,0Zm.52-1.32a.78.78,0,0,0,.24.58.76.76,0,0,0,.57.22.77.77,0,0,0,.56-.23.8.8,0,0,0,.24-.58.81.81,0,1,0-1.61,0Z"/><path class="cls-1" d="M195.44,107.8a10.83,10.83,0,0,0-1.17,0,1,1,0,0,0-.62.29,1,1,0,0,0-.32.66,10.27,10.27,0,0,0-.05,1.28v5.22c0,.48-.3.71-.9.71s-.9-.23-.9-.71V109.8c0-.92-.12-1.48-.36-1.69a2.45,2.45,0,0,0-1.5-.31c-.76,0-1.25,0-1.48,0a.92.92,0,0,0-.61.32,1.24,1.24,0,0,0-.3.72c0,.3,0,.77,0,1.42v5c0,.48-.29.71-.89.71s-.9-.23-.9-.7v-5.22a6.47,6.47,0,0,1,.46-2.88,2.17,2.17,0,0,1,1.88-1c.37,0,.9-.06,1.6-.06a5.41,5.41,0,0,1,3,.56,5.45,5.45,0,0,1,3-.56c.68,0,1.21,0,1.59,0a2.25,2.25,0,0,1,1.86.93,6.52,6.52,0,0,1,.49,2.94v5.22c0,.47-.3.7-.9.7s-.9-.23-.9-.71v-5c0-.65,0-1.12,0-1.42a1.24,1.24,0,0,0-.3-.72.92.92,0,0,0-.61-.32A11,11,0,0,0,195.44,107.8Z"/><path class="cls-1" d="M203.19,108.06c-.42,0-.63-.25-.63-.74a.81.81,0,0,1,.63-.9,13.7,13.7,0,0,1,3.24-.26,4.76,4.76,0,0,1,3.07.72,3.25,3.25,0,0,1,.81,2.52v3.86c0,1.2-.29,2-.88,2.35a7.12,7.12,0,0,1-3.37.55,6.87,6.87,0,0,1-3.33-.55c-.57-.36-.85-1.15-.85-2.34a3.59,3.59,0,0,1,.65-2.47,3.71,3.71,0,0,1,2.67-.68h3.31v-1a1.11,1.11,0,0,0-.46-1,3.43,3.43,0,0,0-1.63-.27,13.35,13.35,0,0,0-2,.13A7.4,7.4,0,0,1,203.19,108.06Zm5.32,5.34v-1.7h-2.78a3.45,3.45,0,0,0-1.67.26c-.26.17-.38.55-.38,1.15s.16,1,.48,1.16a4.91,4.91,0,0,0,1.91.25,5.81,5.81,0,0,0,1.93-.22A.88.88,0,0,0,208.51,113.4Z"/><path class="cls-1" d="M214.85,103.32V111l4.47-4.52a1,1,0,0,1,.67-.31.85.85,0,0,1,.62.26.77.77,0,0,1,.26.58.92.92,0,0,1-.33.67l-2.58,2.4,3.19,4.44a1,1,0,0,1,.19.6.75.75,0,0,1-.28.59,1,1,0,0,1-.66.27.68.68,0,0,1-.59-.32l-3.12-4.38-1.84,1.7v2.28c0,.47-.3.7-.89.7s-.9-.23-.91-.7v-12c0-.48.31-.72.91-.72S214.85,102.84,214.85,103.32Z"/><path class="cls-1" d="M229,113.06v-.23a.74.74,0,0,0-.47-.69,4,4,0,0,0-1.63-.21,10.63,10.63,0,0,1-2.58-.36,2.14,2.14,0,0,1-1.17-.8,2.56,2.56,0,0,1-.47-1.6V109a2.36,2.36,0,0,1,1-2.25,6.26,6.26,0,0,1,3.06-.58,12.65,12.65,0,0,1,3,.26.81.81,0,0,1,.62.9c0,.49-.21.74-.62.74a10.79,10.79,0,0,1-1.26-.13,14,14,0,0,0-2-.13A5.32,5.32,0,0,0,225,108c-.34.12-.5.45-.5,1v.18c0,.71.74,1.09,2.23,1.14.61,0,1.24.08,1.86.15a2.8,2.8,0,0,1,1.58.7,2.06,2.06,0,0,1,.65,1.67v.24a2.68,2.68,0,0,1-1,2.45,6.32,6.32,0,0,1-3.27.65,14.23,14.23,0,0,1-3.23-.26.81.81,0,0,1-.62-.9c0-.49.21-.74.62-.74a13.25,13.25,0,0,1,1.41.13,18.35,18.35,0,0,0,2,.13,4.19,4.19,0,0,0,1.64-.27A1.16,1.16,0,0,0,229,113.06Z"/><path class="cls-1" d="M233.37,104a.94.94,0,0,1,.29-.7,1,1,0,0,1,.68-.3,1,1,0,0,1,.7.3,1.08,1.08,0,0,1,.28.71,1,1,0,0,1-1,1,.92.92,0,0,1-.69-.29A1,1,0,0,1,233.37,104Zm1.87,3v8.28c0,.47-.3.7-.9.7s-.9-.23-.9-.7V107c0-.47.3-.71.9-.71S235.24,106.55,235.24,107Z"/><path class="cls-1" d="M248.23,107.8a10.61,10.61,0,0,0-1.16,0,1,1,0,0,0-.63.29,1,1,0,0,0-.32.66,12.73,12.73,0,0,0-.05,1.28v5.22c0,.48-.3.71-.9.71s-.9-.23-.9-.71V109.8c0-.92-.12-1.48-.36-1.69a2.45,2.45,0,0,0-1.5-.31c-.75,0-1.25,0-1.47,0a.94.94,0,0,0-.62.32,1.17,1.17,0,0,0-.29.72c0,.3,0,.77,0,1.42v5c0,.48-.3.71-.9.71s-.89-.23-.9-.7v-5.22a6.47,6.47,0,0,1,.46-2.88,2.17,2.17,0,0,1,1.88-1c.37,0,.91-.06,1.6-.06a5.39,5.39,0,0,1,3,.56,5.45,5.45,0,0,1,3-.56c.68,0,1.21,0,1.59,0a2.29,2.29,0,0,1,1.87.93,6.69,6.69,0,0,1,.48,2.94v5.22c0,.47-.3.7-.89.7s-.9-.23-.9-.71v-5c0-.65,0-1.12-.05-1.42a1.3,1.3,0,0,0-.29-.72,1,1,0,0,0-.62-.32A10.71,10.71,0,0,0,248.23,107.8Z"/><path class="cls-1" d="M256,108.06c-.41,0-.62-.25-.62-.74a.81.81,0,0,1,.62-.9,13.7,13.7,0,0,1,3.24-.26,4.72,4.72,0,0,1,3.07.72,3.25,3.25,0,0,1,.81,2.52v3.86c0,1.2-.29,2-.88,2.35a7.07,7.07,0,0,1-3.36.55,6.92,6.92,0,0,1-3.34-.55,2.63,2.63,0,0,1-.85-2.34,3.59,3.59,0,0,1,.65-2.47,3.71,3.71,0,0,1,2.67-.68h3.31v-1a1.1,1.1,0,0,0-.45-1,3.48,3.48,0,0,0-1.64-.27,13.53,13.53,0,0,0-2,.13A7.4,7.4,0,0,1,256,108.06Zm5.32,5.34v-1.7h-2.77a3.48,3.48,0,0,0-1.68.26c-.25.17-.38.55-.38,1.15s.16,1,.48,1.16a4.91,4.91,0,0,0,1.91.25,5.77,5.77,0,0,0,1.93-.22A.87.87,0,0,0,261.3,113.4Z"/><path class="cls-1" d="M267.83,103.32v12c0,.47-.3.7-.9.7s-.9-.23-.9-.7v-12q0-.72.9-.72T267.83,103.32Z"/><path class="cls-1" d="M190.26,140h-4.88c-.41,0-.62-.26-.62-.79s.21-.79.62-.79h1.54v-9.84h-1.54c-.41,0-.62-.26-.62-.79s.21-.79.62-.79h4.88c.41,0,.62.27.62.79s-.21.79-.62.79h-1.54v9.84h1.54c.41,0,.62.26.62.79S190.67,140,190.26,140Z"/><path class="cls-1" d="M196.88,139.3V128.64h-4c-.41,0-.62-.27-.62-.82s.21-.82.62-.82h9.84c.41,0,.62.28.62.82s-.21.82-.62.82h-4V139.3c0,.47-.3.7-.9.7S196.88,139.77,196.88,139.3Z"/><path class="cls-1" d="M208.55,134.8h-5.62c-.41,0-.62-.27-.62-.82s.21-.82.62-.82h5.62c.41,0,.62.28.62.82S209,134.8,208.55,134.8Z"/><path class="cls-1" d="M217,137.06v-.23a.74.74,0,0,0-.47-.69,4,4,0,0,0-1.63-.21,10.5,10.5,0,0,1-2.58-.36,2.14,2.14,0,0,1-1.17-.8,2.56,2.56,0,0,1-.47-1.6V133a2.36,2.36,0,0,1,1-2.25,6.26,6.26,0,0,1,3.06-.58,12.71,12.71,0,0,1,3.05.26.8.8,0,0,1,.61.9c0,.49-.2.74-.61.74a10.4,10.4,0,0,1-1.26-.13,14.1,14.1,0,0,0-2-.13A5.44,5.44,0,0,0,213,132c-.33.12-.49.45-.49,1v.18q0,1.07,2.22,1.14c.62,0,1.24.08,1.87.15a2.83,2.83,0,0,1,1.58.7,2,2,0,0,1,.64,1.67v.24a2.68,2.68,0,0,1-1,2.45,6.32,6.32,0,0,1-3.27.65,14.17,14.17,0,0,1-3.23-.26.81.81,0,0,1-.62-.9c0-.49.21-.74.62-.74a13.25,13.25,0,0,1,1.41.13,18.2,18.2,0,0,0,2.05.13,4.13,4.13,0,0,0,1.63-.27A1.15,1.15,0,0,0,217,137.06Z"/><path class="cls-1" d="M221.38,128a1,1,0,0,1,.3-.7,1,1,0,0,1,.68-.3.92.92,0,0,1,.69.3,1,1,0,0,1,.29.71.91.91,0,0,1-.3.68,1,1,0,0,1-1.37,0A1,1,0,0,1,221.38,128Zm1.88,3v8.28c0,.47-.3.7-.9.7s-.9-.23-.9-.7V131c0-.47.3-.71.9-.71S223.26,130.55,223.26,131Z"/><path class="cls-1" d="M228,127.32V135l4.48-4.52a.93.93,0,0,1,.66-.31.86.86,0,0,1,.63.26.76.76,0,0,1,.25.58.94.94,0,0,1-.32.67l-2.58,2.4,3.18,4.44a1.05,1.05,0,0,1,.2.6.78.78,0,0,1-.28.59,1,1,0,0,1-.67.27.66.66,0,0,1-.58-.32l-3.13-4.38L228,137v2.28c0,.47-.29.7-.89.7s-.9-.23-.9-.7v-12c0-.48.31-.72.9-.72S228,126.84,228,127.32Z"/><path class="cls-1" d="M237.86,127.32V135l4.47-4.52a.93.93,0,0,1,.66-.31.86.86,0,0,1,.63.26.76.76,0,0,1,.25.58.91.91,0,0,1-.32.67l-2.58,2.4,3.19,4.44a1,1,0,0,1,.19.6.78.78,0,0,1-.28.59,1,1,0,0,1-.67.27.67.67,0,0,1-.58-.32l-3.13-4.38-1.83,1.7v2.28c0,.47-.3.7-.9.7s-.89-.23-.9-.7v-12q0-.72.9-.72T237.86,127.32Z"/><path class="cls-1" d="M253.39,138.28c.41,0,.62.25.62.74a.81.81,0,0,1-.62.9,15.13,15.13,0,0,1-3.25.24,5.51,5.51,0,0,1-3.27-.75,2.9,2.9,0,0,1-1-2.49v-3.66a2.85,2.85,0,0,1,.89-2.47,9.32,9.32,0,0,1,6.66,0,2.9,2.9,0,0,1,.86,2.5v1.58a1.1,1.1,0,0,1-.26.77.9.9,0,0,1-.68.27h-5.68v1.17c0,1,.86,1.47,2.57,1.47a14.15,14.15,0,0,0,1.95-.12A10.51,10.51,0,0,1,253.39,138.28Zm-5.72-5v1h4.83v-1a1.29,1.29,0,0,0-.49-1.17,4.11,4.11,0,0,0-1.91-.3,4.38,4.38,0,0,0-1.91.28A1.27,1.27,0,0,0,247.67,133.27Z"/><path class="cls-1" d="M258.79,134.32v5c0,.47-.3.7-.9.7s-.89-.23-.9-.7v-5.22a6.09,6.09,0,0,1,.32-2.49,3.3,3.3,0,0,1,.59-.85c.43-.39,1.5-.58,3.22-.58a5.53,5.53,0,0,1,1.74.17.65.65,0,0,1,.44.64.9.9,0,0,1-.25.69.8.8,0,0,1-.61.22l-1.32-.08a5.81,5.81,0,0,0-1.53.12,1.15,1.15,0,0,0-.45.22,1.54,1.54,0,0,0-.22.45,2.4,2.4,0,0,0-.13.7Z"/><path class="cls-1" d="M266.62,127.32v3.1a12.72,12.72,0,0,1,2.5-.26,10.87,10.87,0,0,1,1.89.13,2.27,2.27,0,0,1,2,1.81,10.37,10.37,0,0,1,.18,2.18v5c0,.47-.3.7-.9.7s-.9-.23-.9-.71v-4.82a9.92,9.92,0,0,0-.08-1.52,1.13,1.13,0,0,0-.41-.79,1.34,1.34,0,0,0-.7-.31,9.61,9.61,0,0,0-1.27,0,17.41,17.41,0,0,0-2.3.2v7.29c0,.48-.3.71-.9.71s-.89-.23-.9-.7v-12q0-.72.9-.72T266.62,127.32Z"/><path class="cls-1" d="M283.74,138.28c.41,0,.61.25.61.74a.8.8,0,0,1-.61.9,15.31,15.31,0,0,1-3.26.24,5.51,5.51,0,0,1-3.27-.75,2.93,2.93,0,0,1-1-2.49v-3.66a2.85,2.85,0,0,1,.9-2.47,6.21,6.21,0,0,1,3.34-.63,6.33,6.33,0,0,1,3.32.6,2.93,2.93,0,0,1,.85,2.5v1.58a1.1,1.1,0,0,1-.26.77.88.88,0,0,1-.68.27H278v1.17c0,1,.86,1.47,2.57,1.47a14.41,14.41,0,0,0,2-.12A10.11,10.11,0,0,1,283.74,138.28Zm-5.73-5v1h4.83v-1a1.29,1.29,0,0,0-.49-1.17,4.09,4.09,0,0,0-1.9-.3,4.41,4.41,0,0,0-1.92.28A1.27,1.27,0,0,0,278,133.27Z"/><path class="cls-1" d="M290.68,140a2.55,2.55,0,0,1-1.9-.58,3,3,0,0,1-.54-2V131.9H287c-.41,0-.61-.26-.61-.79s.2-.79.61-.79h1.26v-2.54c0-.47.3-.7.9-.7s.9.23.9.7v2.54h2.54c.41,0,.61.27.61.79s-.2.79-.61.79H290v5.64c0,.55.32.82,1,.82l1.7-.1q.63,0,.63.72a.92.92,0,0,1-.65,1Q292,140,290.68,140Z"/><path class="cls-1" d="M188.1,154.22v.1h2.54c.41,0,.62.27.62.79s-.21.79-.62.79H188.1v7.4c0,.47-.3.7-.9.7s-.9-.23-.9-.7v-7.4H185c-.41,0-.62-.26-.62-.79s.21-.79.62-.79h1.28V154a2.71,2.71,0,0,1,3.34-3.38,5.4,5.4,0,0,1,1.74.18.61.61,0,0,1,.44.61.84.84,0,0,1-.24.68.91.91,0,0,1-.62.23l-1.32-.06a1.65,1.65,0,0,0-1.26.34A3,3,0,0,0,188.1,154.22Z"/><path class="cls-1" d="M192.77,159.24a11.94,11.94,0,0,1,.22-2.58,2.79,2.79,0,0,1,2.13-2.31,9.07,9.07,0,0,1,2.09-.19,9,9,0,0,1,2.08.19,2.83,2.83,0,0,1,1.36.76,3.18,3.18,0,0,1,.79,1.54,12.61,12.61,0,0,1,.22,2.58,12.48,12.48,0,0,1-.22,2.58,2.76,2.76,0,0,1-.8,1.48,3,3,0,0,1-1.35.69,9.46,9.46,0,0,1-2.08.18,10.35,10.35,0,0,1-2.09-.17,2.91,2.91,0,0,1-1.35-.69,2.71,2.71,0,0,1-.79-1.5A12.37,12.37,0,0,1,192.77,159.24Zm2-2.28a5.2,5.2,0,0,0-.21,1.78q0,1.27.06,2a2.48,2.48,0,0,0,.51,1.31,1.57,1.57,0,0,0,1.17.41l.9,0c1.17,0,1.86-.14,2.06-.43a2.54,2.54,0,0,0,.52-1.32,14.91,14.91,0,0,0,.07-1.52c0-1.55-.15-2.49-.44-2.81a2.56,2.56,0,0,0-.34-.37,2.39,2.39,0,0,0-1.4-.27c-.72,0-1.18,0-1.38,0-.61,0-1,.17-1.16.41A4.07,4.07,0,0,0,194.78,157Z"/><path class="cls-1" d="M206,158.32v5c0,.47-.3.7-.89.7s-.9-.23-.91-.7v-5.22a6.27,6.27,0,0,1,.32-2.49,3.55,3.55,0,0,1,.6-.85c.42-.39,1.5-.58,3.22-.58a5.46,5.46,0,0,1,1.73.17.63.63,0,0,1,.44.64.93.93,0,0,1-.24.69.82.82,0,0,1-.62.22l-1.31-.08a5.85,5.85,0,0,0-1.54.12,1.32,1.32,0,0,0-.45.22,1.93,1.93,0,0,0-.21.45,2.4,2.4,0,0,0-.13.7C206,157.54,206,157.88,206,158.32Z"/><path class="cls-1" d="M225.64,151.32v7.92a12.37,12.37,0,0,1-.21,2.56,2.85,2.85,0,0,1-.79,1.49,3,3,0,0,1-1.33.69,9.46,9.46,0,0,1-2.08.18,10.42,10.42,0,0,1-2.09-.17,2.91,2.91,0,0,1-1.35-.69,2.71,2.71,0,0,1-.79-1.5,14,14,0,0,1-.21-2.56,12.61,12.61,0,0,1,.22-2.58,2.79,2.79,0,0,1,2.13-2.31,10.27,10.27,0,0,1,2.31-.19,6,6,0,0,1,2.39.39v-3.23q0-.72.9-.72T225.64,151.32ZM218.8,157a5.2,5.2,0,0,0-.21,1.78c0,.85,0,1.53.07,2a2.33,2.33,0,0,0,.51,1.31c.16.23.55.37,1.16.41l.9,0c1.17,0,1.86-.14,2.07-.43a2.62,2.62,0,0,0,.51-1.32,14.91,14.91,0,0,0,.07-1.52c0-1.55-.14-2.49-.44-2.81a2.1,2.1,0,0,0-.34-.37,2.39,2.39,0,0,0-1.4-.27c-.72,0-1.18,0-1.37,0-.62,0-1,.17-1.16.41A4.72,4.72,0,0,0,218.8,157Z"/><path class="cls-1" d="M228.43,152a1,1,0,0,1,.3-.7,1,1,0,0,1,.68-.3.92.92,0,0,1,.69.3,1,1,0,0,1,.29.71.91.91,0,0,1-.3.68,1,1,0,0,1-1.37,0A1,1,0,0,1,228.43,152Zm1.88,3v8.28c0,.47-.3.7-.9.7s-.9-.23-.9-.7V155c0-.47.3-.71.9-.71S230.31,154.55,230.31,155Z"/><path class="cls-1" d="M235.39,156.14a4,4,0,0,0-.34,2.16v5c0,.48-.29.71-.89.71s-.9-.23-.9-.7v-5.22a10.81,10.81,0,0,1,.17-2.15,1.91,1.91,0,0,1,.71-1.17,2.79,2.79,0,0,1,1.23-.5,18.59,18.59,0,0,1,2.21-.1c1.68,0,2.75.19,3.19.61a2.63,2.63,0,0,1,.78,1.76c0,.42.07.94.07,1.55v5.22c0,.47-.3.7-.9.7s-.9-.23-.9-.71v-5a3.84,3.84,0,0,0-.34-2.15c-.23-.24-.92-.35-2.06-.35S235.61,155.91,235.39,156.14Z"/><path class="cls-1" d="M185.4,183.24v-7.92q0-.72.9-.72c.6,0,.89.24.89.72v3.23a6.08,6.08,0,0,1,2.41-.39,10.27,10.27,0,0,1,2.31.19,2.82,2.82,0,0,1,1.36.76,3.25,3.25,0,0,1,.77,1.54,12.87,12.87,0,0,1,.21,2.6,12.65,12.65,0,0,1-.2,2.57,2.62,2.62,0,0,1-.78,1.47,2.94,2.94,0,0,1-1.36.69,9.63,9.63,0,0,1-2.09.18,10.35,10.35,0,0,1-2.09-.17,2.81,2.81,0,0,1-1.32-.69,2.84,2.84,0,0,1-.79-1.5A11.62,11.62,0,0,1,185.4,183.24Zm7.06.41c0-.86,0-1.54-.07-2.05a2.78,2.78,0,0,0-.5-1.37c-.2-.29-.89-.43-2.07-.43a3.78,3.78,0,0,0-1.88.27,1.6,1.6,0,0,0-.6.9,10.88,10.88,0,0,0-.19,2c0,.7,0,1.3.07,1.8a2.54,2.54,0,0,0,.52,1.33,1.61,1.61,0,0,0,1.19.41l.89,0,.89,0a5,5,0,0,0,.66-.11.89.89,0,0,0,.52-.29,4,4,0,0,0,.35-.7A5,5,0,0,0,192.46,183.65Z"/><path class="cls-1" d="M204.31,186.28c.41,0,.62.25.62.74a.81.81,0,0,1-.62.9,15.2,15.2,0,0,1-3.25.24,5.51,5.51,0,0,1-3.27-.75,2.93,2.93,0,0,1-1-2.49v-3.66a2.85,2.85,0,0,1,.9-2.47,9.32,9.32,0,0,1,6.66,0,2.93,2.93,0,0,1,.86,2.5v1.58a1.1,1.1,0,0,1-.26.77.9.9,0,0,1-.68.27h-5.68v1.17c0,1,.86,1.47,2.57,1.47a14.15,14.15,0,0,0,2-.12A10.11,10.11,0,0,1,204.31,186.28Zm-5.72-5v1h4.82v-1a1.28,1.28,0,0,0-.48-1.17,4.14,4.14,0,0,0-1.91-.3,4.35,4.35,0,0,0-1.91.28A1.27,1.27,0,0,0,198.59,181.27Z"/><path class="cls-1" d="M216.68,175.32v7.92a12.26,12.26,0,0,1-.22,2.56,2.78,2.78,0,0,1-.79,1.49,3,3,0,0,1-1.33.69,9.36,9.36,0,0,1-2.07.18,10.35,10.35,0,0,1-2.09-.17,2.81,2.81,0,0,1-1.35-.69,2.65,2.65,0,0,1-.79-1.5,13.11,13.11,0,0,1-.21-2.56,11.94,11.94,0,0,1,.22-2.58,2.79,2.79,0,0,1,2.12-2.31,10.39,10.39,0,0,1,2.31-.19,6.06,6.06,0,0,1,2.4.39v-3.23q0-.72.9-.72T216.68,175.32ZM209.84,181a5.2,5.2,0,0,0-.21,1.78q0,1.27.06,2a2.48,2.48,0,0,0,.51,1.31,1.57,1.57,0,0,0,1.17.41l.9,0c1.17,0,1.86-.14,2.06-.43a2.54,2.54,0,0,0,.52-1.32c0-.49.07-1,.07-1.52,0-1.55-.15-2.49-.44-2.81a2.56,2.56,0,0,0-.34-.37,2.43,2.43,0,0,0-1.41-.27c-.72,0-1.18,0-1.37,0-.61,0-1,.17-1.16.41A4.07,4.07,0,0,0,209.84,181Z"/><path class="cls-1" d="M221.18,182.32v5c0,.47-.3.7-.9.7s-.89-.23-.9-.7v-5.22a6.27,6.27,0,0,1,.32-2.49,3.56,3.56,0,0,1,.59-.85c.43-.39,1.5-.58,3.22-.58a5.49,5.49,0,0,1,1.74.17.65.65,0,0,1,.44.64.93.93,0,0,1-.24.69.82.82,0,0,1-.62.22l-1.32-.08a5.81,5.81,0,0,0-1.53.12,1.32,1.32,0,0,0-.45.22,1.54,1.54,0,0,0-.22.45,2.39,2.39,0,0,0-.12.7C221.18,181.54,221.18,181.88,221.18,182.32Z"/><path class="cls-1" d="M227.3,176a1,1,0,0,1,.29-.7,1,1,0,0,1,.69-.3.93.93,0,0,1,.69.3,1,1,0,0,1,.28.71,1,1,0,0,1-1,1,.94.94,0,0,1-.7-.29A1,1,0,0,1,227.3,176Zm1.88,3v8.28c0,.47-.3.7-.9.7s-.9-.23-.9-.7V179c0-.47.3-.71.9-.71S229.18,178.55,229.18,179Z"/><path class="cls-1" d="M234.83,178.22v.1h2.54c.41,0,.61.27.61.79s-.2.79-.61.79h-2.54v7.4c0,.47-.3.7-.9.7s-.9-.23-.9-.7v-7.4h-1.29c-.41,0-.61-.26-.61-.79s.2-.79.61-.79H233V178a2.71,2.71,0,0,1,3.34-3.38,5.4,5.4,0,0,1,1.74.18.62.62,0,0,1,.44.61.84.84,0,0,1-.24.68.91.91,0,0,1-.62.23l-1.32-.06a1.65,1.65,0,0,0-1.26.34A2.94,2.94,0,0,0,234.83,178.22Z"/><path class="cls-1" d="M242.93,188a2.58,2.58,0,0,1-1.91-.58,3,3,0,0,1-.54-2V179.9h-1.26c-.4,0-.6-.26-.6-.79s.2-.79.6-.79h1.26v-2.54c0-.47.3-.7.9-.7s.9.23.9.7v2.54h2.55c.4,0,.61.27.61.79s-.21.79-.61.79h-2.55v5.64c0,.55.33.82,1,.82l1.7-.1c.41,0,.62.24.62.72a.91.91,0,0,1-.64,1Q244.3,188,242.93,188Z"/><path class="cls-1" d="M252.41,184.3v.18q0,.75-.9.75t-.9-.75v-.2a4.25,4.25,0,0,1,.28-1.63,2.36,2.36,0,0,1,.7-1,9.63,9.63,0,0,1,1.82-1.12,1.6,1.6,0,0,0,.94-1.5c0-.87-.14-1.42-.43-1.64a3.08,3.08,0,0,0-1.76-.34,20.78,20.78,0,0,0-2.46.13c-.75.08-1.24.13-1.46.13-.43,0-.64-.25-.64-.75a.8.8,0,0,1,.63-.89,16,16,0,0,1,3.51-.26,5.77,5.77,0,0,1,3.47.75,3.7,3.7,0,0,1,.94,2.93,4.14,4.14,0,0,1-.27,1.6,1.8,1.8,0,0,1-.68.89c-.28.17-.57.34-.88.49s-.6.29-.87.4a1.64,1.64,0,0,0-.73.64A2.05,2.05,0,0,0,252.41,184.3Zm-2,2.73a1.19,1.19,0,0,1,.31-.83,1,1,0,0,1,.77-.34,1.25,1.25,0,0,1,.84.34,1.07,1.07,0,0,1,.37.82,1,1,0,0,1-.37.81,1.24,1.24,0,0,1-.84.33,1.06,1.06,0,0,1-.78-.32A1.13,1.13,0,0,1,250.42,187Z"/></svg>