<svg id="Layer_1" data-name="Layer 1" xmlns="http://www.w3.org/2000/svg" viewBox="0 0 580 400"><defs><style>.cls-1{fill:#d4ac76;}</style></defs><title>text</title><path class="cls-1" d="M38,163.63H32v4.48h6.46v2H30V155.38h8.39v2H32v4.33h6Z"/><path class="cls-1" d="M42,157.34v-2h11.9v2H49v12.73H46.91V157.34Z"/><path class="cls-1" d="M56.79,157.34v-2h11.9v2H63.77v12.73H61.71V157.34Z"/><path class="cls-1" d="M85.21,170.07l-5.73-14.69h2.3l4.41,11.29,4.4-11.29h2.27l-5.74,14.69Z"/><path class="cls-1" d="M94.11,170.07l5.9-14.69h1.85l5.79,14.69h-2.27l-.89-2.26h-7.2l-.91,2.26Zm5.3-16.24a1,1,0,0,1-.73.32.93.93,0,0,1-.72-.32,1.15,1.15,0,0,1-.3-.8,1.14,1.14,0,0,1,.3-.8.9.9,0,0,1,.72-.32.94.94,0,0,1,.73.32,1.14,1.14,0,0,1,.3.8A1.15,1.15,0,0,1,99.41,153.83Zm1.52,4.92-2.85,7.1h5.64Zm2.55-4.92a1,1,0,0,1-.73.32,1,1,0,0,1-.73-.32,1.19,1.19,0,0,1-.29-.8,1.17,1.17,0,0,1,.29-.8.94.94,0,0,1,.73-.32.92.92,0,0,1,.73.32,1.14,1.14,0,0,1,.3.8A1.15,1.15,0,0,1,103.48,153.83Z"/><path class="cls-1" d="M111.72,170.07V155.38h5.45a4.61,4.61,0,0,1,3.31,1.28,4.38,4.38,0,0,1,1.33,3.32,4.44,4.44,0,0,1-1.1,3.07,4.38,4.38,0,0,1-2.81,1.43l4.25,5.59h-2.52l-4.22-5.61h-1.64v5.61Zm5.18-12.73h-3.13v5.3h3.11a3,3,0,0,0,2.08-.72,2.67,2.67,0,0,0,0-3.82A2.86,2.86,0,0,0,116.9,157.34Z"/><path class="cls-1" d="M127,170.07V155.38h3.94A7.4,7.4,0,0,1,136,168a7.17,7.17,0,0,1-5.21,2.09Zm4-12.73h-2v10.77h2a4.74,4.74,0,0,0,3.62-1.57,5.42,5.42,0,0,0,1.47-3.84,5.23,5.23,0,0,0-1.52-3.81A4.91,4.91,0,0,0,131,157.34Z"/><path class="cls-1" d="M151.32,163.63h-6v4.48h6.46v2h-8.52V155.38h8.4v2h-6.34v4.33h6Z"/><path class="cls-1" d="M156.83,170.07V155.38h8v2h-6V162h5.28v1.95h-5.28v6.16Z"/><path class="cls-1" d="M174.39,170.32a5.15,5.15,0,0,1-3.83-1.54,5.34,5.34,0,0,1-1.5-3.88v-9.52h2.06v9.4a3.78,3.78,0,0,0,.87,2.56,3,3,0,0,0,2.4,1,3.07,3.07,0,0,0,2.43-1,3.72,3.72,0,0,0,.89-2.57v-9.41h2v9.52a5.37,5.37,0,0,1-1.49,3.88A5.2,5.2,0,0,1,174.39,170.32Z"/><path class="cls-1" d="M185.59,170.07V155.38h2.06v12.73h6v2Z"/><path class="cls-1" d="M198.19,170.07V155.38h2.05v12.73h6v2Z"/><path class="cls-1" d="M206.66,157.34v-2h11.9v2h-4.92v12.73h-2.06V157.34Z"/><path class="cls-1" d="M239.06,163.63h-6v4.48h6.46v2H231V155.38h8.39v2H233v4.33h6Z"/><path class="cls-1" d="M244.57,170.07V155.38H250a4.61,4.61,0,0,1,3.31,1.28,4.54,4.54,0,0,1-2.58,7.82l4.25,5.59h-2.53l-4.21-5.61h-1.64v5.61Zm5.18-12.73h-3.13v5.3h3.11a3,3,0,0,0,2.08-.72,2.67,2.67,0,0,0,0-3.82A2.87,2.87,0,0,0,249.75,157.34Z"/><path class="cls-1" d="M259.81,170.07V155.38h4.49a4.67,4.67,0,0,1,3.23,1.14,3.77,3.77,0,0,1,1.28,3,3.45,3.45,0,0,1-1.75,3.15,3.66,3.66,0,0,1,1.58,1.32,3.47,3.47,0,0,1,.59,2,3.78,3.78,0,0,1-1.29,3,4.76,4.76,0,0,1-3.27,1.13Zm4.28-12.73h-2.23v4.47h2.61a2.24,2.24,0,0,0,1.63-.65,2.28,2.28,0,0,0,.66-1.69,1.88,1.88,0,0,0-.73-1.55A3.09,3.09,0,0,0,264.09,157.34Zm.46,6.29h-2.69v4.48h2.55a3,3,0,0,0,2-.62,2.08,2.08,0,0,0,.75-1.68,2,2,0,0,0-.68-1.57A2.8,2.8,0,0,0,264.55,163.63Z"/><path class="cls-1" d="M277.17,170.3a4.89,4.89,0,0,1-2.91-.88,4.56,4.56,0,0,1-1.74-2.36l1.9-.94a3.34,3.34,0,0,0,1,1.62,2.63,2.63,0,0,0,1.72.6,2.53,2.53,0,0,0,2-.83,3.33,3.33,0,0,0,.73-2.27v-9.86h2.05v9.81a5.11,5.11,0,0,1-1.33,3.78A4.64,4.64,0,0,1,277.17,170.3Z"/><path class="cls-1" d="M292.63,170.32a5.13,5.13,0,0,1-3.83-1.54,5.34,5.34,0,0,1-1.5-3.88v-9.52h2.05v9.4a3.74,3.74,0,0,0,.88,2.56,3,3,0,0,0,2.4,1,3.07,3.07,0,0,0,2.43-1,3.71,3.71,0,0,0,.88-2.57v-9.41H298v9.52a5.34,5.34,0,0,1-1.5,3.88A5.19,5.19,0,0,1,292.63,170.32Z"/><path class="cls-1" d="M303.83,170.07V155.38h3.93A7.4,7.4,0,0,1,312.9,168a7.17,7.17,0,0,1-5.21,2.09Zm4-12.73h-2v10.77h2a4.74,4.74,0,0,0,3.62-1.57A5.42,5.42,0,0,0,313,162.7a5.23,5.23,0,0,0-1.52-3.81A4.91,4.91,0,0,0,307.84,157.34Z"/><path class="cls-1" d="M318,170.07l5.89-14.69h1.86l5.78,14.69h-2.27l-.88-2.26h-7.2l-.91,2.26Zm6.82-11.32-2.86,7.1h5.65Z"/><path class="cls-1" d="M335.56,170.07V155.38H337l8,10.12V155.38H347v14.69h-1.14l-8.25-10.49v10.49Z"/><path class="cls-1" d="M353.13,170.07V155.38h3.94a7.4,7.4,0,0,1,5.14,12.6,7.17,7.17,0,0,1-5.21,2.09Zm4-12.73h-2v10.77h2a4.76,4.76,0,0,0,3.62-1.57,5.46,5.46,0,0,0,1.46-3.84,5.23,5.23,0,0,0-1.51-3.81A4.91,4.91,0,0,0,357.15,157.34Z"/><path class="cls-1" d="M377.49,163.63h-6v4.48h6.46v2H369.4V155.38h8.4v2h-6.35v4.33h6Z"/><path class="cls-1" d="M395.06,170.07l-5.73-14.69h2.3L396,166.67l4.4-11.29h2.27L397,170.07Z"/><path class="cls-1" d="M404,170.07l5.9-14.69h1.85l5.79,14.69h-2.27l-.89-2.26h-7.2l-.91,2.26Zm5.3-16.24a1,1,0,0,1-1.46,0,1.19,1.19,0,0,1-.29-.8,1.17,1.17,0,0,1,.29-.8,1,1,0,0,1,1.46,0,1.14,1.14,0,0,1,.3.8A1.15,1.15,0,0,1,409.26,153.83Zm1.52,4.92-2.85,7.1h5.64Zm2.55-4.92a1,1,0,0,1-.73.32,1,1,0,0,1-.73-.32,1.19,1.19,0,0,1-.29-.8,1.17,1.17,0,0,1,.29-.8.94.94,0,0,1,.73-.32.92.92,0,0,1,.73.32,1.14,1.14,0,0,1,.3.8A1.15,1.15,0,0,1,413.33,153.83Z"/><path class="cls-1" d="M421.57,170.07V155.38H423l8,10.12V155.38H433v14.69h-1.14l-8.25-10.49v10.49Z"/><path class="cls-1" d="M437.21,157.34v-2H449.1v2h-4.92v12.73h-2.05V157.34Z"/><path class="cls-1" d="M450.05,170.07l5.9-14.69h1.85l5.79,14.69h-2.27l-.89-2.26h-7.2l-.91,2.26Zm6.82-11.32-2.85,7.1h5.64Z"/><path class="cls-1" d="M467.67,170.07V155.38h5.45a4.58,4.58,0,0,1,3.3,1.28,4.38,4.38,0,0,1,1.33,3.32,4.33,4.33,0,0,1-3.91,4.5l4.26,5.59h-2.53l-4.22-5.61h-1.63v5.61Zm5.17-12.73h-3.12v5.3h3.1a3,3,0,0,0,2.08-.72,2.67,2.67,0,0,0,0-3.82A2.86,2.86,0,0,0,472.84,157.34Z"/><path class="cls-1" d="M490.85,170.07V155.38h5a4.64,4.64,0,0,1,3.41,1.37,4.76,4.76,0,0,1,1.36,3.5,4.61,4.61,0,0,1-1.4,3.43,4.74,4.74,0,0,1-3.45,1.37H492.9v5Zm4.87-12.73H492.9v5.76h2.84a2.77,2.77,0,0,0,2.05-.79,2.8,2.8,0,0,0,.79-2.06,2.87,2.87,0,0,0-.81-2.09A2.8,2.8,0,0,0,495.72,157.34Z"/><path class="cls-1" d="M502.55,170.07l5.9-14.69h1.85l5.79,14.69h-2.27l-.89-2.26h-7.2l-.91,2.26Zm6.82-11.32-2.85,7.1h5.64Zm1.42-4.36a2,2,0,0,1-1.42.57,2,2,0,1,1,0-4,2,2,0,0,1,1.42,3.41Zm-1.42-.6a.73.73,0,0,0,.56-.25.81.81,0,0,0,0-1.15.76.76,0,0,0-.56-.24.81.81,0,0,0-.58,1.39A.76.76,0,0,0,509.37,153.79Z"/><path class="cls-1" d="M536.45,163.63H530.4v4.48h6.46v2h-8.51V155.38h8.4v2H530.4v4.33h6.05Z"/><path class="cls-1" d="M542,170.07V155.38h5.45a4.58,4.58,0,0,1,3.3,1.28A4.38,4.38,0,0,1,552,160a4.33,4.33,0,0,1-3.91,4.5l4.26,5.59h-2.53l-4.22-5.61H544v5.61Zm5.17-12.73H544v5.3h3.1a3,3,0,0,0,2.08-.72,2.67,2.67,0,0,0,0-3.82A2.86,2.86,0,0,0,547.13,157.34Z"/></svg>