<svg id="Layer_1" data-name="Layer 1" xmlns="http://www.w3.org/2000/svg" viewBox="0 0 580 400"><defs><style>.cls-1{fill:#d4ac76;}</style></defs><title>text</title><path class="cls-1" d="M68.65,104.13V61.61H91.8v7.1H76.62v11.6H90.15v7.1H76.62v16.72Z"/><path class="cls-1" d="M145.21,82.84a22,22,0,0,1-22.09,22,22,22,0,0,1-22.08-22,22.09,22.09,0,0,1,37.7-15.59A21.26,21.26,0,0,1,145.21,82.84ZM113.11,93a14,14,0,0,0,20,0,14.62,14.62,0,0,0,0-20.35,14,14,0,0,0-20,0,14.7,14.7,0,0,0,0,20.35Zm6.29-35.75a3.45,3.45,0,0,1-2.6,1.13,3.53,3.53,0,0,1-2.63-1.13,3.79,3.79,0,0,1-1.08-2.72,3.69,3.69,0,0,1,3.71-3.8,3.51,3.51,0,0,1,2.57,1.1,3.74,3.74,0,0,1,1.09,2.7A3.86,3.86,0,0,1,119.4,57.24Zm12.65,0a4.08,4.08,0,0,1-5.64,0,3.64,3.64,0,0,1-1.17-2.72,3.58,3.58,0,0,1,1.17-2.7,4.16,4.16,0,0,1,5.64,0,3.58,3.58,0,0,1,1.17,2.7A3.64,3.64,0,0,1,132.05,57.24Z"/><path class="cls-1" d="M157.42,104.13V61.61h16.63a14.36,14.36,0,0,1,10.24,3.86,13.24,13.24,0,0,1,4.09,10.09,12.71,12.71,0,0,1-3,8.61,13.61,13.61,0,0,1-7.93,4.53l11.42,15.43h-9L168.82,89h-3.43v15.18Zm15.4-35.42h-7.43V82.57h7.43a7.84,7.84,0,0,0,5.52-1.89,6.33,6.33,0,0,0,2.07-4.91,6.7,6.7,0,0,0-2.12-5A7.59,7.59,0,0,0,172.82,68.71Z"/><path class="cls-1" d="M211.84,104.13,195.59,61.61h8.3l11.68,30.57L227.1,61.61h8.07l-16.1,42.52Z"/><path class="cls-1" d="M268.9,86.14H253.17V97h17.27v7.1H245.2V61.61H270v7.1H253.17V79.05H268.9Z"/><path class="cls-1" d="M283.37,104.13V61.61H300a14.36,14.36,0,0,1,10.24,3.86,13.24,13.24,0,0,1,4.09,10.09,12.71,12.71,0,0,1-3.05,8.61,13.61,13.61,0,0,1-7.93,4.53l11.42,15.43h-9L294.77,89h-3.43v15.18Zm15.4-35.42h-7.43V82.57h7.43a7.84,7.84,0,0,0,5.52-1.89,6.33,6.33,0,0,0,2.07-4.91,6.7,6.7,0,0,0-2.12-5A7.59,7.59,0,0,0,298.77,68.71Z"/><path class="cls-1" d="M326.76,104.13V61.61h7.37V80.35l16.28-18.74h9.85l-15,17,15.34,25.56H351.4L339.82,84.72l-5.69,6.43v13Z"/><path class="cls-1" d="M371.86,104.13V61.61h8V96.48h15.63v7.65Z"/><path class="cls-1" d="M407,104.13V61.61h8v42.52Z"/><path class="cls-1" d="M456.06,86.36V79.27H471.3l-.05,3.63a21.85,21.85,0,0,1-3.11,11.27,21.41,21.41,0,0,1-8.06,7.84,22,22,0,0,1-10.83,2.78,22,22,0,0,1-22.12-22,22.06,22.06,0,0,1,22.22-22.08,20.94,20.94,0,0,1,15.84,6.87l-5.44,5.37a13.77,13.77,0,0,0-10.45-4.6,13.52,13.52,0,0,0-10.17,4.16,15,15,0,0,0,0,20.49,13,13,0,0,0,9.65,4.17,15.06,15.06,0,0,0,9.46-3,13.47,13.47,0,0,0,5-7.83Z"/><path class="cls-1" d="M477.13,104.13l16.39-42.52h7.21l16.33,42.52h-8.19l-2.26-5.89h-19l-2.27,5.89Zm20-30.62-6.8,17.64h13.56Z"/><path class="cls-1" d="M55.2,170.13V127.61H67.33a20.84,20.84,0,0,1,15,6.08A20.48,20.48,0,0,1,88.64,149a19.87,19.87,0,0,1-6.34,15.18,21.72,21.72,0,0,1-15.41,5.94Zm12.22-35.42H62.57V163h4.91a12.25,12.25,0,0,0,9.4-4.11,14.45,14.45,0,0,0,3.78-10.13,14,14,0,0,0-3.83-10A12.47,12.47,0,0,0,67.42,134.71Z"/><path class="cls-1" d="M101.07,170.13V127.61h8v42.52Z"/><path class="cls-1" d="M119.33,135.26v-7.65h35v7.65H140.83v34.87h-8V135.26Z"/><path class="cls-1" d="M161.84,135.26v-7.65h35v7.65H183.35v34.87h-8V135.26Z"/><path class="cls-1" d="M230,170.13V127.61h8v34.87h15.62v7.65Z"/><path class="cls-1" d="M265.13,170.13V127.61h8v42.52Z"/><path class="cls-1" d="M299.26,170.13,283,127.61h8.3L303,158.18l11.53-30.57h8.07l-16.1,42.52Z"/><path class="cls-1" d="M342.32,170.68a20.43,20.43,0,0,1-8-1.68,21,21,0,0,1-6.88-4.65l5.06-6.06a15.38,15.38,0,0,0,4.69,3.81,11.93,11.93,0,0,0,5.59,1.48,6.86,6.86,0,0,0,4.54-1.46,4.56,4.56,0,0,0,1.76-3.66q0-4-4.66-5.9l-4.74-1.9a18.32,18.32,0,0,1-7.07-4.69,10.84,10.84,0,0,1-2.28-7.23,11,11,0,0,1,3.61-8.07,12.3,12.3,0,0,1,9-3.55A18.29,18.29,0,0,1,356,132l-4.69,5.93a10.92,10.92,0,0,0-8.4-3.7,5.63,5.63,0,0,0-3.81,1.23,3.77,3.77,0,0,0-1.44,3,4,4,0,0,0,1.12,2.92,11.29,11.29,0,0,0,3.65,2.19l5,2q9.45,3.79,9.63,12.28a11.88,11.88,0,0,1-4,9.3Q349,170.69,342.32,170.68Z"/><path class="cls-1" d="M380.44,170.13l-16.25-42.52h8.3l11.68,30.57,11.53-30.57h8.07l-16.1,42.52Z"/><path class="cls-1" d="M437.5,152.14H421.77V163H439v7.1H413.8V127.61h24.75v7.1H421.77v10.34H437.5Z"/><path class="cls-1" d="M452,170.13V127.61H468.6a14.34,14.34,0,0,1,10.24,3.86,13.24,13.24,0,0,1,4.09,10.09,12.75,12.75,0,0,1-3,8.61A13.66,13.66,0,0,1,472,154.7l11.42,15.43h-9l-11-15.18h-3.44v15.18Zm15.4-35.42h-7.43v13.86h7.43a7.88,7.88,0,0,0,5.53-1.89,6.36,6.36,0,0,0,2.06-4.91,6.7,6.7,0,0,0-2.12-5A7.59,7.59,0,0,0,467.37,134.71Z"/><path class="cls-1" d="M495.36,170.13V127.61h7.37v18.74L519,127.61h9.85l-15,17,15.33,25.56H520l-11.58-19.41-5.69,6.43v13Z"/></svg>