<svg id="Layer_1" data-name="Layer 1" xmlns="http://www.w3.org/2000/svg" viewBox="0 0 320 160"><defs><style>.cls-1{fill:#d4ac76;}</style></defs><title>text</title><path class="cls-1" d="M155.06,52.18l-4.43-11.6h2.26l3.18,8.34,3.15-8.34h2.2L157,52.18Z"/><path class="cls-1" d="M164.16,52.18V40.58h2.17v11.6Z"/><path class="cls-1" d="M173.45,52.33a5.56,5.56,0,0,1-2.19-.46,5.71,5.71,0,0,1-1.88-1.27l1.38-1.65A4.19,4.19,0,0,0,172,50a3.27,3.27,0,0,0,1.53.41,1.87,1.87,0,0,0,1.24-.4,1.25,1.25,0,0,0,.48-1A1.73,1.73,0,0,0,174,47.38l-1.29-.52a5,5,0,0,1-1.93-1.28,3,3,0,0,1-.62-2,3,3,0,0,1,1-2.2,3.37,3.37,0,0,1,2.46-1,5,5,0,0,1,3.57,1.32l-1.28,1.62a3,3,0,0,0-2.29-1,1.55,1.55,0,0,0-1,.33,1,1,0,0,0-.39.82,1.08,1.08,0,0,0,.31.79,3.08,3.08,0,0,0,1,.6l1.35.54a3.59,3.59,0,0,1,2.63,3.35,3.24,3.24,0,0,1-1.09,2.54A4.22,4.22,0,0,1,173.45,52.33Z"/><path class="cls-1" d="M180.78,52.18V40.58h1.52L188,47.87V40.58h2.18v11.6h-1.46L183,44.8v7.38Z"/><path class="cls-1" d="M194.33,52.18V40.58h2.17v11.6Z"/><path class="cls-1" d="M200.64,52.18V40.58h1.52l5.71,7.29V40.58H210v11.6h-1.46l-5.77-7.38v7.38Z"/><path class="cls-1" d="M221.27,47.33V45.4h4.16l0,1a5.94,5.94,0,0,1-.85,3.08,5.86,5.86,0,0,1-2.2,2.14,6,6,0,0,1-3,.76,6,6,0,1,1,0-12,5.72,5.72,0,0,1,4.32,1.87l-1.49,1.47a3.75,3.75,0,0,0-2.85-1.25,3.7,3.7,0,0,0-2.78,1.13,4.1,4.1,0,0,0,0,5.59,3.54,3.54,0,0,0,2.63,1.14,4.11,4.11,0,0,0,2.58-.81,3.67,3.67,0,0,0,1.37-2.14Z"/><path class="cls-1" d="M231.83,52.33a5.56,5.56,0,0,1-2.19-.46,5.7,5.7,0,0,1-1.88-1.27l1.38-1.65a4.19,4.19,0,0,0,1.28,1,3.27,3.27,0,0,0,1.53.41,1.87,1.87,0,0,0,1.24-.4,1.24,1.24,0,0,0,.48-1,1.73,1.73,0,0,0-1.27-1.61l-1.29-.52a5,5,0,0,1-1.93-1.28,3,3,0,0,1-.62-2,3,3,0,0,1,1-2.2,3.36,3.36,0,0,1,2.46-1,5,5,0,0,1,3.57,1.32l-1.28,1.62a3,3,0,0,0-2.29-1,1.55,1.55,0,0,0-1,.33,1,1,0,0,0-.39.82,1.08,1.08,0,0,0,.31.79,3.08,3.08,0,0,0,1,.6l1.35.54a3.59,3.59,0,0,1,2.63,3.35,3.24,3.24,0,0,1-1.09,2.54A4.22,4.22,0,0,1,231.83,52.33Z"/><path class="cls-1" d="M246.3,52.18V47.33h-5v4.85h-2.17V40.58h2.17v4.67h5V40.58h2.18v11.6Z"/><path class="cls-1" d="M260,51.13a4.73,4.73,0,0,1-6.35,0,4.11,4.11,0,0,1-1.25-3.07V40.58h2.18v7.2a2.66,2.66,0,0,0,.6,1.79,2.31,2.31,0,0,0,3.3,0,2.61,2.61,0,0,0,.6-1.77V40.58h2.17v7.49A4.11,4.11,0,0,1,260,51.13Z"/><path class="cls-1" d="M268.24,52.33a5.56,5.56,0,0,1-2.19-.46,5.7,5.7,0,0,1-1.88-1.27l1.38-1.65a4.19,4.19,0,0,0,1.28,1,3.27,3.27,0,0,0,1.53.41,1.87,1.87,0,0,0,1.24-.4,1.24,1.24,0,0,0,.48-1,1.73,1.73,0,0,0-1.27-1.61l-1.29-.52a5,5,0,0,1-1.93-1.28,3,3,0,0,1-.62-2,3,3,0,0,1,1-2.2,3.36,3.36,0,0,1,2.46-1A5,5,0,0,1,272,41.77l-1.28,1.62a3,3,0,0,0-2.29-1,1.55,1.55,0,0,0-1,.33,1,1,0,0,0-.39.82,1.08,1.08,0,0,0,.31.79,3.08,3.08,0,0,0,1,.6l1.35.54a3.59,3.59,0,0,1,2.63,3.35,3.24,3.24,0,0,1-1.09,2.54A4.22,4.22,0,0,1,268.24,52.33Z"/><path class="cls-1" d="M150.34,70.18V58.58h2.18V70.18Z"/><path class="cls-1" d="M165.75,70.33a5.56,5.56,0,0,1-2.19-.46,5.72,5.72,0,0,1-1.88-1.27l1.38-1.65a4.21,4.21,0,0,0,1.28,1,3.27,3.27,0,0,0,1.53.41,1.88,1.88,0,0,0,1.24-.4,1.24,1.24,0,0,0,.48-1,1.73,1.73,0,0,0-1.27-1.61L165,64.87a5,5,0,0,1-1.93-1.28,3,3,0,0,1-.62-2,3,3,0,0,1,1-2.2,3.36,3.36,0,0,1,2.46-1,5,5,0,0,1,3.57,1.33l-1.28,1.62a3,3,0,0,0-2.29-1,1.56,1.56,0,0,0-1,.33,1,1,0,0,0-.39.82,1.08,1.08,0,0,0,.31.79,3.07,3.07,0,0,0,1,.6l1.35.54a3.59,3.59,0,0,1,2.63,3.35,3.24,3.24,0,0,1-1.09,2.54A4.22,4.22,0,0,1,165.75,70.33Z"/><path class="cls-1" d="M171.92,60.67V58.58h9.56v2.08h-3.69v9.51h-2.17V60.67Z"/><path class="cls-1" d="M195.2,64.37a6,6,0,1,1-1.76-4.25A5.77,5.77,0,0,1,195.2,64.37Zm-8.75,2.77a3.81,3.81,0,0,0,5.45,0,4,4,0,0,0,0-5.55,3.81,3.81,0,0,0-5.45,0,4,4,0,0,0,0,5.55Z"/><path class="cls-1" d="M208.49,68.54a5.79,5.79,0,0,1-4.3,1.83,5.86,5.86,0,0,1-4.28-1.75,6,6,0,0,1,0-8.51,6,6,0,0,1,8.56,0l-1.53,1.48a3.63,3.63,0,0,0-2.75-1.2,3.68,3.68,0,0,0-2.75,1.15,4,4,0,0,0,0,5.55,3.82,3.82,0,0,0,5.53-.07Z"/><path class="cls-1" d="M211.64,70.18V58.58h2v5.11l4.44-5.11h2.68l-4.09,4.63,4.18,7h-2.5l-3.16-5.29-1.55,1.75v3.54Z"/><path class="cls-1" d="M231.08,70.18V65.33h-5v4.84h-2.17V58.58h2.17v4.67h5V58.58h2.18V70.18Z"/><path class="cls-1" d="M248.63,64.37a6,6,0,1,1-1.76-4.25A5.77,5.77,0,0,1,248.63,64.37Zm-8.75,2.77a3.81,3.81,0,0,0,5.45,0,4,4,0,0,0,0-5.55,3.81,3.81,0,0,0-5.45,0,4,4,0,0,0,0,5.55Z"/><path class="cls-1" d="M252,70.18V58.58h2.17v9.51h4.26v2.08Z"/><path class="cls-1" d="M261.53,70.18V58.58h2.1l3.59,5.71,3.63-5.71h2.28V70.18H271V62.24l-.17,0-3.6,5.55-3.51-5.48h0v7.89Z"/></svg>