<svg id="Layer_1" data-name="Layer 1" xmlns="http://www.w3.org/2000/svg" viewBox="0 0 320 320"><defs><style>.cls-1{fill:#d80201;}</style></defs><title>text</title><path class="cls-1" d="M97.35,133.77v4.74H104v3.61H97.35v9.38H93.19V130.16h11.3v3.61Z"/><path class="cls-1" d="M116.58,141.16a3.44,3.44,0,0,0-1.85-.48c-2.63,0-3.33,1.86-3.33,4.16v6.66h-3.87V137.65h3.87v2.08a4.46,4.46,0,0,1,4-2.53,4.35,4.35,0,0,1,1.7.32Z"/><path class="cls-1" d="M120.94,134.13a2.34,2.34,0,1,1,0-4.68,2.34,2.34,0,0,1,0,4.68Zm-2,17.37V137.65h3.88V151.5Z"/><path class="cls-1" d="M137.1,151.5v-1.82a5.37,5.37,0,0,1-4.52,2.27c-4.16,0-6.81-3.46-6.81-7.43s2.65-7.32,6.72-7.32a5.77,5.77,0,0,1,4.61,2.2v-1.75H141V151.5Zm-3.46-10.82a3.89,3.89,0,1,0,3.87,3.88A3.87,3.87,0,0,0,133.64,140.68Z"/><path class="cls-1" d="M156.62,141V151.5h-3.88V141h-1.53v-3.32h1.53v-4.74h3.88v4.74h2.71V141Z"/><path class="cls-1" d="M163.24,134.13a2.34,2.34,0,1,1,0-4.68,2.34,2.34,0,0,1,0,4.68Zm-2,17.37V137.65h3.87V151.5Z"/><path class="cls-1" d="M168.81,151.5v-24h3.87v24Z"/><path class="cls-1" d="M176.39,151.5v-24h3.87v24Z"/><path class="cls-1" d="M191,151.79h-1.79l-7.07-14.14h4.35l3.65,7.8,3.65-7.8h4.35Z"/><path class="cls-1" d="M209.93,151.5v-1.82a5.37,5.37,0,0,1-4.51,2.27c-4.17,0-6.82-3.46-6.82-7.43s2.65-7.32,6.72-7.32a5.77,5.77,0,0,1,4.61,2.2v-1.75h3.9V151.5Zm-3.46-10.82a3.89,3.89,0,1,0,3.87,3.88A3.87,3.87,0,0,0,206.47,140.68Z"/><path class="cls-1" d="M217.54,151.5v-24h3.87v24Z"/><path class="cls-1" d="M46,189a9.13,9.13,0,0,1-6.82-2.78l1.38-3.58a7.15,7.15,0,0,0,5.37,2.72,4.23,4.23,0,0,0,4.26-4.13c0-2.63-2.43-4.26-4.86-4.26a7,7,0,0,0-4.1,1.35H41l2.52-11.2h9.86v3.64h-7l-.83,3.3a13.66,13.66,0,0,1,1.57-.13,7.17,7.17,0,0,1,7.26,7.46C54.33,186.26,50.55,189,46,189Z"/><path class="cls-1" d="M65.53,189c-5.89,0-8.26-6.2-8.26-11.2s2.34-11.23,8.26-11.23,8.26,6.18,8.26,11.2S71.45,189,65.53,189Zm0-18.75c-3.26,0-4.1,5.06-4.1,7.52s.84,7.59,4.1,7.59,4.1-5.12,4.1-7.59S68.79,170.29,65.53,170.29Z"/><path class="cls-1" d="M91.67,189c-5.88,0-8.25-6.2-8.25-11.2s2.33-11.23,8.25-11.23,8.26,6.18,8.26,11.2S97.59,189,91.67,189Zm0-18.75c-3.26,0-4.09,5.06-4.09,7.52s.83,7.59,4.09,7.59,4.1-5.12,4.1-7.59S94.94,170.29,91.67,170.29Z"/><path class="cls-1" d="M109.82,189c-5.89,0-8.26-6.2-8.26-11.2s2.34-11.23,8.26-11.23,8.25,6.18,8.25,11.2S115.74,189,109.82,189Zm0-18.75c-3.27,0-4.1,5.06-4.1,7.52s.83,7.59,4.1,7.59,4.09-5.12,4.09-7.59S113.08,170.29,109.82,170.29Z"/><path class="cls-1" d="M128,189c-5.89,0-8.25-6.2-8.25-11.2S122,166.61,128,166.61s8.26,6.18,8.26,11.2S133.88,189,128,189Zm0-18.75c-3.26,0-4.1,5.06-4.1,7.52s.84,7.59,4.1,7.59,4.1-5.12,4.1-7.59S131.22,170.29,128,170.29Z"/><path class="cls-1" d="M156.41,188.5l-5.22-5.95-.41.41v5.54H146.9v-24h3.88V179.7l5.18-5.06h5.25l-6.5,6.08,7,7.78Z"/><path class="cls-1" d="M172.5,178.16a3.44,3.44,0,0,0-1.85-.48c-2.63,0-3.33,1.86-3.33,4.16v6.66h-3.87V174.64h3.87v2.08a4.47,4.47,0,0,1,4-2.52,4.35,4.35,0,0,1,1.7.32Z"/><path class="cls-1" d="M190,188.79h-1.79l-7.08-14.15h4.36l3.64,7.81,3.65-7.81h4.35Z"/><path class="cls-1" d="M200.92,171.13a2.34,2.34,0,1,1,0-4.68,2.34,2.34,0,0,1,0,4.68ZM199,188.5V174.64h3.87V188.5Z"/><path class="cls-1" d="M217.08,188.5v-1.82a5.37,5.37,0,0,1-4.51,2.27c-4.16,0-6.82-3.46-6.82-7.43s2.66-7.32,6.72-7.32a5.77,5.77,0,0,1,4.61,2.2V164.53H221v24Zm-3.46-10.82a3.89,3.89,0,1,0,3.88,3.88A3.87,3.87,0,0,0,213.62,177.68Z"/><path class="cls-1" d="M242.2,188.5,237,182.55l-.41.41v5.54H232.7v-24h3.87V179.7l5.18-5.06H247l-6.5,6.08,7,7.78Z"/><path class="cls-1" d="M256.44,189c-4.42,0-7.94-2.75-7.94-7.36s3.52-7.39,8-7.39,7.87,2.78,7.87,7.36S260.82,189,256.44,189Zm-3.36-16.9a2.3,2.3,0,1,1,0-4.6,2.3,2.3,0,0,1,0,4.6Zm3.33,5.63a3.89,3.89,0,1,0,3.93,3.91A3.92,3.92,0,0,0,256.41,177.68Zm3.32-5.63a2.33,2.33,0,0,1-2.3-2.3,2.31,2.31,0,1,1,2.3,2.3Z"/><path class="cls-1" d="M275.83,189a5.55,5.55,0,0,1-4.64-2.27v9.21h-3.87V174.64h3.87v1.76a5.52,5.52,0,0,1,4.54-2.2c4.13,0,6.85,3.42,6.85,7.39S279.89,189,275.83,189Zm-1.15-11.27a3.89,3.89,0,1,0,3.87,3.88A3.86,3.86,0,0,0,274.68,177.68Z"/></svg>