<svg id="Layer_1" data-name="Layer 1" xmlns="http://www.w3.org/2000/svg" viewBox="0 0 580 400"><defs><style>.cls-1{fill:#d4ac76;}</style></defs><title>text</title><path class="cls-1" d="M116.44,177.07l-6.94-17.78h2.79L117.62,173,123,159.29h2.74l-7,17.78Z"/><path class="cls-1" d="M127.21,177.07l7.14-17.78h2.25l7,17.78h-2.75l-1.07-2.74h-8.72l-1.1,2.74Zm6.42-19.66a1.17,1.17,0,0,1-.89.39,1.13,1.13,0,0,1-.87-.39,1.4,1.4,0,0,1-.36-1,1.39,1.39,0,0,1,.36-1,1.13,1.13,0,0,1,.87-.39,1.17,1.17,0,0,1,.89.39,1.4,1.4,0,0,1,.37,1A1.41,1.41,0,0,1,133.63,157.41Zm1.84,6L132,172h6.83Zm3.09-6a1.15,1.15,0,0,1-.88.39,1.17,1.17,0,0,1-.89-.39,1.4,1.4,0,0,1-.36-1,1.39,1.39,0,0,1,.36-1,1.17,1.17,0,0,1,.89-.39,1.15,1.15,0,0,1,.88.39,1.39,1.39,0,0,1,.36,1A1.4,1.4,0,0,1,138.56,157.41Z"/><path class="cls-1" d="M148.53,177.07V159.29h6.6a5.54,5.54,0,0,1,4,1.55,5.3,5.3,0,0,1,1.62,4,5.39,5.39,0,0,1-1.33,3.71,5.3,5.3,0,0,1-3.41,1.74l5.15,6.76H158.1l-5.1-6.78h-2v6.78Zm6.27-15.41H151v6.42h3.76a3.61,3.61,0,0,0,2.51-.88,3.22,3.22,0,0,0,0-4.62A3.49,3.49,0,0,0,154.8,161.66Z"/><path class="cls-1" d="M167,177.07V159.29h4.76A9,9,0,0,1,178,174.54a8.65,8.65,0,0,1-6.31,2.53Zm4.86-15.41h-2.38v13h2.45a5.74,5.74,0,0,0,4.38-1.91,6.57,6.57,0,0,0,1.77-4.64,6.36,6.36,0,0,0-1.83-4.62A5.92,5.92,0,0,0,171.84,161.66Z"/><path class="cls-1" d="M196.46,169.27h-7.31v5.43H197v2.37h-10.3V159.29h10.16v2.37h-7.68v5.24h7.31Z"/><path class="cls-1" d="M203.13,177.07V159.29h9.71v2.37h-7.22v5.59H212v2.37h-6.39v7.45Z"/><path class="cls-1" d="M224.4,177.37a6.21,6.21,0,0,1-4.64-1.86,6.47,6.47,0,0,1-1.81-4.7V159.29h2.48v11.37a4.58,4.58,0,0,0,1.06,3.11A3.65,3.65,0,0,0,224.4,175a3.73,3.73,0,0,0,2.94-1.21,4.52,4.52,0,0,0,1.07-3.11V159.29h2.49v11.52a6.48,6.48,0,0,1-1.82,4.7A6.22,6.22,0,0,1,224.4,177.37Z"/><path class="cls-1" d="M238,177.07V159.29h2.48V174.7h7.31v2.37Z"/><path class="cls-1" d="M253.2,177.07V159.29h2.49V174.7H263v2.37Z"/><path class="cls-1" d="M263.46,161.66v-2.37h14.4v2.37h-6v15.41h-2.48V161.66Z"/><path class="cls-1" d="M302.68,169.27h-7.32v5.43h7.82v2.37h-10.3V159.29h10.17v2.37h-7.69v5.24h7.32Z"/><path class="cls-1" d="M309.35,177.07V159.29H316a5.56,5.56,0,0,1,4,1.55,5.83,5.83,0,0,1,.28,7.73,5.28,5.28,0,0,1-3.4,1.74l5.14,6.76h-3.05l-5.11-6.78h-2v6.78Zm6.27-15.41h-3.79v6.42h3.76a3.65,3.65,0,0,0,2.52-.88,3.22,3.22,0,0,0,0-4.62A3.51,3.51,0,0,0,315.62,161.66Z"/><path class="cls-1" d="M327.79,177.07V159.29h5.44a5.67,5.67,0,0,1,3.92,1.38,4.57,4.57,0,0,1,1.55,3.59,4.19,4.19,0,0,1-2.12,3.81,4.54,4.54,0,0,1,1.91,1.6,4.21,4.21,0,0,1,.71,2.4,4.58,4.58,0,0,1-1.56,3.63,5.73,5.73,0,0,1-4,1.37ZM333,161.66h-2.7v5.41h3.16a2.7,2.7,0,0,0,2-.79,2.73,2.73,0,0,0,.8-2,2.24,2.24,0,0,0-.89-1.87A3.65,3.65,0,0,0,333,161.66Zm.55,7.61h-3.25v5.43h3.09a3.67,3.67,0,0,0,2.45-.76,2.51,2.51,0,0,0,.9-2,2.45,2.45,0,0,0-.82-1.9A3.45,3.45,0,0,0,333.53,169.27Z"/><path class="cls-1" d="M348.81,177.35a6,6,0,0,1-3.53-1.06,5.55,5.55,0,0,1-2.1-2.87l2.3-1.13a3.9,3.9,0,0,0,1.25,2,3.22,3.22,0,0,0,2.08.73,3,3,0,0,0,2.41-1,4,4,0,0,0,.88-2.75V159.29h2.49v11.87a6.22,6.22,0,0,1-1.61,4.58A5.66,5.66,0,0,1,348.81,177.35Z"/><path class="cls-1" d="M367.53,177.37a6.19,6.19,0,0,1-4.64-1.86,6.48,6.48,0,0,1-1.82-4.7V159.29h2.49v11.37a4.58,4.58,0,0,0,1.06,3.11,3.63,3.63,0,0,0,2.91,1.23,3.73,3.73,0,0,0,2.94-1.21,4.52,4.52,0,0,0,1.07-3.11V159.29H374v11.52a6.47,6.47,0,0,1-1.81,4.7A6.24,6.24,0,0,1,367.53,177.37Z"/><path class="cls-1" d="M381.08,177.07V159.29h4.77a9,9,0,0,1,6.22,15.25,8.68,8.68,0,0,1-6.31,2.53Zm4.86-15.41h-2.37v13H386a5.71,5.71,0,0,0,4.38-1.91,6.54,6.54,0,0,0,1.78-4.64,6.33,6.33,0,0,0-1.84-4.62A5.91,5.91,0,0,0,385.94,161.66Z"/><path class="cls-1" d="M398.17,177.07l7.14-17.78h2.25l7,17.78h-2.75l-1.07-2.74H402l-1.1,2.74Zm8.26-13.7L403,172h6.83Z"/><path class="cls-1" d="M419.49,177.07V159.29h1.74l9.63,12.25V159.29h2.48v17.78H432l-10-12.69v12.69Z"/><path class="cls-1" d="M440.77,177.07V159.29h4.76a9,9,0,0,1,6.22,15.25,8.65,8.65,0,0,1-6.31,2.53Zm4.86-15.41h-2.38v13h2.45a5.72,5.72,0,0,0,4.38-1.91,6.57,6.57,0,0,0,1.77-4.64,6.36,6.36,0,0,0-1.83-4.62A5.92,5.92,0,0,0,445.63,161.66Z"/><path class="cls-1" d="M470.25,169.27h-7.31v5.43h7.82v2.37h-10.3V159.29h10.16v2.37h-7.68v5.24h7.31Z"/></svg>