<svg id="Layer_1" data-name="Layer 1" xmlns="http://www.w3.org/2000/svg" viewBox="0 0 580 400"><defs><style>.cls-1{fill:#d4ac76;}</style></defs><title>text</title><path class="cls-1" d="M106.66,86.13v-41h13.48a12.33,12.33,0,0,1,9,3.42A11.28,11.28,0,0,1,132.63,57,9.65,9.65,0,0,1,128,65.27a11.45,11.45,0,0,1,4.54,3.67,8.69,8.69,0,0,1,1.69,5.2,11.23,11.23,0,0,1-3.58,8.68,12.81,12.81,0,0,1-9,3.31ZM119.25,52h-5.49V62.28h6.13A5.67,5.67,0,0,0,124,60.77,5,5,0,0,0,125.53,57a4.39,4.39,0,0,0-1.73-3.63A7.13,7.13,0,0,0,119.25,52Zm1.17,16.43h-6.66V79.29h6.5a6.64,6.64,0,0,0,4.63-1.54,5.13,5.13,0,0,0,1.7-4,5,5,0,0,0-1.6-3.89A6.55,6.55,0,0,0,120.42,68.43Z"/><path class="cls-1" d="M186.27,65.62a21.31,21.31,0,0,1-36.33,15,20.38,20.38,0,0,1-6.23-15,21.28,21.28,0,0,1,42.56,0ZM155.34,75.4a13.49,13.49,0,0,0,19.27,0,14.09,14.09,0,0,0,0-19.61,13.46,13.46,0,0,0-19.27,0,14.14,14.14,0,0,0,0,19.61Z"/><path class="cls-1" d="M198,86.13v-41h7.11V63.22l15.68-18.06h9.49L215.86,61.5l14.77,24.63h-8.85l-11.16-18.7-5.48,6.19V86.13Z"/><path class="cls-1" d="M238.1,86.13l15.8-41h6.94l15.74,41h-7.9l-2.17-5.67H248.18L246,86.13Zm19.28-29.51-6.56,17h13.07Z"/><path class="cls-1" d="M308,86.13v-41h7.42L328.1,65.35l12.82-20.19H349v41h-7.69v-28l-.61-.09L328,77.62l-12.4-19.36h.12V86.13Z"/><path class="cls-1" d="M402.83,65.62a21.28,21.28,0,1,1-36.34-15,21.29,21.29,0,0,1,36.34,15ZM371.9,75.4a13.49,13.49,0,0,0,19.27,0,14.09,14.09,0,0,0,0-19.61,13.46,13.46,0,0,0-19.27,0,14.14,14.14,0,0,0,0,19.61ZM378,41a3.3,3.3,0,0,1-2.5,1.08A3.4,3.4,0,0,1,372.92,41a3.65,3.65,0,0,1-1.05-2.63,3.55,3.55,0,0,1,1-2.59,3.59,3.59,0,0,1,2.55-1.06,3.37,3.37,0,0,1,2.48,1.06A3.53,3.53,0,0,1,379,38.32,3.72,3.72,0,0,1,378,41Zm12.2,0a4,4,0,0,1-5.44,0,3.52,3.52,0,0,1-1.12-2.63,3.41,3.41,0,0,1,1.12-2.59,4,4,0,0,1,5.44,0,3.41,3.41,0,0,1,1.12,2.59A3.52,3.52,0,0,1,390.15,41Z"/><path class="cls-1" d="M408.87,52.53V45.16h33.76v7.37h-13v33.6h-7.68V52.53Z"/><path class="cls-1" d="M475.28,68.8H460.12V79.29h16.64v6.84H452.43v-41h23.85V52H460.12V62h15.16Z"/><path class="cls-1" d="M100.83,149.73v-41h16a13.82,13.82,0,0,1,9.87,3.72,12.74,12.74,0,0,1,3.94,9.72,12.3,12.3,0,0,1-2.94,8.3,13.13,13.13,0,0,1-7.64,4.36l11,14.87h-8.64L111.83,135.1h-3.31v14.63Zm14.84-34.13h-7.15V129h7.15a7.56,7.56,0,0,0,5.33-1.82,6.13,6.13,0,0,0,2-4.73,6.43,6.43,0,0,0-2-4.85A7.34,7.34,0,0,0,115.67,115.6Z"/><path class="cls-1" d="M165.49,132.4H150.33v10.49H167v6.84H142.65v-41H166.5v6.84H150.33v10h15.16Z"/><path class="cls-1" d="M179.43,149.73v-41h11.69a20.06,20.06,0,0,1,14.51,5.86,19.73,19.73,0,0,1,6,14.76,19.15,19.15,0,0,1-6.1,14.62,20.94,20.94,0,0,1-14.85,5.73Zm11.78-34.13h-4.68v27.29h4.73a11.79,11.79,0,0,0,9.07-4,13.88,13.88,0,0,0,3.64-9.76,13.5,13.5,0,0,0-3.7-9.68A12,12,0,0,0,191.21,115.6Z"/><path class="cls-1" d="M218,149.73l15.8-41h6.94l15.74,41h-7.9l-2.17-5.67H228l-2.18,5.67Zm19.28-29.51-6.56,17h13.07Z"/><path class="cls-1" d="M266,149.73v-41h5.39l20.16,25.76V108.76h7.68v41h-5.14l-20.4-26.08v26.08Z"/><path class="cls-1" d="M335,149.73v-41h7.68v41Z"/><path class="cls-1" d="M357.3,149.73v-41H369a20,20,0,0,1,14.5,5.86,19.7,19.7,0,0,1,6,14.76A19.12,19.12,0,0,1,383.41,144a20.9,20.9,0,0,1-14.84,5.73Zm11.78-34.13H364.4v27.29h4.73a11.79,11.79,0,0,0,9.07-4,13.93,13.93,0,0,0,3.64-9.76,13.5,13.5,0,0,0-3.7-9.68A12,12,0,0,0,369.08,115.6Z"/><path class="cls-1" d="M395.83,149.73l15.8-41h6.94l15.74,41h-7.9l-2.17-5.67H405.91l-2.18,5.67Zm19.27-29.51-6.55,17h13.07Z"/><path class="cls-1" d="M468.33,132.61v-6.84H483l-.06,3.5a21,21,0,0,1-3,10.87,20.68,20.68,0,0,1-7.77,7.55,21.18,21.18,0,0,1-10.44,2.67,21.26,21.26,0,0,1-15.1-36.26,20.6,20.6,0,0,1,15.21-6.24,20.2,20.2,0,0,1,15.26,6.62l-5.25,5.18a13.21,13.21,0,0,0-10.06-4.43,13.06,13.06,0,0,0-9.81,4A14.49,14.49,0,0,0,452,139a12.48,12.48,0,0,0,9.3,4,14.5,14.5,0,0,0,9.11-2.85,12.92,12.92,0,0,0,4.83-7.54Z"/></svg>