<svg id="Layer_1" data-name="Layer 1" xmlns="http://www.w3.org/2000/svg" viewBox="0 0 580 400"><defs><style>.cls-1{fill:#d4ac76;}</style></defs><title>text</title><path class="cls-1" d="M23.08,99.13v-41H36.56a12.33,12.33,0,0,1,9,3.42A11.28,11.28,0,0,1,49.05,70a9.65,9.65,0,0,1-4.59,8.23A11.45,11.45,0,0,1,49,81.94a8.69,8.69,0,0,1,1.69,5.2,11.23,11.23,0,0,1-3.58,8.68,12.81,12.81,0,0,1-9,3.31ZM35.67,65H30.18V75.28h6.13a5.67,5.67,0,0,0,4.07-1.51A5,5,0,0,0,42,70a4.39,4.39,0,0,0-1.73-3.63A7.14,7.14,0,0,0,35.67,65Zm1.17,16.43H30.18V92.29h6.5a6.64,6.64,0,0,0,4.63-1.54,5.13,5.13,0,0,0,1.7-4,5,5,0,0,0-1.6-3.89A6.55,6.55,0,0,0,36.84,81.43Z"/><path class="cls-1" d="M102.69,78.62a21.22,21.22,0,0,1-21.28,21.2,21.22,21.22,0,0,1-21.28-21.2A21.27,21.27,0,0,1,81.41,57.36a21.27,21.27,0,0,1,21.28,21.26ZM71.76,88.4A13.49,13.49,0,0,0,91,88.4a14.09,14.09,0,0,0,0-19.61,13.46,13.46,0,0,0-19.27,0,14.14,14.14,0,0,0,0,19.61Z"/><path class="cls-1" d="M114.45,99.13v-41h7.11V76.22l15.68-18.06h9.49L132.27,74.5l14.78,24.63H138.2L127,80.43l-5.48,6.19V99.13Z"/><path class="cls-1" d="M154.52,99.13l15.8-41h6.94l15.74,41h-7.9l-2.17-5.67H164.6l-2.18,5.67Zm19.27-29.51-6.55,17h13.07Z"/><path class="cls-1" d="M224.43,99.13v-41h7.42l12.67,20.19,12.82-20.19h8.06v41h-7.69v-28L257.1,71,244.39,90.62,232,71.26h.12V99.13Z"/><path class="cls-1" d="M319.25,78.62a21.28,21.28,0,1,1-36.34-15,21.29,21.29,0,0,1,36.34,15ZM288.32,88.4a13.47,13.47,0,0,0,19.26,0,14.07,14.07,0,0,0,0-19.61,13.45,13.45,0,0,0-19.26,0,14.14,14.14,0,0,0,0,19.61ZM294.37,54a3.3,3.3,0,0,1-2.5,1.08A3.4,3.4,0,0,1,289.34,54a3.65,3.65,0,0,1-1-2.63,3.55,3.55,0,0,1,3.58-3.65,3.37,3.37,0,0,1,2.48,1.06,3.53,3.53,0,0,1,1,2.59A3.72,3.72,0,0,1,294.37,54Zm12.2,0a4,4,0,0,1-5.44,0A3.52,3.52,0,0,1,300,51.32a3.41,3.41,0,0,1,1.12-2.59,4,4,0,0,1,5.44,0,3.41,3.41,0,0,1,1.12,2.59A3.52,3.52,0,0,1,306.57,54Z"/><path class="cls-1" d="M325.29,65.53V58.16h33.76v7.37H346v33.6h-7.68V65.53Z"/><path class="cls-1" d="M391.7,81.8H376.54V92.29h16.64v6.84H368.85v-41H392.7V65H376.54V75H391.7Z"/><path class="cls-1" d="M467.17,78.62a21.28,21.28,0,1,1-36.33-15,21.28,21.28,0,0,1,36.33,15ZM436.24,88.4a13.49,13.49,0,0,0,19.27,0,14.09,14.09,0,0,0,0-19.61,13.46,13.46,0,0,0-19.27,0,14.14,14.14,0,0,0,0,19.61Z"/><path class="cls-1" d="M514.13,93.35a20.47,20.47,0,0,1-15.19,6.47,20.71,20.71,0,0,1-15.13-6.2,21.22,21.22,0,0,1,0-30.05,21.33,21.33,0,0,1,30.24.15L508.61,69a12.84,12.84,0,0,0-9.72-4.24,13,13,0,0,0-9.7,4.06,14.14,14.14,0,0,0,0,19.61,13.52,13.52,0,0,0,19.53-.24Z"/><path class="cls-1" d="M550.48,99.13V82H532.94V99.13h-7.68v-41h7.68V74.64h17.54V58.16h7.69v41Z"/><path class="cls-1" d="M24.3,136.33v-24H37.36v4H28.8v6.55h7.63v4H28.8v9.43Z"/><path class="cls-1" d="M67.46,124.33A12.43,12.43,0,0,1,55,136.73a12.42,12.42,0,1,1,8.8-21.19A12,12,0,0,1,67.46,124.33Zm-18.09,5.72a7.88,7.88,0,0,0,11.27,0,8.25,8.25,0,0,0,0-11.47,7.88,7.88,0,0,0-11.27,0,8.27,8.27,0,0,0,0,11.47Zm3.54-20.15a2,2,0,0,1-2.94,0,2.14,2.14,0,0,1,1.47-3.67,1.93,1.93,0,0,1,1.45.62,2.07,2.07,0,0,1,.62,1.52A2.14,2.14,0,0,1,52.91,109.9Zm7.13,0a2.3,2.3,0,0,1-3.18,0,2,2,0,0,1-.66-1.53,2,2,0,0,1,.66-1.52,2.35,2.35,0,0,1,3.18,0,2,2,0,0,1,.66,1.52A2,2,0,0,1,60,109.9Z"/><path class="cls-1" d="M74.34,136.33v-24h9.38a8.08,8.08,0,0,1,5.77,2.17,7.49,7.49,0,0,1,2.3,5.69,7.16,7.16,0,0,1-1.72,4.85,7.7,7.7,0,0,1-4.47,2.55l6.44,8.7H87l-6.22-8.56H78.83v8.56Zm8.68-20H78.83v7.82H83a4.42,4.42,0,0,0,3.11-1.07,3.56,3.56,0,0,0,1.17-2.76,3.77,3.77,0,0,0-1.2-2.85A4.26,4.26,0,0,0,83,116.36Z"/><path class="cls-1" d="M105,136.33l-9.16-24h4.68l6.58,17.22,6.51-17.22h4.54l-9.07,24Z"/><path class="cls-1" d="M137.18,126.19h-8.87v6.14H138v4H123.81v-24h14v4h-9.46v5.83h8.87Z"/><path class="cls-1" d="M145.33,136.33v-24h9.38a8.08,8.08,0,0,1,5.77,2.17,7.49,7.49,0,0,1,2.3,5.69,7.16,7.16,0,0,1-1.72,4.85,7.7,7.7,0,0,1-4.47,2.55l6.44,8.7H158l-6.22-8.56h-1.94v8.56Zm8.68-20h-4.19v7.82H154a4.42,4.42,0,0,0,3.11-1.07,3.56,3.56,0,0,0,1.17-2.76,3.77,3.77,0,0,0-1.2-2.85A4.26,4.26,0,0,0,154,116.36Z"/><path class="cls-1" d="M169.79,136.33v-24h4.15v10.56l9.18-10.56h5.55l-8.46,9.56,8.64,14.4h-5.17l-6.53-10.94L173.94,129v7.31Z"/><path class="cls-1" d="M195.21,136.33v-24h4.49V132h8.81v4.31Z"/><path class="cls-1" d="M215,136.33v-24h4.5v24Z"/><path class="cls-1" d="M242.67,126.32v-4h8.58l0,2a12.25,12.25,0,0,1-1.75,6.36,12.1,12.1,0,0,1-4.54,4.42,12.43,12.43,0,0,1-6.11,1.56,12.43,12.43,0,1,1,.07-24.86,11.79,11.79,0,0,1,8.92,3.87l-3.06,3a7.77,7.77,0,0,0-5.9-2.59,7.64,7.64,0,0,0-5.73,2.34,8.48,8.48,0,0,0,0,11.55,7.29,7.29,0,0,0,5.44,2.35,8.51,8.51,0,0,0,5.33-1.66,7.65,7.65,0,0,0,2.82-4.41Z"/><path class="cls-1" d="M254.54,136.33l9.24-24h4.06l9.21,24h-4.62L271.16,133H260.44l-1.28,3.32Zm11.27-17.26L262,129h7.64Z"/><path class="cls-1" d="M310.19,136.33v-10H299.93v10h-4.5v-24h4.5V122h10.26v-9.64h4.49v24Z"/><path class="cls-1" d="M338.44,134.17a9.76,9.76,0,0,1-13.11,0,8.46,8.46,0,0,1-2.59-6.34V112.37h4.5v14.88a5.48,5.48,0,0,0,1.23,3.69,4.77,4.77,0,0,0,6.83,0,5.42,5.42,0,0,0,1.24-3.65V112.37H341v15.46A8.46,8.46,0,0,1,338.44,134.17Z"/><path class="cls-1" d="M355.52,136.64a11.53,11.53,0,0,1-4.52-.95,11.72,11.72,0,0,1-3.88-2.62l2.85-3.41a8.79,8.79,0,0,0,2.64,2.14,6.77,6.77,0,0,0,3.16.84,3.85,3.85,0,0,0,2.55-.82,2.57,2.57,0,0,0,1-2.07c0-1.49-.87-2.6-2.63-3.33L354,125.35a10.07,10.07,0,0,1-4-2.64,6.09,6.09,0,0,1-1.29-4.07,6.23,6.23,0,0,1,2-4.55,6.94,6.94,0,0,1,5.08-2,10.33,10.33,0,0,1,7.38,2.73l-2.64,3.35a6.18,6.18,0,0,0-4.74-2.08,3.26,3.26,0,0,0-2.15.68,2.15,2.15,0,0,0-.81,1.69,2.27,2.27,0,0,0,.64,1.65,6.32,6.32,0,0,0,2,1.23l2.8,1.12q5.33,2.13,5.43,6.92a6.71,6.71,0,0,1-2.26,5.24A8.7,8.7,0,0,1,355.52,136.64Z"/><path class="cls-1" d="M370.67,136.33v-24h6.83a11.75,11.75,0,0,1,8.49,3.42,11.55,11.55,0,0,1,3.53,8.64,11.21,11.21,0,0,1-3.58,8.55,12.23,12.23,0,0,1-8.68,3.35Zm6.89-20h-2.74v16h2.77a6.89,6.89,0,0,0,5.3-2.32A8.14,8.14,0,0,0,385,124.3a7.88,7.88,0,0,0-2.16-5.66A7,7,0,0,0,377.56,116.36Z"/><path class="cls-1" d="M396.52,136.33v-24h9.38a8.08,8.08,0,0,1,5.77,2.17,7.45,7.45,0,0,1,2.3,5.69,7.2,7.2,0,0,1-1.71,4.85,7.76,7.76,0,0,1-4.47,2.55l6.43,8.7h-5.05L403,127.77H401v8.56Zm8.68-20H401v7.82h4.18a4.46,4.46,0,0,0,3.12-1.07,3.59,3.59,0,0,0,1.16-2.76,3.8,3.8,0,0,0-1.19-2.85A4.3,4.3,0,0,0,405.2,116.36Z"/><path class="cls-1" d="M444.63,124.33a12.41,12.41,0,0,1-12.44,12.4,12,12,0,0,1-8.81-3.63,12.43,12.43,0,1,1,21.25-8.77Zm-18.09,5.72a7.88,7.88,0,0,0,11.27,0,8.22,8.22,0,0,0,0-11.47,7.88,7.88,0,0,0-11.27,0,8.27,8.27,0,0,0,0,11.47Zm3.54-20.15a1.92,1.92,0,0,1-1.46.64,2,2,0,0,1-1.48-.64,2.22,2.22,0,0,1,0-3.05,2.06,2.06,0,0,1,1.49-.62,2,2,0,0,1,1.45.62,2.07,2.07,0,0,1,.61,1.52A2.14,2.14,0,0,1,430.08,109.9Zm7.14,0a2.3,2.3,0,0,1-3.18,0,2,2,0,0,1-.66-1.53,2,2,0,0,1,.66-1.52,2.35,2.35,0,0,1,3.18,0,2,2,0,0,1,.66,1.52A2,2,0,0,1,437.22,109.9Z"/><path class="cls-1" d="M451.51,136.33v-24h4.34l7.41,11.81,7.51-11.81h4.71v24H471v-16.4l-.36-.05-7.43,11.47L455.94,120H456v16.3Z"/><path class="cls-1" d="M483.75,136.33v-24h4.34l7.41,11.81L503,112.37h4.71v24h-4.5v-16.4l-.36-.05-7.43,11.47L488.18,120h.07v16.3Z"/><path class="cls-1" d="M529.36,126.19h-8.87v6.14h9.73v4H516v-24h14v4h-9.46v5.83h8.87Z"/><path class="cls-1" d="M537.51,136.33v-24h3.15l11.79,15.07V112.37H557v24h-3L542,121.08v15.25Z"/></svg>