<svg id="Layer_1" data-name="Layer 1" xmlns="http://www.w3.org/2000/svg" viewBox="0 0 320 160"><defs><style>.cls-1{fill:#d80201;}</style></defs><title>text</title><path class="cls-1" d="M154.6,67.5h-4.93V52.82h3.63a5.8,5.8,0,0,1,3.59.88,3.92,3.92,0,0,1,1.32,3,3.08,3.08,0,0,1-1.61,2.95,3.34,3.34,0,0,1,1.91.92,4,4,0,0,1,1.06,2.75C159.57,66.27,157.24,67.5,154.6,67.5Zm-1.23-12.34h-.84v3.78h.81c1.28,0,2.22-.51,2.22-1.89S154.64,55.16,153.36,55.16Zm.48,6h-1.32v4.07h1.23c1.41,0,2.86-.33,2.86-2S155.21,61.12,153.85,61.12Z"/><path class="cls-1" d="M164,63.17c0,1.47.75,2.55,2.33,2.55a2.5,2.5,0,0,0,2.27-1.28l2.46.4a4.67,4.67,0,0,1-4.69,3,4.78,4.78,0,0,1-5.11-5.08,4.72,4.72,0,0,1,5-5.06c3.15,0,4.86,2.11,4.86,5.15v.35Zm2.31-3.61a2.16,2.16,0,0,0-2.22,1.91h4.51A2.21,2.21,0,0,0,166.32,59.56Z"/><path class="cls-1" d="M176.22,67.81a5.07,5.07,0,0,1-3.63-1.58L174,64.6a3.1,3.1,0,0,0,2.24,1.12,1.12,1.12,0,0,0,1.21-1.06c0-1.63-4.25-.81-4.25-4,0-1.94,1.61-3,3.41-3a4.91,4.91,0,0,1,3.1,1L178.4,60.2a2.65,2.65,0,0,0-1.58-.64c-.46,0-1,.29-1,.81,0,1.39,4.4.77,4.4,4C180.2,66.62,178.27,67.81,176.22,67.81Z"/><path class="cls-1" d="M187,67.81c-3,0-5.46-1.89-5.46-5.06s2.42-5.08,5.48-5.08,5.41,1.91,5.41,5.06S190.06,67.81,187,67.81Zm-2.31-11.62a1.58,1.58,0,0,1,0-3.17,1.58,1.58,0,1,1,0,3.17ZM187,60.06a2.67,2.67,0,1,0,2.71,2.68A2.69,2.69,0,0,0,187,60.06Zm2.29-3.87a1.61,1.61,0,0,1-1.58-1.58,1.58,1.58,0,1,1,1.58,1.58Z"/><path class="cls-1" d="M201.06,67.5l-3.59-4.09-.29.29V67.5h-2.66V51h2.66V61.45L200.75,58h3.61l-4.47,4.18,4.82,5.35Z"/><path class="cls-1" d="M216.24,67.7H215L210.14,58h3l2.51,5.37L218.15,58h3Z"/><path class="cls-1" d="M229.73,67.5V66.25a3.68,3.68,0,0,1-3.1,1.56c-2.86,0-4.69-2.38-4.69-5.1a4.76,4.76,0,0,1,4.62-5,4,4,0,0,1,3.17,1.52V58h2.68V67.5Zm-2.38-7.44A2.67,2.67,0,1,0,230,62.73,2.66,2.66,0,0,0,227.35,60.06ZM227,56.3a2,2,0,1,1,0-4,2,2,0,1,1,0,4Zm0-2.75a.77.77,0,1,0,.77.77A.75.75,0,0,0,227,53.55Z"/><path class="cls-1" d="M241.19,60.39a2.36,2.36,0,0,0-1.28-.33c-1.8,0-2.29,1.28-2.29,2.86V67.5H235V58h2.66V59.4a3.11,3.11,0,0,1,3.94-1.52Z"/><path class="cls-1" d="M246,60.26V67.5h-2.66V60.26h-1.06V58h1.06V54.72H246V58h1.87v2.29Z"/><path class="cls-1" d="M150.39,95.7h-1.23L144.3,86h3l2.51,5.37L152.31,86h3Z"/><path class="cls-1" d="M157.9,83.55a1.61,1.61,0,1,1,0-3.21,1.61,1.61,0,0,1,0,3.21ZM156.55,95.5V86h2.66V95.5Z"/><path class="cls-1" d="M164.76,95.81a5.07,5.07,0,0,1-3.63-1.58l1.41-1.63a3.1,3.1,0,0,0,2.24,1.12A1.12,1.12,0,0,0,166,92.66c0-1.63-4.25-.81-4.25-4,0-1.94,1.61-3,3.41-3a4.91,4.91,0,0,1,3.1,1l-1.32,1.56a2.65,2.65,0,0,0-1.58-.64c-.46,0-1,.29-1,.81,0,1.39,4.4.77,4.4,4C168.74,94.62,166.81,95.81,164.76,95.81Z"/><path class="cls-1" d="M177.15,95.5V90.22c0-1.3-.29-2.29-1.8-2.29s-2,1.21-2,2.64V95.5h-2.66V86h2.66v1.17a3.52,3.52,0,0,1,3-1.47,3.29,3.29,0,0,1,3.52,3.78V95.5Z"/><path class="cls-1" d="M183.66,83.55a1.61,1.61,0,1,1,0-3.21,1.61,1.61,0,0,1,0,3.21ZM182.32,95.5V86H185V95.5Z"/><path class="cls-1" d="M194,95.5V90.22c0-1.3-.29-2.29-1.8-2.29s-2,1.21-2,2.64V95.5h-2.66V86h2.66v1.17a3.52,3.52,0,0,1,3-1.47,3.29,3.29,0,0,1,3.52,3.78V95.5Z"/><path class="cls-1" d="M208.06,99a5.2,5.2,0,0,1-4,1.67c-2.44,0-4.8-1.41-5.06-4h2.88a2.12,2.12,0,0,0,2.27,1.74c1.67,0,2.35-1.17,2.35-2.71V94.22a4,4,0,0,1-3.21,1.58c-2.82,0-4.53-2.27-4.53-5s1.76-5.19,4.66-5.19a3.57,3.57,0,0,1,3.08,1.54V86h2.68v9.18A5.13,5.13,0,0,1,208.06,99Zm-3.94-10.89a2.67,2.67,0,1,0,2.66,2.66A2.66,2.66,0,0,0,204.12,88.06Z"/><path class="cls-1" d="M214.72,95.81a5.07,5.07,0,0,1-3.63-1.58l1.41-1.63a3.09,3.09,0,0,0,2.24,1.12A1.12,1.12,0,0,0,216,92.66c0-1.63-4.25-.81-4.25-4,0-1.94,1.61-3,3.41-3a4.91,4.91,0,0,1,3.1,1L216.9,88.2a2.65,2.65,0,0,0-1.58-.64c-.46,0-1,.29-1,.81,0,1.39,4.4.77,4.4,4C218.7,94.62,216.77,95.81,214.72,95.81Z"/><path class="cls-1" d="M227.11,95.5V90.29c0-1.32-.29-2.35-1.83-2.35s-2,1.28-2,2.68V95.5h-2.66V79h2.66v8.19a3.47,3.47,0,0,1,3-1.54A3.64,3.64,0,0,1,229,86.83a3.78,3.78,0,0,1,.75,2.68v6Z"/><path class="cls-1" d="M236.92,95.81c-2.62,0-4.6-1.17-4.6-4V86H235v5.39c0,1.3.55,2.18,1.94,2.18s1.94-.88,1.94-2.18V86h2.68V91.8C241.54,94.64,239.54,95.81,236.92,95.81Z"/><path class="cls-1" d="M247.13,95.81a5.07,5.07,0,0,1-3.63-1.58l1.41-1.63a3.1,3.1,0,0,0,2.24,1.12,1.12,1.12,0,0,0,1.21-1.06c0-1.63-4.25-.81-4.25-4,0-1.94,1.61-3,3.41-3a4.91,4.91,0,0,1,3.1,1L249.3,88.2a2.65,2.65,0,0,0-1.58-.64c-.46,0-1,.29-1,.81,0,1.39,4.4.77,4.4,4C251.11,94.62,249.17,95.81,247.13,95.81Z"/></svg>