<?xml version="1.0" encoding="utf-8"?>
<!-- Generator: Adobe Illustrator 19.1.1, SVG Export Plug-In . SVG Version: 6.00 Build 0)  -->
<svg version="1.1" id="Layer_1" xmlns="http://www.w3.org/2000/svg" xmlns:xlink="http://www.w3.org/1999/xlink" x="0px" y="0px"
	 viewBox="0 0 980 120" style="enable-background:new 0 0 980 120;" xml:space="preserve">
<style type="text/css">
	.st0{fill:#D4AC76;}
</style>
<g>
	<path class="st0" d="M330.9,84.9h-4.8v3.5h5.1V90h-6.7V78.4h6.6v1.5h-5v3.4h4.8V84.9z"/>
	<path class="st0" d="M334,79.9v-1.5h9.4v1.5h-3.9v10h-1.6v-10H334z"/>
	<path class="st0" d="M345.7,79.9v-1.5h9.4v1.5h-3.9v10h-1.6v-10H345.7z"/>
	<path class="st0" d="M372.2,90v-5h-5.6v5h-1.6V78.4h1.6v5h5.6v-5h1.6V90H372.2z"/>
	<path class="st0" d="M382.6,90.2c-1.2,0-2.2-0.4-3-1.2c-0.8-0.8-1.2-1.8-1.2-3.1v-7.5h1.6v7.4c0,0.8,0.2,1.5,0.7,2
		c0.5,0.5,1.1,0.8,1.9,0.8c0.8,0,1.5-0.3,1.9-0.8s0.7-1.2,0.7-2v-7.4h1.6v7.5c0,1.2-0.4,2.3-1.2,3.1
		C384.8,89.8,383.8,90.2,382.6,90.2z"/>
	<path class="st0" d="M394.4,90.1c-0.7,0-1.5-0.2-2.2-0.5s-1.3-0.7-1.8-1.2l1.1-1.3c0.4,0.4,0.8,0.8,1.3,1.1
		c0.5,0.3,1.1,0.4,1.6,0.4c0.6,0,1.1-0.2,1.5-0.5c0.4-0.3,0.6-0.7,0.6-1.2c0-0.8-0.5-1.5-1.5-1.9l-1.4-0.5c-0.9-0.3-1.5-0.8-1.9-1.2
		c-0.4-0.5-0.6-1.1-0.6-1.8c0-0.9,0.3-1.6,1-2.2c0.6-0.6,1.4-0.9,2.4-0.9c1.3,0,2.5,0.4,3.4,1.3l-1,1.3c-0.7-0.7-1.5-1-2.4-1
		c-0.5,0-0.9,0.1-1.2,0.4c-0.3,0.3-0.5,0.6-0.5,1.1c0,0.3,0.1,0.6,0.3,0.9s0.6,0.5,1.2,0.7l1.4,0.6c1.7,0.7,2.5,1.8,2.4,3.3
		c0,1-0.3,1.8-1,2.4C396.5,89.8,395.6,90.1,394.4,90.1z"/>
	<path class="st0" d="M408.5,90V78.4h6.3v1.5h-4.7v3.6h4.2v1.5h-4.2V90H408.5z"/>
	<path class="st0" d="M423.6,90.2c-1.6,0-3-0.6-4.2-1.7c-1.1-1.1-1.7-2.6-1.7-4.3c0-1.7,0.6-3.2,1.7-4.3c1.1-1.1,2.5-1.7,4.2-1.7
		c1.6,0,3,0.6,4.2,1.7c1.2,1.1,1.7,2.6,1.7,4.3s-0.6,3.1-1.7,4.3C426.6,89.6,425.2,90.2,423.6,90.2z M420.6,87.3
		c0.8,0.9,1.8,1.3,3,1.3s2.2-0.4,3-1.3s1.2-1.9,1.2-3.2c0-1.2-0.4-2.3-1.3-3.2s-1.8-1.3-3-1.3c-1.2,0-2.2,0.4-3,1.3
		s-1.2,1.9-1.2,3.2C419.3,85.4,419.7,86.5,420.6,87.3z M422.5,77.2c-0.2,0.2-0.4,0.3-0.6,0.3c-0.2,0-0.4-0.1-0.6-0.3
		c-0.2-0.2-0.2-0.4-0.2-0.6s0.1-0.5,0.2-0.6c0.2-0.2,0.3-0.3,0.6-0.3c0.2,0,0.4,0.1,0.6,0.3c0.2,0.2,0.2,0.4,0.2,0.6
		S422.7,77,422.5,77.2z M425.7,77.2c-0.2,0.2-0.3,0.3-0.6,0.3c-0.2,0-0.4-0.1-0.6-0.3s-0.2-0.4-0.2-0.6s0.1-0.5,0.2-0.6
		s0.3-0.3,0.6-0.3c0.2,0,0.4,0.1,0.6,0.3c0.2,0.2,0.2,0.4,0.2,0.6S425.9,77,425.7,77.2z"/>
	<path class="st0" d="M433.6,90V78.4h4.3c1,0,1.9,0.3,2.6,1s1.1,1.5,1.1,2.6c0,1-0.3,1.8-0.9,2.4c-0.6,0.6-1.3,1-2.2,1.1l3.4,4.4h-2
		l-3.3-4.4h-1.3V90H433.6z M437.7,79.9h-2.5v4.2h2.5c0.7,0,1.2-0.2,1.6-0.6c0.4-0.4,0.6-0.9,0.6-1.5c0-0.6-0.2-1.1-0.6-1.5
		C438.9,80.1,438.3,79.9,437.7,79.9z"/>
	<path class="st0" d="M450.6,90l4.7-11.6h1.5l4.6,11.6h-1.8l-0.7-1.8h-5.7l-0.7,1.8H450.6z M456,81l-2.3,5.6h4.5L456,81z"/>
	<path class="st0" d="M464.5,90V78.4h1.6v10h4.8V90H464.5z"/>
	<path class="st0" d="M474.4,90V78.4h1.6v10h4.8V90H474.4z"/>
	<path class="st0" d="M483.2,90l4.7-11.6h1.5l4.6,11.6h-1.8l-0.7-1.8h-5.7L485,90H483.2z M488.6,81l-2.3,5.6h4.5L488.6,81z"/>
	<path class="st0" d="M502.3,90l4.7-11.6h1.5L513,90h-1.8l-0.7-1.8h-5.7l-0.7,1.8H502.3z M507.7,81l-2.3,5.6h4.5L507.7,81z"/>
	<path class="st0" d="M519.3,90.1c-0.7,0-1.5-0.2-2.2-0.5c-0.7-0.3-1.3-0.7-1.8-1.2l1.1-1.3c0.4,0.4,0.8,0.8,1.3,1.1
		c0.5,0.3,1.1,0.4,1.6,0.4c0.6,0,1.1-0.2,1.5-0.5c0.4-0.3,0.6-0.7,0.6-1.2c0-0.8-0.5-1.5-1.5-1.9l-1.4-0.5c-0.9-0.3-1.5-0.8-1.9-1.2
		c-0.4-0.5-0.6-1.1-0.6-1.8c0-0.9,0.3-1.6,1-2.2c0.6-0.6,1.4-0.9,2.4-0.9c1.3,0,2.5,0.4,3.4,1.3l-1,1.3c-0.7-0.7-1.5-1-2.4-1
		c-0.5,0-0.9,0.1-1.2,0.4c-0.3,0.3-0.5,0.6-0.5,1.1c0,0.3,0.1,0.6,0.3,0.9c0.2,0.3,0.6,0.5,1.2,0.7l1.4,0.6c1.7,0.7,2.5,1.8,2.4,3.3
		c0,1-0.3,1.8-1,2.4C521.4,89.8,520.4,90.1,519.3,90.1z"/>
	<path class="st0" d="M527,90V78.4h4c1.1,0,2,0.4,2.7,1.1c0.7,0.7,1.1,1.6,1.1,2.8c0,1.1-0.4,2-1.1,2.7c-0.7,0.7-1.6,1.1-2.7,1.1
		h-2.3v4H527z M530.9,79.9h-2.2v4.5h2.2c0.7,0,1.2-0.2,1.6-0.6c0.4-0.4,0.6-1,0.6-1.6c0-0.7-0.2-1.2-0.6-1.6S531.5,79.9,530.9,79.9z
		"/>
	<path class="st0" d="M545,84.9h-4.8v3.5h5.1V90h-6.7V78.4h6.6v1.5h-5v3.4h4.8V84.9z"/>
	<path class="st0" d="M549.3,90V78.4h1.6v5.5l4.8-5.5h2.2l-4.1,4.6l4.2,7h-2l-3.4-5.7l-1.7,1.9V90H549.3z"/>
	<path class="st0" d="M560.5,79.9v-1.5h9.4v1.5H566v10h-1.6v-10H560.5z"/>
	<path class="st0" d="M579.5,84.9h-4.8v3.5h5.1V90h-6.7V78.4h6.6v1.5h-5v3.4h4.8V84.9z"/>
	<path class="st0" d="M583.9,90V78.4h4.3c1,0,1.9,0.3,2.6,1s1.1,1.5,1.1,2.6c0,1-0.3,1.8-0.9,2.4c-0.6,0.6-1.3,1-2.2,1.1l3.4,4.4h-2
		l-3.3-4.4h-1.3V90H583.9z M588,79.9h-2.5v4.2h2.5c0.7,0,1.2-0.2,1.6-0.6c0.4-0.4,0.6-0.9,0.6-1.5c0-0.6-0.2-1.1-0.6-1.5
		C589.2,80.1,588.6,79.9,588,79.9z"/>
	<path class="st0" d="M600.9,90l4.7-11.6h1.5l4.6,11.6h-1.8l-0.7-1.8h-5.7l-0.7,1.8H600.9z M606.3,81l-2.3,5.6h4.5L606.3,81z"/>
	<path class="st0" d="M617.1,90l-4.5-11.6h1.8l3.5,8.9l3.5-8.9h1.8L618.6,90H617.1z"/>
	<path class="st0" d="M632.8,90V78.4h3.1c1.6,0,2.9,0.6,4,1.7s1.7,2.5,1.7,4.1c0,1.7-0.6,3.1-1.7,4.2c-1.1,1.1-2.5,1.7-4.1,1.7
		H632.8z M636,79.9h-1.5v8.5h1.6c1.1,0,2.1-0.4,2.9-1.2c0.8-0.8,1.2-1.8,1.2-3s-0.4-2.2-1.2-3C638.1,80.3,637.1,79.9,636,79.9z"/>
	<path class="st0" d="M645.7,90V78.4h1.6V90H645.7z"/>
	<path class="st0" d="M659.3,84.9v-1.5h3.9v0.8c0,1.7-0.6,3.1-1.8,4.3s-2.6,1.7-4.2,1.7c-1.7,0-3.1-0.6-4.2-1.7
		c-1.1-1.2-1.7-2.6-1.7-4.3s0.6-3.1,1.7-4.3c1.1-1.2,2.5-1.7,4.2-1.7c0.9,0,1.7,0.2,2.4,0.5c0.8,0.3,1.4,0.8,2,1.3l-1.2,1.2
		c-0.9-1-1.9-1.5-3.2-1.5c-1.2,0-2.3,0.4-3.1,1.3c-0.8,0.9-1.2,1.9-1.2,3.2s0.4,2.3,1.2,3.2c0.8,0.9,1.8,1.3,3.1,1.3
		c1.1,0,2-0.3,2.8-1s1.3-1.6,1.5-2.7H659.3z"/>
</g>
</svg>
