<?xml version="1.0" encoding="utf-8"?>
<!-- Generator: Adobe Illustrator 19.1.1, SVG Export Plug-In . SVG Version: 6.00 Build 0)  -->
<svg version="1.1" id="Layer_1" xmlns="http://www.w3.org/2000/svg" xmlns:xlink="http://www.w3.org/1999/xlink" x="0px" y="0px"
	 viewBox="0 0 980 120" style="enable-background:new 0 0 980 120;" xml:space="preserve">
<style type="text/css">
	.st0{fill:#D4AC76;}
</style>
<g>
	<path class="st0" d="M829.5,56.8v-10h3.3c0.9,0,1.6,0.3,2.2,0.8c0.6,0.6,0.9,1.3,0.9,2.1s-0.4,1.5-1.1,2c0.5,0.2,0.8,0.5,1.1,0.9
		c0.3,0.4,0.4,0.8,0.4,1.3c0,0.9-0.3,1.6-0.9,2.1c-0.6,0.5-1.3,0.8-2.2,0.8H829.5z M832.6,48.4h-1.3v2.5h1.5c0.4,0,0.7-0.1,1-0.4
		c0.3-0.2,0.4-0.6,0.4-0.9c0-0.4-0.1-0.7-0.4-0.9C833.4,48.5,833.1,48.4,832.6,48.4z M832.9,52.4h-1.6v2.7h1.6
		c0.5,0,0.9-0.1,1.1-0.4c0.3-0.3,0.4-0.6,0.4-1s-0.1-0.7-0.4-1C833.8,52.5,833.4,52.4,832.9,52.4z"/>
	<path class="st0" d="M844.6,52.5h-3.7v2.6h4.1v1.7h-6v-10h5.8v1.7h-4v2.4h3.7V52.5z"/>
	<path class="st0" d="M850.5,56.9c-0.6,0-1.3-0.1-1.9-0.4c-0.6-0.3-1.2-0.6-1.6-1.1l1.2-1.4c0.3,0.4,0.7,0.7,1.1,0.9
		c0.4,0.2,0.9,0.4,1.3,0.4s0.8-0.1,1.1-0.3c0.3-0.2,0.4-0.5,0.4-0.9c0-0.6-0.4-1.1-1.1-1.4l-1.1-0.4c-0.8-0.3-1.3-0.7-1.7-1.1
		c-0.4-0.4-0.5-1-0.5-1.7s0.3-1.3,0.9-1.9c0.6-0.6,1.3-0.8,2.1-0.8c1.3,0,2.3,0.4,3.1,1.1l-1.1,1.4c-0.5-0.6-1.2-0.9-2-0.9
		c-0.4,0-0.7,0.1-0.9,0.3c-0.2,0.2-0.3,0.4-0.3,0.7c0,0.3,0.1,0.5,0.3,0.7c0.2,0.2,0.5,0.4,0.9,0.5l1.2,0.5c1.5,0.6,2.2,1.6,2.3,2.9
		c0,0.9-0.3,1.6-0.9,2.2C852.4,56.6,851.5,56.9,850.5,56.9z"/>
	<path class="st0" d="M855.6,48.5v-1.8h8.3v1.8h-3.2v8.2h-1.9v-8.2H855.6z"/>
	<path class="st0" d="M863.9,56.8l3.9-10h1.7l3.9,10h-1.9l-0.5-1.4h-4.5l-0.5,1.4H863.9z M867.8,45.7c-0.2,0.2-0.4,0.3-0.6,0.3
		c-0.2,0-0.4-0.1-0.6-0.3c-0.2-0.2-0.3-0.4-0.3-0.6c0-0.3,0.1-0.5,0.3-0.6c0.2-0.2,0.4-0.3,0.6-0.3c0.2,0,0.4,0.1,0.6,0.3
		c0.2,0.2,0.3,0.4,0.3,0.6C868,45.3,868,45.5,867.8,45.7z M868.7,49.5l-1.6,4.2h3.2L868.7,49.5z M870.8,45.7
		c-0.2,0.2-0.4,0.3-0.7,0.3c-0.3,0-0.5-0.1-0.7-0.3c-0.2-0.2-0.3-0.4-0.3-0.6c0-0.3,0.1-0.5,0.3-0.6c0.2-0.2,0.4-0.3,0.7-0.3
		c0.3,0,0.5,0.1,0.7,0.3c0.2,0.2,0.3,0.4,0.3,0.6C871.1,45.3,871,45.5,870.8,45.7z"/>
	<path class="st0" d="M875.5,56.8v-10h1.9v8.2h3.7v1.8H875.5z"/>
	<path class="st0" d="M883.5,56.8v-10h1.9v8.2h3.7v1.8H883.5z"/>
	<path class="st0" d="M899.2,56.8l-3.8-10h2l2.8,7.2l2.7-7.2h1.9l-3.8,10H899.2z"/>
	<path class="st0" d="M905,56.8l3.9-10h1.7l3.9,10h-1.9l-0.5-1.4h-4.5l-0.5,1.4H905z M909.7,49.5l-1.6,4.2h3.2L909.7,49.5z
		 M911.2,45c0,0.4-0.1,0.7-0.4,1c-0.3,0.3-0.6,0.4-1,0.4c-0.4,0-0.7-0.1-1-0.4s-0.4-0.6-0.4-1s0.1-0.8,0.4-1s0.6-0.4,1-0.4
		c0.4,0,0.7,0.1,1,0.4C911,44.2,911.2,44.6,911.2,45z M909.3,45.4c0.1,0.1,0.2,0.2,0.4,0.2s0.3-0.1,0.4-0.2c0.1-0.1,0.1-0.2,0.1-0.4
		s-0.1-0.3-0.2-0.4c-0.1-0.1-0.2-0.2-0.4-0.2c-0.1,0-0.3,0.1-0.4,0.2c-0.1,0.1-0.2,0.2-0.2,0.4S909.2,45.3,909.3,45.4z"/>
	<path class="st0" d="M916.5,56.8v-10h3.9c1,0,1.8,0.3,2.4,0.9c0.6,0.6,1,1.4,1,2.4c0,0.8-0.2,1.5-0.7,2c-0.5,0.6-1.1,0.9-1.9,1.1
		l2.7,3.6h-2.1l-2.6-3.6h-0.8v3.6H916.5z M920.1,48.4h-1.8v3.3h1.8c0.5,0,1-0.1,1.3-0.4c0.3-0.3,0.5-0.7,0.5-1.2s-0.2-0.9-0.5-1.2
		C921.1,48.5,920.7,48.4,920.1,48.4z"/>
	<path class="st0" d="M925.5,48.5v-1.8h8.3v1.8h-3.2v8.2h-1.9v-8.2H925.5z"/>
	<path class="st0" d="M847.1,71.8v-10h1.8l3.1,5l3.1-5h2v10h-1.9v-6.9l-0.2,0l-3.1,4.8l-3-4.7h0v6.8H847.1z"/>
	<path class="st0" d="M859.2,71.8l3.9-10h1.7l3.9,10h-1.9l-0.5-1.4h-4.5l-0.5,1.4H859.2z M863.9,64.5l-1.6,4.2h3.2L863.9,64.5z"/>
	<path class="st0" d="M876.7,67.6v-1.7h3.6l0,0.9c0,1-0.3,1.9-0.7,2.7c-0.5,0.8-1.1,1.4-1.9,1.9c-0.8,0.4-1.6,0.7-2.6,0.7
		c-1.5,0-2.7-0.5-3.7-1.5c-1-1-1.5-2.2-1.5-3.7s0.5-2.7,1.5-3.7c1-1,2.3-1.5,3.7-1.5s2.7,0.5,3.7,1.6l-1.3,1.3
		c-0.7-0.7-1.5-1.1-2.5-1.1s-1.8,0.3-2.4,1s-0.9,1.5-0.9,2.4s0.3,1.8,1,2.4c0.6,0.7,1.4,1,2.3,1s1.6-0.2,2.2-0.7
		c0.6-0.5,1-1.1,1.2-1.9H876.7z"/>
	<path class="st0" d="M881.4,71.8l3.9-10h1.7l3.9,10h-1.9l-0.5-1.4h-4.5l-0.5,1.4H881.4z M886.1,64.5l-1.6,4.2h3.2L886.1,64.5z"/>
	<path class="st0" d="M895.8,71.9c-0.6,0-1.3-0.1-1.9-0.4s-1.2-0.6-1.6-1.1l1.2-1.4c0.3,0.4,0.7,0.7,1.1,0.9
		c0.4,0.2,0.9,0.4,1.3,0.4s0.8-0.1,1.1-0.3c0.3-0.2,0.4-0.5,0.4-0.9c0-0.6-0.4-1.1-1.1-1.4l-1.1-0.4c-0.8-0.3-1.3-0.7-1.7-1.1
		c-0.4-0.4-0.5-1-0.5-1.7s0.3-1.3,0.9-1.9c0.6-0.6,1.3-0.8,2.1-0.8c1.3,0,2.3,0.4,3.1,1.1l-1.1,1.4c-0.5-0.6-1.2-0.9-2-0.9
		c-0.4,0-0.7,0.1-0.9,0.3s-0.3,0.4-0.3,0.7c0,0.3,0.1,0.5,0.3,0.7c0.2,0.2,0.5,0.4,0.9,0.5l1.2,0.5c1.5,0.6,2.2,1.6,2.3,2.9
		c0,0.9-0.3,1.6-0.9,2.2C897.7,71.6,896.8,71.9,895.8,71.9z"/>
	<path class="st0" d="M901.9,71.8v-10h1.9v10H901.9z"/>
	<path class="st0" d="M907.1,71.8v-10h1.3l4.9,6.3v-6.3h1.9v10H914l-5-6.4v6.4H907.1z"/>
</g>
</svg>
