<svg id="Layer_1" data-name="Layer 1" xmlns="http://www.w3.org/2000/svg" viewBox="0 0 980 120"><defs><style>.cls-1{fill:#d4ac76;}</style></defs><title>text</title><path class="cls-1" d="M251.79,90V75.3h2.05V90Z"/><path class="cls-1" d="M259.86,90V75.3h1.43l8,10.11V75.3h2.05V90h-1.14L261.91,79.5V90Z"/><path class="cls-1" d="M281,90.17a6.71,6.71,0,0,1-2.75-.59A7.06,7.06,0,0,1,275.94,88l1.45-1.66a5.51,5.51,0,0,0,1.69,1.34,4.29,4.29,0,0,0,2,.54,2.81,2.81,0,0,0,1.9-.63,2,2,0,0,0,.73-1.56,2.57,2.57,0,0,0-1.85-2.41l-1.74-.69a6.18,6.18,0,0,1-2.4-1.57A3.46,3.46,0,0,1,277,79a3.68,3.68,0,0,1,1.21-2.77,4.18,4.18,0,0,1,3-1.15,6,6,0,0,1,4.26,1.62l-1.23,1.65a4.07,4.07,0,0,0-3-1.32,2.33,2.33,0,0,0-1.56.51,1.7,1.7,0,0,0-.6,1.36,1.65,1.65,0,0,0,.44,1.14,4.07,4.07,0,0,0,1.49.91l1.77.71q3.21,1.29,3.09,4.19A4,4,0,0,1,284.5,89,4.94,4.94,0,0,1,281,90.17Z"/><path class="cls-1" d="M290.83,90V75.3h5a4.58,4.58,0,0,1,3.41,1.37,4.74,4.74,0,0,1,1.37,3.49,4.57,4.57,0,0,1-1.41,3.43A4.71,4.71,0,0,1,295.76,85h-2.88v5Zm4.87-12.73h-2.82V83h2.84a2.71,2.71,0,0,0,2.84-2.85,2.84,2.84,0,0,0-.81-2.08A2.75,2.75,0,0,0,295.7,77.25Z"/><path class="cls-1" d="M305.48,90V75.3h2V90Z"/><path class="cls-1" d="M313.56,90V75.3H319a4.57,4.57,0,0,1,3.3,1.27,4.82,4.82,0,0,1,.23,6.39,4.31,4.31,0,0,1-2.81,1.43L324,90h-2.53l-4.22-5.6h-1.63V90Zm5.17-12.73h-3.12v5.3h3.1a3,3,0,0,0,2.08-.72,2.66,2.66,0,0,0,0-3.81A2.86,2.86,0,0,0,318.73,77.25Z"/><path class="cls-1" d="M327,90l5.89-14.68h1.86L340.56,90h-2.27l-.88-2.26h-7.2L329.3,90Zm6.82-11.31L331,85.76h5.65Z"/><path class="cls-1" d="M341.43,77.25v-2h11.89v2H348.4V90h-2V77.25Z"/><path class="cls-1" d="M357.41,90V75.3h2V90Z"/><path class="cls-1" d="M371.91,90.25a7.25,7.25,0,0,1-5.29-2.17,7.9,7.9,0,0,1,0-10.9,7.51,7.51,0,0,1,10.57,0,7.83,7.83,0,0,1,0,10.88A7.23,7.23,0,0,1,371.91,90.25Zm-3.84-3.6a5.33,5.33,0,0,0,7.69,0,5.88,5.88,0,0,0,0-8,5.29,5.29,0,0,0-7.68,0,5.89,5.89,0,0,0,0,8Z"/><path class="cls-1" d="M384.54,90V75.3H386l7.95,10.11V75.3H396V90h-1.14L386.59,79.5V90Z"/><path class="cls-1" d="M413.72,90.19A4.27,4.27,0,0,1,410.63,89a3.9,3.9,0,0,1-1.24-3,3.79,3.79,0,0,1,.65-2.23,6.44,6.44,0,0,1,1.9-1.72l-.31-.34a4.72,4.72,0,0,1-1.1-3,3.64,3.64,0,0,1,1.05-2.64,3.49,3.49,0,0,1,2.59-1.07,3.34,3.34,0,0,1,2.5,1.07,3.57,3.57,0,0,1,1,2.62q0,2.33-2.91,3.76l2.43,2.59a12.14,12.14,0,0,0,.62-2.42l1.71.1a14.19,14.19,0,0,1-.94,3.8L421,89.11l-1.39,1.29-2-2.15A4.73,4.73,0,0,1,413.72,90.19Zm0-1.82a3,3,0,0,0,2.6-1.49l-3.18-3.44A3.17,3.17,0,0,0,411.44,86a2.35,2.35,0,0,0,.66,1.7A2.19,2.19,0,0,0,413.75,88.37Zm-1.51-9.61a3,3,0,0,0,.82,1.95l.49.53a.43.43,0,0,1,.14-.08l.14,0a5.11,5.11,0,0,0,1.66-1,1.85,1.85,0,0,0,.51-1.32,1.78,1.78,0,0,0-.52-1.31,1.76,1.76,0,0,0-1.31-.53,1.93,1.93,0,0,0-1.37.53A1.73,1.73,0,0,0,412.24,78.76Z"/><path class="cls-1" d="M431.64,77.25v-2h11.89v2h-4.92V90h-2.05V77.25Z"/><path class="cls-1" d="M447.62,90V75.3h2.05V90Z"/><path class="cls-1" d="M455.69,90V75.3h5a4.56,4.56,0,0,1,3.4,1.37,4.74,4.74,0,0,1,1.37,3.49,4.57,4.57,0,0,1-1.41,3.43A4.71,4.71,0,0,1,460.63,85h-2.88v5Zm4.88-12.73h-2.82V83h2.84a2.72,2.72,0,0,0,2.84-2.85,2.84,2.84,0,0,0-.81-2.08A2.77,2.77,0,0,0,460.57,77.25Z"/><path class="cls-1" d="M474,90.17a6.71,6.71,0,0,1-2.75-.59A7,7,0,0,1,468.91,88l1.44-1.66A5.51,5.51,0,0,0,472,87.68a4.32,4.32,0,0,0,2,.54,2.81,2.81,0,0,0,1.9-.63,2,2,0,0,0,.74-1.56,2.58,2.58,0,0,0-1.86-2.41l-1.73-.69a6.15,6.15,0,0,1-2.41-1.57,3.51,3.51,0,0,1-.79-2.33,3.69,3.69,0,0,1,1.22-2.77,4.14,4.14,0,0,1,3-1.15,6,6,0,0,1,4.27,1.62l-1.24,1.65a4,4,0,0,0-3-1.32,2.32,2.32,0,0,0-1.55.51,1.7,1.7,0,0,0-.6,1.36,1.64,1.64,0,0,0,.43,1.14,4.12,4.12,0,0,0,1.5.91l1.76.71q3.21,1.29,3.09,4.19a4,4,0,0,1-1.3,3.09A4.91,4.91,0,0,1,474,90.17Z"/><path class="cls-1" d="M491.83,90V75.3h8v2h-6v4.62h5.29v2h-5.29V90Z"/><path class="cls-1" d="M510.94,90.25a7.25,7.25,0,0,1-5.3-2.17,7.9,7.9,0,0,1,0-10.9,7.52,7.52,0,0,1,10.58,0,7.85,7.85,0,0,1,0,10.88A7.26,7.26,0,0,1,510.94,90.25Zm-3.85-3.6a5.33,5.33,0,0,0,7.69,0,5.88,5.88,0,0,0,0-8,5.29,5.29,0,0,0-7.68,0,5.89,5.89,0,0,0,0,8Zm2.47-12.91a1,1,0,0,1-1.46,0,1.25,1.25,0,0,1,0-1.6,1,1,0,0,1,1.46,0,1.22,1.22,0,0,1,0,1.6Zm4.07,0a1,1,0,0,1-.73.32,1,1,0,0,1-.73-.32,1.25,1.25,0,0,1,0-1.6,1,1,0,0,1,.73-.32,1,1,0,0,1,.73.32,1.22,1.22,0,0,1,0,1.6Z"/><path class="cls-1" d="M523.56,90V75.3H529a4.6,4.6,0,0,1,3.31,1.27,4.4,4.4,0,0,1,1.33,3.32,4.44,4.44,0,0,1-1.1,3.07,4.33,4.33,0,0,1-2.81,1.43L534,90h-2.53l-4.21-5.6h-1.64V90Zm5.18-12.73h-3.13v5.3h3.11a3,3,0,0,0,2.08-.72,2.51,2.51,0,0,0,.8-1.94,2.47,2.47,0,0,0-.81-1.87A2.86,2.86,0,0,0,528.74,77.25Z"/><path class="cls-1" d="M555.94,90V83.62h-7.15V90h-2V75.3h2v6.36h7.15V75.3h2V90Z"/><path class="cls-1" d="M569.11,90.23a5.11,5.11,0,0,1-3.83-1.54,5.34,5.34,0,0,1-1.5-3.88V75.3h2.06v9.39a3.83,3.83,0,0,0,.87,2.57,3,3,0,0,0,2.4,1,3.09,3.09,0,0,0,2.43-1,3.75,3.75,0,0,0,.89-2.57V75.3h2.05v9.51A5.37,5.37,0,0,1,573,88.69,5.16,5.16,0,0,1,569.11,90.23Z"/><path class="cls-1" d="M584.14,90.17a6.74,6.74,0,0,1-2.75-.59A7,7,0,0,1,579.07,88l1.44-1.66a5.63,5.63,0,0,0,1.69,1.34,4.33,4.33,0,0,0,2,.54,2.8,2.8,0,0,0,1.89-.63,2,2,0,0,0,.74-1.56A2.58,2.58,0,0,0,585,83.62l-1.73-.69a6.15,6.15,0,0,1-2.41-1.57,3.51,3.51,0,0,1-.79-2.33,3.69,3.69,0,0,1,1.22-2.77,4.14,4.14,0,0,1,3-1.15,6,6,0,0,1,4.27,1.62l-1.24,1.65a4,4,0,0,0-3-1.32,2.32,2.32,0,0,0-1.55.51,1.7,1.7,0,0,0-.6,1.36,1.6,1.6,0,0,0,.44,1.14,4.07,4.07,0,0,0,1.49.91l1.76.71Q589,83,588.92,85.88a4,4,0,0,1-1.3,3.09A4.91,4.91,0,0,1,584.14,90.17Z"/><path class="cls-1" d="M594,90V75.3h3.93A7.39,7.39,0,0,1,603,87.89,7.14,7.14,0,0,1,597.82,90Zm4-12.73h-2V88h2a4.77,4.77,0,0,0,3.62-1.58,5.41,5.41,0,0,0,1.46-3.84,5.23,5.23,0,0,0-1.51-3.81A4.91,4.91,0,0,0,598,77.25Z"/><path class="cls-1" d="M610.22,90V75.3h5.45A4.6,4.6,0,0,1,619,76.57a4.4,4.4,0,0,1,1.33,3.32,4.44,4.44,0,0,1-1.1,3.07,4.33,4.33,0,0,1-2.81,1.43L620.65,90h-2.53l-4.21-5.6h-1.64V90Zm5.18-12.73h-3.13v5.3h3.11a3,3,0,0,0,2.08-.72,2.51,2.51,0,0,0,.8-1.94,2.47,2.47,0,0,0-.81-1.87A2.88,2.88,0,0,0,615.4,77.25Z"/><path class="cls-1" d="M632.08,90.25a7.27,7.27,0,0,1-5.3-2.17,7.9,7.9,0,0,1,0-10.9,7.52,7.52,0,0,1,10.58,0,7.83,7.83,0,0,1,0,10.88A7.23,7.23,0,0,1,632.08,90.25Zm-3.85-3.6a5.33,5.33,0,0,0,7.69,0,5.88,5.88,0,0,0,0-8,5.29,5.29,0,0,0-7.68,0,5.89,5.89,0,0,0,0,8Zm2.47-12.91a1,1,0,0,1-.73.32.93.93,0,0,1-.72-.32,1.22,1.22,0,0,1,0-1.6.93.93,0,0,1,.72-.32,1,1,0,0,1,.73.32,1.19,1.19,0,0,1,0,1.6Zm4.08,0a1,1,0,0,1-.73.32,1,1,0,0,1-.73-.32,1.22,1.22,0,0,1,0-1.6,1,1,0,0,1,.73-.32,1,1,0,0,1,.73.32,1.25,1.25,0,0,1,0,1.6Z"/><path class="cls-1" d="M644.71,90V75.3h2.1l4.73,7.82,4.81-7.82h2V90h-2.06V79.13l-.06,0-4.73,7.59-4.63-7.48h-.13V90Z"/><path class="cls-1" d="M664.41,90V75.3h2.11l4.73,7.82,4.8-7.82h2V90H676V79.13l-.07,0-4.73,7.59-4.63-7.48h-.13V90Z"/><path class="cls-1" d="M682.25,90l5.9-14.68H690L695.78,90h-2.27l-.88-2.26h-7.2L684.52,90Zm6.82-11.31-2.86,7.09h5.65Z"/><path class="cls-1" d="M699.86,90V75.3h5.45a4.6,4.6,0,0,1,3.31,1.27A4.4,4.4,0,0,1,710,79.89a4.44,4.44,0,0,1-1.1,3.07A4.33,4.33,0,0,1,706,84.39L710.29,90h-2.52l-4.22-5.6h-1.64V90ZM705,77.25h-3.13v5.3H705a3,3,0,0,0,2.08-.72,2.51,2.51,0,0,0,.8-1.94,2.47,2.47,0,0,0-.81-1.87A2.86,2.86,0,0,0,705,77.25Z"/></svg>