<svg id="Layer_1" data-name="Layer 1" xmlns="http://www.w3.org/2000/svg" viewBox="0 0 300 250"><defs><style>.cls-1{fill:#fff;}</style></defs><title>text</title><path class="cls-1" d="M80.29,225.15V212.37H75.46c-.49,0-.73-.33-.73-1s.24-1,.73-1H87.28c.49,0,.74.33.74,1s-.25,1-.74,1H82.45v12.78c0,.57-.36.85-1.08.85S80.29,225.72,80.29,225.15Z"/><path class="cls-1" d="M88.29,216.47c-.5,0-.75-.29-.75-.89a1,1,0,0,1,.75-1.08,16.78,16.78,0,0,1,3.89-.31c1.81,0,3,.29,3.68.86a4,4,0,0,1,1,3v4.63c0,1.44-.35,2.38-1.06,2.82a8.41,8.41,0,0,1-4,.66,8.19,8.19,0,0,1-4-.66c-.68-.44-1-1.37-1-2.81a4.27,4.27,0,0,1,.78-3c.53-.55,1.59-.82,3.2-.81h4v-1.24a1.33,1.33,0,0,0-.55-1.22,4.07,4.07,0,0,0-2-.33,15.88,15.88,0,0,0-2.45.16A8.59,8.59,0,0,1,88.29,216.47Zm6.38,6.41v-2H91.34a4.21,4.21,0,0,0-2,.31c-.31.2-.46.66-.46,1.38s.19,1.19.57,1.4a6.06,6.06,0,0,0,2.3.29,6.87,6.87,0,0,0,2.31-.26A1.06,1.06,0,0,0,94.67,222.88Z"/><path class="cls-1" d="M110.29,226.12a1.84,1.84,0,0,1-1.15-.39,2.23,2.23,0,0,1-.72-1l-3.4-9.15c0-.25-.07-.38-.08-.39,0-.56.35-.84,1-.83A1,1,0,0,1,107,215l3.21,9h.11l3.23-9c.15-.42.54-.62,1.16-.62s.92.27.92.83c0,0,0,.14-.07.39l-3.41,9.15a2,2,0,0,1-.73,1A1.93,1.93,0,0,1,110.29,226.12Z"/><path class="cls-1" d="M119.05,216.47c-.5,0-.75-.29-.75-.89a1,1,0,0,1,.75-1.08,16.84,16.84,0,0,1,3.89-.31c1.81,0,3,.29,3.68.86a3.92,3.92,0,0,1,1,3v4.63c0,1.44-.35,2.38-1.06,2.82a8.41,8.41,0,0,1-4,.66,8,8,0,0,1-4-.66c-.67-.44-1-1.37-1-2.81a4.33,4.33,0,0,1,.77-3c.53-.55,1.59-.82,3.2-.81h4v-1.24a1.31,1.31,0,0,0-.55-1.22,4,4,0,0,0-1.95-.33,15.7,15.7,0,0,0-2.45.16A8.78,8.78,0,0,1,119.05,216.47Zm6.38,6.41v-2h-3.32a4.19,4.19,0,0,0-2,.31q-.45.3-.45,1.38c0,.73.19,1.19.56,1.4a6,6,0,0,0,2.29.29,6.83,6.83,0,0,0,2.31-.26A1.05,1.05,0,0,0,125.43,222.88ZM121.25,213a2.26,2.26,0,1,1,1.58.64A2.15,2.15,0,0,1,121.25,213Zm.62-1.58a.94.94,0,0,0,.28.69.89.89,0,0,0,.69.27.93.93,0,0,0,.67-.28,1,1,0,0,0,.28-.69,1,1,0,0,0-1-1,.93.93,0,0,0-.69.29A.86.86,0,0,0,121.87,211.39Z"/><path class="cls-1" d="M133.09,219.18v6q0,.84-1.08.84t-1.08-.84V218.9a7.57,7.57,0,0,1,.38-3,4,4,0,0,1,.72-1c.51-.47,1.8-.7,3.86-.7a6.62,6.62,0,0,1,2.08.21.76.76,0,0,1,.53.76,1.13,1.13,0,0,1-.29.83,1,1,0,0,1-.74.27l-1.58-.1a6.88,6.88,0,0,0-1.84.14,1.47,1.47,0,0,0-.54.27,1.79,1.79,0,0,0-.26.54,3,3,0,0,0-.15.84C133.09,218.24,133.09,218.65,133.09,219.18Z"/><path class="cls-1" d="M150.1,226a3,3,0,0,1-2.28-.7,3.55,3.55,0,0,1-.65-2.41v-6.6h-1.51c-.49,0-.73-.32-.73-.95s.24-1,.73-1h1.51v-3.06c0-.55.36-.83,1.08-.83s1.08.28,1.08.83v3.06h3c.49,0,.73.31.73,1s-.24.95-.73.95h-3v6.76c0,.65.39,1,1.17,1l2-.12q.75,0,.75.87a1.12,1.12,0,0,1-.77,1.15C152,226,151.2,226,150.1,226Z"/><path class="cls-1" d="M164.43,223.94c.5,0,.74.29.74.89a1,1,0,0,1-.74,1.08,19.2,19.2,0,0,1-3.9.28,6.64,6.64,0,0,1-3.92-.89,3.54,3.54,0,0,1-1.2-3v-4.4a3.42,3.42,0,0,1,1.08-3,7.45,7.45,0,0,1,4-.76,7.54,7.54,0,0,1,4,.72c.69.49,1,1.49,1,3v1.9a1.33,1.33,0,0,1-.32.92,1,1,0,0,1-.81.32h-6.81v1.41c0,1.18,1,1.77,3.08,1.76a18.17,18.17,0,0,0,2.34-.14A11.28,11.28,0,0,1,164.43,223.94Zm-6.86-6v1.24h5.79v-1.24a1.53,1.53,0,0,0-.59-1.4,4.93,4.93,0,0,0-2.29-.36,5.17,5.17,0,0,0-2.29.34A1.48,1.48,0,0,0,157.57,217.92Z"/><path class="cls-1" d="M175.52,222.47v-.27a.89.89,0,0,0-.56-.83,5,5,0,0,0-2-.26,11.62,11.62,0,0,1-3.09-.43,2.55,2.55,0,0,1-1.41-1,3.12,3.12,0,0,1-.56-1.93v-.19a2.84,2.84,0,0,1,1.2-2.7,7.54,7.54,0,0,1,3.68-.7,15.43,15.43,0,0,1,3.66.32,1,1,0,0,1,.74,1.08c0,.59-.25.89-.74.89a12.51,12.51,0,0,1-1.51-.16,16.58,16.58,0,0,0-2.4-.16,6.12,6.12,0,0,0-1.88.21c-.4.14-.6.54-.6,1.18v.23c0,.85.89,1.3,2.68,1.36.74,0,1.48.09,2.23.18a3.38,3.38,0,0,1,1.9.84,2.47,2.47,0,0,1,.78,2v.29a3.23,3.23,0,0,1-1.22,2.94,7.55,7.55,0,0,1-3.93.78,16.79,16.79,0,0,1-3.88-.31,1,1,0,0,1-.74-1.08c0-.59.25-.89.74-.89a15.77,15.77,0,0,1,1.7.16,21.06,21.06,0,0,0,2.46.15,5.11,5.11,0,0,0,2-.32A1.39,1.39,0,0,0,175.52,222.47Z"/><path class="cls-1" d="M184.45,226a3,3,0,0,1-2.28-.7,3.55,3.55,0,0,1-.65-2.41v-6.6H180c-.48,0-.72-.32-.72-.95s.24-1,.72-1h1.52v-3.06c0-.55.36-.83,1.08-.83s1.08.28,1.08.83v3.06h3c.49,0,.73.31.73,1s-.24.95-.73.95h-3v6.76c0,.65.39,1,1.17,1l2-.12q.75,0,.75.87a1.11,1.11,0,0,1-.78,1.15C186.35,226,185.54,226,184.45,226Z"/><path class="cls-1" d="M197.76,210.79v3.71a15.78,15.78,0,0,1,3-.31,12.67,12.67,0,0,1,2.26.16,2.74,2.74,0,0,1,2.4,2.17,12.77,12.77,0,0,1,.21,2.61v6q0,.84-1.08.84c-.72,0-1.08-.28-1.08-.85v-5.79a13.85,13.85,0,0,0-.09-1.82,1.44,1.44,0,0,0-.5-.95,1.68,1.68,0,0,0-.84-.38c-.3,0-.81-.05-1.53-.05a20.28,20.28,0,0,0-2.76.24v8.75c0,.57-.36.85-1.07.85s-1.08-.28-1.08-.84V210.79q0-.87,1.08-.87C197.4,209.92,197.76,210.21,197.76,210.79Z"/><path class="cls-1" d="M218.3,223.94c.5,0,.74.29.74.89a1,1,0,0,1-.74,1.08,19.2,19.2,0,0,1-3.9.28,6.66,6.66,0,0,1-3.92-.89,3.54,3.54,0,0,1-1.2-3v-4.4a3.42,3.42,0,0,1,1.08-3,11.16,11.16,0,0,1,8,0c.69.49,1,1.49,1,3v1.9a1.33,1.33,0,0,1-.31.92,1.07,1.07,0,0,1-.82.32h-6.81v1.41c0,1.18,1,1.77,3.08,1.76a18.06,18.06,0,0,0,2.34-.14A11.28,11.28,0,0,1,218.3,223.94Zm-6.86-6v1.24h5.79v-1.24a1.53,1.53,0,0,0-.59-1.4,4.91,4.91,0,0,0-2.28-.36,5.19,5.19,0,0,0-2.3.34A1.5,1.5,0,0,0,211.44,217.92Z"/><path class="cls-1" d="M224.77,219.18v6c0,.56-.35.84-1.07.84s-1.07-.28-1.08-.84V218.9a7.57,7.57,0,0,1,.38-3,4.25,4.25,0,0,1,.71-1c.52-.47,1.8-.7,3.86-.7a6.7,6.7,0,0,1,2.09.21.76.76,0,0,1,.53.76,1.1,1.1,0,0,1-.3.83,1,1,0,0,1-.73.27l-1.59-.1a6.93,6.93,0,0,0-1.84.14,1.49,1.49,0,0,0-.53.27,1.79,1.79,0,0,0-.26.54,2.4,2.4,0,0,0-.15.84C224.78,218.24,224.77,218.65,224.77,219.18Z"/></svg>