<svg id="Layer_1" data-name="Layer 1" xmlns="http://www.w3.org/2000/svg" viewBox="0 0 1250 240"><defs><style>.cls-1{fill:#d4ac76;}</style></defs><title>text</title><path class="cls-1" d="M1054.77,127.36a6.3,6.3,0,0,1-8.46,0,5.5,5.5,0,0,1-1.67-4.09v-10h2.9v9.6a3.58,3.58,0,0,0,.8,2.39,2.75,2.75,0,0,0,2.2.93,2.79,2.79,0,0,0,2.21-.92,3.51,3.51,0,0,0,.79-2.36v-9.64h2.9v10A5.46,5.46,0,0,1,1054.77,127.36Z"/><path class="cls-1" d="M1061.22,128.75V113.29h5.55a5.26,5.26,0,0,1,5.37,5.34,4.87,4.87,0,0,1-1.57,3.72,5.36,5.36,0,0,1-3.85,1.48h-2.6v4.92Zm5.3-12.68h-2.4v5.18h2.44a2.72,2.72,0,0,0,1.94-.69,2.39,2.39,0,0,0,.74-1.85,2.51,2.51,0,0,0-.76-1.9A2.69,2.69,0,0,0,1066.52,116.07Z"/><path class="cls-1" d="M1076,128.75V113.29h5.55a5.26,5.26,0,0,1,5.37,5.34,4.87,4.87,0,0,1-1.57,3.72,5.36,5.36,0,0,1-3.85,1.48h-2.6v4.92Zm5.3-12.68h-2.4v5.18h2.44a2.72,2.72,0,0,0,1.94-.69,2.39,2.39,0,0,0,.74-1.85,2.51,2.51,0,0,0-.76-1.9A2.69,2.69,0,0,0,1081.3,116.07Z"/><path class="cls-1" d="M1089.32,116.07v-2.78h12.74v2.78h-4.92v12.68h-2.9V116.07Z"/><path class="cls-1" d="M1102.2,128.75l6-15.46h2.62l5.94,15.46h-3l-.82-2.14H1106l-.83,2.14Zm5.94-17a1.26,1.26,0,0,1-1,.41,1.28,1.28,0,0,1-1-.41,1.38,1.38,0,0,1,1-2.37,1.28,1.28,0,0,1,.94.4,1.35,1.35,0,0,1,.39,1A1.41,1.41,0,0,1,1108.14,111.7Zm1.34,5.92L1107,124h4.93Zm3.26-5.92a1.44,1.44,0,0,1-1,.41,1.42,1.42,0,0,1-1-.41,1.3,1.3,0,0,1-.43-1,1.28,1.28,0,0,1,.43-1,1.41,1.41,0,0,1,1-.4,1.43,1.43,0,0,1,1,.4,1.3,1.3,0,0,1,.42,1A1.32,1.32,0,0,1,1112.74,111.7Z"/><path class="cls-1" d="M1132.44,126.57a7.68,7.68,0,0,1-5.73,2.44,7.83,7.83,0,0,1-5.71-2.34,8,8,0,0,1,0-11.34,7.79,7.79,0,0,1,5.7-2.34,7.7,7.7,0,0,1,5.71,2.4l-2,2a4.82,4.82,0,0,0-3.67-1.6,4.93,4.93,0,0,0-3.66,1.53,5.34,5.34,0,0,0,0,7.4,4.94,4.94,0,0,0,3.67,1.53,4.87,4.87,0,0,0,3.7-1.62Z"/><path class="cls-1" d="M1136.24,128.75V113.29h2.68v6.82l5.92-6.82h3.58l-5.45,6.17,5.57,9.29h-3.34l-4.21-7.06-2.07,2.34v4.72Z"/><path class="cls-1" d="M1074.11,150.75V135.29h2.8l4.78,7.62,4.84-7.62h3v15.46h-2.9V140.17l-.23,0-4.8,7.4-4.67-7.31h0v10.52Z"/><path class="cls-1" d="M1103.13,144.21h-5.72v4h6.28v2.58h-9.18V135.29h9v2.58h-6.1v3.76h5.72Z"/><path class="cls-1" d="M1108,150.75V135.29h6a5.27,5.27,0,0,1,3.73,1.4,4.82,4.82,0,0,1,1.48,3.67,4.63,4.63,0,0,1-1.11,3.13,5,5,0,0,1-2.88,1.65l4.15,5.61h-3.26l-4-5.52h-1.25v5.52Zm5.6-12.88h-2.7v5h2.7a2.85,2.85,0,0,0,2-.69,2.29,2.29,0,0,0,.75-1.78,2.4,2.4,0,0,0-.77-1.83A2.75,2.75,0,0,0,1113.59,137.87Z"/></svg>