<svg id="Layer_1" data-name="Layer 1" xmlns="http://www.w3.org/2000/svg" viewBox="0 0 980 240"><defs><style>.cls-1{fill:#d80201;}</style></defs><title>text</title><path class="cls-1" d="M411.61,110.7l-21.92-25V110h-7V73.17h4.86l21.92,25.06V74h7V110.7Z"/><path class="cls-1" d="M430.51,122.53h-7.4l8.59-16L420.63,86.62h7.61l7,13.28L442,86.62h7.45Z"/><path class="cls-1" d="M468.58,110V97.2c0-3.24-.7-5.78-4.48-5.78-4.05,0-5,3.14-5,6.59v12H452.6V69.55h6.53V89.64a8.51,8.51,0,0,1,7.34-3.78,9,9,0,0,1,6.81,2.86c1.67,2,1.83,4.16,1.83,6.59V110Z"/><path class="cls-1" d="M486.83,99.36c.11,3.62,1.84,6.27,5.72,6.27a6.13,6.13,0,0,0,5.57-3.14l6.05,1c-2.06,5-6.21,7.29-11.51,7.29-7.56,0-12.53-4.86-12.53-12.48,0-7.45,4.76-12.42,12.26-12.42,7.72,0,11.94,5.19,11.94,12.64v.86Zm5.67-8.85a5.3,5.3,0,0,0-5.45,4.69h11.07C497.47,92.29,495.58,90.51,492.5,90.51Z"/><path class="cls-1" d="M515.94,92.23V110H509.4V92.23h-2.59V86.62h2.59v-8h6.54v8h4.59v5.61Z"/><path class="cls-1" d="M527.55,110.7a4.21,4.21,0,1,1,4.21-4.21A4.22,4.22,0,0,1,527.55,110.7Zm-3.35-11V74h6.69V99.69Z"/><path class="cls-1" d="M379.43,168l10.63-12c2.92-3.3,8.27-8.75,8.27-13.34a5.39,5.39,0,0,0-5.46-5.35c-3.56,0-5.24,2.65-5.34,5.94H380c.49-7.29,5.24-12.15,12.64-12.15,6.75,0,12.69,4.43,12.69,11.56,0,5-3.3,9.13-6.54,12.58l-6.26,6.7h13.07V168Z"/><path class="cls-1" d="M409.13,158.33v-5.5h12.15v5.5Z"/><path class="cls-1" d="M427.59,138.68a3.95,3.95,0,1,1,3.89-3.94A3.92,3.92,0,0,1,427.59,138.68ZM424.3,168V144.62h6.53V168Z"/><path class="cls-1" d="M453,168V155c0-3.19-.7-5.62-4.43-5.62-4.05,0-5,3-5,6.48V168H437V144.62h6.53v2.86c2.16-2.48,4-3.62,7.35-3.62a9,9,0,0,1,6.8,2.81c1.67,1.94,1.84,4.05,1.84,6.48V168Z"/><path class="cls-1" d="M462.64,158.33v-5.5h12.15v5.5Z"/><path class="cls-1" d="M487.05,168V138.14h-5.19V132h12.21v36Z"/><path class="cls-1" d="M538,168V155.2c0-3.24-.7-5.78-4.48-5.78-4,0-5,3.14-5,6.59v12H522V127.55h6.53v20.09a8.52,8.52,0,0,1,7.35-3.78,9,9,0,0,1,6.8,2.86c1.67,1.95,1.83,4.16,1.83,6.59V168Z"/><path class="cls-1" d="M562.1,168.76c-6.42,0-11.28-2.87-11.28-9.83V144.62h6.53v13.23c0,3.18,1.35,5.34,4.75,5.34s4.76-2.16,4.76-5.34V144.62h6.58v14.31C573.44,165.89,568.53,168.76,562.1,168.76Z"/><path class="cls-1" d="M587.16,168.76a12.43,12.43,0,0,1-8.91-3.89l3.46-4a7.56,7.56,0,0,0,5.5,2.76,2.76,2.76,0,0,0,3-2.6c0-4-10.42-2-10.42-9.88,0-4.75,3.94-7.4,8.37-7.4a12.06,12.06,0,0,1,7.62,2.49l-3.24,3.83a6.55,6.55,0,0,0-3.89-1.56c-1.14,0-2.49.7-2.49,2,0,3.41,10.8,1.89,10.8,9.89C596.93,165.84,592.18,168.76,587.16,168.76Z"/><path class="cls-1" d="M617.62,168l-8.81-10-.7.7V168h-6.53V127.55h6.53v25.6l8.75-8.53h8.86l-11,10.26L626.58,168Z"/><path class="cls-1" d="M646.13,168v-3.08a9,9,0,0,1-7.62,3.84c-7,0-11.5-5.84-11.5-12.53,0-6.54,4.48-12.37,11.34-12.37a9.76,9.76,0,0,1,7.78,3.73v-3h6.59V168Zm-5.84-18.25a6.56,6.56,0,1,0,6.54,6.53A6.52,6.52,0,0,0,640.29,149.75Z"/><path class="cls-1" d="M665.57,150.23V168H659V150.23h-2.59v-5.61H659v-8h6.54v8h4.59v5.61Z"/><path class="cls-1" d="M691.43,168v-3.08a9,9,0,0,1-7.61,3.84c-7,0-11.5-5.84-11.5-12.53,0-6.54,4.48-12.37,11.34-12.37a9.73,9.73,0,0,1,7.77,3.73v-3H698V168Zm-5.83-18.25a6.56,6.56,0,1,0,6.53,6.53A6.51,6.51,0,0,0,685.6,149.75Z"/><path class="cls-1" d="M704.28,168V127.55h6.54V168Z"/><path class="cls-1" d="M729.23,168.76c-7.45,0-13.39-4.65-13.39-12.42s5.94-12.48,13.45-12.48,13.28,4.7,13.28,12.42S736.63,168.76,729.23,168.76Zm-.05-19a6.56,6.56,0,1,0,6.64,6.59A6.62,6.62,0,0,0,729.18,149.75Z"/><path class="cls-1" d="M769.3,176.48a12.76,12.76,0,0,1-9.94,4.1c-6,0-11.77-3.45-12.42-9.83H754a5.2,5.2,0,0,0,5.56,4.27c4.1,0,5.78-2.86,5.78-6.64v-3.51c-2.22,2.54-4.48,3.89-7.89,3.89-6.91,0-11.12-5.57-11.12-12.15s4.32-12.75,11.45-12.75a8.76,8.76,0,0,1,7.56,3.78v-3H772v22.52C772,170.81,771.78,173.56,769.3,176.48Zm-9.67-26.73a6.56,6.56,0,1,0,6.54,6.53A6.52,6.52,0,0,0,759.63,149.75Z"/></svg>