<svg id="Layer_1" data-name="Layer 1" xmlns="http://www.w3.org/2000/svg" viewBox="0 0 300 250"><defs><style>.cls-1{fill:#d4ac76;}</style></defs><title>text</title><path class="cls-1" d="M203.92,170.46a5.48,5.48,0,0,0,.2-1.22c0-.53-.59-.86-1.52-.86h-.92c-.2,0-.27-.13-.23-.26l.13-.76c0-.2.16-.2.43-.2h2.51c.89,0,1.74,0,2.6-.06s1.75,0,2.61,0,3.66,0,5.41,1.09a4.07,4.07,0,0,1,2,3.5c0,4-3.56,5.74-6.86,6.34-.13,0-.13.06-.07.13,3.1.79,4.89,2.57,4.89,5.35a5.49,5.49,0,0,1-1.85,3.92c-1.26,1.13-3.3,2-7.33,2-1.58,0-3.23-.1-4.82-.1s-3.1.1-4.62.1c-.2,0-.33-.06-.26-.33l.13-.72a.25.25,0,0,1,.26-.27h1.19c1.12,0,1.65-.72,2-1.94Zm-.39,15.45c-.27,1-.27,1.58.33,1.91a4.79,4.79,0,0,0,2,.4,5.1,5.1,0,0,0,5.28-5.35c0-3.43-3.23-4.29-5.28-4.36h-.39Zm2.24-8.65a7.64,7.64,0,0,0,1.65.13c3,0,5.94-1.58,6-5.48a4,4,0,0,0-4.16-3.69,5.88,5.88,0,0,0-1.06.06Z"/><path class="cls-1" d="M227.05,186c.17.1.17.16.1.29a7.44,7.44,0,0,1-5.87,3.3,3.16,3.16,0,0,1-3.5-3.49,12.33,12.33,0,0,1,4.09-8.52,7.74,7.74,0,0,1,4.95-2.05,2.08,2.08,0,0,1,2.31,2c0,1.68-1.12,3.2-3,4.26a12.54,12.54,0,0,1-4.82,1.39,7.8,7.8,0,0,0-.33,2.44,1.91,1.91,0,0,0,1.78,2.11,4.64,4.64,0,0,0,3.56-2c.07-.07.2-.13.27-.07Zm-5.51-3.93a6.73,6.73,0,0,0,3.3-1.25,3.61,3.61,0,0,0,1.39-2.51c0-.6-.27-1.19-1-1.19C223.59,177.13,221.94,180.3,221.54,182.08Z"/><path class="cls-1" d="M232.17,189.6c-2.18,0-3.3-.79-3.3-1.91a1.29,1.29,0,0,1,1.25-1.39,1.69,1.69,0,0,1,1.59,1.32c.19.53.46.86,1,.86.93,0,1.65-.72,1.65-2.11.07-1.12-.79-2.08-1.48-3.27s-1.29-1.94-1.22-3.33c0-2.11,1.78-4.23,4.88-4.23,1.12,0,2.58.47,2.58,1.85a1.3,1.3,0,0,1-2.58.27c-.13-.4-.26-.93-.79-.93s-1.39.46-1.39,1.92c0,1.12,1.16,2.47,1.52,3a5.83,5.83,0,0,1,1.25,3.56C237.18,187.76,235.14,189.6,232.17,189.6Z"/><path class="cls-1" d="M244.28,185a8.32,8.32,0,0,0-.6,1.92.55.55,0,0,0,.6.59c.76,0,2.8-1.65,3-1.85s.2-.13.33,0l.37.4c.13.07.13.13.06.26-.39.53-3.37,3.3-6.34,3.3-1,0-1.38-.52-1.38-1a6,6,0,0,1,.33-1.84l3.5-9.05H241.7c-.19,0-.26-.06-.19-.33l.26-.86c.07-.19.13-.26.33-.26h2.54l1.36-3.5c.13-.33.26-.39.85-.46a7.4,7.4,0,0,0,2.25-.86,3,3,0,0,1,.53-.2c.19,0,.33.33.19.66l-2.14,4.36h3.4c.13,0,.2.13.13.33l-.26,1c0,.13-.14.16-.33.16h-3.44Z"/><path class="cls-1" d="M264.28,175.48c.2,0,.26.13.2.33-.6,1.38-2.18,5.61-2.45,6.47-.13.59-1.38,4.42-1.38,4.82s.13.39.39.39c.47,0,1.79-1.58,2-1.91.13-.13.2-.2.33-.1l.4.3q.09.09,0,.39c-.33.66-2.64,3.43-5.22,3.43-.72,0-1.06-.33-1.06-.85s.2-1.19,1.39-4.62l-.2-.07c-1.38,2.05-4.09,5.54-6.8,5.54a2.38,2.38,0,0,1-2-2.37c0-4.42,4.62-11.69,9-11.69a2.84,2.84,0,0,1,2.51,1.13l.53-.93a.59.59,0,0,1,.53-.26Zm-4.95,5.81a6.71,6.71,0,0,0,.79-3,1.62,1.62,0,0,0-1.52-1.46c-.86,0-1.85.8-2.7,2a14.36,14.36,0,0,0-2.78,7.42c0,.73.27,1.06.8,1.06C255.17,187.36,258.73,182.54,259.33,181.29ZM256.42,170a1.59,1.59,0,0,1,3.17.14,1.39,1.39,0,0,1-1.52,1.38A1.47,1.47,0,0,1,256.42,170Zm5.22,0a1.59,1.59,0,0,1,3.17.14,1.39,1.39,0,0,1-1.52,1.38A1.47,1.47,0,0,1,261.64,170Z"/><path class="cls-1" d="M271.77,170.2c.43-1.16.39-2-.6-2h-1.05c-.13,0-.17-.1-.13-.26l.19-.76c0-.1.1-.16.27-.16h5.08c.3,0,.36.19.26.49l-6.66,18c-.33.86-.66,2,0,2s2-1.25,2.37-1.71c.14-.07.2-.07.33.06l.4.33a.3.3,0,0,1,0,.4c-.13.2-3,3-5.87,3a1.17,1.17,0,0,1-1.13-1.18,20.37,20.37,0,0,1,1.06-3.3Z"/><path class="cls-1" d="M280.28,170.2c.43-1.16.4-2-.59-2h-1.06c-.13,0-.16-.1-.13-.26l.2-.76c0-.1.1-.16.26-.16H284c.3,0,.37.19.27.49l-6.67,18c-.33.86-.66,2,0,2s2-1.25,2.38-1.71c.13-.07.2-.07.33.06l.39.33c.07.13.14.2,0,.4s-3,3-5.87,3a1.16,1.16,0,0,1-1.12-1.18,20.2,20.2,0,0,1,1.05-3.3Z"/></svg>