<svg id="Layer_1" data-name="Layer 1" xmlns="http://www.w3.org/2000/svg" viewBox="0 0 320 320"><defs><style>.cls-1{fill:#d80201;}</style></defs><title>text</title><path class="cls-1" d="M51.34,131.27v19.39H46.79V131.27H41.58v-4h15v4Z"/><path class="cls-1" d="M67.83,139.36a3.74,3.74,0,0,0-2-.52c-2.87,0-3.64,2-3.64,4.55v7.28H57.92V135.51h4.24v2.28a4.94,4.94,0,0,1,6.27-2.42Z"/><path class="cls-1" d="M82.11,150.67v-2a5.86,5.86,0,0,1-4.94,2.49c-4.55,0-7.46-3.78-7.46-8.12s2.91-8,7.35-8a6.32,6.32,0,0,1,5,2.42v-1.93h4.27v15.16Zm-3.78-11.83a4.25,4.25,0,1,0,4.24,4.24A4.23,4.23,0,0,0,78.33,138.84Zm-.59-6a3.15,3.15,0,0,1,0-6.3,3.15,3.15,0,0,1,0,6.3Zm0-4.38A1.23,1.23,0,1,0,79,129.7,1.2,1.2,0,0,0,77.73,128.47Z"/><path class="cls-1" d="M100.8,150.67v-8.4c0-2.07-.46-3.64-2.87-3.64-2.63,0-3.26,1.93-3.26,4.2v7.84H90.44V135.51h4.24v1.86A5.59,5.59,0,0,1,99.43,135a5.23,5.23,0,0,1,5.6,6v9.63Z"/><path class="cls-1" d="M123.16,156.16a8.26,8.26,0,0,1-6.44,2.66c-3.89,0-7.63-2.24-8.05-6.37h4.59a3.37,3.37,0,0,0,3.61,2.77c2.66,0,3.75-1.85,3.75-4.31v-2.28a6.3,6.3,0,0,1-5.11,2.52c-4.48,0-7.21-3.61-7.21-7.88s2.8-8.26,7.42-8.26a5.68,5.68,0,0,1,4.9,2.45v-2h4.27v14.6C124.88,152.49,124.77,154.27,123.16,156.16Zm-6.27-17.33a4.25,4.25,0,1,0,4.24,4.24A4.23,4.23,0,0,0,116.9,138.84Z"/><path class="cls-1" d="M138.14,151.16a6,6,0,0,1-5-2.49v2h-4.24V124.45h4.24v13a6.43,6.43,0,0,1,5.08-2.42c4.45,0,7.39,3.78,7.39,8S142.69,151.16,138.14,151.16ZM137,138.84a4.25,4.25,0,1,0,4.24,4.24A4.23,4.23,0,0,0,137,138.84Z"/><path class="cls-1" d="M156.73,151.16c-4.83,0-8.68-3-8.68-8.05s3.85-8.09,8.72-8.09,8.61,3,8.61,8.05S161.52,151.16,156.73,151.16Zm0-12.32a4.25,4.25,0,1,0,4.31,4.27A4.29,4.29,0,0,0,156.69,138.84Z"/><path class="cls-1" d="M180.21,150.67v-2a5.86,5.86,0,0,1-4.94,2.49c-4.55,0-7.46-3.78-7.46-8.12s2.91-8,7.35-8a6.32,6.32,0,0,1,5,2.42v-13h4.27v26.22Zm-3.78-11.83a4.25,4.25,0,1,0,4.24,4.24A4.23,4.23,0,0,0,176.43,138.84Z"/><path class="cls-1" d="M200.13,150.67v-2a5.86,5.86,0,0,1-4.94,2.49c-4.55,0-7.46-3.78-7.46-8.12s2.91-8,7.35-8a6.32,6.32,0,0,1,5,2.42v-13h4.27v26.22Zm-3.78-11.83a4.25,4.25,0,1,0,4.24,4.24A4.23,4.23,0,0,0,196.35,138.84Z"/><path class="cls-1" d="M220,150.67v-2a5.86,5.86,0,0,1-4.94,2.49c-4.55,0-7.46-3.78-7.46-8.12s2.91-8,7.35-8a6.32,6.32,0,0,1,5,2.42v-1.93h4.27v15.16Zm-3.78-11.83a4.25,4.25,0,1,0,4.24,4.24A4.23,4.23,0,0,0,216.26,138.84Z"/><path class="cls-1" d="M247.48,150.67v-8.4c0-2.07-.46-3.64-2.87-3.64-2.63,0-3.26,1.93-3.26,4.2v7.84h-4.24V135.51h4.24v1.86a5.59,5.59,0,0,1,4.76-2.35,5.23,5.23,0,0,1,5.6,6v9.63Z"/><path class="cls-1" d="M267.36,150.67v-2a5.86,5.86,0,0,1-4.94,2.49c-4.55,0-7.46-3.78-7.46-8.12s2.91-8,7.35-8a6.32,6.32,0,0,1,5,2.42v-1.93h4.27v15.16Zm-7.32-18a2.52,2.52,0,1,1,0-5,2.52,2.52,0,1,1,0,5Zm3.54,6.16a4.25,4.25,0,1,0,4.24,4.24A4.23,4.23,0,0,0,263.58,138.84Zm3.75-6.16a2.55,2.55,0,0,1-2.52-2.52,2.52,2.52,0,1,1,2.52,2.52Z"/><path class="cls-1" d="M285.59,139.36a3.75,3.75,0,0,0-2-.52c-2.87,0-3.64,2-3.64,4.55v7.28h-4.24V135.51h4.24v2.28a4.94,4.94,0,0,1,6.27-2.42Z"/><path class="cls-1" d="M47.74,176.15v11.52H43.5V176.15H41.86v-3.64H43.5v-4.87a7.38,7.38,0,0,1,.67-3.57,6,6,0,0,1,5.25-3,5,5,0,0,1,2.24.53v3.88a4.23,4.23,0,0,0-1.93-.56c-1.89,0-2,2-2,3.4v4.24h3.92v3.64Z"/><path class="cls-1" d="M65.2,187.67v-2a5.85,5.85,0,0,1-4.94,2.49c-4.55,0-7.46-3.78-7.46-8.12s2.91-8,7.35-8a6.32,6.32,0,0,1,5,2.42v-1.92h4.27v15.16Zm-3.78-11.83a4.25,4.25,0,1,0,4.24,4.24A4.23,4.23,0,0,0,61.42,175.83Z"/><path class="cls-1" d="M92.89,187.67v-8.3c0-1.79-.28-3.75-2.52-3.75-2.49,0-2.91,2.28-2.91,4.27v7.77H83.23v-8.05a6.76,6.76,0,0,0-.31-2.52,2.45,2.45,0,0,0-2.28-1.47A2.76,2.76,0,0,0,78.26,177a6.29,6.29,0,0,0-.49,2.91v7.77H73.53V172.51h4.24v1.71A5.82,5.82,0,0,1,82.39,172a5.15,5.15,0,0,1,4.73,2.77,5.6,5.6,0,0,1,5-2.77,5,5,0,0,1,4.24,2.17,6.68,6.68,0,0,1,.81,3.68v9.8Z"/><path class="cls-1" d="M103.25,168.66a2.56,2.56,0,1,1,0-5.11,2.56,2.56,0,0,1,0,5.11Zm-2.13,19V172.51h4.24v15.16Z"/><path class="cls-1" d="M109.34,187.67V161.45h4.24v26.22Z"/><path class="cls-1" d="M119.7,168.66a2.56,2.56,0,1,1,0-5.11,2.56,2.56,0,0,1,0,5.11Zm-2.13,27.09V172.51h4.24v23.24Z"/><path class="cls-1" d="M129.32,180.77c.07,2.35,1.19,4.06,3.71,4.06a4,4,0,0,0,3.61-2l3.92.63c-1.33,3.26-4,4.73-7.46,4.73-4.9,0-8.12-3.15-8.12-8.09s3.08-8.05,7.95-8.05,7.74,3.36,7.74,8.19v.56ZM133,175a3.44,3.44,0,0,0-3.54,3h7.18A3.51,3.51,0,0,0,133,175Z"/><path class="cls-1" d="M154.28,187.67v-8.4c0-2.07-.46-3.64-2.87-3.64-2.63,0-3.26,1.92-3.26,4.2v7.84h-4.24V172.51h4.24v1.86a5.59,5.59,0,0,1,4.76-2.35,5.24,5.24,0,0,1,5.6,6v9.63Z"/><path class="cls-1" d="M179,188h-2l-7.74-15.47h4.76l4,8.54,4-8.54h4.76Z"/><path class="cls-1" d="M200.48,187.67v-2a5.86,5.86,0,0,1-4.94,2.49c-4.55,0-7.46-3.78-7.46-8.12s2.91-8,7.35-8a6.32,6.32,0,0,1,5,2.42v-1.92h4.27v15.16Zm-7.32-18a2.52,2.52,0,1,1,0-5,2.52,2.52,0,1,1,0,5Zm3.54,6.16a4.25,4.25,0,1,0,4.24,4.24A4.23,4.23,0,0,0,196.7,175.83Zm3.75-6.16a2.55,2.55,0,0,1-2.52-2.52,2.52,2.52,0,1,1,2.52,2.52Z"/><path class="cls-1" d="M221,187.67l-4.34-5.29-4.41,5.29h-5.46l7.21-8.26-5.81-6.9h5.36l3.12,3.92,3.19-3.92h5.39l-6,6.9,7.11,8.26Z"/><path class="cls-1" d="M231.21,180.77c.07,2.35,1.19,4.06,3.71,4.06a4,4,0,0,0,3.61-2l3.92.63c-1.33,3.26-4,4.73-7.46,4.73-4.9,0-8.12-3.15-8.12-8.09s3.08-8.05,7.95-8.05,7.74,3.36,7.74,8.19v.56Zm3.68-5.74a3.44,3.44,0,0,0-3.54,3h7.18A3.51,3.51,0,0,0,234.88,175Z"/><path class="cls-1" d="M255.71,176.36a3.74,3.74,0,0,0-2-.53c-2.87,0-3.64,2-3.64,4.55v7.28H245.8V172.51H250v2.28a4.94,4.94,0,0,1,6.27-2.42Z"/><path class="cls-1" d="M266.28,176.88v3H262V173.7a7,7,0,0,0,1.23.14c2.13,0,4.41-1.08,4.41-3.5a2.63,2.63,0,0,0-2.7-2.7,2.48,2.48,0,0,0-2.52,2.49c0,.14,0,.28,0,.42h-4.55v-.42c0-3.82,3.57-6.27,7.14-6.27,3.75,0,7.07,2.69,7.07,6.58C272.09,174,269.5,176.12,266.28,176.88Zm-2.07,11.24a2.73,2.73,0,1,1,2.73-2.73A2.74,2.74,0,0,1,264.21,188.12Z"/></svg>