<svg id="Layer_1" data-name="Layer 1" xmlns="http://www.w3.org/2000/svg" viewBox="0 0 320 320"><defs><style>.cls-1{fill:#d80201;}</style></defs><title>text</title><path class="cls-1" d="M94.62,194H92.48l-8.8-21.21h4.4l5.52,13.89,5.58-13.89h4.37Z"/><path class="cls-1" d="M107.24,176.66a2.26,2.26,0,0,1,0-4.52,2.26,2.26,0,0,1,0,4.52Zm-1.89,16.84V180.08h3.75V193.5Z"/><path class="cls-1" d="M112.63,193.5V170.28h3.76V193.5Z"/><path class="cls-1" d="M120,193.5V170.28h3.75V193.5Z"/><path class="cls-1" d="M137.59,193.5v-1.77a5.17,5.17,0,0,1-4.37,2.2c-4,0-6.61-3.34-6.61-7.19s2.58-7.1,6.52-7.1a5.57,5.57,0,0,1,4.46,2.14v-1.7h3.78V193.5ZM134.24,183a3.77,3.77,0,1,0,3.75,3.75A3.74,3.74,0,0,0,134.24,183Z"/><path class="cls-1" d="M151.79,193.78h-1.74l-6.85-13.7h4.22l3.53,7.56,3.53-7.56h4.22Z"/><path class="cls-1" d="M162.36,176.66a2.26,2.26,0,1,1,0-4.52,2.26,2.26,0,0,1,0,4.52Zm-1.89,16.84V180.08h3.75V193.5Z"/><path class="cls-1" d="M172,193.93a7.15,7.15,0,0,1-5.12-2.23l2-2.29a4.34,4.34,0,0,0,3.16,1.58,1.59,1.59,0,0,0,1.71-1.49c0-2.29-6-1.15-6-5.67,0-2.73,2.26-4.25,4.81-4.25A6.92,6.92,0,0,1,177,181l-1.86,2.21a3.73,3.73,0,0,0-2.23-.9c-.65,0-1.43.4-1.43,1.15,0,1.95,6.2,1.08,6.2,5.67C177.64,192.26,174.91,193.93,172,193.93Z"/><path class="cls-1" d="M189.48,193.5v-7.44c0-1.83-.4-3.23-2.54-3.23-2.33,0-2.88,1.71-2.88,3.73v6.94h-3.75V180.08h3.75v1.64a4.94,4.94,0,0,1,4.21-2.08,4.63,4.63,0,0,1,5,5.33v8.53Z"/><path class="cls-1" d="M198.66,176.66a2.26,2.26,0,1,1,0-4.52,2.26,2.26,0,0,1,0,4.52Zm-1.89,16.84V180.08h3.75V193.5Z"/><path class="cls-1" d="M213.23,193.5v-7.44c0-1.83-.4-3.23-2.54-3.23-2.33,0-2.89,1.71-2.89,3.73v6.94h-3.75V180.08h3.75v1.64a5,5,0,0,1,4.22-2.08,4.63,4.63,0,0,1,5,5.33v8.53Z"/><path class="cls-1" d="M233,198.37a7.34,7.34,0,0,1-5.71,2.35c-3.44,0-6.76-2-7.13-5.64h4.06a3,3,0,0,0,3.2,2.45c2.35,0,3.31-1.64,3.31-3.81v-2a5.56,5.56,0,0,1-4.52,2.23c-4,0-6.39-3.19-6.39-7s2.48-7.32,6.57-7.32a5,5,0,0,1,4.34,2.17v-1.73h3.79V193C234.56,195.11,234.46,196.69,233,198.37ZM227.49,183a3.77,3.77,0,1,0,3.75,3.75A3.74,3.74,0,0,0,227.49,183Z"/><path class="cls-1" d="M43.57,224a8.56,8.56,0,0,1-6.79,3A8.43,8.43,0,0,1,30,224a8.93,8.93,0,0,1-1.52-5.52V205.82h4v11.84a7,7,0,0,0,.65,3.72,4.16,4.16,0,0,0,3.63,1.93,4.28,4.28,0,0,0,3.63-1.93,6.66,6.66,0,0,0,.65-3.72V205.82h4v12.65A8.74,8.74,0,0,1,43.57,224Z"/><path class="cls-1" d="M57.49,226.93a5.36,5.36,0,0,1-4.5-2.2v8.93H49.24V213.08H53v1.7a5.34,5.34,0,0,1,4.4-2.14c4,0,6.64,3.32,6.64,7.16S61.42,226.93,57.49,226.93ZM56.37,216a3.77,3.77,0,1,0,3.75,3.75A3.74,3.74,0,0,0,56.37,216Z"/><path class="cls-1" d="M75.13,226.93a5.36,5.36,0,0,1-4.5-2.2v8.93H66.88V213.08h3.75v1.7a5.34,5.34,0,0,1,4.4-2.14c4,0,6.64,3.32,6.64,7.16S79.06,226.93,75.13,226.93ZM74,216a3.77,3.77,0,1,0,3.75,3.75A3.74,3.74,0,0,0,74,216Z"/><path class="cls-1" d="M84.52,226.5V203.28h3.75V226.5Z"/><path class="cls-1" d="M95,220.39c.07,2.08,1.06,3.6,3.29,3.6a3.5,3.5,0,0,0,3.19-1.8l3.48.56c-1.18,2.88-3.57,4.18-6.61,4.18-4.34,0-7.19-2.79-7.19-7.16s2.73-7.13,7-7.13,6.85,3,6.85,7.26v.49Zm3.26-5.08A3,3,0,0,0,95.12,218h6.35A3.1,3.1,0,0,0,98.25,215.31Z"/><path class="cls-1" d="M114.06,226.78h-1.74l-6.85-13.7h4.22l3.53,7.56,3.54-7.56H121Z"/><path class="cls-1" d="M150.3,226.5l-1.83-12.74-5.7,13h-1.12l-5.49-13-2.07,12.74H130l3.85-21.05h2.76L142.27,219l5.89-13.52h2.76l3.44,21.05Z"/><path class="cls-1" d="M168,227a10.73,10.73,0,0,1-11-10.76A11.06,11.06,0,1,1,168,227ZM168,209a7.14,7.14,0,1,0,6.92,7.1A7,7,0,0,0,168,209Z"/><path class="cls-1" d="M190.51,227h-2.14l-8.81-21.21H184l5.52,13.89,5.58-13.89h4.38Z"/><path class="cls-1" d="M201.88,226.5V205.82h11.44v3.5h-7.41v4.59H213v3.51h-7.13V223h7.41v3.5Z"/><path class="cls-1" d="M240.73,214.56H237.6l-.44,2.79h3.16l-.52,3.38h-3.16l-.94,5.77h-3.87l.93-5.77h-2.85l-.9,5.77h-3.85l.93-5.77H222.9l.53-3.38h3.19l.43-2.79h-3.16l.53-3.41h3.16l.84-5.33h3.84l-.86,5.33h2.85l.83-5.33H239l-.84,5.33h3.13Zm-9.86,0-.44,2.79h2.86l.43-2.79Z"/><path class="cls-1" d="M249.37,227c-3.84,0-7.22-2.48-7.44-6.48H246a3.37,3.37,0,1,0,3.51-3.63,6.32,6.32,0,0,0-.75.06v-2.91a3.57,3.57,0,0,0,.56,0,2.81,2.81,0,1,0,.1-5.61c-1.77,0-2.61,1.08-2.83,2.72h-3.81c.59-3.9,3-5.92,6.91-5.92,3.45,0,6.3,2.05,6.3,5.71a4.61,4.61,0,0,1-2.39,4.4,5.09,5.09,0,0,1,3.16,5.09C256.75,224.7,253.31,227,249.37,227Z"/><path class="cls-1" d="M267.54,227c-5.7,0-8-6-8-10.85s2.26-10.89,8-10.89,8,6,8,10.85S273.28,227,267.54,227Zm0-18.17c-3.16,0-4,4.9-4,7.28s.81,7.35,4,7.35,4-5,4-7.35S270.7,208.86,267.54,208.86Z"/><path class="cls-1" d="M281.12,227.09l-3.23-1.92,9.46-15.82h-9.58v-3.53h15.94Z"/></svg>