<svg id="Layer_1" data-name="Layer 1" xmlns="http://www.w3.org/2000/svg" viewBox="0 0 1232.63 177.24"><defs><style>.cls-1{fill:#d80201;}.cls-2{fill:#fff;}</style></defs><title>text</title><path class="cls-1" d="M1112,130.19a12.11,12.11,0,0,1-12.46-12.14A12.48,12.48,0,1,1,1112,130.19Zm0-20.23a8.05,8.05,0,1,0,7.81,8A7.92,7.92,0,0,0,1112,110Zm-3.92-6.2a2.56,2.56,0,0,1-2.52-2.52,2.53,2.53,0,0,1,2.52-2.48,2.5,2.5,0,1,1,0,5Zm7.84,0a2.56,2.56,0,0,1-2.52-2.52,2.53,2.53,0,0,1,2.52-2.48,2.5,2.5,0,1,1,0,5Z" transform="translate(-26.14 -98.76)"/><path class="cls-1" d="M1137.35,130.16a6.06,6.06,0,0,1-5.07-2.49v10.08H1128V114.51h4.24v1.93a6,6,0,0,1,5-2.42c4.51,0,7.49,3.75,7.49,8.09S1141.8,130.16,1137.35,130.16Zm-1.26-12.32a4.25,4.25,0,1,0,4.24,4.23A4.23,4.23,0,0,0,1136.09,117.84Z" transform="translate(-26.14 -98.76)"/><path class="cls-1" d="M1157.27,130.16a6.07,6.07,0,0,1-5.08-2.49v10.08H1148V114.51h4.23v1.93a6,6,0,0,1,5-2.42c4.52,0,7.49,3.75,7.49,8.09S1161.71,130.16,1157.27,130.16ZM1156,117.84a4.25,4.25,0,1,0,4.23,4.23A4.23,4.23,0,0,0,1156,117.84Z" transform="translate(-26.14 -98.76)"/><path class="cls-1" d="M1171.41,122.77c.07,2.35,1.19,4.06,3.71,4.06a4,4,0,0,0,3.6-2l3.92.63c-1.33,3.26-4,4.73-7.45,4.73-4.9,0-8.12-3.15-8.12-8.09s3.08-8,7.94-8c5,0,7.74,3.36,7.74,8.19v.56Zm3.67-5.74a3.44,3.44,0,0,0-3.53,3h7.17A3.51,3.51,0,0,0,1175.08,117Z" transform="translate(-26.14 -98.76)"/><path class="cls-1" d="M1190.27,118.15v11.52H1186V118.15h-1.68v-3.64H1186v-5.18h4.23v5.18h3v3.64Z" transform="translate(-26.14 -98.76)"/><path class="cls-1" d="M1214.6,129.67l-5.71-6.51-.45.45v6.06h-4.24V103.45h4.24V120l5.67-5.53h5.74l-7.11,6.65,7.67,8.51Z" transform="translate(-26.14 -98.76)"/><path class="cls-1" d="M1230.17,130.16c-4.83,0-8.68-3-8.68-8s3.85-8.09,8.72-8.09,8.61,3,8.61,8S1235,130.16,1230.17,130.16Zm-3.67-18.49a2.52,2.52,0,1,1,0-5,2.52,2.52,0,0,1,0,5Zm3.64,6.17a4.25,4.25,0,1,0,4.3,4.27A4.28,4.28,0,0,0,1230.14,117.84Zm3.64-6.17a2.55,2.55,0,0,1-2.52-2.52,2.52,2.52,0,1,1,2.52,2.52Z" transform="translate(-26.14 -98.76)"/><path class="cls-1" d="M1251.38,130.16a6.08,6.08,0,0,1-5.08-2.49v10.08h-4.23V114.51h4.23v1.93a6.07,6.07,0,0,1,5-2.42c4.51,0,7.49,3.75,7.49,8.09S1255.83,130.16,1251.38,130.16Zm-1.26-12.32a4.25,4.25,0,1,0,4.24,4.23A4.23,4.23,0,0,0,1250.12,117.84Z" transform="translate(-26.14 -98.76)"/><path class="cls-1" d="M1114,161c-2.27,2.45-5.84,2.06-8.89,2.06v8.65h-4.55V148.32h6.79c2.31,0,4.34.17,6.16,1.78a7.44,7.44,0,0,1,2.38,5.64A7.66,7.66,0,0,1,1114,161Zm-4-8a5.43,5.43,0,0,0-3.32-.74h-1.58v6.8H1107c2.27,0,4.23-.74,4.23-3.36A3.44,3.44,0,0,0,1110.05,153Z" transform="translate(-26.14 -98.76)"/><path class="cls-1" d="M1128.57,160.36a3.8,3.8,0,0,0-2-.52c-2.87,0-3.64,2-3.64,4.55v7.28h-4.24V156.51h4.24v2.28a4.86,4.86,0,0,1,4.41-2.77,4.94,4.94,0,0,1,1.85.35Z" transform="translate(-26.14 -98.76)"/><path class="cls-1" d="M1133.33,152.66a2.56,2.56,0,1,1,0-5.11,2.56,2.56,0,0,1,0,5.11Zm-2.14,19V156.51h4.24v15.16Z" transform="translate(-26.14 -98.76)"/><path class="cls-1" d="M1144.25,172.16a8.1,8.1,0,0,1-5.78-2.52l2.24-2.59a5,5,0,0,0,3.57,1.78,1.79,1.79,0,0,0,1.93-1.68c0-2.59-6.76-1.29-6.76-6.4,0-3.08,2.56-4.8,5.43-4.8a7.78,7.78,0,0,1,4.93,1.61l-2.1,2.49a4.21,4.21,0,0,0-2.52-1c-.73,0-1.61.46-1.61,1.3,0,2.2,7,1.22,7,6.4C1150.58,170.27,1147.5,172.16,1144.25,172.16Z" transform="translate(-26.14 -98.76)"/><path class="cls-1" d="M1167.66,177.16a8.26,8.26,0,0,1-6.44,2.66c-3.88,0-7.63-2.24-8-6.37h4.59a3.36,3.36,0,0,0,3.6,2.77c2.66,0,3.75-1.86,3.75-4.31v-2.27a6.33,6.33,0,0,1-5.11,2.52c-4.48,0-7.21-3.61-7.21-7.88s2.8-8.26,7.42-8.26a5.68,5.68,0,0,1,4.9,2.45v-2h4.27v14.6C1169.38,173.49,1169.27,175.27,1167.66,177.16Zm-6.26-17.32a4.25,4.25,0,1,0,4.23,4.23A4.23,4.23,0,0,0,1161.4,159.84Z" transform="translate(-26.14 -98.76)"/><path class="cls-1" d="M1185,171.67v-2a5.84,5.84,0,0,1-4.93,2.49c-4.55,0-7.46-3.78-7.46-8.12s2.91-8,7.35-8a6.3,6.3,0,0,1,5,2.42v-1.93h4.27v15.16Zm-3.78-11.83a4.25,4.25,0,1,0,4.24,4.23A4.23,4.23,0,0,0,1181.24,159.84Z" transform="translate(-26.14 -98.76)"/><path class="cls-1" d="M1203.26,160.36a3.8,3.8,0,0,0-2-.52c-2.87,0-3.64,2-3.64,4.55v7.28h-4.24V156.51h4.24v2.28A4.86,4.86,0,0,1,1202,156a4.94,4.94,0,0,1,1.85.35Z" transform="translate(-26.14 -98.76)"/><path class="cls-1" d="M1217.54,171.67v-2a5.86,5.86,0,0,1-4.94,2.49c-4.55,0-7.46-3.78-7.46-8.12s2.91-8,7.36-8a6.31,6.31,0,0,1,5,2.42v-1.93h4.27v15.16Zm-3.78-11.83a4.25,4.25,0,1,0,4.23,4.23A4.23,4.23,0,0,0,1213.76,159.84Z" transform="translate(-26.14 -98.76)"/><path class="cls-1" d="M1236.22,171.67v-8.4c0-2.07-.45-3.64-2.87-3.64-2.62,0-3.25,1.92-3.25,4.2v7.84h-4.24V156.51h4.24v1.86a5.57,5.57,0,0,1,4.76-2.35,5.23,5.23,0,0,1,5.6,6v9.63Z" transform="translate(-26.14 -98.76)"/><path class="cls-1" d="M1248.79,160.15v11.52h-4.24V160.15h-1.68v-3.64h1.68v-5.18h4.24v5.18h3v3.64Z" transform="translate(-26.14 -98.76)"/><path class="cls-1" d="M1256,152.66a2.56,2.56,0,0,1,0-5.11,2.56,2.56,0,0,1,0,5.11Zm-2.13,19V156.51h4.23v15.16Z" transform="translate(-26.14 -98.76)"/><path class="cls-1" d="M1111.86,213.67H1104V190.32h5.78c1.89,0,4.2.17,5.71,1.4a6.24,6.24,0,0,1,2.1,4.79,4.9,4.9,0,0,1-2.56,4.7,5.29,5.29,0,0,1,3,1.47,6.28,6.28,0,0,1,1.68,4.37C1119.77,211.71,1116.06,213.67,1111.86,213.67Zm-2-19.64h-1.33v6h1.3c2,0,3.54-.8,3.54-3S1111.92,194,1109.89,194Zm.78,9.49h-2.11V210h2c2.24,0,4.55-.52,4.55-3.25S1112.83,203.52,1110.67,203.52Z" transform="translate(-26.14 -98.76)"/><path class="cls-1" d="M1126.83,206.77c.07,2.35,1.19,4.06,3.71,4.06a4,4,0,0,0,3.61-2l3.92.63c-1.33,3.26-4,4.73-7.45,4.73-4.91,0-8.13-3.15-8.13-8.09s3.08-8,8-8,7.74,3.36,7.74,8.19v.56Zm3.68-5.74a3.44,3.44,0,0,0-3.54,3.05h7.18A3.52,3.52,0,0,0,1130.51,201Z" transform="translate(-26.14 -98.76)"/><path class="cls-1" d="M1145.7,202.15v11.52h-4.24V202.15h-1.68v-3.64h1.68v-5.18h4.24v5.18h3v3.64Z" transform="translate(-26.14 -98.76)"/><path class="cls-1" d="M1162.46,213.67v-2a5.84,5.84,0,0,1-4.93,2.49c-4.55,0-7.46-3.78-7.46-8.12s2.91-8,7.35-8a6.3,6.3,0,0,1,5,2.42v-1.93h4.27v15.16Zm-3.78-11.83a4.25,4.25,0,1,0,4.24,4.23A4.23,4.23,0,0,0,1158.68,201.84Z" transform="translate(-26.14 -98.76)"/><path class="cls-1" d="M1170.79,213.67V187.45H1175v26.22Z" transform="translate(-26.14 -98.76)"/><path class="cls-1" d="M1190.67,213.67v-2a5.84,5.84,0,0,1-4.93,2.49c-4.55,0-7.46-3.78-7.46-8.12s2.91-8,7.35-8a6.3,6.3,0,0,1,5,2.42v-1.93h4.27v15.16Zm-3.78-11.83a4.25,4.25,0,1,0,4.24,4.23A4.23,4.23,0,0,0,1186.89,201.84Z" transform="translate(-26.14 -98.76)"/><path class="cls-1" d="M1212.58,214.16a8.06,8.06,0,0,1-5.77-2.52l2.24-2.59a4.92,4.92,0,0,0,3.57,1.78,1.78,1.78,0,0,0,1.92-1.68c0-2.59-6.75-1.29-6.75-6.4,0-3.08,2.55-4.8,5.42-4.8a7.83,7.83,0,0,1,4.94,1.61l-2.1,2.49a4.26,4.26,0,0,0-2.52-1c-.74,0-1.61.46-1.61,1.3,0,2.2,7,1.22,7,6.4C1218.92,212.27,1215.84,214.16,1212.58,214.16Z" transform="translate(-26.14 -98.76)"/><path class="cls-1" d="M1225.46,206.77c.07,2.35,1.19,4.06,3.71,4.06a4,4,0,0,0,3.61-2l3.92.63c-1.33,3.26-4,4.73-7.46,4.73-4.9,0-8.12-3.15-8.12-8.09s3.08-8,8-8,7.73,3.36,7.73,8.19v.56Zm3.68-5.74a3.44,3.44,0,0,0-3.54,3.05h7.18A3.52,3.52,0,0,0,1229.14,201Z" transform="translate(-26.14 -98.76)"/><path class="cls-1" d="M1250.42,213.67v-8.4c0-2.07-.46-3.64-2.87-3.64-2.63,0-3.26,1.92-3.26,4.2v7.84h-4.23V198.51h4.23v1.86a5.57,5.57,0,0,1,4.76-2.35,5.23,5.23,0,0,1,5.6,6v9.63Z" transform="translate(-26.14 -98.76)"/><rect class="cls-1" x="735.86" y="153.24" width="148.67" height="24" rx="12"/><path class="cls-2" d="M790.44,268.67l-3.33-4.19-.21.21v4h-1.82v-9.35h1.82v3.95l3.43-3.95h2.3l-4,4.32,4.16,5Z" transform="translate(-26.14 -98.76)"/><path class="cls-2" d="M798,268.88a4.85,4.85,0,0,1-5-4.86,5,5,0,1,1,5,4.86Zm0-8.1a3.22,3.22,0,1,0,3.12,3.21A3.17,3.17,0,0,0,798,260.78Z" transform="translate(-26.14 -98.76)"/><path class="cls-2" d="M813.29,268.67l-.82-5.76-2.58,5.88h-.51l-2.47-5.88-.94,5.76h-1.84l1.74-9.51h1.25l2.55,6.1,2.66-6.1h1.24l1.56,9.51Z" transform="translate(-26.14 -98.76)"/><path class="cls-2" d="M820.29,268.67v-9.35h1.82v9.35Z" transform="translate(-26.14 -98.76)"/><path class="cls-2" d="M833.1,265.43a4.31,4.31,0,0,1-4.42,3.45,4.72,4.72,0,0,1-4.91-4.86,4.8,4.8,0,0,1,5-4.91,4.46,4.46,0,0,1,4,2.2l-1.58.86a2.75,2.75,0,0,0-2.44-1.39,3.09,3.09,0,0,0-3.07,3.24,3.05,3.05,0,0,0,3.07,3.2,2.31,2.31,0,0,0,2.44-2H829v-1.57h4.28v.22A7.88,7.88,0,0,1,833.1,265.43Z" transform="translate(-26.14 -98.76)"/><path class="cls-2" d="M840.9,268.67l-.8-2h-3.81l-.85,2H833.5l4-9.54h1.37l3.94,9.54Zm-2.68-6.81-1.35,3.36h2.67Zm0-3.45a1.3,1.3,0,1,1,1.3-1.3A1.3,1.3,0,0,1,838.18,258.41Zm0-1.83a.53.53,0,0,0-.53.53.53.53,0,0,0,.53.53.52.52,0,0,0,.53-.53A.53.53,0,0,0,838.18,256.58Z" transform="translate(-26.14 -98.76)"/><path class="cls-2" d="M851.46,268.85l-5.69-6.5v6.32H844v-9.56h1.26l5.69,6.5v-6.29h1.82v9.53Z" transform="translate(-26.14 -98.76)"/><path class="cls-2" d="M863.71,265.43a4.32,4.32,0,0,1-4.43,3.45,4.71,4.71,0,0,1-4.9-4.86,4.8,4.8,0,0,1,5-4.91,4.45,4.45,0,0,1,4,2.2l-1.58.86a2.75,2.75,0,0,0-2.44-1.39,3.09,3.09,0,0,0-3.07,3.24,3.05,3.05,0,0,0,3.07,3.2,2.3,2.3,0,0,0,2.44-2h-2.2v-1.57h4.29v.22A8.73,8.73,0,0,1,863.71,265.43Z" transform="translate(-26.14 -98.76)"/><polygon class="cls-2" points="856.86 166.41 847.03 166.41 847.03 163.91 856.86 163.91 856.86 160.12 863.86 165.16 856.86 169.99 856.86 166.41"/><path class="cls-1" d="M79.48,148.57a6.22,6.22,0,0,1-5.25,2.66A7.93,7.93,0,0,1,68.77,149l2.76-3.32A2.72,2.72,0,0,0,73.77,147c2.56,0,2.35-2.8,2.35-4.62V127.32h4.55v15.75A10,10,0,0,1,79.48,148.57Z" transform="translate(-26.14 -98.76)"/><path class="cls-1" d="M92.71,151.16c-4.17,0-7.32-1.86-7.32-6.37v-9.28h4.24v8.58c0,2.06.87,3.46,3.08,3.46s3.08-1.4,3.08-3.46v-8.58h4.27v9.28C100.06,149.3,96.88,151.16,92.71,151.16Z" transform="translate(-26.14 -98.76)"/><path class="cls-1" d="M109,151.16a8.1,8.1,0,0,1-5.78-2.52l2.24-2.59a5,5,0,0,0,3.57,1.78,1.79,1.79,0,0,0,1.93-1.68c0-2.59-6.76-1.29-6.76-6.41,0-3.08,2.56-4.79,5.43-4.79a7.78,7.78,0,0,1,4.93,1.61l-2.1,2.48a4.2,4.2,0,0,0-2.52-1c-.73,0-1.61.45-1.61,1.29,0,2.21,7,1.23,7,6.41C115.28,149.27,112.2,151.16,109,151.16Z" transform="translate(-26.14 -98.76)"/><path class="cls-1" d="M122.56,139.15v11.52h-4.23V139.15h-1.68v-3.64h1.68v-5.18h4.23v5.18h3v3.64Z" transform="translate(-26.14 -98.76)"/><path class="cls-1" d="M146.85,150.67v-8.4c0-2.07-.45-3.65-2.87-3.65-2.62,0-3.25,1.93-3.25,4.21v7.84h-4.24V135.51h4.24v1.85a5.59,5.59,0,0,1,4.76-2.34,5.23,5.23,0,0,1,5.6,6v9.63Z" transform="translate(-26.14 -98.76)"/><path class="cls-1" d="M162.46,151.16c-4.16,0-7.31-1.86-7.31-6.37v-9.28h4.23v8.58c0,2.06.88,3.46,3.08,3.46s3.08-1.4,3.08-3.46v-8.58h4.27v9.28C169.81,149.3,166.63,151.16,162.46,151.16Z" transform="translate(-26.14 -98.76)"/><path class="cls-1" d="M202,150.67v-8.3c0-1.79-.28-3.75-2.52-3.75-2.49,0-2.91,2.28-2.91,4.28v7.77h-4.23v-8a6.71,6.71,0,0,0-.32-2.53,2.46,2.46,0,0,0-2.27-1.47,2.76,2.76,0,0,0-2.38,1.37,6.22,6.22,0,0,0-.49,2.91v7.77h-4.24V135.51h4.24v1.71a5.82,5.82,0,0,1,4.62-2.2,5.14,5.14,0,0,1,4.72,2.76,5.6,5.6,0,0,1,5-2.76,5,5,0,0,1,4.24,2.17,6.65,6.65,0,0,1,.8,3.67v9.81Z" transform="translate(-26.14 -98.76)"/><path class="cls-1" d="M213.81,143.77c.07,2.35,1.19,4.06,3.71,4.06a4,4,0,0,0,3.6-2l3.92.63c-1.33,3.26-4,4.73-7.45,4.73-4.9,0-8.12-3.15-8.12-8.09s3.08-8,7.94-8c5,0,7.74,3.36,7.74,8.19v.56Zm3.67-5.74a3.44,3.44,0,0,0-3.53,3.05h7.17A3.51,3.51,0,0,0,217.48,138Z" transform="translate(-26.14 -98.76)"/><path class="cls-1" d="M240,150.67v-2a5.86,5.86,0,0,1-4.94,2.49c-4.55,0-7.45-3.78-7.45-8.12s2.9-8,7.35-8a6.33,6.33,0,0,1,5,2.41v-13h4.27v26.22Zm-3.78-11.84a4.26,4.26,0,1,0,4.23,4.24A4.24,4.24,0,0,0,236.21,138.83Z" transform="translate(-26.14 -98.76)"/><path class="cls-1" d="M35.91,168.27v19.4H31.36v-19.4H26.14v-4h15v4Z" transform="translate(-26.14 -98.76)"/><path class="cls-1" d="M52.39,176.36a3.7,3.7,0,0,0-2-.53c-2.87,0-3.64,2-3.64,4.56v7.28H42.49V172.51h4.23v2.28A4.86,4.86,0,0,1,51.13,172a5,5,0,0,1,1.86.35Z" transform="translate(-26.14 -98.76)"/><path class="cls-1" d="M60.44,195.79H55.65l5.56-10.4L54,172.51H59l4.55,8.61,4.34-8.61h4.83Z" transform="translate(-26.14 -98.76)"/><path class="cls-1" d="M88.83,193.16a8.27,8.27,0,0,1-6.44,2.66c-3.89,0-7.64-2.24-8.06-6.37h4.59a3.38,3.38,0,0,0,3.61,2.77c2.66,0,3.74-1.86,3.74-4.31v-2.27a6.3,6.3,0,0,1-5.11,2.52c-4.48,0-7.21-3.61-7.21-7.88s2.8-8.26,7.42-8.26a5.68,5.68,0,0,1,4.9,2.45v-2h4.27v14.6C90.54,189.49,90.44,191.27,88.83,193.16Zm-6.27-17.33a4.26,4.26,0,1,0,4.24,4.24A4.23,4.23,0,0,0,82.56,175.83Z" transform="translate(-26.14 -98.76)"/><path class="cls-1" d="M108.67,193.16a8.26,8.26,0,0,1-6.44,2.66c-3.89,0-7.63-2.24-8-6.37h4.59a3.36,3.36,0,0,0,3.6,2.77c2.66,0,3.75-1.86,3.75-4.31v-2.27a6.33,6.33,0,0,1-5.11,2.52c-4.49,0-7.22-3.61-7.22-7.88s2.8-8.26,7.43-8.26a5.68,5.68,0,0,1,4.9,2.45v-2h4.27v14.6C110.39,189.49,110.28,191.27,108.67,193.16Zm-6.26-17.33a4.26,4.26,0,1,0,4.23,4.24A4.24,4.24,0,0,0,102.41,175.83Z" transform="translate(-26.14 -98.76)"/><path class="cls-1" d="M124.81,187.67v-8.3c0-2.1-.46-3.74-2.91-3.74-2.63,0-3.22,2-3.22,4.27v7.77h-4.24V161.45h4.24v13a5.53,5.53,0,0,1,4.76-2.45,5.75,5.75,0,0,1,4.41,1.86,6,6,0,0,1,1.19,4.27v9.52Z" transform="translate(-26.14 -98.76)"/><path class="cls-1" d="M136.63,180.77c.07,2.35,1.19,4.06,3.71,4.06a4,4,0,0,0,3.61-2l3.92.63c-1.33,3.26-4,4.73-7.46,4.73-4.9,0-8.12-3.15-8.12-8.09s3.08-8,8-8,7.74,3.36,7.74,8.19v.56Zm3.68-5.74a3.44,3.44,0,0,0-3.54,3.05H144A3.52,3.52,0,0,0,140.31,175Z" transform="translate(-26.14 -98.76)"/><path class="cls-1" d="M155.5,176.15v11.52h-4.24V176.15h-1.68v-3.64h1.68v-5.18h4.24v5.18h3v3.64Z" transform="translate(-26.14 -98.76)"/><path class="cls-1" d="M165.51,188.16a8.1,8.1,0,0,1-5.78-2.52l2.24-2.59a5,5,0,0,0,3.57,1.78,1.79,1.79,0,0,0,1.93-1.68c0-2.59-6.76-1.29-6.76-6.4,0-3.08,2.56-4.8,5.43-4.8a7.78,7.78,0,0,1,4.93,1.61L169,176a4.26,4.26,0,0,0-2.52-1c-.73,0-1.61.46-1.61,1.3,0,2.2,7,1.22,7,6.4C171.84,186.27,168.76,188.16,165.51,188.16Z" transform="translate(-26.14 -98.76)"/><path class="cls-1" d="M188.92,193.16a8.26,8.26,0,0,1-6.44,2.66c-3.88,0-7.63-2.24-8-6.37H179a3.36,3.36,0,0,0,3.6,2.77c2.66,0,3.75-1.86,3.75-4.31v-2.27a6.33,6.33,0,0,1-5.11,2.52c-4.48,0-7.21-3.61-7.21-7.88s2.8-8.26,7.42-8.26a5.68,5.68,0,0,1,4.9,2.45v-2h4.27v14.6C190.64,189.49,190.53,191.27,188.92,193.16Zm-6.26-17.33a4.26,4.26,0,1,0,4.23,4.24A4.24,4.24,0,0,0,182.66,175.83Z" transform="translate(-26.14 -98.76)"/><path class="cls-1" d="M206.28,187.67v-2a5.84,5.84,0,0,1-4.93,2.49c-4.55,0-7.46-3.78-7.46-8.12s2.91-8,7.35-8a6.32,6.32,0,0,1,5,2.41v-1.92h4.27v15.16Zm-3.78-11.84a4.26,4.26,0,1,0,4.24,4.24A4.23,4.23,0,0,0,202.5,175.83Z" transform="translate(-26.14 -98.76)"/><path class="cls-1" d="M224.52,176.36a3.72,3.72,0,0,0-2-.53c-2.87,0-3.64,2-3.64,4.56v7.28h-4.24V172.51h4.24v2.28a4.86,4.86,0,0,1,4.41-2.77,4.94,4.94,0,0,1,1.85.35Z" transform="translate(-26.14 -98.76)"/><path class="cls-1" d="M238.8,187.67v-2a5.86,5.86,0,0,1-4.94,2.49c-4.55,0-7.45-3.78-7.45-8.12s2.9-8,7.35-8a6.33,6.33,0,0,1,5,2.41v-1.92h4.27v15.16ZM235,175.83a4.26,4.26,0,1,0,4.23,4.24A4.24,4.24,0,0,0,235,175.83Z" transform="translate(-26.14 -98.76)"/><path class="cls-1" d="M257.49,187.67v-8.4c0-2.07-.46-3.64-2.87-3.64-2.63,0-3.26,1.92-3.26,4.2v7.84h-4.23V172.51h4.23v1.86a5.57,5.57,0,0,1,4.76-2.35,5.23,5.23,0,0,1,5.6,6v9.63Z" transform="translate(-26.14 -98.76)"/><path class="cls-1" d="M270.05,176.15v11.52h-4.23V176.15h-1.68v-3.64h1.68v-5.18h4.23v5.18h3v3.64Z" transform="translate(-26.14 -98.76)"/><path class="cls-1" d="M277.29,168.66a2.56,2.56,0,0,1,0-5.11,2.56,2.56,0,0,1,0,5.11Zm-2.13,19V172.51h4.24v15.16Z" transform="translate(-26.14 -98.76)"/><path class="cls-1" d="M285.73,188.12a2.73,2.73,0,1,1,2.73-2.73A2.73,2.73,0,0,1,285.73,188.12ZM283.56,181V164.32h4.34V181Z" transform="translate(-26.14 -98.76)"/></svg>