<svg id="Layer_1" data-name="Layer 1" xmlns="http://www.w3.org/2000/svg" viewBox="0 0 320 320"><defs><style>.cls-1{fill:#d80201;}.cls-2{fill:#fff;}</style></defs><title>text</title><rect class="cls-1" x="83" y="245" width="148.67" height="24" rx="12" ry="12"/><path class="cls-2" d="M107.9,253.91V256h2.93v1.58H107.9v4.1h-1.82v-9.34H111v1.58Z"/><path class="cls-2" d="M117.13,261.88a4.85,4.85,0,0,1-5-4.86,5,5,0,1,1,5,4.86Zm0-8.1a3.22,3.22,0,1,0,3.12,3.21A3.17,3.17,0,0,0,117.13,253.78Z"/><path class="cls-2" d="M128.37,261.67l-2.52-3.75h-.22v3.75H123.8v-9.34h2.7a3.85,3.85,0,0,1,2.38.67,2.72,2.72,0,0,1,.92,2.1,3.08,3.08,0,0,1-.53,1.71,2.41,2.41,0,0,1-1.6.92l2.94,3.94Zm-2.2-7.86h-.55v2.82h.52c.94,0,1.79-.34,1.79-1.41S127.11,253.81,126.17,253.81Z"/><path class="cls-2" d="M134.78,253.91v7.76H133v-7.76h-2.09v-1.58h6v1.58Z"/><path class="cls-2" d="M140.65,261.89a3.64,3.64,0,0,1-3.21-1.78l1.18-1.13a2.14,2.14,0,0,0,2,1.25,1.33,1.33,0,0,0,1.44-1.32c0-1.92-4.1-1-4.1-4a2.74,2.74,0,0,1,2.91-2.72,4.1,4.1,0,0,1,2.73,1l-1,1.25a1.89,1.89,0,0,0-1.51-.76c-.6,0-1.3.38-1.3,1.05,0,1.58,4.1.8,4.1,4.06A3,3,0,0,1,140.65,261.89Z"/><path class="cls-2" d="M151.83,261.67l-.8-2h-3.81l-.85,2h-1.93l4-9.54h1.37l3.94,9.54Zm-4.29-10.37a1,1,0,0,1-1-1,1,1,0,1,1,1,1Zm1.61,3.56-1.36,3.36h2.67Zm1.53-3.56a1,1,0,0,1-1-1,1,1,0,1,1,1,1Z"/><path class="cls-2" d="M157.36,253.91v7.76h-1.82v-7.76h-2.09v-1.58h6v1.58Z"/><path class="cls-2" d="M163.56,253.91v7.76h-1.82v-7.76h-2.09v-1.58h6v1.58Z"/><path class="cls-2" d="M177.85,261.85l-5.69-6.5v6.32h-1.82v-9.55h1.26l5.69,6.5v-6.29h1.82v9.52Z"/><path class="cls-2" d="M188.07,260.53a3.87,3.87,0,0,1-3.07,1.34,3.81,3.81,0,0,1-3.07-1.34,4,4,0,0,1-.69-2.49v-5.71h1.82v5.35a3.15,3.15,0,0,0,.29,1.68,1.88,1.88,0,0,0,1.64.87,1.93,1.93,0,0,0,1.64-.87,3,3,0,0,0,.29-1.68v-5.35h1.82V258A3.94,3.94,0,0,1,188.07,260.53Z"/><polygon class="cls-2" points="204 258.17 194.17 258.17 194.17 255.67 204 255.67 204 251.88 211 256.92 204 261.75 204 258.17"/></svg>