<svg id="Layer_1" data-name="Layer 1" xmlns="http://www.w3.org/2000/svg" viewBox="0 0 320 320"><defs><style>.cls-1{fill:#d80201;}</style></defs><title>text</title><path class="cls-1" d="M91,130.19a12.11,12.11,0,0,1-12.46-12.14A12.48,12.48,0,1,1,91,130.19ZM91,110a8.05,8.05,0,1,0,7.81,8A7.92,7.92,0,0,0,91,110Zm-3.92-6.2a2.56,2.56,0,0,1-2.52-2.52,2.53,2.53,0,0,1,2.52-2.48,2.5,2.5,0,1,1,0,5Zm7.84,0a2.56,2.56,0,0,1-2.52-2.52,2.53,2.53,0,0,1,2.52-2.48,2.5,2.5,0,1,1,0,5Z"/><path class="cls-1" d="M116.35,130.16a6.06,6.06,0,0,1-5.07-2.49v10.08H107V114.51h4.24v1.93a6,6,0,0,1,5-2.42c4.51,0,7.49,3.75,7.49,8.09S120.8,130.16,116.35,130.16Zm-1.26-12.32a4.25,4.25,0,1,0,4.24,4.23A4.23,4.23,0,0,0,115.09,117.84Z"/><path class="cls-1" d="M136.27,130.16a6.07,6.07,0,0,1-5.08-2.49v10.08H127V114.51h4.23v1.93a6,6,0,0,1,5-2.42c4.52,0,7.49,3.75,7.49,8.09S140.71,130.16,136.27,130.16ZM135,117.84a4.25,4.25,0,1,0,4.23,4.23A4.23,4.23,0,0,0,135,117.84Z"/><path class="cls-1" d="M150.41,122.77c.07,2.35,1.19,4.06,3.71,4.06a4,4,0,0,0,3.6-2l3.92.63c-1.33,3.26-4,4.73-7.45,4.73-4.9,0-8.12-3.15-8.12-8.09s3.08-8,7.94-8c5,0,7.74,3.36,7.74,8.19v.56Zm3.67-5.74a3.44,3.44,0,0,0-3.53,3h7.17A3.51,3.51,0,0,0,154.08,117Z"/><path class="cls-1" d="M169.27,118.15v11.52H165V118.15h-1.68v-3.64H165v-5.18h4.23v5.18h3v3.64Z"/><path class="cls-1" d="M193.6,129.67l-5.71-6.51-.45.45v6.06H183.2V103.45h4.24V120l5.67-5.53h5.74l-7.11,6.65,7.67,8.51Z"/><path class="cls-1" d="M209.17,130.16c-4.83,0-8.68-3-8.68-8s3.85-8.09,8.72-8.09,8.61,3,8.61,8S214,130.16,209.17,130.16Zm-3.67-18.49a2.52,2.52,0,1,1,0-5,2.52,2.52,0,1,1,0,5Zm3.64,6.17a4.25,4.25,0,1,0,4.3,4.27A4.28,4.28,0,0,0,209.14,117.84Zm3.64-6.17a2.55,2.55,0,0,1-2.52-2.52,2.52,2.52,0,1,1,2.52,2.52Z"/><path class="cls-1" d="M230.38,130.16a6.08,6.08,0,0,1-5.08-2.49v10.08h-4.23V114.51h4.23v1.93a6.07,6.07,0,0,1,5-2.42c4.51,0,7.49,3.75,7.49,8.09S234.83,130.16,230.38,130.16Zm-1.26-12.32a4.25,4.25,0,1,0,4.24,4.23A4.23,4.23,0,0,0,229.12,117.84Z"/><path class="cls-1" d="M93,161c-2.27,2.45-5.84,2.06-8.89,2.06v8.65H79.6V148.32h6.79c2.31,0,4.34.17,6.16,1.78a7.44,7.44,0,0,1,2.38,5.64A7.66,7.66,0,0,1,93,161Zm-4-8a5.43,5.43,0,0,0-3.32-.74H84.15v6.8H86c2.27,0,4.23-.74,4.23-3.36A3.44,3.44,0,0,0,89.05,153Z"/><path class="cls-1" d="M107.57,160.36a3.8,3.8,0,0,0-2-.52c-2.87,0-3.64,2-3.64,4.55v7.28H97.66V156.51h4.24v2.28a4.86,4.86,0,0,1,4.41-2.77,4.94,4.94,0,0,1,1.85.35Z"/><path class="cls-1" d="M112.33,152.66a2.56,2.56,0,1,1,0-5.11,2.56,2.56,0,0,1,0,5.11Zm-2.14,19V156.51h4.24v15.16Z"/><path class="cls-1" d="M123.25,172.16a8.1,8.1,0,0,1-5.78-2.52l2.24-2.59a5,5,0,0,0,3.57,1.78,1.79,1.79,0,0,0,1.93-1.68c0-2.59-6.76-1.29-6.76-6.4,0-3.08,2.56-4.8,5.43-4.8a7.78,7.78,0,0,1,4.93,1.61l-2.1,2.49a4.21,4.21,0,0,0-2.52-1c-.73,0-1.61.46-1.61,1.3,0,2.2,7,1.22,7,6.4C129.58,170.27,126.5,172.16,123.25,172.16Z"/><path class="cls-1" d="M146.66,177.16a8.26,8.26,0,0,1-6.44,2.66c-3.88,0-7.63-2.24-8.05-6.37h4.59a3.36,3.36,0,0,0,3.6,2.77c2.66,0,3.75-1.86,3.75-4.31v-2.27a6.33,6.33,0,0,1-5.11,2.52c-4.48,0-7.21-3.61-7.21-7.88s2.8-8.26,7.42-8.26a5.68,5.68,0,0,1,4.9,2.45v-2h4.27v14.6C148.38,173.49,148.27,175.27,146.66,177.16Zm-6.26-17.32a4.25,4.25,0,1,0,4.23,4.23A4.23,4.23,0,0,0,140.4,159.84Z"/><path class="cls-1" d="M164,171.67v-2a5.84,5.84,0,0,1-4.93,2.49c-4.55,0-7.46-3.78-7.46-8.12s2.91-8,7.35-8a6.3,6.3,0,0,1,5,2.42v-1.93h4.27v15.16Zm-3.78-11.83a4.25,4.25,0,1,0,4.24,4.23A4.23,4.23,0,0,0,160.24,159.84Z"/><path class="cls-1" d="M182.26,160.36a3.8,3.8,0,0,0-2-.52c-2.87,0-3.64,2-3.64,4.55v7.28h-4.24V156.51h4.24v2.28A4.86,4.86,0,0,1,181,156a4.94,4.94,0,0,1,1.85.35Z"/><path class="cls-1" d="M196.54,171.67v-2a5.86,5.86,0,0,1-4.94,2.49c-4.55,0-7.46-3.78-7.46-8.12s2.91-8,7.36-8a6.31,6.31,0,0,1,5,2.42v-1.93h4.27v15.16Zm-3.78-11.83a4.25,4.25,0,1,0,4.23,4.23A4.23,4.23,0,0,0,192.76,159.84Z"/><path class="cls-1" d="M215.22,171.67v-8.4c0-2.07-.45-3.64-2.87-3.64-2.62,0-3.25,1.92-3.25,4.2v7.84h-4.24V156.51h4.24v1.86a5.57,5.57,0,0,1,4.76-2.35,5.23,5.23,0,0,1,5.6,6v9.63Z"/><path class="cls-1" d="M227.79,160.15v11.52h-4.24V160.15h-1.68v-3.64h1.68v-5.18h4.24v5.18h3v3.64Z"/><path class="cls-1" d="M235,152.66a2.56,2.56,0,0,1,0-5.11,2.56,2.56,0,0,1,0,5.11Zm-2.13,19V156.51h4.23v15.16Z"/><path class="cls-1" d="M90.86,213.67H83V190.32h5.78c1.89,0,4.2.17,5.71,1.4a6.24,6.24,0,0,1,2.1,4.79,4.9,4.9,0,0,1-2.56,4.7,5.29,5.29,0,0,1,3,1.47,6.28,6.28,0,0,1,1.68,4.37C98.77,211.71,95.06,213.67,90.86,213.67Zm-2-19.64H87.56v6h1.3c2,0,3.54-.8,3.54-3S90.92,194,88.89,194Zm.78,9.49H87.56V210h2c2.24,0,4.55-.52,4.55-3.25S91.83,203.52,89.67,203.52Z"/><path class="cls-1" d="M105.83,206.77c.07,2.35,1.19,4.06,3.71,4.06a4,4,0,0,0,3.61-2l3.92.63c-1.33,3.26-4,4.73-7.45,4.73-4.91,0-8.13-3.15-8.13-8.09s3.08-8,8-8,7.74,3.36,7.74,8.19v.56Zm3.68-5.74a3.44,3.44,0,0,0-3.54,3.05h7.18A3.52,3.52,0,0,0,109.51,201Z"/><path class="cls-1" d="M124.7,202.15v11.52h-4.24V202.15h-1.68v-3.64h1.68v-5.18h4.24v5.18h3v3.64Z"/><path class="cls-1" d="M141.46,213.67v-2a5.84,5.84,0,0,1-4.93,2.49c-4.55,0-7.46-3.78-7.46-8.12s2.91-8,7.35-8a6.3,6.3,0,0,1,5,2.42v-1.93h4.27v15.16Zm-3.78-11.83a4.25,4.25,0,1,0,4.24,4.23A4.23,4.23,0,0,0,137.68,201.84Z"/><path class="cls-1" d="M149.79,213.67V187.45H154v26.22Z"/><path class="cls-1" d="M169.67,213.67v-2a5.84,5.84,0,0,1-4.93,2.49c-4.55,0-7.46-3.78-7.46-8.12s2.91-8,7.35-8a6.3,6.3,0,0,1,5,2.42v-1.93h4.27v15.16Zm-3.78-11.83a4.25,4.25,0,1,0,4.24,4.23A4.23,4.23,0,0,0,165.89,201.84Z"/><path class="cls-1" d="M191.58,214.16a8.06,8.06,0,0,1-5.77-2.52l2.24-2.59a4.92,4.92,0,0,0,3.57,1.78,1.78,1.78,0,0,0,1.92-1.68c0-2.59-6.75-1.29-6.75-6.4,0-3.08,2.55-4.8,5.42-4.8a7.83,7.83,0,0,1,4.94,1.61l-2.1,2.49a4.26,4.26,0,0,0-2.52-1c-.74,0-1.61.46-1.61,1.3,0,2.2,7,1.22,7,6.4C197.92,212.27,194.84,214.16,191.58,214.16Z"/><path class="cls-1" d="M204.46,206.77c.07,2.35,1.19,4.06,3.71,4.06a4,4,0,0,0,3.61-2l3.92.63c-1.33,3.26-4,4.73-7.46,4.73-4.9,0-8.12-3.15-8.12-8.09s3.08-8,7.95-8,7.73,3.36,7.73,8.19v.56Zm3.68-5.74a3.44,3.44,0,0,0-3.54,3.05h7.18A3.52,3.52,0,0,0,208.14,201Z"/><path class="cls-1" d="M229.42,213.67v-8.4c0-2.07-.46-3.64-2.87-3.64-2.63,0-3.26,1.92-3.26,4.2v7.84h-4.23V198.51h4.23v1.86a5.57,5.57,0,0,1,4.76-2.35,5.23,5.23,0,0,1,5.6,6v9.63Z"/></svg>