<svg id="Layer_1" data-name="Layer 1" xmlns="http://www.w3.org/2000/svg" viewBox="0 0 320 320"><defs><style>.cls-1{fill:#d80201;}</style></defs><title>text</title><path class="cls-1" d="M28,150.67V127.32H41v4H32.58v5.19h8.05v3.95H32.58v6.3H41v4Z"/><path class="cls-1" d="M56.9,150.67l-4.34-5.29-4.41,5.29H42.69l7.21-8.26-5.81-6.9h5.36l3.11,3.92,3.19-3.92h5.39l-6,6.9,7.1,8.26Z"/><path class="cls-1" d="M68.63,139.15v11.52H64.39V139.15H62.71v-3.64h1.68v-5.18h4.24v5.18h3v3.64Z"/><path class="cls-1" d="M83.71,139.36a3.78,3.78,0,0,0-2-.52c-2.87,0-3.64,2-3.64,4.55v7.28H73.81V135.51H78v2.28A4.86,4.86,0,0,1,82.45,135a5,5,0,0,1,1.86.35Z"/><path class="cls-1" d="M98,150.67v-2a5.84,5.84,0,0,1-4.93,2.49c-4.55,0-7.46-3.78-7.46-8.12s2.91-8,7.35-8a6.3,6.3,0,0,1,5,2.42v-1.93h4.27v15.16Zm-3.78-11.83a4.25,4.25,0,1,0,4.24,4.23A4.23,4.23,0,0,0,94.21,138.84Z"/><path class="cls-1" d="M124.28,151.16a6,6,0,0,1-5-2.49v2h-4.24V124.45h4.24v13a6.41,6.41,0,0,1,5.07-2.42c4.45,0,7.39,3.78,7.39,8S128.83,151.16,124.28,151.16Zm-1.16-12.32a4.25,4.25,0,1,0,4.24,4.23A4.23,4.23,0,0,0,123.12,138.84Z"/><path class="cls-1" d="M144.89,139.36a3.78,3.78,0,0,0-2-.52c-2.87,0-3.64,2-3.64,4.55v7.28H135V135.51h4.23v2.28a4.86,4.86,0,0,1,4.41-2.77,5,5,0,0,1,1.86.35Z"/><path class="cls-1" d="M159.17,150.67v-2a5.84,5.84,0,0,1-4.93,2.49c-4.55,0-7.46-3.78-7.46-8.12s2.91-8,7.35-8a6.3,6.3,0,0,1,5,2.42v-1.93h4.27v15.16Zm-3.78-11.83a4.25,4.25,0,1,0,4.24,4.23A4.23,4.23,0,0,0,155.39,138.84Z"/><path class="cls-1" d="M187.84,150.67v-2a5.86,5.86,0,0,1-4.94,2.49c-4.55,0-7.45-3.78-7.45-8.12s2.9-8,7.35-8a6.31,6.31,0,0,1,5,2.42v-13h4.27v26.22Zm-3.78-11.83a4.25,4.25,0,1,0,4.23,4.23A4.23,4.23,0,0,0,184.06,138.84Z"/><path class="cls-1" d="M199.7,143.77c.07,2.35,1.19,4.06,3.71,4.06a4,4,0,0,0,3.61-2l3.92.63c-1.33,3.26-4,4.73-7.46,4.73-4.9,0-8.12-3.15-8.12-8.09s3.08-8,7.95-8,7.73,3.36,7.73,8.19v.56Zm3.68-5.74a3.44,3.44,0,0,0-3.54,3.05H207A3.52,3.52,0,0,0,203.38,138Z"/><path class="cls-1" d="M225.88,150.67v-2a5.84,5.84,0,0,1-4.93,2.49c-4.55,0-7.46-3.78-7.46-8.12s2.91-8,7.35-8a6.3,6.3,0,0,1,5,2.42v-1.93h4.27v15.16Zm-3.78-11.83a4.25,4.25,0,1,0,4.24,4.23A4.23,4.23,0,0,0,222.1,138.84Z"/><path class="cls-1" d="M234.21,150.67V124.45h4.23v26.22Z"/><path class="cls-1" d="M255.63,139.15v11.52h-4.24V139.15h-1.64v-3.64h1.64v-4.86a7.36,7.36,0,0,1,.67-3.58,6,6,0,0,1,5.25-3,5,5,0,0,1,2.24.52v3.89a4.18,4.18,0,0,0-1.93-.56c-1.89,0-2,2-2,3.39v4.24h3.92v3.64Z"/><path class="cls-1" d="M269.38,151.16c-4.83,0-8.68-3-8.68-8s3.85-8.09,8.72-8.09,8.61,3,8.61,8S274.18,151.16,269.38,151.16Zm-3.67-18.48a2.53,2.53,0,0,1,0-5.05,2.53,2.53,0,0,1,0,5.05Zm3.64,6.16a4.25,4.25,0,1,0,4.31,4.27A4.28,4.28,0,0,0,269.35,138.84Zm3.64-6.16a2.56,2.56,0,0,1-2.52-2.53,2.52,2.52,0,1,1,2.52,2.53Z"/><path class="cls-1" d="M291.19,139.36a3.8,3.8,0,0,0-2-.52c-2.87,0-3.64,2-3.64,4.55v7.28h-4.24V135.51h4.24v2.28a4.86,4.86,0,0,1,4.41-2.77,4.94,4.94,0,0,1,1.85.35Z"/><path class="cls-1" d="M39,187.67v-2A5.86,5.86,0,0,1,34,188.16c-4.55,0-7.45-3.78-7.45-8.12s2.9-8,7.35-8a6.31,6.31,0,0,1,5,2.42v-1.93h4.27v15.16Zm-3.78-11.83a4.25,4.25,0,1,0,4.23,4.23A4.23,4.23,0,0,0,35.17,175.84Z"/><path class="cls-1" d="M47.28,187.67V161.45h4.23v26.22Z"/><path class="cls-1" d="M55.57,187.67V161.45h4.24v26.22Z"/><path class="cls-1" d="M75.45,187.67v-2a5.84,5.84,0,0,1-4.93,2.49c-4.55,0-7.46-3.78-7.46-8.12s2.91-8,7.35-8a6.3,6.3,0,0,1,5,2.42v-1.93h4.27v15.16Zm-3.78-11.83a4.25,4.25,0,1,0,4.24,4.23A4.23,4.23,0,0,0,71.67,175.84Z"/><path class="cls-1" d="M102.89,187.67v-8.4c0-2.07-.45-3.64-2.87-3.64-2.62,0-3.25,1.92-3.25,4.2v7.84H92.53V172.51h4.24v1.86a5.57,5.57,0,0,1,4.76-2.35,5.23,5.23,0,0,1,5.6,6v9.63Z"/><path class="cls-1" d="M114.83,195.79H110l5.57-10.4-7.18-12.88h4.94l4.55,8.61,4.34-8.61h4.83Z"/><path class="cls-1" d="M139.89,187.67v-2a5.86,5.86,0,0,1-4.94,2.49c-4.55,0-7.45-3.78-7.45-8.12s2.9-8,7.35-8a6.31,6.31,0,0,1,5,2.42v-1.93h4.27v15.16Zm-3.78-11.83a4.25,4.25,0,1,0,4.23,4.23A4.23,4.23,0,0,0,136.11,175.84Z"/><path class="cls-1" d="M164.67,188h-2L155,172.51h4.76l4,8.54,4-8.54h4.76Z"/><path class="cls-1" d="M186.12,187.67v-2a5.84,5.84,0,0,1-4.93,2.49c-4.55,0-7.46-3.78-7.46-8.12s2.91-8,7.35-8a6.3,6.3,0,0,1,5,2.42v-1.93h4.27v15.16Zm-7.31-18a2.52,2.52,0,0,1,0-5,2.52,2.52,0,1,1,0,5Zm3.53,6.17a4.25,4.25,0,1,0,4.24,4.23A4.23,4.23,0,0,0,182.34,175.84Zm3.75-6.17a2.55,2.55,0,0,1-2.52-2.52,2.52,2.52,0,1,1,2.52,2.52Z"/><path class="cls-1" d="M204.81,187.67v-8.4c0-2.07-.45-3.64-2.87-3.64-2.62,0-3.25,1.92-3.25,4.2v7.84h-4.24V172.51h4.24v1.86a5.57,5.57,0,0,1,4.76-2.35,5.23,5.23,0,0,1,5.6,6v9.63Z"/><path class="cls-1" d="M223.47,187.67v-8.4c0-2.07-.46-3.64-2.87-3.64-2.63,0-3.26,1.92-3.26,4.2v7.84h-4.23V172.51h4.23v1.86A5.57,5.57,0,0,1,222.1,172a5.23,5.23,0,0,1,5.6,6v9.63Z"/><path class="cls-1" d="M235.3,180.77c.07,2.35,1.19,4.06,3.71,4.06a4,4,0,0,0,3.6-2l3.92.63c-1.33,3.26-4,4.73-7.45,4.73-4.9,0-8.12-3.15-8.12-8.09s3.08-8,7.94-8,7.74,3.36,7.74,8.19v.56ZM239,175a3.44,3.44,0,0,0-3.53,3.05h7.17A3.51,3.51,0,0,0,239,175Z"/><path class="cls-1" d="M259.8,176.36a3.8,3.8,0,0,0-2-.52c-2.87,0-3.64,2-3.64,4.55v7.28h-4.24V172.51h4.24v2.28a4.86,4.86,0,0,1,4.41-2.77,4.94,4.94,0,0,1,1.85.35Z"/></svg>