<svg id="Layer_1" data-name="Layer 1" xmlns="http://www.w3.org/2000/svg" viewBox="0 0 300 250"><defs><style>.cls-1{fill:#fff;}</style></defs><title>text</title><path class="cls-1" d="M171,184h-6.59q-.81,0-.81-.63V173c0-.43.27-.65.81-.65s.81.22.81.65v9.57H171c.37,0,.55.25.55.74S171.34,184,171,184Z"/><path class="cls-1" d="M179.83,182.45c.37,0,.55.23.55.67a.72.72,0,0,1-.55.81,14.13,14.13,0,0,1-2.93.21,4.94,4.94,0,0,1-2.94-.67,2.65,2.65,0,0,1-.9-2.24v-3.29a2.57,2.57,0,0,1,.81-2.23,5.63,5.63,0,0,1,3-.57,5.56,5.56,0,0,1,3,.55,2.63,2.63,0,0,1,.77,2.25v1.42a1,1,0,0,1-.24.68.78.78,0,0,1-.61.25h-5.11v1.05q0,1.33,2.31,1.32a13.28,13.28,0,0,0,1.76-.1A9.8,9.8,0,0,1,179.83,182.45Zm-5.15-4.51v.93H179v-.93a1.13,1.13,0,0,0-.44-1.05,3.68,3.68,0,0,0-1.71-.27,3.74,3.74,0,0,0-1.72.26A1.12,1.12,0,0,0,174.68,177.94Z"/><path class="cls-1" d="M188.14,181.36v-.21a.66.66,0,0,0-.42-.62,3.64,3.64,0,0,0-1.47-.2,8.88,8.88,0,0,1-2.32-.32,1.93,1.93,0,0,1-1.05-.71,2.33,2.33,0,0,1-.42-1.45v-.14a2.14,2.14,0,0,1,.9-2,5.7,5.7,0,0,1,2.76-.52,11.52,11.52,0,0,1,2.75.24.73.73,0,0,1,.55.8c0,.45-.19.67-.55.67-.2,0-.58,0-1.14-.11a12.69,12.69,0,0,0-1.8-.13,4.76,4.76,0,0,0-1.41.16c-.3.11-.44.4-.44.89v.17c0,.64.66,1,2,1,.56,0,1.12.07,1.68.14a2.59,2.59,0,0,1,1.42.62,1.85,1.85,0,0,1,.58,1.5v.22a2.43,2.43,0,0,1-.91,2.21,5.66,5.66,0,0,1-2.95.58,13.11,13.11,0,0,1-2.91-.23.73.73,0,0,1-.55-.81c0-.44.19-.66.55-.66a11.62,11.62,0,0,1,1.28.11,14.63,14.63,0,0,0,1.84.11,3.76,3.76,0,0,0,1.47-.24A1,1,0,0,0,188.14,181.36Z"/><path class="cls-1" d="M197.94,172.59v2.79a11.66,11.66,0,0,1,2.25-.24,9.84,9.84,0,0,1,1.7.12,2,2,0,0,1,1.79,1.63,9.2,9.2,0,0,1,.16,2v4.52q0,.63-.81.63t-.81-.63V179a9.4,9.4,0,0,0-.07-1.36,1.05,1.05,0,0,0-.37-.72,1.37,1.37,0,0,0-.63-.28,10.19,10.19,0,0,0-1.14,0,15.08,15.08,0,0,0-2.07.18v6.57q0,.63-.81.63c-.53,0-.81-.21-.81-.63V172.59c0-.43.28-.65.81-.65S197.94,172.16,197.94,172.59Z"/><path class="cls-1" d="M209.94,184.09a1.39,1.39,0,0,1-.86-.29,1.69,1.69,0,0,1-.54-.73L206,176.2a3,3,0,0,0-.07-.29c0-.42.27-.63.79-.62a.75.75,0,0,1,.79.47l2.41,6.76H210l2.42-6.76a.82.82,0,0,1,.87-.47c.46,0,.7.21.7.62,0,0,0,.11-.06.29l-2.55,6.87a1.56,1.56,0,0,1-.55.74A1.51,1.51,0,0,1,209.94,184.09Z"/><path class="cls-1" d="M216.52,176.85c-.37,0-.56-.22-.56-.66a.73.73,0,0,1,.56-.81,12.42,12.42,0,0,1,2.92-.24,4.27,4.27,0,0,1,2.76.65,2.92,2.92,0,0,1,.73,2.27v3.47c0,1.08-.26,1.79-.79,2.12a6.34,6.34,0,0,1-3,.49,6.14,6.14,0,0,1-3-.49c-.51-.33-.76-1-.76-2.11a3.2,3.2,0,0,1,.58-2.22,3.33,3.33,0,0,1,2.4-.61h3v-.93a1,1,0,0,0-.41-.91,3,3,0,0,0-1.47-.25,12,12,0,0,0-1.83.12A6.54,6.54,0,0,1,216.52,176.85Zm4.79,4.81v-1.53h-2.5a3.14,3.14,0,0,0-1.5.23c-.23.15-.35.5-.35,1s.15.89.43,1a4.39,4.39,0,0,0,1.72.22,5.16,5.16,0,0,0,1.74-.19A.8.8,0,0,0,221.31,181.66Z"/><path class="cls-1" d="M233,184.09a1.39,1.39,0,0,1-.86-.29,1.79,1.79,0,0,1-.55-.73l-2.54-6.87a3,3,0,0,0-.07-.29c0-.42.26-.63.79-.62a.75.75,0,0,1,.79.47l2.41,6.76h.08l2.42-6.76a.82.82,0,0,1,.87-.47c.46,0,.69.21.69.62a2,2,0,0,1-.05.29l-2.56,6.87a1.48,1.48,0,0,1-.54.74A1.51,1.51,0,0,1,233,184.09Z"/><path class="cls-1" d="M239.6,176.85q-.57,0-.57-.66a.73.73,0,0,1,.57-.81,12.27,12.27,0,0,1,2.91-.24,4.27,4.27,0,0,1,2.76.65,2.92,2.92,0,0,1,.73,2.27v3.47c0,1.08-.26,1.79-.79,2.12a6.34,6.34,0,0,1-3,.49,6.09,6.09,0,0,1-3-.49c-.5-.33-.74-1-.74-2.11a3.2,3.2,0,0,1,.58-2.22,3.32,3.32,0,0,1,2.39-.61h3v-.93a1,1,0,0,0-.42-.91,3,3,0,0,0-1.47-.25,12.1,12.1,0,0,0-1.83.12A6.54,6.54,0,0,1,239.6,176.85Zm4.79,4.81v-1.53H241.9a3.19,3.19,0,0,0-1.51.23c-.22.15-.34.5-.34,1s.15.89.43,1a4.3,4.3,0,0,0,1.71.22,5.09,5.09,0,0,0,1.73-.19A.8.8,0,0,0,244.39,181.66Zm-3.14-7.43a1.69,1.69,0,0,1,0-2.38,1.67,1.67,0,1,1,0,2.38Zm.46-1.19a.7.7,0,0,0,.21.52.68.68,0,0,0,.52.2.69.69,0,0,0,.51-.21.73.73,0,0,0,.21-.52.69.69,0,0,0-.21-.51.75.75,0,0,0-1,0A.73.73,0,0,0,241.71,173Z"/><path class="cls-1" d="M250.13,178.88v4.49q0,.63-.81.63t-.81-.63v-4.7a5.44,5.44,0,0,1,.29-2.24,3.14,3.14,0,0,1,.53-.76c.38-.35,1.35-.53,2.9-.53a4.83,4.83,0,0,1,1.56.16.57.57,0,0,1,.4.57.85.85,0,0,1-.22.62.81.81,0,0,1-.56.21l-1.18-.08a5.4,5.4,0,0,0-1.38.1,1.16,1.16,0,0,0-.41.21,1.35,1.35,0,0,0-.19.4,2.34,2.34,0,0,0-.12.63Z"/><path class="cls-1" d="M262.25,182.45c.37,0,.56.23.56.67a.73.73,0,0,1-.56.81,14,14,0,0,1-2.92.21,5,5,0,0,1-2.95-.67,2.62,2.62,0,0,1-.89-2.24v-3.29a2.59,2.59,0,0,1,.8-2.23,5.63,5.63,0,0,1,3-.57,5.56,5.56,0,0,1,3,.55,2.63,2.63,0,0,1,.77,2.25v1.42a.92.92,0,0,1-.24.68.76.76,0,0,1-.6.25H257.1v1.05c0,.89.77,1.33,2.32,1.32a13.12,13.12,0,0,0,1.75-.1A10,10,0,0,1,262.25,182.45Zm-5.15-4.51v.93h4.35v-.93a1.15,1.15,0,0,0-.44-1.05,3.71,3.71,0,0,0-1.72-.27,3.77,3.77,0,0,0-1.72.26A1.12,1.12,0,0,0,257.1,177.94Z"/><path class="cls-1" d="M139.05,194.19v6.94l4-4.06a.81.81,0,0,1,.6-.28.77.77,0,0,1,.56.23.7.7,0,0,1,.23.53.85.85,0,0,1-.29.6l-2.32,2.16,2.86,4a.91.91,0,0,1,.18.53.69.69,0,0,1-.26.53.81.81,0,0,1-.59.25.61.61,0,0,1-.53-.29l-2.81-3.94-1.66,1.53V205c0,.42-.26.63-.8.63s-.81-.21-.81-.63V194.19c0-.43.27-.65.81-.65S139.05,193.76,139.05,194.19Z"/><path class="cls-1" d="M149.19,204.26h1.67a2.28,2.28,0,0,0,.57-.1.94.94,0,0,0,.45-.28,1.08,1.08,0,0,0,.2-.72c0-.36,0-.74,0-1.15v-4.49c0-.43.27-.64.8-.64s.81.21.81.63v4.71a9.81,9.81,0,0,1-.14,1.94,1.77,1.77,0,0,1-.62,1.05,2.33,2.33,0,0,1-1.09.44,18.85,18.85,0,0,1-3.68,0,2.33,2.33,0,0,1-1.09-.44,1.71,1.71,0,0,1-.61-1.05,11.45,11.45,0,0,1-.15-1.94v-4.71q0-.63.81-.63c.54,0,.81.21.81.64V202a3.63,3.63,0,0,0,.29,2,.77.77,0,0,0,.38.2A2.13,2.13,0,0,0,149.19,204.26Z"/><path class="cls-1" d="M158.15,198.53a3.52,3.52,0,0,0-.3,1.94V205c0,.42-.27.63-.8.63s-.81-.21-.81-.63v-4.7a9.63,9.63,0,0,1,.15-1.93,1.72,1.72,0,0,1,.64-1.05,2.28,2.28,0,0,1,1.1-.45,17.24,17.24,0,0,1,2-.1c1.51,0,2.47.18,2.86.55a2.41,2.41,0,0,1,.71,1.59,13.54,13.54,0,0,1,.06,1.39V205q0,.63-.81.63t-.81-.63v-4.5c0-1.08-.1-1.72-.31-1.93s-.82-.32-1.85-.32S158.35,198.32,158.15,198.53Z"/><path class="cls-1" d="M174.17,194.19v7.13a10.75,10.75,0,0,1-.2,2.3,2.48,2.48,0,0,1-.71,1.34,2.58,2.58,0,0,1-1.19.62,8.41,8.41,0,0,1-1.87.16,9.46,9.46,0,0,1-1.89-.15,2.69,2.69,0,0,1-1.21-.62,2.44,2.44,0,0,1-.71-1.35,12.36,12.36,0,0,1-.19-2.3,11.13,11.13,0,0,1,.2-2.33,2.49,2.49,0,0,1,1.91-2.07,9.1,9.1,0,0,1,2.08-.18,5.33,5.33,0,0,1,2.16.36v-2.91c0-.43.27-.65.81-.65S174.17,193.76,174.17,194.19ZM168,199.26a4.62,4.62,0,0,0-.19,1.61q0,1.15.06,1.83a2.12,2.12,0,0,0,.46,1.18c.15.21.5.33,1,.37h.81c1.05,0,1.67-.12,1.86-.38a2.42,2.42,0,0,0,.46-1.19c0-.44.06-.89.06-1.36a4.8,4.8,0,0,0-.39-2.54,2.56,2.56,0,0,0-.31-.33,2.17,2.17,0,0,0-1.26-.24h-1.24c-.55,0-.9.16-1,.38A3.74,3.74,0,0,0,168,199.26Z"/><path class="cls-1" d="M183.3,204.05c.37,0,.55.23.55.67a.72.72,0,0,1-.55.81,14.13,14.13,0,0,1-2.93.21,4.94,4.94,0,0,1-2.94-.67,2.63,2.63,0,0,1-.9-2.24v-3.29a2.57,2.57,0,0,1,.81-2.23,5.59,5.59,0,0,1,3-.57,5.53,5.53,0,0,1,3,.55,2.6,2.6,0,0,1,.78,2.25V201a1,1,0,0,1-.24.68.79.79,0,0,1-.61.25h-5.11V203c0,.88.77,1.32,2.31,1.31a13.28,13.28,0,0,0,1.76-.1A9.57,9.57,0,0,1,183.3,204.05Zm-5.15-4.51v.93h4.34v-.93a1.15,1.15,0,0,0-.44-1,3.68,3.68,0,0,0-1.71-.27,4,4,0,0,0-1.73.25A1.14,1.14,0,0,0,178.15,199.54Z"/><path class="cls-1" d="M188.15,200.48V205q0,.63-.81.63t-.81-.63v-4.7a5.62,5.62,0,0,1,.29-2.24,3.14,3.14,0,0,1,.53-.76c.39-.35,1.35-.53,2.9-.53a4.78,4.78,0,0,1,1.56.16.56.56,0,0,1,.4.57.81.81,0,0,1-.22.62.79.79,0,0,1-.55.21l-1.19-.08a5.5,5.5,0,0,0-1.38.1,1.26,1.26,0,0,0-.41.21,1.66,1.66,0,0,0-.19.4,1.94,1.94,0,0,0-.11.63C188.15,199.78,188.15,200.09,188.15,200.48Z"/><path class="cls-1" d="M203.34,203v-.21a.66.66,0,0,0-.43-.62,3.48,3.48,0,0,0-1.46-.19,9.31,9.31,0,0,1-2.32-.33,2,2,0,0,1-1.06-.71,2.33,2.33,0,0,1-.42-1.45v-.14a2.14,2.14,0,0,1,.9-2,5.7,5.7,0,0,1,2.76-.52,11.52,11.52,0,0,1,2.75.24.72.72,0,0,1,.55.8c0,.45-.18.67-.55.67-.2,0-.57,0-1.14-.11a12.69,12.69,0,0,0-1.8-.13,4.76,4.76,0,0,0-1.41.16c-.29.11-.44.4-.44.89v.17c0,.64.67,1,2,1,.56,0,1.12.07,1.68.14a2.56,2.56,0,0,1,1.42.62,1.82,1.82,0,0,1,.58,1.5V203a2.42,2.42,0,0,1-.91,2.2,5.65,5.65,0,0,1-2.94.58,13,13,0,0,1-2.91-.23.73.73,0,0,1-.56-.81c0-.44.19-.66.56-.66a11.69,11.69,0,0,1,1.27.11,14.67,14.67,0,0,0,1.85.11,3.74,3.74,0,0,0,1.46-.24A1,1,0,0,0,203.34,203Z"/><path class="cls-1" d="M207.27,194.8a.86.86,0,0,1,.27-.63.9.9,0,0,1,.61-.27.86.86,0,0,1,.63.27.92.92,0,0,1,.25.64.88.88,0,0,1-1.76,0Zm1.69,2.71V205q0,.63-.81.63t-.81-.63v-7.46q0-.63.81-.63T209,197.51Z"/><path class="cls-1" d="M218.31,204.05c.37,0,.56.23.56.67a.73.73,0,0,1-.56.81,14,14,0,0,1-2.92.21,5,5,0,0,1-2.95-.67,2.65,2.65,0,0,1-.9-2.24v-3.29a2.57,2.57,0,0,1,.81-2.23,5.63,5.63,0,0,1,3-.57,5.56,5.56,0,0,1,3,.55,2.63,2.63,0,0,1,.77,2.25V201a.92.92,0,0,1-.24.68.76.76,0,0,1-.6.25h-5.12V203c0,.88.77,1.32,2.31,1.31a13.18,13.18,0,0,0,1.76-.1A10,10,0,0,1,218.31,204.05Zm-5.15-4.51v.93h4.34v-.93a1.13,1.13,0,0,0-.44-1,3.63,3.63,0,0,0-1.71-.27,4,4,0,0,0-1.72.25A1.15,1.15,0,0,0,213.16,199.54Z"/><path class="cls-1" d="M223.16,200.48V205c0,.42-.26.63-.8.63s-.81-.21-.81-.63v-4.7a5.44,5.44,0,0,1,.29-2.24,3.14,3.14,0,0,1,.53-.76c.38-.35,1.35-.53,2.9-.53a4.83,4.83,0,0,1,1.56.16.56.56,0,0,1,.39.57.85.85,0,0,1-.21.62.81.81,0,0,1-.56.21l-1.18-.08a5.55,5.55,0,0,0-1.39.1,1.19,1.19,0,0,0-.4.21,1.35,1.35,0,0,0-.19.4,2.27,2.27,0,0,0-.12.63C223.17,199.78,223.16,200.09,223.16,200.48Z"/><path class="cls-1" d="M232.84,201.32A11.13,11.13,0,0,1,233,199a2.49,2.49,0,0,1,1.91-2.07,8,8,0,0,1,1.89-.18,7.86,7.86,0,0,1,1.87.18,2.47,2.47,0,0,1,1.22.68,2.75,2.75,0,0,1,.71,1.38,11.13,11.13,0,0,1,.2,2.33,11,11,0,0,1-.2,2.32,2.45,2.45,0,0,1-.72,1.33,2.55,2.55,0,0,1-1.21.62,8.41,8.41,0,0,1-1.87.16,9.46,9.46,0,0,1-1.89-.15,2.64,2.64,0,0,1-1.21-.62,2.44,2.44,0,0,1-.71-1.35A10.85,10.85,0,0,1,232.84,201.32Zm1.81-2.06a4.62,4.62,0,0,0-.19,1.61q0,1.15.06,1.83a2.12,2.12,0,0,0,.46,1.18c.15.21.5.33,1.05.37h.81c1,0,1.67-.12,1.86-.38a2.42,2.42,0,0,0,.46-1.19c0-.44.06-.89.06-1.36a4.8,4.8,0,0,0-.39-2.54,2.56,2.56,0,0,0-.31-.33,2.17,2.17,0,0,0-1.26-.24H236c-.55,0-.9.16-1,.38A3.74,3.74,0,0,0,234.65,199.26Z"/><path class="cls-1" d="M252.2,198.22c-.48,0-.83,0-1,0a1,1,0,0,0-.56.27.91.91,0,0,0-.3.6c0,.24,0,.62,0,1.14V205q0,.63-.81.63t-.81-.63V200c0-.82-.1-1.33-.32-1.52a2.21,2.21,0,0,0-1.35-.28c-.68,0-1.12,0-1.33,0a.93.93,0,0,0-.56.29,1.09,1.09,0,0,0-.26.66c0,.26,0,.68,0,1.27V205q0,.63-.81.63c-.53,0-.81-.21-.81-.63v-4.7a5.93,5.93,0,0,1,.41-2.59,2,2,0,0,1,1.7-.88q.5,0,1.44-.06a5,5,0,0,1,2.73.5,5.08,5.08,0,0,1,2.74-.5c.61,0,1.09,0,1.43,0a2,2,0,0,1,1.68.84,6,6,0,0,1,.44,2.64V205q0,.63-.81.63t-.81-.63v-4.5c0-.59,0-1,0-1.27a1.16,1.16,0,0,0-.27-.66.9.9,0,0,0-.55-.29C253.05,198.23,252.7,198.22,252.2,198.22Z"/><path class="cls-1" d="M262.5,201.32a11.23,11.23,0,0,1,.19-2.33,2.49,2.49,0,0,1,1.92-2.07,9.91,9.91,0,0,1,3.76,0,2.51,2.51,0,0,1,1.22.68,2.92,2.92,0,0,1,.71,1.38,11.23,11.23,0,0,1,.19,2.33,11.06,11.06,0,0,1-.19,2.32,2.45,2.45,0,0,1-.72,1.33,2.64,2.64,0,0,1-1.21.62,8.51,8.51,0,0,1-1.88.16,9.29,9.29,0,0,1-1.88-.15,2.68,2.68,0,0,1-1.22-.62,2.43,2.43,0,0,1-.7-1.35A10.85,10.85,0,0,1,262.5,201.32Zm1.81-2.06a4.57,4.57,0,0,0-.2,1.61q0,1.15.06,1.83a2.2,2.2,0,0,0,.46,1.18c.15.21.5.33,1.05.37h.81c1.05,0,1.67-.12,1.86-.38a2.33,2.33,0,0,0,.46-1.19,12,12,0,0,0,.07-1.36,4.77,4.77,0,0,0-.4-2.54,2,2,0,0,0-.31-.33,2.17,2.17,0,0,0-1.26-.24h-1.24c-.55,0-.89.16-1,.38A3.23,3.23,0,0,0,264.31,199.26Z"/><path class="cls-1" d="M278.26,203v-.21a.66.66,0,0,0-.42-.62,3.51,3.51,0,0,0-1.47-.19,9.38,9.38,0,0,1-2.32-.33,1.93,1.93,0,0,1-1.05-.71,2.33,2.33,0,0,1-.42-1.45v-.14a2.14,2.14,0,0,1,.9-2,5.7,5.7,0,0,1,2.76-.52A11.36,11.36,0,0,1,279,197a.72.72,0,0,1,.56.8c0,.45-.19.67-.56.67-.19,0-.57,0-1.13-.11a12.69,12.69,0,0,0-1.8-.13,4.76,4.76,0,0,0-1.41.16c-.3.11-.45.4-.45.89v.17q0,1,2,1c.55,0,1.11.07,1.68.14a2.59,2.59,0,0,1,1.42.62,1.85,1.85,0,0,1,.58,1.5V203a2.42,2.42,0,0,1-.91,2.2,5.66,5.66,0,0,1-3,.58,13.11,13.11,0,0,1-2.91-.23.72.72,0,0,1-.55-.81c0-.44.18-.66.55-.66a11.81,11.81,0,0,1,1.28.11,14.63,14.63,0,0,0,1.84.11,3.76,3.76,0,0,0,1.47-.24A1,1,0,0,0,278.26,203Z"/><path class="cls-1" d="M287.2,203v-.21a.66.66,0,0,0-.42-.62,3.51,3.51,0,0,0-1.47-.19,9.31,9.31,0,0,1-2.32-.33,1.93,1.93,0,0,1-1.05-.71,2.34,2.34,0,0,1-.43-1.45v-.14a2.15,2.15,0,0,1,.91-2,5.65,5.65,0,0,1,2.76-.52,11.36,11.36,0,0,1,2.74.24.72.72,0,0,1,.56.8c0,.45-.19.67-.56.67-.19,0-.57,0-1.13-.11a12.69,12.69,0,0,0-1.8-.13,4.76,4.76,0,0,0-1.41.16c-.3.11-.45.4-.45.89v.17q0,1,2,1c.55,0,1.11.07,1.67.14a2.59,2.59,0,0,1,1.43.62,1.88,1.88,0,0,1,.58,1.5V203a2.42,2.42,0,0,1-.92,2.2,5.65,5.65,0,0,1-2.94.58,13.11,13.11,0,0,1-2.91-.23.72.72,0,0,1-.55-.81c0-.44.18-.66.55-.66a11.81,11.81,0,0,1,1.28.11,14.52,14.52,0,0,0,1.84.11,3.83,3.83,0,0,0,1.47-.24A1,1,0,0,0,287.2,203Z"/></svg>