<svg id="Layer_1" data-name="Layer 1" xmlns="http://www.w3.org/2000/svg" viewBox="0 0 160 600"><defs><style>.cls-1{fill:#fff;}</style></defs><title>text</title><path class="cls-1" d="M56.18,211.89h-2v-7.61H46.75v7.61h-2v-16h2v6.62h7.42V195.9h2Z"/><path class="cls-1" d="M68.68,200.06l-4.09,11.83h-1.9l-4.24-11.83h2l3.3,9.62L67,200.06Z"/><path class="cls-1" d="M72.71,195.9v2h-2v-2Zm-.06,4.16v11.83H70.81V200.06Z"/><path class="cls-1" d="M78.16,211.89H76.32v-16h1.84Z"/><path class="cls-1" d="M91.61,211.89h-1.9l-3.46-6.6-2.57,3v3.65H81.84v-16h1.84v10.25l5.5-6.09h2l-3.69,4.15Z"/><path class="cls-1" d="M101.15,208.37l1.71.35a4.82,4.82,0,0,1-1.82,2.51,5.31,5.31,0,0,1-3.2,1,5,5,0,0,1-3.93-1.7,7.46,7.46,0,0,1,.06-9.05,5,5,0,0,1,3.91-1.74,4.76,4.76,0,0,1,3.74,1.61,7.2,7.2,0,0,1,1.44,4.8h-8.6c0,1.79.38,3,1.13,3.62a3.63,3.63,0,0,0,2.37.94A3.25,3.25,0,0,0,101.15,208.37Zm-.1-3.6a5.36,5.36,0,0,0-.33-1.77,3,3,0,0,0-1-1.32,2.87,2.87,0,0,0-1.75-.54,3.08,3.08,0,0,0-2.32,1,4.08,4.08,0,0,0-1.08,2.65Z"/><path class="cls-1" d="M111.08,210.64v1.45a12.42,12.42,0,0,1-1.69.13c-2.29,0-3.43-1.19-3.43-3.59V201.5h-2.1v-1.44H106l.08-3,1.71-.16v3.14h2.65v1.44h-2.65v7.44c0,1.22.63,1.83,1.9,1.83A8.61,8.61,0,0,0,111.08,210.64Z"/><path class="cls-1" d="M65.09,235.32l1.83.41Q65.6,241,61,241a5.51,5.51,0,0,1-4.77-2.45,10.2,10.2,0,0,1-1.73-6,9.18,9.18,0,0,1,1.81-5.93,5.9,5.9,0,0,1,4.84-2.24c3,0,4.92,1.71,5.78,5.14l-1.89.38q-1-3.82-3.9-3.82a3.72,3.72,0,0,0-3.29,1.77,9,9,0,0,0-1.17,5,8.32,8.32,0,0,0,1.2,4.72A3.66,3.66,0,0,0,61,239.32Q64.09,239.32,65.09,235.32Z"/><path class="cls-1" d="M84.85,240.69H82.9v-14l-5.19,14H76.35l-5.25-14v14H69.4v-16h3l4.83,12.79,4.72-12.79h2.93Z"/><path class="cls-1" d="M87.08,236.46l1.81-.41a4.51,4.51,0,0,0,4.72,3.27,4.39,4.39,0,0,0,2.86-.8,2.68,2.68,0,0,0,1-2.16,2.06,2.06,0,0,0-.73-1.65,4.18,4.18,0,0,0-1.69-.86l-3.2-.78a8.73,8.73,0,0,1-2-.77,3.82,3.82,0,0,1-1.34-1.39,4.15,4.15,0,0,1-.55-2.15,3.86,3.86,0,0,1,1.51-3.2,6.11,6.11,0,0,1,3.88-1.19A5.51,5.51,0,0,1,99,228.32l-1.81.54a3.25,3.25,0,0,0-1.49-2.13,4.71,4.71,0,0,0-2.5-.72,4.06,4.06,0,0,0-2.34.7,2.22,2.22,0,0,0-1,2c0,1.19.86,2,2.6,2.4l3,.7q4.09,1,4.1,4.42A4.44,4.44,0,0,1,98,239.65a7.18,7.18,0,0,1-10.91-3.19Z"/><path class="cls-1" d="M40.7,266.42l1.75-.36c.39,1.49,1.63,2.24,3.71,2.24a3.45,3.45,0,0,0,1.94-.52,1.63,1.63,0,0,0,.8-1.45c0-.93-.68-1.51-2-1.76l-2.49-.48A4.57,4.57,0,0,1,42,263a2.84,2.84,0,0,1-.86-2.17,3.13,3.13,0,0,1,1.18-2.49,4.76,4.76,0,0,1,3.19-1q3.86,0,4.75,3l-1.68.37a2.89,2.89,0,0,0-3-1.86,3.36,3.36,0,0,0-1.85.47,1.45,1.45,0,0,0-.72,1.29c0,.87.62,1.42,1.84,1.65l2.31.41c2.42.44,3.62,1.61,3.62,3.51a3.14,3.14,0,0,1-1.35,2.64,5.83,5.83,0,0,1-3.58,1Q41.69,269.82,40.7,266.42Z"/><path class="cls-1" d="M63.2,269.49H61.29l-3.46-6.6-2.57,2.95v3.65H53.42v-16h1.84v10.25l5.5-6.09h2L59,261.81Z"/><path class="cls-1" d="M74.52,269.49H72.7q-.11-.56-.21-2.13a4.27,4.27,0,0,1-4.15,2.46,4.18,4.18,0,0,1-3.06-1.05,3.46,3.46,0,0,1-1.07-2.54,3.54,3.54,0,0,1,1.53-3q1.52-1.15,5.18-1.16c.33,0,.85,0,1.57.05a6.54,6.54,0,0,0-.22-2,1.8,1.8,0,0,0-.92-1,3.92,3.92,0,0,0-1.85-.37c-1.87,0-3,.71-3.26,2.13l-1.7-.29q.63-3.27,5.23-3.27a4.64,4.64,0,0,1,3.47,1.08,5.42,5.42,0,0,1,1,3.76v5A9.62,9.62,0,0,0,74.52,269.49Zm-2-5.91c-.75-.05-1.32-.07-1.71-.07a6.76,6.76,0,0,0-3.39.71,2.31,2.31,0,0,0-1.21,2.09,2,2,0,0,0,.65,1.48,2.64,2.64,0,0,0,1.88.61,3.48,3.48,0,0,0,2.74-1.21,4.1,4.1,0,0,0,1.07-2.84C72.52,264.13,72.51,263.87,72.49,263.58Z"/><path class="cls-1" d="M79.79,269.49H78v-16h1.84Z"/><path class="cls-1" d="M98.71,253.5v16H97.05v-2a4,4,0,0,1-3.74,2.35,4.13,4.13,0,0,1-3.42-1.74,7,7,0,0,1-1.34-4.4,7.51,7.51,0,0,1,1.33-4.54,4.13,4.13,0,0,1,3.51-1.81,4.08,4.08,0,0,1,3.49,1.95V253.5Zm-1.83,8.73a3.38,3.38,0,0,0-.95-2.5,3.11,3.11,0,0,0-2.22-.94A2.67,2.67,0,0,0,91.46,260a5.78,5.78,0,0,0-.89,3.43,6.67,6.67,0,0,0,.81,3.62,2.57,2.57,0,0,0,2.24,1.24,3,3,0,0,0,2.27-1.08,3.62,3.62,0,0,0,1-2.53Z"/><path class="cls-1" d="M111.71,269.49h-1.66v-2.26a4,4,0,0,1-3.77,2.59,3.59,3.59,0,0,1-2.85-1.19,5.07,5.07,0,0,1-1-3.41v-7.56h1.84v7.56a3.18,3.18,0,0,0,.74,2.42,2.35,2.35,0,0,0,1.61.66,2.73,2.73,0,0,0,1.61-.51,3.81,3.81,0,0,0,1.2-1.43,4.37,4.37,0,0,0,.48-2v-6.67h1.84Z"/><path class="cls-1" d="M61.14,286.46l-4.09,11.83H55.16l-4.25-11.83H53l3.29,9.62,3.26-9.62Z"/><path class="cls-1" d="M70.73,294.77l1.71.35a4.78,4.78,0,0,1-1.83,2.51,5.27,5.27,0,0,1-3.2,1,5,5,0,0,1-3.92-1.7,7.46,7.46,0,0,1,.06-9.05,5,5,0,0,1,3.91-1.74,4.72,4.72,0,0,1,3.73,1.61,7.2,7.2,0,0,1,1.45,4.8H64c0,1.79.37,3,1.12,3.62a3.66,3.66,0,0,0,2.38.94A3.26,3.26,0,0,0,70.73,294.77Zm-.1-3.6a5.31,5.31,0,0,0-.33-1.77,3.06,3.06,0,0,0-1-1.32,2.87,2.87,0,0,0-1.75-.54,3.12,3.12,0,0,0-2.33,1,4.13,4.13,0,0,0-1.07,2.65Z"/><path class="cls-1" d="M77.25,298.29H75.41v-16h1.84Z"/><path class="cls-1" d="M90.59,284.61v1.46a3.38,3.38,0,0,0-1.69.29,1.62,1.62,0,0,0-.57,1.06,4.27,4.27,0,0,1,1.14,2.86,3.67,3.67,0,0,1-1.24,2.78,5.21,5.21,0,0,1-4.13,1.09,5.35,5.35,0,0,0-.81-.13,1.4,1.4,0,0,0-.76.31.91.91,0,0,0-.44.8.86.86,0,0,0,.64.91,14.1,14.1,0,0,0,3,.27,16.62,16.62,0,0,1,3,.28,3,3,0,0,1,1.63,1,2.61,2.61,0,0,1,.67,1.82q0,3.39-6,3.39a7.68,7.68,0,0,1-4.12-.85,2.61,2.61,0,0,1-1.29-2.27,2.38,2.38,0,0,1,1.8-2.37,2.24,2.24,0,0,1-1.16-1.91,2.31,2.31,0,0,1,1.64-2.1,3.85,3.85,0,0,1-1.53-3.12,3.61,3.61,0,0,1,1.31-2.89,4.73,4.73,0,0,1,3.2-1.12,5.75,5.75,0,0,1,2.42.5,2.26,2.26,0,0,1,.82-1.6,3.37,3.37,0,0,1,1.94-.45Zm-7.82,13.2a1.79,1.79,0,0,0-1.29,1.63,1.54,1.54,0,0,0,1.06,1.4,6.35,6.35,0,0,0,2.7.5,8.59,8.59,0,0,0,2.79-.43q1.26-.42,1.26-1.44a1.2,1.2,0,0,0-.37-.91,1.84,1.84,0,0,0-1-.44c-.43-.06-1.19-.11-2.26-.14C84.34,298,83.38,297.89,82.77,297.81Zm2.2-5a2.62,2.62,0,0,0,1.91-.72,2.5,2.5,0,0,0,.74-1.87A2.58,2.58,0,0,0,85,287.56a2.74,2.74,0,0,0-1.85.7,2.78,2.78,0,0,0-.08,3.84A2.62,2.62,0,0,0,85,292.81Z"/><path class="cls-1" d="M100.53,294.77l1.71.35a4.78,4.78,0,0,1-1.83,2.51,5.27,5.27,0,0,1-3.2,1,5,5,0,0,1-3.92-1.7,7.46,7.46,0,0,1,.06-9.05,5,5,0,0,1,3.91-1.74,4.72,4.72,0,0,1,3.73,1.61,7.15,7.15,0,0,1,1.45,4.8h-8.6c0,1.79.37,3,1.12,3.62a3.66,3.66,0,0,0,2.38.94A3.26,3.26,0,0,0,100.53,294.77Zm-.1-3.6a5.31,5.31,0,0,0-.33-1.77,3.06,3.06,0,0,0-1-1.32,2.87,2.87,0,0,0-1.75-.54,3.12,3.12,0,0,0-2.33,1,4.13,4.13,0,0,0-1.07,2.65Z"/><path class="cls-1" d="M50.64,315.26v1.44H47.83v10.39H46V316.7H44v-1.44h2c0-1.9.39-3.12,1.09-3.67a4,4,0,0,1,2.56-.82,10,10,0,0,1,1.69.16v1.47a4.7,4.7,0,0,0-1.14-.15,2.53,2.53,0,0,0-1.78.53,2.65,2.65,0,0,0-.58,2v.48Z"/><path class="cls-1" d="M56.62,327.42a4.51,4.51,0,0,1-3.81-1.8,7.24,7.24,0,0,1-1.36-4.49A6.47,6.47,0,0,1,53,316.62a5,5,0,0,1,3.82-1.69,4.64,4.64,0,0,1,3.86,1.78,6.85,6.85,0,0,1,1.42,4.44,6.63,6.63,0,0,1-1.53,4.52A5,5,0,0,1,56.62,327.42Zm.14-1.52a2.93,2.93,0,0,0,2.35-1.16,5.69,5.69,0,0,0,1-3.61,5.23,5.23,0,0,0-1-3.57,3,3,0,0,0-2.33-1.11,3,3,0,0,0-2.32,1.12,5.46,5.46,0,0,0-.95,3.55,5.65,5.65,0,0,0,.95,3.67A3,3,0,0,0,56.76,325.9Z"/><path class="cls-1" d="M66.68,327.09H64.84V315.26h1.62V318a5.84,5.84,0,0,1,1.72-2.53,3.08,3.08,0,0,1,1.76-.58c.19,0,.43,0,.73,0v1.76h-.38a3.24,3.24,0,0,0-2.53,1.14,4.64,4.64,0,0,0-1.08,3Z"/><path class="cls-1" d="M88,311.1v16H86.33v-2a4,4,0,0,1-3.74,2.35,4.12,4.12,0,0,1-3.41-1.74,7,7,0,0,1-1.34-4.4,7.51,7.51,0,0,1,1.32-4.54,4.14,4.14,0,0,1,3.52-1.81,4.08,4.08,0,0,1,3.48,1.95V311.1Zm-1.84,8.73a3.38,3.38,0,0,0-1-2.5,3.07,3.07,0,0,0-2.22-.94,2.69,2.69,0,0,0-2.25,1.22,5.78,5.78,0,0,0-.89,3.43,6.67,6.67,0,0,0,.82,3.62,2.55,2.55,0,0,0,2.23,1.24,3,3,0,0,0,2.27-1.08,3.62,3.62,0,0,0,1-2.53Z"/><path class="cls-1" d="M93.58,311.1v2h-2v-2Zm-.06,4.16v11.83H91.68V315.26Z"/><path class="cls-1" d="M102.55,325.84v1.45a12.41,12.41,0,0,1-1.68.13c-2.29,0-3.44-1.19-3.44-3.59V316.7h-2.1v-1.44h2.1l.08-3,1.71-.16v3.14h2.65v1.44H99.22v7.44a1.65,1.65,0,0,0,1.9,1.83A8.61,8.61,0,0,0,102.55,325.84Z"/><path class="cls-1" d="M109.94,325.84v1.45a12.54,12.54,0,0,1-1.69.13c-2.29,0-3.44-1.19-3.44-3.59V316.7h-2.09v-1.44h2.09l.09-3,1.71-.16v3.14h2.65v1.44h-2.65v7.44c0,1.22.63,1.83,1.9,1.83A8.7,8.7,0,0,0,109.94,325.84Z"/><path class="cls-1" d="M51.18,339.9v16H49.51v-2a4,4,0,0,1-3.74,2.35,4.11,4.11,0,0,1-3.41-1.74,7,7,0,0,1-1.34-4.4,7.51,7.51,0,0,1,1.32-4.54,4.14,4.14,0,0,1,3.52-1.81,4.08,4.08,0,0,1,3.48,1.95V339.9Zm-1.84,8.73a3.38,3.38,0,0,0-1-2.5,3.06,3.06,0,0,0-2.22-.93,2.68,2.68,0,0,0-2.25,1.21,5.78,5.78,0,0,0-.89,3.43,6.58,6.58,0,0,0,.82,3.62,2.52,2.52,0,0,0,2.23,1.24,3,3,0,0,0,2.27-1.08,3.62,3.62,0,0,0,1-2.53Z"/><path class="cls-1" d="M56.76,339.9V342h-2V339.9Zm-.06,4.16v11.83H54.86V344.06Z"/><path class="cls-1" d="M70,342.21v1.46a3.38,3.38,0,0,0-1.69.29,1.58,1.58,0,0,0-.57,1.06,4.27,4.27,0,0,1,1.14,2.86,3.67,3.67,0,0,1-1.24,2.78,5.21,5.21,0,0,1-4.13,1.09,5.35,5.35,0,0,0-.81-.13,1.4,1.4,0,0,0-.76.31.91.91,0,0,0-.44.8.86.86,0,0,0,.64.91,12.85,12.85,0,0,0,3,.27,16.73,16.73,0,0,1,3,.28,3,3,0,0,1,1.63,1A2.61,2.61,0,0,1,70.5,357q0,3.39-6,3.39a7.68,7.68,0,0,1-4.12-.85,2.61,2.61,0,0,1-1.3-2.27,2.39,2.39,0,0,1,1.81-2.37A2.24,2.24,0,0,1,59.78,353a2.31,2.31,0,0,1,1.64-2.1,3.86,3.86,0,0,1-1.54-3.12,3.62,3.62,0,0,1,1.32-2.89,4.78,4.78,0,0,1,3.2-1.12,5.75,5.75,0,0,1,2.42.5,2.26,2.26,0,0,1,.82-1.6,3.37,3.37,0,0,1,1.94-.45Zm-7.82,13.2A1.79,1.79,0,0,0,60.92,357a1.54,1.54,0,0,0,1.06,1.4,6.2,6.2,0,0,0,2.7.5,8.59,8.59,0,0,0,2.79-.43q1.26-.42,1.26-1.44a1.2,1.2,0,0,0-.37-.91,1.84,1.84,0,0,0-1-.44c-.43-.06-1.19-.11-2.27-.14C63.78,355.55,62.82,355.49,62.21,355.41Zm2.2-5a2.62,2.62,0,0,0,1.91-.72,2.5,2.5,0,0,0,.74-1.87,2.58,2.58,0,0,0-2.63-2.66,2.74,2.74,0,0,0-1.85.7,2.78,2.78,0,0,0-.08,3.84A2.62,2.62,0,0,0,64.41,350.41Z"/><path class="cls-1" d="M74.05,339.9V342h-2V339.9ZM74,344.06v11.83H72.15V344.06Z"/><path class="cls-1" d="M83,354.64v1.45a12.42,12.42,0,0,1-1.69.13c-2.29,0-3.43-1.19-3.43-3.59V345.5h-2.1v-1.44h2.1l.08-3,1.71-.16v3.14h2.65v1.44H79.7v7.44c0,1.22.63,1.83,1.9,1.83A8.61,8.61,0,0,0,83,354.64Z"/><path class="cls-1" d="M94.3,355.89H92.49q-.1-.56-.21-2.13a4.28,4.28,0,0,1-4.15,2.46,4.18,4.18,0,0,1-3.06-1.05A3.46,3.46,0,0,1,84,352.63a3.54,3.54,0,0,1,1.53-2.95q1.52-1.15,5.18-1.16c.32,0,.85,0,1.57.05a6.92,6.92,0,0,0-.22-2,1.82,1.82,0,0,0-.92-1,3.94,3.94,0,0,0-1.85-.38c-1.87,0-3,.71-3.26,2.13l-1.7-.29c.41-2.18,2.16-3.27,5.23-3.27A4.64,4.64,0,0,1,93,344.81a5.47,5.47,0,0,1,1,3.76v5A10.19,10.19,0,0,0,94.3,355.89Zm-2-5.91c-.75-.05-1.32-.07-1.72-.07a6.72,6.72,0,0,0-3.38.71A2.29,2.29,0,0,0,86,352.71a2,2,0,0,0,.65,1.48,2.63,2.63,0,0,0,1.88.61,3.5,3.5,0,0,0,2.74-1.21,4.15,4.15,0,0,0,1.07-2.84C92.31,350.53,92.3,350.27,92.28,350Z"/><path class="cls-1" d="M99.58,355.89H97.74v-16h1.84Z"/><path class="cls-1" d="M111.07,352.37l1.71.35a4.82,4.82,0,0,1-1.82,2.51,5.31,5.31,0,0,1-3.2,1,5,5,0,0,1-3.93-1.7,7.46,7.46,0,0,1,.06-9,5,5,0,0,1,3.91-1.74,4.76,4.76,0,0,1,3.74,1.61,7.2,7.2,0,0,1,1.44,4.8h-8.6c0,1.79.38,3,1.13,3.62a3.63,3.63,0,0,0,2.37.94A3.25,3.25,0,0,0,111.07,352.37Zm-.1-3.6a5.36,5.36,0,0,0-.33-1.77,3,3,0,0,0-1-1.32,2.87,2.87,0,0,0-1.75-.54,3.08,3.08,0,0,0-2.32,1,4.08,4.08,0,0,0-1.08,2.65Z"/><path class="cls-1" d="M37,388.69H35.13V372.86h1.66v2.3a4,4,0,0,1,7.12-.88,8.45,8.45,0,0,1,0,9,4.09,4.09,0,0,1-3.4,1.7A3.91,3.91,0,0,1,37,382.9Zm0-11.62v3.34a3.48,3.48,0,0,0,1.14,2.21,2.92,2.92,0,0,0,2,.88,2.78,2.78,0,0,0,2.14-1.06,5.51,5.51,0,0,0,.93-3.64,6,6,0,0,0-.84-3.45,2.61,2.61,0,0,0-2.24-1.21,2.76,2.76,0,0,0-2,.85A4.16,4.16,0,0,0,37,377.07Z"/><path class="cls-1" d="M49.79,384.69H48V372.86h1.62v2.76a5.93,5.93,0,0,1,1.71-2.53,3.13,3.13,0,0,1,1.77-.58,7.17,7.17,0,0,1,.72,0v1.76H53.4a3.22,3.22,0,0,0-2.53,1.14,4.64,4.64,0,0,0-1.08,3Z"/><path class="cls-1" d="M59.67,385a4.49,4.49,0,0,1-3.8-1.8,7.24,7.24,0,0,1-1.37-4.48A6.44,6.44,0,0,1,56,374.22a4.92,4.92,0,0,1,3.82-1.69,4.65,4.65,0,0,1,3.86,1.78,6.9,6.9,0,0,1,1.41,4.44,6.68,6.68,0,0,1-1.52,4.52A5,5,0,0,1,59.67,385Zm.14-1.52a2.92,2.92,0,0,0,2.35-1.16,5.61,5.61,0,0,0,1-3.61,5.29,5.29,0,0,0-1-3.57,3.05,3.05,0,0,0-2.33-1.11,3,3,0,0,0-2.33,1.12,5.46,5.46,0,0,0-.94,3.55,5.65,5.65,0,0,0,.94,3.67A3,3,0,0,0,59.81,383.5Z"/><path class="cls-1" d="M66.3,381.62l1.76-.36c.39,1.49,1.62,2.24,3.7,2.24a3.46,3.46,0,0,0,1.95-.52,1.62,1.62,0,0,0,.79-1.45c0-.93-.67-1.51-2-1.76l-2.5-.48a4.54,4.54,0,0,1-2.33-1.1,2.85,2.85,0,0,1-.87-2.17A3.16,3.16,0,0,1,68,373.53a4.78,4.78,0,0,1,3.19-1q3.85,0,4.76,3l-1.69.37a2.88,2.88,0,0,0-3-1.86,3.33,3.33,0,0,0-1.84.47,1.45,1.45,0,0,0-.72,1.29c0,.87.61,1.42,1.84,1.65l2.31.41q3.62.66,3.62,3.51A3.14,3.14,0,0,1,75.09,384a5.86,5.86,0,0,1-3.59,1C68.7,385,67,383.89,66.3,381.62Z"/><path class="cls-1" d="M80.87,372.73v12.33a3.58,3.58,0,0,1-1,2.9,3.66,3.66,0,0,1-2.42.82,7.79,7.79,0,0,1-1.73-.24v-1.46a6,6,0,0,0,1.35.18,2,2,0,0,0,1.5-.5,2.54,2.54,0,0,0,.45-1.71V372.73Zm.09-4v2.05H78.88V368.7Z"/><path class="cls-1" d="M92.34,381.17l1.71.35A4.78,4.78,0,0,1,92.22,384a5.27,5.27,0,0,1-3.2,1,5,5,0,0,1-3.92-1.7,7.46,7.46,0,0,1,.06-9.05,5,5,0,0,1,3.91-1.74,4.72,4.72,0,0,1,3.73,1.61,7.2,7.2,0,0,1,1.45,4.8h-8.6c0,1.79.37,3,1.12,3.62a3.66,3.66,0,0,0,2.38.94A3.26,3.26,0,0,0,92.34,381.17Zm-.11-3.6a5.12,5.12,0,0,0-.32-1.77,3.06,3.06,0,0,0-1-1.32,2.87,2.87,0,0,0-1.75-.54,3.11,3.11,0,0,0-2.33,1,4.13,4.13,0,0,0-1.07,2.65Z"/><path class="cls-1" d="M106.79,384.69h-1.91l-3.46-6.6-2.56,3v3.65H97v-16h1.84V379l5.49-6.09h2l-3.7,4.15Z"/><path class="cls-1" d="M114.41,383.44v1.45a12.42,12.42,0,0,1-1.69.13c-2.29,0-3.43-1.19-3.43-3.59V374.3h-2.1v-1.44h2.1l.08-3,1.71-.16v3.14h2.65v1.44h-2.65v7.44c0,1.22.63,1.83,1.9,1.83A8.61,8.61,0,0,0,114.41,383.44Z"/><path class="cls-1" d="M120.88,380.71h-1.69c0-1.22,0-2,0-2.28a2.76,2.76,0,0,1,.25-.9,2.15,2.15,0,0,1,.48-.7,7.2,7.2,0,0,1,1.24-.81,11.23,11.23,0,0,0,1.48-.93,2.83,2.83,0,0,0,.7-.92,2.86,2.86,0,0,0,.3-1.3,2.52,2.52,0,0,0-1-2.1,3.54,3.54,0,0,0-2.28-.76q-3,0-3.63,3.46l-1.75-.38c.59-3.15,2.41-4.72,5.48-4.72a5.49,5.49,0,0,1,3.78,1.28,4.21,4.21,0,0,1,1.44,3.29q0,2.61-3,4.17a5.21,5.21,0,0,0-1.6,1.09,2,2,0,0,0-.3,1.22Zm.39,1.68v2.3h-2.36v-2.3Z"/></svg>