<svg id="Layer_1" data-name="Layer 1" xmlns="http://www.w3.org/2000/svg" viewBox="0 0 300 600"><defs><style>.cls-1{fill:#d5ad77;}</style></defs><title>text</title><path class="cls-1" d="M86.08,109.54v-4.31h19.75v4.31H98.21v19.65h-4.5V109.54Z"/><path class="cls-1" d="M111.57,129.19v-24h9.37a8.07,8.07,0,0,1,5.77,2.18,7.44,7.44,0,0,1,2.31,5.68A7.19,7.19,0,0,1,127.3,118a7.7,7.7,0,0,1-4.47,2.55l6.44,8.69h-5.05L118,120.64h-1.94v8.55Zm8.68-20h-4.19V117h4.19a4.41,4.41,0,0,0,3.11-1.06,3.57,3.57,0,0,0,1.17-2.77,3.76,3.76,0,0,0-1.2-2.84A4.26,4.26,0,0,0,120.25,109.23Z"/><path class="cls-1" d="M148.13,105.23H153L145,119.46v9.73h-4.5v-9.58l-8-14.38h4.94l5.4,9.94Z"/><path class="cls-1" d="M172,119.18v-4h8.58l0,2a12.24,12.24,0,0,1-1.75,6.35,12,12,0,0,1-4.54,4.42,12.44,12.44,0,0,1-6.11,1.57,12.44,12.44,0,1,1,.07-24.87,11.77,11.77,0,0,1,8.92,3.88l-3.07,3A7.77,7.77,0,0,0,168.2,109a7.61,7.61,0,0,0-5.73,2.35,8.48,8.48,0,0,0,0,11.55,7.32,7.32,0,0,0,5.44,2.35,8.52,8.52,0,0,0,5.33-1.67,7.65,7.65,0,0,0,2.82-4.41Z"/><path class="cls-1" d="M202.71,119.18v-4h8.58l0,2a12.24,12.24,0,0,1-1.75,6.35A12.1,12.1,0,0,1,205,128a12.44,12.44,0,0,1-6.11,1.57,12.44,12.44,0,1,1,.07-24.87,11.78,11.78,0,0,1,8.92,3.88l-3.07,3a7.77,7.77,0,0,0-5.89-2.59,7.61,7.61,0,0,0-5.73,2.35,8.49,8.49,0,0,0,0,11.55,7.36,7.36,0,0,0,5.45,2.35,8.52,8.52,0,0,0,5.33-1.67,7.65,7.65,0,0,0,2.82-4.41Z"/><path class="cls-1" d="M32.73,146.74v-4.31H52.48v4.31H44.86v19.65h-4.5V146.74Z"/><path class="cls-1" d="M58.22,166.39v-24h9.37a8.07,8.07,0,0,1,5.77,2.18,7.44,7.44,0,0,1,2.31,5.68A7.19,7.19,0,0,1,74,155.15a7.7,7.7,0,0,1-4.47,2.55l6.44,8.69H70.86l-6.21-8.55H62.71v8.55Zm8.68-20H62.71v7.81H66.9A4.41,4.41,0,0,0,70,153.18a3.56,3.56,0,0,0,1.16-2.77A3.75,3.75,0,0,0,70,147.57,4.26,4.26,0,0,0,66.9,146.43Z"/><path class="cls-1" d="M94.77,142.43H99.6l-7.93,14.23v9.73h-4.5v-9.58l-8-14.38h4.94l5.4,9.94Z"/><path class="cls-1" d="M118.67,156.38v-4h8.58l0,2.05a12.24,12.24,0,0,1-1.75,6.35,12.1,12.1,0,0,1-4.54,4.42,12.44,12.44,0,0,1-6.11,1.57,12.44,12.44,0,1,1,.07-24.87,11.78,11.78,0,0,1,8.92,3.88l-3.07,3a7.77,7.77,0,0,0-5.89-2.59,7.61,7.61,0,0,0-5.73,2.35,8.49,8.49,0,0,0,0,11.55,7.36,7.36,0,0,0,5.45,2.35,8.52,8.52,0,0,0,5.33-1.67,7.65,7.65,0,0,0,2.82-4.41Z"/><path class="cls-1" d="M149.36,156.38v-4h8.58l0,2.05a12.24,12.24,0,0,1-1.75,6.35,12.1,12.1,0,0,1-4.54,4.42,12.44,12.44,0,0,1-6.11,1.57,12.44,12.44,0,1,1,.06-24.87,11.79,11.79,0,0,1,8.93,3.88l-3.07,3a7.77,7.77,0,0,0-5.89-2.59,7.61,7.61,0,0,0-5.73,2.35,8.49,8.49,0,0,0,0,11.55,7.35,7.35,0,0,0,5.44,2.35,8.53,8.53,0,0,0,5.34-1.67,7.65,7.65,0,0,0,2.82-4.41Z"/><path class="cls-1" d="M161.23,166.39l9.24-24h4.06l9.21,24h-4.62l-1.27-3.31H167.13l-1.28,3.31Zm11.27-17.25-3.83,9.94h7.64Z"/><path class="cls-1" d="M189.35,166.39v-24h9.37a8.07,8.07,0,0,1,5.77,2.18,7.44,7.44,0,0,1,2.31,5.68,7.19,7.19,0,0,1-1.72,4.86,7.7,7.7,0,0,1-4.47,2.55l6.44,8.69H202l-6.22-8.55h-1.94v8.55Zm8.68-20h-4.19v7.81H198a4.41,4.41,0,0,0,3.11-1.06,3.57,3.57,0,0,0,1.17-2.77,3.76,3.76,0,0,0-1.2-2.84A4.26,4.26,0,0,0,198,146.43Z"/><path class="cls-1" d="M227.17,156.26H218.3v6.13H228v4H213.81v-24h13.95v4H218.3v5.83h8.87Z"/><path class="cls-1" d="M238.06,166.1a2.17,2.17,0,0,1-1.61.7,2.06,2.06,0,0,1-1.57-.7,2.42,2.42,0,0,1-.65-1.69,2.48,2.48,0,0,1,.65-1.71,2,2,0,0,1,1.57-.71,2.19,2.19,0,0,1,1.61.68,2.52,2.52,0,0,1,.67,1.74A2.35,2.35,0,0,1,238.06,166.1Zm7.28,0a2.15,2.15,0,0,1-1.6.7,2.08,2.08,0,0,1-1.58-.7,2.41,2.41,0,0,1-.64-1.69,2.47,2.47,0,0,1,.64-1.71,2.05,2.05,0,0,1,1.58-.71,2.17,2.17,0,0,1,1.6.68,2.52,2.52,0,0,1,.67,1.74A2.35,2.35,0,0,1,245.34,166.1Zm7.29,0a2.17,2.17,0,0,1-1.61.7,2.06,2.06,0,0,1-1.57-.7,2.42,2.42,0,0,1-.65-1.69,2.48,2.48,0,0,1,.65-1.71A2,2,0,0,1,251,162a2.19,2.19,0,0,1,1.61.68,2.52,2.52,0,0,1,.67,1.74A2.35,2.35,0,0,1,252.63,166.1Z"/><path class="cls-1" d="M263.42,166.1a2.19,2.19,0,0,1-1.61.7,2.09,2.09,0,0,1-1.58-.7,2.45,2.45,0,0,1-.64-1.69,2.52,2.52,0,0,1,.64-1.71,2.07,2.07,0,0,1,1.58-.71,2.21,2.21,0,0,1,1.61.68,2.56,2.56,0,0,1,.67,1.74A2.39,2.39,0,0,1,263.42,166.1Z"/><path class="cls-1" d="M7.61,183.94v-4.31H27.36v4.31H19.73v19.65h-4.5V183.94Z"/><path class="cls-1" d="M33.09,203.59v-24h9.38a8.09,8.09,0,0,1,5.77,2.18,7.43,7.43,0,0,1,2.3,5.68,7.23,7.23,0,0,1-1.71,4.86,7.75,7.75,0,0,1-4.48,2.55l6.44,8.69h-5L39.52,195H37.59v8.55Zm8.68-20H37.59v7.81h4.18a4.45,4.45,0,0,0,3.12-1.06,3.59,3.59,0,0,0,1.16-2.77,3.79,3.79,0,0,0-1.19-2.84A4.3,4.3,0,0,0,41.77,183.63Z"/><path class="cls-1" d="M57.55,203.59v-24H62v24Z"/><path class="cls-1" d="M76.79,203.59l-9.17-24h4.69l6.58,17.23,6.5-17.23h4.54l-9.07,24Z"/><path class="cls-1" d="M101.06,203.9a11.48,11.48,0,0,1-4.52-.94,11.76,11.76,0,0,1-3.89-2.62l2.86-3.42a8.57,8.57,0,0,0,2.64,2.15,6.72,6.72,0,0,0,3.15.83,3.89,3.89,0,0,0,2.56-.82,2.59,2.59,0,0,0,1-2.07c0-1.49-.88-2.6-2.63-3.32l-2.68-1.07a10.44,10.44,0,0,1-4-2.64,6.12,6.12,0,0,1-1.29-4.08,6.21,6.21,0,0,1,2-4.55,7,7,0,0,1,5.08-2,10.32,10.32,0,0,1,7.38,2.74l-2.65,3.34a6.15,6.15,0,0,0-4.73-2.08,3.19,3.19,0,0,0-2.15.69,2.13,2.13,0,0,0-.81,1.69,2.24,2.24,0,0,0,.63,1.64,6.38,6.38,0,0,0,2.06,1.24l2.79,1.12c3.56,1.42,5.36,3.72,5.43,6.91a6.74,6.74,0,0,1-2.25,5.25A8.76,8.76,0,0,1,101.06,203.9Z"/><path class="cls-1" d="M129.56,193.46H120.7v6.13h9.73v4H116.2v-24h14v4H120.7v5.83h8.86Z"/><path class="cls-1" d="M137.72,203.59v-24h4.49v19.66H151v4.3Z"/><path class="cls-1" d="M151.39,183.94v-4.31h19.74v4.31h-7.62v19.65H159V183.94Z"/><path class="cls-1" d="M176.87,203.59v-24h9.38a8.09,8.09,0,0,1,5.77,2.18,7.47,7.47,0,0,1,2.3,5.68,7.19,7.19,0,0,1-1.72,4.86,7.7,7.7,0,0,1-4.47,2.55l6.44,8.69h-5L183.3,195h-1.94v8.55Zm8.68-20h-4.19v7.81h4.19a4.41,4.41,0,0,0,3.11-1.06,3.57,3.57,0,0,0,1.17-2.77,3.76,3.76,0,0,0-1.2-2.84A4.26,4.26,0,0,0,185.55,183.63Z"/><path class="cls-1" d="M213.43,179.63h4.82l-7.93,14.23v9.73h-4.5V194l-8-14.38h4.94l5.4,9.94Z"/><path class="cls-1" d="M237.32,193.58v-4h8.59l0,2a12.24,12.24,0,0,1-1.75,6.35,12,12,0,0,1-4.54,4.42,12.41,12.41,0,0,1-6.11,1.57,12.44,12.44,0,1,1,.07-24.87,11.77,11.77,0,0,1,8.92,3.88l-3.06,3a7.8,7.8,0,0,0-5.89-2.59,7.61,7.61,0,0,0-5.74,2.35,8.48,8.48,0,0,0,0,11.55,7.34,7.34,0,0,0,5.44,2.35,8.52,8.52,0,0,0,5.33-1.67,7.6,7.6,0,0,0,2.82-4.41Z"/><path class="cls-1" d="M268,193.58v-4h8.59l0,2a12.24,12.24,0,0,1-1.75,6.35,12,12,0,0,1-4.54,4.42,12.44,12.44,0,0,1-6.11,1.57,12.44,12.44,0,1,1,.07-24.87,11.77,11.77,0,0,1,8.92,3.88l-3.06,3a7.8,7.8,0,0,0-5.89-2.59,7.61,7.61,0,0,0-5.74,2.35,8.48,8.48,0,0,0,0,11.55,7.34,7.34,0,0,0,5.44,2.35,8.52,8.52,0,0,0,5.33-1.67,7.6,7.6,0,0,0,2.82-4.41Z"/><path class="cls-1" d="M287.37,203.3a2.16,2.16,0,0,1-1.59.7,2.13,2.13,0,0,1-1.59-.7,2.42,2.42,0,0,1-.65-1.69,2.48,2.48,0,0,1,.65-1.71,2.11,2.11,0,0,1,1.59-.71,2.18,2.18,0,0,1,1.59.68,2.55,2.55,0,0,1,.66,1.74A2.38,2.38,0,0,1,287.37,203.3ZM284.1,197l-.41-16.68h4.25L287.57,197Z"/></svg>