<svg id="Layer_1" data-name="Layer 1" xmlns="http://www.w3.org/2000/svg" viewBox="0 0 160 600"><defs><style>.cls-1{fill:#0059ac;}</style></defs><title>text</title><path class="cls-1" d="M16.3,100.35H29.24v2.29H18.83v5.66H28v2.22H18.83V119H16.3Z"/><path class="cls-1" d="M31.64,100.35H34v2.59H31.64Zm0,5.12H34V119H31.64Z"/><path class="cls-1" d="M45.81,105.78a5.13,5.13,0,0,1,2.06,1.76,6.07,6.07,0,0,1,.91,2.4,16.12,16.12,0,0,1,.2,3H39.09a5.84,5.84,0,0,0,1,3.33,3.22,3.22,0,0,0,2.81,1.25,3.6,3.6,0,0,0,2.83-1.18,3.91,3.91,0,0,0,.84-1.6h2.25a4.81,4.81,0,0,1-.59,1.67,6.11,6.11,0,0,1-1.12,1.51,5.35,5.35,0,0,1-2.56,1.37,7.94,7.94,0,0,1-1.85.2,5.66,5.66,0,0,1-4.28-1.85,7.19,7.19,0,0,1-1.75-5.17,7.84,7.84,0,0,1,1.77-5.32,5.79,5.79,0,0,1,4.61-2A6,6,0,0,1,45.81,105.78Zm.82,5.34a6,6,0,0,0-.64-2.38,3.29,3.29,0,0,0-3.11-1.65,3.44,3.44,0,0,0-2.62,1.14,4.31,4.31,0,0,0-1.12,2.89Z"/><path class="cls-1" d="M51.94,100.35h2.28V119H51.94Z"/><path class="cls-1" d="M65.12,105.82a6.6,6.6,0,0,1,1.38,1.33v-6.86h2.19V119h-2v-1.89a4.86,4.86,0,0,1-1.89,1.81,5.25,5.25,0,0,1-2.49.56,5,5,0,0,1-3.92-1.91,7.5,7.5,0,0,1-1.65-5.08,8.79,8.79,0,0,1,1.51-5.15,4.93,4.93,0,0,1,4.32-2.18A4.8,4.8,0,0,1,65.12,105.82ZM60,116a3.23,3.23,0,0,0,3,1.47,3.11,3.11,0,0,0,2.59-1.37,6.44,6.44,0,0,0,1-3.91,5.83,5.83,0,0,0-1-3.82A3.28,3.28,0,0,0,63,107.15a3.41,3.41,0,0,0-2.79,1.33,6.06,6.06,0,0,0-1.06,3.88A6.74,6.74,0,0,0,60,116Z"/><path class="cls-1" d="M72.11,105.4h2.26v1.93a7.66,7.66,0,0,1,1.47-1.46,4.5,4.5,0,0,1,2.57-.77,4,4,0,0,1,2.61.8,4.24,4.24,0,0,1,1,1.34,5,5,0,0,1,1.79-1.61,4.86,4.86,0,0,1,2.31-.53,3.77,3.77,0,0,1,3.73,2A6.42,6.42,0,0,1,90.4,110v9H88v-9.45a2.2,2.2,0,0,0-.68-1.86,2.67,2.67,0,0,0-1.66-.51,3.27,3.27,0,0,0-2.31.9,4,4,0,0,0-1,3V119H80.08v-8.87a4.59,4.59,0,0,0-.33-2,2,2,0,0,0-1.94-1,3.34,3.34,0,0,0-2.35,1c-.71.67-1.06,1.88-1.06,3.63V119H72.11Z"/><path class="cls-1" d="M101.06,110.77a1.25,1.25,0,0,0,1-.66,2,2,0,0,0,.15-.88,1.87,1.87,0,0,0-.83-1.7,4.43,4.43,0,0,0-2.37-.53,3,3,0,0,0-2.54,1,3.17,3.17,0,0,0-.54,1.6H93.84a4,4,0,0,1,1.63-3.51,6.69,6.69,0,0,1,3.64-1A7.39,7.39,0,0,1,103,106a3.09,3.09,0,0,1,1.48,2.84v7.83a1,1,0,0,0,.15.58.71.71,0,0,0,.61.21l.35,0,.4-.06v1.69a5.45,5.45,0,0,1-.81.19,5.08,5.08,0,0,1-.76,0,1.86,1.86,0,0,1-1.71-.84,3.16,3.16,0,0,1-.4-1.25,5.64,5.64,0,0,1-2,1.58,6.25,6.25,0,0,1-2.89.68,4.31,4.31,0,0,1-3.09-1.15,3.81,3.81,0,0,1-1.2-2.87,3.72,3.72,0,0,1,1.18-2.93,5.58,5.58,0,0,1,3.1-1.28Zm-4.82,6.17a2.72,2.72,0,0,0,1.72.57,5.21,5.21,0,0,0,2.33-.55,3.15,3.15,0,0,0,1.91-3v-1.84a3.9,3.9,0,0,1-1.08.45,10.45,10.45,0,0,1-1.29.25l-1.38.18a5.28,5.28,0,0,0-1.87.52,2,2,0,0,0-1.06,1.9A1.88,1.88,0,0,0,96.24,116.94Z"/><path class="cls-1" d="M115.7,105.82a6.6,6.6,0,0,1,1.38,1.33v-6.86h2.19V119h-2v-1.89a4.86,4.86,0,0,1-1.89,1.81,5.25,5.25,0,0,1-2.49.56,5,5,0,0,1-3.92-1.91,7.5,7.5,0,0,1-1.66-5.08,8.86,8.86,0,0,1,1.51-5.15,5,5,0,0,1,4.32-2.18A4.82,4.82,0,0,1,115.7,105.82ZM110.6,116a3.22,3.22,0,0,0,3,1.47,3.11,3.11,0,0,0,2.6-1.37,6.44,6.44,0,0,0,1-3.91,5.83,5.83,0,0,0-1-3.82,3.28,3.28,0,0,0-2.59-1.24,3.39,3.39,0,0,0-2.79,1.33,6.06,6.06,0,0,0-1.06,3.88A6.74,6.74,0,0,0,110.6,116Z"/><path class="cls-1" d="M131.09,105.78a5.1,5.1,0,0,1,2,1.76,5.92,5.92,0,0,1,.91,2.4,15.27,15.27,0,0,1,.2,3h-9.89a6,6,0,0,0,1,3.33,3.23,3.23,0,0,0,2.81,1.25,3.62,3.62,0,0,0,2.84-1.18,4.16,4.16,0,0,0,.84-1.6h2.24a4.61,4.61,0,0,1-.59,1.67,5.65,5.65,0,0,1-1.12,1.51,5.32,5.32,0,0,1-2.55,1.37,8.1,8.1,0,0,1-1.86.2,5.64,5.64,0,0,1-4.27-1.85,7.2,7.2,0,0,1-1.76-5.17,7.84,7.84,0,0,1,1.77-5.32,5.83,5.83,0,0,1,4.62-2A6,6,0,0,1,131.09,105.78Zm.81,5.34a5.87,5.87,0,0,0-.64-2.38,3.29,3.29,0,0,0-3.11-1.65,3.44,3.44,0,0,0-2.62,1.14,4.36,4.36,0,0,0-1.12,2.89Z"/><path class="cls-1" d="M138.35,105.58H141v2.77h-2.66Zm0,10.65H141V119h-2.66Z"/><path class="cls-1" d="M44.72,141.88l4.1-3.19V141l-2.74,2.1,2.74,2.11v2.29l-4.1-3.19Zm5.33,0,4.1-3.19V141l-2.74,2.1,2.74,2.11v2.29l-4.1-3.19Z"/><path class="cls-1" d="M59,131.55H71.89v2.29H61.48v5.66h9.15v2.22H61.48v8.48H59Z"/><path class="cls-1" d="M73.78,150.15l1.63-1.71a7.3,7.3,0,0,1-1-2.11,9.75,9.75,0,0,1-.35-2.76,8.51,8.51,0,0,1,1.62-5.12,5.46,5.46,0,0,1,4.71-2.24,6.59,6.59,0,0,1,2.83.57,8.32,8.32,0,0,1,1.63,1.1l1.62-1.78.66.64-1.63,1.82a7.79,7.79,0,0,1,1.14,2.68,8.64,8.64,0,0,1,.22,1.95,8.08,8.08,0,0,1-1.78,5.4,5.87,5.87,0,0,1-4.74,2.13,7.22,7.22,0,0,1-2.51-.41,4.72,4.72,0,0,1-1.78-1.12l-1.54,1.62Zm8.49-11.57a4.24,4.24,0,0,0-1.77-.36,3.5,3.5,0,0,0-3,1.54,6.57,6.57,0,0,0-1.13,4,7.78,7.78,0,0,0,.2,1.76,12.26,12.26,0,0,0,.39,1.19l6.45-7.2A2.67,2.67,0,0,0,82.27,138.58Zm-3.35,9.9a4.8,4.8,0,0,0,1.49.25,3.51,3.51,0,0,0,3.44-2.26,7.54,7.54,0,0,0,.62-3.13,8.57,8.57,0,0,0-.2-2,5.29,5.29,0,0,0-.35-1l-6.36,7.17A3.31,3.31,0,0,0,78.92,148.48Z"/><path class="cls-1" d="M90.23,131.55h2.29V150.2H90.23Z"/><path class="cls-1" d="M104.34,137a5.13,5.13,0,0,1,2.06,1.76,6.07,6.07,0,0,1,.91,2.4,16.12,16.12,0,0,1,.2,3H97.62a5.92,5.92,0,0,0,1,3.33,3.23,3.23,0,0,0,2.81,1.25,3.6,3.6,0,0,0,2.83-1.18,3.91,3.91,0,0,0,.84-1.6h2.25a4.81,4.81,0,0,1-.59,1.67,5.87,5.87,0,0,1-1.12,1.51,5.27,5.27,0,0,1-2.56,1.37,7.94,7.94,0,0,1-1.85.2,5.66,5.66,0,0,1-4.28-1.85,7.24,7.24,0,0,1-1.75-5.17,7.86,7.86,0,0,1,1.77-5.32,5.8,5.8,0,0,1,4.62-2A6,6,0,0,1,104.34,137Zm.82,5.34a5.87,5.87,0,0,0-.64-2.38,3.29,3.29,0,0,0-3.11-1.65,3.44,3.44,0,0,0-2.62,1.14,4.33,4.33,0,0,0-1.12,2.89Z"/><path class="cls-1" d="M111.76,145.93a3.3,3.3,0,0,0,.59,1.76,3.7,3.7,0,0,0,3.05,1.1,4.59,4.59,0,0,0,2.29-.55,1.84,1.84,0,0,0,1-1.71,1.44,1.44,0,0,0-.79-1.33,9.23,9.23,0,0,0-2-.65l-1.85-.46a9.06,9.06,0,0,1-2.61-1,2.89,2.89,0,0,1-1.49-2.57,3.9,3.9,0,0,1,1.41-3.12,5.7,5.7,0,0,1,3.79-1.19,5.31,5.31,0,0,1,4.49,1.8,3.87,3.87,0,0,1,.83,2.46h-2.16a2.62,2.62,0,0,0-.55-1.4,3.63,3.63,0,0,0-2.8-.89,3.43,3.43,0,0,0-2,.49,1.54,1.54,0,0,0-.68,1.3,1.61,1.61,0,0,0,.9,1.42,5.36,5.36,0,0,0,1.52.56l1.54.36a12.16,12.16,0,0,1,3.37,1.16,3,3,0,0,1,1.33,2.75,4.21,4.21,0,0,1-1.39,3.14,6,6,0,0,1-4.25,1.32q-3.08,0-4.35-1.38a5.13,5.13,0,0,1-1.37-3.41Z"/><path class="cls-1" d="M38.79,177.13a3.3,3.3,0,0,0,.58,1.76,3.73,3.73,0,0,0,3.06,1.1,4.53,4.53,0,0,0,2.28-.55,1.83,1.83,0,0,0,1-1.71,1.44,1.44,0,0,0-.79-1.33,9.6,9.6,0,0,0-2-.65l-1.84-.46a9.06,9.06,0,0,1-2.61-1A2.87,2.87,0,0,1,37,171.76a3.93,3.93,0,0,1,1.4-3.12,5.71,5.71,0,0,1,3.79-1.19q3.12,0,4.49,1.8a3.83,3.83,0,0,1,.84,2.46H45.34a2.56,2.56,0,0,0-.56-1.4,3.61,3.61,0,0,0-2.79-.89,3.41,3.41,0,0,0-2,.49,1.54,1.54,0,0,0-.68,1.3,1.61,1.61,0,0,0,.9,1.42,5.69,5.69,0,0,0,1.52.56l1.54.36a12.18,12.18,0,0,1,3.36,1.16A3.05,3.05,0,0,1,48,177.46a4.19,4.19,0,0,1-1.4,3.14,6,6,0,0,1-4.25,1.32q-3.06,0-4.35-1.38a5.18,5.18,0,0,1-1.37-3.41Z"/><path class="cls-1" d="M60.28,169.16a6.83,6.83,0,0,1,1.81,5.15,8.87,8.87,0,0,1-1.59,5.43,5.73,5.73,0,0,1-4.93,2.14A5.57,5.57,0,0,1,51.14,180a7.56,7.56,0,0,1-1.63-5.1,8.13,8.13,0,0,1,1.72-5.45,5.79,5.79,0,0,1,4.64-2A6.07,6.07,0,0,1,60.28,169.16Zm-1.41,9a8.74,8.74,0,0,0,.83-3.83,6.85,6.85,0,0,0-.6-3.09,3.39,3.39,0,0,0-3.29-1.88,3.23,3.23,0,0,0-3,1.6,7.45,7.45,0,0,0-.95,3.85,6.5,6.5,0,0,0,.95,3.62,3.29,3.29,0,0,0,3,1.44A3.13,3.13,0,0,0,58.87,178.2Z"/><path class="cls-1" d="M64.89,167.8h2.26v1.93a7.67,7.67,0,0,1,1.48-1.46,4.44,4.44,0,0,1,2.56-.77,3.61,3.61,0,0,1,3.63,2.14,4.7,4.7,0,0,1,4.1-2.14,3.77,3.77,0,0,1,3.73,2,6.41,6.41,0,0,1,.54,2.87v9.05H80.81V172a2.17,2.17,0,0,0-.68-1.86,2.66,2.66,0,0,0-1.65-.51,3.3,3.3,0,0,0-2.32.9,4,4,0,0,0-1,3v7.91H72.87v-8.87a4.59,4.59,0,0,0-.33-2,2,2,0,0,0-2-1,3.34,3.34,0,0,0-2.35,1c-.71.67-1.06,1.88-1.06,3.63v7.21H64.89Z"/><path class="cls-1" d="M102.17,168.18a5.13,5.13,0,0,1,2.06,1.76,6.08,6.08,0,0,1,.91,2.39,16.32,16.32,0,0,1,.2,3H95.45a5.92,5.92,0,0,0,1,3.33,3.22,3.22,0,0,0,2.81,1.25,3.6,3.6,0,0,0,2.83-1.18,3.91,3.91,0,0,0,.84-1.6h2.25a4.81,4.81,0,0,1-.59,1.67,6.11,6.11,0,0,1-1.12,1.51,5.35,5.35,0,0,1-2.56,1.37,7.94,7.94,0,0,1-1.85.2A5.66,5.66,0,0,1,94.75,180,7.19,7.19,0,0,1,93,174.86a7.84,7.84,0,0,1,1.77-5.32,5.79,5.79,0,0,1,4.61-2A6,6,0,0,1,102.17,168.18Zm.82,5.34a6,6,0,0,0-.64-2.38,3.29,3.29,0,0,0-3.11-1.65,3.44,3.44,0,0,0-2.62,1.14,4.31,4.31,0,0,0-1.12,2.89Z"/><path class="cls-1" d="M108.23,167.8h2.18v1.93a6.13,6.13,0,0,1,2-1.71,5.41,5.41,0,0,1,2.4-.52c1.93,0,3.23.67,3.91,2a7.18,7.18,0,0,1,.56,3.16v8.72H117v-8.57a4.76,4.76,0,0,0-.36-2,2.25,2.25,0,0,0-2.21-1.27,4.55,4.55,0,0,0-1.34.17,3.51,3.51,0,0,0-1.65,1.12,3.43,3.43,0,0,0-.74,1.39,9.65,9.65,0,0,0-.17,2.05v7.12h-2.29Z"/><path class="cls-1" d="M17.53,194.85c.54-.78,1.56-1.17,3.09-1.17l.44,0,.52,0v2.09l-.52,0h-.3q-1.05,0-1.26.54a11,11,0,0,0-.2,2.75h2.28v1.8H19.3V212.6H17V200.87H15.15v-1.8H17v-2.14A4.12,4.12,0,0,1,17.53,194.85Z"/><path class="cls-1" d="M33.54,200.36a6.87,6.87,0,0,1,1.8,5.15,8.94,8.94,0,0,1-1.58,5.43,5.74,5.74,0,0,1-4.93,2.14,5.56,5.56,0,0,1-4.43-1.89,7.57,7.57,0,0,1-1.64-5.1,8.13,8.13,0,0,1,1.73-5.45,5.79,5.79,0,0,1,4.64-2A6.07,6.07,0,0,1,33.54,200.36Zm-1.42,9a8.61,8.61,0,0,0,.84-3.83,6.74,6.74,0,0,0-.61-3.09,3.38,3.38,0,0,0-3.28-1.88,3.26,3.26,0,0,0-3,1.6,7.56,7.56,0,0,0-.94,3.86,6.55,6.55,0,0,0,.94,3.61,3.32,3.32,0,0,0,3,1.44A3.1,3.1,0,0,0,32.12,209.4Z"/><path class="cls-1" d="M38.21,199h2.17v2.35a5.31,5.31,0,0,1,1.31-1.67,3.43,3.43,0,0,1,2.4-1h.22l.52,0v2.41l-.38,0h-.37a3.25,3.25,0,0,0-2.65,1.11,3.86,3.86,0,0,0-.93,2.56v7.82H38.21Z"/><path class="cls-1" d="M46.87,194h2.29V212.6H46.87Z"/><path class="cls-1" d="M61,199.38A5.13,5.13,0,0,1,63,201.14a6.07,6.07,0,0,1,.91,2.4,16.12,16.12,0,0,1,.2,3H54.26a5.92,5.92,0,0,0,1,3.33A3.22,3.22,0,0,0,58,211.11a3.6,3.6,0,0,0,2.83-1.18,3.91,3.91,0,0,0,.84-1.6H64a4.81,4.81,0,0,1-.59,1.67,6.11,6.11,0,0,1-1.12,1.51,5.27,5.27,0,0,1-2.56,1.37,7.94,7.94,0,0,1-1.85.2,5.66,5.66,0,0,1-4.28-1.85,7.19,7.19,0,0,1-1.75-5.17,7.84,7.84,0,0,1,1.77-5.32,5.79,5.79,0,0,1,4.61-2A6,6,0,0,1,61,199.38Zm.82,5.34a6,6,0,0,0-.64-2.38,3.29,3.29,0,0,0-3.11-1.65,3.44,3.44,0,0,0-2.62,1.14,4.31,4.31,0,0,0-1.12,2.89Z"/><path class="cls-1" d="M67,199h2.18v1.93a6.13,6.13,0,0,1,2-1.71,5.41,5.41,0,0,1,2.4-.52c1.93,0,3.23.67,3.91,2a7.18,7.18,0,0,1,.56,3.16v8.72H75.8V204a4.76,4.76,0,0,0-.36-2,2.25,2.25,0,0,0-2.21-1.27,4.55,4.55,0,0,0-1.34.17A3.51,3.51,0,0,0,70.24,202a3.43,3.43,0,0,0-.74,1.39,9.65,9.65,0,0,0-.17,2v7.12H67Z"/><path class="cls-1" d="M89.06,199.55a6.59,6.59,0,0,1,1.32,1.29v-1.71h2.11V211.5a9.22,9.22,0,0,1-.76,4.08c-1,1.85-2.73,2.77-5.36,2.77a6.62,6.62,0,0,1-3.68-1A3.88,3.88,0,0,1,81,214.29h2.33A2.51,2.51,0,0,0,84,215.7a3.34,3.34,0,0,0,2.43.76c1.74,0,2.88-.62,3.42-1.85a10.64,10.64,0,0,0,.44-3.9,4.56,4.56,0,0,1-1.64,1.55,5.93,5.93,0,0,1-6.4-1.06Q80.6,209.63,80.6,206a7.86,7.86,0,0,1,1.67-5.33,5.11,5.11,0,0,1,4-1.92A4.88,4.88,0,0,1,89.06,199.55Zm.28,2.45a3.32,3.32,0,0,0-2.64-1.22A3.25,3.25,0,0,0,83.42,203,8.92,8.92,0,0,0,83,206.2a5.64,5.64,0,0,0,.93,3.5,3,3,0,0,0,2.49,1.2,3.49,3.49,0,0,0,3.45-2.22,7.24,7.24,0,0,0,.56-2.94A5.68,5.68,0,0,0,89.34,202Z"/><path class="cls-1" d="M104.36,199.38a5.13,5.13,0,0,1,2.06,1.76,6.07,6.07,0,0,1,.91,2.4,16.12,16.12,0,0,1,.2,3H97.64a5.92,5.92,0,0,0,1,3.33,3.22,3.22,0,0,0,2.81,1.25,3.6,3.6,0,0,0,2.83-1.18,3.91,3.91,0,0,0,.84-1.6h2.25a4.81,4.81,0,0,1-.59,1.67,6.11,6.11,0,0,1-1.12,1.51,5.27,5.27,0,0,1-2.56,1.37,7.94,7.94,0,0,1-1.85.2,5.66,5.66,0,0,1-4.28-1.85,7.19,7.19,0,0,1-1.75-5.17A7.84,7.84,0,0,1,97,200.74a5.79,5.79,0,0,1,4.61-2A6,6,0,0,1,104.36,199.38Zm.82,5.34a6,6,0,0,0-.64-2.38,3.29,3.29,0,0,0-3.11-1.65,3.44,3.44,0,0,0-2.62,1.14,4.31,4.31,0,0,0-1.12,2.89Z"/><path class="cls-1" d="M110.49,194h2.28V212.6h-2.28Z"/><path class="cls-1" d="M117.56,208.33a3.3,3.3,0,0,0,.58,1.76,3.73,3.73,0,0,0,3.06,1.1,4.58,4.58,0,0,0,2.28-.55,1.83,1.83,0,0,0,1-1.71,1.46,1.46,0,0,0-.79-1.33,9.6,9.6,0,0,0-2-.65l-1.84-.46a9.06,9.06,0,0,1-2.61-1,2.88,2.88,0,0,1-1.5-2.57,3.9,3.9,0,0,1,1.41-3.12,5.7,5.7,0,0,1,3.79-1.19c2.08,0,3.57.6,4.49,1.8a3.83,3.83,0,0,1,.84,2.46h-2.16a2.56,2.56,0,0,0-.56-1.4,3.62,3.62,0,0,0-2.79-.89,3.39,3.39,0,0,0-2,.49,1.52,1.52,0,0,0-.68,1.3,1.62,1.62,0,0,0,.89,1.42,5.57,5.57,0,0,0,1.53.56l1.54.36a12.18,12.18,0,0,1,3.36,1.16,3.05,3.05,0,0,1,1.34,2.75,4.19,4.19,0,0,1-1.4,3.14,6,6,0,0,1-4.25,1.32q-3.08,0-4.35-1.38a5.18,5.18,0,0,1-1.37-3.41Z"/><path class="cls-1" d="M137.6,199.38a5.2,5.2,0,0,1,2.06,1.76,6.06,6.06,0,0,1,.9,2.4,15.09,15.09,0,0,1,.21,3h-9.89a5.84,5.84,0,0,0,1,3.33,3.22,3.22,0,0,0,2.81,1.25,3.61,3.61,0,0,0,2.83-1.18,4.16,4.16,0,0,0,.84-1.6h2.25A4.81,4.81,0,0,1,140,210a6.11,6.11,0,0,1-1.12,1.51,5.27,5.27,0,0,1-2.56,1.37,8,8,0,0,1-1.85.2,5.64,5.64,0,0,1-4.28-1.85,7.19,7.19,0,0,1-1.75-5.17,7.88,7.88,0,0,1,1.76-5.32,5.83,5.83,0,0,1,4.62-2A6,6,0,0,1,137.6,199.38Zm.82,5.34a6,6,0,0,0-.64-2.38,3.3,3.3,0,0,0-3.11-1.65,3.42,3.42,0,0,0-2.62,1.14,4.26,4.26,0,0,0-1.12,2.89Z"/><path class="cls-1" d="M48.34,235.57a1.25,1.25,0,0,0,1-.66,2,2,0,0,0,.15-.88,1.85,1.85,0,0,0-.83-1.7,4.43,4.43,0,0,0-2.37-.53,3,3,0,0,0-2.54,1,3.27,3.27,0,0,0-.54,1.6H41.13a3.93,3.93,0,0,1,1.63-3.51,6.63,6.63,0,0,1,3.63-1,7.37,7.37,0,0,1,3.89.92,3.1,3.1,0,0,1,1.49,2.84v7.83a1,1,0,0,0,.14.58.72.72,0,0,0,.62.21l.34,0,.41-.06v1.69a5.82,5.82,0,0,1-.82.19,5.08,5.08,0,0,1-.76,0,1.87,1.87,0,0,1-1.71-.84,3.16,3.16,0,0,1-.4-1.25,5.64,5.64,0,0,1-2,1.58,6.18,6.18,0,0,1-2.88.68,4.31,4.31,0,0,1-3.09-1.15,3.81,3.81,0,0,1-1.2-2.87,3.68,3.68,0,0,1,1.18-2.93A5.55,5.55,0,0,1,44.69,236Zm-4.81,6.17a2.67,2.67,0,0,0,1.71.57,5.28,5.28,0,0,0,2.34-.55,3.14,3.14,0,0,0,1.9-3v-1.84a3.62,3.62,0,0,1-1.08.44,8.93,8.93,0,0,1-1.29.26l-1.38.18a5.28,5.28,0,0,0-1.87.52,2,2,0,0,0-1.06,1.9A1.86,1.86,0,0,0,43.53,241.74Z"/><path class="cls-1" d="M56.63,230.2l3.64,11.07,3.78-11.07h2.5l-5.12,13.6H59l-5-13.6Z"/><path class="cls-1" d="M76.86,230.2l3.63,11.07,3.78-11.07h2.5l-5.12,13.6H79.22l-5-13.6Z"/><path class="cls-1" d="M96,235.57a1.26,1.26,0,0,0,1.06-.66,2,2,0,0,0,.15-.88,1.87,1.87,0,0,0-.83-1.7A4.49,4.49,0,0,0,94,231.8a3,3,0,0,0-2.53,1,3.26,3.26,0,0,0-.55,1.6H88.81a4,4,0,0,1,1.63-3.51,6.63,6.63,0,0,1,3.63-1,7.41,7.41,0,0,1,3.9.92,3.11,3.11,0,0,1,1.48,2.84v7.83a1,1,0,0,0,.15.58c.09.14.3.21.61.21l.34,0,.41-.06v1.69a6.09,6.09,0,0,1-.81.19,5.17,5.17,0,0,1-.76,0,1.89,1.89,0,0,1-1.72-.84,3.17,3.17,0,0,1-.39-1.25,5.77,5.77,0,0,1-2,1.58,6.18,6.18,0,0,1-2.88.68,4.31,4.31,0,0,1-3.09-1.15,3.81,3.81,0,0,1-1.2-2.87,3.68,3.68,0,0,1,1.18-2.93,5.58,5.58,0,0,1,3.1-1.28Zm-4.81,6.17a2.67,2.67,0,0,0,1.71.57,5.22,5.22,0,0,0,2.34-.55,3.14,3.14,0,0,0,1.9-3v-1.84a3.45,3.45,0,0,1-1.07.44,8.8,8.8,0,0,1-1.3.26l-1.38.18a5.22,5.22,0,0,0-1.86.52,2,2,0,0,0-1.06,1.9A1.88,1.88,0,0,0,91.21,241.74Zm3.22-18.58a2.65,2.65,0,1,1,0,5.3,2.65,2.65,0,0,1,0-5.3Zm0,4.25a1.55,1.55,0,0,0,1.13-.47,1.59,1.59,0,0,0,0-2.26,1.55,1.55,0,0,0-1.13-.47,1.6,1.6,0,0,0,0,3.2Z"/><path class="cls-1" d="M103.26,230.2h2.17v2.35a5.16,5.16,0,0,1,1.31-1.67,3.4,3.4,0,0,1,2.4-1h.21l.52.05v2.41l-.37-.05h-.38a3.26,3.26,0,0,0-2.65,1.11,3.86,3.86,0,0,0-.93,2.56v7.82h-2.28Z"/><path class="cls-1" d="M112.31,226.41h2.31v3.79h2.17v1.87h-2.17v8.87a1,1,0,0,0,.48,1,2.16,2.16,0,0,0,.89.13h.36c.12,0,.27,0,.44-.05v1.82a4.25,4.25,0,0,1-.82.16,6.56,6.56,0,0,1-.92.06,2.5,2.5,0,0,1-2.17-.82,3.67,3.67,0,0,1-.57-2.13v-9h-1.84V230.2h1.84Z"/><path class="cls-1" d="M27,261.78a5.2,5.2,0,0,1,2.06,1.76,6.06,6.06,0,0,1,.9,2.4,15.09,15.09,0,0,1,.21,3H20.31a5.84,5.84,0,0,0,1,3.33,3.22,3.22,0,0,0,2.81,1.25,3.61,3.61,0,0,0,2.83-1.18,4.16,4.16,0,0,0,.84-1.6H30a4.81,4.81,0,0,1-.59,1.67,6.11,6.11,0,0,1-1.12,1.51,5.35,5.35,0,0,1-2.56,1.37,8,8,0,0,1-1.85.2,5.64,5.64,0,0,1-4.28-1.85,7.19,7.19,0,0,1-1.75-5.17,7.88,7.88,0,0,1,1.76-5.32,5.83,5.83,0,0,1,4.62-2A6,6,0,0,1,27,261.78Zm.82,5.34a6,6,0,0,0-.64-2.38,3.3,3.3,0,0,0-3.11-1.65,3.42,3.42,0,0,0-2.62,1.14,4.26,4.26,0,0,0-1.12,2.89Z"/><path class="cls-1" d="M40.65,262A6.32,6.32,0,0,1,42,263.24v-1.71h2.11V273.9a9.08,9.08,0,0,1-.76,4.08c-.94,1.85-2.73,2.77-5.35,2.77a6.57,6.57,0,0,1-3.68-1,3.85,3.85,0,0,1-1.67-3.08h2.32a2.59,2.59,0,0,0,.66,1.41,3.36,3.36,0,0,0,2.42.76c1.74,0,2.89-.62,3.42-1.85a10.58,10.58,0,0,0,.45-3.9,4.58,4.58,0,0,1-1.65,1.55,5.92,5.92,0,0,1-6.39-1.06q-1.65-1.58-1.65-5.19a7.86,7.86,0,0,1,1.66-5.33,5.14,5.14,0,0,1,4-1.92A4.88,4.88,0,0,1,40.65,262Zm.28,2.45a3.32,3.32,0,0,0-2.64-1.22A3.24,3.24,0,0,0,35,265.44a8.7,8.7,0,0,0-.47,3.16,5.64,5.64,0,0,0,.93,3.5A3,3,0,0,0,38,273.3a3.51,3.51,0,0,0,3.45-2.22,7.24,7.24,0,0,0,.55-2.94A5.68,5.68,0,0,0,40.93,264.4Z"/><path class="cls-1" d="M56,261.78A5.2,5.2,0,0,1,58,263.54a6.06,6.06,0,0,1,.9,2.4,15.09,15.09,0,0,1,.21,3H49.23a5.84,5.84,0,0,0,1,3.33A3.22,3.22,0,0,0,53,273.51a3.61,3.61,0,0,0,2.83-1.18,4.16,4.16,0,0,0,.84-1.6h2.25a4.81,4.81,0,0,1-.59,1.67,6.11,6.11,0,0,1-1.12,1.51,5.35,5.35,0,0,1-2.56,1.37,8,8,0,0,1-1.85.2,5.64,5.64,0,0,1-4.28-1.85,7.19,7.19,0,0,1-1.75-5.17,7.88,7.88,0,0,1,1.76-5.32,5.83,5.83,0,0,1,4.62-2A6,6,0,0,1,56,261.78Zm.82,5.34a6,6,0,0,0-.64-2.38A3.3,3.3,0,0,0,53,263.09a3.42,3.42,0,0,0-2.62,1.14,4.26,4.26,0,0,0-1.12,2.89Z"/><path class="cls-1" d="M62.47,257.61h2.31v3.79H67v1.87H64.78v8.87a1,1,0,0,0,.48,1,2.13,2.13,0,0,0,.89.13h.35a4.4,4.4,0,0,0,.45-.05V275a4.41,4.41,0,0,1-.82.16,6.56,6.56,0,0,1-.92.06A2.49,2.49,0,0,1,63,274.4a3.67,3.67,0,0,1-.57-2.13v-9H60.63V261.4h1.84Z"/><path class="cls-1" d="M76.92,257.61h2.31v3.79H81.4v1.87H79.23v8.87a1,1,0,0,0,.48,1,2.13,2.13,0,0,0,.89.13H81a4.4,4.4,0,0,0,.45-.05V275a4.57,4.57,0,0,1-.82.16,6.67,6.67,0,0,1-.92.06,2.49,2.49,0,0,1-2.17-.82,3.67,3.67,0,0,1-.57-2.13v-9H75.07V261.4h1.85Z"/><path class="cls-1" d="M92.08,261.78a5.13,5.13,0,0,1,2.06,1.76,6.06,6.06,0,0,1,.9,2.4,15.09,15.09,0,0,1,.21,3H85.36a5.84,5.84,0,0,0,1,3.33,3.22,3.22,0,0,0,2.81,1.25A3.6,3.6,0,0,0,92,272.33a3.91,3.91,0,0,0,.84-1.6h2.25a4.81,4.81,0,0,1-.59,1.67,6.11,6.11,0,0,1-1.12,1.51,5.35,5.35,0,0,1-2.56,1.37,8,8,0,0,1-1.85.2,5.66,5.66,0,0,1-4.28-1.85,7.19,7.19,0,0,1-1.75-5.17,7.88,7.88,0,0,1,1.76-5.32,5.83,5.83,0,0,1,4.62-2A6,6,0,0,1,92.08,261.78Zm.82,5.34a6,6,0,0,0-.64-2.38,3.29,3.29,0,0,0-3.11-1.65,3.42,3.42,0,0,0-2.62,1.14,4.26,4.26,0,0,0-1.12,2.89Z"/><path class="cls-1" d="M105.43,266.77a1.25,1.25,0,0,0,1-.66,2,2,0,0,0,.15-.88,1.85,1.85,0,0,0-.83-1.7,4.43,4.43,0,0,0-2.37-.53,3,3,0,0,0-2.53,1,3.26,3.26,0,0,0-.55,1.6H98.22a3.93,3.93,0,0,1,1.63-3.51,6.63,6.63,0,0,1,3.63-1,7.34,7.34,0,0,1,3.89.92,3.1,3.1,0,0,1,1.49,2.84v7.83a1.11,1.11,0,0,0,.14.58.73.73,0,0,0,.62.21l.34,0,.41-.06v1.69a5.82,5.82,0,0,1-.82.19,5.08,5.08,0,0,1-.76,0,1.87,1.87,0,0,1-1.71-.84,3,3,0,0,1-.39-1.25,5.77,5.77,0,0,1-2,1.58,6.18,6.18,0,0,1-2.88.68,4.31,4.31,0,0,1-3.09-1.15,3.81,3.81,0,0,1-1.2-2.87,3.68,3.68,0,0,1,1.18-2.93,5.55,5.55,0,0,1,3.1-1.28Zm-4.81,6.17a2.67,2.67,0,0,0,1.71.57,5.25,5.25,0,0,0,2.34-.55,3.14,3.14,0,0,0,1.9-3v-1.84a3.9,3.9,0,0,1-1.08.45,10.11,10.11,0,0,1-1.29.25l-1.38.18a5.28,5.28,0,0,0-1.87.52,2,2,0,0,0-1.06,1.9A1.86,1.86,0,0,0,100.62,272.94Z"/><path class="cls-1" d="M112.6,261.4h2.26v1.93a7.66,7.66,0,0,1,1.47-1.46,4.5,4.5,0,0,1,2.57-.77,4,4,0,0,1,2.61.8,4.1,4.1,0,0,1,1,1.34,5,5,0,0,1,1.79-1.61,4.86,4.86,0,0,1,2.31-.53,3.77,3.77,0,0,1,3.73,2,6.41,6.41,0,0,1,.54,2.87V275h-2.38v-9.45a2.2,2.2,0,0,0-.68-1.86,2.66,2.66,0,0,0-1.65-.51,3.3,3.3,0,0,0-2.32.9,4,4,0,0,0-1,3V275h-2.33v-8.87a4.59,4.59,0,0,0-.33-2,2,2,0,0,0-1.94-1,3.34,3.34,0,0,0-2.35,1c-.71.67-1.06,1.88-1.06,3.63V275H112.6Z"/><path class="cls-1" d="M135,270l2.69-2.11-2.69-2.1v-2.29l4.1,3.18v2.42l-4.1,3.19Zm5.34,0,2.67-2.11-2.67-2.1v-2.29l4.1,3.18v2.43l-4.1,3.18Z"/></svg>