<svg id="Layer_1" data-name="Layer 1" xmlns="http://www.w3.org/2000/svg" viewBox="0 0 980 120"><defs><style>.cls-1{fill:#d4ac76;}</style></defs><title>text</title><path class="cls-1" d="M851.84,64.84V54.79h1.88V63h3.7v1.8Z"/><path class="cls-1" d="M858.9,64.84l3.87-10.05h1.7l3.86,10.05H866.4l-.54-1.39h-4.49l-.54,1.39Zm3.85-11.08a.79.79,0,0,1-.61.27.83.83,0,0,1-.62-.27.9.9,0,0,1-.26-.64.92.92,0,0,1,.25-.64.93.93,0,0,1,.63-.26.85.85,0,0,1,.61.26.87.87,0,0,1,.25.64A.89.89,0,0,1,862.75,53.76Zm.87,3.85L862,61.77h3.2Zm2.12-3.85a.9.9,0,0,1-.66.27.94.94,0,0,1-.67-.27.87.87,0,0,1-.27-.64.85.85,0,0,1,.27-.64,1,1,0,0,1,.67-.26.93.93,0,0,1,.66.26.83.83,0,0,1,.28.64A.84.84,0,0,1,865.74,53.76Z"/><path class="cls-1" d="M873.27,65a4.93,4.93,0,0,1-1.9-.39,5.1,5.1,0,0,1-1.63-1.1l1.2-1.44a3.49,3.49,0,0,0,1.11.9,2.79,2.79,0,0,0,1.32.36,1.62,1.62,0,0,0,1.07-.35,1.08,1.08,0,0,0,.42-.87,1.49,1.49,0,0,0-1.1-1.39l-1.12-.45A4.19,4.19,0,0,1,871,59.13a2.54,2.54,0,0,1-.54-1.71,2.57,2.57,0,0,1,.85-1.9,2.92,2.92,0,0,1,2.13-.84,4.3,4.3,0,0,1,3.09,1.15l-1.1,1.4a2.58,2.58,0,0,0-2-.88,1.37,1.37,0,0,0-.9.29.88.88,0,0,0-.34.71,1,1,0,0,0,.26.69,2.79,2.79,0,0,0,.87.52l1.17.47a3.11,3.11,0,0,1,2.28,2.9,2.83,2.83,0,0,1-1,2.2A3.66,3.66,0,0,1,873.27,65Z"/><path class="cls-1" d="M884.31,64.84V54.79h1.82l3.11,5,3.14-5h2V64.84h-1.88V58l-.16,0-3.11,4.81-3-4.74h0v6.83Z"/><path class="cls-1" d="M903.17,60.59h-3.71v2.58h4.08v1.67h-6V54.79h5.85v1.68h-4v2.45h3.71Z"/><path class="cls-1" d="M906.33,64.84V54.79h3.94a3.41,3.41,0,0,1,2.42.92,3.13,3.13,0,0,1,1,2.38,3,3,0,0,1-.72,2,3.3,3.3,0,0,1-1.87,1.07l2.7,3.64h-2.12L909,61.25h-.81v3.59ZM910,56.47h-1.75v3.28H910a1.84,1.84,0,0,0,1.31-.45,1.52,1.52,0,0,0,.49-1.16,1.6,1.6,0,0,0-.5-1.19A1.82,1.82,0,0,0,910,56.47Z"/></svg>