<svg id="Layer_1" data-name="Layer 1" xmlns="http://www.w3.org/2000/svg" viewBox="0 0 250 360"><defs><style>.cls-1{fill:#d80201;}</style></defs><title>text</title><path class="cls-1" d="M63.89,174.52H62.16l-7.1-17.09h3.55l4.45,11.19,4.5-11.19h3.52Z"/><path class="cls-1" d="M80.86,174.1v-1.43a4.17,4.17,0,0,1-3.52,1.78c-3.25,0-5.33-2.7-5.33-5.8s2.08-5.73,5.25-5.73a4.49,4.49,0,0,1,3.6,1.73v-1.38h3V174.1Zm-5.22-12.85a1.8,1.8,0,1,1,0-3.6,1.8,1.8,0,1,1,0,3.6Zm2.52,4.4a3,3,0,1,0,3,3A3,3,0,0,0,78.16,165.65Zm2.68-4.4a1.83,1.83,0,0,1-1.8-1.8,1.8,1.8,0,1,1,1.8,1.8Z"/><path class="cls-1" d="M86.81,174.1V155.38h3V174.1Z"/><path class="cls-1" d="M94.21,160.52A1.82,1.82,0,1,1,96,158.7,1.83,1.83,0,0,1,94.21,160.52Zm-1.52,19.35v-16.6h3v16.6Z"/><path class="cls-1" d="M108.26,174.45a5.76,5.76,0,0,1-4.12-1.8l1.6-1.85a3.51,3.51,0,0,0,2.55,1.27,1.27,1.27,0,0,0,1.37-1.2c0-1.85-4.82-.92-4.82-4.57,0-2.2,1.82-3.43,3.87-3.43a5.6,5.6,0,0,1,3.53,1.15l-1.5,1.78a3.05,3.05,0,0,0-1.8-.73c-.53,0-1.15.33-1.15.93,0,1.57,5,.87,5,4.57C112.79,173.1,110.59,174.45,108.26,174.45Z"/><path class="cls-1" d="M120.56,174.45c-3.45,0-6.2-2.15-6.2-5.75s2.75-5.78,6.23-5.78,6.14,2.18,6.14,5.75S124,174.45,120.56,174.45Zm0-8.8a3,3,0,1,0,3.07,3A3.06,3.06,0,0,0,120.54,165.65Z"/><path class="cls-1" d="M129.06,174.1V155.38h3V174.1Z"/><path class="cls-1" d="M140.31,174.45a5.71,5.71,0,0,1-5.9-5.73,5.78,5.78,0,0,1,6-5.8,5.6,5.6,0,0,1,2.75.65v3a3.73,3.73,0,0,0-2.45-.92,3,3,0,1,0,0,6.07,3.67,3.67,0,0,0,2.45-.92v3A5.71,5.71,0,0,1,140.31,174.45Z"/><path class="cls-1" d="M147.94,169.17c.05,1.68.85,2.9,2.65,2.9a2.81,2.81,0,0,0,2.57-1.45l2.8.45a5.31,5.31,0,0,1-5.32,3.38,5.43,5.43,0,0,1-5.8-5.78,5.36,5.36,0,0,1,5.67-5.75c3.57,0,5.52,2.4,5.52,5.85v.4Zm2.62-4.1a2.45,2.45,0,0,0-2.52,2.18h5.12A2.51,2.51,0,0,0,150.56,165.07Z"/><path class="cls-1" d="M158.36,174.1V155.38h3V174.1Z"/><path class="cls-1" d="M164.29,174.1V155.38h3V174.1Z"/><path class="cls-1" d="M172.74,169.17c0,1.68.85,2.9,2.65,2.9a2.84,2.84,0,0,0,2.57-1.45l2.8.45a5.31,5.31,0,0,1-5.32,3.38,5.43,5.43,0,0,1-5.8-5.78,5.36,5.36,0,0,1,5.67-5.75c3.57,0,5.52,2.4,5.52,5.85v.4Zm2.62-4.1a2.45,2.45,0,0,0-2.52,2.18H178A2.52,2.52,0,0,0,175.36,165.07Z"/><path class="cls-1" d="M190.23,166a2.69,2.69,0,0,0-1.44-.37c-2,0-2.6,1.45-2.6,3.25v5.2h-3V163.27h3v1.63a3.47,3.47,0,0,1,3.14-2,3.57,3.57,0,0,1,1.33.25Z"/><path class="cls-1" d="M73,204.45c-3.45,0-6.2-2.15-6.2-5.75s2.75-5.78,6.23-5.78,6.15,2.18,6.15,5.75S76.39,204.45,73,204.45Zm0-8.8a3,3,0,1,0,3.07,3A3.06,3.06,0,0,0,72.94,195.65Z"/><path class="cls-1" d="M86.79,204.45a5.7,5.7,0,0,1-5.9-5.73,5.78,5.78,0,0,1,6-5.8,5.66,5.66,0,0,1,2.75.65v3a3.73,3.73,0,0,0-2.45-.92,3,3,0,1,0,0,6.07,3.69,3.69,0,0,0,2.45-.92v3A5.77,5.77,0,0,1,86.79,204.45Z"/><path class="cls-1" d="M99.64,204.1v-5.93c0-1.5-.33-2.67-2.08-2.67s-2.3,1.45-2.3,3.05v5.55h-3V185.38h3v9.29a4,4,0,0,1,3.4-1.75,4.13,4.13,0,0,1,3.15,1.33,4.26,4.26,0,0,1,.85,3.05v6.8Z"/><path class="cls-1" d="M114.94,195.87v8.23h-3v-8.23h-1.17v-2.6h1.17V189.8a5.23,5.23,0,0,1,.48-2.55,4.28,4.28,0,0,1,3.75-2.17,3.61,3.61,0,0,1,1.6.37v2.78a3,3,0,0,0-1.38-.4c-1.35,0-1.42,1.39-1.42,2.42v3h2.8v2.6Z"/><path class="cls-1" d="M127.41,204.1v-1.43a4.17,4.17,0,0,1-3.52,1.78c-3.25,0-5.33-2.7-5.33-5.8s2.08-5.73,5.25-5.73a4.49,4.49,0,0,1,3.6,1.73v-1.38h3.05V204.1Zm-2.7-8.45a3,3,0,1,0,3,3A3,3,0,0,0,124.71,195.65Zm-.42-4.27a2.25,2.25,0,0,1,0-4.5,2.25,2.25,0,1,1,0,4.5Zm0-3.13a.88.88,0,1,0,.87.88A.85.85,0,0,0,124.29,188.25Z"/><path class="cls-1" d="M153.43,204.1v-5.93c0-1.27-.2-2.67-1.8-2.67-1.77,0-2.07,1.62-2.07,3.05v5.55h-3v-5.75a4.72,4.72,0,0,0-.23-1.8,1.74,1.74,0,0,0-1.62-1.05,2,2,0,0,0-1.7,1,4.46,4.46,0,0,0-.35,2.08v5.55h-3V193.27h3v1.23a4.14,4.14,0,0,1,3.3-1.58,3.69,3.69,0,0,1,3.37,2,4,4,0,0,1,3.55-2,3.57,3.57,0,0,1,3,1.55,4.8,4.8,0,0,1,.58,2.63v7Z"/><path class="cls-1" d="M161.89,199.17c.05,1.68.85,2.9,2.65,2.9a2.82,2.82,0,0,0,2.57-1.45l2.8.45a5.31,5.31,0,0,1-5.32,3.38,5.43,5.43,0,0,1-5.8-5.78,5.36,5.36,0,0,1,5.67-5.75c3.57,0,5.52,2.4,5.52,5.85v.4Zm2.62-4.1a2.45,2.45,0,0,0-2.52,2.18h5.12A2.51,2.51,0,0,0,164.51,195.07Z"/><path class="cls-1" d="M179.38,196a2.69,2.69,0,0,0-1.44-.37c-2.05,0-2.6,1.45-2.6,3.25v5.2h-3V193.27h3v1.63a3.47,3.47,0,0,1,3.14-2,3.57,3.57,0,0,1,1.33.25Z"/><path class="cls-1" d="M183,204.42a1.95,1.95,0,1,1,1.95-1.95A1.95,1.95,0,0,1,183,204.42Zm-1.55-5.1V187.43h3.1v11.89Z"/></svg>