<svg id="Layer_1" data-name="Layer 1" xmlns="http://www.w3.org/2000/svg" viewBox="0 0 250 360"><defs><style>.cls-1{fill:#d80201;}</style></defs><title>text</title><path class="cls-1" d="M67.1,153v17.73H62.94V153H58.17v-3.62H71.9V153Z"/><path class="cls-1" d="M75.86,153.33a2.34,2.34,0,0,1,0-4.67,2.34,2.34,0,0,1,0,4.67Zm-2,17.37V156.85h3.87v13.85Z"/><path class="cls-1" d="M81.43,170.71v-24H85.3v24Z"/><path class="cls-1" d="M89,170.71v-24h3.87v24Z"/><path class="cls-1" d="M103.64,171h-1.79l-7.07-14.14h4.35l3.65,7.81,3.65-7.81h4.35Z"/><path class="cls-1" d="M122.55,170.71v-1.82a5.35,5.35,0,0,1-4.51,2.27c-4.16,0-6.82-3.46-6.82-7.42s2.66-7.33,6.72-7.33a5.77,5.77,0,0,1,4.61,2.21v-1.76h3.9v13.85Zm-3.46-10.82a3.89,3.89,0,1,0,3.87,3.87A3.86,3.86,0,0,0,119.09,159.89Z"/><path class="cls-1" d="M130.17,170.71v-24H134v24Z"/><path class="cls-1" d="M149.75,160.18v10.53h-3.87V160.18h-1.5v-3.33h1.5v-4.45a6.75,6.75,0,0,1,.61-3.26,5.49,5.49,0,0,1,4.8-2.78,4.58,4.58,0,0,1,2,.48v3.55a3.86,3.86,0,0,0-1.76-.51c-1.73,0-1.82,1.79-1.82,3.1v3.87h3.58v3.33Z"/><path class="cls-1" d="M162.33,171.16c-4.42,0-7.93-2.75-7.93-7.36s3.52-7.39,8-7.39,7.87,2.78,7.87,7.36S166.71,171.16,162.33,171.16ZM159,154.26a2.3,2.3,0,0,1,0-4.61,2.3,2.3,0,0,1,0,4.61Zm3.33,5.63a3.89,3.89,0,1,0,3.94,3.9A3.92,3.92,0,0,0,162.29,159.89Zm3.33-5.63a2.34,2.34,0,0,1-2.3-2.3,2.3,2.3,0,1,1,2.3,2.3Z"/><path class="cls-1" d="M182.26,160.37a3.43,3.43,0,0,0-1.86-.48c-2.62,0-3.33,1.86-3.33,4.16v6.66h-3.87V156.85h3.87v2.08a4.52,4.52,0,0,1,5.73-2.21Z"/><path class="cls-1" d="M65.59,209.65a9.12,9.12,0,0,1-6.82-2.78l1.38-3.58A7.15,7.15,0,0,0,65.53,206a4.23,4.23,0,0,0,4.26-4.13c0-2.62-2.43-4.26-4.86-4.26a7,7,0,0,0-4.1,1.34H60.6l2.53-11.2H73v3.65h-7l-.83,3.3a12.86,12.86,0,0,1,1.57-.13A7.17,7.17,0,0,1,73.94,202C73.94,206.87,70.17,209.65,65.59,209.65Z"/><path class="cls-1" d="M85.14,209.65c-5.89,0-8.25-6.21-8.25-11.2s2.34-11.23,8.25-11.23,8.26,6.17,8.26,11.2S91.06,209.65,85.14,209.65Zm0-18.75c-3.26,0-4.1,5.06-4.1,7.52s.83,7.58,4.1,7.58,4.1-5.12,4.1-7.58S88.41,190.9,85.14,190.9Z"/><path class="cls-1" d="M111.29,209.65c-5.89,0-8.25-6.21-8.25-11.2s2.34-11.23,8.25-11.23,8.26,6.17,8.26,11.2S117.21,209.65,111.29,209.65Zm0-18.75c-3.26,0-4.1,5.06-4.1,7.52s.83,7.58,4.1,7.58,4.1-5.12,4.1-7.58S114.55,190.9,111.29,190.9Z"/><path class="cls-1" d="M129.43,209.65c-5.89,0-8.25-6.21-8.25-11.2s2.34-11.23,8.25-11.23,8.26,6.17,8.26,11.2S135.35,209.65,129.43,209.65Zm0-18.75c-3.26,0-4.1,5.06-4.1,7.52s.83,7.58,4.1,7.58,4.1-5.12,4.1-7.58S132.69,190.9,129.43,190.9Z"/><path class="cls-1" d="M147.57,209.65c-5.89,0-8.25-6.21-8.25-11.2s2.34-11.23,8.25-11.23,8.26,6.17,8.26,11.2S153.49,209.65,147.57,209.65Zm0-18.75c-3.26,0-4.1,5.06-4.1,7.52s.83,7.58,4.1,7.58,4.1-5.12,4.1-7.58S150.84,190.9,147.57,190.9Z"/><path class="cls-1" d="M176,209.11l-5.22-6-.42.42v5.54h-3.87v-24h3.87v15.17l5.18-5.06h5.25l-6.5,6.08,7,7.78Z"/><path class="cls-1" d="M192.12,198.77a3.43,3.43,0,0,0-1.86-.48c-2.62,0-3.33,1.86-3.33,4.16v6.66h-3.87V195.25h3.87v2.08a4.52,4.52,0,0,1,5.73-2.21Z"/></svg>