<svg id="Layer_1" data-name="Layer 1" xmlns="http://www.w3.org/2000/svg" viewBox="0 0 250 360"><defs><style>.cls-1{fill:#d80201;}</style></defs><title>text</title><path class="cls-1" d="M65.35,134v4.74H72v3.61H65.35v9.38H61.19V130.37h11.3V134Z"/><path class="cls-1" d="M84.58,141.37a3.44,3.44,0,0,0-1.85-.48c-2.63,0-3.33,1.86-3.33,4.16v6.66H75.53V137.85H79.4v2.09a4.46,4.46,0,0,1,4-2.53,4.35,4.35,0,0,1,1.7.32Z"/><path class="cls-1" d="M88.94,134.34a2.34,2.34,0,0,1,0-4.68,2.34,2.34,0,0,1,0,4.68Zm-2,17.37V137.85h3.88v13.86Z"/><path class="cls-1" d="M105.09,151.71v-1.82a5.34,5.34,0,0,1-4.51,2.27c-4.16,0-6.81-3.46-6.81-7.43s2.65-7.32,6.72-7.32a5.74,5.74,0,0,1,4.6,2.2v-1.76H109v13.86Zm-3.45-10.82a3.89,3.89,0,1,0,3.87,3.88A3.87,3.87,0,0,0,101.64,140.89Z"/><path class="cls-1" d="M124.62,141.18v10.53h-3.88V141.18h-1.53v-3.33h1.53v-4.73h3.88v4.73h2.71v3.33Z"/><path class="cls-1" d="M131.24,134.34a2.34,2.34,0,0,1,0-4.68,2.34,2.34,0,0,1,0,4.68Zm-2,17.37V137.85h3.87v13.86Z"/><path class="cls-1" d="M136.81,151.71v-24h3.87v24Z"/><path class="cls-1" d="M144.39,151.71v-24h3.87v24Z"/><path class="cls-1" d="M159,152h-1.79l-7.07-14.15h4.35l3.65,7.81,3.65-7.81h4.35Z"/><path class="cls-1" d="M177.93,151.71v-1.82a5.37,5.37,0,0,1-4.52,2.27c-4.16,0-6.81-3.46-6.81-7.43s2.65-7.32,6.72-7.32a5.77,5.77,0,0,1,4.61,2.2v-1.76h3.9v13.86Zm-3.46-10.82a3.89,3.89,0,1,0,3.87,3.88A3.87,3.87,0,0,0,174.47,140.89Z"/><path class="cls-1" d="M185.54,151.71v-24h3.87v24Z"/><path class="cls-1" d="M65.26,190.65a9.13,9.13,0,0,1-6.82-2.78l1.38-3.58A7.14,7.14,0,0,0,65.19,187a4.24,4.24,0,0,0,4.26-4.13c0-2.63-2.43-4.26-4.87-4.26A7,7,0,0,0,60.49,180h-.23l2.53-11.2h9.86v3.65h-7l-.83,3.29a13.67,13.67,0,0,1,1.56-.13A7.17,7.17,0,0,1,73.61,183C73.61,187.87,69.83,190.65,65.26,190.65Z"/><path class="cls-1" d="M84.81,190.65c-5.89,0-8.26-6.2-8.26-11.2s2.34-11.23,8.26-11.23,8.25,6.18,8.25,11.2S90.73,190.65,84.81,190.65Zm0-18.75c-3.27,0-4.1,5.06-4.1,7.52s.83,7.59,4.1,7.59,4.09-5.12,4.09-7.59S88.07,171.9,84.81,171.9Z"/><path class="cls-1" d="M111,190.65c-5.89,0-8.25-6.2-8.25-11.2S105,168.22,111,168.22s8.26,6.18,8.26,11.2S116.87,190.65,111,190.65Zm0-18.75c-3.26,0-4.09,5.06-4.09,7.52S107.69,187,111,187s4.1-5.12,4.1-7.59S114.22,171.9,111,171.9Z"/><path class="cls-1" d="M129.09,190.65c-5.88,0-8.25-6.2-8.25-11.2s2.34-11.23,8.25-11.23,8.26,6.18,8.26,11.2S135,190.65,129.09,190.65Zm0-18.75c-3.26,0-4.09,5.06-4.09,7.52s.83,7.59,4.09,7.59,4.1-5.12,4.1-7.59S132.36,171.9,129.09,171.9Z"/><path class="cls-1" d="M147.24,190.65c-5.89,0-8.26-6.2-8.26-11.2s2.34-11.23,8.26-11.23,8.25,6.18,8.25,11.2S153.16,190.65,147.24,190.65Zm0-18.75c-3.27,0-4.1,5.06-4.1,7.52s.83,7.59,4.1,7.59,4.09-5.12,4.09-7.59S150.5,171.9,147.24,171.9Z"/><path class="cls-1" d="M175.69,190.11l-5.22-6-.42.41v5.54h-3.87v-24h3.87v15.17l5.19-5.06h5.25l-6.5,6.08,7,7.78Z"/><path class="cls-1" d="M191.78,179.77a3.44,3.44,0,0,0-1.85-.48c-2.63,0-3.33,1.86-3.33,4.16v6.66h-3.87V176.25h3.87v2.08a4.44,4.44,0,0,1,4-2.52,4.35,4.35,0,0,1,1.7.32Z"/><path class="cls-1" d="M82.62,228.8h-1.8l-7.07-14.15H78.1l3.65,7.81,3.65-7.81h4.35Z"/><path class="cls-1" d="M93.53,211.13a2.34,2.34,0,1,1,0-4.67,2.34,2.34,0,0,1,0,4.67Zm-2,17.38V214.65h3.87v13.86Z"/><path class="cls-1" d="M109.69,228.51v-1.82a5.37,5.37,0,0,1-4.51,2.27c-4.16,0-6.82-3.46-6.82-7.43s2.66-7.32,6.72-7.32a5.77,5.77,0,0,1,4.61,2.2V204.54h3.9v24Zm-3.46-10.82a3.89,3.89,0,1,0,3.87,3.88A3.87,3.87,0,0,0,106.23,217.69Z"/><path class="cls-1" d="M134.81,228.51l-5.22-5.95-.41.41v5.54H125.3v-24h3.88v15.17l5.18-5.06h5.25l-6.5,6.08,7,7.78Z"/><path class="cls-1" d="M149.05,229c-4.42,0-7.94-2.75-7.94-7.36s3.52-7.39,8-7.39S157,217,157,221.57,153.43,229,149.05,229Zm-3.36-16.9a2.3,2.3,0,1,1,0-4.6,2.3,2.3,0,1,1,0,4.6Zm3.33,5.63A3.89,3.89,0,1,0,153,221.6,3.92,3.92,0,0,0,149,217.69Zm3.32-5.63a2.33,2.33,0,0,1-2.3-2.3,2.31,2.31,0,1,1,2.3,2.3Z"/><path class="cls-1" d="M168.44,229a5.55,5.55,0,0,1-4.64-2.27v9.21h-3.87V214.65h3.87v1.76a5.52,5.52,0,0,1,4.54-2.2c4.13,0,6.85,3.42,6.85,7.39S172.5,229,168.44,229Zm-1.15-11.27a3.89,3.89,0,1,0,3.87,3.88A3.86,3.86,0,0,0,167.29,217.69Z"/></svg>