<svg id="Layer_1" data-name="Layer 1" xmlns="http://www.w3.org/2000/svg" viewBox="0 0 300 250"><defs><style>.cls-1{fill:#d4ac76;}</style></defs><title>text</title><path class="cls-1" d="M104.87,108.5l-3.47-8.89h1.4l2.66,6.83,2.67-6.83h1.37L106,108.5Z"/><path class="cls-1" d="M112,108.5V99.61h1.24v8.89Z"/><path class="cls-1" d="M121.64,108.5V99.61h4.86v1.18h-3.62v2.8h3.2v1.18h-3.2v3.73Z"/><path class="cls-1" d="M129.26,108.5V99.61h1.24v8.89Z"/><path class="cls-1" d="M134.14,108.5V99.61h3.3a2.78,2.78,0,0,1,2,.77,2.75,2.75,0,0,1-1.56,4.74l2.58,3.38h-1.53l-2.56-3.39h-1v3.39Zm3.14-7.71h-1.89V104h1.88a1.75,1.75,0,0,0,1.25-.44,1.48,1.48,0,0,0,.49-1.17,1.51,1.51,0,0,0-.49-1.13A1.74,1.74,0,0,0,137.28,100.79Z"/><path class="cls-1" d="M142.3,108.5l3.57-8.89H147l3.5,8.89h-1.37l-.54-1.37h-4.36l-.55,1.37Zm4.13-6.85L144.7,106h3.41Z"/><path class="cls-1" d="M153,108.5V99.61h3.3a2.81,2.81,0,0,1,2,.77,2.75,2.75,0,0,1-1.56,4.74l2.57,3.38h-1.53l-2.55-3.39h-1v3.39Zm3.13-7.71H154.2V104h1.88a1.79,1.79,0,0,0,1.26-.44,1.5,1.5,0,0,0,.48-1.17,1.48,1.48,0,0,0-.49-1.13A1.74,1.74,0,0,0,156.09,100.79Z"/><path class="cls-1" d="M166.37,108.5v-.78l3.55-4.69a1.8,1.8,0,0,0,.49-1.13,1.28,1.28,0,0,0-.39-1,1.33,1.33,0,0,0-1-.38,1.23,1.23,0,0,0-1,.43,1.7,1.7,0,0,0-.41,1.12H166.4a2.64,2.64,0,0,1,.74-1.89,2.51,2.51,0,0,1,1.89-.77,2.65,2.65,0,0,1,1.89.7,2.29,2.29,0,0,1,.74,1.74,3.16,3.16,0,0,1-.94,2L168,107.4h3.82v1.1Z"/><path class="cls-1" d="M177.07,108.64a3,3,0,0,1-1.8-.55,2.79,2.79,0,0,1-1.06-1.44l1.13-.44a1.78,1.78,0,0,0,.64.89,1.75,1.75,0,0,0,1.09.35,1.73,1.73,0,0,0,1.28-.51,1.7,1.7,0,0,0,.5-1.26,1.66,1.66,0,0,0-.52-1.25,1.74,1.74,0,0,0-1.25-.5,1.63,1.63,0,0,0-1.26.54h-1.24V99.61h5v1.18h-3.74v2.39a2.39,2.39,0,0,1,1.26-.35,3,3,0,0,1,2.18.81,2.75,2.75,0,0,1,.84,2,2.85,2.85,0,0,1-.88,2.09A2.94,2.94,0,0,1,177.07,108.64Z"/><path class="cls-1" d="M186.8,108.5l3.57-8.89h1.12l3.5,8.89h-1.37l-.54-1.37h-4.35l-.55,1.37Zm4.13-6.85L189.2,106h3.42Zm.86-2.64a1.23,1.23,0,1,1,.35-.86A1.19,1.19,0,0,1,191.79,99Zm-.86-.37a.49.49,0,0,0,.34-.14.47.47,0,0,0,.14-.35.46.46,0,0,0-.14-.35.45.45,0,0,0-.34-.14.45.45,0,0,0-.35.14.46.46,0,0,0-.14.35.47.47,0,0,0,.14.35A.48.48,0,0,0,190.93,98.64Z"/><path class="cls-1" d="M197.46,108.5V99.61h3.3a2.78,2.78,0,0,1,2,.77,2.75,2.75,0,0,1-1.56,4.74l2.58,3.38h-1.53l-2.56-3.39h-1v3.39Zm3.14-7.71h-1.9V104h1.88a1.76,1.76,0,0,0,1.26-.44,1.48,1.48,0,0,0,.49-1.17,1.51,1.51,0,0,0-.49-1.13A1.74,1.74,0,0,0,200.6,100.79Z"/><path class="cls-1" d="M90.86,123.5l3.57-8.89h1.12l3.5,8.89H97.68l-.54-1.37H92.78l-.55,1.37ZM95,116.65,93.26,121h3.41Z"/><path class="cls-1" d="M103.3,123.5l-3.47-8.89h1.39l2.67,6.83,2.67-6.83h1.37l-3.48,8.89Z"/><path class="cls-1" d="M120.9,123.5v-3.85h-4.33v3.85h-1.24v-8.89h1.24v3.85h4.33v-3.85h1.24v8.89Z"/><path class="cls-1" d="M128.87,123.65a3.11,3.11,0,0,1-2.32-.93,3.24,3.24,0,0,1-.91-2.35v-5.76h1.25v5.69a2.26,2.26,0,0,0,.53,1.55,1.8,1.8,0,0,0,1.45.61,1.88,1.88,0,0,0,1.47-.6,2.23,2.23,0,0,0,.54-1.55v-5.7h1.24v5.76a3.2,3.2,0,0,1-.91,2.35A3.11,3.11,0,0,1,128.87,123.65Z"/><path class="cls-1" d="M138,123.62a4.12,4.12,0,0,1-1.67-.36,4.52,4.52,0,0,1-1.41-1l.88-1a3.45,3.45,0,0,0,1,.81,2.68,2.68,0,0,0,1.23.32,1.71,1.71,0,0,0,1.15-.38,1.19,1.19,0,0,0,.45-1,1.56,1.56,0,0,0-1.13-1.45l-1.05-.42a3.69,3.69,0,0,1-1.45-1,2.1,2.1,0,0,1-.48-1.41,2.28,2.28,0,0,1,.73-1.68,2.56,2.56,0,0,1,1.82-.69,3.61,3.61,0,0,1,2.58,1l-.75,1a2.46,2.46,0,0,0-1.83-.8,1.37,1.37,0,0,0-.94.31,1,1,0,0,0-.37.82,1,1,0,0,0,.27.69,2.44,2.44,0,0,0,.9.55l1.07.43a2.52,2.52,0,0,1,1.87,2.54,2.43,2.43,0,0,1-.79,1.87A3,3,0,0,1,138,123.62Z"/><path class="cls-1" d="M143.91,123.5v-8.89h2.38a4.42,4.42,0,0,1,4.4,4.43,4.36,4.36,0,0,1-4.45,4.46Zm2.43-7.71h-1.19v6.53h1.22a2.86,2.86,0,0,0,2.19-1,3.28,3.28,0,0,0,.89-2.32,3.17,3.17,0,0,0-.92-2.31A3,3,0,0,0,146.34,115.79Z"/><path class="cls-1" d="M153.75,123.5v-8.89h3.3a2.79,2.79,0,0,1,2,.77,2.67,2.67,0,0,1,.81,2,2.7,2.7,0,0,1-.67,1.86,2.67,2.67,0,0,1-1.7.87l2.57,3.38h-1.52L156,120.11h-1v3.39Zm3.13-7.71H155V119h1.88a1.76,1.76,0,0,0,1.26-.44,1.59,1.59,0,0,0,0-2.3A1.76,1.76,0,0,0,156.88,115.79Z"/><path class="cls-1" d="M167,123.66a4.38,4.38,0,0,1-3.2-1.31,4.78,4.78,0,0,1,0-6.6,4.55,4.55,0,0,1,6.4,0,4.73,4.73,0,0,1,0,6.58A4.38,4.38,0,0,1,167,123.66Zm-2.33-2.18a3.21,3.21,0,0,0,4.66,0,3.56,3.56,0,0,0,0-4.85,3.18,3.18,0,0,0-4.65,0,3.57,3.57,0,0,0,0,4.85Zm1.5-7.81a.58.58,0,0,1-.44.19.55.55,0,0,1-.44-.19.69.69,0,0,1-.18-.49.68.68,0,0,1,.18-.48.55.55,0,0,1,.44-.19.58.58,0,0,1,.44.19.68.68,0,0,1,.18.48A.69.69,0,0,1,166.15,113.67Zm2.46,0a.56.56,0,0,1-.44.19.58.58,0,0,1-.44-.19.69.69,0,0,1-.18-.49.68.68,0,0,1,.18-.48.58.58,0,0,1,.44-.19.56.56,0,0,1,.44.19.68.68,0,0,1,.18.48A.69.69,0,0,1,168.61,113.67Z"/><path class="cls-1" d="M174.62,123.5v-8.89h1.28l2.86,4.74,2.91-4.74h1.22v8.89h-1.24v-6.57l0,0-2.86,4.59L175.94,117h-.07v6.53Z"/><path class="cls-1" d="M186.55,123.5v-8.89h1.27l2.87,4.74,2.91-4.74h1.22v8.89h-1.25v-6.57l0,0-2.87,4.59-2.8-4.53h-.08v6.53Z"/><path class="cls-1" d="M197.35,123.5l3.57-8.89H202l3.5,8.89h-1.37l-.54-1.37h-4.36l-.55,1.37Zm4.13-6.85-1.73,4.3h3.41Z"/><path class="cls-1" d="M208,123.5v-8.89h3.3a2.79,2.79,0,0,1,2,.77,2.66,2.66,0,0,1,.8,2,2.63,2.63,0,0,1-2.36,2.73l2.57,3.38h-1.53l-2.55-3.39h-1v3.39Zm3.13-7.71h-1.89V119h1.88a1.78,1.78,0,0,0,1.26-.44,1.5,1.5,0,0,0,.48-1.17,1.48,1.48,0,0,0-.49-1.13A1.74,1.74,0,0,0,211.14,115.79Z"/></svg>