<svg id="Layer_1" data-name="Layer 1" xmlns="http://www.w3.org/2000/svg" viewBox="0 0 250 360"><defs><style>.cls-1{fill:#d80201;}</style></defs><title>text</title><path class="cls-1" d="M39.1,159.25V173.1H35.86V159.25H32.13v-2.82H42.85v2.82Z"/><path class="cls-1" d="M50.88,165a2.68,2.68,0,0,0-1.45-.37c-2,0-2.6,1.45-2.6,3.25v5.2h-3V162.27h3v1.62a3.53,3.53,0,0,1,4.47-1.72Z"/><path class="cls-1" d="M61.08,173.1v-1.42a4.18,4.18,0,0,1-3.52,1.77c-3.25,0-5.32-2.7-5.32-5.8s2.07-5.72,5.25-5.72a4.51,4.51,0,0,1,3.6,1.72v-1.37h3V173.1Zm-2.7-8.45a3,3,0,1,0,3,3A3,3,0,0,0,58.38,164.65ZM58,160.38a2.25,2.25,0,0,1,0-4.5,2.25,2.25,0,1,1,0,4.5Zm0-3.12a.87.87,0,1,0,.88.88A.85.85,0,0,0,58,157.25Z"/><path class="cls-1" d="M74.43,173.1v-6c0-1.47-.32-2.6-2-2.6s-2.32,1.38-2.32,3v5.6H67V162.27h3v1.32a4,4,0,0,1,3.4-1.67,3.74,3.74,0,0,1,4,4.3v6.87Z"/><path class="cls-1" d="M90.4,177a5.9,5.9,0,0,1-4.6,1.9c-2.77,0-5.45-1.6-5.75-4.55h3.27a2.41,2.41,0,0,0,2.57,2c1.9,0,2.67-1.32,2.67-3.07v-1.62a4.5,4.5,0,0,1-3.65,1.8c-3.2,0-5.15-2.57-5.15-5.62s2-5.9,5.3-5.9a4.06,4.06,0,0,1,3.5,1.75v-1.4h3V172.7C91.63,174.4,91.55,175.67,90.4,177Zm-4.47-12.37a3,3,0,1,0,3,3A3,3,0,0,0,85.93,164.65Z"/><path class="cls-1" d="M101.1,173.45a4.26,4.26,0,0,1-3.55-1.77v1.42h-3V154.38h3v9.27a4.59,4.59,0,0,1,3.62-1.72c3.17,0,5.27,2.7,5.27,5.72S104.35,173.45,101.1,173.45Zm-.82-8.8a3,3,0,1,0,3,3A3,3,0,0,0,100.28,164.65Z"/><path class="cls-1" d="M114.38,173.45c-3.45,0-6.2-2.15-6.2-5.75s2.75-5.77,6.22-5.77,6.15,2.17,6.15,5.75S117.8,173.45,114.38,173.45Zm0-8.8a3,3,0,1,0,3.07,3A3.06,3.06,0,0,0,114.35,164.65Z"/><path class="cls-1" d="M131.15,173.1v-1.42a4.18,4.18,0,0,1-3.52,1.77c-3.25,0-5.32-2.7-5.32-5.8s2.07-5.72,5.25-5.72a4.51,4.51,0,0,1,3.6,1.72v-9.27h3V173.1Zm-2.7-8.45a3,3,0,1,0,3,3A3,3,0,0,0,128.45,164.65Z"/><path class="cls-1" d="M145.38,173.1v-1.42a4.18,4.18,0,0,1-3.52,1.77c-3.25,0-5.32-2.7-5.32-5.8s2.07-5.72,5.25-5.72a4.51,4.51,0,0,1,3.6,1.72v-9.27h3V173.1Zm-2.7-8.45a3,3,0,1,0,3,3A3,3,0,0,0,142.68,164.65Z"/><path class="cls-1" d="M159.6,173.1v-1.42a4.18,4.18,0,0,1-3.52,1.77c-3.25,0-5.32-2.7-5.32-5.8s2.07-5.72,5.25-5.72a4.51,4.51,0,0,1,3.6,1.72v-1.37h3V173.1Zm-2.7-8.45a3,3,0,1,0,3,3A3,3,0,0,0,156.9,164.65Z"/><path class="cls-1" d="M179.2,173.1v-6c0-1.47-.33-2.6-2-2.6s-2.32,1.38-2.32,3v5.6h-3V162.27h3v1.32a4,4,0,0,1,3.4-1.67,3.74,3.74,0,0,1,4,4.3v6.87Z"/><path class="cls-1" d="M193.4,173.1v-1.42a4.18,4.18,0,0,1-3.52,1.77c-3.25,0-5.32-2.7-5.32-5.8s2.07-5.72,5.25-5.72a4.51,4.51,0,0,1,3.6,1.72v-1.37h3V173.1Zm-5.22-12.85a1.8,1.8,0,1,1,0-3.6,1.8,1.8,0,1,1,0,3.6Zm2.52,4.4a3,3,0,1,0,3,3A3,3,0,0,0,190.7,164.65Zm2.67-4.4a1.82,1.82,0,0,1-1.8-1.8,1.8,1.8,0,1,1,1.8,1.8Z"/><path class="cls-1" d="M206.42,165a2.67,2.67,0,0,0-1.45-.37c-2,0-2.6,1.45-2.6,3.25v5.2h-3V162.27h3v1.62a3.53,3.53,0,0,1,4.47-1.72Z"/><path class="cls-1" d="M36.53,194.87v8.22h-3v-8.22H32.33v-2.6h1.17V188.8a5.28,5.28,0,0,1,.47-2.55,4.28,4.28,0,0,1,3.75-2.17,3.58,3.58,0,0,1,1.6.38v2.77a3,3,0,0,0-1.37-.4c-1.35,0-1.42,1.4-1.42,2.42v3h2.8v2.6Z"/><path class="cls-1" d="M49,203.1v-1.42a4.18,4.18,0,0,1-3.52,1.78c-3.25,0-5.32-2.7-5.32-5.8s2.07-5.72,5.25-5.72a4.51,4.51,0,0,1,3.6,1.72v-1.37h3V203.1Zm-2.7-8.45a3,3,0,1,0,3,3A3,3,0,0,0,46.31,194.65Z"/><path class="cls-1" d="M68.78,203.1v-5.92c0-1.28-.2-2.68-1.8-2.68-1.77,0-2.07,1.63-2.07,3v5.55h-3v-5.75a4.82,4.82,0,0,0-.23-1.8A1.75,1.75,0,0,0,60,194.5a2,2,0,0,0-1.7,1,4.5,4.5,0,0,0-.35,2.07v5.55H55V192.27h3v1.22a4.16,4.16,0,0,1,3.3-1.58,3.68,3.68,0,0,1,3.37,2,4,4,0,0,1,3.55-2,3.56,3.56,0,0,1,3,1.55,4.76,4.76,0,0,1,.57,2.62v7Z"/><path class="cls-1" d="M76.18,189.53a1.82,1.82,0,1,1,0-3.65,1.82,1.82,0,0,1,0,3.65ZM74.66,203.1V192.27h3V203.1Z"/><path class="cls-1" d="M80.53,203.1V184.38h3V203.1Z"/><path class="cls-1" d="M87.93,189.53a1.82,1.82,0,1,1,0-3.65,1.82,1.82,0,0,1,0,3.65Zm-1.52,19.34v-16.6h3v16.6Z"/><path class="cls-1" d="M94.8,198.17c0,1.67.85,2.9,2.65,2.9a2.84,2.84,0,0,0,2.57-1.45l2.8.45a5.31,5.31,0,0,1-5.32,3.38,5.43,5.43,0,0,1-5.8-5.77,5.36,5.36,0,0,1,5.67-5.75c3.57,0,5.52,2.4,5.52,5.85v.4Zm2.62-4.1a2.45,2.45,0,0,0-2.52,2.17H100A2.51,2.51,0,0,0,97.43,194.07Z"/><path class="cls-1" d="M112.63,203.1v-6c0-1.47-.32-2.6-2-2.6s-2.32,1.38-2.32,3v5.6h-3V192.27h3v1.33a4,4,0,0,1,3.4-1.68,3.74,3.74,0,0,1,4,4.3v6.87Z"/><path class="cls-1" d="M130.3,203.32h-1.4l-5.52-11h3.4l2.85,6.1,2.85-6.1h3.4Z"/><path class="cls-1" d="M145.63,203.1v-1.42a4.18,4.18,0,0,1-3.52,1.78c-3.25,0-5.32-2.7-5.32-5.8s2.07-5.72,5.25-5.72a4.51,4.51,0,0,1,3.6,1.72v-1.37h3V203.1Zm-5.22-12.85a1.8,1.8,0,1,1,0-3.6,1.8,1.8,0,0,1,0,3.6Zm2.52,4.4a3,3,0,1,0,3,3A3,3,0,0,0,142.93,194.65Zm2.67-4.4a1.82,1.82,0,0,1-1.8-1.8,1.8,1.8,0,1,1,1.8,1.8Z"/><path class="cls-1" d="M160.3,203.1l-3.1-3.77-3.15,3.77h-3.9l5.15-5.9-4.15-4.92H155l2.22,2.8,2.27-2.8h3.85l-4.25,4.92,5.07,5.9Z"/><path class="cls-1" d="M167.58,198.17c.05,1.67.85,2.9,2.65,2.9a2.83,2.83,0,0,0,2.57-1.45l2.8.45a5.31,5.31,0,0,1-5.32,3.38,5.43,5.43,0,0,1-5.8-5.77,5.36,5.36,0,0,1,5.67-5.75c3.57,0,5.52,2.4,5.52,5.85v.4Zm2.63-4.1a2.45,2.45,0,0,0-2.52,2.17h5.12A2.51,2.51,0,0,0,170.2,194.07Z"/><path class="cls-1" d="M185.08,195a2.67,2.67,0,0,0-1.45-.37c-2,0-2.6,1.45-2.6,3.25v5.2h-3V192.27h3v1.62a3.53,3.53,0,0,1,4.47-1.72Z"/><path class="cls-1" d="M192.63,195.4v2.13h-3.07v-4.4a5,5,0,0,0,.88.1c1.52,0,3.15-.78,3.15-2.5a1.88,1.88,0,0,0-1.92-1.92,1.77,1.77,0,0,0-1.8,1.77c0,.1,0,.2,0,.3h-3.25v-.3c0-2.72,2.55-4.47,5.1-4.47a4.84,4.84,0,0,1,5,4.7C196.78,193.32,194.93,194.85,192.63,195.4Zm-1.47,8a1.95,1.95,0,1,1,1.95-1.95A2,2,0,0,1,191.15,203.42Z"/></svg>