<svg id="Layer_1" data-name="Layer 1" xmlns="http://www.w3.org/2000/svg" viewBox="0 0 300 250"><defs><style>.cls-1{fill:#d4ac76;}</style></defs><title>text</title><path class="cls-1" d="M80,108.5l3.57-8.89h1.12l3.5,8.89H86.81l-.53-1.37H81.92l-.55,1.37Zm4.12-6.85L82.4,106h3.41ZM85,99a1.22,1.22,0,0,1-1.71,0,1.23,1.23,0,0,1,0-1.72,1.22,1.22,0,0,1,1.71,0A1.23,1.23,0,0,1,85,99Zm-.86-.37a.48.48,0,0,0,.34-.14.49.49,0,0,0,.15-.35.47.47,0,0,0-.15-.35.44.44,0,0,0-.34-.14.47.47,0,0,0-.35.14.5.5,0,0,0-.14.35.48.48,0,0,0,.49.49Z"/><path class="cls-1" d="M88.71,100.79V99.61h7.2v1.18h-3v7.71H91.69v-7.71Z"/><path class="cls-1" d="M97.67,100.79V99.61h7.2v1.18h-3v7.71h-1.24v-7.71Z"/><path class="cls-1" d="M105.45,108.5,109,99.61h1.12l3.5,8.89h-1.38l-.53-1.37h-4.36l-.55,1.37Zm4.12-6.85-1.72,4.3h3.41Z"/><path class="cls-1" d="M126.63,108.5v-3.85H122.3v3.85h-1.24V99.61h1.24v3.85h4.33V99.61h1.24v8.89Z"/><path class="cls-1" d="M134.6,108.65a3.11,3.11,0,0,1-2.32-.93,3.24,3.24,0,0,1-.9-2.35V99.61h1.24v5.69a2.31,2.31,0,0,0,.53,1.55,1.81,1.81,0,0,0,1.45.61,1.85,1.85,0,0,0,1.47-.6,2.23,2.23,0,0,0,.54-1.55v-5.7h1.24v5.76a3.24,3.24,0,0,1-.9,2.35A3.15,3.15,0,0,1,134.6,108.65Z"/><path class="cls-1" d="M143.7,108.62a4.07,4.07,0,0,1-1.66-.36,4.4,4.4,0,0,1-1.41-1l.87-1a3.49,3.49,0,0,0,1,.81,2.68,2.68,0,0,0,1.23.32,1.73,1.73,0,0,0,1.15-.38,1.21,1.21,0,0,0,.44-1,1.55,1.55,0,0,0-1.12-1.45l-1-.42a3.66,3.66,0,0,1-1.46-1,2.1,2.1,0,0,1-.48-1.41,2.25,2.25,0,0,1,.74-1.68,2.54,2.54,0,0,1,1.81-.69,3.58,3.58,0,0,1,2.58,1l-.75,1a2.46,2.46,0,0,0-1.83-.8,1.38,1.38,0,0,0-.94.31,1,1,0,0,0-.36.82,1,1,0,0,0,.26.69,2.44,2.44,0,0,0,.9.55l1.07.43a2.52,2.52,0,0,1,1.87,2.54,2.45,2.45,0,0,1-.78,1.87A3,3,0,0,1,143.7,108.62Z"/><path class="cls-1" d="M154.5,108.5V99.61h1.28l2.86,4.74,2.91-4.74h1.22v8.89h-1.24v-6.57l0,0-2.86,4.59L155.82,102h-.07v6.53Z"/><path class="cls-1" d="M171.33,104.6h-3.66v2.72h3.91v1.18h-5.15V99.61h5.08v1.18h-3.84v2.63h3.66Z"/><path class="cls-1" d="M174.66,108.5V99.61H177a4.42,4.42,0,0,1,4.41,4.43,4.3,4.3,0,0,1-1.29,3.2A4.38,4.38,0,0,1,177,108.5Zm2.43-7.71h-1.18v6.53h1.22a2.86,2.86,0,0,0,2.19-1,3.28,3.28,0,0,0,.89-2.32,3.17,3.17,0,0,0-.92-2.31A3,3,0,0,0,177.09,100.79Z"/><path class="cls-1" d="M195,108.5v-3.85h-4.33v3.85h-1.24V99.61h1.24v3.85H195V99.61h1.24v8.89Z"/><path class="cls-1" d="M203.84,108.66a4.39,4.39,0,0,1-3.2-1.31,4.78,4.78,0,0,1,0-6.6,4.55,4.55,0,0,1,6.4,0,4.73,4.73,0,0,1,0,6.58A4.36,4.36,0,0,1,203.84,108.66Zm-2.32-2.18a3.2,3.2,0,0,0,4.65,0,3.54,3.54,0,0,0,0-4.85,3.13,3.13,0,0,0-2.33-1,3.08,3.08,0,0,0-2.32,1,3.54,3.54,0,0,0,0,4.85ZM203,98.67a.58.58,0,0,1-.44.19.56.56,0,0,1-.44-.19.69.69,0,0,1-.18-.49.68.68,0,0,1,.18-.48.56.56,0,0,1,.44-.19.58.58,0,0,1,.44.19.68.68,0,0,1,.18.48A.69.69,0,0,1,203,98.67Zm2.47,0a.58.58,0,0,1-.45.19.58.58,0,0,1-.44-.19.69.69,0,0,1-.18-.49.68.68,0,0,1,.18-.48.58.58,0,0,1,.44-.19.58.58,0,0,1,.45.19.68.68,0,0,1,.18.48A.69.69,0,0,1,205.48,98.67Z"/><path class="cls-1" d="M217.27,104.64v-1.19h3v.62a4.54,4.54,0,0,1-1.38,3.28,4.46,4.46,0,0,1-3.22,1.3,4.35,4.35,0,0,1-3.25-1.33,4.79,4.79,0,0,1,0-6.56,4.35,4.35,0,0,1,3.25-1.33,4.82,4.82,0,0,1,1.86.36,4.52,4.52,0,0,1,1.53,1l-.92.93a3.17,3.17,0,0,0-2.47-1.15,3.1,3.1,0,0,0-2.36,1,3.59,3.59,0,0,0,0,4.84,3.09,3.09,0,0,0,2.36,1,3.14,3.14,0,0,0,2.13-.77,3.42,3.42,0,0,0,1.12-2Z"/><path class="cls-1" d="M70.3,123.5v-8.89h1.24v4.22l3.71-4.22h1.66l-3.13,3.53L77,123.5H75.45l-2.58-4.34-1.33,1.49v2.85Z"/><path class="cls-1" d="M82.3,123.5l-3.47-8.89h1.4l2.66,6.83,2.67-6.83h1.37l-3.47,8.89Z"/><path class="cls-1" d="M87.69,123.5l3.57-8.89h1.12l3.5,8.89H94.51L94,122.13H89.61l-.55,1.37Zm4.13-6.85L90.09,121h3.42Z"/><path class="cls-1" d="M98.35,123.5v-8.89h1.24v7.71h3.66v1.18Z"/><path class="cls-1" d="M106,123.5v-8.89h1.25v8.89Z"/><path class="cls-1" d="M109.69,115.79v-1.18h7.2v1.18h-3v7.71h-1.24v-7.71Z"/><path class="cls-1" d="M124.26,119.6H120.6v2.72h3.91v1.18h-5.15v-8.89h5.08v1.18H120.6v2.63h3.66Z"/><path class="cls-1" d="M126.65,115.79v-1.18h7.2v1.18h-3v7.71h-1.24v-7.71Z"/><path class="cls-1" d="M140.42,115.79v-1.18h7.2v1.18h-3v7.71H143.4v-7.71Z"/><path class="cls-1" d="M150.09,123.5v-8.89h1.24v8.89Z"/><path class="cls-1" d="M155,123.5v-8.89h1.24v7.71h3.66v1.18Z"/><path class="cls-1" d="M162.6,123.5v-8.89h1.24v7.71h3.66v1.18Z"/><path class="cls-1" d="M175,123.5v-8.89h2.72a2.84,2.84,0,0,1,2,.69,2.31,2.31,0,0,1,.77,1.79,2.09,2.09,0,0,1-1.06,1.91,2.28,2.28,0,0,1,1,.8,2.07,2.07,0,0,1,.36,1.2,2.32,2.32,0,0,1-.78,1.82,2.93,2.93,0,0,1-2,.68Zm2.59-7.71h-1.35v2.71h1.59a1.3,1.3,0,0,0,1-.4,1.35,1.35,0,0,0,.4-1,1.14,1.14,0,0,0-.44-.93A1.83,1.83,0,0,0,177.62,115.79Zm.28,3.81h-1.63v2.72h1.55a1.85,1.85,0,0,0,1.22-.38,1.29,1.29,0,0,0,.45-1,1.2,1.2,0,0,0-.41-1A1.67,1.67,0,0,0,177.9,119.6Z"/><path class="cls-1" d="M183.85,123.5v-8.89h3.3a2.78,2.78,0,0,1,2,.77,2.75,2.75,0,0,1-1.56,4.74l2.58,3.38h-1.53l-2.56-3.39h-1v3.39Zm3.14-7.71h-1.9V119H187a1.76,1.76,0,0,0,1.26-.44,1.59,1.59,0,0,0,0-2.3A1.74,1.74,0,0,0,187,115.79Z"/><path class="cls-1" d="M192,123.5l3.57-8.89h1.13l3.5,8.89h-1.38l-.53-1.37h-4.36l-.55,1.37Zm4.13-6.85-1.72,4.3h3.41Z"/><path class="cls-1" d="M207.62,123.5v-8.89h3a2.8,2.8,0,0,1,2.06.83,2.86,2.86,0,0,1,.82,2.11,2.79,2.79,0,0,1-.84,2.08,2.87,2.87,0,0,1-2.09.83h-1.75v3Zm2.95-7.71h-1.71v3.49h1.72a1.65,1.65,0,0,0,1.72-1.73,1.73,1.73,0,0,0-.49-1.26A1.67,1.67,0,0,0,210.57,115.79Z"/><path class="cls-1" d="M216.49,123.5v-8.89h3.3a2.79,2.79,0,0,1,2,.77,2.66,2.66,0,0,1,.8,2,2.63,2.63,0,0,1-2.36,2.73l2.57,3.38h-1.53l-2.55-3.39h-1v3.39Zm3.13-7.71h-1.89V119h1.88a1.78,1.78,0,0,0,1.26-.44,1.5,1.5,0,0,0,.48-1.17,1.48,1.48,0,0,0-.49-1.13A1.72,1.72,0,0,0,219.62,115.79Z"/><path class="cls-1" d="M225.71,123.5v-8.89H227v8.89Z"/><path class="cls-1" d="M232.77,123.62a4.12,4.12,0,0,1-1.67-.36,4.52,4.52,0,0,1-1.41-1l.88-1a3.45,3.45,0,0,0,1,.81,2.68,2.68,0,0,0,1.23.32,1.71,1.71,0,0,0,1.15-.38,1.19,1.19,0,0,0,.45-1,1.56,1.56,0,0,0-1.13-1.45l-1-.42a3.69,3.69,0,0,1-1.45-1,2.1,2.1,0,0,1-.48-1.41,2.28,2.28,0,0,1,.73-1.68,2.56,2.56,0,0,1,1.82-.69,3.61,3.61,0,0,1,2.58,1l-.75,1a2.46,2.46,0,0,0-1.83-.8,1.37,1.37,0,0,0-.94.31,1,1,0,0,0-.37.82,1,1,0,0,0,.27.69,2.44,2.44,0,0,0,.9.55l1.07.43a2.53,2.53,0,0,1,1.87,2.54,2.43,2.43,0,0,1-.79,1.87A3,3,0,0,1,232.77,123.62Z"/></svg>