<svg id="Layer_1" data-name="Layer 1" xmlns="http://www.w3.org/2000/svg" viewBox="0 0 320 320"><defs><style>.cls-1{fill:#d80201;}</style></defs><title>text</title><path class="cls-1" d="M86.44,246.69a3,3,0,0,1-2.08.6H82.2v-8.67h1.56a3,3,0,0,1,2,.54,2.35,2.35,0,0,1,.8,1.81,2,2,0,0,1-.86,1.69,2.16,2.16,0,0,1,1.64,2.18A2.37,2.37,0,0,1,86.44,246.69Zm-2.52-7.16h-.76v2.91h.73a1.81,1.81,0,0,0,1.24-.33,1.46,1.46,0,0,0,.45-1.13C85.58,239.9,84.91,239.53,83.92,239.53Zm1.7,4a2.71,2.71,0,0,0-1.38-.26H83.16v3.12h1.21a2.11,2.11,0,0,0,1.42-.38,1.52,1.52,0,0,0,.56-1.19A1.49,1.49,0,0,0,85.62,243.53Z"/><path class="cls-1" d="M89.31,240.51a.66.66,0,1,1,.67-.66A.67.67,0,0,1,89.31,240.51Zm-.46,9.82v-8.44h.92v8.44Z"/><path class="cls-1" d="M94.06,247.44a2.84,2.84,0,1,1,2.85-2.83A2.82,2.82,0,0,1,94.06,247.44Zm0-4.83a2,2,0,1,0,1.91,2A1.89,1.89,0,0,0,94.05,242.61Zm-1.12-1.82a.66.66,0,0,1-.65-.65.65.65,0,0,1,1.3,0A.65.65,0,0,1,92.93,240.79Zm2.26,0a.66.66,0,0,1-.65-.65.65.65,0,1,1,.65.65Z"/><path class="cls-1" d="M100.86,242.83a.83.83,0,0,0-.55-.18,1,1,0,0,0-.47.11c-.59.33-.59,1.09-.59,1.68v2.85h-.93v-5.4h.93v.59a1.44,1.44,0,0,1,1.22-.72,1.59,1.59,0,0,1,.83.22Z"/><path class="cls-1" d="M105.5,247.29l-2.19-2.46-.23.23v2.23h-.92v-9.48h.92v6.07l2-2h1.24L104,244.18l2.75,3.11Z"/><path class="cls-1" d="M111,247.29V244c0-.81-.2-1.4-1.12-1.4-1.21,0-1.37,1-1.37,2v2.69h-.92v-9.48h.92v4.71a2,2,0,0,1,3.1,0A2.59,2.59,0,0,1,112,244v3.34Z"/><path class="cls-1" d="M117.85,247.29v-.76a2.3,2.3,0,0,1-1.87.91,2.67,2.67,0,0,1-2.6-2.87,2.62,2.62,0,0,1,2.58-2.81,2.29,2.29,0,0,1,1.89.9v-.77h.92v5.4Zm-1.74-4.7a1.85,1.85,0,0,0-1.79,2,1.87,1.87,0,0,0,1.79,2,1.84,1.84,0,0,0,1.79-2A1.82,1.82,0,0,0,116.11,242.59Z"/><path class="cls-1" d="M125.08,249.29a2.63,2.63,0,0,1-2.16,1,2.43,2.43,0,0,1-2.63-2.47h.92a1.62,1.62,0,0,0,1.72,1.64c1.3,0,1.73-1,1.73-2.13v-.8a2.44,2.44,0,0,1-1.9.9,2.85,2.85,0,0,1,0-5.67,2.29,2.29,0,0,1,1.86.89v-.76h.94v5.28A3.29,3.29,0,0,1,125.08,249.29Zm-2.18-6.7a1.85,1.85,0,0,0-1.76,2,1.82,1.82,0,0,0,1.76,2,2,2,0,0,0,0-4Z"/><path class="cls-1" d="M128.82,247.44a1.93,1.93,0,0,1-1.89-1.38l.81-.33c.22.48.52.87,1.09.87a.84.84,0,0,0,.89-.85c0-1.17-2.43-.8-2.43-2.48a1.51,1.51,0,0,1,1.57-1.51,1.61,1.61,0,0,1,1.48,1l-.77.4a.85.85,0,0,0-.75-.53.64.64,0,0,0-.65.59c0,1,2.5.71,2.5,2.47A1.78,1.78,0,0,1,128.82,247.44Z"/><path class="cls-1" d="M133.79,247.64l-2.66-5.75h1l1.62,3.63,1.59-3.63h1Z"/><path class="cls-1" d="M141.53,247.29v-.76a2.29,2.29,0,0,1-1.87.91,2.67,2.67,0,0,1-2.6-2.87,2.63,2.63,0,0,1,2.59-2.81,2.27,2.27,0,0,1,1.88.9v-.77h.93v5.4Zm-1.74-4.7a1.85,1.85,0,0,0-1.78,2,1.86,1.86,0,0,0,1.78,2,1.84,1.84,0,0,0,1.79-2A1.82,1.82,0,0,0,139.79,242.59Zm-1.08-1.8a.66.66,0,0,1-.65-.65.65.65,0,1,1,.65.65Zm2.26,0a.66.66,0,0,1-.65-.65.65.65,0,1,1,.65.65Z"/><path class="cls-1" d="M148.76,249.29a2.61,2.61,0,0,1-2.16,1,2.42,2.42,0,0,1-2.62-2.47h.92a1.62,1.62,0,0,0,1.72,1.64c1.3,0,1.73-1,1.73-2.13v-.8a2.47,2.47,0,0,1-1.9.9,2.65,2.65,0,0,1-2.58-2.82,2.68,2.68,0,0,1,2.62-2.85,2.32,2.32,0,0,1,1.86.89v-.76h.93v5.28A3.29,3.29,0,0,1,148.76,249.29Zm-2.17-6.7a1.86,1.86,0,0,0-1.77,2,1.83,1.83,0,0,0,1.77,2,2,2,0,0,0,0-4Z"/><path class="cls-1" d="M151.67,244.78a1.75,1.75,0,0,0,1.72,1.82,1.86,1.86,0,0,0,1.66-1.12l.78.43a2.69,2.69,0,0,1-2.47,1.53,2.85,2.85,0,0,1-.05-5.68,2.58,2.58,0,0,1,2.57,2.84v.18Zm1.67-2.17a1.65,1.65,0,0,0-1.6,1.39h3.17A1.62,1.62,0,0,0,153.34,242.61Z"/><path class="cls-1" d="M160.7,247.29V244.1c0-.84-.12-1.51-1.14-1.51-1.19,0-1.34,1-1.34,2v2.71h-.92v-5.4h.92v.65a2,2,0,0,1,3.1,0,2.53,2.53,0,0,1,.31,1.43v3.36Z"/><path class="cls-1" d="M170.16,244.36l-1.78,2H172v.9h-5.6l3.15-3.66c.59-.67,1.5-1.65,1.5-2.58a1.68,1.68,0,0,0-1.73-1.68,1.7,1.7,0,0,0-1.73,1.78h-1a3.38,3.38,0,0,1,.18-1,2.71,2.71,0,0,1,5.21.89C172,242.36,171,243.45,170.16,244.36Z"/><path class="cls-1" d="M178.79,245.87v1.42h-1v-1.42h-4.45l5.41-7.74V245h1.07v.88Zm-1-4.8L175.09,245h2.74Z"/><path class="cls-1" d="M181.43,249.26l-.61-.24,1.06-3,.86.31Z"/><path class="cls-1" d="M190,247.44a2.65,2.65,0,0,1-2.68-2.23l.93-.26a1.77,1.77,0,0,0,1.77,1.58,1.71,1.71,0,0,0,1.74-1.71c0-2-4-1.56-4-4.11a2.29,2.29,0,0,1,2.43-2.24,2.5,2.5,0,0,1,2.24,1.35l-.77.51a1.61,1.61,0,0,0-1.48-1,1.38,1.38,0,0,0-1.45,1.33c0,1.79,4,1.27,4,4.07A2.67,2.67,0,0,1,190,247.44Z"/><path class="cls-1" d="M194.78,240.51a.66.66,0,1,1,.66-.66A.67.67,0,0,1,194.78,240.51Zm-.47,9.82v-8.44h.93v8.44Z"/><path class="cls-1" d="M199.53,247.44a2.84,2.84,0,1,1,2.84-2.83A2.82,2.82,0,0,1,199.53,247.44Zm0-4.83a2,2,0,1,0,1.91,2A1.89,1.89,0,0,0,199.51,242.61Zm-1.12-1.82a.66.66,0,0,1-.65-.65.65.65,0,1,1,.65.65Zm2.27,0a.66.66,0,0,1-.65-.65.65.65,0,1,1,1.3,0A.65.65,0,0,1,200.66,240.79Z"/><path class="cls-1" d="M209.94,247.29V244c0-.69-.12-1.42-1-1.42s-1.15.91-1.15,1.69v3h-.93v-3.2c0-.68-.14-1.5-1-1.5a1.12,1.12,0,0,0-1,.59,2.59,2.59,0,0,0-.21,1.17v2.94h-.92v-5.4h.92v.57a1.55,1.55,0,0,1,1.34-.7,1.63,1.63,0,0,1,1.48.87,1.75,1.75,0,0,1,1.58-.87,1.72,1.72,0,0,1,1.45.73,2.52,2.52,0,0,1,.3,1.38v3.42Z"/><path class="cls-1" d="M216.75,247.29v-.76a2.29,2.29,0,0,1-1.87.91,2.67,2.67,0,0,1-2.6-2.87,2.63,2.63,0,0,1,2.59-2.81,2.28,2.28,0,0,1,1.88.9v-.77h.92v5.4Zm-1.74-4.7a1.84,1.84,0,0,0-1.78,2,1.86,1.86,0,0,0,1.78,2,1.84,1.84,0,0,0,1.79-2A1.82,1.82,0,0,0,215,242.59Z"/><path class="cls-1" d="M222,242.83a.83.83,0,0,0-.55-.18,1,1,0,0,0-.47.11c-.6.33-.6,1.09-.6,1.68v2.85h-.92v-5.4h.92v.59a1.45,1.45,0,0,1,1.23-.72,1.61,1.61,0,0,1,.83.22Z"/><path class="cls-1" d="M226.62,247.29l-2.19-2.46-.23.23v2.23h-.92v-9.48h.92v6.07l2-2h1.24l-2.32,2.29,2.75,3.11Z"/><path class="cls-1" d="M229.09,244.78a1.74,1.74,0,0,0,1.71,1.82,1.88,1.88,0,0,0,1.67-1.12l.78.43a2.7,2.7,0,0,1-2.47,1.53,2.85,2.85,0,0,1-.06-5.68,2.58,2.58,0,0,1,2.58,2.84v.18Zm1.66-2.17a1.66,1.66,0,0,0-1.6,1.39h3.17A1.61,1.61,0,0,0,230.75,242.61Z"/><path class="cls-1" d="M238.11,247.29V244.1c0-.84-.12-1.51-1.13-1.51-1.2,0-1.34,1-1.34,2v2.71h-.92v-5.4h.92v.65a2,2,0,0,1,3.09,0,2.45,2.45,0,0,1,.31,1.43v3.36Z"/><path class="cls-1" d="M87.43,262.44a2.65,2.65,0,0,1-2.68-2.23l.94-.26a1.76,1.76,0,0,0,1.76,1.58,1.71,1.71,0,0,0,1.75-1.71c0-2-4-1.56-4-4.11a2.29,2.29,0,0,1,2.43-2.24,2.49,2.49,0,0,1,2.24,1.35l-.77.51a1.59,1.59,0,0,0-1.48-1,1.38,1.38,0,0,0-1.44,1.33c0,1.79,4,1.27,4,4.07A2.66,2.66,0,0,1,87.43,262.44Z"/><path class="cls-1" d="M94.21,262.44a2.84,2.84,0,1,1,2.85-2.83A2.82,2.82,0,0,1,94.21,262.44Zm0-4.83a2,2,0,1,0,1.91,2A1.89,1.89,0,0,0,94.2,257.61Zm-1.12-1.82a.66.66,0,0,1-.65-.65.65.65,0,1,1,.65.65Zm2.27,0a.66.66,0,0,1-.65-.65.65.65,0,1,1,1.3,0A.65.65,0,0,1,95.35,255.79Z"/><path class="cls-1" d="M101.87,262.29V259.1c0-.84-.12-1.51-1.13-1.51-1.2,0-1.34,1-1.34,2v2.71h-.92v-5.4h.92v.65a1.83,1.83,0,0,1,1.56-.78,1.86,1.86,0,0,1,1.54.74,2.53,2.53,0,0,1,.31,1.43v3.36Z"/><path class="cls-1" d="M108.7,262.29v-.76a2.31,2.31,0,0,1-1.88.91,2.68,2.68,0,0,1-2.6-2.86,2.65,2.65,0,0,1,2.59-2.82,2.33,2.33,0,0,1,1.89.9v-4.85h.92v9.48ZM107,257.61a2,2,0,1,0,1.8,2A1.8,1.8,0,0,0,107,257.61Z"/><path class="cls-1" d="M115.51,262.29v-.76a2.3,2.3,0,0,1-1.87.91,2.67,2.67,0,0,1-2.6-2.87,2.62,2.62,0,0,1,2.58-2.81,2.29,2.29,0,0,1,1.89.9v-.77h.92v5.4Zm-1.74-4.7a1.84,1.84,0,0,0-1.78,2,1.86,1.86,0,0,0,1.78,2,1.84,1.84,0,0,0,1.79-2A1.82,1.82,0,0,0,113.77,257.59Z"/><path class="cls-1" d="M122.74,264.29a2.63,2.63,0,0,1-2.16,1,2.43,2.43,0,0,1-2.63-2.47h.93a1.6,1.6,0,0,0,1.71,1.64c1.3,0,1.73-1,1.73-2.13v-.8a2.44,2.44,0,0,1-1.9.9,2.85,2.85,0,0,1,0-5.67,2.29,2.29,0,0,1,1.86.89v-.76h.94v5.28A3.29,3.29,0,0,1,122.74,264.29Zm-2.18-6.7a1.85,1.85,0,0,0-1.76,2,1.82,1.82,0,0,0,1.76,2,2,2,0,0,0,0-4Z"/><path class="cls-1" d="M131.78,259.36l-1.78,2h3.64v.9H128l3.16-3.66c.58-.67,1.49-1.65,1.49-2.58a1.73,1.73,0,1,0-3.45.1h-1a4.22,4.22,0,0,1,.18-1,2.71,2.71,0,0,1,5.22.89C133.66,257.36,132.59,258.45,131.78,259.36Z"/><path class="cls-1" d="M140.35,262.44a1.91,1.91,0,0,1-1.88-1.38l.8-.33c.22.48.52.87,1.09.87a.84.84,0,0,0,.89-.85c0-1.17-2.43-.8-2.43-2.48a1.51,1.51,0,0,1,1.57-1.51,1.61,1.61,0,0,1,1.48,1l-.77.4a.85.85,0,0,0-.75-.53.65.65,0,0,0-.65.59c0,.95,2.5.71,2.5,2.47A1.78,1.78,0,0,1,140.35,262.44Z"/><path class="cls-1" d="M144.07,259.78a1.74,1.74,0,0,0,1.71,1.82,1.87,1.87,0,0,0,1.67-1.12l.78.43a2.7,2.7,0,0,1-2.47,1.53,2.85,2.85,0,0,1,0-5.68,2.58,2.58,0,0,1,2.57,2.84v.18Zm1.66-2.17a1.67,1.67,0,0,0-1.6,1.39h3.18A1.63,1.63,0,0,0,145.73,257.61Z"/><path class="cls-1" d="M152.5,262.44a2.32,2.32,0,0,1-1.88-.91v3.8h-.92v-8.44h.92v.76a2.33,2.33,0,0,1,1.87-.89,2.67,2.67,0,0,1,2.6,2.86A2.64,2.64,0,0,1,152.5,262.44Zm-.14-4.85a1.86,1.86,0,0,0-1.79,2,1.79,1.79,0,1,0,3.57,0A1.86,1.86,0,0,0,152.36,257.59Z"/><path class="cls-1" d="M157.45,257.75v4.54h-.94v-4.54H156v-.86h.56v-1.95h.94v1.95h.94v.86Z"/><path class="cls-1" d="M159.92,259.78a1.74,1.74,0,0,0,1.71,1.82,1.86,1.86,0,0,0,1.66-1.12l.79.43a2.7,2.7,0,0,1-2.47,1.53,2.85,2.85,0,0,1-.06-5.68,2.59,2.59,0,0,1,2.58,2.84v.18Zm1.66-2.17A1.65,1.65,0,0,0,160,259h3.17A1.61,1.61,0,0,0,161.58,257.61Z"/><path class="cls-1" d="M171.69,262.29V259c0-.69-.11-1.42-1-1.42s-1.16.91-1.16,1.69v3h-.92v-3.2c0-.68-.14-1.5-1-1.5a1.15,1.15,0,0,0-1,.59,2.58,2.58,0,0,0-.2,1.17v2.94h-.93v-5.4h.93v.57a1.55,1.55,0,0,1,1.34-.7,1.64,1.64,0,0,1,1.48.87,1.84,1.84,0,0,1,3-.14,2.52,2.52,0,0,1,.3,1.38v3.42Z"/><path class="cls-1" d="M177.18,262.44a2.29,2.29,0,0,1-1.87-.91v.76h-.93v-9.48h.93v4.85a2.3,2.3,0,0,1,1.88-.9,2.64,2.64,0,0,1,2.59,2.82A2.67,2.67,0,0,1,177.18,262.44Zm-.13-4.83a1.82,1.82,0,0,0-1.8,2,1.8,1.8,0,1,0,1.8-2Z"/><path class="cls-1" d="M181.82,259.78a1.74,1.74,0,0,0,1.72,1.82,1.87,1.87,0,0,0,1.66-1.12l.78.43a2.7,2.7,0,0,1-2.47,1.53,2.85,2.85,0,0,1,0-5.68A2.58,2.58,0,0,1,186,259.6v.18Zm1.66-2.17a1.67,1.67,0,0,0-1.6,1.39h3.18A1.62,1.62,0,0,0,183.48,257.61Z"/><path class="cls-1" d="M190,257.83a.8.8,0,0,0-.54-.18,1,1,0,0,0-.47.11c-.6.33-.6,1.09-.6,1.68v2.85h-.92v-5.4h.92v.59a1.45,1.45,0,0,1,1.22-.72,1.62,1.62,0,0,1,.84.22Z"/><path class="cls-1" d="M197.87,262.29l-2.18-2.46-.23.23v2.23h-.93v-9.48h.93v6.07l2-2h1.23l-2.31,2.29,2.74,3.11Z"/><path class="cls-1" d="M200,262.29v-9.48h.92v9.48Z"/><path class="cls-1" d="M208.51,262.29v-7.76h-1.44l.5-.91h1.9v8.67Z"/><path class="cls-1" d="M216.83,259.36l-1.78,2h3.64v.9h-5.61l3.16-3.66c.59-.67,1.5-1.65,1.5-2.58a1.68,1.68,0,0,0-1.73-1.68,1.7,1.7,0,0,0-1.73,1.78h-1a3.78,3.78,0,0,1,.19-1,2.71,2.71,0,0,1,5.21.89C218.7,257.36,217.63,258.45,216.83,259.36Z"/><path class="cls-1" d="M219.8,259.93v-.83h2.36v.83Z"/><path class="cls-1" d="M225.6,262.29v-7.76h-1.44l.51-.91h1.89v8.67Z"/><path class="cls-1" d="M235.18,260.87v1.42h-1v-1.42h-4.44l5.4-7.74V260h1.07v.88Zm-1-4.8L231.48,260h2.74Z"/></svg>