<svg id="Layer_1" data-name="Layer 1" xmlns="http://www.w3.org/2000/svg" viewBox="0 0 320 320"><defs><style>.cls-1{fill:#d4ac76;}</style></defs><title>text</title><path class="cls-1" d="M68.41,247.56v-.93H74v.93H71.71v6h-1v-6Z"/><path class="cls-1" d="M76,253.59v-7h2.59a2.18,2.18,0,0,1,1.56.61,2.28,2.28,0,0,1,.11,3,2,2,0,0,1-1.33.68l2,2.65h-1.2l-2-2.65H77v2.65Zm2.46-6H77v2.51h1.47a1.39,1.39,0,0,0,1-.34,1.16,1.16,0,0,0,.38-.92,1.19,1.19,0,0,0-.38-.89A1.37,1.37,0,0,0,78.43,247.56Z"/><path class="cls-1" d="M86.65,246.63h1.12l-2.31,4.16v2.8h-1v-2.76l-2.34-4.2h1.16L85,249.72Z"/><path class="cls-1" d="M93.76,250.57v-.93h2.31v.49a3.58,3.58,0,0,1-3.6,3.58,3.43,3.43,0,0,1-2.54-1,3.77,3.77,0,0,1,0-5.14,3.43,3.43,0,0,1,2.54-1,3.73,3.73,0,0,1,1.46.29,3.66,3.66,0,0,1,1.2.8l-.72.74a2.48,2.48,0,0,0-1.94-.9,2.42,2.42,0,0,0-1.84.78,2.81,2.81,0,0,0,0,3.8,2.42,2.42,0,0,0,1.84.78,2.46,2.46,0,0,0,1.67-.61,2.65,2.65,0,0,0,.88-1.6Z"/><path class="cls-1" d="M97.36,253.59l2.79-7H101l2.74,7H102.7l-.42-1.07H98.87l-.44,1.07Zm3.23-5.36-1.35,3.36h2.67Z"/><path class="cls-1" d="M105.7,253.59v-7h2.58a2.19,2.19,0,0,1,1.57.61,2.28,2.28,0,0,1,.11,3,2,2,0,0,1-1.33.68l2,2.65h-1.19l-2-2.65h-.78v2.65Zm2.45-6h-1.48v2.51h1.48a1.39,1.39,0,0,0,1-.34,1.27,1.27,0,0,0,0-1.81A1.38,1.38,0,0,0,108.15,247.56Z"/><path class="cls-1" d="M112.92,253.59v-7h.68l3.77,4.8v-4.8h1v7h-.54l-3.91-5v5Z"/><path class="cls-1" d="M122.94,253.68a3.47,3.47,0,0,1-2.4-1l.68-.78a2.79,2.79,0,0,0,.8.63,2.06,2.06,0,0,0,1,.25,1.35,1.35,0,0,0,.9-.29.94.94,0,0,0,.34-.74,1.22,1.22,0,0,0-.88-1.14l-.82-.33a2.85,2.85,0,0,1-1.14-.74,1.65,1.65,0,0,1-.37-1.11,1.74,1.74,0,0,1,.57-1.31,2,2,0,0,1,1.42-.55,2.83,2.83,0,0,1,2,.77l-.58.79a1.92,1.92,0,0,0-1.44-.63,1.09,1.09,0,0,0-.73.24.83.83,0,0,0-.29.65.8.8,0,0,0,.21.54,2,2,0,0,0,.71.43l.83.33a2,2,0,0,1,1.47,2,1.9,1.9,0,0,1-.62,1.46A2.33,2.33,0,0,1,122.94,253.68Z"/><path class="cls-1" d="M129.39,253.59l-2.72-7h1.09l2.09,5.35,2.09-5.35H133l-2.72,7Z"/><path class="cls-1" d="M133.6,253.59l2.8-7h.87l2.74,7h-1.07l-.42-1.07h-3.41l-.43,1.07Zm2.51-7.69a.45.45,0,0,1-.34.15.47.47,0,0,1-.35-.15.57.57,0,0,1-.14-.38.56.56,0,0,1,.14-.38.47.47,0,0,1,.35-.15.45.45,0,0,1,.34.15.52.52,0,0,1,.15.38A.54.54,0,0,1,136.11,245.9Zm.72,2.33-1.35,3.36h2.67ZM138,245.9a.45.45,0,0,1-.34.15.45.45,0,0,1-.35-.15.57.57,0,0,1-.14-.38.56.56,0,0,1,.14-.38.45.45,0,0,1,.35-.15.45.45,0,0,1,.34.15.51.51,0,0,1,.14.38A.53.53,0,0,1,138,245.9Z"/><path class="cls-1" d="M146.16,250.57v-.93h2.31v.49a3.58,3.58,0,0,1-3.6,3.58,3.43,3.43,0,0,1-2.54-1,3.77,3.77,0,0,1,0-5.14,3.43,3.43,0,0,1,2.54-1,3.77,3.77,0,0,1,1.46.29,3.66,3.66,0,0,1,1.2.8l-.73.74a2.45,2.45,0,0,0-1.93-.9,2.42,2.42,0,0,0-1.84.78,2.81,2.81,0,0,0,0,3.8,2.42,2.42,0,0,0,1.84.78,2.46,2.46,0,0,0,1.67-.61,2.65,2.65,0,0,0,.88-1.6Z"/><path class="cls-1" d="M154.7,250.54h-2.86v2.12h3.06v.93h-4v-7h4v.93h-3v2.05h2.86Z"/><path class="cls-1" d="M157.31,253.59v-7H158l3.76,4.8v-4.8h1v7h-.54l-3.91-5v5Z"/><path class="cls-1" d="M170.19,253.59v-5.71l-1.31.66v-.92l1.85-1h.43v7Z"/><path class="cls-1" d="M173.88,253.59v-7H176a2.24,2.24,0,0,1,1.54.54,1.81,1.81,0,0,1,.6,1.41,1.62,1.62,0,0,1-.83,1.49,1.66,1.66,0,0,1,.75.63,1.57,1.57,0,0,1,.28.93,1.8,1.8,0,0,1-.61,1.43,2.29,2.29,0,0,1-1.55.53Zm2-6h-1v2.12h1.23a1.1,1.1,0,0,0,.78-.31,1.07,1.07,0,0,0,.31-.8.89.89,0,0,0-.35-.73A1.4,1.4,0,0,0,175.91,247.56Zm.22,3h-1.27v2.12h1.21a1.46,1.46,0,0,0,1-.29,1,1,0,0,0,.36-.8,1,1,0,0,0-.32-.74A1.38,1.38,0,0,0,176.13,250.54Z"/><path class="cls-1" d="M179.82,254.87l.8-2.23.89.31-1.1,2.14Z"/><path class="cls-1" d="M186.85,253.59l2.8-7h.88l2.74,7h-1.08l-.42-1.07h-3.41l-.43,1.07Zm3.24-5.36-1.36,3.36h2.68Zm.67-2.07a.91.91,0,0,1-.67.28,1,1,0,0,1-1-.95.89.89,0,0,1,.28-.67.9.9,0,0,1,.67-.27.94.94,0,0,1,.67.27.92.92,0,0,1,.27.67A.9.9,0,0,1,190.76,246.16Zm-.67-.28a.34.34,0,0,0,.26-.12.36.36,0,0,0,.11-.27.39.39,0,0,0-.37-.39.38.38,0,0,0-.28.12.37.37,0,0,0-.11.27.4.4,0,0,0,.11.27A.38.38,0,0,0,190.09,245.88Z"/><path class="cls-1" d="M195.2,253.59v-7h1v3.3l2.9-3.3h1.3l-2.45,2.76,2.52,4.2h-1.21l-2-3.39-1,1.16v2.23Z"/><path class="cls-1" d="M206.38,250.54h-2.86v2.12h3.06v.93h-4v-7h4v.93h-3v2.05h2.86Z"/><path class="cls-1" d="M209,253.59v-7h2.59a2.18,2.18,0,0,1,1.56.61,2.28,2.28,0,0,1,.11,3,2,2,0,0,1-1.33.68l2,2.65h-1.2l-2-2.65H210v2.65Zm2.46-6H210v2.51h1.47a1.39,1.39,0,0,0,1-.34,1.27,1.27,0,0,0,0-1.81A1.37,1.37,0,0,0,211.45,247.56Z"/><path class="cls-1" d="M217.94,253.68a3.22,3.22,0,0,1-1.31-.28,3.26,3.26,0,0,1-1.1-.75l.69-.78a2.66,2.66,0,0,0,.8.63,2,2,0,0,0,1,.25,1.32,1.32,0,0,0,.9-.29,1,1,0,0,0,.35-.74,1.23,1.23,0,0,0-.88-1.14l-.82-.33a2.85,2.85,0,0,1-1.14-.74,1.66,1.66,0,0,1-.38-1.11,1.75,1.75,0,0,1,.58-1.31,2,2,0,0,1,1.42-.55,2.86,2.86,0,0,1,2,.77l-.59.79a1.91,1.91,0,0,0-1.43-.63,1.12,1.12,0,0,0-.74.24.82.82,0,0,0-.28.65.84.84,0,0,0,.2.54,2.12,2.12,0,0,0,.71.43l.84.33a2,2,0,0,1,1.46,2,1.9,1.9,0,0,1-.62,1.46A2.32,2.32,0,0,1,217.94,253.68Z"/><path class="cls-1" d="M222.58,253.59v-7h2.13a2.2,2.2,0,0,1,1.53.54,1.78,1.78,0,0,1,.61,1.41,1.64,1.64,0,0,1-.83,1.49,1.77,1.77,0,0,1,.75.63,1.65,1.65,0,0,1,.28.93,1.8,1.8,0,0,1-.61,1.43,2.29,2.29,0,0,1-1.55.53Zm2-6h-1.05v2.12h1.23a1.1,1.1,0,0,0,.78-.31,1.11,1.11,0,0,0,.31-.8.89.89,0,0,0-.35-.73A1.4,1.4,0,0,0,224.61,247.56Zm.22,3h-1.27v2.12h1.21a1.46,1.46,0,0,0,.95-.29,1,1,0,0,0,.36-.8,1,1,0,0,0-.32-.74A1.38,1.38,0,0,0,224.83,250.54Z"/><path class="cls-1" d="M233.32,250.54h-2.86v2.12h3.06v.93h-4v-7h4v.93h-3v2.05h2.86Z"/><path class="cls-1" d="M235.93,253.59v-7h2.58a2.19,2.19,0,0,1,1.57.61,2.28,2.28,0,0,1,.11,3,2,2,0,0,1-1.33.68l2,2.65h-1.2l-2-2.65h-.78v2.65Zm2.45-6H236.9v2.51h1.47a1.4,1.4,0,0,0,1-.34,1.2,1.2,0,0,0,.38-.92,1.17,1.17,0,0,0-.39-.89A1.35,1.35,0,0,0,238.38,247.56Z"/><path class="cls-1" d="M247.59,250.57v-.93h2.31v.49a3.58,3.58,0,0,1-3.6,3.58,3.42,3.42,0,0,1-2.54-1,3.75,3.75,0,0,1,0-5.14,3.42,3.42,0,0,1,2.54-1,3.8,3.8,0,0,1,1.46.29,3.52,3.52,0,0,1,1.19.8l-.72.74a2.55,2.55,0,0,0-3.78-.12,2.84,2.84,0,0,0,0,3.8,2.59,2.59,0,0,0,3.52.17,2.65,2.65,0,0,0,.88-1.6Z"/><path class="cls-1" d="M251.19,253.59l2.79-7h.88l2.74,7h-1.08l-.42-1.07h-3.41l-.43,1.07Zm3.23-5.36-1.35,3.36h2.67Z"/><path class="cls-1" d="M77.86,266.68a3.17,3.17,0,0,1-1.3-.28,3.26,3.26,0,0,1-1.1-.75l.68-.78a2.84,2.84,0,0,0,.81.63,2,2,0,0,0,1,.25,1.32,1.32,0,0,0,.9-.29,1,1,0,0,0,.35-.74,1.23,1.23,0,0,0-.88-1.14l-.82-.33a2.85,2.85,0,0,1-1.14-.74,1.66,1.66,0,0,1-.38-1.11,1.72,1.72,0,0,1,.58-1.31,2,2,0,0,1,1.42-.55,2.86,2.86,0,0,1,2,.77l-.59.79a1.91,1.91,0,0,0-1.43-.63,1.1,1.1,0,0,0-.74.24.82.82,0,0,0-.28.65.79.79,0,0,0,.2.54,2.12,2.12,0,0,0,.71.43l.84.33a2,2,0,0,1,1.46,2,1.9,1.9,0,0,1-.62,1.46A2.33,2.33,0,0,1,77.86,266.68Z"/><path class="cls-1" d="M85.69,266.72a3.4,3.4,0,0,1-2.5-1,3.72,3.72,0,0,1,0-5.16,3.4,3.4,0,0,1,2.5-1,3.43,3.43,0,0,1,2.51,1,3.71,3.71,0,0,1,0,5.15A3.44,3.44,0,0,1,85.69,266.72ZM83.87,265a2.53,2.53,0,0,0,3.65,0,2.8,2.8,0,0,0,0-3.8,2.51,2.51,0,0,0-3.64,0,2.81,2.81,0,0,0,0,3.8ZM85,258.9a.45.45,0,0,1-.34.15.47.47,0,0,1-.35-.15.57.57,0,0,1-.14-.38.56.56,0,0,1,.14-.38.47.47,0,0,1,.35-.15.45.45,0,0,1,.34.15.52.52,0,0,1,.15.38A.54.54,0,0,1,85,258.9Zm1.93,0a.45.45,0,0,1-.34.15.45.45,0,0,1-.35-.15.57.57,0,0,1-.14-.38.56.56,0,0,1,.14-.38.45.45,0,0,1,.35-.15.45.45,0,0,1,.34.15.51.51,0,0,1,.14.38A.53.53,0,0,1,87,258.9Z"/><path class="cls-1" d="M91.67,266.59v-7h.68l3.77,4.8v-4.8h1v7h-.54l-3.9-5v5Z"/><path class="cls-1" d="M100,266.59v-7h1.86a3.47,3.47,0,0,1,3.45,3.47,3.36,3.36,0,0,1-1,2.5,3.41,3.41,0,0,1-2.47,1Zm1.9-6H101v5.1h1a2.22,2.22,0,0,0,1.71-.74,2.56,2.56,0,0,0,.7-1.82,2.48,2.48,0,0,0-.72-1.81A2.31,2.31,0,0,0,101.9,260.56Z"/><path class="cls-1" d="M106.69,266.59l2.79-7h.88l2.74,7H112l-.42-1.07h-3.41l-.43,1.07Zm3.23-5.36-1.35,3.36h2.67Z"/><path class="cls-1" d="M119.24,263.57v-.93h2.31v.49a3.44,3.44,0,0,1-1.08,2.56,3.48,3.48,0,0,1-2.51,1,3.4,3.4,0,0,1-2.54-1,3.75,3.75,0,0,1,0-5.14,3.4,3.4,0,0,1,2.54-1,3.8,3.8,0,0,1,1.46.29,3.62,3.62,0,0,1,1.19.8l-.72.74a2.55,2.55,0,0,0-3.78-.12,2.81,2.81,0,0,0,0,3.8,2.44,2.44,0,0,0,1.85.78,2.48,2.48,0,0,0,1.67-.61,2.59,2.59,0,0,0,.87-1.6Z"/><path class="cls-1" d="M127.23,266.59V266l2.78-3.67a1.44,1.44,0,0,0,.38-.88,1,1,0,0,0-.3-.75,1.06,1.06,0,0,0-.78-.3,1,1,0,0,0-.77.34,1.38,1.38,0,0,0-.32.88h-1a2.07,2.07,0,0,1,.58-1.48,2,2,0,0,1,1.48-.6,2.09,2.09,0,0,1,1.48.54,1.83,1.83,0,0,1,.58,1.37,2.53,2.53,0,0,1-.73,1.54l-2.17,2.76h3v.86Z"/><path class="cls-1" d="M135.38,266.7a2.15,2.15,0,0,1-1.52-.59,1.93,1.93,0,0,1-.65-1.42h1a1,1,0,0,0,.37.77,1.16,1.16,0,0,0,.81.31,1.2,1.2,0,0,0,.86-.33,1.11,1.11,0,0,0,.35-.83,1.16,1.16,0,0,0-1.19-1.2H135v-.86h.39a1.1,1.1,0,0,0,.81-.32,1.1,1.1,0,0,0,0-1.55,1.11,1.11,0,0,0-.81-.31,1.09,1.09,0,0,0-.8.32,1.07,1.07,0,0,0-.33.78h-1a1.84,1.84,0,0,1,.6-1.39,2.27,2.27,0,0,1,3,0,1.81,1.81,0,0,1,.61,1.39,1.57,1.57,0,0,1-.3.94,1.67,1.67,0,0,1-.77.59,1.75,1.75,0,0,1,.82.62,1.7,1.7,0,0,1,.3,1,2,2,0,0,1-.64,1.47A2.1,2.1,0,0,1,135.38,266.7Z"/><path class="cls-1" d="M145.43,266.68a3.14,3.14,0,0,1-1.3-.28,3.3,3.3,0,0,1-1.11-.75l.69-.78a2.66,2.66,0,0,0,.8.63,2,2,0,0,0,1,.25,1.32,1.32,0,0,0,.9-.29,1,1,0,0,0,.35-.74,1.22,1.22,0,0,0-.88-1.14l-.82-.33a2.85,2.85,0,0,1-1.14-.74,1.65,1.65,0,0,1-.37-1.11,1.74,1.74,0,0,1,.57-1.31,2,2,0,0,1,1.42-.55,2.84,2.84,0,0,1,2,.77l-.59.79a1.91,1.91,0,0,0-1.43-.63,1.12,1.12,0,0,0-.74.24.82.82,0,0,0-.28.65.8.8,0,0,0,.21.54,2,2,0,0,0,.7.43l.84.33a2,2,0,0,1,1.46,2,1.89,1.89,0,0,1-.61,1.46A2.33,2.33,0,0,1,145.43,266.68Z"/><path class="cls-1" d="M153.91,263.54h-2.86v2.12h3.06v.93h-4v-7h4v.93h-3v2.05h2.86Z"/><path class="cls-1" d="M156.52,266.59v-7h2.37a2.2,2.2,0,0,1,1.62.65,2.28,2.28,0,0,1,.65,1.66,2.22,2.22,0,0,1-.67,1.63,2.25,2.25,0,0,1-1.63.64h-1.37v2.38Zm2.31-6h-1.34v2.73h1.35a1.36,1.36,0,0,0,1-.37,1.33,1.33,0,0,0,.37-1,1.37,1.37,0,0,0-.38-1A1.31,1.31,0,0,0,158.83,260.56Z"/><path class="cls-1" d="M162.59,260.56v-.93h5.63v.93h-2.33v6h-1v-6Z"/><path class="cls-1" d="M174,263.54h-2.86v2.12h3.06v.93h-4v-7h4v.93h-3v2.05H174Z"/><path class="cls-1" d="M176.6,266.59v-7h1l2.24,3.71,2.28-3.71h.95v7h-1v-5.14l0,0-2.24,3.6-2.2-3.55h-.06v5.11Z"/><path class="cls-1" d="M185.93,266.59v-7h2.13a2.2,2.2,0,0,1,1.53.54,1.78,1.78,0,0,1,.61,1.41,1.64,1.64,0,0,1-.83,1.49,1.77,1.77,0,0,1,.75.63,1.65,1.65,0,0,1,.28.93,1.83,1.83,0,0,1-.61,1.43,2.31,2.31,0,0,1-1.55.53Zm2-6H186.9v2.12h1.24a1.06,1.06,0,0,0,.77-.31,1.08,1.08,0,0,0,.32-.8.89.89,0,0,0-.35-.73A1.4,1.4,0,0,0,188,260.56Zm.22,3H186.9v2.12h1.21a1.47,1.47,0,0,0,1-.29,1,1,0,0,0,.35-.8.93.93,0,0,0-.32-.74A1.33,1.33,0,0,0,188.18,263.54Z"/><path class="cls-1" d="M196.67,263.54h-2.86v2.12h3.06v.93h-4v-7h4v.93h-3v2.05h2.86Z"/><path class="cls-1" d="M199.28,266.59v-7h2.58a2.19,2.19,0,0,1,1.57.61,2.08,2.08,0,0,1,.63,1.57,2.11,2.11,0,0,1-.52,1.45,2,2,0,0,1-1.34.68l2,2.65H203l-2-2.65h-.78v2.65Zm2.45-6h-1.48v2.51h1.47a1.42,1.42,0,0,0,1-.34,1.2,1.2,0,0,0,.38-.92,1.17,1.17,0,0,0-.39-.89A1.35,1.35,0,0,0,201.73,260.56Z"/><path class="cls-1" d="M210.26,266.59v-7h1v3.3l2.9-3.3h1.3L213,262.39l2.52,4.2h-1.21l-2-3.39-1,1.16v2.23Z"/><path class="cls-1" d="M217.61,266.59v-7h1v6h2.86v.93Z"/><path class="cls-1" d="M228.13,266.59v-5.71l-1.3.66v-.92l1.84-1h.43v7Z"/><path class="cls-1" d="M231.35,266.59V266l2.78-3.67a1.44,1.44,0,0,0,.38-.88,1,1,0,0,0-.3-.75,1.07,1.07,0,0,0-.78-.3,1,1,0,0,0-.77.34,1.38,1.38,0,0,0-.32.88h-1a2.07,2.07,0,0,1,.58-1.48,2,2,0,0,1,1.48-.6,2.05,2.05,0,0,1,1.47.54,1.81,1.81,0,0,1,.59,1.37,2.53,2.53,0,0,1-.73,1.54l-2.17,2.76h3v.86Z"/><path class="cls-1" d="M237.56,263.56v-.87h2.71v.87Z"/><path class="cls-1" d="M242.91,266.59v-5.71l-1.3.66v-.92l1.84-1h.43v7Z"/><path class="cls-1" d="M246.07,265v-.61l2.42-4.76h1l-2.29,4.5h1.5V263h1v1.17h.83V265h-.83v1.59h-1V265Z"/></svg>