<svg id="Layer_1" data-name="Layer 1" xmlns="http://www.w3.org/2000/svg" viewBox="0 0 320 320"><defs><style>.cls-1{fill:#d80201;}</style></defs><title>text</title><path class="cls-1" d="M110.59,247.29l-3.55-4-.25.25v3.73h-1v-8.67h1v3.71l3.69-3.71h1.3l-4,4,4.18,4.63Z"/><path class="cls-1" d="M113,247.29v-9.48h.92v9.48Z"/><path class="cls-1" d="M116.14,240.51a.66.66,0,1,1,.66-.66A.66.66,0,0,1,116.14,240.51Zm-.47,6.78v-5.4h.92v5.4Z"/><path class="cls-1" d="M120.9,247.44a2.84,2.84,0,1,1,0-5.68,2.92,2.92,0,0,1,1.67.52v1.22a2.14,2.14,0,0,0-1.69-.89,1.93,1.93,0,0,0-1.91,2,1.91,1.91,0,0,0,1.89,2,2.19,2.19,0,0,0,1.75-.94v1.22A2.85,2.85,0,0,1,120.9,247.44Z"/><path class="cls-1" d="M127.37,247.29l-2.18-2.46-.24.23v2.23H124v-9.48H125v6.07l2-2h1.23l-2.31,2.29,2.74,3.11Z"/><path class="cls-1" d="M133.34,247.29v-.76a2.31,2.31,0,0,1-1.88.91,2.67,2.67,0,0,1-2.59-2.87,2.62,2.62,0,0,1,2.58-2.81,2.29,2.29,0,0,1,1.89.9v-.77h.92v5.4Zm-1.75-4.7a1.85,1.85,0,0,0-1.78,2,1.86,1.86,0,0,0,1.78,2,1.85,1.85,0,0,0,1.8-2A1.82,1.82,0,0,0,131.59,242.59Z"/><path class="cls-1" d="M140.2,242.75v4.54h-.92v-4.54h-.51v-.86h.51v-2.3a3,3,0,0,1,.14-1,1.5,1.5,0,0,1,1.46-.9,2.55,2.55,0,0,1,.67.12v.94a1.59,1.59,0,0,0-.61-.13c-.67,0-.74.5-.74,1v2.26h1.35v.86Z"/><path class="cls-1" d="M144.89,247.44a2.84,2.84,0,1,1,2.85-2.83A2.82,2.82,0,0,1,144.89,247.44Zm0-4.83a2,2,0,1,0,1.91,2A1.89,1.89,0,0,0,144.88,242.61Zm-1.12-1.82a.66.66,0,0,1-.65-.65.65.65,0,1,1,.65.65Zm2.26,0a.65.65,0,0,1-.64-.65.65.65,0,1,1,1.29,0A.64.64,0,0,1,146,240.79Z"/><path class="cls-1" d="M151.69,242.83a.8.8,0,0,0-.54-.18,1,1,0,0,0-.47.11c-.6.33-.6,1.09-.6,1.68v2.85h-.92v-5.4h.92v.59a1.45,1.45,0,0,1,1.22-.72,1.56,1.56,0,0,1,.83.22Z"/><path class="cls-1" d="M160.36,247.29v-.76a2.29,2.29,0,0,1-1.87.91,2.67,2.67,0,0,1-2.6-2.87,2.63,2.63,0,0,1,2.59-2.81,2.27,2.27,0,0,1,1.88.9v-.77h.93v5.4Zm-1.74-4.7a1.85,1.85,0,0,0-1.78,2,1.86,1.86,0,0,0,1.78,2,1.85,1.85,0,0,0,1.8-2A1.83,1.83,0,0,0,158.62,242.59Z"/><path class="cls-1" d="M164,242.75v4.54h-.94v-4.54h-.55v-.86h.55v-1.95H164v1.95h.95v.86Z"/><path class="cls-1" d="M166.77,242.75v4.54h-.93v-4.54h-.56v-.86h.56v-1.95h.93v1.95h.95v.86Z"/><path class="cls-1" d="M173.32,247.44a1.92,1.92,0,0,1-1.88-1.38l.81-.33c.22.48.52.87,1.09.87a.84.84,0,0,0,.88-.85c0-1.17-2.43-.8-2.43-2.48a1.51,1.51,0,0,1,1.57-1.51,1.64,1.64,0,0,1,1.49,1l-.77.4a.87.87,0,0,0-.76-.53.65.65,0,0,0-.65.59c0,1,2.5.71,2.5,2.47A1.77,1.77,0,0,1,173.32,247.44Z"/><path class="cls-1" d="M177,244.78a1.75,1.75,0,0,0,1.72,1.82,1.86,1.86,0,0,0,1.66-1.12l.78.43a2.69,2.69,0,0,1-2.47,1.53,2.85,2.85,0,0,1,0-5.68,2.58,2.58,0,0,1,2.57,2.84v.18Zm1.67-2.17a1.65,1.65,0,0,0-1.6,1.39h3.17A1.62,1.62,0,0,0,178.71,242.61Z"/><path class="cls-1" d="M186.86,242.75v4.54h-.94v-4.54h-.56v-.86h.56v-1.95h.94v1.95h.95v.86Z"/><path class="cls-1" d="M191.21,247.44a2.84,2.84,0,1,1,2.85-2.83A2.82,2.82,0,0,1,191.21,247.44Zm0-4.83a2,2,0,1,0,1.91,2A1.89,1.89,0,0,0,191.2,242.61Z"/><path class="cls-1" d="M201.63,247.29V244c0-.69-.12-1.42-1-1.42s-1.16.91-1.16,1.69v3h-.92v-3.2c0-.68-.14-1.5-1-1.5a1.12,1.12,0,0,0-1,.59,2.46,2.46,0,0,0-.21,1.17v2.94h-.92v-5.4h.92v.57a1.55,1.55,0,0,1,1.34-.7,1.63,1.63,0,0,1,1.48.87,1.84,1.84,0,0,1,3-.14,2.52,2.52,0,0,1,.3,1.38v3.42Z"/><path class="cls-1" d="M205.25,242.75v4.54h-.93v-4.54h-.56v-.86h.56v-1.95h.93v1.95h.95v.86Z"/><path class="cls-1" d="M207.72,244.78a1.74,1.74,0,0,0,1.72,1.82,1.86,1.86,0,0,0,1.66-1.12l.78.43a2.69,2.69,0,0,1-2.47,1.53,2.85,2.85,0,0,1,0-5.68,2.58,2.58,0,0,1,2.57,2.84v.18Zm1.67-2.17a1.65,1.65,0,0,0-1.6,1.39H211A1.62,1.62,0,0,0,209.39,242.61Z"/><path class="cls-1" d="M215.89,242.83a.83.83,0,0,0-.55-.18,1,1,0,0,0-.47.11c-.6.33-.6,1.09-.6,1.68v2.85h-.92v-5.4h.92v.59a1.47,1.47,0,0,1,1.23-.72,1.61,1.61,0,0,1,.83.22Z"/><path class="cls-1" d="M106,262.29V259c0-.69-.12-1.42-1-1.42s-1.15.91-1.15,1.69v3H103v-3.2c0-.68-.14-1.5-1-1.5a1.12,1.12,0,0,0-1,.59,2.59,2.59,0,0,0-.21,1.17v2.94h-.92v-5.4h.92v.57a1.55,1.55,0,0,1,1.34-.7,1.63,1.63,0,0,1,1.48.87,1.84,1.84,0,0,1,3-.14,2.52,2.52,0,0,1,.3,1.38v3.42Z"/><path class="cls-1" d="M109.35,259.78a1.75,1.75,0,0,0,1.72,1.82,1.86,1.86,0,0,0,1.66-1.12l.78.43a2.69,2.69,0,0,1-2.47,1.53,2.85,2.85,0,0,1-.05-5.68,2.58,2.58,0,0,1,2.57,2.84v.18Zm1.67-2.17a1.65,1.65,0,0,0-1.6,1.39h3.17A1.62,1.62,0,0,0,111,257.61Z"/><path class="cls-1" d="M119.1,262.29v-.76a2.29,2.29,0,0,1-1.87.91,2.67,2.67,0,0,1-2.6-2.86,2.64,2.64,0,0,1,2.59-2.82,2.3,2.3,0,0,1,1.88.9v-4.85H120v9.48Zm-1.74-4.68a2,2,0,1,0,1.79,2A1.8,1.8,0,0,0,117.36,257.61Z"/><path class="cls-1" d="M128.45,262.29V259c0-.81-.2-1.4-1.12-1.4-1.21,0-1.36,1-1.36,2v2.69H125v-9.48H126v4.71a2,2,0,0,1,3.09,0,2.51,2.51,0,0,1,.31,1.45v3.34Z"/><path class="cls-1" d="M134.94,261.77a2.38,2.38,0,0,1-3.31,0,2.25,2.25,0,0,1-.49-1.63v-3.25h.92V260a2,2,0,0,0,.17,1,1.28,1.28,0,0,0,2.1,0,2.19,2.19,0,0,0,.16-1v-3.15h.93v3.25A2.2,2.2,0,0,1,134.94,261.77Z"/><path class="cls-1" d="M138.64,262.44a1.91,1.91,0,0,1-1.88-1.38l.8-.33c.22.48.52.87,1.09.87a.84.84,0,0,0,.89-.85c0-1.17-2.43-.8-2.43-2.48a1.51,1.51,0,0,1,1.57-1.51,1.61,1.61,0,0,1,1.48,1l-.77.4a.85.85,0,0,0-.75-.53.65.65,0,0,0-.65.59c0,.95,2.5.71,2.5,2.47A1.78,1.78,0,0,1,138.64,262.44Z"/><path class="cls-1" d="M142.66,257.75v4.54h-.93v-4.54h-.5v-.86h.5v-2.3a3,3,0,0,1,.15-1,1.49,1.49,0,0,1,1.45-.9,2.55,2.55,0,0,1,.68.12v.94a1.63,1.63,0,0,0-.61-.13c-.68,0-.74.5-.74,1v2.26H144v.86Z"/><path class="cls-1" d="M147.35,262.44a2.84,2.84,0,1,1,2.85-2.83A2.82,2.82,0,0,1,147.35,262.44Zm0-4.83a2,2,0,1,0,1.91,2A1.89,1.89,0,0,0,147.34,257.61Zm-1.12-1.82a.66.66,0,0,1-.65-.65.65.65,0,1,1,.65.65Zm2.26,0a.66.66,0,0,1-.65-.65.65.65,0,1,1,.65.65Z"/><path class="cls-1" d="M154.15,257.83a.83.83,0,0,0-.55-.18,1,1,0,0,0-.46.11c-.6.33-.6,1.09-.6,1.68v2.85h-.93v-5.4h.93v.59a1.44,1.44,0,0,1,1.22-.72,1.56,1.56,0,0,1,.83.22Z"/><path class="cls-1" d="M156.91,262.44a1.92,1.92,0,0,1-1.89-1.38l.81-.33c.22.48.52.87,1.09.87a.84.84,0,0,0,.88-.85c0-1.17-2.43-.8-2.43-2.48a1.52,1.52,0,0,1,1.57-1.51,1.64,1.64,0,0,1,1.49,1l-.77.4a.86.86,0,0,0-.75-.53.65.65,0,0,0-.66.59c0,.95,2.5.71,2.5,2.47A1.77,1.77,0,0,1,156.91,262.44Z"/><path class="cls-1" d="M160,262.29v-9.48h.92v9.48Z"/><path class="cls-1" d="M166.81,262.29v-.76a2.29,2.29,0,0,1-1.87.91,2.67,2.67,0,0,1-2.6-2.87,2.63,2.63,0,0,1,2.59-2.81,2.28,2.28,0,0,1,1.88.9v-.77h.92v5.4Zm-1.74-4.7a1.84,1.84,0,0,0-1.78,2,1.86,1.86,0,0,0,1.78,2,1.84,1.84,0,0,0,1.79-2A1.82,1.82,0,0,0,165.07,257.59Z"/><path class="cls-1" d="M174,264.29a2.63,2.63,0,0,1-2.16,1,2.44,2.44,0,0,1-2.63-2.47h.93a1.61,1.61,0,0,0,1.71,1.64c1.3,0,1.73-1,1.73-2.13v-.8a2.44,2.44,0,0,1-1.9.9,2.65,2.65,0,0,1-2.57-2.82,2.68,2.68,0,0,1,2.61-2.85,2.29,2.29,0,0,1,1.86.89v-.76h.94v5.28A3.29,3.29,0,0,1,174,264.29Zm-2.17-6.7a1.85,1.85,0,0,0-1.77,2,1.82,1.82,0,0,0,1.77,2,2,2,0,0,0,0-4Z"/><path class="cls-1" d="M182.09,262.44a2.84,2.84,0,1,1,2.84-2.83A2.82,2.82,0,0,1,182.09,262.44Zm0-4.83a2,2,0,1,0,1.91,2A1.89,1.89,0,0,0,182.07,257.61Z"/><path class="cls-1" d="M188.87,262.44a2.84,2.84,0,1,1,0-5.68,3,3,0,0,1,1.68.52v1.22a2.16,2.16,0,0,0-1.69-.89,1.92,1.92,0,0,0-1.91,2,1.9,1.9,0,0,0,1.88,2,2.2,2.2,0,0,0,1.76-.94v1.22A2.88,2.88,0,0,1,188.87,262.44Z"/><path class="cls-1" d="M195.41,262.29V259c0-.81-.19-1.4-1.12-1.4-1.21,0-1.36,1-1.36,2v2.69H192v-9.48h.93v4.71a2,2,0,0,1,3.09,0,2.51,2.51,0,0,1,.31,1.45v3.34Z"/><path class="cls-1" d="M204.16,262.44a2.34,2.34,0,0,1-1.89-.91v3.8h-.92v-8.44h.92v.76a2.34,2.34,0,0,1,1.88-.89,2.67,2.67,0,0,1,2.6,2.86A2.64,2.64,0,0,1,204.16,262.44Zm-.14-4.85a1.86,1.86,0,0,0-1.8,2,1.8,1.8,0,1,0,3.58,0A1.86,1.86,0,0,0,204,257.59Z"/><path class="cls-1" d="M210.7,257.83a.83.83,0,0,0-.55-.18,1,1,0,0,0-.47.11c-.59.33-.59,1.09-.59,1.68v2.85h-.93v-5.4h.93v.59a1.44,1.44,0,0,1,1.22-.72,1.59,1.59,0,0,1,.83.22Z"/><path class="cls-1" d="M212.47,255.51a.66.66,0,1,1,.66-.66A.67.67,0,0,1,212.47,255.51Zm-.47,6.78v-5.4h.92v5.4Z"/><path class="cls-1" d="M216.16,262.44a1.93,1.93,0,0,1-1.89-1.38l.81-.33c.22.48.52.87,1.09.87a.84.84,0,0,0,.89-.85c0-1.17-2.43-.8-2.43-2.48a1.51,1.51,0,0,1,1.57-1.51,1.61,1.61,0,0,1,1.48,1l-.77.4a.85.85,0,0,0-.75-.53.64.64,0,0,0-.65.59c0,.95,2.49.71,2.49,2.47A1.77,1.77,0,0,1,216.16,262.44Z"/><path class="cls-1" d="M220.18,262.42a.64.64,0,0,1-.64-.64.65.65,0,0,1,.64-.65.65.65,0,1,1,0,1.29Zm-.47-1.89v-6.91h.93v6.91Z"/></svg>