<svg id="Layer_1" data-name="Layer 1" xmlns="http://www.w3.org/2000/svg" viewBox="0 0 320 320"><defs><style>.cls-1{fill:#d80201;}</style></defs><title>text</title><path class="cls-1" d="M113.73,247.29v-8.67h1v7.77h2.39v.9Z"/><path class="cls-1" d="M122.26,247.29v-.76a2.29,2.29,0,0,1-1.87.91,2.67,2.67,0,0,1-2.6-2.87,2.63,2.63,0,0,1,2.59-2.81,2.28,2.28,0,0,1,1.88.9v-.77h.92v5.4Zm-1.74-4.7a1.84,1.84,0,0,0-1.78,2,1.86,1.86,0,0,0,1.78,2,1.84,1.84,0,0,0,1.79-2A1.82,1.82,0,0,0,120.52,242.59Z"/><path class="cls-1" d="M128.35,247.29V244.1c0-.84-.12-1.51-1.14-1.51-1.19,0-1.33,1-1.33,2v2.71H125v-5.4h.93v.65a1.82,1.82,0,0,1,1.56-.78,1.85,1.85,0,0,1,1.53.74,2.53,2.53,0,0,1,.31,1.43v3.36Z"/><path class="cls-1" d="M132,242.75v4.54h-.93v-4.54h-.56v-.86h.56v-1.95H132v1.95h1v.86Z"/><path class="cls-1" d="M134.92,246.43h3.72v.86h-5.59l3.9-4.54h-3.17v-.86h5Z"/><path class="cls-1" d="M144.93,247.64l-2.65-5.75h1l1.61,3.63,1.6-3.63h1Z"/><path class="cls-1" d="M152.68,247.29v-.76a2.29,2.29,0,0,1-1.87.91,2.67,2.67,0,0,1-2.6-2.87,2.63,2.63,0,0,1,2.59-2.81,2.28,2.28,0,0,1,1.88.9v-.77h.92v5.4Zm-1.74-4.7a1.84,1.84,0,0,0-1.78,2,1.86,1.86,0,0,0,1.78,2,1.84,1.84,0,0,0,1.79-2A1.82,1.82,0,0,0,150.94,242.59Zm-1.08-1.8a.66.66,0,0,1-.65-.65.65.65,0,1,1,.65.65Zm2.26,0a.66.66,0,0,1-.65-.65.65.65,0,1,1,.65.65Z"/><path class="cls-1" d="M159.91,249.29a2.63,2.63,0,0,1-2.16,1,2.42,2.42,0,0,1-2.62-2.47h.92a1.61,1.61,0,0,0,1.71,1.64c1.3,0,1.73-1,1.73-2.13v-.8a2.44,2.44,0,0,1-1.9.9,2.85,2.85,0,0,1,0-5.67,2.29,2.29,0,0,1,1.86.89v-.76h.94v5.28A3.29,3.29,0,0,1,159.91,249.29Zm-2.17-6.7a1.85,1.85,0,0,0-1.77,2,1.82,1.82,0,0,0,1.77,2,2,2,0,0,0,0-4Z"/><path class="cls-1" d="M169,244.36l-1.78,2h3.64v.9h-5.61l3.16-3.66c.59-.67,1.5-1.65,1.5-2.58a1.73,1.73,0,0,0-3.46.1h-1a3.78,3.78,0,0,1,.19-1,2.71,2.71,0,0,1,5.21.89C170.83,242.36,169.76,243.45,169,244.36Z"/><path class="cls-1" d="M172.86,249.26l-.61-.24,1.06-3,.86.31Z"/><path class="cls-1" d="M179.26,247.29v-8.67h4.49v.91h-3.52v2.57h3.43v.9h-3.43v3.39h3.52v.9Z"/><path class="cls-1" d="M188.63,247.29l-2.19-2.46-.23.23v2.23h-.93v-9.48h.93v6.07l2-2h1.24l-2.32,2.29,2.74,3.11Z"/><path class="cls-1" d="M191.09,244.78a1.76,1.76,0,0,0,1.72,1.82,1.86,1.86,0,0,0,1.66-1.12l.78.43a2.68,2.68,0,0,1-2.46,1.53,2.85,2.85,0,0,1-.06-5.68,2.59,2.59,0,0,1,2.58,2.84v.18Zm1.67-2.17a1.65,1.65,0,0,0-1.6,1.39h3.17A1.61,1.61,0,0,0,192.76,242.61Z"/><path class="cls-1" d="M199.52,247.44a2.29,2.29,0,0,1-1.87-.91v.76h-.93v-9.48h.93v4.85a2.3,2.3,0,0,1,1.88-.9,2.64,2.64,0,0,1,2.59,2.82A2.67,2.67,0,0,1,199.52,247.44Zm-.13-4.83a1.82,1.82,0,0,0-1.8,2,1.8,1.8,0,1,0,1.8-2Z"/><path class="cls-1" d="M204.3,250.33h-1l1.74-3.55-2.48-4.89h1.07l1.91,3.86,1.74-3.86h1Z"/><path class="cls-1" d="M87.43,262.44a2.65,2.65,0,0,1-2.68-2.23l.94-.26a1.76,1.76,0,0,0,1.76,1.58,1.71,1.71,0,0,0,1.75-1.71c0-2-4-1.56-4-4.11a2.29,2.29,0,0,1,2.43-2.24,2.49,2.49,0,0,1,2.24,1.35l-.77.51a1.59,1.59,0,0,0-1.48-1,1.38,1.38,0,0,0-1.44,1.33c0,1.79,4,1.27,4,4.07A2.66,2.66,0,0,1,87.43,262.44Z"/><path class="cls-1" d="M94.21,262.44a2.84,2.84,0,1,1,2.85-2.83A2.82,2.82,0,0,1,94.21,262.44Zm0-4.83a2,2,0,1,0,1.91,2A1.89,1.89,0,0,0,94.2,257.61Zm-1.12-1.82a.66.66,0,0,1-.65-.65.65.65,0,1,1,.65.65Zm2.27,0a.66.66,0,0,1-.65-.65.65.65,0,1,1,1.3,0A.65.65,0,0,1,95.35,255.79Z"/><path class="cls-1" d="M101.87,262.29V259.1c0-.84-.12-1.51-1.13-1.51-1.2,0-1.34,1-1.34,2v2.71h-.92v-5.4h.92v.65a1.83,1.83,0,0,1,1.56-.78,1.86,1.86,0,0,1,1.54.74,2.53,2.53,0,0,1,.31,1.43v3.36Z"/><path class="cls-1" d="M108.7,262.29v-.76a2.31,2.31,0,0,1-1.88.91,2.68,2.68,0,0,1-2.6-2.86,2.65,2.65,0,0,1,2.59-2.82,2.33,2.33,0,0,1,1.89.9v-4.85h.92v9.48ZM107,257.61a2,2,0,1,0,1.8,2A1.8,1.8,0,0,0,107,257.61Z"/><path class="cls-1" d="M115.51,262.29v-.76a2.3,2.3,0,0,1-1.87.91,2.67,2.67,0,0,1-2.6-2.87,2.62,2.62,0,0,1,2.58-2.81,2.29,2.29,0,0,1,1.89.9v-.77h.92v5.4Zm-1.74-4.7a1.84,1.84,0,0,0-1.78,2,1.86,1.86,0,0,0,1.78,2,1.84,1.84,0,0,0,1.79-2A1.82,1.82,0,0,0,113.77,257.59Z"/><path class="cls-1" d="M122.74,264.29a2.63,2.63,0,0,1-2.16,1,2.43,2.43,0,0,1-2.63-2.47h.93a1.6,1.6,0,0,0,1.71,1.64c1.3,0,1.73-1,1.73-2.13v-.8a2.44,2.44,0,0,1-1.9.9,2.85,2.85,0,0,1,0-5.67,2.29,2.29,0,0,1,1.86.89v-.76h.94v5.28A3.29,3.29,0,0,1,122.74,264.29Zm-2.18-6.7a1.85,1.85,0,0,0-1.76,2,1.82,1.82,0,0,0,1.76,2,2,2,0,0,0,0-4Z"/><path class="cls-1" d="M131.78,259.36l-1.78,2h3.64v.9H128l3.16-3.66c.58-.67,1.49-1.65,1.49-2.58a1.73,1.73,0,1,0-3.45.1h-1a4.22,4.22,0,0,1,.18-1,2.71,2.71,0,0,1,5.22.89C133.66,257.36,132.59,258.45,131.78,259.36Z"/><path class="cls-1" d="M140.35,262.44a1.91,1.91,0,0,1-1.88-1.38l.8-.33c.22.48.52.87,1.09.87a.84.84,0,0,0,.89-.85c0-1.17-2.43-.8-2.43-2.48a1.51,1.51,0,0,1,1.57-1.51,1.61,1.61,0,0,1,1.48,1l-.77.4a.85.85,0,0,0-.75-.53.65.65,0,0,0-.65.59c0,.95,2.5.71,2.5,2.47A1.78,1.78,0,0,1,140.35,262.44Z"/><path class="cls-1" d="M144.07,259.78a1.74,1.74,0,0,0,1.71,1.82,1.87,1.87,0,0,0,1.67-1.12l.78.43a2.7,2.7,0,0,1-2.47,1.53,2.85,2.85,0,0,1,0-5.68,2.58,2.58,0,0,1,2.57,2.84v.18Zm1.66-2.17a1.67,1.67,0,0,0-1.6,1.39h3.18A1.63,1.63,0,0,0,145.73,257.61Z"/><path class="cls-1" d="M152.5,262.44a2.32,2.32,0,0,1-1.88-.91v3.8h-.92v-8.44h.92v.76a2.33,2.33,0,0,1,1.87-.89,2.67,2.67,0,0,1,2.6,2.86A2.64,2.64,0,0,1,152.5,262.44Zm-.14-4.85a1.86,1.86,0,0,0-1.79,2,1.79,1.79,0,1,0,3.57,0A1.86,1.86,0,0,0,152.36,257.59Z"/><path class="cls-1" d="M157.45,257.75v4.54h-.94v-4.54H156v-.86h.56v-1.95h.94v1.95h.94v.86Z"/><path class="cls-1" d="M159.92,259.78a1.74,1.74,0,0,0,1.71,1.82,1.86,1.86,0,0,0,1.66-1.12l.79.43a2.7,2.7,0,0,1-2.47,1.53,2.85,2.85,0,0,1-.06-5.68,2.59,2.59,0,0,1,2.58,2.84v.18Zm1.66-2.17A1.65,1.65,0,0,0,160,259h3.17A1.61,1.61,0,0,0,161.58,257.61Z"/><path class="cls-1" d="M171.69,262.29V259c0-.69-.11-1.42-1-1.42s-1.16.91-1.16,1.69v3h-.92v-3.2c0-.68-.14-1.5-1-1.5a1.15,1.15,0,0,0-1,.59,2.58,2.58,0,0,0-.2,1.17v2.94h-.93v-5.4h.93v.57a1.55,1.55,0,0,1,1.34-.7,1.64,1.64,0,0,1,1.48.87,1.84,1.84,0,0,1,3-.14,2.52,2.52,0,0,1,.3,1.38v3.42Z"/><path class="cls-1" d="M177.18,262.44a2.29,2.29,0,0,1-1.87-.91v.76h-.93v-9.48h.93v4.85a2.3,2.3,0,0,1,1.88-.9,2.64,2.64,0,0,1,2.59,2.82A2.67,2.67,0,0,1,177.18,262.44Zm-.13-4.83a1.82,1.82,0,0,0-1.8,2,1.8,1.8,0,1,0,1.8-2Z"/><path class="cls-1" d="M181.82,259.78a1.74,1.74,0,0,0,1.72,1.82,1.87,1.87,0,0,0,1.66-1.12l.78.43a2.7,2.7,0,0,1-2.47,1.53,2.85,2.85,0,0,1,0-5.68A2.58,2.58,0,0,1,186,259.6v.18Zm1.66-2.17a1.67,1.67,0,0,0-1.6,1.39h3.18A1.62,1.62,0,0,0,183.48,257.61Z"/><path class="cls-1" d="M190,257.83a.8.8,0,0,0-.54-.18,1,1,0,0,0-.47.11c-.6.33-.6,1.09-.6,1.68v2.85h-.92v-5.4h.92v.59a1.45,1.45,0,0,1,1.22-.72,1.62,1.62,0,0,1,.84.22Z"/><path class="cls-1" d="M197.87,262.29l-2.18-2.46-.23.23v2.23h-.93v-9.48h.93v6.07l2-2h1.23l-2.31,2.29,2.74,3.11Z"/><path class="cls-1" d="M200,262.29v-9.48h.92v9.48Z"/><path class="cls-1" d="M208.51,262.29v-7.76h-1.44l.5-.91h1.9v8.67Z"/><path class="cls-1" d="M215.88,262.29v-7.76h-1.44l.5-.91h1.9v8.67Z"/><path class="cls-1" d="M219.8,259.93v-.83h2.36v.83Z"/><path class="cls-1" d="M225.6,262.29v-7.76h-1.44l.51-.91h1.89v8.67Z"/><path class="cls-1" d="M233,262.43a2.69,2.69,0,0,1-2-.86,2.28,2.28,0,0,1-.58-1.53h.94a1.61,1.61,0,0,0,.3.84,1.73,1.73,0,0,0,1.36.65,1.69,1.69,0,0,0,1.71-1.73c0-1.13-.8-1.63-1.85-1.63v-.85a2,2,0,0,0,1-.21,1.46,1.46,0,0,0,.69-1.27,1.5,1.5,0,0,0-2.67-.91,2,2,0,0,0-.28.83h-.95a2.28,2.28,0,0,1,2.41-2.27,2.32,2.32,0,0,1,2.45,2.32,2.13,2.13,0,0,1-1.12,1.93,2.21,2.21,0,0,1,1.25,2.09A2.57,2.57,0,0,1,233,262.43Z"/></svg>