<svg id="Layer_1" data-name="Layer 1" xmlns="http://www.w3.org/2000/svg" viewBox="0 0 320 320"><defs><style>.cls-1{fill:#d80201;}</style></defs><title>text</title><path class="cls-1" d="M99.43,247.44a2.64,2.64,0,0,1-2.67-2.23l.93-.26a1.76,1.76,0,0,0,1.77,1.58,1.71,1.71,0,0,0,1.74-1.71c0-2-4-1.56-4-4.11a2.29,2.29,0,0,1,2.43-2.24,2.5,2.5,0,0,1,2.24,1.35l-.77.51a1.61,1.61,0,0,0-1.48-1,1.38,1.38,0,0,0-1.45,1.33c0,1.79,4,1.27,4,4.07A2.67,2.67,0,0,1,99.43,247.44Z"/><path class="cls-1" d="M106.22,247.44a2.84,2.84,0,1,1,2.85-2.83A2.82,2.82,0,0,1,106.22,247.44Zm0-4.83a2,2,0,1,0,1.91,2A1.89,1.89,0,0,0,106.21,242.61Z"/><path class="cls-1" d="M110.48,247.29v-9.48h.93v9.48Z"/><path class="cls-1" d="M116,247.44a2.29,2.29,0,0,1-1.87-.91v.76h-.93v-9.48h.93v4.85a2.3,2.3,0,0,1,1.88-.9,2.64,2.64,0,0,1,2.59,2.82A2.67,2.67,0,0,1,116,247.44Zm-.13-4.83a1.82,1.82,0,0,0-1.79,2,1.79,1.79,0,1,0,1.79-2Z"/><path class="cls-1" d="M124.11,247.29v-.76a2.3,2.3,0,0,1-1.87.91,2.67,2.67,0,0,1-2.6-2.87,2.62,2.62,0,0,1,2.58-2.81,2.29,2.29,0,0,1,1.89.9v-.77H125v5.4Zm-1.74-4.7a1.85,1.85,0,0,0-1.79,2,1.87,1.87,0,0,0,1.79,2,1.84,1.84,0,0,0,1.79-2A1.82,1.82,0,0,0,122.37,242.59Z"/><path class="cls-1" d="M129.32,247.44a2.84,2.84,0,1,1,0-5.68,3,3,0,0,1,1.68.52v1.22a2.16,2.16,0,0,0-1.69-.89,1.92,1.92,0,0,0-1.91,2,1.9,1.9,0,0,0,1.88,2,2.2,2.2,0,0,0,1.76-.94v1.22A2.9,2.9,0,0,1,129.32,247.44Z"/><path class="cls-1" d="M135.79,247.29l-2.18-2.46-.23.23v2.23h-.93v-9.48h.93v6.07l2-2h1.23l-2.31,2.29,2.74,3.11Z"/><path class="cls-1" d="M138.26,244.78A1.76,1.76,0,0,0,140,246.6a1.86,1.86,0,0,0,1.66-1.12l.78.43a2.69,2.69,0,0,1-2.47,1.53,2.85,2.85,0,0,1,0-5.68,2.59,2.59,0,0,1,2.58,2.84v.18Zm1.67-2.17a1.65,1.65,0,0,0-1.6,1.39h3.17A1.61,1.61,0,0,0,139.93,242.61Z"/><path class="cls-1" d="M147.29,247.29V244.1c0-.84-.12-1.51-1.13-1.51-1.2,0-1.34,1-1.34,2v2.71h-.93v-5.4h.93v.65a1.83,1.83,0,0,1,1.56-.78,1.85,1.85,0,0,1,1.53.74,2.45,2.45,0,0,1,.31,1.43v3.36Z"/><path class="cls-1" d="M155.77,247.43a2.71,2.71,0,0,1-2-.86,2.32,2.32,0,0,1-.57-1.53h.94a1.61,1.61,0,0,0,.3.84,1.72,1.72,0,0,0,1.36.65,1.68,1.68,0,0,0,1.7-1.73c0-1.13-.79-1.63-1.84-1.63v-.85a2,2,0,0,0,1-.21,1.49,1.49,0,1,0-2-2.18,2,2,0,0,0-.29.83h-.95a2.29,2.29,0,0,1,2.42-2.27,2.32,2.32,0,0,1,2.45,2.32,2.13,2.13,0,0,1-1.12,1.93,2.21,2.21,0,0,1,1.25,2.09A2.58,2.58,0,0,1,155.77,247.43Z"/><path class="cls-1" d="M164.12,244.36l-1.78,2H166v.9h-5.6l3.16-3.66c.58-.67,1.49-1.65,1.49-2.58a1.68,1.68,0,0,0-1.73-1.68,1.7,1.7,0,0,0-1.73,1.78h-1a3.38,3.38,0,0,1,.18-1,2.71,2.71,0,0,1,5.21.89C166,242.36,164.93,243.45,164.12,244.36Z"/><path class="cls-1" d="M168,249.26l-.61-.24,1.07-3,.85.31Z"/><path class="cls-1" d="M174.43,247.29v-8.67h1v7.77h2.39v.9Z"/><path class="cls-1" d="M183,247.29v-.76a2.3,2.3,0,0,1-1.87.91,2.67,2.67,0,0,1-2.6-2.87,2.62,2.62,0,0,1,2.58-2.81,2.29,2.29,0,0,1,1.89.9v-.77h.92v5.4Zm-1.74-4.7a1.85,1.85,0,0,0-1.79,2,1.87,1.87,0,0,0,1.79,2,1.84,1.84,0,0,0,1.79-2A1.82,1.82,0,0,0,181.22,242.59Z"/><path class="cls-1" d="M189,247.29V244.1c0-.84-.12-1.51-1.13-1.51-1.2,0-1.34,1-1.34,2v2.71h-.92v-5.4h.92v.65a1.83,1.83,0,0,1,1.56-.78,1.86,1.86,0,0,1,1.54.74,2.53,2.53,0,0,1,.31,1.43v3.36Z"/><path class="cls-1" d="M195.87,247.29v-.76a2.32,2.32,0,0,1-1.88.91,2.68,2.68,0,0,1-2.6-2.86,2.65,2.65,0,0,1,2.59-2.82,2.33,2.33,0,0,1,1.89.9v-4.85h.92v9.48Zm-1.75-4.68a2,2,0,1,0,1.8,2A1.81,1.81,0,0,0,194.12,242.61Z"/><path class="cls-1" d="M200.43,247.64l-2.65-5.75h1l1.61,3.63,1.6-3.63h1Z"/><path class="cls-1" d="M204.5,244.78a1.74,1.74,0,0,0,1.71,1.82,1.88,1.88,0,0,0,1.67-1.12l.78.43a2.7,2.7,0,0,1-2.47,1.53,2.85,2.85,0,0,1-.05-5.68,2.58,2.58,0,0,1,2.57,2.84v.18Zm1.66-2.17a1.67,1.67,0,0,0-1.6,1.39h3.17A1.61,1.61,0,0,0,206.16,242.61Z"/><path class="cls-1" d="M211.06,242.75v4.54h-.93v-4.54h-.56v-.86h.56v-1.95h.93v1.95H212v.86Z"/><path class="cls-1" d="M213.84,242.75v4.54h-.93v-4.54h-.56v-.86h.56v-1.95h.93v1.95h.95v.86Z"/><path class="cls-1" d="M216.31,244.78A1.76,1.76,0,0,0,218,246.6a1.86,1.86,0,0,0,1.66-1.12l.78.43a2.68,2.68,0,0,1-2.47,1.53,2.85,2.85,0,0,1-.05-5.68,2.59,2.59,0,0,1,2.58,2.84v.18Zm1.67-2.17a1.65,1.65,0,0,0-1.6,1.39h3.17A1.61,1.61,0,0,0,218,242.61Z"/><path class="cls-1" d="M224.48,242.83a.83.83,0,0,0-.55-.18,1,1,0,0,0-.47.11c-.59.33-.59,1.09-.59,1.68v2.85h-.93v-5.4h.93v.59a1.44,1.44,0,0,1,1.22-.72,1.59,1.59,0,0,1,.83.22Z"/><path class="cls-1" d="M85,262.44a2.65,2.65,0,0,1-2.68-2.23l.94-.26A1.76,1.76,0,0,0,85,261.53a1.71,1.71,0,0,0,1.75-1.71c0-2-4-1.56-4-4.11a2.29,2.29,0,0,1,2.43-2.24,2.49,2.49,0,0,1,2.24,1.35l-.77.51a1.59,1.59,0,0,0-1.48-1,1.38,1.38,0,0,0-1.44,1.33c0,1.79,4,1.27,4,4.07A2.66,2.66,0,0,1,85,262.44Z"/><path class="cls-1" d="M91.74,262.44a2.84,2.84,0,1,1,2.85-2.83A2.82,2.82,0,0,1,91.74,262.44Zm0-4.83a2,2,0,1,0,1.91,2A1.89,1.89,0,0,0,91.73,257.61Zm-1.12-1.82a.66.66,0,0,1-.65-.65.65.65,0,1,1,.65.65Zm2.27,0a.66.66,0,0,1-.65-.65.65.65,0,1,1,1.3,0A.65.65,0,0,1,92.88,255.79Z"/><path class="cls-1" d="M99.4,262.29V259.1c0-.84-.12-1.51-1.13-1.51-1.2,0-1.34,1-1.34,2v2.71H96v-5.4h.92v.65a1.83,1.83,0,0,1,1.56-.78,1.86,1.86,0,0,1,1.54.74,2.53,2.53,0,0,1,.31,1.43v3.36Z"/><path class="cls-1" d="M106.23,262.29v-.76a2.31,2.31,0,0,1-1.88.91,2.68,2.68,0,0,1-2.6-2.86,2.65,2.65,0,0,1,2.59-2.82,2.33,2.33,0,0,1,1.89.9v-4.85h.92v9.48Zm-1.75-4.68a2,2,0,1,0,1.8,2A1.8,1.8,0,0,0,104.48,257.61Z"/><path class="cls-1" d="M113,262.29v-.76a2.3,2.3,0,0,1-1.87.91,2.67,2.67,0,0,1-2.6-2.87,2.62,2.62,0,0,1,2.58-2.81,2.29,2.29,0,0,1,1.89.9v-.77H114v5.4Zm-1.74-4.7a1.84,1.84,0,0,0-1.78,2,1.86,1.86,0,0,0,1.78,2,1.84,1.84,0,0,0,1.79-2A1.82,1.82,0,0,0,111.3,257.59Z"/><path class="cls-1" d="M120.27,264.29a2.63,2.63,0,0,1-2.16,1,2.43,2.43,0,0,1-2.63-2.47h.92a1.62,1.62,0,0,0,1.72,1.64c1.3,0,1.73-1,1.73-2.13v-.8a2.44,2.44,0,0,1-1.9.9,2.85,2.85,0,0,1,0-5.67,2.31,2.31,0,0,1,1.86.89v-.76h.94v5.28A3.29,3.29,0,0,1,120.27,264.29Zm-2.18-6.7a1.85,1.85,0,0,0-1.76,2,1.82,1.82,0,0,0,1.76,2,2,2,0,0,0,0-4Z"/><path class="cls-1" d="M128.37,262.29v-7.76h-1.45l.51-.91h1.9v8.67Z"/><path class="cls-1" d="M133.81,262.49l-.75-.5,4.91-7.46h-4.73v-.91h6.38Z"/><path class="cls-1" d="M147.19,262.29V259.1c0-.84-.12-1.51-1.13-1.51-1.2,0-1.34,1-1.34,2v2.71h-.93v-5.4h.93v.65a2,2,0,0,1,3.09,0,2.46,2.46,0,0,1,.32,1.43v3.36Z"/><path class="cls-1" d="M152.4,262.44a2.84,2.84,0,1,1,2.85-2.83A2.82,2.82,0,0,1,152.4,262.44Zm0-4.83a2,2,0,1,0,1.91,2A1.89,1.89,0,0,0,152.39,257.61Z"/><path class="cls-1" d="M158.32,262.64l-2.66-5.75h1l1.62,3.63,1.6-3.63h1Z"/><path class="cls-1" d="M162.38,259.78a1.76,1.76,0,0,0,1.72,1.82,1.88,1.88,0,0,0,1.67-1.12l.77.43a2.68,2.68,0,0,1-2.46,1.53,2.85,2.85,0,0,1-.06-5.68,2.59,2.59,0,0,1,2.58,2.84v.18Zm1.67-2.17a1.65,1.65,0,0,0-1.6,1.39h3.17A1.61,1.61,0,0,0,164.05,257.61Z"/><path class="cls-1" d="M174.16,262.29V259c0-.69-.11-1.42-1-1.42s-1.16.91-1.16,1.69v3h-.92v-3.2c0-.68-.15-1.5-1-1.5a1.12,1.12,0,0,0-1,.59,2.46,2.46,0,0,0-.21,1.17v2.94H168v-5.4h.93v.57a1.55,1.55,0,0,1,1.34-.7,1.64,1.64,0,0,1,1.48.87,1.84,1.84,0,0,1,3-.14,2.52,2.52,0,0,1,.3,1.38v3.42Z"/><path class="cls-1" d="M179.65,262.44a2.29,2.29,0,0,1-1.87-.91v.76h-.93v-9.48h.93v4.85a2.3,2.3,0,0,1,1.88-.9,2.64,2.64,0,0,1,2.59,2.82A2.67,2.67,0,0,1,179.65,262.44Zm-.13-4.83a1.82,1.82,0,0,0-1.8,2,1.8,1.8,0,1,0,1.8-2Z"/><path class="cls-1" d="M184.29,259.78A1.74,1.74,0,0,0,186,261.6a1.87,1.87,0,0,0,1.66-1.12l.78.43a2.7,2.7,0,0,1-2.47,1.53,2.85,2.85,0,0,1,0-5.68,2.58,2.58,0,0,1,2.57,2.84v.18Zm1.66-2.17a1.67,1.67,0,0,0-1.6,1.39h3.18A1.62,1.62,0,0,0,186,257.61Z"/><path class="cls-1" d="M192.45,257.83a.8.8,0,0,0-.54-.18,1,1,0,0,0-.47.11c-.6.33-.6,1.09-.6,1.68v2.85h-.92v-5.4h.92v.59a1.45,1.45,0,0,1,1.22-.72,1.62,1.62,0,0,1,.84.22Z"/><path class="cls-1" d="M200.34,262.29l-2.18-2.46-.23.23v2.23H197v-9.48h.93v6.07l2-2h1.24l-2.32,2.29,2.74,3.11Z"/><path class="cls-1" d="M202.48,262.29v-9.48h.92v9.48Z"/><path class="cls-1" d="M211,262.29v-7.76h-1.44l.5-.91h1.9v8.67Z"/><path class="cls-1" d="M219.3,259.36l-1.78,2h3.64v.9h-5.61l3.16-3.66c.59-.67,1.5-1.65,1.5-2.58a1.68,1.68,0,0,0-1.73-1.68,1.7,1.7,0,0,0-1.73,1.78h-1a3.38,3.38,0,0,1,.18-1,2.71,2.71,0,0,1,5.21.89C221.17,257.36,220.1,258.45,219.3,259.36Z"/><path class="cls-1" d="M222.27,259.93v-.83h2.36v.83Z"/><path class="cls-1" d="M228.07,262.29v-7.76h-1.44l.51-.91H229v8.67Z"/><path class="cls-1" d="M235.42,262.43a2.69,2.69,0,0,1-2-.86,2.28,2.28,0,0,1-.58-1.53h.94a1.61,1.61,0,0,0,.3.84,1.73,1.73,0,0,0,1.36.65,1.69,1.69,0,0,0,1.71-1.73c0-1.13-.8-1.63-1.85-1.63v-.85a2,2,0,0,0,1-.21,1.46,1.46,0,0,0,.69-1.27,1.5,1.5,0,0,0-2.67-.91,2,2,0,0,0-.28.83h-.95a2.28,2.28,0,0,1,2.42-2.27,2.31,2.31,0,0,1,2.44,2.32,2.13,2.13,0,0,1-1.12,1.93,2.21,2.21,0,0,1,1.25,2.09A2.57,2.57,0,0,1,235.42,262.43Z"/></svg>