<svg id="Layer_1" data-name="Layer 1" xmlns="http://www.w3.org/2000/svg" viewBox="0 0 320 320"><defs><style>.cls-1{fill:#d80201;}</style></defs><title>text</title><path class="cls-1" d="M110.69,184c-2,2.17-5.18,1.83-7.87,1.83v7.66h-4V172.82h6c2,0,3.85.15,5.46,1.58a6.61,6.61,0,0,1,2.11,5A6.77,6.77,0,0,1,110.69,184Zm-3.53-7a4.84,4.84,0,0,0-3-.65h-1.39v6h1.64c2,0,3.75-.65,3.75-3A3.08,3.08,0,0,0,107.16,177Z"/><path class="cls-1" d="M121.11,193.93c-4.28,0-7.69-2.66-7.69-7.13s3.41-7.16,7.72-7.16,7.62,2.7,7.62,7.13S125.35,193.93,121.11,193.93Zm0-10.91a3.77,3.77,0,1,0,3.81,3.78A3.8,3.8,0,0,0,121.08,183Z"/><path class="cls-1" d="M139.89,193.93a5.36,5.36,0,0,1-4.49-2.2v8.93h-3.76V180.08h3.76v1.7a5.34,5.34,0,0,1,4.4-2.14c4,0,6.63,3.32,6.63,7.16S143.83,193.93,139.89,193.93ZM138.78,183a3.77,3.77,0,1,0,3.75,3.75A3.75,3.75,0,0,0,138.78,183Z"/><path class="cls-1" d="M155.76,193.93c-3.69,0-6.48-1.64-6.48-5.64v-8.21H153v7.59c0,1.83.77,3.07,2.72,3.07s2.73-1.24,2.73-3.07v-7.59h3.78v8.21C162.27,192.29,159.45,193.93,155.76,193.93Z"/><path class="cls-1" d="M165.87,193.5V170.28h3.75V193.5Z"/><path class="cls-1" d="M183.48,193.5v-1.77a5.19,5.19,0,0,1-4.37,2.2c-4,0-6.61-3.34-6.61-7.19s2.58-7.1,6.51-7.1a5.59,5.59,0,0,1,4.47,2.14v-1.7h3.78V193.5ZM177,177.56a2.23,2.23,0,1,1,0-4.46,2.23,2.23,0,0,1,0,4.46Zm3.13,5.46a3.77,3.77,0,1,0,3.75,3.75A3.74,3.74,0,0,0,180.13,183Zm3.32-5.46a2.27,2.27,0,0,1-2.24-2.23,2.24,2.24,0,1,1,2.24,2.23Z"/><path class="cls-1" d="M199.63,183.49a3.26,3.26,0,0,0-1.8-.47c-2.54,0-3.22,1.8-3.22,4v6.45h-3.76V180.08h3.76v2a4.38,4.38,0,0,1,5.55-2.14Z"/><path class="cls-1" d="M212.28,193.5v-1.77a5.2,5.2,0,0,1-4.38,2.2c-4,0-6.6-3.34-6.6-7.19s2.57-7.1,6.51-7.1a5.59,5.59,0,0,1,4.47,2.14v-1.7h3.78V193.5ZM208.93,183a3.77,3.77,0,1,0,3.75,3.75A3.75,3.75,0,0,0,208.93,183Z"/><path class="cls-1" d="M100,226.5l-1.83-12.74-5.71,13H91.32l-5.49-13L83.75,226.5H79.69l3.84-21.05h2.76L91.94,219l5.89-13.52h2.76L104,226.5Z"/><path class="cls-1" d="M117.7,227a10.73,10.73,0,0,1-11-10.76,11.06,11.06,0,1,1,11,10.76Zm0-17.93a7.14,7.14,0,1,0,6.91,7.1A7,7,0,0,0,117.7,209Z"/><path class="cls-1" d="M140.17,227H138l-8.8-21.21h4.4l5.52,13.89,5.58-13.89h4.37Z"/><path class="cls-1" d="M151.55,226.5V205.82H163v3.5h-7.41v4.59h7.13v3.51h-7.13V223H163v3.5Z"/><path class="cls-1" d="M190.39,214.56h-3.13l-.43,2.79H190l-.53,3.38H186.3l-.93,5.77h-3.88l.93-5.77h-2.85l-.9,5.77h-3.84l.93-5.77h-3.2l.53-3.38h3.2l.43-2.79h-3.16l.52-3.41h3.17l.83-5.33h3.85l-.87,5.33h2.85l.84-5.33h3.88l-.84,5.33h3.13Zm-9.86,0-.43,2.79H183l.44-2.79Z"/><path class="cls-1" d="M197.89,226.5V209.35h-3v-3.53h7V226.5Z"/><path class="cls-1" d="M217.21,227c-5.71,0-8-6-8-10.85s2.26-10.89,8-10.89,8,6,8,10.85S222.94,227,217.21,227Zm0-18.17c-3.17,0-4,4.9-4,7.28s.8,7.35,4,7.35,4-5,4-7.35S220.37,208.86,217.21,208.86Z"/><path class="cls-1" d="M233.42,227a8.87,8.87,0,0,1-6.61-2.7l1.34-3.47a6.92,6.92,0,0,0,5.21,2.63,4.09,4.09,0,0,0,4.12-4c0-2.54-2.36-4.12-4.71-4.12a6.8,6.8,0,0,0-4,1.3h-.22L231,205.82h9.55v3.53h-6.82l-.81,3.2a13.17,13.17,0,0,1,1.52-.13,7,7,0,0,1,7,7.23C241.51,224.33,237.85,227,233.42,227Z"/></svg>