<svg id="Layer_1" data-name="Layer 1" xmlns="http://www.w3.org/2000/svg" viewBox="0 0 320 320"><defs><style>.cls-1{fill:#d4ac76;}</style></defs><title>text</title><path class="cls-1" d="M47.24,182.29V179H62.52v3.33h-5.9v15.22H53.14V182.29Z"/><path class="cls-1" d="M72.74,197.51,65.64,179h3.63l5.09,13.34,5-13.34h3.52l-7,18.55Z"/><path class="cls-1" d="M83.81,197.51,91,179h3.14l7.13,18.55H97.66l-1-2.57h-8.3l-1,2.57Zm8.73-13.36-3,7.7h5.92Zm2.7-8.36a2.55,2.55,0,0,1-.78,1.88,2.66,2.66,0,1,1,0-3.76A2.55,2.55,0,0,1,95.24,175.79Zm-3.36.7a1,1,0,0,0,1.38,0,1,1,0,0,0,.27-.7.94.94,0,0,0-.29-.7,1,1,0,0,0-1.36,0,1,1,0,0,0,0,1.4Z"/><path class="cls-1" d="M105.58,197.51V179h6.66a6.3,6.3,0,0,1,6.44,6.41,5.85,5.85,0,0,1-1.88,4.46,6.44,6.44,0,0,1-4.62,1.78h-3.12v5.9Zm6.36-15.22h-2.88v6.22H112a3.26,3.26,0,0,0,2.33-.83,2.89,2.89,0,0,0,.88-2.22,3,3,0,0,0-.91-2.28A3.24,3.24,0,0,0,111.94,182.29Z"/><path class="cls-1" d="M123.8,197.51V179h3.48v15.21h6.81v3.34Z"/><path class="cls-1" d="M137.31,197.51,144.46,179h3.14l7.13,18.55h-3.57l-1-2.57h-8.3l-1,2.57ZM146,184.15l-3,7.7H149Z"/><path class="cls-1" d="M159.08,197.51V179h2.43l9.13,11.67V179h3.48v18.55H171.8l-9.24-11.81v11.81Z"/><path class="cls-1" d="M185.51,197.75A8.86,8.86,0,0,1,182,197a9.2,9.2,0,0,1-3-2l2.2-2.64a7,7,0,0,0,2,1.66,5.23,5.23,0,0,0,2.44.64,3,3,0,0,0,2-.63,2,2,0,0,0,.77-1.6,2.76,2.76,0,0,0-2-2.58l-2.07-.83a8,8,0,0,1-3.09-2,5.07,5.07,0,0,1,.58-6.68,5.4,5.4,0,0,1,3.94-1.55,8,8,0,0,1,5.71,2.12l-2.05,2.59a4.79,4.79,0,0,0-3.66-1.61,2.51,2.51,0,0,0-1.67.53,1.66,1.66,0,0,0-.63,1.31A1.75,1.75,0,0,0,184,185a5,5,0,0,0,1.6,1l2.16.86q4.13,1.65,4.2,5.36a5.21,5.21,0,0,1-1.74,4.06A6.78,6.78,0,0,1,185.51,197.75Z"/><path class="cls-1" d="M202.14,197.51,195.05,179h3.62l5.1,13.34,5-13.34h3.52l-7,18.55Z"/><path class="cls-1" d="M216.7,197.51V179h3.48v18.55Z"/><path class="cls-1" d="M226.8,197.51V179h3.48v15.21h6.82v3.34Z"/><path class="cls-1" d="M242.12,197.51V179h3.47v15.21h6.82v3.34Z"/><path class="cls-1" d="M255.63,197.51,262.78,179h3.14l7.13,18.55h-3.58l-1-2.57h-8.3l-1,2.57Zm8.72-13.36-3,7.7h5.91Z"/><path class="cls-1" d="M59.34,224.51V206h3.48v18.55Z"/><path class="cls-1" d="M77,224.51,84.19,206h3.14l7.13,18.55H90.88l-1-2.57H81.6l-1,2.57Zm8.73-13.36-3,7.7h5.92Zm2.7-8.36a2.54,2.54,0,0,1-.78,1.88,2.57,2.57,0,0,1-1.9.79,2.63,2.63,0,0,1-1.9-.77,2.7,2.7,0,0,1,0-3.8,2.73,2.73,0,0,1,3.8,0A2.55,2.55,0,0,1,88.46,202.79Zm-3.36.7a1,1,0,0,0,1.38,0,1,1,0,0,0,.27-.7.94.94,0,0,0-.29-.7,1,1,0,0,0-1.36,0,1,1,0,0,0,0,1.4Z"/><path class="cls-1" d="M98.8,224.51V206H102v8.18l7.1-8.18h4.3l-6.55,7.4,6.69,11.15h-4l-5-8.47L102,218.85v5.66Z"/><path class="cls-1" d="M128.82,216.66H122v4.76h7.54v3.09h-11V206h10.8v3.09H122v4.52h6.86Z"/><path class="cls-1" d="M135.14,224.51V206h7.26a6.26,6.26,0,0,1,4.46,1.68,5.79,5.79,0,0,1,1.79,4.4,5.59,5.59,0,0,1-1.33,3.76,6,6,0,0,1-3.46,2l5,6.73h-3.91l-4.82-6.62h-1.49v6.62Zm6.72-15.46h-3.24v6h3.24a3.44,3.44,0,0,0,2.41-.82,2.76,2.76,0,0,0,.9-2.14,2.91,2.91,0,0,0-.93-2.2A3.29,3.29,0,0,0,141.86,209.05Z"/><path class="cls-1" d="M158.93,224.75a8.9,8.9,0,0,1-3.5-.73,9.2,9.2,0,0,1-3-2l2.2-2.64a7,7,0,0,0,2.05,1.66,5.23,5.23,0,0,0,2.44.64,3,3,0,0,0,2-.63,2,2,0,0,0,.77-1.6,2.76,2.76,0,0,0-2-2.58l-2.07-.83a8,8,0,0,1-3.09-2,5.07,5.07,0,0,1,.58-6.68,5.4,5.4,0,0,1,3.94-1.55,8,8,0,0,1,5.71,2.12l-2,2.59a4.79,4.79,0,0,0-3.66-1.61,2.51,2.51,0,0,0-1.67.53,1.66,1.66,0,0,0-.63,1.31,1.75,1.75,0,0,0,.49,1.27,5,5,0,0,0,1.6,1l2.16.86c2.75,1.11,4.15,2.89,4.2,5.36a5.19,5.19,0,0,1-1.74,4.06A6.78,6.78,0,0,1,158.93,224.75Z"/><path class="cls-1" d="M170.66,224.51V206h6.1a5.57,5.57,0,0,1,4.06,1.55,5.14,5.14,0,0,1,1.6,3.83,4.39,4.39,0,0,1-2.09,3.73,5.06,5.06,0,0,1,2.06,1.66,3.94,3.94,0,0,1,.77,2.35,5.08,5.08,0,0,1-1.62,3.93,5.82,5.82,0,0,1-4.1,1.5Zm5.7-15.46h-2.49v4.66h2.77a2.59,2.59,0,0,0,1.85-.68,2.31,2.31,0,0,0,.71-1.72,2,2,0,0,0-.78-1.64A3.26,3.26,0,0,0,176.36,209.05Zm.52,7.45h-3v4.92h2.94a3,3,0,0,0,2.1-.7,2.34,2.34,0,0,0,.77-1.8,2.28,2.28,0,0,0-.72-1.76A3,3,0,0,0,176.88,216.5Z"/><path class="cls-1" d="M199.07,216.66h-6.86v4.76h7.53v3.09h-11V206h10.8v3.09h-7.32v4.52h6.86Z"/><path class="cls-1" d="M205.38,224.51V206h7.26a6.27,6.27,0,0,1,4.47,1.68,5.79,5.79,0,0,1,1.79,4.4,5.59,5.59,0,0,1-1.33,3.76,6,6,0,0,1-3.47,2l5,6.73h-3.91l-4.82-6.62h-1.5v6.62Zm6.72-15.46h-3.24v6h3.24a3.45,3.45,0,0,0,2.42-.82,2.76,2.76,0,0,0,.9-2.14,2.91,2.91,0,0,0-.93-2.2A3.3,3.3,0,0,0,212.1,209.05Z"/><path class="cls-1" d="M236,216.76v-3.1h6.65l0,1.59a9.55,9.55,0,0,1-1.36,4.92,9.43,9.43,0,0,1-3.51,3.42A9.71,9.71,0,0,1,233,224.8a9.63,9.63,0,1,1,.05-19.25,9.14,9.14,0,0,1,6.91,3l-2.38,2.34a6,6,0,0,0-4.56-2,5.91,5.91,0,0,0-4.44,1.81,6.57,6.57,0,0,0,0,8.94,5.65,5.65,0,0,0,4.22,1.82,6.56,6.56,0,0,0,4.12-1.29,5.86,5.86,0,0,0,2.19-3.41Z"/><path class="cls-1" d="M245.18,224.51,252.33,206h3.14l7.13,18.55H259l-1-2.57h-8.3l-1,2.57Zm8.72-13.36-3,7.7h5.91Z"/></svg>