<svg id="Layer_1" data-name="Layer 1" xmlns="http://www.w3.org/2000/svg" viewBox="0 0 320 320"><defs><style>.cls-1{fill:#d4ac76;}</style></defs><title>text</title><path class="cls-1" d="M80.93,252.59v-8.5h1.19v4l3.55-4h1.59l-3,3.37,3.08,5.13H85.86l-2.47-4.15-1.27,1.43v2.72Z"/><path class="cls-1" d="M89.12,252.59l3.41-8.5h1.08l3.35,8.5H95.64l-.51-1.31H91l-.53,1.31ZM93.07,246l-1.65,4.11h3.26Z"/><path class="cls-1" d="M99.32,252.59v-8.5h.82l4.61,5.86v-5.86h1.19v8.5h-.66l-4.78-6.07v6.07Z"/><path class="cls-1" d="M108.5,252.59l3.42-8.5H113l3.35,8.5H115l-.51-1.31h-4.17l-.52,1.31Zm4-6.55-1.65,4.11h3.26Z"/><path class="cls-1" d="M118.7,252.59v-8.5h1.19v7.37h3.49v1.13Z"/><path class="cls-1" d="M127.19,252.59l-3.32-8.5h1.33l2.55,6.53,2.55-6.53h1.31l-3.32,8.5Z"/><path class="cls-1" d="M132.34,252.59l3.41-8.5h1.08l3.34,8.5h-1.31l-.51-1.31h-4.17l-.53,1.31Zm3.07-9.4a.58.58,0,0,1-.43.18.58.58,0,0,1-.42-.18.7.7,0,0,1-.17-.47.69.69,0,0,1,.17-.46.58.58,0,0,1,.42-.18.58.58,0,0,1,.43.18.69.69,0,0,1,.17.46A.7.7,0,0,1,135.41,243.19Zm.88,2.85-1.66,4.11h3.27Zm1.48-2.85a.58.58,0,0,1-.43.18.54.54,0,0,1-.42-.18.7.7,0,0,1-.17-.47.69.69,0,0,1,.17-.46.54.54,0,0,1,.42-.18.58.58,0,0,1,.43.18.69.69,0,0,1,.17.46A.7.7,0,0,1,137.77,243.19Z"/><path class="cls-1" d="M147.68,248.89v-1.13h2.83v.6a4.37,4.37,0,0,1-4.4,4.37,4.15,4.15,0,0,1-3.1-1.27,4.6,4.6,0,0,1,0-6.28,4.18,4.18,0,0,1,3.1-1.27,4.51,4.51,0,0,1,1.79.36,4.42,4.42,0,0,1,1.46,1l-.88.9a3,3,0,0,0-2.37-1.11,3,3,0,0,0-2.25,1,3.4,3.4,0,0,0,0,4.63,3,3,0,0,0,2.25,1,3,3,0,0,0,2-.74,3.21,3.21,0,0,0,1.07-2Z"/><path class="cls-1" d="M158.12,248.86h-3.5v2.6h3.74v1.13h-4.92v-8.5h4.86v1.13h-3.68v2.51h3.5Z"/><path class="cls-1" d="M161.31,252.59v-8.5h.83l4.61,5.86v-5.86h1.18v8.5h-.66l-4.77-6.07v6.07Z"/><path class="cls-1" d="M178.21,252.72a2.59,2.59,0,0,1-1.88-.76,2.54,2.54,0,0,1-.77-1.86,2.35,2.35,0,0,1,.33-1.22,2.59,2.59,0,0,1,.9-.9,2,2,0,0,1-1-1.78,2.1,2.1,0,0,1,.71-1.6,2.59,2.59,0,0,1,3.43,0,2.09,2.09,0,0,1-.28,3.38,2.7,2.7,0,0,1,.91.9,2.33,2.33,0,0,1,.33,1.22,2.51,2.51,0,0,1-.78,1.86A2.56,2.56,0,0,1,178.21,252.72Zm0-1.13a1.4,1.4,0,0,0,1-.44,1.45,1.45,0,0,0,.43-1.06,1.39,1.39,0,0,0-.43-1,1.48,1.48,0,0,0-2.52,1,1.49,1.49,0,0,0,.43,1.06A1.41,1.41,0,0,0,178.21,251.59Zm0-6.59a1.23,1.23,0,0,0-1.24,1.24,1.21,1.21,0,0,0,.35.89,1.19,1.19,0,0,0,.89.37,1.16,1.16,0,0,0,.88-.37,1.19,1.19,0,0,0,.37-.89,1.26,1.26,0,0,0-1.25-1.24Z"/><path class="cls-1" d="M182.34,254.15l1-2.72,1.09.38-1.34,2.62Z"/><path class="cls-1" d="M191.88,252.59v-8.5h2.28a4.28,4.28,0,0,1,3,7.29,4.13,4.13,0,0,1-3,1.21Zm2.32-7.37h-1.13v6.24h1.17a2.76,2.76,0,0,0,2.09-.91,3.14,3.14,0,0,0,.85-2.23,3,3,0,0,0-.87-2.2A2.85,2.85,0,0,0,194.2,245.22Z"/><path class="cls-1" d="M200.05,252.59l3.42-8.5h1.07l3.35,8.5h-1.31l-.52-1.31h-4.17l-.52,1.31ZM204,246l-1.65,4.11h3.27Z"/><path class="cls-1" d="M210.25,252.59v-8.5h1.19v7.37h3.5v1.13Z"/><path class="cls-1" d="M216.66,252.59l3.42-8.5h1.07l3.35,8.5h-1.31l-.52-1.31H218.5l-.52,1.31Zm4-6.55L219,250.15h3.27Z"/><path class="cls-1" d="M226.86,252.59v-8.5H230a2.66,2.66,0,0,1,1.91.74,2.79,2.79,0,0,1,.14,3.69,2.52,2.52,0,0,1-1.63.84l2.46,3.23h-1.46L229,249.35h-.94v3.24Zm3-7.37h-1.81v3.07h1.8a1.72,1.72,0,0,0,1.2-.42,1.55,1.55,0,0,0,0-2.21A1.66,1.66,0,0,0,229.86,245.22Z"/><path class="cls-1" d="M239.52,252.75a4.17,4.17,0,0,1-3.07-1.26,4.58,4.58,0,0,1,0-6.31,4.33,4.33,0,0,1,6.12,0,4.53,4.53,0,0,1,0,6.29A4.17,4.17,0,0,1,239.52,252.75Zm-2.23-2.09a3.08,3.08,0,0,0,4.45,0,3.39,3.39,0,0,0,0-4.64,3.06,3.06,0,0,0-4.45,0,3.41,3.41,0,0,0,0,4.64Zm1.43-7.47a.58.58,0,0,1-.42.18.54.54,0,0,1-.42-.18.65.65,0,0,1-.17-.47.64.64,0,0,1,.17-.46.54.54,0,0,1,.42-.18.58.58,0,0,1,.42.18.65.65,0,0,1,.18.46A.66.66,0,0,1,238.72,243.19Zm2.36,0a.58.58,0,0,1-.43.18.58.58,0,0,1-.42-.18.7.7,0,0,1-.17-.47.69.69,0,0,1,.17-.46.58.58,0,0,1,.42-.18.58.58,0,0,1,.43.18.69.69,0,0,1,.17.46A.7.7,0,0,1,241.08,243.19Z"/><path class="cls-1" d="M59.38,265.7a3.89,3.89,0,0,1-1.59-.34,4.4,4.4,0,0,1-1.35-.91l.84-1a3.31,3.31,0,0,0,1,.78,2.57,2.57,0,0,0,1.18.31,1.63,1.63,0,0,0,1.09-.36,1.14,1.14,0,0,0,.43-.91,1.49,1.49,0,0,0-1.08-1.39l-1-.4a3.46,3.46,0,0,1-1.39-.91,2,2,0,0,1-.46-1.35,2.19,2.19,0,0,1,.7-1.61,2.45,2.45,0,0,1,1.74-.66,3.46,3.46,0,0,1,2.47.94l-.72,1a2.34,2.34,0,0,0-1.75-.77,1.32,1.32,0,0,0-.9.3,1,1,0,0,0-.35.79.91.91,0,0,0,.25.65,2.41,2.41,0,0,0,.87.53l1,.41a2.42,2.42,0,0,1,1.79,2.43A2.34,2.34,0,0,1,61.4,265,2.88,2.88,0,0,1,59.38,265.7Z"/><path class="cls-1" d="M69,265.75a4.17,4.17,0,0,1-3.06-1.26,4.55,4.55,0,0,1,0-6.31,4.33,4.33,0,0,1,6.12,0A4.42,4.42,0,0,1,69,265.75Zm-2.22-2.09a3.08,3.08,0,0,0,4.45,0,3.24,3.24,0,0,0,.91-2.33,3.18,3.18,0,0,0-.92-2.31,3,3,0,0,0-4.44,0,3.39,3.39,0,0,0,0,4.64Zm1.43-7.47a.58.58,0,0,1-.43.18.54.54,0,0,1-.42-.18.7.7,0,0,1-.17-.47.69.69,0,0,1,.17-.46.54.54,0,0,1,.42-.18.58.58,0,0,1,.43.18.69.69,0,0,1,.17.46A.7.7,0,0,1,68.16,256.19Zm2.35,0a.58.58,0,0,1-.84,0,.65.65,0,0,1-.17-.47.64.64,0,0,1,.17-.46.58.58,0,0,1,.84,0,.64.64,0,0,1,.17.46A.65.65,0,0,1,70.51,256.19Z"/><path class="cls-1" d="M76.26,265.59v-8.5h.83l4.6,5.86v-5.86h1.19v8.5h-.66l-4.77-6.07v6.07Z"/><path class="cls-1" d="M86.43,265.59v-8.5h2.28a4.22,4.22,0,0,1,4.21,4.23,4.17,4.17,0,0,1-4.25,4.27Zm2.33-7.37H87.62v6.24h1.17a2.79,2.79,0,0,0,2.1-.91,3.18,3.18,0,0,0,.85-2.23,3,3,0,0,0-.88-2.2A2.81,2.81,0,0,0,88.76,258.22Z"/><path class="cls-1" d="M94.61,265.59l3.41-8.5H99.1l3.35,8.5h-1.32l-.51-1.31H96.45l-.53,1.31Zm4-6.55-1.65,4.11h3.26Z"/><path class="cls-1" d="M110,261.89v-1.13h2.83v.6a4.37,4.37,0,0,1-4.4,4.37,4.15,4.15,0,0,1-3.1-1.27,4.6,4.6,0,0,1,0-6.28,4.18,4.18,0,0,1,3.1-1.27,4.51,4.51,0,0,1,1.79.36,4.32,4.32,0,0,1,1.46,1l-.88.9a3,3,0,0,0-2.37-1.11,3,3,0,0,0-2.25,1,3.4,3.4,0,0,0,0,4.63,3,3,0,0,0,2.25,1,3,3,0,0,0,2-.74,3.21,3.21,0,0,0,1.07-2Z"/><path class="cls-1" d="M119.71,265.59v-.75l3.4-4.48a1.76,1.76,0,0,0,.47-1.08,1.23,1.23,0,0,0-.37-.91,1.33,1.33,0,0,0-.95-.37,1.21,1.21,0,0,0-.94.41,1.73,1.73,0,0,0-.39,1.08h-1.19a2.53,2.53,0,0,1,.71-1.81,2.39,2.39,0,0,1,1.81-.73,2.53,2.53,0,0,1,1.8.66,2.2,2.2,0,0,1,.71,1.67,3.06,3.06,0,0,1-.89,1.88l-2.65,3.38h3.65v1Z"/><path class="cls-1" d="M126.7,263.64v-.74l3-5.81h1.25l-2.8,5.5h1.84v-1.43h1.19v1.43h1v1.05h-1v1.95h-1.19v-1.95Z"/><path class="cls-1" d="M139.44,265.59v-8.5h.83l4.61,5.86v-5.86h1.19v8.5h-.66l-4.78-6.07v6.07Z"/><path class="cls-1" d="M153.34,265.75a4.17,4.17,0,0,1-3.06-1.26,4.55,4.55,0,0,1,0-6.31,4.33,4.33,0,0,1,6.12,0,4.42,4.42,0,0,1-3.06,7.56Zm-2.22-2.09a3.08,3.08,0,0,0,4.45,0,3.24,3.24,0,0,0,.91-2.33,3.18,3.18,0,0,0-.92-2.31,3,3,0,0,0-4.44,0,3.39,3.39,0,0,0,0,4.64Z"/><path class="cls-1" d="M162.67,265.59l-3.32-8.5h1.34l2.55,6.53,2.55-6.53h1.31l-3.32,8.5Z"/><path class="cls-1" d="M174.13,261.86h-3.5v2.6h3.74v1.13h-4.93v-8.5h4.86v1.13h-3.67v2.51h3.5Z"/><path class="cls-1" d="M177.32,265.59v-8.5h1.22l2.74,4.53,2.78-4.53h1.17v8.5H184v-6.28l0,0-2.74,4.39-2.68-4.33h-.07v6.24Z"/><path class="cls-1" d="M188.72,265.59v-8.5h2.61a2.72,2.72,0,0,1,1.87.66,2.18,2.18,0,0,1,.74,1.71,2,2,0,0,1-1,1.83,2.18,2.18,0,0,1,.91.76,2,2,0,0,1,.34,1.15,2.23,2.23,0,0,1-.74,1.74,2.81,2.81,0,0,1-1.9.65Zm2.48-7.37h-1.29v2.59h1.51a1.3,1.3,0,0,0,1-.38,1.33,1.33,0,0,0,.38-1,1.09,1.09,0,0,0-.42-.89A1.75,1.75,0,0,0,191.2,258.22Zm.27,3.64h-1.56v2.6h1.48a1.78,1.78,0,0,0,1.17-.36,1.22,1.22,0,0,0,.43-1,1.18,1.18,0,0,0-.39-.91A1.66,1.66,0,0,0,191.47,261.86Z"/><path class="cls-1" d="M201.85,261.86h-3.5v2.6h3.74v1.13h-4.93v-8.5H202v1.13h-3.67v2.51h3.5Z"/><path class="cls-1" d="M205,265.59v-8.5h3.15a2.7,2.7,0,0,1,1.92.74,2.77,2.77,0,0,1,.13,3.69,2.49,2.49,0,0,1-1.63.84l2.46,3.23h-1.46l-2.44-3.24h-.95v3.24Zm3-7.37h-1.81v3.07H208a1.73,1.73,0,0,0,1.21-.42,1.55,1.55,0,0,0,0-2.21A1.68,1.68,0,0,0,208,258.22Z"/><path class="cls-1" d="M218.46,265.59v-8.5h1.18v4l3.55-4h1.59l-3,3.37,3.08,5.13h-1.48l-2.47-4.15-1.27,1.43v2.72Z"/><path class="cls-1" d="M227.44,265.59v-8.5h1.19v7.37h3.5v1.13Z"/><path class="cls-1" d="M240.3,265.59v-7l-1.59.81v-1.13L241,257h.53v8.55Z"/><path class="cls-1" d="M246.75,265.72a2.61,2.61,0,0,1-1.85-.72,2.34,2.34,0,0,1-.79-1.73h1.19a1.2,1.2,0,0,0,.44.93,1.44,1.44,0,0,0,1,.39,1.42,1.42,0,0,0,1.06-.41,1.35,1.35,0,0,0,.42-1,1.42,1.42,0,0,0-.42-1.05,1.41,1.41,0,0,0-1-.41h-.48v-1.06h.47a1.34,1.34,0,0,0,1-.39,1.3,1.3,0,0,0,.4-.93,1.28,1.28,0,0,0-.4-1,1.38,1.38,0,0,0-1-.38,1.33,1.33,0,0,0-1,.39,1.31,1.31,0,0,0-.4.95H244.2a2.2,2.2,0,0,1,.73-1.7,2.62,2.62,0,0,1,1.84-.7,2.54,2.54,0,0,1,1.83.7,2.21,2.21,0,0,1,.73,1.7,1.93,1.93,0,0,1-.36,1.14,2.06,2.06,0,0,1-.93.72,2,2,0,0,1,1,.76,2.06,2.06,0,0,1,.37,1.23,2.41,2.41,0,0,1-.78,1.8A2.63,2.63,0,0,1,246.75,265.72Z"/><path class="cls-1" d="M251.79,261.88v-1.05h3.32v1.05Z"/><path class="cls-1" d="M258.33,265.59v-7l-1.59.81v-1.13L259,257h.53v8.55Z"/><path class="cls-1" d="M265.06,265.72a2.91,2.91,0,0,1-1.72-.52,2.64,2.64,0,0,1-1-1.38l1.08-.42a1.63,1.63,0,0,0,.61.85,1.78,1.78,0,0,0,2.27-.15,1.64,1.64,0,0,0,.48-1.2,1.61,1.61,0,0,0-.5-1.2,1.66,1.66,0,0,0-1.2-.48,1.63,1.63,0,0,0-1.21.52h-1.18v-4.65h4.76v1.13h-3.58v2.29a2.24,2.24,0,0,1,1.21-.34,2.86,2.86,0,0,1,2.09.78,2.61,2.61,0,0,1,.8,1.95,2.67,2.67,0,0,1-.85,2A2.76,2.76,0,0,1,265.06,265.72Z"/></svg>