<svg id="Layer_1" data-name="Layer 1" xmlns="http://www.w3.org/2000/svg" viewBox="0 0 320 320"><defs><style>.cls-1{fill:#d4ac76;}</style></defs><title>text</title><path class="cls-1" d="M59.43,252.59l-3.32-8.5h1.34L60,250.62l2.55-6.53h1.31l-3.32,8.5Z"/><path class="cls-1" d="M70.94,252.59v-8.5h1.22l2.74,4.53,2.78-4.53h1.17v8.5H77.66v-6.28l0,0-2.73,4.39-2.69-4.33h-.07v6.24Z"/><path class="cls-1" d="M86.07,252.75A4.17,4.17,0,0,1,83,251.49a4.55,4.55,0,0,1,0-6.31,4.33,4.33,0,0,1,6.12,0,4.42,4.42,0,0,1-3.06,7.56Zm-2.22-2.09a3.08,3.08,0,0,0,4.45,0,3.24,3.24,0,0,0,.91-2.33,3.18,3.18,0,0,0-.92-2.31,3,3,0,0,0-4.44,0,3.39,3.39,0,0,0,0,4.64Zm1.43-7.47a.58.58,0,0,1-.43.18.56.56,0,0,1-.42-.18.7.7,0,0,1-.17-.47.69.69,0,0,1,.17-.46.56.56,0,0,1,.42-.18.58.58,0,0,1,.43.18.69.69,0,0,1,.17.46A.7.7,0,0,1,85.28,243.19Zm2.35,0a.58.58,0,0,1-.84,0,.65.65,0,0,1-.17-.47.64.64,0,0,1,.17-.46.58.58,0,0,1,.84,0,.64.64,0,0,1,.17.46A.65.65,0,0,1,87.63,243.19Z"/><path class="cls-1" d="M93.38,252.59v-8.5h1.19v7.37h3.5v1.13Z"/><path class="cls-1" d="M100.67,252.59v-8.5h1.19v7.37h3.5v1.13Z"/><path class="cls-1" d="M112.65,248.86h-3.49v2.6h3.74v1.13H108v-8.5h4.86v1.13h-3.67v2.51h3.49Z"/><path class="cls-1" d="M115.84,252.59v-8.5h2.28a4.22,4.22,0,0,1,4.21,4.23,4.17,4.17,0,0,1-4.25,4.27Zm2.33-7.37H117v6.24h1.17a2.79,2.79,0,0,0,2.1-.91,3.18,3.18,0,0,0,.85-2.23,3,3,0,0,0-.88-2.2A2.85,2.85,0,0,0,118.17,245.22Z"/><path class="cls-1" d="M124,252.59l3.41-8.5h1.07l3.35,8.5h-1.31l-.52-1.31h-4.16l-.53,1.31Zm4-6.55-1.66,4.11h3.27Z"/><path class="cls-1" d="M134.21,252.59v-8.5h1.19v7.37h3.5v1.13Z"/><path class="cls-1" d="M143.72,252.7a3.89,3.89,0,0,1-1.59-.34,4.4,4.4,0,0,1-1.35-.91l.84-1a3.31,3.31,0,0,0,1,.78,2.57,2.57,0,0,0,1.18.31,1.66,1.66,0,0,0,1.1-.36,1.16,1.16,0,0,0,.42-.91,1.49,1.49,0,0,0-1.07-1.39l-1-.4a3.46,3.46,0,0,1-1.39-.91,2,2,0,0,1-.46-1.35,2.16,2.16,0,0,1,.71-1.61,2.41,2.41,0,0,1,1.73-.66,3.44,3.44,0,0,1,2.47.94l-.72,1a2.34,2.34,0,0,0-1.75-.77,1.32,1.32,0,0,0-.9.3,1,1,0,0,0-.35.79.92.92,0,0,0,.26.65,2.36,2.36,0,0,0,.86.53l1,.41a2.42,2.42,0,0,1,1.79,2.43,2.34,2.34,0,0,1-.75,1.79A2.86,2.86,0,0,1,143.72,252.7Z"/><path class="cls-1" d="M151.6,252.59l-3.32-8.5h1.34l2.55,6.53,2.55-6.53H156l-3.33,8.5Z"/><path class="cls-1" d="M158,252.51a.69.69,0,0,1-.51.21.67.67,0,0,1-.5-.21.65.65,0,0,1-.2-.5.66.66,0,0,1,.2-.51.64.64,0,0,1,.5-.21.69.69,0,0,1,.51.21.66.66,0,0,1,.21.51A.66.66,0,0,1,158,252.51Z"/><path class="cls-1" d="M166.76,252.59v-7l-1.59.81v-1.13l2.25-1.25H168v8.55Z"/><path class="cls-1" d="M170.62,250.64v-.74l3-5.81h1.25l-2.8,5.5h1.84v-1.43h1.19v1.43h1v1h-1v2h-1.19v-2Z"/><path class="cls-1" d="M177.84,252.59l3.41-8.5h1.08l3.35,8.5h-1.32l-.51-1.31h-4.17l-.53,1.31Zm3.95-6.55-1.65,4.11h3.26Z"/><path class="cls-1" d="M187.46,254.15l1-2.72,1.09.38-1.34,2.62Z"/><path class="cls-1" d="M202.32,252.59v-3.68h-4.13v3.68H197v-8.5h1.19v3.68h4.13v-3.68h1.19v8.5Z"/><path class="cls-1" d="M210.79,252.75a4.2,4.2,0,0,1-3.07-1.26,4.58,4.58,0,0,1,0-6.31,4.35,4.35,0,0,1,6.13,0,4.53,4.53,0,0,1,0,6.29A4.21,4.21,0,0,1,210.79,252.75Zm-2.23-2.09a3.08,3.08,0,0,0,4.45,0,3.39,3.39,0,0,0,0-4.64,3.06,3.06,0,0,0-4.45,0,3.41,3.41,0,0,0,0,4.64Zm1.43-7.47a.58.58,0,0,1-.84,0,.7.7,0,0,1-.17-.47.69.69,0,0,1,.17-.46.58.58,0,0,1,.84,0,.65.65,0,0,1,.18.46A.66.66,0,0,1,210,243.19Zm2.36,0a.54.54,0,0,1-.42.18.58.58,0,0,1-.43-.18.7.7,0,0,1-.17-.47.69.69,0,0,1,.17-.46.58.58,0,0,1,.43-.18.54.54,0,0,1,.42.18.69.69,0,0,1,.17.46A.7.7,0,0,1,212.35,243.19Z"/><path class="cls-1" d="M218.1,252.59v-8.5h1.19v7.37h3.49v1.13Z"/><path class="cls-1" d="M225.39,252.59v-8.5h1.19v7.37h3.5v1.13Z"/><path class="cls-1" d="M233.88,252.59l-3.32-8.5h1.34l2.54,6.53,2.56-6.53h1.31l-3.33,8.5Z"/><path class="cls-1" d="M240.65,252.59v-8.5h1.19v8.5Z"/><path class="cls-1" d="M245.32,252.59v-8.5h1.19v4l3.54-4h1.6l-3,3.37,3.08,5.13h-1.48l-2.47-4.15-1.27,1.43v2.72Z"/><path class="cls-1" d="M259,248.86h-3.5v2.6h3.74v1.13h-4.93v-8.5h4.86v1.13H255.5v2.51H259Z"/><path class="cls-1" d="M262.19,252.59v-8.5H263l4.6,5.86v-5.86h1.19v8.5h-.66l-4.78-6.07v6.07Z"/><path class="cls-1" d="M64.83,265.7a3.89,3.89,0,0,1-1.59-.34,4.4,4.4,0,0,1-1.35-.91l.84-1a3.31,3.31,0,0,0,1,.78,2.57,2.57,0,0,0,1.18.31,1.61,1.61,0,0,0,1.09-.36,1.14,1.14,0,0,0,.43-.91,1.49,1.49,0,0,0-1.07-1.39l-1-.4a3.46,3.46,0,0,1-1.39-.91,2,2,0,0,1-.46-1.35,2.19,2.19,0,0,1,.7-1.61,2.45,2.45,0,0,1,1.74-.66,3.46,3.46,0,0,1,2.47.94l-.72,1a2.34,2.34,0,0,0-1.75-.77,1.32,1.32,0,0,0-.9.3,1,1,0,0,0-.35.79,1,1,0,0,0,.25.65,2.41,2.41,0,0,0,.87.53l1,.41a2.42,2.42,0,0,1,1.79,2.43,2.34,2.34,0,0,1-.75,1.79A2.88,2.88,0,0,1,64.83,265.7Z"/><path class="cls-1" d="M74.4,265.75a4.17,4.17,0,0,1-3.06-1.26,4.55,4.55,0,0,1,0-6.31,4.33,4.33,0,0,1,6.12,0,4.42,4.42,0,0,1-3.06,7.56Zm-2.22-2.09a3.08,3.08,0,0,0,4.45,0,3.24,3.24,0,0,0,.91-2.33,3.18,3.18,0,0,0-.92-2.31,3,3,0,0,0-4.44,0,3.39,3.39,0,0,0,0,4.64Zm1.43-7.47a.58.58,0,0,1-.43.18.56.56,0,0,1-.42-.18.7.7,0,0,1-.17-.47.69.69,0,0,1,.17-.46.56.56,0,0,1,.42-.18.58.58,0,0,1,.43.18.69.69,0,0,1,.17.46A.7.7,0,0,1,73.61,256.19Zm2.35,0a.58.58,0,0,1-.84,0,.65.65,0,0,1-.17-.47.64.64,0,0,1,.17-.46.58.58,0,0,1,.84,0,.64.64,0,0,1,.17.46A.65.65,0,0,1,76,256.19Z"/><path class="cls-1" d="M81.71,265.59v-8.5h.83l4.6,5.86v-5.86h1.19v8.5h-.66l-4.77-6.07v6.07Z"/><path class="cls-1" d="M91.88,265.59v-8.5h2.28a4.23,4.23,0,0,1,4.22,4.23,4.18,4.18,0,0,1-4.26,4.27Zm2.33-7.37H93.07v6.24h1.17a2.79,2.79,0,0,0,2.1-.91,3.18,3.18,0,0,0,.85-2.23,3,3,0,0,0-.88-2.2A2.81,2.81,0,0,0,94.21,258.22Z"/><path class="cls-1" d="M100.06,265.59l3.41-8.5h1.08l3.35,8.5h-1.32l-.51-1.31H101.9l-.53,1.31Zm4-6.55-1.65,4.11h3.26Z"/><path class="cls-1" d="M115.4,261.89v-1.13h2.83v.6a4.37,4.37,0,0,1-4.4,4.37,4.15,4.15,0,0,1-3.1-1.27,4.6,4.6,0,0,1,0-6.28,4.18,4.18,0,0,1,3.1-1.27,4.51,4.51,0,0,1,1.79.36,4.32,4.32,0,0,1,1.46,1l-.88.9a3,3,0,0,0-2.37-1.11,3,3,0,0,0-2.25,1,3.4,3.4,0,0,0,0,4.63,3,3,0,0,0,2.25,1,3,3,0,0,0,2-.74,3.21,3.21,0,0,0,1.07-2Z"/><path class="cls-1" d="M125.15,263.64v-.74l3-5.81h1.24l-2.8,5.5h1.84v-1.43h1.19v1.43h1v1.05h-1v1.95h-1.19v-1.95Z"/><path class="cls-1" d="M137.9,265.59v-8.5h.83l4.6,5.86v-5.86h1.19v8.5h-.66l-4.77-6.07v6.07Z"/><path class="cls-1" d="M151.8,265.75a4.17,4.17,0,0,1-3.07-1.26,4.58,4.58,0,0,1,0-6.31,4.33,4.33,0,0,1,6.12,0,4.5,4.5,0,0,1,0,6.29A4.17,4.17,0,0,1,151.8,265.75Zm-2.23-2.09a3.08,3.08,0,0,0,4.45,0,3.39,3.39,0,0,0,0-4.64,3.06,3.06,0,0,0-4.45,0,3.41,3.41,0,0,0,0,4.64Z"/><path class="cls-1" d="M161.13,265.59l-3.32-8.5h1.33l2.55,6.53,2.55-6.53h1.31l-3.32,8.5Z"/><path class="cls-1" d="M172.58,261.86h-3.5v2.6h3.74v1.13h-4.93v-8.5h4.87v1.13h-3.68v2.51h3.5Z"/><path class="cls-1" d="M175.77,265.59v-8.5H177l2.74,4.53,2.78-4.53h1.17v8.5h-1.19v-6.28l0,0-2.73,4.39L177,259.35H177v6.24Z"/><path class="cls-1" d="M187.18,265.59v-8.5h2.6a2.7,2.7,0,0,1,1.87.66,2.15,2.15,0,0,1,.74,1.71,2,2,0,0,1-1,1.83,2.12,2.12,0,0,1,.91.76,2,2,0,0,1,.34,1.15,2.2,2.2,0,0,1-.74,1.74,2.81,2.81,0,0,1-1.9.65Zm2.48-7.37h-1.29v2.59h1.51a1.3,1.3,0,0,0,1.32-1.36,1.09,1.09,0,0,0-.42-.89A1.72,1.72,0,0,0,189.66,258.22Zm.26,3.64h-1.55v2.6h1.48a1.78,1.78,0,0,0,1.17-.36,1.25,1.25,0,0,0,.43-1,1.16,1.16,0,0,0-.4-.91A1.64,1.64,0,0,0,189.92,261.86Z"/><path class="cls-1" d="M200.3,261.86h-3.5v2.6h3.74v1.13h-4.93v-8.5h4.87v1.13H196.8v2.51h3.5Z"/><path class="cls-1" d="M203.49,265.59v-8.5h3.16a2.66,2.66,0,0,1,1.91.74,2.55,2.55,0,0,1,.77,1.92,2.52,2.52,0,0,1-.64,1.77,2.47,2.47,0,0,1-1.62.84l2.46,3.23h-1.46l-2.45-3.24h-.94v3.24Zm3-7.37h-1.81v3.07h1.8a1.72,1.72,0,0,0,1.2-.42,1.55,1.55,0,0,0,0-2.21A1.66,1.66,0,0,0,206.49,258.22Z"/><path class="cls-1" d="M216.91,265.59v-8.5h1.19v4l3.54-4h1.6l-3,3.37,3.07,5.13h-1.47l-2.48-4.15-1.26,1.43v2.72Z"/><path class="cls-1" d="M225.9,265.59v-8.5h1.19v7.37h3.49v1.13Z"/><path class="cls-1" d="M238.76,265.59v-7l-1.6.81v-1.13l2.26-1.25h.52v8.55Z"/><path class="cls-1" d="M244.25,265.59v-7l-1.6.81v-1.13l2.26-1.25h.52v8.55Z"/><path class="cls-1" d="M248.33,261.88v-1.05h3.32v1.05Z"/><path class="cls-1" d="M254.87,265.59v-7l-1.59.81v-1.13l2.25-1.25h.53v8.55Z"/><path class="cls-1" d="M261.32,265.72a2.61,2.61,0,0,1-1.85-.72,2.34,2.34,0,0,1-.79-1.73h1.19a1.2,1.2,0,0,0,.44.93,1.44,1.44,0,0,0,1,.39,1.42,1.42,0,0,0,1.06-.41,1.35,1.35,0,0,0,.42-1,1.42,1.42,0,0,0-.42-1.05,1.41,1.41,0,0,0-1-.41h-.49l0-1.06h.47a1.34,1.34,0,0,0,1-.39,1.34,1.34,0,0,0,0-1.89,1.38,1.38,0,0,0-1-.38,1.33,1.33,0,0,0-1,.39,1.31,1.31,0,0,0-.4.95h-1.18a2.2,2.2,0,0,1,.73-1.7,2.61,2.61,0,0,1,1.83-.7,2.54,2.54,0,0,1,1.84.7,2.21,2.21,0,0,1,.73,1.7,1.93,1.93,0,0,1-.36,1.14,2.06,2.06,0,0,1-.93.72,2,2,0,0,1,1,.76,2.13,2.13,0,0,1,.37,1.23,2.41,2.41,0,0,1-.78,1.8A2.63,2.63,0,0,1,261.32,265.72Z"/></svg>