<svg id="Layer_1" data-name="Layer 1" xmlns="http://www.w3.org/2000/svg" viewBox="0 0 320 320"><defs><style>.cls-1{fill:#d4ac76;}</style></defs><title>text</title><path class="cls-1" d="M57.9,246.89v-1h6.26v1H61.57v6.7H60.49v-6.7Z"/><path class="cls-1" d="M66.3,253.59v-7.73h2.87a2.46,2.46,0,0,1,1.75.67,2.53,2.53,0,0,1,.12,3.36,2.29,2.29,0,0,1-1.48.76l2.24,2.94H70.47l-2.22-3h-.87v3Zm2.73-6.7H67.38v2.79H69a1.57,1.57,0,0,0,1.09-.38,1.39,1.39,0,0,0,0-2A1.55,1.55,0,0,0,69,246.89Z"/><path class="cls-1" d="M78.17,245.86h1.25l-2.58,4.62v3.11H75.76v-3.07l-2.59-4.66h1.29l1.87,3.43Z"/><path class="cls-1" d="M86.07,250.23v-1h2.56v.54a3.84,3.84,0,0,1-1.19,2.85,3.88,3.88,0,0,1-2.81,1.13,3.76,3.76,0,0,1-2.81-1.15,4.17,4.17,0,0,1,0-5.71,3.77,3.77,0,0,1,2.81-1.16,4.23,4.23,0,0,1,1.63.32,4.06,4.06,0,0,1,1.33.9l-.8.81a2.77,2.77,0,0,0-2.16-1,2.66,2.66,0,0,0-2,.88,3.11,3.11,0,0,0,0,4.21,2.68,2.68,0,0,0,2,.87,2.75,2.75,0,0,0,1.86-.68,3,3,0,0,0,1-1.78Z"/><path class="cls-1" d="M90.07,253.59l3.1-7.73h1l3,7.73H96l-.47-1.19H91.74l-.48,1.19Zm3.59-6-1.51,3.74h3Z"/><path class="cls-1" d="M99.34,253.59v-7.73h2.86a2.46,2.46,0,0,1,1.75.67,2.53,2.53,0,0,1,.12,3.36,2.29,2.29,0,0,1-1.48.76l2.24,2.94H103.5l-2.22-3h-.86v3Zm2.72-6.7h-1.64v2.79h1.63a1.57,1.57,0,0,0,1.09-.38,1.39,1.39,0,0,0,0-2A1.55,1.55,0,0,0,102.06,246.89Z"/><path class="cls-1" d="M107.35,253.59v-7.73h.76l4.19,5.33v-5.33h1.08v7.73h-.61l-4.34-5.52v5.52Z"/><path class="cls-1" d="M118.49,253.69a3.57,3.57,0,0,1-1.45-.31,3.72,3.72,0,0,1-1.22-.83l.76-.88a2.85,2.85,0,0,0,.89.71,2.25,2.25,0,0,0,1.07.28,1.49,1.49,0,0,0,1-.33,1,1,0,0,0,.38-.82,1.35,1.35,0,0,0-1-1.27l-.91-.36a3.18,3.18,0,0,1-1.27-.83,1.78,1.78,0,0,1-.41-1.22,2,2,0,0,1,.63-1.46,2.19,2.19,0,0,1,1.58-.61,3.09,3.09,0,0,1,2.24.86l-.65.87a2.1,2.1,0,0,0-1.59-.7,1.21,1.21,0,0,0-.82.27.9.9,0,0,0-.32.72.85.85,0,0,0,.24.6,2.24,2.24,0,0,0,.78.47l.93.37a2.21,2.21,0,0,1,1.63,2.21,2.1,2.1,0,0,1-.69,1.63A2.58,2.58,0,0,1,118.49,253.69Z"/><path class="cls-1" d="M125.65,253.59l-3-7.73h1.22l2.31,5.94,2.32-5.94h1.2l-3,7.73Z"/><path class="cls-1" d="M130.34,253.59l3.1-7.73h1l3,7.73h-1.2l-.46-1.19H132l-.48,1.19Zm2.79-8.55a.54.54,0,0,1-.39.17.5.5,0,0,1-.38-.17.6.6,0,0,1-.15-.42.62.62,0,0,1,.15-.42.5.5,0,0,1,.38-.17.54.54,0,0,1,.39.17.63.63,0,0,1,.16.42A.61.61,0,0,1,133.13,245Zm.79,2.59-1.5,3.74h3Zm1.35-2.59a.51.51,0,0,1-.39.17.5.5,0,0,1-.38-.17.61.61,0,0,1-.16-.42.63.63,0,0,1,.16-.42.5.5,0,0,1,.38-.17.51.51,0,0,1,.39.17.62.62,0,0,1,.15.42A.6.6,0,0,1,135.27,245Z"/><path class="cls-1" d="M144.29,250.23v-1h2.56v.54a4,4,0,0,1-4,4,3.76,3.76,0,0,1-2.81-1.15,4.17,4.17,0,0,1,0-5.71,3.77,3.77,0,0,1,2.81-1.16,4.23,4.23,0,0,1,1.63.32,3.92,3.92,0,0,1,1.32.9l-.79.81a2.78,2.78,0,0,0-2.16-1,2.69,2.69,0,0,0-2,.88,3.14,3.14,0,0,0,0,4.21,2.72,2.72,0,0,0,2,.87,2.75,2.75,0,0,0,1.86-.68,2.89,2.89,0,0,0,1-1.78Z"/><path class="cls-1" d="M153.78,250.2h-3.19v2.36H154v1h-4.49v-7.73h4.42v1h-3.34v2.28h3.19Z"/><path class="cls-1" d="M156.67,253.59v-7.73h.76l4.19,5.33v-5.33h1.08v7.73h-.61l-4.33-5.52v5.52Z"/><path class="cls-1" d="M171,253.59v-6.35l-1.45.74v-1l2.05-1.13h.47v7.77Z"/><path class="cls-1" d="M175.09,253.59v-7.73h2.37a2.45,2.45,0,0,1,1.7.6,2,2,0,0,1,.68,1.56,1.84,1.84,0,0,1-.92,1.66,2.07,2.07,0,0,1,.83.69,1.89,1.89,0,0,1,.3,1,2,2,0,0,1-.67,1.58,2.56,2.56,0,0,1-1.73.59Zm2.26-6.7h-1.18v2.35h1.38a1.17,1.17,0,0,0,.86-.34,1.2,1.2,0,0,0,.35-.89,1,1,0,0,0-.39-.81A1.57,1.57,0,0,0,177.35,246.89Zm.24,3.31h-1.42v2.36h1.35a1.58,1.58,0,0,0,1.06-.33,1.1,1.1,0,0,0,.4-.88,1.07,1.07,0,0,0-.36-.83A1.51,1.51,0,0,0,177.59,250.2Z"/><path class="cls-1" d="M181.68,255l.89-2.48,1,.35-1.22,2.38Z"/><path class="cls-1" d="M189.51,253.59l3.1-7.73h1l3,7.73h-1.2L195,252.4h-3.79l-.48,1.19Zm3.58-6-1.5,3.74h3Zm.75-2.29a1.08,1.08,0,0,1-1.49,0,1.05,1.05,0,0,1-.3-.75,1,1,0,0,1,.3-.74,1.05,1.05,0,0,1,1.49,0,1,1,0,0,1,.3.74A1.05,1.05,0,0,1,193.84,245.34Zm-.75-.32a.38.38,0,0,0,.3-.13.42.42,0,0,0,.12-.3.41.41,0,0,0-.12-.3.41.41,0,0,0-.6,0,.41.41,0,0,0-.12.3.42.42,0,0,0,.12.3A.38.38,0,0,0,193.09,245Z"/><path class="cls-1" d="M198.77,253.59v-7.73h1.08v3.67l3.22-3.67h1.45l-2.72,3.07,2.79,4.66h-1.34L201,249.82l-1.15,1.29v2.48Z"/><path class="cls-1" d="M211.2,250.2H208v2.36h3.4v1h-4.48v-7.73h4.42v1H208v2.28h3.18Z"/><path class="cls-1" d="M214.1,253.59v-7.73H217a2.42,2.42,0,0,1,1.74.67,2.31,2.31,0,0,1,.7,1.75,2.33,2.33,0,0,1-.57,1.61,2.29,2.29,0,0,1-1.48.76l2.23,2.94h-1.33l-2.22-3h-.86v3Zm2.73-6.7h-1.65v2.79h1.64a1.57,1.57,0,0,0,1.09-.38,1.41,1.41,0,0,0,0-2A1.57,1.57,0,0,0,216.83,246.89Z"/><path class="cls-1" d="M224,253.69a3.57,3.57,0,0,1-1.45-.31,3.72,3.72,0,0,1-1.22-.83l.76-.88a2.85,2.85,0,0,0,.89.71,2.25,2.25,0,0,0,1.07.28,1.49,1.49,0,0,0,1-.33,1,1,0,0,0,.38-.82,1.35,1.35,0,0,0-1-1.27l-.92-.36a3.21,3.21,0,0,1-1.26-.83,1.79,1.79,0,0,1-.42-1.22,2,2,0,0,1,.64-1.46,2.19,2.19,0,0,1,1.58-.61,3.09,3.09,0,0,1,2.24.86l-.65.87a2.1,2.1,0,0,0-1.59-.7,1.21,1.21,0,0,0-.82.27.9.9,0,0,0-.32.72.85.85,0,0,0,.24.6,2.24,2.24,0,0,0,.78.47l.93.37a2.18,2.18,0,0,1,1.62,2.21,2.09,2.09,0,0,1-.68,1.63A2.58,2.58,0,0,1,224,253.69Z"/><path class="cls-1" d="M229.2,253.59v-7.73h2.37a2.45,2.45,0,0,1,1.7.6,2,2,0,0,1,.67,1.56,1.82,1.82,0,0,1-.92,1.66,2,2,0,0,1,.84.69,1.89,1.89,0,0,1,.3,1,2,2,0,0,1-.67,1.58,2.56,2.56,0,0,1-1.73.59Zm2.26-6.7h-1.18v2.35h1.38a1.17,1.17,0,0,0,.86-.34,1.19,1.19,0,0,0,.34-.89,1,1,0,0,0-.38-.81A1.57,1.57,0,0,0,231.46,246.89Zm.24,3.31h-1.42v2.36h1.35a1.58,1.58,0,0,0,1.06-.33,1.09,1.09,0,0,0,.39-.88,1.06,1.06,0,0,0-.35-.83A1.51,1.51,0,0,0,231.7,250.2Z"/><path class="cls-1" d="M241.13,250.2H238v2.36h3.4v1h-4.48v-7.73h4.42v1H238v2.28h3.18Z"/><path class="cls-1" d="M244,253.59v-7.73h2.87a2.42,2.42,0,0,1,1.74.67,2.31,2.31,0,0,1,.7,1.75,2.33,2.33,0,0,1-.57,1.61,2.29,2.29,0,0,1-1.48.76l2.23,2.94h-1.33l-2.22-3h-.86v3Zm2.73-6.7h-1.65v2.79h1.64a1.57,1.57,0,0,0,1.09-.38,1.41,1.41,0,0,0,0-2A1.57,1.57,0,0,0,246.76,246.89Z"/><path class="cls-1" d="M257,250.23v-1h2.57v.54a4,4,0,0,1-4,4,3.8,3.8,0,0,1-2.82-1.15,4,4,0,0,1-1.13-2.86,3.93,3.93,0,0,1,1.13-2.85,3.81,3.81,0,0,1,2.82-1.16,4.23,4.23,0,0,1,1.63.32,3.92,3.92,0,0,1,1.32.9l-.8.81a2.75,2.75,0,0,0-2.15-1,2.68,2.68,0,0,0-2.05.88,3.11,3.11,0,0,0,0,4.21,2.71,2.71,0,0,0,2.05.87,2.75,2.75,0,0,0,1.86-.68,2.89,2.89,0,0,0,1-1.78Z"/><path class="cls-1" d="M261,253.59l3.11-7.73h1l3.05,7.73h-1.2l-.46-1.19h-3.79l-.48,1.19Zm3.59-6-1.5,3.74h3Z"/><path class="cls-1" d="M68.4,266.69a3.52,3.52,0,0,1-1.44-.31,3.66,3.66,0,0,1-1.23-.83l.76-.88a3,3,0,0,0,.89.71,2.28,2.28,0,0,0,1.07.28,1.47,1.47,0,0,0,1-.33,1,1,0,0,0,.39-.82,1.36,1.36,0,0,0-1-1.27l-.91-.36a3.18,3.18,0,0,1-1.27-.83,1.84,1.84,0,0,1-.41-1.22,1.92,1.92,0,0,1,.64-1.46,2.16,2.16,0,0,1,1.57-.61,3.1,3.1,0,0,1,2.25.86l-.65.87a2.13,2.13,0,0,0-1.6-.7,1.2,1.2,0,0,0-.81.27.9.9,0,0,0-.32.72.88.88,0,0,0,.23.6,2.3,2.3,0,0,0,.79.47l.93.37a2.21,2.21,0,0,1,1.62,2.21,2.13,2.13,0,0,1-.68,1.63A2.62,2.62,0,0,1,68.4,266.69Z"/><path class="cls-1" d="M77.1,266.73a3.79,3.79,0,0,1-2.78-1.14,4.14,4.14,0,0,1,0-5.73,3.94,3.94,0,0,1,5.56,0,4.11,4.11,0,0,1,0,5.72A3.77,3.77,0,0,1,77.1,266.73Zm-2-1.89a2.81,2.81,0,0,0,4,0,3,3,0,0,0,.83-2.12,2.94,2.94,0,0,0-.84-2.11,2.78,2.78,0,0,0-4,0,3.11,3.11,0,0,0,0,4.23Zm1.3-6.8a.52.52,0,0,1-.38.17.52.52,0,0,1-.39-.17.6.6,0,0,1-.15-.42.62.62,0,0,1,.15-.42A.52.52,0,0,1,76,257a.52.52,0,0,1,.38.17.58.58,0,0,1,.16.42A.57.57,0,0,1,76.38,258Zm2.14,0a.51.51,0,0,1-.76,0,.57.57,0,0,1-.16-.42.58.58,0,0,1,.16-.42.51.51,0,0,1,.76,0,.58.58,0,0,1,.16.42A.57.57,0,0,1,78.52,258Z"/><path class="cls-1" d="M83.75,266.59v-7.73h.75l4.19,5.33v-5.33h1.08v7.73h-.6l-4.34-5.52v5.52Z"/><path class="cls-1" d="M93,266.59v-7.73h2.07a3.68,3.68,0,0,1,2.7,1.12,3.94,3.94,0,0,1,0,5.51,3.8,3.8,0,0,1-2.75,1.1Zm2.11-6.7h-1v5.67h1.06a2.49,2.49,0,0,0,1.91-.83,2.86,2.86,0,0,0,.77-2,2.75,2.75,0,0,0-.8-2A2.56,2.56,0,0,0,95.11,259.89Z"/><path class="cls-1" d="M100.43,266.59l3.1-7.73h1l3,7.73h-1.19l-.47-1.19H102.1l-.47,1.19Zm3.59-6-1.5,3.74h3Z"/><path class="cls-1" d="M114.38,263.23v-1H117v.54a4,4,0,0,1-4,4,3.77,3.77,0,0,1-2.82-1.15,4,4,0,0,1-1.13-2.86,3.93,3.93,0,0,1,1.13-2.85A3.78,3.78,0,0,1,113,258.7a4.22,4.22,0,0,1,1.62.32,3.86,3.86,0,0,1,1.33.9l-.8.81a2.76,2.76,0,0,0-2.15-1,2.68,2.68,0,0,0-2,.88,3.11,3.11,0,0,0,0,4.21,2.71,2.71,0,0,0,2,.87,2.75,2.75,0,0,0,1.85-.68,2.9,2.9,0,0,0,1-1.78Z"/><path class="cls-1" d="M123.25,266.59v-.68l3.09-4.08a1.54,1.54,0,0,0,.43-1,1.09,1.09,0,0,0-.34-.82,1.15,1.15,0,0,0-.87-.34,1.11,1.11,0,0,0-.85.38,1.47,1.47,0,0,0-.35,1h-1.08a2.27,2.27,0,0,1,.64-1.64,2.21,2.21,0,0,1,1.64-.67,2.29,2.29,0,0,1,1.65.61,2,2,0,0,1,.64,1.51,2.77,2.77,0,0,1-.81,1.71l-2.41,3.07H128v1Z"/><path class="cls-1" d="M132.31,266.71a2.42,2.42,0,0,1-1.69-.65,2.13,2.13,0,0,1-.72-1.58H131a1.14,1.14,0,0,0,.4.85,1.37,1.37,0,0,0,.91.35,1.33,1.33,0,0,0,1-.37,1.24,1.24,0,0,0,.38-.92,1.3,1.3,0,0,0-1.32-1.33h-.44v-1h.43a1.22,1.22,0,0,0,.9-.36,1.15,1.15,0,0,0,.36-.84,1.12,1.12,0,0,0-.36-.87,1.21,1.21,0,0,0-.9-.35,1.2,1.2,0,0,0-.89.36,1.16,1.16,0,0,0-.36.86H130a2,2,0,0,1,.67-1.54,2.5,2.5,0,0,1,3.33,0,2,2,0,0,1,.67,1.55,1.71,1.71,0,0,1-.33,1,1.78,1.78,0,0,1-.85.66,1.83,1.83,0,0,1,.9.69,1.86,1.86,0,0,1,.34,1.12A2.19,2.19,0,0,1,134,266,2.36,2.36,0,0,1,132.31,266.71Z"/><path class="cls-1" d="M143.47,266.69a3.52,3.52,0,0,1-1.44-.31,3.66,3.66,0,0,1-1.23-.83l.76-.88a3,3,0,0,0,.89.71,2.28,2.28,0,0,0,1.07.28,1.49,1.49,0,0,0,1-.33,1,1,0,0,0,.39-.82,1.36,1.36,0,0,0-1-1.27l-.91-.36a3.18,3.18,0,0,1-1.27-.83,1.84,1.84,0,0,1-.41-1.22,1.92,1.92,0,0,1,.64-1.46,2.16,2.16,0,0,1,1.57-.61,3.12,3.12,0,0,1,2.25.86l-.65.87a2.13,2.13,0,0,0-1.6-.7,1.2,1.2,0,0,0-.81.27.94.94,0,0,0-.09,1.32,2.3,2.3,0,0,0,.79.47l.92.37a2.21,2.21,0,0,1,1.63,2.21,2.13,2.13,0,0,1-.68,1.63A2.62,2.62,0,0,1,143.47,266.69Z"/><path class="cls-1" d="M152.9,263.2h-3.18v2.36h3.4v1h-4.48v-7.73h4.42v1h-3.34v2.28h3.18Z"/><path class="cls-1" d="M155.8,266.59v-7.73h2.64a2.42,2.42,0,0,1,1.79.72,2.5,2.5,0,0,1,.72,1.84,2.44,2.44,0,0,1-.74,1.81,2.5,2.5,0,0,1-1.81.72h-1.52v2.64Zm2.56-6.7h-1.48v3h1.49a1.52,1.52,0,1,0,0-3Z"/><path class="cls-1" d="M162.54,259.89v-1h6.26v1h-2.59v6.7h-1.08v-6.7Z"/><path class="cls-1" d="M175.21,263.2H172v2.36h3.4v1H171v-7.73h4.42v1H172v2.28h3.18Z"/><path class="cls-1" d="M178.11,266.59v-7.73h1.11l2.49,4.12,2.53-4.12h1.06v7.73h-1.08v-5.71l0,0-2.49,4-2.44-3.94h-.07v5.67Z"/><path class="cls-1" d="M188.48,266.59v-7.73h2.36a2.48,2.48,0,0,1,1.71.6,2,2,0,0,1,.67,1.56,1.84,1.84,0,0,1-.92,1.66,2,2,0,0,1,.83.69,1.82,1.82,0,0,1,.31,1.05,2,2,0,0,1-.68,1.58,2.53,2.53,0,0,1-1.72.59Zm2.25-6.7h-1.17v2.35h1.37a1.15,1.15,0,0,0,.86-.34,1.2,1.2,0,0,0,.35-.89,1,1,0,0,0-.39-.81A1.53,1.53,0,0,0,190.73,259.89Zm.24,3.31h-1.41v2.36h1.34a1.61,1.61,0,0,0,1.07-.33,1.09,1.09,0,0,0,.39-.88,1.07,1.07,0,0,0-.36-.83A1.49,1.49,0,0,0,191,263.2Z"/><path class="cls-1" d="M200.41,263.2h-3.18v2.36h3.4v1h-4.48v-7.73h4.42v1h-3.34v2.28h3.18Z"/><path class="cls-1" d="M203.31,266.59v-7.73h2.87a2.46,2.46,0,0,1,1.74.67,2.4,2.4,0,0,1-1.36,4.12l2.24,2.94h-1.33l-2.22-2.95h-.86v2.95Zm2.72-6.7h-1.64v2.79H206a1.6,1.6,0,0,0,1.1-.38,1.31,1.31,0,0,0,.42-1,1.3,1.3,0,0,0-.43-1A1.53,1.53,0,0,0,206,259.89Z"/><path class="cls-1" d="M215.51,266.59v-7.73h1.08v3.67l3.22-3.67h1.45l-2.73,3.07,2.8,4.66H220l-2.25-3.77-1.15,1.29v2.48Z"/><path class="cls-1" d="M223.68,266.59v-7.73h1.08v6.7h3.18v1Z"/><path class="cls-1" d="M235.37,266.59v-6.35l-1.45.74v-1l2.05-1.13h.48v7.77Z"/><path class="cls-1" d="M238.94,266.59v-.68l3.09-4.08a1.54,1.54,0,0,0,.43-1,1.09,1.09,0,0,0-.34-.82,1.16,1.16,0,0,0-.87-.34,1.09,1.09,0,0,0-.85.38,1.47,1.47,0,0,0-.35,1H239a2.27,2.27,0,0,1,.64-1.64,2.21,2.21,0,0,1,1.64-.67,2.27,2.27,0,0,1,1.64.61,2,2,0,0,1,.65,1.51,2.77,2.77,0,0,1-.81,1.71l-2.41,3.07h3.32v1Z"/><path class="cls-1" d="M245.84,263.22v-1h3v1Z"/><path class="cls-1" d="M251.79,266.59v-6.35l-1.45.74v-1l2-1.13h.48v7.77Z"/><path class="cls-1" d="M255.3,264.82v-.68l2.69-5.28h1.13l-2.54,5h1.67v-1.3h1.08v1.3h.93v1h-.93v1.77h-1.08v-1.77Z"/></svg>