<svg id="Layer_1" data-name="Layer 1" xmlns="http://www.w3.org/2000/svg" viewBox="0 0 320 50"><defs><style>.cls-1{fill:#01aadd;}</style></defs><title>text</title><path class="cls-1" d="M167.82,43.07a4.17,4.17,0,0,1-.16-0.86h0a3.85,3.85,0,0,1-.17.86L167,44.69a1.19,1.19,0,0,1-.34,0,1.28,1.28,0,0,1-.35,0l-0.91-3.07a0.88,0.88,0,0,1,.3,0,0.46,0.46,0,0,1,.26,0l0.57,1.91a3.76,3.76,0,0,1,.13.59h0a4.88,4.88,0,0,1,.13-0.59l0.55-1.91a1.25,1.25,0,0,1,.32,0,0.79,0.79,0,0,1,.29,0l0.53,1.9a3.3,3.3,0,0,1,.12.6h0a5.56,5.56,0,0,1,.15-0.59l0.56-1.91a0.7,0.7,0,0,1,.26,0,0.55,0.55,0,0,1,.26,0L169,44.69a1.27,1.27,0,0,1-.34,0,1.35,1.35,0,0,1-.35,0Z"/><path class="cls-1" d="M172.61,43.07a4.17,4.17,0,0,1-.16-0.86h0a3.85,3.85,0,0,1-.17.86l-0.47,1.63a1.19,1.19,0,0,1-.34,0,1.28,1.28,0,0,1-.35,0l-0.91-3.07a0.88,0.88,0,0,1,.3,0,0.46,0.46,0,0,1,.26,0l0.57,1.91a3.76,3.76,0,0,1,.13.59h0a4.88,4.88,0,0,1,.13-0.59l0.55-1.91a1.25,1.25,0,0,1,.32,0,0.79,0.79,0,0,1,.29,0l0.53,1.9a3.3,3.3,0,0,1,.12.6h0a5.56,5.56,0,0,1,.15-0.59l0.56-1.91a0.7,0.7,0,0,1,.26,0,0.55,0.55,0,0,1,.26,0l-0.91,3.07a1.27,1.27,0,0,1-.34,0,1.35,1.35,0,0,1-.35,0Z"/><path class="cls-1" d="M177.39,43.07a4.17,4.17,0,0,1-.16-0.86h0a3.85,3.85,0,0,1-.17.86l-0.47,1.63a1.19,1.19,0,0,1-.34,0,1.29,1.29,0,0,1-.35,0L175,41.62a0.88,0.88,0,0,1,.3,0,0.46,0.46,0,0,1,.26,0l0.57,1.91a3.76,3.76,0,0,1,.13.59h0a4.88,4.88,0,0,1,.13-0.59l0.55-1.91a1.25,1.25,0,0,1,.32,0,0.79,0.79,0,0,1,.29,0l0.53,1.9a3.3,3.3,0,0,1,.12.6h0a5.56,5.56,0,0,1,.15-0.59l0.56-1.91a0.7,0.7,0,0,1,.26,0,0.55,0.55,0,0,1,.26,0l-0.91,3.07a1.27,1.27,0,0,1-.34,0,1.35,1.35,0,0,1-.35,0Z"/><path class="cls-1" d="M180.39,44.69a1,1,0,0,1-.31,0,0.88,0.88,0,0,1-.31,0V44.13a0.88,0.88,0,0,1,.31,0,1,1,0,0,1,.31,0v0.56Z"/><path class="cls-1" d="M182.31,41.52a1,1,0,0,1,1.15,1.16v2a0.48,0.48,0,0,1-.23,0,0.63,0.63,0,0,1-.24,0l-0.09-.38a1,1,0,0,1-.94.49,0.88,0.88,0,0,1-.93-1,0.93,0.93,0,0,1,1.15-.94,6.53,6.53,0,0,1,.68,0V42.67a0.54,0.54,0,0,0-.62-0.64,2.5,2.5,0,0,0-.8.15A0.47,0.47,0,0,1,181.3,42a0.52,0.52,0,0,1,0-.25A2.61,2.61,0,0,1,182.31,41.52Zm-0.06,1.74a0.5,0.5,0,0,0-.61.53,0.47,0.47,0,0,0,.52.54,0.73,0.73,0,0,0,.7-0.83V43.29C182.72,43.28,182.48,43.26,182.25,43.26Z"/><path class="cls-1" d="M184.29,41.62a0.84,0.84,0,0,1,.3,0,0.81,0.81,0,0,1,.3,0v2.16a0.48,0.48,0,0,0,.56.53,0.81,0.81,0,0,0,.68-0.38v-2.3a0.89,0.89,0,0,1,.3,0,0.77,0.77,0,0,1,.3,0v3.07a0.8,0.8,0,0,1-.3,0,0.93,0.93,0,0,1-.3,0V44.42a1.17,1.17,0,0,1-.91.38,0.85,0.85,0,0,1-.93-0.91V41.62Z"/><path class="cls-1" d="M188.4,43.6c0,0.54.17,0.71,0.6,0.71a1.68,1.68,0,0,0,.25,0,0.69,0.69,0,0,1,0,.24,0.65,0.65,0,0,1,0,.21,1.67,1.67,0,0,1-.43.05,1,1,0,0,1-1-1.16V42h-0.46a0.62,0.62,0,0,1,0-.22,0.6,0.6,0,0,1,0-.23h0.46V41a1,1,0,0,1,.6-0.12v0.67h0.78a0.58,0.58,0,0,1,0,.22,0.67,0.67,0,0,1,0,.23H188.4V43.6Z"/><path class="cls-1" d="M191.07,41.52c0.83,0,1.33.45,1.33,1.64s-0.51,1.64-1.33,1.64-1.33-.45-1.33-1.64S190.25,41.52,191.07,41.52Zm0,0.46c-0.44,0-.72.25-0.72,1.18s0.28,1.17.72,1.17,0.71-.25.71-1.17S191.51,42,191.07,42Z"/><path class="cls-1" d="M194.13,41.52a1.7,1.7,0,0,1,.85.16,0.61,0.61,0,0,1-.16.43,2.21,2.21,0,0,0-.63-0.1c-0.41,0-.61.15-0.61,0.43a0.82,0.82,0,0,0,.76.49,0.92,0.92,0,0,1,.8.9,1,1,0,0,1-1.14,1,2.14,2.14,0,0,1-1-.22,0.62,0.62,0,0,1,.16-0.44,2.55,2.55,0,0,0,.81.15,0.46,0.46,0,0,0,.58-0.43c0-.33-0.33-0.4-0.68-0.5a0.93,0.93,0,0,1-.85-0.89A1,1,0,0,1,194.13,41.52Z"/><path class="cls-1" d="M196.29,43.34a0.79,0.79,0,0,0,.83.94,1.45,1.45,0,0,0,.71-0.17,0.62,0.62,0,0,1,.19.43,1.77,1.77,0,0,1-1,.25c-0.92,0-1.36-.57-1.36-1.66s0.53-1.62,1.33-1.62a1.08,1.08,0,0,1,1.19,1.21,2.56,2.56,0,0,1-.07.62h-1.83ZM197,42c-0.39,0-.67.26-0.71,0.92h1.28a2,2,0,0,0,0-.27A0.56,0.56,0,0,0,197,42Z"/><path class="cls-1" d="M200.23,41.53a0.94,0.94,0,0,1,.52.15,0.67,0.67,0,0,1-.26.5,0.6,0.6,0,0,0-.37-0.12,0.78,0.78,0,0,0-.62.46v2.18a0.88,0.88,0,0,1-.3,0,0.8,0.8,0,0,1-.3,0V41.62a0.76,0.76,0,0,1,.3,0,0.84,0.84,0,0,1,.3,0V42A0.87,0.87,0,0,1,200.23,41.53Z"/><path class="cls-1" d="M202.21,43.51a4.94,4.94,0,0,1,.17.64h0s0.07-.29.19-0.64l0.65-1.89a0.72,0.72,0,0,1,.27,0,0.75,0.75,0,0,1,.28,0l-1.06,3.07a1.5,1.5,0,0,1-.36,0,1.38,1.38,0,0,1-.36,0l-1.08-3.07a1,1,0,0,1,.31,0,0.88,0.88,0,0,1,.31,0Z"/><path class="cls-1" d="M205,41a0.92,0.92,0,0,1-.31,0,0.84,0.84,0,0,1-.31,0V40.41a0.85,0.85,0,0,1,.31,0,0.94,0.94,0,0,1,.31,0V41Zm0,3.72a0.88,0.88,0,0,1-.3,0,0.8,0.8,0,0,1-.3,0V41.62a0.76,0.76,0,0,1,.3,0,0.84,0.84,0,0,1,.3,0v3.07Z"/><path class="cls-1" d="M206.34,43.16c0,0.79.25,1.13,0.83,1.13a1.55,1.55,0,0,0,.56-0.1,0.63,0.63,0,0,1,.17.43,1.63,1.63,0,0,1-.86.18c-0.88,0-1.32-.57-1.32-1.64s0.44-1.64,1.32-1.64a1.58,1.58,0,0,1,.8.15,0.61,0.61,0,0,1-.17.43,1.44,1.44,0,0,0-.53-0.09C206.57,42,206.34,42.38,206.34,43.16Z"/><path class="cls-1" d="M209,43.34a0.79,0.79,0,0,0,.83.94,1.45,1.45,0,0,0,.71-0.17,0.62,0.62,0,0,1,.19.43,1.77,1.77,0,0,1-1,.25c-0.92,0-1.36-.57-1.36-1.66s0.53-1.62,1.33-1.62a1.08,1.08,0,0,1,1.19,1.21,2.56,2.56,0,0,1-.07.62H209ZM209.73,42c-0.39,0-.67.26-0.71,0.92h1.28a2,2,0,0,0,0-.27A0.56,0.56,0,0,0,209.73,42Z"/><path class="cls-1" d="M212.22,41.91a1,1,0,0,1,.86-0.39c0.68,0,1.13.41,1.13,1.64s-0.44,1.64-1.13,1.64a1,1,0,0,1-.86-0.39v0.29a0.9,0.9,0,0,1-.31,0,0.81,0.81,0,0,1-.29,0V40.28a0.8,0.8,0,0,1,.29,0,0.88,0.88,0,0,1,.31,0v1.63Zm0.65,0.1a0.68,0.68,0,0,0-.65.76v0.77a0.69,0.69,0,0,0,.65.77c0.48,0,.72-0.25.72-1.14S213.36,42,212.88,42Z"/><path class="cls-1" d="M216.15,41.52c0.83,0,1.33.45,1.33,1.64s-0.51,1.64-1.33,1.64-1.33-.45-1.33-1.64S215.33,41.52,216.15,41.52Zm0,0.46c-0.44,0-.72.25-0.72,1.18s0.28,1.17.72,1.17,0.71-.25.71-1.17S216.59,42,216.15,42Z"/><path class="cls-1" d="M219,43.6c0,0.54.17,0.71,0.6,0.71a1.68,1.68,0,0,0,.25,0,0.69,0.69,0,0,1,0,.24,0.65,0.65,0,0,1,0,.21,1.67,1.67,0,0,1-.43.05,1,1,0,0,1-1-1.16V42h-0.46a0.62,0.62,0,0,1,0-.22,0.6,0.6,0,0,1,0-.23h0.46V41a1,1,0,0,1,.6-0.12v0.67h0.78a0.58,0.58,0,0,1,0,.22,0.67,0.67,0,0,1,0,.23H219V43.6Z"/><path class="cls-1" d="M222.21,41.62a1,1,0,0,1,.31,0,1.15,1.15,0,0,1,.29,0L221.88,43l1.06,1.64a1.1,1.1,0,0,1-.34,0,1,1,0,0,1-.32,0l-0.9-1.38H221v1.38a1,1,0,0,1-.29,0,1,1,0,0,1-.31,0V40.27a1.37,1.37,0,0,1,.31,0,1.47,1.47,0,0,1,.29,0v2.6h0.34Z"/><path class="cls-1" d="M224.88,45.2a1.1,1.1,0,0,1-1.07,1,0.86,0.86,0,0,1-.33-0.06,0.69,0.69,0,0,1,0-.22,0.57,0.57,0,0,1,0-.24,1.75,1.75,0,0,0,.27,0c0.27,0,.41-0.07.59-0.64l0.13-.37a0.59,0.59,0,0,1-.19,0l-1.14-3.07a1,1,0,0,1,.31,0,0.92,0.92,0,0,1,.31,0l0.68,1.82a5.74,5.74,0,0,1,.21.7h0s0.06-.28.19-0.7l0.59-1.83a0.78,0.78,0,0,1,.29,0,0.83,0.83,0,0,1,.28,0Z"/><path class="cls-1" d="M227.94,41.53a0.94,0.94,0,0,1,.52.15,0.67,0.67,0,0,1-.26.5,0.6,0.6,0,0,0-.37-0.12,0.78,0.78,0,0,0-.62.46v2.18a0.88,0.88,0,0,1-.3,0,0.8,0.8,0,0,1-.3,0V41.62a0.76,0.76,0,0,1,.3,0,0.84,0.84,0,0,1,.3,0V42A0.87,0.87,0,0,1,227.94,41.53Z"/><path class="cls-1" d="M230,41.52a1,1,0,0,1,1.15,1.16v2a0.48,0.48,0,0,1-.23,0,0.63,0.63,0,0,1-.24,0l-0.09-.38a1,1,0,0,1-.94.49,0.88,0.88,0,0,1-.93-1,0.93,0.93,0,0,1,1.15-.94,6.53,6.53,0,0,1,.68,0V42.67A0.54,0.54,0,0,0,230,42a2.5,2.5,0,0,0-.8.15A0.47,0.47,0,0,1,229,42a0.52,0.52,0,0,1,0-.25A2.61,2.61,0,0,1,230,41.52ZM230,43.26a0.5,0.5,0,0,0-.61.53,0.47,0.47,0,0,0,.52.54,0.73,0.73,0,0,0,.7-0.83V43.29C230.43,43.28,230.19,43.26,230,43.26Z"/><path class="cls-1" d="M232.6,44.69a1,1,0,0,1-.31,0,0.88,0.88,0,0,1-.31,0V44.13a0.88,0.88,0,0,1,.31,0,1,1,0,0,1,.31,0v0.56Z"/><path class="cls-1" d="M234.42,41.52a1.71,1.71,0,0,1,.85.16,0.61,0.61,0,0,1-.16.43,2.21,2.21,0,0,0-.63-0.1c-0.41,0-.61.15-0.61,0.43a0.82,0.82,0,0,0,.76.49,0.92,0.92,0,0,1,.8.9,1,1,0,0,1-1.14,1,2.14,2.14,0,0,1-1-.22,0.61,0.61,0,0,1,.16-0.44,2.55,2.55,0,0,0,.81.15,0.46,0.46,0,0,0,.58-0.43c0-.33-0.33-0.4-0.68-0.5a0.93,0.93,0,0,1-.85-0.89A1,1,0,0,1,234.42,41.52Z"/><path class="cls-1" d="M236.58,43.34a0.79,0.79,0,0,0,.83.94,1.45,1.45,0,0,0,.71-0.17,0.62,0.62,0,0,1,.19.43,1.77,1.77,0,0,1-1,.25c-0.92,0-1.36-.57-1.36-1.66s0.53-1.62,1.33-1.62a1.08,1.08,0,0,1,1.19,1.21,2.56,2.56,0,0,1-.07.62h-1.83ZM237.3,42c-0.39,0-.67.26-0.71,0.92h1.28a2.11,2.11,0,0,0,0-.27A0.56,0.56,0,0,0,237.3,42Z"/></svg>