<svg id="Layer_1" data-name="Layer 1" xmlns="http://www.w3.org/2000/svg" viewBox="0 0 320 50"><defs><style>.cls-1{fill:#fff;}</style></defs><title>text</title><path class="cls-1" d="M288.81,21.4a0.91,0.91,0,0,1,1,1,0.86,0.86,0,0,1-.4.76,0.88,0.88,0,0,1,.51.84,1,1,0,0,1-1.07,1h-1.36V21.4h1.34ZM288.71,23a0.6,0.6,0,0,0,0-1.19H288V23h0.72Zm0,1.62a0.62,0.62,0,1,0,0-1.24H288V24.6h0.76Z"/><path class="cls-1" d="M291.87,21.35c0.87,0,1.41.56,1.41,1.85S292.75,25,291.87,25s-1.41-.56-1.41-1.85S291,21.35,291.87,21.35Zm0,0.42c-0.53,0-.88.32-0.88,1.43s0.35,1.43.88,1.43,0.88-.32.88-1.43S292.41,21.77,291.87,21.77Z"/><path class="cls-1" d="M295.92,21.43a1.07,1.07,0,0,1,.25,0,1.32,1.32,0,0,1,.28,0l-1.14,1.64L296.6,25a1,1,0,0,1-.3,0,1.06,1.06,0,0,1-.29,0l-1.12-1.63h-0.37V25a0.67,0.67,0,0,1-.26,0,0.8,0.8,0,0,1-.25,0V21.43a0.78,0.78,0,0,1,.26,0,0.72,0.72,0,0,1,.25,0v1.49h0.37Z"/><path class="cls-1" d="M298.29,21.4a1.08,1.08,0,0,1,.3,0L299.85,25a0.84,0.84,0,0,1-.28,0,0.68,0.68,0,0,1-.25,0L299,24.08h-1.48l-0.32.88a0.7,0.7,0,0,1-.25,0,0.64,0.64,0,0,1-.24,0L298,21.43A1.22,1.22,0,0,1,298.29,21.4Zm0,0.56s0,0.2-.13.45l-0.46,1.27h1.19l-0.46-1.27a4,4,0,0,1-.13-0.45h0Z"/><path class="cls-1" d="M303.37,21.4a0.58,0.58,0,0,1,0,.21,0.64,0.64,0,0,1,0,.23h-0.93V25a0.76,0.76,0,0,1-.25,0,0.67,0.67,0,0,1-.26,0V21.84h-1a0.56,0.56,0,0,1,0-.22,0.63,0.63,0,0,1,0-.22h2.4Z"/><path class="cls-1" d="M304,21.43a0.71,0.71,0,0,1,.25,0,0.75,0.75,0,0,1,.26,0V25a0.77,0.77,0,0,1-.26,0,0.66,0.66,0,0,1-.25,0V21.43Z"/><path class="cls-1" d="M306.49,21.4c0.93,0,1.47.48,1.47,1.8s-0.55,1.8-1.47,1.8h-1.11V21.4h1.11Zm0,3.18c0.59,0,1-.25,1-1.38s-0.37-1.38-1-1.38h-0.57v2.75h0.57Z"/><path class="cls-1" d="M294.74,28.69a4.29,4.29,0,0,1-.3-0.65h0s0,0.33,0,.84V31a0.62,0.62,0,0,1-.24,0,0.56,0.56,0,0,1-.23,0V27.43a1.06,1.06,0,0,1,.31,0,1,1,0,0,1,.3,0l1.25,2.26a5.87,5.87,0,0,1,.31.67h0s0-.37,0-0.84V27.43a0.62,0.62,0,0,1,.24,0,0.53,0.53,0,0,1,.23,0V31a0.94,0.94,0,0,1-.29,0,1.06,1.06,0,0,1-.31,0Z"/><path class="cls-1" d="M300,29.78a1.26,1.26,0,1,1-2.52,0V27.43a0.72,0.72,0,0,1,.25,0,0.73,0.73,0,0,1,.25,0v2.43a0.76,0.76,0,1,0,1.52,0V27.43a0.67,0.67,0,0,1,.25,0,0.76,0.76,0,0,1,.25,0v2.35Z"/><path class="cls-1" d="M300.8,27.43a0.75,0.75,0,0,1,.27,0,0.81,0.81,0,0,1,.27,0L301.26,30a0.37,0.37,0,0,1-.18,0,0.41,0.41,0,0,1-.19,0ZM301.33,31a0.73,0.73,0,0,1-.25,0,0.66,0.66,0,0,1-.25,0V30.49a0.66,0.66,0,0,1,.25,0,0.73,0.73,0,0,1,.25,0V31Z"/></svg>