<?xml version="1.0" encoding="utf-8"?>
<!-- Generator: Adobe Illustrator 19.1.1, SVG Export Plug-In . SVG Version: 6.00 Build 0)  -->
<svg version="1.1" id="Layer_1" xmlns="http://www.w3.org/2000/svg" xmlns:xlink="http://www.w3.org/1999/xlink" x="0px" y="0px"
	 viewBox="0 0 320 50" style="enable-background:new 0 0 320 50;" xml:space="preserve">
<style type="text/css">
	.st0{fill:#D80201;}
	.st1{fill:#FFFFFF;}
</style>
<g>
	<path class="st0" d="M61.4,28.7c-1.2,1-2.5,1.3-4.1,1.3h-3.2V18.7h3.2c3.4,0,6.1,2.1,6.1,5.7C63.5,26,62.8,27.6,61.4,28.7z
		 M60,21.5c-0.9-0.8-1.9-0.9-3-0.9h-0.6v7.5H57c1.1,0,2.2-0.1,3-0.9c0.8-0.7,1.2-1.8,1.2-2.9C61.2,23.3,60.8,22.2,60,21.5z"/>
	<path class="st0" d="M68.8,30.2c-2,0-3.6-0.9-3.6-3.1v-4.5h2.1v4.2c0,1,0.4,1.7,1.5,1.7s1.5-0.7,1.5-1.7v-4.2h2.1v4.5
		C72.3,29.3,70.8,30.2,68.8,30.2z"/>
	<path class="st0" d="M80.7,24.4V30h-2.1v-5.6h-0.8v-1.8h0.8v-2.4c0-0.6,0-1.2,0.3-1.7c0.5-0.9,1.5-1.5,2.5-1.5
		c0.4,0,0.7,0.1,1.1,0.3v1.9c-0.3-0.2-0.6-0.3-0.9-0.3c-0.9,0-1,1-1,1.6v2.1h1.9v1.8H80.7z"/>
	<path class="st0" d="M87.4,30.2c-2.3,0-4.2-1.5-4.2-3.9c0-2.5,1.9-3.9,4.2-3.9c2.3,0,4.2,1.5,4.2,3.9S89.7,30.2,87.4,30.2z
		 M87.4,24.3c-1.1,0-2.1,0.9-2.1,2.1c0,1.1,1,2.1,2.1,2.1c1.1,0,2.1-0.9,2.1-2.1C89.4,25.2,88.5,24.3,87.4,24.3z"/>
	<path class="st0" d="M98,24.5c-0.3-0.2-0.6-0.3-1-0.3c-1.4,0-1.8,1-1.8,2.2V30h-2.1v-7.4h2.1v1.1c0.5-0.8,1.2-1.3,2.1-1.3
		c0.3,0,0.6,0.1,0.9,0.2L98,24.5z"/>
	<path class="st0" d="M108.7,30v-4c0-0.9-0.1-1.8-1.2-1.8c-1.2,0-1.4,1.1-1.4,2.1V30H104v-3.9c0-0.4,0-0.9-0.2-1.2
		c-0.2-0.4-0.6-0.7-1.1-0.7c-0.5,0-0.9,0.3-1.2,0.7c-0.2,0.4-0.2,1-0.2,1.4V30h-2.1v-7.4h2.1v0.8c0.6-0.7,1.3-1.1,2.2-1.1
		c1.1,0,1.8,0.5,2.3,1.3c0.6-0.9,1.4-1.3,2.4-1.3c0.8,0,1.6,0.4,2.1,1.1c0.3,0.5,0.4,1.2,0.4,1.8V30H108.7z"/>
	<path class="st0" d="M118.3,30v-1c-0.6,0.8-1.4,1.2-2.4,1.2c-2.2,0-3.6-1.8-3.6-3.9c0-2.1,1.4-3.9,3.6-3.9c1,0,1.8,0.4,2.4,1.2
		v-0.9h2.1V30H118.3z M116.5,24.3c-1.1,0-2.1,0.9-2.1,2.1s0.9,2.1,2.1,2.1c1.1,0,2.1-0.9,2.1-2.1S117.6,24.3,116.5,24.3z"/>
	<path class="st0" d="M127.2,24.5c-0.3-0.2-0.6-0.3-1-0.3c-1.4,0-1.8,1-1.8,2.2V30h-2.1v-7.4h2.1v1.1c0.5-0.8,1.2-1.3,2.1-1.3
		c0.3,0,0.6,0.1,0.9,0.2L127.2,24.5z"/>
	<path class="st0" d="M128.9,30.2c-0.7,0-1.3-0.6-1.3-1.3c0-0.7,0.6-1.3,1.3-1.3s1.3,0.6,1.3,1.3C130.2,29.6,129.6,30.2,128.9,30.2z
		"/>
	<path class="st0" d="M141.3,30.3h-1.2l-4.8-11.6h2.4l3,7.6l3.1-7.6h2.4L141.3,30.3z"/>
	<path class="st0" d="M148.2,20.8c-0.7,0-1.2-0.6-1.2-1.2s0.6-1.2,1.2-1.2c0.7,0,1.2,0.6,1.2,1.2S148.9,20.8,148.2,20.8z M147.2,30
		v-7.4h2.1V30H147.2z"/>
	<path class="st0" d="M159.9,30.2c-1,0-1.8-0.4-2.4-1.2v1h-2.1V17.3h2.1v6.3c0.7-0.8,1.4-1.2,2.5-1.2c2.2,0,3.6,1.8,3.6,3.9
		C163.5,28.4,162.1,30.2,159.9,30.2z M159.3,24.3c-1.1,0-2.1,0.9-2.1,2.1s0.9,2.1,2.1,2.1s2.1-0.9,2.1-2.1S160.5,24.3,159.3,24.3z"
		/>
	<path class="st0" d="M166.8,33.9h-2.3l2.7-5l-3.5-6.3h2.4l2.2,4.2l2.1-4.2h2.3L166.8,33.9z"/>
	<path class="st0" d="M180.6,32.7c-0.8,0.9-2,1.3-3.1,1.3c-1.9,0-3.7-1.1-3.9-3.1h2.2c0.2,0.9,0.8,1.3,1.8,1.3
		c1.3,0,1.8-0.9,1.8-2.1V29c-0.7,0.8-1.4,1.2-2.5,1.2c-2.2,0-3.5-1.8-3.5-3.8c0-2.1,1.4-4,3.6-4c1.1,0,1.7,0.4,2.4,1.2v-1h2.1v7.1
		C181.4,30.9,181.4,31.8,180.6,32.7z M177.5,24.3c-1.1,0-2.1,0.9-2.1,2.1s0.9,2.1,2.1,2.1s2.1-0.9,2.1-2.1S178.7,24.3,177.5,24.3z"
		/>
	<path class="st0" d="M190.2,32.7c-0.8,0.9-2,1.3-3.1,1.3c-1.9,0-3.7-1.1-3.9-3.1h2.2c0.2,0.9,0.8,1.3,1.8,1.3
		c1.3,0,1.8-0.9,1.8-2.1V29c-0.7,0.8-1.4,1.2-2.5,1.2c-2.2,0-3.5-1.8-3.5-3.8c0-2.1,1.4-4,3.6-4c1.1,0,1.7,0.4,2.4,1.2v-1h2.1v7.1
		C191,30.9,191,31.8,190.2,32.7z M187.2,24.3c-1.1,0-2.1,0.9-2.1,2.1s0.9,2.1,2.1,2.1s2.1-0.9,2.1-2.1S188.3,24.3,187.2,24.3z"/>
	<path class="st0" d="M194.7,26.7c0,1.1,0.6,2,1.8,2c0.8,0,1.3-0.3,1.8-1l1.9,0.3c-0.6,1.6-2,2.3-3.6,2.3c-2.4,0-3.9-1.5-3.9-3.9
		c0-2.3,1.5-3.9,3.9-3.9c2.4,0,3.8,1.6,3.8,4v0.3H194.7z M196.5,23.9c-0.9,0-1.5,0.6-1.7,1.5h3.5C198.1,24.4,197.5,23.9,196.5,23.9z
		"/>
	<path class="st0" d="M206.6,24.5c-0.3-0.2-0.6-0.3-1-0.3c-1.4,0-1.8,1-1.8,2.2V30h-2.1v-7.4h2.1v1.1c0.5-0.8,1.2-1.3,2.1-1.3
		c0.3,0,0.6,0.1,0.9,0.2L206.6,24.5z"/>
	<path class="st0" d="M208.3,30.2c-0.7,0-1.3-0.6-1.3-1.3c0-0.7,0.6-1.3,1.3-1.3c0.7,0,1.3,0.6,1.3,1.3
		C209.7,29.6,209.1,30.2,208.3,30.2z"/>
</g>
</svg>
