<?xml version="1.0" encoding="utf-8"?>
<!-- Generator: Adobe Illustrator 19.1.1, SVG Export Plug-In . SVG Version: 6.00 Build 0)  -->
<svg version="1.1" id="Layer_1" xmlns="http://www.w3.org/2000/svg" xmlns:xlink="http://www.w3.org/1999/xlink" x="0px" y="0px"
	 viewBox="0 0 320 50" style="enable-background:new 0 0 320 50;" xml:space="preserve">
<style type="text/css">
	.st0{fill:#D4AC76;}
</style>
<g>
	<path class="st0" d="M83.4,26V12.1h4c1.9,0,3.6,0.7,4.9,2c1.4,1.3,2,3,2,5c0,2-0.7,3.7-2.1,5c-1.4,1.3-3.1,1.9-5,1.9H83.4z
		 M87.4,14.4h-1.6v9.3h1.6c1.2,0,2.3-0.4,3.1-1.3c0.8-0.9,1.2-2,1.2-3.3c0-1.3-0.4-2.4-1.3-3.3S88.6,14.4,87.4,14.4z"/>
	<path class="st0" d="M98.4,26V12.1h2.6V26H98.4z"/>
	<path class="st0" d="M104.4,14.6v-2.5h11.5v2.5h-4.4V26h-2.6V14.6H104.4z"/>
	<path class="st0" d="M118.3,14.6v-2.5h11.5v2.5h-4.4V26h-2.6V14.6H118.3z"/>
	<path class="st0" d="M140.6,26V12.1h2.6v11.4h5.1V26H140.6z"/>
	<path class="st0" d="M152.1,26V12.1h2.6V26H152.1z"/>
	<path class="st0" d="M163.3,26L158,12.1h2.7l3.8,10l3.8-10h2.6L165.6,26H163.3z"/>
	<path class="st0" d="M177.4,26.2c-0.9,0-1.8-0.2-2.6-0.5c-0.9-0.4-1.6-0.9-2.3-1.5l1.7-2c0.4,0.5,0.9,0.9,1.5,1.2
		c0.6,0.3,1.2,0.5,1.8,0.5c0.6,0,1.1-0.2,1.5-0.5s0.6-0.7,0.6-1.2c0-0.9-0.5-1.5-1.5-1.9l-1.6-0.6c-1-0.4-1.8-0.9-2.3-1.5
		c-0.5-0.6-0.7-1.4-0.7-2.4s0.4-1.9,1.2-2.6c0.8-0.8,1.8-1.2,3-1.2c1.7,0,3.2,0.5,4.3,1.6l-1.5,1.9c-0.7-0.8-1.7-1.2-2.7-1.2
		c-0.5,0-0.9,0.1-1.2,0.4c-0.3,0.3-0.5,0.6-0.5,1c0,0.4,0.1,0.7,0.4,1s0.6,0.5,1.2,0.7l1.6,0.6c2.1,0.8,3.1,2.2,3.2,4
		c0,1.2-0.4,2.3-1.3,3S178.8,26.2,177.4,26.2z"/>
	<path class="st0" d="M189.8,26l-5.3-13.9h2.7l3.8,10l3.8-10h2.6L192.2,26H189.8z"/>
	<path class="st0" d="M208.5,20.1h-5.1v3.6h5.7V26h-8.3V12.1h8.1v2.3h-5.5v3.4h5.1V20.1z"/>
	<path class="st0" d="M213.2,26V12.1h5.4c1.3,0,2.5,0.4,3.4,1.3c0.9,0.8,1.3,1.9,1.3,3.3c0,1.1-0.3,2-1,2.8
		c-0.7,0.8-1.5,1.3-2.6,1.5l3.7,5h-2.9l-3.6-5h-1.1v5H213.2z M218.3,14.4h-2.4v4.5h2.4c0.8,0,1.4-0.2,1.8-0.6
		c0.5-0.4,0.7-0.9,0.7-1.6s-0.2-1.2-0.7-1.7C219.6,14.6,219,14.4,218.3,14.4z"/>
	<path class="st0" d="M227.5,26V12.1h2.4v6.1l5.3-6.1h3.2l-4.9,5.6l5,8.4h-3l-3.8-6.4l-1.9,2.1V26H227.5z"/>
</g>
</svg>
