<?xml version="1.0" encoding="utf-8"?>
<!-- Generator: Adobe Illustrator 19.1.1, SVG Export Plug-In . SVG Version: 6.00 Build 0)  -->
<svg version="1.1" id="Layer_1" xmlns="http://www.w3.org/2000/svg" xmlns:xlink="http://www.w3.org/1999/xlink" x="0px" y="0px"
	 viewBox="0 0 320 50" style="enable-background:new 0 0 320 50;" xml:space="preserve">
<style type="text/css">
	.st0{fill:#D4AC76;}
</style>
<g>
	<path class="st0" d="M96.1,38v-5.4h1.4c0.7,0,1.4,0.3,1.9,0.8s0.8,1.2,0.8,1.9c0,0.8-0.3,1.4-0.8,1.9c-0.5,0.5-1.2,0.8-1.9,0.8
		H96.1z M97.6,33.3h-0.7v4h0.7c0.5,0,1-0.2,1.3-0.6s0.5-0.9,0.5-1.4s-0.2-1-0.6-1.4C98.5,33.5,98.1,33.3,97.6,33.3z"/>
	<path class="st0" d="M102.1,38v-5.4h0.8V38H102.1z"/>
	<path class="st0" d="M104.3,33.3v-0.7h4.4v0.7h-1.8V38h-0.8v-4.7H104.3z"/>
	<path class="st0" d="M109.8,33.3v-0.7h4.4v0.7h-1.8V38h-0.8v-4.7H109.8z"/>
	<path class="st0" d="M118.8,38v-5.4h0.5l2.9,3.7v-3.7h0.8V38h-0.4l-3-3.9V38H118.8z"/>
	<path class="st0" d="M128,32.6h0.9l-1.8,3.2V38h-0.8v-2.1l-1.8-3.3h0.9l1.3,2.4L128,32.6z"/>
	<path class="st0" d="M129.2,38l2.2-5.4h0.7l2.1,5.4h-0.8l-0.3-0.8h-2.7l-0.3,0.8H129.2z M131.7,33.8l-1.1,2.6h2.1L131.7,33.8z"/>
	<path class="st0" d="M142.1,38v-2.3h-2.6V38h-0.8v-5.4h0.8v2.3h2.6v-2.3h0.8V38H142.1z"/>
	<path class="st0" d="M148.1,35.6h-2.2v1.7h2.4V38h-3.1v-5.4h3.1v0.7h-2.3v1.6h2.2V35.6z"/>
	<path class="st0" d="M150.2,38v-5.4h0.8l1.7,2.9l1.8-2.9h0.7V38h-0.8v-4l0,0l-1.7,2.8L151,34h0v4H150.2z"/>
	<path class="st0" d="M161.9,38l-2.1-5.4h0.8l1.6,4.2l1.6-4.2h0.8l-2.1,5.4H161.9z"/>
	<path class="st0" d="M165.1,38l2.2-5.4h0.7l2.1,5.4h-0.8l-0.3-0.8h-2.7L166,38H165.1z M167.1,32c-0.1,0.1-0.2,0.1-0.3,0.1
		c-0.1,0-0.2,0-0.3-0.1c-0.1-0.1-0.1-0.2-0.1-0.3c0-0.1,0-0.2,0.1-0.3c0.1-0.1,0.2-0.1,0.3-0.1c0.1,0,0.2,0,0.3,0.1
		c0.1,0.1,0.1,0.2,0.1,0.3C167.2,31.8,167.2,31.9,167.1,32z M167.6,33.8l-1.1,2.6h2.1L167.6,33.8z M168.6,32
		c-0.1,0.1-0.2,0.1-0.3,0.1c-0.1,0-0.2,0-0.3-0.1c-0.1-0.1-0.1-0.2-0.1-0.3c0-0.1,0-0.2,0.1-0.3c0.1-0.1,0.2-0.1,0.3-0.1
		c0.1,0,0.2,0,0.3,0.1c0.1,0.1,0.1,0.2,0.1,0.3C168.7,31.8,168.7,31.9,168.6,32z"/>
	<path class="st0" d="M171.6,38v-5.4h0.5l2.9,3.7v-3.7h0.8V38h-0.4l-3-3.9V38H171.6z"/>
	<path class="st0" d="M177.4,33.3v-0.7h4.4v0.7H180V38h-0.8v-4.7H177.4z"/>
	<path class="st0" d="M182.1,38l2.2-5.4h0.7l2.1,5.4h-0.8l-0.3-0.8h-2.7L183,38H182.1z M184.6,33.8l-1.1,2.6h2.1L184.6,33.8z"/>
	<path class="st0" d="M188.6,38v-5.4h2c0.5,0,0.9,0.2,1.2,0.5c0.3,0.3,0.5,0.7,0.5,1.2c0,0.5-0.1,0.8-0.4,1.1s-0.6,0.5-1,0.5
		l1.6,2.1h-0.9l-1.6-2.1h-0.6V38H188.6z M190.5,33.3h-1.2v2h1.1c0.3,0,0.6-0.1,0.8-0.3c0.2-0.2,0.3-0.4,0.3-0.7
		c0-0.3-0.1-0.5-0.3-0.7S190.8,33.3,190.5,33.3z"/>
	<path class="st0" d="M197.1,38v-5.4h1.8c0.5,0,0.9,0.2,1.3,0.5c0.3,0.3,0.5,0.8,0.5,1.3c0,0.5-0.2,0.9-0.5,1.3
		c-0.3,0.3-0.8,0.5-1.3,0.5h-1.1V38H197.1z M198.9,33.3h-1v2.1h1c0.3,0,0.6-0.1,0.8-0.3c0.2-0.2,0.3-0.4,0.3-0.8
		c0-0.3-0.1-0.6-0.3-0.8S199.2,33.3,198.9,33.3z"/>
	<path class="st0" d="M201.5,38l2.2-5.4h0.7l2.1,5.4h-0.8l-0.3-0.8h-2.7l-0.3,0.8H201.5z M204,33.8l-1.1,2.6h2.1L204,33.8z
		 M204.5,32.2c-0.1,0.1-0.3,0.2-0.5,0.2s-0.4-0.1-0.5-0.2s-0.2-0.3-0.2-0.5s0.1-0.4,0.2-0.5s0.3-0.2,0.5-0.2s0.4,0.1,0.5,0.2
		s0.2,0.3,0.2,0.5S204.6,32,204.5,32.2z M204,32c0.1,0,0.1,0,0.2-0.1c0.1-0.1,0.1-0.1,0.1-0.2c0-0.1,0-0.2-0.1-0.2
		c-0.1-0.1-0.1-0.1-0.2-0.1c-0.1,0-0.2,0-0.2,0.1c-0.1,0.1-0.1,0.1-0.1,0.2c0,0.1,0,0.1,0.1,0.2C203.8,31.9,203.9,32,204,32z"/>
	<path class="st0" d="M211,38v-5.4h1.5c0.7,0,1.4,0.3,1.9,0.8c0.5,0.5,0.8,1.2,0.8,1.9c0,0.8-0.3,1.4-0.8,1.9
		c-0.5,0.5-1.2,0.8-1.9,0.8H211z M212.4,33.3h-0.7v4h0.7c0.5,0,1-0.2,1.3-0.6s0.5-0.9,0.5-1.4s-0.2-1-0.6-1.4
		C213.4,33.5,213,33.3,212.4,33.3z"/>
	<path class="st0" d="M217,38v-5.4h0.8V38H217z"/>
	<path class="st0" d="M223.3,35.6v-0.7h1.8v0.4c0,0.8-0.3,1.5-0.8,2s-1.2,0.8-2,0.8c-0.8,0-1.4-0.3-2-0.8c-0.5-0.5-0.8-1.2-0.8-2
		c0-0.8,0.3-1.5,0.8-2s1.2-0.8,2-0.8c0.4,0,0.8,0.1,1.1,0.2c0.4,0.1,0.7,0.4,0.9,0.6l-0.6,0.6c-0.4-0.5-0.9-0.7-1.5-0.7
		c-0.6,0-1.1,0.2-1.4,0.6c-0.4,0.4-0.6,0.9-0.6,1.5c0,0.6,0.2,1.1,0.6,1.5c0.4,0.4,0.9,0.6,1.4,0.6c0.5,0,0.9-0.2,1.3-0.5
		c0.4-0.3,0.6-0.7,0.7-1.2H223.3z"/>
</g>
</svg>
