<svg id="Layer_1" data-name="Layer 1" xmlns="http://www.w3.org/2000/svg" viewBox="0 0 980 300"><defs><style>.cls-1{fill:#fff;}</style></defs><title>text</title><path class="cls-1" d="M387.34,201h-3.65l-15.51-26.15,0,2c0,.75.07,1.38.07,1.89V201h-3V171H370l14.5,24.44,0-2.09c0-.82,0-1.54,0-2.17V171h3Z"/><path class="cls-1" d="M402.48,201.61a8.41,8.41,0,0,1-7.13-3.38,13.52,13.52,0,0,1-2.56-8.4,12.14,12.14,0,0,1,2.87-8.47,9.3,9.3,0,0,1,7.17-3.17,8.76,8.76,0,0,1,7.24,3.33,13,13,0,0,1,2.65,8.33,12.5,12.5,0,0,1-2.86,8.48A9.34,9.34,0,0,1,402.48,201.61Zm.26-2.85a5.5,5.5,0,0,0,4.42-2.18c1.18-1.45,1.78-3.7,1.78-6.76s-.63-5.31-1.87-6.7a5.72,5.72,0,0,0-4.37-2.07,5.48,5.48,0,0,0-4.35,2.1q-1.78,2.1-1.78,6.64,0,4.82,1.78,6.89A5.54,5.54,0,0,0,402.74,198.76Z"/><path class="cls-1" d="M421.35,201H417.9V178.81h3V184c1.07-2.44,2.15-4,3.22-4.75a5.83,5.83,0,0,1,3.31-1.09,13.28,13.28,0,0,1,1.36.09v3.29h-.7a6.08,6.08,0,0,0-4.75,2.13,8.67,8.67,0,0,0-2,5.61Z"/><path class="cls-1" d="M430,195.24l3.29-.68c.74,2.8,3.05,4.2,6.95,4.2a6.5,6.5,0,0,0,3.64-1,3.05,3.05,0,0,0,1.5-2.72q0-2.61-3.8-3.31l-4.68-.89a8.55,8.55,0,0,1-4.38-2.07,5.33,5.33,0,0,1-1.62-4.06,5.87,5.87,0,0,1,2.22-4.67,9,9,0,0,1,6-1.88q7.23,0,8.93,5.65l-3.17.68c-.91-2.31-2.77-3.47-5.6-3.47a6.27,6.27,0,0,0-3.46.87,2.71,2.71,0,0,0-1.35,2.42q0,2.46,3.45,3.1l4.32.77q6.79,1.23,6.79,6.58a5.87,5.87,0,0,1-2.52,4.94,11,11,0,0,1-6.73,1.88Q431.87,201.61,430,195.24Z"/><path class="cls-1" d="M472.2,201h-3.58l-6.49-12.39-4.81,5.53V201h-3.45V171h3.45v19.22l10.31-11.42h3.69l-6.94,7.79Z"/><path class="cls-1" d="M509.39,201h-3.75V186.72H491.73V201H488V171h3.76v12.41h13.91V171h3.75Z"/><path class="cls-1" d="M531.81,178.81l-8.89,24.78c-1.29,3.58-3.35,5.36-6.18,5.36a10.82,10.82,0,0,1-3-.46v-2.7a10.84,10.84,0,0,0,2.3.31,4.11,4.11,0,0,0,2.76-.95q1.11-.94,2.21-4.6l-7.67-21.74h3.5l6,16.67,6.07-16.67Z"/><path class="cls-1" d="M552.59,171v30h-3.12v-3.8a7.5,7.5,0,0,1-7,4.41,7.73,7.73,0,0,1-6.4-3.26,13.18,13.18,0,0,1-2.51-8.26,14,14,0,0,1,2.49-8.5,7.75,7.75,0,0,1,6.59-3.4,7.64,7.64,0,0,1,6.52,3.65V171Zm-3.45,16.37a6.26,6.26,0,0,0-1.78-4.68,5.68,5.68,0,0,0-4.15-1.76,5,5,0,0,0-4.23,2.28,10.85,10.85,0,0,0-1.66,6.42c0,3,.51,5.24,1.53,6.79a4.77,4.77,0,0,0,4.19,2.33,5.65,5.65,0,0,0,4.26-2,6.82,6.82,0,0,0,1.84-4.75Z"/><path class="cls-1" d="M562.94,201h-3.45V178.81h3V184c1.06-2.44,2.14-4,3.21-4.75a5.83,5.83,0,0,1,3.31-1.09,13.11,13.11,0,0,1,1.36.09v3.29h-.7a6.09,6.09,0,0,0-4.75,2.13,8.67,8.67,0,0,0-2,5.61Z"/><path class="cls-1" d="M581.46,201.61a8.43,8.43,0,0,1-7.13-3.38,13.58,13.58,0,0,1-2.56-8.4,12.1,12.1,0,0,1,2.88-8.47,9.3,9.3,0,0,1,7.17-3.17,8.76,8.76,0,0,1,7.24,3.33,13,13,0,0,1,2.64,8.33,12.5,12.5,0,0,1-2.85,8.48A9.35,9.35,0,0,1,581.46,201.61Zm.27-2.85a5.47,5.47,0,0,0,4.41-2.18q1.79-2.18,1.78-6.76t-1.86-6.7a5.74,5.74,0,0,0-4.38-2.07,5.51,5.51,0,0,0-4.35,2.1c-1.18,1.4-1.78,3.61-1.78,6.64,0,3.21.6,5.51,1.78,6.89A5.56,5.56,0,0,0,581.73,198.76Z"/><path class="cls-1" d="M368.79,229.53v1.84H362v-1.84Z"/><path class="cls-1" d="M382.17,238.2h-2.58V217.54h12.65v2.27H382.17v6.52h8.34v2.09h-8.34Z"/><path class="cls-1" d="M406.09,238.2h-2.15v-2.92q-1.63,3.34-4.87,3.34a4.62,4.62,0,0,1-3.68-1.54,6.54,6.54,0,0,1-1.33-4.4v-9.77h2.37v9.76a4.12,4.12,0,0,0,.95,3.13,3,3,0,0,0,2.08.86,3.5,3.5,0,0,0,2.08-.66,4.94,4.94,0,0,0,1.55-1.85,5.57,5.57,0,0,0,.62-2.63v-8.61h2.38Z"/><path class="cls-1" d="M413.22,238.2h-2.38V217.54h2.38Z"/><path class="cls-1" d="M420.35,238.2H418V217.54h2.38Z"/><path class="cls-1" d="M435.23,238.2h-2.38V222.91h2.09v3.57a7.72,7.72,0,0,1,2.22-3.27,4,4,0,0,1,2.28-.75,9.25,9.25,0,0,1,.93.06v2.27h-.48a4.19,4.19,0,0,0-3.27,1.47,5.94,5.94,0,0,0-1.39,3.86Z"/><path class="cls-1" d="M455.1,238.2H453v-2.92q-1.63,3.34-4.86,3.34a4.59,4.59,0,0,1-3.68-1.54,6.49,6.49,0,0,1-1.34-4.4v-9.77h2.38v9.76a4.12,4.12,0,0,0,.94,3.13,3.05,3.05,0,0,0,2.08.86,3.5,3.5,0,0,0,2.08-.66,5,5,0,0,0,1.56-1.85,5.69,5.69,0,0,0,.62-2.63v-8.61h2.37Z"/><path class="cls-1" d="M457.8,234.23l2.27-.47c.5,1.93,2.1,2.9,4.78,2.9a4.54,4.54,0,0,0,2.51-.67,2.1,2.1,0,0,0,1-1.87c0-1.2-.87-2-2.62-2.29l-3.22-.61a5.81,5.81,0,0,1-3-1.42,3.67,3.67,0,0,1-1.12-2.8,4.07,4.07,0,0,1,1.53-3.22,6.17,6.17,0,0,1,4.11-1.29c3.32,0,5.37,1.29,6.15,3.89l-2.18.47a3.72,3.72,0,0,0-3.86-2.39,4.31,4.31,0,0,0-2.38.59,1.88,1.88,0,0,0-.94,1.67c0,1.13.8,1.84,2.38,2.13l3,.54q4.68.86,4.68,4.53a4.06,4.06,0,0,1-1.74,3.41,7.61,7.61,0,0,1-4.63,1.29Q459.08,238.62,457.8,234.23Z"/><path class="cls-1" d="M481.17,236.58v1.88a17.05,17.05,0,0,1-2.18.16q-4.44,0-4.44-4.63v-9.22h-2.71v-1.86h2.71l.11-3.84,2.21-.22v4.06h3.42v1.86h-3.42v9.61a2.13,2.13,0,0,0,2.45,2.37A11.87,11.87,0,0,0,481.17,236.58Z"/><path class="cls-1" d="M495.82,238.2h-2.23v-9.82a4,4,0,0,0-.92-3,3.17,3.17,0,0,0-2.24-.86,3.87,3.87,0,0,0-3.05,1.45,5.74,5.74,0,0,0-1.23,3.83v8.39h-2.38V222.91H486v2.82q1.86-3.24,4.83-3.24a4.76,4.76,0,0,1,2.91.88,4.62,4.62,0,0,1,1.65,2,12,12,0,0,1,.45,4Z"/><path class="cls-1" d="M503,217.54v2.65h-2.55v-2.65Zm-.07,5.37V238.2h-2.38V222.91Z"/><path class="cls-1" d="M519.74,238.2h-2.23v-9.82a4,4,0,0,0-.92-3,3.2,3.2,0,0,0-2.24-.86A3.87,3.87,0,0,0,511.3,226a5.69,5.69,0,0,0-1.24,3.83v8.39h-2.37V222.91h2.21v2.82q1.86-3.24,4.83-3.24a4.88,4.88,0,0,1,4.56,2.87,12,12,0,0,1,.45,4Z"/><path class="cls-1" d="M537,220.52v1.89a4.31,4.31,0,0,0-2.19.38,2,2,0,0,0-.73,1.36,5.56,5.56,0,0,1,1.46,3.7,4.75,4.75,0,0,1-1.59,3.58,6,6,0,0,1-4.29,1.5,5.26,5.26,0,0,1-1-.09,8,8,0,0,0-1-.17,1.85,1.85,0,0,0-1,.41,1.2,1.2,0,0,0-.57,1,1.12,1.12,0,0,0,.83,1.18,17.47,17.47,0,0,0,3.92.35,21.78,21.78,0,0,1,3.87.36,3.91,3.91,0,0,1,2.11,1.24,3.4,3.4,0,0,1,.86,2.35q0,4.38-7.69,4.38a10,10,0,0,1-5.32-1.1,3.37,3.37,0,0,1-1.67-2.93,3.07,3.07,0,0,1,2.33-3.06,2.9,2.9,0,0,1-1.5-2.47,3,3,0,0,1,2.12-2.71,5,5,0,0,1-2-4,4.68,4.68,0,0,1,1.69-3.72,6.13,6.13,0,0,1,4.14-1.45,7.43,7.43,0,0,1,3.13.65,3,3,0,0,1,1-2.08,4.46,4.46,0,0,1,2.51-.57Zm-10.11,17.06a2.29,2.29,0,0,0-1.67,2.1,2,2,0,0,0,1.37,1.81,8.2,8.2,0,0,0,3.49.65,11.14,11.14,0,0,0,3.6-.56c1.09-.37,1.64-1,1.64-1.87a1.53,1.53,0,0,0-.49-1.16,2.37,2.37,0,0,0-1.32-.58c-.56-.08-1.54-.14-2.93-.18Q528.06,237.73,526.87,237.58Zm2.84-6.46a3.4,3.4,0,0,0,2.47-.93,3.43,3.43,0,0,0-2.44-5.86,3.56,3.56,0,0,0-2.39.9,3.63,3.63,0,0,0-.11,5A3.4,3.4,0,0,0,529.71,231.12Z"/><path class="cls-1" d="M549.92,217.54v2.65h-2.56v-2.65Zm-.08,5.37V238.2h-2.37V222.91Z"/><path class="cls-1" d="M560.27,234.23l2.27-.47c.51,1.93,2.1,2.9,4.79,2.9a4.58,4.58,0,0,0,2.51-.67,2.12,2.12,0,0,0,1-1.87c0-1.2-.88-2-2.62-2.29l-3.23-.61a5.85,5.85,0,0,1-3-1.42,3.7,3.7,0,0,1-1.12-2.8,4.07,4.07,0,0,1,1.53-3.22,6.18,6.18,0,0,1,4.12-1.29c3.32,0,5.37,1.29,6.14,3.89l-2.18.47a3.71,3.71,0,0,0-3.86-2.39,4.33,4.33,0,0,0-2.38.59,1.89,1.89,0,0,0-.93,1.67c0,1.13.79,1.84,2.38,2.13l3,.54q4.68.86,4.68,4.53a4,4,0,0,1-1.75,3.41,7.59,7.59,0,0,1-4.63,1.29Q561.56,238.62,560.27,234.23Z"/><path class="cls-1" d="M589.33,238.2h-2.46l-4.47-8.54-3.31,3.82v4.72h-2.38V217.54h2.38v13.24l7.1-7.87h2.54L584,228.28Z"/><path class="cls-1" d="M602.73,222.91,596.61,240q-1.33,3.69-4.26,3.69a7.67,7.67,0,0,1-2.05-.32V241.5a7.4,7.4,0,0,0,1.59.21,2.84,2.84,0,0,0,1.9-.65,7.28,7.28,0,0,0,1.53-3.17l-5.29-15h2.41l4.11,11.49,4.18-11.49Z"/><path class="cls-1" d="M614.76,233.64l2.21.46a6.24,6.24,0,0,1-2.36,3.24,6.78,6.78,0,0,1-4.13,1.28,6.42,6.42,0,0,1-5.07-2.2,9.62,9.62,0,0,1,.07-11.68,6.52,6.52,0,0,1,5.06-2.25,6.1,6.1,0,0,1,4.82,2.07q1.83,2.07,1.87,6.21H606.12c0,2.31.49,3.87,1.45,4.67a4.75,4.75,0,0,0,3.08,1.22A4.2,4.2,0,0,0,614.76,233.64Zm-.13-4.64a6.49,6.49,0,0,0-.43-2.29,3.82,3.82,0,0,0-1.33-1.7,3.64,3.64,0,0,0-2.25-.71,4,4,0,0,0-3,1.28,5.23,5.23,0,0,0-1.38,3.42Z"/><path class="cls-1" d="M632.85,238.2h-2.22v-9.82a4,4,0,0,0-.92-3,3.21,3.21,0,0,0-2.25-.86,3.88,3.88,0,0,0-3.05,1.45,5.74,5.74,0,0,0-1.23,3.83v8.39H620.8V222.91H623v2.82q1.88-3.24,4.83-3.24a4.88,4.88,0,0,1,4.57,2.87,12.39,12.39,0,0,1,.44,4Z"/></svg>