<svg id="Layer_1" data-name="Layer 1" xmlns="http://www.w3.org/2000/svg" viewBox="0 0 980 300"><defs><style>.cls-1{fill:#fff;}</style></defs><title>text</title><path class="cls-1" d="M431.09,142V113.34h11.34q4.27,0,6.35,2.1a6.72,6.72,0,0,1,2.07,4.87c0,3.24-1.7,5.39-5.08,6.46a7.74,7.74,0,0,1,4.49,2.77,7.43,7.43,0,0,1,1.47,4.52,7.69,7.69,0,0,1-2.28,5.66q-2.28,2.28-7,2.28Zm3.46-16.38h6.24q3.88,0,5.19-1.48a5.11,5.11,0,0,0,1.3-3.47,4,4,0,0,0-1.4-3.19,6.2,6.2,0,0,0-4.17-1.22h-7.16Zm0,13.23h7.69a6.35,6.35,0,0,0,4.35-1.36,4.54,4.54,0,0,0,1.53-3.55,6.06,6.06,0,0,0-.69-2.85,5,5,0,0,0-2-2,7.75,7.75,0,0,0-3.76-.72h-7.16Z"/><path class="cls-1" d="M460.09,142h-3.3V113.34h3.3Z"/><path class="cls-1" d="M470.08,113.34V117h-3.55v-3.67Zm-.1,7.45V142h-3.3V120.79Z"/><path class="cls-1" d="M488.89,142H487.3V113.34h3.29v11c1.52-2.74,3.6-4.11,6.26-4.11a7.73,7.73,0,0,1,6.12,2.88q2.47,2.86,2.47,8.36a12.73,12.73,0,0,1-2.43,7.93,7.54,7.54,0,0,1-6.31,3.21,7.26,7.26,0,0,1-6.63-4.1Zm1.7-8.31a6.52,6.52,0,0,0,2,4.74,5.83,5.83,0,0,0,3.76,1.47,4.77,4.77,0,0,0,4.07-2.19,10.2,10.2,0,0,0,1.54-6,12,12,0,0,0-1.49-6.44,4.68,4.68,0,0,0-4.14-2.34,5.21,5.21,0,0,0-3.76,1.66,7.15,7.15,0,0,0-2,4.32Z"/><path class="cls-1" d="M524.4,135.68l3.06.63a8.67,8.67,0,0,1-3.27,4.5,9.52,9.52,0,0,1-5.73,1.78,8.92,8.92,0,0,1-7-3.06,13.32,13.32,0,0,1,.11-16.2,9,9,0,0,1,7-3.12,8.5,8.5,0,0,1,6.69,2.87c1.68,1.92,2.55,4.79,2.59,8.61H512.41q0,4.81,2,6.49a6.59,6.59,0,0,0,4.27,1.68Q522.74,139.86,524.4,135.68Zm-.19-6.45a9.41,9.41,0,0,0-.59-3.17,5.38,5.38,0,0,0-1.85-2.36,5.07,5.07,0,0,0-3.13-1,5.56,5.56,0,0,0-4.16,1.76,7.37,7.37,0,0,0-1.93,4.74Z"/><path class="cls-1" d="M529.92,136.5l3.15-.65q1,4,6.63,4a6.35,6.35,0,0,0,3.49-.92,3,3,0,0,0,1.43-2.6c0-1.67-1.22-2.72-3.64-3.17l-4.47-.85a8.21,8.21,0,0,1-4.18-2,5.13,5.13,0,0,1-1.55-3.89A5.64,5.64,0,0,1,532.9,122a8.53,8.53,0,0,1,5.71-1.79q6.92,0,8.53,5.39l-3,.65q-1.3-3.31-5.35-3.31a6,6,0,0,0-3.31.82,2.63,2.63,0,0,0-1.29,2.32c0,1.57,1.1,2.55,3.3,3l4.13.74q6.49,1.18,6.49,6.29a5.61,5.61,0,0,1-2.41,4.72,10.52,10.52,0,0,1-6.43,1.8Q531.71,142.59,529.92,136.5Z"/><path class="cls-1" d="M562.34,139.75v2.61a24.14,24.14,0,0,1-3,.23q-6.15,0-6.15-6.43V123.38H549.4v-2.59h3.76l.15-5.33,3.06-.29v5.62h4.75v2.59h-4.75V136.7q0,3.28,3.41,3.28A15.63,15.63,0,0,0,562.34,139.75Z"/><path class="cls-1" d="M580,149.16H576.7V120.79h3v4.12c1.5-3.14,3.72-4.7,6.69-4.7a7.16,7.16,0,0,1,6.06,3.14,13.11,13.11,0,0,1,2.3,8q0,5.19-2.37,8.24a7.39,7.39,0,0,1-6.09,3.05,7,7,0,0,1-6.28-3.8Zm0-20.83v6a6.36,6.36,0,0,0,2,4,5.29,5.29,0,0,0,3.59,1.57,5,5,0,0,0,3.83-1.89c1.12-1.26,1.67-3.44,1.67-6.53a10.71,10.71,0,0,0-1.51-6.18,4.67,4.67,0,0,0-4-2.18,4.93,4.93,0,0,0-3.54,1.54A7.48,7.48,0,0,0,580,128.33Z"/><path class="cls-1" d="M616.25,142H613c-.12-.67-.25-1.95-.38-3.82a7.63,7.63,0,0,1-7.43,4.41,7.46,7.46,0,0,1-5.48-1.89,6.2,6.2,0,0,1-1.91-4.55,6.39,6.39,0,0,1,2.73-5.29q2.73-2.07,9.28-2.07c.59,0,1.52,0,2.81.09a12.22,12.22,0,0,0-.39-3.65,3.26,3.26,0,0,0-1.64-1.79,7,7,0,0,0-3.32-.67c-3.35,0-5.29,1.27-5.84,3.82l-3-.53q1.11-5.85,9.36-5.85c2.93,0,5,.64,6.23,1.94s1.83,3.54,1.83,6.73v9A18.2,18.2,0,0,0,616.25,142Zm-3.63-10.6c-1.34-.09-2.36-.13-3.06-.13a12,12,0,0,0-6.07,1.28,4.12,4.12,0,0,0-2.16,3.75,3.48,3.48,0,0,0,1.16,2.65,4.75,4.75,0,0,0,3.37,1.1,6.24,6.24,0,0,0,4.9-2.17,7.45,7.45,0,0,0,1.93-5.09C612.69,132.39,612.66,131.93,612.62,131.4Zm-1.38-17.24a3.51,3.51,0,0,1-1.06,2.55,3.47,3.47,0,0,1-2.55,1.06A3.59,3.59,0,0,1,605,116.7a3.45,3.45,0,0,1-1.09-2.56,3.51,3.51,0,0,1,1.08-2.56,3.63,3.63,0,0,1,2.68-1.1,3.37,3.37,0,0,1,2.47,1.09A3.59,3.59,0,0,1,611.24,114.16Zm-1.75,0a1.9,1.9,0,0,0-.54-1.36,1.72,1.72,0,0,0-1.24-.56,2,2,0,0,0-1.46.56,1.84,1.84,0,0,0-.56,1.32,1.81,1.81,0,0,0,.57,1.35,1.86,1.86,0,0,0,1.37.57,1.88,1.88,0,0,0,1.86-1.88Z"/><path class="cls-1" d="M447.49,193.6h-3v-4q-2.26,4.63-6.75,4.64a6.41,6.41,0,0,1-5.11-2.15A9,9,0,0,1,430.8,186V172.39h3.29v13.55c0,2.1.44,3.54,1.32,4.33a4.2,4.2,0,0,0,2.88,1.19,4.93,4.93,0,0,0,2.89-.9,6.93,6.93,0,0,0,2.15-2.58,7.84,7.84,0,0,0,.86-3.64v-12h3.3Z"/><path class="cls-1" d="M470.79,193.6h-3.08V180c0-2-.43-3.33-1.28-4.13a4.39,4.39,0,0,0-3.11-1.2,5.32,5.32,0,0,0-4.23,2,7.92,7.92,0,0,0-1.71,5.31V193.6h-3.3V172.39h3.07v3.91c1.72-3,4-4.49,6.69-4.49a6.71,6.71,0,0,1,4.05,1.22,6.47,6.47,0,0,1,2.28,2.77,16.57,16.57,0,0,1,.62,5.54Z"/><path class="cls-1" d="M480.79,164.94v3.67h-3.55v-3.67Zm-.11,7.45V193.6h-3.29V172.39Z"/><path class="cls-1" d="M502.79,172.39l-7.33,21.21h-3.4l-7.6-21.21h3.66L494,189.63l5.83-17.24Z"/><path class="cls-1" d="M520,187.28l3.06.63a8.67,8.67,0,0,1-3.27,4.5,9.52,9.52,0,0,1-5.73,1.78,8.92,8.92,0,0,1-7-3.06,13.32,13.32,0,0,1,.11-16.2,9,9,0,0,1,7-3.12,8.5,8.5,0,0,1,6.69,2.87c1.68,1.92,2.55,4.79,2.59,8.61H508q0,4.82,2,6.49a6.59,6.59,0,0,0,4.27,1.68Q518.31,191.46,520,187.28Zm-.19-6.45a9.41,9.41,0,0,0-.59-3.17,5.38,5.38,0,0,0-1.85-2.36,5.07,5.07,0,0,0-3.13-1,5.56,5.56,0,0,0-4.16,1.76,7.26,7.26,0,0,0-1.92,4.74Z"/><path class="cls-1" d="M531.64,193.6h-3.3V172.39h2.9v5c1-2.34,2-3.85,3.08-4.55a5.62,5.62,0,0,1,3.16-1,12.13,12.13,0,0,1,1.3.09V175h-.67a5.84,5.84,0,0,0-4.54,2,8.29,8.29,0,0,0-1.93,5.36Z"/><path class="cls-1" d="M539.91,188.1l3.15-.65q1.05,4,6.64,4a6.31,6.31,0,0,0,3.48-.92,3,3,0,0,0,1.43-2.6c0-1.67-1.21-2.72-3.63-3.17l-4.47-.85a8.09,8.09,0,0,1-4.18-2,5.1,5.1,0,0,1-1.56-3.89,5.64,5.64,0,0,1,2.12-4.46,8.56,8.56,0,0,1,5.72-1.79q6.9,0,8.52,5.39l-3,.65q-1.3-3.32-5.36-3.31a6,6,0,0,0-3.3.82,2.61,2.61,0,0,0-1.3,2.32c0,1.57,1.1,2.55,3.3,3l4.14.74q6.48,1.19,6.48,6.29a5.61,5.61,0,0,1-2.41,4.72,10.49,10.49,0,0,1-6.42,1.8Q541.7,194.19,539.91,188.1Z"/><path class="cls-1" d="M576.72,187.28l3.07.63a8.74,8.74,0,0,1-3.28,4.5,9.52,9.52,0,0,1-5.73,1.78,8.94,8.94,0,0,1-7-3.06,13.36,13.36,0,0,1,.11-16.2,9,9,0,0,1,7-3.12,8.5,8.5,0,0,1,6.69,2.87c1.68,1.92,2.55,4.79,2.59,8.61H564.73q0,4.82,2,6.49a6.55,6.55,0,0,0,4.26,1.68Q575.06,191.46,576.72,187.28Zm-.19-6.45a9.17,9.17,0,0,0-.59-3.17,5.38,5.38,0,0,0-1.85-2.36,5,5,0,0,0-3.12-1,5.57,5.57,0,0,0-4.17,1.76,7.31,7.31,0,0,0-1.92,4.74Z"/><path class="cls-1" d="M588.39,193.6H585.1V164.94h3.29Z"/><path class="cls-1" d="M598.28,193.6H595V164.94h3.29Z"/><path class="cls-1" d="M632.32,193.6h-3v-4q-2.26,4.63-6.75,4.64a6.41,6.41,0,0,1-5.11-2.15,9,9,0,0,1-1.85-6.09V172.39h3.29v13.55c0,2.1.44,3.54,1.31,4.33a4.24,4.24,0,0,0,2.89,1.19,5,5,0,0,0,2.89-.9,6.93,6.93,0,0,0,2.15-2.58,7.84,7.84,0,0,0,.86-3.64v-12h3.3Z"/><path class="cls-1" d="M648.53,191.35V194a24.28,24.28,0,0,1-3,.23q-6.15,0-6.15-6.43V175h-3.76v-2.59h3.76l.15-5.33,3.06-.29v5.62h4.75V175h-4.75V188.3c0,2.19,1.14,3.28,3.4,3.28A15.65,15.65,0,0,0,648.53,191.35Z"/><path class="cls-1" d="M660.94,172.39V175h-5V193.6h-3.3V175H649v-2.59h3.61q.09-5.1,2-6.57a7.23,7.23,0,0,1,4.59-1.47,17.57,17.57,0,0,1,3,.3v2.62a8.28,8.28,0,0,0-2-.27,4.63,4.63,0,0,0-3.2.95c-.7.64-1,1.83-1,3.58v.86Z"/><path class="cls-1" d="M671.64,194.19a8,8,0,0,1-6.81-3.24,12.94,12.94,0,0,1-2.45-8,11.6,11.6,0,0,1,2.75-8.09,8.91,8.91,0,0,1,6.85-3A8.38,8.38,0,0,1,678.9,175a12.41,12.41,0,0,1,2.53,7.95,11.93,11.93,0,0,1-2.73,8.11A8.93,8.93,0,0,1,671.64,194.19Zm.25-2.73a5.26,5.26,0,0,0,4.23-2.08c1.13-1.39,1.7-3.54,1.7-6.47s-.6-5.07-1.79-6.39a5.46,5.46,0,0,0-4.18-2,5.22,5.22,0,0,0-4.15,2c-1.14,1.34-1.71,3.45-1.71,6.35q0,4.61,1.71,6.58A5.29,5.29,0,0,0,671.89,191.46Z"/><path class="cls-1" d="M689.68,193.6h-3.3V172.39h2.9v5c1-2.34,2.05-3.85,3.08-4.55a5.59,5.59,0,0,1,3.16-1,12.13,12.13,0,0,1,1.3.09V175h-.68a5.82,5.82,0,0,0-4.53,2,8.29,8.29,0,0,0-1.93,5.36Z"/><path class="cls-1" d="M729,193.6h-3.21V180.41a12.13,12.13,0,0,0-.29-3,3.6,3.6,0,0,0-1.37-1.87,3.89,3.89,0,0,0-2.46-.85,5.22,5.22,0,0,0-3.64,1.73q-1.75,1.74-1.75,5.28V193.6h-3.19v-14c0-1.86-.45-3.18-1.34-3.95a4.22,4.22,0,0,0-2.8-1.15,4.68,4.68,0,0,0-3.65,1.8,6.77,6.77,0,0,0-1.56,4.58V193.6h-3.15V172.39h2.84v4.08q2.37-4.66,6.53-4.66a5.45,5.45,0,0,1,3.88,1.49,6.78,6.78,0,0,1,2.06,3.59q2.19-5.08,6.7-5.08a6.07,6.07,0,0,1,3.79,1.24,5.7,5.7,0,0,1,2.12,2.84,16.11,16.11,0,0,1,.49,4.52Z"/><path class="cls-1" d="M739,164.94v3.67h-3.55v-3.67Zm-.11,7.45V193.6h-3.3V172.39Z"/><path class="cls-1" d="M762.14,193.6h-3.09V180c0-2-.43-3.33-1.28-4.13a4.39,4.39,0,0,0-3.11-1.2,5.32,5.32,0,0,0-4.23,2,7.92,7.92,0,0,0-1.71,5.31V193.6h-3.3V172.39h3.07v3.91c1.72-3,4-4.49,6.7-4.49a6.68,6.68,0,0,1,4,1.22,6.57,6.57,0,0,1,2.29,2.77,16.84,16.84,0,0,1,.62,5.54Z"/><path class="cls-1" d="M786.05,169.08v2.62a5.9,5.9,0,0,0-3,.53,2.79,2.79,0,0,0-1,1.89,7.64,7.64,0,0,1,2,5.12,6.56,6.56,0,0,1-2.22,5,8.33,8.33,0,0,1-6,2.08,7.56,7.56,0,0,1-1.45-.12,9.53,9.53,0,0,0-1.45-.23,2.51,2.51,0,0,0-1.36.55,1.67,1.67,0,0,0-.8,1.44,1.56,1.56,0,0,0,1.15,1.64,25.26,25.26,0,0,0,5.44.48,30.56,30.56,0,0,1,5.36.5,5.38,5.38,0,0,1,2.93,1.72,4.69,4.69,0,0,1,1.2,3.26q0,6.08-10.67,6.07-5.06,0-7.38-1.52a4.69,4.69,0,0,1-2.32-4.07,4.27,4.27,0,0,1,3.24-4.25,4,4,0,0,1-2.08-3.42c0-1.63,1-2.89,2.94-3.75a6.94,6.94,0,0,1-2.75-5.61,6.47,6.47,0,0,1,2.35-5.16,8.53,8.53,0,0,1,5.73-2,10.26,10.26,0,0,1,4.35.9,4,4,0,0,1,1.46-2.88,6.11,6.11,0,0,1,3.47-.8Zm-14,23.66c-1.55.67-2.32,1.64-2.32,2.92a2.77,2.77,0,0,0,1.91,2.51,11.47,11.47,0,0,0,4.84.89,15.5,15.5,0,0,0,5-.77c1.51-.51,2.27-1.37,2.27-2.59a2.11,2.11,0,0,0-.67-1.62,3.28,3.28,0,0,0-1.84-.79,39.55,39.55,0,0,0-4.06-.26C774.84,193,773.13,192.88,772,192.74Zm3.94-9a4.69,4.69,0,0,0,3.42-1.29,4.44,4.44,0,0,0,1.33-3.35,4.63,4.63,0,0,0-4.71-4.76,4.88,4.88,0,0,0-3.31,1.25,5,5,0,0,0-.15,6.88A4.68,4.68,0,0,0,776,183.77Z"/></svg>