<svg id="Layer_1" data-name="Layer 1" xmlns="http://www.w3.org/2000/svg" viewBox="0 0 980 300"><defs><style>.cls-1{fill:#fff;}</style></defs><title>text</title><path class="cls-1" d="M318.78,125.73h7.48c5.36,0,8.95,1.81,8.95,7.14,0,5.1-3.66,7.51-8.95,7.51h-4.37V150h-3.11Zm7.07,12.13c4.25,0,6.29-1.55,6.29-5s-2.11-4.66-6.29-4.66h-4v9.65Z"/><path class="cls-1" d="M345.83,131.57c4.4,0,8.33,3.45,8.33,9.48s-3.93,9.4-8.33,9.4-8.33-3.45-8.33-9.4S341.43,131.57,345.83,131.57Zm0,16.36c3.11,0,5.18-2.78,5.18-6.88s-2.07-7-5.18-7-5.18,2.81-5.18,7S342.76,147.93,345.83,147.93Z"/><path class="cls-1" d="M356.6,132h3.1l2.67,10.4c.41,1.7.74,3.33,1.07,5h.15c.41-1.66.78-3.33,1.22-5l2.78-10.4h3l2.81,10.4c.44,1.7.85,3.33,1.26,5h.14c.41-1.66.74-3.29,1.11-5L378.5,132h2.89l-4.81,18h-3.7l-2.59-9.66c-.45-1.7-.78-3.36-1.22-5.18h-.15c-.41,1.82-.78,3.52-1.26,5.22L365.14,150h-3.55Z"/><path class="cls-1" d="M391.89,131.57c4.59,0,7.18,3.3,7.18,8.44a10.14,10.14,0,0,1-.11,1.67H386.83c.22,3.88,2.55,6.32,6,6.32a8.16,8.16,0,0,0,4.48-1.4l1.07,2a10.7,10.7,0,0,1-5.92,1.86c-4.81,0-8.62-3.52-8.62-9.4S387.79,131.57,391.89,131.57Zm4.52,8.11c0-3.67-1.63-5.7-4.44-5.7-2.52,0-4.81,2.07-5.18,5.7Z"/><path class="cls-1" d="M403.51,123.66h3V146.6c0,1,.4,1.33.85,1.33a2.66,2.66,0,0,0,.66-.07l.41,2.29a4.18,4.18,0,0,1-1.74.3c-2.29,0-3.22-1.45-3.22-4.07Z"/><path class="cls-1" d="M420.42,123.66h3v7.17l-.11,3.7c1.71-1.62,3.52-3,6-3,3.77,0,5.47,2.45,5.47,7V150h-3V139c0-3.37-1-4.81-3.4-4.81-1.85,0-3.11,1-4.93,2.78v13h-3Z"/><path class="cls-1" d="M450.72,138.6c0-2.29-.77-4.51-3.7-4.51a9.65,9.65,0,0,0-5.36,1.92l-1.22-2.11a13.35,13.35,0,0,1,7.06-2.33c4.41,0,6.26,2.93,6.26,7.4v11h-2.52l-.26-2.14h-.07a9.82,9.82,0,0,1-6,2.59c-3,0-5.29-1.89-5.29-5.11C439.66,141.42,443.06,139.46,450.72,138.6ZM445.8,148c1.74,0,3.18-.85,4.92-2.4v-5c-6,.74-8.06,2.22-8.06,4.52C442.66,147.15,444,148,445.8,148Z"/><path class="cls-1" d="M459,145.93a8.08,8.08,0,0,0,5.29,2.15c2.37,0,3.55-1.26,3.55-2.82,0-1.85-2.14-2.66-4.1-3.4-2.56-.92-5.37-2.15-5.37-5.18s2.3-5.11,6.18-5.11a9,9,0,0,1,5.59,2l-1.44,1.92a6.74,6.74,0,0,0-4.11-1.59c-2.26,0-3.3,1.22-3.3,2.59,0,1.67,2,2.33,4,3.11,2.59,1,5.48,2,5.48,5.44,0,2.92-2.33,5.37-6.59,5.37a10.89,10.89,0,0,1-6.7-2.48Z"/><path class="cls-1" d="M482,145.93a8.06,8.06,0,0,0,5.29,2.15c2.37,0,3.55-1.26,3.55-2.82,0-1.85-2.15-2.66-4.11-3.4-2.55-.92-5.36-2.15-5.36-5.18s2.29-5.11,6.18-5.11a9,9,0,0,1,5.59,2l-1.45,1.92a6.69,6.69,0,0,0-4.11-1.59c-2.25,0-3.29,1.22-3.29,2.59,0,1.67,2,2.33,4,3.11,2.59,1,5.47,2,5.47,5.44,0,2.92-2.33,5.37-6.58,5.37a10.85,10.85,0,0,1-6.7-2.48Z"/><path class="cls-1" d="M498.49,134.5h-2.67v-2.3l2.82-.18.37-5h2.55v5h4.85v2.48h-4.85v10c0,2.22.7,3.48,2.77,3.48a6.34,6.34,0,0,0,2-.49l.59,2.3a11.2,11.2,0,0,1-3.33.67c-3.85,0-5.14-2.45-5.14-6Z"/><path class="cls-1" d="M520,138.6c0-2.29-.78-4.51-3.7-4.51a9.71,9.71,0,0,0-5.37,1.92l-1.22-2.11a13.36,13.36,0,0,1,7.07-2.33c4.4,0,6.25,2.93,6.25,7.4v11H520.5l-.25-2.14h-.08a9.82,9.82,0,0,1-6,2.59c-3,0-5.29-1.89-5.29-5.11C508.92,141.42,512.33,139.46,520,138.6Zm-4.93,9.4c1.74,0,3.19-.85,4.93-2.4v-5c-6,.74-8.07,2.22-8.07,4.52C511.92,147.15,513.29,148,515.06,148Z"/><path class="cls-1" d="M529.27,134.5h-2.66v-2.3l2.81-.18.37-5h2.55v5h4.85v2.48h-4.85v10c0,2.22.71,3.48,2.78,3.48a6.28,6.28,0,0,0,2-.49l.6,2.3a11.2,11.2,0,0,1-3.33.67c-3.85,0-5.15-2.45-5.15-6Z"/><path class="cls-1" d="M547.63,131.57c4.58,0,7.17,3.3,7.17,8.44a10.14,10.14,0,0,1-.11,1.67H542.56c.22,3.88,2.55,6.32,6,6.32a8.14,8.14,0,0,0,4.48-1.4l1.07,2a10.7,10.7,0,0,1-5.92,1.86c-4.81,0-8.62-3.52-8.62-9.4S543.52,131.57,547.63,131.57Zm4.51,8.11c0-3.67-1.63-5.7-4.44-5.7-2.52,0-4.81,2.07-5.18,5.7Z"/><path class="cls-1" d="M573.71,131.57c4.4,0,8.33,3.45,8.33,9.48s-3.93,9.4-8.33,9.4-8.33-3.45-8.33-9.4S569.31,131.57,573.71,131.57Zm0,16.36c3.11,0,5.18-2.78,5.18-6.88s-2.07-7-5.18-7-5.18,2.81-5.18,7S570.64,147.93,573.71,147.93Z"/><path class="cls-1" d="M594.87,126.13a5.13,5.13,0,0,0-2-.44c-1.7,0-2.52,1.19-2.52,3.48V132h3.81v2.48h-3.81V150h-3V134.5h-2.44v-2.3l2.44-.18v-2.85c0-3.66,1.66-6,5.25-6a8.21,8.21,0,0,1,3,.59Z"/><path class="cls-1" d="M605.57,134.5H602.9v-2.3l2.81-.18.37-5h2.56v5h4.84v2.48h-4.84v10c0,2.22.7,3.48,2.77,3.48a6.34,6.34,0,0,0,2-.49l.59,2.3a11.2,11.2,0,0,1-3.33.67c-3.85,0-5.14-2.45-5.14-6Z"/><path class="cls-1" d="M617.55,123.66h3v7.17l-.11,3.7c1.7-1.62,3.51-3,6-3,3.78,0,5.48,2.45,5.48,7V150h-3V139c0-3.37-1-4.81-3.4-4.81-1.85,0-3.11,1-4.92,2.78v13h-3Z"/><path class="cls-1" d="M644.42,131.57c4.58,0,7.17,3.3,7.17,8.44a10.14,10.14,0,0,1-.11,1.67H639.35c.22,3.88,2.55,6.32,6,6.32a8.14,8.14,0,0,0,4.48-1.4l1.07,2a10.7,10.7,0,0,1-5.92,1.86c-4.81,0-8.62-3.52-8.62-9.4S640.31,131.57,644.42,131.57Zm4.51,8.11c0-3.67-1.63-5.7-4.44-5.7-2.52,0-4.81,2.07-5.18,5.7Z"/><path class="cls-1" d="M673.68,138.6c0-2.29-.78-4.51-3.7-4.51a9.65,9.65,0,0,0-5.36,1.92l-1.23-2.11a13.42,13.42,0,0,1,7.07-2.33c4.41,0,6.26,2.93,6.26,7.4v11H674.2l-.26-2.14h-.07a9.82,9.82,0,0,1-6,2.59c-3,0-5.29-1.89-5.29-5.11C662.62,141.42,666,139.46,673.68,138.6Zm-4.92,9.4c1.74,0,3.18-.85,4.92-2.4v-5c-6,.74-8.06,2.22-8.06,4.52C665.62,147.15,667,148,668.76,148Z"/><path class="cls-1" d="M682.45,132H685l.26,3.25h.11c1.22-2.25,3.07-3.7,5.1-3.7a4.49,4.49,0,0,1,1.93.37l-.6,2.67a4.86,4.86,0,0,0-1.73-.3c-1.52,0-3.33,1.11-4.56,4.15V150h-3Z"/><path class="cls-1" d="M695.81,134.5h-2.67v-2.3L696,132l.37-5h2.56v5h4.84v2.48h-4.84v10c0,2.22.7,3.48,2.77,3.48a6.34,6.34,0,0,0,2-.49l.59,2.3a11.2,11.2,0,0,1-3.33.67c-3.85,0-5.14-2.45-5.14-6Z"/><path class="cls-1" d="M714.79,145.93a8.06,8.06,0,0,0,5.29,2.15c2.37,0,3.55-1.26,3.55-2.82,0-1.85-2.14-2.66-4.11-3.4-2.55-.92-5.36-2.15-5.36-5.18s2.29-5.11,6.18-5.11a9,9,0,0,1,5.59,2l-1.45,1.92a6.69,6.69,0,0,0-4.1-1.59c-2.26,0-3.3,1.22-3.3,2.59,0,1.67,2,2.33,4,3.11,2.59,1,5.47,2,5.47,5.44,0,2.92-2.33,5.37-6.58,5.37a10.87,10.87,0,0,1-6.7-2.48Z"/><path class="cls-1" d="M737.76,131.57c4.41,0,8.33,3.45,8.33,9.48s-3.92,9.4-8.33,9.4-8.32-3.45-8.32-9.4S733.36,131.57,737.76,131.57Zm0,16.36c3.11,0,5.18-2.78,5.18-6.88s-2.07-7-5.18-7-5.18,2.81-5.18,7S734.69,147.93,737.76,147.93Z"/><path class="cls-1" d="M769.29,149.78a11.2,11.2,0,0,1-3.33.67c-3.85,0-5.15-2.45-5.15-6V134.5h-6.43V150h-3V134.5H748.9v-2.3l2.44-.18v-2.85c0-3.66,1.67-6,5.26-6a8.15,8.15,0,0,1,3,.59l-.66,2.33a5.17,5.17,0,0,0-2-.44c-1.7,0-2.51,1.19-2.51,3.48V132H761l.37-5h2.52v5h4.88v2.48h-4.88v10c0,2.22.74,3.48,2.81,3.48a6.4,6.4,0,0,0,2-.49Z"/><path class="cls-1" d="M770.66,132h3.1l2.67,10.4c.41,1.7.74,3.33,1.07,5h.15c.41-1.66.78-3.33,1.22-5l2.78-10.4h3l2.81,10.4c.44,1.7.85,3.33,1.26,5h.15c.4-1.66.73-3.29,1.1-5l2.63-10.4h2.89l-4.81,18h-3.7l-2.59-9.66c-.45-1.7-.78-3.36-1.22-5.18H783c-.41,1.82-.78,3.52-1.26,5.22L779.2,150h-3.55Z"/><path class="cls-1" d="M809.17,138.6c0-2.29-.77-4.51-3.7-4.51a9.65,9.65,0,0,0-5.36,1.92l-1.22-2.11a13.35,13.35,0,0,1,7.06-2.33c4.41,0,6.26,2.93,6.26,7.4v11h-2.52l-.26-2.14h-.07a9.82,9.82,0,0,1-6,2.59c-3,0-5.29-1.89-5.29-5.11C798.11,141.42,801.51,139.46,809.17,138.6Zm-4.92,9.4c1.74,0,3.18-.85,4.92-2.4v-5c-6,.74-8.06,2.22-8.06,4.52C801.11,147.15,802.48,148,804.25,148Z"/><path class="cls-1" d="M817.94,132h2.52l.26,3.25h.11c1.22-2.25,3.07-3.7,5.1-3.7a4.46,4.46,0,0,1,1.93.37l-.59,2.67a5,5,0,0,0-1.74-.3c-1.52,0-3.33,1.11-4.55,4.15V150h-3Z"/><path class="cls-1" d="M837.14,131.57c4.59,0,7.18,3.3,7.18,8.44a10.14,10.14,0,0,1-.11,1.67H832.08c.22,3.88,2.55,6.32,6,6.32a8.16,8.16,0,0,0,4.48-1.4l1.07,2a10.7,10.7,0,0,1-5.92,1.86c-4.81,0-8.62-3.52-8.62-9.4S833,131.57,837.14,131.57Zm4.52,8.11c0-3.67-1.63-5.7-4.44-5.7-2.52,0-4.81,2.07-5.18,5.7Z"/><path class="cls-1" d="M856.75,134.5h-2.66v-2.3l2.81-.18.37-5h2.55v5h4.85v2.48h-4.85v10c0,2.22.71,3.48,2.78,3.48a6.28,6.28,0,0,0,2-.49l.6,2.3a11.2,11.2,0,0,1-3.33.67c-3.85,0-5.15-2.45-5.15-6Z"/><path class="cls-1" d="M875.37,131.57c4.4,0,8.32,3.45,8.32,9.48s-3.92,9.4-8.32,9.4S867,147,867,141.05,871,131.57,875.37,131.57Zm0,16.36c3.1,0,5.18-2.78,5.18-6.88s-2.08-7-5.18-7-5.18,2.81-5.18,7S872.29,147.93,875.37,147.93Z"/><path class="cls-1" d="M328.77,183c0-2.29-.77-4.51-3.7-4.51a9.65,9.65,0,0,0-5.36,1.92l-1.22-2.11a13.35,13.35,0,0,1,7.06-2.33c4.41,0,6.26,2.93,6.26,7.4v11h-2.52l-.26-2.15H329a9.76,9.76,0,0,1-6,2.59c-3,0-5.29-1.88-5.29-5.1C317.71,185.82,321.11,183.86,328.77,183Zm-4.92,9.4c1.74,0,3.18-.85,4.92-2.4v-5c-6,.74-8.06,2.22-8.06,4.52C320.71,191.55,322.08,192.4,323.85,192.4Z"/><path class="cls-1" d="M337.28,176.42h3.07v11c0,3.36,1,4.81,3.37,4.81,1.85,0,3.15-.93,4.85-3V176.42h3v18h-2.51l-.26-2.81h-.11c-1.67,2-3.45,3.25-5.92,3.25-3.82,0-5.52-2.44-5.52-7Z"/><path class="cls-1" d="M358.19,178.9h-2.67v-2.3l2.81-.18.37-5h2.56v5h4.84v2.48h-4.84v10c0,2.22.7,3.48,2.77,3.48a6.34,6.34,0,0,0,2-.49l.59,2.3a11.2,11.2,0,0,1-3.33.66c-3.85,0-5.14-2.44-5.14-6Z"/><path class="cls-1" d="M376.8,176c4.4,0,8.32,3.45,8.32,9.48s-3.92,9.39-8.32,9.39-8.33-3.44-8.33-9.39S372.4,176,376.8,176Zm0,16.36c3.11,0,5.18-2.78,5.18-6.88s-2.07-7-5.18-7-5.18,2.81-5.18,7S373.73,192.33,376.8,192.33Z"/><path class="cls-1" d="M389.86,176.42h2.51l.26,2.59h.11c1.56-1.7,3.45-3,5.59-3a4.72,4.72,0,0,1,5,3.45c1.89-2,3.74-3.45,5.92-3.45,3.7,0,5.48,2.45,5.48,7v11.4h-3v-11c0-3.37-1.07-4.81-3.33-4.81-1.4,0-2.85.93-4.51,2.78v13h-3v-11c0-3.37-1.07-4.81-3.36-4.81q-2,0-4.52,2.78v13h-3Z"/><path class="cls-1" d="M430.71,183c0-2.29-.78-4.51-3.7-4.51a9.71,9.71,0,0,0-5.37,1.92l-1.22-2.11a13.39,13.39,0,0,1,7.07-2.33c4.4,0,6.25,2.93,6.25,7.4v11h-2.51l-.26-2.15h-.08a9.76,9.76,0,0,1-6,2.59c-3,0-5.29-1.88-5.29-5.1C419.64,185.82,423.05,183.86,430.71,183Zm-4.92,9.4c1.73,0,3.18-.85,4.92-2.4v-5c-6,.74-8.07,2.22-8.07,4.52C422.64,191.55,424,192.4,425.79,192.4Z"/><path class="cls-1" d="M440,178.9h-2.66v-2.3l2.81-.18.37-5h2.55v5h4.85v2.48h-4.85v10c0,2.22.71,3.48,2.78,3.48a6.4,6.4,0,0,0,2-.49l.59,2.3a11.2,11.2,0,0,1-3.33.66c-3.85,0-5.15-2.44-5.15-6Z"/><path class="cls-1" d="M458.35,176c4.58,0,7.17,3.3,7.17,8.44a10.14,10.14,0,0,1-.11,1.67H453.28c.22,3.88,2.55,6.32,6,6.32a8.14,8.14,0,0,0,4.48-1.4l1.07,2a10.7,10.7,0,0,1-5.92,1.85c-4.81,0-8.62-3.51-8.62-9.39S454.24,176,458.35,176Zm4.51,8.11c0-3.67-1.63-5.7-4.44-5.7-2.52,0-4.81,2.07-5.18,5.7Z"/><path class="cls-1" d="M484.17,176c4.59,0,7.18,3.3,7.18,8.44a11.38,11.38,0,0,1-.11,1.67H479.1c.22,3.88,2.56,6.32,6,6.32a8.11,8.11,0,0,0,4.47-1.4l1.08,2a10.72,10.72,0,0,1-5.92,1.85c-4.81,0-8.63-3.51-8.63-9.39S480.06,176,484.17,176Zm4.52,8.11c0-3.67-1.63-5.7-4.44-5.7-2.52,0-4.82,2.07-5.19,5.7Z"/><path class="cls-1" d="M495.79,176.42h2.51l.26,2.59h.11c1.71-1.7,3.56-3,6-3,3.77,0,5.47,2.45,5.47,7v11.4h-3v-11c0-3.37-1-4.81-3.41-4.81-1.85,0-3.1,1-4.92,2.78v13h-3Z"/><path class="cls-1" d="M522.76,176c4.59,0,7.18,3.3,7.18,8.44a11.38,11.38,0,0,1-.11,1.67H517.69c.22,3.88,2.56,6.32,6,6.32a8.11,8.11,0,0,0,4.47-1.4l1.08,2a10.72,10.72,0,0,1-5.92,1.85c-4.81,0-8.63-3.51-8.63-9.39S518.65,176,522.76,176Zm4.52,8.11c0-3.67-1.63-5.7-4.45-5.7-2.51,0-4.81,2.07-5.18,5.7Z"/><path class="cls-1" d="M534.38,176.42h2.51l.26,3.25h.11c1.23-2.25,3.07-3.7,5.11-3.7a4.42,4.42,0,0,1,1.92.37L543.7,179a4.91,4.91,0,0,0-1.74-.3c-1.51,0-3.33,1.11-4.55,4.15V194.4h-3Z"/><path class="cls-1" d="M548.1,193.77v-.15a3.32,3.32,0,0,1-1.59-2.92,4.22,4.22,0,0,1,2-3.33v-.15a6.37,6.37,0,0,1-2.33-4.84c0-3.93,3.11-6.41,6.78-6.41a7.19,7.19,0,0,1,2.55.45h6.25v2.33H558a5.21,5.21,0,0,1,1.48,3.7c0,3.85-2.92,6.25-6.58,6.25a6.29,6.29,0,0,1-2.71-.63,2.73,2.73,0,0,0-1.14,2.15c0,1.15.74,2,3.18,2h3.48c4.18,0,6.29,1.3,6.29,4.29,0,3.33-3.52,6.22-9.1,6.22-4.41,0-7.44-1.74-7.44-4.85A5.21,5.21,0,0,1,548.1,193.77Zm5.26,6.81c3.44,0,5.7-1.78,5.7-3.66,0-1.67-1.3-2.22-3.63-2.22h-3.11a8.87,8.87,0,0,1-2.33-.3,3.81,3.81,0,0,0-1.85,3C548.14,199.36,550.1,200.58,553.36,200.58Zm3.37-18.2c0-2.63-1.71-4.19-3.81-4.19s-3.82,1.56-3.82,4.19,1.74,4.29,3.82,4.29S556.73,185,556.73,182.38Z"/><path class="cls-1" d="M565.5,199.62c2,0,3.33-1.63,4.07-3.85l.4-1.33-7.21-18h3.14l3.67,10c.55,1.56,1.18,3.41,1.73,5.07h.15c.52-1.63,1-3.48,1.52-5.07l3.22-10h3l-6.77,19.46c-1.26,3.55-3.11,6.25-6.74,6.25a5.85,5.85,0,0,1-2.11-.37l.6-2.4A5.29,5.29,0,0,0,565.5,199.62Z"/><path class="cls-1" d="M600.28,183c0-2.29-.78-4.51-3.7-4.51a9.71,9.71,0,0,0-5.37,1.92L590,178.3a13.36,13.36,0,0,1,7.07-2.33c4.4,0,6.25,2.93,6.25,7.4v11h-2.52l-.26-2.15h-.07a9.76,9.76,0,0,1-6,2.59c-3,0-5.29-1.88-5.29-5.1C589.21,185.82,592.62,183.86,600.28,183Zm-4.93,9.4c1.74,0,3.19-.85,4.93-2.4v-5c-6,.74-8.07,2.22-8.07,4.52C592.21,191.55,593.58,192.4,595.35,192.4Z"/><path class="cls-1" d="M608.56,190.33a8.1,8.1,0,0,0,5.29,2.15c2.37,0,3.56-1.26,3.56-2.82,0-1.85-2.15-2.66-4.11-3.4-2.55-.92-5.37-2.15-5.37-5.18s2.3-5.11,6.18-5.11a9,9,0,0,1,5.59,2l-1.44,1.92a6.71,6.71,0,0,0-4.11-1.59c-2.26,0-3.29,1.22-3.29,2.59,0,1.67,2,2.33,4,3.11,2.59,1,5.48,2,5.48,5.44,0,2.92-2.33,5.36-6.59,5.36a10.83,10.83,0,0,1-6.69-2.47Z"/><path class="cls-1" d="M624.06,190.33a8.11,8.11,0,0,0,5.3,2.15c2.36,0,3.55-1.26,3.55-2.82,0-1.85-2.15-2.66-4.11-3.4-2.55-.92-5.36-2.15-5.36-5.18s2.29-5.11,6.18-5.11a9,9,0,0,1,5.58,2l-1.44,1.92a6.71,6.71,0,0,0-4.11-1.59c-2.25,0-3.29,1.22-3.29,2.59,0,1.67,2,2.33,4,3.11,2.59,1,5.47,2,5.47,5.44,0,2.92-2.33,5.36-6.58,5.36a10.84,10.84,0,0,1-6.7-2.47Z"/><path class="cls-1" d="M646.78,176c4.59,0,7.18,3.3,7.18,8.44a11.38,11.38,0,0,1-.11,1.67H641.71c.23,3.88,2.56,6.32,6,6.32a8.16,8.16,0,0,0,4.48-1.4l1.07,2a10.7,10.7,0,0,1-5.92,1.85c-4.81,0-8.62-3.51-8.62-9.39S642.68,176,646.78,176Zm4.52,8.11c0-3.67-1.63-5.7-4.44-5.7-2.52,0-4.81,2.07-5.18,5.7Z"/><path class="cls-1" d="M658.4,178.9h-2.66v-2.3l2.81-.18.37-5h2.55v5h4.85v2.48h-4.85v10c0,2.22.7,3.48,2.78,3.48a6.28,6.28,0,0,0,2-.49l.59,2.3a11.13,11.13,0,0,1-3.33.66c-3.84,0-5.14-2.44-5.14-6Z"/><path class="cls-1" d="M684.86,176c4.4,0,8.32,3.45,8.32,9.48s-3.92,9.39-8.32,9.39-8.33-3.44-8.33-9.39S680.45,176,684.86,176Zm0,16.36c3.1,0,5.18-2.78,5.18-6.88s-2.08-7-5.18-7-5.18,2.81-5.18,7S681.78,192.33,684.86,192.33Z"/><path class="cls-1" d="M701,195.92V202h-3V176.42h2.51l.26,2.07h.11a9.32,9.32,0,0,1,5.74-2.52c4.62,0,7.1,3.59,7.1,9.18,0,6.11-3.66,9.69-7.77,9.69a8.29,8.29,0,0,1-5-2.07Zm4.4-3.63c3,0,5.15-2.7,5.15-7.14,0-4-1.33-6.62-4.74-6.62-1.52,0-3,.85-4.81,2.44v9.43A7.12,7.12,0,0,0,705.35,192.29Z"/><path class="cls-1" d="M719,178.9H716.3v-2.3l2.82-.18.37-5H722v5h4.85v2.48H722v10c0,2.22.7,3.48,2.78,3.48a6.35,6.35,0,0,0,2-.49l.59,2.3a11.2,11.2,0,0,1-3.33.66c-3.85,0-5.14-2.44-5.14-6Z"/><path class="cls-1" d="M730.4,170.76a2.12,2.12,0,1,1,2.11,2A2,2,0,0,1,730.4,170.76Zm.56,5.66h3v18h-3Z"/><path class="cls-1" d="M740.06,176.42h2.52l.25,2.59H743c1.55-1.7,3.44-3,5.58-3a4.72,4.72,0,0,1,5,3.45c1.89-2,3.74-3.45,5.92-3.45,3.7,0,5.48,2.45,5.48,7v11.4h-3v-11c0-3.37-1.07-4.81-3.33-4.81-1.4,0-2.85.93-4.51,2.78v13h-3v-11c0-3.37-1.07-4.81-3.36-4.81-1.33,0-2.85.93-4.52,2.78v13h-3Z"/><path class="cls-1" d="M770.18,170.76a2.11,2.11,0,1,1,2.11,2A2,2,0,0,1,770.18,170.76Zm.55,5.66h3v18h-3Z"/><path class="cls-1" d="M778,192.77l9.47-13.87H779v-2.48h12.29v1.63l-9.48,13.87h9.77v2.48H778Z"/><path class="cls-1" d="M804.88,183c0-2.29-.78-4.51-3.7-4.51a9.65,9.65,0,0,0-5.36,1.92l-1.23-2.11a13.42,13.42,0,0,1,7.07-2.33c4.41,0,6.26,2.93,6.26,7.4v11H805.4l-.26-2.15h-.07a9.76,9.76,0,0,1-6,2.59c-3,0-5.29-1.88-5.29-5.1C793.82,185.82,797.22,183.86,804.88,183ZM800,192.4c1.74,0,3.18-.85,4.92-2.4v-5c-6,.74-8.06,2.22-8.06,4.52C796.82,191.55,798.18,192.4,800,192.4Z"/><path class="cls-1" d="M814.17,178.9H811.5v-2.3l2.82-.18.37-5h2.55v5h4.85v2.48h-4.85v10c0,2.22.7,3.48,2.77,3.48a6.34,6.34,0,0,0,2-.49l.59,2.3a11.2,11.2,0,0,1-3.33.66c-3.85,0-5.14-2.44-5.14-6Z"/><path class="cls-1" d="M825.6,170.76a2.11,2.11,0,0,1,4.22,0,2.12,2.12,0,0,1-4.22,0Zm.56,5.66h3v18h-3Z"/><path class="cls-1" d="M842.25,176c4.4,0,8.33,3.45,8.33,9.48s-3.93,9.39-8.33,9.39-8.33-3.44-8.33-9.39S837.85,176,842.25,176Zm0,16.36c3.11,0,5.18-2.78,5.18-6.88s-2.07-7-5.18-7-5.18,2.81-5.18,7S839.18,192.33,842.25,192.33Z"/><path class="cls-1" d="M855.31,176.42h2.52l.26,2.59h.11c1.7-1.7,3.55-3,6-3,3.77,0,5.48,2.45,5.48,7v11.4h-3v-11c0-3.37-1-4.81-3.4-4.81-1.85,0-3.11,1-4.92,2.78v13h-3Z"/></svg>