<svg id="Layer_1" data-name="Layer 1" xmlns="http://www.w3.org/2000/svg" viewBox="0 0 980 300"><defs><style>.cls-1{fill:#fff;}</style></defs><title>text</title><path class="cls-1" d="M567.82,235.94a9.46,9.46,0,0,0,6.7,3c3.18,0,5.07-1.59,5.07-4s-1.78-3.25-4.07-4.29L572,229.2c-2.25-1-4.92-2.7-4.92-6.25s3.26-6.44,7.66-6.44a9.89,9.89,0,0,1,7.14,3l-1.63,2a7.79,7.79,0,0,0-5.51-2.3c-2.74,0-4.55,1.37-4.55,3.55,0,2.34,2.15,3.22,4,4l3.48,1.48c2.81,1.22,5,2.88,5,6.47,0,3.85-3.19,6.92-8.29,6.92a11.67,11.67,0,0,1-8.48-3.59Z"/><path class="cls-1" d="M593.83,222.8c4.59,0,7.18,3.29,7.18,8.44a9.93,9.93,0,0,1-.11,1.66H588.77c.22,3.89,2.55,6.33,6,6.33a8.09,8.09,0,0,0,4.48-1.41l1.07,2a10.7,10.7,0,0,1-5.92,1.85c-4.81,0-8.62-3.51-8.62-9.4S589.73,222.8,593.83,222.8Zm4.52,8.11c0-3.67-1.63-5.7-4.44-5.7-2.52,0-4.81,2.07-5.18,5.7Z"/><path class="cls-1" d="M612.19,222.8c4.58,0,7.18,3.29,7.18,8.44a9.83,9.83,0,0,1-.12,1.66H607.12c.22,3.89,2.55,6.33,6,6.33a8.07,8.07,0,0,0,4.48-1.41l1.07,2a10.7,10.7,0,0,1-5.92,1.85c-4.81,0-8.62-3.51-8.62-9.4S608.08,222.8,612.19,222.8Zm4.51,8.11c0-3.67-1.63-5.7-4.44-5.7-2.52,0-4.81,2.07-5.18,5.7Z"/><path class="cls-1" d="M631.28,214.88h3v7.18l-.11,3.7c1.7-1.63,3.51-3,6-3,3.78,0,5.48,2.44,5.48,7v11.4h-3v-11c0-3.37-1-4.81-3.41-4.81-1.85,0-3.11,1-4.92,2.77v13h-3Z"/><path class="cls-1" d="M658.4,222.8c4.4,0,8.32,3.44,8.32,9.47s-3.92,9.4-8.32,9.4-8.33-3.44-8.33-9.4S654,222.8,658.4,222.8Zm0,16.36c3.11,0,5.18-2.78,5.18-6.89s-2.07-7-5.18-7-5.18,2.81-5.18,7S655.33,239.16,658.4,239.16Z"/><path class="cls-1" d="M669.16,223.25h3.11l2.67,10.39c.4,1.71.74,3.33,1.07,5h.15c.4-1.67.78-3.33,1.22-5l2.77-10.39h3l2.82,10.39c.44,1.71.85,3.33,1.25,5h.15c.41-1.67.74-3.29,1.11-5l2.63-10.39H694l-4.81,18h-3.7l-2.59-9.66c-.45-1.7-.78-3.37-1.23-5.18h-.14c-.41,1.81-.78,3.52-1.26,5.22l-2.52,9.62h-3.55Z"/></svg>