<svg id="Layer_1" data-name="Layer 1" xmlns="http://www.w3.org/2000/svg" viewBox="0 0 980 300"><defs><style>.cls-1{fill:#fff;}</style></defs><title>text</title><path class="cls-1" d="M239.53,134.07V137H223.78V110.34h3.42v23.73Z"/><path class="cls-1" d="M256.13,131.12l2.85.59a8,8,0,0,1-3.05,4.18,8.82,8.82,0,0,1-5.33,1.66,8.28,8.28,0,0,1-6.54-2.85,12.41,12.41,0,0,1,.1-15.07,8.35,8.35,0,0,1,6.52-2.9,7.89,7.89,0,0,1,6.22,2.67c1.57,1.79,2.37,4.45,2.41,8H245q0,4.47,1.87,6a6.07,6.07,0,0,0,4,1.57Q254.59,135,256.13,131.12Zm-.18-6a8.55,8.55,0,0,0-.54-2.94,5.07,5.07,0,0,0-1.72-2.2,4.7,4.7,0,0,0-2.91-.91,5.21,5.21,0,0,0-3.88,1.64,6.8,6.8,0,0,0-1.79,4.41Z"/><path class="cls-1" d="M261.26,131.88l2.93-.6c.66,2.48,2.71,3.73,6.18,3.73a5.88,5.88,0,0,0,3.24-.86,2.73,2.73,0,0,0,1.33-2.42q0-2.32-3.38-2.95L267.4,128a7.66,7.66,0,0,1-3.89-1.84,4.75,4.75,0,0,1-1.44-3.61,5.19,5.19,0,0,1,2-4.15,7.9,7.9,0,0,1,5.31-1.67q6.42,0,7.93,5l-2.81.6c-.81-2.06-2.47-3.08-5-3.08a5.56,5.56,0,0,0-3.08.77,2.42,2.42,0,0,0-1.2,2.15c0,1.46,1,2.37,3.07,2.75l3.84.69q6,1.09,6,5.85a5.21,5.21,0,0,1-2.25,4.39,9.72,9.72,0,0,1-6,1.68Q262.92,137.55,261.26,131.88Z"/><path class="cls-1" d="M307.94,137h-3.06V125a13.81,13.81,0,0,0-.27-3.17,3.27,3.27,0,0,0-1.25-1.82,3.53,3.53,0,0,0-2.27-.77,4.92,4.92,0,0,0-4,1.93,7.89,7.89,0,0,0-1.59,5.17V137h-3.06V110.34h3.06v10.57q2.1-4.18,6-4.18a6.69,6.69,0,0,1,3.09.68,5.12,5.12,0,0,1,2.08,1.8,7.06,7.06,0,0,1,1,2.19,17.11,17.11,0,0,1,.26,3.63Z"/><path class="cls-1" d="M328.53,117.27,321.71,137h-3.16l-7.07-19.73h3.4l5.5,16,5.42-16Z"/><path class="cls-1" d="M338.59,137.55a7.52,7.52,0,0,1-6.34-3,12,12,0,0,1-2.27-7.47,10.8,10.8,0,0,1,2.55-7.53,8.25,8.25,0,0,1,6.37-2.81,7.77,7.77,0,0,1,6.44,3,11.5,11.5,0,0,1,2.35,7.4,11.07,11.07,0,0,1-2.54,7.53A8.29,8.29,0,0,1,338.59,137.55Zm.23-2.54a4.89,4.89,0,0,0,3.93-1.94q1.58-1.94,1.58-6t-1.66-6a5.08,5.08,0,0,0-3.89-1.84,4.88,4.88,0,0,0-3.86,1.86q-1.59,1.86-1.59,5.91,0,4.27,1.59,6.12A4.93,4.93,0,0,0,338.82,135Z"/><path class="cls-1" d="M355.37,137H352.3V117.27H355v4.61q1.42-3.25,2.86-4.23a5.2,5.2,0,0,1,2.94-1,10.22,10.22,0,0,1,1.21.08v2.92h-.63a5.42,5.42,0,0,0-4.22,1.9,7.63,7.63,0,0,0-1.79,5Z"/><path class="cls-1" d="M375,117.27v2.41h-4.69V137H367.2V119.68h-3.36v-2.41h3.36q.07-4.74,1.83-6.11a6.72,6.72,0,0,1,4.27-1.37,16,16,0,0,1,2.81.28v2.44a7.73,7.73,0,0,0-1.9-.26,4.27,4.27,0,0,0-3,.89c-.65.59-1,1.7-1,3.33v.8Z"/><path class="cls-1" d="M384.92,137.55a7.52,7.52,0,0,1-6.34-3,12,12,0,0,1-2.28-7.47,10.81,10.81,0,0,1,2.56-7.53,8.25,8.25,0,0,1,6.37-2.81,7.77,7.77,0,0,1,6.44,3,11.56,11.56,0,0,1,2.35,7.4,11.07,11.07,0,0,1-2.54,7.53A8.29,8.29,0,0,1,384.92,137.55Zm.23-2.54a4.9,4.9,0,0,0,3.93-1.94q1.57-1.94,1.58-6t-1.66-6a5.08,5.08,0,0,0-3.89-1.84,4.88,4.88,0,0,0-3.86,1.86q-1.59,1.86-1.59,5.91,0,4.27,1.59,6.12A4.93,4.93,0,0,0,385.15,135Z"/><path class="cls-1" d="M401.69,137h-3.06V117.27h2.69v4.61a10,10,0,0,1,2.86-4.23,5.24,5.24,0,0,1,2.94-1,10,10,0,0,1,1.21.08v2.92h-.62a5.42,5.42,0,0,0-4.22,1.9,7.69,7.69,0,0,0-1.8,5Z"/><path class="cls-1" d="M437.22,110.34V137h-2.77v-3.38a6.67,6.67,0,0,1-6.24,3.93,6.86,6.86,0,0,1-5.69-2.91,11.66,11.66,0,0,1-2.23-7.34,12.39,12.39,0,0,1,2.21-7.55,6.88,6.88,0,0,1,5.85-3,6.81,6.81,0,0,1,5.81,3.24v-9.63Zm-3.06,14.55a5.57,5.57,0,0,0-1.59-4.16,5.08,5.08,0,0,0-3.69-1.56,4.46,4.46,0,0,0-3.76,2,9.57,9.57,0,0,0-1.47,5.7,11.1,11.1,0,0,0,1.35,6,4.25,4.25,0,0,0,3.73,2.07,5,5,0,0,0,3.78-1.8,6,6,0,0,0,1.65-4.22Z"/><path class="cls-1" d="M456.38,131.12l2.85.59a8,8,0,0,1-3,4.18,8.83,8.83,0,0,1-5.34,1.66,8.29,8.29,0,0,1-6.54-2.85,10.85,10.85,0,0,1-2.5-7.46,11,11,0,0,1,2.6-7.61,8.37,8.37,0,0,1,6.52-2.9,7.89,7.89,0,0,1,6.22,2.67c1.57,1.79,2.38,4.45,2.42,8H445.23q0,4.47,1.87,6a6.09,6.09,0,0,0,4,1.57Q454.84,135,456.38,131.12Zm-.17-6a8.55,8.55,0,0,0-.55-2.94,5,5,0,0,0-1.72-2.2,4.7,4.7,0,0,0-2.91-.91,5.22,5.22,0,0,0-3.88,1.64,6.79,6.79,0,0,0-1.78,4.41Z"/><path class="cls-1" d="M472.92,134.91v2.42a22.38,22.38,0,0,1-2.81.22q-5.72,0-5.72-6V119.68h-3.5v-2.41h3.5l.14-5,2.85-.27v5.23h4.41v2.41h-4.41v12.39c0,2,1.05,3.05,3.16,3.05A15.26,15.26,0,0,0,472.92,134.91Z"/><path class="cls-1" d="M499.31,131.12l2.85.59a8,8,0,0,1-3,4.18,8.83,8.83,0,0,1-5.34,1.66,8.29,8.29,0,0,1-6.54-2.85,10.85,10.85,0,0,1-2.5-7.46,11,11,0,0,1,2.6-7.61,8.37,8.37,0,0,1,6.52-2.9,7.89,7.89,0,0,1,6.22,2.67c1.57,1.79,2.38,4.45,2.42,8H488.16q0,4.47,1.87,6a6.09,6.09,0,0,0,4,1.57Q497.77,135,499.31,131.12Zm-.17-6a8.55,8.55,0,0,0-.55-2.94,5,5,0,0,0-1.72-2.2,4.7,4.7,0,0,0-2.91-.91,5.22,5.22,0,0,0-3.88,1.64,6.79,6.79,0,0,0-1.78,4.41Z"/><path class="cls-1" d="M510.17,137H507.1V117.27h2.7v4.61q1.43-3.25,2.86-4.23a5.24,5.24,0,0,1,2.94-1,10.09,10.09,0,0,1,1.21.08v2.92h-.62a5.41,5.41,0,0,0-4.22,1.9,7.69,7.69,0,0,0-1.8,5Z"/><path class="cls-1" d="M531.77,137h-1.48V110.34h3.06v10.21q2.11-3.83,5.82-3.82a7.22,7.22,0,0,1,5.7,2.67c1.53,1.79,2.29,4.38,2.29,7.79a11.86,11.86,0,0,1-2.25,7.37,7,7,0,0,1-5.87,3,6.74,6.74,0,0,1-6.17-3.81Zm1.58-7.73a6,6,0,0,0,1.87,4.4,5.4,5.4,0,0,0,3.5,1.38,4.43,4.43,0,0,0,3.78-2,9.47,9.47,0,0,0,1.44-5.57,11,11,0,0,0-1.39-6,4.32,4.32,0,0,0-3.85-2.18,4.82,4.82,0,0,0-3.5,1.55,6.62,6.62,0,0,0-1.85,4Z"/><path class="cls-1" d="M567.2,137h-3c-.11-.63-.23-1.81-.35-3.56a7.1,7.1,0,0,1-6.91,4.11,7,7,0,0,1-5.1-1.76,5.78,5.78,0,0,1-1.78-4.23,6,6,0,0,1,2.54-4.92c1.7-1.28,4.57-1.93,8.64-1.93.54,0,1.42,0,2.61.08a11.43,11.43,0,0,0-.36-3.39,3,3,0,0,0-1.53-1.67,6.65,6.65,0,0,0-3.09-.62q-4.67,0-5.43,3.55l-2.83-.48q1-5.46,8.71-5.45,4.08,0,5.79,1.8c1.14,1.21,1.71,3.29,1.71,6.26v8.38A16.91,16.91,0,0,0,567.2,137Zm-3.38-9.86Q561.95,127,561,127a11.16,11.16,0,0,0-5.64,1.19,3.83,3.83,0,0,0-2,3.49,3.28,3.28,0,0,0,1.08,2.47,4.44,4.44,0,0,0,3.13,1,5.83,5.83,0,0,0,4.56-2,6.9,6.9,0,0,0,1.79-4.74Q563.88,127.88,563.82,127.14Zm-1.29-16a3.19,3.19,0,0,1-1,2.37,3.24,3.24,0,0,1-2.38,1,3.3,3.3,0,0,1-2.4-1,3.18,3.18,0,0,1-1-2.38,3.28,3.28,0,0,1,1-2.38,3.36,3.36,0,0,1,2.49-1,3.13,3.13,0,0,1,2.3,1A3.3,3.3,0,0,1,562.53,111.1Zm-1.62,0a1.78,1.78,0,0,0-.5-1.26,1.59,1.59,0,0,0-1.16-.53,1.8,1.8,0,0,0-1.35.53,1.73,1.73,0,0,0,0,2.48,1.72,1.72,0,0,0,1.26.53,1.65,1.65,0,0,0,1.24-.52A1.71,1.71,0,0,0,560.91,111.09Z"/><path class="cls-1" d="M588.33,110.34V137h-2.77v-3.38a6.67,6.67,0,0,1-6.24,3.93,6.87,6.87,0,0,1-5.69-2.91,11.66,11.66,0,0,1-2.23-7.34,12.46,12.46,0,0,1,2.21-7.55,6.89,6.89,0,0,1,5.86-3,6.8,6.8,0,0,1,5.8,3.24v-9.63Zm-3.06,14.55a5.6,5.6,0,0,0-1.58-4.16,5.11,5.11,0,0,0-3.69-1.56,4.44,4.44,0,0,0-3.76,2,9.5,9.5,0,0,0-1.48,5.7,11,11,0,0,0,1.36,6,4.22,4.22,0,0,0,3.72,2.07,5,5,0,0,0,3.79-1.8,6.07,6.07,0,0,0,1.64-4.22Z"/><path class="cls-1" d="M607.5,131.12l2.85.59a8,8,0,0,1-3.05,4.18,8.82,8.82,0,0,1-5.33,1.66,8.3,8.3,0,0,1-6.55-2.85,12.41,12.41,0,0,1,.1-15.07,8.37,8.37,0,0,1,6.53-2.9,7.9,7.9,0,0,1,6.22,2.67c1.56,1.79,2.37,4.45,2.41,8H596.34q0,4.47,1.88,6a6.07,6.07,0,0,0,4,1.57Q606,135,607.5,131.12Zm-.18-6a8.55,8.55,0,0,0-.55-2.94,5,5,0,0,0-1.72-2.2,4.66,4.66,0,0,0-2.91-.91,5.2,5.2,0,0,0-3.87,1.64,6.8,6.8,0,0,0-1.79,4.41Z"/><path class="cls-1" d="M639.74,117.27,632.92,137h-3.16l-7.07-19.73h3.4l5.5,16,5.42-16Z"/><path class="cls-1" d="M646.46,110.34v3.42h-3.3v-3.42Zm-.1,6.93V137H643.3V117.27Z"/><path class="cls-1" d="M668.76,137h-3.17l-5.77-11-4.28,4.92V137h-3.06V110.34h3.06v17.09l9.16-10.16H668l-6.16,6.93Z"/><path class="cls-1" d="M681.46,134.91v2.42a22.52,22.52,0,0,1-2.81.22q-5.73,0-5.73-6V119.68h-3.49v-2.41h3.49l.14-5,2.85-.27v5.23h4.42v2.41h-4.42v12.39c0,2,1.06,3.05,3.17,3.05A15.46,15.46,0,0,0,681.46,134.91Z"/><path class="cls-1" d="M688,110.34v3.42h-3.3v-3.42Zm-.09,6.93V137h-3.07V117.27Z"/><path class="cls-1" d="M710.11,114.19v2.44a5.48,5.48,0,0,0-2.82.49,2.57,2.57,0,0,0-.95,1.75,7.12,7.12,0,0,1,1.9,4.77,6.14,6.14,0,0,1-2.06,4.63,7.77,7.77,0,0,1-5.54,1.93,7.51,7.51,0,0,1-1.35-.11,8.86,8.86,0,0,0-1.35-.22,2.35,2.35,0,0,0-1.27.52,1.57,1.57,0,0,0-.74,1.34,1.45,1.45,0,0,0,1.08,1.52,23.88,23.88,0,0,0,5.06.45,28.16,28.16,0,0,1,5,.46,5,5,0,0,1,2.73,1.6,4.4,4.4,0,0,1,1.11,3q0,5.64-9.92,5.64-4.71,0-6.86-1.42a4.32,4.32,0,0,1-2.16-3.78,4,4,0,0,1,3-4,3.74,3.74,0,0,1-1.94-3.18q0-2.28,2.74-3.5a6.41,6.41,0,0,1-2.56-5.21,6,6,0,0,1,2.19-4.8,7.88,7.88,0,0,1,5.33-1.87,9.52,9.52,0,0,1,4,.84,3.81,3.81,0,0,1,1.36-2.68,5.71,5.71,0,0,1,3.23-.74C709.49,114.15,709.75,114.16,710.11,114.19Zm-13,22c-1.44.62-2.15,1.53-2.15,2.71a2.58,2.58,0,0,0,1.76,2.34,10.69,10.69,0,0,0,4.51.83,14.25,14.25,0,0,0,4.64-.72c1.41-.47,2.11-1.27,2.11-2.41a2,2,0,0,0-.62-1.5,3.06,3.06,0,0,0-1.71-.74,35.61,35.61,0,0,0-3.78-.24C699.68,136.42,698.09,136.33,697.07,136.2Zm3.67-8.34a4.36,4.36,0,0,0,3.18-1.2,4.17,4.17,0,0,0,1.23-3.12,4.31,4.31,0,0,0-4.37-4.43,4.62,4.62,0,0,0-3.09,1.16,4.66,4.66,0,0,0-.14,6.41A4.37,4.37,0,0,0,700.74,127.86Z"/><path class="cls-1" d="M730.72,137.55a7.52,7.52,0,0,1-6.34-3,12,12,0,0,1-2.28-7.47,10.81,10.81,0,0,1,2.56-7.53,8.25,8.25,0,0,1,6.37-2.81,7.74,7.74,0,0,1,6.43,3,11.51,11.51,0,0,1,2.36,7.4,11.07,11.07,0,0,1-2.54,7.53A8.29,8.29,0,0,1,730.72,137.55ZM731,135a4.9,4.9,0,0,0,3.93-1.94q1.57-1.94,1.58-6t-1.66-6a5.08,5.08,0,0,0-3.89-1.84,4.91,4.91,0,0,0-3.87,1.86q-1.57,1.86-1.58,5.91,0,4.27,1.58,6.12A5,5,0,0,0,731,135Z"/><path class="cls-1" d="M760.54,114.19v2.44a5.43,5.43,0,0,0-2.82.49,2.57,2.57,0,0,0-1,1.75,7.17,7.17,0,0,1,1.9,4.77,6.14,6.14,0,0,1-2.06,4.63,7.77,7.77,0,0,1-5.54,1.93,7.51,7.51,0,0,1-1.35-.11,9.05,9.05,0,0,0-1.35-.22,2.35,2.35,0,0,0-1.27.52,1.57,1.57,0,0,0-.74,1.34,1.45,1.45,0,0,0,1.08,1.52,23.84,23.84,0,0,0,5,.45,28.19,28.19,0,0,1,5,.46,5,5,0,0,1,2.73,1.6,4.4,4.4,0,0,1,1.11,3q0,5.64-9.92,5.64-4.71,0-6.86-1.42a4.32,4.32,0,0,1-2.16-3.78,4,4,0,0,1,3-4,3.75,3.75,0,0,1-1.93-3.18q0-2.28,2.74-3.5a6.41,6.41,0,0,1-2.56-5.21,6.06,6.06,0,0,1,2.18-4.8,7.93,7.93,0,0,1,5.34-1.87,9.52,9.52,0,0,1,4,.84,3.77,3.77,0,0,1,1.36-2.68,5.71,5.71,0,0,1,3.23-.74C759.92,114.15,760.18,114.16,760.54,114.19Zm-13,22a3,3,0,0,0-2.14,2.71,2.57,2.57,0,0,0,1.76,2.34,10.69,10.69,0,0,0,4.51.83,14.25,14.25,0,0,0,4.64-.72c1.41-.47,2.11-1.27,2.11-2.41a2,2,0,0,0-.62-1.5,3.06,3.06,0,0,0-1.71-.74,35.61,35.61,0,0,0-3.78-.24Q749,136.39,747.49,136.2Zm3.68-8.34a4.36,4.36,0,0,0,3.18-1.2,4.17,4.17,0,0,0,1.23-3.12,4.31,4.31,0,0,0-4.37-4.43,4.62,4.62,0,0,0-3.09,1.16,4.66,4.66,0,0,0-.14,6.41A4.37,4.37,0,0,0,751.17,127.86Z"/><path class="cls-1" d="M777.14,137h-3.06V110.34h3.06Z"/><path class="cls-1" d="M783.8,134.24a12.05,12.05,0,0,1-2.07-7.19,10.71,10.71,0,0,1,2.56-7.5,8.66,8.66,0,0,1,11.41-1.22l1.76-2.35h2.73l-2.94,3.91a11.56,11.56,0,0,1,2.2,7.19,11.14,11.14,0,0,1-2.53,7.54,8.3,8.3,0,0,1-6.58,2.93,7.54,7.54,0,0,1-5.08-1.71l-1.69,2.25h-2.66Zm2-2.67L794,120.63a5,5,0,0,0-3.44-1.36,4.9,4.9,0,0,0-3.86,1.85q-1.59,1.86-1.59,6A12.57,12.57,0,0,0,785.8,131.57Zm9.5-9.08-8.3,11a5,5,0,0,0,3.59,1.48,4.85,4.85,0,0,0,3.91-1.94c1.06-1.28,1.59-3.29,1.59-6A11,11,0,0,0,795.3,122.49Z"/><path class="cls-1" d="M819.6,137h-2.87V124.32c0-1.82-.4-3.1-1.19-3.84a4,4,0,0,0-2.89-1.12,5,5,0,0,0-3.94,1.88,7.38,7.38,0,0,0-1.59,4.94V137h-3.06V117.27h2.85v3.64q2.4-4.18,6.23-4.18a6.31,6.31,0,0,1,5.89,3.71,15.75,15.75,0,0,1,.57,5.15Z"/><path class="cls-1" d="M841.28,137h-2.87V124.32c0-1.82-.4-3.1-1.19-3.84a4,4,0,0,0-2.89-1.12,5,5,0,0,0-3.94,1.88,7.38,7.38,0,0,0-1.59,4.94V137h-3.06V117.27h2.85v3.64q2.4-4.18,6.23-4.18a6.31,6.31,0,0,1,5.89,3.71,15.75,15.75,0,0,1,.57,5.15Z"/><path class="cls-1" d="M844.76,131.88l2.93-.6c.65,2.48,2.71,3.73,6.17,3.73a5.84,5.84,0,0,0,3.24-.86,2.71,2.71,0,0,0,1.33-2.42q0-2.32-3.38-2.95l-4.16-.78a7.62,7.62,0,0,1-3.88-1.84,4.72,4.72,0,0,1-1.45-3.61,5.22,5.22,0,0,1,2-4.15,7.94,7.94,0,0,1,5.32-1.67q6.42,0,7.93,5l-2.82.6c-.8-2.06-2.46-3.08-5-3.08a5.53,5.53,0,0,0-3.07.77,2.42,2.42,0,0,0-1.2,2.15c0,1.46,1,2.37,3.06,2.75l3.85.69q6,1.09,6,5.85a5.2,5.2,0,0,1-2.24,4.39,9.75,9.75,0,0,1-6,1.68Q846.43,137.55,844.76,131.88Z"/><path class="cls-1" d="M873,137.55a7.52,7.52,0,0,1-6.34-3,12.09,12.09,0,0,1-2.27-7.47,10.76,10.76,0,0,1,2.56-7.53,8.21,8.21,0,0,1,6.36-2.81,7.76,7.76,0,0,1,6.44,3,11.5,11.5,0,0,1,2.35,7.4,11,11,0,0,1-2.54,7.53A8.29,8.29,0,0,1,873,137.55Zm.24-2.54a4.87,4.87,0,0,0,3.92-1.94c1.06-1.29,1.58-3.29,1.58-6s-.55-4.72-1.66-6a5.06,5.06,0,0,0-3.88-1.84,4.88,4.88,0,0,0-3.87,1.86c-1.06,1.24-1.58,3.21-1.58,5.91s.52,4.89,1.58,6.12A5,5,0,0,0,873.28,135Z"/><path class="cls-1" d="M913.18,137h-3V124.73a11.69,11.69,0,0,0-.26-2.84,3.49,3.49,0,0,0-1.28-1.74,3.68,3.68,0,0,0-2.29-.79A4.85,4.85,0,0,0,903,121a6.69,6.69,0,0,0-1.63,4.92V137h-3V124a4.64,4.64,0,0,0-1.24-3.67,3.89,3.89,0,0,0-2.6-1.07,4.37,4.37,0,0,0-3.4,1.67,6.27,6.27,0,0,0-1.45,4.26V137h-2.93V117.27h2.64v3.79q2.21-4.34,6.07-4.33a5.13,5.13,0,0,1,3.62,1.38,6.38,6.38,0,0,1,1.91,3.34q2-4.73,6.23-4.72a5.66,5.66,0,0,1,3.53,1.15,5.4,5.4,0,0,1,2,2.64,15.27,15.27,0,0,1,.46,4.21Z"/><path class="cls-1" d="M928.26,134.91v2.42a22.67,22.67,0,0,1-2.82.22q-5.72,0-5.72-6V119.68h-3.5v-2.41h3.5l.14-5,2.85-.27v5.23h4.41v2.41h-4.41v12.39c0,2,1,3.05,3.16,3.05A15.48,15.48,0,0,0,928.26,134.91Z"/><path class="cls-1" d="M229.86,185h-3c-.12-.63-.23-1.81-.35-3.56a7.1,7.1,0,0,1-6.91,4.11,6.94,6.94,0,0,1-5.1-1.76,5.74,5.74,0,0,1-1.78-4.23,6,6,0,0,1,2.54-4.92c1.69-1.28,4.57-1.93,8.63-1.93.55,0,1.42,0,2.62.08a11.43,11.43,0,0,0-.36-3.39,3,3,0,0,0-1.54-1.67,6.63,6.63,0,0,0-3.08-.62q-4.67,0-5.43,3.55l-2.83-.48q1-5.46,8.71-5.45,4.08,0,5.79,1.8c1.14,1.21,1.71,3.29,1.71,6.26v8.38A16.36,16.36,0,0,0,229.86,185Zm-3.38-9.86q-1.87-.12-2.85-.12a11.2,11.2,0,0,0-5.65,1.19,3.83,3.83,0,0,0-2,3.49,3.26,3.26,0,0,0,1.09,2.47,4.43,4.43,0,0,0,3.13,1,5.83,5.83,0,0,0,4.56-2,7,7,0,0,0,1.79-4.74Q226.54,175.88,226.48,175.14Zm-1.29-16a3.38,3.38,0,0,1-3.36,3.36,3.3,3.3,0,0,1-2.4-1,3.19,3.19,0,0,1-1-2.38,3.29,3.29,0,0,1,1-2.38,3.36,3.36,0,0,1,2.49-1,3.11,3.11,0,0,1,2.29,1A3.31,3.31,0,0,1,225.19,159.1Zm-1.62,0a1.74,1.74,0,0,0-.51-1.26,1.57,1.57,0,0,0-1.15-.53,1.84,1.84,0,0,0-1.36.53,1.73,1.73,0,0,0,0,2.48,1.75,1.75,0,0,0,1.27.53,1.65,1.65,0,0,0,1.23-.52A1.68,1.68,0,0,0,223.57,159.09Z"/><path class="cls-1" d="M261.69,162.19v2.44a5.48,5.48,0,0,0-2.82.49,2.6,2.6,0,0,0-.95,1.75,7.12,7.12,0,0,1,1.9,4.77,6.14,6.14,0,0,1-2.06,4.63,7.77,7.77,0,0,1-5.54,1.93,7.51,7.51,0,0,1-1.35-.11,9,9,0,0,0-1.34-.22,2.3,2.3,0,0,0-1.27.52,1.56,1.56,0,0,0-.75,1.34,1.45,1.45,0,0,0,1.08,1.52,23.88,23.88,0,0,0,5.06.45,28.4,28.4,0,0,1,5,.46,5,5,0,0,1,2.72,1.6,4.41,4.41,0,0,1,1.12,3q0,5.64-9.93,5.64-4.7,0-6.86-1.42a4.32,4.32,0,0,1-2.16-3.78,4,4,0,0,1,3-4,3.74,3.74,0,0,1-1.94-3.18c0-1.52.92-2.69,2.74-3.5a6.41,6.41,0,0,1-2.56-5.21,6,6,0,0,1,2.19-4.8,7.9,7.9,0,0,1,5.33-1.87,9.52,9.52,0,0,1,4,.84,3.81,3.81,0,0,1,1.36-2.68,5.73,5.73,0,0,1,3.23-.74C261.08,162.15,261.33,162.16,261.69,162.19Zm-13,22c-1.44.62-2.15,1.53-2.15,2.71a2.58,2.58,0,0,0,1.77,2.34,10.64,10.64,0,0,0,4.5.83,14.35,14.35,0,0,0,4.65-.72c1.4-.47,2.11-1.27,2.11-2.41a2,2,0,0,0-.63-1.5,3,3,0,0,0-1.71-.74,35.61,35.61,0,0,0-3.78-.24C251.26,184.42,249.68,184.33,248.65,184.2Zm3.67-8.34a4.36,4.36,0,0,0,3.18-1.2,4.17,4.17,0,0,0,1.23-3.12,4.31,4.31,0,0,0-4.37-4.43,4.62,4.62,0,0,0-3.09,1.16,4.64,4.64,0,0,0-.13,6.41A4.33,4.33,0,0,0,252.32,175.86Z"/><path class="cls-1" d="M268.3,165.06V185.6q0,3.48-1.65,4.85a6.16,6.16,0,0,1-4,1.37,12.78,12.78,0,0,1-2.87-.41V189a10,10,0,0,0,2.25.3,3.23,3.23,0,0,0,2.49-.83,4.28,4.28,0,0,0,.75-2.86V165.06Zm.15-6.72v3.42H265v-3.42Z"/><path class="cls-1" d="M274.91,182.24a12,12,0,0,1-2.06-7.19,10.71,10.71,0,0,1,2.56-7.5,8.65,8.65,0,0,1,11.4-1.22l1.76-2.35h2.73l-2.93,3.91a11.62,11.62,0,0,1,2.19,7.19,11.09,11.09,0,0,1-2.53,7.54,8.29,8.29,0,0,1-6.57,2.93,7.52,7.52,0,0,1-5.08-1.71l-1.69,2.25H272Zm2-2.67,8.18-10.94a5,5,0,0,0-3.44-1.36,4.88,4.88,0,0,0-3.85,1.85q-1.59,1.86-1.59,6A12.58,12.58,0,0,0,276.91,179.57Zm9.5-9.08-8.3,11a5,5,0,0,0,3.6,1.48,4.88,4.88,0,0,0,3.91-1.94c1.05-1.28,1.58-3.29,1.58-6A11,11,0,0,0,286.41,170.49Z"/><path class="cls-1" d="M298.24,185h-3.07V165.27h2.7v4.61q1.42-3.25,2.86-4.23a5.2,5.2,0,0,1,2.94-1,10.22,10.22,0,0,1,1.21.08v2.92h-.63a5.42,5.42,0,0,0-4.22,1.9,7.68,7.68,0,0,0-1.79,5Z"/><path class="cls-1" d="M321.38,179.12l2.85.59a8,8,0,0,1-3,4.18,8.83,8.83,0,0,1-5.34,1.66,8.29,8.29,0,0,1-6.54-2.85,10.85,10.85,0,0,1-2.5-7.46,11,11,0,0,1,2.6-7.61,8.37,8.37,0,0,1,6.52-2.9,7.89,7.89,0,0,1,6.22,2.67c1.57,1.79,2.38,4.45,2.42,8H310.23q0,4.47,1.87,6a6.09,6.09,0,0,0,4,1.57Q319.83,183,321.38,179.12Zm-.17-6a8.55,8.55,0,0,0-.55-2.94,5,5,0,0,0-1.72-2.2,4.7,4.7,0,0,0-2.91-.91,5.22,5.22,0,0,0-3.88,1.64,6.79,6.79,0,0,0-1.78,4.41Z"/><path class="cls-1" d="M354.58,158.34V185h-2.77v-3.38a6.67,6.67,0,0,1-6.24,3.93,6.87,6.87,0,0,1-5.69-2.91,11.66,11.66,0,0,1-2.23-7.34,12.46,12.46,0,0,1,2.21-7.55,6.89,6.89,0,0,1,5.86-3,6.8,6.8,0,0,1,5.8,3.24v-9.63Zm-3.06,14.55a5.6,5.6,0,0,0-1.58-4.16,5.11,5.11,0,0,0-3.69-1.56,4.44,4.44,0,0,0-3.76,2,9.5,9.5,0,0,0-1.48,5.7,11,11,0,0,0,1.36,6,4.22,4.22,0,0,0,3.72,2.07,5,5,0,0,0,3.79-1.8,6.07,6.07,0,0,0,1.64-4.22Z"/><path class="cls-1" d="M363.88,158.34v3.42h-3.3v-3.42Zm-.1,6.93V185h-3.06V165.27Z"/><path class="cls-1" d="M386,162.19v2.44a5.43,5.43,0,0,0-2.82.49,2.57,2.57,0,0,0-.95,1.75,7.17,7.17,0,0,1,1.9,4.77,6.14,6.14,0,0,1-2.06,4.63,7.77,7.77,0,0,1-5.54,1.93,7.51,7.51,0,0,1-1.35-.11,9.25,9.25,0,0,0-1.35-.22,2.35,2.35,0,0,0-1.27.52,1.57,1.57,0,0,0-.74,1.34,1.45,1.45,0,0,0,1.08,1.52,23.84,23.84,0,0,0,5,.45,28.19,28.19,0,0,1,5,.46,5,5,0,0,1,2.73,1.6,4.4,4.4,0,0,1,1.11,3q0,5.64-9.92,5.64-4.71,0-6.87-1.42a4.33,4.33,0,0,1-2.15-3.78,4,4,0,0,1,3-4,3.75,3.75,0,0,1-1.93-3.18q0-2.28,2.74-3.5a6.41,6.41,0,0,1-2.56-5.21,6.06,6.06,0,0,1,2.18-4.8,7.93,7.93,0,0,1,5.34-1.87,9.52,9.52,0,0,1,4,.84,3.77,3.77,0,0,1,1.36-2.68,5.71,5.71,0,0,1,3.23-.74C385.39,162.15,385.65,162.16,386,162.19ZM373,184.2a3,3,0,0,0-2.14,2.71,2.57,2.57,0,0,0,1.76,2.34,10.67,10.67,0,0,0,4.5.83,14.27,14.27,0,0,0,4.65-.72c1.41-.47,2.11-1.27,2.11-2.41a2,2,0,0,0-.62-1.5,3.06,3.06,0,0,0-1.71-.74,35.61,35.61,0,0,0-3.78-.24Q374.51,184.4,373,184.2Zm3.68-8.34a4.36,4.36,0,0,0,3.18-1.2,4.17,4.17,0,0,0,1.23-3.12,4.31,4.31,0,0,0-4.38-4.43,4.62,4.62,0,0,0-3.08,1.16,4.66,4.66,0,0,0-.14,6.41A4.37,4.37,0,0,0,376.64,175.86Z"/><path class="cls-1" d="M392.71,158.34v3.42h-3.3v-3.42Zm-.1,6.93V185h-3.06V165.27Z"/><path class="cls-1" d="M407.67,182.91v2.42a22.52,22.52,0,0,1-2.81.22c-3.82,0-5.72-2-5.72-6V167.68h-3.5v-2.41h3.5l.13-5,2.85-.27v5.23h4.42v2.41h-4.42v12.39c0,2,1.06,3.05,3.17,3.05A15.36,15.36,0,0,0,407.67,182.91Z"/><path class="cls-1" d="M426.46,185h-3c-.11-.63-.23-1.81-.35-3.56a7.1,7.1,0,0,1-6.91,4.11,6.94,6.94,0,0,1-5.1-1.76,5.74,5.74,0,0,1-1.78-4.23,6,6,0,0,1,2.54-4.92c1.69-1.28,4.57-1.93,8.63-1.93.55,0,1.42,0,2.62.08a11.43,11.43,0,0,0-.36-3.39,3,3,0,0,0-1.53-1.67,6.65,6.65,0,0,0-3.09-.62q-4.67,0-5.43,3.55l-2.83-.48q1-5.46,8.71-5.45,4.08,0,5.79,1.8c1.14,1.21,1.71,3.29,1.71,6.26v8.38A16.91,16.91,0,0,0,426.46,185Zm-3.38-9.86q-1.87-.12-2.85-.12a11.23,11.23,0,0,0-5.65,1.19,3.83,3.83,0,0,0-2,3.49,3.26,3.26,0,0,0,1.09,2.47,4.43,4.43,0,0,0,3.13,1,5.83,5.83,0,0,0,4.56-2,7,7,0,0,0,1.79-4.74Q423.14,175.88,423.08,175.14Z"/><path class="cls-1" d="M435.25,185h-3.07V158.34h3.07Z"/><path class="cls-1" d="M454.41,179.12l2.85.59a8,8,0,0,1-3.05,4.18,8.8,8.8,0,0,1-5.33,1.66,8.29,8.29,0,0,1-6.54-2.85,12.41,12.41,0,0,1,.1-15.07,8.35,8.35,0,0,1,6.52-2.9,7.89,7.89,0,0,1,6.22,2.67c1.57,1.79,2.37,4.45,2.41,8H443.26q0,4.47,1.87,6a6.07,6.07,0,0,0,4,1.57Q452.87,183,454.41,179.12Zm-.18-6a8.55,8.55,0,0,0-.54-2.94A5.07,5.07,0,0,0,452,168a4.7,4.7,0,0,0-2.91-.91,5.21,5.21,0,0,0-3.88,1.64,6.8,6.8,0,0,0-1.79,4.41Z"/><path class="cls-1" d="M481.15,182.91v2.42a22.53,22.53,0,0,1-2.82.22q-5.71,0-5.72-6V167.68h-3.49v-2.41h3.49l.14-5,2.85-.27v5.23H480v2.41H475.6v12.39c0,2,1.06,3.05,3.16,3.05A15.48,15.48,0,0,0,481.15,182.91Z"/><path class="cls-1" d="M487.57,165.06V185.6q0,3.48-1.65,4.85a6.11,6.11,0,0,1-4,1.37,12.78,12.78,0,0,1-2.87-.41V189a9.89,9.89,0,0,0,2.24.3,3.23,3.23,0,0,0,2.49-.83,4.22,4.22,0,0,0,.76-2.86V165.06Zm.16-6.72v3.42h-3.48v-3.42Z"/><path class="cls-1" d="M506.69,179.12l2.86.59a8.08,8.08,0,0,1-3.05,4.18,8.82,8.82,0,0,1-5.33,1.66,8.3,8.3,0,0,1-6.55-2.85,12.41,12.41,0,0,1,.1-15.07,8.37,8.37,0,0,1,6.53-2.9,7.9,7.9,0,0,1,6.22,2.67c1.56,1.79,2.37,4.45,2.41,8H495.54q0,4.47,1.88,6a6.07,6.07,0,0,0,4,1.57C503.89,183,505.67,181.71,506.69,179.12Zm-.17-6a8.55,8.55,0,0,0-.55-2.94,5,5,0,0,0-1.72-2.2,4.66,4.66,0,0,0-2.91-.91,5.2,5.2,0,0,0-3.87,1.64,6.75,6.75,0,0,0-1.79,4.41Z"/><path class="cls-1" d="M530,185h-2.87V172.32c0-1.82-.39-3.1-1.19-3.84a4,4,0,0,0-2.89-1.12,5,5,0,0,0-3.93,1.88,7.34,7.34,0,0,0-1.6,4.94V185h-3.06V165.27h2.85v3.64q2.4-4.18,6.23-4.18a6.31,6.31,0,0,1,5.89,3.71,15.75,15.75,0,0,1,.57,5.15Z"/><path class="cls-1" d="M549.19,179.12l2.86.59a8.08,8.08,0,0,1-3,4.18,8.82,8.82,0,0,1-5.33,1.66,8.3,8.3,0,0,1-6.55-2.85,12.41,12.41,0,0,1,.1-15.07,8.37,8.37,0,0,1,6.53-2.9A7.9,7.9,0,0,1,550,167.4c1.56,1.79,2.37,4.45,2.41,8H538q0,4.47,1.88,6a6.07,6.07,0,0,0,4,1.57C546.39,183,548.17,181.71,549.19,179.12Zm-.17-6a8.55,8.55,0,0,0-.55-2.94,5,5,0,0,0-1.72-2.2,4.66,4.66,0,0,0-2.91-.91,5.2,5.2,0,0,0-3.87,1.64,6.75,6.75,0,0,0-1.79,4.41Z"/><path class="cls-1" d="M554.33,179.88l2.93-.6c.65,2.48,2.71,3.73,6.17,3.73a5.84,5.84,0,0,0,3.24-.86,2.71,2.71,0,0,0,1.33-2.42c0-1.55-1.12-2.53-3.38-2.95l-4.16-.78a7.66,7.66,0,0,1-3.88-1.84,4.72,4.72,0,0,1-1.45-3.61,5.22,5.22,0,0,1,2-4.15,7.94,7.94,0,0,1,5.32-1.67q6.42,0,7.93,5l-2.82.6c-.8-2.06-2.46-3.08-5-3.08a5.53,5.53,0,0,0-3.07.77,2.42,2.42,0,0,0-1.2,2.15c0,1.46,1,2.37,3.06,2.75l3.85.69c4,.73,6,2.68,6,5.85a5.21,5.21,0,0,1-2.25,4.39,9.75,9.75,0,0,1-6,1.68Q556,185.55,554.33,179.88Z"/><path class="cls-1" d="M584.49,182.91v2.42a22.53,22.53,0,0,1-2.82.22q-5.71,0-5.72-6V167.68h-3.49v-2.41H576l.14-5,2.85-.27v5.23h4.41v2.41h-4.41v12.39c0,2,1.06,3.05,3.16,3.05A15.48,15.48,0,0,0,584.49,182.91Z"/><path class="cls-1" d="M600.19,179.12l2.85.59a8.07,8.07,0,0,1-3,4.18,8.85,8.85,0,0,1-5.34,1.66,8.29,8.29,0,0,1-6.54-2.85,10.85,10.85,0,0,1-2.5-7.46,11,11,0,0,1,2.6-7.61,8.35,8.35,0,0,1,6.52-2.9A7.89,7.89,0,0,1,601,167.4c1.57,1.79,2.37,4.45,2.41,8H589q0,4.47,1.87,6a6.07,6.07,0,0,0,4,1.57Q598.65,183,600.19,179.12Zm-.18-6a8.33,8.33,0,0,0-.54-2.94,5,5,0,0,0-1.72-2.2,4.7,4.7,0,0,0-2.91-.91,5.22,5.22,0,0,0-3.88,1.64,6.8,6.8,0,0,0-1.79,4.41Z"/><path class="cls-1" d="M611.05,185H608V165.27h2.7v4.61q1.43-3.25,2.86-4.23a5.24,5.24,0,0,1,2.94-1,10.09,10.09,0,0,1,1.21.08v2.92h-.62a5.41,5.41,0,0,0-4.22,1.9,7.69,7.69,0,0,0-1.8,5Z"/><path class="cls-1" d="M646.69,185h-2.77v-3.77c-1.4,2.88-3.5,4.32-6.28,4.32a6,6,0,0,1-4.75-2,8.41,8.41,0,0,1-1.72-5.67V165.27h3.06v12.6c0,1.95.41,3.3,1.22,4a3.92,3.92,0,0,0,2.69,1.11,4.61,4.61,0,0,0,2.69-.84,6.5,6.5,0,0,0,2-2.4,7.29,7.29,0,0,0,.8-3.38V165.27h3.06Z"/><path class="cls-1" d="M668.37,185H665.5V172.32c0-1.82-.39-3.1-1.19-3.84a4,4,0,0,0-2.89-1.12,5,5,0,0,0-3.93,1.88,7.34,7.34,0,0,0-1.6,4.94V185h-3.06V165.27h2.85v3.64q2.4-4.18,6.23-4.18a6.31,6.31,0,0,1,5.89,3.71,15.75,15.75,0,0,1,.57,5.15Z"/><path class="cls-1" d="M677.67,158.34v3.42h-3.3v-3.42Zm-.1,6.93V185h-3.06V165.27Z"/><path class="cls-1" d="M698.14,165.27,691.32,185h-3.16l-7.07-19.73h3.4l5.5,16,5.42-16Z"/><path class="cls-1" d="M714.12,179.12l2.85.59a8,8,0,0,1-3.05,4.18,8.82,8.82,0,0,1-5.33,1.66,8.27,8.27,0,0,1-6.54-2.85,10.85,10.85,0,0,1-2.5-7.46,11,11,0,0,1,2.59-7.61,8.39,8.39,0,0,1,6.53-2.9,7.9,7.9,0,0,1,6.22,2.67c1.57,1.79,2.37,4.45,2.41,8H703q0,4.47,1.88,6a6.07,6.07,0,0,0,4,1.57Q712.58,183,714.12,179.12Zm-.18-6a8.55,8.55,0,0,0-.55-2.94,5,5,0,0,0-1.72-2.2,4.66,4.66,0,0,0-2.91-.91,5.2,5.2,0,0,0-3.87,1.64,6.8,6.8,0,0,0-1.79,4.41Z"/><path class="cls-1" d="M725,185h-3.06V165.27h2.69v4.61a10,10,0,0,1,2.86-4.23,5.24,5.24,0,0,1,2.94-1,10.24,10.24,0,0,1,1.22.08v2.92H731a5.42,5.42,0,0,0-4.22,1.9,7.69,7.69,0,0,0-1.8,5Z"/><path class="cls-1" d="M732.67,179.88l2.93-.6c.65,2.48,2.71,3.73,6.17,3.73a5.84,5.84,0,0,0,3.24-.86,2.71,2.71,0,0,0,1.33-2.42q0-2.32-3.38-2.95L738.8,176a7.62,7.62,0,0,1-3.88-1.84,4.72,4.72,0,0,1-1.45-3.61,5.22,5.22,0,0,1,2-4.15,7.94,7.94,0,0,1,5.32-1.67q6.42,0,7.93,5l-2.82.6c-.8-2.06-2.46-3.08-5-3.08a5.53,5.53,0,0,0-3.07.77,2.42,2.42,0,0,0-1.2,2.15c0,1.46,1,2.37,3.06,2.75l3.85.69q6,1.1,6,5.85a5.2,5.2,0,0,1-2.24,4.39,9.75,9.75,0,0,1-6,1.68Q734.33,185.55,732.67,179.88Z"/><path class="cls-1" d="M766.91,179.12l2.85.59a8,8,0,0,1-3,4.18,8.82,8.82,0,0,1-5.33,1.66,8.28,8.28,0,0,1-6.54-2.85,12.41,12.41,0,0,1,.1-15.07,8.35,8.35,0,0,1,6.52-2.9,7.89,7.89,0,0,1,6.22,2.67c1.57,1.79,2.37,4.45,2.41,8H755.76q0,4.47,1.87,6a6.07,6.07,0,0,0,4,1.57Q765.37,183,766.91,179.12Zm-.18-6a8.55,8.55,0,0,0-.54-2.94,5.07,5.07,0,0,0-1.72-2.2,4.7,4.7,0,0,0-2.91-.91,5.21,5.21,0,0,0-3.88,1.64,6.8,6.8,0,0,0-1.79,4.41Z"/><path class="cls-1" d="M777.77,185H774.7V158.34h3.07Z"/><path class="cls-1" d="M792.85,182.91v2.42a22.67,22.67,0,0,1-2.82.22q-5.71,0-5.72-6V167.68h-3.5v-2.41h3.5l.14-5,2.85-.27v5.23h4.41v2.41H787.3v12.39c0,2,1.05,3.05,3.16,3.05A15.48,15.48,0,0,0,792.85,182.91Z"/><path class="cls-1" d="M821.73,185H819v-3.77q-2.12,4.32-6.28,4.32a6,6,0,0,1-4.75-2,8.41,8.41,0,0,1-1.72-5.67V165.27h3.06v12.6c0,1.95.41,3.3,1.22,4a3.92,3.92,0,0,0,2.69,1.11,4.56,4.56,0,0,0,2.68-.84,6.52,6.52,0,0,0,2-2.4,7.29,7.29,0,0,0,.8-3.38V165.27h3.06Z"/><path class="cls-1" d="M836.81,182.91v2.42a22.52,22.52,0,0,1-2.81.22c-3.82,0-5.72-2-5.72-6V167.68h-3.5v-2.41h3.5l.13-5,2.85-.27v5.23h4.42v2.41h-4.42v12.39c0,2,1.06,3.05,3.17,3.05A15.46,15.46,0,0,0,836.81,182.91Z"/><path class="cls-1" d="M848.35,165.27v2.41h-4.68V185H840.6V167.68h-3.36v-2.41h3.36q.07-4.74,1.83-6.11a6.69,6.69,0,0,1,4.26-1.37,16.14,16.14,0,0,1,2.82.28v2.44a7.73,7.73,0,0,0-1.9-.26,4.31,4.31,0,0,0-3,.89q-1,.88-1,3.33v.8Z"/><path class="cls-1" d="M858.31,185.55a7.5,7.5,0,0,1-6.33-3,12,12,0,0,1-2.28-7.47,10.76,10.76,0,0,1,2.56-7.53,8.25,8.25,0,0,1,6.37-2.81,7.75,7.75,0,0,1,6.43,3,11.51,11.51,0,0,1,2.36,7.4,11.07,11.07,0,0,1-2.54,7.53A8.31,8.31,0,0,1,858.31,185.55Zm.24-2.54a4.87,4.87,0,0,0,3.92-1.94q1.59-1.94,1.59-6c0-2.74-.56-4.72-1.66-5.95a5.09,5.09,0,0,0-3.89-1.84,4.91,4.91,0,0,0-3.87,1.86q-1.57,1.86-1.58,5.91,0,4.28,1.58,6.12A5,5,0,0,0,858.55,183Z"/><path class="cls-1" d="M875.09,185H872V165.27h2.69v4.61a10,10,0,0,1,2.86-4.23,5.24,5.24,0,0,1,2.94-1,10.09,10.09,0,0,1,1.21.08v2.92h-.62a5.42,5.42,0,0,0-4.22,1.9,7.69,7.69,0,0,0-1.8,5Z"/><path class="cls-1" d="M911.63,185h-3V172.73a11.11,11.11,0,0,0-.27-2.84,3.38,3.38,0,0,0-1.28-1.74,3.63,3.63,0,0,0-2.28-.79,4.85,4.85,0,0,0-3.39,1.61,6.65,6.65,0,0,0-1.63,4.92V185h-3V172a4.64,4.64,0,0,0-1.24-3.67,3.93,3.93,0,0,0-2.61-1.07,4.4,4.4,0,0,0-3.4,1.67,6.31,6.31,0,0,0-1.44,4.26V185h-2.93V165.27h2.64v3.79q2.21-4.34,6.07-4.33a5.1,5.1,0,0,1,3.61,1.38,6.4,6.4,0,0,1,1.92,3.34q2-4.72,6.23-4.72a5.63,5.63,0,0,1,3.52,1.15,5.36,5.36,0,0,1,2,2.64,15.33,15.33,0,0,1,.45,4.21Z"/><path class="cls-1" d="M930.79,179.12l2.86.59a8,8,0,0,1-3,4.18,8.82,8.82,0,0,1-5.33,1.66,8.3,8.3,0,0,1-6.55-2.85,12.41,12.41,0,0,1,.1-15.07,8.37,8.37,0,0,1,6.53-2.9,7.9,7.9,0,0,1,6.22,2.67c1.57,1.79,2.37,4.45,2.41,8H919.64q0,4.47,1.88,6a6.07,6.07,0,0,0,4,1.57Q929.26,183,930.79,179.12Zm-.17-6a8.55,8.55,0,0,0-.55-2.94,5,5,0,0,0-1.72-2.2,4.66,4.66,0,0,0-2.91-.91,5.2,5.2,0,0,0-3.87,1.64,6.75,6.75,0,0,0-1.79,4.41Z"/><path class="cls-1" d="M947.34,182.91v2.42a22.52,22.52,0,0,1-2.81.22q-5.73,0-5.73-6V167.68h-3.49v-2.41h3.49l.14-5,2.85-.27v5.23h4.42v2.41h-4.42v12.39c0,2,1.06,3.05,3.17,3.05A15.46,15.46,0,0,0,947.34,182.91Z"/></svg>