<svg id="Layer_1" data-name="Layer 1" xmlns="http://www.w3.org/2000/svg" viewBox="0 0 300 250"><defs><style>.cls-1{fill:#d80201;}.cls-2{fill:#fff;}</style></defs><title>text</title><rect class="cls-1" x="75" y="208" width="148.67" height="24" rx="12"/><path class="cls-2" d="M103.44,224.67l-3.33-4.19-.21.21v4H98.08v-9.35H99.9v4l3.43-4h2.3l-3.95,4.32,4.16,5Z"/><path class="cls-2" d="M111,224.88a4.85,4.85,0,0,1-5-4.86,5,5,0,1,1,5,4.86Zm0-8.1a3.22,3.22,0,1,0,3.12,3.21A3.17,3.17,0,0,0,111,216.78Z"/><path class="cls-2" d="M126.29,224.67l-.82-5.76-2.58,5.88h-.5l-2.48-5.88-.94,5.76h-1.84l1.74-9.51h1.25l2.55,6.1,2.66-6.1h1.24l1.56,9.51Z"/><path class="cls-2" d="M133.29,224.67v-9.35h1.82v9.35Z"/><path class="cls-2" d="M146.1,221.43a4.31,4.31,0,0,1-4.42,3.45,4.72,4.72,0,0,1-4.91-4.86,4.8,4.8,0,0,1,5-4.91,4.46,4.46,0,0,1,4,2.2l-1.58.86a2.75,2.75,0,0,0-2.44-1.39,3.09,3.09,0,0,0-3.07,3.24,3.05,3.05,0,0,0,3.07,3.2,2.31,2.31,0,0,0,2.44-2H142v-1.57h4.28v.22A7.88,7.88,0,0,1,146.1,221.43Z"/><path class="cls-2" d="M153.9,224.67l-.8-2h-3.81l-.85,2H146.5l4.05-9.54h1.37l3.94,9.54Zm-2.68-6.81-1.35,3.36h2.67Zm0-3.45a1.3,1.3,0,1,1,1.3-1.3A1.3,1.3,0,0,1,151.18,214.41Zm0-1.83a.53.53,0,0,0-.53.53.53.53,0,0,0,.53.53.52.52,0,0,0,.53-.53A.53.53,0,0,0,151.18,212.58Z"/><path class="cls-2" d="M164.46,224.85l-5.69-6.5v6.32H157v-9.56h1.26l5.69,6.5v-6.29h1.82v9.53Z"/><path class="cls-2" d="M176.71,221.43a4.32,4.32,0,0,1-4.43,3.45,4.71,4.71,0,0,1-4.9-4.86,4.8,4.8,0,0,1,5-4.91,4.45,4.45,0,0,1,4,2.2l-1.58.86a2.75,2.75,0,0,0-2.44-1.39,3.09,3.09,0,0,0-3.07,3.24,3.05,3.05,0,0,0,3.07,3.2,2.3,2.3,0,0,0,2.44-2h-2.2v-1.57h4.29v.22A8.73,8.73,0,0,1,176.71,221.43Z"/><polygon class="cls-2" points="196 221.17 186.17 221.17 186.17 218.67 196 218.67 196 214.88 203 219.92 196 224.75 196 221.17"/></svg>