<svg id="Layer_1" data-name="Layer 1" xmlns="http://www.w3.org/2000/svg" viewBox="0 0 300 250"><defs><style>.cls-1{fill:#fff;}</style></defs><title>text</title><path class="cls-1" d="M106.69,123.1h-4.4l-.88,3.41h-3.3l4.51-14.35h3.88L111,126.51h-3.44Zm-.66-2.53-.35-1.32c-.39-1.44-.77-3.13-1.16-4.63h-.09c-.33,1.52-.73,3.19-1.12,4.63l-.36,1.32Z"/><path class="cls-1" d="M112.26,115.59h2.64l.22,1.92h.09a3.64,3.64,0,0,1,3.1-2.18,3.17,3.17,0,0,1,1.3.22l-.53,2.79a4.12,4.12,0,0,0-1.19-.17,2.72,2.72,0,0,0-2.4,2v6.34h-3.23Z"/><path class="cls-1" d="M125.31,115.33c3.1,0,4.64,2.26,4.64,5.24a6.8,6.8,0,0,1-.13,1.36h-6.54a2.65,2.65,0,0,0,2.84,2.38,4.43,4.43,0,0,0,2.35-.73l1.08,2a7.12,7.12,0,0,1-3.87,1.23,5.32,5.32,0,0,1-5.52-5.72C120.16,117.51,122.69,115.33,125.31,115.33Zm1.89,4.6c0-1.26-.53-2.14-1.83-2.14-1,0-1.89.68-2.11,2.14Z"/><path class="cls-1" d="M137.73,128.22a1.86,1.86,0,0,0,1.92-1.43l.15-.57-4.2-10.63h3.26l1.56,4.69c.31,1,.57,2,.86,3.1h.09c.24-1,.48-2.07.74-3.1l1.32-4.69h3.11l-3.79,11c-1,2.75-2.2,4.15-4.77,4.15a4.74,4.74,0,0,1-1.54-.22l.57-2.46A3.84,3.84,0,0,0,137.73,128.22Z"/><path class="cls-1" d="M152.74,115.33a5.73,5.73,0,1,1-5.33,5.72A5.34,5.34,0,0,1,152.74,115.33Zm0,8.82c1.32,0,2-1.21,2-3.1s-.68-3.1-2-3.1-2,1.21-2,3.1S151.4,124.15,152.74,124.15Z"/><path class="cls-1" d="M160.15,115.59h3.24V122c0,1.56.41,2.07,1.36,2.07s1.3-.35,1.94-1.21v-7.22h3.23v10.92h-2.64L167,125H167a4.24,4.24,0,0,1-3.43,1.78c-2.38,0-3.39-1.67-3.39-4.4Z"/><path class="cls-1" d="M172.76,115.59h2.64l.22,1.92h.09a3.64,3.64,0,0,1,3.1-2.18,3.21,3.21,0,0,1,1.3.22l-.53,2.79a4.12,4.12,0,0,0-1.19-.17,2.71,2.71,0,0,0-2.4,2v6.34h-3.23Z"/><path class="cls-1" d="M100.14,144.52h-1.5v-2.4l1.67-.13.38-2.9h2.68V142H106v2.53h-2.62v4.38c0,1.23.55,1.74,1.41,1.74a3,3,0,0,0,1-.22l.51,2.35a7.69,7.69,0,0,1-2.42.4c-2.71,0-3.76-1.69-3.76-4.22Z"/><path class="cls-1" d="M112.59,141.73a5.73,5.73,0,1,1-5.33,5.72A5.34,5.34,0,0,1,112.59,141.73Zm0,8.82c1.32,0,2-1.21,2-3.1s-.68-3.1-2-3.1-2,1.21-2,3.1S111.25,150.55,112.59,150.55Z"/><path class="cls-1" d="M124.8,141.73a5.73,5.73,0,1,1-5.33,5.72A5.34,5.34,0,0,1,124.8,141.73Zm0,8.82c1.32,0,2-1.21,2-3.1s-.68-3.1-2-3.1-2,1.21-2,3.1S123.46,150.55,124.8,150.55Z"/><path class="cls-1" d="M132.32,137.48h3.24v12.17c0,.68.31.9.57.9a1.43,1.43,0,0,0,.39,0l.4,2.4a4.3,4.3,0,0,1-1.63.26c-2.22,0-3-1.45-3-3.65Z"/><path class="cls-1" d="M139.1,149.63a4.68,4.68,0,0,0,2.82,1.14c1,0,1.38-.35,1.38-.92,0-.73-1.1-1.06-2.22-1.5-1.32-.5-2.88-1.41-2.88-3.21,0-2,1.65-3.41,4.18-3.41a6.31,6.31,0,0,1,3.85,1.38l-1.45,1.94a4.05,4.05,0,0,0-2.31-.92c-.84,0-1.24.3-1.24.85,0,.71,1,1,2.14,1.39,1.38.51,2.95,1.28,2.95,3.28s-1.57,3.52-4.49,3.52a7.06,7.06,0,0,1-4.18-1.52Z"/><path class="cls-1" d="M159.1,140a3.59,3.59,0,0,0-1.13-.22c-.79,0-1.25.44-1.25,1.56V142h2v2.53h-2v8.39h-3.23v-8.39H152v-2.4l1.46-.11v-.59c0-2.31,1.07-4.2,4-4.2a6.65,6.65,0,0,1,2.18.39Z"/><path class="cls-1" d="M165.74,145.89A1.53,1.53,0,0,0,164,144.3a6,6,0,0,0-2.9,1L160,143.16a8.94,8.94,0,0,1,4.66-1.43c2.79,0,4.33,1.58,4.33,4.93v6.25h-2.64l-.24-1.13H166a4.79,4.79,0,0,1-3.19,1.39,3.14,3.14,0,0,1-3.24-3.3C159.6,147.58,161.43,146.33,165.74,145.89Zm-1.8,4.77a2.44,2.44,0,0,0,1.8-.92v-1.92c-2.31.31-3.06,1-3.06,1.81S163.17,150.66,163.94,150.66Z"/><path class="cls-1" d="M172.23,149.63a4.68,4.68,0,0,0,2.82,1.14c1,0,1.38-.35,1.38-.92,0-.73-1.1-1.06-2.22-1.5-1.32-.5-2.88-1.41-2.88-3.21,0-2,1.65-3.41,4.18-3.41a6.31,6.31,0,0,1,3.85,1.38l-1.45,1.94a4.05,4.05,0,0,0-2.31-.92c-.84,0-1.24.3-1.24.85,0,.71,1,1,2.14,1.39,1.38.51,2.95,1.28,2.95,3.28s-1.57,3.52-4.49,3.52a7.06,7.06,0,0,1-4.18-1.52Z"/><path class="cls-1" d="M181.93,144.52h-1.49v-2.4l1.67-.13.37-2.9h2.69V142h2.61v2.53h-2.61v4.38c0,1.23.55,1.74,1.4,1.74a3.1,3.1,0,0,0,1-.22l.5,2.35a7.69,7.69,0,0,1-2.42.4c-2.7,0-3.76-1.69-3.76-4.22Z"/><path class="cls-1" d="M199,141.73c3.11,0,4.65,2.27,4.65,5.23a6,6,0,0,1-.14,1.37H197a2.65,2.65,0,0,0,2.84,2.38,4.43,4.43,0,0,0,2.35-.73l1.08,2a7.12,7.12,0,0,1-3.87,1.23,5.31,5.31,0,0,1-5.52-5.72C193.86,143.91,196.39,141.73,199,141.73Zm1.9,4.6c0-1.26-.53-2.14-1.83-2.14-1,0-1.89.69-2.11,2.14Z"/><path class="cls-1" d="M205.89,142h2.64l.22,1.39h.09a5,5,0,0,1,3.5-1.65c2.37,0,3.38,1.67,3.38,4.4v6.78h-3.23v-6.36c0-1.59-.42-2.07-1.34-2.07a2.75,2.75,0,0,0-2,1.06v7.37h-3.23Z"/><path class="cls-1" d="M223.16,141.73a5.73,5.73,0,1,1-5.33,5.72A5.34,5.34,0,0,1,223.16,141.73Zm0,8.82c1.32,0,2-1.21,2-3.1s-.68-3.1-2-3.1-2,1.21-2,3.1S221.82,150.55,223.16,150.55Z"/><path class="cls-1" d="M230.57,142h3.24v6.36c0,1.56.42,2.07,1.36,2.07s1.3-.35,1.94-1.21V142h3.23v10.92H237.7l-.24-1.52h-.07a4.24,4.24,0,0,1-3.43,1.78c-2.38,0-3.39-1.67-3.39-4.4Z"/><path class="cls-1" d="M244.06,152.58v-.09a2.11,2.11,0,0,1-1-1.85,2.66,2.66,0,0,1,1.23-2v-.09a3.47,3.47,0,0,1-1.47-2.83c0-2.62,2.15-3.94,4.51-3.94A5.21,5.21,0,0,1,249,142h4v2.36h-1.74a2.89,2.89,0,0,1,.36,1.43c0,2.51-1.9,3.67-4.29,3.67a4.14,4.14,0,0,1-1.32-.22.92.92,0,0,0-.4.82c0,.55.44.81,1.65.81H249c2.68,0,4.16.81,4.16,2.77,0,2.27-2.36,3.92-6.1,3.92-2.55,0-4.57-.84-4.57-2.77A2.55,2.55,0,0,1,244.06,152.58Zm3.52,2.94c1.45,0,2.51-.59,2.51-1.34s-.6-.86-1.67-.86h-1.13a6.36,6.36,0,0,1-1.54-.13,1.44,1.44,0,0,0-.59,1.08C245.16,155.08,246.13,155.52,247.58,155.52Zm1.23-9.85c0-1.15-.64-1.76-1.49-1.76s-1.5.59-1.5,1.76.64,1.82,1.5,1.82S248.81,146.88,248.81,145.67Z"/><path class="cls-1" d="M254.93,137.48h3.23v3.79l-.15,1.95a5,5,0,0,1,3.36-1.49c2.38,0,3.39,1.67,3.39,4.4v6.78h-3.23v-6.36c0-1.59-.42-2.07-1.34-2.07a2.75,2.75,0,0,0-2,1.06v7.37h-3.23Z"/><path class="cls-1" d="M271.87,141.9a1.32,1.32,0,0,0-1.48-1.38,2.81,2.81,0,0,0-2,1l-1.78-1.63a5.2,5.2,0,0,1,4-2c2.49,0,4.36,1.17,4.36,3.76s-3.3,3.55-3,6.16H269.1C268.66,144.81,271.87,143.55,271.87,141.9Zm-1.37,7.2a2,2,0,0,1,0,4.07,2,2,0,0,1,0-4.07Z"/></svg>