<svg id="Layer_1" data-name="Layer 1" xmlns="http://www.w3.org/2000/svg" viewBox="0 0 250 720"><defs><style>.cls-1{fill:#d80201;}</style></defs><title>text</title><path class="cls-1" d="M48.85,526V515.28h5.52v1.12H50v3.17h4.23v1.1H50v4.18h4.34V526Z"/><path class="cls-1" d="M60.43,526V522c0-1-.14-1.86-1.39-1.86-1.47,0-1.65,1.28-1.65,2.45V526H56.25v-6.64h1.14v.8a2.23,2.23,0,0,1,1.92-1,2.26,2.26,0,0,1,1.89.91,3,3,0,0,1,.38,1.76V526Z"/><path class="cls-1" d="M65.55,526.14a2.37,2.37,0,0,1-2.32-1.69l1-.42a1.48,1.48,0,0,0,1.35,1.07,1,1,0,0,0,1.09-1c0-1.44-3-1-3-3a1.87,1.87,0,0,1,1.94-1.86,2,2,0,0,1,1.82,1.2l-.94.5a1.07,1.07,0,0,0-.93-.66.79.79,0,0,0-.8.74c0,1.16,3.07.86,3.07,3A2.17,2.17,0,0,1,65.55,526.14Z"/><path class="cls-1" d="M73.47,526l-2.69-3-.28.28V526H69.36V514.28H70.5v7.48l2.41-2.45h1.52l-2.85,2.82L75,526Z"/><path class="cls-1" d="M76.67,517.61a.82.82,0,0,1-.82-.81.82.82,0,1,1,1.64,0A.82.82,0,0,1,76.67,517.61ZM76.09,526v-6.64h1.14V526Z"/><path class="cls-1" d="M80.56,520.37V526H79.42v-5.58H78.8v-1.06h.62v-2.83a3.64,3.64,0,0,1,.18-1.28,1.84,1.84,0,0,1,1.79-1.11,2.9,2.9,0,0,1,.83.15v1.15a1.94,1.94,0,0,0-.75-.16c-.83,0-.91.62-.91,1.29v2.79h1.66v1.06Z"/><path class="cls-1" d="M84.85,520.37V526H83.69v-5.58H83v-1.06h.68v-2.4h1.16v2.4H86v1.06Z"/><path class="cls-1" d="M87.89,522.86A2.14,2.14,0,0,0,90,525.1a2.3,2.3,0,0,0,2-1.37l1,.53a3.31,3.31,0,0,1-3,1.88,3.5,3.5,0,0,1-.07-7c2,0,3.17,1.57,3.17,3.49v.22Zm2-2.67a2,2,0,0,0-2,1.71h3.9A2,2,0,0,0,89.94,520.19Z"/><path class="cls-1" d="M96.61,526.14a2.36,2.36,0,0,1-2.32-1.69l1-.42c.27.59.64,1.07,1.34,1.07a1,1,0,0,0,1.09-1c0-1.44-3-1-3-3a1.87,1.87,0,0,1,1.93-1.86,2,2,0,0,1,1.83,1.2l-1,.5a1.05,1.05,0,0,0-.92-.66.79.79,0,0,0-.8.74c0,1.16,3.07.86,3.07,3A2.18,2.18,0,0,1,96.61,526.14Z"/><path class="cls-1" d="M102.72,526.38l-3.27-7.07h1.28l2,4.47,2-4.47H106Z"/><path class="cls-1" d="M112.26,526V525a2.84,2.84,0,0,1-2.31,1.12,3.29,3.29,0,0,1-3.2-3.53,3.23,3.23,0,0,1,3.18-3.46,2.83,2.83,0,0,1,2.33,1.1v-.94h1.13V526Zm-2.15-5.78a2.48,2.48,0,1,0,2.21,2.44A2.24,2.24,0,0,0,110.11,520.17ZM108.78,518a.82.82,0,0,1-.8-.8.8.8,0,1,1,.8.8Zm2.79,0a.81.81,0,0,1-.8-.8.8.8,0,1,1,.8.8Z"/><path class="cls-1" d="M121.15,528.42a3.21,3.21,0,0,1-2.66,1.23,3,3,0,0,1-3.23-3h1.14a2,2,0,0,0,2.11,2c1.6,0,2.13-1.21,2.13-2.63v-1a3,3,0,0,1-2.34,1.11,3.5,3.5,0,0,1,0-7,2.84,2.84,0,0,1,2.29,1.09v-.93h1.15v6.5A4.05,4.05,0,0,1,121.15,528.42Zm-2.67-8.25a2.29,2.29,0,0,0-2.18,2.52,2.24,2.24,0,0,0,2.18,2.41,2.48,2.48,0,0,0,0-4.93Z"/><path class="cls-1" d="M124.73,522.86a2.16,2.16,0,0,0,2.12,2.24,2.28,2.28,0,0,0,2-1.37l1,.53a3.32,3.32,0,0,1-3.05,1.88,3.5,3.5,0,0,1-.06-7,3.18,3.18,0,0,1,3.17,3.49v.22Zm2-2.67a2,2,0,0,0-2,1.71h3.91A2,2,0,0,0,126.78,520.19Z"/><path class="cls-1" d="M135.84,526V522c0-1-.15-1.86-1.39-1.86-1.48,0-1.65,1.28-1.65,2.45V526h-1.14v-6.64h1.14v.8a2.23,2.23,0,0,1,1.92-1,2.26,2.26,0,0,1,1.89.91,3,3,0,0,1,.38,1.76V526Z"/><path class="cls-1" d="M146.29,526.13a3.33,3.33,0,0,1-2.47-1.06,2.77,2.77,0,0,1-.7-1.89h1.15a2,2,0,0,0,.37,1,2.11,2.11,0,0,0,1.68.8,2.07,2.07,0,0,0,2.09-2.12c0-1.4-1-2-2.27-2v-1a2.44,2.44,0,0,0,1.27-.26,1.84,1.84,0,0,0-1-3.38,1.8,1.8,0,0,0-1.46.69,2.58,2.58,0,0,0-.35,1h-1.17c.24-1.73,1.15-2.8,3-2.8a2.86,2.86,0,0,1,3,2.86,2.6,2.6,0,0,1-1.38,2.37,2.72,2.72,0,0,1,1.54,2.58A3.17,3.17,0,0,1,146.29,526.13Z"/><path class="cls-1" d="M152.28,528.39l-.75-.31,1.31-3.7,1.06.39Z"/><path class="cls-1" d="M162.4,521.28h-1V526h-1.19V515.28h1.94a3.91,3.91,0,0,1,2.69.75,3,3,0,0,1,1,2.26C165.77,520.32,164.29,521.28,162.4,521.28Zm-.16-4.88h-.88v3.79h1c1.25,0,2.28-.54,2.28-1.92S163.5,516.4,162.24,516.4Z"/><path class="cls-1" d="M171.82,526V525a2.82,2.82,0,0,1-2.3,1.12,3.28,3.28,0,0,1-3.2-3.53,3.23,3.23,0,0,1,3.18-3.46,2.8,2.8,0,0,1,2.32,1.1v-.94H173V526Zm-2.14-5.78a2.48,2.48,0,1,0,2.21,2.44A2.24,2.24,0,0,0,169.68,520.17Z"/><path class="cls-1" d="M178.25,520.46a1,1,0,0,0-.67-.22,1.34,1.34,0,0,0-.58.14c-.73.4-.73,1.35-.73,2.07V526h-1.14v-6.64h1.14V520a1.77,1.77,0,0,1,1.5-.88,1.91,1.91,0,0,1,1,.27Z"/><path class="cls-1" d="M181.44,520.37V526h-1.16v-5.58h-.68v-1.06h.68v-2.4h1.16v2.4h1.16v1.06Z"/><path class="cls-1" d="M184.28,517.61a.81.81,0,0,1-.81-.81.82.82,0,0,1,.81-.82.82.82,0,0,1,.82.82A.82.82,0,0,1,184.28,517.61Zm-.57,8.34v-6.64h1.13V526Z"/><path class="cls-1" d="M187,526V514.28h1.13V526Z"/><path class="cls-1" d="M190.35,526V514.28h1.13V526Z"/><path class="cls-1" d="M194.43,522.86a2.14,2.14,0,0,0,2.11,2.24,2.3,2.3,0,0,0,2.05-1.37l1,.53a3.31,3.31,0,0,1-3,1.88,3.5,3.5,0,0,1-.07-7c2,0,3.17,1.57,3.17,3.49v.22Zm2-2.67a2,2,0,0,0-2,1.71h3.9A2,2,0,0,0,196.48,520.19Z"/><path class="cls-1" d="M52.1,552.14a3.25,3.25,0,0,1-3.29-2.75l1.15-.32A2.16,2.16,0,0,0,52.14,551a2.1,2.1,0,0,0,2.14-2.11c0-2.51-4.93-1.92-4.93-5.06a2.82,2.82,0,0,1,3-2.75,3.05,3.05,0,0,1,2.76,1.66l-1,.63a2,2,0,0,0-1.82-1.17,1.7,1.7,0,0,0-1.78,1.63c0,2.21,4.93,1.57,4.93,5A3.29,3.29,0,0,1,52.1,552.14Z"/><path class="cls-1" d="M60.46,552.14a3.5,3.5,0,1,1,3.5-3.48A3.47,3.47,0,0,1,60.46,552.14Zm0-5.95a2.46,2.46,0,1,0,2.35,2.47A2.33,2.33,0,0,0,60.44,546.19ZM59.06,544a.82.82,0,0,1-.8-.8.8.8,0,1,1,.8.8Zm2.79,0a.82.82,0,0,1-.8-.8.8.8,0,1,1,.8.8Z"/><path class="cls-1" d="M69.88,552V548c0-1-.14-1.86-1.39-1.86-1.48,0-1.65,1.28-1.65,2.45V552H65.7v-6.64h1.14v.8a2.23,2.23,0,0,1,1.92-1,2.26,2.26,0,0,1,1.89.91,3,3,0,0,1,.38,1.76V552Z"/><path class="cls-1" d="M78.28,552V551a2.82,2.82,0,0,1-2.3,1.12,3.51,3.51,0,0,1,0-7,2.87,2.87,0,0,1,2.32,1.1v-6h1.14V552Zm-2.14-5.76a2.47,2.47,0,1,0,2.2,2.42A2.22,2.22,0,0,0,76.14,546.19Z"/><path class="cls-1" d="M86.66,552V551a2.81,2.81,0,0,1-2.3,1.12,3.28,3.28,0,0,1-3.2-3.53,3.23,3.23,0,0,1,3.18-3.46,2.8,2.8,0,0,1,2.32,1.1v-.94H87.8V552Zm-2.14-5.78a2.48,2.48,0,1,0,2.21,2.44A2.24,2.24,0,0,0,84.52,546.17Z"/><path class="cls-1" d="M95.56,554.42a3.21,3.21,0,0,1-2.66,1.23,3,3,0,0,1-3.23-3h1.14a2,2,0,0,0,2.11,2c1.6,0,2.13-1.21,2.13-2.63v-1a3,3,0,0,1-2.34,1.11,3.5,3.5,0,0,1,.05-7,2.84,2.84,0,0,1,2.29,1.09v-.93H96.2v6.5A4.05,4.05,0,0,1,95.56,554.42Zm-2.67-8.25a2.29,2.29,0,0,0-2.18,2.52,2.24,2.24,0,0,0,2.18,2.41,2.48,2.48,0,0,0,0-4.93Z"/><path class="cls-1" d="M103.16,552.21l-.93-.63,6-9.18h-5.83v-1.12h7.86Z"/><path class="cls-1" d="M120.52,552V551a2.84,2.84,0,0,1-2.31,1.12,3.29,3.29,0,0,1-3.2-3.53,3.23,3.23,0,0,1,3.19-3.46,2.81,2.81,0,0,1,2.32,1.1v-.94h1.14V552Zm-2.15-5.78a2.48,2.48,0,1,0,2.21,2.44A2.24,2.24,0,0,0,118.37,546.17Z"/><path class="cls-1" d="M127.29,552.14A2.84,2.84,0,0,1,125,551v4.68h-1.14V545.31H125v.93a2.86,2.86,0,0,1,2.3-1.09,3.29,3.29,0,0,1,3.2,3.52A3.25,3.25,0,0,1,127.29,552.14Zm-.18-6a2.29,2.29,0,0,0-2.21,2.5,2.21,2.21,0,1,0,4.4,0A2.3,2.3,0,0,0,127.11,546.17Z"/><path class="cls-1" d="M135.33,546.46a1,1,0,0,0-.67-.22,1.26,1.26,0,0,0-.57.14c-.74.4-.74,1.35-.74,2.07V552h-1.14v-6.64h1.14V546a1.77,1.77,0,0,1,1.5-.88,1.91,1.91,0,0,1,1,.27Z"/><path class="cls-1" d="M137.51,543.61a.82.82,0,0,1-.82-.81.82.82,0,1,1,1.64,0A.82.82,0,0,1,137.51,543.61Zm-.58,8.34v-6.64h1.14V552Z"/><path class="cls-1" d="M140.26,552V540.28h1.14V552Z"/><path class="cls-1" d="M151.69,552l-2.69-3-.29.28V552h-1.14V540.28h1.14v7.48l2.42-2.45h1.52l-2.85,2.82,3.37,3.82Z"/><path class="cls-1" d="M154.31,552V540.28h1.14V552Z"/><path class="cls-1" d="M164.77,552V542.4H163l.62-1.12H166V552Z"/><path class="cls-1" d="M176.57,550.21V552h-1.19v-1.74h-5.47l6.66-9.53v8.44h1.31v1.09Zm-1.19-5.91L172,549.12h3.38Z"/><path class="cls-1" d="M178.67,549.06v-1h2.9v1Z"/><path class="cls-1" d="M185.81,552V542.4H184l.62-1.12H187V552Z"/><path class="cls-1" d="M194.44,552.13a3.71,3.71,0,0,1-3.27-1.91l1-.67a2.8,2.8,0,0,0,2.41,1.47,2.64,2.64,0,0,0,2.64-2.7,2.59,2.59,0,0,0-2.62-2.66,3.75,3.75,0,0,0-2.07.74l1.56-5.12h4.24v1.12h-3.41l-.71,2.27a2.48,2.48,0,0,1,.61-.06,3.53,3.53,0,0,1,3.59,3.69A3.79,3.79,0,0,1,194.44,552.13Z"/></svg>