<svg id="Layer_1" data-name="Layer 1" xmlns="http://www.w3.org/2000/svg" viewBox="0 0 250 720"><defs><style>.cls-1{fill:#d80201;}</style></defs><title>text</title><path class="cls-1" d="M26.06,526.14a3.25,3.25,0,0,1-3.3-2.75l1.15-.32A2.16,2.16,0,0,0,26.09,525a2.1,2.1,0,0,0,2.14-2.11c0-2.51-4.93-1.92-4.93-5.06a2.83,2.83,0,0,1,3-2.75,3,3,0,0,1,2.75,1.66l-.95.63a2,2,0,0,0-1.82-1.17,1.7,1.7,0,0,0-1.78,1.63c0,2.21,4.93,1.57,4.93,5A3.28,3.28,0,0,1,26.06,526.14Z"/><path class="cls-1" d="M34.41,526.14a3.5,3.5,0,1,1,3.5-3.48A3.47,3.47,0,0,1,34.41,526.14Zm0-5.95a2.46,2.46,0,1,0,2.35,2.47A2.33,2.33,0,0,0,34.39,520.19Z"/><path class="cls-1" d="M39.65,526V514.28h1.14V526Z"/><path class="cls-1" d="M46.41,526.14A2.82,2.82,0,0,1,44.1,525V526H43V514.28H44.1v6a2.87,2.87,0,0,1,2.32-1.1,3.51,3.51,0,0,1,0,7Zm-.16-5.95A2.24,2.24,0,0,0,44,522.64a2.21,2.21,0,1,0,2.21-2.45Z"/><path class="cls-1" d="M56.42,526V525a2.81,2.81,0,0,1-2.3,1.12,3.28,3.28,0,0,1-3.2-3.53,3.23,3.23,0,0,1,3.18-3.46,2.8,2.8,0,0,1,2.32,1.1v-.94h1.14V526Zm-2.14-5.78a2.48,2.48,0,1,0,2.21,2.44A2.24,2.24,0,0,0,54.28,520.17Z"/><path class="cls-1" d="M62.84,526.14a3.5,3.5,0,1,1,0-7,3.61,3.61,0,0,1,2.06.64v1.5a2.65,2.65,0,0,0-2.08-1.1,2.38,2.38,0,0,0-2.35,2.47,2.34,2.34,0,0,0,2.32,2.44A2.67,2.67,0,0,0,65,524v1.51A3.61,3.61,0,0,1,62.84,526.14Z"/><path class="cls-1" d="M70.81,526l-2.69-3-.29.28V526H66.69V514.28h1.14v7.48l2.42-2.45h1.52l-2.85,2.82L72.3,526Z"/><path class="cls-1" d="M78.15,526V525a2.82,2.82,0,0,1-2.3,1.12,3.28,3.28,0,0,1-3.2-3.53,3.23,3.23,0,0,1,3.18-3.46,2.8,2.8,0,0,1,2.32,1.1v-.94h1.14V526ZM76,520.17a2.48,2.48,0,1,0,2.21,2.44A2.24,2.24,0,0,0,76,520.17Z"/><path class="cls-1" d="M88.47,526.14a3.27,3.27,0,0,1-3.3-2.75l1.16-.32A2.16,2.16,0,0,0,88.5,525a2.11,2.11,0,0,0,2.15-2.11c0-2.51-4.93-1.92-4.93-5.06a2.82,2.82,0,0,1,3-2.75,3,3,0,0,1,2.75,1.66l-.94.63a2,2,0,0,0-1.83-1.17,1.69,1.69,0,0,0-1.77,1.63c0,2.21,4.93,1.57,4.93,5A3.29,3.29,0,0,1,88.47,526.14Z"/><path class="cls-1" d="M94.89,520.37V526H93.73v-5.58h-.68v-1.06h.68v-2.4h1.16v2.4h1.16v1.06Z"/><path class="cls-1" d="M100.28,520.46a1,1,0,0,0-.67-.22,1.3,1.3,0,0,0-.58.14c-.74.4-.74,1.35-.74,2.07V526H97.16v-6.64h1.13V520a1.79,1.79,0,0,1,1.51-.88,1.9,1.9,0,0,1,1,.27Z"/><path class="cls-1" d="M106.78,526V525a2.84,2.84,0,0,1-2.31,1.12,3.29,3.29,0,0,1-3.2-3.53,3.23,3.23,0,0,1,3.18-3.46,2.83,2.83,0,0,1,2.33,1.1v-.94h1.13V526Zm-2.15-5.78a2.48,2.48,0,1,0,2.21,2.44A2.24,2.24,0,0,0,104.63,520.17Z"/><path class="cls-1" d="M114.26,526V522c0-1-.14-1.86-1.39-1.86-1.47,0-1.65,1.28-1.65,2.45V526h-1.14v-6.64h1.14v.8a2.23,2.23,0,0,1,1.92-1,2.26,2.26,0,0,1,1.89.91,3,3,0,0,1,.39,1.76V526Z"/><path class="cls-1" d="M122.66,526V525a2.82,2.82,0,0,1-2.3,1.12,3.51,3.51,0,0,1,0-7,2.87,2.87,0,0,1,2.32,1.1v-6h1.14V526Zm-2.14-5.76a2.47,2.47,0,1,0,2.21,2.42A2.23,2.23,0,0,0,120.52,520.19Z"/><path class="cls-1" d="M128.28,526.38,125,519.31h1.28l2,4.47,2-4.47h1.28Z"/><path class="cls-1" d="M137.81,526V525a2.81,2.81,0,0,1-2.3,1.12,3.28,3.28,0,0,1-3.2-3.53,3.23,3.23,0,0,1,3.18-3.46,2.8,2.8,0,0,1,2.32,1.1v-.94H139V526Zm-2.14-5.78a2.48,2.48,0,1,0,2.21,2.44A2.24,2.24,0,0,0,135.67,520.17ZM134.34,518a.82.82,0,0,1-.8-.8.8.8,0,1,1,.8.8Zm2.79,0a.81.81,0,0,1-.8-.8.8.8,0,1,1,.8.8Z"/><path class="cls-1" d="M146.71,528.42a3.21,3.21,0,0,1-2.66,1.23,3,3,0,0,1-3.23-3H142a2,2,0,0,0,2.11,2c1.6,0,2.13-1.21,2.13-2.63v-1a3,3,0,0,1-2.34,1.11,3.5,3.5,0,0,1,0-7,2.84,2.84,0,0,1,2.29,1.09v-.93h1.15v6.5A4.05,4.05,0,0,1,146.71,528.42ZM144,520.17a2.29,2.29,0,0,0-2.18,2.52A2.24,2.24,0,0,0,144,525.1a2.48,2.48,0,0,0,0-4.93Z"/><path class="cls-1" d="M156.68,526V516.4H154.9l.63-1.12h2.33V526Z"/><path class="cls-1" d="M162.64,528.39l-.75-.31,1.31-3.7,1.06.39Z"/><path class="cls-1" d="M171.72,517.72V526h-1.19V514.83l8.31,8.72v-8.27H180v11.15Z"/><path class="cls-1" d="M185.59,526.14a3.5,3.5,0,1,1,3.5-3.48A3.47,3.47,0,0,1,185.59,526.14Zm0-5.95a2.46,2.46,0,1,0,2.36,2.47A2.32,2.32,0,0,0,185.57,520.19Z"/><path class="cls-1" d="M194,520.46a1,1,0,0,0-.67-.22,1.27,1.27,0,0,0-.58.14c-.74.4-.74,1.35-.74,2.07V526h-1.13v-6.64H192V520a1.77,1.77,0,0,1,1.51-.88,1.9,1.9,0,0,1,1,.27Z"/><path class="cls-1" d="M198.68,520.46a1,1,0,0,0-.68-.22,1.26,1.26,0,0,0-.57.14c-.74.4-.74,1.35-.74,2.07V526h-1.13v-6.64h1.13V520a1.77,1.77,0,0,1,1.51-.88,1.9,1.9,0,0,1,1,.27Z"/><path class="cls-1" d="M201.86,520.37V526h-1.15v-5.58H200v-1.06h.69v-2.4h1.15v2.4H203v1.06Z"/><path class="cls-1" d="M209.21,526V525a2.84,2.84,0,0,1-2.31,1.12,3.29,3.29,0,0,1-3.2-3.53,3.23,3.23,0,0,1,3.18-3.46,2.83,2.83,0,0,1,2.33,1.1v-.94h1.13V526Zm-2.15-5.78a2.48,2.48,0,1,0,2.21,2.44A2.24,2.24,0,0,0,207.06,520.17ZM205.73,518a.82.82,0,0,1-.8-.8.8.8,0,1,1,.8.8Zm2.79,0a.81.81,0,0,1-.8-.8.8.8,0,1,1,.8.8Z"/><path class="cls-1" d="M212.52,526V514.28h1.13V526Z"/><path class="cls-1" d="M216.4,517.61a.81.81,0,0,1-.81-.81.82.82,0,1,1,.81.81Zm-.57,12.09V519.31H217V529.7Z"/><path class="cls-1" d="M219.92,522.86A2.16,2.16,0,0,0,222,525.1a2.28,2.28,0,0,0,2-1.37l1,.53a3.32,3.32,0,0,1-3.05,1.88,3.5,3.5,0,0,1-.06-7,3.18,3.18,0,0,1,3.17,3.49v.22Zm2.05-2.67a2,2,0,0,0-2,1.71h3.91A2,2,0,0,0,222,520.19Z"/><path class="cls-1" d="M44.84,552.14a3.26,3.26,0,0,1-3.3-2.75l1.15-.32A2.17,2.17,0,0,0,44.87,551,2.11,2.11,0,0,0,47,548.91c0-2.51-4.93-1.92-4.93-5.06a2.82,2.82,0,0,1,3-2.75,3,3,0,0,1,2.75,1.66l-.94.63a2,2,0,0,0-1.83-1.17,1.69,1.69,0,0,0-1.77,1.63c0,2.21,4.93,1.57,4.93,5A3.29,3.29,0,0,1,44.84,552.14Z"/><path class="cls-1" d="M53.19,552.14a3.5,3.5,0,1,1,3.51-3.48A3.47,3.47,0,0,1,53.19,552.14Zm0-5.95a2.46,2.46,0,1,0,2.35,2.47A2.33,2.33,0,0,0,53.18,546.19ZM51.8,544a.82.82,0,0,1-.8-.8.8.8,0,1,1,.8.8Zm2.78,0a.82.82,0,0,1-.8-.8.8.8,0,1,1,.8.8Z"/><path class="cls-1" d="M62.62,552V548c0-1-.15-1.86-1.4-1.86-1.47,0-1.65,1.28-1.65,2.45V552H58.44v-6.64h1.13v.8a2.41,2.41,0,0,1,3.81-.05,3,3,0,0,1,.39,1.76V552Z"/><path class="cls-1" d="M71,552V551a2.84,2.84,0,0,1-2.31,1.12,3.51,3.51,0,0,1,0-7,2.87,2.87,0,0,1,2.33,1.1v-6h1.13V552Zm-2.15-5.76a2.47,2.47,0,1,0,2.21,2.42A2.23,2.23,0,0,0,68.87,546.19Z"/><path class="cls-1" d="M79.4,552V551a2.82,2.82,0,0,1-2.31,1.12,3.29,3.29,0,0,1-3.2-3.53,3.23,3.23,0,0,1,3.19-3.46,2.8,2.8,0,0,1,2.32,1.1v-.94h1.14V552Zm-2.15-5.78a2.48,2.48,0,1,0,2.21,2.44A2.24,2.24,0,0,0,77.25,546.17Z"/><path class="cls-1" d="M88.3,554.42a3.24,3.24,0,0,1-2.66,1.23,3,3,0,0,1-3.23-3h1.13a2,2,0,0,0,2.11,2c1.61,0,2.13-1.21,2.13-2.63v-1a3,3,0,0,1-2.33,1.11,3.5,3.5,0,0,1,0-7,2.84,2.84,0,0,1,2.29,1.09v-.93h1.16v6.5A4.05,4.05,0,0,1,88.3,554.42Zm-2.68-8.25a2.28,2.28,0,0,0-2.17,2.52,2.23,2.23,0,0,0,2.17,2.41,2.48,2.48,0,0,0,0-4.93Z"/><path class="cls-1" d="M99.43,548.35l-2.19,2.5h4.48V552h-6.9l3.89-4.5c.72-.83,1.84-2,1.84-3.18a2.07,2.07,0,0,0-2.13-2.07,2.1,2.1,0,0,0-2.13,2.2h-1.2a4.47,4.47,0,0,1,.23-1.2,3.33,3.33,0,0,1,6.42,1.09C101.74,545.89,100.42,547.23,99.43,548.35Z"/><path class="cls-1" d="M107.33,552V542.4h-1.77l.62-1.12h2.34V552Z"/><path class="cls-1" d="M120.34,552.14a3.5,3.5,0,1,1,3.51-3.48A3.47,3.47,0,0,1,120.34,552.14Zm0-5.95a2.46,2.46,0,1,0,2.35,2.47A2.33,2.33,0,0,0,120.33,546.19Z"/><path class="cls-1" d="M129.7,552l-2.69-3-.28.28V552h-1.14V540.28h1.14v7.48l2.41-2.45h1.52l-2.85,2.82,3.38,3.82Z"/><path class="cls-1" d="M133.48,546.37V552h-1.16v-5.58h-.68v-1.06h.68v-2.4h1.16v2.4h1.17v1.06Z"/><path class="cls-1" d="M138.84,552.14a3.5,3.5,0,1,1,3.5-3.48A3.47,3.47,0,0,1,138.84,552.14Zm0-5.95a2.46,2.46,0,1,0,2.35,2.47A2.33,2.33,0,0,0,138.82,546.19Z"/><path class="cls-1" d="M147.53,552.14a2.82,2.82,0,0,1-2.31-1.12V552h-1.14V540.28h1.14v6a2.87,2.87,0,0,1,2.32-1.1,3.51,3.51,0,0,1,0,7Zm-.16-5.95a2.24,2.24,0,0,0-2.21,2.45,2.21,2.21,0,1,0,2.21-2.45Z"/><path class="cls-1" d="M153.24,548.86a2.14,2.14,0,0,0,2.11,2.24,2.3,2.3,0,0,0,2.05-1.37l1,.53a3.31,3.31,0,0,1-3,1.88,3.5,3.5,0,0,1-.07-7c2,0,3.17,1.57,3.17,3.49v.22Zm2-2.67a2,2,0,0,0-2,1.71h3.9A2,2,0,0,0,155.29,546.19Z"/><path class="cls-1" d="M163.29,546.46a1,1,0,0,0-.68-.22,1.26,1.26,0,0,0-.57.14c-.74.4-.74,1.35-.74,2.07V552h-1.14v-6.64h1.14V546a1.77,1.77,0,0,1,1.5-.88,1.91,1.91,0,0,1,1,.27Z"/><path class="cls-1" d="M172,552V542.4h-1.78l.62-1.12h2.34V552Z"/><path class="cls-1" d="M181.08,552.13a3.34,3.34,0,0,1-2.47-1.06,2.82,2.82,0,0,1-.7-1.89h1.15a2,2,0,0,0,.37,1,2.12,2.12,0,0,0,1.68.8,2.08,2.08,0,0,0,2.1-2.12c0-1.4-1-2-2.28-2v-1a2.42,2.42,0,0,0,1.27-.26,1.83,1.83,0,0,0-1-3.38,1.8,1.8,0,0,0-1.46.69,2.93,2.93,0,0,0-.35,1h-1.17c.24-1.73,1.16-2.8,3-2.8a2.85,2.85,0,0,1,3,2.86,2.6,2.6,0,0,1-1.38,2.37,2.72,2.72,0,0,1,1.54,2.58A3.17,3.17,0,0,1,181.08,552.13Z"/><path class="cls-1" d="M185.94,549.06v-1h2.9v1Z"/><path class="cls-1" d="M193.08,552V542.4H191.3l.62-1.12h2.34V552Z"/><path class="cls-1" d="M201.7,552.13a3.72,3.72,0,0,1-3.27-1.91l.95-.67A2.81,2.81,0,0,0,201.8,551a2.64,2.64,0,0,0,2.64-2.7,2.6,2.6,0,0,0-2.63-2.66,3.72,3.72,0,0,0-2.06.74l1.55-5.12h4.24v1.12h-3.41l-.7,2.27a2.43,2.43,0,0,1,.61-.06,3.53,3.53,0,0,1,3.58,3.69A3.79,3.79,0,0,1,201.7,552.13Z"/></svg>