<svg id="Layer_1" data-name="Layer 1" xmlns="http://www.w3.org/2000/svg" viewBox="0 0 250 720"><defs><style>.cls-1{fill:#d80201;}</style></defs><title>text</title><path class="cls-1" d="M51.3,516.4v3.17h3.55v1.1H51.3V526H50.11V515.28H55v1.12Z"/><path class="cls-1" d="M57.31,517.61a.82.82,0,1,1,.82-.82A.82.82,0,0,1,57.31,517.61Zm-.58,12.08V519.31h1.14V529.7Z"/><path class="cls-1" d="M65.14,526V525a2.84,2.84,0,0,1-2.31,1.12,3.29,3.29,0,0,1-3.2-3.54,3.23,3.23,0,0,1,3.19-3.46,2.81,2.81,0,0,1,2.32,1.1v-.94h1.14V526ZM63,520.17a2.26,2.26,0,0,0-2.19,2.43A2.29,2.29,0,0,0,63,525.1a2.27,2.27,0,0,0,2.21-2.5A2.24,2.24,0,0,0,63,520.17Zm-1.33-2.22a.81.81,0,0,1-.8-.8.8.8,0,1,1,.8.8Zm2.79,0a.81.81,0,0,1-.8-.8.8.8,0,1,1,.8.8Z"/><path class="cls-1" d="M71.57,520.46a1,1,0,0,0-.67-.22,1.23,1.23,0,0,0-.58.14c-.74.4-.74,1.34-.74,2.07V526H68.45v-6.64h1.14V520a1.78,1.78,0,0,1,1.5-.88,1.89,1.89,0,0,1,1,.27Z"/><path class="cls-1" d="M73.74,517.61a.82.82,0,1,1,.82-.82A.82.82,0,0,1,73.74,517.61ZM73.17,526v-6.64H74.3V526Z"/><path class="cls-1" d="M76.49,526V514.28h1.14V526Z"/><path class="cls-1" d="M81.6,526.14a2.37,2.37,0,0,1-2.32-1.7l1-.42c.27.59.64,1.07,1.34,1.07a1,1,0,0,0,1.09-1c0-1.44-3-1-3-3.06a1.87,1.87,0,0,1,1.94-1.86,2,2,0,0,1,1.82,1.2l-.94.5a1.06,1.06,0,0,0-.93-.66.79.79,0,0,0-.8.74c0,1.17,3.07.86,3.07,3A2.18,2.18,0,0,1,81.6,526.14Z"/><path class="cls-1" d="M87.71,526.38l-3.27-7.08h1.28l2,4.47,2-4.47H91Z"/><path class="cls-1" d="M97.25,526V525a2.84,2.84,0,0,1-2.31,1.12,3.29,3.29,0,0,1-3.2-3.54,3.23,3.23,0,0,1,3.19-3.46,2.81,2.81,0,0,1,2.32,1.1v-.94h1.14V526Zm-2.15-5.78a2.26,2.26,0,0,0-2.19,2.43,2.29,2.29,0,0,0,2.19,2.5,2.27,2.27,0,0,0,2.21-2.5A2.24,2.24,0,0,0,95.1,520.17Zm-1.33-2.22a.81.81,0,0,1-.8-.8.8.8,0,1,1,.8.8Zm2.79,0a.81.81,0,0,1-.8-.8.8.8,0,1,1,.8.8Z"/><path class="cls-1" d="M106.14,528.42a3.22,3.22,0,0,1-2.66,1.23,3,3,0,0,1-3.23-3h1.14a2,2,0,0,0,2.11,2c1.6,0,2.13-1.2,2.13-2.62v-1a3,3,0,0,1-2.34,1.1,3.5,3.5,0,0,1,0-7,2.84,2.84,0,0,1,2.29,1.09v-.93h1.15v6.5A4,4,0,0,1,106.14,528.42Zm-2.67-8.24a2.28,2.28,0,0,0-2.18,2.51,2.24,2.24,0,0,0,2.18,2.42,2.48,2.48,0,0,0,0-4.93Z"/><path class="cls-1" d="M109.73,522.86a2.15,2.15,0,0,0,2.11,2.24,2.29,2.29,0,0,0,2-1.38l1,.53a3.32,3.32,0,0,1-3,1.89,3.51,3.51,0,0,1-.06-7c2,0,3.17,1.57,3.17,3.49v.22Zm2-2.67a2,2,0,0,0-2,1.71h3.91A2,2,0,0,0,111.77,520.19Z"/><path class="cls-1" d="M120.83,526V522c0-1-.14-1.86-1.39-1.86-1.47,0-1.65,1.28-1.65,2.45V526h-1.14v-6.64h1.14v.8a2.41,2.41,0,0,1,3.81,0,3,3,0,0,1,.38,1.76V526Z"/><path class="cls-1" d="M132.48,522.35l-2.19,2.5h4.48V526h-6.9l3.89-4.5c.72-.83,1.84-2,1.84-3.18a2.13,2.13,0,0,0-4.26.13h-1.2a4.4,4.4,0,0,1,.22-1.2,3.33,3.33,0,0,1,6.42,1.09C134.78,519.89,133.47,521.23,132.48,522.35Z"/><path class="cls-1" d="M137.28,528.39l-.75-.3,1.31-3.7,1.06.38Z"/><path class="cls-1" d="M148.21,526.59l-4.32-11.32h1.3l3,8.15,3-8.15h1.28Z"/><path class="cls-1" d="M153.77,522.86a2.15,2.15,0,0,0,2.11,2.24,2.29,2.29,0,0,0,2-1.38l1,.53a3.31,3.31,0,0,1-3,1.89,3.51,3.51,0,0,1-.06-7c2,0,3.17,1.57,3.17,3.49v.22Zm2-2.67a2,2,0,0,0-2,1.71h3.91A2,2,0,0,0,155.82,520.19Z"/><path class="cls-1" d="M161.85,520.37V526H160.7v-5.59H160v-1.06h.69v-2.4h1.15v2.4H163v1.06Z"/><path class="cls-1" d="M164.12,526V514.28h1.14V526Z"/><path class="cls-1" d="M172.51,526V525a2.84,2.84,0,0,1-2.31,1.12,3.29,3.29,0,0,1-3.2-3.54,3.23,3.23,0,0,1,3.19-3.46,2.81,2.81,0,0,1,2.32,1.1v-.94h1.14V526Zm-2.15-5.78a2.26,2.26,0,0,0-2.19,2.43,2.29,2.29,0,0,0,2.19,2.5,2.27,2.27,0,0,0,2.21-2.5A2.24,2.24,0,0,0,170.36,520.17Z"/><path class="cls-1" d="M180,526V522c0-1-.14-1.86-1.39-1.86-1.47,0-1.65,1.28-1.65,2.45V526h-1.14v-6.64H177v.8a2.24,2.24,0,0,1,1.92-1,2.27,2.27,0,0,1,1.89.91,3,3,0,0,1,.38,1.76V526Z"/><path class="cls-1" d="M188.4,526V525a2.84,2.84,0,0,1-2.31,1.12,3.29,3.29,0,0,1-3.2-3.52,3.25,3.25,0,0,1,3.19-3.47,2.85,2.85,0,0,1,2.32,1.1v-6h1.14V526Zm-2.15-5.76a2.47,2.47,0,1,0,2.21,2.42A2.23,2.23,0,0,0,186.25,520.19Z"/><path class="cls-1" d="M196.78,526V525a2.84,2.84,0,0,1-2.31,1.12,3.29,3.29,0,0,1-3.2-3.54,3.23,3.23,0,0,1,3.19-3.46,2.81,2.81,0,0,1,2.32,1.1v-.94h1.14V526Zm-2.15-5.78a2.26,2.26,0,0,0-2.19,2.43,2.29,2.29,0,0,0,2.19,2.5,2.27,2.27,0,0,0,2.21-2.5A2.24,2.24,0,0,0,194.64,520.17Z"/><path class="cls-1" d="M46.84,552.14a3.26,3.26,0,0,1-3.3-2.75l1.15-.32a2.17,2.17,0,0,0,2.18,2A2.11,2.11,0,0,0,49,548.91c0-2.51-4.93-1.92-4.93-5.06a2.82,2.82,0,0,1,3-2.75,3,3,0,0,1,2.75,1.67l-.94.62a2,2,0,0,0-1.82-1.17,1.69,1.69,0,0,0-1.78,1.63c0,2.21,4.93,1.57,4.93,5A3.29,3.29,0,0,1,46.84,552.14Z"/><path class="cls-1" d="M55.19,552.14a3.5,3.5,0,1,1,3.51-3.49A3.47,3.47,0,0,1,55.19,552.14Zm0-6a2.46,2.46,0,1,0,2.35,2.46A2.33,2.33,0,0,0,55.18,546.19Zm-1.38-2.24a.81.81,0,0,1-.8-.8.8.8,0,1,1,.8.8Zm2.79,0a.81.81,0,0,1-.8-.8.8.8,0,1,1,.8.8Z"/><path class="cls-1" d="M64.62,552V548c0-1-.14-1.86-1.39-1.86-1.47,0-1.65,1.28-1.65,2.45V552H60.44v-6.64h1.14v.8a2.24,2.24,0,0,1,1.92-1,2.27,2.27,0,0,1,1.89.91,3,3,0,0,1,.38,1.76V552Z"/><path class="cls-1" d="M73,552V551a2.84,2.84,0,0,1-2.31,1.12,3.29,3.29,0,0,1-3.2-3.52,3.25,3.25,0,0,1,3.19-3.47,2.85,2.85,0,0,1,2.32,1.1v-6h1.14V552Zm-2.15-5.76a2.47,2.47,0,1,0,2.21,2.42A2.23,2.23,0,0,0,70.87,546.19Z"/><path class="cls-1" d="M81.4,552V551a2.84,2.84,0,0,1-2.31,1.12,3.29,3.29,0,0,1-3.2-3.54,3.23,3.23,0,0,1,3.19-3.46,2.81,2.81,0,0,1,2.32,1.1v-.94h1.14V552Zm-2.15-5.78a2.26,2.26,0,0,0-2.19,2.43,2.29,2.29,0,0,0,2.19,2.5,2.27,2.27,0,0,0,2.21-2.5A2.24,2.24,0,0,0,79.25,546.17Z"/><path class="cls-1" d="M90.3,554.42a3.22,3.22,0,0,1-2.66,1.23,3,3,0,0,1-3.23-3h1.14a2,2,0,0,0,2.11,2c1.6,0,2.13-1.2,2.13-2.62v-1a3,3,0,0,1-2.34,1.1,3.5,3.5,0,0,1,0-7,2.84,2.84,0,0,1,2.29,1.09v-.93h1.15v6.5A4,4,0,0,1,90.3,554.42Zm-2.67-8.24a2.28,2.28,0,0,0-2.18,2.51,2.24,2.24,0,0,0,2.18,2.42,2.48,2.48,0,0,0,0-4.93Z"/><path class="cls-1" d="M100.26,552V542.4H98.49l.62-1.12h2.34V552Z"/><path class="cls-1" d="M109.72,552.13a3.13,3.13,0,0,1-3.27-3.12A2.79,2.79,0,0,1,108,546.4a2.68,2.68,0,0,1-1.3-2.34,3,3,0,0,1,6,0,2.83,2.83,0,0,0,.21,4.93A3.1,3.1,0,0,1,109.72,552.13Zm0-5.19a2,2,0,1,0,2.06,2A2,2,0,0,0,109.69,546.94Zm0-4.74a1.86,1.86,0,1,0,1.86,1.86A1.86,1.86,0,0,0,109.72,542.2Z"/><path class="cls-1" d="M126.82,552v-4c0-.85-.14-1.75-1.2-1.75s-1.42,1.12-1.42,2.08V552h-1.14V548c0-.83-.18-1.84-1.22-1.84a1.37,1.37,0,0,0-1.2.72,3.16,3.16,0,0,0-.26,1.44V552h-1.14v-6.64h1.14v.7a1.89,1.89,0,0,1,1.65-.86,2,2,0,0,1,1.82,1.07,2.26,2.26,0,0,1,3.73-.18,3.11,3.11,0,0,1,.37,1.7V552Z"/><path class="cls-1" d="M135.21,552V551a2.84,2.84,0,0,1-2.31,1.12,3.29,3.29,0,0,1-3.2-3.54,3.23,3.23,0,0,1,3.19-3.46,2.81,2.81,0,0,1,2.32,1.1v-.94h1.14V552Zm-2.15-5.78a2.26,2.26,0,0,0-2.19,2.43,2.29,2.29,0,0,0,2.19,2.5,2.27,2.27,0,0,0,2.21-2.5A2.24,2.24,0,0,0,133.06,546.17Z"/><path class="cls-1" d="M141.64,546.46a1,1,0,0,0-.67-.22,1.23,1.23,0,0,0-.58.14c-.74.4-.74,1.34-.74,2.07V552h-1.14v-6.64h1.14V546a1.77,1.77,0,0,1,1.5-.88,1.89,1.89,0,0,1,1,.27Z"/><path class="cls-1" d="M145,552.14a2.37,2.37,0,0,1-2.32-1.7l1-.42c.27.59.64,1.07,1.34,1.07a1,1,0,0,0,1.09-1c0-1.44-3-1-3-3.06a1.87,1.87,0,0,1,1.94-1.86,2,2,0,0,1,1.82,1.2l-.94.5a1.06,1.06,0,0,0-.93-.66.79.79,0,0,0-.8.74c0,1.17,3.07.86,3.07,3A2.18,2.18,0,0,1,145,552.14Z"/><path class="cls-1" d="M157,552l-2.69-3-.29.29V552h-1.14V540.28H154v7.48l2.42-2.45h1.52l-2.85,2.82,3.38,3.83Z"/><path class="cls-1" d="M159.57,552V540.28h1.14V552Z"/><path class="cls-1" d="M170,552V542.4h-1.78l.63-1.12h2.34V552Z"/><path class="cls-1" d="M181.83,550.21V552h-1.18v-1.74h-5.47l6.66-9.52v8.44h1.31v1.09Zm-1.18-5.91-3.38,4.82h3.38Z"/><path class="cls-1" d="M183.94,549.06v-1h2.9v1Z"/><path class="cls-1" d="M191.08,552V542.4H189.3l.63-1.12h2.34V552Z"/><path class="cls-1" d="M200.45,552.13a3.67,3.67,0,0,1-3.7-3.62,4.27,4.27,0,0,1,.88-2.45l3.63-5,.9.67-2.45,3.41a3.37,3.37,0,0,1,1-.14,3.47,3.47,0,0,1,3.43,3.52A3.68,3.68,0,0,1,200.45,552.13Zm0-6.12a2.51,2.51,0,1,0,2.5,2.5A2.5,2.5,0,0,0,200.44,546Z"/></svg>