<svg id="Layer_1" data-name="Layer 1" xmlns="http://www.w3.org/2000/svg" viewBox="0 0 250 720"><defs><style>.cls-1{fill:#d80201;}</style></defs><title>text</title><path class="cls-1" d="M28.06,524.72A5.56,5.56,0,0,1,24.16,526H22V515.28h2.18a5.73,5.73,0,0,1,3.94,1.25,5.21,5.21,0,0,1,1.82,4.1A5.13,5.13,0,0,1,28.06,524.72Zm-3.84-8.32h-1v8.45h1a4.47,4.47,0,0,0,3.06-1,4.21,4.21,0,0,0,1.46-3.25C28.74,517.93,26.82,516.4,24.22,516.4Z"/><path class="cls-1" d="M32.4,517.61a.82.82,0,1,1,.82-.82A.82.82,0,0,1,32.4,517.61ZM31.82,526v-6.64H33V526Z"/><path class="cls-1" d="M40.74,528.42a3.22,3.22,0,0,1-2.66,1.23,3,3,0,0,1-3.23-3H36a2,2,0,0,0,2.11,2c1.6,0,2.13-1.2,2.13-2.62v-1a3,3,0,0,1-2.34,1.1,3.5,3.5,0,0,1,0-7,2.84,2.84,0,0,1,2.29,1.09v-.93h1.15v6.5A4,4,0,0,1,40.74,528.42Zm-2.67-8.24a2.28,2.28,0,0,0-2.18,2.51,2.24,2.24,0,0,0,2.18,2.42,2.48,2.48,0,0,0,0-4.93Z"/><path class="cls-1" d="M44.32,522.86a2.15,2.15,0,0,0,2.11,2.24,2.29,2.29,0,0,0,2-1.38l1,.53a3.32,3.32,0,0,1-3,1.89,3.51,3.51,0,0,1-.06-7c2,0,3.17,1.57,3.17,3.49v.22Zm2-2.67a2,2,0,0,0-2,1.71H48.3A2,2,0,0,0,46.37,520.19Z"/><path class="cls-1" d="M54.37,520.46a1,1,0,0,0-.67-.22,1.23,1.23,0,0,0-.58.14c-.74.4-.74,1.34-.74,2.07V526H51.25v-6.64h1.14V520a1.78,1.78,0,0,1,1.5-.88,1.89,1.89,0,0,1,1,.27Z"/><path class="cls-1" d="M60.14,526V522c0-1-.14-1.86-1.39-1.86-1.47,0-1.65,1.28-1.65,2.45V526H56v-6.64H57.1v.8a2.41,2.41,0,0,1,3.81,0,3,3,0,0,1,.38,1.76V526Z"/><path class="cls-1" d="M68.54,526V525a2.84,2.84,0,0,1-2.31,1.12,3.29,3.29,0,0,1-3.2-3.54,3.23,3.23,0,0,1,3.19-3.46,2.81,2.81,0,0,1,2.32,1.1v-.94h1.14V526Zm-2.15-5.78a2.26,2.26,0,0,0-2.19,2.43,2.29,2.29,0,0,0,2.19,2.5,2.27,2.27,0,0,0,2.21-2.5A2.24,2.24,0,0,0,66.4,520.17Zm-1.33-2.22a.81.81,0,0,1-.8-.8.8.8,0,1,1,.8.8Zm2.79,0a.81.81,0,0,1-.8-.8.8.8,0,1,1,.8.8Z"/><path class="cls-1" d="M73.65,526.14a2.37,2.37,0,0,1-2.32-1.7l1-.42c.27.59.64,1.07,1.34,1.07a1,1,0,0,0,1.09-1c0-1.44-3-1-3-3.06a1.87,1.87,0,0,1,1.94-1.86,2,2,0,0,1,1.82,1.2l-.94.5a1.06,1.06,0,0,0-.93-.66.79.79,0,0,0-.8.74c0,1.17,3.07.86,3.07,3A2.18,2.18,0,0,1,73.65,526.14Z"/><path class="cls-1" d="M85,526.13A3.13,3.13,0,0,1,81.73,523a2.79,2.79,0,0,1,1.58-2.61,2.68,2.68,0,0,1-1.3-2.34,3,3,0,0,1,6,0,2.83,2.83,0,0,0,.21,4.93A3.1,3.1,0,0,1,85,526.13Zm0-5.19A2,2,0,1,0,87,523,2,2,0,0,0,85,520.94Zm0-4.74a1.86,1.86,0,1,0,1.86,1.86A1.86,1.86,0,0,0,85,516.2Z"/><path class="cls-1" d="M94.85,522.35l-2.19,2.5h4.48V526h-6.9l3.89-4.5c.72-.83,1.84-2,1.84-3.18a2.13,2.13,0,0,0-4.26.13h-1.2a4.42,4.42,0,0,1,.22-1.2,3.33,3.33,0,0,1,6.42,1.09C97.15,519.89,95.84,521.23,94.85,522.35Z"/><path class="cls-1" d="M100.38,526.21l-.93-.62,6.05-9.19H99.68v-1.12h7.86Z"/><path class="cls-1" d="M108.72,528.39l-.75-.3,1.31-3.7,1.06.38Z"/><path class="cls-1" d="M117.79,516.4v3.17h3.55v1.1h-3.55V526H116.6V515.28h4.85v1.12Z"/><path class="cls-1" d="M126.13,520.46a1,1,0,0,0-.67-.22,1.23,1.23,0,0,0-.58.14c-.74.4-.74,1.34-.74,2.07V526H123v-6.64h1.14V520a1.78,1.78,0,0,1,1.5-.88,1.89,1.89,0,0,1,1,.27Z"/><path class="cls-1" d="M130.81,526.14a3.5,3.5,0,1,1,3.51-3.49A3.47,3.47,0,0,1,130.81,526.14Zm0-6a2.46,2.46,0,1,0,2.35,2.46A2.33,2.33,0,0,0,130.8,520.19Zm-1.38-2.24a.81.81,0,0,1-.8-.8.8.8,0,1,1,.8.8Zm2.79,0a.81.81,0,0,1-.8-.8.8.8,0,1,1,.8.8Z"/><path class="cls-1" d="M137.85,526.14a2.37,2.37,0,0,1-2.32-1.7l1-.42c.27.59.64,1.07,1.34,1.07a1,1,0,0,0,1.09-1c0-1.44-3-1-3-3.06a1.87,1.87,0,0,1,1.94-1.86,2,2,0,0,1,1.82,1.2l-.94.5a1.06,1.06,0,0,0-.93-.66.79.79,0,0,0-.8.74c0,1.17,3.07.86,3.07,3A2.18,2.18,0,0,1,137.85,526.14Z"/><path class="cls-1" d="M144.75,526.14a3.5,3.5,0,1,1,3.51-3.49A3.47,3.47,0,0,1,144.75,526.14Zm0-6a2.46,2.46,0,1,0,2.35,2.46A2.33,2.33,0,0,0,144.73,520.19Zm-1.38-2.24a.81.81,0,0,1-.8-.8.8.8,0,1,1,.8.8Zm2.79,0a.81.81,0,0,1-.8-.8.8.8,0,1,1,.8.8Z"/><path class="cls-1" d="M154.17,526V522c0-1-.14-1.86-1.39-1.86-1.47,0-1.65,1.28-1.65,2.45V526H150v-6.64h1.14v.8a2.24,2.24,0,0,1,1.92-1,2.27,2.27,0,0,1,1.89.91,3,3,0,0,1,.38,1.76V526Z"/><path class="cls-1" d="M157.55,528.39l-.75-.3,1.31-3.7,1.06.38Z"/><path class="cls-1" d="M170.4,526.14a5.52,5.52,0,1,1,5.55-5.52A5.54,5.54,0,0,1,170.4,526.14Zm0-9.92a4.4,4.4,0,1,0,4.34,4.4A4.39,4.39,0,0,0,170.41,516.22Zm-1.54-2a.82.82,0,1,1,.82-.83A.83.83,0,0,1,168.88,514.22Zm3,0a.82.82,0,1,1,.82-.83A.83.83,0,0,1,171.92,514.22Z"/><path class="cls-1" d="M179.63,526.14a2.37,2.37,0,0,1-2.32-1.7l1-.42c.27.59.64,1.07,1.34,1.07a1,1,0,0,0,1.09-1c0-1.44-3-1-3-3.06a1.87,1.87,0,0,1,1.94-1.86,2,2,0,0,1,1.82,1.2l-.94.5a1.06,1.06,0,0,0-.93-.66.79.79,0,0,0-.8.74c0,1.17,3.07.86,3.07,3A2.18,2.18,0,0,1,179.63,526.14Z"/><path class="cls-1" d="M184.59,520.37V526h-1.15v-5.59h-.69v-1.06h.69v-2.4h1.15v2.4h1.17v1.06Z"/><path class="cls-1" d="M187.63,522.86a2.15,2.15,0,0,0,2.11,2.24,2.29,2.29,0,0,0,2-1.38l1,.53a3.32,3.32,0,0,1-3,1.89,3.51,3.51,0,0,1-.06-7c2,0,3.17,1.57,3.17,3.49v.22Zm2-2.67a2,2,0,0,0-2,1.71h3.91A2,2,0,0,0,189.68,520.19Z"/><path class="cls-1" d="M197.68,520.46a1,1,0,0,0-.67-.22,1.23,1.23,0,0,0-.58.14c-.74.4-.74,1.34-.74,2.07V526h-1.14v-6.64h1.14V520a1.77,1.77,0,0,1,1.5-.88,1.89,1.89,0,0,1,1,.27Z"/><path class="cls-1" d="M201.07,526.14a2.37,2.37,0,0,1-2.32-1.7l1-.42c.27.59.64,1.07,1.34,1.07a1,1,0,0,0,1.09-1c0-1.44-3-1-3-3.06a1.87,1.87,0,0,1,1.94-1.86,2,2,0,0,1,1.82,1.2l-.94.5a1.06,1.06,0,0,0-.93-.66.79.79,0,0,0-.8.74c0,1.17,3.07.86,3.07,3A2.18,2.18,0,0,1,201.07,526.14Z"/><path class="cls-1" d="M209.55,525.31a2.9,2.9,0,0,1-4.07,0,2.72,2.72,0,0,1-.61-2v-4H206v3.87a2.54,2.54,0,0,0,.21,1.25,1.57,1.57,0,0,0,2.58,0,2.58,2.58,0,0,0,.21-1.25v-3.87h1.14v4A2.71,2.71,0,0,1,209.55,525.31Z"/><path class="cls-1" d="M216.49,526V522c0-1-.14-1.86-1.39-1.86-1.47,0-1.65,1.28-1.65,2.45V526h-1.14v-6.64h1.14v.8a2.24,2.24,0,0,1,1.92-1,2.27,2.27,0,0,1,1.89.91,3,3,0,0,1,.38,1.76V526Z"/><path class="cls-1" d="M224.89,526V525a2.84,2.84,0,0,1-2.31,1.12,3.29,3.29,0,0,1-3.2-3.52,3.25,3.25,0,0,1,3.19-3.47,2.85,2.85,0,0,1,2.32,1.1v-6H226V526Zm-2.15-5.76a2.47,2.47,0,1,0,2.21,2.42A2.23,2.23,0,0,0,222.75,520.19Z"/><path class="cls-1" d="M40.09,552.14a3.26,3.26,0,0,1-3.3-2.75l1.15-.32a2.17,2.17,0,0,0,2.18,2,2.11,2.11,0,0,0,2.14-2.11c0-2.51-4.93-1.92-4.93-5.06a2.82,2.82,0,0,1,3-2.75,3,3,0,0,1,2.75,1.67l-.94.62a2,2,0,0,0-1.82-1.17,1.69,1.69,0,0,0-1.78,1.63c0,2.21,4.93,1.57,4.93,5A3.29,3.29,0,0,1,40.09,552.14Z"/><path class="cls-1" d="M48.44,552.14a3.5,3.5,0,1,1,3.51-3.49A3.47,3.47,0,0,1,48.44,552.14Zm0-6a2.46,2.46,0,1,0,2.35,2.46A2.33,2.33,0,0,0,48.42,546.19ZM47,543.95a.81.81,0,0,1-.8-.8.8.8,0,1,1,.8.8Zm2.79,0a.81.81,0,0,1-.8-.8.8.8,0,1,1,.8.8Z"/><path class="cls-1" d="M57.86,552V548c0-1-.14-1.86-1.39-1.86-1.47,0-1.65,1.28-1.65,2.45V552H53.69v-6.64h1.14v.8a2.24,2.24,0,0,1,1.92-1,2.27,2.27,0,0,1,1.89.91,3,3,0,0,1,.38,1.76V552Z"/><path class="cls-1" d="M66.26,552V551A2.84,2.84,0,0,1,64,552.14a3.29,3.29,0,0,1-3.2-3.52,3.25,3.25,0,0,1,3.19-3.47,2.85,2.85,0,0,1,2.32,1.1v-6H67.4V552Zm-2.15-5.76a2.47,2.47,0,1,0,2.21,2.42A2.23,2.23,0,0,0,64.12,546.19Z"/><path class="cls-1" d="M74.65,552V551a2.84,2.84,0,0,1-2.31,1.12,3.29,3.29,0,0,1-3.2-3.54,3.23,3.23,0,0,1,3.19-3.46,2.81,2.81,0,0,1,2.32,1.1v-.94h1.14V552Zm-2.15-5.78a2.26,2.26,0,0,0-2.19,2.43,2.29,2.29,0,0,0,2.19,2.5,2.27,2.27,0,0,0,2.21-2.5A2.24,2.24,0,0,0,72.5,546.17Z"/><path class="cls-1" d="M83.54,554.42a3.22,3.22,0,0,1-2.66,1.23,3,3,0,0,1-3.23-3h1.14a2,2,0,0,0,2.11,2c1.6,0,2.13-1.2,2.13-2.62v-1a3,3,0,0,1-2.34,1.1,3.5,3.5,0,0,1,0-7A2.84,2.84,0,0,1,83,546.24v-.93h1.15v6.5A4,4,0,0,1,83.54,554.42Zm-2.67-8.24a2.28,2.28,0,0,0-2.18,2.51,2.24,2.24,0,0,0,2.18,2.42,2.48,2.48,0,0,0,0-4.93Z"/><path class="cls-1" d="M94.68,548.35l-2.19,2.5H97V552h-6.9l3.89-4.5c.72-.83,1.84-2,1.84-3.18a2.13,2.13,0,0,0-4.26.13h-1.2a4.42,4.42,0,0,1,.22-1.2A3.33,3.33,0,0,1,97,544.29C97,545.89,95.67,547.23,94.68,548.35Z"/><path class="cls-1" d="M102.58,552V542.4h-1.78l.62-1.12h2.34V552Z"/><path class="cls-1" d="M113.08,543.61a.82.82,0,1,1,.82-.82A.82.82,0,0,1,113.08,543.61Zm-.58,12.08V545.31h1.14V555.7Z"/><path class="cls-1" d="M120.9,552V551a2.84,2.84,0,0,1-2.31,1.12,3.29,3.29,0,0,1-3.2-3.54,3.23,3.23,0,0,1,3.19-3.46,2.81,2.81,0,0,1,2.32,1.1v-.94H122V552Zm-2.15-5.78a2.26,2.26,0,0,0-2.19,2.43,2.29,2.29,0,0,0,2.19,2.5,2.27,2.27,0,0,0,2.21-2.5A2.24,2.24,0,0,0,118.76,546.17Z"/><path class="cls-1" d="M128.39,552V548c0-1-.14-1.86-1.39-1.86-1.47,0-1.65,1.28-1.65,2.45V552h-1.14v-6.64h1.14v.8a2.24,2.24,0,0,1,1.92-1,2.27,2.27,0,0,1,1.89.91,3,3,0,0,1,.38,1.76V552Z"/><path class="cls-1" d="M136.39,551.31a2.9,2.9,0,0,1-4.07,0,2.72,2.72,0,0,1-.61-2v-4h1.14v3.87a2.54,2.54,0,0,0,.21,1.25,1.57,1.57,0,0,0,2.58,0,2.58,2.58,0,0,0,.21-1.25v-3.87H137v4A2.71,2.71,0,0,1,136.39,551.31Z"/><path class="cls-1" d="M144.23,552V551a2.84,2.84,0,0,1-2.31,1.12,3.29,3.29,0,0,1-3.2-3.54,3.23,3.23,0,0,1,3.19-3.46,2.81,2.81,0,0,1,2.32,1.1v-.94h1.14V552Zm-2.15-5.78a2.26,2.26,0,0,0-2.19,2.43,2.29,2.29,0,0,0,2.19,2.5,2.27,2.27,0,0,0,2.21-2.5A2.24,2.24,0,0,0,142.08,546.17Z"/><path class="cls-1" d="M150.66,546.46a1,1,0,0,0-.67-.22,1.23,1.23,0,0,0-.58.14c-.74.4-.74,1.34-.74,2.07V552h-1.14v-6.64h1.14V546a1.77,1.77,0,0,1,1.5-.88,1.89,1.89,0,0,1,1,.27Z"/><path class="cls-1" d="M152.84,543.61a.82.82,0,1,1,.82-.82A.82.82,0,0,1,152.84,543.61Zm-.58,8.34v-6.64h1.14V552Z"/><path class="cls-1" d="M163.7,552l-2.69-3-.29.29V552h-1.14V540.28h1.14v7.48l2.42-2.45h1.52l-2.85,2.82,3.38,3.83Z"/><path class="cls-1" d="M166.32,552V540.28h1.14V552Z"/><path class="cls-1" d="M176.79,552V542.4H175l.63-1.12H178V552Z"/><path class="cls-1" d="M185.83,552.13a3.33,3.33,0,0,1-2.46-1.06,2.82,2.82,0,0,1-.7-1.89h1.15a2,2,0,0,0,.37,1,2.15,2.15,0,0,0,1.68.8,2.08,2.08,0,0,0,2.1-2.13c0-1.39-1-2-2.27-2v-1a2.47,2.47,0,0,0,1.26-.26,1.84,1.84,0,1,0-2.43-2.69,2.6,2.6,0,0,0-.35,1H183c.24-1.73,1.15-2.8,3-2.8a2.86,2.86,0,0,1,3,2.87,2.6,2.6,0,0,1-1.38,2.37,2.72,2.72,0,0,1,1.54,2.58A3.17,3.17,0,0,1,185.83,552.13Z"/><path class="cls-1" d="M190.69,549.06v-1h2.9v1Z"/><path class="cls-1" d="M197.83,552V542.4h-1.78l.62-1.12H199V552Z"/><path class="cls-1" d="M206.45,552.13a3.7,3.7,0,0,1-3.27-1.91l.94-.67a2.81,2.81,0,0,0,2.42,1.47,2.65,2.65,0,0,0,2.64-2.71,2.59,2.59,0,0,0-2.62-2.66,3.77,3.77,0,0,0-2.07.74l1.55-5.12h4.24v1.12h-3.41l-.7,2.27a2.49,2.49,0,0,1,.61-.06,3.54,3.54,0,0,1,3.59,3.7A3.79,3.79,0,0,1,206.45,552.13Z"/></svg>