<svg id="Layer_1" data-name="Layer 1" xmlns="http://www.w3.org/2000/svg" viewBox="0 0 250 720"><defs><style>.cls-1{fill:#d80201;}</style></defs><title>text</title><path class="cls-1" d="M58.73,391.46c-2,2.18-5.18,1.83-7.88,1.83V401h-4V380.27h6c2,0,3.84.16,5.46,1.58a6.6,6.6,0,0,1,2.1,5A6.77,6.77,0,0,1,58.73,391.46Zm-3.53-7a4.84,4.84,0,0,0-3-.65h-1.4v6H52.5c2,0,3.75-.65,3.75-3A3.07,3.07,0,0,0,55.2,384.43Z"/><path class="cls-1" d="M71.59,390.94a3.31,3.31,0,0,0-1.79-.47c-2.55,0-3.23,1.8-3.23,4V401H62.82V387.53h3.75v2a4.32,4.32,0,0,1,3.91-2.45,4.42,4.42,0,0,1,1.64.31Z"/><path class="cls-1" d="M77.11,394.84c.06,2.08,1.06,3.6,3.29,3.6a3.51,3.51,0,0,0,3.19-1.8l3.47.56a6.58,6.58,0,0,1-6.6,4.19c-4.34,0-7.19-2.79-7.19-7.17s2.72-7.13,7-7.13,6.86,3,6.86,7.26v.49Zm3.26-5.08a3.05,3.05,0,0,0-3.14,2.7h6.36A3.11,3.11,0,0,0,80.37,389.76Z"/><path class="cls-1" d="M107.18,401V393.6c0-1.58-.24-3.31-2.23-3.31-2.2,0-2.57,2-2.57,3.78V401H98.63v-7.13a6,6,0,0,0-.28-2.23,2.17,2.17,0,0,0-2-1.3,2.44,2.44,0,0,0-2.11,1.21,5.58,5.58,0,0,0-.43,2.57V401H90V387.53h3.75v1.52a5.17,5.17,0,0,1,4.09-2,4.57,4.57,0,0,1,4.19,2.45,5,5,0,0,1,4.4-2.45,4.39,4.39,0,0,1,3.75,1.93,5.91,5.91,0,0,1,.72,3.25V401Z"/><path class="cls-1" d="M116.36,384.12a2.27,2.27,0,1,1,0-4.53,2.27,2.27,0,0,1,0,4.53ZM114.46,401V387.53h3.76V401Z"/><path class="cls-1" d="M132,401v-1.76a5.19,5.19,0,0,1-4.37,2.2c-4,0-6.6-3.35-6.6-7.2s2.57-7.1,6.51-7.1a5.6,5.6,0,0,1,4.46,2.14v-1.7h3.79V401ZM125.53,385a2.24,2.24,0,0,1,0-4.47,2.24,2.24,0,0,1,0,4.47Zm3.13,5.45a3.77,3.77,0,1,0,3.76,3.75A3.75,3.75,0,0,0,128.66,390.47ZM132,385a2.27,2.27,0,0,1-2.23-2.24A2.23,2.23,0,1,1,132,385Z"/><path class="cls-1" d="M148.16,390.94a3.32,3.32,0,0,0-1.8-.47c-2.54,0-3.22,1.8-3.22,4V401h-3.75V387.53h3.75v2a4.32,4.32,0,0,1,3.91-2.45,4.42,4.42,0,0,1,1.64.31Z"/><path class="cls-1" d="M167.48,401v-7.44c0-1.83-.41-3.22-2.55-3.22-2.32,0-2.88,1.7-2.88,3.72V401H158.3V387.53h3.75v1.64a4.94,4.94,0,0,1,4.22-2.08,4.65,4.65,0,0,1,5,5.34V401Z"/><path class="cls-1" d="M178.05,408.15H173.8l4.93-9.21-6.36-11.41h4.37l4,7.62,3.85-7.62h4.28Z"/><path class="cls-1" d="M194.51,390.75V401h-3.76v-10.2h-1.48v-3.22h1.48v-4.59h3.76v4.59h2.63v3.22Z"/><path class="cls-1" d="M202.88,390.75V401h-3.76v-10.2h-1.48v-3.22h1.48v-4.59h3.76v4.59h2.63v3.22Z"/><path class="cls-1" d="M54.09,438.23H52.36l-6.85-13.7h4.21l3.54,7.56,3.53-7.56H61Z"/><path class="cls-1" d="M64.66,421.12a2.27,2.27,0,0,1,0-4.53,2.27,2.27,0,0,1,0,4.53ZM62.77,438V424.53h3.75V438Z"/><path class="cls-1" d="M74.34,438.39a7.12,7.12,0,0,1-5.12-2.24l2-2.29a4.34,4.34,0,0,0,3.16,1.58,1.58,1.58,0,0,0,1.7-1.49c0-2.29-6-1.14-6-5.67,0-2.73,2.26-4.25,4.81-4.25a6.87,6.87,0,0,1,4.37,1.43l-1.86,2.2a3.73,3.73,0,0,0-2.24-.9c-.65,0-1.42.4-1.42,1.15,0,1.95,6.2,1.08,6.2,5.67C80,436.71,77.22,438.39,74.34,438.39Z"/><path class="cls-1" d="M91.79,438v-7.44c0-1.83-.4-3.22-2.54-3.22-2.33,0-2.89,1.7-2.89,3.72V438H82.61V424.53h3.75v1.64a5,5,0,0,1,4.22-2.08,4.64,4.64,0,0,1,5,5.34V438Z"/><path class="cls-1" d="M101,421.12a2.27,2.27,0,1,1,0-4.53,2.27,2.27,0,0,1,0,4.53ZM99.07,438V424.53h3.76V438Z"/><path class="cls-1" d="M115.54,438v-7.44c0-1.83-.41-3.22-2.55-3.22-2.32,0-2.88,1.7-2.88,3.72V438h-3.75V424.53h3.75v1.64a4.94,4.94,0,0,1,4.22-2.08,4.65,4.65,0,0,1,5,5.34V438Z"/><path class="cls-1" d="M135.35,442.82a7.32,7.32,0,0,1-5.71,2.36c-3.44,0-6.76-2-7.13-5.65h4.06a3,3,0,0,0,3.19,2.45c2.36,0,3.32-1.64,3.32-3.81v-2a5.57,5.57,0,0,1-4.52,2.24c-4,0-6.39-3.2-6.39-7s2.48-7.32,6.57-7.32a5.05,5.05,0,0,1,4.34,2.17v-1.73h3.78v12.93C136.86,439.57,136.77,441.15,135.35,442.82Zm-5.55-15.35a3.77,3.77,0,1,0,3.75,3.75A3.75,3.75,0,0,0,129.8,427.47Z"/><path class="cls-1" d="M144.74,438.39a7.12,7.12,0,0,1-5.12-2.24l2-2.29a4.38,4.38,0,0,0,3.17,1.58,1.58,1.58,0,0,0,1.7-1.49c0-2.29-6-1.14-6-5.67,0-2.73,2.26-4.25,4.8-4.25a6.88,6.88,0,0,1,4.38,1.43l-1.86,2.2a3.76,3.76,0,0,0-2.24-.9c-.65,0-1.42.4-1.42,1.15,0,1.95,6.2,1.08,6.2,5.67C150.35,436.71,147.62,438.39,144.74,438.39Z"/><path class="cls-1" d="M162.19,438V430.6c0-1.86-.4-3.31-2.57-3.31-2.33,0-2.86,1.79-2.86,3.78V438H153V414.73h3.75v11.53a4.92,4.92,0,0,1,4.22-2.17,5.13,5.13,0,0,1,3.91,1.65,5.3,5.3,0,0,1,1.05,3.78V438Z"/><path class="cls-1" d="M176,438.39c-3.69,0-6.48-1.65-6.48-5.65v-8.21h3.75v7.59c0,1.83.77,3.07,2.73,3.07s2.72-1.24,2.72-3.07v-7.59h3.79v8.21C182.53,436.74,179.71,438.39,176,438.39Z"/><path class="cls-1" d="M190.4,438.39a7.16,7.16,0,0,1-5.12-2.24l2-2.29a4.34,4.34,0,0,0,3.16,1.58,1.58,1.58,0,0,0,1.7-1.49c0-2.29-6-1.14-6-5.67,0-2.73,2.26-4.25,4.81-4.25a6.87,6.87,0,0,1,4.37,1.43l-1.86,2.2a3.73,3.73,0,0,0-2.23-.9c-.66,0-1.43.4-1.43,1.15,0,1.95,6.2,1.08,6.2,5.67C196,436.71,193.28,438.39,190.4,438.39Z"/><path class="cls-1" d="M200.75,438.36a2.42,2.42,0,1,1,2.42-2.42A2.43,2.43,0,0,1,200.75,438.36ZM198.83,432V417.27h3.84V432Z"/></svg>