<svg id="Layer_1" data-name="Layer 1" xmlns="http://www.w3.org/2000/svg" viewBox="0 0 250 720"><defs><style>.cls-1{fill:#d80201;}</style></defs><title>text</title><path class="cls-1" d="M42.94,516.4v3.17H46.5v1.1H42.94V526H41.76V515.28h4.85v1.12Z"/><path class="cls-1" d="M53.46,526V525a2.84,2.84,0,0,1-2.31,1.12,3.29,3.29,0,0,1-3.2-3.53,3.23,3.23,0,0,1,3.19-3.46,2.82,2.82,0,0,1,2.32,1.1v-.94h1.13V526Zm-2.15-5.78a2.48,2.48,0,1,0,2.21,2.44A2.24,2.24,0,0,0,51.31,520.17Zm0-2.17a1.38,1.38,0,1,1,1.38-1.38A1.37,1.37,0,0,1,51.28,518Zm0-2a.67.67,0,1,0,.67.67A.67.67,0,0,0,51.28,516Z"/><path class="cls-1" d="M62.35,528.42a3.2,3.2,0,0,1-2.65,1.23,3,3,0,0,1-3.24-3H57.6a2,2,0,0,0,2.11,2c1.6,0,2.13-1.21,2.13-2.63v-1a3,3,0,0,1-2.34,1.11,3.5,3.5,0,0,1,0-7,2.84,2.84,0,0,1,2.29,1.09v-.93H63v6.5A4,4,0,0,1,62.35,528.42Zm-2.67-8.25a2.29,2.29,0,0,0-2.18,2.52,2.24,2.24,0,0,0,2.18,2.41,2.48,2.48,0,0,0,0-4.93Z"/><path class="cls-1" d="M65.93,522.86a2.16,2.16,0,0,0,2.12,2.24,2.3,2.3,0,0,0,2-1.37l1,.53a3.32,3.32,0,0,1-3,1.88,3.5,3.5,0,0,1-.07-7,3.18,3.18,0,0,1,3.17,3.49v.22Zm2-2.67a2,2,0,0,0-2,1.71h3.91A2,2,0,0,0,68,520.19Z"/><path class="cls-1" d="M72.86,526V514.28H74V526Z"/><path class="cls-1" d="M78.48,526.38l-3.27-7.07h1.28l2,4.47,2-4.47h1.28Z"/><path class="cls-1" d="M83.52,517.61a.82.82,0,0,1-.82-.81.82.82,0,0,1,.82-.82.82.82,0,0,1,.81.82A.81.81,0,0,1,83.52,517.61ZM82.94,526v-6.64h1.14V526Z"/><path class="cls-1" d="M90.38,526l-2.69-3-.28.28V526H86.27V514.28h1.14v7.48l2.41-2.45h1.52l-2.85,2.82L91.87,526Z"/><path class="cls-1" d="M94.8,526.14a2.37,2.37,0,0,1-2.32-1.69l1-.42c.27.59.64,1.07,1.34,1.07a1,1,0,0,0,1.09-1c0-1.44-3-1-3-3a1.87,1.87,0,0,1,1.94-1.86,2,2,0,0,1,1.82,1.2l-.94.5a1.08,1.08,0,0,0-.93-.66.79.79,0,0,0-.8.74c0,1.16,3.07.86,3.07,3A2.17,2.17,0,0,1,94.8,526.14Z"/><path class="cls-1" d="M100.91,526.38l-3.26-7.07h1.28l2,4.47,2-4.47h1.28Z"/><path class="cls-1" d="M110.45,526V525a2.84,2.84,0,0,1-2.31,1.12,3.29,3.29,0,0,1-3.2-3.53,3.23,3.23,0,0,1,3.19-3.46,2.82,2.82,0,0,1,2.32,1.1v-.94h1.13V526Zm-2.15-5.78a2.48,2.48,0,1,0,2.21,2.44A2.24,2.24,0,0,0,108.3,520.17ZM107,518a.82.82,0,0,1-.8-.8.8.8,0,1,1,.8.8Zm2.79,0a.82.82,0,0,1-.8-.8.8.8,0,1,1,.8.8Z"/><path class="cls-1" d="M119.34,528.42a3.2,3.2,0,0,1-2.65,1.23,3,3,0,0,1-3.24-3h1.14a2,2,0,0,0,2.11,2c1.6,0,2.13-1.21,2.13-2.63v-1a3,3,0,0,1-2.34,1.11,3.5,3.5,0,0,1,.05-7,2.84,2.84,0,0,1,2.29,1.09v-.93H120v6.5A4,4,0,0,1,119.34,528.42Zm-2.67-8.25a2.29,2.29,0,0,0-2.18,2.52,2.24,2.24,0,0,0,2.18,2.41,2.48,2.48,0,0,0,0-4.93Z"/><path class="cls-1" d="M122.93,522.86A2.14,2.14,0,0,0,125,525.1a2.3,2.3,0,0,0,2-1.37l1,.53a3.31,3.31,0,0,1-3,1.88,3.5,3.5,0,0,1-.07-7,3.18,3.18,0,0,1,3.17,3.49v.22Zm2-2.67a2,2,0,0,0-2,1.71h3.9A2,2,0,0,0,125,520.19Z"/><path class="cls-1" d="M134,526V522c0-1-.14-1.86-1.39-1.86-1.47,0-1.65,1.28-1.65,2.45V526h-1.14v-6.64H131v.8a2.23,2.23,0,0,1,1.92-1,2.26,2.26,0,0,1,1.89.91,3,3,0,0,1,.38,1.76V526Z"/><path class="cls-1" d="M147.6,521.17l-3.64,5-.89-.66,2.46-3.42a3.55,3.55,0,0,1-1,.14,3.44,3.44,0,0,1-3.43-3.5,3.69,3.69,0,0,1,7.37,0A4.33,4.33,0,0,1,147.6,521.17Zm-2.79-5a2.51,2.51,0,1,0,2.52,2.52A2.51,2.51,0,0,0,144.81,516.2Z"/><path class="cls-1" d="M153.13,526.13a3.7,3.7,0,0,1-3.26-1.91l.94-.67a2.82,2.82,0,0,0,2.42,1.47,2.64,2.64,0,0,0,2.64-2.7,2.59,2.59,0,0,0-2.62-2.66,3.75,3.75,0,0,0-2.07.74l1.55-5.12H157v1.12h-3.4l-.71,2.27a2.43,2.43,0,0,1,.61-.06,3.53,3.53,0,0,1,3.58,3.69A3.78,3.78,0,0,1,153.13,526.13Z"/><path class="cls-1" d="M159.55,528.39l-.75-.31,1.31-3.7,1,.39Z"/><path class="cls-1" d="M167.44,526V515.28h1.18V526Z"/><path class="cls-1" d="M175.28,526V522c0-1-.15-1.86-1.4-1.86-1.47,0-1.64,1.28-1.64,2.45V526H171.1v-6.64h1.14v.8a2.22,2.22,0,0,1,1.92-1,2.26,2.26,0,0,1,1.89.91,3,3,0,0,1,.38,1.76V526Z"/><path class="cls-1" d="M184.19,528.42a3.21,3.21,0,0,1-2.66,1.23,3,3,0,0,1-3.23-3h1.14a2,2,0,0,0,2.11,2c1.6,0,2.13-1.21,2.13-2.63v-1a3,3,0,0,1-2.34,1.11,3.5,3.5,0,0,1,0-7,2.86,2.86,0,0,1,2.29,1.09v-.93h1.15v6.5A4.05,4.05,0,0,1,184.19,528.42Zm-2.67-8.25a2.29,2.29,0,0,0-2.18,2.52,2.24,2.24,0,0,0,2.18,2.41,2.48,2.48,0,0,0,0-4.93Z"/><path class="cls-1" d="M192.08,526V525a2.84,2.84,0,0,1-2.31,1.12,3.29,3.29,0,0,1-3.2-3.53,3.23,3.23,0,0,1,3.19-3.46,2.82,2.82,0,0,1,2.32,1.1v-.94h1.13V526Zm-2.15-5.78a2.48,2.48,0,1,0,2.21,2.44A2.24,2.24,0,0,0,189.93,520.17Z"/><path class="cls-1" d="M198.51,520.46a1,1,0,0,0-.67-.22,1.3,1.3,0,0,0-.58.14c-.74.4-.74,1.35-.74,2.07V526h-1.13v-6.64h1.13V520a1.79,1.79,0,0,1,1.51-.88,1.9,1.9,0,0,1,1,.27Z"/><path class="cls-1" d="M203.2,526.14a3.5,3.5,0,1,1,3.5-3.48A3.47,3.47,0,0,1,203.2,526.14Zm0-5.95a2.46,2.46,0,1,0,2.35,2.47A2.33,2.33,0,0,0,203.18,520.19ZM201.8,518a.82.82,0,0,1-.8-.8.8.8,0,1,1,.8.8Zm2.79,0a.82.82,0,0,1-.8-.8.8.8,0,1,1,.8.8Z"/><path class="cls-1" d="M33.93,552.14a3.25,3.25,0,0,1-3.3-2.75l1.15-.32A2.17,2.17,0,0,0,34,551a2.1,2.1,0,0,0,2.14-2.11c0-2.51-4.93-1.92-4.93-5.06a2.83,2.83,0,0,1,3-2.75,3,3,0,0,1,2.75,1.66l-.94.63a2,2,0,0,0-1.83-1.17,1.69,1.69,0,0,0-1.77,1.63c0,2.21,4.93,1.57,4.93,5A3.29,3.29,0,0,1,33.93,552.14Z"/><path class="cls-1" d="M42.28,552.14a3.5,3.5,0,1,1,3.51-3.48A3.47,3.47,0,0,1,42.28,552.14Zm0-5.95a2.46,2.46,0,1,0,2.36,2.47A2.32,2.32,0,0,0,42.26,546.19ZM40.89,544a.82.82,0,0,1-.8-.8.8.8,0,1,1,.8.8Zm2.78,0a.82.82,0,0,1-.8-.8.8.8,0,1,1,.8.8Z"/><path class="cls-1" d="M51.7,552V548c0-1-.14-1.86-1.39-1.86-1.47,0-1.65,1.28-1.65,2.45V552H47.53v-6.64h1.13v.8a2.41,2.41,0,0,1,3.81-.05,3,3,0,0,1,.39,1.76V552Z"/><path class="cls-1" d="M60.1,552V551a2.82,2.82,0,0,1-2.3,1.12,3.51,3.51,0,0,1,0-7,2.85,2.85,0,0,1,2.32,1.1v-6h1.14V552ZM58,546.19a2.47,2.47,0,1,0,2.21,2.42A2.23,2.23,0,0,0,58,546.19Z"/><path class="cls-1" d="M68.49,552V551a2.84,2.84,0,0,1-2.31,1.12,3.29,3.29,0,0,1-3.2-3.53,3.23,3.23,0,0,1,3.19-3.46,2.82,2.82,0,0,1,2.32,1.1v-.94h1.13V552Zm-2.15-5.78a2.48,2.48,0,1,0,2.21,2.44A2.24,2.24,0,0,0,66.34,546.17Z"/><path class="cls-1" d="M77.38,554.42a3.2,3.2,0,0,1-2.65,1.23,3,3,0,0,1-3.24-3h1.14a2,2,0,0,0,2.11,2c1.6,0,2.13-1.21,2.13-2.63v-1a3,3,0,0,1-2.33,1.11,3.5,3.5,0,0,1,0-7,2.84,2.84,0,0,1,2.29,1.09v-.93H78v6.5A4,4,0,0,1,77.38,554.42Zm-2.67-8.25a2.29,2.29,0,0,0-2.18,2.52,2.24,2.24,0,0,0,2.18,2.41,2.48,2.48,0,0,0,0-4.93Z"/><path class="cls-1" d="M88.52,548.35l-2.19,2.5h4.48V552h-6.9l3.89-4.5c.72-.83,1.84-2,1.84-3.18a2.13,2.13,0,1,0-4.26.13h-1.2a4.11,4.11,0,0,1,.23-1.2,3.33,3.33,0,0,1,6.41,1.09C90.82,545.89,89.51,547.23,88.52,548.35Z"/><path class="cls-1" d="M99.06,552.14a2.37,2.37,0,0,1-2.32-1.69l1-.42c.28.59.64,1.07,1.35,1.07a1,1,0,0,0,1.09-1c0-1.44-3-1-3-3a1.87,1.87,0,0,1,1.94-1.86,2,2,0,0,1,1.83,1.2l-1,.5a1.07,1.07,0,0,0-.93-.66.79.79,0,0,0-.8.74c0,1.16,3.08.86,3.08,3A2.18,2.18,0,0,1,99.06,552.14Z"/><path class="cls-1" d="M103.64,548.86a2.14,2.14,0,0,0,2.11,2.24,2.3,2.3,0,0,0,2-1.37l1,.53a3.31,3.31,0,0,1-3,1.88,3.5,3.5,0,0,1-.07-7c2,0,3.17,1.57,3.17,3.49v.22Zm2-2.67a2,2,0,0,0-2,1.71h3.9A2,2,0,0,0,105.69,546.19Z"/><path class="cls-1" d="M114,552.14A2.87,2.87,0,0,1,111.7,551v4.68h-1.13V545.31h1.13v.93a2.89,2.89,0,0,1,2.31-1.09,3.29,3.29,0,0,1,3.2,3.52A3.25,3.25,0,0,1,114,552.14Zm-.17-6a2.29,2.29,0,0,0-2.21,2.5,2.21,2.21,0,1,0,4.4,0A2.3,2.3,0,0,0,113.85,546.17Z"/><path class="cls-1" d="M120.1,546.37V552H119v-5.58h-.69v-1.06H119v-2.4h1.15v2.4h1.17v1.06Z"/><path class="cls-1" d="M123.14,548.86a2.15,2.15,0,0,0,2.11,2.24,2.29,2.29,0,0,0,2-1.37l1,.53a3.31,3.31,0,0,1-3,1.88,3.5,3.5,0,0,1-.06-7,3.18,3.18,0,0,1,3.17,3.49v.22Zm2-2.67a2,2,0,0,0-2,1.71h3.91A2,2,0,0,0,125.19,546.19Z"/><path class="cls-1" d="M137.64,552v-4c0-.85-.14-1.75-1.2-1.75s-1.43,1.12-1.43,2.08V552h-1.13V548c0-.83-.18-1.84-1.22-1.84a1.38,1.38,0,0,0-1.2.72,3.23,3.23,0,0,0-.25,1.44V552h-1.14v-6.64h1.14v.7a1.9,1.9,0,0,1,1.64-.86,2,2,0,0,1,1.83,1.07,2.26,2.26,0,0,1,3.73-.17,3.09,3.09,0,0,1,.37,1.69V552Z"/><path class="cls-1" d="M144.39,552.14a2.85,2.85,0,0,1-2.31-1.12V552H141V540.28h1.13v6a2.89,2.89,0,0,1,2.33-1.1,3.51,3.51,0,0,1,0,7Zm-.16-5.95a2.24,2.24,0,0,0-2.21,2.45,2.21,2.21,0,1,0,2.21-2.45Z"/><path class="cls-1" d="M150.1,548.86a2.15,2.15,0,0,0,2.11,2.24,2.29,2.29,0,0,0,2-1.37l1,.53a3.31,3.31,0,0,1-3,1.88,3.5,3.5,0,0,1-.06-7,3.18,3.18,0,0,1,3.17,3.49v.22Zm2.05-2.67a2,2,0,0,0-2,1.71h3.91A2,2,0,0,0,152.15,546.19Z"/><path class="cls-1" d="M160.15,546.46a1,1,0,0,0-.67-.22,1.34,1.34,0,0,0-.58.14c-.73.4-.73,1.35-.73,2.07V552H157v-6.64h1.14V546a1.76,1.76,0,0,1,1.5-.88,1.9,1.9,0,0,1,1,.27Z"/><path class="cls-1" d="M169.86,552l-2.69-3-.29.28V552h-1.13V540.28h1.13v7.48l2.42-2.45h1.52L168,548.13l3.38,3.82Z"/><path class="cls-1" d="M172.48,552V540.28h1.14V552Z"/><path class="cls-1" d="M183,552V542.4h-1.78l.63-1.12h2.33V552Z"/><path class="cls-1" d="M194.74,550.21V552h-1.18v-1.74h-5.48l6.66-9.53v8.44h1.31v1.09Zm-1.18-5.91-3.38,4.82h3.38Z"/><path class="cls-1" d="M196.85,549.06v-1h2.9v1Z"/><path class="cls-1" d="M204,552V542.4h-1.78l.63-1.12h2.33V552Z"/><path class="cls-1" d="M213.36,552.13a3.67,3.67,0,0,1-3.69-3.62,4.3,4.3,0,0,1,.88-2.45l3.63-5,.9.67-2.45,3.41a3.55,3.55,0,0,1,1-.14,3.47,3.47,0,0,1,3.43,3.52A3.68,3.68,0,0,1,213.36,552.13Zm0-6.12a2.51,2.51,0,1,0,2.5,2.5A2.5,2.5,0,0,0,213.35,546Z"/></svg>