<svg id="Layer_1" data-name="Layer 1" xmlns="http://www.w3.org/2000/svg" viewBox="0 0 250 720"><defs><style>.cls-1{fill:#d4ac76;}</style></defs><title>text</title><path class="cls-1" d="M27.88,537.26l3.41-8.51h1.07l3.35,8.51H34.4L33.88,536H29.72l-.53,1.31Zm3.95-6.55-1.66,4.11h3.27Zm.81-2.53A1.16,1.16,0,0,1,31,526.54a1.15,1.15,0,0,1,1.63,0,1.09,1.09,0,0,1,.34.82A1.11,1.11,0,0,1,32.64,528.18Zm-.81-.35a.45.45,0,0,0,.32-.14.49.49,0,0,0,.14-.33.48.48,0,0,0-.14-.34.45.45,0,0,0-.32-.14.46.46,0,0,0-.34.14.48.48,0,0,0-.14.34.49.49,0,0,0,.14.33A.46.46,0,0,0,31.83,527.83Z"/><path class="cls-1" d="M38.07,537.26v-8.51h.83l4.61,5.86v-5.86h1.18v8.51H44l-4.78-6.07v6.07Z"/><path class="cls-1" d="M53.56,533.56v-1.13h2.83V533A4.37,4.37,0,0,1,52,537.4a4.13,4.13,0,0,1-3.1-1.27,4.57,4.57,0,0,1,0-6.28,4.13,4.13,0,0,1,3.1-1.27,4.72,4.72,0,0,1,1.79.35,4.45,4.45,0,0,1,1.45,1l-.88.89a3,3,0,0,0-2.36-1.1,3,3,0,0,0-2.26,1,3.44,3.44,0,0,0,0,4.64,3,3,0,0,0,2.26,1,3,3,0,0,0,2-.75,3.23,3.23,0,0,0,1.07-2Z"/><path class="cls-1" d="M59.31,537.26v-8.51H60.5v4l3.54-4h1.6l-3,3.38,3.08,5.13H64.24l-2.47-4.15-1.27,1.42v2.73Z"/><path class="cls-1" d="M70.79,537.26l-3.31-8.51h1.33l2.55,6.54,2.55-6.54h1.31l-3.32,8.51Z"/><path class="cls-1" d="M76,537.26l3.41-8.51h1.07l3.35,8.51H82.47L82,536H77.79l-.53,1.31Zm3.94-6.55-1.65,4.11h3.27Z"/><path class="cls-1" d="M86.14,537.26v-8.51H89.3a2.62,2.62,0,0,1,1.91.75,2.51,2.51,0,0,1,.77,1.92,2.51,2.51,0,0,1-2.26,2.6l2.46,3.24H90.72L88.28,534h-1v3.25Zm3-7.37H87.33V533h1.8a1.72,1.72,0,0,0,1.2-.42,1.53,1.53,0,0,0,0-2.21A1.7,1.7,0,0,0,89.14,529.89Z"/><path class="cls-1" d="M95,537.26v-8.51h.83l4.61,5.86v-5.86h1.19v8.51h-.66l-4.78-6.07v6.07Z"/><path class="cls-1" d="M107.21,537.37a4.06,4.06,0,0,1-1.59-.34,4.25,4.25,0,0,1-1.35-.92l.84-1a3.13,3.13,0,0,0,1,.77,2.48,2.48,0,0,0,1.18.31,1.66,1.66,0,0,0,1.1-.36,1.14,1.14,0,0,0,.42-.9,1.48,1.48,0,0,0-1.07-1.39l-1-.4a3.55,3.55,0,0,1-1.39-.92,2,2,0,0,1-.46-1.34,2.15,2.15,0,0,1,.71-1.61,2.42,2.42,0,0,1,1.73-.67,3.49,3.49,0,0,1,2.47.94l-.72,1a2.33,2.33,0,0,0-1.75-.76,1.37,1.37,0,0,0-.9.29,1,1,0,0,0-.35.79,1,1,0,0,0,.26.66,2.23,2.23,0,0,0,.86.52l1,.42a2.4,2.4,0,0,1,1.79,2.42,2.33,2.33,0,0,1-.75,1.79A2.82,2.82,0,0,1,107.21,537.37Z"/><path class="cls-1" d="M115.09,537.26l-3.32-8.51h1.34l2.55,6.54,2.55-6.54h1.31l-3.33,8.51Z"/><path class="cls-1" d="M120.24,537.26l3.42-8.51h1.07l3.35,8.51h-1.31l-.52-1.31h-4.17l-.52,1.31Zm3.07-9.41a.56.56,0,0,1-.84,0,.71.71,0,0,1,0-.92.56.56,0,0,1,.84,0,.68.68,0,0,1,0,.92Zm.88,2.86-1.65,4.11h3.27Zm1.48-2.86a.56.56,0,0,1-.84,0,.68.68,0,0,1,0-.92.56.56,0,0,1,.84,0,.71.71,0,0,1,0,.92Z"/><path class="cls-1" d="M135.59,533.56v-1.13h2.82V533a4.37,4.37,0,0,1-4.4,4.38,4.16,4.16,0,0,1-3.1-1.27,4.6,4.6,0,0,1,0-6.28,4.16,4.16,0,0,1,3.1-1.27,4.64,4.64,0,0,1,1.79.35,4.49,4.49,0,0,1,1.46,1l-.88.89a3,3,0,0,0-2.37-1.1,3,3,0,0,0-2.25,1,3.44,3.44,0,0,0,0,4.64,3,3,0,0,0,2.25,1,3,3,0,0,0,2-.75,3.19,3.19,0,0,0,1.08-2Z"/><path class="cls-1" d="M146,533.53h-3.5v2.6h3.74v1.13h-4.93v-8.51h4.86v1.14h-3.67v2.51H146Z"/><path class="cls-1" d="M149.22,537.26v-8.51H150l4.61,5.86v-5.86h1.19v8.51h-.66l-4.78-6.07v6.07Z"/><path class="cls-1" d="M166.12,537.39a2.57,2.57,0,0,1-1.88-.76,2.51,2.51,0,0,1-.78-1.86,2.27,2.27,0,0,1,.34-1.22,2.48,2.48,0,0,1,.89-.9,2.11,2.11,0,0,1-.29-3.39,2.49,2.49,0,0,1,1.72-.65,2.45,2.45,0,0,1,1.71.66,2.1,2.1,0,0,1-.29,3.38,2.51,2.51,0,0,1,.91.89,2.37,2.37,0,0,1,.34,1.23,2.51,2.51,0,0,1-.78,1.86A2.6,2.6,0,0,1,166.12,537.39Zm0-1.13a1.42,1.42,0,0,0,1-.44,1.46,1.46,0,0,0,.43-1.06,1.37,1.37,0,0,0-.43-1,1.44,1.44,0,0,0-1-.42,1.42,1.42,0,0,0-1,.42,1.37,1.37,0,0,0-.43,1,1.46,1.46,0,0,0,.43,1.06A1.4,1.4,0,0,0,166.12,536.26Zm0-6.59a1.21,1.21,0,0,0-.89.36,1.18,1.18,0,0,0-.36.88,1.21,1.21,0,0,0,.36.89,1.19,1.19,0,0,0,.89.37,1.26,1.26,0,0,0,1.25-1.26,1.25,1.25,0,0,0-1.25-1.24Z"/><path class="cls-1" d="M170.25,538.82l1-2.73,1.09.39L171,539.09Z"/><path class="cls-1" d="M184.47,533.53H181v2.6h3.74v1.13h-4.92v-8.51h4.86v1.14H181v2.51h3.5Z"/><path class="cls-1" d="M187.66,537.26v-8.51h1.19v4l3.54-4H194l-3,3.38,3.07,5.13h-1.47l-2.47-4.15-1.27,1.42v2.73Z"/><path class="cls-1" d="M201.33,533.53h-3.49v2.6h3.74v1.13h-4.93v-8.51h4.86v1.14h-3.67v2.51h3.49Z"/><path class="cls-1" d="M204.52,537.26v-8.51h3.16a2.62,2.62,0,0,1,1.91.75,2.52,2.52,0,0,1,.78,1.92,2.52,2.52,0,0,1-2.27,2.6l2.46,3.24H209.1L206.66,534h-.95v3.25Zm3-7.37h-1.81V533h1.8a1.72,1.72,0,0,0,1.2-.42,1.53,1.53,0,0,0,0-2.21A1.68,1.68,0,0,0,207.52,529.89Z"/><path class="cls-1" d="M217.18,537.41a4.2,4.2,0,0,1-3.07-1.26,4.57,4.57,0,0,1,0-6.3,4.36,4.36,0,0,1,6.13,0,4.54,4.54,0,0,1,0,6.3A4.2,4.2,0,0,1,217.18,537.41ZM215,535.33a3.09,3.09,0,0,0,4.46,0,3.41,3.41,0,0,0,0-4.65,3.06,3.06,0,0,0-4.45,0,3.43,3.43,0,0,0,0,4.65Zm1.43-7.48a.56.56,0,0,1-.84,0,.71.71,0,0,1,0-.92.56.56,0,0,1,.84,0,.68.68,0,0,1,0,.92Zm2.36,0a.56.56,0,0,1-.84,0,.68.68,0,0,1,0-.92.56.56,0,0,1,.84,0,.71.71,0,0,1,0,.92Z"/><path class="cls-1" d="M25.63,557.37A4.14,4.14,0,0,1,24,557a4.1,4.1,0,0,1-1.34-.92l.83-1a3.25,3.25,0,0,0,1,.77,2.51,2.51,0,0,0,1.18.31,1.64,1.64,0,0,0,1.1-.36,1.15,1.15,0,0,0,.43-.9,1.48,1.48,0,0,0-1.08-1.39l-1-.4a3.52,3.52,0,0,1-1.4-.92,2,2,0,0,1-.45-1.34,2.14,2.14,0,0,1,.7-1.61,2.43,2.43,0,0,1,1.73-.67,3.47,3.47,0,0,1,2.47.94l-.71,1a2.36,2.36,0,0,0-1.76-.76,1.39,1.39,0,0,0-.9.29,1,1,0,0,0-.34.79,1,1,0,0,0,.25.66,2.31,2.31,0,0,0,.86.52l1,.42a2.4,2.4,0,0,1,1.79,2.42,2.33,2.33,0,0,1-.75,1.79A2.81,2.81,0,0,1,25.63,557.37Z"/><path class="cls-1" d="M35.2,557.41a4.17,4.17,0,0,1-3.07-1.26,4.57,4.57,0,0,1,0-6.3,4.35,4.35,0,0,1,6.12,0,4.54,4.54,0,0,1,0,6.3A4.16,4.16,0,0,1,35.2,557.41ZM33,555.33a3.08,3.08,0,0,0,4.45,0,3.4,3.4,0,0,0,0-4.65,3.06,3.06,0,0,0-4.45,0,3.43,3.43,0,0,0,0,4.65Zm1.43-7.48A.55.55,0,0,1,34,548a.52.52,0,0,1-.42-.19.71.71,0,0,1,0-.92.52.52,0,0,1,.42-.19.55.55,0,0,1,.42.19.68.68,0,0,1,0,.92Zm2.36,0a.56.56,0,0,1-.43.19.55.55,0,0,1-.42-.19.71.71,0,0,1,0-.92.55.55,0,0,1,.42-.19.56.56,0,0,1,.43.19.71.71,0,0,1,0,.92Z"/><path class="cls-1" d="M42.5,557.26v-8.51h.83l4.61,5.86v-5.86h1.19v8.51h-.66l-4.78-6.07v6.07Z"/><path class="cls-1" d="M52.68,557.26v-8.51H55a4.29,4.29,0,0,1,3,7.3,4.17,4.17,0,0,1-3,1.21ZM55,549.89H53.87v6.24H55a2.73,2.73,0,0,0,2.09-.92A3.11,3.11,0,0,0,58,553a3.06,3.06,0,0,0-.87-2.21A2.88,2.88,0,0,0,55,549.89Z"/><path class="cls-1" d="M60.85,557.26l3.42-8.51h1.07l3.35,8.51H67.38L66.86,556H62.69l-.52,1.31Zm3.95-6.55-1.65,4.11h3.27Z"/><path class="cls-1" d="M76.2,553.56v-1.13H79V553a4.36,4.36,0,0,1-1.32,3.14,4.28,4.28,0,0,1-3.08,1.24,4.17,4.17,0,0,1-3.11-1.27,4.6,4.6,0,0,1,0-6.28,4.17,4.17,0,0,1,3.11-1.27,4.63,4.63,0,0,1,1.78.35,4.49,4.49,0,0,1,1.46,1l-.88.89a3,3,0,0,0-2.36-1.1,3,3,0,0,0-2.26,1,3.44,3.44,0,0,0,0,4.64,3,3,0,0,0,2.26,1,3,3,0,0,0,2-.75,3.23,3.23,0,0,0,1.07-2Z"/><path class="cls-1" d="M85.94,555.31v-.75l3-5.81h1.25l-2.8,5.5h1.84v-1.42h1.19v1.42h1v1.06h-1v2H89.19v-2Z"/><path class="cls-1" d="M98.69,557.26v-8.51h.83l4.61,5.86v-5.86h1.18v8.51h-.65l-4.78-6.07v6.07Z"/><path class="cls-1" d="M112.59,557.41a4.17,4.17,0,0,1-3.06-1.26,4.54,4.54,0,0,1,0-6.3,4.35,4.35,0,0,1,6.12,0,4.54,4.54,0,0,1,0,6.3A4.2,4.2,0,0,1,112.59,557.41Zm-2.22-2.08a3.08,3.08,0,0,0,4.45,0,3.24,3.24,0,0,0,.91-2.33,3.2,3.2,0,0,0-.92-2.32,3,3,0,0,0-4.44,0,3.4,3.4,0,0,0,0,4.65Z"/><path class="cls-1" d="M121.92,557.26l-3.32-8.51h1.34l2.55,6.54,2.55-6.54h1.31L123,557.26Z"/><path class="cls-1" d="M133.38,553.53h-3.5v2.6h3.74v1.13h-4.93v-8.51h4.86v1.14h-3.67v2.51h3.5Z"/><path class="cls-1" d="M136.57,557.26v-8.51h1.22l2.74,4.54,2.78-4.54h1.16v8.51h-1.18V551l0,0-2.74,4.4L137.83,551h-.08v6.24Z"/><path class="cls-1" d="M148,557.26v-8.51h2.6a2.73,2.73,0,0,1,1.88.66,2.2,2.2,0,0,1,.74,1.72,2,2,0,0,1-1,1.83,2.08,2.08,0,0,1,.92.76,2,2,0,0,1,.34,1.14,2.18,2.18,0,0,1-.75,1.74,2.72,2.72,0,0,1-1.89.66Zm2.48-7.37h-1.29v2.58h1.51a1.3,1.3,0,0,0,1-.37,1.33,1.33,0,0,0,.38-1,1.06,1.06,0,0,0-.43-.89A1.7,1.7,0,0,0,150.45,549.89Zm.27,3.64h-1.56v2.6h1.48a1.78,1.78,0,0,0,1.17-.37,1.28,1.28,0,0,0,0-1.88A1.66,1.66,0,0,0,150.72,553.53Z"/><path class="cls-1" d="M161.1,553.53h-3.5v2.6h3.74v1.13h-4.93v-8.51h4.86v1.14H157.6v2.51h3.5Z"/><path class="cls-1" d="M164.29,557.26v-8.51h3.15a2.66,2.66,0,0,1,1.92.75,2.63,2.63,0,0,1-1.5,4.52l2.46,3.24h-1.46L166.42,554h-.95v3.25Zm3-7.37h-1.81V553h1.8a1.69,1.69,0,0,0,1.2-.42,1.53,1.53,0,0,0,0-2.21A1.68,1.68,0,0,0,167.28,549.89Z"/><path class="cls-1" d="M177.71,557.26v-8.51h1.18v4l3.55-4H184l-3,3.38,3.08,5.13h-1.48l-2.47-4.15-1.27,1.42v2.73Z"/><path class="cls-1" d="M186.69,557.26v-8.51h1.19v7.38h3.5v1.13Z"/><path class="cls-1" d="M199.55,557.26v-7l-1.59.82V550l2.25-1.24h.53v8.55Z"/><path class="cls-1" d="M203.41,555.31v-.75l3-5.81h1.25l-2.8,5.5h1.84v-1.42h1.19v1.42h1v1.06h-1v2h-1.19v-2Z"/><path class="cls-1" d="M211.12,553.55v-1h3.33v1Z"/><path class="cls-1" d="M217.67,557.26v-7l-1.6.82V550l2.26-1.24h.53v8.55Z"/><path class="cls-1" d="M224.59,557.39a2.54,2.54,0,0,1-1.86-.75,2.4,2.4,0,0,1-.76-1.79v-3.6a2.51,2.51,0,0,1,.76-1.9,2.76,2.76,0,0,1,3.68-.07,2.22,2.22,0,0,1,.73,1.74H226a1.39,1.39,0,0,0-2.38-.93,1.5,1.5,0,0,0-.41,1.1V553a1.86,1.86,0,0,1,1.47-.67,2.54,2.54,0,0,1,1.85.73,2.36,2.36,0,0,1,.76,1.79,2.44,2.44,0,0,1-.77,1.8A2.64,2.64,0,0,1,224.59,557.39Zm0-1.06a1.34,1.34,0,0,0,1-.44,1.47,1.47,0,0,0,0-2.08,1.44,1.44,0,0,0-2,0,1.36,1.36,0,0,0-.43,1.06,1.48,1.48,0,0,0,.41,1A1.29,1.29,0,0,0,224.59,556.33Z"/></svg>