<svg id="Layer_1" data-name="Layer 1" xmlns="http://www.w3.org/2000/svg" viewBox="0 0 250 720"><defs><style>.cls-1{fill:#d4ac76;}</style></defs><title>text</title><path class="cls-1" d="M57.25,537.41a4.17,4.17,0,0,1-3.07-1.26,4.57,4.57,0,0,1,0-6.3,4.35,4.35,0,0,1,6.12,0,4.54,4.54,0,0,1,0,6.3A4.16,4.16,0,0,1,57.25,537.41ZM55,535.33a3.08,3.08,0,0,0,4.45,0,3.4,3.4,0,0,0,0-4.65,3.06,3.06,0,0,0-4.45,0,3.43,3.43,0,0,0,0,4.65Z"/><path class="cls-1" d="M64.55,537.26v-8.51h2.28A4.23,4.23,0,0,1,71,533a4.12,4.12,0,0,1-1.23,3.06,4.19,4.19,0,0,1-3,1.21Zm2.33-7.37H65.74v6.24h1.17a2.77,2.77,0,0,0,2.1-.92,3.16,3.16,0,0,0,.85-2.22,3.07,3.07,0,0,0-.88-2.21A2.84,2.84,0,0,0,66.88,529.89Z"/><path class="cls-1" d="M78.66,533.53h-3.5v2.6H78.9v1.13H74v-8.51h4.86v1.14H75.16v2.51h3.5Z"/><path class="cls-1" d="M81.85,537.26v-8.51h.83l4.6,5.86v-5.86h1.19v8.51h-.66L83,531.19v6.07Z"/><path class="cls-1" d="M94.09,537.37a4.18,4.18,0,0,1-2.93-1.26l.83-1a3.13,3.13,0,0,0,1,.77,2.51,2.51,0,0,0,1.18.31,1.64,1.64,0,0,0,1.1-.36,1.14,1.14,0,0,0,.42-.9,1.47,1.47,0,0,0-1.07-1.39l-1-.4a3.52,3.52,0,0,1-1.4-.92,2,2,0,0,1-.45-1.34,2.14,2.14,0,0,1,.7-1.61,2.43,2.43,0,0,1,1.73-.67,3.47,3.47,0,0,1,2.47.94l-.71,1a2.36,2.36,0,0,0-1.76-.76,1.39,1.39,0,0,0-.9.29,1,1,0,0,0-.34.79,1,1,0,0,0,.25.66,2.31,2.31,0,0,0,.86.52l1,.42a2.4,2.4,0,0,1,1.79,2.42,2.33,2.33,0,0,1-.75,1.79A2.82,2.82,0,0,1,94.09,537.37Z"/><path class="cls-1" d="M102,537.26l-3.31-8.51H100l2.55,6.54,2.55-6.54h1.31l-3.32,8.51Z"/><path class="cls-1" d="M107.13,537.26l3.41-8.51h1.07l3.35,8.51h-1.31l-.52-1.31H109l-.53,1.31Zm3.07-9.41a.56.56,0,0,1-.43.19.52.52,0,0,1-.42-.19.71.71,0,0,1,0-.92.52.52,0,0,1,.42-.19.56.56,0,0,1,.43.19.71.71,0,0,1,0,.92Zm.87,2.86-1.65,4.11h3.27Zm1.48-2.86a.56.56,0,0,1-.84,0,.71.71,0,0,1,0-.92.56.56,0,0,1,.84,0,.71.71,0,0,1,0,.92Z"/><path class="cls-1" d="M122.47,533.56v-1.13h2.83V533a4.37,4.37,0,0,1-4.4,4.38,4.17,4.17,0,0,1-3.11-1.27,4.6,4.6,0,0,1,0-6.28,4.17,4.17,0,0,1,3.11-1.27,4.63,4.63,0,0,1,1.78.35,4.39,4.39,0,0,1,1.46,1l-.88.89a3,3,0,0,0-2.36-1.1,3,3,0,0,0-2.26,1,3.44,3.44,0,0,0,0,4.64,3,3,0,0,0,2.26,1,3,3,0,0,0,2-.75,3.23,3.23,0,0,0,1.07-2Z"/><path class="cls-1" d="M132.91,533.53h-3.5v2.6h3.74v1.13h-4.93v-8.51h4.86v1.14h-3.67v2.51h3.5Z"/><path class="cls-1" d="M136.1,537.26v-8.51h.83l4.6,5.86v-5.86h1.19v8.51h-.66l-4.77-6.07v6.07Z"/><path class="cls-1" d="M153.08,537.39a2.91,2.91,0,0,1-1.72-.52,2.64,2.64,0,0,1-1-1.38l1.08-.42a1.72,1.72,0,0,0,1.65,1.19,1.69,1.69,0,0,0,1.23-.49,1.67,1.67,0,0,0,.48-1.21,1.6,1.6,0,0,0-.5-1.19,1.66,1.66,0,0,0-1.2-.48,1.59,1.59,0,0,0-1.21.52H150.7v-4.66h4.76v1.14h-3.58v2.28a2.33,2.33,0,0,1,1.21-.34,2.86,2.86,0,0,1,2.09.78,2.62,2.62,0,0,1,.8,1.95,2.7,2.7,0,0,1-.84,2A2.84,2.84,0,0,1,153.08,537.39Z"/><path class="cls-1" d="M157.41,538.82l1-2.73,1.09.39-1.34,2.61Z"/><path class="cls-1" d="M166,529.89v-1.14h6.89v1.14h-2.85v7.37h-1.19v-7.37Z"/><path class="cls-1" d="M173.48,537.26l3.41-8.51H178l3.35,8.51H180l-.51-1.31h-4.17l-.53,1.31Zm3.07-9.41a.56.56,0,0,1-.43.19.55.55,0,0,1-.42-.19.71.71,0,0,1,0-.92.55.55,0,0,1,.42-.19.56.56,0,0,1,.43.19.71.71,0,0,1,0,.92Zm.88,2.86-1.66,4.11H179Zm1.47-2.86a.56.56,0,0,1-.84,0,.71.71,0,0,1,0-.92.56.56,0,0,1,.84,0,.68.68,0,0,1,0,.92Z"/><path class="cls-1" d="M183.67,537.26v-8.51h2.61a2.72,2.72,0,0,1,1.87.66,2.2,2.2,0,0,1,.74,1.72,2,2,0,0,1-1,1.83,2.11,2.11,0,0,1,.91.76,2,2,0,0,1,.34,1.14,2.2,2.2,0,0,1-.74,1.74,2.76,2.76,0,0,1-1.9.66Zm2.48-7.37h-1.29v2.58h1.52a1.28,1.28,0,0,0,.94-.37,1.33,1.33,0,0,0,.38-1,1.08,1.08,0,0,0-.42-.89A1.75,1.75,0,0,0,186.15,529.89Zm.27,3.64h-1.56v2.6h1.48a1.78,1.78,0,0,0,1.17-.37,1.28,1.28,0,0,0,0-1.88A1.66,1.66,0,0,0,186.42,533.53Z"/><path class="cls-1" d="M196.15,528.75h1.37l-2.82,5.09v3.42h-1.19v-3.38l-2.86-5.13h1.42l2.06,3.78Z"/><path class="cls-1" d="M51.29,557.37a4.23,4.23,0,0,1-2.94-1.26l.84-1a3,3,0,0,0,1,.77,2.44,2.44,0,0,0,1.17.31,1.64,1.64,0,0,0,1.1-.36,1.12,1.12,0,0,0,.43-.9,1.48,1.48,0,0,0-1.08-1.39l-1-.4a3.47,3.47,0,0,1-1.39-.92,2,2,0,0,1-.46-1.34,2.14,2.14,0,0,1,.7-1.61,2.46,2.46,0,0,1,1.74-.67,3.5,3.5,0,0,1,2.47.94l-.72,1a2.33,2.33,0,0,0-1.75-.76,1.37,1.37,0,0,0-.9.29,1,1,0,0,0-.35.79,1,1,0,0,0,.25.66,2.28,2.28,0,0,0,.87.52l1,.42a2.41,2.41,0,0,1,1.79,2.42,2.3,2.3,0,0,1-.76,1.79A2.81,2.81,0,0,1,51.29,557.37Z"/><path class="cls-1" d="M60.86,557.41a4.2,4.2,0,0,1-3.07-1.26,4.57,4.57,0,0,1,0-6.3,4.36,4.36,0,0,1,6.13,0,4.54,4.54,0,0,1,0,6.3A4.2,4.2,0,0,1,60.86,557.41Zm-2.23-2.08a3,3,0,0,0,2.23.95,3,3,0,0,0,2.22-.95A3.21,3.21,0,0,0,64,553a3.24,3.24,0,0,0-.92-2.32,3.06,3.06,0,0,0-4.45,0,3.43,3.43,0,0,0,0,4.65Zm1.43-7.48a.56.56,0,0,1-.84,0,.71.71,0,0,1,0-.92.56.56,0,0,1,.84,0,.68.68,0,0,1,0,.92Zm2.36,0a.56.56,0,0,1-.84,0,.68.68,0,0,1,0-.92.56.56,0,0,1,.84,0,.71.71,0,0,1,0,.92Z"/><path class="cls-1" d="M68.17,557.26v-8.51H69l4.6,5.86v-5.86h1.19v8.51h-.66l-4.77-6.07v6.07Z"/><path class="cls-1" d="M78.34,557.26v-8.51h2.28a4.29,4.29,0,0,1,3,7.3,4.19,4.19,0,0,1-3,1.21Zm2.33-7.37H79.53v6.24H80.7a2.77,2.77,0,0,0,2.1-.92,3.16,3.16,0,0,0,.85-2.22,3.07,3.07,0,0,0-.88-2.21A2.87,2.87,0,0,0,80.67,549.89Z"/><path class="cls-1" d="M86.52,557.26l3.41-8.51H91l3.35,8.51H93L92.53,556H88.36l-.53,1.31Zm4-6.55-1.66,4.11h3.27Z"/><path class="cls-1" d="M101.86,553.56v-1.13h2.83V553a4.37,4.37,0,0,1-4.4,4.38,4.15,4.15,0,0,1-3.1-1.27,4.57,4.57,0,0,1,0-6.28,4.15,4.15,0,0,1,3.1-1.27,4.68,4.68,0,0,1,1.79.35,4.45,4.45,0,0,1,1.45,1l-.88.89a3.11,3.11,0,0,0-4.62-.14,3.44,3.44,0,0,0,0,4.64,3,3,0,0,0,2.26,1,3,3,0,0,0,2-.75,3.18,3.18,0,0,0,1.07-2Z"/><path class="cls-1" d="M113.18,557.26v-7l-1.6.82V550l2.26-1.24h.53v8.55Z"/><path class="cls-1" d="M117,555.31v-.75l3-5.81h1.24l-2.79,5.5h1.84v-1.42h1.18v1.42h1v1.06h-1v2h-1.18v-2Z"/><path class="cls-1" d="M128.86,557.26l3.41-8.51h1.07l3.35,8.51h-1.31l-.52-1.31H130.7l-.53,1.31Zm3.94-6.55-1.65,4.11h3.27Z"/><path class="cls-1" d="M139.05,557.26v-8.51H142a2.69,2.69,0,0,1,2,.8,2.77,2.77,0,0,1,.79,2,2.64,2.64,0,0,1-.82,2,2.72,2.72,0,0,1-2,.79h-1.67v2.91Zm2.82-7.37h-1.63v3.33h1.64a1.68,1.68,0,0,0,1.18-2.85A1.59,1.59,0,0,0,141.87,549.89Z"/><path class="cls-1" d="M147.53,557.26v-8.51h3.16a2.62,2.62,0,0,1,1.91.75,2.52,2.52,0,0,1,.78,1.92,2.52,2.52,0,0,1-2.27,2.6l2.46,3.24h-1.46L149.67,554h-.95v3.25Zm3-7.37h-1.81V553h1.8a1.72,1.72,0,0,0,1.2-.42,1.53,1.53,0,0,0,0-2.21A1.68,1.68,0,0,0,150.53,549.89Z"/><path class="cls-1" d="M156.35,557.26v-8.51h1.19v8.51Z"/><path class="cls-1" d="M161,557.26v-8.51h1.19v7.38h3.5v1.13Z"/><path class="cls-1" d="M173.89,557.26v-7l-1.6.82V550l2.26-1.24h.53v8.55Z"/><path class="cls-1" d="M177.75,555.31v-.75l3-5.81H182l-2.79,5.5H181v-1.42h1.18v1.42h1v1.06h-1v2H181v-2Z"/><path class="cls-1" d="M185.46,553.55v-1h3.32v1Z"/><path class="cls-1" d="M192,557.26v-7l-1.6.82V550l2.26-1.24h.52v8.55Z"/><path class="cls-1" d="M198.93,557.39a2.53,2.53,0,0,1-1.86-.75,2.4,2.4,0,0,1-.76-1.79v-3.6a2.51,2.51,0,0,1,.76-1.9,2.74,2.74,0,0,1,3.67-.07,2.23,2.23,0,0,1,.74,1.74h-1.19a1.39,1.39,0,0,0-2.38-.93,1.5,1.5,0,0,0-.41,1.1V553a1.85,1.85,0,0,1,1.46-.67,2.55,2.55,0,0,1,1.86.73,2.48,2.48,0,0,1,0,3.59A2.6,2.6,0,0,1,198.93,557.39Zm0-1.06a1.36,1.36,0,0,0,1-.44,1.46,1.46,0,0,0-1-2.5,1.38,1.38,0,0,0-1,.4,1.36,1.36,0,0,0-.43,1.06,1.44,1.44,0,0,0,.41,1A1.29,1.29,0,0,0,198.93,556.33Z"/></svg>