<svg id="Layer_1" data-name="Layer 1" xmlns="http://www.w3.org/2000/svg" viewBox="0 0 250 720"><defs><style>.cls-1{fill:#d80201;}</style></defs><title>text</title><path class="cls-1" d="M15.29,401.38H13.56l-7.1-17.1H10l4.45,11.2,4.5-11.2h3.52Z"/><path class="cls-1" d="M25.46,387.38a1.82,1.82,0,1,1,0-3.65,1.82,1.82,0,0,1,0,3.65ZM23.94,401V390.13h3V401Z"/><path class="cls-1" d="M33.26,401.3a5.76,5.76,0,0,1-4.12-1.8l1.6-1.85a3.51,3.51,0,0,0,2.55,1.28,1.27,1.27,0,0,0,1.37-1.2c0-1.85-4.82-.92-4.82-4.57,0-2.2,1.82-3.42,3.87-3.42a5.58,5.58,0,0,1,3.52,1.15l-1.5,1.78a3,3,0,0,0-1.8-.73c-.52,0-1.15.33-1.15.92,0,1.58,5,.88,5,4.57C37.79,400,35.59,401.3,33.26,401.3Z"/><path class="cls-1" d="M47.34,401v-6c0-1.47-.32-2.6-2-2.6s-2.32,1.38-2.32,3V401h-3V390.13h3v1.32a4,4,0,0,1,3.4-1.67,3.74,3.74,0,0,1,4,4.3V401Z"/><path class="cls-1" d="M54.74,387.38a1.82,1.82,0,1,1,0-3.65,1.82,1.82,0,0,1,0,3.65ZM53.21,401V390.13h3V401Z"/><path class="cls-1" d="M66.49,401v-6c0-1.47-.32-2.6-2-2.6s-2.32,1.38-2.32,3V401h-3V390.13h3v1.32a4,4,0,0,1,3.4-1.67,3.74,3.74,0,0,1,4,4.3V401Z"/><path class="cls-1" d="M82.46,404.88a5.9,5.9,0,0,1-4.6,1.9c-2.77,0-5.45-1.6-5.75-4.55h3.27a2.41,2.41,0,0,0,2.57,2c1.9,0,2.67-1.33,2.67-3.07V399.5A4.5,4.5,0,0,1,77,401.3c-3.2,0-5.15-2.57-5.15-5.62s2-5.9,5.3-5.9a4.06,4.06,0,0,1,3.5,1.75v-1.4h3v10.42C83.69,402.25,83.61,403.53,82.46,404.88ZM78,392.5a3,3,0,1,0,3,3A3,3,0,0,0,78,392.5Z"/><path class="cls-1" d="M90,401.3a5.76,5.76,0,0,1-4.12-1.8l1.6-1.85a3.51,3.51,0,0,0,2.55,1.28,1.27,1.27,0,0,0,1.37-1.2c0-1.85-4.82-.92-4.82-4.57,0-2.2,1.82-3.42,3.87-3.42A5.58,5.58,0,0,1,94,390.88l-1.5,1.78a3,3,0,0,0-1.8-.73c-.52,0-1.15.33-1.15.92,0,1.58,5,.88,5,4.57C94.56,400,92.36,401.3,90,401.3Z"/><path class="cls-1" d="M104.11,401V395c0-1.5-.32-2.67-2.07-2.67s-2.3,1.45-2.3,3V401h-3V382.23h3v9.3a3.94,3.94,0,0,1,3.4-1.75,4.14,4.14,0,0,1,3.15,1.33,4.29,4.29,0,0,1,.85,3V401Z"/><path class="cls-1" d="M115.26,401.3c-3,0-5.22-1.32-5.22-4.55v-6.62h3v6.12c0,1.47.62,2.47,2.2,2.47s2.2-1,2.2-2.47v-6.12h3v6.62C120.51,400,118.24,401.3,115.26,401.3Z"/><path class="cls-1" d="M126.86,401.3a5.76,5.76,0,0,1-4.12-1.8l1.6-1.85a3.51,3.51,0,0,0,2.55,1.28,1.27,1.27,0,0,0,1.37-1.2c0-1.85-4.82-.92-4.82-4.57,0-2.2,1.82-3.42,3.87-3.42a5.58,5.58,0,0,1,3.52,1.15l-1.5,1.78a3,3,0,0,0-1.8-.73c-.52,0-1.15.33-1.15.92,0,1.58,5,.88,5,4.57C131.39,400,129.19,401.3,126.86,401.3Z"/><path class="cls-1" d="M145.49,387.11V401h-3.25V387.11h-3.72v-2.82h10.72v2.82Z"/><path class="cls-1" d="M155.56,401.3c-3.45,0-6.2-2.15-6.2-5.75s2.75-5.77,6.22-5.77,6.15,2.17,6.15,5.75S159,401.3,155.56,401.3Zm0-8.8a3,3,0,1,0,3.07,3A3.06,3.06,0,0,0,155.54,392.5Z"/><path class="cls-1" d="M171.14,392.88a2.67,2.67,0,0,0-1.45-.37c-2,0-2.6,1.45-2.6,3.25V401h-3V390.13h3v1.62a3.53,3.53,0,0,1,4.47-1.72Z"/><path class="cls-1" d="M176.51,401.3a5.76,5.76,0,0,1-4.12-1.8l1.6-1.85a3.51,3.51,0,0,0,2.55,1.28,1.27,1.27,0,0,0,1.37-1.2c0-1.85-4.82-.92-4.82-4.57,0-2.2,1.82-3.42,3.87-3.42a5.58,5.58,0,0,1,3.52,1.15l-1.5,1.78a3,3,0,0,0-1.8-.73c-.52,0-1.15.33-1.15.92,0,1.58,5,.88,5,4.57C181,400,178.84,401.3,176.51,401.3Z"/><path class="cls-1" d="M183.19,401V382.23h3V401Z"/><path class="cls-1" d="M197.39,401v-1.42a4.18,4.18,0,0,1-3.52,1.77c-3.25,0-5.32-2.7-5.32-5.8s2.07-5.72,5.25-5.72a4.51,4.51,0,0,1,3.6,1.72v-1.37h3V401Zm-2.7-8.45a3,3,0,1,0,3,3A3,3,0,0,0,194.69,392.5Z"/><path class="cls-1" d="M210.73,401v-6c0-1.47-.32-2.6-2-2.6s-2.32,1.38-2.32,3V401h-3V390.13h3v1.32a4,4,0,0,1,3.4-1.67,3.74,3.74,0,0,1,4,4.3V401Z"/><path class="cls-1" d="M224.93,401v-1.42a4.18,4.18,0,0,1-3.52,1.77c-3.25,0-5.32-2.7-5.32-5.8s2.07-5.72,5.25-5.72a4.51,4.51,0,0,1,3.6,1.72v-9.27h3V401Zm-2.7-8.45a3,3,0,1,0,3,3A3,3,0,0,0,222.24,392.5Z"/><path class="cls-1" d="M239.16,401v-1.42a4.18,4.18,0,0,1-3.52,1.77c-3.25,0-5.32-2.7-5.32-5.8s2.07-5.72,5.25-5.72a4.51,4.51,0,0,1,3.6,1.72v-1.37h3V401Zm-2.7-8.45a3,3,0,1,0,3,3A3,3,0,0,0,236.46,392.5Z"/><path class="cls-1" d="M31.15,431.93a6.91,6.91,0,0,1-5.47,2.4,6.8,6.8,0,0,1-5.47-2.4A7.2,7.2,0,0,1,19,427.48v-10.2h3.25v9.55a5.64,5.64,0,0,0,.52,3,3.36,3.36,0,0,0,2.92,1.55,3.45,3.45,0,0,0,2.92-1.55,5.37,5.37,0,0,0,.52-3v-9.55h3.25v10.2A7,7,0,0,1,31.15,431.93Z"/><path class="cls-1" d="M42.38,434.3a4.33,4.33,0,0,1-3.62-1.77v7.2h-3v-16.6h3v1.37a4.31,4.31,0,0,1,3.55-1.72c3.22,0,5.35,2.67,5.35,5.77S45.55,434.3,42.38,434.3Zm-.9-8.8a3,3,0,1,0,3,3A3,3,0,0,0,41.48,425.5Z"/><path class="cls-1" d="M56.6,434.3A4.33,4.33,0,0,1,53,432.53v7.2H50v-16.6h3v1.37a4.31,4.31,0,0,1,3.55-1.72c3.22,0,5.35,2.67,5.35,5.77S59.77,434.3,56.6,434.3Zm-.9-8.8a3,3,0,1,0,3,3A3,3,0,0,0,55.7,425.5Z"/><path class="cls-1" d="M64.18,434V415.23h3V434Z"/><path class="cls-1" d="M72.63,429c0,1.67.85,2.9,2.65,2.9a2.84,2.84,0,0,0,2.57-1.45l2.8.45a5.31,5.31,0,0,1-5.32,3.37,5.42,5.42,0,0,1-5.8-5.77,5.36,5.36,0,0,1,5.67-5.75c3.57,0,5.52,2.4,5.52,5.85v.4Zm2.62-4.1a2.46,2.46,0,0,0-2.52,2.17h5.12A2.51,2.51,0,0,0,75.25,424.93Z"/><path class="cls-1" d="M88,434.18H86.6l-5.52-11h3.4l2.85,6.1,2.85-6.1h3.4Z"/><path class="cls-1" d="M117.22,434l-1.47-10.27-4.6,10.5h-.9l-4.42-10.5L104.15,434h-3.27l3.1-17h2.22l4.55,10.9L115.5,417h2.22l2.77,17Z"/><path class="cls-1" d="M131.52,434.33a8.65,8.65,0,0,1-8.9-8.67,8.91,8.91,0,1,1,8.9,8.67Zm0-14.45a5.75,5.75,0,1,0,5.57,5.72A5.65,5.65,0,0,0,131.52,419.88Z"/><path class="cls-1" d="M149.65,434.38h-1.72l-7.1-17.1h3.55l4.45,11.2,4.5-11.2h3.52Z"/><path class="cls-1" d="M158.83,434V417.28H168v2.82h-6v3.7h5.75v2.82h-5.75v4.5h6V434Z"/><path class="cls-1" d="M190.15,424.33h-2.52l-.35,2.25h2.55l-.42,2.72h-2.55L186.1,434H183l.75-4.65h-2.3L180.7,434h-3.1l.75-4.65h-2.57l.42-2.72h2.57l.35-2.25h-2.55l.42-2.75h2.55l.67-4.3h3.1l-.7,4.3h2.3l.68-4.3h3.12l-.67,4.3h2.52Zm-7.95,0-.35,2.25h2.3l.35-2.25Z"/><path class="cls-1" d="M197.12,434.38c-3.1,0-5.82-2-6-5.22h3.27a2.72,2.72,0,1,0,2.82-2.92,5,5,0,0,0-.6,0v-2.35a2.78,2.78,0,0,0,.45,0,2.26,2.26,0,0,0,.08-4.52,2.17,2.17,0,0,0-2.27,2.2H191.8c.47-3.15,2.4-4.77,5.57-4.77,2.77,0,5.07,1.65,5.07,4.6a3.72,3.72,0,0,1-1.92,3.55,4.1,4.1,0,0,1,2.55,4.1C203.07,432.5,200.3,434.38,197.12,434.38Z"/><path class="cls-1" d="M211.77,434.38c-4.6,0-6.45-4.85-6.45-8.75s1.82-8.77,6.45-8.77,6.45,4.82,6.45,8.75S216.4,434.38,211.77,434.38Zm0-14.65c-2.55,0-3.2,3.95-3.2,5.87s.65,5.92,3.2,5.92,3.2-4,3.2-5.92S214.32,419.73,211.77,419.73Z"/><path class="cls-1" d="M224.85,434.38a7.13,7.13,0,0,1-5.32-2.17l1.07-2.8a5.59,5.59,0,0,0,4.2,2.12,3.3,3.3,0,0,0,3.32-3.22,3.56,3.56,0,0,0-3.8-3.32,5.5,5.5,0,0,0-3.2,1h-.17l2-8.75h7.7v2.85h-5.5l-.65,2.58a10,10,0,0,1,1.22-.1,5.6,5.6,0,0,1,5.67,5.82C231.37,432.2,228.42,434.38,224.85,434.38Z"/></svg>