<svg id="Layer_1" data-name="Layer 1" xmlns="http://www.w3.org/2000/svg" viewBox="0 0 250 720"><defs><style>.cls-1{fill:#d80201;}</style></defs><title>text</title><path class="cls-1" d="M48,526.14a3.26,3.26,0,0,1-3.3-2.75l1.15-.32A2.17,2.17,0,0,0,48,525a2.11,2.11,0,0,0,2.14-2.11c0-2.51-4.93-1.92-4.93-5.06a2.82,2.82,0,0,1,3-2.75A3,3,0,0,1,51,516.77l-.94.62a2,2,0,0,0-1.82-1.17,1.69,1.69,0,0,0-1.78,1.63c0,2.21,4.93,1.57,4.93,5A3.29,3.29,0,0,1,48,526.14Z"/><path class="cls-1" d="M56.33,526.14a3.5,3.5,0,1,1,3.5-3.49A3.47,3.47,0,0,1,56.33,526.14Zm0-6a2.46,2.46,0,1,0,2.35,2.46A2.33,2.33,0,0,0,56.31,520.19Zm-1.38-2.24a.81.81,0,0,1-.8-.8.8.8,0,1,1,.8.8Zm2.79,0a.81.81,0,0,1-.8-.8.8.8,0,1,1,.8.8Z"/><path class="cls-1" d="M65.75,526V522c0-1-.14-1.86-1.39-1.86-1.47,0-1.65,1.28-1.65,2.45V526H61.58v-6.64h1.14v.8a2.41,2.41,0,0,1,3.81,0,3,3,0,0,1,.38,1.76V526Z"/><path class="cls-1" d="M74.16,526V525a2.83,2.83,0,0,1-2.3,1.12,3.29,3.29,0,0,1-3.2-3.52,3.25,3.25,0,0,1,3.18-3.47,2.85,2.85,0,0,1,2.32,1.1v-6h1.14V526ZM72,520.19a2.47,2.47,0,1,0,2.21,2.42A2.23,2.23,0,0,0,72,520.19Z"/><path class="cls-1" d="M82.54,526V525a2.84,2.84,0,0,1-2.3,1.12,3.29,3.29,0,0,1-3.2-3.54,3.23,3.23,0,0,1,3.18-3.46,2.81,2.81,0,0,1,2.32,1.1v-.94h1.14V526Zm-2.14-5.78a2.26,2.26,0,0,0-2.19,2.43,2.29,2.29,0,0,0,2.19,2.5,2.27,2.27,0,0,0,2.21-2.5A2.24,2.24,0,0,0,80.39,520.17Z"/><path class="cls-1" d="M91.44,528.42a3.23,3.23,0,0,1-2.66,1.23,3,3,0,0,1-3.23-3h1.14a2,2,0,0,0,2.11,2c1.6,0,2.13-1.2,2.13-2.62v-1a3,3,0,0,1-2.34,1.1,3.5,3.5,0,0,1,0-7,2.84,2.84,0,0,1,2.29,1.09v-.93h1.15v6.5A4,4,0,0,1,91.44,528.42Zm-2.67-8.24a2.28,2.28,0,0,0-2.18,2.51,2.24,2.24,0,0,0,2.18,2.42,2.48,2.48,0,0,0,0-4.93Z"/><path class="cls-1" d="M101.4,526V516.4H99.63l.63-1.12h2.34V526Z"/><path class="cls-1" d="M110.86,526.13a3.13,3.13,0,0,1-3.27-3.12,2.79,2.79,0,0,1,1.58-2.61,2.67,2.67,0,0,1-1.3-2.34,3,3,0,0,1,6,0,2.83,2.83,0,0,0,.21,4.93A3.1,3.1,0,0,1,110.86,526.13Zm0-5.19a2,2,0,1,0,2.06,2A2.05,2.05,0,0,0,110.83,520.94Zm0-4.74a1.86,1.86,0,1,0,1.86,1.86A1.86,1.86,0,0,0,110.86,516.21Z"/><path class="cls-1" d="M128,526v-4c0-.85-.14-1.74-1.2-1.74s-1.42,1.12-1.42,2.08V526H124.2V522c0-.83-.18-1.84-1.22-1.84a1.37,1.37,0,0,0-1.2.72,3.15,3.15,0,0,0-.26,1.44V526h-1.14v-6.64h1.14v.7a1.89,1.89,0,0,1,1.65-.86,2,2,0,0,1,1.82,1.07,2.26,2.26,0,0,1,3.73-.18,3.11,3.11,0,0,1,.37,1.7V526Z"/><path class="cls-1" d="M136.35,526V525a2.84,2.84,0,0,1-2.31,1.12,3.29,3.29,0,0,1-3.2-3.54,3.23,3.23,0,0,1,3.19-3.46,2.81,2.81,0,0,1,2.32,1.1v-.94h1.14V526Zm-2.15-5.78a2.26,2.26,0,0,0-2.19,2.43,2.29,2.29,0,0,0,2.19,2.5,2.27,2.27,0,0,0,2.21-2.5A2.24,2.24,0,0,0,134.2,520.17Z"/><path class="cls-1" d="M142.78,520.46a1,1,0,0,0-.67-.22,1.22,1.22,0,0,0-.58.14c-.74.4-.74,1.34-.74,2.06V526h-1.14v-6.64h1.14V520a1.77,1.77,0,0,1,1.5-.88,1.9,1.9,0,0,1,1,.27Z"/><path class="cls-1" d="M146.17,526.14a2.37,2.37,0,0,1-2.32-1.7l1-.42c.27.59.64,1.07,1.34,1.07a1,1,0,0,0,1.09-1c0-1.44-3-1-3-3.06a1.87,1.87,0,0,1,1.94-1.86,2,2,0,0,1,1.82,1.2l-.94.5a1.06,1.06,0,0,0-.93-.66.79.79,0,0,0-.8.74c0,1.17,3.07.86,3.07,3A2.18,2.18,0,0,1,146.17,526.14Z"/><path class="cls-1" d="M158.09,526l-2.69-3-.29.29V526H154V514.28h1.14v7.47l2.42-2.45H159l-2.85,2.82,3.38,3.83Z"/><path class="cls-1" d="M160.71,526V514.28h1.14V526Z"/><path class="cls-1" d="M171.18,526V516.4H169.4l.63-1.12h2.34V526Z"/><path class="cls-1" d="M181.42,522.35l-2.19,2.5h4.48V526h-6.9l3.89-4.5c.72-.83,1.84-2,1.84-3.19a2.13,2.13,0,0,0-4.26.13h-1.2a4.41,4.41,0,0,1,.22-1.2,3.33,3.33,0,0,1,6.42,1.09C183.72,519.89,182.41,521.23,181.42,522.35Z"/><path class="cls-1" d="M185.08,523.06v-1H188v1Z"/><path class="cls-1" d="M192.22,526V516.4h-1.78l.63-1.12h2.34V526Z"/><path class="cls-1" d="M204,524.21V526h-1.18v-1.75h-5.47l6.66-9.52v8.44h1.31v1.09Zm-1.18-5.91-3.38,4.82h3.38Z"/><path class="cls-1" d="M33.85,551.22a3.75,3.75,0,0,1-2.56.74H28.63V541.28h1.92a3.68,3.68,0,0,1,2.42.67,2.89,2.89,0,0,1,1,2.22,2.45,2.45,0,0,1-1.06,2.08,2.67,2.67,0,0,1,2,2.69A2.92,2.92,0,0,1,33.85,551.22Zm-3.11-8.82h-.93V546h.9a2.21,2.21,0,0,0,1.52-.4,1.8,1.8,0,0,0,.56-1.39C32.8,542.86,32,542.4,30.75,542.4Zm2.1,4.93a3.42,3.42,0,0,0-1.7-.32H29.82v3.84h1.49a2.6,2.6,0,0,0,1.75-.46,1.87,1.87,0,0,0,.69-1.47A1.83,1.83,0,0,0,32.84,547.33Z"/><path class="cls-1" d="M37.39,543.61a.82.82,0,1,1,.82-.82A.82.82,0,0,1,37.39,543.61Zm-.58,12.08V545.31h1.14V555.7Z"/><path class="cls-1" d="M43.23,552.14a3.5,3.5,0,1,1,3.51-3.49A3.47,3.47,0,0,1,43.23,552.14Zm0-6a2.46,2.46,0,1,0,2.35,2.46A2.33,2.33,0,0,0,43.21,546.19Zm-1.38-2.24a.81.81,0,0,1-.8-.8.8.8,0,1,1,.8.8Zm2.79,0a.81.81,0,0,1-.8-.8.8.8,0,1,1,.8.8Z"/><path class="cls-1" d="M51.59,546.46a1,1,0,0,0-.67-.22,1.22,1.22,0,0,0-.58.14c-.74.4-.74,1.34-.74,2.06V552H48.47v-6.64h1.14V546a1.77,1.77,0,0,1,1.5-.88,1.9,1.9,0,0,1,1,.27Z"/><path class="cls-1" d="M57.31,552l-2.69-3-.29.29V552H53.19V540.28h1.14v7.47l2.42-2.45h1.52l-2.85,2.82L58.8,552Z"/><path class="cls-1" d="M64.12,552v-4c0-1-.24-1.73-1.38-1.73-1.49,0-1.68,1.25-1.68,2.45V552H59.93V540.28h1.14v5.79a2.35,2.35,0,0,1,1.9-.93,2.32,2.32,0,0,1,1.91.91,3.12,3.12,0,0,1,.38,1.78V552Z"/><path class="cls-1" d="M72.51,552V551a2.84,2.84,0,0,1-2.31,1.12,3.29,3.29,0,0,1-3.2-3.54,3.23,3.23,0,0,1,3.19-3.46,2.81,2.81,0,0,1,2.32,1.1v-.94h1.14V552Zm-2.15-5.78a2.26,2.26,0,0,0-2.19,2.43,2.29,2.29,0,0,0,2.19,2.5,2.27,2.27,0,0,0,2.21-2.5A2.24,2.24,0,0,0,70.36,546.17Z"/><path class="cls-1" d="M81.4,554.42a3.22,3.22,0,0,1-2.66,1.23,3,3,0,0,1-3.23-3h1.14a2,2,0,0,0,2.11,2c1.6,0,2.13-1.2,2.13-2.62v-1a3,3,0,0,1-2.34,1.1,3.5,3.5,0,0,1,0-7,2.85,2.85,0,0,1,2.29,1.09v-.93H82v6.5A4,4,0,0,1,81.4,554.42Zm-2.67-8.24a2.28,2.28,0,0,0-2.18,2.51,2.24,2.24,0,0,0,2.18,2.42,2.48,2.48,0,0,0,0-4.93Z"/><path class="cls-1" d="M86,552.14a2.37,2.37,0,0,1-2.32-1.7l1-.42c.27.59.64,1.07,1.34,1.07a1,1,0,0,0,1.09-1c0-1.44-3-1-3-3.06a1.87,1.87,0,0,1,1.94-1.86,2,2,0,0,1,1.83,1.2l-.94.5a1.06,1.06,0,0,0-.93-.66.79.79,0,0,0-.8.74c0,1.17,3.07.86,3.07,3A2.18,2.18,0,0,1,86,552.14Z"/><path class="cls-1" d="M92.12,552.38l-3.27-7.07h1.28l2,4.47,2-4.47h1.28Z"/><path class="cls-1" d="M101.66,552V551a2.84,2.84,0,0,1-2.31,1.12,3.29,3.29,0,0,1-3.2-3.54,3.23,3.23,0,0,1,3.19-3.46,2.81,2.81,0,0,1,2.32,1.1v-.94h1.14V552Zm-2.15-5.78a2.26,2.26,0,0,0-2.19,2.43,2.29,2.29,0,0,0,2.19,2.5,2.27,2.27,0,0,0,2.21-2.5A2.24,2.24,0,0,0,99.51,546.17Zm-1.33-2.23a.81.81,0,0,1-.8-.8.8.8,0,1,1,.8.8Zm2.79,0a.81.81,0,0,1-.8-.8.8.8,0,1,1,.8.8Z"/><path class="cls-1" d="M110.55,554.42a3.22,3.22,0,0,1-2.66,1.23,3,3,0,0,1-3.23-3h1.14a2,2,0,0,0,2.11,2c1.6,0,2.13-1.2,2.13-2.62v-1a3,3,0,0,1-2.34,1.1,3.5,3.5,0,0,1,0-7,2.85,2.85,0,0,1,2.29,1.09v-.93h1.15v6.5A4,4,0,0,1,110.55,554.42Zm-2.67-8.24a2.28,2.28,0,0,0-2.18,2.51,2.24,2.24,0,0,0,2.18,2.42,2.48,2.48,0,0,0,0-4.93Z"/><path class="cls-1" d="M114.14,548.86a2.15,2.15,0,0,0,2.11,2.24,2.29,2.29,0,0,0,2-1.38l1,.53a3.31,3.31,0,0,1-3,1.89,3.51,3.51,0,0,1-.06-7c2,0,3.17,1.57,3.17,3.49v.22Zm2-2.67a2,2,0,0,0-2,1.71h3.91A2,2,0,0,0,116.19,546.19Z"/><path class="cls-1" d="M125.24,552V548c0-1-.14-1.86-1.39-1.86-1.47,0-1.65,1.28-1.65,2.45V552h-1.14v-6.64h1.14v.8a2.24,2.24,0,0,1,1.92-1,2.26,2.26,0,0,1,1.89.91,3,3,0,0,1,.38,1.76V552Z"/><path class="cls-1" d="M136.89,548.35l-2.19,2.5h4.48V552h-6.9l3.89-4.5c.72-.83,1.84-2,1.84-3.19a2.13,2.13,0,0,0-4.26.13h-1.2a4.41,4.41,0,0,1,.22-1.2,3.33,3.33,0,0,1,6.42,1.09C139.2,545.89,137.88,547.23,136.89,548.35Z"/><path class="cls-1" d="M147.51,550.21V552h-1.18v-1.75h-5.47l6.66-9.52v8.44h1.31v1.09Zm-1.18-5.91L143,549.12h3.38Z"/><path class="cls-1" d="M150.76,554.39l-.75-.3,1.31-3.7,1.06.38Z"/><path class="cls-1" d="M161.35,552.14a3.26,3.26,0,0,1-3.3-2.75l1.15-.32a2.17,2.17,0,0,0,2.18,2,2.11,2.11,0,0,0,2.14-2.11c0-2.51-4.93-1.92-4.93-5.06a2.82,2.82,0,0,1,3-2.75,3,3,0,0,1,2.75,1.67l-.94.62a2,2,0,0,0-1.82-1.17,1.69,1.69,0,0,0-1.78,1.63c0,2.21,4.93,1.57,4.93,5A3.29,3.29,0,0,1,161.35,552.14Z"/><path class="cls-1" d="M167.19,543.61a.82.82,0,1,1,.82-.82A.82.82,0,0,1,167.19,543.61Zm-.58,12.08V545.31h1.14V555.7Z"/><path class="cls-1" d="M173,552.14a3.5,3.5,0,1,1,3.51-3.49A3.47,3.47,0,0,1,173,552.14Zm0-6a2.46,2.46,0,1,0,2.35,2.46A2.33,2.33,0,0,0,173,546.19Zm-1.38-2.24a.81.81,0,0,1-.8-.8.8.8,0,1,1,.8.8Zm2.79,0a.81.81,0,0,1-.8-.8.8.8,0,1,1,.8.8Z"/><path class="cls-1" d="M185.85,552v-4c0-.85-.14-1.74-1.2-1.74s-1.42,1.12-1.42,2.08V552h-1.14V548c0-.83-.18-1.84-1.22-1.84a1.37,1.37,0,0,0-1.2.72,3.15,3.15,0,0,0-.26,1.44V552h-1.14v-6.64h1.14v.7a1.89,1.89,0,0,1,1.65-.86,2,2,0,0,1,1.82,1.07,2.26,2.26,0,0,1,3.73-.18,3.11,3.11,0,0,1,.37,1.7V552Z"/><path class="cls-1" d="M194.23,552V551a2.84,2.84,0,0,1-2.31,1.12,3.29,3.29,0,0,1-3.2-3.54,3.23,3.23,0,0,1,3.19-3.46,2.81,2.81,0,0,1,2.32,1.1v-.94h1.14V552Zm-2.15-5.78a2.26,2.26,0,0,0-2.19,2.43,2.29,2.29,0,0,0,2.19,2.5,2.27,2.27,0,0,0,2.21-2.5A2.24,2.24,0,0,0,192.09,546.17Z"/><path class="cls-1" d="M200.66,546.46a1,1,0,0,0-.67-.22,1.22,1.22,0,0,0-.58.14c-.74.4-.74,1.34-.74,2.06V552h-1.14v-6.64h1.14V546a1.77,1.77,0,0,1,1.5-.88,1.9,1.9,0,0,1,1,.27Z"/><path class="cls-1" d="M206.38,552l-2.69-3-.29.29V552h-1.14V540.28h1.14v7.47l2.42-2.45h1.52l-2.85,2.82,3.38,3.83Z"/><path class="cls-1" d="M209.42,548.86a2.15,2.15,0,0,0,2.11,2.24,2.29,2.29,0,0,0,2-1.38l1,.53a3.31,3.31,0,0,1-3,1.89,3.51,3.51,0,0,1-.06-7c2,0,3.17,1.57,3.17,3.49v.22Zm2-2.67a2,2,0,0,0-2,1.71h3.91A2,2,0,0,0,211.46,546.19Z"/><path class="cls-1" d="M220.52,552V548c0-1-.14-1.86-1.39-1.86-1.47,0-1.65,1.28-1.65,2.45V552h-1.14v-6.64h1.14v.8a2.24,2.24,0,0,1,1.92-1,2.26,2.26,0,0,1,1.89.91,3,3,0,0,1,.38,1.76V552Z"/></svg>