<svg id="Layer_1" data-name="Layer 1" xmlns="http://www.w3.org/2000/svg" viewBox="0 0 250 720"><defs><style>.cls-1{fill:#d80201;}</style></defs><title>text</title><path class="cls-1" d="M55.87,526.14a3.26,3.26,0,0,1-3.3-2.75l1.15-.32a2.17,2.17,0,0,0,2.18,2A2.11,2.11,0,0,0,58,522.91c0-2.51-4.93-1.92-4.93-5.06a2.82,2.82,0,0,1,3-2.75,3,3,0,0,1,2.75,1.67l-.94.62a2,2,0,0,0-1.82-1.17,1.69,1.69,0,0,0-1.78,1.63c0,2.21,4.93,1.57,4.93,5A3.29,3.29,0,0,1,55.87,526.14Z"/><path class="cls-1" d="M64.22,526.14a3.5,3.5,0,1,1,3.51-3.49A3.47,3.47,0,0,1,64.22,526.14Zm0-6a2.46,2.46,0,1,0,2.35,2.46A2.33,2.33,0,0,0,64.21,520.19Zm-1.38-2.24a.81.81,0,0,1-.8-.8.8.8,0,1,1,.8.8Zm2.79,0a.81.81,0,0,1-.8-.8.8.8,0,1,1,.8.8Z"/><path class="cls-1" d="M73.65,526V522c0-1-.14-1.86-1.39-1.86-1.47,0-1.65,1.28-1.65,2.45V526H69.47v-6.64h1.14v.8a2.24,2.24,0,0,1,1.92-1,2.26,2.26,0,0,1,1.89.91,3,3,0,0,1,.38,1.76V526Z"/><path class="cls-1" d="M82,526V525a2.84,2.84,0,0,1-2.31,1.12,3.29,3.29,0,0,1-3.2-3.52,3.25,3.25,0,0,1,3.19-3.47,2.85,2.85,0,0,1,2.32,1.1v-6h1.14V526Zm-2.15-5.76a2.47,2.47,0,1,0,2.21,2.42A2.23,2.23,0,0,0,79.9,520.19Z"/><path class="cls-1" d="M90.43,526V525a2.84,2.84,0,0,1-2.31,1.12,3.29,3.29,0,0,1-3.2-3.54,3.23,3.23,0,0,1,3.19-3.46,2.81,2.81,0,0,1,2.32,1.1v-.94h1.14V526Zm-2.15-5.78a2.26,2.26,0,0,0-2.19,2.43,2.29,2.29,0,0,0,2.19,2.5,2.27,2.27,0,0,0,2.21-2.5A2.24,2.24,0,0,0,88.29,520.17Z"/><path class="cls-1" d="M99.33,528.42a3.22,3.22,0,0,1-2.66,1.23,3,3,0,0,1-3.23-3h1.14a2,2,0,0,0,2.11,2c1.6,0,2.13-1.2,2.13-2.62v-1a3,3,0,0,1-2.34,1.1,3.5,3.5,0,0,1,0-7,2.84,2.84,0,0,1,2.29,1.09v-.93H100v6.5A4,4,0,0,1,99.33,528.42Zm-2.67-8.24a2.28,2.28,0,0,0-2.18,2.51,2.24,2.24,0,0,0,2.18,2.42,2.48,2.48,0,0,0,0-4.93Z"/><path class="cls-1" d="M109.6,526.13a3.67,3.67,0,0,1-3.7-3.62,4.27,4.27,0,0,1,.88-2.45l3.63-5,.9.67-2.45,3.41a3.33,3.33,0,0,1,1-.14,3.47,3.47,0,0,1,3.43,3.52A3.68,3.68,0,0,1,109.6,526.13Zm0-6.11a2.5,2.5,0,1,0,2.5,2.5A2.5,2.5,0,0,0,109.58,520Z"/><path class="cls-1" d="M126.78,526v-4c0-.85-.14-1.74-1.2-1.74s-1.42,1.12-1.42,2.08V526H123V522c0-.83-.18-1.84-1.22-1.84a1.38,1.38,0,0,0-1.2.72,3.16,3.16,0,0,0-.26,1.44V526h-1.14v-6.64h1.14v.7a1.89,1.89,0,0,1,1.65-.86,2,2,0,0,1,1.82,1.07,2.26,2.26,0,0,1,3.73-.18,3.11,3.11,0,0,1,.37,1.7V526Z"/><path class="cls-1" d="M135.17,526V525a2.84,2.84,0,0,1-2.3,1.12,3.29,3.29,0,0,1-3.2-3.54,3.23,3.23,0,0,1,3.18-3.46,2.81,2.81,0,0,1,2.32,1.1v-.94h1.14V526ZM133,520.17a2.26,2.26,0,0,0-2.19,2.43,2.29,2.29,0,0,0,2.19,2.5,2.27,2.27,0,0,0,2.21-2.5A2.24,2.24,0,0,0,133,520.17Z"/><path class="cls-1" d="M139.05,517.61a.82.82,0,1,1,.82-.82A.82.82,0,0,1,139.05,517.61Zm-.58,12.08V519.31h1.14V529.7Z"/><path class="cls-1" d="M149.92,526l-2.69-3-.29.29V526H145.8V514.28h1.14v7.47l2.42-2.45h1.52L148,522.13l3.38,3.83Z"/><path class="cls-1" d="M152.54,526V514.28h1.14V526Z"/><path class="cls-1" d="M163,526V516.4h-1.78l.63-1.12h2.34V526Z"/><path class="cls-1" d="M173.25,522.35l-2.19,2.5h4.48V526h-6.9l3.89-4.5c.72-.83,1.84-2,1.84-3.19a2.13,2.13,0,0,0-4.26.13h-1.2a4.44,4.44,0,0,1,.22-1.2,3.33,3.33,0,0,1,6.42,1.09C175.55,519.89,174.24,521.23,173.25,522.35Z"/><path class="cls-1" d="M176.91,523.06v-1h2.9v1Z"/><path class="cls-1" d="M184,526V516.4h-1.78l.62-1.12h2.34V526Z"/><path class="cls-1" d="M195.84,524.21V526h-1.18v-1.75h-5.47l6.66-9.52v8.44h1.31v1.09Zm-1.18-5.91-3.38,4.82h3.38Z"/><path class="cls-1" d="M34.72,548.46a5,5,0,0,1-4.91,3.68,5.52,5.52,0,1,1,.1-11,5.6,5.6,0,0,1,4.5,2.32l-.88.8a4.37,4.37,0,1,0-3.7,6.8,3.65,3.65,0,0,0,3.76-3.31H30.42v-1.12h4.45v.3A7.33,7.33,0,0,1,34.72,548.46Z"/><path class="cls-1" d="M39.84,552.14a3.5,3.5,0,1,1,3.51-3.49A3.47,3.47,0,0,1,39.84,552.14Zm0-6a2.46,2.46,0,1,0,2.35,2.46A2.33,2.33,0,0,0,39.82,546.19Z"/><path class="cls-1" d="M46.88,552.14a2.37,2.37,0,0,1-2.32-1.7l1-.42c.27.59.64,1.07,1.34,1.07a1,1,0,0,0,1.09-1c0-1.44-3-1-3-3.06a1.87,1.87,0,0,1,1.94-1.86,2,2,0,0,1,1.82,1.2l-.94.5a1.06,1.06,0,0,0-.93-.66.79.79,0,0,0-.8.74c0,1.17,3.07.86,3.07,3A2.18,2.18,0,0,1,46.88,552.14Z"/><path class="cls-1" d="M52.48,552.14a2.37,2.37,0,0,1-2.32-1.7l1-.42c.27.59.64,1.07,1.34,1.07a1,1,0,0,0,1.09-1c0-1.44-3-1-3-3.06a1.87,1.87,0,0,1,1.94-1.86,2,2,0,0,1,1.82,1.2l-.94.5a1.06,1.06,0,0,0-.93-.66.79.79,0,0,0-.8.74c0,1.17,3.07.86,3.07,3A2.18,2.18,0,0,1,52.48,552.14Z"/><path class="cls-1" d="M59.73,552.14a2.83,2.83,0,0,1-2.3-1.12V552H56.29V540.28h1.14v6a2.85,2.85,0,0,1,2.32-1.1,3.25,3.25,0,0,1,3.19,3.47A3.29,3.29,0,0,1,59.73,552.14Zm-.16-6a2.24,2.24,0,0,0-2.21,2.45,2.21,2.21,0,1,0,2.21-2.45Z"/><path class="cls-1" d="M65.61,555.7H64.33l2.14-4.37-3.06-6h1.31l2.35,4.75,2.15-4.75h1.3Z"/><path class="cls-1" d="M76.82,552V551a2.84,2.84,0,0,1-2.31,1.12,3.29,3.29,0,0,1-3.2-3.52,3.25,3.25,0,0,1,3.19-3.47,2.85,2.85,0,0,1,2.32,1.1v-6H78V552Zm-2.15-5.76a2.47,2.47,0,1,0,2.21,2.42A2.23,2.23,0,0,0,74.67,546.19Z"/><path class="cls-1" d="M85.2,552V551a2.84,2.84,0,0,1-2.31,1.12,3.29,3.29,0,0,1-3.2-3.54,3.23,3.23,0,0,1,3.19-3.46,2.81,2.81,0,0,1,2.32,1.1v-.94h1.14V552Zm-2.15-5.78a2.26,2.26,0,0,0-2.19,2.43,2.29,2.29,0,0,0,2.19,2.5,2.27,2.27,0,0,0,2.21-2.5A2.24,2.24,0,0,0,83.06,546.17Z"/><path class="cls-1" d="M88.51,552V540.28h1.14V552Z"/><path class="cls-1" d="M93.61,552.14a2.37,2.37,0,0,1-2.32-1.7l1-.42c.27.59.64,1.07,1.34,1.07a1,1,0,0,0,1.09-1c0-1.44-3-1-3-3.06a1.87,1.87,0,0,1,1.94-1.86,2,2,0,0,1,1.82,1.2l-.94.5a1.06,1.06,0,0,0-.93-.66.79.79,0,0,0-.8.74c0,1.17,3.07.86,3.07,3A2.18,2.18,0,0,1,93.61,552.14Z"/><path class="cls-1" d="M99.21,552.14a2.37,2.37,0,0,1-2.32-1.7l1-.42c.27.59.64,1.07,1.34,1.07a1,1,0,0,0,1.09-1c0-1.44-3-1-3-3.06a1.87,1.87,0,0,1,1.94-1.86,2,2,0,0,1,1.82,1.2l-.94.5a1.06,1.06,0,0,0-.93-.66.79.79,0,0,0-.8.74c0,1.17,3.07.86,3.07,3A2.18,2.18,0,0,1,99.21,552.14Z"/><path class="cls-1" d="M104.17,546.37V552H103v-5.59h-.69v-1.06H103v-2.4h1.15v2.4h1.17v1.06Z"/><path class="cls-1" d="M107,543.61a.82.82,0,1,1,.82-.82A.82.82,0,0,1,107,543.61Zm-.58,8.34v-6.64h1.14V552Z"/><path class="cls-1" d="M115.36,554.42a3.22,3.22,0,0,1-2.66,1.23,3,3,0,0,1-3.23-3h1.14a2,2,0,0,0,2.11,2c1.6,0,2.13-1.2,2.13-2.62v-1a3,3,0,0,1-2.34,1.1,3.5,3.5,0,0,1,0-7,2.84,2.84,0,0,1,2.29,1.09v-.93H116v6.5A4,4,0,0,1,115.36,554.42Zm-2.67-8.24a2.28,2.28,0,0,0-2.18,2.51,2.24,2.24,0,0,0,2.18,2.42,2.48,2.48,0,0,0,0-4.93Z"/><path class="cls-1" d="M118.94,548.86a2.15,2.15,0,0,0,2.11,2.24,2.29,2.29,0,0,0,2-1.38l1,.53a3.31,3.31,0,0,1-3,1.89,3.51,3.51,0,0,1-.06-7c2,0,3.17,1.57,3.17,3.49v.22Zm2-2.67a2,2,0,0,0-2,1.71h3.91A2,2,0,0,0,121,546.19Z"/><path class="cls-1" d="M130,552V548c0-1-.14-1.86-1.39-1.86-1.47,0-1.65,1.28-1.65,2.45V552h-1.14v-6.64H127v.8a2.24,2.24,0,0,1,1.92-1,2.26,2.26,0,0,1,1.89.91,3,3,0,0,1,.38,1.76V552Z"/><path class="cls-1" d="M143.25,550.21V552h-1.18v-1.75h-5.47l6.66-9.52v8.44h1.31v1.09Zm-1.18-5.91-3.38,4.82h3.38Z"/><path class="cls-1" d="M156,551.22a3.75,3.75,0,0,1-2.56.74h-2.66V541.28h1.92a3.68,3.68,0,0,1,2.42.67,2.89,2.89,0,0,1,1,2.22,2.45,2.45,0,0,1-1.06,2.08,2.67,2.67,0,0,1,2,2.69A2.92,2.92,0,0,1,156,551.22Zm-3.11-8.82h-.93V546h.9a2.21,2.21,0,0,0,1.52-.4,1.8,1.8,0,0,0,.56-1.39C154.91,542.86,154.08,542.4,152.86,542.4Zm2.1,4.93a3.42,3.42,0,0,0-1.7-.32h-1.33v3.84h1.49a2.6,2.6,0,0,0,1.75-.46,1.87,1.87,0,0,0,.69-1.47A1.83,1.83,0,0,0,155,547.33Z"/><path class="cls-1" d="M159,554.39l-.75-.3,1.31-3.7,1.06.38Z"/><path class="cls-1" d="M169.45,542.4V552h-1.18V542.4h-2.59v-1.12H172v1.12Z"/><path class="cls-1" d="M175.74,552.14a3.5,3.5,0,1,1,3.5-3.49A3.47,3.47,0,0,1,175.74,552.14Zm0-6a2.46,2.46,0,1,0,2.35,2.46A2.33,2.33,0,0,0,175.72,546.19Z"/><path class="cls-1" d="M184.11,546.46a1,1,0,0,0-.67-.22,1.22,1.22,0,0,0-.58.14c-.74.4-.74,1.34-.74,2.06V552H181v-6.64h1.14V546a1.78,1.78,0,0,1,1.5-.88,1.9,1.9,0,0,1,1,.27Z"/><path class="cls-1" d="M187.5,552.14a2.37,2.37,0,0,1-2.32-1.7l1-.42c.27.59.64,1.07,1.34,1.07a1,1,0,0,0,1.09-1c0-1.44-3-1-3-3.06a1.87,1.87,0,0,1,1.94-1.86,2,2,0,0,1,1.82,1.2l-.94.5a1.06,1.06,0,0,0-.93-.66.79.79,0,0,0-.8.74c0,1.17,3.07.86,3.07,3A2.18,2.18,0,0,1,187.5,552.14Z"/><path class="cls-1" d="M191.31,552V540.28h1.14V552Z"/><path class="cls-1" d="M199.69,552V551a2.84,2.84,0,0,1-2.31,1.12,3.29,3.29,0,0,1-3.2-3.54,3.23,3.23,0,0,1,3.19-3.46,2.81,2.81,0,0,1,2.32,1.1v-.94h1.14V552Zm-2.15-5.78a2.26,2.26,0,0,0-2.19,2.43,2.29,2.29,0,0,0,2.19,2.5,2.27,2.27,0,0,0,2.21-2.5A2.24,2.24,0,0,0,197.55,546.17Z"/><path class="cls-1" d="M207.18,552V548c0-1-.14-1.86-1.39-1.86-1.47,0-1.65,1.28-1.65,2.45V552H203v-6.64h1.14v.8a2.24,2.24,0,0,1,1.92-1,2.26,2.26,0,0,1,1.89.91,3,3,0,0,1,.38,1.76V552Z"/><path class="cls-1" d="M215.58,552V551a2.84,2.84,0,0,1-2.31,1.12,3.29,3.29,0,0,1-3.2-3.52,3.25,3.25,0,0,1,3.19-3.47,2.85,2.85,0,0,1,2.32,1.1v-6h1.14V552Zm-2.15-5.76a2.47,2.47,0,1,0,2.21,2.42A2.23,2.23,0,0,0,213.44,546.19Z"/><path class="cls-1" d="M224,552V551a2.84,2.84,0,0,1-2.31,1.12,3.29,3.29,0,0,1-3.2-3.54,3.23,3.23,0,0,1,3.19-3.46,2.81,2.81,0,0,1,2.32,1.1v-.94h1.14V552Zm-2.15-5.78a2.26,2.26,0,0,0-2.19,2.43,2.29,2.29,0,0,0,2.19,2.5,2.27,2.27,0,0,0,2.21-2.5A2.24,2.24,0,0,0,221.82,546.17Z"/></svg>