<svg id="Layer_1" data-name="Layer 1" xmlns="http://www.w3.org/2000/svg" viewBox="0 0 250 720"><defs><style>.cls-1{fill:#d4ac76;}</style></defs><title>text</title><path class="cls-1" d="M35.73,55.8V53.16h12.1V55.8H43.16v12H40.4v-12Z"/><path class="cls-1" d="M55.92,67.84,50.3,53.16h2.87l4,10.56,4-10.56H64L58.42,67.84Z"/><path class="cls-1" d="M64.69,67.84l5.66-14.68h2.49l5.64,14.68H75.65l-.78-2H68.3l-.78,2Zm6.9-10.57-2.34,6.09h4.68Zm2.14-6.62a2.12,2.12,0,1,1-4.24,0,2,2,0,0,1,.62-1.5,2.13,2.13,0,0,1,3.62,1.5Zm-2.66.55a.75.75,0,0,0,.55.23.71.71,0,0,0,.54-.23.78.78,0,0,0,0-1.1.77.77,0,0,0-1.31.55A.76.76,0,0,0,71.07,51.2Z"/><path class="cls-1" d="M81.92,67.84V53.16h5.27a5,5,0,0,1,5.1,5.07,4.65,4.65,0,0,1-1.49,3.54,5.15,5.15,0,0,1-3.66,1.4H84.67v4.67Zm5-12H84.67v4.92H87a2.56,2.56,0,0,0,1.84-.66,2.27,2.27,0,0,0,.71-1.75,2.42,2.42,0,0,0-.72-1.81A2.58,2.58,0,0,0,87,55.8Z"/><path class="cls-1" d="M96.34,67.84V53.16h2.75v12h5.4v2.64Z"/><path class="cls-1" d="M107,67.84l5.66-14.68h2.49l5.64,14.68H118l-.78-2h-6.57l-.78,2ZM114,57.27l-2.35,6.09h4.68Z"/><path class="cls-1" d="M124.27,67.84V53.16h1.93l7.23,9.23V53.16h2.75V67.84h-1.84L127,58.5v9.34Z"/><path class="cls-1" d="M145.2,68a7,7,0,0,1-2.77-.58,7.13,7.13,0,0,1-2.38-1.6l1.74-2.09a5.34,5.34,0,0,0,1.62,1.31,4.2,4.2,0,0,0,1.94.51,2.34,2.34,0,0,0,1.56-.5,1.59,1.59,0,0,0,.62-1.27,2.2,2.2,0,0,0-1.62-2l-1.63-.65a6.36,6.36,0,0,1-2.45-1.62,3.78,3.78,0,0,1-.78-2.5,3.82,3.82,0,0,1,1.24-2.79A4.25,4.25,0,0,1,145.41,53a6.32,6.32,0,0,1,4.52,1.67l-1.62,2.05a3.78,3.78,0,0,0-2.9-1.27,2,2,0,0,0-1.32.42,1.32,1.32,0,0,0-.5,1,1.37,1.37,0,0,0,.39,1,3.92,3.92,0,0,0,1.26.76l1.71.68q3.27,1.32,3.33,4.24a4.13,4.13,0,0,1-1.38,3.22A5.37,5.37,0,0,1,145.2,68Z"/><path class="cls-1" d="M158.36,67.84l-5.61-14.68h2.87l4,10.56,4-10.56h2.78l-5.56,14.68Z"/><path class="cls-1" d="M169.89,67.84V53.16h2.75V67.84Z"/><path class="cls-1" d="M177.89,67.84V53.16h2.75v12H186v2.64Z"/><path class="cls-1" d="M190,67.84V53.16h2.75v12h5.4v2.64Z"/><path class="cls-1" d="M200.71,67.84l5.66-14.68h2.49l5.64,14.68h-2.83l-.78-2h-6.57l-.78,2Zm6.9-10.57-2.35,6.09H210Z"/><path class="cls-1" d="M81.88,90.64V76h2.75V90.64Z"/><path class="cls-1" d="M105.63,84.43H100.2v3.76h6v2.45H97.44V76H106v2.45H100.2V82h5.43Z"/><path class="cls-1" d="M110.63,90.64V76h2.54v6.47L118.8,76h3.4L117,81.82l5.29,8.82h-3.17l-4-6.7-2,2.22v4.48Z"/><path class="cls-1" d="M134.4,84.43H129v3.76h6v2.45h-8.72V76h8.55v2.45H129V82h5.44Z"/><path class="cls-1" d="M139.39,90.64V76h5.75a5,5,0,0,1,3.54,1.33,4.57,4.57,0,0,1,1.41,3.48,4.43,4.43,0,0,1-1.05,3,4.71,4.71,0,0,1-2.74,1.56l3.94,5.33h-3.1l-3.81-5.24h-1.18v5.24Zm5.32-12.23h-2.56V83.2h2.56a2.69,2.69,0,0,0,1.91-.66,2.16,2.16,0,0,0,.71-1.69,2.28,2.28,0,0,0-.73-1.74A2.6,2.6,0,0,0,144.71,78.41Z"/><path class="cls-1" d="M168.88,83.29a7.31,7.31,0,0,1-2.23,5.38,7.62,7.62,0,1,1,2.23-5.38ZM157.79,86.8a4.84,4.84,0,0,0,6.91,0,5,5,0,0,0,0-7,4.82,4.82,0,0,0-6.91,0,5.09,5.09,0,0,0,0,7ZM160,74.45a1.17,1.17,0,0,1-.89.39,1.21,1.21,0,0,1-.91-.39,1.32,1.32,0,0,1-.38-.94,1.34,1.34,0,0,1,.37-.94,1.31,1.31,0,0,1,.92-.38,1.24,1.24,0,0,1,.89.38,1.3,1.3,0,0,1,.37.94A1.31,1.31,0,0,1,160,74.45Zm4.37,0a1.33,1.33,0,0,1-1,.39,1.34,1.34,0,0,1-1-.39,1.27,1.27,0,0,1-.41-.94,1.26,1.26,0,0,1,.41-.94,1.38,1.38,0,0,1,1-.38,1.36,1.36,0,0,1,1,.38,1.26,1.26,0,0,1,.41.94A1.27,1.27,0,0,1,164.33,74.45Z"/></svg>