<svg id="Layer_1" data-name="Layer 1" xmlns="http://www.w3.org/2000/svg" viewBox="0 0 250 720"><defs><style>.cls-1{fill:#d80201;}</style></defs><title>text</title><path class="cls-1" d="M50.15,401.29,39.59,389.23V401H36.21V383.22h2.34l10.56,12.06V383.61h3.38v17.68Z"/><path class="cls-1" d="M59.25,407H55.68l4.13-7.72-5.33-9.57h3.67l3.38,6.4,3.22-6.4h3.59Z"/><path class="cls-1" d="M73.05,392.4V401H69.91V392.4H68.66v-2.7h1.25v-3.85h3.15v3.85h2.21v2.7Z"/><path class="cls-1" d="M80.07,392.4V401H76.93V392.4H75.68v-2.7h1.25v-3.85h3.15v3.85h2.21v2.7Z"/><path class="cls-1" d="M96.14,401.19H94.68l-5.75-11.49h3.54l3,6.34,3-6.34h3.54Z"/><path class="cls-1" d="M105,386.83a1.9,1.9,0,1,1,0-3.8,1.9,1.9,0,0,1,0,3.8ZM103.42,401V389.69h3.15V401Z"/><path class="cls-1" d="M113.12,401.32a6,6,0,0,1-4.29-1.87l1.66-1.92a3.66,3.66,0,0,0,2.65,1.33,1.33,1.33,0,0,0,1.43-1.25c0-1.92-5-1-5-4.76,0-2.29,1.9-3.56,4-3.56a5.8,5.8,0,0,1,3.67,1.2l-1.56,1.85a3.14,3.14,0,0,0-1.87-.75c-.55,0-1.2.34-1.2,1,0,1.64,5.2.91,5.2,4.76C117.82,399.91,115.54,401.32,113.12,401.32Z"/><path class="cls-1" d="M127.76,401v-6.24c0-1.53-.34-2.7-2.13-2.7-2,0-2.42,1.43-2.42,3.12V401h-3.15V389.69h3.15v1.38a4.15,4.15,0,0,1,3.54-1.74,3.89,3.89,0,0,1,4.16,4.47V401Z"/><path class="cls-1" d="M135.45,386.83a1.9,1.9,0,1,1,0-3.8,1.9,1.9,0,0,1,0,3.8ZM133.86,401V389.69H137V401Z"/><path class="cls-1" d="M147.67,401v-6.24c0-1.53-.34-2.7-2.13-2.7-2,0-2.42,1.43-2.42,3.12V401H140V389.69h3.15v1.38a4.15,4.15,0,0,1,3.54-1.74,3.89,3.89,0,0,1,4.16,4.47V401Z"/><path class="cls-1" d="M164.28,405a6.14,6.14,0,0,1-4.78,2c-2.89,0-5.67-1.66-6-4.73h3.41a2.51,2.51,0,0,0,2.68,2.05c2,0,2.78-1.38,2.78-3.2v-1.69a4.68,4.68,0,0,1-3.8,1.87c-3.33,0-5.36-2.68-5.36-5.85s2.08-6.14,5.51-6.14a4.22,4.22,0,0,1,3.64,1.82v-1.46h3.17v10.84C165.56,402.3,165.48,403.63,164.28,405Zm-4.65-12.87a3.16,3.16,0,1,0,3.15,3.15A3.14,3.14,0,0,0,159.63,392.16Z"/><path class="cls-1" d="M172.16,401.32a6,6,0,0,1-4.29-1.87l1.66-1.92a3.66,3.66,0,0,0,2.65,1.33,1.33,1.33,0,0,0,1.43-1.25c0-1.92-5-1-5-4.76,0-2.29,1.9-3.56,4-3.56a5.8,5.8,0,0,1,3.67,1.2l-1.56,1.85a3.14,3.14,0,0,0-1.87-.75c-.55,0-1.2.34-1.2,1,0,1.64,5.2.91,5.2,4.76C176.87,399.91,174.58,401.32,172.16,401.32Z"/><path class="cls-1" d="M186.8,401v-6.16c0-1.56-.34-2.78-2.16-2.78s-2.39,1.51-2.39,3.17V401H179.1V381.48h3.15v9.67a4.1,4.1,0,0,1,3.54-1.82,4.3,4.3,0,0,1,3.28,1.38,4.47,4.47,0,0,1,.88,3.17V401Z"/><path class="cls-1" d="M198.4,401.32c-3.09,0-5.43-1.38-5.43-4.73v-6.89h3.15v6.37c0,1.53.65,2.57,2.29,2.57s2.29-1,2.29-2.57v-6.37h3.17v6.89C203.86,399.94,201.49,401.32,198.4,401.32Z"/><path class="cls-1" d="M210.46,401.32a6,6,0,0,1-4.29-1.87l1.66-1.92a3.66,3.66,0,0,0,2.65,1.33,1.33,1.33,0,0,0,1.43-1.25c0-1.92-5-1-5-4.76,0-2.29,1.9-3.56,4-3.56a5.8,5.8,0,0,1,3.67,1.2L213,392.32a3.14,3.14,0,0,0-1.87-.75c-.55,0-1.2.34-1.2,1,0,1.64,5.2.91,5.2,4.76C215.17,399.91,212.88,401.32,210.46,401.32Z"/><path class="cls-1" d="M73.86,434l-1.53-10.69-4.78,10.92H66.6L62,423.27,60.26,434H56.85l3.22-17.66h2.31l4.73,11.34,4.94-11.34h2.31L77.26,434Z"/><path class="cls-1" d="M88.73,434.34a9,9,0,0,1-9.26-9,9.27,9.27,0,1,1,9.26,9Zm0-15a6,6,0,1,0,5.8,6A5.88,5.88,0,0,0,88.73,419.31Z"/><path class="cls-1" d="M107.58,434.39h-1.79L98.4,416.61h3.69l4.63,11.65,4.68-11.65h3.67Z"/><path class="cls-1" d="M117.12,434V416.61h9.59v2.94H120.5v3.85h6v2.94h-6V431h6.21V434Z"/><path class="cls-1" d="M149.7,423.94h-2.63l-.36,2.34h2.65l-.44,2.83h-2.65l-.78,4.84h-3.25l.78-4.84h-2.39l-.75,4.84h-3.22l.78-4.84h-2.68l.44-2.83h2.68l.36-2.34h-2.65l.44-2.86h2.65l.7-4.47h3.22l-.73,4.47h2.39l.7-4.47h3.25l-.7,4.47h2.63Zm-8.27,0-.36,2.34h2.39l.36-2.34Z"/><path class="cls-1" d="M157,434.39c-3.22,0-6.06-2.08-6.24-5.43h3.41a2.83,2.83,0,1,0,2.94-3,5,5,0,0,0-.62.05v-2.44a2.79,2.79,0,0,0,.47,0,2.35,2.35,0,1,0-2.29-2.42h-3.2c.49-3.28,2.5-5,5.8-5,2.89,0,5.28,1.72,5.28,4.78a3.87,3.87,0,0,1-2,3.69,4.27,4.27,0,0,1,2.65,4.26C163.14,432.44,160.26,434.39,157,434.39Z"/><path class="cls-1" d="M172.19,434.39c-4.78,0-6.71-5-6.71-9.1s1.9-9.13,6.71-9.13,6.71,5,6.71,9.1S177,434.39,172.19,434.39Zm0-15.24c-2.65,0-3.33,4.11-3.33,6.11s.68,6.16,3.33,6.16,3.33-4.16,3.33-6.16S174.84,419.16,172.19,419.16Z"/><path class="cls-1" d="M185.79,434.39a7.42,7.42,0,0,1-5.54-2.26l1.12-2.91a5.81,5.81,0,0,0,4.37,2.21,3.44,3.44,0,0,0,3.46-3.35,3.71,3.71,0,0,0-4-3.46,5.72,5.72,0,0,0-3.33,1.09h-.18l2.05-9.1h8v3h-5.72l-.68,2.68a10.57,10.57,0,0,1,1.27-.1,5.82,5.82,0,0,1,5.9,6.06C192.57,432.13,189.5,434.39,185.79,434.39Z"/></svg>