<svg id="Layer_1" data-name="Layer 1" xmlns="http://www.w3.org/2000/svg" viewBox="0 0 250 720"><defs><style>.cls-1{fill:#d80201;}</style></defs><title>text</title><path class="cls-1" d="M69,401H62.07V380.27h5.11c1.68,0,3.73.16,5.06,1.24a5.54,5.54,0,0,1,1.86,4.25,4.33,4.33,0,0,1-2.26,4.15,4.69,4.69,0,0,1,2.69,1.31A5.52,5.52,0,0,1,76,395.09C76,399.22,72.73,401,69,401Zm-1.73-17.39H66.1v5.33h1.15c1.79,0,3.13-.71,3.13-2.67S69.08,383.56,67.28,383.56ZM68,392H66.1v5.74h1.74c2,0,4-.47,4-2.89S69.88,392,68,392Z"/><path class="cls-1" d="M83.06,408.15H78.81l4.93-9.21-6.36-11.41h4.37l4,7.62,3.84-7.62h4.28Z"/><path class="cls-1" d="M108.2,405.82a7.32,7.32,0,0,1-5.71,2.36c-3.44,0-6.76-2-7.13-5.65h4.06a3,3,0,0,0,3.2,2.45c2.35,0,3.31-1.64,3.31-3.81v-2a5.57,5.57,0,0,1-4.52,2.24c-4,0-6.39-3.2-6.39-7s2.48-7.32,6.57-7.32a5,5,0,0,1,4.34,2.17v-1.73h3.79v12.93C109.72,402.56,109.63,404.15,108.2,405.82Zm-5.55-15.35a3.77,3.77,0,1,0,3.75,3.75A3.74,3.74,0,0,0,102.65,390.47Z"/><path class="cls-1" d="M125.78,405.82a7.32,7.32,0,0,1-5.71,2.36c-3.44,0-6.76-2-7.13-5.65H117a3,3,0,0,0,3.19,2.45c2.36,0,3.32-1.64,3.32-3.81v-2a5.58,5.58,0,0,1-4.53,2.24c-4,0-6.38-3.2-6.38-7s2.48-7.32,6.57-7.32a5.05,5.05,0,0,1,4.34,2.17v-1.73h3.78v12.93C127.29,402.56,127.2,404.15,125.78,405.82Zm-5.56-15.35a3.77,3.77,0,1,0,3.76,3.75A3.75,3.75,0,0,0,120.22,390.47Z"/><path class="cls-1" d="M147.82,401v-7.44c0-1.83-.41-3.22-2.55-3.22-2.32,0-2.88,1.7-2.88,3.72V401h-3.75V387.53h3.75v1.64a4.94,4.94,0,0,1,4.22-2.08,4.65,4.65,0,0,1,5,5.34V401Z"/><path class="cls-1" d="M158.38,408.15h-4.24l4.93-9.21-6.36-11.41h4.37l4,7.62,3.85-7.62h4.28Z"/><path class="cls-1" d="M174.85,390.75V401h-3.76v-10.2h-1.48v-3.22h1.48v-4.59h3.76v4.59h2.63v3.22Z"/><path class="cls-1" d="M183.21,390.75V401h-3.75v-10.2H178v-3.22h1.49v-4.59h3.75v4.59h2.64v3.22Z"/><path class="cls-1" d="M94.43,438V430.6c0-1.86-.4-3.31-2.57-3.31S89,429.08,89,431.07V438H85.26V414.73H89v11.53a4.9,4.9,0,0,1,4.21-2.17,5.13,5.13,0,0,1,3.91,1.65,5.31,5.31,0,0,1,1.06,3.78V438Z"/><path class="cls-1" d="M108.26,438.39c-3.69,0-6.48-1.65-6.48-5.65v-8.21h3.75v7.59c0,1.83.78,3.07,2.73,3.07S111,434,111,432.12v-7.59h3.78v8.21C114.77,436.74,112,438.39,108.26,438.39Z"/><path class="cls-1" d="M122.64,438.39a7.12,7.12,0,0,1-5.11-2.24l2-2.29a4.36,4.36,0,0,0,3.16,1.58,1.59,1.59,0,0,0,1.71-1.49c0-2.29-6-1.14-6-5.67,0-2.73,2.27-4.25,4.81-4.25a6.87,6.87,0,0,1,4.37,1.43l-1.86,2.2a3.7,3.7,0,0,0-2.23-.9c-.65,0-1.43.4-1.43,1.15,0,1.95,6.2,1.08,6.2,5.67C128.25,436.71,125.53,438.39,122.64,438.39Z"/><path class="cls-1" d="M147.85,438v-7.44c0-1.83-.41-3.22-2.55-3.22-2.32,0-2.88,1.7-2.88,3.72V438h-3.75V424.53h3.75v1.64a4.94,4.94,0,0,1,4.22-2.08,4.65,4.65,0,0,1,5,5.34V438Z"/><path class="cls-1" d="M161.67,438.39c-3.69,0-6.48-1.65-6.48-5.65v-8.21h3.75v7.59c0,1.83.78,3.07,2.73,3.07s2.73-1.24,2.73-3.07v-7.59h3.78v8.21C168.18,436.74,165.36,438.39,161.67,438.39Z"/></svg>