<svg id="Layer_1" data-name="Layer 1" xmlns="http://www.w3.org/2000/svg" viewBox="0 0 250 720"><defs><style>.cls-1{fill:#d80201;}</style></defs><title>text</title><path class="cls-1" d="M49.79,526V515.28H51v9.57h2.95V526Z"/><path class="cls-1" d="M60.29,526V525A2.84,2.84,0,0,1,58,526.14a3.29,3.29,0,0,1-3.2-3.54A3.23,3.23,0,0,1,58,519.15a2.81,2.81,0,0,1,2.32,1.1v-.94h1.14V526Zm-2.15-5.78A2.26,2.26,0,0,0,56,522.61a2.29,2.29,0,0,0,2.19,2.5,2.27,2.27,0,0,0,2.21-2.5A2.24,2.24,0,0,0,58.14,520.17Z"/><path class="cls-1" d="M67.78,526V522c0-1-.14-1.86-1.39-1.86-1.47,0-1.65,1.28-1.65,2.45V526H63.6v-6.64h1.14v.8a2.41,2.41,0,0,1,3.81,0,3,3,0,0,1,.38,1.76V526Z"/><path class="cls-1" d="M72.25,520.37V526H71.1v-5.59h-.69v-1.06h.69v-2.4h1.15v2.4h1.17v1.06Z"/><path class="cls-1" d="M75.87,524.9h4.58V526H73.56l4.8-5.59H74.46v-1.06h6.19Z"/><path class="cls-1" d="M88.19,526.38l-3.27-7.08h1.28l2,4.47,2-4.47h1.28Z"/><path class="cls-1" d="M97.73,526V525a2.84,2.84,0,0,1-2.31,1.12,3.29,3.29,0,0,1-3.2-3.54,3.23,3.23,0,0,1,3.19-3.46,2.81,2.81,0,0,1,2.32,1.1v-.94h1.14V526Zm-2.15-5.78a2.26,2.26,0,0,0-2.19,2.43,2.29,2.29,0,0,0,2.19,2.5,2.27,2.27,0,0,0,2.21-2.5A2.24,2.24,0,0,0,95.58,520.17Zm-1.33-2.22a.81.81,0,0,1-.8-.8.8.8,0,1,1,.8.8Zm2.79,0a.81.81,0,0,1-.8-.8.8.8,0,1,1,.8.8Z"/><path class="cls-1" d="M106.62,528.42a3.22,3.22,0,0,1-2.66,1.23,3,3,0,0,1-3.23-3h1.14a2,2,0,0,0,2.11,2c1.6,0,2.13-1.2,2.13-2.62v-1a3,3,0,0,1-2.34,1.1,3.5,3.5,0,0,1,0-7,2.84,2.84,0,0,1,2.29,1.09v-.93h1.15v6.5A4,4,0,0,1,106.62,528.42Zm-2.67-8.24a2.28,2.28,0,0,0-2.18,2.51,2.24,2.24,0,0,0,2.18,2.42,2.48,2.48,0,0,0,0-4.93Z"/><path class="cls-1" d="M117.76,522.35l-2.19,2.5H120V526h-6.9l3.89-4.5c.72-.83,1.84-2,1.84-3.18a2.13,2.13,0,0,0-4.26.13h-1.2a4.42,4.42,0,0,1,.22-1.2,3.33,3.33,0,0,1,6.42,1.09C120.06,519.89,118.75,521.23,117.76,522.35Z"/><path class="cls-1" d="M122.56,528.39l-.75-.3,1.31-3.7,1.06.38Z"/><path class="cls-1" d="M130.44,526V515.28H136v1.12h-4.34v3.17h4.23v1.1h-4.23v4.18H136V526Z"/><path class="cls-1" d="M142,526l-2.69-3-.29.29V526h-1.14V514.28H139v7.48l2.42-2.45h1.52l-2.85,2.82,3.38,3.83Z"/><path class="cls-1" d="M145,522.86a2.15,2.15,0,0,0,2.11,2.24,2.29,2.29,0,0,0,2-1.38l1,.53a3.32,3.32,0,0,1-3,1.89,3.51,3.51,0,0,1-.06-7c2,0,3.17,1.57,3.17,3.49v.22Zm2-2.67a2,2,0,0,0-2,1.71H149A2,2,0,0,0,147.05,520.19Z"/><path class="cls-1" d="M155.37,526.14a2.83,2.83,0,0,1-2.3-1.12V526h-1.14V514.28h1.14v6a2.85,2.85,0,0,1,2.32-1.1,3.25,3.25,0,0,1,3.19,3.47A3.29,3.29,0,0,1,155.37,526.14Zm-.16-6a2.24,2.24,0,0,0-2.21,2.45,2.21,2.21,0,1,0,2.21-2.45Z"/><path class="cls-1" d="M161.26,529.7H160l2.14-4.37-3.06-6h1.31l2.35,4.75,2.15-4.75h1.3Z"/><path class="cls-1" d="M166.81,528.39l-.75-.3,1.31-3.7,1.06.38Z"/><path class="cls-1" d="M179.92,525.22a3.74,3.74,0,0,1-2.56.74H174.7V515.28h1.92a3.68,3.68,0,0,1,2.42.67,2.89,2.89,0,0,1,1,2.22,2.45,2.45,0,0,1-1.06,2.08,2.67,2.67,0,0,1,2,2.69A2.92,2.92,0,0,1,179.92,525.22Zm-3.11-8.82h-.93V520h.9a2.21,2.21,0,0,0,1.52-.4,1.8,1.8,0,0,0,.56-1.39C178.86,516.86,178,516.4,176.81,516.4Zm2.1,4.93a3.42,3.42,0,0,0-1.7-.32h-1.33v3.84h1.49a2.6,2.6,0,0,0,1.75-.46,1.88,1.88,0,0,0,.69-1.47A1.83,1.83,0,0,0,178.91,521.33Z"/><path class="cls-1" d="M183.45,517.61a.82.82,0,1,1,.82-.82A.82.82,0,0,1,183.45,517.61Zm-.58,12.08V519.31H184V529.7Z"/><path class="cls-1" d="M190.88,525.31a2.9,2.9,0,0,1-4.07,0,2.72,2.72,0,0,1-.61-2v-4h1.14v3.87a2.54,2.54,0,0,0,.21,1.25,1.57,1.57,0,0,0,2.58,0,2.58,2.58,0,0,0,.21-1.25v-3.87h1.14v4A2.71,2.71,0,0,1,190.88,525.31Z"/><path class="cls-1" d="M195.95,526.38l-3.27-7.08H194l2,4.47,2-4.47h1.28Z"/><path class="cls-1" d="M40.09,552.14a3.26,3.26,0,0,1-3.3-2.75l1.15-.32a2.17,2.17,0,0,0,2.18,2,2.11,2.11,0,0,0,2.14-2.11c0-2.51-4.93-1.92-4.93-5.06a2.82,2.82,0,0,1,3-2.75,3,3,0,0,1,2.75,1.67l-.94.62a2,2,0,0,0-1.82-1.17,1.69,1.69,0,0,0-1.78,1.63c0,2.21,4.93,1.57,4.93,5A3.29,3.29,0,0,1,40.09,552.14Z"/><path class="cls-1" d="M48.44,552.14a3.5,3.5,0,1,1,3.51-3.49A3.47,3.47,0,0,1,48.44,552.14Zm0-6a2.46,2.46,0,1,0,2.35,2.46A2.33,2.33,0,0,0,48.42,546.19ZM47,543.95a.81.81,0,0,1-.8-.8.8.8,0,1,1,.8.8Zm2.79,0a.81.81,0,0,1-.8-.8.8.8,0,1,1,.8.8Z"/><path class="cls-1" d="M57.86,552V548c0-1-.14-1.86-1.39-1.86-1.47,0-1.65,1.28-1.65,2.45V552H53.69v-6.64h1.14v.8a2.24,2.24,0,0,1,1.92-1,2.27,2.27,0,0,1,1.89.91,3,3,0,0,1,.38,1.76V552Z"/><path class="cls-1" d="M66.26,552V551A2.84,2.84,0,0,1,64,552.14a3.29,3.29,0,0,1-3.2-3.52,3.25,3.25,0,0,1,3.19-3.47,2.85,2.85,0,0,1,2.32,1.1v-6H67.4V552Zm-2.15-5.76a2.47,2.47,0,1,0,2.21,2.42A2.23,2.23,0,0,0,64.12,546.19Z"/><path class="cls-1" d="M74.65,552V551a2.84,2.84,0,0,1-2.31,1.12,3.29,3.29,0,0,1-3.2-3.54,3.23,3.23,0,0,1,3.19-3.46,2.81,2.81,0,0,1,2.32,1.1v-.94h1.14V552Zm-2.15-5.78a2.26,2.26,0,0,0-2.19,2.43,2.29,2.29,0,0,0,2.19,2.5,2.27,2.27,0,0,0,2.21-2.5A2.24,2.24,0,0,0,72.5,546.17Z"/><path class="cls-1" d="M83.54,554.42a3.22,3.22,0,0,1-2.66,1.23,3,3,0,0,1-3.23-3h1.14a2,2,0,0,0,2.11,2c1.6,0,2.13-1.2,2.13-2.62v-1a3,3,0,0,1-2.34,1.1,3.5,3.5,0,0,1,0-7A2.84,2.84,0,0,1,83,546.24v-.93h1.15v6.5A4,4,0,0,1,83.54,554.42Zm-2.67-8.24a2.28,2.28,0,0,0-2.18,2.51,2.24,2.24,0,0,0,2.18,2.42,2.48,2.48,0,0,0,0-4.93Z"/><path class="cls-1" d="M94.68,548.35l-2.19,2.5H97V552h-6.9l3.89-4.5c.72-.83,1.84-2,1.84-3.18a2.13,2.13,0,0,0-4.26.13h-1.2a4.42,4.42,0,0,1,.22-1.2A3.33,3.33,0,0,1,97,544.29C97,545.89,95.67,547.23,94.68,548.35Z"/><path class="cls-1" d="M102.58,552V542.4h-1.78l.62-1.12h2.34V552Z"/><path class="cls-1" d="M113.08,543.61a.82.82,0,1,1,.82-.82A.82.82,0,0,1,113.08,543.61Zm-.58,12.08V545.31h1.14V555.7Z"/><path class="cls-1" d="M120.9,552V551a2.84,2.84,0,0,1-2.31,1.12,3.29,3.29,0,0,1-3.2-3.54,3.23,3.23,0,0,1,3.19-3.46,2.81,2.81,0,0,1,2.32,1.1v-.94H122V552Zm-2.15-5.78a2.26,2.26,0,0,0-2.19,2.43,2.29,2.29,0,0,0,2.19,2.5,2.27,2.27,0,0,0,2.21-2.5A2.24,2.24,0,0,0,118.76,546.17Z"/><path class="cls-1" d="M128.39,552V548c0-1-.14-1.86-1.39-1.86-1.47,0-1.65,1.28-1.65,2.45V552h-1.14v-6.64h1.14v.8a2.24,2.24,0,0,1,1.92-1,2.27,2.27,0,0,1,1.89.91,3,3,0,0,1,.38,1.76V552Z"/><path class="cls-1" d="M136.39,551.31a2.9,2.9,0,0,1-4.07,0,2.72,2.72,0,0,1-.61-2v-4h1.14v3.87a2.54,2.54,0,0,0,.21,1.25,1.57,1.57,0,0,0,2.58,0,2.58,2.58,0,0,0,.21-1.25v-3.87H137v4A2.71,2.71,0,0,1,136.39,551.31Z"/><path class="cls-1" d="M144.23,552V551a2.84,2.84,0,0,1-2.31,1.12,3.29,3.29,0,0,1-3.2-3.54,3.23,3.23,0,0,1,3.19-3.46,2.81,2.81,0,0,1,2.32,1.1v-.94h1.14V552Zm-2.15-5.78a2.26,2.26,0,0,0-2.19,2.43,2.29,2.29,0,0,0,2.19,2.5,2.27,2.27,0,0,0,2.21-2.5A2.24,2.24,0,0,0,142.08,546.17Z"/><path class="cls-1" d="M150.66,546.46a1,1,0,0,0-.67-.22,1.23,1.23,0,0,0-.58.14c-.74.4-.74,1.34-.74,2.07V552h-1.14v-6.64h1.14V546a1.77,1.77,0,0,1,1.5-.88,1.89,1.89,0,0,1,1,.27Z"/><path class="cls-1" d="M152.84,543.61a.82.82,0,1,1,.82-.82A.82.82,0,0,1,152.84,543.61Zm-.58,8.34v-6.64h1.14V552Z"/><path class="cls-1" d="M163.7,552l-2.69-3-.29.29V552h-1.14V540.28h1.14v7.48l2.42-2.45h1.52l-2.85,2.82,3.38,3.83Z"/><path class="cls-1" d="M166.32,552V540.28h1.14V552Z"/><path class="cls-1" d="M176.79,552V542.4H175l.63-1.12H178V552Z"/><path class="cls-1" d="M185.86,552V542.4h-1.78l.62-1.12H187V552Z"/><path class="cls-1" d="M190.69,549.06v-1h2.9v1Z"/><path class="cls-1" d="M197.83,552V542.4h-1.78l.62-1.12H199V552Z"/><path class="cls-1" d="M206.87,552.13a3.33,3.33,0,0,1-2.46-1.06,2.82,2.82,0,0,1-.7-1.89h1.15a2,2,0,0,0,.37,1,2.15,2.15,0,0,0,1.68.8,2.08,2.08,0,0,0,2.1-2.13c0-1.39-1-2-2.27-2v-1a2.47,2.47,0,0,0,1.26-.26,1.84,1.84,0,1,0-2.43-2.69,2.62,2.62,0,0,0-.35,1H204c.24-1.73,1.15-2.8,3-2.8a2.86,2.86,0,0,1,3,2.87,2.6,2.6,0,0,1-1.38,2.37,2.72,2.72,0,0,1,1.54,2.58A3.17,3.17,0,0,1,206.87,552.13Z"/></svg>