<svg id="Layer_1" data-name="Layer 1" xmlns="http://www.w3.org/2000/svg" viewBox="0 0 250 720"><defs><style>.cls-1{fill:#d80201;}</style></defs><title>text</title><path class="cls-1" d="M29.11,401H23.06V383h4.45a7.07,7.07,0,0,1,4.4,1.08,4.81,4.81,0,0,1,1.62,3.7,3.77,3.77,0,0,1-2,3.61,4.11,4.11,0,0,1,2.35,1.14,4.86,4.86,0,0,1,1.3,3.37C35.21,399.44,32.34,401,29.11,401Zm-1.52-15.14h-1v4.64h1c1.56,0,2.72-.62,2.72-2.32S29.16,385.81,27.59,385.81Zm.6,7.32H26.57v5h1.51c1.73,0,3.51-.41,3.51-2.51S29.86,393.13,28.19,393.13Z"/><path class="cls-1" d="M40.66,395.64c.06,1.8.92,3.13,2.86,3.13a3.06,3.06,0,0,0,2.78-1.57l3,.49a5.74,5.74,0,0,1-5.75,3.64,5.86,5.86,0,0,1-6.26-6.23c0-3.73,2.37-6.21,6.12-6.21s6,2.59,6,6.31v.44Zm2.84-4.43a2.65,2.65,0,0,0-2.73,2.35H46.3A2.7,2.7,0,0,0,43.5,391.21Z"/><path class="cls-1" d="M55.65,401.33a6.23,6.23,0,0,1-4.46-1.94l1.73-2a3.82,3.82,0,0,0,2.75,1.38,1.38,1.38,0,0,0,1.49-1.3c0-2-5.21-1-5.21-4.94,0-2.37,2-3.7,4.18-3.7a6,6,0,0,1,3.81,1.25L58.32,392a3.29,3.29,0,0,0-1.94-.78c-.57,0-1.25.35-1.25,1,0,1.7,5.4.94,5.4,4.94C60.53,399.87,58.16,401.33,55.65,401.33Z"/><path class="cls-1" d="M68.93,401.33c-3.72,0-6.69-2.32-6.69-6.21s3-6.23,6.72-6.23,6.64,2.35,6.64,6.21S72.63,401.33,68.93,401.33ZM66.1,387.08a1.95,1.95,0,1,1,0-3.89,1.95,1.95,0,0,1,0,3.89Zm2.8,4.75a3.28,3.28,0,1,0,3.32,3.29A3.3,3.3,0,0,0,68.9,391.83Zm2.81-4.75a2,2,0,0,1-1.94-1.95,1.94,1.94,0,1,1,1.94,1.95Z"/><path class="cls-1" d="M86.13,401l-4.4-5-.35.35V401H78.11V380.74h3.27v12.79l4.37-4.27h4.43l-5.48,5.13L90.61,401Z"/><path class="cls-1" d="M104.76,401.2h-1.51l-6-11.94H101l3.08,6.59,3.08-6.59h3.67Z"/><path class="cls-1" d="M114,386.3a2,2,0,1,1,1.94-2A2,2,0,0,1,114,386.3ZM112.32,401V389.26h3.27V401Z"/><path class="cls-1" d="M122.39,401.33a6.23,6.23,0,0,1-4.45-1.94l1.72-2a3.82,3.82,0,0,0,2.76,1.38,1.38,1.38,0,0,0,1.48-1.3c0-2-5.21-1-5.21-4.94,0-2.37,2-3.7,4.19-3.7a6,6,0,0,1,3.8,1.25L125.06,392a3.24,3.24,0,0,0-1.94-.78c-.57,0-1.24.35-1.24,1,0,1.7,5.4.94,5.4,4.94C127.28,399.87,124.9,401.33,122.39,401.33Z"/><path class="cls-1" d="M137.59,401v-6.48c0-1.59-.35-2.8-2.21-2.8-2,0-2.51,1.48-2.51,3.24v6H129.6V389.26h3.27v1.44a4.29,4.29,0,0,1,3.67-1.81,4,4,0,0,1,4.32,4.64V401Z"/><path class="cls-1" d="M145.58,386.3a2,2,0,1,1,1.95-2A2,2,0,0,1,145.58,386.3ZM143.94,401V389.26h3.26V401Z"/><path class="cls-1" d="M158.27,401v-6.48c0-1.59-.35-2.8-2.21-2.8-2,0-2.51,1.48-2.51,3.24v6h-3.27V389.26h3.27v1.44a4.29,4.29,0,0,1,3.67-1.81,4,4,0,0,1,4.32,4.64V401Z"/><path class="cls-1" d="M175.52,405.19a6.35,6.35,0,0,1-5,2.05c-3,0-5.89-1.73-6.21-4.91h3.53a2.61,2.61,0,0,0,2.79,2.13c2.05,0,2.88-1.43,2.88-3.32v-1.75a4.84,4.84,0,0,1-3.94,1.94c-3.45,0-5.56-2.78-5.56-6.07s2.16-6.37,5.72-6.37a4.36,4.36,0,0,1,3.78,1.89v-1.52h3.3v11.26C176.85,402.36,176.77,403.73,175.52,405.19Zm-4.83-13.36A3.28,3.28,0,1,0,174,395.1,3.26,3.26,0,0,0,170.69,391.83Z"/><path class="cls-1" d="M183.71,401.33a6.23,6.23,0,0,1-4.46-1.94l1.73-2a3.82,3.82,0,0,0,2.75,1.38,1.38,1.38,0,0,0,1.49-1.3c0-2-5.21-1-5.21-4.94,0-2.37,2-3.7,4.18-3.7a6,6,0,0,1,3.81,1.25L186.38,392a3.29,3.29,0,0,0-1.94-.78c-.57,0-1.25.35-1.25,1,0,1.7,5.4.94,5.4,4.94C188.59,399.87,186.22,401.33,183.71,401.33Z"/><path class="cls-1" d="M198.91,401v-6.39c0-1.62-.36-2.89-2.24-2.89s-2.49,1.56-2.49,3.29v6h-3.26V380.74h3.26v10a4.26,4.26,0,0,1,3.67-1.89,4.46,4.46,0,0,1,3.4,1.43,4.62,4.62,0,0,1,.92,3.29V401Z"/><path class="cls-1" d="M211,401.33c-3.21,0-5.64-1.43-5.64-4.91v-7.16h3.26v6.62c0,1.59.68,2.67,2.38,2.67s2.37-1.08,2.37-2.67v-6.62h3.3v7.16C216.62,399.9,214.16,401.33,211,401.33Z"/><path class="cls-1" d="M223.48,401.33a6.23,6.23,0,0,1-4.46-1.94l1.73-2a3.82,3.82,0,0,0,2.75,1.38,1.38,1.38,0,0,0,1.49-1.3c0-2-5.21-1-5.21-4.94,0-2.37,2-3.7,4.18-3.7a6,6,0,0,1,3.81,1.25L226.15,392a3.29,3.29,0,0,0-1.94-.78c-.57,0-1.25.35-1.25,1,0,1.7,5.4.94,5.4,4.94C228.36,399.87,226,401.33,223.48,401.33Z"/><path class="cls-1" d="M19.39,438l-1.48-10.27-4.6,10.5h-.9L8,427.68,6.31,438H3l3.1-17H8.36l4.55,10.9L17.66,421h2.23l2.77,17Z"/><path class="cls-1" d="M33.69,438.33a8.65,8.65,0,0,1-8.9-8.67,8.74,8.74,0,0,1,9-8.75,8.71,8.71,0,1,1-.05,17.42Zm0-14.45a5.75,5.75,0,1,0,5.57,5.72A5.65,5.65,0,0,0,33.69,423.88Z"/><path class="cls-1" d="M51.81,438.38H50.09L43,421.28h3.55L51,432.48l4.5-11.2H59Z"/><path class="cls-1" d="M61,438V421.28h9.22v2.83h-6v3.7H70v2.82H64.24v4.5h6V438Z"/><path class="cls-1" d="M92.31,428.33H89.79l-.35,2.25H92l-.43,2.72H89L88.26,438H85.14l.75-4.65h-2.3L82.86,438h-3.1l.75-4.65H77.94l.42-2.72h2.58l.35-2.25H78.74l.42-2.75h2.55l.68-4.3h3.1l-.7,4.3h2.3l.67-4.3h3.13l-.68,4.3h2.53Zm-8,0L84,430.58h2.3l.35-2.25Z"/><path class="cls-1" d="M99.29,438.38c-3.1,0-5.83-2-6-5.23h3.27a2.72,2.72,0,1,0,2.83-2.92,4,4,0,0,0-.6,0v-2.35a2.27,2.27,0,0,0,.45,0,2.27,2.27,0,1,0-2.2-2.33H94c.48-3.15,2.4-4.77,5.58-4.77,2.77,0,5.07,1.65,5.07,4.6a3.69,3.69,0,0,1-1.92,3.54,4.11,4.11,0,0,1,2.55,4.1C105.24,436.5,102.46,438.38,99.29,438.38Z"/><path class="cls-1" d="M113.94,438.38c-4.6,0-6.45-4.85-6.45-8.75s1.82-8.77,6.45-8.77,6.45,4.82,6.45,8.74S118.56,438.38,113.94,438.38Zm0-14.65c-2.55,0-3.2,3.95-3.2,5.87s.65,5.93,3.2,5.93,3.2-4,3.2-5.93S116.49,423.73,113.94,423.73Z"/><path class="cls-1" d="M124.89,438.43l-2.6-1.55,7.62-12.75h-7.72v-2.85H135Z"/><path class="cls-1" d="M149.56,438.3a4.32,4.32,0,0,1-3.62-1.77v7.2h-3v-16.6h3v1.37a4.34,4.34,0,0,1,3.55-1.72c3.22,0,5.35,2.68,5.35,5.77S152.74,438.3,149.56,438.3Zm-.9-8.8a3,3,0,1,0,3,3A3,3,0,0,0,148.66,429.5Z"/><path class="cls-1" d="M165.41,438v-1.42a4.18,4.18,0,0,1-3.52,1.77c-3.25,0-5.33-2.7-5.33-5.8s2.08-5.72,5.25-5.72a4.51,4.51,0,0,1,3.6,1.72v-1.37h3.05V438Zm-2.7-8.45a3,3,0,1,0,3,3A3,3,0,0,0,162.71,429.5Zm-.42-4.27a2.25,2.25,0,1,1,0-4.5,2.25,2.25,0,0,1,0,4.5Zm0-3.12a.88.88,0,1,0,.87.87A.85.85,0,0,0,162.29,422.11Z"/><path class="cls-1" d="M178.09,438V421.28h3.25V438Z"/><path class="cls-1" d="M192.09,438v-6c0-1.47-.33-2.6-2.05-2.6-1.88,0-2.33,1.38-2.33,3V438h-3V427.13h3v1.33a4,4,0,0,1,3.4-1.68,4.15,4.15,0,0,1,3.15,1.3,4.2,4.2,0,0,1,.85,3V438Z"/><path class="cls-1" d="M208.06,441.88a5.9,5.9,0,0,1-4.6,1.9c-2.77,0-5.45-1.6-5.75-4.55H201a2.4,2.4,0,0,0,2.57,2c1.9,0,2.68-1.32,2.68-3.07V436.5a4.5,4.5,0,0,1-3.65,1.8c-3.2,0-5.15-2.57-5.15-5.62s2-5.9,5.3-5.9a4.06,4.06,0,0,1,3.5,1.75v-1.4h3v10.42C209.28,439.25,209.21,440.53,208.06,441.88Zm-4.47-12.38a3,3,0,1,0,3,3A3,3,0,0,0,203.59,429.5Z"/><path class="cls-1" d="M220.46,438v-1.42a4.19,4.19,0,0,1-3.52,1.77c-3.25,0-5.33-2.7-5.33-5.8s2.08-5.72,5.25-5.72a4.53,4.53,0,0,1,3.6,1.72v-1.37h3V438Zm-2.7-8.45a3,3,0,1,0,3,3A3,3,0,0,0,217.76,429.5Z"/><path class="cls-1" d="M233.48,429.88a2.62,2.62,0,0,0-1.44-.38c-2,0-2.6,1.45-2.6,3.25V438h-3V427.13h3v1.62a3.48,3.48,0,0,1,3.14-2,3.57,3.57,0,0,1,1.33.25Z"/><path class="cls-1" d="M241,438.3c-3.44,0-6.19-2.15-6.19-5.75s2.75-5.77,6.22-5.77,6.15,2.18,6.15,5.75S244.46,438.3,241,438.3Zm-2.62-13.19a1.8,1.8,0,1,1,0-3.6,1.8,1.8,0,0,1,0,3.6Zm2.6,4.39a3,3,0,1,0,3.07,3.05A3.06,3.06,0,0,0,241,429.5Zm2.6-4.39a1.83,1.83,0,0,1-1.8-1.8,1.8,1.8,0,1,1,1.8,1.8Z"/></svg>