<svg id="Layer_1" data-name="Layer 1" xmlns="http://www.w3.org/2000/svg" viewBox="0 0 250 720"><defs><style>.cls-1{fill:#d80201;}</style></defs><title>text</title><path class="cls-1" d="M92.89,401v-9.21H84.15V401h-4V380.27h4v8h8.74v-8h4V401Z"/><path class="cls-1" d="M111.34,401v-1.76a5.22,5.22,0,0,1-4.38,2.2c-4,0-6.6-3.35-6.6-7.2s2.57-7.1,6.51-7.1a5.62,5.62,0,0,1,4.47,2.14v-1.7h3.78V401ZM104.86,385a2.24,2.24,0,1,1,0-4.47,2.24,2.24,0,0,1,0,4.47Zm3.13,5.45a3.77,3.77,0,1,0,3.75,3.75A3.74,3.74,0,0,0,108,390.47Zm3.32-5.45a2.28,2.28,0,0,1-2.24-2.24,2.24,2.24,0,1,1,2.24,2.24Z"/><path class="cls-1" d="M127.49,390.94a3.35,3.35,0,0,0-1.8-.47c-2.54,0-3.23,1.8-3.23,4V401h-3.75V387.53h3.75v2a4.32,4.32,0,0,1,3.91-2.45,4.38,4.38,0,0,1,1.64.31Z"/><path class="cls-1" d="M147.88,401v-1.76a5.19,5.19,0,0,1-4.37,2.2c-4,0-6.6-3.35-6.6-7.2s2.57-7.1,6.51-7.1a5.59,5.59,0,0,1,4.46,2.14v-1.7h3.79V401ZM141.4,385a2.24,2.24,0,0,1,0-4.47,2.24,2.24,0,1,1,0,4.47Zm3.14,5.45a3.77,3.77,0,1,0,3.75,3.75A3.75,3.75,0,0,0,144.54,390.47Zm3.31-5.45a2.27,2.27,0,0,1-2.23-2.24,2.24,2.24,0,1,1,2.23,2.24Z"/><path class="cls-1" d="M164,390.94a3.31,3.31,0,0,0-1.79-.47c-2.55,0-3.23,1.8-3.23,4V401h-3.75V387.53H159v2a4.32,4.32,0,0,1,3.91-2.45,4.42,4.42,0,0,1,1.64.31Z"/><path class="cls-1" d="M66.39,435.6A11,11,0,0,1,59,438H53.12V417.27H59c6.14,0,11.13,3.91,11.13,10.33A10.4,10.4,0,0,1,66.39,435.6Zm-2.64-13.15c-1.58-1.43-3.47-1.67-5.52-1.67H57.15v13.67h1.08c2.05,0,3.94-.25,5.52-1.64a7.13,7.13,0,0,0,0-10.36Z"/><path class="cls-1" d="M82,427.94a3.32,3.32,0,0,0-1.8-.47c-2.54,0-3.22,1.8-3.22,4V438H73.27V424.53H77v2a4.32,4.32,0,0,1,3.91-2.45,4.46,4.46,0,0,1,1.64.31Z"/><path class="cls-1" d="M91.4,438.39c-4.28,0-7.69-2.67-7.69-7.13s3.41-7.17,7.72-7.17,7.63,2.7,7.63,7.13S95.65,438.39,91.4,438.39ZM88.15,422a2.24,2.24,0,1,1,0-4.47,2.24,2.24,0,0,1,0,4.47Zm3.22,5.45a3.77,3.77,0,1,0,3.82,3.79A3.8,3.8,0,0,0,91.37,427.47ZM94.6,422a2.28,2.28,0,0,1-2.24-2.24A2.24,2.24,0,1,1,94.6,422Z"/><path class="cls-1" d="M119.09,438V430.6c0-1.58-.25-3.31-2.24-3.31-2.2,0-2.57,2-2.57,3.78V438h-3.75v-7.13a6,6,0,0,0-.28-2.23,2.17,2.17,0,0,0-2-1.3,2.43,2.43,0,0,0-2.1,1.21,5.46,5.46,0,0,0-.44,2.57V438h-3.75V424.53h3.75v1.52a5.18,5.18,0,0,1,4.1-2,4.56,4.56,0,0,1,4.18,2.45,5,5,0,0,1,4.4-2.45,4.42,4.42,0,0,1,3.76,1.93,5.9,5.9,0,0,1,.71,3.25V438Z"/><path class="cls-1" d="M126.43,438V414.73h3.75V438Z"/><path class="cls-1" d="M144,438v-1.76a5.19,5.19,0,0,1-4.37,2.2c-4,0-6.61-3.35-6.61-7.2s2.58-7.1,6.52-7.1a5.6,5.6,0,0,1,4.46,2.14v-1.7h3.78V438ZM137.56,422a2.24,2.24,0,0,1,0-4.47,2.24,2.24,0,0,1,0,4.47Zm3.13,5.45a3.77,3.77,0,1,0,3.75,3.75A3.74,3.74,0,0,0,140.69,427.47ZM144,422a2.27,2.27,0,0,1-2.23-2.24A2.23,2.23,0,1,1,144,422Z"/><path class="cls-1" d="M163.88,442.82a7.31,7.31,0,0,1-5.7,2.36c-3.45,0-6.76-2-7.14-5.65h4.07A3,3,0,0,0,158.3,442c2.36,0,3.32-1.64,3.32-3.81v-2a5.59,5.59,0,0,1-4.53,2.24c-4,0-6.39-3.2-6.39-7s2.48-7.32,6.58-7.32a5.05,5.05,0,0,1,4.34,2.17v-1.73h3.78v12.93C165.4,439.57,165.31,441.15,163.88,442.82Zm-5.55-15.35a3.77,3.77,0,1,0,3.75,3.75A3.74,3.74,0,0,0,158.33,427.47Z"/><path class="cls-1" d="M172.12,431.84c.07,2.08,1.06,3.6,3.29,3.6a3.5,3.5,0,0,0,3.19-1.8l3.48.56a6.6,6.6,0,0,1-6.61,4.19c-4.34,0-7.19-2.79-7.19-7.17s2.73-7.13,7-7.13,6.85,3,6.85,7.26v.49Zm3.26-5.08a3,3,0,0,0-3.13,2.7h6.35A3.1,3.1,0,0,0,175.38,426.76Z"/><path class="cls-1" d="M188.83,427.75V438h-3.75v-10.2h-1.49v-3.22h1.49v-4.59h3.75v4.59h2.64v3.22Z"/><path class="cls-1" d="M195.5,438.36a2.42,2.42,0,1,1,2.42-2.42A2.42,2.42,0,0,1,195.5,438.36ZM193.57,432V417.27h3.85V432Z"/></svg>