<svg id="Layer_1" data-name="Layer 1" xmlns="http://www.w3.org/2000/svg" viewBox="0 0 250 720"><defs><style>.cls-1{fill:#d80201;}</style></defs><title>text</title><path class="cls-1" d="M28.16,401H21.21V380.27h5.12c1.67,0,3.72.16,5.05,1.24a5.53,5.53,0,0,1,1.86,4.25A4.33,4.33,0,0,1,31,389.91a4.71,4.71,0,0,1,2.7,1.3,5.57,5.57,0,0,1,1.49,3.88C35.16,399.22,31.88,401,28.16,401Zm-1.74-17.39H25.24v5.33h1.15c1.8,0,3.13-.71,3.13-2.67S28.22,383.56,26.42,383.56Zm.68,8.4H25.24v5.74H27c2,0,4-.47,4-2.88S29,392,27.1,392Z"/><path class="cls-1" d="M41.42,394.84c.06,2.08,1.05,3.6,3.29,3.6a3.52,3.52,0,0,0,3.19-1.8l3.47.56a6.58,6.58,0,0,1-6.6,4.19c-4.34,0-7.19-2.79-7.19-7.16s2.73-7.13,7-7.13,6.85,3,6.85,7.26v.5Zm3.26-5.08a3,3,0,0,0-3.13,2.7H47.9A3.11,3.11,0,0,0,44.68,389.76Z"/><path class="cls-1" d="M58.63,401.39a7.14,7.14,0,0,1-5.12-2.23l2-2.29a4.36,4.36,0,0,0,3.16,1.58A1.58,1.58,0,0,0,60.36,397c0-2.29-6-1.15-6-5.67,0-2.73,2.26-4.25,4.81-4.25a6.92,6.92,0,0,1,4.37,1.43l-1.86,2.2a3.74,3.74,0,0,0-2.23-.9c-.65,0-1.43.4-1.43,1.15,0,2,6.2,1.09,6.2,5.67C64.24,399.71,61.51,401.39,58.63,401.39Z"/><path class="cls-1" d="M73.88,401.39c-4.28,0-7.69-2.67-7.69-7.13s3.41-7.16,7.72-7.16,7.63,2.7,7.63,7.13S78.13,401.39,73.88,401.39ZM70.62,385a2.23,2.23,0,1,1,0-4.46,2.23,2.23,0,1,1,0,4.46Zm3.22,5.46a3.77,3.77,0,1,0,3.81,3.78A3.8,3.8,0,0,0,73.85,390.47ZM77.07,385a2.26,2.26,0,0,1-2.23-2.23A2.23,2.23,0,1,1,77.07,385Z"/><path class="cls-1" d="M93.63,401l-5.05-5.77-.4.4V401H84.42V377.73h3.75v14.7l5-4.9h5.08L92,393.42,98.77,401Z"/><path class="cls-1" d="M125.34,401V393.6c0-1.58-.25-3.32-2.23-3.32-2.2,0-2.57,2-2.57,3.78V401h-3.75v-7.13a6,6,0,0,0-.28-2.23,2.17,2.17,0,0,0-2-1.3,2.45,2.45,0,0,0-2.11,1.21,5.57,5.57,0,0,0-.43,2.57V401H108.2V387.53h3.75V389a5.16,5.16,0,0,1,4.09-2,4.56,4.56,0,0,1,4.19,2.45,5,5,0,0,1,4.4-2.45,4.42,4.42,0,0,1,3.75,1.92,5.91,5.91,0,0,1,.71,3.25V401Z"/><path class="cls-1" d="M139.66,401.39c-4.28,0-7.69-2.67-7.69-7.13s3.41-7.16,7.72-7.16,7.63,2.7,7.63,7.13S143.91,401.39,139.66,401.39ZM136.41,385a2.23,2.23,0,1,1,0-4.46,2.23,2.23,0,1,1,0,4.46Zm3.22,5.46a3.77,3.77,0,1,0,3.81,3.78A3.8,3.8,0,0,0,139.63,390.47Zm3.22-5.46a2.26,2.26,0,0,1-2.23-2.23,2.23,2.23,0,1,1,2.23,2.23Z"/><path class="cls-1" d="M158.35,401.39a5.28,5.28,0,0,1-4.4-2.2V401H150.2V377.73H154v11.5a5.7,5.7,0,0,1,4.5-2.14c3.94,0,6.54,3.35,6.54,7.1S162.38,401.39,158.35,401.39Zm-1-10.91a3.77,3.77,0,1,0,3.75,3.75A3.74,3.74,0,0,0,157.33,390.47Z"/><path class="cls-1" d="M167.84,401V377.73h3.75V401Z"/><path class="cls-1" d="M178.32,394.84c.06,2.08,1.05,3.6,3.29,3.6a3.52,3.52,0,0,0,3.19-1.8l3.47.56a6.58,6.58,0,0,1-6.6,4.19c-4.34,0-7.19-2.79-7.19-7.16s2.73-7.13,7-7.13,6.85,3,6.85,7.26v.5Zm3.26-5.08a3,3,0,0,0-3.13,2.7h6.36A3.11,3.11,0,0,0,181.57,389.76Z"/><path class="cls-1" d="M200,390.94a3.32,3.32,0,0,0-1.8-.46c-2.54,0-3.22,1.8-3.22,4V401h-3.75V387.53H195v2a4.38,4.38,0,0,1,5.55-2.14Z"/><path class="cls-1" d="M212.67,401v-1.77a5.19,5.19,0,0,1-4.37,2.2c-4,0-6.6-3.35-6.6-7.19s2.57-7.1,6.51-7.1a5.59,5.59,0,0,1,4.46,2.14v-1.71h3.78V401Zm-3.35-10.48a3.77,3.77,0,1,0,3.75,3.75A3.74,3.74,0,0,0,209.32,390.47Z"/><path class="cls-1" d="M223.82,390.75V401h-3.75v-10.2h-1.49v-3.22h1.49v-4.59h3.75v4.59h2.64v3.22Z"/><path class="cls-1" d="M61.68,438l-1.83-12.74-5.71,13H53l-5.49-13L45.47,438H41.41l3.84-21.05H48l5.64,13.52,5.89-13.52H62.3L65.75,438Z"/><path class="cls-1" d="M79.41,438.42a10.73,10.73,0,0,1-11-10.76,11.06,11.06,0,1,1,11,10.76Zm0-17.92a7.13,7.13,0,1,0,6.92,7.1A7,7,0,0,0,79.41,420.5Z"/><path class="cls-1" d="M101.89,438.48H99.75l-8.81-21.21h4.4l5.52,13.89,5.58-13.89h4.37Z"/><path class="cls-1" d="M113.26,438V417.27h11.44v3.5h-7.41v4.59h7.13v3.5h-7.13v5.58h7.41V438Z"/><path class="cls-1" d="M152.11,426H149l-.43,2.79h3.16l-.53,3.38H148l-.93,5.77h-3.88l.93-5.77h-2.85l-.9,5.77h-3.84l.93-5.77h-3.19l.53-3.38H138l.43-2.79h-3.16l.53-3.41H139l.84-5.33h3.84l-.87,5.33h2.85l.84-5.33h3.88l-.84,5.33h3.13Zm-9.86,0-.43,2.79h2.85l.43-2.79Z"/><path class="cls-1" d="M160.76,438.48c-3.84,0-7.22-2.48-7.44-6.48h4.06a3.37,3.37,0,1,0,3.5-3.63,6,6,0,0,0-.74.06v-2.91a3.44,3.44,0,0,0,.56,0,2.81,2.81,0,1,0,.09-5.61c-1.77,0-2.6,1.08-2.82,2.73h-3.81c.59-3.91,3-5.92,6.91-5.92,3.44,0,6.29,2,6.29,5.71a4.61,4.61,0,0,1-2.39,4.4,5.09,5.09,0,0,1,3.16,5.08C168.14,436.15,164.69,438.48,160.76,438.48Z"/><path class="cls-1" d="M178.92,438.48c-5.71,0-8-6-8-10.85s2.26-10.88,8-10.88,8,6,8,10.85S184.66,438.48,178.92,438.48Zm0-18.17c-3.16,0-4,4.9-4,7.29s.81,7.35,4,7.35,4-5,4-7.35S182.08,420.31,178.92,420.31Z"/><path class="cls-1" d="M188.25,438l6.11-6.91c1.67-1.89,4.74-5,4.74-7.66a3.09,3.09,0,0,0-3.13-3.07c-2,0-3,1.52-3.07,3.41h-4.31c.28-4.19,3-7,7.25-7,3.88,0,7.29,2.54,7.29,6.64,0,2.88-1.89,5.24-3.75,7.22l-3.6,3.84h7.5V438Z"/></svg>