<svg id="Layer_1" data-name="Layer 1" xmlns="http://www.w3.org/2000/svg" viewBox="0 0 250 720"><defs><style>.cls-1{fill:#d80201;}</style></defs><title>text</title><path class="cls-1" d="M95.08,398.44a8.57,8.57,0,0,1-6.79,3,8.44,8.44,0,0,1-6.79-3A8.93,8.93,0,0,1,80,392.92V380.27h4v11.84a7,7,0,0,0,.65,3.72,4.16,4.16,0,0,0,3.63,1.92,4.27,4.27,0,0,0,3.63-1.92,6.66,6.66,0,0,0,.65-3.72V380.27h4v12.65A8.73,8.73,0,0,1,95.08,398.44Z"/><path class="cls-1" d="M109,401.39a5.37,5.37,0,0,1-4.5-2.2v8.93h-3.75V387.53h3.75v1.71a5.35,5.35,0,0,1,4.4-2.14c4,0,6.64,3.32,6.64,7.16S112.93,401.39,109,401.39Zm-1.12-10.91a3.77,3.77,0,1,0,3.75,3.75A3.74,3.74,0,0,0,107.88,390.47Z"/><path class="cls-1" d="M126.63,401.39a5.37,5.37,0,0,1-4.5-2.2v8.93h-3.75V387.53h3.75v1.71a5.35,5.35,0,0,1,4.4-2.14c4,0,6.64,3.32,6.64,7.16S130.57,401.39,126.63,401.39Zm-1.12-10.91a3.77,3.77,0,1,0,3.75,3.75A3.74,3.74,0,0,0,125.52,390.47Z"/><path class="cls-1" d="M136,401V377.73h3.75V401Z"/><path class="cls-1" d="M146.5,394.84c.06,2.08,1.05,3.6,3.29,3.6a3.52,3.52,0,0,0,3.19-1.8l3.47.56a6.58,6.58,0,0,1-6.6,4.19c-4.34,0-7.19-2.79-7.19-7.16s2.73-7.13,7-7.13,6.85,3,6.85,7.26v.5Zm3.26-5.08a3,3,0,0,0-3.13,2.7H153A3.11,3.11,0,0,0,149.76,389.76Z"/><path class="cls-1" d="M165.57,401.23h-1.74L157,387.53h4.22l3.54,7.57,3.53-7.57h4.22Z"/><path class="cls-1" d="M64,438l-1.83-12.74-5.71,13H55.37l-5.49-13L47.8,438H43.74l3.84-21.05h2.76L56,430.42l5.89-13.52h2.76L68.08,438Z"/><path class="cls-1" d="M81.75,438.42a10.73,10.73,0,0,1-11-10.76,11.06,11.06,0,1,1,11,10.76Zm0-17.92a7.13,7.13,0,1,0,6.91,7.1A7,7,0,0,0,81.75,420.5Z"/><path class="cls-1" d="M104.22,438.48h-2.14l-8.81-21.21h4.4l5.52,13.89,5.58-13.89h4.37Z"/><path class="cls-1" d="M115.6,438V417.27H127v3.5h-7.41v4.59h7.13v3.5h-7.13v5.58H127V438Z"/><path class="cls-1" d="M154.44,426h-3.13l-.43,2.79H154l-.53,3.38h-3.16l-.93,5.77h-3.88l.93-5.77h-2.85l-.9,5.77h-3.84l.93-5.77h-3.19l.53-3.38h3.19l.43-2.79h-3.16l.53-3.41h3.16l.84-5.33H146l-.87,5.33H148l.84-5.33h3.88l-.84,5.33H155Zm-9.86,0-.43,2.79H147l.43-2.79Z"/><path class="cls-1" d="M163.09,438.48c-3.84,0-7.22-2.48-7.44-6.48h4.06a3.37,3.37,0,1,0,3.5-3.63,6.17,6.17,0,0,0-.74.06v-2.91a3.34,3.34,0,0,0,.56,0,2.81,2.81,0,1,0,.09-5.61c-1.77,0-2.6,1.08-2.82,2.73h-3.81c.59-3.91,3-5.92,6.91-5.92,3.44,0,6.29,2,6.29,5.71a4.61,4.61,0,0,1-2.39,4.4,5.09,5.09,0,0,1,3.16,5.08C170.47,436.15,167,438.48,163.09,438.48Z"/><path class="cls-1" d="M181.26,438.48c-5.71,0-8-6-8-10.85s2.26-10.88,8-10.88,8,6,8,10.85S187,438.48,181.26,438.48Zm0-18.17c-3.16,0-4,4.9-4,7.29s.81,7.35,4,7.35,4-5,4-7.35S184.42,420.31,181.26,420.31Z"/><path class="cls-1" d="M197.47,438.48a8.84,8.84,0,0,1-6.6-2.7l1.33-3.47a6.93,6.93,0,0,0,5.21,2.64,4.1,4.1,0,0,0,4.12-4c0-2.54-2.36-4.12-4.71-4.12a6.83,6.83,0,0,0-4,1.3h-.22l2.45-10.85h9.55v3.54h-6.82L197,424a12.64,12.64,0,0,1,1.52-.12,6.94,6.94,0,0,1,7,7.22C205.56,435.78,201.9,438.48,197.47,438.48Z"/></svg>