<svg id="Layer_1" data-name="Layer 1" xmlns="http://www.w3.org/2000/svg" viewBox="0 0 250 720"><defs><style>.cls-1{fill:#d80201;}</style></defs><title>text</title><path class="cls-1" d="M87.23,401.48H85.09l-8.81-21.21h4.4l5.52,13.89,5.58-13.89h4.37Z"/><path class="cls-1" d="M99.85,384.12a2.26,2.26,0,1,1,0-4.53,2.26,2.26,0,0,1,0,4.53ZM98,401V387.53h3.75V401Z"/><path class="cls-1" d="M109.52,401.39a7.14,7.14,0,0,1-5.12-2.23l2-2.29a4.36,4.36,0,0,0,3.16,1.58,1.58,1.58,0,0,0,1.71-1.49c0-2.29-6-1.15-6-5.67,0-2.73,2.26-4.25,4.81-4.25a6.92,6.92,0,0,1,4.37,1.43l-1.86,2.2a3.75,3.75,0,0,0-2.23-.9c-.65,0-1.43.4-1.43,1.15,0,2,6.2,1.08,6.2,5.67C115.13,399.71,112.4,401.39,109.52,401.39Z"/><path class="cls-1" d="M127,401v-7.44c0-1.83-.4-3.22-2.54-3.22-2.33,0-2.88,1.71-2.88,3.72V401H117.8V387.53h3.75v1.64a5,5,0,0,1,4.22-2.08,4.64,4.64,0,0,1,5,5.33V401Z"/><path class="cls-1" d="M136.15,384.12a2.26,2.26,0,1,1,0-4.53,2.26,2.26,0,0,1,0,4.53ZM134.26,401V387.53H138V401Z"/><path class="cls-1" d="M150.72,401v-7.44c0-1.83-.4-3.22-2.54-3.22-2.33,0-2.88,1.71-2.88,3.72V401h-3.75V387.53h3.75v1.64a5,5,0,0,1,4.22-2.08,4.64,4.64,0,0,1,5,5.33V401Z"/><path class="cls-1" d="M170.53,405.82a7.32,7.32,0,0,1-5.71,2.36c-3.44,0-6.76-2-7.13-5.64h4.06a3,3,0,0,0,3.19,2.45c2.36,0,3.32-1.64,3.32-3.81v-2a5.58,5.58,0,0,1-4.53,2.23c-4,0-6.39-3.19-6.39-7s2.48-7.32,6.57-7.32a5,5,0,0,1,4.34,2.17v-1.74H172v12.93C172,402.57,172,404.15,170.53,405.82ZM165,390.47a3.77,3.77,0,1,0,3.75,3.75A3.75,3.75,0,0,0,165,390.47Z"/><path class="cls-1" d="M76.15,421.12a2.26,2.26,0,1,1,0-4.53,2.26,2.26,0,0,1,0,4.53ZM74.26,438V424.53H78V438Z"/><path class="cls-1" d="M98.47,438V430.6c0-1.86-.4-3.32-2.57-3.32-2.33,0-2.85,1.8-2.85,3.78V438H89.29V414.73H93v11.53a4.89,4.89,0,0,1,4.22-2.17,5.13,5.13,0,0,1,3.91,1.64,5.32,5.32,0,0,1,1.05,3.78V438Z"/><path class="cls-1" d="M108.95,431.84c.06,2.08,1.05,3.6,3.29,3.6a3.52,3.52,0,0,0,3.19-1.8l3.47.56a6.58,6.58,0,0,1-6.6,4.19c-4.34,0-7.19-2.79-7.19-7.16s2.73-7.13,7-7.13,6.85,3,6.85,7.26v.5Zm3.26-5.08a3,3,0,0,0-3.13,2.7h6.36A3.11,3.11,0,0,0,112.2,426.76Z"/><path class="cls-1" d="M121.87,438V414.73h3.75V438Z"/><path class="cls-1" d="M141.69,442.82a7.32,7.32,0,0,1-5.71,2.36c-3.44,0-6.76-2-7.13-5.64h4.06A3,3,0,0,0,136.1,442c2.36,0,3.32-1.64,3.32-3.81v-2a5.58,5.58,0,0,1-4.53,2.23c-4,0-6.39-3.19-6.39-7s2.48-7.32,6.57-7.32a5,5,0,0,1,4.34,2.17v-1.74h3.78v12.93C143.2,439.57,143.11,441.15,141.69,442.82Zm-5.55-15.35a3.77,3.77,0,1,0,3.75,3.75A3.75,3.75,0,0,0,136.14,427.47Z"/><path class="cls-1" d="M149.93,431.84c.06,2.08,1.05,3.6,3.29,3.6a3.52,3.52,0,0,0,3.19-1.8l3.47.56a6.58,6.58,0,0,1-6.6,4.19c-4.34,0-7.19-2.79-7.19-7.16s2.73-7.13,7-7.13,6.85,3,6.85,7.26v.5Zm3.26-5.08a3,3,0,0,0-3.13,2.7h6.36A3.11,3.11,0,0,0,153.18,426.76Z"/><path class="cls-1" d="M172,438v-7.44c0-1.83-.4-3.22-2.54-3.22-2.33,0-2.88,1.71-2.88,3.72V438h-3.75V424.53h3.75v1.64a5,5,0,0,1,4.22-2.08,4.64,4.64,0,0,1,5,5.33V438Z"/></svg>