<?xml version="1.0" encoding="utf-8"?>
<!-- Generator: Adobe Illustrator 24.0.0, SVG Export Plug-In . SVG Version: 6.00 Build 0)  -->
<svg version="1.1" id="Layer_1" xmlns="http://www.w3.org/2000/svg" xmlns:xlink="http://www.w3.org/1999/xlink" x="0px" y="0px"
	 viewBox="0 0 251.4 127" style="enable-background:new 0 0 251.4 127;" xml:space="preserve">
<style type="text/css">
	.st0{fill:#0059AC;}
</style>
<title>Capra logoaaa</title>
<g id="Layer_2_1_">
	<g id="Layer_1-2">
		<path class="st0" d="M35.5,121.7c-3.8,3.4-10.3,5.1-15.8,5.3C5.4,127.6,0.4,119.7,0,111.5S5.8,94.6,19.7,94
			c5.1-0.3,10.1,1.2,14.3,4.3l-4.7,4c-2.7-1.9-6-2.8-9.3-2.6c-9.3,0.4-13.1,6.2-12.8,11.5s4.2,10.6,13.7,10.2
			c3.5-0.1,6.8-1.4,9.5-3.6L35.5,121.7z"/>
		<path class="st0" d="M65.6,94.9l-7.7,14.2l-9.4,17.3h7.9l3.3-6h20.1l3.3,6h7.9L73.7,94.9H65.6z M62.5,114.9l7.1-13.5l7.2,13.5
			H62.5z"/>
		<path class="st0" d="M226.2,94.9l-7.7,14.2l-9.4,17.3h7.9l3.3-6h20.1l3.2,6h7.9l-17.2-31.5H226.2z M223.1,114.9l7.1-13.5l7.1,13.5
			H223.1z"/>
		<path class="st0" d="M129.3,94.9h-19.3v8.8v22.7h7.3v-9.3h10.9c16.6,0,18.5-17.4,5.9-21.5C132.5,95.1,130.9,94.9,129.3,94.9
			 M128.2,111.6h-10.9v-11.2h10.9C137.5,100.4,137.5,111.6,128.2,111.6"/>
		<path class="st0" d="M196.1,126.4l-10.9-10.1c11.3-3.4,11.4-17.1,0.4-20.7c-1.6-0.5-3.2-0.7-4.9-0.7h-19.2v8.8l0,0v22.7h7.3v-9.3
			h8.4l9.9,9.3H196.1z M179.7,111.6h-10.9v-11.2h10.9C189,100.4,189,111.6,179.7,111.6"/>
		<path class="st0" d="M122.9,53.3c-9.5-1.5-15.9-10.4-14.3-19.9c1.5-9.5,10.4-15.9,19.9-14.3s15.9,10.4,14.3,19.9
			c-0.5,3.2-1.9,6.2-4,8.6c0.1-0.1,18.9-7.1,23-8.7c0.1-0.9,0.1-1.8,0.1-2.7c0-20-16.2-36.2-36.2-36.2c-20,0-36.2,16.2-36.2,36.2
			s16.2,36.2,36.2,36.2l0,0c17.7,0,32.4-12.1,35.5-28.8c-7.4,3.1-12.2,4.8-12.2,4.8s-3.2,1.2-10.2,3.6
			C133.8,53.7,128.3,54.1,122.9,53.3z"/>
	</g>
</g>
</svg>
