<svg id="Layer_1" data-name="Layer 1" xmlns="http://www.w3.org/2000/svg" viewBox="0 0 300 250"><defs><style>.cls-1{fill:#010121;}</style></defs><title>text</title><path class="cls-1" d="M70.15,85.18h1.1V100h7.27v1H70.15Z"/><path class="cls-1" d="M84.93,89.19c2.74,0,4.42,2,4.42,5.33a4.91,4.91,0,0,1,0,.86H81c.05,2.91,1.76,5,4.35,5a5,5,0,0,0,3.09-1l.44.82a6.48,6.48,0,0,1-3.63,1.13c-2.95,0-5.33-2.26-5.33-6S82.36,89.19,84.93,89.19Zm3.41,5.38c0-2.95-1.32-4.47-3.39-4.47s-3.72,1.71-4,4.47Z"/><path class="cls-1" d="M91.65,98.91a5.31,5.31,0,0,0,3.67,1.47c1.8,0,2.74-1.06,2.74-2.28,0-1.44-1.49-2.07-2.81-2.55-1.75-.62-3.67-1.32-3.67-3.29,0-1.68,1.32-3.07,3.72-3.07a5.28,5.28,0,0,1,3.28,1.2l-.57.75a4.36,4.36,0,0,0-2.76-1c-1.78,0-2.59,1-2.59,2.09,0,1.27,1.34,1.83,2.71,2.33,1.8.67,3.77,1.27,3.77,3.53,0,1.73-1.39,3.24-3.89,3.24A6.66,6.66,0,0,1,91,99.7Z"/><path class="cls-1" d="M107,83.74H108v7.54c1.2-1.2,2.4-2.09,4-2.09,2.38,0,3.48,1.44,3.48,4.42V101h-1.06V93.75c0-2.45-.76-3.6-2.64-3.6-1.36,0-2.35.72-3.76,2.16V101H107Z"/><path class="cls-1" d="M117.71,89.48h1.15l2.6,7.22c.36,1.11.79,2.26,1.15,3.32h.09c.39-1.06.8-2.21,1.18-3.32l2.59-7.22h1.08L123.28,101H122Z"/><path class="cls-1" d="M136.36,93.78c0-1.76-.45-3.65-2.71-3.65A6.37,6.37,0,0,0,130,91.47l-.48-.79a7.64,7.64,0,0,1,4.27-1.49c2.74,0,3.65,2,3.65,4.44V101h-.89l-.12-1.49h0a6.81,6.81,0,0,1-4.08,1.78,3,3,0,0,1-3.36-3.17C128.92,95.58,131.25,94.35,136.36,93.78Zm-3.91,6.6c1.32,0,2.49-.65,3.91-1.88V94.59c-4.73.55-6.34,1.66-6.34,3.48A2.17,2.17,0,0,0,132.45,100.38Z"/><path class="cls-1" d="M46.78,118.28h1.15l2.6,7.22c.36,1.11.79,2.26,1.15,3.32h.09c.39-1.06.8-2.21,1.18-3.32l2.59-7.22h1.08L52.35,129.8H51.1Z"/><path class="cls-1" d="M65.43,122.58c0-1.76-.46-3.65-2.71-3.65a6.3,6.3,0,0,0-3.67,1.34l-.48-.79A7.64,7.64,0,0,1,62.84,118c2.73,0,3.65,2,3.65,4.44v7.37H65.6l-.12-1.49h0a6.83,6.83,0,0,1-4.08,1.78A3,3,0,0,1,58,126.92C58,124.38,60.32,123.15,65.43,122.58Zm-3.91,6.6c1.32,0,2.49-.65,3.91-1.88v-3.91c-4.73.55-6.34,1.66-6.34,3.48A2.17,2.17,0,0,0,61.52,129.18Zm-.77-14.38a2,2,0,1,1,2,2.06A2,2,0,0,1,60.75,114.8Zm3.24,0a1.27,1.27,0,1,0-1.25,1.44A1.32,1.32,0,0,0,64,114.8Z"/><path class="cls-1" d="M70.61,118.28h.92l.09,2.14h.07A4,4,0,0,1,75,118a2.38,2.38,0,0,1,1.15.24l-.24,1a2.57,2.57,0,0,0-1.06-.19c-1,0-2.25.79-3.14,3v7.85H70.61Z"/><path class="cls-1" d="M82,118c2.73,0,4.41,2,4.41,5.33a6.12,6.12,0,0,1,0,.86H78.1c.05,2.91,1.75,5,4.35,5a5.06,5.06,0,0,0,3.09-1L86,129a6.42,6.42,0,0,1-3.62,1.13c-2.95,0-5.33-2.26-5.33-6S79.47,118,82,118Zm3.41,5.38c0-3-1.32-4.47-3.39-4.47s-3.72,1.71-4,4.47Z"/><path class="cls-1" d="M94.35,112.54H95.4v12.72h0l5.69-7h1.23l-3.75,4.56,4.37,7h-1.18L98,123.63l-2.6,3v3.14H94.35Z"/><path class="cls-1" d="M105.05,118.28h1.06v7.25c0,2.45.77,3.6,2.61,3.6,1.37,0,2.38-.72,3.72-2.35v-8.5h1.06V129.8h-.89l-.12-1.92h0a5.12,5.12,0,0,1-3.91,2.21c-2.37,0-3.48-1.44-3.48-4.42Z"/><path class="cls-1" d="M117.92,118.28h.91l.09,1.78H119a5.59,5.59,0,0,1,4-2.07c2.37,0,3.48,1.44,3.48,4.42v7.39h-1.06v-7.25c0-2.45-.77-3.6-2.64-3.6-1.37,0-2.35.72-3.77,2.16v8.69h-1Z"/><path class="cls-1" d="M134.84,118a5.32,5.32,0,0,1,3.48,1.42l0-2.12v-4.75h1.06V129.8h-.92l-.09-1.49h-.07a5.4,5.4,0,0,1-3.75,1.78c-2.9,0-4.78-2.14-4.78-6C129.72,120.34,132.1,118,134.84,118Zm-.2,11.16a5.22,5.22,0,0,0,3.63-1.89v-6.84a4.84,4.84,0,0,0-3.36-1.49c-2.31,0-4.06,2.23-4.06,5.13S132.2,129.15,134.64,129.15Z"/><path class="cls-1" d="M147.8,118c2.73,0,4.41,2,4.41,5.33a6.12,6.12,0,0,1,0,.86h-8.31c0,2.91,1.75,5,4.35,5a5.06,5.06,0,0,0,3.09-1l.43.82a6.42,6.42,0,0,1-3.62,1.13c-3,0-5.33-2.26-5.33-6S145.23,118,147.8,118Zm3.41,5.38c0-3-1.33-4.47-3.39-4.47s-3.72,1.71-4,4.47Z"/><path class="cls-1" d="M155.33,118.28h.91l.1,2.14h.07a4,4,0,0,1,3.27-2.43,2.41,2.41,0,0,1,1.15.24l-.24,1a2.6,2.6,0,0,0-1.06-.19c-1,0-2.25.79-3.14,3v7.85h-1.06Z"/><path class="cls-1" d="M53.1,156.51A5.35,5.35,0,0,0,56.78,158c1.8,0,2.73-1.06,2.73-2.28,0-1.45-1.48-2.07-2.8-2.55C55,152.53,53,151.83,53,149.86c0-1.68,1.32-3.07,3.72-3.07A5.31,5.31,0,0,1,60,148l-.57.74a4.41,4.41,0,0,0-2.76-1c-1.78,0-2.6,1-2.6,2.09,0,1.27,1.35,1.83,2.72,2.33,1.8.67,3.76,1.27,3.76,3.53,0,1.73-1.39,3.24-3.88,3.24a6.64,6.64,0,0,1-4.23-1.59Z"/><path class="cls-1" d="M63.23,143.36a1,1,0,1,1,1,.93A.92.92,0,0,1,63.23,143.36Zm.41,3.72H64.7V158.6H63.64Z"/><path class="cls-1" d="M73.19,146.79c2.74,0,4.42,1.94,4.42,5.33a4.91,4.91,0,0,1,0,.86h-8.3c0,2.91,1.75,5,4.34,5a5.09,5.09,0,0,0,3.1-1l.43.82a6.42,6.42,0,0,1-3.62,1.13c-3,0-5.33-2.26-5.33-6S70.63,146.79,73.19,146.79Zm3.41,5.38c0-3-1.32-4.47-3.38-4.47s-3.72,1.71-4,4.47Z"/><path class="cls-1" d="M80.73,147.08h.91l.1,2.13h.07a4,4,0,0,1,3.26-2.42,2.45,2.45,0,0,1,1.16.24L86,148a2.6,2.6,0,0,0-1.06-.19c-1,0-2.26.79-3.15,2.95v7.85h-1Z"/><path class="cls-1" d="M97.31,146.79c2.79,0,5.19,2.21,5.19,6.07s-2.4,6-5.19,6-5.16-2.21-5.16-6S94.55,146.79,97.31,146.79Zm0,11.16c2.33,0,4.08-2.06,4.08-5.09s-1.75-5.13-4.08-5.13-4,2.08-4,5.13S95,158,97.31,158Z"/><path class="cls-1" d="M106,147.08h.91l.1,1.77H107a5.28,5.28,0,0,1,3.63-2.06,3,3,0,0,1,3.19,2.35c1.32-1.44,2.59-2.35,3.91-2.35,2.3,0,3.46,1.44,3.46,4.42v7.39h-1.08v-7.25c0-2.45-.82-3.6-2.57-3.6-1.08,0-2.19.72-3.46,2.16v8.69h-1v-7.25c0-2.45-.82-3.6-2.6-3.6q-1.54,0-3.45,2.16v8.69H106Z"/><path class="cls-1" d="M134.42,146.79c2.78,0,5.18,2.21,5.18,6.07s-2.4,6-5.18,6-5.17-2.21-5.17-6S131.66,146.79,134.42,146.79Zm0,11.16c2.32,0,4.08-2.06,4.08-5.09s-1.76-5.13-4.08-5.13-4.06,2.08-4.06,5.13S132.09,158,134.42,158Z"/><path class="cls-1" d="M142.24,156.51a5.31,5.31,0,0,0,3.67,1.47c1.8,0,2.74-1.06,2.74-2.28,0-1.45-1.49-2.07-2.81-2.55-1.75-.62-3.67-1.32-3.67-3.29,0-1.68,1.32-3.07,3.72-3.07a5.36,5.36,0,0,1,3.29,1.2l-.58.74a4.39,4.39,0,0,0-2.76-1c-1.78,0-2.59,1-2.59,2.09,0,1.27,1.34,1.83,2.71,2.33,1.8.67,3.77,1.27,3.77,3.53,0,1.73-1.4,3.24-3.89,3.24a6.61,6.61,0,0,1-4.22-1.59Z"/><path class="cls-1" d="M152,156.51a5.31,5.31,0,0,0,3.67,1.47c1.8,0,2.74-1.06,2.74-2.28,0-1.45-1.49-2.07-2.81-2.55-1.75-.62-3.67-1.32-3.67-3.29,0-1.68,1.32-3.07,3.72-3.07a5.36,5.36,0,0,1,3.29,1.2l-.58.74a4.39,4.39,0,0,0-2.76-1c-1.78,0-2.59,1-2.59,2.09,0,1.27,1.34,1.83,2.71,2.33,1.8.67,3.77,1.27,3.77,3.53,0,1.73-1.4,3.24-3.89,3.24a6.66,6.66,0,0,1-4.23-1.59Z"/></svg>