<svg id="Layer_1" data-name="Layer 1" xmlns="http://www.w3.org/2000/svg" viewBox="0 0 300 250"><defs><style>.cls-1{fill:#fff;}</style></defs><title>text</title><path class="cls-1" d="M155.66,30.83l1.84,3.28h-1.21l-1.86-3.31,2.65-3.32h1.31Zm3,0,1.84,3.28h-1.21l-1.87-3.31L160,27.48h1.32Z"/><path class="cls-1" d="M167.34,23.2h1.49l-1.13,5.91.09,0c.41-.51.83-.94,1.19-1.35l4.27-4.54h1.87L170,28.42l3.14,6.92H171.5l-2.65-6-1.46,1.35-.88,4.61H165Z"/><path class="cls-1" d="M182.46,30.06c0,2.68-1.91,5.47-4.82,5.47A3.33,3.33,0,0,1,174.23,32c0-2.86,2-5.53,4.83-5.53A3.33,3.33,0,0,1,182.46,30.06Zm-6.68,1.84c0,1.42.78,2.45,2.05,2.45,1.77,0,3.1-2.27,3.1-4.31a2.15,2.15,0,0,0-2-2.43C177,27.61,175.76,29.9,175.78,31.9Z"/><path class="cls-1" d="M183.5,35.34l1.17-6.18c.2-1,.31-1.82.42-2.54h1.33l-.22,1.71h0a3.81,3.81,0,0,1,3.22-1.91,2.15,2.15,0,0,1,2.22,2.43,8.46,8.46,0,0,1-.16,1.41l-1,5.08h-1.49l.95-5a5.11,5.11,0,0,0,.13-1.11c0-.89-.34-1.53-1.37-1.53s-2.57,1.27-3,3.43L185,35.34Z"/><path class="cls-1" d="M193.19,33.82a3.86,3.86,0,0,0,1.87.54,1.51,1.51,0,0,0,1.66-1.42c0-.68-.31-1.1-1.21-1.6a2.6,2.6,0,0,1-1.57-2.22,2.87,2.87,0,0,1,3.15-2.7,3.66,3.66,0,0,1,1.82.43L198.5,28a3.14,3.14,0,0,0-1.51-.4,1.4,1.4,0,0,0-1.55,1.32c0,.63.41,1,1.19,1.46a2.72,2.72,0,0,1,1.63,2.28c0,1.84-1.49,2.87-3.33,2.87a3.81,3.81,0,0,1-2.16-.6Z"/><path class="cls-1" d="M208.33,26.62l-1.17,6.18c-.18,1-.31,1.82-.4,2.54h-1.35l.24-1.64h0a3.89,3.89,0,0,1-3.08,1.83c-1.12,0-2.29-.54-2.29-2.52a8,8,0,0,1,.17-1.46l.93-4.93h1.5l-.92,4.86a5.8,5.8,0,0,0-.16,1.28c0,.9.37,1.51,1.4,1.51S205.63,33,206,31.09l.84-4.47Z"/><path class="cls-1" d="M209.32,35.34l2.43-12.79h1.49l-2.45,12.79Z"/><path class="cls-1" d="M219.7,34.83a6,6,0,0,1-2.88.69c-2.3,0-3.31-1.57-3.31-3.5,0-2.63,1.94-5.6,4.75-5.6a2.27,2.27,0,0,1,2.56,2.24c0,2.28-2.58,2.89-5.8,2.84a3.63,3.63,0,0,0,.18,1.66,2,2,0,0,0,2,1.17,4.85,4.85,0,0,0,2.34-.62Zm-1.65-7.24c-1.43,0-2.49,1.39-2.85,2.76,2.34,0,4.18-.29,4.18-1.64C219.38,28,218.84,27.59,218.05,27.59Z"/><path class="cls-1" d="M221.57,35.34l1.17-6.18c.2-1,.31-1.82.42-2.54h1.33l-.22,1.71h0a3.81,3.81,0,0,1,3.22-1.91,2.15,2.15,0,0,1,2.22,2.43,8.55,8.55,0,0,1-.17,1.41l-1,5.08h-1.49l.95-5a5.81,5.81,0,0,0,.13-1.11c0-.89-.34-1.53-1.37-1.53s-2.58,1.27-3,3.43l-.79,4.24Z"/><path class="cls-1" d="M235.09,24.28l-.45,2.34h2.09l-.23,1.17h-2.09L233.6,32a7.71,7.71,0,0,0-.16,1.41.73.73,0,0,0,.82.83,3.76,3.76,0,0,0,.71-.06l-.08,1.17a3.43,3.43,0,0,1-1.15.16,1.61,1.61,0,0,1-1.83-1.69,8.54,8.54,0,0,1,.17-1.64l.87-4.41h-1.26l.23-1.17h1.25l.37-2Z"/><path class="cls-1" d="M243,34.83a6,6,0,0,1-2.88.69c-2.31,0-3.31-1.57-3.31-3.5,0-2.63,1.94-5.6,4.75-5.6a2.27,2.27,0,0,1,2.56,2.24c0,2.28-2.58,2.89-5.8,2.84a3.63,3.63,0,0,0,.18,1.66,2,2,0,0,0,1.94,1.17,4.82,4.82,0,0,0,2.34-.62Zm-1.66-7.24c-1.42,0-2.48,1.39-2.84,2.76,2.34,0,4.18-.29,4.18-1.64C242.71,28,242.17,27.59,241.37,27.59Z"/><path class="cls-1" d="M244.9,35.34l1.17-6.18c.2-1,.31-1.82.42-2.54h1.33l-.22,1.71h0a3.81,3.81,0,0,1,3.22-1.91,2.15,2.15,0,0,1,2.22,2.43,8.55,8.55,0,0,1-.17,1.41l-1,5.08h-1.49l1-5a5.81,5.81,0,0,0,.13-1.11c0-.89-.35-1.53-1.37-1.53s-2.58,1.27-3,3.43l-.79,4.24Z"/><path class="cls-1" d="M260.8,34.83a6,6,0,0,1-2.88.69c-2.31,0-3.32-1.57-3.32-3.5,0-2.63,2-5.6,4.76-5.6a2.26,2.26,0,0,1,2.55,2.24c0,2.28-2.57,2.89-5.8,2.84a3.77,3.77,0,0,0,.18,1.66,2,2,0,0,0,1.95,1.17,4.82,4.82,0,0,0,2.34-.62Zm-1.66-7.24c-1.42,0-2.49,1.39-2.85,2.76,2.34,0,4.18-.29,4.18-1.64C260.47,28,259.93,27.59,259.14,27.59Z"/><path class="cls-1" d="M154.34,56.94,156,48.22h1.49l-1.67,8.72Zm1.95-11.15a1,1,0,0,1,1-1,.87.87,0,0,1,.88.94,1,1,0,0,1-1,1A.86.86,0,0,1,156.29,45.79Z"/><path class="cls-1" d="M165.58,44.8l-2.31,12.14h-1.49l2.3-12.14Z"/><path class="cls-1" d="M165.94,56.94l1.17-6.18c.19-1,.3-1.82.41-2.54h1.33l-.21,1.71h0A3.83,3.83,0,0,1,171.89,48a2.15,2.15,0,0,1,2.22,2.43,8.46,8.46,0,0,1-.16,1.41l-1,5.08h-1.5l1-5a5.11,5.11,0,0,0,.13-1.11c0-.89-.34-1.53-1.37-1.53s-2.57,1.27-3,3.43l-.79,4.24Z"/><path class="cls-1" d="M175.55,56.94l1.17-6.18c.2-1,.3-1.82.41-2.54h1.33l-.21,1.71h0A3.84,3.84,0,0,1,181.51,48a2.15,2.15,0,0,1,2.21,2.43,8.46,8.46,0,0,1-.16,1.41l-1,5.08h-1.5l1-5a5.8,5.8,0,0,0,.12-1.11c0-.89-.34-1.53-1.37-1.53s-2.57,1.27-3,3.43L177,56.94Z"/><path class="cls-1" d="M193.51,51.66c0,2.68-1.9,5.47-4.82,5.47a3.32,3.32,0,0,1-3.4-3.58c0-2.86,2-5.53,4.82-5.53A3.33,3.33,0,0,1,193.51,51.66Zm-6.68,1.84c0,1.42.78,2.45,2.06,2.45,1.76,0,3.09-2.27,3.09-4.31,0-1-.46-2.43-2-2.43C188.08,49.21,186.82,51.5,186.83,53.5Z"/><path class="cls-1" d="M194.77,56.94l1.42-7.55H195l.22-1.17h1.17l.09-.45a5.1,5.1,0,0,1,1.42-3A3,3,0,0,1,200,44a2.33,2.33,0,0,1,1.19.24l-.32,1.19a2.17,2.17,0,0,0-.89-.17c-1.19,0-1.76,1.16-2,2.6l-.08.41h1.95l-.24,1.17h-1.92l-1.44,7.55Z"/><path class="cls-1" d="M205.3,56.94a21.58,21.58,0,0,1,.2-2.25h0c-1,1.8-2.14,2.44-3.38,2.44-1.53,0-2.5-1.22-2.5-2.88a6.09,6.09,0,0,1,6-6.23,8.38,8.38,0,0,1,2.34.34l-.88,4.54a19.52,19.52,0,0,0-.38,4Zm1-7.6a3.7,3.7,0,0,0-1-.13c-2.25,0-4.09,2.36-4.1,4.77,0,1,.34,1.93,1.49,1.93s2.72-1.62,3.15-3.94Z"/><path class="cls-1" d="M214.92,56.59a6,6,0,0,1-2.53.53A3.14,3.14,0,0,1,209,53.75,5.52,5.52,0,0,1,214.38,48a4.3,4.3,0,0,1,1.81.38l-.43,1.19a3.4,3.4,0,0,0-1.47-.33c-2.27,0-3.7,2.24-3.7,4.29a2.05,2.05,0,0,0,2.16,2.32,4.67,4.67,0,0,0,2-.48Z"/><path class="cls-1" d="M220.55,45.88l-.45,2.34h2.09L222,49.39h-2.09l-.81,4.23a7.71,7.71,0,0,0-.16,1.41.73.73,0,0,0,.83.82,3.78,3.78,0,0,0,.7-.05L220.35,57a3.43,3.43,0,0,1-1.15.16,1.62,1.62,0,0,1-1.84-1.69,8.62,8.62,0,0,1,.18-1.64l.87-4.41h-1.27l.24-1.17h1.24l.38-2Z"/><path class="cls-1" d="M230.56,51.66c0,2.68-1.91,5.47-4.83,5.47a3.32,3.32,0,0,1-3.4-3.58c0-2.86,2-5.53,4.82-5.53A3.33,3.33,0,0,1,230.56,51.66Zm-6.68,1.84c0,1.42.77,2.45,2.05,2.45,1.76,0,3.1-2.27,3.1-4.31a2.16,2.16,0,0,0-2-2.43C225.12,49.21,223.86,51.5,223.88,53.5Z"/><path class="cls-1" d="M231.6,56.94l1.06-5.62c.22-1.14.36-2.29.45-3.1h1.31c-.07.61-.14,1.23-.23,1.89h.06A3.13,3.13,0,0,1,236.91,48a2.48,2.48,0,0,1,.41,0L237,49.54a2,2,0,0,0-.4,0c-1.3,0-2.45,1.57-2.83,3.6l-.72,3.84Z"/><path class="cls-1" d="M160.63,78a6,6,0,0,1-2.88.69c-2.31,0-3.32-1.57-3.32-3.5,0-2.63,1.95-5.6,4.76-5.6a2.26,2.26,0,0,1,2.55,2.24c0,2.28-2.57,2.89-5.79,2.84a3.5,3.5,0,0,0,.18,1.66,2,2,0,0,0,1.94,1.17,4.94,4.94,0,0,0,2.34-.61ZM159,70.79c-1.42,0-2.48,1.39-2.84,2.76,2.34,0,4.17-.29,4.17-1.64C160.3,71.19,159.76,70.79,159,70.79Z"/><path class="cls-1" d="M162.5,78.54l1.06-5.62c.22-1.14.36-2.29.45-3.1h1.31c-.07.61-.14,1.23-.23,1.89h0a3.16,3.16,0,0,1,2.67-2.09,2.48,2.48,0,0,1,.41,0l-.28,1.48a2.06,2.06,0,0,0-.4,0c-1.3,0-2.45,1.57-2.83,3.6L164,78.54Z"/><path class="cls-1" d="M180.77,65.75l-1.91,10a23.1,23.1,0,0,0-.38,2.76h-1.36l.23-1.73h0a3.71,3.71,0,0,1-3.13,1.92c-1.69,0-2.61-1.38-2.61-3.17,0-3.09,2.3-5.94,5.38-5.94a4,4,0,0,1,1.55.31l.78-4.18Zm-2.5,5.44a2.71,2.71,0,0,0-1.44-.36c-2.09,0-3.71,2.21-3.71,4.54,0,1,.36,2.14,1.64,2.14s2.53-1.32,2.91-3.28Z"/><path class="cls-1" d="M182.86,69.82l.86,4.7c.2,1,.31,1.64.4,2.29h0c.24-.56.49-1.17.94-2.13l2.21-4.86h1.59l-3.26,6.63a16.25,16.25,0,0,1-3,4.57,5.35,5.35,0,0,1-2.54,1.51l-.36-1.28a5.68,5.68,0,0,0,1.61-.84,6.82,6.82,0,0,0,1.67-2,.62.62,0,0,0,.05-.4l-1.74-8.19Z"/><path class="cls-1" d="M188.9,78.54l2.42-12.79h1.49l-1.53,8h0c.27-.3.59-.63.81-.88l3.08-3.06H197l-3.8,3.58,2.61,5.14H194.2l-2.09-4.31-1.1,1-.63,3.32Z"/><path class="cls-1" d="M201,67.48l-.45,2.34h2.09L202.4,71h-2.08l-.81,4.23a7.75,7.75,0,0,0-.17,1.41.74.74,0,0,0,.83.83,3.65,3.65,0,0,0,.7-.06l-.07,1.17a3.43,3.43,0,0,1-1.15.16A1.62,1.62,0,0,1,197.81,77,8.62,8.62,0,0,1,198,75.4l.87-4.41H197.6l.23-1.17h1.24l.38-2Z"/><path class="cls-1" d="M202.73,78.54l1.67-8.72h1.5l-1.68,8.72Zm1.94-11.15a1,1,0,0,1,1-1,.87.87,0,0,1,.88.94,1,1,0,0,1-1,1A.87.87,0,0,1,204.67,67.39Z"/><path class="cls-1" d="M206.94,80.52a4.66,4.66,0,0,0,2.3.57c1.46,0,2.61-.75,3.14-3.11l.29-1.3h-.06a3.49,3.49,0,0,1-3,1.86,2.75,2.75,0,0,1-2.65-3,5.69,5.69,0,0,1,5.53-5.89,7.22,7.22,0,0,1,2.79.61l-1.34,7.21c-.36,1.83-.84,3.11-1.76,3.89a4.61,4.61,0,0,1-3,1,5.15,5.15,0,0,1-2.61-.61Zm6.68-9.4a3.56,3.56,0,0,0-1.44-.29c-2.18,0-3.67,2.27-3.69,4.43,0,.95.34,2.09,1.67,2.09s2.58-1.62,2.9-3.33Z"/><path class="cls-1" d="M222.56,78a6,6,0,0,1-2.88.69c-2.3,0-3.31-1.57-3.31-3.5,0-2.63,1.95-5.6,4.75-5.6a2.27,2.27,0,0,1,2.56,2.24c0,2.28-2.57,2.89-5.8,2.84a3.77,3.77,0,0,0,.18,1.66A2,2,0,0,0,220,77.53a5,5,0,0,0,2.34-.61Zm-1.65-7.24c-1.42,0-2.49,1.39-2.85,2.76,2.34,0,4.18-.29,4.18-1.64C222.24,71.19,221.7,70.79,220.91,70.79Z"/><path class="cls-1" d="M222.94,80.75a28.58,28.58,0,0,0,1.76-4.3l1.79-.18a26.17,26.17,0,0,1-2.4,4.37Z"/><path class="cls-1" d="M231.31,78.54l2.41-12.79h1.5l-1.53,8h0c.27-.3.6-.63.81-.88l3.08-3.06h1.84l-3.8,3.58,2.61,5.14H236.6l-2.08-4.31-1.1,1-.63,3.32Z"/><path class="cls-1" d="M160.12,100.14a22,22,0,0,1,.2-2.26h0c-1,1.81-2.15,2.45-3.39,2.45-1.53,0-2.5-1.22-2.5-2.88a6.09,6.09,0,0,1,6-6.23,8.38,8.38,0,0,1,2.34.34l-.88,4.54a19.52,19.52,0,0,0-.38,4Zm1-7.6a3.78,3.78,0,0,0-1-.13c-2.25,0-4.09,2.36-4.1,4.77,0,1,.34,1.93,1.49,1.93s2.72-1.62,3.15-3.94Z"/><path class="cls-1" d="M163,103.7l1.74-9.18c.18-1,.36-2.22.49-3.1h1.37l-.26,1.64h0a4,4,0,0,1,3.13-1.84c1.89,0,2.69,1.55,2.69,3.15,0,3.06-2.2,6-5.1,6a3.8,3.8,0,0,1-1.89-.39h0l-.7,3.76Zm2.44-5a2.69,2.69,0,0,0,1.66.48c1.93,0,3.55-2.39,3.55-4.68,0-.92-.42-2-1.68-2s-2.64,1.34-3.09,3.78Z"/><path class="cls-1" d="M179,100.14a22,22,0,0,1,.2-2.26h0c-.95,1.81-2.14,2.45-3.38,2.45a2.59,2.59,0,0,1-2.51-2.88,6.1,6.1,0,0,1,6-6.23,8.5,8.5,0,0,1,2.34.34l-.89,4.54a20.13,20.13,0,0,0-.37,4Zm1-7.6a3.7,3.7,0,0,0-1-.13c-2.25,0-4.09,2.36-4.11,4.77,0,1,.34,1.93,1.5,1.93s2.71-1.62,3.15-3.94Z"/><path class="cls-1" d="M186.44,87.35,185.29,93h0a3.67,3.67,0,0,1,3.06-1.79c1.91,0,2.63,1.59,2.63,3.14,0,2.66-1.93,6-5.42,6-1.53,0-2.68-.63-2.68-2.25a9,9,0,0,1,.14-1.35l1.89-9.38Zm-1.89,9.42a3.84,3.84,0,0,0-.11,1.1c0,.82.47,1.29,1.4,1.29,2.25,0,3.62-2.68,3.62-4.61,0-1.08-.46-2.08-1.65-2.08s-2.63,1.33-3.06,3.38Z"/><path class="cls-1" d="M192.05,100.14l2.43-12.79H196l-2.45,12.79Z"/><path class="cls-1" d="M202.44,99.63a6,6,0,0,1-2.88.68c-2.3,0-3.31-1.56-3.31-3.49,0-2.63,1.94-5.6,4.75-5.6a2.27,2.27,0,0,1,2.56,2.24c0,2.28-2.58,2.89-5.8,2.84a3.63,3.63,0,0,0,.18,1.66,2,2,0,0,0,1.94,1.17,5,5,0,0,0,2.35-.61Zm-1.65-7.24c-1.43,0-2.49,1.39-2.85,2.76,2.34,0,4.18-.29,4.18-1.64C202.12,92.79,201.58,92.39,200.79,92.39Z"/><path class="cls-1" d="M215.94,94.86c0,2.68-1.91,5.47-4.82,5.47a3.33,3.33,0,0,1-3.41-3.58c0-2.86,2-5.53,4.83-5.53A3.33,3.33,0,0,1,215.94,94.86Zm-6.68,1.84c0,1.42.78,2.45,2.05,2.45,1.77,0,3.1-2.27,3.1-4.31a2.15,2.15,0,0,0-2-2.43C210.5,92.41,209.24,94.7,209.26,96.7Z"/><path class="cls-1" d="M217.13,102.12a4.63,4.63,0,0,0,2.3.57c1.46,0,2.61-.75,3.13-3.11l.29-1.3h0a3.49,3.49,0,0,1-3,1.86,2.75,2.75,0,0,1-2.64-3,5.68,5.68,0,0,1,5.52-5.89,7.23,7.23,0,0,1,2.8.61L224.11,99c-.36,1.83-.84,3.11-1.76,3.89a4.65,4.65,0,0,1-3,1,5.18,5.18,0,0,1-2.61-.61Zm6.68-9.4a3.56,3.56,0,0,0-1.44-.29c-2.18,0-3.68,2.27-3.7,4.43,0,1,.35,2.09,1.68,2.09s2.57-1.62,2.9-3.33Z"/><path class="cls-1" d="M229.76,100.14l2.43-12.79h1.5l-2.45,12.79Z"/><path class="cls-1" d="M240.15,99.63a6,6,0,0,1-2.88.68c-2.31,0-3.31-1.56-3.31-3.49,0-2.63,1.94-5.6,4.75-5.6a2.27,2.27,0,0,1,2.56,2.24c0,2.28-2.58,2.89-5.8,2.84a3.63,3.63,0,0,0,.18,1.66,2,2,0,0,0,1.94,1.17,4.94,4.94,0,0,0,2.34-.61Zm-1.66-7.24c-1.42,0-2.48,1.39-2.84,2.76,2.34,0,4.18-.29,4.18-1.64C239.83,92.79,239.29,92.39,238.49,92.39Z"/><path class="cls-1" d="M245.93,89.08l-.45,2.34h2.09l-.24,1.17h-2.09l-.81,4.23a7.71,7.71,0,0,0-.16,1.41.74.74,0,0,0,.83.83,3.73,3.73,0,0,0,.7-.06l-.07,1.17a3.43,3.43,0,0,1-1.15.16,1.62,1.62,0,0,1-1.84-1.69,7.88,7.88,0,0,1,.18-1.64l.86-4.41h-1.26l.24-1.17H244l.38-2Z"/><path class="cls-1" d="M251.56,89.08l-.45,2.34h2.09L253,92.59h-2.08l-.81,4.23a7.75,7.75,0,0,0-.17,1.41.74.74,0,0,0,.83.83,3.65,3.65,0,0,0,.7-.06l-.07,1.17a3.43,3.43,0,0,1-1.15.16,1.62,1.62,0,0,1-1.84-1.69,8.62,8.62,0,0,1,.18-1.64l.87-4.41h-1.26l.23-1.17h1.24l.38-2Z"/><path class="cls-1" d="M259.5,99.63a6,6,0,0,1-2.88.68c-2.31,0-3.32-1.56-3.32-3.49,0-2.63,1.95-5.6,4.76-5.6a2.27,2.27,0,0,1,2.56,2.24c0,2.28-2.58,2.89-5.8,2.84A3.63,3.63,0,0,0,255,98a2,2,0,0,0,1.94,1.17,4.94,4.94,0,0,0,2.34-.61Zm-1.66-7.24c-1.42,0-2.48,1.39-2.84,2.76,2.34,0,4.17-.29,4.17-1.64C259.17,92.79,258.63,92.39,257.84,92.39Z"/><path class="cls-1" d="M160.12,121.74a22.2,22.2,0,0,1,.2-2.26h0c-1,1.81-2.15,2.45-3.39,2.45-1.53,0-2.5-1.22-2.5-2.88a6.09,6.09,0,0,1,6-6.23,8,8,0,0,1,2.34.35l-.88,4.53a19.58,19.58,0,0,0-.38,4Zm1-7.6a3.78,3.78,0,0,0-1-.13c-2.25,0-4.09,2.36-4.1,4.77,0,1,.34,1.93,1.49,1.93s2.72-1.62,3.15-3.94Zm.66-3.73a1.78,1.78,0,0,1-1.87,1.71,1.64,1.64,0,0,1-1.73-1.58,1.76,1.76,0,0,1,1.87-1.77A1.61,1.61,0,0,1,161.76,110.41Zm-2.7.09a.89.89,0,0,0,.87.94,1,1,0,0,0,.93-1.07.87.87,0,0,0-.88-.93A1,1,0,0,0,159.06,110.5Z"/><path class="cls-1" d="M170.26,113l-1.66,8.68a6,6,0,0,1-1.1,3,2.7,2.7,0,0,1-2,.85,3.37,3.37,0,0,1-1-.11l.18-1.17a2.92,2.92,0,0,0,.69.07c.75,0,1.35-.47,1.69-2.27l1.69-9Zm-1.3-2.43a1,1,0,0,1,1-1,.87.87,0,0,1,.88.94,1,1,0,0,1-1,1A.86.86,0,0,1,169,110.59Z"/><path class="cls-1" d="M179.46,116.46c0,2.68-1.91,5.47-4.83,5.47a3.32,3.32,0,0,1-3.4-3.58c0-2.86,2-5.53,4.82-5.53A3.33,3.33,0,0,1,179.46,116.46Zm-6.68,1.84c0,1.42.77,2.45,2.05,2.45,1.76,0,3.09-2.27,3.09-4.31,0-1-.46-2.43-2-2.43C174,114,172.76,116.3,172.78,118.3Z"/><path class="cls-1" d="M184.35,109l-1.15,5.66h0a3.69,3.69,0,0,1,3.06-1.79c1.91,0,2.63,1.59,2.63,3.14,0,2.66-1.92,6-5.42,6-1.53,0-2.68-.63-2.68-2.25a9,9,0,0,1,.14-1.35l1.9-9.38Zm-1.89,9.42a3.84,3.84,0,0,0-.11,1.1c0,.83.47,1.29,1.41,1.29,2.25,0,3.62-2.68,3.62-4.61,0-1.08-.47-2.08-1.66-2.08s-2.63,1.33-3.06,3.38Z"/><path class="cls-1" d="M193.8,109l-1.15,5.66h0a3.7,3.7,0,0,1,3.07-1.79c1.9,0,2.62,1.59,2.62,3.14,0,2.66-1.92,6-5.42,6-1.53,0-2.68-.63-2.68-2.25a7.86,7.86,0,0,1,.15-1.35l1.89-9.38Zm-1.89,9.42a3.84,3.84,0,0,0-.11,1.1c0,.83.47,1.29,1.41,1.29,2.25,0,3.62-2.68,3.62-4.61,0-1.08-.47-2.08-1.66-2.08s-2.63,1.33-3.06,3.38Z"/><path class="cls-1" d="M205.73,121.23a6,6,0,0,1-2.88.69c-2.3,0-3.31-1.57-3.31-3.5,0-2.63,2-5.6,4.75-5.6a2.27,2.27,0,0,1,2.56,2.24c0,2.28-2.57,2.89-5.8,2.84a3.77,3.77,0,0,0,.18,1.66,2,2,0,0,0,2,1.17,5,5,0,0,0,2.34-.61ZM204.08,114c-1.42,0-2.49,1.39-2.85,2.76,2.34,0,4.18-.29,4.18-1.64C205.41,114.39,204.87,114,204.08,114Z"/><path class="cls-1" d="M210.88,121.74l1.17-6.18c.18-1,.31-1.82.4-2.54h1.31l-.23,1.64h.05a3.72,3.72,0,0,1,3.06-1.84,1.91,1.91,0,0,1,2,2,3.74,3.74,0,0,1,3.2-2,2.07,2.07,0,0,1,2.11,2.29,9.05,9.05,0,0,1-.15,1.48l-1,5.15h-1.46l.94-5a5.83,5.83,0,0,0,.13-1.13c0-.92-.35-1.51-1.32-1.51s-2.36,1.26-2.72,3.2l-.84,4.47h-1.44l1-5.12a5.79,5.79,0,0,0,.11-1.06c0-.74-.2-1.49-1.3-1.49s-2.45,1.44-2.79,3.29l-.81,4.38Z"/><path class="cls-1" d="M231.71,121.23a6,6,0,0,1-2.88.69c-2.31,0-3.32-1.57-3.32-3.5,0-2.63,2-5.6,4.76-5.6a2.26,2.26,0,0,1,2.55,2.24c0,2.28-2.57,2.89-5.79,2.84a3.5,3.5,0,0,0,.18,1.66,2,2,0,0,0,1.94,1.17,4.94,4.94,0,0,0,2.34-.61ZM230.05,114c-1.42,0-2.48,1.39-2.84,2.76,2.34,0,4.17-.29,4.17-1.64C231.38,114.39,230.84,114,230.05,114Z"/><path class="cls-1" d="M242.85,109l-1.91,10a23.1,23.1,0,0,0-.38,2.76H239.2l.23-1.73h0a3.71,3.71,0,0,1-3.13,1.92c-1.69,0-2.61-1.38-2.61-3.16,0-3.1,2.31-6,5.38-6a4,4,0,0,1,1.55.31l.78-4.18Zm-2.5,5.44a2.71,2.71,0,0,0-1.44-.36c-2.09,0-3.71,2.21-3.71,4.54,0,1,.36,2.14,1.64,2.14s2.54-1.31,2.91-3.28Z"/><path class="cls-1" d="M246.83,113.89H248l1.88,3.31-2.67,3.31h-1.31l2.73-3.37Zm2.95,0H251l1.87,3.31-2.67,3.31h-1.31l2.74-3.37Z"/></svg>