<svg id="Layer_1" data-name="Layer 1" xmlns="http://www.w3.org/2000/svg" viewBox="0 0 300 600"><defs><style>.cls-1{fill:#fff;}</style></defs><title>text</title><path class="cls-1" d="M17.7,17.59V35q0,1-1.35,1T15,35V17.59c0-.73.45-1.09,1.35-1.09S17.7,16.86,17.7,17.59Zm12.07,0a1.57,1.57,0,0,1-.48,1L21.9,26.35l7.93,7.73a1,1,0,0,1,.33.81,1.46,1.46,0,0,1-1.37,1.34,1.36,1.36,0,0,1-1-.44l-7.48-7.26q-2-2,0-4.2l7.12-7.53a1.3,1.3,0,0,1,1-.46,1.27,1.27,0,0,1,.93.38A1.09,1.09,0,0,1,29.77,17.57Z"/><path class="cls-1" d="M32.21,28.87A18.35,18.35,0,0,1,32.55,25a4.16,4.16,0,0,1,3.18-3.45,13.38,13.38,0,0,1,3.14-.3,13.17,13.17,0,0,1,3.13.3,4.15,4.15,0,0,1,2,1.14A4.63,4.63,0,0,1,45.22,25a18.44,18.44,0,0,1,.32,3.88,18.1,18.1,0,0,1-.32,3.86A4.12,4.12,0,0,1,44,34.93a4.35,4.35,0,0,1-2,1,14.43,14.43,0,0,1-3.13.26A16.14,16.14,0,0,1,35.74,36a4.43,4.43,0,0,1-2-1,4.06,4.06,0,0,1-1.18-2.25A18.46,18.46,0,0,1,32.21,28.87Zm3-3.44a7.89,7.89,0,0,0-.32,2.69c0,1.27,0,2.29.1,3.05a3.67,3.67,0,0,0,.76,2,2.36,2.36,0,0,0,1.76.6c.29,0,.74,0,1.34,0,1.76,0,2.79-.21,3.1-.63a4,4,0,0,0,.78-2c.07-.73.1-1.48.1-2.27q0-3.49-.66-4.23a3.38,3.38,0,0,0-.51-.54,3.52,3.52,0,0,0-2.11-.41c-1.08,0-1.76,0-2.06,0a2.3,2.3,0,0,0-1.74.62A8.37,8.37,0,0,0,35.23,25.43Z"/><path class="cls-1" d="M52.62,24.21c-.33.34-.5,1.42-.5,3.24v7.49c0,.71-.44,1.06-1.34,1.06s-1.34-.35-1.35-1V27.12a15,15,0,0,1,.26-3.22,2.86,2.86,0,0,1,1.06-1.76,3.84,3.84,0,0,1,1.84-.74,27,27,0,0,1,3.33-.17q3.78,0,4.77.93a3.87,3.87,0,0,1,1.17,2.63A21.8,21.8,0,0,1,62,27.12V35q0,1-1.35,1c-.9,0-1.35-.35-1.35-1.06V27.45c0-1.8-.17-2.87-.51-3.23s-1.37-.52-3.09-.52S53,23.87,52.62,24.21Z"/><path class="cls-1" d="M75.22,31.59v-.34a1.08,1.08,0,0,0-.7-1,6,6,0,0,0-2.45-.33,14.83,14.83,0,0,1-3.86-.54,3.16,3.16,0,0,1-1.76-1.19,3.82,3.82,0,0,1-.7-2.4v-.25c0-1.68.5-2.8,1.5-3.37a9.36,9.36,0,0,1,4.6-.88,19.34,19.34,0,0,1,4.57.4A1.22,1.22,0,0,1,77.35,23q0,1.11-.93,1.11a16.77,16.77,0,0,1-1.89-.19,20.18,20.18,0,0,0-3-.21,7.44,7.44,0,0,0-2.34.27c-.5.17-.75.67-.75,1.48v.28c0,1.06,1.11,1.63,3.34,1.7.93,0,1.86.11,2.8.23a4.22,4.22,0,0,1,2.37,1,3.08,3.08,0,0,1,1,2.5v.37c0,1.8-.51,3-1.53,3.68a9.5,9.5,0,0,1-4.9,1,21.21,21.21,0,0,1-4.85-.38,1.2,1.2,0,0,1-.92-1.34c0-.75.3-1.12.92-1.12.36,0,1.07.07,2.12.19a25.2,25.2,0,0,0,3.08.19,6.3,6.3,0,0,0,2.45-.4A1.73,1.73,0,0,0,75.22,31.59Z"/><path class="cls-1" d="M86.4,33.76h2.79a3.37,3.37,0,0,0,.94-.16,1.75,1.75,0,0,0,.77-.46,1.9,1.9,0,0,0,.32-1.2c0-.6,0-1.24,0-1.93V22.53c0-.71.45-1.06,1.35-1.06S94,21.82,94,22.52v7.84a16.69,16.69,0,0,1-.24,3.24,2.82,2.82,0,0,1-1,1.74,3.88,3.88,0,0,1-1.82.75,23.25,23.25,0,0,1-3.06.14,23.25,23.25,0,0,1-3.06-.14,3.88,3.88,0,0,1-1.82-.75,2.84,2.84,0,0,1-1-1.74,18.29,18.29,0,0,1-.25-3.24V22.52c0-.7.46-1.05,1.36-1.05s1.34.35,1.34,1.06V30c0,1.83.16,2.91.48,3.26a1.5,1.5,0,0,0,.63.33A3.5,3.5,0,0,0,86.4,33.76Z"/><path class="cls-1" d="M101.09,17V35q0,1-1.35,1c-.89,0-1.34-.35-1.34-1V17c0-.73.45-1.09,1.34-1.09S101.09,16.26,101.09,17Z"/><path class="cls-1" d="M116.68,33.42c.61,0,.92.37.92,1.12a1.21,1.21,0,0,1-.92,1.34,23.09,23.09,0,0,1-4.88.35c-2.29,0-3.92-.37-4.91-1.11a4.42,4.42,0,0,1-1.49-3.73v-5.5c0-1.83.45-3.07,1.35-3.7s2.57-1,5-1,4.11.31,5,.91S118,24,118,25.89v2.38a1.71,1.71,0,0,1-.4,1.14,1.33,1.33,0,0,1-1,.41h-8.53v1.75q0,2.22,3.86,2.2a23.26,23.26,0,0,0,2.93-.17A15.36,15.36,0,0,1,116.68,33.42Zm-8.59-7.52v1.55h7.24V25.9a1.9,1.9,0,0,0-.73-1.75,6.16,6.16,0,0,0-2.86-.45,6.64,6.64,0,0,0-2.87.42A1.89,1.89,0,0,0,108.09,25.9Z"/><path class="cls-1" d="M125.26,24.21c-.33.34-.5,1.42-.5,3.24v7.49c0,.71-.44,1.06-1.34,1.06s-1.34-.35-1.35-1V27.12a15.72,15.72,0,0,1,.26-3.22,2.86,2.86,0,0,1,1.06-1.76,3.84,3.84,0,0,1,1.84-.74,27.1,27.1,0,0,1,3.33-.17q3.78,0,4.77.93a3.87,3.87,0,0,1,1.17,2.63,21.8,21.8,0,0,1,.11,2.33V35q0,1-1.35,1c-.9,0-1.35-.35-1.35-1.06V27.45c0-1.8-.17-2.87-.51-3.23s-1.37-.52-3.08-.52S125.6,23.87,125.26,24.21Z"/><path class="cls-1" d="M143.82,36a3.75,3.75,0,0,1-2.85-.88,4.39,4.39,0,0,1-.81-3V23.86h-1.89c-.61,0-.91-.4-.91-1.19s.3-1.19.91-1.19h1.89V17.67q0-1.05,1.35-1.05c.9,0,1.34.35,1.34,1.05v3.81h3.82c.61,0,.92.4.92,1.19s-.31,1.19-.92,1.19h-3.82v8.45q0,1.23,1.47,1.23l2.55-.15c.62,0,.94.36.94,1.09a1.39,1.39,0,0,1-1,1.43C146.19,36,145.19,36,143.82,36Z"/><path class="cls-1" d="M161.74,33.42c.61,0,.92.37.92,1.12a1.21,1.21,0,0,1-.92,1.34,23.09,23.09,0,0,1-4.88.35c-2.29,0-3.92-.37-4.91-1.11a4.4,4.4,0,0,1-1.49-3.73v-5.5c0-1.83.45-3.07,1.34-3.7s2.58-1,5-1,4.11.31,5,.91,1.28,1.86,1.28,3.75v2.38a1.71,1.71,0,0,1-.39,1.14,1.36,1.36,0,0,1-1,.41h-8.52v1.75c0,1.48,1.29,2.21,3.85,2.2a23,23,0,0,0,2.93-.17A15.28,15.28,0,0,1,161.74,33.42Zm-8.59-7.52v1.55h7.24V25.9a1.93,1.93,0,0,0-.73-1.75,6.16,6.16,0,0,0-2.86-.45,6.64,6.64,0,0,0-2.87.42A1.89,1.89,0,0,0,153.15,25.9Z"/><path class="cls-1" d="M170.32,24.21c-.33.34-.5,1.42-.5,3.24v7.49c0,.71-.44,1.06-1.34,1.06s-1.34-.35-1.35-1V27.12a15,15,0,0,1,.26-3.22,2.86,2.86,0,0,1,1.06-1.76,3.84,3.84,0,0,1,1.84-.74,27,27,0,0,1,3.33-.17q3.78,0,4.77.93a3.87,3.87,0,0,1,1.17,2.63,21.8,21.8,0,0,1,.11,2.33V35q0,1-1.35,1c-.9,0-1.35-.35-1.35-1.06V27.45c0-1.8-.17-2.87-.51-3.23s-1.37-.52-3.09-.52S170.65,23.87,170.32,24.21Z"/><path class="cls-1" d="M195,33.42c.61,0,.92.37.92,1.12a1.21,1.21,0,0,1-.92,1.34,23.09,23.09,0,0,1-4.88.35c-2.29,0-3.92-.37-4.91-1.11a4.42,4.42,0,0,1-1.49-3.73v-5.5c0-1.83.45-3.07,1.35-3.7s2.57-1,5-1,4.11.31,5,.91,1.29,1.86,1.29,3.75v2.38a1.71,1.71,0,0,1-.4,1.14,1.33,1.33,0,0,1-1,.41h-8.53v1.75q0,2.22,3.86,2.2a23.26,23.26,0,0,0,2.93-.17A15.36,15.36,0,0,1,195,33.42Zm-8.59-7.52v1.55h7.24V25.9a1.9,1.9,0,0,0-.73-1.75,6.16,6.16,0,0,0-2.86-.45,6.64,6.64,0,0,0-2.87.42A1.89,1.89,0,0,0,186.43,25.9Z"/><path class="cls-1" d="M207.73,18a1.43,1.43,0,0,1,.44-1,1.44,1.44,0,0,1,1-.46,1.39,1.39,0,0,1,1,.46,1.53,1.53,0,0,1,.42,1.05,1.5,1.5,0,0,1-1.46,1.47A1.49,1.49,0,0,1,207.73,18Zm2.81,4.52V35c0,.7-.44,1-1.34,1s-1.35-.35-1.35-1V22.52q0-1.05,1.35-1.05C210.1,21.47,210.54,21.82,210.54,22.52Z"/><path class="cls-1" d="M21.39,72H14.07c-.62,0-.93-.4-.93-1.19s.31-1.18.93-1.18h2.31V54.88H14.07c-.62,0-.93-.4-.93-1.19s.31-1.19.93-1.19h7.32c.61,0,.92.4.92,1.19s-.31,1.19-.92,1.19H19.08V69.63h2.31c.61,0,.92.39.92,1.18S22,72,21.39,72Z"/><path class="cls-1" d="M28.74,60.21c-.33.34-.49,1.42-.49,3.24v7.49c0,.71-.45,1.06-1.35,1.06s-1.34-.35-1.35-1V63.12a15.72,15.72,0,0,1,.26-3.22,2.86,2.86,0,0,1,1.06-1.76,3.88,3.88,0,0,1,1.84-.74A27.22,27.22,0,0,1,32,57.23q3.78,0,4.77.93A3.92,3.92,0,0,1,38,60.79c.06.64.1,1.42.1,2.33V71q0,1-1.35,1c-.9,0-1.35-.35-1.35-1.06V63.45c0-1.8-.17-2.87-.51-3.23s-1.37-.52-3.08-.52S29.08,59.87,28.74,60.21Z"/><path class="cls-1" d="M45.47,60.21c-.33.34-.5,1.42-.5,3.24v7.49c0,.71-.44,1.06-1.34,1.06s-1.34-.35-1.35-1V63.12a15.72,15.72,0,0,1,.26-3.22,2.86,2.86,0,0,1,1.06-1.76,3.84,3.84,0,0,1,1.84-.74,27.1,27.1,0,0,1,3.33-.17q3.78,0,4.77.93a3.87,3.87,0,0,1,1.17,2.63,21.8,21.8,0,0,1,.11,2.33V71q0,1-1.35,1c-.9,0-1.35-.35-1.35-1.06V63.45c0-1.8-.17-2.87-.51-3.23s-1.37-.52-3.08-.52S45.81,59.87,45.47,60.21Z"/><path class="cls-1" d="M58.89,64.87A18.44,18.44,0,0,1,59.22,61a4.18,4.18,0,0,1,3.19-3.45,16.53,16.53,0,0,1,6.27,0,4.2,4.2,0,0,1,2,1.14A4.62,4.62,0,0,1,71.89,61a18.34,18.34,0,0,1,.33,3.88,18,18,0,0,1-.33,3.86,4,4,0,0,1-1.2,2.22,4.31,4.31,0,0,1-2,1,14.49,14.49,0,0,1-3.13.26A16.25,16.25,0,0,1,62.41,72a4.4,4.4,0,0,1-2-1,4,4,0,0,1-1.18-2.25A18.46,18.46,0,0,1,58.89,64.87Zm3-3.44a7.58,7.58,0,0,0-.33,2.69c0,1.27,0,2.29.11,3a3.67,3.67,0,0,0,.76,2,2.33,2.33,0,0,0,1.75.6q.43,0,1.35,0c1.75,0,2.78-.21,3.1-.63a4,4,0,0,0,.77-2c.07-.73.1-1.48.1-2.27,0-2.33-.22-3.74-.65-4.23a3.9,3.9,0,0,0-.52-.54,3.5,3.5,0,0,0-2.1-.41c-1.08,0-1.77,0-2.06,0-.92.06-1.5.27-1.74.62A6.39,6.39,0,0,0,61.91,61.43Z"/><path class="cls-1" d="M80.16,57.34v.14H84c.61,0,.92.4.92,1.19s-.31,1.19-.92,1.19H80.16V71q0,1-1.35,1t-1.35-1V59.86H75.53c-.61,0-.92-.4-.92-1.19s.31-1.19.92-1.19h1.93V57c0-2.06.36-3.42,1.06-4.09s2-1,4-1a8.55,8.55,0,0,1,2.61.26,1,1,0,0,1,.66.93,1.24,1.24,0,0,1-.37,1,1.28,1.28,0,0,1-.92.35l-2-.09a2.51,2.51,0,0,0-1.89.51A4.46,4.46,0,0,0,80.16,57.34Z"/><path class="cls-1" d="M88.83,60.09c-.62,0-.94-.37-.94-1.11a1.23,1.23,0,0,1,.94-1.35,21,21,0,0,1,4.86-.4c2.27,0,3.8.37,4.6,1.09s1.22,2,1.22,3.78v5.78c0,1.81-.44,3-1.32,3.53s-2.56.82-5,.82-4.15-.27-5-.82-1.27-1.71-1.27-3.51.32-3,1-3.71,2-1,4-1h5V61.63a1.65,1.65,0,0,0-.68-1.52,5.05,5.05,0,0,0-2.45-.41,19.44,19.44,0,0,0-3.06.2A11,11,0,0,1,88.83,60.09Zm8,8V65.55H92.65a5.18,5.18,0,0,0-2.52.39c-.38.25-.57.83-.57,1.72s.24,1.49.72,1.75a7.5,7.5,0,0,0,2.87.36A8.45,8.45,0,0,0,96,69.45,1.32,1.32,0,0,0,96.81,68.1Z"/><path class="cls-1" d="M114.22,60.09a6.84,6.84,0,0,1-1.5-.19,14.66,14.66,0,0,0-2.85-.2,6.29,6.29,0,0,0-2.74.45,1.85,1.85,0,0,0-.9,1.8v5.61c0,1.49,1.29,2.22,3.86,2.21a14.25,14.25,0,0,0,2.63-.19,9.55,9.55,0,0,1,1.5-.19c.62,0,.93.37.93,1.12a1.2,1.2,0,0,1-.93,1.34,19.66,19.66,0,0,1-4.59.38,7.69,7.69,0,0,1-4.6-1.11,4.42,4.42,0,0,1-1.49-3.73v-5.5c0-1.81.47-3,1.4-3.69a8.5,8.5,0,0,1,4.62-1,16.25,16.25,0,0,1,4.66.49,1.17,1.17,0,0,1,.93,1.3C115.15,59.73,114.84,60.09,114.22,60.09Z"/><path class="cls-1" d="M123.46,72a3.75,3.75,0,0,1-2.85-.88,4.39,4.39,0,0,1-.81-3V59.86h-1.9c-.6,0-.9-.4-.9-1.19s.3-1.19.9-1.19h1.9V53.67q0-1.05,1.35-1.05c.89,0,1.34.35,1.34,1.05v3.81h3.82c.61,0,.91.4.91,1.19s-.3,1.19-.91,1.19h-3.82v8.45q0,1.23,1.47,1.23l2.55-.15c.62,0,.93.36.93,1.09a1.38,1.38,0,0,1-1,1.43C125.83,72,124.83,72,123.46,72Z"/><path class="cls-1" d="M129.8,64.87a17.71,17.71,0,0,1,.34-3.89,4.16,4.16,0,0,1,3.18-3.45,13.32,13.32,0,0,1,3.14-.3,13.17,13.17,0,0,1,3.13.3,4.15,4.15,0,0,1,2,1.14,4.72,4.72,0,0,1,1.19,2.3,19.13,19.13,0,0,1,.32,3.88,18.78,18.78,0,0,1-.32,3.86,4.12,4.12,0,0,1-1.2,2.22,4.4,4.4,0,0,1-2,1,14.43,14.43,0,0,1-3.13.26,16.25,16.25,0,0,1-3.14-.24,4.45,4.45,0,0,1-2-1,4,4,0,0,1-1.18-2.25A18.46,18.46,0,0,1,129.8,64.87Zm3-3.44a7.64,7.64,0,0,0-.32,2.69c0,1.27,0,2.29.1,3a3.67,3.67,0,0,0,.76,2,2.34,2.34,0,0,0,1.76.6c.29,0,.74,0,1.34,0,1.75,0,2.79-.21,3.1-.63a3.88,3.88,0,0,0,.77-2c.07-.73.11-1.48.11-2.27q0-3.49-.66-4.23a4.61,4.61,0,0,0-.51-.54,3.54,3.54,0,0,0-2.11-.41c-1.08,0-1.77,0-2.06,0-.92.06-1.5.27-1.74.62A6.39,6.39,0,0,0,132.82,61.43Z"/><path class="cls-1" d="M149.71,63.47V71c0,.7-.45,1-1.34,1S147,71.65,147,71V63.12a9,9,0,0,1,.49-3.73,5.22,5.22,0,0,1,.88-1.28c.65-.58,2.25-.88,4.83-.88a8.14,8.14,0,0,1,2.61.27,1,1,0,0,1,.66,1,1.38,1.38,0,0,1-.37,1,1.27,1.27,0,0,1-.92.34l-2-.13a8.93,8.93,0,0,0-2.3.17,2,2,0,0,0-.67.34,2.27,2.27,0,0,0-.32.68,3.43,3.43,0,0,0-.2,1C149.71,62.3,149.71,62.82,149.71,63.47Z"/><path class="cls-1" d="M180.59,72q-1.22,0-1.5-.81l-2-5.55H169.5l-2,5.55c-.17.54-.67.81-1.49.81s-1.24-.37-1.25-1.11a1.14,1.14,0,0,1,.11-.49l6-16.32a2.48,2.48,0,0,1,.92-1.24,2.39,2.39,0,0,1,1.49-.48,2.28,2.28,0,0,1,1.47.48,2.74,2.74,0,0,1,.92,1.24l6,16.32.08.49C181.8,71.63,181.4,72,180.59,72Zm-7.28-17-3,8.25h5.95L173.34,55Z"/><path class="cls-1" d="M198.5,66.21a5.56,5.56,0,0,1-1.76,4.58q-1.76,1.44-6,1.44a22.73,22.73,0,0,1-4.79-.38c-1.13-.25-1.7-.74-1.69-1.48a1.31,1.31,0,0,1,.3-.89,1,1,0,0,1,.71-.37,14.1,14.1,0,0,1,2,.34,14.51,14.51,0,0,0,3.23.32,8.74,8.74,0,0,0,4.15-.69,2.8,2.8,0,0,0,1.16-2.59,2.69,2.69,0,0,0-.59-1.84,2.78,2.78,0,0,0-1.54-.86c-.66-.13-1.4-.24-2.21-.32a13.2,13.2,0,0,1-4.64-1,3.78,3.78,0,0,1-1.64-1.67,6.3,6.3,0,0,1-.63-3,4.75,4.75,0,0,1,1.82-4.2c1.21-.84,3.26-1.27,6.16-1.27a16.48,16.48,0,0,1,4.1.37c.9.24,1.35.66,1.35,1.27a1.15,1.15,0,0,1-.33.86,1.12,1.12,0,0,1-.86.3c-.36,0-1.05-.07-2.08-.2a22.34,22.34,0,0,0-2.66-.22,7.37,7.37,0,0,0-3.77.69,2.36,2.36,0,0,0-1,2.09,2.82,2.82,0,0,0,2.41,3,15.18,15.18,0,0,0,2.21.37,14.94,14.94,0,0,1,4.45,1,3.4,3.4,0,0,1,1.58,1.54A5.81,5.81,0,0,1,198.5,66.21Z"/><path class="cls-1" d="M221,69.42c.61,0,.92.37.92,1.12a1.21,1.21,0,0,1-.92,1.34,23,23,0,0,1-4.88.35q-3.42,0-4.91-1.11a4.42,4.42,0,0,1-1.49-3.73v-5.5c0-1.83.45-3.07,1.35-3.7s2.57-1,5-1,4.11.31,5,.91,1.29,1.86,1.29,3.75v2.38a1.71,1.71,0,0,1-.4,1.14,1.33,1.33,0,0,1-1,.41h-8.53v1.75q0,2.22,3.86,2.2a23.26,23.26,0,0,0,2.93-.17A15.36,15.36,0,0,1,221,69.42Zm-8.59-7.52v1.55h7.24V61.9a1.9,1.9,0,0,0-.73-1.75,6.16,6.16,0,0,0-2.86-.45,6.67,6.67,0,0,0-2.87.42A1.89,1.89,0,0,0,212.43,61.9Z"/><path class="cls-1" d="M229.1,63.47V71c0,.7-.44,1-1.34,1s-1.34-.35-1.35-1V63.12a9.25,9.25,0,0,1,.48-3.73,5.21,5.21,0,0,1,.89-1.28c.64-.58,2.25-.88,4.83-.88a8.11,8.11,0,0,1,2.6.27,1,1,0,0,1,.66,1,1.41,1.41,0,0,1-.36,1,1.31,1.31,0,0,1-.93.34l-2-.13a8.88,8.88,0,0,0-2.3.17,2.09,2.09,0,0,0-.68.34,2.55,2.55,0,0,0-.32.68,3.42,3.42,0,0,0-.19,1C229.11,62.3,229.1,62.82,229.1,63.47Z"/><path class="cls-1" d="M19.59,108.15a2.26,2.26,0,0,1-1.44-.49,2.73,2.73,0,0,1-.91-1.21L13,95a4.61,4.61,0,0,0-.11-.49c0-.7.44-1,1.31-1a1.26,1.26,0,0,1,1.32.78l4,11.28h.15l4-11.28c.2-.52.68-.78,1.45-.78s1.16.35,1.16,1c0,0,0,.18-.09.49L22,106.45a2.5,2.5,0,0,1-2.37,1.7Z"/><path class="cls-1" d="M40.46,105.42c.62,0,.92.37.92,1.12a1.2,1.2,0,0,1-.92,1.34,23,23,0,0,1-4.88.35c-2.28,0-3.92-.37-4.9-1.11a4.4,4.4,0,0,1-1.5-3.73v-5.5c0-1.83.45-3.07,1.35-3.7s2.57-1,5-1,4.1.31,5,.91,1.29,1.86,1.29,3.75v2.38a1.66,1.66,0,0,1-.4,1.14,1.32,1.32,0,0,1-1,.41H31.88v1.75q0,2.22,3.85,2.2a23.26,23.26,0,0,0,2.93-.17A15.36,15.36,0,0,1,40.46,105.42ZM31.88,97.9v1.55h7.23V97.9a1.9,1.9,0,0,0-.73-1.75,6.14,6.14,0,0,0-2.85-.45,6.69,6.69,0,0,0-2.88.42A1.91,1.91,0,0,0,31.88,97.9Z"/><path class="cls-1" d="M48.8,89v18q0,1-1.35,1t-1.35-1V89c0-.73.45-1.09,1.35-1.09S48.8,88.26,48.8,89Z"/><path class="cls-1" d="M66.38,89v11.88a17.7,17.7,0,0,1-.33,3.83,4.17,4.17,0,0,1-1.18,2.23,4.39,4.39,0,0,1-2,1,14.26,14.26,0,0,1-3.12.26,16.32,16.32,0,0,1-3.14-.24,4.45,4.45,0,0,1-2-1,4.06,4.06,0,0,1-1.18-2.25,20,20,0,0,1-.32-3.83A17.65,17.65,0,0,1,53.44,97a4.16,4.16,0,0,1,3.18-3.45,15,15,0,0,1,3.46-.3,8.86,8.86,0,0,1,3.6.6V89q0-1.08,1.35-1.08C65.93,87.9,66.38,88.26,66.38,89ZM56.12,97.43a7.89,7.89,0,0,0-.32,2.69c0,1.27,0,2.29.1,3a3.67,3.67,0,0,0,.76,2,2.36,2.36,0,0,0,1.76.6c.29,0,.74,0,1.34,0,1.76,0,2.79-.21,3.1-.63a4,4,0,0,0,.78-2c.06-.73.1-1.48.1-2.27q0-3.5-.66-4.23a3.9,3.9,0,0,0-.51-.54,3.54,3.54,0,0,0-2.11-.41c-1.08,0-1.77,0-2.06,0-.92.06-1.5.27-1.74.62A7.24,7.24,0,0,0,56.12,97.43Z"/><path class="cls-1" d="M70.56,90A1.43,1.43,0,0,1,71,89a1.46,1.46,0,0,1,1-.46,1.38,1.38,0,0,1,1,.46A1.53,1.53,0,0,1,73.49,90,1.5,1.5,0,0,1,72,91.48,1.43,1.43,0,0,1,71,91,1.48,1.48,0,0,1,70.56,90Zm2.82,4.52V107q0,1-1.35,1t-1.35-1V94.52q0-1,1.35-1T73.38,94.52Z"/><path class="cls-1" d="M88.35,91.82q0-1,1.35-1c.89,0,1.34.33,1.34,1V98.2c0,1.89-.47,3.13-1.42,3.72a9.35,9.35,0,0,1-4.72.89,21.49,21.49,0,0,1-4.4-.28v2.32H86c2,0,3.43.36,4.17,1.07a5,5,0,0,1,1.08,3.6c0,1.67-.49,2.83-1.47,3.45s-2.7,1-5.19,1a11.61,11.61,0,0,1-5.24-.85c-1-.56-1.51-1.72-1.52-3.47V97.8a5.06,5.06,0,0,1,.83-3.28,4.61,4.61,0,0,1,3.18-1.14,25.44,25.44,0,0,1,6.54.31ZM80.5,98.14c0,1.08.21,1.73.6,2a7.22,7.22,0,0,0,2.89.34,12.94,12.94,0,0,0,3.11-.24,1.46,1.46,0,0,0,1-.73,4.45,4.45,0,0,0,.21-1.63V96.06a33.56,33.56,0,0,0-4.29-.31,6.21,6.21,0,0,0-2.76.44A2,2,0,0,0,80.5,98Zm0,9.08v2.48a1.45,1.45,0,0,0,1,1.43,8.71,8.71,0,0,0,3.17.41,6.56,6.56,0,0,0,3-.44,1.8,1.8,0,0,0,.76-1.7,1.87,1.87,0,0,0-.73-1.72,5.38,5.38,0,0,0-2.64-.46Z"/><path class="cls-1" d="M115,89v11.88a17.79,17.79,0,0,1-.32,3.83,4.17,4.17,0,0,1-1.18,2.23,4.39,4.39,0,0,1-2,1,14.32,14.32,0,0,1-3.12.26,16.25,16.25,0,0,1-3.14-.24,4.45,4.45,0,0,1-2-1A4,4,0,0,1,102,104.7a20,20,0,0,1-.32-3.83A18.38,18.38,0,0,1,102,97a4.18,4.18,0,0,1,3.19-3.45,15,15,0,0,1,3.46-.3,8.86,8.86,0,0,1,3.6.6V89q0-1.08,1.35-1.08C114.51,87.9,115,88.26,115,89Zm-10.25,8.44a7.64,7.64,0,0,0-.32,2.69c0,1.27,0,2.29.1,3a3.67,3.67,0,0,0,.76,2,2.33,2.33,0,0,0,1.75.6q.45,0,1.35,0c1.75,0,2.79-.21,3.1-.63a3.88,3.88,0,0,0,.77-2c.07-.73.11-1.48.11-2.27q0-3.5-.66-4.23a4.61,4.61,0,0,0-.51-.54,3.54,3.54,0,0,0-2.11-.41c-1.08,0-1.77,0-2.06,0-.92.06-1.5.27-1.74.62A6.39,6.39,0,0,0,104.71,97.43Z"/><path class="cls-1" d="M122.77,113.84c-.77,0-1.16-.34-1.17-1,0,0,0-.18.1-.48l1.61-4.32a2.5,2.5,0,0,1-1.46-1.55L117.59,95c-.06-.31-.09-.47-.09-.49,0-.7.38-1,1.16-1s1.25.26,1.45.79l4,11.28h.15l4-11.28c.2-.52.68-.78,1.45-.78s1.16.35,1.16,1c0,0,0,.18-.09.49l-6.59,18.06C124,113.59,123.54,113.84,122.77,113.84Z"/><path class="cls-1" d="M136.23,89v11.57l6.71-6.78a1.39,1.39,0,0,1,1-.46,1.31,1.31,0,0,1,.94.38,1.17,1.17,0,0,1,.38.88,1.37,1.37,0,0,1-.49,1l-3.86,3.6,4.77,6.67a1.5,1.5,0,0,1,.29.89,1.15,1.15,0,0,1-.42.88,1.44,1.44,0,0,1-1,.41,1,1,0,0,1-.88-.48L139,101l-2.76,2.55V107c0,.7-.44,1-1.34,1s-1.34-.35-1.35-1V89c0-.73.46-1.09,1.35-1.09S136.23,88.26,136.23,89Z"/><path class="cls-1" d="M153.4,108a3.75,3.75,0,0,1-2.85-.88,4.39,4.39,0,0,1-.81-3V95.86h-1.89c-.61,0-.91-.4-.91-1.19s.3-1.19.91-1.19h1.89V89.67q0-1,1.35-1c.9,0,1.34.35,1.34,1v3.81h3.82c.61,0,.92.4.92,1.19s-.31,1.19-.92,1.19h-3.82v8.45q0,1.23,1.47,1.23l2.55-.15c.62,0,.94.36.94,1.09a1.39,1.39,0,0,1-1,1.43C155.77,108,154.77,108,153.4,108Z"/><path class="cls-1" d="M160.29,90a1.39,1.39,0,0,1,.44-1,1.42,1.42,0,0,1,1-.46,1.38,1.38,0,0,1,1,.46,1.54,1.54,0,0,1,.43,1.05,1.46,1.46,0,0,1-2.51,1A1.47,1.47,0,0,1,160.29,90Zm2.81,4.52V107q0,1-1.35,1t-1.35-1V94.52q0-1,1.35-1T163.1,94.52Z"/><path class="cls-1" d="M178.07,91.82q0-1,1.35-1c.9,0,1.34.33,1.34,1V98.2c0,1.89-.47,3.13-1.42,3.72a9.32,9.32,0,0,1-4.72.89,21.56,21.56,0,0,1-4.4-.28v2.32h5.47c2.05,0,3.44.36,4.17,1.07a5,5,0,0,1,1.08,3.6c0,1.67-.49,2.83-1.46,3.45s-2.71,1-5.2,1a11.56,11.56,0,0,1-5.23-.85c-1-.56-1.52-1.72-1.53-3.47V97.8a5.06,5.06,0,0,1,.83-3.28,4.61,4.61,0,0,1,3.18-1.14,25.44,25.44,0,0,1,6.54.31Zm-7.85,6.32c0,1.08.21,1.73.6,2a7.22,7.22,0,0,0,2.89.34,13.1,13.1,0,0,0,3.12-.24,1.46,1.46,0,0,0,1-.73,4.45,4.45,0,0,0,.21-1.63V96.06a33.54,33.54,0,0,0-4.28-.31,6.23,6.23,0,0,0-2.77.44,2,2,0,0,0-.8,1.84Zm0,9.08v2.48a1.45,1.45,0,0,0,1,1.43,8.77,8.77,0,0,0,3.18.41,6.53,6.53,0,0,0,2.95-.44,1.78,1.78,0,0,0,.76-1.7,1.89,1.89,0,0,0-.72-1.72,5.46,5.46,0,0,0-2.65-.46Z"/><path class="cls-1" d="M195.5,105.42c.62,0,.92.37.92,1.12a1.2,1.2,0,0,1-.92,1.34,23,23,0,0,1-4.88.35c-2.28,0-3.92-.37-4.9-1.11a4.4,4.4,0,0,1-1.5-3.73v-5.5c0-1.83.45-3.07,1.35-3.7s2.57-1,5-1,4.11.31,5,.91,1.29,1.86,1.29,3.75v2.38a1.66,1.66,0,0,1-.4,1.14,1.32,1.32,0,0,1-1,.41h-8.52v1.75q0,2.22,3.85,2.2a23.26,23.26,0,0,0,2.93-.17A15.36,15.36,0,0,1,195.5,105.42Zm-8.58-7.52v1.55h7.23V97.9a1.9,1.9,0,0,0-.73-1.75,6.16,6.16,0,0,0-2.86-.45,6.67,6.67,0,0,0-2.87.42A1.91,1.91,0,0,0,186.92,97.9Z"/><path class="cls-1" d="M201.35,110.58v-4.44a1.33,1.33,0,0,1,.39-1,1.2,1.2,0,0,1,.95-.4,1.32,1.32,0,0,1,1,.41,1.26,1.26,0,0,1,.39.94v4.44a1.25,1.25,0,0,1-.41,1,1.41,1.41,0,0,1-1,.37,1.3,1.3,0,0,1-1.31-1.32Z"/><path class="cls-1" d="M16.76,125v11.57l6.71-6.78a1.35,1.35,0,0,1,1-.46,1.27,1.27,0,0,1,.93.38,1.14,1.14,0,0,1,.38.88,1.39,1.39,0,0,1-.48,1l-3.87,3.6,4.78,6.67a1.57,1.57,0,0,1,.29.89,1.15,1.15,0,0,1-.42.88,1.46,1.46,0,0,1-1,.41,1,1,0,0,1-.88-.48L19.51,137l-2.75,2.55V143c0,.7-.45,1.05-1.34,1.05s-1.34-.35-1.35-1.05V125c0-.73.46-1.09,1.35-1.09S16.76,124.26,16.76,125Z"/><path class="cls-1" d="M30.46,132.09c-.63,0-.94-.37-.94-1.11a1.22,1.22,0,0,1,.94-1.35,20.91,20.91,0,0,1,4.86-.4c2.27,0,3.8.37,4.6,1.09s1.22,2,1.22,3.78v5.78c0,1.81-.44,3-1.32,3.53s-2.56.82-5,.82-4.15-.27-5-.82-1.28-1.71-1.28-3.51.33-3,1-3.71,2-1,4-1h5v-1.55a1.66,1.66,0,0,0-.69-1.52,5,5,0,0,0-2.44-.41,19.49,19.49,0,0,0-3.07.2A10.92,10.92,0,0,1,30.46,132.09Zm8,8v-2.55H34.27a5.16,5.16,0,0,0-2.51.39c-.38.25-.57.83-.57,1.72s.24,1.49.72,1.75a7.44,7.44,0,0,0,2.86.36,8.52,8.52,0,0,0,2.9-.32A1.33,1.33,0,0,0,38.44,140.1Z"/><path class="cls-1" d="M45.28,148.8V136.62a17.15,17.15,0,0,1,.34-3.84,4,4,0,0,1,3.17-3.28,14.16,14.16,0,0,1,3.12-.27,14.59,14.59,0,0,1,3.15.27,4.35,4.35,0,0,1,2,1,4,4,0,0,1,1.18,2.23,18.89,18.89,0,0,1,.31,3.86,17.49,17.49,0,0,1-.34,3.88A4.16,4.16,0,0,1,55.06,144a16.75,16.75,0,0,1-3.47.27,9.09,9.09,0,0,1-3.61-.58v5.16c0,.7-.45,1.05-1.34,1.05S45.29,149.51,45.28,148.8Zm10.27-8.73a7.77,7.77,0,0,0,.32-2.69c0-1.29,0-2.31-.1-3a3.91,3.91,0,0,0-.75-2c-.31-.42-1.35-.63-3.11-.63s-2.8.21-3.11.63a3.9,3.9,0,0,0-.78,2c-.07.73-.1,1.49-.1,2.27s0,1.42.07,1.95.11,1,.18,1.36a2.58,2.58,0,0,0,.92,1.47,1.89,1.89,0,0,0,1.21.37c.55,0,1.12,0,1.68,0s1,0,1.28,0a6,6,0,0,0,1-.16,1.25,1.25,0,0,0,.78-.46A7.72,7.72,0,0,0,55.55,140.07Z"/><path class="cls-1" d="M64.05,132.09c-.63,0-.94-.37-.94-1.11a1.22,1.22,0,0,1,.94-1.35,20.91,20.91,0,0,1,4.86-.4c2.26,0,3.8.37,4.6,1.09s1.21,2,1.21,3.78v5.78c0,1.81-.43,3-1.31,3.53s-2.57.82-5,.82-4.16-.27-5-.82-1.28-1.71-1.28-3.51.33-3,1-3.71,2-1,4-1h5v-1.55a1.66,1.66,0,0,0-.69-1.52,5,5,0,0,0-2.45-.41,19.44,19.44,0,0,0-3.06.2A10.92,10.92,0,0,1,64.05,132.09Zm8,8v-2.55H67.86a5.16,5.16,0,0,0-2.51.39c-.38.25-.57.83-.57,1.72s.24,1.49.71,1.75a7.53,7.53,0,0,0,2.87.36,8.41,8.41,0,0,0,2.89-.32A1.32,1.32,0,0,0,72,140.1Z"/><path class="cls-1" d="M78.87,136.87V125c0-.73.46-1.09,1.36-1.09s1.34.36,1.34,1.08v4.85a8.88,8.88,0,0,1,3.61-.6,15.12,15.12,0,0,1,3.47.3,4.08,4.08,0,0,1,2,1.14A4.61,4.61,0,0,1,91.84,133a19.17,19.17,0,0,1,.32,3.89,18.89,18.89,0,0,1-.31,3.86,3.92,3.92,0,0,1-1.18,2.21,4.53,4.53,0,0,1-2,1,14.69,14.69,0,0,1-3.15.26,15.88,15.88,0,0,1-3.12-.24,4,4,0,0,1-3.17-3.29A17,17,0,0,1,78.87,136.87Zm10.59.6c0-1.29,0-2.31-.1-3.07a4.15,4.15,0,0,0-.75-2.05c-.29-.44-1.33-.65-3.11-.65a5.52,5.52,0,0,0-2.82.41,2.29,2.29,0,0,0-.89,1.34,15.63,15.63,0,0,0-.28,3c0,1.05,0,1.95.1,2.7a3.77,3.77,0,0,0,.78,2,2.39,2.39,0,0,0,1.77.6c.3,0,.74,0,1.34,0s1,0,1.33,0a5.88,5.88,0,0,0,1-.16,1.33,1.33,0,0,0,.78-.43,6.08,6.08,0,0,0,.53-1.05A7.53,7.53,0,0,0,89.46,137.47Z"/><path class="cls-1" d="M99,125v18Q99,144,97.68,144T96.33,143V125c0-.73.45-1.09,1.35-1.09S99,124.26,99,125Z"/><path class="cls-1" d="M114.61,141.42c.62,0,.93.37.93,1.12a1.2,1.2,0,0,1-.93,1.34,23,23,0,0,1-4.88.35c-2.28,0-3.92-.37-4.9-1.11a4.4,4.4,0,0,1-1.5-3.73v-5.5c0-1.83.45-3.07,1.35-3.7s2.57-1,5-1,4.1.31,5,.91S116,132,116,133.89v2.38a1.66,1.66,0,0,1-.4,1.14,1.32,1.32,0,0,1-1,.41H106v1.75q0,2.22,3.85,2.2a23.26,23.26,0,0,0,2.93-.17A15.36,15.36,0,0,1,114.61,141.42ZM106,133.9v1.55h7.23V133.9a1.9,1.9,0,0,0-.73-1.75,6.14,6.14,0,0,0-2.85-.45,6.69,6.69,0,0,0-2.88.42A1.91,1.91,0,0,0,106,133.9Z"/><path class="cls-1" d="M127.08,136.87a18.44,18.44,0,0,1,.33-3.89,4.17,4.17,0,0,1,3.19-3.45,16.53,16.53,0,0,1,6.27,0,4.2,4.2,0,0,1,2,1.14,4.71,4.71,0,0,1,1.18,2.3,18.34,18.34,0,0,1,.33,3.88,18,18,0,0,1-.33,3.86,4.12,4.12,0,0,1-1.2,2.22,4.31,4.31,0,0,1-2,1,14.55,14.55,0,0,1-3.13.26,16.18,16.18,0,0,1-3.14-.24,4.48,4.48,0,0,1-2-1,4.06,4.06,0,0,1-1.17-2.25A17.79,17.79,0,0,1,127.08,136.87Zm3-3.44a7.58,7.58,0,0,0-.33,2.69c0,1.27,0,2.29.11,3a3.59,3.59,0,0,0,.76,2,2.31,2.31,0,0,0,1.75.6q.44,0,1.35,0c1.75,0,2.78-.21,3.1-.63a4.06,4.06,0,0,0,.77-2c.07-.73.1-1.48.1-2.27q0-3.49-.66-4.23a3.38,3.38,0,0,0-.51-.54,3.5,3.5,0,0,0-2.1-.41c-1.08,0-1.77,0-2.06,0-.92.06-1.5.27-1.74.62A6.39,6.39,0,0,0,130.1,133.43Z"/><path class="cls-1" d="M154.84,127.82c0-.64.45-1,1.34-1s1.35.33,1.35,1v6.35c0,1.89-.47,3.13-1.42,3.72a9.35,9.35,0,0,1-4.72.89,21.49,21.49,0,0,1-4.4-.28v2.32h5.47c2,0,3.43.36,4.17,1.07a5,5,0,0,1,1.08,3.6c0,1.67-.49,2.83-1.47,3.45s-2.7.95-5.19.95a11.61,11.61,0,0,1-5.24-.85c-1-.56-1.51-1.72-1.52-3.47V133.8a5.06,5.06,0,0,1,.83-3.28,4.59,4.59,0,0,1,3.18-1.14,25.44,25.44,0,0,1,6.54.31ZM147,134.14c0,1.08.2,1.73.59,2a7.28,7.28,0,0,0,2.9.34,12.94,12.94,0,0,0,3.11-.24,1.46,1.46,0,0,0,1-.73,4.45,4.45,0,0,0,.21-1.63v-1.78a33.56,33.56,0,0,0-4.29-.31,6.21,6.21,0,0,0-2.76.44A2,2,0,0,0,147,134Zm0,9.08v2.48a1.45,1.45,0,0,0,1,1.43,8.71,8.71,0,0,0,3.17.41,6.59,6.59,0,0,0,3-.44,1.8,1.8,0,0,0,.76-1.7,1.87,1.87,0,0,0-.73-1.72,5.38,5.38,0,0,0-2.64-.46Z"/><path class="cls-1" d="M171.24,125v18c0,.7-.45,1.05-1.34,1.05s-1.35-.35-1.35-1.05V125c0-.73.45-1.09,1.35-1.09S171.24,124.26,171.24,125Z"/><path class="cls-1" d="M186.83,141.42c.61,0,.92.37.92,1.12a1.21,1.21,0,0,1-.92,1.34,23,23,0,0,1-4.88.35q-3.42,0-4.91-1.11a4.42,4.42,0,0,1-1.49-3.73v-5.5c0-1.83.45-3.07,1.35-3.7s2.57-1,5-1,4.11.31,5,.91,1.29,1.86,1.29,3.75v2.38a1.71,1.71,0,0,1-.4,1.14,1.32,1.32,0,0,1-1,.41h-8.52v1.75q0,2.22,3.85,2.2a23.26,23.26,0,0,0,2.93-.17A15.36,15.36,0,0,1,186.83,141.42Zm-8.58-7.52v1.55h7.23V133.9a1.9,1.9,0,0,0-.73-1.75,6.16,6.16,0,0,0-2.86-.45,6.67,6.67,0,0,0-2.87.42A1.87,1.87,0,0,0,178.25,133.9Z"/><path class="cls-1" d="M197.25,144a3.76,3.76,0,0,1-2.86-.88,4.39,4.39,0,0,1-.81-3v-8.25h-1.89c-.6,0-.91-.4-.91-1.19s.31-1.19.91-1.19h1.89v-3.81q0-1,1.35-1t1.35,1v3.81h3.82c.61,0,.91.4.91,1.19s-.3,1.19-.91,1.19h-3.82v8.45c0,.82.49,1.23,1.46,1.23l2.55-.15c.63,0,.94.36.94,1.09a1.38,1.38,0,0,1-1,1.43C199.62,144,198.61,144,197.25,144Z"/><path class="cls-1" d="M208.42,144a3.75,3.75,0,0,1-2.85-.88,4.39,4.39,0,0,1-.81-3v-8.25h-1.9c-.6,0-.9-.4-.9-1.19s.3-1.19.9-1.19h1.9v-3.81q0-1,1.35-1c.89,0,1.34.35,1.34,1v3.81h3.82c.61,0,.92.4.92,1.19s-.31,1.19-.92,1.19h-3.82v8.45q0,1.23,1.47,1.23l2.55-.15c.62,0,.94.36.94,1.09a1.39,1.39,0,0,1-1,1.43C210.79,144,209.79,144,208.42,144Z"/><path class="cls-1" d="M226.34,141.42c.61,0,.92.37.92,1.12a1.21,1.21,0,0,1-.92,1.34,23.09,23.09,0,0,1-4.88.35c-2.29,0-3.92-.37-4.91-1.11a4.4,4.4,0,0,1-1.49-3.73v-5.5c0-1.83.45-3.07,1.34-3.7s2.58-1,5-1,4.11.31,5,.91,1.28,1.86,1.28,3.75v2.38a1.71,1.71,0,0,1-.39,1.14,1.36,1.36,0,0,1-1,.41h-8.52v1.75c0,1.48,1.29,2.21,3.85,2.2a23.15,23.15,0,0,0,2.93-.17A15.28,15.28,0,0,1,226.34,141.42Zm-8.59-7.52v1.55H225V133.9a1.93,1.93,0,0,0-.73-1.75,6.16,6.16,0,0,0-2.86-.45,6.64,6.64,0,0,0-2.87.42A1.89,1.89,0,0,0,217.75,133.9Z"/><path class="cls-1" d="M15.62,168.09c-.63,0-.94-.37-.94-1.11a1.22,1.22,0,0,1,.94-1.35,21,21,0,0,1,4.86-.4c2.27,0,3.8.37,4.6,1.09s1.22,2,1.22,3.78v5.78c0,1.81-.44,3-1.32,3.53s-2.57.82-5.06.82-4.16-.27-5-.82-1.25-1.71-1.25-3.51.33-3,1-3.71,2-1,4-1h5v-1.55a1.66,1.66,0,0,0-.69-1.52,5,5,0,0,0-2.44-.41,19.35,19.35,0,0,0-3.06.2A11,11,0,0,1,15.62,168.09Zm8,8v-2.55H19.45a5.11,5.11,0,0,0-2.5.39c-.38.25-.57.83-.57,1.72s.24,1.49.71,1.75a7.44,7.44,0,0,0,2.86.36,8.34,8.34,0,0,0,2.88-.32A1.32,1.32,0,0,0,23.6,176.1Zm-5.23-12.39a2.68,2.68,0,0,1-.8-2,2.77,2.77,0,0,1,4.74-2,2.79,2.79,0,0,1,0,4,2.8,2.8,0,0,1-3.94,0Zm.78-2a1.2,1.2,0,0,0,.35.87,1.15,1.15,0,0,0,.86.33,1.11,1.11,0,0,0,.84-.35,1.21,1.21,0,0,0,.35-.86,1.17,1.17,0,0,0-.35-.85,1.14,1.14,0,0,0-.86-.35,1.15,1.15,0,0,0-.86.35A1.12,1.12,0,0,0,19.15,161.73Z"/><path class="cls-1" d="M36.65,185.84h-1c-.62,0-.92-.41-.92-1.23s.3-1.23.92-1.23h1a1.33,1.33,0,0,0,.88-.3,1.11,1.11,0,0,0,.41-.93V166.49q0-1.05,1.35-1.05t1.35,1.05V182a4.51,4.51,0,0,1-.79,3C39.29,185.54,38.24,185.83,36.65,185.84ZM37.8,162a1.39,1.39,0,0,1,.44-1,1.42,1.42,0,0,1,1-.46,1.38,1.38,0,0,1,1,.46,1.54,1.54,0,0,1,.43,1,1.46,1.46,0,0,1-2.51,1A1.47,1.47,0,0,1,37.8,162Z"/><path class="cls-1" d="M44.92,172.87a18.44,18.44,0,0,1,.33-3.89,4.16,4.16,0,0,1,3.18-3.45,13.38,13.38,0,0,1,3.14-.3,13.17,13.17,0,0,1,3.13.3,4.15,4.15,0,0,1,2,1.14,4.63,4.63,0,0,1,1.19,2.3,18.34,18.34,0,0,1,.33,3.88,18,18,0,0,1-.33,3.86,4.12,4.12,0,0,1-1.2,2.22,4.35,4.35,0,0,1-2,1,14.43,14.43,0,0,1-3.13.26,16.14,16.14,0,0,1-3.13-.24,4.48,4.48,0,0,1-2-1,4.06,4.06,0,0,1-1.18-2.25A18.57,18.57,0,0,1,44.92,172.87Zm3-3.44a7.89,7.89,0,0,0-.32,2.69c0,1.27,0,2.29.1,3a3.67,3.67,0,0,0,.76,2,2.36,2.36,0,0,0,1.76.6c.29,0,.74,0,1.34,0,1.76,0,2.79-.21,3.1-.63a4,4,0,0,0,.78-2c.07-.73.1-1.48.1-2.27q0-3.49-.66-4.23a3.38,3.38,0,0,0-.51-.54,3.52,3.52,0,0,0-2.11-.41c-1.08,0-1.76,0-2.06,0a2.3,2.3,0,0,0-1.74.62A8.37,8.37,0,0,0,47.93,169.43Z"/><path class="cls-1" d="M62.13,172.87V161c0-.73.46-1.09,1.35-1.09s1.34.36,1.34,1.08v4.85a8.91,8.91,0,0,1,3.61-.6,15,15,0,0,1,3.47.3,4.07,4.07,0,0,1,2,1.14A4.77,4.77,0,0,1,75.1,169a19.28,19.28,0,0,1,.31,3.89,19.75,19.75,0,0,1-.3,3.86,3.92,3.92,0,0,1-1.18,2.21,4.56,4.56,0,0,1-2,1,14.53,14.53,0,0,1-3.14.26,15.93,15.93,0,0,1-3.13-.24,4.21,4.21,0,0,1-2-1,4.34,4.34,0,0,1-1.19-2.25A17.7,17.7,0,0,1,62.13,172.87Zm10.59.6c0-1.29,0-2.31-.1-3.07a4.15,4.15,0,0,0-.75-2.05c-.3-.44-1.33-.65-3.11-.65a5.52,5.52,0,0,0-2.82.41,2.36,2.36,0,0,0-.9,1.34,16.46,16.46,0,0,0-.28,3c0,1.05,0,1.95.11,2.7a3.76,3.76,0,0,0,.77,2,2.44,2.44,0,0,0,1.78.6c.29,0,.74,0,1.34,0s1,0,1.33,0a6,6,0,0,0,1-.16,1.33,1.33,0,0,0,.78-.43,6.92,6.92,0,0,0,.53-1.05A7.53,7.53,0,0,0,72.72,173.47Z"/><path class="cls-1" d="M79.34,172.87V161c0-.73.46-1.09,1.35-1.09S82,160.26,82,161v4.85a8.91,8.91,0,0,1,3.61-.6,15,15,0,0,1,3.47.3,4.07,4.07,0,0,1,2,1.14A4.61,4.61,0,0,1,92.31,169a19.17,19.17,0,0,1,.32,3.89,19.63,19.63,0,0,1-.31,3.86,3.92,3.92,0,0,1-1.18,2.21,4.51,4.51,0,0,1-2,1,14.53,14.53,0,0,1-3.14.26,15.88,15.88,0,0,1-3.12-.24,4,4,0,0,1-3.17-3.29A17,17,0,0,1,79.34,172.87Zm10.59.6c0-1.29,0-2.31-.1-3.07a4.15,4.15,0,0,0-.75-2.05c-.29-.44-1.33-.65-3.11-.65a5.52,5.52,0,0,0-2.82.41,2.36,2.36,0,0,0-.9,1.34,16.47,16.47,0,0,0-.27,3c0,1.05,0,1.95.1,2.7a3.77,3.77,0,0,0,.78,2,2.39,2.39,0,0,0,1.77.6c.3,0,.74,0,1.34,0s1,0,1.33,0a5.88,5.88,0,0,0,1-.16,1.33,1.33,0,0,0,.78-.43,6.08,6.08,0,0,0,.53-1.05A7.53,7.53,0,0,0,89.93,173.47Z"/><path class="cls-1" d="M107.71,177.42c.62,0,.93.37.93,1.12a1.2,1.2,0,0,1-.93,1.34,23,23,0,0,1-4.88.35c-2.28,0-3.92-.37-4.9-1.11a4.4,4.4,0,0,1-1.5-3.73v-5.5c0-1.83.45-3.07,1.35-3.7s2.57-1,5-1,4.1.31,5,.91,1.29,1.86,1.29,3.75v2.38a1.66,1.66,0,0,1-.4,1.14,1.32,1.32,0,0,1-1,.41H99.13v1.75q0,2.22,3.85,2.2a23.15,23.15,0,0,0,2.93-.17A15.36,15.36,0,0,1,107.71,177.42Zm-8.58-7.52v1.55h7.24V169.9a1.91,1.91,0,0,0-.74-1.75,6.14,6.14,0,0,0-2.85-.45,6.61,6.61,0,0,0-2.87.42A1.89,1.89,0,0,0,99.13,169.9Z"/><path class="cls-1" d="M135.35,167.7c-.81,0-1.39,0-1.74.05a1.67,1.67,0,0,0-.94.44,1.61,1.61,0,0,0-.48,1,17.77,17.77,0,0,0-.07,1.91v7.84c0,.71-.45,1.06-1.35,1.06s-1.35-.35-1.35-1.06v-8.23c0-1.38-.18-2.23-.54-2.54a3.63,3.63,0,0,0-2.25-.47c-1.13,0-1.87,0-2.21.05a1.43,1.43,0,0,0-.93.49,1.83,1.83,0,0,0-.44,1.09c0,.44-.06,1.15-.06,2.12v7.49c0,.71-.45,1.06-1.34,1.06s-1.34-.35-1.35-1.05v-7.83a9.92,9.92,0,0,1,.68-4.32,3.27,3.27,0,0,1,2.83-1.46c.56-.06,1.36-.1,2.4-.11q3.49,0,4.56.84,1-.82,4.56-.84c1,0,1.82,0,2.38.09,1.46.17,2.39.63,2.8,1.39a9.89,9.89,0,0,1,.73,4.41V179c0,.7-.45,1.05-1.34,1.05s-1.35-.35-1.35-1.06v-7.49a20.72,20.72,0,0,0-.08-2.12,1.76,1.76,0,0,0-.43-1.09,1.52,1.52,0,0,0-.93-.49C136.76,167.71,136.17,167.7,135.35,167.7Z"/><path class="cls-1" d="M156.59,177.42c.62,0,.93.37.93,1.12a1.2,1.2,0,0,1-.93,1.34,22.91,22.91,0,0,1-4.87.35c-2.29,0-3.92-.37-4.91-1.11a4.4,4.4,0,0,1-1.49-3.73v-5.5c0-1.83.44-3.07,1.34-3.7s2.58-1,5-1,4.1.31,5,.91,1.29,1.86,1.29,3.75v2.38a1.71,1.71,0,0,1-.39,1.14,1.36,1.36,0,0,1-1,.41H148v1.75q0,2.22,3.85,2.2a23.15,23.15,0,0,0,2.93-.17A15.36,15.36,0,0,1,156.59,177.42ZM148,169.9v1.55h7.24V169.9a1.91,1.91,0,0,0-.74-1.75,6.11,6.11,0,0,0-2.85-.45,6.61,6.61,0,0,0-2.87.42A1.89,1.89,0,0,0,148,169.9Z"/><path class="cls-1" d="M175.14,161v11.88a18.46,18.46,0,0,1-.32,3.83,4.18,4.18,0,0,1-1.19,2.23,4.34,4.34,0,0,1-2,1,14.22,14.22,0,0,1-3.11.26,16.18,16.18,0,0,1-3.14-.24,4.48,4.48,0,0,1-2-1,4.06,4.06,0,0,1-1.17-2.25,19.18,19.18,0,0,1-.32-3.83,18.38,18.38,0,0,1,.33-3.89,4.17,4.17,0,0,1,3.19-3.45,15,15,0,0,1,3.46-.3,8.78,8.78,0,0,1,3.59.6V161q0-1.08,1.35-1.08C174.69,159.9,175.14,160.26,175.14,161Zm-10.25,8.44a7.58,7.58,0,0,0-.33,2.69c0,1.27,0,2.29.11,3a3.59,3.59,0,0,0,.76,2,2.31,2.31,0,0,0,1.75.6q.44,0,1.35,0c1.75,0,2.78-.21,3.1-.63a4.06,4.06,0,0,0,.77-2c.07-.73.1-1.48.1-2.27q0-3.49-.66-4.23a3.38,3.38,0,0,0-.51-.54,3.5,3.5,0,0,0-2.1-.41c-1.08,0-1.77,0-2.06,0-.92.06-1.5.27-1.74.62A6.39,6.39,0,0,0,164.89,169.43Z"/></svg>