<svg id="Layer_1" data-name="Layer 1" xmlns="http://www.w3.org/2000/svg" viewBox="0 0 300 600"><defs><style>.cls-1{fill:#fff;}</style></defs><title>text</title><path class="cls-1" d="M69.81,198.35h-6L62.62,203h-4.5l6.14-19.56h5.28L75.69,203H71Zm-.9-3.45-.48-1.8c-.54-1.95-1.05-4.26-1.59-6.3h-.12c-.45,2.07-1,4.35-1.53,6.3l-.48,1.8Z"/><path class="cls-1" d="M77.4,188.12H81l.3,2.61h.12a5,5,0,0,1,4.23-3,4.28,4.28,0,0,1,1.77.3l-.72,3.81a5.56,5.56,0,0,0-1.62-.24c-1.11,0-2.49.72-3.27,2.73V203H77.4Z"/><path class="cls-1" d="M95.19,187.76c4.23,0,6.33,3.09,6.33,7.14a8.74,8.74,0,0,1-.18,1.86H92.43A3.61,3.61,0,0,0,96.3,200a6,6,0,0,0,3.21-1l1.47,2.67a9.73,9.73,0,0,1-5.27,1.68c-4.27,0-7.54-2.88-7.54-7.8S91.63,187.76,95.19,187.76ZM97.77,194c0-1.71-.72-2.91-2.49-2.91-1.38,0-2.57.93-2.88,2.91Z"/><path class="cls-1" d="M112.14,205.34a2.53,2.53,0,0,0,2.61-2l.21-.78-5.73-14.49h4.44l2.13,6.39c.42,1.35.78,2.76,1.17,4.23h.12c.33-1.41.66-2.82,1-4.23l1.8-6.39h4.23l-5.16,15c-1.41,3.75-3,5.67-6.51,5.67a6.78,6.78,0,0,1-2.1-.3l.78-3.36A4.84,4.84,0,0,0,112.14,205.34Z"/><path class="cls-1" d="M132.6,187.76c3.75,0,7.23,2.85,7.23,7.8s-3.48,7.8-7.23,7.8-7.26-2.85-7.26-7.8S128.82,187.76,132.6,187.76Zm0,12c1.8,0,2.73-1.65,2.73-4.23s-.93-4.23-2.73-4.23-2.73,1.65-2.73,4.23S130.77,199.79,132.6,199.79Z"/><path class="cls-1" d="M142.71,188.12h4.41v8.67c0,2.13.57,2.82,1.86,2.82,1.11,0,1.77-.48,2.64-1.65v-9.84H156V203h-3.6l-.33-2.07H152a5.8,5.8,0,0,1-4.68,2.43c-3.24,0-4.62-2.28-4.62-6Z"/><path class="cls-1" d="M159.9,188.12h3.6l.3,2.61h.12a5,5,0,0,1,4.23-3,4.28,4.28,0,0,1,1.77.3l-.72,3.81a5.56,5.56,0,0,0-1.62-.24c-1.11,0-2.49.72-3.27,2.73V203H159.9Z"/><path class="cls-1" d="M178.68,191.57h-2V188.3l2.28-.18.51-4h3.66v4h3.57v3.45h-3.57v6c0,1.68.75,2.37,1.92,2.37a4.21,4.21,0,0,0,1.41-.3l.69,3.21a10.71,10.71,0,0,1-3.3.54c-3.69,0-5.13-2.31-5.13-5.76Z"/><path class="cls-1" d="M195.66,187.76c3.75,0,7.23,2.85,7.23,7.8s-3.48,7.8-7.23,7.8-7.26-2.85-7.26-7.8S191.88,187.76,195.66,187.76Zm0,12c1.8,0,2.73-1.65,2.73-4.23s-.93-4.23-2.73-4.23-2.73,1.65-2.73,4.23S193.83,199.79,195.66,199.79Z"/><path class="cls-1" d="M212.31,187.76c3.75,0,7.23,2.85,7.23,7.8s-3.48,7.8-7.23,7.8-7.26-2.85-7.26-7.8S208.53,187.76,212.31,187.76Zm0,12c1.8,0,2.73-1.65,2.73-4.23s-.93-4.23-2.73-4.23-2.73,1.65-2.73,4.23S210.48,199.79,212.31,199.79Z"/><path class="cls-1" d="M222.57,182H227v16.59c0,.93.42,1.23.78,1.23a1.85,1.85,0,0,0,.54-.06l.54,3.27a5.75,5.75,0,0,1-2.22.36c-3,0-4.05-2-4.05-5Z"/><path class="cls-1" d="M231.81,198.53a6.41,6.41,0,0,0,3.84,1.56c1.32,0,1.89-.48,1.89-1.26,0-1-1.5-1.44-3-2-1.8-.69-3.93-1.92-3.93-4.38,0-2.76,2.25-4.65,5.7-4.65a8.56,8.56,0,0,1,5.25,1.89l-2,2.64A5.49,5.49,0,0,0,236.4,191c-1.14,0-1.68.42-1.68,1.17,0,1,1.38,1.32,2.91,1.89,1.89.69,4,1.74,4,4.47s-2.13,4.8-6.12,4.8a9.6,9.6,0,0,1-5.7-2.07Z"/><path class="cls-1" d="M79.07,221.39a4.77,4.77,0,0,0-1.53-.3c-1.08,0-1.71.6-1.71,2.13v.9H78.5v3.45H75.83V239H71.42V227.57h-2V224.3l2-.15v-.81c0-3.15,1.47-5.73,5.49-5.73a8.9,8.9,0,0,1,3,.54Z"/><path class="cls-1" d="M88.13,229.43a2.07,2.07,0,0,0-2.34-2.16,8,8,0,0,0-4,1.35l-1.56-2.91a12.3,12.3,0,0,1,6.36-2c3.81,0,5.91,2.16,5.91,6.72V239h-3.6l-.33-1.53h-.09a6.55,6.55,0,0,1-4.35,1.89,4.28,4.28,0,0,1-4.41-4.5C79.76,231.74,82.25,230,88.13,229.43Zm-2.46,6.51a3.31,3.31,0,0,0,2.46-1.26v-2.61c-3.15.42-4.17,1.32-4.17,2.46C84,235.49,84.62,235.94,85.67,235.94Z"/><path class="cls-1" d="M97,234.53a6.41,6.41,0,0,0,3.84,1.56c1.32,0,1.89-.48,1.89-1.26,0-1-1.5-1.44-3-2-1.8-.69-3.93-1.92-3.93-4.38,0-2.76,2.25-4.65,5.7-4.65a8.56,8.56,0,0,1,5.25,1.89l-2,2.64a5.49,5.49,0,0,0-3.15-1.26c-1.14,0-1.68.42-1.68,1.17,0,1,1.38,1.32,2.91,1.89,1.89.69,4,1.74,4,4.47s-2.13,4.8-6.12,4.8a9.6,9.6,0,0,1-5.7-2.07Z"/><path class="cls-1" d="M110.21,227.57h-2V224.3l2.28-.18.51-4h3.66v4h3.57v3.45h-3.57v6c0,1.68.75,2.37,1.92,2.37a4.21,4.21,0,0,0,1.41-.3l.69,3.21a10.71,10.71,0,0,1-3.3.54c-3.69,0-5.13-2.31-5.13-5.76Z"/><path class="cls-1" d="M133.49,223.76c4.23,0,6.33,3.09,6.33,7.14a8.74,8.74,0,0,1-.18,1.86h-8.91A3.6,3.6,0,0,0,134.6,236a6,6,0,0,0,3.21-1l1.47,2.67a9.73,9.73,0,0,1-5.28,1.68c-4.26,0-7.53-2.88-7.53-7.8S129.92,223.76,133.49,223.76Zm2.58,6.27c0-1.71-.72-2.91-2.49-2.91-1.38,0-2.58.93-2.88,2.91Z"/><path class="cls-1" d="M142.88,224.12h3.6l.3,1.89h.12a6.86,6.86,0,0,1,4.77-2.25c3.24,0,4.62,2.28,4.62,6V239h-4.41v-8.67c0-2.16-.57-2.82-1.83-2.82a3.76,3.76,0,0,0-2.76,1.44V239h-4.41Z"/><path class="cls-1" d="M166.43,223.76c3.75,0,7.23,2.85,7.23,7.8s-3.48,7.8-7.23,7.8-7.26-2.85-7.26-7.8S162.65,223.76,166.43,223.76Zm0,12c1.8,0,2.73-1.65,2.73-4.23s-.93-4.23-2.73-4.23-2.73,1.65-2.73,4.23S164.6,235.79,166.43,235.79Z"/><path class="cls-1" d="M176.54,224.12H181v8.67c0,2.13.57,2.82,1.86,2.82,1.11,0,1.77-.48,2.64-1.65v-9.84h4.41V239h-3.6l-.33-2.07h-.09a5.8,5.8,0,0,1-4.68,2.43c-3.24,0-4.62-2.28-4.62-6Z"/><path class="cls-1" d="M194.93,238.55v-.12a2.85,2.85,0,0,1-1.38-2.52,3.59,3.59,0,0,1,1.68-2.79V233a4.76,4.76,0,0,1-2-3.87c0-3.57,2.94-5.37,6.15-5.37a6.91,6.91,0,0,1,2.31.36h5.43v3.21h-2.37a4,4,0,0,1,.48,1.95c0,3.42-2.58,5-5.85,5a5.93,5.93,0,0,1-1.8-.3,1.26,1.26,0,0,0-.54,1.11c0,.75.6,1.11,2.25,1.11h2.4c3.66,0,5.67,1.11,5.67,3.78,0,3.09-3.21,5.34-8.31,5.34-3.48,0-6.24-1.14-6.24-3.78A3.49,3.49,0,0,1,194.93,238.55Zm4.8,4c2,0,3.42-.81,3.42-1.83s-.81-1.17-2.28-1.17h-1.53a8.66,8.66,0,0,1-2.1-.18,2,2,0,0,0-.81,1.47C196.43,242,197.75,242.57,199.73,242.57Zm1.68-13.44c0-1.56-.87-2.4-2-2.4s-2,.81-2,2.4.87,2.49,2,2.49S201.41,230.78,201.41,229.13Z"/><path class="cls-1" d="M209.75,218h4.41v5.16L214,225.8a6.83,6.83,0,0,1,4.59-2c3.24,0,4.62,2.28,4.62,6V239h-4.41v-8.67c0-2.16-.57-2.82-1.83-2.82a3.76,3.76,0,0,0-2.76,1.44V239h-4.41Z"/><path class="cls-1" d="M232.85,224a1.8,1.8,0,0,0-2-1.89,3.79,3.79,0,0,0-2.73,1.38l-2.43-2.22a7.1,7.1,0,0,1,5.46-2.73c3.39,0,5.94,1.59,5.94,5.13,0,3.72-4.5,4.83-4.14,8.4h-3.87C228.47,228,232.85,226.25,232.85,224ZM231,233.81a2.78,2.78,0,0,1,0,5.55,2.78,2.78,0,0,1,0-5.55Z"/></svg>