<svg id="Layer_1" data-name="Layer 1" xmlns="http://www.w3.org/2000/svg" viewBox="0 0 300 600"><defs><style>.cls-1{fill:#fff;}</style></defs><title>text</title><path class="cls-1" d="M72,172.16h-5.4v-3.72H81.79v3.72H76.42V188H72Z"/><path class="cls-1" d="M84.49,167H88.9v5.16l-.21,2.67a6.83,6.83,0,0,1,4.59-2c3.24,0,4.62,2.28,4.62,6V188H93.49v-8.67c0-2.16-.57-2.82-1.83-2.82A3.76,3.76,0,0,0,88.9,178V188H84.49Z"/><path class="cls-1" d="M107.77,172.76c4.23,0,6.33,3.09,6.33,7.14a8.74,8.74,0,0,1-.18,1.86H105a3.6,3.6,0,0,0,3.87,3.24,6,6,0,0,0,3.21-1l1.47,2.67a9.73,9.73,0,0,1-5.28,1.68c-4.26,0-7.53-2.88-7.53-7.8S104.2,172.76,107.77,172.76Zm2.58,6.27c0-1.71-.72-2.91-2.49-2.91-1.38,0-2.58.93-2.88,2.91Z"/><path class="cls-1" d="M124.06,183.53a6.41,6.41,0,0,0,3.84,1.56c1.31,0,1.89-.48,1.89-1.26,0-1-1.5-1.44-3-2-1.79-.69-3.92-1.92-3.92-4.38,0-2.76,2.25-4.65,5.69-4.65a8.56,8.56,0,0,1,5.25,1.89l-2,2.64a5.49,5.49,0,0,0-3.14-1.26c-1.15,0-1.69.42-1.69,1.17,0,1,1.39,1.32,2.92,1.89,1.88.69,4,1.74,4,4.47s-2.14,4.8-6.13,4.8a9.6,9.6,0,0,1-5.69-2.07Z"/><path class="cls-1" d="M141.1,189.17v4.35h-4.41v-20.4h3.6l.29,1.47h.13a6.54,6.54,0,0,1,4.23-1.83c3.59,0,5.81,3,5.81,7.56,0,5.1-3.06,8-6.27,8A5.13,5.13,0,0,1,141,186.8Zm2.36-4.41c1.54,0,2.77-1.32,2.77-4.38,0-2.67-.81-4-2.58-4a3.43,3.43,0,0,0-2.55,1.35v6.09A3.4,3.4,0,0,0,143.46,184.76Z"/><path class="cls-1" d="M160,172.76c4.23,0,6.33,3.09,6.33,7.14a8.74,8.74,0,0,1-.18,1.86h-8.9a3.6,3.6,0,0,0,3.86,3.24,6,6,0,0,0,3.21-1l1.47,2.67a9.73,9.73,0,0,1-5.27,1.68c-4.27,0-7.53-2.88-7.53-7.8S156.46,172.76,160,172.76ZM162.6,179c0-1.71-.72-2.91-2.49-2.91-1.38,0-2.57.93-2.88,2.91Z"/><path class="cls-1" d="M175.56,172.76c4.23,0,6.33,3.09,6.33,7.14a8.74,8.74,0,0,1-.18,1.86H172.8a3.6,3.6,0,0,0,3.87,3.24,6,6,0,0,0,3.21-1l1.47,2.67a9.73,9.73,0,0,1-5.28,1.68c-4.26,0-7.53-2.88-7.53-7.8S172,172.76,175.56,172.76Zm2.58,6.27c0-1.71-.72-2.91-2.49-2.91-1.38,0-2.58.93-2.88,2.91Z"/><path class="cls-1" d="M190.35,172.76a4.87,4.87,0,0,1,3.66,1.56l-.18-2.28V167h4.41v21h-3.6l-.3-1.47h-.12a5.89,5.89,0,0,1-4,1.83c-3.69,0-6.09-2.94-6.09-7.8S187.2,172.76,190.35,172.76Zm1.05,12a2.8,2.8,0,0,0,2.43-1.35v-6.09a3.52,3.52,0,0,0-2.46-1c-1.41,0-2.67,1.32-2.67,4.14S189.69,184.76,191.4,184.76Z"/><path class="cls-1" d="M208,168.62a2.56,2.56,0,1,1,2.55,2.31A2.33,2.33,0,0,1,208,168.62Zm.36,4.5h4.41V188h-4.41Z"/><path class="cls-1" d="M216.66,173.12h3.6l.3,1.89h.12a6.86,6.86,0,0,1,4.77-2.25c3.24,0,4.62,2.28,4.62,6V188h-4.41v-8.67c0-2.16-.57-2.82-1.83-2.82a3.76,3.76,0,0,0-2.76,1.44V188h-4.41Z"/><path class="cls-1" d="M24.62,212.57h-2V209.3l2.28-.18.51-4H29v4H32.6v3.45H29v6c0,1.68.75,2.37,1.92,2.37a4.21,4.21,0,0,0,1.41-.3l.69,3.21a10.71,10.71,0,0,1-3.3.54c-3.69,0-5.13-2.31-5.13-5.76Z"/><path class="cls-1" d="M35.51,203h4.41v5.16l-.21,2.67a6.83,6.83,0,0,1,4.59-2c3.24,0,4.62,2.28,4.62,6V224H44.51v-8.67c0-2.16-.57-2.82-1.83-2.82A3.76,3.76,0,0,0,39.92,214V224H35.51Z"/><path class="cls-1" d="M58.79,208.76c4.23,0,6.33,3.09,6.33,7.14a8.74,8.74,0,0,1-.18,1.86H56A3.6,3.6,0,0,0,59.9,221a6,6,0,0,0,3.21-1l1.47,2.67a9.73,9.73,0,0,1-5.28,1.68c-4.26,0-7.53-2.88-7.53-7.8S55.22,208.76,58.79,208.76ZM61.37,215c0-1.71-.72-2.91-2.49-2.91-1.38,0-2.58.93-2.88,2.91Z"/><path class="cls-1" d="M78.83,225.17v4.35H74.42v-20.4H78l.3,1.47h.12a6.54,6.54,0,0,1,4.23-1.83c3.6,0,5.82,3,5.82,7.56,0,5.1-3.06,8-6.27,8a5.16,5.16,0,0,1-3.54-1.56Zm2.37-4.41c1.53,0,2.76-1.32,2.76-4.38,0-2.67-.81-4-2.58-4a3.44,3.44,0,0,0-2.55,1.35v6.09A3.42,3.42,0,0,0,81.2,220.76Z"/><path class="cls-1" d="M98,208.76c3.75,0,7.23,2.85,7.23,7.8s-3.48,7.8-7.23,7.8-7.26-2.85-7.26-7.8S94.22,208.76,98,208.76Zm0,12c1.8,0,2.73-1.65,2.73-4.23s-.93-4.23-2.73-4.23-2.73,1.65-2.73,4.23S96.17,220.79,98,220.79Z"/><path class="cls-1" d="M106.79,209.12h4.38l1.44,6.9c.24,1.47.42,2.91.66,4.41h.12c.27-1.5.51-3,.87-4.41l1.65-6.9h3.81l1.68,6.9c.36,1.47.63,2.91.93,4.41h.12c.27-1.5.42-2.94.69-4.41l1.41-6.9h4.08L125.06,224H119.9l-1.35-5.94c-.3-1.38-.54-2.76-.81-4.35h-.12c-.27,1.59-.48,3-.75,4.35L115.55,224h-5Z"/><path class="cls-1" d="M137.21,208.76c4.23,0,6.33,3.09,6.33,7.14a8.74,8.74,0,0,1-.18,1.86h-8.91a3.6,3.6,0,0,0,3.87,3.24,6,6,0,0,0,3.21-1l1.47,2.67a9.73,9.73,0,0,1-5.28,1.68c-4.26,0-7.53-2.88-7.53-7.8S133.64,208.76,137.21,208.76Zm2.58,6.27c0-1.71-.72-2.91-2.49-2.91-1.38,0-2.58.93-2.88,2.91Z"/><path class="cls-1" d="M146.6,209.12h3.6l.3,2.61h.12a5,5,0,0,1,4.23-3,4.28,4.28,0,0,1,1.77.3l-.72,3.81a5.56,5.56,0,0,0-1.62-.24c-1.11,0-2.49.72-3.27,2.73V224H146.6Z"/><path class="cls-1" d="M164.42,204.62a2.56,2.56,0,1,1,2.55,2.31A2.33,2.33,0,0,1,164.42,204.62Zm.36,4.5h4.41V224h-4.41Z"/><path class="cls-1" d="M173.06,209.12h3.6L177,211h.12a6.86,6.86,0,0,1,4.77-2.25c3.24,0,4.62,2.28,4.62,6V224h-4.41v-8.67c0-2.16-.57-2.82-1.83-2.82a3.76,3.76,0,0,0-2.76,1.44V224h-4.41Z"/><path class="cls-1" d="M190.82,212.57h-2V209.3l2.28-.18.51-4h3.66v4h3.57v3.45h-3.57v6c0,1.68.75,2.37,1.92,2.37a4.21,4.21,0,0,0,1.41-.3l.69,3.21a10.71,10.71,0,0,1-3.3.54c-3.69,0-5.13-2.31-5.13-5.76Z"/><path class="cls-1" d="M201.71,209.12h3.6l.3,2.61h.12a5,5,0,0,1,4.23-3,4.28,4.28,0,0,1,1.77.3l-.72,3.81a5.56,5.56,0,0,0-1.62-.24c-1.11,0-2.49.72-3.27,2.73V224h-4.41Z"/><path class="cls-1" d="M220.61,214.43a2.07,2.07,0,0,0-2.34-2.16,8,8,0,0,0-4,1.35l-1.56-2.91a12.3,12.3,0,0,1,6.36-2c3.81,0,5.91,2.16,5.91,6.72V224h-3.6l-.33-1.53H221a6.55,6.55,0,0,1-4.35,1.89,4.28,4.28,0,0,1-4.41-4.5C212.24,216.74,214.73,215,220.61,214.43Zm-2.46,6.51a3.31,3.31,0,0,0,2.46-1.26v-2.61c-3.15.42-4.17,1.32-4.17,2.46C216.44,220.49,217.1,220.94,218.15,220.94Z"/><path class="cls-1" d="M234.2,208.76a4.87,4.87,0,0,1,3.66,1.56l-.18-2.28V203h4.41v21h-3.6l-.3-1.47h-.12a5.89,5.89,0,0,1-4,1.83c-3.69,0-6.09-2.94-6.09-7.8S231.05,208.76,234.2,208.76Zm1.05,12a2.8,2.8,0,0,0,2.43-1.35v-6.09a3.52,3.52,0,0,0-2.46-1c-1.41,0-2.67,1.32-2.67,4.14S233.54,220.76,235.25,220.76Z"/><path class="cls-1" d="M253.82,214.43a2.07,2.07,0,0,0-2.34-2.16,8,8,0,0,0-4,1.35L246,210.71a12.3,12.3,0,0,1,6.36-2c3.81,0,5.91,2.16,5.91,6.72V224h-3.6l-.33-1.53h-.09a6.55,6.55,0,0,1-4.35,1.89,4.28,4.28,0,0,1-4.41-4.5C245.45,216.74,247.94,215,253.82,214.43Zm-2.46,6.51a3.31,3.31,0,0,0,2.46-1.26v-2.61c-3.15.42-4.17,1.32-4.17,2.46C249.65,220.49,250.31,220.94,251.36,220.94Z"/><path class="cls-1" d="M263.33,226.34a2.53,2.53,0,0,0,2.61-2l.21-.78-5.73-14.49h4.44l2.13,6.39c.42,1.35.78,2.76,1.17,4.23h.12c.33-1.41.66-2.82,1-4.23l1.8-6.39h4.23l-5.16,15c-1.41,3.75-3,5.67-6.51,5.67a6.78,6.78,0,0,1-2.1-.3l.78-3.36A4.84,4.84,0,0,0,263.33,226.34Z"/><path class="cls-1" d="M16,245.12h3.6l.3,1.92H20a6.23,6.23,0,0,1,4.5-2.28,4.12,4.12,0,0,1,4.11,2.49c1.32-1.35,2.7-2.49,4.68-2.49,3.21,0,4.65,2.28,4.65,6V260H33.56v-8.67c0-2.16-.57-2.82-1.83-2.82A3.94,3.94,0,0,0,29.18,250V260H24.77v-8.67c0-2.16-.57-2.82-1.83-2.82A3.88,3.88,0,0,0,20.42,250V260H16Z"/><path class="cls-1" d="M49.55,250.43a2.07,2.07,0,0,0-2.34-2.16,8,8,0,0,0-4,1.35l-1.56-2.91a12.3,12.3,0,0,1,6.36-2c3.81,0,5.91,2.16,5.91,6.72V260h-3.6L50,258.47h-.09a6.55,6.55,0,0,1-4.35,1.89,4.28,4.28,0,0,1-4.41-4.5C41.18,252.74,43.67,251,49.55,250.43Zm-2.46,6.51a3.31,3.31,0,0,0,2.46-1.26v-2.61c-3.15.42-4.17,1.32-4.17,2.46C45.38,256.49,46,256.94,47.09,256.94Z"/><path class="cls-1" d="M57.74,245.12h3.6l.3,2.61h.12a5,5,0,0,1,4.23-3,4.28,4.28,0,0,1,1.77.3L67,248.87a5.56,5.56,0,0,0-1.62-.24c-1.11,0-2.49.72-3.27,2.73V260H57.74Z"/><path class="cls-1" d="M69.68,239H74V251h.12l4.71-5.91h4.8l-5.22,6.12L84,260H79.22l-3.36-5.79L74,256.34V260H69.68Z"/><path class="cls-1" d="M91.43,244.76c4.23,0,6.33,3.09,6.33,7.14a8.74,8.74,0,0,1-.18,1.86H88.67A3.6,3.6,0,0,0,92.54,257a6,6,0,0,0,3.21-1l1.47,2.67a9.73,9.73,0,0,1-5.28,1.68c-4.26,0-7.53-2.88-7.53-7.8S87.86,244.76,91.43,244.76ZM94,251c0-1.71-.72-2.91-2.49-2.91-1.38,0-2.58.93-2.88,2.91Z"/><path class="cls-1" d="M100.88,248.57h-2V245.3l2.28-.18.51-4h3.66v4h3.57v3.45h-3.57v6c0,1.68.75,2.37,1.92,2.37a4.21,4.21,0,0,0,1.41-.3l.69,3.21a10.71,10.71,0,0,1-3.3.54c-3.69,0-5.13-2.31-5.13-5.76Z"/><path class="cls-1" d="M117.65,240.62a2.56,2.56,0,1,1,2.55,2.31A2.33,2.33,0,0,1,117.65,240.62Zm.36,4.5h4.41V260H118Z"/><path class="cls-1" d="M127,255.53a6.41,6.41,0,0,0,3.84,1.56c1.32,0,1.89-.48,1.89-1.26,0-1-1.5-1.44-3-2-1.8-.69-3.93-1.92-3.93-4.38,0-2.76,2.25-4.65,5.7-4.65a8.56,8.56,0,0,1,5.25,1.89l-2,2.64a5.49,5.49,0,0,0-3.15-1.26c-1.14,0-1.68.42-1.68,1.17,0,1,1.38,1.32,2.91,1.89,1.89.69,4,1.74,4,4.47s-2.13,4.8-6.12,4.8a9.6,9.6,0,0,1-5.7-2.07Z"/><path class="cls-1" d="M145.46,240.62a2.56,2.56,0,1,1,2.55,2.31A2.33,2.33,0,0,1,145.46,240.62Zm.36,4.5h4.41V260h-4.41Z"/><path class="cls-1" d="M154.1,245.12h3.6L158,247h.12a6.86,6.86,0,0,1,4.77-2.25c3.24,0,4.62,2.28,4.62,6V260H163.1v-8.67c0-2.16-.57-2.82-1.83-2.82a3.76,3.76,0,0,0-2.76,1.44V260H154.1Z"/><path class="cls-1" d="M178.13,244.76a6,6,0,0,1,4.35,1.71l-2,2.73a3.18,3.18,0,0,0-2.07-.87c-2.13,0-3.48,1.65-3.48,4.23s1.41,4.23,3.33,4.23a4.29,4.29,0,0,0,2.67-1.08l1.77,2.79a7.72,7.72,0,0,1-4.95,1.86c-4.14,0-7.35-2.85-7.35-7.8A7.48,7.48,0,0,1,178.13,244.76Z"/><path class="cls-1" d="M185.27,245.12h3.6l.3,2.61h.12a5,5,0,0,1,4.23-3,4.28,4.28,0,0,1,1.77.3l-.72,3.81a5.56,5.56,0,0,0-1.62-.24c-1.11,0-2.49.72-3.27,2.73V260h-4.41Z"/><path class="cls-1" d="M203.06,244.76c4.23,0,6.33,3.09,6.33,7.14a8.74,8.74,0,0,1-.18,1.86H200.3a3.6,3.6,0,0,0,3.87,3.24,6,6,0,0,0,3.21-1l1.47,2.67a9.73,9.73,0,0,1-5.28,1.68c-4.26,0-7.53-2.88-7.53-7.8S199.49,244.76,203.06,244.76Zm2.58,6.27c0-1.71-.72-2.91-2.49-2.91-1.38,0-2.58.93-2.88,2.91Z"/><path class="cls-1" d="M220,250.43a2.07,2.07,0,0,0-2.34-2.16,8,8,0,0,0-4,1.35l-1.56-2.91a12.3,12.3,0,0,1,6.36-2c3.81,0,5.91,2.16,5.91,6.72V260h-3.6l-.33-1.53h-.09a6.55,6.55,0,0,1-4.35,1.89,4.28,4.28,0,0,1-4.41-4.5C211.58,252.74,214.07,251,220,250.43Zm-2.46,6.51a3.31,3.31,0,0,0,2.46-1.26v-2.61c-3.15.42-4.17,1.32-4.17,2.46C215.78,256.49,216.44,256.94,217.49,256.94Z"/><path class="cls-1" d="M228.8,255.53a6.41,6.41,0,0,0,3.84,1.56c1.32,0,1.89-.48,1.89-1.26,0-1-1.5-1.44-3-2-1.8-.69-3.93-1.92-3.93-4.38,0-2.76,2.25-4.65,5.7-4.65a8.56,8.56,0,0,1,5.25,1.89l-2,2.64a5.49,5.49,0,0,0-3.15-1.26c-1.14,0-1.68.42-1.68,1.17,0,1,1.38,1.32,2.91,1.89,1.89.69,4,1.74,4,4.47s-2.13,4.8-6.12,4.8a9.6,9.6,0,0,1-5.7-2.07Z"/><path class="cls-1" d="M241.07,240.62a2.56,2.56,0,1,1,2.55,2.31A2.33,2.33,0,0,1,241.07,240.62Zm.36,4.5h4.41V260h-4.41Z"/><path class="cls-1" d="M249.71,245.12h3.6l.3,1.89h.12a6.86,6.86,0,0,1,4.77-2.25c3.24,0,4.62,2.28,4.62,6V260h-4.41v-8.67c0-2.16-.57-2.82-1.83-2.82a3.76,3.76,0,0,0-2.76,1.44V260h-4.41Z"/><path class="cls-1" d="M268.07,259.55v-.12a2.85,2.85,0,0,1-1.38-2.52,3.59,3.59,0,0,1,1.68-2.79V254a4.76,4.76,0,0,1-2-3.87c0-3.57,2.94-5.37,6.15-5.37a6.91,6.91,0,0,1,2.31.36h5.43v3.21h-2.37a4,4,0,0,1,.48,1.95c0,3.42-2.58,5-5.85,5a5.93,5.93,0,0,1-1.8-.3,1.26,1.26,0,0,0-.54,1.11c0,.75.6,1.11,2.25,1.11h2.4c3.66,0,5.67,1.11,5.67,3.78,0,3.09-3.21,5.34-8.31,5.34-3.48,0-6.24-1.14-6.24-3.78A3.49,3.49,0,0,1,268.07,259.55Zm4.8,4c2,0,3.42-.81,3.42-1.83s-.81-1.17-2.28-1.17h-1.53a8.66,8.66,0,0,1-2.1-.18,2,2,0,0,0-.81,1.47C269.57,263,270.89,263.57,272.87,263.57Zm1.68-13.44c0-1.56-.87-2.4-2-2.4s-2,.81-2,2.4.87,2.49,2,2.49S274.55,251.78,274.55,250.13Z"/><path class="cls-1" d="M285.44,254.81a2.78,2.78,0,1,1-2.67,2.79A2.67,2.67,0,0,1,285.44,254.81Z"/></svg>