<svg id="Layer_1" data-name="Layer 1" xmlns="http://www.w3.org/2000/svg" viewBox="0 0 160 600"><defs><style>.cls-1{fill:#d80201;}</style></defs><title>text</title><path class="cls-1" d="M12,278.46a6,6,0,0,1-5.26-2.92l1.93-1.86a3.51,3.51,0,0,0,3.22,2.05,2.19,2.19,0,0,0,2.37-2.16c0-3.15-6.74-1.66-6.74-6.6a4.49,4.49,0,0,1,4.78-4.46,6.7,6.7,0,0,1,4.49,1.7l-1.57,2A3.09,3.09,0,0,0,12.76,265c-1,0-2.14.62-2.14,1.73,0,2.6,6.74,1.31,6.74,6.67C17.36,276.53,15.06,278.46,12,278.46Z"/><path class="cls-1" d="M24.63,278.3H23.34l-5.08-10.16h3.13L24,273.75l2.62-5.61h3.13Z"/><path class="cls-1" d="M38.22,278.1v-1.31A3.85,3.85,0,0,1,35,278.42c-3,0-4.9-2.48-4.9-5.34a5,5,0,0,1,4.83-5.26,4.16,4.16,0,0,1,3.31,1.58v-1.26H41v10Zm-2.48-7.78a2.8,2.8,0,1,0,2.78,2.79A2.78,2.78,0,0,0,35.74,270.32Z"/><path class="cls-1" d="M50.5,278.1v-5.52c0-1.36-.3-2.39-1.88-2.39s-2.14,1.26-2.14,2.76v5.15H43.7v-10h2.78v1.22a3.67,3.67,0,0,1,3.13-1.54,3.44,3.44,0,0,1,3.68,3.95v6.33Z"/><path class="cls-1" d="M58.28,273.57c0,1.54.78,2.66,2.43,2.66a2.59,2.59,0,0,0,2.37-1.33l2.58.41a4.89,4.89,0,0,1-4.9,3.11,5,5,0,0,1-5.33-5.31,4.93,4.93,0,0,1,5.22-5.29c3.28,0,5.08,2.21,5.08,5.38v.37Zm2.41-3.77a2.26,2.26,0,0,0-2.32,2h4.71A2.3,2.3,0,0,0,60.69,269.8Z"/><path class="cls-1" d="M74.67,278.1v-5.52c0-1.36-.29-2.39-1.88-2.39s-2.14,1.26-2.14,2.76v5.15H67.87v-10h2.78v1.22a3.67,3.67,0,0,1,3.13-1.54,3.43,3.43,0,0,1,3.68,3.95v6.33Z"/><path class="cls-1" d="M92.84,278.1v-5.45c0-1.18-.18-2.46-1.65-2.46-1.63,0-1.91,1.49-1.91,2.8v5.11H86.5v-5.29a4.39,4.39,0,0,0-.21-1.66,1.6,1.6,0,0,0-1.5-1,1.81,1.81,0,0,0-1.56.89,4.12,4.12,0,0,0-.32,1.91v5.11H80.13v-10h2.78v1.13a3.81,3.81,0,0,1,3-1.45,3.39,3.39,0,0,1,3.1,1.81,3.68,3.68,0,0,1,3.26-1.81,3.28,3.28,0,0,1,2.79,1.42,4.41,4.41,0,0,1,.53,2.42v6.44Z"/><path class="cls-1" d="M105.91,278.1v-1.31a3.85,3.85,0,0,1-3.24,1.63c-3,0-4.9-2.48-4.9-5.34a5,5,0,0,1,4.83-5.26,4.16,4.16,0,0,1,3.31,1.58v-1.26h2.8v10Zm-4.81-11.82a1.66,1.66,0,0,1,0-3.31,1.66,1.66,0,1,1,0,3.31Zm2.32,4a2.8,2.8,0,1,0,2.79,2.79A2.78,2.78,0,0,0,103.42,270.32Zm2.47-4a1.68,1.68,0,0,1-1.66-1.66,1.66,1.66,0,1,1,1.66,1.66Z"/><path class="cls-1" d="M117.89,270.67a2.48,2.48,0,0,0-1.33-.35c-1.89,0-2.39,1.34-2.39,3v4.79h-2.79v-10h2.79v1.49a3.24,3.24,0,0,1,4.11-1.58Z"/><path class="cls-1" d="M126.49,278.1l-3.74-4.28-.3.3v4h-2.79V260.87h2.79v10.9l3.72-3.63h3.77l-4.67,4.37,5,5.59Z"/><path class="cls-1" d="M134.36,270.53v7.57h-2.78v-7.57h-1.11v-2.39h1.11v-3.4h2.78v3.4h1.95v2.39Z"/><path class="cls-1" d="M145.38,278.1v-1.31a3.86,3.86,0,0,1-3.25,1.63c-3,0-4.89-2.48-4.89-5.34s1.9-5.26,4.82-5.26a4.18,4.18,0,0,1,3.32,1.58v-1.26h2.8v10Zm-2.49-7.78a2.8,2.8,0,1,0,2.78,2.79A2.78,2.78,0,0,0,142.89,270.32Z"/><path class="cls-1" d="M14.14,306.1v-5.45c0-1.38-.3-2.46-1.91-2.46s-2.11,1.33-2.11,2.8v5.11H7.33V288.87h2.79v8.56a3.62,3.62,0,0,1,3.12-1.61,3.8,3.8,0,0,1,2.9,1.22,3.94,3.94,0,0,1,.78,2.8v6.26Z"/><path class="cls-1" d="M24.4,306.42c-2.74,0-4.81-1.22-4.81-4.19v-6.09h2.79v5.63c0,1.36.57,2.28,2,2.28s2-.92,2-2.28v-5.63h2.81v6.09C29.23,305.2,27.13,306.42,24.4,306.42Z"/><path class="cls-1" d="M35.07,306.42a5.25,5.25,0,0,1-3.79-1.66l1.47-1.7a3.21,3.21,0,0,0,2.34,1.17,1.17,1.17,0,0,0,1.27-1.1c0-1.7-4.44-.85-4.44-4.21,0-2,1.68-3.15,3.56-3.15a5.13,5.13,0,0,1,3.25,1.06l-1.38,1.63a2.79,2.79,0,0,0-1.66-.66c-.48,0-1.06.29-1.06.85,0,1.45,4.6.8,4.6,4.2C39.23,305.18,37.21,306.42,35.07,306.42Z"/><path class="cls-1" d="M49.84,298.53v7.57H47.05v-7.57H46v-2.39h1.08v-3.2a4.87,4.87,0,0,1,.44-2.34,3.94,3.94,0,0,1,3.45-2,3.3,3.3,0,0,1,1.47.34v2.55a2.82,2.82,0,0,0-1.26-.36c-1.24,0-1.31,1.28-1.31,2.23v2.78h2.57v2.39Z"/><path class="cls-1" d="M58.88,306.42c-3.18,0-5.71-2-5.71-5.29s2.53-5.31,5.73-5.31,5.65,2,5.65,5.29S62,306.42,58.88,306.42Zm-2.42-12.14a1.66,1.66,0,1,1,0-3.31,1.66,1.66,0,1,1,0,3.31Zm2.39,4a2.8,2.8,0,1,0,2.83,2.81A2.82,2.82,0,0,0,58.85,298.32Zm2.39-4a1.68,1.68,0,0,1-1.65-1.66,1.66,1.66,0,0,1,3.31,0A1.66,1.66,0,0,1,61.24,294.28Z"/><path class="cls-1" d="M73.2,298.67a2.48,2.48,0,0,0-1.33-.35c-1.89,0-2.39,1.34-2.39,3v4.79H66.7v-10h2.78v1.49a3.24,3.24,0,0,1,4.11-1.58Z"/><path class="cls-1" d="M83.05,301.57c0,1.54.78,2.66,2.44,2.66a2.59,2.59,0,0,0,2.36-1.33l2.58.41a4.9,4.9,0,0,1-4.9,3.11,5,5,0,0,1-5.33-5.31,4.93,4.93,0,0,1,5.22-5.29c3.28,0,5.08,2.21,5.08,5.38v.37Zm2.41-3.77a2.26,2.26,0,0,0-2.32,2h4.71A2.3,2.3,0,0,0,85.46,297.8Z"/><path class="cls-1" d="M99.45,306.1v-5.52c0-1.36-.3-2.39-1.89-2.39s-2.14,1.26-2.14,2.76v5.15H92.64v-10h2.78v1.22a3.67,3.67,0,0,1,3.13-1.54,3.43,3.43,0,0,1,3.68,3.95v6.33Z"/><path class="cls-1" d="M10.51,334.42a5.29,5.29,0,0,1-3.8-1.66l1.47-1.7a3.23,3.23,0,0,0,2.35,1.17,1.17,1.17,0,0,0,1.26-1.1c0-1.7-4.43-.85-4.43-4.21,0-2,1.68-3.15,3.56-3.15a5.09,5.09,0,0,1,3.24,1.06l-1.38,1.63a2.75,2.75,0,0,0-1.65-.67,1,1,0,0,0-1.06.86c0,1.45,4.6.8,4.6,4.2C14.67,333.18,12.65,334.42,10.51,334.42Z"/><path class="cls-1" d="M21.45,334.42c-2.73,0-4.8-1.22-4.8-4.19v-6.09h2.78v5.63c0,1.36.58,2.28,2,2.28s2-.92,2-2.28v-5.63h2.8v6.09C26.28,333.2,24.19,334.42,21.45,334.42Z"/><path class="cls-1" d="M35.76,334.1v-5.52c0-1.36-.3-2.39-1.89-2.39s-2.13,1.26-2.13,2.76v5.15H29v-10h2.79v1.22a3.66,3.66,0,0,1,3.12-1.54,3.43,3.43,0,0,1,3.68,3.95v6.33Z"/><path class="cls-1" d="M48.82,334.1v-1.31a3.85,3.85,0,0,1-3.24,1.63c-3,0-4.9-2.48-4.9-5.34a5,5,0,0,1,4.83-5.26,4.15,4.15,0,0,1,3.31,1.58v-8.53h2.81V334.1Zm-2.48-7.78a2.8,2.8,0,1,0,2.78,2.79A2.78,2.78,0,0,0,46.34,326.32Z"/><path class="cls-1" d="M61.41,321.61a1.68,1.68,0,1,1,0-3.36,1.68,1.68,0,0,1,0,3.36ZM60,334.1v-10h2.79v10Z"/><path class="cls-1" d="M72.21,334.1v-5.52c0-1.36-.29-2.39-1.88-2.39s-2.14,1.26-2.14,2.76v5.15H65.41v-10h2.78v1.22a3.67,3.67,0,0,1,3.13-1.54A3.44,3.44,0,0,1,75,327.77v6.33Z"/><path class="cls-1" d="M84.47,334.1v-5.52c0-1.36-.3-2.39-1.88-2.39-1.73,0-2.14,1.26-2.14,2.76v5.15H77.67v-10h2.78v1.22a3.67,3.67,0,0,1,3.13-1.54,3.43,3.43,0,0,1,3.67,3.95v6.33Z"/><path class="cls-1" d="M92.25,329.57c0,1.54.78,2.66,2.43,2.66a2.59,2.59,0,0,0,2.37-1.33l2.58.41a4.9,4.9,0,0,1-4.9,3.11,5,5,0,0,1-5.33-5.31,4.93,4.93,0,0,1,5.22-5.29c3.28,0,5.08,2.21,5.08,5.38v.37Zm2.41-3.78a2.27,2.27,0,0,0-2.32,2h4.71A2.3,2.3,0,0,0,94.66,325.79Z"/><path class="cls-1" d="M114.55,334.1v-5.45c0-1.18-.18-2.46-1.65-2.46-1.63,0-1.91,1.49-1.91,2.8v5.11h-2.78v-5.29a4.39,4.39,0,0,0-.21-1.66,1.6,1.6,0,0,0-1.49-1,1.83,1.83,0,0,0-1.57.89,4.12,4.12,0,0,0-.32,1.91v5.11h-2.78v-10h2.78v1.13a3.81,3.81,0,0,1,3-1.45,3.39,3.39,0,0,1,3.1,1.81,3.69,3.69,0,0,1,3.27-1.81,3.28,3.28,0,0,1,2.78,1.42,4.41,4.41,0,0,1,.53,2.42v6.44Z"/><path class="cls-1" d="M121.37,321.61a1.68,1.68,0,1,1,0-3.36,1.68,1.68,0,0,1,0,3.36ZM120,334.1v-10h2.79v10Z"/><path class="cls-1" d="M125.37,334.1V316.87h2.78V334.1Z"/><path class="cls-1" d="M132.17,321.61a1.68,1.68,0,1,1,1.66-1.68A1.68,1.68,0,0,1,132.17,321.61Zm-1.4,17.8V324.14h2.78v15.27Z"/><path class="cls-1" d="M141.35,334.42c-3.17,0-5.7-2-5.7-5.29s2.53-5.31,5.72-5.31,5.66,2,5.66,5.29S144.5,334.42,141.35,334.42Zm-2.41-12.14a1.66,1.66,0,1,1,0-3.31,1.66,1.66,0,0,1,0,3.31Zm2.39,4a2.8,2.8,0,1,0,2.83,2.81A2.83,2.83,0,0,0,141.33,326.32Zm2.39-4a1.68,1.68,0,0,1-1.66-1.66,1.66,1.66,0,1,1,1.66,1.66Z"/><path class="cls-1" d="M150.71,334.4a1.8,1.8,0,1,1,1.8-1.8A1.8,1.8,0,0,1,150.71,334.4Zm-1.42-4.69V318.76h2.85v10.95Z"/></svg>