<svg id="Layer_1" data-name="Layer 1" xmlns="http://www.w3.org/2000/svg" viewBox="0 0 320 320"><defs><style>.cls-1{fill:#d80201;}</style></defs><title>text</title><path class="cls-1" d="M44.86,193.5l-7.38-9.27-.47.47v8.8H33V172.82h4v8.74l7.6-8.74h5.08L41,182.37l9.21,11.13Z"/><path class="cls-1" d="M52.14,193.5V170.28h3.75V193.5Z"/><path class="cls-1" d="M61.31,176.66a2.26,2.26,0,0,1,0-4.52,2.26,2.26,0,0,1,0,4.52ZM59.42,193.5V180.08h3.76V193.5Z"/><path class="cls-1" d="M83.85,193.5v-7.35c0-1.58-.24-3.32-2.23-3.32-2.2,0-2.57,2-2.57,3.79v6.88H75.3v-7.13a6,6,0,0,0-.28-2.23,2.18,2.18,0,0,0-2-1.31A2.48,2.48,0,0,0,70.89,184a5.65,5.65,0,0,0-.43,2.58v6.88H66.71V180.08h3.75v1.51a5.16,5.16,0,0,1,4.09-2,4.56,4.56,0,0,1,4.19,2.45,5,5,0,0,1,4.4-2.45,4.4,4.4,0,0,1,3.75,1.92,5.93,5.93,0,0,1,.72,3.26v8.68Z"/><path class="cls-1" d="M101.46,193.5v-1.77a5.17,5.17,0,0,1-4.37,2.2c-4,0-6.61-3.34-6.61-7.19s2.58-7.1,6.52-7.1a5.57,5.57,0,0,1,4.46,2.14v-1.7h3.78V193.5ZM98.11,183a3.77,3.77,0,1,0,3.75,3.75A3.74,3.74,0,0,0,98.11,183Z"/><path class="cls-1" d="M112.62,183.3v10.2h-3.75V183.3h-1.49v-3.22h1.49v-4.59h3.75v4.59h2.63v3.22Z"/><path class="cls-1" d="M121.48,193.93a7.11,7.11,0,0,1-5.11-2.23l2-2.29a4.36,4.36,0,0,0,3.17,1.58,1.58,1.58,0,0,0,1.7-1.49c0-2.29-6-1.15-6-5.67,0-2.73,2.26-4.25,4.8-4.25a6.9,6.9,0,0,1,4.37,1.42l-1.86,2.21a3.7,3.7,0,0,0-2.23-.9c-.65,0-1.42.4-1.42,1.15,0,1.95,6.2,1.08,6.2,5.67C127.1,192.26,124.37,193.93,121.48,193.93Z"/><path class="cls-1" d="M146.91,193.5v-7.35c0-1.58-.25-3.32-2.24-3.32-2.2,0-2.57,2-2.57,3.79v6.88h-3.75v-7.13a6,6,0,0,0-.28-2.23,2.17,2.17,0,0,0-2-1.31A2.45,2.45,0,0,0,134,184a5.52,5.52,0,0,0-.44,2.58v6.88h-3.75V180.08h3.75v1.51a5.16,5.16,0,0,1,4.09-2,4.56,4.56,0,0,1,4.19,2.45,5,5,0,0,1,4.4-2.45,4.43,4.43,0,0,1,3.76,1.92,5.92,5.92,0,0,1,.71,3.26v8.68Z"/><path class="cls-1" d="M164.51,193.5v-1.77a5.17,5.17,0,0,1-4.37,2.2c-4,0-6.6-3.34-6.6-7.19s2.57-7.1,6.51-7.1a5.57,5.57,0,0,1,4.46,2.14v-1.7h3.79V193.5ZM161.16,183a3.77,3.77,0,1,0,3.76,3.75A3.75,3.75,0,0,0,161.16,183Z"/><path class="cls-1" d="M180.66,183.49a3.23,3.23,0,0,0-1.79-.47c-2.55,0-3.23,1.8-3.23,4v6.45h-3.75V180.08h3.75v2a4.32,4.32,0,0,1,3.91-2.45,4.23,4.23,0,0,1,1.64.31Z"/><path class="cls-1" d="M187.51,183.3v10.2h-3.75V183.3h-1.49v-3.22h1.49v-4.59h3.75v4.59h2.64v3.22Z"/><path class="cls-1" d="M208,193.93a5.27,5.27,0,0,1-4.4-2.2v1.77h-3.75V170.28h3.75v11.5a5.69,5.69,0,0,1,4.5-2.14c3.94,0,6.54,3.35,6.54,7.1S212,193.93,208,193.93ZM207,183a3.77,3.77,0,1,0,3.75,3.75A3.74,3.74,0,0,0,207,183Z"/><path class="cls-1" d="M224.47,193.93c-4.28,0-7.69-2.66-7.69-7.13s3.41-7.16,7.72-7.16,7.62,2.7,7.62,7.13S228.71,193.93,224.47,193.93Zm0-10.91a3.77,3.77,0,1,0,3.82,3.78A3.8,3.8,0,0,0,224.43,183Z"/><path class="cls-1" d="M239.28,193.93a7.11,7.11,0,0,1-5.11-2.23l2-2.29a4.36,4.36,0,0,0,3.16,1.58A1.59,1.59,0,0,0,241,189.5c0-2.29-6-1.15-6-5.67,0-2.73,2.27-4.25,4.81-4.25a6.92,6.92,0,0,1,4.37,1.42l-1.86,2.21a3.7,3.7,0,0,0-2.23-.9c-.65,0-1.43.4-1.43,1.15,0,1.95,6.2,1.08,6.2,5.67C244.89,192.26,242.17,193.93,239.28,193.93Z"/><path class="cls-1" d="M251.34,183.3v10.2h-3.75V183.3H246.1v-3.22h1.49v-4.59h3.75v4.59H254v3.22Z"/><path class="cls-1" d="M266.19,193.5v-1.77a5.17,5.17,0,0,1-4.37,2.2c-4,0-6.61-3.34-6.61-7.19s2.58-7.1,6.52-7.1a5.57,5.57,0,0,1,4.46,2.14v-1.7H270V193.5ZM262.84,183a3.77,3.77,0,1,0,3.75,3.75A3.74,3.74,0,0,0,262.84,183Z"/><path class="cls-1" d="M283.83,193.5v-1.77a5.17,5.17,0,0,1-4.37,2.2c-4,0-6.61-3.34-6.61-7.19s2.58-7.1,6.51-7.1a5.58,5.58,0,0,1,4.47,2.14v-11.5h3.78V193.5ZM280.48,183a3.77,3.77,0,1,0,3.75,3.75A3.74,3.74,0,0,0,280.48,183Z"/><path class="cls-1" d="M41.72,226.5H34.78V205.82h5.11c1.68,0,3.72.15,5.06,1.24a5.53,5.53,0,0,1,1.86,4.25,4.32,4.32,0,0,1-2.27,4.15,4.74,4.74,0,0,1,2.7,1.3,5.61,5.61,0,0,1,1.49,3.88C48.73,224.76,45.44,226.5,41.72,226.5ZM40,209.11H38.81v5.33H40c1.79,0,3.13-.71,3.13-2.67S41.78,209.11,40,209.11Zm.68,8.4H38.81v5.74h1.73c2,0,4-.47,4-2.89S42.59,217.51,40.67,217.51Z"/><path class="cls-1" d="M55,220.39c.06,2.08,1,3.6,3.29,3.6a3.52,3.52,0,0,0,3.19-1.8l3.47.56a6.58,6.58,0,0,1-6.6,4.18c-4.34,0-7.19-2.79-7.19-7.16s2.72-7.13,7-7.13,6.86,3,6.86,7.26v.49Zm3.26-5.08A3,3,0,0,0,55.11,218h6.36A3.11,3.11,0,0,0,58.25,215.31Z"/><path class="cls-1" d="M72.19,226.93a7.11,7.11,0,0,1-5.11-2.23l2-2.29A4.36,4.36,0,0,0,72.23,224a1.58,1.58,0,0,0,1.7-1.49c0-2.29-6-1.15-6-5.67,0-2.73,2.26-4.25,4.8-4.25A6.9,6.9,0,0,1,77.12,214l-1.86,2.21a3.7,3.7,0,0,0-2.23-.9c-.65,0-1.42.4-1.42,1.15,0,1.95,6.2,1.08,6.2,5.67C77.81,225.26,75.08,226.93,72.19,226.93Z"/><path class="cls-1" d="M87.45,226.93c-4.28,0-7.69-2.66-7.69-7.13s3.41-7.16,7.72-7.16,7.63,2.7,7.63,7.13S91.69,226.93,87.45,226.93Zm-3.26-16.37a2.23,2.23,0,0,1,0-4.46,2.23,2.23,0,1,1,0,4.46ZM87.42,216a3.77,3.77,0,1,0,3.81,3.78A3.8,3.8,0,0,0,87.42,216Zm3.22-5.46a2.26,2.26,0,0,1-2.23-2.23,2.23,2.23,0,1,1,2.23,2.23Z"/><path class="cls-1" d="M107.19,226.5l-5-5.77-.4.41v5.36H98V203.28h3.75V218l5-4.89h5.09l-6.3,5.89,6.79,7.53Z"/><path class="cls-1" d="M135.13,226.5v-9.21h-8.75v9.21h-4V205.82h4v8h8.75v-8h4V226.5Z"/><path class="cls-1" d="M153.88,227a10.73,10.73,0,0,1-11-10.76,11.06,11.06,0,1,1,11,10.76Zm0-17.93a7.14,7.14,0,1,0,6.91,7.1A7,7,0,0,0,153.88,209Z"/><path class="cls-1" d="M187.83,226.5,186,213.76l-5.71,13h-1.11l-5.49-13-2.08,12.74h-4.06l3.84-21.05h2.76L179.8,219l5.89-13.52h2.76l3.44,21.05Z"/><path class="cls-1" d="M195.57,226.5V205.82H207v3.5H199.6v4.59h7.13v3.51H199.6V223H207v3.5Z"/><path class="cls-1" d="M234.42,214.56h-3.13l-.44,2.79H234l-.53,3.38h-3.16l-.93,5.77h-3.88l.93-5.77H223.6l-.9,5.77h-3.85l.93-5.77h-3.19l.53-3.38h3.19l.44-2.79h-3.17l.53-3.41h3.16l.84-5.33H226l-.86,5.33h2.85l.84-5.33h3.87l-.84,5.33H235Zm-9.86,0-.44,2.79H227l.43-2.79Z"/><path class="cls-1" d="M243.56,227c-4.18,0-7.75-2.7-7.75-7.1a11.67,11.67,0,0,1,2.61-6.55c2-2.85,4.18-5.61,6.29-8.43l2.85,2.17-4.9,6.26a6.7,6.7,0,0,1,2.42-.49,6.54,6.54,0,0,1,6.42,6.82C251.5,224.33,248,227,243.56,227Zm.13-10.92a3.86,3.86,0,1,0,3.78,3.85A3.79,3.79,0,0,0,243.69,216.11Z"/><path class="cls-1" d="M261.23,227c-5.7,0-8-6-8-10.85s2.27-10.89,8-10.89,8,6,8,10.85S267,227,261.23,227Zm0-18.17c-3.16,0-4,4.9-4,7.28s.81,7.35,4,7.35,4-5,4-7.35S264.39,208.86,261.23,208.86Z"/><path class="cls-1" d="M277.07,226.5V209.35h-3v-3.53h7V226.5Z"/></svg>