<svg id="Layer_1" data-name="Layer 1" xmlns="http://www.w3.org/2000/svg" viewBox="0 0 320 320"><defs><style>.cls-1{fill:#d80201;}</style></defs><title>text</title><path class="cls-1" d="M107.17,193.5h-6.94V172.82h5.11c1.68,0,3.72.15,5.06,1.24a5.53,5.53,0,0,1,1.86,4.25,4.32,4.32,0,0,1-2.27,4.15,4.77,4.77,0,0,1,2.7,1.3,5.61,5.61,0,0,1,1.49,3.88C114.18,191.76,110.89,193.5,107.17,193.5Zm-1.73-17.39h-1.18v5.33h1.14c1.8,0,3.14-.71,3.14-2.67S107.23,176.11,105.44,176.11Zm.68,8.4h-1.86v5.74H106c2,0,4-.47,4-2.89S108,184.51,106.12,184.51Z"/><path class="cls-1" d="M121.21,200.69H117l4.93-9.2-6.36-11.41h4.37l4,7.62,3.85-7.62h4.28Z"/><path class="cls-1" d="M146.36,198.37a7.34,7.34,0,0,1-5.71,2.35c-3.44,0-6.76-2-7.13-5.64h4.06a3,3,0,0,0,3.2,2.45c2.35,0,3.31-1.64,3.31-3.81v-2a5.56,5.56,0,0,1-4.52,2.23c-4,0-6.39-3.19-6.39-7s2.48-7.32,6.57-7.32a5,5,0,0,1,4.34,2.17v-1.73h3.79V193C147.88,195.11,147.78,196.69,146.36,198.37ZM140.81,183a3.77,3.77,0,1,0,3.75,3.75A3.75,3.75,0,0,0,140.81,183Z"/><path class="cls-1" d="M163.93,198.37a7.31,7.31,0,0,1-5.7,2.35c-3.44,0-6.76-2-7.13-5.64h4.06a3,3,0,0,0,3.19,2.45c2.36,0,3.32-1.64,3.32-3.81v-2a5.57,5.57,0,0,1-4.53,2.23c-4,0-6.38-3.19-6.38-7s2.48-7.32,6.57-7.32a5,5,0,0,1,4.34,2.17v-1.73h3.78V193C165.45,195.11,165.36,196.69,163.93,198.37ZM158.38,183a3.77,3.77,0,1,0,3.75,3.75A3.75,3.75,0,0,0,158.38,183Z"/><path class="cls-1" d="M186,193.5v-7.44c0-1.83-.4-3.23-2.54-3.23-2.32,0-2.88,1.71-2.88,3.73v6.94h-3.76V180.08h3.76v1.64a4.94,4.94,0,0,1,4.21-2.08,4.63,4.63,0,0,1,5,5.33v8.53Z"/><path class="cls-1" d="M196.54,200.69h-4.25l4.93-9.2-6.35-11.41h4.37l4,7.62,3.85-7.62h4.27Z"/><path class="cls-1" d="M213,183.3v10.2h-3.75V183.3h-1.49v-3.22h1.49v-4.59H213v4.59h2.64v3.22Z"/><path class="cls-1" d="M221.37,183.3v10.2h-3.75V183.3h-1.49v-3.22h1.49v-4.59h3.75v4.59H224v3.22Z"/><path class="cls-1" d="M130.39,226.5v-9.21h-8.74v9.21h-4V205.82h4v8h8.74v-8h4V226.5Z"/><path class="cls-1" d="M145.05,226.93c-3.69,0-6.48-1.64-6.48-5.64v-8.21h3.75v7.59c0,1.83.78,3.07,2.73,3.07s2.73-1.24,2.73-3.07v-7.59h3.78v8.21C151.56,225.29,148.74,226.93,145.05,226.93Z"/><path class="cls-1" d="M159.44,226.93a7.11,7.11,0,0,1-5.12-2.23l2-2.29a4.38,4.38,0,0,0,3.17,1.58,1.58,1.58,0,0,0,1.7-1.49c0-2.29-6-1.15-6-5.67,0-2.73,2.26-4.25,4.8-4.25a7,7,0,0,1,4.38,1.42l-1.86,2.21a3.76,3.76,0,0,0-2.24-.9c-.65,0-1.42.4-1.42,1.15,0,1.95,6.2,1.08,6.2,5.67C165.05,225.26,162.32,226.93,159.44,226.93Z"/><path class="cls-1" d="M184.64,226.5v-7.44c0-1.83-.4-3.23-2.54-3.23-2.33,0-2.89,1.71-2.89,3.73v6.94h-3.75V213.08h3.75v1.64a5,5,0,0,1,4.22-2.08,4.63,4.63,0,0,1,5,5.33v8.53Z"/><path class="cls-1" d="M198.46,226.93c-3.68,0-6.48-1.64-6.48-5.64v-8.21h3.76v7.59c0,1.83.77,3.07,2.72,3.07s2.73-1.24,2.73-3.07v-7.59H205v8.21C205,225.29,202.15,226.93,198.46,226.93Z"/></svg>