<svg id="Layer_1" data-name="Layer 1" xmlns="http://www.w3.org/2000/svg" viewBox="0 0 320 320"><defs><style>.cls-1{fill:#d4ac76;}</style></defs><title>text</title><path class="cls-1" d="M59.43,252.59l-3.32-8.5h1.34L60,250.62l2.55-6.53h1.31l-3.32,8.5Z"/><path class="cls-1" d="M70.94,252.59v-8.5h1.22l2.74,4.53,2.78-4.53h1.17v8.5H77.66v-6.28l0,0-2.73,4.39-2.69-4.33h-.07v6.24Z"/><path class="cls-1" d="M86.07,252.75A4.17,4.17,0,0,1,83,251.49a4.55,4.55,0,0,1,0-6.31,4.33,4.33,0,0,1,6.12,0,4.42,4.42,0,0,1-3.06,7.56Zm-2.22-2.09a3.08,3.08,0,0,0,4.45,0,3.24,3.24,0,0,0,.91-2.33,3.18,3.18,0,0,0-.92-2.31,3,3,0,0,0-4.44,0,3.39,3.39,0,0,0,0,4.64Zm1.43-7.47a.58.58,0,0,1-.43.18.56.56,0,0,1-.42-.18.7.7,0,0,1-.17-.47.69.69,0,0,1,.17-.46.56.56,0,0,1,.42-.18.58.58,0,0,1,.43.18.69.69,0,0,1,.17.46A.7.7,0,0,1,85.28,243.19Zm2.35,0a.58.58,0,0,1-.84,0,.65.65,0,0,1-.17-.47.64.64,0,0,1,.17-.46.58.58,0,0,1,.84,0,.64.64,0,0,1,.17.46A.65.65,0,0,1,87.63,243.19Z"/><path class="cls-1" d="M93.38,252.59v-8.5h1.19v7.37h3.5v1.13Z"/><path class="cls-1" d="M100.67,252.59v-8.5h1.19v7.37h3.5v1.13Z"/><path class="cls-1" d="M112.65,248.86h-3.49v2.6h3.74v1.13H108v-8.5h4.86v1.13h-3.67v2.51h3.49Z"/><path class="cls-1" d="M115.84,252.59v-8.5h2.28a4.22,4.22,0,0,1,4.21,4.23,4.17,4.17,0,0,1-4.25,4.27Zm2.33-7.37H117v6.24h1.17a2.79,2.79,0,0,0,2.1-.91,3.18,3.18,0,0,0,.85-2.23,3,3,0,0,0-.88-2.2A2.85,2.85,0,0,0,118.17,245.22Z"/><path class="cls-1" d="M124,252.59l3.41-8.5h1.07l3.35,8.5h-1.31l-.52-1.31h-4.16l-.53,1.31Zm4-6.55-1.66,4.11h3.27Z"/><path class="cls-1" d="M134.21,252.59v-8.5h1.19v7.37h3.5v1.13Z"/><path class="cls-1" d="M143.72,252.7a3.89,3.89,0,0,1-1.59-.34,4.4,4.4,0,0,1-1.35-.91l.84-1a3.31,3.31,0,0,0,1,.78,2.57,2.57,0,0,0,1.18.31,1.66,1.66,0,0,0,1.1-.36,1.16,1.16,0,0,0,.42-.91,1.49,1.49,0,0,0-1.07-1.39l-1-.4a3.46,3.46,0,0,1-1.39-.91,2,2,0,0,1-.46-1.35,2.16,2.16,0,0,1,.71-1.61,2.41,2.41,0,0,1,1.73-.66,3.44,3.44,0,0,1,2.47.94l-.72,1a2.34,2.34,0,0,0-1.75-.77,1.32,1.32,0,0,0-.9.3,1,1,0,0,0-.35.79.92.92,0,0,0,.26.65,2.36,2.36,0,0,0,.86.53l1,.41a2.42,2.42,0,0,1,1.79,2.43,2.34,2.34,0,0,1-.75,1.79A2.86,2.86,0,0,1,143.72,252.7Z"/><path class="cls-1" d="M151.6,252.59l-3.32-8.5h1.34l2.55,6.53,2.55-6.53H156l-3.33,8.5Z"/><path class="cls-1" d="M158,252.51a.69.69,0,0,1-.51.21.67.67,0,0,1-.5-.21.65.65,0,0,1-.2-.5.66.66,0,0,1,.2-.51.64.64,0,0,1,.5-.21.69.69,0,0,1,.51.21.66.66,0,0,1,.21.51A.66.66,0,0,1,158,252.51Z"/><path class="cls-1" d="M166.76,252.59v-7l-1.59.81v-1.13l2.25-1.25H168v8.55Z"/><path class="cls-1" d="M170.62,250.64v-.74l3-5.81h1.25l-2.8,5.5h1.84v-1.43h1.19v1.43h1v1h-1v2h-1.19v-2Z"/><path class="cls-1" d="M177.84,252.59l3.41-8.5h1.08l3.35,8.5h-1.32l-.51-1.31h-4.17l-.53,1.31Zm3.95-6.55-1.65,4.11h3.26Z"/><path class="cls-1" d="M187.46,254.15l1-2.72,1.09.38-1.34,2.62Z"/><path class="cls-1" d="M202.32,252.59v-3.68h-4.13v3.68H197v-8.5h1.19v3.68h4.13v-3.68h1.19v8.5Z"/><path class="cls-1" d="M210.79,252.75a4.2,4.2,0,0,1-3.07-1.26,4.58,4.58,0,0,1,0-6.31,4.35,4.35,0,0,1,6.13,0,4.53,4.53,0,0,1,0,6.29A4.21,4.21,0,0,1,210.79,252.75Zm-2.23-2.09a3.08,3.08,0,0,0,4.45,0,3.39,3.39,0,0,0,0-4.64,3.06,3.06,0,0,0-4.45,0,3.41,3.41,0,0,0,0,4.64Zm1.43-7.47a.58.58,0,0,1-.84,0,.7.7,0,0,1-.17-.47.69.69,0,0,1,.17-.46.58.58,0,0,1,.84,0,.65.65,0,0,1,.18.46A.66.66,0,0,1,210,243.19Zm2.36,0a.54.54,0,0,1-.42.18.58.58,0,0,1-.43-.18.7.7,0,0,1-.17-.47.69.69,0,0,1,.17-.46.58.58,0,0,1,.43-.18.54.54,0,0,1,.42.18.69.69,0,0,1,.17.46A.7.7,0,0,1,212.35,243.19Z"/><path class="cls-1" d="M218.1,252.59v-8.5h1.19v7.37h3.49v1.13Z"/><path class="cls-1" d="M225.39,252.59v-8.5h1.19v7.37h3.5v1.13Z"/><path class="cls-1" d="M233.88,252.59l-3.32-8.5h1.34l2.54,6.53,2.56-6.53h1.31l-3.33,8.5Z"/><path class="cls-1" d="M240.65,252.59v-8.5h1.19v8.5Z"/><path class="cls-1" d="M245.32,252.59v-8.5h1.19v4l3.54-4h1.6l-3,3.37,3.08,5.13h-1.48l-2.47-4.15-1.27,1.43v2.72Z"/><path class="cls-1" d="M259,248.86h-3.5v2.6h3.74v1.13h-4.93v-8.5h4.86v1.13H255.5v2.51H259Z"/><path class="cls-1" d="M262.19,252.59v-8.5H263l4.6,5.86v-5.86h1.19v8.5h-.66l-4.78-6.07v6.07Z"/><path class="cls-1" d="M70,265.7a3.89,3.89,0,0,1-1.59-.34,4.17,4.17,0,0,1-1.35-.91l.84-1a3.19,3.19,0,0,0,1,.78,2.56,2.56,0,0,0,1.17.31,1.64,1.64,0,0,0,1.1-.36,1.14,1.14,0,0,0,.43-.91,1.49,1.49,0,0,0-1.08-1.39l-1-.4a3.39,3.39,0,0,1-1.39-.91,2,2,0,0,1-.46-1.35,2.15,2.15,0,0,1,.7-1.61,2.45,2.45,0,0,1,1.74-.66,3.46,3.46,0,0,1,2.47.94l-.72,1a2.34,2.34,0,0,0-1.75-.77,1.32,1.32,0,0,0-.9.3,1,1,0,0,0-.35.79.91.91,0,0,0,.25.65,2.41,2.41,0,0,0,.87.53l1,.41a2.43,2.43,0,0,1,1.79,2.43A2.31,2.31,0,0,1,72,265,2.85,2.85,0,0,1,70,265.7Z"/><path class="cls-1" d="M79.6,265.75a4.2,4.2,0,0,1-3.07-1.26,4.58,4.58,0,0,1,0-6.31,4.35,4.35,0,0,1,6.13,0,4.53,4.53,0,0,1,0,6.29A4.21,4.21,0,0,1,79.6,265.75Zm-2.23-2.09a3.08,3.08,0,0,0,4.45,0,3.39,3.39,0,0,0,0-4.64,3.06,3.06,0,0,0-4.45,0,3.41,3.41,0,0,0,0,4.64Zm1.43-7.47a.58.58,0,0,1-.84,0,.7.7,0,0,1-.17-.47.69.69,0,0,1,.17-.46.58.58,0,0,1,.84,0,.65.65,0,0,1,.18.46A.66.66,0,0,1,78.8,256.19Zm2.36,0a.54.54,0,0,1-.42.18.58.58,0,0,1-.43-.18.7.7,0,0,1-.17-.47.69.69,0,0,1,.17-.46.58.58,0,0,1,.43-.18.54.54,0,0,1,.42.18.69.69,0,0,1,.17.46A.7.7,0,0,1,81.16,256.19Z"/><path class="cls-1" d="M86.91,265.59v-8.5h.83l4.6,5.86v-5.86h1.19v8.5h-.66l-4.77-6.07v6.07Z"/><path class="cls-1" d="M97.08,265.59v-8.5h2.28a4.22,4.22,0,0,1,4.21,4.23,4.17,4.17,0,0,1-4.25,4.27Zm2.33-7.37H98.27v6.24h1.17a2.79,2.79,0,0,0,2.1-.91,3.17,3.17,0,0,0,.84-2.23,3,3,0,0,0-.87-2.2A2.85,2.85,0,0,0,99.41,258.22Z"/><path class="cls-1" d="M105.26,265.59l3.41-8.5h1.07l3.35,8.5h-1.31l-.52-1.31H107.1l-.53,1.31Zm3.95-6.55-1.66,4.11h3.27Z"/><path class="cls-1" d="M120.6,261.89v-1.13h2.83v.6a4.37,4.37,0,0,1-4.4,4.37,4.15,4.15,0,0,1-3.1-1.27,4.57,4.57,0,0,1,0-6.28,4.18,4.18,0,0,1,3.1-1.27,4.51,4.51,0,0,1,1.79.36,4.27,4.27,0,0,1,1.45,1l-.88.9a3.09,3.09,0,0,0-4.62-.14,3.43,3.43,0,0,0,0,4.63,3,3,0,0,0,2.26,1,3.07,3.07,0,0,0,2-.74,3.25,3.25,0,0,0,1.07-2Z"/><path class="cls-1" d="M132.88,265.72A2.61,2.61,0,0,1,131,265a2.34,2.34,0,0,1-.79-1.73h1.18a1.24,1.24,0,0,0,.45.93,1.51,1.51,0,0,0,2,0,1.35,1.35,0,0,0,.42-1,1.42,1.42,0,0,0-.42-1.05,1.41,1.41,0,0,0-1-.41h-.49v-1.06h.48a1.34,1.34,0,0,0,1-.39,1.34,1.34,0,0,0,0-1.89,1.4,1.4,0,0,0-1-.38,1.33,1.33,0,0,0-1,.39,1.27,1.27,0,0,0-.4.95h-1.19a2.24,2.24,0,0,1,.74-1.7,2.61,2.61,0,0,1,1.83-.7,2.54,2.54,0,0,1,1.84.7,2.21,2.21,0,0,1,.73,1.7,1.93,1.93,0,0,1-.36,1.14,2,2,0,0,1-.94.72,2,2,0,0,1,1,.76,2.13,2.13,0,0,1,.37,1.23,2.41,2.41,0,0,1-.78,1.8A2.63,2.63,0,0,1,132.88,265.72Z"/><path class="cls-1" d="M143,265.59v-8.5h4.64v1.13h-3.45v2.67h3.06V262h-3.06v3.56Z"/><path class="cls-1" d="M154.92,261.86h-3.5v2.6h3.74v1.13h-4.93v-8.5h4.87v1.13h-3.68v2.51h3.5Z"/><path class="cls-1" d="M158.11,265.59v-8.5h2.6a2.73,2.73,0,0,1,1.88.66,2.18,2.18,0,0,1,.74,1.71,2,2,0,0,1-1,1.83,2.15,2.15,0,0,1,.92.76,2.07,2.07,0,0,1,.34,1.15,2.21,2.21,0,0,1-.75,1.74,2.78,2.78,0,0,1-1.89.65Zm2.48-7.37H159.3v2.59h1.51a1.31,1.31,0,0,0,.95-.38,1.33,1.33,0,0,0,.38-1,1.07,1.07,0,0,0-.43-.89A1.72,1.72,0,0,0,160.59,258.22Zm.27,3.64H159.3v2.6h1.48a1.78,1.78,0,0,0,1.17-.36,1.22,1.22,0,0,0,.43-1,1.18,1.18,0,0,0-.39-.91A1.66,1.66,0,0,0,160.86,261.86Z"/><path class="cls-1" d="M166.55,265.59v-8.5h3.15a2.68,2.68,0,0,1,1.92.74,2.55,2.55,0,0,1,.77,1.92,2.52,2.52,0,0,1-.64,1.77,2.47,2.47,0,0,1-1.62.84l2.46,3.23h-1.47l-2.44-3.24h-.94v3.24Zm3-7.37h-1.81v3.07h1.79a1.73,1.73,0,0,0,1.21-.42,1.43,1.43,0,0,0,.46-1.12,1.46,1.46,0,0,0-.47-1.09A1.67,1.67,0,0,0,169.55,258.22Z"/><path class="cls-1" d="M178.26,265.73a3,3,0,0,1-2.22-.89,3.07,3.07,0,0,1-.87-2.24v-5.51h1.19v5.44a2.16,2.16,0,0,0,.51,1.48,1.72,1.72,0,0,0,1.39.59,1.76,1.76,0,0,0,1.4-.58,2.11,2.11,0,0,0,.52-1.48v-5.45h1.18v5.51a3.06,3.06,0,0,1-.86,2.24A3,3,0,0,1,178.26,265.73Z"/><path class="cls-1" d="M183.42,265.59l3.42-8.5h1.07l3.35,8.5h-1.32l-.51-1.31h-4.17l-.52,1.31Zm4-6.55-1.65,4.11H189Z"/><path class="cls-1" d="M193.62,265.59v-8.5h3.15a2.66,2.66,0,0,1,1.92.74,2.55,2.55,0,0,1,.77,1.92,2.52,2.52,0,0,1-.64,1.77,2.47,2.47,0,0,1-1.62.84l2.46,3.23h-1.47l-2.44-3.24h-.94v3.24Zm3-7.37h-1.81v3.07h1.8a1.72,1.72,0,0,0,1.2-.42,1.43,1.43,0,0,0,.46-1.12,1.46,1.46,0,0,0-.47-1.09A1.67,1.67,0,0,0,196.62,258.22Z"/><path class="cls-1" d="M202.44,265.59v-8.5h1.19v8.5Z"/><path class="cls-1" d="M211.71,265.59v-8.5h1.19v4l3.54-4H218l-3,3.37,3.07,5.13h-1.47l-2.47-4.15-1.27,1.43v2.72Z"/><path class="cls-1" d="M220.7,265.59v-8.5h1.19v7.37h3.5v1.13Z"/><path class="cls-1" d="M233.56,265.59v-7l-1.6.81v-1.13l2.26-1.25h.53v8.55Z"/><path class="cls-1" d="M239.05,265.59v-7l-1.6.81v-1.13l2.26-1.25h.53v8.55Z"/><path class="cls-1" d="M243.13,261.88v-1.05h3.32v1.05Z"/><path class="cls-1" d="M249.67,265.59v-7l-1.59.81v-1.13l2.26-1.25h.52v8.55Z"/><path class="cls-1" d="M256.12,265.72a2.61,2.61,0,0,1-1.85-.72,2.34,2.34,0,0,1-.79-1.73h1.19a1.2,1.2,0,0,0,.44.93,1.44,1.44,0,0,0,1,.39,1.42,1.42,0,0,0,1.06-.41,1.35,1.35,0,0,0,.42-1,1.4,1.4,0,0,0-1.45-1.46h-.48v-1.06h.47a1.34,1.34,0,0,0,1-.39,1.3,1.3,0,0,0,.4-.93,1.25,1.25,0,0,0-.4-1,1.38,1.38,0,0,0-1-.38,1.33,1.33,0,0,0-1,.39,1.3,1.3,0,0,0-.39.95h-1.19a2.24,2.24,0,0,1,.73-1.7,2.62,2.62,0,0,1,1.84-.7,2.54,2.54,0,0,1,1.83.7,2.21,2.21,0,0,1,.73,1.7,1.93,1.93,0,0,1-.36,1.14,2.06,2.06,0,0,1-.93.72,2,2,0,0,1,1,.76,2.06,2.06,0,0,1,.37,1.23A2.41,2.41,0,0,1,258,265,2.63,2.63,0,0,1,256.12,265.72Z"/></svg>