<svg id="Layer_1" data-name="Layer 1" xmlns="http://www.w3.org/2000/svg" viewBox="0 0 320 320"><defs><style>.cls-1{fill:#d80201;}</style></defs><title>text</title><path class="cls-1" d="M99.55,247.29v-8.67H104v.91h-3.53v2.57H104v.9h-3.44v3.39H104v.9Z"/><path class="cls-1" d="M109,247.29V244.1c0-.84-.11-1.51-1.13-1.51-1.19,0-1.34,1-1.34,2v2.71h-.92v-5.4h.92v.65a1.83,1.83,0,0,1,1.56-.78,1.86,1.86,0,0,1,1.54.74,2.53,2.53,0,0,1,.31,1.43v3.36Z"/><path class="cls-1" d="M113.12,247.44a1.92,1.92,0,0,1-1.88-1.38l.8-.33a1.21,1.21,0,0,0,1.1.87.84.84,0,0,0,.88-.85c0-1.17-2.43-.8-2.43-2.48a1.51,1.51,0,0,1,1.57-1.51,1.61,1.61,0,0,1,1.48,1l-.76.4a.87.87,0,0,0-.76-.53.65.65,0,0,0-.65.59c0,1,2.5.71,2.5,2.47A1.77,1.77,0,0,1,113.12,247.44Z"/><path class="cls-1" d="M119.56,247.29l-2.19-2.46-.23.23v2.23h-.92v-9.48h.92v6.07l2-2h1.24L118,244.18l2.75,3.11Z"/><path class="cls-1" d="M122.16,240.51a.66.66,0,1,1,.66-.66A.67.67,0,0,1,122.16,240.51Zm-.47,6.78v-5.4h.92v5.4Z"/><path class="cls-1" d="M125.32,242.75v4.54h-.93v-4.54h-.5v-.86h.5v-2.3a3,3,0,0,1,.15-1,1.49,1.49,0,0,1,1.45-.9,2.55,2.55,0,0,1,.68.12v.94a1.67,1.67,0,0,0-.61-.13c-.68,0-.74.5-.74,1v2.26h1.35v.86Z"/><path class="cls-1" d="M128.8,242.75v4.54h-.94v-4.54h-.55v-.86h.55v-1.95h.94v1.95h.95v.86Z"/><path class="cls-1" d="M131.27,244.78A1.74,1.74,0,0,0,133,246.6a1.87,1.87,0,0,0,1.66-1.12l.78.43a2.7,2.7,0,0,1-2.47,1.53,2.85,2.85,0,0,1-.05-5.68,2.58,2.58,0,0,1,2.57,2.84v.18Zm1.66-2.17a1.67,1.67,0,0,0-1.6,1.39h3.18A1.62,1.62,0,0,0,132.93,242.61Z"/><path class="cls-1" d="M138.35,247.44a1.92,1.92,0,0,1-1.88-1.38l.81-.33c.22.48.52.87,1.09.87a.84.84,0,0,0,.88-.85c0-1.17-2.43-.8-2.43-2.48a1.52,1.52,0,0,1,1.57-1.51,1.64,1.64,0,0,1,1.49,1l-.77.4a.86.86,0,0,0-.76-.53.64.64,0,0,0-.64.59c0,1,2.49.71,2.49,2.47A1.77,1.77,0,0,1,138.35,247.44Z"/><path class="cls-1" d="M143.32,247.64l-2.65-5.75h1l1.61,3.63,1.6-3.63h1Z"/><path class="cls-1" d="M151.07,247.29v-.76a2.29,2.29,0,0,1-1.87.91,2.67,2.67,0,0,1-2.6-2.87,2.62,2.62,0,0,1,2.58-2.81,2.29,2.29,0,0,1,1.89.9v-.77H152v5.4Zm-1.74-4.7a1.84,1.84,0,0,0-1.78,2,1.86,1.86,0,0,0,1.78,2,1.84,1.84,0,0,0,1.79-2A1.82,1.82,0,0,0,149.33,242.59Zm-1.08-1.8a.66.66,0,0,1-.65-.65.65.65,0,1,1,1.3,0A.65.65,0,0,1,148.25,240.79Zm2.26,0a.66.66,0,0,1-.65-.65.65.65,0,1,1,.65.65Z"/><path class="cls-1" d="M158.3,249.29a2.63,2.63,0,0,1-2.16,1,2.43,2.43,0,0,1-2.63-2.47h.93a1.6,1.6,0,0,0,1.71,1.64c1.3,0,1.73-1,1.73-2.13v-.8a2.44,2.44,0,0,1-1.9.9,2.85,2.85,0,0,1,0-5.67,2.29,2.29,0,0,1,1.86.89v-.76h.94v5.28A3.29,3.29,0,0,1,158.3,249.29Zm-2.17-6.7a1.85,1.85,0,0,0-1.77,2,1.82,1.82,0,0,0,1.77,2,2,2,0,0,0,0-4Z"/><path class="cls-1" d="M161.21,244.78a1.74,1.74,0,0,0,1.71,1.82,1.87,1.87,0,0,0,1.67-1.12l.78.43a2.7,2.7,0,0,1-2.47,1.53,2.85,2.85,0,0,1-.05-5.68,2.58,2.58,0,0,1,2.57,2.84v.18Zm1.66-2.17a1.67,1.67,0,0,0-1.6,1.39h3.18A1.63,1.63,0,0,0,162.87,242.61Z"/><path class="cls-1" d="M170.23,247.29V244.1c0-.84-.12-1.51-1.13-1.51-1.2,0-1.34,1-1.34,2v2.71h-.92v-5.4h.92v.65a2,2,0,0,1,3.09,0,2.46,2.46,0,0,1,.32,1.43v3.36Z"/><path class="cls-1" d="M178.72,247.43a2.69,2.69,0,0,1-2-.86,2.22,2.22,0,0,1-.57-1.53h.93a1.71,1.71,0,0,0,.3.84,1.73,1.73,0,0,0,1.37.65,1.69,1.69,0,0,0,1.7-1.73c0-1.13-.79-1.63-1.85-1.63v-.85a2,2,0,0,0,1-.21,1.46,1.46,0,0,0,.69-1.27,1.5,1.5,0,0,0-2.67-.91,2,2,0,0,0-.28.83h-1a2.28,2.28,0,0,1,2.42-2.27,2.31,2.31,0,0,1,2.44,2.32,2.13,2.13,0,0,1-1.12,1.93,2.21,2.21,0,0,1,1.25,2.09A2.57,2.57,0,0,1,178.72,247.43Z"/><path class="cls-1" d="M183.59,249.26,183,249l1.07-3,.86.31Z"/><path class="cls-1" d="M191.81,243.49H191v3.8h-1v-8.67h1.58a3.15,3.15,0,0,1,2.18.61,2.42,2.42,0,0,1,.79,1.83C194.55,242.71,193.34,243.49,191.81,243.49Zm-.13-4H191v3.08h.8c1,0,1.84-.45,1.84-1.56S192.71,239.53,191.68,239.53Z"/><path class="cls-1" d="M199.47,247.29v-.76a2.31,2.31,0,0,1-1.88.91,2.67,2.67,0,0,1-2.59-2.87,2.62,2.62,0,0,1,2.58-2.81,2.29,2.29,0,0,1,1.89.9v-.77h.92v5.4Zm-1.75-4.7a1.85,1.85,0,0,0-1.78,2,1.86,1.86,0,0,0,1.78,2,1.85,1.85,0,0,0,1.8-2A1.82,1.82,0,0,0,197.72,242.59Z"/><path class="cls-1" d="M204.69,242.83a.8.8,0,0,0-.54-.18,1,1,0,0,0-.47.11c-.6.33-.6,1.09-.6,1.68v2.85h-.92v-5.4h.92v.59a1.45,1.45,0,0,1,1.22-.72,1.56,1.56,0,0,1,.83.22Z"/><path class="cls-1" d="M207.28,242.75v4.54h-.94v-4.54h-.56v-.86h.56v-1.95h.94v1.95h.95v.86Z"/><path class="cls-1" d="M209.59,240.51a.66.66,0,1,1,.67-.66A.67.67,0,0,1,209.59,240.51Zm-.46,6.78v-5.4h.92v5.4Z"/><path class="cls-1" d="M211.83,247.29v-9.48h.92v9.48Z"/><path class="cls-1" d="M214.52,247.29v-9.48h.92v9.48Z"/><path class="cls-1" d="M217.83,244.78a1.76,1.76,0,0,0,1.72,1.82,1.86,1.86,0,0,0,1.66-1.12l.79.43a2.7,2.7,0,0,1-2.47,1.53,2.85,2.85,0,0,1-.06-5.68,2.59,2.59,0,0,1,2.58,2.84v.18Zm1.67-2.17a1.65,1.65,0,0,0-1.6,1.39h3.17A1.61,1.61,0,0,0,219.5,242.61Z"/><path class="cls-1" d="M83.74,262.44a2.66,2.66,0,0,1-2.68-2.23L82,260a1.76,1.76,0,0,0,1.77,1.58,1.71,1.71,0,0,0,1.74-1.71c0-2-4-1.56-4-4.11a2.29,2.29,0,0,1,2.43-2.24,2.47,2.47,0,0,1,2.23,1.35l-.76.51a1.61,1.61,0,0,0-1.48-1,1.38,1.38,0,0,0-1.45,1.33c0,1.79,4,1.27,4,4.07A2.67,2.67,0,0,1,83.74,262.44Z"/><path class="cls-1" d="M90.53,262.44a2.84,2.84,0,1,1,2.85-2.83A2.82,2.82,0,0,1,90.53,262.44Zm0-4.83a2,2,0,1,0,1.91,2A1.89,1.89,0,0,0,90.52,257.61Zm-1.12-1.82a.66.66,0,0,1-.65-.65.65.65,0,0,1,1.3,0A.65.65,0,0,1,89.4,255.79Zm2.26,0a.66.66,0,0,1-.65-.65.65.65,0,1,1,.65.65Z"/><path class="cls-1" d="M98.19,262.29V259.1c0-.84-.12-1.51-1.13-1.51-1.2,0-1.34,1-1.34,2v2.71h-.93v-5.4h.93v.65a2,2,0,0,1,3.09,0,2.45,2.45,0,0,1,.31,1.43v3.36Z"/><path class="cls-1" d="M105,262.29v-.76a2.29,2.29,0,0,1-1.87.91,2.67,2.67,0,0,1-2.6-2.86,2.64,2.64,0,0,1,2.59-2.82,2.3,2.3,0,0,1,1.88.9v-4.85h.92v9.48Zm-1.74-4.68a1.83,1.83,0,0,0-1.78,2,1.8,1.8,0,1,0,3.57,0A1.8,1.8,0,0,0,103.27,257.61Z"/><path class="cls-1" d="M111.82,262.29v-.76a2.29,2.29,0,0,1-1.87.91,2.67,2.67,0,0,1-2.6-2.87,2.63,2.63,0,0,1,2.59-2.81,2.27,2.27,0,0,1,1.88.9v-.77h.93v5.4Zm-1.74-4.7a1.85,1.85,0,0,0-1.78,2,1.86,1.86,0,0,0,1.78,2,1.85,1.85,0,0,0,1.8-2A1.83,1.83,0,0,0,110.08,257.59Z"/><path class="cls-1" d="M119.05,264.29a2.63,2.63,0,0,1-2.16,1,2.42,2.42,0,0,1-2.62-2.47h.92a1.62,1.62,0,0,0,1.72,1.64c1.3,0,1.72-1,1.72-2.13v-.8a2.43,2.43,0,0,1-1.89.9,2.65,2.65,0,0,1-2.58-2.82,2.68,2.68,0,0,1,2.62-2.85,2.29,2.29,0,0,1,1.85.89v-.76h.94v5.28A3.29,3.29,0,0,1,119.05,264.29Zm-2.17-6.7a1.86,1.86,0,0,0-1.77,2,1.82,1.82,0,0,0,1.77,2,2,2,0,0,0,0-4Z"/><path class="cls-1" d="M127.12,262.43a2.71,2.71,0,0,1-2-.86,2.32,2.32,0,0,1-.57-1.53h.94a1.6,1.6,0,0,0,.29.84,1.75,1.75,0,0,0,1.37.65,1.69,1.69,0,0,0,1.7-1.73c0-1.13-.79-1.63-1.84-1.63v-.85a2,2,0,0,0,1-.21,1.49,1.49,0,1,0-2-2.18,2,2,0,0,0-.29.83h-1a2.29,2.29,0,0,1,2.42-2.27,2.31,2.31,0,0,1,2.44,2.32,2.14,2.14,0,0,1-1.11,1.93,2.2,2.2,0,0,1,1.24,2.09A2.57,2.57,0,0,1,127.12,262.43Z"/><path class="cls-1" d="M137.63,259.71c-.38,1.33-1.35,2.72-2.88,2.72s-2.43-1.33-2.82-2.6a6.54,6.54,0,0,1-.27-1.86,7,7,0,0,1,.23-1.77c.38-1.32,1.36-2.71,2.88-2.71s2.43,1.31,2.82,2.58a6.54,6.54,0,0,1,.27,1.86A7.12,7.12,0,0,1,137.63,259.71Zm-2.9-5.34c-1.11,0-1.73,1.26-1.95,2.18a6.22,6.22,0,0,0,0,2.93c.25.92.88,2,2,2s1.7-1.18,1.95-2.09a5.71,5.71,0,0,0,.18-1.48C136.9,256.68,136.37,254.37,134.73,254.37Z"/><path class="cls-1" d="M144,262.44a1.93,1.93,0,0,1-1.89-1.38l.81-.33c.22.48.52.87,1.09.87a.84.84,0,0,0,.88-.85c0-1.17-2.43-.8-2.43-2.48a1.52,1.52,0,0,1,1.58-1.51,1.62,1.62,0,0,1,1.48,1l-.77.4a.86.86,0,0,0-.75-.53.64.64,0,0,0-.65.59c0,.95,2.49.71,2.49,2.47A1.77,1.77,0,0,1,144,262.44Z"/><path class="cls-1" d="M147.75,259.78a1.76,1.76,0,0,0,1.72,1.82,1.86,1.86,0,0,0,1.66-1.12l.78.43a2.68,2.68,0,0,1-2.47,1.53,2.85,2.85,0,0,1-.05-5.68A2.59,2.59,0,0,1,152,259.6v.18Zm1.67-2.17a1.65,1.65,0,0,0-1.6,1.39H151A1.62,1.62,0,0,0,149.42,257.61Z"/><path class="cls-1" d="M156.19,262.44a2.31,2.31,0,0,1-1.88-.91v3.8h-.93v-8.44h.93v.76a2.31,2.31,0,0,1,1.87-.89,2.67,2.67,0,0,1,2.6,2.86A2.64,2.64,0,0,1,156.19,262.44Zm-.14-4.85a1.86,1.86,0,0,0-1.8,2,1.8,1.8,0,1,0,3.58,0A1.86,1.86,0,0,0,156.05,257.59Z"/><path class="cls-1" d="M161.13,257.75v4.54h-.94v-4.54h-.55v-.86h.55v-1.95h.94v1.95h1v.86Z"/><path class="cls-1" d="M163.6,259.78a1.74,1.74,0,0,0,1.72,1.82,1.87,1.87,0,0,0,1.66-1.12l.78.43a2.7,2.7,0,0,1-2.47,1.53,2.85,2.85,0,0,1,0-5.68,2.58,2.58,0,0,1,2.57,2.84v.18Zm1.66-2.17a1.65,1.65,0,0,0-1.59,1.39h3.17A1.62,1.62,0,0,0,165.26,257.61Z"/><path class="cls-1" d="M175.38,262.29V259c0-.69-.12-1.42-1-1.42s-1.15.91-1.15,1.69v3h-.93v-3.2c0-.68-.14-1.5-1-1.5a1.12,1.12,0,0,0-1,.59,2.59,2.59,0,0,0-.21,1.17v2.94h-.92v-5.4h.92v.57a1.55,1.55,0,0,1,1.34-.7,1.63,1.63,0,0,1,1.48.87,1.75,1.75,0,0,1,1.58-.87,1.72,1.72,0,0,1,1.45.73,2.52,2.52,0,0,1,.3,1.38v3.42Z"/><path class="cls-1" d="M180.86,262.44a2.3,2.3,0,0,1-1.87-.91v.76h-.92v-9.48H179v4.85a2.33,2.33,0,0,1,1.89-.9,2.64,2.64,0,0,1,2.58,2.82A2.67,2.67,0,0,1,180.86,262.44Zm-.13-4.83a1.82,1.82,0,0,0-1.79,2,1.79,1.79,0,1,0,1.79-2Z"/><path class="cls-1" d="M185.5,259.78a1.76,1.76,0,0,0,1.72,1.82,1.86,1.86,0,0,0,1.66-1.12l.79.43a2.7,2.7,0,0,1-2.47,1.53,2.85,2.85,0,0,1-.06-5.68,2.59,2.59,0,0,1,2.58,2.84v.18Zm1.67-2.17a1.65,1.65,0,0,0-1.6,1.39h3.17A1.61,1.61,0,0,0,187.17,257.61Z"/><path class="cls-1" d="M193.67,257.83a.83.83,0,0,0-.55-.18,1,1,0,0,0-.46.11c-.6.33-.6,1.09-.6,1.68v2.85h-.93v-5.4h.93v.59a1.44,1.44,0,0,1,1.22-.72,1.56,1.56,0,0,1,.83.22Z"/><path class="cls-1" d="M201.56,262.29l-2.18-2.46-.24.23v2.23h-.92v-9.48h.92v6.07l2-2h1.24L200,259.18l2.74,3.11Z"/><path class="cls-1" d="M203.69,262.29v-9.48h.92v9.48Z"/><path class="cls-1" d="M212.19,262.29v-7.76h-1.44l.51-.91h1.9v8.67Z"/><path class="cls-1" d="M220.51,259.36l-1.78,2h3.64v.9h-5.6l3.16-3.66c.58-.67,1.49-1.65,1.49-2.58a1.73,1.73,0,1,0-3.45.1h-1a4.22,4.22,0,0,1,.18-1,2.71,2.71,0,0,1,5.22.89C222.39,257.36,221.32,258.45,220.51,259.36Z"/><path class="cls-1" d="M223.49,259.93v-.83h2.35v.83Z"/><path class="cls-1" d="M229.29,262.29v-7.76h-1.45l.51-.91h1.9v8.67Z"/><path class="cls-1" d="M236.91,262.43a3,3,0,0,1-3-2.94,3.46,3.46,0,0,1,.72-2l2.95-4.09.73.54-2,2.77a2.65,2.65,0,0,1,.79-.11,2.81,2.81,0,0,1,2.78,2.85A3,3,0,0,1,236.91,262.43Zm0-5a2,2,0,1,0,2,2A2,2,0,0,0,236.89,257.46Z"/></svg>