<svg id="Layer_1" data-name="Layer 1" xmlns="http://www.w3.org/2000/svg" viewBox="0 0 320 320"><defs><style>.cls-1{fill:#d80201;}</style></defs><title>text</title><path class="cls-1" d="M99.55,247.29v-8.67H104v.91h-3.53v2.57H104v.9h-3.44v3.39H104v.9Z"/><path class="cls-1" d="M109,247.29V244.1c0-.84-.11-1.51-1.13-1.51-1.19,0-1.34,1-1.34,2v2.71h-.92v-5.4h.92v.65a1.83,1.83,0,0,1,1.56-.78,1.86,1.86,0,0,1,1.54.74,2.53,2.53,0,0,1,.31,1.43v3.36Z"/><path class="cls-1" d="M113.12,247.44a1.92,1.92,0,0,1-1.88-1.38l.8-.33a1.21,1.21,0,0,0,1.1.87.84.84,0,0,0,.88-.85c0-1.17-2.43-.8-2.43-2.48a1.51,1.51,0,0,1,1.57-1.51,1.61,1.61,0,0,1,1.48,1l-.76.4a.87.87,0,0,0-.76-.53.65.65,0,0,0-.65.59c0,1,2.5.71,2.5,2.47A1.77,1.77,0,0,1,113.12,247.44Z"/><path class="cls-1" d="M119.56,247.29l-2.19-2.46-.23.23v2.23h-.92v-9.48h.92v6.07l2-2h1.24L118,244.18l2.75,3.11Z"/><path class="cls-1" d="M122.16,240.51a.66.66,0,1,1,.66-.66A.67.67,0,0,1,122.16,240.51Zm-.47,6.78v-5.4h.92v5.4Z"/><path class="cls-1" d="M125.32,242.75v4.54h-.93v-4.54h-.5v-.86h.5v-2.3a3,3,0,0,1,.15-1,1.49,1.49,0,0,1,1.45-.9,2.55,2.55,0,0,1,.68.12v.94a1.67,1.67,0,0,0-.61-.13c-.68,0-.74.5-.74,1v2.26h1.35v.86Z"/><path class="cls-1" d="M128.8,242.75v4.54h-.94v-4.54h-.55v-.86h.55v-1.95h.94v1.95h.95v.86Z"/><path class="cls-1" d="M131.27,244.78A1.74,1.74,0,0,0,133,246.6a1.87,1.87,0,0,0,1.66-1.12l.78.43a2.7,2.7,0,0,1-2.47,1.53,2.85,2.85,0,0,1-.05-5.68,2.58,2.58,0,0,1,2.57,2.84v.18Zm1.66-2.17a1.67,1.67,0,0,0-1.6,1.39h3.18A1.62,1.62,0,0,0,132.93,242.61Z"/><path class="cls-1" d="M138.35,247.44a1.92,1.92,0,0,1-1.88-1.38l.81-.33c.22.48.52.87,1.09.87a.84.84,0,0,0,.88-.85c0-1.17-2.43-.8-2.43-2.48a1.52,1.52,0,0,1,1.57-1.51,1.64,1.64,0,0,1,1.49,1l-.77.4a.86.86,0,0,0-.76-.53.64.64,0,0,0-.64.59c0,1,2.49.71,2.49,2.47A1.77,1.77,0,0,1,138.35,247.44Z"/><path class="cls-1" d="M143.32,247.64l-2.65-5.75h1l1.61,3.63,1.6-3.63h1Z"/><path class="cls-1" d="M151.07,247.29v-.76a2.29,2.29,0,0,1-1.87.91,2.67,2.67,0,0,1-2.6-2.87,2.62,2.62,0,0,1,2.58-2.81,2.29,2.29,0,0,1,1.89.9v-.77H152v5.4Zm-1.74-4.7a1.84,1.84,0,0,0-1.78,2,1.86,1.86,0,0,0,1.78,2,1.84,1.84,0,0,0,1.79-2A1.82,1.82,0,0,0,149.33,242.59Zm-1.08-1.8a.66.66,0,0,1-.65-.65.65.65,0,1,1,1.3,0A.65.65,0,0,1,148.25,240.79Zm2.26,0a.66.66,0,0,1-.65-.65.65.65,0,1,1,.65.65Z"/><path class="cls-1" d="M158.3,249.29a2.63,2.63,0,0,1-2.16,1,2.43,2.43,0,0,1-2.63-2.47h.93a1.6,1.6,0,0,0,1.71,1.64c1.3,0,1.73-1,1.73-2.13v-.8a2.44,2.44,0,0,1-1.9.9,2.85,2.85,0,0,1,0-5.67,2.29,2.29,0,0,1,1.86.89v-.76h.94v5.28A3.29,3.29,0,0,1,158.3,249.29Zm-2.17-6.7a1.85,1.85,0,0,0-1.77,2,1.82,1.82,0,0,0,1.77,2,2,2,0,0,0,0-4Z"/><path class="cls-1" d="M161.21,244.78a1.74,1.74,0,0,0,1.71,1.82,1.87,1.87,0,0,0,1.67-1.12l.78.43a2.7,2.7,0,0,1-2.47,1.53,2.85,2.85,0,0,1-.05-5.68,2.58,2.58,0,0,1,2.57,2.84v.18Zm1.66-2.17a1.67,1.67,0,0,0-1.6,1.39h3.18A1.63,1.63,0,0,0,162.87,242.61Z"/><path class="cls-1" d="M170.23,247.29V244.1c0-.84-.12-1.51-1.13-1.51-1.2,0-1.34,1-1.34,2v2.71h-.92v-5.4h.92v.65a2,2,0,0,1,3.09,0,2.46,2.46,0,0,1,.32,1.43v3.36Z"/><path class="cls-1" d="M178.72,247.43a2.69,2.69,0,0,1-2-.86,2.22,2.22,0,0,1-.57-1.53h.93a1.71,1.71,0,0,0,.3.84,1.73,1.73,0,0,0,1.37.65,1.69,1.69,0,0,0,1.7-1.73c0-1.13-.79-1.63-1.85-1.63v-.85a2,2,0,0,0,1-.21,1.46,1.46,0,0,0,.69-1.27,1.5,1.5,0,0,0-2.67-.91,2,2,0,0,0-.28.83h-1a2.28,2.28,0,0,1,2.42-2.27,2.31,2.31,0,0,1,2.44,2.32,2.13,2.13,0,0,1-1.12,1.93,2.21,2.21,0,0,1,1.25,2.09A2.57,2.57,0,0,1,178.72,247.43Z"/><path class="cls-1" d="M183.59,249.26,183,249l1.07-3,.86.31Z"/><path class="cls-1" d="M191.81,243.49H191v3.8h-1v-8.67h1.58a3.15,3.15,0,0,1,2.18.61,2.42,2.42,0,0,1,.79,1.83C194.55,242.71,193.34,243.49,191.81,243.49Zm-.13-4H191v3.08h.8c1,0,1.84-.45,1.84-1.56S192.71,239.53,191.68,239.53Z"/><path class="cls-1" d="M199.47,247.29v-.76a2.31,2.31,0,0,1-1.88.91,2.67,2.67,0,0,1-2.59-2.87,2.62,2.62,0,0,1,2.58-2.81,2.29,2.29,0,0,1,1.89.9v-.77h.92v5.4Zm-1.75-4.7a1.85,1.85,0,0,0-1.78,2,1.86,1.86,0,0,0,1.78,2,1.85,1.85,0,0,0,1.8-2A1.82,1.82,0,0,0,197.72,242.59Z"/><path class="cls-1" d="M204.69,242.83a.8.8,0,0,0-.54-.18,1,1,0,0,0-.47.11c-.6.33-.6,1.09-.6,1.68v2.85h-.92v-5.4h.92v.59a1.45,1.45,0,0,1,1.22-.72,1.56,1.56,0,0,1,.83.22Z"/><path class="cls-1" d="M207.28,242.75v4.54h-.94v-4.54h-.56v-.86h.56v-1.95h.94v1.95h.95v.86Z"/><path class="cls-1" d="M209.59,240.51a.66.66,0,1,1,.67-.66A.67.67,0,0,1,209.59,240.51Zm-.46,6.78v-5.4h.92v5.4Z"/><path class="cls-1" d="M211.83,247.29v-9.48h.92v9.48Z"/><path class="cls-1" d="M214.52,247.29v-9.48h.92v9.48Z"/><path class="cls-1" d="M217.83,244.78a1.76,1.76,0,0,0,1.72,1.82,1.86,1.86,0,0,0,1.66-1.12l.79.43a2.7,2.7,0,0,1-2.47,1.53,2.85,2.85,0,0,1-.06-5.68,2.59,2.59,0,0,1,2.58,2.84v.18Zm1.67-2.17a1.65,1.65,0,0,0-1.6,1.39h3.17A1.61,1.61,0,0,0,219.5,242.61Z"/><path class="cls-1" d="M102.2,262.44a2.65,2.65,0,0,1-2.68-2.23l.93-.26a1.77,1.77,0,0,0,1.77,1.58,1.71,1.71,0,0,0,1.74-1.71c0-2-4-1.56-4-4.11a2.29,2.29,0,0,1,2.43-2.24,2.5,2.5,0,0,1,2.24,1.35l-.77.51a1.61,1.61,0,0,0-1.48-1,1.37,1.37,0,0,0-1.44,1.33c0,1.79,4,1.27,4,4.07A2.67,2.67,0,0,1,102.2,262.44Z"/><path class="cls-1" d="M109,262.44a2.84,2.84,0,1,1,2.85-2.83A2.82,2.82,0,0,1,109,262.44Zm0-4.83a2,2,0,1,0,1.91,2A1.89,1.89,0,0,0,109,257.61Zm-1.12-1.82a.66.66,0,0,1-.65-.65.65.65,0,1,1,.65.65Zm2.26,0a.66.66,0,0,1-.65-.65.65.65,0,1,1,.65.65Z"/><path class="cls-1" d="M116.64,262.29V259.1c0-.84-.12-1.51-1.13-1.51-1.2,0-1.34,1-1.34,2v2.71h-.92v-5.4h.92v.65a2,2,0,0,1,3.09,0,2.46,2.46,0,0,1,.32,1.43v3.36Z"/><path class="cls-1" d="M123.46,262.29v-.76a2.29,2.29,0,0,1-1.87.91,2.67,2.67,0,0,1-2.6-2.86,2.64,2.64,0,0,1,2.59-2.82,2.3,2.3,0,0,1,1.88.9v-4.85h.93v9.48Zm-1.74-4.68a2,2,0,1,0,1.8,2A1.81,1.81,0,0,0,121.72,257.61Z"/><path class="cls-1" d="M130.28,262.29v-.76a2.32,2.32,0,0,1-1.88.91,2.67,2.67,0,0,1-2.6-2.87,2.63,2.63,0,0,1,2.59-2.81,2.3,2.3,0,0,1,1.89.9v-.77h.92v5.4Zm-1.75-4.7a1.85,1.85,0,0,0-1.78,2,1.86,1.86,0,0,0,1.78,2,1.85,1.85,0,0,0,1.8-2A1.82,1.82,0,0,0,128.53,257.59Z"/><path class="cls-1" d="M137.5,264.29a2.59,2.59,0,0,1-2.15,1,2.43,2.43,0,0,1-2.63-2.47h.92a1.62,1.62,0,0,0,1.72,1.64c1.3,0,1.73-1,1.73-2.13v-.8a2.45,2.45,0,0,1-1.9.9,2.85,2.85,0,0,1,0-5.67,2.31,2.31,0,0,1,1.86.89v-.76H138v5.28A3.29,3.29,0,0,1,137.5,264.29Zm-2.17-6.7a1.86,1.86,0,0,0-1.77,2,1.83,1.83,0,0,0,1.77,2,2,2,0,0,0,0-4Z"/><path class="cls-1" d="M143.68,262.49l-.76-.5,4.92-7.46h-4.73v-.91h6.38Z"/><path class="cls-1" d="M157.78,262.29v-.76a2.29,2.29,0,0,1-1.87.91,2.67,2.67,0,0,1-2.6-2.87,2.63,2.63,0,0,1,2.59-2.81,2.27,2.27,0,0,1,1.88.9v-.77h.93v5.4Zm-1.74-4.7a1.85,1.85,0,0,0-1.78,2,1.86,1.86,0,0,0,1.78,2,1.84,1.84,0,0,0,1.79-2A1.82,1.82,0,0,0,156,257.59Z"/><path class="cls-1" d="M163.28,262.44a2.31,2.31,0,0,1-1.88-.91v3.8h-.93v-8.44h.93v.76a2.31,2.31,0,0,1,1.87-.89,2.67,2.67,0,0,1,2.6,2.86A2.64,2.64,0,0,1,163.28,262.44Zm-.14-4.85a1.87,1.87,0,0,0-1.8,2,1.8,1.8,0,1,0,3.58,0A1.86,1.86,0,0,0,163.14,257.59Z"/><path class="cls-1" d="M169.82,257.83a.81.81,0,0,0-.55-.18,1,1,0,0,0-.46.11c-.6.33-.6,1.09-.6,1.68v2.85h-.92v-5.4h.92v.59a1.44,1.44,0,0,1,1.22-.72,1.56,1.56,0,0,1,.83.22Z"/><path class="cls-1" d="M171.59,255.51a.66.66,0,1,1,.66-.66A.66.66,0,0,1,171.59,255.51Zm-.47,6.78v-5.4H172v5.4Z"/><path class="cls-1" d="M173.82,262.29v-9.48h.93v9.48Z"/><path class="cls-1" d="M183.11,262.29l-2.19-2.46-.23.23v2.23h-.92v-9.48h.92v6.07l2-2h1.24l-2.32,2.29,2.75,3.11Z"/><path class="cls-1" d="M185.24,262.29v-9.48h.92v9.48Z"/><path class="cls-1" d="M193.74,262.29v-7.76H192.3l.5-.91h1.9v8.67Z"/><path class="cls-1" d="M203.32,260.87v1.42h-1v-1.42h-4.45l5.41-7.74V260h1.07v.88Zm-1-4.8L199.62,260h2.74Z"/><path class="cls-1" d="M205,259.93v-.83h2.35v.83Z"/><path class="cls-1" d="M210.83,262.29v-7.76h-1.44l.51-.91h1.9v8.67Z"/><path class="cls-1" d="M217.84,262.43a3,3,0,0,1-2.65-1.55l.77-.54a2.28,2.28,0,0,0,2,1.19,2.15,2.15,0,0,0,2.14-2.2,2.11,2.11,0,0,0-2.13-2.15,3,3,0,0,0-1.67.6l1.26-4.16H221v.91h-2.77l-.57,1.84a2,2,0,0,1,.49-.05,2.87,2.87,0,0,1,2.92,3A3.08,3.08,0,0,1,217.84,262.43Z"/></svg>