<svg id="Layer_1" data-name="Layer 1" xmlns="http://www.w3.org/2000/svg" viewBox="0 0 320 320"><defs><style>.cls-1{fill:#d4ac76;}</style></defs><title>text</title><path class="cls-1" d="M65.88,252.59l3.41-8.5h1.07l3.35,8.5H72.4l-.52-1.31H67.72l-.53,1.31Zm4-6.55-1.66,4.11h3.27Zm.81-2.53a1.15,1.15,0,0,1-1.63,0,1.09,1.09,0,0,1-.34-.82,1.16,1.16,0,1,1,2.31,0A1.09,1.09,0,0,1,70.64,243.51Zm-.81-.35a.41.41,0,0,0,.32-.14.46.46,0,0,0,0-.66.41.41,0,0,0-.32-.14.42.42,0,0,0-.34.14.46.46,0,0,0,0,.66A.42.42,0,0,0,69.83,243.16Z"/><path class="cls-1" d="M76.07,252.59v-8.5h.83L81.51,250v-5.86h1.18v8.5H82l-4.78-6.07v6.07Z"/><path class="cls-1" d="M91.56,248.89v-1.13h2.83v.6a4.37,4.37,0,0,1-4.4,4.37,4.15,4.15,0,0,1-3.1-1.27,4.57,4.57,0,0,1,0-6.28,4.18,4.18,0,0,1,3.1-1.27,4.51,4.51,0,0,1,1.79.36,4.27,4.27,0,0,1,1.45,1l-.88.9a3.09,3.09,0,0,0-4.62-.14,3.43,3.43,0,0,0,0,4.63,3,3,0,0,0,2.26,1,3.07,3.07,0,0,0,2-.74,3.25,3.25,0,0,0,1.07-2Z"/><path class="cls-1" d="M97.31,252.59v-8.5H98.5v4l3.54-4h1.6l-3,3.37,3.08,5.13h-1.48l-2.47-4.15-1.27,1.43v2.72Z"/><path class="cls-1" d="M108.79,252.59l-3.31-8.5h1.33l2.55,6.53,2.55-6.53h1.31l-3.32,8.5Z"/><path class="cls-1" d="M114,252.59l3.41-8.5h1.07l3.35,8.5h-1.31l-.52-1.31h-4.16l-.53,1.31Zm3.94-6.55-1.65,4.11h3.27Z"/><path class="cls-1" d="M124.14,252.59v-8.5h3.16a2.66,2.66,0,0,1,1.91.74,2.51,2.51,0,0,1,.77,1.92,2.56,2.56,0,0,1-.63,1.77,2.52,2.52,0,0,1-1.63.84l2.46,3.23h-1.46l-2.44-3.24h-1v3.24Zm3-7.37h-1.81v3.07h1.8a1.72,1.72,0,0,0,1.2-.42,1.43,1.43,0,0,0,.47-1.12,1.46,1.46,0,0,0-.47-1.09A1.7,1.7,0,0,0,127.14,245.22Z"/><path class="cls-1" d="M133,252.59v-8.5h.83L138.4,250v-5.86h1.19v8.5h-.66l-4.78-6.07v6.07Z"/><path class="cls-1" d="M145.21,252.7a3.89,3.89,0,0,1-1.59-.34,4.4,4.4,0,0,1-1.35-.91l.84-1a3.31,3.31,0,0,0,1,.78,2.6,2.6,0,0,0,1.18.31,1.66,1.66,0,0,0,1.1-.36,1.16,1.16,0,0,0,.42-.91,1.49,1.49,0,0,0-1.07-1.39l-1-.4a3.54,3.54,0,0,1-1.39-.91,2,2,0,0,1-.46-1.35,2.16,2.16,0,0,1,.71-1.61,2.41,2.41,0,0,1,1.73-.66,3.44,3.44,0,0,1,2.47.94l-.72,1a2.34,2.34,0,0,0-1.75-.77,1.32,1.32,0,0,0-.9.3,1,1,0,0,0-.35.79.92.92,0,0,0,.26.65,2.36,2.36,0,0,0,.86.53l1,.41a2.42,2.42,0,0,1,1.79,2.43,2.34,2.34,0,0,1-.75,1.79A2.86,2.86,0,0,1,145.21,252.7Z"/><path class="cls-1" d="M153.09,252.59l-3.32-8.5h1.34l2.55,6.53,2.55-6.53h1.31l-3.33,8.5Z"/><path class="cls-1" d="M158.24,252.59l3.42-8.5h1.07l3.35,8.5h-1.31l-.52-1.31h-4.17l-.52,1.31Zm3.07-9.4a.58.58,0,0,1-.84,0,.7.7,0,0,1-.17-.47.69.69,0,0,1,.17-.46.58.58,0,0,1,.84,0,.65.65,0,0,1,.18.46A.66.66,0,0,1,161.31,243.19Zm.88,2.85-1.65,4.11h3.27Zm1.48-2.85a.58.58,0,0,1-.84,0,.66.66,0,0,1-.18-.47.65.65,0,0,1,.18-.46.58.58,0,0,1,.84,0,.64.64,0,0,1,.17.46A.65.65,0,0,1,163.67,243.19Z"/><path class="cls-1" d="M173.59,248.89v-1.13h2.82v.6a4.37,4.37,0,0,1-4.4,4.37,4.16,4.16,0,0,1-3.1-1.27,4.6,4.6,0,0,1,0-6.28,4.2,4.2,0,0,1,3.1-1.27,4.47,4.47,0,0,1,1.79.36,4.32,4.32,0,0,1,1.46,1l-.88.9A3,3,0,0,0,172,245a3,3,0,0,0-2.25,1,3.43,3.43,0,0,0,0,4.63,3,3,0,0,0,2.25,1,3,3,0,0,0,2-.74,3.22,3.22,0,0,0,1.08-2Z"/><path class="cls-1" d="M184,248.86h-3.5v2.6h3.74v1.13h-4.93v-8.5h4.86v1.13h-3.67v2.51H184Z"/><path class="cls-1" d="M187.22,252.59v-8.5h.83l4.6,5.86v-5.86h1.19v8.5h-.66l-4.78-6.07v6.07Z"/><path class="cls-1" d="M204.12,252.72a2.57,2.57,0,0,1-1.88-.76,2.51,2.51,0,0,1-.78-1.86,2.27,2.27,0,0,1,.34-1.22,2.64,2.64,0,0,1,.89-.9,2.1,2.1,0,0,1-.29-3.38,2.59,2.59,0,0,1,3.43,0,2.09,2.09,0,0,1,.72,1.6,2,2,0,0,1-1,1.78,2.61,2.61,0,0,1,.91.9,2.33,2.33,0,0,1,.34,1.22A2.51,2.51,0,0,1,206,252,2.6,2.6,0,0,1,204.12,252.72Zm0-1.13a1.42,1.42,0,0,0,1-.44,1.49,1.49,0,0,0,.43-1.06,1.49,1.49,0,0,0-2.52-1,1.39,1.39,0,0,0-.43,1,1.45,1.45,0,0,0,.43,1.06A1.4,1.4,0,0,0,204.12,251.59Zm0-6.59a1.21,1.21,0,0,0-.89.36,1.19,1.19,0,0,0-.36.88,1.21,1.21,0,0,0,.36.89,1.16,1.16,0,0,0,.89.37,1.19,1.19,0,0,0,.88-.37,1.22,1.22,0,0,0,.37-.89,1.26,1.26,0,0,0-1.25-1.24Z"/><path class="cls-1" d="M208.25,254.15l1-2.72,1.09.38L209,254.43Z"/><path class="cls-1" d="M222.47,248.86H219v2.6h3.74v1.13h-4.93v-8.5h4.87v1.13H219v2.51h3.5Z"/><path class="cls-1" d="M225.66,252.59v-8.5h1.19v4l3.54-4H232l-3,3.37,3.07,5.13h-1.47l-2.48-4.15-1.26,1.43v2.72Z"/><path class="cls-1" d="M239.33,248.86h-3.49v2.6h3.74v1.13h-4.93v-8.5h4.86v1.13h-3.67v2.51h3.49Z"/><path class="cls-1" d="M242.52,252.59v-8.5h3.16a2.66,2.66,0,0,1,1.91.74,2.51,2.51,0,0,1,.77,1.92,2.56,2.56,0,0,1-.63,1.77,2.52,2.52,0,0,1-1.63.84l2.46,3.23H247.1l-2.44-3.24h-.95v3.24Zm3-7.37h-1.81v3.07h1.8a1.72,1.72,0,0,0,1.2-.42,1.43,1.43,0,0,0,.47-1.12,1.46,1.46,0,0,0-.47-1.09A1.68,1.68,0,0,0,245.52,245.22Z"/><path class="cls-1" d="M255.18,252.75a4.2,4.2,0,0,1-3.07-1.26,4.58,4.58,0,0,1,0-6.31,4.35,4.35,0,0,1,6.13,0,4.53,4.53,0,0,1,0,6.29A4.21,4.21,0,0,1,255.18,252.75ZM253,250.66a3,3,0,0,0,2.23,1,3,3,0,0,0,2.22-1,3.39,3.39,0,0,0,0-4.64,3.06,3.06,0,0,0-4.45,0,3.41,3.41,0,0,0,0,4.64Zm1.43-7.47a.58.58,0,0,1-.84,0,.7.7,0,0,1-.17-.47.69.69,0,0,1,.17-.46.58.58,0,0,1,.84,0,.65.65,0,0,1,.18.46A.66.66,0,0,1,254.38,243.19Zm2.36,0a.58.58,0,0,1-.84,0,.66.66,0,0,1-.18-.47.65.65,0,0,1,.18-.46.58.58,0,0,1,.84,0,.64.64,0,0,1,.17.46A.65.65,0,0,1,256.74,243.19Z"/><path class="cls-1" d="M63.63,265.7a4,4,0,0,1-1.6-.34,4.24,4.24,0,0,1-1.34-.91l.83-1a3.45,3.45,0,0,0,1,.78,2.63,2.63,0,0,0,1.18.31,1.64,1.64,0,0,0,1.1-.36,1.17,1.17,0,0,0,.43-.91,1.49,1.49,0,0,0-1.08-1.39l-1-.4a3.51,3.51,0,0,1-1.4-.91,2,2,0,0,1-.45-1.35,2.15,2.15,0,0,1,.7-1.61,2.43,2.43,0,0,1,1.73-.66,3.43,3.43,0,0,1,2.47.94l-.71,1a2.37,2.37,0,0,0-1.76-.77,1.36,1.36,0,0,0-.9.3,1,1,0,0,0-.34.79.91.91,0,0,0,.25.65,2.45,2.45,0,0,0,.86.53l1,.41a2.42,2.42,0,0,1,1.79,2.43,2.34,2.34,0,0,1-.75,1.79A2.85,2.85,0,0,1,63.63,265.7Z"/><path class="cls-1" d="M73.2,265.75a4.17,4.17,0,0,1-3.07-1.26,4.58,4.58,0,0,1,0-6.31,4.33,4.33,0,0,1,6.12,0,4.53,4.53,0,0,1,0,6.29A4.17,4.17,0,0,1,73.2,265.75ZM71,263.66a3.08,3.08,0,0,0,4.45,0,3.39,3.39,0,0,0,0-4.64A3.06,3.06,0,0,0,71,259a3.41,3.41,0,0,0,0,4.64Zm1.43-7.47a.58.58,0,0,1-.42.18.54.54,0,0,1-.42-.18.65.65,0,0,1-.17-.47.64.64,0,0,1,.17-.46.54.54,0,0,1,.42-.18.58.58,0,0,1,.42.18.65.65,0,0,1,.18.46A.66.66,0,0,1,72.4,256.19Zm2.36,0a.58.58,0,0,1-.42.18.58.58,0,0,1-.43-.18.7.7,0,0,1-.17-.47.69.69,0,0,1,.17-.46.58.58,0,0,1,.43-.18.58.58,0,0,1,.42.18.69.69,0,0,1,.17.46A.7.7,0,0,1,74.76,256.19Z"/><path class="cls-1" d="M80.51,265.59v-8.5h.82L85.94,263v-5.86h1.19v8.5h-.66l-4.78-6.07v6.07Z"/><path class="cls-1" d="M90.68,265.59v-8.5H93a4.28,4.28,0,0,1,3,7.29,4.13,4.13,0,0,1-3,1.21ZM93,258.22H91.87v6.24H93a2.76,2.76,0,0,0,2.09-.91,3.14,3.14,0,0,0,.85-2.23,3,3,0,0,0-.87-2.2A2.85,2.85,0,0,0,93,258.22Z"/><path class="cls-1" d="M98.85,265.59l3.42-8.5h1.07l3.35,8.5h-1.31l-.52-1.31h-4.17l-.52,1.31Zm4-6.55-1.65,4.11h3.27Z"/><path class="cls-1" d="M114.2,261.89v-1.13H117v.6a4.34,4.34,0,0,1-1.32,3.13,4.28,4.28,0,0,1-3.08,1.24,4.17,4.17,0,0,1-3.11-1.27,4.6,4.6,0,0,1,0-6.28,4.21,4.21,0,0,1,3.11-1.27,4.46,4.46,0,0,1,1.78.36,4.32,4.32,0,0,1,1.46,1l-.88.9a3,3,0,0,0-2.36-1.11,3,3,0,0,0-2.26,1,3.43,3.43,0,0,0,0,4.63,3,3,0,0,0,2.26,1,3.07,3.07,0,0,0,2-.74,3.25,3.25,0,0,0,1.07-2Z"/><path class="cls-1" d="M123.94,263.64v-.74l3-5.81h1.25l-2.8,5.5h1.84v-1.43h1.19v1.43h1v1.05h-1v1.95h-1.19v-1.95Z"/><path class="cls-1" d="M136.69,265.59v-8.5h.83l4.61,5.86v-5.86h1.18v8.5h-.65l-4.78-6.07v6.07Z"/><path class="cls-1" d="M150.59,265.75a4.17,4.17,0,0,1-3.06-1.26,4.55,4.55,0,0,1,0-6.31,4.33,4.33,0,0,1,6.12,0,4.42,4.42,0,0,1-3.06,7.56Zm-2.22-2.09a3.08,3.08,0,0,0,4.45,0,3.24,3.24,0,0,0,.91-2.33,3.18,3.18,0,0,0-.92-2.31,3,3,0,0,0-4.44,0,3.39,3.39,0,0,0,0,4.64Z"/><path class="cls-1" d="M159.92,265.59l-3.32-8.5h1.34l2.55,6.53,2.55-6.53h1.31l-3.32,8.5Z"/><path class="cls-1" d="M171.38,261.86h-3.5v2.6h3.74v1.13h-4.93v-8.5h4.86v1.13h-3.67v2.51h3.5Z"/><path class="cls-1" d="M174.57,265.59v-8.5h1.22l2.74,4.53,2.78-4.53h1.16v8.5h-1.18v-6.28l0,0-2.74,4.39-2.68-4.33h-.08v6.24Z"/><path class="cls-1" d="M186,265.59v-8.5h2.6a2.73,2.73,0,0,1,1.88.66,2.18,2.18,0,0,1,.74,1.71,2,2,0,0,1-1,1.83,2.15,2.15,0,0,1,.92.76,2,2,0,0,1,.34,1.15,2.21,2.21,0,0,1-.75,1.74,2.76,2.76,0,0,1-1.89.65Zm2.48-7.37h-1.29v2.59h1.51a1.31,1.31,0,0,0,1-.38,1.33,1.33,0,0,0,.38-1,1.07,1.07,0,0,0-.43-.89A1.7,1.7,0,0,0,188.45,258.22Zm.27,3.64h-1.56v2.6h1.48a1.78,1.78,0,0,0,1.17-.36,1.22,1.22,0,0,0,.43-1,1.18,1.18,0,0,0-.39-.91A1.66,1.66,0,0,0,188.72,261.86Z"/><path class="cls-1" d="M199.1,261.86h-3.5v2.6h3.74v1.13h-4.93v-8.5h4.86v1.13H195.6v2.51h3.5Z"/><path class="cls-1" d="M202.28,265.59v-8.5h3.16a2.7,2.7,0,0,1,1.92.74,2.77,2.77,0,0,1,.13,3.69,2.49,2.49,0,0,1-1.63.84l2.46,3.23h-1.46l-2.44-3.24h-.95v3.24Zm3-7.37h-1.81v3.07h1.8a1.69,1.69,0,0,0,1.2-.42,1.43,1.43,0,0,0,.47-1.12,1.46,1.46,0,0,0-.47-1.09A1.68,1.68,0,0,0,205.28,258.22Z"/><path class="cls-1" d="M215.7,265.59v-8.5h1.19v4l3.55-4H222l-3,3.37,3.08,5.13h-1.48l-2.47-4.15-1.27,1.43v2.72Z"/><path class="cls-1" d="M224.69,265.59v-8.5h1.19v7.37h3.5v1.13Z"/><path class="cls-1" d="M237.55,265.59v-7l-1.59.81v-1.13l2.25-1.25h.53v8.55Z"/><path class="cls-1" d="M241.41,263.64v-.74l3-5.81h1.24l-2.79,5.5h1.84v-1.43h1.19v1.43h1v1.05h-1v1.95h-1.19v-1.95Z"/><path class="cls-1" d="M249.12,261.88v-1.05h3.33v1.05Z"/><path class="cls-1" d="M255.67,265.59v-7l-1.6.81v-1.13l2.26-1.25h.53v8.55Z"/><path class="cls-1" d="M262.59,265.72a2.54,2.54,0,0,1-1.86-.75,2.39,2.39,0,0,1-.76-1.79v-3.59a2.53,2.53,0,0,1,.76-1.91,2.57,2.57,0,0,1,1.87-.73,2.6,2.6,0,0,1,1.81.66,2.22,2.22,0,0,1,.73,1.74H264a1.33,1.33,0,0,0-.38-1,1.35,1.35,0,0,0-1-.38,1.33,1.33,0,0,0-1,.43,1.49,1.49,0,0,0-.41,1.1v1.81a1.87,1.87,0,0,1,1.47-.68,2.58,2.58,0,0,1,1.85.73,2.37,2.37,0,0,1,.76,1.79,2.4,2.4,0,0,1-.77,1.8A2.6,2.6,0,0,1,262.59,265.72Zm0-1.05a1.39,1.39,0,0,0,1-.44,1.44,1.44,0,0,0,.43-1.05,1.47,1.47,0,0,0-1.46-1.46,1.4,1.4,0,0,0-1,.4,1.37,1.37,0,0,0-.43,1.06,1.51,1.51,0,0,0,.41,1.05A1.33,1.33,0,0,0,262.59,264.67Z"/></svg>