<svg id="Layer_1" data-name="Layer 1" xmlns="http://www.w3.org/2000/svg" viewBox="0 0 320 320"><defs><style>.cls-1{fill:#d4ac76;}</style></defs><title>text</title><path class="cls-1" d="M59.36,252.7a4,4,0,0,1-1.59-.34,4.24,4.24,0,0,1-1.34-.91l.83-1a3.31,3.31,0,0,0,1,.78,2.6,2.6,0,0,0,1.18.31,1.66,1.66,0,0,0,1.1-.36,1.16,1.16,0,0,0,.42-.91,1.48,1.48,0,0,0-1.07-1.39l-1-.4a3.54,3.54,0,0,1-1.39-.91,2,2,0,0,1-.45-1.35,2.15,2.15,0,0,1,.7-1.61,2.41,2.41,0,0,1,1.73-.66,3.44,3.44,0,0,1,2.47.94l-.71,1a2.37,2.37,0,0,0-1.76-.77,1.32,1.32,0,0,0-.9.3,1,1,0,0,0-.35.79.92.92,0,0,0,.26.65,2.45,2.45,0,0,0,.86.53l1,.41a2.42,2.42,0,0,1,1.79,2.43,2.34,2.34,0,0,1-.75,1.79A2.86,2.86,0,0,1,59.36,252.7Z"/><path class="cls-1" d="M68.93,252.75a4.17,4.17,0,0,1-3.06-1.26,4.58,4.58,0,0,1,0-6.31,4.33,4.33,0,0,1,6.12,0,4.53,4.53,0,0,1,0,6.29A4.18,4.18,0,0,1,68.93,252.75Zm-2.22-2.09a3.08,3.08,0,0,0,4.45,0,3.39,3.39,0,0,0,0-4.64,3,3,0,0,0-2.23-1,3,3,0,0,0-2.22,1,3.39,3.39,0,0,0,0,4.64Zm1.43-7.47a.58.58,0,0,1-.43.18.54.54,0,0,1-.41-.18.65.65,0,0,1-.17-.47.64.64,0,0,1,.17-.46.54.54,0,0,1,.41-.18.58.58,0,0,1,.43.18.64.64,0,0,1,.17.46A.65.65,0,0,1,68.14,243.19Zm2.36,0a.58.58,0,0,1-.43.18.56.56,0,0,1-.42-.18.7.7,0,0,1-.17-.47.69.69,0,0,1,.17-.46.56.56,0,0,1,.42-.18.58.58,0,0,1,.43.18.69.69,0,0,1,.17.46A.7.7,0,0,1,70.5,243.19Z"/><path class="cls-1" d="M76.24,252.59v-8.5h.83L81.68,250v-5.86h1.19v8.5h-.66l-4.78-6.07v6.07Z"/><path class="cls-1" d="M86.42,252.59v-8.5H88.7a4.28,4.28,0,0,1,3,7.29,4.13,4.13,0,0,1-3,1.21Zm2.32-7.37H87.61v6.24h1.17a2.77,2.77,0,0,0,2.09-.91,3.14,3.14,0,0,0,.85-2.23,3,3,0,0,0-.88-2.2A2.81,2.81,0,0,0,88.74,245.22Z"/><path class="cls-1" d="M94.59,252.59l3.42-8.5h1.07l3.35,8.5h-1.31l-.52-1.31H96.43l-.52,1.31Zm4-6.55-1.65,4.11h3.27Z"/><path class="cls-1" d="M109.94,248.89v-1.13h2.82v.6a4.37,4.37,0,0,1-4.4,4.37,4.16,4.16,0,0,1-3.1-1.27,4.6,4.6,0,0,1,0-6.28,4.2,4.2,0,0,1,3.1-1.27,4.47,4.47,0,0,1,1.79.36,4.32,4.32,0,0,1,1.46,1l-.88.9a3,3,0,0,0-2.37-1.11,3,3,0,0,0-2.25,1,3.43,3.43,0,0,0,0,4.63,3,3,0,0,0,2.25,1,3,3,0,0,0,2-.74,3.22,3.22,0,0,0,1.08-2Z"/><path class="cls-1" d="M119.69,252.59v-.75l3.4-4.48a1.72,1.72,0,0,0,.48-1.08,1.24,1.24,0,0,0-.38-.91,1.31,1.31,0,0,0-1-.37,1.23,1.23,0,0,0-.94.41,1.73,1.73,0,0,0-.39,1.08h-1.18a2.52,2.52,0,0,1,.7-1.81,2.4,2.4,0,0,1,1.81-.73,2.57,2.57,0,0,1,1.81.66,2.19,2.19,0,0,1,.7,1.67,3,3,0,0,1-.89,1.88l-2.65,3.38h3.65v1.05Z"/><path class="cls-1" d="M126.68,250.64v-.74l3-5.81h1.24l-2.8,5.5h1.84v-1.43h1.19v1.43h1v1h-1v2h-1.19v-2Z"/><path class="cls-1" d="M139.43,252.59v-8.5h.83l4.6,5.86v-5.86h1.19v8.5h-.66l-4.77-6.07v6.07Z"/><path class="cls-1" d="M153.33,252.75a4.17,4.17,0,0,1-3.07-1.26,4.58,4.58,0,0,1,0-6.31,4.33,4.33,0,0,1,6.12,0,4.53,4.53,0,0,1,0,6.29A4.17,4.17,0,0,1,153.33,252.75Zm-2.23-2.09a3.08,3.08,0,0,0,4.45,0,3.39,3.39,0,0,0,0-4.64,3.06,3.06,0,0,0-4.45,0,3.41,3.41,0,0,0,0,4.64Z"/><path class="cls-1" d="M162.66,252.59l-3.32-8.5h1.33l2.55,6.53,2.55-6.53h1.31l-3.32,8.5Z"/><path class="cls-1" d="M174.11,248.86h-3.5v2.6h3.74v1.13h-4.93v-8.5h4.87v1.13h-3.68v2.51h3.5Z"/><path class="cls-1" d="M177.3,252.59v-8.5h1.22l2.74,4.53,2.78-4.53h1.17v8.5H184v-6.28l0,0-2.73,4.39-2.69-4.33h-.07v6.24Z"/><path class="cls-1" d="M188.71,252.59v-8.5h2.6a2.7,2.7,0,0,1,1.87.66,2.18,2.18,0,0,1,.74,1.71,2,2,0,0,1-1,1.83,2.12,2.12,0,0,1,.91.76,2,2,0,0,1,.34,1.15,2.23,2.23,0,0,1-.74,1.74,2.81,2.81,0,0,1-1.9.65Zm2.48-7.37H189.9v2.59h1.51a1.3,1.3,0,0,0,1.32-1.36,1.09,1.09,0,0,0-.42-.89A1.74,1.74,0,0,0,191.19,245.22Zm.26,3.64H189.9v2.6h1.48a1.78,1.78,0,0,0,1.17-.36,1.25,1.25,0,0,0,.43-1,1.19,1.19,0,0,0-.4-.91A1.64,1.64,0,0,0,191.45,248.86Z"/><path class="cls-1" d="M201.83,248.86h-3.5v2.6h3.74v1.13h-4.93v-8.5H202v1.13h-3.68v2.51h3.5Z"/><path class="cls-1" d="M205,252.59v-8.5h3.16a2.66,2.66,0,0,1,1.91.74,2.55,2.55,0,0,1,.77,1.92,2.52,2.52,0,0,1-.64,1.77,2.47,2.47,0,0,1-1.62.84l2.46,3.23H209.6l-2.45-3.24h-.94v3.24Zm3-7.37h-1.81v3.07H208a1.72,1.72,0,0,0,1.2-.42,1.55,1.55,0,0,0,0-2.21A1.66,1.66,0,0,0,208,245.22Z"/><path class="cls-1" d="M218.44,252.59v-8.5h1.19v4l3.54-4h1.59l-3,3.37,3.07,5.13h-1.47l-2.48-4.15-1.26,1.43v2.72Z"/><path class="cls-1" d="M227.43,252.59v-8.5h1.18v7.37h3.5v1.13Z"/><path class="cls-1" d="M240.29,252.59v-7l-1.6.81v-1.13L241,244h.52v8.55Z"/><path class="cls-1" d="M244.21,252.59v-.75l3.4-4.48a1.7,1.7,0,0,0,.47-1.08,1.23,1.23,0,0,0-.37-.91,1.31,1.31,0,0,0-1-.37,1.23,1.23,0,0,0-.94.41,1.73,1.73,0,0,0-.39,1.08h-1.18a2.52,2.52,0,0,1,.7-1.81,2.4,2.4,0,0,1,1.81-.73,2.53,2.53,0,0,1,1.8.66,2.16,2.16,0,0,1,.71,1.67,3,3,0,0,1-.89,1.88l-2.65,3.38h3.65v1.05Z"/><path class="cls-1" d="M251.8,248.88v-1h3.32v1Z"/><path class="cls-1" d="M258.35,252.59v-7l-1.6.81v-1.13L259,244h.53v8.55Z"/><path class="cls-1" d="M265.07,252.72a2.86,2.86,0,0,1-1.71-.52,2.64,2.64,0,0,1-1-1.38l1.07-.42a1.72,1.72,0,0,0,3.36-.5,1.6,1.6,0,0,0-.49-1.2,1.69,1.69,0,0,0-1.2-.48,1.59,1.59,0,0,0-1.21.52h-1.19v-4.65h4.77v1.13h-3.58v2.29a2.24,2.24,0,0,1,1.21-.34,2.86,2.86,0,0,1,2.09.78,2.6,2.6,0,0,1,.79,2,2.7,2.7,0,0,1-.84,2A2.78,2.78,0,0,1,265.07,252.72Z"/><path class="cls-1" d="M42,265.59l-3.32-8.5H40l2.55,6.53,2.55-6.53h1.31l-3.32,8.5Z"/><path class="cls-1" d="M47.15,265.59l3.41-8.5h1.08l3.35,8.5H53.67l-.51-1.31H49l-.53,1.31Zm3.07-9.4a.58.58,0,0,1-.42.18.54.54,0,0,1-.42-.18.65.65,0,0,1-.17-.47.64.64,0,0,1,.17-.46.54.54,0,0,1,.42-.18.58.58,0,0,1,.42.18.64.64,0,0,1,.17.46A.65.65,0,0,1,50.22,256.19ZM51.1,259l-1.65,4.11h3.26Zm1.48-2.85a.58.58,0,0,1-.43.18.56.56,0,0,1-.42-.18.7.7,0,0,1-.17-.47.69.69,0,0,1,.17-.46.56.56,0,0,1,.42-.18.58.58,0,0,1,.43.18.69.69,0,0,1,.17.46A.7.7,0,0,1,52.58,256.19Z"/><path class="cls-1" d="M57.35,265.59v-8.5h1.18v7.37H62v1.13Z"/><path class="cls-1" d="M64.64,265.59v-8.5h1.19v4l3.54-4H71l-3,3.37L71,265.59H69.57l-2.48-4.15-1.26,1.43v2.72Z"/><path class="cls-1" d="M76.85,265.75a4.17,4.17,0,0,1-3.06-1.26,4.58,4.58,0,0,1,0-6.31,4.33,4.33,0,0,1,6.12,0,4.53,4.53,0,0,1,0,6.29A4.18,4.18,0,0,1,76.85,265.75Zm-2.22-2.09a3.08,3.08,0,0,0,4.45,0,3.39,3.39,0,0,0,0-4.64,3,3,0,0,0-2.23-1,3,3,0,0,0-2.22,1,3.39,3.39,0,0,0,0,4.64Z"/><path class="cls-1" d="M84.16,265.59v-8.5h1.22l2.74,4.53,2.79-4.53h1.16v8.5H90.88v-6.28l0,0-2.74,4.39-2.68-4.33h-.08v6.24Z"/><path class="cls-1" d="M95.57,265.59v-8.5h1.22l2.74,4.53,2.78-4.53h1.17v8.5h-1.19v-6.28l0,0-2.73,4.39-2.69-4.33h-.07v6.24Z"/><path class="cls-1" d="M111.66,261.86h-3.49v2.6h3.74v1.13H107v-8.5h4.86v1.13h-3.67v2.51h3.49Z"/><path class="cls-1" d="M114.85,265.59v-8.5h.83l4.61,5.86v-5.86h1.18v8.5h-.65L116,259.52v6.07Z"/><path class="cls-1" d="M126.19,265.51a.62.62,0,0,1-.47.21.73.73,0,0,1-.51-.21.62.62,0,0,1-.24-.5.66.66,0,0,1,.21-.51.73.73,0,0,1,.54-.21.66.66,0,0,1,.48.21.69.69,0,0,1,.19.51A.65.65,0,0,1,126.19,265.51Zm-1-2.13-.21-6.06h1.33l-.13,6.06Z"/><path class="cls-1" d="M134.34,265.59v-8.5H139v1.13h-3.46v2.67h3.06V262h-3.06v3.56Z"/><path class="cls-1" d="M145.41,265.75a4.17,4.17,0,0,1-3.07-1.26,4.58,4.58,0,0,1,0-6.31,4.33,4.33,0,0,1,6.12,0,4.53,4.53,0,0,1,0,6.29A4.17,4.17,0,0,1,145.41,265.75Zm-2.23-2.09a3.08,3.08,0,0,0,4.45,0,3.39,3.39,0,0,0,0-4.64,3.06,3.06,0,0,0-4.45,0,3.39,3.39,0,0,0,0,4.64Zm1.43-7.47a.58.58,0,0,1-.43.18.54.54,0,0,1-.41-.18.65.65,0,0,1-.17-.47.64.64,0,0,1,.17-.46.54.54,0,0,1,.41-.18.58.58,0,0,1,.43.18.64.64,0,0,1,.17.46A.65.65,0,0,1,144.61,256.19Zm2.36,0a.58.58,0,0,1-.43.18.58.58,0,0,1-.42-.18.7.7,0,0,1-.17-.47.69.69,0,0,1,.17-.46.58.58,0,0,1,.42-.18.58.58,0,0,1,.43.18.69.69,0,0,1,.17.46A.7.7,0,0,1,147,256.19Z"/><path class="cls-1" d="M152.72,265.59v-8.5h3.15a2.7,2.7,0,0,1,1.92.74,2.77,2.77,0,0,1,.13,3.69,2.49,2.49,0,0,1-1.63.84l2.46,3.23h-1.46l-2.44-3.24h-.95v3.24Zm3-7.37H153.9v3.07h1.8a1.69,1.69,0,0,0,1.2-.42,1.43,1.43,0,0,0,.47-1.12,1.46,1.46,0,0,0-.47-1.09A1.68,1.68,0,0,0,155.71,258.22Z"/><path class="cls-1" d="M160.51,265.59l3.42-8.5H165l3.35,8.5H167l-.52-1.31h-4.17l-.52,1.31Zm4-6.55-1.65,4.11h3.27Z"/><path class="cls-1" d="M170.71,265.59v-8.5h.83l4.61,5.86v-5.86h1.18v8.5h-.66l-4.77-6.07v6.07Z"/><path class="cls-1" d="M180.89,265.59v-8.5h1.22l2.74,4.53,2.78-4.53h1.17v8.5h-1.19v-6.28l0,0-2.74,4.39-2.68-4.33h-.08v6.24Z"/><path class="cls-1" d="M191.22,265.59l3.41-8.5h1.07l3.35,8.5h-1.31l-.52-1.31h-4.16l-.53,1.31Zm3.06-9.4a.58.58,0,0,1-.84,0,.7.7,0,0,1-.17-.47.69.69,0,0,1,.17-.46.58.58,0,0,1,.84,0,.65.65,0,0,1,.18.46A.66.66,0,0,1,194.28,256.19Zm.88,2.85-1.65,4.11h3.27Zm1.48-2.85a.58.58,0,0,1-.84,0,.65.65,0,0,1-.17-.47.64.64,0,0,1,.17-.46.58.58,0,0,1,.84,0,.64.64,0,0,1,.17.46A.65.65,0,0,1,196.64,256.19Z"/><path class="cls-1" d="M201.41,265.59v-8.5h1.19v7.37h3.5v1.13Z"/><path class="cls-1" d="M207.82,265.59l3.42-8.5h1.07l3.35,8.5h-1.31l-.52-1.31h-4.16l-.53,1.31Zm4-6.55-1.65,4.11h3.27Z"/><path class="cls-1" d="M218,265.59v-8.5h.83l4.61,5.86v-5.86h1.18v8.5H224l-4.77-6.07v6.07Z"/><path class="cls-1" d="M236.63,265.75a4.19,4.19,0,0,1-3.07-1.26,4.58,4.58,0,0,1,0-6.31,4.35,4.35,0,0,1,6.13,0,4.53,4.53,0,0,1,0,6.29A4.21,4.21,0,0,1,236.63,265.75Zm-2.23-2.09a3.08,3.08,0,0,0,4.45,0,3.39,3.39,0,0,0,0-4.64,3.06,3.06,0,0,0-4.45,0,3.41,3.41,0,0,0,0,4.64Zm1.43-7.47a.56.56,0,0,1-.42.18.54.54,0,0,1-.42-.18.7.7,0,0,1-.17-.47.69.69,0,0,1,.17-.46.54.54,0,0,1,.42-.18.56.56,0,0,1,.42.18.65.65,0,0,1,.18.46A.66.66,0,0,1,235.83,256.19Zm2.36,0a.54.54,0,0,1-.42.18.58.58,0,0,1-.43-.18.7.7,0,0,1-.17-.47.69.69,0,0,1,.17-.46.58.58,0,0,1,.43-.18.54.54,0,0,1,.42.18.69.69,0,0,1,.17.46A.7.7,0,0,1,238.19,256.19Z"/><path class="cls-1" d="M243.94,265.59v-8.5h.83l4.6,5.86v-5.86h1.19v8.5h-.66l-4.77-6.07v6.07Z"/><path class="cls-1" d="M256.19,265.7a4,4,0,0,1-1.6-.34,4.24,4.24,0,0,1-1.34-.91l.83-1a3.45,3.45,0,0,0,1,.78,2.63,2.63,0,0,0,1.18.31,1.64,1.64,0,0,0,1.1-.36,1.17,1.17,0,0,0,.43-.91,1.49,1.49,0,0,0-1.08-1.39l-1-.4a3.51,3.51,0,0,1-1.4-.91,2,2,0,0,1-.45-1.35,2.15,2.15,0,0,1,.7-1.61,2.43,2.43,0,0,1,1.73-.66,3.43,3.43,0,0,1,2.47.94l-.71,1a2.37,2.37,0,0,0-1.76-.77,1.36,1.36,0,0,0-.9.3,1,1,0,0,0-.34.79.91.91,0,0,0,.25.65,2.45,2.45,0,0,0,.86.53l1,.41a2.42,2.42,0,0,1,1.79,2.43,2.34,2.34,0,0,1-.75,1.79A2.85,2.85,0,0,1,256.19,265.7Z"/><path class="cls-1" d="M261.87,265.59v-8.5h1.19v4l3.54-4h1.59l-3,3.37,3.08,5.13H266.8l-2.48-4.15-1.26,1.43v2.72Z"/><path class="cls-1" d="M270.05,265.59l3.42-8.5h1.07l3.35,8.5h-1.32l-.51-1.31h-4.17l-.52,1.31ZM274,259l-1.65,4.11h3.26Z"/><path class="cls-1" d="M282.52,265.7a3.89,3.89,0,0,1-1.59-.34,4.28,4.28,0,0,1-1.35-.91l.84-1a3.31,3.31,0,0,0,1,.78,2.56,2.56,0,0,0,1.17.31,1.64,1.64,0,0,0,1.1-.36,1.14,1.14,0,0,0,.43-.91,1.49,1.49,0,0,0-1.08-1.39l-1-.4a3.46,3.46,0,0,1-1.39-.91,2,2,0,0,1-.46-1.35,2.19,2.19,0,0,1,.7-1.61,2.45,2.45,0,0,1,1.74-.66,3.46,3.46,0,0,1,2.47.94l-.72,1a2.34,2.34,0,0,0-1.75-.77,1.32,1.32,0,0,0-.9.3,1,1,0,0,0-.35.79.91.91,0,0,0,.25.65,2.41,2.41,0,0,0,.87.53l1,.41a2.43,2.43,0,0,1,1.79,2.43,2.34,2.34,0,0,1-.75,1.79A2.9,2.9,0,0,1,282.52,265.7Z"/></svg>