<svg id="Layer_1" data-name="Layer 1" xmlns="http://www.w3.org/2000/svg" viewBox="0 0 320 320"><defs><style>.cls-1{fill:#d80201;}</style></defs><title>text</title><path class="cls-1" d="M107.87,247.29l-3.55-4-.25.25v3.73h-1v-8.67h1v3.71l3.7-3.71h1.3l-4.06,4,4.19,4.63Z"/><path class="cls-1" d="M112.13,247.64l-2.65-5.75h1l1.61,3.63,1.6-3.63h1Z"/><path class="cls-1" d="M119.7,247.29v-.76a2.29,2.29,0,0,1-1.87.91,2.67,2.67,0,0,1-2.6-2.87,2.63,2.63,0,0,1,2.59-2.81,2.28,2.28,0,0,1,1.88.9v-.77h.92v5.4Zm-1.74-4.7a1.84,1.84,0,0,0-1.78,2,1.86,1.86,0,0,0,1.78,2,1.84,1.84,0,0,0,1.79-2A1.82,1.82,0,0,0,118,242.59Z"/><path class="cls-1" d="M124.93,242.83a.83.83,0,0,0-.55-.18,1,1,0,0,0-.47.11c-.6.33-.6,1.09-.6,1.68v2.85h-.92v-5.4h.92v.59a1.47,1.47,0,0,1,1.23-.72,1.61,1.61,0,0,1,.83.22Z"/><path class="cls-1" d="M129.62,247.29V244.1c0-.84-.12-1.51-1.13-1.51-1.2,0-1.34,1-1.34,2v2.71h-.92v-5.4h.92v.65a2,2,0,0,1,3.09,0,2.45,2.45,0,0,1,.31,1.43v3.36Z"/><path class="cls-1" d="M136.86,249.29a2.63,2.63,0,0,1-2.16,1,2.42,2.42,0,0,1-2.62-2.47H133a1.61,1.61,0,0,0,1.71,1.64c1.3,0,1.73-1,1.73-2.13v-.8a2.43,2.43,0,0,1-1.89.9,2.85,2.85,0,0,1,0-5.67,2.29,2.29,0,0,1,1.86.89v-.76h.94v5.28A3.29,3.29,0,0,1,136.86,249.29Zm-2.17-6.7a1.85,1.85,0,0,0-1.77,2,1.82,1.82,0,0,0,1.77,2,2,2,0,0,0,0-4Z"/><path class="cls-1" d="M143.27,247.29v-.76a2.3,2.3,0,0,1-1.87.91,2.67,2.67,0,0,1-2.6-2.87,2.62,2.62,0,0,1,2.58-2.81,2.29,2.29,0,0,1,1.89.9v-.77h.92v5.4Zm-1.74-4.7a1.84,1.84,0,0,0-1.78,2,1.86,1.86,0,0,0,1.78,2,1.84,1.84,0,0,0,1.79-2A1.82,1.82,0,0,0,141.53,242.59Z"/><path class="cls-1" d="M146.9,242.75v4.54H146v-4.54h-.56v-.86H146v-1.95h.94v1.95h.94v.86Z"/><path class="cls-1" d="M152.86,247.29v-.76a2.29,2.29,0,0,1-1.87.91,2.67,2.67,0,0,1-2.6-2.87,2.63,2.63,0,0,1,2.59-2.81,2.27,2.27,0,0,1,1.88.9v-.77h.93v5.4Zm-1.74-4.7a1.85,1.85,0,0,0-1.78,2,1.86,1.86,0,0,0,1.78,2,1.84,1.84,0,0,0,1.79-2A1.82,1.82,0,0,0,151.12,242.59Z"/><path class="cls-1" d="M159,247.29V244.1c0-.84-.12-1.51-1.13-1.51-1.2,0-1.34,1-1.34,2v2.71h-.93v-5.4h.93v.65a2,2,0,0,1,3.09,0,2.45,2.45,0,0,1,.31,1.43v3.36Z"/><path class="cls-1" d="M168.41,244.36l-1.78,2h3.64v.9h-5.6l3.16-3.66c.58-.67,1.49-1.65,1.49-2.58a1.68,1.68,0,0,0-1.73-1.68,1.7,1.7,0,0,0-1.73,1.78h-1a3.38,3.38,0,0,1,.18-1,2.71,2.71,0,0,1,5.21.89C170.28,242.36,169.22,243.45,168.41,244.36Z"/><path class="cls-1" d="M175.08,247.43a3,3,0,0,1-3-2.94,3.52,3.52,0,0,1,.71-2l3-4.09.73.54-2,2.77a2.65,2.65,0,0,1,.79-.11,2.82,2.82,0,0,1,2.79,2.85A3,3,0,0,1,175.08,247.43Zm0-5a2,2,0,1,0,2,2A2,2,0,0,0,175.07,242.46Z"/><path class="cls-1" d="M185.66,247.29l-1-2.46h-3.71l-1,2.46h-1.05l4-9.09,3.89,9.09Zm-2.85-6.83-1.48,3.47h2.94Z"/><path class="cls-1" d="M187.74,249.26l-.61-.24,1.07-3,.85.31Z"/><path class="cls-1" d="M199.54,247.29v-4.24h-4.43v4.24h-1v-8.67h1v3.53h4.43v-3.53h1v8.67Z"/><path class="cls-1" d="M205,247.44a2.84,2.84,0,1,1,2.85-2.83A2.82,2.82,0,0,1,205,247.44Zm0-4.83a2,2,0,1,0,1.91,2A1.89,1.89,0,0,0,205,242.61Zm-1.12-1.82a.66.66,0,0,1-.65-.65.65.65,0,1,1,.65.65Zm2.26,0a.66.66,0,0,1-.65-.65.65.65,0,1,1,.65.65Z"/><path class="cls-1" d="M211.8,247.44a2.84,2.84,0,1,1,2.85-2.83A2.82,2.82,0,0,1,211.8,247.44Zm0-4.83a2,2,0,1,0,1.91,2A1.89,1.89,0,0,0,211.79,242.61Zm-1.12-1.82a.66.66,0,0,1-.65-.65.65.65,0,1,1,.65.65Zm2.26,0a.66.66,0,0,1-.65-.65.65.65,0,1,1,.65.65Z"/><path class="cls-1" d="M218.6,242.83a.8.8,0,0,0-.54-.18,1,1,0,0,0-.47.11c-.6.33-.6,1.09-.6,1.68v2.85h-.92v-5.4H217v.59a1.44,1.44,0,0,1,1.22-.72,1.56,1.56,0,0,1,.83.22Z"/><path class="cls-1" d="M83.74,262.44a2.66,2.66,0,0,1-2.68-2.23L82,260a1.76,1.76,0,0,0,1.77,1.58,1.71,1.71,0,0,0,1.74-1.71c0-2-4-1.56-4-4.11a2.29,2.29,0,0,1,2.43-2.24,2.47,2.47,0,0,1,2.23,1.35l-.76.51a1.61,1.61,0,0,0-1.48-1,1.38,1.38,0,0,0-1.45,1.33c0,1.79,4,1.27,4,4.07A2.67,2.67,0,0,1,83.74,262.44Z"/><path class="cls-1" d="M90.53,262.44a2.84,2.84,0,1,1,2.85-2.83A2.82,2.82,0,0,1,90.53,262.44Zm0-4.83a2,2,0,1,0,1.91,2A1.89,1.89,0,0,0,90.52,257.61Zm-1.12-1.82a.66.66,0,0,1-.65-.65.65.65,0,0,1,1.3,0A.65.65,0,0,1,89.4,255.79Zm2.26,0a.66.66,0,0,1-.65-.65.65.65,0,1,1,.65.65Z"/><path class="cls-1" d="M98.19,262.29V259.1c0-.84-.12-1.51-1.13-1.51-1.2,0-1.34,1-1.34,2v2.71h-.93v-5.4h.93v.65a2,2,0,0,1,3.09,0,2.45,2.45,0,0,1,.31,1.43v3.36Z"/><path class="cls-1" d="M105,262.29v-.76a2.29,2.29,0,0,1-1.87.91,2.67,2.67,0,0,1-2.6-2.86,2.64,2.64,0,0,1,2.59-2.82,2.3,2.3,0,0,1,1.88.9v-4.85h.92v9.48Zm-1.74-4.68a1.83,1.83,0,0,0-1.78,2,1.8,1.8,0,1,0,3.57,0A1.8,1.8,0,0,0,103.27,257.61Z"/><path class="cls-1" d="M111.82,262.29v-.76a2.29,2.29,0,0,1-1.87.91,2.67,2.67,0,0,1-2.6-2.87,2.63,2.63,0,0,1,2.59-2.81,2.27,2.27,0,0,1,1.88.9v-.77h.93v5.4Zm-1.74-4.7a1.85,1.85,0,0,0-1.78,2,1.86,1.86,0,0,0,1.78,2,1.85,1.85,0,0,0,1.8-2A1.83,1.83,0,0,0,110.08,257.59Z"/><path class="cls-1" d="M119.05,264.29a2.63,2.63,0,0,1-2.16,1,2.42,2.42,0,0,1-2.62-2.47h.92a1.62,1.62,0,0,0,1.72,1.64c1.3,0,1.72-1,1.72-2.13v-.8a2.43,2.43,0,0,1-1.89.9,2.65,2.65,0,0,1-2.58-2.82,2.68,2.68,0,0,1,2.62-2.85,2.29,2.29,0,0,1,1.85.89v-.76h.94v5.28A3.29,3.29,0,0,1,119.05,264.29Zm-2.17-6.7a1.86,1.86,0,0,0-1.77,2,1.82,1.82,0,0,0,1.77,2,2,2,0,0,0,0-4Z"/><path class="cls-1" d="M127.15,262.29v-7.76h-1.44l.5-.91h1.9v8.67Z"/><path class="cls-1" d="M134.16,262.43a3,3,0,0,1-2.66-1.55l.77-.54a2.29,2.29,0,0,0,2,1.19,2.15,2.15,0,0,0,2.15-2.2,2.11,2.11,0,0,0-2.13-2.15,3,3,0,0,0-1.68.6l1.26-4.16h3.45v.91h-2.77l-.58,1.84a2.07,2.07,0,0,1,.5-.05,2.87,2.87,0,0,1,2.91,3A3.07,3.07,0,0,1,134.16,262.43Z"/><path class="cls-1" d="M144,262.44a1.93,1.93,0,0,1-1.89-1.38l.81-.33c.22.48.52.87,1.09.87a.84.84,0,0,0,.88-.85c0-1.17-2.43-.8-2.43-2.48a1.52,1.52,0,0,1,1.58-1.51,1.62,1.62,0,0,1,1.48,1l-.77.4a.86.86,0,0,0-.75-.53.64.64,0,0,0-.65.59c0,.95,2.49.71,2.49,2.47A1.77,1.77,0,0,1,144,262.44Z"/><path class="cls-1" d="M147.75,259.78a1.76,1.76,0,0,0,1.72,1.82,1.86,1.86,0,0,0,1.66-1.12l.78.43a2.68,2.68,0,0,1-2.47,1.53,2.85,2.85,0,0,1-.05-5.68A2.59,2.59,0,0,1,152,259.6v.18Zm1.67-2.17a1.65,1.65,0,0,0-1.6,1.39H151A1.62,1.62,0,0,0,149.42,257.61Z"/><path class="cls-1" d="M156.19,262.44a2.31,2.31,0,0,1-1.88-.91v3.8h-.93v-8.44h.93v.76a2.31,2.31,0,0,1,1.87-.89,2.67,2.67,0,0,1,2.6,2.86A2.64,2.64,0,0,1,156.19,262.44Zm-.14-4.85a1.86,1.86,0,0,0-1.8,2,1.8,1.8,0,1,0,3.58,0A1.86,1.86,0,0,0,156.05,257.59Z"/><path class="cls-1" d="M161.13,257.75v4.54h-.94v-4.54h-.55v-.86h.55v-1.95h.94v1.95h1v.86Z"/><path class="cls-1" d="M163.6,259.78a1.74,1.74,0,0,0,1.72,1.82,1.87,1.87,0,0,0,1.66-1.12l.78.43a2.7,2.7,0,0,1-2.47,1.53,2.85,2.85,0,0,1,0-5.68,2.58,2.58,0,0,1,2.57,2.84v.18Zm1.66-2.17a1.65,1.65,0,0,0-1.59,1.39h3.17A1.62,1.62,0,0,0,165.26,257.61Z"/><path class="cls-1" d="M175.38,262.29V259c0-.69-.12-1.42-1-1.42s-1.15.91-1.15,1.69v3h-.93v-3.2c0-.68-.14-1.5-1-1.5a1.12,1.12,0,0,0-1,.59,2.59,2.59,0,0,0-.21,1.17v2.94h-.92v-5.4h.92v.57a1.55,1.55,0,0,1,1.34-.7,1.63,1.63,0,0,1,1.48.87,1.75,1.75,0,0,1,1.58-.87,1.72,1.72,0,0,1,1.45.73,2.52,2.52,0,0,1,.3,1.38v3.42Z"/><path class="cls-1" d="M180.86,262.44a2.3,2.3,0,0,1-1.87-.91v.76h-.92v-9.48H179v4.85a2.33,2.33,0,0,1,1.89-.9,2.64,2.64,0,0,1,2.58,2.82A2.67,2.67,0,0,1,180.86,262.44Zm-.13-4.83a1.82,1.82,0,0,0-1.79,2,1.79,1.79,0,1,0,1.79-2Z"/><path class="cls-1" d="M185.5,259.78a1.76,1.76,0,0,0,1.72,1.82,1.86,1.86,0,0,0,1.66-1.12l.79.43a2.7,2.7,0,0,1-2.47,1.53,2.85,2.85,0,0,1-.06-5.68,2.59,2.59,0,0,1,2.58,2.84v.18Zm1.67-2.17a1.65,1.65,0,0,0-1.6,1.39h3.17A1.61,1.61,0,0,0,187.17,257.61Z"/><path class="cls-1" d="M193.67,257.83a.83.83,0,0,0-.55-.18,1,1,0,0,0-.46.11c-.6.33-.6,1.09-.6,1.68v2.85h-.93v-5.4h.93v.59a1.44,1.44,0,0,1,1.22-.72,1.56,1.56,0,0,1,.83.22Z"/><path class="cls-1" d="M201.56,262.29l-2.18-2.46-.24.23v2.23h-.92v-9.48h.92v6.07l2-2h1.24L200,259.18l2.74,3.11Z"/><path class="cls-1" d="M203.69,262.29v-9.48h.92v9.48Z"/><path class="cls-1" d="M212.19,262.29v-7.76h-1.44l.51-.91h1.9v8.67Z"/><path class="cls-1" d="M219.56,262.29v-7.76h-1.44l.51-.91h1.9v8.67Z"/><path class="cls-1" d="M223.49,259.93v-.83h2.35v.83Z"/><path class="cls-1" d="M229.29,262.29v-7.76h-1.45l.51-.91h1.9v8.67Z"/><path class="cls-1" d="M236.63,262.43a2.71,2.71,0,0,1-2-.86,2.27,2.27,0,0,1-.57-1.53H235a1.6,1.6,0,0,0,.29.84,1.75,1.75,0,0,0,1.37.65,1.69,1.69,0,0,0,1.7-1.73c0-1.13-.79-1.63-1.84-1.63v-.85a2,2,0,0,0,1-.21,1.49,1.49,0,0,0-.79-2.74,1.42,1.42,0,0,0-1.18.56,2,2,0,0,0-.29.83h-.95a2.29,2.29,0,0,1,2.42-2.27,2.31,2.31,0,0,1,2.44,2.32,2.14,2.14,0,0,1-1.11,1.93,2.2,2.2,0,0,1,1.24,2.09A2.57,2.57,0,0,1,236.63,262.43Z"/></svg>