<svg id="Layer_1" data-name="Layer 1" xmlns="http://www.w3.org/2000/svg" viewBox="0 0 320 320"><defs><style>.cls-1{fill:#d4ac76;}</style></defs><title>text</title><path class="cls-1" d="M95.25,252.75a4.17,4.17,0,0,1-3.07-1.26,4.58,4.58,0,0,1,0-6.31,4.33,4.33,0,0,1,6.12,0,4.53,4.53,0,0,1,0,6.29A4.17,4.17,0,0,1,95.25,252.75ZM93,250.66a3.08,3.08,0,0,0,4.45,0,3.39,3.39,0,0,0,0-4.64A3.06,3.06,0,0,0,93,246a3.41,3.41,0,0,0,0,4.64Z"/><path class="cls-1" d="M102.55,252.59v-8.5h2.28a4.23,4.23,0,0,1,4.22,4.23,4.18,4.18,0,0,1-4.26,4.27Zm2.33-7.37h-1.14v6.24h1.17a2.79,2.79,0,0,0,2.1-.91,3.18,3.18,0,0,0,.85-2.23,3,3,0,0,0-.88-2.2A2.81,2.81,0,0,0,104.88,245.22Z"/><path class="cls-1" d="M116.66,248.86h-3.5v2.6h3.74v1.13H112v-8.5h4.86v1.13h-3.67v2.51h3.5Z"/><path class="cls-1" d="M119.85,252.59v-8.5h.83l4.6,5.86v-5.86h1.19v8.5h-.66L121,246.52v6.07Z"/><path class="cls-1" d="M132.09,252.7a4,4,0,0,1-1.59-.34,4.24,4.24,0,0,1-1.34-.91l.83-1a3.45,3.45,0,0,0,1,.78,2.63,2.63,0,0,0,1.18.31,1.64,1.64,0,0,0,1.1-.36,1.16,1.16,0,0,0,.42-.91,1.48,1.48,0,0,0-1.07-1.39l-1-.4a3.51,3.51,0,0,1-1.4-.91,2,2,0,0,1-.45-1.35,2.15,2.15,0,0,1,.7-1.61,2.43,2.43,0,0,1,1.73-.66,3.43,3.43,0,0,1,2.47.94l-.71,1a2.37,2.37,0,0,0-1.76-.77,1.34,1.34,0,0,0-.9.3,1,1,0,0,0-.34.79.91.91,0,0,0,.25.65,2.45,2.45,0,0,0,.86.53l1,.41a2.42,2.42,0,0,1,1.79,2.43,2.34,2.34,0,0,1-.75,1.79A2.86,2.86,0,0,1,132.09,252.7Z"/><path class="cls-1" d="M140,252.59l-3.31-8.5H138l2.55,6.53,2.55-6.53h1.31l-3.32,8.5Z"/><path class="cls-1" d="M145.13,252.59l3.41-8.5h1.07l3.35,8.5h-1.31l-.52-1.31H147l-.53,1.31Zm3.07-9.4a.58.58,0,0,1-.43.18.56.56,0,0,1-.42-.18.7.7,0,0,1-.17-.47.69.69,0,0,1,.17-.46.56.56,0,0,1,.42-.18.58.58,0,0,1,.43.18.69.69,0,0,1,.17.46A.7.7,0,0,1,148.2,243.19Zm.87,2.85-1.65,4.11h3.27Zm1.48-2.85a.58.58,0,0,1-.84,0,.65.65,0,0,1-.17-.47.64.64,0,0,1,.17-.46.58.58,0,0,1,.84,0,.64.64,0,0,1,.17.46A.65.65,0,0,1,150.55,243.19Z"/><path class="cls-1" d="M160.47,248.89v-1.13h2.83v.6a4.37,4.37,0,0,1-4.4,4.37,4.13,4.13,0,0,1-3.1-1.27,4.57,4.57,0,0,1,0-6.28,4.17,4.17,0,0,1,3.1-1.27,4.46,4.46,0,0,1,1.78.36,4.22,4.22,0,0,1,1.46,1l-.88.9a3.09,3.09,0,0,0-4.62-.14,3.43,3.43,0,0,0,0,4.63,3,3,0,0,0,2.26,1,3.07,3.07,0,0,0,2-.74,3.25,3.25,0,0,0,1.07-2Z"/><path class="cls-1" d="M170.91,248.86h-3.5v2.6h3.74v1.13h-4.93v-8.5h4.87v1.13h-3.68v2.51h3.5Z"/><path class="cls-1" d="M174.1,252.59v-8.5h.83l4.6,5.86v-5.86h1.19v8.5h-.66l-4.77-6.07v6.07Z"/><path class="cls-1" d="M191.08,252.72a2.91,2.91,0,0,1-1.72-.52,2.64,2.64,0,0,1-1-1.38l1.08-.42a1.63,1.63,0,0,0,.61.85,1.78,1.78,0,0,0,2.27-.15,1.64,1.64,0,0,0,.48-1.2,1.61,1.61,0,0,0-.5-1.2,1.66,1.66,0,0,0-1.2-.48,1.63,1.63,0,0,0-1.21.52H188.7v-4.65h4.76v1.13h-3.58v2.29a2.24,2.24,0,0,1,1.21-.34,2.86,2.86,0,0,1,2.09.78,2.61,2.61,0,0,1,.8,2,2.7,2.7,0,0,1-.84,2A2.8,2.8,0,0,1,191.08,252.72Z"/><path class="cls-1" d="M195.41,254.15l1-2.72,1.09.38-1.34,2.62Z"/><path class="cls-1" d="M204,245.22v-1.13h6.89v1.13h-2.85v7.37h-1.19v-7.37Z"/><path class="cls-1" d="M211.48,252.59l3.41-8.5H216l3.35,8.5H218l-.51-1.31h-4.17l-.53,1.31Zm3.07-9.4a.58.58,0,0,1-.43.18.58.58,0,0,1-.42-.18.7.7,0,0,1-.17-.47.69.69,0,0,1,.17-.46.58.58,0,0,1,.42-.18.58.58,0,0,1,.43.18.69.69,0,0,1,.17.46A.7.7,0,0,1,214.55,243.19Zm.88,2.85-1.66,4.11H217Zm1.47-2.85a.58.58,0,0,1-.84,0,.65.65,0,0,1-.17-.47.64.64,0,0,1,.17-.46.58.58,0,0,1,.84,0,.64.64,0,0,1,.17.46A.65.65,0,0,1,216.9,243.19Z"/><path class="cls-1" d="M221.67,252.59v-8.5h2.61a2.72,2.72,0,0,1,1.87.66,2.18,2.18,0,0,1,.74,1.71,2,2,0,0,1-1,1.83,2.18,2.18,0,0,1,.91.76,2,2,0,0,1,.34,1.15,2.23,2.23,0,0,1-.74,1.74,2.81,2.81,0,0,1-1.9.65Zm2.48-7.37h-1.29v2.59h1.51a1.3,1.3,0,0,0,.95-.38,1.33,1.33,0,0,0,.38-1,1.09,1.09,0,0,0-.42-.89A1.75,1.75,0,0,0,224.15,245.22Zm.27,3.64h-1.56v2.6h1.48a1.78,1.78,0,0,0,1.17-.36,1.22,1.22,0,0,0,.43-1,1.18,1.18,0,0,0-.39-.91A1.66,1.66,0,0,0,224.42,248.86Z"/><path class="cls-1" d="M234.15,244.09h1.37l-2.82,5.08v3.42h-1.19v-3.38l-2.86-5.12h1.42l2.06,3.77Z"/><path class="cls-1" d="M89.29,265.7a3.89,3.89,0,0,1-1.59-.34,4.17,4.17,0,0,1-1.35-.91l.84-1a3.19,3.19,0,0,0,1,.78,2.56,2.56,0,0,0,1.17.31,1.64,1.64,0,0,0,1.1-.36,1.14,1.14,0,0,0,.43-.91,1.49,1.49,0,0,0-1.08-1.39l-1-.4a3.46,3.46,0,0,1-1.39-.91,2,2,0,0,1-.46-1.35,2.15,2.15,0,0,1,.7-1.61,2.45,2.45,0,0,1,1.74-.66,3.46,3.46,0,0,1,2.47.94l-.72,1a2.34,2.34,0,0,0-1.75-.77,1.32,1.32,0,0,0-.9.3,1,1,0,0,0-.35.79.91.91,0,0,0,.25.65,2.41,2.41,0,0,0,.87.53l1,.41a2.43,2.43,0,0,1,1.79,2.43A2.31,2.31,0,0,1,91.3,265,2.85,2.85,0,0,1,89.29,265.7Z"/><path class="cls-1" d="M98.86,265.75a4.2,4.2,0,0,1-3.07-1.26,4.58,4.58,0,0,1,0-6.31,4.35,4.35,0,0,1,6.13,0,4.53,4.53,0,0,1,0,6.29A4.21,4.21,0,0,1,98.86,265.75Zm-2.23-2.09a3.09,3.09,0,0,0,4.46,0,3.4,3.4,0,0,0,0-4.64,3.06,3.06,0,0,0-4.45,0,3.41,3.41,0,0,0,0,4.64Zm1.43-7.47a.58.58,0,0,1-.84,0,.7.7,0,0,1-.17-.47.69.69,0,0,1,.17-.46.58.58,0,0,1,.84,0,.65.65,0,0,1,.18.46A.66.66,0,0,1,98.06,256.19Zm2.36,0a.58.58,0,0,1-.84,0,.66.66,0,0,1-.18-.47.65.65,0,0,1,.18-.46.58.58,0,0,1,.84,0,.64.64,0,0,1,.17.46A.65.65,0,0,1,100.42,256.19Z"/><path class="cls-1" d="M106.17,265.59v-8.5H107l4.6,5.86v-5.86h1.19v8.5h-.66l-4.77-6.07v6.07Z"/><path class="cls-1" d="M116.34,265.59v-8.5h2.28a4.22,4.22,0,0,1,4.21,4.23,4.17,4.17,0,0,1-4.25,4.27Zm2.33-7.37h-1.14v6.24h1.17a2.79,2.79,0,0,0,2.1-.91,3.18,3.18,0,0,0,.85-2.23,3,3,0,0,0-.88-2.2A2.85,2.85,0,0,0,118.67,258.22Z"/><path class="cls-1" d="M124.52,265.59l3.41-8.5H129l3.34,8.5H131l-.51-1.31h-4.17l-.53,1.31Zm4-6.55-1.66,4.11h3.27Z"/><path class="cls-1" d="M139.86,261.89v-1.13h2.83v.6a4.37,4.37,0,0,1-4.4,4.37,4.15,4.15,0,0,1-3.1-1.27,4.57,4.57,0,0,1,0-6.28,4.18,4.18,0,0,1,3.1-1.27,4.51,4.51,0,0,1,1.79.36,4.27,4.27,0,0,1,1.45,1l-.88.9A3.09,3.09,0,0,0,136,259a3.43,3.43,0,0,0,0,4.63,3,3,0,0,0,2.26,1,3.07,3.07,0,0,0,2-.74,3.21,3.21,0,0,0,1.07-2Z"/><path class="cls-1" d="M151.18,265.59v-7l-1.59.81v-1.13l2.25-1.25h.53v8.55Z"/><path class="cls-1" d="M155,263.64v-.74l3-5.81h1.24l-2.79,5.5h1.84v-1.43h1.18v1.43h1v1.05h-1v1.95h-1.18v-1.95Z"/><path class="cls-1" d="M166.86,265.59l3.41-8.5h1.07l3.35,8.5h-1.31l-.52-1.31H168.7l-.53,1.31ZM170.8,259l-1.65,4.11h3.27Z"/><path class="cls-1" d="M177.05,265.59v-8.5H180a2.68,2.68,0,0,1,2,.79,2.78,2.78,0,0,1,.79,2,2.64,2.64,0,0,1-.82,2,2.73,2.73,0,0,1-2,.8h-1.67v2.9Zm2.82-7.37h-1.63v3.33h1.64a1.61,1.61,0,0,0,1.19-.45,1.59,1.59,0,0,0,.46-1.2,1.66,1.66,0,0,0-.47-1.2A1.59,1.59,0,0,0,179.87,258.22Z"/><path class="cls-1" d="M185.53,265.59v-8.5h3.16a2.66,2.66,0,0,1,1.91.74,2.52,2.52,0,0,1,.78,1.92,2.56,2.56,0,0,1-.64,1.77,2.52,2.52,0,0,1-1.63.84l2.46,3.23h-1.46l-2.44-3.24h-.95v3.24Zm3-7.37h-1.81v3.07h1.8a1.72,1.72,0,0,0,1.2-.42,1.43,1.43,0,0,0,.47-1.12,1.46,1.46,0,0,0-.47-1.09A1.68,1.68,0,0,0,188.53,258.22Z"/><path class="cls-1" d="M194.35,265.59v-8.5h1.19v8.5Z"/><path class="cls-1" d="M199,265.59v-8.5h1.19v7.37h3.5v1.13Z"/><path class="cls-1" d="M211.89,265.59v-7l-1.6.81v-1.13l2.26-1.25h.53v8.55Z"/><path class="cls-1" d="M215.75,263.64v-.74l3-5.81H220l-2.8,5.5H219v-1.43h1.19v1.43h1v1.05h-1v1.95H219v-1.95Z"/><path class="cls-1" d="M223.46,261.88v-1.05h3.32v1.05Z"/><path class="cls-1" d="M230,265.59v-7l-1.6.81v-1.13l2.26-1.25h.52v8.55Z"/><path class="cls-1" d="M236.93,265.72a2.53,2.53,0,0,1-1.86-.75,2.39,2.39,0,0,1-.76-1.79v-3.59a2.53,2.53,0,0,1,.76-1.91,2.77,2.77,0,0,1,3.67-.07,2.23,2.23,0,0,1,.74,1.74h-1.19a1.3,1.3,0,0,0-.39-1,1.33,1.33,0,0,0-1-.38,1.37,1.37,0,0,0-1,.43,1.53,1.53,0,0,0-.41,1.1v1.81a1.9,1.9,0,0,1,1.47-.68,2.59,2.59,0,0,1,1.86.73,2.41,2.41,0,0,1,.76,1.79,2.38,2.38,0,0,1-.78,1.8A2.56,2.56,0,0,1,236.93,265.72Zm0-1.05a1.39,1.39,0,0,0,1-.44,1.48,1.48,0,0,0,.43-1.05,1.42,1.42,0,0,0-.43-1,1.42,1.42,0,0,0-2.44,1,1.46,1.46,0,0,0,.41,1.05A1.33,1.33,0,0,0,236.93,264.67Z"/></svg>