<svg id="Layer_1" data-name="Layer 1" xmlns="http://www.w3.org/2000/svg" viewBox="0 0 320 320"><defs><style>.cls-1{fill:#d80201;}</style></defs><title>text</title><path class="cls-1" d="M51.15,142.58c-1.08,5.39-5.67,8.61-11.06,8.61-7.07,0-12.25-5-12.25-12.15a12,12,0,0,1,12.39-12.25,11.14,11.14,0,0,1,10,5.5l-4,2.14A6.85,6.85,0,0,0,40.19,131c-4.55,0-7.67,3.68-7.67,8.09s3.12,8,7.67,8c3,0,5.71-1.82,6.09-5h-5.5v-3.92H51.5v.56A20.2,20.2,0,0,1,51.15,142.58Z"/><path class="cls-1" d="M55,150.67V124.45h4.24v26.22Z"/><path class="cls-1" d="M71.2,151.16c-4.83,0-8.68-3-8.68-8.05S66.37,135,71.24,135s8.61,3,8.61,8.05S76,151.16,71.2,151.16Zm-3.68-18.48a2.52,2.52,0,0,1,0-5,2.52,2.52,0,1,1,0,5Zm3.64,6.16a4.25,4.25,0,1,0,4.31,4.27A4.29,4.29,0,0,0,71.17,138.84Zm3.64-6.16a2.56,2.56,0,0,1-2.52-2.52,2.52,2.52,0,1,1,2.52,2.52Z"/><path class="cls-1" d="M102.46,150.67v-8.3c0-1.79-.28-3.75-2.52-3.75-2.49,0-2.91,2.28-2.91,4.27v7.77H92.8v-8.05a6.76,6.76,0,0,0-.31-2.52,2.45,2.45,0,0,0-2.28-1.47A2.76,2.76,0,0,0,87.83,140a6.29,6.29,0,0,0-.49,2.91v7.77H83.1V135.51h4.24v1.72A5.82,5.82,0,0,1,92,135a5.15,5.15,0,0,1,4.73,2.77,5.6,5.6,0,0,1,5-2.77,5,5,0,0,1,4.24,2.17,6.68,6.68,0,0,1,.81,3.68v9.8Z"/><path class="cls-1" d="M115,139.15v11.52h-4.24V139.15h-1.68v-3.64h1.68v-5.18H115v5.18h3v3.64Z"/><path class="cls-1" d="M140.54,150.67v-2a5.86,5.86,0,0,1-4.94,2.49c-4.55,0-7.46-3.78-7.46-8.12s2.91-8,7.35-8a6.32,6.32,0,0,1,5,2.42v-1.93h4.27v15.16Zm-3.78-11.83a4.25,4.25,0,1,0,4.24,4.24A4.23,4.23,0,0,0,136.76,138.84Z"/><path class="cls-1" d="M153.14,139.15v11.52H148.9V139.15h-1.68v-3.64h1.68v-5.18h4.23v5.18h3v3.64Z"/><path class="cls-1" d="M162.59,139.15v11.52h-4.24V139.15h-1.68v-3.64h1.68v-5.18h4.24v5.18h3v3.64Z"/><path class="cls-1" d="M180.89,139.15v11.52h-4.24V139.15H175v-3.64h1.64v-4.87a7.39,7.39,0,0,1,.67-3.57,6,6,0,0,1,5.25-3,5,5,0,0,1,2.24.52v3.89a4.22,4.22,0,0,0-1.92-.56c-1.89,0-2,2-2,3.4v4.24h3.92v3.64Z"/><path class="cls-1" d="M194.65,151.16c-4.83,0-8.68-3-8.68-8.05s3.85-8.09,8.72-8.09,8.61,3,8.61,8.05S199.44,151.16,194.65,151.16Zm0-12.32a4.25,4.25,0,1,0,4.31,4.27A4.29,4.29,0,0,0,194.61,138.84Z"/><path class="cls-1" d="M216.45,139.36a3.75,3.75,0,0,0-2-.52c-2.87,0-3.64,2-3.64,4.55v7.28h-4.24V135.51h4.24v2.28a4.94,4.94,0,0,1,6.27-2.42Z"/><path class="cls-1" d="M238.5,150.67v-8.3c0-1.79-.28-3.75-2.52-3.75-2.49,0-2.91,2.28-2.91,4.27v7.77h-4.24v-8.05a6.75,6.75,0,0,0-.32-2.52,2.45,2.45,0,0,0-2.28-1.47,2.76,2.76,0,0,0-2.38,1.37,6.29,6.29,0,0,0-.49,2.91v7.77h-4.24V135.51h4.24v1.72A5.82,5.82,0,0,1,228,135a5.15,5.15,0,0,1,4.73,2.77,5.61,5.61,0,0,1,5-2.77,5,5,0,0,1,4.24,2.17,6.68,6.68,0,0,1,.81,3.68v9.8Z"/><path class="cls-1" d="M258.38,150.67v-2a5.86,5.86,0,0,1-4.94,2.49c-4.55,0-7.46-3.78-7.46-8.12s2.91-8,7.35-8a6.32,6.32,0,0,1,5,2.42v-1.93h4.27v15.16Zm-3.78-11.83a4.25,4.25,0,1,0,4.24,4.24A4.23,4.23,0,0,0,254.6,138.84Z"/><path class="cls-1" d="M38.76,187.67l-5.71-6.51-.46.46v6.06H28.36V161.45H32.6V178l5.67-5.53H44l-7.11,6.65,7.67,8.51Z"/><path class="cls-1" d="M46.46,187.67V161.45h4.24v26.22Z"/><path class="cls-1" d="M66.34,187.67v-2a5.85,5.85,0,0,1-4.94,2.49c-4.55,0-7.46-3.78-7.46-8.12s2.91-8,7.35-8a6.32,6.32,0,0,1,5,2.42v-1.92h4.27v15.16Zm-3.78-11.83a4.25,4.25,0,1,0,4.24,4.24A4.23,4.23,0,0,0,62.56,175.83Z"/><path class="cls-1" d="M84.57,176.36a3.74,3.74,0,0,0-2-.53c-2.87,0-3.64,2-3.64,4.55v7.28H74.67V172.51H78.9v2.28a4.94,4.94,0,0,1,6.27-2.42Z"/><path class="cls-1" d="M92.31,176.15v11.52H88.07V176.15H86.39v-3.64h1.68v-5.18h4.24v5.18h3v3.64Z"/><path class="cls-1" d="M117.82,187.67v-2a5.85,5.85,0,0,1-4.94,2.49c-4.55,0-7.46-3.78-7.46-8.12s2.91-8,7.35-8a6.32,6.32,0,0,1,5,2.42v-13h4.27v26.22ZM114,175.83a4.25,4.25,0,1,0,4.24,4.24A4.23,4.23,0,0,0,114,175.83Z"/><path class="cls-1" d="M128.22,168.66a2.56,2.56,0,1,1,0-5.11,2.56,2.56,0,0,1,0,5.11Zm-2.14,19V172.51h4.24v15.16Z"/><path class="cls-1" d="M138.58,176.15v11.52h-4.24V176.15h-1.68v-3.64h1.68v-5.18h4.24v5.18h3v3.64Z"/><path class="cls-1" d="M148,176.15v11.52h-4.24V176.15h-1.68v-3.64h1.68v-5.18H148v5.18h3v3.64Z"/><path class="cls-1" d="M172.32,187.67v-8.4c0-2.07-.46-3.64-2.87-3.64-2.63,0-3.26,1.92-3.26,4.2v7.84H162V172.51h4.24v1.86A5.59,5.59,0,0,1,171,172a5.24,5.24,0,0,1,5.6,6v9.63Z"/><path class="cls-1" d="M184.25,195.79h-4.79l5.57-10.4-7.18-12.88h4.94l4.55,8.61,4.34-8.61h4.83Z"/><path class="cls-1" d="M209.31,187.67v-2a5.86,5.86,0,0,1-4.94,2.49c-4.55,0-7.46-3.78-7.46-8.12s2.91-8,7.35-8a6.32,6.32,0,0,1,5,2.42v-1.92h4.27v15.16Zm-3.78-11.83a4.25,4.25,0,1,0,4.24,4.24A4.23,4.23,0,0,0,205.53,175.83Z"/><path class="cls-1" d="M236.75,187.67v-8.3c0-2.1-.46-3.75-2.91-3.75-2.63,0-3.22,2-3.22,4.27v7.77h-4.24V161.45h4.24v13a5.52,5.52,0,0,1,4.76-2.45,5.79,5.79,0,0,1,4.41,1.86,6,6,0,0,1,1.19,4.27v9.52Z"/><path class="cls-1" d="M252.36,188.16c-4.17,0-7.32-1.86-7.32-6.37v-9.28h4.24v8.58c0,2.06.88,3.46,3.08,3.46s3.08-1.4,3.08-3.46v-8.58h4.27v9.28C259.71,186.3,256.53,188.16,252.36,188.16Z"/><path class="cls-1" d="M268.6,188.16a8.06,8.06,0,0,1-5.78-2.52l2.24-2.59a4.93,4.93,0,0,0,3.57,1.79,1.79,1.79,0,0,0,1.93-1.68c0-2.59-6.76-1.29-6.76-6.41,0-3.08,2.55-4.8,5.43-4.8a7.81,7.81,0,0,1,4.94,1.61l-2.1,2.49a4.23,4.23,0,0,0-2.52-1c-.74,0-1.61.46-1.61,1.29,0,2.21,7,1.22,7,6.41C274.93,186.27,271.85,188.16,268.6,188.16Z"/><path class="cls-1" d="M285.82,176.88v3h-4.31V173.7a7,7,0,0,0,1.23.14c2.13,0,4.41-1.08,4.41-3.5a2.63,2.63,0,0,0-2.7-2.7,2.48,2.48,0,0,0-2.52,2.49c0,.14,0,.28,0,.42h-4.55v-.42c0-3.82,3.57-6.27,7.14-6.27,3.75,0,7.07,2.69,7.07,6.58C291.63,174,289,176.12,285.82,176.88Zm-2.07,11.24a2.73,2.73,0,1,1,2.73-2.73A2.74,2.74,0,0,1,283.75,188.12Z"/></svg>