<svg id="Layer_1" data-name="Layer 1" xmlns="http://www.w3.org/2000/svg" viewBox="0 0 320 320"><defs><style>.cls-1{fill:#d80201;}</style></defs><title>text</title><path class="cls-1" d="M45.58,131.27v5.18h7.32v4H45.58v10.26H41V127.32H53.38v4Z"/><path class="cls-1" d="M64.58,151.16c-4.83,0-8.68-3-8.68-8.05S59.75,135,64.62,135s8.61,3,8.61,8.05S69.38,151.16,64.58,151.16Zm0-12.32a4.25,4.25,0,1,0,4.31,4.27A4.29,4.29,0,0,0,64.55,138.83Z"/><path class="cls-1" d="M86.39,139.36a3.74,3.74,0,0,0-2-.52c-2.87,0-3.64,2-3.64,4.55v7.28H76.48V135.51h4.24v2.28A4.94,4.94,0,0,1,87,135.37Z"/><path class="cls-1" d="M108.44,150.67v-8.3c0-1.79-.28-3.75-2.52-3.75-2.49,0-2.91,2.28-2.91,4.27v7.77H98.78v-8.05a6.75,6.75,0,0,0-.32-2.52,2.45,2.45,0,0,0-2.28-1.47A2.76,2.76,0,0,0,93.81,140a6.29,6.29,0,0,0-.49,2.91v7.77H89.08V135.51h4.24v1.72A5.82,5.82,0,0,1,97.94,135a5.15,5.15,0,0,1,4.73,2.77,5.6,5.6,0,0,1,5-2.77,5,5,0,0,1,4.24,2.17,6.68,6.68,0,0,1,.81,3.68v9.8Z"/><path class="cls-1" d="M128.32,150.67v-2a5.86,5.86,0,0,1-4.94,2.49c-4.55,0-7.46-3.78-7.46-8.12s2.91-8,7.35-8a6.32,6.32,0,0,1,5,2.42v-1.93h4.27v15.16Zm-3.78-11.83a4.25,4.25,0,1,0,4.24,4.24A4.23,4.23,0,0,0,124.54,138.83Z"/><path class="cls-1" d="M157,150.67v-2a5.85,5.85,0,0,1-4.93,2.49c-4.55,0-7.46-3.78-7.46-8.12s2.91-8,7.35-8a6.31,6.31,0,0,1,5,2.42v-13h4.27v26.22Zm-3.78-11.83a4.25,4.25,0,1,0,4.24,4.24A4.23,4.23,0,0,0,153.2,138.83Z"/><path class="cls-1" d="M167.38,131.66a2.56,2.56,0,1,1,0-5.11,2.56,2.56,0,0,1,0,5.11Zm-2.14,19V135.51h4.24v15.16Z"/><path class="cls-1" d="M177.74,139.15v11.52H173.5V139.15h-1.68v-3.64h1.68v-5.18h4.24v5.18h3v3.64Z"/><path class="cls-1" d="M187.19,139.15v11.52H183V139.15h-1.68v-3.64H183v-5.18h4.24v5.18h3v3.64Z"/><path class="cls-1" d="M211.48,150.67v-8.3c0-2.1-.46-3.75-2.91-3.75-2.63,0-3.22,2-3.22,4.27v7.77h-4.24V124.45h4.24v13a5.52,5.52,0,0,1,4.76-2.45,5.79,5.79,0,0,1,4.41,1.85,6,6,0,0,1,1.19,4.27v9.52Z"/><path class="cls-1" d="M227.08,151.16c-4.17,0-7.32-1.86-7.32-6.37v-9.28H224v8.58c0,2.06.88,3.47,3.08,3.47s3.08-1.4,3.08-3.47v-8.58h4.27v9.28C234.44,149.3,231.25,151.16,227.08,151.16Z"/><path class="cls-1" d="M243.32,151.16a8.06,8.06,0,0,1-5.78-2.52l2.24-2.59a4.92,4.92,0,0,0,3.57,1.79,1.79,1.79,0,0,0,1.93-1.68c0-2.59-6.76-1.29-6.76-6.41,0-3.08,2.55-4.8,5.43-4.8a7.81,7.81,0,0,1,4.94,1.61l-2.1,2.49a4.23,4.23,0,0,0-2.52-1c-.74,0-1.61.46-1.61,1.29,0,2.21,7,1.23,7,6.41C249.66,149.27,246.58,151.16,243.32,151.16Z"/><path class="cls-1" d="M49.67,188.16a6.06,6.06,0,0,1-5.08-2.49v10.08H40.36V172.51H44.6v1.92a6,6,0,0,1,5-2.42c4.52,0,7.49,3.75,7.49,8.09S54.12,188.16,49.67,188.16Zm-1.26-12.32a4.25,4.25,0,1,0,4.24,4.24A4.23,4.23,0,0,0,48.41,175.83Z"/><path class="cls-1" d="M71.86,187.67v-2a5.86,5.86,0,0,1-4.94,2.49c-4.55,0-7.46-3.78-7.46-8.12s2.91-8,7.35-8a6.32,6.32,0,0,1,5,2.42v-1.92h4.27v15.16Zm-3.78-11.83a4.25,4.25,0,1,0,4.24,4.24A4.23,4.23,0,0,0,68.08,175.83Zm-.59-6a3.15,3.15,0,0,1,0-6.3,3.15,3.15,0,0,1,0,6.3Zm0-4.38a1.23,1.23,0,1,0,1.22,1.23A1.2,1.2,0,0,0,67.49,165.47Z"/><path class="cls-1" d="M93.32,176.15v11.52H89.08V176.15H87.44v-3.64h1.65v-4.87a7.38,7.38,0,0,1,.67-3.57A6,6,0,0,1,95,161a5,5,0,0,1,2.24.53v3.88a4.22,4.22,0,0,0-1.92-.56c-1.89,0-2,2-2,3.4v4.24h3.92v3.64Z"/><path class="cls-1" d="M102.73,180.77c.07,2.35,1.19,4.06,3.71,4.06a4,4,0,0,0,3.61-2l3.92.63c-1.33,3.26-4,4.73-7.46,4.73-4.9,0-8.12-3.15-8.12-8.09s3.08-8.05,7.95-8.05,7.74,3.36,7.74,8.19v.56Zm3.68-5.74a3.44,3.44,0,0,0-3.54,3H110A3.51,3.51,0,0,0,106.41,175Z"/><path class="cls-1" d="M136.68,187.67v-8.3c0-1.79-.28-3.75-2.52-3.75-2.49,0-2.91,2.28-2.91,4.27v7.77H127v-8.05a6.77,6.77,0,0,0-.31-2.52,2.45,2.45,0,0,0-2.28-1.47,2.76,2.76,0,0,0-2.38,1.37,6.29,6.29,0,0,0-.49,2.91v7.77h-4.24V172.51h4.24v1.71a5.82,5.82,0,0,1,4.62-2.21,5.15,5.15,0,0,1,4.73,2.77,5.61,5.61,0,0,1,5-2.77,5,5,0,0,1,4.24,2.17,6.68,6.68,0,0,1,.8,3.68v9.8Z"/><path class="cls-1" d="M173.08,187.67v-8.3c0-1.79-.28-3.75-2.52-3.75-2.49,0-2.91,2.28-2.91,4.27v7.77h-4.24v-8.05a6.75,6.75,0,0,0-.32-2.52,2.45,2.45,0,0,0-2.28-1.47,2.76,2.76,0,0,0-2.38,1.37,6.29,6.29,0,0,0-.49,2.91v7.77h-4.24V172.51H158v1.71a5.82,5.82,0,0,1,4.62-2.21,5.15,5.15,0,0,1,4.73,2.77,5.6,5.6,0,0,1,5-2.77,5,5,0,0,1,4.24,2.17,6.68,6.68,0,0,1,.8,3.68v9.8Z"/><path class="cls-1" d="M183.44,168.66a2.56,2.56,0,1,1,0-5.11,2.56,2.56,0,0,1,0,5.11Zm-2.14,19V172.51h4.24v15.16Z"/><path class="cls-1" d="M199.89,187.67v-8.4c0-2.07-.46-3.64-2.87-3.64-2.63,0-3.26,1.92-3.26,4.2v7.84h-4.24V172.51h4.24v1.86a5.59,5.59,0,0,1,4.76-2.35,5.24,5.24,0,0,1,5.6,6v9.63Z"/><path class="cls-1" d="M215.5,188.16c-4.17,0-7.32-1.86-7.32-6.37v-9.28h4.24v8.58c0,2.06.88,3.46,3.08,3.46s3.08-1.4,3.08-3.46v-8.58h4.27v9.28C222.85,186.3,219.67,188.16,215.5,188.16Z"/><path class="cls-1" d="M231.18,176.15v11.52h-4.24V176.15h-1.68v-3.64h1.68v-5.18h4.24v5.18h3v3.64Z"/><path class="cls-1" d="M239.9,180.77c.07,2.35,1.19,4.06,3.71,4.06a4,4,0,0,0,3.61-2l3.92.63c-1.33,3.26-4,4.73-7.46,4.73-4.9,0-8.12-3.15-8.12-8.09s3.08-8.05,7.95-8.05,7.74,3.36,7.74,8.19v.56Zm3.68-5.74a3.44,3.44,0,0,0-3.54,3h7.18A3.51,3.51,0,0,0,243.57,175Z"/><path class="cls-1" d="M264.4,176.36a3.74,3.74,0,0,0-2-.53c-2.87,0-3.64,2-3.64,4.55v7.28h-4.24V172.51h4.24v2.28a4.94,4.94,0,0,1,6.27-2.42Z"/><path class="cls-1" d="M267.89,188.12a2.73,2.73,0,1,1,2.73-2.73A2.73,2.73,0,0,1,267.89,188.12Z"/></svg>