<svg id="Layer_1" data-name="Layer 1" xmlns="http://www.w3.org/2000/svg" viewBox="0 0 320 320"><defs><style>.cls-1{fill:#d80201;}</style></defs><title>text</title><path class="cls-1" d="M58.5,129.23a9.09,9.09,0,0,1-8-4.45l2.94-2.84a5.35,5.35,0,0,0,4.9,3.12,3.32,3.32,0,0,0,3.61-3.29c0-4.8-10.26-2.52-10.26-10,0-4.13,3.33-6.79,7.28-6.79a10.24,10.24,0,0,1,6.83,2.59l-2.38,3.12a4.72,4.72,0,0,0-3.78-1.89c-1.5,0-3.25.94-3.25,2.63,0,4,10.26,2,10.26,10.15C66.63,126.29,63.13,129.23,58.5,129.23Z"/><path class="cls-1" d="M77.68,129h-2L68,113.51h4.76l4,8.54,4-8.54h4.76Z"/><path class="cls-1" d="M98.37,128.67v-2a5.86,5.86,0,0,1-4.94,2.49c-4.55,0-7.46-3.78-7.46-8.12s2.91-8,7.35-8a6.32,6.32,0,0,1,5,2.42v-1.93h4.27v15.16Zm-3.78-11.83a4.25,4.25,0,1,0,4.24,4.24A4.23,4.23,0,0,0,94.59,116.84Z"/><path class="cls-1" d="M117.06,128.67v-8.4c0-2.07-.46-3.64-2.87-3.64-2.63,0-3.26,1.93-3.26,4.2v7.84H106.7V113.51h4.24v1.86a5.6,5.6,0,0,1,4.76-2.35,5.23,5.23,0,0,1,5.6,6v9.63Z"/><path class="cls-1" d="M128.89,121.77c.07,2.35,1.19,4.06,3.71,4.06a4,4,0,0,0,3.61-2l3.92.63c-1.33,3.26-4,4.73-7.46,4.73-4.9,0-8.12-3.15-8.12-8.09s3.08-8.05,7.95-8.05,7.74,3.36,7.74,8.19v.56Zm3.68-5.74a3.44,3.44,0,0,0-3.54,3h7.18A3.51,3.51,0,0,0,132.56,116Z"/><path class="cls-1" d="M153.84,128.67v-8.4c0-2.07-.46-3.64-2.87-3.64-2.63,0-3.26,1.93-3.26,4.2v7.84h-4.24V113.51h4.24v1.86a5.6,5.6,0,0,1,4.76-2.35,5.23,5.23,0,0,1,5.6,6v9.63Z"/><path class="cls-1" d="M181.5,128.67v-8.3c0-1.79-.28-3.75-2.52-3.75-2.49,0-2.91,2.28-2.91,4.27v7.77h-4.24v-8.05a6.77,6.77,0,0,0-.31-2.52,2.45,2.45,0,0,0-2.28-1.47,2.76,2.76,0,0,0-2.38,1.37,6.29,6.29,0,0,0-.49,2.91v7.77h-4.24V113.51h4.24v1.72A5.82,5.82,0,0,1,171,113a5.15,5.15,0,0,1,4.73,2.77,5.61,5.61,0,0,1,5-2.77,5,5,0,0,1,4.24,2.17,6.68,6.68,0,0,1,.81,3.68v9.8Z"/><path class="cls-1" d="M201.37,128.67v-2a5.86,5.86,0,0,1-4.94,2.49c-4.55,0-7.46-3.78-7.46-8.12s2.91-8,7.35-8a6.32,6.32,0,0,1,5,2.42v-1.93h4.27v15.16Zm-7.32-18a2.52,2.52,0,1,1,0-5,2.52,2.52,0,1,1,0,5Zm3.54,6.16a4.25,4.25,0,1,0,4.24,4.24A4.23,4.23,0,0,0,197.59,116.84Zm3.75-6.16a2.55,2.55,0,0,1-2.52-2.52,2.52,2.52,0,1,1,2.52,2.52Z"/><path class="cls-1" d="M219.61,117.36a3.75,3.75,0,0,0-2-.52c-2.87,0-3.64,2-3.64,4.55v7.28H209.7V113.51h4.24v2.28a4.94,4.94,0,0,1,6.27-2.42Z"/><path class="cls-1" d="M232.7,128.67,227,122.16l-.46.46v6.06H222.3V102.45h4.24V119l5.67-5.53h5.74l-7.11,6.65,7.67,8.51Z"/><path class="cls-1" d="M244.67,117.15v11.52h-4.24V117.15h-1.68v-3.64h1.68v-5.18h4.24v5.18h3v3.64Z"/><path class="cls-1" d="M261.43,128.67v-2a5.86,5.86,0,0,1-4.94,2.49c-4.55,0-7.46-3.78-7.46-8.12s2.91-8,7.35-8a6.32,6.32,0,0,1,5,2.42v-1.93h4.27v15.16Zm-3.78-11.83a4.25,4.25,0,1,0,4.24,4.24A4.23,4.23,0,0,0,257.65,116.84Z"/><path class="cls-1" d="M61.72,170.67v-8.3c0-2.1-.46-3.75-2.91-3.75-2.62,0-3.22,2-3.22,4.27v7.77H51.36V144.45H55.6v13A5.52,5.52,0,0,1,60.36,155a5.79,5.79,0,0,1,4.41,1.85A6,6,0,0,1,66,161.15v9.52Z"/><path class="cls-1" d="M77.33,171.16c-4.17,0-7.32-1.86-7.32-6.37v-9.28h4.24v8.58c0,2.07.88,3.47,3.08,3.47s3.08-1.4,3.08-3.47v-8.58h4.27v9.28C84.68,169.3,81.5,171.16,77.33,171.16Z"/><path class="cls-1" d="M93.57,171.16a8.06,8.06,0,0,1-5.78-2.52L90,166a4.92,4.92,0,0,0,3.57,1.79,1.78,1.78,0,0,0,1.92-1.68c0-2.59-6.75-1.29-6.75-6.41,0-3.08,2.55-4.8,5.42-4.8a7.81,7.81,0,0,1,4.94,1.61L97,159a4.23,4.23,0,0,0-2.52-1c-.74,0-1.61.46-1.61,1.29,0,2.21,7,1.23,7,6.41C99.91,169.27,96.83,171.16,93.57,171.16Z"/><path class="cls-1" d="M116,159.15v11.52h-4.24V159.15h-1.65v-3.64h1.65v-4.87a7.39,7.39,0,0,1,.67-3.57,6,6,0,0,1,5.25-3,5,5,0,0,1,2.24.52v3.89a4.23,4.23,0,0,0-1.93-.56c-1.89,0-2,2-2,3.4v4.24H120v3.64Z"/><path class="cls-1" d="M129.8,171.16c-4.83,0-8.68-3-8.68-8.05S125,155,129.83,155s8.61,3,8.61,8.05S134.59,171.16,129.8,171.16Zm-3.68-18.48a2.52,2.52,0,1,1,0-5,2.52,2.52,0,1,1,0,5Zm3.64,6.16a4.25,4.25,0,1,0,4.3,4.27A4.29,4.29,0,0,0,129.76,158.84Zm3.64-6.16a2.56,2.56,0,0,1-2.52-2.52,2.52,2.52,0,1,1,2.52,2.52Z"/><path class="cls-1" d="M151.6,159.36a3.74,3.74,0,0,0-2-.52c-2.87,0-3.64,2-3.64,4.55v7.28H141.7V155.51h4.24v2.28a4.94,4.94,0,0,1,6.27-2.42Z"/><path class="cls-1" d="M166.58,163.77c.07,2.34,1.19,4.06,3.71,4.06a4,4,0,0,0,3.61-2l3.92.63c-1.33,3.25-4,4.73-7.46,4.73-4.9,0-8.12-3.15-8.12-8.09s3.08-8.05,7.95-8.05,7.74,3.36,7.74,8.19v.56Zm3.68-5.74a3.44,3.44,0,0,0-3.54,3h7.18A3.51,3.51,0,0,0,170.26,158Z"/><path class="cls-1" d="M191.54,170.67v-8.4c0-2.07-.46-3.64-2.87-3.64-2.62,0-3.25,1.93-3.25,4.2v7.84h-4.24V155.51h4.24v1.86a5.59,5.59,0,0,1,4.76-2.35,5.24,5.24,0,0,1,5.6,6v9.63Z"/><path class="cls-1" d="M213.41,171.16a8.06,8.06,0,0,1-5.78-2.52l2.24-2.59a4.92,4.92,0,0,0,3.57,1.79,1.79,1.79,0,0,0,1.93-1.68c0-2.59-6.76-1.29-6.76-6.41,0-3.08,2.55-4.8,5.43-4.8a7.81,7.81,0,0,1,4.94,1.61l-2.1,2.49a4.23,4.23,0,0,0-2.52-1c-.74,0-1.61.46-1.61,1.29,0,2.21,7,1.23,7,6.41C219.75,169.27,216.67,171.16,213.41,171.16Z"/><path class="cls-1" d="M230.07,171.16c-4.17,0-7.32-1.86-7.32-6.37v-9.28H227v8.58c0,2.07.88,3.47,3.08,3.47s3.08-1.4,3.08-3.47v-8.58h4.27v9.28C237.42,169.3,234.24,171.16,230.07,171.16Z"/><path class="cls-1" d="M251.84,170.67v-8.4c0-2.07-.46-3.64-2.87-3.64-2.63,0-3.26,1.93-3.26,4.2v7.84h-4.24V155.51h4.24v1.86a5.59,5.59,0,0,1,4.76-2.35,5.24,5.24,0,0,1,5.6,6v9.63Z"/><path class="cls-1" d="M271.72,170.67v-2a5.86,5.86,0,0,1-4.94,2.49c-4.55,0-7.46-3.78-7.46-8.12s2.91-8,7.35-8a6.32,6.32,0,0,1,5,2.42v-13H276v26.22Zm-3.78-11.83a4.25,4.25,0,1,0,4.24,4.24A4.23,4.23,0,0,0,267.94,158.84Z"/><path class="cls-1" d="M53.43,193.66a2.56,2.56,0,0,1,0-5.11,2.56,2.56,0,0,1,0,5.11Zm-2.13,19V197.51h4.24v15.16Z"/><path class="cls-1" d="M69.88,212.67v-8.4c0-2.07-.46-3.64-2.87-3.64-2.63,0-3.26,1.93-3.26,4.2v7.84H59.52V197.51h4.24v1.86A5.59,5.59,0,0,1,68.51,197a5.23,5.23,0,0,1,5.6,6v9.63Z"/><path class="cls-1" d="M88.53,212.67v-8.4c0-2.07-.46-3.64-2.87-3.64-2.62,0-3.25,1.93-3.25,4.2v7.84H78.17V197.51h4.24v1.86A5.59,5.59,0,0,1,87.17,197a5.23,5.23,0,0,1,5.6,6v9.63Z"/><path class="cls-1" d="M100.36,205.77c.07,2.34,1.19,4.06,3.71,4.06a4,4,0,0,0,3.61-2l3.92.63c-1.33,3.25-4,4.73-7.46,4.73-4.9,0-8.12-3.15-8.12-8.09S99.1,197,104,197s7.74,3.36,7.74,8.19v.56ZM104,200a3.44,3.44,0,0,0-3.54,3h7.18A3.51,3.51,0,0,0,104,200Z"/><path class="cls-1" d="M134.31,212.67v-8.3c0-1.79-.28-3.75-2.52-3.75-2.49,0-2.91,2.28-2.91,4.27v7.77h-4.24v-8.05a6.76,6.76,0,0,0-.31-2.52,2.45,2.45,0,0,0-2.28-1.47,2.76,2.76,0,0,0-2.38,1.37,6.3,6.3,0,0,0-.49,2.91v7.77H115V197.51h4.24v1.72a5.82,5.82,0,0,1,4.62-2.21,5.15,5.15,0,0,1,4.73,2.76,5.6,5.6,0,0,1,5-2.76,5,5,0,0,1,4.24,2.17,6.67,6.67,0,0,1,.8,3.67v9.8Z"/><path class="cls-1" d="M144.67,193.66a2.56,2.56,0,0,1,0-5.11,2.56,2.56,0,0,1,0,5.11Zm-2.13,19V197.51h4.24v15.16Z"/><path class="cls-1" d="M150.76,212.67V186.45H155v26.22Z"/><path class="cls-1" d="M161.12,193.66a2.56,2.56,0,0,1,0-5.11,2.56,2.56,0,0,1,0,5.11ZM159,220.75V197.51h4.24v23.24Z"/><path class="cls-1" d="M175.09,213.16c-4.83,0-8.68-3-8.68-8.05s3.85-8.08,8.72-8.08,8.61,3,8.61,8.05S179.88,213.16,175.09,213.16Zm-3.68-18.48a2.52,2.52,0,1,1,0-5,2.52,2.52,0,1,1,0,5Zm3.64,6.16a4.25,4.25,0,1,0,4.31,4.27A4.29,4.29,0,0,0,175.05,200.84Zm3.64-6.16a2.56,2.56,0,0,1-2.52-2.52,2.52,2.52,0,1,1,2.52,2.52Z"/><path class="cls-1" d="M189.33,213.12a2.73,2.73,0,1,1,2.73-2.73A2.73,2.73,0,0,1,189.33,213.12ZM187.16,206V189.32h4.34V206Z"/></svg>