<svg id="Layer_1" data-name="Layer 1" xmlns="http://www.w3.org/2000/svg" viewBox="0 0 300 250"><defs><style>.cls-1{fill:#d4ac76;}</style></defs><title>text</title><path class="cls-1" d="M129.2,32.73h-10v6.93h11v4.52H114.12V17.12h15.75v4.52H119.19v6.58h10Z"/><path class="cls-1" d="M139.28,44.18V17.12h10.59a9.11,9.11,0,0,1,6.51,2.46A8.42,8.42,0,0,1,159,26a8.13,8.13,0,0,1-1.94,5.48A8.67,8.67,0,0,1,152,34.36l7.26,9.82h-5.7l-7-9.66h-2.19v9.66Zm9.8-22.54h-4.73v8.82h4.73a5,5,0,0,0,3.52-1.2,4,4,0,0,0,1.31-3.12,4.24,4.24,0,0,0-1.35-3.21A4.83,4.83,0,0,0,149.08,21.64Z"/><path class="cls-1" d="M165.08,22V17.12h22.29V22h-8.61V44.18h-5.08V22Z"/><path class="cls-1" d="M52.25,86.18V59.12h5.08V81.31h9.94v4.87Z"/><path class="cls-1" d="M75.46,86.18V59.12h5.07V86.18Z"/><path class="cls-1" d="M98.05,86.18,87.71,59.12H93l7.43,19.46,7.34-19.46h5.14L102.65,86.18Z"/><path class="cls-1" d="M126.33,86.53a13.09,13.09,0,0,1-5.11-1.07,13.4,13.4,0,0,1-4.38-3l3.22-3.85a9.86,9.86,0,0,0,3,2.42,7.62,7.62,0,0,0,3.56.94,4.32,4.32,0,0,0,2.88-.93,2.9,2.9,0,0,0,1.13-2.33q0-2.52-3-3.75l-3-1.21a11.45,11.45,0,0,1-4.49-3,6.88,6.88,0,0,1-1.46-4.6,7,7,0,0,1,2.3-5.13,7.83,7.83,0,0,1,5.73-2.26,11.69,11.69,0,0,1,8.34,3.09l-3,3.77a7,7,0,0,0-5.35-2.35,3.61,3.61,0,0,0-2.42.78,2.43,2.43,0,0,0-.92,1.91,2.51,2.51,0,0,0,.72,1.85,7,7,0,0,0,2.32,1.4l3.15,1.26q6,2.42,6.13,7.81a7.59,7.59,0,0,1-2.54,5.92A9.85,9.85,0,0,1,126.33,86.53Z"/><path class="cls-1" d="M151.46,86.18,141.12,59.12h5.28l7.43,19.46,7.34-19.46h5.14L156.06,86.18Z"/><path class="cls-1" d="M188.65,74.73h-10v6.93h11v4.52H173.56V59.12h15.75v4.52H178.64v6.58h10Z"/><path class="cls-1" d="M198.73,86.18V59.12h10.58a9.13,9.13,0,0,1,6.52,2.46,8.45,8.45,0,0,1,2.6,6.42,8.08,8.08,0,0,1-1.94,5.48,8.62,8.62,0,0,1-5,2.88l7.26,9.82H213l-7-9.66H203.8v9.66Zm9.8-22.54H203.8v8.82h4.73a5,5,0,0,0,3.51-1.2,4,4,0,0,0,1.32-3.12A4.24,4.24,0,0,0,212,64.93,4.83,4.83,0,0,0,208.53,63.64Z"/><path class="cls-1" d="M227.22,86.18V59.12h4.69V71.05l10.36-11.93h6.26L239,69.92l9.75,16.26H242.9l-7.37-12.35-3.62,4.09v8.26Z"/></svg>