<svg id="Layer_1" data-name="Layer 1" xmlns="http://www.w3.org/2000/svg" viewBox="0 0 980 300"><defs><style>.cls-1{fill:#fff;}</style></defs><title>text</title><path class="cls-1" d="M236.61,163.41v3.08H218.5v-28h17.72v3.08H222v8.9h11.28v2.85H222v10.09Z"/><path class="cls-1" d="M244.44,166.49h-3.22V145.77h2.83v4.84q1.5-3.42,3-4.44a5.54,5.54,0,0,1,3.09-1c.33,0,.75,0,1.27.08v3.08h-.65a5.65,5.65,0,0,0-4.43,2,8,8,0,0,0-1.89,5.23Z"/><path class="cls-1" d="M281.74,138.49v28h-2.91v-3.55a7,7,0,0,1-6.55,4.12,7.21,7.21,0,0,1-6-3.05,12.28,12.28,0,0,1-2.34-7.7,13.14,13.14,0,0,1,2.32-7.94,7.27,7.27,0,0,1,6.15-3.17,7.14,7.14,0,0,1,6.09,3.4V138.49Zm-3.22,15.28a5.86,5.86,0,0,0-1.66-4.37,5.34,5.34,0,0,0-3.87-1.64A4.68,4.68,0,0,0,269,149.9a10,10,0,0,0-1.55,6,11.6,11.6,0,0,0,1.43,6.34,4.44,4.44,0,0,0,3.9,2.18,5.24,5.24,0,0,0,4-1.89,6.36,6.36,0,0,0,1.72-4.43Z"/><path class="cls-1" d="M291.51,138.49v3.59H288v-3.59Zm-.11,7.28v20.72h-3.22V145.77Z"/><path class="cls-1" d="M307.21,164.29v2.55a22.68,22.68,0,0,1-2.95.22q-6,0-6-6.28V148.3h-3.67v-2.53h3.67l.15-5.2,3-.29v5.49H306v2.53h-4.63v13q0,3.19,3.32,3.2A15.89,15.89,0,0,0,307.21,164.29Z"/><path class="cls-1" d="M320.13,164.29v2.55a22.68,22.68,0,0,1-2.95.22q-6,0-6-6.28V148.3H307.5v-2.53h3.67l.15-5.2,3-.29v5.49h4.63v2.53h-4.63v13q0,3.19,3.32,3.2A15.89,15.89,0,0,0,320.13,164.29Z"/><path class="cls-1" d="M350.34,138.49v28h-2.91v-3.55a7,7,0,0,1-6.55,4.12,7.21,7.21,0,0,1-6-3.05,12.28,12.28,0,0,1-2.34-7.7,13.08,13.08,0,0,1,2.32-7.94A7.26,7.26,0,0,1,341,145.2a7.14,7.14,0,0,1,6.09,3.4V138.49Zm-3.22,15.28a5.86,5.86,0,0,0-1.66-4.37,5.36,5.36,0,0,0-3.87-1.64,4.68,4.68,0,0,0-3.95,2.14,10,10,0,0,0-1.55,6,11.61,11.61,0,0,0,1.42,6.34,4.46,4.46,0,0,0,3.91,2.18,5.24,5.24,0,0,0,4-1.89,6.36,6.36,0,0,0,1.72-4.43Z"/><path class="cls-1" d="M360.1,138.49v3.59h-3.46v-3.59Zm-.1,7.28v20.72h-3.22V145.77Z"/><path class="cls-1" d="M383.34,142.53v2.57a5.79,5.79,0,0,0-3,.51,2.74,2.74,0,0,0-1,1.85,7.47,7.47,0,0,1,2,5,6.43,6.43,0,0,1-2.16,4.86,8.19,8.19,0,0,1-5.82,2,7.27,7.27,0,0,1-1.41-.12,10.73,10.73,0,0,0-1.42-.23,2.43,2.43,0,0,0-1.33.55,1.64,1.64,0,0,0-.78,1.4,1.53,1.53,0,0,0,1.13,1.6,24.33,24.33,0,0,0,5.31.47,30.67,30.67,0,0,1,5.24.48,5.36,5.36,0,0,1,2.86,1.69,4.58,4.58,0,0,1,1.17,3.18q0,5.94-10.42,5.93c-3.29,0-5.7-.5-7.21-1.49a4.54,4.54,0,0,1-2.26-4,4.17,4.17,0,0,1,3.16-4.15,3.9,3.9,0,0,1-2-3.34c0-1.6,1-2.82,2.87-3.67a6.76,6.76,0,0,1-2.69-5.47,6.34,6.34,0,0,1,2.3-5,8.31,8.31,0,0,1,5.6-2,10,10,0,0,1,4.24.88,4,4,0,0,1,1.43-2.81,5.94,5.94,0,0,1,3.39-.78Zm-13.7,23.12c-1.5.65-2.26,1.6-2.26,2.85a2.7,2.7,0,0,0,1.86,2.45,11.16,11.16,0,0,0,4.73.87,15.14,15.14,0,0,0,4.88-.75c1.48-.5,2.21-1.34,2.21-2.53a2.1,2.1,0,0,0-.65-1.58,3.25,3.25,0,0,0-1.8-.78c-.76-.11-2.08-.19-4-.25C372.39,165.88,370.72,165.78,369.64,165.65Zm3.86-8.76a4.59,4.59,0,0,0,3.34-1.26,4.37,4.37,0,0,0,1.29-3.27,4.51,4.51,0,0,0-4.59-4.66,4.82,4.82,0,0,0-3.24,1.22,4.89,4.89,0,0,0-.15,6.73A4.59,4.59,0,0,0,373.5,156.89Z"/><path class="cls-1" d="M390.37,138.49v3.59h-3.46v-3.59Zm-.1,7.28v20.72h-3.22V145.77Z"/><path class="cls-1" d="M406.08,164.29v2.55a22.8,22.8,0,0,1-2.95.22q-6,0-6-6.28V148.3h-3.67v-2.53h3.67l.14-5.2,3-.29v5.49h4.63v2.53h-4.63v13q0,3.19,3.32,3.2A15.89,15.89,0,0,0,406.08,164.29Z"/><path class="cls-1" d="M425.81,166.49h-3.18c-.12-.66-.24-1.9-.37-3.74a7.45,7.45,0,0,1-7.26,4.31,7.26,7.26,0,0,1-5.35-1.85,6,6,0,0,1-1.86-4.43,6.21,6.21,0,0,1,2.66-5.17q2.67-2,9.07-2c.57,0,1.49,0,2.74.08a11.7,11.7,0,0,0-.38-3.56,3.17,3.17,0,0,0-1.61-1.75,6.85,6.85,0,0,0-3.24-.66c-3.26,0-5.16,1.25-5.7,3.73l-3-.51q1.08-5.71,9.15-5.72,4.28,0,6.08,1.9t1.79,6.57v8.8A17.39,17.39,0,0,0,425.81,166.49Zm-3.55-10.36c-1.31-.08-2.31-.12-3-.12a11.76,11.76,0,0,0-5.93,1.25,4,4,0,0,0-2.11,3.66,3.41,3.41,0,0,0,1.14,2.59,4.64,4.64,0,0,0,3.29,1.07,6.12,6.12,0,0,0,4.79-2.12,7.26,7.26,0,0,0,1.88-5C422.33,157.1,422.3,156.65,422.26,156.13Z"/><path class="cls-1" d="M435,166.49h-3.22v-28H435Z"/><path class="cls-1" d="M455.16,160.31l3,.62a8.37,8.37,0,0,1-3.2,4.39,9.21,9.21,0,0,1-5.6,1.74,8.71,8.71,0,0,1-6.87-3,13,13,0,0,1,.11-15.83,8.81,8.81,0,0,1,6.85-3.05A8.29,8.29,0,0,1,456,148c1.65,1.87,2.49,4.68,2.53,8.41H443.45c0,3.13.65,5.24,2,6.33a6.38,6.38,0,0,0,4.16,1.65Q453.54,164.4,455.16,160.31ZM455,154a9,9,0,0,0-.57-3.1,5.36,5.36,0,0,0-1.81-2.31,5,5,0,0,0-3-1,5.48,5.48,0,0,0-4.07,1.72,7.14,7.14,0,0,0-1.88,4.64Z"/><path class="cls-1" d="M481.26,167.06a7.85,7.85,0,0,1-6.65-3.16,12.65,12.65,0,0,1-2.39-7.84,11.29,11.29,0,0,1,2.69-7.9,8.67,8.67,0,0,1,6.68-3,8.18,8.18,0,0,1,6.76,3.11,12.07,12.07,0,0,1,2.47,7.77,11.64,11.64,0,0,1-2.66,7.91A8.71,8.71,0,0,1,481.26,167.06Zm.25-2.66a5.12,5.12,0,0,0,4.12-2c1.11-1.36,1.66-3.46,1.66-6.32s-.58-5-1.74-6.25a5.32,5.32,0,0,0-4.08-1.93,5.14,5.14,0,0,0-4.06,1.95q-1.67,2-1.66,6.21c0,3,.55,5.14,1.66,6.43A5.2,5.2,0,0,0,481.51,164.4Z"/><path class="cls-1" d="M523.41,166.49h-3.14V153.61a11.73,11.73,0,0,0-.28-3,3.53,3.53,0,0,0-1.34-1.82,3.82,3.82,0,0,0-2.4-.83,5.06,5.06,0,0,0-3.56,1.69,7,7,0,0,0-1.71,5.16v11.67h-3.12V152.85c0-1.82-.43-3.1-1.3-3.86a4.14,4.14,0,0,0-2.74-1.12,4.59,4.59,0,0,0-3.57,1.76,6.63,6.63,0,0,0-1.51,4.47v12.39h-3.08V145.77h2.77v4q2.31-4.55,6.38-4.55a5.35,5.35,0,0,1,3.79,1.46,6.65,6.65,0,0,1,2,3.5q2.13-5,6.54-5a6,6,0,0,1,3.71,1.21,5.68,5.68,0,0,1,2.07,2.78,15.81,15.81,0,0,1,.48,4.42Z"/><path class="cls-1" d="M546,138.49v28h-2.91v-3.55a7,7,0,0,1-6.56,4.12,7.2,7.2,0,0,1-6-3.05,12.28,12.28,0,0,1-2.34-7.7,13.14,13.14,0,0,1,2.31-7.94,7.28,7.28,0,0,1,6.16-3.17,7.14,7.14,0,0,1,6.09,3.4V138.49Zm-3.22,15.28a5.9,5.9,0,0,0-1.66-4.37,5.37,5.37,0,0,0-3.88-1.64,4.68,4.68,0,0,0-3.95,2.14,10,10,0,0,0-1.55,6,11.6,11.6,0,0,0,1.43,6.34,4.45,4.45,0,0,0,3.91,2.18,5.22,5.22,0,0,0,4-1.89,6.37,6.37,0,0,0,1.73-4.43Z"/><path class="cls-1" d="M553,163.59a12.64,12.64,0,0,1-2.17-7.55,11.26,11.26,0,0,1,2.68-7.87,9.06,9.06,0,0,1,12-1.28l1.85-2.47h2.87l-3.08,4.1a12.24,12.24,0,0,1,2.3,7.56,11.64,11.64,0,0,1-2.66,7.91,8.68,8.68,0,0,1-6.9,3.07,8,8,0,0,1-5.34-1.79l-1.77,2.37H550Zm2.1-2.81,8.58-11.48a5.27,5.27,0,0,0-3.6-1.43,5.14,5.14,0,0,0-4.05,1.95c-1.12,1.3-1.67,3.39-1.67,6.26A13,13,0,0,0,555.12,160.78Zm10-9.53-8.71,11.6a5.3,5.3,0,0,0,3.77,1.55,5.13,5.13,0,0,0,4.11-2c1.11-1.36,1.66-3.46,1.66-6.32A11.66,11.66,0,0,0,565.09,151.25Z"/><path class="cls-1" d="M602,166.49H598.9V153.61a12.21,12.21,0,0,0-.28-3,3.53,3.53,0,0,0-1.34-1.82,3.82,3.82,0,0,0-2.4-.83,5.06,5.06,0,0,0-3.56,1.69,7,7,0,0,0-1.71,5.16v11.67h-3.12V152.85c0-1.82-.43-3.1-1.3-3.86a4.14,4.14,0,0,0-2.74-1.12,4.56,4.56,0,0,0-3.57,1.76,6.63,6.63,0,0,0-1.52,4.47v12.39h-3.07V145.77h2.77v4c1.54-3,3.67-4.55,6.37-4.55a5.38,5.38,0,0,1,3.8,1.46,6.65,6.65,0,0,1,2,3.5q2.13-5,6.54-5a5.91,5.91,0,0,1,3.7,1.21,5.56,5.56,0,0,1,2.07,2.78,15.74,15.74,0,0,1,.49,4.42Z"/><path class="cls-1" d="M636.22,166.49h-3.14V153.61a12.31,12.31,0,0,0-.27-3,3.61,3.61,0,0,0-1.35-1.82,3.82,3.82,0,0,0-2.4-.83,5,5,0,0,0-3.55,1.69,6.94,6.94,0,0,0-1.72,5.16v11.67h-3.11V152.85a4.9,4.9,0,0,0-1.31-3.86,4.13,4.13,0,0,0-2.73-1.12,4.56,4.56,0,0,0-3.57,1.76,6.63,6.63,0,0,0-1.52,4.47v12.39h-3.08V145.77h2.77v4c1.55-3,3.67-4.55,6.38-4.55a5.34,5.34,0,0,1,3.79,1.46,6.65,6.65,0,0,1,2,3.5q2.15-5,6.55-5a5.93,5.93,0,0,1,3.7,1.21,5.56,5.56,0,0,1,2.07,2.78,15.81,15.81,0,0,1,.48,4.42Z"/><path class="cls-1" d="M656.34,160.31l3,.62a8.37,8.37,0,0,1-3.2,4.39,9.2,9.2,0,0,1-5.59,1.74,8.71,8.71,0,0,1-6.87-3,13,13,0,0,1,.1-15.83,8.81,8.81,0,0,1,6.85-3.05,8.28,8.28,0,0,1,6.53,2.81c1.65,1.87,2.49,4.68,2.53,8.41h-15q0,4.7,2,6.33a6.38,6.38,0,0,0,4.16,1.65Q654.72,164.4,656.34,160.31Zm-.18-6.29a9,9,0,0,0-.58-3.1,5.33,5.33,0,0,0-1.8-2.31,5,5,0,0,0-3.06-1,5.48,5.48,0,0,0-4.07,1.72,7.19,7.19,0,0,0-1.88,4.64Z"/><path class="cls-1" d="M678.34,138.49v3.59h-3.46v-3.59Zm-.1,7.28v20.72H675V145.77Z"/><path class="cls-1" d="M699.84,145.77l-7.16,20.72h-3.32l-7.43-20.72h3.58l5.77,16.84L697,145.77Z"/><path class="cls-1" d="M719.36,166.49h-3.18c-.12-.66-.24-1.9-.37-3.74a7.45,7.45,0,0,1-7.26,4.31,7.25,7.25,0,0,1-5.35-1.85,6,6,0,0,1-1.87-4.43,6.22,6.22,0,0,1,2.67-5.17q2.67-2,9.06-2c.58,0,1.49,0,2.75.08a11.7,11.7,0,0,0-.38-3.56,3.17,3.17,0,0,0-1.61-1.75,6.85,6.85,0,0,0-3.24-.66c-3.26,0-5.16,1.25-5.7,3.73l-3-.51q1.08-5.71,9.14-5.72,4.29,0,6.08,1.9t1.8,6.57v8.8A17.39,17.39,0,0,0,719.36,166.49Zm-3.55-10.36c-1.31-.08-2.31-.12-3-.12a11.76,11.76,0,0,0-5.93,1.25,4,4,0,0,0-2.11,3.66,3.41,3.41,0,0,0,1.14,2.59,4.64,4.64,0,0,0,3.29,1.07,6.12,6.12,0,0,0,4.79-2.12,7.25,7.25,0,0,0,1.87-5C715.87,157.1,715.85,156.65,715.81,156.13Z"/><path class="cls-1" d="M728.59,166.49h-3.22V145.77h2.83v4.84q1.5-3.42,3-4.44a5.54,5.54,0,0,1,3.09-1c.33,0,.75,0,1.27.08v3.08h-.66a5.68,5.68,0,0,0-4.43,2,8.08,8.08,0,0,0-1.88,5.23Z"/><path class="cls-1" d="M752.89,160.31l3,.62a8.4,8.4,0,0,1-3.19,4.39,9.25,9.25,0,0,1-5.6,1.74,8.71,8.71,0,0,1-6.87-3,13,13,0,0,1,.1-15.83,8.81,8.81,0,0,1,6.85-3.05A8.28,8.28,0,0,1,753.7,148c1.65,1.87,2.49,4.68,2.53,8.41H741.18q0,4.7,2,6.33a6.38,6.38,0,0,0,4.16,1.65Q751.27,164.4,752.89,160.31Zm-.18-6.29a9,9,0,0,0-.58-3.1,5.33,5.33,0,0,0-1.8-2.31,5,5,0,0,0-3.06-1,5.48,5.48,0,0,0-4.07,1.72,7.19,7.19,0,0,0-1.88,4.64Z"/><path class="cls-1" d="M770.26,164.29v2.55a22.8,22.8,0,0,1-3,.22q-6,0-6-6.28V148.3h-3.67v-2.53h3.67l.14-5.2,3-.29v5.49h4.63v2.53h-4.63v13c0,2.13,1.1,3.2,3.32,3.2A15.89,15.89,0,0,0,770.26,164.29Z"/><path class="cls-1" d="M790,166.49h-3.18c-.12-.66-.25-1.9-.37-3.74a7.45,7.45,0,0,1-7.26,4.31,7.25,7.25,0,0,1-5.35-1.85,6,6,0,0,1-1.87-4.43,6.22,6.22,0,0,1,2.67-5.17q2.67-2,9.06-2c.58,0,1.49,0,2.75.08a12,12,0,0,0-.38-3.56,3.17,3.17,0,0,0-1.61-1.75,6.85,6.85,0,0,0-3.24-.66c-3.27,0-5.17,1.25-5.7,3.73l-3-.51q1.08-5.71,9.14-5.72,4.29,0,6.08,1.9t1.8,6.57v8.8A17.39,17.39,0,0,0,790,166.49Zm-3.55-10.36c-1.31-.08-2.31-.12-3-.12a11.73,11.73,0,0,0-5.93,1.25,4,4,0,0,0-2.11,3.66,3.41,3.41,0,0,0,1.14,2.59,4.62,4.62,0,0,0,3.29,1.07,6.12,6.12,0,0,0,4.79-2.12,7.25,7.25,0,0,0,1.87-5C786.5,157.1,786.48,156.65,786.44,156.13Z"/><path class="cls-1" d="M805.39,164.29v2.55a22.93,22.93,0,0,1-2.95.22q-6,0-6-6.28V148.3h-3.67v-2.53h3.67l.14-5.2,3-.29v5.49h4.63v2.53h-4.63v13c0,2.13,1.1,3.2,3.32,3.2A15.89,15.89,0,0,0,805.39,164.29Z"/><path class="cls-1" d="M818.31,164.29v2.55a22.93,22.93,0,0,1-2.95.22q-6,0-6-6.28V148.3h-3.67v-2.53h3.67l.14-5.2,3-.29v5.49h4.63v2.53h-4.63v13c0,2.13,1.1,3.2,3.32,3.2A15.89,15.89,0,0,0,818.31,164.29Z"/><path class="cls-1" d="M829.63,159.51h-3c0-2.13,0-3.46.09-4a4.62,4.62,0,0,1,.44-1.58,4,4,0,0,1,.83-1.23,12.75,12.75,0,0,1,2.18-1.41,19.29,19.29,0,0,0,2.58-1.63,5,5,0,0,0,1.23-1.62,4.91,4.91,0,0,0,.52-2.26,4.43,4.43,0,0,0-1.69-3.68,6.31,6.31,0,0,0-4-1.33q-5.21,0-6.36,6.05l-3-.66q1.53-8.27,9.58-8.26a9.57,9.57,0,0,1,6.62,2.25,7.34,7.34,0,0,1,2.52,5.75q0,4.58-5.25,7.3a9.57,9.57,0,0,0-2.81,1.9,3.59,3.59,0,0,0-.51,2.14Zm.7,2.94v4h-4.15v-4Z"/></svg>