<svg id="Layer_1" data-name="Layer 1" xmlns="http://www.w3.org/2000/svg" viewBox="0 0 980 120"><defs><style>.cls-1{fill:#d4ac76;}</style></defs><title>text</title><path class="cls-1" d="M187.06,61V44.77h5.34A4.89,4.89,0,0,1,196,46.12a4.48,4.48,0,0,1,1.4,3.35,3.86,3.86,0,0,1-1.82,3.27,4.46,4.46,0,0,1,1.8,1.45,3.43,3.43,0,0,1,.67,2.06,4.44,4.44,0,0,1-1.42,3.44A5.1,5.1,0,0,1,193,61Zm5-13.52h-2.18v4.07h2.43a2.21,2.21,0,0,0,1.61-.6,2,2,0,0,0,.63-1.5,1.72,1.72,0,0,0-.69-1.43A2.84,2.84,0,0,0,192.05,47.48Zm.46,6.51h-2.64v4.3h2.58a2.61,2.61,0,0,0,1.83-.61,2,2,0,0,0,.68-1.57,2,2,0,0,0-.64-1.54A2.56,2.56,0,0,0,192.51,54Z"/><path class="cls-1" d="M218.6,52.87a8.07,8.07,0,0,1-2.47,6,8.47,8.47,0,0,1-11.92,0,8.42,8.42,0,1,1,14.39-6Zm-12.25,3.88a5.35,5.35,0,0,0,7.63,0A5.57,5.57,0,0,0,214,49a5.32,5.32,0,0,0-7.63,0,5.59,5.59,0,0,0,0,7.77Z"/><path class="cls-1" d="M223.26,61V44.77h2.82v7.15l6.21-7.15h3.76l-5.73,6.47L236.18,61h-3.51l-4.42-7.41-2.17,2.46v5Z"/><path class="cls-1" d="M239.14,61l6.26-16.23h2.75L254.39,61h-3.13l-.86-2.25h-7.27L242.27,61Zm7.64-11.69L244.18,56h5.18Z"/><path class="cls-1" d="M266.84,61V44.77h2.94l5,8,5.08-8h3.19V61h-3V49.89l-.25,0-5,7.77L269.84,50h0V61Z"/><path class="cls-1" d="M304.41,52.87a8.43,8.43,0,1,1-2.47-5.95A8.11,8.11,0,0,1,304.41,52.87Zm-12.26,3.88a5.36,5.36,0,0,0,7.64,0,5.59,5.59,0,0,0,0-7.77,5.34,5.34,0,0,0-7.64,0,5.62,5.62,0,0,0,0,7.77Zm2.4-13.65a1.33,1.33,0,0,1-1,.43,1.35,1.35,0,0,1-1-.43,1.45,1.45,0,0,1-.42-1,1.42,1.42,0,0,1,1.42-1.45,1.32,1.32,0,0,1,1,.42,1.4,1.4,0,0,1,.42,1A1.48,1.48,0,0,1,294.55,43.1Zm4.83,0a1.5,1.5,0,0,1-1.07.43,1.54,1.54,0,0,1-1.08-.43,1.4,1.4,0,0,1-.45-1,1.35,1.35,0,0,1,.45-1,1.53,1.53,0,0,1,1.08-.42,1.49,1.49,0,0,1,1.07.42,1.35,1.35,0,0,1,.45,1A1.4,1.4,0,0,1,299.38,43.1Z"/><path class="cls-1" d="M306.8,47.69V44.77h13.38v2.92H315V61h-3V47.69Z"/><path class="cls-1" d="M333.11,54.13h-6v4.16h6.59V61h-9.64V44.77h9.45v2.71h-6.4v3.94h6Z"/><path class="cls-1" d="M363,52.87a8.07,8.07,0,0,1-2.47,6,8.43,8.43,0,0,1-11.93-11.9A8.44,8.44,0,0,1,363,52.87Zm-12.25,3.88a5.11,5.11,0,0,0,3.81,1.6,5.16,5.16,0,0,0,3.82-1.6,5.59,5.59,0,0,0,0-7.77,5.17,5.17,0,0,0-3.82-1.61A5.11,5.11,0,0,0,350.77,49a5.59,5.59,0,0,0,0,7.77Z"/><path class="cls-1" d="M381.62,58.71a8.08,8.08,0,0,1-6,2.56,8.23,8.23,0,0,1-6-2.45,8.42,8.42,0,1,1,12-11.85l-2.14,2.08a5.07,5.07,0,0,0-3.85-1.68A5.19,5.19,0,0,0,371.74,49a5.62,5.62,0,0,0,0,7.77,5.18,5.18,0,0,0,3.86,1.6,5.1,5.1,0,0,0,3.88-1.7Z"/><path class="cls-1" d="M396,61V54.22h-6.95V61H386V44.77h3.05V51.3H396V44.77h3.05V61Z"/><path class="cls-1" d="M413.23,61V44.77h8.84v2.71h-5.8v4.43h5.17v2.71h-5.17V61Z"/><path class="cls-1" d="M442.46,52.87a8.07,8.07,0,0,1-2.47,6,8.47,8.47,0,0,1-11.92,0,8.42,8.42,0,1,1,14.39-6Zm-12.25,3.88a5.35,5.35,0,0,0,7.63,0,5.57,5.57,0,0,0,0-7.77,5.32,5.32,0,0,0-7.63,0,5.59,5.59,0,0,0,0,7.77Zm2.4-13.65a1.35,1.35,0,0,1-1,.43,1.37,1.37,0,0,1-1-.43,1.44,1.44,0,0,1-.41-1,1.42,1.42,0,0,1,.4-1,1.45,1.45,0,0,1,1-.42,1.35,1.35,0,0,1,1,.42,1.43,1.43,0,0,1,.41,1A1.47,1.47,0,0,1,432.61,43.1Zm4.83,0a1.57,1.57,0,0,1-2.16,0,1.43,1.43,0,0,1-.44-1,1.38,1.38,0,0,1,.44-1,1.6,1.6,0,0,1,2.16,0,1.38,1.38,0,0,1,.44,1A1.43,1.43,0,0,1,437.44,43.1Z"/><path class="cls-1" d="M447.12,61V44.77h6.36a5.47,5.47,0,0,1,3.9,1.47A5,5,0,0,1,459,50.09a4.86,4.86,0,0,1-1.17,3.29,5.21,5.21,0,0,1-3,1.73L459.11,61h-3.42l-4.21-5.8h-1.31V61ZM453,47.48h-2.83v5.29H453a3,3,0,0,0,2.11-.72,2.42,2.42,0,0,0,.79-1.88,2.55,2.55,0,0,0-.81-1.92A2.87,2.87,0,0,0,453,47.48Z"/><path class="cls-1" d="M467.9,61l-6.2-16.23h3.17l4.46,11.67,4.4-11.67h3.08L470.66,61Z"/><path class="cls-1" d="M489.69,54.13h-6v4.16h6.6V61h-9.64V44.77h9.45v2.71h-6.41v3.94h6Z"/><path class="cls-1" d="M495.21,61V44.77h6.36a5.47,5.47,0,0,1,3.9,1.47A5,5,0,0,1,507,50.09a4.86,4.86,0,0,1-1.17,3.29,5.21,5.21,0,0,1-3,1.73L507.2,61h-3.42l-4.21-5.8h-1.31V61Zm5.88-13.52h-2.83v5.29h2.83a3,3,0,0,0,2.11-.72,2.42,2.42,0,0,0,.79-1.88,2.55,2.55,0,0,0-.81-1.92A2.87,2.87,0,0,0,501.09,47.48Z"/><path class="cls-1" d="M511.78,61V44.77h2.82v7.15l6.21-7.15h3.76l-5.73,6.47L524.7,61h-3.51l-4.42-7.41-2.17,2.46v5Z"/><path class="cls-1" d="M529,61V44.77h3V58.08h6V61Z"/><path class="cls-1" d="M542.4,61V44.77h3V61Z"/><path class="cls-1" d="M561.15,54.22V51.51H567l0,1.38a8.35,8.35,0,0,1-1.19,4.31,8.15,8.15,0,0,1-3.07,3,8.39,8.39,0,0,1-4.14,1.06,8.42,8.42,0,1,1,0-16.84,8,8,0,0,1,6,2.62l-2.08,2a5.24,5.24,0,0,0-4-1.75,5.19,5.19,0,0,0-3.89,1.59,5.73,5.73,0,0,0,0,7.82,4.93,4.93,0,0,0,3.68,1.59A5.76,5.76,0,0,0,562,57.21a5.15,5.15,0,0,0,1.91-3Z"/><path class="cls-1" d="M569.2,61l6.26-16.23h2.75L584.44,61h-3.13l-.86-2.25h-7.26L572.33,61Zm7.63-11.69L574.24,56h5.17Z"/><path class="cls-1" d="M606.89,61V54.22h-6.95V61h-3.05V44.77h3.05V51.3h6.95V44.77h3.05V61Z"/><path class="cls-1" d="M626,59.54a6.62,6.62,0,0,1-8.88,0,5.74,5.74,0,0,1-1.75-4.29V44.77h3V54.85a3.71,3.71,0,0,0,.84,2.5,3.22,3.22,0,0,0,4.62,0,3.63,3.63,0,0,0,.84-2.47V44.77h3V55.25A5.75,5.75,0,0,1,626,59.54Z"/><path class="cls-1" d="M637.6,61.21a7.74,7.74,0,0,1-3.06-.64,8,8,0,0,1-2.63-1.78l1.93-2.31a5.92,5.92,0,0,0,1.79,1.45,4.58,4.58,0,0,0,2.14.57,2.59,2.59,0,0,0,1.73-.56,1.75,1.75,0,0,0,.68-1.4,2.42,2.42,0,0,0-1.78-2.25l-1.82-.72a7,7,0,0,1-2.69-1.8A4.11,4.11,0,0,1,633,49a4.23,4.23,0,0,1,1.38-3.09,4.73,4.73,0,0,1,3.44-1.35,7,7,0,0,1,5,1.85L641,48.7a4.17,4.17,0,0,0-3.21-1.41,2.16,2.16,0,0,0-1.45.46,1.45,1.45,0,0,0-.55,1.15,1.5,1.5,0,0,0,.43,1.11,4.28,4.28,0,0,0,1.39.84l1.89.76q3.62,1.44,3.68,4.68a4.53,4.53,0,0,1-1.53,3.55A5.91,5.91,0,0,1,637.6,61.21Z"/><path class="cls-1" d="M647.86,61V44.77h4.63a7.94,7.94,0,0,1,5.75,2.32,7.83,7.83,0,0,1,2.39,5.85,7.59,7.59,0,0,1-2.42,5.79A8.3,8.3,0,0,1,652.33,61Zm4.67-13.52h-1.85V58.29h1.87a4.66,4.66,0,0,0,3.59-1.57,5.52,5.52,0,0,0,1.44-3.87A5.31,5.31,0,0,0,656.12,49,4.75,4.75,0,0,0,652.53,47.48Z"/><path class="cls-1" d="M665.38,61V44.77h6.35a5.49,5.49,0,0,1,3.91,1.47,5.06,5.06,0,0,1,1.56,3.85A4.9,4.9,0,0,1,676,53.38a5.27,5.27,0,0,1-3,1.73L677.37,61h-3.43l-4.21-5.8h-1.31V61Zm5.87-13.52h-2.83v5.29h2.83a3,3,0,0,0,2.12-.72,2.44,2.44,0,0,0,.78-1.88,2.55,2.55,0,0,0-.81-1.92A2.85,2.85,0,0,0,671.25,47.48Z"/><path class="cls-1" d="M698,52.87a8.07,8.07,0,0,1-2.47,6,8.43,8.43,0,1,1-6-14.37A8.43,8.43,0,0,1,698,52.87Zm-12.26,3.88a5.36,5.36,0,0,0,7.64,0,5.59,5.59,0,0,0,0-7.77,5.34,5.34,0,0,0-7.64,0,5.62,5.62,0,0,0,0,7.77Zm2.4-13.65a1.33,1.33,0,0,1-1,.43,1.37,1.37,0,0,1-1-.43,1.45,1.45,0,0,1-.42-1,1.42,1.42,0,0,1,1.42-1.45,1.32,1.32,0,0,1,1,.42,1.4,1.4,0,0,1,.42,1A1.48,1.48,0,0,1,688.11,43.1Zm4.83,0a1.5,1.5,0,0,1-1.07.43,1.54,1.54,0,0,1-1.08-.43,1.4,1.4,0,0,1-.45-1,1.35,1.35,0,0,1,.45-1,1.53,1.53,0,0,1,1.08-.42,1.49,1.49,0,0,1,1.07.42,1.35,1.35,0,0,1,.45,1A1.4,1.4,0,0,1,692.94,43.1Z"/><path class="cls-1" d="M702.63,61V44.77h2.94l5,8,5.08-8h3.19V61h-3V49.89l-.25,0-5,7.77L705.63,50h0V61Z"/><path class="cls-1" d="M724.47,61V44.77h2.94l5,8,5.08-8h3.19V61h-3V49.89l-.25,0-5,7.77L727.47,50h0V61Z"/><path class="cls-1" d="M755.36,54.13h-6v4.16H756V61h-9.64V44.77h9.45v2.71h-6.41v3.94h6Z"/><path class="cls-1" d="M760.88,61V44.77H763L771,55V44.77h3V61h-2l-8.08-10.33V61Z"/></svg>