<svg id="Layer_1" data-name="Layer 1" xmlns="http://www.w3.org/2000/svg" viewBox="0 0 980 120"><defs><style>.cls-1{fill:#d4ac76;}</style></defs><title>text</title><path class="cls-1" d="M281.09,84.9h-4.77v3.54h5.1V90H274.7V78.39h6.63v1.54h-5v3.42h4.77Z"/><path class="cls-1" d="M284.21,79.93V78.39h9.39v1.54h-3.89V90h-1.62v-10Z"/><path class="cls-1" d="M295.89,79.93V78.39h9.39v1.54H301.4V90h-1.62v-10Z"/><path class="cls-1" d="M318.33,90,313.8,78.39h1.82l3.48,8.91,3.48-8.91h1.79L319.83,90Z"/><path class="cls-1" d="M325.35,90,330,78.39h1.46L336,90h-1.79l-.7-1.78h-5.69L327.15,90Zm4.19-12.82a.76.76,0,0,1-.58.25.72.72,0,0,1-.57-.25,1,1,0,0,1,0-1.26.73.73,0,0,1,.57-.26.77.77,0,0,1,.58.26.95.95,0,0,1,0,1.26Zm1.2,3.89-2.25,5.6h4.45Zm2-3.89a.72.72,0,0,1-.57.25.76.76,0,0,1-.58-.25,1,1,0,0,1,0-1.26.77.77,0,0,1,.58-.26.73.73,0,0,1,.57.26.95.95,0,0,1,0,1.26Z"/><path class="cls-1" d="M339.26,90V78.39h4.3a3.59,3.59,0,0,1,2.61,1A3.46,3.46,0,0,1,347.22,82a3.53,3.53,0,0,1-.86,2.42,3.46,3.46,0,0,1-2.22,1.13L347.49,90h-2l-3.33-4.42h-1.29V90Zm4.09-10h-2.47v4.19h2.45a2.32,2.32,0,0,0,1.64-.58A2,2,0,0,0,345.6,82a1.93,1.93,0,0,0-.64-1.48A2.21,2.21,0,0,0,343.35,79.93Z"/><path class="cls-1" d="M351.29,90V78.39h3.11a5.83,5.83,0,0,1,4.05,9.94A5.64,5.64,0,0,1,354.34,90Zm3.17-10h-1.55v8.51h1.59a3.74,3.74,0,0,0,2.86-1.25,4.28,4.28,0,0,0,1.16-3,4.14,4.14,0,0,0-1.2-3A3.86,3.86,0,0,0,354.46,79.93Z"/><path class="cls-1" d="M370.52,84.9h-4.77v3.54h5.1V90h-6.72V78.39h6.63v1.54h-5v3.42h4.77Z"/><path class="cls-1" d="M374.87,90V78.39h6.33v1.54h-4.71v3.65h4.17v1.54h-4.17V90Z"/><path class="cls-1" d="M388.74,90.18a4.05,4.05,0,0,1-3-1.22,4.2,4.2,0,0,1-1.18-3.06V78.39h1.62V85.8a3,3,0,0,0,.69,2,2.35,2.35,0,0,0,1.9.8,2.42,2.42,0,0,0,1.91-.78,3,3,0,0,0,.7-2V78.39H393V85.9A4.2,4.2,0,0,1,391.79,89,4.05,4.05,0,0,1,388.74,90.18Z"/><path class="cls-1" d="M397.58,90V78.39h1.62v10H404V90Z"/><path class="cls-1" d="M407.52,90V78.39h1.62v10h4.77V90Z"/><path class="cls-1" d="M414.21,79.93V78.39h9.39v1.54h-3.88V90H418.1v-10Z"/><path class="cls-1" d="M439.79,84.9H435v3.54h5.1V90H433.4V78.39H440v1.54h-5v3.42h4.77Z"/><path class="cls-1" d="M444.14,90V78.39h4.3a3.59,3.59,0,0,1,2.61,1,3.8,3.8,0,0,1,.18,5A3.42,3.42,0,0,1,449,85.57L452.37,90h-2l-3.33-4.42h-1.29V90Zm4.09-10h-2.47v4.19h2.45a2.32,2.32,0,0,0,1.64-.58,2,2,0,0,0,.63-1.52,1.93,1.93,0,0,0-.64-1.48A2.21,2.21,0,0,0,448.23,79.93Z"/><path class="cls-1" d="M456.17,90V78.39h3.54a3.75,3.75,0,0,1,2.56.89,3,3,0,0,1,1,2.35,2.75,2.75,0,0,1-1.38,2.49,2.86,2.86,0,0,1,1.24,1,2.69,2.69,0,0,1,.47,1.56,3,3,0,0,1-1,2.37A3.73,3.73,0,0,1,460,90Zm3.38-10h-1.76v3.53h2.06a1.75,1.75,0,0,0,1.29-.52,1.8,1.8,0,0,0,.52-1.33,1.51,1.51,0,0,0-.58-1.22A2.44,2.44,0,0,0,459.55,79.93Zm.36,5h-2.12v3.54h2a2.39,2.39,0,0,0,1.6-.5,1.65,1.65,0,0,0,.59-1.32,1.58,1.58,0,0,0-.54-1.24A2.22,2.22,0,0,0,459.91,84.9Z"/><path class="cls-1" d="M469.88,90.16a3.89,3.89,0,0,1-2.3-.69,3.57,3.57,0,0,1-1.38-1.87l1.5-.74a2.59,2.59,0,0,0,.82,1.28,2.06,2.06,0,0,0,1.36.48,2,2,0,0,0,1.57-.66,2.65,2.65,0,0,0,.57-1.79V78.39h1.62v7.74a4,4,0,0,1-1.05,3A3.66,3.66,0,0,1,469.88,90.16Z"/><path class="cls-1" d="M482.08,90.18a4,4,0,0,1-3-1.22,4.21,4.21,0,0,1-1.19-3.06V78.39h1.62V85.8a3,3,0,0,0,.69,2,2.38,2.38,0,0,0,1.9.8,2.46,2.46,0,0,0,1.92-.78,3,3,0,0,0,.7-2V78.39h1.62V85.9A4.24,4.24,0,0,1,485.14,89,4.09,4.09,0,0,1,482.08,90.18Z"/><path class="cls-1" d="M490.92,90V78.39H494a5.84,5.84,0,0,1,4.06,9.94A5.68,5.68,0,0,1,494,90Zm3.17-10h-1.55v8.51h1.6A3.74,3.74,0,0,0,497,87.19a4.24,4.24,0,0,0,1.16-3,4.17,4.17,0,0,0-1.19-3A3.9,3.9,0,0,0,494.09,79.93Z"/><path class="cls-1" d="M502.07,90l4.65-11.59h1.47L512.75,90H511l-.7-1.78h-5.68L503.86,90Zm5.38-8.93-2.25,5.6h4.45Z"/><path class="cls-1" d="M516,90V78.39h1.13l6.28,8v-8H525V90h-.9l-6.51-8.28V90Z"/><path class="cls-1" d="M529.85,90V78.39H533a5.77,5.77,0,0,1,5.75,5.77A5.7,5.7,0,0,1,532.9,90Zm3.17-10h-1.55v8.51h1.59a3.76,3.76,0,0,0,2.86-1.25,4.28,4.28,0,0,0,1.16-3,4.14,4.14,0,0,0-1.2-3A3.88,3.88,0,0,0,533,79.93Z"/><path class="cls-1" d="M549.08,84.9h-4.77v3.54h5.1V90h-6.72V78.39h6.63v1.54h-5v3.42h4.77Z"/><path class="cls-1" d="M563,90l-4.53-11.59h1.82l3.48,8.91,3.48-8.91H569L564.45,90Z"/><path class="cls-1" d="M570,90l4.66-11.59h1.46L580.66,90h-1.79l-.7-1.78h-5.69L571.76,90Zm4.19-12.82a.76.76,0,0,1-.58.25.72.72,0,0,1-.57-.25,1,1,0,0,1,0-1.26.73.73,0,0,1,.57-.26.77.77,0,0,1,.58.26.95.95,0,0,1,0,1.26Zm1.2,3.89-2.26,5.6h4.46Zm2-3.89a.72.72,0,0,1-.57.25.76.76,0,0,1-.58-.25,1,1,0,0,1,0-1.26.77.77,0,0,1,.58-.26.73.73,0,0,1,.57.26.95.95,0,0,1,0,1.26Z"/><path class="cls-1" d="M583.88,90V78.39H585l6.28,8v-8h1.62V90H592L585.5,81.7V90Z"/><path class="cls-1" d="M596.22,79.93V78.39h9.39v1.54h-3.88V90h-1.62v-10Z"/><path class="cls-1" d="M606.36,90,611,78.39h1.46L617.05,90h-1.79l-.7-1.78h-5.69L608.16,90Zm5.39-8.93-2.26,5.6H614Z"/><path class="cls-1" d="M620.27,90V78.39h4.3a3.59,3.59,0,0,1,2.61,1,3.8,3.8,0,0,1,.18,5,3.42,3.42,0,0,1-2.21,1.13L628.5,90h-2l-3.33-4.42h-1.29V90Zm4.08-10h-2.46v4.19h2.45a2.32,2.32,0,0,0,1.64-.58,2,2,0,0,0,.63-1.52,1.93,1.93,0,0,0-.64-1.48A2.22,2.22,0,0,0,624.35,79.93Z"/><path class="cls-1" d="M638.57,90V78.39h3.95a3.62,3.62,0,0,1,2.69,1.08,3.74,3.74,0,0,1,1.08,2.76,3.63,3.63,0,0,1-1.11,2.71A3.73,3.73,0,0,1,642.46,86h-2.27v4Zm3.84-10h-2.22v4.55h2.24a2.31,2.31,0,0,0,1.6-3.9A2.17,2.17,0,0,0,642.41,79.93Z"/><path class="cls-1" d="M647.81,90l4.65-11.59h1.47L658.49,90H656.7L656,88.2h-5.68L649.6,90Zm5.38-8.93-2.25,5.6h4.45Zm1.12-3.45a1.52,1.52,0,0,1-1.12.46,1.48,1.48,0,0,1-1.11-.46,1.52,1.52,0,0,1-.46-1.12,1.57,1.57,0,0,1,1.57-1.57,1.52,1.52,0,0,1,1.12.46,1.48,1.48,0,0,1,.46,1.11A1.52,1.52,0,0,1,654.31,77.6Zm-1.12-.47a.59.59,0,0,0,.44-.2.61.61,0,0,0,.19-.45.58.58,0,0,0-.19-.45.58.58,0,0,0-.44-.19.65.65,0,0,0-.64.64.61.61,0,0,0,.19.45A.59.59,0,0,0,653.19,77.13Z"/><path class="cls-1" d="M674.57,84.9H669.8v3.54h5.1V90h-6.72V78.39h6.63v1.54h-5v3.42h4.77Z"/><path class="cls-1" d="M678.92,90V78.39h4.3a3.59,3.59,0,0,1,2.61,1,3.8,3.8,0,0,1,.18,5,3.42,3.42,0,0,1-2.21,1.13L687.15,90h-2l-3.33-4.42h-1.29V90Zm4.08-10h-2.46v4.19H683a2.32,2.32,0,0,0,1.64-.58,2,2,0,0,0,.63-1.52,1.93,1.93,0,0,0-.64-1.48A2.22,2.22,0,0,0,683,79.93Z"/></svg>