<svg id="Layer_1" data-name="Layer 1" xmlns="http://www.w3.org/2000/svg" viewBox="0 0 980 300"><defs><style>.cls-1{fill:#fff;}</style></defs><title>text</title><path class="cls-1" d="M554.68,193.5H541.5c-1.08,0-1.62-.42-1.62-1.27V171.4c0-.86.54-1.3,1.62-1.3s1.62.44,1.62,1.3v19.14h11.56c.74,0,1.11.5,1.11,1.48S555.42,193.5,554.68,193.5Z"/><path class="cls-1" d="M572.4,190.4c.74,0,1.11.45,1.11,1.34a1.46,1.46,0,0,1-1.11,1.62,28.14,28.14,0,0,1-5.85.42c-2.74,0-4.71-.45-5.89-1.34s-1.78-2.38-1.79-4.48v-6.59c0-2.2.54-3.69,1.61-4.45s3.09-1.14,6-1.14,4.93.36,6,1.09,1.55,2.23,1.55,4.5v2.85a2,2,0,0,1-.48,1.37,1.56,1.56,0,0,1-1.21.49H562.1v2.11q0,2.66,4.62,2.64a26.33,26.33,0,0,0,3.52-.21A17.34,17.34,0,0,1,572.4,190.4Zm-10.3-9v1.85h8.69v-1.85a2.31,2.31,0,0,0-.88-2.1,7.36,7.36,0,0,0-3.43-.55,7.73,7.73,0,0,0-3.45.52A2.25,2.25,0,0,0,562.1,181.38Z"/><path class="cls-1" d="M589,188.21v-.41a1.31,1.31,0,0,0-.84-1.24,7.33,7.33,0,0,0-2.94-.39,18.19,18.19,0,0,1-4.64-.65,3.85,3.85,0,0,1-2.11-1.43,4.61,4.61,0,0,1-.84-2.88v-.3c0-2,.6-3.36,1.81-4a11.33,11.33,0,0,1,5.52-1.05,22.78,22.78,0,0,1,5.48.48,1.46,1.46,0,0,1,1.11,1.62c0,.89-.37,1.33-1.11,1.33a19.17,19.17,0,0,1-2.26-.23,25.74,25.74,0,0,0-3.61-.24,9.18,9.18,0,0,0-2.81.31c-.6.21-.9.81-.9,1.78v.33q0,1.92,4,2c1.11.05,2.23.14,3.36.28a5.16,5.16,0,0,1,2.85,1.25,3.74,3.74,0,0,1,1.16,3v.44q0,3.22-1.83,4.41t-5.89,1.16a25.49,25.49,0,0,1-5.82-.46,1.45,1.45,0,0,1-1.11-1.61c0-.9.37-1.34,1.11-1.34.43,0,1.28.08,2.55.23a31.37,31.37,0,0,0,3.69.23,7.38,7.38,0,0,0,2.94-.49A2.06,2.06,0,0,0,589,188.21Z"/><path class="cls-1" d="M612,193.67a2.73,2.73,0,0,1-1.72-.58,3.16,3.16,0,0,1-1.09-1.46l-5.1-13.72c-.07-.37-.11-.56-.12-.58,0-.85.52-1.26,1.56-1.25a1.49,1.49,0,0,1,1.58.93l4.82,13.53h.18L616.91,177q.35-.93,1.74-.93c.93,0,1.39.41,1.39,1.25,0,0,0,.21-.11.58l-5.11,13.72a3,3,0,0,1-1.09,1.48A2.89,2.89,0,0,1,612,193.67Z"/><path class="cls-1" d="M625.1,179.21c-.75,0-1.12-.45-1.12-1.34a1.46,1.46,0,0,1,1.12-1.62,25.49,25.49,0,0,1,5.84-.47q4.08,0,5.52,1.3t1.46,4.54v6.94q0,3.25-1.59,4.23c-1.05.66-3.08,1-6.07,1s-5-.33-6-1-1.5-2.07-1.5-4.22.39-3.64,1.16-4.45,2.39-1.23,4.79-1.21h5.95v-1.87a2,2,0,0,0-.82-1.82,6.1,6.1,0,0,0-2.94-.5,22.9,22.9,0,0,0-3.67.25A14.66,14.66,0,0,1,625.1,179.21Zm9.58,9.61v-3.06h-5a6.29,6.29,0,0,0-3,.46c-.46.31-.68,1-.68,2.07s.28,1.79.85,2.1a8.82,8.82,0,0,0,3.43.44,10.11,10.11,0,0,0,3.46-.39A1.61,1.61,0,0,0,634.68,188.82ZM628.4,174a3.39,3.39,0,0,1,0-4.74,3.16,3.16,0,0,1,2.36-1,3.36,3.36,0,0,1,2.37,5.73,3.38,3.38,0,0,1-4.74,0Zm.94-2.37a1.43,1.43,0,0,0,.42,1,1.47,1.47,0,0,0,2,0,1.47,1.47,0,0,0,.42-1,1.46,1.46,0,0,0-2.48-1A1.36,1.36,0,0,0,629.34,171.58Z"/><path class="cls-1" d="M646.16,183.27v9c0,.85-.54,1.27-1.61,1.27s-1.61-.42-1.62-1.27v-9.38a11.29,11.29,0,0,1,.57-4.49,6.35,6.35,0,0,1,1.07-1.53q1.15-1.05,5.79-1.05a10.08,10.08,0,0,1,3.13.31,1.14,1.14,0,0,1,.79,1.15,1.66,1.66,0,0,1-.44,1.24,1.48,1.48,0,0,1-1.11.41l-2.37-.16a10.83,10.83,0,0,0-2.76.21,2.67,2.67,0,0,0-.81.41,3.19,3.19,0,0,0-.38.82,4.07,4.07,0,0,0-.23,1.26C646.17,181.86,646.16,182.48,646.16,183.27Z"/><path class="cls-1" d="M663.06,193.5a4.55,4.55,0,0,1-3.43-1.05,5.32,5.32,0,0,1-1-3.62v-9.9h-2.27c-.73,0-1.09-.48-1.09-1.43s.36-1.42,1.09-1.42h2.27V171.5q0-1.26,1.62-1.26c1.07,0,1.61.42,1.61,1.26v4.58h4.59c.73,0,1.09.47,1.09,1.42s-.36,1.43-1.09,1.43h-4.59v10.14c0,1,.59,1.47,1.76,1.47l3.06-.17c.75,0,1.12.43,1.12,1.3a1.65,1.65,0,0,1-1.16,1.72C665.9,193.46,664.69,193.5,663.06,193.5Z"/><path class="cls-1" d="M679.79,184.94V170.68c0-.87.55-1.3,1.62-1.3s1.61.43,1.61,1.3v5.81a10.87,10.87,0,0,1,4.33-.71,18.82,18.82,0,0,1,4.17.35A5,5,0,0,1,694,177.5a5.64,5.64,0,0,1,1.4,2.77,23.28,23.28,0,0,1,.38,4.67,23.61,23.61,0,0,1-.36,4.63,4.8,4.8,0,0,1-1.42,2.66,5.52,5.52,0,0,1-2.43,1.24,18.75,18.75,0,0,1-3.78.31,18.29,18.29,0,0,1-3.74-.3,4.93,4.93,0,0,1-2.39-1.25,5.15,5.15,0,0,1-1.42-2.69A20.93,20.93,0,0,1,679.79,184.94Zm12.71.73c0-1.55,0-2.78-.13-3.69a5,5,0,0,0-.9-2.47c-.35-.52-1.59-.78-3.73-.78-1.85,0-3,.17-3.38.5a2.82,2.82,0,0,0-1.07,1.61,18.6,18.6,0,0,0-.34,3.62c0,1.27,0,2.35.13,3.25a4.5,4.5,0,0,0,.93,2.39,2.86,2.86,0,0,0,2.13.73c.35,0,.89,0,1.6,0s1.25,0,1.6,0a7.49,7.49,0,0,0,1.2-.2,1.58,1.58,0,0,0,.93-.51,7.76,7.76,0,0,0,.64-1.26A8.84,8.84,0,0,0,692.5,185.67Z"/><path class="cls-1" d="M704,170.68v21.55c0,.85-.53,1.27-1.61,1.27s-1.62-.42-1.62-1.27V170.68c0-.87.54-1.3,1.62-1.3S704,169.81,704,170.68Z"/><path class="cls-1" d="M709.14,184.94a22.19,22.19,0,0,1,.4-4.66,5,5,0,0,1,3.83-4.15,20.37,20.37,0,0,1,7.52,0,5.07,5.07,0,0,1,2.44,1.37,5.75,5.75,0,0,1,1.42,2.77,27.86,27.86,0,0,1,0,9.29,4.94,4.94,0,0,1-1.44,2.66,5.33,5.33,0,0,1-2.42,1.24,17.72,17.72,0,0,1-3.76.32,18.64,18.64,0,0,1-3.76-.3,5.15,5.15,0,0,1-2.43-1.25,4.88,4.88,0,0,1-1.42-2.69A22.38,22.38,0,0,1,709.14,184.94Zm3.62-4.12a9.46,9.46,0,0,0-.38,3.22q0,2.29.12,3.66a4.48,4.48,0,0,0,.91,2.37,2.86,2.86,0,0,0,2.11.72c.35,0,.89,0,1.61,0,2.11,0,3.35-.26,3.72-.76a4.74,4.74,0,0,0,.93-2.39c.08-.87.12-1.78.12-2.72,0-2.8-.26-4.49-.78-5.08a4.39,4.39,0,0,0-.62-.65,4.28,4.28,0,0,0-2.53-.5c-1.29,0-2.12,0-2.47,0a2.74,2.74,0,0,0-2.09.74A9.21,9.21,0,0,0,712.76,180.82Z"/><path class="cls-1" d="M742.45,174.08c0-.77.54-1.15,1.62-1.15s1.62.4,1.62,1.19v7.62q0,3.39-1.71,4.46t-5.67,1.08a26.41,26.41,0,0,1-5.28-.34v2.78h6.57q3.67,0,5,1.28c.87.87,1.3,2.31,1.3,4.32s-.59,3.39-1.76,4.15-3.25,1.13-6.23,1.13-5.08-.34-6.28-1-1.82-2.06-1.83-4.17V181.26a6,6,0,0,1,1-3.93c.67-.78,1.94-1.23,3.81-1.37a30.09,30.09,0,0,1,7.85.36ZM733,181.67c0,1.29.25,2.08.72,2.35a8.81,8.81,0,0,0,3.47.41,15.69,15.69,0,0,0,3.74-.29,1.81,1.81,0,0,0,1.25-.88,5.55,5.55,0,0,0,.24-1.95v-2.14a40.08,40.08,0,0,0-5.14-.37,7.36,7.36,0,0,0-3.31.53,2.31,2.31,0,0,0-1,2.2Zm0,10.9v3a1.74,1.74,0,0,0,1.16,1.71,10.34,10.34,0,0,0,3.81.5,8,8,0,0,0,3.54-.53,2.15,2.15,0,0,0,.91-2,2.27,2.27,0,0,0-.87-2.07,6.48,6.48,0,0,0-3.16-.54Z"/><path class="cls-1" d="M762.63,174.08c0-.77.54-1.15,1.62-1.15s1.62.4,1.62,1.19v7.62q0,3.39-1.71,4.46t-5.67,1.08a26.41,26.41,0,0,1-5.28-.34v2.78h6.57q3.68,0,5,1.28c.87.87,1.3,2.31,1.3,4.32s-.59,3.39-1.76,4.15-3.25,1.13-6.23,1.13-5.08-.34-6.29-1-1.81-2.06-1.82-4.17V181.26a6,6,0,0,1,1-3.93c.67-.78,1.94-1.23,3.81-1.37a30.09,30.09,0,0,1,7.85.36Zm-9.42,7.59c0,1.29.25,2.08.72,2.35a8.81,8.81,0,0,0,3.47.41,15.69,15.69,0,0,0,3.74-.29,1.81,1.81,0,0,0,1.25-.88,5.55,5.55,0,0,0,.24-1.95v-2.14a40.08,40.08,0,0,0-5.14-.37,7.36,7.36,0,0,0-3.31.53,2.31,2.31,0,0,0-1,2.2Zm0,10.9v3a1.74,1.74,0,0,0,1.16,1.71,10.34,10.34,0,0,0,3.81.5,8,8,0,0,0,3.54-.53,2.15,2.15,0,0,0,.91-2,2.27,2.27,0,0,0-.87-2.07,6.5,6.5,0,0,0-3.17-.54Z"/><path class="cls-1" d="M770.31,171.89a1.85,1.85,0,0,1,1.76-1.79,1.66,1.66,0,0,1,1.25.55,1.81,1.81,0,0,1,.51,1.26,1.81,1.81,0,0,1-1.76,1.76,1.78,1.78,0,0,1-1.76-1.78Zm3.38,5.44v14.9c0,.85-.54,1.27-1.62,1.27s-1.61-.42-1.61-1.27v-14.9c0-.85.53-1.27,1.61-1.27S773.69,176.48,773.69,177.33Z"/><path class="cls-1" d="M782.83,179.35c-.4.41-.6,1.71-.6,3.89v9c0,.85-.53,1.27-1.61,1.27s-1.61-.42-1.62-1.27v-9.38a18.41,18.41,0,0,1,.31-3.87,3.43,3.43,0,0,1,1.27-2.11,4.76,4.76,0,0,1,2.21-.9,35.19,35.19,0,0,1,4-.19q4.53,0,5.73,1.11a4.78,4.78,0,0,1,1.4,3.16,27.37,27.37,0,0,1,.12,2.8v9.38c0,.85-.53,1.27-1.61,1.27s-1.62-.42-1.62-1.27v-9c0-2.16-.2-3.45-.62-3.87s-1.64-.64-3.69-.64S783.23,178.94,782.83,179.35Z"/><path class="cls-1" d="M802.91,179.35c-.4.41-.6,1.71-.6,3.89v9c0,.85-.54,1.27-1.61,1.27s-1.62-.42-1.63-1.27v-9.38a18.29,18.29,0,0,1,.32-3.87,3.42,3.42,0,0,1,1.26-2.11,4.84,4.84,0,0,1,2.22-.9,34.84,34.84,0,0,1,4-.19q4.53,0,5.73,1.11a4.74,4.74,0,0,1,1.41,3.16,27.37,27.37,0,0,1,.12,2.8v9.38c0,.85-.54,1.27-1.62,1.27s-1.62-.42-1.62-1.27v-9c0-2.16-.2-3.45-.61-3.87s-1.64-.64-3.7-.64S803.3,178.94,802.91,179.35Z"/><path class="cls-1" d="M822.68,170.68v21.55c0,.85-.54,1.27-1.62,1.27s-1.61-.42-1.61-1.27V170.68c0-.87.53-1.3,1.61-1.3S822.68,169.81,822.68,170.68Z"/><path class="cls-1" d="M841.38,190.4c.74,0,1.11.45,1.11,1.34a1.46,1.46,0,0,1-1.11,1.62,28.14,28.14,0,0,1-5.85.42c-2.74,0-4.71-.45-5.89-1.34s-1.78-2.38-1.79-4.48v-6.59c0-2.2.54-3.69,1.61-4.45s3.09-1.14,6-1.14,4.92.36,6,1.09,1.54,2.23,1.54,4.5v2.85a2,2,0,0,1-.47,1.37,1.6,1.6,0,0,1-1.22.49H831.08v2.11q0,2.66,4.63,2.64a26.28,26.28,0,0,0,3.51-.21A17.34,17.34,0,0,1,841.38,190.4Zm-10.3-9v1.85h8.69v-1.85a2.31,2.31,0,0,0-.88-2.1,7.36,7.36,0,0,0-3.43-.55,7.73,7.73,0,0,0-3.45.52A2.25,2.25,0,0,0,831.08,181.38Z"/><path class="cls-1" d="M860.51,174.08c0-.77.54-1.15,1.62-1.15s1.61.4,1.61,1.19v7.62q0,3.39-1.7,4.46t-5.67,1.08a26.27,26.27,0,0,1-5.28-.34v2.78h6.56q3.69,0,5,1.28c.87.87,1.3,2.31,1.3,4.32s-.58,3.39-1.75,4.15S859,200.6,856,200.6s-5.07-.34-6.28-1-1.82-2.06-1.83-4.17V181.26a6,6,0,0,1,1-3.93c.66-.78,1.93-1.23,3.81-1.37a30.09,30.09,0,0,1,7.85.36Zm-9.42,7.59c0,1.29.25,2.08.72,2.35a8.74,8.74,0,0,0,3.47.41,15.75,15.75,0,0,0,3.74-.29,1.78,1.78,0,0,0,1.24-.88,5.27,5.27,0,0,0,.25-1.95v-2.14a40.21,40.21,0,0,0-5.14-.37,7.41,7.41,0,0,0-3.32.53,2.33,2.33,0,0,0-1,2.2Zm0,10.9v3a1.73,1.73,0,0,0,1.15,1.71,10.41,10.41,0,0,0,3.81.5,8,8,0,0,0,3.55-.53,2.17,2.17,0,0,0,.91-2,2.27,2.27,0,0,0-.87-2.07,6.53,6.53,0,0,0-3.17-.54Z"/><path class="cls-1" d="M880.69,174.08c0-.77.54-1.15,1.61-1.15s1.62.4,1.62,1.19v7.62q0,3.39-1.7,4.46t-5.67,1.08a26.27,26.27,0,0,1-5.28-.34v2.78h6.56q3.69,0,5,1.28c.87.87,1.3,2.31,1.3,4.32s-.58,3.39-1.75,4.15-3.25,1.13-6.24,1.13-5.07-.34-6.28-1-1.82-2.06-1.83-4.17V181.26a6,6,0,0,1,1-3.93c.66-.78,1.93-1.23,3.81-1.37a30.11,30.11,0,0,1,7.85.36Zm-9.42,7.59c0,1.29.25,2.08.72,2.35a8.74,8.74,0,0,0,3.47.41,15.75,15.75,0,0,0,3.74-.29,1.78,1.78,0,0,0,1.24-.88,5.27,5.27,0,0,0,.25-1.95v-2.14a40.21,40.21,0,0,0-5.14-.37,7.41,7.41,0,0,0-3.32.53,2.33,2.33,0,0,0-1,2.2Zm0,10.9v3a1.73,1.73,0,0,0,1.15,1.71,10.41,10.41,0,0,0,3.81.5,8,8,0,0,0,3.55-.53,2.17,2.17,0,0,0,.91-2,2.27,2.27,0,0,0-.87-2.07,6.53,6.53,0,0,0-3.17-.54Z"/></svg>