<svg id="Layer_1" data-name="Layer 1" xmlns="http://www.w3.org/2000/svg" viewBox="0 0 980 300"><defs><style>.cls-1{fill:#fff;}</style></defs><title>text</title><path class="cls-1" d="M484.83,49.53H497.1c.74,0,1.11.5,1.11,1.48s-.37,1.48-1.11,1.48H483.21c-1.08,0-1.62-.44-1.62-1.3V30.39c0-.87.54-1.3,1.62-1.3H497.1c.74,0,1.11.49,1.11,1.48S497.84,32,497.1,32H484.83v6.7h9.75c.75,0,1.13.49,1.13,1.48s-.38,1.47-1.13,1.47h-9.75Z"/><path class="cls-1" d="M505.36,42.26v9c0,.85-.54,1.27-1.61,1.27s-1.61-.42-1.62-1.27V41.84a11.29,11.29,0,0,1,.57-4.49,6.35,6.35,0,0,1,1.07-1.53q1.16-1.05,5.79-1a10.08,10.08,0,0,1,3.13.31,1.14,1.14,0,0,1,.79,1.15,1.66,1.66,0,0,1-.44,1.24,1.48,1.48,0,0,1-1.11.41l-2.37-.16a10.83,10.83,0,0,0-2.76.21,2.67,2.67,0,0,0-.81.41,3,3,0,0,0-.38.82,4.06,4.06,0,0,0-.23,1.25C505.37,40.85,505.36,41.47,505.36,42.26Z"/><path class="cls-1" d="M540.64,29.67V43.93a21.66,21.66,0,0,1-.39,4.6,4.92,4.92,0,0,1-1.42,2.67,5.15,5.15,0,0,1-2.39,1.25,17.39,17.39,0,0,1-3.74.32,18.64,18.64,0,0,1-3.76-.3,5.24,5.24,0,0,1-2.43-1.25,4.88,4.88,0,0,1-1.42-2.69,24.81,24.81,0,0,1-.38-4.6,22.19,22.19,0,0,1,.4-4.66,5,5,0,0,1,3.83-4.15,18.62,18.62,0,0,1,4.15-.35,10.85,10.85,0,0,1,4.32.71V29.67c0-.87.53-1.3,1.61-1.3S540.64,28.8,540.64,29.67ZM528.33,39.81A9.46,9.46,0,0,0,528,43q0,2.3.12,3.66a4.48,4.48,0,0,0,.91,2.37,2.86,2.86,0,0,0,2.11.72c.35,0,.89,0,1.61,0,2.11,0,3.35-.26,3.72-.76a4.74,4.74,0,0,0,.93-2.39c.08-.87.13-1.78.13-2.72,0-2.8-.27-4.49-.79-5.08a4.39,4.39,0,0,0-.62-.65,4.26,4.26,0,0,0-2.53-.5c-1.29,0-2.12,0-2.47,0a2.74,2.74,0,0,0-2.09.74A9.21,9.21,0,0,0,528.33,39.81Z"/><path class="cls-1" d="M558.9,49.39c.74,0,1.11.45,1.11,1.34a1.46,1.46,0,0,1-1.11,1.62,28.14,28.14,0,0,1-5.85.42c-2.74,0-4.71-.45-5.89-1.34s-1.78-2.38-1.79-4.48V40.36c0-2.2.54-3.69,1.62-4.45s3.08-1.14,6-1.14,4.92.36,6,1.09,1.55,2.23,1.55,4.5v2.85a2,2,0,0,1-.48,1.37,1.56,1.56,0,0,1-1.21.49H548.6v2.11q0,2.66,4.63,2.64a24.6,24.6,0,0,0,3.51-.22A18.86,18.86,0,0,1,558.9,49.39Zm-10.3-9v1.85h8.69V40.37a2.31,2.31,0,0,0-.88-2.1,7.23,7.23,0,0,0-3.43-.55,7.73,7.73,0,0,0-3.45.52A2.25,2.25,0,0,0,548.6,40.37Z"/><path class="cls-1" d="M571.4,52.49A4.53,4.53,0,0,1,568,51.44a5.32,5.32,0,0,1-1-3.62v-9.9h-2.28c-.72,0-1.08-.48-1.08-1.43s.36-1.42,1.08-1.42H567V30.49c0-.84.54-1.26,1.61-1.26s1.62.42,1.62,1.26v4.58h4.59c.72,0,1.09.47,1.09,1.42s-.37,1.43-1.09,1.43h-4.59V48.06c0,1,.59,1.47,1.76,1.47l3.06-.17c.75,0,1.12.43,1.12,1.3A1.65,1.65,0,0,1,575,52.38C574.25,52.45,573,52.49,571.4,52.49Z"/><path class="cls-1" d="M594.17,52.49a4.55,4.55,0,0,1-3.43-1.05,5.32,5.32,0,0,1-1-3.62v-9.9H587.5c-.73,0-1.09-.48-1.09-1.43s.36-1.42,1.09-1.42h2.27V30.49q0-1.26,1.62-1.26c1.08,0,1.61.42,1.61,1.26v4.58h4.59c.73,0,1.09.47,1.09,1.42s-.36,1.43-1.09,1.43H593V48.06c0,1,.59,1.47,1.76,1.47l3.06-.17c.75,0,1.13.43,1.13,1.3a1.66,1.66,0,0,1-1.16,1.72C597,52.45,595.81,52.49,594.17,52.49Z"/><path class="cls-1" d="M605.5,42.26v9c0,.85-.53,1.27-1.61,1.27s-1.61-.42-1.62-1.27V41.84a11.29,11.29,0,0,1,.57-4.49,6.35,6.35,0,0,1,1.07-1.53q1.15-1.05,5.79-1a10.08,10.08,0,0,1,3.13.31,1.14,1.14,0,0,1,.79,1.15,1.62,1.62,0,0,1-.44,1.24,1.47,1.47,0,0,1-1.1.41l-2.38-.16a10.83,10.83,0,0,0-2.76.21,2.8,2.8,0,0,0-.81.41,3,3,0,0,0-.38.82,4.06,4.06,0,0,0-.23,1.25C605.51,40.85,605.5,41.47,605.5,42.26Z"/><path class="cls-1" d="M620.87,59.5c-.93,0-1.4-.41-1.41-1.25,0,0,0-.21.12-.58l1.94-5.18a3,3,0,0,1-1.76-1.87L614.64,36.9c-.07-.37-.1-.56-.1-.58,0-.85.46-1.27,1.39-1.27a1.64,1.64,0,0,1,1.74,1l4.83,13.53h.18L627.49,36q.36-.93,1.74-.93c.93,0,1.39.41,1.39,1.25,0,0,0,.21-.1.58l-7.91,21.67Q622.25,59.5,620.87,59.5Z"/><path class="cls-1" d="M646.48,33.07c0-.77.54-1.15,1.61-1.15s1.62.4,1.62,1.18v7.63q0,3.39-1.7,4.46c-1.14.72-3,1.07-5.67,1.07a26.72,26.72,0,0,1-5.29-.33v2.78h6.57c2.46,0,4.13.42,5,1.28s1.3,2.3,1.3,4.32-.58,3.39-1.76,4.15-3.24,1.13-6.23,1.13-5.08-.34-6.28-1-1.82-2.06-1.83-4.17V40.25a6,6,0,0,1,1-3.93c.66-.78,1.93-1.23,3.81-1.38a30.54,30.54,0,0,1,7.85.37Zm-9.43,7.59c0,1.29.26,2.08.72,2.35a8.84,8.84,0,0,0,3.48.41,15.75,15.75,0,0,0,3.74-.29,1.78,1.78,0,0,0,1.24-.88,5.57,5.57,0,0,0,.25-2V38.16a40.21,40.21,0,0,0-5.14-.37,7.41,7.41,0,0,0-3.32.53,2.35,2.35,0,0,0-1,2.2Zm0,10.9v3a1.74,1.74,0,0,0,1.16,1.71,10.41,10.41,0,0,0,3.81.5,8,8,0,0,0,3.54-.53,2.17,2.17,0,0,0,.92-2,2.27,2.27,0,0,0-.87-2.07,6.53,6.53,0,0,0-3.17-.54Z"/><path class="cls-1" d="M660,52.49a4.51,4.51,0,0,1-3.42-1.05,5.32,5.32,0,0,1-1-3.62v-9.9h-2.27c-.72,0-1.08-.48-1.08-1.43s.36-1.42,1.08-1.42h2.27V30.49q0-1.26,1.62-1.26t1.62,1.26v4.58h4.58c.73,0,1.1.47,1.1,1.42s-.37,1.43-1.1,1.43h-4.58V48.06c0,1,.59,1.47,1.76,1.47l3.06-.17c.75,0,1.12.43,1.12,1.3a1.66,1.66,0,0,1-1.16,1.72C662.88,52.45,661.67,52.49,660,52.49Z"/><path class="cls-1" d="M678.59,38.2c-.75,0-1.12-.45-1.12-1.34a1.46,1.46,0,0,1,1.12-1.62,25.49,25.49,0,0,1,5.84-.47q4.08,0,5.52,1.3c1,.87,1.46,2.38,1.46,4.53v6.95q0,3.26-1.59,4.23c-1.05.66-3.08,1-6.07,1s-5-.33-6-1-1.5-2.06-1.5-4.21.39-3.64,1.16-4.45,2.39-1.23,4.79-1.21h5.95V40a2,2,0,0,0-.82-1.82,6.1,6.1,0,0,0-2.94-.5,22.9,22.9,0,0,0-3.67.25A14.53,14.53,0,0,1,678.59,38.2Zm9.58,9.61V44.75h-5a6.29,6.29,0,0,0-3,.46c-.46.3-.68,1-.68,2.07s.28,1.79.85,2.1a8.82,8.82,0,0,0,3.43.44,10.11,10.11,0,0,0,3.46-.39A1.61,1.61,0,0,0,688.17,47.81Zm-6.28-14.87a3.41,3.41,0,0,1,0-4.75,3.19,3.19,0,0,1,2.36-1,3.23,3.23,0,0,1,2.37,1,3.27,3.27,0,0,1,1,2.38,3.21,3.21,0,0,1-1,2.37,3.38,3.38,0,0,1-4.74,0Zm.94-2.37a1.4,1.4,0,0,0,.42,1,1.34,1.34,0,0,0,1,.41,1.38,1.38,0,0,0,1-.42,1.47,1.47,0,0,0,.42-1,1.46,1.46,0,0,0-2.48-1A1.36,1.36,0,0,0,682.83,30.57Z"/><path class="cls-1" d="M708.58,29.67V51.22c0,.85-.54,1.27-1.62,1.27s-1.61-.42-1.61-1.27V29.67c0-.87.53-1.3,1.61-1.3S708.58,28.8,708.58,29.67Z"/><path class="cls-1" d="M715.75,38.2c-.75,0-1.12-.45-1.12-1.34a1.46,1.46,0,0,1,1.12-1.62,25.49,25.49,0,0,1,5.84-.47q4.08,0,5.52,1.3c1,.87,1.46,2.38,1.46,4.53v6.95q0,3.26-1.59,4.23t-6.05,1q-4.48,0-6-1c-1-.65-1.52-2.06-1.52-4.21s.39-3.64,1.16-4.45,2.39-1.23,4.8-1.21h6V40a2,2,0,0,0-.82-1.82,6.1,6.1,0,0,0-2.94-.5,22.9,22.9,0,0,0-3.67.25A14.53,14.53,0,0,1,715.75,38.2Zm9.58,9.61V44.75h-5a6.34,6.34,0,0,0-3,.46c-.46.3-.69,1-.69,2.07s.29,1.79.86,2.1a8.92,8.92,0,0,0,3.44.44,10.18,10.18,0,0,0,3.47-.39A1.6,1.6,0,0,0,725.33,47.81Z"/><path class="cls-1" d="M746.2,33.07c0-.77.54-1.15,1.61-1.15s1.62.4,1.62,1.18v7.63q0,3.39-1.7,4.46c-1.14.72-3,1.07-5.67,1.07a26.53,26.53,0,0,1-5.28-.33v2.78h6.56c2.46,0,4.13.42,5,1.28s1.3,2.3,1.3,4.32-.58,3.39-1.76,4.15-3.24,1.13-6.23,1.13-5.07-.34-6.28-1-1.82-2.06-1.83-4.17V40.25a6,6,0,0,1,1-3.93c.66-.78,1.93-1.23,3.81-1.38a30.54,30.54,0,0,1,7.85.37Zm-9.42,7.59c0,1.29.25,2.08.72,2.35a8.74,8.74,0,0,0,3.47.41,15.75,15.75,0,0,0,3.74-.29,1.78,1.78,0,0,0,1.24-.88,5.34,5.34,0,0,0,.25-2V38.16a40.21,40.21,0,0,0-5.14-.37,7.41,7.41,0,0,0-3.32.53,2.33,2.33,0,0,0-1,2.2Zm0,10.9v3a1.73,1.73,0,0,0,1.15,1.71,10.41,10.41,0,0,0,3.81.5,8,8,0,0,0,3.55-.53,2.19,2.19,0,0,0,.91-2,2.27,2.27,0,0,0-.87-2.07,6.53,6.53,0,0,0-3.17-.54Z"/><path class="cls-1" d="M757,42.26v9c0,.85-.54,1.27-1.61,1.27s-1.62-.42-1.63-1.27V41.84a11.05,11.05,0,0,1,.58-4.49,6.37,6.37,0,0,1,1.06-1.53q1.15-1.05,5.8-1a10.12,10.12,0,0,1,3.13.31,1.15,1.15,0,0,1,.79,1.15,1.66,1.66,0,0,1-.44,1.24,1.51,1.51,0,0,1-1.11.41l-2.37-.16a10.72,10.72,0,0,0-2.76.21,2.67,2.67,0,0,0-.81.41,2.71,2.71,0,0,0-.39.82,4.06,4.06,0,0,0-.23,1.25C757,40.85,757,41.47,757,42.26Z"/><path class="cls-1" d="M781.21,49.39c.74,0,1.11.45,1.11,1.34a1.46,1.46,0,0,1-1.11,1.62,28.14,28.14,0,0,1-5.85.42c-2.74,0-4.71-.45-5.89-1.34s-1.78-2.38-1.79-4.48V40.36c0-2.2.54-3.69,1.61-4.45s3.09-1.14,6-1.14,4.92.36,5.95,1.09,1.55,2.23,1.55,4.5v2.85a2,2,0,0,1-.48,1.37,1.56,1.56,0,0,1-1.21.49H770.91v2.11q0,2.66,4.63,2.64a24.6,24.6,0,0,0,3.51-.22A18.86,18.86,0,0,1,781.21,49.39Zm-10.3-9v1.85h8.69V40.37a2.31,2.31,0,0,0-.88-2.1,7.23,7.23,0,0,0-3.43-.55,7.73,7.73,0,0,0-3.45.52A2.25,2.25,0,0,0,770.91,40.37Z"/><path class="cls-1" d="M491.39,90.4V90a1.32,1.32,0,0,0-.85-1.24,7.3,7.3,0,0,0-2.93-.39,18.13,18.13,0,0,1-4.64-.65,3.81,3.81,0,0,1-2.11-1.43A4.55,4.55,0,0,1,480,83.4v-.3c0-2,.61-3.36,1.81-4a11.33,11.33,0,0,1,5.52-1,22.88,22.88,0,0,1,5.49.48,1.46,1.46,0,0,1,1.1,1.62c0,.89-.36,1.33-1.1,1.33a19.08,19.08,0,0,1-2.27-.23A25.7,25.7,0,0,0,487,81a9.25,9.25,0,0,0-2.82.31c-.59.21-.89.81-.89,1.78v.33q0,1.92,4,2c1.12,0,2.24.14,3.36.28A5.1,5.1,0,0,1,493.46,87a3.7,3.7,0,0,1,1.16,3v.44q0,3.22-1.83,4.41T486.9,96a25.61,25.61,0,0,1-5.82-.46,1.46,1.46,0,0,1-1.1-1.62c0-.89.37-1.33,1.1-1.33a24,24,0,0,1,2.55.23,31.53,31.53,0,0,0,3.7.23,7.36,7.36,0,0,0,2.93-.49A2.06,2.06,0,0,0,491.39,90.4Z"/><path class="cls-1" d="M512.5,92.59c.74,0,1.1.45,1.1,1.34a1.46,1.46,0,0,1-1.1,1.62,28.19,28.19,0,0,1-5.86.42q-4.11,0-5.89-1.34T499,90.15V83.56c0-2.2.54-3.69,1.62-4.45s3.09-1.14,6-1.14,4.93.36,6,1.09,1.54,2.23,1.54,4.5v2.85a2,2,0,0,1-.47,1.37,1.58,1.58,0,0,1-1.22.49H502.2v2.11q0,2.66,4.62,2.64a24.6,24.6,0,0,0,3.51-.22A19.18,19.18,0,0,1,512.5,92.59Zm-10.3-9v1.85h8.68V83.57a2.28,2.28,0,0,0-.88-2.1,7.36,7.36,0,0,0-3.43-.55,7.7,7.7,0,0,0-3.44.52A2.25,2.25,0,0,0,502.2,83.57Z"/><path class="cls-1" d="M522.8,81.54c-.4.41-.6,1.71-.6,3.89v9c0,.84-.54,1.27-1.61,1.27S519,95.27,519,94.42V85a18.41,18.41,0,0,1,.31-3.87,3.38,3.38,0,0,1,1.27-2.11,4.76,4.76,0,0,1,2.21-.9,34.84,34.84,0,0,1,4-.19q4.54,0,5.73,1.11a4.74,4.74,0,0,1,1.41,3.16A27.37,27.37,0,0,1,534,85v9.38c0,.85-.54,1.27-1.61,1.27s-1.62-.43-1.62-1.27v-9c0-2.16-.21-3.45-.62-3.87s-1.64-.64-3.7-.64S523.2,81.13,522.8,81.54Z"/><path class="cls-1" d="M549.92,90.4V90a1.31,1.31,0,0,0-.84-1.24,7.36,7.36,0,0,0-2.94-.39,18.19,18.19,0,0,1-4.64-.65,3.85,3.85,0,0,1-2.11-1.43,4.61,4.61,0,0,1-.84-2.88v-.3c0-2,.6-3.36,1.81-4a11.33,11.33,0,0,1,5.52-1,22.78,22.78,0,0,1,5.48.48,1.46,1.46,0,0,1,1.11,1.62c0,.89-.37,1.33-1.11,1.33a19.48,19.48,0,0,1-2.27-.23,25.49,25.49,0,0,0-3.6-.24,9.18,9.18,0,0,0-2.81.31c-.6.21-.9.81-.9,1.78v.33q0,1.92,4,2c1.11,0,2.23.14,3.36.28A5.16,5.16,0,0,1,552,87a3.74,3.74,0,0,1,1.16,3v.44q0,3.22-1.83,4.41T545.44,96a25.49,25.49,0,0,1-5.82-.46,1.46,1.46,0,0,1-1.11-1.62c0-.89.37-1.33,1.11-1.33a24.45,24.45,0,0,1,2.55.23,31.37,31.37,0,0,0,3.69.23,7.38,7.38,0,0,0,2.94-.49A2.06,2.06,0,0,0,549.92,90.4Z"/><path class="cls-1" d="M557.8,74.08a1.69,1.69,0,0,1,.52-1.24,1.71,1.71,0,0,1,1.23-.55,1.66,1.66,0,0,1,1.25.55,1.81,1.81,0,0,1,.51,1.26,1.65,1.65,0,0,1-.53,1.23,1.7,1.7,0,0,1-2.47,0A1.74,1.74,0,0,1,557.8,74.08Zm3.37,5.44v14.9c0,.85-.54,1.27-1.62,1.27s-1.61-.42-1.61-1.27V79.52c0-.85.54-1.27,1.61-1.27S561.17,78.67,561.17,79.52Z"/><path class="cls-1" d="M572.51,95.69a4.55,4.55,0,0,1-3.43-1,5.37,5.37,0,0,1-1-3.62v-9.9h-2.27c-.72,0-1.08-.48-1.08-1.43s.36-1.42,1.08-1.42h2.27V73.69q0-1.26,1.62-1.26t1.62,1.26v4.58h4.58c.73,0,1.1.47,1.1,1.42s-.37,1.43-1.1,1.43h-4.58V91.26c0,1,.58,1.47,1.76,1.47l3.06-.17c.75,0,1.12.43,1.12,1.3a1.66,1.66,0,0,1-1.16,1.72C575.36,95.65,574.15,95.69,572.51,95.69Z"/><path class="cls-1" d="M580.77,74.08a1.85,1.85,0,0,1,1.76-1.79,1.68,1.68,0,0,1,1.25.55,1.81,1.81,0,0,1,.51,1.26,1.81,1.81,0,0,1-1.76,1.76,1.72,1.72,0,0,1-1.25-.53A1.74,1.74,0,0,1,580.77,74.08Zm3.38,5.44v14.9c0,.85-.54,1.27-1.62,1.27s-1.62-.42-1.62-1.27V79.52c0-.85.54-1.27,1.62-1.27S584.15,78.67,584.15,79.52Z"/><path class="cls-1" d="M596.05,95.86a2.76,2.76,0,0,1-1.73-.58,3.3,3.3,0,0,1-1.09-1.46L588.14,80.1a5.24,5.24,0,0,0-.13-.58c0-.85.52-1.26,1.57-1.25a1.5,1.5,0,0,1,1.58.93L596,92.73h.17L601,79.2q.35-.93,1.74-.93c.92,0,1.38.41,1.38,1.25,0,0,0,.21-.1.58l-5.12,13.72a3,3,0,0,1-1.09,1.48A2.86,2.86,0,0,1,596.05,95.86Z"/><path class="cls-1" d="M616.49,74.08a1.66,1.66,0,0,1,.53-1.24,1.71,1.71,0,0,1,1.23-.55,1.64,1.64,0,0,1,1.24.55A1.81,1.81,0,0,1,620,74.1a1.68,1.68,0,0,1-.52,1.23,1.72,1.72,0,0,1-2.48,0A1.74,1.74,0,0,1,616.49,74.08Zm3.37,5.44v14.9c0,.85-.54,1.27-1.61,1.27s-1.62-.42-1.62-1.27V79.52c0-.85.54-1.27,1.62-1.27S619.86,78.67,619.86,79.52Z"/><path class="cls-1" d="M629,81.54c-.39.41-.59,1.71-.59,3.89v9c0,.84-.54,1.27-1.61,1.27s-1.62-.42-1.63-1.27V85a18.29,18.29,0,0,1,.32-3.87,3.42,3.42,0,0,1,1.26-2.11,4.84,4.84,0,0,1,2.22-.9,34.84,34.84,0,0,1,4-.19q4.53,0,5.73,1.11a4.74,4.74,0,0,1,1.41,3.16,27.37,27.37,0,0,1,.12,2.8v9.38c0,.85-.54,1.27-1.62,1.27S637,95.26,637,94.42v-9c0-2.16-.2-3.45-.61-3.87s-1.65-.64-3.7-.64S629.4,81.13,629,81.54Z"/><path class="cls-1" d="M650.12,78.09v.18h4.57c.73,0,1.1.47,1.1,1.42s-.37,1.43-1.1,1.43h-4.57v13.3c0,.85-.54,1.27-1.62,1.27s-1.62-.42-1.62-1.27V81.12h-2.32c-.74,0-1.11-.48-1.11-1.43s.37-1.42,1.11-1.42h2.32v-.62q0-3.7,1.27-4.9c.85-.8,2.43-1.19,4.74-1.18a10.08,10.08,0,0,1,3.13.31,1.12,1.12,0,0,1,.79,1.11,1.51,1.51,0,0,1-.44,1.22,1.56,1.56,0,0,1-1.1.42l-2.38-.11c-1.17,0-1.93.2-2.26.61A5.33,5.33,0,0,0,650.12,78.09Z"/><path class="cls-1" d="M658.52,87.13a21.53,21.53,0,0,1,.4-4.66,5,5,0,0,1,3.82-4.15,16.63,16.63,0,0,1,3.77-.35,16.44,16.44,0,0,1,3.75.35,5.07,5.07,0,0,1,2.44,1.37,5.58,5.58,0,0,1,1.42,2.77,22.25,22.25,0,0,1,.39,4.65,21.91,21.91,0,0,1-.39,4.63,4.94,4.94,0,0,1-1.44,2.67,5.28,5.28,0,0,1-2.42,1.24,17.56,17.56,0,0,1-3.75.32,18.75,18.75,0,0,1-3.77-.3,5.15,5.15,0,0,1-2.43-1.25,4.81,4.81,0,0,1-1.41-2.69A21.76,21.76,0,0,1,658.52,87.13ZM662.14,83a9.15,9.15,0,0,0-.39,3.22c0,1.53,0,2.75.13,3.66a4.4,4.4,0,0,0,.91,2.37,2.81,2.81,0,0,0,2.1.72c.35,0,.89,0,1.62,0,2.1,0,3.34-.26,3.72-.76a4.92,4.92,0,0,0,.93-2.39c.08-.87.12-1.78.12-2.72,0-2.8-.26-4.49-.79-5.08a4.39,4.39,0,0,0-.61-.65,4.28,4.28,0,0,0-2.53-.5c-1.3,0-2.12,0-2.47,0-1.1.07-1.8.32-2.09.74A8.24,8.24,0,0,0,662.14,83Z"/><path class="cls-1" d="M682.41,85.46v9c0,.85-.54,1.27-1.61,1.27s-1.62-.42-1.63-1.27V85a11.05,11.05,0,0,1,.58-4.49A6.08,6.08,0,0,1,680.82,79c.76-.7,2.7-1,5.79-1a10.08,10.08,0,0,1,3.13.31,1.15,1.15,0,0,1,.79,1.15,1.66,1.66,0,0,1-.44,1.24,1.51,1.51,0,0,1-1.11.41l-2.37-.16a10.83,10.83,0,0,0-2.76.21,2.67,2.67,0,0,0-.81.41,2.84,2.84,0,0,0-.39.82,4.38,4.38,0,0,0-.23,1.25C682.41,84.05,682.41,84.67,682.41,85.46Z"/><path class="cls-1" d="M711.34,80.92c-1,0-1.67,0-2.09.07a2,2,0,0,0-1.13.53,1.9,1.9,0,0,0-.58,1.2,21.53,21.53,0,0,0-.08,2.29v9.41c0,.84-.54,1.27-1.62,1.27s-1.62-.43-1.62-1.27V84.53c0-1.65-.22-2.67-.65-3a4.39,4.39,0,0,0-2.7-.57c-1.36,0-2.25,0-2.66.07a1.78,1.78,0,0,0-1.11.58,2.25,2.25,0,0,0-.53,1.31c0,.53-.07,1.38-.07,2.55v9c0,.84-.53,1.27-1.6,1.27s-1.62-.42-1.63-1.27V85a11.59,11.59,0,0,1,.83-5.19c.55-1,1.68-1.61,3.39-1.76q1-.11,2.88-.12c2.79,0,4.61.33,5.47,1q1.26-1,5.46-1c1.24,0,2.19,0,2.87.1,1.75.2,2.87.76,3.36,1.67a12,12,0,0,1,.88,5.3v9.38c0,.85-.54,1.27-1.62,1.27s-1.62-.43-1.62-1.27v-9a25.39,25.39,0,0,0-.09-2.55,2.18,2.18,0,0,0-.52-1.31,1.78,1.78,0,0,0-1.11-.58C713,81,712.32,80.92,711.34,80.92Z"/><path class="cls-1" d="M725.3,81.4c-.75,0-1.13-.45-1.13-1.34a1.47,1.47,0,0,1,1.13-1.62,25.39,25.39,0,0,1,5.83-.47q4.08,0,5.52,1.3c1,.87,1.46,2.38,1.46,4.53v7c0,2.17-.53,3.58-1.58,4.23s-3.07,1-6.06,1-5-.33-6-1-1.53-2.06-1.53-4.21.39-3.64,1.17-4.45,2.39-1.23,4.8-1.21h6V83.24a2,2,0,0,0-.83-1.82,6.08,6.08,0,0,0-2.93-.5,23,23,0,0,0-3.68.25A14.44,14.44,0,0,1,725.3,81.4ZM734.88,91V88h-5a6.39,6.39,0,0,0-3,.46c-.46.3-.68,1-.68,2.07s.28,1.79.86,2.1a8.85,8.85,0,0,0,3.43.44,10.25,10.25,0,0,0,3.48-.39A1.6,1.6,0,0,0,734.88,91Z"/><path class="cls-1" d="M754,90.4V90a1.31,1.31,0,0,0-.85-1.24,7.3,7.3,0,0,0-2.93-.39,18.13,18.13,0,0,1-4.64-.65,3.81,3.81,0,0,1-2.11-1.43,4.61,4.61,0,0,1-.85-2.88v-.3c0-2,.61-3.36,1.81-4a11.33,11.33,0,0,1,5.52-1,22.88,22.88,0,0,1,5.49.48,1.46,1.46,0,0,1,1.11,1.62c0,.89-.37,1.33-1.11,1.33a19.28,19.28,0,0,1-2.27-.23,25.59,25.59,0,0,0-3.6-.24,9.25,9.25,0,0,0-2.82.31c-.59.21-.89.81-.89,1.78v.33c0,1.28,1.33,2,4,2,1.11,0,2.23.14,3.35.28A5.1,5.1,0,0,1,756,87a3.7,3.7,0,0,1,1.16,3v.44q0,3.22-1.83,4.41T749.48,96a25.45,25.45,0,0,1-5.81-.46,1.46,1.46,0,0,1-1.11-1.62c0-.89.37-1.33,1.11-1.33a24.11,24.11,0,0,1,2.54.23,31.53,31.53,0,0,0,3.7.23,7.36,7.36,0,0,0,2.93-.49A2.06,2.06,0,0,0,754,90.4Z"/><path class="cls-1" d="M760.47,102.7h-1.26c-.74,0-1.11-.49-1.11-1.48s.37-1.47,1.11-1.47h1.23a1.59,1.59,0,0,0,1-.37,1.33,1.33,0,0,0,.49-1.11V79.48c0-.84.54-1.27,1.62-1.27s1.62.43,1.62,1.27V98a5.39,5.39,0,0,1-1,3.6C763.63,102.33,762.37,102.69,760.47,102.7Zm1.37-28.62a1.85,1.85,0,0,1,1.76-1.79,1.66,1.66,0,0,1,1.25.55,1.81,1.81,0,0,1,.51,1.26,1.81,1.81,0,0,1-1.76,1.76,1.72,1.72,0,0,1-1.25-.53A1.74,1.74,0,0,1,761.84,74.08Z"/><path class="cls-1" d="M770.38,87.13a22.19,22.19,0,0,1,.4-4.66,5,5,0,0,1,3.83-4.15,20.37,20.37,0,0,1,7.52,0,5.07,5.07,0,0,1,2.44,1.37A5.66,5.66,0,0,1,786,82.46a22.25,22.25,0,0,1,.39,4.65,21.91,21.91,0,0,1-.39,4.63,4.94,4.94,0,0,1-1.44,2.67,5.33,5.33,0,0,1-2.42,1.24,17.66,17.66,0,0,1-3.76.32,18.64,18.64,0,0,1-3.76-.3,5.15,5.15,0,0,1-2.43-1.25,4.81,4.81,0,0,1-1.41-2.69A21.66,21.66,0,0,1,770.38,87.13ZM774,83a9.46,9.46,0,0,0-.38,3.22q0,2.3.12,3.66a4.48,4.48,0,0,0,.91,2.37,2.86,2.86,0,0,0,2.11.72c.35,0,.89,0,1.61,0,2.11,0,3.35-.26,3.72-.76a4.74,4.74,0,0,0,.93-2.39,26.52,26.52,0,0,0,.13-2.72c0-2.8-.27-4.49-.79-5.08a4.39,4.39,0,0,0-.62-.65,4.24,4.24,0,0,0-2.52-.5c-1.3,0-2.13,0-2.48,0a2.74,2.74,0,0,0-2.09.74A9.21,9.21,0,0,0,774,83Z"/><path class="cls-1" d="M794.87,81.54c-.4.41-.6,1.71-.6,3.89v9c0,.84-.53,1.27-1.6,1.27s-1.62-.42-1.63-1.27V85a17.65,17.65,0,0,1,.32-3.87,3.37,3.37,0,0,1,1.26-2.11,4.8,4.8,0,0,1,2.22-.9,34.84,34.84,0,0,1,4-.19q4.53,0,5.73,1.11a4.73,4.73,0,0,1,1.4,3.16,27,27,0,0,1,.13,2.8v9.38c0,.85-.54,1.27-1.62,1.27s-1.62-.43-1.62-1.27v-9c0-2.16-.2-3.45-.61-3.87s-1.65-.64-3.7-.64S795.27,81.13,794.87,81.54Z"/><path class="cls-1" d="M819.9,74.08a1.85,1.85,0,0,1,1.76-1.79,1.66,1.66,0,0,1,1.25.55,1.81,1.81,0,0,1,.51,1.26,1.81,1.81,0,0,1-1.76,1.76,1.72,1.72,0,0,1-1.25-.53A1.74,1.74,0,0,1,819.9,74.08Zm3.38,5.44v14.9c0,.85-.54,1.27-1.62,1.27S820,95.27,820,94.42V79.52c0-.85.54-1.27,1.62-1.27S823.28,78.67,823.28,79.52Z"/><path class="cls-1" d="M848.1,90.4V90a1.31,1.31,0,0,0-.85-1.24,7.3,7.3,0,0,0-2.93-.39,18.13,18.13,0,0,1-4.64-.65,3.81,3.81,0,0,1-2.11-1.43,4.61,4.61,0,0,1-.85-2.88v-.3c0-2,.61-3.36,1.82-4a11.26,11.26,0,0,1,5.51-1,22.82,22.82,0,0,1,5.49.48,1.46,1.46,0,0,1,1.11,1.62c0,.89-.37,1.33-1.11,1.33a19.28,19.28,0,0,1-2.27-.23,25.49,25.49,0,0,0-3.6-.24,9.13,9.13,0,0,0-2.81.31c-.6.21-.9.81-.9,1.78v.33c0,1.28,1.33,2,4,2,1.11,0,2.23.14,3.35.28A5.1,5.1,0,0,1,850.17,87a3.7,3.7,0,0,1,1.16,3v.44q0,3.22-1.83,4.41c-1.21.77-3.18,1.16-5.88,1.16a25.49,25.49,0,0,1-5.82-.46,1.46,1.46,0,0,1-1.11-1.62c0-.89.37-1.33,1.11-1.33a24.45,24.45,0,0,1,2.55.23A31.23,31.23,0,0,0,844,93a7.36,7.36,0,0,0,2.93-.49A2.06,2.06,0,0,0,848.1,90.4Z"/><path class="cls-1" d="M859,72.87V86.76l8-8.14a1.71,1.71,0,0,1,1.2-.55,1.52,1.52,0,0,1,1.12.46,1.36,1.36,0,0,1,.46,1.06,1.63,1.63,0,0,1-.58,1.19l-4.64,4.33,5.73,8a1.83,1.83,0,0,1,.35,1.08,1.39,1.39,0,0,1-.51,1,1.69,1.69,0,0,1-1.19.49,1.2,1.2,0,0,1-1.06-.58l-5.62-7.87L859,90.33v4.09c0,.85-.53,1.27-1.6,1.27s-1.62-.42-1.63-1.27V72.87c0-.87.55-1.3,1.63-1.3S859,72,859,72.87Z"/><path class="cls-1" d="M878.09,102.7c-.93,0-1.4-.41-1.41-1.25,0,0,0-.21.12-.58l1.94-5.18A3,3,0,0,1,877,93.82L871.86,80.1c-.07-.37-.1-.56-.1-.58,0-.85.46-1.27,1.39-1.27a1.64,1.64,0,0,1,1.74,1l4.83,13.53h.18l4.81-13.53q.36-.93,1.74-.93c.93,0,1.39.41,1.39,1.25,0,0,0,.21-.1.58l-7.91,21.67Q879.47,102.7,878.09,102.7Z"/><path class="cls-1" d="M904.44,92.59c.73,0,1.1.45,1.1,1.34a1.46,1.46,0,0,1-1.1,1.62,28.25,28.25,0,0,1-5.86.42q-4.11,0-5.89-1.34t-1.79-4.48V83.56c0-2.2.54-3.69,1.62-4.45s3.09-1.14,6-1.14,4.93.36,6,1.09,1.54,2.23,1.54,4.5v2.85a2,2,0,0,1-.47,1.37,1.58,1.58,0,0,1-1.22.49H894.13v2.11c0,1.77,1.55,2.65,4.63,2.64a24.6,24.6,0,0,0,3.51-.22A19,19,0,0,1,904.44,92.59Zm-10.31-9v1.85h8.69V83.57a2.28,2.28,0,0,0-.88-2.1,7.36,7.36,0,0,0-3.43-.55,7.67,7.67,0,0,0-3.44.52A2.27,2.27,0,0,0,894.13,83.57Z"/><path class="cls-1" d="M914.74,81.54c-.4.41-.6,1.71-.6,3.89v9c0,.84-.54,1.27-1.61,1.27s-1.61-.42-1.63-1.27V85a18.29,18.29,0,0,1,.32-3.87,3.38,3.38,0,0,1,1.27-2.11,4.76,4.76,0,0,1,2.21-.9,34.84,34.84,0,0,1,4-.19c3,0,4.94.36,5.73,1.11a4.74,4.74,0,0,1,1.41,3.16A27.37,27.37,0,0,1,926,85v9.38c0,.85-.54,1.27-1.62,1.27s-1.61-.43-1.61-1.27v-9c0-2.16-.21-3.45-.62-3.87s-1.64-.64-3.7-.64S915.14,81.13,914.74,81.54Z"/><path class="cls-1" d="M939.94,89v.33c0,.89-.53,1.34-1.61,1.34s-1.61-.45-1.62-1.34V89a7.84,7.84,0,0,1,.5-2.93,4.28,4.28,0,0,1,1.25-1.81,17.89,17.89,0,0,1,3.29-2,2.87,2.87,0,0,0,1.69-2.7c0-1.57-.26-2.56-.78-3a5.68,5.68,0,0,0-3.17-.6,40.21,40.21,0,0,0-4.42.23c-1.35.16-2.23.23-2.64.23-.76,0-1.14-.44-1.14-1.33a1.47,1.47,0,0,1,1.13-1.62,28.79,28.79,0,0,1,6.33-.46c3,0,5.13.45,6.24,1.36s1.67,2.66,1.69,5.27a7.45,7.45,0,0,1-.49,2.86A3.28,3.28,0,0,1,945,84.12c-.5.31-1,.6-1.58.88s-1.08.52-1.58.72a3,3,0,0,0-1.31,1.14A3.82,3.82,0,0,0,939.94,89ZM936.36,94a2.12,2.12,0,0,1,.56-1.5,1.83,1.83,0,0,1,1.4-.61,2.15,2.15,0,0,1,1.49.61,2,2,0,0,1,.68,1.48,1.89,1.89,0,0,1-.68,1.46,2.24,2.24,0,0,1-1.51.58,1.92,1.92,0,0,1-1.4-.56A2.08,2.08,0,0,1,936.36,94Z"/></svg>