<svg id="Layer_1" data-name="Layer 1" xmlns="http://www.w3.org/2000/svg" viewBox="0 0 980 120"><defs><style>.cls-1{fill:#d4ac76;}</style></defs><title>text</title><path class="cls-1" d="M332.63,40V10.63h16v4.9H338.14v8h9.34v4.9h-9.34V40Z"/><path class="cls-1" d="M385.52,25.29a15.26,15.26,0,0,1-30.51,0,14.71,14.71,0,0,1,4.46-10.77,15.29,15.29,0,0,1,21.59,0A14.71,14.71,0,0,1,385.52,25.29Zm-22.17,7a9.67,9.67,0,0,0,13.81,0,9.7,9.7,0,0,0,2.85-7,9.65,9.65,0,0,0-2.85-7,9.65,9.65,0,0,0-13.81,0,9.67,9.67,0,0,0-2.83,7A9.72,9.72,0,0,0,363.35,32.31ZM367.69,7.6a2.38,2.38,0,0,1-1.8.78,2.43,2.43,0,0,1-1.81-.78,2.59,2.59,0,0,1-.75-1.88,2.58,2.58,0,0,1,.73-1.86,2.63,2.63,0,0,1,1.83-.76,2.44,2.44,0,0,1,1.78.76,2.56,2.56,0,0,1,.75,1.86A2.61,2.61,0,0,1,367.69,7.6Zm8.74,0a2.83,2.83,0,0,1-3.9,0,2.52,2.52,0,0,1-.8-1.88,2.49,2.49,0,0,1,.8-1.86,2.88,2.88,0,0,1,3.9,0,2.46,2.46,0,0,1,.81,1.86A2.49,2.49,0,0,1,376.43,7.6Z"/><path class="cls-1" d="M394,40V10.63h11.49a10,10,0,0,1,7.08,2.66,9.15,9.15,0,0,1,2.82,7,8.81,8.81,0,0,1-2.1,5.95,9.42,9.42,0,0,1-5.49,3.13L415.66,40h-6.2l-7.62-10.49h-2.37V40ZM404.6,15.53h-5.13V25.1h5.13a5.45,5.45,0,0,0,3.82-1.3,4.38,4.38,0,0,0,1.42-3.39,4.63,4.63,0,0,0-1.46-3.48A5.23,5.23,0,0,0,404.6,15.53Z"/><path class="cls-1" d="M431.56,40,420.33,10.63h5.74l8.06,21.11,8-21.11h5.58L436.56,40Z"/><path class="cls-1" d="M471,27.57H460.12V35.1h11.93V40H454.61V10.63h17.1v4.9H460.12v7.14H471Z"/><path class="cls-1" d="M481,40V10.63h11.49a9.92,9.92,0,0,1,7.07,2.66,9.13,9.13,0,0,1,2.83,7,8.81,8.81,0,0,1-2.1,5.95,9.43,9.43,0,0,1-5.48,3.13L502.68,40h-6.2l-7.62-10.49h-2.37V40Zm10.64-24.47h-5.13V25.1h5.13a5.45,5.45,0,0,0,3.82-1.3,4.38,4.38,0,0,0,1.42-3.39,4.63,4.63,0,0,0-1.46-3.48A5.23,5.23,0,0,0,491.62,15.53Z"/><path class="cls-1" d="M511,40V10.63h5.09V23.57L527.3,10.63h6.8L523.74,22.34,534.33,40H528l-8-13.41L516.05,31v9Z"/><path class="cls-1" d="M542.12,40V10.63h5.51V34.72h10.79V40Z"/><path class="cls-1" d="M566.36,40V10.63h5.51V40Z"/><path class="cls-1" d="M600.3,27.73V22.82h10.52l0,2.51a15.06,15.06,0,0,1-2.14,7.79,14.85,14.85,0,0,1-5.57,5.42,15.19,15.19,0,0,1-7.49,1.92,15.19,15.19,0,0,1-15.27-15.22,14.74,14.74,0,0,1,4.44-10.78A14.77,14.77,0,0,1,595.66,10a14.45,14.45,0,0,1,10.94,4.75l-3.76,3.71a9.49,9.49,0,0,0-7.22-3.18,9.36,9.36,0,0,0-7,2.88,9.77,9.77,0,0,0-2.77,7.07,9.79,9.79,0,0,0,2.79,7.08,9,9,0,0,0,6.67,2.88,10.45,10.45,0,0,0,6.54-2,9.3,9.3,0,0,0,3.45-5.4Z"/><path class="cls-1" d="M614.85,40l11.33-29.37h5L642.44,40h-5.66l-1.56-4.07H622.08L620.51,40Zm13.82-21.15L624,31h9.37Z"/><path class="cls-1" d="M330.9,85.6V56.23h8.38a14.39,14.39,0,0,1,10.4,4.2A14.13,14.13,0,0,1,354,71a13.76,13.76,0,0,1-4.38,10.49A15,15,0,0,1,339,85.6Zm8.44-24.47H336V80.7h3.39a8.46,8.46,0,0,0,6.5-2.85,10,10,0,0,0,2.61-7,9.65,9.65,0,0,0-2.65-6.94A8.6,8.6,0,0,0,339.34,61.13Z"/><path class="cls-1" d="M362.59,85.6V56.23h5.51V85.6Z"/><path class="cls-1" d="M375.2,61.51V56.23h24.21v5.28h-9.35V85.6h-5.51V61.51Z"/><path class="cls-1" d="M404.58,61.51V56.23h24.2v5.28h-9.34V85.6h-5.51V61.51Z"/><path class="cls-1" d="M451.7,85.6V56.23h5.51V80.32H468V85.6Z"/><path class="cls-1" d="M475.94,85.6V56.23h5.51V85.6Z"/><path class="cls-1" d="M499.52,85.6,488.29,56.23H494l8.07,21.11,8-21.11h5.57L504.52,85.6Z"/><path class="cls-1" d="M529.27,86a14.19,14.19,0,0,1-5.54-1.16A14.49,14.49,0,0,1,519,81.61l3.5-4.19a10.71,10.71,0,0,0,3.24,2.63,8.22,8.22,0,0,0,3.87,1,4.78,4.78,0,0,0,3.13-1,3.18,3.18,0,0,0,1.22-2.53q0-2.75-3.22-4.08l-3.28-1.31a12.72,12.72,0,0,1-4.88-3.24,7.51,7.51,0,0,1-1.58-5,7.65,7.65,0,0,1,2.49-5.58,8.56,8.56,0,0,1,6.23-2.45,12.65,12.65,0,0,1,9,3.36l-3.25,4.1a7.55,7.55,0,0,0-5.8-2.55,3.93,3.93,0,0,0-2.63.84,2.62,2.62,0,0,0-1,2.07,2.72,2.72,0,0,0,.78,2,7.84,7.84,0,0,0,2.52,1.52l3.43,1.37q6.53,2.61,6.65,8.48a8.23,8.23,0,0,1-2.76,6.43A10.7,10.7,0,0,1,529.27,86Z"/><path class="cls-1" d="M555.61,85.6,544.38,56.23h5.74l8.06,21.11,8-21.11h5.58L560.61,85.6Z"/><path class="cls-1" d="M595,73.17H584.17V80.7H596.1v4.9H578.66V56.23h17.1v4.9H584.17v7.14H595Z"/><path class="cls-1" d="M605,85.6V56.23h11.49a10,10,0,0,1,7.08,2.66,9.15,9.15,0,0,1,2.82,7,8.81,8.81,0,0,1-2.1,6,9.45,9.45,0,0,1-5.49,3.13l7.9,10.66h-6.2l-7.62-10.49h-2.37V85.6Zm10.64-24.47h-5.13V70.7h5.13a5.45,5.45,0,0,0,3.82-1.3A4.38,4.38,0,0,0,620.91,66a4.63,4.63,0,0,0-1.46-3.48A5.23,5.23,0,0,0,615.67,61.13Z"/><path class="cls-1" d="M635,85.6V56.23h5.09V69.17l11.25-12.94h6.8L647.79,67.94,658.38,85.6H652l-8-13.41-3.93,4.44v9Z"/></svg>