<svg id="Layer_1" data-name="Layer 1" xmlns="http://www.w3.org/2000/svg" viewBox="0 0 300 600"><defs><style>.cls-1{fill:#d5ad77;}</style></defs><title>text</title><path class="cls-1" d="M75.67,227.52l5-12.37H82.2l4.87,12.37H85.16l-.75-1.9H78.35l-.76,1.9ZM81.42,218,79,224h4.76Zm1.19-3.68a1.61,1.61,0,0,1-1.19.49,1.68,1.68,0,1,1,0-3.36,1.61,1.61,0,0,1,1.19.49,1.69,1.69,0,0,1,0,2.38Zm-1.19-.5a.62.62,0,0,0,.47-.21.69.69,0,0,0,0-1,.65.65,0,0,0-.47-.2.66.66,0,0,0-.49.2.69.69,0,0,0,0,1A.64.64,0,0,0,81.42,213.81Z"/><path class="cls-1" d="M87.8,216.8v-1.65h10v1.65H93.67v10.72H92V216.8Z"/><path class="cls-1" d="M100.27,216.8v-1.65h10v1.65h-4.14v10.72h-1.73V216.8Z"/><path class="cls-1" d="M111.08,227.52l5-12.37h1.56l4.87,12.37h-1.91l-.75-1.9h-6.06l-.77,1.9Zm5.75-9.53-2.41,6h4.75Z"/><path class="cls-1" d="M140.55,227.52v-5.36h-6v5.36h-1.73V215.15h1.73v5.36h6v-5.36h1.73v12.37Z"/><path class="cls-1" d="M151.65,227.73a4.31,4.31,0,0,1-3.23-1.3,4.48,4.48,0,0,1-1.26-3.26v-8h1.73v7.91a3.15,3.15,0,0,0,.74,2.16,2.49,2.49,0,0,0,2,.86,2.6,2.6,0,0,0,2-.84,3.16,3.16,0,0,0,.74-2.16v-7.93h1.73v8a4.48,4.48,0,0,1-1.26,3.26A4.33,4.33,0,0,1,151.65,227.73Z"/><path class="cls-1" d="M164.3,227.68a5.59,5.59,0,0,1-2.31-.5,6.12,6.12,0,0,1-2-1.33l1.22-1.4a4.7,4.7,0,0,0,1.42,1.13,3.64,3.64,0,0,0,1.71.45,2.37,2.37,0,0,0,1.6-.52,1.67,1.67,0,0,0,.62-1.32,2.17,2.17,0,0,0-1.56-2l-1.46-.58a5.11,5.11,0,0,1-2-1.32,3,3,0,0,1-.66-2,3.12,3.12,0,0,1,1-2.34,3.54,3.54,0,0,1,2.52-1,5,5,0,0,1,3.59,1.37l-1,1.39a3.41,3.41,0,0,0-2.55-1.11,2,2,0,0,0-1.31.43,1.46,1.46,0,0,0-.5,1.15,1.35,1.35,0,0,0,.37.95,3.41,3.41,0,0,0,1.25.77l1.49.59q2.7,1.09,2.6,3.54a3.4,3.4,0,0,1-1.09,2.6A4.18,4.18,0,0,1,164.3,227.68Z"/><path class="cls-1" d="M179.34,227.52V215.15h1.77l4,6.59,4-6.59h1.7v12.37h-1.73v-9.14l-.05,0-4,6.39-3.91-6.3h-.11v9.08Z"/><path class="cls-1" d="M202.74,222.1h-5.08v3.77h5.44v1.65h-7.17V215.15H203v1.65h-5.34v3.65h5.08Z"/><path class="cls-1" d="M207.38,227.52V215.15h3.32A6.24,6.24,0,0,1,215,225.76a6.07,6.07,0,0,1-4.39,1.76Zm3.39-10.72h-1.66v9.07h1.7a4,4,0,0,0,3.05-1.32,4.62,4.62,0,0,0,1.24-3.24,4.42,4.42,0,0,0-1.28-3.21A4.12,4.12,0,0,0,210.77,216.8Z"/><path class="cls-1" d="M83.9,248.52v-5.36h-6v5.36H76.15V236.15h1.73v5.36h6v-5.36h1.73v12.37Z"/><path class="cls-1" d="M96.21,248.74a6.07,6.07,0,0,1-4.46-1.83,6.63,6.63,0,0,1,0-9.17,6.33,6.33,0,0,1,8.91,0,6.59,6.59,0,0,1,0,9.16A6.1,6.1,0,0,1,96.21,248.74Zm-3.24-3a4.47,4.47,0,0,0,6.48,0,4.95,4.95,0,0,0,0-6.76A4.46,4.46,0,0,0,93,239a5,5,0,0,0,0,6.76Zm2.08-10.87a.84.84,0,0,1-1.23,0,1.06,1.06,0,0,1,0-1.34.82.82,0,0,1,1.23,0,1,1,0,0,1,0,1.34Zm3.43,0a.84.84,0,0,1-1.23,0,1,1,0,0,1,0-1.34.82.82,0,0,1,1.23,0,1,1,0,0,1,0,1.34Z"/><path class="cls-1" d="M114.89,243.14V241.5H119v.86a6.37,6.37,0,0,1-6.4,6.37,6.06,6.06,0,0,1-4.51-1.85,6.66,6.66,0,0,1,0-9.13,6,6,0,0,1,4.51-1.85,6.66,6.66,0,0,1,2.6.51,6.35,6.35,0,0,1,2.12,1.43L116,239.15a4.38,4.38,0,0,0-3.44-1.61,4.33,4.33,0,0,0-3.28,1.4,5,5,0,0,0,0,6.74,4.33,4.33,0,0,0,3.28,1.4,4.42,4.42,0,0,0,3-1.08,4.7,4.7,0,0,0,1.56-2.86Z"/><path class="cls-1" d="M130,248.52V236.15h1.72V242l5.16-5.87h2.32l-4.37,4.91,4.48,7.46h-2.15l-3.6-6-1.84,2.07v4Z"/><path class="cls-1" d="M146.64,248.52l-4.82-12.37h1.94l3.7,9.5,3.72-9.5h1.9l-4.83,12.37Z"/><path class="cls-1" d="M154.14,248.52l5-12.37h1.57l4.87,12.37h-1.91l-.75-1.9h-6.06l-.77,1.9Zm5.74-9.53-2.4,6h4.75Z"/><path class="cls-1" d="M169,248.52V236.15h1.73v10.72h5.09v1.65Z"/><path class="cls-1" d="M179.58,248.52V236.15h1.72v12.37Z"/><path class="cls-1" d="M184.75,237.8v-1.65h10v1.65h-4.14v10.72h-1.73V237.8Z"/><path class="cls-1" d="M205,243.1h-5.09v3.77h5.44v1.65H198.2V236.15h7.07v1.65h-5.34v3.65H205Z"/><path class="cls-1" d="M208.34,237.8v-1.65h10v1.65h-4.14v10.72h-1.73V237.8Z"/><path class="cls-1" d="M83.41,258.8v-1.65h10v1.65H89.28v10.72H87.55V258.8Z"/><path class="cls-1" d="M96.87,269.52V257.15h1.72v12.37Z"/><path class="cls-1" d="M103.67,269.52V257.15h1.72v10.72h5.09v1.65Z"/><path class="cls-1" d="M114.27,269.52V257.15H116v10.72h5.09v1.65Z"/><path class="cls-1" d="M131.57,269.52V257.15h3.78a4,4,0,0,1,2.73,1,3.21,3.21,0,0,1,1.07,2.5,2.91,2.91,0,0,1-1.47,2.65,3.22,3.22,0,0,1,1.33,1.11,2.9,2.9,0,0,1,.49,1.67,3.2,3.2,0,0,1-1.08,2.53,4,4,0,0,1-2.76.95Zm3.61-10.72H133.3v3.76h2.2a1.86,1.86,0,0,0,1.37-.55,1.9,1.9,0,0,0,.55-1.42,1.58,1.58,0,0,0-.61-1.3A2.55,2.55,0,0,0,135.18,258.8Zm.38,5.3H133.3v3.77h2.15a2.51,2.51,0,0,0,1.7-.53,1.74,1.74,0,0,0,.63-1.41,1.69,1.69,0,0,0-.57-1.32A2.4,2.4,0,0,0,135.56,264.1Z"/><path class="cls-1" d="M143.84,269.52V257.15h4.59a3.87,3.87,0,0,1,2.79,1.08,3.73,3.73,0,0,1,1.12,2.79,3.68,3.68,0,0,1-.93,2.58,3.62,3.62,0,0,1-2.37,1.21l3.59,4.71H150.5L147,264.8h-1.38v4.72Zm4.36-10.72h-2.63v4.46h2.62a2.46,2.46,0,0,0,1.74-.61,2.23,2.23,0,0,0,0-3.21A2.42,2.42,0,0,0,148.2,258.8Z"/><path class="cls-1" d="M155.19,269.52l5-12.37h1.56l4.87,12.37h-1.91l-.74-1.9h-6.07l-.76,1.9Zm5.74-9.53-2.4,6h4.75Z"/><path class="cls-1" d="M176.91,269.52V257.15h4.22a3.87,3.87,0,0,1,2.87,1.16,4,4,0,0,1,1.15,2.94,3.86,3.86,0,0,1-1.18,2.89,4,4,0,0,1-2.9,1.16h-2.43v4.22ZM181,258.8h-2.38v4.85H181a2.27,2.27,0,0,0,2.39-2.4,2.4,2.4,0,0,0-.68-1.76A2.31,2.31,0,0,0,181,258.8Z"/><path class="cls-1" d="M189.25,269.52V257.15h4.59a3.83,3.83,0,0,1,2.78,1.08,4.06,4.06,0,0,1,.2,5.37,3.64,3.64,0,0,1-2.37,1.21l3.58,4.71H195.9l-3.55-4.72H191v4.72Zm4.36-10.72H191v4.46h2.61a2.49,2.49,0,0,0,1.75-.61,2.22,2.22,0,0,0,0-3.21A2.4,2.4,0,0,0,193.61,258.8Z"/><path class="cls-1" d="M202.08,269.52V257.15h1.73v12.37Z"/><path class="cls-1" d="M211.89,269.68a5.59,5.59,0,0,1-2.31-.5,6.12,6.12,0,0,1-2-1.33l1.22-1.4a4.7,4.7,0,0,0,1.42,1.13A3.65,3.65,0,0,0,212,268a2.36,2.36,0,0,0,1.59-.52,1.64,1.64,0,0,0,.62-1.32,2.17,2.17,0,0,0-1.56-2l-1.46-.58a5.11,5.11,0,0,1-2-1.32,3,3,0,0,1-.66-2,3.12,3.12,0,0,1,1-2.34,3.54,3.54,0,0,1,2.52-1,5.07,5.07,0,0,1,3.6,1.37l-1.05,1.39a3.41,3.41,0,0,0-2.55-1.11,2,2,0,0,0-1.31.43,1.46,1.46,0,0,0-.5,1.15,1.35,1.35,0,0,0,.37.95,3.41,3.41,0,0,0,1.25.77l1.49.59q2.7,1.1,2.6,3.54a3.37,3.37,0,0,1-1.09,2.6A4.18,4.18,0,0,1,211.89,269.68Z"/></svg>