<svg id="Layer_1" data-name="Layer 1" xmlns="http://www.w3.org/2000/svg" viewBox="0 0 300 600"><defs><style>.cls-1{fill:#d5ad77;}</style></defs><title>text</title><path class="cls-1" d="M114.5,222.1h-5.09v3.77h5.44v1.65h-7.17V215.15h7.07v1.65h-5.34v3.65h5.09Z"/><path class="cls-1" d="M117.82,216.8v-1.65h10v1.65H123.7v10.72H122V216.8Z"/><path class="cls-1" d="M130.29,216.8v-1.65h10v1.65h-4.14v10.72h-1.73V216.8Z"/><path class="cls-1" d="M158.5,227.52v-5.36h-6v5.36h-1.73V215.15h1.73v5.36h6v-5.36h1.72v12.37Z"/><path class="cls-1" d="M169.59,227.73a4.27,4.27,0,0,1-3.22-1.3,4.49,4.49,0,0,1-1.27-3.26v-8h1.73v7.91a3.2,3.2,0,0,0,.74,2.16,2.54,2.54,0,0,0,2,.86,2.6,2.6,0,0,0,2-.84,3.16,3.16,0,0,0,.74-2.16v-7.93h1.73v8a4.48,4.48,0,0,1-1.26,3.26A4.32,4.32,0,0,1,169.59,227.73Z"/><path class="cls-1" d="M182.25,227.68a5.77,5.77,0,0,1-2.32-.5,6.12,6.12,0,0,1-2-1.33l1.22-1.4a4.62,4.62,0,0,0,1.43,1.13,3.64,3.64,0,0,0,1.71.45,2.41,2.41,0,0,0,1.6-.52,1.66,1.66,0,0,0,.61-1.32,2.17,2.17,0,0,0-1.56-2l-1.46-.58a4.9,4.9,0,0,1-2-1.33,2.87,2.87,0,0,1-.67-1.95,3.12,3.12,0,0,1,1-2.34,3.55,3.55,0,0,1,2.53-1,5.06,5.06,0,0,1,3.59,1.37l-1,1.39a3.44,3.44,0,0,0-2.55-1.11,1.92,1.92,0,0,0-1.31.43,1.43,1.43,0,0,0-.51,1.14,1.36,1.36,0,0,0,.37,1,3.46,3.46,0,0,0,1.26.77l1.48.59q2.7,1.09,2.6,3.54a3.37,3.37,0,0,1-1.09,2.6A4.17,4.17,0,0,1,182.25,227.68Z"/><path class="cls-1" d="M105.14,248.52V236.15h6.75v1.65h-5v3.89h4.44v1.65h-4.44v5.18Z"/><path class="cls-1" d="M121.22,248.74a6.07,6.07,0,0,1-4.45-1.83,6.63,6.63,0,0,1,0-9.17,6.31,6.31,0,0,1,8.9,0,6.59,6.59,0,0,1,0,9.16A6.08,6.08,0,0,1,121.22,248.74Zm-3.23-3a4.46,4.46,0,0,0,6.47,0,5,5,0,0,0,0-6.76,4.46,4.46,0,0,0-6.47,0,5,5,0,0,0,0,6.76Zm2.08-10.87a.83.83,0,0,1-.62.27.79.79,0,0,1-.61-.27,1,1,0,0,1-.25-.67,1,1,0,0,1,.25-.67.77.77,0,0,1,.61-.28.8.8,0,0,1,.62.28.93.93,0,0,1,.25.67A1,1,0,0,1,120.07,234.84Zm3.43,0a.81.81,0,0,1-.62.27.79.79,0,0,1-.61-.27,1,1,0,0,1-.25-.67.93.93,0,0,1,.25-.67.77.77,0,0,1,.61-.28.79.79,0,0,1,.62.28,1,1,0,0,1,.25.67A1,1,0,0,1,123.5,234.84Z"/><path class="cls-1" d="M131.86,248.52V236.15h4.59a3.83,3.83,0,0,1,2.78,1.08,4.06,4.06,0,0,1,.2,5.37,3.64,3.64,0,0,1-2.37,1.21l3.58,4.71h-2.13L135,243.8h-1.38v4.72Zm4.36-10.72h-2.64v4.46h2.62a2.49,2.49,0,0,0,1.75-.61,2.22,2.22,0,0,0,0-3.21A2.4,2.4,0,0,0,136.22,237.8Z"/><path class="cls-1" d="M150,248.52l5-12.37h1.56l4.88,12.37H159.5l-.74-1.9H152.7l-.77,1.9Zm5.74-9.53-2.4,6h4.75Z"/><path class="cls-1" d="M164.85,248.52V236.15h1.73v10.72h5.08v1.65Z"/><path class="cls-1" d="M175.46,248.52V236.15h1.72v10.72h5.09v1.65Z"/><path class="cls-1" d="M184.79,248.52l5-12.37h1.56l4.87,12.37h-1.91l-.74-1.9h-6.07l-.76,1.9Zm5.74-9.53-2.4,6h4.75Z"/><path class="cls-1" d="M98.53,269.52l5-12.37h1.56l4.87,12.37H108l-.75-1.9h-6.06l-.77,1.9Zm5.74-9.53-2.4,6h4.75Z"/><path class="cls-1" d="M116.66,269.68a5.76,5.76,0,0,1-2.31-.5,6.12,6.12,0,0,1-2-1.33l1.22-1.4a4.7,4.7,0,0,0,1.42,1.13,3.64,3.64,0,0,0,1.71.45,2.37,2.37,0,0,0,1.6-.52,1.67,1.67,0,0,0,.62-1.32,2.17,2.17,0,0,0-1.56-2l-1.46-.58a5,5,0,0,1-2-1.33,2.91,2.91,0,0,1-.66-1.95,3.12,3.12,0,0,1,1-2.34,3.54,3.54,0,0,1,2.52-1,5,5,0,0,1,3.59,1.37l-1,1.39a3.41,3.41,0,0,0-2.55-1.11,2,2,0,0,0-1.31.43,1.45,1.45,0,0,0-.5,1.14,1.36,1.36,0,0,0,.37,1,3.41,3.41,0,0,0,1.25.77l1.49.59q2.7,1.1,2.6,3.54a3.4,3.4,0,0,1-1.09,2.6A4.18,4.18,0,0,1,116.66,269.68Z"/><path class="cls-1" d="M124.93,269.52V257.15h4.22a3.89,3.89,0,0,1,2.87,1.16,4,4,0,0,1,1.15,2.94,3.86,3.86,0,0,1-1.18,2.89,4,4,0,0,1-2.91,1.16h-2.42v4.22ZM129,258.8h-2.37v4.85h2.39a2.28,2.28,0,0,0,2.39-2.4,2.44,2.44,0,0,0-.68-1.76A2.34,2.34,0,0,0,129,258.8Z"/><path class="cls-1" d="M144.08,264.1H139v3.77h5.44v1.65h-7.17V257.15h7.08v1.65H139v3.65h5.09Z"/><path class="cls-1" d="M148.72,269.52V257.15h1.73V263l5.15-5.87h2.32l-4.36,4.91,4.47,7.46h-2.14l-3.6-6-1.84,2.07v4Z"/><path class="cls-1" d="M160.64,258.8v-1.65h10v1.65h-4.15v10.72h-1.72V258.8Z"/><path class="cls-1" d="M180.91,264.1h-5.09v3.77h5.44v1.65H174.1V257.15h7.07v1.65h-5.35v3.65h5.09Z"/><path class="cls-1" d="M185.55,269.52V257.15h4.59a3.87,3.87,0,0,1,2.79,1.08,3.73,3.73,0,0,1,1.12,2.79,3.68,3.68,0,0,1-.93,2.58,3.6,3.6,0,0,1-2.36,1.21l3.58,4.71h-2.13l-3.55-4.72h-1.38v4.72Zm4.36-10.72h-2.63v4.46h2.62a2.51,2.51,0,0,0,1.75-.61,2.25,2.25,0,0,0,0-3.21A2.42,2.42,0,0,0,189.91,258.8Z"/><path class="cls-1" d="M116.48,290.52l5-12.37H123l4.87,12.37H126l-.75-1.9h-6.06l-.77,1.9Zm5.74-9.53-2.4,6h4.75Z"/><path class="cls-1" d="M133.79,290.52,129,278.15h1.94l3.71,9.5,3.71-9.5h1.91l-4.84,12.37Z"/><path class="cls-1" d="M150.53,290.52V278.15h3.31a6.23,6.23,0,0,1,4.33,10.61,6.05,6.05,0,0,1-4.39,1.76Zm3.38-10.72h-1.65v9.07H154a4,4,0,0,0,3-1.32,4.61,4.61,0,0,0,1.23-3.24A4.38,4.38,0,0,0,157,281.1,4.08,4.08,0,0,0,153.91,279.8Z"/><path class="cls-1" d="M164.22,290.52V278.15H166v12.37Z"/><path class="cls-1" d="M178.75,285.14V283.5h4.11v.86a6.37,6.37,0,0,1-6.4,6.37,6.07,6.07,0,0,1-4.51-1.85,6.66,6.66,0,0,1,0-9.13,6,6,0,0,1,4.51-1.85,6.66,6.66,0,0,1,2.6.51,6.25,6.25,0,0,1,2.12,1.43l-1.28,1.31a4.51,4.51,0,0,0-6.72-.21,5,5,0,0,0,0,6.74,4.33,4.33,0,0,0,3.28,1.4,4.4,4.4,0,0,0,3-1.08,4.7,4.7,0,0,0,1.56-2.86Z"/></svg>