<svg id="Layer_1" data-name="Layer 1" xmlns="http://www.w3.org/2000/svg" viewBox="0 0 300 600"><defs><style>.cls-1{fill:#d5ad77;}</style></defs><title>text</title><path class="cls-1" d="M85.7,248l-5.43-13.91h2.18l4.17,10.69,4.18-10.69H93L87.5,248Z"/><path class="cls-1" d="M94.13,248l5.59-13.91h1.75L107,248H104.8l-.84-2.14H97.14L96.28,248Zm5-15.39a.92.92,0,0,1-1.38,0,1.1,1.1,0,0,1-.27-.76,1.08,1.08,0,0,1,.27-.75.92.92,0,0,1,1.38,0,1.05,1.05,0,0,1,.29.75A1.07,1.07,0,0,1,99.15,232.61Zm1.44,4.67L97.89,244h5.34Zm2.42-4.67a.93.93,0,0,1-.69.31.9.9,0,0,1-.69-.31,1.07,1.07,0,0,1-.28-.76,1,1,0,0,1,.28-.75.86.86,0,0,1,.69-.31.89.89,0,0,1,.69.31,1,1,0,0,1,.28.75A1.07,1.07,0,0,1,103,232.61Z"/><path class="cls-1" d="M110.81,248V234.09H116a4.32,4.32,0,0,1,3.13,1.21,4.31,4.31,0,0,1-2.44,7.41l4,5.29h-2.4l-4-5.31h-1.55V248Zm4.91-12.06h-3v5h2.94a2.8,2.8,0,0,0,2-.69,2.31,2.31,0,0,0,.76-1.83,2.38,2.38,0,0,0-.77-1.78A2.72,2.72,0,0,0,115.72,235.94Z"/><path class="cls-1" d="M125.25,248V234.09H129A7,7,0,0,1,133.85,246a6.81,6.81,0,0,1-4.94,2Zm3.8-12.06H127.2v10.21h1.91a4.5,4.5,0,0,0,3.43-1.5,5.14,5.14,0,0,0,1.39-3.63,5,5,0,0,0-1.44-3.62A4.65,4.65,0,0,0,129.05,235.94Z"/><path class="cls-1" d="M148.33,241.9H142.6v4.25h6.12V248h-8.06V234.09h8v1.85h-6V240h5.73Z"/><path class="cls-1" d="M153.55,248V234.09h7.59v1.85h-5.65v4.37h5v1.86h-5V248Z"/><path class="cls-1" d="M170.19,248.23a4.84,4.84,0,0,1-3.63-1.45,5.06,5.06,0,0,1-1.42-3.68v-9h1.94V243a3.63,3.63,0,0,0,.83,2.44,2.86,2.86,0,0,0,2.28,1,2.92,2.92,0,0,0,2.3-.94,3.53,3.53,0,0,0,.84-2.44v-8.91h1.94v9a5.09,5.09,0,0,1-1.41,3.68A4.9,4.9,0,0,1,170.19,248.23Z"/><path class="cls-1" d="M180.8,248V234.09h1.94v12.06h5.73V248Z"/><path class="cls-1" d="M192.73,248V234.09h2v12.06h5.72V248Z"/><path class="cls-1" d="M200.76,235.94v-1.85H212v1.85h-4.66V248h-2V235.94Z"/><path class="cls-1" d="M84.68,262.9H79v4.25h6.12V269H77V255.09h8v1.85H79V261h5.72Z"/><path class="cls-1" d="M89.9,269V255.09h5.16a4.35,4.35,0,0,1,3.14,1.21,4.14,4.14,0,0,1,1.26,3.14,4.14,4.14,0,0,1-3.71,4.27l4,5.29H97.39l-4-5.31H91.84V269Zm4.9-12.06h-3v5h3a2.79,2.79,0,0,0,2-.69,2.31,2.31,0,0,0,.76-1.83,2.37,2.37,0,0,0-.76-1.78A2.75,2.75,0,0,0,94.8,256.94Z"/><path class="cls-1" d="M104.33,269V255.09h4.26a4.49,4.49,0,0,1,3.07,1.07,3.62,3.62,0,0,1,1.21,2.81,3.3,3.3,0,0,1-1.66,3,3.6,3.6,0,0,1,1.5,1.25,3.26,3.26,0,0,1,.55,1.87,3.57,3.57,0,0,1-1.22,2.85,4.53,4.53,0,0,1-3.1,1.07Zm4.06-12.06h-2.11v4.23h2.47a2.13,2.13,0,0,0,1.55-.62,2.16,2.16,0,0,0,.62-1.59,1.79,1.79,0,0,0-.69-1.47A2.88,2.88,0,0,0,108.39,256.94Zm.44,6h-2.55v4.25h2.42a2.84,2.84,0,0,0,1.91-.6,2,2,0,0,0,.71-1.59,1.91,1.91,0,0,0-.64-1.49A2.71,2.71,0,0,0,108.83,262.9Z"/><path class="cls-1" d="M120.79,269.22a4.72,4.72,0,0,1-2.77-.83,4.37,4.37,0,0,1-1.64-2.24l1.8-.89a3.06,3.06,0,0,0,1,1.53,2.47,2.47,0,0,0,1.63.57,2.36,2.36,0,0,0,1.88-.79,3.14,3.14,0,0,0,.69-2.15v-9.33h1.94v9.28A4.86,4.86,0,0,1,124,268,4.39,4.39,0,0,1,120.79,269.22Z"/><path class="cls-1" d="M135.43,269.23a4.86,4.86,0,0,1-3.63-1.45,5.06,5.06,0,0,1-1.42-3.68v-9h1.94V264a3.63,3.63,0,0,0,.83,2.44,2.87,2.87,0,0,0,2.28,1,2.92,2.92,0,0,0,2.3-.94,3.53,3.53,0,0,0,.84-2.44v-8.91h1.94v9a5.09,5.09,0,0,1-1.41,3.68A4.9,4.9,0,0,1,135.43,269.23Z"/><path class="cls-1" d="M146,269V255.09h3.73A7,7,0,0,1,154.64,267a6.81,6.81,0,0,1-4.94,2Zm3.8-12.06H148v10.21h1.92a4.5,4.5,0,0,0,3.43-1.5,5.14,5.14,0,0,0,1.39-3.63,5,5,0,0,0-1.44-3.62A4.67,4.67,0,0,0,149.84,256.94Z"/><path class="cls-1" d="M159.41,269,165,255.09h1.76L172.24,269h-2.15l-.84-2.14h-6.82l-.86,2.14Zm6.47-10.72L163.17,265h5.35Z"/><path class="cls-1" d="M176.1,269V255.09h1.36l7.53,9.58v-9.58h1.95V269h-1.08L178,259.07V269Z"/><path class="cls-1" d="M192.75,269V255.09h3.73A7,7,0,0,1,201.35,267a6.81,6.81,0,0,1-4.94,2Zm3.8-12.06h-1.86v10.21h1.92a4.5,4.5,0,0,0,3.43-1.5,5.14,5.14,0,0,0,1.39-3.63A5,5,0,0,0,200,258.4,4.65,4.65,0,0,0,196.55,256.94Z"/><path class="cls-1" d="M215.83,262.9H210.1v4.25h6.12V269h-8.06V255.09h8v1.85h-6V261h5.73Z"/></svg>