<svg id="Layer_1" data-name="Layer 1" xmlns="http://www.w3.org/2000/svg" viewBox="0 0 160 600"><defs><style>.cls-1{fill:#d80201;}</style></defs><title>text</title><path class="cls-1" d="M30.23,261.08V244.41h9.23v2.83h-6v3.7h5.75v2.82H33.48v4.5h6v2.82Z"/><path class="cls-1" d="M50.86,261.08l-3.1-3.77-3.15,3.77h-3.9l5.15-5.89-4.15-4.93h3.82l2.23,2.8,2.27-2.8h3.85l-4.25,4.93,5.08,5.89Z"/><path class="cls-1" d="M59.23,252.86v8.22h-3v-8.22H55v-2.6h1.2v-3.7h3v3.7h2.13v2.6Z"/><path class="cls-1" d="M70,253a2.73,2.73,0,0,0-1.45-.37c-2,0-2.6,1.45-2.6,3.25v5.19h-3V250.26h3v1.63a3.47,3.47,0,0,1,3.15-2,3.56,3.56,0,0,1,1.32.25Z"/><path class="cls-1" d="M80.21,261.08v-1.42a4.2,4.2,0,0,1-3.53,1.77c-3.25,0-5.32-2.7-5.32-5.79s2.07-5.73,5.25-5.73a4.51,4.51,0,0,1,3.6,1.73v-1.38h3.05v10.82Zm-2.7-8.44a3,3,0,1,0,3,3A3,3,0,0,0,77.51,252.64Z"/><path class="cls-1" d="M99,261.43a4.27,4.27,0,0,1-3.55-1.77v1.42h-3V242.36h3v9.28a4.6,4.6,0,0,1,3.63-1.73c3.17,0,5.27,2.7,5.27,5.73S102.23,261.43,99,261.43Zm-.82-8.79a3,3,0,1,0,3,3A3,3,0,0,0,98.16,252.64Z"/><path class="cls-1" d="M113.71,253a2.73,2.73,0,0,0-1.45-.37c-2.05,0-2.6,1.45-2.6,3.25v5.19h-3V250.26h3v1.63a3.47,3.47,0,0,1,3.15-2,3.56,3.56,0,0,1,1.32.25Z"/><path class="cls-1" d="M123.91,261.08v-1.42a4.2,4.2,0,0,1-3.53,1.77c-3.25,0-5.32-2.7-5.32-5.79s2.07-5.73,5.25-5.73a4.51,4.51,0,0,1,3.6,1.73v-1.38h3v10.82Zm-2.7-8.44a3,3,0,1,0,3,3A3,3,0,0,0,121.21,252.64Z"/><path class="cls-1" d="M49.19,291.08v-1.42a4.18,4.18,0,0,1-3.52,1.77c-3.25,0-5.32-2.7-5.32-5.79s2.07-5.73,5.25-5.73a4.49,4.49,0,0,1,3.59,1.73v-9.28h3.05v18.72Zm-2.69-8.44a3,3,0,1,0,3,3A3,3,0,0,0,46.5,282.64Z"/><path class="cls-1" d="M57.67,286.16c0,1.67.85,2.9,2.65,2.9a2.83,2.83,0,0,0,2.57-1.45l2.8.45a5.3,5.3,0,0,1-5.32,3.37,5.43,5.43,0,0,1-5.8-5.77,5.36,5.36,0,0,1,5.68-5.75c3.57,0,5.52,2.4,5.52,5.85v.4Zm2.62-4.1a2.45,2.45,0,0,0-2.52,2.18h5.12A2.51,2.51,0,0,0,60.29,282.06Z"/><path class="cls-1" d="M76.37,291.08v-1.42a4.2,4.2,0,0,1-3.53,1.77c-3.24,0-5.32-2.7-5.32-5.79s2.08-5.73,5.25-5.73a4.51,4.51,0,0,1,3.6,1.73v-1.38h3v10.82Zm-2.7-8.44a3,3,0,1,0,3,3A3,3,0,0,0,73.67,282.64Z"/><path class="cls-1" d="M82.32,291.08V272.36h3v18.72Z"/><path class="cls-1" d="M97.62,282.86v8.22h-3v-8.22H93.42v-2.6H94.6v-3.47a5.32,5.32,0,0,1,.47-2.55,4.29,4.29,0,0,1,3.75-2.18,3.62,3.62,0,0,1,1.6.38v2.77a3.1,3.1,0,0,0-1.38-.4c-1.34,0-1.42,1.4-1.42,2.43v3h2.8v2.6Z"/><path class="cls-1" d="M107.44,291.43c-3.44,0-6.19-2.15-6.19-5.74s2.75-5.78,6.22-5.78,6.15,2.18,6.15,5.75S110.87,291.43,107.44,291.43Zm-2.62-13.19a1.8,1.8,0,1,1,0-3.6,1.8,1.8,0,0,1,0,3.6Zm2.6,4.4a3,3,0,1,0,3.07,3.05A3.06,3.06,0,0,0,107.42,282.64Zm2.6-4.4a1.83,1.83,0,0,1-1.8-1.8,1.8,1.8,0,1,1,1.8,1.8Z"/><path class="cls-1" d="M123,283a2.73,2.73,0,0,0-1.45-.37c-2,0-2.6,1.45-2.6,3.25v5.19h-3V280.26h3v1.63a3.47,3.47,0,0,1,3.15-2,3.56,3.56,0,0,1,1.32.25Z"/><path class="cls-1" d="M44.92,321.08v-1.42a4.19,4.19,0,0,1-3.52,1.77c-3.25,0-5.33-2.7-5.33-5.79s2.08-5.73,5.25-5.73a4.51,4.51,0,0,1,3.6,1.73v-1.38h3v10.82Zm-2.7-8.44a3,3,0,0,0,0,6.07,3,3,0,0,0,0-6.07Z"/><path class="cls-1" d="M50.87,321.08V302.36h3v18.72Z"/><path class="cls-1" d="M56.8,321.08V302.36h3v18.72Z"/><path class="cls-1" d="M71,321.08v-1.42a4.18,4.18,0,0,1-3.52,1.77c-3.25,0-5.32-2.7-5.32-5.79s2.07-5.73,5.24-5.73a4.49,4.49,0,0,1,3.6,1.73v-1.38H74v10.82Zm-2.7-8.44a3,3,0,1,0,3,3A3,3,0,0,0,68.29,312.64Z"/><path class="cls-1" d="M90.59,321.08v-6c0-1.48-.32-2.6-2-2.6s-2.32,1.37-2.32,3v5.59h-3V310.26h3v1.33a4,4,0,0,1,3.4-1.68,3.74,3.74,0,0,1,4,4.3v6.87Z"/><path class="cls-1" d="M99.12,326.88H95.7l4-7.42-5.12-9.2h3.52l3.25,6.15,3.1-6.15h3.45Z"/><path class="cls-1" d="M117,321.08v-1.42a4.2,4.2,0,0,1-3.53,1.77c-3.24,0-5.32-2.7-5.32-5.79s2.08-5.73,5.25-5.73a4.51,4.51,0,0,1,3.6,1.73v-1.38h3v10.82Zm-2.7-8.44a3,3,0,1,0,3,3A3,3,0,0,0,114.32,312.64Z"/><path class="cls-1" d="M50.75,351.31h-1.4l-5.53-11.05h3.4l2.85,6.1,2.85-6.1h3.4Z"/><path class="cls-1" d="M66.07,351.08v-1.42a4.18,4.18,0,0,1-3.52,1.77c-3.25,0-5.33-2.7-5.33-5.79s2.08-5.73,5.25-5.73a4.51,4.51,0,0,1,3.6,1.73v-1.38h3.05v10.82Zm-5.22-12.84a1.8,1.8,0,1,1,0-3.6,1.8,1.8,0,0,1,0,3.6Zm2.52,4.4a3,3,0,1,0,3,3A3,3,0,0,0,63.37,342.64Zm2.67-4.4a1.82,1.82,0,0,1-1.79-1.8,1.8,1.8,0,1,1,1.79,1.8Z"/><path class="cls-1" d="M79.42,351.08v-6c0-1.48-.33-2.6-2-2.6-1.87,0-2.32,1.37-2.32,3v5.59H72V340.26h3v1.33a4,4,0,0,1,3.39-1.68,3.74,3.74,0,0,1,4,4.3v6.87Z"/><path class="cls-1" d="M92.74,351.08v-6c0-1.48-.32-2.6-2-2.6s-2.32,1.37-2.32,3v5.59h-3V340.26h3v1.33a4,4,0,0,1,3.4-1.68,3.74,3.74,0,0,1,4,4.3v6.87Z"/><path class="cls-1" d="M101.2,346.16c0,1.67.84,2.9,2.64,2.9a2.86,2.86,0,0,0,2.58-1.45l2.8.45a5.32,5.32,0,0,1-5.33,3.37,5.42,5.42,0,0,1-5.79-5.77,5.36,5.36,0,0,1,5.67-5.75c3.57,0,5.52,2.4,5.52,5.85v.4Zm2.62-4.1a2.45,2.45,0,0,0-2.52,2.18h5.12A2.52,2.52,0,0,0,103.82,342.06Z"/><path class="cls-1" d="M118.69,343a2.71,2.71,0,0,0-1.45-.37c-2,0-2.59,1.45-2.59,3.25v5.19h-3V340.26h3v1.63a3.45,3.45,0,0,1,3.14-2,3.57,3.57,0,0,1,1.33.25Z"/></svg>