<svg id="Layer_1" data-name="Layer 1" xmlns="http://www.w3.org/2000/svg" viewBox="0 0 300 600"><defs><style>.cls-1{fill:#d5ad77;}</style></defs><title>text</title><path class="cls-1" d="M74.27,117.19v-17h5.59a5.09,5.09,0,0,1,3.72,1.42,4.67,4.67,0,0,1,1.47,3.51,4,4,0,0,1-1.91,3.41A4.82,4.82,0,0,1,85,110.06a3.61,3.61,0,0,1,.71,2.16,4.66,4.66,0,0,1-1.49,3.6,5.29,5.29,0,0,1-3.76,1.37ZM79.49,103H77.21v4.27h2.55a2.38,2.38,0,0,0,1.69-.62,2.12,2.12,0,0,0,.65-1.57,1.83,1.83,0,0,0-.72-1.51A3,3,0,0,0,79.49,103Zm.49,6.82H77.21v4.51h2.7a2.73,2.73,0,0,0,1.92-.64,2.28,2.28,0,0,0,0-3.26A2.76,2.76,0,0,0,80,109.84Z"/><path class="cls-1" d="M107.31,108.68a8.81,8.81,0,1,1-2.58-6.24A8.46,8.46,0,0,1,107.31,108.68Zm-12.84,4.06a5.6,5.6,0,0,0,8,0,5.84,5.84,0,0,0,0-8.14,5.6,5.6,0,0,0-8,0,5.87,5.87,0,0,0,0,8.14Z"/><path class="cls-1" d="M112.19,117.19v-17h3v7.49l6.51-7.49h3.94l-6,6.78,6.13,10.22h-3.67l-4.63-7.76L115.14,112v5.19Z"/><path class="cls-1" d="M128.83,117.19l6.55-17h2.88l6.54,17h-3.28l-.9-2.35H133l-.91,2.35Zm8-12.24-2.72,7h5.42Z"/><path class="cls-1" d="M157.84,117.19v-17h3.08l5.26,8.38,5.33-8.38h3.34v17h-3.19V105.55l-.26,0-5.27,8.14-5.15-8H161v11.57Z"/><path class="cls-1" d="M197.2,108.68a8.81,8.81,0,1,1-2.58-6.24A8.46,8.46,0,0,1,197.2,108.68Zm-12.83,4.06a5.59,5.59,0,0,0,8,0,5.84,5.84,0,0,0,0-8.14,5.59,5.59,0,0,0-8,0,5.87,5.87,0,0,0,0,8.14Zm2.51-14.3a1.37,1.37,0,0,1-1,.45,1.41,1.41,0,0,1-1.05-.45,1.53,1.53,0,0,1-.44-1.09,1.49,1.49,0,0,1,1.49-1.52,1.42,1.42,0,0,1,1,.44,1.46,1.46,0,0,1,.43,1.08A1.55,1.55,0,0,1,186.88,98.44Zm5.06,0a1.64,1.64,0,0,1-2.26,0,1.47,1.47,0,0,1-.46-1.09,1.41,1.41,0,0,1,.46-1.08,1.67,1.67,0,0,1,2.26,0,1.42,1.42,0,0,1,.47,1.08A1.48,1.48,0,0,1,191.94,98.44Z"/><path class="cls-1" d="M199.71,103.24v-3h14v3h-5.41v14h-3.19v-14Z"/><path class="cls-1" d="M227.28,110H221v4.35h6.91v2.84h-10.1v-17h9.9V103H221v4.14h6.3Z"/><path class="cls-1" d="M144.51,135.08a8.81,8.81,0,1,1-2.58-6.24A8.46,8.46,0,0,1,144.51,135.08Zm-12.83,4.06a5.59,5.59,0,0,0,8,0,5.84,5.84,0,0,0,0-8.14,5.57,5.57,0,0,0-8,0,5.87,5.87,0,0,0,0,8.14Z"/><path class="cls-1" d="M164,141.19a8.47,8.47,0,0,1-6.3,2.69,8.59,8.59,0,0,1-6.28-2.58A8.82,8.82,0,1,1,164,128.9l-2.24,2.17a5.34,5.34,0,0,0-4-1.76,5.44,5.44,0,0,0-4,1.69,5.87,5.87,0,0,0,0,8.14,5.43,5.43,0,0,0,4,1.68,5.35,5.35,0,0,0,4.07-1.78Z"/><path class="cls-1" d="M179.1,143.59v-7.1h-7.29v7.1h-3.19v-17h3.19v6.84h7.29v-6.84h3.19v17Z"/><path class="cls-1" d="M61.84,170V153H71.1v2.83H65v4.65h5.41v2.83H65V170Z"/><path class="cls-1" d="M92.46,161.48a8.81,8.81,0,1,1-2.58-6.24A8.46,8.46,0,0,1,92.46,161.48Zm-12.84,4.06a5.6,5.6,0,0,0,8,0,5.84,5.84,0,0,0,0-8.14,5.58,5.58,0,0,0-8,0,5.87,5.87,0,0,0,0,8.14Zm2.52-14.3a1.39,1.39,0,0,1-1,.45,1.41,1.41,0,0,1-1-.45,1.53,1.53,0,0,1-.44-1.09,1.46,1.46,0,0,1,.43-1.08,1.51,1.51,0,0,1,1.06-.44,1.42,1.42,0,0,1,1,.44,1.46,1.46,0,0,1,.43,1.08A1.55,1.55,0,0,1,82.14,151.24Zm5.06,0a1.64,1.64,0,0,1-2.26,0,1.48,1.48,0,0,1-.47-1.09,1.42,1.42,0,0,1,.47-1.08,1.67,1.67,0,0,1,2.26,0,1.41,1.41,0,0,1,.46,1.08A1.47,1.47,0,0,1,87.2,151.24Z"/><path class="cls-1" d="M97.34,170V153H104a5.71,5.71,0,0,1,4.09,1.54,5.27,5.27,0,0,1,1.64,4,5.11,5.11,0,0,1-1.22,3.45,5.43,5.43,0,0,1-3.17,1.81l4.57,6.17h-3.59l-4.41-6.07h-1.38V170Zm6.16-14.17h-3v5.55h3a3.13,3.13,0,0,0,2.22-.76,2.52,2.52,0,0,0,.82-2,2.67,2.67,0,0,0-.85-2A3,3,0,0,0,103.5,155.82Z"/><path class="cls-1" d="M119.11,170l-6.5-17h3.32l4.67,12.22L125.22,153h3.22L122,170Z"/><path class="cls-1" d="M141.94,162.8h-6.29v4.35h6.9V170H132.46V153h9.9v2.83h-6.71V160h6.29Z"/><path class="cls-1" d="M147.72,170V153h6.66a5.71,5.71,0,0,1,4.09,1.54,5.27,5.27,0,0,1,1.64,4,5.11,5.11,0,0,1-1.22,3.45,5.43,5.43,0,0,1-3.17,1.81l4.57,6.17H156.7l-4.41-6.07h-1.38V170Zm6.16-14.17h-3v5.55h3a3.13,3.13,0,0,0,2.22-.76,2.52,2.52,0,0,0,.82-2,2.67,2.67,0,0,0-.85-2A3,3,0,0,0,153.88,155.82Z"/><path class="cls-1" d="M165.08,170V153H168v7.49l6.51-7.49h3.94l-6,6.78L178.61,170h-3.67l-4.63-7.76L168,164.8V170Z"/><path class="cls-1" d="M183.12,170V153h3.19v13.94h6.25V170Z"/><path class="cls-1" d="M197.16,170V153h3.19v17Z"/><path class="cls-1" d="M216.8,162.89v-2.84h6.1l0,1.45a8.71,8.71,0,0,1-1.25,4.51,8.58,8.58,0,0,1-3.22,3.14,8.78,8.78,0,0,1-4.33,1.11,8.83,8.83,0,1,1,0-17.65,8.41,8.41,0,0,1,6.34,2.75l-2.18,2.15a5.74,5.74,0,0,0-8.25-.18,6,6,0,0,0,0,8.2,5.2,5.2,0,0,0,3.86,1.67,6,6,0,0,0,3.78-1.18,5.4,5.4,0,0,0,2-3.13Z"/><path class="cls-1" d="M225.23,170l6.56-17h2.88l6.53,17h-3.28l-.9-2.35h-7.6l-.91,2.35Zm8-12.24-2.72,7.05h5.42Z"/><path class="cls-1" d="M72.68,196.39v-7.1H65.4v7.1H62.21v-17H65.4v6.84h7.28v-6.84h3.19v17Z"/><path class="cls-1" d="M92.74,194.86a6.92,6.92,0,0,1-9.31,0,6,6,0,0,1-1.84-4.5v-11h3.19V190a3.86,3.86,0,0,0,.88,2.62,3,3,0,0,0,2.42,1,3,3,0,0,0,2.43-1,3.85,3.85,0,0,0,.87-2.59v-10.6h3.19v11A6,6,0,0,1,92.74,194.86Z"/><path class="cls-1" d="M104.85,196.61a8.13,8.13,0,0,1-3.2-.67,8.35,8.35,0,0,1-2.76-1.86l2-2.42a6.19,6.19,0,0,0,1.87,1.52,4.75,4.75,0,0,0,2.24.59,2.73,2.73,0,0,0,1.81-.58,1.81,1.81,0,0,0,.71-1.47,2.54,2.54,0,0,0-1.86-2.36l-1.9-.76a7.18,7.18,0,0,1-2.83-1.87,4.33,4.33,0,0,1-.91-2.89,4.41,4.41,0,0,1,1.44-3.23,4.93,4.93,0,0,1,3.61-1.42,7.32,7.32,0,0,1,5.23,1.94l-1.87,2.37A4.41,4.41,0,0,0,105.1,182a2.27,2.27,0,0,0-1.53.49,1.51,1.51,0,0,0-.57,1.2,1.58,1.58,0,0,0,.45,1.16,4.5,4.5,0,0,0,1.46.88l2,.79c2.52,1,3.81,2.65,3.85,4.91a4.74,4.74,0,0,1-1.6,3.72A6.16,6.16,0,0,1,104.85,196.61Z"/><path class="cls-1" d="M115.6,196.39v-17h4.86a8.34,8.34,0,0,1,6,2.43A8.17,8.17,0,0,1,129,188a8,8,0,0,1-2.54,6.07,8.69,8.69,0,0,1-6.16,2.37Zm4.89-14.16h-1.94v11.33h2a4.89,4.89,0,0,0,3.76-1.65,5.76,5.76,0,0,0,1.51-4,5.61,5.61,0,0,0-1.53-4A5,5,0,0,0,120.49,182.23Z"/><path class="cls-1" d="M134,196.39v-17h6.66a5.71,5.71,0,0,1,4.09,1.54,5.3,5.3,0,0,1,1.64,4,5.11,5.11,0,0,1-1.22,3.45,5.43,5.43,0,0,1-3.17,1.81l4.56,6.17h-3.58l-4.41-6.07h-1.38v6.07Zm6.16-14.16h-3v5.54h3a3.11,3.11,0,0,0,2.21-.76,2.52,2.52,0,0,0,.83-2,2.67,2.67,0,0,0-.85-2A3.06,3.06,0,0,0,140.11,182.23Z"/><path class="cls-1" d="M168.1,187.88a8.83,8.83,0,1,1-2.59-6.24A8.47,8.47,0,0,1,168.1,187.88Zm-12.84,4.06a5.36,5.36,0,0,0,4,1.68,5.42,5.42,0,0,0,4-1.68,5.84,5.84,0,0,0,0-8.14,5.42,5.42,0,0,0-4-1.68,5.36,5.36,0,0,0-4,1.68,5.87,5.87,0,0,0,0,8.14Zm2.51-14.3a1.37,1.37,0,0,1-1,.45,1.41,1.41,0,0,1-1-.45,1.52,1.52,0,0,1-.43-1.09,1.49,1.49,0,0,1,.42-1.08,1.53,1.53,0,0,1,1.06-.44,1.41,1.41,0,0,1,1,.44,1.47,1.47,0,0,1,.44,1.08A1.56,1.56,0,0,1,157.77,177.64Zm5.06,0a1.63,1.63,0,0,1-2.25,0,1.48,1.48,0,0,1-.47-1.09,1.42,1.42,0,0,1,.47-1.08,1.66,1.66,0,0,1,2.25,0,1.42,1.42,0,0,1,.47,1.08A1.48,1.48,0,0,1,162.83,177.64Z"/><path class="cls-1" d="M173,196.39v-17h3.08l5.26,8.38,5.32-8.38H190v17H186.8V184.75l-.26,0-5.28,8.14-5.14-8h0v11.57Z"/><path class="cls-1" d="M195.86,196.39v-17h3.08l5.26,8.38,5.32-8.38h3.35v17h-3.19V184.75l-.26,0-5.27,8.14-5.15-8h.05v11.57Z"/><path class="cls-1" d="M228.22,189.2h-6.29v4.36h6.91v2.83h-10.1v-17h9.9v2.84h-6.71v4.13h6.29Z"/><path class="cls-1" d="M234,196.39v-17h2.23l8.37,10.69V179.39h3.19v17h-2.13l-8.47-10.82v10.82Z"/></svg>