<svg id="Layer_1" data-name="Layer 1" xmlns="http://www.w3.org/2000/svg" viewBox="0 0 300 250"><defs><style>.cls-1{fill:#d80201;}</style></defs><title>text</title><path class="cls-1" d="M26.49,120.9v17.73H22.33V120.9H17.56v-3.62H31.29v3.62Z"/><path class="cls-1" d="M35.25,121.25a2.34,2.34,0,0,1,0-4.67,2.34,2.34,0,0,1,0,4.67Zm-2,17.37V124.77h3.87v13.85Z"/><path class="cls-1" d="M40.82,138.63v-24h3.87v24Z"/><path class="cls-1" d="M48.41,138.63v-24h3.87v24Z"/><path class="cls-1" d="M63,138.91H61.24l-7.07-14.14h4.35l3.65,7.81,3.65-7.81h4.35Z"/><path class="cls-1" d="M81.94,138.63V136.8a5.35,5.35,0,0,1-4.51,2.27c-4.16,0-6.82-3.46-6.82-7.42s2.66-7.33,6.72-7.33a5.77,5.77,0,0,1,4.61,2.21v-1.76h3.9v13.85Zm-3.46-10.82a3.89,3.89,0,1,0,3.87,3.87A3.87,3.87,0,0,0,78.48,127.81Z"/><path class="cls-1" d="M89.56,138.63v-24h3.87v24Z"/><path class="cls-1" d="M109.14,128.1v10.53h-3.87V128.1h-1.5v-3.33h1.5v-4.45a6.76,6.76,0,0,1,.61-3.26,5.49,5.49,0,0,1,4.8-2.78,4.58,4.58,0,0,1,2,.48v3.55a3.86,3.86,0,0,0-1.76-.51c-1.73,0-1.82,1.79-1.82,3.1v3.87h3.58v3.33Z"/><path class="cls-1" d="M121.72,139.07c-4.42,0-7.94-2.75-7.94-7.36s3.52-7.39,8-7.39,7.87,2.78,7.87,7.36S126.1,139.07,121.72,139.07Zm-3.36-16.89a2.3,2.3,0,1,1,0-4.61,2.3,2.3,0,0,1,0,4.61Zm3.33,5.63a3.89,3.89,0,1,0,3.94,3.9A3.92,3.92,0,0,0,121.68,127.81Zm3.33-5.63a2.34,2.34,0,0,1-2.3-2.3,2.3,2.3,0,1,1,2.3,2.3Z"/><path class="cls-1" d="M141.65,128.29a3.43,3.43,0,0,0-1.86-.48c-2.62,0-3.33,1.86-3.33,4.16v6.66H132.6V124.77h3.87v2.08a4.52,4.52,0,0,1,5.73-2.21Z"/><path class="cls-1" d="M157.91,139.17a9.12,9.12,0,0,1-6.82-2.78l1.38-3.58a7.15,7.15,0,0,0,5.38,2.72,4.23,4.23,0,0,0,4.26-4.13c0-2.62-2.43-4.26-4.86-4.26a7.05,7.05,0,0,0-4.1,1.34h-.22l2.53-11.2h9.86v3.65h-7l-.83,3.29a13.07,13.07,0,0,1,1.57-.13,7.17,7.17,0,0,1,7.26,7.46C166.26,136.39,162.48,139.17,157.91,139.17Z"/><path class="cls-1" d="M177.46,139.17c-5.89,0-8.26-6.21-8.26-11.2s2.34-11.23,8.26-11.23,8.25,6.17,8.25,11.2S183.38,139.17,177.46,139.17Zm0-18.75c-3.26,0-4.1,5.05-4.1,7.52s.83,7.58,4.1,7.58,4.1-5.12,4.1-7.58S180.72,120.42,177.46,120.42Z"/><path class="cls-1" d="M203.6,139.17c-5.89,0-8.26-6.21-8.26-11.2s2.34-11.23,8.26-11.23,8.25,6.17,8.25,11.2S209.52,139.17,203.6,139.17Zm0-18.75c-3.26,0-4.1,5.05-4.1,7.52s.83,7.58,4.1,7.58,4.1-5.12,4.1-7.58S206.87,120.42,203.6,120.42Z"/><path class="cls-1" d="M221.75,139.17c-5.89,0-8.26-6.21-8.26-11.2s2.34-11.23,8.26-11.23,8.25,6.17,8.25,11.2S227.67,139.17,221.75,139.17Zm0-18.75c-3.26,0-4.1,5.05-4.1,7.52s.83,7.58,4.1,7.58,4.1-5.12,4.1-7.58S225,120.42,221.75,120.42Z"/><path class="cls-1" d="M239.89,139.17c-5.89,0-8.26-6.21-8.26-11.2s2.34-11.23,8.26-11.23,8.25,6.17,8.25,11.2S245.81,139.17,239.89,139.17Zm0-18.75c-3.26,0-4.1,5.05-4.1,7.52s.83,7.58,4.1,7.58,4.1-5.12,4.1-7.58S243.15,120.42,239.89,120.42Z"/><path class="cls-1" d="M268.34,138.63l-5.22-6-.42.42v5.54h-3.87v-24h3.87v15.17l5.18-5.05h5.25l-6.5,6.08,7,7.78Z"/><path class="cls-1" d="M284.43,128.29a3.43,3.43,0,0,0-1.86-.48c-2.62,0-3.33,1.86-3.33,4.16v6.66h-3.87V124.77h3.87v2.08a4.52,4.52,0,0,1,5.73-2.21Z"/></svg>