<svg id="Layer_1" data-name="Layer 1" xmlns="http://www.w3.org/2000/svg" viewBox="0 0 300 250"><defs><style>.cls-1{fill:#d80201;}</style></defs><title>text</title><path class="cls-1" d="M86.69,100.27V105h6.68v3.62H86.69V118H82.53V96.66H93.82v3.61Z"/><path class="cls-1" d="M105.92,107.66a3.45,3.45,0,0,0-1.86-.48c-2.62,0-3.33,1.86-3.33,4.16V118H96.86V104.14h3.87v2.08a4.47,4.47,0,0,1,4-2.52,4.3,4.3,0,0,1,1.69.32Z"/><path class="cls-1" d="M110.27,100.63a2.34,2.34,0,1,1,0-4.68,2.34,2.34,0,0,1,0,4.68Zm-2,17.37V104.14h3.87V118Z"/><path class="cls-1" d="M126.43,118v-1.82a5.37,5.37,0,0,1-4.51,2.27c-4.16,0-6.82-3.46-6.82-7.43s2.66-7.32,6.72-7.32a5.77,5.77,0,0,1,4.61,2.2v-1.76h3.9V118ZM123,107.18a3.89,3.89,0,1,0,3.87,3.88A3.87,3.87,0,0,0,123,107.18Z"/><path class="cls-1" d="M146,107.47V118h-3.87V107.47h-1.54v-3.33h1.54V99.41H146v4.73h2.72v3.33Z"/><path class="cls-1" d="M152.57,100.63a2.34,2.34,0,1,1,2.31-2.34A2.35,2.35,0,0,1,152.57,100.63ZM150.62,118V104.14h3.87V118Z"/><path class="cls-1" d="M158.14,118V94H162v24Z"/><path class="cls-1" d="M165.72,118V94h3.88v24Z"/><path class="cls-1" d="M180.35,118.29h-1.79l-7.08-14.15h4.36l3.64,7.81,3.65-7.81h4.35Z"/><path class="cls-1" d="M199.26,118v-1.82a5.37,5.37,0,0,1-4.51,2.27c-4.16,0-6.82-3.46-6.82-7.43s2.66-7.32,6.72-7.32a5.77,5.77,0,0,1,4.61,2.2v-1.76h3.9V118Zm-3.46-10.82a3.89,3.89,0,1,0,3.88,3.88A3.87,3.87,0,0,0,195.8,107.18Z"/><path class="cls-1" d="M206.88,118V94h3.87v24Z"/><path class="cls-1" d="M35.31,153.54a9.11,9.11,0,0,1-6.81-2.78l1.37-3.58a7.16,7.16,0,0,0,5.38,2.72,4.23,4.23,0,0,0,4.25-4.13c0-2.63-2.43-4.26-4.86-4.26a7,7,0,0,0-4.1,1.35h-.22l2.53-11.2H42.7v3.64h-7l-.83,3.3a13.85,13.85,0,0,1,1.57-.13,7.17,7.17,0,0,1,7.26,7.46C43.66,150.76,39.89,153.54,35.31,153.54Z"/><path class="cls-1" d="M54.86,153.54c-5.88,0-8.25-6.2-8.25-11.2s2.33-11.23,8.25-11.23,8.26,6.18,8.26,11.2S60.78,153.54,54.86,153.54Zm0-18.75c-3.26,0-4.09,5.06-4.09,7.52s.83,7.59,4.09,7.59,4.1-5.12,4.1-7.59S58.13,134.79,54.86,134.79Z"/><path class="cls-1" d="M81,153.54c-5.89,0-8.26-6.2-8.26-11.2s2.34-11.23,8.26-11.23,8.25,6.18,8.25,11.2S86.93,153.54,81,153.54Zm0-18.75c-3.27,0-4.1,5.06-4.1,7.52s.83,7.59,4.1,7.59,4.09-5.12,4.09-7.59S84.27,134.79,81,134.79Z"/><path class="cls-1" d="M99.15,153.54c-5.89,0-8.26-6.2-8.26-11.2s2.34-11.23,8.26-11.23,8.26,6.18,8.26,11.2S105.07,153.54,99.15,153.54Zm0-18.75c-3.26,0-4.1,5.06-4.1,7.52s.84,7.59,4.1,7.59,4.1-5.12,4.1-7.59S102.41,134.79,99.15,134.79Z"/><path class="cls-1" d="M117.29,153.54c-5.88,0-8.25-6.2-8.25-11.2s2.33-11.23,8.25-11.23,8.26,6.18,8.26,11.2S123.21,153.54,117.29,153.54Zm0-18.75c-3.26,0-4.09,5.06-4.09,7.52s.83,7.59,4.09,7.59,4.1-5.12,4.1-7.59S120.56,134.79,117.29,134.79Z"/><path class="cls-1" d="M145.74,153l-5.21-5.95-.42.41V153h-3.87V129h3.87V144.2l5.18-5.06h5.25l-6.5,6.08,7,7.78Z"/><path class="cls-1" d="M161.84,142.66a3.45,3.45,0,0,0-1.86-.48c-2.62,0-3.33,1.86-3.33,4.16V153h-3.87V139.14h3.87v2.08a4.47,4.47,0,0,1,4-2.52,4.35,4.35,0,0,1,1.7.32Z"/><path class="cls-1" d="M179.34,153.29h-1.79l-7.07-14.15h4.35l3.65,7.81,3.64-7.81h4.36Z"/><path class="cls-1" d="M190.25,135.63a2.34,2.34,0,1,1,2.31-2.34A2.35,2.35,0,0,1,190.25,135.63ZM188.3,153V139.14h3.87V153Z"/><path class="cls-1" d="M206.41,153v-1.82a5.36,5.36,0,0,1-4.51,2.27c-4.16,0-6.82-3.46-6.82-7.43s2.66-7.32,6.72-7.32a5.77,5.77,0,0,1,4.61,2.2V129h3.91v24ZM203,142.18a3.89,3.89,0,1,0,3.87,3.88A3.87,3.87,0,0,0,203,142.18Z"/><path class="cls-1" d="M231.53,153l-5.21-5.95-.42.41V153H222V129h3.87V144.2l5.18-5.06h5.25l-6.5,6.08,7,7.78Z"/><path class="cls-1" d="M245.77,153.45c-4.41,0-7.93-2.75-7.93-7.36s3.52-7.39,8-7.39,7.87,2.78,7.87,7.36S250.16,153.45,245.77,153.45Zm-3.36-16.9a2.3,2.3,0,1,1,0-4.6,2.3,2.3,0,1,1,0,4.6Zm3.33,5.63a3.89,3.89,0,1,0,3.93,3.91A3.93,3.93,0,0,0,245.74,142.18Zm3.33-5.63a2.34,2.34,0,0,1-2.31-2.3,2.31,2.31,0,1,1,2.31,2.3Z"/><path class="cls-1" d="M265.16,153.45a5.56,5.56,0,0,1-4.64-2.27v9.21h-3.87V139.14h3.87v1.76a5.52,5.52,0,0,1,4.55-2.2c4.12,0,6.84,3.42,6.84,7.39S269.23,153.45,265.16,153.45ZM264,142.18a3.89,3.89,0,1,0,3.87,3.88A3.87,3.87,0,0,0,264,142.18Z"/></svg>