<svg id="Layer_1" data-name="Layer 1" xmlns="http://www.w3.org/2000/svg" viewBox="0 0 300 250"><defs><style>.cls-1{fill:#d80201;}.cls-2{fill:#fff;}</style></defs><title>text</title><rect class="cls-1" x="75" y="208" width="148.67" height="24" rx="12" ry="12"/><path class="cls-2" d="M92.9,216.91V219h2.93v1.58H92.9v4.1H91.08v-9.34H96v1.58Z"/><path class="cls-2" d="M102.13,224.88a4.85,4.85,0,0,1-5-4.86,5,5,0,1,1,5,4.86Zm0-8.1a3.22,3.22,0,1,0,3.12,3.21A3.17,3.17,0,0,0,102.13,216.78Z"/><path class="cls-2" d="M113.37,224.67l-2.52-3.75h-.22v3.75H108.8v-9.34h2.7a3.85,3.85,0,0,1,2.38.67,2.72,2.72,0,0,1,.92,2.1,3.08,3.08,0,0,1-.53,1.71,2.41,2.41,0,0,1-1.6.92l2.94,3.94Zm-2.2-7.86h-.55v2.82h.52c.94,0,1.79-.34,1.79-1.41S112.11,216.81,111.17,216.81Z"/><path class="cls-2" d="M119.78,216.91v7.76H118v-7.76h-2.09v-1.58h6v1.58Z"/><path class="cls-2" d="M125.65,224.89a3.64,3.64,0,0,1-3.21-1.78l1.18-1.13a2.14,2.14,0,0,0,2,1.25,1.33,1.33,0,0,0,1.44-1.32c0-1.92-4.1-1-4.1-4a2.74,2.74,0,0,1,2.91-2.72,4.1,4.1,0,0,1,2.73,1l-1,1.25a1.89,1.89,0,0,0-1.51-.76c-.6,0-1.3.38-1.3,1.05,0,1.58,4.1.8,4.1,4.06A3,3,0,0,1,125.65,224.89Z"/><path class="cls-2" d="M136.83,224.67l-.8-2h-3.81l-.85,2h-1.93l4-9.54h1.37l3.94,9.54Zm-4.29-10.37a1,1,0,0,1-1-1,1,1,0,1,1,1,1Zm1.61,3.56-1.36,3.36h2.68Zm1.53-3.56a1,1,0,0,1-1-1,1,1,0,1,1,1,1Z"/><path class="cls-2" d="M142.36,216.91v7.76h-1.82v-7.76h-2.09v-1.58h6v1.58Z"/><path class="cls-2" d="M148.56,216.91v7.76h-1.82v-7.76h-2.09v-1.58h6v1.58Z"/><path class="cls-2" d="M161.11,224.67v-4.16h-4v4.16h-1.82v-9.34h1.82v3.61h4v-3.61h1.82v9.34Z"/><path class="cls-2" d="M171.4,224.67l-.8-2h-3.81l-.85,2H164l4-9.54h1.37l3.94,9.54Zm-4.29-10.37a1,1,0,0,1-1-1,1,1,0,1,1,1,1Zm1.61,3.56-1.36,3.36H170Zm1.53-3.56a1,1,0,0,1-1-1,1,1,0,1,1,1,1Z"/><path class="cls-2" d="M179,224.67l-2.52-3.75h-.22v3.75h-1.82v-9.34h2.7a3.85,3.85,0,0,1,2.38.67,2.72,2.72,0,0,1,.92,2.1,3.08,3.08,0,0,1-.53,1.71,2.41,2.41,0,0,1-1.6.92l2.94,3.94Zm-2.2-7.86h-.55v2.82h.52c.94,0,1.79-.34,1.79-1.41S177.75,216.81,176.82,216.81Z"/><polygon class="cls-2" points="196 221.17 186.17 221.17 186.17 218.67 196 218.67 196 214.88 203 219.92 196 224.75 196 221.17"/></svg>