<svg id="Layer_1" data-name="Layer 1" xmlns="http://www.w3.org/2000/svg" viewBox="0 0 300 250"><defs><style>.cls-1{fill:#d80201;}</style></defs><title>text</title><path class="cls-1" d="M79.5,118v-9.5h-9V118H66.32V96.66h4.16v8.25h9V96.66h4.16V118Z"/><path class="cls-1" d="M98.54,118v-1.82A5.36,5.36,0,0,1,94,118.45c-4.16,0-6.82-3.46-6.82-7.43s2.66-7.32,6.72-7.32a5.77,5.77,0,0,1,4.61,2.2v-1.76h3.91V118Zm-3.45-10.82A3.89,3.89,0,1,0,99,111.06,3.87,3.87,0,0,0,95.09,107.18Z"/><path class="cls-1" d="M106.16,118V94H110v24Z"/><path class="cls-1" d="M120.78,118.29H119l-7.07-14.15h4.35l3.65,7.81,3.65-7.81h4.35Z"/><path class="cls-1" d="M139.69,118v-1.82a5.34,5.34,0,0,1-4.51,2.27c-4.16,0-6.81-3.46-6.81-7.43s2.65-7.32,6.72-7.32a5.74,5.74,0,0,1,4.6,2.2v-1.76h3.91V118Zm-3.45-10.82a3.89,3.89,0,1,0,3.87,3.88A3.86,3.86,0,0,0,136.24,107.18Z"/><path class="cls-1" d="M163.82,118.45a5.56,5.56,0,0,1-4.64-2.27v9.21h-3.87V104.14h3.87v1.76a5.52,5.52,0,0,1,4.55-2.2c4.12,0,6.84,3.42,6.84,7.39S167.88,118.45,163.82,118.45Zm-1.15-11.27a3.89,3.89,0,1,0,3.87,3.88A3.87,3.87,0,0,0,162.67,107.18Z"/><path class="cls-1" d="M182.57,107.66a3.44,3.44,0,0,0-1.85-.48c-2.63,0-3.33,1.86-3.33,4.16V118h-3.87V104.14h3.87v2.08a4.45,4.45,0,0,1,4-2.52,4.35,4.35,0,0,1,1.7.32Z"/><path class="cls-1" d="M186.92,100.63a2.34,2.34,0,1,1,2.31-2.34A2.35,2.35,0,0,1,186.92,100.63ZM185,118V104.14h3.87V118Z"/><path class="cls-1" d="M196.91,118.45a7.36,7.36,0,0,1-5.28-2.31l2.05-2.36a4.52,4.52,0,0,0,3.26,1.63,1.63,1.63,0,0,0,1.76-1.54c0-2.37-6.18-1.18-6.18-5.85,0-2.82,2.34-4.39,5-4.39a7.14,7.14,0,0,1,4.52,1.48l-1.92,2.27a3.9,3.9,0,0,0-2.31-.93c-.67,0-1.47.42-1.47,1.18,0,2,6.4,1.12,6.4,5.86C202.7,116.72,199.88,118.45,196.91,118.45Z"/><path class="cls-1" d="M208.68,111.7c.07,2.14,1.09,3.71,3.4,3.71a3.62,3.62,0,0,0,3.29-1.86l3.59.58c-1.22,3-3.68,4.32-6.82,4.32-4.48,0-7.42-2.88-7.42-7.39s2.81-7.36,7.26-7.36,7.07,3.07,7.07,7.48v.52Zm3.36-5.25a3.14,3.14,0,0,0-3.23,2.78h6.56A3.2,3.2,0,0,0,212,106.45Z"/><path class="cls-1" d="M225.93,107.47V118h-3.87V107.47h-1.54v-3.33h1.54V99.41h3.87v4.73h2.72v3.33Z"/><path class="cls-1" d="M66.14,153.45a5.56,5.56,0,0,1-4.64-2.27v9.21H57.63V139.14H61.5v1.76a5.52,5.52,0,0,1,4.55-2.2c4.12,0,6.84,3.42,6.84,7.39S70.21,153.45,66.14,153.45ZM65,142.18a3.89,3.89,0,1,0,3.87,3.88A3.87,3.87,0,0,0,65,142.18Z"/><path class="cls-1" d="M86.43,153v-1.82a5.37,5.37,0,0,1-4.51,2.27c-4.16,0-6.82-3.46-6.82-7.43s2.66-7.32,6.72-7.32a5.77,5.77,0,0,1,4.61,2.2v-1.76h3.9V153ZM83,142.18a3.89,3.89,0,1,0,3.88,3.88A3.87,3.87,0,0,0,83,142.18Zm-.54-5.47a2.88,2.88,0,0,1,0-5.76,2.88,2.88,0,0,1,0,5.76Zm0-4a1.12,1.12,0,1,0,1.12,1.12A1.09,1.09,0,0,0,82.43,132.71Z"/><path class="cls-1" d="M110.46,153.45a5.45,5.45,0,0,1-4.54-2.27V153h-3.87V129h3.87V140.9a5.86,5.86,0,0,1,4.64-2.2c4.06,0,6.75,3.45,6.75,7.32S114.62,153.45,110.46,153.45Zm-1-11.27a3.89,3.89,0,1,0,3.87,3.88A3.87,3.87,0,0,0,109.41,142.18Z"/><path class="cls-1" d="M129.31,142.66a3.45,3.45,0,0,0-1.86-.48c-2.62,0-3.32,1.86-3.32,4.16V153h-3.88V139.14h3.88v2.08a4.44,4.44,0,0,1,4-2.52,4.27,4.27,0,0,1,1.69.32Z"/><path class="cls-1" d="M142.36,153v-1.82a5.34,5.34,0,0,1-4.51,2.27c-4.16,0-6.81-3.46-6.81-7.43s2.65-7.32,6.72-7.32a5.74,5.74,0,0,1,4.6,2.2v-1.76h3.91V153Zm-3.45-10.82a3.89,3.89,0,1,0,3.87,3.88A3.87,3.87,0,0,0,138.91,142.18Z"/><path class="cls-1" d="M154.4,153.45a7.36,7.36,0,0,1-5.28-2.31l2-2.36a4.56,4.56,0,0,0,3.27,1.63,1.64,1.64,0,0,0,1.76-1.54c0-2.37-6.18-1.18-6.18-5.85,0-2.82,2.34-4.39,5-4.39a7.09,7.09,0,0,1,4.51,1.48l-1.92,2.27a3.87,3.87,0,0,0-2.3-.93c-.67,0-1.47.42-1.47,1.18,0,2,6.4,1.12,6.4,5.86C160.19,151.72,157.37,153.45,154.4,153.45Z"/><path class="cls-1" d="M172.44,153l-5.21-5.95-.42.41V153h-3.87V129h3.87V144.2l5.19-5.06h5.24l-6.49,6.08,7,7.78Z"/><path class="cls-1" d="M189.34,153v-1.82a5.37,5.37,0,0,1-4.51,2.27c-4.16,0-6.82-3.46-6.82-7.43s2.66-7.32,6.72-7.32a5.77,5.77,0,0,1,4.61,2.2v-1.76h3.9V153Zm-3.46-10.82a3.89,3.89,0,1,0,3.88,3.88A3.87,3.87,0,0,0,185.88,142.18Z"/><path class="cls-1" d="M214.65,153v-7.58c0-1.63-.26-3.43-2.3-3.43-2.27,0-2.66,2.08-2.66,3.91V153h-3.87v-7.36a6.12,6.12,0,0,0-.29-2.3,2.23,2.23,0,0,0-2.08-1.35,2.51,2.51,0,0,0-2.17,1.25,5.71,5.71,0,0,0-.45,2.66V153H197V139.14h3.87v1.57a5.31,5.31,0,0,1,4.22-2,4.7,4.7,0,0,1,4.32,2.52,5.13,5.13,0,0,1,4.55-2.52,4.56,4.56,0,0,1,3.87,2,6.1,6.1,0,0,1,.73,3.36v9Z"/><path class="cls-1" d="M224.12,135.63a2.34,2.34,0,1,1,2.31-2.34A2.35,2.35,0,0,1,224.12,135.63Zm-2,17.37V139.14H226V153Z"/><path class="cls-1" d="M239.16,153v-7.68c0-1.89-.41-3.33-2.62-3.33-2.4,0-3,1.76-3,3.84V153h-3.87V139.14h3.87v1.7a5.12,5.12,0,0,1,4.36-2.14,4.77,4.77,0,0,1,5.11,5.5V153Z"/></svg>