<svg id="Layer_1" data-name="Layer 1" xmlns="http://www.w3.org/2000/svg" viewBox="0 0 300 250"><defs><style>.cls-1{fill:#d80201;}</style></defs><title>text</title><path class="cls-1" d="M54.27,109.42c-2.08,2.24-5.34,1.88-8.13,1.88v7.91H42V97.86h6.21c2.11,0,4,.16,5.63,1.64A6.8,6.8,0,0,1,56,104.65,7,7,0,0,1,54.27,109.42Zm-3.65-7.27a5,5,0,0,0-3-.67H46.14v6.21h1.7c2.08,0,3.87-.67,3.87-3.07A3.16,3.16,0,0,0,50.62,102.15Z"/><path class="cls-1" d="M68.45,119.21v-1.83a5.34,5.34,0,0,1-4.51,2.27c-4.16,0-6.82-3.45-6.82-7.42s2.66-7.33,6.72-7.33a5.78,5.78,0,0,1,4.61,2.21v-1.76h3.9v13.86ZM65,108.39a3.89,3.89,0,1,0,3.87,3.87A3.87,3.87,0,0,0,65,108.39Z"/><path class="cls-1" d="M80.48,119.65a7.35,7.35,0,0,1-5.28-2.3l2-2.37a4.48,4.48,0,0,0,3.26,1.63,1.62,1.62,0,0,0,1.76-1.53c0-2.37-6.18-1.18-6.18-5.86,0-2.81,2.34-4.38,5-4.38a7.19,7.19,0,0,1,4.52,1.47l-1.92,2.27a3.89,3.89,0,0,0-2.31-.92c-.67,0-1.47.41-1.47,1.18,0,2,6.4,1.12,6.4,5.85C86.27,117.93,83.45,119.65,80.48,119.65Z"/><path class="cls-1" d="M93.44,119.65a7.35,7.35,0,0,1-5.28-2.3l2-2.37a4.48,4.48,0,0,0,3.26,1.63,1.62,1.62,0,0,0,1.76-1.53c0-2.37-6.18-1.18-6.18-5.86,0-2.81,2.34-4.38,5-4.38a7.19,7.19,0,0,1,4.52,1.47l-1.92,2.27a3.89,3.89,0,0,0-2.31-.92c-.67,0-1.47.41-1.47,1.18,0,2,6.4,1.12,6.4,5.85C99.23,117.93,96.41,119.65,93.44,119.65Z"/><path class="cls-1" d="M112.57,119.21v-1.83a5.32,5.32,0,0,1-4.51,2.27c-4.16,0-6.81-3.45-6.81-7.42s2.65-7.33,6.72-7.33a5.75,5.75,0,0,1,4.6,2.21v-1.76h3.91v13.86Zm-3.45-10.82a3.89,3.89,0,1,0,3.87,3.87A3.86,3.86,0,0,0,109.12,108.39Z"/><path class="cls-1" d="M136.7,119.65a5.54,5.54,0,0,1-4.64-2.27v9.22h-3.87V105.35h3.87v1.76a5.53,5.53,0,0,1,4.55-2.21c4.12,0,6.84,3.43,6.84,7.39S140.77,119.65,136.7,119.65Zm-1.15-11.26a3.89,3.89,0,1,0,3.87,3.87A3.87,3.87,0,0,0,135.55,108.39Z"/><path class="cls-1" d="M157,119.21v-1.83a5.34,5.34,0,0,1-4.51,2.27c-4.16,0-6.82-3.45-6.82-7.42s2.66-7.33,6.72-7.33a5.78,5.78,0,0,1,4.61,2.21v-1.76h3.9v13.86Zm-3.46-10.82a3.89,3.89,0,1,0,3.88,3.87A3.87,3.87,0,0,0,153.53,108.39Zm-.54-5.47a2.88,2.88,0,0,1,0-5.76,2.88,2.88,0,0,1,0,5.76Zm0-4a1.12,1.12,0,1,0,1.12,1.12A1.09,1.09,0,0,0,153,98.92Z"/><path class="cls-1" d="M177,119.65a7.38,7.38,0,0,1-5.28-2.3l2-2.37a4.48,4.48,0,0,0,3.26,1.63,1.62,1.62,0,0,0,1.76-1.53c0-2.37-6.17-1.18-6.17-5.86,0-2.81,2.33-4.38,5-4.38a7.16,7.16,0,0,1,4.51,1.47l-1.92,2.27a3.86,3.86,0,0,0-2.31-.92c-.67,0-1.47.41-1.47,1.18,0,2,6.4,1.12,6.4,5.85C182.81,117.93,180,119.65,177,119.65Z"/><path class="cls-1" d="M188.8,112.9c.06,2.15,1.08,3.71,3.39,3.71a3.61,3.61,0,0,0,3.29-1.85l3.59.57c-1.22,3-3.68,4.32-6.82,4.32-4.48,0-7.42-2.88-7.42-7.39s2.81-7.36,7.26-7.36,7.07,3.08,7.07,7.49v.51Zm3.36-5.24a3.15,3.15,0,0,0-3.24,2.78h6.56A3.2,3.2,0,0,0,192.16,107.66Z"/><path class="cls-1" d="M211.61,119.21v-7.68c0-1.89-.41-3.33-2.62-3.33-2.4,0-3,1.76-3,3.84v7.17h-3.87V105.35H206v1.7a5.13,5.13,0,0,1,4.35-2.15,4.78,4.78,0,0,1,5.12,5.51v8.8Z"/><path class="cls-1" d="M229.79,119.21v-1.83a5.34,5.34,0,0,1-4.51,2.27c-4.16,0-6.82-3.45-6.82-7.42s2.66-7.33,6.72-7.33a5.78,5.78,0,0,1,4.61,2.21v-1.76h3.9v13.86Zm-3.46-10.82a3.89,3.89,0,1,0,3.87,3.87A3.87,3.87,0,0,0,226.33,108.39Z"/><path class="cls-1" d="M241.82,119.65a7.38,7.38,0,0,1-5.28-2.3l2.05-2.37a4.48,4.48,0,0,0,3.26,1.63,1.62,1.62,0,0,0,1.76-1.53c0-2.37-6.17-1.18-6.17-5.86,0-2.81,2.33-4.38,5-4.38a7.16,7.16,0,0,1,4.51,1.47L245,108.58a3.86,3.86,0,0,0-2.31-.92c-.67,0-1.47.41-1.47,1.18,0,2,6.4,1.12,6.4,5.85C247.61,117.93,244.8,119.65,241.82,119.65Z"/><path class="cls-1" d="M254.27,108.68v10.53H250.4V108.68h-1.54v-3.33h1.54v-4.73h3.87v4.73H257v3.33Z"/><path class="cls-1" d="M76.81,154.75c-4,0-7.45-2.56-7.67-6.69h4.19a3.27,3.27,0,0,0,3.52,3,3.39,3.39,0,0,0,.09-6.78,6.83,6.83,0,0,0-.77.06v-3a3.82,3.82,0,0,0,.58,0,2.76,2.76,0,0,0,2.94-2.95,2.73,2.73,0,0,0-2.84-2.84c-1.83,0-2.69,1.12-2.92,2.81H70c.61-4,3.07-6.11,7.13-6.11,3.56,0,6.5,2.11,6.5,5.89a4.77,4.77,0,0,1-2.46,4.54A5.25,5.25,0,0,1,84.43,148C84.43,152.35,80.88,154.75,76.81,154.75Z"/><path class="cls-1" d="M93.77,154.21v-17.7H90.7v-3.65h7.23v21.35Z"/><path class="cls-1" d="M121.71,154.65c-4.42,0-7.94-2.75-7.94-7.36s3.52-7.39,8-7.39,7.87,2.79,7.87,7.36S126.09,154.65,121.71,154.65Zm0-11.26a3.89,3.89,0,1,0,3.93,3.9A3.92,3.92,0,0,0,121.68,143.39Z"/><path class="cls-1" d="M142.09,154.21l-5.21-6-.42.42v5.54h-3.87v-24h3.87v15.17l5.19-5.06h5.24l-6.49,6.08,7,7.78Z"/><path class="cls-1" d="M153,143.68v10.53h-3.87V143.68h-1.54v-3.33h1.54v-4.73H153v4.73h2.72v3.33Z"/><path class="cls-1" d="M165,154.65c-4.41,0-7.93-2.75-7.93-7.36s3.52-7.39,8-7.39,7.88,2.79,7.88,7.36S169.36,154.65,165,154.65Zm0-11.26a3.89,3.89,0,1,0,3.94,3.9A3.92,3.92,0,0,0,164.94,143.39Z"/><path class="cls-1" d="M184.27,154.65a5.45,5.45,0,0,1-4.55-2.27v1.83h-3.87v-24h3.87v11.87a5.9,5.9,0,0,1,4.64-2.21c4.07,0,6.76,3.46,6.76,7.33S188.43,154.65,184.27,154.65Zm-1.06-11.26a3.89,3.89,0,1,0,3.87,3.87A3.87,3.87,0,0,0,183.21,143.39Z"/><path class="cls-1" d="M197.29,147.9c.07,2.15,1.09,3.71,3.39,3.71a3.62,3.62,0,0,0,3.3-1.85l3.58.57c-1.21,3-3.68,4.32-6.81,4.32-4.48,0-7.43-2.88-7.43-7.39s2.82-7.36,7.27-7.36,7.07,3.08,7.07,7.49v.51Zm3.36-5.24a3.14,3.14,0,0,0-3.23,2.78H204A3.2,3.2,0,0,0,200.65,142.66Z"/><path class="cls-1" d="M219.69,143.87a3.45,3.45,0,0,0-1.86-.48c-2.62,0-3.32,1.86-3.32,4.16v6.66h-3.87V140.35h3.87v2.08a4.44,4.44,0,0,1,4-2.53,4.54,4.54,0,0,1,1.7.32Z"/><path class="cls-1" d="M224.3,154.62a2.5,2.5,0,1,1,2.49-2.49A2.5,2.5,0,0,1,224.3,154.62Zm-2-6.53V132.86h4v15.23Z"/></svg>