<?xml version="1.0" encoding="utf-8"?>
<!-- Generator: Adobe Illustrator 19.1.1, SVG Export Plug-In . SVG Version: 6.00 Build 0)  -->
<svg version="1.1" id="Layer_1" xmlns="http://www.w3.org/2000/svg" xmlns:xlink="http://www.w3.org/1999/xlink" x="0px" y="0px"
	 viewBox="0 0 300 250" style="enable-background:new 0 0 300 250;" xml:space="preserve">
<style type="text/css">
	.st0{fill:#D80201;}
	.st1{fill:#FFFFFF;}
</style>
<path class="st0" d="M211.7,232H87c-6.6,0-12-5.4-12-12v0c0-6.6,5.4-12,12-12h124.7c6.6,0,12,5.4,12,12v0
	C223.7,226.6,218.3,232,211.7,232z"/>
<g>
	<path class="st1" d="M103.4,224.7l-3.3-4.2l-0.2,0.2v4h-1.8v-9.3h1.8v4l3.4-4h2.3l-3.9,4.3l4.2,5H103.4z"/>
	<path class="st1" d="M111,224.9c-2.8,0-5-2.1-5-4.9s2.2-4.9,5-4.9c2.7,0,5,2.1,5,4.9C116,222.8,113.7,224.9,111,224.9z M111,216.8
		c-1.8,0-3.1,1.5-3.1,3.2s1.3,3.2,3.1,3.2c1.8,0,3.1-1.5,3.1-3.2C114.1,218.3,112.7,216.8,111,216.8z"/>
	<path class="st1" d="M126.3,224.7l-0.8-5.8l-2.6,5.9h-0.5l-2.5-5.9l-0.9,5.8h-1.8l1.7-9.5h1.2l2.5,6.1l2.7-6.1h1.2l1.6,9.5H126.3z"
		/>
	<path class="st1" d="M133.3,224.7v-9.3h1.8v9.3H133.3z"/>
	<path class="st1" d="M146.1,221.4c-0.4,2.2-2.3,3.4-4.4,3.4c-2.8,0-4.9-2-4.9-4.9s2.1-4.9,5-4.9c1.7,0,3.1,0.7,4,2.2l-1.6,0.9
		c-0.5-0.9-1.4-1.4-2.4-1.4c-1.8,0-3.1,1.5-3.1,3.2c0,1.8,1.2,3.2,3.1,3.2c1.2,0,2.3-0.7,2.4-2H142v-1.6h4.3v0.2
		C146.2,220.4,146.2,220.9,146.1,221.4z"/>
	<path class="st1" d="M153.9,224.7l-0.8-2h-3.8l-0.9,2h-1.9l4-9.5h1.4l3.9,9.5H153.9z M151.2,217.9l-1.4,3.4h2.7L151.2,217.9z
		 M151.2,214.4c-0.7,0-1.3-0.6-1.3-1.3c0-0.7,0.6-1.3,1.3-1.3c0.7,0,1.3,0.6,1.3,1.3C152.5,213.8,151.9,214.4,151.2,214.4z
		 M151.2,212.6c-0.3,0-0.5,0.2-0.5,0.5c0,0.3,0.2,0.5,0.5,0.5c0.3,0,0.5-0.2,0.5-0.5C151.7,212.8,151.5,212.6,151.2,212.6z"/>
	<path class="st1" d="M164.5,224.8l-5.7-6.5v6.3h-1.8v-9.6h1.3l5.7,6.5v-6.3h1.8v9.5H164.5z"/>
	<path class="st1" d="M176.7,221.4c-0.4,2.2-2.3,3.4-4.4,3.4c-2.8,0-4.9-2-4.9-4.9s2.1-4.9,5-4.9c1.7,0,3.1,0.7,4,2.2l-1.6,0.9
		c-0.5-0.9-1.4-1.4-2.4-1.4c-1.8,0-3.1,1.5-3.1,3.2c0,1.8,1.2,3.2,3.1,3.2c1.2,0,2.3-0.7,2.4-2h-2.2v-1.6h4.3v0.2
		C176.8,220.4,176.8,220.9,176.7,221.4z"/>
</g>
<polygon class="st1" points="196,221.2 186.2,221.2 186.2,218.7 196,218.7 196,214.9 203,219.9 196,224.8 "/>
</svg>
