<svg id="Layer_1" data-name="Layer 1" xmlns="http://www.w3.org/2000/svg" viewBox="0 0 300 250"><defs><style>.cls-1{fill:#d80201;}</style></defs><title>text</title><path class="cls-1" d="M46.22,140.72a8.31,8.31,0,0,1-7.33-4.06l2.69-2.59a4.89,4.89,0,0,0,4.48,2.85,3,3,0,0,0,3.3-3c0-4.38-9.37-2.3-9.37-9.18,0-3.78,3-6.21,6.66-6.21a9.36,9.36,0,0,1,6.24,2.37l-2.18,2.85A4.32,4.32,0,0,0,47.24,122c-1.38,0-3,.86-3,2.4,0,3.62,9.38,1.82,9.38,9.28C53.64,138,50.44,140.72,46.22,140.72Z"/><path class="cls-1" d="M61.1,129.68v10.53H57.22V129.68H55.69v-3.33h1.54v-4.74H61.1v4.74h2.72v3.33Z"/><path class="cls-1" d="M73,140.65c-4.42,0-7.94-2.75-7.94-7.36s3.52-7.39,8-7.39,7.87,2.78,7.87,7.36S77.42,140.65,73,140.65Zm0-11.26a3.89,3.89,0,1,0,3.94,3.9A3.92,3.92,0,0,0,73,129.39Z"/><path class="cls-1" d="M93,129.87a3.43,3.43,0,0,0-1.86-.48c-2.62,0-3.33,1.86-3.33,4.16v6.66H83.91V126.35h3.87v2.08a4.52,4.52,0,0,1,5.73-2.21Z"/><path class="cls-1" d="M110.47,140.49h-1.79l-7.07-14.14H106l3.65,7.81,3.65-7.81h4.35Z"/><path class="cls-1" d="M130.09,140.21v-1.82a5.35,5.35,0,0,1-4.51,2.27c-4.16,0-6.82-3.46-6.82-7.42s2.66-7.33,6.72-7.33a5.77,5.77,0,0,1,4.61,2.21v-1.76H134v13.85Zm-3.46-10.82a3.89,3.89,0,1,0,3.87,3.87A3.87,3.87,0,0,0,126.63,129.39Zm-.54-5.47a2.88,2.88,0,0,1,0-5.76,2.88,2.88,0,0,1,0,5.76Zm0-4a1.12,1.12,0,1,0,1.12,1.12A1.09,1.09,0,0,0,126.09,119.92Z"/><path class="cls-1" d="M146.76,129.87a3.43,3.43,0,0,0-1.86-.48c-2.62,0-3.33,1.86-3.33,4.16v6.66H137.7V126.35h3.87v2.08a4.52,4.52,0,0,1,5.73-2.21Z"/><path class="cls-1" d="M158.73,140.21l-5.22-6-.42.42v5.54h-3.87v-24h3.87v15.17l5.18-5.06h5.25l-6.5,6.08,7,7.78Z"/><path class="cls-1" d="M175.62,140.21v-1.82a5.35,5.35,0,0,1-4.51,2.27c-4.16,0-6.82-3.46-6.82-7.42s2.66-7.33,6.72-7.33a5.77,5.77,0,0,1,4.61,2.21v-1.76h3.9v13.85Zm-3.46-10.82a3.89,3.89,0,1,0,3.87,3.87A3.87,3.87,0,0,0,172.17,129.39Z"/><path class="cls-1" d="M200.93,140.21v-7.58c0-1.63-.26-3.42-2.3-3.42-2.27,0-2.66,2.08-2.66,3.9v7.1H192.1v-7.36a6.19,6.19,0,0,0-.29-2.3,2.24,2.24,0,0,0-2.08-1.34,2.52,2.52,0,0,0-2.18,1.25,5.75,5.75,0,0,0-.45,2.66v7.1h-3.87V126.35h3.87v1.57a5.32,5.32,0,0,1,4.22-2,4.71,4.71,0,0,1,4.32,2.53,5.12,5.12,0,0,1,4.54-2.53,4.56,4.56,0,0,1,3.87,2,6.11,6.11,0,0,1,.74,3.36v9Z"/><path class="cls-1" d="M217,140.65a5.55,5.55,0,0,1-4.64-2.27v9.21h-3.87V126.35h3.87v1.76a5.52,5.52,0,0,1,4.54-2.21c4.13,0,6.85,3.42,6.85,7.39S221.09,140.65,217,140.65Zm-1.15-11.26a3.89,3.89,0,1,0,3.87,3.87A3.86,3.86,0,0,0,215.88,129.39Z"/><path class="cls-1" d="M237.32,140.21v-1.82a5.35,5.35,0,0,1-4.51,2.27c-4.16,0-6.82-3.46-6.82-7.42s2.66-7.33,6.72-7.33a5.77,5.77,0,0,1,4.61,2.21v-1.76h3.9v13.85Zm-3.46-10.82a3.89,3.89,0,1,0,3.87,3.87A3.87,3.87,0,0,0,233.86,129.39Z"/><path class="cls-1" d="M254.4,140.21v-7.68c0-1.89-.42-3.33-2.62-3.33-2.4,0-3,1.76-3,3.84v7.17h-3.87V126.35h3.87V128a5.11,5.11,0,0,1,4.35-2.14,4.79,4.79,0,0,1,5.12,5.5v8.8Z"/><path class="cls-1" d="M263.88,122.83a2.34,2.34,0,0,1,0-4.67,2.34,2.34,0,0,1,0,4.67Zm-2,24.77V126.35h3.87V147.6Z"/></svg>