<svg id="Layer_1" data-name="Layer 1" xmlns="http://www.w3.org/2000/svg" viewBox="0 0 300 250"><defs><style>.cls-1{fill:#d80201;}</style></defs><title>text</title><path class="cls-1" d="M65.2,119.21H58V97.86h5.28c1.73,0,3.84.16,5.22,1.28a5.72,5.72,0,0,1,1.92,4.39,4.47,4.47,0,0,1-2.34,4.29,4.83,4.83,0,0,1,2.78,1.34,5.71,5.71,0,0,1,1.54,4C72.43,117.41,69,119.21,65.2,119.21Zm-1.79-17.95H62.19v5.5h1.19c1.85,0,3.23-.74,3.23-2.75S65.26,101.26,63.41,101.26Zm.7,8.67H62.19v5.92H64c2.05,0,4.16-.48,4.16-3S66.09,109.93,64.11,109.93Z"/><path class="cls-1" d="M79.69,126.63H75.31l5.09-9.5-6.56-11.78h4.51l4.16,7.87,4-7.87h4.41Z"/><path class="cls-1" d="M105.65,124.23a7.56,7.56,0,0,1-5.89,2.43c-3.55,0-7-2-7.36-5.82h4.19a3.1,3.1,0,0,0,3.3,2.53c2.43,0,3.42-1.7,3.42-3.94v-2.08a5.77,5.77,0,0,1-4.67,2.3c-4.1,0-6.59-3.29-6.59-7.19s2.56-7.56,6.78-7.56a5.22,5.22,0,0,1,4.48,2.24v-1.79h3.9v13.34C107.21,120.87,107.12,122.5,105.65,124.23Zm-5.73-15.84a3.89,3.89,0,1,0,3.87,3.87A3.86,3.86,0,0,0,99.92,108.39Z"/><path class="cls-1" d="M123.79,124.23a7.55,7.55,0,0,1-5.89,2.43c-3.55,0-7-2-7.36-5.82h4.19a3.1,3.1,0,0,0,3.3,2.53c2.43,0,3.42-1.7,3.42-3.94v-2.08a5.75,5.75,0,0,1-4.67,2.3c-4.09,0-6.59-3.29-6.59-7.19s2.56-7.56,6.78-7.56a5.19,5.19,0,0,1,4.48,2.24v-1.79h3.91v13.34C125.36,120.87,125.26,122.5,123.79,124.23Zm-5.73-15.84a3.89,3.89,0,1,0,3.87,3.87A3.87,3.87,0,0,0,118.06,108.39Z"/><path class="cls-1" d="M146.54,119.21v-7.68c0-1.89-.41-3.33-2.62-3.33-2.4,0-3,1.76-3,3.84v7.17h-3.87V105.35h3.87v1.7a5.13,5.13,0,0,1,4.35-2.15,4.8,4.8,0,0,1,5.12,5.51v8.8Z"/><path class="cls-1" d="M157.45,126.63h-4.38l5.09-9.5-6.56-11.78h4.51l4.16,7.87,4-7.87h4.41Z"/><path class="cls-1" d="M174.45,108.68v10.53h-3.88V108.68H169v-3.33h1.53v-4.73h3.88v4.73h2.72v3.33Z"/><path class="cls-1" d="M183.08,108.68v10.53h-3.87V108.68h-1.53v-3.33h1.53v-4.73h3.87v4.73h2.72v3.33Z"/><path class="cls-1" d="M205.29,119.21v-7.59c0-1.92-.41-3.42-2.65-3.42-2.4,0-2.95,1.86-2.95,3.9v7.11h-3.87v-24h3.87v11.9A5.06,5.06,0,0,1,204,104.9a5.33,5.33,0,0,1,4,1.7,5.49,5.49,0,0,1,1.08,3.9v8.71Z"/><path class="cls-1" d="M219.56,119.65c-3.8,0-6.68-1.69-6.68-5.82v-8.48h3.87v7.84c0,1.89.8,3.17,2.81,3.17s2.82-1.28,2.82-3.17v-7.84h3.9v8.48C226.28,118,223.37,119.65,219.56,119.65Z"/><path class="cls-1" d="M234.41,119.65a7.38,7.38,0,0,1-5.28-2.3l2.05-2.37a4.48,4.48,0,0,0,3.26,1.63,1.62,1.62,0,0,0,1.76-1.53c0-2.37-6.17-1.18-6.17-5.86,0-2.81,2.33-4.38,5-4.38a7.16,7.16,0,0,1,4.51,1.47l-1.92,2.27a3.86,3.86,0,0,0-2.3-.92c-.68,0-1.48.41-1.48,1.18,0,2,6.4,1.12,6.4,5.85C240.2,117.93,237.39,119.65,234.41,119.65Z"/><path class="cls-1" d="M76.43,154.21v-7.59c0-1.63-.26-3.42-2.3-3.42-2.28,0-2.66,2.08-2.66,3.9v7.11H67.6v-7.36a6.15,6.15,0,0,0-.29-2.31,2.24,2.24,0,0,0-2.08-1.34,2.54,2.54,0,0,0-2.18,1.25,5.79,5.79,0,0,0-.44,2.65v7.11H58.73V140.35h3.88v1.57a5.32,5.32,0,0,1,4.22-2,4.72,4.72,0,0,1,4.32,2.53,5.13,5.13,0,0,1,4.54-2.53,4.58,4.58,0,0,1,3.88,2,6.08,6.08,0,0,1,.73,3.36v9Z"/><path class="cls-1" d="M87.25,147.9c.06,2.15,1.08,3.71,3.39,3.71a3.61,3.61,0,0,0,3.29-1.85l3.59.57c-1.22,3-3.68,4.32-6.82,4.32-4.48,0-7.42-2.88-7.42-7.39s2.81-7.36,7.26-7.36,7.07,3.08,7.07,7.49v.51Zm3.36-5.24a3.14,3.14,0,0,0-3.24,2.78h6.56A3.2,3.2,0,0,0,90.61,142.66Z"/><path class="cls-1" d="M111.18,154.21v-1.83a5.33,5.33,0,0,1-4.51,2.27c-4.16,0-6.82-3.45-6.82-7.42s2.66-7.33,6.72-7.33a5.78,5.78,0,0,1,4.61,2.21V130.24h3.9v24Zm-3.45-10.82a3.89,3.89,0,1,0,3.87,3.87A3.87,3.87,0,0,0,107.73,143.39Z"/><path class="cls-1" d="M135.21,154.65a5.42,5.42,0,0,1-4.54-2.27v1.83H126.8v-24h3.87v11.87a5.88,5.88,0,0,1,4.64-2.21c4.06,0,6.75,3.46,6.75,7.33S139.37,154.65,135.21,154.65Zm-1.05-11.26a3.89,3.89,0,1,0,3.87,3.87A3.86,3.86,0,0,0,134.16,143.39Z"/><path class="cls-1" d="M154.06,143.87a3.45,3.45,0,0,0-1.86-.48c-2.62,0-3.32,1.86-3.32,4.16v6.66H145V140.35h3.87v2.08a4.51,4.51,0,0,1,5.72-2.21Z"/><path class="cls-1" d="M167.12,154.21v-1.83a5.35,5.35,0,0,1-4.52,2.27c-4.16,0-6.81-3.45-6.81-7.42s2.65-7.33,6.72-7.33a5.78,5.78,0,0,1,4.61,2.21v-1.76H171v13.86Zm-3.46-10.82a3.89,3.89,0,1,0,3.87,3.87A3.87,3.87,0,0,0,163.66,143.39Z"/><path class="cls-1" d="M179.15,154.65a7.35,7.35,0,0,1-5.28-2.3l2-2.37a4.48,4.48,0,0,0,3.26,1.63,1.62,1.62,0,0,0,1.76-1.53c0-2.37-6.18-1.19-6.18-5.86,0-2.81,2.34-4.38,5-4.38a7.19,7.19,0,0,1,4.52,1.47l-1.92,2.27a3.89,3.89,0,0,0-2.31-.92c-.67,0-1.47.41-1.47,1.18,0,2,6.4,1.12,6.4,5.85C184.94,152.93,182.12,154.65,179.15,154.65Z"/><path class="cls-1" d="M205.39,154.21v-7.59c0-1.63-.26-3.42-2.31-3.42-2.27,0-2.65,2.08-2.65,3.9v7.11h-3.87v-7.36a6.15,6.15,0,0,0-.29-2.31,2.25,2.25,0,0,0-2.08-1.34,2.53,2.53,0,0,0-2.18,1.25,5.8,5.8,0,0,0-.45,2.65v7.11h-3.87V140.35h3.87v1.57a5.35,5.35,0,0,1,4.23-2,4.73,4.73,0,0,1,4.32,2.53,5.13,5.13,0,0,1,4.54-2.53,4.57,4.57,0,0,1,3.87,2,6.09,6.09,0,0,1,.74,3.36v9Z"/><path class="cls-1" d="M216.33,161.63H212l5.09-9.5-6.56-11.78H215l4.16,7.87,4-7.87h4.41Z"/><path class="cls-1" d="M233.1,154.65a7.38,7.38,0,0,1-5.28-2.3l2.05-2.37a4.48,4.48,0,0,0,3.26,1.63,1.62,1.62,0,0,0,1.76-1.53c0-2.37-6.17-1.19-6.17-5.86,0-2.81,2.33-4.38,5-4.38a7.16,7.16,0,0,1,4.51,1.47l-1.92,2.27a3.86,3.86,0,0,0-2.31-.92c-.67,0-1.47.41-1.47,1.18,0,2,6.4,1.12,6.4,5.85C238.89,152.93,236.08,154.65,233.1,154.65Z"/></svg>