<svg id="Layer_1" data-name="Layer 1" xmlns="http://www.w3.org/2000/svg" viewBox="0 0 980 240"><defs><style>.cls-1{fill:#d80201;}</style></defs><title>text</title><path class="cls-1" d="M243.36,108.65v7.7h10.87v5.87H243.36v15.24H236.6V102.78H255v5.87Z"/><path class="cls-1" d="M274.62,120.66a5.59,5.59,0,0,0-3-.78c-4.27,0-5.41,3-5.41,6.76v10.82H259.9V114.94h6.29v3.38c1.46-2.54,3.54-4.1,6.55-4.1a7.12,7.12,0,0,1,2.76.52Z"/><path class="cls-1" d="M281.69,109.22a3.8,3.8,0,1,1,0-7.59,3.8,3.8,0,0,1,0,7.59Zm-3.18,28.24V114.94h6.3v22.52Z"/><path class="cls-1" d="M308,137.46v-3a8.72,8.72,0,0,1-7.34,3.69c-6.76,0-11.07-5.62-11.07-12.07,0-6.29,4.31-11.9,10.92-11.9A9.38,9.38,0,0,1,308,117.8v-2.86h6.34v22.52Zm-5.62-17.58a6.32,6.32,0,1,0,6.29,6.3A6.28,6.28,0,0,0,302.33,119.88Z"/><path class="cls-1" d="M339.67,120.35v17.11h-6.3V120.35h-2.49v-5.41h2.49v-7.69h6.3v7.69h4.41v5.41Z"/><path class="cls-1" d="M350.43,109.22a3.8,3.8,0,1,1,0-7.59,3.8,3.8,0,0,1,0,7.59Zm-3.17,28.24V114.94h6.29v22.52Z"/><path class="cls-1" d="M359.48,137.46V98.51h6.29v39Z"/><path class="cls-1" d="M371.8,137.46V98.51h6.29v39Z"/><path class="cls-1" d="M395.56,137.93h-2.91l-11.49-23h7.07l5.93,12.69,5.93-12.69h7.07Z"/><path class="cls-1" d="M426.3,137.46v-3a8.72,8.72,0,0,1-7.34,3.69c-6.76,0-11.07-5.62-11.07-12.07,0-6.29,4.31-11.9,10.92-11.9a9.38,9.38,0,0,1,7.49,3.58v-2.86h6.34v22.52Zm-5.62-17.58a6.32,6.32,0,1,0,6.29,6.3A6.28,6.28,0,0,0,420.68,119.88Z"/><path class="cls-1" d="M438.67,137.46V98.51H445v39Z"/><path class="cls-1" d="M473.41,138.34a14.83,14.83,0,0,1-11.08-4.52l2.24-5.82c2.29,2.6,5.2,4.42,8.73,4.42a6.87,6.87,0,0,0,6.92-6.71c0-4.27-4-6.92-7.9-6.92a11.42,11.42,0,0,0-6.66,2.19h-.36l4.1-18.2h16v5.92H474l-1.35,5.36a21.74,21.74,0,0,1,2.55-.21c6.91,0,11.8,5.31,11.8,12.12C487,133.82,480.84,138.34,473.41,138.34Z"/><path class="cls-1" d="M505.18,138.34c-9.57,0-13.42-10.08-13.42-18.2s3.8-18.25,13.42-18.25,13.41,10,13.41,18.2S514.8,138.34,505.18,138.34Zm0-30.47c-5.31,0-6.66,8.22-6.66,12.22s1.35,12.33,6.66,12.33,6.65-8.32,6.65-12.33S510.48,107.87,505.18,107.87Z"/><path class="cls-1" d="M547.66,138.34c-9.57,0-13.41-10.08-13.41-18.2s3.79-18.25,13.41-18.25,13.42,10,13.42,18.2S557.28,138.34,547.66,138.34Zm0-30.47c-5.3,0-6.65,8.22-6.65,12.22s1.35,12.33,6.65,12.33,6.66-8.32,6.66-12.33S553,107.87,547.66,107.87Z"/><path class="cls-1" d="M577.15,138.34c-9.57,0-13.42-10.08-13.42-18.2s3.79-18.25,13.42-18.25,13.41,10,13.41,18.2S586.77,138.34,577.15,138.34Zm0-30.47c-5.31,0-6.66,8.22-6.66,12.22s1.35,12.33,6.66,12.33,6.65-8.32,6.65-12.33S582.45,107.87,577.15,107.87Z"/><path class="cls-1" d="M606.63,138.34c-9.57,0-13.42-10.08-13.42-18.2s3.8-18.25,13.42-18.25,13.41,10,13.41,18.2S616.25,138.34,606.63,138.34Zm0-30.47c-5.31,0-6.66,8.22-6.66,12.22s1.35,12.33,6.66,12.33,6.66-8.32,6.66-12.33S611.93,107.87,606.63,107.87Z"/><path class="cls-1" d="M652.86,137.46l-8.48-9.67-.68.67v9h-6.29V98.51h6.29v24.65l8.43-8.22h8.53l-10.56,9.88,11.39,12.64Z"/><path class="cls-1" d="M679,120.66a5.58,5.58,0,0,0-3-.78c-4.27,0-5.41,3-5.41,6.76v10.82H664.3V114.94h6.29v3.38c1.45-2.54,3.53-4.1,6.55-4.1a7.12,7.12,0,0,1,2.76.52Z"/><path class="cls-1" d="M707.46,137.93h-2.92l-11.49-23h7.07l5.93,12.69L712,114.94h7.07Z"/><path class="cls-1" d="M725.19,109.22a3.8,3.8,0,1,1,0-7.59,3.8,3.8,0,0,1,0,7.59ZM722,137.46V114.94h6.3v22.52Z"/><path class="cls-1" d="M751.45,137.46v-3a8.72,8.72,0,0,1-7.34,3.69c-6.76,0-11.07-5.62-11.07-12.07,0-6.29,4.31-11.9,10.92-11.9a9.38,9.38,0,0,1,7.49,3.58V98.51h6.34v39Zm-5.62-17.58a6.32,6.32,0,1,0,6.29,6.3A6.28,6.28,0,0,0,745.83,119.88Z"/><path class="cls-1" d="M792.27,137.46l-8.48-9.67-.68.67v9h-6.29V98.51h6.29v24.65l8.43-8.22h8.53l-10.56,9.88,11.39,12.64Z"/><path class="cls-1" d="M815.41,138.19c-7.18,0-12.9-4.47-12.9-12s5.72-12,13-12,12.79,4.52,12.79,12S822.53,138.19,815.41,138.19Zm-5.47-27.46a3.75,3.75,0,0,1,0-7.49,3.75,3.75,0,1,1,0,7.49Zm5.41,9.15a6.32,6.32,0,1,0,6.4,6.35A6.37,6.37,0,0,0,815.35,119.88Zm5.41-9.15A3.79,3.79,0,0,1,817,107a3.74,3.74,0,1,1,3.74,3.74Z"/><path class="cls-1" d="M846.92,138.19a9,9,0,0,1-7.54-3.69v15h-6.3V114.94h6.3v2.86a9,9,0,0,1,7.38-3.58c6.71,0,11.13,5.56,11.13,12C857.89,132.52,853.52,138.19,846.92,138.19ZM845,119.88a6.32,6.32,0,1,0,6.3,6.3A6.28,6.28,0,0,0,845,119.88Z"/></svg>