<svg id="Layer_1" data-name="Layer 1" xmlns="http://www.w3.org/2000/svg" viewBox="0 0 980 240"><defs><style>.cls-1{fill:#d80201;}.cls-2{fill:#fff;}</style></defs><title>text</title><rect class="cls-1" x="50.65" y="104.54" width="186.99" height="30.19" rx="15.09"/><path class="cls-2" d="M73,115.75v2.61h3.68v2H73v5.15H70.68V113.76h6.21v2Z"/><path class="cls-2" d="M84.57,125.77a6.1,6.1,0,0,1-6.27-6.11,6.28,6.28,0,1,1,6.27,6.11Zm0-10.18a4.05,4.05,0,1,0,3.93,4A4,4,0,0,0,84.57,115.59Z"/><path class="cls-2" d="M98.71,125.5l-3.17-4.71h-.28v4.71H93V113.76h3.4a4.78,4.78,0,0,1,3,.85,3.4,3.4,0,0,1,1.17,2.64,3.87,3.87,0,0,1-.67,2.14,3.05,3.05,0,0,1-2,1.17l3.7,4.94ZM96,115.63h-.69v3.54h.65c1.18,0,2.26-.43,2.26-1.78S97.13,115.63,96,115.63Z"/><path class="cls-2" d="M106.78,115.75v9.75h-2.29v-9.75h-2.63v-2h7.56v2Z"/><path class="cls-2" d="M114.15,125.79a4.59,4.59,0,0,1-4-2.24l1.48-1.43a2.7,2.7,0,0,0,2.47,1.57,1.67,1.67,0,0,0,1.81-1.65c0-2.42-5.16-1.27-5.16-5.06a3.44,3.44,0,0,1,3.66-3.41,5.13,5.13,0,0,1,3.44,1.3l-1.2,1.57a2.37,2.37,0,0,0-1.9-1c-.76,0-1.64.47-1.64,1.32,0,2,5.16,1,5.16,5.1A3.79,3.79,0,0,1,114.15,125.79Z"/><path class="cls-2" d="M128.22,125.5l-1-2.48h-4.79l-1.07,2.48h-2.43l5.09-12h1.72l5,12Zm-5.38-13a1.28,1.28,0,0,1-1.27-1.26,1.27,1.27,0,1,1,1.27,1.26Zm2,4.48-1.71,4.22h3.37Zm1.92-4.48a1.28,1.28,0,0,1-1.27-1.26,1.27,1.27,0,1,1,1.27,1.26Z"/><path class="cls-2" d="M135.18,115.75v9.75h-2.29v-9.75h-2.62v-2h7.55v2Z"/><path class="cls-2" d="M143,115.75v9.75h-2.29v-9.75h-2.62v-2h7.55v2Z"/><path class="cls-2" d="M158.76,125.5v-5.22h-5v5.22H151.5V113.76h2.29v4.54h5v-4.54h2.29V125.5Z"/><path class="cls-2" d="M171.7,125.5l-1-2.48h-4.79l-1.08,2.48H162.4l5.09-12h1.73l4.95,12Zm-5.39-13a1.29,1.29,0,0,1-1.27-1.26,1.27,1.27,0,1,1,1.27,1.26Zm2,4.48-1.71,4.22H170Zm1.92-4.48a1.28,1.28,0,0,1-1.27-1.26,1.27,1.27,0,1,1,1.27,1.26Z"/><path class="cls-2" d="M181.28,125.5l-3.17-4.71h-.28v4.71h-2.29V113.76h3.4a4.78,4.78,0,0,1,3,.85,3.39,3.39,0,0,1,1.16,2.64,3.86,3.86,0,0,1-.66,2.14,3.05,3.05,0,0,1-2,1.17l3.7,4.94Zm-2.76-9.87h-.69v3.54h.65c1.18,0,2.25-.43,2.25-1.78S179.7,115.63,178.52,115.63Z"/><polygon class="cls-2" points="202.85 121.11 190.48 121.11 190.48 117.96 202.85 117.96 202.85 113.19 211.65 119.53 202.85 125.61 202.85 121.11"/></svg>