<svg id="Layer_1" data-name="Layer 1" xmlns="http://www.w3.org/2000/svg" viewBox="0 0 300 250"><defs><style>.cls-1{fill:#fff;}</style></defs><title>text</title><path class="cls-1" d="M105.91,64.57h8.32v1.54h-6.47v4.53h5.46V72.2h-5.46v5.24h6.69V79h-8.54Z"/><path class="cls-1" d="M117.29,68.31h1.49l.16,1.54H119A5,5,0,0,1,122.59,68c2.25,0,3.26,1.45,3.26,4.18V79H124V72.46c0-2-.61-2.86-2-2.86-1.1,0-1.85.58-2.93,1.65V79h-1.8Z"/><path class="cls-1" d="M133.33,68c2.72,0,4.27,2,4.27,5a6.85,6.85,0,0,1-.07,1h-7.22c.13,2.31,1.52,3.76,3.57,3.76a4.87,4.87,0,0,0,2.66-.83l.64,1.18a6.34,6.34,0,0,1-3.52,1.1c-2.86,0-5.13-2.09-5.13-5.58S130.88,68,133.33,68ZM136,72.86c0-2.18-1-3.39-2.64-3.39-1.5,0-2.86,1.23-3.08,3.39Z"/><path class="cls-1" d="M140.23,63.33H142V77c0,.57.24.79.5.79a1.37,1.37,0,0,0,.4,0l.24,1.37a2.43,2.43,0,0,1-1,.17c-1.37,0-1.92-.85-1.92-2.42Z"/><path class="cls-1" d="M149,68.31h1.85l1.58,6.18c.25,1,.44,2,.64,3h.09c.24-1,.46-2,.73-3l1.65-6.18h1.76L159,74.49c.26,1,.51,2,.75,3h.09c.24-1,.43-2,.66-3L162,68.31h1.71L160.89,79h-2.2l-1.54-5.74c-.26-1-.46-2-.72-3.08h-.09c-.24,1.07-.46,2.09-.75,3.1L154.09,79H152Z"/><path class="cls-1" d="M165.75,64.94A1.26,1.26,0,1,1,167,66.11,1.19,1.19,0,0,1,165.75,64.94Zm.33,3.37h1.81V79h-1.81Z"/><path class="cls-1" d="M171.5,63.33h1.8V77c0,.57.24.79.5.79a1.34,1.34,0,0,0,.4,0l.24,1.37a2.43,2.43,0,0,1-1,.17c-1.37,0-1.91-.85-1.91-2.42Z"/><path class="cls-1" d="M177.1,63.33h1.81V77c0,.57.24.79.5.79a1.37,1.37,0,0,0,.4,0l.24,1.37a2.43,2.43,0,0,1-1,.17c-1.37,0-1.92-.85-1.92-2.42Z"/><path class="cls-1" d="M187,68.31h1.83v6.53c0,2,.59,2.86,2,2.86,1.1,0,1.87-.55,2.88-1.8V68.31h1.81V79H194l-.15-1.67h-.07a4.52,4.52,0,0,1-3.52,1.93c-2.26,0-3.28-1.45-3.28-4.18Z"/><path class="cls-1" d="M198.84,76.58A4.8,4.8,0,0,0,202,77.86c1.4,0,2.11-.75,2.11-1.68,0-1.1-1.28-1.58-2.44-2-1.52-.55-3.19-1.28-3.19-3.08s1.36-3,3.67-3a5.33,5.33,0,0,1,3.32,1.21l-.86,1.15a4,4,0,0,0-2.44-1c-1.34,0-2,.73-2,1.54,0,1,1.17,1.39,2.38,1.85,1.54.57,3.26,1.21,3.26,3.23,0,1.74-1.39,3.19-3.92,3.19a6.39,6.39,0,0,1-4-1.47Z"/><path class="cls-1" d="M212.35,68c2.73,0,4.27,2,4.27,5a6.85,6.85,0,0,1-.07,1h-7.22c.14,2.31,1.52,3.76,3.57,3.76a4.87,4.87,0,0,0,2.66-.83l.64,1.18a6.34,6.34,0,0,1-3.52,1.1c-2.86,0-5.13-2.09-5.13-5.58S209.91,68,212.35,68ZM215,72.86c0-2.18-1-3.39-2.64-3.39-1.49,0-2.86,1.23-3.08,3.39Z"/><path class="cls-1" d="M105.91,91h4.45c3.19,0,5.32,1.07,5.32,4.24s-2.17,4.47-5.32,4.47h-2.6v5.72h-1.85Zm4.21,7.21c2.53,0,3.74-.92,3.74-3s-1.26-2.77-3.74-2.77h-2.36v5.74Z"/><path class="cls-1" d="M122,94.44c2.62,0,5,2,5,5.64s-2.33,5.58-5,5.58-5-2-5-5.58S119.38,94.44,122,94.44Zm0,9.73c1.85,0,3.08-1.65,3.08-4.09s-1.23-4.14-3.08-4.14-3.08,1.67-3.08,4.14S120.17,104.17,122,104.17Z"/><path class="cls-1" d="M128.4,94.71h1.85l1.58,6.18c.24,1,.44,2,.64,3h.09c.24-1,.46-2,.72-3l1.65-6.18h1.76l1.68,6.18c.26,1,.5,2,.74,3h.09c.24-1,.44-2,.66-3l1.56-6.18h1.72l-2.86,10.69h-2.2l-1.54-5.74c-.26-1-.46-2-.73-3.08h-.08c-.25,1.07-.47,2.09-.75,3.1l-1.5,5.72h-2.11Z"/><path class="cls-1" d="M149.39,94.44c2.73,0,4.27,2,4.27,5a6.85,6.85,0,0,1-.07,1h-7.22c.13,2.31,1.52,3.76,3.57,3.76a4.87,4.87,0,0,0,2.66-.83l.64,1.18a6.34,6.34,0,0,1-3.52,1.1c-2.86,0-5.13-2.09-5.13-5.58S146.94,94.44,149.39,94.44Zm2.68,4.82c0-2.18-1-3.39-2.64-3.39-1.5,0-2.86,1.23-3.08,3.39Z"/><path class="cls-1" d="M156.29,89.73h1.81v13.65c0,.57.24.79.5.79a1.37,1.37,0,0,0,.4,0l.24,1.37a2.43,2.43,0,0,1-1,.17c-1.37,0-1.92-.85-1.92-2.42Z"/><path class="cls-1" d="M166.66,96.18h-1.59V94.82l1.67-.11.22-3h1.52v3h2.88v1.47h-2.88v5.94c0,1.32.42,2.07,1.65,2.07a3.63,3.63,0,0,0,1.21-.29l.35,1.37a6.51,6.51,0,0,1-2,.39c-2.28,0-3.05-1.45-3.05-3.56Z"/><path class="cls-1" d="M177.72,94.44c2.62,0,4.95,2,4.95,5.64s-2.33,5.58-4.95,5.58-4.95-2-4.95-5.58S175.1,94.44,177.72,94.44Zm0,9.73c1.85,0,3.08-1.65,3.08-4.09s-1.23-4.14-3.08-4.14-3.08,1.67-3.08,4.14S175.9,104.17,177.72,104.17Z"/><path class="cls-1" d="M189.6,91.34a1.26,1.26,0,1,1,1.26,1.17A1.19,1.19,0,0,1,189.6,91.34Zm.33,3.37h1.81V105.4h-1.81Z"/><path class="cls-1" d="M195.34,94.71h1.5l.15,1.54h.07a5,5,0,0,1,3.59-1.81c2.24,0,3.25,1.45,3.25,4.18v6.78h-1.8V98.86c0-2-.62-2.86-2-2.86-1.1,0-1.84.58-2.92,1.65v7.75h-1.81Z"/><path class="cls-1" d="M211.73,94.44a4.44,4.44,0,0,1,3.13,1.28l-.9,1.16a3.23,3.23,0,0,0-2.16-.94c-1.94,0-3.34,1.67-3.34,4.14s1.34,4.09,3.29,4.09a3.79,3.79,0,0,0,2.51-1.08l.82,1.19a5.28,5.28,0,0,1-3.48,1.38c-2.84,0-5-2-5-5.58S209,94.44,211.73,94.44Z"/><path class="cls-1" d="M217.41,94.71h1.5l.15,1.93h.07a3.65,3.65,0,0,1,3-2.2,2.78,2.78,0,0,1,1.15.22L223,96.25a3,3,0,0,0-1-.18c-.9,0-2,.66-2.71,2.47v6.86h-1.8Z"/><path class="cls-1" d="M228.83,94.44c2.73,0,4.27,2,4.27,5a6.85,6.85,0,0,1-.07,1h-7.22c.14,2.31,1.52,3.76,3.57,3.76a4.87,4.87,0,0,0,2.66-.83l.64,1.18a6.34,6.34,0,0,1-3.52,1.1c-2.86,0-5.13-2.09-5.13-5.58S226.38,94.44,228.83,94.44Zm2.68,4.82c0-2.18-1-3.39-2.64-3.39-1.49,0-2.86,1.23-3.08,3.39Z"/><path class="cls-1" d="M241.48,98.62c0-1.36-.46-2.68-2.2-2.68a5.73,5.73,0,0,0-3.19,1.14l-.73-1.25a7.93,7.93,0,0,1,4.2-1.39c2.62,0,3.72,1.74,3.72,4.4v6.56h-1.49l-.16-1.28h0a5.8,5.8,0,0,1-3.55,1.54,2.91,2.91,0,0,1-3.14-3C234.9,100.29,236.92,99.13,241.48,98.62Zm-2.93,5.59a4.38,4.38,0,0,0,2.93-1.43v-3c-3.59.44-4.8,1.32-4.8,2.69C236.68,103.71,237.49,104.21,238.55,104.21Z"/><path class="cls-1" d="M246.4,103a4.82,4.82,0,0,0,3.15,1.28c1.41,0,2.11-.75,2.11-1.68,0-1.1-1.27-1.58-2.44-2C247.7,100,246,99.28,246,97.48s1.36-3,3.67-3A5.36,5.36,0,0,1,253,95.65l-.86,1.15a4,4,0,0,0-2.44-1c-1.35,0-2,.73-2,1.54,0,1,1.16,1.39,2.37,1.85,1.54.57,3.26,1.21,3.26,3.23,0,1.74-1.39,3.19-3.92,3.19a6.42,6.42,0,0,1-4-1.47Z"/><path class="cls-1" d="M259.91,94.44c2.73,0,4.27,2,4.27,5a7,7,0,0,1-.06,1H256.9c.13,2.31,1.52,3.76,3.56,3.76a4.93,4.93,0,0,0,2.67-.83l.63,1.18a6.31,6.31,0,0,1-3.52,1.1c-2.86,0-5.12-2.09-5.12-5.58S257.47,94.44,259.91,94.44Zm2.69,4.82c0-2.18-1-3.39-2.64-3.39-1.5,0-2.86,1.23-3.08,3.39Z"/><path class="cls-1" d="M105.8,121.11h1.5l.15,1.93h.07a3.67,3.67,0,0,1,3-2.2,2.7,2.7,0,0,1,1.14.22l-.35,1.59a3,3,0,0,0-1-.18c-.9,0-2,.66-2.7,2.46v6.87H105.8Z"/><path class="cls-1" d="M117.22,120.84c2.73,0,4.27,2,4.27,5a5.75,5.75,0,0,1-.07,1h-7.21c.13,2.31,1.52,3.76,3.56,3.76a4.93,4.93,0,0,0,2.67-.83l.63,1.18a6.31,6.31,0,0,1-3.52,1.1c-2.86,0-5.12-2.09-5.12-5.59S114.78,120.84,117.22,120.84Zm2.69,4.82c0-2.18-1-3.39-2.64-3.39-1.5,0-2.86,1.23-3.08,3.39Z"/><path class="cls-1" d="M122.7,121.11h1.87l2,6.07c.31,1.06.66,2.13,1,3.15h.09c.31-1,.66-2.09,1-3.15l2-6.07h1.79l-3.79,10.69h-2.11Z"/><path class="cls-1" d="M138.43,120.84c2.73,0,4.27,2,4.27,5a5.75,5.75,0,0,1-.07,1h-7.21c.13,2.31,1.51,3.76,3.56,3.76a4.87,4.87,0,0,0,2.66-.83l.64,1.18a6.31,6.31,0,0,1-3.52,1.1c-2.86,0-5.13-2.09-5.13-5.59S136,120.84,138.43,120.84Zm2.68,4.82c0-2.18-1-3.39-2.64-3.39-1.49,0-2.86,1.23-3.08,3.39Z"/><path class="cls-1" d="M145.34,121.11h1.49l.16,1.54h.06a5,5,0,0,1,3.59-1.81c2.24,0,3.26,1.45,3.26,4.18v6.78h-1.81v-6.54c0-2-.61-2.86-2-2.86-1.1,0-1.85.58-2.93,1.65v7.75h-1.8Z"/><path class="cls-1" d="M157.22,121.11H159v6.53c0,2,.6,2.86,2,2.86,1.11,0,1.88-.55,2.89-1.8v-7.59h1.8V131.8h-1.49l-.16-1.67H164a4.54,4.54,0,0,1-3.52,1.93c-2.27,0-3.28-1.45-3.28-4.18Z"/><path class="cls-1" d="M173.34,120.84c2.73,0,4.27,2,4.27,5a7.1,7.1,0,0,1-.06,1h-7.22c.13,2.31,1.52,3.76,3.56,3.76a4.9,4.9,0,0,0,2.67-.83l.63,1.18a6.29,6.29,0,0,1-3.52,1.1c-2.86,0-5.12-2.09-5.12-5.59S170.9,120.84,173.34,120.84Zm2.69,4.82c0-2.18-1-3.39-2.64-3.39-1.5,0-2.86,1.23-3.08,3.39Z"/><path class="cls-1" d="M180,129.38a4.82,4.82,0,0,0,3.15,1.28c1.41,0,2.11-.75,2.11-1.68,0-1.1-1.27-1.58-2.44-2-1.52-.55-3.19-1.28-3.19-3.08s1.37-3,3.67-3a5.36,5.36,0,0,1,3.33,1.21l-.86,1.15a4,4,0,0,0-2.44-1c-1.35,0-2,.73-2,1.54,0,1,1.17,1.39,2.38,1.85,1.54.57,3.25,1.21,3.25,3.23,0,1.74-1.38,3.19-3.92,3.19a6.42,6.42,0,0,1-4-1.47Z"/><path class="cls-1" d="M198.73,117.61a3,3,0,0,0-1.21-.27c-1,0-1.49.71-1.49,2.07v1.7h2.26v1.47H196v9.22h-1.81v-9.22h-1.45v-1.36l1.45-.11v-1.7c0-2.18,1-3.54,3.12-3.54a4.87,4.87,0,0,1,1.79.35Z"/><path class="cls-1" d="M200.34,121.11h1.49L202,123h.06a3.67,3.67,0,0,1,3-2.2,2.7,2.7,0,0,1,1.14.22l-.35,1.59a3,3,0,0,0-1-.18c-.9,0-2,.66-2.71,2.46v6.87h-1.8Z"/><path class="cls-1" d="M211.91,120.84c2.62,0,5,2,5,5.63s-2.33,5.59-5,5.59-4.95-2-4.95-5.59S209.29,120.84,211.91,120.84Zm0,9.73c1.85,0,3.08-1.65,3.08-4.1s-1.23-4.13-3.08-4.13-3.08,1.67-3.08,4.13S210.08,130.57,211.91,130.57Z"/><path class="cls-1" d="M219.67,121.11h1.5l.15,1.54h.07a4.68,4.68,0,0,1,3.32-1.81,2.81,2.81,0,0,1,2.95,2c1.12-1.21,2.22-2,3.52-2,2.2,0,3.26,1.45,3.26,4.18v6.78h-1.81v-6.54c0-2-.63-2.86-2-2.86a3.93,3.93,0,0,0-2.68,1.65v7.75h-1.81v-6.54c0-2-.63-2.86-2-2.86a4,4,0,0,0-2.68,1.65v7.75h-1.81Z"/><path class="cls-1" d="M107.61,159.1v3.61H105.8v-15.2h1.5l.15,1.23h.07a5.52,5.52,0,0,1,3.41-1.5c2.75,0,4.23,2.14,4.23,5.46,0,3.63-2.18,5.76-4.62,5.76a5,5,0,0,1-3-1.23Zm2.62-2.15c1.76,0,3.06-1.61,3.06-4.25,0-2.36-.8-3.94-2.82-3.94a4.52,4.52,0,0,0-2.86,1.45v5.61A4.21,4.21,0,0,0,110.23,157Z"/><path class="cls-1" d="M122.17,147.24c2.62,0,5,2,5,5.64s-2.33,5.58-5,5.58-5-2-5-5.58S119.55,147.24,122.17,147.24Zm0,9.73c1.85,0,3.08-1.65,3.08-4.09s-1.23-4.14-3.08-4.14-3.08,1.67-3.08,4.14S120.35,157,122.17,157Z"/><path class="cls-1" d="M128.57,147.51h1.85l1.59,6.18c.24,1,.44,2,.63,3h.09c.24-1,.46-2,.73-3l1.65-6.18h1.76l1.67,6.18c.27,1,.51,2,.75,3h.09c.24-1,.44-2,.66-3l1.56-6.18h1.72l-2.86,10.69h-2.2l-1.54-5.74c-.27-1-.47-2-.73-3.08h-.09c-.24,1.08-.46,2.09-.75,3.1l-1.49,5.72h-2.12Z"/><path class="cls-1" d="M149.56,147.24c2.73,0,4.27,2,4.27,5a7,7,0,0,1-.06,1h-7.22c.13,2.31,1.52,3.76,3.56,3.76a4.9,4.9,0,0,0,2.67-.83l.63,1.18a6.31,6.31,0,0,1-3.52,1.1c-2.86,0-5.12-2.09-5.12-5.58S147.12,147.24,149.56,147.24Zm2.69,4.82c0-2.18-1-3.39-2.64-3.39-1.5,0-2.86,1.24-3.08,3.39Z"/><path class="cls-1" d="M156.47,147.51H158l.15,1.93h.07a3.65,3.65,0,0,1,3-2.2,2.78,2.78,0,0,1,1.15.22l-.36,1.59a3,3,0,0,0-1-.18c-.9,0-2,.66-2.71,2.46v6.87h-1.8Z"/><path class="cls-1" d="M169.3,157.83v-.09a2,2,0,0,1-1-1.74,2.5,2.5,0,0,1,1.17-2v-.09a3.75,3.75,0,0,1-1.39-2.88,3.81,3.81,0,0,1,4-3.81,4.08,4.08,0,0,1,1.51.27h3.72v1.38h-2.2a3.1,3.1,0,0,1,.88,2.2,3.67,3.67,0,0,1-3.91,3.72,3.76,3.76,0,0,1-1.61-.37,1.62,1.62,0,0,0-.68,1.27c0,.69.44,1.17,1.89,1.17h2.07c2.48,0,3.74.77,3.74,2.55,0,2-2.09,3.7-5.41,3.7-2.62,0-4.43-1-4.43-2.88A3.08,3.08,0,0,1,169.3,157.83Zm3.12,4c2.05,0,3.39-1.06,3.39-2.18s-.77-1.32-2.16-1.32H171.8a5.29,5.29,0,0,1-1.38-.18,2.25,2.25,0,0,0-1.1,1.8C169.32,161.15,170.48,161.88,172.42,161.88Zm2-10.83a2.28,2.28,0,1,0-4.53,0,2.28,2.28,0,1,0,4.53,0Z"/><path class="cls-1" d="M183.33,147.24c2.73,0,4.27,2,4.27,5a5.67,5.67,0,0,1-.07,1h-7.21c.13,2.31,1.51,3.76,3.56,3.76a4.87,4.87,0,0,0,2.66-.83l.64,1.18a6.31,6.31,0,0,1-3.52,1.1c-2.86,0-5.13-2.09-5.13-5.58S180.89,147.24,183.33,147.24Zm2.69,4.82c0-2.18-1-3.39-2.64-3.39-1.5,0-2.87,1.24-3.09,3.39Z"/><path class="cls-1" d="M190.24,147.51h1.5l.15,1.54H192a5,5,0,0,1,3.58-1.81c2.25,0,3.26,1.46,3.26,4.18v6.78H197v-6.53c0-2-.61-2.87-2-2.87-1.1,0-1.85.58-2.93,1.66v7.74h-1.8Z"/><path class="cls-1" d="M206.28,147.24c2.73,0,4.27,2,4.27,5a6.85,6.85,0,0,1-.07,1h-7.22c.14,2.31,1.52,3.76,3.57,3.76a4.87,4.87,0,0,0,2.66-.83l.64,1.18a6.34,6.34,0,0,1-3.52,1.1c-2.86,0-5.13-2.09-5.13-5.58S203.83,147.24,206.28,147.24Zm2.68,4.82c0-2.18-1-3.39-2.64-3.39-1.49,0-2.86,1.24-3.08,3.39Z"/><path class="cls-1" d="M213.18,147.51h1.5l.15,1.93h.07a3.67,3.67,0,0,1,3-2.2,2.7,2.7,0,0,1,1.14.22l-.35,1.59a3,3,0,0,0-1-.18c-.9,0-2,.66-2.7,2.46v6.87h-1.81Z"/><path class="cls-1" d="M226.32,151.42c0-1.36-.46-2.68-2.2-2.68a5.73,5.73,0,0,0-3.19,1.14l-.73-1.25a7.93,7.93,0,0,1,4.2-1.39c2.62,0,3.72,1.74,3.72,4.4v6.56h-1.49l-.16-1.28h0a5.8,5.8,0,0,1-3.54,1.54,2.91,2.91,0,0,1-3.15-3C219.74,153.1,221.76,151.93,226.32,151.42ZM223.39,157a4.34,4.34,0,0,0,2.93-1.43v-3c-3.59.44-4.8,1.32-4.8,2.69A1.64,1.64,0,0,0,223.39,157Z"/><path class="cls-1" d="M231.84,149h-1.58v-1.36l1.67-.11.22-3h1.52v3h2.88V149h-2.88v5.94c0,1.32.41,2.07,1.65,2.07a3.75,3.75,0,0,0,1.21-.29l.35,1.37a6.57,6.57,0,0,1-2,.39c-2.29,0-3.06-1.45-3.06-3.56Z"/><path class="cls-1" d="M238.64,144.14a1.26,1.26,0,0,1,2.51,0,1.26,1.26,0,0,1-2.51,0Zm.33,3.37h1.8V158.2H239Z"/><path class="cls-1" d="M248.54,147.24c2.62,0,5,2,5,5.64s-2.33,5.58-5,5.58-4.95-2-4.95-5.58S245.92,147.24,248.54,147.24Zm0,9.73c1.85,0,3.08-1.65,3.08-4.09s-1.23-4.14-3.08-4.14-3.08,1.67-3.08,4.14S246.71,157,248.54,157Z"/><path class="cls-1" d="M256.3,147.51h1.5l.15,1.54H258a5,5,0,0,1,3.59-1.81c2.24,0,3.25,1.46,3.25,4.18v6.78h-1.8v-6.53c0-2-.62-2.87-2-2.87-1.1,0-1.84.58-2.92,1.66v7.74H256.3Z"/></svg>