<?xml version="1.0" encoding="utf-8"?>
<!-- Generator: Adobe Illustrator 19.1.1, SVG Export Plug-In . SVG Version: 6.00 Build 0)  -->
<svg version="1.1" id="Layer_1" xmlns="http://www.w3.org/2000/svg" xmlns:xlink="http://www.w3.org/1999/xlink" x="0px" y="0px"
	 viewBox="0 0 300 250" style="enable-background:new 0 0 300 250;" xml:space="preserve">
<style type="text/css">
	.st0{fill:#D4AC76;}
</style>
<g>
	<path class="st0" d="M70.9,169.7v-8.9h2.9c0.8,0,1.4,0.2,1.9,0.7c0.5,0.5,0.8,1.1,0.8,1.8c0,0.7-0.3,1.3-1,1.8
		c0.4,0.2,0.7,0.5,1,0.8c0.2,0.3,0.4,0.7,0.4,1.1c0,0.8-0.3,1.4-0.8,1.9c-0.5,0.5-1.2,0.7-2,0.7H70.9z M73.6,162.3h-1.2v2.2h1.3
		c0.4,0,0.7-0.1,0.9-0.3c0.2-0.2,0.3-0.5,0.3-0.8s-0.1-0.6-0.4-0.8C74.3,162.4,74,162.3,73.6,162.3z M73.9,165.8h-1.4v2.4h1.4
		c0.4,0,0.8-0.1,1-0.3c0.2-0.2,0.4-0.5,0.4-0.9c0-0.4-0.1-0.6-0.3-0.8S74.3,165.8,73.9,165.8z"/>
	<path class="st0" d="M84.3,165.9H81v2.3h3.6v1.5h-5.3v-8.9h5.2v1.5H81v2.2h3.3V165.9z"/>
	<path class="st0" d="M89.4,169.8c-0.6,0-1.1-0.1-1.7-0.4c-0.6-0.2-1-0.6-1.4-1l1.1-1.3c0.3,0.3,0.6,0.6,1,0.8
		c0.4,0.2,0.8,0.3,1.2,0.3s0.7-0.1,0.9-0.3c0.2-0.2,0.4-0.5,0.4-0.8c0-0.6-0.3-1-1-1.2l-1-0.4c-0.7-0.3-1.2-0.6-1.5-1
		c-0.3-0.4-0.5-0.9-0.5-1.5s0.3-1.2,0.8-1.7c0.5-0.5,1.1-0.7,1.9-0.7c1.1,0,2,0.3,2.7,1l-1,1.2c-0.5-0.5-1.1-0.8-1.8-0.8
		c-0.3,0-0.6,0.1-0.8,0.3c-0.2,0.2-0.3,0.4-0.3,0.6c0,0.2,0.1,0.5,0.2,0.6c0.2,0.2,0.4,0.3,0.8,0.5l1,0.4c1.3,0.5,2,1.4,2,2.6
		c0,0.8-0.3,1.4-0.8,1.9C91.1,169.5,90.3,169.8,89.4,169.8z"/>
	<path class="st0" d="M93.9,162.4v-1.6h7.3v1.6h-2.8v7.3h-1.7v-7.3H93.9z"/>
	<path class="st0" d="M101.3,169.7l3.4-8.9h1.5l3.4,8.9H108l-0.5-1.2h-4l-0.5,1.2H101.3z M104.7,159.9c-0.1,0.2-0.3,0.2-0.5,0.2
		c-0.2,0-0.4-0.1-0.5-0.2c-0.2-0.2-0.2-0.3-0.2-0.6s0.1-0.4,0.2-0.6c0.2-0.2,0.3-0.2,0.6-0.2s0.4,0.1,0.5,0.2
		c0.2,0.2,0.2,0.3,0.2,0.6S104.9,159.7,104.7,159.9z M105.5,163.3l-1.4,3.7h2.8L105.5,163.3z M107.4,159.9c-0.2,0.2-0.4,0.2-0.6,0.2
		c-0.2,0-0.4-0.1-0.6-0.2c-0.2-0.2-0.2-0.3-0.2-0.6s0.1-0.4,0.2-0.6c0.2-0.2,0.4-0.2,0.6-0.2c0.2,0,0.4,0.1,0.6,0.2
		c0.2,0.2,0.2,0.3,0.2,0.6S107.5,159.7,107.4,159.9z"/>
	<path class="st0" d="M111.5,169.7v-8.9h1.7v7.3h3.3v1.6H111.5z"/>
	<path class="st0" d="M118.6,169.7v-8.9h1.7v7.3h3.3v1.6H118.6z"/>
	<path class="st0" d="M132.5,169.7l-3.4-8.9h1.7l2.4,6.4l2.4-6.4h1.7l-3.4,8.9H132.5z"/>
	<path class="st0" d="M137.6,169.7l3.4-8.9h1.5l3.4,8.9h-1.7l-0.5-1.2h-4l-0.5,1.2H137.6z M141.8,163.3l-1.4,3.7h2.8L141.8,163.3z
		 M143.1,159.3c0,0.4-0.1,0.7-0.4,0.9s-0.6,0.4-0.9,0.4c-0.4,0-0.7-0.1-0.9-0.4c-0.2-0.2-0.4-0.5-0.4-0.9s0.1-0.7,0.4-0.9
		c0.2-0.2,0.6-0.4,0.9-0.4c0.4,0,0.7,0.1,0.9,0.4C143,158.6,143.1,158.9,143.1,159.3z M141.5,159.6c0.1,0.1,0.2,0.1,0.3,0.1
		s0.2,0,0.3-0.1c0.1-0.1,0.1-0.2,0.1-0.3c0-0.1,0-0.2-0.1-0.3c-0.1-0.1-0.2-0.1-0.3-0.1c-0.1,0-0.2,0-0.3,0.1
		c-0.1,0.1-0.1,0.2-0.1,0.3C141.3,159.4,141.4,159.5,141.5,159.6z"/>
	<path class="st0" d="M147.8,169.7v-8.9h3.5c0.9,0,1.6,0.3,2.1,0.8s0.9,1.2,0.9,2.1c0,0.7-0.2,1.3-0.6,1.8c-0.4,0.5-1,0.8-1.7,0.9
		l2.4,3.2h-1.9l-2.3-3.2h-0.7v3.2H147.8z M151,162.3h-1.6v2.9h1.6c0.5,0,0.9-0.1,1.2-0.4c0.3-0.3,0.4-0.6,0.4-1s-0.1-0.8-0.4-1.1
		C151.9,162.4,151.5,162.3,151,162.3z"/>
	<path class="st0" d="M155.8,162.4v-1.6h7.3v1.6h-2.8v7.3h-1.7v-7.3H155.8z"/>
	<path class="st0" d="M169.6,169.7v-8.9h1.6l2.7,4.4l2.8-4.4h1.7v8.9h-1.7v-6.1l-0.1,0l-2.8,4.3l-2.7-4.2h0v6H169.6z"/>
	<path class="st0" d="M180.2,169.7l3.4-8.9h1.5l3.4,8.9h-1.7l-0.5-1.2h-4l-0.5,1.2H180.2z M184.4,163.3L183,167h2.8L184.4,163.3z"/>
	<path class="st0" d="M195.7,166v-1.5h3.2l0,0.8c0,0.9-0.2,1.7-0.7,2.4c-0.4,0.7-1,1.3-1.7,1.6c-0.7,0.4-1.5,0.6-2.3,0.6
		c-1.3,0-2.4-0.4-3.3-1.3c-0.9-0.9-1.3-2-1.3-3.3s0.4-2.4,1.3-3.3c0.9-0.9,2-1.4,3.3-1.4s2.4,0.5,3.3,1.4l-1.1,1.1
		c-0.6-0.6-1.3-1-2.2-1s-1.6,0.3-2.1,0.9c-0.6,0.6-0.8,1.3-0.8,2.1c0,0.8,0.3,1.6,0.8,2.1c0.6,0.6,1.2,0.9,2,0.9s1.4-0.2,2-0.6
		c0.5-0.4,0.9-1,1-1.6H195.7z"/>
	<path class="st0" d="M199.9,169.7l3.4-8.9h1.5l3.4,8.9h-1.7l-0.5-1.2h-4l-0.5,1.2H199.9z M204.1,163.3l-1.4,3.7h2.8L204.1,163.3z"
		/>
	<path class="st0" d="M212.6,169.8c-0.6,0-1.1-0.1-1.7-0.4c-0.6-0.2-1-0.6-1.4-1l1.1-1.3c0.3,0.3,0.6,0.6,1,0.8
		c0.4,0.2,0.8,0.3,1.2,0.3c0.4,0,0.7-0.1,0.9-0.3c0.2-0.2,0.4-0.5,0.4-0.8c0-0.6-0.3-1-1-1.2l-1-0.4c-0.7-0.3-1.2-0.6-1.5-1
		s-0.5-0.9-0.5-1.5s0.3-1.2,0.8-1.7c0.5-0.5,1.1-0.7,1.9-0.7c1.1,0,2,0.3,2.7,1l-1,1.2c-0.5-0.5-1.1-0.8-1.8-0.8
		c-0.3,0-0.6,0.1-0.8,0.3c-0.2,0.2-0.3,0.4-0.3,0.6c0,0.2,0.1,0.5,0.2,0.6s0.4,0.3,0.8,0.5l1,0.4c1.3,0.5,2,1.4,2,2.6
		c0,0.8-0.3,1.4-0.8,1.9C214.3,169.5,213.5,169.8,212.6,169.8z"/>
	<path class="st0" d="M218,169.7v-8.9h1.7v8.9H218z"/>
	<path class="st0" d="M222.6,169.7v-8.9h1.2l4.4,5.6v-5.6h1.7v8.9h-1.1l-4.4-5.7v5.7H222.6z"/>
</g>
</svg>
