<svg id="Layer_1" data-name="Layer 1" xmlns="http://www.w3.org/2000/svg" viewBox="0 0 320 320"><defs><style>.cls-1{fill:#d80201;}</style></defs><title>text</title><path class="cls-1" d="M102.41,243.49h-.84v3.8h-1v-8.67h1.58a3.15,3.15,0,0,1,2.18.61,2.42,2.42,0,0,1,.79,1.83C105.15,242.71,103.94,243.49,102.41,243.49Zm-.13-4h-.71v3.08h.79c1,0,1.84-.45,1.84-1.56S103.31,239.53,102.28,239.53Z"/><path class="cls-1" d="M110.07,247.29v-.76a2.3,2.3,0,0,1-1.87.91,2.67,2.67,0,0,1-2.6-2.87,2.62,2.62,0,0,1,2.58-2.81,2.29,2.29,0,0,1,1.89.9v-.77H111v5.4Zm-1.74-4.7a1.85,1.85,0,0,0-1.79,2,1.87,1.87,0,0,0,1.79,2,1.84,1.84,0,0,0,1.79-2A1.82,1.82,0,0,0,108.33,242.59Z"/><path class="cls-1" d="M112.76,247.29v-9.48h.92v9.48Z"/><path class="cls-1" d="M119.57,247.29v-.76a2.29,2.29,0,0,1-1.87.91,2.67,2.67,0,0,1-2.6-2.87,2.63,2.63,0,0,1,2.59-2.81,2.28,2.28,0,0,1,1.88.9v-.77h.92v5.4Zm-1.74-4.7a1.84,1.84,0,0,0-1.78,2,1.86,1.86,0,0,0,1.78,2,1.84,1.84,0,0,0,1.79-2A1.82,1.82,0,0,0,117.83,242.59Z"/><path class="cls-1" d="M125.65,247.29V244.1c0-.84-.11-1.51-1.13-1.51-1.19,0-1.34,1-1.34,2v2.71h-.92v-5.4h.92v.65a1.84,1.84,0,0,1,1.56-.78,1.86,1.86,0,0,1,1.54.74,2.53,2.53,0,0,1,.31,1.43v3.36Z"/><path class="cls-1" d="M132.48,247.29v-.76a2.3,2.3,0,0,1-1.87.91,2.67,2.67,0,0,1-2.6-2.86,2.64,2.64,0,0,1,2.58-2.82,2.32,2.32,0,0,1,1.89.9v-4.85h.92v9.48Zm-1.74-4.68a1.83,1.83,0,0,0-1.78,2,1.8,1.8,0,1,0,3.57,0A1.8,1.8,0,0,0,130.74,242.61Z"/><path class="cls-1" d="M135.79,244.78a1.76,1.76,0,0,0,1.72,1.82,1.86,1.86,0,0,0,1.66-1.12l.78.43a2.69,2.69,0,0,1-2.47,1.53,2.85,2.85,0,0,1,0-5.68A2.59,2.59,0,0,1,140,244.6v.18Zm1.67-2.17a1.65,1.65,0,0,0-1.6,1.39H139A1.61,1.61,0,0,0,137.46,242.61Z"/><path class="cls-1" d="M144,242.83a.83.83,0,0,0-.55-.18,1,1,0,0,0-.47.11c-.59.33-.59,1.09-.59,1.68v2.85h-.93v-5.4h.93v.59a1.44,1.44,0,0,1,1.22-.72,1.59,1.59,0,0,1,.83.22Z"/><path class="cls-1" d="M146.71,247.44a1.92,1.92,0,0,1-1.88-1.38l.8-.33c.23.48.52.87,1.1.87a.84.84,0,0,0,.88-.85c0-1.17-2.43-.8-2.43-2.48a1.51,1.51,0,0,1,1.57-1.51,1.61,1.61,0,0,1,1.48,1l-.76.4a.87.87,0,0,0-.76-.53.65.65,0,0,0-.65.59c0,1,2.5.71,2.5,2.47A1.77,1.77,0,0,1,146.71,247.44Z"/><path class="cls-1" d="M154.93,247.64l-2.65-5.75h1l1.61,3.63,1.6-3.63h1Z"/><path class="cls-1" d="M162.68,247.29v-.76a2.32,2.32,0,0,1-1.87.91,2.67,2.67,0,0,1-2.6-2.87,2.62,2.62,0,0,1,2.58-2.81,2.3,2.3,0,0,1,1.89.9v-.77h.92v5.4Zm-1.74-4.7a1.85,1.85,0,0,0-1.79,2,1.87,1.87,0,0,0,1.79,2,1.84,1.84,0,0,0,1.79-2A1.82,1.82,0,0,0,160.94,242.59Zm-1.08-1.8a.66.66,0,0,1-.65-.65.65.65,0,1,1,1.3,0A.65.65,0,0,1,159.86,240.79Zm2.26,0a.66.66,0,0,1-.65-.65.65.65,0,1,1,1.3,0A.65.65,0,0,1,162.12,240.79Z"/><path class="cls-1" d="M169.91,249.29a2.63,2.63,0,0,1-2.16,1,2.43,2.43,0,0,1-2.63-2.47H166a1.62,1.62,0,0,0,1.72,1.64c1.3,0,1.73-1,1.73-2.13v-.8a2.44,2.44,0,0,1-1.9.9,2.85,2.85,0,0,1,0-5.67,2.31,2.31,0,0,1,1.86.89v-.76h.94v5.28A3.29,3.29,0,0,1,169.91,249.29Zm-2.18-6.7a1.85,1.85,0,0,0-1.76,2,1.82,1.82,0,0,0,1.76,2,2,2,0,0,0,0-4Z"/><path class="cls-1" d="M179,244.36l-1.78,2h3.64v.9h-5.6l3.16-3.66c.58-.67,1.49-1.65,1.49-2.58a1.73,1.73,0,1,0-3.45.1h-1a4.22,4.22,0,0,1,.18-1,2.71,2.71,0,0,1,5.22.89C180.83,242.36,179.76,243.45,179,244.36Z"/><path class="cls-1" d="M187.3,246.69a3,3,0,0,1-2.08.6h-2.16v-8.67h1.56a3,3,0,0,1,2,.54,2.33,2.33,0,0,1,.81,1.81,2,2,0,0,1-.86,1.69,2.16,2.16,0,0,1,1.64,2.18A2.37,2.37,0,0,1,187.3,246.69Zm-2.52-7.16H184v2.91h.73a1.81,1.81,0,0,0,1.24-.33,1.46,1.46,0,0,0,.45-1.13C186.44,239.9,185.76,239.53,184.78,239.53Zm1.7,4a2.71,2.71,0,0,0-1.38-.26H184v3.12h1.21a2.11,2.11,0,0,0,1.42-.38,1.52,1.52,0,0,0,.56-1.19A1.51,1.51,0,0,0,186.48,243.53Z"/><path class="cls-1" d="M189.74,249.26l-.61-.24,1.07-3,.86.31Z"/><path class="cls-1" d="M198.62,247.81l-3.51-9.19h1.06l2.46,6.61,2.46-6.61h1Z"/><path class="cls-1" d="M203.15,244.78a1.74,1.74,0,0,0,1.71,1.82,1.88,1.88,0,0,0,1.67-1.12l.78.43a2.7,2.7,0,0,1-2.47,1.53,2.85,2.85,0,0,1-.06-5.68,2.59,2.59,0,0,1,2.58,2.84v.18Zm1.66-2.17a1.65,1.65,0,0,0-1.6,1.39h3.17A1.61,1.61,0,0,0,204.81,242.61Z"/><path class="cls-1" d="M213.31,249.29a2.61,2.61,0,0,1-2.16,1,2.42,2.42,0,0,1-2.62-2.47h.92a1.62,1.62,0,0,0,1.72,1.64c1.3,0,1.73-1,1.73-2.13v-.8a2.47,2.47,0,0,1-1.9.9,2.65,2.65,0,0,1-2.58-2.82,2.68,2.68,0,0,1,2.62-2.85,2.32,2.32,0,0,1,1.86.89v-.76h.93v5.28A3.29,3.29,0,0,1,213.31,249.29Zm-2.17-6.7a1.86,1.86,0,0,0-1.77,2,1.83,1.83,0,0,0,1.77,2,2,2,0,0,0,0-4Z"/><path class="cls-1" d="M219.72,247.29v-.76a2.29,2.29,0,0,1-1.87.91,2.67,2.67,0,0,1-2.6-2.87,2.62,2.62,0,0,1,2.58-2.81,2.29,2.29,0,0,1,1.89.9v-.77h.92v5.4Zm-1.74-4.7a1.84,1.84,0,0,0-1.78,2,1.86,1.86,0,0,0,1.78,2,1.84,1.84,0,0,0,1.79-2A1.82,1.82,0,0,0,218,242.59Z"/><path class="cls-1" d="M85,262.44a2.65,2.65,0,0,1-2.68-2.23l.94-.26A1.76,1.76,0,0,0,85,261.53a1.71,1.71,0,0,0,1.75-1.71c0-2-4-1.56-4-4.11a2.29,2.29,0,0,1,2.43-2.24,2.49,2.49,0,0,1,2.24,1.35l-.77.51a1.59,1.59,0,0,0-1.48-1,1.38,1.38,0,0,0-1.44,1.33c0,1.79,4,1.27,4,4.07A2.66,2.66,0,0,1,85,262.44Z"/><path class="cls-1" d="M91.74,262.44a2.84,2.84,0,1,1,2.85-2.83A2.82,2.82,0,0,1,91.74,262.44Zm0-4.83a2,2,0,1,0,1.91,2A1.89,1.89,0,0,0,91.73,257.61Zm-1.12-1.82a.66.66,0,0,1-.65-.65.65.65,0,1,1,.65.65Zm2.27,0a.66.66,0,0,1-.65-.65.65.65,0,1,1,1.3,0A.65.65,0,0,1,92.88,255.79Z"/><path class="cls-1" d="M99.4,262.29V259.1c0-.84-.12-1.51-1.13-1.51-1.2,0-1.34,1-1.34,2v2.71H96v-5.4h.92v.65a1.83,1.83,0,0,1,1.56-.78,1.86,1.86,0,0,1,1.54.74,2.53,2.53,0,0,1,.31,1.43v3.36Z"/><path class="cls-1" d="M106.23,262.29v-.76a2.31,2.31,0,0,1-1.88.91,2.68,2.68,0,0,1-2.6-2.86,2.65,2.65,0,0,1,2.59-2.82,2.33,2.33,0,0,1,1.89.9v-4.85h.92v9.48Zm-1.75-4.68a2,2,0,1,0,1.8,2A1.8,1.8,0,0,0,104.48,257.61Z"/><path class="cls-1" d="M113,262.29v-.76a2.3,2.3,0,0,1-1.87.91,2.67,2.67,0,0,1-2.6-2.87,2.62,2.62,0,0,1,2.58-2.81,2.29,2.29,0,0,1,1.89.9v-.77H114v5.4Zm-1.74-4.7a1.84,1.84,0,0,0-1.78,2,1.86,1.86,0,0,0,1.78,2,1.84,1.84,0,0,0,1.79-2A1.82,1.82,0,0,0,111.3,257.59Z"/><path class="cls-1" d="M120.27,264.29a2.63,2.63,0,0,1-2.16,1,2.43,2.43,0,0,1-2.63-2.47h.92a1.62,1.62,0,0,0,1.72,1.64c1.3,0,1.73-1,1.73-2.13v-.8a2.44,2.44,0,0,1-1.9.9,2.85,2.85,0,0,1,0-5.67,2.31,2.31,0,0,1,1.86.89v-.76h.94v5.28A3.29,3.29,0,0,1,120.27,264.29Zm-2.18-6.7a1.85,1.85,0,0,0-1.76,2,1.82,1.82,0,0,0,1.76,2,2,2,0,0,0,0-4Z"/><path class="cls-1" d="M128.37,262.29v-7.76h-1.45l.51-.91h1.9v8.67Z"/><path class="cls-1" d="M133.81,262.49l-.75-.5,4.91-7.46h-4.73v-.91h6.38Z"/><path class="cls-1" d="M147.19,262.29V259.1c0-.84-.12-1.51-1.13-1.51-1.2,0-1.34,1-1.34,2v2.71h-.93v-5.4h.93v.65a2,2,0,0,1,3.09,0,2.46,2.46,0,0,1,.32,1.43v3.36Z"/><path class="cls-1" d="M152.4,262.44a2.84,2.84,0,1,1,2.85-2.83A2.82,2.82,0,0,1,152.4,262.44Zm0-4.83a2,2,0,1,0,1.91,2A1.89,1.89,0,0,0,152.39,257.61Z"/><path class="cls-1" d="M158.32,262.64l-2.66-5.75h1l1.62,3.63,1.6-3.63h1Z"/><path class="cls-1" d="M162.38,259.78a1.76,1.76,0,0,0,1.72,1.82,1.88,1.88,0,0,0,1.67-1.12l.77.43a2.68,2.68,0,0,1-2.46,1.53,2.85,2.85,0,0,1-.06-5.68,2.59,2.59,0,0,1,2.58,2.84v.18Zm1.67-2.17a1.65,1.65,0,0,0-1.6,1.39h3.17A1.61,1.61,0,0,0,164.05,257.61Z"/><path class="cls-1" d="M174.16,262.29V259c0-.69-.11-1.42-1-1.42s-1.16.91-1.16,1.69v3h-.92v-3.2c0-.68-.15-1.5-1-1.5a1.12,1.12,0,0,0-1,.59,2.46,2.46,0,0,0-.21,1.17v2.94H168v-5.4h.93v.57a1.55,1.55,0,0,1,1.34-.7,1.64,1.64,0,0,1,1.48.87,1.84,1.84,0,0,1,3-.14,2.52,2.52,0,0,1,.3,1.38v3.42Z"/><path class="cls-1" d="M179.65,262.44a2.29,2.29,0,0,1-1.87-.91v.76h-.93v-9.48h.93v4.85a2.3,2.3,0,0,1,1.88-.9,2.64,2.64,0,0,1,2.59,2.82A2.67,2.67,0,0,1,179.65,262.44Zm-.13-4.83a1.82,1.82,0,0,0-1.8,2,1.8,1.8,0,1,0,1.8-2Z"/><path class="cls-1" d="M184.29,259.78A1.74,1.74,0,0,0,186,261.6a1.87,1.87,0,0,0,1.66-1.12l.78.43a2.7,2.7,0,0,1-2.47,1.53,2.85,2.85,0,0,1,0-5.68,2.58,2.58,0,0,1,2.57,2.84v.18Zm1.66-2.17a1.67,1.67,0,0,0-1.6,1.39h3.18A1.62,1.62,0,0,0,186,257.61Z"/><path class="cls-1" d="M192.45,257.83a.8.8,0,0,0-.54-.18,1,1,0,0,0-.47.11c-.6.33-.6,1.09-.6,1.68v2.85h-.92v-5.4h.92v.59a1.45,1.45,0,0,1,1.22-.72,1.62,1.62,0,0,1,.84.22Z"/><path class="cls-1" d="M200.34,262.29l-2.18-2.46-.23.23v2.23H197v-9.48h.93v6.07l2-2h1.24l-2.32,2.29,2.74,3.11Z"/><path class="cls-1" d="M202.48,262.29v-9.48h.92v9.48Z"/><path class="cls-1" d="M211,262.29v-7.76h-1.44l.5-.91h1.9v8.67Z"/><path class="cls-1" d="M220.56,260.87v1.42h-1v-1.42h-4.45l5.41-7.74V260h1.07v.88Zm-1-4.8L216.85,260h2.75Z"/><path class="cls-1" d="M222.27,259.93v-.83h2.36v.83Z"/><path class="cls-1" d="M228.07,262.29v-7.76h-1.44l.51-.91H229v8.67Z"/><path class="cls-1" d="M235.69,262.43a3,3,0,0,1-3-2.94,3.52,3.52,0,0,1,.71-2l2.95-4.09.73.54-2,2.77a2.67,2.67,0,0,1,.8-.11,2.81,2.81,0,0,1,2.78,2.85A3,3,0,0,1,235.69,262.43Zm0-5a2,2,0,1,0,2,2A2,2,0,0,0,235.68,257.46Z"/></svg>