<svg id="Layer_1" data-name="Layer 1" xmlns="http://www.w3.org/2000/svg" viewBox="0 0 300 250"><defs><style>.cls-1{fill:#d4ac76;}</style></defs><title>text</title><path class="cls-1" d="M124,44.18V22.54h2.85l10.65,13.61V22.54h4.06V44.18h-2.72L128.05,30.4V44.18Z"/><path class="cls-1" d="M161.41,22.54h4.36L158.6,35.39v8.79h-4.06V35.53l-7.25-13h4.46l4.88,9Z"/><path class="cls-1" d="M50.41,77.78v-9H41.14v9H37.08V56.14h4.06v8.7h9.27v-8.7h4.06V77.78Z"/><path class="cls-1" d="M76.63,75.83a8.8,8.8,0,0,1-11.84,0,7.66,7.66,0,0,1-2.34-5.72v-14h4.06V69.58a5,5,0,0,0,1.11,3.34,4.32,4.32,0,0,0,6.17,0,4.84,4.84,0,0,0,1.12-3.3V56.14H79v14A7.66,7.66,0,0,1,76.63,75.83Z"/><path class="cls-1" d="M92.76,78.06a10.41,10.41,0,0,1-4.09-.85,10.73,10.73,0,0,1-3.5-2.37l2.57-3.09a7.82,7.82,0,0,0,2.39,1.94,6,6,0,0,0,2.85.76,3.49,3.49,0,0,0,2.31-.75,2.3,2.3,0,0,0,.9-1.86c0-1.35-.79-2.35-2.38-3l-2.41-1a9.4,9.4,0,0,1-3.6-2.39,5.89,5.89,0,0,1,.68-7.79,6.29,6.29,0,0,1,4.59-1.81,9.33,9.33,0,0,1,6.66,2.48l-2.39,3a5.55,5.55,0,0,0-4.27-1.88,2.89,2.89,0,0,0-1.95.62,1.94,1.94,0,0,0-.73,1.52A2,2,0,0,0,91,63.13a5.7,5.7,0,0,0,1.86,1.11l2.53,1c3.2,1.29,4.84,3.37,4.9,6.25a6.06,6.06,0,0,1-2,4.74A7.91,7.91,0,0,1,92.76,78.06Z"/><path class="cls-1" d="M107.14,77.78V56.14h3.75v9.54l8.29-9.54h5l-7.64,8.63,7.81,13h-4.68l-5.9-9.88-2.89,3.27v6.61Z"/><path class="cls-1" d="M129,77.78l8.35-21.64H141l8.31,21.64h-4.17l-1.15-3h-9.68l-1.15,3Zm10.19-15.59-3.47,9h6.91Z"/><path class="cls-1" d="M150.87,60V56.14h17.84V60h-6.89V77.78h-4.06V60Z"/><path class="cls-1" d="M170.16,77.78l8.35-21.64h3.67l8.31,21.64h-4.17l-1.15-3h-9.68l-1.15,3Zm10.19-15.59-3.47,9h6.91Z"/><path class="cls-1" d="M196.26,77.78V56.14h4.06V73.89h8v3.89Z"/><path class="cls-1" d="M234.62,66.94A11.23,11.23,0,1,1,231.33,59,10.8,10.8,0,0,1,234.62,66.94Zm-16.34,5.17a7.12,7.12,0,0,0,10.18,0,7.44,7.44,0,0,0,0-10.36,7.12,7.12,0,0,0-10.18,0,7.49,7.49,0,0,0,0,10.36Z"/><path class="cls-1" d="M255.54,68.74V65.12h7.75l0,1.85a11,11,0,0,1-1.58,5.74,10.82,10.82,0,0,1-4.1,4,11.23,11.23,0,0,1-5.52,1.42,11.24,11.24,0,0,1-8-19.16,10.91,10.91,0,0,1,8-3.3,10.67,10.67,0,0,1,8.06,3.5l-2.77,2.73a7,7,0,0,0-5.32-2.34,6.9,6.9,0,0,0-5.18,2.12,7.66,7.66,0,0,0,0,10.43,6.58,6.58,0,0,0,4.91,2.12,7.72,7.72,0,0,0,4.82-1.5,6.86,6.86,0,0,0,2.54-4Z"/></svg>