<svg id="Layer_1" data-name="Layer 1" xmlns="http://www.w3.org/2000/svg" viewBox="0 0 300 250"><defs><style>.cls-1{fill:#d4ac76;}</style></defs><title>text</title><path class="cls-1" d="M75.36,90.5v-10h1.41v10Z"/><path class="cls-1" d="M80.89,90.5v-10h1l5.44,6.92V80.45h1.4v10h-.78l-5.64-7.17V90.5Z"/><path class="cls-1" d="M95.36,90.63a4.68,4.68,0,0,1-1.88-.4,5,5,0,0,1-1.59-1.08l1-1.14a3.64,3.64,0,0,0,1.16.91,2.87,2.87,0,0,0,1.39.37,1.88,1.88,0,0,0,1.29-.43,1.33,1.33,0,0,0,.51-1.07A1.77,1.77,0,0,0,96,86.15l-1.19-.47a4.18,4.18,0,0,1-1.64-1.08A2.39,2.39,0,0,1,92.59,83a2.5,2.5,0,0,1,.83-1.9,2.83,2.83,0,0,1,2-.79,4.06,4.06,0,0,1,2.91,1.11l-.84,1.13a2.78,2.78,0,0,0-2.07-.9A1.62,1.62,0,0,0,94.4,82a1.16,1.16,0,0,0-.41.93,1.12,1.12,0,0,0,.3.78,2.75,2.75,0,0,0,1,.62l1.21.48a2.85,2.85,0,0,1,2.11,2.87,2.73,2.73,0,0,1-.89,2.12A3.34,3.34,0,0,1,95.36,90.63Z"/><path class="cls-1" d="M102.08,90.5v-10h3.43a3.14,3.14,0,0,1,2.33.94,3.24,3.24,0,0,1,.93,2.39,3.16,3.16,0,0,1-1,2.35,3.28,3.28,0,0,1-2.36.94h-2V90.5Zm3.33-8.71h-1.93v3.94h1.94a1.85,1.85,0,0,0,2-2,2,2,0,0,0-.56-1.43A1.89,1.89,0,0,0,105.41,81.79Z"/><path class="cls-1" d="M112.1,90.5v-10h1.4v10Z"/><path class="cls-1" d="M117.62,90.5v-10h3.73a3.12,3.12,0,0,1,2.27.88,3,3,0,0,1,.91,2.27,3,3,0,0,1-2.68,3.08l2.91,3.82H123l-2.88-3.83H119V90.5Zm3.55-8.71H119v3.63h2.12a2.06,2.06,0,0,0,1.43-.5,1.83,1.83,0,0,0,0-2.61A2,2,0,0,0,121.17,81.79Z"/><path class="cls-1" d="M126.84,90.5l4-10h1.27l3.95,10h-1.55L133.94,89H129l-.63,1.55Zm4.67-7.74-1.95,4.85h3.86Z"/><path class="cls-1" d="M136.7,81.79V80.45h8.13v1.34h-3.36V90.5h-1.41V81.79Z"/><path class="cls-1" d="M147.63,90.5v-10H149v10Z"/><path class="cls-1" d="M157.55,90.68a4.94,4.94,0,0,1-3.62-1.48,5.41,5.41,0,0,1,0-7.46,5.15,5.15,0,0,1,7.24,0,5.36,5.36,0,0,1,0,7.44A5,5,0,0,1,157.55,90.68Zm-2.63-2.46a3.65,3.65,0,0,0,5.26,0,4,4,0,0,0,0-5.49,3.6,3.6,0,0,0-5.26,0,4,4,0,0,0,0,5.49Z"/><path class="cls-1" d="M166.19,90.5v-10h1l5.44,6.92V80.45H174v10h-.78l-5.64-7.17V90.5Z"/><path class="cls-1" d="M186.15,90.64a3,3,0,0,1-2.11-.81,2.68,2.68,0,0,1-.84-2,2.56,2.56,0,0,1,.44-1.53,4.44,4.44,0,0,1,1.3-1.18l-.21-.23a3.23,3.23,0,0,1-.75-2,2.47,2.47,0,0,1,.72-1.8,2.38,2.38,0,0,1,1.76-.74,2.35,2.35,0,0,1,1.72.73,2.51,2.51,0,0,1,.71,1.8c0,1.06-.67,1.91-2,2.57l1.66,1.77a7.91,7.91,0,0,0,.42-1.65l1.17.06a9.52,9.52,0,0,1-.64,2.6l1.62,1.7-.95.89-1.36-1.47A3.24,3.24,0,0,1,186.15,90.64Zm0-1.25a2.06,2.06,0,0,0,1.78-1L185.78,86a2.18,2.18,0,0,0-1.18,1.75,1.61,1.61,0,0,0,.45,1.16A1.48,1.48,0,0,0,186.18,89.39Zm-1-6.56a2.11,2.11,0,0,0,.55,1.33l.34.36a.19.19,0,0,1,.1,0l.09,0a3.62,3.62,0,0,0,1.14-.7,1.29,1.29,0,0,0,.35-.9,1.22,1.22,0,0,0-.36-.9,1.19,1.19,0,0,0-.9-.36,1.29,1.29,0,0,0-.93.36A1.17,1.17,0,0,0,185.15,82.83Z"/><path class="cls-1" d="M198.42,81.79V80.45h8.14v1.34h-3.37V90.5h-1.4V81.79Z"/><path class="cls-1" d="M209.35,90.5v-10h1.41v10Z"/><path class="cls-1" d="M214.88,90.5v-10h3.43a3.14,3.14,0,0,1,2.33.94,3.24,3.24,0,0,1,.93,2.39,3.16,3.16,0,0,1-1,2.35,3.28,3.28,0,0,1-2.36.94h-2V90.5Zm3.33-8.71h-1.93v3.94h1.94a1.85,1.85,0,0,0,1.95-2,2,2,0,0,0-.56-1.43A1.89,1.89,0,0,0,218.21,81.79Z"/><path class="cls-1" d="M227.39,90.63a4.64,4.64,0,0,1-1.88-.4,5,5,0,0,1-1.59-1.08l1-1.14a3.75,3.75,0,0,0,1.16.91,2.93,2.93,0,0,0,1.39.37,1.91,1.91,0,0,0,1.3-.43,1.32,1.32,0,0,0,.5-1.07A1.76,1.76,0,0,0,228,86.15l-1.18-.47a4.22,4.22,0,0,1-1.65-1.08,2.39,2.39,0,0,1-.54-1.59,2.53,2.53,0,0,1,.83-1.9,2.86,2.86,0,0,1,2.05-.79,4.09,4.09,0,0,1,2.92,1.11l-.85,1.13a2.77,2.77,0,0,0-2.07-.9,1.59,1.59,0,0,0-1.06.35,1.13,1.13,0,0,0-.41.93,1.12,1.12,0,0,0,.3.78,2.75,2.75,0,0,0,1,.62l1.2.48a2.86,2.86,0,0,1,2.12,2.87,2.76,2.76,0,0,1-.89,2.12A3.36,3.36,0,0,1,227.39,90.63Z"/><path class="cls-1" d="M78.38,105.5v-10h5.49v1.34H79.79V100H83.4v1.34H79.79v4.21Z"/><path class="cls-1" d="M91.46,105.68a5,5,0,0,1-3.63-1.48,5.41,5.41,0,0,1,0-7.46,5.15,5.15,0,0,1,7.24,0,5.36,5.36,0,0,1,0,7.44A5,5,0,0,1,91.46,105.68Zm-2.64-2.46a3.66,3.66,0,0,0,5.27,0,4,4,0,0,0,0-5.49,3.6,3.6,0,0,0-5.26,0,4,4,0,0,0,0,5.49Zm1.69-8.84a.65.65,0,0,1-1,0,.72.72,0,0,1-.2-.54.76.76,0,0,1,.2-.55.67.67,0,0,1,1,0,.77.77,0,0,1,.21.55A.73.73,0,0,1,90.51,94.38Zm2.79,0a.64.64,0,0,1-.5.23.66.66,0,0,1-.5-.23.77.77,0,0,1-.2-.54.81.81,0,0,1,.2-.55.68.68,0,0,1,.5-.22.67.67,0,0,1,.5.22.76.76,0,0,1,.2.55A.72.72,0,0,1,93.3,94.38Z"/><path class="cls-1" d="M100.09,105.5v-10h3.73a3.12,3.12,0,0,1,2.27.88A3,3,0,0,1,107,98.6a3,3,0,0,1-2.68,3.08l2.91,3.82H105.5l-2.88-3.83H101.5v3.83Zm3.55-8.71H101.5v3.63h2.12a2,2,0,0,0,1.42-.5,1.68,1.68,0,0,0,.55-1.32,1.7,1.7,0,0,0-.55-1.29A2,2,0,0,0,103.64,96.79Z"/><path class="cls-1" d="M122.25,105.5v-4.36h-4.89v4.36H116v-10h1.41v4.36h4.89V95.45h1.4v10Z"/><path class="cls-1" d="M131.26,105.67a3.5,3.5,0,0,1-2.62-1,3.69,3.69,0,0,1-1-2.66V95.45H129v6.43a2.56,2.56,0,0,0,.6,1.75,2,2,0,0,0,1.64.7,2.1,2.1,0,0,0,1.66-.68,2.53,2.53,0,0,0,.61-1.76V95.45h1.4V102a3.68,3.68,0,0,1-1,2.66A3.52,3.52,0,0,1,131.26,105.67Z"/><path class="cls-1" d="M141.54,105.63a4.68,4.68,0,0,1-1.88-.4,5,5,0,0,1-1.59-1.08l1-1.14a3.64,3.64,0,0,0,1.16.91,2.87,2.87,0,0,0,1.39.37,1.92,1.92,0,0,0,1.3-.43,1.35,1.35,0,0,0,.5-1.07,1.76,1.76,0,0,0-1.27-1.64l-1.19-.47a4.25,4.25,0,0,1-1.64-1.08,2.39,2.39,0,0,1-.54-1.59,2.5,2.5,0,0,1,.83-1.9,2.83,2.83,0,0,1,2.05-.79,4.06,4.06,0,0,1,2.91,1.11l-.84,1.13a2.78,2.78,0,0,0-2.07-.9,1.62,1.62,0,0,0-1.07.35,1.16,1.16,0,0,0-.41.93,1.12,1.12,0,0,0,.3.78,2.75,2.75,0,0,0,1,.62l1.21.48a2.84,2.84,0,0,1,2.11,2.87,2.75,2.75,0,0,1-.88,2.12A3.39,3.39,0,0,1,141.54,105.63Z"/><path class="cls-1" d="M148.26,105.5v-10H151a5.06,5.06,0,0,1,3.52,8.62,4.94,4.94,0,0,1-3.57,1.43ZM151,96.79h-1.34v7.37H151a3.24,3.24,0,0,0,2.48-1.08,3.68,3.68,0,0,0,1-2.62,3.57,3.57,0,0,0-1-2.61A3.34,3.34,0,0,0,151,96.79Z"/><path class="cls-1" d="M159.39,105.5v-10h3.73a3.12,3.12,0,0,1,2.26.88,3.11,3.11,0,0,1-1.77,5.35l2.91,3.82h-1.73l-2.88-3.83h-1.12v3.83Zm3.54-8.71h-2.14v3.63h2.13a2.05,2.05,0,0,0,1.42-.5,1.81,1.81,0,0,0,0-2.61A2,2,0,0,0,162.93,96.79Z"/><path class="cls-1" d="M174.34,105.68a4.93,4.93,0,0,1-3.62-1.48,5.41,5.41,0,0,1,0-7.46,5.15,5.15,0,0,1,7.24,0,5.36,5.36,0,0,1,0,7.44A5,5,0,0,1,174.34,105.68Zm-2.63-2.46a3.65,3.65,0,0,0,5.26,0,4,4,0,0,0,0-5.49,3.6,3.6,0,0,0-5.26,0,4,4,0,0,0,0,5.49Zm1.69-8.84a.66.66,0,0,1-1,0,.76.76,0,0,1-.19-.54.8.8,0,0,1,.19-.55.68.68,0,0,1,1,0,.77.77,0,0,1,.21.55A.73.73,0,0,1,173.4,94.38Zm2.79,0a.66.66,0,0,1-.5.23.64.64,0,0,1-.5-.23.72.72,0,0,1-.2-.54.76.76,0,0,1,.2-.55.67.67,0,0,1,.5-.22.68.68,0,0,1,.5.22.81.81,0,0,1,.2.55A.77.77,0,0,1,176.19,94.38Z"/><path class="cls-1" d="M183,105.5v-10h1.44l3.24,5.36L191,95.45h1.38v10h-1.41V98.08l0,0-3.24,5.19-3.17-5.12h-.09v7.38Z"/><path class="cls-1" d="M196.46,105.5v-10h1.45l3.23,5.36,3.29-5.36h1.38v10h-1.4V98.08l0,0-3.23,5.19L198,98.12h-.09v7.38Z"/><path class="cls-1" d="M208.67,105.5l4-10H214l4,10h-1.55l-.61-1.55h-4.92l-.63,1.55Zm4.67-7.74-2,4.85h3.86Z"/><path class="cls-1" d="M220.72,105.5v-10h3.73a3.1,3.1,0,0,1,2.26.88,3.11,3.11,0,0,1-1.76,5.35l2.91,3.82h-1.73l-2.89-3.83h-1.12v3.83Zm3.54-8.71h-2.14v3.63h2.13a2,2,0,0,0,1.42-.5,1.68,1.68,0,0,0,.55-1.32,1.74,1.74,0,0,0-.55-1.29A2,2,0,0,0,224.26,96.79Z"/></svg>