<svg id="Layer_1" data-name="Layer 1" xmlns="http://www.w3.org/2000/svg" viewBox="0 0 320 320"><defs><style>.cls-1{fill:#d80201;}</style></defs><title>text</title><path class="cls-1" d="M85.63,182.45a8.06,8.06,0,0,1-7.1-3.94l2.6-2.51a4.74,4.74,0,0,0,4.34,2.76,2.94,2.94,0,0,0,3.19-2.91c0-4.25-9.08-2.23-9.08-8.9,0-3.66,2.95-6,6.45-6a9.07,9.07,0,0,1,6,2.29L90,166a4.19,4.19,0,0,0-3.35-1.67c-1.33,0-2.88.84-2.88,2.33,0,3.5,9.08,1.77,9.08,9C92.82,179.84,89.72,182.45,85.63,182.45Z"/><path class="cls-1" d="M104,182.39a5.37,5.37,0,0,1-4.5-2.2v8.93H95.8V168.53h3.75v1.71a5.35,5.35,0,0,1,4.4-2.14c4,0,6.63,3.32,6.63,7.16S108,182.39,104,182.39Zm-1.12-10.91a3.77,3.77,0,1,0,3.75,3.75A3.74,3.74,0,0,0,102.93,171.47Z"/><path class="cls-1" d="M123.7,182v-1.77a5.19,5.19,0,0,1-4.37,2.2c-4,0-6.6-3.35-6.6-7.19s2.57-7.1,6.51-7.1a5.59,5.59,0,0,1,4.46,2.14v-1.71h3.78V182ZM117.22,166a2.23,2.23,0,1,1,0-4.46,2.23,2.23,0,1,1,0,4.46Zm3.13,5.46a3.77,3.77,0,1,0,3.75,3.75A3.74,3.74,0,0,0,120.35,171.47Zm3.32-5.46a2.26,2.26,0,0,1-2.23-2.23,2.23,2.23,0,1,1,2.23,2.23Z"/><path class="cls-1" d="M140.25,182v-7.44c0-1.83-.4-3.22-2.54-3.22-2.33,0-2.88,1.71-2.88,3.72V182h-3.75V168.53h3.75v1.64a5,5,0,0,1,4.22-2.08,4.64,4.64,0,0,1,5,5.33V182Z"/><path class="cls-1" d="M156.77,182v-7.44c0-1.83-.4-3.22-2.54-3.22-2.33,0-2.88,1.71-2.88,3.72V182H147.6V168.53h3.75v1.64a5,5,0,0,1,4.22-2.08,4.64,4.64,0,0,1,5,5.33V182Z"/><path class="cls-1" d="M174.38,182v-1.77a5.19,5.19,0,0,1-4.37,2.2c-4,0-6.6-3.35-6.6-7.19s2.57-7.1,6.51-7.1a5.59,5.59,0,0,1,4.46,2.14v-1.71h3.78V182ZM171,171.47a3.77,3.77,0,1,0,3.75,3.75A3.74,3.74,0,0,0,171,171.47Z"/><path class="cls-1" d="M190.94,182v-7.44c0-1.83-.4-3.22-2.54-3.22-2.33,0-2.88,1.71-2.88,3.72V182h-3.75V168.53h3.75v1.64a5,5,0,0,1,4.22-2.08,4.64,4.64,0,0,1,5,5.33V182Z"/><path class="cls-1" d="M208.54,182v-1.77a5.19,5.19,0,0,1-4.37,2.2c-4,0-6.6-3.35-6.6-7.19s2.57-7.1,6.51-7.1a5.59,5.59,0,0,1,4.46,2.14v-11.5h3.78V182Zm-3.35-10.48a3.77,3.77,0,1,0,3.75,3.75A3.74,3.74,0,0,0,205.19,171.47Z"/><path class="cls-1" d="M219.05,175.84c.06,2.08,1.05,3.6,3.29,3.6a3.52,3.52,0,0,0,3.19-1.8l3.47.56a6.58,6.58,0,0,1-6.6,4.19c-4.34,0-7.19-2.79-7.19-7.16s2.73-7.13,7-7.13,6.85,3,6.85,7.26v.5Zm3.26-5.08a3,3,0,0,0-3.13,2.7h6.36A3.11,3.11,0,0,0,222.31,170.76Z"/><path class="cls-1" d="M232.69,186.29,230.3,186l3.29-8.34,3.47.4Z"/><path class="cls-1" d="M88.36,219v-1.77a5.19,5.19,0,0,1-4.37,2.2c-4,0-6.6-3.35-6.6-7.19s2.57-7.1,6.51-7.1a5.59,5.59,0,0,1,4.46,2.14v-1.71h3.78V219ZM85,208.47a3.77,3.77,0,1,0,3.75,3.75A3.74,3.74,0,0,0,85,208.47Z"/><path class="cls-1" d="M104.91,219v-7.44c0-1.83-.4-3.22-2.54-3.22-2.33,0-2.88,1.71-2.88,3.72V219H95.73V205.53h3.75v1.64a5,5,0,0,1,4.22-2.08,4.64,4.64,0,0,1,5,5.33V219Z"/><path class="cls-1" d="M121.43,219v-7.44c0-1.83-.4-3.22-2.54-3.22-2.33,0-2.88,1.71-2.88,3.72V219h-3.75V205.53H116v1.64a5,5,0,0,1,4.22-2.08,4.64,4.64,0,0,1,5,5.33V219Z"/><path class="cls-1" d="M135.76,219.39c-4.28,0-7.69-2.67-7.69-7.13s3.41-7.16,7.72-7.16,7.63,2.7,7.63,7.13S140,219.39,135.76,219.39Zm0-10.91a3.77,3.77,0,1,0,3.81,3.78A3.8,3.8,0,0,0,135.73,208.47Z"/><path class="cls-1" d="M155.07,208.94a3.32,3.32,0,0,0-1.8-.46c-2.54,0-3.22,1.8-3.22,4V219h-3.75V205.53H150v2a4.38,4.38,0,0,1,5.55-2.14Z"/><path class="cls-1" d="M157.45,219V195.73h3.75V219Z"/><path class="cls-1" d="M171.28,219.39c-3.69,0-6.48-1.64-6.48-5.64v-8.22h3.75v7.6c0,1.83.78,3.07,2.73,3.07S174,215,174,213.12v-7.6h3.78v8.22C177.79,217.74,175,219.39,171.28,219.39Z"/><path class="cls-1" d="M190.56,219v-7.44c0-1.83-.4-3.22-2.54-3.22-2.33,0-2.88,1.71-2.88,3.72V219h-3.75V205.53h3.75v1.64a5,5,0,0,1,4.22-2.08,4.64,4.64,0,0,1,5,5.33V219Z"/><path class="cls-1" d="M208.17,219v-1.77a5.19,5.19,0,0,1-4.37,2.2c-4,0-6.6-3.35-6.6-7.19s2.57-7.1,6.51-7.1a5.59,5.59,0,0,1,4.46,2.14v-11.5H212V219Zm-3.35-10.48a3.77,3.77,0,1,0,3.75,3.75A3.74,3.74,0,0,0,204.82,208.47Z"/><path class="cls-1" d="M225.81,219v-1.77a5.19,5.19,0,0,1-4.37,2.2c-4,0-6.6-3.35-6.6-7.19s2.57-7.1,6.51-7.1a5.59,5.59,0,0,1,4.46,2.14v-1.71h3.78V219Zm-3.35-10.48a3.77,3.77,0,1,0,3.75,3.75A3.74,3.74,0,0,0,222.46,208.47Z"/><path class="cls-1" d="M235.26,219.36a2.42,2.42,0,1,1,2.42-2.42A2.42,2.42,0,0,1,235.26,219.36ZM233.34,213V198.27h3.84V213Z"/></svg>