<svg id="Layer_1" data-name="Layer 1" xmlns="http://www.w3.org/2000/svg" viewBox="0 0 320 320"><defs><style>.cls-1{fill:#d80201;}</style></defs><title>text</title><path class="cls-1" d="M50.58,112.27v5.18h7.32v4H50.58v10.26H46V108.32H58.38v4Z"/><path class="cls-1" d="M69.58,132.16c-4.83,0-8.68-3-8.68-8.05S64.75,116,69.62,116s8.61,3,8.61,8.05S74.38,132.16,69.58,132.16Zm0-12.32a4.25,4.25,0,1,0,4.31,4.27A4.29,4.29,0,0,0,69.55,119.84Z"/><path class="cls-1" d="M91.39,120.36a3.74,3.74,0,0,0-2-.52c-2.87,0-3.64,2-3.64,4.55v7.28H81.48V116.51h4.24v2.28A4.94,4.94,0,0,1,92,116.37Z"/><path class="cls-1" d="M113.44,131.67v-8.3c0-1.79-.28-3.75-2.52-3.75-2.49,0-2.91,2.28-2.91,4.27v7.77h-4.24v-8.05a6.75,6.75,0,0,0-.32-2.52,2.45,2.45,0,0,0-2.28-1.47A2.76,2.76,0,0,0,98.81,121a6.29,6.29,0,0,0-.49,2.91v7.77H94.08V116.51h4.24v1.72a5.82,5.82,0,0,1,4.62-2.21,5.15,5.15,0,0,1,4.73,2.77,5.6,5.6,0,0,1,5-2.77,5,5,0,0,1,4.24,2.17,6.68,6.68,0,0,1,.81,3.68v9.8Z"/><path class="cls-1" d="M133.32,131.67v-2a5.86,5.86,0,0,1-4.94,2.49c-4.55,0-7.46-3.78-7.46-8.12s2.91-8,7.35-8a6.32,6.32,0,0,1,5,2.42v-1.93h4.27v15.16Zm-3.78-11.83a4.25,4.25,0,1,0,4.24,4.24A4.23,4.23,0,0,0,129.54,119.84Z"/><path class="cls-1" d="M160.76,131.67v-8.3c0-2.1-.46-3.75-2.91-3.75-2.62,0-3.22,2-3.22,4.27v7.77H150.4V105.45h4.24v13a5.52,5.52,0,0,1,4.76-2.45,5.79,5.79,0,0,1,4.41,1.85,6,6,0,0,1,1.19,4.27v9.52Z"/><path class="cls-1" d="M176.37,132.16c-4.17,0-7.32-1.86-7.32-6.37v-9.28h4.24v8.58c0,2.06.88,3.47,3.08,3.47s3.08-1.4,3.08-3.47v-8.58h4.27v9.28C183.72,130.3,180.53,132.16,176.37,132.16Z"/><path class="cls-1" d="M192.61,132.16a8.06,8.06,0,0,1-5.78-2.52l2.24-2.59a4.92,4.92,0,0,0,3.57,1.79,1.79,1.79,0,0,0,1.93-1.68c0-2.59-6.76-1.29-6.76-6.41,0-3.08,2.55-4.8,5.43-4.8a7.81,7.81,0,0,1,4.94,1.61l-2.1,2.49a4.23,4.23,0,0,0-2.52-1c-.74,0-1.61.46-1.61,1.29,0,2.21,7,1.23,7,6.41C198.94,130.27,195.86,132.16,192.61,132.16Z"/><path class="cls-1" d="M205.49,124.77c.07,2.35,1.19,4.06,3.71,4.06a4,4,0,0,0,3.6-2l3.92.63c-1.33,3.26-4,4.73-7.46,4.73-4.9,0-8.12-3.15-8.12-8.09s3.08-8.05,7.95-8.05,7.74,3.36,7.74,8.19v.56Zm3.68-5.74a3.44,3.44,0,0,0-3.54,3h7.17A3.51,3.51,0,0,0,209.16,119Z"/><path class="cls-1" d="M224.35,120.15v11.52h-4.24V120.15h-1.68v-3.64h1.68v-5.18h4.24v5.18h3v3.64Z"/><path class="cls-1" d="M240.35,112.66a2.56,2.56,0,1,1,0-5.11,2.56,2.56,0,0,1,0,5.11Zm-2.14,19V116.51h4.24v15.16Z"/><path class="cls-1" d="M53.87,168.67H46V145.32H51.8c1.89,0,4.2.18,5.71,1.4a6.24,6.24,0,0,1,2.1,4.8,4.89,4.89,0,0,1-2.56,4.69,5.32,5.32,0,0,1,3,1.47,6.28,6.28,0,0,1,1.68,4.38C61.78,166.71,58.07,168.67,53.87,168.67Zm-2-19.64H50.58v6h1.29c2,0,3.54-.81,3.54-3S53.94,149,51.91,149Zm.77,9.49h-2.1V165h2c2.24,0,4.55-.53,4.55-3.25S54.85,158.52,52.68,158.52Z"/><path class="cls-1" d="M69.72,176.79h-4.8l5.57-10.4-7.18-12.88h4.94l4.55,8.61,4.34-8.61H82Z"/><path class="cls-1" d="M98.11,174.16a8.26,8.26,0,0,1-6.44,2.66c-3.89,0-7.63-2.24-8.05-6.37H88.2a3.37,3.37,0,0,0,3.61,2.76c2.66,0,3.75-1.85,3.75-4.3v-2.28a6.3,6.3,0,0,1-5.11,2.52c-4.48,0-7.21-3.61-7.21-7.88S86,153,90.65,153a5.68,5.68,0,0,1,4.9,2.45v-2h4.27v14.6C99.82,170.49,99.72,172.27,98.11,174.16Zm-6.27-17.33a4.25,4.25,0,1,0,4.24,4.24A4.23,4.23,0,0,0,91.84,156.84Z"/><path class="cls-1" d="M118,174.16a8.26,8.26,0,0,1-6.44,2.66c-3.89,0-7.63-2.24-8.05-6.37H108a3.37,3.37,0,0,0,3.61,2.76c2.66,0,3.75-1.85,3.75-4.3v-2.28a6.3,6.3,0,0,1-5.11,2.52c-4.48,0-7.21-3.61-7.21-7.88s2.8-8.26,7.42-8.26a5.68,5.68,0,0,1,4.9,2.45v-2h4.27v14.6C119.67,170.49,119.56,172.27,118,174.16Zm-6.27-17.33a4.25,4.25,0,1,0,4.24,4.24A4.23,4.23,0,0,0,111.69,156.84Z"/><path class="cls-1" d="M140.35,169.16c-4.83,0-8.68-3-8.68-8.05s3.85-8.08,8.72-8.08,8.61,3,8.61,8.05S145.15,169.16,140.35,169.16Zm0-12.32a4.25,4.25,0,1,0,4.31,4.27A4.29,4.29,0,0,0,140.32,156.84Z"/><path class="cls-1" d="M162.61,168.67v-8.4c0-2.07-.46-3.64-2.87-3.64-2.63,0-3.26,1.93-3.26,4.2v7.84h-4.24V153.51h4.24v1.86a5.6,5.6,0,0,1,4.76-2.35,5.23,5.23,0,0,1,5.6,6v9.63Z"/><path class="cls-1" d="M170.91,168.67V142.45h4.24v26.22Z"/><path class="cls-1" d="M181.27,149.66a2.56,2.56,0,1,1,0-5.11,2.56,2.56,0,0,1,0,5.11Zm-2.14,19V153.51h4.24v15.16Z"/><path class="cls-1" d="M197.72,168.67v-8.4c0-2.07-.46-3.64-2.87-3.64-2.63,0-3.26,1.93-3.26,4.2v7.84h-4.24V153.51h4.24v1.86a5.59,5.59,0,0,1,4.76-2.35,5.23,5.23,0,0,1,5.6,6v9.63Z"/><path class="cls-1" d="M209.55,161.77c.07,2.34,1.19,4.06,3.71,4.06a4,4,0,0,0,3.61-2l3.92.63c-1.33,3.25-4,4.73-7.46,4.73-4.9,0-8.12-3.15-8.12-8.09s3.08-8.05,7.95-8.05,7.74,3.36,7.74,8.19v.56Zm3.68-5.74a3.44,3.44,0,0,0-3.54,3h7.18A3.51,3.51,0,0,0,213.22,156Z"/><path class="cls-1" d="M240.77,169.16c-4.83,0-8.68-3-8.68-8.05s3.85-8.08,8.72-8.08,8.61,3,8.61,8.05S245.56,169.16,240.77,169.16Zm0-12.32a4.25,4.25,0,1,0,4.31,4.27A4.29,4.29,0,0,0,240.73,156.84Z"/><path class="cls-1" d="M260.12,169.16a8,8,0,0,1-8.26-8,8.09,8.09,0,0,1,8.33-8.12,7.8,7.8,0,0,1,3.85.91v4.2a5.23,5.23,0,0,0-3.43-1.29,4.25,4.25,0,1,0,0,8.51A5.16,5.16,0,0,0,264,164v4.17A8.11,8.11,0,0,1,260.12,169.16Z"/><path class="cls-1" d="M278.11,168.67v-8.3c0-2.1-.46-3.75-2.91-3.75-2.63,0-3.22,2-3.22,4.27v7.77h-4.24V142.45H272v13a5.52,5.52,0,0,1,4.76-2.45,5.79,5.79,0,0,1,4.41,1.85,6,6,0,0,1,1.19,4.27v9.52Z"/><path class="cls-1" d="M50.19,206.16a8.06,8.06,0,0,1-5.78-2.52L46.66,201a4.92,4.92,0,0,0,3.57,1.79,1.79,1.79,0,0,0,1.93-1.68c0-2.59-6.76-1.29-6.76-6.41,0-3.08,2.56-4.79,5.43-4.79a7.81,7.81,0,0,1,4.94,1.61L53.66,194a4.23,4.23,0,0,0-2.52-1c-.73,0-1.61.46-1.61,1.29,0,2.21,7,1.23,7,6.41C56.53,204.27,53.45,206.16,50.19,206.16Z"/><path class="cls-1" d="M63.07,198.77c.07,2.34,1.19,4.06,3.71,4.06a4,4,0,0,0,3.61-2l3.92.63c-1.33,3.25-4,4.73-7.46,4.73-4.9,0-8.12-3.15-8.12-8.09S61.81,190,66.68,190s7.74,3.36,7.74,8.19v.56ZM66.75,193a3.44,3.44,0,0,0-3.54,3h7.18A3.51,3.51,0,0,0,66.75,193Z"/><path class="cls-1" d="M95.73,206.16a6.07,6.07,0,0,1-5.08-2.49v10.08H86.42V190.51h4.24v1.93a6,6,0,0,1,5-2.42c4.52,0,7.49,3.75,7.49,8.08S100.17,206.16,95.73,206.16Zm-1.26-12.32a4.25,4.25,0,1,0,4.24,4.24A4.23,4.23,0,0,0,94.47,193.84Z"/><path class="cls-1" d="M116.24,194.36a3.75,3.75,0,0,0-2-.52c-2.87,0-3.64,2-3.64,4.55v7.28h-4.24V190.51h4.24v2.28a4.95,4.95,0,0,1,6.27-2.42Z"/><path class="cls-1" d="M121,186.66a2.56,2.56,0,0,1,0-5.11,2.56,2.56,0,0,1,0,5.11Zm-2.13,19V190.51h4.24v15.16Z"/><path class="cls-1" d="M131.92,206.16a8.06,8.06,0,0,1-5.78-2.52l2.24-2.59a4.92,4.92,0,0,0,3.57,1.79,1.78,1.78,0,0,0,1.92-1.68c0-2.59-6.75-1.29-6.75-6.41,0-3.08,2.55-4.79,5.42-4.79a7.81,7.81,0,0,1,4.94,1.61l-2.1,2.49a4.23,4.23,0,0,0-2.52-1c-.74,0-1.61.46-1.61,1.29,0,2.21,7,1.23,7,6.41C138.25,204.27,135.17,206.16,131.92,206.16Z"/><path class="cls-1" d="M144.8,198.77c.07,2.34,1.19,4.06,3.71,4.06a4,4,0,0,0,3.61-2l3.92.63c-1.33,3.25-4,4.73-7.46,4.73-4.9,0-8.12-3.15-8.12-8.09s3.08-8.05,7.95-8.05,7.74,3.36,7.74,8.19v.56Zm3.68-5.74a3.44,3.44,0,0,0-3.54,3h7.18A3.51,3.51,0,0,0,148.47,193Z"/><path class="cls-1" d="M163.66,194.15v11.52h-4.24V194.15h-1.68v-3.64h1.68v-5.18h4.24v5.18h3v3.64Z"/><path class="cls-1" d="M189.18,205.67v-2a5.86,5.86,0,0,1-4.94,2.49c-4.55,0-7.46-3.78-7.46-8.12s2.91-8,7.35-8a6.32,6.32,0,0,1,5,2.42v-13h4.27v26.22Zm-3.78-11.83a4.25,4.25,0,1,0,4.24,4.24A4.23,4.23,0,0,0,185.4,193.84Z"/><path class="cls-1" d="M199.57,186.66a2.56,2.56,0,0,1,0-5.11,2.56,2.56,0,0,1,0,5.11Zm-2.14,19V190.51h4.24v15.16Z"/><path class="cls-1" d="M215.57,194.36a3.75,3.75,0,0,0-2-.52c-2.87,0-3.64,2-3.64,4.55v7.28h-4.24V190.51h4.24v2.28a4.95,4.95,0,0,1,6.27-2.42Z"/><path class="cls-1" d="M221.79,198.77c.07,2.34,1.19,4.06,3.71,4.06a4,4,0,0,0,3.6-2l3.92.63c-1.33,3.25-4,4.73-7.46,4.73-4.9,0-8.12-3.15-8.12-8.09s3.08-8.05,7.95-8.05,7.74,3.36,7.74,8.19v.56Zm3.68-5.74a3.44,3.44,0,0,0-3.54,3h7.17A3.51,3.51,0,0,0,225.47,193Z"/><path class="cls-1" d="M246.79,205.67l-5.71-6.51-.46.46v6.06h-4.24V179.45h4.24V196l5.67-5.53H252l-7.11,6.65,7.67,8.51Z"/><path class="cls-1" d="M258.75,194.15v11.52h-4.24V194.15h-1.68v-3.64h1.68v-5.18h4.24v5.18h3v3.64Z"/><path class="cls-1" d="M266.28,206.12a2.73,2.73,0,1,1,2.73-2.73A2.73,2.73,0,0,1,266.28,206.12ZM264.11,199V182.32h4.34V199Z"/></svg>