<svg id="Layer_1" data-name="Layer 1" xmlns="http://www.w3.org/2000/svg" viewBox="0 0 320 320"><defs><style>.cls-1{fill:#d80201;}</style></defs><title>text</title><path class="cls-1" d="M101.93,247.29v-4.24H97.5v4.24h-1v-8.67h1v3.53h4.43v-3.53h1v8.67Z"/><path class="cls-1" d="M109,247.29v-.76a2.3,2.3,0,0,1-1.87.91,2.67,2.67,0,0,1-2.6-2.87,2.62,2.62,0,0,1,2.58-2.81,2.29,2.29,0,0,1,1.89.9v-.77H110v5.4Zm-1.74-4.7a1.85,1.85,0,0,0-1.79,2,1.87,1.87,0,0,0,1.79,2,1.84,1.84,0,0,0,1.79-2A1.82,1.82,0,0,0,107.29,242.59Zm-1.08-1.8a.66.66,0,0,1-.65-.65.65.65,0,1,1,1.3,0A.65.65,0,0,1,106.21,240.79Zm2.26,0a.66.66,0,0,1-.65-.65.65.65,0,0,1,1.3,0A.65.65,0,0,1,108.47,240.79Z"/><path class="cls-1" d="M113.17,247.44a1.92,1.92,0,0,1-1.88-1.38l.81-.33c.22.48.52.87,1.09.87a.84.84,0,0,0,.88-.85c0-1.17-2.43-.8-2.43-2.48a1.52,1.52,0,0,1,1.57-1.51,1.64,1.64,0,0,1,1.49,1l-.77.4a.86.86,0,0,0-.76-.53.65.65,0,0,0-.65.59c0,1,2.5.71,2.5,2.47A1.77,1.77,0,0,1,113.17,247.44Z"/><path class="cls-1" d="M117.2,242.75v4.54h-.93v-4.54h-.56v-.86h.56v-1.95h.93v1.95h1v.86Z"/><path class="cls-1" d="M122.63,247.29V244c0-.81-.2-1.4-1.12-1.4-1.21,0-1.37,1-1.37,2v2.69h-.92v-9.48h.92v4.71a2,2,0,0,1,3.1,0,2.59,2.59,0,0,1,.31,1.45v3.34Z"/><path class="cls-1" d="M129.44,247.29v-.76a2.32,2.32,0,0,1-1.87.91,2.67,2.67,0,0,1-2.6-2.87,2.62,2.62,0,0,1,2.58-2.81,2.3,2.3,0,0,1,1.89.9v-.77h.92v5.4Zm-1.74-4.7a1.85,1.85,0,0,0-1.79,2,1.87,1.87,0,0,0,1.79,2,1.84,1.84,0,0,0,1.79-2A1.82,1.82,0,0,0,127.7,242.59Z"/><path class="cls-1" d="M136.67,249.29a2.63,2.63,0,0,1-2.16,1,2.43,2.43,0,0,1-2.63-2.47h.92a1.62,1.62,0,0,0,1.72,1.64c1.3,0,1.73-1,1.73-2.13v-.8a2.45,2.45,0,0,1-1.9.9,2.85,2.85,0,0,1,0-5.67,2.31,2.31,0,0,1,1.86.89v-.76h.93v5.28A3.28,3.28,0,0,1,136.67,249.29Zm-2.18-6.7a1.85,1.85,0,0,0-1.76,2,1.82,1.82,0,0,0,1.76,2,2,2,0,0,0,0-4Z"/><path class="cls-1" d="M140.41,247.44a1.93,1.93,0,0,1-1.89-1.38l.81-.33c.22.48.52.87,1.09.87a.84.84,0,0,0,.89-.85c0-1.17-2.43-.8-2.43-2.48a1.51,1.51,0,0,1,1.57-1.51,1.61,1.61,0,0,1,1.48,1l-.77.4a.85.85,0,0,0-.75-.53.64.64,0,0,0-.65.59c0,1,2.49.71,2.49,2.47A1.77,1.77,0,0,1,140.41,247.44Z"/><path class="cls-1" d="M145.37,247.64l-2.65-5.75h1l1.61,3.63,1.6-3.63h1Z"/><path class="cls-1" d="M153.12,247.29v-.76a2.29,2.29,0,0,1-1.87.91,2.67,2.67,0,0,1-2.6-2.87,2.63,2.63,0,0,1,2.59-2.81,2.27,2.27,0,0,1,1.88.9v-.77h.93v5.4Zm-1.74-4.7a1.85,1.85,0,0,0-1.78,2,1.86,1.86,0,0,0,1.78,2,1.84,1.84,0,0,0,1.79-2A1.82,1.82,0,0,0,151.38,242.59Zm-1.08-1.8a.66.66,0,0,1-.65-.65.65.65,0,1,1,.65.65Zm2.26,0a.66.66,0,0,1-.65-.65.65.65,0,1,1,.65.65Z"/><path class="cls-1" d="M160.35,249.29a2.63,2.63,0,0,1-2.16,1,2.42,2.42,0,0,1-2.62-2.47h.92a1.61,1.61,0,0,0,1.72,1.64c1.29,0,1.72-1,1.72-2.13v-.8a2.43,2.43,0,0,1-1.89.9,2.65,2.65,0,0,1-2.58-2.82,2.68,2.68,0,0,1,2.62-2.85,2.29,2.29,0,0,1,1.85.89v-.76h.94v5.28A3.29,3.29,0,0,1,160.35,249.29Zm-2.17-6.7a1.86,1.86,0,0,0-1.77,2,1.82,1.82,0,0,0,1.77,2,2,2,0,0,0,0-4Z"/><path class="cls-1" d="M163.26,244.78A1.74,1.74,0,0,0,165,246.6a1.86,1.86,0,0,0,1.66-1.12l.78.43a2.69,2.69,0,0,1-2.47,1.53,2.85,2.85,0,0,1,0-5.68,2.58,2.58,0,0,1,2.57,2.84v.18Zm1.67-2.17a1.65,1.65,0,0,0-1.6,1.39h3.17A1.62,1.62,0,0,0,164.93,242.61Z"/><path class="cls-1" d="M172.28,247.29V244.1c0-.84-.11-1.51-1.13-1.51-1.19,0-1.34,1-1.34,2v2.71h-.92v-5.4h.92v.65a1.84,1.84,0,0,1,1.56-.78,1.86,1.86,0,0,1,1.54.74,2.53,2.53,0,0,1,.31,1.43v3.36Z"/><path class="cls-1" d="M180.77,247.43a2.69,2.69,0,0,1-2-.86,2.27,2.27,0,0,1-.57-1.53h.93a1.71,1.71,0,0,0,.3.84,1.75,1.75,0,0,0,1.37.65,1.69,1.69,0,0,0,1.7-1.73c0-1.13-.79-1.63-1.84-1.63v-.85a2,2,0,0,0,1-.21,1.49,1.49,0,0,0-.79-2.74,1.42,1.42,0,0,0-1.18.56,2,2,0,0,0-.29.83h-.95a2.29,2.29,0,0,1,2.42-2.27,2.31,2.31,0,0,1,2.44,2.32,2.14,2.14,0,0,1-1.11,1.93,2.2,2.2,0,0,1,1.24,2.09A2.57,2.57,0,0,1,180.77,247.43Z"/><path class="cls-1" d="M186.25,247.49l-.76-.5,4.92-7.46h-4.74v-.91h6.39Z"/><path class="cls-1" d="M197.44,239.53v2.57h2.88v.9h-2.88v4.29h-1v-8.67h3.94v.91Z"/><path class="cls-1" d="M205.81,247.29v-.76a2.29,2.29,0,0,1-1.87.91,2.67,2.67,0,0,1-2.6-2.87,2.63,2.63,0,0,1,2.59-2.81,2.28,2.28,0,0,1,1.88.9v-.77h.92v5.4Zm-1.74-4.7a1.84,1.84,0,0,0-1.78,2,1.86,1.86,0,0,0,1.78,2,1.84,1.84,0,0,0,1.79-2A1.82,1.82,0,0,0,204.07,242.59Z"/><path class="cls-1" d="M211,242.83a.83.83,0,0,0-.55-.18,1,1,0,0,0-.47.11c-.6.33-.6,1.09-.6,1.68v2.85h-.92v-5.4h.92v.59a1.47,1.47,0,0,1,1.23-.72,1.61,1.61,0,0,1,.83.22Z"/><path class="cls-1" d="M213.79,247.44a1.92,1.92,0,0,1-1.88-1.38l.8-.33a1.21,1.21,0,0,0,1.1.87.84.84,0,0,0,.88-.85c0-1.17-2.43-.8-2.43-2.48a1.51,1.51,0,0,1,1.57-1.51,1.61,1.61,0,0,1,1.48,1l-.76.4a.87.87,0,0,0-.76-.53.65.65,0,0,0-.65.59c0,1,2.5.71,2.5,2.47A1.77,1.77,0,0,1,213.79,247.44Z"/><path class="cls-1" d="M217.82,242.75v4.54h-.93v-4.54h-.56v-.86h.56v-1.95h.93v1.95h1v.86Z"/><path class="cls-1" d="M223.79,247.29v-.76a2.3,2.3,0,0,1-1.87.91,2.67,2.67,0,0,1-2.6-2.87,2.62,2.62,0,0,1,2.58-2.81,2.29,2.29,0,0,1,1.89.9v-.77h.92v5.4Zm-1.74-4.7a1.84,1.84,0,0,0-1.78,2,1.86,1.86,0,0,0,1.78,2,1.84,1.84,0,0,0,1.79-2A1.82,1.82,0,0,0,222.05,242.59Z"/><path class="cls-1" d="M87.43,262.44a2.65,2.65,0,0,1-2.68-2.23l.94-.26a1.76,1.76,0,0,0,1.76,1.58,1.71,1.71,0,0,0,1.75-1.71c0-2-4-1.56-4-4.11a2.29,2.29,0,0,1,2.43-2.24,2.49,2.49,0,0,1,2.24,1.35l-.77.51a1.59,1.59,0,0,0-1.48-1,1.38,1.38,0,0,0-1.44,1.33c0,1.79,4,1.27,4,4.07A2.66,2.66,0,0,1,87.43,262.44Z"/><path class="cls-1" d="M94.21,262.44a2.84,2.84,0,1,1,2.85-2.83A2.82,2.82,0,0,1,94.21,262.44Zm0-4.83a2,2,0,1,0,1.91,2A1.89,1.89,0,0,0,94.2,257.61Zm-1.12-1.82a.66.66,0,0,1-.65-.65.65.65,0,1,1,.65.65Zm2.27,0a.66.66,0,0,1-.65-.65.65.65,0,1,1,1.3,0A.65.65,0,0,1,95.35,255.79Z"/><path class="cls-1" d="M101.87,262.29V259.1c0-.84-.12-1.51-1.13-1.51-1.2,0-1.34,1-1.34,2v2.71h-.92v-5.4h.92v.65a1.83,1.83,0,0,1,1.56-.78,1.86,1.86,0,0,1,1.54.74,2.53,2.53,0,0,1,.31,1.43v3.36Z"/><path class="cls-1" d="M108.7,262.29v-.76a2.31,2.31,0,0,1-1.88.91,2.68,2.68,0,0,1-2.6-2.86,2.65,2.65,0,0,1,2.59-2.82,2.33,2.33,0,0,1,1.89.9v-4.85h.92v9.48ZM107,257.61a2,2,0,1,0,1.8,2A1.8,1.8,0,0,0,107,257.61Z"/><path class="cls-1" d="M115.51,262.29v-.76a2.3,2.3,0,0,1-1.87.91,2.67,2.67,0,0,1-2.6-2.87,2.62,2.62,0,0,1,2.58-2.81,2.29,2.29,0,0,1,1.89.9v-.77h.92v5.4Zm-1.74-4.7a1.84,1.84,0,0,0-1.78,2,1.86,1.86,0,0,0,1.78,2,1.84,1.84,0,0,0,1.79-2A1.82,1.82,0,0,0,113.77,257.59Z"/><path class="cls-1" d="M122.74,264.29a2.63,2.63,0,0,1-2.16,1,2.43,2.43,0,0,1-2.63-2.47h.93a1.6,1.6,0,0,0,1.71,1.64c1.3,0,1.73-1,1.73-2.13v-.8a2.44,2.44,0,0,1-1.9.9,2.85,2.85,0,0,1,0-5.67,2.29,2.29,0,0,1,1.86.89v-.76h.94v5.28A3.29,3.29,0,0,1,122.74,264.29Zm-2.18-6.7a1.85,1.85,0,0,0-1.76,2,1.82,1.82,0,0,0,1.76,2,2,2,0,0,0,0-4Z"/><path class="cls-1" d="M131.78,259.36l-1.78,2h3.64v.9H128l3.16-3.66c.58-.67,1.49-1.65,1.49-2.58a1.73,1.73,0,1,0-3.45.1h-1a4.22,4.22,0,0,1,.18-1,2.71,2.71,0,0,1,5.22.89C133.66,257.36,132.59,258.45,131.78,259.36Z"/><path class="cls-1" d="M140.35,262.44a1.91,1.91,0,0,1-1.88-1.38l.8-.33c.22.48.52.87,1.09.87a.84.84,0,0,0,.89-.85c0-1.17-2.43-.8-2.43-2.48a1.51,1.51,0,0,1,1.57-1.51,1.61,1.61,0,0,1,1.48,1l-.77.4a.85.85,0,0,0-.75-.53.65.65,0,0,0-.65.59c0,.95,2.5.71,2.5,2.47A1.78,1.78,0,0,1,140.35,262.44Z"/><path class="cls-1" d="M144.07,259.78a1.74,1.74,0,0,0,1.71,1.82,1.87,1.87,0,0,0,1.67-1.12l.78.43a2.7,2.7,0,0,1-2.47,1.53,2.85,2.85,0,0,1,0-5.68,2.58,2.58,0,0,1,2.57,2.84v.18Zm1.66-2.17a1.67,1.67,0,0,0-1.6,1.39h3.18A1.63,1.63,0,0,0,145.73,257.61Z"/><path class="cls-1" d="M152.5,262.44a2.32,2.32,0,0,1-1.88-.91v3.8h-.92v-8.44h.92v.76a2.33,2.33,0,0,1,1.87-.89,2.67,2.67,0,0,1,2.6,2.86A2.64,2.64,0,0,1,152.5,262.44Zm-.14-4.85a1.86,1.86,0,0,0-1.79,2,1.79,1.79,0,1,0,3.57,0A1.86,1.86,0,0,0,152.36,257.59Z"/><path class="cls-1" d="M157.45,257.75v4.54h-.94v-4.54H156v-.86h.56v-1.95h.94v1.95h.94v.86Z"/><path class="cls-1" d="M159.92,259.78a1.74,1.74,0,0,0,1.71,1.82,1.86,1.86,0,0,0,1.66-1.12l.79.43a2.7,2.7,0,0,1-2.47,1.53,2.85,2.85,0,0,1-.06-5.68,2.59,2.59,0,0,1,2.58,2.84v.18Zm1.66-2.17A1.65,1.65,0,0,0,160,259h3.17A1.61,1.61,0,0,0,161.58,257.61Z"/><path class="cls-1" d="M171.69,262.29V259c0-.69-.11-1.42-1-1.42s-1.16.91-1.16,1.69v3h-.92v-3.2c0-.68-.14-1.5-1-1.5a1.15,1.15,0,0,0-1,.59,2.58,2.58,0,0,0-.2,1.17v2.94h-.93v-5.4h.93v.57a1.55,1.55,0,0,1,1.34-.7,1.64,1.64,0,0,1,1.48.87,1.84,1.84,0,0,1,3-.14,2.52,2.52,0,0,1,.3,1.38v3.42Z"/><path class="cls-1" d="M177.18,262.44a2.29,2.29,0,0,1-1.87-.91v.76h-.93v-9.48h.93v4.85a2.3,2.3,0,0,1,1.88-.9,2.64,2.64,0,0,1,2.59,2.82A2.67,2.67,0,0,1,177.18,262.44Zm-.13-4.83a1.82,1.82,0,0,0-1.8,2,1.8,1.8,0,1,0,1.8-2Z"/><path class="cls-1" d="M181.82,259.78a1.74,1.74,0,0,0,1.72,1.82,1.87,1.87,0,0,0,1.66-1.12l.78.43a2.7,2.7,0,0,1-2.47,1.53,2.85,2.85,0,0,1,0-5.68A2.58,2.58,0,0,1,186,259.6v.18Zm1.66-2.17a1.67,1.67,0,0,0-1.6,1.39h3.18A1.62,1.62,0,0,0,183.48,257.61Z"/><path class="cls-1" d="M190,257.83a.8.8,0,0,0-.54-.18,1,1,0,0,0-.47.11c-.6.33-.6,1.09-.6,1.68v2.85h-.92v-5.4h.92v.59a1.45,1.45,0,0,1,1.22-.72,1.62,1.62,0,0,1,.84.22Z"/><path class="cls-1" d="M197.87,262.29l-2.18-2.46-.23.23v2.23h-.93v-9.48h.93v6.07l2-2h1.23l-2.31,2.29,2.74,3.11Z"/><path class="cls-1" d="M200,262.29v-9.48h.92v9.48Z"/><path class="cls-1" d="M208.51,262.29v-7.76h-1.44l.5-.91h1.9v8.67Z"/><path class="cls-1" d="M218.09,260.87v1.42h-1v-1.42h-4.45l5.41-7.74V260h1.07v.88Zm-1-4.8L214.38,260h2.75Z"/><path class="cls-1" d="M219.8,259.93v-.83h2.36v.83Z"/><path class="cls-1" d="M225.6,262.29v-7.76h-1.44l.51-.91h1.89v8.67Z"/><path class="cls-1" d="M233.22,262.43a3,3,0,0,1-3-2.94,3.52,3.52,0,0,1,.71-2l2.95-4.09.73.54-2,2.77a2.67,2.67,0,0,1,.8-.11,2.81,2.81,0,0,1,2.78,2.85A3,3,0,0,1,233.22,262.43Zm0-5a2,2,0,1,0,2,2A2,2,0,0,0,233.21,257.46Z"/></svg>