<svg id="Layer_1" data-name="Layer 1" xmlns="http://www.w3.org/2000/svg" viewBox="0 0 320 320"><defs><style>.cls-1{fill:#d80201;}</style></defs><title>text</title><path class="cls-1" d="M110.05,240.6v6.69h-1v-9l6.75,7.09v-6.72h1v9.06Z"/><path class="cls-1" d="M119.82,250.33h-1l1.74-3.55L118,241.89h1.06l1.91,3.86,1.75-3.86h1Z"/><path class="cls-1" d="M127.6,247.44a2.32,2.32,0,0,1-1.88-.91v3.8h-.92v-8.44h.92v.76a2.33,2.33,0,0,1,1.87-.89,2.67,2.67,0,0,1,2.6,2.86A2.64,2.64,0,0,1,127.6,247.44Zm-.14-4.85a1.86,1.86,0,0,0-1.79,2,1.79,1.79,0,1,0,3.57,0A1.86,1.86,0,0,0,127.46,242.59Z"/><path class="cls-1" d="M134.14,242.83a.8.8,0,0,0-.54-.18,1,1,0,0,0-.47.11c-.6.33-.6,1.09-.6,1.68v2.85h-.92v-5.4h.92v.59a1.45,1.45,0,0,1,1.22-.72,1.56,1.56,0,0,1,.83.22Z"/><path class="cls-1" d="M137.76,247.44a2.84,2.84,0,1,1,2.84-2.83A2.82,2.82,0,0,1,137.76,247.44Zm0-4.83a2,2,0,1,0,1.92,2A1.88,1.88,0,0,0,137.74,242.61Z"/><path class="cls-1" d="M146.14,247.29v-.76a2.29,2.29,0,0,1-1.87.91,2.67,2.67,0,0,1-2.6-2.86,2.64,2.64,0,0,1,2.59-2.82,2.3,2.3,0,0,1,1.88.9v-4.85h.93v9.48Zm-1.74-4.68a1.83,1.83,0,0,0-1.78,2,1.8,1.8,0,1,0,3.57,0A1.8,1.8,0,0,0,144.4,242.61Z"/><path class="cls-1" d="M152.63,246.77a2.16,2.16,0,0,1-3.8-1.63v-3.25h.93V245a2.15,2.15,0,0,0,.16,1,1.28,1.28,0,0,0,2.1,0,2.08,2.08,0,0,0,.17-1v-3.15h.92v3.25A2.2,2.2,0,0,1,152.63,246.77Z"/><path class="cls-1" d="M158.22,247.29,156,244.83l-.23.23v2.23h-.92v-9.48h.92v6.07l2-2H159l-2.32,2.29,2.75,3.11Z"/><path class="cls-1" d="M161.29,242.75v4.54h-.94v-4.54h-.56v-.86h.56v-1.95h.94v1.95h1v.86Z"/><path class="cls-1" d="M163.6,240.51a.66.66,0,1,1,.66-.66A.67.67,0,0,1,163.6,240.51Zm-.47,6.78v-5.4h.93v5.4Z"/><path class="cls-1" d="M168.35,247.44a2.84,2.84,0,1,1,2.84-2.83A2.82,2.82,0,0,1,168.35,247.44Zm0-4.83a2,2,0,1,0,1.91,2A1.89,1.89,0,0,0,168.33,242.61Z"/><path class="cls-1" d="M176,247.29V244.1c0-.84-.11-1.51-1.13-1.51-1.19,0-1.34,1-1.34,2v2.71h-.92v-5.4h.92v.65a1.83,1.83,0,0,1,1.56-.78,1.86,1.86,0,0,1,1.54.74,2.53,2.53,0,0,1,.31,1.43v3.36Z"/><path class="cls-1" d="M184.76,247.44a2.32,2.32,0,0,1-1.88-.91v3.8H182v-8.44h.92v.76a2.33,2.33,0,0,1,1.87-.89,2.67,2.67,0,0,1,2.6,2.86A2.64,2.64,0,0,1,184.76,247.44Zm-.14-4.85a1.86,1.86,0,0,0-1.79,2,1.79,1.79,0,1,0,3.57,0A1.86,1.86,0,0,0,184.62,242.59Z"/><path class="cls-1" d="M192.89,247.29v-.76a2.29,2.29,0,0,1-1.87.91,2.67,2.67,0,0,1-2.6-2.87,2.62,2.62,0,0,1,2.58-2.81,2.29,2.29,0,0,1,1.89.9v-.77h.92v5.4Zm-1.74-4.7a1.84,1.84,0,0,0-1.78,2,1.86,1.86,0,0,0,1.78,2,1.84,1.84,0,0,0,1.79-2A1.82,1.82,0,0,0,191.15,242.59Zm0-1.76a1.12,1.12,0,1,1,1.12-1.12A1.11,1.11,0,0,1,191.12,240.83Zm0-1.67a.55.55,0,0,0-.54.55.54.54,0,0,0,.54.54.55.55,0,0,0,.55-.54A.55.55,0,0,0,191.12,239.16Z"/><path class="cls-1" d="M199.77,242.75v4.54h-.94v-4.54h-.56v-.86h.56v-1.95h.94v1.95h.94v.86Z"/><path class="cls-1" d="M203.48,247.64l-2.65-5.75h1l1.61,3.63,1.6-3.63h1Z"/><path class="cls-1" d="M211.23,247.29v-.76a2.29,2.29,0,0,1-1.87.91,2.67,2.67,0,0,1-2.6-2.87,2.63,2.63,0,0,1,2.59-2.81,2.28,2.28,0,0,1,1.88.9v-.77h.92v5.4Zm-1.74-4.7a1.84,1.84,0,0,0-1.78,2,1.86,1.86,0,0,0,1.78,2,1.84,1.84,0,0,0,1.79-2A1.82,1.82,0,0,0,209.49,242.59Zm0-1.76a1.12,1.12,0,1,1,1.12-1.12A1.12,1.12,0,0,1,209.46,240.83Zm0-1.67a.55.55,0,0,0-.54.55.54.54,0,0,0,.54.54.55.55,0,0,0,.55-.54A.55.55,0,0,0,209.46,239.16Z"/><path class="cls-1" d="M81.81,257.75v4.54h-.94v-4.54h-.56v-.86h.56v-1.95h.94v1.95h1v.86Z"/><path class="cls-1" d="M86.16,262.44A2.84,2.84,0,1,1,89,259.61,2.82,2.82,0,0,1,86.16,262.44Zm0-4.83a2,2,0,1,0,1.91,2A1.89,1.89,0,0,0,86.15,257.61Z"/><path class="cls-1" d="M96.57,262.29V259c0-.69-.11-1.42-1-1.42s-1.16.91-1.16,1.69v3h-.92v-3.2c0-.68-.14-1.5-1-1.5a1.12,1.12,0,0,0-1,.59,2.46,2.46,0,0,0-.21,1.17v2.94h-.92v-5.4h.92v.57a1.55,1.55,0,0,1,1.34-.7,1.64,1.64,0,0,1,1.48.87,1.84,1.84,0,0,1,3-.14,2.52,2.52,0,0,1,.3,1.38v3.42Z"/><path class="cls-1" d="M100.2,257.75v4.54h-.93v-4.54h-.56v-.86h.56v-1.95h.93v1.95h1v.86Z"/><path class="cls-1" d="M102.67,259.78a1.74,1.74,0,0,0,1.72,1.82,1.86,1.86,0,0,0,1.66-1.12l.78.43a2.69,2.69,0,0,1-2.47,1.53,2.85,2.85,0,0,1,0-5.68,2.58,2.58,0,0,1,2.57,2.84v.18Zm1.67-2.17a1.65,1.65,0,0,0-1.6,1.39h3.17A1.62,1.62,0,0,0,104.34,257.61Z"/><path class="cls-1" d="M110.83,257.83a.79.79,0,0,0-.54-.18,1,1,0,0,0-.47.11c-.6.33-.6,1.09-.6,1.68v2.85h-.92v-5.4h.92v.59a1.45,1.45,0,0,1,1.22-.72,1.62,1.62,0,0,1,.84.22Z"/><path class="cls-1" d="M121.53,262.29V259c0-.69-.11-1.42-1-1.42s-1.16.91-1.16,1.69v3h-.92v-3.2c0-.68-.14-1.5-1-1.5a1.12,1.12,0,0,0-1,.59,2.46,2.46,0,0,0-.21,1.17v2.94h-.93v-5.4h.93v.57a1.55,1.55,0,0,1,1.34-.7,1.64,1.64,0,0,1,1.48.87,1.84,1.84,0,0,1,3-.14,2.52,2.52,0,0,1,.3,1.38v3.42Z"/><path class="cls-1" d="M124.85,259.78a1.74,1.74,0,0,0,1.71,1.82,1.87,1.87,0,0,0,1.67-1.12l.78.43a2.7,2.7,0,0,1-2.47,1.53,2.85,2.85,0,0,1-.05-5.68,2.58,2.58,0,0,1,2.57,2.84v.18Zm1.66-2.17a1.67,1.67,0,0,0-1.6,1.39h3.18A1.63,1.63,0,0,0,126.51,257.61Z"/><path class="cls-1" d="M134.6,262.29v-.76a2.3,2.3,0,0,1-1.87.91,2.67,2.67,0,0,1-2.6-2.86,2.64,2.64,0,0,1,2.58-2.82,2.33,2.33,0,0,1,1.89.9v-4.85h.92v9.48Zm-1.74-4.68a2,2,0,1,0,1.79,2A1.8,1.8,0,0,0,132.86,257.61Z"/><path class="cls-1" d="M144.33,261.77a2.15,2.15,0,0,1-3.79-1.63v-3.25h.92V260a2,2,0,0,0,.17,1,1.17,1.17,0,0,0,1.05.55,1.15,1.15,0,0,0,1-.55,2.08,2.08,0,0,0,.17-1v-3.15h.93v3.25A2.21,2.21,0,0,1,144.33,261.77Z"/><path class="cls-1" d="M147.52,257.75v4.54h-.94v-4.54H146v-.86h.55v-1.95h.94v1.95h.95v.86Z"/><path class="cls-1" d="M151.24,262.64l-2.65-5.75h1l1.61,3.63,1.6-3.63h1Z"/><path class="cls-1" d="M158.8,262.29v-.76a2.29,2.29,0,0,1-1.87.91,2.67,2.67,0,0,1-2.6-2.87,2.63,2.63,0,0,1,2.59-2.81,2.27,2.27,0,0,1,1.88.9v-.77h.93v5.4Zm-1.74-4.7a1.85,1.85,0,0,0-1.78,2,1.86,1.86,0,0,0,1.78,2,1.85,1.85,0,0,0,1.8-2A1.83,1.83,0,0,0,157.06,257.59Z"/><path class="cls-1" d="M161.49,262.29v-9.48h.93v9.48Z"/><path class="cls-1" d="M168.31,262.29v-.76a2.31,2.31,0,0,1-1.88.91,2.68,2.68,0,0,1-2.6-2.86,2.65,2.65,0,0,1,2.59-2.82,2.33,2.33,0,0,1,1.89.9v-4.85h.92v9.48Zm-1.75-4.68a2,2,0,1,0,1.8,2A1.8,1.8,0,0,0,166.56,257.61Z"/><path class="cls-1" d="M175.12,262.29v-.76a2.29,2.29,0,0,1-1.87.91,2.67,2.67,0,0,1-2.6-2.87,2.62,2.62,0,0,1,2.58-2.81,2.29,2.29,0,0,1,1.89.9v-.77H176v5.4Zm-1.74-4.7a1.84,1.84,0,0,0-1.78,2,1.86,1.86,0,0,0,1.78,2,1.84,1.84,0,0,0,1.79-2A1.82,1.82,0,0,0,173.38,257.59Z"/><path class="cls-1" d="M184.46,262.29V259c0-.81-.19-1.4-1.11-1.4-1.21,0-1.37,1-1.37,2v2.69h-.92v-9.48H182v4.71a2,2,0,0,1,3.1,0,2.59,2.59,0,0,1,.31,1.45v3.34Z"/><path class="cls-1" d="M191,261.77a2.15,2.15,0,0,1-3.79-1.63v-3.25h.92V260a2,2,0,0,0,.17,1,1.27,1.27,0,0,0,2.09,0,2.08,2.08,0,0,0,.17-1v-3.15h.92v3.25A2.2,2.2,0,0,1,191,261.77Z"/><path class="cls-1" d="M194.66,262.44a1.93,1.93,0,0,1-1.89-1.38l.81-.33c.22.48.52.87,1.09.87a.84.84,0,0,0,.88-.85c0-1.17-2.43-.8-2.43-2.48a1.52,1.52,0,0,1,1.58-1.51,1.62,1.62,0,0,1,1.48,1l-.77.4a.86.86,0,0,0-.75-.53.64.64,0,0,0-.65.59c0,.95,2.49.71,2.49,2.47A1.77,1.77,0,0,1,194.66,262.44Z"/><path class="cls-1" d="M203.9,262.29V259c0-.69-.12-1.42-1-1.42s-1.15.91-1.15,1.69v3h-.93v-3.2c0-.68-.14-1.5-1-1.5a1.12,1.12,0,0,0-1,.59,2.59,2.59,0,0,0-.21,1.17v2.94h-.92v-5.4h.92v.57a1.58,1.58,0,0,1,1.34-.7,1.66,1.66,0,0,1,1.49.87,1.83,1.83,0,0,1,3-.14,2.52,2.52,0,0,1,.3,1.38v3.42Z"/><path class="cls-1" d="M209.1,262.44a2.84,2.84,0,1,1,2.85-2.83A2.82,2.82,0,0,1,209.1,262.44Zm0-4.83a2,2,0,1,0,1.91,2A1.89,1.89,0,0,0,209.09,257.61Z"/><path class="cls-1" d="M217.49,262.29v-.76a2.32,2.32,0,0,1-1.88.91,2.67,2.67,0,0,1-2.6-2.86,2.64,2.64,0,0,1,2.59-2.82,2.33,2.33,0,0,1,1.89.9v-4.85h.92v9.48Zm-1.75-4.68a2,2,0,1,0,1.8,2A1.81,1.81,0,0,0,215.74,257.61Z"/><path class="cls-1" d="M220.8,259.78a1.74,1.74,0,0,0,1.72,1.82,1.87,1.87,0,0,0,1.66-1.12l.78.43a2.7,2.7,0,0,1-2.47,1.53,2.85,2.85,0,0,1-.05-5.68A2.58,2.58,0,0,1,225,259.6v.18Zm1.66-2.17a1.65,1.65,0,0,0-1.59,1.39H224A1.62,1.62,0,0,0,222.46,257.61Z"/><path class="cls-1" d="M226.43,262.29v-9.48h.92v9.48Z"/><path class="cls-1" d="M229.12,262.29v-9.48H230v9.48Z"/><path class="cls-1" d="M232.43,259.78a1.76,1.76,0,0,0,1.72,1.82,1.86,1.86,0,0,0,1.66-1.12l.78.43a2.69,2.69,0,0,1-2.47,1.53,2.85,2.85,0,0,1-.05-5.68,2.59,2.59,0,0,1,2.58,2.84v.18Zm1.67-2.17a1.65,1.65,0,0,0-1.6,1.39h3.17A1.61,1.61,0,0,0,234.1,257.61Z"/><path class="cls-1" d="M240.6,257.83a.83.83,0,0,0-.55-.18,1,1,0,0,0-.47.11c-.59.33-.59,1.09-.59,1.68v2.85h-.93v-5.4H239v.59a1.44,1.44,0,0,1,1.22-.72,1.59,1.59,0,0,1,.83.22Z"/></svg>