<svg id="Layer_1" data-name="Layer 1" xmlns="http://www.w3.org/2000/svg" viewBox="0 0 320 320"><defs><style>.cls-1{fill:#d80201;}</style></defs><title>text</title><path class="cls-1" d="M84.91,149.5V139.1H75v10.4H70.48V126.15H75v9h9.87v-9h4.55V149.5Z"/><path class="cls-1" d="M105.73,149.5v-2a5.84,5.84,0,0,1-4.94,2.49c-4.55,0-7.45-3.78-7.45-8.12s2.9-8,7.35-8a6.3,6.3,0,0,1,5,2.42v-1.93H110V149.5ZM102,137.67a4.25,4.25,0,1,0,4.24,4.23A4.23,4.23,0,0,0,102,137.67Z"/><path class="cls-1" d="M114.06,149.5V123.28h4.23V149.5Z"/><path class="cls-1" d="M130.05,149.81h-2l-7.73-15.47h4.76l4,8.54,4-8.54h4.76Z"/><path class="cls-1" d="M150.74,149.5v-2A5.86,5.86,0,0,1,145.8,150c-4.55,0-7.45-3.78-7.45-8.12s2.9-8,7.35-8a6.3,6.3,0,0,1,5,2.42v-1.93H155V149.5ZM147,137.67a4.25,4.25,0,1,0,4.24,4.23A4.23,4.23,0,0,0,147,137.67Z"/><path class="cls-1" d="M177.13,150a6.07,6.07,0,0,1-5.08-2.49v10.09h-4.23V134.34h4.23v1.93a6,6,0,0,1,5-2.42c4.52,0,7.5,3.75,7.5,8.09S181.58,150,177.13,150Zm-1.26-12.32a4.25,4.25,0,1,0,4.23,4.23A4.23,4.23,0,0,0,175.87,137.67Z"/><path class="cls-1" d="M197.64,138.19a3.8,3.8,0,0,0-2-.52c-2.87,0-3.64,2-3.64,4.55v7.28h-4.24V134.34H192v2.28a4.86,4.86,0,0,1,4.41-2.77,4.94,4.94,0,0,1,1.85.35Z"/><path class="cls-1" d="M202.4,130.49a2.56,2.56,0,1,1,0-5.11,2.56,2.56,0,0,1,0,5.11Zm-2.14,19V134.34h4.24V149.5Z"/><path class="cls-1" d="M213.32,150a8.1,8.1,0,0,1-5.78-2.52l2.24-2.59a5,5,0,0,0,3.57,1.78,1.79,1.79,0,0,0,1.93-1.68c0-2.59-6.76-1.29-6.76-6.4,0-3.08,2.56-4.8,5.43-4.8a7.78,7.78,0,0,1,4.93,1.61l-2.1,2.49a4.21,4.21,0,0,0-2.52-1c-.73,0-1.61.46-1.61,1.3,0,2.2,7,1.22,7,6.4C219.65,148.1,216.57,150,213.32,150Z"/><path class="cls-1" d="M226.2,142.6c.07,2.35,1.19,4.06,3.71,4.06a4,4,0,0,0,3.6-2l3.92.63c-1.33,3.26-4,4.73-7.45,4.73-4.9,0-8.12-3.15-8.12-8.09s3.08-8.05,7.94-8.05,7.74,3.36,7.74,8.19v.56Zm3.67-5.74a3.44,3.44,0,0,0-3.53,3h7.17A3.51,3.51,0,0,0,229.87,136.86Z"/><path class="cls-1" d="M245.06,138V149.5h-4.23V138h-1.68v-3.64h1.68v-5.18h4.23v5.18h3V138Z"/><path class="cls-1" d="M65.92,193a6.07,6.07,0,0,1-5.08-2.49v10.09H56.61V177.34h4.23v1.93a6,6,0,0,1,5-2.42c4.52,0,7.49,3.75,7.49,8.09S70.36,193,65.92,193Zm-1.26-12.32a4.25,4.25,0,1,0,4.23,4.23A4.23,4.23,0,0,0,64.66,180.67Z"/><path class="cls-1" d="M88.11,192.5v-2A5.86,5.86,0,0,1,83.17,193c-4.55,0-7.45-3.78-7.45-8.12s2.9-8,7.35-8a6.31,6.31,0,0,1,5,2.42v-1.93h4.27V192.5Zm-3.78-11.83a4.25,4.25,0,1,0,4.23,4.23A4.23,4.23,0,0,0,84.33,180.67Zm-.6-6a3.15,3.15,0,0,1,0-6.3,3.15,3.15,0,0,1,0,6.3Zm0-4.37A1.23,1.23,0,1,0,85,171.53,1.2,1.2,0,0,0,83.73,170.31Z"/><path class="cls-1" d="M114.39,193a6,6,0,0,1-5-2.49v2h-4.23V166.28h4.23v13a6.43,6.43,0,0,1,5.08-2.42c4.44,0,7.38,3.78,7.38,8S118.94,193,114.39,193Zm-1.15-12.32a4.25,4.25,0,1,0,4.23,4.23A4.23,4.23,0,0,0,113.24,180.67Z"/><path class="cls-1" d="M135,181.19a3.8,3.8,0,0,0-2-.52c-2.87,0-3.64,2-3.64,4.55v7.28H125.1V177.34h4.24v2.28a4.86,4.86,0,0,1,4.41-2.77,4.94,4.94,0,0,1,1.85.35Z"/><path class="cls-1" d="M149.29,192.5v-2a5.86,5.86,0,0,1-4.94,2.49c-4.55,0-7.45-3.78-7.45-8.12s2.9-8,7.35-8a6.31,6.31,0,0,1,5,2.42v-1.93h4.27V192.5Zm-3.78-11.83a4.25,4.25,0,1,0,4.23,4.23A4.23,4.23,0,0,0,145.51,180.67Z"/><path class="cls-1" d="M162.45,193a8.08,8.08,0,0,1-5.78-2.52l2.24-2.59a4.94,4.94,0,0,0,3.57,1.78,1.79,1.79,0,0,0,1.93-1.68c0-2.59-6.76-1.29-6.76-6.4,0-3.08,2.56-4.8,5.43-4.8a7.78,7.78,0,0,1,4.93,1.61l-2.1,2.49a4.21,4.21,0,0,0-2.52-1c-.73,0-1.61.46-1.61,1.3,0,2.2,7,1.22,7,6.4C168.78,191.1,165.7,193,162.45,193Z"/><path class="cls-1" d="M182.19,192.5,176.48,186l-.45.45v6.06h-4.24V166.28H176v16.59l5.67-5.53h5.74L180.33,184,188,192.5Z"/><path class="cls-1" d="M200.67,192.5v-2a5.86,5.86,0,0,1-4.94,2.49c-4.55,0-7.45-3.78-7.45-8.12s2.9-8,7.35-8a6.31,6.31,0,0,1,5,2.42v-1.93h4.27V192.5Zm-3.78-11.83a4.25,4.25,0,1,0,4.23,4.23A4.23,4.23,0,0,0,196.89,180.67Z"/><path class="cls-1" d="M228.35,192.5v-8.3c0-1.78-.28-3.74-2.52-3.74-2.48,0-2.9,2.27-2.9,4.27v7.77h-4.24v-8.05a6.85,6.85,0,0,0-.31-2.52,2.47,2.47,0,0,0-2.28-1.47,2.76,2.76,0,0,0-2.38,1.36,6.26,6.26,0,0,0-.49,2.91v7.77H209V177.34h4.24v1.72a5.82,5.82,0,0,1,4.62-2.21,5.16,5.16,0,0,1,4.73,2.77,5.61,5.61,0,0,1,5-2.77,5,5,0,0,1,4.23,2.17,6.71,6.71,0,0,1,.81,3.68v9.8Z"/><path class="cls-1" d="M238.71,173.49a2.56,2.56,0,1,1,0-5.11,2.56,2.56,0,0,1,0,5.11Zm-2.14,19V177.34h4.24V192.5Z"/><path class="cls-1" d="M255.16,192.5v-8.4c0-2.07-.45-3.64-2.87-3.64-2.63,0-3.26,1.92-3.26,4.2v7.84H244.8V177.34H249v1.86a5.61,5.61,0,0,1,4.76-2.35,5.24,5.24,0,0,1,5.61,6v9.63Z"/></svg>