<svg id="Layer_1" data-name="Layer 1" xmlns="http://www.w3.org/2000/svg" viewBox="0 0 300 250"><defs><style>.cls-1{fill:#d4ac76;}</style></defs><title>text</title><path class="cls-1" d="M108.19,169.67v-8.89h2.92a2.66,2.66,0,0,1,2,.74,2.45,2.45,0,0,1,.76,1.83,2.09,2.09,0,0,1-1,1.79,2.53,2.53,0,0,1,1,.8,1.91,1.91,0,0,1,.37,1.13,2.44,2.44,0,0,1-.78,1.88,2.77,2.77,0,0,1-2,.72Zm2.73-7.41h-1.19v2.23h1.33a1.22,1.22,0,0,0,.88-.33,1.08,1.08,0,0,0,.34-.82.93.93,0,0,0-.38-.78A1.51,1.51,0,0,0,110.92,162.26Zm.25,3.57h-1.44v2.35h1.41a1.45,1.45,0,0,0,1-.33,1.11,1.11,0,0,0,.37-.86,1.12,1.12,0,0,0-.35-.85A1.42,1.42,0,0,0,111.17,165.83Z"/><path class="cls-1" d="M121.57,165.91h-3.29v2.27h3.61v1.49h-5.27v-8.89h5.17v1.48h-3.51v2.16h3.29Z"/><path class="cls-1" d="M126.73,169.78a4.36,4.36,0,0,1-1.68-.35,4.46,4.46,0,0,1-1.44-1l1.06-1.27a3.34,3.34,0,0,0,1,.8,2.63,2.63,0,0,0,1.17.31,1.41,1.41,0,0,0,1-.31.94.94,0,0,0,.37-.76,1.33,1.33,0,0,0-1-1.24l-1-.4a3.71,3.71,0,0,1-1.48-1,2.42,2.42,0,0,1,.28-3.19,2.56,2.56,0,0,1,1.89-.75,3.8,3.8,0,0,1,2.73,1l-1,1.24a2.26,2.26,0,0,0-1.75-.77,1.18,1.18,0,0,0-.8.25.8.8,0,0,0-.3.63.85.85,0,0,0,.23.61,2.39,2.39,0,0,0,.77.46l1,.41a2.76,2.76,0,0,1,2,2.57A2.47,2.47,0,0,1,129,169,3.24,3.24,0,0,1,126.73,169.78Z"/><path class="cls-1" d="M131.23,162.38v-1.6h7.33v1.6h-2.83v7.29h-1.67v-7.29Z"/><path class="cls-1" d="M138.64,169.67l3.43-8.89h1.5l3.42,8.89h-1.72l-.47-1.23h-4l-.48,1.23Zm3.41-9.81a.74.74,0,0,1-1.09,0,.78.78,0,0,1-.23-.57.8.8,0,0,1,.22-.56.82.82,0,0,1,.56-.23.79.79,0,0,1,.76.79A.77.77,0,0,1,142.05,159.86Zm.77,3.4L141.4,167h2.83Zm1.88-3.4a.82.82,0,0,1-.59.24.81.81,0,0,1-.59-.24.76.76,0,0,1,0-1.13.84.84,0,0,1,.59-.23.86.86,0,0,1,.59.23.79.79,0,0,1,0,1.13Z"/><path class="cls-1" d="M148.84,169.67v-8.89h1.67v7.29h3.26v1.6Z"/><path class="cls-1" d="M156,169.67v-8.89h1.66v7.29h3.27v1.6Z"/><path class="cls-1" d="M172.87,169.67V166h-3.8v3.72H167.4v-8.89h1.67v3.57h3.8v-3.57h1.67v8.89Z"/><path class="cls-1" d="M176.38,169.67l3.43-8.89h1.5l3.42,8.89H183l-.48-1.23h-4l-.48,1.23Zm3.41-9.81a.71.71,0,0,1-.54.24.74.74,0,0,1-.55-.24.8.8,0,0,1,.55-1.36.74.74,0,0,1,.54.23.84.84,0,0,1,0,1.13Zm.77,3.4L179.14,167H182Zm1.88-3.4a.85.85,0,0,1-1.18,0,.79.79,0,0,1,0-1.13.87.87,0,0,1,1.18,0,.79.79,0,0,1,0,1.13Z"/><path class="cls-1" d="M186.58,169.67v-8.89h3.48a3,3,0,0,1,2.14.8,2.79,2.79,0,0,1,.86,2.11,2.68,2.68,0,0,1-.64,1.8,2.87,2.87,0,0,1-1.66.95l2.39,3.23h-1.88l-2.3-3.18h-.72v3.18Zm3.22-7.41h-1.55v2.9h1.55a1.62,1.62,0,0,0,1.16-.4,1.33,1.33,0,0,0,.43-1,1.43,1.43,0,0,0-.44-1.06A1.61,1.61,0,0,0,189.8,162.26Z"/></svg>