<svg xmlns="http://www.w3.org/2000/svg" viewBox="0 0 224.16 16.11"><defs><style>.cls-1{fill:#fff;}</style></defs><title>Asset 1a</title><g id="Layer_2" data-name="Layer 2"><g id="Layer_1-2" data-name="Layer 1"><path class="cls-1" d="M1.53,11.68a4.34,4.34,0,0,0,3.08,1.39c1.46,0,2.33-.73,2.33-1.82s-.82-1.49-1.87-2l-1.6-.69A3.17,3.17,0,0,1,1.21,5.71c0-1.7,1.49-3,3.52-3A4.61,4.61,0,0,1,8,4.13l-.75.92A3.56,3.56,0,0,0,4.73,4c-1.26,0-2.1.63-2.1,1.63s1,1.48,1.86,1.85l1.6.68c1.29.56,2.29,1.33,2.29,3s-1.46,3.17-3.81,3.17A5.37,5.37,0,0,1,.68,12.67Z" transform="translate(-0.68 -1.8)"/><path class="cls-1" d="M13.6,5.64c2,0,3.82,1.59,3.82,4.36s-1.8,4.31-3.82,4.31S9.77,12.73,9.77,10,11.58,5.64,13.6,5.64Zm0,7.52C15,13.16,16,11.88,16,10S15,6.8,13.6,6.8,11.22,8.09,11.22,10,12.19,13.16,13.6,13.16Z" transform="translate(-0.68 -1.8)"/><path class="cls-1" d="M28.08,14a5.2,5.2,0,0,1-1.53.3c-1.77,0-2.36-1.12-2.36-2.75V7h-3v7.12H19.84V7H18.72V5.93l1.12-.08V4.54c0-1.68.76-2.74,2.41-2.74a3.64,3.64,0,0,1,1.38.28l-.31,1.07a2.24,2.24,0,0,0-.93-.21c-.78,0-1.16.55-1.16,1.6V5.85h3l.17-2.31h1.15V5.85h2.25V7H25.58v4.59c0,1,.34,1.59,1.3,1.59a2.8,2.8,0,0,0,.93-.22Z" transform="translate(-0.68 -1.8)"/><path class="cls-1" d="M28.71,5.85h1.43l1.22,4.78c.19.78.34,1.53.5,2.29h.07c.18-.76.35-1.53.56-2.29l1.27-4.78h1.36l1.29,4.78c.21.78.39,1.53.58,2.29h.07c.19-.76.34-1.51.51-2.29l1.21-4.78H40.1l-2.21,8.26h-1.7L35,9.67c-.2-.78-.35-1.54-.56-2.38h-.07c-.18.84-.35,1.62-.58,2.4l-1.15,4.42H31Z" transform="translate(-0.68 -1.8)"/><path class="cls-1" d="M46.41,8.87c0-1-.36-2.07-1.7-2.07a4.48,4.48,0,0,0-2.47.88l-.56-1a6.09,6.09,0,0,1,3.25-1.08C47,5.64,47.8,7,47.8,9v5.07H46.65l-.12-1h0a4.45,4.45,0,0,1-2.73,1.19A2.24,2.24,0,0,1,41.33,12C41.33,10.17,42.89,9.27,46.41,8.87Zm-2.26,4.32a3.39,3.39,0,0,0,2.26-1.1V9.79c-2.77.34-3.71,1-3.71,2.08S43.33,13.19,44.15,13.19Z" transform="translate(-0.68 -1.8)"/><path class="cls-1" d="M50.44,5.85h1.15l.12,1.49h0a2.85,2.85,0,0,1,2.35-1.7,2.16,2.16,0,0,1,.88.17L54.72,7a2.2,2.2,0,0,0-.8-.14c-.69,0-1.53.51-2.09,1.91v5.3H50.44Z" transform="translate(-0.68 -1.8)"/><path class="cls-1" d="M59.26,5.64c2.11,0,3.3,1.52,3.3,3.88a5.63,5.63,0,0,1-.05.77H56.93a2.74,2.74,0,0,0,2.76,2.9,3.71,3.71,0,0,0,2.05-.64l.5.91a4.93,4.93,0,0,1-2.72.85c-2.21,0-4-1.61-4-4.31S57.37,5.64,59.26,5.64Zm2.07,3.73c0-1.69-.74-2.62-2-2.62-1.15,0-2.2,1-2.37,2.62Z" transform="translate(-0.68 -1.8)"/><path class="cls-1" d="M71.76,3.15a2.29,2.29,0,0,0-.94-.21c-.78,0-1.15.55-1.15,1.6V5.85h1.75V7H69.67v7.12h-1.4V7H67.15V5.93l1.12-.08V4.54c0-1.68.77-2.74,2.41-2.74a3.6,3.6,0,0,1,1.38.28Z" transform="translate(-0.68 -1.8)"/><path class="cls-1" d="M76,5.64c2,0,3.82,1.59,3.82,4.36s-1.8,4.31-3.82,4.31S72.21,12.73,72.21,10,74,5.64,76,5.64Zm0,7.52c1.43,0,2.38-1.28,2.38-3.16s-1-3.2-2.38-3.2S73.66,8.09,73.66,10,74.63,13.16,76,13.16Z" transform="translate(-0.68 -1.8)"/><path class="cls-1" d="M82,5.85H83.2l.12,1.49h.05a2.84,2.84,0,0,1,2.34-1.7,2.24,2.24,0,0,1,.89.17L86.32,7a2.14,2.14,0,0,0-.79-.14c-.7,0-1.53.51-2.1,1.91v5.3H82Z" transform="translate(-0.68 -1.8)"/><path class="cls-1" d="M91.15,12.24a3.73,3.73,0,0,0,2.43,1c1.09,0,1.63-.58,1.63-1.3s-1-1.22-1.88-1.56c-1.17-.42-2.47-1-2.47-2.38s1.06-2.35,2.84-2.35a4.13,4.13,0,0,1,2.57.94l-.66.88a3.13,3.13,0,0,0-1.89-.73c-1,0-1.51.56-1.51,1.19S93.11,9,94,9.35c1.19.44,2.52.94,2.52,2.5,0,1.34-1.07,2.46-3,2.46a4.93,4.93,0,0,1-3.07-1.14Z" transform="translate(-0.68 -1.8)"/><path class="cls-1" d="M98.38,5.85h1.41V10.9c0,1.54.46,2.21,1.54,2.21.85,0,1.45-.43,2.23-1.4V5.85H105v8.26H103.8l-.12-1.29h-.05a3.49,3.49,0,0,1-2.72,1.49c-1.75,0-2.53-1.12-2.53-3.23Z" transform="translate(-0.68 -1.8)"/><path class="cls-1" d="M107.52,12.24a3.73,3.73,0,0,0,2.43,1c1.09,0,1.64-.58,1.64-1.3s-1-1.22-1.89-1.56c-1.17-.42-2.47-1-2.47-2.38s1.06-2.35,2.84-2.35a4.13,4.13,0,0,1,2.57.94l-.66.88a3.11,3.11,0,0,0-1.89-.73c-1,0-1.51.56-1.51,1.19s.9,1.07,1.83,1.43c1.19.44,2.52.94,2.52,2.5,0,1.34-1.07,2.46-3,2.46a4.93,4.93,0,0,1-3.07-1.14Z" transform="translate(-0.68 -1.8)"/><path class="cls-1" d="M115.1,7h-1.22V5.93l1.29-.08.17-2.31h1.18V5.85h2.22V7h-2.22v4.59c0,1,.32,1.59,1.27,1.59a2.86,2.86,0,0,0,.94-.22L119,14a5.2,5.2,0,0,1-1.53.3c-1.77,0-2.37-1.12-2.37-2.75Z" transform="translate(-0.68 -1.8)"/><path class="cls-1" d="M125,8.87c0-1-.36-2.07-1.7-2.07a4.42,4.42,0,0,0-2.46.88l-.56-1a6.05,6.05,0,0,1,3.24-1.08c2,0,2.88,1.35,2.88,3.4v5.07h-1.16l-.12-1h0a4.48,4.48,0,0,1-2.74,1.19A2.25,2.25,0,0,1,119.9,12C119.9,10.17,121.46,9.27,125,8.87Zm-2.26,4.32a3.39,3.39,0,0,0,2.26-1.1V9.79c-2.77.34-3.7,1-3.7,2.08S121.9,13.19,122.72,13.19Z" transform="translate(-0.68 -1.8)"/><path class="cls-1" d="M128.76,3.25a1,1,0,0,1,1.93,0,1,1,0,0,1-1.93,0Zm.25,2.6h1.39v8.26H129Z" transform="translate(-0.68 -1.8)"/><path class="cls-1" d="M133.19,5.85h1.16L134.47,7h.05a3.9,3.9,0,0,1,2.77-1.4c1.73,0,2.51,1.13,2.51,3.23v5.24h-1.39v-5c0-1.55-.47-2.21-1.56-2.21-.85,0-1.43.44-2.26,1.28v6h-1.4Z" transform="translate(-0.68 -1.8)"/><path class="cls-1" d="M147.17,8.87c0-1-.36-2.07-1.7-2.07a4.48,4.48,0,0,0-2.47.88l-.56-1a6.09,6.09,0,0,1,3.25-1.08c2,0,2.87,1.35,2.87,3.4v5.07H147.4l-.11-1h0a4.48,4.48,0,0,1-2.73,1.19A2.25,2.25,0,0,1,142.08,12C142.08,10.17,143.65,9.27,147.17,8.87Zm-2.26,4.32a3.41,3.41,0,0,0,2.26-1.1V9.79c-2.77.34-3.71,1-3.71,2.08S144.09,13.19,144.91,13.19Z" transform="translate(-0.68 -1.8)"/><path class="cls-1" d="M151.19,2h1.4V5.3l0,1.5a4.07,4.07,0,0,1,2.58-1.16c2.14,0,3.28,1.65,3.28,4.2,0,2.83-1.68,4.47-3.57,4.47a3.7,3.7,0,0,1-2.36-1h-.05l-.12.82h-1.13Zm3.42,11.13c1.36,0,2.36-1.24,2.36-3.28,0-1.82-.61-3-2.17-3a3.4,3.4,0,0,0-2.21,1.12v4.33A3.23,3.23,0,0,0,154.61,13.14Z" transform="translate(-0.68 -1.8)"/><path class="cls-1" d="M160.63,2H162V12.55c0,.44.19.61.4.61a1,1,0,0,0,.3,0l.19,1.06a2,2,0,0,1-.8.13c-1.05,0-1.48-.66-1.48-1.87Z" transform="translate(-0.68 -1.8)"/><path class="cls-1" d="M168.06,5.64c2.11,0,3.3,1.52,3.3,3.88a5.63,5.63,0,0,1-.05.77h-5.58a2.74,2.74,0,0,0,2.75,2.9,3.72,3.72,0,0,0,2.06-.64l.49.91a4.88,4.88,0,0,1-2.72.85c-2.21,0-4-1.61-4-4.31S166.17,5.64,168.06,5.64Zm2.07,3.73c0-1.69-.74-2.62-2-2.62a2.58,2.58,0,0,0-2.38,2.62Z" transform="translate(-0.68 -1.8)"/><path class="cls-1" d="M177.41,13.82v-.07a1.5,1.5,0,0,1-.73-1.34,1.92,1.92,0,0,1,.9-1.53v-.07a2.9,2.9,0,0,1-1.07-2.22,2.94,2.94,0,0,1,3.11-2.95,3.22,3.22,0,0,1,1.17.21h2.87V6.92H182a2.39,2.39,0,0,1,.68,1.7,3,3,0,0,1-4.26,2.58,1.27,1.27,0,0,0-.53,1c0,.53.34.9,1.46.9h1.6c1.92,0,2.89.6,2.89,2,0,1.53-1.61,2.86-4.18,2.86-2,0-3.42-.8-3.42-2.23A2.38,2.38,0,0,1,177.41,13.82ZM179.82,17c1.58,0,2.62-.82,2.62-1.68s-.59-1-1.67-1h-1.42a4,4,0,0,1-1.07-.14,1.72,1.72,0,0,0-.85,1.39C177.43,16.39,178.33,17,179.82,17Zm1.55-8.36a1.76,1.76,0,1,0-3.5,0,1.76,1.76,0,1,0,3.5,0Z" transform="translate(-0.68 -1.8)"/><path class="cls-1" d="M185.4,5.85h1.16l.11,1.49h.06a2.84,2.84,0,0,1,2.34-1.7,2.16,2.16,0,0,1,.88.17L189.68,7a2.2,2.2,0,0,0-.8-.14c-.69,0-1.53.51-2.09,1.91v5.3H185.4Z" transform="translate(-0.68 -1.8)"/><path class="cls-1" d="M194.34,5.64c2,0,3.83,1.59,3.83,4.36s-1.81,4.31-3.83,4.31-3.82-1.58-3.82-4.31S192.32,5.64,194.34,5.64Zm0,7.52c1.43,0,2.38-1.28,2.38-3.16s-.95-3.2-2.38-3.2S192,8.09,192,10,192.93,13.16,194.34,13.16Z" transform="translate(-0.68 -1.8)"/><path class="cls-1" d="M199.29,5.85h1.43l1.22,4.78c.19.78.34,1.53.49,2.29h.07c.19-.76.36-1.53.56-2.29l1.28-4.78h1.36L207,10.63l.58,2.29h.06c.19-.76.34-1.51.51-2.29l1.21-4.78h1.33l-2.21,8.26h-1.7l-1.19-4.44c-.21-.78-.36-1.54-.56-2.38H205c-.19.84-.36,1.62-.58,2.4l-1.16,4.42h-1.63Z" transform="translate(-0.68 -1.8)"/><path class="cls-1" d="M212.72,7h-1.23V5.93l1.3-.08L213,3.54h1.17V5.85h2.22V7h-2.22v4.59c0,1,.32,1.59,1.27,1.59a2.8,2.8,0,0,0,.94-.22l.27,1.06a5.2,5.2,0,0,1-1.53.3c-1.77,0-2.36-1.12-2.36-2.75Z" transform="translate(-0.68 -1.8)"/><path class="cls-1" d="M218.23,2h1.39V5.3L219.57,7a4,4,0,0,1,2.75-1.36c1.74,0,2.52,1.13,2.52,3.23v5.24h-1.4v-5c0-1.55-.47-2.21-1.56-2.21-.85,0-1.43.44-2.26,1.28v6h-1.39Z" transform="translate(-0.68 -1.8)"/></g></g></svg>