<svg id="Layer_1" data-name="Layer 1" xmlns="http://www.w3.org/2000/svg" viewBox="0 0 160 600"><defs><style>.cls-1{fill:#fff;}</style></defs><title>text</title><path class="cls-1" d="M11.37,11.88V25.19c0,.54-.35.81-1,.81s-1-.27-1-.81V11.88c0-.55.35-.83,1-.83S11.37,11.33,11.37,11.88Zm9.25,0a1.17,1.17,0,0,1-.37.79L14.59,18.6l6.08,5.93a.78.78,0,0,1,.26.62,1.12,1.12,0,0,1-1.06,1,1,1,0,0,1-.75-.34l-5.73-5.57c-1.05-1-1.05-2.07,0-3.22l5.46-5.77a1,1,0,0,1,.75-.35,1,1,0,0,1,.72.29A.85.85,0,0,1,20.62,11.87Z"/><path class="cls-1" d="M22.5,20.53a14.07,14.07,0,0,1,.25-3A3.21,3.21,0,0,1,25.2,14.9a10.42,10.42,0,0,1,2.4-.22,10.3,10.3,0,0,1,2.4.22,3.2,3.2,0,0,1,1.56.88,3.64,3.64,0,0,1,.91,1.77,14.59,14.59,0,0,1,.25,3,14.49,14.49,0,0,1-.25,3,3.22,3.22,0,0,1-.92,1.7A3.44,3.44,0,0,1,30,26a11.6,11.6,0,0,1-2.4.2A11.71,11.71,0,0,1,25.2,26a3.25,3.25,0,0,1-1.55-.8,3.11,3.11,0,0,1-.91-1.72A14.31,14.31,0,0,1,22.5,20.53Zm2.31-2.63A6,6,0,0,0,24.56,20c0,1,0,1.75.08,2.33a2.87,2.87,0,0,0,.59,1.52,1.78,1.78,0,0,0,1.34.46c.22,0,.57,0,1,0,1.35,0,2.14-.16,2.38-.48a3.09,3.09,0,0,0,.59-1.53,16.13,16.13,0,0,0,.08-1.74c0-1.78-.17-2.86-.5-3.24a3.32,3.32,0,0,0-.4-.42,2.72,2.72,0,0,0-1.61-.31c-.83,0-1.36,0-1.58,0-.7,0-1.15.2-1.33.47A5.32,5.32,0,0,0,24.81,17.9Z"/><path class="cls-1" d="M38.14,17a4.61,4.61,0,0,0-.38,2.49v5.74c0,.54-.34.81-1,.81s-1-.27-1-.81v-6a11.3,11.3,0,0,1,.21-2.47,2.11,2.11,0,0,1,.8-1.34,3.13,3.13,0,0,1,1.42-.58,23.31,23.31,0,0,1,2.55-.12c1.93,0,3.15.23,3.66.71a3,3,0,0,1,.9,2,17.7,17.7,0,0,1,.08,1.78v6c0,.54-.35.81-1,.81s-1-.27-1-.81V19.45A4.5,4.5,0,0,0,42.85,17c-.27-.27-1.05-.4-2.37-.4A4.06,4.06,0,0,0,38.14,17Z"/><path class="cls-1" d="M55.47,22.62v-.26a.83.83,0,0,0-.54-.79,4.46,4.46,0,0,0-1.87-.25,11.58,11.58,0,0,1-3-.42A2.43,2.43,0,0,1,48.74,20a2.94,2.94,0,0,1-.54-1.84V18a2.72,2.72,0,0,1,1.16-2.59,7.33,7.33,0,0,1,3.53-.67,14.19,14.19,0,0,1,3.5.31.93.93,0,0,1,.71,1c0,.57-.24.85-.71.85-.25,0-.73-.05-1.45-.14a15.19,15.19,0,0,0-2.3-.16,6,6,0,0,0-1.8.2c-.38.14-.57.51-.57,1.14v.21c0,.81.85,1.25,2.56,1.3.71,0,1.43.09,2.15.18a3.3,3.3,0,0,1,1.82.8,2.39,2.39,0,0,1,.74,1.92v.28a3.1,3.1,0,0,1-1.17,2.82,7.3,7.3,0,0,1-3.76.74,16.87,16.87,0,0,1-3.72-.29.94.94,0,0,1-.71-1c0-.56.24-.85.71-.85.28,0,.82.05,1.63.15a21.31,21.31,0,0,0,2.36.14A4.71,4.71,0,0,0,54.75,24,1.31,1.31,0,0,0,55.47,22.62Z"/><path class="cls-1" d="M64,24.28h2.14a3,3,0,0,0,.72-.12,1.39,1.39,0,0,0,.59-.35,1.43,1.43,0,0,0,.24-.92c0-.46,0-.95,0-1.48V15.67c0-.54.34-.81,1-.81s1,.27,1,.81v6a13.11,13.11,0,0,1-.18,2.48,2.15,2.15,0,0,1-.79,1.33,3,3,0,0,1-1.4.58,19.07,19.07,0,0,1-2.35.11,19.18,19.18,0,0,1-2.35-.11,2.94,2.94,0,0,1-1.38-.58,2.1,2.1,0,0,1-.79-1.33,13.84,13.84,0,0,1-.19-2.48v-6c0-.54.35-.81,1-.81s1,.27,1,.81v5.74a4.72,4.72,0,0,0,.37,2.5,1.15,1.15,0,0,0,.48.25A3,3,0,0,0,64,24.28Z"/><path class="cls-1" d="M75.3,11.42V25.19c0,.54-.34.81-1,.81s-1-.27-1-.81V11.42c0-.55.34-.83,1-.83S75.3,10.87,75.3,11.42Z"/><path class="cls-1" d="M87.25,24c.47,0,.71.29.71.86a.93.93,0,0,1-.71,1,17.83,17.83,0,0,1-3.74.27,6.38,6.38,0,0,1-3.76-.85,3.36,3.36,0,0,1-1.14-2.87V18.25a3.27,3.27,0,0,1,1-2.84,7.11,7.11,0,0,1,3.85-.73,7.13,7.13,0,0,1,3.81.7c.66.46,1,1.42,1,2.87v1.82A1.29,1.29,0,0,1,88,21a1,1,0,0,1-.77.31H80.67v1.35c0,1.13,1,1.69,3,1.68a16.8,16.8,0,0,0,2.24-.13A12.42,12.42,0,0,1,87.25,24Zm-6.58-5.76v1.18h5.55V18.26a1.46,1.46,0,0,0-.56-1.34,4.56,4.56,0,0,0-2.19-.35,5,5,0,0,0-2.2.33A1.45,1.45,0,0,0,80.67,18.26Z"/><path class="cls-1" d="M93.83,17a4.61,4.61,0,0,0-.38,2.49v5.74c0,.54-.34.81-1,.81s-1-.27-1-.81v-6a11.41,11.41,0,0,1,.2-2.47,2.12,2.12,0,0,1,.81-1.34,3,3,0,0,1,1.41-.58,23.31,23.31,0,0,1,2.55-.12c1.93,0,3.15.23,3.66.71a3,3,0,0,1,.9,2,17.7,17.7,0,0,1,.08,1.78v6c0,.54-.35.81-1,.81s-1-.27-1-.81V19.45A4.5,4.5,0,0,0,98.54,17c-.26-.27-1.05-.4-2.36-.4A4.08,4.08,0,0,0,93.83,17Z"/><path class="cls-1" d="M108.07,26a2.88,2.88,0,0,1-2.19-.67,3.36,3.36,0,0,1-.62-2.31V16.69H103.8c-.46,0-.69-.3-.69-.91s.23-.91.69-.91h1.46V12c0-.54.34-.81,1-.81s1,.27,1,.81v2.92h2.93c.47,0,.7.3.7.91s-.23.91-.7.91h-2.93v6.48c0,.63.38.94,1.12.94l2-.11c.48,0,.72.28.72.83a1.06,1.06,0,0,1-.74,1.1C109.88,26,109.11,26,108.07,26Z"/><path class="cls-1" d="M121.8,24c.47,0,.71.29.71.86a.93.93,0,0,1-.71,1,17.9,17.9,0,0,1-3.74.27,6.36,6.36,0,0,1-3.76-.85,3.39,3.39,0,0,1-1.15-2.87V18.25a3.27,3.27,0,0,1,1-2.84,7.15,7.15,0,0,1,3.86-.73,7.08,7.08,0,0,1,3.8.7c.66.46,1,1.42,1,2.87v1.82a1.33,1.33,0,0,1-.3.88,1,1,0,0,1-.78.31h-6.53v1.35c0,1.13,1,1.69,3,1.68a16.85,16.85,0,0,0,2.25-.13A12.42,12.42,0,0,1,121.8,24Zm-6.58-5.76v1.18h5.54V18.26a1.44,1.44,0,0,0-.56-1.34,4.56,4.56,0,0,0-2.19-.35,5,5,0,0,0-2.2.33A1.42,1.42,0,0,0,115.22,18.26Z"/><path class="cls-1" d="M128.38,17c-.26.26-.38,1.09-.38,2.49v5.74c0,.54-.35.81-1,.81s-1-.27-1-.81v-6a12.09,12.09,0,0,1,.2-2.47,2.17,2.17,0,0,1,.81-1.34,3,3,0,0,1,1.42-.58,23.31,23.31,0,0,1,2.55-.12c1.93,0,3.15.23,3.66.71a3.1,3.1,0,0,1,.9,2c.05.49.07,1.08.07,1.78v6c0,.54-.34.81-1,.81s-1-.27-1-.81V19.45a4.38,4.38,0,0,0-.4-2.48c-.26-.27-1.05-.4-2.36-.4S128.63,16.7,128.38,17Z"/><path class="cls-1" d="M147.31,24c.48,0,.71.29.71.86a.92.92,0,0,1-.71,1,17.83,17.83,0,0,1-3.74.27,6.38,6.38,0,0,1-3.76-.85,3.39,3.39,0,0,1-1.14-2.87V18.25a3.27,3.27,0,0,1,1-2.84,10.62,10.62,0,0,1,7.66,0c.66.46,1,1.42,1,2.87v1.82A1.29,1.29,0,0,1,148,21a1,1,0,0,1-.77.31h-6.54v1.35c0,1.13,1,1.69,3,1.68a16.8,16.8,0,0,0,2.24-.13A12.42,12.42,0,0,1,147.31,24Zm-6.58-5.76v1.18h5.55V18.26a1.46,1.46,0,0,0-.56-1.34,4.56,4.56,0,0,0-2.19-.35,5,5,0,0,0-2.2.33A1.45,1.45,0,0,0,140.73,18.26Z"/><path class="cls-1" d="M8.71,39.8A1.11,1.11,0,0,1,9,39a1.17,1.17,0,0,1,.79-.35,1.09,1.09,0,0,1,.8.35,1.2,1.2,0,0,1,.32.81A1.12,1.12,0,0,1,9,40.6,1.16,1.16,0,0,1,8.71,39.8Zm2.15,3.47v9.52c0,.54-.34.81-1,.81s-1-.27-1-.81V43.27c0-.54.34-.81,1-.81S10.86,42.73,10.86,43.27Z"/><path class="cls-1" d="M25.36,53.6H19.75c-.48,0-.71-.3-.71-.91s.23-.91.71-.91h1.77V40.47H19.75c-.48,0-.71-.3-.71-.91s.23-.91.71-.91h5.61c.47,0,.71.31.71.91s-.24.91-.71.91H23.59V51.78h1.77c.47,0,.71.3.71.91S25.83,53.6,25.36,53.6Z"/><path class="cls-1" d="M31,44.56a4.61,4.61,0,0,0-.38,2.49v5.74c0,.54-.34.81-1,.81s-1-.27-1-.81v-6a12.15,12.15,0,0,1,.2-2.47A2.17,2.17,0,0,1,29.56,43,3.08,3.08,0,0,1,31,42.4a23.31,23.31,0,0,1,2.55-.12c1.93,0,3.15.23,3.66.71a3.1,3.1,0,0,1,.9,2c0,.49.07,1.08.07,1.78v6c0,.54-.34.81-1,.81s-1-.27-1-.81V47.05a4.38,4.38,0,0,0-.4-2.48c-.26-.27-1.05-.4-2.36-.4A4.06,4.06,0,0,0,31,44.56Z"/><path class="cls-1" d="M43.83,44.56a4.48,4.48,0,0,0-.39,2.49v5.74q0,.81-1,.81c-.69,0-1-.27-1-.81v-6a11.47,11.47,0,0,1,.2-2.47A2.17,2.17,0,0,1,42.39,43a3,3,0,0,1,1.41-.58,23.31,23.31,0,0,1,2.55-.12c1.93,0,3.15.23,3.66.71a3,3,0,0,1,.9,2A17.7,17.7,0,0,1,51,46.79v6c0,.54-.34.81-1,.81s-1-.27-1-.81V47.05a4.5,4.5,0,0,0-.39-2.48c-.26-.27-1.05-.4-2.36-.4S44.08,44.3,43.83,44.56Z"/><path class="cls-1" d="M54.11,48.13a14,14,0,0,1,.26-3,3.2,3.2,0,0,1,2.44-2.65,13.26,13.26,0,0,1,4.81,0,3.21,3.21,0,0,1,1.55.88,3.55,3.55,0,0,1,.91,1.77,13.91,13.91,0,0,1,.25,3,13.8,13.8,0,0,1-.25,3,3.15,3.15,0,0,1-.92,1.7,3.4,3.4,0,0,1-1.54.8,11.67,11.67,0,0,1-2.4.2,11.89,11.89,0,0,1-2.41-.19,3.3,3.3,0,0,1-1.55-.8,3.11,3.11,0,0,1-.91-1.72A14.31,14.31,0,0,1,54.11,48.13Zm2.31-2.63a6.09,6.09,0,0,0-.24,2.06c0,1,0,1.75.08,2.33a2.78,2.78,0,0,0,.58,1.52,1.78,1.78,0,0,0,1.34.46c.23,0,.57,0,1,0q2,0,2.37-.48a3,3,0,0,0,.6-1.53c.05-.55.08-1.13.08-1.74q0-2.67-.51-3.24a2.74,2.74,0,0,0-.39-.42,2.78,2.78,0,0,0-1.62-.31c-.83,0-1.35,0-1.58,0a1.71,1.71,0,0,0-1.33.47A6.37,6.37,0,0,0,56.42,45.5Z"/><path class="cls-1" d="M70.42,42.36v.11h2.92c.47,0,.71.3.71.91s-.24.91-.71.91H70.42v8.5c0,.54-.35.81-1,.81s-1-.27-1-.81v-8.5H66.87c-.47,0-.71-.3-.71-.91s.24-.91.71-.91h1.48v-.39c0-1.58.27-2.63.81-3.14a4.52,4.52,0,0,1,3-.75,6.55,6.55,0,0,1,2,.2.71.71,0,0,1,.51.71.95.95,0,0,1-1,1l-1.52-.07a2,2,0,0,0-1.45.38A3.52,3.52,0,0,0,70.42,42.36Z"/><path class="cls-1" d="M77.07,44.47c-.48,0-.72-.28-.72-.85a.94.94,0,0,1,.72-1,16.17,16.17,0,0,1,3.73-.3c1.73,0,2.91.28,3.52.83a3.76,3.76,0,0,1,.93,2.9v4.43c0,1.39-.33,2.29-1,2.71a8.07,8.07,0,0,1-3.87.63,7.85,7.85,0,0,1-3.83-.63c-.65-.42-1-1.32-1-2.69a4.08,4.08,0,0,1,.75-2.84c.5-.53,1.52-.79,3.07-.78h3.81V45.65a1.3,1.3,0,0,0-.53-1.17,3.92,3.92,0,0,0-1.88-.31,15.85,15.85,0,0,0-2.34.15A8.05,8.05,0,0,1,77.07,44.47Zm6.12,6.14v-2H80a4.08,4.08,0,0,0-1.92.29c-.3.2-.44.64-.44,1.33s.18,1.14.55,1.33a5.55,5.55,0,0,0,2.19.28,6.69,6.69,0,0,0,2.22-.24A1,1,0,0,0,83.19,50.61Z"/><path class="cls-1" d="M96.53,44.47a5,5,0,0,1-1.15-.15,12,12,0,0,0-2.19-.15,4.85,4.85,0,0,0-2.1.34,1.45,1.45,0,0,0-.68,1.39v4.3c0,1.14,1,1.7,3,1.69a12,12,0,0,0,2-.14,6.53,6.53,0,0,1,1.15-.15c.48,0,.72.29.72.85a.94.94,0,0,1-.72,1,15.6,15.6,0,0,1-3.52.29,5.85,5.85,0,0,1-3.52-.85,3.39,3.39,0,0,1-1.15-2.87V45.85A3.22,3.22,0,0,1,89.42,43,6.53,6.53,0,0,1,93,42.28a12.32,12.32,0,0,1,3.57.37.91.91,0,0,1,.72,1C97.25,44.2,97,44.47,96.53,44.47Z"/><path class="cls-1" d="M103.62,53.6a2.88,2.88,0,0,1-2.19-.67,3.36,3.36,0,0,1-.62-2.31V44.29H99.36c-.47,0-.7-.3-.7-.91s.23-.91.7-.91h1.45V39.55c0-.54.34-.81,1-.81s1,.27,1,.81v2.92h2.93c.47,0,.7.3.7.91s-.23.91-.7.91h-2.93v6.48c0,.63.38.94,1.13.94l2-.11c.48,0,.72.28.72.83a1.06,1.06,0,0,1-.74,1.1C105.44,53.58,104.66,53.6,103.62,53.6Z"/><path class="cls-1" d="M108.48,48.13a14.07,14.07,0,0,1,.25-3,3.22,3.22,0,0,1,2.45-2.65,10.42,10.42,0,0,1,2.4-.22,10.3,10.3,0,0,1,2.4.22,3.2,3.2,0,0,1,1.56.88,3.64,3.64,0,0,1,.91,1.77,14.59,14.59,0,0,1,.25,3,14.49,14.49,0,0,1-.25,3,3.22,3.22,0,0,1-.92,1.7,3.44,3.44,0,0,1-1.55.8,14.87,14.87,0,0,1-4.8,0,3.25,3.25,0,0,1-1.55-.8,3.11,3.11,0,0,1-.91-1.72A14.31,14.31,0,0,1,108.48,48.13Zm2.31-2.63a6,6,0,0,0-.25,2.06c0,1,0,1.75.08,2.33a2.87,2.87,0,0,0,.59,1.52,1.78,1.78,0,0,0,1.34.46c.23,0,.57,0,1,0,1.35,0,2.14-.16,2.38-.48a3,3,0,0,0,.59-1.53,16.13,16.13,0,0,0,.08-1.74c0-1.78-.17-2.86-.5-3.24a1.84,1.84,0,0,0-2-.73c-.83,0-1.36,0-1.58,0-.7,0-1.15.2-1.33.47A5.32,5.32,0,0,0,110.79,45.5Z"/><path class="cls-1" d="M123.74,47.06v5.73c0,.54-.34.81-1,.81s-1-.27-1-.81v-6a7.21,7.21,0,0,1,.37-2.86,4.34,4.34,0,0,1,.68-1c.5-.45,1.73-.67,3.7-.67a6.5,6.5,0,0,1,2,.2.73.73,0,0,1,.51.73,1.05,1.05,0,0,1-.28.8,1,1,0,0,1-.71.26l-1.52-.1a7,7,0,0,0-1.76.13,1.55,1.55,0,0,0-.51.26,1.78,1.78,0,0,0-.25.52,2.76,2.76,0,0,0-.15.81C123.74,46.17,123.74,46.56,123.74,47.06Z"/><path class="cls-1" d="M19.83,81.2c-.63,0-1-.21-1.15-.62l-1.52-4.25H11.32L9.79,80.58c-.14.41-.52.62-1.15.62s-1-.28-1-.85A.87.87,0,0,1,7.76,80L12.4,67.47a2,2,0,0,1,.71-1,1.83,1.83,0,0,1,1.14-.37,1.76,1.76,0,0,1,1.13.37,2.18,2.18,0,0,1,.71,1L20.69,80l.07.37C20.76,80.92,20.45,81.2,19.83,81.2Zm-5.59-13L12,74.51h4.56l-2.25-6.33Z"/><path class="cls-1" d="M33.56,76.76a4.29,4.29,0,0,1-1.35,3.51c-.9.74-2.43,1.11-4.61,1.11a18,18,0,0,1-3.67-.29c-.87-.2-1.3-.57-1.3-1.14a1,1,0,0,1,.23-.68.73.73,0,0,1,.55-.28,9.39,9.39,0,0,1,1.54.26,11.31,11.31,0,0,0,2.47.24A6.57,6.57,0,0,0,30.6,79a2.11,2.11,0,0,0,.89-2A2.06,2.06,0,0,0,31,75.57a2.21,2.21,0,0,0-1.18-.67c-.5-.1-1.07-.18-1.69-.24a10.43,10.43,0,0,1-3.56-.8,2.89,2.89,0,0,1-1.26-1.28,4.87,4.87,0,0,1-.48-2.3,3.64,3.64,0,0,1,1.39-3.22,8.57,8.57,0,0,1,4.73-1,13.29,13.29,0,0,1,3.14.28c.69.19,1,.51,1,1a.93.93,0,0,1-.25.66.89.89,0,0,1-.67.23,13.93,13.93,0,0,1-1.59-.16,19.44,19.44,0,0,0-2-.17,5.54,5.54,0,0,0-2.89.54,1.79,1.79,0,0,0-.79,1.6,2.15,2.15,0,0,0,1.84,2.33,11.68,11.68,0,0,0,1.69.28,11.87,11.87,0,0,1,3.42.78,2.69,2.69,0,0,1,1.21,1.18A4.45,4.45,0,0,1,33.56,76.76Z"/><path class="cls-1" d="M50.82,79.22c.47,0,.71.29.71.86a.93.93,0,0,1-.71,1,17.9,17.9,0,0,1-3.74.27,6.38,6.38,0,0,1-3.76-.85,3.39,3.39,0,0,1-1.15-2.87V73.45a3.27,3.27,0,0,1,1-2.84,7.11,7.11,0,0,1,3.85-.73,7.13,7.13,0,0,1,3.81.7c.65.46,1,1.42,1,2.87v1.82a1.22,1.22,0,0,1-.3.88,1,1,0,0,1-.78.31H44.24v1.35c0,1.13,1,1.69,2.95,1.68a16.85,16.85,0,0,0,2.25-.13A12.42,12.42,0,0,1,50.82,79.22Zm-6.58-5.76v1.18h5.55V73.46a1.46,1.46,0,0,0-.56-1.34A4.61,4.61,0,0,0,47,71.77a5,5,0,0,0-2.2.33A1.45,1.45,0,0,0,44.24,73.46Z"/><path class="cls-1" d="M57,74.66v5.73c0,.54-.34.81-1,.81s-1-.27-1-.81v-6a7.21,7.21,0,0,1,.37-2.86,4.34,4.34,0,0,1,.68-1c.5-.45,1.73-.67,3.7-.67a6.5,6.5,0,0,1,2,.2.73.73,0,0,1,.51.73,1.05,1.05,0,0,1-.28.8,1,1,0,0,1-.71.26l-1.52-.1a7,7,0,0,0-1.76.13,1.75,1.75,0,0,0-.52.26,2.16,2.16,0,0,0-.24.52,2.76,2.76,0,0,0-.15.81C57,73.77,57,74.16,57,74.66Z"/><path class="cls-1" d="M73.69,81.31a1.72,1.72,0,0,1-1.1-.37,2.06,2.06,0,0,1-.7-.93l-3.26-8.77a2.25,2.25,0,0,0-.08-.37c0-.54.34-.81,1-.8a1,1,0,0,1,1,.6l3.08,8.64h.11l3.09-8.64q.22-.6,1.11-.6c.6,0,.89.27.89.8,0,0,0,.14-.07.37L75.51,80a1.94,1.94,0,0,1-.7.94A1.85,1.85,0,0,1,73.69,81.31Z"/><path class="cls-1" d="M89.69,79.22c.47,0,.71.29.71.86a.93.93,0,0,1-.71,1,17.9,17.9,0,0,1-3.74.27,6.36,6.36,0,0,1-3.76-.85A3.39,3.39,0,0,1,81,77.66V73.45a3.27,3.27,0,0,1,1-2.84,7.09,7.09,0,0,1,3.85-.73,7.13,7.13,0,0,1,3.81.7c.65.46,1,1.42,1,2.87v1.82a1.26,1.26,0,0,1-.3.88,1,1,0,0,1-.78.31H83.11v1.35c0,1.13,1,1.69,3,1.68a16.85,16.85,0,0,0,2.25-.13A12.42,12.42,0,0,1,89.69,79.22Zm-6.58-5.76v1.18h5.55V73.46a1.46,1.46,0,0,0-.56-1.34,4.61,4.61,0,0,0-2.19-.35,5,5,0,0,0-2.21.33A1.44,1.44,0,0,0,83.11,73.46Z"/><path class="cls-1" d="M96.08,66.62V80.39c0,.54-.34.81-1,.81s-1-.27-1-.81V66.62c0-.55.35-.83,1-.83S96.08,66.07,96.08,66.62Z"/><path class="cls-1" d="M109.56,66.62v9.11a14.2,14.2,0,0,1-.25,2.94,3.14,3.14,0,0,1-.91,1.71,3.32,3.32,0,0,1-1.53.8,11.32,11.32,0,0,1-2.38.2,11.89,11.89,0,0,1-2.41-.19,3.3,3.3,0,0,1-1.55-.8,3,3,0,0,1-.9-1.72,14.94,14.94,0,0,1-.25-2.94,14,14,0,0,1,.26-3,3.2,3.2,0,0,1,2.44-2.65,11.79,11.79,0,0,1,2.65-.22,6.9,6.9,0,0,1,2.76.45V66.62c0-.55.34-.83,1-.83S109.56,66.07,109.56,66.62Zm-7.87,6.48a6.09,6.09,0,0,0-.24,2.06c0,1,0,1.75.08,2.33a2.78,2.78,0,0,0,.58,1.52,1.78,1.78,0,0,0,1.34.46c.23,0,.57,0,1,0q2,0,2.37-.48a3,3,0,0,0,.6-1.53c.05-.55.08-1.13.08-1.74q0-2.67-.51-3.24a2.74,2.74,0,0,0-.39-.42,2.78,2.78,0,0,0-1.62-.31c-.83,0-1.35,0-1.58,0a1.71,1.71,0,0,0-1.33.47A6.37,6.37,0,0,0,101.69,73.1Z"/><path class="cls-1" d="M112.77,67.4a1.08,1.08,0,0,1,.34-.8,1.13,1.13,0,0,1,.78-.35,1.09,1.09,0,0,1,.8.35,1.16,1.16,0,0,1,.32.81,1.12,1.12,0,0,1-1.92.79A1.14,1.14,0,0,1,112.77,67.4Zm2.15,3.47v9.52c0,.54-.34.81-1,.81s-1-.27-1-.81V70.87c0-.54.34-.81,1-.81S114.92,70.33,114.92,70.87Z"/><path class="cls-1" d="M126.4,68.79c0-.48.35-.73,1-.73s1,.25,1,.76v4.87c0,1.44-.36,2.39-1.09,2.85a7.09,7.09,0,0,1-3.62.68,17.15,17.15,0,0,1-3.38-.21v1.78h4.2a4.66,4.66,0,0,1,3.19.81,3.8,3.8,0,0,1,.83,2.76A2.9,2.9,0,0,1,127.48,85a7.76,7.76,0,0,1-4,.73,8.89,8.89,0,0,1-4-.65,2.79,2.79,0,0,1-1.16-2.67v-9a3.85,3.85,0,0,1,.63-2.51,3.5,3.5,0,0,1,2.44-.88,19.52,19.52,0,0,1,5,.24Zm-6,4.85c0,.83.16,1.33.46,1.5a5.44,5.44,0,0,0,2.22.27,10,10,0,0,0,2.39-.19,1.13,1.13,0,0,0,.8-.56,3.67,3.67,0,0,0,.15-1.25V72.05a24.48,24.48,0,0,0-3.28-.24,4.63,4.63,0,0,0-2.12.34,1.49,1.49,0,0,0-.62,1.4Zm0,7v1.91a1.12,1.12,0,0,0,.74,1.09,6.79,6.79,0,0,0,2.44.32,5.13,5.13,0,0,0,2.26-.34,1.38,1.38,0,0,0,.58-1.31,1.42,1.42,0,0,0-.55-1.31,4,4,0,0,0-2-.36Z"/><path class="cls-1" d="M18.69,94.22v9.11a13.54,13.54,0,0,1-.25,2.94,3.13,3.13,0,0,1-.9,1.71,3.42,3.42,0,0,1-1.53.8,11.43,11.43,0,0,1-2.39.2,11.71,11.71,0,0,1-2.4-.19,3.33,3.33,0,0,1-1.56-.8,3,3,0,0,1-.9-1.72,14.31,14.31,0,0,1-.24-2.94,14.07,14.07,0,0,1,.25-3,3.21,3.21,0,0,1,2.44-2.65,11.89,11.89,0,0,1,2.66-.22,6.88,6.88,0,0,1,2.75.45V94.22c0-.55.35-.83,1-.83S18.69,93.67,18.69,94.22Zm-7.86,6.48a5.78,5.78,0,0,0-.25,2.06c0,1,0,1.75.08,2.33a2.86,2.86,0,0,0,.58,1.52,1.87,1.87,0,0,0,1.35.46c.22,0,.57,0,1,0,1.35,0,2.14-.16,2.38-.48a3.09,3.09,0,0,0,.59-1.53c.05-.56.08-1.13.08-1.74,0-1.78-.17-2.86-.5-3.24a3.32,3.32,0,0,0-.4-.42,2.72,2.72,0,0,0-1.61-.31c-.83,0-1.36,0-1.58,0a1.74,1.74,0,0,0-1.34.47A5.48,5.48,0,0,0,10.83,100.7Z"/><path class="cls-1" d="M24.68,113.28c-.59,0-.89-.26-.9-.8a3.13,3.13,0,0,1,.08-.37l1.23-3.31A1.92,1.92,0,0,1,24,107.61L20.7,98.84c0-.23-.07-.36-.07-.37,0-.54.3-.81.89-.81s1,.2,1.11.61l3.09,8.64h.11l3.08-8.64q.22-.6,1.11-.6c.59,0,.89.27.89.8,0,0,0,.14-.07.37l-5.05,13.85C25.64,113.08,25.27,113.28,24.68,113.28Z"/><path class="cls-1" d="M35,94.22v8.87l5.14-5.19a1,1,0,0,1,.76-.35.94.94,0,0,1,.72.29.86.86,0,0,1,.3.67,1.07,1.07,0,0,1-.38.77l-3,2.76,3.66,5.11a1.18,1.18,0,0,1,.23.68.94.94,0,0,1-.33.68,1.07,1.07,0,0,1-.76.31.77.77,0,0,1-.68-.37l-3.59-5-2.11,2V108c0,.54-.34.81-1,.81s-1-.27-1-.81V94.22c0-.55.36-.83,1-.83S35,93.67,35,94.22Z"/><path class="cls-1" d="M48.16,108.8a2.91,2.91,0,0,1-2.19-.67,3.42,3.42,0,0,1-.62-2.31V99.49H43.9c-.46,0-.69-.3-.69-.91s.23-.91.69-.91h1.45V94.75c0-.54.35-.81,1-.81s1,.27,1,.81v2.92h2.93c.46,0,.7.3.7.91s-.24.91-.7.91H47.42V106c0,.63.37.94,1.12.94l2-.11c.47,0,.71.28.71.83a1.05,1.05,0,0,1-.74,1.1C50,108.78,49.21,108.8,48.16,108.8Z"/><path class="cls-1" d="M53.44,95a1.09,1.09,0,0,1,.33-.8,1.17,1.17,0,0,1,.79-.35,1.09,1.09,0,0,1,.8.35,1.16,1.16,0,0,1,.32.81,1.14,1.14,0,0,1-1.12,1.12,1.08,1.08,0,0,1-.8-.34A1.12,1.12,0,0,1,53.44,95Zm2.15,3.47V108c0,.54-.34.81-1,.81s-1-.27-1-.81V98.47c0-.54.34-.81,1-.81S55.59,97.93,55.59,98.47Z"/><path class="cls-1" d="M67.07,96.39c0-.49.35-.73,1-.73s1,.25,1,.76v4.87c0,1.44-.37,2.39-1.09,2.84a7.07,7.07,0,0,1-3.62.69,17.15,17.15,0,0,1-3.38-.21v1.78h4.2a4.66,4.66,0,0,1,3.19.81,3.8,3.8,0,0,1,.83,2.76,2.9,2.9,0,0,1-1.12,2.65,7.76,7.76,0,0,1-4,.73,8.89,8.89,0,0,1-4-.65A2.79,2.79,0,0,1,59,110v-9a3.85,3.85,0,0,1,.63-2.51,3.5,3.5,0,0,1,2.44-.88,19.52,19.52,0,0,1,5,.24Zm-6,4.85c0,.83.16,1.33.46,1.5a5.5,5.5,0,0,0,2.22.26,10.22,10.22,0,0,0,2.39-.18,1.14,1.14,0,0,0,.79-.56,3.38,3.38,0,0,0,.16-1.25V99.65a24.48,24.48,0,0,0-3.28-.24,4.63,4.63,0,0,0-2.12.34,1.49,1.49,0,0,0-.62,1.4Zm0,7v1.91a1.12,1.12,0,0,0,.74,1.09,6.76,6.76,0,0,0,2.43.32,5.16,5.16,0,0,0,2.27-.34,1.38,1.38,0,0,0,.58-1.31,1.42,1.42,0,0,0-.55-1.31,4,4,0,0,0-2-.36Z"/><path class="cls-1" d="M80.44,106.82c.47,0,.7.29.7.86a.92.92,0,0,1-.7,1,18,18,0,0,1-3.74.27,6.47,6.47,0,0,1-3.77-.85,3.42,3.42,0,0,1-1.14-2.87v-4.21a3.27,3.27,0,0,1,1-2.84,7.11,7.11,0,0,1,3.85-.73,7.13,7.13,0,0,1,3.81.7c.66.46,1,1.42,1,2.87v1.82a1.33,1.33,0,0,1-.3.88,1,1,0,0,1-.78.31H73.85v1.35c0,1.13,1,1.69,3,1.68a16.59,16.59,0,0,0,2.24-.13A12.32,12.32,0,0,1,80.44,106.82Zm-6.59-5.76v1.18H79.4v-1.18a1.44,1.44,0,0,0-.56-1.34,4.56,4.56,0,0,0-2.19-.35,5,5,0,0,0-2.2.33A1.45,1.45,0,0,0,73.85,101.06Z"/><path class="cls-1" d="M84.92,110.78v-3.41a1,1,0,0,1,.3-.73.93.93,0,0,1,.73-.3,1,1,0,0,1,.73.31.94.94,0,0,1,.3.72v3.41a1,1,0,0,1-.31.73,1.12,1.12,0,0,1-.74.28,1,1,0,0,1-1-1Z"/><path class="cls-1" d="M10.65,121.82v8.87l5.14-5.19a1.06,1.06,0,0,1,.77-.35,1,1,0,0,1,.72.29.88.88,0,0,1,.29.67,1.1,1.1,0,0,1-.37.77l-3,2.76,3.66,5.11a1.18,1.18,0,0,1,.23.68.87.87,0,0,1-.33.68,1.07,1.07,0,0,1-.76.31.77.77,0,0,1-.68-.37l-3.59-5L10.65,133v2.62c0,.54-.34.81-1,.81s-1-.27-1-.81V121.82c0-.55.36-.83,1-.83S10.65,121.27,10.65,121.82Z"/><path class="cls-1" d="M21.15,127.27c-.48,0-.72-.29-.72-.85a.94.94,0,0,1,.72-1,16.17,16.17,0,0,1,3.73-.3c1.74,0,2.91.28,3.53.83a3.75,3.75,0,0,1,.93,2.9v4.43c0,1.39-.34,2.29-1,2.71a8.12,8.12,0,0,1-3.87.63,7.87,7.87,0,0,1-3.84-.63c-.65-.42-1-1.32-1-2.69a4.09,4.09,0,0,1,.74-2.84c.5-.53,1.53-.79,3.07-.78h3.81v-1.19a1.27,1.27,0,0,0-.53-1.17,3.9,3.9,0,0,0-1.87-.31,15.9,15.9,0,0,0-2.35.15A8.05,8.05,0,0,1,21.15,127.27Zm6.12,6.14v-1.95H24.08a4.1,4.1,0,0,0-1.93.29c-.29.2-.44.64-.44,1.33s.19,1.14.55,1.33a5.61,5.61,0,0,0,2.2.28,6.77,6.77,0,0,0,2.22-.24A1,1,0,0,0,27.27,133.41Z"/><path class="cls-1" d="M32.52,140.08v-9.34a13.54,13.54,0,0,1,.25-2.94,3.27,3.27,0,0,1,.91-1.71,3.35,3.35,0,0,1,1.52-.81,11.53,11.53,0,0,1,2.4-.2,11.78,11.78,0,0,1,2.41.2,3.39,3.39,0,0,1,1.55.8,3.14,3.14,0,0,1,.91,1.71,15.41,15.41,0,0,1,.23,3,13.84,13.84,0,0,1-.25,3A3.2,3.2,0,0,1,40,136.37a12.59,12.59,0,0,1-2.66.21,7,7,0,0,1-2.77-.45v4c0,.53-.34.8-1,.8S32.52,140.62,32.52,140.08Zm7.87-6.69a6,6,0,0,0,.25-2.06c0-1,0-1.77-.08-2.35a3.08,3.08,0,0,0-.58-1.53c-.24-.32-1-.48-2.38-.48s-2.15.16-2.39.48a3,3,0,0,0-.59,1.56,16.07,16.07,0,0,0-.08,1.73c0,.6,0,1.09.05,1.49s.09.75.14,1.05a2,2,0,0,0,.71,1.13,1.42,1.42,0,0,0,.92.28q.64,0,1.29,0c.44,0,.77,0,1,0a4.07,4.07,0,0,0,.76-.12,1,1,0,0,0,.59-.35A6.34,6.34,0,0,0,40.39,133.39Z"/><path class="cls-1" d="M46.9,127.27c-.48,0-.72-.29-.72-.85a.94.94,0,0,1,.72-1,16.17,16.17,0,0,1,3.73-.3c1.74,0,2.91.28,3.53.83a3.75,3.75,0,0,1,.93,2.9v4.43c0,1.39-.34,2.29-1,2.71a8.12,8.12,0,0,1-3.87.63,7.87,7.87,0,0,1-3.84-.63c-.65-.42-1-1.32-1-2.69a4.14,4.14,0,0,1,.74-2.84c.51-.53,1.53-.79,3.07-.78H53v-1.19a1.25,1.25,0,0,0-.53-1.17,3.9,3.9,0,0,0-1.87-.31,15.9,15.9,0,0,0-2.35.15A8,8,0,0,1,46.9,127.27ZM53,133.41v-1.95H49.83a4.1,4.1,0,0,0-1.93.29c-.29.2-.44.64-.44,1.33s.19,1.14.55,1.33a5.64,5.64,0,0,0,2.2.28,6.77,6.77,0,0,0,2.22-.24A1,1,0,0,0,53,133.41Z"/><path class="cls-1" d="M58.27,130.93v-9.11c0-.55.35-.83,1-.83s1,.28,1,.83v3.71a7,7,0,0,1,2.77-.45,11.83,11.83,0,0,1,2.66.22,3.28,3.28,0,0,1,1.56.88,3.62,3.62,0,0,1,.89,1.77,14.81,14.81,0,0,1,.24,3,14.57,14.57,0,0,1-.23,3,3.07,3.07,0,0,1-.9,1.7,3.51,3.51,0,0,1-1.56.79,11.71,11.71,0,0,1-2.41.2,11.54,11.54,0,0,1-2.39-.19,3.19,3.19,0,0,1-1.53-.8,3.38,3.38,0,0,1-.91-1.72A13.54,13.54,0,0,1,58.27,130.93Zm8.12.47c0-1,0-1.78-.08-2.36a3.2,3.2,0,0,0-.58-1.58c-.22-.33-1-.49-2.38-.49a4.28,4.28,0,0,0-2.16.31,1.85,1.85,0,0,0-.69,1,12.51,12.51,0,0,0-.21,2.32,20.65,20.65,0,0,0,.08,2.07,2.92,2.92,0,0,0,.59,1.53,1.85,1.85,0,0,0,1.37.46q.33,0,1,0t1,0a4,4,0,0,0,.77-.12,1,1,0,0,0,.59-.33,5,5,0,0,0,.41-.8A5.78,5.78,0,0,0,66.39,131.4Z"/><path class="cls-1" d="M73.72,121.82v13.77c0,.54-.34.81-1,.81s-1-.27-1-.81V121.82c0-.55.35-.83,1-.83S73.72,121.27,73.72,121.82Z"/><path class="cls-1" d="M85.67,134.42c.47,0,.71.29.71.86a.93.93,0,0,1-.71,1,17.9,17.9,0,0,1-3.74.27,6.43,6.43,0,0,1-3.76-.85A3.39,3.39,0,0,1,77,132.86v-4.21a3.27,3.27,0,0,1,1-2.84,7.09,7.09,0,0,1,3.85-.73,7.06,7.06,0,0,1,3.8.7c.66.46,1,1.42,1,2.87v1.82a1.28,1.28,0,0,1-.3.88,1,1,0,0,1-.78.31H79.09V133c0,1.13,1,1.69,3,1.68a16.85,16.85,0,0,0,2.25-.13A12.42,12.42,0,0,1,85.67,134.42Zm-6.58-5.76v1.18h5.55v-1.18a1.44,1.44,0,0,0-.57-1.34,4.56,4.56,0,0,0-2.19-.35,5,5,0,0,0-2.2.33A1.44,1.44,0,0,0,79.09,128.66Z"/><path class="cls-1" d="M8.52,158.53a14.07,14.07,0,0,1,.25-3,3.21,3.21,0,0,1,2.44-2.65,10.51,10.51,0,0,1,2.41-.22,10.42,10.42,0,0,1,2.4.22,3.2,3.2,0,0,1,1.56.88,3.64,3.64,0,0,1,.91,1.77,14.59,14.59,0,0,1,.25,3,14.49,14.49,0,0,1-.25,3,3.22,3.22,0,0,1-.92,1.7A3.44,3.44,0,0,1,16,164a11.6,11.6,0,0,1-2.4.2,11.71,11.71,0,0,1-2.4-.19,3.33,3.33,0,0,1-1.56-.8,3,3,0,0,1-.9-1.72A14.31,14.31,0,0,1,8.52,158.53Zm2.31-2.63a5.78,5.78,0,0,0-.25,2.06c0,1,0,1.75.08,2.33a2.86,2.86,0,0,0,.58,1.52,1.83,1.83,0,0,0,1.35.46c.22,0,.57,0,1,0,1.35,0,2.14-.16,2.38-.48a3.09,3.09,0,0,0,.59-1.53c.05-.55.08-1.13.08-1.74,0-1.78-.17-2.86-.5-3.24a3.32,3.32,0,0,0-.4-.42,2.72,2.72,0,0,0-1.61-.31c-.83,0-1.36,0-1.58,0a1.74,1.74,0,0,0-1.34.47A5.48,5.48,0,0,0,10.83,155.9Z"/><path class="cls-1" d="M29.8,151.59c0-.49.34-.73,1-.73s1,.25,1,.76v4.87c0,1.44-.36,2.39-1.09,2.84a7,7,0,0,1-3.62.69,17,17,0,0,1-3.37-.21v1.78H28a4.69,4.69,0,0,1,3.2.81,3.84,3.84,0,0,1,.83,2.76,2.92,2.92,0,0,1-1.12,2.65,7.78,7.78,0,0,1-4,.73,8.87,8.87,0,0,1-4-.65,2.81,2.81,0,0,1-1.17-2.67v-9a3.79,3.79,0,0,1,.64-2.51,3.45,3.45,0,0,1,2.43-.88,19.62,19.62,0,0,1,5,.24Zm-6,4.85c0,.83.16,1.33.46,1.5a5.44,5.44,0,0,0,2.22.27,10.11,10.11,0,0,0,2.39-.19,1.11,1.11,0,0,0,.79-.56,3.38,3.38,0,0,0,.16-1.25v-1.36a24.63,24.63,0,0,0-3.29-.24,4.66,4.66,0,0,0-2.12.34,1.48,1.48,0,0,0-.61,1.4Zm0,7v1.91a1.1,1.1,0,0,0,.74,1.09,6.76,6.76,0,0,0,2.43.32,5.1,5.1,0,0,0,2.26-.34,1.39,1.39,0,0,0,.59-1.31,1.43,1.43,0,0,0-.56-1.31,4,4,0,0,0-2-.36Z"/><path class="cls-1" d="M42.38,149.42v13.77c0,.54-.35.81-1,.81s-1-.27-1-.81V149.42c0-.55.34-.83,1-.83S42.38,148.87,42.38,149.42Z"/><path class="cls-1" d="M54.33,162c.47,0,.7.29.7.86a.92.92,0,0,1-.7,1,18,18,0,0,1-3.74.27,6.39,6.39,0,0,1-3.77-.85,3.42,3.42,0,0,1-1.14-2.87v-4.21a3.27,3.27,0,0,1,1-2.84,7.11,7.11,0,0,1,3.85-.73,7.13,7.13,0,0,1,3.81.7c.66.46,1,1.42,1,2.87v1.82a1.29,1.29,0,0,1-.31.88,1,1,0,0,1-.77.31H47.74v1.35c0,1.13,1,1.69,3,1.68a16.59,16.59,0,0,0,2.24-.13A12.32,12.32,0,0,1,54.33,162Zm-6.59-5.76v1.18h5.55v-1.18a1.46,1.46,0,0,0-.56-1.34,4.56,4.56,0,0,0-2.19-.35,5,5,0,0,0-2.2.33A1.45,1.45,0,0,0,47.74,156.26Z"/><path class="cls-1" d="M62.31,164a2.91,2.91,0,0,1-2.19-.67A3.42,3.42,0,0,1,59.5,161v-6.33H58.05c-.46,0-.69-.3-.69-.91s.23-.91.69-.91H59.5V150c0-.54.35-.81,1-.81s1,.27,1,.81v2.92H64.5c.46,0,.7.3.7.91s-.24.91-.7.91H61.57v6.48c0,.63.37.94,1.12.94l2-.11c.48,0,.71.28.71.83a1.05,1.05,0,0,1-.74,1.1C64.13,164,63.36,164,62.31,164Z"/><path class="cls-1" d="M70.88,164a2.88,2.88,0,0,1-2.19-.67,3.42,3.42,0,0,1-.62-2.31v-6.33H66.62c-.46,0-.69-.3-.69-.91s.23-.91.69-.91h1.45V150c0-.54.35-.81,1-.81s1,.27,1,.81v2.92h2.93c.46,0,.7.3.7.91s-.24.91-.7.91H70.14v6.48c0,.63.37.94,1.12.94l1.95-.11c.48,0,.72.28.72.83a1.05,1.05,0,0,1-.74,1.1C72.7,164,71.93,164,70.88,164Z"/><path class="cls-1" d="M84.61,162c.48,0,.71.29.71.86a.92.92,0,0,1-.71,1,17.83,17.83,0,0,1-3.74.27,6.38,6.38,0,0,1-3.76-.85A3.39,3.39,0,0,1,76,160.46v-4.21a3.27,3.27,0,0,1,1-2.84,7.11,7.11,0,0,1,3.85-.73,7.13,7.13,0,0,1,3.81.7c.66.46,1,1.42,1,2.87v1.82a1.29,1.29,0,0,1-.31.88,1,1,0,0,1-.77.31H78v1.35c0,1.13,1,1.69,3,1.68a16.8,16.8,0,0,0,2.24-.13A12.42,12.42,0,0,1,84.61,162ZM78,156.26v1.18h5.55v-1.18a1.46,1.46,0,0,0-.56-1.34,4.56,4.56,0,0,0-2.19-.35,5,5,0,0,0-2.2.33A1.45,1.45,0,0,0,78,156.26Z"/><path class="cls-1" d="M9.77,182.47c-.48,0-.71-.29-.71-.85a.93.93,0,0,1,.71-1,16.23,16.23,0,0,1,3.73-.3c1.74,0,2.92.28,3.53.83A3.75,3.75,0,0,1,18,184v4.43c0,1.39-.34,2.29-1,2.71a8.14,8.14,0,0,1-3.88.63,7.72,7.72,0,0,1-3.82-.63c-.64-.42-1-1.32-1-2.69A4.14,4.14,0,0,1,9,185.62q.76-.8,3.06-.78h3.8v-1.19a1.27,1.27,0,0,0-.52-1.17,4,4,0,0,0-1.88-.31,16,16,0,0,0-2.35.15A7.86,7.86,0,0,1,9.77,182.47Zm6.12,6.14v-2H12.71a4.08,4.08,0,0,0-1.92.29c-.29.2-.43.64-.43,1.33s.18,1.14.54,1.33a5.55,5.55,0,0,0,2.19.28,6.66,6.66,0,0,0,2.21-.24A1,1,0,0,0,15.89,188.61Zm-4-9.5a2.06,2.06,0,0,1-.61-1.51,2.13,2.13,0,0,1,3.64-1.52,2.06,2.06,0,0,1,.63,1.52,2,2,0,0,1-.63,1.51,2.16,2.16,0,0,1-3,0Zm.6-1.51a.91.91,0,0,0,.93.92.85.85,0,0,0,.64-.27.94.94,0,0,0,.27-.67.89.89,0,0,0-.27-.65.86.86,0,0,0-.65-.27.9.9,0,0,0-.66.27A.86.86,0,0,0,12.48,177.6Z"/><path class="cls-1" d="M25.9,196.08h-.81c-.47,0-.71-.31-.71-.94s.24-.95.71-.95h.79a1,1,0,0,0,.67-.23.86.86,0,0,0,.32-.71v-12c0-.54.34-.81,1-.81s1,.27,1,.81v11.84a3.48,3.48,0,0,1-.6,2.31A3.37,3.37,0,0,1,25.9,196.08Zm.88-18.28a1.09,1.09,0,0,1,.33-.8,1.17,1.17,0,0,1,.79-.35,1.09,1.09,0,0,1,.8.35,1.2,1.2,0,0,1,.32.81,1.14,1.14,0,0,1-1.12,1.12,1.08,1.08,0,0,1-.8-.34A1.12,1.12,0,0,1,26.78,177.8Z"/><path class="cls-1" d="M32.23,186.13a14,14,0,0,1,.26-3,3.21,3.21,0,0,1,2.44-2.65,10.51,10.51,0,0,1,2.41-.22,10.42,10.42,0,0,1,2.4.22,3.29,3.29,0,0,1,1.56.88,3.55,3.55,0,0,1,.9,1.77,17.71,17.71,0,0,1,0,5.93,3.09,3.09,0,0,1-.92,1.7,3.4,3.4,0,0,1-1.54.8,11.6,11.6,0,0,1-2.4.2,11.89,11.89,0,0,1-2.41-.19,3.35,3.35,0,0,1-1.55-.8,3,3,0,0,1-.9-1.72A14.2,14.2,0,0,1,32.23,186.13Zm2.32-2.63a5.78,5.78,0,0,0-.25,2.06c0,1,0,1.75.08,2.33a2.86,2.86,0,0,0,.58,1.52,1.83,1.83,0,0,0,1.35.46l1,0c1.34,0,2.14-.16,2.38-.48a3.09,3.09,0,0,0,.59-1.53c0-.56.08-1.13.08-1.74q0-2.67-.51-3.24a2.74,2.74,0,0,0-.39-.42,2.74,2.74,0,0,0-1.61-.31c-.83,0-1.36,0-1.58,0-.71,0-1.15.2-1.34.47A5.48,5.48,0,0,0,34.55,183.5Z"/><path class="cls-1" d="M45.43,186.13V177c0-.55.35-.83,1-.83s1,.28,1,.83v3.71a6.9,6.9,0,0,1,2.76-.45,11.93,11.93,0,0,1,2.67.22,3.17,3.17,0,0,1,1.55.88,3.62,3.62,0,0,1,.89,1.77,14,14,0,0,1,.25,3,14.46,14.46,0,0,1-.24,3,3,3,0,0,1-.9,1.7,3.51,3.51,0,0,1-1.56.79,11.71,11.71,0,0,1-2.41.2,11.54,11.54,0,0,1-2.39-.19,3.16,3.16,0,0,1-1.52-.8,3.23,3.23,0,0,1-.91-1.72A13.44,13.44,0,0,1,45.43,186.13Zm8.12.47c0-1,0-1.78-.08-2.36a3.18,3.18,0,0,0-.57-1.58c-.23-.33-1-.49-2.39-.49a4.33,4.33,0,0,0-2.16.31,1.78,1.78,0,0,0-.68,1,11.63,11.63,0,0,0-.22,2.32c0,.8,0,1.49.08,2.07a2.85,2.85,0,0,0,.6,1.53,1.82,1.82,0,0,0,1.36.46q.33,0,1,0c.46,0,.8,0,1,0a4,4,0,0,0,.76-.12,1,1,0,0,0,.6-.33,5.22,5.22,0,0,0,.4-.8A5.55,5.55,0,0,0,53.55,186.6Z"/><path class="cls-1" d="M58.63,186.13V177c0-.55.35-.83,1-.83s1,.28,1,.83v3.71a7,7,0,0,1,2.77-.45,11.83,11.83,0,0,1,2.66.22,3.2,3.2,0,0,1,1.56.88,3.62,3.62,0,0,1,.89,1.77,14.81,14.81,0,0,1,.24,3,14.57,14.57,0,0,1-.23,3,3.07,3.07,0,0,1-.9,1.7,3.51,3.51,0,0,1-1.56.79,11.78,11.78,0,0,1-2.41.2,11.54,11.54,0,0,1-2.39-.19,3.19,3.19,0,0,1-1.53-.8,3.38,3.38,0,0,1-.91-1.72A13.54,13.54,0,0,1,58.63,186.13Zm8.12.47c0-1,0-1.78-.08-2.36a3.3,3.3,0,0,0-.58-1.58c-.22-.33-1-.49-2.38-.49a4.28,4.28,0,0,0-2.16.31,1.85,1.85,0,0,0-.69,1,12.43,12.43,0,0,0-.21,2.32c0,.8,0,1.49.08,2.07a2.92,2.92,0,0,0,.59,1.53,1.84,1.84,0,0,0,1.36.46c.23,0,.57,0,1,0s.8,0,1,0a4,4,0,0,0,.77-.12,1,1,0,0,0,.59-.33,5,5,0,0,0,.41-.8A5.78,5.78,0,0,0,66.75,186.6Z"/><path class="cls-1" d="M80.38,189.62c.47,0,.71.29.71.86a.93.93,0,0,1-.71,1,17.9,17.9,0,0,1-3.74.27,6.36,6.36,0,0,1-3.76-.85,3.39,3.39,0,0,1-1.15-2.87v-4.21a3.27,3.27,0,0,1,1-2.84,7.09,7.09,0,0,1,3.85-.73,7.13,7.13,0,0,1,3.81.7c.65.46,1,1.42,1,2.87v1.82a1.28,1.28,0,0,1-.3.88,1,1,0,0,1-.78.31H73.8v1.35c0,1.13,1,1.69,3,1.68a16.85,16.85,0,0,0,2.25-.13A12.42,12.42,0,0,1,80.38,189.62Zm-6.58-5.76V185h5.55v-1.18a1.46,1.46,0,0,0-.56-1.34,4.61,4.61,0,0,0-2.19-.35,5,5,0,0,0-2.21.33A1.43,1.43,0,0,0,73.8,183.86Z"/><path class="cls-1" d="M101.57,182.17c-.62,0-1.07,0-1.33,0a1.21,1.21,0,0,0-.72.34,1.15,1.15,0,0,0-.37.76,13,13,0,0,0-.06,1.47v6c0,.54-.34.81-1,.81s-1-.27-1-.81v-6.32c0-1.05-.14-1.7-.41-1.94a2.86,2.86,0,0,0-1.73-.36c-.87,0-1.43,0-1.69,0a1.1,1.1,0,0,0-.71.37,1.39,1.39,0,0,0-.34.84c0,.33,0,.88,0,1.63v5.74q0,.81-1,.81c-.69,0-1-.27-1-.81v-6a7.54,7.54,0,0,1,.52-3.31,2.54,2.54,0,0,1,2.17-1.12c.43-.05,1-.07,1.84-.08,1.79,0,3,.21,3.5.64.54-.42,1.7-.63,3.49-.64a17.18,17.18,0,0,1,1.83.07,2.55,2.55,0,0,1,2.14,1.06,7.5,7.5,0,0,1,.57,3.38v6c0,.54-.35.81-1,.81s-1-.27-1-.81v-5.74a15.42,15.42,0,0,0-.06-1.63,1.44,1.44,0,0,0-.33-.84,1.17,1.17,0,0,0-.71-.37C102.65,182.18,102.2,182.17,101.57,182.17Z"/><path class="cls-1" d="M117.86,189.62c.47,0,.7.29.7.86a.92.92,0,0,1-.7,1,18,18,0,0,1-3.74.27,6.39,6.39,0,0,1-3.77-.85,3.42,3.42,0,0,1-1.14-2.87v-4.21a3.27,3.27,0,0,1,1-2.84,7.11,7.11,0,0,1,3.85-.73,7.13,7.13,0,0,1,3.81.7c.66.46,1,1.42,1,2.87v1.82a1.29,1.29,0,0,1-.31.88,1,1,0,0,1-.77.31h-6.54v1.35c0,1.13,1,1.69,3,1.68a16.59,16.59,0,0,0,2.24-.13A12.32,12.32,0,0,1,117.86,189.62Zm-6.59-5.76V185h5.55v-1.18a1.44,1.44,0,0,0-.56-1.34,4.56,4.56,0,0,0-2.19-.35,5,5,0,0,0-2.2.33A1.44,1.44,0,0,0,111.27,183.86Z"/><path class="cls-1" d="M132.07,177v9.11a14.31,14.31,0,0,1-.24,2.94,3.2,3.2,0,0,1-.91,1.71,3.37,3.37,0,0,1-1.53.8,11.43,11.43,0,0,1-2.39.2,11.71,11.71,0,0,1-2.4-.19,3.25,3.25,0,0,1-1.55-.8,3.11,3.11,0,0,1-.91-1.72,15.88,15.88,0,0,1-.24-2.94,14.07,14.07,0,0,1,.25-3,3.22,3.22,0,0,1,2.45-2.65,11.73,11.73,0,0,1,2.65-.22,6.93,6.93,0,0,1,2.76.45V177c0-.55.34-.83,1-.83S132.07,176.47,132.07,177Zm-7.86,6.48a6.09,6.09,0,0,0-.24,2.06c0,1,0,1.75.07,2.33a2.87,2.87,0,0,0,.59,1.52,1.78,1.78,0,0,0,1.34.46l1,0c1.35,0,2.14-.16,2.38-.48a3,3,0,0,0,.59-1.53,16.26,16.26,0,0,0,.08-1.74c0-1.78-.17-2.86-.5-3.24a3.34,3.34,0,0,0-.39-.42,2.78,2.78,0,0,0-1.62-.31c-.83,0-1.36,0-1.58,0-.7,0-1.15.2-1.33.47A5.32,5.32,0,0,0,124.21,183.5Z"/></svg>