<?xml version="1.0" encoding="utf-8"?>
<!-- Generator: Adobe Illustrator 19.2.0, SVG Export Plug-In . SVG Version: 6.00 Build 0)  -->
<svg version="1.1" id="Lager_1" xmlns="http://www.w3.org/2000/svg" xmlns:xlink="http://www.w3.org/1999/xlink" x="0px" y="0px"
	 viewBox="0 0 553 502" enable-background="new 0 0 553 502" xml:space="preserve">
<g>
	<polygon fill="#D90000" points="183.607,292.291 275.89,190.413 275.89,292.291 	"/>
	<polygon fill="#D90000" points="91.324,292.291 183.607,292.291 91.324,190.413 	"/>
	<polygon fill="#D90000" points="368.291,190.413 460.574,292.291 460.574,190.413 	"/>
	<polygon fill="#D90000" points="275.89,88.653 275.89,190.413 368.291,292.173 368.291,190.413 368.291,190.413 368.291,88.653 	
		"/>
	<g>
		<path fill="#D90000" d="M128.285,371.78c-3.791,0-7.7,1.777-10.188,4.739c-2.488-3.08-5.686-4.739-9.714-4.739
			c-2.606,0-5.212,1.066-7.463,2.843v-3.08h-9.596v37.79h9.596v-18.006c0-7.582,1.658-10.662,5.805-10.662
			c3.317,0,4.502,2.606,4.502,9.359v19.309h9.596v-18.006c0-6.397,0.948-10.662,5.805-10.662c2.369,0,4.62,0.948,4.62,8.174v20.494
			h9.596v-21.56C140.96,374.505,134.09,371.78,128.285,371.78"/>
		<path fill="#D90000" d="M169.392,401.159c-5.449,0-9.832-4.502-9.832-10.069s4.383-10.069,9.832-10.069
			c5.449,0,9.832,4.502,9.832,10.069C179.224,396.657,174.722,401.159,169.392,401.159 M169.392,371.78
			c-10.899,0-19.428,8.529-19.428,19.428c0,10.899,8.529,19.428,19.428,19.428c10.899,0,19.428-8.529,19.428-19.428
			S180.29,371.78,169.392,371.78"/>
		<polygon fill="#D90000" points="219.62,372.728 210.972,390.26 202.443,372.728 191.663,372.728 210.972,411.347 230.4,372.728 		
			"/>
		<path fill="#D90000" d="M301.004,371.78c-3.199,0-6.279,1.066-8.648,2.962v-30.563h-9.596v65.155h9.596v-16.94
			c0-8.174,0.948-11.728,6.634-11.728c4.857,0,5.805,2.132,5.805,7.937v20.731h9.596v-21.56
			C314.391,377.23,309.889,371.78,301.004,371.78"/>
		<path fill="#D90000" d="M343.296,401.159c-5.449,0-9.832-4.502-9.832-10.069s4.383-10.069,9.832-10.069
			c5.449,0,9.832,4.502,9.832,10.069C353.128,396.657,348.745,401.159,343.296,401.159 M343.296,371.78
			c-10.899,0-19.428,8.529-19.428,19.428c0,10.899,8.529,19.428,19.428,19.428c10.899,0,19.428-8.529,19.428-19.428
			C362.724,380.31,354.194,371.78,343.296,371.78"/>
		<path fill="#D90000" d="M408.095,371.78c-3.791,0-7.7,1.777-10.188,4.739c-2.488-3.08-5.686-4.739-9.714-4.739
			c-2.606,0-5.212,1.066-7.345,2.843v-3.08h-9.596v37.79h9.596v-18.006c0-7.582,1.658-10.662,5.805-10.662
			c3.317,0,4.502,2.606,4.502,9.359v19.309h9.596v-18.006c0-6.397,0.948-10.662,5.805-10.662c2.369,0,4.62,0.948,4.62,8.174v20.494
			h9.596v-21.56C420.771,374.505,413.9,371.78,408.095,371.78"/>
		<path fill="#D90000" d="M448.491,380.547c3.317,0,7.226,1.895,8.648,5.805h-17.414
			C440.554,382.679,445.174,380.547,448.491,380.547 M457.494,397.368c-3.08,3.435-5.212,4.383-8.766,4.383
			c-4.975,0-9.003-4.028-9.832-8.055h28.076v-0.118c0.592-14.689-8.055-21.916-18.48-21.916c-10.78,0-19.073,7.819-19.073,19.546
			c0,10.899,8.885,19.191,19.309,19.191c5.923,0,12.202-2.606,15.874-8.766L457.494,397.368"/>
		<path fill="#D90000" d="M252.908,380.547c3.317,0,7.226,1.895,8.648,5.805h-17.533
			C245.09,382.679,249.591,380.547,252.908,380.547 M262.03,397.368c-3.08,3.435-5.212,4.383-8.766,4.383
			c-4.975,0-9.003-4.028-9.832-8.055h28.076v-0.118c0.592-14.689-8.055-21.916-18.48-21.916c-10.78,0-19.073,7.819-19.073,19.546
			c0,10.899,8.885,19.191,19.31,19.191c5.923,0,12.202-2.606,15.874-8.766L262.03,397.368"/>
	</g>
</g>
</svg>
