<svg id="Layer_1" data-name="Layer 1" xmlns="http://www.w3.org/2000/svg" viewBox="0 0 300 600"><defs><style>.cls-1{fill:#d5ad77;}</style></defs><title>text</title><path class="cls-1" d="M114.35,253.52l-4.83-12.37h1.94l3.71,9.5,3.71-9.5h1.91L116,253.52Z"/><path class="cls-1" d="M124.19,253.52V241.15h1.73v12.37Z"/><path class="cls-1" d="M137.68,253.52V241.15h6.75v1.65h-5v3.89h4.45v1.65h-4.45v5.18Z"/><path class="cls-1" d="M148.27,253.52V241.15H150v12.37Z"/><path class="cls-1" d="M155.07,253.52V241.15h4.59a3.87,3.87,0,0,1,2.79,1.08,3.73,3.73,0,0,1,1.12,2.79,3.68,3.68,0,0,1-.93,2.58,3.6,3.6,0,0,1-2.36,1.21l3.58,4.71h-2.13l-3.55-4.72H156.8v4.72Zm4.36-10.72H156.8v4.46h2.62a2.51,2.51,0,0,0,1.75-.61,2.25,2.25,0,0,0,0-3.21A2.42,2.42,0,0,0,159.43,242.8Z"/><path class="cls-1" d="M166.42,253.52l5-12.37h1.56l4.87,12.37H175.9l-.74-1.9h-6.07l-.76,1.9Zm5.74-9.53-2.4,6h4.75Z"/><path class="cls-1" d="M181.25,253.52V241.15h4.59a3.83,3.83,0,0,1,2.78,1.08,4.06,4.06,0,0,1,.2,5.37,3.64,3.64,0,0,1-2.37,1.21l3.58,4.71H187.9l-3.55-4.72H183v4.72Zm4.36-10.72H183v4.46h2.61a2.49,2.49,0,0,0,1.75-.61,2.22,2.22,0,0,0,0-3.21A2.4,2.4,0,0,0,185.61,242.8Z"/><path class="cls-1" d="M107.66,274.52v-1.09l4.94-6.53a2.45,2.45,0,0,0,.69-1.56,1.76,1.76,0,0,0-.54-1.32,1.91,1.91,0,0,0-1.39-.54,1.73,1.73,0,0,0-1.36.6,2.36,2.36,0,0,0-.57,1.56H107.7a3.66,3.66,0,0,1,1-2.62,3.48,3.48,0,0,1,2.63-1.08,3.73,3.73,0,0,1,2.63,1,3.23,3.23,0,0,1,1,2.43,4.46,4.46,0,0,1-1.3,2.74l-3.86,4.9h5.32v1.54Z"/><path class="cls-1" d="M122.54,274.71a4.2,4.2,0,0,1-2.49-.76,3.72,3.72,0,0,1-1.47-2l1.56-.6a2.49,2.49,0,0,0,2.4,1.72A2.41,2.41,0,0,0,125,270.6a2.34,2.34,0,0,0-.72-1.74,2.46,2.46,0,0,0-1.75-.69,2.3,2.3,0,0,0-1.75.75h-1.73v-6.77H126v1.65h-5.2v3.32a3.23,3.23,0,0,1,1.75-.49,4.17,4.17,0,0,1,3,1.13,3.82,3.82,0,0,1,1.16,2.84,3.94,3.94,0,0,1-1.22,2.9A4.1,4.1,0,0,1,122.54,274.71Z"/><path class="cls-1" d="M136.09,274.52l5-12.37h1.57l4.87,12.37h-1.91l-.75-1.9h-6.06l-.77,1.9Zm5.74-9.53-2.4,6h4.75Zm1.19-3.68a1.69,1.69,0,1,1,.49-1.19A1.59,1.59,0,0,1,143,261.31Zm-1.19-.5a.62.62,0,0,0,.47-.21.65.65,0,0,0,.2-.48.64.64,0,0,0-.2-.49.65.65,0,0,0-.47-.2.7.7,0,0,0-.49.2.68.68,0,0,0-.2.49.69.69,0,0,0,.2.48A.67.67,0,0,0,141.83,260.81Z"/><path class="cls-1" d="M150.92,274.52V262.15h4.59a3.83,3.83,0,0,1,2.78,1.08,4,4,0,0,1,.2,5.37,3.64,3.64,0,0,1-2.37,1.21l3.58,4.71h-2.12L154,269.8h-1.38v4.72Zm4.36-10.72h-2.63v4.46h2.61a2.49,2.49,0,0,0,1.75-.61,2.23,2.23,0,0,0,0-3.21A2.42,2.42,0,0,0,155.28,263.8Z"/><path class="cls-1" d="M169.08,274.52l5-12.37h1.56l4.87,12.37h-1.91l-.75-1.9h-6.06l-.77,1.9Zm5.74-9.53-2.4,6h4.75Z"/><path class="cls-1" d="M186.39,274.52l-4.83-12.37h1.94l3.71,9.5,3.71-9.5h1.91L188,274.52Z"/><path class="cls-1" d="M86,295.52v-5.36H80v5.36H78.25V283.15H80v5.36h6v-5.36h1.73v12.37Z"/><path class="cls-1" d="M97.09,295.73a4.29,4.29,0,0,1-3.23-1.3,4.48,4.48,0,0,1-1.26-3.26v-8h1.73v7.91a3.15,3.15,0,0,0,.74,2.16,2.52,2.52,0,0,0,2,.86,2.57,2.57,0,0,0,2-.84,3.12,3.12,0,0,0,.75-2.16v-7.93h1.73v8a4.48,4.48,0,0,1-1.26,3.26A4.33,4.33,0,0,1,97.09,295.73Z"/><path class="cls-1" d="M109.74,295.68a5.76,5.76,0,0,1-2.31-.5,6,6,0,0,1-2-1.33l1.22-1.4a4.7,4.7,0,0,0,1.42,1.13,3.64,3.64,0,0,0,1.71.45,2.37,2.37,0,0,0,1.6-.52,1.67,1.67,0,0,0,.62-1.32,2.17,2.17,0,0,0-1.56-2l-1.46-.58a5,5,0,0,1-2-1.33,2.91,2.91,0,0,1-.66-1.95,3.12,3.12,0,0,1,1-2.34,3.54,3.54,0,0,1,2.52-1,5,5,0,0,1,3.59,1.37l-1,1.39a3.41,3.41,0,0,0-2.55-1.11,2,2,0,0,0-1.31.43,1.42,1.42,0,0,0-.5,1.14,1.36,1.36,0,0,0,.37,1,3.41,3.41,0,0,0,1.25.77l1.49.59q2.7,1.1,2.6,3.54a3.4,3.4,0,0,1-1.09,2.6A4.18,4.18,0,0,1,109.74,295.68Z"/><path class="cls-1" d="M118,295.52V283.15h3.31a6.23,6.23,0,0,1,4.33,10.61,6.05,6.05,0,0,1-4.39,1.76Zm3.38-10.72h-1.65v9.07h1.7a4,4,0,0,0,3-1.32,4.57,4.57,0,0,0,1.24-3.24,4.42,4.42,0,0,0-1.28-3.21A4.1,4.1,0,0,0,121.39,284.8Z"/><path class="cls-1" d="M131.7,295.52V283.15h4.59a3.87,3.87,0,0,1,2.79,1.08,4,4,0,0,1,.19,5.37,3.6,3.6,0,0,1-2.36,1.21l3.58,4.71h-2.13l-3.55-4.72h-1.38v4.72Zm4.36-10.72h-2.63v4.46h2.62a2.49,2.49,0,0,0,1.75-.61,2.25,2.25,0,0,0,0-3.21A2.4,2.4,0,0,0,136.06,284.8Z"/><path class="cls-1" d="M150.11,295.74a6.09,6.09,0,0,1-4.46-1.83,6.66,6.66,0,0,1,0-9.17,6.33,6.33,0,0,1,8.91,0,6.59,6.59,0,0,1,0,9.16A6.1,6.1,0,0,1,150.11,295.74Zm-3.24-3a4.47,4.47,0,0,0,6.48,0,4.95,4.95,0,0,0,0-6.76,4.46,4.46,0,0,0-6.47,0,5,5,0,0,0,0,6.76ZM149,281.84a.8.8,0,0,1-.61.27.78.78,0,0,1-.61-.27,1,1,0,0,1-.25-.67.93.93,0,0,1,.25-.67.75.75,0,0,1,.61-.28.78.78,0,0,1,.61.28.94.94,0,0,1,.26.67A1,1,0,0,1,149,281.84Zm3.43,0a.79.79,0,0,1-.61.27.81.81,0,0,1-.62-.27,1,1,0,0,1-.25-.67,1,1,0,0,1,.25-.67.79.79,0,0,1,.62-.28.77.77,0,0,1,.61.28.93.93,0,0,1,.25.67A1,1,0,0,1,152.38,281.84Z"/><path class="cls-1" d="M160.74,295.52V283.15h1.78l4,6.59,4.05-6.59h1.7v12.37h-1.73v-9.14l-.06,0-4,6.39-3.9-6.3h-.11v9.08Z"/><path class="cls-1" d="M177.34,295.52V283.15h1.77l4,6.59,4-6.59h1.7v12.37h-1.73v-9.14l-.05,0-4,6.39-3.91-6.3h-.11v9.08Z"/><path class="cls-1" d="M192.36,295.52l5-12.37h1.56l4.87,12.37h-1.91l-.75-1.9H195l-.77,1.9ZM198.1,286l-2.4,6h4.75Z"/><path class="cls-1" d="M207.19,295.52V283.15h4.59a3.87,3.87,0,0,1,2.79,1.08,3.73,3.73,0,0,1,1.12,2.79,3.68,3.68,0,0,1-.93,2.58,3.6,3.6,0,0,1-2.36,1.21l3.58,4.71h-2.13l-3.55-4.72h-1.38v4.72Zm4.36-10.72h-2.63v4.46h2.62a2.51,2.51,0,0,0,1.75-.61,2.25,2.25,0,0,0,0-3.21A2.42,2.42,0,0,0,211.55,284.8Z"/></svg>