<svg id="Layer_1" data-name="Layer 1" xmlns="http://www.w3.org/2000/svg" viewBox="0 0 160 600"><defs><style>.cls-1{fill:#d80201;}</style></defs><title>text</title><path class="cls-1" d="M28.39,270.09a8,8,0,0,1-8.22,6.4,8.75,8.75,0,0,1-9.1-9,8.9,8.9,0,0,1,9.2-9.1,8.28,8.28,0,0,1,7.44,4.08L24.78,264a5.09,5.09,0,0,0-4.52-2.57,5.73,5.73,0,0,0-5.69,6,5.67,5.67,0,0,0,5.69,6,4.29,4.29,0,0,0,4.52-3.69H20.7v-2.91h8v.42A15,15,0,0,1,28.39,270.09Z"/><path class="cls-1" d="M31.28,276.1V256.62h3.15V276.1Z"/><path class="cls-1" d="M43.29,276.46c-3.59,0-6.45-2.24-6.45-6s2.86-6,6.47-6,6.4,2.26,6.4,6S46.85,276.46,43.29,276.46Zm-2.73-13.73a1.87,1.87,0,1,1,0-3.74,1.87,1.87,0,1,1,0,3.74Zm2.7,4.58a3.16,3.16,0,1,0,3.2,3.17A3.18,3.18,0,0,0,43.26,267.31Zm2.7-4.58a1.9,1.9,0,0,1-1.87-1.87A1.87,1.87,0,1,1,46,262.73Z"/><path class="cls-1" d="M66.51,276.1v-6.16c0-1.33-.21-2.78-1.87-2.78-1.85,0-2.16,1.69-2.16,3.17v5.77H59.33v-6a5,5,0,0,0-.23-1.87,1.82,1.82,0,0,0-1.69-1.09,2.05,2.05,0,0,0-1.77,1,4.68,4.68,0,0,0-.36,2.16v5.77H52.13V264.84h3.15v1.27a4.32,4.32,0,0,1,3.43-1.64,3.83,3.83,0,0,1,3.51,2.05,4.16,4.16,0,0,1,3.69-2.05,3.7,3.7,0,0,1,3.15,1.61,5,5,0,0,1,.6,2.73v7.28Z"/><path class="cls-1" d="M75.84,267.54v8.55H72.69v-8.55H71.45v-2.7h1.25V261h3.15v3.85H78v2.7Z"/><path class="cls-1" d="M94.79,276.1v-1.48a4.35,4.35,0,0,1-3.67,1.85c-3.38,0-5.54-2.81-5.54-6s2.16-6,5.46-6a4.69,4.69,0,0,1,3.74,1.79v-1.43H98V276.1ZM92,267.31a3.16,3.16,0,1,0,3.15,3.15A3.14,3.14,0,0,0,92,267.31Z"/><path class="cls-1" d="M104.15,267.54v8.55H101v-8.55H99.76v-2.7H101V261h3.15v3.85h2.21v2.7Z"/><path class="cls-1" d="M111.17,267.54v8.55H108v-8.55h-1.25v-2.7H108V261h3.15v3.85h2.21v2.7Z"/><path class="cls-1" d="M14.71,298.74v8.55H11.57v-8.55H10.35V296h1.22v-3.61a5.5,5.5,0,0,1,.49-2.65,4.46,4.46,0,0,1,3.9-2.26,3.72,3.72,0,0,1,1.66.39v2.89a3.14,3.14,0,0,0-1.43-.42c-1.4,0-1.48,1.46-1.48,2.52V296h2.91v2.7Z"/><path class="cls-1" d="M24.93,307.66c-3.59,0-6.45-2.24-6.45-6s2.86-6,6.47-6,6.4,2.26,6.4,6S28.5,307.66,24.93,307.66Zm0-9.15a3.16,3.16,0,1,0,3.2,3.17A3.18,3.18,0,0,0,24.91,298.51Z"/><path class="cls-1" d="M41.13,298.9a2.79,2.79,0,0,0-1.51-.39c-2.13,0-2.7,1.51-2.7,3.38v5.41H33.77V296h3.15v1.69a3.67,3.67,0,0,1,4.65-1.79Z"/><path class="cls-1" d="M57.51,307.3v-6.16c0-1.33-.21-2.78-1.87-2.78-1.85,0-2.16,1.69-2.16,3.17v5.77H50.33v-6a5,5,0,0,0-.23-1.87,1.82,1.82,0,0,0-1.69-1.09,2.05,2.05,0,0,0-1.77,1,4.68,4.68,0,0,0-.36,2.16v5.77H43.13V296h3.15v1.27a4.32,4.32,0,0,1,3.43-1.64,3.83,3.83,0,0,1,3.51,2.05,4.16,4.16,0,0,1,3.69-2.05,3.7,3.7,0,0,1,3.15,1.61,5,5,0,0,1,.6,2.73v7.28Z"/><path class="cls-1" d="M72.28,307.3v-1.48a4.35,4.35,0,0,1-3.67,1.85c-3.38,0-5.54-2.81-5.54-6s2.16-6,5.46-6a4.69,4.69,0,0,1,3.74,1.79V296h3.17V307.3Zm-2.81-8.79a3.16,3.16,0,1,0,3.15,3.15A3.14,3.14,0,0,0,69.47,298.51Z"/><path class="cls-1" d="M92.69,307.3l-4.24-4.84-.34.34v4.5H85V287.82h3.15v12.32L92.32,296h4.26L91.31,301,97,307.3Z"/><path class="cls-1" d="M98.41,307.3V287.82h3.15V307.3Z"/><path class="cls-1" d="M113.18,307.3v-1.48a4.35,4.35,0,0,1-3.67,1.85c-3.38,0-5.54-2.81-5.54-6s2.16-6,5.46-6a4.69,4.69,0,0,1,3.74,1.79V296h3.17V307.3Zm-2.81-8.79a3.16,3.16,0,1,0,3.15,3.15A3.14,3.14,0,0,0,110.37,298.51Z"/><path class="cls-1" d="M126.72,298.9a2.79,2.79,0,0,0-1.51-.39c-2.13,0-2.7,1.51-2.7,3.38v5.41h-3.15V296h3.15v1.69a3.67,3.67,0,0,1,4.65-1.79Z"/><path class="cls-1" d="M132.47,298.74v8.55h-3.15v-8.55h-1.25V296h1.25v-3.85h3.15V296h2.21v2.7Z"/><path class="cls-1" d="M20.07,338.5V337a4.35,4.35,0,0,1-3.67,1.85c-3.38,0-5.54-2.81-5.54-6s2.16-6,5.46-6a4.69,4.69,0,0,1,3.74,1.79V319h3.17V338.5Zm-2.81-8.79a3.16,3.16,0,1,0,3.15,3.15A3.14,3.14,0,0,0,17.26,329.71Z"/><path class="cls-1" d="M27.79,324.38a1.9,1.9,0,0,1,0-3.8,1.9,1.9,0,0,1,0,3.8ZM26.21,338.5V327.24h3.15V338.5Z"/><path class="cls-1" d="M35.49,329.94v8.55H32.34v-8.55H31.09v-2.7h1.25v-3.85h3.15v3.85H37.7v2.7Z"/><path class="cls-1" d="M42.51,329.94v8.55H39.36v-8.55H38.11v-2.7h1.25v-3.85h3.15v3.85h2.21v2.7Z"/><path class="cls-1" d="M60.55,338.5v-6.24c0-1.53-.34-2.7-2.13-2.7-2,0-2.42,1.43-2.42,3.12v5.82H52.86V327.24H56v1.38a4.15,4.15,0,0,1,3.54-1.74,3.89,3.89,0,0,1,4.16,4.47v7.15Z"/><path class="cls-1" d="M69.42,344.53H65.86L70,336.81l-5.33-9.57h3.67l3.38,6.4,3.22-6.4h3.59Z"/><path class="cls-1" d="M88,338.5V337a4.35,4.35,0,0,1-3.67,1.85c-3.38,0-5.54-2.81-5.54-6s2.16-6,5.46-6A4.69,4.69,0,0,1,88,328.67v-1.43h3.17V338.5Zm-2.81-8.79a3.16,3.16,0,1,0,3.15,3.15A3.14,3.14,0,0,0,85.23,329.71Z"/><path class="cls-1" d="M108.42,338.5v-6.16c0-1.56-.34-2.78-2.16-2.78s-2.39,1.51-2.39,3.17v5.77h-3.15V319h3.15v9.67a4.1,4.1,0,0,1,3.54-1.82,4.31,4.31,0,0,1,3.28,1.38,4.46,4.46,0,0,1,.88,3.17v7.07Z"/><path class="cls-1" d="M120,338.86c-3.09,0-5.43-1.38-5.43-4.73v-6.89h3.15v6.37c0,1.53.65,2.57,2.29,2.57s2.29-1,2.29-2.57v-6.37h3.17v6.89C125.47,337.48,123.11,338.86,120,338.86Z"/><path class="cls-1" d="M132.08,338.86a6,6,0,0,1-4.29-1.87l1.66-1.92a3.66,3.66,0,0,0,2.65,1.33,1.33,1.33,0,0,0,1.43-1.25c0-1.92-5-1-5-4.76,0-2.29,1.9-3.56,4-3.56a5.8,5.8,0,0,1,3.67,1.2l-1.56,1.85a3.14,3.14,0,0,0-1.87-.75c-.55,0-1.2.34-1.2,1,0,1.64,5.2.91,5.2,4.76C136.78,337.46,134.5,338.86,132.08,338.86Z"/><path class="cls-1" d="M144.87,330.49v2.21h-3.2v-4.58a5.15,5.15,0,0,0,.91.1c1.59,0,3.28-.81,3.28-2.6a2,2,0,0,0-2-2,1.84,1.84,0,0,0-1.87,1.85c0,.1,0,.21,0,.31h-3.38v-.31c0-2.83,2.65-4.65,5.3-4.65a5,5,0,0,1,5.25,4.89C149.19,328.33,147.26,329.92,144.87,330.49Zm-1.53,8.35a2,2,0,1,1,2-2A2,2,0,0,1,143.33,338.83Z"/></svg>