<svg id="Layer_1" data-name="Layer 1" xmlns="http://www.w3.org/2000/svg" viewBox="0 0 160 600"><defs><style>.cls-1{fill:#fff;}</style></defs><title>text</title><path class="cls-1" d="M25.84,49.66V64.12c0,.59-.38.88-1.13.88s-1.11-.29-1.11-.88V57.5H15.75v6.62c0,.59-.38.88-1.12.88s-1.13-.29-1.13-.88V49.66c0-.61.38-.91,1.13-.91s1.12.3,1.12.91v5.79H23.6V49.66c0-.61.37-.91,1.11-.91S25.84,49.05,25.84,49.66Z"/><path class="cls-1" d="M34.67,65.12a1.91,1.91,0,0,1-1.2-.4,2.26,2.26,0,0,1-.75-1l-3.54-9.54a4,4,0,0,0-.09-.4c0-.59.36-.87,1.09-.87a1.05,1.05,0,0,1,1.1.65L34.62,63h.12l3.36-9.4c.16-.43.57-.65,1.21-.65s1,.29,1,.87c0,0,0,.15-.07.4l-3.55,9.54a2.09,2.09,0,0,1-.76,1A2,2,0,0,1,34.67,65.12Z"/><path class="cls-1" d="M42.42,59.06a14.78,14.78,0,0,1,.28-3.24,3.47,3.47,0,0,1,2.65-2.88A11.62,11.62,0,0,1,48,52.7a11.46,11.46,0,0,1,2.61.24,3.52,3.52,0,0,1,1.69,1,3.91,3.91,0,0,1,1,1.92A15.49,15.49,0,0,1,53.53,59a15.25,15.25,0,0,1-.27,3.22,3.46,3.46,0,0,1-1,1.85,3.76,3.76,0,0,1-1.68.87A12.66,12.66,0,0,1,48,65.2,13,13,0,0,1,45.35,65a3.62,3.62,0,0,1-1.68-.87,3.28,3.28,0,0,1-1-1.87A15,15,0,0,1,42.42,59.06Zm2.52-2.86a6.36,6.36,0,0,0-.27,2.23c0,1.06,0,1.91.08,2.54a3.07,3.07,0,0,0,.64,1.65,2,2,0,0,0,1.46.5c.24,0,.62,0,1.12,0,1.46,0,2.32-.17,2.58-.52A3.34,3.34,0,0,0,51.2,61c0-.61.08-1.24.08-1.89,0-1.94-.18-3.12-.55-3.53a3.14,3.14,0,0,0-.42-.45,3,3,0,0,0-1.76-.34c-.9,0-1.47,0-1.71,0-.77,0-1.25.22-1.45.52A4.45,4.45,0,0,0,44.94,56.2Z"/><path class="cls-1" d="M59,57.9v6.22c0,.59-.37.88-1.12.88s-1.12-.29-1.13-.88V57.6a7.86,7.86,0,0,1,.4-3.11,4.1,4.1,0,0,1,.75-1.06c.53-.49,1.87-.73,4-.73a7.24,7.24,0,0,1,2.17.21.8.8,0,0,1,.55.8,1.1,1.1,0,0,1-.31.86,1,1,0,0,1-.76.29l-1.65-.11a8.06,8.06,0,0,0-1.92.14,1.74,1.74,0,0,0-.56.29,1.92,1.92,0,0,0-.27.56,2.86,2.86,0,0,0-.16.88C59,56.92,59,57.35,59,57.9Z"/><path class="cls-1" d="M77.52,49.16v9.9a15,15,0,0,1-.27,3.19,3.48,3.48,0,0,1-1,1.86A3.64,3.64,0,0,1,74.6,65a12.49,12.49,0,0,1-2.6.22A12.91,12.91,0,0,1,69.39,65a3.65,3.65,0,0,1-1.69-.87,3.4,3.4,0,0,1-1-1.87,15.81,15.81,0,0,1-.26-3.19,15.53,15.53,0,0,1,.27-3.24,3.48,3.48,0,0,1,2.66-2.88,13,13,0,0,1,2.88-.24,7.44,7.44,0,0,1,3,.49v-4c0-.6.37-.9,1.12-.9S77.52,48.55,77.52,49.16ZM69,56.2a6.36,6.36,0,0,0-.27,2.23c0,1.06,0,1.91.09,2.54a3.06,3.06,0,0,0,.63,1.65,2,2,0,0,0,1.46.5c.25,0,.62,0,1.12,0,1.47,0,2.33-.17,2.59-.52A3.33,3.33,0,0,0,75.23,61q.09-.91.09-1.89c0-1.94-.18-3.12-.55-3.53a3.15,3.15,0,0,0-.43-.45,2.93,2.93,0,0,0-1.75-.34c-.9,0-1.47,0-1.72,0-.76,0-1.25.22-1.45.52A5.83,5.83,0,0,0,69,56.2Z"/><path class="cls-1" d="M82.19,55.08q-.78,0-.78-.93A1,1,0,0,1,82.19,53a18.09,18.09,0,0,1,4-.32q2.83,0,3.84.9a4.09,4.09,0,0,1,1,3.15v4.82c0,1.51-.37,2.49-1.1,2.94a8.7,8.7,0,0,1-4.2.69q-3.12,0-4.17-.69c-.71-.45-1.06-1.43-1.06-2.93a4.52,4.52,0,0,1,.8-3.08c.55-.58,1.66-.86,3.34-.85h4.14V56.36a1.38,1.38,0,0,0-.57-1.27,4.22,4.22,0,0,0-2-.34,15.83,15.83,0,0,0-2.55.17A11.4,11.4,0,0,1,82.19,55.08Zm6.65,6.67V59.63H85.37a4.24,4.24,0,0,0-2.09.32q-.48.31-.48,1.44c0,.75.2,1.24.6,1.45a6.21,6.21,0,0,0,2.39.3,7.18,7.18,0,0,0,2.41-.26A1.11,1.11,0,0,0,88.84,61.75Z"/><path class="cls-1" d="M97.21,55.17c-.28.29-.42,1.19-.42,2.71v6.24c0,.59-.37.88-1.12.88s-1.12-.29-1.13-.88V57.6a13.15,13.15,0,0,1,.22-2.68,2.42,2.42,0,0,1,.88-1.47,3.33,3.33,0,0,1,1.54-.62A22.07,22.07,0,0,1,100,52.7c2.1,0,3.43.24,4,.76a3.35,3.35,0,0,1,1,2.2A18,18,0,0,1,105,57.6v6.52c0,.59-.37.88-1.12.88s-1.12-.29-1.12-.88V57.88c0-1.5-.15-2.4-.43-2.69s-1.14-.44-2.57-.44S97.48,54.89,97.21,55.17Z"/><path class="cls-1" d="M12.65,89.06a15.53,15.53,0,0,1,.27-3.24,3.49,3.49,0,0,1,2.66-2.88,11.56,11.56,0,0,1,2.62-.24,11.31,11.31,0,0,1,2.6.24,3.55,3.55,0,0,1,1.7,1,3.9,3.9,0,0,1,1,1.92A14.74,14.74,0,0,1,23.76,89a14.52,14.52,0,0,1-.28,3.22,3.39,3.39,0,0,1-1,1.85A3.66,3.66,0,0,1,20.8,95a12.62,12.62,0,0,1-2.6.22A13,13,0,0,1,15.58,95a3.65,3.65,0,0,1-1.69-.87,3.4,3.4,0,0,1-1-1.87A15.81,15.81,0,0,1,12.65,89.06Zm2.51-2.86a6.36,6.36,0,0,0-.27,2.23c0,1.06,0,1.91.09,2.54a3.14,3.14,0,0,0,.63,1.65,2,2,0,0,0,1.47.5c.24,0,.61,0,1.12,0,1.46,0,2.32-.17,2.58-.52A3.33,3.33,0,0,0,21.42,91q.09-.92.09-1.89c0-1.94-.18-3.12-.55-3.53a3.14,3.14,0,0,0-.42-.45,3,3,0,0,0-1.76-.34c-.9,0-1.47,0-1.72,0-.76,0-1.24.22-1.45.52A5.83,5.83,0,0,0,15.16,86.2Z"/><path class="cls-1" d="M27,99V88.85a14.38,14.38,0,0,1,.28-3.2,3.62,3.62,0,0,1,1-1.86,3.47,3.47,0,0,1,1.65-.87,11.93,11.93,0,0,1,2.61-.22,12.16,12.16,0,0,1,2.62.22,3.68,3.68,0,0,1,1.69.86,3.47,3.47,0,0,1,1,1.87,16,16,0,0,1,.25,3.21,15.42,15.42,0,0,1-.27,3.23A3.47,3.47,0,0,1,35.14,95a13.08,13.08,0,0,1-2.89.24,7.64,7.64,0,0,1-3-.49V99c0,.58-.38.87-1.12.87S27,99.59,27,99Zm8.56-7.27a6.38,6.38,0,0,0,.27-2.24q0-1.62-.09-2.55a3.2,3.2,0,0,0-.62-1.66c-.26-.36-1.13-.53-2.6-.53s-2.33.17-2.59.53A3.24,3.24,0,0,0,29.27,87c-.05.61-.08,1.24-.08,1.89s0,1.19.06,1.62.09.82.15,1.14a2.14,2.14,0,0,0,.77,1.23,1.51,1.51,0,0,0,1,.3q.69,0,1.41,0c.47,0,.82,0,1.06,0a4.74,4.74,0,0,0,.82-.13,1,1,0,0,0,.65-.38A7.61,7.61,0,0,0,35.55,91.73Z"/><path class="cls-1" d="M41.33,99V88.85a15,15,0,0,1,.28-3.2,3.62,3.62,0,0,1,1-1.86,3.46,3.46,0,0,1,1.66-.87,11.83,11.83,0,0,1,2.6-.22,12.16,12.16,0,0,1,2.62.22,3.63,3.63,0,0,1,1.69.86,3.34,3.34,0,0,1,1,1.87,15.89,15.89,0,0,1,.26,3.21,15.32,15.32,0,0,1-.28,3.23A3.45,3.45,0,0,1,49.48,95a13.08,13.08,0,0,1-2.89.24,7.67,7.67,0,0,1-3-.49V99c0,.58-.37.87-1.12.87S41.34,99.59,41.33,99Zm8.56-7.27a6.38,6.38,0,0,0,.27-2.24q0-1.62-.09-2.55a3.12,3.12,0,0,0-.62-1.66c-.26-.36-1.12-.53-2.59-.53s-2.33.17-2.59.53A3.16,3.16,0,0,0,43.62,87q-.09.92-.09,1.89t.06,1.62q.06.66.15,1.14a2.19,2.19,0,0,0,.77,1.23,1.53,1.53,0,0,0,1,.3q.7,0,1.41,0c.47,0,.83,0,1.06,0A4.74,4.74,0,0,0,48.8,93a1,1,0,0,0,.65-.38A7.61,7.61,0,0,0,49.89,91.73Z"/><path class="cls-1" d="M58.34,85.17c-.28.29-.42,1.19-.42,2.71v6.24c0,.59-.37.88-1.11.88s-1.12-.29-1.13-.88V87.6a12.46,12.46,0,0,1,.22-2.68,2.38,2.38,0,0,1,.88-1.47,3.29,3.29,0,0,1,1.53-.62,22.26,22.26,0,0,1,2.78-.13c2.1,0,3.42.24,4,.76a3.3,3.3,0,0,1,1,2.2,17.69,17.69,0,0,1,.09,1.94v6.52c0,.59-.38.88-1.13.88s-1.12-.29-1.12-.88V87.88c0-1.5-.14-2.4-.43-2.69s-1.14-.44-2.57-.44S58.62,84.89,58.34,85.17Z"/><path class="cls-1" d="M70.89,85.08q-.78,0-.78-.93A1,1,0,0,1,70.89,83a18,18,0,0,1,4-.32c1.89,0,3.17.3,3.83.9a4,4,0,0,1,1,3.15v4.82c0,1.51-.37,2.49-1.1,2.94a8.8,8.8,0,0,1-4.22.69c-2.08,0-3.46-.23-4.16-.69s-1-1.43-1-2.93a4.52,4.52,0,0,1,.8-3.08c.55-.58,1.66-.86,3.33-.85h4.13V86.36A1.4,1.4,0,0,0,77,85.09a4.27,4.27,0,0,0-2-.34,15.66,15.66,0,0,0-2.55.17A11.57,11.57,0,0,1,70.89,85.08Zm6.65,6.67V89.63H74.08A4.21,4.21,0,0,0,72,90q-.48.31-.48,1.44c0,.75.2,1.24.59,1.45a6.22,6.22,0,0,0,2.38.3,7.14,7.14,0,0,0,2.41-.26A1.12,1.12,0,0,0,77.54,91.75ZM73.18,81.43a2.37,2.37,0,0,1,0-3.3,2.33,2.33,0,0,1,3.29,0,2.28,2.28,0,0,1,.68,1.65,2.25,2.25,0,0,1-.68,1.65,2.3,2.3,0,0,1-1.65.67A2.26,2.26,0,0,1,73.18,81.43Zm.65-1.65a1,1,0,0,0,.29.72,1,1,0,0,0,1.42,0,1,1,0,0,0,.29-.72,1,1,0,0,0-.29-.71,1,1,0,0,0-1.43,0A.9.9,0,0,0,73.83,79.78Z"/><path class="cls-1" d="M25.29,114.75c-.67,0-1.16,0-1.45,0a1.42,1.42,0,0,0-.78.37,1.29,1.29,0,0,0-.4.83,15.32,15.32,0,0,0-.06,1.59v6.54c0,.59-.38.88-1.13.88s-1.12-.29-1.12-.88v-6.87c0-1.15-.15-1.85-.45-2.11a3.08,3.08,0,0,0-1.87-.39c-1,0-1.57,0-1.85,0a1.22,1.22,0,0,0-.77.41,1.53,1.53,0,0,0-.37.9c0,.37,0,1,0,1.78v6.24c0,.59-.37.88-1.11.88s-1.13-.29-1.13-.88V117.6a8.19,8.19,0,0,1,.57-3.6,2.73,2.73,0,0,1,2.36-1.22,19.67,19.67,0,0,1,2-.08c1.93,0,3.2.23,3.79.7.59-.46,1.85-.7,3.8-.7.85,0,1.52,0,2,.07a2.8,2.8,0,0,1,2.33,1.16,8.18,8.18,0,0,1,.61,3.67v6.52c0,.59-.37.88-1.12.88s-1.12-.29-1.12-.88v-6.24a15.1,15.1,0,0,0-.07-1.78,1.52,1.52,0,0,0-.36-.9,1.25,1.25,0,0,0-.77-.41C26.47,114.76,26,114.75,25.29,114.75Z"/><path class="cls-1" d="M35,115.08q-.78,0-.78-.93A1,1,0,0,1,35,113a18,18,0,0,1,4-.32c1.89,0,3.17.3,3.83.9a4,4,0,0,1,1,3.15v4.82c0,1.51-.37,2.49-1.1,2.94a8.78,8.78,0,0,1-4.21.69,8.51,8.51,0,0,1-4.17-.69c-.71-.45-1.06-1.43-1.06-2.93a4.46,4.46,0,0,1,.81-3.08c.55-.58,1.66-.86,3.34-.85h4.14v-1.29a1.4,1.4,0,0,0-.57-1.27,4.27,4.27,0,0,0-2-.34,15.66,15.66,0,0,0-2.55.17A11.57,11.57,0,0,1,35,115.08Zm6.65,6.67v-2.12H38.17a4.31,4.31,0,0,0-2.1.32c-.31.21-.47.69-.47,1.44s.2,1.24.59,1.45a6.28,6.28,0,0,0,2.39.3,7.14,7.14,0,0,0,2.41-.26A1.11,1.11,0,0,0,41.64,121.75Z"/><path class="cls-1" d="M49.56,109.16v9.64l5.59-5.65a1.16,1.16,0,0,1,.83-.38,1,1,0,0,1,.78.32.92.92,0,0,1,.32.73,1.15,1.15,0,0,1-.4.83l-3.22,3,4,5.56a1.28,1.28,0,0,1,.24.74.94.94,0,0,1-.35.73,1.2,1.2,0,0,1-.83.34.84.84,0,0,1-.74-.4l-3.9-5.47-2.3,2.13v2.84c0,.59-.37.88-1.11.88s-1.13-.29-1.13-.88v-15c0-.61.38-.91,1.13-.91S49.56,108.55,49.56,109.16Z"/><path class="cls-1" d="M67.24,121.33V121a.92.92,0,0,0-.59-.86,5,5,0,0,0-2-.27,12.25,12.25,0,0,1-3.22-.45,2.6,2.6,0,0,1-1.46-1,3.22,3.22,0,0,1-.59-2v-.2a2.94,2.94,0,0,1,1.26-2.81,7.8,7.8,0,0,1,3.83-.73,16,16,0,0,1,3.81.33,1,1,0,0,1,.77,1.12c0,.62-.26.93-.77.93a13.83,13.83,0,0,1-1.58-.16,17.86,17.86,0,0,0-2.5-.17,6.17,6.17,0,0,0-1.95.22c-.42.15-.62.56-.62,1.23v.24c0,.88.92,1.35,2.78,1.41.77,0,1.55.1,2.33.2a3.51,3.51,0,0,1,2,.86,2.6,2.6,0,0,1,.8,2.09v.31a3.37,3.37,0,0,1-1.27,3.06,7.83,7.83,0,0,1-4.08.81,18.15,18.15,0,0,1-4-.32,1,1,0,0,1-.76-1.13c0-.61.25-.92.76-.92a16.79,16.79,0,0,1,1.77.16,22.81,22.81,0,0,0,2.57.15,5.3,5.3,0,0,0,2-.33A1.43,1.43,0,0,0,67.24,121.33Z"/><path class="cls-1" d="M72.71,110a1.2,1.2,0,0,1,.36-.87,1.26,1.26,0,0,1,.86-.38,1.16,1.16,0,0,1,.86.38,1.26,1.26,0,0,1,.36.88,1.13,1.13,0,0,1-.37.85,1.15,1.15,0,0,1-.85.37,1.16,1.16,0,0,1-.87-.37A1.17,1.17,0,0,1,72.71,110Zm2.34,3.77v10.35c0,.59-.37.88-1.12.88s-1.13-.29-1.13-.88V113.77c0-.59.38-.88,1.13-.88S75.05,113.18,75.05,113.77Z"/><path class="cls-1" d="M91.29,114.75c-.68,0-1.16,0-1.46,0a1.42,1.42,0,0,0-.78.37,1.29,1.29,0,0,0-.4.83,15.32,15.32,0,0,0-.06,1.59v6.54c0,.59-.38.88-1.13.88s-1.12-.29-1.12-.88v-6.87c0-1.15-.15-1.85-.45-2.11a3.08,3.08,0,0,0-1.87-.39c-1,0-1.56,0-1.85,0a1.25,1.25,0,0,0-.77.41,1.53,1.53,0,0,0-.37.9c0,.37,0,1,0,1.78v6.24c0,.59-.37.88-1.11.88s-1.13-.29-1.13-.88V117.6a8.19,8.19,0,0,1,.57-3.6,2.73,2.73,0,0,1,2.36-1.22,19.67,19.67,0,0,1,2-.08c1.93,0,3.2.23,3.79.7.59-.46,1.86-.7,3.8-.7.86,0,1.52,0,2,.07a2.8,2.8,0,0,1,2.33,1.16,8.18,8.18,0,0,1,.61,3.67v6.52c0,.59-.37.88-1.12.88s-1.12-.29-1.12-.88v-6.24c0-.82,0-1.41-.06-1.78a1.59,1.59,0,0,0-.37-.9,1.25,1.25,0,0,0-.77-.41C92.46,114.76,92,114.75,91.29,114.75Z"/><path class="cls-1" d="M101,115.08q-.78,0-.78-.93A1,1,0,0,1,101,113a18,18,0,0,1,4-.32c1.89,0,3.17.3,3.83.9a4,4,0,0,1,1,3.15v4.82c0,1.51-.37,2.49-1.1,2.94a8.75,8.75,0,0,1-4.21.69,8.51,8.51,0,0,1-4.17-.69c-.7-.45-1.06-1.43-1.06-2.93a4.46,4.46,0,0,1,.81-3.08c.55-.58,1.66-.86,3.34-.85h4.14v-1.29a1.4,1.4,0,0,0-.57-1.27,4.27,4.27,0,0,0-2-.34,15.66,15.66,0,0,0-2.55.17A11.57,11.57,0,0,1,101,115.08Zm6.65,6.67v-2.12h-3.47a4.31,4.31,0,0,0-2.1.32c-.31.21-.47.69-.47,1.44s.2,1.24.6,1.45a6.19,6.19,0,0,0,2.38.3,7.25,7.25,0,0,0,2.42-.26A1.12,1.12,0,0,0,107.63,121.75Z"/><path class="cls-1" d="M115.79,109.16v15c0,.59-.38.88-1.13.88s-1.12-.29-1.12-.88v-15c0-.61.37-.91,1.12-.91S115.79,108.55,115.79,109.16Z"/><path class="cls-1" d="M18.82,155h-6.1c-.51,0-.77-.33-.77-1s.26-1,.77-1h1.93V140.73H12.72c-.51,0-.77-.33-.77-1s.26-1,.77-1h6.1c.52,0,.77.33.77,1s-.25,1-.77,1H16.9V153h1.92c.52,0,.77.33.77,1S19.34,155,18.82,155Z"/><path class="cls-1" d="M27.1,154.12V140.8h-5c-.51,0-.77-.34-.77-1s.26-1,.77-1H34.38c.51,0,.77.34.77,1s-.26,1-.77,1h-5v13.32c0,.59-.38.88-1.13.88S27.1,154.71,27.1,154.12Z"/><path class="cls-1" d="M41.69,148.51h-7c-.52,0-.77-.35-.77-1s.25-1,.77-1h7c.51,0,.77.34.77,1S42.2,148.51,41.69,148.51Z"/><path class="cls-1" d="M52.26,151.33V151a.92.92,0,0,0-.59-.86,5,5,0,0,0-2-.27,12.32,12.32,0,0,1-3.23-.45,2.64,2.64,0,0,1-1.46-1,3.22,3.22,0,0,1-.59-2v-.2a2.94,2.94,0,0,1,1.26-2.81,7.8,7.8,0,0,1,3.83-.73,16,16,0,0,1,3.81.33,1,1,0,0,1,.77,1.12c0,.62-.26.93-.77.93a13.52,13.52,0,0,1-1.57-.16,18.12,18.12,0,0,0-2.51-.17,6.26,6.26,0,0,0-2,.22c-.41.15-.62.56-.62,1.23v.24c0,.88.93,1.35,2.78,1.41.77,0,1.55.1,2.33.2a3.51,3.51,0,0,1,2,.86,2.61,2.61,0,0,1,.81,2.09v.31a3.39,3.39,0,0,1-1.27,3.06,7.87,7.87,0,0,1-4.09.81,18,18,0,0,1-4-.32,1,1,0,0,1-.77-1.13c0-.61.25-.92.77-.92a17.25,17.25,0,0,1,1.77.16,22.63,22.63,0,0,0,2.56.15,5.3,5.3,0,0,0,2-.33A1.43,1.43,0,0,0,52.26,151.33Z"/><path class="cls-1" d="M57.73,140a1.2,1.2,0,0,1,.36-.87,1.26,1.26,0,0,1,.86-.38,1.2,1.2,0,0,1,.87.38,1.29,1.29,0,0,1,.35.88,1.13,1.13,0,0,1-.37.85,1.15,1.15,0,0,1-.85.37,1.19,1.19,0,0,1-.87-.37A1.21,1.21,0,0,1,57.73,140Zm2.34,3.77v10.35c0,.59-.37.88-1.12.88s-1.12-.29-1.12-.88V143.77c0-.59.37-.88,1.12-.88S60.07,143.18,60.07,143.77Z"/><path class="cls-1" d="M66,139.16v9.64l5.59-5.65a1.16,1.16,0,0,1,.83-.38,1,1,0,0,1,.78.32,1,1,0,0,1,.32.73,1.15,1.15,0,0,1-.4.83l-3.23,3,4,5.56a1.22,1.22,0,0,1,.25.74.92.92,0,0,1-.36.73,1.16,1.16,0,0,1-.83.34.83.83,0,0,1-.73-.4l-3.9-5.47L66,151.28v2.84c0,.59-.37.88-1.12.88s-1.12-.29-1.13-.88v-15c0-.61.39-.91,1.13-.91S66,138.55,66,139.16Z"/><path class="cls-1" d="M78.32,139.16v9.64l5.59-5.65a1.16,1.16,0,0,1,.83-.38,1,1,0,0,1,.78.32.92.92,0,0,1,.32.73,1.15,1.15,0,0,1-.4.83l-3.22,3,4,5.56a1.28,1.28,0,0,1,.24.74.94.94,0,0,1-.35.73,1.2,1.2,0,0,1-.83.34.84.84,0,0,1-.74-.4l-3.9-5.47-2.3,2.13v2.84c0,.59-.37.88-1.11.88s-1.13-.29-1.13-.88v-15c0-.61.38-.91,1.13-.91S78.32,138.55,78.32,139.16Z"/><path class="cls-1" d="M97.74,152.85c.52,0,.77.31.77.93a1,1,0,0,1-.77,1.12,19,19,0,0,1-4.06.3,6.91,6.91,0,0,1-4.09-.93,3.7,3.7,0,0,1-1.25-3.12v-4.57c0-1.53.38-2.56,1.13-3.09s2.14-.79,4.18-.79,3.43.25,4.14.75,1.08,1.55,1.08,3.13v2a1.43,1.43,0,0,1-.33,1,1.15,1.15,0,0,1-.85.34h-7.1v1.46q0,1.84,3.21,1.83a17.85,17.85,0,0,0,2.44-.14A12.93,12.93,0,0,1,97.74,152.85Zm-7.15-6.27v1.29h6v-1.29a1.57,1.57,0,0,0-.61-1.45,5,5,0,0,0-2.38-.38,5.57,5.57,0,0,0-2.39.35A1.57,1.57,0,0,0,90.59,146.58Z"/><path class="cls-1" d="M104.48,147.9v6.22c0,.59-.37.88-1.12.88s-1.12-.29-1.12-.88V147.6a7.67,7.67,0,0,1,.4-3.11,3.88,3.88,0,0,1,.74-1.06c.53-.49,1.87-.73,4-.73a7.19,7.19,0,0,1,2.17.21.8.8,0,0,1,.55.8,1.14,1.14,0,0,1-.3.86,1.09,1.09,0,0,1-.77.29l-1.65-.11a8.06,8.06,0,0,0-1.92.14,1.86,1.86,0,0,0-.56.29,1.92,1.92,0,0,0-.27.56,2.86,2.86,0,0,0-.16.88C104.49,146.92,104.48,147.35,104.48,147.9Z"/><path class="cls-1" d="M114.27,139.16V143a17.22,17.22,0,0,1,3.13-.32,12.69,12.69,0,0,1,2.36.17,2.81,2.81,0,0,1,2.49,2.25,13.11,13.11,0,0,1,.22,2.73v6.27c0,.59-.37.88-1.12.88s-1.12-.29-1.12-.88v-6a13.06,13.06,0,0,0-.1-1.9,1.49,1.49,0,0,0-.51-1,1.78,1.78,0,0,0-.88-.39,14.29,14.29,0,0,0-1.59-.06,20.7,20.7,0,0,0-2.88.25v9.12c0,.59-.37.88-1.12.88s-1.12-.29-1.12-.88v-15c0-.61.38-.91,1.12-.91S114.27,138.55,114.27,139.16Z"/><path class="cls-1" d="M135.67,152.85c.51,0,.77.31.77.93a1,1,0,0,1-.77,1.12,19,19,0,0,1-4.06.3,6.91,6.91,0,0,1-4.09-.93,3.67,3.67,0,0,1-1.25-3.12v-4.57c0-1.53.38-2.56,1.12-3.09s2.15-.79,4.19-.79,3.42.25,4.14.75,1.07,1.55,1.07,3.13v2a1.38,1.38,0,0,1-.33,1,1.11,1.11,0,0,1-.84.34h-7.1v1.46q0,1.84,3.21,1.83a18,18,0,0,0,2.44-.14A12.73,12.73,0,0,1,135.67,152.85Zm-7.15-6.27v1.29h6v-1.29a1.59,1.59,0,0,0-.61-1.45,5,5,0,0,0-2.38-.38,5.63,5.63,0,0,0-2.4.35A1.57,1.57,0,0,0,128.52,146.58Z"/><path class="cls-1" d="M144.35,155a3.14,3.14,0,0,1-2.38-.73,3.68,3.68,0,0,1-.67-2.51v-6.88h-1.58q-.75,0-.75-1t.75-1h1.58v-3.18c0-.58.37-.87,1.12-.87s1.12.29,1.12.87v3.18h3.19c.5,0,.76.33.76,1s-.26,1-.76,1h-3.19v7.05c0,.68.41,1,1.22,1l2.13-.12q.78,0,.78.9a1.17,1.17,0,0,1-.81,1.2C146.33,155,145.49,155,144.35,155Z"/><path class="cls-1" d="M16.13,172.78v.12H19.3c.51,0,.77.33.77,1s-.26,1-.77,1H16.13v9.24c0,.59-.38.88-1.13.88s-1.12-.29-1.12-.88v-9.24H12.27c-.51,0-.77-.33-.77-1s.26-1,.77-1h1.61v-.42c0-1.72.29-2.86.88-3.41a4.87,4.87,0,0,1,3.3-.82,6.82,6.82,0,0,1,2.17.22.78.78,0,0,1,.55.77,1.08,1.08,0,0,1-.31.85,1.12,1.12,0,0,1-.77.29l-1.64-.08a2.1,2.1,0,0,0-1.58.42A3.7,3.7,0,0,0,16.13,172.78Z"/><path class="cls-1" d="M22,179.06a14.78,14.78,0,0,1,.28-3.24,3.48,3.48,0,0,1,2.66-2.88,11.46,11.46,0,0,1,2.61-.24,11.46,11.46,0,0,1,2.61.24,3.52,3.52,0,0,1,1.69.95,3.91,3.91,0,0,1,1,1.92,15.49,15.49,0,0,1,.27,3.23,15.25,15.25,0,0,1-.27,3.22,3.46,3.46,0,0,1-1,1.85,3.76,3.76,0,0,1-1.68.87,12.66,12.66,0,0,1-2.61.22A12.77,12.77,0,0,1,24.9,185a3.65,3.65,0,0,1-1.69-.87,3.28,3.28,0,0,1-1-1.87A15,15,0,0,1,22,179.06Zm2.52-2.86a6.36,6.36,0,0,0-.27,2.23c0,1.06,0,1.91.08,2.54a3.07,3.07,0,0,0,.64,1.65,2,2,0,0,0,1.46.5c.24,0,.62,0,1.12,0,1.46,0,2.32-.17,2.58-.52a3.34,3.34,0,0,0,.65-1.66c.06-.61.08-1.24.08-1.89,0-1.94-.18-3.12-.54-3.53a3.82,3.82,0,0,0-.43-.45,3,3,0,0,0-1.76-.34c-.9,0-1.47,0-1.71,0-.77,0-1.25.22-1.45.52A5,5,0,0,0,24.48,176.2Z"/><path class="cls-1" d="M38.55,177.9v6.22c0,.59-.37.88-1.12.88s-1.12-.29-1.12-.88V177.6a7.67,7.67,0,0,1,.4-3.11,3.88,3.88,0,0,1,.74-1.06c.53-.49,1.87-.73,4-.73a7.19,7.19,0,0,1,2.17.21.8.8,0,0,1,.55.8,1.14,1.14,0,0,1-.3.86,1.09,1.09,0,0,1-.77.29l-1.65-.11a8.06,8.06,0,0,0-1.92.14,1.86,1.86,0,0,0-.56.29,1.92,1.92,0,0,0-.27.56,2.86,2.86,0,0,0-.16.88C38.56,176.92,38.55,177.35,38.55,177.9Z"/><path class="cls-1" d="M63.05,169.16v9.9a15,15,0,0,1-.27,3.19,3.48,3.48,0,0,1-1,1.86,3.66,3.66,0,0,1-1.65.87,12.55,12.55,0,0,1-2.6.22,13,13,0,0,1-2.62-.21,3.62,3.62,0,0,1-1.68-.87,3.28,3.28,0,0,1-1-1.87,16.46,16.46,0,0,1-.27-3.19,14.78,14.78,0,0,1,.28-3.24,3.47,3.47,0,0,1,2.65-2.88,13.08,13.08,0,0,1,2.89-.24,7.42,7.42,0,0,1,3,.49v-4c0-.6.38-.9,1.13-.9S63.05,168.55,63.05,169.16Zm-8.54,7a6.36,6.36,0,0,0-.27,2.23c0,1.06,0,1.91.08,2.54a3.07,3.07,0,0,0,.64,1.65,2,2,0,0,0,1.46.5c.24,0,.62,0,1.12,0,1.46,0,2.32-.17,2.58-.52a3.34,3.34,0,0,0,.65-1.66c.06-.61.08-1.24.08-1.89,0-1.94-.18-3.12-.54-3.53a3.82,3.82,0,0,0-.43-.45,3,3,0,0,0-1.76-.34c-.9,0-1.47,0-1.71,0-.77,0-1.25.22-1.45.52A4.45,4.45,0,0,0,54.51,176.2Z"/><path class="cls-1" d="M66.54,170a1.17,1.17,0,0,1,.37-.87,1.24,1.24,0,0,1,.85-.38,1.17,1.17,0,0,1,.87.38A1.25,1.25,0,0,1,69,170a1.21,1.21,0,0,1-2.08.85A1.18,1.18,0,0,1,66.54,170Zm2.35,3.77v10.35c0,.59-.38.88-1.13.88s-1.12-.29-1.12-.88V173.77c0-.59.37-.88,1.12-.88S68.89,173.18,68.89,173.77Z"/><path class="cls-1" d="M75.23,175.17c-.27.29-.41,1.19-.41,2.71v6.24c0,.59-.37.88-1.12.88s-1.12-.29-1.13-.88V177.6a13.15,13.15,0,0,1,.22-2.68,2.38,2.38,0,0,1,.88-1.47,3.33,3.33,0,0,1,1.54-.62A22.07,22.07,0,0,1,78,172.7c2.1,0,3.43.24,4,.76a3.35,3.35,0,0,1,1,2.2c0,.53.08,1.18.08,1.94v6.52c0,.59-.37.88-1.12.88s-1.12-.29-1.12-.88v-6.24c0-1.5-.15-2.4-.43-2.69s-1.14-.44-2.57-.44S75.51,174.89,75.23,175.17Z"/><path class="cls-1" d="M12.75,209.06v-9.9c0-.61.38-.91,1.13-.91s1.11.3,1.11.9v4a7.52,7.52,0,0,1,3-.49,13,13,0,0,1,2.89.24,3.43,3.43,0,0,1,1.69.95,3.88,3.88,0,0,1,1,1.93,15.53,15.53,0,0,1,.27,3.24,17.05,17.05,0,0,1-.25,3.22,3.33,3.33,0,0,1-1,1.84,3.94,3.94,0,0,1-1.69.86,12.84,12.84,0,0,1-2.62.22,12.6,12.6,0,0,1-2.6-.21A3.34,3.34,0,0,1,13,212.25,14.28,14.28,0,0,1,12.75,209.06Zm8.82.5c0-1.07,0-1.93-.08-2.56a3.49,3.49,0,0,0-.63-1.71c-.24-.36-1.11-.54-2.59-.54a4.66,4.66,0,0,0-2.35.34,2,2,0,0,0-.74,1.12,12.87,12.87,0,0,0-.24,2.51c0,.88,0,1.63.09,2.26a3.1,3.1,0,0,0,.65,1.66c.21.29.7.46,1.48.5q.36,0,1.11,0t1.11,0a4.7,4.7,0,0,0,.83-.13,1,1,0,0,0,.65-.36,4.78,4.78,0,0,0,.44-.87A6.14,6.14,0,0,0,21.57,209.56Z"/><path class="cls-1" d="M36.39,212.85c.51,0,.77.31.77.93a1,1,0,0,1-.77,1.12,19,19,0,0,1-4.06.3,6.91,6.91,0,0,1-4.09-.93A3.67,3.67,0,0,1,27,211.15v-4.57c0-1.53.38-2.56,1.12-3.09s2.15-.79,4.19-.79,3.42.25,4.14.75,1.07,1.55,1.07,3.13v2a1.33,1.33,0,0,1-.33,1,1.11,1.11,0,0,1-.84.34h-7.1v1.46q0,1.84,3.21,1.83a18,18,0,0,0,2.44-.14A12.73,12.73,0,0,1,36.39,212.85Zm-7.15-6.27v1.29h6v-1.29a1.59,1.59,0,0,0-.61-1.45,5,5,0,0,0-2.38-.38,5.63,5.63,0,0,0-2.4.35A1.59,1.59,0,0,0,29.24,206.58Z"/><path class="cls-1" d="M51.84,199.16v9.9a15.11,15.11,0,0,1-.26,3.19,3.48,3.48,0,0,1-1,1.86,3.69,3.69,0,0,1-1.66.87,12.55,12.55,0,0,1-2.6.22,12.91,12.91,0,0,1-2.61-.21,3.65,3.65,0,0,1-1.69-.87,3.34,3.34,0,0,1-1-1.87,15.81,15.81,0,0,1-.26-3.19,15.53,15.53,0,0,1,.27-3.24,3.48,3.48,0,0,1,2.66-2.88,12.91,12.91,0,0,1,2.88-.24,7.44,7.44,0,0,1,3,.49v-4c0-.6.37-.9,1.12-.9S51.84,198.55,51.84,199.16Zm-8.54,7a6.36,6.36,0,0,0-.27,2.23c0,1.06,0,1.91.09,2.54a3,3,0,0,0,.63,1.65,2,2,0,0,0,1.46.5c.25,0,.62,0,1.12,0,1.47,0,2.33-.17,2.59-.52a3.33,3.33,0,0,0,.64-1.66q.09-.92.09-1.89c0-1.94-.19-3.12-.55-3.53a3.82,3.82,0,0,0-.43-.45,3,3,0,0,0-1.75-.34c-.9,0-1.48,0-1.72,0-.76,0-1.25.22-1.45.52A5.83,5.83,0,0,0,43.3,206.2Z"/><path class="cls-1" d="M57.47,207.9v6.22c0,.59-.37.88-1.11.88s-1.13-.29-1.13-.88V207.6a7.67,7.67,0,0,1,.4-3.11,3.88,3.88,0,0,1,.74-1.06c.53-.49,1.87-.73,4-.73a7.19,7.19,0,0,1,2.17.21.8.8,0,0,1,.55.8,1.14,1.14,0,0,1-.3.86,1.09,1.09,0,0,1-.77.29l-1.65-.11a8.06,8.06,0,0,0-1.92.14,1.86,1.86,0,0,0-.56.29,1.92,1.92,0,0,0-.27.56,3.19,3.19,0,0,0-.16.88C57.48,206.92,57.47,207.35,57.47,207.9Z"/><path class="cls-1" d="M65.13,200a1.2,1.2,0,0,1,.36-.87,1.26,1.26,0,0,1,.86-.38,1.16,1.16,0,0,1,.86.38,1.26,1.26,0,0,1,.36.88,1.13,1.13,0,0,1-.37.85,1.15,1.15,0,0,1-.85.37,1.16,1.16,0,0,1-.87-.37A1.17,1.17,0,0,1,65.13,200Zm2.34,3.77v10.35c0,.59-.37.88-1.12.88s-1.13-.29-1.13-.88V203.77c0-.59.38-.88,1.13-.88S67.47,203.18,67.47,203.77Z"/><path class="cls-1" d="M74.54,202.78v.12h3.17c.51,0,.77.33.77,1s-.26,1-.77,1H74.54v9.24c0,.59-.38.88-1.13.88s-1.12-.29-1.12-.88v-9.24H70.68c-.51,0-.77-.33-.77-1s.26-1,.77-1h1.61v-.42c0-1.72.29-2.86.88-3.41a4.87,4.87,0,0,1,3.3-.82,6.82,6.82,0,0,1,2.17.22.77.77,0,0,1,.55.77,1.08,1.08,0,0,1-.31.85,1.1,1.1,0,0,1-.77.29l-1.64-.08a2.1,2.1,0,0,0-1.58.42A3.8,3.8,0,0,0,74.54,202.78Z"/><path class="cls-1" d="M84.66,215a3.14,3.14,0,0,1-2.38-.73,3.68,3.68,0,0,1-.67-2.51v-6.88H80c-.51,0-.76-.33-.76-1s.25-1,.76-1h1.58v-3.18c0-.58.37-.87,1.12-.87s1.12.29,1.12.87v3.18H87c.51,0,.76.33.76,1s-.25,1-.76,1H83.85v7.05c0,.68.41,1,1.22,1l2.13-.12q.78,0,.78.9a1.17,1.17,0,0,1-.81,1.2C86.63,215,85.8,215,84.66,215Z"/><path class="cls-1" d="M96.51,210.37v.24c0,.61-.37.92-1.12.92s-1.12-.31-1.13-.93v-.25a5.48,5.48,0,0,1,.35-2,3.06,3.06,0,0,1,.87-1.26,12.86,12.86,0,0,1,2.28-1.4,2,2,0,0,0,1.18-1.87c0-1.1-.18-1.78-.54-2.06a4,4,0,0,0-2.21-.42,28.9,28.9,0,0,0-3.06.16c-.94.11-1.55.16-1.83.16-.53,0-.8-.31-.8-.93a1,1,0,0,1,.79-1.12,20.23,20.23,0,0,1,4.39-.32c2.12,0,3.56.32,4.33.94s1.17,1.85,1.18,3.66a5.23,5.23,0,0,1-.34,2A2.36,2.36,0,0,1,100,207c-.34.21-.71.41-1.1.61s-.75.36-1.09.5a2.12,2.12,0,0,0-.91.79A2.63,2.63,0,0,0,96.51,210.37ZM94,213.79a1.49,1.49,0,0,1,.39-1,1.3,1.3,0,0,1,1-.42,1.52,1.52,0,0,1,1,.42,1.36,1.36,0,0,1,.47,1,1.29,1.29,0,0,1-.47,1,1.56,1.56,0,0,1-1,.41,1.32,1.32,0,0,1-1-.4A1.41,1.41,0,0,1,94,213.79Z"/></svg>