<svg id="Layer_1" data-name="Layer 1" xmlns="http://www.w3.org/2000/svg" viewBox="0 0 160 600"><defs><style>.cls-1{fill:#d80201;}.cls-2{fill:#fff;}</style></defs><title>text</title><rect class="cls-1" x="14.3" y="523.33" width="129.39" height="20.89" rx="10.44" ry="10.44"/><polygon class="cls-2" points="119.62 534.79 111.06 534.79 111.06 532.62 119.62 532.62 119.62 529.32 125.71 533.71 119.62 537.91 119.62 534.79"/><path class="cls-2" d="M35,531.16V533h2.55v1.38H35v3.57H33.39v-8.13h4.3v1.38Z"/><path class="cls-2" d="M43,538.09a4.22,4.22,0,0,1-4.34-4.23A4.35,4.35,0,1,1,43,538.09Zm0-7a2.81,2.81,0,1,0,2.72,2.79A2.76,2.76,0,0,0,43,531Z"/><path class="cls-2" d="M52.79,537.91l-2.19-3.27h-.2v3.27H48.81v-8.13h2.35a3.35,3.35,0,0,1,2.07.58,2.37,2.37,0,0,1,.8,1.83,2.69,2.69,0,0,1-.46,1.49,2.1,2.1,0,0,1-1.39.8l2.56,3.43Zm-1.91-6.84H50.4v2.45h.45c.82,0,1.56-.29,1.56-1.23S51.69,531.07,50.88,531.07Z"/><path class="cls-2" d="M58.37,531.16v6.75H56.79v-6.75H55v-1.38H60.2v1.38Z"/><path class="cls-2" d="M63.47,538.11a3.17,3.17,0,0,1-2.79-1.55l1-1a1.86,1.86,0,0,0,1.71,1.08,1.16,1.16,0,0,0,1.26-1.15c0-1.67-3.57-.88-3.57-3.5a2.39,2.39,0,0,1,2.54-2.37,3.57,3.57,0,0,1,2.38.9l-.83,1.09a1.65,1.65,0,0,0-1.32-.66c-.52,0-1.13.33-1.13.92,0,1.38,3.57.69,3.57,3.54A2.63,2.63,0,0,1,63.47,538.11Z"/><path class="cls-2" d="M73.21,537.91l-.69-1.72H69.2l-.74,1.72H66.77l3.52-8.3h1.2l3.43,8.3Zm-3.73-9a.89.89,0,0,1-.88-.88.88.88,0,1,1,.88.88Zm1.4,3.1-1.18,2.93H72Zm1.33-3.1a.89.89,0,0,1-.88-.88.88.88,0,1,1,.88.88Z"/><path class="cls-2" d="M78,531.16v6.75H76.44v-6.75H74.62v-1.38h5.23v1.38Z"/><path class="cls-2" d="M83.42,531.16v6.75H81.84v-6.75H80v-1.38h5.23v1.38Z"/><path class="cls-2" d="M95.85,538.07l-5-5.66v5.5H89.32V529.6h1.1l5,5.66v-5.47H97v8.29Z"/><path class="cls-2" d="M104.75,536.92a3.37,3.37,0,0,1-2.67,1.17,3.32,3.32,0,0,1-2.67-1.17,3.51,3.51,0,0,1-.6-2.17v-5h1.58v4.66a2.75,2.75,0,0,0,.26,1.46,1.64,1.64,0,0,0,1.43.76,1.68,1.68,0,0,0,1.43-.76,2.62,2.62,0,0,0,.26-1.46v-4.66h1.58v5A3.43,3.43,0,0,1,104.75,536.92Z"/></svg>