<svg id="Layer_1" data-name="Layer 1" xmlns="http://www.w3.org/2000/svg" viewBox="0 0 160 600"><defs><style>.cls-1{fill:#010121;}</style></defs><title>text</title><path class="cls-1" d="M52.67,160.28h2.25v15.81h7.74V178h-10Z"/><path class="cls-1" d="M65.18,160.75a1.53,1.53,0,0,1,3.06,0,1.53,1.53,0,0,1-3.06,0Zm.4,4.13H67.8V178H65.58Z"/><path class="cls-1" d="M70.81,165l1.88-.13h4.9v1.81H70.81Zm1.78-2.2c0-2.67,1.21-4.37,3.84-4.37a5.78,5.78,0,0,1,2.18.46l-.46,1.69a3.61,3.61,0,0,0-1.49-.34c-1.24,0-1.85.87-1.85,2.56V178H72.59Z"/><path class="cls-1" d="M80.11,175.36V158.77h2.22v16.76c0,.68.3.95.62.95a1.69,1.69,0,0,0,.48-.06l.31,1.7a3.72,3.72,0,0,1-1.28.2C80.79,178.32,80.11,177.26,80.11,175.36Z"/><path class="cls-1" d="M86.59,160.75a1.53,1.53,0,0,1,3.06,0,1.53,1.53,0,0,1-3.06,0Zm.4,4.13h2.22V178H87Z"/><path class="cls-1" d="M92.64,180.52a3.72,3.72,0,0,1,1.92-3v-.1a2.45,2.45,0,0,1-1.17-2.16,3.17,3.17,0,0,1,1.44-2.43v-.11a4.55,4.55,0,0,1-1.69-3.52,4.66,4.66,0,0,1,4.92-4.68,5.37,5.37,0,0,1,1.85.33h4.58v1.71h-2.7a3.77,3.77,0,0,1,1.07,2.7,4.48,4.48,0,0,1-4.8,4.55,4.68,4.68,0,0,1-2-.45,1.93,1.93,0,0,0-.83,1.55c0,.84.54,1.43,2.3,1.43h2.55c3,0,4.58.95,4.58,3.13,0,2.44-2.57,4.54-6.63,4.54C94.86,184,92.64,182.78,92.64,180.52Zm9.89-.69c0-1.21-.92-1.63-2.65-1.63H97.62a7.5,7.5,0,0,1-1.7-.19,2.72,2.72,0,0,0-1.34,2.2c0,1.41,1.42,2.3,3.8,2.3S102.53,181.2,102.53,179.83Zm-1.68-10.6a2.8,2.8,0,1,0-5.58,0,2.81,2.81,0,1,0,5.58,0Z"/><path class="cls-1" d="M106.79,166.91a1.61,1.61,0,1,1,1.6,1.68A1.61,1.61,0,0,1,106.79,166.91Zm0,9.73a1.61,1.61,0,1,1,1.6,1.68A1.61,1.61,0,0,1,106.79,176.64Z"/><path class="cls-1" d="M22,207.21H23.2V225H22Z"/><path class="cls-1" d="M32.27,208.28H26.61v-1.07H39.17v1.07H33.51V225H32.27Z"/><path class="cls-1" d="M38.94,217.74h5.93v1H38.94Z"/><path class="cls-1" d="M48.36,223.26V205.58h1.19v17.84c0,.58.24.85.57.85a2.15,2.15,0,0,0,.48-.05l.2,1a2.68,2.68,0,0,1-.86.13C48.9,225.32,48.36,224.68,48.36,223.26Z"/><path class="cls-1" d="M53.51,225l11.25-13.56.71.56L54.21,225.6Zm.16-6.5c0-4.33,2.71-6.83,5.82-6.83s5.82,2.5,5.82,6.83-2.71,6.78-5.82,6.78S53.67,222.83,53.67,218.54Zm10.41,0c0-3.47-2-5.82-4.59-5.82s-4.59,2.36-4.59,5.77,2,5.77,4.59,5.77S64.08,222,64.08,218.57Z"/><path class="cls-1" d="M67.56,223.53l.69-.87a6,6,0,0,0,4.12,1.64c2,0,3.1-1.19,3.1-2.56,0-1.62-1.68-2.33-3.17-2.87-2-.7-4.13-1.49-4.13-3.71,0-1.86,1.48-3.45,4.18-3.45a6.07,6.07,0,0,1,3.7,1.35l-.64.86a4.93,4.93,0,0,0-3.09-1.19c-2,0-2.94,1.17-2.94,2.36,0,1.48,1.53,2,3.07,2.63,2,.76,4.23,1.42,4.23,3.95,0,2-1.56,3.65-4.36,3.65A7.4,7.4,0,0,1,67.56,223.53Z"/><path class="cls-1" d="M80.11,212h1l.13,2h.06c1.32-1.32,2.67-2.34,4.46-2.34,2.68,0,3.92,1.63,3.92,5V225H88.5v-8.16c0-2.75-.87-4.05-3-4.05-1.54,0-2.66.81-4.23,2.43V225h-1.2Z"/><path class="cls-1" d="M94,207.85a1.09,1.09,0,0,1,2.17,0,1.09,1.09,0,0,1-2.17,0Zm.47,4.19h1.19v13H94.48Z"/><path class="cls-1" d="M100.66,212h1l.13,2h.06c1.32-1.32,2.67-2.34,4.46-2.34,2.68,0,3.92,1.63,3.92,5V225H109v-8.16c0-2.75-.87-4.05-3-4.05-1.54,0-2.66.81-4.24,2.43V225h-1.19Z"/><path class="cls-1" d="M113.93,227.65a4.07,4.07,0,0,1,1.94-3.13v-.1a2.32,2.32,0,0,1-1.15-2.08,3,3,0,0,1,1.42-2.39v-.11a4.76,4.76,0,0,1-1.64-3.55,4.48,4.48,0,0,1,4.56-4.58,4.6,4.6,0,0,1,1.72.33h4.39v1h-3a4.31,4.31,0,0,1,1.43,3.25,4.52,4.52,0,0,1-6.68,4,2.37,2.37,0,0,0-1,1.87c0,.94.54,1.69,2.47,1.69h2.78c2.91,0,4.27.93,4.27,3,0,2.24-2.39,4.38-6.12,4.38C116,231.24,113.93,229.84,113.93,227.65Zm10.23-.66c0-1.43-1-2-3-2h-2.78a8.85,8.85,0,0,1-1.61-.21,3.36,3.36,0,0,0-1.7,2.72c0,1.64,1.57,2.74,4.3,2.74C122.3,230.27,124.16,228.62,124.16,227Zm-1.75-10.7a3.36,3.36,0,1,0-6.71,0,3.37,3.37,0,1,0,6.71,0Z"/><path class="cls-1" d="M133.11,207.85a1.09,1.09,0,0,1,2.17,0,1.09,1.09,0,0,1-2.17,0Zm.46,4.19h1.2v13h-1.2Z"/><path class="cls-1" d="M42.65,255.66V238h1.19v17.84c0,.58.24.85.57.85a2.15,2.15,0,0,0,.48-.05l.2,1a2.68,2.68,0,0,1-.86.13C43.19,257.72,42.65,257.08,42.65,255.66Z"/><path class="cls-1" d="M48.59,240.25a1.09,1.09,0,0,1,2.17,0,1.09,1.09,0,0,1-2.17,0Zm.46,4.19h1.19v13H49.05Z"/><path class="cls-1" d="M53.07,244.44h1.29l2.91,8.12c.42,1.25.89,2.56,1.32,3.72h.1c.42-1.16.89-2.47,1.32-3.72l2.91-8.12h1.22l-4.8,13H57.93Z"/><path class="cls-1" d="M65.34,255.93l.69-.87a6,6,0,0,0,4.12,1.64c2,0,3.1-1.19,3.1-2.56,0-1.62-1.68-2.33-3.18-2.87-1.95-.7-4.13-1.49-4.13-3.71,0-1.86,1.48-3.45,4.18-3.45a6.05,6.05,0,0,1,3.7,1.35l-.64.86a4.88,4.88,0,0,0-3.09-1.19c-2,0-2.94,1.17-2.94,2.36,0,1.48,1.53,2,3.07,2.63,2,.76,4.24,1.42,4.24,3.95,0,1.95-1.57,3.65-4.37,3.65A7.4,7.4,0,0,1,65.34,255.93Z"/><path class="cls-1" d="M77.89,255.66V238h1.19v17.84c0,.58.24.85.56.85a2.27,2.27,0,0,0,.49-.05l.2,1a2.78,2.78,0,0,1-.86.13C78.43,257.72,77.89,257.08,77.89,255.66Z"/><path class="cls-1" d="M83,257.44l11.25-13.56.7.56L83.74,258Zm.15-6.5c0-4.33,2.71-6.83,5.82-6.83s5.82,2.5,5.82,6.83-2.7,6.78-5.82,6.78S83.19,255.23,83.19,250.94Zm10.42,0c0-3.47-2-5.82-4.6-5.82s-4.59,2.36-4.59,5.77,2,5.77,4.59,5.77S93.61,254.37,93.61,251Z"/><path class="cls-1" d="M98.73,244.44h1l.13,1.63h.06a7.45,7.45,0,0,1,4.4-2c3.47,0,5.19,2.61,5.19,6.62,0,4.4-2.66,7-5.72,7a6.74,6.74,0,0,1-3.89-1.59v7.14H98.73Zm9.53,6.29c0-3.18-1.13-5.56-4.12-5.56-1.29,0-2.65.76-4.22,2.14V255a6.35,6.35,0,0,0,3.82,1.67C106.37,256.67,108.26,254.25,108.26,250.73Z"/><path class="cls-1" d="M111.78,255.93l.69-.87a6,6,0,0,0,4.12,1.64c2,0,3.1-1.19,3.1-2.56,0-1.62-1.68-2.33-3.18-2.87-2-.7-4.13-1.49-4.13-3.71,0-1.86,1.48-3.45,4.18-3.45a6.05,6.05,0,0,1,3.7,1.35l-.64.86a4.88,4.88,0,0,0-3.09-1.19c-2,0-2.94,1.17-2.94,2.36,0,1.48,1.53,2,3.07,2.63,2,.76,4.23,1.42,4.23,3.95,0,1.95-1.56,3.65-4.36,3.65A7.4,7.4,0,0,1,111.78,255.93Z"/><path class="cls-1" d="M24.08,277.44h1l.13,1.63h.06a7.48,7.48,0,0,1,4.4-2c3.48,0,5.19,2.61,5.19,6.62,0,4.4-2.65,7-5.71,7a6.76,6.76,0,0,1-3.9-1.59l0,2.39v4.75H24.08Zm9.53,6.29c0-3.18-1.13-5.56-4.12-5.56-1.29,0-2.66.76-4.22,2.14V288a6.31,6.31,0,0,0,3.82,1.67C31.72,289.67,33.61,287.25,33.61,283.73Z"/><path class="cls-1" d="M37.67,283.94c0-4.22,2.75-6.83,5.66-6.83,3.07,0,5,2.19,5,6a5.22,5.22,0,0,1-.07,1H38.9c0,3.27,2,5.61,4.88,5.61a5.81,5.81,0,0,0,3.48-1.15l.49.91a7.05,7.05,0,0,1-4.08,1.27C40.36,290.72,37.67,288.18,37.67,283.94Zm9.49-.84c0-3.31-1.5-5-3.82-5s-4.18,1.86-4.45,5Z"/><path class="cls-1" d="M51.8,277.44h1l.13,2.42H53c.88-1.6,2.15-2.75,3.69-2.75a2.68,2.68,0,0,1,1.28.27l-.26,1.08a3.06,3.06,0,0,0-1.18-.21c-1.16,0-2.54.88-3.53,3.33v8.82H51.8Z"/><path class="cls-1" d="M58.72,288.93l.69-.87a6,6,0,0,0,4.12,1.64c2,0,3.1-1.19,3.1-2.56,0-1.62-1.68-2.33-3.17-2.87-2-.7-4.13-1.49-4.13-3.71,0-1.86,1.48-3.45,4.17-3.45a6.1,6.1,0,0,1,3.71,1.35l-.64.86a4.93,4.93,0,0,0-3.1-1.19c-2,0-2.93,1.17-2.93,2.36,0,1.48,1.52,2,3.07,2.63,2,.76,4.23,1.42,4.23,3.95,0,1.95-1.56,3.65-4.37,3.65A7.4,7.4,0,0,1,58.72,288.93Z"/><path class="cls-1" d="M71.27,277.44h1l.13,1.63h.06a7.48,7.48,0,0,1,4.4-2c3.48,0,5.19,2.61,5.19,6.62,0,4.4-2.66,7-5.71,7a6.76,6.76,0,0,1-3.9-1.59v7.14H71.27Zm9.53,6.29c0-3.18-1.13-5.56-4.12-5.56-1.28,0-2.65.76-4.22,2.14V288a6.35,6.35,0,0,0,3.82,1.67C78.92,289.67,80.8,287.25,80.8,283.73Z"/><path class="cls-1" d="M84.87,283.94c0-4.22,2.75-6.83,5.65-6.83,3.07,0,5,2.19,5,6a5.22,5.22,0,0,1-.07,1H86.09c0,3.27,2,5.61,4.88,5.61a5.84,5.84,0,0,0,3.49-1.15l.49.91a7.09,7.09,0,0,1-4.09,1.27C87.55,290.72,84.87,288.18,84.87,283.94Zm9.49-.84c0-3.31-1.5-5-3.83-5s-4.17,1.86-4.44,5Z"/><path class="cls-1" d="M99,271h1.18v14.31h.06l6.4-7.85H108l-4.23,5.13,4.93,7.83h-1.33l-4.3-6.94-2.91,3.41v3.53H99Z"/><path class="cls-1" d="M111.48,286.82v-8.34h-2v-.93l2.06-.11.15-3.75h1v3.75h3.76v1h-3.76v8.43c0,1.65.42,2.77,2.2,2.77a4.61,4.61,0,0,0,1.63-.41l.31,1a7.6,7.6,0,0,1-2.11.48C112.21,290.72,111.48,289.14,111.48,286.82Z"/><path class="cls-1" d="M119.14,273.25a1.09,1.09,0,0,1,2.17,0,1.09,1.09,0,0,1-2.17,0Zm.46,4.19h1.19v13H119.6Z"/><path class="cls-1" d="M123.62,277.44h1.29l2.91,8.12c.43,1.25.89,2.56,1.32,3.72h.1c.43-1.16.89-2.47,1.32-3.72l2.91-8.12h1.22l-4.8,13h-1.41Z"/><path class="cls-1" d="M43.55,326.78h6.19v1.7H43.55Z"/><path class="cls-1" d="M57.44,331c0-2.86,2.47-4.28,8.06-4.89,0-1.69-.57-3.32-2.71-3.32a7.2,7.2,0,0,0-3.91,1.41L58,322.67A9.66,9.66,0,0,1,63.16,321c3.2,0,4.56,2.12,4.56,5.39v8H65.88l-.18-1.57h-.08a7,7,0,0,1-4.34,1.89A3.57,3.57,0,0,1,57.44,331Zm8.06.21v-3.65c-4.4.53-5.88,1.61-5.88,3.29,0,1.49,1,2.09,2.29,2.09A5.39,5.39,0,0,0,65.5,331.2Z"/><path class="cls-1" d="M71.86,331.76V315.17h2.22v16.76c0,.68.3.95.62.95a1.75,1.75,0,0,0,.49-.06l.3,1.7a3.72,3.72,0,0,1-1.28.2C72.54,334.72,71.86,333.66,71.86,331.76Z"/><path class="cls-1" d="M78.75,331.76V315.17H81v16.76c0,.68.29.95.61.95a1.75,1.75,0,0,0,.49-.06l.3,1.7a3.63,3.63,0,0,1-1.28.2C79.43,334.72,78.75,333.66,78.75,331.76Z"/><path class="cls-1" d="M86,330.34v-7.25h-2v-1.68l2.05-.13.27-3.68h1.85v3.68h3.55v1.81H88.24v7.29c0,1.61.52,2.53,2,2.53a4.27,4.27,0,0,0,1.49-.35l.43,1.68a7.83,7.83,0,0,1-2.43.48C87,334.72,86,333,86,330.34Z"/><path class="cls-1" d="M94.35,317.15a1.54,1.54,0,0,1,3.07,0,1.54,1.54,0,0,1-3.07,0Zm.41,4.13H97V334.4H94.76Z"/><path class="cls-1" d="M100.46,327.86c0-4.26,2.69-6.9,5.68-6.9a5.39,5.39,0,0,1,3.68,1.51l-.1-2.25v-5.05h2.22V334.4h-1.83l-.19-1.55h-.07a5.81,5.81,0,0,1-4,1.87C102.59,334.72,100.46,332.23,100.46,327.86Zm9.26,3.2v-6.87a4.62,4.62,0,0,0-3.2-1.37c-2.1,0-3.76,2-3.76,5,0,3.14,1.3,5,3.6,5A4.54,4.54,0,0,0,109.72,331.06Z"/><path class="cls-1" d="M25.51,360.26c0-4.38,2.87-6.91,6.08-6.91s6.08,2.53,6.08,6.91-2.86,6.86-6.08,6.86S25.51,364.6,25.51,360.26Zm9.87,0c0-3-1.53-5.06-3.79-5.06s-3.78,2.05-3.78,5.06,1.53,5,3.78,5S35.38,363.26,35.38,360.26Z"/><path class="cls-1" d="M41.12,353.68H43l.18,1.51h.08a6.92,6.92,0,0,1,4.18-1.84c3.39,0,5.2,2.64,5.2,6.69,0,4.47-2.68,7.08-5.68,7.08a6,6,0,0,1-3.64-1.52l.06,2.29v4.44H41.12Zm9.19,6.38c0-2.9-1-4.84-3.46-4.84A5.41,5.41,0,0,0,43.34,357v6.88a5.13,5.13,0,0,0,3.2,1.37C48.71,365.26,50.31,363.3,50.31,360.06Z"/><path class="cls-1" d="M56.11,353.68h1.83l.19,1.51h.07a6.94,6.94,0,0,1,4.18-1.84c3.39,0,5.21,2.64,5.21,6.69,0,4.47-2.69,7.08-5.69,7.08a5.91,5.91,0,0,1-3.63-1.52l.06,2.29v4.44H56.11Zm9.18,6.38c0-2.9-1-4.84-3.46-4.84a5.37,5.37,0,0,0-3.5,1.79v6.88a5.09,5.09,0,0,0,3.19,1.37C63.69,365.26,65.29,363.3,65.29,360.06Z"/><path class="cls-1" d="M70.16,360.26c0-4.26,2.68-6.91,5.67-6.91a5.37,5.37,0,0,1,3.68,1.53l-.09-2.26v-5.05h2.22V366.8H79.8l-.19-1.55h-.07a5.81,5.81,0,0,1-4,1.87C72.28,367.12,70.16,364.63,70.16,360.26Zm9.26,3.2v-6.87a4.62,4.62,0,0,0-3.2-1.37c-2.1,0-3.77,2-3.77,5s1.3,5,3.6,5A4.56,4.56,0,0,0,79.42,363.46Z"/><path class="cls-1" d="M85.26,363.39c0-2.85,2.47-4.28,8.06-4.89,0-1.69-.56-3.32-2.71-3.32a7.2,7.2,0,0,0-3.91,1.41l-.87-1.52A9.66,9.66,0,0,1,91,353.35c3.21,0,4.56,2.13,4.56,5.4v8.05H93.71l-.19-1.57h-.07a7,7,0,0,1-4.34,1.89A3.57,3.57,0,0,1,85.26,363.39Zm8.06.21V360c-4.4.53-5.88,1.61-5.88,3.29,0,1.49,1,2.09,2.3,2.09A5.39,5.39,0,0,0,93.32,363.6Z"/><path class="cls-1" d="M99.69,362.74v-7.25h-2v-1.68l2.05-.13.27-3.68h1.86v3.68h3.55v1.81h-3.55v7.29c0,1.6.51,2.53,2,2.53a4.32,4.32,0,0,0,1.5-.35l.43,1.68a8,8,0,0,1-2.44.48C100.64,367.12,99.69,365.35,99.69,362.74Z"/><path class="cls-1" d="M107.08,360.26c0-4.27,2.88-6.91,5.9-6.91,3.34,0,5.23,2.41,5.23,6.16a7.39,7.39,0,0,1-.1,1.26h-8.84c.16,2.78,1.86,4.58,4.36,4.58a5.69,5.69,0,0,0,3.27-1.05l.79,1.46a7.66,7.66,0,0,1-4.33,1.36C109.86,367.12,107.08,364.57,107.08,360.26Zm9.17-1.08c0-2.63-1.18-4.06-3.23-4.06-1.85,0-3.5,1.48-3.77,4.06Z"/><path class="cls-1" d="M121.45,353.68h1.83l.19,2.39h.07c.91-1.67,2.25-2.72,3.73-2.72a3,3,0,0,1,1.4.28l-.41,1.94a3.74,3.74,0,0,0-1.28-.21c-1.1,0-2.43.79-3.31,3v8.42h-2.22Z"/><path class="cls-1" d="M131.2,362.74v-7.25h-1.95v-1.68l2.05-.13.27-3.68h1.85v3.68H137v1.81h-3.56v7.29c0,1.6.52,2.53,2,2.53A4.32,4.32,0,0,0,137,365l.43,1.68a8,8,0,0,1-2.44.48C132.15,367.12,131.2,365.35,131.2,362.74Z"/></svg>