<svg id="Layer_1" data-name="Layer 1" xmlns="http://www.w3.org/2000/svg" viewBox="0 0 160 600"><defs><style>.cls-1{fill:#fff;}</style></defs><title>text</title><path class="cls-1" d="M21.78,140H12.63c-.75,0-1.13-.29-1.13-.88V124.66c0-.61.38-.91,1.13-.91s1.12.3,1.12.91V138h8c.51,0,.77.34.77,1S22.29,140,21.78,140Z"/><path class="cls-1" d="M34.09,137.85c.51,0,.76.31.76.93a1,1,0,0,1-.76,1.12,19.14,19.14,0,0,1-4.07.3,6.93,6.93,0,0,1-4.09-.93,3.67,3.67,0,0,1-1.24-3.12v-4.57c0-1.53.37-2.56,1.12-3.09S28,127.7,30,127.7s3.42.25,4.13.75,1.08,1.55,1.08,3.13v2a1.43,1.43,0,0,1-.33,1,1.14,1.14,0,0,1-.85.34h-7.1v1.46q0,1.84,3.21,1.83a17.85,17.85,0,0,0,2.44-.14A12.85,12.85,0,0,1,34.09,137.85Zm-7.16-6.27v1.29h6v-1.29a1.57,1.57,0,0,0-.61-1.45,5,5,0,0,0-2.38-.38,5.57,5.57,0,0,0-2.39.35A1.59,1.59,0,0,0,26.93,131.58Z"/><path class="cls-1" d="M45.63,136.33V136a.91.91,0,0,0-.58-.86,5,5,0,0,0-2-.27,12.25,12.25,0,0,1-3.22-.45,2.63,2.63,0,0,1-1.47-1,3.22,3.22,0,0,1-.58-2v-.2A2.93,2.93,0,0,1,39,128.45a7.84,7.84,0,0,1,3.84-.73,16,16,0,0,1,3.8.33,1,1,0,0,1,.77,1.12c0,.62-.25.93-.77.93a13.73,13.73,0,0,1-1.57-.16,18,18,0,0,0-2.5-.17,6.29,6.29,0,0,0-2,.22c-.41.15-.62.56-.62,1.23v.24c0,.88.93,1.35,2.78,1.41.78,0,1.55.1,2.34.2a3.45,3.45,0,0,1,2,.86,2.58,2.58,0,0,1,.81,2.09v.31a3.37,3.37,0,0,1-1.27,3.06,7.87,7.87,0,0,1-4.09.81,18,18,0,0,1-4-.32,1,1,0,0,1-.77-1.13c0-.61.26-.92.77-.92a17.25,17.25,0,0,1,1.77.16,22.63,22.63,0,0,0,2.56.15,5.3,5.3,0,0,0,2-.33A1.43,1.43,0,0,0,45.63,136.33Z"/><path class="cls-1" d="M61.56,140.12a1.9,1.9,0,0,1-1.19-.4,2.28,2.28,0,0,1-.76-1l-3.54-9.54a4,4,0,0,0-.09-.4c0-.59.37-.87,1.09-.87a1,1,0,0,1,1.1.65l3.34,9.4h.13l3.35-9.4a1.15,1.15,0,0,1,1.21-.65c.64,0,1,.29,1,.87,0,0,0,.15-.08.4l-3.55,9.54a2.09,2.09,0,0,1-.76,1A2,2,0,0,1,61.56,140.12Z"/><path class="cls-1" d="M70.68,130.08q-.78,0-.78-.93a1,1,0,0,1,.78-1.13,18.15,18.15,0,0,1,4-.32q2.83,0,3.84.9a4.09,4.09,0,0,1,1,3.15v4.82c0,1.51-.37,2.49-1.1,2.94a8.77,8.77,0,0,1-4.22.69c-2.07,0-3.46-.23-4.15-.69s-1-1.43-1-2.93a4.46,4.46,0,0,1,.81-3.08c.54-.58,1.65-.86,3.32-.85h4.13v-1.29a1.36,1.36,0,0,0-.57-1.27,4.22,4.22,0,0,0-2-.34,15.83,15.83,0,0,0-2.55.17A11.24,11.24,0,0,1,70.68,130.08Zm6.65,6.67v-2.12H73.88a4.26,4.26,0,0,0-2.09.32c-.32.21-.47.69-.47,1.44s.19,1.24.59,1.45a6.19,6.19,0,0,0,2.38.3,7.11,7.11,0,0,0,2.4-.26A1.11,1.11,0,0,0,77.33,136.75ZM73,126.43a2.37,2.37,0,0,1,0-3.3,2.32,2.32,0,0,1,3.28,0,2.24,2.24,0,0,1,.68,1.65,2.21,2.21,0,0,1-.68,1.65,2.27,2.27,0,0,1-1.64.67A2.24,2.24,0,0,1,73,126.43Zm.64-1.65a1,1,0,0,0,.3.72,1,1,0,0,0,1.41,0,1,1,0,0,0,.3-.72,1,1,0,0,0-1-1,1,1,0,0,0-.72.3A1,1,0,0,0,73.62,124.78Z"/><path class="cls-1" d="M85.31,132.9v6.22c0,.59-.38.88-1.12.88s-1.12-.29-1.13-.88V132.6a7.67,7.67,0,0,1,.4-3.11,4.11,4.11,0,0,1,.74-1.06c.54-.49,1.88-.73,4-.73a7.27,7.27,0,0,1,2.18.21.81.81,0,0,1,.55.8,1.14,1.14,0,0,1-.31.86,1.07,1.07,0,0,1-.77.29l-1.65-.11a7.89,7.89,0,0,0-1.91.14,1.63,1.63,0,0,0-.56.29,1.51,1.51,0,0,0-.27.56,2.86,2.86,0,0,0-.16.88C85.31,131.92,85.31,132.35,85.31,132.9Z"/><path class="cls-1" d="M97,140a3.14,3.14,0,0,1-2.38-.73,3.68,3.68,0,0,1-.67-2.51v-6.88H92.41c-.51,0-.76-.33-.76-1s.25-1,.76-1H94v-3.18c0-.58.37-.87,1.12-.87s1.12.29,1.12.87v3.18h3.18c.51,0,.76.33.76,1s-.25,1-.76,1H96.23v7.05c0,.68.41,1,1.22,1l2.13-.12q.78,0,.78.9a1.17,1.17,0,0,1-.81,1.2C99,140,98.18,140,97,140Z"/><path class="cls-1" d="M10.75,164.06v-9.9c0-.61.38-.91,1.13-.91s1.11.3,1.11.9v4a7.52,7.52,0,0,1,3-.49,13,13,0,0,1,2.89.24,3.43,3.43,0,0,1,1.69.95,3.88,3.88,0,0,1,1,1.93,15.53,15.53,0,0,1,.27,3.24,17.05,17.05,0,0,1-.25,3.22,3.33,3.33,0,0,1-1,1.84,3.94,3.94,0,0,1-1.69.86,12.84,12.84,0,0,1-2.62.22,12.6,12.6,0,0,1-2.6-.21A3.34,3.34,0,0,1,11,167.25,14.28,14.28,0,0,1,10.75,164.06Zm8.82.5c0-1.07,0-1.93-.08-2.56a3.49,3.49,0,0,0-.63-1.71c-.24-.36-1.11-.54-2.59-.54a4.66,4.66,0,0,0-2.35.34,2,2,0,0,0-.74,1.12,12.87,12.87,0,0,0-.24,2.51c0,.88,0,1.63.09,2.26a3.1,3.1,0,0,0,.65,1.66c.21.29.7.46,1.48.5q.36,0,1.11,0t1.11,0a4.7,4.7,0,0,0,.83-.13,1,1,0,0,0,.65-.36,4.78,4.78,0,0,0,.44-.87A6.14,6.14,0,0,0,19.57,164.56Z"/><path class="cls-1" d="M27.54,154.16v15c0,.59-.37.88-1.12.88s-1.12-.29-1.12-.88v-15c0-.61.37-.91,1.12-.91S27.54,153.55,27.54,154.16Z"/><path class="cls-1" d="M31.13,164.06a14.78,14.78,0,0,1,.28-3.24,3.47,3.47,0,0,1,2.65-2.88,11.62,11.62,0,0,1,2.62-.24,11.46,11.46,0,0,1,2.61.24,3.52,3.52,0,0,1,1.69.95,3.91,3.91,0,0,1,1,1.92,15.49,15.49,0,0,1,.27,3.23,15.25,15.25,0,0,1-.27,3.22,3.46,3.46,0,0,1-1,1.85,3.76,3.76,0,0,1-1.68.87,12.66,12.66,0,0,1-2.61.22,13,13,0,0,1-2.62-.21,3.62,3.62,0,0,1-1.68-.87,3.28,3.28,0,0,1-1-1.87A15,15,0,0,1,31.13,164.06Zm2.52-2.86a6.36,6.36,0,0,0-.27,2.23c0,1.06,0,1.91.08,2.54a3.07,3.07,0,0,0,.64,1.65,2,2,0,0,0,1.46.5c.24,0,.62,0,1.12,0,1.46,0,2.32-.17,2.58-.52a3.34,3.34,0,0,0,.65-1.66c.06-.61.08-1.24.08-1.89,0-1.94-.18-3.12-.54-3.53a3.82,3.82,0,0,0-.43-.45,3,3,0,0,0-1.76-.34c-.9,0-1.47,0-1.71,0-.77,0-1.25.22-1.45.52A4.45,4.45,0,0,0,33.65,161.2Z"/><path class="cls-1" d="M54.26,156.51c0-.53.38-.79,1.13-.79s1.12.27,1.12.82v5.29c0,1.58-.39,2.61-1.18,3.1a7.72,7.72,0,0,1-3.94.75,17.69,17.69,0,0,1-3.67-.24v1.94h4.56c1.71,0,2.86.29,3.47.88a4.13,4.13,0,0,1,.91,3,3.19,3.19,0,0,1-1.22,2.89,8.62,8.62,0,0,1-4.33.78,9.51,9.51,0,0,1-4.37-.71c-.83-.46-1.26-1.42-1.27-2.89V161.5a4.18,4.18,0,0,1,.7-2.73,3.79,3.79,0,0,1,2.64-1,21.11,21.11,0,0,1,5.45.25Zm-6.54,5.27c0,.9.18,1.45.5,1.64a6.07,6.07,0,0,0,2.41.28,11.06,11.06,0,0,0,2.6-.2,1.23,1.23,0,0,0,.86-.61,3.66,3.66,0,0,0,.17-1.35v-1.49a27.28,27.28,0,0,0-3.57-.26,5.19,5.19,0,0,0-2.3.37,1.63,1.63,0,0,0-.67,1.53Zm0,7.57v2.07a1.22,1.22,0,0,0,.8,1.19,7.41,7.41,0,0,0,2.65.34,5.42,5.42,0,0,0,2.46-.37,1.48,1.48,0,0,0,.63-1.41,1.58,1.58,0,0,0-.6-1.44,4.51,4.51,0,0,0-2.2-.38Z"/><path class="cls-1" d="M68.28,156.51c0-.53.37-.79,1.12-.79s1.12.27,1.12.82v5.29c0,1.58-.39,2.61-1.18,3.1a7.7,7.7,0,0,1-3.94.75,17.75,17.75,0,0,1-3.67-.24v1.94h4.56c1.71,0,2.87.29,3.48.88a4.17,4.17,0,0,1,.9,3,3.19,3.19,0,0,1-1.22,2.89,8.59,8.59,0,0,1-4.33.78,9.46,9.46,0,0,1-4.36-.71c-.84-.46-1.26-1.42-1.27-2.89V161.5a4.19,4.19,0,0,1,.69-2.73,3.79,3.79,0,0,1,2.65-1,21.13,21.13,0,0,1,5.45.25Zm-6.55,5.27c0,.9.18,1.45.5,1.64a6.14,6.14,0,0,0,2.42.28,11,11,0,0,0,2.59-.2,1.28,1.28,0,0,0,.87-.61,3.89,3.89,0,0,0,.17-1.35v-1.49a27.52,27.52,0,0,0-3.57-.26,5.21,5.21,0,0,0-2.31.37,1.65,1.65,0,0,0-.67,1.53Zm0,7.57v2.07a1.21,1.21,0,0,0,.81,1.19,7.31,7.31,0,0,0,2.64.34,5.42,5.42,0,0,0,2.46-.37,1.47,1.47,0,0,0,.64-1.41,1.56,1.56,0,0,0-.61-1.44,4.49,4.49,0,0,0-2.2-.38Z"/><path class="cls-1" d="M73.61,155a1.17,1.17,0,0,1,.37-.87,1.24,1.24,0,0,1,.85-.38,1.17,1.17,0,0,1,.87.38,1.25,1.25,0,0,1,.35.88,1.21,1.21,0,0,1-2.08.85A1.18,1.18,0,0,1,73.61,155ZM76,158.77v10.35c0,.59-.38.88-1.13.88s-1.12-.29-1.12-.88V158.77c0-.59.37-.88,1.12-.88S76,158.18,76,158.77Z"/><path class="cls-1" d="M82.3,160.17c-.27.29-.41,1.19-.41,2.71v6.24c0,.59-.37.88-1.12.88s-1.12-.29-1.13-.88V162.6a13.15,13.15,0,0,1,.22-2.68,2.38,2.38,0,0,1,.88-1.47,3.33,3.33,0,0,1,1.54-.62,22.07,22.07,0,0,1,2.77-.13c2.1,0,3.43.24,4,.76a3.35,3.35,0,0,1,1,2.2c0,.53.08,1.18.08,1.94v6.52c0,.59-.37.88-1.12.88s-1.12-.29-1.12-.88v-6.24c0-1.5-.15-2.4-.43-2.69s-1.14-.44-2.57-.44S82.58,159.89,82.3,160.17Z"/><path class="cls-1" d="M96.24,160.17c-.27.29-.41,1.19-.41,2.71v6.24c0,.59-.37.88-1.12.88s-1.12-.29-1.13-.88V162.6a13.15,13.15,0,0,1,.22-2.68,2.38,2.38,0,0,1,.88-1.47,3.33,3.33,0,0,1,1.54-.62A22.07,22.07,0,0,1,99,157.7c2.1,0,3.43.24,4,.76a3.35,3.35,0,0,1,1,2.2c0,.53.08,1.18.08,1.94v6.52c0,.59-.37.88-1.12.88s-1.12-.29-1.12-.88v-6.24c0-1.5-.15-2.4-.43-2.69s-1.14-.44-2.57-.44S96.52,159.89,96.24,160.17Z"/><path class="cls-1" d="M110,154.16v15c0,.59-.38.88-1.13.88s-1.12-.29-1.12-.88v-15c0-.61.37-.91,1.12-.91S110,153.55,110,154.16Z"/><path class="cls-1" d="M123,167.85c.52,0,.77.31.77.93a1,1,0,0,1-.77,1.12,19,19,0,0,1-4.06.3,6.93,6.93,0,0,1-4.09-.93,3.67,3.67,0,0,1-1.24-3.12v-4.57c0-1.53.37-2.56,1.12-3.09s2.14-.79,4.19-.79,3.42.25,4.13.75,1.08,1.55,1.08,3.13v2a1.43,1.43,0,0,1-.33,1,1.15,1.15,0,0,1-.85.34h-7.1v1.46q0,1.84,3.21,1.83a17.85,17.85,0,0,0,2.44-.14A12.93,12.93,0,0,1,123,167.85Zm-7.15-6.27v1.29h6v-1.29a1.57,1.57,0,0,0-.61-1.45,5,5,0,0,0-2.38-.38,5.57,5.57,0,0,0-2.39.35A1.59,1.59,0,0,0,115.81,161.58Z"/><path class="cls-1" d="M136.25,156.51c0-.53.37-.79,1.12-.79s1.12.27,1.12.82v5.29c0,1.58-.39,2.61-1.18,3.1a7.7,7.7,0,0,1-3.94.75,17.69,17.69,0,0,1-3.67-.24v1.94h4.56c1.71,0,2.87.29,3.48.88a4.17,4.17,0,0,1,.9,3,3.19,3.19,0,0,1-1.22,2.89,8.62,8.62,0,0,1-4.33.78,9.43,9.43,0,0,1-4.36-.71c-.84-.46-1.26-1.42-1.27-2.89V161.5a4.19,4.19,0,0,1,.69-2.73,3.79,3.79,0,0,1,2.64-1,21.19,21.19,0,0,1,5.46.25Zm-6.55,5.27c0,.9.18,1.45.5,1.64a6.14,6.14,0,0,0,2.42.28,11,11,0,0,0,2.59-.2,1.28,1.28,0,0,0,.87-.61,3.89,3.89,0,0,0,.17-1.35v-1.49a27.52,27.52,0,0,0-3.57-.26,5.21,5.21,0,0,0-2.31.37,1.63,1.63,0,0,0-.67,1.53Zm0,7.57v2.07a1.21,1.21,0,0,0,.81,1.19,7.31,7.31,0,0,0,2.64.34,5.42,5.42,0,0,0,2.46-.37,1.49,1.49,0,0,0,.64-1.41,1.58,1.58,0,0,0-.61-1.44,4.49,4.49,0,0,0-2.2-.38Z"/><path class="cls-1" d="M150.26,156.51c0-.53.37-.79,1.12-.79s1.13.27,1.13.82v5.29c0,1.58-.4,2.61-1.19,3.1a7.7,7.7,0,0,1-3.94.75,17.64,17.64,0,0,1-3.66-.24v1.94h4.56c1.7,0,2.86.29,3.47.88a4.17,4.17,0,0,1,.9,3,3.17,3.17,0,0,1-1.22,2.89,8.56,8.56,0,0,1-4.33.78,9.46,9.46,0,0,1-4.36-.71c-.84-.46-1.26-1.42-1.27-2.89V161.5a4.19,4.19,0,0,1,.69-2.73,3.81,3.81,0,0,1,2.65-1,21.13,21.13,0,0,1,5.45.25Zm-6.54,5.27c0,.9.17,1.45.5,1.64a6.07,6.07,0,0,0,2.41.28,11,11,0,0,0,2.59-.2,1.23,1.23,0,0,0,.87-.61,3.89,3.89,0,0,0,.17-1.35v-1.49a27.28,27.28,0,0,0-3.57-.26,5.16,5.16,0,0,0-2.3.37,1.61,1.61,0,0,0-.67,1.53Zm0,7.57v2.07a1.2,1.2,0,0,0,.8,1.19,7.38,7.38,0,0,0,2.65.34,5.48,5.48,0,0,0,2.46-.37,1.48,1.48,0,0,0,.63-1.41,1.58,1.58,0,0,0-.6-1.44,4.54,4.54,0,0,0-2.2-.38Z"/></svg>