<svg id="Layer_1" data-name="Layer 1" xmlns="http://www.w3.org/2000/svg" viewBox="0 0 160 600"><defs><style>.cls-1{fill:#d80201;}</style></defs><title>text</title><path class="cls-1" d="M27.12,273.46l-11.37-13V273.1H12.11V254h2.52L26,267V254.42h3.64v19Z"/><path class="cls-1" d="M36.92,279.59H33.08l4.45-8.32L31.8,261h3.95l3.64,6.89L42.86,261h3.86Z"/><path class="cls-1" d="M56.66,273.1v-6.64c0-1.68-.36-3-2.32-3s-2.58,1.62-2.58,3.42v6.22H48.37v-21h3.39v10.42a4.41,4.41,0,0,1,3.81-2,4.63,4.63,0,0,1,3.53,1.48,4.81,4.81,0,0,1,1,3.42v7.62Z"/><path class="cls-1" d="M66.12,267.58c.06,1.88,1,3.25,3,3.25A3.18,3.18,0,0,0,72,269.2l3.14.5a5.94,5.94,0,0,1-6,3.78,6.08,6.08,0,0,1-6.5-6.47c0-3.86,2.46-6.44,6.36-6.44s6.19,2.69,6.19,6.55v.45ZM69.06,263a2.75,2.75,0,0,0-2.83,2.44H72A2.81,2.81,0,0,0,69.06,263Z"/><path class="cls-1" d="M81.22,263.88v9.21H77.83v-9.21H76.48V261h1.34v-4.14h3.39V261H83.6v2.91Z"/><path class="cls-1" d="M87.24,273.46a2.18,2.18,0,1,1,2.18-2.18A2.19,2.19,0,0,1,87.24,273.46Zm-1.74-5.71V254.42H89v13.33Z"/><path class="cls-1" d="M22.12,307.1l-1.31-3.24H14.56l-1.4,3.24H10l6.65-15.66h2.25l6.46,15.66Zm-4.39-11.18-2.23,5.52h4.39Z"/><path class="cls-1" d="M26.7,307.1V289.87h2.78V307.1Z"/><path class="cls-1" d="M32.15,307.1V289.87h2.78V307.1Z"/><path class="cls-1" d="M45.21,307.1v-1.31A3.85,3.85,0,0,1,42,307.42c-3,0-4.9-2.48-4.9-5.33a5,5,0,0,1,4.83-5.27,4.15,4.15,0,0,1,3.31,1.59v-1.27H48v10Zm-2.48-7.77a2.79,2.79,0,1,0,2.78,2.78A2.78,2.78,0,0,0,42.73,299.32Z"/><path class="cls-1" d="M63.25,307.1v-5.45c0-1.38-.3-2.46-1.91-2.46s-2.12,1.33-2.12,2.81v5.1H56.44V289.87h2.78v8.55a3.62,3.62,0,0,1,3.13-1.61,3.81,3.81,0,0,1,2.9,1.22,4,4,0,0,1,.78,2.81v6.25Z"/><path class="cls-1" d="M73.5,307.42c-2.74,0-4.81-1.22-4.81-4.18v-6.09h2.78v5.63c0,1.36.57,2.28,2,2.28s2-.92,2-2.28v-5.63h2.81v6.09C78.33,306.2,76.24,307.42,73.5,307.42Z"/><path class="cls-1" d="M84.18,307.42a5.3,5.3,0,0,1-3.79-1.65l1.47-1.7a3.23,3.23,0,0,0,2.35,1.17,1.17,1.17,0,0,0,1.27-1.1c0-1.7-4.44-.85-4.44-4.21,0-2,1.68-3.15,3.56-3.15a5.13,5.13,0,0,1,3.24,1.06l-1.38,1.63a2.78,2.78,0,0,0-1.66-.67c-.48,0-1.06.3-1.06.85,0,1.45,4.6.8,4.6,4.21C88.34,306.18,86.31,307.42,84.18,307.42Z"/><path class="cls-1" d="M103.68,307.1v-1.31a3.85,3.85,0,0,1-3.24,1.63c-3,0-4.9-2.48-4.9-5.33a5,5,0,0,1,4.83-5.27,4.15,4.15,0,0,1,3.31,1.59v-1.27h2.81v10Zm-4.81-11.82a1.66,1.66,0,0,1,0-3.31,1.66,1.66,0,0,1,0,3.31Zm2.32,4a2.79,2.79,0,1,0,2.78,2.78A2.78,2.78,0,0,0,101.2,299.32Zm2.46-4a1.68,1.68,0,0,1-1.66-1.66,1.66,1.66,0,1,1,1.66,1.66Z"/><path class="cls-1" d="M115.66,299.67a2.46,2.46,0,0,0-1.33-.35c-1.89,0-2.39,1.33-2.39,3v4.78h-2.78v-10h2.78v1.49a3.25,3.25,0,0,1,4.12-1.59Z"/><path class="cls-1" d="M130,307.1v-5.52c0-1.36-.3-2.39-1.89-2.39s-2.14,1.26-2.14,2.76v5.15h-2.78v-10H126v1.22a3.68,3.68,0,0,1,3.13-1.54,3.44,3.44,0,0,1,3.68,4v6.32Z"/><path class="cls-1" d="M140.25,307.42c-2.74,0-4.81-1.22-4.81-4.18v-6.09h2.78v5.63c0,1.36.58,2.28,2,2.28s2-.92,2-2.28v-5.63h2.8v6.09C145.08,306.2,143,307.42,140.25,307.42Z"/><path class="cls-1" d="M16,341.46a6,6,0,0,1-5.27-2.92l1.93-1.86a3.52,3.52,0,0,0,3.22,2,2.18,2.18,0,0,0,2.37-2.16c0-3.15-6.74-1.66-6.74-6.6a4.5,4.5,0,0,1,4.78-4.46,6.73,6.73,0,0,1,4.48,1.7l-1.56,2A3.11,3.11,0,0,0,16.72,328c-1,0-2.14.62-2.14,1.72,0,2.6,6.74,1.31,6.74,6.67C21.32,339.53,19,341.46,16,341.46Z"/><path class="cls-1" d="M28.59,341.3H27.3l-5.08-10.16h3.13L28,336.75l2.62-5.61h3.13Z"/><path class="cls-1" d="M42.18,341.1v-1.31a3.85,3.85,0,0,1-3.24,1.63c-3,0-4.9-2.48-4.9-5.33a5,5,0,0,1,4.83-5.27,4.15,4.15,0,0,1,3.31,1.59v-1.26H45v10Zm-2.48-7.77a2.79,2.79,0,1,0,2.78,2.78A2.78,2.78,0,0,0,39.69,333.32Z"/><path class="cls-1" d="M54.46,341.1v-5.52c0-1.36-.3-2.39-1.89-2.39s-2.14,1.26-2.14,2.76v5.15H47.65v-10h2.78v1.22a3.68,3.68,0,0,1,3.13-1.54,3.44,3.44,0,0,1,3.68,4v6.32Z"/><path class="cls-1" d="M62.23,336.57c0,1.54.78,2.67,2.44,2.67A2.61,2.61,0,0,0,67,337.9l2.58.41a4.88,4.88,0,0,1-4.9,3.1,5,5,0,0,1-5.33-5.31,4.93,4.93,0,0,1,5.22-5.29c3.29,0,5.08,2.21,5.08,5.38v.37Zm2.41-3.77a2.26,2.26,0,0,0-2.32,2H67A2.31,2.31,0,0,0,64.65,332.79Z"/><path class="cls-1" d="M78.63,341.1v-5.52c0-1.36-.3-2.39-1.89-2.39s-2.14,1.26-2.14,2.76v5.15H71.83v-10h2.78v1.22a3.68,3.68,0,0,1,3.13-1.54,3.44,3.44,0,0,1,3.68,4v6.32Z"/><path class="cls-1" d="M96.8,341.1v-5.45c0-1.17-.18-2.46-1.66-2.46-1.63,0-1.91,1.5-1.91,2.81v5.1H90.45v-5.29a4.44,4.44,0,0,0-.21-1.66,1.61,1.61,0,0,0-1.5-1,1.81,1.81,0,0,0-1.56.9,4.14,4.14,0,0,0-.32,1.91v5.1H84.08v-10h2.78v1.13a3.82,3.82,0,0,1,3-1.45,3.38,3.38,0,0,1,3.1,1.82,3.68,3.68,0,0,1,3.27-1.82,3.27,3.27,0,0,1,2.78,1.43,4.38,4.38,0,0,1,.53,2.41v6.44Z"/><path class="cls-1" d="M109.87,341.1v-1.31a3.85,3.85,0,0,1-3.24,1.63c-3,0-4.9-2.48-4.9-5.33a5,5,0,0,1,4.83-5.27,4.15,4.15,0,0,1,3.31,1.59v-1.26h2.81v10Zm-4.81-11.82a1.66,1.66,0,1,1,0-3.31,1.66,1.66,0,1,1,0,3.31Zm2.32,4a2.79,2.79,0,1,0,2.78,2.78A2.78,2.78,0,0,0,107.38,333.32Zm2.46-4a1.68,1.68,0,0,1-1.66-1.66,1.66,1.66,0,1,1,1.66,1.66Z"/><path class="cls-1" d="M121.85,333.67a2.45,2.45,0,0,0-1.33-.35c-1.89,0-2.39,1.33-2.39,3v4.78h-2.78v-10h2.78v1.5a3.25,3.25,0,0,1,4.12-1.59Z"/><path class="cls-1" d="M130.45,341.1l-3.75-4.28-.3.3v4h-2.78V323.87h2.78v10.9l3.73-3.63h3.77l-4.67,4.37,5,5.59Z"/><path class="cls-1" d="M138.32,333.53v7.57h-2.78v-7.57h-1.1v-2.39h1.1v-3.4h2.78v3.4h2v2.39Z"/><path class="cls-1" d="M149.33,341.1v-1.31a3.85,3.85,0,0,1-3.24,1.63c-3,0-4.9-2.48-4.9-5.33a5,5,0,0,1,4.83-5.27,4.15,4.15,0,0,1,3.31,1.59v-1.26h2.8v10Zm-2.48-7.77a2.79,2.79,0,1,0,2.78,2.78A2.78,2.78,0,0,0,146.85,333.32Z"/></svg>