<svg id="Layer_1" data-name="Layer 1" xmlns="http://www.w3.org/2000/svg" viewBox="0 0 980 120"><defs><style>.cls-1{fill:#d4ac76;}</style></defs><title>text</title><path class="cls-1" d="M604.81,48.06c-.26-.43-.6-.43-.69.09l-4.3,14.36c-1.46,4.9-1.29,6.92.52,6.92H602c.34,0,.43.17.43.43l-.17.9c-.09.3-.09.39-.52.39s-2.24-.13-5.16-.13-4.39.13-4.9.13c-.26,0-.34-.17-.3-.47l.13-.9c.09-.17.17-.34.43-.34h.95c2,0,3-1.46,4.3-5.29l5.25-16.6c.82-2.54-.09-3.74-1.89-3.74h-1.63c-.34,0-.43-.17-.34-.52l.17-.77c.09-.26.17-.43.52-.43.52,0,2.24.13,7.31.13.77,0,1,.52,1.29,1.12l9.54,19.87c.34.52.52.43.86-.6l4.56-13.93c1.12-3.48.77-4.86-.69-4.86h-1.29c-.43,0-.52-.09-.43-.43l.09-.95c.09-.17.17-.34.43-.34.52,0,1.89.13,4.9.13,2.24,0,3.1-.13,3.7-.13.43,0,.52.26.43.6l-.17.77c0,.26-.09.34-.34.34h-1.12c-1,0-1.89,1-2.75,3.48l-7.91,22.62a1.77,1.77,0,0,1-.86,1.12,1.24,1.24,0,0,1-1.12-.86Z"/><path class="cls-1" d="M635.21,70c.77-1.38,3.35-6.45,3.87-8.6a11.21,11.21,0,0,0,.52-2.75,6.25,6.25,0,0,0-.34-2,5.62,5.62,0,0,1-.43-1.72A1.91,1.91,0,0,1,641,53.14c1.63,0,2.15,1.2,2.15,2.75,0,1.89-1.55,5.68-3,8.6-2.15,4.21-6.71,11.78-10.45,15.39-1.25,1.2-3.83,3.91-6.49,3.91-1.89,0-2.75-1-2.75-2.24a2.25,2.25,0,0,1,2-2.24,2,2,0,0,1,1.55.77,2,2,0,0,0,1.2.6,3.62,3.62,0,0,0,1.94-.73,18.64,18.64,0,0,0,4.26-4.9,4.35,4.35,0,0,0,.43-2.92c-.09-1.38-1.08-12.81-1.59-14.71-.21-.77-.3-1.12-.82-1.12-.77,0-1.89,2.15-2.24,3.1-.09.26-.17.26-.39.21l-.64-.21c-.17,0-.17-.17-.09-.52.17-.52,2-5.76,5.76-5.76,1.55,0,2.41,1.12,2.67,4.73.34,4.9.52,10,.56,12.13Z"/><path class="cls-1" d="M651.81,59.42c2.06-3.1,4.9-6.28,8.17-6.28,2.67,0,3.44,2.06,3.44,4a20.87,20.87,0,0,1-2.84,9.5c-1.89,3.44-4.3,5.76-7.14,5.76A2.35,2.35,0,0,1,651,70.08a2,2,0,0,1,1.81-2.15,1.52,1.52,0,0,1,1.55,1.46c.09.6.26,1.16.86,1.16.95,0,1.89-2.71,2.58-4.95a27.83,27.83,0,0,0,1.63-7.7c0-1-.26-2-1.29-2-1.89,0-5.07,3.61-6.28,5.16a17,17,0,0,0-2.41,4.39l-2.24,5.25c-.09.26-.21.34-.52.34H643.9c-.39,0-.47-.26-.34-.6l9.2-24a7.27,7.27,0,0,0,.56-2c0-.52-.56-.86-1.33-.86h-1.29a.3.3,0,0,1-.26-.43l.17-.77c.09-.26.17-.34.6-.34H658c.34,0,.52.17.52.43a4.89,4.89,0,0,1-.43,1.33l-6.54,15.39Z"/><path class="cls-1" d="M677.48,66.77c.21.13.21.21.13.39a9.71,9.71,0,0,1-7.65,4.3c-2.84,0-4.56-1.55-4.56-4.56a16,16,0,0,1,5.33-11.09,10.09,10.09,0,0,1,6.45-2.67,2.71,2.71,0,0,1,3,2.54c0,2.19-1.46,4.17-4,5.55A16.05,16.05,0,0,1,670,63a10.12,10.12,0,0,0-.43,3.18A2.49,2.49,0,0,0,671.85,69a6.07,6.07,0,0,0,4.64-2.58c.09-.09.26-.17.34-.09Zm-7.18-5.12A8.71,8.71,0,0,0,674.6,60a4.68,4.68,0,0,0,1.81-3.27c0-.77-.34-1.55-1.29-1.55C673,55.2,670.82,59.33,670.3,61.65Z"/><path class="cls-1" d="M686.51,65.43a11.11,11.11,0,0,0-.77,2.49.72.72,0,0,0,.77.77c1,0,3.66-2.15,3.91-2.41s.26-.17.43,0l.47.52c.17.09.17.17.09.34-.52.69-4.39,4.3-8.26,4.3-1.29,0-1.81-.69-1.81-1.29a7.9,7.9,0,0,1,.43-2.41L686.34,56h-3.18c-.26,0-.34-.09-.26-.43l.34-1.12c.09-.26.17-.34.43-.34H687l1.76-4.56c.17-.43.34-.52,1.12-.6a9.44,9.44,0,0,0,2.92-1.12,3.57,3.57,0,0,1,.69-.26c.26,0,.43.43.26.86l-2.79,5.68h4.43c.17,0,.26.17.17.43l-.34,1.25c0,.17-.17.21-.43.21H690.3Z"/></svg>