<svg id="Layer_1" data-name="Layer 1" xmlns="http://www.w3.org/2000/svg" viewBox="0 0 160 600"><defs><style>.cls-1{fill:#fff;}</style></defs><title>text</title><path class="cls-1" d="M14.69,265.5H8.47c-.51,0-.77-.2-.77-.6v-9.83c0-.41.26-.62.77-.62s.76.21.76.62v9h5.46c.35,0,.52.23.52.69S15,265.5,14.69,265.5Z"/><path class="cls-1" d="M23.06,264c.35,0,.52.21.52.63a.68.68,0,0,1-.52.76,12.79,12.79,0,0,1-2.77.2,4.73,4.73,0,0,1-2.78-.63,2.46,2.46,0,0,1-.84-2.11v-3.12a2.42,2.42,0,0,1,.76-2.1,5.29,5.29,0,0,1,2.85-.54,5.21,5.21,0,0,1,2.81.52,2.45,2.45,0,0,1,.73,2.12v1.35a.92.92,0,0,1-.22.64A.75.75,0,0,1,23,262H18.19v1c0,.84.73,1.25,2.19,1.25a11.84,11.84,0,0,0,1.66-.1A7.92,7.92,0,0,1,23.06,264Zm-4.87-4.26v.87h4.1v-.87a1.06,1.06,0,0,0-.41-1,3.33,3.33,0,0,0-1.62-.26,3.75,3.75,0,0,0-1.63.24A1.1,1.1,0,0,0,18.19,259.78Z"/><path class="cls-1" d="M30.91,263v-.19a.63.63,0,0,0-.4-.59,3.31,3.31,0,0,0-1.38-.18,8.8,8.8,0,0,1-2.2-.31,1.8,1.8,0,0,1-1-.67,2.16,2.16,0,0,1-.4-1.36v-.14a2,2,0,0,1,.86-1.92,5.3,5.3,0,0,1,2.6-.49,10.91,10.91,0,0,1,2.59.22.69.69,0,0,1,.52.77c0,.42-.17.63-.52.63a10.7,10.7,0,0,1-1.07-.11,11.43,11.43,0,0,0-1.7-.12,4.31,4.31,0,0,0-1.33.15q-.42.15-.42.84v.16q0,.9,1.89,1c.53,0,1.05.07,1.59.14a2.41,2.41,0,0,1,1.34.58,1.8,1.8,0,0,1,.55,1.42V263a2.27,2.27,0,0,1-.87,2.08,5.3,5.3,0,0,1-2.78.55,12.49,12.49,0,0,1-2.74-.21.7.7,0,0,1-.53-.77c0-.42.18-.63.53-.63.2,0,.6,0,1.2.11a15.05,15.05,0,0,0,1.74.11,3.6,3.6,0,0,0,1.39-.23A1,1,0,0,0,30.91,263Z"/><path class="cls-1" d="M40.16,254.73v2.63a11.06,11.06,0,0,1,2.13-.23,8.7,8.7,0,0,1,1.6.12,1.94,1.94,0,0,1,1.7,1.53,9.14,9.14,0,0,1,.15,1.86v4.26c0,.4-.26.6-.77.6s-.76-.2-.76-.6v-4.1a8.51,8.51,0,0,0-.07-1.29,1,1,0,0,0-.35-.68,1.33,1.33,0,0,0-.6-.26,9.08,9.08,0,0,0-1.08,0,14.81,14.81,0,0,0-2,.17v6.2c0,.4-.26.6-.76.6s-.76-.2-.77-.6V254.73c0-.41.26-.62.77-.62S40.16,254.32,40.16,254.73Z"/><path class="cls-1" d="M51.5,265.58a1.32,1.32,0,0,1-.82-.27,1.53,1.53,0,0,1-.51-.69l-2.41-6.48a1.61,1.61,0,0,0-.06-.28c0-.4.25-.59.74-.59a.71.71,0,0,1,.75.44l2.27,6.4h.09l2.28-6.4c.11-.29.38-.44.82-.44s.66.2.66.59l-.05.28-2.42,6.48a1.38,1.38,0,0,1-1.34,1Z"/><path class="cls-1" d="M57.71,258.75c-.35,0-.53-.21-.53-.63a.69.69,0,0,1,.53-.76,11.81,11.81,0,0,1,2.76-.23,4,4,0,0,1,2.61.62,2.76,2.76,0,0,1,.68,2.14v3.28c0,1-.24,1.69-.74,2a6,6,0,0,1-2.86.46,5.85,5.85,0,0,1-2.84-.46,2.24,2.24,0,0,1-.72-2,3,3,0,0,1,.55-2.1,3.2,3.2,0,0,1,2.27-.58h2.82v-.88a1,1,0,0,0-.39-.86,3,3,0,0,0-1.39-.23,12.17,12.17,0,0,0-1.73.11A5.82,5.82,0,0,1,57.71,258.75Zm4.53,4.54v-1.44H59.88a3.08,3.08,0,0,0-1.43.21c-.21.15-.32.47-.32,1s.13.85.4,1a4.17,4.17,0,0,0,1.63.21,5,5,0,0,0,1.64-.18A.79.79,0,0,0,62.24,263.29Z"/><path class="cls-1" d="M73.3,265.58a1.32,1.32,0,0,1-.81-.27,1.55,1.55,0,0,1-.52-.69l-2.4-6.48c0-.17-.06-.27-.06-.28,0-.4.25-.59.74-.59a.72.72,0,0,1,.75.44l2.27,6.4h.08l2.29-6.4c.11-.29.38-.44.82-.44s.65.2.65.59a2,2,0,0,1,0,.28l-2.41,6.48a1.41,1.41,0,0,1-1.35,1Z"/><path class="cls-1" d="M79.5,258.75c-.35,0-.53-.21-.53-.63a.69.69,0,0,1,.53-.76,11.81,11.81,0,0,1,2.76-.23,4,4,0,0,1,2.61.62,2.76,2.76,0,0,1,.68,2.14v3.28c0,1-.24,1.69-.74,2a6,6,0,0,1-2.87.46,5.78,5.78,0,0,1-2.83-.46c-.47-.31-.7-1-.7-2a3,3,0,0,1,.55-2.1,3.17,3.17,0,0,1,2.26-.58H84v-.88a1,1,0,0,0-.39-.86,3,3,0,0,0-1.39-.23,12.17,12.17,0,0,0-1.73.11A5.82,5.82,0,0,1,79.5,258.75ZM84,263.29v-1.44H81.68a3,3,0,0,0-1.42.21c-.22.15-.32.47-.32,1s.13.85.4,1a4.07,4.07,0,0,0,1.62.21,4.85,4.85,0,0,0,1.63-.18A.77.77,0,0,0,84,263.29Zm-3-7a1.58,1.58,0,1,1,2.7-1.12,1.5,1.5,0,0,1-.46,1.12,1.59,1.59,0,0,1-2.24,0Zm.44-1.12a.68.68,0,0,0,.2.49.69.69,0,0,0,.49.19.66.66,0,0,0,.48-.2.7.7,0,0,0,.2-.49.66.66,0,0,0-.2-.48.68.68,0,0,0-.49-.2.7.7,0,0,0-.49.2A.67.67,0,0,0,81.5,255.15Z"/><path class="cls-1" d="M89.45,260.67v4.23c0,.4-.26.6-.76.6s-.76-.2-.77-.6v-4.43a5.34,5.34,0,0,1,.27-2.12,2.74,2.74,0,0,1,.51-.72,4.65,4.65,0,0,1,2.73-.5,4.7,4.7,0,0,1,1.48.15.54.54,0,0,1,.37.54.83.83,0,0,1-.2.59.72.72,0,0,1-.53.19l-1.12-.07a4.89,4.89,0,0,0-1.3.1,1,1,0,0,0-.38.19,1.39,1.39,0,0,0-.19.39,1.87,1.87,0,0,0-.1.59C89.45,260,89.45,260.3,89.45,260.67Z"/><path class="cls-1" d="M100.9,264c.35,0,.53.21.53.63a.68.68,0,0,1-.53.76,12.68,12.68,0,0,1-2.76.2,4.71,4.71,0,0,1-2.78-.63,2.5,2.5,0,0,1-.85-2.11v-3.12a2.42,2.42,0,0,1,.77-2.1,7.82,7.82,0,0,1,5.66,0,2.48,2.48,0,0,1,.73,2.12v1.35a.92.92,0,0,1-.23.64.72.72,0,0,1-.57.24H96v1c0,.84.73,1.25,2.18,1.25a11.84,11.84,0,0,0,1.66-.1A8.24,8.24,0,0,1,100.9,264ZM96,259.78v.87h4.1v-.87a1.06,1.06,0,0,0-.42-1,3.31,3.31,0,0,0-1.61-.26,3.75,3.75,0,0,0-1.63.24A1.06,1.06,0,0,0,96,259.78Z"/><path class="cls-1" d="M8.7,275.13v6.55l3.8-3.84a.79.79,0,0,1,.56-.26.73.73,0,0,1,.54.22.66.66,0,0,1,.21.5.78.78,0,0,1-.27.56l-2.19,2,2.7,3.78a.89.89,0,0,1,.17.51.68.68,0,0,1-.24.49.81.81,0,0,1-.57.24.57.57,0,0,1-.5-.28l-2.65-3.72L8.7,283.37v1.93c0,.4-.26.6-.76.6s-.76-.2-.77-.6V275.13c0-.41.26-.62.77-.62S8.7,274.72,8.7,275.13Z"/><path class="cls-1" d="M18.27,284.63h1.58a2.35,2.35,0,0,0,.53-.09,1,1,0,0,0,.44-.26,1.07,1.07,0,0,0,.18-.68c0-.34,0-.7,0-1.09v-4.25c0-.39.26-.59.77-.59s.76.19.76.59v4.44a9.6,9.6,0,0,1-.13,1.84,1.66,1.66,0,0,1-.59,1,2.3,2.3,0,0,1-1,.42,14.62,14.62,0,0,1-1.74.08,14.31,14.31,0,0,1-1.73-.08,2.3,2.3,0,0,1-1-.42,1.6,1.6,0,0,1-.58-1,9.45,9.45,0,0,1-.14-1.84v-4.44c0-.4.26-.59.77-.59s.76.2.76.59v4.25a3.58,3.58,0,0,0,.27,1.85,1,1,0,0,0,.36.18A2.45,2.45,0,0,0,18.27,284.63Z"/><path class="cls-1" d="M26.74,279.22a3.33,3.33,0,0,0-.29,1.84v4.24c0,.4-.25.6-.76.6s-.76-.2-.76-.6v-4.43a8.68,8.68,0,0,1,.15-1.83,1.59,1.59,0,0,1,.59-1,2.32,2.32,0,0,1,1-.43,18.27,18.27,0,0,1,1.88-.09,4.39,4.39,0,0,1,2.71.53,2.23,2.23,0,0,1,.66,1.49,12.23,12.23,0,0,1,.06,1.32v4.43c0,.4-.25.6-.76.6s-.77-.2-.77-.6v-4.24c0-1-.09-1.63-.29-1.83s-.77-.3-1.74-.3S26.92,279,26.74,279.22Z"/><path class="cls-1" d="M41.86,275.13v6.73a10.39,10.39,0,0,1-.18,2.17,2.32,2.32,0,0,1-1.8,1.85,8.19,8.19,0,0,1-1.77.15,8.52,8.52,0,0,1-1.78-.14,2.41,2.41,0,0,1-1.14-.59,2.26,2.26,0,0,1-.67-1.27,10.39,10.39,0,0,1-.18-2.17,10,10,0,0,1,.19-2.2,2.34,2.34,0,0,1,1.8-2,8.72,8.72,0,0,1,2-.17,5.11,5.11,0,0,1,2,.34v-2.75c0-.4.26-.61.77-.61S41.86,274.72,41.86,275.13Zm-5.81,4.78a4.45,4.45,0,0,0-.18,1.52c0,.73,0,1.3.05,1.73a2.16,2.16,0,0,0,.43,1.12,1.37,1.37,0,0,0,1,.34l.76,0c1,0,1.58-.12,1.76-.36a2.28,2.28,0,0,0,.44-1.13c0-.41.06-.84.06-1.28a4.45,4.45,0,0,0-.38-2.4,1.78,1.78,0,0,0-.29-.31,2.06,2.06,0,0,0-1.19-.23H37.34c-.52,0-.85.15-1,.35A4.56,4.56,0,0,0,36.05,279.91Z"/><path class="cls-1" d="M50.48,284.44c.35,0,.53.21.53.63a.68.68,0,0,1-.53.76,12.68,12.68,0,0,1-2.76.2,4.71,4.71,0,0,1-2.78-.63,2.5,2.5,0,0,1-.85-2.11v-3.12a2.42,2.42,0,0,1,.77-2.1,5.25,5.25,0,0,1,2.84-.54,5.26,5.26,0,0,1,2.82.52,2.48,2.48,0,0,1,.73,2.12v1.35a.92.92,0,0,1-.23.64.72.72,0,0,1-.57.24H45.62v1c0,.84.73,1.25,2.18,1.25a13.46,13.46,0,0,0,1.66-.1A8.24,8.24,0,0,1,50.48,284.44Zm-4.86-4.26v.87h4.1v-.87a1.08,1.08,0,0,0-.41-1,3.39,3.39,0,0,0-1.62-.26,3.75,3.75,0,0,0-1.63.24A1.08,1.08,0,0,0,45.62,280.18Z"/><path class="cls-1" d="M55.07,281.07v4.23c0,.4-.26.6-.76.6s-.77-.2-.77-.6v-4.43a5.34,5.34,0,0,1,.27-2.12,3,3,0,0,1,.5-.72,4.71,4.71,0,0,1,2.74-.5,4.7,4.7,0,0,1,1.48.15.54.54,0,0,1,.37.54.79.79,0,0,1-.21.59.69.69,0,0,1-.52.19l-1.12-.07a4.84,4.84,0,0,0-1.3.1,1,1,0,0,0-.38.19,1.45,1.45,0,0,0-.19.38,2.36,2.36,0,0,0-.11.6Z"/><path class="cls-1" d="M69.41,283.4v-.19a.63.63,0,0,0-.4-.59,3.31,3.31,0,0,0-1.38-.18,8.8,8.8,0,0,1-2.2-.31,1.8,1.8,0,0,1-1-.67,2.16,2.16,0,0,1-.4-1.36V280a2,2,0,0,1,.85-1.92,5.37,5.37,0,0,1,2.61-.49,10.91,10.91,0,0,1,2.59.22.69.69,0,0,1,.52.77c0,.42-.17.63-.52.63a10.7,10.7,0,0,1-1.07-.11,11.43,11.43,0,0,0-1.7-.12,4.27,4.27,0,0,0-1.33.15q-.42.15-.42.84v.16q0,.9,1.89,1c.52,0,1.05.07,1.58.14a2.41,2.41,0,0,1,1.35.58,1.8,1.8,0,0,1,.55,1.42v.21a2.27,2.27,0,0,1-.87,2.08,5.3,5.3,0,0,1-2.78.55,12.6,12.6,0,0,1-2.75-.21.7.7,0,0,1-.52-.77c0-.42.18-.63.52-.63s.61,0,1.21.11a15.05,15.05,0,0,0,1.74.11,3.63,3.63,0,0,0,1.39-.23A1,1,0,0,0,69.41,283.4Z"/><path class="cls-1" d="M73.13,275.7a.78.78,0,0,1,.25-.59.82.82,0,0,1,.58-.26.8.8,0,0,1,.59.26.88.88,0,0,1,.24.6.79.79,0,0,1-.25.58.83.83,0,0,1-1.41-.59Zm1.59,2.56v7c0,.4-.25.6-.76.6s-.76-.2-.76-.6v-7c0-.4.25-.59.76-.59S74.72,277.86,74.72,278.26Z"/><path class="cls-1" d="M83.55,284.44c.35,0,.53.21.53.63a.68.68,0,0,1-.53.76,12.68,12.68,0,0,1-2.76.2A4.73,4.73,0,0,1,78,285.4a2.5,2.5,0,0,1-.85-2.11v-3.12a2.42,2.42,0,0,1,.77-2.1,5.25,5.25,0,0,1,2.84-.54,5.26,5.26,0,0,1,2.82.52,2.48,2.48,0,0,1,.73,2.12v1.35a.92.92,0,0,1-.23.64.72.72,0,0,1-.57.24H78.69v1c0,.84.73,1.25,2.18,1.25a13.46,13.46,0,0,0,1.66-.1A8.24,8.24,0,0,1,83.55,284.44Zm-4.86-4.26v.87h4.1v-.87a1.08,1.08,0,0,0-.41-1,3.39,3.39,0,0,0-1.62-.26,3.75,3.75,0,0,0-1.63.24A1.08,1.08,0,0,0,78.69,280.18Z"/><path class="cls-1" d="M88.14,281.07v4.23c0,.4-.26.6-.76.6s-.77-.2-.77-.6v-4.43a5.34,5.34,0,0,1,.27-2.12,3,3,0,0,1,.5-.72,7.62,7.62,0,0,1,4.22-.35.54.54,0,0,1,.37.54.79.79,0,0,1-.21.59.69.69,0,0,1-.52.19l-1.12-.07a4.84,4.84,0,0,0-1.3.1,1,1,0,0,0-.38.19,1.45,1.45,0,0,0-.19.38,2.36,2.36,0,0,0-.11.6Z"/><path class="cls-1" d="M97.28,281.86a10.71,10.71,0,0,1,.18-2.2,2.36,2.36,0,0,1,1.81-2,9.35,9.35,0,0,1,3.55,0,2.39,2.39,0,0,1,1.15.64,2.68,2.68,0,0,1,.67,1.31,12.77,12.77,0,0,1,0,4.39,2.34,2.34,0,0,1-.68,1.26,2.48,2.48,0,0,1-1.14.58,8.31,8.31,0,0,1-1.77.15,8.46,8.46,0,0,1-1.78-.14,2.44,2.44,0,0,1-1.15-.59,2.25,2.25,0,0,1-.66-1.27A9.75,9.75,0,0,1,97.28,281.86Zm1.7-1.95a4.45,4.45,0,0,0-.18,1.52c0,.73,0,1.3.06,1.73a2.08,2.08,0,0,0,.43,1.12,1.35,1.35,0,0,0,1,.34l.76,0c1,0,1.58-.12,1.75-.36a2.19,2.19,0,0,0,.44-1.13c0-.41.06-.84.06-1.28a4.49,4.49,0,0,0-.37-2.4,2.26,2.26,0,0,0-.29-.31,2.06,2.06,0,0,0-1.19-.23h-1.17c-.52,0-.85.15-1,.35A5.78,5.78,0,0,0,99,279.91Z"/><path class="cls-1" d="M115.56,278.93q-.69,0-1,0a1,1,0,0,0-.53.25.9.9,0,0,0-.27.57,9.52,9.52,0,0,0,0,1.08v4.44c0,.4-.26.6-.77.6s-.76-.2-.76-.6v-4.67c0-.78-.1-1.26-.31-1.44a2.14,2.14,0,0,0-1.27-.26q-1,0-1.26,0a.8.8,0,0,0-.52.27,1,1,0,0,0-.25.62c0,.25,0,.65,0,1.21v4.24c0,.4-.26.6-.76.6s-.77-.2-.77-.6v-4.43a5.54,5.54,0,0,1,.39-2.45,1.85,1.85,0,0,1,1.6-.83c.32,0,.77,0,1.36-.06A4.58,4.58,0,0,1,113,278a4.76,4.76,0,0,1,2.58-.48c.59,0,1,0,1.36.05a1.92,1.92,0,0,1,1.58.79,5.54,5.54,0,0,1,.42,2.5v4.43c0,.4-.26.6-.77.6s-.76-.2-.76-.6v-4.24a11.71,11.71,0,0,0,0-1.21,1,1,0,0,0-.25-.61.77.77,0,0,0-.52-.28C116.36,278.94,116,278.93,115.56,278.93Z"/><path class="cls-1" d="M125.28,281.86a10.61,10.61,0,0,1,.19-2.2,2.36,2.36,0,0,1,1.81-2,9.35,9.35,0,0,1,3.55,0,2.39,2.39,0,0,1,1.15.64,2.68,2.68,0,0,1,.67,1.31,10.68,10.68,0,0,1,.19,2.2,10.57,10.57,0,0,1-.19,2.19,2.34,2.34,0,0,1-.68,1.26,2.48,2.48,0,0,1-1.14.58,8.31,8.31,0,0,1-1.77.15,8.46,8.46,0,0,1-1.78-.14,2.39,2.39,0,0,1-1.15-.59,2.32,2.32,0,0,1-.67-1.27A10.39,10.39,0,0,1,125.28,281.86Zm1.71-1.95a4.45,4.45,0,0,0-.18,1.52c0,.73,0,1.3.06,1.73a2.08,2.08,0,0,0,.43,1.12,1.32,1.32,0,0,0,1,.34l.77,0c1,0,1.57-.12,1.75-.36a2.19,2.19,0,0,0,.44-1.13c0-.41.06-.84.06-1.28a4.59,4.59,0,0,0-.37-2.4,3.11,3.11,0,0,0-.29-.31,2.1,2.1,0,0,0-1.2-.23h-1.16c-.52,0-.85.15-1,.35A4.35,4.35,0,0,0,127,279.91Z"/><path class="cls-1" d="M140.17,283.4v-.19a.63.63,0,0,0-.39-.59,3.37,3.37,0,0,0-1.39-.18,8.67,8.67,0,0,1-2.19-.31,1.83,1.83,0,0,1-1-.67,2.22,2.22,0,0,1-.4-1.36V280a2,2,0,0,1,.86-1.92,5.35,5.35,0,0,1,2.6-.49,10.85,10.85,0,0,1,2.59.22.7.7,0,0,1,.53.77c0,.42-.18.63-.53.63-.18,0-.53,0-1.07-.11a11.34,11.34,0,0,0-1.7-.12,4.36,4.36,0,0,0-1.33.15q-.42.15-.42.84v.16q0,.9,1.89,1c.53,0,1.06.07,1.59.14a2.38,2.38,0,0,1,1.34.58,1.76,1.76,0,0,1,.55,1.42v.21a2.29,2.29,0,0,1-.86,2.08,5.35,5.35,0,0,1-2.78.55,12.54,12.54,0,0,1-2.75-.21.69.69,0,0,1-.52-.77c0-.42.17-.63.52-.63.2,0,.61,0,1.2.11a15.09,15.09,0,0,0,1.75.11,3.54,3.54,0,0,0,1.38-.23A1,1,0,0,0,140.17,283.4Z"/><path class="cls-1" d="M148.62,283.4v-.19a.64.64,0,0,0-.4-.59,3.37,3.37,0,0,0-1.39-.18,8.67,8.67,0,0,1-2.19-.31,1.83,1.83,0,0,1-1-.67,2.22,2.22,0,0,1-.39-1.36V280a2,2,0,0,1,.85-1.92,5.37,5.37,0,0,1,2.61-.49,10.91,10.91,0,0,1,2.59.22.69.69,0,0,1,.52.77c0,.42-.17.63-.52.63a10.43,10.43,0,0,1-1.07-.11,11.47,11.47,0,0,0-1.71-.12,4.24,4.24,0,0,0-1.32.15c-.29.1-.43.38-.43.84v.16c0,.6.63.92,1.9,1,.52,0,1.05.07,1.58.14a2.44,2.44,0,0,1,1.35.58,1.76,1.76,0,0,1,.54,1.42v.21a2.27,2.27,0,0,1-.86,2.08,5.3,5.3,0,0,1-2.78.55,12.6,12.6,0,0,1-2.75-.21.69.69,0,0,1-.52-.77c0-.42.17-.63.52-.63s.61,0,1.21.11a14.78,14.78,0,0,0,1.74.11,3.54,3.54,0,0,0,1.38-.23A1,1,0,0,0,148.62,283.4Z"/></svg>