<svg id="Layer_1" data-name="Layer 1" xmlns="http://www.w3.org/2000/svg" viewBox="0 0 160 600"><defs><style>.cls-1{fill:#d80201;}</style></defs><title>text</title><path class="cls-1" d="M15,256.58V272.1H11.33V256.58H7.15v-3.16h12v3.16Z"/><path class="cls-1" d="M28.15,263.05a3,3,0,0,0-1.62-.42c-2.3,0-2.91,1.62-2.91,3.64v5.82H20.23V260h3.39v1.82a4,4,0,0,1,5-1.93Z"/><path class="cls-1" d="M39.58,272.1v-1.6a4.68,4.68,0,0,1-3.95,2c-3.64,0-6-3-6-6.5s2.32-6.41,5.88-6.41a5.05,5.05,0,0,1,4,1.93V260H43V272.1Zm-3-9.46A3.4,3.4,0,1,0,39.94,266,3.38,3.38,0,0,0,36.55,262.63Zm-.48-4.79a2.52,2.52,0,0,1,0-5,2.52,2.52,0,0,1,0,5Zm0-3.5a1,1,0,1,0,1,1A1,1,0,0,0,36.08,254.34Z"/><path class="cls-1" d="M54.53,272.1v-6.72c0-1.65-.36-2.91-2.3-2.91-2.1,0-2.6,1.54-2.6,3.36v6.27H46.24V260h3.39v1.48a4.48,4.48,0,0,1,3.81-1.88,4.19,4.19,0,0,1,4.48,4.82v7.7Z"/><path class="cls-1" d="M72.42,276.49a6.61,6.61,0,0,1-5.15,2.13c-3.11,0-6.1-1.79-6.44-5.1H64.5a2.7,2.7,0,0,0,2.88,2.21c2.13,0,3-1.48,3-3.44v-1.82a5,5,0,0,1-4.09,2c-3.58,0-5.77-2.88-5.77-6.3s2.24-6.61,5.94-6.61a4.54,4.54,0,0,1,3.92,2V260h3.42v11.68C73.79,273.55,73.71,275,72.42,276.49Zm-5-13.86A3.4,3.4,0,1,0,70.8,266,3.38,3.38,0,0,0,67.41,262.63Z"/><path class="cls-1" d="M84.4,272.49a4.77,4.77,0,0,1-4-2v1.6H77v-21h3.39v10.39a5.15,5.15,0,0,1,4.06-1.93c3.56,0,5.91,3,5.91,6.41S88,272.49,84.4,272.49Zm-.92-9.86A3.4,3.4,0,1,0,86.87,266,3.38,3.38,0,0,0,83.48,262.63Z"/><path class="cls-1" d="M99.27,272.49c-3.86,0-6.94-2.41-6.94-6.44s3.08-6.47,7-6.47,6.89,2.44,6.89,6.44S103.11,272.49,99.27,272.49Zm0-9.86a3.4,3.4,0,1,0,3.44,3.42A3.43,3.43,0,0,0,99.24,262.63Z"/><path class="cls-1" d="M118.06,272.1v-1.6a4.68,4.68,0,0,1-3.95,2c-3.64,0-6-3-6-6.5s2.32-6.41,5.88-6.41a5.05,5.05,0,0,1,4,1.93V251.13h3.42v21Zm-3-9.46a3.4,3.4,0,1,0,3.39,3.39A3.38,3.38,0,0,0,115,262.63Z"/><path class="cls-1" d="M134,272.1v-1.6a4.68,4.68,0,0,1-3.95,2c-3.64,0-6-3-6-6.5s2.32-6.41,5.88-6.41a5.05,5.05,0,0,1,4,1.93V251.13h3.42v21Zm-3-9.46a3.4,3.4,0,1,0,3.39,3.39A3.38,3.38,0,0,0,131,262.63Z"/><path class="cls-1" d="M149.92,272.1v-1.6a4.68,4.68,0,0,1-3.95,2c-3.64,0-6-3-6-6.5s2.32-6.41,5.88-6.41a5.05,5.05,0,0,1,4,1.93V260h3.42V272.1Zm-3-9.46a3.4,3.4,0,1,0,3.39,3.39A3.38,3.38,0,0,0,146.9,262.63Z"/><path class="cls-1" d="M16.87,305.7V299c0-1.65-.36-2.91-2.3-2.91-2.1,0-2.6,1.54-2.6,3.36v6.27H8.58V293.57H12v1.48a4.48,4.48,0,0,1,3.81-1.88,4.65,4.65,0,0,1,3.53,1.46,4.67,4.67,0,0,1,1,3.36v7.7Z"/><path class="cls-1" d="M32.77,305.7v-1.6a4.68,4.68,0,0,1-3.95,2c-3.64,0-6-3-6-6.5s2.32-6.41,5.88-6.41a5.05,5.05,0,0,1,4,1.93v-1.54h3.42V305.7ZM26.92,291.3a2,2,0,1,1,0-4,2,2,0,1,1,0,4Zm2.83,4.93a3.4,3.4,0,1,0,3.39,3.39A3.38,3.38,0,0,0,29.75,296.23Zm3-4.93a2,2,0,0,1-2-2,2,2,0,1,1,2,2Z"/><path class="cls-1" d="M47.36,296.65a3,3,0,0,0-1.62-.42c-2.3,0-2.91,1.62-2.91,3.64v5.82H39.44V293.57h3.39v1.82a4,4,0,0,1,5-1.93Z"/><path class="cls-1" d="M60,296.48v9.21H56.63v-9.21H55.31v-2.91h1.32v-3.89a5.91,5.91,0,0,1,.53-2.86,4.8,4.8,0,0,1,4.2-2.44,4,4,0,0,1,1.79.42v3.11a3.38,3.38,0,0,0-1.54-.45c-1.51,0-1.6,1.57-1.6,2.72v3.39h3.14v2.91Z"/><path class="cls-1" d="M74,305.7v-1.6a4.68,4.68,0,0,1-3.95,2c-3.64,0-6-3-6-6.5s2.32-6.41,5.88-6.41a5.05,5.05,0,0,1,4,1.93v-1.54H77.4V305.7Zm-3-9.46a3.4,3.4,0,1,0,3.39,3.39A3.38,3.38,0,0,0,71,296.23Z"/><path class="cls-1" d="M96.14,305.7v-6.64c0-1.43-.22-3-2-3-2,0-2.32,1.82-2.32,3.42v6.22H88.41v-6.44a5.4,5.4,0,0,0-.25-2,2,2,0,0,0-1.82-1.18,2.21,2.21,0,0,0-1.9,1.09,5,5,0,0,0-.39,2.32v6.22H80.65V293.57H84v1.37a4.66,4.66,0,0,1,3.7-1.76,4.12,4.12,0,0,1,3.78,2.21,4.48,4.48,0,0,1,4-2.21,4,4,0,0,1,3.39,1.74,5.34,5.34,0,0,1,.64,2.94v7.84Z"/><path class="cls-1" d="M104.42,290.49a2,2,0,1,1,0-4.09,2,2,0,0,1,0,4.09Zm-1.71,15.2V293.57h3.39V305.7Z"/><path class="cls-1" d="M109.29,305.7v-21h3.39v21Z"/><path class="cls-1" d="M117.58,290.49a2,2,0,0,1,0-4.09,2,2,0,0,1,0,4.09Zm-1.71,21.67V293.57h3.39v18.59Z"/><path class="cls-1" d="M125.28,300.18c.06,1.88,1,3.25,3,3.25a3.18,3.18,0,0,0,2.88-1.62l3.14.5a6,6,0,0,1-6,3.78,6.08,6.08,0,0,1-6.5-6.47c0-3.86,2.46-6.44,6.36-6.44s6.19,2.69,6.19,6.55v.45Zm2.94-4.59a2.75,2.75,0,0,0-2.83,2.44h5.74A2.81,2.81,0,0,0,128.22,295.59Z"/><path class="cls-1" d="M145.25,305.7V299c0-1.65-.36-2.91-2.3-2.91-2.1,0-2.6,1.54-2.6,3.36v6.27H137V293.57h3.39v1.48a4.48,4.48,0,0,1,3.81-1.88,4.19,4.19,0,0,1,4.48,4.82v7.7Z"/><path class="cls-1" d="M14.74,339.55H13.17L7,327.17h3.81L14,334l3.19-6.83H21Z"/><path class="cls-1" d="M31.91,339.3v-1.6a4.68,4.68,0,0,1-3.95,2c-3.64,0-6-3-6-6.5s2.32-6.41,5.88-6.41a5.05,5.05,0,0,1,4,1.93v-1.54h3.42V339.3ZM26.05,324.9a2,2,0,1,1,0-4,2,2,0,1,1,0,4Zm2.83,4.93a3.4,3.4,0,1,0,3.39,3.39A3.38,3.38,0,0,0,28.88,329.83Zm3-4.93a2,2,0,0,1-2-2,2,2,0,1,1,2,2Z"/><path class="cls-1" d="M48.34,339.3l-3.47-4.23-3.53,4.23H37l5.77-6.61-4.65-5.52h4.28l2.49,3.14,2.55-3.14h4.31L47,332.69l5.68,6.61Z"/><path class="cls-1" d="M56.49,333.78c.06,1.88,1,3.25,3,3.25a3.18,3.18,0,0,0,2.88-1.62l3.14.5a5.94,5.94,0,0,1-6,3.78,6.08,6.08,0,0,1-6.5-6.47c0-3.86,2.46-6.44,6.36-6.44s6.19,2.69,6.19,6.55v.45Zm2.94-4.59a2.75,2.75,0,0,0-2.83,2.44h5.74A2.81,2.81,0,0,0,59.43,329.19Z"/><path class="cls-1" d="M76.09,330.25a3,3,0,0,0-1.62-.42c-2.3,0-2.91,1.62-2.91,3.64v5.82H68.16V327.17h3.39V329a4,4,0,0,1,5-1.93Z"/><path class="cls-1" d="M84.54,330.67v2.38H81.1v-4.93a5.47,5.47,0,0,0,1,.11c1.71,0,3.53-.87,3.53-2.8a2.11,2.11,0,0,0-2.16-2.16,2,2,0,0,0-2,2c0,.11,0,.22,0,.34H77.82v-.34c0-3.05,2.86-5,5.71-5a5.42,5.42,0,0,1,5.66,5.26C89.19,328.35,87.12,330.06,84.54,330.67Zm-1.65,9a2.18,2.18,0,1,1,2.18-2.18A2.19,2.19,0,0,1,82.89,339.66Z"/></svg>