<svg xmlns="http://www.w3.org/2000/svg" xmlns:xlink="http://www.w3.org/1999/xlink" viewBox="0 0 584.32 586.51"><defs><style>.cls-1{fill:none;}.cls-2{clip-path:url(#clip-path);}.cls-3{fill:#fff;}.cls-4{clip-path:url(#clip-path-3);}.cls-5{fill:#00965b;}.cls-6{fill:#12120d;}</style><clipPath id="clip-path" transform="translate(-73.86 -32.38)"><rect class="cls-1" width="721.21" height="686.31"/></clipPath><clipPath id="clip-path-3" transform="translate(-73.86 -32.38)"><rect class="cls-1" x="145.27" y="118.85" width="441.51" height="432.73"/></clipPath></defs><title>Asset 1svanen</title><g id="Layer_2" data-name="Layer 2"><g id="Lager_1" data-name="Lager 1"><g class="cls-2"><g class="cls-2"><path class="cls-3" d="M366,618.89c161.36,0,292.16-131.29,292.16-293.25S527.38,32.38,366,32.38,73.86,163.68,73.86,325.64,204.67,618.89,366,618.89" transform="translate(-73.86 -32.38)"/></g><g class="cls-4"><path class="cls-5" d="M239.4,420a6.49,6.49,0,1,0-6.49-6.48A6.48,6.48,0,0,0,239.4,420" transform="translate(-73.86 -32.38)"/><path class="cls-5" d="M231.42,506.72a221.73,221.73,0,0,1-31.59-29.08l30.26-40.76h53.56Z" transform="translate(-73.86 -32.38)"/><path class="cls-5" d="M276.82,533.19a221,221,0,0,1-34.58-18.8l58.2-77.5H349Z" transform="translate(-73.86 -32.38)"/><path class="cls-5" d="M333.63,549.26a220.4,220.4,0,0,1-43.7-10.87l75.78-101.51h51.85Z" transform="translate(-73.86 -32.38)"/><path class="cls-5" d="M407,547.88A227.14,227.14,0,0,1,366,551.59c-5.7,0-11.37-.22-17-.64l85.28-114.06h55.79Z" transform="translate(-73.86 -32.38)"/><path class="cls-5" d="M560.91,437a220.45,220.45,0,0,1-134,106.23l80-106.38Z" transform="translate(-73.86 -32.38)"/><path class="cls-5" d="M586.78,330.34c-.16-6.92-.66-13.75-1.45-20.5L507.06,414.26h16.77Z" transform="translate(-73.86 -32.38)"/><path class="cls-5" d="M571,254.7q-3-7.26-6.45-14.26L434.5,414.25h16.75Z" transform="translate(-73.86 -32.38)"/><path class="cls-5" d="M540.66,202.79c-2.88-3.62-5.84-7.16-8.92-10.59L365.85,414.25h16.8Z" transform="translate(-73.86 -32.38)"/><path class="cls-5" d="M492.23,157.65a220.36,220.36,0,0,0-37.92-20.81L255.85,402.42a66.15,66.15,0,0,1,13,7.92c8.47,6.5,29.66,6.7,36.39-2.33Z" transform="translate(-73.86 -32.38)"/><path class="cls-5" d="M166.1,427.1l229-306.38a222.59,222.59,0,0,1,46.28,11.06l-199.48,267c-26.34-3.3-18.73,27.31-75.83,28.34" transform="translate(-73.86 -32.38)"/><path class="cls-5" d="M145.29,338.74c0-1.17,0-2.34,0-3.51,0-98,66.41-180.71,157.52-207.37Z" transform="translate(-73.86 -32.38)"/><path class="cls-5" d="M323,123a226.42,226.42,0,0,1,43-4.1q6.79,0,13.48.4L160,413.08a211.44,211.44,0,0,1-13.37-53.85Z" transform="translate(-73.86 -32.38)"/><path class="cls-5" d="M191,467a216.33,216.33,0,0,1-19.81-30h42.21Z" transform="translate(-73.86 -32.38)"/></g><path class="cls-6" d="M238.21,126.83c-2.47-3.7-5.43-8.14-7.41-11.58l-.12.07c1,3.77,1.85,7.85,2.71,12.45l3,16.14-2.68,1.59-12.16-10.41c-3.58-3.09-6.77-6-9.47-8.76l-.08,0c1.94,3.46,4.45,8.16,6.64,12.41L224.91,151l-3.37,2-14.32-28.5,4.51-2.68,12.52,10.47c3.13,2.7,5.85,5.15,8.22,7.58l.13-.07c-.95-3.17-1.76-6.75-2.59-10.93l-3-16.12,4.51-2.68,17.93,26.36L246,138.44Z" transform="translate(-73.86 -32.38)"/><path class="cls-6" d="M250.57,101.36l12.76,29.15-3.76,1.65L246.81,103Z" transform="translate(-73.86 -32.38)"/><path class="cls-6" d="M261.54,96.74l3.87-1.37,9.45,26.75,12.82-4.53,1.15,3.25-16.69,5.9Z" transform="translate(-73.86 -32.38)"/><path class="cls-6" d="M297.75,85.48l4-.9,4.63,20.78c1.84,8.25-1.65,11.69-7,12.88a13.25,13.25,0,0,1-4.45.22l-.13-3.4a10.12,10.12,0,0,0,3.49-.15c3.6-.81,5.36-2.89,4-9Z" transform="translate(-73.86 -32.38)"/><path class="cls-6" d="M349.11,93.4c1.09,10.9-4.95,17.34-13,18.15-8.36.84-14.89-5-15.85-14.63-1-10.06,4.58-17.26,13-18.11C341.91,78,348.17,84,349.11,93.4Zm-24.52,3c.68,6.77,5,12.46,11.39,11.81s9.55-7,8.83-14.17c-.64-6.29-4.58-12.54-11.39-11.85S323.9,89.43,324.59,96.38Zm1.41-21a2.32,2.32,0,0,1,2.07-2.58A2.39,2.39,0,1,1,326,75.41Zm8.69-.87A2.33,2.33,0,0,1,336.8,72a2.25,2.25,0,0,1,2.49,2.12,2.28,2.28,0,0,1-2.06,2.63A2.31,2.31,0,0,1,334.69,74.54Z" transform="translate(-73.86 -32.38)"/><path class="cls-6" d="M388.26,96.25c-.05-4.44-.1-9.79.12-13.75h-.15c-1.24,3.68-2.73,7.58-4.52,11.9l-6.28,15.18-3.11-.13-4.49-15.36c-1.32-4.55-2.42-8.71-3.15-12.52h-.1c-.26,4-.72,9.27-1.21,14l-1.44,13.59L360,109l3.58-31.69,5.24.22,4.76,15.61c1.15,4,2.09,7.51,2.75,10.85h.14c.94-3.17,2.22-6.61,3.81-10.56l6.32-15.13,5.23.22.62,31.88-4-.17Z" transform="translate(-73.86 -32.38)"/><path class="cls-6" d="M410.48,103.31l-5.33,9.1-4.15-.89,17.23-28.85,4.84,1,4,33.39-4.29-.92-1.23-10.5Zm10.87-1-1.13-9.61c-.26-2.18-.32-4.13-.4-6l-.09,0c-.86,1.75-1.77,3.54-2.78,5.3l-5,8.35Zm-6.15-25A2.31,2.31,0,0,1,418,75.57,2.39,2.39,0,0,1,417,80.22,2.31,2.31,0,0,1,415.2,77.38Zm8.59,1.84a2.3,2.3,0,0,1,2.76-1.82,2.25,2.25,0,0,1,1.72,2.78,2.29,2.29,0,1,1-4.48-1Z" transform="translate(-73.86 -32.38)"/><path class="cls-6" d="M444.81,89.33a42.55,42.55,0,0,1,7.67,2c4.15,1.43,6.57,3.11,7.86,5.46a7.93,7.93,0,0,1,.39,6.52,8.34,8.34,0,0,1-8.32,5.72l0,.14c2,1.6,2.69,4.22,2.32,7.59-.46,4.54-.75,7.68-.53,9.06l-4-1.39c-.2-1,0-3.83.47-7.88.54-4.45-.53-6.57-4-7.92L443,107.32l-4.5,13L434.57,119Zm-.84,15,4,1.37c4.15,1.43,7.57.07,8.75-3.37,1.34-3.88-.88-6.55-5-8a17.06,17.06,0,0,0-4-1Z" transform="translate(-73.86 -32.38)"/><path class="cls-6" d="M481.07,102.15l3.64,1.9-7.1,13.61.13.06c1.32-.69,2.59-1.31,3.79-1.86l14.14-6.09,4.52,2.36-16.45,6.64,2.53,22L482,138.51l-2.06-18.7-4.3,1.7L470,132.26l-3.64-1.9Z" transform="translate(-73.86 -32.38)"/><path class="cls-6" d="M516.58,126.08l-8-5.52,2-2.87L530,131.13,528,134l-8-5.55-16.16,23.27-3.41-2.37Z" transform="translate(-73.86 -32.38)"/></g></g></g></svg>