<svg id="Layer_1" data-name="Layer 1" xmlns="http://www.w3.org/2000/svg" viewBox="0 0 980 240"><defs><style>.cls-1{fill:#fff;}</style></defs><title>text</title><path class="cls-1" d="M205.27,122.55c-4,4.34-10.36,3.66-15.75,3.66v15.31h-8.06V100.17h12c4.09,0,7.68.31,10.91,3.16a13.17,13.17,0,0,1,4.21,10A13.6,13.6,0,0,1,205.27,122.55Zm-7.07-14.08c-1.55-1.24-4-1.3-5.89-1.3h-2.79v12h3.29c4,0,7.5-1.3,7.5-6A6.16,6.16,0,0,0,198.2,108.47Z"/><path class="cls-1" d="M231,121.49a6.66,6.66,0,0,0-3.6-.93c-5.08,0-6.45,3.6-6.45,8.06v12.9h-7.5V114.67H221v4c1.74-3,4.22-4.89,7.81-4.89a8.51,8.51,0,0,1,3.29.62Z"/><path class="cls-1" d="M239.43,107.85a4.53,4.53,0,1,1,0-9,4.53,4.53,0,0,1,0,9Zm-3.78,33.67V114.67h7.5v26.85Z"/><path class="cls-1" d="M258.77,142.39a14.3,14.3,0,0,1-10.23-4.47l4-4.59a8.71,8.71,0,0,0,6.32,3.17,3.16,3.16,0,0,0,3.41-3c0-4.59-12-2.29-12-11.34,0-5.46,4.52-8.5,9.61-8.5a13.85,13.85,0,0,1,8.74,2.85l-3.72,4.41a7.44,7.44,0,0,0-4.47-1.8c-1.3,0-2.85.8-2.85,2.29,0,3.91,12.4,2.17,12.4,11.35C270,139,264.54,142.39,258.77,142.39Z"/><path class="cls-1" d="M311.35,141.52V138a10.38,10.38,0,0,1-8.75,4.41c-8.06,0-13.2-6.7-13.2-14.39,0-7.5,5.14-14.19,13-14.19a11.19,11.19,0,0,1,8.93,4.27v-23h7.56v46.44Zm-6.7-21a7.54,7.54,0,1,0,7.5,7.5A7.49,7.49,0,0,0,304.65,120.56Z"/><path class="cls-1" d="M329.76,107.85a4.53,4.53,0,1,1,0-9,4.53,4.53,0,0,1,0,9ZM326,141.52V114.67h7.5v26.85Z"/><path class="cls-1" d="M358.09,121.49a6.65,6.65,0,0,0-3.59-.93c-5.09,0-6.45,3.6-6.45,8.06v12.9h-7.5V114.67h7.5v4c1.74-3,4.21-4.89,7.81-4.89a8.51,8.51,0,0,1,3.29.62Z"/><path class="cls-1" d="M369.13,129.3c.12,4.16,2.11,7.2,6.57,7.2a7,7,0,0,0,6.39-3.6L389,134c-2.36,5.76-7.13,8.37-13.21,8.37-8.68,0-14.38-5.58-14.38-14.33,0-8.55,5.46-14.25,14.07-14.25,8.87,0,13.71,6,13.71,14.5v1Zm6.51-10.16c-3.41,0-5.64,2.11-6.26,5.39h12.71C381.34,121.18,379.17,119.14,375.64,119.14Z"/><path class="cls-1" d="M413.4,141.52,403.29,130l-.81.8v10.73H395V95.08h7.5v29.39l10-9.8h10.16l-12.58,11.78,13.58,15.07Z"/><path class="cls-1" d="M434.6,121.12v20.4h-7.5v-20.4h-3v-6.45h3V105.5h7.5v9.17h5.27v6.45Z"/><path class="cls-1" d="M462.93,107.85a4.53,4.53,0,1,1,4.47-4.52A4.54,4.54,0,0,1,462.93,107.85Zm-3.78,33.67V114.67h7.5v26.85Z"/><path class="cls-1" d="M504.29,141.52H490.4V100.17h10.23c3.35,0,7.44.31,10.1,2.48a11,11,0,0,1,3.72,8.49c0,3.66-1.24,6.45-4.52,8.31a9.38,9.38,0,0,1,5.39,2.6,11.16,11.16,0,0,1,3,7.75C518.3,138.05,511.72,141.52,504.29,141.52Zm-3.48-34.78h-2.35V117.4h2.29c3.6,0,6.26-1.42,6.26-5.33S504.41,106.74,500.81,106.74Zm1.37,16.8h-3.72V135h3.47c4,0,8.06-.93,8.06-5.77C510,124.66,506,123.54,502.18,123.54Z"/><path class="cls-1" d="M532.37,155.9h-8.49l9.86-18.41L521,114.67h8.74l8.06,15.25,7.68-15.25h8.56Z"/><path class="cls-1" d="M582.65,151.25c-2.85,3.35-7.13,4.71-11.41,4.71-6.88,0-13.51-4-14.25-11.28h8.12c.8,3.29,3,4.9,6.38,4.9,4.71,0,6.64-3.29,6.64-7.63v-4c-2.55,2.92-5.15,4.47-9.06,4.47-7.93,0-12.77-6.39-12.77-13.95s5-14.63,13.15-14.63c3.84,0,6.32,1.36,8.68,4.34v-3.48h7.56v25.86C585.69,144.74,585.5,147.9,582.65,151.25Zm-11.1-30.69a7.54,7.54,0,1,0,7.51,7.5A7.49,7.49,0,0,0,571.55,120.56Z"/><path class="cls-1" d="M617.8,151.25C615,154.6,610.67,156,606.4,156c-6.88,0-13.52-4-14.26-11.28h8.12c.81,3.29,3,4.9,6.39,4.9,4.71,0,6.63-3.29,6.63-7.63v-4c-2.54,2.92-5.15,4.47-9,4.47-7.94,0-12.77-6.39-12.77-13.95s5-14.63,13.14-14.63c3.84,0,6.32,1.36,8.68,4.34v-3.48h7.56v25.86C620.84,144.74,620.66,147.9,617.8,151.25Zm-11.09-30.69a7.54,7.54,0,1,0,7.5,7.5A7.48,7.48,0,0,0,606.71,120.56Z"/><path class="cls-1" d="M657.48,142.39c-8.55,0-15.37-5.34-15.37-14.26s6.82-14.32,15.44-14.32,15.25,5.39,15.25,14.25S666,142.39,657.48,142.39Zm-.06-21.83a7.54,7.54,0,1,0,7.63,7.57A7.59,7.59,0,0,0,657.42,120.56Z"/><path class="cls-1" d="M696.92,141.52V126.64c0-3.66-.81-6.45-5.09-6.45-4.65,0-5.76,3.41-5.76,7.44v13.89h-7.51V114.67h7.51V118c2.48-2.85,4.58-4.15,8.43-4.15a10.3,10.3,0,0,1,7.81,3.22c1.92,2.23,2.11,4.65,2.11,7.44v17.05Z"/><path class="cls-1" d="M711.61,141.52V95.08h7.5v46.44Z"/><path class="cls-1" d="M730,107.85a4.53,4.53,0,1,1,4.47-4.52A4.54,4.54,0,0,1,730,107.85Zm-3.78,33.67V114.67h7.5v26.85Z"/><path class="cls-1" d="M759.1,141.52V126.64c0-3.66-.81-6.45-5.08-6.45-4.65,0-5.77,3.41-5.77,7.44v13.89h-7.5V114.67h7.5V118c2.48-2.85,4.59-4.15,8.43-4.15a10.3,10.3,0,0,1,7.81,3.22c1.93,2.23,2.11,4.65,2.11,7.44v17.05Z"/><path class="cls-1" d="M780.06,129.3c.12,4.16,2.1,7.2,6.57,7.2a7,7,0,0,0,6.38-3.6l7,1.12c-2.36,5.76-7.13,8.37-13.21,8.37-8.68,0-14.38-5.58-14.38-14.33,0-8.55,5.45-14.25,14.07-14.25,8.87,0,13.7,6,13.7,14.5v1Zm6.51-10.16c-3.41,0-5.65,2.11-6.27,5.39H793C792.27,121.18,790.1,119.14,786.57,119.14Z"/></svg>