<svg id="Layer_1" data-name="Layer 1" xmlns="http://www.w3.org/2000/svg" viewBox="0 0 980 240"><defs><style>.cls-1{fill:#fff;}</style></defs><title>text</title><path class="cls-1" d="M188.55,144.49,185,135.75H168.15l-3.78,8.74h-8.56l17.92-42.22h6.08l17.42,42.22Zm-11.84-30.13-6,14.88h11.84Z"/><path class="cls-1" d="M200.89,144.49V98.06h7.5v46.43Z"/><path class="cls-1" d="M215.58,144.49V98.06h7.5v46.43Z"/><path class="cls-1" d="M250.8,144.49V141a10.39,10.39,0,0,1-8.75,4.4c-8.06,0-13.2-6.7-13.2-14.38,0-7.51,5.14-14.2,13-14.2a11.2,11.2,0,0,1,8.93,4.28v-3.41h7.56v26.84Zm-6.7-21a7.53,7.53,0,1,0,7.5,7.5A7.48,7.48,0,0,0,244.1,123.54Z"/><path class="cls-1" d="M299.4,144.49V129.8c0-3.72-.8-6.63-5.14-6.63-4.65,0-5.71,3.59-5.71,7.56v13.76h-7.5V98.06h7.5v23.06a9.79,9.79,0,0,1,8.43-4.34,10.28,10.28,0,0,1,7.82,3.28c1.92,2.24,2.1,4.78,2.1,7.57v16.86Z"/><path class="cls-1" d="M327.05,145.36c-7.37,0-12.95-3.29-12.95-11.28V117.65h7.5v15.19c0,3.65,1.55,6.13,5.45,6.13s5.46-2.48,5.46-6.13V117.65h7.56v16.43C340.07,142.07,334.43,145.36,327.05,145.36Z"/><path class="cls-1" d="M355.82,145.36a14.29,14.29,0,0,1-10.23-4.46l4-4.59a8.7,8.7,0,0,0,6.32,3.16,3.16,3.16,0,0,0,3.41-3c0-4.58-12-2.29-12-11.34,0-5.46,4.52-8.49,9.61-8.49a13.79,13.79,0,0,1,8.74,2.85l-3.72,4.4a7.5,7.5,0,0,0-4.46-1.8c-1.31,0-2.86.81-2.86,2.29,0,3.91,12.4,2.17,12.4,11.35C367,142,361.59,145.36,355.82,145.36Z"/><path class="cls-1" d="M408.4,144.49V141a10.39,10.39,0,0,1-8.74,4.4c-8.06,0-13.21-6.7-13.21-14.38,0-7.51,5.15-14.2,13-14.2a11.2,11.2,0,0,1,8.93,4.28v-3.41H416v26.84Zm-13-31.86a4.47,4.47,0,0,1,0-8.93,4.47,4.47,0,0,1,0,8.93Zm6.26,10.91a7.53,7.53,0,1,0,7.5,7.5A7.48,7.48,0,0,0,401.7,123.54Zm6.63-10.91a4.53,4.53,0,0,1-4.46-4.47,4.47,4.47,0,1,1,4.46,4.47Z"/><path class="cls-1" d="M440.7,124.47a6.57,6.57,0,0,0-3.6-.93c-5.08,0-6.45,3.59-6.45,8.06v12.89h-7.5V117.65h7.5v4c1.74-3,4.22-4.9,7.82-4.9a8.46,8.46,0,0,1,3.28.62Z"/><path class="cls-1" d="M473.62,145.48c-6.26,0-10.73-2.72-14.2-7.87l5.21-5a9.48,9.48,0,0,0,8.68,5.52c3.47,0,6.39-2.17,6.39-5.83,0-8.5-18.17-4.47-18.17-17.79,0-7.32,5.89-12,12.9-12a18.08,18.08,0,0,1,12.08,4.59l-4.21,5.51a8.38,8.38,0,0,0-6.7-3.34c-2.66,0-5.76,1.67-5.76,4.65,0,7,18.16,3.53,18.16,18C488,140.28,481.8,145.48,473.62,145.48Z"/><path class="cls-1" d="M507.6,145.05h-3.48l-13.7-27.4h8.43l7.07,15.12L513,117.65h8.43Z"/><path class="cls-1" d="M544.24,144.49V141a10.39,10.39,0,0,1-8.74,4.4c-8.06,0-13.21-6.7-13.21-14.38,0-7.51,5.15-14.2,13-14.2a11.2,11.2,0,0,1,8.93,4.28v-3.41h7.56v26.84Zm-6.7-21A7.53,7.53,0,1,0,545,131,7.48,7.48,0,0,0,537.54,123.54Z"/><path class="cls-1" d="M577.35,144.49V129.61c0-3.66-.81-6.44-5.09-6.44-4.65,0-5.76,3.4-5.76,7.43v13.89H559V117.65h7.51v3.28c2.48-2.85,4.58-4.15,8.43-4.15a10.3,10.3,0,0,1,7.81,3.22c1.92,2.23,2.11,4.65,2.11,7.44v17.05Z"/><path class="cls-1" d="M598.3,132.28c.12,4.15,2.11,7.19,6.57,7.19a7,7,0,0,0,6.39-3.6L618.2,137c-2.35,5.77-7.13,8.37-13.2,8.37-8.68,0-14.39-5.58-14.39-14.32,0-8.56,5.46-14.26,14.08-14.26,8.86,0,13.7,6,13.7,14.51v1Zm6.51-10.17c-3.41,0-5.64,2.11-6.26,5.39h12.71C610.51,124.16,608.34,122.11,604.81,122.11Z"/><path class="cls-1" d="M642.51,144.49V129.61c0-3.66-.81-6.44-5.09-6.44-4.65,0-5.76,3.4-5.76,7.43v13.89h-7.51V117.65h7.51v3.28c2.48-2.85,4.58-4.15,8.43-4.15A10.3,10.3,0,0,1,647.9,120c1.92,2.23,2.11,4.65,2.11,7.44v17.05Z"/><path class="cls-1" d="M691.48,144.49V129.8c0-3.16-.49-6.63-4.46-6.63-4.4,0-5.14,4-5.14,7.56v13.76h-7.51V130.23a12.11,12.11,0,0,0-.55-4.46,4.36,4.36,0,0,0-4-2.6,4.89,4.89,0,0,0-4.22,2.41,11.13,11.13,0,0,0-.87,5.15v13.76h-7.5V117.65h7.5v3c2.3-2.54,4.71-3.9,8.19-3.9,3.84,0,6.38,1.67,8.36,4.9a9.92,9.92,0,0,1,8.81-4.9,8.83,8.83,0,0,1,7.5,3.84,11.83,11.83,0,0,1,1.43,6.51v17.36Z"/><path class="cls-1" d="M726.7,144.49V141a10.39,10.39,0,0,1-8.74,4.4c-8.06,0-13.21-6.7-13.21-14.38,0-7.51,5.15-14.2,13-14.2a11.2,11.2,0,0,1,8.93,4.28v-3.41h7.56v26.84Zm-13-31.86a4.47,4.47,0,0,1,0-8.93,4.47,4.47,0,1,1,0,8.93ZM720,123.54a7.53,7.53,0,1,0,7.51,7.5A7.48,7.48,0,0,0,720,123.54Zm6.64-10.91a4.53,4.53,0,0,1-4.47-4.47,4.47,4.47,0,1,1,4.47,4.47Z"/><path class="cls-1" d="M759,124.47a6.56,6.56,0,0,0-3.59-.93c-5.09,0-6.45,3.59-6.45,8.06v12.89h-7.5V117.65H749v4c1.73-3,4.21-4.9,7.81-4.9a8.51,8.51,0,0,1,3.29.62Z"/><path class="cls-1" d="M782.19,144.49,772.08,133l-.8.81v10.72h-7.5V98.06h7.5v29.38l10-9.79h10.17L778.9,129.43l13.58,15.06Z"/><path class="cls-1" d="M803.39,124.09v20.4h-7.5v-20.4h-3v-6.44h3v-9.18h7.5v9.18h5.27v6.44Z"/><path class="cls-1" d="M833.09,144.49V141a10.39,10.39,0,0,1-8.74,4.4c-8.06,0-13.21-6.7-13.21-14.38,0-7.51,5.15-14.2,13-14.2a11.2,11.2,0,0,1,8.93,4.28v-3.41h7.56v26.84Zm-6.7-21a7.53,7.53,0,1,0,7.51,7.5A7.48,7.48,0,0,0,826.39,123.54Z"/></svg>