<svg id="Layer_1" data-name="Layer 1" xmlns="http://www.w3.org/2000/svg" viewBox="0 0 980 120"><defs><style>.cls-1{fill:#d4ac76;}</style></defs><title>text</title><path class="cls-1" d="M308.13,61V33.94h3.55L325,51v-17h5.07V61h-3.39L313.2,43.78V61Z"/><path class="cls-1" d="M354,33.94h5.45l-9,16.07V61h-5.07V50.18l-9.07-16.24h5.57l6.11,11.22Z"/><path class="cls-1" d="M396.47,61V49.69H384.88V61h-5.07V33.94h5.07V44.83h11.59V33.94h5.07V61Z"/><path class="cls-1" d="M428.37,58.57a11,11,0,0,1-14.81,0,9.62,9.62,0,0,1-2.92-7.16V33.94h5.08V50.75a6.2,6.2,0,0,0,1.39,4.17,5.37,5.37,0,0,0,7.71,0,6.09,6.09,0,0,0,1.4-4.12V33.94h5.07V51.41A9.58,9.58,0,0,1,428.37,58.57Z"/><path class="cls-1" d="M447.65,61.35a13,13,0,0,1-5.1-1.07,13.32,13.32,0,0,1-4.38-3l3.22-3.86a9.82,9.82,0,0,0,3,2.42,7.62,7.62,0,0,0,3.56.94,4.39,4.39,0,0,0,2.89-.92,2.91,2.91,0,0,0,1.12-2.34q0-2.52-3-3.75l-3-1.21a11.67,11.67,0,0,1-4.5-3A6.92,6.92,0,0,1,440,41a7,7,0,0,1,2.29-5.13A7.83,7.83,0,0,1,448,33.63a11.65,11.65,0,0,1,8.33,3.09l-3,3.77A7,7,0,0,0,448,38.15a3.61,3.61,0,0,0-2.43.77,2.42,2.42,0,0,0-.91,1.91,2.58,2.58,0,0,0,.71,1.86,7.34,7.34,0,0,0,2.32,1.39l3.16,1.26q6,2.41,6.13,7.81a7.55,7.55,0,0,1-2.55,5.92A9.85,9.85,0,0,1,447.65,61.35Z"/><path class="cls-1" d="M464.75,61V33.94h4.69V45.87L479.8,33.94h6.27l-9.55,10.8L486.28,61h-5.85l-7.37-12.35-3.62,4.09V61Z"/><path class="cls-1" d="M491.21,61l10.43-27.06h4.59L516.62,61h-5.21L510,57.25h-12.1L496.43,61Zm12.73-19.48-4.33,11.22h8.63Z"/><path class="cls-1" d="M517.67,38.81V33.94H540v4.87h-8.61V61h-5.08V38.81Z"/><path class="cls-1" d="M540.91,61l10.43-27.06h4.59L566.32,61h-5.21l-1.44-3.75h-12.1L546.13,61Zm12.73-19.48-4.33,11.22h8.63Z"/><path class="cls-1" d="M572.66,61V33.94h5.07V56.13h9.94V61Z"/><path class="cls-1" d="M619.73,47.46a14.05,14.05,0,1,1-24-9.93,14.05,14.05,0,0,1,24,9.93Zm-20.42,6.45a8.89,8.89,0,0,0,12.72,0A9.29,9.29,0,0,0,612,41a8.91,8.91,0,0,0-12.72,0,9.34,9.34,0,0,0,0,12.95Z"/><path class="cls-1" d="M645,49.69V45.18h9.7l0,2.31a13.81,13.81,0,0,1-2,7.18,13.66,13.66,0,0,1-5.12,5,14,14,0,0,1-6.9,1.77,14,14,0,0,1-14.07-14,14,14,0,0,1,14.14-14,13.34,13.34,0,0,1,10.08,4.37l-3.46,3.42a8.76,8.76,0,0,0-6.65-2.93,8.63,8.63,0,0,0-6.48,2.65,9.58,9.58,0,0,0,0,13,8.25,8.25,0,0,0,6.14,2.66,9.61,9.61,0,0,0,6-1.88,8.58,8.58,0,0,0,3.19-5Z"/></svg>