<?xml version="1.0" encoding="utf-8"?>
<!-- Generator: Adobe Illustrator 19.1.1, SVG Export Plug-In . SVG Version: 6.00 Build 0)  -->
<svg version="1.1" id="Layer_1" xmlns="http://www.w3.org/2000/svg" xmlns:xlink="http://www.w3.org/1999/xlink" x="0px" y="0px"
	 viewBox="0 0 980 120" style="enable-background:new 0 0 980 120;" xml:space="preserve">
<style type="text/css">
	.st0{fill:#D80201;}
	.st1{fill:#FFFFFF;}
</style>
<g>
	<path class="st0" d="M282.6,50.4v6.2h8.8v4.7h-8.8v12.3h-5.5v-28h14.8v4.7H282.6z"/>
	<path class="st0" d="M305.4,74.3c-5.8,0-10.4-3.6-10.4-9.7c0-6.1,4.6-9.7,10.5-9.7c5.8,0,10.3,3.7,10.3,9.7
		C315.7,70.6,311.1,74.3,305.4,74.3z M305.3,59.5c-2.8,0-5.1,2.3-5.1,5.1c0,2.8,2.4,5.1,5.1,5.1c2.8,0,5.2-2.2,5.2-5.1
		S308.2,59.5,305.3,59.5z"/>
	<path class="st0" d="M331.5,60.1c-0.8-0.5-1.5-0.6-2.4-0.6c-3.4,0-4.4,2.4-4.4,5.5v8.7h-5.1V55.5h5.1v2.7c1.2-2.1,2.9-3.3,5.3-3.3
		c0.8,0,1.5,0.1,2.2,0.4L331.5,60.1z"/>
	<path class="st0" d="M358,73.7v-10c0-2.1-0.3-4.5-3-4.5c-3,0-3.5,2.7-3.5,5.1v9.3h-5.1V64c0-0.9,0-2.2-0.4-3
		c-0.5-1.1-1.6-1.8-2.7-1.8c-1.1,0-2.3,0.6-2.9,1.6c-0.5,1-0.6,2.4-0.6,3.5v9.3h-5.1V55.5h5.1v2.1c1.6-1.7,3.2-2.6,5.5-2.6
		c2.6,0,4.3,1.1,5.7,3.3c1.4-2.2,3.4-3.3,6-3.3c2,0,4,0.9,5.1,2.6c0.8,1.3,1,2.9,1,4.4v11.8H358z"/>
	<path class="st0" d="M381.8,73.7v-2.4c-1.4,2-3.5,3-5.9,3c-5.5,0-8.9-4.5-8.9-9.7c0-5.1,3.5-9.6,8.8-9.6c2.5,0,4.4,1,6,2.9v-2.3
		h5.1v18.2H381.8z M377.3,59.5c-2.8,0-5.1,2.3-5.1,5.1s2.3,5.1,5.1,5.1s5.1-2.3,5.1-5.1S380.1,59.5,377.3,59.5z"/>
	<path class="st0" d="M416.2,73.7v-2.4c-1.4,2-3.5,3-5.9,3c-5.5,0-8.9-4.5-8.9-9.7c0-5.1,3.5-9.6,8.8-9.6c2.5,0,4.4,1,6,2.9V42.2
		h5.1v31.5H416.2z M411.7,59.5c-2.8,0-5.1,2.3-5.1,5.1s2.3,5.1,5.1,5.1s5.1-2.3,5.1-5.1S414.5,59.5,411.7,59.5z"/>
	<path class="st0" d="M428.7,50.9c-1.7,0-3.1-1.4-3.1-3.1c0-1.7,1.4-3.1,3.1-3.1c1.7,0,3,1.4,3,3.1
		C431.7,49.5,430.4,50.9,428.7,50.9z M426.1,73.7V55.5h5.1v18.2H426.1z"/>
	<path class="st0" d="M441.1,59.8v13.8h-5.1V59.8h-2v-4.4h2v-6.2h5.1v6.2h3.6v4.4H441.1z"/>
	<path class="st0" d="M452.5,59.8v13.8h-5.1V59.8h-2v-4.4h2v-6.2h5.1v6.2h3.6v4.4H452.5z"/>
	<path class="st0" d="M481.6,73.7v-10c0-2.5-0.5-4.5-3.5-4.5c-3.2,0-3.9,2.4-3.9,5.1v9.3h-5.1V42.2h5.1v15.6c1.5-2,3.2-2.9,5.7-2.9
		c2,0,4,0.7,5.3,2.2c1.3,1.5,1.4,3.2,1.4,5.1v11.4H481.6z"/>
	<path class="st0" d="M500.4,74.3c-5,0-8.8-2.2-8.8-7.6V55.5h5.1v10.3c0,2.5,1,4.2,3.7,4.2s3.7-1.7,3.7-4.2V55.5h5.1v11.1
		C509.2,72,505.4,74.3,500.4,74.3z"/>
	<path class="st0" d="M519.8,74.3c-2.6,0-5.1-1.1-6.9-3l2.7-3.1c1.1,1.2,2.6,2.1,4.3,2.1c1.2,0,2.3-0.8,2.3-2c0-3.1-8.1-1.6-8.1-7.7
		c0-3.7,3.1-5.8,6.5-5.8c2.2,0,4.2,0.6,5.9,1.9l-2.5,3c-0.9-0.7-1.9-1.2-3-1.2c-0.9,0-1.9,0.5-1.9,1.6c0,2.6,8.4,1.5,8.4,7.7
		C527.5,72,523.8,74.3,519.8,74.3z"/>
	<path class="st0" d="M552.7,74.3c-2.6,0-4.4-1-6.1-3v12.1h-5.1V55.5h5.1v2.3c1.7-1.9,3.4-2.9,6-2.9c5.4,0,9,4.5,9,9.7
		C561.6,69.7,558.1,74.3,552.7,74.3z M551.2,59.5c-2.8,0-5.1,2.3-5.1,5.1s2.3,5.1,5.1,5.1c2.8,0,5.1-2.3,5.1-5.1
		S554,59.5,551.2,59.5z"/>
	<path class="st0" d="M579.4,73.7v-2.4c-1.4,2-3.5,3-5.9,3c-5.5,0-8.9-4.5-8.9-9.7c0-5.1,3.5-9.6,8.8-9.6c2.5,0,4.4,1,6,2.9v-2.3
		h5.1v18.2H579.4z M574.8,59.5c-2.8,0-5.1,2.3-5.1,5.1s2.3,5.1,5.1,5.1s5.1-2.3,5.1-5.1S577.6,59.5,574.8,59.5z M574.1,52.3
		c-2.1,0-3.8-1.7-3.8-3.8c0-2.1,1.7-3.8,3.8-3.8c2.1,0,3.8,1.7,3.8,3.8C577.9,50.6,576.2,52.3,574.1,52.3z M574.1,47
		c-0.8,0-1.5,0.7-1.5,1.5c0,0.8,0.7,1.5,1.5,1.5s1.5-0.7,1.5-1.5C575.6,47.7,575,47,574.1,47z"/>
	<path class="st0" d="M605.1,59.8v13.8H600V59.8h-2v-4.4h2v-5.8c0-1.5,0.1-2.9,0.8-4.3c1.2-2.3,3.8-3.7,6.3-3.7c1,0,1.7,0.2,2.7,0.6
		V47c-0.8-0.4-1.5-0.7-2.3-0.7c-2.3,0-2.4,2.4-2.4,4.1v5.1h4.7v4.4H605.1z"/>
	<path class="st0" d="M616.4,65.4c0.1,2.8,1.4,4.9,4.5,4.9c1.9,0,3.3-0.8,4.3-2.4l4.7,0.8c-1.6,3.9-4.8,5.7-8.9,5.7
		c-5.9,0-9.7-3.8-9.7-9.7c0-5.8,3.7-9.7,9.5-9.7c6,0,9.3,4,9.3,9.8v0.7H616.4z M620.8,58.5c-2.3,0-3.8,1.4-4.2,3.7h8.6
		C624.7,59.9,623.2,58.5,620.8,58.5z"/>
	<path class="st0" d="M657.1,73.7v-10c0-2.1-0.3-4.5-3-4.5c-3,0-3.5,2.7-3.5,5.1v9.3h-5.1V64c0-0.9,0-2.2-0.4-3
		c-0.5-1.1-1.6-1.8-2.7-1.8c-1.1,0-2.3,0.6-2.9,1.6c-0.5,1-0.6,2.4-0.6,3.5v9.3h-5.1V55.5h5.1v2.1c1.6-1.7,3.2-2.6,5.5-2.6
		c2.6,0,4.3,1.1,5.7,3.3c1.4-2.2,3.4-3.3,6-3.3c2,0,4,0.9,5.1,2.6c0.8,1.3,1,2.9,1,4.4v11.8H657.1z"/>
	<path class="st0" d="M700.8,73.7v-10c0-2.1-0.3-4.5-3-4.5c-3,0-3.5,2.7-3.5,5.1v9.3h-5.1V64c0-0.9,0-2.2-0.4-3
		c-0.5-1.1-1.6-1.8-2.7-1.8c-1.1,0-2.3,0.6-2.9,1.6c-0.5,1-0.6,2.4-0.6,3.5v9.3h-5.1V55.5h5.1v2.1c1.6-1.7,3.2-2.6,5.5-2.6
		c2.6,0,4.3,1.1,5.7,3.3c1.4-2.2,3.4-3.3,6-3.3c2,0,4,0.9,5.1,2.6c0.8,1.3,1,2.9,1,4.4v11.8H700.8z"/>
	<path class="st0" d="M713.3,50.9c-1.7,0-3.1-1.4-3.1-3.1c0-1.7,1.4-3.1,3.1-3.1c1.7,0,3,1.4,3,3.1
		C716.3,49.5,714.9,50.9,713.3,50.9z M710.7,73.7V55.5h5.1v18.2H710.7z"/>
	<path class="st0" d="M733,73.7V63.6c0-2.5-0.5-4.4-3.4-4.4c-3.2,0-3.9,2.3-3.9,5v9.4h-5.1V55.5h5.1v2.2c1.7-1.9,3.1-2.8,5.7-2.8
		c1.9,0,4,0.7,5.3,2.2c1.3,1.5,1.4,3.2,1.4,5v11.6H733z"/>
	<path class="st0" d="M751.7,74.3c-5,0-8.8-2.2-8.8-7.6V55.5h5.1v10.3c0,2.5,1,4.2,3.7,4.2s3.7-1.7,3.7-4.2V55.5h5.1v11.1
		C760.6,72,756.7,74.3,751.7,74.3z"/>
	<path class="st0" d="M770.5,59.8v13.8h-5.1V59.8h-2v-4.4h2v-6.2h5.1v6.2h3.6v4.4H770.5z"/>
	<path class="st0" d="M781,65.4c0.1,2.8,1.4,4.9,4.5,4.9c1.9,0,3.3-0.8,4.3-2.4l4.7,0.8c-1.6,3.9-4.8,5.7-8.9,5.7
		c-5.9,0-9.7-3.8-9.7-9.7c0-5.8,3.7-9.7,9.5-9.7c6,0,9.3,4,9.3,9.8v0.7H781z M785.4,58.5c-2.3,0-3.8,1.4-4.2,3.7h8.6
		C789.3,59.9,787.8,58.5,785.4,58.5z"/>
	<path class="st0" d="M810.4,60.1c-0.8-0.5-1.5-0.6-2.4-0.6c-3.4,0-4.4,2.4-4.4,5.5v8.7h-5.1V55.5h5.1v2.7c1.2-2.1,2.9-3.3,5.3-3.3
		c0.8,0,1.5,0.1,2.2,0.4L810.4,60.1z"/>
	<path class="st0" d="M814.6,74.2c-1.8,0-3.3-1.5-3.3-3.3s1.5-3.3,3.3-3.3s3.3,1.5,3.3,3.3S816.4,74.2,814.6,74.2z"/>
</g>
</svg>
