<svg id="Layer_1" data-name="Layer 1" xmlns="http://www.w3.org/2000/svg" viewBox="0 0 300 250"><defs><style>.cls-1{fill:#d4ac76;}</style></defs><title>text</title><path class="cls-1" d="M61.48,99.5,58,90.61h1.4l2.66,6.83,2.67-6.83h1.37L62.63,99.5Z"/><path class="cls-1" d="M67.73,99.5l3.72-9.28h1.18l3.65,9.28H74.85l-.57-1.43H69.74l-.58,1.43Zm3.35-10.26a.59.59,0,0,1-.46.2.57.57,0,0,1-.46-.2.69.69,0,0,1-.19-.5.72.72,0,0,1,.19-.51.6.6,0,0,1,.46-.2.63.63,0,0,1,.46.2.72.72,0,0,1,.19.51A.69.69,0,0,1,71.08,89.24Zm1,3.11-1.81,4.49H73.8Zm1.61-3.11a.63.63,0,0,1-.92,0,.69.69,0,0,1-.19-.5.72.72,0,0,1,.19-.51.63.63,0,0,1,.92,0,.76.76,0,0,1,.19.51A.74.74,0,0,1,73.65,89.24Z"/><path class="cls-1" d="M78.85,99.5V90.22H82.3a2.87,2.87,0,0,1,2.08.81,3,3,0,0,1,.15,4,2.73,2.73,0,0,1-1.77.91l2.68,3.53H83.85L81.18,96h-1V99.5Zm3.27-8h-2v3.35h2a1.84,1.84,0,0,0,1.31-.46,1.68,1.68,0,0,0,0-2.41A1.82,1.82,0,0,0,82.12,91.46Z"/><path class="cls-1" d="M88.48,99.5V90.22H91a4.63,4.63,0,0,1,4.6,4.62,4.47,4.47,0,0,1-1.35,3.34,4.53,4.53,0,0,1-3.29,1.32Zm2.53-8H89.77v6.8h1.28a3,3,0,0,0,2.28-1,3.42,3.42,0,0,0,.93-2.43,3.29,3.29,0,0,0-1-2.4A3.09,3.09,0,0,0,91,91.46Z"/><path class="cls-1" d="M103.86,95.43H100v2.83h4.09V99.5H98.75V90.22h5.3v1.24h-4V94.2h3.82Z"/><path class="cls-1" d="M107.34,99.5V90.22h5.06v1.24h-3.76v2.92H112v1.23h-3.33V99.5Z"/><path class="cls-1" d="M118.43,99.66a3.21,3.21,0,0,1-2.41-1,3.31,3.31,0,0,1-1-2.44v-6h1.29v5.94a2.4,2.4,0,0,0,.56,1.62,1.88,1.88,0,0,0,1.51.64,2,2,0,0,0,1.54-.63,2.36,2.36,0,0,0,.56-1.62v-6h1.29v6a3.34,3.34,0,0,1-.94,2.44A3.25,3.25,0,0,1,118.43,99.66Z"/><path class="cls-1" d="M125.51,99.5V90.22h1.29v8h3.82V99.5Z"/><path class="cls-1" d="M133.46,99.5V90.22h1.3v8h3.82V99.5Z"/><path class="cls-1" d="M138.82,91.46V90.22h7.51v1.24h-3.11v8h-1.3v-8Z"/><path class="cls-1" d="M159.28,95.43h-3.82v2.83h4.08V99.5h-5.38V90.22h5.31v1.24h-4V94.2h3.82Z"/><path class="cls-1" d="M162.76,99.5V90.22h3.44a2.9,2.9,0,0,1,2.09.81,2.79,2.79,0,0,1,.84,2.1A2.77,2.77,0,0,1,166.66,96l2.68,3.53h-1.59L165.08,96h-1V99.5Zm3.27-8h-2v3.35h2a1.88,1.88,0,0,0,1.32-.46,1.59,1.59,0,0,0,.5-1.22,1.57,1.57,0,0,0-.51-1.19A1.81,1.81,0,0,0,166,91.46Z"/><path class="cls-1" d="M172.38,99.5V90.22h2.84a3,3,0,0,1,2,.72,2.39,2.39,0,0,1,.81,1.88,2.19,2.19,0,0,1-1.11,2,2.32,2.32,0,0,1,1,.83,2.14,2.14,0,0,1,.37,1.25,2.41,2.41,0,0,1-.81,1.9,3,3,0,0,1-2.07.71Zm2.71-8h-1.41v2.82h1.65a1.43,1.43,0,0,0,1-.41,1.46,1.46,0,0,0,.41-1.07,1.18,1.18,0,0,0-.46-1A1.89,1.89,0,0,0,175.09,91.46Zm.29,4h-1.7v2.83h1.61a2,2,0,0,0,1.28-.39,1.34,1.34,0,0,0,.47-1.06,1.27,1.27,0,0,0-.43-1A1.78,1.78,0,0,0,175.38,95.43Z"/><path class="cls-1" d="M183.35,99.64a3.08,3.08,0,0,1-1.84-.55,2.89,2.89,0,0,1-1.1-1.49l1.2-.6a2.08,2.08,0,0,0,.65,1,1.68,1.68,0,0,0,1.09.38,1.58,1.58,0,0,0,1.25-.53,2.08,2.08,0,0,0,.46-1.43V90.22h1.3v6.2a3.21,3.21,0,0,1-.84,2.38A2.93,2.93,0,0,1,183.35,99.64Z"/><path class="cls-1" d="M193.11,99.66a3.23,3.23,0,0,1-2.42-1,3.35,3.35,0,0,1-.95-2.44v-6H191v5.94a2.39,2.39,0,0,0,.55,1.62,1.9,1.9,0,0,0,1.52.64,1.93,1.93,0,0,0,1.53-.63,2.32,2.32,0,0,0,.56-1.62v-6h1.3v6a3.34,3.34,0,0,1-.94,2.44A3.27,3.27,0,0,1,193.11,99.66Z"/><path class="cls-1" d="M200.18,99.5V90.22h2.49a4.61,4.61,0,0,1,4.59,4.62,4.55,4.55,0,0,1-4.64,4.66Zm2.54-8h-1.24v6.8h1.28a3,3,0,0,0,2.28-1,3.42,3.42,0,0,0,.93-2.43,3.29,3.29,0,0,0-1-2.4A3.1,3.1,0,0,0,202.72,91.46Z"/><path class="cls-1" d="M209.1,99.5l3.73-9.28H214l3.65,9.28h-1.43l-.56-1.43h-4.55l-.57,1.43Zm4.31-7.15-1.8,4.49h3.56Z"/><path class="cls-1" d="M220.22,99.5V90.22h.91l5,6.39V90.22h1.3V99.5h-.72l-5.21-6.62V99.5Z"/><path class="cls-1" d="M231.32,99.5V90.22h2.49a4.67,4.67,0,0,1,3.24,8,4.5,4.5,0,0,1-3.29,1.32Zm2.54-8h-1.24v6.8h1.28a3,3,0,0,0,2.28-1,3.42,3.42,0,0,0,.93-2.43,3.29,3.29,0,0,0-1-2.4A3.1,3.1,0,0,0,233.86,91.46Z"/><path class="cls-1" d="M246.71,95.43h-3.82v2.83H247V99.5H241.6V90.22h5.3v1.24h-4V94.2h3.82Z"/></svg>