<svg id="Layer_1" data-name="Layer 1" xmlns="http://www.w3.org/2000/svg" viewBox="0 0 250 360"><defs><style>.cls-1{fill:#d80201;}</style></defs><title>text</title><path class="cls-1" d="M31.87,174.1V157.43h9.22v2.82h-6V164h5.75v2.82H35.12v4.5h6v2.83Z"/><path class="cls-1" d="M52.49,174.1l-3.1-3.78-3.15,3.78h-3.9l5.15-5.9-4.15-4.93h3.83l2.22,2.8,2.28-2.8h3.85l-4.25,4.93,5.07,5.9Z"/><path class="cls-1" d="M60.87,165.87v8.23h-3v-8.23h-1.2v-2.6h1.2v-3.69h3v3.69H63v2.6Z"/><path class="cls-1" d="M71.64,166a2.71,2.71,0,0,0-1.45-.37c-2,0-2.6,1.45-2.6,3.25v5.2h-3V163.27h3v1.63a3.47,3.47,0,0,1,3.15-2,3.57,3.57,0,0,1,1.33.25Z"/><path class="cls-1" d="M81.84,174.1v-1.43a4.17,4.17,0,0,1-3.52,1.78c-3.25,0-5.33-2.7-5.33-5.8s2.08-5.73,5.25-5.73a4.49,4.49,0,0,1,3.6,1.73v-1.38h3V174.1Zm-2.7-8.45a3,3,0,1,0,3,3A3,3,0,0,0,79.14,165.65Z"/><path class="cls-1" d="M100.62,174.45a4.24,4.24,0,0,1-3.55-1.78v1.43H94V155.38h3v9.27a4.58,4.58,0,0,1,3.62-1.73c3.18,0,5.27,2.7,5.27,5.73S103.87,174.45,100.62,174.45Zm-.83-8.8a3,3,0,1,0,3,3A3,3,0,0,0,99.79,165.65Z"/><path class="cls-1" d="M115.34,166a2.71,2.71,0,0,0-1.45-.37c-2,0-2.6,1.45-2.6,3.25v5.2h-3V163.27h3v1.63a3.47,3.47,0,0,1,3.15-2,3.57,3.57,0,0,1,1.33.25Z"/><path class="cls-1" d="M125.54,174.1v-1.43a4.18,4.18,0,0,1-3.52,1.78c-3.25,0-5.33-2.7-5.33-5.8s2.08-5.73,5.25-5.73a4.49,4.49,0,0,1,3.6,1.73v-1.38h3V174.1Zm-2.7-8.45a3,3,0,1,0,3,3A3,3,0,0,0,122.84,165.65Z"/><path class="cls-1" d="M146,174.1v-1.43a4.15,4.15,0,0,1-3.52,1.78c-3.25,0-5.32-2.7-5.32-5.8s2.07-5.73,5.25-5.73a4.48,4.48,0,0,1,3.59,1.73v-9.27h3.05V174.1Zm-2.69-8.45a3,3,0,1,0,3,3A3,3,0,0,0,143.32,165.65Z"/><path class="cls-1" d="M154.49,169.17c0,1.68.85,2.9,2.65,2.9a2.81,2.81,0,0,0,2.57-1.45l2.8.45a5.3,5.3,0,0,1-5.32,3.38,5.43,5.43,0,0,1-5.8-5.78,5.36,5.36,0,0,1,5.67-5.75c3.58,0,5.53,2.4,5.53,5.85v.4Zm2.62-4.1a2.45,2.45,0,0,0-2.52,2.18h5.12A2.51,2.51,0,0,0,157.11,165.07Z"/><path class="cls-1" d="M173.19,174.1v-1.43a4.18,4.18,0,0,1-3.53,1.78c-3.24,0-5.32-2.7-5.32-5.8s2.08-5.73,5.25-5.73a4.51,4.51,0,0,1,3.6,1.73v-1.38h3.05V174.1Zm-2.7-8.45a3,3,0,1,0,3,3A3,3,0,0,0,170.49,165.65Z"/><path class="cls-1" d="M179.14,174.1V155.38h3V174.1Z"/><path class="cls-1" d="M194.44,165.87v8.23h-3v-8.23h-1.18v-2.6h1.18V159.8a5.23,5.23,0,0,1,.47-2.55,4.28,4.28,0,0,1,3.75-2.17,3.61,3.61,0,0,1,1.6.37v2.78a3,3,0,0,0-1.38-.4c-1.35,0-1.42,1.4-1.42,2.42v3h2.8v2.6Z"/><path class="cls-1" d="M204.26,174.45c-3.45,0-6.19-2.15-6.19-5.75s2.74-5.78,6.22-5.78,6.15,2.18,6.15,5.75S207.69,174.45,204.26,174.45Zm-2.62-13.2a1.8,1.8,0,1,1,0-3.6,1.8,1.8,0,1,1,0,3.6Zm2.6,4.4a3,3,0,1,0,3.07,3A3.06,3.06,0,0,0,204.24,165.65Zm2.6-4.4a1.83,1.83,0,0,1-1.8-1.8,1.8,1.8,0,1,1,1.8,1.8Z"/><path class="cls-1" d="M219.84,166a2.73,2.73,0,0,0-1.45-.37c-2,0-2.6,1.45-2.6,3.25v5.2h-3V163.27h3v1.63a3.47,3.47,0,0,1,3.15-2,3.56,3.56,0,0,1,1.32.25Z"/><path class="cls-1" d="M39.67,204.1v-1.43a4.18,4.18,0,0,1-3.53,1.78c-3.25,0-5.32-2.7-5.32-5.8s2.07-5.73,5.25-5.73a4.51,4.51,0,0,1,3.6,1.73v-1.38h3V204.1ZM37,195.65a3,3,0,1,0,3,3A3,3,0,0,0,37,195.65Z"/><path class="cls-1" d="M45.62,204.1V185.38h3V204.1Z"/><path class="cls-1" d="M51.54,204.1V185.38h3V204.1Z"/><path class="cls-1" d="M65.74,204.1v-1.43a4.17,4.17,0,0,1-3.52,1.78c-3.25,0-5.33-2.7-5.33-5.8s2.08-5.73,5.25-5.73a4.49,4.49,0,0,1,3.6,1.73v-1.38h3.05V204.1ZM63,195.65a3,3,0,1,0,3,3A3,3,0,0,0,63,195.65Z"/><path class="cls-1" d="M85.34,204.1v-6c0-1.48-.32-2.6-2-2.6s-2.32,1.37-2.32,3v5.6h-3V193.27h3v1.33a4,4,0,0,1,3.4-1.68,3.74,3.74,0,0,1,4,4.3v6.88Z"/><path class="cls-1" d="M93.87,209.9H90.44l4-7.43-5.13-9.2h3.53l3.25,6.15,3.1-6.15h3.45Z"/><path class="cls-1" d="M111.77,204.1v-1.43a4.18,4.18,0,0,1-3.53,1.78c-3.25,0-5.32-2.7-5.32-5.8s2.07-5.73,5.25-5.73a4.51,4.51,0,0,1,3.6,1.73v-1.38h3V204.1Zm-2.7-8.45a3,3,0,1,0,3,3A3,3,0,0,0,109.07,195.65Z"/><path class="cls-1" d="M129.47,204.32h-1.4l-5.53-11h3.4l2.85,6.1,2.85-6.1H135Z"/><path class="cls-1" d="M144.79,204.1v-1.43a4.17,4.17,0,0,1-3.52,1.78c-3.25,0-5.33-2.7-5.33-5.8s2.08-5.73,5.25-5.73a4.49,4.49,0,0,1,3.6,1.73v-1.38h3.05V204.1Zm-5.22-12.85a1.8,1.8,0,1,1,0-3.6,1.8,1.8,0,1,1,0,3.6Zm2.52,4.4a3,3,0,1,0,3,3A3,3,0,0,0,142.09,195.65Zm2.68-4.4a1.83,1.83,0,0,1-1.8-1.8,1.8,1.8,0,1,1,1.8,1.8Z"/><path class="cls-1" d="M158.14,204.1v-6c0-1.48-.32-2.6-2-2.6s-2.32,1.37-2.32,3v5.6h-3V193.27h3v1.33a4,4,0,0,1,3.4-1.68,3.75,3.75,0,0,1,4,4.3v6.88Z"/><path class="cls-1" d="M171.46,204.1v-6c0-1.48-.32-2.6-2-2.6-1.88,0-2.33,1.37-2.33,3v5.6h-3V193.27h3v1.33a4,4,0,0,1,3.4-1.68,3.74,3.74,0,0,1,4,4.3v6.88Z"/><path class="cls-1" d="M179.92,199.17c.05,1.68.85,2.9,2.64,2.9a2.84,2.84,0,0,0,2.58-1.45l2.8.45a5.31,5.31,0,0,1-5.32,3.38,5.43,5.43,0,0,1-5.8-5.78,5.36,5.36,0,0,1,5.67-5.75c3.57,0,5.52,2.4,5.52,5.85v.4Zm2.62-4.1a2.45,2.45,0,0,0-2.52,2.18h5.12A2.52,2.52,0,0,0,182.54,195.07Z"/><path class="cls-1" d="M197.41,196a2.68,2.68,0,0,0-1.45-.37c-2,0-2.59,1.45-2.59,3.25v5.2h-3V193.27h3v1.63a3.47,3.47,0,0,1,3.14-2,3.57,3.57,0,0,1,1.33.25Z"/></svg>