<svg id="Layer_1" data-name="Layer 1" xmlns="http://www.w3.org/2000/svg" viewBox="0 0 250 360"><defs><style>.cls-1{fill:#d80201;}</style></defs><title>text</title><path class="cls-1" d="M31.94,161.92c-2.08,2.24-5.35,1.89-8.13,1.89v7.9H19.65V150.37h6.21c2.11,0,4,.16,5.63,1.63a6.8,6.8,0,0,1,2.18,5.15A7,7,0,0,1,31.94,161.92Zm-3.65-7.26a5,5,0,0,0-3-.68H23.81v6.21h1.7c2.08,0,3.87-.67,3.87-3.07A3.13,3.13,0,0,0,28.29,154.66Z"/><path class="cls-1" d="M46.11,171.71v-1.82a5.34,5.34,0,0,1-4.51,2.27c-4.16,0-6.81-3.46-6.81-7.43s2.65-7.32,6.72-7.32a5.74,5.74,0,0,1,4.6,2.2v-1.76H50v13.86Zm-3.45-10.82a3.89,3.89,0,1,0,3.87,3.88A3.86,3.86,0,0,0,42.66,160.89Z"/><path class="cls-1" d="M58.15,172.16a7.36,7.36,0,0,1-5.28-2.31l2-2.36a4.56,4.56,0,0,0,3.27,1.63,1.64,1.64,0,0,0,1.76-1.54c0-2.37-6.18-1.18-6.18-5.85,0-2.82,2.34-4.39,5-4.39a7.16,7.16,0,0,1,4.51,1.47l-1.92,2.28a3.81,3.81,0,0,0-2.3-.93c-.67,0-1.47.41-1.47,1.18,0,2,6.4,1.12,6.4,5.86C63.94,170.43,61.12,172.16,58.15,172.16Z"/><path class="cls-1" d="M71.1,172.16a7.35,7.35,0,0,1-5.27-2.31l2-2.36a4.56,4.56,0,0,0,3.27,1.63,1.64,1.64,0,0,0,1.76-1.54c0-2.37-6.18-1.18-6.18-5.85,0-2.82,2.34-4.39,5-4.39a7.16,7.16,0,0,1,4.51,1.47l-1.92,2.28a3.81,3.81,0,0,0-2.3-.93c-.67,0-1.47.41-1.47,1.18,0,2,6.4,1.12,6.4,5.86C76.9,170.43,74.08,172.16,71.1,172.16Z"/><path class="cls-1" d="M90.24,171.71v-1.82a5.37,5.37,0,0,1-4.51,2.27c-4.16,0-6.82-3.46-6.82-7.43s2.66-7.32,6.72-7.32a5.77,5.77,0,0,1,4.61,2.2v-1.76h3.9v13.86Zm-3.46-10.82a3.89,3.89,0,1,0,3.88,3.88A3.87,3.87,0,0,0,86.78,160.89Z"/><path class="cls-1" d="M114.37,172.16a5.55,5.55,0,0,1-4.64-2.27v9.21h-3.87V157.85h3.87v1.76a5.52,5.52,0,0,1,4.54-2.2c4.13,0,6.85,3.42,6.85,7.39S118.43,172.16,114.37,172.16Zm-1.15-11.27a3.89,3.89,0,1,0,3.87,3.88A3.87,3.87,0,0,0,113.22,160.89Z"/><path class="cls-1" d="M134.66,171.71v-1.82a5.37,5.37,0,0,1-4.52,2.27c-4.16,0-6.81-3.46-6.81-7.43s2.65-7.32,6.72-7.32a5.77,5.77,0,0,1,4.61,2.2v-1.76h3.9v13.86Zm-3.46-10.82a3.89,3.89,0,1,0,3.87,3.88A3.87,3.87,0,0,0,131.2,160.89Zm-.54-5.47a2.88,2.88,0,0,1,0-5.76,2.88,2.88,0,0,1,0,5.76Zm0-4a1.12,1.12,0,1,0,1.12,1.12A1.09,1.09,0,0,0,130.66,151.42Z"/><path class="cls-1" d="M154.69,172.16a7.36,7.36,0,0,1-5.28-2.31l2.05-2.36a4.52,4.52,0,0,0,3.26,1.63,1.63,1.63,0,0,0,1.76-1.54c0-2.37-6.18-1.18-6.18-5.85,0-2.82,2.34-4.39,5-4.39a7.19,7.19,0,0,1,4.52,1.47l-1.92,2.28a3.84,3.84,0,0,0-2.31-.93c-.67,0-1.47.41-1.47,1.18,0,2,6.4,1.12,6.4,5.86C160.48,170.43,157.66,172.16,154.69,172.16Z"/><path class="cls-1" d="M166.46,165.41c.07,2.14,1.09,3.71,3.4,3.71a3.62,3.62,0,0,0,3.29-1.86l3.58.58c-1.21,3-3.67,4.32-6.81,4.32-4.48,0-7.42-2.88-7.42-7.39s2.81-7.36,7.26-7.36,7.07,3.07,7.07,7.48v.52Zm3.36-5.25a3.14,3.14,0,0,0-3.23,2.78h6.56A3.2,3.2,0,0,0,169.82,160.16Z"/><path class="cls-1" d="M189.28,171.71V164c0-1.89-.42-3.33-2.63-3.33-2.39,0-3,1.76-3,3.84v7.17h-3.87V157.85h3.87v1.7a5.12,5.12,0,0,1,4.35-2.14,4.78,4.78,0,0,1,5.12,5.5v8.8Z"/><path class="cls-1" d="M207.45,171.71v-1.82a5.34,5.34,0,0,1-4.51,2.27c-4.16,0-6.81-3.46-6.81-7.43s2.65-7.32,6.72-7.32a5.74,5.74,0,0,1,4.6,2.2v-1.76h3.91v13.86ZM204,160.89a3.89,3.89,0,1,0,3.87,3.88A3.86,3.86,0,0,0,204,160.89Z"/><path class="cls-1" d="M219.49,172.16a7.36,7.36,0,0,1-5.28-2.31l2-2.36a4.56,4.56,0,0,0,3.27,1.63,1.64,1.64,0,0,0,1.76-1.54c0-2.37-6.18-1.18-6.18-5.85,0-2.82,2.34-4.39,5-4.39a7.14,7.14,0,0,1,4.51,1.47l-1.92,2.28a3.81,3.81,0,0,0-2.3-.93c-.67,0-1.47.41-1.47,1.18,0,2,6.4,1.12,6.4,5.86C225.28,170.43,222.46,172.16,219.49,172.16Z"/><path class="cls-1" d="M231.93,161.18v10.53h-3.87V161.18h-1.53v-3.33h1.53v-4.73h3.87v4.73h2.72v3.33Z"/><path class="cls-1" d="M54.48,210.65c-4,0-7.45-2.56-7.68-6.68H51a3.28,3.28,0,0,0,3.52,3,3.4,3.4,0,0,0,.1-6.79,5,5,0,0,0-.77.07v-3a3.76,3.76,0,0,0,.58,0,2.9,2.9,0,1,0,.09-5.79c-1.82,0-2.68,1.12-2.91,2.81H47.67c.6-4,3.07-6.11,7.13-6.11,3.55,0,6.5,2.11,6.5,5.89a4.76,4.76,0,0,1-2.47,4.54,5.26,5.26,0,0,1,3.27,5.25C62.1,208.25,58.54,210.65,54.48,210.65Z"/><path class="cls-1" d="M71.44,210.11V192.42H68.37v-3.65H75.6v21.34Z"/><path class="cls-1" d="M99.38,210.56c-4.42,0-7.94-2.75-7.94-7.36s3.52-7.39,8-7.39,7.87,2.78,7.87,7.36S103.76,210.56,99.38,210.56Zm0-11.27a3.89,3.89,0,1,0,3.94,3.91A3.92,3.92,0,0,0,99.34,199.29Z"/><path class="cls-1" d="M119.76,210.11l-5.22-6-.41.41v5.54h-3.87v-24h3.87v15.17l5.18-5.06h5.25l-6.5,6.08,7,7.78Z"/><path class="cls-1" d="M130.7,199.58v10.53h-3.87V199.58H125.3v-3.33h1.53v-4.73h3.87v4.73h2.72v3.33Z"/><path class="cls-1" d="M142.64,210.56c-4.42,0-7.94-2.75-7.94-7.36s3.52-7.39,8-7.39,7.87,2.78,7.87,7.36S147,210.56,142.64,210.56Zm0-11.27a3.89,3.89,0,1,0,3.93,3.91A3.92,3.92,0,0,0,142.61,199.29Z"/><path class="cls-1" d="M161.94,210.56a5.48,5.48,0,0,1-4.55-2.27v1.82h-3.87v-24h3.87V198a5.89,5.89,0,0,1,4.64-2.2c4.06,0,6.75,3.45,6.75,7.32S166.09,210.56,161.94,210.56Zm-1.06-11.27a3.89,3.89,0,1,0,3.87,3.88A3.86,3.86,0,0,0,160.88,199.29Z"/><path class="cls-1" d="M175,203.81c.06,2.14,1.09,3.71,3.39,3.71a3.64,3.64,0,0,0,3.3-1.86l3.58.58c-1.22,3-3.68,4.32-6.82,4.32-4.48,0-7.42-2.88-7.42-7.39s2.82-7.36,7.26-7.36,7.08,3.07,7.08,7.48v.52Zm3.36-5.25a3.14,3.14,0,0,0-3.23,2.78h6.56A3.22,3.22,0,0,0,178.32,198.56Z"/><path class="cls-1" d="M197.36,199.77a3.45,3.45,0,0,0-1.86-.48c-2.62,0-3.33,1.86-3.33,4.16v6.66H188.3V196.25h3.87v2.08a4.47,4.47,0,0,1,4-2.52,4.3,4.3,0,0,1,1.69.32Z"/><path class="cls-1" d="M202,210.53a2.5,2.5,0,1,1,2.49-2.5A2.5,2.5,0,0,1,202,210.53ZM200,204V188.77h4V204Z"/></svg>