<svg id="Layer_1" data-name="Layer 1" xmlns="http://www.w3.org/2000/svg" viewBox="0 0 250 360"><defs><style>.cls-1{fill:#d80201;}.cls-2{fill:#fff;}</style></defs><title>text</title><rect class="cls-1" x="60.3" y="286" width="129.39" height="20.89" rx="10.44" ry="10.44"/><path class="cls-2" d="M76,293.75v1.8h2.55v1.38H76v3.57H74.39v-8.13h4.3v1.38Z"/><path class="cls-2" d="M84,300.69a4.22,4.22,0,0,1-4.34-4.23A4.35,4.35,0,1,1,84,300.69Zm0-7a2.81,2.81,0,1,0,2.72,2.79A2.76,2.76,0,0,0,84,293.64Z"/><path class="cls-2" d="M93.79,300.5l-2.19-3.27h-.2v3.27H89.81v-8.13h2.35a3.35,3.35,0,0,1,2.07.58,2.37,2.37,0,0,1,.8,1.83,2.69,2.69,0,0,1-.46,1.49,2.1,2.1,0,0,1-1.39.8l2.56,3.43Zm-1.91-6.84H91.4v2.45h.45c.82,0,1.56-.29,1.56-1.23S92.69,293.66,91.88,293.66Z"/><path class="cls-2" d="M99.37,293.75v6.75H97.79v-6.75H96v-1.38h5.23v1.38Z"/><path class="cls-2" d="M104.47,300.7a3.17,3.17,0,0,1-2.79-1.55l1-1a1.86,1.86,0,0,0,1.71,1.08,1.16,1.16,0,0,0,1.26-1.15c0-1.67-3.57-.88-3.57-3.5a2.39,2.39,0,0,1,2.54-2.37,3.57,3.57,0,0,1,2.38.9l-.83,1.09a1.65,1.65,0,0,0-1.32-.66c-.52,0-1.13.33-1.13.92,0,1.38,3.57.69,3.57,3.54A2.63,2.63,0,0,1,104.47,300.7Z"/><path class="cls-2" d="M114.21,300.5l-.69-1.72H110.2l-.74,1.72h-1.68l3.52-8.3h1.2l3.43,8.3Zm-3.73-9a.89.89,0,0,1-.88-.88.88.88,0,1,1,.88.88Zm1.4,3.1-1.18,2.93H113Zm1.33-3.1a.89.89,0,0,1-.88-.88.88.88,0,1,1,.88.88Z"/><path class="cls-2" d="M119,293.75v6.75h-1.58v-6.75h-1.82v-1.38h5.23v1.38Z"/><path class="cls-2" d="M124.42,293.75v6.75h-1.58v-6.75H121v-1.38h5.23v1.38Z"/><path class="cls-2" d="M135.34,300.5v-3.62H131.9v3.62h-1.58v-8.13h1.58v3.15h3.44v-3.15h1.58v8.13Z"/><path class="cls-2" d="M144.3,300.5l-.69-1.72h-3.32l-.74,1.72h-1.68l3.52-8.3h1.2l3.43,8.3Zm-3.73-9a.89.89,0,0,1-.88-.88.88.88,0,1,1,.88.88Zm1.4,3.1-1.18,2.93h2.33Zm1.33-3.1a.89.89,0,0,1-.88-.88.88.88,0,1,1,.88.88Z"/><path class="cls-2" d="M150.92,300.5l-2.19-3.27h-.2v3.27H147v-8.13h2.35a3.35,3.35,0,0,1,2.07.58,2.37,2.37,0,0,1,.8,1.83,2.69,2.69,0,0,1-.46,1.49,2.1,2.1,0,0,1-1.39.8l2.56,3.43ZM149,293.66h-.48v2.45H149c.82,0,1.56-.29,1.56-1.23S149.83,293.66,149,293.66Z"/><polygon class="cls-2" points="165.62 297.46 157.06 297.46 157.06 295.28 165.62 295.28 165.62 291.98 171.71 296.37 165.62 300.58 165.62 297.46"/></svg>