<svg id="Layer_1" data-name="Layer 1" xmlns="http://www.w3.org/2000/svg" viewBox="0 0 250 360"><defs><style>.cls-1{fill:#d80201;}</style></defs><title>text</title><path class="cls-1" d="M54.13,158.25v3.7h5.22v2.82H54.13v7.32H50.88V155.43H59.7v2.82Z"/><path class="cls-1" d="M67.71,172.45c-3.45,0-6.2-2.15-6.2-5.75s2.75-5.77,6.22-5.77,6.15,2.17,6.15,5.75S71.13,172.45,67.71,172.45Zm0-8.8a3,3,0,1,0,3.07,3A3.06,3.06,0,0,0,67.68,163.65Z"/><path class="cls-1" d="M83.28,164a2.68,2.68,0,0,0-1.45-.37c-2,0-2.6,1.45-2.6,3.25v5.2h-3V161.27h3v1.62a3.53,3.53,0,0,1,4.47-1.72Z"/><path class="cls-1" d="M99,172.1v-5.92c0-1.27-.2-2.67-1.8-2.67-1.77,0-2.07,1.63-2.07,3v5.55h-3v-5.75a4.83,4.83,0,0,0-.22-1.8,1.75,1.75,0,0,0-1.62-1,2,2,0,0,0-1.7,1,4.49,4.49,0,0,0-.35,2.07v5.55h-3V161.27h3v1.22a4.15,4.15,0,0,1,3.3-1.57,3.68,3.68,0,0,1,3.37,2,4,4,0,0,1,3.55-2,3.56,3.56,0,0,1,3,1.55,4.77,4.77,0,0,1,.58,2.62v7Z"/><path class="cls-1" d="M113.23,172.1v-1.42a4.18,4.18,0,0,1-3.52,1.77c-3.25,0-5.32-2.7-5.32-5.8s2.07-5.72,5.25-5.72a4.51,4.51,0,0,1,3.6,1.72v-1.37h3V172.1Zm-2.7-8.45a3,3,0,1,0,3,3A3,3,0,0,0,110.53,163.65Z"/><path class="cls-1" d="M133.7,172.1v-1.42a4.18,4.18,0,0,1-3.52,1.77c-3.25,0-5.32-2.7-5.32-5.8s2.07-5.72,5.25-5.72a4.51,4.51,0,0,1,3.6,1.72v-9.27h3V172.1Zm-2.7-8.45a3,3,0,1,0,3,3A3,3,0,0,0,131,163.65Z"/><path class="cls-1" d="M141.13,158.52a1.82,1.82,0,0,1,0-3.65,1.82,1.82,0,0,1,0,3.65ZM139.6,172.1V161.27h3V172.1Z"/><path class="cls-1" d="M148.53,163.87v8.22h-3v-8.22h-1.2v-2.6h1.2v-3.7h3v3.7h2.13v2.6Z"/><path class="cls-1" d="M155.28,163.87v8.22h-3v-8.22h-1.2v-2.6h1.2v-3.7h3v3.7h2.13v2.6Z"/><path class="cls-1" d="M172.63,172.1v-5.92c0-1.5-.33-2.67-2.07-2.67s-2.3,1.45-2.3,3v5.55h-3V153.38h3v9.3a3.94,3.94,0,0,1,3.4-1.75,4.13,4.13,0,0,1,3.15,1.32,4.29,4.29,0,0,1,.85,3v6.8Z"/><path class="cls-1" d="M183.78,172.45c-3,0-5.22-1.32-5.22-4.55v-6.62h3v6.12c0,1.47.63,2.47,2.2,2.47s2.2-1,2.2-2.47v-6.12h3v6.62C189,171.12,186.75,172.45,183.78,172.45Z"/><path class="cls-1" d="M195.38,172.45a5.76,5.76,0,0,1-4.12-1.8l1.6-1.85a3.52,3.52,0,0,0,2.55,1.27,1.27,1.27,0,0,0,1.38-1.2c0-1.85-4.82-.92-4.82-4.57,0-2.2,1.82-3.42,3.87-3.42a5.58,5.58,0,0,1,3.52,1.15l-1.5,1.77a3,3,0,0,0-1.8-.73c-.52,0-1.15.33-1.15.92,0,1.57,5,.88,5,4.57C199.9,171.1,197.7,172.45,195.38,172.45Z"/><path class="cls-1" d="M57.05,202.45a4.33,4.33,0,0,1-3.62-1.78v7.2h-3v-16.6h3v1.37A4.32,4.32,0,0,1,57,190.92c3.22,0,5.35,2.67,5.35,5.77S60.23,202.45,57.05,202.45Zm-.9-8.8a3,3,0,1,0,3,3A3,3,0,0,0,56.16,193.65Z"/><path class="cls-1" d="M72.9,202.1v-1.42a4.18,4.18,0,0,1-3.52,1.78c-3.25,0-5.32-2.7-5.32-5.8s2.07-5.72,5.25-5.72a4.51,4.51,0,0,1,3.6,1.72v-1.37h3V202.1Zm-2.7-8.45a3,3,0,1,0,3,3A3,3,0,0,0,70.21,193.65Zm-.43-4.27a2.25,2.25,0,0,1,0-4.5,2.25,2.25,0,1,1,0,4.5Zm0-3.12a.88.88,0,1,0,.88.88A.85.85,0,0,0,69.78,186.25Z"/><path class="cls-1" d="M88.23,193.87v8.22h-3v-8.22H84v-2.6h1.17V187.8a5.28,5.28,0,0,1,.47-2.55,4.28,4.28,0,0,1,3.75-2.17,3.58,3.58,0,0,1,1.6.38v2.77a3,3,0,0,0-1.37-.4c-1.35,0-1.42,1.4-1.42,2.42v3H91v2.6Z"/><path class="cls-1" d="M95,197.17c0,1.67.85,2.9,2.65,2.9a2.84,2.84,0,0,0,2.57-1.45l2.8.45a5.31,5.31,0,0,1-5.32,3.38,5.43,5.43,0,0,1-5.8-5.77,5.36,5.36,0,0,1,5.67-5.75c3.57,0,5.52,2.4,5.52,5.85v.4Zm2.62-4.1a2.45,2.45,0,0,0-2.52,2.17h5.12A2.51,2.51,0,0,0,97.58,193.07Z"/><path class="cls-1" d="M119.2,202.1v-5.92c0-1.28-.2-2.68-1.8-2.68-1.77,0-2.07,1.63-2.07,3v5.55h-3v-5.75a4.83,4.83,0,0,0-.22-1.8,1.75,1.75,0,0,0-1.62-1.05,2,2,0,0,0-1.7,1,4.49,4.49,0,0,0-.35,2.07v5.55h-3V191.27h3v1.22a4.16,4.16,0,0,1,3.3-1.58,3.68,3.68,0,0,1,3.37,2,4,4,0,0,1,3.55-2,3.56,3.56,0,0,1,3,1.55,4.76,4.76,0,0,1,.58,2.62v7Z"/><path class="cls-1" d="M145.2,202.1v-5.92c0-1.28-.2-2.68-1.8-2.68-1.77,0-2.08,1.63-2.08,3v5.55h-3v-5.75a4.81,4.81,0,0,0-.23-1.8,1.75,1.75,0,0,0-1.62-1.05,2,2,0,0,0-1.7,1,4.5,4.5,0,0,0-.35,2.07v5.55h-3V191.27h3v1.22a4.16,4.16,0,0,1,3.3-1.58,3.68,3.68,0,0,1,3.38,2,4,4,0,0,1,3.55-2,3.56,3.56,0,0,1,3,1.55,4.76,4.76,0,0,1,.57,2.62v7Z"/><path class="cls-1" d="M152.6,188.53a1.82,1.82,0,0,1,0-3.65,1.82,1.82,0,0,1,0,3.65Zm-1.52,13.57V191.27h3V202.1Z"/><path class="cls-1" d="M164.35,202.1v-6c0-1.47-.32-2.6-2-2.6-1.87,0-2.32,1.38-2.32,3v5.6h-3V191.27h3v1.33a4,4,0,0,1,3.4-1.68,3.74,3.74,0,0,1,4,4.3v6.87Z"/><path class="cls-1" d="M175.5,202.45c-3,0-5.22-1.33-5.22-4.55v-6.62h3v6.12c0,1.47.63,2.47,2.2,2.47s2.2-1,2.2-2.47v-6.12h3v6.62C180.75,201.12,178.48,202.45,175.5,202.45Z"/><path class="cls-1" d="M186.7,193.87v8.22h-3v-8.22h-1.2v-2.6h1.2v-3.7h3v3.7h2.12v2.6Z"/><path class="cls-1" d="M192.93,197.17c.05,1.67.85,2.9,2.65,2.9a2.83,2.83,0,0,0,2.57-1.45l2.8.45a5.31,5.31,0,0,1-5.32,3.38,5.43,5.43,0,0,1-5.8-5.77,5.36,5.36,0,0,1,5.67-5.75c3.57,0,5.52,2.4,5.52,5.85v.4Zm2.63-4.1a2.45,2.45,0,0,0-2.52,2.17h5.12A2.51,2.51,0,0,0,195.55,193.07Z"/><path class="cls-1" d="M210.43,194a2.67,2.67,0,0,0-1.45-.37c-2,0-2.6,1.45-2.6,3.25v5.2h-3V191.27h3v1.62a3.53,3.53,0,0,1,4.47-1.72Z"/><path class="cls-1" d="M212.93,202.42a1.95,1.95,0,1,1,2-1.95A2,2,0,0,1,212.93,202.42Z"/></svg>