<svg id="Layer_1" data-name="Layer 1" xmlns="http://www.w3.org/2000/svg" viewBox="0 0 250 360"><defs><style>.cls-1{fill:#d80201;}</style></defs><title>text</title><path class="cls-1" d="M105.22,173.42l-10.15-11.6V173.1H91.82v-17h2.25l10.15,11.6V156.43h3.25v17Z"/><path class="cls-1" d="M114,178.9h-3.43l4-7.43-5.13-9.2h3.53l3.25,6.15,3.1-6.15h3.45Z"/><path class="cls-1" d="M131.59,173.1v-5.93c0-1.5-.32-2.67-2.07-2.67s-2.3,1.45-2.3,3.05v5.55h-3V154.38h3v9.29a3.94,3.94,0,0,1,3.4-1.75,4.16,4.16,0,0,1,3.15,1.33,4.31,4.31,0,0,1,.85,3.05v6.8Z"/><path class="cls-1" d="M140,168.17c.05,1.68.85,2.9,2.65,2.9a2.84,2.84,0,0,0,2.58-1.45l2.8.45a5.31,5.31,0,0,1-5.33,3.38,5.43,5.43,0,0,1-5.8-5.78,5.36,5.36,0,0,1,5.68-5.75c3.57,0,5.52,2.4,5.52,5.85v.4Zm2.63-4.1a2.46,2.46,0,0,0-2.53,2.18h5.13A2.52,2.52,0,0,0,142.67,164.07Z"/><path class="cls-1" d="M153.52,164.87v8.23h-3v-8.23h-1.2v-2.6h1.2v-3.69h3v3.69h2.12v2.6Z"/><path class="cls-1" d="M158.89,173.42a1.95,1.95,0,1,1,2-1.95A2,2,0,0,1,158.89,173.42Zm-1.55-5.1V156.43h3.1v11.89Z"/><path class="cls-1" d="M34.58,203.1l4.93-5.58c1.35-1.52,3.82-4.05,3.82-6.17a2.49,2.49,0,0,0-2.52-2.47c-1.65,0-2.43,1.22-2.48,2.75H34.86c.22-3.38,2.42-5.63,5.85-5.63,3.12,0,5.87,2.05,5.87,5.35,0,2.32-1.52,4.22-3,5.82l-2.9,3.1h6.05v2.83Z"/><path class="cls-1" d="M48.33,198.62v-2.55H54v2.55Z"/><path class="cls-1" d="M56.88,189.53a1.83,1.83,0,0,1,0-3.65,1.83,1.83,0,0,1,0,3.65ZM55.36,203.1V192.27h3V203.1Z"/><path class="cls-1" d="M68.63,203.1v-6c0-1.48-.32-2.6-2-2.6s-2.32,1.37-2.32,3v5.6h-3V192.27h3v1.33a4,4,0,0,1,3.4-1.68,3.73,3.73,0,0,1,4,4.3v6.88Z"/><path class="cls-1" d="M73.11,198.62v-2.55h5.62v2.55Z"/><path class="cls-1" d="M84.41,203.1V189.28H82v-2.85h5.65V203.1Z"/><path class="cls-1" d="M108,203.1v-5.93c0-1.5-.32-2.67-2.07-2.67s-2.3,1.45-2.3,3.05v5.55h-3V184.38h3v9.29a4,4,0,0,1,3.4-1.75,4.16,4.16,0,0,1,3.15,1.33,4.31,4.31,0,0,1,.85,3.05v6.8Z"/><path class="cls-1" d="M119.15,203.45c-3,0-5.22-1.33-5.22-4.55v-6.63h3v6.13c0,1.47.62,2.47,2.19,2.47s2.2-1,2.2-2.47v-6.13h3.05v6.63C124.4,202.12,122.13,203.45,119.15,203.45Z"/><path class="cls-1" d="M130.76,203.45a5.8,5.8,0,0,1-4.13-1.8l1.6-1.85a3.55,3.55,0,0,0,2.55,1.27,1.27,1.27,0,0,0,1.37-1.2c0-1.85-4.82-.92-4.82-4.57,0-2.2,1.83-3.42,3.88-3.42a5.58,5.58,0,0,1,3.52,1.14l-1.5,1.78a3.05,3.05,0,0,0-1.8-.73c-.52,0-1.15.33-1.15.93,0,1.57,5,.87,5,4.57C135.28,202.1,133.08,203.45,130.76,203.45Z"/><path class="cls-1" d="M144.85,203.1l-4.07-4.65-.32.32v4.33h-3V184.38h3v11.84l4-3.95h4.1L143.53,197,149,203.1Z"/><path class="cls-1" d="M158.05,203.1v-1.43a4.17,4.17,0,0,1-3.52,1.78c-3.25,0-5.32-2.7-5.32-5.8s2.07-5.73,5.25-5.73a4.49,4.49,0,0,1,3.59,1.73v-1.38h3V203.1Zm-2.7-8.45a3,3,0,1,0,3,3A3,3,0,0,0,155.35,194.65Z"/><path class="cls-1" d="M167.06,194.87v8.23h-3v-8.23h-1.2v-2.6H164v-3.69h3v3.69h2.12v2.6Z"/><path class="cls-1" d="M179,203.1v-1.43a4.18,4.18,0,0,1-3.53,1.78c-3.25,0-5.32-2.7-5.32-5.8s2.07-5.73,5.25-5.73a4.51,4.51,0,0,1,3.6,1.73v-1.38h3.05V203.1Zm-2.7-8.45a3,3,0,1,0,3,3A3,3,0,0,0,176.33,194.65Z"/><path class="cls-1" d="M185,203.1V184.38h3V203.1Z"/><path class="cls-1" d="M196.53,203.45c-3.45,0-6.2-2.15-6.2-5.75s2.75-5.78,6.22-5.78,6.15,2.18,6.15,5.75S200,203.45,196.53,203.45Zm0-8.8a3,3,0,1,0,3.08,3A3.06,3.06,0,0,0,196.5,194.65Z"/><path class="cls-1" d="M215.08,207a5.91,5.91,0,0,1-4.6,1.9c-2.78,0-5.45-1.6-5.75-4.55H208a2.42,2.42,0,0,0,2.58,2c1.9,0,2.67-1.33,2.67-3.08v-1.62a4.5,4.5,0,0,1-3.65,1.8c-3.2,0-5.14-2.58-5.14-5.63s2-5.9,5.29-5.9a4.06,4.06,0,0,1,3.5,1.75v-1.4h3.05V202.7C216.3,204.4,216.23,205.67,215.08,207Zm-4.48-12.37a3,3,0,1,0,3,3A3,3,0,0,0,210.6,194.65Z"/></svg>