<svg id="Layer_1" data-name="Layer 1" xmlns="http://www.w3.org/2000/svg" viewBox="0 0 250 360"><defs><style>.cls-1{fill:#d80201;}</style></defs><title>text</title><path class="cls-1" d="M42.87,171.71H35.7V150.37H41c1.73,0,3.84.16,5.21,1.28A5.69,5.69,0,0,1,48.11,156a4.48,4.48,0,0,1-2.33,4.29,4.83,4.83,0,0,1,2.78,1.34,5.78,5.78,0,0,1,1.54,4C50.1,169.92,46.71,171.71,42.87,171.71Zm-1.8-18H39.86v5.5H41c1.86,0,3.23-.73,3.23-2.75S42.93,153.76,41.07,153.76Zm.71,8.67H39.86v5.92h1.79c2.05,0,4.16-.48,4.16-3S43.76,162.43,41.78,162.43Z"/><path class="cls-1" d="M57.36,179.13H53l5.08-9.5-6.55-11.78H56l4.16,7.88,4-7.88h4.42Z"/><path class="cls-1" d="M83.31,176.73a7.55,7.55,0,0,1-5.89,2.44c-3.55,0-7-2-7.36-5.83h4.2a3.07,3.07,0,0,0,3.29,2.53c2.43,0,3.43-1.7,3.43-3.94v-2.08a5.77,5.77,0,0,1-4.68,2.31c-4.09,0-6.59-3.3-6.59-7.2s2.56-7.55,6.79-7.55A5.19,5.19,0,0,1,81,159.65v-1.8h3.9V171.2C84.88,173.37,84.78,175,83.31,176.73Zm-5.73-15.84a3.89,3.89,0,1,0,3.88,3.88A3.87,3.87,0,0,0,77.58,160.89Z"/><path class="cls-1" d="M101.46,176.73a7.57,7.57,0,0,1-5.89,2.44c-3.55,0-7-2-7.36-5.83H92.4a3.09,3.09,0,0,0,3.3,2.53c2.43,0,3.42-1.7,3.42-3.94v-2.08a5.75,5.75,0,0,1-4.67,2.31c-4.1,0-6.59-3.3-6.59-7.2s2.56-7.55,6.78-7.55a5.19,5.19,0,0,1,4.48,2.24v-1.8H103V171.2C103,173.37,102.93,175,101.46,176.73Zm-5.73-15.84a3.89,3.89,0,1,0,3.87,3.88A3.86,3.86,0,0,0,95.73,160.89Z"/><path class="cls-1" d="M124.21,171.71V164c0-1.89-.42-3.33-2.63-3.33-2.4,0-3,1.76-3,3.84v7.17h-3.87V157.85h3.87v1.7a5.12,5.12,0,0,1,4.35-2.14,4.78,4.78,0,0,1,5.12,5.5v8.8Z"/><path class="cls-1" d="M135.12,179.13h-4.38l5.08-9.5-6.56-11.78h4.52l4.16,7.88,4-7.88h4.42Z"/><path class="cls-1" d="M152.11,161.18v10.53h-3.87V161.18H146.7v-3.33h1.54v-4.73h3.87v4.73h2.72v3.33Z"/><path class="cls-1" d="M160.75,161.18v10.53h-3.87V161.18h-1.54v-3.33h1.54v-4.73h3.87v4.73h2.72v3.33Z"/><path class="cls-1" d="M183,171.71v-7.58c0-1.92-.42-3.43-2.66-3.43-2.4,0-2.94,1.86-2.94,3.91v7.1h-3.87v-24h3.87v11.91a5,5,0,0,1,4.35-2.24,5.3,5.3,0,0,1,4,1.69,5.52,5.52,0,0,1,1.09,3.91v8.7Z"/><path class="cls-1" d="M197.23,172.16c-3.81,0-6.69-1.7-6.69-5.83v-8.48h3.87v7.84c0,1.89.8,3.17,2.82,3.17s2.82-1.28,2.82-3.17v-7.84H204v8.48C204,170.46,201,172.16,197.23,172.16Z"/><path class="cls-1" d="M212.08,172.16a7.36,7.36,0,0,1-5.28-2.31l2-2.36a4.52,4.52,0,0,0,3.26,1.63,1.63,1.63,0,0,0,1.76-1.54c0-2.37-6.18-1.18-6.18-5.85,0-2.82,2.34-4.39,5-4.39a7.19,7.19,0,0,1,4.52,1.47l-1.92,2.28a3.84,3.84,0,0,0-2.31-.93c-.67,0-1.47.41-1.47,1.18,0,2,6.4,1.12,6.4,5.86C217.87,170.43,215.05,172.16,212.08,172.16Z"/><path class="cls-1" d="M54.1,210.11v-7.58c0-1.64-.26-3.43-2.31-3.43-2.27,0-2.65,2.08-2.65,3.91v7.1H45.26v-7.36a6.33,6.33,0,0,0-.28-2.3,2.25,2.25,0,0,0-2.08-1.35,2.53,2.53,0,0,0-2.18,1.25,5.84,5.84,0,0,0-.45,2.66v7.1H36.4V196.25h3.87v1.57a5.33,5.33,0,0,1,4.23-2,4.72,4.72,0,0,1,4.32,2.52,5.11,5.11,0,0,1,4.54-2.52,4.56,4.56,0,0,1,3.87,2,6.11,6.11,0,0,1,.74,3.36v9Z"/><path class="cls-1" d="M64.91,203.81C65,206,66,207.52,68.3,207.52a3.63,3.63,0,0,0,3.3-1.86l3.58.58c-1.21,3-3.68,4.32-6.81,4.32-4.48,0-7.42-2.88-7.42-7.39s2.81-7.36,7.26-7.36,7.07,3.07,7.07,7.48v.52Zm3.36-5.25A3.14,3.14,0,0,0,65,201.34H71.6A3.2,3.2,0,0,0,68.27,198.56Z"/><path class="cls-1" d="M88.85,210.11v-1.82a5.37,5.37,0,0,1-4.51,2.27c-4.16,0-6.82-3.46-6.82-7.43s2.66-7.32,6.72-7.32a5.77,5.77,0,0,1,4.61,2.2V186.14h3.9v24Zm-3.46-10.82a3.89,3.89,0,1,0,3.87,3.88A3.87,3.87,0,0,0,85.39,199.29Z"/><path class="cls-1" d="M112.88,210.56a5.45,5.45,0,0,1-4.54-2.27v1.82h-3.88v-24h3.88V198a5.86,5.86,0,0,1,4.64-2.2c4.06,0,6.75,3.45,6.75,7.32S117,210.56,112.88,210.56Zm-1.06-11.27a3.89,3.89,0,1,0,3.88,3.88A3.87,3.87,0,0,0,111.82,199.29Z"/><path class="cls-1" d="M131.73,199.77a3.45,3.45,0,0,0-1.86-.48c-2.62,0-3.33,1.86-3.33,4.16v6.66h-3.87V196.25h3.87v2.08a4.47,4.47,0,0,1,4-2.52,4.3,4.3,0,0,1,1.69.32Z"/><path class="cls-1" d="M144.78,210.11v-1.82a5.36,5.36,0,0,1-4.51,2.27c-4.16,0-6.81-3.46-6.81-7.43s2.65-7.32,6.71-7.32a5.77,5.77,0,0,1,4.61,2.2v-1.76h3.91v13.86Zm-3.45-10.82a3.89,3.89,0,1,0,3.87,3.88A3.86,3.86,0,0,0,141.33,199.29Z"/><path class="cls-1" d="M156.81,210.56a7.39,7.39,0,0,1-5.28-2.31l2.05-2.36a4.54,4.54,0,0,0,3.27,1.63,1.64,1.64,0,0,0,1.76-1.54c0-2.37-6.18-1.18-6.18-5.85,0-2.82,2.34-4.39,5-4.39a7.16,7.16,0,0,1,4.51,1.47L160,199.49a3.81,3.81,0,0,0-2.3-.93c-.67,0-1.47.41-1.47,1.18,0,2,6.4,1.12,6.4,5.86C162.61,208.83,159.79,210.56,156.81,210.56Z"/><path class="cls-1" d="M183.05,210.11v-7.58c0-1.64-.25-3.43-2.3-3.43-2.27,0-2.66,2.08-2.66,3.91v7.1h-3.87v-7.36a6.12,6.12,0,0,0-.29-2.3,2.23,2.23,0,0,0-2.08-1.35,2.51,2.51,0,0,0-2.17,1.25,5.71,5.71,0,0,0-.45,2.66v7.1h-3.87V196.25h3.87v1.57a5.31,5.31,0,0,1,4.22-2,4.7,4.7,0,0,1,4.32,2.52,5.13,5.13,0,0,1,4.55-2.52,4.56,4.56,0,0,1,3.87,2,6.11,6.11,0,0,1,.74,3.36v9Z"/><path class="cls-1" d="M194,217.53h-4.39l5.09-9.5-6.56-11.78h4.51l4.16,7.88,4-7.88h4.42Z"/><path class="cls-1" d="M210.77,210.56a7.36,7.36,0,0,1-5.28-2.31l2-2.36a4.56,4.56,0,0,0,3.27,1.63,1.64,1.64,0,0,0,1.76-1.54c0-2.37-6.18-1.18-6.18-5.85,0-2.82,2.34-4.39,5-4.39a7.14,7.14,0,0,1,4.51,1.47l-1.92,2.28a3.81,3.81,0,0,0-2.3-.93c-.67,0-1.47.41-1.47,1.18,0,2,6.4,1.12,6.4,5.86C216.56,208.83,213.74,210.56,210.77,210.56Z"/></svg>