<svg id="Layer_1" data-name="Layer 1" xmlns="http://www.w3.org/2000/svg" viewBox="0 0 250 360"><defs><style>.cls-1{fill:#d80201;}</style></defs><title>text</title><path class="cls-1" d="M58.17,171.71v-9.5h-9v9.5H45V150.37h4.16v8.25h9v-8.25h4.16v21.34Z"/><path class="cls-1" d="M77.21,171.71v-1.82a5.37,5.37,0,0,1-4.51,2.27c-4.16,0-6.82-3.46-6.82-7.43s2.66-7.32,6.72-7.32a5.77,5.77,0,0,1,4.61,2.2v-1.76h3.9v13.86Zm-3.46-10.82a3.89,3.89,0,1,0,3.87,3.88A3.87,3.87,0,0,0,73.75,160.89Z"/><path class="cls-1" d="M84.82,171.71v-24H88.7v24Z"/><path class="cls-1" d="M99.45,172H97.66l-7.08-14.15h4.36l3.64,7.81,3.65-7.81h4.35Z"/><path class="cls-1" d="M118.36,171.71v-1.82a5.37,5.37,0,0,1-4.51,2.27c-4.16,0-6.82-3.46-6.82-7.43s2.66-7.32,6.72-7.32a5.77,5.77,0,0,1,4.61,2.2v-1.76h3.9v13.86Zm-3.46-10.82a3.89,3.89,0,1,0,3.88,3.88A3.87,3.87,0,0,0,114.9,160.89Z"/><path class="cls-1" d="M142.49,172.16a5.55,5.55,0,0,1-4.64-2.27v9.21H134V157.85h3.87v1.76a5.52,5.52,0,0,1,4.54-2.2c4.13,0,6.85,3.42,6.85,7.39S146.55,172.16,142.49,172.16Zm-1.16-11.27a3.89,3.89,0,1,0,3.88,3.88A3.87,3.87,0,0,0,141.33,160.89Z"/><path class="cls-1" d="M161.24,161.37a3.45,3.45,0,0,0-1.86-.48c-2.62,0-3.33,1.86-3.33,4.16v6.66h-3.87V157.85h3.87v2.09a4.46,4.46,0,0,1,4-2.53,4.3,4.3,0,0,1,1.69.32Z"/><path class="cls-1" d="M165.59,154.34a2.34,2.34,0,0,1,0-4.68,2.34,2.34,0,0,1,0,4.68Zm-2,17.37V157.85h3.87v13.86Z"/><path class="cls-1" d="M175.57,172.16a7.39,7.39,0,0,1-5.28-2.31l2.05-2.36a4.54,4.54,0,0,0,3.27,1.63,1.64,1.64,0,0,0,1.76-1.54c0-2.37-6.18-1.18-6.18-5.85,0-2.82,2.34-4.39,5-4.39a7.16,7.16,0,0,1,4.51,1.47l-1.92,2.28a3.81,3.81,0,0,0-2.3-.93c-.67,0-1.47.41-1.47,1.18,0,2,6.4,1.12,6.4,5.86C181.37,170.43,178.55,172.16,175.57,172.16Z"/><path class="cls-1" d="M187.35,165.41c.06,2.14,1.09,3.71,3.39,3.71a3.64,3.64,0,0,0,3.3-1.86l3.58.58c-1.21,3-3.68,4.32-6.81,4.32-4.48,0-7.43-2.88-7.43-7.39s2.82-7.36,7.27-7.36,7.07,3.07,7.07,7.48v.52Zm3.36-5.25a3.14,3.14,0,0,0-3.23,2.78H194A3.22,3.22,0,0,0,190.71,160.16Z"/><path class="cls-1" d="M204.6,161.18v10.53h-3.87V161.18h-1.54v-3.33h1.54v-4.73h3.87v4.73h2.72v3.33Z"/><path class="cls-1" d="M40.81,210.56a5.55,5.55,0,0,1-4.64-2.27v9.21H32.3V196.25h3.87V198a5.52,5.52,0,0,1,4.54-2.2c4.13,0,6.85,3.42,6.85,7.39S44.87,210.56,40.81,210.56Zm-1.15-11.27a3.89,3.89,0,1,0,3.87,3.88A3.86,3.86,0,0,0,39.66,199.29Z"/><path class="cls-1" d="M61.1,210.11v-1.82a5.37,5.37,0,0,1-4.52,2.27c-4.16,0-6.81-3.46-6.81-7.43s2.65-7.32,6.72-7.32A5.77,5.77,0,0,1,61.1,198v-1.76H65v13.86Zm-3.46-10.82a3.89,3.89,0,1,0,3.87,3.88A3.87,3.87,0,0,0,57.64,199.29Zm-.54-5.47a2.88,2.88,0,0,1,0-5.76,2.88,2.88,0,0,1,0,5.76Zm0-4a1.12,1.12,0,1,0,1.12,1.12A1.09,1.09,0,0,0,57.1,189.82Z"/><path class="cls-1" d="M85.13,210.56a5.48,5.48,0,0,1-4.55-2.27v1.82H76.71v-24h3.87V198a5.89,5.89,0,0,1,4.64-2.2c4.07,0,6.75,3.45,6.75,7.32S89.29,210.56,85.13,210.56Zm-1.06-11.27a3.89,3.89,0,1,0,3.87,3.88A3.87,3.87,0,0,0,84.07,199.29Z"/><path class="cls-1" d="M104,199.77a3.41,3.41,0,0,0-1.85-.48c-2.62,0-3.33,1.86-3.33,4.16v6.66H94.92V196.25h3.87v2.08a4.47,4.47,0,0,1,4-2.52,4.35,4.35,0,0,1,1.7.32Z"/><path class="cls-1" d="M117,210.11v-1.82a5.37,5.37,0,0,1-4.51,2.27c-4.16,0-6.82-3.46-6.82-7.43s2.66-7.32,6.72-7.32A5.77,5.77,0,0,1,117,198v-1.76h3.9v13.86Zm-3.46-10.82a3.89,3.89,0,1,0,3.88,3.88A3.87,3.87,0,0,0,113.57,199.29Z"/><path class="cls-1" d="M129.06,210.56a7.39,7.39,0,0,1-5.28-2.31l2-2.36a4.52,4.52,0,0,0,3.26,1.63,1.63,1.63,0,0,0,1.76-1.54c0-2.37-6.17-1.18-6.17-5.85,0-2.82,2.33-4.39,5-4.39a7.16,7.16,0,0,1,4.51,1.47l-1.92,2.28a3.81,3.81,0,0,0-2.3-.93c-.68,0-1.48.41-1.48,1.18,0,2,6.4,1.12,6.4,5.86C134.85,208.83,132,210.56,129.06,210.56Z"/><path class="cls-1" d="M147.11,210.11l-5.22-6-.41.41v5.54h-3.87v-24h3.87v15.17l5.18-5.06h5.25l-6.5,6.08,7,7.78Z"/><path class="cls-1" d="M164,210.11v-1.82a5.37,5.37,0,0,1-4.52,2.27c-4.16,0-6.81-3.46-6.81-7.43s2.65-7.32,6.72-7.32A5.77,5.77,0,0,1,164,198v-1.76h3.9v13.86Zm-3.46-10.82a3.89,3.89,0,1,0,3.87,3.88A3.87,3.87,0,0,0,160.55,199.29Z"/><path class="cls-1" d="M189.32,210.11v-7.58c0-1.64-.26-3.43-2.31-3.43-2.27,0-2.65,2.08-2.65,3.91v7.1h-3.87v-7.36a6.12,6.12,0,0,0-.29-2.3,2.24,2.24,0,0,0-2.08-1.35,2.53,2.53,0,0,0-2.18,1.25,5.84,5.84,0,0,0-.45,2.66v7.1h-3.87V196.25h3.87v1.57a5.34,5.34,0,0,1,4.23-2,4.72,4.72,0,0,1,4.32,2.52,5.13,5.13,0,0,1,4.54-2.52,4.56,4.56,0,0,1,3.87,2,6.11,6.11,0,0,1,.74,3.36v9Z"/><path class="cls-1" d="M198.79,192.74a2.34,2.34,0,0,1,0-4.68,2.34,2.34,0,0,1,0,4.68Zm-1.95,17.37V196.25h3.87v13.86Z"/><path class="cls-1" d="M213.83,210.11v-7.68c0-1.89-.42-3.33-2.62-3.33-2.4,0-3,1.76-3,3.84v7.17h-3.87V196.25h3.87V198a5.12,5.12,0,0,1,4.35-2.14,4.78,4.78,0,0,1,5.12,5.5v8.8Z"/></svg>