<svg id="Layer_1" data-name="Layer 1" xmlns="http://www.w3.org/2000/svg" viewBox="0 0 250 360"><defs><style>.cls-1{fill:#d80201;}</style></defs><title>text</title><path class="cls-1" d="M31.9,173.1V156.43h9.22v2.82h-6V163H40.9v2.82H35.15v4.5h6v2.83Z"/><path class="cls-1" d="M52.52,173.1l-3.1-3.78-3.15,3.78H42.38l5.14-5.9-4.14-4.93H47.2l2.22,2.8,2.28-2.8h3.85L51.3,167.2l5.07,5.9Z"/><path class="cls-1" d="M60.9,164.87v8.23h-3v-8.23H56.67v-2.6h1.21v-3.69h3v3.69H63v2.6Z"/><path class="cls-1" d="M71.67,165a2.71,2.71,0,0,0-1.45-.37c-2,0-2.6,1.45-2.6,3.25v5.2h-3V162.27h3v1.63a3.47,3.47,0,0,1,3.15-2,3.57,3.57,0,0,1,1.33.25Z"/><path class="cls-1" d="M81.87,173.1v-1.43a4.17,4.17,0,0,1-3.52,1.78c-3.25,0-5.33-2.7-5.33-5.8s2.08-5.73,5.25-5.73a4.49,4.49,0,0,1,3.6,1.73v-1.38h3V173.1Zm-2.7-8.45a3,3,0,1,0,3,3A3,3,0,0,0,79.17,164.65Z"/><path class="cls-1" d="M100.65,173.45a4.24,4.24,0,0,1-3.55-1.78v1.43h-3V154.38h3v9.27a4.58,4.58,0,0,1,3.62-1.73c3.18,0,5.28,2.7,5.28,5.73S103.9,173.45,100.65,173.45Zm-.83-8.8a3,3,0,1,0,3,3A3,3,0,0,0,99.82,164.65Z"/><path class="cls-1" d="M115.37,165a2.71,2.71,0,0,0-1.45-.37c-2,0-2.6,1.45-2.6,3.25v5.2h-3V162.27h3v1.63a3.47,3.47,0,0,1,3.15-2,3.57,3.57,0,0,1,1.33.25Z"/><path class="cls-1" d="M125.57,173.1v-1.43a4.17,4.17,0,0,1-3.52,1.78c-3.25,0-5.33-2.7-5.33-5.8s2.08-5.73,5.25-5.73a4.49,4.49,0,0,1,3.6,1.73v-1.38h3.05V173.1Zm-2.7-8.45a3,3,0,1,0,3,3A3,3,0,0,0,122.87,164.65Z"/><path class="cls-1" d="M146.05,173.1v-1.43a4.18,4.18,0,0,1-3.53,1.78c-3.25,0-5.32-2.7-5.32-5.8s2.07-5.73,5.25-5.73a4.51,4.51,0,0,1,3.6,1.73v-9.27h3V173.1Zm-2.7-8.45a3,3,0,1,0,3,3A3,3,0,0,0,143.35,164.65Z"/><path class="cls-1" d="M154.52,168.17c0,1.68.85,2.9,2.65,2.9a2.84,2.84,0,0,0,2.58-1.45l2.79.45a5.3,5.3,0,0,1-5.32,3.38,5.43,5.43,0,0,1-5.8-5.78,5.36,5.36,0,0,1,5.68-5.75c3.57,0,5.52,2.4,5.52,5.85v.4Zm2.63-4.1a2.46,2.46,0,0,0-2.53,2.18h5.13A2.52,2.52,0,0,0,157.15,164.07Z"/><path class="cls-1" d="M173.22,173.1v-1.43a4.17,4.17,0,0,1-3.52,1.78c-3.25,0-5.33-2.7-5.33-5.8s2.08-5.73,5.25-5.73a4.49,4.49,0,0,1,3.6,1.73v-1.38h3.05V173.1Zm-2.7-8.45a3,3,0,1,0,3,3A3,3,0,0,0,170.52,164.65Z"/><path class="cls-1" d="M179.17,173.1V154.38h3V173.1Z"/><path class="cls-1" d="M194.47,164.87v8.23h-3v-8.23h-1.18v-2.6h1.18V158.8a5.34,5.34,0,0,1,.47-2.55,4.28,4.28,0,0,1,3.75-2.17,3.54,3.54,0,0,1,1.6.37v2.78a2.94,2.94,0,0,0-1.37-.4c-1.35,0-1.43,1.4-1.43,2.42v3h2.8v2.6Z"/><path class="cls-1" d="M204.29,173.45c-3.44,0-6.19-2.15-6.19-5.75s2.75-5.78,6.22-5.78,6.15,2.18,6.15,5.75S207.72,173.45,204.29,173.45Zm-2.62-13.2a1.8,1.8,0,1,1,0-3.6,1.8,1.8,0,1,1,0,3.6Zm2.6,4.4a3,3,0,1,0,3.07,3A3.06,3.06,0,0,0,204.27,164.65Zm2.6-4.4a1.83,1.83,0,0,1-1.8-1.8,1.8,1.8,0,1,1,1.8,1.8Z"/><path class="cls-1" d="M219.87,165a2.73,2.73,0,0,0-1.45-.37c-2,0-2.6,1.45-2.6,3.25v5.2h-3V162.27h3v1.63a3.47,3.47,0,0,1,3.15-2,3.56,3.56,0,0,1,1.32.25Z"/><path class="cls-1" d="M47.79,203.1v-1.43a4.18,4.18,0,0,1-3.53,1.78c-3.25,0-5.32-2.7-5.32-5.8s2.07-5.73,5.25-5.73a4.51,4.51,0,0,1,3.6,1.73v-1.38h3V203.1Zm-2.7-8.45a3,3,0,1,0,3,3A3,3,0,0,0,45.09,194.65Z"/><path class="cls-1" d="M53.74,203.1V184.38h3V203.1Z"/><path class="cls-1" d="M59.66,203.1V184.38h3V203.1Z"/><path class="cls-1" d="M73.86,203.1v-1.43a4.17,4.17,0,0,1-3.53,1.78c-3.24,0-5.32-2.7-5.32-5.8s2.08-5.73,5.25-5.73a4.51,4.51,0,0,1,3.6,1.73v-1.38h3V203.1Zm-2.7-8.45a3,3,0,1,0,3,3A3,3,0,0,0,71.16,194.65Z"/><path class="cls-1" d="M93.46,203.1v-6c0-1.48-.33-2.6-2-2.6s-2.32,1.37-2.32,3v5.6h-3V192.27h3v1.33a4,4,0,0,1,3.39-1.68,3.74,3.74,0,0,1,4,4.3v6.88Z"/><path class="cls-1" d="M102,208.9H98.56l4-7.43-5.13-9.2h3.53l3.24,6.15,3.1-6.15h3.45Z"/><path class="cls-1" d="M119.88,203.1v-1.43a4.17,4.17,0,0,1-3.52,1.78c-3.25,0-5.32-2.7-5.32-5.8s2.07-5.73,5.25-5.73a4.49,4.49,0,0,1,3.59,1.73v-1.38h3.05V203.1Zm-2.7-8.45a3,3,0,1,0,3,3A3,3,0,0,0,117.18,194.65Z"/><path class="cls-1" d="M137.58,203.32h-1.4l-5.52-11h3.4l2.85,6.1,2.85-6.1h3.4Z"/><path class="cls-1" d="M152.91,203.1v-1.43a4.18,4.18,0,0,1-3.53,1.78c-3.24,0-5.32-2.7-5.32-5.8s2.08-5.73,5.25-5.73a4.51,4.51,0,0,1,3.6,1.73v-1.38H156V203.1Zm-5.22-12.85a1.8,1.8,0,0,1,0-3.6,1.8,1.8,0,0,1,0,3.6Zm2.52,4.4a3,3,0,1,0,3,3A3,3,0,0,0,150.21,194.65Zm2.67-4.4a1.83,1.83,0,0,1-1.8-1.8,1.8,1.8,0,1,1,1.8,1.8Z"/><path class="cls-1" d="M166.26,203.1v-6c0-1.48-.33-2.6-2-2.6-1.88,0-2.33,1.37-2.33,3v5.6h-3V192.27h3v1.33a4,4,0,0,1,3.4-1.68,3.74,3.74,0,0,1,4,4.3v6.88Z"/><path class="cls-1" d="M179.58,203.1v-6c0-1.48-.32-2.6-2.05-2.6s-2.32,1.37-2.32,3v5.6h-3V192.27h3v1.33a4,4,0,0,1,3.4-1.68,3.74,3.74,0,0,1,4,4.3v6.88Z"/><path class="cls-1" d="M188,198.17c.05,1.68.85,2.9,2.65,2.9a2.84,2.84,0,0,0,2.58-1.45l2.8.45a5.31,5.31,0,0,1-5.33,3.38,5.42,5.42,0,0,1-5.79-5.78,5.35,5.35,0,0,1,5.67-5.75c3.57,0,5.52,2.4,5.52,5.85v.4Zm2.63-4.1a2.46,2.46,0,0,0-2.53,2.18h5.13A2.52,2.52,0,0,0,190.66,194.07Z"/><path class="cls-1" d="M205.53,195a2.71,2.71,0,0,0-1.45-.37c-2.05,0-2.6,1.45-2.6,3.25v5.2h-3V192.27h3v1.63a3.47,3.47,0,0,1,3.15-2,3.57,3.57,0,0,1,1.33.25Z"/></svg>