<svg id="Layer_1" data-name="Layer 1" xmlns="http://www.w3.org/2000/svg" viewBox="0 0 160 600"><defs><style>.cls-1{fill:#d80201;}</style></defs><title>text</title><path class="cls-1" d="M37.26,273.78A7.08,7.08,0,0,1,30,279.44a7.73,7.73,0,0,1-8-8,7.86,7.86,0,0,1,8.14-8A7.32,7.32,0,0,1,36.66,267l-2.6,1.41a4.49,4.49,0,0,0-4-2.28,5.3,5.3,0,0,0,0,10.58,3.79,3.79,0,0,0,4-3.27H30.45v-2.57h7v.37A13.2,13.2,0,0,1,37.26,273.78Z"/><path class="cls-1" d="M39.82,279.1V261.87H42.6V279.1Z"/><path class="cls-1" d="M50.44,279.42c-3.17,0-5.7-2-5.7-5.29s2.53-5.31,5.72-5.31,5.66,2,5.66,5.29S53.59,279.42,50.44,279.42ZM48,267.28A1.66,1.66,0,1,1,48,264a1.66,1.66,0,0,1,0,3.31Zm2.39,4a2.8,2.8,0,1,0,2.83,2.81A2.83,2.83,0,0,0,50.42,271.32Zm2.39-4a1.68,1.68,0,0,1-1.66-1.66,1.66,1.66,0,1,1,1.66,1.66Z"/><path class="cls-1" d="M71,279.1v-5.45c0-1.18-.19-2.46-1.66-2.46-1.63,0-1.91,1.49-1.91,2.8v5.11H64.63v-5.29a4.59,4.59,0,0,0-.2-1.66,1.62,1.62,0,0,0-1.5-1,1.81,1.81,0,0,0-1.56.89A4.13,4.13,0,0,0,61,274v5.11H58.26v-10H61v1.13a3.82,3.82,0,0,1,3-1.45,3.37,3.37,0,0,1,3.1,1.81,3.7,3.7,0,0,1,3.27-1.81,3.28,3.28,0,0,1,2.78,1.42,4.41,4.41,0,0,1,.53,2.42v6.44Z"/><path class="cls-1" d="M79.24,271.53v7.57H76.46v-7.57H75.35v-2.39h1.11v-3.4h2.78v3.4h2v2.39Z"/><path class="cls-1" d="M96,279.1v-1.31a3.85,3.85,0,0,1-3.24,1.63c-3,0-4.9-2.48-4.9-5.34a5,5,0,0,1,4.83-5.26A4.15,4.15,0,0,1,96,270.4v-1.26h2.81v10Zm-2.48-7.78a2.8,2.8,0,1,0,2.78,2.79A2.78,2.78,0,0,0,93.52,271.32Z"/><path class="cls-1" d="M104.28,271.53v7.57H101.5v-7.57h-1.1v-2.39h1.1v-3.4h2.78v3.4h2v2.39Z"/><path class="cls-1" d="M110.49,271.53v7.57h-2.78v-7.57h-1.1v-2.39h1.1v-3.4h2.78v3.4h2v2.39Z"/><path class="cls-1" d="M25.17,299.53v7.57H22.38v-7.57H21.3v-2.39h1.08v-3.2a4.87,4.87,0,0,1,.44-2.34,3.94,3.94,0,0,1,3.45-2,3.3,3.3,0,0,1,1.47.34v2.55a2.82,2.82,0,0,0-1.26-.36c-1.25,0-1.31,1.28-1.31,2.23v2.78h2.57v2.39Z"/><path class="cls-1" d="M34.2,307.42c-3.17,0-5.7-2-5.7-5.29s2.53-5.31,5.73-5.31,5.65,2,5.65,5.29S37.35,307.42,34.2,307.42Zm0-8.1A2.8,2.8,0,1,0,37,302.13,2.82,2.82,0,0,0,34.18,299.32Z"/><path class="cls-1" d="M48.53,299.67a2.48,2.48,0,0,0-1.33-.35c-1.89,0-2.39,1.34-2.39,3v4.79H42v-10h2.79v1.49a3.24,3.24,0,0,1,4.11-1.58Z"/><path class="cls-1" d="M63,307.1v-5.45c0-1.18-.18-2.46-1.66-2.46s-1.9,1.49-1.9,2.8v5.11H56.67v-5.29a4.59,4.59,0,0,0-.2-1.66,1.61,1.61,0,0,0-1.5-1,1.81,1.81,0,0,0-1.56.89,4.12,4.12,0,0,0-.32,1.91v5.11H50.3v-10h2.79v1.13a3.79,3.79,0,0,1,3-1.45,3.4,3.4,0,0,1,3.11,1.81,3.68,3.68,0,0,1,3.26-1.81,3.26,3.26,0,0,1,2.78,1.42,4.41,4.41,0,0,1,.53,2.42v6.44Z"/><path class="cls-1" d="M76.08,307.1v-1.31a3.83,3.83,0,0,1-3.24,1.63c-3,0-4.9-2.48-4.9-5.34a5,5,0,0,1,4.83-5.26,4.15,4.15,0,0,1,3.31,1.58v-1.26h2.81v10Zm-2.48-7.78a2.8,2.8,0,1,0,2.78,2.79A2.78,2.78,0,0,0,73.6,299.32Z"/><path class="cls-1" d="M94.14,307.1l-3.75-4.28-.3.3v4H87.31V289.87h2.78v10.9l3.73-3.63h3.77l-4.67,4.37,5,5.59Z"/><path class="cls-1" d="M99.2,307.1V289.87H102V307.1Z"/><path class="cls-1" d="M112.26,307.1v-1.31a3.85,3.85,0,0,1-3.24,1.63c-3,0-4.9-2.48-4.9-5.34a5,5,0,0,1,4.83-5.26,4.15,4.15,0,0,1,3.31,1.58v-1.26h2.81v10Zm-2.48-7.78a2.8,2.8,0,1,0,2.78,2.79A2.78,2.78,0,0,0,109.78,299.32Z"/><path class="cls-1" d="M124.25,299.67a2.51,2.51,0,0,0-1.34-.35c-1.88,0-2.39,1.34-2.39,3v4.79h-2.78v-10h2.78v1.49a3.26,3.26,0,0,1,4.12-1.58Z"/><path class="cls-1" d="M129.33,299.53v7.57h-2.78v-7.57h-1.11v-2.39h1.11v-3.4h2.78v3.4h1.95v2.39Z"/><path class="cls-1" d="M29.9,335.1v-1.31a3.85,3.85,0,0,1-3.24,1.63c-3,0-4.9-2.48-4.9-5.34a5,5,0,0,1,4.83-5.26,4.15,4.15,0,0,1,3.31,1.58v-8.53h2.81V335.1Zm-2.48-7.78a2.8,2.8,0,1,0,2.78,2.79A2.78,2.78,0,0,0,27.42,327.32Z"/><path class="cls-1" d="M36.73,322.61a1.68,1.68,0,1,1,1.66-1.68A1.68,1.68,0,0,1,36.73,322.61Zm-1.4,12.49v-10h2.78v10Z"/><path class="cls-1" d="M43.54,327.53v7.57H40.76v-7.57h-1.1v-2.39h1.1v-3.4h2.78v3.4h2v2.39Z"/><path class="cls-1" d="M49.75,327.53v7.57H47v-7.57h-1.1v-2.39H47v-3.4h2.78v3.4h2v2.39Z"/><path class="cls-1" d="M65.71,335.1v-5.52c0-1.36-.3-2.39-1.88-2.39s-2.14,1.26-2.14,2.76v5.15H58.91v-10h2.78v1.22a3.67,3.67,0,0,1,3.13-1.54,3.43,3.43,0,0,1,3.67,3.95v6.33Z"/><path class="cls-1" d="M73.56,340.43H70.41l3.65-6.83-4.71-8.46h3.24l3,5.66,2.85-5.66H81.6Z"/><path class="cls-1" d="M90,335.1v-1.31a3.85,3.85,0,0,1-3.24,1.63c-3,0-4.9-2.48-4.9-5.34a5,5,0,0,1,4.83-5.26A4.15,4.15,0,0,1,90,326.4v-1.26h2.81v10Zm-2.48-7.78a2.8,2.8,0,1,0,2.78,2.79A2.78,2.78,0,0,0,87.54,327.32Z"/><path class="cls-1" d="M108.05,335.1v-5.45c0-1.38-.29-2.46-1.9-2.46S104,328.52,104,330v5.11h-2.78V317.87H104v8.56a3.63,3.63,0,0,1,3.13-1.61,3.82,3.82,0,0,1,2.9,1.22,3.94,3.94,0,0,1,.78,2.8v6.26Z"/><path class="cls-1" d="M118.31,335.42c-2.73,0-4.8-1.22-4.8-4.19v-6.09h2.78v5.63c0,1.36.57,2.28,2,2.28s2-.92,2-2.28v-5.63h2.8v6.09C123.14,334.2,121.05,335.42,118.31,335.42Z"/><path class="cls-1" d="M129,335.42a5.28,5.28,0,0,1-3.79-1.66l1.47-1.7a3.23,3.23,0,0,0,2.35,1.17,1.17,1.17,0,0,0,1.26-1.1c0-1.7-4.44-.85-4.44-4.21,0-2,1.68-3.15,3.57-3.15a5.11,5.11,0,0,1,3.24,1.06l-1.38,1.63a2.75,2.75,0,0,0-1.65-.67,1,1,0,0,0-1.06.86c0,1.45,4.6.8,4.6,4.2C133.15,334.18,131.12,335.42,129,335.42Z"/><path class="cls-1" d="M140.3,328v2h-2.83v-4.05a4.27,4.27,0,0,0,.81.09c1.4,0,2.89-.71,2.89-2.3a1.72,1.72,0,0,0-1.77-1.77,1.63,1.63,0,0,0-1.65,1.64c0,.09,0,.18,0,.27h-3v-.27c0-2.51,2.35-4.12,4.69-4.12a4.45,4.45,0,0,1,4.65,4.32C144.12,326.11,142.42,327.51,140.3,328Zm-1.36,7.39a1.81,1.81,0,0,1-1.81-1.8,1.81,1.81,0,1,1,1.81,1.8Z"/></svg>