<svg id="Layer_1" data-name="Layer 1" xmlns="http://www.w3.org/2000/svg" viewBox="0 0 300 250"><defs><style>.cls-1{fill:#fff;}</style></defs><title>text</title><path class="cls-1" d="M34,117.92h-2V110.3H24.52v7.62h-2v-16h2v6.62h7.42v-6.62h2Z"/><path class="cls-1" d="M46.45,106.08l-4.09,11.84h-1.9l-4.24-11.84h2l3.3,9.62,3.25-9.62Z"/><path class="cls-1" d="M50.48,101.92v2h-2v-2Zm-.06,4.16v11.84H48.58V106.08Z"/><path class="cls-1" d="M55.93,117.92H54.09v-16h1.84Z"/><path class="cls-1" d="M69.38,117.92h-1.9L64,111.31l-2.57,3v3.66H59.61v-16h1.84v10.25l5.5-6.09h2l-3.7,4.16Z"/><path class="cls-1" d="M78.92,114.39l1.71.35a4.82,4.82,0,0,1-1.82,2.51,5.31,5.31,0,0,1-3.2,1,5,5,0,0,1-3.93-1.7,6.54,6.54,0,0,1-1.5-4.48,6.62,6.62,0,0,1,1.56-4.57,5,5,0,0,1,3.91-1.74,4.76,4.76,0,0,1,3.74,1.61,7.2,7.2,0,0,1,1.44,4.8h-8.6c0,1.79.38,3,1.13,3.62a3.64,3.64,0,0,0,2.38.94A3.25,3.25,0,0,0,78.92,114.39Zm-.1-3.6a5.36,5.36,0,0,0-.33-1.77,3.1,3.1,0,0,0-1-1.32,2.87,2.87,0,0,0-1.75-.54,3.12,3.12,0,0,0-2.32,1,4.08,4.08,0,0,0-1.08,2.65Z"/><path class="cls-1" d="M88.85,116.66v1.46a14,14,0,0,1-1.69.12c-2.29,0-3.43-1.19-3.43-3.59v-7.13h-2.1v-1.44h2.1l.08-3,1.71-.16v3.14h2.65v1.44H85.52V115c0,1.22.63,1.83,1.9,1.83A8.61,8.61,0,0,0,88.85,116.66Z"/><path class="cls-1" d="M106.61,112.54l1.83.41q-1.31,5.3-5.93,5.29a5.49,5.49,0,0,1-4.76-2.45,10.19,10.19,0,0,1-1.73-6,9.15,9.15,0,0,1,1.81-5.94,5.89,5.89,0,0,1,4.84-2.24q4.5,0,5.77,5.15l-1.88.37q-1-3.83-3.91-3.82a3.69,3.69,0,0,0-3.28,1.78,9,9,0,0,0-1.17,5,8.3,8.3,0,0,0,1.2,4.72,3.66,3.66,0,0,0,3.16,1.78Q105.62,116.55,106.61,112.54Z"/><path class="cls-1" d="M126.37,117.92h-1.94V104l-5.2,14h-1.35l-5.25-14v14h-1.7v-16h3l4.84,12.79,4.71-12.79h2.93Z"/><path class="cls-1" d="M128.61,113.69l1.81-.41a4.5,4.5,0,0,0,4.72,3.27,4.36,4.36,0,0,0,2.86-.81,2.68,2.68,0,0,0,1-2.16,2.06,2.06,0,0,0-.73-1.64,4,4,0,0,0-1.7-.86l-3.2-.79a8.22,8.22,0,0,1-2-.77,3.74,3.74,0,0,1-1.34-1.39,4.15,4.15,0,0,1-.55-2.15,3.86,3.86,0,0,1,1.51-3.2,6.11,6.11,0,0,1,3.88-1.19,5.52,5.52,0,0,1,5.73,4l-1.82.54a3.22,3.22,0,0,0-1.49-2.13,4.67,4.67,0,0,0-2.49-.72,4,4,0,0,0-2.34.7,2.24,2.24,0,0,0-1,2c0,1.19.87,2,2.6,2.41l3,.7c2.74.65,4.11,2.13,4.11,4.42a4.44,4.44,0,0,1-1.55,3.45,6.26,6.26,0,0,1-4.34,1.37A6.33,6.33,0,0,1,128.61,113.69Z"/><path class="cls-1" d="M148.27,114.85l1.76-.37c.39,1.5,1.63,2.24,3.7,2.24a3.54,3.54,0,0,0,2-.51,1.65,1.65,0,0,0,.8-1.46c0-.92-.68-1.51-2-1.76l-2.5-.48a4.5,4.5,0,0,1-2.33-1.1,2.83,2.83,0,0,1-.87-2.17,3.14,3.14,0,0,1,1.19-2.49,4.82,4.82,0,0,1,3.19-1c2.57,0,4.15,1,4.75,3l-1.68.37a2.89,2.89,0,0,0-3-1.85,3.36,3.36,0,0,0-1.85.46,1.46,1.46,0,0,0-.72,1.29c0,.88.61,1.43,1.84,1.65l2.31.42q3.61.65,3.62,3.51a3.13,3.13,0,0,1-1.35,2.63,5.85,5.85,0,0,1-3.58,1C150.67,118.24,148.94,117.11,148.27,114.85Z"/><path class="cls-1" d="M170.77,117.92h-1.9l-3.46-6.61-2.57,3v3.66H161v-16h1.84v10.25l5.5-6.09h2l-3.69,4.16Z"/><path class="cls-1" d="M182.09,117.92h-1.81c-.07-.38-.14-1.09-.21-2.14a4.28,4.28,0,0,1-4.15,2.46,4.18,4.18,0,0,1-3.06-1,3.46,3.46,0,0,1-1.07-2.54,3.55,3.55,0,0,1,1.53-3q1.52-1.15,5.18-1.15c.32,0,.85,0,1.57,0a6.92,6.92,0,0,0-.22-2,1.78,1.78,0,0,0-.92-1,3.94,3.94,0,0,0-1.85-.38c-1.87,0-3,.71-3.26,2.13l-1.7-.29q.63-3.27,5.23-3.27a4.6,4.6,0,0,1,3.47,1.09,5.38,5.38,0,0,1,1,3.75v5A10.28,10.28,0,0,0,182.09,117.92Zm-2-5.92c-.75,0-1.32-.07-1.71-.07a6.74,6.74,0,0,0-3.39.71,2.3,2.3,0,0,0-1.21,2.1,2,2,0,0,0,.65,1.48,2.69,2.69,0,0,0,1.88.61,3.53,3.53,0,0,0,2.74-1.21,4.19,4.19,0,0,0,1.07-2.85C180.1,112.55,180.09,112.3,180.07,112Z"/><path class="cls-1" d="M187.37,117.92h-1.84v-16h1.84Z"/><path class="cls-1" d="M206.29,101.92v16h-1.66v-2a4,4,0,0,1-3.74,2.35,4.13,4.13,0,0,1-3.42-1.74,7,7,0,0,1-1.34-4.4,7.45,7.45,0,0,1,1.33-4.54,4.15,4.15,0,0,1,3.51-1.81,4.08,4.08,0,0,1,3.48,2v-5.78Zm-1.84,8.73a3.34,3.34,0,0,0-.95-2.5,3.06,3.06,0,0,0-2.21-.93,2.68,2.68,0,0,0-2.26,1.22,5.73,5.73,0,0,0-.88,3.42,6.67,6.67,0,0,0,.81,3.62,2.55,2.55,0,0,0,2.24,1.24,3,3,0,0,0,2.27-1.08,3.61,3.61,0,0,0,1-2.53Z"/><path class="cls-1" d="M219.29,117.92h-1.66v-2.27a4,4,0,0,1-3.77,2.59,3.56,3.56,0,0,1-2.85-1.19,5,5,0,0,1-1-3.4v-7.57h1.84v7.56a3.22,3.22,0,0,0,.73,2.42,2.37,2.37,0,0,0,1.62.66,2.79,2.79,0,0,0,1.61-.5,3.93,3.93,0,0,0,1.2-1.44,4.37,4.37,0,0,0,.48-2v-6.67h1.84Z"/><path class="cls-1" d="M237.64,106.08l-4.09,11.84h-1.9l-4.24-11.84h2l3.3,9.62,3.25-9.62Z"/><path class="cls-1" d="M247.23,114.39l1.71.35a4.78,4.78,0,0,1-1.83,2.51,5.29,5.29,0,0,1-3.2,1,5,5,0,0,1-3.93-1.7,6.54,6.54,0,0,1-1.5-4.48,6.62,6.62,0,0,1,1.56-4.57,5,5,0,0,1,3.92-1.74,4.74,4.74,0,0,1,3.73,1.61,7.25,7.25,0,0,1,1.45,4.8h-8.6c0,1.79.37,3,1.12,3.62a3.64,3.64,0,0,0,2.38.94A3.26,3.26,0,0,0,247.23,114.39Zm-.11-3.6a4.89,4.89,0,0,0-.33-1.77,3,3,0,0,0-1-1.32,2.82,2.82,0,0,0-1.74-.54,3.14,3.14,0,0,0-2.33,1,4.08,4.08,0,0,0-1.07,2.65Z"/><path class="cls-1" d="M253.74,117.92H251.9v-16h1.84Z"/><path class="cls-1" d="M267.09,104.23v1.46a3.22,3.22,0,0,0-1.69.3,1.49,1.49,0,0,0-.57,1.05A4.28,4.28,0,0,1,266,109.9a3.7,3.7,0,0,1-1.23,2.78,4.68,4.68,0,0,1-3.32,1.16,4.52,4.52,0,0,1-.81-.07,5.35,5.35,0,0,0-.81-.13,1.37,1.37,0,0,0-.76.31.94.94,0,0,0-.45.8.88.88,0,0,0,.65.92,14.06,14.06,0,0,0,3,.27,18.11,18.11,0,0,1,3,.27,3.1,3.1,0,0,1,1.63,1,2.63,2.63,0,0,1,.67,1.82c0,2.26-2,3.39-5.95,3.39a7.65,7.65,0,0,1-4.12-.85,2.59,2.59,0,0,1-1.3-2.27,2.38,2.38,0,0,1,1.81-2.37,2.22,2.22,0,0,1-1.16-1.91,2.28,2.28,0,0,1,1.64-2.09,3.85,3.85,0,0,1-1.54-3.13,3.64,3.64,0,0,1,1.31-2.88,4.78,4.78,0,0,1,3.2-1.13,5.69,5.69,0,0,1,2.43.51,2.3,2.3,0,0,1,.81-1.61,3.42,3.42,0,0,1,1.94-.44C266.72,104.21,266.87,104.21,267.09,104.23Zm-7.83,13.21a1.77,1.77,0,0,0-1.29,1.62,1.56,1.56,0,0,0,1.06,1.41,6.42,6.42,0,0,0,2.7.49,8.78,8.78,0,0,0,2.79-.42c.85-.29,1.27-.77,1.27-1.45a1.17,1.17,0,0,0-.38-.9,1.78,1.78,0,0,0-1-.45c-.43-.06-1.19-.11-2.27-.14C260.83,117.57,259.88,117.51,259.26,117.44Zm2.2-5a2.64,2.64,0,0,0,1.92-.72,2.49,2.49,0,0,0,.73-1.87,2.53,2.53,0,0,0-.76-1.91,2.59,2.59,0,0,0-1.86-.75,2.72,2.72,0,0,0-1.85.7,2.79,2.79,0,0,0-.09,3.84A2.61,2.61,0,0,0,261.46,112.43Z"/><path class="cls-1" d="M277,114.39l1.71.35a4.78,4.78,0,0,1-1.83,2.51,5.29,5.29,0,0,1-3.2,1,5,5,0,0,1-3.92-1.7,6.54,6.54,0,0,1-1.5-4.48,6.61,6.61,0,0,1,1.55-4.57,5,5,0,0,1,3.92-1.74,4.74,4.74,0,0,1,3.73,1.61,7.25,7.25,0,0,1,1.45,4.8h-8.6c0,1.79.37,3,1.12,3.62a3.64,3.64,0,0,0,2.38.94A3.26,3.26,0,0,0,277,114.39Zm-.11-3.6a4.89,4.89,0,0,0-.33-1.77,3,3,0,0,0-1-1.32,2.82,2.82,0,0,0-1.74-.54,3.14,3.14,0,0,0-2.33,1,4.08,4.08,0,0,0-1.07,2.65Z"/><path class="cls-1" d="M27.27,134.88v1.44H24.45v10.4H22.61v-10.4h-2v-1.44h2c0-1.9.4-3.12,1.1-3.67a4.07,4.07,0,0,1,2.56-.82,10.05,10.05,0,0,1,1.69.17V132a4.7,4.7,0,0,0-1.14-.15,2.62,2.62,0,0,0-1.79.53,2.71,2.71,0,0,0-.58,2v.48Z"/><path class="cls-1" d="M33.24,147a4.5,4.5,0,0,1-3.8-1.8,7.23,7.23,0,0,1-1.36-4.48,6.48,6.48,0,0,1,1.53-4.52,5,5,0,0,1,3.82-1.69,4.65,4.65,0,0,1,3.86,1.78,6.9,6.9,0,0,1,1.41,4.44,6.63,6.63,0,0,1-1.52,4.52A5,5,0,0,1,33.24,147Zm.14-1.52a2.94,2.94,0,0,0,2.36-1.16,5.67,5.67,0,0,0,.95-3.61,5.23,5.23,0,0,0-1-3.57,3,3,0,0,0-2.33-1.1A2.94,2.94,0,0,0,31,137.19a5.46,5.46,0,0,0-.95,3.55,5.65,5.65,0,0,0,.95,3.67A3,3,0,0,0,33.38,145.52Z"/><path class="cls-1" d="M43.31,146.72H41.47V134.88h1.62v2.77a6,6,0,0,1,1.71-2.54,3.13,3.13,0,0,1,1.77-.58,5.31,5.31,0,0,1,.72.05v1.75h-.37a3.22,3.22,0,0,0-2.53,1.14,4.64,4.64,0,0,0-1.08,3Z"/><path class="cls-1" d="M64.63,130.72v16H63v-2A4,4,0,0,1,59.22,147a4.14,4.14,0,0,1-3.42-1.74,7,7,0,0,1-1.33-4.4,7.51,7.51,0,0,1,1.32-4.54,4.16,4.16,0,0,1,3.52-1.81,4.08,4.08,0,0,1,3.48,1.95v-5.78Zm-1.84,8.73a3.38,3.38,0,0,0-.95-2.5,3.08,3.08,0,0,0-2.22-.93,2.66,2.66,0,0,0-2.25,1.22,5.73,5.73,0,0,0-.89,3.42,6.58,6.58,0,0,0,.82,3.62,2.52,2.52,0,0,0,2.23,1.24,3,3,0,0,0,2.27-1.08,3.62,3.62,0,0,0,1-2.53Z"/><path class="cls-1" d="M70.2,130.72v2.05h-2v-2.05Zm0,4.16v11.84H68.31V134.88Z"/><path class="cls-1" d="M79.18,145.46v1.46a14,14,0,0,1-1.69.12c-2.29,0-3.43-1.19-3.43-3.59v-7.13H72v-1.44h2.1l.08-3,1.71-.16v3.14H78.5v1.44H75.85v7.44a1.65,1.65,0,0,0,1.9,1.83A8.61,8.61,0,0,0,79.18,145.46Z"/><path class="cls-1" d="M86.56,145.46v1.46a13.9,13.9,0,0,1-1.68.12c-2.29,0-3.44-1.19-3.44-3.59v-7.13h-2.1v-1.44h2.1l.08-3,1.72-.16v3.14h2.64v1.44H83.24v7.44a1.64,1.64,0,0,0,1.89,1.83A8.52,8.52,0,0,0,86.56,145.46Z"/><path class="cls-1" d="M103.83,130.72v16h-1.67v-2A4,4,0,0,1,98.42,147,4.13,4.13,0,0,1,95,145.3a7,7,0,0,1-1.33-4.4A7.51,7.51,0,0,1,95,136.36a4.15,4.15,0,0,1,3.51-1.81A4.08,4.08,0,0,1,102,136.5v-5.78ZM102,139.45A3.38,3.38,0,0,0,101,137a3.08,3.08,0,0,0-2.22-.93,2.66,2.66,0,0,0-2.25,1.22,5.73,5.73,0,0,0-.89,3.42,6.58,6.58,0,0,0,.82,3.62,2.52,2.52,0,0,0,2.23,1.24,3,3,0,0,0,2.27-1.08,3.62,3.62,0,0,0,1-2.53Z"/><path class="cls-1" d="M109.4,130.72v2.05h-2v-2.05Zm-.06,4.16v11.84H107.5V134.88Z"/><path class="cls-1" d="M122.68,133v1.46a3.22,3.22,0,0,0-1.69.3,1.49,1.49,0,0,0-.57,1.05,4.29,4.29,0,0,1,1.14,2.86,3.71,3.71,0,0,1-1.24,2.78,4.66,4.66,0,0,1-3.32,1.16,4.61,4.61,0,0,1-.81-.07,5.35,5.35,0,0,0-.81-.13,1.4,1.4,0,0,0-.76.31.94.94,0,0,0-.45.8.88.88,0,0,0,.65.92,14.06,14.06,0,0,0,3,.27,17.07,17.07,0,0,1,3,.27,3.1,3.1,0,0,1,1.63,1,2.63,2.63,0,0,1,.67,1.82q0,3.39-6,3.39a7.65,7.65,0,0,1-4.12-.85,2.59,2.59,0,0,1-1.3-2.27,2.38,2.38,0,0,1,1.81-2.37,2.22,2.22,0,0,1-1.16-1.91,2.3,2.3,0,0,1,1.64-2.1,3.83,3.83,0,0,1-1.54-3.12,3.64,3.64,0,0,1,1.31-2.88,4.78,4.78,0,0,1,3.2-1.13,5.69,5.69,0,0,1,2.43.51,2.3,2.3,0,0,1,.81-1.61,3.41,3.41,0,0,1,1.94-.45Zm-7.83,13.21a1.77,1.77,0,0,0-1.29,1.62,1.54,1.54,0,0,0,1.06,1.4,6.28,6.28,0,0,0,2.71.5,8.49,8.49,0,0,0,2.78-.43c.85-.28,1.27-.76,1.27-1.44a1.17,1.17,0,0,0-.38-.9,1.78,1.78,0,0,0-1-.45c-.43-.06-1.19-.11-2.27-.14C116.42,146.37,115.47,146.31,114.85,146.24Zm2.21-5a2.63,2.63,0,0,0,1.91-.72,2.49,2.49,0,0,0,.73-1.87,2.53,2.53,0,0,0-.76-1.91,2.57,2.57,0,0,0-1.86-.75,2.72,2.72,0,0,0-1.85.7,2.48,2.48,0,0,0-.81,2,2.45,2.45,0,0,0,.73,1.85A2.58,2.58,0,0,0,117.06,141.23Z"/><path class="cls-1" d="M126.7,130.72v2.05h-2v-2.05Zm-.06,4.16v11.84H124.8V134.88Z"/><path class="cls-1" d="M135.68,145.46v1.46A14,14,0,0,1,134,147c-2.29,0-3.43-1.19-3.43-3.59v-7.13h-2.1v-1.44h2.1l.08-3,1.71-.16v3.14H135v1.44h-2.65v7.44c0,1.22.63,1.83,1.9,1.83A8.61,8.61,0,0,0,135.68,145.46Z"/><path class="cls-1" d="M147,146.72h-1.82c-.07-.38-.14-1.09-.21-2.14a4.26,4.26,0,0,1-4.15,2.46,4.17,4.17,0,0,1-3.05-1,3.42,3.42,0,0,1-1.07-2.54,3.57,3.57,0,0,1,1.52-2.95q1.53-1.16,5.18-1.16c.33,0,.85,0,1.57,0a7,7,0,0,0-.21-2,1.85,1.85,0,0,0-.92-1,4,4,0,0,0-1.86-.38c-1.86,0-3,.71-3.25,2.13l-1.7-.29q.61-3.27,5.22-3.27a4.61,4.61,0,0,1,3.48,1.09,5.43,5.43,0,0,1,1,3.75v5A10.33,10.33,0,0,0,147,146.72Zm-2-5.92c-.75-.05-1.32-.07-1.71-.07a6.72,6.72,0,0,0-3.38.71,2.3,2.3,0,0,0-1.21,2.1,1.94,1.94,0,0,0,.65,1.48,2.67,2.67,0,0,0,1.88.61,3.53,3.53,0,0,0,2.74-1.21,4.19,4.19,0,0,0,1.07-2.85A7.63,7.63,0,0,0,144.92,140.8Z"/><path class="cls-1" d="M152.22,146.72h-1.84v-16h1.84Z"/><path class="cls-1" d="M163.72,143.19l1.71.35a4.78,4.78,0,0,1-1.83,2.51,5.27,5.27,0,0,1-3.2,1,5,5,0,0,1-3.92-1.7,6.54,6.54,0,0,1-1.5-4.48,6.62,6.62,0,0,1,1.56-4.57,5,5,0,0,1,3.91-1.74,4.72,4.72,0,0,1,3.73,1.61,7.2,7.2,0,0,1,1.45,4.8H157c0,1.79.37,3,1.12,3.62a3.66,3.66,0,0,0,2.38.94A3.26,3.26,0,0,0,163.72,143.19Zm-.11-3.6a5.12,5.12,0,0,0-.32-1.77,3.13,3.13,0,0,0-1-1.32,2.82,2.82,0,0,0-1.74-.54,3.14,3.14,0,0,0-2.33,1,4.08,4.08,0,0,0-1.07,2.65Z"/><path class="cls-1" d="M176.23,150.71h-1.84V134.88h1.67v2.3a4,4,0,0,1,7.11-.87,8.46,8.46,0,0,1,0,9,4.12,4.12,0,0,1-3.4,1.7,3.92,3.92,0,0,1-3.51-2.12Zm0-11.62v3.34a3.57,3.57,0,0,0,1.14,2.22,3,3,0,0,0,2,.87,2.78,2.78,0,0,0,2.13-1.05,5.56,5.56,0,0,0,.94-3.65,6,6,0,0,0-.85-3.45,2.6,2.6,0,0,0-2.24-1.21,2.74,2.74,0,0,0-2,.85A4.18,4.18,0,0,0,176.23,139.09Z"/><path class="cls-1" d="M189.05,146.72h-1.84V134.88h1.62v2.77a5.89,5.89,0,0,1,1.72-2.54,3.08,3.08,0,0,1,1.76-.58,5.44,5.44,0,0,1,.73.05v1.75h-.38a3.24,3.24,0,0,0-2.53,1.14,4.64,4.64,0,0,0-1.08,3Z"/><path class="cls-1" d="M198.93,147a4.5,4.5,0,0,1-3.8-1.8,7.23,7.23,0,0,1-1.36-4.48,6.48,6.48,0,0,1,1.53-4.52,5,5,0,0,1,3.82-1.69,4.65,4.65,0,0,1,3.86,1.78,6.9,6.9,0,0,1,1.41,4.44,6.63,6.63,0,0,1-1.52,4.52A5,5,0,0,1,198.93,147Zm.14-1.52a2.94,2.94,0,0,0,2.36-1.16,5.67,5.67,0,0,0,.95-3.61,5.23,5.23,0,0,0-1-3.57,3,3,0,0,0-2.33-1.1,2.94,2.94,0,0,0-2.32,1.11,5.46,5.46,0,0,0-.95,3.55,5.65,5.65,0,0,0,.95,3.67A3,3,0,0,0,199.07,145.52Z"/><path class="cls-1" d="M205.57,143.65l1.75-.37c.39,1.49,1.63,2.24,3.71,2.24A3.53,3.53,0,0,0,213,145a1.65,1.65,0,0,0,.8-1.46c0-.92-.68-1.51-2-1.76l-2.49-.48a4.49,4.49,0,0,1-2.34-1.1,2.86,2.86,0,0,1-.86-2.17,3.13,3.13,0,0,1,1.18-2.49,4.82,4.82,0,0,1,3.19-1c2.57,0,4.15,1,4.76,3l-1.69.37a2.88,2.88,0,0,0-3-1.85,3.36,3.36,0,0,0-1.85.46,1.46,1.46,0,0,0-.72,1.29c0,.88.62,1.42,1.84,1.65l2.31.42c2.42.43,3.62,1.6,3.62,3.51a3.15,3.15,0,0,1-1.34,2.63,5.88,5.88,0,0,1-3.59,1Q206.56,147,205.57,143.65Z"/><path class="cls-1" d="M220.13,134.75v12.33a3.62,3.62,0,0,1-1,2.91,3.69,3.69,0,0,1-2.42.82,7.81,7.81,0,0,1-1.72-.25v-1.45a6.54,6.54,0,0,0,1.35.17,1.94,1.94,0,0,0,1.49-.49,2.59,2.59,0,0,0,.45-1.72V134.75Zm.1-4v2.05h-2.09v-2.05Z"/><path class="cls-1" d="M231.61,143.19l1.71.35a4.89,4.89,0,0,1-1.83,2.51,5.29,5.29,0,0,1-3.2,1,5,5,0,0,1-3.93-1.7,6.54,6.54,0,0,1-1.5-4.48,6.62,6.62,0,0,1,1.56-4.57,5,5,0,0,1,3.92-1.74,4.74,4.74,0,0,1,3.73,1.61,7.25,7.25,0,0,1,1.45,4.8h-8.61c0,1.79.38,3,1.13,3.62a3.64,3.64,0,0,0,2.38.94A3.26,3.26,0,0,0,231.61,143.19Zm-.11-3.6a5.12,5.12,0,0,0-.33-1.77,3,3,0,0,0-1-1.32,2.85,2.85,0,0,0-1.75-.54,3.14,3.14,0,0,0-2.32,1,4,4,0,0,0-1.07,2.65Z"/><path class="cls-1" d="M246.05,146.72h-1.9l-3.46-6.61-2.57,2.95v3.66h-1.84v-16h1.84V141l5.5-6.09h2l-3.7,4.16Z"/><path class="cls-1" d="M253.67,145.46v1.46A14,14,0,0,1,252,147c-2.28,0-3.43-1.19-3.43-3.59v-7.13h-2.1v-1.44h2.1l.08-3,1.71-.16v3.14H253v1.44h-2.65v7.44a1.65,1.65,0,0,0,1.9,1.83A8.61,8.61,0,0,0,253.67,145.46Z"/><path class="cls-1" d="M260.14,142.73h-1.69q0-1.83.06-2.28a2.54,2.54,0,0,1,.25-.9,2.3,2.3,0,0,1,.47-.7,7.43,7.43,0,0,1,1.25-.81,10.59,10.59,0,0,0,1.47-.93,2.7,2.7,0,0,0,.7-.92,2.86,2.86,0,0,0,.3-1.3,2.54,2.54,0,0,0-1-2.1,3.64,3.64,0,0,0-2.28-.76q-3,0-3.64,3.46l-1.74-.38c.58-3.14,2.41-4.72,5.47-4.72a5.52,5.52,0,0,1,3.79,1.28A4.23,4.23,0,0,1,265,135q0,2.61-3,4.17a5.49,5.49,0,0,0-1.61,1.09,2.09,2.09,0,0,0-.29,1.22Zm.4,1.68v2.31h-2.37v-2.31Z"/></svg>