<svg id="Layer_1" data-name="Layer 1" xmlns="http://www.w3.org/2000/svg" viewBox="0 0 980 120"><defs><style>.cls-1{fill:#d4ac76;}</style></defs><title>text</title><path class="cls-1" d="M286.65,90,280.92,75.3h2.31l4.4,11.28L292,75.3h2.26L288.56,90Z"/><path class="cls-1" d="M295.55,90l5.9-14.68h1.85L309.09,90h-2.27l-.89-2.26h-7.2L297.82,90Zm5.31-16.24a1,1,0,0,1-.74.32,1,1,0,0,1-.72-.32,1.25,1.25,0,0,1,0-1.6,1,1,0,0,1,.72-.32,1,1,0,0,1,.74.32,1.22,1.22,0,0,1,0,1.6Zm1.51,4.93-2.85,7.09h5.64Zm2.56-4.93a1,1,0,0,1-.73.32,1,1,0,0,1-.73-.32,1.22,1.22,0,0,1,0-1.6,1,1,0,0,1,.73-.32,1,1,0,0,1,.73.32,1.25,1.25,0,0,1,0,1.6Z"/><path class="cls-1" d="M313.17,90V75.3h5.45a4.56,4.56,0,0,1,3.3,1.27,4.53,4.53,0,0,1-2.58,7.82L323.6,90h-2.53l-4.22-5.6h-1.63V90Zm5.17-12.73h-3.12v5.3h3.1a3,3,0,0,0,2.08-.72,2.66,2.66,0,0,0,0-3.81A2.86,2.86,0,0,0,318.34,77.25Z"/><path class="cls-1" d="M328.4,90V75.3h3.94a7.4,7.4,0,0,1,5.14,12.59A7.16,7.16,0,0,1,332.26,90Zm4-12.73h-2V88h2a4.73,4.73,0,0,0,3.61-1.58,5.42,5.42,0,0,0,1.47-3.84,5.23,5.23,0,0,0-1.51-3.81A4.91,4.91,0,0,0,332.42,77.25Z"/><path class="cls-1" d="M352.76,83.54h-6V88h6.46v2h-8.51V75.3h8.4v2h-6.35v4.33h6Z"/><path class="cls-1" d="M358.27,90V75.3h8v2h-6v4.62h5.29v2h-5.29V90Z"/><path class="cls-1" d="M375.84,90.23A5.09,5.09,0,0,1,372,88.69a5.34,5.34,0,0,1-1.5-3.88V75.3h2.05v9.39a3.78,3.78,0,0,0,.88,2.57,3,3,0,0,0,2.4,1,3.09,3.09,0,0,0,2.43-1,3.75,3.75,0,0,0,.88-2.57V75.3h2.05v9.51a5.33,5.33,0,0,1-1.49,3.88A5.15,5.15,0,0,1,375.84,90.23Z"/><path class="cls-1" d="M387,90V75.3h2V88h6v2Z"/><path class="cls-1" d="M399.63,90V75.3h2.06V88h6v2Z"/><path class="cls-1" d="M408.11,77.25v-2H420v2h-4.92V90H413V77.25Z"/><path class="cls-1" d="M440.5,83.54h-6V88h6.46v2h-8.51V75.3h8.4v2h-6.35v4.33h6Z"/><path class="cls-1" d="M446,90V75.3h5.45a4.6,4.6,0,0,1,3.31,1.27,4.4,4.4,0,0,1,1.33,3.32A4.44,4.44,0,0,1,455,83a4.33,4.33,0,0,1-2.81,1.43L456.44,90h-2.52l-4.22-5.6h-1.64V90Zm5.18-12.73h-3.13v5.3h3.11a3,3,0,0,0,2.08-.72,2.51,2.51,0,0,0,.8-1.94,2.47,2.47,0,0,0-.81-1.87A2.86,2.86,0,0,0,451.19,77.25Z"/><path class="cls-1" d="M461.25,90V75.3h4.49A4.67,4.67,0,0,1,469,76.43a3.8,3.8,0,0,1,1.28,3,3.47,3.47,0,0,1-1.75,3.15,3.71,3.71,0,0,1,1.58,1.32,3.46,3.46,0,0,1,.58,2,3.77,3.77,0,0,1-1.28,3A4.76,4.76,0,0,1,466.11,90Zm4.28-12.73H463.3v4.47h2.62a2.26,2.26,0,0,0,1.63-.65,2.32,2.32,0,0,0,.65-1.69,1.86,1.86,0,0,0-.73-1.54A3,3,0,0,0,465.53,77.25Zm.46,6.29H463.3V88h2.56a3,3,0,0,0,2-.63,2.11,2.11,0,0,0,.74-1.68,2,2,0,0,0-.67-1.57A2.84,2.84,0,0,0,466,83.54Z"/><path class="cls-1" d="M478.62,90.21a5,5,0,0,1-2.92-.87A4.62,4.62,0,0,1,474,87l1.9-.94a3.2,3.2,0,0,0,1,1.62,2.61,2.61,0,0,0,1.72.6,2.49,2.49,0,0,0,2-.83,3.31,3.31,0,0,0,.73-2.27V75.3h2.05v9.8a5.11,5.11,0,0,1-1.33,3.78A4.62,4.62,0,0,1,478.62,90.21Z"/><path class="cls-1" d="M494.07,90.23a5.11,5.11,0,0,1-3.83-1.54,5.34,5.34,0,0,1-1.5-3.88V75.3h2.05v9.39a3.83,3.83,0,0,0,.88,2.57,3,3,0,0,0,2.4,1,3.09,3.09,0,0,0,2.43-1,3.75,3.75,0,0,0,.89-2.57V75.3h2.05v9.51a5.34,5.34,0,0,1-1.5,3.88A5.12,5.12,0,0,1,494.07,90.23Z"/><path class="cls-1" d="M505.27,90V75.3h3.94a7.4,7.4,0,0,1,5.14,12.59A7.16,7.16,0,0,1,509.13,90Zm4-12.73h-2V88h2A4.74,4.74,0,0,0,513,86.45a5.42,5.42,0,0,0,1.47-3.84,5.23,5.23,0,0,0-1.51-3.81A4.91,4.91,0,0,0,509.29,77.25Z"/><path class="cls-1" d="M519.39,90l5.9-14.68h1.85L532.93,90h-2.27l-.89-2.26h-7.2L521.66,90Zm6.82-11.31-2.85,7.09H529Z"/><path class="cls-1" d="M537,90V75.3h1.43l8,10.11V75.3h2.05V90H547.3L539.05,79.5V90Z"/><path class="cls-1" d="M554.58,90V75.3h3.93a7.39,7.39,0,0,1,5.14,12.59A7.14,7.14,0,0,1,558.44,90Zm4-12.73h-2V88h2a4.77,4.77,0,0,0,3.62-1.58,5.42,5.42,0,0,0,1.47-3.84,5.23,5.23,0,0,0-1.52-3.81A4.91,4.91,0,0,0,558.59,77.25Z"/><path class="cls-1" d="M578.94,83.54h-6.05V88h6.46v2h-8.51V75.3h8.4v2h-6.35v4.33h6.05Z"/><path class="cls-1" d="M596.5,90,590.77,75.3h2.31l4.4,11.28,4.41-11.28h2.26L598.41,90Z"/><path class="cls-1" d="M605.4,90l5.9-14.68h1.85L618.94,90h-2.27l-.89-2.26h-7.2L607.67,90Zm5.31-16.24a1,1,0,0,1-.74.32,1,1,0,0,1-.72-.32,1.25,1.25,0,0,1,0-1.6,1,1,0,0,1,.72-.32,1,1,0,0,1,.74.32,1.22,1.22,0,0,1,0,1.6Zm1.51,4.93-2.85,7.09H615Zm2.56-4.93a1,1,0,0,1-.73.32,1,1,0,0,1-.73-.32,1.22,1.22,0,0,1,0-1.6,1,1,0,0,1,.73-.32,1,1,0,0,1,.73.32,1.25,1.25,0,0,1,0,1.6Z"/><path class="cls-1" d="M623,90V75.3h1.43l7.95,10.11V75.3h2.05V90h-1.14L625.07,79.5V90Z"/><path class="cls-1" d="M638.65,77.25v-2h11.9v2h-4.92V90h-2.06V77.25Z"/><path class="cls-1" d="M651.5,90l5.89-14.68h1.86L665,90h-2.27l-.88-2.26h-7.2L653.77,90Zm6.82-11.31-2.86,7.09h5.65Z"/><path class="cls-1" d="M669.11,90V75.3h5.45a4.6,4.6,0,0,1,3.31,1.27,4.4,4.4,0,0,1,1.33,3.32A4.44,4.44,0,0,1,678.1,83a4.33,4.33,0,0,1-2.81,1.43L679.54,90H677l-4.21-5.6h-1.64V90Zm5.18-12.73h-3.13v5.3h3.11a3,3,0,0,0,2.08-.72,2.51,2.51,0,0,0,.8-1.94,2.47,2.47,0,0,0-.81-1.87A2.88,2.88,0,0,0,674.29,77.25Z"/></svg>