<svg id="Layer_1" data-name="Layer 1" xmlns="http://www.w3.org/2000/svg" viewBox="0 0 980 300"><defs><style>.cls-1{fill:#fff;}</style></defs><title>text</title><path class="cls-1" d="M777.28,140H765.92c-.92,0-1.39-.37-1.39-1.09V121c0-.75.47-1.12,1.39-1.12s1.4.37,1.4,1.12v16.49h10c.63,0,1,.42,1,1.27S777.91,140,777.28,140Z"/><path class="cls-1" d="M792.53,137.33c.64,0,1,.39,1,1.15a1.26,1.26,0,0,1-1,1.4,24.31,24.31,0,0,1-5,.36q-3.54,0-5.07-1.15a4.55,4.55,0,0,1-1.54-3.86v-5.68c0-1.89.46-3.17,1.39-3.83s2.66-1,5.19-1,4.25.31,5.13.94,1.34,1.92,1.34,3.87V132a1.75,1.75,0,0,1-.41,1.18,1.39,1.39,0,0,1-1,.42h-8.81v1.82q0,2.28,4,2.27a22.86,22.86,0,0,0,3-.18A14.9,14.9,0,0,1,792.53,137.33Zm-8.87-7.77v1.6h7.48v-1.6a1.93,1.93,0,0,0-.76-1.8,6.14,6.14,0,0,0-3-.48,6.61,6.61,0,0,0-3,.45A1.92,1.92,0,0,0,783.66,129.56Z"/><path class="cls-1" d="M806.85,135.44v-.35a1.14,1.14,0,0,0-.72-1.07,6.39,6.39,0,0,0-2.53-.33,15.22,15.22,0,0,1-4-.57,3.22,3.22,0,0,1-1.81-1.22,3.94,3.94,0,0,1-.73-2.49v-.25c0-1.73.52-2.9,1.56-3.49a9.77,9.77,0,0,1,4.75-.9,19.91,19.91,0,0,1,4.72.41,1.26,1.26,0,0,1,1,1.39c0,.77-.32,1.15-1,1.15a17.85,17.85,0,0,1-2-.19,20.28,20.28,0,0,0-3.1-.22,7.53,7.53,0,0,0-2.42.28c-.52.18-.78.69-.78,1.52v.29c0,1.1,1.16,1.69,3.46,1.76,1,0,1.92.12,2.89.24a4.37,4.37,0,0,1,2.45,1.08,3.16,3.16,0,0,1,1,2.58v.38c0,1.86-.53,3.13-1.58,3.8a9.75,9.75,0,0,1-5.07,1,22.48,22.48,0,0,1-5-.39,1.26,1.26,0,0,1-1-1.4c0-.76.32-1.15,1-1.15.38,0,1.11.07,2.2.2a26.88,26.88,0,0,0,3.18.2,6.36,6.36,0,0,0,2.52-.42A1.78,1.78,0,0,0,806.85,135.44Z"/><path class="cls-1" d="M826.61,140.15a2.41,2.41,0,0,1-1.49-.5,2.88,2.88,0,0,1-.94-1.26l-4.39-11.82c-.06-.31-.09-.48-.1-.5,0-.72.45-1.08,1.35-1.07a1.3,1.3,0,0,1,1.36.8l4.15,11.66h.15l4.16-11.66c.2-.53.7-.8,1.5-.8s1.19.36,1.19,1.07c0,0,0,.19-.09.5l-4.4,11.82a2.62,2.62,0,0,1-.94,1.28A2.52,2.52,0,0,1,826.61,140.15Z"/><path class="cls-1" d="M837.91,127.69c-.64,0-1-.38-1-1.15a1.25,1.25,0,0,1,1-1.39,21.74,21.74,0,0,1,5-.41c2.34,0,3.92.37,4.75,1.12s1.26,2,1.26,3.91v6c0,1.87-.46,3.09-1.37,3.65s-2.65.85-5.22.85-4.3-.28-5.16-.85-1.28-1.77-1.28-3.63.33-3.13,1-3.83,2.05-1.05,4.12-1h5.12v-1.61a1.71,1.71,0,0,0-.71-1.57,5.3,5.3,0,0,0-2.53-.43,19.31,19.31,0,0,0-3.16.22A11.67,11.67,0,0,1,837.91,127.69Zm8.25,8.28v-2.63h-4.28a5.44,5.44,0,0,0-2.59.39c-.39.26-.59.86-.59,1.79s.25,1.54.73,1.8a7.63,7.63,0,0,0,3,.38,8.56,8.56,0,0,0,3-.34A1.36,1.36,0,0,0,846.16,136Zm-5.4-12.8a2.93,2.93,0,0,1,0-4.09,2.86,2.86,0,0,1,4.07,0,2.89,2.89,0,0,1,0,4.09,2.81,2.81,0,0,1-2,.83A2.77,2.77,0,0,1,840.76,123.17Zm.8-2a1.24,1.24,0,0,0,.36.9,1.28,1.28,0,0,0,1.76,0,1.25,1.25,0,0,0,.36-.89,1.25,1.25,0,0,0-2.13-.88A1.17,1.17,0,0,0,841.56,121.12Z"/><path class="cls-1" d="M856.05,131.19v7.72c0,.72-.46,1.09-1.39,1.09s-1.39-.37-1.4-1.09v-8.08a9.56,9.56,0,0,1,.5-3.86,5.15,5.15,0,0,1,.92-1.32c.66-.61,2.32-.91,5-.91a8.62,8.62,0,0,1,2.69.27,1,1,0,0,1,.68,1,1.44,1.44,0,0,1-.38,1.07,1.3,1.3,0,0,1-.95.35l-2-.14a8.7,8.7,0,0,0-2.38.19,2.22,2.22,0,0,0-.7.35,2.4,2.4,0,0,0-.33.7,3.56,3.56,0,0,0-.2,1.08C856.05,130,856.05,130.51,856.05,131.19Z"/><path class="cls-1" d="M870.6,140a3.87,3.87,0,0,1-3-.91,4.54,4.54,0,0,1-.84-3.11v-8.53h-2q-.93,0-.93-1.23c0-.81.31-1.22.93-1.22h2v-3.94c0-.73.46-1.09,1.39-1.09s1.39.36,1.39,1.09V125h3.95c.63,0,.94.41.94,1.22s-.31,1.23-.94,1.23h-3.95v8.74c0,.84.51,1.27,1.52,1.27l2.63-.16c.65,0,1,.38,1,1.12a1.44,1.44,0,0,1-1,1.49C873.05,140,872,140,870.6,140Z"/><path class="cls-1" d="M763.59,169.83V157.55c0-.75.48-1.12,1.4-1.12s1.39.37,1.39,1.12v5a9.43,9.43,0,0,1,3.73-.61,16,16,0,0,1,3.58.3,4.3,4.3,0,0,1,2.1,1.18,4.92,4.92,0,0,1,1.2,2.39,19.62,19.62,0,0,1,.33,4,20.11,20.11,0,0,1-.31,4,4.13,4.13,0,0,1-1.22,2.28,4.73,4.73,0,0,1-2.1,1.07,15.44,15.44,0,0,1-3.25.27,15.86,15.86,0,0,1-3.22-.26,4.35,4.35,0,0,1-2.06-1.07,4.49,4.49,0,0,1-1.22-2.32A18.13,18.13,0,0,1,763.59,169.83Zm10.95.62c0-1.33,0-2.39-.11-3.17a4.29,4.29,0,0,0-.77-2.12c-.31-.45-1.38-.68-3.22-.68a5.77,5.77,0,0,0-2.91.43,2.4,2.4,0,0,0-.92,1.39,15.88,15.88,0,0,0-.29,3.12c0,1.08,0,2,.1,2.79a3.84,3.84,0,0,0,.81,2.06,2.43,2.43,0,0,0,1.83.63q.47,0,1.38,0t1.38,0a6.29,6.29,0,0,0,1-.17,1.39,1.39,0,0,0,.81-.44,7.22,7.22,0,0,0,.54-1.09A7.65,7.65,0,0,0,774.54,170.45Z"/><path class="cls-1" d="M784.42,157.55v18.56c0,.72-.46,1.09-1.39,1.09s-1.39-.37-1.39-1.09V157.55c0-.75.46-1.12,1.39-1.12S784.42,156.8,784.42,157.55Z"/><path class="cls-1" d="M788.87,169.83a19.41,19.41,0,0,1,.34-4,4.33,4.33,0,0,1,3.3-3.58,17.65,17.65,0,0,1,6.48,0,4.41,4.41,0,0,1,2.09,1.18,4.82,4.82,0,0,1,1.23,2.39,19.3,19.3,0,0,1,.34,4,19.06,19.06,0,0,1-.34,4,4.34,4.34,0,0,1-1.24,2.3,4.59,4.59,0,0,1-2.09,1.07,15.23,15.23,0,0,1-3.23.27,16.22,16.22,0,0,1-3.24-.26,4.5,4.5,0,0,1-2.09-1.07,4.16,4.16,0,0,1-1.22-2.32A19,19,0,0,1,788.87,169.83Zm3.12-3.55a8,8,0,0,0-.33,2.77c0,1.32,0,2.37.1,3.15a3.74,3.74,0,0,0,.79,2,2.39,2.39,0,0,0,1.81.63c.3,0,.77,0,1.39,0,1.81,0,2.88-.22,3.2-.66a4,4,0,0,0,.8-2.05,22.31,22.31,0,0,0,.11-2.35c0-2.4-.23-3.86-.68-4.37a3.66,3.66,0,0,0-.53-.56,3.69,3.69,0,0,0-2.17-.43q-1.68,0-2.13,0c-1,.06-1.55.28-1.8.64A7.3,7.3,0,0,0,792,166.28Z"/><path class="cls-1" d="M817.55,160.48c0-.66.47-1,1.4-1s1.39.34,1.39,1v6.56q0,2.93-1.47,3.84a9.52,9.52,0,0,1-4.88.93,22.78,22.78,0,0,1-4.55-.29v2.39h5.66c2.11,0,3.55.37,4.3,1.11a5.08,5.08,0,0,1,1.12,3.71c0,1.74-.5,2.93-1.51,3.58s-2.8,1-5.37,1-4.37-.29-5.41-.87-1.56-1.78-1.57-3.59V166.66a5.22,5.22,0,0,1,.85-3.39,4.76,4.76,0,0,1,3.28-1.18,26.18,26.18,0,0,1,6.76.32ZM809.44,167c0,1.12.22,1.79.62,2a7.63,7.63,0,0,0,3,.35,13.72,13.72,0,0,0,3.22-.25,1.55,1.55,0,0,0,1.07-.75,4.83,4.83,0,0,0,.21-1.69v-1.84a33.92,33.92,0,0,0-4.42-.32,6.42,6.42,0,0,0-2.86.46,2,2,0,0,0-.83,1.89Zm0,9.39V179a1.49,1.49,0,0,0,1,1.47,9,9,0,0,0,3.28.43,6.72,6.72,0,0,0,3-.46,1.86,1.86,0,0,0,.78-1.76,1.91,1.91,0,0,0-.74-1.77,5.49,5.49,0,0,0-2.73-.47Z"/><path class="cls-1" d="M834.93,160.48c0-.66.47-1,1.39-1s1.4.34,1.4,1v6.56q0,2.93-1.47,3.84a9.55,9.55,0,0,1-4.88.93,22.71,22.71,0,0,1-4.55-.29v2.39h5.65c2.12,0,3.55.37,4.31,1.11a5.08,5.08,0,0,1,1.12,3.71c0,1.74-.51,2.93-1.52,3.58s-2.79,1-5.36,1-4.37-.29-5.41-.87-1.57-1.78-1.58-3.59V166.66a5.22,5.22,0,0,1,.86-3.39,4.74,4.74,0,0,1,3.28-1.18,26.2,26.2,0,0,1,6.76.32ZM826.82,167c0,1.12.22,1.79.62,2a7.63,7.63,0,0,0,3,.35,13.78,13.78,0,0,0,3.22-.25,1.55,1.55,0,0,0,1.07-.75,4.83,4.83,0,0,0,.21-1.69v-1.84a34,34,0,0,0-4.43-.32,6.37,6.37,0,0,0-2.85.46,2,2,0,0,0-.83,1.89Zm0,9.39V179a1.49,1.49,0,0,0,1,1.47,8.91,8.91,0,0,0,3.27.43,6.77,6.77,0,0,0,3.06-.46,1.86,1.86,0,0,0,.78-1.76,1.92,1.92,0,0,0-.75-1.77,5.44,5.44,0,0,0-2.72-.47Z"/><path class="cls-1" d="M841.55,158.6a1.47,1.47,0,0,1,.45-1.08,1.52,1.52,0,0,1,1.06-.47,1.45,1.45,0,0,1,1.07.47,1.55,1.55,0,0,1,.44,1.09,1.51,1.51,0,0,1-3,0Zm2.9,4.67v12.84c0,.72-.46,1.09-1.39,1.09s-1.39-.37-1.39-1.09V163.27c0-.72.46-1.09,1.39-1.09S844.45,162.55,844.45,163.27Z"/><path class="cls-1" d="M852.33,165c-.35.36-.52,1.48-.52,3.36v7.74c0,.72-.46,1.09-1.39,1.09s-1.39-.37-1.4-1.09V168a15.71,15.71,0,0,1,.28-3.33,2.9,2.9,0,0,1,1.09-1.82,4.1,4.1,0,0,1,1.9-.77,29,29,0,0,1,3.44-.17c2.6,0,4.25.31,4.93.95a4.14,4.14,0,0,1,1.22,2.73A23.36,23.36,0,0,1,862,168v8.08c0,.72-.46,1.09-1.39,1.09s-1.39-.37-1.39-1.09v-7.74c0-1.86-.18-3-.53-3.34s-1.42-.55-3.19-.55S852.67,164.66,852.33,165Z"/><path class="cls-1" d="M869.61,165q-.51.54-.51,3.36v7.74c0,.72-.47,1.09-1.39,1.09s-1.39-.37-1.4-1.09V168a15.83,15.83,0,0,1,.27-3.33,2.94,2.94,0,0,1,1.09-1.82,4.13,4.13,0,0,1,1.91-.77,28.87,28.87,0,0,1,3.44-.17c2.6,0,4.24.31,4.93.95a4.09,4.09,0,0,1,1.21,2.73,23,23,0,0,1,.11,2.41v8.08c0,.72-.47,1.09-1.39,1.09s-1.4-.37-1.4-1.09v-7.74c0-1.86-.18-3-.53-3.34s-1.41-.55-3.18-.55S870,164.66,869.61,165Z"/><path class="cls-1" d="M886.64,157.55v18.56c0,.72-.47,1.09-1.39,1.09s-1.4-.37-1.4-1.09V157.55c0-.75.47-1.12,1.4-1.12S886.64,156.8,886.64,157.55Z"/><path class="cls-1" d="M902.75,174.53c.63,0,1,.39,1,1.15a1.26,1.26,0,0,1-1,1.4,24.42,24.42,0,0,1-5,.36q-3.54,0-5.07-1.15a4.55,4.55,0,0,1-1.54-3.86v-5.68c0-1.89.46-3.17,1.39-3.83s2.66-1,5.19-1,4.25.31,5.14.94,1.33,1.92,1.33,3.87v2.46a1.75,1.75,0,0,1-.41,1.18,1.38,1.38,0,0,1-1.05.42h-8.81v1.82q0,2.28,4,2.27a22.6,22.6,0,0,0,3-.18A14.84,14.84,0,0,1,902.75,174.53Zm-8.88-7.77v1.6h7.48v-1.6a1.93,1.93,0,0,0-.76-1.8,6.14,6.14,0,0,0-3-.48,6.61,6.61,0,0,0-3,.45A1.92,1.92,0,0,0,893.87,166.76Z"/><path class="cls-1" d="M919.21,160.48c0-.66.47-1,1.4-1s1.39.34,1.39,1v6.56q0,2.93-1.47,3.84a9.55,9.55,0,0,1-4.88.93,22.78,22.78,0,0,1-4.55-.29v2.39h5.65c2.12,0,3.56.37,4.31,1.11a5.08,5.08,0,0,1,1.12,3.71c0,1.74-.5,2.93-1.51,3.58s-2.8,1-5.37,1-4.37-.29-5.41-.87-1.56-1.78-1.58-3.59V166.66a5.22,5.22,0,0,1,.86-3.39,4.76,4.76,0,0,1,3.28-1.18,26.18,26.18,0,0,1,6.76.32ZM911.1,167c0,1.12.22,1.79.62,2a7.63,7.63,0,0,0,3,.35,13.72,13.72,0,0,0,3.22-.25,1.55,1.55,0,0,0,1.07-.75,4.83,4.83,0,0,0,.21-1.69v-1.84a33.92,33.92,0,0,0-4.42-.32,6.39,6.39,0,0,0-2.86.46,2,2,0,0,0-.83,1.89Zm0,9.39V179a1.49,1.49,0,0,0,1,1.47,9,9,0,0,0,3.28.43,6.75,6.75,0,0,0,3-.46,1.86,1.86,0,0,0,.78-1.76,1.92,1.92,0,0,0-.75-1.77,5.42,5.42,0,0,0-2.72-.47Z"/><path class="cls-1" d="M936.59,160.48c0-.66.46-1,1.39-1s1.4.34,1.4,1v6.56q0,2.93-1.47,3.84a9.57,9.57,0,0,1-4.89.93,22.66,22.66,0,0,1-4.54-.29v2.39h5.65c2.12,0,3.55.37,4.31,1.11a5.13,5.13,0,0,1,1.12,3.71c0,1.74-.51,2.93-1.52,3.58s-2.79,1-5.36,1-4.38-.29-5.41-.87-1.57-1.78-1.58-3.59V166.66a5.22,5.22,0,0,1,.86-3.39,4.74,4.74,0,0,1,3.28-1.18,26.2,26.2,0,0,1,6.76.32ZM928.48,167c0,1.12.21,1.79.62,2a7.63,7.63,0,0,0,3,.35,13.78,13.78,0,0,0,3.22-.25,1.55,1.55,0,0,0,1.07-.75,4.83,4.83,0,0,0,.21-1.69v-1.84a34.07,34.07,0,0,0-4.43-.32,6.34,6.34,0,0,0-2.85.46,2,2,0,0,0-.83,1.89Zm0,9.39V179a1.49,1.49,0,0,0,1,1.47,9,9,0,0,0,3.28.43,6.72,6.72,0,0,0,3-.46,1.84,1.84,0,0,0,.79-1.76,1.92,1.92,0,0,0-.75-1.77,5.49,5.49,0,0,0-2.73-.47Z"/></svg>