<svg id="Layer_1" data-name="Layer 1" xmlns="http://www.w3.org/2000/svg" viewBox="0 0 980 300"><defs><style>.cls-1{fill:#fff;}</style></defs><title>text</title><path class="cls-1" d="M75.61,107.92V111H57.5V83H75.22v3.07H61V95H72.28v2.85H61v10.09Z"/><path class="cls-1" d="M96.54,111h-3V97.69c0-1.91-.42-3.26-1.25-4a4.3,4.3,0,0,0-3-1.17,5.23,5.23,0,0,0-4.13,2,7.76,7.76,0,0,0-1.67,5.19V111H80.22V90.29h3V94.1c1.69-2.92,3.87-4.39,6.55-4.39a6.45,6.45,0,0,1,3.94,1.2,6.33,6.33,0,0,1,2.24,2.7,16.5,16.5,0,0,1,.6,5.41Z"/><path class="cls-1" d="M125.73,103.74l2.91.51a9.25,9.25,0,0,1-2.73,5.38,8.24,8.24,0,0,1-11.8-1.22,13,13,0,0,1-2.25-7.72,12.65,12.65,0,0,1,2.37-7.85,7.68,7.68,0,0,1,6.45-3.13,7.41,7.41,0,0,1,5.43,2A9.08,9.08,0,0,1,128.64,97l-2.91.56q-.83-5.13-5-5.13a4.56,4.56,0,0,0-4.09,2.27,10.86,10.86,0,0,0-1.43,5.87,11.35,11.35,0,0,0,1.42,6.18,4.51,4.51,0,0,0,4,2.21Q124.66,108.91,125.73,103.74Z"/><path class="cls-1" d="M140.47,111.57a7.85,7.85,0,0,1-6.65-3.16,12.57,12.57,0,0,1-2.39-7.84,11.29,11.29,0,0,1,2.68-7.9,8.69,8.69,0,0,1,6.69-3,8.18,8.18,0,0,1,6.76,3.11,12.11,12.11,0,0,1,2.47,7.77,11.64,11.64,0,0,1-2.67,7.92A8.7,8.7,0,0,1,140.47,111.57Zm.25-2.66a5.13,5.13,0,0,0,4.12-2c1.11-1.36,1.66-3.46,1.66-6.32s-.58-5-1.74-6.24a5.3,5.3,0,0,0-4.08-1.94,5.11,5.11,0,0,0-4.06,2q-1.67,1.95-1.66,6.2,0,4.5,1.66,6.43A5.18,5.18,0,0,0,140.72,108.91Z"/><path class="cls-1" d="M182.62,111h-3.14V98.12a11.65,11.65,0,0,0-.28-3,3.56,3.56,0,0,0-1.34-1.83,3.82,3.82,0,0,0-2.4-.83,5.1,5.1,0,0,0-3.56,1.69,7,7,0,0,0-1.71,5.16V111h-3.12V97.36c0-1.82-.43-3.1-1.3-3.85A4.1,4.1,0,0,0,163,92.38a4.59,4.59,0,0,0-3.57,1.76,6.63,6.63,0,0,0-1.52,4.47V111h-3.07V90.29h2.77v4Q160,89.71,164,89.71a5.35,5.35,0,0,1,3.79,1.46,6.64,6.64,0,0,1,2,3.51q2.13-5,6.54-5a6,6,0,0,1,3.7,1.21,5.6,5.6,0,0,1,2.07,2.78,15.43,15.43,0,0,1,.49,4.42Z"/><path class="cls-1" d="M216.8,111h-3.13V98.12a12.12,12.12,0,0,0-.28-3A3.58,3.58,0,0,0,212,93.31a3.82,3.82,0,0,0-2.39-.83,5.1,5.1,0,0,0-3.56,1.69,7,7,0,0,0-1.71,5.16V111h-3.12V97.36a4.89,4.89,0,0,0-1.3-3.85,4.12,4.12,0,0,0-2.74-1.13,4.59,4.59,0,0,0-3.57,1.76,6.63,6.63,0,0,0-1.52,4.47V111h-3.07V90.29h2.76v4q2.33-4.56,6.38-4.56a5.38,5.38,0,0,1,3.8,1.46,6.64,6.64,0,0,1,2,3.51q2.13-5,6.54-5a6,6,0,0,1,3.7,1.21,5.6,5.6,0,0,1,2.07,2.78,15.85,15.85,0,0,1,.48,4.42Z"/><path class="cls-1" d="M236.92,104.83l3,.61a8.39,8.39,0,0,1-3.2,4.4,9.19,9.19,0,0,1-5.59,1.73,8.71,8.71,0,0,1-6.87-3,11.43,11.43,0,0,1-2.63-7.83,11.54,11.54,0,0,1,2.73-8,8.81,8.81,0,0,1,6.85-3.05,8.28,8.28,0,0,1,6.53,2.81q2.47,2.82,2.53,8.41h-15q0,4.69,2,6.34a6.42,6.42,0,0,0,4.16,1.64Q235.3,108.91,236.92,104.83Zm-.18-6.3a9,9,0,0,0-.58-3.1,5.25,5.25,0,0,0-1.8-2.3,4.94,4.94,0,0,0-3.06-1,5.45,5.45,0,0,0-4.07,1.73,7.16,7.16,0,0,0-1.88,4.63Z"/><path class="cls-1" d="M248.32,111H245.1V90.29h2.83v4.84q1.5-3.43,3-4.44a5.42,5.42,0,0,1,3.08-1c.33,0,.76,0,1.27.08v3.08h-.65a5.65,5.65,0,0,0-4.43,2,8.05,8.05,0,0,0-1.89,5.23Z"/><path class="cls-1" d="M270.55,103.74l2.91.51a9.24,9.24,0,0,1-2.72,5.38,8.24,8.24,0,0,1-11.8-1.22,13,13,0,0,1-2.25-7.72,12.65,12.65,0,0,1,2.37-7.85,7.68,7.68,0,0,1,6.45-3.13,7.4,7.4,0,0,1,5.42,2A9,9,0,0,1,273.46,97l-2.91.56q-.81-5.13-4.95-5.13a4.55,4.55,0,0,0-4.09,2.27,10.77,10.77,0,0,0-1.44,5.87,11.35,11.35,0,0,0,1.43,6.18,4.5,4.5,0,0,0,4,2.21Q269.49,108.91,270.55,103.74Z"/><path class="cls-1" d="M291.55,104.83l3,.61a8.5,8.5,0,0,1-3.2,4.4,9.22,9.22,0,0,1-5.6,1.73,8.71,8.71,0,0,1-6.87-3,11.43,11.43,0,0,1-2.63-7.83,11.54,11.54,0,0,1,2.73-8,8.81,8.81,0,0,1,6.85-3.05,8.28,8.28,0,0,1,6.53,2.81c1.65,1.88,2.49,4.68,2.54,8.41H279.84q0,4.69,2,6.34a6.42,6.42,0,0,0,4.16,1.64Q289.93,108.91,291.55,104.83Zm-.18-6.3a9,9,0,0,0-.58-3.1,5.18,5.18,0,0,0-1.8-2.3,4.94,4.94,0,0,0-3.06-1,5.47,5.47,0,0,0-4.07,1.73A7.11,7.11,0,0,0,280,98.53Z"/><path class="cls-1" d="M313.46,111h-3.22V83h3.22Z"/><path class="cls-1" d="M320.44,108.1a12.68,12.68,0,0,1-2.16-7.55A11.28,11.28,0,0,1,321,92.68a9.06,9.06,0,0,1,12-1.28l1.85-2.47h2.87L334.57,93a12.19,12.19,0,0,1,2.31,7.56,11.64,11.64,0,0,1-2.66,7.91,8.68,8.68,0,0,1-6.9,3.07,7.91,7.91,0,0,1-5.34-1.79l-1.77,2.37h-2.8Zm2.1-2.81,8.59-11.47a5.24,5.24,0,0,0-3.61-1.44,5.17,5.17,0,0,0-4,2q-1.67,2-1.67,6.26A13.21,13.21,0,0,0,322.54,105.29Zm10-9.53-8.72,11.6a5.33,5.33,0,0,0,3.78,1.55,5.13,5.13,0,0,0,4.11-2c1.1-1.36,1.66-3.46,1.66-6.32A11.72,11.72,0,0,0,332.52,95.76Z"/><path class="cls-1" d="M338.93,105.63,342,105q1,3.92,6.48,3.92a6.17,6.17,0,0,0,3.41-.9,2.86,2.86,0,0,0,1.39-2.54q0-2.44-3.55-3.1l-4.36-.82a8,8,0,0,1-4.08-1.93,5,5,0,0,1-1.52-3.8,5.48,5.48,0,0,1,2.07-4.35,8.35,8.35,0,0,1,5.58-1.76q6.75,0,8.32,5.27l-2.95.64q-1.28-3.24-5.23-3.24a5.88,5.88,0,0,0-3.23.81,2.54,2.54,0,0,0-1.26,2.26q0,2.3,3.22,2.89l4,.72q6.33,1.16,6.34,6.15a5.49,5.49,0,0,1-2.36,4.61,10.28,10.28,0,0,1-6.28,1.75Q340.67,111.57,338.93,105.63Z"/><path class="cls-1" d="M377.52,111h-3V97.69c0-1.91-.42-3.26-1.25-4a4.3,4.3,0,0,0-3-1.17,5.21,5.21,0,0,0-4.13,2,7.71,7.71,0,0,0-1.67,5.19V111H361.2V90.29h3V94.1c1.68-2.92,3.86-4.39,6.54-4.39a6.64,6.64,0,0,1,6.19,3.9,16.5,16.5,0,0,1,.6,5.41Z"/><path class="cls-1" d="M387.28,83V86.6h-3.46V83Zm-.1,7.28V111H384V90.29Z"/><path class="cls-1" d="M409.92,111h-3V97.69c0-1.91-.42-3.26-1.25-4a4.29,4.29,0,0,0-3-1.17,5.23,5.23,0,0,0-4.13,2,7.76,7.76,0,0,0-1.67,5.19V111H393.6V90.29h3V94.1c1.69-2.92,3.87-4.39,6.55-4.39a6.45,6.45,0,0,1,3.94,1.2,6.33,6.33,0,0,1,2.24,2.7,16.5,16.5,0,0,1,.6,5.41Z"/><path class="cls-1" d="M433.28,87.05v2.56a5.82,5.82,0,0,0-3,.51,2.7,2.7,0,0,0-1,1.85,7.51,7.51,0,0,1,2,5,6.43,6.43,0,0,1-2.16,4.86,8.12,8.12,0,0,1-5.81,2,7.31,7.31,0,0,1-1.42-.12,10.69,10.69,0,0,0-1.41-.23,2.54,2.54,0,0,0-1.34.55,1.64,1.64,0,0,0-.78,1.4,1.53,1.53,0,0,0,1.13,1.6,23.68,23.68,0,0,0,5.31.47,29.35,29.35,0,0,1,5.24.49,5.25,5.25,0,0,1,2.86,1.68,4.6,4.6,0,0,1,1.17,3.19q0,5.92-10.41,5.92-4.95,0-7.21-1.48a4.57,4.57,0,0,1-2.27-4,4.16,4.16,0,0,1,3.16-4.14,3.93,3.93,0,0,1-2-3.35c0-1.59,1-2.82,2.87-3.66a6.77,6.77,0,0,1-2.69-5.48,6.34,6.34,0,0,1,2.3-5,8.33,8.33,0,0,1,5.6-2,10.08,10.08,0,0,1,4.24.88,3.93,3.93,0,0,1,1.43-2.8,6,6,0,0,1,3.39-.78C432.63,87,432.9,87,433.28,87.05Zm-13.7,23.11q-2.25,1-2.25,2.85a2.7,2.7,0,0,0,1.85,2.45,11.2,11.2,0,0,0,4.73.87,15.1,15.1,0,0,0,4.88-.75c1.48-.5,2.22-1.34,2.22-2.53a2.07,2.07,0,0,0-.66-1.58,3.25,3.25,0,0,0-1.79-.78,39.56,39.56,0,0,0-4-.24C422.33,110.39,420.66,110.3,419.58,110.16Zm3.86-8.76a4.57,4.57,0,0,0,3.34-1.26,4.37,4.37,0,0,0,1.29-3.27,4.44,4.44,0,0,0-1.34-3.35,4.51,4.51,0,0,0-3.25-1.31,4.79,4.79,0,0,0-3.24,1.23,4.89,4.89,0,0,0-.14,6.72A4.55,4.55,0,0,0,423.44,101.4Z"/><path class="cls-1" d="M85,161.4H81.82V148.52a11.59,11.59,0,0,0-.28-3,3.56,3.56,0,0,0-1.34-1.83,3.82,3.82,0,0,0-2.4-.83,5.1,5.1,0,0,0-3.56,1.69,7,7,0,0,0-1.71,5.16V161.4H69.41V147.76c0-1.82-.43-3.1-1.3-3.85a4.1,4.1,0,0,0-2.74-1.13,4.62,4.62,0,0,0-3.57,1.76A6.63,6.63,0,0,0,60.29,149V161.4H57.21V140.69H60v4q2.31-4.56,6.38-4.56a5.35,5.35,0,0,1,3.79,1.46,6.64,6.64,0,0,1,2,3.51q2.13-5,6.54-5a6,6,0,0,1,3.7,1.21,5.68,5.68,0,0,1,2.08,2.78,15.85,15.85,0,0,1,.48,4.42Z"/><path class="cls-1" d="M105.08,155.23l3,.61a8.45,8.45,0,0,1-3.2,4.4,9.22,9.22,0,0,1-5.6,1.73,8.71,8.71,0,0,1-6.87-3,11.42,11.42,0,0,1-2.62-7.83,11.58,11.58,0,0,1,2.72-8,8.83,8.83,0,0,1,6.85-3,8.3,8.3,0,0,1,6.54,2.81c1.64,1.88,2.49,4.68,2.53,8.41h-15q0,4.69,2,6.34a6.45,6.45,0,0,0,4.17,1.64Q103.46,159.31,105.08,155.23Zm-.19-6.3a9.25,9.25,0,0,0-.57-3.1,5.27,5.27,0,0,0-1.81-2.3,4.91,4.91,0,0,0-3.05-1,5.45,5.45,0,0,0-4.07,1.73,7.09,7.09,0,0,0-1.88,4.63Z"/><path class="cls-1" d="M129.44,133.41v28h-2.91v-3.55A7,7,0,0,1,120,162a7.22,7.22,0,0,1-6-3,12.32,12.32,0,0,1-2.34-7.71,13.08,13.08,0,0,1,2.32-7.94,7.25,7.25,0,0,1,6.15-3.17,7.13,7.13,0,0,1,6.09,3.41V133.41Zm-3.22,15.28a5.85,5.85,0,0,0-1.66-4.37,5.33,5.33,0,0,0-3.88-1.64,4.71,4.71,0,0,0-4,2.13,10.07,10.07,0,0,0-1.54,6,11.57,11.57,0,0,0,1.42,6.33,4.45,4.45,0,0,0,3.91,2.18,5.26,5.26,0,0,0,4-1.89,6.34,6.34,0,0,0,1.72-4.43Z"/><path class="cls-1" d="M161.68,161.4h-3.37v-6.67H144.45v-2.35l12.87-19.55h4.36V152h4.53v2.76h-4.53ZM158.31,152V138.73c0-.95,0-2,.07-3.09-.59,1.08-1.1,2-1.53,2.62L148.1,152Z"/><path class="cls-1" d="M175.91,148.23v-2.76h3.2c2.34,0,4-.49,5-1.45a4.63,4.63,0,0,0,1.51-3.5,4.34,4.34,0,0,0-1.68-3.59,7.08,7.08,0,0,0-10.75,3.24l-3.16-.9q2.72-6.44,10-6.44a9.76,9.76,0,0,1,6.63,2.19,6.73,6.73,0,0,1,2.52,5.26,6.22,6.22,0,0,1-1.52,4.16,6.65,6.65,0,0,1-3.89,2.23,8.16,8.16,0,0,1,4.58,2.23,6.34,6.34,0,0,1,1.92,4.78,7.41,7.41,0,0,1-2.85,5.9c-1.9,1.6-4.51,2.39-7.82,2.39a11.92,11.92,0,0,1-6.74-1.86,9.63,9.63,0,0,1-3.86-5l3.26-1.09q1.47,5.07,7.28,5.06c2.52,0,4.32-.53,5.42-1.61a5.19,5.19,0,0,0,1.65-3.85,4.72,4.72,0,0,0-2-3.93,9,9,0,0,0-5.55-1.5Z"/><path class="cls-1" d="M200.54,148.23v-2.76h3.2c2.34,0,4-.49,5-1.45a4.63,4.63,0,0,0,1.51-3.5,4.34,4.34,0,0,0-1.68-3.59,7.08,7.08,0,0,0-10.75,3.24l-3.16-.9q2.72-6.44,10-6.44a9.76,9.76,0,0,1,6.63,2.19,6.73,6.73,0,0,1,2.52,5.26,6.22,6.22,0,0,1-1.52,4.16,6.64,6.64,0,0,1-3.9,2.23A8.16,8.16,0,0,1,213,148.9a6.34,6.34,0,0,1,1.92,4.78,7.42,7.42,0,0,1-2.86,5.9c-1.9,1.6-4.5,2.39-7.81,2.39a11.92,11.92,0,0,1-6.74-1.86,9.63,9.63,0,0,1-3.86-5l3.26-1.09q1.47,5.07,7.28,5.06c2.52,0,4.32-.53,5.42-1.61a5.19,5.19,0,0,0,1.65-3.85,4.72,4.72,0,0,0-2-3.93,9,9,0,0,0-5.55-1.5Z"/><path class="cls-1" d="M224.37,147.68a5,5,0,0,1-4.24-2.13,8.58,8.58,0,0,1-1.54-5.17,8.71,8.71,0,0,1,1.49-5.16,5.36,5.36,0,0,1,8.59.11,9.15,9.15,0,0,1,1.46,5.13,8.61,8.61,0,0,1-1.51,5.06A4.91,4.91,0,0,1,224.37,147.68Zm0-1.6a2.84,2.84,0,0,0,2.64-1.54,7.71,7.71,0,0,0,.88-3.88,9,9,0,0,0-.9-4.28,2.91,2.91,0,0,0-2.74-1.66q-3.53,0-3.52,5.59C220.78,144.16,222,146.08,224.42,146.08ZM225,161.4h-2.59l17-28h2.54Zm15,.29a4.93,4.93,0,0,1-4.26-2.16,9.54,9.54,0,0,1,0-10.3,4.88,4.88,0,0,1,4.24-2.1,4.82,4.82,0,0,1,4.32,2.21,9.15,9.15,0,0,1,1.46,5.13,8.59,8.59,0,0,1-1.51,5A4.84,4.84,0,0,1,240,161.69Zm0-1.64a2.85,2.85,0,0,0,2.63-1.52,7.81,7.81,0,0,0,.86-3.87,9.22,9.22,0,0,0-.87-4.22,2.9,2.9,0,0,0-2.74-1.71q-3.54,0-3.54,5.58Q236.39,160.05,240.05,160.05Z"/><path class="cls-1" d="M281.44,161.4h-3.67l-5.16-12.12h-8V161.4H261.3v-28h11c3,0,5.21.81,6.65,2.45a8,8,0,0,1,2.17,5.36,8.4,8.4,0,0,1-1.21,4.29,6.81,6.81,0,0,1-4,2.93Zm-16.86-15h7.33a5.62,5.62,0,0,0,4.31-1.53,5.28,5.28,0,0,0,1.43-3.74,4.19,4.19,0,0,0-1.51-3.45,5.8,5.8,0,0,0-3.8-1.23h-7.76Z"/><path class="cls-1" d="M296.15,162a9.75,9.75,0,0,1-8.41-4.19,17.18,17.18,0,0,1-3-10.29A16.86,16.86,0,0,1,287.88,137a10.53,10.53,0,0,1,16.7-.07,16.33,16.33,0,0,1,3.13,10.27,17.82,17.82,0,0,1-3,10.37A9.76,9.76,0,0,1,296.15,162Zm.08-2.85a6.42,6.42,0,0,0,5.74-3.34,16.18,16.18,0,0,0,2.07-8.62q0-5.43-2.14-8.44a6.67,6.67,0,0,0-5.69-3,6.49,6.49,0,0,0-5.7,3.27,15.46,15.46,0,0,0-2.12,8.54,15,15,0,0,0,2.14,8.38A6.52,6.52,0,0,0,296.23,159.12Z"/><path class="cls-1" d="M316.49,161.4H313v-28h3.51Z"/><path class="cls-1" d="M336.92,168.39H333.7v-27.7h2.91v4q2.19-4.61,6.53-4.6a7,7,0,0,1,5.92,3.07A14.86,14.86,0,0,1,349,159a7.23,7.23,0,0,1-5.95,3,6.85,6.85,0,0,1-6.13-3.71Zm0-20.34v5.84a6.13,6.13,0,0,0,2,3.89,5.17,5.17,0,0,0,3.5,1.53,4.87,4.87,0,0,0,3.74-1.85c1.09-1.23,1.64-3.35,1.64-6.38a10.49,10.49,0,0,0-1.48-6,4.56,4.56,0,0,0-3.92-2.13,4.79,4.79,0,0,0-3.45,1.5A7.2,7.2,0,0,0,336.92,148.05Z"/><path class="cls-1" d="M372.33,161.4h-3.18c-.12-.66-.24-1.9-.36-3.73a7.47,7.47,0,0,1-7.26,4.3,7.31,7.31,0,0,1-5.36-1.84,6.06,6.06,0,0,1-1.86-4.44,6.24,6.24,0,0,1,2.66-5.17q2.67-2,9.07-2c.57,0,1.49,0,2.75.08a12.07,12.07,0,0,0-.38-3.56,3.2,3.2,0,0,0-1.61-1.75,6.85,6.85,0,0,0-3.24-.66q-4.9,0-5.71,3.74l-3-.52c.73-3.81,3.77-5.72,9.15-5.72,2.85,0,4.88.64,6.08,1.9s1.79,3.46,1.79,6.57v8.8A18,18,0,0,0,372.33,161.4ZM368.79,151q-2-.12-3-.12a11.76,11.76,0,0,0-5.93,1.25,4,4,0,0,0-2.11,3.66,3.41,3.41,0,0,0,1.14,2.59,4.61,4.61,0,0,0,3.29,1.07,6.12,6.12,0,0,0,4.79-2.11,7.29,7.29,0,0,0,1.88-5C368.85,152,368.83,151.56,368.79,151Zm-1.36-16.83a3.52,3.52,0,0,1-3.53,3.52,3.46,3.46,0,0,1-2.52-1,3.38,3.38,0,0,1-1.06-2.5,3.48,3.48,0,0,1,1.05-2.51,3.55,3.55,0,0,1,2.62-1.06,3.29,3.29,0,0,1,2.41,1A3.5,3.5,0,0,1,367.43,134.21Zm-1.7,0a1.87,1.87,0,0,0-.53-1.33,1.64,1.64,0,0,0-1.21-.55,1.91,1.91,0,0,0-1.43.55A1.86,1.86,0,0,0,363.9,136a1.77,1.77,0,0,0,1.3-.54A1.79,1.79,0,0,0,365.73,134.2Z"/><path class="cls-1" d="M73.51,211.8H70.6v-4q-2.2,4.53-6.59,4.53a6.24,6.24,0,0,1-5-2.09,8.8,8.8,0,0,1-1.81-5.95V191.09h3.22v13.23c0,2.05.43,3.46,1.28,4.23a4.15,4.15,0,0,0,2.82,1.16,4.86,4.86,0,0,0,2.82-.88,6.79,6.79,0,0,0,2.1-2.52,7.62,7.62,0,0,0,.84-3.55V191.09h3.22Z"/><path class="cls-1" d="M96.28,211.8h-3V198.49c0-1.91-.41-3.26-1.25-4a4.26,4.26,0,0,0-3-1.17,5.24,5.24,0,0,0-4.14,2,7.76,7.76,0,0,0-1.67,5.19V211.8H80V191.09h3v3.81c1.68-2.92,3.86-4.39,6.54-4.39a6.5,6.5,0,0,1,4,1.2,6.37,6.37,0,0,1,2.23,2.7,16.16,16.16,0,0,1,.61,5.41Z"/><path class="cls-1" d="M118.9,183.81v28H116v-3.55a7,7,0,0,1-6.55,4.12,7.22,7.22,0,0,1-6-3,12.32,12.32,0,0,1-2.34-7.71,13,13,0,0,1,2.32-7.93,7.24,7.24,0,0,1,6.15-3.18,7.13,7.13,0,0,1,6.09,3.41V183.81Zm-3.22,15.28a5.89,5.89,0,0,0-1.66-4.37,5.33,5.33,0,0,0-3.88-1.64,4.71,4.71,0,0,0-4,2.13,10.07,10.07,0,0,0-1.54,6,11.57,11.57,0,0,0,1.42,6.33,4.45,4.45,0,0,0,3.91,2.18,5.26,5.26,0,0,0,4-1.89,6.39,6.39,0,0,0,1.72-4.43Z"/><path class="cls-1" d="M139,205.63l3,.61a8.45,8.45,0,0,1-3.2,4.4,9.2,9.2,0,0,1-5.6,1.73,8.71,8.71,0,0,1-6.87-3,11.42,11.42,0,0,1-2.62-7.83,11.58,11.58,0,0,1,2.72-8,8.83,8.83,0,0,1,6.85-3.05,8.3,8.3,0,0,1,6.54,2.81c1.64,1.88,2.49,4.68,2.53,8.41H127.31q0,4.7,2,6.34a6.47,6.47,0,0,0,4.17,1.64Q137.4,209.71,139,205.63Zm-.19-6.3a9.25,9.25,0,0,0-.57-3.1,5.27,5.27,0,0,0-1.81-2.3,4.91,4.91,0,0,0-3-1,5.45,5.45,0,0,0-4.07,1.73,7.11,7.11,0,0,0-1.88,4.63Z"/><path class="cls-1" d="M150.42,211.8H147.2V191.09H150v4.84q1.5-3.44,3-4.44a5.48,5.48,0,0,1,3.09-1c.33,0,.75,0,1.27.08v3.08h-.66a5.64,5.64,0,0,0-4.42,2,8.05,8.05,0,0,0-1.89,5.23Z"/><path class="cls-1" d="M190.82,189.53l-3.16.86c-1.08-2.84-3-4.27-5.91-4.27q-7.87,0-8.06,13a9,9,0,0,1,3.55-4.29,9.2,9.2,0,0,1,4.86-1.39,8.69,8.69,0,0,1,6.53,2.72,9,9,0,0,1,2.64,6.51,9.4,9.4,0,0,1-2.8,6.81,10.31,10.31,0,0,1-15.07-.88q-2.94-3.75-3-10.19a19.93,19.93,0,0,1,2.78-10.75c1.86-3,4.72-4.46,8.61-4.46A8.78,8.78,0,0,1,190.82,189.53Zm-9.58,20a6.7,6.7,0,0,0,4.91-11.33,6.07,6.07,0,0,0-4.6-1.94,6.87,6.87,0,0,0-4.94,2,6.41,6.41,0,0,0-2.12,4.77,6.3,6.3,0,0,0,1.89,4.49A6.42,6.42,0,0,0,181.24,209.57Z"/><path class="cls-1" d="M234.42,211.8h-3.14V198.92a11.65,11.65,0,0,0-.28-3,3.56,3.56,0,0,0-1.34-1.83,3.82,3.82,0,0,0-2.4-.83A5.1,5.1,0,0,0,223.7,195a7,7,0,0,0-1.71,5.16V211.8h-3.12V198.16c0-1.82-.43-3.1-1.3-3.85a4.15,4.15,0,0,0-2.74-1.13,4.62,4.62,0,0,0-3.57,1.76,6.63,6.63,0,0,0-1.51,4.47V211.8h-3.08V191.09h2.77v4q2.31-4.56,6.38-4.56a5.35,5.35,0,0,1,3.79,1.46,6.64,6.64,0,0,1,2,3.51q2.13-5,6.54-5a6,6,0,0,1,3.71,1.21,5.72,5.72,0,0,1,2.07,2.78,15.85,15.85,0,0,1,.48,4.42Z"/><path class="cls-1" d="M257.06,211.8h-3.18c-.12-.66-.25-1.9-.37-3.73a7.45,7.45,0,0,1-7.26,4.3,7.29,7.29,0,0,1-5.35-1.84,6.05,6.05,0,0,1-1.87-4.44,6.22,6.22,0,0,1,2.67-5.17c1.78-1.34,4.8-2,9.06-2,.58,0,1.49,0,2.75.08a12.07,12.07,0,0,0-.38-3.56,3.17,3.17,0,0,0-1.61-1.75,6.86,6.86,0,0,0-3.24-.65q-4.91,0-5.7,3.73l-3-.52q1.08-5.72,9.14-5.72c2.86,0,4.89.64,6.08,1.9s1.8,3.46,1.8,6.57v8.8A17.39,17.39,0,0,0,257.06,211.8Zm-3.55-10.36c-1.31-.08-2.31-.12-3-.12a11.73,11.73,0,0,0-5.93,1.25,4,4,0,0,0-2.11,3.66,3.41,3.41,0,0,0,1.14,2.59,4.59,4.59,0,0,0,3.29,1.07,6.12,6.12,0,0,0,4.79-2.11,7.28,7.28,0,0,0,1.87-5C253.57,202.42,253.55,202,253.51,201.44Zm-1.35-16.83a3.53,3.53,0,0,1-3.53,3.52,3.46,3.46,0,0,1-2.52-1,3.39,3.39,0,0,1-1.07-2.5,3.45,3.45,0,0,1,1.06-2.51,3.51,3.51,0,0,1,2.61-1.06,3.28,3.28,0,0,1,2.41,1A3.51,3.51,0,0,1,252.16,184.61Zm-1.7,0a1.83,1.83,0,0,0-.54-1.33,1.63,1.63,0,0,0-1.21-.55,1.9,1.9,0,0,0-1.42.55,1.76,1.76,0,0,0-.55,1.29,1.9,1.9,0,0,0,1.89,1.87,1.73,1.73,0,0,0,1.29-.54A1.76,1.76,0,0,0,250.46,184.6Z"/><path class="cls-1" d="M279.39,211.8h-3V198.49c0-1.91-.42-3.26-1.25-4a4.3,4.3,0,0,0-3-1.17,5.21,5.21,0,0,0-4.13,2,7.71,7.71,0,0,0-1.67,5.19V211.8h-3.22V191.09h3v3.81c1.68-2.92,3.86-4.39,6.54-4.39a6.48,6.48,0,0,1,3.95,1.2,6.4,6.4,0,0,1,2.24,2.7,16.5,16.5,0,0,1,.6,5.41Z"/><path class="cls-1" d="M299.51,205.63l3,.61a8.39,8.39,0,0,1-3.2,4.4,9.19,9.19,0,0,1-5.59,1.73,8.71,8.71,0,0,1-6.87-3,13,13,0,0,1,.1-15.83,8.81,8.81,0,0,1,6.85-3.05,8.28,8.28,0,0,1,6.53,2.81q2.48,2.82,2.53,8.41H287.8q0,4.7,2,6.34a6.42,6.42,0,0,0,4.16,1.64Q297.89,209.71,299.51,205.63Zm-.18-6.3a9,9,0,0,0-.58-3.1,5.25,5.25,0,0,0-1.8-2.3,4.94,4.94,0,0,0-3.06-1,5.45,5.45,0,0,0-4.07,1.73,7.16,7.16,0,0,0-1.88,4.63Z"/><path class="cls-1" d="M323.87,183.81v28H321v-3.55a7,7,0,0,1-6.55,4.12,7.23,7.23,0,0,1-6-3,12.32,12.32,0,0,1-2.34-7.71,13.09,13.09,0,0,1,2.32-7.93,7.26,7.26,0,0,1,6.15-3.18,7.13,7.13,0,0,1,6.09,3.41V183.81Zm-3.22,15.28a5.85,5.85,0,0,0-1.66-4.37,5.32,5.32,0,0,0-3.87-1.64,4.7,4.7,0,0,0-3.95,2.13,10.07,10.07,0,0,0-1.55,6,11.57,11.57,0,0,0,1.42,6.33,4.47,4.47,0,0,0,3.91,2.18,5.24,5.24,0,0,0,4-1.89,6.34,6.34,0,0,0,1.72-4.43Z"/><path class="cls-1" d="M344,205.63l3,.61a8.5,8.5,0,0,1-3.2,4.4,9.25,9.25,0,0,1-5.6,1.73,8.71,8.71,0,0,1-6.87-3,13,13,0,0,1,.1-15.83,8.81,8.81,0,0,1,6.85-3.05,8.28,8.28,0,0,1,6.53,2.81q2.47,2.82,2.53,8.41H332.28q0,4.7,2,6.34a6.42,6.42,0,0,0,4.16,1.64Q342.37,209.71,344,205.63Zm-.18-6.3a9,9,0,0,0-.58-3.1,5.18,5.18,0,0,0-1.8-2.3,4.94,4.94,0,0,0-3.06-1,5.47,5.47,0,0,0-4.07,1.73,7.11,7.11,0,0,0-1.87,4.63Z"/><path class="cls-1" d="M355.39,211.8h-3.22V191.09H355v4.84q1.5-3.44,3-4.44a5.43,5.43,0,0,1,3.09-1c.32,0,.75,0,1.27.08v3.08h-.66a5.66,5.66,0,0,0-4.43,2,8.16,8.16,0,0,0-1.89,5.23Z"/></svg>