<svg id="Layer_1" data-name="Layer 1" xmlns="http://www.w3.org/2000/svg" viewBox="0 0 980 240"><defs><style>.cls-1{fill:#d80201;}</style></defs><title>text</title><path class="cls-1" d="M509,110.7,487,85.65V110h-7V73.17h4.86l21.92,25.06V74h7V110.7Z"/><path class="cls-1" d="M527.85,122.53h-7.39l8.58-16L518,86.62h7.62l7,13.28,6.69-13.28h7.45Z"/><path class="cls-1" d="M565.92,110V97.2c0-3.24-.7-5.78-4.48-5.78-4.05,0-5,3.14-5,6.59v12h-6.53V69.55h6.53V89.64a8.52,8.52,0,0,1,7.35-3.78,8.93,8.93,0,0,1,6.8,2.86c1.68,2,1.84,4.16,1.84,6.59V110Z"/><path class="cls-1" d="M584.17,99.36c.11,3.62,1.84,6.27,5.73,6.27a6.13,6.13,0,0,0,5.56-3.14l6,1c-2,5-6.21,7.29-11.5,7.29-7.56,0-12.53-4.86-12.53-12.48,0-7.45,4.75-12.42,12.26-12.42,7.72,0,11.93,5.19,11.93,12.64v.86Zm5.68-8.85a5.31,5.31,0,0,0-5.46,4.69h11.07C594.81,92.29,592.92,90.51,589.85,90.51Z"/><path class="cls-1" d="M613.28,92.23V110h-6.53V92.23h-2.59V86.62h2.59v-8h6.53v8h4.59v5.61Z"/><path class="cls-1" d="M624.89,110.7a4.21,4.21,0,1,1,4.21-4.21A4.22,4.22,0,0,1,624.89,110.7Zm-3.35-11V74h6.7V99.69Z"/><path class="cls-1" d="M363.13,168l10.64-12c2.92-3.3,8.26-8.75,8.26-13.34a5.38,5.38,0,0,0-5.45-5.35c-3.57,0-5.24,2.65-5.35,5.94h-7.5c.48-7.29,5.23-12.15,12.63-12.15,6.75,0,12.69,4.43,12.69,11.56,0,5-3.29,9.13-6.53,12.58l-6.27,6.7h13.07V168Z"/><path class="cls-1" d="M392.83,158.33v-5.5H405v5.5Z"/><path class="cls-1" d="M411.3,138.68a3.95,3.95,0,1,1,3.89-3.94A3.92,3.92,0,0,1,411.3,138.68ZM408,168V144.62h6.54V168Z"/><path class="cls-1" d="M436.68,168V155c0-3.19-.7-5.62-4.43-5.62-4.05,0-5,3-5,6.48V168h-6.54V144.62h6.54v2.86c2.16-2.48,4-3.62,7.34-3.62a9,9,0,0,1,6.81,2.81c1.67,1.94,1.83,4.05,1.83,6.48V168Z"/><path class="cls-1" d="M446.34,158.33v-5.5h12.15v5.5Z"/><path class="cls-1" d="M470.75,168V138.14h-5.18V132h12.2v36Z"/><path class="cls-1" d="M521.72,168V155.2c0-3.24-.7-5.78-4.48-5.78-4,0-5,3.14-5,6.59v12h-6.53V127.55h6.53v20.09a8.53,8.53,0,0,1,7.35-3.78,8.93,8.93,0,0,1,6.8,2.86c1.68,1.95,1.84,4.16,1.84,6.59V168Z"/><path class="cls-1" d="M545.81,168.76c-6.43,0-11.29-2.87-11.29-9.83V144.62h6.54v13.23c0,3.18,1.35,5.34,4.75,5.34s4.75-2.16,4.75-5.34V144.62h6.59v14.31C557.15,165.89,552.23,168.76,545.81,168.76Z"/><path class="cls-1" d="M570.86,168.76a12.47,12.47,0,0,1-8.91-3.89l3.46-4a7.59,7.59,0,0,0,5.51,2.76,2.76,2.76,0,0,0,3-2.6c0-4-10.42-2-10.42-9.88,0-4.75,3.94-7.4,8.37-7.4a12,12,0,0,1,7.61,2.49l-3.24,3.83a6.53,6.53,0,0,0-3.89-1.56c-1.13,0-2.48.7-2.48,2,0,3.41,10.8,1.89,10.8,9.89C580.64,165.84,575.89,168.76,570.86,168.76Z"/><path class="cls-1" d="M601.32,168l-8.8-10-.7.7V168h-6.54V127.55h6.54v25.6l8.74-8.53h8.86l-11,10.26L610.28,168Z"/><path class="cls-1" d="M629.83,168v-3.08a9,9,0,0,1-7.61,3.84c-7,0-11.5-5.84-11.5-12.53,0-6.54,4.48-12.37,11.34-12.37a9.73,9.73,0,0,1,7.77,3.73v-3h6.59V168ZM624,149.75a6.56,6.56,0,1,0,6.53,6.53A6.51,6.51,0,0,0,624,149.75Z"/><path class="cls-1" d="M649.27,150.23V168h-6.53V150.23h-2.59v-5.61h2.59v-8h6.53v8h4.59v5.61Z"/><path class="cls-1" d="M675.14,168v-3.08a9.05,9.05,0,0,1-7.62,3.84c-7,0-11.5-5.84-11.5-12.53,0-6.54,4.48-12.37,11.34-12.37a9.76,9.76,0,0,1,7.78,3.73v-3h6.58V168Zm-5.84-18.25a6.56,6.56,0,1,0,6.54,6.53A6.52,6.52,0,0,0,669.3,149.75Z"/><path class="cls-1" d="M688,168V127.55h6.53V168Z"/><path class="cls-1" d="M712.94,168.76c-7.46,0-13.4-4.65-13.4-12.42s5.94-12.48,13.45-12.48,13.28,4.7,13.28,12.42S720.33,168.76,712.94,168.76Zm-.06-19a6.56,6.56,0,1,0,6.64,6.59A6.62,6.62,0,0,0,712.88,149.75Z"/><path class="cls-1" d="M753,176.48a12.76,12.76,0,0,1-9.93,4.1c-6,0-11.78-3.45-12.42-9.83h7.07a5.2,5.2,0,0,0,5.56,4.27c4.11,0,5.78-2.86,5.78-6.64v-3.51c-2.21,2.54-4.48,3.89-7.88,3.89-6.91,0-11.13-5.57-11.13-12.15s4.32-12.75,11.45-12.75a8.76,8.76,0,0,1,7.56,3.78v-3h6.59v22.52C755.65,170.81,755.49,173.56,753,176.48Zm-9.66-26.73a6.56,6.56,0,1,0,6.53,6.53A6.52,6.52,0,0,0,743.34,149.75Z"/></svg>