<svg id="Layer_1" data-name="Layer 1" xmlns="http://www.w3.org/2000/svg" viewBox="0 0 980 300"><defs><style>.cls-1{fill:#fff;}</style></defs><title>text</title><path class="cls-1" d="M48.89,64,39.46,92H36.07L26.64,64h3.67l7.8,23.09L45.84,64Z"/><path class="cls-1" d="M55.58,64V67.6H52.11V64Zm-.11,7.28V92H52.25V71.29Z"/><path class="cls-1" d="M89.5,92H86.16l-6-11.56-4.5,5.16V92H72.39V64h3.22V82l9.62-10.66h3.45l-6.47,7.27Z"/><path class="cls-1" d="M100,92.57a7.86,7.86,0,0,1-6.66-3.16,12.63,12.63,0,0,1-2.39-7.84,11.29,11.29,0,0,1,2.69-7.9,8.67,8.67,0,0,1,6.68-3,8.18,8.18,0,0,1,6.76,3.11,12.11,12.11,0,0,1,2.47,7.77,11.64,11.64,0,0,1-2.66,7.91A8.7,8.7,0,0,1,100,92.57Zm.24-2.66a5.12,5.12,0,0,0,4.12-2c1.11-1.36,1.67-3.46,1.67-6.32s-.59-5-1.75-6.24a5.3,5.3,0,0,0-4.08-1.94,5.12,5.12,0,0,0-4.06,2q-1.66,1.95-1.66,6.2c0,3,.55,5.14,1.66,6.43A5.21,5.21,0,0,0,100.22,89.91Z"/><path class="cls-1" d="M115.93,92h-1.56V64h3.22V74.73q2.22-4,6.11-4a7.57,7.57,0,0,1,6,2.81q2.41,2.82,2.41,8.17a12.45,12.45,0,0,1-2.37,7.75,7.37,7.37,0,0,1-6.16,3.13,7.07,7.07,0,0,1-6.48-4Zm1.66-8.12a6.34,6.34,0,0,0,2,4.63A5.67,5.67,0,0,0,123.22,90a4.65,4.65,0,0,0,4-2.14A10,10,0,0,0,128.71,82a11.64,11.64,0,0,0-1.46-6.29,4.55,4.55,0,0,0-4-2.29A5.08,5.08,0,0,0,119.53,75a7,7,0,0,0-1.94,4.21Z"/><path class="cls-1" d="M140.15,92h-3.22V64h3.22Z"/><path class="cls-1" d="M160.27,85.83l3,.61a8.33,8.33,0,0,1-3.2,4.39,9.21,9.21,0,0,1-5.6,1.74,8.7,8.7,0,0,1-6.86-3A11.43,11.43,0,0,1,145,81.76a11.54,11.54,0,0,1,2.73-8,8.81,8.81,0,0,1,6.85-3.05,8.29,8.29,0,0,1,6.53,2.81q2.47,2.82,2.53,8.41H148.56q0,4.69,2,6.34a6.42,6.42,0,0,0,4.16,1.64Q158.65,89.91,160.27,85.83Zm-.19-6.3a8.78,8.78,0,0,0-.57-3.1,5.32,5.32,0,0,0-1.8-2.3,4.94,4.94,0,0,0-3.06-1,5.45,5.45,0,0,0-4.07,1.73,7.09,7.09,0,0,0-1.88,4.63Z"/><path class="cls-1" d="M171.67,92h-3.22V71.29h2.83v4.84q1.5-3.43,3-4.44a5.42,5.42,0,0,1,3.08-1c.33,0,.76,0,1.27.08v3.08H178a5.65,5.65,0,0,0-4.43,2,8.05,8.05,0,0,0-1.89,5.23Z"/><path class="cls-1" d="M196.12,64V67.6h-3.47V64ZM196,71.29V92h-3.22V71.29Z"/><path class="cls-1" d="M218.76,92h-3V78.69c0-1.91-.41-3.26-1.25-4a4.26,4.26,0,0,0-3-1.17,5.24,5.24,0,0,0-4.14,2,7.76,7.76,0,0,0-1.67,5.19V92h-3.22V71.29h3V75.1c1.68-2.92,3.86-4.39,6.54-4.39a6.5,6.5,0,0,1,3.95,1.2,6.37,6.37,0,0,1,2.23,2.7,16.43,16.43,0,0,1,.61,5.41Z"/><path class="cls-1" d="M241.52,92h-3V78.69c0-1.91-.42-3.26-1.26-4a4.26,4.26,0,0,0-3-1.17,5.21,5.21,0,0,0-4.13,2,7.71,7.71,0,0,0-1.67,5.19V92H225.2V71.29h3V75.1c1.68-2.92,3.86-4.39,6.54-4.39a6.48,6.48,0,0,1,4,1.2,6.4,6.4,0,0,1,2.24,2.7,16.5,16.5,0,0,1,.6,5.41Z"/><path class="cls-1" d="M264.2,92H261V79.43a15,15,0,0,0-.27-3.32,3.54,3.54,0,0,0-1.32-1.92,3.76,3.76,0,0,0-2.39-.81,5.18,5.18,0,0,0-4.15,2,8.29,8.29,0,0,0-1.67,5.43V92H248V64h3.22V75.1c1.46-2.92,3.55-4.39,6.28-4.39a7.16,7.16,0,0,1,3.25.72,5.48,5.48,0,0,1,2.18,1.89,7.64,7.64,0,0,1,1,2.3,18.62,18.62,0,0,1,.27,3.81Z"/><path class="cls-1" d="M278.07,92.57a7.86,7.86,0,0,1-6.66-3.16A12.63,12.63,0,0,1,269,81.57a11.29,11.29,0,0,1,2.69-7.9,8.67,8.67,0,0,1,6.68-3,8.18,8.18,0,0,1,6.76,3.11,12.11,12.11,0,0,1,2.47,7.77A11.64,11.64,0,0,1,285,89.5,8.7,8.7,0,0,1,278.07,92.57Zm.24-2.66a5.12,5.12,0,0,0,4.12-2c1.11-1.36,1.66-3.46,1.66-6.32s-.58-5-1.74-6.24a5.3,5.3,0,0,0-4.08-1.94,5.12,5.12,0,0,0-4.06,2q-1.66,1.95-1.66,6.2c0,3,.55,5.14,1.66,6.43A5.2,5.2,0,0,0,278.31,89.91Z"/><path class="cls-1" d="M295.68,92h-3.22V64h3.22Z"/><path class="cls-1" d="M318.3,64V92h-2.91V88.45a7,7,0,0,1-6.55,4.12,7.23,7.23,0,0,1-6-3,12.32,12.32,0,0,1-2.34-7.71,13.08,13.08,0,0,1,2.32-7.94A7.26,7.26,0,0,1,309,70.71a7.13,7.13,0,0,1,6.09,3.41V64Zm-3.22,15.27a5.84,5.84,0,0,0-1.66-4.36,5.32,5.32,0,0,0-3.87-1.64,4.7,4.7,0,0,0-3.95,2.13,10.07,10.07,0,0,0-1.55,6,11.59,11.59,0,0,0,1.42,6.33,4.46,4.46,0,0,0,3.91,2.18,5.24,5.24,0,0,0,4-1.89,6.34,6.34,0,0,0,1.72-4.43Z"/><path class="cls-1" d="M329,87.32v4.21L326,97.27h-1.74L326.63,92h-2.09V87.32Z"/><path class="cls-1" d="M348.92,85.83l3,.61a8.33,8.33,0,0,1-3.2,4.39,9.2,9.2,0,0,1-5.59,1.74,8.71,8.71,0,0,1-6.87-3,11.43,11.43,0,0,1-2.63-7.83,11.54,11.54,0,0,1,2.73-8,8.81,8.81,0,0,1,6.85-3.05,8.28,8.28,0,0,1,6.53,2.81q2.47,2.82,2.53,8.41H337.21q0,4.69,2,6.34a6.42,6.42,0,0,0,4.16,1.64Q347.3,89.91,348.92,85.83Zm-.18-6.3a9,9,0,0,0-.58-3.1,5.25,5.25,0,0,0-1.8-2.3,4.94,4.94,0,0,0-3.06-1,5.45,5.45,0,0,0-4.07,1.73,7.14,7.14,0,0,0-1.88,4.63Z"/><path class="cls-1" d="M363.77,80.25v2.5H354.5v-2.5Z"/><path class="cls-1" d="M383.84,92h-3.21V79.43a14.9,14.9,0,0,0-.28-3.32A3.52,3.52,0,0,0,379,74.19a3.8,3.8,0,0,0-2.39-.81,5.2,5.2,0,0,0-4.16,2,8.29,8.29,0,0,0-1.67,5.43V92H367.6V64h3.22V75.1c1.47-2.92,3.56-4.39,6.28-4.39a7.13,7.13,0,0,1,3.25.72,5.41,5.41,0,0,1,2.18,1.89,7.64,7.64,0,0,1,1,2.3,18.62,18.62,0,0,1,.27,3.81Z"/><path class="cls-1" d="M406.49,92h-3.18a35.34,35.34,0,0,1-.37-3.73,7.45,7.45,0,0,1-7.26,4.3,7.27,7.27,0,0,1-5.35-1.84,6,6,0,0,1-1.87-4.44,6.22,6.22,0,0,1,2.67-5.17q2.65-2,9.06-2c.57,0,1.49,0,2.75.08a12.07,12.07,0,0,0-.38-3.56A3.2,3.2,0,0,0,401,73.87a6.85,6.85,0,0,0-3.24-.66q-4.9,0-5.7,3.74l-3-.52q1.1-5.72,9.15-5.72c2.86,0,4.88.63,6.08,1.9s1.79,3.45,1.79,6.57V88A17.37,17.37,0,0,0,406.49,92Zm-3.55-10.36q-2-.12-3-.12A11.69,11.69,0,0,0,394,82.77a4,4,0,0,0-2.12,3.66A3.41,3.41,0,0,0,393,89a4.61,4.61,0,0,0,3.29,1.07A6.1,6.1,0,0,0,401.12,88,7.29,7.29,0,0,0,403,83C403,82.62,403,82.16,402.94,81.64Z"/><path class="cls-1" d="M428.82,92h-3V78.69c0-1.91-.41-3.26-1.25-4a4.26,4.26,0,0,0-3-1.17,5.21,5.21,0,0,0-4.13,2,7.71,7.71,0,0,0-1.68,5.19V92H412.5V71.29h3V75.1c1.68-2.92,3.86-4.39,6.54-4.39a6.48,6.48,0,0,1,4,1.2,6.3,6.3,0,0,1,2.23,2.7,16.16,16.16,0,0,1,.61,5.41Z"/><path class="cls-1" d="M451.44,64V92h-2.91V88.45A7,7,0,0,1,442,92.57a7.22,7.22,0,0,1-6-3,12.32,12.32,0,0,1-2.34-7.71A13.08,13.08,0,0,1,436,73.88a7.25,7.25,0,0,1,6.15-3.17,7.13,7.13,0,0,1,6.09,3.41V64Zm-3.22,15.27a5.84,5.84,0,0,0-1.66-4.36,5.33,5.33,0,0,0-3.88-1.64,4.71,4.71,0,0,0-3.95,2.13,10.07,10.07,0,0,0-1.54,6,11.59,11.59,0,0,0,1.42,6.33,4.45,4.45,0,0,0,3.91,2.18,5.26,5.26,0,0,0,4-1.89,6.34,6.34,0,0,0,1.72-4.43Z"/><path class="cls-1" d="M471.56,85.83l3,.61a8.38,8.38,0,0,1-3.2,4.39,9.21,9.21,0,0,1-5.6,1.74,8.71,8.71,0,0,1-6.87-3,11.42,11.42,0,0,1-2.62-7.83,11.54,11.54,0,0,1,2.73-8,8.79,8.79,0,0,1,6.84-3.05,8.3,8.3,0,0,1,6.54,2.81c1.64,1.88,2.49,4.68,2.53,8.41h-15c0,3.13.65,5.24,2,6.34A6.42,6.42,0,0,0,466,89.91Q469.94,89.91,471.56,85.83Zm-.19-6.3a9.25,9.25,0,0,0-.57-3.1,5.27,5.27,0,0,0-1.81-2.3,4.89,4.89,0,0,0-3.05-1,5.45,5.45,0,0,0-4.07,1.73A7.09,7.09,0,0,0,460,79.53Z"/><path class="cls-1" d="M483,92h-3.22V64H483Z"/><path class="cls-1" d="M37.14,143a7.85,7.85,0,0,1-6.65-3.16A12.57,12.57,0,0,1,28.1,132a11.29,11.29,0,0,1,2.68-7.9,8.67,8.67,0,0,1,6.69-3,8.18,8.18,0,0,1,6.76,3.11A12.17,12.17,0,0,1,46.7,132,11.6,11.6,0,0,1,44,139.9,8.69,8.69,0,0,1,37.14,143Zm.25-2.66a5.13,5.13,0,0,0,4.12-2c1.11-1.36,1.66-3.46,1.66-6.32s-.58-5-1.74-6.24a5.33,5.33,0,0,0-4.08-1.94,5.11,5.11,0,0,0-4.06,2q-1.66,2-1.67,6.2c0,3,.56,5.14,1.67,6.43A5.18,5.18,0,0,0,37.39,140.31Z"/><path class="cls-1" d="M68.46,118.45V121a5.84,5.84,0,0,0-3,.51,2.7,2.7,0,0,0-1,1.85,7.52,7.52,0,0,1,2,5,6.4,6.4,0,0,1-2.17,4.86,8.12,8.12,0,0,1-5.81,2,7.31,7.31,0,0,1-1.42-.12,10.69,10.69,0,0,0-1.41-.23,2.51,2.51,0,0,0-1.33.55,1.64,1.64,0,0,0-.78,1.4,1.52,1.52,0,0,0,1.13,1.6,23.68,23.68,0,0,0,5.31.47,29.56,29.56,0,0,1,5.24.49,5.32,5.32,0,0,1,2.86,1.68,4.6,4.6,0,0,1,1.17,3.19q0,5.93-10.42,5.92c-3.3,0-5.7-.49-7.21-1.49a4.55,4.55,0,0,1-2.27-4,4.19,4.19,0,0,1,3.16-4.15,3.91,3.91,0,0,1-2-3.34c0-1.59,1-2.82,2.87-3.66a6.76,6.76,0,0,1-2.68-5.48,6.33,6.33,0,0,1,2.29-5,8.33,8.33,0,0,1,5.6-2,10.13,10.13,0,0,1,4.25.88,4,4,0,0,1,1.42-2.81,6.08,6.08,0,0,1,3.4-.77C67.81,118.41,68.07,118.42,68.46,118.45Zm-13.7,23.11c-1.51.65-2.26,1.61-2.26,2.85a2.7,2.7,0,0,0,1.86,2.45,11.12,11.12,0,0,0,4.72.87A15.1,15.1,0,0,0,64,147c1.48-.5,2.22-1.34,2.22-2.53a2.07,2.07,0,0,0-.66-1.58,3.19,3.19,0,0,0-1.79-.78,39.34,39.34,0,0,0-4-.24C57.5,141.79,55.84,141.7,54.76,141.56Zm3.85-8.76A4.61,4.61,0,0,0,62,131.54a4.37,4.37,0,0,0,1.29-3.27,4.43,4.43,0,0,0-1.35-3.35,4.49,4.49,0,0,0-3.25-1.31,4.86,4.86,0,0,0-3.24,1.22,4.9,4.9,0,0,0-.14,6.73A4.57,4.57,0,0,0,58.61,132.8Z"/><path class="cls-1" d="M98.85,114.41v28H95.94v-3.55A7,7,0,0,1,89.39,143a7.22,7.22,0,0,1-6-3,12.32,12.32,0,0,1-2.34-7.71,13.08,13.08,0,0,1,2.32-7.94,7.25,7.25,0,0,1,6.15-3.17,7.13,7.13,0,0,1,6.09,3.41V114.41Zm-3.22,15.27A5.84,5.84,0,0,0,94,125.32a5.33,5.33,0,0,0-3.88-1.64,4.71,4.71,0,0,0-4,2.13,10.07,10.07,0,0,0-1.54,6A11.59,11.59,0,0,0,86,138.13a4.45,4.45,0,0,0,3.91,2.18,5.26,5.26,0,0,0,4-1.89A6.39,6.39,0,0,0,95.63,134Z"/><path class="cls-1" d="M108.61,114.41V118h-3.47v-3.59Zm-.1,7.28V142.4h-3.22V121.69Z"/><path class="cls-1" d="M131.85,118.45V121a5.84,5.84,0,0,0-3,.51,2.7,2.7,0,0,0-1,1.85,7.52,7.52,0,0,1,2,5,6.4,6.4,0,0,1-2.17,4.86,8.12,8.12,0,0,1-5.81,2,7.31,7.31,0,0,1-1.42-.12,10.69,10.69,0,0,0-1.41-.23,2.51,2.51,0,0,0-1.33.55,1.64,1.64,0,0,0-.78,1.4,1.52,1.52,0,0,0,1.12,1.6,23.87,23.87,0,0,0,5.32.47,29.56,29.56,0,0,1,5.24.49,5.32,5.32,0,0,1,2.86,1.68,4.6,4.6,0,0,1,1.17,3.19q0,5.93-10.42,5.92c-3.3,0-5.7-.49-7.21-1.49a4.55,4.55,0,0,1-2.27-4,4.19,4.19,0,0,1,3.16-4.15,3.91,3.91,0,0,1-2-3.34c0-1.59,1-2.82,2.87-3.66a6.76,6.76,0,0,1-2.68-5.48,6.33,6.33,0,0,1,2.29-5,8.33,8.33,0,0,1,5.6-2,10.13,10.13,0,0,1,4.25.88,4,4,0,0,1,1.42-2.81,6.08,6.08,0,0,1,3.4-.77C131.2,118.41,131.46,118.42,131.85,118.45Zm-13.7,23.11c-1.51.65-2.26,1.61-2.26,2.85a2.7,2.7,0,0,0,1.86,2.45,11.12,11.12,0,0,0,4.72.87,15.1,15.1,0,0,0,4.88-.75c1.48-.5,2.22-1.34,2.22-2.53a2.07,2.07,0,0,0-.66-1.58,3.19,3.19,0,0,0-1.79-.78,39.34,39.34,0,0,0-4-.24C120.89,141.79,119.23,141.7,118.15,141.56ZM122,132.8a4.57,4.57,0,0,0,3.34-1.26,4.34,4.34,0,0,0,1.3-3.27,4.43,4.43,0,0,0-1.35-3.35,4.49,4.49,0,0,0-3.25-1.31,4.86,4.86,0,0,0-3.24,1.22,4.9,4.9,0,0,0-.14,6.73A4.57,4.57,0,0,0,122,132.8Z"/><path class="cls-1" d="M138.88,114.41V118h-3.47v-3.59Zm-.1,7.28V142.4h-3.22V121.69Z"/><path class="cls-1" d="M154.59,140.21v2.54a22.93,22.93,0,0,1-3,.22q-6,0-6-6.28V124.21H142v-2.52h3.67l.14-5.21,3-.29v5.5h4.64v2.52h-4.64v13q0,3.2,3.33,3.2A15.88,15.88,0,0,0,154.59,140.21Z"/><path class="cls-1" d="M174.32,142.4h-3.18c-.12-.66-.25-1.9-.37-3.73a7.45,7.45,0,0,1-7.26,4.3,7.29,7.29,0,0,1-5.35-1.84,6,6,0,0,1-1.87-4.44,6.22,6.22,0,0,1,2.67-5.17c1.77-1.35,4.8-2,9.06-2,.58,0,1.49,0,2.75.08a12.07,12.07,0,0,0-.38-3.56,3.17,3.17,0,0,0-1.61-1.75,6.85,6.85,0,0,0-3.24-.66q-4.9,0-5.7,3.74l-3-.52q1.08-5.72,9.14-5.72,4.29,0,6.08,1.9t1.8,6.57v8.8A17.39,17.39,0,0,0,174.32,142.4ZM170.77,132c-1.31-.08-2.31-.12-3-.12a11.73,11.73,0,0,0-5.93,1.25,4,4,0,0,0-2.11,3.66,3.41,3.41,0,0,0,1.14,2.59,4.57,4.57,0,0,0,3.29,1.07,6.13,6.13,0,0,0,4.79-2.11,7.28,7.28,0,0,0,1.87-5C170.83,133,170.81,132.56,170.77,132Z"/><path class="cls-1" d="M183.54,142.4h-3.21v-28h3.21Z"/><path class="cls-1" d="M228.23,142.4h-3.14V129.52a12.17,12.17,0,0,0-.27-3,3.58,3.58,0,0,0-1.35-1.83,3.82,3.82,0,0,0-2.39-.83,5,5,0,0,0-3.56,1.69,7,7,0,0,0-1.72,5.16V142.4h-3.11V128.76c0-1.82-.44-3.1-1.31-3.85a4.08,4.08,0,0,0-2.73-1.13,4.59,4.59,0,0,0-3.57,1.76,6.63,6.63,0,0,0-1.52,4.47V142.4h-3.07V121.69h2.76v4c1.55-3,3.67-4.56,6.38-4.56a5.38,5.38,0,0,1,3.8,1.46,6.78,6.78,0,0,1,2,3.51q2.13-5,6.54-5a6,6,0,0,1,3.7,1.21,5.6,5.6,0,0,1,2.07,2.78,15.85,15.85,0,0,1,.48,4.42Z"/><path class="cls-1" d="M250.87,142.4h-3.18c-.12-.66-.24-1.9-.37-3.73a7.45,7.45,0,0,1-7.26,4.3,7.3,7.3,0,0,1-5.35-1.84,6.06,6.06,0,0,1-1.86-4.44,6.21,6.21,0,0,1,2.66-5.17q2.67-2,9.07-2c.57,0,1.49,0,2.74.08A12.15,12.15,0,0,0,247,126a3.19,3.19,0,0,0-1.62-1.75,6.85,6.85,0,0,0-3.24-.66q-4.89,0-5.7,3.74l-3-.52q1.08-5.72,9.15-5.72,4.27,0,6.08,1.9t1.79,6.57v8.8A17.39,17.39,0,0,0,250.87,142.4ZM247.32,132c-1.31-.08-2.31-.12-3-.12a11.76,11.76,0,0,0-5.93,1.25,4,4,0,0,0-2.11,3.66,3.41,3.41,0,0,0,1.14,2.59,4.61,4.61,0,0,0,3.29,1.07,6.12,6.12,0,0,0,4.79-2.11,7.29,7.29,0,0,0,1.88-5C247.39,133,247.37,132.56,247.32,132Z"/><path class="cls-1" d="M260.1,142.4h-3.22V121.69h2.83v4.84q1.5-3.44,3-4.44a5.42,5.42,0,0,1,3.08-1c.33,0,.75,0,1.27.08v3.08h-.65a5.65,5.65,0,0,0-4.43,2,8,8,0,0,0-1.89,5.23Z"/><path class="cls-1" d="M287.62,142.4h-3.34l-6-11.57L273.74,136v6.4h-3.22v-28h3.22v17.94l9.62-10.66h3.44L280.33,129Z"/><path class="cls-1" d="M304.32,136.23l3,.61a8.38,8.38,0,0,1-3.2,4.39,9.21,9.21,0,0,1-5.6,1.74,8.71,8.71,0,0,1-6.87-3,11.42,11.42,0,0,1-2.62-7.83,11.54,11.54,0,0,1,2.73-8,8.79,8.79,0,0,1,6.84-3,8.3,8.3,0,0,1,6.54,2.81c1.64,1.87,2.49,4.68,2.53,8.41H292.61c0,3.13.65,5.24,2,6.34a6.42,6.42,0,0,0,4.16,1.64Q302.7,140.31,304.32,136.23Zm-.19-6.3a9.25,9.25,0,0,0-.57-3.1,5.27,5.27,0,0,0-1.81-2.3,4.89,4.89,0,0,0-3.05-1,5.45,5.45,0,0,0-4.07,1.73,7.09,7.09,0,0,0-1.88,4.63Z"/><path class="cls-1" d="M328.68,114.41v28h-2.91v-3.55a7,7,0,0,1-6.55,4.12,7.22,7.22,0,0,1-6-3,12.32,12.32,0,0,1-2.34-7.71,13.08,13.08,0,0,1,2.32-7.94,7.25,7.25,0,0,1,6.15-3.17,7.13,7.13,0,0,1,6.09,3.41V114.41Zm-3.22,15.27a5.84,5.84,0,0,0-1.66-4.36,5.33,5.33,0,0,0-3.88-1.64,4.71,4.71,0,0,0-3.95,2.13,10.07,10.07,0,0,0-1.54,6,11.59,11.59,0,0,0,1.42,6.33,4.45,4.45,0,0,0,3.91,2.18,5.26,5.26,0,0,0,4-1.89,6.34,6.34,0,0,0,1.72-4.43Z"/><path class="cls-1" d="M332.33,137l3.08-.64q1,3.92,6.48,3.92a6.13,6.13,0,0,0,3.4-.9,2.86,2.86,0,0,0,1.39-2.54q0-2.44-3.55-3.1l-4.36-.82a8,8,0,0,1-4.08-1.93,5,5,0,0,1-1.52-3.8,5.47,5.47,0,0,1,2.07-4.35,8.35,8.35,0,0,1,5.58-1.76q6.75,0,8.33,5.27l-3,.64q-1.28-3.24-5.23-3.24a5.88,5.88,0,0,0-3.23.81,2.54,2.54,0,0,0-1.26,2.26q0,2.29,3.22,2.89l4,.72q6.34,1.15,6.34,6.15a5.49,5.49,0,0,1-2.36,4.61,10.26,10.26,0,0,1-6.28,1.75Q334.08,143,332.33,137Z"/><path class="cls-1" d="M363.19,121.69v2.52h-4.92V142.4h-3.22V124.21h-3.53v-2.52h3.53q.09-5,1.92-6.42a7,7,0,0,1,4.48-1.44,17.64,17.64,0,0,1,2.95.29v2.56a7.89,7.89,0,0,0-2-.26,4.49,4.49,0,0,0-3.12.93c-.68.62-1,1.79-1,3.5v.84Z"/><path class="cls-1" d="M367.74,139.5a12.62,12.62,0,0,1-2.17-7.55,11.28,11.28,0,0,1,2.69-7.87,9.06,9.06,0,0,1,12-1.28l1.84-2.47H385l-3.08,4.1a12.18,12.18,0,0,1,2.3,7.56,11.64,11.64,0,0,1-2.65,7.91,8.7,8.7,0,0,1-6.91,3.07,7.86,7.86,0,0,1-5.33-1.79l-1.78,2.37h-2.79Zm2.1-2.81,8.59-11.47a5.26,5.26,0,0,0-3.61-1.44,5.14,5.14,0,0,0-4.05,2q-1.66,2-1.67,6.26A13.21,13.21,0,0,0,369.84,136.69Zm10-9.53-8.72,11.6a5.31,5.31,0,0,0,3.78,1.55,5.1,5.1,0,0,0,4.1-2c1.11-1.36,1.67-3.46,1.67-6.32A11.72,11.72,0,0,0,379.82,127.16Z"/><path class="cls-1" d="M392.23,142.4H389V121.69h2.83v4.84q1.5-3.44,3-4.44a5.42,5.42,0,0,1,3.08-1c.33,0,.76,0,1.28.08v3.08h-.66a5.65,5.65,0,0,0-4.43,2,8,8,0,0,0-1.89,5.23Z"/><path class="cls-1" d="M406.18,114.41V118h-3.47v-3.59Zm-.1,7.28V142.4h-3.22V121.69Z"/><path class="cls-1" d="M428.82,142.4h-3V129.09c0-1.91-.41-3.26-1.25-4a4.26,4.26,0,0,0-3-1.17,5.21,5.21,0,0,0-4.13,2,7.71,7.71,0,0,0-1.68,5.19V142.4H412.5V121.69h3v3.81c1.68-2.92,3.86-4.39,6.54-4.39a6.48,6.48,0,0,1,4,1.2,6.3,6.3,0,0,1,2.23,2.7,16.16,16.16,0,0,1,.61,5.41Z"/><path class="cls-1" d="M452.18,118.45V121a5.84,5.84,0,0,0-3,.51,2.7,2.7,0,0,0-1,1.85,7.47,7.47,0,0,1,2,5,6.4,6.4,0,0,1-2.17,4.86,8.1,8.1,0,0,1-5.81,2,7.13,7.13,0,0,1-1.41-.12,11,11,0,0,0-1.42-.23,2.51,2.51,0,0,0-1.33.55,1.64,1.64,0,0,0-.78,1.4,1.53,1.53,0,0,0,1.13,1.6,23.68,23.68,0,0,0,5.31.47,29.56,29.56,0,0,1,5.24.49,5.29,5.29,0,0,1,2.86,1.68,4.6,4.6,0,0,1,1.17,3.19q0,5.93-10.42,5.92c-3.29,0-5.7-.49-7.21-1.49a4.54,4.54,0,0,1-2.26-4,4.18,4.18,0,0,1,3.15-4.15,3.91,3.91,0,0,1-2-3.34c0-1.59,1-2.82,2.87-3.66a6.76,6.76,0,0,1-2.68-5.48,6.33,6.33,0,0,1,2.29-5,8.34,8.34,0,0,1,5.6-2,10.13,10.13,0,0,1,4.25.88,4,4,0,0,1,1.42-2.81,6.08,6.08,0,0,1,3.4-.77C451.53,118.41,451.79,118.42,452.18,118.45Zm-13.7,23.11c-1.51.65-2.26,1.61-2.26,2.85a2.7,2.7,0,0,0,1.86,2.45,11.16,11.16,0,0,0,4.73.87,15.18,15.18,0,0,0,4.88-.75c1.47-.5,2.21-1.34,2.21-2.53a2.1,2.1,0,0,0-.65-1.58,3.25,3.25,0,0,0-1.8-.78,39.34,39.34,0,0,0-4-.24C441.23,141.79,439.56,141.7,438.48,141.56Zm3.85-8.76a4.6,4.6,0,0,0,3.35-1.26,4.37,4.37,0,0,0,1.29-3.27,4.46,4.46,0,0,0-1.34-3.35,4.51,4.51,0,0,0-3.25-1.31,4.87,4.87,0,0,0-3.25,1.22,4.9,4.9,0,0,0-.14,6.73A4.57,4.57,0,0,0,442.33,132.8Z"/><path class="cls-1" d="M33,164.81v3.59H29.57v-3.59Zm-.1,7.28V192.8H29.72V172.09Z"/><path class="cls-1" d="M47.07,187.43l3.07-.64q1,3.92,6.48,3.92a6.17,6.17,0,0,0,3.41-.9,2.86,2.86,0,0,0,1.39-2.54q0-2.45-3.55-3.1l-4.36-.82a8,8,0,0,1-4.09-1.93,5,5,0,0,1-1.51-3.8A5.48,5.48,0,0,1,50,173.27a8.35,8.35,0,0,1,5.58-1.76q6.73,0,8.32,5.27l-3,.64q-1.27-3.24-5.23-3.24a5.88,5.88,0,0,0-3.23.81,2.54,2.54,0,0,0-1.26,2.26q0,2.3,3.22,2.89l4,.72Q64.8,182,64.81,187a5.49,5.49,0,0,1-2.36,4.61,10.28,10.28,0,0,1-6.28,1.75Q48.8,193.37,47.07,187.43Z"/><path class="cls-1" d="M85.54,192.8H82.36c-.12-.66-.25-1.9-.37-3.73a7.45,7.45,0,0,1-7.26,4.3,7.29,7.29,0,0,1-5.35-1.84,6,6,0,0,1-1.87-4.44,6.22,6.22,0,0,1,2.67-5.17q2.67-2,9.06-2c.58,0,1.49,0,2.75.08a12.07,12.07,0,0,0-.38-3.56A3.17,3.17,0,0,0,80,174.67a6.85,6.85,0,0,0-3.24-.66q-4.91,0-5.7,3.74l-3-.52q1.08-5.72,9.14-5.72c2.86,0,4.89.64,6.08,1.9s1.8,3.46,1.8,6.57v8.8A17.39,17.39,0,0,0,85.54,192.8ZM82,182.44c-1.31-.08-2.31-.12-3-.12a11.73,11.73,0,0,0-5.93,1.25A4,4,0,0,0,71,187.23a3.41,3.41,0,0,0,1.14,2.59,4.57,4.57,0,0,0,3.29,1.07,6.13,6.13,0,0,0,4.79-2.11,7.28,7.28,0,0,0,1.87-5C82.05,183.42,82,183,82,182.44Z"/><path class="cls-1" d="M119.29,192.8h-3.13V179.92a12.07,12.07,0,0,0-.28-3,3.56,3.56,0,0,0-1.34-1.83,3.82,3.82,0,0,0-2.4-.83,5.1,5.1,0,0,0-3.56,1.69,7,7,0,0,0-1.71,5.16V192.8h-3.12V179.16c0-1.82-.43-3.1-1.3-3.85a4.1,4.1,0,0,0-2.74-1.13,4.59,4.59,0,0,0-3.57,1.76,6.63,6.63,0,0,0-1.52,4.47V192.8H91.55V172.09h2.77v4c1.54-3,3.67-4.56,6.37-4.56a5.38,5.38,0,0,1,3.8,1.46,6.64,6.64,0,0,1,2,3.51q2.13-5,6.54-5a6,6,0,0,1,3.7,1.21,5.6,5.6,0,0,1,2.07,2.78,15.85,15.85,0,0,1,.48,4.42Z"/><path class="cls-1" d="M153.48,192.8h-3.14V179.92a12.17,12.17,0,0,0-.27-3,3.64,3.64,0,0,0-1.35-1.83,3.82,3.82,0,0,0-2.4-.83,5.08,5.08,0,0,0-3.55,1.69,6.94,6.94,0,0,0-1.72,5.16V192.8h-3.11V179.16c0-1.82-.44-3.1-1.31-3.85a4.08,4.08,0,0,0-2.73-1.13,4.59,4.59,0,0,0-3.57,1.76,6.63,6.63,0,0,0-1.52,4.47V192.8h-3.08V172.09h2.77v4c1.55-3,3.67-4.56,6.38-4.56a5.34,5.34,0,0,1,3.79,1.46,6.64,6.64,0,0,1,2,3.51q2.15-5,6.55-5a6,6,0,0,1,3.7,1.21A5.6,5.6,0,0,1,153,175.5a15.85,15.85,0,0,1,.48,4.42Z"/><path class="cls-1" d="M173.6,186.63l3,.61a8.39,8.39,0,0,1-3.2,4.4,9.26,9.26,0,0,1-5.59,1.73,8.71,8.71,0,0,1-6.87-3,13,13,0,0,1,.1-15.83,8.81,8.81,0,0,1,6.85-3.05,8.29,8.29,0,0,1,6.53,2.81q2.47,2.82,2.53,8.41H161.89q0,4.7,2,6.34a6.42,6.42,0,0,0,4.16,1.64Q172,190.71,173.6,186.63Zm-.18-6.3a9,9,0,0,0-.58-3.1,5.25,5.25,0,0,0-1.8-2.3,4.94,4.94,0,0,0-3.06-1,5.45,5.45,0,0,0-4.07,1.73,7.09,7.09,0,0,0-1.88,4.63Z"/><path class="cls-1" d="M195.5,192.8h-3.22v-28h3.22Z"/><path class="cls-1" d="M202.49,189.9a12.62,12.62,0,0,1-2.17-7.55,11.28,11.28,0,0,1,2.69-7.87,9.06,9.06,0,0,1,12-1.28l1.84-2.47h2.87l-3.08,4.1a12.24,12.24,0,0,1,2.3,7.56,11.59,11.59,0,0,1-2.66,7.91,8.68,8.68,0,0,1-6.9,3.07,7.86,7.86,0,0,1-5.33-1.79L202.25,194h-2.79Zm2.1-2.81,8.59-11.47a5.26,5.26,0,0,0-3.61-1.44,5.14,5.14,0,0,0-4,1.95c-1.12,1.3-1.67,3.39-1.67,6.26A13,13,0,0,0,204.59,187.09Zm10-9.53-8.72,11.6a5.31,5.31,0,0,0,3.78,1.55,5.13,5.13,0,0,0,4.1-2c1.11-1.36,1.66-3.46,1.66-6.32A11.74,11.74,0,0,0,214.57,177.56Z"/><path class="cls-1" d="M221,187.43l3.08-.64q1,3.92,6.48,3.92a6.13,6.13,0,0,0,3.4-.9,2.86,2.86,0,0,0,1.4-2.54c0-1.63-1.19-2.66-3.55-3.1l-4.37-.82a8,8,0,0,1-4.08-1.93,5,5,0,0,1-1.52-3.8,5.48,5.48,0,0,1,2.07-4.35,8.35,8.35,0,0,1,5.58-1.76q6.75,0,8.33,5.27l-3,.64c-.84-2.16-2.59-3.24-5.22-3.24a5.86,5.86,0,0,0-3.23.81,2.55,2.55,0,0,0-1.27,2.26c0,1.53,1.08,2.49,3.22,2.89l4,.72q6.34,1.15,6.34,6.15a5.49,5.49,0,0,1-2.36,4.61,10.25,10.25,0,0,1-6.27,1.75Q222.71,193.37,221,187.43Z"/><path class="cls-1" d="M259.57,192.8h-3V179.49c0-1.91-.41-3.26-1.25-4a4.26,4.26,0,0,0-3-1.17,5.24,5.24,0,0,0-4.14,2,7.76,7.76,0,0,0-1.67,5.19V192.8h-3.22V172.09h3v3.81c1.68-2.92,3.86-4.39,6.54-4.39a6.5,6.5,0,0,1,4,1.2,6.37,6.37,0,0,1,2.23,2.7,16.16,16.16,0,0,1,.61,5.41Z"/><path class="cls-1" d="M269.33,164.81v3.59h-3.47v-3.59Zm-.1,7.28V192.8H266V172.09Z"/><path class="cls-1" d="M292,192.8h-3V179.49c0-1.91-.42-3.26-1.26-4a4.26,4.26,0,0,0-3-1.17,5.21,5.21,0,0,0-4.13,2,7.71,7.71,0,0,0-1.67,5.19V192.8h-3.22V172.09h3v3.81c1.68-2.92,3.86-4.39,6.54-4.39a6.48,6.48,0,0,1,3.95,1.2,6.4,6.4,0,0,1,2.24,2.7,16.5,16.5,0,0,1,.6,5.41Z"/><path class="cls-1" d="M315.33,168.85v2.56a5.77,5.77,0,0,0-3,.51,2.7,2.7,0,0,0-1,1.85,7.47,7.47,0,0,1,2,5,6.43,6.43,0,0,1-2.16,4.86,8.14,8.14,0,0,1-5.82,2,7.13,7.13,0,0,1-1.41-.12,11,11,0,0,0-1.42-.23,2.51,2.51,0,0,0-1.33.55,1.64,1.64,0,0,0-.78,1.4,1.53,1.53,0,0,0,1.13,1.6,23.68,23.68,0,0,0,5.31.47,29.56,29.56,0,0,1,5.24.49A5.29,5.29,0,0,1,315,191.5a4.6,4.6,0,0,1,1.17,3.19q0,5.92-10.42,5.92c-3.29,0-5.7-.49-7.21-1.48a4.56,4.56,0,0,1-2.26-4,4.18,4.18,0,0,1,3.15-4.15,3.91,3.91,0,0,1-2-3.34c0-1.59,1-2.82,2.87-3.66a6.76,6.76,0,0,1-2.68-5.48,6.31,6.31,0,0,1,2.3-5,8.3,8.3,0,0,1,5.59-2,10.13,10.13,0,0,1,4.25.88,4,4,0,0,1,1.42-2.81,6.08,6.08,0,0,1,3.4-.77C314.68,168.81,315,168.82,315.33,168.85ZM301.63,192c-1.5.66-2.26,1.61-2.26,2.85a2.7,2.7,0,0,0,1.86,2.45,11.16,11.16,0,0,0,4.73.87,15.18,15.18,0,0,0,4.88-.75c1.47-.5,2.21-1.34,2.21-2.53a2.1,2.1,0,0,0-.65-1.58,3.25,3.25,0,0,0-1.8-.78,39.34,39.34,0,0,0-4-.24C304.38,192.19,302.71,192.1,301.63,192Zm3.85-8.76a4.6,4.6,0,0,0,3.35-1.26,4.37,4.37,0,0,0,1.29-3.27,4.53,4.53,0,0,0-4.59-4.66,4.82,4.82,0,0,0-3.24,1.22,4.89,4.89,0,0,0-.15,6.73A4.57,4.57,0,0,0,305.48,183.2Z"/></svg>