<svg id="Layer_1" data-name="Layer 1" xmlns="http://www.w3.org/2000/svg" viewBox="0 0 980 300"><defs><style>.cls-1{fill:#fff;}</style></defs><title>text</title><path class="cls-1" d="M236,134.92V138H219.51V110h3.59v24.91Z"/><path class="cls-1" d="M253.47,131.83l3,.61a8.33,8.33,0,0,1-3.2,4.39,9.21,9.21,0,0,1-5.6,1.74,8.71,8.71,0,0,1-6.87-3,11.42,11.42,0,0,1-2.62-7.83,11.54,11.54,0,0,1,2.73-8,8.8,8.8,0,0,1,6.85-3.05,8.29,8.29,0,0,1,6.53,2.81q2.47,2.82,2.53,8.41H241.76c0,3.13.65,5.24,2,6.34a6.42,6.42,0,0,0,4.16,1.64Q251.85,135.91,253.47,131.83Zm-.19-6.3a9,9,0,0,0-.57-3.1,5.27,5.27,0,0,0-1.81-2.3,4.89,4.89,0,0,0-3.05-1,5.45,5.45,0,0,0-4.07,1.73,7.09,7.09,0,0,0-1.88,4.63Z"/><path class="cls-1" d="M258.86,132.63l3.08-.64q1,3.91,6.48,3.92a6.13,6.13,0,0,0,3.4-.9,2.86,2.86,0,0,0,1.4-2.54c0-1.63-1.19-2.66-3.55-3.1l-4.37-.82a8,8,0,0,1-4.08-1.93,5,5,0,0,1-1.52-3.8,5.47,5.47,0,0,1,2.07-4.35,8.35,8.35,0,0,1,5.58-1.76q6.75,0,8.33,5.27l-3,.64c-.84-2.16-2.59-3.24-5.22-3.24a5.86,5.86,0,0,0-3.23.81,2.53,2.53,0,0,0-1.27,2.26q0,2.3,3.23,2.89l4,.72q6.35,1.16,6.34,6.15a5.49,5.49,0,0,1-2.36,4.61,10.25,10.25,0,0,1-6.27,1.75Q260.61,138.57,258.86,132.63Z"/><path class="cls-1" d="M308.74,138H305.4l-6.06-11.56-4.49,5.16V138h-3.22V110h3.22V128l9.62-10.66h3.45l-6.47,7.27Z"/><path class="cls-1" d="M327.93,138H325v-4q-2.2,4.53-6.59,4.53a6.24,6.24,0,0,1-5-2.09,8.82,8.82,0,0,1-1.81-5.95V117.29h3.22v13.22c0,2.05.42,3.47,1.28,4.24a4.11,4.11,0,0,0,2.82,1.16,4.86,4.86,0,0,0,2.82-.88,6.79,6.79,0,0,0,2.1-2.52,7.62,7.62,0,0,0,.84-3.55V117.29h3.22Z"/><path class="cls-1" d="M350.69,138h-3V124.69c0-1.91-.42-3.26-1.25-4a4.29,4.29,0,0,0-3-1.17,5.23,5.23,0,0,0-4.13,2,7.76,7.76,0,0,0-1.67,5.19V138h-3.22V117.29h3v3.81c1.68-2.92,3.86-4.39,6.54-4.39a6.45,6.45,0,0,1,3.94,1.2,6.33,6.33,0,0,1,2.24,2.7,16.5,16.5,0,0,1,.6,5.41Z"/><path class="cls-1" d="M373.32,110v28H370.4v-3.55a7,7,0,0,1-6.55,4.12,7.21,7.21,0,0,1-6-3,12.32,12.32,0,0,1-2.34-7.71,13.14,13.14,0,0,1,2.31-7.94,7.28,7.28,0,0,1,6.16-3.17,7.16,7.16,0,0,1,6.09,3.41V110Zm-3.22,15.27a5.88,5.88,0,0,0-1.66-4.36,5.33,5.33,0,0,0-3.88-1.64,4.7,4.7,0,0,0-3.95,2.13,10.07,10.07,0,0,0-1.55,6,11.59,11.59,0,0,0,1.43,6.33,4.45,4.45,0,0,0,3.91,2.18,5.22,5.22,0,0,0,4-1.89,6.35,6.35,0,0,0,1.73-4.43Z"/><path class="cls-1" d="M393.43,131.83l3,.61a8.44,8.44,0,0,1-3.2,4.39,9.23,9.23,0,0,1-5.6,1.74,8.71,8.71,0,0,1-6.87-3,13,13,0,0,1,.1-15.83,8.81,8.81,0,0,1,6.85-3.05,8.27,8.27,0,0,1,6.53,2.81c1.65,1.88,2.49,4.68,2.54,8.41H381.72q0,4.69,2,6.34a6.42,6.42,0,0,0,4.16,1.64Q391.81,135.91,393.43,131.83Zm-.18-6.3a9,9,0,0,0-.58-3.1,5.18,5.18,0,0,0-1.8-2.3,4.94,4.94,0,0,0-3.06-1,5.47,5.47,0,0,0-4.07,1.73,7.08,7.08,0,0,0-1.87,4.63Z"/><path class="cls-1" d="M417.86,138h-3.22V125.43a14.32,14.32,0,0,0-.28-3.32,3.47,3.47,0,0,0-1.31-1.92,3.78,3.78,0,0,0-2.39-.81,5.18,5.18,0,0,0-4.15,2,8.23,8.23,0,0,0-1.67,5.43V138h-3.22V110h3.22V121.1c1.46-2.92,3.55-4.39,6.27-4.39a7.1,7.1,0,0,1,3.25.72,5.51,5.51,0,0,1,2.19,1.89,7.6,7.6,0,0,1,1,2.3,17.75,17.75,0,0,1,.28,3.81Z"/><path class="cls-1" d="M427.62,110v3.59h-3.47V110Zm-.1,7.28V138H424.3V117.29Z"/><path class="cls-1" d="M431.15,132.63l3.07-.64q1,3.91,6.48,3.92a6.17,6.17,0,0,0,3.41-.9,2.86,2.86,0,0,0,1.39-2.54q0-2.44-3.55-3.1l-4.36-.82a8,8,0,0,1-4.08-1.93,5,5,0,0,1-1.52-3.8,5.47,5.47,0,0,1,2.07-4.35,8.35,8.35,0,0,1,5.58-1.76q6.75,0,8.32,5.27l-2.95.64q-1.27-3.24-5.23-3.24a5.88,5.88,0,0,0-3.23.81,2.54,2.54,0,0,0-1.26,2.26q0,2.3,3.22,2.89l4,.72q6.33,1.16,6.34,6.15a5.49,5.49,0,0,1-2.36,4.61,10.28,10.28,0,0,1-6.28,1.75Q432.89,138.57,431.15,132.63Z"/><path class="cls-1" d="M462.81,135.81v2.54a22.8,22.8,0,0,1-2.95.22q-6,0-6-6.28V119.81h-3.67v-2.52h3.67l.14-5.21,3-.29v5.5h4.63v2.52H457v13c0,2.13,1.1,3.2,3.32,3.2A15.78,15.78,0,0,0,462.81,135.81Z"/><path class="cls-1" d="M473.13,138.57a7.86,7.86,0,0,1-6.66-3.16,12.63,12.63,0,0,1-2.39-7.84,11.29,11.29,0,0,1,2.69-7.9,8.67,8.67,0,0,1,6.69-3,8.17,8.17,0,0,1,6.75,3.11,12.11,12.11,0,0,1,2.47,7.77A11.59,11.59,0,0,1,480,135.5,8.7,8.7,0,0,1,473.13,138.57Zm.24-2.66a5.15,5.15,0,0,0,4.13-2c1.1-1.36,1.66-3.46,1.66-6.32s-.58-5-1.75-6.24a5.3,5.3,0,0,0-4.08-1.94,5.12,5.12,0,0,0-4.06,2q-1.66,1.95-1.66,6.2c0,3,.55,5.14,1.66,6.43A5.21,5.21,0,0,0,473.37,135.91Z"/><path class="cls-1" d="M490.74,138h-3.22V117.29h2.83v4.84q1.5-3.43,3-4.44a5.42,5.42,0,0,1,3.08-1c.33,0,.76,0,1.28.08v3.08h-.66a5.66,5.66,0,0,0-4.43,2,8.11,8.11,0,0,0-1.89,5.23Z"/><path class="cls-1" d="M504.69,110v3.59h-3.47V110Zm-.11,7.28V138h-3.21V117.29Z"/><path class="cls-1" d="M524.68,131.83l3,.61a8.44,8.44,0,0,1-3.2,4.39,9.23,9.23,0,0,1-5.6,1.74,8.71,8.71,0,0,1-6.87-3,13,13,0,0,1,.1-15.83,8.81,8.81,0,0,1,6.85-3.05,8.28,8.28,0,0,1,6.53,2.81c1.65,1.88,2.49,4.68,2.54,8.41H513q0,4.69,2,6.34a6.42,6.42,0,0,0,4.16,1.64Q523.06,135.91,524.68,131.83Zm-.18-6.3a9,9,0,0,0-.58-3.1,5.18,5.18,0,0,0-1.8-2.3,4.94,4.94,0,0,0-3.06-1A5.47,5.47,0,0,0,515,120.9a7.08,7.08,0,0,0-1.87,4.63Z"/><path class="cls-1" d="M549.19,138h-3V124.69c0-1.91-.41-3.26-1.25-4a4.26,4.26,0,0,0-3-1.17,5.21,5.21,0,0,0-4.13,2,7.71,7.71,0,0,0-1.68,5.19V138h-3.21V117.29h3v3.81c1.68-2.92,3.86-4.39,6.54-4.39a6.48,6.48,0,0,1,4,1.2,6.3,6.3,0,0,1,2.23,2.7,16.16,16.16,0,0,1,.61,5.41Z"/><path class="cls-1" d="M240.12,188.4h-3.41L222.23,164l.05,1.84c0,.7.06,1.29.06,1.76v20.8h-2.83v-28h4.39l13.53,22.81,0-1.95c0-.76,0-1.44,0-2V160.41h2.77Z"/><path class="cls-1" d="M254.25,189a7.87,7.87,0,0,1-6.66-3.16A12.63,12.63,0,0,1,245.2,178a11.29,11.29,0,0,1,2.69-7.9,8.67,8.67,0,0,1,6.69-3,8.16,8.16,0,0,1,6.75,3.11A12.11,12.11,0,0,1,263.8,178a11.59,11.59,0,0,1-2.66,7.91A8.7,8.7,0,0,1,254.25,189Zm.24-2.66a5.15,5.15,0,0,0,4.13-2c1.1-1.36,1.66-3.46,1.66-6.32s-.58-5-1.75-6.24a5.3,5.3,0,0,0-4.08-1.94,5.12,5.12,0,0,0-4.06,2q-1.66,1.95-1.66,6.2c0,3,.55,5.14,1.66,6.43A5.21,5.21,0,0,0,254.49,186.31Z"/><path class="cls-1" d="M271.86,188.4h-3.22V167.69h2.83v4.84q1.5-3.43,3-4.44a5.42,5.42,0,0,1,3.08-1c.33,0,.76,0,1.28.08v3.08h-.66a5.66,5.66,0,0,0-4.43,2,8.09,8.09,0,0,0-1.89,5.23Z"/><path class="cls-1" d="M279.94,183l3.08-.64q1,3.92,6.48,3.92a6.13,6.13,0,0,0,3.4-.9,2.86,2.86,0,0,0,1.4-2.54q0-2.44-3.55-3.1l-4.37-.82A8,8,0,0,1,282.3,177a5,5,0,0,1-1.52-3.8,5.45,5.45,0,0,1,2.08-4.35,8.34,8.34,0,0,1,5.57-1.76q6.75,0,8.33,5.27l-2.95.64q-1.28-3.24-5.23-3.24a5.86,5.86,0,0,0-3.23.81,2.54,2.54,0,0,0-1.26,2.26q0,2.29,3.22,2.89l4,.72q6.33,1.15,6.33,6.15a5.47,5.47,0,0,1-2.36,4.61,10.25,10.25,0,0,1-6.27,1.75Q281.68,189,279.94,183Z"/><path class="cls-1" d="M319.32,188.4H316l-6.05-11.57-4.5,5.17v6.4h-3.22v-28h3.22v17.94l9.63-10.66h3.44L312,175Z"/><path class="cls-1" d="M354,188.4h-3.51V175.07h-13V188.4H334v-28h3.51V172h13V160.41H354Z"/><path class="cls-1" d="M375,167.69l-8.3,23.13c-1.21,3.34-3.13,5-5.77,5a10.13,10.13,0,0,1-2.77-.43v-2.52a9.91,9.91,0,0,0,2.15.29,3.9,3.9,0,0,0,2.58-.88c.69-.59,1.37-2,2.06-4.3l-7.16-20.29H361l5.56,15.56,5.66-15.56Z"/><path class="cls-1" d="M394.36,160.41v28h-2.92v-3.55a7,7,0,0,1-6.55,4.12,7.21,7.21,0,0,1-6-3,12.32,12.32,0,0,1-2.34-7.71,13.14,13.14,0,0,1,2.31-7.94,7.28,7.28,0,0,1,6.16-3.17,7.16,7.16,0,0,1,6.09,3.41V160.41Zm-3.22,15.27a5.88,5.88,0,0,0-1.66-4.36,5.33,5.33,0,0,0-3.88-1.64,4.7,4.7,0,0,0-4,2.13,10.07,10.07,0,0,0-1.55,6,11.59,11.59,0,0,0,1.43,6.33,4.45,4.45,0,0,0,3.91,2.18,5.22,5.22,0,0,0,4-1.89,6.35,6.35,0,0,0,1.73-4.43Z"/><path class="cls-1" d="M404,188.4H400.8V167.69h2.83v4.84q1.49-3.43,3-4.44a5.43,5.43,0,0,1,3.09-1c.32,0,.75,0,1.27.08v3.08h-.66a5.66,5.66,0,0,0-4.43,2,8.08,8.08,0,0,0-1.88,5.23Z"/><path class="cls-1" d="M421.3,189a7.85,7.85,0,0,1-6.65-3.16,12.63,12.63,0,0,1-2.39-7.84,11.25,11.25,0,0,1,2.69-7.9,8.67,8.67,0,0,1,6.68-3,8.18,8.18,0,0,1,6.76,3.11,12.11,12.11,0,0,1,2.47,7.77,11.6,11.6,0,0,1-2.67,7.91A8.68,8.68,0,0,1,421.3,189Zm.25-2.66a5.13,5.13,0,0,0,4.12-2c1.11-1.36,1.66-3.46,1.66-6.32s-.58-5-1.74-6.24a5.3,5.3,0,0,0-4.08-1.94,5.12,5.12,0,0,0-4.06,2q-1.67,1.95-1.66,6.2c0,3,.55,5.14,1.66,6.43A5.2,5.2,0,0,0,421.55,186.31Z"/><path class="cls-1" d="M452.86,176.65v2.5H443.6v-2.5Z"/><path class="cls-1" d="M471,188.4h-3.5v-28h17.14v3.07H471v8.84h11.3v2.83H471Z"/><path class="cls-1" d="M503.4,188.4h-2.92v-4q-2.21,4.53-6.59,4.53a6.24,6.24,0,0,1-5-2.09,8.87,8.87,0,0,1-1.81-5.95V167.69h3.22v13.22c0,2.05.43,3.47,1.28,4.24a4.15,4.15,0,0,0,2.82,1.16,4.86,4.86,0,0,0,2.82-.88,6.79,6.79,0,0,0,2.1-2.52,7.5,7.5,0,0,0,.85-3.55V167.69h3.22Z"/><path class="cls-1" d="M513.06,188.4h-3.22v-28h3.22Z"/><path class="cls-1" d="M522.71,188.4h-3.22v-28h3.22Z"/><path class="cls-1" d="M542.87,188.4h-3.22V167.69h2.83v4.84q1.5-3.43,3-4.44a5.43,5.43,0,0,1,3.09-1c.32,0,.75,0,1.27.08v3.08h-.66a5.66,5.66,0,0,0-4.43,2,8.09,8.09,0,0,0-1.89,5.23Z"/><path class="cls-1" d="M569.8,188.4h-2.91v-4c-1.48,3-3.67,4.53-6.6,4.53a6.23,6.23,0,0,1-5-2.09,8.82,8.82,0,0,1-1.81-5.95V167.69h3.22v13.22c0,2.05.42,3.47,1.28,4.24a4.11,4.11,0,0,0,2.82,1.16,4.86,4.86,0,0,0,2.82-.88,6.79,6.79,0,0,0,2.1-2.52,7.62,7.62,0,0,0,.84-3.55V167.69h3.22Z"/><path class="cls-1" d="M573.45,183l3.08-.64q1,3.92,6.48,3.92a6.13,6.13,0,0,0,3.4-.9,2.86,2.86,0,0,0,1.4-2.54c0-1.63-1.19-2.66-3.55-3.1l-4.37-.82a8,8,0,0,1-4.08-1.93,5,5,0,0,1-1.52-3.8,5.47,5.47,0,0,1,2.07-4.35,8.35,8.35,0,0,1,5.58-1.76q6.75,0,8.33,5.27l-3,.64c-.84-2.16-2.59-3.24-5.23-3.24a5.91,5.91,0,0,0-3.23.81,2.54,2.54,0,0,0-1.26,2.26c0,1.53,1.08,2.49,3.22,2.89l4,.72q6.35,1.15,6.34,6.15a5.49,5.49,0,0,1-2.36,4.61,10.25,10.25,0,0,1-6.27,1.75Q575.19,189,573.45,183Z"/><path class="cls-1" d="M605.12,186.21v2.54a22.94,22.94,0,0,1-3,.22q-6,0-6-6.28V170.21h-3.67v-2.52h3.67l.15-5.21,3-.29v5.5h4.64v2.52h-4.64v13q0,3.2,3.32,3.2A15.9,15.9,0,0,0,605.12,186.21Z"/><path class="cls-1" d="M625,188.4h-3V175.09c0-1.91-.41-3.26-1.25-4a4.26,4.26,0,0,0-3-1.17,5.24,5.24,0,0,0-4.14,2,7.76,7.76,0,0,0-1.67,5.19V188.4h-3.22V167.69h3v3.81c1.68-2.92,3.86-4.39,6.54-4.39a6.5,6.5,0,0,1,4,1.2,6.37,6.37,0,0,1,2.23,2.7,16.43,16.43,0,0,1,.61,5.41Z"/><path class="cls-1" d="M634.73,160.41V164h-3.47v-3.59Zm-.1,7.28V188.4h-3.22V167.69Z"/><path class="cls-1" d="M657.37,188.4h-3V175.09c0-1.91-.41-3.26-1.25-4a4.26,4.26,0,0,0-3-1.17,5.21,5.21,0,0,0-4.13,2,7.71,7.71,0,0,0-1.68,5.19V188.4H641V167.69h3v3.81c1.68-2.92,3.86-4.39,6.54-4.39a6.48,6.48,0,0,1,3.95,1.2,6.3,6.3,0,0,1,2.23,2.7,16.16,16.16,0,0,1,.61,5.41Z"/><path class="cls-1" d="M680.73,164.45V167a5.84,5.84,0,0,0-3,.51,2.7,2.7,0,0,0-1,1.85,7.47,7.47,0,0,1,2,5,6.4,6.4,0,0,1-2.17,4.86,8.12,8.12,0,0,1-5.81,2,7.13,7.13,0,0,1-1.41-.12,11,11,0,0,0-1.42-.23,2.51,2.51,0,0,0-1.33.55,1.64,1.64,0,0,0-.78,1.4,1.52,1.52,0,0,0,1.13,1.6,23.68,23.68,0,0,0,5.31.47,29.56,29.56,0,0,1,5.24.49,5.29,5.29,0,0,1,2.86,1.68,4.6,4.6,0,0,1,1.17,3.19q0,5.93-10.42,5.92c-3.3,0-5.7-.49-7.21-1.49a4.54,4.54,0,0,1-2.26-4,4.18,4.18,0,0,1,3.15-4.15,3.91,3.91,0,0,1-2-3.34c0-1.59,1-2.82,2.87-3.66a6.76,6.76,0,0,1-2.68-5.48,6.33,6.33,0,0,1,2.29-5,8.34,8.34,0,0,1,5.6-2,10.13,10.13,0,0,1,4.25.88,4,4,0,0,1,1.42-2.81,6.08,6.08,0,0,1,3.4-.77C680.08,164.41,680.34,164.42,680.73,164.45ZM667,187.56c-1.51.65-2.26,1.61-2.26,2.85a2.7,2.7,0,0,0,1.86,2.45,11.16,11.16,0,0,0,4.73.87,15.18,15.18,0,0,0,4.88-.75c1.47-.5,2.21-1.34,2.21-2.53a2.07,2.07,0,0,0-.66-1.58,3.19,3.19,0,0,0-1.79-.78,39.34,39.34,0,0,0-4-.24C669.78,187.79,668.11,187.7,667,187.56Zm3.85-8.76a4.6,4.6,0,0,0,3.35-1.26,4.37,4.37,0,0,0,1.29-3.27,4.43,4.43,0,0,0-1.35-3.35,4.47,4.47,0,0,0-3.25-1.31,4.86,4.86,0,0,0-3.24,1.22,4.9,4.9,0,0,0-.14,6.73A4.57,4.57,0,0,0,670.88,178.8Z"/><path class="cls-1" d="M698.26,160.41V164H694.8v-3.59Zm-.1,7.28V188.4h-3.22V167.69Z"/><path class="cls-1" d="M712.29,183l3.08-.64q1,3.92,6.48,3.92a6.13,6.13,0,0,0,3.4-.9,2.86,2.86,0,0,0,1.39-2.54q0-2.44-3.55-3.1l-4.36-.82a8,8,0,0,1-4.08-1.93,5,5,0,0,1-1.52-3.8,5.47,5.47,0,0,1,2.07-4.35,8.35,8.35,0,0,1,5.58-1.76q6.75,0,8.33,5.27l-3,.64q-1.27-3.24-5.23-3.24a5.88,5.88,0,0,0-3.23.81,2.54,2.54,0,0,0-1.26,2.26q0,2.29,3.22,2.89l4,.72q6.34,1.15,6.34,6.15a5.49,5.49,0,0,1-2.36,4.61,10.26,10.26,0,0,1-6.28,1.75Q714,189,712.29,183Z"/><path class="cls-1" d="M751.66,188.4h-3.33l-6.06-11.57L737.78,182v6.4h-3.22v-28h3.22v17.94l9.62-10.66h3.44L744.37,175Z"/><path class="cls-1" d="M769.82,167.69l-8.31,23.13c-1.2,3.34-3.12,5-5.76,5a10.07,10.07,0,0,1-2.77-.43v-2.52a9.91,9.91,0,0,0,2.15.29,3.87,3.87,0,0,0,2.57-.88c.69-.59,1.38-2,2.07-4.3l-7.17-20.29h3.27l5.57,15.56,5.66-15.56Z"/><path class="cls-1" d="M786.12,182.23l3,.61a8.38,8.38,0,0,1-3.2,4.39,9.21,9.21,0,0,1-5.6,1.74,8.71,8.71,0,0,1-6.87-3,11.42,11.42,0,0,1-2.62-7.83,11.58,11.58,0,0,1,2.72-8,8.83,8.83,0,0,1,6.85-3,8.3,8.3,0,0,1,6.54,2.81c1.64,1.87,2.49,4.68,2.53,8.41H774.41c0,3.13.65,5.24,2,6.34a6.42,6.42,0,0,0,4.16,1.64Q784.5,186.31,786.12,182.23Zm-.19-6.3a9.25,9.25,0,0,0-.57-3.1,5.27,5.27,0,0,0-1.81-2.3,4.89,4.89,0,0,0-3-1,5.45,5.45,0,0,0-4.07,1.73,7.09,7.09,0,0,0-1.88,4.63Z"/><path class="cls-1" d="M810.62,188.4h-3V175.09c0-1.91-.42-3.26-1.25-4a4.3,4.3,0,0,0-3-1.17,5.21,5.21,0,0,0-4.13,2,7.76,7.76,0,0,0-1.67,5.19V188.4H794.3V167.69h3v3.81c1.68-2.92,3.87-4.39,6.54-4.39A6.64,6.64,0,0,1,810,171a16.5,16.5,0,0,1,.6,5.41Z"/></svg>