<svg id="Layer_1" data-name="Layer 1" xmlns="http://www.w3.org/2000/svg" viewBox="0 0 980 300"><defs><style>.cls-1{fill:#fff;}</style></defs><title>text</title><path class="cls-1" d="M431.49,134H428V120.67H415V134h-3.5V106H415v11.58h13V106h3.5Z"/><path class="cls-1" d="M451.88,127.83l3,.61a8.45,8.45,0,0,1-3.2,4.4,9.27,9.27,0,0,1-5.6,1.73,8.71,8.71,0,0,1-6.87-3,11.42,11.42,0,0,1-2.62-7.83,11.54,11.54,0,0,1,2.73-8,8.8,8.8,0,0,1,6.85-3.05,8.29,8.29,0,0,1,6.53,2.81c1.64,1.88,2.49,4.68,2.53,8.41H440.17c0,3.13.65,5.24,2,6.34a6.42,6.42,0,0,0,4.16,1.64Q450.26,131.91,451.88,127.83Zm-.19-6.3a9,9,0,0,0-.57-3.1,5.27,5.27,0,0,0-1.81-2.3,4.89,4.89,0,0,0-3.05-1,5.45,5.45,0,0,0-4.07,1.73,7.09,7.09,0,0,0-1.88,4.63Z"/><path class="cls-1" d="M476.38,134h-3V120.69c0-1.91-.42-3.26-1.25-4a4.3,4.3,0,0,0-3-1.17,5.23,5.23,0,0,0-4.13,2,7.76,7.76,0,0,0-1.67,5.19V134h-3.22V113.29h3v3.81c1.69-2.92,3.87-4.39,6.55-4.39a6.45,6.45,0,0,1,3.94,1.2,6.33,6.33,0,0,1,2.24,2.7,16.5,16.5,0,0,1,.6,5.41Z"/><path class="cls-1" d="M499.74,110.05v2.56a5.82,5.82,0,0,0-3,.51,2.7,2.7,0,0,0-1,1.85,7.51,7.51,0,0,1,2,5,6.43,6.43,0,0,1-2.16,4.86,8.12,8.12,0,0,1-5.81,2,7.31,7.31,0,0,1-1.42-.12,10.69,10.69,0,0,0-1.41-.23,2.54,2.54,0,0,0-1.34.55,1.64,1.64,0,0,0-.78,1.4,1.53,1.53,0,0,0,1.13,1.6,23.68,23.68,0,0,0,5.31.47,29.35,29.35,0,0,1,5.24.49,5.25,5.25,0,0,1,2.86,1.68,4.6,4.6,0,0,1,1.17,3.19q0,5.93-10.41,5.92c-3.3,0-5.7-.49-7.21-1.49a4.55,4.55,0,0,1-2.27-4,4.16,4.16,0,0,1,3.16-4.14,3.93,3.93,0,0,1-2-3.35c0-1.59,1-2.82,2.87-3.66a6.77,6.77,0,0,1-2.69-5.48,6.34,6.34,0,0,1,2.3-5,8.33,8.33,0,0,1,5.6-2,10.08,10.08,0,0,1,4.24.88,4,4,0,0,1,1.43-2.81,6,6,0,0,1,3.39-.77C499.09,110,499.36,110,499.74,110.05ZM486,133.16q-2.25,1-2.25,2.85a2.7,2.7,0,0,0,1.85,2.45,11.2,11.2,0,0,0,4.73.87,15.1,15.1,0,0,0,4.88-.75c1.48-.5,2.22-1.34,2.22-2.53a2.07,2.07,0,0,0-.66-1.58,3.25,3.25,0,0,0-1.79-.78,39.56,39.56,0,0,0-4-.24C488.79,133.39,487.12,133.3,486,133.16Zm3.86-8.76a4.57,4.57,0,0,0,3.34-1.26,4.37,4.37,0,0,0,1.29-3.27,4.42,4.42,0,0,0-1.34-3.35,4.51,4.51,0,0,0-3.25-1.31,4.82,4.82,0,0,0-3.24,1.22,4.87,4.87,0,0,0-.14,6.73A4.55,4.55,0,0,0,489.9,124.4Z"/><path class="cls-1" d="M517.13,127.83l3,.61a8.5,8.5,0,0,1-3.2,4.4,9.29,9.29,0,0,1-5.6,1.73,8.71,8.71,0,0,1-6.87-3,13,13,0,0,1,.1-15.83,8.81,8.81,0,0,1,6.85-3.05,8.27,8.27,0,0,1,6.53,2.81q2.47,2.82,2.54,8.41H505.42q0,4.69,2,6.34a6.44,6.44,0,0,0,4.16,1.64Q515.51,131.91,517.13,127.83Zm-.18-6.3a9.25,9.25,0,0,0-.57-3.1,5.27,5.27,0,0,0-1.81-2.3,4.94,4.94,0,0,0-3.06-1,5.47,5.47,0,0,0-4.07,1.73,7.08,7.08,0,0,0-1.87,4.63Z"/><path class="cls-1" d="M528.54,134h-3.22V113.29h2.83v4.84c1-2.29,2-3.77,3-4.44a5.45,5.45,0,0,1,3.09-1c.32,0,.75,0,1.27.08v3.08h-.66a5.66,5.66,0,0,0-4.43,2,8.1,8.1,0,0,0-1.88,5.23Z"/><path class="cls-1" d="M553,106v3.59h-3.46V106Zm-.1,7.28V134h-3.22V113.29Z"/><path class="cls-1" d="M576.4,134h-3.34l-6-11.56-4.49,5.16V134H559.3V106h3.22V124l9.62-10.66h3.44l-6.47,7.27Z"/><path class="cls-1" d="M597.44,134H594.1l-6.05-11.56-4.49,5.16V134h-3.22V106h3.22V124l9.62-10.66h3.44l-6.47,7.27Z"/><path class="cls-1" d="M614.13,127.83l3,.61a8.45,8.45,0,0,1-3.2,4.4,9.29,9.29,0,0,1-5.6,1.73,8.71,8.71,0,0,1-6.87-3,11.42,11.42,0,0,1-2.62-7.83,11.58,11.58,0,0,1,2.72-8,8.83,8.83,0,0,1,6.85-3.05,8.3,8.3,0,0,1,6.54,2.81c1.64,1.88,2.49,4.68,2.53,8.41H602.42q0,4.69,2,6.34a6.45,6.45,0,0,0,4.17,1.64C611.2,131.91,613.05,130.55,614.13,127.83Zm-.18-6.3a9.25,9.25,0,0,0-.57-3.1,5.27,5.27,0,0,0-1.81-2.3,4.91,4.91,0,0,0-3.05-1,5.45,5.45,0,0,0-4.07,1.73,7.09,7.09,0,0,0-1.88,4.63Z"/><path class="cls-1" d="M649,106v28h-2.91v-3.55a7,7,0,0,1-6.55,4.12,7.22,7.22,0,0,1-6-3,12.32,12.32,0,0,1-2.34-7.71,13.08,13.08,0,0,1,2.32-7.94,7.25,7.25,0,0,1,6.15-3.17,7.13,7.13,0,0,1,6.09,3.41V106Zm-3.22,15.27a5.88,5.88,0,0,0-1.66-4.36,5.33,5.33,0,0,0-3.88-1.64,4.71,4.71,0,0,0-4,2.13,10.07,10.07,0,0,0-1.54,6,11.59,11.59,0,0,0,1.42,6.33,4.45,4.45,0,0,0,3.91,2.18,5.26,5.26,0,0,0,4-1.89,6.39,6.39,0,0,0,1.72-4.43Z"/><path class="cls-1" d="M658.76,106v3.59h-3.47V106Zm-.1,7.28V134h-3.22V113.29Z"/><path class="cls-1" d="M681.4,134h-3V120.69c0-1.91-.42-3.26-1.25-4a4.3,4.3,0,0,0-3-1.17,5.21,5.21,0,0,0-4.13,2,7.71,7.71,0,0,0-1.67,5.19V134h-3.22V113.29h3v3.81c1.68-2.92,3.86-4.39,6.54-4.39a6.48,6.48,0,0,1,3.95,1.2,6.4,6.4,0,0,1,2.24,2.7,16.5,16.5,0,0,1,.6,5.41Z"/><path class="cls-1" d="M701.52,127.83l3,.61a8.39,8.39,0,0,1-3.2,4.4,9.26,9.26,0,0,1-5.59,1.73,8.71,8.71,0,0,1-6.87-3,13,13,0,0,1,.1-15.83,8.81,8.81,0,0,1,6.85-3.05,8.29,8.29,0,0,1,6.53,2.81q2.48,2.82,2.53,8.41H689.81q0,4.69,2,6.34a6.42,6.42,0,0,0,4.16,1.64Q699.9,131.91,701.52,127.83Zm-.19-6.3a8.78,8.78,0,0,0-.57-3.1,5.25,5.25,0,0,0-1.8-2.3,4.94,4.94,0,0,0-3.06-1,5.45,5.45,0,0,0-4.07,1.73,7.09,7.09,0,0,0-1.88,4.63Z"/><path class="cls-1" d="M736.38,106v28h-2.91v-3.55a7,7,0,0,1-6.55,4.12,7.23,7.23,0,0,1-6-3,12.32,12.32,0,0,1-2.34-7.71,13.14,13.14,0,0,1,2.32-7.94,7.26,7.26,0,0,1,6.15-3.17,7.13,7.13,0,0,1,6.09,3.41V106Zm-3.22,15.27a5.84,5.84,0,0,0-1.66-4.36,5.32,5.32,0,0,0-3.87-1.64,4.7,4.7,0,0,0-4,2.13,10.07,10.07,0,0,0-1.55,6,11.59,11.59,0,0,0,1.42,6.33,4.46,4.46,0,0,0,3.91,2.18,5.24,5.24,0,0,0,4-1.89,6.34,6.34,0,0,0,1.72-4.43Z"/><path class="cls-1" d="M746.14,106v3.59h-3.46V106Zm-.1,7.28V134h-3.22V113.29Z"/><path class="cls-1" d="M769.38,110.05v2.56a5.77,5.77,0,0,0-3,.51,2.7,2.7,0,0,0-1,1.85,7.47,7.47,0,0,1,2,5,6.43,6.43,0,0,1-2.16,4.86,8.14,8.14,0,0,1-5.82,2,7.2,7.2,0,0,1-1.41-.12,10.73,10.73,0,0,0-1.42-.23,2.51,2.51,0,0,0-1.33.55,1.64,1.64,0,0,0-.78,1.4,1.53,1.53,0,0,0,1.13,1.6,23.68,23.68,0,0,0,5.31.47,29.56,29.56,0,0,1,5.24.49A5.29,5.29,0,0,1,769,132.7a4.6,4.6,0,0,1,1.17,3.19q0,5.93-10.42,5.92c-3.29,0-5.7-.49-7.21-1.49a4.54,4.54,0,0,1-2.26-4,4.16,4.16,0,0,1,3.15-4.14,3.93,3.93,0,0,1-2-3.35c0-1.59,1-2.82,2.88-3.66a6.75,6.75,0,0,1-2.69-5.48,6.31,6.31,0,0,1,2.3-5,8.3,8.3,0,0,1,5.59-2,10.13,10.13,0,0,1,4.25.88,3.94,3.94,0,0,1,1.43-2.81,6,6,0,0,1,3.39-.77C768.73,110,769,110,769.38,110.05Zm-13.7,23.11c-1.5.66-2.26,1.61-2.26,2.85a2.7,2.7,0,0,0,1.86,2.45,11.16,11.16,0,0,0,4.73.87,15.18,15.18,0,0,0,4.88-.75c1.47-.5,2.21-1.34,2.21-2.53a2.1,2.1,0,0,0-.65-1.58,3.25,3.25,0,0,0-1.8-.78,39.34,39.34,0,0,0-4-.24C758.43,133.39,756.76,133.3,755.68,133.16Zm3.86-8.76a4.59,4.59,0,0,0,3.34-1.26,4.37,4.37,0,0,0,1.29-3.27,4.46,4.46,0,0,0-1.34-3.35,4.51,4.51,0,0,0-3.25-1.31,4.82,4.82,0,0,0-3.24,1.22,4.89,4.89,0,0,0-.15,6.73A4.58,4.58,0,0,0,759.54,124.4Z"/><path class="cls-1" d="M776.41,106v3.59H773V106Zm-.1,7.28V134h-3.22V113.29Z"/><path class="cls-1" d="M792.12,131.81v2.54a22.8,22.8,0,0,1-3,.22q-6,0-6-6.28V115.81h-3.67v-2.52h3.67l.14-5.21,3-.29v5.5h4.63v2.52H786.3v13q0,3.19,3.32,3.2A15.78,15.78,0,0,0,792.12,131.81Z"/><path class="cls-1" d="M811.85,134h-3.18c-.12-.66-.24-1.9-.37-3.73a7.45,7.45,0,0,1-7.26,4.3,7.29,7.29,0,0,1-5.35-1.84,6.07,6.07,0,0,1-1.87-4.44,6.22,6.22,0,0,1,2.67-5.17q2.67-2,9.06-2c.58,0,1.49,0,2.75.08a11.74,11.74,0,0,0-.38-3.56,3.17,3.17,0,0,0-1.61-1.75,6.85,6.85,0,0,0-3.24-.66q-4.89,0-5.7,3.74l-3-.52q1.08-5.72,9.14-5.72,4.29,0,6.09,1.9c1.19,1.26,1.79,3.46,1.79,6.57V130A17.39,17.39,0,0,0,811.85,134Zm-3.55-10.36c-1.31-.08-2.31-.12-3-.12a11.76,11.76,0,0,0-5.93,1.25,4,4,0,0,0-2.11,3.66,3.41,3.41,0,0,0,1.14,2.59,4.59,4.59,0,0,0,3.29,1.07,6.12,6.12,0,0,0,4.79-2.11,7.28,7.28,0,0,0,1.87-5C808.36,124.62,808.34,124.16,808.3,123.64Z"/><path class="cls-1" d="M821.08,134h-3.22V106h3.22Z"/><path class="cls-1" d="M841.2,127.83l3,.61a8.45,8.45,0,0,1-3.2,4.4,9.27,9.27,0,0,1-5.6,1.73,8.71,8.71,0,0,1-6.87-3,11.42,11.42,0,0,1-2.62-7.83,11.54,11.54,0,0,1,2.73-8,8.8,8.8,0,0,1,6.85-3.05,8.29,8.29,0,0,1,6.53,2.81c1.64,1.88,2.49,4.68,2.53,8.41h-15c0,3.13.65,5.24,2,6.34a6.42,6.42,0,0,0,4.16,1.64Q839.58,131.91,841.2,127.83Zm-.19-6.3a9,9,0,0,0-.57-3.1,5.27,5.27,0,0,0-1.81-2.3,4.89,4.89,0,0,0-3-1,5.45,5.45,0,0,0-4.07,1.73,7.09,7.09,0,0,0-1.88,4.63Z"/><path class="cls-1" d="M428.31,184.4H425l-6.06-11.56L414.43,178v6.4h-3.22v-28h3.22v17.94l9.62-10.66h3.44L421,171Z"/><path class="cls-1" d="M448.12,184.4H445a35.34,35.34,0,0,1-.37-3.73,7.47,7.47,0,0,1-7.26,4.3,7.31,7.31,0,0,1-5.36-1.84,6.06,6.06,0,0,1-1.86-4.44,6.24,6.24,0,0,1,2.66-5.17q2.67-2,9.07-2c.57,0,1.49,0,2.75.08a12.07,12.07,0,0,0-.38-3.56,3.2,3.2,0,0,0-1.61-1.75,6.85,6.85,0,0,0-3.24-.66q-4.91,0-5.7,3.74l-3-.52q1.09-5.72,9.15-5.72c2.86,0,4.88.63,6.08,1.9s1.79,3.45,1.79,6.57v8.8A18,18,0,0,0,448.12,184.4ZM444.58,174c-1.32-.08-2.31-.12-3-.12a11.69,11.69,0,0,0-5.92,1.25,4,4,0,0,0-2.12,3.66,3.41,3.41,0,0,0,1.14,2.59,4.61,4.61,0,0,0,3.29,1.07,6.12,6.12,0,0,0,4.79-2.11,7.29,7.29,0,0,0,1.88-5C444.64,175,444.62,174.56,444.58,174Z"/><path class="cls-1" d="M470.46,184.4h-3V171.09c0-1.91-.41-3.26-1.25-4a4.26,4.26,0,0,0-3-1.17,5.24,5.24,0,0,0-4.14,2,7.76,7.76,0,0,0-1.67,5.19V184.4h-3.22V163.69h3v3.81c1.68-2.92,3.86-4.39,6.54-4.39a6.5,6.5,0,0,1,3.95,1.2,6.37,6.37,0,0,1,2.23,2.7,16.16,16.16,0,0,1,.61,5.41Z"/><path class="cls-1" d="M493.1,184.4h-3.18c-.12-.66-.25-1.9-.37-3.73a7.45,7.45,0,0,1-7.26,4.3,7.29,7.29,0,0,1-5.35-1.84,6,6,0,0,1-1.87-4.44,6.22,6.22,0,0,1,2.67-5.17q2.67-2,9.06-2c.58,0,1.49,0,2.75.08a12.07,12.07,0,0,0-.38-3.56,3.17,3.17,0,0,0-1.61-1.75,6.85,6.85,0,0,0-3.24-.66q-4.9,0-5.7,3.74l-3-.52q1.08-5.72,9.14-5.72,4.29,0,6.08,1.9t1.8,6.57v8.8A17.39,17.39,0,0,0,493.1,184.4ZM489.55,174c-1.31-.08-2.31-.12-3-.12a11.73,11.73,0,0,0-5.93,1.25,4,4,0,0,0-2.11,3.66,3.41,3.41,0,0,0,1.14,2.59,4.57,4.57,0,0,0,3.29,1.07,6.13,6.13,0,0,0,4.79-2.11,7.28,7.28,0,0,0,1.87-5C489.61,175,489.59,174.56,489.55,174Z"/><path class="cls-1" d="M502.33,184.4h-3.22v-28h3.22Z"/><path class="cls-1" d="M522.45,178.23l3,.61a8.38,8.38,0,0,1-3.2,4.39,9.23,9.23,0,0,1-5.6,1.74,8.71,8.71,0,0,1-6.87-3,13.07,13.07,0,0,1,.1-15.83,8.81,8.81,0,0,1,6.85-3,8.27,8.27,0,0,1,6.53,2.81q2.47,2.82,2.54,8.41H510.73q0,4.69,2,6.34a6.45,6.45,0,0,0,4.17,1.64Q520.83,182.31,522.45,178.23Zm-.19-6.3a9.25,9.25,0,0,0-.57-3.1,5.27,5.27,0,0,0-1.81-2.3,4.91,4.91,0,0,0-3-1,5.49,5.49,0,0,0-4.08,1.73,7.14,7.14,0,0,0-1.87,4.63Z"/><path class="cls-1" d="M533.85,184.4h-3.22V163.69h2.83v4.84q1.5-3.43,3-4.44a5.48,5.48,0,0,1,3.09-1c.33,0,.75,0,1.27.08v3.08h-.66a5.68,5.68,0,0,0-4.43,2,8.1,8.1,0,0,0-1.88,5.23Z"/><path class="cls-1" d="M582.72,184.4h-3.14V171.52a11.59,11.59,0,0,0-.28-3,3.56,3.56,0,0,0-1.34-1.83,3.82,3.82,0,0,0-2.4-.83,5.06,5.06,0,0,0-3.56,1.69,7,7,0,0,0-1.71,5.16V184.4h-3.12V170.76c0-1.82-.43-3.1-1.3-3.85a4.1,4.1,0,0,0-2.74-1.13,4.61,4.61,0,0,0-3.57,1.76,6.63,6.63,0,0,0-1.51,4.47V184.4H555V163.69h2.77v4q2.31-4.56,6.38-4.56a5.35,5.35,0,0,1,3.79,1.46,6.64,6.64,0,0,1,2,3.51q2.13-5,6.54-5a6,6,0,0,1,3.7,1.21,5.6,5.6,0,0,1,2.07,2.78,15.43,15.43,0,0,1,.49,4.42Z"/><path class="cls-1" d="M602.84,178.23l3,.61a8.38,8.38,0,0,1-3.2,4.39A9.23,9.23,0,0,1,597,185a8.71,8.71,0,0,1-6.87-3,11.42,11.42,0,0,1-2.62-7.83,11.58,11.58,0,0,1,2.72-8,8.83,8.83,0,0,1,6.85-3,8.3,8.3,0,0,1,6.54,2.81c1.64,1.88,2.49,4.68,2.53,8.41h-15q0,4.69,2,6.34a6.45,6.45,0,0,0,4.17,1.64Q601.22,182.31,602.84,178.23Zm-.19-6.3a9.25,9.25,0,0,0-.57-3.1,5.27,5.27,0,0,0-1.81-2.3,4.91,4.91,0,0,0-3-1,5.45,5.45,0,0,0-4.07,1.73,7.09,7.09,0,0,0-1.88,4.63Z"/><path class="cls-1" d="M627.2,156.41v28h-2.91v-3.55a7,7,0,0,1-6.55,4.12,7.22,7.22,0,0,1-6-3,12.32,12.32,0,0,1-2.34-7.71,13.08,13.08,0,0,1,2.32-7.94,7.25,7.25,0,0,1,6.15-3.17,7.13,7.13,0,0,1,6.09,3.41V156.41ZM624,171.68a5.84,5.84,0,0,0-1.66-4.36,5.33,5.33,0,0,0-3.88-1.64,4.71,4.71,0,0,0-4,2.13,10.07,10.07,0,0,0-1.54,6,11.59,11.59,0,0,0,1.42,6.33,4.45,4.45,0,0,0,3.91,2.18,5.26,5.26,0,0,0,4-1.89A6.34,6.34,0,0,0,624,176Z"/><path class="cls-1" d="M647.46,156.41V160H644v-3.59Zm-.1,7.28V184.4h-3.22V163.69Z"/><path class="cls-1" d="M673.67,182.21v2.54a22.93,22.93,0,0,1-2.95.22q-6,0-6-6.28V166.21H661v-2.52h3.67l.14-5.21,3-.29v5.5h4.64v2.52h-4.64v13q0,3.2,3.33,3.2A15.78,15.78,0,0,0,673.67,182.21Z"/><path class="cls-1" d="M680.52,156.41V160h-3.47v-3.59Zm-.1,7.28V184.4H677.2V163.69Z"/><path class="cls-1" d="M703,156.41v28H700.1v-3.55a7,7,0,0,1-6.55,4.12,7.21,7.21,0,0,1-6-3,12.32,12.32,0,0,1-2.34-7.71,13.14,13.14,0,0,1,2.31-7.94,7.28,7.28,0,0,1,6.16-3.17,7.16,7.16,0,0,1,6.09,3.41V156.41Zm-3.22,15.27a5.85,5.85,0,0,0-1.67-4.36,5.29,5.29,0,0,0-3.87-1.64,4.7,4.7,0,0,0-4,2.13,10.07,10.07,0,0,0-1.55,6,11.59,11.59,0,0,0,1.43,6.33,4.44,4.44,0,0,0,3.9,2.18,5.24,5.24,0,0,0,4-1.89A6.35,6.35,0,0,0,699.8,176Z"/><path class="cls-1" d="M723.13,178.23l3,.61a8.38,8.38,0,0,1-3.2,4.39,9.23,9.23,0,0,1-5.6,1.74,8.71,8.71,0,0,1-6.87-3,11.42,11.42,0,0,1-2.62-7.83,11.58,11.58,0,0,1,2.72-8,8.83,8.83,0,0,1,6.85-3,8.3,8.3,0,0,1,6.54,2.81c1.64,1.88,2.49,4.68,2.53,8.41H711.42q0,4.69,2,6.34a6.45,6.45,0,0,0,4.17,1.64C720.2,182.31,722.05,181,723.13,178.23Zm-.18-6.3a9.25,9.25,0,0,0-.57-3.1,5.27,5.27,0,0,0-1.81-2.3,4.91,4.91,0,0,0-3.05-1,5.45,5.45,0,0,0-4.07,1.73,7.09,7.09,0,0,0-1.88,4.63Z"/><path class="cls-1" d="M747.64,184.4h-3V171.09c0-1.91-.42-3.26-1.25-4a4.3,4.3,0,0,0-3-1.17,5.21,5.21,0,0,0-4.13,2,7.71,7.71,0,0,0-1.67,5.19V184.4h-3.22V163.69h3v3.81c1.68-2.92,3.86-4.39,6.54-4.39a6.48,6.48,0,0,1,3.95,1.2A6.4,6.4,0,0,1,747,167a16.5,16.5,0,0,1,.6,5.41Z"/><path class="cls-1" d="M761.87,177.43h-3q0-3.21.09-4a4.93,4.93,0,0,1,.44-1.58,4,4,0,0,1,.84-1.23,12.52,12.52,0,0,1,2.18-1.41,18.67,18.67,0,0,0,2.57-1.63,5,5,0,0,0,1.23-1.62,4.92,4.92,0,0,0,.53-2.26,4.4,4.4,0,0,0-1.7-3.67,6.21,6.21,0,0,0-4-1.34q-5.22,0-6.36,6.05l-3.06-.65q1.54-8.26,9.58-8.27a9.57,9.57,0,0,1,6.62,2.25,7.35,7.35,0,0,1,2.53,5.75q0,4.57-5.25,7.3a9.42,9.42,0,0,0-2.81,1.9,3.53,3.53,0,0,0-.52,2.14Zm.7,2.93v4h-4.14v-4Z"/></svg>