<svg id="Layer_1" data-name="Layer 1" xmlns="http://www.w3.org/2000/svg" viewBox="0 0 980 300"><defs><style>.cls-1{fill:#fff;}</style></defs><title>text</title><path class="cls-1" d="M39,157.92V161H22.5V133h3.59v24.91Z"/><path class="cls-1" d="M59,161H55.8c-.12-.66-.24-1.9-.37-3.73a7.45,7.45,0,0,1-7.26,4.3,7.29,7.29,0,0,1-5.35-1.84A6.07,6.07,0,0,1,41,155.29a6.22,6.22,0,0,1,2.67-5.17q2.67-2,9.06-2c.58,0,1.49,0,2.75.08a11.74,11.74,0,0,0-.38-3.56,3.17,3.17,0,0,0-1.61-1.75,6.85,6.85,0,0,0-3.24-.66q-4.89,0-5.7,3.74l-3-.52q1.08-5.72,9.14-5.72c2.86,0,4.89.64,6.09,1.9s1.79,3.46,1.79,6.57V157A17.39,17.39,0,0,0,59,161Zm-3.55-10.36c-1.31-.08-2.31-.12-3-.12a11.76,11.76,0,0,0-5.93,1.25,4,4,0,0,0-2.11,3.66A3.41,3.41,0,0,0,45.54,158a4.59,4.59,0,0,0,3.29,1.07A6.12,6.12,0,0,0,53.62,157a7.28,7.28,0,0,0,1.87-5C55.49,151.62,55.47,151.16,55.43,150.64Z"/><path class="cls-1" d="M62.2,155.63l3.08-.64q1,3.91,6.48,3.92a6.13,6.13,0,0,0,3.4-.9,2.86,2.86,0,0,0,1.4-2.54c0-1.63-1.19-2.66-3.55-3.1l-4.37-.82a8,8,0,0,1-4.08-1.93,5,5,0,0,1-1.52-3.8,5.48,5.48,0,0,1,2.07-4.35,8.35,8.35,0,0,1,5.58-1.76q6.75,0,8.33,5.27l-3,.64c-.84-2.16-2.59-3.24-5.23-3.24a5.91,5.91,0,0,0-3.23.81,2.54,2.54,0,0,0-1.26,2.26c0,1.53,1.08,2.49,3.22,2.89l4,.72q6.34,1.16,6.34,6.15a5.49,5.49,0,0,1-2.36,4.61,10.25,10.25,0,0,1-6.27,1.75Q63.95,161.57,62.2,155.63Z"/><path class="cls-1" d="M93.86,158.81v2.54a22.68,22.68,0,0,1-3,.22q-6,0-6-6.28V142.81H81.23v-2.52H84.9l.15-5.21,3-.29v5.5h4.63v2.52H88v13q0,3.19,3.32,3.2A15.78,15.78,0,0,0,93.86,158.81Z"/><path class="cls-1" d="M124.22,161h-3V147.69c0-1.91-.42-3.26-1.25-4a4.28,4.28,0,0,0-3-1.17,5.23,5.23,0,0,0-4.14,2,7.76,7.76,0,0,0-1.67,5.19V161h-3.22V140.29h3v3.81c1.68-2.92,3.86-4.39,6.54-4.39a6.5,6.5,0,0,1,3.95,1.2,6.37,6.37,0,0,1,2.23,2.7,16.43,16.43,0,0,1,.61,5.41Z"/><path class="cls-1" d="M144.33,154.83l3,.61a8.5,8.5,0,0,1-3.2,4.4,9.22,9.22,0,0,1-5.6,1.73,8.71,8.71,0,0,1-6.87-3,13.07,13.07,0,0,1,.1-15.83,8.81,8.81,0,0,1,6.85-3,8.27,8.27,0,0,1,6.53,2.81q2.48,2.82,2.54,8.41H132.62q0,4.69,2,6.34a6.45,6.45,0,0,0,4.17,1.64Q142.7,158.91,144.33,154.83Zm-.18-6.3a9.25,9.25,0,0,0-.57-3.1,5.27,5.27,0,0,0-1.81-2.3,4.94,4.94,0,0,0-3.06-1,5.48,5.48,0,0,0-4.07,1.73,7.08,7.08,0,0,0-1.87,4.63Z"/><path class="cls-1" d="M168.7,133v28h-2.91v-3.55a7,7,0,0,1-6.56,4.12,7.21,7.21,0,0,1-6-3,12.32,12.32,0,0,1-2.34-7.71,13.14,13.14,0,0,1,2.31-7.94,7.28,7.28,0,0,1,6.16-3.17,7.13,7.13,0,0,1,6.09,3.41V133Zm-3.22,15.28a5.89,5.89,0,0,0-1.66-4.37,5.33,5.33,0,0,0-3.88-1.64,4.7,4.7,0,0,0-3.95,2.13,10.07,10.07,0,0,0-1.55,6,11.56,11.56,0,0,0,1.43,6.33,4.45,4.45,0,0,0,3.91,2.18,5.22,5.22,0,0,0,4-1.89,6.35,6.35,0,0,0,1.73-4.43Z"/><path class="cls-1" d="M188.86,161h-3.22V140.29h2.83v4.84q1.5-3.44,3-4.44a5.48,5.48,0,0,1,3.09-1c.33,0,.75,0,1.27.08v3.08h-.66a5.68,5.68,0,0,0-4.43,2,8.1,8.1,0,0,0-1.88,5.23Z"/><path class="cls-1" d="M215.68,161H212.5c-.12-.66-.24-1.9-.37-3.73a7.45,7.45,0,0,1-7.26,4.3,7.29,7.29,0,0,1-5.35-1.84,6.07,6.07,0,0,1-1.87-4.44,6.22,6.22,0,0,1,2.67-5.17q2.67-2,9.06-2c.58,0,1.5,0,2.75.08a11.74,11.74,0,0,0-.38-3.56,3.17,3.17,0,0,0-1.61-1.75,6.85,6.85,0,0,0-3.24-.66q-4.89,0-5.7,3.74l-3-.52q1.08-5.72,9.15-5.72c2.85,0,4.88.64,6.08,1.9s1.79,3.46,1.79,6.57V157A17.39,17.39,0,0,0,215.68,161Zm-3.55-10.36c-1.31-.08-2.31-.12-3-.12a11.76,11.76,0,0,0-5.93,1.25,4,4,0,0,0-2.11,3.66,3.41,3.41,0,0,0,1.14,2.59,4.59,4.59,0,0,0,3.29,1.07,6.12,6.12,0,0,0,4.79-2.11,7.28,7.28,0,0,0,1.87-5C212.19,151.62,212.17,151.16,212.13,150.64Z"/><path class="cls-1" d="M224.91,168h-3.22v-27.7h2.91v4q2.19-4.6,6.54-4.6a7,7,0,0,1,5.91,3.07A14.81,14.81,0,0,1,237,158.6a7.23,7.23,0,0,1-6,3,6.85,6.85,0,0,1-6.13-3.71Zm0-20.34v5.84a6.22,6.22,0,0,0,2,3.89,5.18,5.18,0,0,0,3.51,1.53,4.9,4.9,0,0,0,3.74-1.85c1.09-1.23,1.63-3.35,1.63-6.38a10.41,10.41,0,0,0-1.48-6,4.54,4.54,0,0,0-3.91-2.13,4.81,4.81,0,0,0-3.46,1.5A7.28,7.28,0,0,0,224.91,147.65Z"/><path class="cls-1" d="M247.35,168h-3.22v-27.7H247v4q2.19-4.6,6.53-4.6a7,7,0,0,1,5.92,3.07,14.83,14.83,0,0,1-.07,15.82,7.2,7.2,0,0,1-5.94,3,6.85,6.85,0,0,1-6.13-3.71Zm0-20.34v5.84a6.16,6.16,0,0,0,2,3.89,5.21,5.21,0,0,0,3.51,1.53,4.87,4.87,0,0,0,3.74-1.85c1.09-1.23,1.63-3.35,1.63-6.38a10.49,10.49,0,0,0-1.47-6,4.56,4.56,0,0,0-3.92-2.13,4.79,4.79,0,0,0-3.45,1.5A7.2,7.2,0,0,0,247.35,147.65Z"/><path class="cls-1" d="M274,161.57a7.86,7.86,0,0,1-6.66-3.16,12.63,12.63,0,0,1-2.39-7.84,11.29,11.29,0,0,1,2.69-7.9,8.67,8.67,0,0,1,6.68-3,8.18,8.18,0,0,1,6.76,3.11,12.11,12.11,0,0,1,2.47,7.77,11.69,11.69,0,0,1-2.66,7.92A8.73,8.73,0,0,1,274,161.57Zm.24-2.66a5.12,5.12,0,0,0,4.12-2c1.11-1.36,1.66-3.46,1.66-6.32s-.58-4.95-1.74-6.24a5.3,5.3,0,0,0-4.08-1.94,5.12,5.12,0,0,0-4.06,2q-1.67,1.95-1.66,6.2,0,4.5,1.66,6.43A5.2,5.2,0,0,0,274.23,158.91Z"/><path class="cls-1" d="M291.6,161h-3.22V140.29h2.83v4.84q1.5-3.44,3-4.44a5.42,5.42,0,0,1,3.08-1c.33,0,.75,0,1.27.08v3.08h-.65a5.65,5.65,0,0,0-4.43,2,8.05,8.05,0,0,0-1.89,5.23Z"/><path class="cls-1" d="M313,158.81v2.54a22.8,22.8,0,0,1-2.95.22q-6,0-6-6.28V142.81h-3.67v-2.52h3.67l.14-5.21,3-.29v5.5h4.63v2.52h-4.63v13c0,2.13,1.1,3.2,3.32,3.2A15.78,15.78,0,0,0,313,158.81Z"/><path class="cls-1" d="M329.5,154.83l3,.61a8.39,8.39,0,0,1-3.2,4.4,9.19,9.19,0,0,1-5.59,1.73,8.71,8.71,0,0,1-6.87-3,13,13,0,0,1,.1-15.83,8.81,8.81,0,0,1,6.85-3,8.28,8.28,0,0,1,6.53,2.81q2.47,2.82,2.53,8.41h-15q0,4.69,2,6.34a6.42,6.42,0,0,0,4.16,1.64Q327.88,158.91,329.5,154.83Zm-.18-6.3a9,9,0,0,0-.58-3.1,5.25,5.25,0,0,0-1.8-2.3,4.94,4.94,0,0,0-3.06-1,5.45,5.45,0,0,0-4.07,1.73,7.14,7.14,0,0,0-1.88,4.63Z"/><path class="cls-1" d="M354,161h-3V147.69c0-1.91-.41-3.26-1.25-4a4.26,4.26,0,0,0-3-1.17,5.24,5.24,0,0,0-4.14,2,7.76,7.76,0,0,0-1.67,5.19V161h-3.22V140.29h3v3.81c1.68-2.92,3.86-4.39,6.54-4.39a6.5,6.5,0,0,1,3.95,1.2,6.37,6.37,0,0,1,2.23,2.7A16.43,16.43,0,0,1,354,149Z"/><path class="cls-1" d="M378.37,161.57a7.88,7.88,0,0,1-6.66-3.16,12.63,12.63,0,0,1-2.38-7.84,11.29,11.29,0,0,1,2.68-7.9,8.67,8.67,0,0,1,6.69-3,8.18,8.18,0,0,1,6.76,3.11,12.17,12.17,0,0,1,2.47,7.77,11.64,11.64,0,0,1-2.67,7.92A8.71,8.71,0,0,1,378.37,161.57Zm.25-2.66a5.13,5.13,0,0,0,4.12-2c1.11-1.36,1.66-3.46,1.66-6.32s-.58-4.95-1.74-6.24a5.33,5.33,0,0,0-4.08-1.94,5.14,5.14,0,0,0-4.07,2c-1.1,1.3-1.66,3.37-1.66,6.2,0,3,.56,5.14,1.66,6.43A5.22,5.22,0,0,0,378.62,158.91Z"/><path class="cls-1" d="M409.69,137.05v2.56a5.84,5.84,0,0,0-3,.51,2.7,2.7,0,0,0-1,1.85,7.52,7.52,0,0,1,2,5,6.4,6.4,0,0,1-2.17,4.86,8.12,8.12,0,0,1-5.81,2,7.31,7.31,0,0,1-1.42-.12,10.69,10.69,0,0,0-1.41-.23,2.51,2.51,0,0,0-1.33.55,1.64,1.64,0,0,0-.78,1.4,1.52,1.52,0,0,0,1.12,1.6,23.87,23.87,0,0,0,5.32.47,29.56,29.56,0,0,1,5.24.49,5.32,5.32,0,0,1,2.86,1.68,4.6,4.6,0,0,1,1.17,3.19q0,5.93-10.42,5.92-4.95,0-7.21-1.48a4.57,4.57,0,0,1-2.27-4,4.17,4.17,0,0,1,3.16-4.14,3.93,3.93,0,0,1-2-3.35c0-1.59,1-2.82,2.87-3.66a6.76,6.76,0,0,1-2.68-5.48,6.33,6.33,0,0,1,2.29-5,8.33,8.33,0,0,1,5.6-2,10.16,10.16,0,0,1,4.25.88,3.92,3.92,0,0,1,1.42-2.8,6,6,0,0,1,3.4-.78C409,137,409.3,137,409.69,137.05ZM396,160.16c-1.51.66-2.26,1.61-2.26,2.85a2.7,2.7,0,0,0,1.86,2.45,11.12,11.12,0,0,0,4.72.87,15.1,15.1,0,0,0,4.88-.75c1.48-.5,2.22-1.34,2.22-2.53a2.07,2.07,0,0,0-.66-1.58,3.19,3.19,0,0,0-1.79-.78,39.34,39.34,0,0,0-4-.24C398.73,160.39,397.07,160.3,396,160.16Zm3.85-8.76a4.57,4.57,0,0,0,3.34-1.26,4.34,4.34,0,0,0,1.3-3.27,4.45,4.45,0,0,0-1.35-3.35,4.49,4.49,0,0,0-3.25-1.31,4.82,4.82,0,0,0-3.24,1.23,4.89,4.89,0,0,0-.14,6.72A4.57,4.57,0,0,0,399.84,151.4Z"/><path class="cls-1" d="M421.11,155.63l3.07-.64q1,3.91,6.49,3.92a6.16,6.16,0,0,0,3.4-.9,2.86,2.86,0,0,0,1.39-2.54q0-2.44-3.55-3.1l-4.36-.82a8,8,0,0,1-4.08-1.93,5,5,0,0,1-1.52-3.8,5.48,5.48,0,0,1,2.07-4.35,8.35,8.35,0,0,1,5.58-1.76q6.75,0,8.32,5.27l-2.95.64q-1.28-3.24-5.23-3.24a5.88,5.88,0,0,0-3.23.81,2.54,2.54,0,0,0-1.26,2.26q0,2.3,3.22,2.89l4,.72q6.35,1.16,6.34,6.15a5.49,5.49,0,0,1-2.36,4.61,10.26,10.26,0,0,1-6.28,1.75Q422.86,161.57,421.11,155.63Z"/><path class="cls-1" d="M457.06,154.83l3,.61a8.39,8.39,0,0,1-3.2,4.4,9.2,9.2,0,0,1-5.6,1.73,8.71,8.71,0,0,1-6.87-3,11.42,11.42,0,0,1-2.62-7.83,11.54,11.54,0,0,1,2.73-8,8.81,8.81,0,0,1,6.85-3,8.29,8.29,0,0,1,6.53,2.81q2.47,2.82,2.53,8.41h-15c0,3.13.65,5.24,2,6.34a6.42,6.42,0,0,0,4.16,1.64Q455.44,158.91,457.06,154.83Zm-.19-6.3a8.78,8.78,0,0,0-.57-3.1,5.32,5.32,0,0,0-1.8-2.3,4.94,4.94,0,0,0-3.06-1,5.45,5.45,0,0,0-4.07,1.73,7.09,7.09,0,0,0-1.88,4.63Z"/><path class="cls-1" d="M479,161h-3.22V140.29h2.83v4.84q1.5-3.44,3-4.44a5.42,5.42,0,0,1,3.08-1c.33,0,.75,0,1.27.08v3.08h-.65a5.65,5.65,0,0,0-4.43,2,8.05,8.05,0,0,0-1.89,5.23Z"/><path class="cls-1" d="M505.78,161h-3.17a35.34,35.34,0,0,1-.37-3.73,7.47,7.47,0,0,1-7.26,4.3,7.31,7.31,0,0,1-5.36-1.84,6.06,6.06,0,0,1-1.86-4.44,6.24,6.24,0,0,1,2.66-5.17q2.67-2,9.07-2c.57,0,1.49,0,2.75.08a12.07,12.07,0,0,0-.38-3.56,3.2,3.2,0,0,0-1.61-1.75,6.85,6.85,0,0,0-3.24-.66q-4.9,0-5.7,3.74l-3-.52q1.1-5.72,9.15-5.72c2.86,0,4.88.64,6.08,1.9s1.79,3.46,1.79,6.57V157A18,18,0,0,0,505.78,161Zm-3.54-10.36c-1.32-.08-2.31-.12-3-.12a11.69,11.69,0,0,0-5.92,1.25,4,4,0,0,0-2.12,3.66,3.41,3.41,0,0,0,1.14,2.59,4.61,4.61,0,0,0,3.29,1.07,6.12,6.12,0,0,0,4.79-2.11,7.29,7.29,0,0,0,1.88-5C502.3,151.62,502.28,151.16,502.24,150.64Z"/><path class="cls-1" d="M528.12,161h-3V147.69c0-1.91-.41-3.26-1.25-4a4.26,4.26,0,0,0-3-1.17,5.21,5.21,0,0,0-4.13,2,7.71,7.71,0,0,0-1.68,5.19V161h-3.22V140.29h3v3.81c1.68-2.92,3.86-4.39,6.54-4.39a6.48,6.48,0,0,1,3.95,1.2,6.3,6.3,0,0,1,2.23,2.7,16.16,16.16,0,0,1,.61,5.41Z"/><path class="cls-1" d="M551.48,137.05v2.56a5.84,5.84,0,0,0-3,.51,2.7,2.7,0,0,0-1,1.85,7.52,7.52,0,0,1,2,5,6.4,6.4,0,0,1-2.17,4.86,8.12,8.12,0,0,1-5.81,2,7.13,7.13,0,0,1-1.41-.12,11,11,0,0,0-1.42-.23,2.51,2.51,0,0,0-1.33.55,1.64,1.64,0,0,0-.78,1.4,1.52,1.52,0,0,0,1.13,1.6,23.68,23.68,0,0,0,5.31.47,29.56,29.56,0,0,1,5.24.49,5.32,5.32,0,0,1,2.86,1.68,4.6,4.6,0,0,1,1.17,3.19q0,5.93-10.42,5.92-4.95,0-7.21-1.48a4.57,4.57,0,0,1-2.27-4,4.17,4.17,0,0,1,3.16-4.14,3.93,3.93,0,0,1-2-3.35c0-1.59,1-2.82,2.87-3.66a6.76,6.76,0,0,1-2.68-5.48,6.33,6.33,0,0,1,2.29-5,8.33,8.33,0,0,1,5.6-2,10.13,10.13,0,0,1,4.25.88,3.92,3.92,0,0,1,1.42-2.8,6,6,0,0,1,3.4-.78C550.83,137,551.09,137,551.48,137.05Zm-13.7,23.11c-1.51.66-2.26,1.61-2.26,2.85a2.7,2.7,0,0,0,1.86,2.45,11.12,11.12,0,0,0,4.72.87,15.2,15.2,0,0,0,4.89-.75c1.47-.5,2.21-1.34,2.21-2.53a2.07,2.07,0,0,0-.66-1.58,3.19,3.19,0,0,0-1.79-.78,39.34,39.34,0,0,0-4-.24C540.53,160.39,538.86,160.3,537.78,160.16Zm3.85-8.76a4.61,4.61,0,0,0,3.35-1.26,4.37,4.37,0,0,0,1.29-3.27,4.54,4.54,0,0,0-4.6-4.66,4.82,4.82,0,0,0-3.24,1.23,4.89,4.89,0,0,0-.14,6.72A4.57,4.57,0,0,0,541.63,151.4Z"/><path class="cls-1" d="M568.87,154.83l3,.61a8.45,8.45,0,0,1-3.2,4.4,9.2,9.2,0,0,1-5.6,1.73,8.71,8.71,0,0,1-6.87-3,11.42,11.42,0,0,1-2.62-7.83,11.54,11.54,0,0,1,2.73-8,8.8,8.8,0,0,1,6.85-3,8.29,8.29,0,0,1,6.53,2.81c1.64,1.88,2.49,4.68,2.53,8.41H557.16c0,3.13.65,5.24,2,6.34a6.42,6.42,0,0,0,4.16,1.64Q567.25,158.91,568.87,154.83Zm-.19-6.3a9,9,0,0,0-.57-3.1,5.27,5.27,0,0,0-1.81-2.3,4.89,4.89,0,0,0-3-1,5.45,5.45,0,0,0-4.07,1.73,7.09,7.09,0,0,0-1.88,4.63Z"/><path class="cls-1" d="M580.27,161h-3.22V140.29h2.83v4.84q1.5-3.44,3-4.44a5.48,5.48,0,0,1,3.09-1c.33,0,.75,0,1.27.08v3.08h-.65a5.65,5.65,0,0,0-4.43,2,8.05,8.05,0,0,0-1.89,5.23Z"/><path class="cls-1" d="M594.21,133v3.59h-3.46V133Zm-.1,7.28V161h-3.22V140.29Z"/><path class="cls-1" d="M616.85,161h-3V147.69c0-1.91-.42-3.26-1.25-4a4.3,4.3,0,0,0-3-1.17,5.23,5.23,0,0,0-4.13,2,7.76,7.76,0,0,0-1.67,5.19V161h-3.22V140.29h3v3.81c1.69-2.92,3.87-4.39,6.55-4.39a6.45,6.45,0,0,1,3.94,1.2,6.33,6.33,0,0,1,2.24,2.7,16.5,16.5,0,0,1,.6,5.41Z"/><path class="cls-1" d="M640.21,137.05v2.56a5.82,5.82,0,0,0-3,.51,2.74,2.74,0,0,0-1,1.85,7.47,7.47,0,0,1,2,5,6.43,6.43,0,0,1-2.16,4.86,8.12,8.12,0,0,1-5.81,2,7.31,7.31,0,0,1-1.42-.12,10.69,10.69,0,0,0-1.41-.23,2.54,2.54,0,0,0-1.34.55,1.64,1.64,0,0,0-.78,1.4,1.53,1.53,0,0,0,1.13,1.6,23.68,23.68,0,0,0,5.31.47A29.35,29.35,0,0,1,637,158a5.29,5.29,0,0,1,2.86,1.68,4.6,4.6,0,0,1,1.17,3.19q0,5.93-10.41,5.92-4.95,0-7.21-1.48a4.57,4.57,0,0,1-2.27-4,4.16,4.16,0,0,1,3.16-4.14,3.93,3.93,0,0,1-2-3.35c0-1.59,1-2.82,2.87-3.66a6.77,6.77,0,0,1-2.69-5.48,6.34,6.34,0,0,1,2.3-5,8.33,8.33,0,0,1,5.6-2,10.08,10.08,0,0,1,4.24.88,3.93,3.93,0,0,1,1.43-2.8,6,6,0,0,1,3.39-.78C639.56,137,639.83,137,640.21,137.05Zm-13.7,23.11q-2.25,1-2.25,2.85a2.7,2.7,0,0,0,1.85,2.45,11.2,11.2,0,0,0,4.73.87,15.1,15.1,0,0,0,4.88-.75c1.48-.5,2.22-1.34,2.22-2.53a2.07,2.07,0,0,0-.66-1.58,3.25,3.25,0,0,0-1.79-.78,39.56,39.56,0,0,0-4-.24C629.26,160.39,627.59,160.3,626.51,160.16Zm3.86-8.76a4.57,4.57,0,0,0,3.34-1.26,4.37,4.37,0,0,0,1.29-3.27,4.44,4.44,0,0,0-1.34-3.35,4.51,4.51,0,0,0-3.25-1.31,4.79,4.79,0,0,0-3.24,1.23,4.86,4.86,0,0,0-.14,6.72A4.55,4.55,0,0,0,630.37,151.4Z"/><path class="cls-1" d="M670.63,161h-3.18a35.34,35.34,0,0,1-.37-3.73,7.45,7.45,0,0,1-7.26,4.3,7.27,7.27,0,0,1-5.35-1.84,6,6,0,0,1-1.87-4.44,6.22,6.22,0,0,1,2.67-5.17q2.65-2,9.06-2c.57,0,1.49,0,2.75.08a12.07,12.07,0,0,0-.38-3.56,3.17,3.17,0,0,0-1.61-1.75,6.85,6.85,0,0,0-3.24-.66q-4.9,0-5.7,3.74l-3-.52q1.1-5.72,9.15-5.72c2.86,0,4.88.64,6.08,1.9s1.8,3.46,1.8,6.57V157A17.39,17.39,0,0,0,670.63,161Zm-3.55-10.36q-2-.12-3-.12a11.72,11.72,0,0,0-5.92,1.25,4,4,0,0,0-2.12,3.66,3.41,3.41,0,0,0,1.14,2.59,4.61,4.61,0,0,0,3.29,1.07,6.1,6.1,0,0,0,4.79-2.11,7.29,7.29,0,0,0,1.88-5C667.14,151.62,667.12,151.16,667.08,150.64Z"/><path class="cls-1" d="M690.85,140.29,683.69,161h-3.32l-7.43-20.71h3.58l5.77,16.83L688,140.29Z"/><path class="cls-1" d="M722.14,151.59l3.2.71q-2.3,9.27-10.38,9.27a9.65,9.65,0,0,1-8.33-4.28,17.83,17.83,0,0,1-3-10.55q0-6.47,3.16-10.39a10.33,10.33,0,0,1,8.47-3.92q7.88,0,10.11,9l-3.3.65q-1.8-6.69-6.83-6.68a6.5,6.5,0,0,0-5.75,3.1q-2,3.11-2,8.73a14.49,14.49,0,0,0,2.09,8.25,6.4,6.4,0,0,0,5.54,3.11Q720.39,158.6,722.14,151.59Z"/><path class="cls-1" d="M756.72,161h-3.41V136.55L744.23,161h-2.38l-9.19-24.45V161h-3V133h5.19l8.46,22.39L751.59,133h5.13Z"/><path class="cls-1" d="M760.64,153.6l3.15-.72q1.92,5.72,8.27,5.72a7.63,7.63,0,0,0,5-1.41,4.68,4.68,0,0,0,1.68-3.78,3.59,3.59,0,0,0-1.28-2.88,7.23,7.23,0,0,0-3-1.5l-5.6-1.38a14.86,14.86,0,0,1-3.56-1.34,6.58,6.58,0,0,1-2.35-2.44,7.3,7.3,0,0,1-1-3.76,6.73,6.73,0,0,1,2.65-5.59,10.61,10.61,0,0,1,6.78-2.09q7.63,0,10,6.91l-3.18.95a5.65,5.65,0,0,0-2.6-3.73,8.21,8.21,0,0,0-4.37-1.26,7.14,7.14,0,0,0-4.09,1.22,3.91,3.91,0,0,0-1.79,3.44c0,2.07,1.51,3.48,4.54,4.2l5.24,1.23q7.17,1.73,7.18,7.73a7.75,7.75,0,0,1-2.7,6q-2.7,2.42-7.6,2.41Q763.42,161.57,760.64,153.6Z"/><path class="cls-1" d="M795.05,155.63l3.07-.64q1,3.91,6.48,3.92A6.17,6.17,0,0,0,808,158a2.86,2.86,0,0,0,1.39-2.54q0-2.44-3.55-3.1l-4.36-.82a8,8,0,0,1-4.08-1.93,5,5,0,0,1-1.52-3.8,5.48,5.48,0,0,1,2.07-4.35,8.35,8.35,0,0,1,5.58-1.76q6.75,0,8.32,5.27l-3,.64q-1.27-3.24-5.23-3.24a5.88,5.88,0,0,0-3.23.81,2.54,2.54,0,0,0-1.26,2.26q0,2.3,3.22,2.89l4,.72q6.33,1.16,6.34,6.15a5.49,5.49,0,0,1-2.36,4.61,10.28,10.28,0,0,1-6.28,1.75Q796.8,161.57,795.05,155.63Z"/><path class="cls-1" d="M831.54,140.29l-8.31,23.13c-1.2,3.34-3.12,5-5.77,5a10.18,10.18,0,0,1-2.77-.43v-2.52a10.07,10.07,0,0,0,2.16.29,3.87,3.87,0,0,0,2.57-.88q1-.88,2.07-4.3l-7.17-20.29h3.27l5.56,15.56,5.67-15.56Z"/><path class="cls-1" d="M832,155.63,835,155q1,3.91,6.48,3.92a6.13,6.13,0,0,0,3.4-.9,2.86,2.86,0,0,0,1.4-2.54c0-1.63-1.19-2.66-3.55-3.1l-4.37-.82a8,8,0,0,1-4.08-1.93,5,5,0,0,1-1.52-3.8,5.48,5.48,0,0,1,2.07-4.35,8.35,8.35,0,0,1,5.58-1.76q6.75,0,8.33,5.27l-2.95.64c-.85-2.16-2.6-3.24-5.23-3.24a5.86,5.86,0,0,0-3.23.81,2.55,2.55,0,0,0-1.27,2.26q0,2.3,3.23,2.89l4,.72q6.35,1.16,6.34,6.15a5.47,5.47,0,0,1-2.36,4.61,10.25,10.25,0,0,1-6.27,1.75Q833.71,161.57,832,155.63Z"/><path class="cls-1" d="M863.63,158.81v2.54a22.94,22.94,0,0,1-3,.22q-6,0-6-6.28V142.81H851v-2.52h3.67l.15-5.21,3-.29v5.5h4.64v2.52H857.8v13q0,3.19,3.32,3.2A15.9,15.9,0,0,0,863.63,158.81Z"/><path class="cls-1" d="M880.11,154.83l3,.61a8.5,8.5,0,0,1-3.2,4.4,9.22,9.22,0,0,1-5.6,1.73,8.71,8.71,0,0,1-6.87-3,13,13,0,0,1,.1-15.83,8.81,8.81,0,0,1,6.85-3,8.27,8.27,0,0,1,6.53,2.81q2.48,2.82,2.54,8.41H868.4q0,4.69,2,6.34a6.43,6.43,0,0,0,4.17,1.64Q878.48,158.91,880.11,154.83Zm-.18-6.3a9,9,0,0,0-.58-3.1,5.18,5.18,0,0,0-1.8-2.3,4.94,4.94,0,0,0-3.06-1,5.47,5.47,0,0,0-4.07,1.73,7.08,7.08,0,0,0-1.87,4.63Z"/><path class="cls-1" d="M916,161h-3.13V148.12a12.07,12.07,0,0,0-.28-3,3.61,3.61,0,0,0-1.34-1.83,3.86,3.86,0,0,0-2.4-.83,5.1,5.1,0,0,0-3.56,1.69,7,7,0,0,0-1.71,5.16V161H900.5V147.36a4.89,4.89,0,0,0-1.3-3.85,4.1,4.1,0,0,0-2.74-1.13,4.59,4.59,0,0,0-3.57,1.76,6.63,6.63,0,0,0-1.52,4.47V161H888.3V140.29h2.76v4q2.33-4.56,6.38-4.56a5.38,5.38,0,0,1,3.8,1.46,6.64,6.64,0,0,1,2,3.51q2.13-5,6.54-5a6,6,0,0,1,3.7,1.21,5.6,5.6,0,0,1,2.07,2.78,15.85,15.85,0,0,1,.48,4.42Z"/><path class="cls-1" d="M936.16,154.83l3,.61a8.5,8.5,0,0,1-3.2,4.4,9.25,9.25,0,0,1-5.6,1.73,8.71,8.71,0,0,1-6.87-3,13,13,0,0,1,.1-15.83,8.81,8.81,0,0,1,6.85-3,8.28,8.28,0,0,1,6.53,2.81q2.47,2.82,2.53,8.41h-15q0,4.69,2,6.34a6.42,6.42,0,0,0,4.16,1.64Q934.54,158.91,936.16,154.83Zm-.18-6.3a9,9,0,0,0-.58-3.1,5.18,5.18,0,0,0-1.8-2.3,4.94,4.94,0,0,0-3.06-1,5.47,5.47,0,0,0-4.07,1.73,7.08,7.08,0,0,0-1.87,4.63Z"/><path class="cls-1" d="M947.56,161h-3.22V140.29h2.83v4.84q1.5-3.44,3-4.44a5.43,5.43,0,0,1,3.09-1c.32,0,.75,0,1.27.08v3.08h-.66a5.66,5.66,0,0,0-4.43,2,8.16,8.16,0,0,0-1.89,5.23Z"/></svg>