<svg id="Layer_1" data-name="Layer 1" xmlns="http://www.w3.org/2000/svg" viewBox="0 0 980 300"><defs><style>.cls-1{fill:#fff;}</style></defs><title>text</title><path class="cls-1" d="M70.48,162.52H67V149.19H54v13.33H50.48v-28H54v11.59H67V134.52h3.51Z"/><path class="cls-1" d="M92.36,141.8,85.2,162.52H81.88L74.46,141.8H78l5.77,16.84,5.7-16.84Z"/><path class="cls-1" d="M99.42,134.52v3.59H96v-3.59Zm-.11,7.28v20.72H96.09V141.8Z"/><path class="cls-1" d="M109,162.52h-3.22v-28H109Z"/><path class="cls-1" d="M132.5,162.52h-3.34L123.1,151l-4.49,5.17v6.4h-3.22v-28h3.22v17.95l9.62-10.67h3.45l-6.48,7.28Z"/><path class="cls-1" d="M149.19,156.34l3,.62a8.37,8.37,0,0,1-3.2,4.39,9.2,9.2,0,0,1-5.59,1.74,8.72,8.72,0,0,1-6.87-3,13,13,0,0,1,.1-15.82,8.78,8.78,0,0,1,6.85-3.05A8.29,8.29,0,0,1,150,144q2.48,2.81,2.53,8.41H137.48q0,4.7,2,6.33a6.37,6.37,0,0,0,4.16,1.64Q147.57,160.42,149.19,156.34Zm-.19-6.29a8.69,8.69,0,0,0-.57-3.1,5.41,5.41,0,0,0-1.8-2.31,5,5,0,0,0-3.06-.95,5.44,5.44,0,0,0-4.07,1.72,7.14,7.14,0,0,0-1.88,4.64Z"/><path class="cls-1" d="M166.56,160.32v2.54a23.13,23.13,0,0,1-2.95.23q-6,0-6-6.28V144.33h-3.67V141.8h3.67l.14-5.21,3-.28v5.49h4.64v2.53h-4.64v13q0,3.21,3.33,3.21A15.89,15.89,0,0,0,166.56,160.32Z"/><path class="cls-1" d="M197.65,153.1l3.2.72q-2.29,9.27-10.38,9.27a9.66,9.66,0,0,1-8.34-4.29,17.88,17.88,0,0,1-3-10.55q0-6.47,3.16-10.38a10.29,10.29,0,0,1,8.47-3.92q7.88,0,10.11,9l-3.3.66q-1.81-6.69-6.83-6.69A6.51,6.51,0,0,0,185,140q-2,3.1-2,8.72A14.51,14.51,0,0,0,185,157a6.39,6.39,0,0,0,5.53,3.11Q195.91,160.12,197.65,153.1Z"/><path class="cls-1" d="M232.22,162.52h-3.4V138.07l-9.09,24.45h-2.38l-9.18-24.45v24.45h-3v-28h5.19l8.45,22.39,8.26-22.39h5.12Z"/><path class="cls-1" d="M236.14,155.11l3.16-.72q1.9,5.73,8.27,5.73a7.63,7.63,0,0,0,5-1.41,4.68,4.68,0,0,0,1.68-3.78,3.62,3.62,0,0,0-1.28-2.88,7,7,0,0,0-3-1.5l-5.6-1.38a14.27,14.27,0,0,1-3.56-1.35,6.55,6.55,0,0,1-2.35-2.43,7.33,7.33,0,0,1-1-3.76,6.77,6.77,0,0,1,2.64-5.6A10.65,10.65,0,0,1,247,134q7.64,0,10,6.91l-3.18.94a5.64,5.64,0,0,0-2.6-3.72,8.23,8.23,0,0,0-4.37-1.26,7,7,0,0,0-4.09,1.22,3.9,3.9,0,0,0-1.8,3.44q0,3.11,4.55,4.2l5.23,1.23q7.19,1.72,7.18,7.73a7.79,7.79,0,0,1-2.69,6c-1.8,1.61-4.34,2.41-7.6,2.41Q238.93,163.09,236.14,155.11Z"/><path class="cls-1" d="M270.55,157.14l3.08-.63q1,3.92,6.48,3.91a6.17,6.17,0,0,0,3.41-.9,2.84,2.84,0,0,0,1.39-2.54q0-2.43-3.55-3.09l-4.37-.83a8,8,0,0,1-4.08-1.93,5,5,0,0,1-1.51-3.79,5.49,5.49,0,0,1,2.07-4.36,8.33,8.33,0,0,1,5.57-1.75q6.75,0,8.33,5.27l-2.95.63q-1.28-3.24-5.23-3.24a5.88,5.88,0,0,0-3.23.81A2.56,2.56,0,0,0,274.7,147q0,2.29,3.22,2.89l4,.72q6.33,1.15,6.33,6.14a5.47,5.47,0,0,1-2.35,4.61,10.3,10.3,0,0,1-6.28,1.76Q272.29,163.09,270.55,157.14Z"/><path class="cls-1" d="M309.93,162.52h-3.34l-6-11.57-4.49,5.17v6.4h-3.22v-28h3.22v17.95l9.62-10.67h3.44l-6.47,7.28Z"/><path class="cls-1" d="M329.74,162.52h-3.18c-.12-.66-.24-1.9-.37-3.74a7.46,7.46,0,0,1-7.26,4.31,7.29,7.29,0,0,1-5.35-1.85,6,6,0,0,1-1.87-4.44,6.22,6.22,0,0,1,2.67-5.16q2.67-2,9.06-2c.58,0,1.49,0,2.75.08a11.7,11.7,0,0,0-.38-3.56,3.14,3.14,0,0,0-1.61-1.75,6.85,6.85,0,0,0-3.24-.66c-3.26,0-5.17,1.24-5.7,3.73l-3-.51q1.08-5.72,9.14-5.72,4.29,0,6.08,1.9t1.8,6.57v8.8A17.39,17.39,0,0,0,329.74,162.52Zm-3.55-10.36c-1.31-.08-2.31-.12-3-.12a11.65,11.65,0,0,0-5.93,1.25,4,4,0,0,0-2.11,3.66,3.42,3.42,0,0,0,1.14,2.59,4.64,4.64,0,0,0,3.29,1.07,6.12,6.12,0,0,0,4.79-2.12,7.25,7.25,0,0,0,1.87-5C326.25,153.13,326.23,152.68,326.19,152.16Z"/><path class="cls-1" d="M339,162.52h-3.22v-28H339Z"/><path class="cls-1" d="M372.09,134.52v28h-2.91V159a7,7,0,0,1-6.55,4.12,7.23,7.23,0,0,1-6-3.05,12.29,12.29,0,0,1-2.34-7.71,13,13,0,0,1,2.32-7.93,7.25,7.25,0,0,1,6.15-3.17,7.12,7.12,0,0,1,6.09,3.4V134.52Zm-3.22,15.28a5.86,5.86,0,0,0-1.66-4.37,5.37,5.37,0,0,0-3.88-1.64,4.71,4.71,0,0,0-3.95,2.13,10.09,10.09,0,0,0-1.54,6,11.61,11.61,0,0,0,1.42,6.34,4.44,4.44,0,0,0,3.91,2.17,5.25,5.25,0,0,0,4-1.88,6.41,6.41,0,0,0,1.72-4.43Z"/><path class="cls-1" d="M394.83,162.52h-2.91v-4c-1.48,3-3.67,4.53-6.59,4.53a6.27,6.27,0,0,1-5-2.09,8.83,8.83,0,0,1-1.81-6V141.8h3.22V155c0,2.05.42,3.46,1.28,4.24a4.1,4.1,0,0,0,2.82,1.15,4.79,4.79,0,0,0,2.82-.88,6.75,6.75,0,0,0,2.1-2.51,7.66,7.66,0,0,0,.84-3.56V141.8h3.22Z"/><path class="cls-1" d="M427,141.8l-7.16,20.72h-3.32L409,141.8h3.58l5.77,16.84,5.69-16.84Z"/><path class="cls-1" d="M443.72,156.34l3,.62a8.48,8.48,0,0,1-3.2,4.39,9.25,9.25,0,0,1-5.6,1.74,8.72,8.72,0,0,1-6.87-3,13,13,0,0,1,.1-15.82,8.78,8.78,0,0,1,6.85-3.05,8.28,8.28,0,0,1,6.53,2.81q2.48,2.81,2.53,8.41H432q0,4.7,2,6.33a6.37,6.37,0,0,0,4.16,1.64Q442.1,160.42,443.72,156.34Zm-.18-6.29A8.91,8.91,0,0,0,443,147a5.26,5.26,0,0,0-1.8-2.31,5,5,0,0,0-3.06-.95,5.46,5.46,0,0,0-4.07,1.72,7.13,7.13,0,0,0-1.87,4.64Z"/><path class="cls-1" d="M455.12,162.52H451.9v-28h3.22Z"/><path class="cls-1" d="M478.48,138.56v2.57a5.82,5.82,0,0,0-3,.51,2.69,2.69,0,0,0-1,1.84,7.53,7.53,0,0,1,2,5,6.43,6.43,0,0,1-2.16,4.86,8.16,8.16,0,0,1-5.81,2,7.31,7.31,0,0,1-1.42-.12,10.69,10.69,0,0,0-1.41-.23,2.51,2.51,0,0,0-1.34.54,1.66,1.66,0,0,0-.78,1.41,1.53,1.53,0,0,0,1.13,1.6,25.1,25.1,0,0,0,5.31.47,30.56,30.56,0,0,1,5.24.48,5.31,5.31,0,0,1,2.86,1.68,4.6,4.6,0,0,1,1.17,3.19q0,5.92-10.41,5.93-5,0-7.21-1.49a4.56,4.56,0,0,1-2.27-4,4.17,4.17,0,0,1,3.16-4.15,3.92,3.92,0,0,1-2-3.34q0-2.4,2.87-3.67a6.76,6.76,0,0,1-2.69-5.47,6.34,6.34,0,0,1,2.3-5,8.28,8.28,0,0,1,5.6-2,9.93,9.93,0,0,1,4.24.88,4,4,0,0,1,1.43-2.81,6,6,0,0,1,3.39-.78Zm-13.7,23.11c-1.5.66-2.25,1.61-2.25,2.86a2.7,2.7,0,0,0,1.85,2.45,11.2,11.2,0,0,0,4.73.87,15.1,15.1,0,0,0,4.88-.75c1.48-.5,2.22-1.34,2.22-2.53a2.05,2.05,0,0,0-.66-1.58,3.25,3.25,0,0,0-1.79-.78c-.76-.11-2.09-.19-4-.25C467.53,161.91,465.86,161.81,464.78,161.67Zm3.86-8.75a4.57,4.57,0,0,0,3.34-1.26,4.37,4.37,0,0,0,1.29-3.27,4.51,4.51,0,0,0-4.59-4.66,4.82,4.82,0,0,0-3.24,1.22,4.9,4.9,0,0,0-.14,6.73A4.59,4.59,0,0,0,468.64,152.92Z"/><path class="cls-1" d="M495.87,156.34l3,.62a8.48,8.48,0,0,1-3.2,4.39,9.23,9.23,0,0,1-5.6,1.74,8.72,8.72,0,0,1-6.87-3,13.05,13.05,0,0,1,.1-15.82,8.78,8.78,0,0,1,6.85-3.05,8.27,8.27,0,0,1,6.53,2.81q2.47,2.81,2.54,8.41H484.16q0,4.7,2,6.33a6.4,6.4,0,0,0,4.17,1.64Q494.25,160.42,495.87,156.34Zm-.18-6.29a9.16,9.16,0,0,0-.57-3.1,5.36,5.36,0,0,0-1.81-2.31,5,5,0,0,0-3.06-.95,5.47,5.47,0,0,0-4.07,1.72,7.13,7.13,0,0,0-1.87,4.64Z"/><path class="cls-1" d="M523.15,141.8v2.53h-4.92v18.19H515V144.33h-3.53V141.8H515q.07-5,1.91-6.42a7.12,7.12,0,0,1,4.49-1.43,16.73,16.73,0,0,1,3,.29v2.56a8,8,0,0,0-2-.27,4.47,4.47,0,0,0-3.13.94c-.67.62-1,1.78-1,3.49v.84Z"/><path class="cls-1" d="M533.61,163.09a7.86,7.86,0,0,1-6.66-3.16,12.65,12.65,0,0,1-2.39-7.84,11.34,11.34,0,0,1,2.69-7.91,8.66,8.66,0,0,1,6.69-3,8.17,8.17,0,0,1,6.75,3.11,12.07,12.07,0,0,1,2.47,7.77A11.59,11.59,0,0,1,540.5,160,8.7,8.7,0,0,1,533.61,163.09Zm.24-2.67a5.12,5.12,0,0,0,4.13-2c1.1-1.35,1.66-3.46,1.66-6.31s-.58-5-1.75-6.25a5.34,5.34,0,0,0-4.08-1.94,5.15,5.15,0,0,0-4.06,2q-1.66,2-1.66,6.21,0,4.49,1.66,6.43A5.2,5.2,0,0,0,533.85,160.42Z"/><path class="cls-1" d="M551.22,162.52H548V141.8h2.83v4.84q1.5-3.42,3-4.44a5.48,5.48,0,0,1,3.08-1,11.28,11.28,0,0,1,1.28.08v3.08h-.66a5.66,5.66,0,0,0-4.43,2,8.06,8.06,0,0,0-1.89,5.22Z"/><path class="cls-1" d="M588.53,134.52v28h-2.91V159a7,7,0,0,1-6.55,4.12,7.23,7.23,0,0,1-6-3.05,12.29,12.29,0,0,1-2.34-7.71,13,13,0,0,1,2.32-7.93,7.25,7.25,0,0,1,6.15-3.17,7.12,7.12,0,0,1,6.09,3.4V134.52Zm-3.22,15.28a5.9,5.9,0,0,0-1.66-4.37,5.37,5.37,0,0,0-3.88-1.64,4.71,4.71,0,0,0-3.95,2.13,10.09,10.09,0,0,0-1.54,6,11.61,11.61,0,0,0,1.42,6.34,4.44,4.44,0,0,0,3.91,2.17,5.25,5.25,0,0,0,4-1.88,6.41,6.41,0,0,0,1.72-4.43Z"/><path class="cls-1" d="M598.29,134.52v3.59h-3.47v-3.59Zm-.1,7.28v20.72H595V141.8Z"/><path class="cls-1" d="M614,160.32v2.54a23.14,23.14,0,0,1-3,.23q-6,0-6-6.28V144.33h-3.67V141.8H605l.14-5.21,3-.28v5.49h4.64v2.53h-4.64v13q0,3.21,3.33,3.21A16,16,0,0,0,614,160.32Z"/><path class="cls-1" d="M626.92,160.32v2.54a23.14,23.14,0,0,1-3,.23q-6,0-6-6.28V144.33h-3.67V141.8H618l.14-5.21,3-.28v5.49h4.64v2.53h-4.64v13q0,3.21,3.33,3.21A16,16,0,0,0,626.92,160.32Z"/><path class="cls-1" d="M657.13,134.52v28h-2.92V159a7,7,0,0,1-6.55,4.12,7.22,7.22,0,0,1-6-3.05,12.29,12.29,0,0,1-2.34-7.71,13.11,13.11,0,0,1,2.31-7.93,7.28,7.28,0,0,1,6.16-3.17,7.15,7.15,0,0,1,6.09,3.4V134.52Zm-3.22,15.28a5.9,5.9,0,0,0-1.66-4.37,5.37,5.37,0,0,0-3.88-1.64,4.7,4.7,0,0,0-4,2.13,10.09,10.09,0,0,0-1.55,6,11.6,11.6,0,0,0,1.43,6.34,4.44,4.44,0,0,0,3.91,2.17,5.21,5.21,0,0,0,4-1.88,6.37,6.37,0,0,0,1.73-4.43Z"/><path class="cls-1" d="M666.89,134.52v3.59h-3.47v-3.59Zm-.1,7.28v20.72h-3.22V141.8Z"/><path class="cls-1" d="M690.12,138.56v2.57a5.82,5.82,0,0,0-3,.51,2.69,2.69,0,0,0-1,1.84,7.54,7.54,0,0,1,2,5,6.44,6.44,0,0,1-2.17,4.86,8.16,8.16,0,0,1-5.81,2,7.31,7.31,0,0,1-1.42-.12,10.69,10.69,0,0,0-1.41-.23,2.51,2.51,0,0,0-1.34.54,1.67,1.67,0,0,0-.77,1.41,1.53,1.53,0,0,0,1.12,1.6,25.19,25.19,0,0,0,5.31.47,30.82,30.82,0,0,1,5.25.48,5.38,5.38,0,0,1,2.86,1.68,4.64,4.64,0,0,1,1.16,3.19q0,5.92-10.41,5.93-4.95,0-7.21-1.49a4.56,4.56,0,0,1-2.27-4,4.17,4.17,0,0,1,3.16-4.15,3.92,3.92,0,0,1-2-3.34q0-2.4,2.87-3.67a6.76,6.76,0,0,1-2.69-5.47,6.34,6.34,0,0,1,2.3-5,8.28,8.28,0,0,1,5.6-2,9.93,9.93,0,0,1,4.24.88,4,4,0,0,1,1.43-2.81,6,6,0,0,1,3.39-.78Zm-13.7,23.11c-1.5.66-2.25,1.61-2.25,2.86A2.7,2.7,0,0,0,676,167a11.2,11.2,0,0,0,4.73.87,15.1,15.1,0,0,0,4.88-.75c1.48-.5,2.22-1.34,2.22-2.53a2.05,2.05,0,0,0-.66-1.58,3.22,3.22,0,0,0-1.79-.78c-.76-.11-2.08-.19-4-.25C679.17,161.91,677.5,161.81,676.42,161.67Zm3.86-8.75a4.57,4.57,0,0,0,3.34-1.26,4.38,4.38,0,0,0,1.3-3.27,4.53,4.53,0,0,0-4.6-4.66,4.82,4.82,0,0,0-3.24,1.22,4.9,4.9,0,0,0-.14,6.73A4.61,4.61,0,0,0,680.28,152.92Z"/><path class="cls-1" d="M697.16,134.52v3.59h-3.47v-3.59Zm-.1,7.28v20.72h-3.22V141.8Z"/><path class="cls-1" d="M712.87,160.32v2.54a23.14,23.14,0,0,1-3,.23q-6,0-6-6.28V144.33h-3.68V141.8h3.68l.14-5.21,3-.28v5.49h4.64v2.53H707v13q0,3.21,3.33,3.21A16,16,0,0,0,712.87,160.32Z"/><path class="cls-1" d="M732.6,162.52h-3.18a35.31,35.31,0,0,1-.37-3.74,7.46,7.46,0,0,1-7.26,4.31,7.27,7.27,0,0,1-5.35-1.85,6,6,0,0,1-1.87-4.44,6.22,6.22,0,0,1,2.67-5.16q2.65-2,9.06-2c.57,0,1.49,0,2.75.08a12,12,0,0,0-.38-3.56,3.14,3.14,0,0,0-1.61-1.75,6.85,6.85,0,0,0-3.24-.66q-4.91,0-5.7,3.73l-3-.51q1.1-5.72,9.15-5.72c2.86,0,4.88.63,6.08,1.9s1.8,3.45,1.8,6.57v8.8A17.39,17.39,0,0,0,732.6,162.52Zm-3.55-10.36q-2-.12-3-.12a11.61,11.61,0,0,0-5.92,1.25A4,4,0,0,0,718,157a3.42,3.42,0,0,0,1.14,2.59,4.65,4.65,0,0,0,3.29,1.07,6.11,6.11,0,0,0,4.79-2.12,7.26,7.26,0,0,0,1.88-5C729.11,153.13,729.09,152.68,729.05,152.16Z"/><path class="cls-1" d="M741.82,162.52H738.6v-28h3.22Z"/><path class="cls-1" d="M761.94,156.34l3,.62a8.48,8.48,0,0,1-3.2,4.39,9.23,9.23,0,0,1-5.6,1.74,8.72,8.72,0,0,1-6.87-3,13,13,0,0,1,.1-15.82,8.78,8.78,0,0,1,6.85-3.05,8.28,8.28,0,0,1,6.53,2.81c1.65,1.87,2.49,4.67,2.54,8.41H750.23q0,4.7,2,6.33a6.37,6.37,0,0,0,4.16,1.64Q760.32,160.42,761.94,156.34Zm-.18-6.29a8.91,8.91,0,0,0-.58-3.1,5.26,5.26,0,0,0-1.8-2.31,5,5,0,0,0-3.06-.95,5.46,5.46,0,0,0-4.07,1.72,7.13,7.13,0,0,0-1.87,4.64Z"/><path class="cls-1" d="M783.84,169.51h-3.21V141.8h2.91v4q2.19-4.59,6.53-4.59A7,7,0,0,1,796,144.3a14.82,14.82,0,0,1-.07,15.81,7.18,7.18,0,0,1-5.94,3,6.88,6.88,0,0,1-6.14-3.71Zm0-20.34V155a6.17,6.17,0,0,0,2,3.88,5.2,5.2,0,0,0,3.51,1.53,4.86,4.86,0,0,0,3.74-1.84q1.63-1.85,1.63-6.38a10.55,10.55,0,0,0-1.47-6,4.57,4.57,0,0,0-3.92-2.12,4.83,4.83,0,0,0-3.46,1.5A7.27,7.27,0,0,0,783.84,149.17Z"/><path class="cls-1" d="M806.28,162.52h-3.22V141.8h2.83v4.84q1.5-3.42,3-4.44a5.48,5.48,0,0,1,3.08-1,11.12,11.12,0,0,1,1.27.08v3.08h-.65a5.65,5.65,0,0,0-4.43,2,8,8,0,0,0-1.89,5.22Z"/><path class="cls-1" d="M823.57,163.09a7.87,7.87,0,0,1-6.66-3.16,12.65,12.65,0,0,1-2.39-7.84,11.34,11.34,0,0,1,2.69-7.91,8.66,8.66,0,0,1,6.69-3,8.16,8.16,0,0,1,6.75,3.11,12.08,12.08,0,0,1,2.48,7.77,11.6,11.6,0,0,1-2.67,7.91A8.7,8.7,0,0,1,823.57,163.09Zm.24-2.67a5.11,5.11,0,0,0,4.13-2c1.1-1.35,1.66-3.46,1.66-6.31s-.58-5-1.75-6.25a5.34,5.34,0,0,0-4.08-1.94,5.15,5.15,0,0,0-4.06,2c-1.1,1.31-1.66,3.38-1.66,6.21,0,3,.56,5.13,1.66,6.43A5.2,5.2,0,0,0,823.81,160.42Z"/><path class="cls-1" d="M835.18,157.14l3.07-.63q1,3.92,6.48,3.91a6.17,6.17,0,0,0,3.41-.9,2.84,2.84,0,0,0,1.39-2.54q0-2.43-3.55-3.09l-4.36-.83a8,8,0,0,1-4.09-1.93,5,5,0,0,1-1.51-3.79,5.49,5.49,0,0,1,2.07-4.36,8.34,8.34,0,0,1,5.58-1.75q6.74,0,8.32,5.27l-3,.63q-1.27-3.24-5.23-3.24a5.88,5.88,0,0,0-3.23.81,2.56,2.56,0,0,0-1.26,2.27q0,2.29,3.22,2.89l4,.72q6.33,1.15,6.34,6.14a5.48,5.48,0,0,1-2.36,4.61,10.3,10.3,0,0,1-6.28,1.76Q836.92,163.09,835.18,157.14Z"/><path class="cls-1" d="M860.67,141.58v21.57c0,2.44-.58,4.13-1.74,5.09a6.43,6.43,0,0,1-4.23,1.43,13.11,13.11,0,0,1-3-.43V166.7A11,11,0,0,0,854,167a3.4,3.4,0,0,0,2.62-.87,4.53,4.53,0,0,0,.79-3V141.58Zm.16-7.06v3.59h-3.65v-3.59Z"/><path class="cls-1" d="M880.74,156.34l3,.62a8.48,8.48,0,0,1-3.2,4.39,9.23,9.23,0,0,1-5.6,1.74,8.72,8.72,0,0,1-6.87-3,13,13,0,0,1,.1-15.82,8.78,8.78,0,0,1,6.85-3.05,8.27,8.27,0,0,1,6.53,2.81c1.65,1.87,2.49,4.67,2.54,8.41H869q0,4.7,2,6.33a6.38,6.38,0,0,0,4.17,1.64Q879.12,160.42,880.74,156.34Zm-.18-6.29A8.91,8.91,0,0,0,880,147a5.26,5.26,0,0,0-1.8-2.31,5,5,0,0,0-3.06-.95,5.46,5.46,0,0,0-4.07,1.72,7.13,7.13,0,0,0-1.87,4.64Z"/><path class="cls-1" d="M906,162.52h-3.34L896.64,151l-4.49,5.17v6.4h-3.22v-28h3.22v17.95l9.62-10.67h3.44l-6.47,7.28Z"/><path class="cls-1" d="M919.36,160.32v2.54a23.13,23.13,0,0,1-3,.23q-6,0-6-6.28V144.33h-3.67V141.8h3.67l.14-5.21,3-.28v5.49h4.63v2.53h-4.63v13c0,2.14,1.1,3.21,3.32,3.21A15.89,15.89,0,0,0,919.36,160.32Z"/><path class="cls-1" d="M930.68,155.54h-2.95q0-3.19.09-4a4.63,4.63,0,0,1,.44-1.57,4.18,4.18,0,0,1,.83-1.24,13.6,13.6,0,0,1,2.18-1.4,19.29,19.29,0,0,0,2.58-1.63,5,5,0,0,0,1.23-1.62,5,5,0,0,0,.52-2.27,4.41,4.41,0,0,0-1.69-3.67,6.25,6.25,0,0,0-4-1.33q-5.2,0-6.36,6.05l-3-.66c1-5.51,4.22-8.26,9.57-8.26a9.62,9.62,0,0,1,6.63,2.24,7.37,7.37,0,0,1,2.52,5.76q0,4.58-5.25,7.3a9.61,9.61,0,0,0-2.81,1.89,3.64,3.64,0,0,0-.51,2.15Zm.7,2.94v4h-4.15v-4Z"/></svg>