<svg id="Layer_1" data-name="Layer 1" xmlns="http://www.w3.org/2000/svg" viewBox="0 0 980 300"><defs><style>.cls-1{fill:#fff;}</style></defs><title>text</title><path class="cls-1" d="M402.49,138.51H399V125.18H386v13.33h-3.5v-28H386v11.59h13V110.52h3.5Z"/><path class="cls-1" d="M424.37,117.8l-7.16,20.71h-3.32l-7.42-20.71H410l5.77,16.84,5.7-16.84Z"/><path class="cls-1" d="M431.43,110.52v3.59H428v-3.59Zm-.1,7.28v20.71h-3.22V117.8Z"/><path class="cls-1" d="M441,138.51h-3.22v-28H441Z"/><path class="cls-1" d="M464.51,138.51h-3.34L455.12,127l-4.5,5.16v6.4H447.4v-28h3.22v17.94l9.63-10.66h3.44l-6.47,7.27Z"/><path class="cls-1" d="M481.2,132.34l3,.62a8.52,8.52,0,0,1-3.2,4.39,9.25,9.25,0,0,1-5.6,1.74,8.72,8.72,0,0,1-6.87-3,11.43,11.43,0,0,1-2.63-7.83,11.55,11.55,0,0,1,2.73-8,8.8,8.8,0,0,1,6.85-3A8.25,8.25,0,0,1,482,120q2.48,2.8,2.53,8.4H469.49c0,3.13.66,5.25,2,6.34a6.42,6.42,0,0,0,4.16,1.64Q479.58,136.42,481.2,132.34ZM481,126a8.9,8.9,0,0,0-.58-3.09,5.26,5.26,0,0,0-1.8-2.31,4.93,4.93,0,0,0-3.06-1,5.46,5.46,0,0,0-4.07,1.72,7.11,7.11,0,0,0-1.87,4.63Z"/><path class="cls-1" d="M498.57,136.32v2.54a23,23,0,0,1-2.95.23q-6,0-6-6.29V120.32h-3.67V117.8h3.67l.14-5.21,3-.29v5.5h4.63v2.52h-4.63v13c0,2.14,1.11,3.2,3.32,3.2A15.78,15.78,0,0,0,498.57,136.32Z"/><path class="cls-1" d="M529.66,129.1l3.2.72q-2.29,9.27-10.38,9.27a9.63,9.63,0,0,1-8.33-4.29,17.83,17.83,0,0,1-3-10.55q0-6.47,3.16-10.38a10.31,10.31,0,0,1,8.47-3.92q7.88,0,10.11,9l-3.3.65q-1.8-6.67-6.83-6.68A6.47,6.47,0,0,0,517,116q-2,3.1-2,8.72A14.53,14.53,0,0,0,517,133a6.39,6.39,0,0,0,5.54,3.1Q527.91,136.11,529.66,129.1Z"/><path class="cls-1" d="M564.24,138.51h-3.41V114.07l-9.08,24.44h-2.38l-9.19-24.44v24.44h-3v-28h5.19l8.46,22.39,8.25-22.39h5.13Z"/><path class="cls-1" d="M568.16,131.11l3.15-.72q1.91,5.73,8.27,5.72a7.63,7.63,0,0,0,5-1.41,4.66,4.66,0,0,0,1.68-3.77,3.56,3.56,0,0,0-1.28-2.88,7.13,7.13,0,0,0-3-1.51l-5.6-1.38a14.45,14.45,0,0,1-3.56-1.34,6.58,6.58,0,0,1-2.35-2.44,7.27,7.27,0,0,1-1-3.75,6.75,6.75,0,0,1,2.65-5.6A10.61,10.61,0,0,1,579,110q7.63,0,10,6.91l-3.18.94a5.61,5.61,0,0,0-2.6-3.72,8.21,8.21,0,0,0-4.37-1.26,7.11,7.11,0,0,0-4.09,1.21,3.91,3.91,0,0,0-1.8,3.44q0,3.12,4.55,4.21l5.24,1.22q7.17,1.72,7.17,7.74a7.75,7.75,0,0,1-2.69,6c-1.8,1.6-4.33,2.41-7.6,2.41Q570.94,139.09,568.16,131.11Z"/><path class="cls-1" d="M602.57,133.14l3.07-.64c.69,2.62,2.85,3.92,6.48,3.92a6.17,6.17,0,0,0,3.41-.9,2.86,2.86,0,0,0,1.39-2.54c0-1.62-1.18-2.66-3.55-3.09l-4.36-.83a8,8,0,0,1-4.08-1.93,5,5,0,0,1-1.52-3.79,5.49,5.49,0,0,1,2.07-4.36,8.34,8.34,0,0,1,5.58-1.75q6.75,0,8.32,5.27l-3,.63q-1.27-3.24-5.23-3.24a5.88,5.88,0,0,0-3.23.81,2.54,2.54,0,0,0-1.26,2.26c0,1.53,1.07,2.5,3.22,2.89l4,.73q6.33,1.14,6.34,6.14a5.49,5.49,0,0,1-2.36,4.61,10.28,10.28,0,0,1-6.28,1.76Q604.31,139.09,602.57,133.14Z"/><path class="cls-1" d="M641.94,138.51H638.6L632.55,127l-4.49,5.16v6.4h-3.22v-28h3.22v17.94l9.62-10.66h3.44l-6.47,7.27Z"/><path class="cls-1" d="M661.75,138.51h-3.18c-.12-.65-.24-1.9-.36-3.73a7.48,7.48,0,0,1-7.26,4.31,7.31,7.31,0,0,1-5.36-1.85,6,6,0,0,1-1.86-4.44,6.23,6.23,0,0,1,2.66-5.16q2.67-2,9.07-2c.57,0,1.49,0,2.75.09a12,12,0,0,0-.38-3.56,3.22,3.22,0,0,0-1.61-1.76,7,7,0,0,0-3.24-.65q-4.9,0-5.71,3.73l-3-.51c.73-3.82,3.77-5.72,9.15-5.72q4.27,0,6.08,1.89t1.79,6.58v8.79A17.83,17.83,0,0,0,661.75,138.51Zm-3.54-10.35c-1.32-.09-2.32-.13-3-.13a11.65,11.65,0,0,0-5.93,1.26,4,4,0,0,0-2.11,3.66,3.44,3.44,0,0,0,1.14,2.59,4.65,4.65,0,0,0,3.29,1.07,6.12,6.12,0,0,0,4.79-2.12,7.27,7.27,0,0,0,1.88-5Q658.27,128.94,658.21,128.16Z"/><path class="cls-1" d="M671,138.51h-3.22v-28H671Z"/><path class="cls-1" d="M704.1,110.52v28h-2.91V135a7,7,0,0,1-6.55,4.13,7.23,7.23,0,0,1-6-3.05,12.29,12.29,0,0,1-2.34-7.71,13,13,0,0,1,2.32-7.93,7.23,7.23,0,0,1,6.15-3.17,7.12,7.12,0,0,1,6.09,3.4V110.52Zm-3.22,15.28a5.85,5.85,0,0,0-1.66-4.37,5.37,5.37,0,0,0-3.88-1.64,4.69,4.69,0,0,0-3.94,2.13,10,10,0,0,0-1.55,6,11.61,11.61,0,0,0,1.42,6.34,4.45,4.45,0,0,0,3.91,2.17,5.26,5.26,0,0,0,4-1.89,6.33,6.33,0,0,0,1.72-4.43Z"/><path class="cls-1" d="M726.84,138.51h-2.91v-4q-2.2,4.55-6.59,4.54a6.24,6.24,0,0,1-5-2.1,8.8,8.8,0,0,1-1.81-6V117.8h3.22V131c0,2.05.43,3.46,1.28,4.23a4.15,4.15,0,0,0,2.82,1.16,4.79,4.79,0,0,0,2.82-.88,6.83,6.83,0,0,0,2.1-2.51,7.69,7.69,0,0,0,.84-3.56V117.8h3.22Z"/><path class="cls-1" d="M759,117.8l-7.16,20.71h-3.32l-7.42-20.71h3.57l5.77,16.84,5.7-16.84Z"/><path class="cls-1" d="M775.73,132.34l3,.62a8.46,8.46,0,0,1-3.2,4.39,9.23,9.23,0,0,1-5.6,1.74,8.72,8.72,0,0,1-6.87-3,11.42,11.42,0,0,1-2.62-7.83,11.55,11.55,0,0,1,2.72-8,8.8,8.8,0,0,1,6.85-3,8.23,8.23,0,0,1,6.53,2.81q2.48,2.8,2.54,8.4H764c0,3.13.66,5.25,2,6.34a6.45,6.45,0,0,0,4.17,1.64Q774.11,136.42,775.73,132.34Zm-.18-6.3A9.14,9.14,0,0,0,775,123a5.36,5.36,0,0,0-1.81-2.31,4.93,4.93,0,0,0-3-1,5.48,5.48,0,0,0-4.08,1.72,7.11,7.11,0,0,0-1.87,4.63Z"/><path class="cls-1" d="M787.14,138.51h-3.22v-28h3.22Z"/><path class="cls-1" d="M810.5,114.56v2.56a5.71,5.71,0,0,0-3,.52,2.67,2.67,0,0,0-1,1.84,7.53,7.53,0,0,1,2,5,6.43,6.43,0,0,1-2.17,4.86,8.16,8.16,0,0,1-5.81,2,6.54,6.54,0,0,1-1.42-.13,10,10,0,0,0-1.41-.22,2.48,2.48,0,0,0-1.33.54,1.65,1.65,0,0,0-.78,1.41,1.52,1.52,0,0,0,1.13,1.6,25,25,0,0,0,5.31.47,30.79,30.79,0,0,1,5.24.48,5.32,5.32,0,0,1,2.86,1.68,4.6,4.6,0,0,1,1.17,3.19q0,5.92-10.42,5.93-4.95,0-7.21-1.49a4.56,4.56,0,0,1-2.27-4,4.17,4.17,0,0,1,3.16-4.15,3.92,3.92,0,0,1-2-3.34q0-2.4,2.87-3.67a6.75,6.75,0,0,1-2.68-5.47,6.36,6.36,0,0,1,2.29-5,8.32,8.32,0,0,1,5.6-2,10,10,0,0,1,4.25.88,4,4,0,0,1,1.42-2.81,6,6,0,0,1,3.4-.78C809.85,114.52,810.11,114.53,810.5,114.56Zm-13.7,23.11c-1.51.66-2.26,1.61-2.26,2.85A2.69,2.69,0,0,0,796.4,143a11.12,11.12,0,0,0,4.72.87,15.1,15.1,0,0,0,4.88-.74c1.48-.5,2.22-1.35,2.22-2.54a2.07,2.07,0,0,0-.66-1.58,3.11,3.11,0,0,0-1.79-.77,38.51,38.51,0,0,0-4-.25C799.54,137.9,797.88,137.81,796.8,137.67Zm3.85-8.75a4.62,4.62,0,0,0,3.35-1.27,4.37,4.37,0,0,0,1.29-3.27,4.53,4.53,0,0,0-4.6-4.65,4.81,4.81,0,0,0-3.24,1.22,4.89,4.89,0,0,0-.14,6.72A4.57,4.57,0,0,0,800.65,128.92Z"/><path class="cls-1" d="M827.89,132.34l3,.62a8.46,8.46,0,0,1-3.2,4.39,9.21,9.21,0,0,1-5.6,1.74,8.72,8.72,0,0,1-6.87-3,11.42,11.42,0,0,1-2.62-7.83,11.55,11.55,0,0,1,2.73-8,8.79,8.79,0,0,1,6.85-3A8.26,8.26,0,0,1,828.7,120c1.64,1.87,2.49,4.67,2.53,8.4H816.18c0,3.13.65,5.25,2,6.34a6.42,6.42,0,0,0,4.16,1.64Q826.27,136.42,827.89,132.34Zm-.19-6.3a9.14,9.14,0,0,0-.57-3.09,5.36,5.36,0,0,0-1.81-2.31,4.89,4.89,0,0,0-3.05-1,5.44,5.44,0,0,0-4.07,1.72,7.11,7.11,0,0,0-1.88,4.63Z"/><path class="cls-1" d="M390.8,168.2v2.52h-4.92v18.19h-3.22V170.72h-3.53V168.2h3.53q.09-5,1.92-6.42a7,7,0,0,1,4.48-1.43,17.54,17.54,0,0,1,2.95.28v2.57a7.92,7.92,0,0,0-2-.27,4.49,4.49,0,0,0-3.12.93c-.68.62-1,1.79-1,3.5v.84Z"/><path class="cls-1" d="M401.26,189.49a7.88,7.88,0,0,1-6.65-3.16,12.62,12.62,0,0,1-2.39-7.85,11.31,11.31,0,0,1,2.68-7.9,8.68,8.68,0,0,1,6.69-3,8.15,8.15,0,0,1,6.76,3.11,12.06,12.06,0,0,1,2.47,7.76,11.64,11.64,0,0,1-2.67,7.92A8.71,8.71,0,0,1,401.26,189.49Zm.25-2.67a5.13,5.13,0,0,0,4.12-2q1.67-2,1.66-6.32t-1.74-6.24a5.34,5.34,0,0,0-4.08-1.94,5.11,5.11,0,0,0-4.06,2c-1.11,1.31-1.66,3.37-1.66,6.2q0,4.5,1.66,6.43A5.18,5.18,0,0,0,401.51,186.82Z"/><path class="cls-1" d="M418.88,188.91h-3.22V168.2h2.83V173q1.5-3.42,3-4.44a5.48,5.48,0,0,1,3.09-1,11.5,11.5,0,0,1,1.27.09v3.07h-.66a5.67,5.67,0,0,0-4.42,2,8.05,8.05,0,0,0-1.89,5.23Z"/><path class="cls-1" d="M456.18,160.92v28h-2.91v-3.55a7,7,0,0,1-6.55,4.13,7.24,7.24,0,0,1-6-3.05,12.29,12.29,0,0,1-2.34-7.71,13,13,0,0,1,2.32-7.93,7.23,7.23,0,0,1,6.15-3.17A7.12,7.12,0,0,1,453,171V160.92ZM453,176.2a5.85,5.85,0,0,0-1.66-4.37,5.36,5.36,0,0,0-3.87-1.64,4.7,4.7,0,0,0-3.95,2.13,10.07,10.07,0,0,0-1.55,6,11.61,11.61,0,0,0,1.42,6.34,4.45,4.45,0,0,0,3.91,2.17,5.24,5.24,0,0,0,4-1.89A6.33,6.33,0,0,0,453,180.5Z"/><path class="cls-1" d="M465.94,160.92v3.59h-3.46v-3.59Zm-.1,7.28v20.71h-3.22V168.2Z"/><path class="cls-1" d="M481.65,186.72v2.54a23,23,0,0,1-2.95.23q-6,0-6-6.29V170.72H469V168.2h3.67l.14-5.21,3-.29v5.5h4.63v2.52h-4.63v13c0,2.14,1.11,3.2,3.32,3.2A15.78,15.78,0,0,0,481.65,186.72Z"/><path class="cls-1" d="M494.57,186.72v2.54a23,23,0,0,1-2.95.23q-6,0-6-6.29V170.72h-3.67V168.2h3.67l.14-5.21,3-.29v5.5h4.63v2.52h-4.63v13c0,2.14,1.11,3.2,3.32,3.2A15.78,15.78,0,0,0,494.57,186.72Z"/><path class="cls-1" d="M524.78,160.92v28h-2.91v-3.55a7,7,0,0,1-6.55,4.13,7.23,7.23,0,0,1-6-3.05,12.29,12.29,0,0,1-2.34-7.71,13,13,0,0,1,2.32-7.93,7.23,7.23,0,0,1,6.15-3.17,7.12,7.12,0,0,1,6.09,3.4V160.92Zm-3.22,15.28a5.85,5.85,0,0,0-1.66-4.37,5.37,5.37,0,0,0-3.88-1.64,4.68,4.68,0,0,0-3.94,2.13,10,10,0,0,0-1.55,6,11.61,11.61,0,0,0,1.42,6.34,4.45,4.45,0,0,0,3.91,2.17,5.26,5.26,0,0,0,4-1.89,6.33,6.33,0,0,0,1.72-4.43Z"/><path class="cls-1" d="M534.54,160.92v3.59h-3.46v-3.59Zm-.1,7.28v20.71h-3.22V168.2Z"/><path class="cls-1" d="M557.78,165v2.56a5.71,5.71,0,0,0-3,.52,2.67,2.67,0,0,0-1,1.84,7.48,7.48,0,0,1,2,5,6.43,6.43,0,0,1-2.17,4.86,8.16,8.16,0,0,1-5.81,2,7.06,7.06,0,0,1-1.41-.13,10.25,10.25,0,0,0-1.42-.22,2.48,2.48,0,0,0-1.33.54,1.65,1.65,0,0,0-.78,1.41A1.52,1.52,0,0,0,544,185a25,25,0,0,0,5.31.47,30.79,30.79,0,0,1,5.24.48,5.29,5.29,0,0,1,2.86,1.68,4.6,4.6,0,0,1,1.17,3.19q0,5.92-10.42,5.93-4.95,0-7.21-1.49a4.55,4.55,0,0,1-2.26-4,4.16,4.16,0,0,1,3.15-4.15,3.92,3.92,0,0,1-2-3.34q0-2.4,2.87-3.67a6.75,6.75,0,0,1-2.68-5.47,6.36,6.36,0,0,1,2.29-5,8.34,8.34,0,0,1,5.6-2,10,10,0,0,1,4.25.88,4,4,0,0,1,1.42-2.81,6,6,0,0,1,3.4-.78C557.13,164.92,557.39,164.93,557.78,165Zm-13.7,23.11c-1.51.66-2.26,1.61-2.26,2.85a2.69,2.69,0,0,0,1.86,2.45,11.16,11.16,0,0,0,4.73.87,15.18,15.18,0,0,0,4.88-.74c1.47-.5,2.21-1.35,2.21-2.54a2.07,2.07,0,0,0-.66-1.58,3.11,3.11,0,0,0-1.79-.77,38.51,38.51,0,0,0-4-.25C546.83,188.3,545.16,188.21,544.08,188.07Zm3.85-8.75a4.6,4.6,0,0,0,3.35-1.27,4.37,4.37,0,0,0,1.29-3.27,4.53,4.53,0,0,0-4.6-4.65,4.81,4.81,0,0,0-3.24,1.22,4.89,4.89,0,0,0-.14,6.72A4.57,4.57,0,0,0,547.93,179.32Z"/><path class="cls-1" d="M564.81,160.92v3.59h-3.46v-3.59Zm-.1,7.28v20.71h-3.22V168.2Z"/><path class="cls-1" d="M580.52,186.72v2.54a23,23,0,0,1-2.95.23q-6,0-6-6.29V170.72h-3.67V168.2h3.67l.14-5.21,3-.29v5.5h4.63v2.52H574.7v13c0,2.14,1.1,3.2,3.32,3.2A15.78,15.78,0,0,0,580.52,186.72Z"/><path class="cls-1" d="M600.25,188.91h-3.18c-.12-.65-.25-1.9-.37-3.73a7.46,7.46,0,0,1-7.26,4.31,7.29,7.29,0,0,1-5.35-1.85,6,6,0,0,1-1.87-4.44,6.22,6.22,0,0,1,2.67-5.16q2.67-2,9.06-2c.58,0,1.49,0,2.75.09a12,12,0,0,0-.38-3.56,3.18,3.18,0,0,0-1.61-1.76,7,7,0,0,0-3.24-.65q-4.9,0-5.7,3.73l-3-.51q1.08-5.73,9.14-5.72,4.29,0,6.08,1.89t1.8,6.58v8.79A17.27,17.27,0,0,0,600.25,188.91Zm-3.55-10.35c-1.31-.09-2.31-.13-3-.13a11.62,11.62,0,0,0-5.93,1.26,4,4,0,0,0-2.11,3.66,3.44,3.44,0,0,0,1.14,2.59A4.62,4.62,0,0,0,590.1,187a6.14,6.14,0,0,0,4.79-2.12,7.26,7.26,0,0,0,1.87-5Q596.76,179.34,596.7,178.56Z"/><path class="cls-1" d="M609.48,188.91h-3.22v-28h3.22Z"/><path class="cls-1" d="M629.6,182.74l3,.62a8.46,8.46,0,0,1-3.2,4.39,9.23,9.23,0,0,1-5.6,1.74,8.72,8.72,0,0,1-6.87-3,11.42,11.42,0,0,1-2.62-7.83,11.6,11.6,0,0,1,2.72-8,8.82,8.82,0,0,1,6.85-3,8.27,8.27,0,0,1,6.54,2.81c1.64,1.87,2.49,4.67,2.53,8.4H617.89c0,3.13.65,5.25,2,6.34a6.45,6.45,0,0,0,4.17,1.64Q628,186.82,629.6,182.74Zm-.19-6.3a9.14,9.14,0,0,0-.57-3.09A5.3,5.3,0,0,0,627,171a4.91,4.91,0,0,0-3-.95,5.44,5.44,0,0,0-4.07,1.72,7.11,7.11,0,0,0-1.88,4.63Z"/><path class="cls-1" d="M651.5,195.91h-3.22V168.2h2.91v4q2.19-4.59,6.53-4.59a7,7,0,0,1,5.92,3.06,14.86,14.86,0,0,1-.06,15.82,7.24,7.24,0,0,1-6,3,6.86,6.86,0,0,1-6.13-3.72Zm0-20.35v5.85a6.15,6.15,0,0,0,2,3.88,5.17,5.17,0,0,0,3.5,1.53,4.9,4.9,0,0,0,3.75-1.84c1.08-1.24,1.63-3.36,1.63-6.38a10.45,10.45,0,0,0-1.48-6,4.54,4.54,0,0,0-3.92-2.12,4.8,4.8,0,0,0-3.45,1.49A7.28,7.28,0,0,0,651.5,175.56Z"/><path class="cls-1" d="M673.93,188.91h-3.22V168.2h2.83V173q1.5-3.42,3-4.44a5.42,5.42,0,0,1,3.08-1,11.65,11.65,0,0,1,1.28.09v3.07h-.66a5.69,5.69,0,0,0-4.43,2,8.11,8.11,0,0,0-1.89,5.23Z"/><path class="cls-1" d="M691.22,189.49a7.88,7.88,0,0,1-6.65-3.16,12.62,12.62,0,0,1-2.39-7.85,11.31,11.31,0,0,1,2.68-7.9,8.68,8.68,0,0,1,6.69-3,8.15,8.15,0,0,1,6.76,3.11,12.12,12.12,0,0,1,2.47,7.76,11.64,11.64,0,0,1-2.67,7.92A8.72,8.72,0,0,1,691.22,189.49Zm.25-2.67a5.13,5.13,0,0,0,4.12-2q1.67-2,1.66-6.32t-1.74-6.24a5.34,5.34,0,0,0-4.08-1.94,5.11,5.11,0,0,0-4.06,2c-1.11,1.31-1.66,3.37-1.66,6.2q0,4.5,1.66,6.43A5.18,5.18,0,0,0,691.47,186.82Z"/><path class="cls-1" d="M702.83,183.54l3.08-.64c.68,2.62,2.84,3.92,6.48,3.92a6.13,6.13,0,0,0,3.4-.9,2.86,2.86,0,0,0,1.39-2.54q0-2.44-3.55-3.09l-4.36-.83a8,8,0,0,1-4.08-1.93,5,5,0,0,1-1.52-3.79,5.49,5.49,0,0,1,2.07-4.36,8.34,8.34,0,0,1,5.58-1.75q6.75,0,8.33,5.27l-3,.63q-1.28-3.24-5.23-3.24a5.88,5.88,0,0,0-3.23.81,2.54,2.54,0,0,0-1.26,2.26c0,1.53,1.07,2.5,3.22,2.89l4,.73q6.35,1.14,6.34,6.14a5.49,5.49,0,0,1-2.36,4.61,10.26,10.26,0,0,1-6.28,1.76Q704.58,189.49,702.83,183.54Z"/><path class="cls-1" d="M728.32,168v21.58c0,2.43-.58,4.13-1.73,5.08a6.43,6.43,0,0,1-4.24,1.44,13,13,0,0,1-3-.43V193.1a10.87,10.87,0,0,0,2.36.3,3.39,3.39,0,0,0,2.61-.87,4.44,4.44,0,0,0,.79-3V168Zm.16-7.05v3.59h-3.65v-3.59Z"/><path class="cls-1" d="M748.4,182.74l3,.62a8.41,8.41,0,0,1-3.2,4.39,9.21,9.21,0,0,1-5.6,1.74,8.72,8.72,0,0,1-6.87-3,11.42,11.42,0,0,1-2.62-7.83,11.55,11.55,0,0,1,2.73-8,8.8,8.8,0,0,1,6.85-3,8.26,8.26,0,0,1,6.53,2.81q2.47,2.81,2.53,8.4h-15c0,3.13.65,5.25,2,6.34a6.42,6.42,0,0,0,4.16,1.64Q746.78,186.82,748.4,182.74Zm-.19-6.3a8.68,8.68,0,0,0-.57-3.09,5.3,5.3,0,0,0-1.81-2.31,4.89,4.89,0,0,0-3.05-.95,5.44,5.44,0,0,0-4.07,1.72,7.11,7.11,0,0,0-1.88,4.63Z"/><path class="cls-1" d="M773.68,188.91h-3.33l-6.06-11.56-4.49,5.16v6.4h-3.22v-28h3.22v17.94l9.62-10.66h3.44l-6.47,7.27Z"/><path class="cls-1" d="M787,186.72v2.54a22.87,22.87,0,0,1-3,.23q-6,0-6-6.29V170.72h-3.67V168.2h3.67l.15-5.21,3-.29v5.5h4.64v2.52h-4.64v13c0,2.14,1.11,3.2,3.32,3.2A15.78,15.78,0,0,0,787,186.72Z"/><path class="cls-1" d="M798.33,181.94h-3q0-3.19.09-4a4.71,4.71,0,0,1,.45-1.58,4.07,4.07,0,0,1,.83-1.23,12.68,12.68,0,0,1,2.18-1.4,19.7,19.7,0,0,0,2.57-1.63,5,5,0,0,0,1.23-1.62,5,5,0,0,0,.53-2.27,4.42,4.42,0,0,0-1.7-3.67,6.21,6.21,0,0,0-4-1.33q-5.22,0-6.36,6.05l-3.06-.66q1.55-8.27,9.58-8.26a9.57,9.57,0,0,1,6.62,2.24,7.34,7.34,0,0,1,2.53,5.75q0,4.57-5.25,7.3a9.57,9.57,0,0,0-2.81,1.9,3.6,3.6,0,0,0-.52,2.14Zm.7,2.93v4h-4.14v-4Z"/></svg>