<svg id="Layer_1" data-name="Layer 1" xmlns="http://www.w3.org/2000/svg" viewBox="0 0 980 300"><defs><style>.cls-1{fill:#fff;}</style></defs><title>text</title><path class="cls-1" d="M371.5,135V107h11.07q4.19,0,6.21,2a6.58,6.58,0,0,1,2,4.75q0,4.75-5,6.31a7.57,7.57,0,0,1,4.39,2.71,7.24,7.24,0,0,1,1.44,4.41,7.47,7.47,0,0,1-2.23,5.53q-2.22,2.23-6.86,2.23Zm3.38-16H381q3.79,0,5.07-1.44a5,5,0,0,0,1.27-3.4,4,4,0,0,0-1.36-3.11,6,6,0,0,0-4.08-1.19h-7Zm0,12.92h7.51a6.16,6.16,0,0,0,4.24-1.33,4.41,4.41,0,0,0,1.5-3.46,5.86,5.86,0,0,0-.68-2.78,4.72,4.72,0,0,0-1.9-2,7.6,7.6,0,0,0-3.68-.7h-7Z"/><path class="cls-1" d="M399.82,135H396.6V114.29h2.83v4.84q1.5-3.43,3-4.44a5.48,5.48,0,0,1,3.09-1c.33,0,.75,0,1.27.08v3.08h-.65a5.65,5.65,0,0,0-4.43,2,8.05,8.05,0,0,0-1.89,5.23Z"/><path class="cls-1" d="M426.75,135h-2.92v-4q-2.2,4.53-6.59,4.53a6.24,6.24,0,0,1-5-2.09,8.87,8.87,0,0,1-1.81-5.95V114.29h3.22v13.22c0,2.06.43,3.47,1.28,4.24a4.15,4.15,0,0,0,2.82,1.16,4.86,4.86,0,0,0,2.82-.88,6.9,6.9,0,0,0,2.11-2.52,7.62,7.62,0,0,0,.84-3.55V114.29h3.22Z"/><path class="cls-1" d="M450.29,135H447l-6.05-11.56-4.5,5.16V135h-3.21V107h3.21V125L446,114.29h3.44L443,121.56Z"/><path class="cls-1" d="M483.86,135h-3.58l-2.81-8.18H467.08l-2.5,8.18h-2.93l9.09-28h4Zm-7.14-10.81-4.33-13.45-4.33,13.45Z"/><path class="cls-1" d="M491,135h-3.51V107H491Z"/><path class="cls-1" d="M515.65,135.57a7.86,7.86,0,0,1-6.66-3.16,12.63,12.63,0,0,1-2.39-7.84,11.29,11.29,0,0,1,2.69-7.9,8.67,8.67,0,0,1,6.69-3,8.17,8.17,0,0,1,6.75,3.11,12.11,12.11,0,0,1,2.47,7.77,11.64,11.64,0,0,1-2.66,7.92A8.73,8.73,0,0,1,515.65,135.57Zm.24-2.66a5.15,5.15,0,0,0,4.13-2c1.1-1.36,1.66-3.46,1.66-6.32s-.58-5-1.75-6.24a5.3,5.3,0,0,0-4.08-1.94,5.12,5.12,0,0,0-4.06,2q-1.67,1.95-1.66,6.2,0,4.5,1.66,6.43A5.21,5.21,0,0,0,515.89,132.91Z"/><path class="cls-1" d="M547,111.05v2.56a5.82,5.82,0,0,0-3,.51,2.74,2.74,0,0,0-1,1.85,7.47,7.47,0,0,1,2,5,6.43,6.43,0,0,1-2.16,4.86,8.12,8.12,0,0,1-5.81,2,7.31,7.31,0,0,1-1.42-.12,10.69,10.69,0,0,0-1.41-.23,2.54,2.54,0,0,0-1.34.55,1.64,1.64,0,0,0-.78,1.4,1.53,1.53,0,0,0,1.13,1.6,23.68,23.68,0,0,0,5.31.47,29.35,29.35,0,0,1,5.24.49,5.29,5.29,0,0,1,2.86,1.68,4.6,4.6,0,0,1,1.17,3.19q0,5.93-10.41,5.92-4.95,0-7.21-1.48a4.57,4.57,0,0,1-2.27-4,4.16,4.16,0,0,1,3.16-4.14,3.93,3.93,0,0,1-2-3.35c0-1.59,1-2.82,2.87-3.66a6.77,6.77,0,0,1-2.69-5.48,6.34,6.34,0,0,1,2.3-5,8.33,8.33,0,0,1,5.6-2,10.08,10.08,0,0,1,4.24.88,3.93,3.93,0,0,1,1.43-2.8,6,6,0,0,1,3.39-.78C546.31,111,546.58,111,547,111.05Zm-13.7,23.11q-2.25,1-2.25,2.85a2.7,2.7,0,0,0,1.85,2.45,11.2,11.2,0,0,0,4.73.87,15.1,15.1,0,0,0,4.88-.75c1.48-.5,2.22-1.34,2.22-2.53a2.07,2.07,0,0,0-.66-1.58,3.25,3.25,0,0,0-1.79-.78,39.56,39.56,0,0,0-4-.24C536,134.39,534.34,134.3,533.26,134.16Zm3.86-8.76a4.57,4.57,0,0,0,3.34-1.26,4.37,4.37,0,0,0,1.29-3.27,4.44,4.44,0,0,0-1.34-3.35,4.51,4.51,0,0,0-3.25-1.31,4.79,4.79,0,0,0-3.24,1.23,4.86,4.86,0,0,0-.14,6.72A4.55,4.55,0,0,0,537.12,125.4Z"/><path class="cls-1" d="M577.38,135H574.2a35.34,35.34,0,0,1-.37-3.73,7.45,7.45,0,0,1-7.26,4.3,7.27,7.27,0,0,1-5.35-1.84,6,6,0,0,1-1.87-4.44,6.22,6.22,0,0,1,2.67-5.17q2.65-2,9.06-2c.57,0,1.49,0,2.75.08a12.07,12.07,0,0,0-.38-3.56,3.17,3.17,0,0,0-1.61-1.75,6.85,6.85,0,0,0-3.24-.66q-4.9,0-5.7,3.74l-3-.52q1.1-5.72,9.15-5.72c2.86,0,4.88.64,6.08,1.9s1.8,3.46,1.8,6.57V131A17.39,17.39,0,0,0,577.38,135Zm-3.55-10.36q-2-.12-3-.12a11.72,11.72,0,0,0-5.92,1.25,4,4,0,0,0-2.12,3.66,3.41,3.41,0,0,0,1.14,2.59,4.61,4.61,0,0,0,3.29,1.07A6.1,6.1,0,0,0,572,131a7.29,7.29,0,0,0,1.88-5C573.89,125.62,573.87,125.16,573.83,124.64Z"/><path class="cls-1" d="M599.69,135h-2.91v-4q-2.22,4.53-6.6,4.53a6.22,6.22,0,0,1-5-2.09,8.82,8.82,0,0,1-1.82-5.95V114.29h3.22v13.22c0,2.06.43,3.47,1.28,4.24a4.15,4.15,0,0,0,2.83,1.16,4.9,4.9,0,0,0,2.82-.88,6.79,6.79,0,0,0,2.1-2.52,7.62,7.62,0,0,0,.84-3.55V114.29h3.22Z"/><path class="cls-1" d="M615.52,132.81v2.54a22.8,22.8,0,0,1-2.95.22q-6,0-6-6.28V116.81h-3.67v-2.52h3.67l.14-5.21,3-.29v5.5h4.63v2.52H609.7v13c0,2.13,1.1,3.2,3.32,3.2A15.78,15.78,0,0,0,615.52,132.81Z"/><path class="cls-1" d="M625.83,135.57a7.85,7.85,0,0,1-6.65-3.16,12.63,12.63,0,0,1-2.39-7.84,11.29,11.29,0,0,1,2.69-7.9,8.67,8.67,0,0,1,6.68-3,8.18,8.18,0,0,1,6.76,3.11,12.11,12.11,0,0,1,2.47,7.77,11.69,11.69,0,0,1-2.66,7.92A8.73,8.73,0,0,1,625.83,135.57Zm.25-2.66a5.12,5.12,0,0,0,4.12-2c1.11-1.36,1.66-3.46,1.66-6.32s-.58-5-1.74-6.24a5.3,5.3,0,0,0-4.08-1.94,5.12,5.12,0,0,0-4.06,2q-1.66,1.95-1.66,6.2,0,4.5,1.66,6.43A5.2,5.2,0,0,0,626.08,132.91Z"/><path class="cls-1" d="M668,135h-3.14V122.12a11.59,11.59,0,0,0-.28-3,3.56,3.56,0,0,0-1.34-1.83,3.82,3.82,0,0,0-2.4-.83,5.1,5.1,0,0,0-3.56,1.69,7,7,0,0,0-1.71,5.16V135h-3.12V121.36c0-1.82-.43-3.1-1.3-3.85a4.1,4.1,0,0,0-2.74-1.13,4.59,4.59,0,0,0-3.56,1.76,6.58,6.58,0,0,0-1.52,4.47V135h-3.08V114.29H643v4q2.31-4.56,6.38-4.56a5.35,5.35,0,0,1,3.79,1.46,6.64,6.64,0,0,1,2,3.51q2.13-5,6.54-5a6,6,0,0,1,3.71,1.21,5.72,5.72,0,0,1,2.07,2.78,15.85,15.85,0,0,1,.48,4.42Z"/><path class="cls-1" d="M690.62,135h-3.18c-.12-.66-.24-1.9-.37-3.73a7.45,7.45,0,0,1-7.26,4.3,7.29,7.29,0,0,1-5.35-1.84,6.07,6.07,0,0,1-1.87-4.44,6.22,6.22,0,0,1,2.67-5.17q2.67-2,9.06-2c.58,0,1.49,0,2.75.08a11.74,11.74,0,0,0-.38-3.56,3.17,3.17,0,0,0-1.61-1.75,6.85,6.85,0,0,0-3.24-.66c-3.26,0-5.17,1.25-5.7,3.74l-3-.52q1.08-5.72,9.14-5.72c2.86,0,4.89.64,6.08,1.9s1.8,3.46,1.8,6.57V131A17.39,17.39,0,0,0,690.62,135Zm-3.55-10.36c-1.31-.08-2.31-.12-3-.12a11.76,11.76,0,0,0-5.93,1.25,4,4,0,0,0-2.11,3.66,3.41,3.41,0,0,0,1.14,2.59,4.59,4.59,0,0,0,3.29,1.07,6.12,6.12,0,0,0,4.79-2.11,7.28,7.28,0,0,0,1.87-5C687.13,125.62,687.11,125.16,687.07,124.64Z"/><path class="cls-1" d="M706,132.81v2.54a22.8,22.8,0,0,1-2.95.22q-6,0-6-6.28V116.81h-3.67v-2.52h3.67l.14-5.21,3-.29v5.5h4.63v2.52H700.2v13c0,2.13,1.1,3.2,3.32,3.2A15.78,15.78,0,0,0,706,132.81Z"/><path class="cls-1" d="M712.87,107v3.59H709.4V107Zm-.1,7.28V135h-3.22V114.29Z"/><path class="cls-1" d="M716.4,129.63l3.07-.64q1,3.91,6.48,3.92a6.17,6.17,0,0,0,3.41-.9,2.86,2.86,0,0,0,1.39-2.54q0-2.44-3.55-3.1l-4.36-.82a8,8,0,0,1-4.08-1.93,5,5,0,0,1-1.52-3.8,5.48,5.48,0,0,1,2.07-4.35,8.35,8.35,0,0,1,5.58-1.76q6.75,0,8.32,5.27l-3,.64q-1.28-3.24-5.23-3.24a5.88,5.88,0,0,0-3.23.81,2.54,2.54,0,0,0-1.26,2.26q0,2.3,3.22,2.89l4,.72q6.33,1.16,6.34,6.15a5.49,5.49,0,0,1-2.36,4.61,10.28,10.28,0,0,1-6.28,1.75Q718.14,135.57,716.4,129.63Z"/><path class="cls-1" d="M755.77,135h-3.34l-6-11.56-4.49,5.16V135h-3.22V107h3.22V125l9.62-10.66H755l-6.47,7.27Z"/><path class="cls-1" d="M778.8,114.29v2.52h-4.92V135h-3.22V116.81h-3.53v-2.52h3.53c.06-3.33.69-5.46,1.92-6.42a7,7,0,0,1,4.48-1.44,17.64,17.64,0,0,1,3,.29v2.56a8.37,8.37,0,0,0-2-.26,4.49,4.49,0,0,0-3.12.93c-.68.62-1,1.79-1,3.5v.84Z"/><path class="cls-1" d="M789.26,135.57a7.85,7.85,0,0,1-6.65-3.16,12.57,12.57,0,0,1-2.39-7.84,11.25,11.25,0,0,1,2.69-7.9,8.65,8.65,0,0,1,6.68-3,8.18,8.18,0,0,1,6.76,3.11,12.11,12.11,0,0,1,2.47,7.77,11.64,11.64,0,0,1-2.67,7.92A8.7,8.7,0,0,1,789.26,135.57Zm.25-2.66a5.13,5.13,0,0,0,4.12-2c1.11-1.36,1.66-3.46,1.66-6.32s-.58-5-1.74-6.24a5.3,5.3,0,0,0-4.08-1.94,5.11,5.11,0,0,0-4.06,2q-1.67,1.95-1.66,6.2,0,4.5,1.66,6.43A5.18,5.18,0,0,0,789.51,132.91Z"/><path class="cls-1" d="M806.88,135h-3.22V114.29h2.83v4.84q1.5-3.43,3-4.44a5.48,5.48,0,0,1,3.09-1c.33,0,.75,0,1.27.08v3.08h-.65a5.65,5.65,0,0,0-4.43,2,8.05,8.05,0,0,0-1.89,5.23Z"/><path class="cls-1" d="M819.06,135H817.5V107h3.22v10.72c1.48-2.68,3.51-4,6.11-4a7.58,7.58,0,0,1,6,2.81q2.41,2.82,2.41,8.17a12.45,12.45,0,0,1-2.37,7.75,7.37,7.37,0,0,1-6.16,3.13,7.08,7.08,0,0,1-6.48-4Zm1.66-8.12a6.32,6.32,0,0,0,2,4.63,5.67,5.67,0,0,0,3.67,1.44,4.66,4.66,0,0,0,4-2.14,10,10,0,0,0,1.51-5.85,11.64,11.64,0,0,0-1.46-6.29,4.56,4.56,0,0,0-4-2.29,5.06,5.06,0,0,0-3.67,1.63,6.93,6.93,0,0,0-1.94,4.21Z"/><path class="cls-1" d="M853.74,128.83l3,.61a8.39,8.39,0,0,1-3.2,4.4,9.2,9.2,0,0,1-5.6,1.73,8.71,8.71,0,0,1-6.87-3,11.42,11.42,0,0,1-2.62-7.83,11.54,11.54,0,0,1,2.73-8,8.81,8.81,0,0,1,6.85-3.05,8.29,8.29,0,0,1,6.53,2.81q2.48,2.82,2.53,8.41H842c0,3.13.65,5.24,2,6.34a6.42,6.42,0,0,0,4.16,1.64Q852.12,132.91,853.74,128.83Zm-.19-6.3a9,9,0,0,0-.57-3.1,5.27,5.27,0,0,0-1.81-2.3,4.89,4.89,0,0,0-3-1,5.45,5.45,0,0,0-4.07,1.73,7.09,7.09,0,0,0-1.88,4.63Z"/><path class="cls-1" d="M878.1,107v28h-2.91v-3.55a7,7,0,0,1-6.55,4.12,7.22,7.22,0,0,1-6-3,12.32,12.32,0,0,1-2.34-7.71,13.08,13.08,0,0,1,2.32-7.94,7.25,7.25,0,0,1,6.15-3.17,7.13,7.13,0,0,1,6.09,3.41V107Zm-3.22,15.28a5.85,5.85,0,0,0-1.66-4.37,5.33,5.33,0,0,0-3.88-1.64,4.69,4.69,0,0,0-3.94,2.13,10,10,0,0,0-1.55,6,11.57,11.57,0,0,0,1.42,6.33,4.46,4.46,0,0,0,3.91,2.18,5.26,5.26,0,0,0,4-1.89,6.34,6.34,0,0,0,1.72-4.43Z"/><path class="cls-1" d="M887.76,135h-3.22V114.29h2.83v4.84q1.5-3.43,3-4.44a5.42,5.42,0,0,1,3.08-1c.33,0,.75,0,1.27.08v3.08h-.65a5.65,5.65,0,0,0-4.43,2,8.05,8.05,0,0,0-1.89,5.23Z"/><path class="cls-1" d="M901.71,107v3.59h-3.47V107Zm-.11,7.28V135h-3.22V114.29Z"/><path class="cls-1" d="M924.35,135h-3V121.69c0-1.91-.41-3.26-1.25-4a4.26,4.26,0,0,0-3-1.17,5.24,5.24,0,0,0-4.14,2,7.76,7.76,0,0,0-1.67,5.19V135H908V114.29h3v3.81c1.68-2.92,3.86-4.39,6.54-4.39a6.5,6.5,0,0,1,4,1.2,6.37,6.37,0,0,1,2.23,2.7,16.43,16.43,0,0,1,.61,5.41Z"/><path class="cls-1" d="M947.71,111.05v2.56a5.84,5.84,0,0,0-3,.51,2.7,2.7,0,0,0-1,1.85,7.52,7.52,0,0,1,2,5,6.44,6.44,0,0,1-2.17,4.86,8.12,8.12,0,0,1-5.81,2,7.31,7.31,0,0,1-1.42-.12,10.69,10.69,0,0,0-1.41-.23,2.51,2.51,0,0,0-1.33.55,1.64,1.64,0,0,0-.78,1.4,1.52,1.52,0,0,0,1.12,1.6,23.87,23.87,0,0,0,5.32.47,29.56,29.56,0,0,1,5.24.49,5.32,5.32,0,0,1,2.86,1.68,4.6,4.6,0,0,1,1.17,3.19q0,5.93-10.42,5.92-5,0-7.21-1.48a4.57,4.57,0,0,1-2.27-4,4.17,4.17,0,0,1,3.16-4.14,3.93,3.93,0,0,1-2-3.35c0-1.59,1-2.82,2.87-3.66a6.76,6.76,0,0,1-2.68-5.48,6.33,6.33,0,0,1,2.29-5,8.33,8.33,0,0,1,5.6-2,10.16,10.16,0,0,1,4.25.88,3.92,3.92,0,0,1,1.42-2.8,6,6,0,0,1,3.4-.78C947.06,111,947.32,111,947.71,111.05ZM934,134.16c-1.51.66-2.26,1.61-2.26,2.85a2.7,2.7,0,0,0,1.86,2.45,11.12,11.12,0,0,0,4.72.87,15.1,15.1,0,0,0,4.88-.75c1.48-.5,2.22-1.34,2.22-2.53a2.07,2.07,0,0,0-.66-1.58,3.22,3.22,0,0,0-1.79-.78,39.34,39.34,0,0,0-4-.24C936.75,134.39,935.09,134.3,934,134.16Zm3.85-8.76a4.57,4.57,0,0,0,3.34-1.26,4.34,4.34,0,0,0,1.3-3.27,4.45,4.45,0,0,0-1.35-3.35,4.49,4.49,0,0,0-3.25-1.31,4.82,4.82,0,0,0-3.24,1.23,4.89,4.89,0,0,0-.14,6.72A4.57,4.57,0,0,0,937.86,125.4Z"/><path class="cls-1" d="M380.6,183.21v2.54a22.8,22.8,0,0,1-3,.22q-6,0-6-6.28V167.21H368v-2.52h3.67l.14-5.21,3-.29v5.5h4.63v2.52h-4.63v13q0,3.2,3.32,3.2A15.78,15.78,0,0,0,380.6,183.21Z"/><path class="cls-1" d="M387.45,157.41V161H384v-3.59Zm-.1,7.28V185.4h-3.22V164.69Z"/><path class="cls-1" d="M397,185.4h-3.22v-28H397Z"/><path class="cls-1" d="M430.13,185.4H427c-.12-.66-.25-1.9-.37-3.73a7.45,7.45,0,0,1-7.26,4.3,7.29,7.29,0,0,1-5.35-1.84,6.07,6.07,0,0,1-1.87-4.44,6.22,6.22,0,0,1,2.67-5.17q2.67-2,9.06-2c.58,0,1.49,0,2.75.08a11.74,11.74,0,0,0-.38-3.56,3.17,3.17,0,0,0-1.61-1.75,6.85,6.85,0,0,0-3.24-.66q-4.91,0-5.7,3.74l-3-.52q1.08-5.72,9.14-5.72c2.86,0,4.89.64,6.08,1.9s1.8,3.46,1.8,6.57v8.8A17.39,17.39,0,0,0,430.13,185.4ZM426.58,175c-1.31-.08-2.31-.12-3-.12a11.73,11.73,0,0,0-5.93,1.25,4,4,0,0,0-2.11,3.66,3.41,3.41,0,0,0,1.14,2.59,4.59,4.59,0,0,0,3.29,1.07,6.12,6.12,0,0,0,4.79-2.11,7.28,7.28,0,0,0,1.87-5C426.64,176,426.62,175.56,426.58,175Zm-1.35-16.83a3.53,3.53,0,0,1-3.53,3.52,3.46,3.46,0,0,1-2.52-1,3.39,3.39,0,0,1-1.07-2.5,3.45,3.45,0,0,1,1.06-2.51,3.51,3.51,0,0,1,2.61-1.06,3.28,3.28,0,0,1,2.41,1A3.51,3.51,0,0,1,425.23,158.21Zm-1.7,0a1.83,1.83,0,0,0-.54-1.33,1.63,1.63,0,0,0-1.21-.55,1.88,1.88,0,0,0-1.42.55A1.86,1.86,0,0,0,421.7,160a1.73,1.73,0,0,0,1.29-.54A1.76,1.76,0,0,0,423.53,158.2Z"/><path class="cls-1" d="M443.85,180l3.08-.64q1,3.92,6.48,3.92a6.13,6.13,0,0,0,3.4-.9,2.86,2.86,0,0,0,1.39-2.54q0-2.44-3.54-3.1l-4.37-.82a8,8,0,0,1-4.08-1.93,5,5,0,0,1-1.52-3.8,5.48,5.48,0,0,1,2.07-4.35,8.35,8.35,0,0,1,5.58-1.76q6.75,0,8.33,5.27l-3,.64q-1.27-3.24-5.23-3.24a5.88,5.88,0,0,0-3.23.81,2.54,2.54,0,0,0-1.26,2.26q0,2.29,3.22,2.89l4,.72q6.35,1.15,6.34,6.15a5.49,5.49,0,0,1-2.36,4.61A10.26,10.26,0,0,1,453,186Q445.6,186,443.85,180Z"/><path class="cls-1" d="M475.51,183.21v2.54a22.8,22.8,0,0,1-2.95.22q-6,0-6-6.28V167.21h-3.67v-2.52h3.67l.14-5.21,3-.29v5.5h4.63v2.52h-4.63v13q0,3.2,3.32,3.2A15.78,15.78,0,0,0,475.51,183.21Z"/><path class="cls-1" d="M493.26,164.69,485,187.82c-1.2,3.34-3.12,5-5.76,5a10.07,10.07,0,0,1-2.77-.43v-2.52a9.91,9.91,0,0,0,2.15.29,3.87,3.87,0,0,0,2.57-.88q1-.89,2.07-4.3L476,164.69h3.27l5.56,15.56,5.67-15.56Z"/><path class="cls-1" d="M499.69,185.4h-3.22V164.69h2.83v4.84q1.5-3.43,3-4.44a5.42,5.42,0,0,1,3.08-1c.33,0,.75,0,1.27.08v3.08H506a5.65,5.65,0,0,0-4.43,2,8.05,8.05,0,0,0-1.89,5.23Z"/><path class="cls-1" d="M527.21,185.4h-3.33l-6.06-11.56L513.33,179v6.4h-3.22v-28h3.22v17.94L523,164.69h3.44L519.92,172Z"/><path class="cls-1" d="M543.91,179.23l3,.61a8.45,8.45,0,0,1-3.2,4.4,9.2,9.2,0,0,1-5.6,1.73,8.71,8.71,0,0,1-6.87-3,11.42,11.42,0,0,1-2.62-7.83,11.58,11.58,0,0,1,2.72-8,8.83,8.83,0,0,1,6.85-3,8.3,8.3,0,0,1,6.54,2.81c1.64,1.88,2.49,4.68,2.53,8.41h-15c0,3.13.65,5.24,2,6.34a6.42,6.42,0,0,0,4.16,1.64Q542.29,183.31,543.91,179.23Zm-.19-6.3a9.25,9.25,0,0,0-.57-3.1,5.27,5.27,0,0,0-1.81-2.3,4.89,4.89,0,0,0-3.05-1,5.45,5.45,0,0,0-4.07,1.73,7.09,7.09,0,0,0-1.88,4.63Z"/><path class="cls-1" d="M578.77,157.41v28h-2.91v-3.55a7,7,0,0,1-6.55,4.12,7.22,7.22,0,0,1-6-3,12.32,12.32,0,0,1-2.34-7.71,13.08,13.08,0,0,1,2.32-7.94,7.25,7.25,0,0,1,6.15-3.17,7.13,7.13,0,0,1,6.09,3.41V157.41Zm-3.22,15.28a5.85,5.85,0,0,0-1.66-4.37,5.33,5.33,0,0,0-3.88-1.64,4.71,4.71,0,0,0-4,2.13,10.07,10.07,0,0,0-1.54,6,11.57,11.57,0,0,0,1.42,6.33,4.45,4.45,0,0,0,3.91,2.18,5.26,5.26,0,0,0,4-1.89,6.34,6.34,0,0,0,1.72-4.43Z"/><path class="cls-1" d="M588.53,157.41V161h-3.46v-3.59Zm-.1,7.28V185.4h-3.22V164.69Z"/><path class="cls-1" d="M611.17,185.4h-3V172.09c0-1.91-.42-3.26-1.25-4a4.3,4.3,0,0,0-3-1.17,5.21,5.21,0,0,0-4.13,2,7.76,7.76,0,0,0-1.67,5.19V185.4h-3.22V164.69h3v3.81c1.68-2.92,3.87-4.39,6.54-4.39a6.64,6.64,0,0,1,6.19,3.9,16.5,16.5,0,0,1,.6,5.41Z"/><path class="cls-1" d="M631.43,157.41V161H628v-3.59Zm-.1,7.28V185.4h-3.22V164.69Z"/><path class="cls-1" d="M654.08,185.4h-3V172.09c0-1.91-.42-3.26-1.25-4a4.29,4.29,0,0,0-3-1.17,5.23,5.23,0,0,0-4.13,2A7.76,7.76,0,0,0,641,174V185.4h-3.22V164.69h3v3.81c1.68-2.92,3.86-4.39,6.54-4.39a6.45,6.45,0,0,1,3.94,1.2,6.33,6.33,0,0,1,2.24,2.7,16.43,16.43,0,0,1,.61,5.41Z"/><path class="cls-1" d="M676.84,185.4h-3V172.09c0-1.91-.41-3.26-1.25-4a4.26,4.26,0,0,0-3-1.17,5.21,5.21,0,0,0-4.13,2,7.71,7.71,0,0,0-1.68,5.19V185.4h-3.22V164.69h3v3.81c1.68-2.92,3.86-4.39,6.54-4.39a6.48,6.48,0,0,1,4,1.2,6.3,6.3,0,0,1,2.23,2.7,16.16,16.16,0,0,1,.61,5.41Z"/><path class="cls-1" d="M690.7,186a7.85,7.85,0,0,1-6.65-3.16,12.57,12.57,0,0,1-2.39-7.84,11.29,11.29,0,0,1,2.68-7.9,8.69,8.69,0,0,1,6.69-3,8.18,8.18,0,0,1,6.76,3.11,12.17,12.17,0,0,1,2.47,7.77,11.64,11.64,0,0,1-2.67,7.92A8.7,8.7,0,0,1,690.7,186Zm.25-2.66a5.13,5.13,0,0,0,4.12-2c1.11-1.36,1.66-3.46,1.66-6.32s-.58-5-1.74-6.24a5.3,5.3,0,0,0-4.08-1.94,5.11,5.11,0,0,0-4.06,2q-1.67,1.95-1.66,6.2,0,4.5,1.66,6.43A5.18,5.18,0,0,0,691,183.31Z"/><path class="cls-1" d="M719.56,164.69l-7.17,20.71h-3.31l-7.43-20.71h3.57L711,181.52l5.7-16.83Z"/><path class="cls-1" d="M739.08,185.4H735.9c-.12-.66-.25-1.9-.37-3.73a7.45,7.45,0,0,1-7.26,4.3,7.29,7.29,0,0,1-5.35-1.84,6,6,0,0,1-1.87-4.44,6.22,6.22,0,0,1,2.67-5.17q2.67-2,9.06-2c.58,0,1.49,0,2.75.08a12.07,12.07,0,0,0-.38-3.56,3.17,3.17,0,0,0-1.61-1.75,6.85,6.85,0,0,0-3.24-.66q-4.9,0-5.7,3.74l-3-.52q1.08-5.72,9.14-5.72c2.86,0,4.89.64,6.08,1.9s1.8,3.46,1.8,6.57v8.8A17.39,17.39,0,0,0,739.08,185.4ZM735.53,175c-1.31-.08-2.31-.12-3-.12a11.73,11.73,0,0,0-5.93,1.25,4,4,0,0,0-2.11,3.66,3.41,3.41,0,0,0,1.14,2.59,4.57,4.57,0,0,0,3.29,1.07,6.13,6.13,0,0,0,4.79-2.11,7.28,7.28,0,0,0,1.87-5C735.59,176,735.57,175.56,735.53,175Z"/><path class="cls-1" d="M742.3,180l3.08-.64q1,3.92,6.48,3.92a6.13,6.13,0,0,0,3.4-.9,2.86,2.86,0,0,0,1.4-2.54c0-1.63-1.19-2.66-3.55-3.1l-4.37-.82a8,8,0,0,1-4.08-1.93,5,5,0,0,1-1.52-3.8,5.48,5.48,0,0,1,2.07-4.35,8.35,8.35,0,0,1,5.58-1.76q6.75,0,8.33,5.27l-3,.64c-.84-2.16-2.59-3.24-5.23-3.24a5.88,5.88,0,0,0-3.23.81,2.54,2.54,0,0,0-1.26,2.26c0,1.53,1.08,2.49,3.22,2.89l4,.72q6.34,1.15,6.34,6.15a5.49,5.49,0,0,1-2.36,4.61,10.25,10.25,0,0,1-6.27,1.75Q744,186,742.3,180Z"/><path class="cls-1" d="M767.79,164.46V186q0,3.65-1.73,5.08a6.43,6.43,0,0,1-4.24,1.44,13.61,13.61,0,0,1-3-.43v-2.55a10.35,10.35,0,0,0,2.36.31,3.39,3.39,0,0,0,2.61-.87,4.44,4.44,0,0,0,.79-3V164.46Zm.17-7.05V161H764.3v-3.59Z"/><path class="cls-1" d="M781.61,186a7.85,7.85,0,0,1-6.65-3.16,12.57,12.57,0,0,1-2.39-7.84,11.29,11.29,0,0,1,2.68-7.9,8.69,8.69,0,0,1,6.69-3,8.18,8.18,0,0,1,6.76,3.11,12.17,12.17,0,0,1,2.47,7.77,11.64,11.64,0,0,1-2.67,7.92A8.7,8.7,0,0,1,781.61,186Zm.25-2.66a5.13,5.13,0,0,0,4.12-2c1.11-1.36,1.66-3.46,1.66-6.32s-.58-5-1.74-6.24a5.3,5.3,0,0,0-4.08-1.94,5.11,5.11,0,0,0-4.06,2q-1.66,1.95-1.66,6.2,0,4.5,1.66,6.43A5.18,5.18,0,0,0,781.86,183.31Z"/><path class="cls-1" d="M812.33,185.4h-3V172.09c0-1.91-.42-3.26-1.25-4a4.3,4.3,0,0,0-3-1.17,5.21,5.21,0,0,0-4.13,2,7.76,7.76,0,0,0-1.67,5.19V185.4H796V164.69h3v3.81c1.68-2.92,3.87-4.39,6.54-4.39a6.64,6.64,0,0,1,6.19,3.9,16.5,16.5,0,0,1,.6,5.41Z"/></svg>