<svg id="Layer_1" data-name="Layer 1" xmlns="http://www.w3.org/2000/svg" viewBox="0 0 980 300"><defs><style>.cls-1{fill:#fff;}</style></defs><title>text</title><path class="cls-1" d="M57.84,266.79v2.27H45.64V248.4h2.65v18.39Z"/><path class="cls-1" d="M70.71,264.51l2.21.45a6.18,6.18,0,0,1-2.37,3.24,6.77,6.77,0,0,1-4.13,1.29,6.43,6.43,0,0,1-5.07-2.21,9.6,9.6,0,0,1,.08-11.68,6.48,6.48,0,0,1,5.05-2.25,6.1,6.1,0,0,1,4.82,2.07q1.83,2.09,1.87,6.21H62.06q0,3.47,1.46,4.68a4.74,4.74,0,0,0,3.07,1.21A4.21,4.21,0,0,0,70.71,264.51Zm-.14-4.65a6.72,6.72,0,0,0-.42-2.29,4,4,0,0,0-1.34-1.7,3.61,3.61,0,0,0-2.25-.7,4,4,0,0,0-3,1.27,5.28,5.28,0,0,0-1.38,3.42Z"/><path class="cls-1" d="M74.69,265.1l2.27-.47c.5,1.92,2.1,2.89,4.78,2.89a4.46,4.46,0,0,0,2.51-.67,2.1,2.1,0,0,0,1-1.87c0-1.2-.87-2-2.62-2.28l-3.22-.62a5.81,5.81,0,0,1-3-1.42,3.65,3.65,0,0,1-1.12-2.8,4.07,4.07,0,0,1,1.53-3.22A6.17,6.17,0,0,1,81,253.35q5,0,6.15,3.89l-2.18.47a3.73,3.73,0,0,0-3.86-2.39,4.39,4.39,0,0,0-2.38.59,1.88,1.88,0,0,0-.94,1.68c0,1.12.8,1.83,2.38,2.13l3,.53q4.68.86,4.68,4.54a4.05,4.05,0,0,1-1.74,3.4,7.61,7.61,0,0,1-4.63,1.3C77.78,269.49,75.54,268,74.69,265.1Z"/><path class="cls-1" d="M119.36,269.06H117v-9.5a8.65,8.65,0,0,0-.21-2.21,2.56,2.56,0,0,0-1-1.34,2.79,2.79,0,0,0-1.77-.62,3.73,3.73,0,0,0-2.62,1.25,5.11,5.11,0,0,0-1.27,3.81v8.61h-2.3V259a3.61,3.61,0,0,0-1-2.85,3.06,3.06,0,0,0-2-.83,3.35,3.35,0,0,0-2.63,1.3,4.87,4.87,0,0,0-1.12,3.3v9.14H98.88V253.77h2v2.94q1.71-3.36,4.71-3.36a4,4,0,0,1,2.8,1.07,5,5,0,0,1,1.48,2.59q1.57-3.66,4.83-3.66a4.4,4.4,0,0,1,2.73.89,4.17,4.17,0,0,1,1.53,2.05,11.57,11.57,0,0,1,.36,3.27Z"/><path class="cls-1" d="M134.2,264.51l2.21.45a6.16,6.16,0,0,1-2.36,3.24,6.79,6.79,0,0,1-4.13,1.29,6.43,6.43,0,0,1-5.07-2.21,9.6,9.6,0,0,1,.08-11.68,6.48,6.48,0,0,1,5-2.25,6.1,6.1,0,0,1,4.82,2.07q1.83,2.09,1.87,6.21H125.56c0,2.31.49,3.87,1.45,4.68a4.79,4.79,0,0,0,3.08,1.21A4.2,4.2,0,0,0,134.2,264.51Zm-.13-4.65a6.49,6.49,0,0,0-.43-2.29,3.88,3.88,0,0,0-1.33-1.7,3.61,3.61,0,0,0-2.25-.7,4,4,0,0,0-3,1.27,5.28,5.28,0,0,0-1.38,3.42Z"/><path class="cls-1" d="M142.62,269.06h-2.38V253.77h2.09v3.58a7.7,7.7,0,0,1,2.22-3.28,4,4,0,0,1,2.28-.75c.24,0,.55,0,.94.06v2.27h-.49a4.19,4.19,0,0,0-3.27,1.47,6,6,0,0,0-1.39,3.86Z"/><path class="cls-1" d="M163.69,269.49a5.79,5.79,0,0,1-4.91-2.34,9.28,9.28,0,0,1-1.76-5.79,8.36,8.36,0,0,1,2-5.83,6.41,6.41,0,0,1,4.93-2.18,6.06,6.06,0,0,1,5,2.29,9,9,0,0,1,1.83,5.74,8.6,8.6,0,0,1-2,5.84A6.45,6.45,0,0,1,163.69,269.49Zm.18-2a3.8,3.8,0,0,0,3-1.5,7.34,7.34,0,0,0,1.22-4.66c0-2.12-.43-3.66-1.29-4.61a3.9,3.9,0,0,0-3-1.43,3.77,3.77,0,0,0-3,1.44,7,7,0,0,0-1.23,4.58c0,2.21.41,3.79,1.23,4.75A3.82,3.82,0,0,0,163.87,267.52Z"/><path class="cls-1" d="M194.8,269.06h-2.32v-9.5a9.24,9.24,0,0,0-.2-2.21,2.67,2.67,0,0,0-1-1.34,2.84,2.84,0,0,0-1.78-.62,3.75,3.75,0,0,0-2.62,1.25,5.11,5.11,0,0,0-1.27,3.81v8.61h-2.3V259a3.61,3.61,0,0,0-1-2.85,3.06,3.06,0,0,0-2-.83,3.35,3.35,0,0,0-2.63,1.3,4.87,4.87,0,0,0-1.12,3.3v9.14h-2.27V253.77h2v2.94q1.71-3.36,4.71-3.36a4,4,0,0,1,2.8,1.07,5,5,0,0,1,1.48,2.59q1.58-3.66,4.83-3.66a4.4,4.4,0,0,1,2.73.89,4.17,4.17,0,0,1,1.53,2.05,11.57,11.57,0,0,1,.36,3.27Z"/><path class="cls-1" d="M220.88,266.79v2.27H207.51V248.4h13.08v2.27H210.1v6.57h8.33v2.1H210.1v7.45Z"/><path class="cls-1" d="M226.66,274.22h-2.38V253.77h2.15v3q1.62-3.39,4.82-3.39a5.17,5.17,0,0,1,4.37,2.27,10.89,10.89,0,0,1-.05,11.67,5.33,5.33,0,0,1-4.38,2.2,5.08,5.08,0,0,1-4.53-2.74Zm0-15v4.31a4.55,4.55,0,0,0,1.47,2.87,3.84,3.84,0,0,0,2.59,1.13,3.64,3.64,0,0,0,2.76-1.36q1.2-1.37,1.2-4.71a7.71,7.71,0,0,0-1.09-4.46,3.37,3.37,0,0,0-2.89-1.57,3.54,3.54,0,0,0-2.55,1.11A5.37,5.37,0,0,0,226.66,259.21Z"/><path class="cls-1" d="M243.29,248.4v2.65h-2.55V248.4Zm-.07,5.37v15.29h-2.38V253.77Z"/><path class="cls-1" d="M245.9,265.1l2.27-.47c.5,1.92,2.1,2.89,4.78,2.89a4.46,4.46,0,0,0,2.51-.67,2.1,2.1,0,0,0,1-1.87c0-1.2-.87-2-2.62-2.28l-3.22-.62a5.85,5.85,0,0,1-3-1.42,3.65,3.65,0,0,1-1.12-2.8,4.07,4.07,0,0,1,1.53-3.22,6.17,6.17,0,0,1,4.11-1.29q5,0,6.15,3.89l-2.18.47a3.73,3.73,0,0,0-3.86-2.39,4.39,4.39,0,0,0-2.38.59,1.89,1.89,0,0,0-.93,1.68q0,1.68,2.37,2.13l3,.53q4.68.86,4.68,4.54a4.05,4.05,0,0,1-1.74,3.4,7.59,7.59,0,0,1-4.63,1.3C249,269.49,246.76,268,245.9,265.1Z"/><path class="cls-1" d="M272.43,264.51l2.21.45a6.16,6.16,0,0,1-2.36,3.24,6.79,6.79,0,0,1-4.13,1.29,6.43,6.43,0,0,1-5.07-2.21,9.62,9.62,0,0,1,.07-11.68,6.52,6.52,0,0,1,5.06-2.25,6.1,6.1,0,0,1,4.82,2.07q1.83,2.09,1.87,6.21H263.79c0,2.31.49,3.87,1.45,4.68a4.79,4.79,0,0,0,3.08,1.21A4.2,4.2,0,0,0,272.43,264.51Zm-.13-4.65a6.49,6.49,0,0,0-.43-2.29,3.88,3.88,0,0,0-1.33-1.7,3.63,3.63,0,0,0-2.25-.7,4,4,0,0,0-3,1.27,5.28,5.28,0,0,0-1.38,3.42Z"/><path class="cls-1" d="M280.85,269.06h-2.38V253.77h2.09v3.58a7.7,7.7,0,0,1,2.22-3.28,4,4,0,0,1,2.28-.75c.24,0,.55,0,.94.06v2.27h-.49a4.19,4.19,0,0,0-3.27,1.47,5.94,5.94,0,0,0-1.39,3.86Z"/><path class="cls-1" d="M300.69,253.77l-5.28,15.29H293l-5.48-15.29h2.64l4.25,12.43,4.21-12.43Z"/><path class="cls-1" d="M313.08,264.51l2.21.45a6.23,6.23,0,0,1-2.37,3.24,6.77,6.77,0,0,1-4.13,1.29,6.43,6.43,0,0,1-5.07-2.21,9.6,9.6,0,0,1,.08-11.68,6.48,6.48,0,0,1,5.05-2.25,6.1,6.1,0,0,1,4.82,2.07q1.83,2.09,1.87,6.21H304.43q0,3.47,1.46,4.68a4.74,4.74,0,0,0,3.07,1.21A4.21,4.21,0,0,0,313.08,264.51Zm-.14-4.65a6.49,6.49,0,0,0-.43-2.29,3.88,3.88,0,0,0-1.33-1.7,3.61,3.61,0,0,0-2.25-.7,4,4,0,0,0-3,1.27,5.28,5.28,0,0,0-1.38,3.42Z"/><path class="cls-1" d="M321.49,269.06h-2.37V253.77h2.08v3.58a7.7,7.7,0,0,1,2.22-3.28,4,4,0,0,1,2.28-.75c.24,0,.55,0,.94.06v2.27h-.49a4.19,4.19,0,0,0-3.27,1.47,6,6,0,0,0-1.39,3.86Z"/><path class="cls-1" d="M349.68,262.11l2.36.53q-1.69,6.86-7.66,6.85a7.13,7.13,0,0,1-6.16-3.17,13.24,13.24,0,0,1-2.23-7.79,11.86,11.86,0,0,1,2.33-7.66,7.62,7.62,0,0,1,6.25-2.89q5.82,0,7.47,6.64l-2.44.49q-1.34-4.94-5-4.94a4.82,4.82,0,0,0-4.25,2.29,11.73,11.73,0,0,0-1.5,6.44,10.75,10.75,0,0,0,1.54,6.1,4.72,4.72,0,0,0,4.09,2.29Q348.39,267.29,349.68,262.11Z"/><path class="cls-1" d="M360.51,269.49a5.81,5.81,0,0,1-4.91-2.34,9.34,9.34,0,0,1-1.76-5.79,8.36,8.36,0,0,1,2-5.83,6.41,6.41,0,0,1,4.94-2.18,6,6,0,0,1,5,2.29,9,9,0,0,1,1.83,5.74,8.6,8.6,0,0,1-2,5.84A6.43,6.43,0,0,1,360.51,269.49Zm.19-2a3.78,3.78,0,0,0,3-1.5,7.28,7.28,0,0,0,1.22-4.66c0-2.12-.42-3.66-1.28-4.61a3.92,3.92,0,0,0-3-1.43,3.79,3.79,0,0,0-3,1.44,7,7,0,0,0-1.23,4.58c0,2.21.41,3.79,1.23,4.75A3.85,3.85,0,0,0,360.7,267.52Z"/><path class="cls-1" d="M391.62,269.06H389.3v-9.5a8.75,8.75,0,0,0-.2-2.21,2.67,2.67,0,0,0-1-1.34,2.83,2.83,0,0,0-1.77-.62,3.75,3.75,0,0,0-2.63,1.25,5.15,5.15,0,0,0-1.26,3.81v8.61h-2.3V259a3.61,3.61,0,0,0-1-2.85,3.11,3.11,0,0,0-2-.83,3.38,3.38,0,0,0-2.63,1.3,4.87,4.87,0,0,0-1.12,3.3v9.14h-2.27V253.77h2v2.94q1.71-3.36,4.71-3.36a4,4,0,0,1,2.8,1.07,4.89,4.89,0,0,1,1.48,2.59q1.57-3.66,4.83-3.66a4.45,4.45,0,0,1,2.74.89,4.09,4.09,0,0,1,1.52,2.05,11.57,11.57,0,0,1,.36,3.27Z"/><path class="cls-1" d="M416.85,269.06h-2.31v-9.5a8.65,8.65,0,0,0-.21-2.21,2.56,2.56,0,0,0-1-1.34,2.79,2.79,0,0,0-1.77-.62,3.77,3.77,0,0,0-2.63,1.25,5.15,5.15,0,0,0-1.26,3.81v8.61h-2.3V259a3.61,3.61,0,0,0-1-2.85,3.08,3.08,0,0,0-2-.83,3.39,3.39,0,0,0-2.64,1.3,4.92,4.92,0,0,0-1.12,3.3v9.14h-2.27V253.77h2.05v2.94q1.71-3.36,4.7-3.36a4,4,0,0,1,2.8,1.07,4.91,4.91,0,0,1,1.49,2.59q1.57-3.66,4.83-3.66a4.4,4.4,0,0,1,2.73.89,4.17,4.17,0,0,1,1.53,2.05,12,12,0,0,1,.35,3.27Z"/><path class="cls-1" d="M431.7,264.51l2.21.45a6.16,6.16,0,0,1-2.36,3.24,6.79,6.79,0,0,1-4.13,1.29,6.43,6.43,0,0,1-5.07-2.21,8.4,8.4,0,0,1-1.94-5.78,8.53,8.53,0,0,1,2-5.9,6.5,6.5,0,0,1,5.06-2.25,6.11,6.11,0,0,1,4.82,2.07c1.21,1.39,1.84,3.46,1.87,6.21H423.06q0,3.47,1.45,4.68a4.77,4.77,0,0,0,3.07,1.21A4.21,4.21,0,0,0,431.7,264.51Zm-.14-4.65a6.72,6.72,0,0,0-.42-2.29,4,4,0,0,0-1.33-1.7,3.66,3.66,0,0,0-2.26-.7,4,4,0,0,0-3,1.27,5.28,5.28,0,0,0-1.39,3.42Z"/><path class="cls-1" d="M440.12,269.06h-2.38V253.77h2.09v3.58a7.7,7.7,0,0,1,2.22-3.28,4,4,0,0,1,2.28-.75,9.25,9.25,0,0,1,.93.06v2.27h-.48a4.19,4.19,0,0,0-3.27,1.47,5.94,5.94,0,0,0-1.39,3.86Z"/><path class="cls-1" d="M456.53,263.7l2.15.38a6.9,6.9,0,0,1-2,4,6.07,6.07,0,0,1-8.71-.9,9.59,9.59,0,0,1-1.66-5.69,9.37,9.37,0,0,1,1.75-5.8,5.65,5.65,0,0,1,4.76-2.31,5.47,5.47,0,0,1,4,1.49,6.75,6.75,0,0,1,1.87,3.85l-2.15.41c-.41-2.52-1.62-3.78-3.66-3.78a3.37,3.37,0,0,0-3,1.67,8,8,0,0,0-1.06,4.34,8.36,8.36,0,0,0,1,4.56,3.34,3.34,0,0,0,3,1.63C454.76,267.52,456,266.25,456.53,263.7Z"/><path class="cls-1" d="M472,264.51l2.21.45a6.23,6.23,0,0,1-2.37,3.24,6.77,6.77,0,0,1-4.13,1.29,6.43,6.43,0,0,1-5.07-2.21,9.6,9.6,0,0,1,.08-11.68,6.48,6.48,0,0,1,5.05-2.25,6.1,6.1,0,0,1,4.82,2.07q1.83,2.09,1.87,6.21H463.38q0,3.47,1.46,4.68a4.74,4.74,0,0,0,3.07,1.21A4.21,4.21,0,0,0,472,264.51Zm-.14-4.65a6.49,6.49,0,0,0-.43-2.29,3.88,3.88,0,0,0-1.33-1.7,3.61,3.61,0,0,0-2.25-.7,4,4,0,0,0-3,1.27,5.28,5.28,0,0,0-1.38,3.42Z"/></svg>