<svg id="Layer_1" data-name="Layer 1" xmlns="http://www.w3.org/2000/svg" viewBox="0 0 980 300"><defs><style>.cls-1{fill:#fff;}</style></defs><title>text</title><path class="cls-1" d="M404.28,154.74h-6.79l-1.58,5.49h-3.69L398.86,140h4.22l6.6,20.28h-3.81Zm-.8-2.82-.71-2.48c-.62-2.14-1.24-4.47-1.83-6.7h-.13c-.56,2.26-1.14,4.56-1.8,6.7l-.71,2.48Z"/><path class="cls-1" d="M411.82,145h2.94l.25,2.7h.12c1.09-2,2.7-3.07,4.31-3.07a4,4,0,0,1,1.74.31l-.62,3.1a5.14,5.14,0,0,0-1.58-.24c-1.21,0-2.67.83-3.6,3.13v9.3h-3.56Z"/><path class="cls-1" d="M429.08,144.63c4.13,0,6.3,3,6.3,7.23a7.16,7.16,0,0,1-.16,1.67h-9.67c.31,2.76,2.05,4.31,4.49,4.31a6.39,6.39,0,0,0,3.54-1.11l1.21,2.23a9.63,9.63,0,0,1-5.21,1.64c-4.22,0-7.5-2.94-7.5-8S425.52,144.63,429.08,144.63Zm3.2,6.64c0-2.42-1-3.88-3.1-3.88-1.8,0-3.35,1.34-3.66,3.88Z"/><path class="cls-1" d="M445.92,163.61c1.61,0,2.54-1.09,3-2.61l.28-1-6-15h3.63l2.63,7.48c.44,1.33.87,2.85,1.34,4.28H451c.37-1.4.77-2.92,1.15-4.28l2.29-7.48h3.44l-5.52,15.91c-1.27,3.44-2.85,5.58-6.17,5.58a5.83,5.83,0,0,1-2-.31l.65-2.79A3.83,3.83,0,0,0,445.92,163.61Z"/><path class="cls-1" d="M466.53,144.63c3.82,0,7.26,2.92,7.26,8s-3.44,8-7.26,8-7.22-2.91-7.22-8S462.75,144.63,466.53,144.63Zm0,13.06c2.23,0,3.6-2,3.6-5.06s-1.37-5.08-3.6-5.08-3.56,2-3.56,5.08S464.3,157.69,466.53,157.69Z"/><path class="cls-1" d="M477.16,145h3.57v9.09c0,2.51.71,3.44,2.35,3.44,1.34,0,2.24-.62,3.38-2.11V145H490v15.23h-2.91l-.28-2.23h-.1a6.2,6.2,0,0,1-4.9,2.6c-3.25,0-4.68-2.2-4.68-6Z"/><path class="cls-1" d="M494.55,145h2.95l.25,2.7h.12c1.09-2,2.7-3.07,4.31-3.07a4,4,0,0,1,1.74.31l-.62,3.1a5.14,5.14,0,0,0-1.58-.24c-1.21,0-2.67.83-3.6,3.13v9.3h-3.57Z"/><path class="cls-1" d="M513,147.83h-2.17v-2.67l2.35-.16.44-4.15h3V145h3.88v2.83h-3.88v7.25c0,1.8.69,2.67,2.14,2.67a4.45,4.45,0,0,0,1.58-.34l.63,2.63a9.77,9.77,0,0,1-3.11.56c-3.53,0-4.83-2.23-4.83-5.52Z"/><path class="cls-1" d="M529.58,144.63c3.82,0,7.26,2.92,7.26,8s-3.44,8-7.26,8-7.22-2.91-7.22-8S525.8,144.63,529.58,144.63Zm0,13.06c2.24,0,3.6-2,3.6-5.06s-1.36-5.08-3.6-5.08-3.56,2-3.56,5.08S527.35,157.69,529.58,157.69Z"/><path class="cls-1" d="M546.6,144.63c3.82,0,7.26,2.92,7.26,8s-3.44,8-7.26,8-7.22-2.91-7.22-8S542.82,144.63,546.6,144.63Zm0,13.06c2.23,0,3.6-2,3.6-5.06s-1.37-5.08-3.6-5.08-3.56,2-3.56,5.08S544.37,157.69,546.6,157.69Z"/><path class="cls-1" d="M557.39,138.34H561v18.17c0,.87.4,1.18.77,1.18a1.93,1.93,0,0,0,.56-.07l.46,2.67a4.76,4.76,0,0,1-1.89.31c-2.54,0-3.47-1.64-3.47-4.28Z"/><path class="cls-1" d="M566,156.2a6.76,6.76,0,0,0,4.21,1.7c1.64,0,2.42-.77,2.42-1.83,0-1.27-1.64-1.82-3.26-2.44-2-.75-4.27-1.9-4.27-4.44s2.14-4.56,5.55-4.56a8.21,8.21,0,0,1,5,1.83L574,148.63a5.71,5.71,0,0,0-3.35-1.3c-1.52,0-2.23.71-2.23,1.67,0,1.18,1.52,1.68,3.16,2.27,2.08.77,4.37,1.77,4.37,4.62,0,2.6-2.08,4.71-5.92,4.71a9.64,9.64,0,0,1-5.77-2.11Z"/><path class="cls-1" d="M593.29,141.16a4.19,4.19,0,0,0-1.68-.37c-1.24,0-1.92.8-1.92,2.57V145h3v2.83h-3v12.4h-3.56v-12.4h-2v-2.67l2-.16v-1.58c0-3.16,1.45-5.45,5-5.45a7.66,7.66,0,0,1,2.79.52Z"/><path class="cls-1" d="M603,150.49c0-1.61-.71-3-2.76-3A8.54,8.54,0,0,0,596,149l-1.3-2.38a11.78,11.78,0,0,1,6.23-2c3.82,0,5.68,2.33,5.68,6.58v9h-2.92l-.28-1.68h-.09a7.38,7.38,0,0,1-4.71,2,4.28,4.28,0,0,1-4.53-4.46C594.06,152.88,596.79,151.18,603,150.49Zm-3.31,7.32a4.76,4.76,0,0,0,3.31-1.67v-3.41c-4.12.52-5.48,1.61-5.48,3.13C597.54,157.22,598.43,157.81,599.71,157.81Z"/><path class="cls-1" d="M611.08,156.2a6.81,6.81,0,0,0,4.22,1.7c1.64,0,2.42-.77,2.42-1.83,0-1.27-1.65-1.82-3.26-2.44-2-.75-4.28-1.9-4.28-4.44s2.14-4.56,5.55-4.56a8.26,8.26,0,0,1,5.06,1.83l-1.65,2.17a5.69,5.69,0,0,0-3.35-1.3c-1.51,0-2.23.71-2.23,1.67,0,1.18,1.52,1.68,3.16,2.27,2.08.77,4.38,1.77,4.38,4.62,0,2.6-2.08,4.71-5.93,4.71a9.62,9.62,0,0,1-5.76-2.11Z"/><path class="cls-1" d="M624.81,147.83h-2.17v-2.67L625,145l.43-4.15h3V145h3.88v2.83h-3.88v7.25c0,1.8.68,2.67,2.14,2.67a4.45,4.45,0,0,0,1.58-.34l.62,2.63a9.7,9.7,0,0,1-3.1.56c-3.53,0-4.84-2.23-4.84-5.52Z"/><path class="cls-1" d="M647.85,144.63c4.12,0,6.29,3,6.29,7.23a7.86,7.86,0,0,1-.15,1.67h-9.68c.31,2.76,2.05,4.31,4.5,4.31a6.35,6.35,0,0,0,3.53-1.11l1.21,2.23a9.58,9.58,0,0,1-5.21,1.64c-4.21,0-7.5-2.94-7.5-8S644.28,144.63,647.85,144.63Zm3.19,6.64c0-2.42-1-3.88-3.1-3.88-1.8,0-3.35,1.34-3.66,3.88Z"/><path class="cls-1" d="M657.55,145h2.94l.25,2.05h.13a7.07,7.07,0,0,1,5-2.42c3.25,0,4.68,2.2,4.68,6.05v9.55H667v-9.09c0-2.51-.71-3.44-2.38-3.44-1.34,0-2.2.65-3.47,1.89v10.64h-3.57Z"/><path class="cls-1" d="M681.14,144.63c3.82,0,7.26,2.92,7.26,8s-3.44,8-7.26,8-7.22-2.91-7.22-8S677.36,144.63,681.14,144.63Zm0,13.06c2.23,0,3.6-2,3.6-5.06s-1.37-5.08-3.6-5.08-3.57,2-3.57,5.08S678.91,157.69,681.14,157.69Z"/><path class="cls-1" d="M691.77,145h3.57v9.09c0,2.51.71,3.44,2.36,3.44,1.33,0,2.23-.62,3.37-2.11V145h3.57v15.23h-2.91l-.28-2.23h-.1a6.19,6.19,0,0,1-4.89,2.6c-3.26,0-4.69-2.2-4.69-6Z"/><path class="cls-1" d="M710.31,159.73v-.12a2.87,2.87,0,0,1-1.36-2.54,3.66,3.66,0,0,1,1.67-2.82v-.13a5.14,5.14,0,0,1-2-4c0-3.5,2.82-5.46,6-5.46a7,7,0,0,1,2.23.37h5.46v2.64h-2.79a4,4,0,0,1,.87,2.57c0,3.38-2.54,5.18-5.77,5.18a5.64,5.64,0,0,1-2.08-.4,1.75,1.75,0,0,0-.74,1.46c0,.86.62,1.39,2.48,1.39H717c3.66,0,5.58,1.12,5.58,3.75,0,3-3.16,5.37-8.13,5.37-3.62,0-6.32-1.3-6.32-4A3.94,3.94,0,0,1,710.31,159.73Zm4.71,4.9c2.45,0,4.13-1.15,4.13-2.45s-1-1.52-2.7-1.52h-2.08a8.38,8.38,0,0,1-2.08-.21,2.56,2.56,0,0,0-1.17,2C711.12,163.83,712.61,164.63,715,164.63Zm2.27-14.54c0-1.89-1.15-3-2.64-3a2.7,2.7,0,0,0-2.67,3c0,1.95,1.18,3.07,2.67,3.07S717.29,152,717.29,150.09Z"/><path class="cls-1" d="M725.28,138.34h3.57V144l-.13,3a7,7,0,0,1,4.87-2.3c3.26,0,4.69,2.2,4.69,6.05v9.55h-3.57v-9.09c0-2.51-.71-3.44-2.39-3.44-1.33,0-2.2.65-3.47,1.89v10.64h-3.57Z"/><path class="cls-1" d="M748.91,144.48a2.32,2.32,0,0,0-2.52-2.48,4.25,4.25,0,0,0-3.19,1.61l-2-1.83a7,7,0,0,1,5.42-2.7c3.35,0,5.74,1.77,5.74,5.15,0,3.94-4.84,5.33-4.4,9.33h-3.13C744.19,149,748.91,147.27,748.91,144.48Zm-2.48,11.28a2.42,2.42,0,0,1,0,4.84,2.42,2.42,0,0,1,0-4.84Z"/></svg>