<svg id="Layer_1" data-name="Layer 1" xmlns="http://www.w3.org/2000/svg" viewBox="0 0 980 300"><defs><style>.cls-1{fill:#fff;}</style></defs><title>text</title><path class="cls-1" d="M484.83,30.39V51.22c0,.85-.54,1.27-1.62,1.27s-1.62-.42-1.62-1.27V30.39c0-.87.54-1.3,1.62-1.3S484.83,29.52,484.83,30.39Zm14.48,0a1.84,1.84,0,0,1-.58,1.23l-8.86,9.3,9.51,9.28a1.23,1.23,0,0,1,.41,1,1.75,1.75,0,0,1-1.65,1.62,1.67,1.67,0,0,1-1.18-.53l-9-8.72q-2.46-2.34,0-5l8.55-9a1.59,1.59,0,0,1,2.3-.09A1.33,1.33,0,0,1,499.31,30.37Z"/><path class="cls-1" d="M502.25,43.93a21.53,21.53,0,0,1,.4-4.66,5,5,0,0,1,3.82-4.15,16.63,16.63,0,0,1,3.77-.35,16.38,16.38,0,0,1,3.75.35,5.07,5.07,0,0,1,2.44,1.37,5.58,5.58,0,0,1,1.42,2.77,22.15,22.15,0,0,1,.4,4.65,21.81,21.81,0,0,1-.4,4.63,4.94,4.94,0,0,1-1.44,2.67A5.24,5.24,0,0,1,514,52.45a17.56,17.56,0,0,1-3.75.32,18.75,18.75,0,0,1-3.77-.3A5.15,5.15,0,0,1,504,51.22a4.81,4.81,0,0,1-1.41-2.69A22.45,22.45,0,0,1,502.25,43.93Zm3.62-4.12a9.15,9.15,0,0,0-.39,3.22c0,1.53,0,2.75.13,3.66a4.4,4.4,0,0,0,.91,2.37,2.81,2.81,0,0,0,2.1.72c.35,0,.89,0,1.62,0,2.1,0,3.34-.26,3.72-.76a4.92,4.92,0,0,0,.93-2.39c.08-.87.12-1.78.12-2.72,0-2.8-.26-4.49-.79-5.08a4.39,4.39,0,0,0-.61-.65,4.28,4.28,0,0,0-2.53-.5c-1.3,0-2.12,0-2.47,0-1.1.07-1.8.32-2.09.74A8.24,8.24,0,0,0,505.87,39.81Z"/><path class="cls-1" d="M526.74,38.34c-.4.41-.6,1.71-.6,3.89v9c0,.84-.54,1.27-1.61,1.27s-1.61-.42-1.63-1.27V41.84a18.29,18.29,0,0,1,.32-3.87,3.38,3.38,0,0,1,1.27-2.11,4.76,4.76,0,0,1,2.21-.9,32.64,32.64,0,0,1,4-.19q4.53,0,5.73,1.11A4.74,4.74,0,0,1,537.83,39a27.37,27.37,0,0,1,.12,2.8v9.38c0,.85-.54,1.27-1.62,1.27s-1.61-.43-1.61-1.27v-9c0-2.16-.21-3.45-.62-3.87s-1.64-.64-3.7-.64S527.14,37.93,526.74,38.34Z"/><path class="cls-1" d="M553.86,47.2v-.41a1.31,1.31,0,0,0-.85-1.24,7.3,7.3,0,0,0-2.93-.39,18.13,18.13,0,0,1-4.64-.65,3.81,3.81,0,0,1-2.11-1.43,4.61,4.61,0,0,1-.84-2.88v-.3c0-2,.6-3.36,1.81-4a11.28,11.28,0,0,1,5.52-1.05,22.78,22.78,0,0,1,5.48.48,1.46,1.46,0,0,1,1.11,1.62c0,.89-.37,1.33-1.11,1.33A19.28,19.28,0,0,1,553,38a25.49,25.49,0,0,0-3.6-.24,9.13,9.13,0,0,0-2.81.31c-.6.21-.9.81-.9,1.78v.33q0,1.92,4,2c1.11.05,2.23.14,3.35.28a5.1,5.1,0,0,1,2.85,1.25,3.7,3.7,0,0,1,1.16,3v.44q0,3.22-1.83,4.41c-1.21.77-3.18,1.16-5.88,1.16a25.49,25.49,0,0,1-5.82-.46,1.46,1.46,0,0,1-1.11-1.62c0-.89.37-1.33,1.11-1.33a24.45,24.45,0,0,1,2.55.23,31.23,31.23,0,0,0,3.69.23,7.55,7.55,0,0,0,2.93-.49A2.06,2.06,0,0,0,553.86,47.2Z"/><path class="cls-1" d="M567.28,49.8l1.67,0,1.67,0a4.07,4.07,0,0,0,1.13-.2,2.1,2.1,0,0,0,.92-.54,2.3,2.3,0,0,0,.38-1.45q.06-1.06.06-2.31v-9c0-.85.54-1.27,1.61-1.27s1.62.42,1.62,1.27v9.4a20.21,20.21,0,0,1-.28,3.88,3.45,3.45,0,0,1-1.25,2.1,4.54,4.54,0,0,1-2.18.89,37.71,37.71,0,0,1-7.36,0,4.54,4.54,0,0,1-2.17-.89,3.39,3.39,0,0,1-1.23-2.1,21.81,21.81,0,0,1-.29-3.88v-9.4c0-.85.55-1.27,1.62-1.27s1.61.42,1.61,1.27v9c0,2.19.19,3.49.58,3.92a1.7,1.7,0,0,0,.76.38A4,4,0,0,0,567.28,49.8Z"/><path class="cls-1" d="M584.9,29.67V51.22c0,.85-.54,1.27-1.62,1.27s-1.61-.42-1.61-1.27V29.67c0-.87.54-1.3,1.61-1.3S584.9,28.8,584.9,29.67Z"/><path class="cls-1" d="M603.6,49.39c.74,0,1.11.45,1.11,1.34a1.46,1.46,0,0,1-1.11,1.62,28.14,28.14,0,0,1-5.85.42q-4.11,0-5.89-1.34T590.07,47V40.36c0-2.2.54-3.69,1.62-4.45s3.08-1.14,6-1.14,4.92.36,6,1.09,1.54,2.23,1.54,4.5v2.85a2,2,0,0,1-.47,1.37,1.6,1.6,0,0,1-1.22.49H593.3v2.11q0,2.66,4.63,2.64a24.6,24.6,0,0,0,3.51-.22A18.86,18.86,0,0,1,603.6,49.39Zm-10.3-9v1.85H602V40.37a2.31,2.31,0,0,0-.88-2.1,7.23,7.23,0,0,0-3.43-.55,7.64,7.64,0,0,0-3.44.52A2.27,2.27,0,0,0,593.3,40.37Z"/><path class="cls-1" d="M613.91,38.34c-.4.41-.6,1.71-.6,3.89v9c0,.84-.54,1.27-1.61,1.27s-1.62-.42-1.63-1.27V41.84a18.29,18.29,0,0,1,.32-3.87,3.42,3.42,0,0,1,1.26-2.11,4.84,4.84,0,0,1,2.22-.9,32.64,32.64,0,0,1,4-.19q4.53,0,5.73,1.11A4.74,4.74,0,0,1,625,39a27.37,27.37,0,0,1,.12,2.8v9.38c0,.85-.54,1.27-1.62,1.27s-1.62-.43-1.62-1.27v-9c0-2.16-.2-3.45-.61-3.87s-1.65-.64-3.7-.64S614.3,37.93,613.91,38.34Z"/><path class="cls-1" d="M636.18,52.49a4.55,4.55,0,0,1-3.43-1.05,5.32,5.32,0,0,1-1-3.62v-9.9h-2.27c-.72,0-1.09-.48-1.09-1.43s.37-1.42,1.09-1.42h2.27V30.49q0-1.26,1.62-1.26T635,30.49v4.58h4.58c.73,0,1.09.47,1.09,1.42s-.36,1.43-1.09,1.43H635V48.06c0,1,.58,1.47,1.75,1.47l3.06-.17c.75,0,1.13.43,1.13,1.3a1.66,1.66,0,0,1-1.16,1.72C639,52.45,637.82,52.49,636.18,52.49Z"/><path class="cls-1" d="M657.67,49.39c.74,0,1.11.45,1.11,1.34a1.46,1.46,0,0,1-1.11,1.62,28.14,28.14,0,0,1-5.85.42q-4.11,0-5.89-1.34T644.14,47V40.36c0-2.2.54-3.69,1.62-4.45s3.08-1.14,6-1.14,4.92.36,6,1.09,1.54,2.23,1.54,4.5v2.85a2,2,0,0,1-.47,1.37,1.6,1.6,0,0,1-1.22.49H647.37v2.11q0,2.66,4.63,2.64a24.6,24.6,0,0,0,3.51-.22A18.86,18.86,0,0,1,657.67,49.39Zm-10.3-9v1.85h8.69V40.37a2.31,2.31,0,0,0-.88-2.1,7.23,7.23,0,0,0-3.43-.55,7.73,7.73,0,0,0-3.45.52A2.27,2.27,0,0,0,647.37,40.37Z"/><path class="cls-1" d="M668,38.34c-.4.41-.6,1.71-.6,3.89v9c0,.84-.54,1.27-1.61,1.27s-1.62-.42-1.63-1.27V41.84a18.29,18.29,0,0,1,.32-3.87,3.42,3.42,0,0,1,1.26-2.11,4.84,4.84,0,0,1,2.22-.9,32.64,32.64,0,0,1,4-.19q4.53,0,5.73,1.11A4.74,4.74,0,0,1,679.07,39a27.37,27.37,0,0,1,.12,2.8v9.38c0,.85-.54,1.27-1.62,1.27S676,52.06,676,51.22v-9c0-2.16-.21-3.45-.62-3.87s-1.65-.64-3.7-.64S668.38,37.93,668,38.34Z"/><path class="cls-1" d="M697.61,49.39c.74,0,1.11.45,1.11,1.34a1.46,1.46,0,0,1-1.11,1.62,28.14,28.14,0,0,1-5.85.42c-2.74,0-4.71-.45-5.89-1.34s-1.78-2.38-1.79-4.48V40.36c0-2.2.54-3.69,1.61-4.45s3.09-1.14,6-1.14,4.93.36,6,1.09,1.55,2.23,1.55,4.5v2.85a2,2,0,0,1-.48,1.37,1.56,1.56,0,0,1-1.21.49H687.31v2.11q0,2.66,4.62,2.64a24.65,24.65,0,0,0,3.52-.22A18.86,18.86,0,0,1,697.61,49.39Zm-10.3-9v1.85H696V40.37a2.3,2.3,0,0,0-.87-2.1,7.23,7.23,0,0,0-3.43-.55,7.73,7.73,0,0,0-3.45.52A2.25,2.25,0,0,0,687.31,40.37Z"/><path class="cls-1" d="M712.87,30.88a1.66,1.66,0,0,1,.53-1.24,1.71,1.71,0,0,1,1.23-.55,1.68,1.68,0,0,1,1.25.55,1.85,1.85,0,0,1,.5,1.26,1.79,1.79,0,0,1-1.75,1.76,1.72,1.72,0,0,1-1.25-.53A1.74,1.74,0,0,1,712.87,30.88Zm3.37,5.44v14.9c0,.85-.53,1.27-1.61,1.27S713,52.07,713,51.22V36.32c0-.85.54-1.27,1.62-1.27S716.24,35.47,716.24,36.32Z"/><path class="cls-1" d="M738.94,52.49h-8.79c-.74,0-1.11-.48-1.11-1.43s.37-1.42,1.11-1.42h2.78V31.94h-2.78c-.74,0-1.11-.48-1.11-1.43s.37-1.42,1.11-1.42h8.79c.74,0,1.1.48,1.1,1.42s-.36,1.43-1.1,1.43h-2.78v17.7h2.78c.74,0,1.1.47,1.1,1.42S739.68,52.49,738.94,52.49Z"/><path class="cls-1" d="M747.76,38.34c-.4.41-.6,1.71-.6,3.89v9c0,.84-.53,1.27-1.6,1.27s-1.62-.42-1.63-1.27V41.84a18.29,18.29,0,0,1,.32-3.87,3.42,3.42,0,0,1,1.26-2.11,4.8,4.8,0,0,1,2.22-.9,32.64,32.64,0,0,1,4-.19q4.53,0,5.73,1.11a4.73,4.73,0,0,1,1.4,3.16,24.49,24.49,0,0,1,.13,2.8v9.38c0,.85-.54,1.27-1.62,1.27s-1.62-.43-1.62-1.27v-9c0-2.16-.2-3.45-.61-3.87s-1.65-.64-3.7-.64S748.16,37.93,747.76,38.34Z"/><path class="cls-1" d="M767.84,38.34c-.4.41-.6,1.71-.6,3.89v9c0,.84-.54,1.27-1.61,1.27S764,52.07,764,51.22V41.84a18.29,18.29,0,0,1,.32-3.87,3.38,3.38,0,0,1,1.27-2.11,4.76,4.76,0,0,1,2.21-.9,32.64,32.64,0,0,1,4-.19q4.53,0,5.73,1.11A4.74,4.74,0,0,1,778.93,39a27.37,27.37,0,0,1,.12,2.8v9.38c0,.85-.54,1.27-1.62,1.27s-1.61-.43-1.61-1.27v-9c0-2.16-.21-3.45-.62-3.87s-1.64-.64-3.7-.64S768.24,37.93,767.84,38.34Z"/><path class="cls-1" d="M783.94,43.93a21.53,21.53,0,0,1,.4-4.66,5,5,0,0,1,3.82-4.15,16.63,16.63,0,0,1,3.77-.35,16.44,16.44,0,0,1,3.75.35,5.07,5.07,0,0,1,2.44,1.37,5.66,5.66,0,0,1,1.42,2.77,22.25,22.25,0,0,1,.39,4.65,21.91,21.91,0,0,1-.39,4.63,4.94,4.94,0,0,1-1.44,2.67,5.28,5.28,0,0,1-2.42,1.24,17.56,17.56,0,0,1-3.75.32,18.75,18.75,0,0,1-3.77-.3,5.15,5.15,0,0,1-2.43-1.25,4.81,4.81,0,0,1-1.41-2.69A21.76,21.76,0,0,1,783.94,43.93Zm3.62-4.12a9.15,9.15,0,0,0-.39,3.22q0,2.3.12,3.66a4.49,4.49,0,0,0,.92,2.37,2.81,2.81,0,0,0,2.1.72c.35,0,.89,0,1.62,0,2.1,0,3.34-.26,3.72-.76a4.92,4.92,0,0,0,.93-2.39c.08-.87.12-1.78.12-2.72,0-2.8-.26-4.49-.79-5.08a4.39,4.39,0,0,0-.61-.65,4.28,4.28,0,0,0-2.53-.5c-1.3,0-2.12,0-2.48,0-1.09.07-1.79.32-2.08.74A8.24,8.24,0,0,0,787.56,39.81Z"/><path class="cls-1" d="M809.46,34.89v.18H814c.74,0,1.11.47,1.11,1.42s-.37,1.43-1.11,1.43h-4.57v13.3c0,.85-.54,1.27-1.62,1.27s-1.61-.42-1.61-1.27V37.92h-2.32c-.74,0-1.11-.48-1.11-1.43s.37-1.42,1.11-1.42h2.32v-.62c0-2.47.42-4.11,1.26-4.9s2.44-1.19,4.75-1.18a10.08,10.08,0,0,1,3.13.31,1.13,1.13,0,0,1,.79,1.11,1.54,1.54,0,0,1-.44,1.22,1.6,1.6,0,0,1-1.11.42l-2.37-.11a3,3,0,0,0-2.27.61A5.33,5.33,0,0,0,809.46,34.89Z"/><path class="cls-1" d="M819.87,38.2c-.75,0-1.13-.45-1.13-1.34a1.47,1.47,0,0,1,1.13-1.62,25.39,25.39,0,0,1,5.83-.47q4.08,0,5.52,1.3c1,.87,1.46,2.38,1.46,4.53v6.95c0,2.17-.53,3.58-1.58,4.23s-3.07,1-6.06,1-5-.33-6-1-1.53-2.06-1.53-4.21.39-3.64,1.17-4.45,2.39-1.23,4.8-1.21h6V40a2,2,0,0,0-.83-1.82,6.08,6.08,0,0,0-2.93-.5A23,23,0,0,0,822,38,14.44,14.44,0,0,1,819.87,38.2Zm9.58,9.61V44.75h-5a6.39,6.39,0,0,0-3,.46c-.46.3-.68,1-.68,2.07s.28,1.79.86,2.1a8.85,8.85,0,0,0,3.43.44,10.25,10.25,0,0,0,3.48-.39A1.6,1.6,0,0,0,829.45,47.81Z"/><path class="cls-1" d="M850.33,38.2a8.73,8.73,0,0,1-1.79-.23,17.46,17.46,0,0,0-3.43-.25,7.42,7.42,0,0,0-3.29.55,2.22,2.22,0,0,0-1.07,2.16v6.73q0,2.67,4.62,2.66a17.76,17.76,0,0,0,3.17-.23,9.7,9.7,0,0,1,1.79-.23c.75,0,1.13.44,1.13,1.33a1.46,1.46,0,0,1-1.13,1.62,23.58,23.58,0,0,1-5.5.46q-3.75,0-5.52-1.34T837.52,47V40.36q0-3.27,1.68-4.43t5.54-1.16a19.33,19.33,0,0,1,5.59.58,1.42,1.42,0,0,1,1.13,1.56C851.46,37.77,851.08,38.2,850.33,38.2Z"/><path class="cls-1" d="M861.43,52.49A4.54,4.54,0,0,1,858,51.44a5.32,5.32,0,0,1-1-3.62v-9.9h-2.28c-.72,0-1.08-.48-1.08-1.43s.36-1.42,1.08-1.42H857V30.49c0-.84.54-1.26,1.61-1.26s1.62.42,1.62,1.26v4.58h4.59c.72,0,1.09.47,1.09,1.42s-.37,1.43-1.09,1.43h-4.59V48.06c0,1,.59,1.47,1.76,1.47l3.06-.17c.75,0,1.12.43,1.12,1.3A1.65,1.65,0,0,1,865,52.38C864.27,52.45,863.06,52.49,861.43,52.49Z"/><path class="cls-1" d="M869,43.93a22.19,22.19,0,0,1,.4-4.66,5,5,0,0,1,3.83-4.15,20.37,20.37,0,0,1,7.52,0,5,5,0,0,1,2.43,1.37,5.59,5.59,0,0,1,1.43,2.77,22.25,22.25,0,0,1,.39,4.65,21.91,21.91,0,0,1-.39,4.63,4.94,4.94,0,0,1-1.44,2.67,5.33,5.33,0,0,1-2.42,1.24,17.72,17.72,0,0,1-3.76.32,18.64,18.64,0,0,1-3.76-.3,5.15,5.15,0,0,1-2.43-1.25,4.88,4.88,0,0,1-1.42-2.69A22.45,22.45,0,0,1,869,43.93Zm3.62-4.12a9.46,9.46,0,0,0-.38,3.22q0,2.3.12,3.66a4.48,4.48,0,0,0,.91,2.37,2.86,2.86,0,0,0,2.11.72c.35,0,.89,0,1.61,0,2.11,0,3.35-.26,3.72-.76a4.74,4.74,0,0,0,.93-2.39c.08-.87.12-1.78.12-2.72,0-2.8-.26-4.49-.79-5.08a3.92,3.92,0,0,0-.61-.65,4.28,4.28,0,0,0-2.53-.5c-1.29,0-2.12,0-2.47,0-1.1.07-1.8.32-2.09.74A9.21,9.21,0,0,0,872.65,39.81Z"/><path class="cls-1" d="M892.92,42.26v9c0,.85-.53,1.27-1.61,1.27s-1.61-.42-1.62-1.27V41.84a11.29,11.29,0,0,1,.57-4.49,6.35,6.35,0,0,1,1.07-1.53q1.15-1.05,5.79-1a10.08,10.08,0,0,1,3.13.31,1.14,1.14,0,0,1,.79,1.15,1.62,1.62,0,0,1-.44,1.24,1.47,1.47,0,0,1-1.1.41l-2.38-.16a10.83,10.83,0,0,0-2.76.21,2.8,2.8,0,0,0-.81.41,3,3,0,0,0-.38.82,4.06,4.06,0,0,0-.23,1.25C892.93,40.85,892.92,41.47,892.92,42.26Z"/><path class="cls-1" d="M930,52.49c-1,0-1.57-.32-1.8-1l-2.37-6.66h-9.14l-2.41,6.66c-.21.65-.81,1-1.79,1S911,52,911,51.15a1.41,1.41,0,0,1,.13-.58L918.36,31a3,3,0,0,1,1.1-1.49,2.81,2.81,0,0,1,1.8-.58,2.69,2.69,0,0,1,1.76.58,3.26,3.26,0,0,1,1.1,1.49l7.21,19.58.11.58C931.44,52,931,52.49,930,52.49Zm-8.74-20.38L917.67,42h7.14l-3.53-9.9Z"/><path class="cls-1" d="M951.47,45.54q0,3.76-2.11,5.5c-1.4,1.15-3.81,1.73-7.21,1.73a27.3,27.3,0,0,1-5.75-.46c-1.36-.3-2-.89-2-1.77a1.62,1.62,0,0,1,.36-1.08,1.16,1.16,0,0,1,.86-.44,16.53,16.53,0,0,1,2.41.41,17.77,17.77,0,0,0,3.87.39c2.4,0,4.06-.28,5-.83a3.38,3.38,0,0,0,1.39-3.11,3.22,3.22,0,0,0-.71-2.21,3.36,3.36,0,0,0-1.84-1c-.8-.15-1.68-.28-2.65-.37A16.36,16.36,0,0,1,937.46,41a4.52,4.52,0,0,1-2-2,7.51,7.51,0,0,1-.76-3.6q0-3.51,2.18-5t7.4-1.52a20.54,20.54,0,0,1,4.92.43q1.62.43,1.62,1.53a1.39,1.39,0,0,1-.39,1,1.36,1.36,0,0,1-1,.37c-.43,0-1.26-.09-2.5-.25a28.11,28.11,0,0,0-3.19-.27,8.72,8.72,0,0,0-4.52.84A2.82,2.82,0,0,0,938,35a3.4,3.4,0,0,0,2.89,3.65,18.08,18.08,0,0,0,2.65.44,17.88,17.88,0,0,1,5.34,1.22,4.08,4.08,0,0,1,1.9,1.85A7,7,0,0,1,951.47,45.54Z"/><path class="cls-1" d="M493.9,92.59c.74,0,1.11.45,1.11,1.34a1.46,1.46,0,0,1-1.11,1.62,28.14,28.14,0,0,1-5.85.42q-4.12,0-5.89-1.34c-1.19-.89-1.78-2.38-1.8-4.48V83.56c0-2.2.54-3.69,1.62-4.45S485.07,78,488,78s4.93.36,6,1.09,1.55,2.23,1.55,4.5v2.85a2,2,0,0,1-.48,1.37,1.58,1.58,0,0,1-1.22.49H483.6v2.11q0,2.66,4.62,2.64a24.75,24.75,0,0,0,3.52-.22A18.86,18.86,0,0,1,493.9,92.59Zm-10.3-9v1.85h8.68V83.57a2.28,2.28,0,0,0-.88-2.1,7.31,7.31,0,0,0-3.42-.55,7.73,7.73,0,0,0-3.45.52A2.25,2.25,0,0,0,483.6,83.57Z"/><path class="cls-1" d="M503.6,85.46v9c0,.85-.53,1.27-1.61,1.27s-1.61-.42-1.62-1.27V85a11.29,11.29,0,0,1,.57-4.49A6.35,6.35,0,0,1,502,79q1.15-1,5.79-1a10,10,0,0,1,3.13.31,1.14,1.14,0,0,1,.79,1.15,1.62,1.62,0,0,1-.44,1.24,1.47,1.47,0,0,1-1.1.41l-2.38-.16a10.83,10.83,0,0,0-2.76.21,2.71,2.71,0,0,0-.8.41,2.84,2.84,0,0,0-.39.82,4.06,4.06,0,0,0-.23,1.25C503.61,84.05,503.6,84.67,503.6,85.46Z"/><path class="cls-1" d="M529.69,95.86a2.71,2.71,0,0,1-1.72-.58,3.16,3.16,0,0,1-1.09-1.46l-5.1-13.72c-.07-.37-.11-.56-.12-.58,0-.85.52-1.26,1.56-1.25a1.49,1.49,0,0,1,1.58.93l4.82,13.53h.17l4.84-13.53q.35-.93,1.74-.93c.92,0,1.39.41,1.39,1.25,0,0,0,.21-.11.58l-5.11,13.72a3,3,0,0,1-1.09,1.48A2.91,2.91,0,0,1,529.69,95.86Z"/><path class="cls-1" d="M554.74,92.59c.74,0,1.1.45,1.1,1.34a1.46,1.46,0,0,1-1.1,1.62,28.19,28.19,0,0,1-5.86.42q-4.11,0-5.88-1.34t-1.8-4.48V83.56c0-2.2.54-3.69,1.62-4.45s3.09-1.14,6-1.14,4.93.36,6,1.09,1.54,2.23,1.54,4.5v2.85a2,2,0,0,1-.47,1.37,1.58,1.58,0,0,1-1.22.49H544.44v2.11q0,2.66,4.62,2.64a24.85,24.85,0,0,0,3.52-.22A18.86,18.86,0,0,1,554.74,92.59Zm-10.3-9v1.85h8.68V83.57a2.28,2.28,0,0,0-.88-2.1,7.36,7.36,0,0,0-3.43-.55,7.7,7.7,0,0,0-3.44.52A2.25,2.25,0,0,0,544.44,83.57Z"/><path class="cls-1" d="M564.74,72.87V94.42c0,.85-.54,1.27-1.62,1.27s-1.62-.42-1.62-1.27V72.87c0-.87.54-1.3,1.62-1.3S564.74,72,564.74,72.87Z"/><path class="cls-1" d="M585.83,72.87V87.13a22.45,22.45,0,0,1-.38,4.6A5,5,0,0,1,584,94.4a5.11,5.11,0,0,1-2.39,1.25,17.28,17.28,0,0,1-3.73.32,18.75,18.75,0,0,1-3.77-.3,5.24,5.24,0,0,1-2.43-1.25,4.81,4.81,0,0,1-1.41-2.69,24,24,0,0,1-.38-4.6,21.53,21.53,0,0,1,.4-4.66,5,5,0,0,1,3.82-4.15,18.68,18.68,0,0,1,4.15-.35,10.78,10.78,0,0,1,4.32.71V72.87c0-.87.54-1.3,1.62-1.3S585.83,72,585.83,72.87ZM573.53,83a9.15,9.15,0,0,0-.39,3.22q0,2.3.12,3.66a4.49,4.49,0,0,0,.92,2.37,2.81,2.81,0,0,0,2.1.72c.35,0,.89,0,1.62,0,2.1,0,3.34-.26,3.72-.76a4.92,4.92,0,0,0,.93-2.39c.08-.87.12-1.78.12-2.72,0-2.8-.26-4.49-.79-5.08a3.93,3.93,0,0,0-.62-.65,4.22,4.22,0,0,0-2.52-.5c-1.3,0-2.12,0-2.48,0-1.09.07-1.79.32-2.08.74A7.46,7.46,0,0,0,573.53,83Z"/><path class="cls-1" d="M590.86,74.08a1.85,1.85,0,0,1,1.76-1.79,1.68,1.68,0,0,1,1.25.55,1.81,1.81,0,0,1,.51,1.26,1.81,1.81,0,0,1-1.76,1.76,1.72,1.72,0,0,1-1.25-.53A1.74,1.74,0,0,1,590.86,74.08Zm3.38,5.44v14.9c0,.85-.54,1.27-1.62,1.27S591,95.27,591,94.42V79.52c0-.85.54-1.27,1.62-1.27S594.24,78.67,594.24,79.52Z"/><path class="cls-1" d="M612.2,76.27c0-.77.54-1.15,1.62-1.15s1.61.4,1.61,1.18v7.63c0,2.26-.56,3.75-1.7,4.46s-3,1.07-5.67,1.07a26.67,26.67,0,0,1-5.28-.33v2.78h6.57q3.67,0,5,1.28c.86.87,1.29,2.3,1.29,4.32s-.58,3.39-1.75,4.15-3.25,1.13-6.24,1.13-5.07-.34-6.28-1-1.81-2.06-1.83-4.17V83.45a6,6,0,0,1,1-3.93c.67-.78,1.93-1.23,3.81-1.38a30.52,30.52,0,0,1,7.85.37Zm-9.42,7.59c0,1.29.25,2.08.72,2.35a8.74,8.74,0,0,0,3.47.41,15.75,15.75,0,0,0,3.74-.29,1.76,1.76,0,0,0,1.24-.88,5.3,5.3,0,0,0,.25-2V81.36a40.21,40.21,0,0,0-5.14-.37,7.44,7.44,0,0,0-3.32.53,2.33,2.33,0,0,0-1,2.2Zm0,10.9v3a1.73,1.73,0,0,0,1.16,1.71,10.31,10.31,0,0,0,3.8.5,8,8,0,0,0,3.55-.53,2.19,2.19,0,0,0,.91-2,2.27,2.27,0,0,0-.87-2.07,6.5,6.5,0,0,0-3.17-.54Z"/><path class="cls-1" d="M644.14,72.87V87.13a21.66,21.66,0,0,1-.39,4.6,5,5,0,0,1-1.42,2.67,5.15,5.15,0,0,1-2.39,1.25,17.39,17.39,0,0,1-3.74.32,18.64,18.64,0,0,1-3.76-.3A5.24,5.24,0,0,1,630,94.42a4.82,4.82,0,0,1-1.42-2.69,24,24,0,0,1-.38-4.6,22.19,22.19,0,0,1,.4-4.66,5,5,0,0,1,3.83-4.15,18.62,18.62,0,0,1,4.15-.35,10.76,10.76,0,0,1,4.31.71V72.87c0-.87.54-1.3,1.62-1.3S644.14,72,644.14,72.87ZM631.83,83a9.46,9.46,0,0,0-.38,3.22q0,2.3.12,3.66a4.48,4.48,0,0,0,.91,2.37,2.86,2.86,0,0,0,2.11.72c.35,0,.89,0,1.61,0,2.11,0,3.35-.26,3.72-.76a4.74,4.74,0,0,0,.93-2.39c.08-.87.12-1.78.12-2.72,0-2.8-.26-4.49-.79-5.08a3.92,3.92,0,0,0-.61-.65,4.28,4.28,0,0,0-2.53-.5c-1.29,0-2.12,0-2.47,0-1.1.07-1.8.32-2.09.74A9.21,9.21,0,0,0,631.83,83Z"/><path class="cls-1" d="M653.51,102.7c-.93,0-1.4-.41-1.41-1.25,0,0,0-.21.12-.58l1.94-5.18a3,3,0,0,1-1.76-1.87L647.29,80.1c-.08-.37-.11-.56-.11-.58,0-.85.46-1.27,1.39-1.27a1.64,1.64,0,0,1,1.74,1l4.83,13.53h.18l4.81-13.53c.24-.62.82-.93,1.75-.93s1.38.41,1.38,1.25c0,0,0,.21-.1.58l-7.91,21.67Q654.89,102.7,653.51,102.7Z"/><path class="cls-1" d="M669.66,72.87V86.76l8.05-8.14a1.69,1.69,0,0,1,1.2-.55,1.54,1.54,0,0,1,1.12.46,1.36,1.36,0,0,1,.46,1.06,1.63,1.63,0,0,1-.58,1.19l-4.64,4.33,5.73,8a1.9,1.9,0,0,1,.35,1.08,1.39,1.39,0,0,1-.51,1,1.69,1.69,0,0,1-1.19.49,1.2,1.2,0,0,1-1.06-.58L673,87.27l-3.31,3.06v4.09c0,.85-.53,1.27-1.61,1.27s-1.61-.42-1.62-1.27V72.87c0-.87.55-1.3,1.62-1.3S669.66,72,669.66,72.87Z"/><path class="cls-1" d="M690.27,95.69a4.55,4.55,0,0,1-3.43-1,5.32,5.32,0,0,1-1-3.62v-9.9H683.6c-.73,0-1.09-.48-1.09-1.43s.36-1.42,1.09-1.42h2.27V73.69q0-1.26,1.62-1.26c1.07,0,1.61.42,1.61,1.26v4.58h4.59c.73,0,1.09.47,1.09,1.42s-.36,1.43-1.09,1.43H689.1V91.26c0,1,.59,1.47,1.76,1.47l3.06-.17c.75,0,1.12.43,1.12,1.3a1.65,1.65,0,0,1-1.16,1.72C693.11,95.65,691.91,95.69,690.27,95.69Z"/><path class="cls-1" d="M698.53,74.08a1.69,1.69,0,0,1,.52-1.24,1.71,1.71,0,0,1,1.23-.55,1.66,1.66,0,0,1,1.25.55A1.81,1.81,0,0,1,702,74.1a1.65,1.65,0,0,1-.53,1.23,1.7,1.7,0,0,1-2.47,0A1.74,1.74,0,0,1,698.53,74.08Zm3.37,5.44v14.9c0,.85-.54,1.27-1.62,1.27s-1.61-.42-1.61-1.27V79.52c0-.85.54-1.27,1.61-1.27S701.9,78.67,701.9,79.52Z"/><path class="cls-1" d="M719.87,76.27c0-.77.53-1.15,1.61-1.15s1.62.4,1.62,1.18v7.63q0,3.39-1.71,4.46c-1.13.72-3,1.07-5.67,1.07a26.67,26.67,0,0,1-5.28-.33v2.78H717c2.46,0,4.12.43,5,1.28s1.3,2.3,1.3,4.32-.59,3.39-1.76,4.15-3.25,1.13-6.23,1.13-5.08-.34-6.28-1-1.82-2.06-1.83-4.17V83.45a6,6,0,0,1,1-3.93c.66-.78,1.93-1.23,3.81-1.38a30.54,30.54,0,0,1,7.85.37Zm-9.43,7.59c0,1.29.25,2.08.72,2.35a8.84,8.84,0,0,0,3.48.41,15.65,15.65,0,0,0,3.73-.29,1.78,1.78,0,0,0,1.25-.88,5.53,5.53,0,0,0,.25-2V81.36a40.36,40.36,0,0,0-5.15-.37,7.39,7.39,0,0,0-3.31.53,2.35,2.35,0,0,0-1,2.2Zm0,10.9v3a1.74,1.74,0,0,0,1.16,1.71,10.34,10.34,0,0,0,3.81.5,8,8,0,0,0,3.54-.53,2.17,2.17,0,0,0,.92-2A2.27,2.27,0,0,0,719,95.3a6.53,6.53,0,0,0-3.17-.54Z"/><path class="cls-1" d="M740.78,92.59c.74,0,1.11.45,1.11,1.34a1.46,1.46,0,0,1-1.11,1.62,28.14,28.14,0,0,1-5.85.42c-2.74,0-4.71-.45-5.89-1.34s-1.78-2.38-1.79-4.48V83.56c0-2.2.54-3.69,1.62-4.45S732,78,734.9,78s4.92.36,6,1.09,1.55,2.23,1.55,4.5v2.85a2,2,0,0,1-.48,1.37,1.56,1.56,0,0,1-1.21.49H730.48v2.11q0,2.66,4.63,2.64a24.6,24.6,0,0,0,3.51-.22A18.86,18.86,0,0,1,740.78,92.59Zm-10.3-9v1.85h8.69V83.57a2.31,2.31,0,0,0-.88-2.1,7.36,7.36,0,0,0-3.43-.55,7.73,7.73,0,0,0-3.45.52A2.25,2.25,0,0,0,730.48,83.57Z"/><path class="cls-1" d="M747.8,98.78V93.46a1.63,1.63,0,0,1,.47-1.15,1.47,1.47,0,0,1,1.14-.47,1.54,1.54,0,0,1,1.15.49,1.52,1.52,0,0,1,.47,1.13v5.32a1.47,1.47,0,0,1-.49,1.14,1.67,1.67,0,0,1-1.16.44,1.54,1.54,0,0,1-1.58-1.58Z"/><path class="cls-1" d="M768.43,72.87V86.76l8.05-8.14a1.71,1.71,0,0,1,1.2-.55,1.52,1.52,0,0,1,1.12.46,1.36,1.36,0,0,1,.46,1.06,1.63,1.63,0,0,1-.58,1.19L774,85.11l5.73,8a1.83,1.83,0,0,1,.35,1.08,1.39,1.39,0,0,1-.51,1,1.69,1.69,0,0,1-1.19.49,1.2,1.2,0,0,1-1.06-.58l-5.62-7.87-3.31,3.06v4.09c0,.85-.53,1.27-1.6,1.27s-1.62-.42-1.63-1.27V72.87c0-.87.55-1.3,1.63-1.3S768.43,72,768.43,72.87Z"/><path class="cls-1" d="M784.87,81.4c-.75,0-1.13-.45-1.13-1.34a1.47,1.47,0,0,1,1.13-1.62,25.49,25.49,0,0,1,5.84-.47q4.06,0,5.51,1.3c1,.87,1.46,2.38,1.46,4.53v7c0,2.17-.52,3.58-1.58,4.23S793,96,790,96s-5-.33-6-1-1.53-2.06-1.53-4.21.39-3.64,1.17-4.45,2.39-1.23,4.8-1.21h6V83.24a2,2,0,0,0-.83-1.82,6.06,6.06,0,0,0-2.93-.5,23,23,0,0,0-3.68.25A14.44,14.44,0,0,1,784.87,81.4ZM794.45,91V88h-5a6.39,6.39,0,0,0-3,.46c-.45.3-.68,1-.68,2.07s.28,1.79.86,2.1a8.88,8.88,0,0,0,3.44.44,10.22,10.22,0,0,0,3.47-.39A1.6,1.6,0,0,0,794.45,91Z"/><path class="cls-1" d="M802.66,101.45V86.83a21,21,0,0,1,.4-4.61,4.87,4.87,0,0,1,3.81-3.93,16.77,16.77,0,0,1,3.74-.32,18,18,0,0,1,3.78.31,5.43,5.43,0,0,1,2.43,1.25,4.89,4.89,0,0,1,1.42,2.69,23.5,23.5,0,0,1,.36,4.62,21.53,21.53,0,0,1-.4,4.66,5,5,0,0,1-3.81,4.14,19.71,19.71,0,0,1-4.17.33,10.87,10.87,0,0,1-4.33-.71v6.2c0,.84-.53,1.26-1.61,1.26S802.67,102.3,802.66,101.45ZM815,91a9.18,9.18,0,0,0,.39-3.23c0-1.55,0-2.77-.13-3.67a4.71,4.71,0,0,0-.89-2.4c-.38-.5-1.62-.76-3.74-.76s-3.36.26-3.73.76a4.69,4.69,0,0,0-.93,2.43,26.66,26.66,0,0,0-.13,2.72q0,1.4.09,2.34c.06.62.13,1.17.21,1.63a3.13,3.13,0,0,0,1.11,1.77,2.32,2.32,0,0,0,1.44.45c.67,0,1.35,0,2,0s1.19,0,1.53,0a7.65,7.65,0,0,0,1.18-.2,1.52,1.52,0,0,0,.94-.55A11.2,11.2,0,0,0,815,91Z"/><path class="cls-1" d="M825.18,81.4c-.75,0-1.13-.45-1.13-1.34a1.47,1.47,0,0,1,1.13-1.62A25.39,25.39,0,0,1,831,78q4.08,0,5.52,1.3c1,.87,1.46,2.38,1.46,4.53v7c0,2.17-.53,3.58-1.58,4.23s-3.08,1-6.06,1-5-.33-6-1-1.53-2.06-1.53-4.21.39-3.64,1.17-4.45,2.39-1.23,4.8-1.21h6V83.24a2,2,0,0,0-.83-1.82,6.1,6.1,0,0,0-2.94-.5,23,23,0,0,0-3.67.25A14.57,14.57,0,0,1,825.18,81.4ZM834.76,91V88h-5a6.36,6.36,0,0,0-3,.46c-.46.3-.69,1-.69,2.07s.29,1.79.86,2.1a8.92,8.92,0,0,0,3.44.44,10.25,10.25,0,0,0,3.48-.39A1.63,1.63,0,0,0,834.76,91Z"/><path class="cls-1" d="M843,87.13V72.87c0-.87.56-1.3,1.63-1.3s1.61.43,1.61,1.3v5.81a10.87,10.87,0,0,1,4.33-.71,18.88,18.88,0,0,1,4.17.35,5,5,0,0,1,2.43,1.37,5.73,5.73,0,0,1,1.4,2.77,23.21,23.21,0,0,1,.38,4.67,22.75,22.75,0,0,1-.37,4.63,4.79,4.79,0,0,1-1.41,2.66,5.39,5.39,0,0,1-2.44,1.23,17.83,17.83,0,0,1-3.77.32,18.4,18.4,0,0,1-3.75-.3,5,5,0,0,1-2.38-1.25,5.15,5.15,0,0,1-1.42-2.69A20.84,20.84,0,0,1,843,87.13Zm12.71.73q0-2.33-.12-3.69a5,5,0,0,0-.9-2.47c-.35-.52-1.59-.78-3.73-.78-1.86,0-3,.17-3.38.5A2.86,2.86,0,0,0,846.46,83a19.42,19.42,0,0,0-.33,3.62c0,1.26,0,2.35.12,3.24a4.51,4.51,0,0,0,.94,2.4,2.9,2.9,0,0,0,2.13.73c.35,0,.88,0,1.6,0s1.25,0,1.6,0a7.87,7.87,0,0,0,1.2-.2,1.58,1.58,0,0,0,.93-.51,7.76,7.76,0,0,0,.64-1.26A9.14,9.14,0,0,0,855.67,87.86Z"/><path class="cls-1" d="M867.15,72.87V94.42c0,.85-.54,1.27-1.61,1.27s-1.62-.42-1.62-1.27V72.87c0-.87.54-1.3,1.62-1.3S867.15,72,867.15,72.87Z"/><path class="cls-1" d="M885.86,92.59c.73,0,1.1.45,1.1,1.34a1.46,1.46,0,0,1-1.1,1.62A28.25,28.25,0,0,1,880,96q-4.11,0-5.89-1.34t-1.79-4.48V83.56c0-2.2.54-3.69,1.62-4.45S877,78,880,78s4.93.36,6,1.09,1.54,2.23,1.54,4.5v2.85a2,2,0,0,1-.47,1.37,1.58,1.58,0,0,1-1.22.49H875.55v2.11c0,1.77,1.55,2.65,4.63,2.64a24.6,24.6,0,0,0,3.51-.22A19,19,0,0,1,885.86,92.59Zm-10.31-9v1.85h8.69V83.57a2.28,2.28,0,0,0-.88-2.1,7.36,7.36,0,0,0-3.43-.55,7.67,7.67,0,0,0-3.44.52A2.27,2.27,0,0,0,875.55,83.57Z"/><path class="cls-1" d="M480.36,130.33a22.19,22.19,0,0,1,.4-4.66,5,5,0,0,1,3.83-4.15,20.37,20.37,0,0,1,7.52,0,5.07,5.07,0,0,1,2.44,1.37,5.66,5.66,0,0,1,1.42,2.77,22.25,22.25,0,0,1,.39,4.65,21.91,21.91,0,0,1-.39,4.63,4.94,4.94,0,0,1-1.44,2.67,5.33,5.33,0,0,1-2.42,1.24,17.72,17.72,0,0,1-3.76.32,18.64,18.64,0,0,1-3.76-.3,5.24,5.24,0,0,1-2.43-1.25,4.81,4.81,0,0,1-1.41-2.69A21.66,21.66,0,0,1,480.36,130.33Zm3.62-4.12a9.46,9.46,0,0,0-.38,3.22q0,2.3.12,3.66a4.48,4.48,0,0,0,.91,2.37,2.86,2.86,0,0,0,2.11.72c.35,0,.89,0,1.61,0,2.11,0,3.35-.26,3.72-.76a4.74,4.74,0,0,0,.93-2.39c.08-.87.13-1.78.13-2.72,0-2.8-.27-4.49-.79-5.08a4.39,4.39,0,0,0-.62-.65,4.24,4.24,0,0,0-2.52-.5c-1.3,0-2.13,0-2.48,0a2.74,2.74,0,0,0-2.09.74A9.21,9.21,0,0,0,484,126.21Z"/><path class="cls-1" d="M513.67,119.47c0-.77.54-1.15,1.62-1.15s1.62.4,1.62,1.18v7.63q0,3.39-1.71,4.46c-1.13.72-3,1.07-5.67,1.07a26.67,26.67,0,0,1-5.28-.33v2.78h6.57c2.46,0,4.12.42,5,1.28s1.3,2.3,1.3,4.32-.59,3.39-1.76,4.15-3.25,1.13-6.23,1.13-5.08-.34-6.28-1S501,142.91,501,140.8V126.65a6,6,0,0,1,1-3.93q1-1.17,3.81-1.38a30.49,30.49,0,0,1,7.85.37Zm-9.42,7.59c0,1.29.25,2.08.72,2.35a8.84,8.84,0,0,0,3.48.41,15.65,15.65,0,0,0,3.73-.29,1.81,1.81,0,0,0,1.25-.88,5.62,5.62,0,0,0,.24-2v-2.14a40.08,40.08,0,0,0-5.14-.37,7.36,7.36,0,0,0-3.31.53,2.33,2.33,0,0,0-1,2.2Zm0,10.9v3a1.74,1.74,0,0,0,1.16,1.71,10.34,10.34,0,0,0,3.81.5,8,8,0,0,0,3.54-.53,2.16,2.16,0,0,0,.91-2,2.29,2.29,0,0,0-.86-2.07,6.53,6.53,0,0,0-3.17-.54Z"/><path class="cls-1" d="M533.36,116.07v21.55c0,.85-.54,1.27-1.61,1.27s-1.62-.42-1.62-1.27V116.07c0-.87.54-1.3,1.62-1.3S533.36,115.2,533.36,116.07Z"/><path class="cls-1" d="M552.07,135.79c.73,0,1.1.45,1.1,1.34a1.46,1.46,0,0,1-1.1,1.62,28.25,28.25,0,0,1-5.86.42q-4.11,0-5.89-1.34t-1.79-4.48v-6.59c0-2.2.54-3.69,1.62-4.45s3.09-1.14,6-1.14,4.93.36,6,1.09,1.54,2.22,1.54,4.5v2.85a2,2,0,0,1-.47,1.37,1.58,1.58,0,0,1-1.22.49H541.76v2.11c0,1.77,1.55,2.65,4.63,2.64a24.6,24.6,0,0,0,3.51-.22A19,19,0,0,1,552.07,135.79Zm-10.31-9v1.85h8.69v-1.85a2.28,2.28,0,0,0-.88-2.1,7.23,7.23,0,0,0-3.43-.55,7.67,7.67,0,0,0-3.44.52A2.27,2.27,0,0,0,541.76,126.77Z"/><path class="cls-1" d="M564.57,138.89a4.55,4.55,0,0,1-3.43-1,5.32,5.32,0,0,1-1-3.62v-9.9H557.9c-.73,0-1.09-.48-1.09-1.43s.36-1.42,1.09-1.42h2.27v-4.58q0-1.26,1.62-1.26c1.07,0,1.61.42,1.61,1.26v4.58H568c.73,0,1.09.47,1.09,1.42s-.36,1.43-1.09,1.43H563.4v10.14c0,1,.59,1.47,1.76,1.47l3.06-.17c.75,0,1.12.43,1.12,1.3a1.65,1.65,0,0,1-1.16,1.72C567.41,138.85,566.21,138.89,564.57,138.89Z"/><path class="cls-1" d="M578,138.89a4.55,4.55,0,0,1-3.43-1,5.32,5.32,0,0,1-1-3.62v-9.9h-2.27c-.73,0-1.09-.48-1.09-1.43s.36-1.42,1.09-1.42h2.27v-4.58q0-1.26,1.62-1.26t1.62,1.26v4.58h4.58c.73,0,1.09.47,1.09,1.42s-.36,1.43-1.09,1.43h-4.58v10.14c0,1,.58,1.47,1.75,1.47l3.06-.17c.75,0,1.13.43,1.13,1.3a1.66,1.66,0,0,1-1.16,1.72C580.82,138.85,579.62,138.89,578,138.89Z"/><path class="cls-1" d="M599.47,135.79c.74,0,1.11.45,1.11,1.34a1.46,1.46,0,0,1-1.11,1.62,28.14,28.14,0,0,1-5.85.42q-4.11,0-5.89-1.34t-1.79-4.48v-6.59c0-2.2.54-3.69,1.62-4.45s3.08-1.14,6-1.14,4.92.36,5.95,1.09,1.55,2.22,1.55,4.5v2.85a2,2,0,0,1-.48,1.37,1.56,1.56,0,0,1-1.21.49H589.17v2.11q0,2.65,4.63,2.64a24.6,24.6,0,0,0,3.51-.22A18.86,18.86,0,0,1,599.47,135.79Zm-10.3-9v1.85h8.69v-1.85a2.31,2.31,0,0,0-.88-2.1,7.23,7.23,0,0,0-3.43-.55,7.73,7.73,0,0,0-3.45.52A2.27,2.27,0,0,0,589.17,126.77Z"/><path class="cls-1" d="M616.4,124.6c-.75,0-1.12-.45-1.12-1.34a1.46,1.46,0,0,1,1.12-1.62,25.49,25.49,0,0,1,5.84-.47c2.72,0,4.55.43,5.52,1.3s1.45,2.38,1.45,4.53V134c0,2.17-.52,3.58-1.58,4.23s-3.08,1-6.07,1-5-.33-6-1-1.5-2.06-1.5-4.21.39-3.64,1.16-4.45,2.38-1.23,4.79-1.21h6v-1.87a2,2,0,0,0-.83-1.82,6,6,0,0,0-2.93-.5,23.12,23.12,0,0,0-3.68.25A14.44,14.44,0,0,1,616.4,124.6Zm9.58,9.61v-3.06h-5a6.29,6.29,0,0,0-3,.46c-.46.3-.69,1-.69,2.07s.29,1.79.86,2.1a8.79,8.79,0,0,0,3.42.44,10.18,10.18,0,0,0,3.47-.39A1.61,1.61,0,0,0,626,134.21Zm-6.28-14.87a3.41,3.41,0,0,1,0-4.75,3.33,3.33,0,0,1,4.72,0,3.36,3.36,0,0,1,0,4.75,3.29,3.29,0,0,1-2.37,1A3.23,3.23,0,0,1,619.7,119.34Zm.94-2.37a1.4,1.4,0,0,0,.42,1,1.34,1.34,0,0,0,1,.41,1.38,1.38,0,0,0,1-.42,1.47,1.47,0,0,0,.42-1,1.46,1.46,0,0,0-2.48-1A1.36,1.36,0,0,0,620.64,117Z"/><path class="cls-1" d="M641.64,145.9h-1.26c-.74,0-1.11-.49-1.11-1.48s.37-1.47,1.11-1.47h1.23a1.59,1.59,0,0,0,1-.37,1.33,1.33,0,0,0,.49-1.11V122.68c0-.84.54-1.27,1.62-1.27s1.62.43,1.62,1.27v18.55a5.39,5.39,0,0,1-.95,3.6C644.81,145.53,643.54,145.89,641.64,145.9ZM643,117.28a1.85,1.85,0,0,1,1.76-1.79A1.66,1.66,0,0,1,646,116a1.81,1.81,0,0,1,.51,1.26,1.81,1.81,0,0,1-1.76,1.76,1.78,1.78,0,0,1-1.76-1.78Z"/><path class="cls-1" d="M651.56,130.33a21.53,21.53,0,0,1,.4-4.66,5,5,0,0,1,3.82-4.15,16.63,16.63,0,0,1,3.77-.35,16.44,16.44,0,0,1,3.75.35,5.07,5.07,0,0,1,2.44,1.37,5.66,5.66,0,0,1,1.42,2.77,22.25,22.25,0,0,1,.39,4.65,21.91,21.91,0,0,1-.39,4.63,4.94,4.94,0,0,1-1.44,2.67,5.28,5.28,0,0,1-2.42,1.24,17.56,17.56,0,0,1-3.75.32,18.75,18.75,0,0,1-3.77-.3,5.24,5.24,0,0,1-2.43-1.25,4.81,4.81,0,0,1-1.41-2.69A21.76,21.76,0,0,1,651.56,130.33Zm3.62-4.12a9.15,9.15,0,0,0-.39,3.22q0,2.3.12,3.66a4.49,4.49,0,0,0,.92,2.37,2.81,2.81,0,0,0,2.1.72c.35,0,.89,0,1.62,0,2.1,0,3.34-.26,3.72-.76a4.92,4.92,0,0,0,.93-2.39c.08-.87.12-1.78.12-2.72,0-2.8-.27-4.49-.79-5.08a4.39,4.39,0,0,0-.61-.65,4.28,4.28,0,0,0-2.53-.5c-1.3,0-2.13,0-2.48,0-1.1.07-1.79.32-2.08.74A7.46,7.46,0,0,0,655.18,126.21Z"/><path class="cls-1" d="M672.21,130.33V116.07c0-.87.55-1.3,1.63-1.3s1.61.43,1.61,1.3v5.81a10.84,10.84,0,0,1,4.33-.71,18.72,18.72,0,0,1,4.16.35,5,5,0,0,1,2.44,1.37,5.63,5.63,0,0,1,1.39,2.77,22.49,22.49,0,0,1,.38,4.67,23.61,23.61,0,0,1-.36,4.63,4.79,4.79,0,0,1-1.41,2.66,5.49,5.49,0,0,1-2.44,1.23,17.83,17.83,0,0,1-3.77.32,18.33,18.33,0,0,1-3.75-.3,5,5,0,0,1-2.38-1.25,5.16,5.16,0,0,1-1.43-2.69A21.56,21.56,0,0,1,672.21,130.33Zm12.71.73q0-2.33-.12-3.69a5,5,0,0,0-.9-2.47c-.35-.52-1.6-.78-3.73-.78-1.86,0-3,.17-3.39.5a2.83,2.83,0,0,0-1.07,1.61,19.42,19.42,0,0,0-.33,3.62c0,1.26,0,2.35.12,3.24a4.5,4.5,0,0,0,.93,2.4,2.94,2.94,0,0,0,2.13.73c.35,0,.89,0,1.61,0s1.25,0,1.6,0A7.57,7.57,0,0,0,683,136a1.65,1.65,0,0,0,.94-.51,6.81,6.81,0,0,0,1-4.45Z"/><path class="cls-1" d="M692.87,130.33V116.07c0-.87.55-1.3,1.62-1.3s1.61.43,1.61,1.3v5.81a10.87,10.87,0,0,1,4.33-.71,18.88,18.88,0,0,1,4.17.35,5,5,0,0,1,2.43,1.37,5.73,5.73,0,0,1,1.4,2.77,23.21,23.21,0,0,1,.38,4.67,23.61,23.61,0,0,1-.36,4.63,4.86,4.86,0,0,1-1.42,2.66,5.39,5.39,0,0,1-2.44,1.23,17.83,17.83,0,0,1-3.77.32,18.4,18.4,0,0,1-3.75-.3,5,5,0,0,1-2.38-1.25,5.15,5.15,0,0,1-1.42-2.69A20.93,20.93,0,0,1,692.87,130.33Zm12.7.73q0-2.33-.12-3.69a4.94,4.94,0,0,0-.9-2.47c-.35-.52-1.59-.78-3.73-.78-1.86,0-3,.17-3.38.5a2.86,2.86,0,0,0-1.08,1.61,19.42,19.42,0,0,0-.33,3.62c0,1.26,0,2.35.12,3.24a4.51,4.51,0,0,0,.94,2.4,2.9,2.9,0,0,0,2.13.73c.35,0,.88,0,1.6,0s1.25,0,1.6,0a7.87,7.87,0,0,0,1.2-.2,1.58,1.58,0,0,0,.93-.51,7.76,7.76,0,0,0,.64-1.26A8.9,8.9,0,0,0,705.57,131.06Z"/><path class="cls-1" d="M726.91,135.79c.74,0,1.11.45,1.11,1.34a1.46,1.46,0,0,1-1.11,1.62,28.14,28.14,0,0,1-5.85.42q-4.11,0-5.89-1.34t-1.79-4.48v-6.59c0-2.2.54-3.69,1.62-4.45s3.08-1.14,6-1.14,4.92.36,6,1.09,1.54,2.22,1.54,4.5v2.85a2,2,0,0,1-.47,1.37,1.6,1.6,0,0,1-1.22.49H716.61v2.11q0,2.65,4.63,2.64a24.6,24.6,0,0,0,3.51-.22A18.86,18.86,0,0,1,726.91,135.79Zm-10.3-9v1.85h8.69v-1.85a2.31,2.31,0,0,0-.88-2.1,7.23,7.23,0,0,0-3.43-.55,7.73,7.73,0,0,0-3.45.52A2.29,2.29,0,0,0,716.61,126.77Z"/><path class="cls-1" d="M760.08,124.12c-1,0-1.67,0-2.09.07a2,2,0,0,0-1.12.53,1.9,1.9,0,0,0-.58,1.2,20.92,20.92,0,0,0-.09,2.29v9.41c0,.84-.54,1.27-1.62,1.27s-1.62-.43-1.62-1.27v-9.89c0-1.65-.21-2.67-.65-3a4.35,4.35,0,0,0-2.69-.57c-1.37,0-2.25,0-2.66.07a1.73,1.73,0,0,0-1.11.58,2.19,2.19,0,0,0-.53,1.31c-.05.53-.07,1.38-.07,2.55v9c0,.84-.54,1.27-1.61,1.27s-1.61-.42-1.63-1.27v-9.39a11.71,11.71,0,0,1,.83-5.18c.55-1,1.68-1.61,3.39-1.76.67-.07,1.63-.11,2.89-.12,2.78,0,4.61.33,5.46,1q1.27-1,5.47-1c1.23,0,2.18,0,2.86.1,1.75.2,2.87.76,3.36,1.67a11.85,11.85,0,0,1,.88,5.29v9.39c0,.85-.54,1.27-1.62,1.27s-1.61-.43-1.61-1.27v-9a25.39,25.39,0,0,0-.09-2.55,2.19,2.19,0,0,0-.53-1.31,1.75,1.75,0,0,0-1.11-.58C761.77,124.15,761.07,124.12,760.08,124.12Z"/><path class="cls-1" d="M785.57,135.79c.74,0,1.11.45,1.11,1.34a1.46,1.46,0,0,1-1.11,1.62,28.14,28.14,0,0,1-5.85.42c-2.74,0-4.71-.45-5.89-1.34s-1.78-2.38-1.79-4.48v-6.59c0-2.2.54-3.69,1.61-4.45s3.09-1.14,6-1.14,4.93.36,6,1.09,1.55,2.22,1.55,4.5v2.85a2,2,0,0,1-.48,1.37,1.56,1.56,0,0,1-1.21.49H775.27v2.11q0,2.65,4.62,2.64a24.65,24.65,0,0,0,3.52-.22A18.86,18.86,0,0,1,785.57,135.79Zm-10.3-9v1.85H784v-1.85a2.31,2.31,0,0,0-.88-2.1,7.23,7.23,0,0,0-3.43-.55,7.73,7.73,0,0,0-3.45.52A2.25,2.25,0,0,0,775.27,126.77Z"/><path class="cls-1" d="M807.83,116.07v14.26a21.66,21.66,0,0,1-.39,4.6A5,5,0,0,1,806,137.6a5.15,5.15,0,0,1-2.39,1.25,17.45,17.45,0,0,1-3.74.32,18.64,18.64,0,0,1-3.76-.3,5.24,5.24,0,0,1-2.43-1.25,4.76,4.76,0,0,1-1.42-2.69,24,24,0,0,1-.38-4.6,21.53,21.53,0,0,1,.4-4.66,5,5,0,0,1,3.82-4.15,18.78,18.78,0,0,1,4.16-.35,10.76,10.76,0,0,1,4.31.71v-5.81c0-.87.54-1.3,1.62-1.3S807.83,115.2,807.83,116.07Zm-12.31,10.14a9.15,9.15,0,0,0-.39,3.22c0,1.53,0,2.75.13,3.66a4.4,4.4,0,0,0,.91,2.37,2.84,2.84,0,0,0,2.11.72c.35,0,.88,0,1.61,0,2.11,0,3.35-.26,3.72-.76a4.74,4.74,0,0,0,.93-2.39c.08-.87.12-1.78.12-2.72,0-2.8-.26-4.49-.79-5.08a3.92,3.92,0,0,0-.61-.65,4.28,4.28,0,0,0-2.53-.5c-1.3,0-2.12,0-2.47,0-1.1.07-1.8.32-2.09.74A8.24,8.24,0,0,0,795.52,126.21Z"/></svg>