<svg id="Layer_1" data-name="Layer 1" xmlns="http://www.w3.org/2000/svg" viewBox="0 0 980 300"><defs><style>.cls-1{fill:#fff;}</style></defs><title>text</title><path class="cls-1" d="M516.43,43l3.87,6.91h-2.54l-3.92-7,5.59-7h2.77Zm6.23,0,3.87,6.91H524l-4-7,5.62-7h2.77Z"/><path class="cls-1" d="M541.09,26.88h3.15l-2.39,12.46.19,0c.87-1.06,1.75-2,2.51-2.85l9-9.57h4l-10.79,11,6.61,14.59h-3.45l-5.59-12.58-3.08,2.85-1.86,9.73h-3.12Z"/><path class="cls-1" d="M573,41.35c0,5.67-4,11.56-10.19,11.56-4.59,0-7.18-3.42-7.18-7.57,0-6,4.22-11.66,10.19-11.66C570.8,33.68,573,37.44,573,41.35Zm-14.1,3.88c0,3,1.63,5.17,4.33,5.17,3.73,0,6.54-4.79,6.54-9.08,0-2.13-1-5.13-4.3-5.13C561.53,36.19,558.87,41,558.91,45.23Z"/><path class="cls-1" d="M575.21,52.49l2.47-13c.42-2.06.65-3.84.88-5.36h2.81l-.46,3.61H581a8,8,0,0,1,6.8-4c2.2,0,4.67,1.25,4.67,5.13a17.58,17.58,0,0,1-.34,3l-2,10.72h-3.15l2-10.6a12.27,12.27,0,0,0,.26-2.36c0-1.86-.72-3.23-2.88-3.23S580.87,39,580,43.56l-1.67,8.93Z"/><path class="cls-1" d="M595.66,49.3a8.38,8.38,0,0,0,4,1.14c2.13,0,3.49-1.37,3.49-3,0-1.44-.64-2.31-2.54-3.38-2.13-1.18-3.31-2.81-3.31-4.67,0-3.23,2.78-5.7,6.65-5.7a7.75,7.75,0,0,1,3.84.91l-.87,2.4a6.61,6.61,0,0,0-3.2-.84c-1.9,0-3.26,1.18-3.26,2.77,0,1.33.87,2.17,2.5,3.08,2.05,1.18,3.46,2.77,3.46,4.83,0,3.87-3.15,6-7,6a8.06,8.06,0,0,1-4.56-1.26Z"/><path class="cls-1" d="M627.61,34.1l-2.47,13c-.38,2-.64,3.84-.83,5.36h-2.85L622,49h-.08a8.18,8.18,0,0,1-6.49,3.88c-2.36,0-4.83-1.14-4.83-5.32a17.45,17.45,0,0,1,.34-3.08l2-10.41H616l-1.94,10.26a12.91,12.91,0,0,0-.34,2.69c0,1.9.8,3.2,3,3.2s5.2-2.66,6-6.73l1.79-9.42Z"/><path class="cls-1" d="M629.7,52.49l5.13-27H638l-5.17,27Z"/><path class="cls-1" d="M651.63,51.42a12.66,12.66,0,0,1-6.08,1.45c-4.87,0-7-3.31-7-7.37,0-5.55,4.1-11.82,10-11.82,3.49,0,5.39,2.09,5.39,4.71,0,4.83-5.43,6.12-12.23,6a7.65,7.65,0,0,0,.38,3.5,4.18,4.18,0,0,0,4.1,2.47,10.23,10.23,0,0,0,4.94-1.29Zm-3.5-15.27c-3,0-5.24,2.93-6,5.81,4.94,0,8.81-.61,8.81-3.46C650.94,37,649.8,36.15,648.13,36.15Z"/><path class="cls-1" d="M655.58,52.49l2.47-13c.42-2.06.65-3.84.87-5.36h2.82l-.46,3.61h.08a8,8,0,0,1,6.8-4c2.2,0,4.67,1.25,4.67,5.13a17.58,17.58,0,0,1-.34,3l-2,10.72h-3.16l2-10.6a12.27,12.27,0,0,0,.26-2.36c0-1.86-.72-3.23-2.89-3.23s-5.43,2.7-6.26,7.26l-1.68,8.93Z"/><path class="cls-1" d="M684.12,29.16l-1,4.94h4.41l-.5,2.47h-4.41L681,45.5a16,16,0,0,0-.34,3,1.55,1.55,0,0,0,1.75,1.75,8.29,8.29,0,0,0,1.48-.12l-.15,2.47a7.27,7.27,0,0,1-2.43.35c-2.81,0-3.88-1.71-3.88-3.58a17.52,17.52,0,0,1,.38-3.45l1.83-9.31h-2.66l.49-2.47h2.62l.8-4.14Z"/><path class="cls-1" d="M700.87,51.42a12.63,12.63,0,0,1-6.08,1.45c-4.86,0-7-3.31-7-7.37,0-5.55,4.11-11.82,10-11.82,3.5,0,5.4,2.09,5.4,4.71,0,4.83-5.43,6.12-12.23,6a7.51,7.51,0,0,0,.38,3.5,4.18,4.18,0,0,0,4.1,2.47,10.26,10.26,0,0,0,4.94-1.29Zm-3.49-15.27c-3,0-5.25,2.93-6,5.81,4.93,0,8.81-.61,8.81-3.46C700.19,37,699.05,36.15,697.38,36.15Z"/><path class="cls-1" d="M704.83,52.49l2.47-13c.41-2.06.64-3.84.87-5.36H711l-.45,3.61h.07a8,8,0,0,1,6.8-4c2.21,0,4.68,1.25,4.68,5.13a18.68,18.68,0,0,1-.34,3l-2.06,10.72h-3.15l2-10.6a11.53,11.53,0,0,0,.27-2.36c0-1.86-.72-3.23-2.89-3.23s-5.43,2.7-6.27,7.26L708,52.49Z"/><path class="cls-1" d="M738.38,51.42a12.66,12.66,0,0,1-6.08,1.45c-4.86,0-7-3.31-7-7.37,0-5.55,4.1-11.82,10-11.82,3.5,0,5.4,2.09,5.4,4.71,0,4.83-5.44,6.12-12.24,6a7.65,7.65,0,0,0,.38,3.5,4.18,4.18,0,0,0,4.1,2.47,10.23,10.23,0,0,0,4.94-1.29Zm-3.5-15.27c-3,0-5.24,2.93-6,5.81,4.94,0,8.82-.61,8.82-3.46C737.7,37,736.56,36.15,734.88,36.15Z"/><path class="cls-1" d="M749.25,52.49l3.53-18.39h3.16L752.4,52.49ZM753.35,29a2.09,2.09,0,0,1,2.09-2.13,1.83,1.83,0,0,1,1.86,2,2.07,2.07,0,0,1-2.12,2.12A1.81,1.81,0,0,1,753.35,29Z"/><path class="cls-1" d="M773,26.88l-4.87,25.61h-3.15l4.86-25.61Z"/><path class="cls-1" d="M773.72,52.49l2.47-13c.42-2.06.64-3.84.87-5.36h2.81l-.45,3.61h.07a8,8,0,0,1,6.8-4c2.21,0,4.68,1.25,4.68,5.13a17.58,17.58,0,0,1-.34,3l-2,10.72h-3.16l2-10.6a12.27,12.27,0,0,0,.26-2.36c0-1.86-.72-3.23-2.89-3.23s-5.43,2.7-6.27,7.26l-1.67,8.93Z"/><path class="cls-1" d="M794,52.49l2.47-13c.42-2.06.65-3.84.87-5.36h2.82l-.46,3.61h.08a8,8,0,0,1,6.8-4c2.2,0,4.67,1.25,4.67,5.13a17.58,17.58,0,0,1-.34,3l-2,10.72h-3.16l2-10.6a12.27,12.27,0,0,0,.26-2.36c0-1.86-.72-3.23-2.88-3.23s-5.44,2.7-6.27,7.26l-1.67,8.93Z"/><path class="cls-1" d="M831.93,41.35c0,5.67-4,11.56-10.18,11.56-4.6,0-7.18-3.42-7.18-7.57,0-6,4.22-11.66,10.18-11.66C829.73,33.68,831.93,37.44,831.93,41.35Zm-14.09,3.88c0,3,1.63,5.17,4.33,5.17,3.72,0,6.53-4.79,6.53-9.08,0-2.13-1-5.13-4.29-5.13C820.46,36.19,817.8,41,817.84,45.23Z"/><path class="cls-1" d="M834.59,52.49l3-15.92h-2.44l.46-2.47h2.47l.19-1a10.72,10.72,0,0,1,3-6.42,6.46,6.46,0,0,1,4.37-1.64,5,5,0,0,1,2.51.5l-.69,2.5a4.65,4.65,0,0,0-1.86-.34c-2.51,0-3.72,2.43-4.25,5.47l-.15.88h4.1l-.5,2.47h-4.06l-3,15.92Z"/><path class="cls-1" d="M856.82,52.49a46.78,46.78,0,0,1,.42-4.75h-.08c-2,3.8-4.52,5.17-7.14,5.17-3.23,0-5.28-2.59-5.28-6.08,0-6.39,4.71-13.15,12.73-13.15a17.11,17.11,0,0,1,4.94.72L860.55,44a41.62,41.62,0,0,0-.8,8.51Zm2-16a8.72,8.72,0,0,0-2.2-.26c-4.75,0-8.62,5-8.66,10.07,0,2.05.72,4.06,3.15,4.06,2.62,0,5.74-3.42,6.65-8.32Z"/><path class="cls-1" d="M877.11,51.77a12.77,12.77,0,0,1-5.32,1.1c-4.74,0-7.06-3.19-7.06-7.11,0-6.27,4.63-12,11.24-12a9.29,9.29,0,0,1,3.84.8L878.9,37a7.19,7.19,0,0,0-3.12-.68c-4.78,0-7.78,4.71-7.78,9,0,3,1.55,4.9,4.55,4.9a9.76,9.76,0,0,0,4.26-1Z"/><path class="cls-1" d="M889,29.16l-1,4.94h4.41l-.5,2.47h-4.41l-1.71,8.93a16,16,0,0,0-.34,3,1.55,1.55,0,0,0,1.75,1.75,8.29,8.29,0,0,0,1.48-.12l-.15,2.47a7.27,7.27,0,0,1-2.43.35c-2.81,0-3.88-1.71-3.88-3.58a17.52,17.52,0,0,1,.38-3.45l1.83-9.31h-2.66l.49-2.47h2.62l.8-4.14Z"/><path class="cls-1" d="M910.13,41.35c0,5.67-4,11.56-10.18,11.56-4.6,0-7.18-3.42-7.18-7.57,0-6,4.22-11.66,10.18-11.66C907.93,33.68,910.13,37.44,910.13,41.35ZM896,45.23c0,3,1.63,5.17,4.33,5.17,3.72,0,6.54-4.79,6.54-9.08,0-2.13-1-5.13-4.3-5.13C898.66,36.19,896,41,896,45.23Z"/><path class="cls-1" d="M912.34,52.49l2.24-11.86c.46-2.39.76-4.82.95-6.53h2.78c-.16,1.29-.31,2.58-.5,4h.12c1.17-2.51,3.15-4.41,5.62-4.41a6,6,0,0,1,.87.08l-.61,3.11a4.26,4.26,0,0,0-.83-.07c-2.74,0-5.17,3.3-6,7.59l-1.52,8.1Z"/><path class="cls-1" d="M526.91,97a12.63,12.63,0,0,1-6.08,1.45c-4.86,0-7-3.31-7-7.37,0-5.55,4.11-11.82,10-11.82,3.5,0,5.4,2.09,5.4,4.71,0,4.83-5.43,6.12-12.23,6a7.51,7.51,0,0,0,.38,3.5,4.18,4.18,0,0,0,4.1,2.47,10.26,10.26,0,0,0,4.94-1.29Zm-3.49-15.27c-3,0-5.25,2.92-6,5.81,4.93,0,8.81-.6,8.81-3.45C526.23,82.59,525.09,81.75,523.42,81.75Z"/><path class="cls-1" d="M530.87,98.09l2.24-11.86c.45-2.39.76-4.82.95-6.53h2.77c-.15,1.29-.3,2.58-.49,4h.11c1.18-2.51,3.16-4.41,5.63-4.41a6,6,0,0,1,.87.08l-.61,3.11a4.38,4.38,0,0,0-.84-.07c-2.73,0-5.16,3.3-6,7.59L534,98.09Z"/><path class="cls-1" d="M569.43,71.11l-4,21.16a45.59,45.59,0,0,0-.8,5.82h-2.89l.49-3.65h-.07c-1.67,2.62-4,4.06-6.61,4.06-3.57,0-5.51-2.92-5.51-6.68,0-6.54,4.86-12.54,11.36-12.54a8.34,8.34,0,0,1,3.27.65l1.63-8.82Zm-5.28,11.48a5.7,5.7,0,0,0-3-.76c-4.4,0-7.82,4.67-7.82,9.57,0,2.2.76,4.52,3.45,4.52,2.43,0,5.36-2.77,6.16-6.91Z"/><path class="cls-1" d="M573.84,79.7l1.83,9.91c.41,2.09.64,3.46.83,4.83h.08c.49-1.18,1-2.47,2-4.48l4.68-10.26h3.34l-6.88,14c-2,4-3.83,7.22-6.34,9.65a11.5,11.5,0,0,1-5.36,3.19l-.76-2.7a12,12,0,0,0,3.38-1.78,14.19,14.19,0,0,0,3.54-4.22,1.28,1.28,0,0,0,.11-.83L570.58,79.7Z"/><path class="cls-1" d="M586.61,98.09l5.09-27h3.16L591.63,88h.07c.57-.65,1.26-1.33,1.71-1.86l6.5-6.46h3.88l-8,7.56,5.51,10.83h-3.5L593.38,89l-2.32,2.09-1.33,7Z"/><path class="cls-1" d="M612.15,74.76l-.95,4.94h4.4l-.49,2.47H610.7L609,91.1a16,16,0,0,0-.34,3,1.55,1.55,0,0,0,1.75,1.75,8.29,8.29,0,0,0,1.48-.12l-.15,2.47a7.29,7.29,0,0,1-2.43.34c-2.81,0-3.88-1.7-3.88-3.57a17.52,17.52,0,0,1,.38-3.45l1.83-9.31H605l.5-2.47h2.62l.8-4.14Z"/><path class="cls-1" d="M615.79,98.09l3.54-18.39h3.15L619,98.09Zm4.11-23.52A2.09,2.09,0,0,1,622,72.44a1.83,1.83,0,0,1,1.86,2,2.07,2.07,0,0,1-2.13,2.12A1.81,1.81,0,0,1,619.9,74.57Z"/><path class="cls-1" d="M624.69,102.27a9.76,9.76,0,0,0,4.86,1.21c3.08,0,5.51-1.59,6.61-6.57l.61-2.74h-.11a7.34,7.34,0,0,1-6.39,3.92c-3.68,0-5.58-3.12-5.58-6.39,0-6.23,4.56-12.42,11.66-12.42a15,15,0,0,1,5.89,1.29l-2.81,15.2c-.76,3.87-1.79,6.57-3.72,8.21a9.75,9.75,0,0,1-6.43,2,10.92,10.92,0,0,1-5.51-1.29Zm14.09-19.84a7.81,7.81,0,0,0-3-.6c-4.59,0-7.75,4.78-7.79,9.34,0,2,.73,4.41,3.54,4.41s5.43-3.42,6.11-7Z"/><path class="cls-1" d="M657.67,97a12.66,12.66,0,0,1-6.08,1.45c-4.86,0-7-3.31-7-7.37,0-5.55,4.1-11.82,10-11.82,3.5,0,5.39,2.09,5.39,4.71,0,4.83-5.43,6.12-12.23,6a7.65,7.65,0,0,0,.38,3.5,4.18,4.18,0,0,0,4.1,2.47,10.23,10.23,0,0,0,4.94-1.29Zm-3.5-15.27c-3,0-5.24,2.92-6,5.81,4.94,0,8.81-.6,8.81-3.45C657,82.59,655.84,81.75,654.17,81.75Z"/><path class="cls-1" d="M658.47,102.76a61.21,61.21,0,0,0,3.72-9.08L666,93.3a55.48,55.48,0,0,1-5.05,9.23Z"/><path class="cls-1" d="M676.14,98.09l5.09-27h3.15L681.15,88h.08c.57-.65,1.25-1.33,1.71-1.86l6.5-6.46h3.87l-8,7.56,5.51,10.83h-3.49L682.9,89l-2.32,2.09-1.33,7Z"/><path class="cls-1" d="M705.09,98.09a47,47,0,0,1,.42-4.75h-.08c-2,3.8-4.52,5.16-7.14,5.16-3.23,0-5.28-2.58-5.28-6.07,0-6.39,4.71-13.15,12.73-13.15a17.11,17.11,0,0,1,4.94.72l-1.86,9.58a41.62,41.62,0,0,0-.8,8.51Zm2-16a8.72,8.72,0,0,0-2.2-.26c-4.75,0-8.62,5-8.66,10.07,0,2,.72,4.06,3.15,4.06,2.62,0,5.74-3.42,6.65-8.32Z"/><path class="cls-1" d="M711.1,105.61l3.68-19.38c.38-2.2.76-4.67,1-6.53h2.89l-.54,3.46h.08a8.3,8.3,0,0,1,6.61-3.88c4,0,5.66,3.27,5.66,6.65,0,6.46-4.63,12.57-10.75,12.57a8.06,8.06,0,0,1-4-.83h-.08l-1.48,7.94ZM716.26,95a5.55,5.55,0,0,0,3.5,1c4.07,0,7.49-5.06,7.49-9.88,0-1.94-.88-4.26-3.54-4.26-2.47,0-5.58,2.85-6.53,8Z"/><path class="cls-1" d="M744.88,98.09c0-1.1.19-2.85.41-4.75h-.07c-2,3.8-4.52,5.16-7.14,5.16-3.23,0-5.29-2.58-5.29-6.07,0-6.39,4.72-13.15,12.73-13.15a17.05,17.05,0,0,1,4.94.72l-1.86,9.58a42.34,42.34,0,0,0-.8,8.51Zm2-16a8.79,8.79,0,0,0-2.2-.26c-4.75,0-8.63,5-8.67,10.07,0,2,.72,4.06,3.16,4.06,2.62,0,5.73-3.42,6.65-8.32Z"/><path class="cls-1" d="M760.65,71.11,758.21,83h.08a7.74,7.74,0,0,1,6.46-3.76c4,0,5.55,3.34,5.55,6.61,0,5.62-4.07,12.61-11.44,12.61-3.23,0-5.66-1.33-5.66-4.74a18.25,18.25,0,0,1,.3-2.85l4-19.8Zm-4,19.87a8.1,8.1,0,0,0-.23,2.32c0,1.75,1,2.74,3,2.74,4.75,0,7.64-5.67,7.64-9.73,0-2.28-1-4.41-3.5-4.41-2.73,0-5.54,2.81-6.45,7.15Z"/><path class="cls-1" d="M772.5,98.09l5.13-27h3.16l-5.17,27Z"/><path class="cls-1" d="M794.43,97a12.66,12.66,0,0,1-6.08,1.45c-4.86,0-7-3.31-7-7.37,0-5.55,4.1-11.82,10-11.82,3.49,0,5.39,2.09,5.39,4.71,0,4.83-5.43,6.12-12.23,6a7.65,7.65,0,0,0,.38,3.5A4.18,4.18,0,0,0,789,96,10.23,10.23,0,0,0,794,94.67Zm-3.5-15.27c-3,0-5.24,2.92-6,5.81,4.94,0,8.81-.6,8.81-3.45C793.74,82.59,792.6,81.75,790.93,81.75Z"/><path class="cls-1" d="M822.93,87c0,5.66-4,11.54-10.19,11.54-4.59,0-7.18-3.41-7.18-7.56,0-6,4.22-11.66,10.19-11.66C820.72,79.28,822.93,83,822.93,87Zm-14.1,3.87c0,3,1.63,5.17,4.33,5.17,3.73,0,6.54-4.79,6.54-9.08,0-2.13-1-5.13-4.3-5.13C811.45,81.79,808.79,86.61,808.83,90.83Z"/><path class="cls-1" d="M825.44,102.27a9.76,9.76,0,0,0,4.86,1.21c3.08,0,5.51-1.59,6.61-6.57l.61-2.74h-.12A7.31,7.31,0,0,1,831,98.09c-3.68,0-5.58-3.12-5.58-6.39,0-6.23,4.56-12.42,11.66-12.42A15,15,0,0,1,843,80.57l-2.81,15.2c-.76,3.87-1.79,6.57-3.72,8.21a9.75,9.75,0,0,1-6.43,2,10.92,10.92,0,0,1-5.51-1.29Zm14.09-19.84a7.81,7.81,0,0,0-3-.6c-4.59,0-7.75,4.78-7.79,9.34,0,2,.73,4.41,3.54,4.41s5.43-3.42,6.11-7Z"/><path class="cls-1" d="M513.69,143.69l5.13-27H522l-5.16,27Z"/><path class="cls-1" d="M535.62,142.62a12.66,12.66,0,0,1-6.08,1.45c-4.87,0-7-3.31-7-7.37,0-5.55,4.11-11.82,10-11.82,3.49,0,5.39,2.09,5.39,4.71,0,4.83-5.43,6.12-12.23,6a7.51,7.51,0,0,0,.38,3.5,4.18,4.18,0,0,0,4.1,2.47,10.23,10.23,0,0,0,4.94-1.29Zm-3.5-15.27c-3,0-5.24,2.93-6,5.81,4.94,0,8.81-.61,8.81-3.45C534.93,128.19,533.79,127.35,532.12,127.35Z"/><path class="cls-1" d="M547.81,120.36l-.95,4.94h4.41l-.49,2.47h-4.41l-1.71,8.93a16,16,0,0,0-.34,3,1.55,1.55,0,0,0,1.75,1.75,8.29,8.29,0,0,0,1.48-.12l-.15,2.47a7.29,7.29,0,0,1-2.44.35c-2.81,0-3.87-1.71-3.87-3.58a16.79,16.79,0,0,1,.38-3.45l1.82-9.31h-2.66l.5-2.47h2.62l.8-4.14Z"/><path class="cls-1" d="M559.71,120.36l-1,4.94h4.4l-.49,2.47h-4.41l-1.71,8.93a16,16,0,0,0-.34,3,1.55,1.55,0,0,0,1.75,1.75,8.29,8.29,0,0,0,1.48-.12l-.15,2.47a7.27,7.27,0,0,1-2.43.35c-2.81,0-3.88-1.71-3.88-3.58a17.52,17.52,0,0,1,.38-3.45l1.83-9.31h-2.66l.49-2.47h2.62l.8-4.14Z"/><path class="cls-1" d="M576.46,142.62a12.63,12.63,0,0,1-6.08,1.45c-4.86,0-7-3.31-7-7.37,0-5.55,4.11-11.82,10-11.82,3.5,0,5.4,2.09,5.4,4.71,0,4.83-5.43,6.12-12.24,6a7.78,7.78,0,0,0,.38,3.5,4.21,4.21,0,0,0,4.11,2.47,10.26,10.26,0,0,0,4.94-1.29ZM573,127.35c-3,0-5.25,2.93-6,5.81,4.94,0,8.82-.61,8.82-3.45C575.78,128.19,574.64,127.35,573,127.35Z"/><path class="cls-1" d="M599.53,143.69a47,47,0,0,1,.42-4.75h-.08c-2,3.8-4.52,5.17-7.14,5.17-3.23,0-5.28-2.59-5.28-6.08,0-6.39,4.71-13.15,12.72-13.15a17.05,17.05,0,0,1,4.94.72l-1.86,9.58a41.51,41.51,0,0,0-.79,8.51Zm2.05-16a8.72,8.72,0,0,0-2.2-.26c-4.75,0-8.63,5-8.67,10.07,0,2,.73,4.06,3.16,4.06,2.62,0,5.74-3.42,6.65-8.32Zm1.41-7.86a3.76,3.76,0,0,1-4,3.61,3.45,3.45,0,0,1-3.65-3.35,3.72,3.72,0,0,1,4-3.72A3.41,3.41,0,0,1,603,119.79Zm-5.7.19a1.88,1.88,0,0,0,1.82,2,2.06,2.06,0,0,0,2-2.24,1.84,1.84,0,0,0-1.86-2A2,2,0,0,0,597.29,120Z"/><path class="cls-1" d="M620.92,125.3l-3.49,18.31c-.57,3.08-1.22,5-2.32,6.23a5.71,5.71,0,0,1-4.22,1.79,7,7,0,0,1-2.09-.23l.38-2.47a6.22,6.22,0,0,0,1.45.15c1.59,0,2.85-1,3.57-4.78l3.57-19Zm-2.73-5.13a2.12,2.12,0,0,1,2.09-2.13,1.83,1.83,0,0,1,1.86,2,2.07,2.07,0,0,1-2.13,2.12A1.81,1.81,0,0,1,618.19,120.17Z"/><path class="cls-1" d="M640.34,132.55c0,5.67-4,11.56-10.18,11.56-4.6,0-7.18-3.42-7.18-7.57,0-6,4.21-11.66,10.18-11.66C638.13,124.88,640.34,128.64,640.34,132.55Zm-14.1,3.88c0,3,1.64,5.17,4.33,5.17,3.73,0,6.54-4.79,6.54-9.08,0-2.13-1-5.13-4.29-5.13C628.86,127.39,626.21,132.21,626.24,136.43Z"/><path class="cls-1" d="M650.68,116.71l-2.44,11.93h.08a7.74,7.74,0,0,1,6.46-3.76c4,0,5.55,3.34,5.55,6.61,0,5.62-4.07,12.62-11.44,12.62-3.23,0-5.66-1.33-5.66-4.75a18.25,18.25,0,0,1,.3-2.85l4-19.8Zm-4,19.87a8.1,8.1,0,0,0-.23,2.32c0,1.75,1,2.74,3,2.74,4.75,0,7.64-5.67,7.64-9.73,0-2.28-1-4.41-3.5-4.41-2.73,0-5.54,2.81-6.46,7.14Z"/><path class="cls-1" d="M670.63,116.71l-2.44,11.93h.08a7.74,7.74,0,0,1,6.46-3.76c4,0,5.55,3.34,5.55,6.61,0,5.62-4.07,12.62-11.44,12.62-3.23,0-5.66-1.33-5.66-4.75a18.25,18.25,0,0,1,.3-2.85l4-19.8Zm-4,19.87a7.75,7.75,0,0,0-.23,2.32c0,1.75,1,2.74,3,2.74,4.75,0,7.64-5.67,7.64-9.73,0-2.28-1-4.41-3.5-4.41-2.73,0-5.54,2.81-6.46,7.14Z"/><path class="cls-1" d="M695.82,142.62a12.66,12.66,0,0,1-6.08,1.45c-4.86,0-7-3.31-7-7.37,0-5.55,4.1-11.82,10-11.82,3.49,0,5.39,2.09,5.39,4.71,0,4.83-5.43,6.12-12.23,6a7.65,7.65,0,0,0,.38,3.5,4.18,4.18,0,0,0,4.1,2.47,10.23,10.23,0,0,0,4.94-1.29Zm-3.5-15.27c-3,0-5.24,2.93-6,5.81,4.94,0,8.81-.61,8.81-3.45C695.13,128.19,694,127.35,692.32,127.35Z"/><path class="cls-1" d="M706.69,143.69l2.47-13c.38-2.06.64-3.84.83-5.36h2.78l-.5,3.46h.12a7.84,7.84,0,0,1,6.46-3.88,4,4,0,0,1,4.29,4.1,7.88,7.88,0,0,1,6.76-4.1c2.13,0,4.45,1.37,4.45,4.83a18.7,18.7,0,0,1-.31,3.11l-2,10.87h-3.07l2-10.6a12.42,12.42,0,0,0,.27-2.4c0-1.93-.73-3.19-2.78-3.19-2.28,0-5,2.66-5.73,6.76l-1.79,9.43h-3l2-10.79a12,12,0,0,0,.23-2.24c0-1.56-.42-3.16-2.74-3.16s-5.16,3-5.88,7l-1.71,9.23Z"/><path class="cls-1" d="M750.65,142.62a12.66,12.66,0,0,1-6.08,1.45c-4.86,0-7-3.31-7-7.37,0-5.55,4.1-11.82,10-11.82,3.5,0,5.4,2.09,5.4,4.71,0,4.83-5.44,6.12-12.24,6a7.65,7.65,0,0,0,.38,3.5,4.2,4.2,0,0,0,4.11,2.47,10.26,10.26,0,0,0,4.94-1.29Zm-3.49-15.27c-3,0-5.25,2.93-6,5.81,4.94,0,8.82-.61,8.82-3.45C750,128.19,748.83,127.35,747.16,127.35Z"/><path class="cls-1" d="M774.17,116.71l-4,21.16a45.53,45.53,0,0,0-.79,5.82h-2.89L767,140h-.07c-1.67,2.62-4,4.07-6.61,4.07-3.58,0-5.51-2.93-5.51-6.69,0-6.54,4.86-12.54,11.36-12.54a8.29,8.29,0,0,1,3.26.65l1.64-8.82Zm-5.28,11.48a5.7,5.7,0,0,0-3-.76c-4.41,0-7.83,4.67-7.83,9.57,0,2.2.76,4.52,3.46,4.52,2.43,0,5.36-2.77,6.16-6.91Z"/><path class="cls-1" d="M782.57,127.12h2.55l4,7-5.62,7h-2.78l5.78-7.1Zm6.23,0h2.55l3.95,7-5.62,7H786.9l5.78-7.1Z"/></svg>