<?xml version="1.0" encoding="utf-8"?>
<!-- Generator: Adobe Illustrator 19.1.1, SVG Export Plug-In . SVG Version: 6.00 Build 0)  -->
<svg version="1.1" id="Layer_1" xmlns="http://www.w3.org/2000/svg" xmlns:xlink="http://www.w3.org/1999/xlink" x="0px" y="0px"
	 viewBox="0 0 320 50" style="enable-background:new 0 0 320 50;" xml:space="preserve">
<style type="text/css">
	.st0{fill:#D4AC76;}
</style>
<g>
	<path class="st0" d="M84.6,35.6h-2.2v1.7h2.4V38h-3.1v-5.4h3.1v0.7h-2.3v1.6h2.2V35.6z"/>
	<path class="st0" d="M86,33.3v-0.7h4.4v0.7h-1.8V38h-0.8v-4.7H86z"/>
	<path class="st0" d="M91.5,33.3v-0.7h4.4v0.7h-1.8V38h-0.8v-4.7H91.5z"/>
	<path class="st0" d="M103.8,38v-2.3h-2.6V38h-0.8v-5.4h0.8v2.3h2.6v-2.3h0.8V38H103.8z"/>
	<path class="st0" d="M108.7,38.1c-0.6,0-1-0.2-1.4-0.6c-0.4-0.4-0.6-0.9-0.6-1.4v-3.5h0.8V36c0,0.4,0.1,0.7,0.3,0.9
		c0.2,0.2,0.5,0.4,0.9,0.4c0.4,0,0.7-0.1,0.9-0.4s0.3-0.6,0.3-0.9v-3.5h0.8v3.5c0,0.6-0.2,1.1-0.6,1.4
		C109.7,37.9,109.3,38.1,108.7,38.1z"/>
	<path class="st0" d="M114.2,38c-0.3,0-0.7-0.1-1-0.2c-0.3-0.1-0.6-0.3-0.9-0.6l0.5-0.6c0.2,0.2,0.4,0.4,0.6,0.5
		c0.2,0.1,0.5,0.2,0.7,0.2c0.3,0,0.5-0.1,0.7-0.2c0.2-0.2,0.3-0.3,0.3-0.6c0-0.4-0.2-0.7-0.7-0.9l-0.6-0.3c-0.4-0.2-0.7-0.4-0.9-0.6
		c-0.2-0.2-0.3-0.5-0.3-0.9c0-0.4,0.1-0.7,0.4-1c0.3-0.3,0.7-0.4,1.1-0.4c0.6,0,1.1,0.2,1.6,0.6l-0.5,0.6c-0.3-0.3-0.7-0.5-1.1-0.5
		c-0.2,0-0.4,0.1-0.6,0.2c-0.1,0.1-0.2,0.3-0.2,0.5c0,0.2,0.1,0.3,0.2,0.4c0.1,0.1,0.3,0.2,0.5,0.3l0.6,0.3c0.8,0.3,1.2,0.8,1.1,1.5
		c0,0.5-0.2,0.8-0.5,1.1C115.2,37.9,114.8,38,114.2,38z"/>
	<path class="st0" d="M120.8,38v-5.4h3v0.7h-2.2V35h1.9v0.7h-1.9V38H120.8z"/>
	<path class="st0" d="M127.8,38.1c-0.8,0-1.4-0.3-2-0.8c-0.5-0.5-0.8-1.2-0.8-2s0.3-1.5,0.8-2c0.5-0.5,1.2-0.8,2-0.8
		c0.8,0,1.4,0.3,1.9,0.8c0.5,0.5,0.8,1.2,0.8,2s-0.3,1.5-0.8,2S128.6,38.1,127.8,38.1z M126.4,36.7c0.4,0.4,0.9,0.6,1.4,0.6
		c0.6,0,1-0.2,1.4-0.6c0.4-0.4,0.6-0.9,0.6-1.5c0-0.6-0.2-1.1-0.6-1.5c-0.4-0.4-0.9-0.6-1.4-0.6c-0.6,0-1,0.2-1.4,0.6
		c-0.4,0.4-0.6,0.9-0.6,1.5C125.8,35.8,126,36.3,126.4,36.7z M127.3,32c-0.1,0.1-0.2,0.1-0.3,0.1s-0.2,0-0.3-0.1
		c-0.1-0.1-0.1-0.2-0.1-0.3c0-0.1,0-0.2,0.1-0.3c0.1-0.1,0.2-0.1,0.3-0.1s0.2,0,0.3,0.1c0.1,0.1,0.1,0.2,0.1,0.3
		C127.4,31.8,127.4,31.9,127.3,32z M128.8,32c-0.1,0.1-0.2,0.1-0.3,0.1c-0.1,0-0.2,0-0.3-0.1c-0.1-0.1-0.1-0.2-0.1-0.3
		c0-0.1,0-0.2,0.1-0.3c0.1-0.1,0.2-0.1,0.3-0.1c0.1,0,0.2,0,0.3,0.1c0.1,0.1,0.1,0.2,0.1,0.3C128.9,31.8,128.9,31.9,128.8,32z"/>
	<path class="st0" d="M132.5,38v-5.4h2c0.5,0,0.9,0.2,1.2,0.5c0.3,0.3,0.5,0.7,0.5,1.2c0,0.5-0.1,0.8-0.4,1.1
		c-0.3,0.3-0.6,0.5-1,0.5l1.6,2.1h-0.9l-1.6-2.1h-0.6V38H132.5z M134.4,33.3h-1.2v2h1.1c0.3,0,0.6-0.1,0.8-0.3
		c0.2-0.2,0.3-0.4,0.3-0.7c0-0.3-0.1-0.5-0.3-0.7C134.9,33.4,134.7,33.3,134.4,33.3z"/>
	<path class="st0" d="M140.4,38l2.2-5.4h0.7l2.1,5.4h-0.8l-0.3-0.8h-2.7l-0.3,0.8H140.4z M142.9,33.8l-1.1,2.6h2.1L142.9,33.8z"/>
	<path class="st0" d="M146.9,38v-5.4h0.8v4.7h2.2V38H146.9z"/>
	<path class="st0" d="M151.6,38v-5.4h0.8v4.7h2.2V38H151.6z"/>
	<path class="st0" d="M155.6,38l2.2-5.4h0.7l2.1,5.4h-0.8l-0.3-0.8h-2.7l-0.3,0.8H155.6z M158.1,33.8l-1.1,2.6h2.1L158.1,33.8z"/>
	<path class="st0" d="M164.5,38l2.2-5.4h0.7l2.1,5.4h-0.8l-0.3-0.8h-2.7l-0.3,0.8H164.5z M167.1,33.8l-1.1,2.6h2.1L167.1,33.8z"/>
	<path class="st0" d="M172.5,38c-0.3,0-0.7-0.1-1-0.2s-0.6-0.3-0.9-0.6l0.5-0.6c0.2,0.2,0.4,0.4,0.6,0.5c0.3,0.1,0.5,0.2,0.7,0.2
		c0.3,0,0.5-0.1,0.7-0.2s0.3-0.3,0.3-0.6c0-0.4-0.2-0.7-0.7-0.9l-0.6-0.3c-0.4-0.2-0.7-0.4-0.9-0.6c-0.2-0.2-0.3-0.5-0.3-0.9
		c0-0.4,0.1-0.7,0.4-1s0.7-0.4,1.1-0.4c0.6,0,1.1,0.2,1.6,0.6l-0.5,0.6c-0.3-0.3-0.7-0.5-1.1-0.5c-0.2,0-0.4,0.1-0.6,0.2
		c-0.1,0.1-0.2,0.3-0.2,0.5c0,0.2,0.1,0.3,0.2,0.4c0.1,0.1,0.3,0.2,0.5,0.3l0.7,0.3c0.8,0.3,1.2,0.8,1.1,1.5c0,0.5-0.2,0.8-0.5,1.1
		C173.4,37.9,173,38,172.5,38z"/>
	<path class="st0" d="M176.1,38v-5.4h1.8c0.5,0,0.9,0.2,1.3,0.5c0.3,0.3,0.5,0.8,0.5,1.3c0,0.5-0.2,0.9-0.5,1.3
		c-0.3,0.3-0.8,0.5-1.3,0.5h-1.1V38H176.1z M177.9,33.3h-1v2.1h1c0.3,0,0.6-0.1,0.8-0.3c0.2-0.2,0.3-0.4,0.3-0.8
		c0-0.3-0.1-0.6-0.3-0.8S178.2,33.3,177.9,33.3z"/>
	<path class="st0" d="M184.5,35.6h-2.2v1.7h2.4V38h-3.1v-5.4h3.1v0.7h-2.3v1.6h2.2V35.6z"/>
	<path class="st0" d="M186.5,38v-5.4h0.8v2.6l2.3-2.6h1l-1.9,2.1l2,3.3h-0.9l-1.6-2.6l-0.8,0.9V38H186.5z"/>
	<path class="st0" d="M191.7,33.3v-0.7h4.4v0.7h-1.8V38h-0.8v-4.7H191.7z"/>
	<path class="st0" d="M200.6,35.6h-2.2v1.7h2.4V38h-3.1v-5.4h3.1v0.7h-2.3v1.6h2.2V35.6z"/>
	<path class="st0" d="M202.6,38v-5.4h2c0.5,0,0.9,0.2,1.2,0.5c0.3,0.3,0.5,0.7,0.5,1.2c0,0.5-0.1,0.8-0.4,1.1
		c-0.3,0.3-0.6,0.5-1,0.5l1.6,2.1h-0.9l-1.6-2.1h-0.6V38H202.6z M204.5,33.3h-1.2v2h1.1c0.3,0,0.6-0.1,0.8-0.3
		c0.2-0.2,0.3-0.4,0.3-0.7c0-0.3-0.1-0.5-0.3-0.7C205.1,33.4,204.8,33.3,204.5,33.3z"/>
	<path class="st0" d="M210.6,38l2.2-5.4h0.7l2.1,5.4h-0.8l-0.3-0.8h-2.7l-0.3,0.8H210.6z M213.1,33.8l-1.1,2.6h2.1L213.1,33.8z"/>
	<path class="st0" d="M218.1,38l-2.1-5.4h0.8l1.6,4.2l1.6-4.2h0.8l-2.1,5.4H218.1z"/>
	<path class="st0" d="M225.5,38v-5.4h1.5c0.7,0,1.4,0.3,1.9,0.8c0.5,0.5,0.8,1.2,0.8,1.9c0,0.8-0.3,1.4-0.8,1.9
		c-0.5,0.5-1.2,0.8-1.9,0.8H225.5z M226.9,33.3h-0.7v4h0.7c0.5,0,1-0.2,1.3-0.6s0.5-0.9,0.5-1.4s-0.2-1-0.6-1.4
		C227.9,33.5,227.5,33.3,226.9,33.3z"/>
	<path class="st0" d="M231.5,38v-5.4h0.8V38H231.5z"/>
	<path class="st0" d="M237.8,35.6v-0.7h1.8v0.4c0,0.8-0.3,1.5-0.8,2s-1.2,0.8-2,0.8c-0.8,0-1.4-0.3-2-0.8c-0.5-0.5-0.8-1.2-0.8-2
		c0-0.8,0.3-1.5,0.8-2s1.2-0.8,2-0.8c0.4,0,0.8,0.1,1.1,0.2c0.4,0.1,0.7,0.4,0.9,0.6l-0.6,0.6c-0.4-0.5-0.9-0.7-1.5-0.7
		c-0.6,0-1.1,0.2-1.4,0.6c-0.4,0.4-0.6,0.9-0.6,1.5c0,0.6,0.2,1.1,0.6,1.5c0.4,0.4,0.9,0.6,1.4,0.6c0.5,0,0.9-0.2,1.3-0.5
		c0.4-0.3,0.6-0.7,0.7-1.2H237.8z"/>
</g>
</svg>
