<?xml version="1.0" encoding="utf-8"?>
<!-- Generator: Adobe Illustrator 19.1.1, SVG Export Plug-In . SVG Version: 6.00 Build 0)  -->
<svg version="1.1" id="Layer_1" xmlns="http://www.w3.org/2000/svg" xmlns:xlink="http://www.w3.org/1999/xlink" x="0px" y="0px"
	 viewBox="0 0 320 50" style="enable-background:new 0 0 320 50;" xml:space="preserve">
<style type="text/css">
	.st0{fill:#D4AC76;}
</style>
<g>
	<path class="st0" d="M260,25v-4.4h1.5c0.4,0,0.7,0.1,1,0.4s0.4,0.5,0.4,0.9s-0.2,0.7-0.5,0.9c0.2,0.1,0.4,0.2,0.5,0.4
		c0.1,0.2,0.2,0.4,0.2,0.6c0,0.4-0.1,0.7-0.4,0.9s-0.6,0.4-1,0.4H260z M261.4,21.3h-0.6v1.1h0.7c0.2,0,0.3-0.1,0.4-0.2
		s0.2-0.2,0.2-0.4c0-0.2-0.1-0.3-0.2-0.4S261.6,21.3,261.4,21.3z M261.5,23.1h-0.7v1.2h0.7c0.2,0,0.4-0.1,0.5-0.2s0.2-0.3,0.2-0.4
		c0-0.2-0.1-0.3-0.2-0.4S261.7,23.1,261.5,23.1z"/>
	<path class="st0" d="M266.7,23.1H265v1.1h1.8V25h-2.6v-4.4h2.6v0.7H265v1.1h1.6V23.1z"/>
	<path class="st0" d="M269.2,25.1c-0.3,0-0.6-0.1-0.8-0.2c-0.3-0.1-0.5-0.3-0.7-0.5l0.5-0.6c0.1,0.2,0.3,0.3,0.5,0.4
		c0.2,0.1,0.4,0.2,0.6,0.2c0.2,0,0.3,0,0.5-0.2c0.1-0.1,0.2-0.2,0.2-0.4c0-0.3-0.2-0.5-0.5-0.6l-0.5-0.2c-0.3-0.1-0.6-0.3-0.7-0.5
		c-0.2-0.2-0.2-0.4-0.2-0.7s0.1-0.6,0.4-0.8s0.6-0.4,0.9-0.4c0.5,0,1,0.2,1.4,0.5l-0.5,0.6c-0.2-0.3-0.5-0.4-0.9-0.4
		c-0.2,0-0.3,0-0.4,0.1c-0.1,0.1-0.1,0.2-0.1,0.3c0,0.1,0,0.2,0.1,0.3c0.1,0.1,0.2,0.2,0.4,0.2l0.5,0.2c0.7,0.3,1,0.7,1,1.3
		c0,0.4-0.1,0.7-0.4,1S269.7,25.1,269.2,25.1z"/>
	<path class="st0" d="M271.5,21.4v-0.8h3.6v0.8h-1.4V25h-0.8v-3.6H271.5z"/>
	<path class="st0" d="M275.1,25l1.7-4.4h0.7l1.7,4.4h-0.8l-0.2-0.6h-2L276,25H275.1z M276.8,20.1c-0.1,0.1-0.2,0.1-0.3,0.1
		c-0.1,0-0.2,0-0.3-0.1s-0.1-0.2-0.1-0.3s0-0.2,0.1-0.3c0.1-0.1,0.2-0.1,0.3-0.1c0.1,0,0.2,0,0.3,0.1s0.1,0.2,0.1,0.3
		S276.9,20.1,276.8,20.1z M277.2,21.8l-0.7,1.8h1.4L277.2,21.8z M278.1,20.1c-0.1,0.1-0.2,0.1-0.3,0.1s-0.2,0-0.3-0.1
		c-0.1-0.1-0.1-0.2-0.1-0.3s0-0.2,0.1-0.3c0.1-0.1,0.2-0.1,0.3-0.1s0.2,0,0.3,0.1s0.1,0.2,0.1,0.3S278.2,20.1,278.1,20.1z"/>
	<path class="st0" d="M280.2,25v-4.4h0.8v3.6h1.6V25H280.2z"/>
	<path class="st0" d="M283.7,25v-4.4h0.8v3.6h1.6V25H283.7z"/>
	<path class="st0" d="M290.6,25l-1.7-4.4h0.9l1.2,3.2l1.2-3.2h0.8l-1.7,4.4H290.6z"/>
	<path class="st0" d="M293.1,25l1.7-4.4h0.7l1.7,4.4h-0.8l-0.2-0.6h-2L294,25H293.1z M295.2,21.8l-0.7,1.8h1.4L295.2,21.8z
		 M295.8,19.8c0,0.2-0.1,0.3-0.2,0.4c-0.1,0.1-0.3,0.2-0.5,0.2s-0.3-0.1-0.5-0.2c-0.1-0.1-0.2-0.3-0.2-0.5s0.1-0.3,0.2-0.5
		c0.1-0.1,0.3-0.2,0.5-0.2s0.3,0.1,0.5,0.2C295.8,19.5,295.8,19.7,295.8,19.8z M295,20c0,0,0.1,0.1,0.2,0.1s0.1,0,0.2-0.1
		s0.1-0.1,0.1-0.2s0-0.1-0.1-0.2c0,0-0.1-0.1-0.2-0.1s-0.1,0-0.2,0.1c0,0-0.1,0.1-0.1,0.2S295,20,295,20z"/>
	<path class="st0" d="M298.2,25v-4.4h1.7c0.4,0,0.8,0.1,1.1,0.4s0.4,0.6,0.4,1c0,0.4-0.1,0.6-0.3,0.9c-0.2,0.2-0.5,0.4-0.8,0.5
		l1.2,1.6h-0.9l-1.1-1.6H299V25H298.2z M299.8,21.3H299v1.4h0.8c0.2,0,0.4-0.1,0.6-0.2c0.1-0.1,0.2-0.3,0.2-0.5s-0.1-0.4-0.2-0.5
		S300,21.3,299.8,21.3z"/>
	<path class="st0" d="M302.1,21.4v-0.8h3.6v0.8h-1.4V25h-0.8v-3.6H302.1z"/>
	<path class="st0" d="M267.8,32.5v-4.4h0.8l1.4,2.2l1.4-2.2h0.9v4.4h-0.8v-3l-0.1,0l-1.4,2.1l-1.3-2.1h0v3H267.8z"/>
	<path class="st0" d="M273,32.5l1.7-4.4h0.7l1.7,4.4h-0.8l-0.2-0.6h-2l-0.2,0.6H273z M275.1,29.3l-0.7,1.8h1.4L275.1,29.3z"/>
	<path class="st0" d="M280.7,30.7v-0.7h1.6l0,0.4c0,0.4-0.1,0.8-0.3,1.2s-0.5,0.6-0.8,0.8c-0.3,0.2-0.7,0.3-1.1,0.3
		c-0.6,0-1.2-0.2-1.6-0.7c-0.4-0.4-0.7-1-0.7-1.6c0-0.6,0.2-1.2,0.7-1.6s1-0.7,1.6-0.7c0.6,0,1.2,0.2,1.6,0.7l-0.6,0.6
		c-0.3-0.3-0.7-0.5-1.1-0.5s-0.8,0.1-1.1,0.4c-0.3,0.3-0.4,0.6-0.4,1.1s0.1,0.8,0.4,1.1s0.6,0.4,1,0.4s0.7-0.1,1-0.3
		c0.3-0.2,0.4-0.5,0.5-0.8H280.7z"/>
	<path class="st0" d="M282.8,32.5l1.7-4.4h0.7l1.7,4.4h-0.8l-0.2-0.6h-2l-0.2,0.6H282.8z M284.8,29.3l-0.7,1.8h1.4L284.8,29.3z"/>
	<path class="st0" d="M289.1,32.6c-0.3,0-0.6-0.1-0.8-0.2c-0.3-0.1-0.5-0.3-0.7-0.5l0.5-0.6c0.1,0.2,0.3,0.3,0.5,0.4
		c0.2,0.1,0.4,0.2,0.6,0.2c0.2,0,0.3,0,0.5-0.2c0.1-0.1,0.2-0.2,0.2-0.4c0-0.3-0.2-0.5-0.5-0.6l-0.5-0.2c-0.3-0.1-0.6-0.3-0.7-0.5
		c-0.2-0.2-0.2-0.4-0.2-0.7s0.1-0.6,0.4-0.8s0.6-0.4,0.9-0.4c0.5,0,1,0.2,1.4,0.5l-0.5,0.6c-0.2-0.3-0.5-0.4-0.9-0.4
		c-0.2,0-0.3,0-0.4,0.1c-0.1,0.1-0.1,0.2-0.1,0.3c0,0.1,0,0.2,0.1,0.3c0.1,0.1,0.2,0.2,0.4,0.2l0.5,0.2c0.7,0.3,1,0.7,1,1.3
		c0,0.4-0.1,0.7-0.4,1C289.9,32.4,289.5,32.6,289.1,32.6z"/>
	<path class="st0" d="M291.7,32.5v-4.4h0.8v4.4H291.7z"/>
	<path class="st0" d="M294,32.5v-4.4h0.6l2.2,2.8v-2.8h0.8v4.4h-0.6l-2.2-2.8v2.8H294z"/>
</g>
</svg>
