<svg id="Layer_1" data-name="Layer 1" xmlns="http://www.w3.org/2000/svg" viewBox="0 0 980 240"><defs><style>.cls-1{fill:#d80201;}</style></defs><title>text</title><path class="cls-1" d="M304,122.31c-1.3,6.47-6.81,10.33-13.27,10.33-8.49,0-14.7-6-14.7-14.58s6.39-14.7,14.87-14.7a13.37,13.37,0,0,1,12,6.6l-4.75,2.56a8.22,8.22,0,0,0-7.31-4.16c-5.46,0-9.2,4.41-9.2,9.7s3.74,9.62,9.2,9.62c3.65,0,6.85-2.18,7.31-6h-6.6V117h12.85v.67A24.25,24.25,0,0,1,304,122.31Z"/><path class="cls-1" d="M308.66,132V100.56h5.08V132Z"/><path class="cls-1" d="M328.07,132.61c-5.8,0-10.42-3.61-10.42-9.66s4.62-9.7,10.46-9.7,10.33,3.65,10.33,9.66S333.82,132.61,328.07,132.61Zm-4.41-22.18a3,3,0,1,1,0-6,3,3,0,0,1,0,6Zm4.37,7.39a5.1,5.1,0,1,0,5.17,5.13A5.15,5.15,0,0,0,328,117.82Zm4.37-7.39a3.07,3.07,0,0,1-3-3,3,3,0,1,1,3,3Z"/><path class="cls-1" d="M365.57,132v-10c0-2.14-.34-4.5-3-4.5-3,0-3.49,2.73-3.49,5.13V132H354v-9.66a8.1,8.1,0,0,0-.38-3,2.94,2.94,0,0,0-2.73-1.76,3.32,3.32,0,0,0-2.86,1.64,7.56,7.56,0,0,0-.59,3.49V132h-5.08V113.83h5.08v2.06a7,7,0,0,1,5.54-2.65,6.18,6.18,0,0,1,5.67,3.32,6.73,6.73,0,0,1,6-3.32,6,6,0,0,1,5.08,2.6,8,8,0,0,1,1,4.41V132Z"/><path class="cls-1" d="M380.65,118.2V132h-5.08V118.2h-2v-4.37h2v-6.22h5.08v6.22h3.57v4.37Z"/><path class="cls-1" d="M411.27,132v-2.39a7,7,0,0,1-5.92,3c-5.46,0-8.95-4.54-8.95-9.75s3.49-9.62,8.82-9.62a7.58,7.58,0,0,1,6,2.9v-2.31h5.13V132Zm-4.54-14.2a5.1,5.1,0,1,0,5.08,5.08A5.07,5.07,0,0,0,406.73,117.82Z"/><path class="cls-1" d="M426.39,118.2V132H421.3V118.2h-2v-4.37h2v-6.22h5.08v6.22H430v4.37Z"/><path class="cls-1" d="M437.73,118.2V132h-5.08V118.2h-2v-4.37h2v-6.22h5.08v6.22h3.57v4.37Z"/><path class="cls-1" d="M459.69,118.2V132h-5.08V118.2h-2v-4.37h2V108a8.87,8.87,0,0,1,.8-4.28,7.2,7.2,0,0,1,6.3-3.65,6,6,0,0,1,2.69.63v4.66a5.07,5.07,0,0,0-2.31-.67c-2.27,0-2.39,2.35-2.39,4.07v5.08h4.7v4.37Z"/><path class="cls-1" d="M476.2,132.61c-5.8,0-10.42-3.61-10.42-9.66s4.62-9.7,10.46-9.7,10.33,3.65,10.33,9.66S482,132.61,476.2,132.61Zm0-14.79a5.1,5.1,0,1,0,5.17,5.13A5.15,5.15,0,0,0,476.16,117.82Z"/><path class="cls-1" d="M502.36,118.45a4.5,4.5,0,0,0-2.44-.63c-3.44,0-4.37,2.44-4.37,5.46V132h-5.08V113.83h5.08v2.73a5.93,5.93,0,0,1,7.52-2.9Z"/><path class="cls-1" d="M528.83,132v-10c0-2.14-.34-4.5-3-4.5-3,0-3.49,2.73-3.49,5.13V132h-5.08v-9.66a8.1,8.1,0,0,0-.38-3,2.94,2.94,0,0,0-2.73-1.76,3.32,3.32,0,0,0-2.86,1.64,7.56,7.56,0,0,0-.59,3.49V132H505.6V113.83h5.08v2.06a7,7,0,0,1,5.54-2.65,6.18,6.18,0,0,1,5.67,3.32,6.72,6.72,0,0,1,6-3.32,6,6,0,0,1,5.08,2.6,8,8,0,0,1,1,4.41V132Z"/><path class="cls-1" d="M552.68,132v-2.39a7,7,0,0,1-5.92,3c-5.46,0-8.95-4.54-8.95-9.75s3.49-9.62,8.82-9.62a7.58,7.58,0,0,1,6,2.9v-2.31h5.13V132Zm-4.54-14.2a5.1,5.1,0,1,0,5.08,5.08A5.07,5.07,0,0,0,548.14,117.82Z"/><path class="cls-1" d="M585.65,132l-6.85-7.81-.55.55V132h-5.08V100.56h5.08v19.91l6.8-6.64H592l-8.53,8,9.2,10.21Z"/><path class="cls-1" d="M594.89,132V100.56H600V132Z"/><path class="cls-1" d="M618.75,132v-2.39a7,7,0,0,1-5.92,3c-5.46,0-8.95-4.54-8.95-9.75s3.49-9.62,8.82-9.62a7.58,7.58,0,0,1,6,2.9v-2.31h5.13V132Zm-4.54-14.2a5.1,5.1,0,1,0,5.08,5.08A5.07,5.07,0,0,0,614.21,117.82Z"/><path class="cls-1" d="M640.63,118.45a4.5,4.5,0,0,0-2.44-.63c-3.44,0-4.37,2.44-4.37,5.46V132h-5.08V113.83h5.08v2.73a5.93,5.93,0,0,1,7.52-2.9Z"/><path class="cls-1" d="M649.91,118.2V132h-5.08V118.2h-2v-4.37h2v-6.22h5.08v6.22h3.57v4.37Z"/><path class="cls-1" d="M680.52,132v-2.39a7,7,0,0,1-5.92,3c-5.46,0-8.95-4.54-8.95-9.75s3.49-9.62,8.82-9.62a7.58,7.58,0,0,1,6,2.9V100.56h5.13V132ZM676,117.82a5.1,5.1,0,1,0,5.08,5.08A5.07,5.07,0,0,0,676,117.82Z"/><path class="cls-1" d="M693,109.21a3.07,3.07,0,0,1,0-6.13,3.07,3.07,0,0,1,0,6.13ZM690.43,132V113.83h5.08V132Z"/><path class="cls-1" d="M705.43,118.2V132h-5.08V118.2h-2v-4.37h2v-6.22h5.08v6.22H709v4.37Z"/><path class="cls-1" d="M716.77,118.2V132h-5.08V118.2h-2v-4.37h2v-6.22h5.08v6.22h3.57v4.37Z"/><path class="cls-1" d="M745.92,132V121.94c0-2.48-.55-4.37-3.45-4.37-3.15,0-3.91,2.31-3.91,5V132h-5.08V113.83h5.08v2.23c1.68-1.93,3.11-2.81,5.71-2.81a7,7,0,0,1,5.29,2.18c1.3,1.51,1.43,3.15,1.43,5V132Z"/><path class="cls-1" d="M760.24,141.76h-5.75l6.68-12.48-8.61-15.46h5.92l5.46,10.33,5.21-10.33h5.8Z"/><path class="cls-1" d="M790.31,132v-2.39a7,7,0,0,1-5.92,3c-5.46,0-8.95-4.54-8.95-9.75s3.49-9.62,8.82-9.62a7.58,7.58,0,0,1,6,2.9v-2.31h5.13V132Zm-4.54-14.2a5.1,5.1,0,1,0,5.08,5.08A5.07,5.07,0,0,0,785.77,117.82Z"/><path class="cls-1" d="M823.24,132v-10c0-2.52-.55-4.5-3.49-4.5-3.15,0-3.86,2.44-3.86,5.13V132H810.8V100.56h5.08v15.63a6.62,6.62,0,0,1,5.71-2.94,7,7,0,0,1,5.29,2.23c1.3,1.51,1.43,3.23,1.43,5.12V132Z"/><path class="cls-1" d="M842,132.61c-5,0-8.78-2.23-8.78-7.65V113.83h5.08v10.29c0,2.48,1,4.16,3.7,4.16s3.7-1.68,3.7-4.16V113.83h5.12V125C850.79,130.38,847,132.61,842,132.61Z"/><path class="cls-1" d="M861.46,132.61a9.68,9.68,0,0,1-6.93-3l2.69-3.11a5.91,5.91,0,0,0,4.29,2.14,2.14,2.14,0,0,0,2.31-2c0-3.11-8.11-1.55-8.11-7.69,0-3.7,3.07-5.75,6.51-5.75a9.37,9.37,0,0,1,5.92,1.93l-2.52,3a5.07,5.07,0,0,0-3-1.22c-.88,0-1.93.55-1.93,1.55,0,2.65,8.4,1.47,8.4,7.69C869.06,130.34,865.36,132.61,861.46,132.61Z"/><path class="cls-1" d="M882.12,119.08v3.57H877v-7.39a8.28,8.28,0,0,0,1.47.17c2.56,0,5.29-1.3,5.29-4.2a3.16,3.16,0,0,0-3.23-3.23,3,3,0,0,0-3,3c0,.17,0,.34,0,.5H872V111c0-4.58,4.28-7.52,8.57-7.52,4.5,0,8.49,3.23,8.49,7.9C889.09,115.59,886,118.16,882.12,119.08Zm-2.48,13.48a3.28,3.28,0,1,1,3.28-3.28A3.29,3.29,0,0,1,879.64,132.56Z"/></svg>