<svg id="Layer_1" data-name="Layer 1" xmlns="http://www.w3.org/2000/svg" viewBox="0 0 980 120"><defs><style>.cls-1{fill:#d4ac76;}</style></defs><title>text</title><path class="cls-1" d="M834.36,56.75v-10h3.3a3,3,0,0,1,2.2.84,2.76,2.76,0,0,1,.87,2.07,2.37,2.37,0,0,1-1.13,2,2.83,2.83,0,0,1,1.11.9,2.13,2.13,0,0,1,.42,1.28,2.75,2.75,0,0,1-.88,2.13,3.16,3.16,0,0,1-2.22.81Zm3.08-8.37H836.1V50.9h1.5a1.37,1.37,0,0,0,1-.37,1.24,1.24,0,0,0,.39-.93,1.09,1.09,0,0,0-.43-.89A1.76,1.76,0,0,0,837.44,48.38Zm.29,4H836.1v2.66h1.59a1.6,1.6,0,0,0,1.14-.38,1.33,1.33,0,0,0,0-1.92A1.59,1.59,0,0,0,837.73,52.41Z"/><path class="cls-1" d="M849.49,52.5h-3.72v2.57h4.08v1.68h-6v-10h5.85v1.68h-4v2.44h3.72Z"/><path class="cls-1" d="M855.32,56.88a4.77,4.77,0,0,1-1.9-.4,4.94,4.94,0,0,1-1.63-1.1L853,54a3.49,3.49,0,0,0,1.11.9,2.78,2.78,0,0,0,1.32.35,1.62,1.62,0,0,0,1.07-.34,1.08,1.08,0,0,0,.42-.87,1.49,1.49,0,0,0-1.1-1.39l-1.12-.45A4.3,4.3,0,0,1,853,51a2.58,2.58,0,0,1-.54-1.71,2.61,2.61,0,0,1,.85-1.91,2.92,2.92,0,0,1,2.13-.84,4.37,4.37,0,0,1,3.1,1.15l-1.11,1.4a2.61,2.61,0,0,0-2-.87,1.37,1.37,0,0,0-.9.29.88.88,0,0,0-.34.71.93.93,0,0,0,.27.69,2.61,2.61,0,0,0,.86.52l1.17.46a3.13,3.13,0,0,1,2.28,2.9,2.8,2.8,0,0,1-.95,2.2A3.62,3.62,0,0,1,855.32,56.88Z"/><path class="cls-1" d="M860.41,48.51V46.7h8.28v1.81h-3.2v8.24h-1.88V48.51Z"/><path class="cls-1" d="M868.78,56.75l3.88-10h1.7l3.86,10h-1.94l-.53-1.39h-4.5l-.53,1.39Zm3.86-11.08a.8.8,0,0,1-.62.26.83.83,0,0,1-.62-.26.9.9,0,0,1-.25-.65.87.87,0,0,1,.87-.89.8.8,0,0,1,.61.26.86.86,0,0,1,.26.63A.9.9,0,0,1,872.64,45.67Zm.87,3.84-1.61,4.17h3.21Zm2.12-3.84a.91.91,0,0,1-.67.26.89.89,0,0,1-.66-.26A.85.85,0,0,1,874,45a.81.81,0,0,1,.28-.63.89.89,0,0,1,.66-.26.91.91,0,0,1,.67.26.84.84,0,0,1,.28.63A.88.88,0,0,1,875.63,45.67Z"/><path class="cls-1" d="M880.31,56.75v-10h1.89v8.24h3.69v1.81Z"/><path class="cls-1" d="M888.35,56.75v-10h1.88v8.24h3.69v1.81Z"/><path class="cls-1" d="M904.07,56.75l-3.84-10h2L905,53.93l2.73-7.23h1.9l-3.8,10Z"/><path class="cls-1" d="M909.81,56.75l3.87-10h1.71l3.86,10h-1.94l-.53-1.39h-4.5l-.53,1.39Zm4.73-7.24-1.61,4.17h3.2ZM916,45a1.45,1.45,0,1,1-.43-1A1.39,1.39,0,0,1,916,45Zm-1.82.37a.49.49,0,0,0,.37.16.47.47,0,0,0,.37-.16.51.51,0,0,0,.15-.37.52.52,0,0,0-.15-.38.5.5,0,0,0-.37-.16.47.47,0,0,0-.37.16A.49.49,0,0,0,914,45,.49.49,0,0,0,914.18,45.36Z"/><path class="cls-1" d="M921.34,56.75v-10h3.93a3.37,3.37,0,0,1,2.42.91,3.13,3.13,0,0,1,1,2.39,3,3,0,0,1-.72,2,3.21,3.21,0,0,1-1.88,1.07l2.7,3.65h-2.12L924,53.16h-.82v3.59ZM925,48.38h-1.76v3.27H925a1.9,1.9,0,0,0,1.31-.44,1.65,1.65,0,0,0,0-2.35A1.77,1.77,0,0,0,925,48.38Z"/><path class="cls-1" d="M836.11,71.75l-3.84-10h2L837,68.93l2.73-7.23h1.91l-3.81,10Z"/><path class="cls-1" d="M841.85,71.75l3.88-10h1.7l3.86,10h-1.94l-.53-1.39h-4.5l-.53,1.39Zm4.73-7.24L845,68.68h3.21Z"/><path class="cls-1" d="M861.51,70.33a5,5,0,0,1-3.73,1.59,5.09,5.09,0,0,1-3.71-1.52,5.21,5.21,0,1,1,7.41-7.33l-1.32,1.28a3.3,3.3,0,0,0-4.77,0,3.33,3.33,0,0,0-1,2.4,3.37,3.37,0,0,0,1,2.41,3.21,3.21,0,0,0,2.39,1,3.18,3.18,0,0,0,2.4-1Z"/><path class="cls-1" d="M864,71.75v-10h1.74v4.43l3.85-4.43h2.32l-3.54,4,3.62,6H869.8l-2.74-4.59-1.34,1.52v3.07Z"/><path class="cls-1" d="M874.38,71.75v-10h3.93a3.39,3.39,0,0,1,2.42.91,3.16,3.16,0,0,1,1,2.39,3,3,0,0,1-.72,2,3.21,3.21,0,0,1-1.88,1.07l2.7,3.65h-2.12l-2.61-3.59h-.81v3.59ZM878,63.38h-1.76v3.27H878a1.88,1.88,0,0,0,1.3-.44,1.5,1.5,0,0,0,.49-1.16,1.57,1.57,0,0,0-.5-1.19A1.77,1.77,0,0,0,878,63.38Z"/><path class="cls-1" d="M883.26,71.75l3.87-10h1.7l3.87,10h-1.94l-.54-1.39h-4.49l-.54,1.39ZM888,64.51l-1.6,4.17h3.2Z"/><path class="cls-1" d="M899.88,71.75v-10h3.31a3,3,0,0,1,2.2.84,2.79,2.79,0,0,1,.86,2.07,2.36,2.36,0,0,1-1.12,2,2.91,2.91,0,0,1,1.11.9,2.13,2.13,0,0,1,.42,1.28,2.78,2.78,0,0,1-.88,2.13,3.16,3.16,0,0,1-2.22.81ZM903,63.38h-1.34V65.9h1.5a1.37,1.37,0,0,0,1-.37,1.27,1.27,0,0,0,.38-.93,1.08,1.08,0,0,0-.42-.89A1.8,1.8,0,0,0,903,63.38Zm.29,4h-1.63v2.66h1.59a1.56,1.56,0,0,0,1.13-.38,1.34,1.34,0,0,0,0-1.92A1.6,1.6,0,0,0,903.26,67.41Z"/><path class="cls-1" d="M919.15,66.72a5,5,0,0,1-1.53,3.68,5.24,5.24,0,0,1-7.38,0,5.2,5.2,0,0,1,0-7.37,5.22,5.22,0,0,1,8.91,3.69Zm-7.59,2.4a3.32,3.32,0,0,0,4.73,0,3.33,3.33,0,0,0,1-2.41,3.29,3.29,0,0,0-1-2.4,3.3,3.3,0,0,0-4.73,0,3.33,3.33,0,0,0-1,2.4A3.37,3.37,0,0,0,911.56,69.12Z"/><path class="cls-1" d="M921.78,71.75v-10h1.74v4.43l3.85-4.43h2.32l-3.54,4,3.62,6H927.6l-2.74-4.59-1.34,1.52v3.07Z"/></svg>