<svg id="Layer_1" data-name="Layer 1" xmlns="http://www.w3.org/2000/svg" viewBox="0 0 980 240"><defs><style>.cls-1{fill:#d80201;}.cls-2{fill:#fff;}</style></defs><title>text</title><rect class="cls-1" x="50.65" y="104.54" width="186.99" height="30.19" rx="15.09"/><path class="cls-2" d="M85.94,125.79a4.6,4.6,0,0,1-4-2.24l1.48-1.43a2.71,2.71,0,0,0,2.47,1.57A1.67,1.67,0,0,0,87.66,122c0-2.42-5.16-1.27-5.16-5.06a3.44,3.44,0,0,1,3.66-3.41,5.13,5.13,0,0,1,3.44,1.3l-1.2,1.57a2.37,2.37,0,0,0-1.9-1c-.76,0-1.64.47-1.64,1.32,0,2,5.16,1,5.16,5.1A3.79,3.79,0,0,1,85.94,125.79Z"/><path class="cls-2" d="M92.05,125.5V113.76h6.49v2H94.33v2.61h4v2h-4v3.16h4.21v2Z"/><path class="cls-2" d="M116.05,125.5l-1-7.23-3.24,7.39h-.64L108,118.27l-1.18,7.23h-2.31l2.18-12h1.57l3.21,7.68,3.34-7.68h1.57l1.95,12Z"/><path class="cls-2" d="M120.45,125.5V113.76H127v2h-4.21v2.61h4.05v2h-4.05v3.16H127v2Z"/><path class="cls-2" d="M134.91,125.5l-3.17-4.71h-.28v4.71h-2.29V113.76h3.39a4.79,4.79,0,0,1,3,.85,3.42,3.42,0,0,1,1.16,2.64,3.87,3.87,0,0,1-.67,2.14,3,3,0,0,1-2,1.17l3.7,4.94Zm-2.77-9.87h-.68v3.54h.65c1.18,0,2.25-.43,2.25-1.78S133.32,115.63,132.14,115.63Z"/><path class="cls-2" d="M151,125.5v-5.22h-5v5.22h-2.29V113.76H146v4.54h5v-4.54h2.29V125.5Z"/><path class="cls-2" d="M163.89,125.5l-1-2.48H158.1L157,125.5h-2.43l5.09-12h1.73l5,12Zm-5.39-13a1.29,1.29,0,0,1-1.27-1.26,1.27,1.27,0,1,1,1.27,1.26Zm2,4.48-1.71,4.22h3.36Zm1.92-4.48a1.28,1.28,0,0,1-1.27-1.26,1.27,1.27,0,1,1,1.27,1.26Z"/><path class="cls-2" d="M173.47,125.5l-3.17-4.71H170v4.71h-2.29V113.76h3.4a4.78,4.78,0,0,1,3,.85,3.39,3.39,0,0,1,1.16,2.64,3.79,3.79,0,0,1-.67,2.14,3,3,0,0,1-2,1.17l3.7,4.94Zm-2.76-9.87H170v3.54h.65c1.18,0,2.25-.43,2.25-1.78S171.89,115.63,170.71,115.63Z"/><polygon class="cls-2" points="202.85 121.11 190.48 121.11 190.48 117.96 202.85 117.96 202.85 113.19 211.65 119.53 202.85 125.61 202.85 121.11"/></svg>