<svg id="Layer_1" data-name="Layer 1" xmlns="http://www.w3.org/2000/svg" viewBox="0 0 980 120"><defs><style>.cls-1{fill:#d4ac76;}</style></defs><title>text</title><path class="cls-1" d="M219.35,56V22h12.21a11.56,11.56,0,0,1,11.81,11.75,10.78,10.78,0,0,1-3.45,8.19,11.91,11.91,0,0,1-8.47,3.25h-5.72V56ZM231,28.1h-5.28V39.5h5.37A6,6,0,0,0,235.36,38,5.28,5.28,0,0,0,237,33.91a5.59,5.59,0,0,0-1.67-4.18A5.93,5.93,0,0,0,231,28.1Z"/><path class="cls-1" d="M252.74,56V22h13.31a11.46,11.46,0,0,1,8.19,3.09,10.59,10.59,0,0,1,3.28,8.06,10.25,10.25,0,0,1-2.44,6.9,11,11,0,0,1-6.35,3.62L277.87,56H270.7l-8.83-12.14h-2.75V56Zm12.32-28.34h-5.94V38.75h5.94a6.3,6.3,0,0,0,4.43-1.51,5.05,5.05,0,0,0,1.65-3.92,5.37,5.37,0,0,0-1.7-4A6.08,6.08,0,0,0,265.06,27.66Z"/><path class="cls-1" d="M306.42,41.61H293.84v8.71h13.82V56h-20.2V22h19.8v5.67H293.84v8.28h12.58Z"/><path class="cls-1" d="M318,56V22h6.15l10.52,16.76L345.32,22H352V56h-6.38V32.72l-.52-.07L334.56,48.93,324.28,32.86h.1V56Z"/><path class="cls-1" d="M363.75,56V22h6.38V56Z"/><path class="cls-1" d="M378.06,56l13.11-34h5.76L410,56h-6.56l-1.8-4.71H386.43L384.61,56Zm13.05-37.51a2.76,2.76,0,0,1-2.08.9,2.81,2.81,0,0,1-2.1-.9,3,3,0,0,1-.87-2.18,3,3,0,0,1,3-3,2.79,2.79,0,0,1,2.06.88,2.93,2.93,0,0,1,.87,2.15A3.05,3.05,0,0,1,391.11,18.49Zm2.95,13-5.45,14.11h10.85Zm7.17-13a3.28,3.28,0,0,1-4.51,0,2.93,2.93,0,0,1-.93-2.18,2.83,2.83,0,0,1,.93-2.15,3.33,3.33,0,0,1,4.51,0,2.81,2.81,0,0,1,.94,2.15A2.9,2.9,0,0,1,401.23,18.49Z"/><path class="cls-1" d="M418,56V22h13.31a11.46,11.46,0,0,1,8.19,3.09,10.59,10.59,0,0,1,3.27,8.06A10.24,10.24,0,0,1,440.3,40,11,11,0,0,1,434,43.66L443.09,56h-7.18l-8.82-12.14h-2.75V56Zm12.32-28.34h-5.94V38.75h5.94a6.27,6.27,0,0,0,4.42-1.51,5.05,5.05,0,0,0,1.65-3.92,5.36,5.36,0,0,0-1.69-4A6.08,6.08,0,0,0,430.28,27.66Z"/><path class="cls-1" d="M468.17,56V52.13l13-17.29A6.14,6.14,0,0,0,483,30.9a4.27,4.27,0,0,0-1.25-3.12,4.39,4.39,0,0,0-3.26-1.26,3.89,3.89,0,0,0-3.22,1.53,6.44,6.44,0,0,0-1.25,4h-5.89a10.42,10.42,0,0,1,3-7.52,9.88,9.88,0,0,1,7.43-3.08,10.35,10.35,0,0,1,7.35,2.68,8.6,8.6,0,0,1,2.88,6.53q0,3.84-3.91,8.3l-9.41,12h13.45V56Z"/><path class="cls-1" d="M517.87,53.14a11.75,11.75,0,0,1-16.27,0,11.06,11.06,0,0,1-3.34-8.21V32.72a10.78,10.78,0,0,1,3.37-8,11.72,11.72,0,0,1,16.24,0,10.75,10.75,0,0,1,3.36,8V45A10.86,10.86,0,0,1,517.87,53.14Zm-12.13-4a5.83,5.83,0,0,0,8,0A5.62,5.62,0,0,0,515.33,45V32.85a5.62,5.62,0,0,0-1.6-4.13,5.36,5.36,0,0,0-4-1.63,5.27,5.27,0,0,0-4,1.65,5.68,5.68,0,0,0-1.58,4.11V45A5.59,5.59,0,0,0,505.74,49.12Z"/><path class="cls-1" d="M557,56.53a11.58,11.58,0,0,1-7-2.15,11.08,11.08,0,0,1-4.12-5.63l5.42-2.85a6.53,6.53,0,0,0,2.13,3.29,6,6,0,0,0,3.85,1.22,4.66,4.66,0,0,0,3.78-1.75,7,7,0,0,0,1.46-4.6V22h6.38V44.3q0,5.81-3.41,9A12,12,0,0,1,557,56.53Z"/><path class="cls-1" d="M575.53,56l13.11-34h5.76l13.07,34h-6.56l-1.8-4.71H583.9L582.08,56Zm16-24.49-5.44,14.11h10.84Z"/><path class="cls-1" d="M615.43,56V22h4.47l16.74,21.39V22H643V56h-4.27L621.81,34.35V56Z"/><path class="cls-1" d="M676.75,52.94a13.87,13.87,0,0,1-18.62,0,12.08,12.08,0,0,1-3.67-9V22h6.38V43.11a7.85,7.85,0,0,0,1.75,5.25,6.79,6.79,0,0,0,9.7,0A7.65,7.65,0,0,0,674,43.2V22h6.38v22A12,12,0,0,1,676.75,52.94Z"/><path class="cls-1" d="M686.76,56l13.11-34h5.76L718.7,56h-6.55l-1.81-4.71H695.13L693.31,56Zm16-24.49-5.44,14.11h10.85Z"/><path class="cls-1" d="M726.67,56V22H740a11.5,11.5,0,0,1,8.2,3.09,10.59,10.59,0,0,1,3.27,8.06A10.2,10.2,0,0,1,749,40a11,11,0,0,1-6.35,3.62L751.79,56h-7.17l-8.83-12.14h-2.74V56ZM739,27.66h-5.94V38.75H739a6.29,6.29,0,0,0,4.42-1.51,5.05,5.05,0,0,0,1.65-3.92,5.37,5.37,0,0,0-1.7-4A6.05,6.05,0,0,0,739,27.66Z"/><path class="cls-1" d="M761.38,56V22h6.38V56Z"/></svg>