<svg id="Layer_1" data-name="Layer 1" xmlns="http://www.w3.org/2000/svg" viewBox="0 0 980 240"><defs><style>.cls-1{fill:#d80201;}.cls-2{fill:#fff;}</style></defs><title>text</title><rect class="cls-1" x="50.65" y="104.54" width="186.99" height="30.19" rx="15.09" ry="15.09"/><path class="cls-2" d="M75,115.75v2.61h3.68v2H75v5.16H72.68V113.76h6.22v2Z"/><path class="cls-2" d="M86.57,125.77a6.09,6.09,0,0,1-6.27-6.11,6.28,6.28,0,1,1,6.27,6.11Zm0-10.18a4.05,4.05,0,1,0,3.93,4A4,4,0,0,0,86.57,115.59Z"/><path class="cls-2" d="M100.71,125.5l-3.17-4.72h-.28v4.72H95V113.76h3.4a4.84,4.84,0,0,1,3,.85,3.42,3.42,0,0,1,1.16,2.64,3.87,3.87,0,0,1-.67,2.15,3,3,0,0,1-2,1.16l3.7,4.95Zm-2.76-9.88h-.69v3.54h.65c1.18,0,2.25-.42,2.25-1.78S99.13,115.63,97.95,115.63Z"/><path class="cls-2" d="M108.78,115.75v9.75h-2.29v-9.75h-2.62v-2h7.55v2Z"/><path class="cls-2" d="M116.15,125.79a4.58,4.58,0,0,1-4-2.24l1.48-1.43a2.69,2.69,0,0,0,2.47,1.57,1.67,1.67,0,0,0,1.81-1.66c0-2.41-5.16-1.27-5.16-5.05a3.45,3.45,0,0,1,3.66-3.42,5.15,5.15,0,0,1,3.43,1.3l-1.2,1.57a2.38,2.38,0,0,0-1.9-1c-.76,0-1.64.48-1.64,1.32,0,2,5.16,1,5.16,5.11A3.79,3.79,0,0,1,116.15,125.79Z"/><path class="cls-2" d="M130.22,125.5l-1-2.48h-4.79l-1.07,2.48h-2.43l5.09-12h1.73l4.95,12Zm-5.39-13a1.29,1.29,0,0,1-1.27-1.27,1.27,1.27,0,1,1,1.27,1.27Zm2,4.47-1.71,4.23h3.36Zm1.92-4.47a1.29,1.29,0,0,1-1.27-1.27,1.27,1.27,0,1,1,1.27,1.27Z"/><path class="cls-2" d="M137.18,115.75v9.75h-2.29v-9.75h-2.62v-2h7.55v2Z"/><path class="cls-2" d="M145,115.75v9.75h-2.29v-9.75h-2.62v-2h7.55v2Z"/><path class="cls-2" d="M160.76,125.5v-5.23h-5v5.23H153.5V113.76h2.29v4.54h5v-4.54H163V125.5Z"/><path class="cls-2" d="M173.7,125.5l-1-2.48h-4.79l-1.07,2.48H164.4l5.09-12h1.73l4.95,12Zm-5.39-13a1.29,1.29,0,0,1-1.27-1.27,1.27,1.27,0,1,1,1.27,1.27Zm2,4.47-1.71,4.23H172Zm1.92-4.47a1.29,1.29,0,0,1-1.27-1.27,1.27,1.27,0,1,1,1.27,1.27Z"/><path class="cls-2" d="M183.28,125.5l-3.17-4.72h-.28v4.72h-2.29V113.76h3.4a4.84,4.84,0,0,1,3,.85,3.42,3.42,0,0,1,1.16,2.64,3.87,3.87,0,0,1-.67,2.15,3,3,0,0,1-2,1.16l3.7,4.95Zm-2.76-9.88h-.69v3.54h.65c1.18,0,2.25-.42,2.25-1.78S181.7,115.63,180.52,115.63Z"/><polygon class="cls-2" points="202.85 121.11 190.48 121.11 190.48 117.96 202.85 117.96 202.85 113.19 211.65 119.53 202.85 125.61 202.85 121.11"/></svg>