<svg id="Layer_1" data-name="Layer 1" xmlns="http://www.w3.org/2000/svg" viewBox="0 0 980 120"><defs><style>.cls-1{fill:#d4ac76;}</style></defs><title>text</title><path class="cls-1" d="M330.91,84.9h-4.77v3.54h5.1V90h-6.72V78.39h6.63v1.54h-5v3.42h4.77Z"/><path class="cls-1" d="M334,79.93V78.39h9.39v1.54h-3.88V90h-1.62v-10Z"/><path class="cls-1" d="M345.72,79.93V78.39h9.39v1.54h-3.89V90H349.6v-10Z"/><path class="cls-1" d="M372.16,90V85h-5.64v5H364.9V78.39h1.62v5h5.64v-5h1.62V90Z"/><path class="cls-1" d="M382.57,90.18a4.05,4.05,0,0,1-3-1.22,4.2,4.2,0,0,1-1.18-3.06V78.39H380V85.8a3,3,0,0,0,.69,2,2.35,2.35,0,0,0,1.9.8,2.42,2.42,0,0,0,1.91-.78,3,3,0,0,0,.7-2V78.39h1.62V85.9A4.2,4.2,0,0,1,385.62,89,4.05,4.05,0,0,1,382.57,90.18Z"/><path class="cls-1" d="M394.43,90.13a5.39,5.39,0,0,1-2.17-.46,5.82,5.82,0,0,1-1.84-1.25l1.14-1.31a4.73,4.73,0,0,0,1.34,1.06,3.45,3.45,0,0,0,1.6.42,2.21,2.21,0,0,0,1.5-.5,1.53,1.53,0,0,0,.58-1.23,2,2,0,0,0-1.46-1.9l-1.37-.54a4.8,4.8,0,0,1-1.9-1.25,2.76,2.76,0,0,1-.62-1.83,2.92,2.92,0,0,1,.95-2.19,3.3,3.3,0,0,1,2.37-.91,4.71,4.71,0,0,1,3.37,1.28l-1,1.3a3.21,3.21,0,0,0-2.39-1,1.84,1.84,0,0,0-1.23.41,1.34,1.34,0,0,0-.47,1.07,1.31,1.31,0,0,0,.34.9,3.38,3.38,0,0,0,1.18.71l1.4.56c1.69.68,2.5,1.79,2.43,3.32a3.16,3.16,0,0,1-1,2.43A3.85,3.85,0,0,1,394.43,90.13Z"/><path class="cls-1" d="M408.52,90V78.39h6.33v1.54h-4.71v3.65h4.17v1.54h-4.17V90Z"/><path class="cls-1" d="M423.61,90.19a5.7,5.7,0,0,1-4.18-1.71,6.21,6.21,0,0,1,0-8.6,5.91,5.91,0,0,1,8.35,0,6.18,6.18,0,0,1,0,8.58A5.71,5.71,0,0,1,423.61,90.19Zm-3-2.84a4.19,4.19,0,0,0,6.07,0,4.63,4.63,0,0,0,0-6.34,4.18,4.18,0,0,0-6.06,0,4.64,4.64,0,0,0,0,6.34Zm1.95-10.19a.76.76,0,0,1-.58.25.72.72,0,0,1-.57-.25,1,1,0,0,1,0-1.26.73.73,0,0,1,.57-.26.77.77,0,0,1,.58.26.95.95,0,0,1,0,1.26Zm3.21,0a.72.72,0,0,1-.57.25.76.76,0,0,1-.58-.25,1,1,0,0,1,0-1.26.77.77,0,0,1,.58-.26.73.73,0,0,1,.57.26.95.95,0,0,1,0,1.26Z"/><path class="cls-1" d="M433.57,90V78.39h4.31a3.59,3.59,0,0,1,2.61,1,3.58,3.58,0,0,1-2,6.17L441.81,90h-2l-3.33-4.42h-1.29V90Zm4.09-10h-2.47v4.19h2.46a2.33,2.33,0,0,0,1.64-.58,2,2,0,0,0,.63-1.52,1.93,1.93,0,0,0-.64-1.48A2.25,2.25,0,0,0,437.66,79.93Z"/><path class="cls-1" d="M450.6,90l4.65-11.59h1.47L461.28,90h-1.79l-.7-1.78h-5.68L452.39,90ZM456,81.05l-2.25,5.6h4.46Z"/><path class="cls-1" d="M464.5,90V78.39h1.62v10h4.77V90Z"/><path class="cls-1" d="M474.45,90V78.39h1.62v10h4.77V90Z"/><path class="cls-1" d="M483.19,90l4.66-11.59h1.46L493.88,90h-1.79l-.7-1.78H485.7L485,90Zm5.39-8.93-2.26,5.6h4.46Z"/><path class="cls-1" d="M502.29,90l4.65-11.59h1.47L513,90h-1.79l-.7-1.78H504.8L504.08,90Zm5.38-8.93-2.25,5.6h4.46Z"/><path class="cls-1" d="M519.29,90.13a5.39,5.39,0,0,1-2.17-.46,5.82,5.82,0,0,1-1.84-1.25l1.14-1.31a4.73,4.73,0,0,0,1.34,1.06,3.42,3.42,0,0,0,1.6.42,2.21,2.21,0,0,0,1.5-.5,1.53,1.53,0,0,0,.58-1.23A2,2,0,0,0,520,85l-1.37-.54a4.8,4.8,0,0,1-1.9-1.25,2.76,2.76,0,0,1-.62-1.83,2.92,2.92,0,0,1,.95-2.19,3.3,3.3,0,0,1,2.37-.91,4.71,4.71,0,0,1,3.37,1.28l-1,1.3a3.21,3.21,0,0,0-2.39-1,1.84,1.84,0,0,0-1.23.41,1.34,1.34,0,0,0-.47,1.07,1.31,1.31,0,0,0,.34.9,3.38,3.38,0,0,0,1.18.71l1.4.56c1.69.68,2.5,1.79,2.43,3.32a3.16,3.16,0,0,1-1,2.43A3.85,3.85,0,0,1,519.29,90.13Z"/><path class="cls-1" d="M527,90V78.39h4a3.66,3.66,0,0,1,2.69,1.08,3.77,3.77,0,0,1,1.07,2.76,3.63,3.63,0,0,1-1.11,2.71A3.73,3.73,0,0,1,530.93,86h-2.27v4Zm3.84-10h-2.22v4.55h2.24a2.31,2.31,0,0,0,1.6-3.9A2.17,2.17,0,0,0,530.88,79.93Z"/><path class="cls-1" d="M545,84.9h-4.77v3.54h5.1V90H538.6V78.39h6.63v1.54h-5v3.42H545Z"/><path class="cls-1" d="M549.34,90V78.39H551v5.5l4.83-5.5H558L553.88,83l4.19,7h-2l-3.37-5.66L551,86.26V90Z"/><path class="cls-1" d="M560.52,79.93V78.39h9.39v1.54H566V90H564.4v-10Z"/><path class="cls-1" d="M579.52,84.9h-4.77v3.54h5.1V90h-6.72V78.39h6.63v1.54h-5v3.42h4.77Z"/><path class="cls-1" d="M583.87,90V78.39h4.31a3.59,3.59,0,0,1,2.61,1,3.58,3.58,0,0,1-2,6.17L592.11,90h-2l-3.33-4.42h-1.29V90Zm4.09-10h-2.47v4.19H588a2.33,2.33,0,0,0,1.64-.58,2.09,2.09,0,0,0,0-3A2.25,2.25,0,0,0,588,79.93Z"/><path class="cls-1" d="M600.9,90l4.65-11.59H607L611.58,90h-1.79l-.7-1.78h-5.68L602.69,90Zm5.38-8.93L604,86.65h4.45Z"/><path class="cls-1" d="M617.12,90,612.6,78.39h1.82l3.47,8.91,3.48-8.91h1.79L618.63,90Z"/><path class="cls-1" d="M632.82,90V78.39h3.1a5.77,5.77,0,0,1,5.75,5.77,5.7,5.7,0,0,1-5.8,5.82Zm3.17-10h-1.55v8.51H636a3.76,3.76,0,0,0,2.86-1.25,4.28,4.28,0,0,0,1.16-3,4.14,4.14,0,0,0-1.2-3A3.88,3.88,0,0,0,636,79.93Z"/><path class="cls-1" d="M645.66,90V78.39h1.62V90Z"/><path class="cls-1" d="M659.28,84.94V83.4h3.85v.81a6,6,0,0,1-6,6,5.66,5.66,0,0,1-4.23-1.74,6.26,6.26,0,0,1,0-8.56,5.69,5.69,0,0,1,4.23-1.73,6.28,6.28,0,0,1,2.44.48,6.07,6.07,0,0,1,2,1.34l-1.2,1.23a4.1,4.1,0,0,0-3.23-1.51A4,4,0,0,0,654.06,81a4.67,4.67,0,0,0,0,6.32,4,4,0,0,0,3.07,1.31,4.18,4.18,0,0,0,2.79-1,4.42,4.42,0,0,0,1.46-2.68Z"/></svg>