<svg id="Layer_1" data-name="Layer 1" xmlns="http://www.w3.org/2000/svg" viewBox="0 0 740 160"><defs><style>.cls-1{fill:#d80201;}</style></defs><title>text</title><path class="cls-1" d="M401.24,37.07c-2.15,2.31-5.51,1.95-8.38,1.95v8.15h-4.29v-22H395c2.18,0,4.09.17,5.81,1.68A7,7,0,0,1,403,32.15,7.23,7.23,0,0,1,401.24,37.07Zm-3.76-7.49a5.13,5.13,0,0,0-3.14-.69h-1.49v6.4h1.75c2.15,0,4-.69,4-3.17A3.26,3.26,0,0,0,397.47,29.58Z"/><path class="cls-1" d="M412.32,47.63c-4.55,0-8.19-2.84-8.19-7.59s3.63-7.62,8.22-7.62,8.12,2.87,8.12,7.59S416.85,47.63,412.32,47.63Zm0-11.62a4,4,0,1,0,4.06,4A4,4,0,0,0,412.29,36Z"/><path class="cls-1" d="M432.32,47.63a5.72,5.72,0,0,1-4.79-2.34v9.51h-4V32.88h4v1.82a5.69,5.69,0,0,1,4.69-2.28c4.26,0,7.06,3.53,7.06,7.62S436.51,47.63,432.32,47.63ZM431.13,36a4,4,0,1,0,4,4A4,4,0,0,0,431.13,36Z"/><path class="cls-1" d="M449.22,47.63c-3.93,0-6.9-1.75-6.9-6V32.88h4V41c0,1.95.83,3.27,2.9,3.27s2.9-1.32,2.9-3.27V32.88h4v8.75C456.15,45.88,453.14,47.63,449.22,47.63Z"/><path class="cls-1" d="M460,47.17V22.45h4V47.17Z"/><path class="cls-1" d="M478.72,47.17V45.29a5.52,5.52,0,0,1-4.65,2.34c-4.29,0-7-3.56-7-7.66s2.74-7.56,6.93-7.56a6,6,0,0,1,4.75,2.28V32.88h4V47.17Zm-6.9-17a2.38,2.38,0,1,1,0-4.75,2.38,2.38,0,0,1,0,4.75ZM475.15,36a4,4,0,1,0,4,4A4,4,0,0,0,475.15,36Zm3.53-5.81a2.41,2.41,0,0,1-2.38-2.38,2.38,2.38,0,1,1,2.38,2.38Z"/><path class="cls-1" d="M495.91,36.51A3.53,3.53,0,0,0,494,36c-2.71,0-3.43,1.91-3.43,4.29v6.86h-4V32.88h4V35a4.66,4.66,0,0,1,5.91-2.28Z"/><path class="cls-1" d="M509.38,47.17V45.29a5.52,5.52,0,0,1-4.65,2.34c-4.29,0-7-3.56-7-7.66s2.74-7.56,6.93-7.56a6,6,0,0,1,4.75,2.28V32.88h4V47.17ZM505.81,36a4,4,0,1,0,4,4A4,4,0,0,0,505.81,36Z"/><path class="cls-1" d="M385.69,85.17,383.75,71.6l-6.07,13.86h-1.19L370.64,71.6l-2.21,13.56h-4.32l4.09-22.41h2.94l6,14.39,6.27-14.39h2.94L390,85.17Z"/><path class="cls-1" d="M404.57,85.66a11.42,11.42,0,0,1-11.75-11.45,11.77,11.77,0,1,1,11.75,11.45Zm0-19.08a7.59,7.59,0,1,0,7.36,7.56A7.47,7.47,0,0,0,404.57,66.59Z"/><path class="cls-1" d="M428.49,85.73h-2.28l-9.37-22.58h4.69l5.88,14.79,5.94-14.79H438Z"/><path class="cls-1" d="M440.6,85.17v-22h12.18v3.73h-7.89v4.88h7.59V75.5h-7.59v5.94h7.89v3.73Z"/><path class="cls-1" d="M482,72.46h-3.33l-.46,3h3.37L481,79H477.6l-1,6.14h-4.13l1-6.14h-3l-1,6.14h-4.09l1-6.14H463l.56-3.6h3.4l.46-3H464l.56-3.63H468l.89-5.68h4.09L472,68.83h3l.89-5.68h4.13l-.89,5.68h3.33Zm-10.5,0-.46,3h3l.46-3Z"/><path class="cls-1" d="M491.16,85.73c-4.09,0-7.69-2.64-7.92-6.9h4.32A3.59,3.59,0,1,0,491.29,75a6.37,6.37,0,0,0-.79.07v-3.1a3.56,3.56,0,0,0,.59,0,3,3,0,0,0,.1-6c-1.88,0-2.77,1.16-3,2.9h-4.06c.63-4.16,3.17-6.3,7.36-6.3,3.66,0,6.7,2.18,6.7,6.07a4.91,4.91,0,0,1-2.54,4.69A5.42,5.42,0,0,1,499,78.76C499,83.25,495.35,85.73,491.16,85.73Z"/><path class="cls-1" d="M510.5,85.73c-6.07,0-8.52-6.4-8.52-11.55s2.41-11.58,8.52-11.58S519,69,519,74.14,516.6,85.73,510.5,85.73Zm0-19.34c-3.37,0-4.22,5.21-4.22,7.76S507.13,82,510.5,82s4.22-5.28,4.22-7.82S513.86,66.39,510.5,66.39Z"/><path class="cls-1" d="M528.58,85.73c-4.09,0-7.69-2.64-7.92-6.9H525A3.59,3.59,0,1,0,528.71,75a6.37,6.37,0,0,0-.79.07v-3.1a3.56,3.56,0,0,0,.59,0,3,3,0,0,0,.1-6c-1.88,0-2.77,1.16-3,2.9h-4.06c.63-4.16,3.17-6.3,7.36-6.3,3.66,0,6.7,2.18,6.7,6.07a4.91,4.91,0,0,1-2.54,4.69,5.42,5.42,0,0,1,3.37,5.41C536.44,83.25,532.77,85.73,528.58,85.73Z"/></svg>