<svg id="Layer_1" data-name="Layer 1" xmlns="http://www.w3.org/2000/svg" viewBox="0 0 740 160"><defs><style>.cls-1{fill:#d80201;}</style></defs><title>text</title><path class="cls-1" d="M305.78,47.73h-2.28l-9.37-22.58h4.69l5.88,14.79,5.94-14.79h4.65Z"/><path class="cls-1" d="M319.21,29.25a2.41,2.41,0,0,1,0-4.82,2.41,2.41,0,0,1,0,4.82Zm-2,17.92V32.88h4V47.17Z"/><path class="cls-1" d="M329.51,47.63a7.6,7.6,0,0,1-5.45-2.38l2.11-2.44a4.64,4.64,0,0,0,3.37,1.68,1.68,1.68,0,0,0,1.82-1.58c0-2.44-6.37-1.22-6.37-6,0-2.9,2.41-4.52,5.12-4.52a7.36,7.36,0,0,1,4.65,1.52l-2,2.34a4,4,0,0,0-2.38-1c-.69,0-1.52.43-1.52,1.22,0,2.08,6.6,1.15,6.6,6C335.48,45.85,332.58,47.63,329.51,47.63Z"/><path class="cls-1" d="M348.09,47.17V39.25c0-1.95-.43-3.43-2.71-3.43-2.48,0-3.07,1.81-3.07,4v7.39h-4V32.88h4v1.75a5.28,5.28,0,0,1,4.49-2.21A5.48,5.48,0,0,1,351,34.13a5.5,5.5,0,0,1,1.12,4v9.08Z"/><path class="cls-1" d="M357.86,29.25a2.41,2.41,0,0,1,0-4.82,2.41,2.41,0,0,1,0,4.82Zm-2,17.92V32.88h4V47.17Z"/><path class="cls-1" d="M373.37,47.17V39.25c0-1.95-.43-3.43-2.71-3.43-2.48,0-3.07,1.81-3.07,4v7.39h-4V32.88h4v1.75a5.28,5.28,0,0,1,4.49-2.21,5.48,5.48,0,0,1,4.16,1.72,5.5,5.5,0,0,1,1.12,4v9.08Z"/><path class="cls-1" d="M394.45,52.35a7.79,7.79,0,0,1-6.07,2.51c-3.66,0-7.2-2.11-7.59-6h4.32a3.18,3.18,0,0,0,3.4,2.61c2.51,0,3.53-1.75,3.53-4.06V45.25a5.94,5.94,0,0,1-4.82,2.38c-4.22,0-6.8-3.4-6.8-7.43s2.64-7.79,7-7.79A5.36,5.36,0,0,1,392,34.72V32.88h4V46.64C396.07,48.88,396,50.57,394.45,52.35ZM388.55,36a4,4,0,1,0,4,4A4,4,0,0,0,388.55,36Z"/><path class="cls-1" d="M404.45,47.63A7.6,7.6,0,0,1,399,45.25l2.11-2.44a4.64,4.64,0,0,0,3.37,1.68,1.68,1.68,0,0,0,1.82-1.58c0-2.44-6.37-1.22-6.37-6,0-2.9,2.41-4.52,5.12-4.52a7.36,7.36,0,0,1,4.65,1.52l-2,2.34a4,4,0,0,0-2.38-1c-.69,0-1.52.43-1.52,1.22,0,2.08,6.6,1.15,6.6,6C410.43,45.85,407.52,47.63,404.45,47.63Z"/><path class="cls-1" d="M423,47.17V39.34c0-2-.43-3.53-2.74-3.53-2.48,0-3,1.91-3,4v7.33h-4V22.45h4V34.72a5.2,5.2,0,0,1,4.49-2.31,5.46,5.46,0,0,1,4.16,1.75,5.67,5.67,0,0,1,1.12,4v9Z"/><path class="cls-1" d="M437.75,47.63c-3.93,0-6.9-1.75-6.9-6V32.88h4V41c0,1.95.83,3.27,2.9,3.27s2.9-1.32,2.9-3.27V32.88h4v8.75C444.68,45.88,441.68,47.63,437.75,47.63Z"/><path class="cls-1" d="M453.06,47.63a7.6,7.6,0,0,1-5.45-2.38l2.11-2.44a4.64,4.64,0,0,0,3.37,1.68,1.68,1.68,0,0,0,1.82-1.58c0-2.44-6.37-1.22-6.37-6,0-2.9,2.41-4.52,5.12-4.52a7.36,7.36,0,0,1,4.65,1.52l-2,2.34a4,4,0,0,0-2.38-1c-.69,0-1.52.43-1.52,1.22,0,2.08,6.6,1.15,6.6,6C459,45.85,456.13,47.63,453.06,47.63Z"/><path class="cls-1" d="M477.65,28.88V47.17h-4.29V28.88h-4.92V25.15H482.6v3.73Z"/><path class="cls-1" d="M490.94,47.63c-4.55,0-8.19-2.84-8.19-7.59s3.63-7.62,8.22-7.62,8.12,2.87,8.12,7.59S495.47,47.63,490.94,47.63Zm0-11.62A4,4,0,1,0,495,40,4,4,0,0,0,490.91,36Z"/><path class="cls-1" d="M511.5,36.51a3.53,3.53,0,0,0-1.91-.5c-2.71,0-3.43,1.91-3.43,4.29v6.86h-4V32.88h4V35a4.66,4.66,0,0,1,5.91-2.28Z"/><path class="cls-1" d="M518.6,47.63a7.6,7.6,0,0,1-5.45-2.38l2.11-2.44a4.64,4.64,0,0,0,3.37,1.68,1.68,1.68,0,0,0,1.82-1.58c0-2.44-6.37-1.22-6.37-6,0-2.9,2.41-4.52,5.12-4.52a7.36,7.36,0,0,1,4.65,1.52l-2,2.34a4,4,0,0,0-2.38-1c-.69,0-1.52.43-1.52,1.22,0,2.08,6.6,1.15,6.6,6C524.57,45.85,521.67,47.63,518.6,47.63Z"/><path class="cls-1" d="M527.41,47.17V22.45h4V47.17Z"/><path class="cls-1" d="M546.15,47.17V45.29a5.52,5.52,0,0,1-4.65,2.34c-4.29,0-7-3.56-7-7.66s2.74-7.56,6.93-7.56a6,6,0,0,1,4.75,2.28V32.88h4V47.17ZM542.59,36a4,4,0,1,0,4,4A4,4,0,0,0,542.59,36Z"/><path class="cls-1" d="M563.77,47.17V39.25c0-1.95-.43-3.43-2.71-3.43-2.48,0-3.07,1.81-3.07,4v7.39h-4V32.88h4v1.75a5.28,5.28,0,0,1,4.49-2.21,5.48,5.48,0,0,1,4.16,1.72,5.5,5.5,0,0,1,1.12,4v9.08Z"/><path class="cls-1" d="M582.52,47.17V45.29a5.52,5.52,0,0,1-4.65,2.34c-4.29,0-7-3.56-7-7.66s2.74-7.56,6.93-7.56a6,6,0,0,1,4.75,2.28V22.45h4V47.17ZM579,36a4,4,0,1,0,4,4A4,4,0,0,0,579,36Z"/><path class="cls-1" d="M601.29,47.17V45.29a5.52,5.52,0,0,1-4.65,2.34c-4.29,0-7-3.56-7-7.66s2.74-7.56,6.93-7.56a6,6,0,0,1,4.75,2.28V32.88h4V47.17ZM597.73,36a4,4,0,1,0,4,4A4,4,0,0,0,597.73,36Z"/><path class="cls-1" d="M326.72,82.49a9.13,9.13,0,0,1-7.23,3.17,9,9,0,0,1-7.23-3.17,9.51,9.51,0,0,1-1.62-5.87V63.15h4.29V75.76a7.44,7.44,0,0,0,.69,4,4.44,4.44,0,0,0,3.86,2,4.55,4.55,0,0,0,3.86-2,7.09,7.09,0,0,0,.69-4V63.15h4.29V76.62A9.3,9.3,0,0,1,326.72,82.49Z"/><path class="cls-1" d="M341.54,85.63a5.72,5.72,0,0,1-4.79-2.34v9.51h-4V70.88h4v1.82a5.69,5.69,0,0,1,4.69-2.28c4.26,0,7.06,3.53,7.06,7.62S345.73,85.63,341.54,85.63ZM340.35,74a4,4,0,1,0,4,4A4,4,0,0,0,340.35,74Z"/><path class="cls-1" d="M360.31,85.63a5.72,5.72,0,0,1-4.79-2.34v9.51h-4V70.88h4v1.82a5.69,5.69,0,0,1,4.69-2.28c4.26,0,7.06,3.53,7.06,7.62S364.51,85.63,360.31,85.63ZM359.13,74a4,4,0,1,0,4,4A4,4,0,0,0,359.13,74Z"/><path class="cls-1" d="M370.31,85.17V60.45h4V85.17Z"/><path class="cls-1" d="M381.47,78.67c.07,2.21,1.12,3.83,3.5,3.83a3.74,3.74,0,0,0,3.4-1.91l3.7.59c-1.25,3.07-3.8,4.46-7,4.46-4.62,0-7.66-3-7.66-7.62s2.9-7.59,7.49-7.59,7.29,3.17,7.29,7.72v.53Zm3.47-5.41a3.24,3.24,0,0,0-3.33,2.87h6.77A3.31,3.31,0,0,0,384.93,73.25Z"/><path class="cls-1" d="M401.76,85.46h-1.85l-7.29-14.59h4.49l3.76,8.05,3.76-8.05h4.49Z"/><path class="cls-1" d="M440.34,85.17,438.39,71.6l-6.07,13.86h-1.19L425.29,71.6l-2.21,13.56h-4.32l4.09-22.41h2.94l6,14.39,6.27-14.39H441l3.66,22.41Z"/><path class="cls-1" d="M459.22,85.66a11.42,11.42,0,0,1-11.75-11.45,11.77,11.77,0,1,1,11.75,11.45Zm0-19.08a7.59,7.59,0,1,0,7.36,7.56A7.47,7.47,0,0,0,459.22,66.59Z"/><path class="cls-1" d="M483.14,85.73h-2.28l-9.37-22.58h4.69l5.88,14.79L488,63.15h4.65Z"/><path class="cls-1" d="M495.25,85.17v-22h12.18v3.73h-7.89v4.88h7.59V75.5h-7.59v5.94h7.89v3.73Z"/><path class="cls-1" d="M536.6,72.46h-3.33l-.46,3h3.37l-.56,3.6h-3.37l-1,6.14h-4.13l1-6.14h-3l-1,6.14H520L521,79h-3.4l.56-3.6h3.4l.46-3h-3.37l.56-3.63h3.37l.89-5.68h4.09l-.92,5.68h3l.89-5.68h4.13l-.89,5.68h3.33Zm-10.5,0-.46,3h3l.46-3Z"/><path class="cls-1" d="M545.81,85.73c-4.09,0-7.69-2.64-7.92-6.9h4.32A3.59,3.59,0,1,0,545.94,75a6.37,6.37,0,0,0-.79.07v-3.1a3.56,3.56,0,0,0,.59,0,3,3,0,0,0,.1-6c-1.88,0-2.77,1.16-3,2.9h-4.06c.63-4.16,3.17-6.3,7.36-6.3,3.66,0,6.7,2.18,6.7,6.07a4.91,4.91,0,0,1-2.54,4.69,5.42,5.42,0,0,1,3.37,5.41C553.66,83.25,550,85.73,545.81,85.73Z"/><path class="cls-1" d="M565.14,85.73c-6.07,0-8.52-6.4-8.52-11.55s2.41-11.58,8.52-11.58,8.52,6.37,8.52,11.55S571.25,85.73,565.14,85.73Zm0-19.34c-3.37,0-4.22,5.21-4.22,7.76s.86,7.82,4.22,7.82,4.22-5.28,4.22-7.82S568.51,66.39,565.14,66.39Z"/><path class="cls-1" d="M582.4,85.73a9.41,9.41,0,0,1-7-2.87l1.42-3.7A7.38,7.38,0,0,0,582.34,82a4.36,4.36,0,0,0,4.39-4.26c0-2.71-2.51-4.39-5-4.39a7.27,7.27,0,0,0-4.22,1.39h-.23l2.61-11.55H590v3.76h-7.26l-.86,3.4a13.37,13.37,0,0,1,1.62-.13A7.39,7.39,0,0,1,591,77.87C591,82.86,587.12,85.73,582.4,85.73Z"/></svg>