<svg id="Layer_1" data-name="Layer 1" xmlns="http://www.w3.org/2000/svg" viewBox="0 0 740 160"><defs><style>.cls-1{fill:#d4ac76;}</style></defs><title>text</title><path class="cls-1" d="M367.72,43.18V25.4h5.85a5.36,5.36,0,0,1,3.89,1.48A4.91,4.91,0,0,1,379,30.55a4.21,4.21,0,0,1-2,3.58,4.86,4.86,0,0,1,2,1.59A3.71,3.71,0,0,1,379.7,38a4.89,4.89,0,0,1-1.55,3.76,5.57,5.57,0,0,1-3.93,1.44Zm5.46-14.81H370.8v4.46h2.66a2.46,2.46,0,0,0,1.77-.66,2.19,2.19,0,0,0,.68-1.64,1.9,1.9,0,0,0-.75-1.57A3.07,3.07,0,0,0,373.18,28.37Zm.51,7.13H370.8v4.71h2.82a2.89,2.89,0,0,0,2-.67,2.23,2.23,0,0,0,.74-1.72,2.17,2.17,0,0,0-.7-1.69A2.84,2.84,0,0,0,373.69,35.5Z"/><path class="cls-1" d="M395,35.66h-6.58v4.55h7.22v3H385V25.4h10.35v3h-7v4.32H395Z"/><path class="cls-1" d="M405.72,43.41a8.92,8.92,0,0,1-6.23-2.65l2.12-2.53a6.53,6.53,0,0,0,2,1.59,5.06,5.06,0,0,0,2.34.62,2.84,2.84,0,0,0,1.89-.61,1.89,1.89,0,0,0,.74-1.53,2.65,2.65,0,0,0-2-2.47l-2-.79a7.59,7.59,0,0,1-2.95-2,4.5,4.5,0,0,1-1-3,4.58,4.58,0,0,1,1.51-3.37A5.15,5.15,0,0,1,406,25.19a7.66,7.66,0,0,1,5.47,2l-2,2.48A4.58,4.58,0,0,0,406,28.16a2.4,2.4,0,0,0-1.6.51,1.59,1.59,0,0,0-.6,1.25,1.66,1.66,0,0,0,.47,1.22,4.65,4.65,0,0,0,1.53.92l2.07.83q4,1.57,4,5.13a5,5,0,0,1-1.67,3.89A6.48,6.48,0,0,1,405.72,43.41Z"/><path class="cls-1" d="M434.58,34.28a9.24,9.24,0,1,1-15.77-6.52,9.24,9.24,0,0,1,15.77,6.52Zm-13.42,4.24a5.61,5.61,0,0,0,4.17,1.76,5.67,5.67,0,0,0,4.19-1.76,6.12,6.12,0,0,0,0-8.51,5.67,5.67,0,0,0-4.19-1.76A5.61,5.61,0,0,0,421.16,30a6.15,6.15,0,0,0,0,8.51Zm2.63-15a1.46,1.46,0,0,1-1.09.47,1.5,1.5,0,0,1-1.1-.47,1.67,1.67,0,0,1,0-2.27,1.62,1.62,0,0,1,1.11-.46,1.52,1.52,0,0,1,1.08.46,1.57,1.57,0,0,1,.45,1.13A1.61,1.61,0,0,1,423.79,23.57Zm5.29,0a1.66,1.66,0,0,1-1.18.47,1.65,1.65,0,0,1-1.18-.47,1.56,1.56,0,0,1,0-2.27,1.68,1.68,0,0,1,1.18-.46,1.7,1.7,0,0,1,1.18.46,1.56,1.56,0,0,1,0,2.27Z"/><path class="cls-1" d="M439.69,43.18V25.4h3.08v7.84l6.81-7.84h4.11l-6.27,7.09,6.41,10.69H450l-4.84-8.12-2.38,2.69v5.43Z"/><path class="cls-1" d="M466.43,28.6V25.4h14.66v3.2h-5.66V43.18h-3.34V28.6Z"/><path class="cls-1" d="M497,41.58a7.26,7.26,0,0,1-9.73,0,6.3,6.3,0,0,1-1.92-4.7V25.4h3.34v11a4,4,0,0,0,.92,2.74,3.51,3.51,0,0,0,5.06,0,4,4,0,0,0,.92-2.71V25.4h3.33V36.88A6.3,6.3,0,0,1,497,41.58Z"/><path class="cls-1" d="M504.89,43.18V25.4h9.68v3h-6.34v4.85h5.65v3h-5.65v7Z"/><path class="cls-1" d="M519.43,43.18V25.4h9.68v3h-6.35v4.85h5.66v3h-5.66v7Z"/><path class="cls-1" d="M347,70.78V57l-3,1.55v-3l4.78-2.57h1.27V70.78Z"/><path class="cls-1" d="M354.1,74l2-6,2.78,1-3,5.75Z"/><path class="cls-1" d="M368.7,71a6,6,0,0,1-3.61-1.11A5.55,5.55,0,0,1,363,67l2.76-1.09a2.92,2.92,0,0,0,1.1,1.55,3.2,3.2,0,0,0,2,.61,2.78,2.78,0,0,0,2-.86A2.93,2.93,0,0,0,371.7,65a2.75,2.75,0,0,0-.89-2.1,3,3,0,0,0-2.13-.83,2.71,2.71,0,0,0-2.09.92h-3.1V53h10.14v3h-7.06v4a4.8,4.8,0,0,1,2.13-.54A6.17,6.17,0,0,1,373.13,61a5.35,5.35,0,0,1,1.65,4,5.71,5.71,0,0,1-1.78,4.2A5.88,5.88,0,0,1,368.7,71Z"/><path class="cls-1" d="M379,63.23V60.57h7v2.66Z"/><path class="cls-1" d="M391.52,70.78V53h6.39a6,6,0,0,1,6.17,6.14,5.63,5.63,0,0,1-1.8,4.28,6.23,6.23,0,0,1-4.43,1.7h-3v5.66Zm6.1-14.58h-2.76v5.95h2.81a3.14,3.14,0,0,0,2.23-.79,2.8,2.8,0,0,0,.85-2.13,2.91,2.91,0,0,0-.88-2.19A3.1,3.1,0,0,0,397.62,56.2Z"/><path class="cls-1" d="M409,70.78V53h3.34V67.58h6.53v3.2Z"/><path class="cls-1" d="M421.93,70.78,428.79,53h3l6.83,17.78H435.2l-.94-2.46h-7.95l-.95,2.46ZM430.29,58l-2.84,7.38h5.67Z"/><path class="cls-1" d="M442.79,70.78V53h2.34l8.75,11.18V53h3.33V70.78H455l-8.85-11.32V70.78Z"/><path class="cls-1" d="M468.12,71a8.92,8.92,0,0,1-6.23-2.65L464,65.83a6.53,6.53,0,0,0,2,1.59,5.06,5.06,0,0,0,2.34.62,2.84,2.84,0,0,0,1.89-.61,1.89,1.89,0,0,0,.74-1.53A2.65,2.65,0,0,0,469,63.43l-2-.79a7.71,7.71,0,0,1-3-2,4.55,4.55,0,0,1-.95-3,4.61,4.61,0,0,1,1.51-3.38,5.18,5.18,0,0,1,3.77-1.48,7.66,7.66,0,0,1,5.47,2l-2,2.48a4.58,4.58,0,0,0-3.51-1.54,2.38,2.38,0,0,0-1.6.51,1.59,1.59,0,0,0-.6,1.25,1.67,1.67,0,0,0,.47,1.22,4.54,4.54,0,0,0,1.53.92l2.07.83q4,1.57,4,5.13a5,5,0,0,1-1.68,3.89A6.44,6.44,0,0,1,468.12,71Z"/><path class="cls-1" d="M484.06,70.78,477.27,53h3.47l4.88,12.78L490.45,53h3.37l-6.73,17.78Z"/><path class="cls-1" d="M498,70.78V53h3.34V70.78Z"/><path class="cls-1" d="M507.7,70.78V53H511V67.58h6.53v3.2Z"/><path class="cls-1" d="M522.37,70.78V53h3.34V67.58h6.53v3.2Z"/><path class="cls-1" d="M535.32,70.78,542.17,53h3L552,70.78h-3.43l-.94-2.46h-8l-.94,2.46ZM543.68,58l-2.84,7.38h5.67Z"/></svg>