<svg id="Layer_1" data-name="Layer 1" xmlns="http://www.w3.org/2000/svg" viewBox="0 0 740 160"><defs><style>.cls-1{fill:#d4ac76;}</style></defs><title>text</title><path class="cls-1" d="M327.27,121.93l-3.92-10.05h1.57l3,7.72,3-7.72h1.55l-3.93,10.05Z"/><path class="cls-1" d="M340.87,121.93V111.88h1.44l3.24,5.35,3.29-5.35h1.38v10.05h-1.41V114.5l0,0-3.24,5.2-3.17-5.12h-.09v7.38Z"/><path class="cls-1" d="M358.75,122.11a4.94,4.94,0,0,1-3.62-1.49,5.4,5.4,0,0,1,0-7.45,5.13,5.13,0,0,1,7.24,0,5.35,5.35,0,0,1,0,7.43A5,5,0,0,1,358.75,122.11Zm-2.63-2.47a3.63,3.63,0,0,0,5.26,0,4,4,0,0,0,0-5.49,3.63,3.63,0,0,0-5.26,0,4,4,0,0,0,0,5.49Zm1.69-8.83a.68.68,0,0,1-1,0,.84.84,0,0,1,0-1.09.68.68,0,0,1,1,0,.81.81,0,0,1,0,1.09Zm2.79,0a.65.65,0,0,1-.5.22.63.63,0,0,1-.5-.22.76.76,0,0,1-.2-.55.76.76,0,0,1,.2-.54.63.63,0,0,1,.5-.22.65.65,0,0,1,.5.22.84.84,0,0,1,0,1.09Z"/><path class="cls-1" d="M367.39,121.93V111.88h1.4v8.71h4.14v1.34Z"/><path class="cls-1" d="M376,121.93V111.88h1.4v8.71h4.14v1.34Z"/><path class="cls-1" d="M390.17,117.52H386v3.07h4.42v1.34h-5.82V111.88h5.74v1.34H386v3h4.14Z"/><path class="cls-1" d="M393.94,121.93V111.88h2.69a5.06,5.06,0,0,1,3.51,8.62,4.9,4.9,0,0,1-3.56,1.43Zm2.74-8.71h-1.34v7.37h1.38a3.26,3.26,0,0,0,2.48-1.08,3.72,3.72,0,0,0,1-2.63,3.6,3.6,0,0,0-1-2.61A3.39,3.39,0,0,0,396.68,113.22Z"/><path class="cls-1" d="M403.59,121.93l4-10.05h1.27l4,10.05H411.3l-.6-1.55h-4.93l-.62,1.55Zm4.67-7.75L406.31,119h3.86Z"/><path class="cls-1" d="M415.65,121.93V111.88h1.4v8.71h4.13v1.34Z"/><path class="cls-1" d="M426.88,122.06a4.69,4.69,0,0,1-1.88-.41,5,5,0,0,1-1.59-1.08l1-1.14a3.67,3.67,0,0,0,1.16.92,3,3,0,0,0,1.39.37,2,2,0,0,0,1.3-.43,1.37,1.37,0,0,0,.5-1.07,1.76,1.76,0,0,0-1.27-1.65l-1.19-.47a4,4,0,0,1-1.64-1.08,2.36,2.36,0,0,1-.54-1.59,2.55,2.55,0,0,1,.83-1.9,2.86,2.86,0,0,1,2.05-.78,4.1,4.1,0,0,1,2.92,1.11l-.85,1.13a2.78,2.78,0,0,0-2.07-.9,1.62,1.62,0,0,0-1.07.34,1.2,1.2,0,0,0-.41.94,1.11,1.11,0,0,0,.3.77,2.75,2.75,0,0,0,1,.62l1.21.49a2.84,2.84,0,0,1,2.11,2.87,2.73,2.73,0,0,1-.88,2.11A3.39,3.39,0,0,1,426.88,122.06Z"/><path class="cls-1" d="M436.19,121.93l-3.92-10.05h1.58l3,7.72,3-7.72h1.55l-3.93,10.05Z"/><path class="cls-1" d="M443.78,121.83a.8.8,0,0,1-.6.25.78.78,0,0,1-.59-.25.81.81,0,0,1-.24-.59.85.85,0,0,1,.23-.61.81.81,0,0,1,.6-.24.84.84,0,0,1,.85.85A.82.82,0,0,1,443.78,121.83Z"/><path class="cls-1" d="M454.11,121.93v-8.26l-1.88,1v-1.34l2.66-1.47h.63v10.11Z"/><path class="cls-1" d="M458.68,119.62v-.88l3.49-6.86h1.47l-3.3,6.5h2.17v-1.69h1.41v1.69h1.2v1.24h-1.2v2.31h-1.41v-2.31Z"/><path class="cls-1" d="M467.2,121.93l4-10.05h1.27l4,10.05h-1.56l-.6-1.55h-4.93l-.62,1.55Zm4.67-7.75L469.92,119h3.86Z"/><path class="cls-1" d="M478.58,123.77l1.16-3.22L481,121l-1.58,3.1Z"/><path class="cls-1" d="M496.14,121.93v-4.36h-4.89v4.36h-1.4V111.88h1.4v4.35h4.89v-4.35h1.41v10.05Z"/><path class="cls-1" d="M506.15,122.11a5,5,0,0,1-3.63-1.49,5.4,5.4,0,0,1,0-7.45,5.13,5.13,0,0,1,7.24,0,5.35,5.35,0,0,1,0,7.43A4.93,4.93,0,0,1,506.15,122.11Zm-2.64-2.47a3.64,3.64,0,0,0,5.27,0,4,4,0,0,0,0-5.49,3.63,3.63,0,0,0-5.26,0,4,4,0,0,0,0,5.49Zm1.69-8.83a.67.67,0,0,1-1,0,.76.76,0,0,1-.2-.55.76.76,0,0,1,.2-.54.67.67,0,0,1,1,0,.81.81,0,0,1,0,1.09Zm2.79,0a.63.63,0,0,1-.5.22.65.65,0,0,1-.5-.22.84.84,0,0,1,0-1.09.65.65,0,0,1,.5-.22.63.63,0,0,1,.5.22.76.76,0,0,1,.2.54A.76.76,0,0,1,508,110.81Z"/><path class="cls-1" d="M514.78,121.93V111.88h1.41v8.71h4.13v1.34Z"/><path class="cls-1" d="M523.4,121.93V111.88h1.41v8.71h4.13v1.34Z"/><path class="cls-1" d="M533.43,121.93l-3.92-10.05h1.58l3,7.72,3-7.72h1.55l-3.93,10.05Z"/><path class="cls-1" d="M541.43,121.93V111.88h1.41v10.05Z"/><path class="cls-1" d="M547,121.93V111.88h1.4v4.76l4.19-4.76h1.88l-3.54,4,3.63,6.07h-1.74L549.86,117l-1.5,1.68v3.23Z"/><path class="cls-1" d="M563.12,117.52H559v3.07h4.42v1.34h-5.82V111.88h5.75v1.34H559v3h4.14Z"/><path class="cls-1" d="M566.89,121.93V111.88h1l5.44,6.92v-6.92h1.4v10.05h-.78l-5.64-7.18v7.18Z"/><path class="cls-1" d="M350.65,141.93V131.88h1.41v8.71h4.13v1.34Z"/><path class="cls-1" d="M363,142.11a5,5,0,0,1-3.62-1.49,5.4,5.4,0,0,1,0-7.45,5.13,5.13,0,0,1,7.24,0,5.35,5.35,0,0,1,0,7.43A4.94,4.94,0,0,1,363,142.11Zm-2.63-2.47a3.63,3.63,0,0,0,5.26,0,4,4,0,0,0,0-5.49,3.63,3.63,0,0,0-5.26,0,4,4,0,0,0,0,5.49Zm1.69-8.83a.68.68,0,0,1-1,0,.84.84,0,0,1,0-1.09.68.68,0,0,1,1,0,.81.81,0,0,1,0,1.09Zm2.79,0a.65.65,0,0,1-.5.22.63.63,0,0,1-.5-.22.76.76,0,0,1-.2-.55.76.76,0,0,1,.2-.54.63.63,0,0,1,.5-.22.65.65,0,0,1,.5.22.84.84,0,0,1,0,1.09Z"/><path class="cls-1" d="M371.66,141.93V131.88h3.73a3.13,3.13,0,0,1,2.26.87,3,3,0,0,1,.91,2.27,3,3,0,0,1-.75,2.1,2.94,2.94,0,0,1-1.92,1l2.91,3.83h-1.73l-2.89-3.84h-1.12v3.84Zm3.54-8.71h-2.14v3.62h2.13a2,2,0,0,0,1.42-.49,1.82,1.82,0,0,0,0-2.61A2,2,0,0,0,375.2,133.22Z"/><path class="cls-1" d="M382.09,141.93V131.88h2.69a5.06,5.06,0,0,1,3.51,8.62,4.9,4.9,0,0,1-3.56,1.43Zm2.74-8.71h-1.34v7.37h1.38a3.26,3.26,0,0,0,2.48-1.08,3.72,3.72,0,0,0,1-2.63,3.6,3.6,0,0,0-1-2.61A3.37,3.37,0,0,0,384.83,133.22Z"/><path class="cls-1" d="M391.75,141.93l4-10.05h1.27l4,10.05h-1.55l-.61-1.55h-4.93l-.62,1.55Zm4.66-7.75-2,4.86h3.86Z"/><path class="cls-1" d="M409.88,137.56v-1.34h3.34v.7a5,5,0,0,1-1.56,3.71,5.08,5.08,0,0,1-3.64,1.46,4.92,4.92,0,0,1-3.66-1.5,5.42,5.42,0,0,1,0-7.42,4.92,4.92,0,0,1,3.66-1.5,5.33,5.33,0,0,1,2.11.42,5,5,0,0,1,1.73,1.16l-1,1.06A3.57,3.57,0,0,0,408,133a3.52,3.52,0,0,0-2.66,1.13,4,4,0,0,0,0,5.48,3.49,3.49,0,0,0,2.66,1.14,3.6,3.6,0,0,0,2.41-.88,3.8,3.8,0,0,0,1.27-2.32Z"/><path class="cls-1" d="M423.26,141.93v-8.26l-1.89,1v-1.34l2.67-1.47h.62v10.11Z"/><path class="cls-1" d="M430.88,142.08a3.09,3.09,0,0,1-2.19-.85,2.8,2.8,0,0,1-.94-2h1.41a1.5,1.5,0,0,0,.52,1.11,1.82,1.82,0,0,0,2.43,0,1.6,1.6,0,0,0,.49-1.2,1.66,1.66,0,0,0-1.71-1.72h-.57v-1.25h.56a1.59,1.59,0,0,0,1.17-.47,1.56,1.56,0,0,0,0-2.23,1.62,1.62,0,0,0-1.18-.45,1.56,1.56,0,0,0-1.15.47,1.51,1.51,0,0,0-.47,1.12h-1.4a2.6,2.6,0,0,1,.87-2,3.25,3.25,0,0,1,4.33,0,2.64,2.64,0,0,1,.87,2,2.24,2.24,0,0,1-.43,1.35,2.31,2.31,0,0,1-1.1.85,2.43,2.43,0,0,1,1.17.9,2.46,2.46,0,0,1,.44,1.45,2.86,2.86,0,0,1-.92,2.13A3.06,3.06,0,0,1,430.88,142.08Z"/><path class="cls-1" d="M441.68,141.93l4-10.05H447l4,10.05h-1.55l-.61-1.55h-4.93l-.62,1.55Zm4.67-7.75-2,4.86h3.86Z"/><path class="cls-1" d="M453.73,141.93V131.88h3.43a3.17,3.17,0,0,1,2.33.93,3.27,3.27,0,0,1,.93,2.39,3.13,3.13,0,0,1-1,2.35,3.21,3.21,0,0,1-2.35.94h-2v3.44Zm3.33-8.71h-1.93v3.93h1.95a2,2,0,0,0,1.39-3.37A1.88,1.88,0,0,0,457.06,133.22Z"/><path class="cls-1" d="M463.75,141.93V131.88h3.73a3.17,3.17,0,0,1,2.27.87,3.28,3.28,0,0,1,.15,4.37,2.94,2.94,0,0,1-1.92,1l2.91,3.83h-1.73l-2.88-3.84h-1.12v3.84Zm3.54-8.71h-2.13v3.62h2.12a2,2,0,0,0,1.42-.49,1.71,1.71,0,0,0,.55-1.33,1.68,1.68,0,0,0-.55-1.28A2,2,0,0,0,467.29,133.22Z"/><path class="cls-1" d="M474.18,141.93V131.88h1.4v10.05Z"/><path class="cls-1" d="M479.7,141.93V131.88h1.41v8.71h4.13v1.34Z"/><path class="cls-1" d="M493.76,141.93V131.88h1.4v4.76l4.19-4.76h1.88l-3.54,4,3.63,6.07h-1.74L496.66,137l-1.5,1.68v3.23Z"/><path class="cls-1" d="M504.38,141.93V131.88h1.4v8.71h4.14v1.34Z"/><path class="cls-1" d="M519.57,141.93v-8.26l-1.88,1v-1.34l2.67-1.47H521v10.11Z"/><path class="cls-1" d="M526.06,141.93v-8.26l-1.88,1v-1.34l2.66-1.47h.62v10.11Z"/><path class="cls-1" d="M530.88,137.54V136.3h3.93v1.24Z"/><path class="cls-1" d="M538.62,141.93v-8.26l-1.89,1v-1.34l2.67-1.47H540v10.11Z"/><path class="cls-1" d="M546.24,142.08a3.09,3.09,0,0,1-2.19-.85,2.83,2.83,0,0,1-.93-2h1.4a1.51,1.51,0,0,0,.53,1.11,1.81,1.81,0,0,0,2.42,0,1.61,1.61,0,0,0,.5-1.2,1.68,1.68,0,0,0-.5-1.24,1.66,1.66,0,0,0-1.22-.48h-.57v-1.25h.56a1.59,1.59,0,0,0,1.17-.47,1.56,1.56,0,0,0,0-2.23,1.62,1.62,0,0,0-1.18-.45,1.58,1.58,0,0,0-1.15.47,1.5,1.5,0,0,0-.46,1.12h-1.41a2.6,2.6,0,0,1,.87-2,3.25,3.25,0,0,1,4.33,0,2.64,2.64,0,0,1,.87,2,2.3,2.3,0,0,1-.42,1.35,2.38,2.38,0,0,1-1.11.85,2.39,2.39,0,0,1,1.17.9,2.46,2.46,0,0,1,.44,1.45,2.86,2.86,0,0,1-.92,2.13A3.06,3.06,0,0,1,546.24,142.08Z"/></svg>