<svg id="Layer_1" data-name="Layer 1" xmlns="http://www.w3.org/2000/svg" viewBox="0 0 740 160"><defs><style>.cls-1{fill:#d4ac76;}</style></defs><title>text</title><path class="cls-1" d="M324.55,121.93l-3.92-10.05h1.58l3,7.72,3-7.72h1.55l-3.93,10.05Z"/><path class="cls-1" d="M338.15,121.93V111.88h1.45l3.23,5.35,3.29-5.35h1.38v10.05h-1.4V114.5l-.05,0-3.23,5.2-3.17-5.12h-.09v7.38Z"/><path class="cls-1" d="M356,122.11a5,5,0,0,1-3.63-1.49,5.4,5.4,0,0,1,0-7.45,5.13,5.13,0,0,1,7.24,0,5.35,5.35,0,0,1,0,7.43A4.93,4.93,0,0,1,356,122.11Zm-2.64-2.47a3.64,3.64,0,0,0,5.27,0,4,4,0,0,0,0-5.49,3.63,3.63,0,0,0-5.26,0,4,4,0,0,0,0,5.49Zm1.69-8.83a.67.67,0,0,1-1,0,.76.76,0,0,1-.2-.55.76.76,0,0,1,.2-.54.67.67,0,0,1,1,0,.81.81,0,0,1,0,1.09Zm2.79,0a.63.63,0,0,1-.5.22.65.65,0,0,1-.5-.22.84.84,0,0,1,0-1.09.65.65,0,0,1,.5-.22.63.63,0,0,1,.5.22.76.76,0,0,1,.2.54A.76.76,0,0,1,357.88,110.81Z"/><path class="cls-1" d="M364.67,121.93V111.88h1.41v8.71h4.13v1.34Z"/><path class="cls-1" d="M373.29,121.93V111.88h1.41v8.71h4.13v1.34Z"/><path class="cls-1" d="M387.45,117.52h-4.13v3.07h4.42v1.34h-5.83V111.88h5.75v1.34h-4.34v3h4.13Z"/><path class="cls-1" d="M391.22,121.93V111.88h2.69a5,5,0,0,1,5,5,4.88,4.88,0,0,1-1.46,3.62,4.94,4.94,0,0,1-3.57,1.43Zm2.75-8.71h-1.35v7.37H394a3.24,3.24,0,0,0,2.48-1.08,3.73,3.73,0,0,0,1-2.63,3.61,3.61,0,0,0-1-2.61A3.36,3.36,0,0,0,394,113.22Z"/><path class="cls-1" d="M400.88,121.93l4-10.05h1.27l4,10.05h-1.55l-.61-1.55h-4.93l-.62,1.55Zm4.66-7.75-2,4.86h3.86Z"/><path class="cls-1" d="M412.93,121.93V111.88h1.4v8.71h4.14v1.34Z"/><path class="cls-1" d="M424.17,122.06a4.65,4.65,0,0,1-1.88-.41,5,5,0,0,1-1.59-1.08l1-1.14a3.78,3.78,0,0,0,1.16.92,3,3,0,0,0,1.39.37,2,2,0,0,0,1.3-.43,1.33,1.33,0,0,0,.5-1.07,1.76,1.76,0,0,0-1.27-1.65l-1.18-.47a4,4,0,0,1-1.65-1.08,2.36,2.36,0,0,1-.54-1.59,2.55,2.55,0,0,1,.83-1.9,2.88,2.88,0,0,1,2-.78,4.1,4.1,0,0,1,2.92,1.11l-.85,1.13a2.77,2.77,0,0,0-2.07-.9,1.59,1.59,0,0,0-1.06.34,1.17,1.17,0,0,0-.41.94,1.11,1.11,0,0,0,.3.77,2.75,2.75,0,0,0,1,.62l1.2.49a2.86,2.86,0,0,1,2.12,2.87,2.74,2.74,0,0,1-.89,2.11A3.36,3.36,0,0,1,424.17,122.06Z"/><path class="cls-1" d="M433.48,121.93l-3.92-10.05h1.57l3,7.72,3-7.72h1.55l-3.93,10.05Z"/><path class="cls-1" d="M441.06,121.83a.83.83,0,0,1-1.19,0,.81.81,0,0,1-.24-.59.82.82,0,0,1,.24-.61.78.78,0,0,1,.59-.24.81.81,0,0,1,.6.24.79.79,0,0,1,.25.61A.78.78,0,0,1,441.06,121.83Z"/><path class="cls-1" d="M451.4,121.93v-8.26l-1.89,1v-1.34l2.67-1.47h.62v10.11Z"/><path class="cls-1" d="M456,119.62v-.88l3.5-6.86h1.47l-3.31,6.5h2.17v-1.69h1.41v1.69h1.21v1.24H461.2v2.31h-1.41v-2.31Z"/><path class="cls-1" d="M464.49,121.93l4-10.05h1.27l4,10.05H472.2l-.61-1.55h-4.93l-.62,1.55Zm4.66-7.75L467.2,119h3.86Z"/><path class="cls-1" d="M475.86,123.77l1.16-3.22,1.29.45-1.59,3.1Z"/><path class="cls-1" d="M498.86,121.93v-4.36H494v4.36h-1.4V111.88H494v4.35h4.89v-4.35h1.4v10.05Z"/><path class="cls-1" d="M508.86,122.11a5,5,0,0,1-3.62-1.49,5.4,5.4,0,0,1,0-7.45,5.13,5.13,0,0,1,7.24,0,5.35,5.35,0,0,1,0,7.43A4.94,4.94,0,0,1,508.86,122.11Zm-2.63-2.47a3.63,3.63,0,0,0,5.26,0,4,4,0,0,0,0-5.49,3.63,3.63,0,0,0-5.26,0,4,4,0,0,0,0,5.49Zm1.69-8.83a.68.68,0,0,1-1,0,.84.84,0,0,1,0-1.09.68.68,0,0,1,1,0,.81.81,0,0,1,0,1.09Zm2.79,0a.65.65,0,0,1-.5.22.63.63,0,0,1-.5-.22.76.76,0,0,1-.2-.55.76.76,0,0,1,.2-.54.63.63,0,0,1,.5-.22.65.65,0,0,1,.5.22.84.84,0,0,1,0,1.09Z"/><path class="cls-1" d="M517.5,121.93V111.88h1.41v8.71H523v1.34Z"/><path class="cls-1" d="M526.12,121.93V111.88h1.4v8.71h4.14v1.34Z"/><path class="cls-1" d="M536.15,121.93l-3.92-10.05h1.58l3,7.72,3-7.72h1.55l-3.93,10.05Z"/><path class="cls-1" d="M544.15,121.93V111.88h1.4v10.05Z"/><path class="cls-1" d="M549.68,121.93V111.88h1.4v4.76l4.19-4.76h1.88l-3.54,4,3.63,6.07H555.5L552.58,117l-1.5,1.68v3.23Z"/><path class="cls-1" d="M565.83,117.52H561.7v3.07h4.42v1.34H560.3V111.88H566v1.34H561.7v3h4.13Z"/><path class="cls-1" d="M569.61,121.93V111.88h1L576,118.8v-6.92h1.4v10.05h-.78L571,114.75v7.18Z"/><path class="cls-1" d="M333.65,142.06a4.65,4.65,0,0,1-1.88-.41,5,5,0,0,1-1.59-1.08l1-1.14a3.62,3.62,0,0,0,1.15.92,3,3,0,0,0,1.39.37,2,2,0,0,0,1.3-.43,1.34,1.34,0,0,0,.51-1.07,1.77,1.77,0,0,0-1.28-1.65l-1.18-.47a4,4,0,0,1-1.65-1.08,2.36,2.36,0,0,1-.54-1.59,2.55,2.55,0,0,1,.83-1.9,2.9,2.9,0,0,1,2.05-.78,4.09,4.09,0,0,1,2.92,1.11l-.84,1.13a2.79,2.79,0,0,0-2.08-.9,1.59,1.59,0,0,0-1.06.34,1.2,1.2,0,0,0-.41.94,1.11,1.11,0,0,0,.3.77,2.75,2.75,0,0,0,1,.62l1.21.49a2.85,2.85,0,0,1,2.11,2.87,2.74,2.74,0,0,1-.89,2.11A3.35,3.35,0,0,1,333.65,142.06Z"/><path class="cls-1" d="M345,142.11a4.94,4.94,0,0,1-3.62-1.49,5.38,5.38,0,0,1,0-7.45,5.12,5.12,0,0,1,7.23,0,5.35,5.35,0,0,1,0,7.43A4.92,4.92,0,0,1,345,142.11Zm-2.63-2.47a3.63,3.63,0,0,0,5.26,0,4,4,0,0,0,0-5.49,3.61,3.61,0,0,0-5.25,0,4,4,0,0,0,0,5.49Zm1.69-8.83a.66.66,0,0,1-.5.22.63.63,0,0,1-.5-.22.84.84,0,0,1,0-1.09.63.63,0,0,1,.5-.22.66.66,0,0,1,.5.22.81.81,0,0,1,0,1.09Zm2.78,0a.67.67,0,0,1-1,0,.81.81,0,0,1,0-1.09.67.67,0,0,1,1,0,.81.81,0,0,1,0,1.09Z"/><path class="cls-1" d="M353.6,141.93V131.88h1L360,138.8v-6.92h1.4v10.05h-.77L355,134.75v7.18Z"/><path class="cls-1" d="M365.62,141.93V131.88h2.7a5.06,5.06,0,0,1,3.51,8.62,4.9,4.9,0,0,1-3.56,1.43Zm2.75-8.71H367v7.37h1.38a3.26,3.26,0,0,0,2.48-1.08,3.77,3.77,0,0,0,1-2.63,3.61,3.61,0,0,0-1-2.61A3.36,3.36,0,0,0,368.37,133.22Z"/><path class="cls-1" d="M375.28,141.93l4-10.05h1.26l4,10.05H383l-.61-1.55h-4.92l-.63,1.55Zm4.67-7.75L378,139h3.86Z"/><path class="cls-1" d="M393.42,137.56v-1.34h3.34v.7a5.15,5.15,0,0,1-5.2,5.17,4.92,4.92,0,0,1-3.67-1.5,5.42,5.42,0,0,1,0-7.42,4.92,4.92,0,0,1,3.67-1.5,5.37,5.37,0,0,1,2.11.42,5,5,0,0,1,1.72,1.16l-1,1.06a3.68,3.68,0,0,0-5.46-.17,4.07,4.07,0,0,0,0,5.48,3.5,3.5,0,0,0,2.67,1.14,3.62,3.62,0,0,0,2.41-.88,3.85,3.85,0,0,0,1.27-2.32Z"/><path class="cls-1" d="M404.93,139.62v-.88l3.5-6.86h1.47l-3.3,6.5h2.17v-1.69h1.4v1.69h1.21v1.24h-1.21v2.31h-1.4v-2.31Z"/><path class="cls-1" d="M420,141.93V131.88h1l5.44,6.92v-6.92h1.41v10.05h-.78l-5.64-7.18v7.18Z"/><path class="cls-1" d="M436.43,142.11a5,5,0,0,1-3.63-1.49,5.4,5.4,0,0,1,0-7.45,5.19,5.19,0,1,1,3.63,8.94Zm-2.63-2.47a3.63,3.63,0,0,0,5.26,0,4,4,0,0,0,0-5.49,3.61,3.61,0,0,0-5.25,0,4,4,0,0,0,0,5.49Z"/><path class="cls-1" d="M447.45,141.93l-3.92-10.05h1.58l3,7.72,3-7.72h1.55l-3.93,10.05Z"/><path class="cls-1" d="M461,137.52h-4.13v3.07h4.42v1.34h-5.83V131.88h5.75v1.34h-4.34v3H461Z"/><path class="cls-1" d="M464.76,141.93V131.88h1.44l3.24,5.35,3.29-5.35h1.38v10.05H472.7V134.5l0,0-3.24,5.2-3.17-5.12h-.09v7.38Z"/><path class="cls-1" d="M478.24,141.93V131.88h3.08a3.25,3.25,0,0,1,2.21.77,2.6,2.6,0,0,1,.87,2,2.39,2.39,0,0,1-1.19,2.16,2.65,2.65,0,0,1,1.08.9,2.44,2.44,0,0,1,.4,1.36,2.58,2.58,0,0,1-.88,2.05,3.27,3.27,0,0,1-2.24.78Zm2.93-8.71h-1.53v3.05h1.79a1.55,1.55,0,0,0,1.12-.44,1.58,1.58,0,0,0,.45-1.16,1.3,1.3,0,0,0-.5-1.06A2.12,2.12,0,0,0,481.17,133.22Zm.31,4.3h-1.84v3.07h1.75a2.12,2.12,0,0,0,1.39-.43,1.43,1.43,0,0,0,.51-1.15,1.39,1.39,0,0,0-.47-1.08A2,2,0,0,0,481.48,137.52Z"/><path class="cls-1" d="M493.75,137.52h-4.13v3.07H494v1.34h-5.83V131.88H494v1.34h-4.34v3h4.13Z"/><path class="cls-1" d="M497.52,141.93V131.88h3.73a3.13,3.13,0,0,1,2.26.87,3,3,0,0,1,.91,2.27,3,3,0,0,1-.75,2.1,2.94,2.94,0,0,1-1.92,1l2.91,3.83h-1.73L500,138.09h-1.12v3.84Zm3.54-8.71h-2.14v3.62h2.13a2,2,0,0,0,1.42-.49A1.71,1.71,0,0,0,503,135a1.69,1.69,0,0,0-.56-1.28A1.93,1.93,0,0,0,501.06,133.22Z"/><path class="cls-1" d="M513.38,141.93V131.88h1.4v4.76l4.19-4.76h1.88l-3.54,4,3.64,6.07H519.2L516.28,137l-1.5,1.68v3.23Z"/><path class="cls-1" d="M524,141.93V131.88h1.4v8.71h4.14v1.34Z"/><path class="cls-1" d="M539.2,141.93v-8.26l-1.89,1v-1.34l2.67-1.47h.62v10.11Z"/><path class="cls-1" d="M545.68,141.93v-8.26l-1.88,1v-1.34l2.67-1.47h.62v10.11Z"/><path class="cls-1" d="M550.51,137.54V136.3h3.92v1.24Z"/><path class="cls-1" d="M558.24,141.93v-8.26l-1.88,1v-1.34l2.66-1.47h.63v10.11Z"/><path class="cls-1" d="M565.87,142.08a3.06,3.06,0,0,1-2.19-.85,2.8,2.8,0,0,1-.94-2h1.4a1.51,1.51,0,0,0,.53,1.11,1.81,1.81,0,0,0,2.42,0,1.61,1.61,0,0,0,.5-1.2,1.67,1.67,0,0,0-.49-1.24,1.69,1.69,0,0,0-1.22-.48h-.58v-1.25h.57a1.58,1.58,0,0,0,1.16-.47,1.56,1.56,0,0,0,0-2.23,1.71,1.71,0,0,0-2.33,0,1.5,1.5,0,0,0-.46,1.12h-1.41a2.67,2.67,0,0,1,.87-2,3.27,3.27,0,0,1,4.34,0,2.64,2.64,0,0,1,.87,2,2.31,2.31,0,0,1-.43,1.35,2.33,2.33,0,0,1-1.11.85,2.45,2.45,0,0,1,1.61,2.35,2.83,2.83,0,0,1-.92,2.13A3,3,0,0,1,565.87,142.08Z"/></svg>