<svg id="Layer_1" data-name="Layer 1" xmlns="http://www.w3.org/2000/svg" viewBox="0 0 740 160"><defs><style>.cls-1{fill:#d4ac76;}</style></defs><title>text</title><path class="cls-1" d="M369.59,122.11a5,5,0,0,1-3.62-1.49,5.4,5.4,0,0,1,0-7.45,5.13,5.13,0,0,1,7.24,0,5.35,5.35,0,0,1,0,7.43A4.94,4.94,0,0,1,369.59,122.11ZM367,119.64a3.63,3.63,0,0,0,5.26,0,4,4,0,0,0,0-5.49,3.63,3.63,0,0,0-5.26,0,4,4,0,0,0,0,5.49Z"/><path class="cls-1" d="M378.23,121.93V111.88h2.69a5,5,0,0,1,5,5,4.84,4.84,0,0,1-1.46,3.62,4.91,4.91,0,0,1-3.57,1.43Zm2.75-8.71h-1.34v7.37H381a3.22,3.22,0,0,0,2.47-1.08,3.73,3.73,0,0,0,1-2.63,3.61,3.61,0,0,0-1-2.61A3.36,3.36,0,0,0,381,113.22Z"/><path class="cls-1" d="M394.9,117.52h-4.14v3.07h4.42v1.34h-5.82V111.88h5.75v1.34h-4.35v3h4.14Z"/><path class="cls-1" d="M398.67,121.93V111.88h1l5.44,6.92v-6.92h1.4v10.05h-.78l-5.64-7.18v7.18Z"/><path class="cls-1" d="M413.14,122.06a4.69,4.69,0,0,1-1.88-.41,5,5,0,0,1-1.59-1.08l1-1.14a3.67,3.67,0,0,0,1.16.92,3,3,0,0,0,1.39.37,2,2,0,0,0,1.3-.43,1.37,1.37,0,0,0,.5-1.07,1.77,1.77,0,0,0-1.27-1.65l-1.19-.47a4,4,0,0,1-1.64-1.08,2.36,2.36,0,0,1-.54-1.59,2.51,2.51,0,0,1,.83-1.9,2.86,2.86,0,0,1,2.05-.78,4.06,4.06,0,0,1,2.91,1.11l-.84,1.13a2.78,2.78,0,0,0-2.07-.9,1.62,1.62,0,0,0-1.07.34,1.2,1.2,0,0,0-.41.94,1.11,1.11,0,0,0,.3.77,2.75,2.75,0,0,0,1,.62l1.21.49a2.85,2.85,0,0,1,2.11,2.87,2.73,2.73,0,0,1-.88,2.11A3.39,3.39,0,0,1,413.14,122.06Z"/><path class="cls-1" d="M422.45,121.93l-3.92-10.05h1.58l3,7.72,3-7.72h1.55l-3.93,10.05Z"/><path class="cls-1" d="M428.54,121.93l4-10.05h1.27l3.95,10.05h-1.55l-.61-1.55h-4.92l-.62,1.55Zm3.63-11.12a.68.68,0,0,1-1,0,.84.84,0,0,1,0-1.09.68.68,0,0,1,1,0,.81.81,0,0,1,0,1.09Zm1,3.37L431.26,119h3.86Zm1.75-3.37a.65.65,0,0,1-.5.22.63.63,0,0,1-.5-.22.81.81,0,0,1,0-1.09.63.63,0,0,1,.5-.22.65.65,0,0,1,.5.22.84.84,0,0,1,0,1.09Z"/><path class="cls-1" d="M446.68,117.56v-1.34H450v.7a5.15,5.15,0,0,1-5.2,5.17,4.92,4.92,0,0,1-3.67-1.5,5.42,5.42,0,0,1,0-7.42,4.92,4.92,0,0,1,3.67-1.5,5.37,5.37,0,0,1,2.11.42,5,5,0,0,1,1.72,1.16l-1,1.06a3.68,3.68,0,0,0-5.46-.17,4.07,4.07,0,0,0,0,5.48,3.5,3.5,0,0,0,2.67,1.14,3.6,3.6,0,0,0,2.41-.88,3.85,3.85,0,0,0,1.27-2.32Z"/><path class="cls-1" d="M459,117.52h-4.13v3.07h4.42v1.34h-5.82V111.88h5.74v1.34h-4.34v3H459Z"/><path class="cls-1" d="M462.78,121.93V111.88h1l5.45,6.92v-6.92h1.4v10.05h-.78l-5.64-7.18v7.18Z"/><path class="cls-1" d="M482.85,122.08a3.39,3.39,0,0,1-2-.62,3,3,0,0,1-1.19-1.63l1.27-.49a2,2,0,0,0,2,1.4,2,2,0,0,0,2-2,1.89,1.89,0,0,0-.59-1.41,2,2,0,0,0-1.42-.57,1.86,1.86,0,0,0-1.42.62H480v-5.5h5.62v1.34h-4.22v2.7a2.63,2.63,0,0,1,1.42-.4,3.34,3.34,0,0,1,2.47.92,3.07,3.07,0,0,1,.94,2.3,3.2,3.2,0,0,1-1,2.36A3.33,3.33,0,0,1,482.85,122.08Z"/><path class="cls-1" d="M488,123.77l1.16-3.22,1.29.45-1.59,3.1Z"/><path class="cls-1" d="M498.17,113.22v-1.34h8.14v1.34h-3.37v8.71h-1.4v-8.71Z"/><path class="cls-1" d="M507,121.93l4-10.05h1.27l4,10.05h-1.55l-.61-1.55h-4.93l-.62,1.55Zm3.63-11.12a.67.67,0,0,1-.51.22.63.63,0,0,1-.49-.22.84.84,0,0,1,0-1.09.63.63,0,0,1,.49-.22.67.67,0,0,1,.51.22.84.84,0,0,1,0,1.09Zm1,3.37L509.67,119h3.86Zm1.75-3.37a.63.63,0,0,1-.5.22.65.65,0,0,1-.5-.22.84.84,0,0,1,0-1.09.65.65,0,0,1,.5-.22.63.63,0,0,1,.5.22.76.76,0,0,1,.2.54A.76.76,0,0,1,513.37,110.81Z"/><path class="cls-1" d="M519,121.93V111.88h3.07a3.28,3.28,0,0,1,2.22.77,2.6,2.6,0,0,1,.87,2,2.38,2.38,0,0,1-1.2,2.16,2.52,2.52,0,0,1,1.08.9,2.37,2.37,0,0,1,.41,1.36,2.61,2.61,0,0,1-.88,2.05,3.28,3.28,0,0,1-2.25.78Zm2.93-8.71h-1.53v3h1.79a1.52,1.52,0,0,0,1.57-1.6,1.28,1.28,0,0,0-.51-1.06A2.07,2.07,0,0,0,521.94,113.22Zm.31,4.3h-1.84v3.07h1.75a2.11,2.11,0,0,0,1.38-.43,1.43,1.43,0,0,0,.51-1.15,1.39,1.39,0,0,0-.46-1.08A2,2,0,0,0,522.25,117.52Z"/><path class="cls-1" d="M533.75,111.88h1.63l-3.35,6v4.05h-1.4v-4l-3.38-6.05h1.68l2.43,4.46Z"/><path class="cls-1" d="M338.37,142.06a4.65,4.65,0,0,1-1.88-.41,5,5,0,0,1-1.59-1.08l1-1.14a3.78,3.78,0,0,0,1.16.92,3,3,0,0,0,1.39.37,2,2,0,0,0,1.3-.43,1.33,1.33,0,0,0,.5-1.07,1.76,1.76,0,0,0-1.27-1.65l-1.18-.47a4,4,0,0,1-1.65-1.08,2.36,2.36,0,0,1-.54-1.59,2.55,2.55,0,0,1,.83-1.9,2.88,2.88,0,0,1,2.05-.78,4.1,4.1,0,0,1,2.92,1.11l-.85,1.13a2.77,2.77,0,0,0-2.07-.9,1.59,1.59,0,0,0-1.06.34,1.17,1.17,0,0,0-.41.94,1.11,1.11,0,0,0,.3.77,2.75,2.75,0,0,0,1,.62l1.2.49a2.86,2.86,0,0,1,2.12,2.87,2.74,2.74,0,0,1-.89,2.11A3.36,3.36,0,0,1,338.37,142.06Z"/><path class="cls-1" d="M349.68,142.11a4.94,4.94,0,0,1-3.62-1.49,5.38,5.38,0,0,1,0-7.45,5.12,5.12,0,0,1,7.23,0,5.35,5.35,0,0,1,0,7.43A4.92,4.92,0,0,1,349.68,142.11Zm-2.63-2.47a3.63,3.63,0,0,0,5.26,0,4,4,0,0,0,0-5.49,3.61,3.61,0,0,0-5.25,0,4,4,0,0,0,0,5.49Zm1.69-8.83a.66.66,0,0,1-.5.22.63.63,0,0,1-.5-.22.84.84,0,0,1,0-1.09.63.63,0,0,1,.5-.22.66.66,0,0,1,.5.22.84.84,0,0,1,0,1.09Zm2.78,0a.63.63,0,0,1-.5.22.66.66,0,0,1-.5-.22.84.84,0,0,1,0-1.09.66.66,0,0,1,.5-.22.63.63,0,0,1,.5.22.81.81,0,0,1,0,1.09Z"/><path class="cls-1" d="M358.32,141.93V131.88h1l5.44,6.92v-6.92h1.4v10.05h-.78l-5.64-7.18v7.18Z"/><path class="cls-1" d="M370.34,141.93V131.88H373a5,5,0,0,1,5,5,4.94,4.94,0,0,1-5,5.05Zm2.75-8.71h-1.34v7.37h1.38a3.24,3.24,0,0,0,2.47-1.08,3.73,3.73,0,0,0,1-2.63,3.61,3.61,0,0,0-1-2.61A3.36,3.36,0,0,0,373.09,133.22Z"/><path class="cls-1" d="M380,141.93l4-10.05h1.26l4,10.05h-1.55l-.61-1.55h-4.92l-.63,1.55Zm4.67-7.75-2,4.86h3.87Z"/><path class="cls-1" d="M398.13,137.56v-1.34h3.35v.7a5.15,5.15,0,0,1-5.2,5.17,4.92,4.92,0,0,1-3.67-1.5,5.42,5.42,0,0,1,0-7.42,4.92,4.92,0,0,1,3.67-1.5,5.37,5.37,0,0,1,2.11.42,5,5,0,0,1,1.72,1.16l-1,1.06a3.68,3.68,0,0,0-5.46-.17,4,4,0,0,0,0,5.48,3.5,3.5,0,0,0,2.67,1.14,3.62,3.62,0,0,0,2.41-.88,3.85,3.85,0,0,0,1.27-2.32Z"/><path class="cls-1" d="M412.65,142.08a3.09,3.09,0,0,1-2.19-.85,2.8,2.8,0,0,1-.94-2h1.41a1.5,1.5,0,0,0,.52,1.11,1.81,1.81,0,0,0,2.42,0,1.57,1.57,0,0,0,.5-1.2,1.66,1.66,0,0,0-1.71-1.72h-.58l0-1.25h.56a1.59,1.59,0,0,0,1.17-.47,1.58,1.58,0,0,0,0-2.23,1.62,1.62,0,0,0-1.18-.45,1.56,1.56,0,0,0-1.15.47,1.51,1.51,0,0,0-.47,1.12h-1.4a2.6,2.6,0,0,1,.87-2,3.25,3.25,0,0,1,4.33,0,2.64,2.64,0,0,1,.87,2,2.24,2.24,0,0,1-.43,1.35,2.31,2.31,0,0,1-1.1.85,2.45,2.45,0,0,1,1.61,2.35,2.86,2.86,0,0,1-.92,2.13A3.08,3.08,0,0,1,412.65,142.08Z"/><path class="cls-1" d="M424.55,141.93V131.88H430v1.34H426v3.15h3.61v1.34H426v4.22Z"/><path class="cls-1" d="M438.69,137.52h-4.13v3.07H439v1.34h-5.82V131.88h5.74v1.34h-4.34v3h4.13Z"/><path class="cls-1" d="M442.46,141.93V131.88h3.08a3.23,3.23,0,0,1,2.21.77,2.61,2.61,0,0,1,.88,2,2.38,2.38,0,0,1-1.2,2.16,2.65,2.65,0,0,1,1.08.9,2.36,2.36,0,0,1,.4,1.36,2.58,2.58,0,0,1-.88,2.05,3.23,3.23,0,0,1-2.24.78Zm2.94-8.71h-1.53v3.05h1.79a1.54,1.54,0,0,0,1.11-.44,1.58,1.58,0,0,0,.45-1.16,1.3,1.3,0,0,0-.5-1.06A2.11,2.11,0,0,0,445.4,133.22Zm.31,4.3h-1.84v3.07h1.75a2.11,2.11,0,0,0,1.38-.43,1.43,1.43,0,0,0,.51-1.15,1.39,1.39,0,0,0-.47-1.08A1.94,1.94,0,0,0,445.71,137.52Z"/><path class="cls-1" d="M452.44,141.93V131.88h3.73a3.15,3.15,0,0,1,2.26.87,3,3,0,0,1,.91,2.27,3,3,0,0,1-.75,2.1,3,3,0,0,1-1.93,1l2.91,3.83h-1.73L455,138.09h-1.12v3.84Zm3.54-8.71h-2.14v3.62H456a2,2,0,0,0,1.42-.49,1.74,1.74,0,0,0,.54-1.33,1.68,1.68,0,0,0-.55-1.28A2,2,0,0,0,456,133.22Z"/><path class="cls-1" d="M466.27,142.09a3.52,3.52,0,0,1-2.62-1.05,3.64,3.64,0,0,1-1-2.65v-6.51H464v6.42a2.59,2.59,0,0,0,.6,1.76,2.07,2.07,0,0,0,1.64.7,2.11,2.11,0,0,0,1.67-.69,2.55,2.55,0,0,0,.6-1.75v-6.44H470v6.51a3.61,3.61,0,0,1-1,2.65A3.52,3.52,0,0,1,466.27,142.09Z"/><path class="cls-1" d="M472.38,141.93l4-10.05h1.27l4,10.05h-1.55l-.61-1.55h-4.93l-.62,1.55Zm4.66-7.75-2,4.86H479Z"/><path class="cls-1" d="M484.43,141.93V131.88h3.73a3.15,3.15,0,0,1,2.26.87,3,3,0,0,1,.91,2.27,3,3,0,0,1-.75,2.1,2.94,2.94,0,0,1-1.92,1l2.91,3.83h-1.73L487,138.09h-1.12v3.84Zm3.54-8.71h-2.14v3.62H488a2,2,0,0,0,1.42-.49,1.71,1.71,0,0,0,.55-1.33,1.69,1.69,0,0,0-.56-1.28A1.94,1.94,0,0,0,488,133.22Z"/><path class="cls-1" d="M494.86,141.93V131.88h1.4v10.05Z"/><path class="cls-1" d="M505.81,141.93V131.88h1.41v4.76l4.18-4.76h1.89l-3.54,4,3.63,6.07h-1.74L508.71,137l-1.49,1.68v3.23Z"/><path class="cls-1" d="M516.43,141.93V131.88h1.41v8.71H522v1.34Z"/><path class="cls-1" d="M531.63,141.93v-8.26l-1.88,1v-1.34l2.66-1.47H533v10.11Z"/><path class="cls-1" d="M536.19,139.62v-.88l3.5-6.86h1.47l-3.3,6.5H540v-1.69h1.4v1.69h1.21v1.24h-1.21v2.31H540v-2.31Z"/><path class="cls-1" d="M545.31,137.54V136.3h3.92v1.24Z"/><path class="cls-1" d="M553,141.93v-8.26l-1.88,1v-1.34l2.66-1.47h.63v10.11Z"/><path class="cls-1" d="M561.23,142.08a3,3,0,0,1-2.21-.88,2.86,2.86,0,0,1-.89-2.12v-4.25a3,3,0,0,1,.89-2.25,3.28,3.28,0,0,1,4.35-.09,2.65,2.65,0,0,1,.87,2.06h-1.41a1.53,1.53,0,0,0-1.6-1.59,1.61,1.61,0,0,0-1.22.5,1.8,1.8,0,0,0-.48,1.3v2.14a2.22,2.22,0,0,1,1.73-.8,3.06,3.06,0,0,1,2.2.86,2.85,2.85,0,0,1,.89,2.12,2.82,2.82,0,0,1-.91,2.12A3.06,3.06,0,0,1,561.23,142.08Zm0-1.25a1.6,1.6,0,0,0,1.21-.52,1.68,1.68,0,0,0,.51-1.23,1.74,1.74,0,0,0-1.72-1.73,1.67,1.67,0,0,0-1.16.47,1.65,1.65,0,0,0-.51,1.26,1.73,1.73,0,0,0,.48,1.23A1.55,1.55,0,0,0,561.23,140.83Z"/></svg>