<svg id="Layer_1" data-name="Layer 1" xmlns="http://www.w3.org/2000/svg" viewBox="0 0 740 160"><defs><style>.cls-1{fill:#d80201;}</style></defs><title>text</title><path class="cls-1" d="M358.49,114.78h-1.3v5.84h-1.48V107.28h2.42a4.91,4.91,0,0,1,3.36.94,3.75,3.75,0,0,1,1.22,2.82C362.71,113.58,360.85,114.78,358.49,114.78Zm-.2-6.1h-1.1v4.74h1.22c1.56,0,2.84-.68,2.84-2.4S359.87,108.68,358.29,108.68Z"/><path class="cls-1" d="M370.27,120.62v-1.16a3.54,3.54,0,0,1-2.88,1.4c-2.48,0-4-2.08-4-4.42a4,4,0,0,1,4-4.32,3.51,3.51,0,0,1,2.9,1.38v-1.18h1.42v8.3Zm-2.68-7.22a2.83,2.83,0,0,0-2.74,3,2.86,2.86,0,0,0,2.74,3.12,2.83,2.83,0,0,0,2.76-3.12A2.8,2.8,0,0,0,367.59,113.4Z"/><path class="cls-1" d="M374.41,120.62V106h1.42v14.58Z"/><path class="cls-1" d="M384.89,120.62v-1.16a3.54,3.54,0,0,1-2.88,1.4c-2.48,0-4-2.08-4-4.42a4,4,0,0,1,4-4.32,3.51,3.51,0,0,1,2.9,1.38v-1.18h1.42v8.3Zm-2.68-7.22a2.83,2.83,0,0,0-2.74,3,2.86,2.86,0,0,0,2.74,3.12,2.83,2.83,0,0,0,2.76-3.12A2.8,2.8,0,0,0,382.21,113.4Z"/><path class="cls-1" d="M394.25,120.62v-4.9c0-1.3-.18-2.32-1.74-2.32-1.84,0-2.06,1.6-2.06,3.06v4.16H389v-8.3h1.42v1a3,3,0,0,1,4.76-.06,3.8,3.8,0,0,1,.48,2.2v5.16Z"/><path class="cls-1" d="M404.75,120.62v-1.16a3.54,3.54,0,0,1-2.88,1.4,4.11,4.11,0,0,1-4-4.4,4.06,4.06,0,0,1,4-4.34,3.56,3.56,0,0,1,2.9,1.38V106h1.42v14.58Zm-2.68-7.2a3.09,3.09,0,1,0,2.76,3A2.78,2.78,0,0,0,402.07,113.42Z"/><path class="cls-1" d="M409.85,116.76a2.69,2.69,0,0,0,2.64,2.8,2.86,2.86,0,0,0,2.56-1.72l1.2.66a4.14,4.14,0,0,1-3.8,2.36,4,4,0,0,1-4.1-4.34c0-2.4,1.5-4.4,4-4.4s4,2,4,4.36v.28Zm2.56-3.34a2.55,2.55,0,0,0-2.46,2.14h4.88A2.49,2.49,0,0,0,412.41,113.42Z"/><path class="cls-1" d="M422.41,113.76a1.26,1.26,0,0,0-.84-.28,1.54,1.54,0,0,0-.72.18c-.92.5-.92,1.68-.92,2.58v4.38h-1.42v-8.3h1.42v.9a2.22,2.22,0,0,1,1.88-1.1,2.36,2.36,0,0,1,1.28.34Z"/><path class="cls-1" d="M426.65,120.86a3,3,0,0,1-2.9-2.12l1.24-.52c.34.74.8,1.34,1.68,1.34a1.29,1.29,0,0,0,1.36-1.3c0-1.8-3.74-1.24-3.74-3.82a2.33,2.33,0,0,1,2.42-2.32,2.49,2.49,0,0,1,2.28,1.5l-1.18.62a1.33,1.33,0,0,0-1.16-.82,1,1,0,0,0-1,.92c0,1.46,3.84,1.08,3.84,3.8A2.73,2.73,0,0,1,426.65,120.86Z"/><path class="cls-1" d="M439.29,121.16l-4.08-8.84h1.6l2.48,5.58,2.46-5.58h1.6Z"/><path class="cls-1" d="M451.21,120.62v-1.16a3.54,3.54,0,0,1-2.88,1.4c-2.48,0-4-2.08-4-4.42a4,4,0,0,1,4-4.32,3.51,3.51,0,0,1,2.9,1.38v-1.18h1.42v8.3Zm-2.68-7.22a2.83,2.83,0,0,0-2.74,3,2.86,2.86,0,0,0,2.74,3.12,2.83,2.83,0,0,0,2.76-3.12A2.8,2.8,0,0,0,448.53,113.4Zm-1.66-2.78a1,1,0,0,1-1-1,1,1,0,1,1,1,1Zm3.48,0a1,1,0,0,1-1-1,1,1,0,1,1,1,1Z"/><path class="cls-1" d="M462.33,123.7a4,4,0,0,1-3.32,1.54,3.74,3.74,0,0,1-4-3.8h1.42A2.48,2.48,0,0,0,459,124c2,0,2.66-1.5,2.66-3.28v-1.22a3.75,3.75,0,0,1-2.92,1.38,4.38,4.38,0,0,1,.06-8.72,3.55,3.55,0,0,1,2.86,1.36v-1.16h1.44v8.12A5,5,0,0,1,462.33,123.7ZM459,113.4a2.85,2.85,0,0,0-2.72,3.14,2.8,2.8,0,0,0,2.72,3,3.1,3.1,0,0,0,0-6.16Z"/><path class="cls-1" d="M476.25,116.12l-2.74,3.12h5.6v1.38h-8.62l4.86-5.62c.9-1,2.3-2.54,2.3-4a2.66,2.66,0,0,0-5.32.16h-1.5a5.52,5.52,0,0,1,.28-1.5,4.17,4.17,0,0,1,8,1.36C479.13,113,477.49,114.72,476.25,116.12Z"/><path class="cls-1" d="M489.09,119.7a4.68,4.68,0,0,1-3.2.92h-3.32V107.28H485a4.6,4.6,0,0,1,3,.84,3.62,3.62,0,0,1,1.24,2.78,3.07,3.07,0,0,1-1.32,2.6,3.34,3.34,0,0,1,2.52,3.36A3.64,3.64,0,0,1,489.09,119.7Zm-3.88-11h-1.16v4.48h1.12a2.77,2.77,0,0,0,1.9-.5,2.25,2.25,0,0,0,.7-1.74C487.77,109.26,486.73,108.68,485.21,108.68Zm2.62,6.16a4.28,4.28,0,0,0-2.12-.4h-1.66v4.8h1.86a3.25,3.25,0,0,0,2.18-.58,2.34,2.34,0,0,0,.86-1.84A2.29,2.29,0,0,0,487.83,114.84Z"/><path class="cls-1" d="M492.85,123.66l-.94-.38,1.64-4.62,1.32.48Z"/><path class="cls-1" d="M506.51,121.42l-5.4-14.14h1.62l3.8,10.18,3.78-10.18h1.6Z"/><path class="cls-1" d="M513.47,116.76a2.69,2.69,0,0,0,2.64,2.8,2.86,2.86,0,0,0,2.56-1.72l1.2.66a4.14,4.14,0,0,1-3.8,2.36,4,4,0,0,1-4.1-4.34c0-2.4,1.5-4.4,4-4.4s4,2,4,4.36v.28Zm2.56-3.34a2.55,2.55,0,0,0-2.46,2.14h4.88A2.49,2.49,0,0,0,516,113.42Z"/><path class="cls-1" d="M529.11,123.7a4,4,0,0,1-3.32,1.54,3.74,3.74,0,0,1-4-3.8h1.42a2.48,2.48,0,0,0,2.64,2.52c2,0,2.66-1.5,2.66-3.28v-1.22a3.75,3.75,0,0,1-2.92,1.38,4.38,4.38,0,0,1,.06-8.72,3.55,3.55,0,0,1,2.86,1.36v-1.16h1.44v8.12A5,5,0,0,1,529.11,123.7Zm-3.34-10.3a2.85,2.85,0,0,0-2.72,3.14,2.8,2.8,0,0,0,2.72,3,3.1,3.1,0,0,0,0-6.16Z"/><path class="cls-1" d="M539,120.62v-1.16a3.54,3.54,0,0,1-2.88,1.4c-2.48,0-4-2.08-4-4.42a4,4,0,0,1,4-4.32,3.51,3.51,0,0,1,2.9,1.38v-1.18h1.42v8.3Zm-2.68-7.22a2.83,2.83,0,0,0-2.74,3,2.86,2.86,0,0,0,2.74,3.12,2.83,2.83,0,0,0,2.76-3.12A2.8,2.8,0,0,0,536.29,113.4Z"/><path class="cls-1" d="M329.77,141.86a4.08,4.08,0,0,1-4.12-3.44l1.44-.4a2.71,2.71,0,0,0,2.72,2.44,2.63,2.63,0,0,0,2.68-2.64c0-3.14-6.16-2.4-6.16-6.32a3.52,3.52,0,0,1,3.74-3.44,3.8,3.8,0,0,1,3.44,2.08l-1.18.78a2.47,2.47,0,0,0-2.28-1.46,2.12,2.12,0,0,0-2.22,2c0,2.76,6.16,2,6.16,6.26A4.11,4.11,0,0,1,329.77,141.86Z"/><path class="cls-1" d="M340.21,141.86a4.37,4.37,0,1,1,4.38-4.36A4.34,4.34,0,0,1,340.21,141.86Zm0-7.44a3.07,3.07,0,1,0,2.94,3.08A2.91,2.91,0,0,0,340.19,134.42Zm-1.72-2.8a1,1,0,0,1-1-1,1,1,0,1,1,1,1Zm3.48,0a1,1,0,0,1-1-1,1,1,0,1,1,1,1Z"/><path class="cls-1" d="M352,141.62v-4.9c0-1.3-.18-2.32-1.74-2.32-1.84,0-2.06,1.6-2.06,3.06v4.16h-1.42v-8.3h1.42v1a3,3,0,0,1,4.76-.06,3.8,3.8,0,0,1,.48,2.2v5.16Z"/><path class="cls-1" d="M362.49,141.62v-1.16a3.54,3.54,0,0,1-2.88,1.4,4.11,4.11,0,0,1-4-4.4,4.06,4.06,0,0,1,4-4.34,3.56,3.56,0,0,1,2.9,1.38V127h1.42v14.58Zm-2.68-7.2a3.09,3.09,0,1,0,2.76,3A2.78,2.78,0,0,0,359.81,134.42Z"/><path class="cls-1" d="M373,141.62v-1.16a3.54,3.54,0,0,1-2.88,1.4c-2.48,0-4-2.08-4-4.42a4,4,0,0,1,4-4.32,3.51,3.51,0,0,1,2.9,1.38v-1.18h1.42v8.3Zm-2.68-7.22a2.83,2.83,0,0,0-2.74,3,2.86,2.86,0,0,0,2.74,3.12,2.83,2.83,0,0,0,2.76-3.12A2.8,2.8,0,0,0,370.29,134.4Z"/><path class="cls-1" d="M384.09,144.7a4,4,0,0,1-3.32,1.54,3.74,3.74,0,0,1-4-3.8h1.42a2.48,2.48,0,0,0,2.64,2.52c2,0,2.66-1.5,2.66-3.28v-1.22a3.75,3.75,0,0,1-2.92,1.38,4.38,4.38,0,0,1,.06-8.72,3.55,3.55,0,0,1,2.86,1.36v-1.16h1.44v8.12A5,5,0,0,1,384.09,144.7Zm-3.34-10.3a2.85,2.85,0,0,0-2.72,3.14,2.8,2.8,0,0,0,2.72,3,3.1,3.1,0,0,0,0-6.16Z"/><path class="cls-1" d="M396.55,141.62V129.68h-2.22l.78-1.4H398v13.34Z"/><path class="cls-1" d="M407.33,141.84a4.63,4.63,0,0,1-4.08-2.38l1.18-.84a3.51,3.51,0,0,0,3,1.84,3.31,3.31,0,0,0,3.3-3.38,3.24,3.24,0,0,0-3.28-3.32,4.7,4.7,0,0,0-2.58.92l1.94-6.4h5.3v1.4h-4.26l-.88,2.84a3.16,3.16,0,0,1,.76-.08,4.42,4.42,0,0,1,4.48,4.62A4.73,4.73,0,0,1,407.33,141.84Z"/><path class="cls-1" d="M422.53,141.86a3,3,0,0,1-2.9-2.12l1.24-.52c.34.74.8,1.34,1.68,1.34a1.29,1.29,0,0,0,1.36-1.3c0-1.8-3.74-1.24-3.74-3.82a2.33,2.33,0,0,1,2.42-2.32,2.49,2.49,0,0,1,2.28,1.5l-1.18.62a1.33,1.33,0,0,0-1.16-.82,1,1,0,0,0-1,.92c0,1.46,3.84,1.08,3.84,3.8A2.73,2.73,0,0,1,422.53,141.86Z"/><path class="cls-1" d="M428.25,137.76a2.69,2.69,0,0,0,2.64,2.8,2.86,2.86,0,0,0,2.56-1.72l1.2.66a4.14,4.14,0,0,1-3.8,2.36,4,4,0,0,1-4.1-4.34c0-2.4,1.5-4.4,4-4.4s4,2,4,4.36v.28Zm2.56-3.34a2.55,2.55,0,0,0-2.46,2.14h4.88A2.49,2.49,0,0,0,430.81,134.42Z"/><path class="cls-1" d="M441.23,141.86a3.58,3.58,0,0,1-2.9-1.4v5.84h-1.42v-13h1.42v1.16a3.59,3.59,0,0,1,2.88-1.36,4.11,4.11,0,0,1,4,4.4A4.06,4.06,0,0,1,441.23,141.86ZM441,134.4a2.86,2.86,0,0,0-2.76,3.12,2.76,2.76,0,1,0,5.5,0A2.86,2.86,0,0,0,441,134.4Z"/><path class="cls-1" d="M448.83,134.64v7h-1.44v-7h-.86v-1.32h.86v-3h1.44v3h1.46v1.32Z"/><path class="cls-1" d="M452.63,137.76a2.69,2.69,0,0,0,2.64,2.8,2.86,2.86,0,0,0,2.56-1.72l1.2.66a4.14,4.14,0,0,1-3.8,2.36,4,4,0,0,1-4.1-4.34c0-2.4,1.5-4.4,4-4.4s4,2,4,4.36v.28Zm2.56-3.34a2.55,2.55,0,0,0-2.46,2.14h4.88A2.49,2.49,0,0,0,455.19,134.42Z"/><path class="cls-1" d="M470.75,141.62v-5c0-1.06-.18-2.18-1.5-2.18-1.5,0-1.78,1.4-1.78,2.6v4.62h-1.42V136.7c0-1-.22-2.3-1.52-2.3a1.72,1.72,0,0,0-1.5.9,4,4,0,0,0-.32,1.8v4.52h-1.42v-8.3h1.42v.88a2.37,2.37,0,0,1,2.06-1.08,2.53,2.53,0,0,1,2.28,1.34,2.83,2.83,0,0,1,4.66-.22,3.88,3.88,0,0,1,.46,2.12v5.26Z"/><path class="cls-1" d="M479.19,141.86a3.54,3.54,0,0,1-2.88-1.4v1.16h-1.42V127h1.42v7.46a3.56,3.56,0,0,1,2.9-1.38,4.06,4.06,0,0,1,4,4.34A4.11,4.11,0,0,1,479.19,141.86Zm-.2-7.44a2.79,2.79,0,0,0-2.76,3.06,2.76,2.76,0,1,0,2.76-3.06Z"/><path class="cls-1" d="M486.33,137.76a2.69,2.69,0,0,0,2.64,2.8,2.86,2.86,0,0,0,2.56-1.72l1.2.66a4.14,4.14,0,0,1-3.8,2.36,4,4,0,0,1-4.1-4.34c0-2.4,1.5-4.4,4-4.4s4,2,4,4.36v.28Zm2.56-3.34a2.55,2.55,0,0,0-2.46,2.14h4.88A2.49,2.49,0,0,0,488.89,134.42Z"/><path class="cls-1" d="M498.89,134.76a1.26,1.26,0,0,0-.84-.28,1.54,1.54,0,0,0-.72.18c-.92.5-.92,1.68-.92,2.58v4.38H495v-8.3h1.42v.9a2.22,2.22,0,0,1,1.88-1.1,2.36,2.36,0,0,1,1.28.34Z"/><path class="cls-1" d="M511,141.62l-3.36-3.78-.36.36v3.42h-1.42V127h1.42v9.34l3-3.06h1.9l-3.56,3.52,4.22,4.78Z"/><path class="cls-1" d="M514.31,141.62V127h1.42v14.58Z"/><path class="cls-1" d="M527.39,141.62V129.68h-2.22l.78-1.4h2.92v13.34Z"/><path class="cls-1" d="M542.13,139.44v2.18h-1.48v-2.18h-6.84l8.32-11.9v10.54h1.64v1.36Zm-1.48-7.38-4.22,6h4.22Z"/><path class="cls-1" d="M544.77,138v-1.28h3.62V138Z"/><path class="cls-1" d="M553.69,141.62V129.68h-2.22l.78-1.4h2.92v13.34Z"/><path class="cls-1" d="M565.41,141.84a4.59,4.59,0,0,1-4.62-4.52,5.34,5.34,0,0,1,1.1-3.06l4.54-6.3,1.12.84-3.06,4.26a4.19,4.19,0,0,1,1.22-.18,4.34,4.34,0,0,1,4.28,4.4A4.6,4.6,0,0,1,565.41,141.84Zm0-7.64a3.13,3.13,0,1,0,3.12,3.12A3.12,3.12,0,0,0,565.39,134.2Z"/></svg>