<svg id="Layer_1" data-name="Layer 1" xmlns="http://www.w3.org/2000/svg" viewBox="0 0 740 160"><defs><style>.cls-1{fill:#d4ac76;}</style></defs><title>text</title><path class="cls-1" d="M313,113.22v-1.34h8.14v1.34H317.8v8.71h-1.4v-8.71Z"/><path class="cls-1" d="M324,121.93V111.88h3.72a3.16,3.16,0,0,1,2.27.87,3.3,3.3,0,0,1,.16,4.37,3,3,0,0,1-1.93,1l2.91,3.83h-1.73l-2.88-3.84h-1.12v3.84Zm3.54-8.71h-2.14v3.62h2.12a2.05,2.05,0,0,0,1.43-.49,1.74,1.74,0,0,0,.54-1.33,1.68,1.68,0,0,0-.55-1.28A2,2,0,0,0,327.51,113.22Z"/><path class="cls-1" d="M339.39,111.88H341l-3.34,6v4.05h-1.41v-4l-3.38-6.05h1.68l2.43,4.46Z"/><path class="cls-1" d="M349.65,117.56v-1.34H353v.7a5.15,5.15,0,0,1-5.2,5.17,4.92,4.92,0,0,1-3.66-1.5,5.42,5.42,0,0,1,0-7.42,4.92,4.92,0,0,1,3.66-1.5,5.42,5.42,0,0,1,2.12.42,5.07,5.07,0,0,1,1.72,1.16l-1,1.06a3.57,3.57,0,0,0-2.8-1.3,3.52,3.52,0,0,0-2.66,1.13,4,4,0,0,0,0,5.48,3.49,3.49,0,0,0,2.66,1.14,3.6,3.6,0,0,0,2.41-.88,3.75,3.75,0,0,0,1.27-2.32Z"/><path class="cls-1" d="M354.85,121.93l4-10.05h1.27l3.95,10.05h-1.55l-.61-1.55H357l-.62,1.55Zm4.67-7.75L357.57,119h3.86Z"/><path class="cls-1" d="M366.9,121.93V111.88h3.73a3.17,3.17,0,0,1,2.27.87,3.28,3.28,0,0,1,.15,4.37,2.94,2.94,0,0,1-1.92,1l2.91,3.83h-1.73l-2.88-3.84h-1.12v3.84Zm3.55-8.71h-2.14v3.62h2.12a2,2,0,0,0,1.42-.49,1.71,1.71,0,0,0,.55-1.33,1.68,1.68,0,0,0-.55-1.28A2,2,0,0,0,370.45,113.22Z"/><path class="cls-1" d="M377.33,121.93V111.88h1l5.44,6.92v-6.92h1.4v10.05h-.77l-5.65-7.18v7.18Z"/><path class="cls-1" d="M391.8,122.06a4.69,4.69,0,0,1-1.88-.41,5,5,0,0,1-1.59-1.08l1-1.14a3.67,3.67,0,0,0,1.16.92,3,3,0,0,0,1.39.37,2,2,0,0,0,1.3-.43,1.37,1.37,0,0,0,.5-1.07,1.76,1.76,0,0,0-1.27-1.65l-1.19-.47a4,4,0,0,1-1.64-1.08,2.36,2.36,0,0,1-.54-1.59,2.55,2.55,0,0,1,.83-1.9,2.86,2.86,0,0,1,2.05-.78,4.1,4.1,0,0,1,2.92,1.11L394,114a2.78,2.78,0,0,0-2.07-.9,1.62,1.62,0,0,0-1.07.34,1.2,1.2,0,0,0-.41.94,1.11,1.11,0,0,0,.3.77,2.75,2.75,0,0,0,1,.62l1.21.49a2.84,2.84,0,0,1,2.11,2.87,2.73,2.73,0,0,1-.88,2.11A3.39,3.39,0,0,1,391.8,122.06Z"/><path class="cls-1" d="M401.11,121.93l-3.92-10.05h1.58l3,7.72,3-7.72h1.55l-3.93,10.05Z"/><path class="cls-1" d="M407.2,121.93l4-10.05h1.27l3.95,10.05h-1.55l-.61-1.55h-4.92l-.62,1.55Zm3.63-11.12a.68.68,0,0,1-1,0,.84.84,0,0,1,0-1.09.68.68,0,0,1,1,0,.81.81,0,0,1,0,1.09Zm1,3.37L409.92,119h3.86Zm1.75-3.37a.65.65,0,0,1-.5.22.63.63,0,0,1-.5-.22.76.76,0,0,1-.2-.55.76.76,0,0,1,.2-.54.63.63,0,0,1,.5-.22.65.65,0,0,1,.5.22.84.84,0,0,1,0,1.09Z"/><path class="cls-1" d="M425.34,117.56v-1.34h3.34v.7a5.15,5.15,0,0,1-5.2,5.17,4.92,4.92,0,0,1-3.67-1.5,5.42,5.42,0,0,1,0-7.42,4.92,4.92,0,0,1,3.67-1.5,5.37,5.37,0,0,1,2.11.42,5,5,0,0,1,1.72,1.16l-1,1.06a3.68,3.68,0,0,0-5.46-.17,4.07,4.07,0,0,0,0,5.48,3.5,3.5,0,0,0,2.67,1.14,3.6,3.6,0,0,0,2.41-.88,3.85,3.85,0,0,0,1.27-2.32Z"/><path class="cls-1" d="M437.67,117.52h-4.13v3.07H438v1.34h-5.82V111.88h5.74v1.34h-4.34v3h4.13Z"/><path class="cls-1" d="M441.45,121.93V111.88h1l5.45,6.92v-6.92h1.4v10.05h-.78l-5.64-7.18v7.18Z"/><path class="cls-1" d="M460.05,121.93v-8.26l-1.89,1v-1.34l2.67-1.47h.62v10.11Z"/><path class="cls-1" d="M465.39,121.93V111.88h3.07a3.26,3.26,0,0,1,2.22.77,2.6,2.6,0,0,1,.87,2,2.39,2.39,0,0,1-1.19,2.16,2.65,2.65,0,0,1,1.08.9,2.44,2.44,0,0,1,.4,1.36,2.61,2.61,0,0,1-.88,2.05,3.27,3.27,0,0,1-2.24.78Zm2.93-8.71h-1.53v3h1.79a1.55,1.55,0,0,0,1.12-.44,1.58,1.58,0,0,0,.45-1.16,1.3,1.3,0,0,0-.5-1.06A2.12,2.12,0,0,0,468.32,113.22Zm.31,4.3h-1.84v3.07h1.75a2.12,2.12,0,0,0,1.39-.43,1.46,1.46,0,0,0,.5-1.15,1.39,1.39,0,0,0-.46-1.08A2,2,0,0,0,468.63,117.52Z"/><path class="cls-1" d="M474,123.77l1.15-3.22,1.29.45-1.58,3.1Z"/><path class="cls-1" d="M484.12,121.93l4-10.05h1.27l4,10.05h-1.56l-.6-1.55H486.3l-.62,1.55Zm4.67-7.75-2,4.86h3.86Zm1-3a1.3,1.3,0,0,1-1,.4,1.37,1.37,0,1,1,0-2.73,1.3,1.3,0,0,1,1,.4,1.36,1.36,0,0,1,0,1.93Zm-1-.41a.49.49,0,0,0,.38-.16.58.58,0,0,0,.17-.4.54.54,0,0,0-.17-.39.49.49,0,0,0-.38-.16.54.54,0,0,0-.4.16.57.57,0,0,0-.16.39.61.61,0,0,0,.16.4A.54.54,0,0,0,488.79,110.78Z"/><path class="cls-1" d="M496.17,121.93V111.88h1.41v4.76l4.18-4.76h1.89l-3.54,4,3.63,6.07H502L499.07,117l-1.49,1.68v3.23Z"/><path class="cls-1" d="M512.33,117.52H508.2v3.07h4.42v1.34H506.8V111.88h5.74v1.34H508.2v3h4.13Z"/><path class="cls-1" d="M516.1,121.93V111.88h3.73a3.16,3.16,0,0,1,2.27.87A3,3,0,0,1,523,115a3,3,0,0,1-.76,2.1,2.94,2.94,0,0,1-1.92,1l2.91,3.83h-1.73l-2.88-3.84h-1.12v3.84Zm3.55-8.71h-2.14v3.62h2.12a2.05,2.05,0,0,0,1.43-.49,1.74,1.74,0,0,0,.54-1.33,1.68,1.68,0,0,0-.55-1.28A2,2,0,0,0,519.65,113.22Z"/><path class="cls-1" d="M529,122.06a4.65,4.65,0,0,1-1.88-.41,5,5,0,0,1-1.59-1.08l1-1.14a3.62,3.62,0,0,0,1.15.92,3,3,0,0,0,1.39.37,2,2,0,0,0,1.3-.43,1.33,1.33,0,0,0,.5-1.07,1.76,1.76,0,0,0-1.27-1.65l-1.18-.47a4,4,0,0,1-1.65-1.08,2.36,2.36,0,0,1-.54-1.59,2.55,2.55,0,0,1,.83-1.9,2.9,2.9,0,0,1,2-.78,4.09,4.09,0,0,1,2.92,1.11L531.2,114a2.79,2.79,0,0,0-2.08-.9,1.59,1.59,0,0,0-1.06.34,1.2,1.2,0,0,0-.41.94,1.11,1.11,0,0,0,.3.77,2.75,2.75,0,0,0,1,.62l1.21.49a2.87,2.87,0,0,1,2.11,2.87,2.74,2.74,0,0,1-.89,2.11A3.36,3.36,0,0,1,529,122.06Z"/><path class="cls-1" d="M535.73,121.93V111.88h3.08a3.23,3.23,0,0,1,2.21.77,2.61,2.61,0,0,1,.88,2,2.38,2.38,0,0,1-1.2,2.16,2.65,2.65,0,0,1,1.08.9,2.36,2.36,0,0,1,.4,1.36,2.58,2.58,0,0,1-.88,2.05,3.23,3.23,0,0,1-2.24.78Zm2.94-8.71h-1.53v3h1.79a1.54,1.54,0,0,0,1.11-.44,1.58,1.58,0,0,0,.45-1.16,1.3,1.3,0,0,0-.5-1.06A2.11,2.11,0,0,0,538.67,113.22Zm.31,4.3h-1.84v3.07h1.75a2.11,2.11,0,0,0,1.38-.43,1.43,1.43,0,0,0,.51-1.15,1.39,1.39,0,0,0-.47-1.08A1.94,1.94,0,0,0,539,117.52Z"/><path class="cls-1" d="M551.24,117.52h-4.13v3.07h4.42v1.34h-5.82V111.88h5.74v1.34h-4.34v3h4.13Z"/><path class="cls-1" d="M555,121.93V111.88h3.73a3.13,3.13,0,0,1,2.26.87,3,3,0,0,1,.92,2.27,3,3,0,0,1-.76,2.1,2.94,2.94,0,0,1-1.92,1l2.91,3.83h-1.73l-2.88-3.84h-1.12v3.84Zm3.54-8.71h-2.13v3.62h2.12a2,2,0,0,0,1.42-.49,1.71,1.71,0,0,0,.55-1.33,1.68,1.68,0,0,0-.55-1.28A2,2,0,0,0,558.55,113.22Z"/><path class="cls-1" d="M571.85,117.56v-1.34h3.34v.7a5.15,5.15,0,0,1-5.2,5.17,4.92,4.92,0,0,1-3.67-1.5,5.42,5.42,0,0,1,0-7.42,4.92,4.92,0,0,1,3.67-1.5,5.37,5.37,0,0,1,2.11.42,5,5,0,0,1,1.72,1.16l-1,1.06a3.68,3.68,0,0,0-5.46-.17,4.07,4.07,0,0,0,0,5.48,3.5,3.5,0,0,0,2.67,1.14,3.6,3.6,0,0,0,2.41-.88,3.85,3.85,0,0,0,1.27-2.32Z"/><path class="cls-1" d="M577.05,121.93l4-10.05h1.27l4,10.05h-1.55l-.61-1.55h-4.93l-.62,1.55Zm4.66-7.75-2,4.86h3.86Z"/><path class="cls-1" d="M326.69,142.06a4.69,4.69,0,0,1-1.88-.41,5,5,0,0,1-1.59-1.08l1-1.14a3.67,3.67,0,0,0,1.16.92,3,3,0,0,0,1.39.37,2,2,0,0,0,1.3-.43,1.37,1.37,0,0,0,.5-1.07,1.76,1.76,0,0,0-1.27-1.65l-1.19-.47a4,4,0,0,1-1.64-1.08,2.36,2.36,0,0,1-.54-1.59,2.55,2.55,0,0,1,.83-1.9,2.86,2.86,0,0,1,2.05-.78,4.1,4.1,0,0,1,2.92,1.11l-.85,1.13a2.78,2.78,0,0,0-2.07-.9,1.62,1.62,0,0,0-1.07.34,1.2,1.2,0,0,0-.41.94,1.11,1.11,0,0,0,.3.77,2.75,2.75,0,0,0,1,.62l1.21.49a2.84,2.84,0,0,1,2.11,2.87,2.73,2.73,0,0,1-.88,2.11A3.39,3.39,0,0,1,326.69,142.06Z"/><path class="cls-1" d="M338,142.11a5,5,0,0,1-3.62-1.49,5.4,5.4,0,0,1,0-7.45,5.13,5.13,0,0,1,7.24,0,5.35,5.35,0,0,1,0,7.43A4.94,4.94,0,0,1,338,142.11Zm-2.63-2.47a3.63,3.63,0,0,0,5.26,0,4,4,0,0,0,0-5.49,3.63,3.63,0,0,0-5.26,0,4,4,0,0,0,0,5.49Zm1.69-8.83a.63.63,0,0,1-.5.22.61.61,0,0,1-.49-.22.76.76,0,0,1-.2-.55.76.76,0,0,1,.2-.54.61.61,0,0,1,.49-.22.63.63,0,0,1,.5.22.81.81,0,0,1,0,1.09Zm2.79,0a.65.65,0,0,1-.5.22.63.63,0,0,1-.5-.22.84.84,0,0,1,0-1.09.63.63,0,0,1,.5-.22.65.65,0,0,1,.5.22.84.84,0,0,1,0,1.09Z"/><path class="cls-1" d="M346.64,141.93V131.88h1l5.45,6.92v-6.92h1.4v10.05h-.78l-5.64-7.18v7.18Z"/><path class="cls-1" d="M358.67,141.93V131.88h2.69a5,5,0,0,1,5,5,4.88,4.88,0,0,1-1.46,3.62,4.94,4.94,0,0,1-3.57,1.43Zm2.74-8.71h-1.34v7.37h1.38a3.24,3.24,0,0,0,2.48-1.08,3.72,3.72,0,0,0,1-2.63,3.6,3.6,0,0,0-1-2.61A3.37,3.37,0,0,0,361.41,133.22Z"/><path class="cls-1" d="M368.33,141.93l4-10.05h1.27l4,10.05H376l-.61-1.55H370.5l-.62,1.55Zm4.66-7.75L371,139h3.86Z"/><path class="cls-1" d="M386.46,137.56v-1.34h3.34v.7a5,5,0,0,1-1.56,3.71,5.08,5.08,0,0,1-3.64,1.46,4.92,4.92,0,0,1-3.66-1.5,5.42,5.42,0,0,1,0-7.42,4.92,4.92,0,0,1,3.66-1.5,5.33,5.33,0,0,1,2.11.42,5,5,0,0,1,1.73,1.16l-1,1.06a3.57,3.57,0,0,0-2.8-1.3,3.52,3.52,0,0,0-2.66,1.13,4,4,0,0,0,0,5.48,3.49,3.49,0,0,0,2.66,1.14,3.6,3.6,0,0,0,2.41-.88,3.8,3.8,0,0,0,1.27-2.32Z"/><path class="cls-1" d="M398,141.93V141l4-5.3a2,2,0,0,0,.56-1.28,1.46,1.46,0,0,0-.44-1.07A1.55,1.55,0,0,0,401,133a1.4,1.4,0,0,0-1.1.48,1.91,1.91,0,0,0-.46,1.27H398a3,3,0,0,1,.84-2.13,2.82,2.82,0,0,1,2.13-.87,3,3,0,0,1,2.14.78,2.64,2.64,0,0,1,.83,2,3.61,3.61,0,0,1-1.05,2.22l-3.13,4h4.31v1.25Z"/><path class="cls-1" d="M409.76,142.08a3.09,3.09,0,0,1-2.19-.85,2.83,2.83,0,0,1-.93-2H408a1.47,1.47,0,0,0,.53,1.11,1.81,1.81,0,0,0,2.42,0,1.61,1.61,0,0,0,.5-1.2,1.68,1.68,0,0,0-.5-1.24,1.66,1.66,0,0,0-1.22-.48h-.57v-1.25h.56a1.59,1.59,0,0,0,1.17-.47,1.56,1.56,0,0,0,0-2.23,1.62,1.62,0,0,0-1.18-.45,1.58,1.58,0,0,0-1.15.47,1.51,1.51,0,0,0-.47,1.12h-1.4a2.6,2.6,0,0,1,.87-2,3.25,3.25,0,0,1,4.33,0,2.64,2.64,0,0,1,.87,2,2.24,2.24,0,0,1-.43,1.35,2.31,2.31,0,0,1-1.1.85,2.39,2.39,0,0,1,1.17.9,2.46,2.46,0,0,1,.44,1.45,2.86,2.86,0,0,1-.92,2.13A3.06,3.06,0,0,1,409.76,142.08Z"/><path class="cls-1" d="M424.28,142.06a4.69,4.69,0,0,1-1.88-.41,5.08,5.08,0,0,1-1.59-1.08l1-1.14a3.78,3.78,0,0,0,1.16.92,3,3,0,0,0,1.39.37,2,2,0,0,0,1.3-.43,1.37,1.37,0,0,0,.5-1.07,1.76,1.76,0,0,0-1.27-1.65l-1.19-.47a4,4,0,0,1-1.64-1.08,2.36,2.36,0,0,1-.54-1.59,2.55,2.55,0,0,1,.83-1.9,2.86,2.86,0,0,1,2.05-.78,4.1,4.1,0,0,1,2.92,1.11l-.85,1.13a2.78,2.78,0,0,0-2.07-.9,1.62,1.62,0,0,0-1.07.34,1.2,1.2,0,0,0-.41.94,1.11,1.11,0,0,0,.3.77,2.75,2.75,0,0,0,1,.62l1.21.49a2.84,2.84,0,0,1,2.11,2.87,2.73,2.73,0,0,1-.88,2.11A3.37,3.37,0,0,1,424.28,142.06Z"/><path class="cls-1" d="M436.54,137.52H432.4v3.07h4.42v1.34H431V131.88h5.75v1.34H432.4v3h4.14Z"/><path class="cls-1" d="M440.31,141.93V131.88h3.43a3.17,3.17,0,0,1,2.33.93,3.27,3.27,0,0,1,.93,2.39,3.13,3.13,0,0,1-1,2.35,3.22,3.22,0,0,1-2.36.94h-2v3.44Zm3.33-8.71h-1.93v3.93h1.94a1.94,1.94,0,0,0,1.41-.53,1.91,1.91,0,0,0,.54-1.42,1.94,1.94,0,0,0-.56-1.42A1.85,1.85,0,0,0,443.64,133.22Z"/><path class="cls-1" d="M449.07,133.22v-1.34h8.14v1.34h-3.37v8.71h-1.4v-8.71Z"/><path class="cls-1" d="M465.54,137.52h-4.13v3.07h4.42v1.34H460V131.88h5.75v1.34h-4.34v3h4.13Z"/><path class="cls-1" d="M469.31,141.93V131.88h1.44l3.24,5.35,3.29-5.35h1.38v10.05h-1.41V134.5l0,0-3.24,5.2-3.17-5.12h-.09v7.38Z"/><path class="cls-1" d="M482.79,141.93V131.88h3.08a3.25,3.25,0,0,1,2.21.77,2.6,2.6,0,0,1,.87,2,2.39,2.39,0,0,1-1.19,2.16,2.65,2.65,0,0,1,1.08.9,2.44,2.44,0,0,1,.4,1.36,2.58,2.58,0,0,1-.88,2.05,3.27,3.27,0,0,1-2.24.78Zm2.93-8.71h-1.53v3.05H486a1.55,1.55,0,0,0,1.12-.44,1.58,1.58,0,0,0,.45-1.16,1.3,1.3,0,0,0-.5-1.06A2.12,2.12,0,0,0,485.72,133.22Zm.31,4.3h-1.84v3.07h1.75a2.12,2.12,0,0,0,1.39-.43,1.42,1.42,0,0,0,.5-1.15,1.39,1.39,0,0,0-.46-1.08A2,2,0,0,0,486,137.52Z"/><path class="cls-1" d="M498.3,137.52h-4.13v3.07h4.42v1.34h-5.83V131.88h5.75v1.34h-4.34v3h4.13Z"/><path class="cls-1" d="M502.07,141.93V131.88h3.73a3.13,3.13,0,0,1,2.26.87A3,3,0,0,1,509,135a3,3,0,0,1-.75,2.1,2.94,2.94,0,0,1-1.92,1l2.91,3.83h-1.73l-2.89-3.84h-1.12v3.84Zm3.54-8.71h-2.14v3.62h2.13a2,2,0,0,0,1.42-.49,1.71,1.71,0,0,0,.55-1.33,1.69,1.69,0,0,0-.56-1.28A1.93,1.93,0,0,0,505.61,133.22Z"/><path class="cls-1" d="M517.93,141.93V131.88h1.4v4.76l4.19-4.76h1.88l-3.54,4,3.64,6.07h-1.75L520.83,137l-1.5,1.68v3.23Z"/><path class="cls-1" d="M528.55,141.93V131.88H530v8.71h4.14v1.34Z"/><path class="cls-1" d="M543.75,141.93v-8.26l-1.89,1v-1.34l2.67-1.47h.62v10.11Z"/><path class="cls-1" d="M548.39,141.93V141l4-5.3a2,2,0,0,0,.55-1.28,1.43,1.43,0,0,0-.44-1.07,1.51,1.51,0,0,0-1.12-.43,1.43,1.43,0,0,0-1.11.48,2,2,0,0,0-.46,1.27h-1.4a3,3,0,0,1,.83-2.13,2.84,2.84,0,0,1,2.14-.87,3,3,0,0,1,2.13.78,2.61,2.61,0,0,1,.84,2,3.61,3.61,0,0,1-1,2.22l-3.14,4h4.32v1.25Z"/><path class="cls-1" d="M557.36,137.54V136.3h3.92v1.24Z"/><path class="cls-1" d="M565.09,141.93v-8.26l-1.88,1v-1.34l2.67-1.47h.62v10.11Z"/><path class="cls-1" d="M569.66,139.62v-.88l3.49-6.86h1.47l-3.3,6.5h2.17v-1.69h1.41v1.69h1.2v1.24h-1.2v2.31h-1.41v-2.31Z"/></svg>