<svg id="Layer_1" data-name="Layer 1" xmlns="http://www.w3.org/2000/svg" viewBox="0 0 740 160"><defs><style>.cls-1{fill:#d4ac76;}</style></defs><title>text</title><path class="cls-1" d="M360.88,43.18l-6.8-17.78h3.47l4.88,12.78,4.82-12.78h3.37L363.9,43.18Z"/><path class="cls-1" d="M374.83,43.18V25.4h3.33V43.18Z"/><path class="cls-1" d="M389.07,43.41a8.55,8.55,0,0,1-3.35-.7,8.77,8.77,0,0,1-2.88-1.94L385,38.23a6.46,6.46,0,0,0,2,1.59,5,5,0,0,0,2.34.62,2.88,2.88,0,0,0,1.9-.61,1.91,1.91,0,0,0,.74-1.53,2.65,2.65,0,0,0-2-2.47L388,35a7.61,7.61,0,0,1-3-2,4.53,4.53,0,0,1-1-3,4.62,4.62,0,0,1,1.51-3.38,5.16,5.16,0,0,1,3.77-1.48,7.65,7.65,0,0,1,5.47,2l-2,2.48a4.58,4.58,0,0,0-3.51-1.54,2.38,2.38,0,0,0-1.59.51,1.58,1.58,0,0,0-.6,1.25,1.66,1.66,0,0,0,.47,1.22,4.71,4.71,0,0,0,1.53.92l2.07.83q4,1.58,4,5.13a5,5,0,0,1-1.67,3.89A6.48,6.48,0,0,1,389.07,43.41Z"/><path class="cls-1" d="M400.31,43.18V25.4h2.34l8.75,11.18V25.4h3.33V43.18H412.5l-8.86-11.32V43.18Z"/><path class="cls-1" d="M421.08,43.18V25.4h3.33V43.18Z"/><path class="cls-1" d="M430.76,43.18V25.4h2.34l8.75,11.18V25.4h3.33V43.18H443L434.1,31.86V43.18Z"/><path class="cls-1" d="M462.39,35.75v-3h6.37l0,1.52a9.12,9.12,0,0,1-1.3,4.71,9,9,0,0,1-3.37,3.28,9.19,9.19,0,0,1-4.53,1.16,9.2,9.2,0,0,1-9.25-9.21A9.22,9.22,0,0,1,459.58,25a8.77,8.77,0,0,1,6.62,2.87l-2.28,2.25a5.75,5.75,0,0,0-4.37-1.92,5.66,5.66,0,0,0-4.25,1.74,6.29,6.29,0,0,0,0,8.57,5.43,5.43,0,0,0,4,1.74,6.31,6.31,0,0,0,4-1.23,5.64,5.64,0,0,0,2.09-3.27Z"/><path class="cls-1" d="M478.59,43.41a8.55,8.55,0,0,1-3.35-.7,8.76,8.76,0,0,1-2.88-1.94l2.12-2.53a6.44,6.44,0,0,0,2,1.59,5,5,0,0,0,2.34.62,2.87,2.87,0,0,0,1.89-.61,1.91,1.91,0,0,0,.74-1.53,2.65,2.65,0,0,0-2-2.47l-2-.79a7.61,7.61,0,0,1-3-2,4.53,4.53,0,0,1-1-3,4.61,4.61,0,0,1,1.51-3.38,5.16,5.16,0,0,1,3.77-1.48,7.66,7.66,0,0,1,5.47,2l-2,2.48a4.58,4.58,0,0,0-3.51-1.54,2.38,2.38,0,0,0-1.59.51,1.58,1.58,0,0,0-.6,1.25,1.66,1.66,0,0,0,.47,1.22,4.73,4.73,0,0,0,1.53.92l2.07.83q4,1.58,4,5.13a5,5,0,0,1-1.67,3.89A6.48,6.48,0,0,1,478.59,43.41Z"/><path class="cls-1" d="M500.77,43.18V35.75h-7.61v7.43h-3.33V25.4h3.33v7.15h7.61V25.4h3.33V43.18Z"/><path class="cls-1" d="M521.74,41.58a7.25,7.25,0,0,1-9.73,0,6.3,6.3,0,0,1-1.92-4.7V25.4h3.33v11a4.08,4.08,0,0,0,.92,2.74,3.54,3.54,0,0,0,5.07,0,4,4,0,0,0,.92-2.71V25.4h3.33V36.88A6.3,6.3,0,0,1,521.74,41.58Z"/><path class="cls-1" d="M534.41,43.41a8.55,8.55,0,0,1-3.35-.7,8.76,8.76,0,0,1-2.88-1.94l2.12-2.53a6.44,6.44,0,0,0,2,1.59,5,5,0,0,0,2.34.62,2.87,2.87,0,0,0,1.89-.61,1.91,1.91,0,0,0,.74-1.53,2.65,2.65,0,0,0-2-2.47l-2-.79a7.61,7.61,0,0,1-3-2,4.53,4.53,0,0,1-1-3,4.61,4.61,0,0,1,1.51-3.38,5.16,5.16,0,0,1,3.77-1.48,7.66,7.66,0,0,1,5.47,2l-2,2.48a4.58,4.58,0,0,0-3.51-1.54,2.38,2.38,0,0,0-1.59.51,1.58,1.58,0,0,0-.6,1.25,1.66,1.66,0,0,0,.47,1.22,4.73,4.73,0,0,0,1.53.92l2.07.83q4,1.58,4,5.13a5,5,0,0,1-1.67,3.89A6.48,6.48,0,0,1,534.41,43.41Z"/><path class="cls-1" d="M353.63,70.78V53H357V70.78Z"/><path class="cls-1" d="M377.26,71a8.55,8.55,0,0,1-3.35-.7A8.77,8.77,0,0,1,371,68.36l2.12-2.53a6.44,6.44,0,0,0,2,1.59,5,5,0,0,0,2.34.62,2.88,2.88,0,0,0,1.9-.61,1.91,1.91,0,0,0,.74-1.53,2.64,2.64,0,0,0-2-2.47l-2-.79a7.61,7.61,0,0,1-3-2,4.53,4.53,0,0,1-1-3,4.62,4.62,0,0,1,1.51-3.38,5.16,5.16,0,0,1,3.77-1.48,7.66,7.66,0,0,1,5.47,2l-2,2.48a4.58,4.58,0,0,0-3.51-1.54,2.38,2.38,0,0,0-1.59.51,1.58,1.58,0,0,0-.6,1.25,1.66,1.66,0,0,0,.47,1.22,4.71,4.71,0,0,0,1.53.92l2.07.83q4,1.58,4,5.13a5,5,0,0,1-1.67,3.89A6.48,6.48,0,0,1,377.26,71Z"/><path class="cls-1" d="M386.73,56.2V53h14.65v3.2h-5.66V70.78h-3.33V56.2Z"/><path class="cls-1" d="M422.42,61.88a9.23,9.23,0,1,1-2.7-6.52A8.85,8.85,0,0,1,422.42,61.88ZM409,66.12a5.85,5.85,0,0,0,8.36,0,6.11,6.11,0,0,0,0-8.51,5.85,5.85,0,0,0-8.36,0,6.14,6.14,0,0,0,0,8.51Z"/><path class="cls-1" d="M442.8,68.27a8.87,8.87,0,0,1-6.59,2.81,9,9,0,0,1-6.57-2.69,9.2,9.2,0,0,1,0-13,9.26,9.26,0,0,1,13.12.07l-2.35,2.28a5.57,5.57,0,0,0-4.22-1.84A5.64,5.64,0,0,0,432,57.61a6.14,6.14,0,0,0,0,8.51,5.87,5.87,0,0,0,8.48-.1Z"/><path class="cls-1" d="M447.63,70.78V53h3.08v7.84L457.52,53h4.12l-6.27,7.09,6.41,10.69h-3.84l-4.84-8.12-2.38,2.69v5.43Z"/><path class="cls-1" d="M477.44,70.78V63.35h-7.61v7.43h-3.33V53h3.33v7.15h7.61V53h3.33V70.78Z"/><path class="cls-1" d="M504.35,61.88a9.23,9.23,0,1,1-2.7-6.52A8.85,8.85,0,0,1,504.35,61.88Zm-13.42,4.24a5.85,5.85,0,0,0,8.36,0,6.11,6.11,0,0,0,0-8.51,5.85,5.85,0,0,0-8.36,0,6.14,6.14,0,0,0,0,8.51Z"/><path class="cls-1" d="M509.46,70.78V53h3.33V67.58h6.53v3.2Z"/><path class="cls-1" d="M524.13,70.78V53h3.22l5.5,8.76L538.41,53h3.5V70.78h-3.33V58.61l-.27,0-5.52,8.51-5.38-8.4h.05V70.78Z"/></svg>