<svg id="Layer_1" data-name="Layer 1" xmlns="http://www.w3.org/2000/svg" viewBox="0 0 740 160"><defs><style>.cls-1{fill:#d4ac76;}</style></defs><title>text</title><path class="cls-1" d="M352.68,121.93V111.88h1.41v4.76l4.18-4.76h1.89l-3.55,4,3.64,6.07h-1.74L355.58,117l-1.49,1.68v3.23Z"/><path class="cls-1" d="M362.35,121.93l4-10.05h1.27l4,10.05h-1.56l-.6-1.55h-4.93l-.62,1.55Zm4.67-7.75L365.07,119h3.86Z"/><path class="cls-1" d="M374.4,121.93V111.88h1l5.45,6.92v-6.92h1.4v10.05h-.78l-5.64-7.18v7.18Z"/><path class="cls-1" d="M385.26,121.93l4-10.05h1.27l4,10.05H393l-.61-1.55h-4.93l-.62,1.55Zm4.67-7.75L388,119h3.86Z"/><path class="cls-1" d="M397.31,121.93V111.88h1.4v8.71h4.14v1.34Z"/><path class="cls-1" d="M407.34,121.93l-3.92-10.05H405l3,7.72,3-7.72h1.55l-3.93,10.05Z"/><path class="cls-1" d="M413.43,121.93l4-10.05h1.26l4,10.05h-1.55l-.61-1.55h-4.92l-.63,1.55Zm3.63-11.12a.66.66,0,0,1-.5.22.65.65,0,0,1-.5-.22.84.84,0,0,1,0-1.09.65.65,0,0,1,.5-.22.66.66,0,0,1,.5.22.81.81,0,0,1,0,1.09Zm1,3.37-2,4.86H420Zm1.75-3.37a.66.66,0,0,1-.5.22.63.63,0,0,1-.5-.22.81.81,0,0,1,0-1.09.63.63,0,0,1,.5-.22.66.66,0,0,1,.5.22.84.84,0,0,1,0,1.09Z"/><path class="cls-1" d="M431.57,117.56v-1.34h3.34v.7a5.15,5.15,0,0,1-5.2,5.17,4.92,4.92,0,0,1-3.67-1.5,5.42,5.42,0,0,1,0-7.42,4.92,4.92,0,0,1,3.67-1.5,5.37,5.37,0,0,1,2.11.42,5,5,0,0,1,1.72,1.16l-1,1.06a3.68,3.68,0,0,0-5.46-.17,4.07,4.07,0,0,0,0,5.48,3.5,3.5,0,0,0,2.67,1.14,3.62,3.62,0,0,0,2.41-.88,3.85,3.85,0,0,0,1.27-2.32Z"/><path class="cls-1" d="M443.9,117.52h-4.13v3.07h4.42v1.34h-5.83V111.88h5.75v1.34h-4.34v3h4.13Z"/><path class="cls-1" d="M447.67,121.93V111.88h1l5.44,6.92v-6.92h1.41v10.05h-.78l-5.64-7.18v7.18Z"/><path class="cls-1" d="M467.65,122.08a3,3,0,0,1-2.22-.9,3,3,0,0,1-.92-2.2,2.78,2.78,0,0,1,.39-1.44,3.07,3.07,0,0,1,1.06-1.06,2.46,2.46,0,0,1-1.19-2.11,2.43,2.43,0,0,1,.85-1.89,2.87,2.87,0,0,1,2-.77,2.91,2.91,0,0,1,2,.78,2.47,2.47,0,0,1-.34,4,3,3,0,0,1,1.07,1,2.71,2.71,0,0,1,.4,1.45,3,3,0,0,1-.92,2.2A3.07,3.07,0,0,1,467.65,122.08Zm0-1.34a1.65,1.65,0,0,0,1.24-.52,1.72,1.72,0,0,0,.51-1.25,1.64,1.64,0,0,0-.51-1.23,1.7,1.7,0,0,0-1.24-.49,1.67,1.67,0,0,0-1.23.49,1.64,1.64,0,0,0-.51,1.23,1.72,1.72,0,0,0,.51,1.25A1.62,1.62,0,0,0,467.65,120.74Zm0-7.78a1.42,1.42,0,0,0-1,.42,1.39,1.39,0,0,0-.43,1,1.46,1.46,0,0,0,.42,1.06,1.44,1.44,0,0,0,1.06.43,1.46,1.46,0,0,0,1-.43,1.43,1.43,0,0,0,.43-1.06,1.38,1.38,0,0,0-.43-1A1.42,1.42,0,0,0,467.65,113Z"/><path class="cls-1" d="M472.53,123.77l1.15-3.22L475,121l-1.58,3.1Z"/><path class="cls-1" d="M483.8,121.93V111.88h2.69a5,5,0,0,1,5,5A4.88,4.88,0,0,1,490,120.5a4.94,4.94,0,0,1-3.57,1.43Zm2.75-8.71H485.2v7.37h1.38a3.24,3.24,0,0,0,2.48-1.08,3.73,3.73,0,0,0,1-2.63,3.61,3.61,0,0,0-1-2.61A3.36,3.36,0,0,0,486.55,113.22Z"/><path class="cls-1" d="M493.46,121.93l4-10.05h1.27l4,10.05h-1.55l-.61-1.55h-4.93l-.62,1.55Zm4.67-7.75-2,4.86H500Z"/><path class="cls-1" d="M505.51,121.93V111.88h1.4v8.71h4.14v1.34Z"/><path class="cls-1" d="M513.09,121.93l4-10.05h1.27l4,10.05H520.8l-.61-1.55h-4.93l-.62,1.55Zm4.66-7.75-2,4.86h3.86Z"/><path class="cls-1" d="M525.14,121.93V111.88h3.73a3.15,3.15,0,0,1,2.26.87A3,3,0,0,1,532,115a3,3,0,0,1-.75,2.1,2.94,2.94,0,0,1-1.92,1l2.91,3.83h-1.73l-2.89-3.84h-1.12v3.84Zm3.54-8.71h-2.14v3.62h2.13a2,2,0,0,0,1.42-.49,1.71,1.71,0,0,0,.55-1.33,1.69,1.69,0,0,0-.56-1.28A1.94,1.94,0,0,0,528.68,113.22Z"/><path class="cls-1" d="M540.1,122.11a5,5,0,0,1-3.63-1.49,5.4,5.4,0,0,1,0-7.45,5.13,5.13,0,0,1,7.24,0,5.35,5.35,0,0,1,0,7.43A4.93,4.93,0,0,1,540.1,122.11Zm-2.64-2.47a3.64,3.64,0,0,0,5.27,0,4,4,0,0,0,0-5.49,3.63,3.63,0,0,0-5.26,0,4,4,0,0,0,0,5.49Zm1.69-8.83a.67.67,0,0,1-1,0,.76.76,0,0,1-.2-.55.76.76,0,0,1,.2-.54.67.67,0,0,1,1,0,.81.81,0,0,1,0,1.09Zm2.79,0a.63.63,0,0,1-.5.22.65.65,0,0,1-.5-.22.84.84,0,0,1,0-1.09.65.65,0,0,1,.5-.22.63.63,0,0,1,.5.22.76.76,0,0,1,.2.54A.76.76,0,0,1,541.94,110.81Z"/><path class="cls-1" d="M327.21,142.06a4.65,4.65,0,0,1-1.88-.41,5,5,0,0,1-1.59-1.08l1-1.14a3.78,3.78,0,0,0,1.16.92,3,3,0,0,0,1.39.37,2,2,0,0,0,1.3-.43,1.33,1.33,0,0,0,.5-1.07,1.76,1.76,0,0,0-1.27-1.65l-1.18-.47A4,4,0,0,1,325,136a2.36,2.36,0,0,1-.54-1.59,2.55,2.55,0,0,1,.83-1.9,2.88,2.88,0,0,1,2.05-.78,4.1,4.1,0,0,1,2.92,1.11l-.85,1.13a2.77,2.77,0,0,0-2.07-.9,1.59,1.59,0,0,0-1.06.34,1.17,1.17,0,0,0-.41.94,1.11,1.11,0,0,0,.3.77,2.75,2.75,0,0,0,1,.62l1.2.49a2.86,2.86,0,0,1,2.12,2.87,2.74,2.74,0,0,1-.89,2.11A3.36,3.36,0,0,1,327.21,142.06Z"/><path class="cls-1" d="M338.52,142.11a4.94,4.94,0,0,1-3.62-1.49,5.38,5.38,0,0,1,0-7.45,5.12,5.12,0,0,1,7.23,0,5.35,5.35,0,0,1,0,7.43A4.92,4.92,0,0,1,338.52,142.11Zm-2.63-2.47a3.63,3.63,0,0,0,5.26,0,4,4,0,0,0,0-5.49,3.61,3.61,0,0,0-5.25,0,4,4,0,0,0,0,5.49Zm1.69-8.83a.66.66,0,0,1-.5.22.63.63,0,0,1-.5-.22.84.84,0,0,1,0-1.09.63.63,0,0,1,.5-.22.66.66,0,0,1,.5.22.84.84,0,0,1,0,1.09Zm2.78,0a.63.63,0,0,1-.5.22.66.66,0,0,1-.5-.22.84.84,0,0,1,0-1.09.66.66,0,0,1,.5-.22.63.63,0,0,1,.5.22.76.76,0,0,1,.2.54A.76.76,0,0,1,340.36,130.81Z"/><path class="cls-1" d="M347.16,141.93V131.88h1l5.44,6.92v-6.92H355v10.05h-.78l-5.64-7.18v7.18Z"/><path class="cls-1" d="M359.18,141.93V131.88h2.69a5,5,0,0,1,5,5,4.94,4.94,0,0,1-5,5.05Zm2.75-8.71h-1.34v7.37H362a3.24,3.24,0,0,0,2.47-1.08,3.73,3.73,0,0,0,1-2.63,3.61,3.61,0,0,0-1-2.61A3.36,3.36,0,0,0,361.93,133.22Z"/><path class="cls-1" d="M368.84,141.93l4-10.05h1.26l4,10.05h-1.55l-.61-1.55H371l-.63,1.55Zm4.67-7.75-2,4.86h3.87Z"/><path class="cls-1" d="M387,137.56v-1.34h3.35v.7a5.15,5.15,0,0,1-5.2,5.17,4.92,4.92,0,0,1-3.67-1.5,5.42,5.42,0,0,1,0-7.42,4.92,4.92,0,0,1,3.67-1.5,5.37,5.37,0,0,1,2.11.42,5,5,0,0,1,1.72,1.16l-1,1.06a3.68,3.68,0,0,0-5.46-.17,4,4,0,0,0,0,5.48,3.5,3.5,0,0,0,2.67,1.14,3.62,3.62,0,0,0,2.41-.88,3.78,3.78,0,0,0,1.26-2.32Z"/><path class="cls-1" d="M398.51,141.93V141l4-5.3a2,2,0,0,0,.56-1.28,1.43,1.43,0,0,0-.44-1.07,1.52,1.52,0,0,0-1.12-.43,1.43,1.43,0,0,0-1.11.48,2,2,0,0,0-.46,1.27h-1.4a2.94,2.94,0,0,1,.83-2.13,2.84,2.84,0,0,1,2.14-.87,3,3,0,0,1,2.13.78,2.61,2.61,0,0,1,.84,2,3.57,3.57,0,0,1-1.06,2.22l-3.13,4h4.32v1.25Z"/><path class="cls-1" d="M406.76,139.62v-.88l3.5-6.86h1.47l-3.31,6.5h2.18v-1.69H412v1.69h1.21v1.24H412v2.31h-1.4v-2.31Z"/><path class="cls-1" d="M421.83,141.93V131.88h1l5.44,6.92v-6.92h1.4v10.05h-.78l-5.64-7.18v7.18Z"/><path class="cls-1" d="M438.25,142.11a5,5,0,0,1-3.62-1.49,5.4,5.4,0,0,1,0-7.45,5.13,5.13,0,0,1,7.24,0,5.35,5.35,0,0,1,0,7.43A4.94,4.94,0,0,1,438.25,142.11Zm-2.63-2.47a3.63,3.63,0,0,0,5.26,0,4,4,0,0,0,0-5.49,3.63,3.63,0,0,0-5.26,0,4,4,0,0,0,0,5.49Z"/><path class="cls-1" d="M449.28,141.93l-3.92-10.05h1.57l3,7.72,3-7.72h1.55l-3.93,10.05Z"/><path class="cls-1" d="M462.82,137.52h-4.14v3.07h4.42v1.34h-5.82V131.88H463v1.34h-4.34v3h4.14Z"/><path class="cls-1" d="M466.59,141.93V131.88H468l3.24,5.35,3.29-5.35h1.37v10.05h-1.4V134.5l0,0-3.24,5.2-3.17-5.12H468v7.38Z"/><path class="cls-1" d="M480.07,141.93V131.88h3.07a3.28,3.28,0,0,1,2.22.77,2.6,2.6,0,0,1,.87,2,2.38,2.38,0,0,1-1.2,2.16,2.52,2.52,0,0,1,1.08.9,2.37,2.37,0,0,1,.41,1.36,2.61,2.61,0,0,1-.88,2.05,3.28,3.28,0,0,1-2.25.78Zm2.93-8.71h-1.53v3.05h1.79a1.52,1.52,0,0,0,1.57-1.6,1.28,1.28,0,0,0-.51-1.06A2.07,2.07,0,0,0,483,133.22Zm.31,4.3h-1.84v3.07h1.75a2.11,2.11,0,0,0,1.38-.43,1.43,1.43,0,0,0,.51-1.15,1.39,1.39,0,0,0-.46-1.08A2,2,0,0,0,483.31,137.52Z"/><path class="cls-1" d="M495.58,137.52h-4.14v3.07h4.42v1.34H490V131.88h5.74v1.34h-4.34v3h4.14Z"/><path class="cls-1" d="M499.35,141.93V131.88h3.73a3.15,3.15,0,0,1,2.26.87,3,3,0,0,1,.91,2.27,3,3,0,0,1-.75,2.1,3,3,0,0,1-1.93,1l2.91,3.83h-1.73l-2.88-3.84h-1.12v3.84Zm3.54-8.71h-2.14v3.62h2.13a2,2,0,0,0,1.42-.49,1.74,1.74,0,0,0,.54-1.33,1.68,1.68,0,0,0-.55-1.28A2,2,0,0,0,502.89,133.22Z"/><path class="cls-1" d="M515.21,141.93V131.88h1.4v4.76l4.19-4.76h1.88l-3.54,4,3.63,6.07H521L518.11,137l-1.5,1.68v3.23Z"/><path class="cls-1" d="M525.83,141.93V131.88h1.4v8.71h4.14v1.34Z"/><path class="cls-1" d="M541,141.93v-8.26l-1.88,1v-1.34l2.67-1.47h.62v10.11Z"/><path class="cls-1" d="M548.65,142.08a3.06,3.06,0,0,1-2.19-.85,2.8,2.8,0,0,1-.94-2h1.41a1.46,1.46,0,0,0,.52,1.11,1.81,1.81,0,0,0,2.42,0,1.61,1.61,0,0,0,.5-1.2,1.67,1.67,0,0,0-.49-1.24,1.69,1.69,0,0,0-1.22-.48h-.58l0-1.25h.56a1.59,1.59,0,0,0,1.17-.47,1.58,1.58,0,0,0,0-2.23,1.64,1.64,0,0,0-1.18-.45,1.56,1.56,0,0,0-1.15.47,1.51,1.51,0,0,0-.47,1.12h-1.4a2.6,2.6,0,0,1,.87-2,3.25,3.25,0,0,1,4.33,0,2.64,2.64,0,0,1,.87,2,2.35,2.35,0,0,1-1.54,2.2,2.45,2.45,0,0,1,1.61,2.35,2.85,2.85,0,0,1-.91,2.13A3.08,3.08,0,0,1,548.65,142.08Z"/><path class="cls-1" d="M554.6,137.54V136.3h3.92v1.24Z"/><path class="cls-1" d="M562.33,141.93v-8.26l-1.88,1v-1.34l2.66-1.47h.63v10.11Z"/><path class="cls-1" d="M570.28,142.08a3.39,3.39,0,0,1-2-.62,3,3,0,0,1-1.19-1.63l1.27-.49a2,2,0,0,0,1.95,1.4,2,2,0,0,0,2-2,1.86,1.86,0,0,0-.59-1.41,2,2,0,0,0-1.42-.57,1.86,1.86,0,0,0-1.42.62h-1.4v-5.5h5.63v1.34h-4.23v2.7a2.63,2.63,0,0,1,1.42-.4,3.38,3.38,0,0,1,2.48.92,3.11,3.11,0,0,1,.94,2.3,3.17,3.17,0,0,1-1,2.36A3.33,3.33,0,0,1,570.28,142.08Z"/></svg>