<svg id="Layer_1" data-name="Layer 1" xmlns="http://www.w3.org/2000/svg" viewBox="0 0 740 160"><defs><style>.cls-1{fill:#d80201;}</style></defs><title>text</title><path class="cls-1" d="M333.92,119.7a4.68,4.68,0,0,1-3.2.92H327.4V107.28h2.4a4.6,4.6,0,0,1,3,.84,3.62,3.62,0,0,1,1.24,2.78,3.07,3.07,0,0,1-1.32,2.6,3.34,3.34,0,0,1,2.52,3.36A3.64,3.64,0,0,1,333.92,119.7Zm-3.88-11h-1.16v4.48H330a2.77,2.77,0,0,0,1.9-.5,2.25,2.25,0,0,0,.7-1.74C332.6,109.26,331.56,108.68,330,108.68Zm2.62,6.16a4.28,4.28,0,0,0-2.12-.4h-1.66v4.8h1.86a3.25,3.25,0,0,0,2.18-.58,2.34,2.34,0,0,0,.86-1.84A2.29,2.29,0,0,0,332.66,114.84Z"/><path class="cls-1" d="M338.34,110.2a1,1,0,1,1,1-1A1,1,0,0,1,338.34,110.2Zm-.72,15.1v-13H339v13Z"/><path class="cls-1" d="M345.64,120.86A4.37,4.37,0,1,1,350,116.5,4.34,4.34,0,0,1,345.64,120.86Zm0-7.44a3.07,3.07,0,1,0,2.94,3.08A2.91,2.91,0,0,0,345.62,113.42Zm-1.72-2.8a1,1,0,0,1-1-1,1,1,0,1,1,1,1Zm3.48,0a1,1,0,0,1-1-1,1,1,0,1,1,1,1Z"/><path class="cls-1" d="M356.1,113.76a1.26,1.26,0,0,0-.84-.28,1.54,1.54,0,0,0-.72.18c-.92.5-.92,1.68-.92,2.58v4.38H352.2v-8.3h1.42v.9a2.22,2.22,0,0,1,1.88-1.1,2.36,2.36,0,0,1,1.28.34Z"/><path class="cls-1" d="M363.24,120.62l-3.36-3.78-.36.36v3.42H358.1V106h1.42v9.34l3-3.06h1.9l-3.56,3.52,4.22,4.78Z"/><path class="cls-1" d="M371.76,120.62v-5c0-1.24-.3-2.16-1.72-2.16-1.86,0-2.1,1.56-2.1,3.06v4.14h-1.42V106h1.42v7.24a2.94,2.94,0,0,1,2.38-1.16,2.89,2.89,0,0,1,2.38,1.14,3.89,3.89,0,0,1,.48,2.22v5.14Z"/><path class="cls-1" d="M382.24,120.62v-1.16a3.54,3.54,0,0,1-2.88,1.4c-2.48,0-4-2.08-4-4.42a4,4,0,0,1,4-4.32,3.51,3.51,0,0,1,2.9,1.38v-1.18h1.42v8.3Zm-2.68-7.22a2.83,2.83,0,0,0-2.74,3,2.86,2.86,0,0,0,2.74,3.12,2.83,2.83,0,0,0,2.76-3.12A2.8,2.8,0,0,0,379.56,113.4Z"/><path class="cls-1" d="M393.36,123.7a4,4,0,0,1-3.32,1.54,3.74,3.74,0,0,1-4-3.8h1.42a2.48,2.48,0,0,0,2.64,2.52c2,0,2.66-1.5,2.66-3.28v-1.22a3.75,3.75,0,0,1-2.92,1.38,4.38,4.38,0,0,1,.06-8.72,3.55,3.55,0,0,1,2.86,1.36v-1.16h1.44v8.12A5,5,0,0,1,393.36,123.7ZM390,113.4a2.85,2.85,0,0,0-2.72,3.14,2.8,2.8,0,0,0,2.72,3,3.1,3.1,0,0,0,0-6.16Z"/><path class="cls-1" d="M399.12,120.86a3,3,0,0,1-2.9-2.12l1.24-.52c.34.74.8,1.34,1.68,1.34a1.29,1.29,0,0,0,1.36-1.3c0-1.8-3.74-1.24-3.74-3.82a2.33,2.33,0,0,1,2.42-2.32,2.49,2.49,0,0,1,2.28,1.5l-1.18.62a1.33,1.33,0,0,0-1.16-.82,1,1,0,0,0-1,.92c0,1.46,3.84,1.08,3.84,3.8A2.73,2.73,0,0,1,399.12,120.86Z"/><path class="cls-1" d="M406.76,121.16l-4.08-8.84h1.6l2.48,5.58,2.46-5.58h1.6Z"/><path class="cls-1" d="M418.68,120.62v-1.16a3.54,3.54,0,0,1-2.88,1.4c-2.48,0-4-2.08-4-4.42a4,4,0,0,1,4-4.32,3.51,3.51,0,0,1,2.9,1.38v-1.18h1.42v8.3ZM416,113.4a2.83,2.83,0,0,0-2.74,3,2.86,2.86,0,0,0,2.74,3.12,2.83,2.83,0,0,0,2.76-3.12A2.8,2.8,0,0,0,416,113.4Zm-1.66-2.78a1,1,0,0,1-1-1,1,1,0,1,1,1,1Zm3.48,0a1,1,0,0,1-1-1,1,1,0,1,1,1,1Z"/><path class="cls-1" d="M429.8,123.7a4,4,0,0,1-3.32,1.54,3.74,3.74,0,0,1-4-3.8h1.42A2.48,2.48,0,0,0,426.5,124c2,0,2.66-1.5,2.66-3.28v-1.22a3.75,3.75,0,0,1-2.92,1.38,4.38,4.38,0,0,1,.06-8.72,3.55,3.55,0,0,1,2.86,1.36v-1.16h1.44v8.12A5,5,0,0,1,429.8,123.7Zm-3.34-10.3a2.85,2.85,0,0,0-2.72,3.14,2.8,2.8,0,0,0,2.72,3,3.1,3.1,0,0,0,0-6.16Z"/><path class="cls-1" d="M434.28,116.76a2.69,2.69,0,0,0,2.64,2.8,2.86,2.86,0,0,0,2.56-1.72l1.2.66a4.14,4.14,0,0,1-3.8,2.36,4,4,0,0,1-4.1-4.34c0-2.4,1.5-4.4,4-4.4s4,2,4,4.36v.28Zm2.56-3.34a2.55,2.55,0,0,0-2.46,2.14h4.88A2.49,2.49,0,0,0,436.84,113.42Z"/><path class="cls-1" d="M448.16,120.62v-4.9c0-1.3-.18-2.32-1.74-2.32-1.84,0-2.06,1.6-2.06,3.06v4.16h-1.42v-8.3h1.42v1a3,3,0,0,1,4.76-.06,3.8,3.8,0,0,1,.48,2.2v5.16Z"/><path class="cls-1" d="M462.72,116.12,460,119.24h5.6v1.38H457l4.86-5.62c.9-1,2.3-2.54,2.3-4a2.66,2.66,0,0,0-5.32.16h-1.5a5.54,5.54,0,0,1,.28-1.5,4.17,4.17,0,0,1,8,1.36C465.6,113,464,114.72,462.72,116.12Z"/><path class="cls-1" d="M476,118.44v2.18h-1.48v-2.18h-6.84l8.32-11.9v10.54h1.64v1.36Zm-1.48-7.38-4.22,6h4.22Z"/><path class="cls-1" d="M480.06,123.66l-.94-.38,1.64-4.62,1.32.48Z"/><path class="cls-1" d="M493.3,120.86a4.08,4.08,0,0,1-4.12-3.44l1.44-.4a2.72,2.72,0,0,0,2.72,2.44,2.63,2.63,0,0,0,2.68-2.64c0-3.14-6.16-2.4-6.16-6.32a3.53,3.53,0,0,1,3.74-3.44,3.8,3.8,0,0,1,3.44,2.08l-1.18.78a2.47,2.47,0,0,0-2.28-1.46,2.12,2.12,0,0,0-2.22,2c0,2.76,6.16,2,6.16,6.26A4.11,4.11,0,0,1,493.3,120.86Z"/><path class="cls-1" d="M500.6,110.2a1,1,0,1,1,1-1A1,1,0,0,1,500.6,110.2Zm-.72,15.1v-13h1.42v13Z"/><path class="cls-1" d="M507.9,120.86a4.37,4.37,0,1,1,4.38-4.36A4.34,4.34,0,0,1,507.9,120.86Zm0-7.44a3.07,3.07,0,1,0,2.94,3.08A2.91,2.91,0,0,0,507.88,113.42Zm-1.72-2.8a1,1,0,0,1-1-1,1,1,0,1,1,1,1Zm3.48,0a1,1,0,0,1-1-1,1,1,0,1,1,1,1Z"/><path class="cls-1" d="M523.92,120.62v-5c0-1.06-.18-2.18-1.5-2.18-1.5,0-1.78,1.4-1.78,2.6v4.62h-1.42V115.7c0-1-.22-2.3-1.52-2.3a1.72,1.72,0,0,0-1.5.9,4,4,0,0,0-.32,1.8v4.52h-1.42v-8.3h1.42v.88a2.37,2.37,0,0,1,2.06-1.08,2.53,2.53,0,0,1,2.28,1.34,2.83,2.83,0,0,1,4.66-.22,3.88,3.88,0,0,1,.46,2.12v5.26Z"/><path class="cls-1" d="M534.4,120.62v-1.16a3.54,3.54,0,0,1-2.88,1.4c-2.48,0-4-2.08-4-4.42a4,4,0,0,1,4-4.32,3.51,3.51,0,0,1,2.9,1.38v-1.18h1.42v8.3Zm-2.68-7.22a2.83,2.83,0,0,0-2.74,3,2.86,2.86,0,0,0,2.74,3.12,2.83,2.83,0,0,0,2.76-3.12A2.8,2.8,0,0,0,531.72,113.4Z"/><path class="cls-1" d="M542.44,113.76a1.26,1.26,0,0,0-.84-.28,1.54,1.54,0,0,0-.72.18c-.92.5-.92,1.68-.92,2.58v4.38h-1.42v-8.3H540v.9a2.22,2.22,0,0,1,1.88-1.1,2.36,2.36,0,0,1,1.28.34Z"/><path class="cls-1" d="M549.58,120.62l-3.36-3.78-.36.36v3.42h-1.42V106h1.42v9.34l3-3.06h1.9l-3.56,3.52,4.22,4.78Z"/><path class="cls-1" d="M553.38,116.76a2.69,2.69,0,0,0,2.64,2.8,2.86,2.86,0,0,0,2.56-1.72l1.2.66a4.14,4.14,0,0,1-3.8,2.36,4,4,0,0,1-4.1-4.34c0-2.4,1.5-4.4,4-4.4s4,2,4,4.36v.28Zm2.56-3.34a2.55,2.55,0,0,0-2.46,2.14h4.88A2.49,2.49,0,0,0,555.94,113.42Z"/><path class="cls-1" d="M567.26,120.62v-4.9c0-1.3-.18-2.32-1.74-2.32-1.84,0-2.06,1.6-2.06,3.06v4.16H562v-8.3h1.42v1a3,3,0,0,1,4.76-.06,3.8,3.8,0,0,1,.48,2.2v5.16Z"/><path class="cls-1" d="M343.14,141.86a4.08,4.08,0,0,1-4.12-3.44l1.44-.4a2.72,2.72,0,0,0,2.72,2.44,2.63,2.63,0,0,0,2.68-2.64c0-3.14-6.16-2.4-6.16-6.32a3.53,3.53,0,0,1,3.74-3.44,3.8,3.8,0,0,1,3.44,2.08l-1.18.78a2.47,2.47,0,0,0-2.28-1.46,2.12,2.12,0,0,0-2.22,2c0,2.76,6.16,2,6.16,6.26A4.11,4.11,0,0,1,343.14,141.86Z"/><path class="cls-1" d="M353.58,141.86A4.37,4.37,0,1,1,358,137.5,4.34,4.34,0,0,1,353.58,141.86Zm0-7.44a3.07,3.07,0,1,0,2.94,3.08A2.91,2.91,0,0,0,353.56,134.42Zm-1.72-2.8a1,1,0,0,1-1-1,1,1,0,1,1,1,1Zm3.48,0a1,1,0,0,1-1-1,1,1,0,1,1,1,1Z"/><path class="cls-1" d="M365.36,141.62v-4.9c0-1.3-.18-2.32-1.74-2.32-1.84,0-2.06,1.6-2.06,3.06v4.16h-1.42v-8.3h1.42v1a3,3,0,0,1,4.76-.06,3.8,3.8,0,0,1,.48,2.2v5.16Z"/><path class="cls-1" d="M375.86,141.62v-1.16a3.54,3.54,0,0,1-2.88,1.4,4.11,4.11,0,0,1-4-4.4,4.07,4.07,0,0,1,4-4.34,3.56,3.56,0,0,1,2.9,1.38V127h1.42v14.58Zm-2.68-7.2a3.09,3.09,0,1,0,2.76,3A2.78,2.78,0,0,0,373.18,134.42Z"/><path class="cls-1" d="M386.34,141.62v-1.16a3.54,3.54,0,0,1-2.88,1.4c-2.48,0-4-2.08-4-4.42a4,4,0,0,1,4-4.32,3.51,3.51,0,0,1,2.9,1.38v-1.18h1.42v8.3Zm-2.68-7.22a2.83,2.83,0,0,0-2.74,3,2.86,2.86,0,0,0,2.74,3.12,2.83,2.83,0,0,0,2.76-3.12A2.8,2.8,0,0,0,383.66,134.4Z"/><path class="cls-1" d="M397.46,144.7a4,4,0,0,1-3.32,1.54,3.74,3.74,0,0,1-4-3.8h1.42a2.48,2.48,0,0,0,2.64,2.52c2,0,2.66-1.5,2.66-3.28v-1.22a3.75,3.75,0,0,1-2.92,1.38,4.38,4.38,0,0,1,.06-8.72,3.55,3.55,0,0,1,2.86,1.36v-1.16h1.44v8.12A5,5,0,0,1,397.46,144.7Zm-3.34-10.3a2.85,2.85,0,0,0-2.72,3.14,2.8,2.8,0,0,0,2.72,3,3.1,3.1,0,0,0,0-6.16Z"/><path class="cls-1" d="M411.38,137.12l-2.74,3.12h5.6v1.38h-8.62l4.86-5.62c.9-1,2.3-2.54,2.3-4a2.66,2.66,0,0,0-5.32.16H406a5.54,5.54,0,0,1,.28-1.5,4.17,4.17,0,0,1,8,1.36C414.26,134,412.62,135.72,411.38,137.12Z"/><path class="cls-1" d="M421.26,141.62V129.68H419l.78-1.4h2.92v13.34Z"/><path class="cls-1" d="M434.38,131.2a1,1,0,1,1,1-1A1,1,0,0,1,434.38,131.2Zm-.72,15.1v-13h1.42v13Z"/><path class="cls-1" d="M444.16,141.62v-1.16a3.54,3.54,0,0,1-2.88,1.4c-2.48,0-4-2.08-4-4.42a4,4,0,0,1,4-4.32,3.51,3.51,0,0,1,2.9,1.38v-1.18h1.42v8.3Zm-2.68-7.22a2.83,2.83,0,0,0-2.74,3,2.86,2.86,0,0,0,2.74,3.12,2.83,2.83,0,0,0,2.76-3.12A2.8,2.8,0,0,0,441.48,134.4Z"/><path class="cls-1" d="M453.52,141.62v-4.9c0-1.3-.18-2.32-1.74-2.32-1.84,0-2.06,1.6-2.06,3.06v4.16H448.3v-8.3h1.42v1a3,3,0,0,1,4.76-.06,3.8,3.8,0,0,1,.48,2.2v5.16Z"/><path class="cls-1" d="M463.52,140.82a3.62,3.62,0,0,1-5.08,0,3.4,3.4,0,0,1-.76-2.5v-5h1.42v4.84a3.18,3.18,0,0,0,.26,1.56,2,2,0,0,0,3.22,0,3.22,3.22,0,0,0,.26-1.56v-4.84h1.42v5A3.39,3.39,0,0,1,463.52,140.82Z"/><path class="cls-1" d="M473.32,141.62v-1.16a3.54,3.54,0,0,1-2.88,1.4c-2.48,0-4-2.08-4-4.42a4,4,0,0,1,4-4.32,3.51,3.51,0,0,1,2.9,1.38v-1.18h1.42v8.3Zm-2.68-7.22a2.83,2.83,0,0,0-2.74,3,2.86,2.86,0,0,0,2.74,3.12,2.83,2.83,0,0,0,2.76-3.12A2.8,2.8,0,0,0,470.64,134.4Z"/><path class="cls-1" d="M481.36,134.76a1.26,1.26,0,0,0-.84-.28,1.54,1.54,0,0,0-.72.18c-.92.5-.92,1.68-.92,2.58v4.38h-1.42v-8.3h1.42v.9a2.22,2.22,0,0,1,1.88-1.1,2.36,2.36,0,0,1,1.28.34Z"/><path class="cls-1" d="M484.08,131.2a1,1,0,1,1,1-1A1,1,0,0,1,484.08,131.2Zm-.72,10.42v-8.3h1.42v8.3Z"/><path class="cls-1" d="M497.66,141.62l-3.36-3.78-.36.36v3.42h-1.42V127h1.42v9.34l3-3.06h1.9l-3.56,3.52,4.22,4.78Z"/><path class="cls-1" d="M500.94,141.62V127h1.42v14.58Z"/><path class="cls-1" d="M514,141.62V129.68H511.8l.78-1.4h2.92v13.34Z"/><path class="cls-1" d="M526.82,137.12l-2.74,3.12h5.6v1.38h-8.62l4.86-5.62c.9-1,2.3-2.54,2.3-4a2.66,2.66,0,0,0-5.32.16h-1.5a5.54,5.54,0,0,1,.28-1.5,4.17,4.17,0,0,1,8,1.36C529.7,134,528.06,135.72,526.82,137.12Z"/><path class="cls-1" d="M531.4,138v-1.28H535V138Z"/><path class="cls-1" d="M540.32,141.62V129.68H538.1l.78-1.4h2.92v13.34Z"/><path class="cls-1" d="M555.06,139.44v2.18h-1.48v-2.18h-6.84l8.32-11.9v10.54h1.64v1.36Zm-1.48-7.38-4.22,6h4.22Z"/></svg>