<svg id="Layer_1" data-name="Layer 1" xmlns="http://www.w3.org/2000/svg" viewBox="0 0 740 160"><defs><style>.cls-1{fill:#d4ac76;}</style></defs><title>text</title><path class="cls-1" d="M321.47,41.58a7.26,7.26,0,0,1-9.73,0,6.3,6.3,0,0,1-1.92-4.7V25.4h3.33v11a4.07,4.07,0,0,0,.92,2.74,3.51,3.51,0,0,0,5.06,0,3.93,3.93,0,0,0,.92-2.7V25.4h3.34V36.88A6.3,6.3,0,0,1,321.47,41.58Z"/><path class="cls-1" d="M329.34,43.18V25.4h6.39a6,6,0,0,1,6.17,6.14,5.63,5.63,0,0,1-1.8,4.28,6.23,6.23,0,0,1-4.43,1.7h-3v5.66Zm6.1-14.58h-2.76v5.95h2.81a3.14,3.14,0,0,0,2.23-.79,2.8,2.8,0,0,0,.85-2.13,2.87,2.87,0,0,0-.88-2.18A3.07,3.07,0,0,0,335.44,28.6Z"/><path class="cls-1" d="M346.8,43.18V25.4h6.38a6,6,0,0,1,6.18,6.14,5.63,5.63,0,0,1-1.8,4.28,6.24,6.24,0,0,1-4.43,1.7h-3v5.66Zm6.1-14.58h-2.76v5.95h2.8a3.12,3.12,0,0,0,2.23-.79,2.77,2.77,0,0,0,.85-2.13,2.9,2.9,0,0,0-.87-2.18A3.07,3.07,0,0,0,352.9,28.6Z"/><path class="cls-1" d="M364.26,43.18V25.4h3.33V40h6.54v3.2Z"/><path class="cls-1" d="M388.84,35.66h-6.57v4.55h7.22v3H378.93V25.4h10.35v3h-7v4.32h6.57Z"/><path class="cls-1" d="M399.8,43.18,393,25.4h3.47l4.88,12.78,4.83-12.78h3.37l-6.73,17.78Z"/><path class="cls-1" d="M421.64,28.6V25.4h14.65v3.2h-5.66V43.18H427.3V28.6Z"/><path class="cls-1" d="M440.55,43.18V25.4h6.95A6,6,0,0,1,451.79,27a5.55,5.55,0,0,1,1.71,4.22,5.32,5.32,0,0,1-1.28,3.6,5.74,5.74,0,0,1-3.31,1.9l4.77,6.45h-3.75l-4.61-6.35h-1.44v6.35ZM447,28.37h-3.11v5.79H447a3.29,3.29,0,0,0,2.31-.79,2.66,2.66,0,0,0,.86-2,2.81,2.81,0,0,0-.88-2.11A3.2,3.2,0,0,0,447,28.37Z"/><path class="cls-1" d="M458.69,43.18V25.4H462V43.18Z"/><path class="cls-1" d="M473,43.18l-6.8-17.78h3.47l4.89,12.78,4.82-12.78h3.37L476,43.18Z"/><path class="cls-1" d="M491,43.41a8.92,8.92,0,0,1-6.23-2.65l2.12-2.53a6.53,6.53,0,0,0,2,1.59,5.06,5.06,0,0,0,2.34.62,2.84,2.84,0,0,0,1.89-.61,1.89,1.89,0,0,0,.74-1.53,2.65,2.65,0,0,0-2-2.47l-2-.79a7.71,7.71,0,0,1-3-2,4.83,4.83,0,0,1,.56-6.39,5.15,5.15,0,0,1,3.77-1.49,7.66,7.66,0,0,1,5.47,2l-2,2.48a4.58,4.58,0,0,0-3.51-1.54,2.38,2.38,0,0,0-1.6.51,1.59,1.59,0,0,0-.6,1.25,1.66,1.66,0,0,0,.47,1.22,4.54,4.54,0,0,0,1.53.92l2.07.83q4,1.57,4,5.13a5,5,0,0,1-1.68,3.89A6.45,6.45,0,0,1,491,43.41Z"/><path class="cls-1" d="M512.12,35.66h-6.58v4.55h7.23v3H502.21V25.4h10.35v3h-7v4.32h6.58Z"/><path class="cls-1" d="M518.17,43.18V25.4h3.34V40H528v3.2Z"/><path class="cls-1" d="M543.79,43.18V35.75h-7.61v7.43h-3.33V25.4h3.33v7.15h7.61V25.4h3.34V43.18Z"/><path class="cls-1" d="M564.76,41.58a7.26,7.26,0,0,1-9.73,0,6.3,6.3,0,0,1-1.92-4.7V25.4h3.33v11a4.07,4.07,0,0,0,.92,2.74,3.53,3.53,0,0,0,5.07,0,4,4,0,0,0,.91-2.7V25.4h3.34V36.88A6.3,6.3,0,0,1,564.76,41.58Z"/><path class="cls-1" d="M577.43,43.41a8.64,8.64,0,0,1-3.35-.7,8.73,8.73,0,0,1-2.88-2l2.11-2.53a6.65,6.65,0,0,0,2,1.59,5.06,5.06,0,0,0,2.34.62,2.87,2.87,0,0,0,1.9-.61,1.92,1.92,0,0,0,.74-1.53,2.65,2.65,0,0,0-2-2.47l-2-.79a7.63,7.63,0,0,1-3-2,4.5,4.5,0,0,1-1-3,4.6,4.6,0,0,1,1.5-3.37,5.18,5.18,0,0,1,3.77-1.49,7.69,7.69,0,0,1,5.48,2l-2,2.48a4.59,4.59,0,0,0-3.52-1.54,2.37,2.37,0,0,0-1.59.51,1.59,1.59,0,0,0-.6,1.25,1.62,1.62,0,0,0,.47,1.22,4.58,4.58,0,0,0,1.52.92l2.08.83c2.63,1,4,2.76,4,5.13a5,5,0,0,1-1.67,3.89A6.47,6.47,0,0,1,577.43,43.41Z"/><path class="cls-1" d="M274.25,69.58v-17h9.26v2.84h-6.07v4.64h5.41v2.84h-5.41v6.69Z"/><path class="cls-1" d="M285.14,69.58l6.56-17h2.88l6.54,17h-3.28l-.91-2.36h-7.6l-.91,2.36Zm8-12.25-2.72,7.06h5.43Z"/><path class="cls-1" d="M305.1,69.58v-17h2.23l8.37,10.7V52.57h3.19v17h-2.13l-8.47-10.83V69.58Z"/><path class="cls-1" d="M323,55.63V52.57h14v3.06h-5.41V69.58h-3.19V55.63Z"/><path class="cls-1" d="M337.61,69.58l6.56-17h2.88l6.54,17h-3.28l-.91-2.36h-7.6l-.91,2.36Zm8-12.25-2.72,7.06h5.43Z"/><path class="cls-1" d="M362.37,69.8a8.32,8.32,0,0,1-3.21-.67,8.46,8.46,0,0,1-2.75-1.86l2-2.43a6.26,6.26,0,0,0,1.88,1.53,4.84,4.84,0,0,0,2.24.59,2.73,2.73,0,0,0,1.81-.58,1.84,1.84,0,0,0,.71-1.47,2.52,2.52,0,0,0-1.87-2.36l-1.89-.76a7.19,7.19,0,0,1-2.83-1.88,4.31,4.31,0,0,1-.91-2.89A4.44,4.44,0,0,1,359,53.79a5,5,0,0,1,3.61-1.42,7.3,7.3,0,0,1,5.23,2L366,56.69a4.34,4.34,0,0,0-3.35-1.48,2.3,2.3,0,0,0-1.53.49,1.54,1.54,0,0,0-.58,1.2,1.61,1.61,0,0,0,.45,1.17,4.62,4.62,0,0,0,1.46.87l2,.8c2.52,1,3.8,2.64,3.85,4.91a4.76,4.76,0,0,1-1.6,3.72A6.23,6.23,0,0,1,362.37,69.8Z"/><path class="cls-1" d="M371.43,55.63V52.57h14v3.06H380V69.58h-3.19V55.63Z"/><path class="cls-1" d="M389.51,69.58v-17h3.19v17Z"/><path class="cls-1" d="M403.14,69.8a8.54,8.54,0,0,1-6-2.53l2-2.43a6.14,6.14,0,0,0,1.88,1.53,4.83,4.83,0,0,0,2.23.59,2.76,2.76,0,0,0,1.82-.58,1.83,1.83,0,0,0,.7-1.47A2.52,2.52,0,0,0,404,62.55l-1.9-.76a7.15,7.15,0,0,1-2.82-1.88,4.32,4.32,0,0,1-.92-2.89,4.41,4.41,0,0,1,1.45-3.23,5,5,0,0,1,3.6-1.42,7.31,7.31,0,0,1,5.24,2l-1.88,2.37a4.37,4.37,0,0,0-3.36-1.48,2.29,2.29,0,0,0-1.52.49,1.51,1.51,0,0,0-.58,1.2,1.61,1.61,0,0,0,.45,1.17,4.62,4.62,0,0,0,1.46.87l2,.8c2.52,1,3.81,2.64,3.85,4.91a4.76,4.76,0,0,1-1.6,3.72A6.18,6.18,0,0,1,403.14,69.8Z"/><path class="cls-1" d="M413.89,69.58v-17h2.94v7.5l6.52-7.5h3.93l-6,6.79,6.14,10.22h-3.68l-4.63-7.77-2.28,2.58v5.19Z"/><path class="cls-1" d="M440,69.58V67.64L446.49,59a3,3,0,0,0,.92-2,2.11,2.11,0,0,0-.62-1.56,2.18,2.18,0,0,0-1.63-.63,1.94,1.94,0,0,0-1.61.76,3.21,3.21,0,0,0-.62,2H440a5.2,5.2,0,0,1,1.48-3.76,4.94,4.94,0,0,1,3.72-1.54,5.18,5.18,0,0,1,3.68,1.34,4.28,4.28,0,0,1,1.44,3.26,6.56,6.56,0,0,1-2,4.15l-4.7,6h6.72v2.55Z"/><path class="cls-1" d="M454.7,62.36V59.81h6.73v2.55Z"/><path class="cls-1" d="M466.71,69.58v-17h6.1a5.77,5.77,0,0,1,5.91,5.88A5.38,5.38,0,0,1,477,62.54a6,6,0,0,1-4.24,1.63H469.9v5.41Zm5.83-13.95H469.9v5.7h2.68a3,3,0,0,0,2.14-.76,2.66,2.66,0,0,0,.81-2,2.78,2.78,0,0,0-.84-2.09A2.94,2.94,0,0,0,472.54,55.63Z"/><path class="cls-1" d="M483.41,69.58v-17h3.19V66.52h6.24v3.06Z"/><path class="cls-1" d="M495.79,69.58l6.56-17h2.88l6.53,17h-3.27l-.91-2.36H500l-.91,2.36Zm8-12.25-2.72,7.06h5.43Z"/><path class="cls-1" d="M515.75,69.58v-17H518l8.37,10.7V52.57h3.19v17h-2.13l-8.47-10.83V69.58Z"/><path class="cls-1" d="M540,69.8a8.32,8.32,0,0,1-3.21-.67A8.5,8.5,0,0,1,534,67.27l2-2.43a6.22,6.22,0,0,0,1.87,1.53,4.9,4.9,0,0,0,2.24.59,2.78,2.78,0,0,0,1.82-.58,1.83,1.83,0,0,0,.7-1.47,2.52,2.52,0,0,0-1.86-2.36l-1.9-.76a7.19,7.19,0,0,1-2.83-1.88,4.31,4.31,0,0,1-.91-2.89,4.44,4.44,0,0,1,1.44-3.23,5,5,0,0,1,3.61-1.42,7.33,7.33,0,0,1,5.24,2l-1.88,2.37a4.38,4.38,0,0,0-3.36-1.48,2.32,2.32,0,0,0-1.53.49,1.53,1.53,0,0,0-.57,1.2,1.61,1.61,0,0,0,.45,1.17,4.5,4.5,0,0,0,1.46.87l2,.8c2.52,1,3.81,2.64,3.85,4.91a4.76,4.76,0,0,1-1.6,3.72A6.18,6.18,0,0,1,540,69.8Z"/><path class="cls-1" d="M555.22,69.58l-6.5-17H552l4.67,12.23,4.62-12.23h3.22l-6.43,17Z"/><path class="cls-1" d="M568.57,69.58v-17h3.19v17Z"/><path class="cls-1" d="M577.83,69.58v-17H581V66.52h6.25v3.06Z"/><path class="cls-1" d="M591.86,69.58v-17h3.19V66.52h6.25v3.06Z"/><path class="cls-1" d="M604.25,69.58l6.56-17h2.88l6.53,17h-3.28l-.9-2.36h-7.61l-.9,2.36Zm8-12.25-2.72,7.06H615Z"/></svg>