<?xml version="1.0" encoding="utf-8"?>
<!-- Generator: Adobe Illustrator 19.1.1, SVG Export Plug-In . SVG Version: 6.00 Build 0)  -->
<svg version="1.1" id="Layer_1" xmlns="http://www.w3.org/2000/svg" xmlns:xlink="http://www.w3.org/1999/xlink" x="0px" y="0px"
	 viewBox="0 0 728 90" style="enable-background:new 0 0 728 90;" xml:space="preserve">
<style type="text/css">
	.st0{fill:#D80201;}
	.st1{fill:#FFFFFF;}
</style>
<path class="st0" d="M163.7,55.8H46.6c-6.2,0-11.3-5.1-11.3-11.3v0c0-6.2,5.1-11.3,11.3-11.3h117.1c6.2,0,11.3,5.1,11.3,11.3v0
	C175,50.8,169.9,55.8,163.7,55.8z"/>
<g>
	<path class="st1" d="M62.1,48.9L58.9,45l-0.2,0.2v3.7H57v-8.8h1.7v3.7l3.2-3.7h2.2l-3.7,4.1l3.9,4.7H62.1z"/>
	<path class="st1" d="M69.1,49.1c-2.6,0-4.7-1.9-4.7-4.6c0-2.6,2.1-4.6,4.7-4.6c2.6,0,4.7,2,4.7,4.6C73.8,47.2,71.7,49.1,69.1,49.1z
		 M69.1,41.5c-1.6,0-2.9,1.4-2.9,3c0,1.6,1.3,3,2.9,3c1.7,0,2.9-1.4,2.9-3C72.1,42.9,70.8,41.5,69.1,41.5z"/>
	<path class="st1" d="M83.5,48.9l-0.8-5.4l-2.4,5.5h-0.5l-2.3-5.5l-0.9,5.4h-1.7l1.6-8.9h1.2l2.4,5.7l2.5-5.7h1.2l1.5,8.9H83.5z"/>
	<path class="st1" d="M90.1,48.9v-8.8h1.7v8.8H90.1z"/>
	<path class="st1" d="M102.1,45.9c-0.4,2-2.1,3.2-4.2,3.2c-2.7,0-4.6-1.9-4.6-4.6c0-2.7,2-4.6,4.7-4.6c1.6,0,2.9,0.7,3.8,2.1
		l-1.5,0.8C99.8,42,99,41.5,98,41.5c-1.7,0-2.9,1.4-2.9,3c0,1.7,1.2,3,2.9,3c1.1,0,2.1-0.7,2.3-1.9h-2.1v-1.5h4v0.2
		C102.3,44.9,102.2,45.4,102.1,45.9z"/>
	<path class="st1" d="M109.5,48.9l-0.8-1.9h-3.6l-0.8,1.9h-1.8l3.8-9h1.3l3.7,9H109.5z M106.9,42.5l-1.3,3.2h2.5L106.9,42.5z
		 M106.9,39.3c-0.7,0-1.2-0.6-1.2-1.2s0.6-1.2,1.2-1.2s1.2,0.5,1.2,1.2S107.6,39.3,106.9,39.3z M106.9,37.6c-0.3,0-0.5,0.2-0.5,0.5
		s0.2,0.5,0.5,0.5s0.5-0.2,0.5-0.5S107.2,37.6,106.9,37.6z"/>
	<path class="st1" d="M119.4,49.1L114,43v5.9h-1.7v-9h1.2l5.3,6.1v-5.9h1.7v8.9H119.4z"/>
	<path class="st1" d="M130.9,45.9c-0.4,2-2.1,3.2-4.2,3.2c-2.7,0-4.6-1.9-4.6-4.6c0-2.7,2-4.6,4.7-4.6c1.6,0,2.9,0.7,3.8,2.1
		l-1.5,0.8c-0.5-0.8-1.3-1.3-2.3-1.3c-1.7,0-2.9,1.4-2.9,3c0,1.7,1.2,3,2.9,3c1.1,0,2.1-0.7,2.3-1.9H127v-1.5h4v0.2
		C131,44.9,131,45.4,130.9,45.9z"/>
</g>
<polygon class="st1" points="149,45.7 139.8,45.7 139.8,43.3 149,43.3 149,39.7 155.6,44.5 149,49 "/>
</svg>
