<?xml version="1.0" encoding="utf-8"?>
<!-- Generator: Adobe Illustrator 19.1.1, SVG Export Plug-In . SVG Version: 6.00 Build 0)  -->
<svg version="1.1" id="Layer_1" xmlns="http://www.w3.org/2000/svg" xmlns:xlink="http://www.w3.org/1999/xlink" x="0px" y="0px"
	 viewBox="0 0 728 90" style="enable-background:new 0 0 728 90;" xml:space="preserve">
<style type="text/css">
	.st0{fill:#D80201;}
	.st1{fill:#FFFFFF;}
</style>
<g>
	<path class="st0" d="M212.1,37v4.4h6.3v3.4h-6.3v8.8h-3.9v-20h10.6V37H212.1z"/>
	<path class="st0" d="M228.4,54.1c-4.1,0-7.4-2.6-7.4-6.9c0-4.3,3.3-6.9,7.5-6.9c4.1,0,7.4,2.6,7.4,6.9
		C235.8,51.4,232.5,54.1,228.4,54.1z M228.3,43.5c-2,0-3.7,1.6-3.7,3.7c0,2,1.7,3.6,3.7,3.6c2,0,3.7-1.6,3.7-3.6
		C232,45.1,230.4,43.5,228.3,43.5z"/>
	<path class="st0" d="M247,44c-0.6-0.3-1-0.5-1.7-0.5c-2.5,0-3.1,1.7-3.1,3.9v6.2h-3.6v-13h3.6v1.9c0.8-1.5,2-2.4,3.8-2.4
		c0.6,0,1.1,0.1,1.6,0.3L247,44z"/>
	<path class="st0" d="M265.9,53.7v-7.1c0-1.5-0.2-3.2-2.2-3.2c-2.1,0-2.5,2-2.5,3.7v6.7h-3.6v-6.9c0-0.7,0-1.6-0.3-2.2
		c-0.3-0.8-1.1-1.3-2-1.3c-0.8,0-1.6,0.5-2,1.2c-0.4,0.7-0.4,1.7-0.4,2.5v6.7h-3.6v-13h3.6v1.5c1.1-1.2,2.3-1.9,4-1.9
		c1.9,0,3.1,0.8,4,2.4c1-1.6,2.4-2.4,4.3-2.4c1.4,0,2.9,0.6,3.6,1.9c0.6,0.9,0.7,2.1,0.7,3.1v8.4H265.9z"/>
	<path class="st0" d="M283,53.7V52c-1,1.4-2.5,2.1-4.2,2.1c-3.9,0-6.4-3.2-6.4-7c0-3.6,2.5-6.9,6.3-6.9c1.8,0,3.1,0.7,4.3,2.1v-1.6
		h3.7v13H283z M279.7,43.5c-2,0-3.6,1.6-3.6,3.6s1.6,3.7,3.6,3.7s3.6-1.6,3.6-3.7S281.8,43.5,279.7,43.5z"/>
	<path class="st0" d="M307.6,53.7V52c-1,1.4-2.5,2.1-4.2,2.1c-3.9,0-6.4-3.2-6.4-7c0-3.6,2.5-6.9,6.3-6.9c1.8,0,3.1,0.7,4.3,2.1
		V31.2h3.7v22.5H307.6z M304.3,43.5c-2,0-3.6,1.6-3.6,3.6s1.6,3.7,3.6,3.7s3.6-1.6,3.6-3.7S306.3,43.5,304.3,43.5z"/>
	<path class="st0" d="M316.5,37.4c-1.2,0-2.2-1-2.2-2.2c0-1.2,1-2.2,2.2-2.2c1.2,0,2.2,1,2.2,2.2C318.6,36.4,317.7,37.4,316.5,37.4z
		 M314.6,53.7v-13h3.6v13H314.6z"/>
	<path class="st0" d="M325.3,43.8v9.9h-3.6v-9.9h-1.4v-3.1h1.4v-4.4h3.6v4.4h2.5v3.1H325.3z"/>
	<path class="st0" d="M333.4,43.8v9.9h-3.6v-9.9h-1.4v-3.1h1.4v-4.4h3.6v4.4h2.5v3.1H333.4z"/>
	<path class="st0" d="M354.3,53.7v-7.1c0-1.8-0.4-3.2-2.5-3.2c-2.3,0-2.8,1.7-2.8,3.7v6.7h-3.6V31.2h3.6v11.2c1-1.4,2.3-2.1,4.1-2.1
		c1.4,0,2.9,0.5,3.8,1.6c0.9,1.1,1,2.3,1,3.7v8.2H354.3z"/>
	<path class="st0" d="M367.6,54.1c-3.6,0-6.3-1.6-6.3-5.5v-7.9h3.6V48c0,1.8,0.8,3,2.6,3s2.6-1.2,2.6-3v-7.3h3.7v7.9
		C373.9,52.5,371.2,54.1,367.6,54.1z"/>
	<path class="st0" d="M381.6,54.1c-1.9,0-3.7-0.8-5-2.2l1.9-2.2c0.8,0.9,1.8,1.5,3.1,1.5c0.8,0,1.6-0.5,1.6-1.4
		c0-2.2-5.8-1.1-5.8-5.5c0-2.6,2.2-4.1,4.7-4.1c1.6,0,3,0.4,4.2,1.4l-1.8,2.1c-0.6-0.5-1.3-0.9-2.2-0.9c-0.6,0-1.4,0.4-1.4,1.1
		c0,1.9,6,1.1,6,5.5C387,52.5,384.4,54.1,381.6,54.1z"/>
	<path class="st0" d="M405.1,54.1c-1.9,0-3.2-0.7-4.3-2.1v8.6h-3.6V40.7h3.6v1.6c1.2-1.4,2.4-2.1,4.3-2.1c3.9,0,6.4,3.2,6.4,6.9
		C411.4,50.8,408.9,54.1,405.1,54.1z M404,43.5c-2,0-3.6,1.6-3.6,3.6s1.6,3.7,3.6,3.7s3.6-1.6,3.6-3.7S406,43.5,404,43.5z"/>
	<path class="st0" d="M424.1,53.7V52c-1,1.4-2.5,2.1-4.2,2.1c-3.9,0-6.4-3.2-6.4-7c0-3.6,2.5-6.9,6.3-6.9c1.8,0,3.2,0.7,4.3,2.1
		v-1.6h3.7v13H424.1z M420.8,43.5c-2,0-3.6,1.6-3.6,3.6s1.6,3.7,3.6,3.7s3.6-1.6,3.6-3.7S422.8,43.5,420.8,43.5z M420.3,38.4
		c-1.5,0-2.7-1.2-2.7-2.7s1.2-2.7,2.7-2.7c1.5,0,2.7,1.2,2.7,2.7S421.8,38.4,420.3,38.4z M420.3,34.6c-0.6,0-1,0.5-1,1s0.5,1,1,1
		c0.6,0,1-0.5,1-1C421.4,35.1,420.9,34.6,420.3,34.6z"/>
	<path class="st0" d="M442.5,43.8v9.9h-3.6v-9.9h-1.4v-3.1h1.4v-4.2c0-1.1,0.1-2.1,0.6-3.1c0.8-1.6,2.7-2.6,4.5-2.6
		c0.8,0,1.2,0.1,1.9,0.5v3.3c-0.5-0.3-1-0.5-1.6-0.5c-1.6,0-1.7,1.7-1.7,2.9v3.6h3.4v3.1H442.5z"/>
	<path class="st0" d="M450.5,47.8c0.1,2,1,3.5,3.2,3.5c1.4,0,2.3-0.6,3.1-1.7l3.4,0.5c-1.1,2.8-3.5,4-6.4,4c-4.2,0-7-2.7-7-6.9
		c0-4.1,2.6-6.9,6.8-6.9c4.3,0,6.6,2.9,6.6,7v0.5H450.5z M453.7,42.8c-1.7,0-2.7,1-3,2.6h6.2C456.4,43.8,455.4,42.8,453.7,42.8z"/>
	<path class="st0" d="M479.6,53.7v-7.1c0-1.5-0.2-3.2-2.2-3.2c-2.1,0-2.5,2-2.5,3.7v6.7h-3.6v-6.9c0-0.7,0-1.6-0.3-2.2
		c-0.3-0.8-1.1-1.3-1.9-1.3c-0.8,0-1.7,0.5-2,1.2c-0.4,0.7-0.4,1.7-0.4,2.5v6.7H463v-13h3.6v1.5c1.1-1.2,2.3-1.9,4-1.9
		c1.9,0,3.1,0.8,4,2.4c1-1.6,2.4-2.4,4.3-2.4c1.4,0,2.8,0.6,3.6,1.9c0.6,0.9,0.7,2.1,0.7,3.1v8.4H479.6z"/>
	<path class="st0" d="M510.8,53.7v-7.1c0-1.5-0.2-3.2-2.2-3.2c-2.1,0-2.5,2-2.5,3.7v6.7h-3.6v-6.9c0-0.7,0-1.6-0.3-2.2
		c-0.3-0.8-1.1-1.3-1.9-1.3c-0.8,0-1.7,0.5-2,1.2c-0.4,0.7-0.4,1.7-0.4,2.5v6.7h-3.6v-13h3.6v1.5c1.1-1.2,2.3-1.9,4-1.9
		c1.9,0,3.1,0.8,4,2.4c1-1.6,2.4-2.4,4.3-2.4c1.4,0,2.8,0.6,3.6,1.9c0.6,0.9,0.7,2.1,0.7,3.1v8.4H510.8z"/>
	<path class="st0" d="M519.7,37.4c-1.2,0-2.2-1-2.2-2.2c0-1.2,1-2.2,2.2-2.2s2.2,1,2.2,2.2C521.9,36.4,520.9,37.4,519.7,37.4z
		 M517.9,53.7v-13h3.6v13H517.9z"/>
	<path class="st0" d="M533.8,53.7v-7.2c0-1.8-0.4-3.1-2.5-3.1c-2.2,0-2.8,1.7-2.8,3.6v6.7h-3.6v-13h3.6v1.6c1.2-1.4,2.2-2,4.1-2
		c1.4,0,2.9,0.5,3.8,1.6s1,2.3,1,3.6v8.2H533.8z"/>
	<path class="st0" d="M547.2,54.1c-3.6,0-6.3-1.6-6.3-5.5v-7.9h3.6V48c0,1.8,0.8,3,2.6,3s2.6-1.2,2.6-3v-7.3h3.7v7.9
		C553.5,52.5,550.8,54.1,547.2,54.1z"/>
	<path class="st0" d="M560.6,43.8v9.9H557v-9.9h-1.4v-3.1h1.4v-4.4h3.6v4.4h2.5v3.1H560.6z"/>
	<path class="st0" d="M568.1,47.8c0.1,2,1,3.5,3.2,3.5c1.4,0,2.3-0.6,3.1-1.7l3.4,0.5c-1.1,2.8-3.5,4-6.4,4c-4.2,0-7-2.7-7-6.9
		c0-4.1,2.6-6.9,6.8-6.9c4.3,0,6.6,2.9,6.6,7v0.5H568.1z M571.3,42.8c-1.7,0-2.7,1-3,2.6h6.2C574,43.8,573,42.8,571.3,42.8z"/>
	<path class="st0" d="M589.1,44c-0.6-0.3-1-0.5-1.7-0.5c-2.5,0-3.1,1.7-3.1,3.9v6.2h-3.6v-13h3.6v1.9c0.8-1.5,2-2.4,3.8-2.4
		c0.6,0,1,0.1,1.6,0.3L589.1,44z"/>
	<path class="st0" d="M592.1,54.1c-1.3,0-2.3-1.1-2.3-2.3c0-1.3,1-2.3,2.3-2.3s2.3,1.1,2.3,2.3C594.4,53,593.4,54.1,592.1,54.1z"/>
</g>
</svg>
