<?xml version="1.0" encoding="utf-8"?>
<!-- Generator: Adobe Illustrator 18.1.1, SVG Export Plug-In . SVG Version: 6.00 Build 0)  -->
<svg version="1.1" id="Layer_1" xmlns="http://www.w3.org/2000/svg" xmlns:xlink="http://www.w3.org/1999/xlink" x="0px" y="0px"
	 viewBox="0 0 666.5 223.5" enable-background="new 0 0 666.5 223.5" xml:space="preserve">
<g>
	<path fill="#FFFFFF" d="M110.1,121H82.4l-5.8,15.4h7.7v11.7H54.4v-11.7h6.4l28.3-68.8h18.5l26.6,68.8h6.4v11.7h-32v-11.7h6.6
		L110.1,121z M100.1,91.8c-1.3-3.6-2.4-7.5-3-11.7h-0.2c-0.9,4.3-2.2,8.1-3.6,11.7l-6.2,16.8h18.7L100.1,91.8z"/>
	<path fill="#FFFFFF" d="M190,71.5h-9.2V59.7h25.3v76.7h6.9v11.7h-22.7c0-4.4,0.5-7.8,1.4-11.6h-0.2c-3.7,8.4-10.4,13-20.5,13
		c-13.2,0-24.5-9.5-24.5-27.5c0-16.4,7.9-35.4,33.6-35.4c2.8,0,6.7,0.5,9.9,1.4V71.5z M189.6,102c-2.2-1.1-6.7-2.2-10.2-2.2
		c-11.6,0-16,9.2-16,18.5c0,9.4,4.5,17.5,12.3,17.5c8.5,0,13.9-7.6,13.9-16.8V102z"/>
	<path fill="#FFFFFF" d="M230,79.4h-7.9V67.7h35.5c9.4,0,12.3,0.7,16.9,3c7.2,3.6,10.8,10.9,10.8,19.1c0,12-10,20.5-19,20.8v0.2
		c4,0.3,6.3,1.8,10.4,8.5l7.2,12.1c2.4,4.1,4.4,5.1,6.6,5.1h3v11.7h-12.9c-4.3,0-7.2-1.5-13.5-12.1l-9.8-16.8c-1.6-2.6-3.7-4-6.7-4
		h-3.9v21.2h7.2v11.7h-31.3v-11.7h7.2V79.4z M246.8,102.9h8.6c9,0,13.1-3.9,13.1-11.7c0-7.8-3.9-11.7-14.1-11.7h-7.6V102.9z"/>
	<path fill="#FFFFFF" d="M336.3,109.9c0-9.1-3.8-11.5-11.4-11.5c-2.3,0-7.2,0.7-10,1.7v8.1h-13.8V92.9c3.9-2.2,13.3-6.2,24-6.2
		c16.1,0,26.3,5.6,26.3,23.1c0,9.9-0.3,18.2-0.6,26.7h6.8v11.7h-20.2v-3.7c0-3.9,0.2-6,0.8-8.3H338c-4,9.1-9.5,13.3-19.7,13.3
		c-13.6,0-20.1-8.1-20.1-17.5c0-8.6,5.8-14.3,12.1-16.6c6.1-2.2,14.3-2.8,26-2.8V109.9z M331.6,122.7c-13.1,0-17.3,2.8-17.3,7.9
		c0,3.6,2.5,7.2,8.9,7.2c6.4,0,12.9-4.1,12.9-15.2H331.6z"/>
	<path fill="#FFFFFF" d="M372.4,99.8h-9.2V88h25.1c0.1,3.8-0.5,7.6-1,11.4h0.2c3.7-8.2,10.4-12.8,20.5-12.8
		c13.2,0,23.2,9.5,23.2,27.5c0,16.4-7.9,35.4-33.6,35.4c-2.6,0-6.6-0.5-9.1-1v16.8h6.9v11.7h-29.6v-11.7h6.6V99.8z M388.2,134.8
		c2.2,0.8,6.7,1.6,10.2,1.6c11.6,0,16.7-9.8,16.7-20.5c0-8.3-3-16.2-13-16.2c-10.7,0-13.9,7.7-13.9,15.2V134.8z"/>
	<path fill="#FFFFFF" d="M448.5,99.8h-7.8V88h23.9v48.4h6.9v11.7H442v-11.7h6.6V99.8z M456,58c6.7,0,10.8,4,10.8,10
		c0,6-4.1,10-10.8,10c-6.7,0-10.8-4-10.8-10C445.2,62,449.4,58,456,58z"/>
	<path fill="#FFFFFF" d="M523.4,71.5h-9.2V59.7h25.3v76.7h6.9v11.7h-22.7c0-4.4,0.5-7.8,1.4-11.6h-0.2c-3.7,8.4-10.4,13-20.5,13
		c-13.2,0-24.5-9.5-24.5-27.5c0-16.4,7.9-35.4,33.6-35.4c2.8,0,6.7,0.5,9.9,1.4V71.5z M523,102c-2.2-1.1-6.7-2.2-10.2-2.2
		c-11.6,0-16,9.2-16,18.5c0,9.4,4.5,17.5,12.3,17.5c8.5,0,13.9-7.6,13.9-16.8V102z"/>
</g>
<polygon fill="#FFFFFF" points="577.2,146.4 577.2,146.4 577.2,64.4 618.5,105.4 "/>
<path fill="#FFFFFF" d="M0,0v223.5h666.5V0H0z M651.5,207h-636V15.5h636V207z"/>
</svg>
