<?xml version="1.0" encoding="utf-8"?>
<!-- Generator: Adobe Illustrator 18.1.1, SVG Export Plug-In . SVG Version: 6.00 Build 0)  -->
<svg version="1.1" id="Layer_1" xmlns="http://www.w3.org/2000/svg" xmlns:xlink="http://www.w3.org/1999/xlink" x="0px" y="0px"
	 viewBox="0 0 32 32" enable-background="new 0 0 32 32" xml:space="preserve">
<circle fill="#D84A36" cx="16" cy="16" r="16"/>
<g>
	<path fill="#FFFFFF" d="M16,16.1c-0.4-0.4-0.1-1.1,0.2-1.4c0.3-0.3,0.8-0.7,1.1-1c0.3-0.2,0.9-0.8,0.9-2.5c0,0,0.2-1.5-1.5-2.7H18
		l1.4-0.8h-4.7c0,0-2.8-0.1-4.1,1.6c-1.3,1.7-1.3,3.8,0.2,5c1.4,1.2,3.2,0.9,3.2,0.9s-0.3,0.6-0.2,1c0,0.5,0.6,1.1,0.7,1.3
		c0,0-3.2,0-4.7,1.4C8.1,20.3,7.9,23,11,24c3.1,0.9,7.1-0.1,7.9-3c0,0,0.3-1.2-0.3-2.2C18,17.7,16.4,16.6,16,16.1z M12.6,13.7
		c-1-1.3-1.7-3.9,0-5c0,0,1.3-0.8,2.4,0.4c1.1,1.1,1.4,3,1.2,4c-0.2,1-0.8,1.2-1,1.3C15,14.5,13.6,15,12.6,13.7z M17.5,21
		c0,0.5-0.1,1.7-2,2.2c-1.9,0.5-5.1-0.4-5-2.5c0,0,0-0.9,0.6-1.5c0.6-0.5,1.5-1.1,4-1.1c0,0,0.9,0.6,1.4,1.1
		C17.1,19.7,17.5,20.5,17.5,21z"/>
	<polygon fill="#FFFFFF" points="21.8,14.7 21.8,13.1 20.8,13.1 20.8,14.7 19.1,14.7 19.1,15.7 20.8,15.7 20.8,17.4 21.8,17.4 
		21.8,15.7 23.4,15.7 23.4,14.7 	"/>
</g>
</svg>
