<?xml version="1.0" encoding="utf-8"?>
<!-- Generator: Adobe Illustrator 19.1.0, SVG Export Plug-In . SVG Version: 6.00 Build 0)  -->
<svg version="1.1"
	 id="svg2" xmlns:dc="http://purl.org/dc/elements/1.1/" xmlns:svg="http://www.w3.org/2000/svg" xmlns:rdf="http://www.w3.org/1999/02/22-rdf-syntax-ns#" xmlns:cc="http://creativecommons.org/ns#"
	 xmlns="http://www.w3.org/2000/svg" xmlns:xlink="http://www.w3.org/1999/xlink" x="0px" y="0px" viewBox="20 116.4 300 98.6"
	 style="enable-background:new 20 116.4 300 98.6;" xml:space="preserve">
<style type="text/css">
	.st0{fill:#4285F4;}
	.st1{fill:#EA4335;}
	.st2{fill:#FBBC05;}
	.st3{fill:#34A853;}
</style>
<path id="path2998" class="st0" d="M94.2,151.6H59.3V162H84c-1.2,14.5-13.3,20.7-24.7,20.7c-14.6,0-27.3-11.5-27.3-27.6
	c0-15.7,12.1-27.8,27.4-27.8c11.7,0,18.7,7.5,18.7,7.5l7.3-7.5c0,0-9.3-10.4-26.3-10.4c-21.6,0-38.4,18.3-38.4,38
	c0,19.3,15.7,38.2,38.9,38.2c20.4,0,35.3-14,35.3-34.6C94.8,154.1,94.2,151.6,94.2,151.6L94.2,151.6z"/>
<path id="path3000" class="st1" d="M122.8,144.1c-14.3,0-24.6,11.2-24.6,24.3c0,13.3,10,24.7,24.8,24.7c13.4,0,24.4-10.2,24.4-24.4
	C147.3,152.4,134.6,144.1,122.8,144.1L122.8,144.1z M122.9,153.7c7,0,13.7,5.7,13.7,14.9c0,9-6.6,14.8-13.8,14.8
	c-7.8,0-14-6.3-14-14.9C108.9,160,115,153.7,122.9,153.7L122.9,153.7z"/>
<path id="path3005" class="st2" d="M176.3,144.1c-14.3,0-24.6,11.2-24.6,24.3c0,13.3,10,24.7,24.8,24.7c13.4,0,24.4-10.2,24.4-24.4
	C200.8,152.4,188.1,144.1,176.3,144.1L176.3,144.1z M176.4,153.7c7,0,13.7,5.7,13.7,14.9c0,9-6.6,14.8-13.8,14.8
	c-7.8,0-14-6.3-14-14.9C162.4,160,168.5,153.7,176.4,153.7L176.4,153.7z"/>
<path id="path3007" class="st0" d="M228.8,144.1c-13.2,0-23.5,11.5-23.5,24.5c0,14.7,12,24.5,23.3,24.5c7,0,10.7-2.8,13.4-5.9v4.8
	c0,8.4-5.1,13.5-12.9,13.5c-7.5,0-11.2-5.6-12.5-8.7l-9.4,3.9c3.3,7.1,10.1,14.4,22,14.4c13.1,0,23-8.2,23-25.5v-44H242v4.1
	C238.8,146.3,234.5,144.1,228.8,144.1L228.8,144.1z M229.7,153.7c6.4,0,13.1,5.5,13.1,14.9c0,9.6-6.6,14.8-13.2,14.8
	c-7,0-13.5-5.7-13.5-14.7C216,159.3,222.8,153.7,229.7,153.7L229.7,153.7z"/>
<path id="path3011" class="st1" d="M297.8,144.1c-12.4,0-22.8,9.9-22.8,24.4c0,15.4,11.6,24.6,24,24.6c10.4,0,16.7-5.7,20.5-10.7
	l-8.5-5.6c-2.2,3.4-5.9,6.7-12,6.7c-6.9,0-10-3.8-12-7.4l32.8-13.6l-1.7-4C315,150.6,307.6,144.1,297.8,144.1L297.8,144.1z
	 M298.3,153.5c4.5,0,7.7,2.4,9.1,5.2l-21.9,9.2C284.5,160.8,291.2,153.5,298.3,153.5L298.3,153.5z"/>
<path id="path3015" class="st3" d="M259.4,191.6h10.8v-72.1h-10.8V191.6z"/>
</svg>
