<?xml version="1.0" encoding="utf-8"?>
<!-- Generator: Adobe Illustrator 19.1.0, SVG Export Plug-In . SVG Version: 6.00 Build 0)  -->
<svg version="1.1" id="Layer_1" xmlns="http://www.w3.org/2000/svg" xmlns:xlink="http://www.w3.org/1999/xlink" x="0px" y="0px"
	 viewBox="0 0 300.2 70.4" style="enable-background:new 0 0 300.2 70.4;" xml:space="preserve">
<style type="text/css">
	.st0{clip-path:url(#SVGID_2_);fill:#60B013;}
	.st1{clip-path:url(#SVGID_4_);fill:#60B013;}
	.st2{clip-path:url(#SVGID_6_);fill:#7A8591;}
</style>
<g>
	<g>
		<defs>
			<rect id="SVGID_1_" y="0" width="300.2" height="70.4"/>
		</defs>
		<clipPath id="SVGID_2_">
			<use xlink:href="#SVGID_1_"  style="overflow:visible;"/>
		</clipPath>
		<path class="st0" d="M35.7,0C16.3,0,0.5,15.8,0.5,35.2c0,7.9,2.6,15.2,7,21L2,61.8c-2,2-2,5.2,0,7.2c1,1,2.3,1.5,3.6,1.5
			S8.2,70,9.2,69l5.5-5.5c5.9,4.4,13.2,7,21,7C55.2,70.4,71,54.7,71,35.2C71,15.8,55.2,0,35.7,0 M35.7,61.5
			c-14.5,0-26.3-11.8-26.3-26.3S21.2,8.9,35.7,8.9S62,20.7,62,35.2C62,49.7,50.3,61.5,35.7,61.5"/>
	</g>
</g>
<g>
	<g>
		<defs>
			<rect id="SVGID_3_" y="0" width="300.2" height="70.4"/>
		</defs>
		<clipPath id="SVGID_4_">
			<use xlink:href="#SVGID_3_"  style="overflow:visible;"/>
		</clipPath>
		<path class="st1" d="M38.4,47.4v-6.7h-5.3v6.7H21.7V28.9l14.1-9.7l14.1,9.7v18.5"/>
	</g>
</g>
<g>
	<g>
		<defs>
			<rect id="SVGID_5_" y="0" width="300.2" height="70.4"/>
		</defs>
		<clipPath id="SVGID_6_">
			<use xlink:href="#SVGID_5_"  style="overflow:visible;"/>
		</clipPath>
		<path class="st2" d="M119,42.3c0,4.6,1.4,8.5,4.2,11.6c2.8,3.1,6.3,4.6,10.9,4.6c4.6,0,8.4-1.2,11.4-3.5c0.3-0.3,0.5-0.4,0.5-0.5
			c-0.1,0-0.1-0.2-0.3-0.5l-1.3-1.8c-0.2-0.1-0.3-0.2-0.3-0.2c-0.2,0.1-0.5,0.2-1,0.5c-2.7,1.7-5.6,2.5-8.4,2.5c-3,0-5.7-1.2-8-3.4
			c-2.3-2.3-3.5-4.9-3.7-7.8l-0.1-0.9H147c0.4,0,0.6-0.1,0.6-0.6c0.1-0.8,0.2-1.5,0.2-2.1c0-4-1.3-7.4-3.9-10.1
			c-2.6-2.7-5.9-4-9.9-4c-4.6,0-8.1,1.5-10.9,4.7C120.4,33.8,119,37.7,119,42.3 M126.6,32.1c2-1.8,4.6-2.7,7.5-2.7
			c2.6,0,4.9,1,6.9,2.9c1.9,1.9,2.9,4.2,3,6.8l0.1,0.9h-21.1L123,39C123.3,36.2,124.5,33.9,126.6,32.1 M200.4,57.4
			c0.2,0.2,0.4,0.3,0.5,0.3h2.6c0.1,0,0.3,0,0.5-0.3c0.2-0.2,0.3-0.4,0.3-0.5V39.8c0-9.3-3.9-13.8-11.8-13.8
			c-3.5,0-7.4,1.7-11.6,5.1l-0.7,0.6l-0.5-0.8c-2-3.3-5.2-4.9-9.7-4.9c-1.9,0-3.7,0.3-5.3,1c-1.7,0.6-2.8,1.3-3.5,2l-2.1,2l-1.1-3.8
			c-0.1-0.3-0.2-0.4-0.5-0.4h-1.6c-0.2,0-0.4,0.1-0.5,0.2c-0.2,0.2-0.2,0.4-0.2,0.5v29.4c0,0.1,0,0.3,0.2,0.5
			c0.2,0.2,0.3,0.2,0.5,0.2h2.5c0.1,0,0.3,0,0.5-0.3c0.2-0.2,0.3-0.4,0.3-0.5V34.9l1.2-1.3c0.8-0.9,2-1.7,3.6-2.5
			c1.7-0.9,3.4-1.2,5.3-1.2c3.9,0,8.5,1.7,8.5,10v17.1c0,0.1,0,0.3,0.2,0.5c0.2,0.2,0.3,0.2,0.5,0.2h2.6c0.2,0,0.4-0.1,0.5-0.2
			c0.2-0.2,0.2-0.4,0.2-0.5V39.8c0-1.5-0.1-3-0.4-4.5l-0.1-0.4l0.3-0.3c3.4-3.2,6.9-4.8,10.4-4.8c3.7,0,8.1,1.7,8.1,10v17.1
			C200.1,57,200.2,57.2,200.4,57.4 M235.7,57.4c0.2,0.2,0.3,0.2,0.5,0.2h2.6c0.2,0,0.4-0.1,0.5-0.2c0.2-0.2,0.2-0.4,0.2-0.5V39.8
			c0-9.3-3.9-13.8-11.8-13.8c-1.9,0-3.8,0.3-5.5,1c-1.8,0.6-3.1,1.3-4,2l-2.3,1.8l-1.1-3.7c-0.1-0.3-0.2-0.4-0.5-0.4h-1.6
			c-0.2,0-0.4,0.1-0.5,0.2c-0.2,0.2-0.2,0.4-0.2,0.5v29.4c0,0.1,0,0.3,0.2,0.5c0.2,0.2,0.3,0.2,0.5,0.2h2.5c0.1,0,0.3,0,0.5-0.3
			c0.2-0.2,0.3-0.4,0.3-0.5v-22l1.6-1.4c0.9-0.8,2.2-1.6,4-2.4c1.9-0.8,3.8-1.2,5.6-1.2c2.6,0,4.6,0.9,6,2.6
			c1.4,1.7,2.1,4.1,2.1,7.4v17.1C235.5,57,235.5,57.2,235.7,57.4 M245.8,42.3c0,4.6,1.4,8.5,4.2,11.6c2.8,3.1,6.3,4.6,10.9,4.6
			c4.6,0,8.4-1.2,11.4-3.5c0.3-0.3,0.5-0.4,0.5-0.5c-0.1,0-0.1-0.2-0.3-0.5l-1.3-1.8c-0.2-0.1-0.3-0.2-0.3-0.2
			c-0.2,0.1-0.5,0.2-1,0.5c-2.7,1.7-5.6,2.5-8.4,2.5c-3,0-5.7-1.2-8-3.4c-2.3-2.3-3.5-4.9-3.7-7.8l-0.1-0.9h24.2
			c0.4,0,0.6-0.1,0.6-0.6c0.1-0.8,0.2-1.5,0.2-2.1c0-4-1.3-7.4-3.9-10.1c-2.6-2.7-5.9-4-9.9-4c-4.6,0-8.1,1.5-10.9,4.7
			C247.2,33.8,245.8,37.7,245.8,42.3 M253.5,32.1c2-1.8,4.6-2.7,7.5-2.7c2.6,0,4.9,1,6.9,2.9c1.9,1.9,2.9,4.2,3,6.8l0.1,0.9h-21.1
			l0.1-0.9C250.2,36.2,251.4,33.9,253.5,32.1 M300,54.9l-1.2-2c-0.2-0.3-0.4-0.3-0.4-0.3c-0.1,0-0.2,0-0.4,0.2
			c-2.3,1.2-4.5,1.9-6.3,1.9c-1.2,0-2.2-0.4-2.7-1.1c-0.5-0.7-0.8-1.8-0.8-3.6V30h10.2c0.2,0,0.4-0.1,0.5-0.2
			c0.2-0.2,0.2-0.3,0.2-0.5v-1.8c0-0.6-0.2-0.8-0.8-0.8h-10.2v-9.9c0-0.2-0.1-0.4-0.2-0.5c-0.2-0.2-0.3-0.2-0.4-0.2l-2.5,0.2
			c-0.3,0-0.4,0.1-0.5,0.2c-0.2,0.2-0.2,0.4-0.2,0.5v9.8h-5.1c-0.6,0-0.8,0.2-0.8,0.8v1.8c0,0.2,0.1,0.4,0.2,0.5s0.3,0.2,0.5,0.2
			h4.9v20.3c0,2.7,0.5,4.8,1.3,6.2c0.9,1.3,2.6,1.9,5.3,1.9c1.6,0,3.3-0.3,5-0.9c1.8-0.6,3.1-1.2,3.9-1.7
			C300.2,55.5,300.2,55.3,300,54.9 M108.8,57.4c0.2,0.2,0.4,0.3,0.5,0.3h2.6c0.1,0,0.3,0,0.5-0.3c0.2-0.2,0.3-0.4,0.3-0.5V39.8
			c0-4.5-1-8-3.1-10.3c-2-2.4-4.9-3.5-8.7-3.5c-1.8,0-3.7,0.3-5.3,1c-1.7,0.6-3,1.3-3.8,2l-2.6,2.2V9.9c0-0.2-0.1-0.4-0.2-0.5
			c-0.2-0.2-0.3-0.2-0.4-0.2L86,9.3c-0.3,0-0.4,0.1-0.5,0.2c-0.2,0.2-0.2,0.4-0.2,0.5v46.8c0,0.1,0,0.3,0.3,0.5
			c0.2,0.2,0.4,0.3,0.5,0.3h2.5c0.2,0,0.4-0.1,0.5-0.2c0.2-0.2,0.2-0.4,0.2-0.5V34.8l1.5-1.4c1-0.9,2.3-1.6,4.1-2.4s3.8-1.2,5.7-1.2
			c2.6,0,4.6,0.9,6,2.6c1.4,1.7,2.1,4.1,2.1,7.4v17.1C108.6,57,108.6,57.2,108.8,57.4"/>
	</g>
</g>
</svg>
