<?xml version="1.0" encoding="utf-8"?>
<!-- Generator: Adobe Illustrator 18.1.1, SVG Export Plug-In . SVG Version: 6.00 Build 0)  -->
<svg version="1.1" id="Layer_1" xmlns="http://www.w3.org/2000/svg" xmlns:xlink="http://www.w3.org/1999/xlink" x="0px" y="0px"
	 viewBox="0 0 32 32" enable-background="new 0 0 32 32" xml:space="preserve">
<circle fill="#6D6E71" cx="16" cy="16" r="16"/>
<g>
	<path fill="#FFFFFF" d="M8,10.1l7.1,5.6c0,0,0.4,0.4,0.8,0.4s0.7-0.1,0.9-0.3l7.2-5.6c0,0,0-0.4-0.8-0.4H8.7
		C8.7,9.8,8.2,9.9,8,10.1z"/>
	<polygon fill="#FFFFFF" points="7.7,11.1 13.8,16.3 7.7,20.8 	"/>
	<polygon fill="#FFFFFF" points="18.2,16.4 24.3,11.3 24.3,20.8 	"/>
	<path fill="#FFFFFF" d="M14.2,16.7c0,0,1,1.1,1.9,1.1c0.9,0,1.8-1.1,1.8-1.1l5.9,4.6H8.1L14.2,16.7z"/>
</g>
</svg>
