<?xml version="1.0" encoding="utf-8"?>
<!-- Generator: Adobe Illustrator 18.1.1, SVG Export Plug-In . SVG Version: 6.00 Build 0)  -->
<svg version="1.1" id="Layer_1" xmlns="http://www.w3.org/2000/svg" xmlns:xlink="http://www.w3.org/1999/xlink" x="0px" y="0px"
	 viewBox="0 0 32 32" enable-background="new 0 0 32 32" xml:space="preserve">
<circle fill="#26A7DF" cx="16" cy="16" r="16"/>
<path fill="#FFFFFF" d="M7.9,9c0,0,2.9,3.8,7.9,4.1c0,0-0.7-2.3,1.4-4c2.1-1.7,4.7-0.3,5.2,0.4c0,0,1.5-0.2,2.5-0.9
	c0,0-0.3,1.3-1.6,2.1c0,0,1.5-0.2,2.1-0.6c0,0-0.7,1.1-1.9,2c0,0,0.5,4.8-3.6,8.8C15.8,24.9,9,24,6.6,22c0,0,3.3,0.4,5.7-1.6
	c0,0-2.8-0.1-3.6-2.6c0,0,1.4,0.1,1.6-0.2c0,0-3-0.7-3-3.8c0,0,0.9,0.5,1.7,0.5C9,14.2,6.1,12.1,7.9,9z"/>
</svg>
