<?xml version="1.0" encoding="utf-8"?>
<!-- Generator: Adobe Illustrator 19.1.1, SVG Export Plug-In . SVG Version: 6.00 Build 0)  -->
<svg version="1.1" id="Lager_1" xmlns="http://www.w3.org/2000/svg" xmlns:xlink="http://www.w3.org/1999/xlink" x="0px" y="0px"
	 viewBox="115 217.6 529.5 167.4" style="enable-background:new 115 217.6 529.5 167.4;" xml:space="preserve">
<style type="text/css">
	.st0{clip-path:url(#SVGID_2_);fill:#D90000;}
	.st1{clip-path:url(#SVGID_4_);fill:#D90000;}
	.st2{fill:#D90000;}
	.st3{clip-path:url(#SVGID_6_);fill:#D90000;}
	.st4{clip-path:url(#SVGID_8_);fill:#D90000;}
	.st5{clip-path:url(#SVGID_10_);fill:#D90000;}
	.st6{clip-path:url(#SVGID_12_);fill:#D90000;}
</style>
<g>
	<g>
		<g>
			<defs>
				<rect id="SVGID_1_" x="140" y="240.3" width="490.2" height="120.8"/>
			</defs>
			<clipPath id="SVGID_2_">
				<use xlink:href="#SVGID_1_"  style="overflow:visible;"/>
			</clipPath>
			<path class="st0" d="M176,348.3c-6.6-2.1-9.8-6.6-9.8-13.4c-6.9,0-11.3-3.2-13.4-9.8c-0.1,0.2-0.1,0.3-0.1,0.5
				c-1.1,5-2.1,10-3.2,15c-0.1,0.4,0.1,0.6,0.3,0.8c3.3,3.3,6.6,6.6,9.9,9.9c0.4,0.4,0.7,0.5,1.2,0.3c3.5-0.8,7-1.5,10.5-2.3
				C172.9,348.9,174.4,348.6,176,348.3 M215.8,262.9c7.5,7.5,14.9,14.9,22.4,22.4c0.1-0.1,0.2-0.2,0.3-0.3c2.2-2.2,4.4-4.5,6.6-6.8
				c3.5-3.6,3.5-8.9-0.1-12.5c-3.3-3.3-6.5-6.5-9.8-9.8c-3.5-3.5-8.8-3.5-12.4-0.1c-2,1.9-3.9,3.9-5.9,5.8
				C216.7,262.1,216.2,262.5,215.8,262.9 M211.6,267.1c-0.1,0.1-0.3,0.3-0.4,0.4c-12.7,12.5-25.3,24.9-38,37.4
				c-4.3,4.2-8.6,8.4-12.8,12.6c-2.6,2.6-2.7,6.7-0.2,9.4c2.7,2.9,7.1,3,10,0.1c16.7-16.8,33.5-33.6,50.2-50.4
				c0.1-0.1,0.3-0.3,0.3-0.4C217.7,273.2,214.7,270.1,211.6,267.1 M140,357.4c2.5-11.6,5-23.2,7.5-34.8c0.1-0.4,0.3-0.7,0.5-1
				c23.7-23.3,47.3-46.6,71-69.8c5.8-5.7,14.7-5.7,20.4,0.1c3.2,3.2,6.5,6.5,9.7,9.7c5.9,6,6,14.7,0.1,20.7
				c-23.2,23.6-46.5,47.2-69.7,70.8c-0.2,0.2-0.5,0.4-0.8,0.5c-12.3,2.7-22.8,4.8-35.1,7.5C141.9,361.5,139.6,359.9,140,357.4"/>
		</g>
		<g>
			<defs>
				<rect id="SVGID_3_" x="140" y="240.3" width="490.2" height="120.8"/>
			</defs>
			<clipPath id="SVGID_4_">
				<use xlink:href="#SVGID_3_"  style="overflow:visible;"/>
			</clipPath>
			<path class="st1" d="M333.7,249.7c0-1.1,0.3-1.5,1.5-1.5h66c1.1,0,1.5,0.3,1.5,1.4v104.5c0,1.1-0.4,1.4-1.4,1.4h-66.1
				c-1.1,0-1.4-0.4-1.4-1.4V249.7H333.7z M408.1,249.8c0-0.6,0-1.4-0.2-2.2c-0.8-3-3.3-4.9-6.6-4.9h-66.1c-4.2,0-7,2.8-7,7v104.6
				c0,4,2.9,6.8,6.8,6.8c9.1,0,17.9,0,26.5,0c13.8,0,26.9,0,39.8,0c0.6,0,1.2-0.1,1.8-0.2c3.1-0.8,5-3.3,5-6.7v-49.6
				C408.1,286.3,408.1,268.1,408.1,249.8"/>
		</g>
	</g>
	<rect x="339.1" y="259.8" class="st2" width="58.2" height="80.7"/>
	<g>
		<g>
			<defs>
				<rect id="SVGID_5_" x="140" y="240.3" width="490.2" height="120.8"/>
			</defs>
			<clipPath id="SVGID_6_">
				<use xlink:href="#SVGID_5_"  style="overflow:visible;"/>
			</clipPath>
			<path class="st3" d="M368.2,343.8c-1.1,0-2.2,0.4-3,1.2c-0.8,0.8-1.2,1.9-1.2,3l0,0c0,2.3,1.9,4.2,4.2,4.2c2.3,0,4.2-1.9,4.2-4.2
				C372.4,345.8,370.5,343.9,368.2,343.8"/>
		</g>
		<g>
			<defs>
				<rect id="SVGID_7_" x="140" y="240.3" width="490.2" height="120.8"/>
			</defs>
			<clipPath id="SVGID_8_">
				<use xlink:href="#SVGID_7_"  style="overflow:visible;"/>
			</clipPath>
			<path class="st4" d="M368.2,256.4c0.6,0,1.2-0.2,1.6-0.7c0.4-0.4,0.7-1,0.7-1.6c0-1.2-1-2.3-2.3-2.3c-0.6,0-1.2,0.2-1.7,0.7
				c-0.4,0.4-0.7,1-0.7,1.6l0,0C365.9,255.4,366.9,256.4,368.2,256.4"/>
		</g>
		<g>
			<defs>
				<rect id="SVGID_9_" x="140" y="240.3" width="490.2" height="120.8"/>
			</defs>
			<clipPath id="SVGID_10_">
				<use xlink:href="#SVGID_9_"  style="overflow:visible;"/>
			</clipPath>
			<path class="st5" d="M571,256.7c-2.2-1.6-4.5-3.2-6.7-4.8c-0.2-0.1-0.5-0.3-0.8-0.3c-0.4,0-0.7,0.2-0.8,0.3
				c-12.9,9.2-25.9,18.4-38.8,27.6l-9.1,6.5c-2.8,2-5.5,3.9-8.3,5.9c-0.4,0.3-0.9,0.5-1.3,0.5c-0.9,0-1.6-0.7-1.8-1.7
				c0-0.1,0-0.1,0-0.2l0,0c0.1-0.7,0.4-1.3,1-1.7c3.7-2.6,7.4-5.2,11.1-7.9l46.6-33.1c0.6-0.4,1-0.6,1.4-0.6s0.8,0.2,1.4,0.6
				l52.1,37l1.6,1.1c1.3,0.9,2.6,1.9,4,2.8c0.8,0.6,1.1,1.3,0.9,2.1c-0.1,0.8-0.6,1.3-1.5,1.5c-0.1,0-0.3,0.1-0.4,0.1
				c-0.4,0-0.7-0.2-1.2-0.5c-3.3-2.4-6.6-4.7-9.9-7.1L571,256.7z M552.4,314c0-0.4,0-0.6,0-0.6s0.2-0.1,0.6-0.1h20.9
				c0.5,0,0.6,0,0.6,0l0,0c0,0,0.1,0.1,0.1,0.6v40.4h-22.2V314z M581.1,313.9c0-3.3-2-6-5.1-6.8c-0.6-0.2-1.2-0.2-1.9-0.2
				c-4.2,0-8.3,0-12.5,0c-3,0-5.9,0-8.9,0c-4,0-7,3-7,7c0,8.5,0,22,0,30.5v10.1h-29.3V347c0-17.8,0-35.7,0-53.5
				c0-0.4,0.1-0.5,0.3-0.7c15.9-11.3,31.5-22.4,46.4-33.1c0.2-0.1,0.2-0.1,0.3-0.1c0,0,0.1,0,0.3,0.2c15.4,11,31,22.1,46.4,33
				c0.3,0.2,0.4,0.4,0.4,0.8c0,17.7,0,35.5,0,53.2v7.8h-29.3V345C581.1,336.2,581.1,322.5,581.1,313.9 M541.6,248.6v0.9
				c0,1.4,0,2.9,0,4.3c0,0.1-0.1,0.2-0.1,0.3c-3.4,2.4-6.8,4.9-10.1,7.3l-0.8,0.6v-13.1c0-0.1,0-0.2,0-0.4s0-0.4,0-0.5
				c0.1,0,0.3,0,0.5,0h9.8c0.5,0,0.6,0.1,0.6,0.1C541.5,248,541.6,248.1,541.6,248.6 M626.4,283.3c-1.7-1.2-3.4-2.4-5-3.6l-2.7-1.9
				l-39.2-28c-3.6-2.6-7.2-5.1-10.8-7.7c-1.6-1.2-3.5-1.8-5.3-1.8c-1.8,0-3.6,0.6-5.2,1.8c-2.4,1.8-4.9,3.5-7.3,5.2
				c-1,0.7-2,1.4-3,2.1v-0.1c0-0.8,0.1-1.6-0.1-2.3c-0.6-3.3-3.4-5.6-7-5.6c-1.5,0-2.9,0-4.4,0c-1.9,0-3.8,0-5.7,0
				c-0.7,0-1.3,0.1-1.8,0.2c-3.2,0.7-5.3,3.4-5.3,6.9c0,6.3,0,12.1,0,17.8c0,0.4-0.1,0.5-0.4,0.7c-7.6,5.4-15.2,10.9-22.8,16.3
				c-2.3,1.7-3.5,3.7-3.8,6.1s0.5,4.8,2.2,6.6s4,2.9,6.4,2.9c0.8,0,1.5-0.1,2.2-0.3c0.8-0.2,1.5-0.6,2.2-0.9c0.1,0,0.1-0.1,0.1-0.1
				v5.9c0,17.9,0,35.7,0,53.6v0.1c0,0.4,0,0.9,0.1,1.3c0.4,1.7,1.6,2.5,3.6,2.5h100.1h0.1c2-0.1,3.3-1.3,3.4-3.3c0-0.2,0-0.4,0-0.7
				v-59.4c0.4,0.2,0.8,0.4,1.2,0.6c1.1,0.5,2.2,0.8,3.5,0.8c3.1,0,6-1.7,7.4-4.4C631.3,290.4,630.2,286,626.4,283.3"/>
		</g>
		<g>
			<defs>
				<rect id="SVGID_11_" x="140" y="240.3" width="490.2" height="120.8"/>
			</defs>
			<clipPath id="SVGID_12_">
				<use xlink:href="#SVGID_11_"  style="overflow:visible;"/>
			</clipPath>
			<path class="st6" d="M558.7,329.8c-2.3,0-4.3,2-4.3,4.3s1.9,4.3,4.2,4.3h0.1c2.3,0,4.2-1.9,4.3-4.2c0-1.1-0.4-2.2-1.3-3.1
				C560.9,330.2,559.8,329.8,558.7,329.8"/>
		</g>
	</g>
	<g>
		<path class="st2" d="M288.2,313.2v12.3h-9.6v-12.3h-12.3v-8.8h12.3v-12.3h9.6v12.3h12.3v8.8C300.5,313.2,288.2,313.2,288.2,313.2z
			"/>
	</g>
	<g>
		<path class="st2" d="M435.3,306.2v-8.4h34.1v8.4H435.3z M435.3,319.6v-8.3h34.1v8.3H435.3z"/>
	</g>
</g>
</svg>
