<?xml version="1.0" encoding="utf-8"?>
<!-- Generator: Adobe Illustrator 19.1.1, SVG Export Plug-In . SVG Version: 6.00 Build 0)  -->
<svg version="1.1" id="Layer_1" xmlns="http://www.w3.org/2000/svg" xmlns:xlink="http://www.w3.org/1999/xlink" x="0px" y="0px"
	 viewBox="0 0 980 120" style="enable-background:new 0 0 980 120;" xml:space="preserve">
<style type="text/css">
	.st0{fill:#D80201;}
	.st1{fill:#FFFFFF;}
</style>
<path class="st0" d="M206.2,75.9H49.4c-8.3,0-15.1-6.8-15.1-15.1v0c0-8.3,6.8-15.1,15.1-15.1h156.8c8.3,0,15.1,6.8,15.1,15.1v0
	C221.3,69.1,214.5,75.9,206.2,75.9z"/>
<g>
	<path class="st1" d="M70.1,66.7l-4.2-5.3l-0.3,0.3v5h-2.3V54.9h2.3v5l4.3-5h2.9l-5,5.4l5.2,6.3H70.1z"/>
	<path class="st1" d="M79.6,67c-3.5,0-6.3-2.6-6.3-6.1c0-3.5,2.8-6.2,6.3-6.2c3.5,0,6.3,2.7,6.3,6.1C85.9,64.3,83,67,79.6,67z
		 M79.6,56.8c-2.2,0-3.9,1.9-3.9,4c0,2.2,1.7,4.1,3.9,4.1c2.2,0,3.9-1.9,3.9-4.1C83.5,58.6,81.8,56.8,79.6,56.8z"/>
	<path class="st1" d="M98.8,66.7l-1-7.2l-3.2,7.4h-0.6l-3.1-7.4l-1.2,7.2h-2.3l2.2-12h1.6l3.2,7.7l3.3-7.7h1.6l2,12H98.8z"/>
	<path class="st1" d="M107.7,66.7V54.9h2.3v11.7H107.7z"/>
	<path class="st1" d="M123.8,62.6c-0.5,2.7-2.9,4.3-5.6,4.3c-3.6,0-6.2-2.5-6.2-6.1c0-3.6,2.7-6.2,6.2-6.2c2.1,0,3.9,0.9,5,2.8
		l-2,1.1c-0.7-1.1-1.7-1.7-3.1-1.7c-2.3,0-3.9,1.8-3.9,4.1c0,2.2,1.6,4,3.9,4c1.5,0,2.9-0.9,3.1-2.5h-2.8v-2h5.4v0.3
		C123.9,61.3,123.9,62,123.8,62.6z"/>
	<path class="st1" d="M133.6,66.7l-1-2.5h-4.8l-1.1,2.5h-2.4l5.1-12h1.7l4.9,12H133.6z M130.2,58.1l-1.7,4.2h3.4L130.2,58.1z
		 M130.2,53.8c-0.9,0-1.6-0.7-1.6-1.6c0-0.9,0.7-1.6,1.6-1.6s1.6,0.7,1.6,1.6C131.8,53.1,131.1,53.8,130.2,53.8z M130.2,51.5
		c-0.4,0-0.7,0.3-0.7,0.7c0,0.4,0.3,0.7,0.7,0.7s0.7-0.3,0.7-0.7C130.8,51.8,130.5,51.5,130.2,51.5z"/>
	<path class="st1" d="M146.9,66.9l-7.1-8.2v7.9h-2.3v-12h1.6l7.1,8.2v-7.9h2.3v12H146.9z"/>
	<path class="st1" d="M162.3,62.6c-0.5,2.7-2.9,4.3-5.6,4.3c-3.6,0-6.2-2.5-6.2-6.1c0-3.6,2.7-6.2,6.2-6.2c2.1,0,3.9,0.9,5,2.8
		l-2,1.1c-0.7-1.1-1.7-1.7-3.1-1.7c-2.3,0-3.9,1.8-3.9,4.1c0,2.2,1.6,4,3.9,4c1.5,0,2.9-0.9,3.1-2.5H157v-2h5.4v0.3
		C162.4,61.3,162.4,62,162.3,62.6z"/>
</g>
<polygon class="st1" points="186.5,62.3 174.2,62.3 174.2,59.1 186.5,59.1 186.5,54.4 195.3,60.7 186.5,66.8 "/>
</svg>
