<?xml version="1.0" encoding="utf-8"?>
<!-- Generator: Adobe Illustrator 19.1.1, SVG Export Plug-In . SVG Version: 6.00 Build 0)  -->
<svg version="1.1" id="Layer_1" xmlns="http://www.w3.org/2000/svg" xmlns:xlink="http://www.w3.org/1999/xlink" x="0px" y="0px"
	 viewBox="0 0 980 120" style="enable-background:new 0 0 980 120;" xml:space="preserve">
<style type="text/css">
	.st0{fill:#D4AC76;}
</style>
<g>
	<path class="st0" d="M354.6,92.3V79.2h3.5c1.8,0,3.3,0.6,4.6,1.9c1.3,1.3,1.9,2.8,1.9,4.6c0,1.9-0.6,3.5-1.9,4.7s-2.8,1.9-4.7,1.9
		H354.6z M358.2,80.9h-1.8v9.6h1.8c1.3,0,2.4-0.5,3.2-1.4s1.3-2.1,1.3-3.4c0-1.4-0.5-2.5-1.4-3.4S359.5,80.9,358.2,80.9z"/>
	<path class="st0" d="M367.8,92.3V79.2h1.8v13.1H367.8z"/>
	<path class="st0" d="M372,80.9v-1.8h10.6v1.8h-4.4v11.4h-1.8V80.9H372z"/>
	<path class="st0" d="M383.9,80.9v-1.8h10.6v1.8h-4.4v11.4h-1.8V80.9H383.9z"/>
	<path class="st0" d="M403,92.3V79.2h1.3l7.1,9v-9h1.8v13.1h-1l-7.4-9.4v9.4H403z"/>
	<path class="st0" d="M424.3,79.2h2.1L422,87v5.3h-1.8v-5.2l-4.4-7.9h2.2l3.2,5.8L424.3,79.2z"/>
	<path class="st0" d="M425.8,92.3l5.3-13.1h1.7l5.2,13.1h-2l-0.8-2h-6.4l-0.8,2H425.8z M431.9,82.2l-2.6,6.4h5L431.9,82.2z"/>
	<path class="st0" d="M454.5,92.3v-5.7h-6.4v5.7h-1.8V79.2h1.8v5.7h6.4v-5.7h1.8v13.1H454.5z"/>
	<path class="st0" d="M467.7,86.6h-5.4v4h5.8v1.8h-7.6V79.2h7.5v1.8h-5.7v3.9h5.4V86.6z"/>
	<path class="st0" d="M471.3,92.3V79.2h1.9l4.2,7l4.3-7h1.8v13.1h-1.8v-9.7l-0.1,0l-4.2,6.8l-4.1-6.7h-0.1v9.6H471.3z"/>
	<path class="st0" d="M497.1,92.3L492,79.2h2.1l3.9,10.1l3.9-10.1h2l-5.1,13.1H497.1z"/>
	<path class="st0" d="M503.7,92.3l5.3-13.1h1.7l5.2,13.1h-2l-0.8-2h-6.4l-0.8,2H503.7z M508.5,77.8c-0.2,0.2-0.4,0.3-0.7,0.3
		c-0.3,0-0.5-0.1-0.6-0.3c-0.2-0.2-0.3-0.4-0.3-0.7s0.1-0.5,0.3-0.7s0.4-0.3,0.6-0.3c0.3,0,0.5,0.1,0.7,0.3s0.3,0.4,0.3,0.7
		S508.7,77.6,508.5,77.8z M509.8,82.2l-2.6,6.4h5L509.8,82.2z M512.1,77.8c-0.2,0.2-0.4,0.3-0.7,0.3c-0.3,0-0.5-0.1-0.7-0.3
		c-0.2-0.2-0.3-0.4-0.3-0.7s0.1-0.5,0.3-0.7c0.2-0.2,0.4-0.3,0.7-0.3c0.3,0,0.5,0.1,0.7,0.3s0.3,0.4,0.3,0.7S512.3,77.6,512.1,77.8z
		"/>
	<path class="st0" d="M518.2,92.3V79.2h1.3l7.1,9v-9h1.8v13.1h-1L520,83v9.4H518.2z"/>
	<path class="st0" d="M530.8,80.9v-1.8h10.6v1.8h-4.4v11.4h-1.8V80.9H530.8z"/>
	<path class="st0" d="M541,92.3l5.3-13.1h1.7l5.2,13.1h-2l-0.8-2h-6.4l-0.8,2H541z M547.1,82.2l-2.6,6.4h5L547.1,82.2z"/>
	<path class="st0" d="M555.4,92.3V79.2h4.9c1.2,0,2.2,0.4,3,1.1s1.2,1.8,1.2,3c0,1.1-0.3,2-1,2.7s-1.5,1.2-2.5,1.3l3.8,5h-2.3
		l-3.8-5h-1.5v5H555.4z M560.1,80.9h-2.8v4.7h2.8c0.8,0,1.4-0.2,1.9-0.6c0.5-0.4,0.7-1,0.7-1.7c0-0.7-0.2-1.2-0.7-1.7
		C561.4,81.2,560.8,80.9,560.1,80.9z"/>
	<path class="st0" d="M573.5,92.3V79.2h4.5c1.2,0,2.2,0.4,3,1.2c0.8,0.8,1.2,1.9,1.2,3.1c0,1.2-0.4,2.3-1.3,3.1
		c-0.8,0.8-1.9,1.2-3.1,1.2h-2.6v4.5H573.5z M577.9,80.9h-2.5v5.2h2.5c0.8,0,1.4-0.2,1.8-0.7c0.5-0.5,0.7-1.1,0.7-1.8
		c0-0.8-0.2-1.4-0.7-1.9C579.2,81.2,578.6,80.9,577.9,80.9z"/>
	<path class="st0" d="M582.7,92.3l5.3-13.1h1.7l5.2,13.1h-2l-0.8-2h-6.4l-0.8,2H582.7z M588.8,82.2l-2.6,6.4h5L588.8,82.2z
		 M590,78.3c-0.3,0.3-0.8,0.5-1.3,0.5c-0.5,0-0.9-0.2-1.3-0.5S587,77.5,587,77s0.2-0.9,0.5-1.3s0.8-0.5,1.3-0.5
		c0.5,0,0.9,0.2,1.3,0.5c0.3,0.3,0.5,0.8,0.5,1.3S590.4,78,590,78.3z M588.8,77.8c0.2,0,0.4-0.1,0.5-0.2c0.1-0.1,0.2-0.3,0.2-0.5
		c0-0.2-0.1-0.4-0.2-0.5c-0.1-0.1-0.3-0.2-0.5-0.2c-0.2,0-0.4,0.1-0.5,0.2S588,76.8,588,77c0,0.2,0.1,0.4,0.2,0.5
		S588.6,77.8,588.8,77.8z"/>
	<path class="st0" d="M603.1,92.3V79.2h3.5c1.8,0,3.3,0.6,4.6,1.9c1.3,1.3,1.9,2.8,1.9,4.6c0,1.9-0.6,3.5-1.9,4.7
		c-1.3,1.2-2.8,1.9-4.7,1.9H603.1z M606.7,80.9h-1.8v9.6h1.8c1.3,0,2.4-0.5,3.2-1.4s1.3-2.1,1.3-3.4c0-1.4-0.5-2.5-1.4-3.4
		S607.9,80.9,606.7,80.9z"/>
	<path class="st0" d="M616.3,92.3V79.2h1.8v13.1H616.3z"/>
	<path class="st0" d="M630.4,86.6v-1.8h4.4v0.9c0,1.9-0.7,3.6-2,4.8c-1.3,1.3-2.9,1.9-4.8,1.9c-1.9,0-3.5-0.7-4.8-2
		c-1.3-1.3-1.9-2.9-1.9-4.9s0.6-3.5,1.9-4.9c1.3-1.3,2.9-2,4.8-2c1,0,1.9,0.2,2.8,0.5s1.6,0.9,2.3,1.5l-1.4,1.4
		c-1-1.1-2.2-1.7-3.7-1.7c-1.4,0-2.6,0.5-3.5,1.5c-0.9,1-1.4,2.2-1.4,3.6c0,1.4,0.5,2.6,1.4,3.6c0.9,1,2.1,1.5,3.5,1.5
		c1.2,0,2.3-0.4,3.2-1.2c0.9-0.8,1.4-1.8,1.7-3H630.4z"/>
</g>
</svg>
