<?xml version="1.0" encoding="utf-8"?>
<!-- Generator: Adobe Illustrator 19.2.0, SVG Export Plug-In . SVG Version: 6.00 Build 0)  -->
<svg version="1.1" id="Layer_1" xmlns="http://www.w3.org/2000/svg" xmlns:xlink="http://www.w3.org/1999/xlink" x="0px" y="0px"
	 viewBox="0 0 980 120" style="enable-background:new 0 0 980 120;" xml:space="preserve">
<style type="text/css">
	.st0{fill:#00AADD;}
	.st1{fill:#EF2626;}
	.st2{fill:#FFFFFF;}
</style>
<g>
	<path class="st2" d="M885.6,43.6c2.3,0,3.5,1.5,3.5,3.6c0,1.5-0.8,2.3-1.4,2.7c0.8,0.4,1.8,1.2,1.8,3c0,2.2-1.4,3.7-3.8,3.7h-4.9
		v-13H885.6z M885.2,49.3c1.5,0,2.1-0.9,2.1-2.1c0-1.3-0.6-2.1-2.1-2.1h-2.6v4.3H885.2z M885.3,55.2c1.6,0,2.3-0.8,2.3-2.2
		c0-1.5-0.7-2.2-2.3-2.2h-2.7v4.5H885.3z"/>
	<path class="st2" d="M896.6,43.4c3.1,0,5.1,2,5.1,6.7c0,4.7-1.9,6.7-5.1,6.7c-3.2,0-5.1-2-5.1-6.7
		C891.5,45.5,893.5,43.4,896.6,43.4z M896.6,45c-1.9,0-3.2,1.2-3.2,5.1c0,4,1.2,5.1,3.2,5.1c1.9,0,3.2-1.2,3.2-5.1
		C899.7,46.1,898.5,45,896.6,45z"/>
	<path class="st2" d="M911.2,43.8c0.2-0.1,0.6-0.1,0.9-0.1c0.4,0,0.7,0.1,1,0.1l-4.1,5.9l4.6,6.8c0,0-0.4,0.1-1.1,0.1
		c-0.7,0-1.1-0.1-1.1-0.1l-4-5.9h-1.3v5.9c0,0-0.3,0.1-0.9,0.1c-0.6,0-0.9-0.1-0.9-0.1V43.8c0,0,0.3-0.1,0.9-0.1
		c0.6,0,0.9,0.1,0.9,0.1v5.4h1.3L911.2,43.8z"/>
	<path class="st2" d="M919.7,43.6c0.7,0,1.1,0.1,1.1,0.1l4.5,12.7c0,0-0.3,0.1-1,0.1c-0.6,0-0.9-0.1-0.9-0.1l-1.1-3.2H917l-1.1,3.2
		c0,0-0.3,0.1-0.9,0.1c-0.6,0-0.8-0.1-0.8-0.1l4.5-12.7C918.6,43.8,919.1,43.6,919.7,43.6z M919.6,45.6c0,0-0.2,0.7-0.5,1.6
		l-1.7,4.6h4.3l-1.6-4.6C919.8,46.3,919.7,45.6,919.6,45.6L919.6,45.6z"/>
	<path class="st2" d="M938,43.6c0,0,0.1,0.3,0.1,0.8c0,0.5-0.1,0.8-0.1,0.8h-3.3v11.3c0,0-0.3,0.1-0.9,0.1c-0.6,0-0.9-0.1-0.9-0.1
		V45.2h-3.4c0,0-0.1-0.3-0.1-0.8c0-0.4,0.1-0.8,0.1-0.8H938z"/>
	<path class="st2" d="M940.2,43.8c0,0,0.3-0.1,0.9-0.1c0.6,0,0.9,0.1,0.9,0.1v12.7c0,0-0.3,0.1-0.9,0.1c-0.6,0-0.9-0.1-0.9-0.1V43.8
		z"/>
	<path class="st2" d="M949.2,43.6c3.3,0,5.3,1.7,5.3,6.5s-2,6.5-5.3,6.5h-4v-13H949.2z M949.1,55.1c2.1,0,3.5-0.9,3.5-5
		c0-4.1-1.4-5-3.5-5h-2v9.9H949.1z"/>
	<path class="st2" d="M906.9,69.9c-0.7-1.2-1.1-2.3-1.1-2.3h-0.1c0,0,0.1,1.2,0.1,3v7.5c0,0-0.3,0.1-0.9,0.1c-0.6,0-0.8-0.1-0.8-0.1
		V65.4c0,0,0.4-0.1,1.1-0.1s1.1,0.1,1.1,0.1l4.5,8.1c0.6,1.2,1.1,2.4,1.1,2.4h0.1c0,0-0.1-1.3-0.1-3v-7.5c0,0,0.3-0.1,0.9-0.1
		s0.8,0.1,0.8,0.1v12.7c0,0-0.3,0.1-1.1,0.1s-1.1-0.1-1.1-0.1L906.9,69.9z"/>
	<path class="st2" d="M925.8,73.8c0,2.9-1.8,4.6-4.6,4.6c-2.7,0-4.5-1.7-4.5-4.6v-8.4c0,0,0.3-0.1,0.9-0.1c0.6,0,0.9,0.1,0.9,0.1
		v8.7c0,1.7,1,2.7,2.7,2.7c1.7,0,2.7-1,2.7-2.7v-8.7c0,0,0.3-0.1,0.9-0.1s0.9,0.1,0.9,0.1V73.8z"/>
	<path class="st2" d="M928.7,65.4c0,0,0.3-0.1,1-0.1c0.6,0,1,0.1,1,0.1l-0.3,9.4c0,0-0.2,0.1-0.6,0.1c-0.4,0-0.7-0.1-0.7-0.1
		L928.7,65.4z M930.6,78.1c0,0-0.3,0.1-0.9,0.1c-0.6,0-0.9-0.1-0.9-0.1v-1.7c0,0,0.3-0.1,0.9-0.1c0.6,0,0.9,0.1,0.9,0.1V78.1z"/>
</g>
</svg>
