<?xml version="1.0" encoding="utf-8"?>
<!-- Generator: Adobe Illustrator 19.1.1, SVG Export Plug-In . SVG Version: 6.00 Build 0)  -->
<svg version="1.1" id="Layer_1" xmlns="http://www.w3.org/2000/svg" xmlns:xlink="http://www.w3.org/1999/xlink" x="0px" y="0px"
	 viewBox="0 0 980 120" style="enable-background:new 0 0 980 120;" xml:space="preserve">
<style type="text/css">
	.st0{fill:#D4AC76;}
</style>
<g>
	<path class="st0" d="M306.7,60V26.8h9.5c4.6,0,8.5,1.6,11.8,4.8c3.3,3.2,4.9,7.2,4.9,12s-1.7,8.8-5,11.9c-3.3,3.1-7.3,4.6-12,4.6
		H306.7z M316.3,32.3h-3.8v22.1h3.8c2.9,0,5.4-1.1,7.4-3.2c2-2.1,3-4.8,3-7.9c0-3.1-1-5.8-3-7.9C321.6,33.4,319.2,32.3,316.3,32.3z"
		/>
	<path class="st0" d="M343,60V26.8h6.2V60H343z"/>
	<path class="st0" d="M357.7,32.7v-6h27.4v6h-10.6V60h-6.2V32.7H357.7z"/>
	<path class="st0" d="M391.4,32.7v-6h27.4v6h-10.6V60h-6.2V32.7H391.4z"/>
	<path class="st0" d="M445.5,60V26.8h6.2V54H464v6H445.5z"/>
	<path class="st0" d="M473.4,60V26.8h6.2V60H473.4z"/>
	<path class="st0" d="M500.5,60l-12.7-33.2h6.5l9.1,23.9l9-23.9h6.3L506.2,60H500.5z"/>
	<path class="st0" d="M534.6,60.4c-2.1,0-4.2-0.4-6.3-1.3c-2.1-0.9-3.9-2.1-5.4-3.6l4-4.7c1,1.2,2.2,2.2,3.7,3
		c1.5,0.8,2.9,1.2,4.4,1.2s2.6-0.4,3.5-1.1c0.9-0.8,1.4-1.7,1.4-2.9c0-2.1-1.2-3.6-3.6-4.6l-3.7-1.5c-2.5-1-4.3-2.3-5.5-3.7
		c-1.2-1.4-1.8-3.3-1.8-5.7s0.9-4.5,2.8-6.3s4.2-2.8,7-2.8c4.1,0,7.6,1.3,10.2,3.8l-3.7,4.6c-1.8-1.9-4-2.9-6.6-2.9
		c-1.2,0-2.2,0.3-3,1c-0.7,0.6-1.1,1.4-1.1,2.3s0.3,1.7,0.9,2.3s1.5,1.2,2.9,1.7l3.9,1.6c4.9,2,7.4,5.2,7.5,9.6c0,3-1,5.4-3.1,7.3
		C540.9,59.5,538.1,60.4,534.6,60.4z"/>
	<path class="st0" d="M564.8,60l-12.7-33.2h6.5l9.1,23.9l9-23.9h6.3L570.5,60H564.8z"/>
	<path class="st0" d="M609.9,45.9h-12.3v8.5h13.5V60h-19.7V26.8h19.4v5.5h-13.1v8.1h12.3V45.9z"/>
	<path class="st0" d="M621.6,60V26.8h13c3.2,0,5.9,1,8,3c2.1,2,3.2,4.6,3.2,7.9c0,2.6-0.8,4.9-2.4,6.7c-1.6,1.8-3.7,3-6.2,3.5
		l8.9,12.1h-7l-8.6-11.9h-2.7V60H621.6z M633.7,32.3h-5.8v10.8h5.8c1.8,0,3.2-0.5,4.3-1.5c1.1-1,1.6-2.3,1.6-3.8
		c0-1.6-0.6-2.9-1.7-3.9C636.8,32.8,635.4,32.3,633.7,32.3z"/>
	<path class="st0" d="M656,60V26.8h5.8v14.7l12.7-14.7h7.7L670.4,40l12,20h-7.2l-9.1-15.2l-4.4,5V60H656z"/>
</g>
</svg>
