<?xml version="1.0" encoding="utf-8"?>
<!-- Generator: Adobe Illustrator 19.2.0, SVG Export Plug-In . SVG Version: 6.00 Build 0)  -->
<svg version="1.1" id="Layer_1" xmlns="http://www.w3.org/2000/svg" xmlns:xlink="http://www.w3.org/1999/xlink" x="0px" y="0px"
	 viewBox="0 0 980 120" style="enable-background:new 0 0 980 120;" xml:space="preserve">
<style type="text/css">
	.st0{fill:#00AADD;}
	.st1{fill:#EF2626;}
	.st2{fill:#FFFFFF;}
</style>
<g>
	<path class="st0" d="M436.3,104.4c-0.4-1.4-0.5-2.3-0.5-2.9h-0.1c0,0.6-0.2,1.5-0.6,2.9l-1.6,5.4c-0.3,0.1-0.7,0.1-1.1,0.1
		c-0.4,0-0.8,0-1.2-0.1l-3-10.2c0,0,0.4-0.1,1-0.1c0.7,0,0.9,0.1,0.9,0.1l1.9,6.4c0.3,0.9,0.4,1.5,0.4,2h0.1c0.1-0.4,0.2-1.1,0.4-2
		l1.8-6.4c0,0,0.5-0.1,1.1-0.1c0.7,0,1,0.1,1,0.1l1.8,6.3c0.3,0.9,0.4,1.6,0.4,2h0.1c0.1-0.4,0.2-1.1,0.5-2l1.9-6.4
		c0,0,0.3-0.1,0.9-0.1c0.6,0,0.9,0.1,0.9,0.1l-3,10.2c-0.4,0.1-0.7,0.1-1.1,0.1c-0.4,0-0.8,0-1.2-0.1L436.3,104.4z"/>
	<path class="st0" d="M452.2,104.4c-0.4-1.4-0.5-2.3-0.5-2.9h-0.1c0,0.6-0.2,1.5-0.6,2.9l-1.6,5.4c-0.3,0.1-0.7,0.1-1.1,0.1
		c-0.4,0-0.8,0-1.2-0.1l-3-10.2c0,0,0.4-0.1,1-0.1c0.7,0,0.9,0.1,0.9,0.1l1.9,6.4c0.3,0.9,0.4,1.5,0.4,2h0.1c0.1-0.4,0.2-1.1,0.4-2
		l1.8-6.4c0,0,0.5-0.1,1.1-0.1c0.7,0,1,0.1,1,0.1l1.8,6.3c0.3,0.9,0.4,1.6,0.4,2h0.1c0.1-0.4,0.2-1.1,0.5-2l1.9-6.4
		c0,0,0.3-0.1,0.9-0.1c0.6,0,0.9,0.1,0.9,0.1l-3,10.2c-0.4,0.1-0.7,0.1-1.1,0.1c-0.4,0-0.8,0-1.2-0.1L452.2,104.4z"/>
	<path class="st0" d="M468.2,104.4c-0.4-1.4-0.5-2.3-0.5-2.9h-0.1c0,0.6-0.2,1.5-0.6,2.9l-1.6,5.4c-0.3,0.1-0.7,0.1-1.1,0.1
		c-0.4,0-0.8,0-1.2-0.1l-3-10.2c0,0,0.4-0.1,1-0.1c0.7,0,0.9,0.1,0.9,0.1l1.9,6.4c0.3,0.9,0.4,1.5,0.4,2h0.1c0.1-0.4,0.2-1.1,0.4-2
		l1.8-6.4c0,0,0.5-0.1,1.1-0.1c0.7,0,1,0.1,1,0.1l1.8,6.3c0.3,0.9,0.4,1.6,0.4,2h0.1c0.1-0.4,0.2-1.1,0.5-2l1.9-6.4
		c0,0,0.3-0.1,0.9-0.1c0.6,0,0.9,0.1,0.9,0.1l-3,10.2c-0.4,0.1-0.7,0.1-1.1,0.1c-0.4,0-0.8,0-1.2-0.1L468.2,104.4z"/>
	<path class="st0" d="M478.2,109.9c0,0-0.4,0.1-1,0.1c-0.7,0-1-0.1-1-0.1V108c0,0,0.3-0.1,1-0.1c0.7,0,1,0.1,1,0.1V109.9z"/>
	<path class="st0" d="M484.6,99.3c2.9,0,3.8,1.3,3.8,3.9v6.7c0,0-0.2,0.1-0.8,0.1c-0.5,0-0.8-0.1-0.8-0.1l-0.3-1.3
		c-0.5,1.1-1.6,1.6-3.1,1.6c-1.9,0-3.1-1.1-3.1-3.3c0-2.2,1.3-3.1,3.8-3.1c0.9,0,1.8,0.1,2.3,0.1v-0.7c0-1.4-0.5-2.1-2.1-2.1
		c-1.4,0-2.7,0.5-2.7,0.5c0,0-0.3-0.2-0.5-0.6c-0.2-0.4-0.1-0.8-0.1-0.8C481.1,100,482.6,99.3,484.6,99.3z M484.4,105.1
		c-1.3,0-2,0.5-2,1.8c0,1.3,0.7,1.8,1.7,1.8c1.6,0,2.3-1.3,2.3-2.8v-0.7C486,105.2,485.2,105.1,484.4,105.1z"/>
	<path class="st0" d="M491.2,99.6c0,0,0.3-0.1,1-0.1c0.7,0,1,0.1,1,0.1v7.2c0,1.1,0.6,1.8,1.9,1.8c0.9,0,1.7-0.5,2.3-1.3v-7.7
		c0,0,0.4-0.1,1-0.1c0.7,0,1,0.1,1,0.1v10.2c0,0-0.3,0.1-1,0.1c-0.6,0-1-0.1-1-0.1v-0.9c-0.7,0.8-1.8,1.3-3,1.3c-2,0-3.1-1.2-3.1-3
		V99.6z"/>
	<path class="st0" d="M504.9,106.2c0,1.8,0.6,2.4,2,2.4c0.4,0,0.8-0.1,0.8-0.1s0.1,0.3,0.1,0.8s-0.1,0.7-0.1,0.7
		c-0.4,0.1-0.9,0.2-1.4,0.2c-2.5,0-3.4-1.3-3.4-3.9V101h-1.5c0,0-0.1-0.3-0.1-0.7c0-0.5,0.1-0.8,0.1-0.8h1.5v-1.8
		c0.5-0.3,1.3-0.5,2-0.4v2.2h2.6c0,0,0.1,0.3,0.1,0.7c0,0.5-0.1,0.8-0.1,0.8h-2.6V106.2z"/>
	<path class="st0" d="M513.8,99.3c2.8,0,4.4,1.5,4.4,5.5s-1.7,5.5-4.4,5.5c-2.7,0-4.4-1.5-4.4-5.5S511,99.3,513.8,99.3z
		 M513.8,100.8c-1.5,0-2.4,0.8-2.4,3.9c0,3.1,0.9,3.9,2.4,3.9c1.5,0,2.4-0.8,2.4-3.9C516.2,101.7,515.2,100.8,513.8,100.8z"/>
	<path class="st0" d="M524,99.3c2,0,2.8,0.5,2.8,0.5c0,0.5-0.2,1.1-0.5,1.4c0,0-1-0.3-2.1-0.3c-1.4,0-2,0.5-2,1.4
		c0,1,1.3,1.2,2.5,1.6c1.3,0.4,2.7,1,2.7,3c0,2-1.3,3.2-3.8,3.2c-2.1,0-3.3-0.7-3.3-0.7c0-0.6,0.2-1.1,0.5-1.5c0,0,1.3,0.5,2.7,0.5
		c1.2,0,1.9-0.5,1.9-1.4c0-1.1-1.1-1.3-2.3-1.7c-1.4-0.4-2.8-1-2.8-3C520.2,100.5,521.4,99.3,524,99.3z"/>
	<path class="st0" d="M531.2,105.4c0.2,2.4,1.1,3.1,2.8,3.1c1.4,0,2.4-0.6,2.4-0.6c0.4,0.3,0.6,0.9,0.6,1.4c0,0-1.1,0.8-3.3,0.8
		c-3.1,0-4.5-1.9-4.5-5.5c0-3.8,1.8-5.4,4.4-5.4c2.5,0,4,1.4,4,4c0,1.3-0.2,2.1-0.2,2.1H531.2z M533.6,100.9c-1.3,0-2.2,0.9-2.4,3.1
		h4.3c0-0.2,0.1-0.5,0.1-0.9C535.5,101.9,535.1,100.9,533.6,100.9z"/>
	<path class="st0" d="M544.3,99.3c0.7,0,1.3,0.2,1.7,0.5c-0.1,0.7-0.3,1.2-0.9,1.7c-0.4-0.3-0.8-0.4-1.2-0.4c-0.8,0-1.5,0.6-2.1,1.5
		v7.3c0,0-0.3,0.1-1,0.1c-0.7,0-1-0.1-1-0.1V99.6c0,0,0.3-0.1,1-0.1c0.7,0,1,0.1,1,0.1v1.4C542.6,99.7,543.5,99.3,544.3,99.3z"/>
	<path class="st0" d="M550.9,105.9c0.4,1.1,0.6,2.1,0.6,2.1h0.1c0,0,0.2-1,0.6-2.1l2.2-6.3c0,0,0.3-0.1,0.9-0.1
		c0.6,0,0.9,0.1,0.9,0.1l-3.5,10.2c0,0-0.5,0.1-1.2,0.1c-0.7,0-1.2-0.1-1.2-0.1l-3.6-10.2c0,0,0.4-0.1,1-0.1c0.7,0,1,0.1,1,0.1
		L550.9,105.9z"/>
	<path class="st0" d="M560.2,97.5c0,0-0.4,0.1-1,0.1c-0.7,0-1-0.1-1-0.1v-1.9c0,0,0.3-0.1,1-0.1c0.7,0,1,0.1,1,0.1V97.5z
		 M560.1,109.9c0,0-0.3,0.1-1,0.1c-0.7,0-1-0.1-1-0.1V99.6c0,0,0.3-0.1,1-0.1c0.7,0,1,0.1,1,0.1V109.9z"/>
	<path class="st0" d="M564.7,104.7c0,2.6,0.8,3.8,2.8,3.8c1.1,0,1.9-0.3,1.9-0.3c0.3,0.3,0.6,0.9,0.6,1.4c0,0-0.9,0.6-2.9,0.6
		c-2.9,0-4.4-1.9-4.4-5.5c0-3.6,1.5-5.5,4.4-5.5c1.9,0,2.7,0.5,2.7,0.5c0,0.5-0.2,1.1-0.6,1.4c0,0-0.7-0.3-1.8-0.3
		C565.4,100.9,564.7,102.1,564.7,104.7z"/>
	<path class="st0" d="M573.6,105.4c0.2,2.4,1.1,3.1,2.8,3.1c1.4,0,2.4-0.6,2.4-0.6c0.4,0.3,0.6,0.9,0.6,1.4c0,0-1.1,0.8-3.3,0.8
		c-3.1,0-4.5-1.9-4.5-5.5c0-3.8,1.8-5.4,4.4-5.4c2.5,0,4,1.4,4,4c0,1.3-0.2,2.1-0.2,2.1H573.6z M576,100.9c-1.3,0-2.2,0.9-2.4,3.1
		h4.3c0-0.2,0.1-0.5,0.1-0.9C578,101.9,577.5,100.9,576,100.9z"/>
	<path class="st0" d="M584.3,100.6c0.6-0.8,1.5-1.3,2.9-1.3c2.3,0,3.8,1.4,3.8,5.5c0,4.1-1.5,5.5-3.8,5.5c-1.4,0-2.3-0.5-2.9-1.3v1
		c0,0-0.3,0.1-1,0.1c-0.7,0-1-0.1-1-0.1V95.1c0,0,0.3-0.1,1-0.1c0.7,0,1,0.1,1,0.1V100.6z M586.5,100.9c-1.4,0-2.2,1.2-2.2,2.5v2.6
		c0,1.4,0.8,2.6,2.2,2.6c1.6,0,2.4-0.8,2.4-3.8C588.9,101.8,588.1,100.9,586.5,100.9z"/>
	<path class="st0" d="M597.4,99.3c2.8,0,4.4,1.5,4.4,5.5s-1.7,5.5-4.4,5.5c-2.7,0-4.4-1.5-4.4-5.5S594.7,99.3,597.4,99.3z
		 M597.4,100.8c-1.5,0-2.4,0.8-2.4,3.9c0,3.1,0.9,3.9,2.4,3.9c1.5,0,2.4-0.8,2.4-3.9C599.8,101.7,598.9,100.8,597.4,100.8z"/>
	<path class="st0" d="M606.8,106.2c0,1.8,0.6,2.4,2,2.4c0.4,0,0.8-0.1,0.8-0.1s0.1,0.3,0.1,0.8s-0.1,0.7-0.1,0.7
		c-0.4,0.1-0.9,0.2-1.4,0.2c-2.5,0-3.4-1.3-3.4-3.9V101h-1.5c0,0-0.1-0.3-0.1-0.7c0-0.5,0.1-0.8,0.1-0.8h1.5v-1.8
		c0.5-0.3,1.3-0.5,2-0.4v2.2h2.6c0,0,0.1,0.3,0.1,0.7c0,0.5-0.1,0.8-0.1,0.8h-2.6V106.2z"/>
	<path class="st0" d="M617.6,99.6c0,0,0.4-0.1,1-0.1c0.6,0,1,0.1,1,0.1l-3.1,4.8l3.5,5.5c0,0-0.4,0.2-1.1,0.2
		c-0.7,0-1.1-0.2-1.1-0.2l-3-4.6h-1.1v4.6c0,0-0.4,0.1-1,0.1c-0.6,0-1-0.1-1-0.1V95.1c0,0,0.4-0.1,1-0.1c0.5,0,1,0.1,1,0.1v8.7h1.1
		L617.6,99.6z"/>
	<path class="st0" d="M626.5,111.5c-0.7,2.2-1.4,3.5-3.6,3.5c-0.7,0-1.1-0.2-1.1-0.2c0,0-0.1-0.3-0.1-0.7c0-0.4,0.1-0.8,0.2-0.8
		c0,0,0.4,0.1,0.9,0.1c0.9,0,1.4-0.2,2-2.1l0.4-1.2c-0.2,0-0.4,0-0.6-0.1l-3.8-10.2c0,0,0.4-0.1,1-0.1c0.7,0,1,0.1,1,0.1l2.3,6.1
		c0.5,1.4,0.7,2.3,0.7,2.3h0.1c0,0,0.2-0.9,0.6-2.3l2-6.1c0,0,0.3-0.1,1-0.1c0.6,0,0.9,0.1,0.9,0.1L626.5,111.5z"/>
	<path class="st0" d="M636.7,99.3c0.7,0,1.3,0.2,1.7,0.5c-0.1,0.7-0.3,1.2-0.9,1.7c-0.4-0.3-0.8-0.4-1.2-0.4c-0.8,0-1.5,0.6-2.1,1.5
		v7.3c0,0-0.3,0.1-1,0.1c-0.7,0-1-0.1-1-0.1V99.6c0,0,0.3-0.1,1-0.1c0.7,0,1,0.1,1,0.1v1.4C635,99.7,635.9,99.3,636.7,99.3z"/>
	<path class="st0" d="M646,99.6c0,0,0.4-0.1,1-0.1c0.6,0,1,0.1,1,0.1l-3.1,4.8l3.5,5.5c0,0-0.4,0.2-1.1,0.2c-0.7,0-1.1-0.2-1.1-0.2
		l-3-4.6h-1.1v4.6c0,0-0.4,0.1-1,0.1c-0.6,0-1-0.1-1-0.1V95.1c0,0,0.4-0.1,1-0.1c0.5,0,1,0.1,1,0.1v8.7h1.1L646,99.6z"/>
	<path class="st0" d="M653.8,99.3c2.9,0,3.8,1.3,3.8,3.9v6.7c0,0-0.2,0.1-0.8,0.1c-0.5,0-0.8-0.1-0.8-0.1l-0.3-1.3
		c-0.5,1.1-1.6,1.6-3.1,1.6c-1.9,0-3.1-1.1-3.1-3.3c0-2.2,1.3-3.1,3.8-3.1c0.9,0,1.8,0.1,2.3,0.1v-0.7c0-1.4-0.5-2.1-2.1-2.1
		c-1.4,0-2.7,0.5-2.7,0.5c0,0-0.3-0.2-0.5-0.6c-0.2-0.4-0.1-0.8-0.1-0.8C650.3,100,651.8,99.3,653.8,99.3z M653.6,105.1
		c-1.3,0-2,0.5-2,1.8c0,1.3,0.7,1.8,1.7,1.8c1.6,0,2.3-1.3,2.3-2.8v-0.7C655.2,105.2,654.4,105.1,653.6,105.1z"/>
	<path class="st0" d="M662.4,109.9c0,0-0.4,0.1-1,0.1c-0.7,0-1-0.1-1-0.1V108c0,0,0.3-0.1,1-0.1c0.7,0,1,0.1,1,0.1V109.9z"/>
	<path class="st0" d="M668.4,99.3c2,0,2.8,0.5,2.8,0.5c0,0.5-0.2,1.1-0.5,1.4c0,0-1-0.3-2.1-0.3c-1.4,0-2,0.5-2,1.4
		c0,1,1.3,1.2,2.5,1.6c1.3,0.4,2.7,1,2.7,3c0,2-1.3,3.2-3.8,3.2c-2.1,0-3.3-0.7-3.3-0.7c0-0.6,0.2-1.1,0.5-1.5c0,0,1.3,0.5,2.7,0.5
		c1.2,0,1.9-0.5,1.9-1.4c0-1.1-1.1-1.3-2.3-1.7c-1.4-0.4-2.8-1-2.8-3C664.7,100.5,665.9,99.3,668.4,99.3z"/>
	<path class="st0" d="M675.7,105.4c0.2,2.4,1.1,3.1,2.8,3.1c1.4,0,2.4-0.6,2.4-0.6c0.4,0.3,0.6,0.9,0.6,1.4c0,0-1.1,0.8-3.3,0.8
		c-3.1,0-4.5-1.9-4.5-5.5c0-3.8,1.8-5.4,4.4-5.4c2.5,0,4,1.4,4,4c0,1.3-0.2,2.1-0.2,2.1H675.7z M678,100.9c-1.3,0-2.2,0.9-2.4,3.1
		h4.3c0-0.2,0.1-0.5,0.1-0.9C680,101.9,679.5,100.9,678,100.9z"/>
</g>
</svg>
