<?xml version="1.0" encoding="utf-8"?>
<!-- Generator: Adobe Illustrator 19.1.1, SVG Export Plug-In . SVG Version: 6.00 Build 0)  -->
<svg version="1.1" id="Layer_1" xmlns="http://www.w3.org/2000/svg" xmlns:xlink="http://www.w3.org/1999/xlink" x="0px" y="0px"
	 viewBox="0 0 980 120" style="enable-background:new 0 0 980 120;" xml:space="preserve">
<style type="text/css">
	.st0{fill:#D4AC76;}
</style>
<g>
	<path class="st0" d="M830.5,56.7v-10h3.1c0.9,0,1.6,0.3,2.2,0.8c0.6,0.5,0.9,1.2,0.9,2c0,0.9-0.4,1.7-1.2,2.2
		c0.5,0.2,0.8,0.5,1.1,0.9c0.3,0.4,0.4,0.8,0.4,1.4c0,0.9-0.3,1.5-0.9,2.1c-0.6,0.5-1.3,0.8-2.2,0.8H830.5z M833.5,48h-1.5V51h1.8
		c0.4,0,0.8-0.1,1.1-0.4c0.3-0.3,0.5-0.7,0.5-1.2c0-0.4-0.2-0.8-0.5-1.1S834,48,833.5,48z M833.8,52.3h-1.8v3.1h1.7
		c0.6,0,1-0.1,1.4-0.4c0.3-0.3,0.5-0.7,0.5-1.1c0-0.4-0.2-0.8-0.5-1.1S834.4,52.3,833.8,52.3z"/>
	<path class="st0" d="M845.4,52.3h-4.1v3.1h4.4v1.3h-5.8v-10h5.7V48h-4.3v3h4.1V52.3z"/>
	<path class="st0" d="M851.1,56.8c-0.6,0-1.3-0.1-1.9-0.4c-0.6-0.3-1.1-0.6-1.6-1.1l1-1.1c0.3,0.4,0.7,0.7,1.2,0.9s0.9,0.4,1.4,0.4
		c0.5,0,1-0.1,1.3-0.4c0.3-0.3,0.5-0.6,0.5-1.1c0-0.7-0.4-1.3-1.3-1.6l-1.2-0.5c-0.7-0.3-1.3-0.7-1.6-1.1s-0.5-1-0.5-1.6
		c0-0.7,0.3-1.4,0.8-1.9c0.6-0.5,1.2-0.8,2-0.8c1.2,0,2.1,0.4,2.9,1.1l-0.8,1.1c-0.6-0.6-1.3-0.9-2.1-0.9c-0.4,0-0.8,0.1-1.1,0.3
		c-0.3,0.2-0.4,0.5-0.4,0.9c0,0.3,0.1,0.6,0.3,0.8s0.5,0.4,1,0.6l1.2,0.5c1.5,0.6,2.2,1.5,2.1,2.9c0,0.9-0.3,1.6-0.9,2.1
		S852.1,56.8,851.1,56.8z"/>
	<path class="st0" d="M855.9,48v-1.3h8.1V48h-3.4v8.7h-1.4V48H855.9z"/>
	<path class="st0" d="M864,56.7l4-10h1.3l4,10h-1.6l-0.6-1.5h-4.9l-0.6,1.5H864z M867.6,45.6c-0.1,0.1-0.3,0.2-0.5,0.2
		c-0.2,0-0.4-0.1-0.5-0.2s-0.2-0.3-0.2-0.5s0.1-0.4,0.2-0.5s0.3-0.2,0.5-0.2c0.2,0,0.4,0.1,0.5,0.2c0.1,0.1,0.2,0.3,0.2,0.5
		S867.8,45.4,867.6,45.6z M868.7,48.9l-2,4.9h3.9L868.7,48.9z M870.4,45.6c-0.1,0.1-0.3,0.2-0.5,0.2s-0.4-0.1-0.5-0.2
		s-0.2-0.3-0.2-0.5s0.1-0.4,0.2-0.5s0.3-0.2,0.5-0.2s0.4,0.1,0.5,0.2s0.2,0.3,0.2,0.5S870.6,45.4,870.4,45.6z"/>
	<path class="st0" d="M875.4,56.7v-10h1.4v8.7h4.1v1.3H875.4z"/>
	<path class="st0" d="M883.4,56.7v-10h1.4v8.7h4.1v1.3H883.4z"/>
	<path class="st0" d="M898.9,56.7l-3.9-10h1.6l3,7.7l3-7.7h1.5l-3.9,10H898.9z"/>
	<path class="st0" d="M904.4,56.7l4-10h1.3l4,10h-1.6l-0.6-1.5h-4.9l-0.6,1.5H904.4z M909.1,48.9l-2,4.9h3.9L909.1,48.9z M910,45.9
		c-0.3,0.3-0.6,0.4-1,0.4c-0.4,0-0.7-0.1-1-0.4s-0.4-0.6-0.4-1c0-0.4,0.1-0.7,0.4-1c0.3-0.3,0.6-0.4,1-0.4c0.4,0,0.7,0.1,1,0.4
		c0.3,0.3,0.4,0.6,0.4,1C910.4,45.3,910.3,45.7,910,45.9z M909.1,45.5c0.1,0,0.3-0.1,0.4-0.2c0.1-0.1,0.2-0.2,0.2-0.4
		c0-0.2-0.1-0.3-0.2-0.4s-0.2-0.2-0.4-0.2c-0.2,0-0.3,0.1-0.4,0.2s-0.2,0.2-0.2,0.4c0,0.1,0.1,0.3,0.2,0.4
		C908.8,45.5,908.9,45.5,909.1,45.5z"/>
	<path class="st0" d="M915.8,56.7v-10h3.7c0.9,0,1.7,0.3,2.3,0.9c0.6,0.6,0.9,1.3,0.9,2.3c0,0.8-0.3,1.5-0.8,2.1
		c-0.5,0.6-1.1,0.9-1.9,1l2.9,3.8h-1.7l-2.9-3.8h-1.1v3.8H915.8z M919.3,48h-2.1v3.6h2.1c0.6,0,1.1-0.2,1.4-0.5s0.5-0.8,0.5-1.3
		c0-0.5-0.2-0.9-0.6-1.3S919.9,48,919.3,48z"/>
	<path class="st0" d="M924.3,48v-1.3h8.1V48h-3.4v8.7h-1.4V48H924.3z"/>
	<path class="st0" d="M847.7,72.3v-10h1.4l3.2,5.4l3.3-5.4h1.4v10h-1.4v-7.4l0,0l-3.2,5.2l-3.2-5.1h-0.1v7.4H847.7z"/>
	<path class="st0" d="M859.3,72.3l4-10h1.3l4,10H867l-0.6-1.5h-4.9l-0.6,1.5H859.3z M863.9,64.5l-2,4.9h3.9L863.9,64.5z"/>
	<path class="st0" d="M876.7,67.9v-1.3h3.3v0.7c0,1.5-0.5,2.7-1.6,3.7s-2.2,1.5-3.6,1.5c-1.5,0-2.7-0.5-3.7-1.5
		c-1-1-1.5-2.2-1.5-3.7s0.5-2.7,1.5-3.7c1-1,2.2-1.5,3.7-1.5c0.7,0,1.4,0.1,2.1,0.4c0.7,0.3,1.2,0.7,1.7,1.2l-1,1.1
		c-0.8-0.9-1.7-1.3-2.8-1.3c-1.1,0-2,0.4-2.7,1.1c-0.7,0.8-1.1,1.7-1.1,2.7c0,1.1,0.4,2,1.1,2.7c0.7,0.8,1.6,1.1,2.7,1.1
		c0.9,0,1.7-0.3,2.4-0.9s1.1-1.4,1.3-2.3H876.7z"/>
	<path class="st0" d="M881.3,72.3l4-10h1.3l4,10H889l-0.6-1.5h-4.9l-0.6,1.5H881.3z M886,64.5l-2,4.9h3.9L886,64.5z"/>
	<path class="st0" d="M895.4,72.4c-0.6,0-1.3-0.1-1.9-0.4c-0.6-0.3-1.1-0.6-1.6-1.1l1-1.1c0.3,0.4,0.7,0.7,1.2,0.9s0.9,0.4,1.4,0.4
		c0.5,0,1-0.1,1.3-0.4c0.3-0.3,0.5-0.6,0.5-1.1c0-0.7-0.4-1.3-1.3-1.6l-1.2-0.5c-0.7-0.3-1.3-0.7-1.6-1.1s-0.5-1-0.5-1.6
		c0-0.7,0.3-1.4,0.8-1.9c0.6-0.5,1.2-0.8,2-0.8c1.2,0,2.1,0.4,2.9,1.1l-0.8,1.1c-0.6-0.6-1.3-0.9-2.1-0.9c-0.4,0-0.8,0.1-1.1,0.3
		c-0.3,0.2-0.4,0.5-0.4,0.9c0,0.3,0.1,0.6,0.3,0.8s0.5,0.4,1,0.6l1.2,0.5c1.5,0.6,2.2,1.5,2.1,2.9c0,0.9-0.3,1.6-0.9,2.1
		S896.4,72.4,895.4,72.4z"/>
	<path class="st0" d="M901.4,72.3v-10h1.4v10H901.4z"/>
	<path class="st0" d="M906.3,72.3v-10h1l5.4,6.9v-6.9h1.4v10h-0.8l-5.6-7.2v7.2H906.3z"/>
</g>
</svg>
