<svg id="Layer_1" data-name="Layer 1" xmlns="http://www.w3.org/2000/svg" viewBox="0 0 980 120"><defs><style>.cls-1{fill:#d4ac76;}</style></defs><title>text</title><path class="cls-1" d="M330.91,84.9h-4.77v3.54h5.1V90h-6.72V78.39h6.63v1.54h-5v3.42h4.77Z"/><path class="cls-1" d="M334,79.93V78.39h9.39v1.54h-3.89V90h-1.62v-10Z"/><path class="cls-1" d="M345.72,79.93V78.39h9.39v1.54h-3.89V90H349.6v-10Z"/><path class="cls-1" d="M372.16,90V85h-5.64v5H364.9V78.39h1.62v5h5.64v-5h1.62V90Z"/><path class="cls-1" d="M382.57,90.18a4,4,0,0,1-3-1.21,4.21,4.21,0,0,1-1.18-3.06V78.39H380V85.8a3,3,0,0,0,.69,2,2.37,2.37,0,0,0,1.9.8,2.44,2.44,0,0,0,1.92-.79,2.94,2.94,0,0,0,.7-2V78.39h1.62V85.9A4.21,4.21,0,0,1,385.62,89,4.08,4.08,0,0,1,382.57,90.18Z"/><path class="cls-1" d="M394.43,90.13a5.41,5.41,0,0,1-2.17-.46,5.72,5.72,0,0,1-1.84-1.25l1.14-1.31a4.42,4.42,0,0,0,1.34,1.06,3.42,3.42,0,0,0,1.6.42,2.24,2.24,0,0,0,1.5-.49,1.56,1.56,0,0,0,.58-1.24,2,2,0,0,0-1.47-1.9l-1.37-.54a4.78,4.78,0,0,1-1.9-1.25,2.73,2.73,0,0,1-.62-1.83,2.92,2.92,0,0,1,1-2.19,3.3,3.3,0,0,1,2.37-.91,4.72,4.72,0,0,1,3.37,1.28l-1,1.31a3.2,3.2,0,0,0-2.39-1,1.83,1.83,0,0,0-1.23.4,1.34,1.34,0,0,0-.47,1.07,1.29,1.29,0,0,0,.35.9,3.24,3.24,0,0,0,1.18.72l1.39.56q2.53,1,2.44,3.31a3.17,3.17,0,0,1-1,2.44A3.89,3.89,0,0,1,394.43,90.13Z"/><path class="cls-1" d="M408.52,90V78.39h6.33v1.54h-4.71v3.64h4.17v1.54h-4.17V90Z"/><path class="cls-1" d="M423.61,90.19a5.7,5.7,0,0,1-4.18-1.72,6.23,6.23,0,0,1,0-8.6,5.93,5.93,0,0,1,8.35,0,6.18,6.18,0,0,1,0,8.58A5.7,5.7,0,0,1,423.61,90.19Zm-3-2.84a4.2,4.2,0,0,0,6.07,0,4.63,4.63,0,0,0,0-6.33,4.17,4.17,0,0,0-6.06,0,4.64,4.64,0,0,0,0,6.33Zm1.95-10.19a.76.76,0,0,1-.58.25.74.74,0,0,1-.57-.25,1,1,0,0,1,0-1.26.74.74,0,0,1,.57-.25.76.76,0,0,1,.58.25,1,1,0,0,1,0,1.26Zm3.21,0a.78.78,0,0,1-1.15,0,1,1,0,0,1,0-1.26.78.78,0,0,1,1.15,0,1,1,0,0,1,0,1.26Z"/><path class="cls-1" d="M433.57,90V78.39h4.3a3.62,3.62,0,0,1,2.61,1,3.8,3.8,0,0,1,.18,5,3.44,3.44,0,0,1-2.22,1.13L441.81,90h-2l-3.33-4.42h-1.29V90Zm4.09-10h-2.47v4.18h2.45a2.34,2.34,0,0,0,1.64-.57,2.1,2.1,0,0,0,0-3A2.26,2.26,0,0,0,437.66,79.93Z"/><path class="cls-1" d="M450.6,90l4.66-11.59h1.46L461.28,90h-1.79l-.7-1.79h-5.68L452.39,90ZM456,81l-2.25,5.6h4.46Z"/><path class="cls-1" d="M464.5,90V78.39h1.62v10h4.77V90Z"/><path class="cls-1" d="M474.45,90V78.39h1.62v10h4.77V90Z"/><path class="cls-1" d="M483.19,90l4.66-11.59h1.46L493.88,90h-1.79l-.7-1.79H485.7L485,90ZM488.58,81l-2.25,5.6h4.45Z"/><path class="cls-1" d="M502.29,90l4.66-11.59h1.46L513,90h-1.79l-.7-1.79H504.8L504.08,90ZM507.67,81l-2.25,5.6h4.46Z"/><path class="cls-1" d="M519.29,90.13a5.41,5.41,0,0,1-2.17-.46,5.7,5.7,0,0,1-1.84-1.25l1.14-1.31a4.42,4.42,0,0,0,1.34,1.06,3.42,3.42,0,0,0,1.6.42,2.24,2.24,0,0,0,1.5-.49,1.56,1.56,0,0,0,.58-1.24A2,2,0,0,0,520,85l-1.37-.54a4.78,4.78,0,0,1-1.9-1.25,2.73,2.73,0,0,1-.62-1.83,2.92,2.92,0,0,1,1-2.19,3.3,3.3,0,0,1,2.37-.91,4.72,4.72,0,0,1,3.37,1.28l-1,1.31a3.2,3.2,0,0,0-2.39-1,1.83,1.83,0,0,0-1.23.4,1.34,1.34,0,0,0-.47,1.07,1.29,1.29,0,0,0,.35.9,3.23,3.23,0,0,0,1.18.72l1.39.56q2.54,1,2.44,3.31a3.18,3.18,0,0,1-1,2.44A3.89,3.89,0,0,1,519.29,90.13Z"/><path class="cls-1" d="M527,90V78.39h4a3.64,3.64,0,0,1,2.69,1.08,3.75,3.75,0,0,1,1.08,2.76,3.63,3.63,0,0,1-1.11,2.71A3.74,3.74,0,0,1,530.93,86h-2.28v4Zm3.85-10h-2.23v4.54h2.24a2.13,2.13,0,0,0,2.24-2.25,2.25,2.25,0,0,0-.64-1.64A2.17,2.17,0,0,0,530.88,79.93Z"/><path class="cls-1" d="M545,84.9h-4.77v3.54h5.1V90H538.6V78.39h6.63v1.54h-5v3.42H545Z"/><path class="cls-1" d="M549.34,90V78.39H551v5.5l4.83-5.5H558L553.88,83l4.19,7h-2l-3.37-5.66L551,86.26V90Z"/><path class="cls-1" d="M560.52,79.93V78.39h9.39v1.54H566V90H564.4v-10Z"/><path class="cls-1" d="M579.52,84.9h-4.77v3.54h5.1V90h-6.72V78.39h6.63v1.54h-5v3.42h4.77Z"/><path class="cls-1" d="M583.87,90V78.39h4.3a3.62,3.62,0,0,1,2.61,1,3.8,3.8,0,0,1,.18,5,3.44,3.44,0,0,1-2.22,1.13L592.11,90h-2l-3.33-4.42h-1.29V90Zm4.09-10h-2.47v4.18h2.45a2.35,2.35,0,0,0,1.64-.57,2.1,2.1,0,0,0,0-3A2.26,2.26,0,0,0,588,79.93Z"/><path class="cls-1" d="M600.9,90l4.66-11.59H607L611.58,90h-1.79l-.7-1.79h-5.68L602.69,90ZM606.28,81,604,86.65h4.46Z"/><path class="cls-1" d="M617.12,90,612.6,78.39h1.82l3.48,8.91,3.48-8.91h1.79L618.63,90Z"/><path class="cls-1" d="M632.82,90V78.39h3.11A5.84,5.84,0,0,1,640,88.33,5.66,5.66,0,0,1,635.87,90Zm3.17-10h-1.55v8.5H636a3.75,3.75,0,0,0,2.86-1.24,4.28,4.28,0,0,0,1.16-3,4.14,4.14,0,0,0-1.2-3A3.87,3.87,0,0,0,636,79.93Z"/><path class="cls-1" d="M645.66,90V78.39h1.62V90Z"/><path class="cls-1" d="M659.28,84.94V83.4h3.86v.81a6,6,0,0,1-6,6,5.67,5.67,0,0,1-4.23-1.73,6.25,6.25,0,0,1,0-8.56,5.68,5.68,0,0,1,4.23-1.73,6.25,6.25,0,0,1,2.44.48,6,6,0,0,1,2,1.34l-1.2,1.22a4.1,4.1,0,0,0-3.22-1.5A4,4,0,0,0,654.06,81a4.67,4.67,0,0,0,0,6.32,4,4,0,0,0,3.08,1.31,4.13,4.13,0,0,0,2.78-1,4.38,4.38,0,0,0,1.46-2.67Z"/></svg>