<svg id="Layer_1" data-name="Layer 1" xmlns="http://www.w3.org/2000/svg" viewBox="0 0 1250 240"><defs><style>.cls-1{fill:#d4ac76;}</style></defs><title>text</title><path class="cls-1" d="M375,169.52h-7v5.2h7.48V177h-9.86V160h9.72v2.26h-7.34v5h7Z"/><path class="cls-1" d="M379.62,162.24V160h13.77v2.26h-5.7V177h-2.37V162.24Z"/><path class="cls-1" d="M396.75,162.24V160h13.78v2.26h-5.7V177h-2.38V162.24Z"/><path class="cls-1" d="M435.54,177v-7.37h-8.27V177h-2.38V160h2.38v7.37h8.27V160h2.38v17Z"/><path class="cls-1" d="M450.8,177.27a6,6,0,0,1-4.44-1.78,6.21,6.21,0,0,1-1.73-4.49V160H447v10.87a4.4,4.4,0,0,0,1,3A3.47,3.47,0,0,0,450.8,175a3.56,3.56,0,0,0,2.81-1.15,4.34,4.34,0,0,0,1-3V160H457v11a6.17,6.17,0,0,1-1.73,4.49A6,6,0,0,1,450.8,177.27Z"/><path class="cls-1" d="M468.2,177.2a7.78,7.78,0,0,1-3.18-.68,8.27,8.27,0,0,1-2.7-1.83l1.67-1.92a6.64,6.64,0,0,0,2,1.55,5,5,0,0,0,2.35.62,3.25,3.25,0,0,0,2.2-.73,2.29,2.29,0,0,0,.85-1.81,3,3,0,0,0-2.15-2.78l-2-.8a6.86,6.86,0,0,1-2.78-1.83,4,4,0,0,1-.92-2.69,4.26,4.26,0,0,1,1.41-3.21,4.82,4.82,0,0,1,3.46-1.33,6.92,6.92,0,0,1,4.94,1.87l-1.43,1.92a4.7,4.7,0,0,0-3.51-1.53,2.73,2.73,0,0,0-1.8.59,2,2,0,0,0-.69,1.58,1.9,1.9,0,0,0,.51,1.32,4.72,4.72,0,0,0,1.72,1.05l2.05.82q3.72,1.49,3.57,4.85a4.65,4.65,0,0,1-1.5,3.58A5.69,5.69,0,0,1,468.2,177.2Z"/><path class="cls-1" d="M488.87,177V160h9.28v2.26h-6.91v5.35h6.12v2.26h-6.12V177Z"/><path class="cls-1" d="M511,177.29a8.35,8.35,0,0,1-6.13-2.52,9.12,9.12,0,0,1,0-12.61,8.7,8.7,0,0,1,12.24,0,9,9,0,0,1,0,12.59A8.33,8.33,0,0,1,511,177.29Zm-4.45-4.17a6.16,6.16,0,0,0,8.9,0,6.8,6.8,0,0,0,0-9.29,6.11,6.11,0,0,0-8.89,0,6.81,6.81,0,0,0,0,9.29Zm2.86-15a1.14,1.14,0,0,1-.85.38,1.1,1.1,0,0,1-.84-.38,1.29,1.29,0,0,1-.34-.92,1.32,1.32,0,0,1,.34-.93,1.13,1.13,0,0,1,.84-.37,1.17,1.17,0,0,1,.85.37,1.33,1.33,0,0,1,.35.93A1.3,1.3,0,0,1,509.4,158.17Zm4.71,0a1.13,1.13,0,0,1-1.69,0,1.29,1.29,0,0,1-.34-.92,1.32,1.32,0,0,1,.34-.93,1.15,1.15,0,0,1,1.69,0,1.32,1.32,0,0,1,.34.93A1.29,1.29,0,0,1,514.11,158.17Z"/><path class="cls-1" d="M525.61,177V160h6.31a5.3,5.3,0,0,1,3.83,1.48,5.05,5.05,0,0,1,1.54,3.84,5,5,0,0,1-4.53,5.21l4.93,6.47h-2.93l-4.88-6.49H528V177Zm6-14.74H528v6.14h3.6a3.45,3.45,0,0,0,2.41-.84,3.09,3.09,0,0,0,0-4.41A3.34,3.34,0,0,0,531.6,162.24Z"/><path class="cls-1" d="M550.58,177l6.83-17h2.14l6.7,17h-2.63l-1-2.62h-8.34l-1,2.62Zm7.9-13.1-3.31,8.22h6.54Z"/><path class="cls-1" d="M571,177V160h2.38v14.74h7V177Z"/><path class="cls-1" d="M585.56,177V160h2.37v14.74h7V177Z"/><path class="cls-1" d="M598.38,177l6.83-17h2.15l6.7,17h-2.63l-1-2.62h-8.33L601,177Zm7.9-13.1L603,172.1h6.53Z"/><path class="cls-1" d="M626.39,177l6.83-17h2.15l6.69,17h-2.62l-1-2.62h-8.34L629,177Zm7.9-13.1L631,172.1h6.54Z"/><path class="cls-1" d="M651.33,177.2a7.86,7.86,0,0,1-3.19-.68,8.33,8.33,0,0,1-2.69-1.83l1.67-1.92a6.6,6.6,0,0,0,2,1.55,5.07,5.07,0,0,0,2.36.62,3.22,3.22,0,0,0,2.19-.73,2.26,2.26,0,0,0,.85-1.81,3,3,0,0,0-2.15-2.78l-2-.8a7,7,0,0,1-2.79-1.83,4,4,0,0,1-.91-2.69,4.29,4.29,0,0,1,1.4-3.21,4.84,4.84,0,0,1,3.47-1.33,6.94,6.94,0,0,1,4.94,1.87L655,163.55A4.7,4.7,0,0,0,651.5,162a2.71,2.71,0,0,0-1.8.59,2,2,0,0,0-.69,1.58,1.89,1.89,0,0,0,.5,1.32,4.87,4.87,0,0,0,1.73,1.05l2,.82q3.72,1.49,3.58,4.85a4.65,4.65,0,0,1-1.5,3.58A5.69,5.69,0,0,1,651.33,177.2Z"/><path class="cls-1" d="M662.69,177V160h5.8a5.37,5.37,0,0,1,4,1.58,5.52,5.52,0,0,1,1.58,4.05,5.32,5.32,0,0,1-1.63,4,5.47,5.47,0,0,1-4,1.58h-3.33V177Zm5.64-14.74h-3.26v6.67h3.28a3.12,3.12,0,0,0,3.29-3.3,3.3,3.3,0,0,0-.93-2.41A3.2,3.2,0,0,0,668.33,162.24Z"/><path class="cls-1" d="M689,169.52h-7v5.2h7.48V177h-9.86V160h9.73v2.26H682v5h7Z"/><path class="cls-1" d="M695.4,177V160h2.38V168l7.08-8.06h3.19l-6,6.74L708.21,177h-3l-5-8.3-2.53,2.85V177Z"/><path class="cls-1" d="M711.79,162.24V160h13.78v2.26h-5.7V177h-2.38V162.24Z"/><path class="cls-1" d="M739.67,169.52h-7v5.2h7.48V177H730.3V160H740v2.26h-7.35v5h7Z"/><path class="cls-1" d="M746.05,177V160h6.31a5.31,5.31,0,0,1,3.83,1.48,5.09,5.09,0,0,1,1.54,3.84,5.17,5.17,0,0,1-1.27,3.55,5.08,5.08,0,0,1-3.26,1.66l4.93,6.47H755.2l-4.88-6.49h-1.9V177Zm6-14.74h-3.62v6.14H752a3.45,3.45,0,0,0,2.41-.84,3.09,3.09,0,0,0,0-4.41A3.34,3.34,0,0,0,752,162.24Z"/><path class="cls-1" d="M771,177l6.83-17H780l6.7,17h-2.63l-1-2.62H774.7L773.65,177Zm7.9-13.1-3.31,8.22h6.53Z"/><path class="cls-1" d="M794.81,177l-6.63-17h2.67L795.94,173,801.05,160h2.62L797,177Z"/><path class="cls-1" d="M817.83,177V160h4.56a8.56,8.56,0,0,1,6,14.58,8.28,8.28,0,0,1-6,2.42Zm4.65-14.74h-2.27v12.48h2.34a5.49,5.49,0,0,0,4.19-1.83,6.27,6.27,0,0,0,1.7-4.44,6.09,6.09,0,0,0-1.76-4.42A5.69,5.69,0,0,0,822.48,162.24Z"/><path class="cls-1" d="M836.67,177V160H839v17Z"/><path class="cls-1" d="M856.64,169.59v-2.27h5.65v1.19a8.74,8.74,0,0,1-8.79,8.76,8.35,8.35,0,0,1-6.21-2.54,9.16,9.16,0,0,1,0-12.56,8.33,8.33,0,0,1,6.21-2.55,9.14,9.14,0,0,1,3.57.71,8.76,8.76,0,0,1,2.91,2l-1.76,1.8a6.21,6.21,0,0,0-9.24-.29,6.87,6.87,0,0,0,0,9.27A6,6,0,0,0,853.5,175a6,6,0,0,0,4.08-1.49,6.44,6.44,0,0,0,2.14-3.92Z"/></svg>