<svg id="Layer_1" data-name="Layer 1" xmlns="http://www.w3.org/2000/svg" viewBox="0 0 1250 240"><defs><style>.cls-1{fill:#d4ac76;}</style></defs><title>text</title><path class="cls-1" d="M1051,128.75V113.29h5.09a4.66,4.66,0,0,1,3.38,1.29,4.25,4.25,0,0,1,1.33,3.19,3.65,3.65,0,0,1-1.73,3.11,4.33,4.33,0,0,1,1.71,1.38,3.29,3.29,0,0,1,.64,2,4.24,4.24,0,0,1-1.35,3.27,4.85,4.85,0,0,1-3.42,1.25Zm4.75-12.88h-2.07v3.88H1056a2.12,2.12,0,0,0,1.54-.57,1.89,1.89,0,0,0,.59-1.43,1.65,1.65,0,0,0-.65-1.37A2.73,2.73,0,0,0,1055.78,115.87Zm.44,6.2h-2.51v4.1h2.45a2.5,2.5,0,0,0,1.75-.58,1.93,1.93,0,0,0,.64-1.5,1.91,1.91,0,0,0-.6-1.47A2.46,2.46,0,0,0,1056.22,122.07Z"/><path class="cls-1" d="M1074.31,122.21h-5.72v4h6.28v2.58h-9.18V113.29h9v2.58h-6.1v3.76h5.72Z"/><path class="cls-1" d="M1083.28,129a7.34,7.34,0,0,1-2.91-.61,7.66,7.66,0,0,1-2.51-1.69l1.84-2.2a5.53,5.53,0,0,0,1.71,1.38,4.32,4.32,0,0,0,2,.54,2.53,2.53,0,0,0,1.65-.53,1.67,1.67,0,0,0,.64-1.34,2.29,2.29,0,0,0-1.69-2.14l-1.73-.69a6.62,6.62,0,0,1-2.57-1.71,3.94,3.94,0,0,1-.83-2.62,4,4,0,0,1,1.31-2.94,4.5,4.5,0,0,1,3.28-1.29,6.65,6.65,0,0,1,4.76,1.77l-1.7,2.15a4,4,0,0,0-3.06-1.34,2.08,2.08,0,0,0-1.38.44,1.39,1.39,0,0,0-.53,1.09,1.43,1.43,0,0,0,.41,1.06,4,4,0,0,0,1.33.8l1.8.72q3.43,1.38,3.5,4.47a4.33,4.33,0,0,1-1.45,3.38A5.62,5.62,0,0,1,1083.28,129Z"/><path class="cls-1" d="M1091.11,116.07v-2.78h12.74v2.78h-4.92v12.68H1096V116.07Z"/><path class="cls-1" d="M1104,128.75l6-15.46h2.62l5.94,15.46h-3l-.82-2.14h-6.91l-.83,2.14Zm5.94-17a1.26,1.26,0,0,1-1,.41,1.28,1.28,0,0,1-1-.41,1.38,1.38,0,0,1,1-2.37,1.28,1.28,0,0,1,.94.4,1.35,1.35,0,0,1,.39,1A1.41,1.41,0,0,1,1109.93,111.7Zm1.34,5.92-2.48,6.41h4.93Zm3.26-5.92a1.44,1.44,0,0,1-1,.41,1.42,1.42,0,0,1-1-.41,1.3,1.3,0,0,1-.43-1,1.28,1.28,0,0,1,.43-1,1.41,1.41,0,0,1,1-.4,1.43,1.43,0,0,1,1,.4,1.3,1.3,0,0,1,.42,1A1.32,1.32,0,0,1,1114.53,111.7Z"/><path class="cls-1" d="M1121.73,128.75V113.29h2.9V126h5.68v2.78Z"/><path class="cls-1" d="M1134.09,128.75V113.29h2.9V126h5.68v2.78Z"/><path class="cls-1" d="M1051.14,150.75l-5.91-15.46h3l4.25,11.12,4.19-11.12h2.94l-5.86,15.46Z"/><path class="cls-1" d="M1060,150.75l6-15.46h2.62l5.94,15.46h-3l-.82-2.14h-6.91l-.83,2.14Zm7.28-11.13-2.48,6.41h4.93Zm2.24-7a2.11,2.11,0,0,1-.65,1.57,2.22,2.22,0,1,1,0-3.14A2.11,2.11,0,0,1,1069.49,132.65Zm-2.8.58a.8.8,0,0,0,.58.24.75.75,0,0,0,.57-.24.78.78,0,0,0,.23-.58.81.81,0,1,0-1.38.58Z"/><path class="cls-1" d="M1077.71,150.75V135.29h6a5.27,5.27,0,0,1,3.73,1.4,4.82,4.82,0,0,1,1.48,3.67,4.67,4.67,0,0,1-1.1,3.13,5,5,0,0,1-2.89,1.65l4.15,5.61h-3.26l-4-5.52h-1.25v5.52Zm5.6-12.88h-2.7v5h2.7a2.85,2.85,0,0,0,2-.69,2.29,2.29,0,0,0,.75-1.78,2.4,2.4,0,0,0-.77-1.83A2.75,2.75,0,0,0,1083.31,137.87Z"/><path class="cls-1" d="M1100.65,150.75V135.29h5.09a4.66,4.66,0,0,1,3.38,1.29,4.25,4.25,0,0,1,1.33,3.19,3.63,3.63,0,0,1-1.73,3.11,4.33,4.33,0,0,1,1.71,1.38,3.29,3.29,0,0,1,.64,2,4.24,4.24,0,0,1-1.35,3.27,4.85,4.85,0,0,1-3.42,1.25Zm4.75-12.88h-2.07v3.88h2.31a2.12,2.12,0,0,0,1.54-.57,1.89,1.89,0,0,0,.59-1.43,1.65,1.65,0,0,0-.65-1.37A2.73,2.73,0,0,0,1105.4,137.87Zm.44,6.2h-2.51v4.1h2.45a2.5,2.5,0,0,0,1.75-.58,1.93,1.93,0,0,0,.64-1.5,1.91,1.91,0,0,0-.6-1.47A2.46,2.46,0,0,0,1105.84,144.07Z"/><path class="cls-1" d="M1130.29,143a8,8,0,1,1-2.35-5.67A7.69,7.69,0,0,1,1130.29,143Zm-11.67,3.69a5.08,5.08,0,0,0,7.27,0,5.31,5.31,0,0,0,0-7.4,5.08,5.08,0,0,0-7.27,0,5.34,5.34,0,0,0,0,7.4Z"/><path class="cls-1" d="M1134.33,150.75V135.29H1137v6.82l5.92-6.82h3.58l-5.45,6.17,5.57,9.29h-3.34l-4.21-7.06L1137,146v4.72Z"/></svg>