<?xml version="1.0" encoding="utf-8"?>
<!-- Generator: Adobe Illustrator 19.0.0, SVG Export Plug-In . SVG Version: 6.00 Build 0)  -->
<svg version="1.1" id="Lager_1" xmlns="http://www.w3.org/2000/svg" xmlns:xlink="http://www.w3.org/1999/xlink" x="0px" y="0px"
	 viewBox="0 0 465.7 425.2" enable-background="new 0 0 465.7 425.2" xml:space="preserve">
<g>
	<polygon fill="#D90000" points="155.5,248.7 233.4,162.7 233.4,248.7 	"/>
	<polygon fill="#D90000" points="77.6,248.7 155.5,248.7 77.6,162.7 	"/>
	<polygon fill="#D90000" points="311.4,162.7 389.3,248.7 389.3,162.7 	"/>
	<polygon fill="#D90000" points="233.4,76.8 233.4,162.7 311.4,248.6 311.4,162.7 311.4,162.7 311.4,76.8 	"/>
	<g>
		<path fill="#D90000" d="M108.8,315.8c-3.2,0-6.5,1.5-8.6,4c-2.1-2.6-4.8-4-8.2-4c-2.2,0-4.4,0.9-6.3,2.4v-2.6h-8.1v31.9h8.1v-15.2
			c0-6.4,1.4-9,4.9-9c2.8,0,3.8,2.2,3.8,7.9v16.3h8.1v-15.2c0-5.4,0.8-9,4.9-9c2,0,3.9,0.8,3.9,6.9v17.3h8.1v-18.2
			C119.5,318.1,113.7,315.8,108.8,315.8"/>
		<path fill="#D90000" d="M143.5,340.6c-4.6,0-8.3-3.8-8.3-8.5c0-4.7,3.7-8.5,8.3-8.5c4.6,0,8.3,3.8,8.3,8.5
			C151.8,336.8,148,340.6,143.5,340.6 M143.5,315.8c-9.2,0-16.4,7.2-16.4,16.4c0,9.2,7.2,16.4,16.4,16.4c9.2,0,16.4-7.2,16.4-16.4
			C159.9,323,152.7,315.8,143.5,315.8"/>
		<polygon fill="#D90000" points="185.9,316.6 178.6,331.4 171.4,316.6 162.3,316.6 178.6,349.2 195,316.6 		"/>
		<path fill="#D90000" d="M254.6,315.8c-2.7,0-5.3,0.9-7.3,2.5v-25.8h-8.1v55h8.1v-14.3c0-6.9,0.8-9.9,5.6-9.9
			c4.1,0,4.9,1.8,4.9,6.7v17.5h8.1v-18.2C265.9,320.4,262.1,315.8,254.6,315.8"/>
		<path fill="#D90000" d="M290.3,340.6c-4.6,0-8.3-3.8-8.3-8.5c0-4.7,3.7-8.5,8.3-8.5c4.6,0,8.3,3.8,8.3,8.5
			C298.6,336.8,294.9,340.6,290.3,340.6 M290.3,315.8c-9.2,0-16.4,7.2-16.4,16.4c0,9.2,7.2,16.4,16.4,16.4c9.2,0,16.4-7.2,16.4-16.4
			C306.7,323,299.5,315.8,290.3,315.8"/>
		<path fill="#D90000" d="M345,315.8c-3.2,0-6.5,1.5-8.6,4c-2.1-2.6-4.8-4-8.2-4c-2.2,0-4.4,0.9-6.2,2.4v-2.6h-8.1v31.9h8.1v-15.2
			c0-6.4,1.4-9,4.9-9c2.8,0,3.8,2.2,3.8,7.9v16.3h8.1v-15.2c0-5.4,0.8-9,4.9-9c2,0,3.9,0.8,3.9,6.9v17.3h8.1v-18.2
			C355.7,318.1,349.9,315.8,345,315.8"/>
		<path fill="#D90000" d="M379.1,323.2c2.8,0,6.1,1.6,7.3,4.9h-14.7C372.4,325,376.3,323.2,379.1,323.2 M386.7,337.4
			c-2.6,2.9-4.4,3.7-7.4,3.7c-4.2,0-7.6-3.4-8.3-6.8h23.7v-0.1c0.5-12.4-6.8-18.5-15.6-18.5c-9.1,0-16.1,6.6-16.1,16.5
			c0,9.2,7.5,16.2,16.3,16.2c5,0,10.3-2.2,13.4-7.4L386.7,337.4"/>
		<path fill="#D90000" d="M214,323.2c2.8,0,6.1,1.6,7.3,4.9h-14.8C207.4,325,211.2,323.2,214,323.2 M221.7,337.4
			c-2.6,2.9-4.4,3.7-7.4,3.7c-4.2,0-7.6-3.4-8.3-6.8h23.7v-0.1c0.5-12.4-6.8-18.5-15.6-18.5c-9.1,0-16.1,6.6-16.1,16.5
			c0,9.2,7.5,16.2,16.3,16.2c5,0,10.3-2.2,13.4-7.4L221.7,337.4"/>
	</g>
</g>
<rect y="0" fill="none" width="465.7" height="425.2"/>
</svg>
