<?xml version="1.0" encoding="utf-8"?>
<!-- Generator: Adobe Illustrator 19.1.1, SVG Export Plug-In . SVG Version: 6.00 Build 0)  -->
<svg version="1.1" id="Layer_1" xmlns="http://www.w3.org/2000/svg" xmlns:xlink="http://www.w3.org/1999/xlink" x="0px" y="0px"
	 viewBox="0 0 300 600" style="enable-background:new 0 0 300 600;" xml:space="preserve">
<style type="text/css">
	.st0{fill:#D80201;}
	.st1{fill:#FFFFFF;}
</style>
<g>
	<path class="st0" d="M72,131.4c-3.1,2.5-6.4,3.3-10.3,3.3h-8.1V106h8.2c8.5,0,15.4,5.4,15.4,14.3C77.3,124.6,75.4,128.7,72,131.4z
		 M68.4,113.2c-2.2-2-4.8-2.3-7.7-2.3h-1.5v19h1.5c2.8,0,5.5-0.3,7.7-2.3c2-1.8,3.1-4.6,3.1-7.2S70.4,115,68.4,113.2z"/>
	<path class="st0" d="M90.6,135.3c-5.1,0-9-2.3-9-7.8V116h5.2v10.5c0,2.5,1.1,4.3,3.8,4.3s3.8-1.7,3.8-4.3V116h5.2v11.4
		C99.6,133,95.7,135.3,90.6,135.3z"/>
	<path class="st0" d="M120.7,120.5v14.1h-5.2v-14.1h-2V116h2v-6c0-1.5,0.1-3,0.8-4.4c1.2-2.3,3.9-3.7,6.5-3.7c1.1,0,1.8,0.2,2.8,0.6
		v4.8c-0.8-0.4-1.5-0.7-2.4-0.7c-2.3,0-2.5,2.4-2.5,4.2v5.2h4.8v4.5H120.7z"/>
	<path class="st0" d="M137.6,135.3c-5.9,0-10.7-3.7-10.7-9.9c0-6.2,4.7-9.9,10.7-9.9c5.9,0,10.6,3.7,10.6,9.9
		S143.5,135.3,137.6,135.3z M137.6,120.1c-2.9,0-5.2,2.4-5.2,5.2c0,2.8,2.4,5.2,5.2,5.2c2.9,0,5.3-2.3,5.3-5.2
		C142.9,122.5,140.5,120.1,137.6,120.1z"/>
	<path class="st0" d="M164.4,120.8c-0.9-0.5-1.5-0.6-2.5-0.6c-3.5,0-4.5,2.5-4.5,5.6v8.9h-5.2V116h5.2v2.8c1.2-2.1,2.9-3.4,5.4-3.4
		c0.8,0,1.5,0.1,2.3,0.4L164.4,120.8z"/>
	<path class="st0" d="M191.5,134.7v-10.2c0-2.2-0.3-4.6-3.1-4.6c-3.1,0-3.6,2.8-3.6,5.2v9.5h-5.2v-9.9c0-0.9,0-2.2-0.4-3.1
		c-0.5-1.1-1.6-1.8-2.8-1.8c-1.2,0-2.4,0.6-2.9,1.7c-0.6,1-0.6,2.5-0.6,3.6v9.5h-5.2V116h5.2v2.1c1.6-1.8,3.3-2.7,5.7-2.7
		c2.7,0,4.4,1.2,5.8,3.4c1.5-2.2,3.4-3.4,6.1-3.4c2,0,4.1,0.9,5.2,2.7c0.9,1.3,1,3,1,4.5v12H191.5z"/>
	<path class="st0" d="M215.9,134.7v-2.5c-1.4,2-3.6,3.1-6.1,3.1c-5.6,0-9.2-4.6-9.2-10c0-5.2,3.6-9.8,9-9.8c2.6,0,4.5,1,6.2,3V116
		h5.2v18.6H215.9z M211.3,120.1c-2.9,0-5.2,2.3-5.2,5.2c0,2.9,2.3,5.2,5.2,5.2s5.2-2.4,5.2-5.2C216.5,122.5,214.2,120.1,211.3,120.1
		z"/>
	<path class="st0" d="M238.3,120.8c-0.9-0.5-1.5-0.6-2.5-0.6c-3.5,0-4.5,2.5-4.5,5.6v8.9h-5.2V116h5.2v2.8c1.2-2.1,2.9-3.4,5.4-3.4
		c0.8,0,1.5,0.1,2.3,0.4L238.3,120.8z"/>
	<path class="st0" d="M242.6,135.2c-1.8,0-3.4-1.5-3.4-3.4s1.5-3.4,3.4-3.4s3.4,1.5,3.4,3.4S244.5,135.2,242.6,135.2z"/>
	<path class="st0" d="M65.6,186.4h-3L50.4,157h6.1l7.7,19.3l7.7-19.3h6.1L65.6,186.4z"/>
	<path class="st0" d="M83.1,162.3c-1.7,0-3.1-1.4-3.1-3.1c0-1.7,1.4-3.1,3.1-3.1c1.7,0,3.1,1.4,3.1,3.1
		C86.2,160.9,84.8,162.3,83.1,162.3z M80.4,185.7V167h5.2v18.6H80.4z"/>
	<path class="st0" d="M112.6,186.3c-2.6,0-4.5-1-6.1-3.1v2.5h-5.2v-32.2h5.2v16c1.8-1.9,3.5-3,6.2-3c5.5,0,9.1,4.6,9.1,9.8
		C121.8,181.6,118.2,186.3,112.6,186.3z M111.2,171.1c-2.9,0-5.2,2.3-5.2,5.2c0,2.9,2.3,5.2,5.2,5.2s5.2-2.4,5.2-5.2
		C116.4,173.5,114.1,171.1,111.2,171.1z"/>
	<path class="st0" d="M130.1,195.6h-5.9l6.8-12.8l-8.8-15.8h6.1l5.6,10.6l5.3-10.6h5.9L130.1,195.6z"/>
	<path class="st0" d="M165,192.4c-2,2.3-4.9,3.3-7.9,3.3c-4.8,0-9.4-2.8-9.9-7.8h5.6c0.6,2.3,2.1,3.4,4.4,3.4c3.3,0,4.6-2.3,4.6-5.3
		v-2.8c-1.8,2-3.6,3.1-6.3,3.1c-5.5,0-8.9-4.4-8.9-9.7c0-5.3,3.4-10.1,9.1-10.1c2.7,0,4.4,0.9,6,3V167h5.2V185
		C167.1,187.9,166.9,190.1,165,192.4z M157.3,171.1c-2.9,0-5.2,2.3-5.2,5.2c0,2.9,2.3,5.2,5.2,5.2s5.2-2.4,5.2-5.2
		C162.5,173.5,160.2,171.1,157.3,171.1z"/>
	<path class="st0" d="M189.3,192.4c-2,2.3-4.9,3.3-7.9,3.3c-4.8,0-9.4-2.8-9.9-7.8h5.6c0.6,2.3,2.1,3.4,4.4,3.4
		c3.3,0,4.6-2.3,4.6-5.3v-2.8c-1.8,2-3.6,3.1-6.3,3.1c-5.5,0-8.9-4.4-8.9-9.7c0-5.3,3.4-10.1,9.1-10.1c2.7,0,4.4,0.9,6,3V167h5.2
		V185C191.5,187.9,191.3,190.1,189.3,192.4z M181.7,171.1c-2.9,0-5.2,2.3-5.2,5.2c0,2.9,2.3,5.2,5.2,5.2s5.2-2.4,5.2-5.2
		C186.9,173.5,184.5,171.1,181.7,171.1z"/>
	<path class="st0" d="M200.8,177.2c0.1,2.9,1.5,5,4.6,5c2,0,3.4-0.8,4.4-2.5l4.8,0.8c-1.6,4-4.9,5.8-9.2,5.8c-6,0-10-3.9-10-9.9
		c0-5.9,3.8-9.9,9.8-9.9c6.1,0,9.5,4.1,9.5,10.1v0.7H200.8z M205.3,170.1c-2.4,0-3.9,1.5-4.3,3.7h8.8
		C209.3,171.6,207.8,170.1,205.3,170.1z"/>
	<path class="st0" d="M230.9,171.8c-0.9-0.5-1.5-0.6-2.5-0.6c-3.5,0-4.5,2.5-4.5,5.6v8.9h-5.2V167h5.2v2.8c1.2-2.1,2.9-3.4,5.4-3.4
		c0.8,0,1.5,0.1,2.3,0.4L230.9,171.8z"/>
	<path class="st0" d="M235.2,186.2c-1.8,0-3.4-1.5-3.4-3.4s1.5-3.4,3.4-3.4s3.4,1.5,3.4,3.4S237,186.2,235.2,186.2z"/>
</g>
</svg>
