<?xml version="1.0" encoding="utf-8"?>
<!-- Generator: Adobe Illustrator 19.1.1, SVG Export Plug-In . SVG Version: 6.00 Build 0)  -->
<svg version="1.1" id="Layer_1" xmlns="http://www.w3.org/2000/svg" xmlns:xlink="http://www.w3.org/1999/xlink" x="0px" y="0px"
	 viewBox="0 0 300 600" style="enable-background:new 0 0 300 600;" xml:space="preserve">
<style type="text/css">
	.st0{fill:#D80201;}
	.st1{fill:#FFFFFF;}
</style>
<g>
	<path class="st0" d="M59.2,110.8v6.4h9v4.9h-9v12.6h-5.6V106h15.2v4.9H59.2z"/>
	<path class="st0" d="M82.6,135.3c-5.9,0-10.7-3.7-10.7-9.9c0-6.2,4.7-9.9,10.7-9.9c5.9,0,10.6,3.7,10.6,9.9S88.5,135.3,82.6,135.3z
		 M82.5,120.1c-2.9,0-5.2,2.4-5.2,5.2c0,2.8,2.4,5.2,5.2,5.2c2.9,0,5.3-2.3,5.3-5.2C87.8,122.5,85.5,120.1,82.5,120.1z"/>
	<path class="st0" d="M109.4,120.8c-0.9-0.5-1.5-0.6-2.5-0.6c-3.5,0-4.5,2.5-4.5,5.6v8.9h-5.2V116h5.2v2.8c1.2-2.1,2.9-3.4,5.4-3.4
		c0.8,0,1.5,0.1,2.3,0.4L109.4,120.8z"/>
	<path class="st0" d="M136.5,134.7v-10.2c0-2.2-0.3-4.6-3.1-4.6c-3.1,0-3.6,2.8-3.6,5.2v9.5h-5.2v-9.9c0-0.9,0-2.2-0.4-3.1
		c-0.5-1.1-1.6-1.8-2.8-1.8c-1.2,0-2.4,0.6-2.9,1.7c-0.6,1-0.6,2.5-0.6,3.6v9.5h-5.2V116h5.2v2.1c1.6-1.8,3.3-2.7,5.7-2.7
		c2.7,0,4.4,1.2,5.8,3.4c1.5-2.2,3.4-3.4,6.1-3.4c2,0,4.1,0.9,5.2,2.7c0.9,1.3,1,3,1,4.5v12H136.5z"/>
	<path class="st0" d="M160.9,134.7v-2.5c-1.4,2-3.6,3.1-6.1,3.1c-5.6,0-9.2-4.6-9.2-10c0-5.2,3.6-9.8,9-9.8c2.6,0,4.5,1,6.2,3V116
		h5.2v18.6H160.9z M156.2,120.1c-2.9,0-5.2,2.3-5.2,5.2c0,2.9,2.3,5.2,5.2,5.2s5.2-2.4,5.2-5.2C161.4,122.5,159.1,120.1,156.2,120.1
		z"/>
	<path class="st0" d="M196.1,134.7v-2.5c-1.4,2-3.6,3.1-6.1,3.1c-5.6,0-9.2-4.6-9.2-10c0-5.2,3.6-9.8,9-9.8c2.6,0,4.5,1,6.2,3v-16
		h5.2v32.2H196.1z M191.5,120.1c-2.9,0-5.2,2.3-5.2,5.2c0,2.9,2.3,5.2,5.2,5.2s5.2-2.4,5.2-5.2C196.7,122.5,194.3,120.1,191.5,120.1
		z"/>
	<path class="st0" d="M208.9,111.3c-1.7,0-3.1-1.4-3.1-3.1c0-1.7,1.4-3.1,3.1-3.1c1.7,0,3.1,1.4,3.1,3.1
		C212,109.9,210.6,111.3,208.9,111.3z M206.2,134.7V116h5.2v18.6H206.2z"/>
	<path class="st0" d="M221.6,120.5v14.1h-5.2v-14.1h-2.1V116h2.1v-6.4h5.2v6.4h3.7v4.5H221.6z"/>
	<path class="st0" d="M233.2,120.5v14.1H228v-14.1h-2.1V116h2.1v-6.4h5.2v6.4h3.7v4.5H233.2z"/>
	<path class="st0" d="M65.6,185.7v-10.2c0-2.6-0.6-4.6-3.6-4.6c-3.2,0-4,2.5-4,5.2v9.5h-5.2v-32.2H58v16c1.5-2,3.3-3,5.8-3
		c2,0,4.1,0.7,5.4,2.3c1.3,1.5,1.5,3.3,1.5,5.2v11.7H65.6z"/>
	<path class="st0" d="M84.7,186.3c-5.1,0-9-2.3-9-7.8V167h5.2v10.5c0,2.5,1.1,4.3,3.8,4.3s3.8-1.7,3.8-4.3V167h5.2v11.4
		C93.8,184,89.8,186.3,84.7,186.3z"/>
	<path class="st0" d="M104.7,186.3c-2.7,0-5.2-1.2-7.1-3.1l2.8-3.2c1.2,1.2,2.6,2.2,4.4,2.2c1.2,0,2.4-0.8,2.4-2.1
		c0-3.2-8.3-1.6-8.3-7.9c0-3.8,3.1-5.9,6.7-5.9c2.2,0,4.3,0.6,6.1,2l-2.6,3.1c-0.9-0.7-1.9-1.2-3.1-1.2c-0.9,0-2,0.6-2,1.6
		c0,2.7,8.6,1.5,8.6,7.9C112.5,183.9,108.7,186.3,104.7,186.3z"/>
	<path class="st0" d="M138.4,186.3c-2.7,0-4.5-1-6.2-3.1v12.4h-5.2V167h5.2v2.4c1.7-2,3.4-3,6.1-3c5.5,0,9.2,4.6,9.2,9.9
		C147.4,181.6,143.8,186.3,138.4,186.3z M136.8,171.1c-2.9,0-5.2,2.3-5.2,5.2c0,2.9,2.3,5.2,5.2,5.2s5.2-2.4,5.2-5.2
		C142,173.5,139.7,171.1,136.8,171.1z"/>
	<path class="st0" d="M165.6,185.7v-2.5c-1.4,2-3.6,3.1-6.1,3.1c-5.6,0-9.2-4.6-9.2-10c0-5.2,3.6-9.8,9-9.8c2.6,0,4.5,1,6.2,3V167
		h5.2v18.6H165.6z M161,171.1c-2.9,0-5.2,2.3-5.2,5.2c0,2.9,2.3,5.2,5.2,5.2c2.9,0,5.2-2.4,5.2-5.2
		C166.2,173.5,163.9,171.1,161,171.1z M160.2,163.8c-2.1,0-3.9-1.8-3.9-3.9c0-2.1,1.8-3.9,3.9-3.9c2.2,0,3.9,1.7,3.9,3.9
		C164.1,162.1,162.4,163.8,160.2,163.8z M160.2,158.4c-0.8,0-1.5,0.7-1.5,1.5c0,0.8,0.7,1.5,1.5,1.5s1.5-0.7,1.5-1.5
		C161.7,159.1,161.1,158.4,160.2,158.4z"/>
	<path class="st0" d="M192,171.5v14.1h-5.2v-14.1h-2V167h2v-6c0-1.5,0.1-3,0.8-4.4c1.2-2.3,3.9-3.7,6.4-3.7c1.1,0,1.8,0.2,2.8,0.6
		v4.8c-0.8-0.4-1.5-0.7-2.4-0.7c-2.3,0-2.5,2.4-2.5,4.2v5.2h4.8v4.5H192z"/>
	<path class="st0" d="M203.5,177.2c0.1,2.9,1.5,5,4.6,5c2,0,3.4-0.8,4.4-2.5l4.8,0.8c-1.6,4-4.9,5.8-9.2,5.8c-6,0-10-3.9-10-9.9
		c0-5.9,3.8-9.9,9.8-9.9c6.1,0,9.5,4.1,9.5,10.1v0.7H203.5z M208.1,170.1c-2.4,0-3.9,1.5-4.3,3.7h8.8
		C212,171.6,210.5,170.1,208.1,170.1z"/>
	<path class="st0" d="M245.2,185.7v-10.2c0-2.2-0.3-4.6-3.1-4.6c-3.1,0-3.6,2.8-3.6,5.2v9.5h-5.2v-9.9c0-0.9,0-2.2-0.4-3.1
		c-0.5-1.1-1.6-1.8-2.8-1.8c-1.2,0-2.4,0.6-2.9,1.7c-0.6,1-0.6,2.5-0.6,3.6v9.5h-5.2V167h5.2v2.1c1.6-1.8,3.3-2.7,5.7-2.7
		c2.7,0,4.4,1.2,5.8,3.4c1.5-2.2,3.4-3.4,6.1-3.4c2,0,4.1,0.9,5.2,2.7c0.9,1.3,1,3,1,4.5v12H245.2z"/>
	<path class="st0" d="M76.6,236.7v-10.2c0-2.2-0.3-4.6-3.1-4.6c-3.1,0-3.6,2.8-3.6,5.2v9.5h-5.2v-9.9c0-0.9,0-2.2-0.4-3.1
		c-0.5-1.1-1.6-1.8-2.8-1.8c-1.2,0-2.4,0.6-2.9,1.7c-0.6,1-0.6,2.5-0.6,3.6v9.5h-5.2V218H58v2.1c1.6-1.8,3.3-2.7,5.7-2.7
		c2.7,0,4.4,1.2,5.8,3.4c1.5-2.2,3.4-3.4,6.1-3.4c2,0,4.1,0.9,5.2,2.7c0.9,1.3,1,3,1,4.5v12H76.6z"/>
	<path class="st0" d="M89.3,213.3c-1.7,0-3.1-1.4-3.1-3.1c0-1.7,1.4-3.1,3.1-3.1c1.7,0,3.1,1.4,3.1,3.1
		C92.4,211.9,91.1,213.3,89.3,213.3z M86.7,236.7V218h5.2v18.6H86.7z"/>
	<path class="st0" d="M109.5,236.7v-10.3c0-2.5-0.6-4.5-3.5-4.5c-3.2,0-4,2.4-4,5.2v9.6h-5.2V218h5.2v2.3c1.7-2,3.2-2.9,5.8-2.9
		c2,0,4.1,0.7,5.4,2.2c1.3,1.5,1.5,3.2,1.5,5.2v11.8H109.5z"/>
	<path class="st0" d="M128.7,237.3c-5.1,0-9-2.3-9-7.8V218h5.2v10.5c0,2.5,1.1,4.3,3.8,4.3s3.8-1.7,3.8-4.3V218h5.2v11.4
		C137.8,235,133.8,237.3,128.7,237.3z"/>
	<path class="st0" d="M148,222.5v14.1h-5.2v-14.1h-2.1V218h2.1v-6.4h5.2v6.4h3.7v4.5H148z"/>
	<path class="st0" d="M158.7,228.2c0.1,2.9,1.5,5,4.6,5c2,0,3.4-0.8,4.4-2.5l4.8,0.8c-1.6,4-4.9,5.8-9.2,5.8c-6,0-10-3.9-10-9.9
		c0-5.9,3.8-9.9,9.8-9.9c6.1,0,9.5,4.1,9.5,10.1v0.7H158.7z M163.2,221.1c-2.4,0-3.9,1.5-4.3,3.7h8.8
		C167.2,222.6,165.7,221.1,163.2,221.1z"/>
	<path class="st0" d="M188.8,222.8c-0.9-0.5-1.5-0.6-2.5-0.6c-3.5,0-4.5,2.5-4.5,5.6v8.9h-5.2V218h5.2v2.8c1.2-2.1,2.9-3.4,5.4-3.4
		c0.8,0,1.5,0.1,2.3,0.4L188.8,222.8z"/>
	<path class="st0" d="M193.1,237.2c-1.8,0-3.4-1.5-3.4-3.4c0-1.8,1.5-3.4,3.4-3.4s3.4,1.5,3.4,3.4
		C196.4,235.7,194.9,237.2,193.1,237.2z"/>
</g>
</svg>
