<svg id="Layer_1" data-name="Layer 1" xmlns="http://www.w3.org/2000/svg" viewBox="0 0 300 600"><defs><style>.cls-1{fill:#fff;}</style></defs><title>text</title><path class="cls-1" d="M24.33,33.66l3.37,6H25.49l-3.4-6.07,4.85-6.07h2.41Zm5.42,0,3.36,6H30.9L27.47,33.6l4.88-6.07h2.41Z"/><path class="cls-1" d="M48.46,19.67,44.23,41.92H41.49l4.23-22.25Z"/><path class="cls-1" d="M49.12,41.92l2.14-11.33c.36-1.78.56-3.33.76-4.65h2.44l-.39,3.14h.06A7,7,0,0,1,60,25.58c1.91,0,4.06,1.09,4.06,4.45a14.94,14.94,0,0,1-.3,2.58L62,41.92H59.28L61,32.71a10.73,10.73,0,0,0,.23-2.05c0-1.62-.63-2.8-2.51-2.8S54,30.2,53.31,34.16l-1.46,7.76Z"/><path class="cls-1" d="M66.74,41.92l2.14-11.33c.37-1.78.56-3.33.76-4.65h2.44l-.39,3.14h.06a7,7,0,0,1,5.91-3.5c1.92,0,4.06,1.09,4.06,4.45a14.94,14.94,0,0,1-.3,2.58l-1.78,9.31H76.9l1.75-9.21a10.73,10.73,0,0,0,.23-2.05c0-1.62-.62-2.8-2.51-2.8s-4.72,2.34-5.44,6.3l-1.45,7.76Z"/><path class="cls-1" d="M99.67,32.25c0,4.91-3.5,10-8.84,10-4,0-6.24-3-6.24-6.57,0-5.25,3.66-10.13,8.85-10.13C97.76,25.58,99.67,28.85,99.67,32.25ZM87.43,35.61c0,2.61,1.42,4.49,3.76,4.49,3.24,0,5.68-4.16,5.68-7.89,0-1.85-.86-4.45-3.73-4.45C89.71,27.76,87.4,32,87.43,35.61Z"/><path class="cls-1" d="M102,41.92l2.61-13.83h-2.11l.39-2.15H105l.16-.82a9.31,9.31,0,0,1,2.61-5.58,5.61,5.61,0,0,1,3.79-1.42,4.33,4.33,0,0,1,2.18.43l-.59,2.18a3.91,3.91,0,0,0-1.62-.3c-2.18,0-3.23,2.11-3.7,4.75l-.13.76h3.57l-.43,2.15h-3.53l-2.64,13.83Z"/><path class="cls-1" d="M121.29,41.92a40.48,40.48,0,0,1,.36-4.13h-.07c-1.75,3.3-3.92,4.49-6.2,4.49-2.81,0-4.59-2.25-4.59-5.28,0-5.55,4.09-11.42,11.06-11.42a14.64,14.64,0,0,1,4.29.63l-1.62,8.31a36.06,36.06,0,0,0-.69,7.4ZM123.07,28a7.41,7.41,0,0,0-1.92-.23c-4.12,0-7.49,4.32-7.52,8.74,0,1.79.63,3.53,2.74,3.53,2.28,0,5-3,5.78-7.22Z"/><path class="cls-1" d="M138.91,41.29a11.16,11.16,0,0,1-4.62,1c-4.13,0-6.14-2.78-6.14-6.18,0-5.44,4-10.46,9.77-10.46a8.21,8.21,0,0,1,3.33.69l-.79,2.18a6.34,6.34,0,0,0-2.71-.59c-4.16,0-6.76,4.09-6.76,7.85,0,2.58,1.35,4.26,4,4.26a8.33,8.33,0,0,0,3.69-.89Z"/><path class="cls-1" d="M149.24,21.65l-.83,4.29h3.83l-.43,2.15H148l-1.48,7.75a13.62,13.62,0,0,0-.3,2.58,1.34,1.34,0,0,0,1.52,1.51,8.42,8.42,0,0,0,1.29-.09L148.87,42a6.29,6.29,0,0,1-2.11.3c-2.44,0-3.37-1.49-3.37-3.1a15,15,0,0,1,.33-3l1.59-8.08H143l.43-2.15h2.28l.69-3.6Z"/><path class="cls-1" d="M167.58,32.25c0,4.91-3.49,10-8.84,10-4,0-6.24-3-6.24-6.57,0-5.25,3.67-10.13,8.85-10.13C165.67,25.58,167.58,28.85,167.58,32.25Zm-12.24,3.36c0,2.61,1.42,4.49,3.76,4.49,3.24,0,5.68-4.16,5.68-7.89,0-1.85-.86-4.45-3.73-4.45C157.62,27.76,155.31,32,155.34,35.61Z"/><path class="cls-1" d="M169.5,41.92l1.94-10.3c.4-2.08.66-4.19.83-5.68h2.41c-.13,1.12-.27,2.25-.43,3.47h.1c1-2.18,2.74-3.83,4.88-3.83a6,6,0,0,1,.76.06l-.53,2.71a4,4,0,0,0-.72-.07c-2.38,0-4.49,2.88-5.18,6.61l-1.32,7Z"/><path class="cls-1" d="M180.12,39.14a7.32,7.32,0,0,0,3.44,1,2.75,2.75,0,0,0,3-2.6c0-1.26-.56-2-2.21-2.94-1.85-1-2.87-2.44-2.87-4.06,0-2.81,2.41-5,5.77-5a6.63,6.63,0,0,1,3.34.79l-.76,2.08a5.72,5.72,0,0,0-2.77-.73,2.57,2.57,0,0,0-2.84,2.41c0,1.16.76,1.88,2.18,2.68,1.78,1,3,2.4,3,4.19,0,3.36-2.74,5.25-6.11,5.25a7,7,0,0,1-4-1.09Z"/><path class="cls-1" d="M213.78,41.19A14.58,14.58,0,0,1,208,42.25c-5.61,0-9-3.54-9-9.21a13.86,13.86,0,0,1,4.75-10.73,12.59,12.59,0,0,1,8.38-3A8.84,8.84,0,0,1,217,20.4l-.89,2.21a9.07,9.07,0,0,0-4.39-.93,9.39,9.39,0,0,0-6.37,2.51,11.68,11.68,0,0,0-3.4,8.45c0,4,1.82,7.26,6.77,7.26a11.31,11.31,0,0,0,4.75-.95Z"/><path class="cls-1" d="M216.65,41.92l4.46-23.44h2.74l-4.49,23.44Z"/><path class="cls-1" d="M239.49,32.25c0,4.91-3.5,10-8.84,10-4,0-6.24-3-6.24-6.57,0-5.25,3.66-10.13,8.84-10.13C237.58,25.58,239.49,28.85,239.49,32.25Zm-12.24,3.36c0,2.61,1.41,4.49,3.76,4.49,3.23,0,5.68-4.16,5.68-7.89,0-1.85-.86-4.45-3.73-4.45C229.52,27.76,227.21,32,227.25,35.61Z"/><path class="cls-1" d="M257,25.94l-2.15,11.32c-.33,1.78-.56,3.33-.72,4.66h-2.48l.43-3H252a7.13,7.13,0,0,1-5.65,3.37c-2,0-4.19-1-4.19-4.62a14.57,14.57,0,0,1,.3-2.68l1.71-9h2.74l-1.68,8.91a10.72,10.72,0,0,0-.3,2.35c0,1.65.7,2.77,2.58,2.77s4.52-2.31,5.18-5.84l1.55-8.19Z"/><path class="cls-1" d="M275.76,18.48l-3.5,18.39a40.24,40.24,0,0,0-.7,5.05h-2.5l.43-3.17h-.07a6.83,6.83,0,0,1-5.74,3.53c-3.11,0-4.79-2.54-4.79-5.81,0-5.68,4.23-10.89,9.87-10.89a7.28,7.28,0,0,1,2.84.56L273,18.48Zm-4.59,10a5,5,0,0,0-2.64-.66c-3.83,0-6.8,4.06-6.8,8.32,0,1.91.66,3.92,3,3.92,2.12,0,4.66-2.4,5.35-6Z"/><path class="cls-1" d="M20.57,79a7.27,7.27,0,0,0,2.81.47c2.34,0,3.79-1.23,4.55-5.15l2.84-15h2.74L30.6,74.58c-1,5.22-3.16,7.3-7.32,7.3a9.38,9.38,0,0,1-3.3-.56Z"/><path class="cls-1" d="M49.35,71.84c0,4.92-3.5,10-8.85,10-4,0-6.23-3-6.23-6.57,0-5.25,3.66-10.13,8.84-10.13C47.43,65.18,49.35,68.45,49.35,71.84ZM37.1,75.21c0,2.61,1.42,4.49,3.77,4.49,3.23,0,5.67-4.16,5.67-7.89,0-1.85-.85-4.45-3.73-4.45C39.38,67.36,37.07,71.55,37.1,75.21Z"/><path class="cls-1" d="M66.84,65.54,64.69,76.86c-.33,1.78-.56,3.34-.72,4.66H61.49l.43-3h-.07a7.09,7.09,0,0,1-5.64,3.37c-2.05,0-4.19-1-4.19-4.62a14.57,14.57,0,0,1,.3-2.68l1.71-9h2.74l-1.68,8.91a10.72,10.72,0,0,0-.3,2.35c0,1.65.69,2.77,2.58,2.77s4.52-2.31,5.18-5.84l1.55-8.19Z"/><path class="cls-1" d="M68.62,81.52l1.94-10.3c.4-2.08.67-4.19.83-5.68H73.8c-.13,1.12-.26,2.25-.43,3.47h.1c1-2.18,2.74-3.83,4.88-3.83a5.86,5.86,0,0,1,.76.06L78.58,68a4,4,0,0,0-.72-.07c-2.38,0-4.49,2.88-5.18,6.61l-1.32,7Z"/><path class="cls-1" d="M79.11,81.52l2.15-11.33c.36-1.78.56-3.33.76-4.65h2.44l-.4,3.14h.07A7,7,0,0,1,90,65.18c1.91,0,4.06,1.09,4.06,4.45a16,16,0,0,1-.3,2.58L92,81.52H89.28L91,72.31a10.73,10.73,0,0,0,.23-2c0-1.62-.63-2.8-2.51-2.8S84,69.8,83.3,73.76l-1.45,7.76Z"/><path class="cls-1" d="M108.25,80.59A11,11,0,0,1,103,81.85c-4.22,0-6.07-2.88-6.07-6.41,0-4.82,3.56-10.26,8.71-10.26,3,0,4.69,1.81,4.69,4.09,0,4.19-4.72,5.31-10.63,5.22a6.68,6.68,0,0,0,.33,3,3.65,3.65,0,0,0,3.57,2.15,8.88,8.88,0,0,0,4.29-1.13Zm-3-13.27c-2.61,0-4.56,2.54-5.22,5.05,4.29,0,7.66-.53,7.66-3C107.66,68.05,106.67,67.32,105.22,67.32Z"/><path class="cls-1" d="M115.18,65.54l1.58,8.62c.37,1.81.57,3,.73,4.19h.07c.43-1,.89-2.15,1.71-3.9l4.06-8.91h2.91l-6,12.15c-1.71,3.46-3.33,6.27-5.51,8.38a10,10,0,0,1-4.65,2.77l-.66-2.34A10.38,10.38,0,0,0,112.37,85a12.19,12.19,0,0,0,3.07-3.67,1,1,0,0,0,.1-.72l-3.2-15Z"/><path class="cls-1" d="M132.41,85.15a8.48,8.48,0,0,0,4.22,1c2.67,0,4.79-1.38,5.74-5.71l.53-2.37h-.1a6.37,6.37,0,0,1-5.54,3.4c-3.2,0-4.85-2.71-4.85-5.55,0-5.41,4-10.79,10.13-10.79a13,13,0,0,1,5.11,1.12l-2.44,13.2c-.66,3.37-1.55,5.71-3.23,7.13a8.41,8.41,0,0,1-5.58,1.78,9.51,9.51,0,0,1-4.79-1.12Zm12.24-17.23a6.72,6.72,0,0,0-2.64-.53c-4,0-6.73,4.16-6.77,8.12,0,1.75.63,3.83,3.07,3.83s4.72-3,5.32-6.11Z"/><path class="cls-1" d="M155.47,65.54l-3,15.91c-.5,2.67-1.06,4.36-2,5.41a4.93,4.93,0,0,1-3.66,1.55,6.36,6.36,0,0,1-1.82-.19l.33-2.15a5.45,5.45,0,0,0,1.26.13c1.38,0,2.47-.86,3.1-4.16l3.1-16.5Zm-2.37-4.46a1.83,1.83,0,0,1,1.81-1.84A1.58,1.58,0,0,1,156.53,61a1.8,1.8,0,0,1-1.85,1.85A1.57,1.57,0,0,1,153.1,61.08Z"/><path class="cls-1" d="M156.79,81.78l1.88-2.15a6.92,6.92,0,0,1-1.42-4.52c0-5.11,3.67-9.93,8.78-9.93a5.86,5.86,0,0,1,3.83,1.19l1.82-2,1.09.93-1.85,2.11a7.09,7.09,0,0,1,1.45,4.36c0,5.57-4,10.13-8.65,10.13a6,6,0,0,1-4.06-1.29l-1.85,2.18Zm11.45-13.53a3.24,3.24,0,0,0-2.54-1c-3.46,0-5.64,4.26-5.67,7.49a5.1,5.1,0,0,0,.59,2.64l.07,0Zm-6.93,10.49a3.47,3.47,0,0,0,2.64,1c2.94,0,5.58-3.8,5.61-7.53a6,6,0,0,0-.52-2.57H169Z"/><path class="cls-1" d="M174.28,81.52l1.95-10.3c.39-2.08.66-4.19.82-5.68h2.41c-.13,1.12-.26,2.25-.43,3.47h.1c1-2.18,2.74-3.83,4.89-3.83a6,6,0,0,1,.76.06L184.25,68a4.18,4.18,0,0,0-.73-.07c-2.37,0-4.49,2.88-5.18,6.61l-1.32,7Z"/><path class="cls-1" d="M207.78,58.08l-3.5,18.39a40.17,40.17,0,0,0-.69,5h-2.51l.43-3.17h-.07a6.82,6.82,0,0,1-5.74,3.53c-3.1,0-4.79-2.54-4.79-5.81,0-5.68,4.23-10.89,9.87-10.89a7.25,7.25,0,0,1,2.84.56L205,58.08Zm-4.59,10a5,5,0,0,0-2.64-.66c-3.83,0-6.8,4.06-6.8,8.32,0,1.91.66,3.92,3,3.92,2.12,0,4.66-2.41,5.35-6Z"/><path class="cls-1" d="M219.62,80.59a11,11,0,0,1-5.28,1.26c-4.22,0-6.07-2.88-6.07-6.41,0-4.82,3.57-10.26,8.71-10.26,3,0,4.69,1.81,4.69,4.09,0,4.19-4.72,5.31-10.63,5.22a6.68,6.68,0,0,0,.33,3,3.65,3.65,0,0,0,3.57,2.15,8.88,8.88,0,0,0,4.29-1.13Zm-3-13.27c-2.61,0-4.56,2.54-5.22,5.05,4.29,0,7.66-.53,7.66-3C219,68.05,218,67.32,216.59,67.32Z"/><path class="cls-1" d="M230.22,61.25l-.83,4.29h3.83l-.43,2.15H229l-1.48,7.75a13.62,13.62,0,0,0-.3,2.58,1.35,1.35,0,0,0,1.52,1.52,8.12,8.12,0,0,0,1.28-.1l-.13,2.14a6.29,6.29,0,0,1-2.11.3c-2.44,0-3.37-1.49-3.37-3.1a15,15,0,0,1,.33-3l1.59-8.08H224l.43-2.15h2.27l.7-3.6Z"/><path class="cls-1" d="M21.92,121.12l2.15-11.33c.33-1.78.56-3.33.72-4.65H27.2l-.42,3h.09a6.83,6.83,0,0,1,5.62-3.36,3.47,3.47,0,0,1,3.72,3.56,6.85,6.85,0,0,1,5.88-3.56C43.94,104.78,46,106,46,109a16.82,16.82,0,0,1-.26,2.71l-1.79,9.44H41.23L43,111.91a10.77,10.77,0,0,0,.23-2.08c0-1.69-.63-2.77-2.41-2.77-2,0-4.32,2.31-5,5.87l-1.56,8.19H31.59l1.79-9.38a10.37,10.37,0,0,0,.19-1.95c0-1.35-.36-2.73-2.37-2.73s-4.49,2.64-5.12,6l-1.48,8Z"/><path class="cls-1" d="M64,105.14l-2.14,11.32c-.33,1.78-.57,3.33-.73,4.66H58.65l.43-3H59a7.11,7.11,0,0,1-5.65,3.37c-2,0-4.19-1-4.19-4.62a14.57,14.57,0,0,1,.3-2.68l1.72-9h2.74l-1.69,8.91a10.72,10.72,0,0,0-.3,2.35c0,1.65.7,2.77,2.58,2.77s4.52-2.31,5.18-5.84l1.55-8.19Z"/><path class="cls-1" d="M65.81,121.12l4.46-23.44H73l-4.49,23.44Z"/><path class="cls-1" d="M73.34,121.12l3.07-16h2.74l-3.07,16Zm3.56-20.43a1.82,1.82,0,0,1,1.82-1.85,1.58,1.58,0,0,1,1.61,1.71,1.8,1.8,0,0,1-1.84,1.85A1.58,1.58,0,0,1,76.9,100.69Z"/><path class="cls-1" d="M81.06,124.75a8.51,8.51,0,0,0,4.22,1c2.68,0,4.79-1.38,5.75-5.71l.52-2.37h-.09a6.4,6.4,0,0,1-5.55,3.4c-3.2,0-4.85-2.71-4.85-5.55,0-5.41,4-10.79,10.13-10.79a13.11,13.11,0,0,1,5.12,1.12l-2.45,13.2c-.66,3.37-1.55,5.71-3.23,7.13A8.39,8.39,0,0,1,85.05,128a9.44,9.44,0,0,1-4.78-1.12ZM93.3,107.52a6.64,6.64,0,0,0-2.64-.53c-4,0-6.73,4.16-6.76,8.12,0,1.75.62,3.83,3.07,3.83s4.72-3,5.31-6.11Z"/><path class="cls-1" d="M104.59,121.12l2.6-13.83h-2.11l.4-2.15h2.14l.17-.82a9.26,9.26,0,0,1,2.61-5.58,5.61,5.61,0,0,1,3.79-1.42,4.33,4.33,0,0,1,2.18.43l-.59,2.18a3.91,3.91,0,0,0-1.62-.3c-2.18,0-3.24,2.11-3.7,4.75l-.13.76h3.56l-.42,2.15h-3.54l-2.64,13.83Z"/><path class="cls-1" d="M128.84,111.45c0,4.91-3.49,10-8.84,10-4,0-6.24-3-6.24-6.57,0-5.25,3.66-10.13,8.85-10.13C126.93,104.78,128.84,108.05,128.84,111.45Zm-12.24,3.36c0,2.61,1.42,4.49,3.76,4.49,3.24,0,5.68-4.16,5.68-7.89,0-1.85-.86-4.45-3.73-4.45C118.88,107,116.57,111.15,116.6,114.81Z"/><path class="cls-1" d="M130.76,121.12l1.94-10.3c.4-2.08.66-4.19.83-5.68h2.41c-.14,1.12-.27,2.25-.43,3.47h.1c1-2.18,2.74-3.83,4.88-3.83a6,6,0,0,1,.76.06l-.53,2.71a4,4,0,0,0-.72-.07c-2.38,0-4.49,2.88-5.19,6.61l-1.32,7Z"/><path class="cls-1" d="M150.62,121.12l-1.09-22.25h2.77l.47,13.33c.1,2.88,0,4.39,0,5.81h.06c.53-1.45,1.06-2.9,2.31-5.64l6.14-13.5h2.94l.46,12.81c.1,2.87.1,4.82.07,6.27h.06c.66-1.92,1.32-3.7,2.18-5.71l6-13.37h2.87l-10.33,22.25h-2.88L162,108.47a56.79,56.79,0,0,1,.07-6.4H162a58.7,58.7,0,0,1-2.25,5.84l-6.2,13.21Z"/><path class="cls-1" d="M184,121.12a40.48,40.48,0,0,1,.36-4.13h-.07c-1.75,3.3-3.93,4.49-6.2,4.49-2.81,0-4.59-2.25-4.59-5.28,0-5.55,4.09-11.42,11.06-11.42a14.7,14.7,0,0,1,4.29.63l-1.62,8.31a36.12,36.12,0,0,0-.69,7.4Zm1.78-13.93a7.41,7.41,0,0,0-1.92-.23c-4.12,0-7.49,4.32-7.52,8.74,0,1.79.63,3.53,2.74,3.53,2.28,0,5-3,5.77-7.22Z"/><path class="cls-1" d="M190.65,121.12l4.45-23.44h2.74l-4.48,23.44Z"/><path class="cls-1" d="M198.21,121.12l4.45-23.44h2.74l-4.49,23.44Z"/><path class="cls-1" d="M217.25,120.19a11.06,11.06,0,0,1-5.28,1.26c-4.23,0-6.07-2.88-6.07-6.41,0-4.82,3.56-10.26,8.71-10.26,3,0,4.68,1.81,4.68,4.09,0,4.19-4.71,5.31-10.62,5.22a6.54,6.54,0,0,0,.33,3,3.62,3.62,0,0,0,3.56,2.15,9,9,0,0,0,4.29-1.12Zm-3-13.27c-2.61,0-4.55,2.54-5.21,5,4.29,0,7.65-.52,7.65-3C216.65,107.65,215.66,106.92,214.21,106.92Z"/><path class="cls-1" d="M220.68,121.12l2.14-11.33c.37-1.78.56-3.33.76-4.65H226l-.4,3.14h.07a7,7,0,0,1,5.9-3.5c1.92,0,4.06,1.09,4.06,4.45a15.91,15.91,0,0,1-.29,2.58l-1.79,9.31h-2.74l1.75-9.21a10,10,0,0,0,.23-2c0-1.62-.62-2.8-2.5-2.8s-4.72,2.34-5.45,6.3l-1.45,7.76Z"/><path class="cls-1" d="M238.3,121.12l3.07-16h2.74l-3.07,16Zm3.56-20.43a1.82,1.82,0,0,1,1.82-1.85,1.58,1.58,0,0,1,1.62,1.71,1.81,1.81,0,0,1-1.85,1.85A1.58,1.58,0,0,1,241.86,100.69Z"/><path class="cls-1" d="M261.44,105.14l-2.15,11.32c-.33,1.78-.56,3.33-.73,4.66h-2.47l.43-3h-.07a7.11,7.11,0,0,1-5.64,3.37c-2.05,0-4.19-1-4.19-4.62a14.46,14.46,0,0,1,.29-2.68l1.72-9h2.74l-1.68,8.91a10.72,10.72,0,0,0-.3,2.35c0,1.65.69,2.77,2.57,2.77s4.52-2.31,5.18-5.84l1.56-8.19Z"/><path class="cls-1" d="M263.35,118.34a7.28,7.28,0,0,0,3.43,1,2.75,2.75,0,0,0,3-2.6c0-1.26-.57-2-2.22-2.94-1.84-1-2.87-2.44-2.87-4.06,0-2.81,2.41-5,5.78-5a6.58,6.58,0,0,1,3.33.79l-.76,2.08a5.69,5.69,0,0,0-2.77-.73,2.57,2.57,0,0,0-2.84,2.41c0,1.16.76,1.88,2.18,2.68,1.78,1,3,2.41,3,4.19,0,3.36-2.74,5.25-6.1,5.25a7,7,0,0,1-4-1.09Z"/><path class="cls-1" d="M25.29,160.71,24.2,138.47H27l.47,13.33c.09,2.87,0,4.39,0,5.81h.06c.53-1.45,1.06-2.9,2.31-5.64L36,138.47h2.94l.46,12.81c.1,2.87.1,4.81.07,6.27h.06c.66-1.92,1.32-3.7,2.18-5.71l6-13.37h2.88L40.18,160.71H37.3l-.59-12.64a56.79,56.79,0,0,1,.07-6.4h-.1a58.7,58.7,0,0,1-2.25,5.84l-6.2,13.2Z"/><path class="cls-1" d="M49,160.71l3.07-16h2.74l-3.07,16Zm3.56-20.42a1.82,1.82,0,0,1,1.82-1.85A1.58,1.58,0,0,1,56,140.15,1.8,1.8,0,0,1,54.17,142,1.58,1.58,0,0,1,52.58,140.29Z"/><path class="cls-1" d="M56.61,160.71l4.45-23.43H63.8l-4.49,23.43Z"/><path class="cls-1" d="M64.13,160.71l4.46-23.43h2.73l-2,10.3h.07a6.85,6.85,0,0,1,5.71-3.2c1.82,0,4,1.12,4,4.29a15.27,15.27,0,0,1-.26,2.71L77,160.71H74.3l1.78-9.2a13,13,0,0,0,.2-2.21,2.32,2.32,0,0,0-2.48-2.64c-2.11,0-4.79,2.47-5.45,6.07l-1.48,8Z"/><path class="cls-1" d="M93.27,159.79A11.07,11.07,0,0,1,88,161c-4.22,0-6.07-2.87-6.07-6.4,0-4.82,3.56-10.26,8.71-10.26,3,0,4.69,1.81,4.69,4.09,0,4.19-4.72,5.31-10.63,5.22a6.68,6.68,0,0,0,.33,3,3.63,3.63,0,0,0,3.56,2.15,9,9,0,0,0,4.29-1.12Zm-3-13.27c-2.6,0-4.55,2.54-5.21,5,4.29,0,7.66-.53,7.66-3C92.68,147.25,91.69,146.52,90.23,146.52Z"/><path class="cls-1" d="M96.73,160.71l4.46-23.43h2.74l-4.49,23.43Z"/><path class="cls-1" d="M104.26,160.71l2.14-11.32c.33-1.78.56-3.33.73-4.65h2.41l-.43,3h.1a6.81,6.81,0,0,1,5.61-3.36,3.48,3.48,0,0,1,3.73,3.56,6.83,6.83,0,0,1,5.87-3.56c1.85,0,3.86,1.19,3.86,4.19a15.85,15.85,0,0,1-.26,2.71l-1.78,9.43h-2.68l1.72-9.2a10.77,10.77,0,0,0,.23-2.08c0-1.69-.62-2.77-2.41-2.77-2,0-4.32,2.31-5,5.87l-1.55,8.18h-2.64l1.78-9.37a10.41,10.41,0,0,0,.2-2c0-1.35-.37-2.73-2.38-2.73s-4.49,2.64-5.11,6l-1.49,8Z"/><path class="cls-1" d="M131.05,157.94a7.32,7.32,0,0,0,3.44,1,2.75,2.75,0,0,0,3-2.6c0-1.26-.56-2-2.21-2.94-1.85-1-2.87-2.44-2.87-4.06,0-2.81,2.41-5,5.77-5a6.63,6.63,0,0,1,3.34.79l-.76,2.08a5.69,5.69,0,0,0-2.77-.73,2.57,2.57,0,0,0-2.84,2.41c0,1.16.76,1.88,2.18,2.68,1.78,1,3,2.4,3,4.19,0,3.36-2.74,5.24-6.11,5.24a7,7,0,0,1-4-1.08Z"/><path class="cls-1" d="M154.75,159.79a11.07,11.07,0,0,1-5.28,1.25c-4.23,0-6.08-2.87-6.08-6.4,0-4.82,3.57-10.26,8.72-10.26,3,0,4.68,1.81,4.68,4.09,0,4.19-4.72,5.31-10.62,5.22a6.41,6.41,0,0,0,.33,3,3.62,3.62,0,0,0,3.56,2.15,9,9,0,0,0,4.29-1.12Zm-3-13.27c-2.61,0-4.55,2.54-5.21,5,4.29,0,7.65-.53,7.65-3C154.15,147.25,153.16,146.52,151.71,146.52Z"/><path class="cls-1" d="M158.18,160.71l2.14-11.32c.37-1.78.56-3.33.76-4.65h2.44l-.39,3.14h.06a7,7,0,0,1,5.91-3.5c1.92,0,4.06,1.09,4.06,4.45a15.91,15.91,0,0,1-.29,2.58l-1.79,9.3h-2.74l1.75-9.2a10.73,10.73,0,0,0,.23-2c0-1.62-.62-2.8-2.5-2.8s-4.72,2.34-5.45,6.3l-1.45,7.75Z"/><path class="cls-1" d="M192.4,160.71a40.56,40.56,0,0,1,.36-4.12h-.06c-1.75,3.3-3.93,4.49-6.21,4.49-2.8,0-4.59-2.25-4.59-5.28,0-5.55,4.1-11.42,11.06-11.42a15,15,0,0,1,4.29.62l-1.62,8.32a37.5,37.5,0,0,0-.69,7.39Zm1.78-13.92a7.31,7.31,0,0,0-1.91-.23c-4.13,0-7.49,4.32-7.53,8.74,0,1.78.63,3.53,2.74,3.53,2.28,0,5-3,5.78-7.22ZM195.4,140a3.26,3.26,0,0,1-3.43,3.13,3,3,0,0,1-3.17-2.9,3.23,3.23,0,0,1,3.43-3.24A3,3,0,0,1,195.4,140Zm-5,.16a1.64,1.64,0,0,0,1.59,1.72,1.79,1.79,0,0,0,1.71-2,1.6,1.6,0,0,0-1.61-1.72A1.77,1.77,0,0,0,190.45,140.12Z"/><path class="cls-1" d="M22.06,197.54a7.24,7.24,0,0,0,3.43,1,2.75,2.75,0,0,0,3-2.6c0-1.26-.56-2-2.21-2.94-1.85-1-2.87-2.44-2.87-4.06,0-2.81,2.41-5,5.78-5a6.58,6.58,0,0,1,3.33.79l-.76,2.08a5.69,5.69,0,0,0-2.77-.73,2.57,2.57,0,0,0-2.84,2.41c0,1.16.76,1.88,2.18,2.68,1.78,1,3,2.41,3,4.19,0,3.36-2.74,5.25-6.1,5.25a7,7,0,0,1-4-1.09Z"/><path class="cls-1" d="M34.27,200.32l4.42-23.44h2.74l-2.81,14.69h.07c.49-.56,1.09-1.16,1.48-1.62l5.65-5.61h3.36l-7,6.57L47,200.32H44l-3.83-7.89-2,1.81L37,200.32Z"/><path class="cls-1" d="M59.41,200.32a41,41,0,0,1,.37-4.13h-.07c-1.75,3.3-3.93,4.49-6.21,4.49-2.8,0-4.58-2.25-4.58-5.28C48.92,189.85,53,184,60,184a15,15,0,0,1,4.29.62l-1.61,8.32a36.89,36.89,0,0,0-.7,7.4Zm1.78-13.93a7.31,7.31,0,0,0-1.91-.23c-4.12,0-7.49,4.32-7.52,8.74,0,1.78.62,3.53,2.74,3.53,2.27,0,5-3,5.77-7.22Z"/><path class="cls-1" d="M66.08,200.32l4.45-23.44h2.74l-4.49,23.44Z"/><path class="cls-1" d="M85.12,199.39a11.06,11.06,0,0,1-5.28,1.26c-4.23,0-6.07-2.88-6.07-6.41,0-4.82,3.56-10.26,8.71-10.26,3,0,4.69,1.81,4.69,4.09,0,4.19-4.72,5.31-10.63,5.22a6.54,6.54,0,0,0,.33,3,3.63,3.63,0,0,0,3.56,2.15,8.88,8.88,0,0,0,4.29-1.13Zm-3-13.27c-2.6,0-4.55,2.54-5.21,5,4.29,0,7.65-.53,7.65-3C84.52,186.85,83.53,186.12,82.08,186.12Z"/><path class="cls-1" d="M88.55,200.32l2-10.3c.39-2.08.66-4.19.82-5.68h2.41c-.13,1.12-.26,2.24-.43,3.47h.1c1-2.18,2.74-3.83,4.89-3.83A5.7,5.7,0,0,1,99,184l-.52,2.71a4.18,4.18,0,0,0-.73-.07c-2.38,0-4.49,2.88-5.18,6.61l-1.32,7Z"/><path class="cls-1" d="M110.36,199.39a11,11,0,0,1-5.28,1.26c-4.22,0-6.07-2.88-6.07-6.41,0-4.82,3.56-10.26,8.71-10.26,3,0,4.69,1.81,4.69,4.09,0,4.19-4.72,5.31-10.63,5.22a6.68,6.68,0,0,0,.33,3,3.65,3.65,0,0,0,3.57,2.15,8.88,8.88,0,0,0,4.29-1.13Zm-3-13.27c-2.61,0-4.56,2.54-5.22,5,4.29,0,7.66-.53,7.66-3C109.77,186.85,108.78,186.12,107.33,186.12Z"/><path class="cls-1" d="M131.32,199.39a11.06,11.06,0,0,1-5.28,1.26c-4.23,0-6.08-2.88-6.08-6.41,0-4.82,3.57-10.26,8.72-10.26,3,0,4.68,1.81,4.68,4.09,0,4.19-4.72,5.31-10.62,5.22a6.41,6.41,0,0,0,.33,3,3.62,3.62,0,0,0,3.56,2.15,8.88,8.88,0,0,0,4.29-1.13Zm-3-13.27c-2.61,0-4.55,2.54-5.21,5,4.29,0,7.65-.53,7.65-3C130.72,186.85,129.73,186.12,128.28,186.12Z"/><path class="cls-1" d="M141.91,180.05l-.83,4.29h3.83l-.43,2.15h-3.82l-1.49,7.75a14.49,14.49,0,0,0-.3,2.58,1.35,1.35,0,0,0,1.52,1.51,8.33,8.33,0,0,0,1.29-.09l-.13,2.14a6.35,6.35,0,0,1-2.12.3c-2.44,0-3.36-1.49-3.36-3.1a15,15,0,0,1,.33-3l1.58-8.08h-2.31l.43-2.15h2.28l.69-3.6Z"/><path class="cls-1" d="M152.24,180.05l-.83,4.29h3.83l-.43,2.15H151l-1.48,7.75a13.62,13.62,0,0,0-.3,2.58,1.34,1.34,0,0,0,1.52,1.51,8.42,8.42,0,0,0,1.29-.09l-.13,2.14a6.35,6.35,0,0,1-2.12.3c-2.44,0-3.36-1.49-3.36-3.1a15,15,0,0,1,.33-3l1.58-8.08H146l.43-2.15h2.28l.69-3.6Z"/><path class="cls-1" d="M166.79,199.39a11,11,0,0,1-5.28,1.26c-4.22,0-6.07-2.88-6.07-6.41,0-4.82,3.56-10.26,8.71-10.26,3,0,4.69,1.81,4.69,4.09,0,4.19-4.72,5.31-10.63,5.22a6.68,6.68,0,0,0,.33,3,3.65,3.65,0,0,0,3.57,2.15,8.88,8.88,0,0,0,4.29-1.13Zm-3-13.27c-2.61,0-4.56,2.54-5.22,5,4.29,0,7.66-.53,7.66-3C166.2,186.85,165.21,186.12,163.76,186.12Z"/><path class="cls-1" d="M170.22,200.32l1.95-10.3c.39-2.08.66-4.19.82-5.68h2.41c-.13,1.12-.26,2.24-.43,3.47h.1c1-2.18,2.74-3.83,4.89-3.83a6,6,0,0,1,.76.06l-.53,2.71a4.18,4.18,0,0,0-.73-.07c-2.37,0-4.49,2.88-5.18,6.61l-1.32,7Z"/><path class="cls-1" d="M193.78,176.88l-2.11,10.37h.07a6.72,6.72,0,0,1,5.61-3.27c3.5,0,4.82,2.9,4.82,5.74,0,4.89-3.53,11-9.94,11-2.8,0-4.92-1.16-4.92-4.13a16,16,0,0,1,.27-2.47l3.46-17.2Zm-3.46,17.26a7.23,7.23,0,0,0-.2,2c0,1.51.86,2.37,2.57,2.37,4.13,0,6.64-4.91,6.64-8.45,0-2-.86-3.83-3-3.83-2.37,0-4.82,2.45-5.61,6.21Z"/><path class="cls-1" d="M215.66,199.39a11,11,0,0,1-5.28,1.26c-4.22,0-6.07-2.88-6.07-6.41,0-4.82,3.56-10.26,8.71-10.26,3,0,4.69,1.81,4.69,4.09,0,4.19-4.72,5.31-10.63,5.22a6.68,6.68,0,0,0,.33,3,3.65,3.65,0,0,0,3.57,2.15,8.88,8.88,0,0,0,4.29-1.13Zm-3-13.27c-2.61,0-4.56,2.54-5.22,5,4.29,0,7.66-.53,7.66-3C215.07,186.85,214.08,186.12,212.63,186.12Z"/><path class="cls-1" d="M219.09,200.32l4.46-23.44h2.74l-2,10.3h.06a6.86,6.86,0,0,1,5.71-3.2c1.82,0,4,1.12,4,4.29a14.2,14.2,0,0,1-.26,2.7L232,200.32h-2.74l1.78-9.21a13,13,0,0,0,.2-2.21c0-1.49-.69-2.65-2.48-2.65-2.11,0-4.78,2.48-5.44,6.08l-1.49,8Z"/><path class="cls-1" d="M252,190.64c0,4.92-3.5,10-8.85,10-4,0-6.23-3-6.23-6.57,0-5.25,3.66-10.13,8.84-10.13C250.12,184,252,187.25,252,190.64ZM239.78,194c0,2.61,1.42,4.49,3.77,4.49,3.23,0,5.67-4.16,5.67-7.89,0-1.85-.85-4.45-3.73-4.45C242.06,186.16,239.75,190.35,239.78,194Z"/><path class="cls-1" d="M257.27,184.34l1.39,9.11c.23,1.82.43,3,.5,3.93h.09a34.72,34.72,0,0,1,1.69-3.73l4.88-9.31h3l-8.88,16h-2.71l-2.77-16Z"/><path class="cls-1" d="M269.68,185.92h2.21l3.44,6.08-4.89,6.07H268l5-6.17Zm5.41,0h2.22l3.43,6.08-4.89,6.07h-2.41l5-6.17Z"/></svg>