<?xml version="1.0" encoding="utf-8"?>
<!-- Generator: Adobe Illustrator 19.1.1, SVG Export Plug-In . SVG Version: 6.00 Build 0)  -->
<svg version="1.1" id="Layer_1" xmlns="http://www.w3.org/2000/svg" xmlns:xlink="http://www.w3.org/1999/xlink" x="0px" y="0px"
	 viewBox="0 0 300 600" style="enable-background:new 0 0 300 600;" xml:space="preserve">
<style type="text/css">
	.st0{fill:#D80201;}
	.st1{fill:#FFFFFF;}
</style>
<path class="st0" d="M229.2,452.9H68.8c-8.5,0-15.4-6.9-15.4-15.4v0c0-8.5,6.9-15.4,15.4-15.4h160.4c8.5,0,15.4,6.9,15.4,15.4v0
	C244.7,445.9,237.7,452.9,229.2,452.9z"/>
<g>
	<path class="st1" d="M89.9,443.5l-4.3-5.4l-0.3,0.3v5.1H83v-12h2.3v5.1l4.4-5.1h3l-5.1,5.5l5.4,6.5H89.9z"/>
	<path class="st1" d="M99.6,443.7c-3.5,0-6.4-2.6-6.4-6.3c0-3.6,2.9-6.3,6.5-6.3c3.5,0,6.4,2.7,6.4,6.3
		C106,441,103.1,443.7,99.6,443.7z M99.6,433.3c-2.3,0-4,1.9-4,4.1c0,2.2,1.7,4.2,4,4.2c2.3,0,4-1.9,4-4.2
		C103.6,435.2,101.9,433.3,99.6,433.3z"/>
	<path class="st1" d="M119.3,443.5l-1.1-7.4l-3.3,7.6h-0.6l-3.2-7.6l-1.2,7.4h-2.4l2.2-12.2h1.6l3.3,7.9l3.4-7.9h1.6l2,12.2H119.3z"
		/>
	<path class="st1" d="M128.4,443.5v-12h2.3v12H128.4z"/>
	<path class="st1" d="M144.8,439.3c-0.6,2.8-2.9,4.4-5.7,4.4c-3.6,0-6.3-2.6-6.3-6.3s2.7-6.3,6.4-6.3c2.2,0,4,0.9,5.2,2.8l-2,1.1
		c-0.7-1.2-1.8-1.8-3.1-1.8c-2.3,0-3.9,1.9-3.9,4.2c0,2.3,1.6,4.1,3.9,4.1c1.6,0,2.9-0.9,3.1-2.6h-2.8v-2h5.5v0.3
		C145,438,145,438.6,144.8,439.3z"/>
	<path class="st1" d="M154.9,443.5l-1-2.5h-4.9l-1.1,2.5h-2.5l5.2-12.3h1.8l5.1,12.3H154.9z M151.4,434.7l-1.7,4.3h3.4L151.4,434.7z
		 M151.4,430.3c-0.9,0-1.7-0.8-1.7-1.7s0.8-1.7,1.7-1.7s1.7,0.7,1.7,1.7S152.3,430.3,151.4,430.3z M151.4,427.9
		c-0.4,0-0.7,0.3-0.7,0.7c0,0.4,0.3,0.7,0.7,0.7c0.4,0,0.7-0.3,0.7-0.7C152.1,428.2,151.8,427.9,151.4,427.9z"/>
	<path class="st1" d="M168.5,443.7l-7.3-8.4v8.1h-2.3v-12.3h1.6l7.3,8.4v-8.1h2.3v12.3H168.5z"/>
	<path class="st1" d="M184.2,439.3c-0.6,2.8-2.9,4.4-5.7,4.4c-3.6,0-6.3-2.6-6.3-6.3s2.7-6.3,6.4-6.3c2.2,0,4,0.9,5.2,2.8l-2,1.1
		c-0.7-1.2-1.8-1.8-3.1-1.8c-2.3,0-3.9,1.9-3.9,4.2c0,2.3,1.6,4.1,3.9,4.1c1.6,0,2.9-0.9,3.1-2.6h-2.8v-2h5.5v0.3
		C184.4,438,184.4,438.6,184.2,439.3z"/>
</g>
<polygon class="st1" points="209.1,438.9 196.4,438.9 196.4,435.7 209.1,435.7 209.1,430.8 218.1,437.3 209.1,443.6 "/>
</svg>
