<svg id="Layer_1" data-name="Layer 1" xmlns="http://www.w3.org/2000/svg" viewBox="0 0 160 600"><defs><style>.cls-1{fill:#d80201;}.cls-2{fill:#fff;}</style></defs><title>text</title><rect class="cls-1" x="14.3" y="523.33" width="129.39" height="20.89" rx="10.44"/><path class="cls-2" d="M39.06,537.84l-2.9-3.65-.19.18v3.47H34.39v-8.13H36v3.43l3-3.43h2l-3.44,3.75,3.62,4.38Z"/><path class="cls-2" d="M45.6,538a4.22,4.22,0,0,1-4.34-4.23A4.35,4.35,0,1,1,45.6,538Zm0-7a2.81,2.81,0,1,0,2.72,2.79A2.76,2.76,0,0,0,45.6,531Z"/><path class="cls-2" d="M59,537.84l-.72-5L56,538h-.44l-2.15-5.12-.82,5H51l1.51-8.28h1.09l2.22,5.31,2.31-5.31h1.09l1.35,8.28Z"/><path class="cls-2" d="M65,537.84v-8.13h1.59v8.13Z"/><path class="cls-2" d="M76.19,535a3.76,3.76,0,0,1-3.86,3,4.1,4.1,0,0,1-4.26-4.23,4.17,4.17,0,0,1,4.31-4.27,3.89,3.89,0,0,1,3.49,1.92l-1.38.74A2.37,2.37,0,0,0,72.37,531a2.69,2.69,0,0,0-2.67,2.82,2.66,2.66,0,0,0,2.67,2.79,2,2,0,0,0,2.12-1.73H72.58v-1.37h3.73v.2A7.5,7.5,0,0,1,76.19,535Z"/><path class="cls-2" d="M83,537.84l-.69-1.72H79l-.74,1.72H76.54l3.52-8.31h1.19l3.43,8.31Zm-2.32-5.93-1.19,2.93h2.33Zm0-3a1.13,1.13,0,1,1,0-2.25,1.13,1.13,0,1,1,0,2.25Zm0-1.59a.46.46,0,0,0,0,.92.46.46,0,1,0,0-.92Z"/><path class="cls-2" d="M92.16,538l-5-5.66v5.5H85.63v-8.32h1.09l5,5.66v-5.47h1.59V538Z"/><path class="cls-2" d="M102.82,535A3.75,3.75,0,0,1,99,538a4.11,4.11,0,0,1-4.27-4.23A4.18,4.18,0,0,1,99,529.52a3.89,3.89,0,0,1,3.49,1.92l-1.38.74A2.4,2.4,0,0,0,99,531a2.69,2.69,0,0,0-2.67,2.82A2.66,2.66,0,0,0,99,536.58a2,2,0,0,0,2.12-1.73H99.21v-1.37H103v.2A6.69,6.69,0,0,1,102.82,535Z"/><polygon class="cls-2" points="119.62 534.79 111.06 534.79 111.06 532.62 119.62 532.62 119.62 529.32 125.71 533.71 119.62 537.91 119.62 534.79"/></svg>