<svg id="Layer_1" data-name="Layer 1" xmlns="http://www.w3.org/2000/svg" viewBox="0 0 320 320"><defs><style>.cls-1{fill:#d80201;}</style></defs><title>text</title><path class="cls-1" d="M94.75,239.53v2.57h2.89v.9H94.75v4.29h-1v-8.67h3.94v.91Z"/><path class="cls-1" d="M103.3,247.29v-.76a2.32,2.32,0,0,1-1.88.91,2.67,2.67,0,0,1-2.6-2.87,2.63,2.63,0,0,1,2.59-2.81,2.3,2.3,0,0,1,1.89.9v-.77h.92v5.4Zm-1.75-4.7a1.85,1.85,0,0,0-1.78,2,1.86,1.86,0,0,0,1.78,2,1.85,1.85,0,0,0,1.8-2A1.83,1.83,0,0,0,101.55,242.59Zm0-1.76a1.12,1.12,0,1,1,1.12-1.12A1.12,1.12,0,0,1,101.53,240.83Zm0-1.67a.55.55,0,0,0-.55.55.55.55,0,0,0,.55.54.54.54,0,0,0,.54-.54A.55.55,0,0,0,101.53,239.16Z"/><path class="cls-1" d="M110.52,249.29a2.59,2.59,0,0,1-2.15,1,2.43,2.43,0,0,1-2.63-2.47h.92a1.62,1.62,0,0,0,1.72,1.64c1.3,0,1.73-1,1.73-2.13v-.8a2.45,2.45,0,0,1-1.9.9,2.85,2.85,0,0,1,0-5.67,2.31,2.31,0,0,1,1.86.89v-.76H111v5.28A3.29,3.29,0,0,1,110.52,249.29Zm-2.17-6.7a1.86,1.86,0,0,0-1.77,2,1.83,1.83,0,0,0,1.77,2,2,2,0,0,0,0-4Z"/><path class="cls-1" d="M113.44,244.78a1.74,1.74,0,0,0,1.71,1.82,1.86,1.86,0,0,0,1.66-1.12l.79.43a2.7,2.7,0,0,1-2.47,1.53,2.85,2.85,0,0,1-.06-5.68,2.59,2.59,0,0,1,2.58,2.84v.18Zm1.66-2.17a1.65,1.65,0,0,0-1.6,1.39h3.17A1.61,1.61,0,0,0,115.1,242.61Z"/><path class="cls-1" d="M119.06,247.29v-9.48H120v9.48Z"/><path class="cls-1" d="M123.63,247.64,121,241.89h1l1.62,3.63,1.6-3.63h1Z"/><path class="cls-1" d="M127.72,240.51a.66.66,0,1,1,.66-.66A.67.67,0,0,1,127.72,240.51Zm-.47,6.78v-5.4h.93v5.4Z"/><path class="cls-1" d="M133.3,247.29l-2.19-2.46-.23.23v2.23H130v-9.48h.92v6.07l2-2h1.24l-2.32,2.29,2.75,3.11Z"/><path class="cls-1" d="M136.89,247.44a1.93,1.93,0,0,1-1.89-1.38l.81-.33c.22.48.52.87,1.09.87a.84.84,0,0,0,.88-.85c0-1.17-2.43-.8-2.43-2.48a1.52,1.52,0,0,1,1.57-1.51,1.63,1.63,0,0,1,1.49,1l-.77.4a.86.86,0,0,0-.75-.53.64.64,0,0,0-.65.59c0,1,2.49.71,2.49,2.47A1.77,1.77,0,0,1,136.89,247.44Z"/><path class="cls-1" d="M141.85,247.64l-2.65-5.75h1l1.61,3.63,1.6-3.63h1Z"/><path class="cls-1" d="M149.6,247.29v-.76a2.29,2.29,0,0,1-1.87.91,2.67,2.67,0,0,1-2.6-2.87,2.62,2.62,0,0,1,2.58-2.81,2.29,2.29,0,0,1,1.89.9v-.77h.92v5.4Zm-1.74-4.7a1.84,1.84,0,0,0-1.78,2,1.86,1.86,0,0,0,1.78,2,1.84,1.84,0,0,0,1.79-2A1.82,1.82,0,0,0,147.86,242.59Zm-1.08-1.8a.66.66,0,0,1-.65-.65.65.65,0,1,1,1.3,0A.65.65,0,0,1,146.78,240.79Zm2.26,0a.66.66,0,0,1-.65-.65.65.65,0,1,1,.65.65Z"/><path class="cls-1" d="M156.83,249.29a2.63,2.63,0,0,1-2.16,1,2.44,2.44,0,0,1-2.63-2.47H153a1.6,1.6,0,0,0,1.71,1.64c1.3,0,1.73-1,1.73-2.13v-.8a2.44,2.44,0,0,1-1.9.9,2.85,2.85,0,0,1,0-5.67,2.29,2.29,0,0,1,1.86.89v-.76h.94v5.28A3.29,3.29,0,0,1,156.83,249.29Zm-2.17-6.7a1.85,1.85,0,0,0-1.77,2,1.82,1.82,0,0,0,1.77,2,2,2,0,0,0,0-4Z"/><path class="cls-1" d="M159.74,244.78a1.74,1.74,0,0,0,1.72,1.82,1.87,1.87,0,0,0,1.66-1.12l.78.43a2.7,2.7,0,0,1-2.47,1.53,2.85,2.85,0,0,1-.05-5.68A2.58,2.58,0,0,1,164,244.6v.18Zm1.66-2.17a1.67,1.67,0,0,0-1.6,1.39H163A1.62,1.62,0,0,0,161.4,242.61Z"/><path class="cls-1" d="M168.76,247.29V244.1c0-.84-.12-1.51-1.13-1.51-1.2,0-1.34,1-1.34,2v2.71h-.92v-5.4h.92v.65a1.83,1.83,0,0,1,1.56-.78,1.86,1.86,0,0,1,1.54.74,2.53,2.53,0,0,1,.31,1.43v3.36Z"/><path class="cls-1" d="M179.79,243.4l-3,4.09-.72-.53,2-2.78a2.66,2.66,0,0,1-.79.12,2.8,2.8,0,0,1-2.79-2.85,3,3,0,0,1,6,0A3.53,3.53,0,0,1,179.79,243.4Zm-2.27-4a2,2,0,1,0,2,2A2,2,0,0,0,177.52,239.37Z"/><path class="cls-1" d="M184.28,247.43a3,3,0,0,1-2.65-1.55l.77-.54a2.28,2.28,0,0,0,2,1.19,2.16,2.16,0,0,0,2.15-2.2,2.11,2.11,0,0,0-2.14-2.15,3,3,0,0,0-1.67.6l1.26-4.16h3.44v.91h-2.77l-.57,1.84a2.07,2.07,0,0,1,.5-.05,2.87,2.87,0,0,1,2.91,3A3.08,3.08,0,0,1,184.28,247.43Z"/><path class="cls-1" d="M189.5,249.26l-.62-.24,1.07-3,.86.31Z"/><path class="cls-1" d="M195.9,247.29v-8.67h1v8.67Z"/><path class="cls-1" d="M202.27,247.29V244.1c0-.84-.11-1.51-1.13-1.51-1.19,0-1.34,1-1.34,2v2.71h-.92v-5.4h.92v.65a1.84,1.84,0,0,1,1.56-.78,1.86,1.86,0,0,1,1.54.74,2.53,2.53,0,0,1,.31,1.43v3.36Z"/><path class="cls-1" d="M209.52,249.29a2.63,2.63,0,0,1-2.16,1,2.43,2.43,0,0,1-2.63-2.47h.92a1.62,1.62,0,0,0,1.72,1.64c1.3,0,1.73-1,1.73-2.13v-.8a2.44,2.44,0,0,1-1.9.9,2.85,2.85,0,0,1,0-5.67,2.31,2.31,0,0,1,1.86.89v-.76H210v5.28A3.29,3.29,0,0,1,209.52,249.29Zm-2.18-6.7a1.85,1.85,0,0,0-1.76,2,1.82,1.82,0,0,0,1.76,2,2,2,0,0,0,0-4Z"/><path class="cls-1" d="M215.92,247.29v-.76a2.29,2.29,0,0,1-1.87.91,2.67,2.67,0,0,1-2.6-2.87,2.63,2.63,0,0,1,2.59-2.81,2.27,2.27,0,0,1,1.88.9v-.77h.93v5.4Zm-1.74-4.7a1.85,1.85,0,0,0-1.78,2,1.86,1.86,0,0,0,1.78,2,1.85,1.85,0,0,0,1.8-2A1.83,1.83,0,0,0,214.18,242.59Z"/><path class="cls-1" d="M221.15,242.83a.81.81,0,0,0-.55-.18,1,1,0,0,0-.46.11c-.6.33-.6,1.09-.6,1.68v2.85h-.92v-5.4h.92v.59a1.44,1.44,0,0,1,1.22-.72,1.56,1.56,0,0,1,.83.22Z"/><path class="cls-1" d="M225,247.44a2.84,2.84,0,1,1,2.85-2.83A2.82,2.82,0,0,1,225,247.44Zm0-4.83a2,2,0,1,0,1.91,2A1.89,1.89,0,0,0,225,242.61Zm-1.12-1.82a.66.66,0,0,1-.65-.65.65.65,0,1,1,1.3,0A.65.65,0,0,1,223.83,240.79Zm2.26,0a.66.66,0,0,1-.65-.65.65.65,0,1,1,.65.65Z"/><path class="cls-1" d="M90.24,262.44a2.65,2.65,0,0,1-2.68-2.23l.93-.26a1.77,1.77,0,0,0,1.77,1.58A1.71,1.71,0,0,0,92,259.82c0-2-4-1.56-4-4.11a2.29,2.29,0,0,1,2.43-2.24,2.5,2.5,0,0,1,2.24,1.35l-.77.51a1.61,1.61,0,0,0-1.48-1A1.37,1.37,0,0,0,89,255.71c0,1.79,4,1.27,4,4.07A2.67,2.67,0,0,1,90.24,262.44Z"/><path class="cls-1" d="M97,262.44a2.84,2.84,0,1,1,2.85-2.83A2.82,2.82,0,0,1,97,262.44Zm0-4.83a2,2,0,1,0,1.91,2A1.89,1.89,0,0,0,97,257.61Zm-1.12-1.82a.66.66,0,0,1-.65-.65.65.65,0,1,1,.65.65Zm2.26,0a.66.66,0,0,1-.65-.65.65.65,0,1,1,.65.65Z"/><path class="cls-1" d="M104.68,262.29V259.1c0-.84-.12-1.51-1.13-1.51-1.2,0-1.34,1-1.34,2v2.71h-.92v-5.4h.92v.65a2,2,0,0,1,3.09,0,2.46,2.46,0,0,1,.32,1.43v3.36Z"/><path class="cls-1" d="M111.5,262.29v-.76a2.29,2.29,0,0,1-1.87.91,2.67,2.67,0,0,1-2.6-2.86,2.64,2.64,0,0,1,2.59-2.82,2.3,2.3,0,0,1,1.88.9v-4.85h.93v9.48Zm-1.74-4.68a2,2,0,1,0,1.8,2A1.81,1.81,0,0,0,109.76,257.61Z"/><path class="cls-1" d="M118.32,262.29v-.76a2.32,2.32,0,0,1-1.88.91,2.67,2.67,0,0,1-2.6-2.87,2.63,2.63,0,0,1,2.59-2.81,2.3,2.3,0,0,1,1.89.9v-.77h.92v5.4Zm-1.75-4.7a1.85,1.85,0,0,0-1.78,2,1.86,1.86,0,0,0,1.78,2,1.85,1.85,0,0,0,1.8-2A1.82,1.82,0,0,0,116.57,257.59Z"/><path class="cls-1" d="M125.54,264.29a2.59,2.59,0,0,1-2.15,1,2.43,2.43,0,0,1-2.63-2.47h.92a1.62,1.62,0,0,0,1.72,1.64c1.3,0,1.73-1,1.73-2.13v-.8a2.45,2.45,0,0,1-1.9.9,2.85,2.85,0,0,1,0-5.67,2.31,2.31,0,0,1,1.86.89v-.76h.93v5.28A3.29,3.29,0,0,1,125.54,264.29Zm-2.17-6.7a1.86,1.86,0,0,0-1.77,2,1.83,1.83,0,0,0,1.77,2,2,2,0,0,0,0-4Z"/><path class="cls-1" d="M133.64,262.29v-7.76H132.2l.51-.91h1.89v8.67Z"/><path class="cls-1" d="M144.12,259.71c-.38,1.33-1.35,2.72-2.87,2.72s-2.43-1.33-2.82-2.6a6.21,6.21,0,0,1-.28-1.86,6.57,6.57,0,0,1,.24-1.77c.37-1.32,1.35-2.71,2.87-2.71s2.43,1.31,2.82,2.58a6.54,6.54,0,0,1,.27,1.86A6.69,6.69,0,0,1,144.12,259.71Zm-2.9-5.34c-1.1,0-1.73,1.26-1.95,2.18a6.22,6.22,0,0,0,0,2.93c.25.92.89,2,2,2s1.7-1.18,2-2.09a5.71,5.71,0,0,0,.18-1.48C143.39,256.68,142.86,254.37,141.22,254.37Z"/><path class="cls-1" d="M150,257.75v4.54h-.93v-4.54h-.5v-.86h.5v-2.3a3,3,0,0,1,.15-1,1.49,1.49,0,0,1,1.45-.9,2.55,2.55,0,0,1,.68.12v.94a1.63,1.63,0,0,0-.61-.13c-.68,0-.74.5-.74,1v2.26h1.35v.86Z"/><path class="cls-1" d="M152.8,259.78a1.76,1.76,0,0,0,1.72,1.82,1.86,1.86,0,0,0,1.66-1.12l.78.43a2.68,2.68,0,0,1-2.47,1.53,2.85,2.85,0,0,1-.05-5.68A2.59,2.59,0,0,1,157,259.6v.18Zm1.67-2.17a1.65,1.65,0,0,0-1.6,1.39H156A1.61,1.61,0,0,0,154.47,257.61Z"/><path class="cls-1" d="M161.23,262.44a2.29,2.29,0,0,1-1.87-.91v.76h-.93v-9.48h.93v4.85a2.3,2.3,0,0,1,1.88-.9,2.64,2.64,0,0,1,2.59,2.82A2.67,2.67,0,0,1,161.23,262.44Zm-.13-4.83a1.82,1.82,0,0,0-1.8,2,1.8,1.8,0,1,0,1.8-2Z"/><path class="cls-1" d="M167.78,257.83a.81.81,0,0,0-.55-.18,1,1,0,0,0-.46.11c-.6.33-.6,1.09-.6,1.68v2.85h-.93v-5.4h.93v.59a1.44,1.44,0,0,1,1.22-.72,1.56,1.56,0,0,1,.83.22Z"/><path class="cls-1" d="M172.88,261.77a2.16,2.16,0,0,1-3.8-1.63v-3.25H170V260a2,2,0,0,0,.17,1,1.17,1.17,0,0,0,1.05.55,1.15,1.15,0,0,0,1-.55,2.08,2.08,0,0,0,.17-1v-3.15h.93v3.25A2.24,2.24,0,0,1,172.88,261.77Z"/><path class="cls-1" d="M179.25,262.29v-.76a2.32,2.32,0,0,1-1.88.91,2.67,2.67,0,0,1-2.6-2.87,2.63,2.63,0,0,1,2.59-2.81,2.3,2.3,0,0,1,1.89.9v-.77h.92v5.4Zm-1.75-4.7a1.85,1.85,0,0,0-1.78,2,1.86,1.86,0,0,0,1.78,2,1.85,1.85,0,0,0,1.8-2A1.83,1.83,0,0,0,177.5,257.59Z"/><path class="cls-1" d="M184.47,257.83a.8.8,0,0,0-.54-.18,1,1,0,0,0-.47.11c-.6.33-.6,1.09-.6,1.68v2.85h-.92v-5.4h.92v.59a1.44,1.44,0,0,1,1.22-.72,1.56,1.56,0,0,1,.83.22Z"/><path class="cls-1" d="M186.24,255.51a.66.66,0,1,1,.66-.66A.67.67,0,0,1,186.24,255.51Zm-.47,6.78v-5.4h.92v5.4Z"/><path class="cls-1" d="M195.07,262.29l-2.19-2.46-.23.23v2.23h-.93v-9.48h.93v6.07l2-2h1.24l-2.32,2.29,2.75,3.11Z"/><path class="cls-1" d="M197.2,262.29v-9.48h.92v9.48Z"/><path class="cls-1" d="M205.7,262.29v-7.76h-1.44l.5-.91h1.9v8.67Z"/><path class="cls-1" d="M215.28,260.87v1.42h-1v-1.42h-4.45l5.41-7.74V260h1.07v.88Zm-1-4.8L211.58,260h2.74Z"/><path class="cls-1" d="M217,259.93v-.83h2.35v.83Z"/><path class="cls-1" d="M222.79,262.29v-7.76h-1.44l.51-.91h1.9v8.67Z"/><path class="cls-1" d="M230.41,262.43a3,3,0,0,1-3-2.94,3.52,3.52,0,0,1,.71-2l3-4.09.72.54-2,2.77a2.67,2.67,0,0,1,.8-.11,2.81,2.81,0,0,1,2.78,2.85A3,3,0,0,1,230.41,262.43Zm0-5a2,2,0,1,0,2,2A2,2,0,0,0,230.4,257.46Z"/></svg>