<svg id="Layer_1" data-name="Layer 1" xmlns="http://www.w3.org/2000/svg" viewBox="0 0 300 250"><defs><style>.cls-1{fill:#d4ac76;}</style></defs><title>text</title><path class="cls-1" d="M54.3,90.5l-3.92-10H52l3,7.72,3-7.72h1.55l-3.93,10Z"/><path class="cls-1" d="M60.39,90.5l4-10h1.27l4,10H68.09L67.49,89H62.56l-.62,1.55ZM64,79.38a.65.65,0,0,1-1,0,.72.72,0,0,1-.2-.54.76.76,0,0,1,.2-.55.67.67,0,0,1,1,0,.77.77,0,0,1,.21.55A.73.73,0,0,1,64,79.38Zm1,3.38L63.1,87.61H67Zm1.75-3.38a.64.64,0,0,1-.5.23.66.66,0,0,1-.5-.23.77.77,0,0,1-.2-.54.81.81,0,0,1,.2-.55.68.68,0,0,1,.5-.22.67.67,0,0,1,.5.22.76.76,0,0,1,.2.55A.72.72,0,0,1,66.8,79.38Z"/><path class="cls-1" d="M72.44,90.5v-10h3.73a3.12,3.12,0,0,1,2.26.88,3.11,3.11,0,0,1-1.77,5.35l2.91,3.82H77.84L75,86.67H73.84V90.5ZM76,81.79H73.84v3.63H76a2.05,2.05,0,0,0,1.42-.5,1.81,1.81,0,0,0,0-2.61A2,2,0,0,0,76,81.79Z"/><path class="cls-1" d="M82.86,90.5v-10h2.7a5.06,5.06,0,0,1,3.51,8.62A4.91,4.91,0,0,1,85.5,90.5Zm2.75-8.71H84.27v7.37h1.38a3.22,3.22,0,0,0,2.47-1.08,3.69,3.69,0,0,0,1-2.62,3.57,3.57,0,0,0-1-2.61A3.34,3.34,0,0,0,85.61,81.79Z"/><path class="cls-1" d="M99.53,86.09H95.39v3.07h4.42V90.5H94v-10h5.75v1.34H95.39v3h4.14Z"/><path class="cls-1" d="M103.3,90.5v-10h5.48v1.34H104.7V85h3.62v1.34H104.7V90.5Z"/><path class="cls-1" d="M115.32,90.67a3.49,3.49,0,0,1-2.62-1,3.65,3.65,0,0,1-1-2.66V80.45h1.4v6.43a2.56,2.56,0,0,0,.6,1.75,2,2,0,0,0,1.65.7,2.13,2.13,0,0,0,1.66-.68,2.57,2.57,0,0,0,.6-1.76V80.45H119V87a3.68,3.68,0,0,1-1,2.66A3.56,3.56,0,0,1,115.32,90.67Z"/><path class="cls-1" d="M123,90.5v-10h1.4v8.71h4.14V90.5Z"/><path class="cls-1" d="M131.6,90.5v-10H133v8.71h4.14V90.5Z"/><path class="cls-1" d="M137.4,81.79V80.45h8.13v1.34h-3.36V90.5h-1.41V81.79Z"/><path class="cls-1" d="M159.56,86.09h-4.13v3.07h4.42V90.5H154v-10h5.75v1.34h-4.34v3h4.13Z"/><path class="cls-1" d="M163.33,90.5v-10h3.73a3.1,3.1,0,0,1,2.26.88,3.11,3.11,0,0,1-1.76,5.35l2.91,3.82h-1.73l-2.89-3.83h-1.11V90.5Zm3.54-8.71h-2.13v3.63h2.12a2,2,0,0,0,1.42-.5,1.68,1.68,0,0,0,.55-1.32,1.7,1.7,0,0,0-.55-1.29A2,2,0,0,0,166.87,81.79Z"/><path class="cls-1" d="M173.76,90.5v-10h3.07a3.19,3.19,0,0,1,2.21.78,2.57,2.57,0,0,1,.88,2,2.38,2.38,0,0,1-1.2,2.16,2.39,2.39,0,0,1,1.08.9,2.32,2.32,0,0,1,.41,1.35,2.63,2.63,0,0,1-.88,2.06,3.32,3.32,0,0,1-2.25.77Zm2.93-8.71h-1.53v3H177a1.5,1.5,0,0,0,1.11-.44,1.52,1.52,0,0,0,.46-1.15,1.28,1.28,0,0,0-.51-1.06A2,2,0,0,0,176.69,81.79Zm.31,4.3h-1.84v3.07h1.75a2.05,2.05,0,0,0,1.38-.43,1.42,1.42,0,0,0,.51-1.15,1.38,1.38,0,0,0-.46-1.07A1.94,1.94,0,0,0,177,86.09Z"/><path class="cls-1" d="M185.64,90.66a3.4,3.4,0,0,1-2-.6,3.13,3.13,0,0,1-1.18-1.62l1.29-.64a2.22,2.22,0,0,0,.71,1.1,1.8,1.8,0,0,0,1.18.42,1.73,1.73,0,0,0,1.36-.57,2.3,2.3,0,0,0,.5-1.56V80.45h1.4v6.71a3.5,3.5,0,0,1-.91,2.59A3.2,3.2,0,0,1,185.64,90.66Z"/><path class="cls-1" d="M196.21,90.67a3.52,3.52,0,0,1-2.62-1,3.68,3.68,0,0,1-1-2.66V80.45H194v6.43a2.56,2.56,0,0,0,.6,1.75,2,2,0,0,0,1.64.7,2.14,2.14,0,0,0,1.67-.68,2.57,2.57,0,0,0,.6-1.76V80.45h1.41V87a3.65,3.65,0,0,1-1,2.66A3.52,3.52,0,0,1,196.21,90.67Z"/><path class="cls-1" d="M203.88,90.5v-10h2.69a5.06,5.06,0,0,1,3.52,8.62,4.94,4.94,0,0,1-3.57,1.43Zm2.75-8.71h-1.35v7.37h1.38a3.24,3.24,0,0,0,2.48-1.08,3.68,3.68,0,0,0,1-2.62,3.57,3.57,0,0,0-1-2.61A3.34,3.34,0,0,0,206.63,81.79Z"/><path class="cls-1" d="M213.54,90.5l4-10h1.27l4,10h-1.55L220.64,89h-4.93l-.62,1.55Zm4.67-7.74-2,4.85h3.86Z"/><path class="cls-1" d="M225.59,90.5v-10h1L232,87.37V80.45h1.4v10h-.78L227,83.33V90.5Z"/><path class="cls-1" d="M237.61,90.5v-10h2.7a5.06,5.06,0,0,1,3.51,8.62,4.91,4.91,0,0,1-3.57,1.43Zm2.75-8.71H239v7.37h1.38a3.26,3.26,0,0,0,2.48-1.08,3.72,3.72,0,0,0,1-2.62,3.57,3.57,0,0,0-1-2.61A3.34,3.34,0,0,0,240.36,81.79Z"/><path class="cls-1" d="M254.28,86.09h-4.14v3.07h4.42V90.5h-5.82v-10h5.75v1.34h-4.35v3h4.14Z"/></svg>