<svg id="Layer_1" data-name="Layer 1" xmlns="http://www.w3.org/2000/svg" viewBox="0 0 300 250"><defs><style>.cls-1{fill:#d4ac76;}</style></defs><title>text</title><path class="cls-1" d="M48.51,44.18V22.54h7.12a6.54,6.54,0,0,1,4.74,1.8,6,6,0,0,1,1.86,4.47,5.09,5.09,0,0,1-2.43,4.35,6.07,6.07,0,0,1,2.4,1.94,4.57,4.57,0,0,1,.9,2.75,5.94,5.94,0,0,1-1.89,4.58,6.78,6.78,0,0,1-4.79,1.75Zm6.65-18h-2.9v5.43H55.5a3,3,0,0,0,2.15-.8,2.67,2.67,0,0,0,.83-2,2.31,2.31,0,0,0-.91-1.91A3.8,3.8,0,0,0,55.16,26.15Zm.62,8.68H52.26v5.74h3.43a3.47,3.47,0,0,0,2.45-.82,2.91,2.91,0,0,0,.06-4.15A3.5,3.5,0,0,0,55.78,34.83Z"/><path class="cls-1" d="M91.27,33.34a11.26,11.26,0,0,1-19.2,7.93,11.2,11.2,0,0,1,0-15.86,11.25,11.25,0,0,1,19.2,7.93ZM74.93,38.51a7.12,7.12,0,0,0,10.18,0,7.44,7.44,0,0,0,0-10.36,7.12,7.12,0,0,0-10.18,0,7.46,7.46,0,0,0,0,10.36Z"/><path class="cls-1" d="M98.18,44.18V22.54h3.76v9.54l8.28-9.54h5l-7.64,8.63,7.8,13h-4.67l-5.9-9.88-2.89,3.27v6.61Z"/><path class="cls-1" d="M120.05,44.18l8.35-21.64h3.66l8.32,21.64h-4.17l-1.15-3h-9.68l-1.16,3Zm10.18-15.59-3.46,9h6.9Z"/><path class="cls-1" d="M158.38,44.18V22.54h3.92L169,33.2l6.77-10.66H180V44.18H176V29.37l-.33-.05-6.71,10.36-6.55-10.22h.06V44.18Z"/><path class="cls-1" d="M209.18,33.34A11.25,11.25,0,1,1,190,25.41a11.25,11.25,0,0,1,19.2,7.93Zm-16.34,5.17a7.12,7.12,0,0,0,10.18,0,7.44,7.44,0,0,0,0-10.36,7.12,7.12,0,0,0-10.18,0,7.46,7.46,0,0,0,0,10.36Zm3.2-18.2a1.75,1.75,0,0,1-1.33.57,1.79,1.79,0,0,1-1.33-.57,2,2,0,0,1,0-2.76,1.94,1.94,0,0,1,1.35-.56,1.79,1.79,0,0,1,1.31.56,1.89,1.89,0,0,1,.56,1.37A1.94,1.94,0,0,1,196,20.31Zm6.44,0a2,2,0,0,1-1.44.57,2,2,0,0,1-1.43-.57,1.84,1.84,0,0,1-.6-1.39,1.81,1.81,0,0,1,.6-1.37A2,2,0,0,1,201,17a2.05,2.05,0,0,1,1.44.56,1.84,1.84,0,0,1,.59,1.37A1.87,1.87,0,0,1,202.48,20.31Z"/><path class="cls-1" d="M213.07,26.43V22.54H230.9v3.89H224V44.18H220V26.43Z"/><path class="cls-1" d="M248.85,35h-8v5.55h8.8v3.61H236.78V22.54h12.6v3.61h-8.54v5.26h8Z"/><path class="cls-1" d="M45.08,77.78V56.14h8.47a7.27,7.27,0,0,1,5.21,2,6.73,6.73,0,0,1,2.09,5.13,6.46,6.46,0,0,1-1.56,4.39,7,7,0,0,1-4,2.31l5.81,7.85H56.51l-5.62-7.73H49.14v7.73Zm7.84-18H49.14v7h3.78a4,4,0,0,0,2.82-1,3.23,3.23,0,0,0,1-2.5,3.38,3.38,0,0,0-1.08-2.56A3.86,3.86,0,0,0,52.92,59.75Z"/><path class="cls-1" d="M79.94,68.62h-8v5.55h8.8v3.61H67.87V56.14h12.6v3.61H71.93V65h8Z"/><path class="cls-1" d="M88,77.78V56.14h6.17a10.59,10.59,0,0,1,7.66,3.09A10.39,10.39,0,0,1,105,67a10.15,10.15,0,0,1-3.23,7.73,11.06,11.06,0,0,1-7.84,3Zm6.22-18H91.76V74.17h2.5A6.21,6.21,0,0,0,99,72.07,7.3,7.3,0,0,0,101,66.92a7.15,7.15,0,0,0-2-5.12A6.35,6.35,0,0,0,94.23,59.75Z"/><path class="cls-1" d="M109.06,77.78l8.35-21.64h3.66l8.32,21.64h-4.17l-1.15-3h-9.68l-1.16,3Zm10.18-15.59-3.46,9h6.91Z"/><path class="cls-1" d="M135.16,77.78V56.14H138l10.65,13.61V56.14h4.06V77.78H150L139.22,64V77.78Z"/><path class="cls-1" d="M173,77.78V56.14h4.06V77.78Z"/><path class="cls-1" d="M185.47,77.78V56.14h6.18a10.61,10.61,0,0,1,7.66,3.09A10.39,10.39,0,0,1,202.5,67a10.15,10.15,0,0,1-3.23,7.73,11.08,11.08,0,0,1-7.84,3Zm6.23-18h-2.47V74.17h2.5a6.22,6.22,0,0,0,4.78-2.1,7.3,7.3,0,0,0,1.93-5.15,7.15,7.15,0,0,0-1.95-5.12A6.36,6.36,0,0,0,191.7,59.75Z"/><path class="cls-1" d="M206.53,77.78l8.35-21.64h3.66l8.32,21.64h-4.17l-1.15-3h-9.68l-1.16,3Zm10.18-15.59-3.46,9h6.9Z"/><path class="cls-1" d="M245.53,68.74V65.12h7.76l0,1.85a11.07,11.07,0,0,1-1.58,5.74,10.89,10.89,0,0,1-4.1,4,11.23,11.23,0,0,1-5.52,1.42,11.24,11.24,0,0,1-8-19.16,10.89,10.89,0,0,1,8-3.3,10.67,10.67,0,0,1,8.06,3.5l-2.77,2.73a7,7,0,0,0-5.32-2.34,6.9,6.9,0,0,0-5.18,2.12,7.67,7.67,0,0,0,0,10.43,6.6,6.6,0,0,0,4.92,2.12,7.67,7.67,0,0,0,4.81-1.5,6.83,6.83,0,0,0,2.55-4Z"/></svg>