<svg id="Layer_1" data-name="Layer 1" xmlns="http://www.w3.org/2000/svg" viewBox="0 0 320 320"><defs><style>.cls-1{fill:#d80201;}</style></defs><title>text</title><path class="cls-1" d="M42.93,149.67l6.89-7.81c1.89-2.13,5.36-5.67,5.36-8.64a3.49,3.49,0,0,0-3.54-3.47c-2.31,0-3.39,1.72-3.46,3.85H43.31c.32-4.72,3.4-7.88,8.19-7.88,4.38,0,8.23,2.87,8.23,7.5,0,3.25-2.14,5.91-4.23,8.15l-4.07,4.34h8.48v4Z"/><path class="cls-1" d="M72.08,150.26c-6.44,0-9-6.79-9-12.25s2.56-12.29,9-12.29,9,6.76,9,12.26S78.56,150.26,72.08,150.26Zm0-20.51c-3.57,0-4.48,5.53-4.48,8.23s.91,8.29,4.48,8.29,4.48-5.6,4.48-8.29S75.65,129.75,72.08,129.75Z"/><path class="cls-1" d="M103.16,149.67v-8.3c0-2.1-.45-3.74-2.9-3.74-2.63,0-3.22,2-3.22,4.27v7.77H92.8V123.45H97v13A5.52,5.52,0,0,1,101.8,134a5.81,5.81,0,0,1,4.41,1.86,6,6,0,0,1,1.19,4.27v9.52Z"/><path class="cls-1" d="M118.77,150.16c-4.16,0-7.31-1.86-7.31-6.37v-9.28h4.23v8.58c0,2.06.88,3.46,3.08,3.46s3.08-1.4,3.08-3.46v-8.58h4.27v9.28C126.12,148.3,122.94,150.16,118.77,150.16Z"/><path class="cls-1" d="M135,150.16a8.06,8.06,0,0,1-5.77-2.52l2.24-2.59a4.92,4.92,0,0,0,3.57,1.78,1.78,1.78,0,0,0,1.92-1.68c0-2.59-6.75-1.29-6.75-6.4,0-3.08,2.55-4.8,5.42-4.8a7.83,7.83,0,0,1,4.94,1.61l-2.1,2.49a4.26,4.26,0,0,0-2.52-1c-.74,0-1.61.46-1.61,1.3,0,2.2,7,1.22,7,6.4C141.35,148.27,138.27,150.16,135,150.16Z"/><path class="cls-1" d="M163.71,149.67v-8.3c0-1.78-.28-3.74-2.52-3.74-2.48,0-2.9,2.27-2.9,4.27v7.77h-4.24v-8a6.85,6.85,0,0,0-.31-2.52,2.47,2.47,0,0,0-2.28-1.47,2.77,2.77,0,0,0-2.38,1.36,6.39,6.39,0,0,0-.49,2.91v7.77h-4.23V134.51h4.23v1.72a5.82,5.82,0,0,1,4.62-2.21,5.16,5.16,0,0,1,4.73,2.77,5.61,5.61,0,0,1,5-2.77,5,5,0,0,1,4.23,2.17,6.71,6.71,0,0,1,.81,3.68v9.8Z"/><path class="cls-1" d="M179.88,150.16c-4.83,0-8.68-3-8.68-8s3.85-8.09,8.72-8.09,8.61,3,8.61,8S184.68,150.16,179.88,150.16Zm0-12.32a4.25,4.25,0,1,0,4.3,4.27A4.28,4.28,0,0,0,179.85,137.84Z"/><path class="cls-1" d="M203.37,149.67v-2a5.86,5.86,0,0,1-4.94,2.49c-4.55,0-7.45-3.78-7.45-8.12s2.9-8,7.35-8a6.31,6.31,0,0,1,5,2.42v-13h4.27v26.22Zm-3.78-11.83a4.25,4.25,0,1,0,4.23,4.23A4.23,4.23,0,0,0,199.59,137.84Z"/><path class="cls-1" d="M215.23,142.77c.07,2.35,1.19,4.06,3.71,4.06a4,4,0,0,0,3.61-2l3.92.63c-1.33,3.26-4,4.73-7.46,4.73-4.9,0-8.12-3.15-8.12-8.09s3.08-8,8-8,7.73,3.36,7.73,8.19v.56Zm3.68-5.74a3.44,3.44,0,0,0-3.54,3.05h7.18A3.52,3.52,0,0,0,218.91,137Z"/><path class="cls-1" d="M229.83,149.67V123.45h4.23v26.22Z"/><path class="cls-1" d="M238.12,149.67V123.45h4.24v26.22Z"/><path class="cls-1" d="M250,142.77c.07,2.35,1.19,4.06,3.71,4.06a4,4,0,0,0,3.61-2l3.92.63c-1.33,3.26-4,4.73-7.46,4.73-4.9,0-8.12-3.15-8.12-8.09s3.08-8,7.95-8,7.73,3.36,7.73,8.19v.56Zm3.68-5.74a3.44,3.44,0,0,0-3.54,3.05h7.18A3.52,3.52,0,0,0,253.63,137Z"/><path class="cls-1" d="M274.45,138.36a3.78,3.78,0,0,0-2-.52c-2.87,0-3.64,2-3.64,4.55v7.28h-4.24V134.51h4.24v2.28a4.86,4.86,0,0,1,4.41-2.77,5,5,0,0,1,1.86.35Z"/><path class="cls-1" d="M53.22,182.76v5.46H49v-5.46H43.49v-3.92H49v-5.46h4.27v5.46h5.46v3.92Z"/><path class="cls-1" d="M72.68,173.66a2.56,2.56,0,1,1,0-5.11,2.56,2.56,0,0,1,0,5.11Zm-2.14,19V177.51h4.24v15.16Z"/><path class="cls-1" d="M89.13,192.67v-8.4c0-2.07-.46-3.64-2.87-3.64-2.63,0-3.26,1.92-3.26,4.2v7.84H78.77V177.51H83v1.86A5.57,5.57,0,0,1,87.76,177a5.23,5.23,0,0,1,5.6,6v9.63Z"/><path class="cls-1" d="M102.25,193.16a8.06,8.06,0,0,1-5.77-2.52l2.24-2.59a4.92,4.92,0,0,0,3.57,1.78,1.78,1.78,0,0,0,1.92-1.68c0-2.59-6.75-1.29-6.75-6.4,0-3.08,2.55-4.8,5.42-4.8a7.83,7.83,0,0,1,4.94,1.61l-2.1,2.49a4.26,4.26,0,0,0-2.52-1c-.74,0-1.61.46-1.61,1.3,0,2.2,7,1.22,7,6.4C108.59,191.27,105.51,193.16,102.25,193.16Z"/><path class="cls-1" d="M120.91,193.16a6.07,6.07,0,0,1-5.08-2.49v10.08H111.6V177.51h4.23v1.93a6,6,0,0,1,5-2.42c4.52,0,7.49,3.75,7.49,8.09S125.35,193.16,120.91,193.16Zm-1.26-12.32a4.25,4.25,0,1,0,4.23,4.23A4.23,4.23,0,0,0,119.65,180.84Z"/><path class="cls-1" d="M133.58,173.66a2.56,2.56,0,1,1,0-5.11,2.56,2.56,0,0,1,0,5.11Zm-2.14,19V177.51h4.24v15.16Z"/><path class="cls-1" d="M149.57,181.36a3.78,3.78,0,0,0-2-.52c-2.87,0-3.64,2-3.64,4.55v7.28h-4.23V177.51h4.23v2.28a4.86,4.86,0,0,1,4.41-2.77,5,5,0,0,1,1.86.35Z"/><path class="cls-1" d="M163.85,192.67v-2a5.84,5.84,0,0,1-4.93,2.49c-4.55,0-7.46-3.78-7.46-8.12s2.91-8,7.35-8a6.3,6.3,0,0,1,5,2.42v-1.93h4.27v15.16Zm-3.78-11.83a4.25,4.25,0,1,0,4.24,4.23A4.23,4.23,0,0,0,160.07,180.84Z"/><path class="cls-1" d="M176.45,181.15v11.52h-4.23V181.15h-1.68v-3.64h1.68v-5.18h4.23v5.18h3v3.64Z"/><path class="cls-1" d="M183.7,173.66a2.56,2.56,0,1,1,0-5.11,2.56,2.56,0,0,1,0,5.11Zm-2.14,19V177.51h4.24v15.16Z"/><path class="cls-1" d="M197.66,193.16c-4.83,0-8.68-3-8.68-8s3.85-8.09,8.72-8.09,8.61,3,8.61,8S202.46,193.16,197.66,193.16Zm0-12.32a4.25,4.25,0,1,0,4.3,4.27A4.28,4.28,0,0,0,197.63,180.84Z"/><path class="cls-1" d="M219.92,192.67v-8.4c0-2.07-.45-3.64-2.87-3.64-2.63,0-3.26,1.92-3.26,4.2v7.84h-4.23V177.51h4.23v1.86a5.59,5.59,0,0,1,4.77-2.35,5.23,5.23,0,0,1,5.6,6v9.63Z"/></svg>