<svg id="Layer_1" data-name="Layer 1" xmlns="http://www.w3.org/2000/svg" viewBox="0 0 320 320"><defs><style>.cls-1{fill:#d80201;}</style></defs><title>text</title><path class="cls-1" d="M42.56,184c-2,2.17-5.18,1.83-7.87,1.83v7.66h-4V172.82h6c2,0,3.85.15,5.46,1.58a6.61,6.61,0,0,1,2.11,5A6.77,6.77,0,0,1,42.56,184ZM39,177a4.84,4.84,0,0,0-3-.65H34.69v6h1.64c2,0,3.75-.65,3.75-3A3.08,3.08,0,0,0,39,177Z"/><path class="cls-1" d="M55.43,183.49a3.26,3.26,0,0,0-1.8-.47c-2.55,0-3.23,1.8-3.23,4v6.45H46.65V180.08H50.4v2a4.32,4.32,0,0,1,3.91-2.45A4.23,4.23,0,0,1,56,180Z"/><path class="cls-1" d="M60.94,187.39C61,189.47,62,191,64.23,191a3.51,3.51,0,0,0,3.19-1.8l3.48.56c-1.18,2.88-3.57,4.18-6.61,4.18-4.34,0-7.19-2.79-7.19-7.16s2.73-7.13,7-7.13,6.85,3,6.85,7.26v.49Zm3.26-5.08A3,3,0,0,0,61.07,185h6.35A3.1,3.1,0,0,0,64.2,182.31Z"/><path class="cls-1" d="M91,193.5v-7.35c0-1.58-.24-3.32-2.23-3.32-2.2,0-2.57,2-2.57,3.79v6.88H82.46v-7.13a6,6,0,0,0-.28-2.23,2.18,2.18,0,0,0-2-1.31A2.48,2.48,0,0,0,78.05,184a5.65,5.65,0,0,0-.43,2.58v6.88H73.87V180.08h3.75v1.51a5.16,5.16,0,0,1,4.09-2,4.56,4.56,0,0,1,4.19,2.45,5,5,0,0,1,4.4-2.45,4.4,4.4,0,0,1,3.75,1.92,5.93,5.93,0,0,1,.72,3.26v8.68Z"/><path class="cls-1" d="M100.19,176.66a2.26,2.26,0,1,1,0-4.52,2.26,2.26,0,0,1,0,4.52ZM98.3,193.5V180.08h3.75V193.5Z"/><path class="cls-1" d="M115.84,193.5v-1.77a5.17,5.17,0,0,1-4.37,2.2c-4,0-6.6-3.34-6.6-7.19s2.57-7.1,6.51-7.1a5.57,5.57,0,0,1,4.46,2.14v-1.7h3.79V193.5Zm-6.48-15.94a2.23,2.23,0,0,1,0-4.46,2.23,2.23,0,1,1,0,4.46Zm3.13,5.46a3.77,3.77,0,1,0,3.76,3.75A3.75,3.75,0,0,0,112.49,183Zm3.32-5.46a2.26,2.26,0,0,1-2.23-2.23,2.23,2.23,0,1,1,2.23,2.23Z"/><path class="cls-1" d="M132,183.49a3.23,3.23,0,0,0-1.79-.47c-2.55,0-3.23,1.8-3.23,4v6.45h-3.75V180.08H127v2a4.32,4.32,0,0,1,3.91-2.45,4.23,4.23,0,0,1,1.64.31Z"/><path class="cls-1" d="M149,193.78h-1.74l-6.85-13.7h4.22l3.53,7.56,3.54-7.56h4.21Z"/><path class="cls-1" d="M159.52,176.66a2.26,2.26,0,0,1,0-4.52,2.26,2.26,0,0,1,0,4.52Zm-1.89,16.84V180.08h3.75V193.5Z"/><path class="cls-1" d="M169.19,193.93a7.11,7.11,0,0,1-5.11-2.23l2-2.29a4.36,4.36,0,0,0,3.16,1.58,1.59,1.59,0,0,0,1.71-1.49c0-2.29-6-1.15-6-5.67,0-2.73,2.27-4.25,4.81-4.25a6.92,6.92,0,0,1,4.37,1.42l-1.86,2.21a3.7,3.7,0,0,0-2.23-.9c-.65,0-1.43.4-1.43,1.15,0,1.95,6.2,1.08,6.2,5.67C174.8,192.26,172.08,193.93,169.19,193.93Z"/><path class="cls-1" d="M186.65,193.5v-7.44c0-1.83-.41-3.23-2.55-3.23-2.32,0-2.88,1.71-2.88,3.73v6.94h-3.75V180.08h3.75v1.64a4.94,4.94,0,0,1,4.22-2.08,4.64,4.64,0,0,1,5,5.33v8.53Z"/><path class="cls-1" d="M195.82,176.66a2.26,2.26,0,0,1,0-4.52,2.26,2.26,0,0,1,0,4.52Zm-1.89,16.84V180.08h3.75V193.5Z"/><path class="cls-1" d="M210.39,193.5v-7.44c0-1.83-.4-3.23-2.54-3.23-2.33,0-2.88,1.71-2.88,3.73v6.94h-3.76V180.08H205v1.64a4.94,4.94,0,0,1,4.21-2.08,4.63,4.63,0,0,1,5,5.33v8.53Z"/><path class="cls-1" d="M230.2,198.37a7.32,7.32,0,0,1-5.7,2.35c-3.45,0-6.76-2-7.14-5.64h4.07a3,3,0,0,0,3.19,2.45c2.36,0,3.32-1.64,3.32-3.81v-2a5.58,5.58,0,0,1-4.53,2.23c-4,0-6.39-3.19-6.39-7s2.48-7.32,6.58-7.32a5,5,0,0,1,4.34,2.17v-1.73h3.78V193C231.72,195.11,231.63,196.69,230.2,198.37ZM224.65,183a3.77,3.77,0,1,0,3.75,3.75A3.74,3.74,0,0,0,224.65,183Z"/><path class="cls-1" d="M239.59,193.93a7.11,7.11,0,0,1-5.11-2.23l2-2.29a4.36,4.36,0,0,0,3.16,1.58,1.59,1.59,0,0,0,1.71-1.49c0-2.29-6-1.15-6-5.67,0-2.73,2.27-4.25,4.81-4.25a6.92,6.92,0,0,1,4.37,1.42l-1.86,2.21a3.7,3.7,0,0,0-2.23-.9c-.65,0-1.43.4-1.43,1.15,0,1.95,6.2,1.08,6.2,5.67C245.2,192.26,242.48,193.93,239.59,193.93Z"/><path class="cls-1" d="M257.05,193.5v-7.35c0-1.86-.41-3.32-2.58-3.32-2.32,0-2.85,1.8-2.85,3.79v6.88h-3.75V170.28h3.75v11.53a4.88,4.88,0,0,1,4.22-2.17,5.15,5.15,0,0,1,3.9,1.64,5.35,5.35,0,0,1,1.06,3.79v8.43Z"/><path class="cls-1" d="M270.87,193.93c-3.69,0-6.48-1.64-6.48-5.64v-8.21h3.75v7.59c0,1.83.78,3.07,2.73,3.07s2.73-1.24,2.73-3.07v-7.59h3.78v8.21C277.38,192.29,274.56,193.93,270.87,193.93Z"/><path class="cls-1" d="M285.25,193.93a7.11,7.11,0,0,1-5.11-2.23l2-2.29a4.36,4.36,0,0,0,3.16,1.58A1.59,1.59,0,0,0,287,189.5c0-2.29-6-1.15-6-5.67,0-2.73,2.26-4.25,4.8-4.25a6.92,6.92,0,0,1,4.37,1.42l-1.86,2.21a3.7,3.7,0,0,0-2.23-.9c-.65,0-1.43.4-1.43,1.15,0,1.95,6.21,1.08,6.21,5.67C290.87,192.26,288.14,193.93,285.25,193.93Z"/><path class="cls-1" d="M41.72,226.5H34.78V205.82h5.11c1.68,0,3.72.15,5.06,1.24a5.53,5.53,0,0,1,1.86,4.25,4.32,4.32,0,0,1-2.27,4.15,4.74,4.74,0,0,1,2.7,1.3,5.61,5.61,0,0,1,1.49,3.88C48.73,224.76,45.44,226.5,41.72,226.5ZM40,209.11H38.81v5.33H40c1.79,0,3.13-.71,3.13-2.67S41.78,209.11,40,209.11Zm.68,8.4H38.81v5.74h1.73c2,0,4-.47,4-2.89S42.59,217.51,40.67,217.51Z"/><path class="cls-1" d="M55,220.39c.06,2.08,1,3.6,3.29,3.6a3.52,3.52,0,0,0,3.19-1.8l3.47.56a6.58,6.58,0,0,1-6.6,4.18c-4.34,0-7.19-2.79-7.19-7.16s2.72-7.13,7-7.13,6.86,3,6.86,7.26v.49Zm3.26-5.08A3,3,0,0,0,55.11,218h6.36A3.11,3.11,0,0,0,58.25,215.31Z"/><path class="cls-1" d="M72.19,226.93a7.11,7.11,0,0,1-5.11-2.23l2-2.29A4.36,4.36,0,0,0,72.23,224a1.58,1.58,0,0,0,1.7-1.49c0-2.29-6-1.15-6-5.67,0-2.73,2.26-4.25,4.8-4.25A6.9,6.9,0,0,1,77.12,214l-1.86,2.21a3.7,3.7,0,0,0-2.23-.9c-.65,0-1.42.4-1.42,1.15,0,1.95,6.2,1.08,6.2,5.67C77.81,225.26,75.08,226.93,72.19,226.93Z"/><path class="cls-1" d="M87.45,226.93c-4.28,0-7.69-2.66-7.69-7.13s3.41-7.16,7.72-7.16,7.63,2.7,7.63,7.13S91.69,226.93,87.45,226.93Zm-3.26-16.37a2.23,2.23,0,0,1,0-4.46,2.23,2.23,0,1,1,0,4.46ZM87.42,216a3.77,3.77,0,1,0,3.81,3.78A3.8,3.8,0,0,0,87.42,216Zm3.22-5.46a2.26,2.26,0,0,1-2.23-2.23,2.23,2.23,0,1,1,2.23,2.23Z"/><path class="cls-1" d="M107.19,226.5l-5-5.77-.4.41v5.36H98V203.28h3.75V218l5-4.89h5.09l-6.3,5.89,6.79,7.53Z"/><path class="cls-1" d="M135.13,226.5v-9.21h-8.75v9.21h-4V205.82h4v8h8.75v-8h4V226.5Z"/><path class="cls-1" d="M153.88,227a10.73,10.73,0,0,1-11-10.76,11.06,11.06,0,1,1,11,10.76Zm0-17.93a7.14,7.14,0,1,0,6.91,7.1A7,7,0,0,0,153.88,209Z"/><path class="cls-1" d="M187.83,226.5,186,213.76l-5.71,13h-1.11l-5.49-13-2.08,12.74h-4.06l3.84-21.05h2.76L179.8,219l5.89-13.52h2.76l3.44,21.05Z"/><path class="cls-1" d="M195.57,226.5V205.82H207v3.5H199.6v4.59h7.13v3.51H199.6V223H207v3.5Z"/><path class="cls-1" d="M234.42,214.56h-3.13l-.44,2.79H234l-.53,3.38h-3.16l-.93,5.77h-3.88l.93-5.77H223.6l-.9,5.77h-3.85l.93-5.77h-3.19l.53-3.38h3.19l.44-2.79h-3.17l.53-3.41h3.16l.84-5.33H226l-.86,5.33h2.85l.84-5.33h3.87l-.84,5.33H235Zm-9.86,0-.44,2.79H227l.43-2.79Z"/><path class="cls-1" d="M243.56,227c-4.18,0-7.75-2.7-7.75-7.1a11.67,11.67,0,0,1,2.61-6.55c2-2.85,4.18-5.61,6.29-8.43l2.85,2.17-4.9,6.26a6.7,6.7,0,0,1,2.42-.49,6.54,6.54,0,0,1,6.42,6.82C251.5,224.33,248,227,243.56,227Zm.13-10.92a3.86,3.86,0,1,0,3.78,3.85A3.79,3.79,0,0,0,243.69,216.11Z"/><path class="cls-1" d="M261.23,227c-5.7,0-8-6-8-10.85s2.27-10.89,8-10.89,8,6,8,10.85S267,227,261.23,227Zm0-18.17c-3.16,0-4,4.9-4,7.28s.81,7.35,4,7.35,4-5,4-7.35S264.39,208.86,261.23,208.86Z"/><path class="cls-1" d="M277.07,226.5V209.35h-3v-3.53h7V226.5Z"/></svg>