<svg id="Layer_1" data-name="Layer 1" xmlns="http://www.w3.org/2000/svg" viewBox="0 0 250 720"><defs><style>.cls-1{fill:#d80201;}</style></defs><title>text</title><path class="cls-1" d="M56.5,526l-4.37-4.9-.3.3V526H50.65V515.28h1.18v4.58l4.55-4.58H58l-5,5,5.15,5.7Z"/><path class="cls-1" d="M63.72,525.31a2.9,2.9,0,0,1-4.07,0,2.72,2.72,0,0,1-.61-2v-4h1.14v3.87a2.54,2.54,0,0,0,.21,1.25,1.57,1.57,0,0,0,2.58,0,2.58,2.58,0,0,0,.21-1.25v-3.87h1.14v4A2.71,2.71,0,0,1,63.72,525.31Z"/><path class="cls-1" d="M68.28,526.14a2.37,2.37,0,0,1-2.32-1.7l1-.42c.27.59.64,1.07,1.34,1.07a1,1,0,0,0,1.09-1c0-1.44-3-1-3-3.06a1.87,1.87,0,0,1,1.94-1.86,2,2,0,0,1,1.82,1.2l-.94.5a1.06,1.06,0,0,0-.93-.66.79.79,0,0,0-.8.74c0,1.17,3.07.86,3.07,3A2.18,2.18,0,0,1,68.28,526.14Z"/><path class="cls-1" d="M73.24,520.37V526H72.09v-5.59H71.4v-1.06h.69v-2.4h1.15v2.4h1.17v1.06Z"/><path class="cls-1" d="M77.81,526.38l-3.27-7.08h1.28l2,4.47,2-4.47h1.28Z"/><path class="cls-1" d="M87.35,526V525A2.84,2.84,0,0,1,85,526.14a3.29,3.29,0,0,1-3.2-3.54A3.23,3.23,0,0,1,85,519.15a2.81,2.81,0,0,1,2.32,1.1v-.94h1.14V526Zm-2.15-5.78A2.26,2.26,0,0,0,83,522.61a2.29,2.29,0,0,0,2.19,2.5,2.27,2.27,0,0,0,2.21-2.5A2.24,2.24,0,0,0,85.21,520.17Zm-1.33-2.22a.81.81,0,0,1-.8-.8.8.8,0,1,1,.8.8Zm2.79,0a.81.81,0,0,1-.8-.8.8.8,0,1,1,.8.8Z"/><path class="cls-1" d="M96.25,528.42a3.22,3.22,0,0,1-2.66,1.23,3,3,0,0,1-3.23-3h1.14a2,2,0,0,0,2.11,2c1.6,0,2.13-1.2,2.13-2.62v-1a3,3,0,0,1-2.34,1.1,3.5,3.5,0,0,1,0-7,2.84,2.84,0,0,1,2.29,1.09v-.93h1.15v6.5A4,4,0,0,1,96.25,528.42Zm-2.67-8.24a2.28,2.28,0,0,0-2.18,2.51,2.24,2.24,0,0,0,2.18,2.42,2.48,2.48,0,0,0,0-4.93Z"/><path class="cls-1" d="M99.83,522.86a2.15,2.15,0,0,0,2.11,2.24,2.29,2.29,0,0,0,2-1.38l1,.53a3.32,3.32,0,0,1-3,1.89,3.51,3.51,0,0,1-.06-7c2,0,3.17,1.57,3.17,3.49v.22Zm2-2.67a2,2,0,0,0-2,1.71h3.91A2,2,0,0,0,101.88,520.19Z"/><path class="cls-1" d="M110.93,526V522c0-1-.14-1.86-1.39-1.86-1.47,0-1.65,1.28-1.65,2.45V526h-1.14v-6.64h1.14v.8a2.41,2.41,0,0,1,3.81,0,3,3,0,0,1,.38,1.76V526Z"/><path class="cls-1" d="M121.41,526V516.4h-1.78l.62-1.12h2.34V526Z"/><path class="cls-1" d="M130.79,526.13a3.67,3.67,0,0,1-3.7-3.62,4.27,4.27,0,0,1,.88-2.45l3.63-5,.9.67-2.45,3.41a3.37,3.37,0,0,1,1-.14,3.47,3.47,0,0,1,3.43,3.52A3.68,3.68,0,0,1,130.79,526.13Zm0-6.12a2.51,2.51,0,1,0,2.5,2.5A2.5,2.5,0,0,0,130.77,520Z"/><path class="cls-1" d="M136.45,528.39l-.75-.3,1.31-3.7,1.06.38Z"/><path class="cls-1" d="M147.38,526.59l-4.32-11.32h1.3l3,8.15,3-8.15h1.28Z"/><path class="cls-1" d="M158,526V525a2.84,2.84,0,0,1-2.31,1.12,3.29,3.29,0,0,1-3.2-3.54,3.23,3.23,0,0,1,3.19-3.46,2.81,2.81,0,0,1,2.32,1.1v-.94h1.14V526Zm-2.15-5.78a2.26,2.26,0,0,0-2.19,2.43,2.29,2.29,0,0,0,2.19,2.5,2.27,2.27,0,0,0,2.21-2.5A2.24,2.24,0,0,0,155.83,520.17Zm-1.33-2.22a.81.81,0,0,1-.8-.8.8.8,0,1,1,.8.8Zm2.79,0a.81.81,0,0,1-.8-.8.8.8,0,1,1,.8.8Z"/><path class="cls-1" d="M163.08,526.14a2.37,2.37,0,0,1-2.32-1.7l1-.42c.27.59.64,1.07,1.34,1.07a1,1,0,0,0,1.09-1c0-1.44-3-1-3-3.06a1.87,1.87,0,0,1,1.94-1.86,2,2,0,0,1,1.82,1.2l-.94.5a1.06,1.06,0,0,0-.93-.66.79.79,0,0,0-.8.74c0,1.17,3.07.86,3.07,3A2.18,2.18,0,0,1,163.08,526.14Z"/><path class="cls-1" d="M168,520.37V526h-1.15v-5.59h-.69v-1.06h.69v-2.4H168v2.4h1.17v1.06Z"/><path class="cls-1" d="M171.08,522.86a2.15,2.15,0,0,0,2.11,2.24,2.29,2.29,0,0,0,2-1.38l1,.53a3.32,3.32,0,0,1-3,1.89,3.51,3.51,0,0,1-.06-7c2,0,3.17,1.57,3.17,3.49v.22Zm2-2.67a2,2,0,0,0-2,1.71h3.91A2,2,0,0,0,173.13,520.19Z"/><path class="cls-1" d="M181.12,520.46a1,1,0,0,0-.67-.22,1.23,1.23,0,0,0-.58.14c-.74.4-.74,1.34-.74,2.07V526H178v-6.64h1.14V520a1.78,1.78,0,0,1,1.5-.88,1.89,1.89,0,0,1,1,.27Z"/><path class="cls-1" d="M185,526.38l-3.27-7.08H183l2,4.47,2-4.47h1.28Z"/><path class="cls-1" d="M190.07,517.61a.82.82,0,1,1,.82-.82A.82.82,0,0,1,190.07,517.61Zm-.58,8.34v-6.64h1.14V526Z"/><path class="cls-1" d="M196.93,526l-2.69-3-.29.29V526h-1.14V514.28H194v7.48l2.42-2.45h1.52L195,522.13l3.38,3.83Z"/><path class="cls-1" d="M54.87,552.14a3.26,3.26,0,0,1-3.3-2.75l1.15-.32a2.17,2.17,0,0,0,2.18,2A2.11,2.11,0,0,0,57,548.91c0-2.51-4.93-1.92-4.93-5.06a2.82,2.82,0,0,1,3-2.75,3,3,0,0,1,2.75,1.67l-.94.62a2,2,0,0,0-1.82-1.17,1.69,1.69,0,0,0-1.78,1.63c0,2.21,4.93,1.57,4.93,5A3.29,3.29,0,0,1,54.87,552.14Z"/><path class="cls-1" d="M63.22,552.14a3.5,3.5,0,1,1,3.51-3.49A3.47,3.47,0,0,1,63.22,552.14Zm0-6a2.46,2.46,0,1,0,2.35,2.46A2.33,2.33,0,0,0,63.21,546.19Zm-1.38-2.24a.81.81,0,0,1-.8-.8.8.8,0,1,1,.8.8Zm2.79,0a.81.81,0,0,1-.8-.8.8.8,0,1,1,.8.8Z"/><path class="cls-1" d="M72.65,552V548c0-1-.14-1.86-1.39-1.86-1.47,0-1.65,1.28-1.65,2.45V552H68.47v-6.64h1.14v.8a2.24,2.24,0,0,1,1.92-1,2.27,2.27,0,0,1,1.89.91,3,3,0,0,1,.38,1.76V552Z"/><path class="cls-1" d="M81,552V551a2.84,2.84,0,0,1-2.31,1.12,3.29,3.29,0,0,1-3.2-3.52,3.25,3.25,0,0,1,3.19-3.47,2.85,2.85,0,0,1,2.32,1.1v-6h1.14V552Zm-2.15-5.76a2.47,2.47,0,1,0,2.21,2.42A2.23,2.23,0,0,0,78.9,546.19Z"/><path class="cls-1" d="M89.43,552V551a2.84,2.84,0,0,1-2.31,1.12,3.29,3.29,0,0,1-3.2-3.54,3.23,3.23,0,0,1,3.19-3.46,2.81,2.81,0,0,1,2.32,1.1v-.94h1.14V552Zm-2.15-5.78a2.26,2.26,0,0,0-2.19,2.43,2.29,2.29,0,0,0,2.19,2.5,2.27,2.27,0,0,0,2.21-2.5A2.24,2.24,0,0,0,87.29,546.17Z"/><path class="cls-1" d="M98.33,554.42a3.22,3.22,0,0,1-2.66,1.23,3,3,0,0,1-3.23-3h1.14a2,2,0,0,0,2.11,2c1.6,0,2.13-1.2,2.13-2.62v-1a3,3,0,0,1-2.34,1.1,3.5,3.5,0,0,1,0-7,2.84,2.84,0,0,1,2.29,1.09v-.93H99v6.5A4,4,0,0,1,98.33,554.42Zm-2.67-8.24a2.28,2.28,0,0,0-2.18,2.51,2.24,2.24,0,0,0,2.18,2.42,2.48,2.48,0,0,0,0-4.93Z"/><path class="cls-1" d="M108.6,552.13a3.67,3.67,0,0,1-3.7-3.62,4.27,4.27,0,0,1,.88-2.45l3.63-5,.9.67-2.45,3.41a3.37,3.37,0,0,1,1-.14,3.47,3.47,0,0,1,3.43,3.52A3.68,3.68,0,0,1,108.6,552.13Zm0-6.12a2.51,2.51,0,1,0,2.5,2.5A2.5,2.5,0,0,0,108.58,546Z"/><path class="cls-1" d="M125.78,552v-4c0-.85-.14-1.75-1.2-1.75s-1.42,1.12-1.42,2.08V552H122V548c0-.83-.18-1.84-1.22-1.84a1.37,1.37,0,0,0-1.2.72,3.16,3.16,0,0,0-.26,1.44V552h-1.14v-6.64h1.14v.7a1.89,1.89,0,0,1,1.65-.86,2,2,0,0,1,1.82,1.07,2.26,2.26,0,0,1,3.73-.18,3.11,3.11,0,0,1,.37,1.7V552Z"/><path class="cls-1" d="M134.17,552V551a2.84,2.84,0,0,1-2.3,1.12,3.29,3.29,0,0,1-3.2-3.54,3.23,3.23,0,0,1,3.18-3.46,2.81,2.81,0,0,1,2.32,1.1v-.94h1.14V552ZM132,546.17a2.27,2.27,0,0,0-2.19,2.43,2.29,2.29,0,0,0,2.19,2.5,2.27,2.27,0,0,0,2.21-2.5A2.24,2.24,0,0,0,132,546.17Z"/><path class="cls-1" d="M138.05,543.61a.82.82,0,1,1,.82-.82A.82.82,0,0,1,138.05,543.61Zm-.58,12.08V545.31h1.14V555.7Z"/><path class="cls-1" d="M148.92,552l-2.69-3-.29.29V552H144.8V540.28h1.14v7.48l2.42-2.45h1.52L147,548.13l3.38,3.83Z"/><path class="cls-1" d="M151.54,552V540.28h1.14V552Z"/><path class="cls-1" d="M162,552V542.4h-1.78l.63-1.12h2.34V552Z"/><path class="cls-1" d="M174.9,548.78c-.46,1.63-1.67,3.35-3.54,3.35s-3-1.63-3.47-3.2a7.91,7.91,0,0,1-.34-2.29,8.33,8.33,0,0,1,.29-2.18c.46-1.63,1.67-3.34,3.54-3.34s3,1.62,3.47,3.19a7.91,7.91,0,0,1,.34,2.29A8.54,8.54,0,0,1,174.9,548.78Zm-3.57-6.58c-1.36,0-2.13,1.55-2.4,2.69a7.24,7.24,0,0,0-.21,1.76,7.07,7.07,0,0,0,.22,1.84c.3,1.14,1.09,2.53,2.43,2.53s2.1-1.46,2.4-2.58a7,7,0,0,0,.22-1.83C174,545.05,173.35,542.2,171.33,542.2Z"/><path class="cls-1" d="M175.91,549.06v-1h2.9v1Z"/><path class="cls-1" d="M183,552V542.4h-1.78l.62-1.12h2.34V552Z"/><path class="cls-1" d="M193.29,548.35l-2.19,2.5h4.48V552h-6.9l3.89-4.5c.72-.83,1.84-2,1.84-3.18a2.13,2.13,0,0,0-4.26.13h-1.2a4.4,4.4,0,0,1,.22-1.2,3.33,3.33,0,0,1,6.42,1.09C195.59,545.89,194.28,547.23,193.29,548.35Z"/></svg>