<svg id="Layer_1" data-name="Layer 1" xmlns="http://www.w3.org/2000/svg" viewBox="0 0 250 720"><defs><style>.cls-1{fill:#d80201;}</style></defs><title>text</title><path class="cls-1" d="M36.87,526V515.28h5.52v1.12H38.06v3.17h4.23v1.1H38.06v4.18h4.34V526Z"/><path class="cls-1" d="M46.58,526.38l-3.27-7.08H44.6l2,4.47,2-4.47h1.28Z"/><path class="cls-1" d="M55.9,526V525a2.84,2.84,0,0,1-2.31,1.12,3.29,3.29,0,0,1-3.2-3.54,3.23,3.23,0,0,1,3.19-3.46,2.81,2.81,0,0,1,2.32,1.1v-.94H57V526Zm-2.15-5.78a2.26,2.26,0,0,0-2.19,2.43,2.29,2.29,0,0,0,2.19,2.5,2.27,2.27,0,0,0,2.21-2.5A2.24,2.24,0,0,0,53.75,520.17Z"/><path class="cls-1" d="M70.62,526l-1.25-3H64.81l-1.28,3h-1.3l4.91-11.19L71.93,526Zm-3.51-8.4-1.82,4.27H68.9Zm0-3.3a1.4,1.4,0,1,1,0-2.8,1.4,1.4,0,0,1,0,2.8Zm0-2.08a.67.67,0,1,0,.67.67A.68.68,0,0,0,67.16,512.17Z"/><path class="cls-1" d="M74.92,526.14a2.37,2.37,0,0,1-2.32-1.7l1-.42c.27.59.64,1.07,1.34,1.07a1,1,0,0,0,1.09-1c0-1.44-3-1-3-3.06A1.87,1.87,0,0,1,75,519.15a2,2,0,0,1,1.82,1.2l-.94.5a1.06,1.06,0,0,0-.93-.66.79.79,0,0,0-.8.74c0,1.17,3.07.86,3.07,3A2.18,2.18,0,0,1,74.92,526.14Z"/><path class="cls-1" d="M82.17,526.14a2.83,2.83,0,0,1-2.3-1.12V526H78.73V514.28h1.14v6a2.85,2.85,0,0,1,2.32-1.1,3.25,3.25,0,0,1,3.19,3.47A3.29,3.29,0,0,1,82.17,526.14Zm-.16-6a2.24,2.24,0,0,0-2.21,2.45A2.21,2.21,0,1,0,82,520.19Z"/><path class="cls-1" d="M90.23,520.46a1,1,0,0,0-.67-.22,1.23,1.23,0,0,0-.58.14c-.74.4-.74,1.34-.74,2.07V526H87.11v-6.64h1.14V520a1.78,1.78,0,0,1,1.5-.88,1.89,1.89,0,0,1,1,.27Z"/><path class="cls-1" d="M92.41,517.61a.82.82,0,1,1,.82-.82A.82.82,0,0,1,92.41,517.61ZM91.83,526v-6.64H93V526Z"/><path class="cls-1" d="M99.33,526V522c0-1-.14-1.86-1.39-1.86-1.47,0-1.65,1.28-1.65,2.45V526H95.16v-6.64h1.14v.8a2.41,2.41,0,0,1,3.81,0,3,3,0,0,1,.38,1.76V526Z"/><path class="cls-1" d="M106.77,526l-2.69-3-.29.29V526h-1.14V514.28h1.14v7.48l2.42-2.45h1.52l-2.85,2.82,3.38,3.83Z"/><path class="cls-1" d="M111.19,526.14a2.37,2.37,0,0,1-2.32-1.7l1-.42c.27.59.64,1.07,1.34,1.07a1,1,0,0,0,1.09-1c0-1.44-3-1-3-3.06a1.87,1.87,0,0,1,1.94-1.86,2,2,0,0,1,1.82,1.2l-.94.5a1.06,1.06,0,0,0-.93-.66.79.79,0,0,0-.8.74c0,1.17,3.07.86,3.07,3A2.18,2.18,0,0,1,111.19,526.14Z"/><path class="cls-1" d="M124.58,528.42a3.22,3.22,0,0,1-2.66,1.23,3,3,0,0,1-3.23-3h1.14a2,2,0,0,0,2.11,2c1.6,0,2.13-1.2,2.13-2.62v-1a3,3,0,0,1-2.34,1.1,3.5,3.5,0,0,1,0-7,2.84,2.84,0,0,1,2.29,1.09v-.93h1.15v6.5A4,4,0,0,1,124.58,528.42Zm-2.67-8.24a2.28,2.28,0,0,0-2.18,2.51,2.24,2.24,0,0,0,2.18,2.42,2.48,2.48,0,0,0,0-4.93Z"/><path class="cls-1" d="M132.47,526V525a2.84,2.84,0,0,1-2.3,1.12,3.29,3.29,0,0,1-3.2-3.54,3.23,3.23,0,0,1,3.18-3.46,2.81,2.81,0,0,1,2.32,1.1v-.94h1.14V526Zm-2.14-5.78a2.27,2.27,0,0,0-2.19,2.43,2.29,2.29,0,0,0,2.19,2.5,2.27,2.27,0,0,0,2.21-2.5A2.24,2.24,0,0,0,130.33,520.17Z"/><path class="cls-1" d="M136.93,520.37V526h-1.15v-5.59h-.69v-1.06h.69v-2.4h1.15v2.4h1.17v1.06Z"/><path class="cls-1" d="M144.28,526V525a2.84,2.84,0,0,1-2.3,1.12,3.29,3.29,0,0,1-3.2-3.54,3.23,3.23,0,0,1,3.18-3.46,2.81,2.81,0,0,1,2.32,1.1v-.94h1.14V526Zm-2.14-5.78a2.27,2.27,0,0,0-2.19,2.43,2.29,2.29,0,0,0,2.19,2.5,2.27,2.27,0,0,0,2.21-2.5A2.24,2.24,0,0,0,142.13,520.17Z"/><path class="cls-1" d="M154.74,526V516.4H153l.62-1.12h2.34V526Z"/><path class="cls-1" d="M166.9,521.17l-3.63,5-.9-.66,2.46-3.42a3.37,3.37,0,0,1-1,.14,3.45,3.45,0,0,1-3.43-3.5,3.68,3.68,0,0,1,7.36,0A4.28,4.28,0,0,1,166.9,521.17Zm-2.79-5a2.51,2.51,0,1,0,2.51,2.51A2.51,2.51,0,0,0,164.12,516.2Z"/><path class="cls-1" d="M169.78,528.39l-.75-.3,1.31-3.7,1.06.38Z"/><path class="cls-1" d="M180.37,526.14a3.27,3.27,0,0,1-3.3-2.75l1.15-.32a2.17,2.17,0,0,0,2.18,2,2.11,2.11,0,0,0,2.14-2.11c0-2.51-4.93-1.92-4.93-5.06a2.82,2.82,0,0,1,3-2.75,3,3,0,0,1,2.75,1.67l-.94.62a2,2,0,0,0-1.83-1.17,1.69,1.69,0,0,0-1.78,1.63c0,2.21,4.93,1.57,4.93,5A3.29,3.29,0,0,1,180.37,526.14Z"/><path class="cls-1" d="M189.75,526l-2.69-3-.29.29V526h-1.14V514.28h1.14v7.48l2.42-2.45h1.52l-2.85,2.82,3.38,3.83Z"/><path class="cls-1" d="M197.09,526V525a2.84,2.84,0,0,1-2.31,1.12,3.29,3.29,0,0,1-3.2-3.54,3.23,3.23,0,0,1,3.19-3.46,2.81,2.81,0,0,1,2.32,1.1v-.94h1.14V526Zm-2.15-5.78a2.26,2.26,0,0,0-2.19,2.43,2.29,2.29,0,0,0,2.19,2.5,2.27,2.27,0,0,0,2.21-2.5A2.24,2.24,0,0,0,194.95,520.17Z"/><path class="cls-1" d="M203.52,520.46a1,1,0,0,0-.67-.22,1.23,1.23,0,0,0-.58.14c-.74.4-.74,1.34-.74,2.07V526H200.4v-6.64h1.14V520a1.77,1.77,0,0,1,1.5-.88,1.89,1.89,0,0,1,1,.27Z"/><path class="cls-1" d="M210,526V525a2.84,2.84,0,0,1-2.3,1.12,3.29,3.29,0,0,1-3.2-3.54,3.23,3.23,0,0,1,3.18-3.46,2.81,2.81,0,0,1,2.32,1.1v-.94h1.14V526Zm-2.14-5.78a2.27,2.27,0,0,0-2.19,2.43,2.29,2.29,0,0,0,2.19,2.5,2.27,2.27,0,0,0,2.21-2.5A2.24,2.24,0,0,0,207.88,520.17Z"/><path class="cls-1" d="M33.93,552.14a3.26,3.26,0,0,1-3.3-2.75l1.15-.32A2.17,2.17,0,0,0,34,551a2.11,2.11,0,0,0,2.14-2.11c0-2.51-4.93-1.92-4.93-5.06a2.82,2.82,0,0,1,3-2.75,3,3,0,0,1,2.75,1.67l-.94.62a2,2,0,0,0-1.82-1.17,1.69,1.69,0,0,0-1.78,1.63c0,2.21,4.93,1.57,4.93,5A3.29,3.29,0,0,1,33.93,552.14Z"/><path class="cls-1" d="M42.28,552.14a3.5,3.5,0,1,1,3.51-3.49A3.47,3.47,0,0,1,42.28,552.14Zm0-6a2.46,2.46,0,1,0,2.35,2.46A2.33,2.33,0,0,0,42.26,546.19Zm-1.38-2.24a.81.81,0,0,1-.8-.8.8.8,0,1,1,.8.8Zm2.79,0a.81.81,0,0,1-.8-.8.8.8,0,1,1,.8.8Z"/><path class="cls-1" d="M51.7,552V548c0-1-.14-1.86-1.39-1.86-1.47,0-1.65,1.28-1.65,2.45V552H47.53v-6.64h1.14v.8a2.41,2.41,0,0,1,3.81,0,3,3,0,0,1,.38,1.76V552Z"/><path class="cls-1" d="M60.1,552V551a2.84,2.84,0,0,1-2.31,1.12,3.29,3.29,0,0,1-3.2-3.52,3.25,3.25,0,0,1,3.19-3.47,2.85,2.85,0,0,1,2.32,1.1v-6h1.14V552ZM58,546.19a2.47,2.47,0,1,0,2.21,2.42A2.23,2.23,0,0,0,58,546.19Z"/><path class="cls-1" d="M68.49,552V551a2.84,2.84,0,0,1-2.31,1.12,3.29,3.29,0,0,1-3.2-3.54,3.23,3.23,0,0,1,3.19-3.46,2.81,2.81,0,0,1,2.32,1.1v-.94h1.14V552Zm-2.15-5.78a2.26,2.26,0,0,0-2.19,2.43,2.29,2.29,0,0,0,2.19,2.5,2.27,2.27,0,0,0,2.21-2.5A2.24,2.24,0,0,0,66.34,546.17Z"/><path class="cls-1" d="M77.38,554.42a3.22,3.22,0,0,1-2.66,1.23,3,3,0,0,1-3.23-3h1.14a2,2,0,0,0,2.11,2c1.6,0,2.13-1.2,2.13-2.62v-1a3,3,0,0,1-2.34,1.1,3.5,3.5,0,0,1,0-7,2.84,2.84,0,0,1,2.29,1.09v-.93H78v6.5A4,4,0,0,1,77.38,554.42Zm-2.67-8.24a2.28,2.28,0,0,0-2.18,2.51,2.24,2.24,0,0,0,2.18,2.42,2.48,2.48,0,0,0,0-4.93Z"/><path class="cls-1" d="M87.32,552.13a3.33,3.33,0,0,1-2.46-1.06,2.82,2.82,0,0,1-.7-1.89H85.3a2,2,0,0,0,.37,1,2.15,2.15,0,0,0,1.68.8,2.08,2.08,0,0,0,2.1-2.13c0-1.39-1-2-2.27-2v-1a2.47,2.47,0,0,0,1.26-.26A1.84,1.84,0,1,0,86,542.89a2.61,2.61,0,0,0-.35,1H84.49c.24-1.73,1.15-2.8,3-2.8a2.86,2.86,0,0,1,3,2.87,2.6,2.6,0,0,1-1.38,2.37,2.72,2.72,0,0,1,1.54,2.58A3.17,3.17,0,0,1,87.32,552.13Z"/><path class="cls-1" d="M99.06,552.14a2.37,2.37,0,0,1-2.32-1.7l1-.42c.27.59.64,1.07,1.34,1.07a1,1,0,0,0,1.09-1c0-1.44-3-1-3-3.06a1.87,1.87,0,0,1,1.94-1.86,2,2,0,0,1,1.82,1.2l-.94.5a1.06,1.06,0,0,0-.93-.66.79.79,0,0,0-.8.74c0,1.17,3.07.86,3.07,3A2.18,2.18,0,0,1,99.06,552.14Z"/><path class="cls-1" d="M103.64,548.86a2.15,2.15,0,0,0,2.11,2.24,2.29,2.29,0,0,0,2-1.38l1,.53a3.32,3.32,0,0,1-3,1.89,3.51,3.51,0,0,1-.06-7c2,0,3.17,1.57,3.17,3.49v.22Zm2-2.67a2,2,0,0,0-2,1.71h3.91A2,2,0,0,0,105.69,546.19Z"/><path class="cls-1" d="M114,552.14A2.86,2.86,0,0,1,111.7,551v4.67h-1.14V545.31h1.14v.93a2.87,2.87,0,0,1,2.3-1.09,3.29,3.29,0,0,1,3.2,3.52A3.25,3.25,0,0,1,114,552.14Zm-.18-6a2.29,2.29,0,0,0-2.21,2.5,2.21,2.21,0,1,0,4.4,0A2.29,2.29,0,0,0,113.85,546.17Z"/><path class="cls-1" d="M120.1,546.37V552h-1.15v-5.59h-.69v-1.06h.69v-2.4h1.15v2.4h1.17v1.06Z"/><path class="cls-1" d="M123.14,548.86a2.15,2.15,0,0,0,2.11,2.24,2.29,2.29,0,0,0,2-1.38l1,.53a3.32,3.32,0,0,1-3,1.89,3.51,3.51,0,0,1-.06-7c2,0,3.17,1.57,3.17,3.49v.22Zm2-2.67a2,2,0,0,0-2,1.71h3.91A2,2,0,0,0,125.19,546.19Z"/><path class="cls-1" d="M137.64,552v-4c0-.85-.14-1.75-1.2-1.75s-1.42,1.12-1.42,2.08V552h-1.14V548c0-.83-.18-1.84-1.22-1.84a1.37,1.37,0,0,0-1.2.72,3.15,3.15,0,0,0-.26,1.44V552h-1.14v-6.64h1.14v.7a1.89,1.89,0,0,1,1.65-.86,2,2,0,0,1,1.82,1.07,2.26,2.26,0,0,1,3.73-.18,3.11,3.11,0,0,1,.37,1.7V552Z"/><path class="cls-1" d="M144.39,552.14a2.83,2.83,0,0,1-2.3-1.12V552h-1.14V540.28h1.14v6a2.85,2.85,0,0,1,2.32-1.1,3.25,3.25,0,0,1,3.19,3.47A3.29,3.29,0,0,1,144.39,552.14Zm-.16-6a2.24,2.24,0,0,0-2.21,2.45,2.21,2.21,0,1,0,2.21-2.45Z"/><path class="cls-1" d="M150.1,548.86a2.15,2.15,0,0,0,2.11,2.24,2.29,2.29,0,0,0,2-1.38l1,.53a3.32,3.32,0,0,1-3,1.89,3.51,3.51,0,0,1-.06-7c2,0,3.17,1.57,3.17,3.49v.22Zm2-2.67a2,2,0,0,0-2,1.71h3.91A2,2,0,0,0,152.15,546.19Z"/><path class="cls-1" d="M160.15,546.46a1,1,0,0,0-.67-.22,1.23,1.23,0,0,0-.58.14c-.74.4-.74,1.34-.74,2.07V552H157v-6.64h1.14V546a1.77,1.77,0,0,1,1.5-.88,1.89,1.89,0,0,1,1,.27Z"/><path class="cls-1" d="M169.86,552l-2.69-3-.29.29V552h-1.14V540.28h1.14v7.48l2.42-2.45h1.52L168,548.13l3.38,3.83Z"/><path class="cls-1" d="M172.48,552V540.28h1.14V552Z"/><path class="cls-1" d="M182.95,552V542.4h-1.78l.63-1.12h2.34V552Z"/><path class="cls-1" d="M192,552.13a3.33,3.33,0,0,1-2.46-1.06,2.82,2.82,0,0,1-.7-1.89H190a2,2,0,0,0,.37,1,2.15,2.15,0,0,0,1.68.8,2.08,2.08,0,0,0,2.1-2.13c0-1.39-1-2-2.27-2v-1a2.47,2.47,0,0,0,1.26-.26,1.84,1.84,0,1,0-2.43-2.69,2.62,2.62,0,0,0-.35,1h-1.17c.24-1.73,1.15-2.8,3-2.8a2.86,2.86,0,0,1,3,2.87,2.6,2.6,0,0,1-1.38,2.37,2.72,2.72,0,0,1,1.54,2.58A3.17,3.17,0,0,1,192,552.13Z"/><path class="cls-1" d="M196.85,549.06v-1h2.9v1Z"/><path class="cls-1" d="M204,552V542.4h-1.78l.63-1.12h2.34V552Z"/><path class="cls-1" d="M212.61,552.13a3.7,3.7,0,0,1-3.27-1.91l.94-.67a2.81,2.81,0,0,0,2.42,1.47,2.65,2.65,0,0,0,2.64-2.71,2.59,2.59,0,0,0-2.62-2.66,3.77,3.77,0,0,0-2.07.74l1.55-5.12h4.24v1.12H213l-.7,2.27a2.49,2.49,0,0,1,.61-.06,3.54,3.54,0,0,1,3.59,3.7A3.79,3.79,0,0,1,212.61,552.13Z"/></svg>