<svg id="Layer_1" data-name="Layer 1" xmlns="http://www.w3.org/2000/svg" viewBox="0 0 250 720"><defs><style>.cls-1{fill:#d80201;}</style></defs><title>text</title><path class="cls-1" d="M71.84,401.42a10.75,10.75,0,0,1-10.91-10.7,10.92,10.92,0,0,1,10.94-10.91,10.63,10.63,0,0,1,5.05,1.27v4.77a6.74,6.74,0,0,0-5.05-2.36,6.9,6.9,0,0,0-6.79,7.19,6.77,6.77,0,0,0,11.84,4.78v4.74A11.58,11.58,0,0,1,71.84,401.42Z"/><path class="cls-1" d="M89.23,401V393.6c0-1.86-.4-3.32-2.57-3.32-2.33,0-2.85,1.8-2.85,3.78V401H80.06V377.73h3.75v11.53A4.89,4.89,0,0,1,88,387.09a5.13,5.13,0,0,1,3.91,1.64A5.33,5.33,0,0,1,93,392.52V401Z"/><path class="cls-1" d="M106.84,401v-1.77a5.19,5.19,0,0,1-4.37,2.2c-4,0-6.6-3.35-6.6-7.19s2.57-7.1,6.51-7.1a5.59,5.59,0,0,1,4.46,2.14v-1.71h3.78V401Zm-3.35-10.48a3.77,3.77,0,1,0,3.75,3.75A3.75,3.75,0,0,0,103.49,390.47Z"/><path class="cls-1" d="M123,390.94a3.32,3.32,0,0,0-1.8-.46c-2.54,0-3.22,1.8-3.22,4V401h-3.75V387.53H118v2a4.38,4.38,0,0,1,5.55-2.14Z"/><path class="cls-1" d="M142.52,401V393.6c0-1.58-.25-3.32-2.23-3.32-2.2,0-2.57,2-2.57,3.78V401H134v-7.13a6,6,0,0,0-.28-2.23,2.17,2.17,0,0,0-2-1.3,2.45,2.45,0,0,0-2.11,1.21,5.58,5.58,0,0,0-.43,2.57V401h-3.75V387.53h3.75V389a5.16,5.16,0,0,1,4.09-2,4.56,4.56,0,0,1,4.19,2.45,5,5,0,0,1,4.4-2.45,4.41,4.41,0,0,1,3.75,1.92,5.92,5.92,0,0,1,.71,3.26V401Z"/><path class="cls-1" d="M151.7,384.12a2.26,2.26,0,1,1,0-4.53,2.26,2.26,0,0,1,0,4.53ZM149.8,401V387.53h3.75V401Z"/><path class="cls-1" d="M169.55,405.82a7.32,7.32,0,0,1-5.71,2.36c-3.44,0-6.76-2-7.13-5.64h4.06A3,3,0,0,0,164,405c2.36,0,3.32-1.64,3.32-3.81v-2a5.58,5.58,0,0,1-4.53,2.23c-4,0-6.39-3.19-6.39-7s2.48-7.32,6.57-7.32a5,5,0,0,1,4.34,2.17v-1.74h3.78v12.93C171.07,402.57,171,404.15,169.55,405.82ZM164,390.47a3.77,3.77,0,1,0,3.75,3.75A3.75,3.75,0,0,0,164,390.47Z"/><path class="cls-1" d="M184.93,401v-1.77a5.19,5.19,0,0,1-4.37,2.2c-4,0-6.6-3.35-6.6-7.19s2.57-7.1,6.51-7.1a5.59,5.59,0,0,1,4.46,2.14v-1.71h3.78V401Zm-3.35-10.48a3.77,3.77,0,1,0,3.75,3.75A3.75,3.75,0,0,0,181.58,390.47Z"/><path class="cls-1" d="M64,438l-1.83-12.74-5.71,13H55.37l-5.49-13L47.8,438H43.74l3.84-21.05h2.76L56,430.42l5.89-13.52h2.76L68.08,438Z"/><path class="cls-1" d="M81.75,438.42a10.73,10.73,0,0,1-11-10.76,11.06,11.06,0,1,1,11,10.76Zm0-17.92a7.13,7.13,0,1,0,6.91,7.1A7,7,0,0,0,81.75,420.5Z"/><path class="cls-1" d="M104.22,438.48h-2.14l-8.81-21.21h4.4l5.52,13.89,5.58-13.89h4.37Z"/><path class="cls-1" d="M115.6,438V417.27H127v3.5h-7.41v4.59h7.13v3.5h-7.13v5.58H127V438Z"/><path class="cls-1" d="M154.44,426h-3.13l-.43,2.79H154l-.53,3.38h-3.16l-.93,5.77h-3.88l.93-5.77h-2.85l-.9,5.77h-3.84l.93-5.77h-3.19l.53-3.38h3.19l.43-2.79h-3.16l.53-3.41h3.16l.84-5.33H146l-.87,5.33H148l.84-5.33h3.88l-.84,5.33H155Zm-9.86,0-.43,2.79H147l.43-2.79Z"/><path class="cls-1" d="M163.09,438.48c-3.84,0-7.22-2.48-7.44-6.48h4.06a3.37,3.37,0,1,0,3.5-3.63,6.17,6.17,0,0,0-.74.06v-2.91a3.34,3.34,0,0,0,.56,0,2.81,2.81,0,1,0,.09-5.61c-1.77,0-2.6,1.08-2.82,2.73h-3.81c.59-3.91,3-5.92,6.91-5.92,3.44,0,6.29,2,6.29,5.71a4.61,4.61,0,0,1-2.39,4.4,5.09,5.09,0,0,1,3.16,5.08C170.47,436.15,167,438.48,163.09,438.48Z"/><path class="cls-1" d="M181.26,438.48c-5.71,0-8-6-8-10.85s2.26-10.88,8-10.88,8,6,8,10.85S187,438.48,181.26,438.48Zm0-18.17c-3.16,0-4,4.9-4,7.29s.81,7.35,4,7.35,4-5,4-7.35S184.42,420.31,181.26,420.31Z"/><path class="cls-1" d="M198.24,438.48c-3.84,0-7.22-2.48-7.44-6.48h4.06a3.37,3.37,0,1,0,3.5-3.63,6.17,6.17,0,0,0-.74.06v-2.91a3.34,3.34,0,0,0,.56,0,2.81,2.81,0,1,0,.09-5.61c-1.77,0-2.6,1.08-2.82,2.73h-3.81c.59-3.91,3-5.92,6.91-5.92,3.44,0,6.29,2,6.29,5.71a4.61,4.61,0,0,1-2.39,4.4,5.09,5.09,0,0,1,3.16,5.08C205.62,436.15,202.18,438.48,198.24,438.48Z"/></svg>