<svg id="Layer_1" data-name="Layer 1" xmlns="http://www.w3.org/2000/svg" viewBox="0 0 250 720"><defs><style>.cls-1{fill:#d4ac76;}</style></defs><title>text</title><path class="cls-1" d="M53.3,67.84,47.69,53.16h2.87l4,10.56,4-10.56h2.79L55.8,67.84Z"/><path class="cls-1" d="M64.83,67.84V53.16h2.75V67.84Z"/><path class="cls-1" d="M76.6,68a7.06,7.06,0,0,1-2.77-.58,7.23,7.23,0,0,1-2.38-1.61l1.75-2.09a5.33,5.33,0,0,0,1.62,1.31,4.14,4.14,0,0,0,1.93.51,2.37,2.37,0,0,0,1.57-.5,1.58,1.58,0,0,0,.61-1.27,2.19,2.19,0,0,0-1.61-2l-1.64-.66a6.31,6.31,0,0,1-2.44-1.62,3.75,3.75,0,0,1-.79-2.5,3.81,3.81,0,0,1,1.25-2.79A4.26,4.26,0,0,1,76.81,53a6.32,6.32,0,0,1,4.52,1.68l-1.62,2a3.78,3.78,0,0,0-2.9-1.28,2,2,0,0,0-1.32.42,1.31,1.31,0,0,0-.5,1,1.37,1.37,0,0,0,.39,1,3.9,3.9,0,0,0,1.26.76l1.71.69q3.27,1.31,3.33,4.24A4.11,4.11,0,0,1,80.3,66.8,5.35,5.35,0,0,1,76.6,68Z"/><path class="cls-1" d="M85.88,67.84V53.16h1.93L95,62.39V53.16h2.75V67.84H95.95L88.63,58.5v9.35Z"/><path class="cls-1" d="M103,67.84V53.16h2.75V67.84Z"/><path class="cls-1" d="M111,67.84V53.16H113l7.23,9.24V53.16h2.75V67.84H121.1l-7.31-9.35v9.35Z"/><path class="cls-1" d="M137.16,61.71V59.26h5.26l0,1.25a7.53,7.53,0,0,1-1.07,3.9,7.41,7.41,0,0,1-2.78,2.71,7.59,7.59,0,0,1-3.74,1,7.62,7.62,0,1,1,0-15.24,7.24,7.24,0,0,1,5.47,2.37l-1.88,1.86a4.75,4.75,0,0,0-3.61-1.59,4.67,4.67,0,0,0-3.51,1.44,5.19,5.19,0,0,0,0,7.08,4.48,4.48,0,0,0,3.33,1.44,5.21,5.21,0,0,0,3.27-1,4.65,4.65,0,0,0,1.73-2.7Z"/><path class="cls-1" d="M150.54,68a7.05,7.05,0,0,1-2.77-.58,7.22,7.22,0,0,1-2.38-1.61l1.75-2.09a5.33,5.33,0,0,0,1.62,1.31,4.14,4.14,0,0,0,1.93.51,2.38,2.38,0,0,0,1.57-.5,1.58,1.58,0,0,0,.61-1.27,2.19,2.19,0,0,0-1.61-2l-1.64-.66a6.31,6.31,0,0,1-2.44-1.62,3.75,3.75,0,0,1-.79-2.5,3.81,3.81,0,0,1,1.25-2.79A4.26,4.26,0,0,1,150.75,53a6.32,6.32,0,0,1,4.52,1.68l-1.62,2a3.78,3.78,0,0,0-2.9-1.28,2,2,0,0,0-1.32.42,1.31,1.31,0,0,0-.5,1,1.37,1.37,0,0,0,.39,1,3.9,3.9,0,0,0,1.26.76l1.71.69q3.27,1.31,3.33,4.24a4.11,4.11,0,0,1-1.38,3.21A5.35,5.35,0,0,1,150.54,68Z"/><path class="cls-1" d="M168.87,67.84V61.71h-6.29v6.14h-2.75V53.16h2.75v5.91h6.29V53.16h2.75V67.84Z"/><path class="cls-1" d="M186.19,66.52a6,6,0,0,1-8,0,5.2,5.2,0,0,1-1.59-3.89V53.16h2.75v9.12a3.37,3.37,0,0,0,.76,2.27,2.92,2.92,0,0,0,4.18,0,3.3,3.3,0,0,0,.76-2.24V53.16h2.75v9.48A5.2,5.2,0,0,1,186.19,66.52Z"/><path class="cls-1" d="M196.66,68a7.05,7.05,0,0,1-2.77-.58,7.22,7.22,0,0,1-2.38-1.61l1.75-2.09a5.33,5.33,0,0,0,1.62,1.31,4.14,4.14,0,0,0,1.93.51,2.38,2.38,0,0,0,1.57-.5,1.58,1.58,0,0,0,.61-1.27,2.19,2.19,0,0,0-1.61-2l-1.64-.66a6.31,6.31,0,0,1-2.44-1.62,3.75,3.75,0,0,1-.79-2.5,3.81,3.81,0,0,1,1.25-2.79A4.26,4.26,0,0,1,196.87,53a6.32,6.32,0,0,1,4.52,1.68l-1.62,2a3.78,3.78,0,0,0-2.9-1.28,2,2,0,0,0-1.32.42,1.31,1.31,0,0,0-.5,1,1.37,1.37,0,0,0,.39,1,3.9,3.9,0,0,0,1.26.76l1.71.69q3.27,1.31,3.33,4.24a4.11,4.11,0,0,1-1.38,3.21A5.35,5.35,0,0,1,196.66,68Z"/><path class="cls-1" d="M77,90.64V76h2.75V90.64Z"/><path class="cls-1" d="M92.52,90.64V76h2.66l4.54,7.24,4.6-7.24h2.89V90.64h-2.75V80.59l-.22,0-4.56,7-4.44-6.94h0v10Z"/><path class="cls-1" d="M110.46,90.64,116.12,76h2.49l5.64,14.69h-2.83l-.78-2h-6.57l-.78,2Zm6.91-10.58L115,86.16h4.68Z"/><path class="cls-1" d="M127.69,90.64V76h2.75V88h5.4v2.64Z"/><path class="cls-1" d="M139.81,90.64V76h2.66L147,83.2l4.6-7.24h2.89V90.64h-2.75V80.59l-.22,0-4.56,7-4.44-6.94h0v10Z"/><path class="cls-1" d="M173.8,83.29a7.62,7.62,0,1,1-2.23-5.39A7.31,7.31,0,0,1,173.8,83.29Zm-11.09,3.5a4.83,4.83,0,0,0,6.91,0,5,5,0,0,0,0-7,4.83,4.83,0,0,0-6.91,0,5.07,5.07,0,0,0,0,7Zm2.17-12.35a1.18,1.18,0,0,1-.9.39,1.21,1.21,0,0,1-.91-.39,1.31,1.31,0,0,1,.91-2.25,1.21,1.21,0,0,1,.89.38,1.28,1.28,0,0,1,.38.93A1.32,1.32,0,0,1,164.88,74.45Zm4.37,0a1.41,1.41,0,0,1-1.95,0,1.26,1.26,0,0,1-.4-.94,1.23,1.23,0,0,1,.4-.93,1.44,1.44,0,0,1,1.95,0,1.23,1.23,0,0,1,.4.93A1.26,1.26,0,0,1,169.26,74.45Z"/></svg>