<svg id="Layer_1" data-name="Layer 1" xmlns="http://www.w3.org/2000/svg" viewBox="0 0 250 720"><defs><style>.cls-1{fill:#d80201;}</style></defs><title>text</title><path class="cls-1" d="M92.74,398.44a8.57,8.57,0,0,1-6.79,3,8.43,8.43,0,0,1-6.79-3,8.93,8.93,0,0,1-1.52-5.52V380.27h4v11.84a7,7,0,0,0,.65,3.72A4.17,4.17,0,0,0,86,397.76a4.27,4.27,0,0,0,3.63-1.92,6.66,6.66,0,0,0,.65-3.72V380.27h4v12.65A8.73,8.73,0,0,1,92.74,398.44Z"/><path class="cls-1" d="M106.66,401.39a5.37,5.37,0,0,1-4.5-2.2v8.93H98.41V387.53h3.75v1.71a5.35,5.35,0,0,1,4.4-2.14c4,0,6.64,3.32,6.64,7.16S110.6,401.39,106.66,401.39Zm-1.12-10.91a3.77,3.77,0,1,0,3.75,3.75A3.74,3.74,0,0,0,105.55,390.47Z"/><path class="cls-1" d="M124.3,401.39a5.37,5.37,0,0,1-4.5-2.2v8.93h-3.75V387.53h3.75v1.71a5.35,5.35,0,0,1,4.4-2.14c4,0,6.64,3.32,6.64,7.16S128.24,401.39,124.3,401.39Zm-1.12-10.91a3.77,3.77,0,1,0,3.75,3.75A3.74,3.74,0,0,0,123.18,390.47Z"/><path class="cls-1" d="M133.69,401V377.73h3.75V401Z"/><path class="cls-1" d="M144.17,394.84c.06,2.08,1.05,3.6,3.29,3.6a3.52,3.52,0,0,0,3.19-1.8l3.47.56a6.58,6.58,0,0,1-6.6,4.19c-4.34,0-7.19-2.79-7.19-7.16s2.73-7.13,7-7.13,6.85,3,6.85,7.26v.5Zm3.26-5.08a3,3,0,0,0-3.13,2.7h6.36A3.11,3.11,0,0,0,147.43,389.76Z"/><path class="cls-1" d="M163.24,401.23H161.5l-6.85-13.7h4.22l3.54,7.57,3.53-7.57h4.22Z"/><path class="cls-1" d="M69.67,438l-1.83-12.74-5.71,13H61l-5.49-13L53.45,438H49.39l3.84-21.05H56l5.64,13.52,5.89-13.52h2.76L73.73,438Z"/><path class="cls-1" d="M83.8,438.39c-4.28,0-7.69-2.67-7.69-7.13s3.41-7.16,7.72-7.16,7.63,2.7,7.63,7.13S88,438.39,83.8,438.39Zm0-10.91a3.77,3.77,0,1,0,3.81,3.78A3.8,3.8,0,0,0,83.77,427.47Z"/><path class="cls-1" d="M100.42,438.23H98.68l-6.85-13.7H96l3.53,7.57,3.54-7.57h4.22Z"/><path class="cls-1" d="M111.61,431.84c.06,2.08,1.05,3.6,3.29,3.6a3.52,3.52,0,0,0,3.19-1.8l3.47.56a6.58,6.58,0,0,1-6.6,4.19c-4.34,0-7.19-2.79-7.19-7.16s2.73-7.13,7-7.13,6.85,3,6.85,7.26v.5Zm3.26-5.08a3,3,0,0,0-3.13,2.7h6.36A3.11,3.11,0,0,0,114.86,426.76Z"/><path class="cls-1" d="M133.71,438V430.6c0-1.86-.4-3.32-2.57-3.32-2.33,0-2.85,1.8-2.85,3.78V438h-3.75V414.73h3.75v11.53a4.89,4.89,0,0,1,4.22-2.17,5.13,5.13,0,0,1,3.91,1.64,5.32,5.32,0,0,1,1.05,3.78V438Z"/><path class="cls-1" d="M148,438.39c-4.28,0-7.69-2.67-7.69-7.13s3.41-7.16,7.72-7.16,7.63,2.7,7.63,7.13S152.28,438.39,148,438.39Zm0-10.91a3.77,3.77,0,1,0,3.81,3.78A3.8,3.8,0,0,0,148,427.47Z"/><path class="cls-1" d="M175.71,438V430.6c0-1.58-.25-3.32-2.23-3.32-2.2,0-2.57,2-2.57,3.78V438h-3.75v-7.13a6,6,0,0,0-.28-2.23,2.17,2.17,0,0,0-2-1.3,2.45,2.45,0,0,0-2.11,1.21,5.57,5.57,0,0,0-.43,2.57V438h-3.75V424.53h3.75V426a5.16,5.16,0,0,1,4.09-2,4.56,4.56,0,0,1,4.19,2.45,5,5,0,0,1,4.4-2.45,4.42,4.42,0,0,1,3.75,1.92,5.91,5.91,0,0,1,.71,3.25V438Z"/><path class="cls-1" d="M186.19,431.84c.06,2.08,1.05,3.6,3.29,3.6a3.52,3.52,0,0,0,3.19-1.8l3.47.56a6.58,6.58,0,0,1-6.6,4.19c-4.34,0-7.19-2.79-7.19-7.16s2.73-7.13,7-7.13,6.85,3,6.85,7.26v.5Zm3.26-5.08a3,3,0,0,0-3.13,2.7h6.36A3.11,3.11,0,0,0,189.45,426.76Z"/></svg>