<svg id="Layer_1" data-name="Layer 1" xmlns="http://www.w3.org/2000/svg" viewBox="0 0 250 720"><defs><style>.cls-1{fill:#d4ac76;}</style></defs><title>text</title><path class="cls-1" d="M35.73,55.8V53.16h12.1V55.8H43.16v12H40.4v-12Z"/><path class="cls-1" d="M55.92,67.84,50.3,53.16h2.87l4,10.56,4-10.56H64L58.42,67.84Z"/><path class="cls-1" d="M64.69,67.84l5.66-14.68h2.49l5.64,14.68H75.65l-.78-2H68.3l-.78,2Zm6.9-10.57-2.34,6.09h4.68Zm2.14-6.62a2.12,2.12,0,1,1-4.24,0,2,2,0,0,1,.62-1.5,2.13,2.13,0,0,1,3.62,1.5Zm-2.66.55a.75.75,0,0,0,.55.23.71.71,0,0,0,.54-.23.78.78,0,0,0,0-1.1.77.77,0,0,0-1.31.55A.76.76,0,0,0,71.07,51.2Z"/><path class="cls-1" d="M81.92,67.84V53.16h5.27a5,5,0,0,1,5.1,5.07,4.65,4.65,0,0,1-1.49,3.54,5.15,5.15,0,0,1-3.66,1.4H84.67v4.67Zm5-12H84.67v4.92H87a2.56,2.56,0,0,0,1.84-.66,2.27,2.27,0,0,0,.71-1.75,2.42,2.42,0,0,0-.72-1.81A2.58,2.58,0,0,0,87,55.8Z"/><path class="cls-1" d="M96.34,67.84V53.16h2.75v12h5.4v2.64Z"/><path class="cls-1" d="M107,67.84l5.66-14.68h2.49l5.64,14.68H118l-.78-2h-6.57l-.78,2ZM114,57.27l-2.35,6.09h4.68Z"/><path class="cls-1" d="M124.27,67.84V53.16h1.93l7.23,9.23V53.16h2.75V67.84h-1.84L127,58.5v9.34Z"/><path class="cls-1" d="M145.2,68a7,7,0,0,1-2.77-.58,7.13,7.13,0,0,1-2.38-1.6l1.74-2.09a5.34,5.34,0,0,0,1.62,1.31,4.2,4.2,0,0,0,1.94.51,2.34,2.34,0,0,0,1.56-.5,1.59,1.59,0,0,0,.62-1.27,2.2,2.2,0,0,0-1.62-2l-1.63-.65a6.36,6.36,0,0,1-2.45-1.62,3.78,3.78,0,0,1-.78-2.5,3.82,3.82,0,0,1,1.24-2.79A4.25,4.25,0,0,1,145.41,53a6.32,6.32,0,0,1,4.52,1.67l-1.62,2.05a3.78,3.78,0,0,0-2.9-1.27,2,2,0,0,0-1.32.42,1.32,1.32,0,0,0-.5,1,1.37,1.37,0,0,0,.39,1,3.92,3.92,0,0,0,1.26.76l1.71.68q3.27,1.32,3.33,4.24a4.13,4.13,0,0,1-1.38,3.22A5.37,5.37,0,0,1,145.2,68Z"/><path class="cls-1" d="M158.36,67.84l-5.61-14.68h2.87l4,10.56,4-10.56h2.78l-5.56,14.68Z"/><path class="cls-1" d="M169.89,67.84V53.16h2.75V67.84Z"/><path class="cls-1" d="M177.89,67.84V53.16h2.75v12H186v2.64Z"/><path class="cls-1" d="M190,67.84V53.16h2.75v12h5.4v2.64Z"/><path class="cls-1" d="M200.71,67.84l5.66-14.68h2.49l5.64,14.68h-2.83l-.78-2h-6.57l-.78,2Zm6.9-10.57-2.35,6.09H210Z"/><path class="cls-1" d="M45.31,90.64V76h2.76V90.64Z"/><path class="cls-1" d="M59.32,90.64,65,76h2.49l5.64,14.68H70.28l-.78-2H62.93l-.78,2Zm6.91-10.57-2.35,6.09h4.68Zm2.13-6.62a2,2,0,0,1-.62,1.49,2.12,2.12,0,0,1-3.62-1.49,2,2,0,0,1,.62-1.5,2.14,2.14,0,0,1,3,0A2,2,0,0,1,68.36,73.45ZM65.7,74a.76.76,0,0,0,.55.23.71.71,0,0,0,.54-.23.75.75,0,0,0,.22-.55.71.71,0,0,0-.23-.55.77.77,0,0,0-1.31.55A.76.76,0,0,0,65.7,74Z"/><path class="cls-1" d="M76.55,90.64V76H79.1v6.47L84.72,76h3.4l-5.18,5.86,5.3,8.82H85.06l-4-6.7-2,2.22v4.48Z"/><path class="cls-1" d="M100.32,84.43H94.89v3.76h6v2.45H92.13V76h8.55v2.45H94.89V82h5.43Z"/><path class="cls-1" d="M105.32,90.64V76h5.74a4.94,4.94,0,0,1,3.54,1.33A4.57,4.57,0,0,1,116,80.77a4.43,4.43,0,0,1-1.05,3,4.68,4.68,0,0,1-2.74,1.56l4,5.33h-3.1l-3.81-5.24h-1.19v5.24Zm5.32-12.23h-2.57V83.2h2.57a2.72,2.72,0,0,0,1.91-.66,2.2,2.2,0,0,0,.71-1.69,2.32,2.32,0,0,0-.73-1.74A2.61,2.61,0,0,0,110.64,78.41Z"/><path class="cls-1" d="M124.15,90.83a7,7,0,0,1-2.77-.58,7.23,7.23,0,0,1-2.38-1.6l1.75-2.1a5.23,5.23,0,0,0,1.62,1.32,4.17,4.17,0,0,0,1.94.51,2.41,2.41,0,0,0,1.56-.5,1.58,1.58,0,0,0,.61-1.27,2.19,2.19,0,0,0-1.61-2l-1.64-.65a6.4,6.4,0,0,1-2.44-1.62,4,4,0,0,1,.46-5.29,4.24,4.24,0,0,1,3.11-1.22,6.3,6.3,0,0,1,4.52,1.67l-1.62,2.05a3.76,3.76,0,0,0-2.9-1.27,2,2,0,0,0-1.32.42,1.31,1.31,0,0,0-.49,1,1.37,1.37,0,0,0,.39,1,3.92,3.92,0,0,0,1.26.76l1.71.68c2.18.87,3.29,2.29,3.33,4.24a4.11,4.11,0,0,1-1.39,3.22A5.35,5.35,0,0,1,124.15,90.83Z"/><path class="cls-1" d="M133.44,90.64V76h4.83a4.44,4.44,0,0,1,3.21,1.22,4.08,4.08,0,0,1,1.27,3,3.47,3.47,0,0,1-1.65,3,4.07,4.07,0,0,1,1.63,1.31,3.16,3.16,0,0,1,.6,1.87,4,4,0,0,1-1.28,3.11,4.61,4.61,0,0,1-3.25,1.18ZM138,78.41h-2v3.68h2.2a2,2,0,0,0,1.46-.54,1.81,1.81,0,0,0,.56-1.35,1.56,1.56,0,0,0-.62-1.3A2.53,2.53,0,0,0,138,78.41Zm.42,5.89H136v3.89h2.33a2.38,2.38,0,0,0,1.66-.55,2,2,0,0,0,0-2.82A2.34,2.34,0,0,0,138.37,84.3Z"/><path class="cls-1" d="M155.93,84.43H150.5v3.76h6v2.45h-8.72V76h8.55v2.45H150.5V82h5.43Z"/><path class="cls-1" d="M160.93,90.64V76h5.74a4.94,4.94,0,0,1,3.54,1.33,4.58,4.58,0,0,1,1.42,3.48,4.44,4.44,0,0,1-1.06,3,4.65,4.65,0,0,1-2.74,1.56l3.95,5.33h-3.1l-3.81-5.24h-1.19v5.24Zm5.32-12.23h-2.57V83.2h2.57a2.7,2.7,0,0,0,1.91-.66,2.2,2.2,0,0,0,.71-1.69,2.28,2.28,0,0,0-.73-1.74A2.61,2.61,0,0,0,166.25,78.41Z"/><path class="cls-1" d="M185.15,84.51V82.06h5.27l0,1.25a7.51,7.51,0,0,1-1.08,3.89,7.37,7.37,0,0,1-2.78,2.71,7.57,7.57,0,0,1-3.74,1,7.62,7.62,0,1,1,0-15.24A7.23,7.23,0,0,1,188.31,78l-1.88,1.85a4.75,4.75,0,0,0-3.61-1.59,4.69,4.69,0,0,0-3.52,1.44,5.19,5.19,0,0,0,0,7.08,4.48,4.48,0,0,0,3.34,1.44,5.18,5.18,0,0,0,3.26-1,4.61,4.61,0,0,0,1.73-2.7Z"/><path class="cls-1" d="M192.43,90.64,198.09,76h2.49l5.65,14.68h-2.84l-.78-2H196l-.78,2Zm6.91-10.57L197,86.16h4.68Z"/></svg>