<svg id="Layer_1" data-name="Layer 1" xmlns="http://www.w3.org/2000/svg" viewBox="0 0 250 720"><defs><style>.cls-1{fill:#d4ac76;}</style></defs><title>text</title><path class="cls-1" d="M12,537.26,8.4,528H9.85l2.78,7.13L15.42,528h1.43l-3.63,9.28Z"/><path class="cls-1" d="M24.57,537.26V528H25.9l3,4.95,3-4.95H33.2v9.28H31.9v-6.85l0,0-3,4.79L26,530.45h-.08v6.81Z"/><path class="cls-1" d="M41.08,537.43a4.57,4.57,0,0,1-3.35-1.38,5,5,0,0,1,0-6.88,4.6,4.6,0,0,1,3.35-1.37,4.54,4.54,0,0,1,3.33,1.38,4.94,4.94,0,0,1,0,6.87A4.54,4.54,0,0,1,41.08,537.43Zm-2.43-2.28a3.36,3.36,0,0,0,4.86,0,3.73,3.73,0,0,0,0-5.07,3.35,3.35,0,0,0-4.85,0,3.71,3.71,0,0,0,0,5.07ZM40.21,527a.63.63,0,0,1-.46.2.61.61,0,0,1-.46-.2.76.76,0,0,1-.19-.51.74.74,0,0,1,.19-.5.58.58,0,0,1,.46-.2.59.59,0,0,1,.46.2.69.69,0,0,1,.19.5A.72.72,0,0,1,40.21,527Zm2.57,0a.63.63,0,0,1-.92,0,.72.72,0,0,1-.19-.51.69.69,0,0,1,.19-.5.63.63,0,0,1,.92,0,.69.69,0,0,1,.19.5A.72.72,0,0,1,42.78,527Z"/><path class="cls-1" d="M49.05,537.26V528h1.3v8h3.81v1.24Z"/><path class="cls-1" d="M57,537.26V528H58.3v8h3.82v1.24Z"/><path class="cls-1" d="M70.08,533.19H66.26V536h4.08v1.24H65V528h5.31v1.24h-4V532h3.82Z"/><path class="cls-1" d="M73.56,537.26V528H76a4.63,4.63,0,0,1,4.6,4.62,4.47,4.47,0,0,1-1.35,3.34A4.53,4.53,0,0,1,76,537.26Zm2.53-8H74.85V536h1.28a3,3,0,0,0,2.28-1,3.43,3.43,0,0,0,.93-2.43,3.31,3.31,0,0,0-1-2.41A3.08,3.08,0,0,0,76.09,529.22Z"/><path class="cls-1" d="M82.47,537.26,86.2,528h1.17L91,537.26H89.59L89,535.83H84.48l-.57,1.43Zm4.31-7.15L85,534.59h3.56Z"/><path class="cls-1" d="M93.6,537.26V528h1.29v8h3.82v1.24Z"/><path class="cls-1" d="M104,537.38a4.46,4.46,0,0,1-1.74-.37,4.61,4.61,0,0,1-1.47-1l.92-1a3.33,3.33,0,0,0,1.07.84,2.64,2.64,0,0,0,1.28.34,1.8,1.8,0,0,0,1.2-.39,1.25,1.25,0,0,0,.46-1,1.62,1.62,0,0,0-1.17-1.52l-1.1-.43a3.86,3.86,0,0,1-1.51-1,2.15,2.15,0,0,1-.5-1.47,2.32,2.32,0,0,1,.76-1.75,2.63,2.63,0,0,1,1.9-.73,3.75,3.75,0,0,1,2.69,1l-.78,1a2.58,2.58,0,0,0-1.91-.83,1.51,1.51,0,0,0-1,.32,1.09,1.09,0,0,0-.38.86,1.07,1.07,0,0,0,.28.72,2.72,2.72,0,0,0,.94.57L105,532a2.64,2.64,0,0,1,1.95,2.65,2.57,2.57,0,0,1-.82,2A3.1,3.1,0,0,1,104,537.38Z"/><path class="cls-1" d="M112.56,537.26,108.94,528h1.46l2.78,7.13L116,528h1.44l-3.63,9.28Z"/><path class="cls-1" d="M119.56,537.17a.71.71,0,0,1-.55.23.69.69,0,0,1-.54-.23.75.75,0,0,1-.23-.55.8.8,0,0,1,.22-.56.76.76,0,0,1,.55-.22.78.78,0,0,1,.55.22.73.73,0,0,1,.23.56A.71.71,0,0,1,119.56,537.17Z"/><path class="cls-1" d="M129.1,537.26v-7.62l-1.74.89v-1.24l2.47-1.36h.57v9.33Z"/><path class="cls-1" d="M133.32,535.13v-.81l3.22-6.34h1.36l-3.05,6h2v-1.56h1.29V534h1.12v1.15h-1.12v2.13h-1.29v-2.13Z"/><path class="cls-1" d="M141.19,537.26l3.72-9.28h1.17l3.66,9.28H148.3l-.56-1.43H143.2l-.58,1.43Zm4.31-7.15-1.81,4.48h3.57Z"/><path class="cls-1" d="M151.69,539l1.07-3,1.18.42-1.46,2.85Z"/><path class="cls-1" d="M167.9,537.26v-4h-4.51v4h-1.3V528h1.3v4h4.51v-4h1.3v9.28Z"/><path class="cls-1" d="M177.13,537.43a4.54,4.54,0,0,1-3.34-1.38,5,5,0,0,1,0-6.88,4.74,4.74,0,0,1,6.68,0,4.94,4.94,0,0,1,0,6.87A4.56,4.56,0,0,1,177.13,537.43Zm-2.42-2.28a3.35,3.35,0,0,0,4.85,0,3.51,3.51,0,0,0,1-2.54,3.56,3.56,0,0,0-1-2.53,3.27,3.27,0,0,0-2.43-1,3.23,3.23,0,0,0-2.42,1,3.71,3.71,0,0,0,0,5.07Zm1.55-8.15a.61.61,0,0,1-.46.2.63.63,0,0,1-.46-.2.76.76,0,0,1-.18-.51.73.73,0,0,1,.18-.5.59.59,0,0,1,.46-.2.58.58,0,0,1,.46.2.7.7,0,0,1,.2.5A.73.73,0,0,1,176.26,527Zm2.58,0a.64.64,0,0,1-.93,0,.76.76,0,0,1-.18-.51.73.73,0,0,1,.18-.5.6.6,0,0,1,.47-.2.59.59,0,0,1,.46.2.73.73,0,0,1,.18.5A.76.76,0,0,1,178.84,527Z"/><path class="cls-1" d="M185.11,537.26V528h1.29v8h3.82v1.24Z"/><path class="cls-1" d="M193.06,537.26V528h1.3v8h3.82v1.24Z"/><path class="cls-1" d="M202.32,537.26,198.7,528h1.46l2.78,7.13,2.78-7.13h1.44l-3.63,9.28Z"/><path class="cls-1" d="M209.71,537.26V528H211v9.28Z"/><path class="cls-1" d="M214.81,537.26V528h1.29v4.4L220,528h1.74l-3.27,3.68,3.35,5.6h-1.61l-2.7-4.53-1.38,1.55v3Z"/><path class="cls-1" d="M229.72,533.19h-3.81V536H230v1.24h-5.38V528h5.31v1.24h-4V532h3.81Z"/><path class="cls-1" d="M233.2,537.26V528h.91l5,6.39V528h1.3v9.28h-.72l-5.21-6.63v6.63Z"/><path class="cls-1" d="M17.91,557.38a4.46,4.46,0,0,1-1.74-.37,4.61,4.61,0,0,1-1.47-1l.91-1a3.44,3.44,0,0,0,1.07.84,2.71,2.71,0,0,0,1.29.34,1.8,1.8,0,0,0,1.2-.39,1.28,1.28,0,0,0,.46-1,1.62,1.62,0,0,0-1.17-1.52l-1.1-.43a3.9,3.9,0,0,1-1.52-1,2.2,2.2,0,0,1-.5-1.47,2.33,2.33,0,0,1,.77-1.75,2.62,2.62,0,0,1,1.89-.73,3.78,3.78,0,0,1,2.7,1l-.78,1A2.61,2.61,0,0,0,18,549.1a1.48,1.48,0,0,0-1,.32,1.09,1.09,0,0,0-.38.86,1,1,0,0,0,.28.72,2.63,2.63,0,0,0,.94.57L19,552a2.61,2.61,0,0,1,2,2.65,2.56,2.56,0,0,1-.81,2A3.1,3.1,0,0,1,17.91,557.38Z"/><path class="cls-1" d="M28.35,557.43A4.57,4.57,0,0,1,25,556.05a4.81,4.81,0,0,1,3.35-8.25,4.54,4.54,0,0,1,3.33,1.38,4.94,4.94,0,0,1,0,6.87A4.54,4.54,0,0,1,28.35,557.43Zm-2.43-2.28a3.35,3.35,0,0,0,4.85,0,3.71,3.71,0,0,0,0-5.07,3.35,3.35,0,0,0-4.85,0,3.71,3.71,0,0,0,0,5.07ZM27.48,547a.63.63,0,0,1-.47.2.59.59,0,0,1-.45-.2.72.72,0,0,1-.19-.51.69.69,0,0,1,.19-.5.56.56,0,0,1,.45-.2.6.6,0,0,1,.47.2.74.74,0,0,1,.19.5A.76.76,0,0,1,27.48,547Zm2.57,0a.63.63,0,0,1-.46.2.61.61,0,0,1-.46-.2.72.72,0,0,1-.19-.51.69.69,0,0,1,.19-.5.58.58,0,0,1,.46-.2.59.59,0,0,1,.46.2.74.74,0,0,1,.19.5A.76.76,0,0,1,30.05,547Z"/><path class="cls-1" d="M36.32,557.26V548h.9l5,6.39V548h1.29v9.28h-.71l-5.21-6.63v6.63Z"/><path class="cls-1" d="M47.42,557.26V548h2.49a4.67,4.67,0,0,1,3.24,8,4.53,4.53,0,0,1-3.29,1.32Zm2.54-8H48.72V556H50a3,3,0,0,0,2.29-1,3.42,3.42,0,0,0,.92-2.43,3.3,3.3,0,0,0-1-2.41A3.09,3.09,0,0,0,50,549.22Z"/><path class="cls-1" d="M56.34,557.26,60.06,548h1.17l3.66,9.28H63.45l-.56-1.43H58.35l-.58,1.43Zm4.31-7.15-1.81,4.48h3.57Z"/><path class="cls-1" d="M73.08,553.23V552h3.08v.65a4.76,4.76,0,0,1-4.8,4.77A4.54,4.54,0,0,1,68,556a5,5,0,0,1,0-6.85,4.51,4.51,0,0,1,3.38-1.39,5.1,5.1,0,0,1,2,.38,4.87,4.87,0,0,1,1.59,1.08l-1,1a3.4,3.4,0,0,0-5-.16,3.76,3.76,0,0,0,0,5.06,3.24,3.24,0,0,0,2.46,1,3.31,3.31,0,0,0,2.23-.81,3.63,3.63,0,0,0,1.17-2.14Z"/><path class="cls-1" d="M83.71,555.13v-.81L86.94,548h1.35l-3.05,6h2v-1.56h1.29V554h1.12v1.15H88.54v2.13H87.25v-2.13Z"/><path class="cls-1" d="M97.62,557.26V548h.9l5,6.39V548h1.3v9.28h-.72l-5.21-6.63v6.63Z"/><path class="cls-1" d="M112.78,557.43a4.57,4.57,0,0,1-3.35-1.38,5,5,0,0,1,0-6.88,4.6,4.6,0,0,1,3.35-1.37,4.54,4.54,0,0,1,3.33,1.38,4.94,4.94,0,0,1,0,6.87A4.54,4.54,0,0,1,112.78,557.43Zm-2.43-2.28a3.36,3.36,0,0,0,4.86,0,3.73,3.73,0,0,0,0-5.07,3.35,3.35,0,0,0-4.85,0,3.71,3.71,0,0,0,0,5.07Z"/><path class="cls-1" d="M123,557.26,119.34,548h1.45l2.78,7.13,2.79-7.13h1.43l-3.63,9.28Z"/><path class="cls-1" d="M135.45,553.19h-3.81V556h4.08v1.24h-5.38V548h5.3v1.24h-4V552h3.81Z"/><path class="cls-1" d="M138.93,557.26V548h1.33l3,4.95,3-4.95h1.27v9.28h-1.3v-6.85l0,0-3,4.79-2.93-4.72h-.08v6.81Z"/><path class="cls-1" d="M151.38,557.26V548h2.83a3,3,0,0,1,2,.72,2.4,2.4,0,0,1,.8,1.87,2.17,2.17,0,0,1-1.1,2,2.35,2.35,0,0,1,1,.84,2.14,2.14,0,0,1,.37,1.25,2.38,2.38,0,0,1-.81,1.89,3,3,0,0,1-2.07.72Zm2.7-8h-1.41V552h1.65a1.41,1.41,0,0,0,1-.41,1.44,1.44,0,0,0,.42-1.07,1.18,1.18,0,0,0-.47-1A1.85,1.85,0,0,0,154.08,549.22Zm.29,4h-1.7V556h1.62a1.93,1.93,0,0,0,1.27-.39,1.31,1.31,0,0,0,.47-1.07,1.27,1.27,0,0,0-.43-1A1.79,1.79,0,0,0,154.37,553.19Z"/><path class="cls-1" d="M165.69,553.19h-3.81V556H166v1.24h-5.38V548h5.3v1.24h-4V552h3.81Z"/><path class="cls-1" d="M169.17,557.26V548h3.45a2.87,2.87,0,0,1,2.08.81,3,3,0,0,1,.15,4,2.73,2.73,0,0,1-1.77.91l2.68,3.53h-1.6l-2.66-3.54h-1v3.54Zm3.27-8h-2v3.35h2a1.88,1.88,0,0,0,1.31-.46,1.68,1.68,0,0,0,0-2.41A1.83,1.83,0,0,0,172.44,549.22Z"/><path class="cls-1" d="M183.81,557.26V548h1.3v4.4L189,548h1.74l-3.27,3.68,3.36,5.6h-1.61l-2.7-4.53-1.38,1.55v3Z"/><path class="cls-1" d="M193.62,557.26V548h1.29v8h3.82v1.24Z"/><path class="cls-1" d="M207.64,557.26v-7.62l-1.74.89v-1.24l2.46-1.36h.58v9.33Z"/><path class="cls-1" d="M213.63,557.26v-7.62l-1.74.89v-1.24l2.46-1.36h.58v9.33Z"/><path class="cls-1" d="M218.08,553.21v-1.15h3.63v1.15Z"/><path class="cls-1" d="M225.22,557.26v-7.62l-1.74.89v-1.24l2.46-1.36h.58v9.33Z"/><path class="cls-1" d="M232.26,557.4a2.86,2.86,0,0,1-2-.78,2.57,2.57,0,0,1-.86-1.89h1.29a1.35,1.35,0,0,0,.49,1,1.53,1.53,0,0,0,1.08.43,1.58,1.58,0,0,0,1.15-.45,1.48,1.48,0,0,0,.46-1.11,1.54,1.54,0,0,0-1.58-1.59h-.53v-1.15h.52a1.46,1.46,0,0,0,1.08-.43,1.39,1.39,0,0,0,.43-1,1.36,1.36,0,0,0-.43-1,1.49,1.49,0,0,0-1.09-.41,1.46,1.46,0,0,0-1.06.42,1.4,1.4,0,0,0-.43,1h-1.3a2.36,2.36,0,0,1,.81-1.85,3,3,0,0,1,4,0,2.45,2.45,0,0,1,.8,1.85,2.19,2.19,0,0,1-1.42,2,2.21,2.21,0,0,1,1.08.82,2.26,2.26,0,0,1,.41,1.34,2.63,2.63,0,0,1-.85,2A2.86,2.86,0,0,1,232.26,557.4Z"/></svg>