<svg id="Layer_1" data-name="Layer 1" xmlns="http://www.w3.org/2000/svg" viewBox="0 0 250 720"><defs><style>.cls-1{fill:#d80201;}</style></defs><title>text</title><path class="cls-1" d="M92.74,398.44a8.57,8.57,0,0,1-6.79,3,8.43,8.43,0,0,1-6.79-3,8.93,8.93,0,0,1-1.52-5.52V380.27h4v11.84a7,7,0,0,0,.65,3.72A4.17,4.17,0,0,0,86,397.76a4.27,4.27,0,0,0,3.63-1.92,6.66,6.66,0,0,0,.65-3.72V380.27h4v12.65A8.73,8.73,0,0,1,92.74,398.44Z"/><path class="cls-1" d="M106.66,401.39a5.37,5.37,0,0,1-4.5-2.2v8.93H98.41V387.53h3.75v1.71a5.35,5.35,0,0,1,4.4-2.14c4,0,6.64,3.32,6.64,7.16S110.6,401.39,106.66,401.39Zm-1.12-10.91a3.77,3.77,0,1,0,3.75,3.75A3.74,3.74,0,0,0,105.55,390.47Z"/><path class="cls-1" d="M124.3,401.39a5.37,5.37,0,0,1-4.5-2.2v8.93h-3.75V387.53h3.75v1.71a5.35,5.35,0,0,1,4.4-2.14c4,0,6.64,3.32,6.64,7.16S128.24,401.39,124.3,401.39Zm-1.12-10.91a3.77,3.77,0,1,0,3.75,3.75A3.74,3.74,0,0,0,123.18,390.47Z"/><path class="cls-1" d="M133.69,401V377.73h3.75V401Z"/><path class="cls-1" d="M144.17,394.84c.06,2.08,1.05,3.6,3.29,3.6a3.52,3.52,0,0,0,3.19-1.8l3.47.56a6.58,6.58,0,0,1-6.6,4.19c-4.34,0-7.19-2.79-7.19-7.16s2.73-7.13,7-7.13,6.85,3,6.85,7.26v.5Zm3.26-5.08a3,3,0,0,0-3.13,2.7h6.36A3.11,3.11,0,0,0,147.43,389.76Z"/><path class="cls-1" d="M163.24,401.23H161.5l-6.85-13.7h4.22l3.54,7.57,3.53-7.57h4.22Z"/><path class="cls-1" d="M57.81,438,56,425.21l-5.71,13H49.16l-5.49-13L41.59,438H37.53l3.84-21.05h2.76l5.64,13.52,5.89-13.52h2.76L61.87,438Z"/><path class="cls-1" d="M75.54,438.42a10.73,10.73,0,0,1-11-10.76,11.06,11.06,0,1,1,11,10.76Zm0-17.92a7.13,7.13,0,1,0,6.92,7.1A7,7,0,0,0,75.54,420.5Z"/><path class="cls-1" d="M98,438.48H95.87l-8.81-21.21h4.4L97,431.16l5.58-13.89h4.37Z"/><path class="cls-1" d="M109.39,438V417.27h11.44v3.5h-7.41v4.59h7.13v3.5h-7.13v5.58h7.41V438Z"/><path class="cls-1" d="M148.23,426H145.1l-.43,2.79h3.16l-.53,3.38h-3.16l-.93,5.77h-3.88l.93-5.77h-2.85l-.9,5.77h-3.84l.93-5.77h-3.19l.53-3.38h3.19l.43-2.79H131.4l.53-3.41h3.16l.84-5.33h3.84l-.87,5.33h2.85l.84-5.33h3.88l-.84,5.33h3.13Zm-9.86,0-.43,2.79h2.85l.43-2.79Z"/><path class="cls-1" d="M155.73,438V420.81h-3v-3.54h7V438Z"/><path class="cls-1" d="M175,438.48c-5.71,0-8-6-8-10.85s2.26-10.88,8-10.88,8,6,8,10.85S180.78,438.48,175,438.48Zm0-18.17c-3.16,0-4,4.9-4,7.29s.81,7.35,4,7.35,4-5,4-7.35S178.21,420.31,175,420.31Z"/><path class="cls-1" d="M191.26,438.48a8.84,8.84,0,0,1-6.6-2.7l1.33-3.47a6.93,6.93,0,0,0,5.21,2.64,4.1,4.1,0,0,0,4.12-4c0-2.54-2.36-4.12-4.71-4.12a6.82,6.82,0,0,0-4,1.3h-.22l2.45-10.85h9.55v3.54H191.6l-.81,3.19a12.43,12.43,0,0,1,1.52-.12,6.94,6.94,0,0,1,7,7.22C199.35,435.78,195.69,438.48,191.26,438.48Z"/><path class="cls-1" d="M205.3,438.36a2.42,2.42,0,1,1,2.42-2.42A2.42,2.42,0,0,1,205.3,438.36ZM203.38,432V417.27h3.84V432Z"/></svg>