<svg id="Layer_1" data-name="Layer 1" xmlns="http://www.w3.org/2000/svg" viewBox="0 0 250 720"><defs><style>.cls-1{fill:#d4ac76;}</style></defs><title>text</title><path class="cls-1" d="M22.89,66.52a5.5,5.5,0,0,1-4,1.55,5.5,5.5,0,0,1-4-1.55,5.18,5.18,0,0,1-1.59-3.88V53.16H16v9.12a3.32,3.32,0,0,0,.76,2.26,2.57,2.57,0,0,0,2.09.89A2.59,2.59,0,0,0,21,64.55a3.26,3.26,0,0,0,.76-2.23V53.16h2.75v9.48A5.17,5.17,0,0,1,22.89,66.52Z"/><path class="cls-1" d="M29.4,67.84V53.16h5.27a5,5,0,0,1,5.1,5.07,4.68,4.68,0,0,1-1.49,3.54,5.15,5.15,0,0,1-3.66,1.4H32.15v4.67Zm5-12H32.15v4.92h2.32a2.58,2.58,0,0,0,1.84-.66,2.26,2.26,0,0,0,.7-1.75,2.42,2.42,0,0,0-.72-1.81A2.54,2.54,0,0,0,34.43,55.8Z"/><path class="cls-1" d="M43.82,67.84V53.16h5.27a5,5,0,0,1,5.1,5.07,4.68,4.68,0,0,1-1.49,3.54A5.15,5.15,0,0,1,49,63.17H46.57v4.67Zm5-12H46.57v4.92h2.32a2.58,2.58,0,0,0,1.84-.66,2.27,2.27,0,0,0,.71-1.75,2.43,2.43,0,0,0-.73-1.81A2.54,2.54,0,0,0,48.85,55.8Z"/><path class="cls-1" d="M58.24,67.84V53.16H61v12h5.4v2.64Z"/><path class="cls-1" d="M78.55,61.63H73.11v3.76h6v2.45H70.36V53.16h8.55v2.45h-5.8v3.57h5.44Z"/><path class="cls-1" d="M87.6,67.84,82,53.16h2.86l4,10.56,4-10.56h2.79L90.1,67.84Z"/><path class="cls-1" d="M105.64,55.8V53.16h12.1V55.8h-4.67v12h-2.75v-12Z"/><path class="cls-1" d="M121.26,67.84V53.16H127a4.93,4.93,0,0,1,3.53,1.33A4.55,4.55,0,0,1,132,58a4.39,4.39,0,0,1-1.06,3,4.65,4.65,0,0,1-2.74,1.56l4,5.33H129L125.2,62.6H124v5.24Zm5.32-12.23H124V60.4h2.56a2.7,2.7,0,0,0,1.91-.66,2.2,2.2,0,0,0,.71-1.69,2.28,2.28,0,0,0-.73-1.74A2.61,2.61,0,0,0,126.58,55.61Z"/><path class="cls-1" d="M136.25,67.84V53.16H139V67.84Z"/><path class="cls-1" d="M148,67.84l-5.61-14.68h2.86l4,10.56,4-10.56h2.79l-5.56,14.68Z"/><path class="cls-1" d="M162.92,68a7,7,0,0,1-2.77-.58,7.13,7.13,0,0,1-2.38-1.6l1.74-2.09a5.34,5.34,0,0,0,1.62,1.31,4.2,4.2,0,0,0,1.94.51,2.34,2.34,0,0,0,1.56-.5,1.59,1.59,0,0,0,.62-1.27,2.2,2.2,0,0,0-1.62-2L162,61.12a6.36,6.36,0,0,1-2.45-1.62,3.78,3.78,0,0,1-.78-2.5A3.82,3.82,0,0,1,160,54.21,4.25,4.25,0,0,1,163.13,53a6.32,6.32,0,0,1,4.52,1.67L166,56.71a3.78,3.78,0,0,0-2.9-1.27,2,2,0,0,0-1.32.42,1.32,1.32,0,0,0-.5,1,1.37,1.37,0,0,0,.39,1,3.92,3.92,0,0,0,1.26.76l1.71.68q3.27,1.32,3.33,4.24a4.13,4.13,0,0,1-1.38,3.22A5.37,5.37,0,0,1,162.92,68Z"/><path class="cls-1" d="M180.39,61.63H175v3.76h6v2.45H172.2V53.16h8.55v2.45H175v3.57h5.44Z"/><path class="cls-1" d="M185.38,67.84V53.16h2.76v12h5.4v2.64Z"/><path class="cls-1" d="M206.55,67.84V61.71h-6.29v6.13h-2.75V53.16h2.75v5.91h6.29V53.16h2.76V67.84Z"/><path class="cls-1" d="M223.87,66.52a6,6,0,0,1-8,0,5.17,5.17,0,0,1-1.58-3.88V53.16H217v9.12a3.32,3.32,0,0,0,.76,2.26,2.91,2.91,0,0,0,4.18,0,3.26,3.26,0,0,0,.76-2.23V53.16h2.76v9.48A5.18,5.18,0,0,1,223.87,66.52Z"/><path class="cls-1" d="M234.33,68a6.94,6.94,0,0,1-2.76-.58,7.13,7.13,0,0,1-2.38-1.6l1.74-2.09a5.34,5.34,0,0,0,1.62,1.31,4.2,4.2,0,0,0,1.94.51,2.34,2.34,0,0,0,1.56-.5,1.59,1.59,0,0,0,.62-1.27,2.2,2.2,0,0,0-1.62-2l-1.63-.65A6.36,6.36,0,0,1,231,59.5a3.78,3.78,0,0,1-.78-2.5,3.82,3.82,0,0,1,1.24-2.79A4.25,4.25,0,0,1,234.55,53a6.32,6.32,0,0,1,4.52,1.67l-1.62,2.05a3.78,3.78,0,0,0-2.9-1.27,2,2,0,0,0-1.32.42,1.32,1.32,0,0,0-.5,1,1.37,1.37,0,0,0,.39,1,3.92,3.92,0,0,0,1.26.76l1.71.68q3.27,1.32,3.33,4.24A4.13,4.13,0,0,1,238,66.8,5.38,5.38,0,0,1,234.33,68Z"/><path class="cls-1" d="M8.51,89.44V75.53H14a4.69,4.69,0,0,1,3.35,1.26,4.36,4.36,0,0,1,1.34,3.3,4.14,4.14,0,0,1-1,2.82,4.4,4.4,0,0,1-2.6,1.48l3.74,5H15.86l-3.61-5H11.13v5Zm5-11.59H11.13v4.54h2.42a2.58,2.58,0,0,0,1.81-.62A2.08,2.08,0,0,0,16,80.16a2.2,2.2,0,0,0-.69-1.65A2.51,2.51,0,0,0,13.55,77.85Z"/><path class="cls-1" d="M29.74,75.53h2.8l-4.6,8.26v5.65H25.33V83.88l-4.67-8.35h2.87l3.14,5.77Z"/><path class="cls-1" d="M35.78,89.44V75.53H38.3l4.31,6.86L47,75.53H49.7V89.44H47.09V79.92l-.21,0-4.32,6.66L38.35,80h0v9.46Z"/><path class="cls-1" d="M54.5,89.44V75.53h2.61V86.94h5.12v2.5Z"/><path class="cls-1" d="M66,89.44V75.53H68.6V89.44Z"/><path class="cls-1" d="M82.06,83.63V81.31h5l0,1.19a7.11,7.11,0,0,1-1,3.69,7,7,0,0,1-2.63,2.56,7.19,7.19,0,0,1-3.55.91,7.2,7.2,0,0,1-7.24-7.21,7.22,7.22,0,0,1,7.28-7.23,6.86,6.86,0,0,1,5.18,2.25l-1.78,1.76a4.52,4.52,0,0,0-3.42-1.5,4.4,4.4,0,0,0-3.33,1.36,4.9,4.9,0,0,0,0,6.7,4.24,4.24,0,0,0,3.16,1.37,5,5,0,0,0,3.09-1,4.39,4.39,0,0,0,1.64-2.56Z"/><path class="cls-1" d="M97.47,89.44V87.86l5.33-7.07a2.53,2.53,0,0,0,.75-1.62A1.73,1.73,0,0,0,103,77.9a1.8,1.8,0,0,0-1.33-.52,1.59,1.59,0,0,0-1.32.63,2.61,2.61,0,0,0-.51,1.62H97.47a4.26,4.26,0,0,1,1.22-3.07,4.05,4.05,0,0,1,3-1.27,4.22,4.22,0,0,1,3,1.1,3.52,3.52,0,0,1,1.18,2.67,5.35,5.35,0,0,1-1.6,3.4l-3.85,4.9H106v2.08Z"/><path class="cls-1" d="M109.51,83.54V81.45H115v2.09Z"/><path class="cls-1" d="M119.34,89.44V75.53h5a4.73,4.73,0,0,1,4.84,4.81,4.43,4.43,0,0,1-1.41,3.35A4.92,4.92,0,0,1,124.29,85H122v4.42ZM124.11,78H122v4.66h2.2a2.41,2.41,0,0,0,1.74-.62,2.14,2.14,0,0,0,.67-1.66,2.29,2.29,0,0,0-.68-1.71A2.42,2.42,0,0,0,124.11,78Z"/><path class="cls-1" d="M133,89.44V75.53h2.61V86.94h5.11v2.5Z"/><path class="cls-1" d="M143.14,89.44l5.36-13.91h2.36l5.35,13.91h-2.69l-.74-1.92h-6.22l-.74,1.92Zm6.54-10-2.22,5.78h4.43Z"/><path class="cls-1" d="M159.46,89.44V75.53h1.83l6.85,8.75V75.53h2.61V89.44H169l-6.93-8.85v8.85Z"/><path class="cls-1" d="M179.29,89.62a6.64,6.64,0,0,1-2.63-.55,6.73,6.73,0,0,1-2.25-1.52l1.66-2a4.78,4.78,0,0,0,1.53,1.24,3.87,3.87,0,0,0,1.83.49,2.26,2.26,0,0,0,1.49-.48,1.51,1.51,0,0,0,.57-1.2A2.06,2.06,0,0,0,180,83.69l-1.55-.62a5.92,5.92,0,0,1-2.32-1.53,3.54,3.54,0,0,1-.74-2.37,3.59,3.59,0,0,1,1.18-2.64,4,4,0,0,1,3-1.16A6,6,0,0,1,183.77,77l-1.54,1.94a3.55,3.55,0,0,0-2.74-1.21,1.84,1.84,0,0,0-1.25.4,1.22,1.22,0,0,0-.47,1,1.29,1.29,0,0,0,.36,1,3.77,3.77,0,0,0,1.2.72l1.62.65c2.06.83,3.12,2.17,3.15,4a3.86,3.86,0,0,1-1.31,3A5.05,5.05,0,0,1,179.29,89.62Z"/><path class="cls-1" d="M191.76,89.44l-5.32-13.91h2.72l3.82,10,3.78-10h2.64l-5.27,13.91Z"/><path class="cls-1" d="M202.68,89.44V75.53h2.61V89.44Z"/><path class="cls-1" d="M210.26,89.44V75.53h2.61V86.94H218v2.5Z"/><path class="cls-1" d="M221.74,89.44V75.53h2.61V86.94h5.11v2.5Z"/><path class="cls-1" d="M231.88,89.44l5.36-13.91h2.36l5.34,13.91h-2.68l-.74-1.92H235.3l-.74,1.92Zm6.54-10L236.2,85.2h4.43Z"/></svg>