<svg id="Layer_1" data-name="Layer 1" xmlns="http://www.w3.org/2000/svg" viewBox="0 0 250 720"><defs><style>.cls-1{fill:#d4ac76;}</style></defs><title>text</title><path class="cls-1" d="M57.25,537.41a4.17,4.17,0,0,1-3.07-1.26,4.57,4.57,0,0,1,0-6.3,4.35,4.35,0,0,1,6.12,0,4.54,4.54,0,0,1,0,6.3A4.16,4.16,0,0,1,57.25,537.41ZM55,535.33a3.08,3.08,0,0,0,4.45,0,3.4,3.4,0,0,0,0-4.65,3.06,3.06,0,0,0-4.45,0,3.43,3.43,0,0,0,0,4.65Z"/><path class="cls-1" d="M64.55,537.26v-8.51h2.28A4.23,4.23,0,0,1,71,533a4.12,4.12,0,0,1-1.23,3.06,4.19,4.19,0,0,1-3,1.21Zm2.33-7.37H65.74v6.24h1.17a2.77,2.77,0,0,0,2.1-.92,3.16,3.16,0,0,0,.85-2.22,3.07,3.07,0,0,0-.88-2.21A2.84,2.84,0,0,0,66.88,529.89Z"/><path class="cls-1" d="M78.66,533.53h-3.5v2.6H78.9v1.13H74v-8.51h4.86v1.14H75.16v2.51h3.5Z"/><path class="cls-1" d="M81.85,537.26v-8.51h.83l4.6,5.86v-5.86h1.19v8.51h-.66L83,531.19v6.07Z"/><path class="cls-1" d="M94.09,537.37a4.18,4.18,0,0,1-2.93-1.26l.83-1a3.13,3.13,0,0,0,1,.77,2.51,2.51,0,0,0,1.18.31,1.64,1.64,0,0,0,1.1-.36,1.14,1.14,0,0,0,.42-.9,1.47,1.47,0,0,0-1.07-1.39l-1-.4a3.52,3.52,0,0,1-1.4-.92,2,2,0,0,1-.45-1.34,2.14,2.14,0,0,1,.7-1.61,2.43,2.43,0,0,1,1.73-.67,3.47,3.47,0,0,1,2.47.94l-.71,1a2.36,2.36,0,0,0-1.76-.76,1.39,1.39,0,0,0-.9.29,1,1,0,0,0-.34.79,1,1,0,0,0,.25.66,2.31,2.31,0,0,0,.86.52l1,.42a2.4,2.4,0,0,1,1.79,2.42,2.33,2.33,0,0,1-.75,1.79A2.82,2.82,0,0,1,94.09,537.37Z"/><path class="cls-1" d="M102,537.26l-3.31-8.51H100l2.55,6.54,2.55-6.54h1.31l-3.32,8.51Z"/><path class="cls-1" d="M107.13,537.26l3.41-8.51h1.07l3.35,8.51h-1.31l-.52-1.31H109l-.53,1.31Zm3.07-9.41a.56.56,0,0,1-.43.19.52.52,0,0,1-.42-.19.71.71,0,0,1,0-.92.52.52,0,0,1,.42-.19.56.56,0,0,1,.43.19.71.71,0,0,1,0,.92Zm.87,2.86-1.65,4.11h3.27Zm1.48-2.86a.56.56,0,0,1-.84,0,.71.71,0,0,1,0-.92.56.56,0,0,1,.84,0,.71.71,0,0,1,0,.92Z"/><path class="cls-1" d="M122.47,533.56v-1.13h2.83V533a4.37,4.37,0,0,1-4.4,4.38,4.17,4.17,0,0,1-3.11-1.27,4.6,4.6,0,0,1,0-6.28,4.17,4.17,0,0,1,3.11-1.27,4.63,4.63,0,0,1,1.78.35,4.39,4.39,0,0,1,1.46,1l-.88.89a3,3,0,0,0-2.36-1.1,3,3,0,0,0-2.26,1,3.44,3.44,0,0,0,0,4.64,3,3,0,0,0,2.26,1,3,3,0,0,0,2-.75,3.23,3.23,0,0,0,1.07-2Z"/><path class="cls-1" d="M132.91,533.53h-3.5v2.6h3.74v1.13h-4.93v-8.51h4.86v1.14h-3.67v2.51h3.5Z"/><path class="cls-1" d="M136.1,537.26v-8.51h.83l4.6,5.86v-5.86h1.19v8.51h-.66l-4.77-6.07v6.07Z"/><path class="cls-1" d="M153.08,537.39a2.91,2.91,0,0,1-1.72-.52,2.64,2.64,0,0,1-1-1.38l1.08-.42a1.72,1.72,0,0,0,1.65,1.19,1.69,1.69,0,0,0,1.23-.49,1.67,1.67,0,0,0,.48-1.21,1.6,1.6,0,0,0-.5-1.19,1.66,1.66,0,0,0-1.2-.48,1.59,1.59,0,0,0-1.21.52H150.7v-4.66h4.76v1.14h-3.58v2.28a2.33,2.33,0,0,1,1.21-.34,2.86,2.86,0,0,1,2.09.78,2.62,2.62,0,0,1,.8,1.95,2.7,2.7,0,0,1-.84,2A2.84,2.84,0,0,1,153.08,537.39Z"/><path class="cls-1" d="M157.41,538.82l1-2.73,1.09.39-1.34,2.61Z"/><path class="cls-1" d="M166,529.89v-1.14h6.89v1.14h-2.85v7.37h-1.19v-7.37Z"/><path class="cls-1" d="M173.48,537.26l3.41-8.51H178l3.35,8.51H180l-.51-1.31h-4.17l-.53,1.31Zm3.07-9.41a.56.56,0,0,1-.43.19.55.55,0,0,1-.42-.19.71.71,0,0,1,0-.92.55.55,0,0,1,.42-.19.56.56,0,0,1,.43.19.71.71,0,0,1,0,.92Zm.88,2.86-1.66,4.11H179Zm1.47-2.86a.56.56,0,0,1-.84,0,.71.71,0,0,1,0-.92.56.56,0,0,1,.84,0,.68.68,0,0,1,0,.92Z"/><path class="cls-1" d="M183.67,537.26v-8.51h2.61a2.72,2.72,0,0,1,1.87.66,2.2,2.2,0,0,1,.74,1.72,2,2,0,0,1-1,1.83,2.11,2.11,0,0,1,.91.76,2,2,0,0,1,.34,1.14,2.2,2.2,0,0,1-.74,1.74,2.76,2.76,0,0,1-1.9.66Zm2.48-7.37h-1.29v2.58h1.52a1.28,1.28,0,0,0,.94-.37,1.33,1.33,0,0,0,.38-1,1.08,1.08,0,0,0-.42-.89A1.75,1.75,0,0,0,186.15,529.89Zm.27,3.64h-1.56v2.6h1.48a1.78,1.78,0,0,0,1.17-.37,1.28,1.28,0,0,0,0-1.88A1.66,1.66,0,0,0,186.42,533.53Z"/><path class="cls-1" d="M196.15,528.75h1.37l-2.82,5.09v3.42h-1.19v-3.38l-2.86-5.13h1.42l2.06,3.78Z"/><path class="cls-1" d="M30.82,557.37a4.18,4.18,0,0,1-2.93-1.26l.83-1a3.13,3.13,0,0,0,1,.77,2.48,2.48,0,0,0,1.18.31,1.66,1.66,0,0,0,1.1-.36,1.14,1.14,0,0,0,.42-.9,1.48,1.48,0,0,0-1.07-1.39l-1-.4a3.55,3.55,0,0,1-1.39-.92,2,2,0,0,1-.45-1.34,2.14,2.14,0,0,1,.7-1.61,2.42,2.42,0,0,1,1.73-.67,3.49,3.49,0,0,1,2.47.94l-.71,1a2.36,2.36,0,0,0-1.76-.76,1.37,1.37,0,0,0-.9.29,1,1,0,0,0-.35.79,1,1,0,0,0,.26.66,2.31,2.31,0,0,0,.86.52l1,.42a2.4,2.4,0,0,1,1.79,2.42,2.33,2.33,0,0,1-.75,1.79A2.82,2.82,0,0,1,30.82,557.37Z"/><path class="cls-1" d="M40.39,557.41a4.17,4.17,0,0,1-3.06-1.26,4.57,4.57,0,0,1,0-6.3,4.35,4.35,0,0,1,6.12,0,4.54,4.54,0,0,1,0,6.3A4.17,4.17,0,0,1,40.39,557.41Zm-2.22-2.08a3.08,3.08,0,0,0,4.45,0,3.4,3.4,0,0,0,0-4.65,3,3,0,0,0-2.23-1,3,3,0,0,0-2.22,1,3.4,3.4,0,0,0,0,4.65Zm1.43-7.48a.56.56,0,0,1-.43.19.55.55,0,0,1-.42-.19.71.71,0,0,1,0-.92.55.55,0,0,1,.42-.19.56.56,0,0,1,.43.19.71.71,0,0,1,0,.92Zm2.36,0a.56.56,0,0,1-.43.19.54.54,0,0,1-.42-.19.71.71,0,0,1,0-.92.54.54,0,0,1,.42-.19.56.56,0,0,1,.43.19.71.71,0,0,1,0,.92Z"/><path class="cls-1" d="M47.7,557.26v-8.51h.83l4.61,5.86v-5.86h1.19v8.51h-.66l-4.78-6.07v6.07Z"/><path class="cls-1" d="M57.88,557.26v-8.51h2.28a4.29,4.29,0,0,1,3,7.3,4.17,4.17,0,0,1-3,1.21Zm2.32-7.37H59.07v6.24h1.17a2.75,2.75,0,0,0,2.09-.92,3.11,3.11,0,0,0,.85-2.22,3,3,0,0,0-.88-2.21A2.84,2.84,0,0,0,60.2,549.89Z"/><path class="cls-1" d="M66.05,557.26l3.42-8.51h1.07l3.35,8.51H72.58L72.06,556H67.89l-.52,1.31Zm4-6.55-1.65,4.11h3.27Z"/><path class="cls-1" d="M81.4,553.56v-1.13h2.82V553a4.37,4.37,0,0,1-4.4,4.38,4.15,4.15,0,0,1-3.1-1.27,4.6,4.6,0,0,1,0-6.28,4.15,4.15,0,0,1,3.1-1.27,4.64,4.64,0,0,1,1.79.35,4.49,4.49,0,0,1,1.46,1l-.88.89a3,3,0,0,0-2.37-1.1,3,3,0,0,0-2.25,1,3.44,3.44,0,0,0,0,4.64,3,3,0,0,0,2.25,1,3,3,0,0,0,2-.75,3.19,3.19,0,0,0,1.08-2Z"/><path class="cls-1" d="M93.68,557.39a2.61,2.61,0,0,1-1.85-.72,2.37,2.37,0,0,1-.8-1.73h1.19a1.28,1.28,0,0,0,.44.93,1.51,1.51,0,0,0,2,0,1.33,1.33,0,0,0,.43-1,1.42,1.42,0,0,0-1.45-1.45H93.2v-1.06h.48a1.3,1.3,0,0,0,1-.4,1.3,1.3,0,0,0,0-1.88,1.33,1.33,0,0,0-1-.38,1.35,1.35,0,0,0-1,.39,1.3,1.3,0,0,0-.39,1H91.12a2.18,2.18,0,0,1,.74-1.7,2.76,2.76,0,0,1,3.66,0,2.25,2.25,0,0,1,.74,1.7,1.91,1.91,0,0,1-.36,1.14.77.77,0,1,0,0,1.48,2.06,2.06,0,0,1,.37,1.23,2.44,2.44,0,0,1-.77,1.8A2.61,2.61,0,0,1,93.68,557.39Z"/><path class="cls-1" d="M103.75,557.26v-8.51h4.64v1.14h-3.45v2.67h3v1.13h-3v3.57Z"/><path class="cls-1" d="M115.72,553.53h-3.5v2.6H116v1.13H111v-8.51h4.86v1.14h-3.67v2.51h3.5Z"/><path class="cls-1" d="M118.91,557.26v-8.51h2.6a2.7,2.7,0,0,1,1.87.66,2.2,2.2,0,0,1,.74,1.72,1.32,1.32,0,0,0-.1,2.59,2,2,0,0,1,.34,1.14,2.2,2.2,0,0,1-.74,1.74,2.76,2.76,0,0,1-1.9.66Zm2.48-7.37h-1.3v2.58h1.52a1.28,1.28,0,0,0,.94-.37,1.3,1.3,0,0,0,.38-1,1.08,1.08,0,0,0-.42-.89A1.74,1.74,0,0,0,121.39,549.89Zm.26,3.64h-1.56v2.6h1.48a1.74,1.74,0,0,0,1.17-.37,1.28,1.28,0,0,0,0-1.88A1.66,1.66,0,0,0,121.65,553.53Z"/><path class="cls-1" d="M127.34,557.26v-8.51h3.16a2.62,2.62,0,0,1,1.91.75,2.51,2.51,0,0,1,.77,1.92,2.51,2.51,0,0,1-2.26,2.6l2.46,3.24h-1.46L129.48,554h-.95v3.25Zm3-7.37h-1.81V553h1.8a1.72,1.72,0,0,0,1.2-.42,1.53,1.53,0,0,0,0-2.21A1.7,1.7,0,0,0,130.34,549.89Z"/><path class="cls-1" d="M139.05,557.4a3,3,0,0,1-2.22-.89,3.1,3.1,0,0,1-.86-2.24v-5.52h1.19v5.44a2.19,2.19,0,0,0,.5,1.49,1.75,1.75,0,0,0,1.39.59,1.77,1.77,0,0,0,1.41-.58,2.16,2.16,0,0,0,.51-1.49v-5.45h1.19v5.52a3.07,3.07,0,0,1-.87,2.24A3,3,0,0,1,139.05,557.4Z"/><path class="cls-1" d="M144.22,557.26l3.41-8.51h1.08l3.34,8.51h-1.31l-.51-1.31h-4.17l-.53,1.31Zm3.95-6.55-1.66,4.11h3.27Z"/><path class="cls-1" d="M154.41,557.26v-8.51h3.16a2.66,2.66,0,0,1,1.92.75A2.63,2.63,0,0,1,158,554l2.46,3.24H159L156.55,554h-1v3.25Zm3-7.37H155.6V553h1.8a1.72,1.72,0,0,0,1.2-.42,1.53,1.53,0,0,0,0-2.21A1.68,1.68,0,0,0,157.41,549.89Z"/><path class="cls-1" d="M163.24,557.26v-8.51h1.18v8.51Z"/><path class="cls-1" d="M172.51,557.26v-8.51h1.19v4l3.54-4h1.59l-3,3.38,3.08,5.13h-1.47L175,553.11l-1.26,1.42v2.73Z"/><path class="cls-1" d="M181.5,557.26v-8.51h1.18v7.38h3.5v1.13Z"/><path class="cls-1" d="M194.36,557.26v-7l-1.6.82V550l2.26-1.24h.52v8.55Z"/><path class="cls-1" d="M198.22,555.31v-.75l2.95-5.81h1.25l-2.8,5.5h1.84v-1.42h1.19v1.42h1v1.06h-1v2h-1.19v-2Z"/><path class="cls-1" d="M205.93,553.55v-1h3.32v1Z"/><path class="cls-1" d="M212.47,557.26v-7l-1.59.82V550l2.25-1.24h.53v8.55Z"/><path class="cls-1" d="M219.4,557.39a2.56,2.56,0,0,1-1.87-.75,2.44,2.44,0,0,1-.76-1.79v-3.6a2.55,2.55,0,0,1,.76-1.9,2.6,2.6,0,0,1,1.88-.74,2.56,2.56,0,0,1,1.8.67,2.22,2.22,0,0,1,.73,1.74h-1.19a1.29,1.29,0,0,0-1.35-1.35,1.4,1.4,0,0,0-1,.42,1.54,1.54,0,0,0-.41,1.1V553a1.86,1.86,0,0,1,1.47-.67,2.56,2.56,0,0,1,1.86.73,2.39,2.39,0,0,1,.75,1.79,2.44,2.44,0,0,1-.77,1.8A2.61,2.61,0,0,1,219.4,557.39Zm0-1.06a1.37,1.37,0,0,0,1-.44,1.5,1.5,0,0,0,0-2.08,1.43,1.43,0,0,0-1-.42,1.43,1.43,0,0,0-1.42,1.46,1.48,1.48,0,0,0,.41,1A1.31,1.31,0,0,0,219.4,556.33Z"/></svg>