<svg id="Layer_1" data-name="Layer 1" xmlns="http://www.w3.org/2000/svg" viewBox="0 0 250 720"><defs><style>.cls-1{fill:#d80201;}</style></defs><title>text</title><path class="cls-1" d="M32.71,525.22a3.74,3.74,0,0,1-2.56.74H27.49V515.28h1.92a3.68,3.68,0,0,1,2.42.67,2.89,2.89,0,0,1,1,2.22,2.45,2.45,0,0,1-1.06,2.08,2.67,2.67,0,0,1,2,2.69A2.92,2.92,0,0,1,32.71,525.22Zm-3.11-8.82h-.93V520h.9a2.22,2.22,0,0,0,1.52-.4,1.8,1.8,0,0,0,.56-1.39C31.66,516.86,30.82,516.4,29.61,516.4Zm2.1,4.93A3.42,3.42,0,0,0,30,521H28.68v3.84h1.49a2.6,2.6,0,0,0,1.75-.46,1.88,1.88,0,0,0,.69-1.47A1.83,1.83,0,0,0,31.7,521.33Z"/><path class="cls-1" d="M36.25,517.61a.82.82,0,1,1,.82-.82A.82.82,0,0,1,36.25,517.61Zm-.58,12.08V519.31h1.14V529.7Z"/><path class="cls-1" d="M42.09,526.14a3.5,3.5,0,1,1,3.51-3.49A3.47,3.47,0,0,1,42.09,526.14Zm0-6a2.46,2.46,0,1,0,2.35,2.46A2.33,2.33,0,0,0,42.07,520.19Zm-1.38-2.24a.81.81,0,0,1-.8-.8.8.8,0,1,1,.8.8Zm2.79,0a.81.81,0,0,1-.8-.8.8.8,0,1,1,.8.8Z"/><path class="cls-1" d="M50.46,520.46a1,1,0,0,0-.67-.22,1.23,1.23,0,0,0-.58.14c-.74.4-.74,1.34-.74,2.07V526H47.33v-6.64h1.14V520a1.78,1.78,0,0,1,1.5-.88,1.89,1.89,0,0,1,1,.27Z"/><path class="cls-1" d="M56.17,526l-2.69-3-.29.29V526H52.05V514.28h1.14v7.48l2.42-2.45h1.52l-2.85,2.82L57.66,526Z"/><path class="cls-1" d="M63,526v-4c0-1-.24-1.73-1.38-1.73-1.49,0-1.68,1.25-1.68,2.45V526H58.79V514.28h1.14v5.79a2.35,2.35,0,0,1,1.9-.93,2.31,2.31,0,0,1,1.9.91,3.12,3.12,0,0,1,.38,1.78V526Z"/><path class="cls-1" d="M71.37,526V525a2.84,2.84,0,0,1-2.31,1.12,3.29,3.29,0,0,1-3.2-3.54A3.23,3.23,0,0,1,69,519.15a2.81,2.81,0,0,1,2.32,1.1v-.94H72.5V526Zm-2.15-5.78A2.26,2.26,0,0,0,67,522.61a2.29,2.29,0,0,0,2.19,2.5,2.27,2.27,0,0,0,2.21-2.5A2.24,2.24,0,0,0,69.22,520.17Z"/><path class="cls-1" d="M80.26,528.42a3.22,3.22,0,0,1-2.66,1.23,3,3,0,0,1-3.23-3h1.14a2,2,0,0,0,2.11,2c1.6,0,2.13-1.2,2.13-2.62v-1a3,3,0,0,1-2.34,1.1,3.5,3.5,0,0,1,0-7,2.84,2.84,0,0,1,2.29,1.09v-.93H80.9v6.5A4,4,0,0,1,80.26,528.42Zm-2.67-8.24a2.28,2.28,0,0,0-2.18,2.51,2.24,2.24,0,0,0,2.18,2.42,2.48,2.48,0,0,0,0-4.93Z"/><path class="cls-1" d="M84.87,526.14a2.37,2.37,0,0,1-2.32-1.7l1-.42c.27.59.64,1.07,1.34,1.07a1,1,0,0,0,1.09-1c0-1.44-3-1-3-3.06a1.87,1.87,0,0,1,1.94-1.86,2,2,0,0,1,1.82,1.2l-.94.5a1.06,1.06,0,0,0-.93-.66.79.79,0,0,0-.8.74c0,1.17,3.07.86,3.07,3A2.18,2.18,0,0,1,84.87,526.14Z"/><path class="cls-1" d="M91,526.38l-3.27-7.08H89l2,4.47,2-4.47h1.28Z"/><path class="cls-1" d="M100.52,526V525a2.84,2.84,0,0,1-2.31,1.12,3.29,3.29,0,0,1-3.2-3.54,3.23,3.23,0,0,1,3.19-3.46,2.81,2.81,0,0,1,2.32,1.1v-.94h1.14V526Zm-2.15-5.78a2.26,2.26,0,0,0-2.19,2.43,2.29,2.29,0,0,0,2.19,2.5,2.27,2.27,0,0,0,2.21-2.5A2.24,2.24,0,0,0,98.37,520.17ZM97,517.95a.81.81,0,0,1-.8-.8.8.8,0,1,1,.8.8Zm2.79,0a.81.81,0,0,1-.8-.8.8.8,0,1,1,.8.8Z"/><path class="cls-1" d="M109.42,528.42a3.22,3.22,0,0,1-2.66,1.23,3,3,0,0,1-3.23-3h1.14a2,2,0,0,0,2.11,2c1.6,0,2.13-1.2,2.13-2.62v-1a3,3,0,0,1-2.34,1.1,3.5,3.5,0,0,1,0-7,2.84,2.84,0,0,1,2.29,1.09v-.93h1.15v6.5A4,4,0,0,1,109.42,528.42Zm-2.67-8.24a2.28,2.28,0,0,0-2.18,2.51,2.24,2.24,0,0,0,2.18,2.42,2.48,2.48,0,0,0,0-4.93Z"/><path class="cls-1" d="M113,522.86a2.15,2.15,0,0,0,2.11,2.24,2.29,2.29,0,0,0,2-1.38l1,.53a3.32,3.32,0,0,1-3,1.89,3.51,3.51,0,0,1-.06-7c2,0,3.17,1.57,3.17,3.49v.22Zm2-2.67a2,2,0,0,0-2,1.71H117A2,2,0,0,0,115,520.19Z"/><path class="cls-1" d="M124.1,526V522c0-1-.14-1.86-1.39-1.86-1.47,0-1.65,1.28-1.65,2.45V526h-1.14v-6.64h1.14v.8a2.41,2.41,0,0,1,3.81,0,3,3,0,0,1,.38,1.76V526Z"/><path class="cls-1" d="M135.75,522.35l-2.19,2.5H138V526h-6.9l3.89-4.5c.72-.83,1.84-2,1.84-3.18a2.13,2.13,0,0,0-4.26.13h-1.2a4.4,4.4,0,0,1,.22-1.2,3.33,3.33,0,0,1,6.42,1.09C138.06,519.89,136.74,521.23,135.75,522.35Z"/><path class="cls-1" d="M146.38,524.21V526h-1.18v-1.74h-5.47l6.66-9.52v8.44h1.31v1.09Zm-1.18-5.91-3.38,4.82h3.38Z"/><path class="cls-1" d="M149.62,528.39l-.75-.3,1.31-3.7,1.06.38Z"/><path class="cls-1" d="M160.21,526.14a3.26,3.26,0,0,1-3.3-2.75l1.15-.32a2.17,2.17,0,0,0,2.18,2,2.11,2.11,0,0,0,2.14-2.11c0-2.51-4.93-1.92-4.93-5.06a2.82,2.82,0,0,1,3-2.75,3,3,0,0,1,2.75,1.67l-.94.62a2,2,0,0,0-1.82-1.17,1.69,1.69,0,0,0-1.78,1.63c0,2.21,4.93,1.57,4.93,5A3.29,3.29,0,0,1,160.21,526.14Z"/><path class="cls-1" d="M166.05,517.61a.82.82,0,1,1,.82-.82A.82.82,0,0,1,166.05,517.61Zm-.58,12.08V519.31h1.14V529.7Z"/><path class="cls-1" d="M171.89,526.14a3.5,3.5,0,1,1,3.51-3.49A3.47,3.47,0,0,1,171.89,526.14Zm0-6a2.46,2.46,0,1,0,2.35,2.46A2.33,2.33,0,0,0,171.88,520.19Zm-1.38-2.24a.81.81,0,0,1-.8-.8.8.8,0,1,1,.8.8Zm2.79,0a.81.81,0,0,1-.8-.8.8.8,0,1,1,.8.8Z"/><path class="cls-1" d="M184.71,526v-4c0-.85-.14-1.75-1.2-1.75s-1.42,1.12-1.42,2.08V526h-1.14V522c0-.83-.18-1.84-1.22-1.84a1.37,1.37,0,0,0-1.2.72,3.15,3.15,0,0,0-.26,1.44V526h-1.14v-6.64h1.14v.7a1.89,1.89,0,0,1,1.65-.86,2,2,0,0,1,1.82,1.07,2.26,2.26,0,0,1,3.73-.18,3.11,3.11,0,0,1,.37,1.7V526Z"/><path class="cls-1" d="M193.09,526V525a2.84,2.84,0,0,1-2.31,1.12,3.29,3.29,0,0,1-3.2-3.54,3.23,3.23,0,0,1,3.19-3.46,2.81,2.81,0,0,1,2.32,1.1v-.94h1.14V526Zm-2.15-5.78a2.26,2.26,0,0,0-2.19,2.43,2.29,2.29,0,0,0,2.19,2.5,2.27,2.27,0,0,0,2.21-2.5A2.24,2.24,0,0,0,190.95,520.17Z"/><path class="cls-1" d="M199.52,520.46a1,1,0,0,0-.67-.22,1.23,1.23,0,0,0-.58.14c-.74.4-.74,1.34-.74,2.07V526H196.4v-6.64h1.14V520a1.77,1.77,0,0,1,1.5-.88,1.89,1.89,0,0,1,1,.27Z"/><path class="cls-1" d="M205.24,526l-2.69-3-.29.29V526h-1.14V514.28h1.14v7.48l2.42-2.45h1.52l-2.85,2.82,3.38,3.83Z"/><path class="cls-1" d="M208.28,522.86a2.15,2.15,0,0,0,2.11,2.24,2.29,2.29,0,0,0,2-1.38l1,.53a3.32,3.32,0,0,1-3,1.89,3.51,3.51,0,0,1-.06-7c2,0,3.17,1.57,3.17,3.49v.22Zm2-2.67a2,2,0,0,0-2,1.71h3.91A2,2,0,0,0,210.33,520.19Z"/><path class="cls-1" d="M219.38,526V522c0-1-.14-1.86-1.39-1.86-1.47,0-1.65,1.28-1.65,2.45V526H215.2v-6.64h1.14v.8a2.24,2.24,0,0,1,1.92-1,2.27,2.27,0,0,1,1.89.91,3,3,0,0,1,.38,1.76V526Z"/><path class="cls-1" d="M38.27,552.14a3.26,3.26,0,0,1-3.3-2.75l1.15-.32a2.17,2.17,0,0,0,2.18,2,2.11,2.11,0,0,0,2.14-2.11c0-2.51-4.93-1.92-4.93-5.06a2.82,2.82,0,0,1,3-2.75,3,3,0,0,1,2.75,1.67l-.94.62a2,2,0,0,0-1.82-1.17,1.69,1.69,0,0,0-1.78,1.63c0,2.21,4.93,1.57,4.93,5A3.29,3.29,0,0,1,38.27,552.14Z"/><path class="cls-1" d="M46.62,552.14a3.5,3.5,0,1,1,3.51-3.49A3.47,3.47,0,0,1,46.62,552.14Zm0-6A2.46,2.46,0,1,0,49,548.66,2.33,2.33,0,0,0,46.61,546.19Zm-1.38-2.24a.81.81,0,0,1-.8-.8.8.8,0,1,1,.8.8Zm2.79,0a.81.81,0,0,1-.8-.8.8.8,0,1,1,.8.8Z"/><path class="cls-1" d="M56,552V548c0-1-.14-1.86-1.39-1.86-1.47,0-1.65,1.28-1.65,2.45V552H51.87v-6.64H53v.8a2.24,2.24,0,0,1,1.92-1,2.27,2.27,0,0,1,1.89.91,3,3,0,0,1,.38,1.76V552Z"/><path class="cls-1" d="M64.45,552V551a2.84,2.84,0,0,1-2.31,1.12,3.29,3.29,0,0,1-3.2-3.52,3.25,3.25,0,0,1,3.19-3.47,2.85,2.85,0,0,1,2.32,1.1v-6h1.14V552Zm-2.15-5.76a2.47,2.47,0,1,0,2.21,2.42A2.23,2.23,0,0,0,62.3,546.19Z"/><path class="cls-1" d="M72.83,552V551a2.84,2.84,0,0,1-2.31,1.12,3.29,3.29,0,0,1-3.2-3.54,3.23,3.23,0,0,1,3.19-3.46,2.81,2.81,0,0,1,2.32,1.1v-.94H74V552Zm-2.15-5.78a2.26,2.26,0,0,0-2.19,2.43,2.29,2.29,0,0,0,2.19,2.5,2.27,2.27,0,0,0,2.21-2.5A2.24,2.24,0,0,0,70.69,546.17Z"/><path class="cls-1" d="M81.73,554.42a3.22,3.22,0,0,1-2.66,1.23,3,3,0,0,1-3.23-3H77a2,2,0,0,0,2.11,2c1.6,0,2.13-1.2,2.13-2.62v-1a3,3,0,0,1-2.34,1.1,3.5,3.5,0,0,1,0-7,2.84,2.84,0,0,1,2.29,1.09v-.93h1.15v6.5A4,4,0,0,1,81.73,554.42Zm-2.67-8.24a2.28,2.28,0,0,0-2.18,2.51,2.24,2.24,0,0,0,2.18,2.42,2.48,2.48,0,0,0,0-4.93Z"/><path class="cls-1" d="M92.86,548.35l-2.19,2.5h4.48V552h-6.9l3.89-4.5c.72-.83,1.84-2,1.84-3.18a2.13,2.13,0,0,0-4.26.13h-1.2a4.42,4.42,0,0,1,.22-1.2,3.33,3.33,0,0,1,6.42,1.09C95.17,545.89,93.86,547.23,92.86,548.35Z"/><path class="cls-1" d="M100.77,552V542.4H99l.62-1.12H102V552Z"/><path class="cls-1" d="M111.26,543.61a.82.82,0,1,1,.82-.82A.82.82,0,0,1,111.26,543.61Zm-.58,12.08V545.31h1.14V555.7Z"/><path class="cls-1" d="M119.09,552V551a2.84,2.84,0,0,1-2.31,1.12,3.29,3.29,0,0,1-3.2-3.54,3.23,3.23,0,0,1,3.19-3.46,2.81,2.81,0,0,1,2.32,1.1v-.94h1.14V552Zm-2.15-5.78a2.26,2.26,0,0,0-2.19,2.43,2.29,2.29,0,0,0,2.19,2.5,2.27,2.27,0,0,0,2.21-2.5A2.24,2.24,0,0,0,116.94,546.17Z"/><path class="cls-1" d="M126.58,552V548c0-1-.14-1.86-1.39-1.86-1.47,0-1.65,1.28-1.65,2.45V552H122.4v-6.64h1.14v.8a2.24,2.24,0,0,1,1.92-1,2.27,2.27,0,0,1,1.89.91,3,3,0,0,1,.38,1.76V552Z"/><path class="cls-1" d="M134.58,551.31a2.9,2.9,0,0,1-4.07,0,2.72,2.72,0,0,1-.61-2v-4H131v3.87a2.54,2.54,0,0,0,.21,1.25,1.57,1.57,0,0,0,2.58,0,2.58,2.58,0,0,0,.21-1.25v-3.87h1.14v4A2.71,2.71,0,0,1,134.58,551.31Z"/><path class="cls-1" d="M142.42,552V551a2.84,2.84,0,0,1-2.31,1.12,3.29,3.29,0,0,1-3.2-3.54,3.23,3.23,0,0,1,3.19-3.46,2.81,2.81,0,0,1,2.32,1.1v-.94h1.14V552Zm-2.15-5.78a2.26,2.26,0,0,0-2.19,2.43,2.29,2.29,0,0,0,2.19,2.5,2.27,2.27,0,0,0,2.21-2.5A2.24,2.24,0,0,0,140.27,546.17Z"/><path class="cls-1" d="M148.85,546.46a1,1,0,0,0-.67-.22,1.23,1.23,0,0,0-.58.14c-.74.4-.74,1.34-.74,2.07V552h-1.14v-6.64h1.14V546a1.77,1.77,0,0,1,1.5-.88,1.89,1.89,0,0,1,1,.27Z"/><path class="cls-1" d="M151,543.61a.82.82,0,1,1,.82-.82A.82.82,0,0,1,151,543.61Zm-.58,8.34v-6.64h1.14V552Z"/><path class="cls-1" d="M153.82,554.39l-.75-.3,1.31-3.7,1.06.38Z"/><path class="cls-1" d="M165.52,552l-2.69-3-.29.29V552H161.4V540.28h1.14v7.48l2.42-2.45h1.52l-2.85,2.82L167,552Z"/><path class="cls-1" d="M168.14,552V540.28h1.14V552Z"/><path class="cls-1" d="M178.61,552V542.4h-1.78l.63-1.12h2.34V552Z"/><path class="cls-1" d="M188.85,548.35l-2.19,2.5h4.48V552h-6.9l3.89-4.5c.72-.83,1.84-2,1.84-3.18a2.13,2.13,0,0,0-4.26.13h-1.2a4.44,4.44,0,0,1,.22-1.2,3.33,3.33,0,0,1,6.42,1.09C191.15,545.89,189.84,547.23,188.85,548.35Z"/><path class="cls-1" d="M192.51,549.06v-1h2.9v1Z"/><path class="cls-1" d="M199.64,552V542.4h-1.78l.62-1.12h2.34V552Z"/><path class="cls-1" d="M211.44,550.21V552h-1.18v-1.74h-5.47l6.66-9.52v8.44h1.31v1.09Zm-1.18-5.91-3.38,4.82h3.38Z"/></svg>