<svg id="Layer_1" data-name="Layer 1" xmlns="http://www.w3.org/2000/svg" viewBox="0 0 250 720"><defs><style>.cls-1{fill:#d4ac76;}</style></defs><title>text</title><path class="cls-1" d="M12,537.26,8.4,528H9.85l2.78,7.13L15.42,528h1.43l-3.63,9.28Z"/><path class="cls-1" d="M24.57,537.26V528H25.9l3,4.94,3-4.94H33.2v9.28H31.9v-6.85l0,0-3,4.79L26,530.45h-.08v6.81Z"/><path class="cls-1" d="M41.08,537.43a4.56,4.56,0,0,1-3.34-1.37,5,5,0,0,1,0-6.88,4.74,4.74,0,0,1,6.68,0,4.95,4.95,0,0,1,0,6.87A4.56,4.56,0,0,1,41.08,537.43Zm-2.43-2.28a3.36,3.36,0,0,0,4.86,0,3.71,3.71,0,0,0,0-5.07,3.33,3.33,0,0,0-4.85,0,3.72,3.72,0,0,0,0,5.07ZM40.21,527a.61.61,0,0,1-.46.2.59.59,0,0,1-.46-.2.78.78,0,0,1,0-1,.59.59,0,0,1,.46-.2.61.61,0,0,1,.46.2.76.76,0,0,1,0,1Zm2.57,0a.62.62,0,0,1-.92,0,.77.77,0,0,1,0-1,.62.62,0,0,1,.92,0,.77.77,0,0,1,0,1Z"/><path class="cls-1" d="M49.05,537.26V528h1.3v8h3.82v1.24Z"/><path class="cls-1" d="M57,537.26V528h1.3v8h3.82v1.24Z"/><path class="cls-1" d="M70.08,533.19H66.26V536h4.08v1.24H65V528h5.3v1.24h-4V532h3.82Z"/><path class="cls-1" d="M73.56,537.26V528H76a4.67,4.67,0,0,1,3.25,8A4.53,4.53,0,0,1,76,537.26Zm2.54-8H74.85V536h1.28a3,3,0,0,0,2.29-1,3.43,3.43,0,0,0,.93-2.43,3.3,3.3,0,0,0-1-2.41A3.09,3.09,0,0,0,76.09,529.22Z"/><path class="cls-1" d="M82.47,537.26,86.2,528h1.17L91,537.26H89.59L89,535.83H84.48l-.57,1.43Zm4.31-7.15L85,534.59h3.56Z"/><path class="cls-1" d="M93.6,537.26V528h1.3v8h3.82v1.24Z"/><path class="cls-1" d="M104,537.38a4.32,4.32,0,0,1-1.74-.37,4.57,4.57,0,0,1-1.47-1l.91-1.05a3.54,3.54,0,0,0,1.07.85,2.73,2.73,0,0,0,1.28.34,1.78,1.78,0,0,0,1.2-.39,1.24,1.24,0,0,0,.46-1,1.62,1.62,0,0,0-1.17-1.52l-1.1-.44a3.83,3.83,0,0,1-1.52-1,2.19,2.19,0,0,1-.5-1.47,2.33,2.33,0,0,1,.77-1.75,2.64,2.64,0,0,1,1.89-.73,3.78,3.78,0,0,1,2.69,1l-.78,1a2.56,2.56,0,0,0-1.91-.83,1.46,1.46,0,0,0-1,.32,1.07,1.07,0,0,0-.38.86,1,1,0,0,0,.28.72,2.57,2.57,0,0,0,.94.57L105,532a2.63,2.63,0,0,1,2,2.65,2.54,2.54,0,0,1-.82,2A3.11,3.11,0,0,1,104,537.38Z"/><path class="cls-1" d="M112.56,537.26,108.94,528h1.46l2.78,7.13L116,528h1.43l-3.63,9.28Z"/><path class="cls-1" d="M119.56,537.17a.75.75,0,0,1-.55.23.73.73,0,0,1-.55-.23.81.81,0,0,1,0-1.11.74.74,0,0,1,.55-.22.77.77,0,0,1,.55.22.79.79,0,0,1,0,1.11Z"/><path class="cls-1" d="M129.1,537.26v-7.62l-1.74.89v-1.24l2.46-1.36h.58v9.32Z"/><path class="cls-1" d="M133.32,535.13v-.82l3.23-6.34h1.36l-3.05,6h2v-1.56h1.3V534h1.12v1.15h-1.12v2.12h-1.3v-2.12Z"/><path class="cls-1" d="M141.19,537.26l3.72-9.28h1.17l3.65,9.28H148.3l-.56-1.43H143.2l-.57,1.43Zm4.31-7.15-1.8,4.48h3.56Z"/><path class="cls-1" d="M151.69,539l1.07-3,1.19.42-1.46,2.86Z"/><path class="cls-1" d="M167.9,537.26v-4h-4.51v4h-1.3V528h1.3v4h4.51v-4h1.3v9.28Z"/><path class="cls-1" d="M177.13,537.43a4.56,4.56,0,0,1-3.34-1.37,5,5,0,0,1,0-6.88,4.74,4.74,0,0,1,6.68,0,4.95,4.95,0,0,1,0,6.87A4.56,4.56,0,0,1,177.13,537.43Zm-2.43-2.28a3.36,3.36,0,0,0,4.86,0,3.71,3.71,0,0,0,0-5.07,3.33,3.33,0,0,0-4.85,0,3.72,3.72,0,0,0,0,5.07Zm1.56-8.15a.61.61,0,0,1-.46.2.59.59,0,0,1-.46-.2.78.78,0,0,1,0-1,.59.59,0,0,1,.46-.2.61.61,0,0,1,.46.2.76.76,0,0,1,0,1Zm2.57,0a.62.62,0,0,1-.92,0,.77.77,0,0,1,0-1,.62.62,0,0,1,.92,0,.77.77,0,0,1,0,1Z"/><path class="cls-1" d="M185.11,537.26V528h1.3v8h3.82v1.24Z"/><path class="cls-1" d="M193.06,537.26V528h1.3v8h3.82v1.24Z"/><path class="cls-1" d="M202.32,537.26,198.7,528h1.46l2.78,7.13,2.78-7.13h1.43l-3.63,9.28Z"/><path class="cls-1" d="M209.71,537.26V528H211v9.28Z"/><path class="cls-1" d="M214.81,537.26V528h1.3v4.4L220,528h1.74l-3.27,3.68,3.36,5.6h-1.61l-2.7-4.53-1.38,1.55v3Z"/><path class="cls-1" d="M229.72,533.19h-3.82V536H230v1.24h-5.38V528h5.3v1.24h-4V532h3.82Z"/><path class="cls-1" d="M233.2,537.26V528h.9l5,6.39V528h1.3v9.28h-.72l-5.21-6.62v6.62Z"/><path class="cls-1" d="M21.63,557.38a4.32,4.32,0,0,1-1.74-.37,4.57,4.57,0,0,1-1.47-1l.91-1.05a3.54,3.54,0,0,0,1.07.85,2.73,2.73,0,0,0,1.28.34,1.78,1.78,0,0,0,1.2-.39,1.24,1.24,0,0,0,.46-1,1.62,1.62,0,0,0-1.17-1.52l-1.1-.44a3.83,3.83,0,0,1-1.52-1,2.19,2.19,0,0,1-.5-1.47,2.33,2.33,0,0,1,.77-1.75,2.64,2.64,0,0,1,1.89-.73,3.78,3.78,0,0,1,2.69,1l-.78,1a2.56,2.56,0,0,0-1.91-.83,1.46,1.46,0,0,0-1,.32,1.07,1.07,0,0,0-.38.86,1,1,0,0,0,.28.72,2.57,2.57,0,0,0,.94.57l1.12.45a2.63,2.63,0,0,1,2,2.65,2.54,2.54,0,0,1-.82,2A3.11,3.11,0,0,1,21.63,557.38Z"/><path class="cls-1" d="M32.07,557.43a4.56,4.56,0,0,1-3.34-1.37,5,5,0,0,1,0-6.88,4.74,4.74,0,0,1,6.68,0,4.95,4.95,0,0,1,0,6.87A4.56,4.56,0,0,1,32.07,557.43Zm-2.43-2.28a3.36,3.36,0,0,0,4.86,0,3.71,3.71,0,0,0,0-5.07,3.33,3.33,0,0,0-4.85,0,3.72,3.72,0,0,0,0,5.07ZM31.2,547a.61.61,0,0,1-.46.2.59.59,0,0,1-.46-.2.78.78,0,0,1,0-1,.59.59,0,0,1,.46-.2.61.61,0,0,1,.46.2.76.76,0,0,1,0,1Zm2.57,0a.62.62,0,0,1-.92,0,.77.77,0,0,1,0-1,.62.62,0,0,1,.92,0,.77.77,0,0,1,0,1Z"/><path class="cls-1" d="M40,557.26V548h.9l5,6.39V548h1.3v9.28h-.72l-5.21-6.62v6.62Z"/><path class="cls-1" d="M51.14,557.26V548h2.49a4.67,4.67,0,0,1,3.25,8,4.53,4.53,0,0,1-3.29,1.32Zm2.54-8H52.44V556h1.28A3,3,0,0,0,56,555a3.43,3.43,0,0,0,.93-2.43,3.3,3.3,0,0,0-1-2.41A3.09,3.09,0,0,0,53.68,549.22Z"/><path class="cls-1" d="M60.06,557.26,63.78,548H65l3.65,9.28H67.17l-.56-1.43H62.07l-.57,1.43Zm4.31-7.15-1.8,4.48h3.56Z"/><path class="cls-1" d="M76.8,553.23V552h3.08v.65a4.77,4.77,0,0,1-4.8,4.78A4.54,4.54,0,0,1,71.7,556a5,5,0,0,1,0-6.85,4.54,4.54,0,0,1,3.38-1.39,5,5,0,0,1,2,.38,4.75,4.75,0,0,1,1.59,1.07l-1,1a3.28,3.28,0,0,0-2.58-1.2,3.23,3.23,0,0,0-2.46,1,3.74,3.74,0,0,0,0,5.06,3.24,3.24,0,0,0,2.46,1,3.3,3.3,0,0,0,2.23-.81,3.51,3.51,0,0,0,1.17-2.14Z"/><path class="cls-1" d="M89.14,557.26v-7.62l-1.74.89v-1.24l2.46-1.36h.58v9.32Z"/><path class="cls-1" d="M95.13,557.26v-7.62l-1.74.89v-1.24l2.46-1.36h.58v9.32Z"/><path class="cls-1" d="M105.08,557.26V548h5.06v1.24h-3.77v2.92h3.34v1.24h-3.34v3.89Z"/><path class="cls-1" d="M118.14,553.19h-3.82V556h4.08v1.24H113V548h5.3v1.24h-4V552h3.82Z"/><path class="cls-1" d="M121.62,557.26V548h2.84a3,3,0,0,1,2,.72,2.39,2.39,0,0,1,.81,1.88,2.19,2.19,0,0,1-1.1,2,2.36,2.36,0,0,1,1,.83,2.17,2.17,0,0,1,.37,1.25,2.4,2.4,0,0,1-.81,1.9,3,3,0,0,1-2.07.71Zm2.71-8h-1.41V552h1.65a1.4,1.4,0,0,0,1-.41,1.43,1.43,0,0,0,.42-1.06,1.19,1.19,0,0,0-.46-1A1.91,1.91,0,0,0,124.32,549.22Zm.29,4h-1.7V556h1.61a1.92,1.92,0,0,0,1.28-.4,1.32,1.32,0,0,0,.47-1.06,1.27,1.27,0,0,0-.43-1A1.79,1.79,0,0,0,124.61,553.19Z"/><path class="cls-1" d="M130.82,557.26V548h3.44a2.9,2.9,0,0,1,2.09.81,2.87,2.87,0,0,1-1.63,4.94l2.69,3.53h-1.6l-2.66-3.54h-1v3.54Zm3.27-8h-2v3.35h2a1.88,1.88,0,0,0,1.31-.46,1.68,1.68,0,0,0,0-2.41A1.81,1.81,0,0,0,134.09,549.22Z"/><path class="cls-1" d="M143.59,557.41a3.23,3.23,0,0,1-2.42-1,3.36,3.36,0,0,1-.95-2.45v-6h1.3v5.93a2.39,2.39,0,0,0,.55,1.62,1.9,1.9,0,0,0,1.52.64,2,2,0,0,0,1.53-.63,2.35,2.35,0,0,0,.56-1.62V548H147v6a3.37,3.37,0,0,1-.94,2.45A3.26,3.26,0,0,1,143.59,557.41Z"/><path class="cls-1" d="M149.23,557.26,153,548h1.17l3.65,9.28h-1.43l-.56-1.43h-4.55l-.57,1.43Zm4.31-7.15-1.8,4.48h3.56Z"/><path class="cls-1" d="M160.35,557.26V548h3.44a2.9,2.9,0,0,1,2.09.81,2.87,2.87,0,0,1-1.63,4.94l2.69,3.53h-1.6l-2.66-3.54h-1v3.54Zm3.27-8h-2v3.35h2a1.88,1.88,0,0,0,1.31-.46,1.68,1.68,0,0,0,0-2.41A1.81,1.81,0,0,0,163.62,549.22Z"/><path class="cls-1" d="M170,557.26V548h1.3v9.28Z"/><path class="cls-1" d="M180.09,557.26V548h1.3v4.4l3.86-4.4H187l-3.27,3.68,3.36,5.6h-1.61l-2.7-4.53-1.38,1.55v3Z"/><path class="cls-1" d="M189.9,557.26V548h1.3v8H195v1.24Z"/><path class="cls-1" d="M203.92,557.26v-7.62l-1.74.89v-1.24l2.46-1.36h.58v9.32Z"/><path class="cls-1" d="M209.91,557.26v-7.62l-1.74.89v-1.24l2.46-1.36h.58v9.32Z"/><path class="cls-1" d="M214.36,553.21v-1.15H218v1.15Z"/><path class="cls-1" d="M221.5,557.26v-7.62l-1.74.89v-1.24l2.46-1.36h.58v9.32Z"/><path class="cls-1" d="M228.54,557.4a2.85,2.85,0,0,1-2-.79,2.58,2.58,0,0,1-.86-1.89H227a1.35,1.35,0,0,0,.48,1,1.58,1.58,0,0,0,1.08.42,1.59,1.59,0,0,0,1.15-.45,1.48,1.48,0,0,0,.46-1.11,1.55,1.55,0,0,0-1.58-1.59H228v-1.15h.52a1.46,1.46,0,0,0,1.08-.43,1.45,1.45,0,0,0,0-2.06,1.51,1.51,0,0,0-1.09-.41,1.45,1.45,0,0,0-1.06.43,1.41,1.41,0,0,0-.43,1h-1.3a2.4,2.4,0,0,1,.8-1.85,3,3,0,0,1,4,0,2.45,2.45,0,0,1,.8,1.86,2.09,2.09,0,0,1-.39,1.24,2.18,2.18,0,0,1-1,.79,2.23,2.23,0,0,1,1.08.82,2.27,2.27,0,0,1,.41,1.34,2.62,2.62,0,0,1-.85,2A2.83,2.83,0,0,1,228.54,557.4Z"/></svg>