<svg id="Layer_1" data-name="Layer 1" xmlns="http://www.w3.org/2000/svg" viewBox="0 0 250 720"><defs><style>.cls-1{fill:#d4ac76;}</style></defs><title>text</title><path class="cls-1" d="M22.89,66.52a5.5,5.5,0,0,1-4,1.55,5.5,5.5,0,0,1-4-1.55,5.18,5.18,0,0,1-1.59-3.88V53.16H16v9.12a3.32,3.32,0,0,0,.76,2.26,2.57,2.57,0,0,0,2.09.89A2.59,2.59,0,0,0,21,64.55a3.26,3.26,0,0,0,.76-2.23V53.16h2.75v9.48A5.17,5.17,0,0,1,22.89,66.52Z"/><path class="cls-1" d="M29.4,67.84V53.16h5.27a5,5,0,0,1,5.1,5.07,4.68,4.68,0,0,1-1.49,3.54,5.15,5.15,0,0,1-3.66,1.4H32.15v4.67Zm5-12H32.15v4.92h2.32a2.58,2.58,0,0,0,1.84-.66,2.26,2.26,0,0,0,.7-1.75,2.42,2.42,0,0,0-.72-1.81A2.54,2.54,0,0,0,34.43,55.8Z"/><path class="cls-1" d="M43.82,67.84V53.16h5.27a5,5,0,0,1,5.1,5.07,4.68,4.68,0,0,1-1.49,3.54A5.15,5.15,0,0,1,49,63.17H46.57v4.67Zm5-12H46.57v4.92h2.32a2.58,2.58,0,0,0,1.84-.66,2.27,2.27,0,0,0,.71-1.75,2.43,2.43,0,0,0-.73-1.81A2.54,2.54,0,0,0,48.85,55.8Z"/><path class="cls-1" d="M58.24,67.84V53.16H61v12h5.4v2.64Z"/><path class="cls-1" d="M78.55,61.63H73.11v3.76h6v2.45H70.36V53.16h8.55v2.45h-5.8v3.57h5.44Z"/><path class="cls-1" d="M87.6,67.84,82,53.16h2.86l4,10.56,4-10.56h2.79L90.1,67.84Z"/><path class="cls-1" d="M105.64,55.8V53.16h12.1V55.8h-4.67v12h-2.75v-12Z"/><path class="cls-1" d="M121.26,67.84V53.16H127a4.93,4.93,0,0,1,3.53,1.33A4.55,4.55,0,0,1,132,58a4.39,4.39,0,0,1-1.06,3,4.65,4.65,0,0,1-2.74,1.56l4,5.33H129L125.2,62.6H124v5.24Zm5.32-12.23H124V60.4h2.56a2.7,2.7,0,0,0,1.91-.66,2.2,2.2,0,0,0,.71-1.69,2.28,2.28,0,0,0-.73-1.74A2.61,2.61,0,0,0,126.58,55.61Z"/><path class="cls-1" d="M136.25,67.84V53.16H139V67.84Z"/><path class="cls-1" d="M148,67.84l-5.61-14.68h2.86l4,10.56,4-10.56h2.79l-5.56,14.68Z"/><path class="cls-1" d="M162.92,68a7,7,0,0,1-2.77-.58,7.13,7.13,0,0,1-2.38-1.6l1.74-2.09a5.34,5.34,0,0,0,1.62,1.31,4.2,4.2,0,0,0,1.94.51,2.34,2.34,0,0,0,1.56-.5,1.59,1.59,0,0,0,.62-1.27,2.2,2.2,0,0,0-1.62-2L162,61.12a6.36,6.36,0,0,1-2.45-1.62,3.78,3.78,0,0,1-.78-2.5A3.82,3.82,0,0,1,160,54.21,4.25,4.25,0,0,1,163.13,53a6.32,6.32,0,0,1,4.52,1.67L166,56.71a3.78,3.78,0,0,0-2.9-1.27,2,2,0,0,0-1.32.42,1.32,1.32,0,0,0-.5,1,1.37,1.37,0,0,0,.39,1,3.92,3.92,0,0,0,1.26.76l1.71.68q3.27,1.32,3.33,4.24a4.13,4.13,0,0,1-1.38,3.22A5.37,5.37,0,0,1,162.92,68Z"/><path class="cls-1" d="M180.39,61.63H175v3.76h6v2.45H172.2V53.16h8.55v2.45H175v3.57h5.44Z"/><path class="cls-1" d="M185.38,67.84V53.16h2.76v12h5.4v2.64Z"/><path class="cls-1" d="M206.55,67.84V61.71h-6.29v6.13h-2.75V53.16h2.75v5.91h6.29V53.16h2.76V67.84Z"/><path class="cls-1" d="M223.87,66.52a6,6,0,0,1-8,0,5.17,5.17,0,0,1-1.58-3.88V53.16H217v9.12a3.32,3.32,0,0,0,.76,2.26,2.91,2.91,0,0,0,4.18,0,3.26,3.26,0,0,0,.76-2.23V53.16h2.76v9.48A5.18,5.18,0,0,1,223.87,66.52Z"/><path class="cls-1" d="M234.33,68a6.94,6.94,0,0,1-2.76-.58,7.13,7.13,0,0,1-2.38-1.6l1.74-2.09a5.34,5.34,0,0,0,1.62,1.31,4.2,4.2,0,0,0,1.94.51,2.34,2.34,0,0,0,1.56-.5,1.59,1.59,0,0,0,.62-1.27,2.2,2.2,0,0,0-1.62-2l-1.63-.65A6.36,6.36,0,0,1,231,59.5a3.78,3.78,0,0,1-.78-2.5,3.82,3.82,0,0,1,1.24-2.79A4.25,4.25,0,0,1,234.55,53a6.32,6.32,0,0,1,4.52,1.67l-1.62,2.05a3.78,3.78,0,0,0-2.9-1.27,2,2,0,0,0-1.32.42,1.32,1.32,0,0,0-.5,1,1.37,1.37,0,0,0,.39,1,3.92,3.92,0,0,0,1.26.76l1.71.68q3.27,1.32,3.33,4.24A4.13,4.13,0,0,1,238,66.8,5.38,5.38,0,0,1,234.33,68Z"/><path class="cls-1" d="M27.15,90.64,21.54,76h2.87l4,10.56,4-10.56h2.78L29.65,90.64Z"/><path class="cls-1" d="M38.68,90.64V76h2.75V90.64Z"/><path class="cls-1" d="M50.45,90.83a7,7,0,0,1-2.78-.58,7.19,7.19,0,0,1-2.37-1.6L47,86.55a5.23,5.23,0,0,0,1.62,1.32,4.2,4.2,0,0,0,1.94.51,2.39,2.39,0,0,0,1.56-.5,1.58,1.58,0,0,0,.61-1.27,2.19,2.19,0,0,0-1.61-2l-1.63-.65a6.36,6.36,0,0,1-2.45-1.62A4,4,0,0,1,47.54,77a4.25,4.25,0,0,1,3.12-1.22,6.32,6.32,0,0,1,4.52,1.67l-1.62,2.05a3.78,3.78,0,0,0-2.9-1.27,2,2,0,0,0-1.32.42,1.32,1.32,0,0,0-.5,1,1.37,1.37,0,0,0,.39,1,3.92,3.92,0,0,0,1.26.76l1.71.68c2.18.87,3.29,2.29,3.33,4.24a4.13,4.13,0,0,1-1.38,3.22A5.37,5.37,0,0,1,50.45,90.83Z"/><path class="cls-1" d="M59.73,90.64V76h1.93l7.23,9.23V76h2.75V90.64H69.8L62.48,81.3v9.34Z"/><path class="cls-1" d="M76.88,90.64V76h2.76V90.64Z"/><path class="cls-1" d="M84.88,90.64V76h1.93L94,85.19V76H96.8V90.64H95L87.64,81.3v9.34Z"/><path class="cls-1" d="M111,84.51V82.06h5.26l0,1.25a7.5,7.5,0,0,1-1.07,3.89,7.37,7.37,0,0,1-2.78,2.71,7.61,7.61,0,0,1-3.75,1,7.62,7.62,0,1,1,0-15.24A7.21,7.21,0,0,1,114.16,78l-1.88,1.85a4.75,4.75,0,0,0-3.61-1.59,4.65,4.65,0,0,0-3.51,1.44,5.19,5.19,0,0,0,0,7.08,4.48,4.48,0,0,0,3.33,1.44,5.23,5.23,0,0,0,3.27-1,4.66,4.66,0,0,0,1.73-2.7Z"/><path class="cls-1" d="M128.15,90.64V76h2.75V90.64Z"/><path class="cls-1" d="M152.75,90.64V84.51h-6.29v6.13h-2.75V76h2.75v5.91h6.29V76h2.76V90.64Z"/><path class="cls-1" d="M168.94,84.43h-5.43v3.76h6v2.45h-8.72V76h8.55v2.45h-5.79V82h5.43Z"/><path class="cls-1" d="M173.94,90.64V76h2.75V88h5.4v2.64Z"/><path class="cls-1" d="M194.23,84.51V82.06h5.26l0,1.25a7.5,7.5,0,0,1-1.07,3.89,7.37,7.37,0,0,1-2.78,2.71,7.64,7.64,0,0,1-3.75,1,7.62,7.62,0,1,1,0-15.24A7.21,7.21,0,0,1,197.38,78l-1.88,1.85a4.75,4.75,0,0,0-3.61-1.59,4.65,4.65,0,0,0-3.51,1.44,5.19,5.19,0,0,0,0,7.08,4.48,4.48,0,0,0,3.33,1.44,5.23,5.23,0,0,0,3.27-1,4.66,4.66,0,0,0,1.73-2.7Z"/><path class="cls-1" d="M212,84.43h-5.43v3.76h6v2.45H203.8V76h8.55v2.45h-5.79V82H212Z"/><path class="cls-1" d="M217,90.64V76h1.93l7.23,9.23V76h2.75V90.64h-1.84l-7.31-9.34v9.34Z"/></svg>