<svg id="Layer_1" data-name="Layer 1" xmlns="http://www.w3.org/2000/svg" viewBox="0 0 250 720"><defs><style>.cls-1{fill:#d4ac76;}</style></defs><title>text</title><path class="cls-1" d="M12,537.26,8.4,528H9.85l2.78,7.13L15.42,528h1.43l-3.63,9.28Z"/><path class="cls-1" d="M24.57,537.26V528H25.9l3,4.95,3-4.95H33.2v9.28H31.9v-6.85l0,0-3,4.79L26,530.45h-.08v6.81Z"/><path class="cls-1" d="M41.08,537.43a4.57,4.57,0,0,1-3.35-1.38,5,5,0,0,1,0-6.88,4.6,4.6,0,0,1,3.35-1.37,4.54,4.54,0,0,1,3.33,1.38,4.94,4.94,0,0,1,0,6.87A4.54,4.54,0,0,1,41.08,537.43Zm-2.43-2.28a3.36,3.36,0,0,0,4.86,0,3.73,3.73,0,0,0,0-5.07,3.35,3.35,0,0,0-4.85,0,3.71,3.71,0,0,0,0,5.07ZM40.21,527a.63.63,0,0,1-.46.2.61.61,0,0,1-.46-.2.76.76,0,0,1-.19-.51.74.74,0,0,1,.19-.5.58.58,0,0,1,.46-.2.59.59,0,0,1,.46.2.69.69,0,0,1,.19.5A.72.72,0,0,1,40.21,527Zm2.57,0a.63.63,0,0,1-.92,0,.72.72,0,0,1-.19-.51.69.69,0,0,1,.19-.5.63.63,0,0,1,.92,0,.69.69,0,0,1,.19.5A.72.72,0,0,1,42.78,527Z"/><path class="cls-1" d="M49.05,537.26V528h1.3v8h3.81v1.24Z"/><path class="cls-1" d="M57,537.26V528H58.3v8h3.82v1.24Z"/><path class="cls-1" d="M70.08,533.19H66.26V536h4.08v1.24H65V528h5.31v1.24h-4V532h3.82Z"/><path class="cls-1" d="M73.56,537.26V528H76a4.63,4.63,0,0,1,4.6,4.62,4.47,4.47,0,0,1-1.35,3.34A4.53,4.53,0,0,1,76,537.26Zm2.53-8H74.85V536h1.28a3,3,0,0,0,2.28-1,3.43,3.43,0,0,0,.93-2.43,3.31,3.31,0,0,0-1-2.41A3.08,3.08,0,0,0,76.09,529.22Z"/><path class="cls-1" d="M82.47,537.26,86.2,528h1.17L91,537.26H89.59L89,535.83H84.48l-.57,1.43Zm4.31-7.15L85,534.59h3.56Z"/><path class="cls-1" d="M93.6,537.26V528h1.29v8h3.82v1.24Z"/><path class="cls-1" d="M104,537.38a4.46,4.46,0,0,1-1.74-.37,4.61,4.61,0,0,1-1.47-1l.92-1a3.33,3.33,0,0,0,1.07.84,2.64,2.64,0,0,0,1.28.34,1.8,1.8,0,0,0,1.2-.39,1.25,1.25,0,0,0,.46-1,1.62,1.62,0,0,0-1.17-1.52l-1.1-.43a3.86,3.86,0,0,1-1.51-1,2.15,2.15,0,0,1-.5-1.47,2.32,2.32,0,0,1,.76-1.75,2.63,2.63,0,0,1,1.9-.73,3.75,3.75,0,0,1,2.69,1l-.78,1a2.58,2.58,0,0,0-1.91-.83,1.51,1.51,0,0,0-1,.32,1.09,1.09,0,0,0-.38.86,1.07,1.07,0,0,0,.28.72,2.72,2.72,0,0,0,.94.57L105,532a2.64,2.64,0,0,1,1.95,2.65,2.57,2.57,0,0,1-.82,2A3.1,3.1,0,0,1,104,537.38Z"/><path class="cls-1" d="M112.56,537.26,108.94,528h1.46l2.78,7.13L116,528h1.44l-3.63,9.28Z"/><path class="cls-1" d="M119.56,537.17a.71.71,0,0,1-.55.23.69.69,0,0,1-.54-.23.75.75,0,0,1-.23-.55.8.8,0,0,1,.22-.56.76.76,0,0,1,.55-.22.78.78,0,0,1,.55.22.73.73,0,0,1,.23.56A.71.71,0,0,1,119.56,537.17Z"/><path class="cls-1" d="M129.1,537.26v-7.62l-1.74.89v-1.24l2.47-1.36h.57v9.33Z"/><path class="cls-1" d="M133.32,535.13v-.81l3.22-6.34h1.36l-3.05,6h2v-1.56h1.29V534h1.12v1.15h-1.12v2.13h-1.29v-2.13Z"/><path class="cls-1" d="M141.19,537.26l3.72-9.28h1.17l3.66,9.28H148.3l-.56-1.43H143.2l-.58,1.43Zm4.31-7.15-1.81,4.48h3.57Z"/><path class="cls-1" d="M151.69,539l1.07-3,1.18.42-1.46,2.85Z"/><path class="cls-1" d="M167.9,537.26v-4h-4.51v4h-1.3V528h1.3v4h4.51v-4h1.3v9.28Z"/><path class="cls-1" d="M177.13,537.43a4.54,4.54,0,0,1-3.34-1.38,5,5,0,0,1,0-6.88,4.74,4.74,0,0,1,6.68,0,4.94,4.94,0,0,1,0,6.87A4.56,4.56,0,0,1,177.13,537.43Zm-2.42-2.28a3.35,3.35,0,0,0,4.85,0,3.51,3.51,0,0,0,1-2.54,3.56,3.56,0,0,0-1-2.53,3.27,3.27,0,0,0-2.43-1,3.23,3.23,0,0,0-2.42,1,3.71,3.71,0,0,0,0,5.07Zm1.55-8.15a.61.61,0,0,1-.46.2.63.63,0,0,1-.46-.2.76.76,0,0,1-.18-.51.73.73,0,0,1,.18-.5.59.59,0,0,1,.46-.2.58.58,0,0,1,.46.2.7.7,0,0,1,.2.5A.73.73,0,0,1,176.26,527Zm2.58,0a.64.64,0,0,1-.93,0,.76.76,0,0,1-.18-.51.73.73,0,0,1,.18-.5.6.6,0,0,1,.47-.2.59.59,0,0,1,.46.2.73.73,0,0,1,.18.5A.76.76,0,0,1,178.84,527Z"/><path class="cls-1" d="M185.11,537.26V528h1.29v8h3.82v1.24Z"/><path class="cls-1" d="M193.06,537.26V528h1.3v8h3.82v1.24Z"/><path class="cls-1" d="M202.32,537.26,198.7,528h1.46l2.78,7.13,2.78-7.13h1.44l-3.63,9.28Z"/><path class="cls-1" d="M209.71,537.26V528H211v9.28Z"/><path class="cls-1" d="M214.81,537.26V528h1.29v4.4L220,528h1.74l-3.27,3.68,3.35,5.6h-1.61l-2.7-4.53-1.38,1.55v3Z"/><path class="cls-1" d="M229.72,533.19h-3.81V536H230v1.24h-5.38V528h5.31v1.24h-4V532h3.81Z"/><path class="cls-1" d="M233.2,537.26V528h.91l5,6.39V528h1.3v9.28h-.72l-5.21-6.63v6.63Z"/><path class="cls-1" d="M33.6,557.26V548h1.3v8h3.81v1.24Z"/><path class="cls-1" d="M45,557.43a4.53,4.53,0,0,1-3.34-1.38,5,5,0,0,1,0-6.88,4.74,4.74,0,0,1,6.68,0,5,5,0,0,1,0,6.87A4.58,4.58,0,0,1,45,557.43Zm-2.43-2.28a3.36,3.36,0,0,0,4.86,0,3.7,3.7,0,0,0,0-5.07,3.35,3.35,0,0,0-4.85,0,3.71,3.71,0,0,0,0,5.07ZM44.15,547a.63.63,0,0,1-.46.2.61.61,0,0,1-.46-.2.76.76,0,0,1-.18-.51.73.73,0,0,1,.18-.5.58.58,0,0,1,.46-.2.59.59,0,0,1,.46.2.69.69,0,0,1,.19.5A.72.72,0,0,1,44.15,547Zm2.57,0a.6.6,0,0,1-.46.2.63.63,0,0,1-.46-.2.76.76,0,0,1-.19-.51.74.74,0,0,1,.19-.5.59.59,0,0,1,.46-.2.57.57,0,0,1,.46.2.69.69,0,0,1,.19.5A.72.72,0,0,1,46.72,547Z"/><path class="cls-1" d="M53,557.26V548h3.45a2.91,2.91,0,0,1,2.09.81,3,3,0,0,1,.14,4,2.73,2.73,0,0,1-1.77.91l2.68,3.53H58l-2.67-3.54h-1v3.54Zm3.27-8h-2v3.35h2a1.88,1.88,0,0,0,1.31-.46,1.68,1.68,0,0,0,0-2.41A1.82,1.82,0,0,0,56.26,549.22Z"/><path class="cls-1" d="M62.62,557.26V548H65.1a4.63,4.63,0,0,1,4.6,4.62,4.47,4.47,0,0,1-1.35,3.34,4.53,4.53,0,0,1-3.29,1.32Zm2.53-8H63.91V556h1.28a3,3,0,0,0,2.29-1,3.47,3.47,0,0,0,.92-2.43,3.34,3.34,0,0,0-1-2.41A3.11,3.11,0,0,0,65.15,549.22Z"/><path class="cls-1" d="M71.53,557.26,75.26,548h1.17l3.65,9.28H78.65l-.56-1.43H73.54L73,557.26Zm4.31-7.15L74,554.59H77.6Z"/><path class="cls-1" d="M88.27,553.23V552h3.09v.65a4.74,4.74,0,0,1-1.44,3.42,4.69,4.69,0,0,1-3.36,1.35A4.58,4.58,0,0,1,83.17,556a5,5,0,0,1,0-6.85,4.55,4.55,0,0,1,3.39-1.39,5.1,5.1,0,0,1,2,.38,4.87,4.87,0,0,1,1.59,1.08l-1,1a3.3,3.3,0,0,0-2.58-1.2,3.24,3.24,0,0,0-2.46,1,3.73,3.73,0,0,0,0,5.06,3.21,3.21,0,0,0,2.46,1,3.29,3.29,0,0,0,2.22-.81A3.53,3.53,0,0,0,90,553.23Z"/><path class="cls-1" d="M100.62,557.26v-7.62l-1.74.89v-1.24l2.46-1.36h.58v9.33Z"/><path class="cls-1" d="M107.66,557.4a2.86,2.86,0,0,1-2-.78,2.62,2.62,0,0,1-.87-1.89h1.3a1.37,1.37,0,0,0,.48,1,1.57,1.57,0,0,0,1.09.43,1.58,1.58,0,0,0,1.15-.45,1.48,1.48,0,0,0,.46-1.11,1.54,1.54,0,0,0-1.58-1.59h-.53v-1.15h.52a1.46,1.46,0,0,0,1.08-.43,1.43,1.43,0,0,0,.43-1,1.36,1.36,0,0,0-.43-1,1.49,1.49,0,0,0-1.09-.41,1.45,1.45,0,0,0-1.06.42,1.4,1.4,0,0,0-.43,1h-1.3a2.38,2.38,0,0,1,.8-1.85,2.83,2.83,0,0,1,2-.77,2.77,2.77,0,0,1,2,.76,2.42,2.42,0,0,1,.8,1.85,2.17,2.17,0,0,1-1.41,2,2.21,2.21,0,0,1,1.08.82,2.26,2.26,0,0,1,.41,1.34,2.66,2.66,0,0,1-.85,2A2.86,2.86,0,0,1,107.66,557.4Z"/><path class="cls-1" d="M117.63,557.26l3.72-9.28h1.17l3.65,9.28h-1.43l-.56-1.43h-4.55l-.57,1.43Zm4.3-7.15-1.8,4.48h3.57Z"/><path class="cls-1" d="M128.75,557.26V548h3.17a2.91,2.91,0,0,1,2.15.87,3,3,0,0,1,.86,2.2,2.9,2.9,0,0,1-.89,2.17,3,3,0,0,1-2.17.87h-1.82v3.17Zm3.08-8h-1.78v3.63h1.79a1.7,1.7,0,0,0,1.79-1.8,1.78,1.78,0,0,0-.51-1.31A1.72,1.72,0,0,0,131.83,549.22Z"/><path class="cls-1" d="M138,557.26V548h3.44a2.88,2.88,0,0,1,2.09.81,3,3,0,0,1,.15,4,2.73,2.73,0,0,1-1.78.91l2.69,3.53H143l-2.66-3.54h-1v3.54Zm3.27-8h-2v3.35h2a1.9,1.9,0,0,0,1.31-.46,1.68,1.68,0,0,0,0-2.41A1.85,1.85,0,0,0,141.27,549.22Z"/><path class="cls-1" d="M147.63,557.26V548h1.29v9.28Z"/><path class="cls-1" d="M152.72,557.26V548H154v8h3.82v1.24Z"/><path class="cls-1" d="M165.7,557.26V548H167v4.4l3.87-4.4h1.74l-3.27,3.68,3.35,5.6h-1.61l-2.7-4.53L167,554.28v3Z"/><path class="cls-1" d="M175.5,557.26V548h1.3v8h3.81v1.24Z"/><path class="cls-1" d="M189.53,557.26v-7.62l-1.74.89v-1.24l2.46-1.36h.58v9.33Z"/><path class="cls-1" d="M195.52,557.26v-7.62l-1.74.89v-1.24l2.46-1.36h.57v9.33Z"/><path class="cls-1" d="M200,553.21v-1.15h3.62v1.15Z"/><path class="cls-1" d="M207.11,557.26v-7.62l-1.74.89v-1.24l2.46-1.36h.58v9.33Z"/><path class="cls-1" d="M214.15,557.4a2.86,2.86,0,0,1-2-.78,2.62,2.62,0,0,1-.87-1.89h1.3a1.37,1.37,0,0,0,.48,1,1.56,1.56,0,0,0,1.08.43,1.59,1.59,0,0,0,1.16-.45,1.58,1.58,0,0,0-1.12-2.7h-.53v-1.15h.52a1.46,1.46,0,0,0,1.08-.43,1.43,1.43,0,0,0,.43-1,1.39,1.39,0,0,0-.43-1,1.61,1.61,0,0,0-2.16,0,1.44,1.44,0,0,0-.43,1h-1.29a2.38,2.38,0,0,1,.8-1.85,2.83,2.83,0,0,1,2-.77,2.77,2.77,0,0,1,2,.76,2.45,2.45,0,0,1,.8,1.85,2.13,2.13,0,0,1-.39,1.25,2.25,2.25,0,0,1-1,.79,2.21,2.21,0,0,1,1.08.82,2.26,2.26,0,0,1,.4,1.34,2.63,2.63,0,0,1-.85,2A2.82,2.82,0,0,1,214.15,557.4Z"/></svg>