<svg id="Layer_1" data-name="Layer 1" xmlns="http://www.w3.org/2000/svg" viewBox="0 0 224.28 88.67"><defs><style>.cls-1{fill:none;stroke:#fff;stroke-width:0.95px;}.cls-2{fill:#fff;}</style></defs><title>STELLA logo_1</title><line class="cls-1" y1="57.33" x2="224.28" y2="57.33"/><path class="cls-2" d="M588.13,375.83c6.94,0,11.25-4.17,11.25-10,0-4.17-2.2-7.6-7.43-9.7l-4.08-1.63c-3.21-1.32-4.35-2.68-4.35-4.66,0-2.59,2.06-4.26,5-4.26a9.32,9.32,0,0,1,7,3l3-3.82a13.75,13.75,0,0,0-10-3.82c-5.67,0-9.84,4.17-9.84,9.14,0,4.43,2.59,7,7.38,9l4,1.62c3.25,1.32,4.39,3.3,4.39,5.49,0,2.86-2.41,5-6.06,5a12.19,12.19,0,0,1-8.7-4.3l-3.34,3.82a17,17,0,0,0,11.82,5.09Zm24.72-29.6h11.07V375.4H629V346.23H640v-4.79H612.85v4.79Zm60.87,14.27V356H660.05V346h14.37v-4.52H655v34h19.68v-4.53H660.05V360.5ZM691,375.4h18.72v-4.75H696.05V341.44h-5v34Zm33.7,0h18.71v-4.75H729.75V341.44h-5v34Zm31.86,0h5.27l2.11-5.32H780.5l2.11,5.32H788l-13.49-34h-4.35l-13.57,34Zm15.72-26,6.46,16.29h-13l6.54-16.29Z" transform="translate(-570 -341)"/><polygon class="cls-2" points="118.46 57.12 112.14 37.7 105.78 57.12 85.39 57.12 101.89 69.14 95.53 88.67 112.14 76.61 128.71 88.67 122.35 69.14 138.89 57.12 118.46 57.12 118.46 57.12"/></svg>