<svg id="Layer_1" data-name="Layer 1" xmlns="http://www.w3.org/2000/svg" viewBox="0 0 1250 240"><defs><style>.cls-1{fill:#d4ac76;}</style></defs><title>text</title><path class="cls-1" d="M367.78,177l5.59-13.91h1.76L380.6,177h-2.14l-.85-2.14h-6.82l-.86,2.14Zm6.46-10.72-2.7,6.73h5.35Zm1.34-4.14a1.91,1.91,0,0,1-2.68,0,1.9,1.9,0,0,1,2.68-2.68,1.91,1.91,0,0,1,0,2.68Zm-1.34-.56a.69.69,0,0,0,.53-.24.74.74,0,0,0,.23-.54.76.76,0,0,0-.23-.55.71.71,0,0,0-.53-.22.75.75,0,0,0-.77.77.79.79,0,0,0,.77.78Z"/><path class="cls-1" d="M381.43,164.92v-1.85h11.26v1.85H388V177h-1.94V164.92Z"/><path class="cls-1" d="M395.45,164.92v-1.85h11.26v1.85h-4.66V177h-1.94V164.92Z"/><path class="cls-1" d="M407.62,177l5.58-13.91H415L420.44,177h-2.15l-.84-2.14h-6.82l-.86,2.14Zm6.46-10.72L411.37,173h5.35Z"/><path class="cls-1" d="M440.77,177v-6H434v6h-1.94V163.07H434v6h6.77v-6h2V177Z"/><path class="cls-1" d="M453.25,177.22a4.83,4.83,0,0,1-3.62-1.46,5,5,0,0,1-1.42-3.67v-9h1.94V172a3.6,3.6,0,0,0,.83,2.43,2.84,2.84,0,0,0,2.27,1,2.93,2.93,0,0,0,2.31-.94,3.53,3.53,0,0,0,.84-2.44v-8.91h1.94v9a5,5,0,0,1-1.42,3.67A4.88,4.88,0,0,1,453.25,177.22Z"/><path class="cls-1" d="M467.49,177.16a6.46,6.46,0,0,1-2.6-.55,7.19,7.19,0,0,1-2.21-1.5l1.37-1.58a5.24,5.24,0,0,0,1.61,1.27,4.06,4.06,0,0,0,1.92.51,2.69,2.69,0,0,0,1.8-.59,1.9,1.9,0,0,0,.7-1.49,2.43,2.43,0,0,0-1.76-2.27l-1.65-.66a5.6,5.6,0,0,1-2.27-1.49,3.28,3.28,0,0,1-.75-2.2A3.48,3.48,0,0,1,464.8,164a3.94,3.94,0,0,1,2.84-1.09,5.65,5.65,0,0,1,4,1.53L470.5,166a3.84,3.84,0,0,0-2.86-1.25,2.17,2.17,0,0,0-1.48.49,1.59,1.59,0,0,0-.57,1.28,1.53,1.53,0,0,0,.42,1.08,3.89,3.89,0,0,0,1.41.86l1.67.67c2,.82,3,2.14,2.93,4a3.82,3.82,0,0,1-1.23,2.93A4.7,4.7,0,0,1,467.49,177.16Z"/><path class="cls-1" d="M484.4,177V163.07h2l4.48,7.41,4.56-7.41h1.9V177H495.4V166.7l-.06,0-4.48,7.19-4.39-7.09h-.12V177Z"/><path class="cls-1" d="M510.74,170.88H505v4.25h6.12V177h-8.06V163.07H511v1.85h-6V169h5.73Z"/><path class="cls-1" d="M516,177V163.07h3.72A7,7,0,0,1,524.55,175a6.79,6.79,0,0,1-4.94,2Zm3.8-12.06H517.9v10.21h1.91a4.51,4.51,0,0,0,3.43-1.49,5.14,5.14,0,0,0,1.39-3.64,5,5,0,0,0-1.43-3.61A4.65,4.65,0,0,0,519.76,164.92Z"/><path class="cls-1" d="M547.78,177v-6H541v6h-1.94V163.07H541v6h6.77v-6h1.94V177Z"/><path class="cls-1" d="M561.63,177.23a6.85,6.85,0,0,1-5-2,7.49,7.49,0,0,1,0-10.32,7.11,7.11,0,0,1,10,0,7.42,7.42,0,0,1,0,10.3A6.85,6.85,0,0,1,561.63,177.23ZM558,173.82a5,5,0,0,0,7.28,0,5.55,5.55,0,0,0,0-7.6,5,5,0,0,0-7.27,0,5.56,5.56,0,0,0,0,7.6Zm2.34-12.23a.9.9,0,0,1-.7.31.86.86,0,0,1-.68-.31,1,1,0,0,1-.28-.75,1.07,1.07,0,0,1,.28-.76.89.89,0,0,1,.68-.31.93.93,0,0,1,.7.31,1.07,1.07,0,0,1,.28.76A1,1,0,0,1,560.33,161.59Zm3.86,0a.93.93,0,0,1-1.39,0,1.09,1.09,0,0,1-.28-.75,1.11,1.11,0,0,1,.28-.76.93.93,0,0,1,1.39,0,1.11,1.11,0,0,1,.28.76A1.09,1.09,0,0,1,564.19,161.59Z"/><path class="cls-1" d="M582.65,170.93v-1.85h4.62v1a7.17,7.17,0,0,1-7.2,7.17,6.81,6.81,0,0,1-5.07-2.08,7.5,7.5,0,0,1,0-10.28,6.77,6.77,0,0,1,5.07-2.08,7.44,7.44,0,0,1,2.93.58,7,7,0,0,1,2.38,1.61l-1.44,1.47a4.93,4.93,0,0,0-3.87-1.81,4.87,4.87,0,0,0-3.69,1.58,5.62,5.62,0,0,0,0,7.58,5.15,5.15,0,0,0,7,.35,5.28,5.28,0,0,0,1.76-3.21Z"/><path class="cls-1" d="M599.58,177V163.07h1.95v6.6l5.79-6.6h2.61l-4.9,5.52,5,8.39h-2.41l-4-6.79-2.07,2.33V177Z"/><path class="cls-1" d="M618.37,177l-5.43-13.91h2.18l4.17,10.69,4.18-10.69h2.15L620.18,177Z"/><path class="cls-1" d="M626.8,177l5.59-13.91h1.75L639.62,177h-2.15l-.84-2.14h-6.82L629,177Zm6.46-10.72-2.7,6.73h5.34Z"/><path class="cls-1" d="M643.49,177V163.07h1.94v12.06h5.72V177Z"/><path class="cls-1" d="M655.42,177V163.07h1.94V177Z"/><path class="cls-1" d="M661.23,164.92v-1.85H672.5v1.85h-4.66V177H665.9V164.92Z"/><path class="cls-1" d="M684,170.88h-5.72v4.25h6.12V177h-8.07V163.07h8v1.85h-6V169H684Z"/><path class="cls-1" d="M687.78,164.92v-1.85h11.27v1.85h-4.66V177h-1.94V164.92Z"/><path class="cls-1" d="M709.33,164.92v-1.85H720.6v1.85h-4.66V177h-2V164.92Z"/><path class="cls-1" d="M724.47,177V163.07h1.94V177Z"/><path class="cls-1" d="M732.12,177V163.07h1.94v12.06h5.73V177Z"/><path class="cls-1" d="M744.05,177V163.07h2v12.06h5.72V177Z"/><path class="cls-1" d="M763.51,177V163.07h4.26a4.48,4.48,0,0,1,3.06,1.07A3.59,3.59,0,0,1,772,167a3.28,3.28,0,0,1-1.65,3,3.57,3.57,0,0,1,1.49,1.25,3.28,3.28,0,0,1,.56,1.88,3.6,3.6,0,0,1-1.22,2.84,4.5,4.5,0,0,1-3.1,1.07Zm4.06-12.06h-2.12v4.23h2.48a2.1,2.1,0,0,0,1.54-.61,2.15,2.15,0,0,0,.63-1.6,1.74,1.74,0,0,0-.7-1.46A2.83,2.83,0,0,0,767.57,164.92Zm.43,6h-2.55v4.25h2.42a2.87,2.87,0,0,0,1.92-.6,2,2,0,0,0,.7-1.59,1.89,1.89,0,0,0-.64-1.48A2.65,2.65,0,0,0,768,170.88Z"/><path class="cls-1" d="M777.32,177V163.07h5.16a4.32,4.32,0,0,1,3.13,1.21,4.3,4.3,0,0,1-2.44,7.41l4,5.29h-2.4l-4-5.31h-1.55V177Zm4.9-12.06h-3v5h2.94a2.84,2.84,0,0,0,2-.68,2.51,2.51,0,0,0,0-3.61A2.69,2.69,0,0,0,782.22,164.92Z"/><path class="cls-1" d="M790.08,177l5.58-13.91h1.76L802.9,177h-2.15l-.84-2.14h-6.82l-.86,2.14Zm6.46-10.72-2.7,6.73h5.34Z"/><path class="cls-1" d="M814.52,177V163.07h4.75a4.36,4.36,0,0,1,3.23,1.3,4.49,4.49,0,0,1,1.29,3.31,4.35,4.35,0,0,1-1.33,3.25,4.46,4.46,0,0,1-3.27,1.3h-2.73V177Zm4.62-12.06h-2.68v5.46h2.7a2.57,2.57,0,0,0,2.69-2.7,2.71,2.71,0,0,0-.77-2A2.61,2.61,0,0,0,819.14,164.92Z"/><path class="cls-1" d="M828.4,177V163.07h5.16a4.35,4.35,0,0,1,3.14,1.21,4.16,4.16,0,0,1,1.26,3.14,4.22,4.22,0,0,1-1,2.91,4.17,4.17,0,0,1-2.67,1.36l4,5.29h-2.39l-4-5.31h-1.55V177Zm4.9-12.06h-3v5h2.95a2.83,2.83,0,0,0,2-.68,2.52,2.52,0,0,0,0-3.61A2.71,2.71,0,0,0,833.3,164.92Z"/><path class="cls-1" d="M842.83,177V163.07h1.95V177Z"/><path class="cls-1" d="M853.88,177.16a6.54,6.54,0,0,1-2.61-.55,7.15,7.15,0,0,1-2.2-1.5l1.37-1.58a5.32,5.32,0,0,0,1.6,1.27,4.1,4.1,0,0,0,1.93.51,2.68,2.68,0,0,0,1.79-.59,1.87,1.87,0,0,0,.7-1.49A2.43,2.43,0,0,0,854.7,171l-1.64-.66a5.72,5.72,0,0,1-2.28-1.49,3.27,3.27,0,0,1-.74-2.2,3.51,3.51,0,0,1,1.14-2.63,4,4,0,0,1,2.84-1.09,5.68,5.68,0,0,1,4,1.53L856.89,166a3.86,3.86,0,0,0-2.87-1.25,2.16,2.16,0,0,0-1.47.49,1.59,1.59,0,0,0-.57,1.28,1.56,1.56,0,0,0,.41,1.08,3.86,3.86,0,0,0,1.42.86l1.67.67c2,.82,3,2.14,2.92,4a3.81,3.81,0,0,1-1.22,2.93A4.7,4.7,0,0,1,853.88,177.16Z"/></svg>