<svg id="Layer_1" data-name="Layer 1" xmlns="http://www.w3.org/2000/svg" viewBox="0 0 1250 240"><defs><style>.cls-1{fill:#d4ac76;}</style></defs><title>text</title><path class="cls-1" d="M323.74,135V80.89h15.44a26.51,26.51,0,0,1,19.16,7.74,26,26,0,0,1,8,19.49q0,11.76-8.07,19.32A27.61,27.61,0,0,1,338.62,135ZM339.3,89.92h-6.18V126h6.25a15.6,15.6,0,0,0,12-5.24,18.33,18.33,0,0,0,4.81-12.89,17.83,17.83,0,0,0-4.88-12.78A15.84,15.84,0,0,0,339.3,89.92Z"/><path class="cls-1" d="M380.65,135V80.89H390.8V135Z"/><path class="cls-1" d="M402.42,90.62V80.89H447v9.73H429.79V135H419.64V90.62Z"/><path class="cls-1" d="M455.06,90.62V80.89h44.59v9.73H482.43V135H472.28V90.62Z"/><path class="cls-1" d="M538.92,135V80.89h10.15v44.38H569V135Z"/><path class="cls-1" d="M582.11,135V80.89h10.15V135Z"/><path class="cls-1" d="M624.08,135,603.39,80.89H614l14.86,38.9,14.68-38.9h10.27L633.28,135Z"/><path class="cls-1" d="M677.41,135.7a26,26,0,0,1-10.21-2.14,26.56,26.56,0,0,1-8.76-5.91l6.44-7.71a19.83,19.83,0,0,0,6,4.84,15.25,15.25,0,0,0,7.12,1.89,8.75,8.75,0,0,0,5.77-1.86,5.82,5.82,0,0,0,2.25-4.67q0-5.06-5.93-7.51l-6-2.41q-6.09-2.53-9-6t-2.91-9.2a14.08,14.08,0,0,1,4.59-10.28,15.73,15.73,0,0,1,11.47-4.51q10.11,0,16.67,6.18l-6,7.55a13.94,13.94,0,0,0-10.69-4.7,7.23,7.23,0,0,0-4.85,1.56,4.8,4.8,0,0,0-1.83,3.81,5.06,5.06,0,0,0,1.43,3.71,14.16,14.16,0,0,0,4.65,2.79l6.3,2.53q12,4.82,12.26,15.62a15.17,15.17,0,0,1-5.09,11.84Q686,135.7,677.41,135.7Z"/><path class="cls-1" d="M724.46,135,703.77,80.89h10.57l14.86,38.9,14.68-38.9h10.27L733.66,135Z"/><path class="cls-1" d="M795.61,112.11h-20V126h22v9H765.44V80.89h31.5v9H775.59v13.16h20Z"/><path class="cls-1" d="M812.55,135V80.89h21.17a18.25,18.25,0,0,1,13,4.91A16.86,16.86,0,0,1,852,98.64a16.2,16.2,0,0,1-3.88,11,17.36,17.36,0,0,1-10.1,5.76L852.52,135H841.11l-14-19.32H822.7V135Zm19.6-45.08H822.7v17.64h9.45a10,10,0,0,0,7-2.4,8.09,8.09,0,0,0,2.63-6.25,8.55,8.55,0,0,0-2.69-6.42A9.7,9.7,0,0,0,832.15,89.92Z"/><path class="cls-1" d="M866.31,135V80.89h9.38v23.85l20.72-23.85h12.53l-19.09,21.59L909.36,135H897.67l-14.74-24.7-7.24,8.19V135Z"/></svg>