<svg id="Layer_1" data-name="Layer 1" xmlns="http://www.w3.org/2000/svg" viewBox="0 0 320 160"><defs><style>.cls-1{fill:#d80201;}</style></defs><title>text</title><path class="cls-1" d="M160.24,67.83a7.63,7.63,0,0,1-7.75-7.59,7.75,7.75,0,0,1,7.77-7.75,7.55,7.55,0,0,1,3.59.9v3.39a4.79,4.79,0,0,0-3.59-1.67,4.9,4.9,0,0,0-4.82,5.1,4.8,4.8,0,0,0,8.41,3.39V67A8.22,8.22,0,0,1,160.24,67.83Z"/><path class="cls-1" d="M172.58,67.5V62.29c0-1.32-.29-2.35-1.83-2.35s-2,1.28-2,2.68V67.5h-2.66V51h2.66v8.19a3.47,3.47,0,0,1,3-1.54,3.64,3.64,0,0,1,2.77,1.17,3.78,3.78,0,0,1,.75,2.68v6Z"/><path class="cls-1" d="M185.08,67.5V66.25a3.68,3.68,0,0,1-3.1,1.56c-2.86,0-4.69-2.38-4.69-5.1a4.76,4.76,0,0,1,4.62-5,4,4,0,0,1,3.17,1.52V58h2.68V67.5Zm-2.38-7.44a2.67,2.67,0,1,0,2.66,2.66A2.66,2.66,0,0,0,182.7,60.06Z"/><path class="cls-1" d="M196.54,60.39a2.36,2.36,0,0,0-1.28-.33c-1.8,0-2.29,1.28-2.29,2.86V67.5h-2.66V58H193V59.4a3.11,3.11,0,0,1,3.94-1.52Z"/><path class="cls-1" d="M210.4,67.5V62.29c0-1.12-.18-2.35-1.58-2.35-1.56,0-1.83,1.43-1.83,2.68V67.5h-2.66V62.44a4.24,4.24,0,0,0-.2-1.58,1.54,1.54,0,0,0-1.43-.92,1.74,1.74,0,0,0-1.5.86,4,4,0,0,0-.31,1.83V67.5h-2.66V58h2.66v1.08a3.66,3.66,0,0,1,2.9-1.39,3.24,3.24,0,0,1,3,1.74,3.52,3.52,0,0,1,3.13-1.74A3.13,3.13,0,0,1,212.56,59a4.19,4.19,0,0,1,.51,2.31V67.5Z"/><path class="cls-1" d="M216.91,55.55a1.61,1.61,0,0,1,0-3.21,1.61,1.61,0,0,1,0,3.21ZM215.57,67.5V58h2.66V67.5Z"/><path class="cls-1" d="M229.58,71a5.2,5.2,0,0,1-4,1.67c-2.44,0-4.8-1.41-5.06-4h2.88a2.12,2.12,0,0,0,2.27,1.74c1.67,0,2.35-1.17,2.35-2.71V66.22a4,4,0,0,1-3.21,1.58c-2.82,0-4.53-2.27-4.53-5s1.76-5.19,4.66-5.19A3.57,3.57,0,0,1,228,59.21V58h2.68v9.18A5.13,5.13,0,0,1,229.58,71Zm-3.94-10.89a2.67,2.67,0,1,0,2.66,2.66A2.66,2.66,0,0,0,225.64,60.06Z"/><path class="cls-1" d="M240.49,67.5V66.25a3.68,3.68,0,0,1-3.1,1.56c-2.86,0-4.69-2.38-4.69-5.1a4.76,4.76,0,0,1,4.62-5,4,4,0,0,1,3.17,1.52V58h2.68V67.5Zm-2.38-7.44a2.67,2.67,0,1,0,2.66,2.66A2.66,2.66,0,0,0,238.12,60.06Z"/><path class="cls-1" d="M154.68,95.5l-1.3-9-4,9.24h-.79l-3.89-9.24-1.47,9h-2.88L143,80.56h2l4,9.59,4.18-9.59h2l2.44,14.94Z"/><path class="cls-1" d="M167.27,95.83a7.62,7.62,0,0,1-7.83-7.63,7.85,7.85,0,1,1,7.83,7.63Zm0-12.72a5.06,5.06,0,1,0,4.91,5A5,5,0,0,0,167.27,83.11Z"/><path class="cls-1" d="M183.22,95.87H181.7l-6.25-15h3.12l3.92,9.86,4-9.86h3.1Z"/><path class="cls-1" d="M191.29,95.5V80.82h8.12v2.49h-5.26v3.26h5.06v2.49h-5.06v4h5.26V95.5Z"/><path class="cls-1" d="M218.86,87h-2.22l-.31,2h2.24l-.37,2.4H216l-.66,4.09h-2.75l.66-4.09h-2l-.64,4.09h-2.73l.66-4.09h-2.27l.37-2.4h2.27l.31-2h-2.24l.37-2.42h2.24l.59-3.78h2.73l-.62,3.78h2l.59-3.78h2.75L217,84.61h2.22Zm-7,0-.31,2h2l.31-2Z"/><path class="cls-1" d="M225,95.87a5,5,0,0,1-5.28-4.6h2.88a2.39,2.39,0,1,0,2.49-2.57,4.4,4.4,0,0,0-.53,0V86.68a2.35,2.35,0,0,0,.4,0,2,2,0,0,0,.07-4,1.91,1.91,0,0,0-2,1.94h-2.71a4.49,4.49,0,0,1,4.91-4.2c2.44,0,4.47,1.45,4.47,4A3.27,3.27,0,0,1,228,87.62a3.61,3.61,0,0,1,2.24,3.61C230.23,94.22,227.79,95.87,225,95.87Z"/><path class="cls-1" d="M237.89,95.87c-4,0-5.68-4.27-5.68-7.7s1.61-7.72,5.68-7.72,5.68,4.25,5.68,7.7S242,95.87,237.89,95.87Zm0-12.89c-2.24,0-2.82,3.48-2.82,5.17s.57,5.21,2.82,5.21,2.82-3.52,2.82-5.21S240.13,83,237.89,83Z"/><path class="cls-1" d="M249.94,95.87a5,5,0,0,1-5.28-4.6h2.88A2.39,2.39,0,1,0,250,88.7a4.36,4.36,0,0,0-.53,0V86.68a2.34,2.34,0,0,0,.4,0,2,2,0,1,0-1.94-2h-2.71a4.49,4.49,0,0,1,4.91-4.2c2.44,0,4.47,1.45,4.47,4a3.27,3.27,0,0,1-1.69,3.12,3.61,3.61,0,0,1,2.24,3.61C255.18,94.22,252.74,95.87,249.94,95.87Z"/></svg>