<svg id="Layer_1" data-name="Layer 1" xmlns="http://www.w3.org/2000/svg" viewBox="0 0 320 160"><defs><style>.cls-1{fill:#d80201;}</style></defs><title>text</title><path class="cls-1" d="M76.26,74V57.33h3.25V71.18h5.12V74Z"/><path class="cls-1" d="M88.93,69.08c0,1.67.85,2.9,2.65,2.9a2.86,2.86,0,0,0,2.58-1.45L97,71a5.32,5.32,0,0,1-5.33,3.37,5.43,5.43,0,0,1-5.8-5.77,5.36,5.36,0,0,1,5.68-5.75c3.57,0,5.52,2.4,5.52,5.85v.4ZM91.56,65A2.46,2.46,0,0,0,89,67.15h5.13A2.51,2.51,0,0,0,91.56,65Z"/><path class="cls-1" d="M102.41,65.78V74h-3V65.78h-1.2v-2.6h1.2v-3.7h3v3.7h2.12v2.6Z"/><path class="cls-1" d="M111.08,61.28l-1.42-1,3-3.78,2.2,1.4Z"/><path class="cls-1" d="M122.06,74.35a5.8,5.8,0,0,1-4.13-1.8l1.6-1.85A3.52,3.52,0,0,0,122.08,72a1.29,1.29,0,0,0,1.38-1.2c0-1.85-4.83-.93-4.83-4.58,0-2.2,1.83-3.42,3.88-3.42A5.55,5.55,0,0,1,126,63.93l-1.5,1.77a3,3,0,0,0-1.8-.72c-.52,0-1.15.32-1.15.92,0,1.58,5,.88,5,4.58C126.58,73,124.38,74.35,122.06,74.35Z"/><path class="cls-1" d="M141.56,74.35A4.24,4.24,0,0,1,138,72.57V74h-3V55.28h3v9.27a4.6,4.6,0,0,1,3.62-1.72c3.18,0,5.27,2.7,5.27,5.72S144.81,74.35,141.56,74.35Zm-.83-8.8a3,3,0,1,0,3,3A3,3,0,0,0,140.73,65.55Z"/><path class="cls-1" d="M151.73,69.08c.05,1.67.85,2.9,2.65,2.9A2.86,2.86,0,0,0,157,70.53l2.79.45a5.3,5.3,0,0,1-5.32,3.37,5.43,5.43,0,0,1-5.8-5.77,5.36,5.36,0,0,1,5.68-5.75c3.57,0,5.52,2.4,5.52,5.85v.4Zm2.63-4.1a2.46,2.46,0,0,0-2.53,2.17H157A2.51,2.51,0,0,0,154.36,65Z"/><path class="cls-1" d="M171.53,65.78V74h-3V65.78h-1.18v-2.6h1.18V59.7a5.34,5.34,0,0,1,.47-2.55A4.28,4.28,0,0,1,172.73,55a3.54,3.54,0,0,1,1.6.37v2.78a2.94,2.94,0,0,0-1.37-.4c-1.35,0-1.43,1.4-1.43,2.42v3h2.8v2.6Z"/><path class="cls-1" d="M182.81,65.93a2.65,2.65,0,0,0-1.45-.38c-2.05,0-2.6,1.45-2.6,3.25V74h-3V63.18h3V64.8a3.48,3.48,0,0,1,3.15-2,3.37,3.37,0,0,1,1.32.25Z"/><path class="cls-1" d="M186.21,60.43a1.83,1.83,0,1,1,0-3.65,1.83,1.83,0,0,1,0,3.65ZM184.68,74V63.18h3V74Z"/><path class="cls-1" d="M193.08,69.08c0,1.67.85,2.9,2.65,2.9a2.83,2.83,0,0,0,2.57-1.45l2.8.45a5.3,5.3,0,0,1-5.32,3.37,5.43,5.43,0,0,1-5.8-5.77,5.36,5.36,0,0,1,5.67-5.75c3.58,0,5.53,2.4,5.53,5.85v.4Zm2.63-4.1a2.46,2.46,0,0,0-2.53,2.17h5.12A2.5,2.5,0,0,0,195.71,65Z"/><path class="cls-1" d="M210.9,74V68c0-1.47-.32-2.6-2.05-2.6s-2.32,1.38-2.32,3V74h-3V63.18h3V64.5a4,4,0,0,1,3.4-1.67,3.74,3.74,0,0,1,4,4.3V74Z"/><path class="cls-1" d="M225.1,74V72.57a4.17,4.17,0,0,1-3.52,1.78c-3.25,0-5.32-2.7-5.32-5.8s2.07-5.72,5.24-5.72a4.51,4.51,0,0,1,3.6,1.72V55.28h3.05V74Zm-2.7-8.45a3,3,0,1,0,3,3A3,3,0,0,0,222.4,65.55Z"/><path class="cls-1" d="M234.5,74.35a5.79,5.79,0,0,1-4.12-1.8L232,70.7A3.49,3.49,0,0,0,234.53,72a1.28,1.28,0,0,0,1.37-1.2c0-1.85-4.82-.93-4.82-4.58,0-2.2,1.82-3.42,3.87-3.42a5.6,5.6,0,0,1,3.53,1.15L237,65.7a3,3,0,0,0-1.8-.72c-.53,0-1.15.32-1.15.92,0,1.58,5,.88,5,4.58C239,73,236.83,74.35,234.5,74.35Z"/><path class="cls-1" d="M74.33,94.53V92H80v2.55Z"/><path class="cls-1" d="M94.23,99.35a4.27,4.27,0,0,1-3.55-1.77V99h-3V80.28h3v9.27a4.62,4.62,0,0,1,3.63-1.72,5.43,5.43,0,0,1,5.27,5.72C99.58,96.65,97.48,99.35,94.23,99.35Zm-.82-8.8a3,3,0,1,0,3,3A3,3,0,0,0,93.41,90.55Z"/><path class="cls-1" d="M107.51,99.35c-3.45,0-6.2-2.15-6.2-5.75s2.75-5.77,6.22-5.77,6.15,2.17,6.15,5.75S110.93,99.35,107.51,99.35Zm0-8.8a3,3,0,1,0,3.08,3A3.07,3.07,0,0,0,107.48,90.55Z"/><path class="cls-1" d="M123.43,99l-4.07-4.65-.33.33V99h-3V80.28h3V92.13l4-3.95h4.1l-5.07,4.75L127.58,99Z"/><path class="cls-1" d="M136.63,99V97.58a4.18,4.18,0,0,1-3.52,1.77c-3.25,0-5.33-2.7-5.33-5.8s2.08-5.72,5.25-5.72a4.51,4.51,0,0,1,3.6,1.72V88.18h3.05V99Zm-2.7-8.45a3,3,0,1,0,3,3A3,3,0,0,0,133.93,90.55Z"/><path class="cls-1" d="M162.65,99V93.08c0-1.28-.2-2.68-1.8-2.68-1.77,0-2.07,1.63-2.07,3V99h-3V93.25a4.72,4.72,0,0,0-.23-1.8,1.74,1.74,0,0,0-1.62-1,2,2,0,0,0-1.7,1,4.4,4.4,0,0,0-.35,2.07V99h-3V88.18h3V89.4a4.16,4.16,0,0,1,3.3-1.57,3.67,3.67,0,0,1,3.37,2,4,4,0,0,1,3.55-2,3.55,3.55,0,0,1,3,1.55,4.75,4.75,0,0,1,.58,2.62v7Z"/><path class="cls-1" d="M174.21,99.35c-3.45,0-6.2-2.15-6.2-5.75s2.75-5.77,6.22-5.77,6.15,2.17,6.15,5.75S177.63,99.35,174.21,99.35Zm-2.63-13.2a1.8,1.8,0,1,1,0-3.6,1.8,1.8,0,0,1,0,3.6Zm2.6,4.4a3,3,0,1,0,3.07,3A3.07,3.07,0,0,0,174.18,90.55Zm2.6-4.4a1.83,1.83,0,0,1-1.8-1.8,1.8,1.8,0,1,1,1.8,1.8Z"/><path class="cls-1" d="M185.76,90.78V99h-3V90.78h-1.2v-2.6h1.2v-3.7h3v3.7h2.12v2.6Z"/><path class="cls-1" d="M192,94.08c.05,1.67.85,2.9,2.65,2.9a2.83,2.83,0,0,0,2.57-1.45L200,96a5.3,5.3,0,0,1-5.32,3.37,5.43,5.43,0,0,1-5.8-5.77,5.36,5.36,0,0,1,5.67-5.75c3.58,0,5.53,2.4,5.53,5.85v.4ZM194.6,90a2.45,2.45,0,0,0-2.52,2.17h5.12A2.5,2.5,0,0,0,194.6,90Z"/><path class="cls-1" d="M216.05,99V93c0-1.47-.32-2.6-2.05-2.6s-2.32,1.38-2.32,3V99h-3V88.18h3V89.5a4,4,0,0,1,3.4-1.67,3.74,3.74,0,0,1,4,4.3V99Z"/><path class="cls-1" d="M227.21,99.35c-3,0-5.23-1.32-5.23-4.55V88.18h3V94.3c0,1.48.63,2.48,2.21,2.48s2.19-1,2.19-2.48V88.18h3V94.8C232.45,98,230.18,99.35,227.21,99.35Z"/><path class="cls-1" d="M237,99.32A1.95,1.95,0,1,1,239,97.38,2,2,0,0,1,237,99.32Zm-1.55-5.09V82.33h3.1v11.9Z"/></svg>