<svg id="Layer_1" data-name="Layer 1" xmlns="http://www.w3.org/2000/svg" viewBox="0 0 320 160"><defs><style>.cls-1{fill:#d80201;}</style></defs><title>text</title><path class="cls-1" d="M150.93,60.77c-1.43,1.54-3.67,1.3-5.59,1.3V67.5h-2.86V52.82h4.27a5.32,5.32,0,0,1,3.87,1.12,4.67,4.67,0,0,1,1.5,3.54A4.82,4.82,0,0,1,150.93,60.77Zm-2.51-5a3.42,3.42,0,0,0-2.09-.46h-1v4.27h1.17c1.43,0,2.66-.46,2.66-2.11A2.18,2.18,0,0,0,148.43,55.77Z"/><path class="cls-1" d="M160.06,60.39a2.36,2.36,0,0,0-1.28-.33c-1.8,0-2.29,1.28-2.29,2.86V67.5h-2.66V58h2.66V59.4a3.11,3.11,0,0,1,3.94-1.52Z"/><path class="cls-1" d="M164,63.17c0,1.47.75,2.55,2.33,2.55a2.5,2.5,0,0,0,2.27-1.28l2.46.4a4.67,4.67,0,0,1-4.69,3,4.78,4.78,0,0,1-5.11-5.08,4.72,4.72,0,0,1,5-5.06c3.15,0,4.86,2.11,4.86,5.15v.35Zm2.31-3.61a2.16,2.16,0,0,0-2.22,1.91h4.51A2.21,2.21,0,0,0,166.29,59.56Z"/><path class="cls-1" d="M185.32,67.5V62.29c0-1.12-.18-2.35-1.58-2.35-1.56,0-1.83,1.43-1.83,2.68V67.5h-2.66V62.44a4.24,4.24,0,0,0-.2-1.58,1.54,1.54,0,0,0-1.43-.92,1.74,1.74,0,0,0-1.5.86,4,4,0,0,0-.31,1.83V67.5h-2.66V58h2.66v1.08a3.66,3.66,0,0,1,2.9-1.39,3.24,3.24,0,0,1,3,1.74,3.52,3.52,0,0,1,3.12-1.74A3.13,3.13,0,0,1,187.48,59a4.19,4.19,0,0,1,.51,2.31V67.5Z"/><path class="cls-1" d="M191.83,55.55a1.61,1.61,0,1,1,0-3.21,1.61,1.61,0,0,1,0,3.21ZM190.49,67.5V58h2.66V67.5Z"/><path class="cls-1" d="M202.94,67.5V66.25a3.68,3.68,0,0,1-3.1,1.56c-2.86,0-4.69-2.38-4.69-5.1a4.76,4.76,0,0,1,4.62-5,4,4,0,0,1,3.17,1.52V58h2.68V67.5Zm-4.6-11.31a1.58,1.58,0,0,1,0-3.17,1.58,1.58,0,1,1,0,3.17Zm2.22,3.87a2.67,2.67,0,1,0,2.66,2.66A2.66,2.66,0,0,0,200.56,60.06Zm2.35-3.87a1.61,1.61,0,0,1-1.58-1.58,1.58,1.58,0,1,1,1.58,1.58Z"/><path class="cls-1" d="M214.4,60.39a2.36,2.36,0,0,0-1.28-.33c-1.8,0-2.29,1.28-2.29,2.86V67.5h-2.66V58h2.66V59.4a3.11,3.11,0,0,1,3.94-1.52Z"/><path class="cls-1" d="M228.11,67.5V62.22c0-1.3-.29-2.29-1.8-2.29s-2,1.21-2,2.64V67.5H221.6V58h2.66v1.17a3.52,3.52,0,0,1,3-1.47,3.29,3.29,0,0,1,3.52,3.78V67.5Z"/><path class="cls-1" d="M235.61,72.61h-3l3.5-6.54L231.58,58h3.1l2.86,5.41L240.27,58h3Z"/><path class="cls-1" d="M247.29,60.26V67.5h-2.66V60.26h-1.06V58h1.06V54.72h2.66V58h1.87v2.29Z"/><path class="cls-1" d="M253.23,60.26V67.5h-2.66V60.26h-1.06V58h1.06V54.72h2.66V58h1.87v2.29Z"/><path class="cls-1" d="M147.64,95.7h-1.23L141.55,86h3L147,91.34,149.56,86h3Z"/><path class="cls-1" d="M155.15,83.55a1.61,1.61,0,1,1,0-3.21,1.61,1.61,0,0,1,0,3.21ZM153.8,95.5V86h2.66V95.5Z"/><path class="cls-1" d="M162,95.81a5.07,5.07,0,0,1-3.63-1.58l1.41-1.63A3.1,3.1,0,0,0,162,93.72a1.12,1.12,0,0,0,1.21-1.06c0-1.63-4.25-.81-4.25-4,0-1.94,1.61-3,3.41-3a4.91,4.91,0,0,1,3.1,1l-1.32,1.56a2.65,2.65,0,0,0-1.58-.64c-.46,0-1,.29-1,.81,0,1.39,4.4.77,4.4,4C166,94.62,164.06,95.81,162,95.81Z"/><path class="cls-1" d="M174.4,95.5V90.22c0-1.3-.29-2.29-1.8-2.29s-2,1.21-2,2.64V95.5h-2.66V86h2.66v1.17a3.52,3.52,0,0,1,3-1.47,3.29,3.29,0,0,1,3.52,3.78V95.5Z"/><path class="cls-1" d="M180.91,83.55a1.61,1.61,0,1,1,0-3.21,1.61,1.61,0,0,1,0,3.21ZM179.57,95.5V86h2.66V95.5Z"/><path class="cls-1" d="M191.25,95.5V90.22c0-1.3-.29-2.29-1.8-2.29s-2,1.21-2,2.64V95.5h-2.66V86h2.66v1.17a3.52,3.52,0,0,1,3-1.47,3.29,3.29,0,0,1,3.52,3.78V95.5Z"/><path class="cls-1" d="M205.31,99a5.2,5.2,0,0,1-4,1.67c-2.44,0-4.8-1.41-5.06-4h2.88a2.12,2.12,0,0,0,2.27,1.74c1.67,0,2.35-1.17,2.35-2.71V94.22a4,4,0,0,1-3.21,1.58c-2.82,0-4.53-2.27-4.53-5s1.76-5.19,4.66-5.19a3.57,3.57,0,0,1,3.08,1.54V86h2.68v9.18A5.13,5.13,0,0,1,205.31,99Zm-3.94-10.89A2.67,2.67,0,1,0,204,90.73,2.66,2.66,0,0,0,201.37,88.06Z"/><path class="cls-1" d="M212,95.81a5.07,5.07,0,0,1-3.63-1.58l1.41-1.63A3.09,3.09,0,0,0,212,93.72a1.12,1.12,0,0,0,1.21-1.06c0-1.63-4.25-.81-4.25-4,0-1.94,1.61-3,3.41-3a4.91,4.91,0,0,1,3.1,1l-1.32,1.56a2.65,2.65,0,0,0-1.58-.64c-.46,0-1,.29-1,.81,0,1.39,4.4.77,4.4,4C216,94.62,214,95.81,212,95.81Z"/><path class="cls-1" d="M224.36,95.5V90.29c0-1.32-.29-2.35-1.83-2.35s-2,1.28-2,2.68V95.5h-2.66V79h2.66v8.19a3.47,3.47,0,0,1,3-1.54,3.64,3.64,0,0,1,2.77,1.17,3.78,3.78,0,0,1,.75,2.68v6Z"/><path class="cls-1" d="M234.17,95.81c-2.62,0-4.6-1.17-4.6-4V86h2.66v5.39c0,1.3.55,2.18,1.94,2.18s1.94-.88,1.94-2.18V86h2.68V91.8C238.79,94.64,236.79,95.81,234.17,95.81Z"/><path class="cls-1" d="M244.38,95.81a5.07,5.07,0,0,1-3.63-1.58l1.41-1.63a3.1,3.1,0,0,0,2.24,1.12,1.12,1.12,0,0,0,1.21-1.06c0-1.63-4.25-.81-4.25-4,0-1.94,1.61-3,3.41-3a4.91,4.91,0,0,1,3.1,1l-1.32,1.56a2.65,2.65,0,0,0-1.58-.64c-.46,0-1,.29-1,.81,0,1.39,4.4.77,4.4,4C248.36,94.62,246.42,95.81,244.38,95.81Z"/><path class="cls-1" d="M251.72,95.79a1.72,1.72,0,1,1,1.72-1.72A1.72,1.72,0,0,1,251.72,95.79Zm-1.36-4.49V80.82h2.73V91.3Z"/></svg>