<svg id="Layer_1" data-name="Layer 1" xmlns="http://www.w3.org/2000/svg" viewBox="0 0 580 400"><defs><style>.cls-1{fill:#d4ac76;}</style></defs><title>text</title><path class="cls-1" d="M48.11,168.07,54,153.38h1.85l5.79,14.69H59.38l-.89-2.26h-7.2l-.91,2.26Zm6.82-11.32-2.85,7.1h5.64Zm1.42-4.36a2,2,0,0,1-1.42.57,2,2,0,1,1,0-4,2,2,0,0,1,1.42,3.41Zm-1.42-.6a.73.73,0,0,0,.56-.25.81.81,0,0,0,0-1.15.76.76,0,0,0-.56-.24.81.81,0,0,0-.58,1.39A.76.76,0,0,0,54.93,151.79Z"/><path class="cls-1" d="M62.51,155.34v-2h11.9v2H69.49v12.73H67.43V155.34Z"/><path class="cls-1" d="M77.31,155.34v-2h11.9v2H84.29v12.73H82.23V155.34Z"/><path class="cls-1" d="M90.16,168.07l5.9-14.69h1.85l5.78,14.69h-2.27l-.88-2.26h-7.2l-.91,2.26ZM97,156.75l-2.86,7.1h5.65Z"/><path class="cls-1" d="M116,168.07V153.38h1.43l8,10.12V153.38h2.05v14.69h-1.14L118,157.58v10.49Z"/><path class="cls-1" d="M141.18,153.38h2.37l-4.89,8.78v5.91h-2v-5.83l-4.94-8.86h2.46l3.55,6.52Z"/><path class="cls-1" d="M144.4,168.07l5.9-14.69h1.85l5.79,14.69h-2.27l-.89-2.26h-7.2l-.91,2.26Zm6.82-11.32-2.85,7.1H154Z"/><path class="cls-1" d="M179.4,168.07v-6.36h-7.14v6.36H170.2V153.38h2.06v6.37h7.14v-6.37h2v14.69Z"/><path class="cls-1" d="M192.58,168.32a5.13,5.13,0,0,1-3.83-1.54,5.34,5.34,0,0,1-1.5-3.88v-9.52h2.05v9.4a3.74,3.74,0,0,0,.88,2.56,3,3,0,0,0,2.4,1,3.07,3.07,0,0,0,2.43-1,3.71,3.71,0,0,0,.88-2.57v-9.41h2.05v9.52a5.33,5.33,0,0,1-1.49,3.88A5.19,5.19,0,0,1,192.58,168.32Z"/><path class="cls-1" d="M207.6,168.26a6.86,6.86,0,0,1-2.74-.59,7.22,7.22,0,0,1-2.33-1.58l1.44-1.66a5.84,5.84,0,0,0,1.7,1.34,4.24,4.24,0,0,0,2,.53,2.86,2.86,0,0,0,1.9-.62,2,2,0,0,0,.73-1.57,2.58,2.58,0,0,0-1.85-2.4l-1.74-.69a5.93,5.93,0,0,1-2.4-1.58,3.42,3.42,0,0,1-.79-2.32,3.7,3.7,0,0,1,1.21-2.78,4.23,4.23,0,0,1,3-1.15,6,6,0,0,1,4.26,1.62l-1.23,1.66a4.07,4.07,0,0,0-3-1.32,2.33,2.33,0,0,0-1.56.51,1.7,1.7,0,0,0-.6,1.36,1.65,1.65,0,0,0,.44,1.14,4.21,4.21,0,0,0,1.49.91l1.77.71c2.14.86,3.17,2.25,3.08,4.19a4,4,0,0,1-1.29,3.09A5,5,0,0,1,207.6,168.26Z"/><path class="cls-1" d="M225.46,168.07V153.38h8v2h-6V160h5.28v1.95h-5.28v6.16Z"/><path class="cls-1" d="M244.56,168.34a7.2,7.2,0,0,1-5.29-2.18,7.86,7.86,0,0,1,0-10.89,7.51,7.51,0,0,1,10.57,0,7.81,7.81,0,0,1,0,10.87A7.2,7.2,0,0,1,244.56,168.34Zm-3.84-3.61a5.29,5.29,0,0,0,7.68,0,5.53,5.53,0,0,0,1.58-4,5.6,5.6,0,0,0-1.58-4,5.29,5.29,0,0,0-7.68,0,5.88,5.88,0,0,0,0,8Zm2.46-12.9a1,1,0,0,1-.73.32.93.93,0,0,1-.72-.32,1.15,1.15,0,0,1-.3-.8,1.14,1.14,0,0,1,.3-.8.9.9,0,0,1,.72-.32.94.94,0,0,1,.73.32,1.1,1.1,0,0,1,.31.8A1.12,1.12,0,0,1,243.18,151.83Zm4.08,0a1,1,0,0,1-.73.32,1,1,0,0,1-.73-.32,1.15,1.15,0,0,1-.3-.8,1.14,1.14,0,0,1,.3-.8.92.92,0,0,1,.73-.32.94.94,0,0,1,.73.32,1.17,1.17,0,0,1,.29.8A1.19,1.19,0,0,1,247.26,151.83Z"/><path class="cls-1" d="M257.19,168.07V153.38h5.45a4.57,4.57,0,0,1,3.3,1.28,4.38,4.38,0,0,1,1.33,3.32,4.33,4.33,0,0,1-3.91,4.5l4.26,5.59h-2.53l-4.22-5.61h-1.63v5.61Zm5.17-12.73h-3.12v5.3h3.1a3,3,0,0,0,2.08-.72,2.67,2.67,0,0,0,0-3.82A2.86,2.86,0,0,0,262.36,155.34Z"/><path class="cls-1" d="M288.46,161.63h-6v4.48h6.46v2h-8.51V153.38h8.39v2h-6.34v4.33h6Z"/><path class="cls-1" d="M294,168.07V153.38h1.43l8,10.12V153.38h2.05v14.69h-1.14L296,157.58v10.49Z"/><path class="cls-1" d="M327.58,161.63h-6v4.48H328v2h-8.51V153.38h8.39v2h-6.34v4.33h6Z"/><path class="cls-1" d="M333.09,168.07V153.38h1.43l8,10.12V153.38h2v14.69h-1.14l-8.25-10.49v10.49Z"/><path class="cls-1" d="M350.67,168.07V153.38h2.05v7l6.11-7h2.76l-5.18,5.83,5.31,8.86h-2.54l-4.28-7.17-2.18,2.46v4.71Z"/><path class="cls-1" d="M366.19,168.07V153.38h2.05v12.73h6v2Z"/><path class="cls-1" d="M377.26,168.07l5.9-14.69H385l5.78,14.69h-2.27l-.89-2.26h-7.19l-.91,2.26Zm6.83-11.32-2.86,7.1h5.64Z"/><path class="cls-1" d="M394.88,168.07V153.38h5.45a4.61,4.61,0,0,1,3.31,1.28,4.54,4.54,0,0,1-2.58,7.82l4.25,5.59h-2.53l-4.22-5.61h-1.63v5.61Zm5.18-12.73h-3.13v5.3H400a3,3,0,0,0,2.07-.72,2.65,2.65,0,0,0,0-3.82A2.85,2.85,0,0,0,400.06,155.34Z"/><path class="cls-1" d="M418.21,161.63h-6v4.48h6.46v2h-8.51V153.38h8.39v2h-6.34v4.33h6Z"/><path class="cls-1" d="M440.86,168.07v-6.36h-7.15v6.36h-2V153.38h2v6.37h7.15v-6.37h2.05v14.69Z"/><path class="cls-1" d="M454,168.32a5.15,5.15,0,0,1-3.83-1.54,5.34,5.34,0,0,1-1.5-3.88v-9.52h2.06v9.4a3.78,3.78,0,0,0,.87,2.56,3,3,0,0,0,2.4,1,3.07,3.07,0,0,0,2.43-1,3.72,3.72,0,0,0,.89-2.57v-9.41h2v9.52a5.37,5.37,0,0,1-1.49,3.88A5.2,5.2,0,0,1,454,168.32Z"/><path class="cls-1" d="M469.06,168.26a6.91,6.91,0,0,1-2.75-.59,7.17,7.17,0,0,1-2.32-1.58l1.44-1.66a5.79,5.79,0,0,0,1.69,1.34,4.31,4.31,0,0,0,2,.53,2.85,2.85,0,0,0,1.89-.62,2,2,0,0,0,.74-1.57,2.58,2.58,0,0,0-1.86-2.4L468.2,161a6,6,0,0,1-2.41-1.58,3.46,3.46,0,0,1-.78-2.32,3.7,3.7,0,0,1,1.21-2.78,4.2,4.2,0,0,1,3-1.15,6,6,0,0,1,4.27,1.62l-1.24,1.66a4,4,0,0,0-3-1.32,2.32,2.32,0,0,0-1.55.51,1.7,1.7,0,0,0-.6,1.36,1.6,1.6,0,0,0,.44,1.14,4.21,4.21,0,0,0,1.49.91l1.76.71c2.14.86,3.17,2.25,3.09,4.19a4,4,0,0,1-1.3,3.09A4.91,4.91,0,0,1,469.06,168.26Z"/><path class="cls-1" d="M478.88,168.07V153.38h5.45a4.58,4.58,0,0,1,3.3,1.28A4.38,4.38,0,0,1,489,158a4.33,4.33,0,0,1-3.91,4.5l4.26,5.59h-2.53l-4.22-5.61h-1.63v5.61Zm5.17-12.73h-3.12v5.3H484a3,3,0,0,0,2.08-.72,2.67,2.67,0,0,0,0-3.82A2.86,2.86,0,0,0,484.05,155.34Z"/><path class="cls-1" d="M502.21,161.63h-6v4.48h6.46v2h-8.52V153.38h8.4v2h-6.34v4.33h6Z"/><path class="cls-1" d="M511.45,168.26a6.91,6.91,0,0,1-2.75-.59,7.17,7.17,0,0,1-2.32-1.58l1.44-1.66a5.79,5.79,0,0,0,1.69,1.34,4.3,4.3,0,0,0,2,.53,2.86,2.86,0,0,0,1.9-.62,2,2,0,0,0,.74-1.57,2.58,2.58,0,0,0-1.86-2.4l-1.73-.69a6,6,0,0,1-2.41-1.58,3.47,3.47,0,0,1-.79-2.32,3.71,3.71,0,0,1,1.22-2.78,4.19,4.19,0,0,1,3-1.15,6,6,0,0,1,4.27,1.62l-1.24,1.66a4,4,0,0,0-3-1.32,2.32,2.32,0,0,0-1.55.51,1.7,1.7,0,0,0-.6,1.36,1.6,1.6,0,0,0,.44,1.14,4.11,4.11,0,0,0,1.49.91l1.76.71c2.14.86,3.17,2.25,3.09,4.19a4,4,0,0,1-1.3,3.09A4.91,4.91,0,0,1,511.45,168.26Z"/><path class="cls-1" d="M519.55,168.07l5.9-14.69h1.86l5.78,14.69h-2.27l-.89-2.26h-7.19l-.91,2.26Zm6.83-11.32-2.86,7.1h5.64Z"/></svg>