<svg id="Layer_1" data-name="Layer 1" xmlns="http://www.w3.org/2000/svg" viewBox="0 0 320 160"><defs><style>.cls-1{fill:#d4ac76;}</style></defs><title>text</title><path class="cls-1" d="M130.7,99.92V93h1v3.3l2.9-3.3h1.31l-2.45,2.76,2.52,4.2h-1.21l-2-3.39-1,1.16v2.23Z"/><path class="cls-1" d="M138,99.92V93h2.58a2.18,2.18,0,0,1,1.57.61,2.15,2.15,0,0,1-1.22,3.7l2,2.65h-1.2l-2-2.66H139v2.66Zm2.45-6H139v2.51h1.47a1.41,1.41,0,0,0,1-.34,1.26,1.26,0,0,0,0-1.8A1.36,1.36,0,0,0,140.5,93.89Z"/><path class="cls-1" d="M148.4,100.05a3.42,3.42,0,0,1-2.51-1,3.74,3.74,0,0,1,0-5.16,3.56,3.56,0,0,1,5,0,3.71,3.71,0,0,1,0,5.15A3.42,3.42,0,0,1,148.4,100.05Zm-1.82-1.71a2.52,2.52,0,0,0,3.64,0,2.78,2.78,0,0,0,0-3.8,2.5,2.5,0,0,0-3.64,0,2.79,2.79,0,0,0,0,3.8Zm1.17-6.12a.46.46,0,0,1-.35.15.44.44,0,0,1-.34-.15.58.58,0,0,1,0-.76.45.45,0,0,1,.34-.15.46.46,0,0,1,.35.15.57.57,0,0,1,0,.76Zm1.93,0a.47.47,0,0,1-.69,0,.58.58,0,0,1,0-.76.47.47,0,0,1,.69,0,.58.58,0,0,1,0,.76Z"/><path class="cls-1" d="M154.38,99.92V93h.68l3.77,4.79V93h1v7h-.54l-3.91-5v5Z"/><path class="cls-1" d="M164.54,99.92l-2.71-7h1.09L165,98.31,167.09,93h1.07l-2.72,7Z"/><path class="cls-1" d="M168.76,99.92l2.79-7h.88l2.74,7h-1.08l-.42-1.07h-3.41l-.43,1.07Zm2.51-7.7a.45.45,0,0,1-.35.15.44.44,0,0,1-.34-.15.58.58,0,0,1,0-.76.44.44,0,0,1,.34-.15.46.46,0,0,1,.35.15.57.57,0,0,1,0,.76Zm.72,2.33-1.35,3.36h2.67Zm1.21-2.33a.47.47,0,0,1-.69,0,.58.58,0,0,1,0-.76.47.47,0,0,1,.69,0,.58.58,0,0,1,0,.76Z"/><path class="cls-1" d="M181.31,96.9V96h2.31v.49A3.58,3.58,0,0,1,180,100a3.41,3.41,0,0,1-2.54-1,3.75,3.75,0,0,1,0-5.14,3.41,3.41,0,0,1,2.54-1,3.75,3.75,0,0,1,1.46.29,3.57,3.57,0,0,1,1.19.81l-.72.74a2.46,2.46,0,0,0-1.93-.9,2.42,2.42,0,0,0-1.84.79,2.8,2.8,0,0,0,0,3.79,2.43,2.43,0,0,0,1.84.79,2.48,2.48,0,0,0,1.67-.61,2.64,2.64,0,0,0,.88-1.61Z"/><path class="cls-1" d="M189.85,96.87H187V99h3.06v.93h-4V93h4v.93h-3v2.05h2.86Z"/><path class="cls-1" d="M192.46,99.92V93h.68l3.77,4.79V93h1v7h-.54l-3.91-5v5Z"/><path class="cls-1" d="M205.34,99.92V94.21l-1.3.67v-.93l1.85-1h.43v7Z"/><path class="cls-1" d="M210.62,100a2.14,2.14,0,0,1-1.52-.59,1.94,1.94,0,0,1-.65-1.42h1a1,1,0,0,0,.36.76,1.25,1.25,0,0,0,1.68,0,1.11,1.11,0,0,0,.35-.83,1.16,1.16,0,0,0-1.19-1.19h-.4v-.86h.39a1.1,1.1,0,0,0,.81-.32,1.09,1.09,0,0,0,0-1.55,1.13,1.13,0,0,0-.82-.31,1.09,1.09,0,0,0-.8.32,1.06,1.06,0,0,0-.32.78h-1a1.8,1.8,0,0,1,.6-1.39,2.27,2.27,0,0,1,3,0,1.84,1.84,0,0,1,.6,1.39,1.57,1.57,0,0,1-.3.93,1.62,1.62,0,0,1-.77.59,1.68,1.68,0,0,1,.81.62,1.71,1.71,0,0,1,.3,1,2,2,0,0,1-.64,1.47A2.12,2.12,0,0,1,210.62,100Z"/><path class="cls-1" d="M214.06,101.2l.8-2.23.89.32-1.1,2.14Z"/><path class="cls-1" d="M223.68,100a3.25,3.25,0,0,1-1.3-.28,3.44,3.44,0,0,1-1.1-.75l.68-.79a2.66,2.66,0,0,0,.8.63,2.05,2.05,0,0,0,1,.25,1.34,1.34,0,0,0,.9-.3A.93.93,0,0,0,225,98a1.22,1.22,0,0,0-.88-1.14l-.82-.33a2.87,2.87,0,0,1-1.14-.75,1.64,1.64,0,0,1-.37-1.1,1.75,1.75,0,0,1,.57-1.31,2,2,0,0,1,1.42-.55,2.83,2.83,0,0,1,2,.77l-.58.78a1.92,1.92,0,0,0-1.43-.62A1.1,1.1,0,0,0,223,94a.8.8,0,0,0-.29.64.77.77,0,0,0,.21.54,1.94,1.94,0,0,0,.71.43l.84.34a2,2,0,0,1,1.46,2,1.91,1.91,0,0,1-.61,1.46A2.33,2.33,0,0,1,223.68,100Z"/><path class="cls-1" d="M227.52,99.92l2.79-7h.88l2.74,7h-1.08l-.42-1.07H229l-.43,1.07Zm3.23-5.36-1.35,3.36h2.67Z"/><path class="cls-1" d="M235.86,99.92V93h1v6h2.86v.93Z"/><path class="cls-1" d="M239.88,93.89V93h5.63v.93h-2.33v6h-1v-6Z"/><path class="cls-1" d="M249.12,100a3.25,3.25,0,0,1-1.3-.28,3.44,3.44,0,0,1-1.1-.75l.68-.79a2.66,2.66,0,0,0,.8.63,2.05,2.05,0,0,0,1,.25,1.34,1.34,0,0,0,.9-.3.93.93,0,0,0,.35-.74,1.22,1.22,0,0,0-.88-1.14l-.82-.33a2.87,2.87,0,0,1-1.14-.75,1.64,1.64,0,0,1-.37-1.1,1.75,1.75,0,0,1,.57-1.31,2,2,0,0,1,1.42-.55,2.83,2.83,0,0,1,2,.77l-.58.78a1.92,1.92,0,0,0-1.43-.62,1.1,1.1,0,0,0-.74.24.8.8,0,0,0-.29.64.77.77,0,0,0,.21.54,1.94,1.94,0,0,0,.71.43l.84.34a2,2,0,0,1,1.46,2,1.91,1.91,0,0,1-.61,1.46A2.33,2.33,0,0,1,249.12,100Z"/><path class="cls-1" d="M255.27,100a2.34,2.34,0,0,1-1.38-.42,2.16,2.16,0,0,1-.82-1.12l.9-.44a1.53,1.53,0,0,0,.49.77,1.23,1.23,0,0,0,.81.29,1.18,1.18,0,0,0,.94-.39,1.57,1.57,0,0,0,.35-1.08V93h1v4.64a2.42,2.42,0,0,1-.63,1.79A2.2,2.2,0,0,1,255.27,100Z"/><path class="cls-1" d="M263.37,100.05a3.42,3.42,0,0,1-2.51-1,3.74,3.74,0,0,1,0-5.16,3.56,3.56,0,0,1,5,0,3.71,3.71,0,0,1,0,5.15A3.42,3.42,0,0,1,263.37,100.05Zm-1.82-1.71a2.52,2.52,0,0,0,3.64,0,2.78,2.78,0,0,0,0-3.8,2.5,2.5,0,0,0-3.64,0,2.79,2.79,0,0,0,0,3.8Zm1.17-6.12a.46.46,0,0,1-.35.15.44.44,0,0,1-.34-.15.58.58,0,0,1,0-.76.45.45,0,0,1,.34-.15.46.46,0,0,1,.35.15.57.57,0,0,1,0,.76Zm1.93,0a.47.47,0,0,1-.69,0,.58.58,0,0,1,0-.76.47.47,0,0,1,.69,0,.58.58,0,0,1,0,.76Z"/><path class="cls-1" d="M269.08,96.89V96h2.72v.86Z"/><path class="cls-1" d="M274.23,99.92V93h2.13a2.22,2.22,0,0,1,1.53.54,1.79,1.79,0,0,1,.61,1.41,1.64,1.64,0,0,1-.83,1.49,1.78,1.78,0,0,1,.75.63,1.64,1.64,0,0,1,.28.94,1.8,1.8,0,0,1-.61,1.42,2.27,2.27,0,0,1-1.55.53Zm2-6H275.2V96h1.24a1.06,1.06,0,0,0,.77-.31,1.07,1.07,0,0,0,.31-.8.89.89,0,0,0-.35-.73A1.43,1.43,0,0,0,276.26,93.89Zm.22,3H275.2V99h1.21a1.44,1.44,0,0,0,1-.3,1,1,0,0,0,.35-.79,1,1,0,0,0-.32-.74A1.34,1.34,0,0,0,276.47,96.87Z"/><path class="cls-1" d="M284.15,100.05a3.42,3.42,0,0,1-2.51-1,3.74,3.74,0,0,1,0-5.16,3.56,3.56,0,0,1,5,0,3.71,3.71,0,0,1,0,5.15A3.42,3.42,0,0,1,284.15,100.05Zm-1.82-1.71a2.52,2.52,0,0,0,3.64,0,2.78,2.78,0,0,0,0-3.8,2.5,2.5,0,0,0-3.64,0,2.79,2.79,0,0,0,0,3.8Z"/><path class="cls-1" d="M293.36,100.05a3.42,3.42,0,0,1-2.51-1,3.74,3.74,0,0,1,0-5.16,3.56,3.56,0,0,1,5,0,3.71,3.71,0,0,1,0,5.15A3.42,3.42,0,0,1,293.36,100.05Zm-1.82-1.71a2.52,2.52,0,0,0,3.64,0,2.78,2.78,0,0,0,0-3.8,2.5,2.5,0,0,0-3.64,0,2.79,2.79,0,0,0,0,3.8Z"/><path class="cls-1" d="M128.5,113a3.25,3.25,0,0,1-1.3-.28,3.44,3.44,0,0,1-1.1-.75l.68-.79a2.66,2.66,0,0,0,.8.63,2.05,2.05,0,0,0,1,.25,1.34,1.34,0,0,0,.9-.3.93.93,0,0,0,.35-.74,1.22,1.22,0,0,0-.88-1.14l-.82-.33a2.87,2.87,0,0,1-1.14-.75,1.64,1.64,0,0,1-.37-1.1,1.75,1.75,0,0,1,.57-1.31,2,2,0,0,1,1.42-.55,2.83,2.83,0,0,1,2,.77l-.58.78a1.92,1.92,0,0,0-1.43-.62,1.1,1.1,0,0,0-.74.24.8.8,0,0,0-.29.64.77.77,0,0,0,.21.54,1.94,1.94,0,0,0,.71.43l.84.34a2,2,0,0,1,1.46,2,1.91,1.91,0,0,1-.61,1.46A2.33,2.33,0,0,1,128.5,113Z"/><path class="cls-1" d="M136.33,113.05a3.42,3.42,0,0,1-2.51-1,3.74,3.74,0,0,1,0-5.16,3.56,3.56,0,0,1,5,0,3.71,3.71,0,0,1,0,5.15A3.42,3.42,0,0,1,136.33,113.05Zm-1.82-1.71a2.52,2.52,0,0,0,3.64,0,2.78,2.78,0,0,0,0-3.8,2.5,2.5,0,0,0-3.64,0,2.79,2.79,0,0,0,0,3.8Zm1.17-6.12a.46.46,0,0,1-.35.15.44.44,0,0,1-.34-.15.58.58,0,0,1,0-.76.45.45,0,0,1,.34-.15.46.46,0,0,1,.35.15.57.57,0,0,1,0,.76Zm1.93,0a.47.47,0,0,1-.69,0,.58.58,0,0,1,0-.76.47.47,0,0,1,.69,0,.58.58,0,0,1,0,.76Z"/><path class="cls-1" d="M142.31,112.92v-7H143l3.77,4.79V106h1v7h-.54l-3.91-5v5Z"/><path class="cls-1" d="M150.64,112.92v-7h1.86a3.5,3.5,0,0,1,2.43,6,3.4,3.4,0,0,1-2.47,1Zm1.9-6h-.93V112h1a2.25,2.25,0,0,0,1.71-.75,2.57,2.57,0,0,0,.69-1.82,2.48,2.48,0,0,0-.72-1.81A2.32,2.32,0,0,0,152.54,106.89Z"/><path class="cls-1" d="M157.32,112.92l2.79-7H161l2.74,7h-1.08l-.42-1.07h-3.41l-.43,1.07Zm3.23-5.36-1.35,3.36h2.67Z"/><path class="cls-1" d="M169.88,109.9V109h2.31v.49a3.58,3.58,0,0,1-3.6,3.58,3.41,3.41,0,0,1-2.54-1,3.75,3.75,0,0,1,0-5.14,3.41,3.41,0,0,1,2.54-1,3.75,3.75,0,0,1,1.46.29,3.57,3.57,0,0,1,1.19.81l-.72.74a2.46,2.46,0,0,0-1.93-.9,2.42,2.42,0,0,0-1.84.79,2.8,2.8,0,0,0,0,3.79,2.43,2.43,0,0,0,1.84.79,2.48,2.48,0,0,0,1.67-.61,2.64,2.64,0,0,0,.88-1.61Z"/><path class="cls-1" d="M177.86,112.92v-.61l2.78-3.67a1.39,1.39,0,0,0,.39-.88,1,1,0,0,0-.3-.74,1.06,1.06,0,0,0-.78-.3,1,1,0,0,0-.77.34,1.34,1.34,0,0,0-.32.88h-1a2,2,0,0,1,.58-1.48,2,2,0,0,1,1.48-.6,2.07,2.07,0,0,1,1.48.54,1.79,1.79,0,0,1,.58,1.37,2.49,2.49,0,0,1-.73,1.54l-2.17,2.76h3v.86Z"/><path class="cls-1" d="M183.58,111.33v-.61L186,106h1l-2.29,4.5h1.5V109.3h1v1.17H188v.86h-.84v1.59h-1v-1.59Z"/><path class="cls-1" d="M195.82,113a3.25,3.25,0,0,1-1.3-.28,3.44,3.44,0,0,1-1.1-.75l.68-.79a2.66,2.66,0,0,0,.8.63,2.05,2.05,0,0,0,1,.25,1.34,1.34,0,0,0,.9-.3.93.93,0,0,0,.35-.74,1.22,1.22,0,0,0-.88-1.14l-.82-.33a2.87,2.87,0,0,1-1.14-.75,1.64,1.64,0,0,1-.37-1.1,1.75,1.75,0,0,1,.57-1.31,2,2,0,0,1,1.42-.55,2.83,2.83,0,0,1,2,.77l-.58.78a1.92,1.92,0,0,0-1.43-.62,1.1,1.1,0,0,0-.74.24.8.8,0,0,0-.29.64.77.77,0,0,0,.21.54,1.94,1.94,0,0,0,.71.43l.84.34a2,2,0,0,1,1.46,2,1.91,1.91,0,0,1-.61,1.46A2.33,2.33,0,0,1,195.82,113Z"/><path class="cls-1" d="M204.3,109.87h-2.86V112h3.06v.93h-4v-7h4v.93h-3v2.05h2.86Z"/><path class="cls-1" d="M206.91,112.92v-7h2.38a2.19,2.19,0,0,1,1.61.65,2.25,2.25,0,0,1,.65,1.66,2.18,2.18,0,0,1-.67,1.63,2.25,2.25,0,0,1-1.63.65h-1.36v2.38Zm2.31-6h-1.34v2.73h1.34a1.28,1.28,0,0,0,1.35-1.35,1.35,1.35,0,0,0-.38-1A1.3,1.3,0,0,0,209.22,106.89Z"/><path class="cls-1" d="M213,106.89V106h5.63v.93h-2.33v6h-1v-6Z"/><path class="cls-1" d="M224.38,109.87h-2.86V112h3.06v.93h-4v-7h4v.93h-3v2.05h2.86Z"/><path class="cls-1" d="M227,112.92v-7h1l2.24,3.71,2.28-3.71h1v7h-1v-5.14l0,0-2.24,3.6L228,107.82H228v5.11Z"/><path class="cls-1" d="M236.32,112.92v-7h2.13a2.22,2.22,0,0,1,1.53.54,1.79,1.79,0,0,1,.61,1.41,1.64,1.64,0,0,1-.83,1.49,1.78,1.78,0,0,1,.75.63,1.64,1.64,0,0,1,.28.94,1.8,1.8,0,0,1-.61,1.42,2.27,2.27,0,0,1-1.55.53Zm2-6H237.3V109h1.24a1.06,1.06,0,0,0,.77-.31,1.07,1.07,0,0,0,.31-.8.89.89,0,0,0-.35-.73A1.43,1.43,0,0,0,238.35,106.89Zm.22,3H237.3V112h1.21a1.44,1.44,0,0,0,1-.3,1,1,0,0,0,.35-.79,1,1,0,0,0-.32-.74A1.34,1.34,0,0,0,238.57,109.87Z"/><path class="cls-1" d="M247.06,109.87H244.2V112h3.06v.93h-4v-7h4v.93h-3v2.05h2.86Z"/><path class="cls-1" d="M249.67,112.92v-7h2.58a2.18,2.18,0,0,1,1.57.61,2.15,2.15,0,0,1-1.22,3.7l2,2.65h-1.2l-2-2.66h-.77v2.66Zm2.45-6h-1.48v2.51h1.47a1.41,1.41,0,0,0,1-.34,1.26,1.26,0,0,0,0-1.8A1.36,1.36,0,0,0,252.12,106.89Z"/><path class="cls-1" d="M260.65,112.92v-7h1v3.3l2.9-3.3h1.31l-2.45,2.76,2.52,4.2h-1.21l-2-3.39-1,1.16v2.23Z"/><path class="cls-1" d="M268,112.92v-7h1v6h2.86v.93Z"/><path class="cls-1" d="M278.52,112.92v-5.71l-1.3.67v-.93l1.85-1h.43v7Z"/><path class="cls-1" d="M281.68,111.33v-.61L284.1,106h1l-2.29,4.5h1.5V109.3h1v1.17h.84v.86h-.84v1.59h-1v-1.59Z"/><path class="cls-1" d="M288,109.89V109h2.72v.86Z"/><path class="cls-1" d="M293.35,112.92v-5.71l-1.3.67v-.93l1.85-1h.43v7Z"/><path class="cls-1" d="M299,113a2.09,2.09,0,0,1-1.53-.61,2,2,0,0,1-.62-1.47V108a2.08,2.08,0,0,1,.62-1.56,2.26,2.26,0,0,1,3-.06,1.83,1.83,0,0,1,.6,1.43h-1a1.07,1.07,0,0,0-.31-.8,1.09,1.09,0,0,0-.8-.31,1.12,1.12,0,0,0-.84.35,1.24,1.24,0,0,0-.34.9v1.48a1.54,1.54,0,0,1,1.2-.55,2.1,2.1,0,0,1,1.52.6,2,2,0,0,1,0,2.94A2.13,2.13,0,0,1,299,113Zm0-.86a1.13,1.13,0,0,0,.84-.36,1.18,1.18,0,0,0,.35-.85,1.18,1.18,0,0,0-2-.87,1.13,1.13,0,0,0-.35.87,1.21,1.21,0,0,0,.34.85A1.08,1.08,0,0,0,299,112.17Z"/></svg>