<svg id="Layer_1" data-name="Layer 1" xmlns="http://www.w3.org/2000/svg" viewBox="0 0 300 250"><defs><style>.cls-1{fill:#fff;}</style></defs><title>text</title><path class="cls-1" d="M94.94,81.16h5.24c3.12,0,5.61,1.14,5.61,4.62s-2.58,4.86-5.61,4.86h-2v4.87H94.94Zm5,6.91c1.78,0,2.64-.79,2.64-2.29s-.93-2-2.64-2H98.2v4.34Z"/><path class="cls-1" d="M112.23,84.33a5.74,5.74,0,1,1-5.32,5.72A5.34,5.34,0,0,1,112.23,84.33Zm0,8.82c1.32,0,2-1.21,2-3.1s-.68-3.1-2-3.1-2,1.21-2,3.1S110.89,93.15,112.23,93.15Z"/><path class="cls-1" d="M118.68,84.59h3.21L123,89.65c.17,1.08.3,2.14.48,3.24h.09c.2-1.1.37-2.2.64-3.24l1.21-5.06h2.79l1.23,5.06c.27,1.08.46,2.14.68,3.24h.09c.2-1.1.31-2.16.51-3.24l1-5.06h3l-2.61,10.92h-3.79l-1-4.36c-.22-1-.39-2-.59-3.19h-.09c-.2,1.17-.35,2.18-.55,3.19l-1,4.36h-3.7Z"/><path class="cls-1" d="M141,84.33c3.11,0,4.65,2.26,4.65,5.24a6.8,6.8,0,0,1-.13,1.36H139a2.65,2.65,0,0,0,2.84,2.38,4.43,4.43,0,0,0,2.35-.73l1.08,2a7.12,7.12,0,0,1-3.87,1.23,5.31,5.31,0,0,1-5.52-5.72C135.84,86.51,138.37,84.33,141,84.33Zm1.9,4.6c0-1.26-.53-2.14-1.83-2.14-1,0-1.89.68-2.11,2.14Z"/><path class="cls-1" d="M147.87,80.08h3.24V92.25c0,.68.3.9.57.9a1.43,1.43,0,0,0,.39,0l.4,2.4a4.3,4.3,0,0,1-1.63.26c-2.22,0-3-1.45-3-3.65Z"/><path class="cls-1" d="M158.74,80.08H162v3.79l-.15,1.95a5,5,0,0,1,3.36-1.49c2.38,0,3.39,1.67,3.39,4.4v6.78h-3.23V89.15c0-1.59-.42-2.07-1.34-2.07a2.77,2.77,0,0,0-2,1v7.38h-3.23Z"/><path class="cls-1" d="M177,88.49a1.52,1.52,0,0,0-1.71-1.59,6,6,0,0,0-2.91,1l-1.14-2.13a9,9,0,0,1,4.66-1.43c2.8,0,4.34,1.58,4.34,4.93v6.25h-2.64l-.24-1.13h-.07a4.77,4.77,0,0,1-3.19,1.39,3.14,3.14,0,0,1-3.24-3.3C170.9,90.18,172.73,88.93,177,88.49Zm-1.8,4.77a2.42,2.42,0,0,0,1.8-.92V90.42c-2.31.31-3.06,1-3.06,1.81S174.47,93.26,175.24,93.26Z"/><path class="cls-1" d="M183.53,92.23a4.68,4.68,0,0,0,2.82,1.14c1,0,1.39-.35,1.39-.92,0-.73-1.11-1.06-2.23-1.5-1.32-.5-2.88-1.41-2.88-3.21,0-2,1.65-3.41,4.18-3.41a6.29,6.29,0,0,1,3.85,1.38l-1.45,1.94a4,4,0,0,0-2.31-.92c-.84,0-1.23.31-1.23.85,0,.71,1,1,2.13,1.39,1.39.51,2.95,1.28,2.95,3.28s-1.56,3.52-4.49,3.52a7.06,7.06,0,0,1-4.18-1.52Z"/><path class="cls-1" d="M197.85,92.23a4.7,4.7,0,0,0,2.82,1.14c1,0,1.39-.35,1.39-.92,0-.73-1.1-1.06-2.23-1.5-1.32-.5-2.88-1.41-2.88-3.21,0-2,1.65-3.41,4.18-3.41A6.29,6.29,0,0,1,205,85.71l-1.45,1.94a4,4,0,0,0-2.31-.92c-.84,0-1.23.31-1.23.85,0,.71,1,1,2.13,1.39,1.39.51,2.95,1.28,2.95,3.28s-1.56,3.52-4.49,3.52a7.06,7.06,0,0,1-4.18-1.52Z"/><path class="cls-1" d="M207.56,87.12h-1.5v-2.4l1.67-.13.38-2.9h2.68v2.9h2.62v2.53h-2.62V91.5c0,1.23.55,1.74,1.41,1.74a3,3,0,0,0,1-.22l.51,2.35a7.74,7.74,0,0,1-2.42.4c-2.71,0-3.76-1.69-3.76-4.22Z"/><path class="cls-1" d="M221,88.49a1.52,1.52,0,0,0-1.72-1.59,6,6,0,0,0-2.9,1l-1.14-2.13a8.94,8.94,0,0,1,4.66-1.43c2.79,0,4.33,1.58,4.33,4.93v6.25h-2.63l-.25-1.13h-.06a4.79,4.79,0,0,1-3.19,1.39,3.14,3.14,0,0,1-3.24-3.3C214.88,90.18,216.71,88.93,221,88.49Zm-1.8,4.77a2.44,2.44,0,0,0,1.8-.92V90.42c-2.31.31-3.06,1-3.06,1.81S218.45,93.26,219.22,93.26Z"/><path class="cls-1" d="M227.47,87.12H226v-2.4l1.67-.13.38-2.9h2.68v2.9h2.62v2.53H230.7V91.5c0,1.23.55,1.74,1.41,1.74a3,3,0,0,0,1-.22l.51,2.35a7.74,7.74,0,0,1-2.42.4c-2.71,0-3.76-1.69-3.76-4.22Z"/><path class="cls-1" d="M239.74,84.33c3.1,0,4.65,2.26,4.65,5.24a6,6,0,0,1-.14,1.36h-6.53a2.64,2.64,0,0,0,2.84,2.38,4.43,4.43,0,0,0,2.35-.73l1.08,2a7.12,7.12,0,0,1-3.87,1.23,5.32,5.32,0,0,1-5.53-5.72C234.59,86.51,237.12,84.33,239.74,84.33Zm1.89,4.6c0-1.26-.52-2.14-1.82-2.14-1,0-1.89.68-2.11,2.14Z"/><path class="cls-1" d="M99.38,110.73a5.74,5.74,0,1,1-5.32,5.72A5.35,5.35,0,0,1,99.38,110.73Zm0,8.82c1.32,0,2-1.21,2-3.1s-.69-3.1-2-3.1-2,1.21-2,3.1S98,119.55,99.38,119.55Z"/><path class="cls-1" d="M113,109a3.58,3.58,0,0,0-1.12-.22c-.8,0-1.26.44-1.26,1.56V111h2v2.53h-2v8.39h-3.23v-8.39h-1.46v-2.4l1.46-.11v-.59c0-2.31,1.08-4.2,4-4.2a6.65,6.65,0,0,1,2.18.39Z"/><path class="cls-1" d="M119.31,113.52h-1.49v-2.4l1.67-.13.37-2.9h2.69V111h2.62v2.53h-2.62v4.38c0,1.23.55,1.74,1.41,1.74a3,3,0,0,0,1-.22l.51,2.35a7.74,7.74,0,0,1-2.42.4c-2.71,0-3.77-1.69-3.77-4.22Z"/><path class="cls-1" d="M127.3,106.48h3.24v3.79l-.16,2a5,5,0,0,1,3.37-1.49c2.37,0,3.39,1.67,3.39,4.4v6.78H133.9v-6.36c0-1.59-.42-2.07-1.34-2.07a2.73,2.73,0,0,0-2,1.06v7.37H127.3Z"/><path class="cls-1" d="M144.37,110.73c3.11,0,4.65,2.27,4.65,5.23a6,6,0,0,1-.14,1.37h-6.53a2.65,2.65,0,0,0,2.84,2.38,4.43,4.43,0,0,0,2.35-.73l1.08,2a7.12,7.12,0,0,1-3.87,1.23,5.32,5.32,0,0,1-5.53-5.72C139.22,112.91,141.75,110.73,144.37,110.73Zm1.9,4.6c0-1.26-.53-2.14-1.83-2.14-1,0-1.89.69-2.11,2.14Z"/><path class="cls-1" d="M161.58,114.89a1.53,1.53,0,0,0-1.72-1.59,5.91,5.91,0,0,0-2.9,1l-1.15-2.13a9,9,0,0,1,4.67-1.43c2.79,0,4.33,1.58,4.33,4.93v6.25h-2.64l-.24-1.13h-.07a4.77,4.77,0,0,1-3.19,1.39,3.13,3.13,0,0,1-3.23-3.3C155.44,116.58,157.26,115.33,161.58,114.89Zm-1.81,4.77a2.45,2.45,0,0,0,1.81-.92v-1.92c-2.31.31-3.06,1-3.06,1.81S159,119.66,159.77,119.66Z"/><path class="cls-1" d="M167.58,111h2.64l.22,1.92h.09a3.64,3.64,0,0,1,3.1-2.18,3.17,3.17,0,0,1,1.3.22l-.53,2.79a4,4,0,0,0-1.19-.17,2.68,2.68,0,0,0-2.39,2v6.34h-3.24Z"/><path class="cls-1" d="M176.78,113.52h-1.5v-2.4L177,111l.38-2.9H180V111h2.62v2.53H180v4.38c0,1.23.55,1.74,1.41,1.74a3,3,0,0,0,1-.22l.51,2.35a7.69,7.69,0,0,1-2.42.4c-2.71,0-3.76-1.69-3.76-4.22Z"/><path class="cls-1" d="M189.82,118.63a4.7,4.7,0,0,0,2.82,1.14c1,0,1.39-.35,1.39-.92,0-.73-1.1-1.06-2.23-1.5-1.32-.5-2.88-1.41-2.88-3.21,0-2,1.65-3.41,4.18-3.41a6.29,6.29,0,0,1,3.85,1.38l-1.45,1.94a4,4,0,0,0-2.31-.92c-.84,0-1.23.3-1.23.85,0,.71,1,1,2.13,1.39,1.39.51,2.95,1.28,2.95,3.28s-1.56,3.52-4.49,3.52a7.06,7.06,0,0,1-4.18-1.52Z"/><path class="cls-1" d="M203.77,110.73a5.74,5.74,0,1,1-5.32,5.72A5.35,5.35,0,0,1,203.77,110.73Zm0,8.82c1.32,0,2-1.21,2-3.1s-.68-3.1-2-3.1-2,1.21-2,3.1S202.43,119.55,203.77,119.55Z"/><path class="cls-1" d="M224.52,121.77a7.69,7.69,0,0,1-2.42.4c-2.71,0-3.76-1.69-3.76-4.22v-4.43H215v8.39h-3.23v-8.39h-1.46v-2.4l1.46-.11v-.59c0-2.31,1.07-4.2,4-4.2a6.71,6.71,0,0,1,2.18.39l-.59,2.38a3.59,3.59,0,0,0-1.13-.22c-.79,0-1.25.44-1.25,1.56V111h3.54l.38-2.9h2.68V111h2.62v2.53h-2.62v4.38c0,1.23.55,1.74,1.41,1.74a3,3,0,0,0,1-.22Z"/><path class="cls-1" d="M225.42,111h3.21l1.06,5.06c.17,1.08.31,2.14.48,3.24h.09c.2-1.1.37-2.2.64-3.24l1.21-5.06h2.79l1.23,5.06c.27,1.08.47,2.14.69,3.24h.08c.2-1.1.31-2.16.51-3.24l1-5.06h3l-2.62,10.92H235l-1-4.36c-.22-1-.39-2-.59-3.19h-.09c-.2,1.17-.35,2.18-.55,3.19l-1,4.36h-3.69Z"/><path class="cls-1" d="M248.92,114.89a1.53,1.53,0,0,0-1.72-1.59,5.91,5.91,0,0,0-2.9,1l-1.15-2.13a9,9,0,0,1,4.67-1.43c2.79,0,4.33,1.58,4.33,4.93v6.25h-2.64l-.24-1.13h-.07a4.77,4.77,0,0,1-3.19,1.39,3.13,3.13,0,0,1-3.23-3.3C242.78,116.58,244.6,115.33,248.92,114.89Zm-1.81,4.77a2.45,2.45,0,0,0,1.81-.92v-1.92c-2.31.31-3.06,1-3.06,1.81S246.34,119.66,247.11,119.66Z"/><path class="cls-1" d="M254.92,111h2.64l.22,1.92h.09a3.64,3.64,0,0,1,3.1-2.18,3.17,3.17,0,0,1,1.3.22l-.53,2.79a4,4,0,0,0-1.19-.17,2.68,2.68,0,0,0-2.39,2v6.34h-3.24Z"/><path class="cls-1" d="M268,110.73c3.1,0,4.64,2.27,4.64,5.23a6.83,6.83,0,0,1-.13,1.37h-6.54a2.65,2.65,0,0,0,2.84,2.38,4.46,4.46,0,0,0,2.36-.73l1.07,2a7.12,7.12,0,0,1-3.87,1.23,5.32,5.32,0,0,1-5.52-5.72C262.82,112.91,265.35,110.73,268,110.73Zm1.89,4.6c0-1.26-.53-2.14-1.83-2.14-1,0-1.89.69-2.11,2.14Z"/><path class="cls-1" d="M95.14,139.92h-1.5v-2.4l1.67-.13.38-2.9h2.68v2.9H101v2.53H98.37v4.38c0,1.23.55,1.74,1.41,1.74a3,3,0,0,0,1-.22l.51,2.35a7.69,7.69,0,0,1-2.42.4c-2.71,0-3.76-1.69-3.76-4.23Z"/><path class="cls-1" d="M107.59,137.13a5.73,5.73,0,1,1-5.33,5.72A5.34,5.34,0,0,1,107.59,137.13Zm0,8.82c1.32,0,2-1.21,2-3.1s-.68-3.1-2-3.1-2,1.21-2,3.1S106.25,146,107.59,146Z"/><path class="cls-1" d="M125.43,141.29a1.52,1.52,0,0,0-1.72-1.59,6,6,0,0,0-2.9,1l-1.14-2.13a8.94,8.94,0,0,1,4.66-1.43c2.8,0,4.34,1.58,4.34,4.93v6.25H126l-.25-1.13h-.06a4.79,4.79,0,0,1-3.19,1.39,3.14,3.14,0,0,1-3.24-3.3C119.29,143,121.12,141.73,125.43,141.29Zm-1.8,4.77a2.42,2.42,0,0,0,1.8-.92v-1.92c-2.31.31-3.06,1-3.06,1.81S122.86,146.06,123.63,146.06Z"/><path class="cls-1" d="M131.33,137.39h3.23v6.36c0,1.56.42,2.07,1.36,2.07s1.3-.35,1.94-1.21v-7.22h3.24v10.92h-2.64l-.25-1.52h-.06a4.27,4.27,0,0,1-3.44,1.78c-2.37,0-3.38-1.67-3.38-4.4Z"/><path class="cls-1" d="M144.37,139.92h-1.49v-2.4l1.67-.13.37-2.9h2.69v2.9h2.61v2.53h-2.61v4.38c0,1.23.55,1.74,1.4,1.74a3.1,3.1,0,0,0,1-.22l.5,2.35a7.69,7.69,0,0,1-2.42.4c-2.7,0-3.76-1.69-3.76-4.23Z"/><path class="cls-1" d="M156.83,137.13a5.73,5.73,0,1,1-5.33,5.72A5.34,5.34,0,0,1,156.83,137.13Zm0,8.82c1.32,0,2-1.21,2-3.1s-.68-3.1-2-3.1-2,1.21-2,3.1S155.48,146,156.83,146Z"/><path class="cls-1" d="M164.35,137.39H167l.22,1.41h.09a4.57,4.57,0,0,1,3.3-1.67,3,3,0,0,1,3,1.82,4.78,4.78,0,0,1,3.43-1.82c2.36,0,3.41,1.67,3.41,4.4v6.78h-3.23V142c0-1.59-.42-2.07-1.34-2.07a2.88,2.88,0,0,0-1.87,1.05v7.38h-3.24V142c0-1.59-.41-2.07-1.34-2.07a2.85,2.85,0,0,0-1.85,1.05v7.38h-3.23Z"/><path class="cls-1" d="M188.94,141.29a1.52,1.52,0,0,0-1.71-1.59,6,6,0,0,0-2.91,1l-1.14-2.13a9,9,0,0,1,4.66-1.43c2.8,0,4.34,1.58,4.34,4.93v6.25h-2.64l-.24-1.13h-.07a4.77,4.77,0,0,1-3.19,1.39,3.13,3.13,0,0,1-3.23-3.3C182.81,143,184.63,141.73,188.94,141.29Zm-1.8,4.77a2.42,2.42,0,0,0,1.8-.92v-1.92c-2.31.31-3.05,1-3.05,1.81S186.37,146.06,187.14,146.06Z"/><path class="cls-1" d="M195.39,139.92h-1.5v-2.4l1.68-.13.37-2.9h2.68v2.9h2.62v2.53h-2.62v4.38c0,1.23.55,1.74,1.41,1.74a3.16,3.16,0,0,0,1-.22l.5,2.35a7.69,7.69,0,0,1-2.42.4c-2.7,0-3.76-1.69-3.76-4.23Z"/><path class="cls-1" d="M207.67,137.13c3.1,0,4.64,2.26,4.64,5.24a6.88,6.88,0,0,1-.13,1.36h-6.54a2.65,2.65,0,0,0,2.84,2.38,4.43,4.43,0,0,0,2.35-.73l1.08,2a7.12,7.12,0,0,1-3.87,1.23,5.32,5.32,0,0,1-5.52-5.72C202.52,139.31,205.05,137.13,207.67,137.13Zm1.89,4.6c0-1.26-.53-2.14-1.83-2.14-1,0-1.89.68-2.11,2.14Z"/><path class="cls-1" d="M223.64,137.13c3.1,0,4.64,2.26,4.64,5.24a6.88,6.88,0,0,1-.13,1.36h-6.54a2.65,2.65,0,0,0,2.84,2.38,4.46,4.46,0,0,0,2.36-.73l1.07,2a7.12,7.12,0,0,1-3.87,1.23,5.32,5.32,0,0,1-5.52-5.72C218.49,139.31,221,137.13,223.64,137.13Zm1.89,4.6c0-1.26-.53-2.14-1.83-2.14-1,0-1.89.68-2.11,2.14Z"/><path class="cls-1" d="M230.52,137.39h2.64l.22,1.39h.09a5.05,5.05,0,0,1,3.5-1.65c2.38,0,3.39,1.67,3.39,4.4v6.78h-3.24V142c0-1.59-.41-2.07-1.34-2.07a2.75,2.75,0,0,0-2,1.05v7.38h-3.24Z"/><path class="cls-1" d="M247.62,137.13c3.1,0,4.64,2.26,4.64,5.24a6.88,6.88,0,0,1-.13,1.36h-6.54a2.65,2.65,0,0,0,2.84,2.38,4.46,4.46,0,0,0,2.36-.73l1.07,2a7.12,7.12,0,0,1-3.87,1.23,5.32,5.32,0,0,1-5.52-5.72C242.47,139.31,245,137.13,247.62,137.13Zm1.89,4.6c0-1.26-.53-2.14-1.83-2.14-1,0-1.89.68-2.11,2.14Z"/><path class="cls-1" d="M254.5,137.39h2.64l.22,1.92h.09a3.64,3.64,0,0,1,3.1-2.18,3.17,3.17,0,0,1,1.3.22l-.53,2.79a4,4,0,0,0-1.18-.17,2.68,2.68,0,0,0-2.4,2v6.34H254.5Z"/><path class="cls-1" d="M263.92,148v-.09a2.11,2.11,0,0,1-1-1.85,2.64,2.64,0,0,1,1.23-2v-.08a3.51,3.51,0,0,1-1.47-2.84c0-2.62,2.15-3.94,4.5-3.94a5.23,5.23,0,0,1,1.7.26h4v2.36h-1.74a2.86,2.86,0,0,1,.36,1.43c0,2.5-1.9,3.67-4.3,3.67a4.13,4.13,0,0,1-1.31-.22.92.92,0,0,0-.4.82c0,.55.44.81,1.65.81h1.76c2.68,0,4.16.81,4.16,2.77,0,2.27-2.36,3.92-6.1,3.92-2.55,0-4.57-.84-4.57-2.77A2.55,2.55,0,0,1,263.92,148Zm3.52,2.94c1.45,0,2.51-.59,2.51-1.34s-.6-.86-1.67-.86h-1.13a6.3,6.3,0,0,1-1.54-.13,1.44,1.44,0,0,0-.59,1.08C265,150.48,266,150.92,267.44,150.92Zm1.23-9.85c0-1.15-.64-1.76-1.5-1.76s-1.49.59-1.49,1.76.64,1.82,1.49,1.82S268.67,142.28,268.67,141.07Z"/><path class="cls-1" d="M275.58,150a1.84,1.84,0,0,0,1.91-1.43l.16-.57-4.21-10.63h3.26l1.56,4.69c.31,1,.58,2,.86,3.1h.09c.24-1,.48-2.07.75-3.1l1.32-4.69h3.1l-3.78,11c-1,2.75-2.2,4.15-4.78,4.15a4.74,4.74,0,0,1-1.54-.22l.57-2.46A4,4,0,0,0,275.58,150Z"/><path class="cls-1" d="M100.44,167.69a1.53,1.53,0,0,0-1.72-1.59,6,6,0,0,0-2.9,1L94.67,165a9,9,0,0,1,4.67-1.43c2.79,0,4.33,1.58,4.33,4.93v6.25H101l-.24-1.13h-.06A4.79,4.79,0,0,1,97.54,175a3.13,3.13,0,0,1-3.24-3.3C94.3,169.38,96.13,168.13,100.44,167.69Zm-1.8,4.77a2.44,2.44,0,0,0,1.8-.92v-1.92c-2.31.31-3.06,1-3.06,1.81S97.87,172.46,98.64,172.46Z"/><path class="cls-1" d="M106.93,171.43a4.68,4.68,0,0,0,2.82,1.14c1,0,1.38-.35,1.38-.92,0-.73-1.1-1.06-2.22-1.5-1.32-.5-2.88-1.41-2.88-3.21,0-2,1.65-3.41,4.18-3.41a6.26,6.26,0,0,1,3.85,1.39l-1.45,1.93a4.05,4.05,0,0,0-2.31-.92c-.84,0-1.24.3-1.24.86s1,1,2.14,1.38c1.38.51,3,1.28,3,3.28s-1.57,3.52-4.49,3.52a7.06,7.06,0,0,1-4.18-1.52Z"/><path class="cls-1" d="M116.67,171.43a4.7,4.7,0,0,0,2.82,1.14c1,0,1.39-.35,1.39-.92,0-.73-1.1-1.06-2.23-1.5-1.32-.5-2.88-1.41-2.88-3.21,0-2,1.65-3.41,4.18-3.41a6.21,6.21,0,0,1,3.85,1.39l-1.45,1.93a4,4,0,0,0-2.31-.92c-.83,0-1.23.3-1.23.86s1,1,2.13,1.38c1.39.51,3,1.28,3,3.28S122.33,175,119.4,175a7.06,7.06,0,0,1-4.18-1.52Z"/><path class="cls-1" d="M130.45,163.53c3.1,0,4.64,2.26,4.64,5.24a6.8,6.8,0,0,1-.13,1.36h-6.54a2.65,2.65,0,0,0,2.84,2.38,4.46,4.46,0,0,0,2.36-.73l1.07,2a7.12,7.12,0,0,1-3.87,1.23,5.32,5.32,0,0,1-5.52-5.72C125.3,165.71,127.83,163.53,130.45,163.53Zm1.89,4.6c0-1.26-.53-2.14-1.83-2.14-1,0-1.89.68-2.11,2.14Z"/><path class="cls-1" d="M137.38,166.32h-1.5v-2.4l1.67-.13.38-2.9h2.68v2.9h2.62v2.53h-2.62v4.38c0,1.23.55,1.74,1.41,1.74a3,3,0,0,0,1-.22l.51,2.35a7.74,7.74,0,0,1-2.42.4c-2.71,0-3.76-1.69-3.76-4.22Z"/><path class="cls-1" d="M154.63,163.53a5.73,5.73,0,1,1-5.33,5.72A5.34,5.34,0,0,1,154.63,163.53Zm0,8.82c1.32,0,2-1.21,2-3.1s-.68-3.1-2-3.1-2,1.21-2,3.1S153.28,172.35,154.63,172.35Z"/><path class="cls-1" d="M165.38,175.56v3.19h-3.23v-15h2.64l.22,1.08h.09a4.76,4.76,0,0,1,3.1-1.34c2.64,0,4.27,2.18,4.27,5.54,0,3.74-2.25,5.9-4.6,5.9a3.81,3.81,0,0,1-2.6-1.14Zm1.74-3.23c1.12,0,2-1,2-3.21,0-2-.59-3-1.89-3a2.53,2.53,0,0,0-1.87,1v4.47A2.54,2.54,0,0,0,167.12,172.33Z"/><path class="cls-1" d="M175.19,166.32H173.7v-2.4l1.67-.13.37-2.9h2.69v2.9h2.62v2.53h-2.62v4.38c0,1.23.55,1.74,1.41,1.74a3.1,3.1,0,0,0,1-.22l.51,2.35a7.74,7.74,0,0,1-2.42.4c-2.71,0-3.77-1.69-3.77-4.22Z"/><path class="cls-1" d="M182.92,160.49a1.88,1.88,0,1,1,1.87,1.7A1.73,1.73,0,0,1,182.92,160.49Zm.26,3.3h3.24v10.92h-3.24Z"/><path class="cls-1" d="M189.25,163.79h2.64l.22,1.41h.09a4.57,4.57,0,0,1,3.3-1.67,3,3,0,0,1,3,1.82,4.8,4.8,0,0,1,3.44-1.82c2.35,0,3.41,1.67,3.41,4.4v6.78h-3.24v-6.36c0-1.59-.41-2.07-1.34-2.07a2.91,2.91,0,0,0-1.87,1.05v7.38h-3.23v-6.36c0-1.59-.42-2.07-1.35-2.07a2.85,2.85,0,0,0-1.84,1.05v7.38h-3.24Z"/><path class="cls-1" d="M207.84,160.49a1.88,1.88,0,1,1,1.87,1.7A1.73,1.73,0,0,1,207.84,160.49Zm.27,3.3h3.23v10.92h-3.23Z"/><path class="cls-1" d="M213.58,173l4.58-6.65h-4.07v-2.53h8.1v1.72l-4.58,6.67h4.73v2.53h-8.76Z"/><path class="cls-1" d="M229.73,167.69A1.52,1.52,0,0,0,228,166.1a6,6,0,0,0-2.91,1L224,165a9,9,0,0,1,4.66-1.43c2.8,0,4.34,1.58,4.34,4.93v6.25h-2.64l-.25-1.13H230a4.79,4.79,0,0,1-3.19,1.39,3.14,3.14,0,0,1-3.24-3.3C223.59,169.38,225.42,168.13,229.73,167.69Zm-1.8,4.77a2.42,2.42,0,0,0,1.8-.92v-1.92c-2.31.31-3.06,1-3.06,1.81S227.16,172.46,227.93,172.46Z"/><path class="cls-1" d="M236.18,166.32h-1.5v-2.4l1.67-.13.38-2.9h2.68v2.9H242v2.53h-2.62v4.38c0,1.23.55,1.74,1.41,1.74a3,3,0,0,0,1-.22l.51,2.35a7.69,7.69,0,0,1-2.42.4c-2.71,0-3.76-1.69-3.76-4.22Z"/><path class="cls-1" d="M243.9,160.49a1.88,1.88,0,1,1,1.87,1.7A1.73,1.73,0,0,1,243.9,160.49Zm.26,3.3h3.24v10.92h-3.24Z"/><path class="cls-1" d="M254.92,163.53a5.74,5.74,0,1,1-5.32,5.72A5.34,5.34,0,0,1,254.92,163.53Zm0,8.82c1.32,0,2-1.21,2-3.1s-.68-3.1-2-3.1-2,1.21-2,3.1S253.58,172.35,254.92,172.35Z"/><path class="cls-1" d="M262.45,163.79h2.63l.23,1.39h.08a5.05,5.05,0,0,1,3.5-1.65c2.38,0,3.39,1.67,3.39,4.4v6.78h-3.23v-6.36c0-1.59-.42-2.07-1.35-2.07a2.75,2.75,0,0,0-2,1.05v7.38h-3.23Z"/></svg>