<svg id="Layer_1" data-name="Layer 1" xmlns="http://www.w3.org/2000/svg" viewBox="0 0 300 250"><defs><style>.cls-1{fill:#fff;}</style></defs><title>text</title><path class="cls-1" d="M97.93,94.11H93.55V92.57h10.58v1.54H99.75V107H97.93Z"/><path class="cls-1" d="M106.49,91.33h1.8V95.6l-.07,2.2A5.12,5.12,0,0,1,111.79,96c2.24,0,3.25,1.45,3.25,4.18V107h-1.8v-6.54c0-2-.61-2.86-2-2.86-1.1,0-1.85.58-2.93,1.65V107h-1.8Z"/><path class="cls-1" d="M122.46,96c2.73,0,4.27,2,4.27,5a5.67,5.67,0,0,1-.07,1h-7.22c.14,2.31,1.52,3.76,3.57,3.76a4.87,4.87,0,0,0,2.66-.83l.64,1.18a6.34,6.34,0,0,1-3.52,1.1c-2.86,0-5.13-2.09-5.13-5.58S120,96,122.46,96Zm2.68,4.82c0-2.18-1-3.39-2.64-3.39-1.49,0-2.86,1.23-3.08,3.39Z"/><path class="cls-1" d="M133.52,104.58a4.82,4.82,0,0,0,3.15,1.28c1.41,0,2.11-.75,2.11-1.68,0-1.1-1.27-1.58-2.44-2-1.52-.55-3.19-1.28-3.19-3.08s1.36-3,3.67-3a5.36,5.36,0,0,1,3.33,1.21l-.86,1.15a4,4,0,0,0-2.44-1c-1.35,0-2,.73-2,1.54,0,1,1.16,1.39,2.37,1.85,1.54.57,3.26,1.21,3.26,3.23,0,1.74-1.39,3.19-3.92,3.19a6.39,6.39,0,0,1-4-1.47Z"/><path class="cls-1" d="M144.83,107.9v3.61H143V96.31h1.49l.16,1.23h.06a5.52,5.52,0,0,1,3.41-1.5c2.75,0,4.23,2.14,4.23,5.46,0,3.63-2.18,5.76-4.62,5.76a5,5,0,0,1-3-1.23Zm2.62-2.15c1.76,0,3.06-1.61,3.06-4.25,0-2.35-.79-3.94-2.82-3.94A4.54,4.54,0,0,0,144.83,99v5.61A4.23,4.23,0,0,0,147.45,105.75Z"/><path class="cls-1" d="M159.24,96c2.73,0,4.27,2,4.27,5a5.67,5.67,0,0,1-.07,1h-7.21c.13,2.31,1.52,3.76,3.56,3.76a4.87,4.87,0,0,0,2.66-.83l.64,1.18a6.31,6.31,0,0,1-3.52,1.1c-2.86,0-5.13-2.09-5.13-5.58S156.8,96,159.24,96Zm2.69,4.82c0-2.18-1-3.39-2.64-3.39-1.5,0-2.87,1.23-3.08,3.39Z"/><path class="cls-1" d="M170.15,96c2.73,0,4.27,2,4.27,5a7,7,0,0,1-.06,1h-7.22c.13,2.31,1.52,3.76,3.56,3.76a4.9,4.9,0,0,0,2.67-.83l.63,1.18a6.29,6.29,0,0,1-3.52,1.1c-2.86,0-5.12-2.09-5.12-5.58S167.71,96,170.15,96Zm2.69,4.82c0-2.18-1-3.39-2.64-3.39-1.5,0-2.86,1.23-3.08,3.39Z"/><path class="cls-1" d="M180.93,96a4.37,4.37,0,0,1,3,1.23l-.08-1.82V91.33h1.82V107h-1.49l-.16-1.25H184a4.84,4.84,0,0,1-3.24,1.51c-2.68,0-4.42-2-4.42-5.58S178.49,96,180.93,96Zm.18,9.71a3.63,3.63,0,0,0,2.73-1.48V98.68a3.76,3.76,0,0,0-2.6-1.12c-1.72,0-3.08,1.65-3.08,4.09S179.24,105.75,181.11,105.75Z"/><path class="cls-1" d="M193.38,92.94a1.26,1.26,0,1,1,1.26,1.17A1.19,1.19,0,0,1,193.38,92.94Zm.33,3.37h1.81V107h-1.81Z"/><path class="cls-1" d="M199.13,96.31h1.49l.16,1.54h.06A5,5,0,0,1,204.43,96c2.24,0,3.25,1.45,3.25,4.18V107h-1.8v-6.54c0-2-.62-2.86-2-2.86-1.1,0-1.85.58-2.93,1.65V107h-1.8Z"/><path class="cls-1" d="M95.11,124.18H93.53v-1.36l1.67-.11.22-3h1.52v3h2.88v1.47H96.94v5.94c0,1.32.42,2.07,1.65,2.07a3.69,3.69,0,0,0,1.21-.29l.35,1.37a6.51,6.51,0,0,1-2,.39c-2.29,0-3.06-1.45-3.06-3.56Z"/><path class="cls-1" d="M102.24,117.73H104V122l-.06,2.2a5.1,5.1,0,0,1,3.56-1.76c2.25,0,3.26,1.45,3.26,4.18v6.78H109v-6.53c0-2-.62-2.87-2-2.87-1.1,0-1.85.58-2.93,1.65v7.75h-1.8Z"/><path class="cls-1" d="M118.21,122.44c2.73,0,4.27,2,4.27,5a7,7,0,0,1-.06,1H115.2c.13,2.31,1.52,3.76,3.56,3.76a4.93,4.93,0,0,0,2.67-.83l.63,1.18a6.29,6.29,0,0,1-3.52,1.1c-2.86,0-5.12-2.09-5.12-5.58S115.77,122.44,118.21,122.44Zm2.69,4.82c0-2.18-1-3.39-2.64-3.39-1.5,0-2.86,1.23-3.08,3.39Z"/><path class="cls-1" d="M131.37,134.3v3.61h-1.81v-15.2h1.5l.15,1.23h.07a5.52,5.52,0,0,1,3.41-1.5c2.75,0,4.23,2.14,4.23,5.46,0,3.63-2.18,5.76-4.63,5.76a5,5,0,0,1-3-1.23Zm2.62-2.15c1.76,0,3-1.61,3-4.25,0-2.36-.79-3.94-2.81-3.94a4.52,4.52,0,0,0-2.86,1.45V131A4.21,4.21,0,0,0,134,132.15Z"/><path class="cls-1" d="M145.93,122.44c2.62,0,4.95,2,4.95,5.64s-2.33,5.58-4.95,5.58-5-2-5-5.58S143.31,122.44,145.93,122.44Zm0,9.73c1.85,0,3.08-1.65,3.08-4.09s-1.23-4.14-3.08-4.14-3.08,1.67-3.08,4.14S144.11,132.17,145.93,132.17Z"/><path class="cls-1" d="M152.33,122.71h1.85l1.59,6.18c.24,1,.44,2,.63,3h.09c.24-1,.46-2,.73-3l1.65-6.18h1.76l1.67,6.18c.26,1,.51,2,.75,3h.09c.24-1,.44-2,.66-3l1.56-6.18h1.72l-2.87,10.69H162l-1.54-5.74c-.26-1-.46-2-.72-3.08h-.09c-.24,1.07-.46,2.09-.75,3.1l-1.49,5.72H155.3Z"/><path class="cls-1" d="M173.32,122.44c2.73,0,4.27,2,4.27,5a5.67,5.67,0,0,1-.07,1h-7.21c.13,2.31,1.52,3.76,3.56,3.76a4.87,4.87,0,0,0,2.66-.83l.64,1.18a6.31,6.31,0,0,1-3.52,1.1c-2.86,0-5.13-2.09-5.13-5.58S170.88,122.44,173.32,122.44Zm2.69,4.82c0-2.18-1-3.39-2.64-3.39-1.5,0-2.87,1.23-3.08,3.39Z"/><path class="cls-1" d="M180.23,122.71h1.5l.15,1.93H182a3.65,3.65,0,0,1,3-2.2,2.78,2.78,0,0,1,1.15.22l-.36,1.59a3,3,0,0,0-1-.18c-.9,0-2,.66-2.71,2.47v6.86h-1.8Z"/><path class="cls-1" d="M192,119.34a1.25,1.25,0,0,1,2.5,0,1.25,1.25,0,0,1-2.5,0Zm.33,3.37h1.8V133.4h-1.8Z"/><path class="cls-1" d="M197.72,122.71h1.49l.16,1.54h.06a5,5,0,0,1,3.59-1.81c2.25,0,3.26,1.45,3.26,4.18v6.78h-1.81v-6.53c0-2-.61-2.87-2-2.87-1.1,0-1.85.58-2.93,1.65v7.75h-1.8Z"/><path class="cls-1" d="M210.06,124.18h-1.58v-1.36l1.67-.11.22-3h1.52v3h2.88v1.47h-2.88v5.94c0,1.32.41,2.07,1.65,2.07a3.69,3.69,0,0,0,1.21-.29l.35,1.37a6.57,6.57,0,0,1-2,.39c-2.29,0-3.06-1.45-3.06-3.56Z"/><path class="cls-1" d="M217.19,122.71h1.49l.16,1.93h.06a3.67,3.67,0,0,1,3-2.2,2.7,2.7,0,0,1,1.14.22l-.35,1.59a3,3,0,0,0-1-.18c-.9,0-2,.66-2.71,2.47v6.86h-1.8Z"/><path class="cls-1" d="M230.32,126.62c0-1.36-.46-2.68-2.2-2.68a5.79,5.79,0,0,0-3.19,1.14l-.72-1.25a7.9,7.9,0,0,1,4.2-1.39c2.62,0,3.72,1.74,3.72,4.4v6.56h-1.5l-.15-1.28h0a5.77,5.77,0,0,1-3.54,1.54,2.92,2.92,0,0,1-3.15-3C223.74,128.29,225.77,127.13,230.32,126.62Zm-2.92,5.59a4.34,4.34,0,0,0,2.92-1.43v-3c-3.58.44-4.79,1.32-4.79,2.69C225.53,131.71,226.34,132.21,227.4,132.21Z"/><path class="cls-1" d="M239.41,122.44a4.41,4.41,0,0,1,3,1.23l-.09-1.82v-4.12h1.83V133.4h-1.5l-.15-1.25h-.07a4.82,4.82,0,0,1-3.23,1.51c-2.69,0-4.42-2-4.42-5.58S237,122.44,239.41,122.44Zm.17,9.71a3.63,3.63,0,0,0,2.73-1.48v-5.59a3.72,3.72,0,0,0-2.59-1.12c-1.72,0-3.08,1.65-3.08,4.09S237.71,132.15,239.58,132.15Z"/><path class="cls-1" d="M253.8,126.62c0-1.36-.47-2.68-2.2-2.68a5.73,5.73,0,0,0-3.19,1.14l-.73-1.25a7.93,7.93,0,0,1,4.2-1.39c2.62,0,3.72,1.74,3.72,4.4v6.56h-1.5l-.15-1.28h0a5.82,5.82,0,0,1-3.55,1.54,2.91,2.91,0,0,1-3.14-3C247.22,128.29,249.24,127.13,253.8,126.62Zm-2.93,5.59a4.38,4.38,0,0,0,2.93-1.43v-3c-3.59.44-4.8,1.32-4.8,2.69C249,131.71,249.81,132.21,250.87,132.21Z"/><path class="cls-1" d="M259.1,136.5c1.21,0,2-1,2.42-2.29l.24-.79-4.29-10.71h1.87l2.18,5.92c.33.92.7,2,1,3h.09c.31-1,.62-2.07.9-3l1.92-5.92h1.76l-4,11.57c-.75,2.11-1.85,3.72-4,3.72a3.6,3.6,0,0,1-1.26-.22l.35-1.43A3.41,3.41,0,0,0,259.1,136.5Z"/><path class="cls-1" d="M94.8,149.11h1.5l.15,1.54h.07a4.68,4.68,0,0,1,3.32-1.81,2.81,2.81,0,0,1,3,2c1.12-1.21,2.22-2,3.52-2,2.2,0,3.26,1.45,3.26,4.18v6.78h-1.81v-6.54c0-2-.63-2.86-2-2.86a3.93,3.93,0,0,0-2.68,1.65v7.75h-1.8v-6.54c0-2-.64-2.86-2-2.86a4,4,0,0,0-2.68,1.65v7.75H94.8Z"/><path class="cls-1" d="M119.09,153c0-1.36-.46-2.68-2.2-2.68a5.79,5.79,0,0,0-3.19,1.14l-.72-1.25a7.9,7.9,0,0,1,4.2-1.39c2.62,0,3.72,1.74,3.72,4.4v6.56h-1.5l-.15-1.28h0a5.77,5.77,0,0,1-3.54,1.54,2.92,2.92,0,0,1-3.15-3C112.51,154.7,114.54,153.53,119.09,153Zm-2.92,5.59a4.34,4.34,0,0,0,2.92-1.43v-3c-3.58.44-4.79,1.32-4.79,2.69C114.3,158.11,115.11,158.61,116.17,158.61Z"/><path class="cls-1" d="M124.31,149.11h1.49L126,151H126a3.67,3.67,0,0,1,3-2.2,2.7,2.7,0,0,1,1.14.22l-.35,1.59a3,3,0,0,0-1-.18c-.91,0-2,.66-2.71,2.46v6.87h-1.8Z"/><path class="cls-1" d="M131.94,144.13h1.78v10.61h.07l4.55-5.63h2l-3.59,4.29,4.07,6.4h-2l-3.13-5.15-2,2.33v2.82h-1.78Z"/><path class="cls-1" d="M146.44,148.84c2.73,0,4.27,2,4.27,5a5.75,5.75,0,0,1-.07,1h-7.22c.14,2.31,1.52,3.76,3.57,3.76a4.87,4.87,0,0,0,2.66-.83l.64,1.18a6.31,6.31,0,0,1-3.52,1.1c-2.86,0-5.13-2.09-5.13-5.59S144,148.84,146.44,148.84Zm2.68,4.82c0-2.18-1-3.39-2.64-3.39-1.49,0-2.86,1.23-3.08,3.39Z"/><path class="cls-1" d="M153.35,150.58h-1.59v-1.36l1.67-.11.22-3h1.52v3h2.88v1.47h-2.88v5.94c0,1.32.42,2.07,1.65,2.07a3.63,3.63,0,0,0,1.21-.29l.35,1.37a6.51,6.51,0,0,1-2,.39c-2.28,0-3.05-1.45-3.05-3.56Z"/><path class="cls-1" d="M164.59,145.74a1.26,1.26,0,0,1,2.51,0,1.26,1.26,0,0,1-2.51,0Zm.33,3.37h1.8V159.8h-1.8Z"/><path class="cls-1" d="M170,157.38a4.82,4.82,0,0,0,3.15,1.28c1.41,0,2.11-.75,2.11-1.68,0-1.1-1.27-1.58-2.44-2-1.52-.55-3.19-1.28-3.19-3.08s1.36-3,3.67-3a5.36,5.36,0,0,1,3.33,1.21l-.86,1.15a4,4,0,0,0-2.44-.95c-1.35,0-2,.73-2,1.54,0,1,1.16,1.39,2.37,1.85,1.54.57,3.26,1.21,3.26,3.23,0,1.74-1.39,3.19-3.92,3.19a6.42,6.42,0,0,1-4-1.47Z"/><path class="cls-1" d="M183.66,145.74a1.26,1.26,0,1,1,1.26,1.17A1.19,1.19,0,0,1,183.66,145.74Zm.33,3.37h1.8V159.8H184Z"/><path class="cls-1" d="M189.4,149.11h1.5l.15,1.54h.07a5,5,0,0,1,3.59-1.81c2.24,0,3.25,1.45,3.25,4.18v6.78h-1.8v-6.54c0-2-.62-2.86-2-2.86-1.1,0-1.84.58-2.92,1.65v7.75H189.4Z"/><path class="cls-1" d="M205.79,148.84a4.44,4.44,0,0,1,3.13,1.28l-.9,1.16a3.23,3.23,0,0,0-2.16-.94c-1.94,0-3.34,1.67-3.34,4.13s1.34,4.1,3.3,4.1a3.79,3.79,0,0,0,2.5-1.08l.82,1.19a5.28,5.28,0,0,1-3.48,1.38c-2.84,0-5-2-5-5.59S203,148.84,205.79,148.84Z"/><path class="cls-1" d="M211.47,149.11H213l.16,1.93h.06a3.67,3.67,0,0,1,3-2.2,2.78,2.78,0,0,1,1.15.22l-.36,1.59a3,3,0,0,0-1-.18c-.9,0-2,.66-2.71,2.46v6.87h-1.8Z"/><path class="cls-1" d="M222.89,148.84c2.73,0,4.27,2,4.27,5a7,7,0,0,1-.07,1h-7.22c.13,2.31,1.52,3.76,3.57,3.76a4.87,4.87,0,0,0,2.66-.83l.64,1.18a6.34,6.34,0,0,1-3.52,1.1c-2.86,0-5.13-2.09-5.13-5.59S220.44,148.84,222.89,148.84Zm2.68,4.82c0-2.18-1-3.39-2.64-3.39-1.5,0-2.86,1.23-3.08,3.39Z"/><path class="cls-1" d="M235.54,153c0-1.36-.47-2.68-2.2-2.68a5.73,5.73,0,0,0-3.19,1.14l-.73-1.25a7.93,7.93,0,0,1,4.2-1.39c2.62,0,3.72,1.74,3.72,4.4v6.56h-1.5l-.15-1.28h0a5.82,5.82,0,0,1-3.55,1.54,2.91,2.91,0,0,1-3.14-3C229,154.7,231,153.53,235.54,153Zm-2.93,5.59a4.38,4.38,0,0,0,2.93-1.43v-3c-3.59.44-4.8,1.32-4.8,2.69C230.74,158.11,231.55,158.61,232.61,158.61Z"/><path class="cls-1" d="M240.46,157.38a4.82,4.82,0,0,0,3.15,1.28c1.41,0,2.11-.75,2.11-1.68,0-1.1-1.27-1.58-2.44-2-1.52-.55-3.19-1.28-3.19-3.08s1.36-3,3.67-3a5.36,5.36,0,0,1,3.33,1.21l-.86,1.15a4,4,0,0,0-2.44-.95c-1.35,0-2,.73-2,1.54,0,1,1.16,1.39,2.37,1.85,1.54.57,3.26,1.21,3.26,3.23,0,1.74-1.39,3.19-3.92,3.19a6.42,6.42,0,0,1-4-1.47Z"/><path class="cls-1" d="M249.64,145.74a1.26,1.26,0,0,1,2.51,0,1.26,1.26,0,0,1-2.51,0Zm.33,3.37h1.8V159.8H250Z"/><path class="cls-1" d="M255.38,149.11h1.5l.15,1.54h.07a5,5,0,0,1,3.58-1.81c2.25,0,3.26,1.45,3.26,4.18v6.78h-1.81v-6.54c0-2-.61-2.86-2-2.86-1.1,0-1.85.58-2.93,1.65v7.75h-1.8Z"/><path class="cls-1" d="M268.16,159.43v-.09a2,2,0,0,1-.94-1.74,2.5,2.5,0,0,1,1.16-2v-.09a3.78,3.78,0,0,1,2.64-6.69,4.14,4.14,0,0,1,1.52.27h3.72v1.38h-2.2a3.14,3.14,0,0,1,.88,2.2,3.67,3.67,0,0,1-3.92,3.72,3.71,3.71,0,0,1-1.6-.37,1.61,1.61,0,0,0-.69,1.27c0,.69.44,1.17,1.9,1.17h2.06c2.49,0,3.74.77,3.74,2.55,0,2-2.09,3.7-5.41,3.7-2.62,0-4.42-1-4.42-2.88A3.07,3.07,0,0,1,268.16,159.43Zm3.13,4c2,0,3.38-1.05,3.38-2.17s-.77-1.32-2.15-1.32h-1.85a5.36,5.36,0,0,1-1.39-.18,2.25,2.25,0,0,0-1.1,1.8C268.18,162.75,269.35,163.47,271.29,163.47Zm2-10.82a2.28,2.28,0,1,0-4.53,0,2.28,2.28,0,1,0,4.53,0Z"/></svg>