<?xml version="1.0" encoding="utf-8"?>
<!-- Generator: Adobe Illustrator 19.1.1, SVG Export Plug-In . SVG Version: 6.00 Build 0)  -->
<svg version="1.1" id="Layer_1" xmlns="http://www.w3.org/2000/svg" xmlns:xlink="http://www.w3.org/1999/xlink" x="0px" y="0px"
	 viewBox="0 0 468 60" style="enable-background:new 0 0 468 60;" xml:space="preserve">
<style type="text/css">
	.st0{fill:#D80201;}
	.st1{fill:#FFFFFF;}
</style>
<g>
	<path class="st0" d="M132.5,25v2.9h4V30h-4v5.7H130V22.8h6.8V25H132.5z"/>
	<path class="st0" d="M143,35.9c-2.7,0-4.8-1.7-4.8-4.4c0-2.8,2.1-4.5,4.8-4.5c2.6,0,4.7,1.7,4.7,4.4S145.6,35.9,143,35.9z
		 M143,29.1c-1.3,0-2.4,1.1-2.4,2.4c0,1.3,1.1,2.3,2.4,2.3c1.3,0,2.4-1,2.4-2.3S144.3,29.1,143,29.1z"/>
	<path class="st0" d="M155,29.4c-0.4-0.2-0.7-0.3-1.1-0.3c-1.6,0-2,1.1-2,2.5v4h-2.3v-8.4h2.3v1.3c0.5-0.9,1.3-1.5,2.4-1.5
		c0.4,0,0.7,0.1,1,0.2L155,29.4z"/>
	<path class="st0" d="M167.2,35.7v-4.6c0-1-0.2-2.1-1.4-2.1c-1.4,0-1.6,1.3-1.6,2.4v4.3h-2.3v-4.4c0-0.4,0-1-0.2-1.4
		c-0.2-0.5-0.7-0.8-1.3-0.8c-0.5,0-1.1,0.3-1.3,0.8c-0.3,0.4-0.3,1.1-0.3,1.6v4.3h-2.3v-8.4h2.3v0.9c0.7-0.8,1.5-1.2,2.5-1.2
		c1.2,0,2,0.5,2.6,1.5c0.7-1,1.5-1.5,2.7-1.5c0.9,0,1.8,0.4,2.3,1.2c0.4,0.6,0.4,1.3,0.4,2v5.4H167.2z"/>
	<path class="st0" d="M178.1,35.7v-1.1c-0.6,0.9-1.6,1.4-2.7,1.4c-2.5,0-4.1-2.1-4.1-4.5c0-2.3,1.6-4.4,4.1-4.4c1.2,0,2,0.5,2.8,1.3
		v-1.1h2.4v8.4H178.1z M176.1,29.1c-1.3,0-2.3,1-2.3,2.3c0,1.3,1,2.4,2.3,2.4c1.3,0,2.3-1.1,2.3-2.4
		C178.4,30.2,177.4,29.1,176.1,29.1z"/>
	<path class="st0" d="M194,35.7v-1.1c-0.6,0.9-1.6,1.4-2.7,1.4c-2.5,0-4.1-2.1-4.1-4.5c0-2.3,1.6-4.4,4.1-4.4c1.2,0,2,0.5,2.8,1.3
		v-7.2h2.4v14.5H194z M191.9,29.1c-1.3,0-2.3,1-2.3,2.3c0,1.3,1,2.4,2.3,2.4c1.3,0,2.3-1.1,2.3-2.4
		C194.2,30.2,193.2,29.1,191.9,29.1z"/>
	<path class="st0" d="M199.7,25.2c-0.8,0-1.4-0.6-1.4-1.4c0-0.8,0.6-1.4,1.4-1.4s1.4,0.6,1.4,1.4C201.1,24.5,200.5,25.2,199.7,25.2z
		 M198.5,35.7v-8.4h2.3v8.4H198.5z"/>
	<path class="st0" d="M205.4,29.3v6.4h-2.3v-6.4h-0.9v-2h0.9v-2.9h2.3v2.9h1.6v2H205.4z"/>
	<path class="st0" d="M210.6,29.3v6.4h-2.3v-6.4h-0.9v-2h0.9v-2.9h2.3v2.9h1.6v2H210.6z"/>
	<path class="st0" d="M224,35.7v-4.6c0-1.2-0.3-2.1-1.6-2.1c-1.4,0-1.8,1.1-1.8,2.4v4.3h-2.3V21.2h2.3v7.2c0.7-0.9,1.5-1.4,2.6-1.4
		c0.9,0,1.8,0.3,2.4,1c0.6,0.7,0.7,1.5,0.7,2.4v5.3H224z"/>
	<path class="st0" d="M232.6,35.9c-2.3,0-4-1-4-3.5v-5.1h2.3V32c0,1.1,0.5,1.9,1.7,1.9c1.2,0,1.7-0.8,1.7-1.9v-4.7h2.4v5.1
		C236.7,34.9,234.9,35.9,232.6,35.9z"/>
	<path class="st0" d="M241.6,35.9c-1.2,0-2.4-0.5-3.2-1.4l1.2-1.4c0.5,0.6,1.2,1,2,1c0.5,0,1.1-0.3,1.1-0.9c0-1.4-3.7-0.7-3.7-3.5
		c0-1.7,1.4-2.6,3-2.6c1,0,1.9,0.3,2.7,0.9l-1.2,1.4c-0.4-0.3-0.9-0.6-1.4-0.6c-0.4,0-0.9,0.3-0.9,0.7c0,1.2,3.9,0.7,3.9,3.5
		C245.1,34.9,243.4,35.9,241.6,35.9z"/>
	<path class="st0" d="M256.7,35.9c-1.2,0-2-0.4-2.8-1.4v5.6h-2.3V27.3h2.3v1.1c0.8-0.9,1.5-1.3,2.7-1.3c2.5,0,4.1,2.1,4.1,4.5
		C260.8,33.8,259.1,35.9,256.7,35.9z M256,29.1c-1.3,0-2.3,1-2.3,2.3c0,1.3,1,2.4,2.3,2.4s2.3-1.1,2.3-2.4
		C258.3,30.2,257.3,29.1,256,29.1z"/>
	<path class="st0" d="M268.9,35.7v-1.1c-0.6,0.9-1.6,1.4-2.7,1.4c-2.5,0-4.1-2.1-4.1-4.5c0-2.3,1.6-4.4,4.1-4.4c1.2,0,2,0.5,2.8,1.3
		v-1.1h2.4v8.4H268.9z M266.8,29.1c-1.3,0-2.3,1-2.3,2.3c0,1.3,1,2.4,2.3,2.4s2.3-1.1,2.3-2.4C269.2,30.2,268.1,29.1,266.8,29.1z
		 M266.5,25.8c-0.9,0-1.7-0.8-1.7-1.7s0.8-1.7,1.7-1.7c1,0,1.7,0.8,1.7,1.7C268.2,25.1,267.5,25.8,266.5,25.8z M266.5,23.4
		c-0.4,0-0.7,0.3-0.7,0.7s0.3,0.7,0.7,0.7c0.4,0,0.7-0.3,0.7-0.7C267.2,23.7,266.9,23.4,266.5,23.4z"/>
	<path class="st0" d="M280.7,29.3v6.4h-2.3v-6.4h-0.9v-2h0.9v-2.7c0-0.7,0-1.3,0.4-2c0.5-1,1.7-1.7,2.9-1.7c0.5,0,0.8,0.1,1.2,0.3
		v2.1c-0.3-0.2-0.7-0.3-1.1-0.3c-1,0-1.1,1.1-1.1,1.9v2.3h2.2v2H280.7z"/>
	<path class="st0" d="M285.9,31.9c0,1.3,0.7,2.2,2,2.2c0.9,0,1.5-0.4,2-1.1l2.2,0.3c-0.7,1.8-2.2,2.6-4.1,2.6
		c-2.7,0-4.5-1.7-4.5-4.5c0-2.7,1.7-4.4,4.4-4.4c2.8,0,4.3,1.9,4.3,4.5v0.3H285.9z M288,28.7c-1.1,0-1.8,0.7-1.9,1.7h4
		C289.7,29.3,289.1,28.7,288,28.7z"/>
	<path class="st0" d="M304.7,35.7v-4.6c0-1-0.2-2.1-1.4-2.1c-1.4,0-1.6,1.3-1.6,2.4v4.3h-2.3v-4.4c0-0.4,0-1-0.2-1.4
		c-0.2-0.5-0.7-0.8-1.3-0.8c-0.5,0-1.1,0.3-1.3,0.8c-0.3,0.4-0.3,1.1-0.3,1.6v4.3H294v-8.4h2.3v0.9c0.7-0.8,1.5-1.2,2.5-1.2
		c1.2,0,2,0.5,2.6,1.5c0.7-1,1.5-1.5,2.7-1.5c0.9,0,1.8,0.4,2.3,1.2c0.4,0.6,0.4,1.3,0.4,2v5.4H304.7z"/>
	<path class="st0" d="M324.7,35.7v-4.6c0-1-0.2-2.1-1.4-2.1c-1.4,0-1.6,1.3-1.6,2.4v4.3h-2.3v-4.4c0-0.4,0-1-0.2-1.4
		c-0.2-0.5-0.7-0.8-1.3-0.8c-0.5,0-1.1,0.3-1.3,0.8c-0.3,0.4-0.3,1.1-0.3,1.6v4.3h-2.3v-8.4h2.3v0.9c0.7-0.8,1.5-1.2,2.5-1.2
		c1.2,0,2,0.5,2.6,1.5c0.7-1,1.5-1.5,2.7-1.5c0.9,0,1.8,0.4,2.3,1.2c0.4,0.6,0.4,1.3,0.4,2v5.4H324.7z"/>
	<path class="st0" d="M330.4,25.2c-0.8,0-1.4-0.6-1.4-1.4c0-0.8,0.6-1.4,1.4-1.4c0.8,0,1.4,0.6,1.4,1.4
		C331.8,24.5,331.2,25.2,330.4,25.2z M329.3,35.7v-8.4h2.3v8.4H329.3z"/>
	<path class="st0" d="M339.5,35.7V31c0-1.1-0.3-2-1.6-2c-1.4,0-1.8,1.1-1.8,2.3v4.3h-2.3v-8.4h2.3v1c0.8-0.9,1.4-1.3,2.6-1.3
		c0.9,0,1.8,0.3,2.4,1c0.6,0.7,0.7,1.4,0.7,2.3v5.3H339.5z"/>
	<path class="st0" d="M348.1,35.9c-2.3,0-4-1-4-3.5v-5.1h2.3V32c0,1.1,0.5,1.9,1.7,1.9c1.2,0,1.7-0.8,1.7-1.9v-4.7h2.4v5.1
		C352.2,34.9,350.4,35.9,348.1,35.9z"/>
	<path class="st0" d="M356.8,29.3v6.4h-2.3v-6.4h-0.9v-2h0.9v-2.9h2.3v2.9h1.6v2H356.8z"/>
	<path class="st0" d="M361.6,31.9c0,1.3,0.7,2.2,2,2.2c0.9,0,1.5-0.4,2-1.1l2.2,0.3c-0.7,1.8-2.2,2.6-4.1,2.6
		c-2.7,0-4.5-1.7-4.5-4.5c0-2.7,1.7-4.4,4.4-4.4c2.8,0,4.3,1.9,4.3,4.5v0.3H361.6z M363.6,28.7c-1.1,0-1.8,0.7-1.9,1.7h4
		C365.4,29.3,364.7,28.7,363.6,28.7z"/>
	<path class="st0" d="M375.1,29.4c-0.4-0.2-0.7-0.3-1.1-0.3c-1.6,0-2,1.1-2,2.5v4h-2.3v-8.4h2.3v1.3c0.5-0.9,1.3-1.5,2.4-1.5
		c0.4,0,0.7,0.1,1,0.2L375.1,29.4z"/>
	<path class="st0" d="M377,35.9c-0.8,0-1.5-0.7-1.5-1.5c0-0.8,0.7-1.5,1.5-1.5s1.5,0.7,1.5,1.5C378.5,35.2,377.8,35.9,377,35.9z"/>
</g>
</svg>
