<svg id="Layer_1" data-name="Layer 1" xmlns="http://www.w3.org/2000/svg" viewBox="0 0 300 250"><defs><style>.cls-1{fill:#010121;}</style></defs><title>text</title><path class="cls-1" d="M77.3,73.69h1.1V88.55h7.28v1H77.3Z"/><path class="cls-1" d="M87.88,74.26a1,1,0,1,1,1,.94A.92.92,0,0,1,87.88,74.26ZM88.29,78h1.06V89.51H88.29Z"/><path class="cls-1" d="M98.2,73.21a3.12,3.12,0,0,0-1.39-.34c-1.22,0-1.8,1-1.8,2.62V78h2.67v.92H95V89.51H94V78.9H92.37v-.82L94,78V75.42C94,73.14,95,72,96.81,72a4.27,4.27,0,0,1,1.68.38Z"/><path class="cls-1" d="M100.1,72.25h1.05V88.11c0,.51.22.75.51.75a1.8,1.8,0,0,0,.43,0l.19.86a2,2,0,0,1-.77.12c-.93,0-1.41-.57-1.41-1.82Z"/><path class="cls-1" d="M105.38,74.26a1,1,0,1,1,1,.94A.92.92,0,0,1,105.38,74.26Zm.41,3.72h1V89.51h-1Z"/><path class="cls-1" d="M112,89.07V89a2.05,2.05,0,0,1-1-1.85A2.69,2.69,0,0,1,112.27,85v-.1a4.28,4.28,0,0,1-1.44-3.17,4,4,0,0,1,4-4,4.19,4.19,0,0,1,1.51.28h3.92v.89h-2.69a3.85,3.85,0,0,1,1.27,2.91A4,4,0,0,1,113,85.35,2.08,2.08,0,0,0,112,87c0,.84.48,1.51,2.2,1.51h2.48c2.59,0,3.79.82,3.79,2.64,0,2-2.14,3.89-5.45,3.89-2.9,0-4.73-1.25-4.73-3.19A3.64,3.64,0,0,1,112,89.07Zm3.14,5.12c2.59,0,4.25-1.47,4.25-2.91,0-1.27-.94-1.75-2.67-1.75h-2.47a7.4,7.4,0,0,1-1.44-.19,3,3,0,0,0-1.51,2.42C111.33,93.2,112.72,94.19,115.17,94.19Zm2.69-12.44a3,3,0,1,0-6,0,3,3,0,1,0,6,0Z"/><path class="cls-1" d="M126.5,83.05h5.28V84H126.5Z"/><path class="cls-1" d="M25.57,101.05h1.05v15.86c0,.51.22.75.51.75a1.8,1.8,0,0,0,.43,0l.19.86a2,2,0,0,1-.77.12c-.93,0-1.41-.57-1.41-1.82Z"/><path class="cls-1" d="M35.31,106.5c2.74,0,4.42,1.94,4.42,5.33a5,5,0,0,1,0,.86h-8.3c0,2.9,1.75,5,4.34,5a5.15,5.15,0,0,0,3.1-1l.43.82a6.45,6.45,0,0,1-3.62,1.12c-3,0-5.33-2.25-5.33-6S32.74,106.5,35.31,106.5Zm3.41,5.37c0-3-1.32-4.46-3.38-4.46s-3.72,1.7-4,4.46Z"/><path class="cls-1" d="M41.22,106.78h1.15L45,114c.36,1.1.79,2.26,1.15,3.31h.1c.38-1,.79-2.21,1.17-3.31l2.6-7.23h1.08l-4.28,11.53H45.54Z"/><path class="cls-1" d="M57.61,106.5c2.73,0,4.41,1.94,4.41,5.33a6.26,6.26,0,0,1,0,.86H53.67c0,2.9,1.75,5,4.35,5a5.12,5.12,0,0,0,3.09-1l.43.82a6.42,6.42,0,0,1-3.62,1.12c-3,0-5.33-2.25-5.33-6S55,106.5,57.61,106.5ZM61,111.87c0-3-1.32-4.46-3.39-4.46s-3.72,1.7-4,4.46Z"/><path class="cls-1" d="M65.14,106.78h.92l.09,2.14h.07a4,4,0,0,1,3.27-2.42,2.27,2.27,0,0,1,1.15.24l-.24,1a2.42,2.42,0,0,0-1.06-.2c-1,0-2.25.8-3.14,3v7.85H65.14Z"/><path class="cls-1" d="M79,111.08c.05-1.75-.45-3.65-2.71-3.65a6.33,6.33,0,0,0-3.67,1.35l-.48-.8a7.72,7.72,0,0,1,4.27-1.48c2.74,0,3.65,2,3.65,4.44v7.37h-.89L79,116.82H79a6.85,6.85,0,0,1-4.08,1.77c-1.82,0-3.36-1-3.36-3.16C71.55,112.88,73.88,111.66,79,111.08Zm-3.91,6.6A6,6,0,0,0,79,115.81V111.9c-4.73.55-6.33,1.65-6.33,3.48A2.16,2.16,0,0,0,75.08,117.68Z"/><path class="cls-1" d="M84.17,106.78h.92l.09,1.78h.07a5.62,5.62,0,0,1,4-2.06c2.38,0,3.49,1.44,3.49,4.41v7.4H91.64v-7.25c0-2.45-.77-3.6-2.64-3.6-1.37,0-2.35.72-3.77,2.16v8.69H84.17Z"/><path class="cls-1" d="M96.13,116.22a5.35,5.35,0,0,0,3.67,1.46c1.8,0,2.74-1.05,2.74-2.28,0-1.44-1.49-2.06-2.81-2.54-1.76-.63-3.68-1.32-3.68-3.29,0-1.68,1.33-3.07,3.73-3.07a5.31,5.31,0,0,1,3.28,1.2l-.57.74a4.35,4.35,0,0,0-2.76-1c-1.78,0-2.6,1-2.6,2.09,0,1.27,1.35,1.82,2.72,2.33,1.8.67,3.77,1.27,3.77,3.52,0,1.73-1.4,3.24-3.89,3.24A6.71,6.71,0,0,1,95.5,117Z"/><path class="cls-1" d="M110.72,106.5c2.74,0,4.42,1.94,4.42,5.33a5,5,0,0,1,0,.86h-8.31c0,2.9,1.76,5,4.35,5a5.1,5.1,0,0,0,3.09-1l.44.82a6.48,6.48,0,0,1-3.63,1.12c-3,0-5.33-2.25-5.33-6S108.15,106.5,110.72,106.5Zm3.41,5.37c0-3-1.32-4.46-3.39-4.46s-3.72,1.7-4,4.46Z"/><path class="cls-1" d="M118.25,106.78h.92l.09,1.78h.07A5.29,5.29,0,0,1,123,106.5a3,3,0,0,1,3.19,2.35c1.32-1.44,2.59-2.35,3.91-2.35,2.31,0,3.46,1.44,3.46,4.41v7.4h-1.08v-7.25c0-2.45-.82-3.6-2.57-3.6-1.08,0-2.18.72-3.45,2.16v8.69h-1.06v-7.25c0-2.45-.82-3.6-2.59-3.6-1,0-2.19.72-3.46,2.16v8.69h-1.06Z"/><path class="cls-1" d="M141.94,106.5c2.79,0,5.19,2.21,5.19,6.07s-2.4,6-5.19,6-5.16-2.2-5.16-6S139.18,106.5,141.94,106.5Zm0,11.16c2.33,0,4.08-2.07,4.08-5.09s-1.75-5.14-4.08-5.14-4.05,2.09-4.05,5.14S139.61,117.66,141.94,117.66Z"/><path class="cls-1" d="M154.73,106.5a5.29,5.29,0,0,1,3.48,1.41l0-2.11v-4.75h1.05v17.26h-.91l-.1-1.49h-.07a5.4,5.4,0,0,1-3.74,1.77c-2.91,0-4.78-2.13-4.78-6C149.62,108.85,152,106.5,154.73,106.5Zm-.19,11.16a5.21,5.21,0,0,0,3.63-1.9v-6.84a4.9,4.9,0,0,0-3.36-1.49c-2.31,0-4.06,2.24-4.06,5.14C150.75,115.62,152.09,117.66,154.54,117.66Z"/><path class="cls-1" d="M167.69,106.5c2.74,0,4.42,1.94,4.42,5.33a5,5,0,0,1-.05.86h-8.3c.05,2.9,1.75,5,4.34,5a5.15,5.15,0,0,0,3.1-1l.43.82a6.42,6.42,0,0,1-3.62,1.12c-3,0-5.33-2.25-5.33-6S165.13,106.5,167.69,106.5Zm3.41,5.37c0-3-1.32-4.46-3.38-4.46s-3.72,1.7-4,4.46Z"/><path class="cls-1" d="M175.23,101.05h1.06v15.86c0,.51.21.75.5.75a1.75,1.75,0,0,0,.43,0l.19.86a2,2,0,0,1-.76.12c-.94,0-1.42-.57-1.42-1.82Z"/><path class="cls-1" d="M180.92,101.05H182v15.86c0,.51.22.75.51.75a1.8,1.8,0,0,0,.43,0l.19.86a2,2,0,0,1-.77.12c-.93,0-1.41-.57-1.41-1.82Z"/><path class="cls-1" d="M29.26,130.81a3.09,3.09,0,0,0-1.39-.34c-1.22,0-1.8,1-1.8,2.62v2.49h2.67v.92H26.07v10.61H25V136.5H23.43v-.82l1.59-.1V133c0-2.28,1-3.46,2.85-3.46a4.23,4.23,0,0,1,1.68.38Z"/><path class="cls-1" d="M35.12,135.3c2.79,0,5.18,2.2,5.18,6.07s-2.39,6-5.18,6-5.16-2.2-5.16-6S32.36,135.3,35.12,135.3Zm0,11.16c2.33,0,4.08-2.07,4.08-5.09s-1.75-5.14-4.08-5.14-4.06,2.09-4.06,5.14S32.79,146.46,35.12,146.46Z"/><path class="cls-1" d="M43.76,135.58h.91l.1,2.14h.07a4,4,0,0,1,3.26-2.42,2.31,2.31,0,0,1,1.16.24l-.24,1a2.45,2.45,0,0,0-1.06-.2c-1,0-2.26.8-3.14,3v7.85H43.76Z"/><path class="cls-1" d="M55.33,145A5.35,5.35,0,0,0,59,146.48c1.8,0,2.74-1,2.74-2.28,0-1.44-1.49-2.06-2.81-2.54-1.75-.63-3.67-1.32-3.67-3.29,0-1.68,1.32-3.07,3.72-3.07a5.31,5.31,0,0,1,3.28,1.2l-.57.74a4.41,4.41,0,0,0-2.76-1c-1.78,0-2.59,1-2.59,2.09,0,1.27,1.34,1.82,2.71,2.33,1.8.67,3.77,1.27,3.77,3.52,0,1.73-1.4,3.24-3.89,3.24a6.71,6.71,0,0,1-4.23-1.58Z"/><path class="cls-1" d="M65.86,129.85h1.06v12.72h0l5.69-7h1.22l-3.74,4.56,4.36,7H73.33l-3.82-6.17-2.59,3v3.15H65.86Z"/><path class="cls-1" d="M77,135.58h.91l.1,2.14h.07a4,4,0,0,1,3.26-2.42,2.31,2.31,0,0,1,1.16.24l-.24,1a2.45,2.45,0,0,0-1.06-.2c-1,0-2.26.8-3.15,3v7.85H77Z"/><path class="cls-1" d="M88.42,135.3c2.74,0,4.42,1.94,4.42,5.33a5,5,0,0,1,0,.86h-8.3c.05,2.9,1.75,5,4.34,5a5.15,5.15,0,0,0,3.1-1l.43.82a6.42,6.42,0,0,1-3.62,1.12c-3,0-5.33-2.25-5.33-6S85.86,135.3,88.42,135.3Zm3.41,5.37c0-2.95-1.32-4.46-3.38-4.46s-3.72,1.7-4,4.46Z"/><path class="cls-1" d="M100.11,135.3a5.31,5.31,0,0,1,3.48,1.41l0-2.11v-4.75h1.06v17.26h-.91l-.1-1.49h-.07a5.42,5.42,0,0,1-3.74,1.77c-2.91,0-4.78-2.13-4.78-6C95,137.65,97.38,135.3,100.11,135.3Zm-.19,11.16a5.17,5.17,0,0,0,3.62-1.9v-6.84a4.87,4.87,0,0,0-3.36-1.49c-2.3,0-4.05,2.23-4.05,5.14S97.47,146.46,99.92,146.46Z"/><path class="cls-1" d="M113.17,135.3a5.31,5.31,0,0,1,3.48,1.41l-.05-2.11v-4.75h1.06v17.26h-.92l-.09-1.49h-.07a5.43,5.43,0,0,1-3.75,1.77c-2.9,0-4.78-2.13-4.78-6C108.05,137.65,110.43,135.3,113.17,135.3Zm-.2,11.16a5.18,5.18,0,0,0,3.63-1.9v-6.84a4.87,4.87,0,0,0-3.36-1.49c-2.31,0-4.06,2.23-4.06,5.14S110.53,146.46,113,146.46Z"/><path class="cls-1" d="M126.13,135.3c2.73,0,4.41,1.94,4.41,5.33a6.26,6.26,0,0,1,0,.86h-8.31c0,2.9,1.75,5,4.34,5a5.13,5.13,0,0,0,3.1-1l.43.82a6.42,6.42,0,0,1-3.62,1.12c-3,0-5.33-2.25-5.33-6S123.56,135.3,126.13,135.3Zm3.41,5.37c0-2.95-1.33-4.46-3.39-4.46s-3.72,1.7-4,4.46Z"/><path class="cls-1" d="M133.66,135.58h.91l.1,2.14h.07A4,4,0,0,1,138,135.3a2.29,2.29,0,0,1,1.15.24l-.24,1a2.45,2.45,0,0,0-1.06-.2c-1,0-2.25.8-3.14,3v7.85h-1.06Z"/><path class="cls-1" d="M140.21,145a5.39,5.39,0,0,0,3.68,1.46c1.8,0,2.73-1,2.73-2.28,0-1.44-1.49-2.06-2.81-2.54-1.75-.63-3.67-1.32-3.67-3.29,0-1.68,1.32-3.07,3.72-3.07a5.31,5.31,0,0,1,3.29,1.2l-.58.74a4.37,4.37,0,0,0-2.76-1c-1.77,0-2.59,1-2.59,2.09,0,1.27,1.35,1.82,2.71,2.33,1.8.67,3.77,1.27,3.77,3.52,0,1.73-1.39,3.24-3.89,3.24a6.68,6.68,0,0,1-4.22-1.58Z"/><path class="cls-1" d="M150.29,151.38c1.42,0,2.38-1.3,3-3l.31-1-4.73-11.74H150l2.79,7.25c.36,1,.81,2.21,1.24,3.22h.1c.36-1,.74-2.26,1.06-3.22l2.47-7.25h1.08l-4.56,13c-.65,1.92-1.8,3.81-3.87,3.81a2.8,2.8,0,0,1-1.17-.24l.24-.93A2.84,2.84,0,0,0,150.29,151.38Z"/><path class="cls-1" d="M165.37,135.3a5.33,5.33,0,0,1,3.48,1.41l0-2.11v-4.75h1v17.26h-.91l-.09-1.49h-.08a5.38,5.38,0,0,1-3.74,1.77c-2.9,0-4.78-2.13-4.78-6C160.25,137.65,162.63,135.3,165.37,135.3Zm-.2,11.16a5.19,5.19,0,0,0,3.63-1.9v-6.84a4.88,4.88,0,0,0-3.36-1.49c-2.31,0-4.06,2.23-4.06,5.14S162.73,146.46,165.17,146.46Z"/><path class="cls-1" d="M178.42,135.3a5.31,5.31,0,0,1,3.48,1.41l-.05-2.11v-4.75h1.06v17.26H182l-.1-1.49h-.07a5.42,5.42,0,0,1-3.74,1.77c-2.91,0-4.78-2.13-4.78-6C173.31,137.65,175.69,135.3,178.42,135.3Zm-.19,11.16a5.17,5.17,0,0,0,3.62-1.9v-6.84a4.87,4.87,0,0,0-3.36-1.49c-2.3,0-4.05,2.23-4.05,5.14S175.78,146.46,178.23,146.46Z"/><path class="cls-1" d="M66.34,173.82A5.39,5.39,0,0,0,70,175.28c1.8,0,2.73-1.05,2.73-2.28,0-1.44-1.49-2.06-2.81-2.54-1.75-.63-3.67-1.32-3.67-3.29,0-1.68,1.32-3.07,3.72-3.07a5.31,5.31,0,0,1,3.29,1.2l-.58.74a4.37,4.37,0,0,0-2.76-1c-1.77,0-2.59,1-2.59,2.09,0,1.27,1.35,1.82,2.71,2.33,1.8.67,3.77,1.27,3.77,3.52,0,1.73-1.39,3.24-3.89,3.24a6.68,6.68,0,0,1-4.22-1.58Z"/><path class="cls-1" d="M81.08,164.1c2.78,0,5.18,2.21,5.18,6.07s-2.4,6-5.18,6-5.16-2.2-5.16-6S78.32,164.1,81.08,164.1Zm0,11.16c2.33,0,4.08-2.07,4.08-5.09S83.41,165,81.08,165,77,167.12,77,170.17,78.75,175.26,81.08,175.26Z"/><path class="cls-1" d="M100.18,175.76a6.51,6.51,0,0,1-1.89.43c-2.21,0-2.86-1.41-2.86-3.48V165.3H90.94v10.61h-1V165.3H88.3v-.82l1.59-.1v-2.56c0-2.28,1-3.46,2.85-3.46a4.08,4.08,0,0,1,1.68.39l-.29.86a3.09,3.09,0,0,0-1.39-.34c-1.22,0-1.8,1-1.8,2.62v2.49h4.52l.14-3.33h.89v3.33h3.36v.92H96.49v7.51c0,1.46.38,2.45,2,2.45a3.92,3.92,0,0,0,1.44-.36Z"/><path class="cls-1" d="M101,164.38h1.15l2.07,7.47c.29,1.06.55,2,.79,3.07h.1c.26-1,.55-2,.84-3.07l2.08-7.47h1.28l2.09,7.47c.28,1.06.57,2,.86,3.07h.1c.26-1,.55-2,.81-3.07l2-7.47h1.08L113,175.91h-1.39l-2-7.16c-.34-1.1-.55-2.16-.89-3.28h-.09c-.27,1.12-.56,2.23-.92,3.33l-2,7.11h-1.27Z"/><path class="cls-1" d="M125.65,168.68c0-1.75-.46-3.65-2.72-3.65a6.36,6.36,0,0,0-3.67,1.35l-.48-.8a7.75,7.75,0,0,1,4.27-1.48c2.74,0,3.65,2,3.65,4.44v7.37h-.88l-.12-1.49h0a6.88,6.88,0,0,1-4.08,1.77c-1.83,0-3.36-1-3.36-3.16C118.21,170.48,120.53,169.26,125.65,168.68Zm-3.92,6.6a6.08,6.08,0,0,0,3.92-1.87V169.5c-4.73.55-6.34,1.65-6.34,3.48A2.16,2.16,0,0,0,121.73,175.28Z"/><path class="cls-1" d="M130.83,164.38h.91l.1,2.14h.07a4,4,0,0,1,3.26-2.42,2.42,2.42,0,0,1,1.16.24l-.24,1a2.44,2.44,0,0,0-1.06-.19c-1,0-2.26.79-3.14,2.95v7.85h-1.06Z"/><path class="cls-1" d="M142.25,164.1c2.74,0,4.42,1.94,4.42,5.33a5,5,0,0,1,0,.86h-8.3c.05,2.9,1.75,5,4.34,5a5.15,5.15,0,0,0,3.1-1l.43.82a6.42,6.42,0,0,1-3.62,1.12c-3,0-5.33-2.25-5.33-6S139.69,164.1,142.25,164.1Zm3.41,5.37c0-2.95-1.32-4.46-3.38-4.46s-3.72,1.7-4,4.46Z"/></svg>