<svg id="Layer_1" data-name="Layer 1" xmlns="http://www.w3.org/2000/svg" viewBox="0 0 300 250"><defs><style>.cls-1{fill:#010121;}</style></defs><title>text</title><path class="cls-1" d="M41.42,76.26H53.73v3H45v4h7.65v3H45v7.25H41.42Z"/><path class="cls-1" d="M59.24,79.21H55.85V76.13h3.39Zm-3.39,1.52h3.39V93.51H55.85Z"/><path class="cls-1" d="M70.8,81A5.19,5.19,0,0,1,73,82.88a6.13,6.13,0,0,1,1,2.64,15.92,15.92,0,0,1,.11,2.54h-9.3a3,3,0,0,0,1.34,2.69,3.36,3.36,0,0,0,1.84.48,2.83,2.83,0,0,0,1.85-.58,2.87,2.87,0,0,0,.69-.88H74a4.17,4.17,0,0,1-1.24,2.31,6.22,6.22,0,0,1-4.81,1.86,6.91,6.91,0,0,1-4.49-1.57c-1.3-1.05-2-2.75-2-5.12a6.89,6.89,0,0,1,1.76-5.09,6.14,6.14,0,0,1,4.56-1.77A7.29,7.29,0,0,1,70.8,81Zm-5,2.89a3.44,3.44,0,0,0-.89,2h5.76a2.85,2.85,0,0,0-.89-2,3,3,0,0,0-2-.68A2.64,2.64,0,0,0,65.8,83.88Z"/><path class="cls-1" d="M79.23,93.51H75.89V76.23h3.34Z"/><path class="cls-1" d="M89.26,80.94a4.13,4.13,0,0,1,1.47,1.41V76.26h3.38V93.51H90.87V91.74a4.85,4.85,0,0,1-1.63,1.65A4.62,4.62,0,0,1,87,93.9a4.73,4.73,0,0,1-3.77-1.81,6.92,6.92,0,0,1-1.53-4.64,8,8,0,0,1,1.5-5.15,4.91,4.91,0,0,1,4-1.87A4.11,4.11,0,0,1,89.26,80.94Zm.82,9.1a4.63,4.63,0,0,0,.74-2.73A4.17,4.17,0,0,0,89.64,84,2.55,2.55,0,0,0,88,83.35a2.34,2.34,0,0,0-2.15,1.1,5.95,5.95,0,0,0,0,5.58,2.36,2.36,0,0,0,2.12,1.06A2.46,2.46,0,0,0,90.08,90Z"/><path class="cls-1" d="M113.09,80.78a3.78,3.78,0,0,1,1.49,1.15,3.67,3.67,0,0,1,.72,1.64,11.11,11.11,0,0,1,.12,1.89l0,8.05H112V85.37a2.6,2.6,0,0,0-.23-1.19,1.65,1.65,0,0,0-1.64-.89,1.91,1.91,0,0,0-1.91,1.15,3.56,3.56,0,0,0-.27,1.46v7.61h-3.36V85.9a4.15,4.15,0,0,0-.24-1.65,1.63,1.63,0,0,0-1.65-.93,2,2,0,0,0-1.92.93,3.54,3.54,0,0,0-.27,1.57v7.69H97.09V80.76h3.25v1.86a5.3,5.3,0,0,1,1.17-1.42,4.63,4.63,0,0,1,4.89-.1,3.75,3.75,0,0,1,1.1,1.53A4.17,4.17,0,0,1,109.13,81a5,5,0,0,1,2.29-.53A4.44,4.44,0,0,1,113.09,80.78Z"/><path class="cls-1" d="M123.55,85.74a5.18,5.18,0,0,0,1.33-.3,1,1,0,0,0,.72-1,1.12,1.12,0,0,0-.55-1.08,3.49,3.49,0,0,0-1.62-.3,2.13,2.13,0,0,0-1.7.59,2.41,2.41,0,0,0-.48,1.17H118a4.89,4.89,0,0,1,.94-2.75q1.34-1.7,4.57-1.69a8.2,8.2,0,0,1,3.74.83,3.19,3.19,0,0,1,1.64,3.14v5.86c0,.41,0,.9,0,1.48a2,2,0,0,0,.2.89,1.29,1.29,0,0,0,.49.38v.5H126a3.9,3.9,0,0,1-.21-.73c0-.23-.07-.49-.09-.77a6.89,6.89,0,0,1-1.61,1.27,4.77,4.77,0,0,1-2.45.62,4.23,4.23,0,0,1-2.88-1,3.5,3.5,0,0,1-1.14-2.8,3.63,3.63,0,0,1,1.83-3.41,7.94,7.94,0,0,1,3-.82Zm2,1.55a3.06,3.06,0,0,1-.65.33,5.59,5.59,0,0,1-.89.23l-.76.14a4.85,4.85,0,0,0-1.54.45,1.53,1.53,0,0,0-.79,1.42,1.5,1.5,0,0,0,.48,1.24,1.87,1.87,0,0,0,1.18.38,3.47,3.47,0,0,0,2-.63,2.68,2.68,0,0,0,1-2.31Z"/><path class="cls-1" d="M138.61,80.94a4.13,4.13,0,0,1,1.47,1.41V76.26h3.38V93.51h-3.24V91.74a4.85,4.85,0,0,1-1.63,1.65,4.63,4.63,0,0,1-2.28.51,4.73,4.73,0,0,1-3.76-1.81A6.92,6.92,0,0,1,131,87.45a8,8,0,0,1,1.5-5.15,4.91,4.91,0,0,1,4-1.87A4.11,4.11,0,0,1,138.61,80.94Zm.82,9.1a4.7,4.7,0,0,0,.74-2.73A4.2,4.2,0,0,0,139,84a2.55,2.55,0,0,0-1.69-.61,2.33,2.33,0,0,0-2.15,1.1,5.12,5.12,0,0,0-.69,2.75,5,5,0,0,0,.7,2.83,2.34,2.34,0,0,0,2.11,1.06A2.47,2.47,0,0,0,139.43,90Z"/><path class="cls-1" d="M154.82,81A5.22,5.22,0,0,1,157,82.88a6.4,6.4,0,0,1,1,2.64,17.22,17.22,0,0,1,.11,2.54h-9.31a3,3,0,0,0,1.34,2.69,3.38,3.38,0,0,0,1.84.48,2.81,2.81,0,0,0,1.85-.58,2.87,2.87,0,0,0,.69-.88H158a4.17,4.17,0,0,1-1.24,2.31,6.19,6.19,0,0,1-4.8,1.86,7,7,0,0,1-4.5-1.57c-1.3-1.05-1.95-2.75-1.95-5.12a6.93,6.93,0,0,1,1.76-5.09,6.15,6.15,0,0,1,4.57-1.77A7.24,7.24,0,0,1,154.82,81Zm-5,2.89a3.5,3.5,0,0,0-.89,2h5.76a2.81,2.81,0,0,0-.89-2,3,3,0,0,0-2-.68A2.66,2.66,0,0,0,149.82,83.88Z"/><path class="cls-1" d="M161,81.22h3.56v3.51H161ZM161,90h3.56v3.51H161Z"/><path class="cls-1" d="M27.48,114.64l4.39-2.94-.45,2.11-2.94,1.94,2.11,2-.44,2.11L27,116.87Zm4.91,0,4.4-2.94-.44,2.11-3,1.94,2.12,2-.44,2.11-3.16-2.94Z"/><path class="cls-1" d="M42.63,105.09H54.57l-.46,2.11H44.5l-1.1,5.23h8.45l-.44,2H43l-1.66,7.83H39Z"/><path class="cls-1" d="M52.66,122.26l1.84-1.58a5.71,5.71,0,0,1-.49-2,8.88,8.88,0,0,1,.23-2.55,9.79,9.79,0,0,1,2.49-4.73,6.21,6.21,0,0,1,4.75-2.07,5.17,5.17,0,0,1,2.48.54,5.36,5.36,0,0,1,1.27,1l1.83-1.66.48.58-1.86,1.69a6,6,0,0,1,.54,2.47,8.56,8.56,0,0,1-.19,1.81,9.49,9.49,0,0,1-2.69,5,6.65,6.65,0,0,1-4.75,2,5.92,5.92,0,0,1-2.22-.38,3.24,3.24,0,0,1-1.4-1l-1.75,1.5Zm8.51-11a4,4,0,0,0-3,1.43,7.57,7.57,0,0,0-1.8,3.66,7.67,7.67,0,0,0-.17,1.61,9.67,9.67,0,0,0,.12,1.11l7.3-6.61a1.82,1.82,0,0,0-.88-.85A3.24,3.24,0,0,0,61.17,111.23ZM59,121a4.15,4.15,0,0,0,3.59-2.09A8.4,8.4,0,0,0,63.77,116a8.19,8.19,0,0,0,.21-1.82,5.33,5.33,0,0,0-.11-1l-7.21,6.61a2.12,2.12,0,0,0,1,.9A3.58,3.58,0,0,0,59,121Z"/><path class="cls-1" d="M71.5,105.09h2.11L70,122.31H67.85Z"/><path class="cls-1" d="M85.08,111.72a4.74,4.74,0,0,1,.38,2.22,13.94,13.94,0,0,1-.4,2.76h-9.2a4.79,4.79,0,0,0,.25,3.07,2.44,2.44,0,0,0,2.38,1.15,4.12,4.12,0,0,0,2.86-1.09,4.76,4.76,0,0,0,1.11-1.46h2.07a5.48,5.48,0,0,1-.87,1.54,7.1,7.1,0,0,1-1.33,1.39,6.38,6.38,0,0,1-2.65,1.26,7.57,7.57,0,0,1-1.77.19,4.25,4.25,0,0,1-3.61-1.7q-1.26-1.71-.61-4.78a9.06,9.06,0,0,1,2.69-4.91,6.69,6.69,0,0,1,4.69-1.89,5,5,0,0,1,2.46.63A3.4,3.4,0,0,1,85.08,111.72ZM83.25,115a5.12,5.12,0,0,0-.13-2.19,2.4,2.4,0,0,0-2.57-1.53,4,4,0,0,0-2.66,1A5.12,5.12,0,0,0,76.27,115Z"/><path class="cls-1" d="M88.55,118.37a2.74,2.74,0,0,0,.19,1.62c.38.68,1.23,1,2.54,1a4.85,4.85,0,0,0,2.18-.5,2.2,2.2,0,0,0,1.22-1.58,1.07,1.07,0,0,0-.45-1.23,7.25,7.25,0,0,0-1.68-.6L91,116.67a6.6,6.6,0,0,1-2.18-.89,2.13,2.13,0,0,1-.86-2.37,4.6,4.6,0,0,1,1.9-2.88,6.06,6.06,0,0,1,3.68-1.1c1.89,0,3.14.55,3.74,1.66a3.17,3.17,0,0,1,.28,2.27h-2a2.06,2.06,0,0,0-.24-1.3c-.36-.55-1.14-.83-2.34-.83a3.4,3.4,0,0,0-1.9.46,1.87,1.87,0,0,0-.88,1.21,1.2,1.2,0,0,0,.53,1.31,3.87,3.87,0,0,0,1.28.51l1.32.34a9,9,0,0,1,2.83,1.07,2.33,2.33,0,0,1,.68,2.54,5,5,0,0,1-1.89,2.9,6.43,6.43,0,0,1-4.13,1.22c-1.86,0-3.1-.43-3.69-1.28a4.05,4.05,0,0,1-.58-3.14Z"/><path class="cls-1" d="M107.22,118.37a2.74,2.74,0,0,0,.19,1.62c.38.68,1.23,1,2.54,1a4.88,4.88,0,0,0,2.18-.5,2.23,2.23,0,0,0,1.22-1.58,1.06,1.06,0,0,0-.46-1.23,6.93,6.93,0,0,0-1.67-.6l-1.58-.42a6.51,6.51,0,0,1-2.18-.89,2.13,2.13,0,0,1-.86-2.37,4.62,4.62,0,0,1,1.89-2.88,6.07,6.07,0,0,1,3.69-1.1c1.89,0,3.14.55,3.74,1.66a3.17,3.17,0,0,1,.28,2.27h-2a2.06,2.06,0,0,0-.24-1.3,2.67,2.67,0,0,0-2.34-.83,3.46,3.46,0,0,0-1.91.46,1.89,1.89,0,0,0-.87,1.21,1.18,1.18,0,0,0,.53,1.31,3.87,3.87,0,0,0,1.28.51l1.32.34a8.84,8.84,0,0,1,2.82,1.07,2.31,2.31,0,0,1,.68,2.54,5,5,0,0,1-1.88,2.9,6.45,6.45,0,0,1-4.13,1.22c-1.87,0-3.1-.43-3.7-1.28a4.09,4.09,0,0,1-.58-3.14Z"/><path class="cls-1" d="M129.36,115.77a10.14,10.14,0,0,1-2.54,5,6.64,6.64,0,0,1-5,2,4.13,4.13,0,0,1-3.74-1.75,6.09,6.09,0,0,1-.52-4.7,9.34,9.34,0,0,1,2.68-5,6.69,6.69,0,0,1,4.71-1.88A4.6,4.6,0,0,1,128.7,111C129.58,112.09,129.8,113.67,129.36,115.77Zm-2.22.06a5.91,5.91,0,0,0,0-2.86,2.48,2.48,0,0,0-2.71-1.74,3.79,3.79,0,0,0-3.12,1.48,8.28,8.28,0,0,0-1.63,3.56,5.33,5.33,0,0,0,.17,3.34,2.43,2.43,0,0,0,2.5,1.34,3.67,3.67,0,0,0,3.21-1.59A9.38,9.38,0,0,0,127.14,115.83Z"/><path class="cls-1" d="M133.14,109.75h2.09l-.38,1.79a9.63,9.63,0,0,1,1.65-1.35,4.76,4.76,0,0,1,2.51-.72,3.16,3.16,0,0,1,2.27.74,2.9,2.9,0,0,1,.66,1.24,6.29,6.29,0,0,1,2-1.49,5.3,5.3,0,0,1,2.23-.49q2.53,0,3.06,1.83a5.72,5.72,0,0,1-.07,2.65l-1.77,8.36h-2.19l1.85-8.72c.17-.84.08-1.41-.27-1.73a2.08,2.08,0,0,0-1.43-.46,3.64,3.64,0,0,0-2.31.83,4.56,4.56,0,0,0-1.49,2.77L140,122.31h-2.15l1.74-8.2a4.07,4.07,0,0,0,.09-1.86c-.19-.58-.73-.88-1.6-.88a3.84,3.84,0,0,0-2.38.93,5.62,5.62,0,0,0-1.69,3.35l-1.41,6.66h-2.11Z"/><path class="cls-1" d="M169.11,111.72a4.75,4.75,0,0,1,.37,2.22,13.22,13.22,0,0,1-.4,2.76h-9.19a4.73,4.73,0,0,0,.25,3.07,2.41,2.41,0,0,0,2.37,1.15,4.11,4.11,0,0,0,2.86-1.09,4.76,4.76,0,0,0,1.11-1.46h2.08a5.81,5.81,0,0,1-.88,1.54,6.82,6.82,0,0,1-1.33,1.39,6.34,6.34,0,0,1-2.64,1.26,7.57,7.57,0,0,1-1.77.19,4.23,4.23,0,0,1-3.61-1.7q-1.28-1.71-.61-4.78a9,9,0,0,1,2.68-4.91,6.69,6.69,0,0,1,4.69-1.89,5,5,0,0,1,2.46.63A3.47,3.47,0,0,1,169.11,111.72ZM167.27,115a5,5,0,0,0-.13-2.19,2.4,2.4,0,0,0-2.57-1.53,4,4,0,0,0-2.66,1A5.11,5.11,0,0,0,160.3,115Z"/><path class="cls-1" d="M173.15,109.75h2l-.38,1.79A7.56,7.56,0,0,1,177,110a5.7,5.7,0,0,1,2.32-.48c1.78,0,2.85.62,3.21,1.87a6.22,6.22,0,0,1-.1,2.91l-1.71,8.06h-2.14l1.67-7.91a4,4,0,0,0,.06-1.86,1.61,1.61,0,0,0-1.79-1.17,4.66,4.66,0,0,0-1.27.15,4.23,4.23,0,0,0-1.74,1,4.09,4.09,0,0,0-1,1.28,9.42,9.42,0,0,0-.55,1.89l-1.4,6.58h-2.11Z"/><path class="cls-1" d="M34.23,134.72a3.92,3.92,0,0,1,3.07-1.08l.41,0,.47,0-.41,1.92-.46,0H37c-.64,0-1.06.16-1.25.5a10.68,10.68,0,0,0-.73,2.53h2.09l-.35,1.67H34.68l-2.3,10.83H30.29l2.3-10.83H30.84l.36-1.67h1.74l.42-2A4.65,4.65,0,0,1,34.23,134.72Z"/><path class="cls-1" d="M48.66,144.57a10.07,10.07,0,0,1-2.55,5,6.6,6.6,0,0,1-5,2,4.13,4.13,0,0,1-3.74-1.75,6.14,6.14,0,0,1-.53-4.7,9.41,9.41,0,0,1,2.69-5,6.65,6.65,0,0,1,4.71-1.88A4.6,4.6,0,0,1,48,139.81C48.88,140.89,49.1,142.47,48.66,144.57Zm-2.22.06a5.91,5.91,0,0,0,.05-2.86A2.48,2.48,0,0,0,43.78,140a3.79,3.79,0,0,0-3.12,1.48A8.41,8.41,0,0,0,39,145.07a5.47,5.47,0,0,0,.17,3.34,2.46,2.46,0,0,0,2.51,1.34,3.68,3.68,0,0,0,3.21-1.59A9.38,9.38,0,0,0,46.44,144.63Z"/><path class="cls-1" d="M52.5,138.55h2l-.45,2.17a6.53,6.53,0,0,1,1.53-1.54,3.88,3.88,0,0,1,2.41-.91l.19,0,.47,0-.47,2.23-.34-.05H57.5a3.67,3.67,0,0,0-2.66,1,4.57,4.57,0,0,0-1.37,2.36L52,151.11H49.84Z"/><path class="cls-1" d="M61.49,133.89H63.6l-3.66,17.22H57.83Z"/><path class="cls-1" d="M75.07,140.52a4.74,4.74,0,0,1,.38,2.22,14.75,14.75,0,0,1-.4,2.76h-9.2a4.73,4.73,0,0,0,.25,3.07,2.41,2.41,0,0,0,2.37,1.15,4.09,4.09,0,0,0,2.86-1.09,5,5,0,0,0,1.12-1.46h2.07a6,6,0,0,1-.87,1.54,7.41,7.41,0,0,1-1.33,1.39,6.44,6.44,0,0,1-2.65,1.26,7.57,7.57,0,0,1-1.77.19,4.24,4.24,0,0,1-3.61-1.7c-.84-1.14-1.05-2.73-.61-4.78a9,9,0,0,1,2.68-4.91,6.71,6.71,0,0,1,4.69-1.89,5,5,0,0,1,2.46.63A3.47,3.47,0,0,1,75.07,140.52Zm-1.84,3.31a4.82,4.82,0,0,0-.13-2.19,2.39,2.39,0,0,0-2.56-1.53,4,4,0,0,0-2.66,1,5.06,5.06,0,0,0-1.62,2.67Z"/><path class="cls-1" d="M79.11,138.55h2l-.38,1.79A7.56,7.56,0,0,1,83,138.75a5.74,5.74,0,0,1,2.32-.48c1.78,0,2.85.62,3.21,1.87a6.33,6.33,0,0,1-.09,2.91l-1.72,8.06H84.54l1.68-7.91a4.09,4.09,0,0,0,0-1.86,1.61,1.61,0,0,0-1.79-1.17,4.53,4.53,0,0,0-1.26.15,4.27,4.27,0,0,0-1.75,1,4.09,4.09,0,0,0-1,1.28,10.13,10.13,0,0,0-.55,1.89l-1.4,6.58H76.45Z"/><path class="cls-1" d="M99.36,139.06a4,4,0,0,1,1,1.19l.34-1.58h1.94l-2.43,11.42a9.76,9.76,0,0,1-1.5,3.77,6.37,6.37,0,0,1-5.5,2.55,5.22,5.22,0,0,1-3.22-.9,2.86,2.86,0,0,1-.94-2.85h2.14a2,2,0,0,0,.34,1.3,2.59,2.59,0,0,0,2.1.71A3.91,3.91,0,0,0,97.14,153a11,11,0,0,0,1.17-3.6,5.61,5.61,0,0,1-1.82,1.43,5.77,5.77,0,0,1-2.46.47,4,4,0,0,1-3.26-1.45q-1.23-1.44-.51-4.79a9,9,0,0,1,2.58-4.92,6,6,0,0,1,4.1-1.77A3.83,3.83,0,0,1,99.36,139.06Zm-2.43,1.14a3.86,3.86,0,0,0-3.48,2.08,9.08,9.08,0,0,0-1.06,2.92,4.67,4.67,0,0,0,.17,3.23,2.2,2.2,0,0,0,2.08,1.11,4.16,4.16,0,0,0,3.63-2.06,7.59,7.59,0,0,0,1.09-2.7,4.61,4.61,0,0,0-.22-3.46A2.44,2.44,0,0,0,96.93,140.2Z"/><path class="cls-1" d="M115.11,140.52a4.74,4.74,0,0,1,.38,2.22,13.94,13.94,0,0,1-.4,2.76h-9.2a4.79,4.79,0,0,0,.25,3.07,2.44,2.44,0,0,0,2.38,1.15,4.12,4.12,0,0,0,2.86-1.09,4.92,4.92,0,0,0,1.11-1.46h2.07a5.48,5.48,0,0,1-.87,1.54,7.41,7.41,0,0,1-1.33,1.39,6.38,6.38,0,0,1-2.65,1.26,7.57,7.57,0,0,1-1.77.19,4.25,4.25,0,0,1-3.61-1.7q-1.26-1.71-.61-4.78a9.06,9.06,0,0,1,2.69-4.91,6.69,6.69,0,0,1,4.68-1.89,5,5,0,0,1,2.47.63A3.4,3.4,0,0,1,115.11,140.52Zm-1.84,3.31a5,5,0,0,0-.12-2.19,2.4,2.4,0,0,0-2.57-1.53,4,4,0,0,0-2.66,1,5.12,5.12,0,0,0-1.62,2.67Z"/><path class="cls-1" d="M120.21,133.89h2.11l-3.65,17.22h-2.11Z"/><path class="cls-1" d="M123.92,147.17a2.67,2.67,0,0,0,.18,1.62c.39.67,1.23,1,2.55,1a4.72,4.72,0,0,0,2.17-.51,2.14,2.14,0,0,0,1.22-1.57,1.07,1.07,0,0,0-.45-1.23,7.25,7.25,0,0,0-1.68-.6l-1.58-.42a6.6,6.6,0,0,1-2.18-.89,2.15,2.15,0,0,1-.86-2.37,4.6,4.6,0,0,1,1.9-2.88,6.06,6.06,0,0,1,3.68-1.1c1.89,0,3.14.55,3.74,1.66a3.12,3.12,0,0,1,.28,2.27h-2a2.13,2.13,0,0,0-.23-1.3,2.68,2.68,0,0,0-2.35-.83,3.4,3.4,0,0,0-1.9.46,1.87,1.87,0,0,0-.88,1.21,1.2,1.2,0,0,0,.53,1.31,3.87,3.87,0,0,0,1.28.51l1.32.34a9,9,0,0,1,2.83,1.07,2.33,2.33,0,0,1,.68,2.54,5,5,0,0,1-1.88,2.9,6.47,6.47,0,0,1-4.13,1.22c-1.87,0-3.1-.43-3.7-1.28a4.05,4.05,0,0,1-.58-3.14Z"/><path class="cls-1" d="M145.79,140.52a4.74,4.74,0,0,1,.38,2.22,13.94,13.94,0,0,1-.4,2.76h-9.2a4.79,4.79,0,0,0,.25,3.07,2.44,2.44,0,0,0,2.38,1.15,4.12,4.12,0,0,0,2.86-1.09,4.92,4.92,0,0,0,1.11-1.46h2.07a5.48,5.48,0,0,1-.87,1.54A7.41,7.41,0,0,1,143,150.1a6.38,6.38,0,0,1-2.65,1.26,7.57,7.57,0,0,1-1.77.19,4.25,4.25,0,0,1-3.61-1.7q-1.26-1.71-.61-4.78a9.06,9.06,0,0,1,2.69-4.91,6.69,6.69,0,0,1,4.68-1.89,5,5,0,0,1,2.47.63A3.45,3.45,0,0,1,145.79,140.52ZM144,143.83a5,5,0,0,0-.12-2.19,2.4,2.4,0,0,0-2.57-1.53,4,4,0,0,0-2.66,1,5.06,5.06,0,0,0-1.62,2.67Z"/><path class="cls-1" d="M162.18,143.5a1.51,1.51,0,0,0,1.11-.61,2.22,2.22,0,0,0,.3-.81,1.38,1.38,0,0,0-.43-1.56,3.53,3.53,0,0,0-2.1-.49,3.42,3.42,0,0,0-2.53.89,3.63,3.63,0,0,0-.81,1.47h-2a4.67,4.67,0,0,1,2.2-3.23,7.14,7.14,0,0,1,3.55-.91,5.9,5.9,0,0,1,3.41.84,2.36,2.36,0,0,1,.82,2.63L164.19,149a.92.92,0,0,0,0,.53c.06.13.23.2.52.2l.32,0,.4,0-.34,1.55a5.52,5.52,0,0,1-.78.18,6.22,6.22,0,0,1-.71,0,1.37,1.37,0,0,1-1.42-.78,2.47,2.47,0,0,1-.12-1.16,7.44,7.44,0,0,1-2.16,1.47,6.67,6.67,0,0,1-2.79.62,3.23,3.23,0,0,1-2.63-1.06,3,3,0,0,1-.55-2.66,4.39,4.39,0,0,1,1.67-2.7,6.35,6.35,0,0,1,3.11-1.19ZM158,149.73a5.65,5.65,0,0,0,2.28-.51,3.83,3.83,0,0,0,2.35-2.8l.35-1.7a4.52,4.52,0,0,1-1.07.41,8.5,8.5,0,0,1-1.25.23l-1.31.17a5.7,5.7,0,0,0-1.83.48,2.45,2.45,0,0,0-1.34,1.76,1.41,1.41,0,0,0,.35,1.44A2,2,0,0,0,158,149.73Z"/><path class="cls-1" d="M170.88,138.55l1.19,10.22,5.67-10.22h2.31l-7.4,12.56H170.4l-2-12.56Z"/><path class="cls-1" d="M28.13,167.36l1.18,10.21L35,167.36h2.31L29.9,179.91H27.65l-2-12.55Z"/><path class="cls-1" d="M44.77,172.3a1.48,1.48,0,0,0,1.11-.61,2.22,2.22,0,0,0,.3-.81,1.38,1.38,0,0,0-.43-1.56,3.53,3.53,0,0,0-2.1-.49,3.42,3.42,0,0,0-2.53.89,3.63,3.63,0,0,0-.81,1.47h-2a4.67,4.67,0,0,1,2.2-3.23,7.14,7.14,0,0,1,3.55-.91,5.9,5.9,0,0,1,3.41.84,2.36,2.36,0,0,1,.82,2.63l-1.54,7.23a.92.92,0,0,0,0,.53c.06.13.23.2.52.2l.32,0,.4-.05L47.7,180a5.52,5.52,0,0,1-.78.18,6.37,6.37,0,0,1-.71,0,1.37,1.37,0,0,1-1.42-.78,2.47,2.47,0,0,1-.12-1.16,7.37,7.37,0,0,1-2.17,1.47,6.59,6.59,0,0,1-2.78.62,3.26,3.26,0,0,1-2.64-1.06,3,3,0,0,1-.54-2.66,4.39,4.39,0,0,1,1.67-2.7,6.44,6.44,0,0,1,3.11-1.19Zm-4.19,6.24a5.67,5.67,0,0,0,2.28-.52,3.82,3.82,0,0,0,2.35-2.8l.35-1.7a4.52,4.52,0,0,1-1.07.41,8.5,8.5,0,0,1-1.25.23l-1.31.17a5.7,5.7,0,0,0-1.83.48,2.49,2.49,0,0,0-1.35,1.76,1.44,1.44,0,0,0,.36,1.44A2.05,2.05,0,0,0,40.58,178.54Zm5.23-17.69a1.86,1.86,0,0,1,1.56.72,2,2,0,0,1,.31,1.73A3.26,3.26,0,0,1,46.52,165a2.94,2.94,0,0,1-1.89.72,1.84,1.84,0,0,1-1.56-.72,1.92,1.92,0,0,1-.27-1.73,3.08,3.08,0,0,1,1.12-1.73A2.94,2.94,0,0,1,45.81,160.85Zm-.94,3.93a1.8,1.8,0,0,0,1.15-.44,1.89,1.89,0,0,0,.69-1,1.14,1.14,0,0,0-.2-1,1.13,1.13,0,0,0-.95-.44,1.75,1.75,0,0,0-1.12.44,1.85,1.85,0,0,0-.67,1,1.17,1.17,0,0,0,.18,1A1.08,1.08,0,0,0,44.87,164.78Z"/><path class="cls-1" d="M52.5,167.36h2l-.45,2.16A6.53,6.53,0,0,1,55.58,168a3.88,3.88,0,0,1,2.41-.91l.19,0,.47,0-.47,2.23-.34-.05H57.5a3.67,3.67,0,0,0-2.66,1,4.57,4.57,0,0,0-1.37,2.36L52,179.91H49.84Z"/><path class="cls-1" d="M61.61,163.85h2.13L63,167.36h2l-.36,1.72h-2l-1.75,8.19c-.09.44,0,.73.26.88a1.79,1.79,0,0,0,.79.13h.33l.42,0-.35,1.67a5,5,0,0,1-.79.15,7.66,7.66,0,0,1-.86.05c-1,0-1.6-.26-1.85-.76a3.06,3.06,0,0,1-.11-2l1.77-8.31h-1.7l.37-1.72h1.7Z"/><path class="cls-1" d="M83.08,169.32a4.9,4.9,0,0,1,.37,2.22,13.22,13.22,0,0,1-.4,2.76h-9.2a4.79,4.79,0,0,0,.25,3.07,2.44,2.44,0,0,0,2.38,1.15,4.12,4.12,0,0,0,2.86-1.09A4.76,4.76,0,0,0,80.45,176h2.07a5.48,5.48,0,0,1-.87,1.54,7.1,7.1,0,0,1-1.33,1.39,6.21,6.21,0,0,1-2.65,1.26,7.57,7.57,0,0,1-1.77.19,4.25,4.25,0,0,1-3.61-1.7q-1.26-1.71-.61-4.78A9.1,9.1,0,0,1,74.37,169a6.69,6.69,0,0,1,4.69-1.89,5,5,0,0,1,2.46.63A3.47,3.47,0,0,1,83.08,169.32Zm-1.84,3.31a5.12,5.12,0,0,0-.13-2.19,2.4,2.4,0,0,0-2.57-1.53A4,4,0,0,0,75.88,170a5.19,5.19,0,0,0-1.62,2.67Z"/><path class="cls-1" d="M94,167.86a4.15,4.15,0,0,1,1,1.19l.34-1.58h2l-2.43,11.42a10.09,10.09,0,0,1-1.5,3.77,6.39,6.39,0,0,1-5.51,2.55,5.18,5.18,0,0,1-3.21-.9,2.87,2.87,0,0,1-1-2.85h2.15a2,2,0,0,0,.34,1.31,2.58,2.58,0,0,0,2.09.7,3.91,3.91,0,0,0,3.54-1.71,11.16,11.16,0,0,0,1.18-3.6,5.64,5.64,0,0,1-1.83,1.43,5.72,5.72,0,0,1-2.45.47,4.06,4.06,0,0,1-3.27-1.45q-1.22-1.44-.5-4.79a9,9,0,0,1,2.58-4.92,6,6,0,0,1,4.09-1.77A3.9,3.9,0,0,1,94,167.86ZM91.58,169a3.88,3.88,0,0,0-3.48,2.08,9.33,9.33,0,0,0-1,2.92,4.62,4.62,0,0,0,.17,3.23,2.2,2.2,0,0,0,2.08,1.11,4.19,4.19,0,0,0,3.63-2.05A7.91,7.91,0,0,0,94,173.58a4.66,4.66,0,0,0-.22-3.46A2.46,2.46,0,0,0,91.58,169Z"/><path class="cls-1" d="M109.77,169.32a4.9,4.9,0,0,1,.38,2.22,14.75,14.75,0,0,1-.4,2.76h-9.2a4.73,4.73,0,0,0,.25,3.07,2.41,2.41,0,0,0,2.37,1.15,4.11,4.11,0,0,0,2.86-1.09,5,5,0,0,0,1.12-1.46h2.07a6,6,0,0,1-.87,1.54A7.41,7.41,0,0,1,107,178.9a6.32,6.32,0,0,1-2.65,1.26,7.57,7.57,0,0,1-1.77.19,4.24,4.24,0,0,1-3.61-1.7c-.84-1.14-1-2.73-.61-4.78a9.09,9.09,0,0,1,2.68-4.91,6.71,6.71,0,0,1,4.69-1.89,5,5,0,0,1,2.46.63A3.47,3.47,0,0,1,109.77,169.32Zm-1.84,3.31a4.82,4.82,0,0,0-.13-2.19,2.39,2.39,0,0,0-2.56-1.53,4,4,0,0,0-2.66,1.05,5.06,5.06,0,0,0-1.62,2.67Z"/><path class="cls-1" d="M115,163.85h2.13l-.75,3.51h2l-.36,1.72h-2l-1.74,8.19c-.09.44,0,.73.26.88a1.79,1.79,0,0,0,.79.13h.33l.42,0-.35,1.67a5.24,5.24,0,0,1-.79.15,7.81,7.81,0,0,1-.86.05c-1,0-1.6-.26-1.85-.76a3.06,3.06,0,0,1-.11-2l1.77-8.31h-1.7l.37-1.72h1.7Z"/><path class="cls-1" d="M128.32,163.85h2.13l-.75,3.51h2l-.37,1.72h-2l-1.75,8.19c-.09.44,0,.73.26.88a1.84,1.84,0,0,0,.8.13H129l.42,0-.35,1.67a5.24,5.24,0,0,1-.79.15,7.81,7.81,0,0,1-.86.05c-1,0-1.6-.26-1.85-.76a3,3,0,0,1-.11-2l1.77-8.31h-1.7l.36-1.72h1.7Z"/><path class="cls-1" d="M143.12,169.32a4.77,4.77,0,0,1,.38,2.22,14.75,14.75,0,0,1-.4,2.76h-9.2a4.79,4.79,0,0,0,.25,3.07,2.41,2.41,0,0,0,2.37,1.15,4.09,4.09,0,0,0,2.86-1.09A5,5,0,0,0,140.5,176h2.07a5.74,5.74,0,0,1-.87,1.54,7.41,7.41,0,0,1-1.33,1.39,6.32,6.32,0,0,1-2.65,1.26,7.57,7.57,0,0,1-1.77.19,4.24,4.24,0,0,1-3.61-1.7c-.84-1.14-1.05-2.73-.61-4.78a9.1,9.1,0,0,1,2.69-4.91,6.67,6.67,0,0,1,4.68-1.89,5,5,0,0,1,2.46.63A3.47,3.47,0,0,1,143.12,169.32Zm-1.84,3.31a4.82,4.82,0,0,0-.13-2.19,2.39,2.39,0,0,0-2.56-1.53,4,4,0,0,0-2.66,1.05,5.06,5.06,0,0,0-1.62,2.67Z"/><path class="cls-1" d="M152.84,172.3a1.48,1.48,0,0,0,1.11-.61,2.22,2.22,0,0,0,.3-.81,1.38,1.38,0,0,0-.43-1.56,3.53,3.53,0,0,0-2.1-.49,3.42,3.42,0,0,0-2.53.89,3.63,3.63,0,0,0-.81,1.47h-2a4.63,4.63,0,0,1,2.19-3.23,7.14,7.14,0,0,1,3.55-.91,5.9,5.9,0,0,1,3.41.84,2.36,2.36,0,0,1,.82,2.63l-1.54,7.23a.92.92,0,0,0,0,.53c.06.13.23.2.52.2l.32,0,.4-.05-.34,1.55a5.52,5.52,0,0,1-.78.18,6.22,6.22,0,0,1-.71,0,1.37,1.37,0,0,1-1.42-.78,2.47,2.47,0,0,1-.12-1.16,7.44,7.44,0,0,1-2.16,1.47,6.67,6.67,0,0,1-2.79.62,3.24,3.24,0,0,1-2.63-1.06,3,3,0,0,1-.55-2.66,4.39,4.39,0,0,1,1.67-2.7,6.44,6.44,0,0,1,3.11-1.19Zm-4.19,6.24a5.67,5.67,0,0,0,2.28-.52,3.82,3.82,0,0,0,2.35-2.8l.35-1.7a4.52,4.52,0,0,1-1.07.41,8.5,8.5,0,0,1-1.25.23l-1.31.17a5.7,5.7,0,0,0-1.83.48,2.45,2.45,0,0,0-1.34,1.76,1.41,1.41,0,0,0,.35,1.44A2.05,2.05,0,0,0,148.65,178.54Z"/><path class="cls-1" d="M160.51,167.36h2.09l-.38,1.78a10,10,0,0,1,1.64-1.35,4.82,4.82,0,0,1,2.52-.72,3.16,3.16,0,0,1,2.27.74,2.9,2.9,0,0,1,.66,1.24,6.29,6.29,0,0,1,2-1.49,5.3,5.3,0,0,1,2.23-.49q2.53,0,3.06,1.83a5.72,5.72,0,0,1-.07,2.65l-1.77,8.36h-2.19l1.85-8.72c.17-.84.08-1.41-.27-1.73a2.08,2.08,0,0,0-1.43-.46,3.64,3.64,0,0,0-2.31.83,4.56,4.56,0,0,0-1.49,2.78l-1.54,7.3h-2.15l1.74-8.2a4.07,4.07,0,0,0,.09-1.86c-.2-.58-.73-.88-1.61-.88a3.84,3.84,0,0,0-2.37.93,5.62,5.62,0,0,0-1.69,3.35L160,179.91h-2.11Z"/><path class="cls-1" d="M179.54,175.3l2.89-1.94-2.05-2,.44-2.11,3.15,2.94-.48,2.23-4.39,2.94Zm4.91,0,2.89-1.94-2.05-2,.44-2.11,3.17,2.94-.48,2.23L184,177.41Z"/></svg>