<svg id="Layer_1" data-name="Layer 1" xmlns="http://www.w3.org/2000/svg" viewBox="0 0 300 250"><defs><style>.cls-1{fill:#fff;}</style></defs><title>text</title><path class="cls-1" d="M99.18,81.07h4.45c3.19,0,5.32,1.08,5.32,4.25s-2.18,4.47-5.32,4.47H101v5.72H99.18Zm4.2,7.22c2.53,0,3.74-.92,3.74-3s-1.25-2.77-3.74-2.77H101v5.74Z"/><path class="cls-1" d="M115.26,84.55c2.62,0,4.95,2,4.95,5.63s-2.33,5.59-4.95,5.59-5-2-5-5.59S112.65,84.55,115.26,84.55Zm0,9.72c1.85,0,3.08-1.65,3.08-4.09S117.11,86,115.26,86s-3.08,1.68-3.08,4.14S113.44,94.27,115.26,94.27Z"/><path class="cls-1" d="M121.67,84.81h1.84L125.1,91c.24,1,.44,2,.64,3h.08c.25-1,.47-2,.73-3l1.65-6.19H130L131.63,91c.27,1,.51,2,.75,3h.09c.24-1,.44-2,.66-3l1.56-6.19h1.72l-2.86,10.7h-2.2l-1.54-5.75c-.27-1-.47-2-.73-3.08H129c-.24,1.08-.46,2.09-.75,3.11l-1.49,5.72h-2.11Z"/><path class="cls-1" d="M142.65,84.55c2.73,0,4.27,2,4.27,5a7.1,7.1,0,0,1-.06,1h-7.22c.13,2.31,1.52,3.76,3.56,3.76a4.83,4.83,0,0,0,2.67-.84l.63,1.19a6.37,6.37,0,0,1-3.52,1.1c-2.86,0-5.12-2.09-5.12-5.59S140.21,84.55,142.65,84.55Zm2.69,4.82c0-2.18-1-3.39-2.64-3.39-1.5,0-2.86,1.23-3.08,3.39Z"/><path class="cls-1" d="M149.56,79.84h1.8V93.48c0,.57.25.79.51.79a1.7,1.7,0,0,0,.4,0l.24,1.36a2.42,2.42,0,0,1-1,.18c-1.36,0-1.91-.86-1.91-2.42Z"/><path class="cls-1" d="M159.61,79.84h1.81v4.27l-.07,2.2a5.1,5.1,0,0,1,3.57-1.76c2.24,0,3.25,1.45,3.25,4.18v6.78h-1.8V89c0-2-.62-2.86-2-2.86-1.1,0-1.84.57-2.92,1.65v7.75h-1.81Z"/><path class="cls-1" d="M177.63,88.73c0-1.36-.46-2.69-2.2-2.69a5.79,5.79,0,0,0-3.19,1.15l-.72-1.26a8,8,0,0,1,4.2-1.38c2.62,0,3.72,1.74,3.72,4.4v6.56h-1.5l-.15-1.28h0a5.77,5.77,0,0,1-3.54,1.54,2.92,2.92,0,0,1-3.15-3C171.05,90.4,173.08,89.24,177.63,88.73Zm-2.92,5.59a4.39,4.39,0,0,0,2.92-1.43v-3c-3.58.44-4.79,1.32-4.79,2.68A1.64,1.64,0,0,0,174.71,94.32Z"/><path class="cls-1" d="M182.56,93.09a4.84,4.84,0,0,0,3.15,1.27c1.41,0,2.11-.75,2.11-1.67,0-1.1-1.28-1.58-2.44-2-1.52-.55-3.19-1.28-3.19-3.09s1.36-3,3.67-3a5.33,5.33,0,0,1,3.32,1.21l-.85,1.14a4,4,0,0,0-2.45-.94c-1.34,0-2,.72-2,1.54,0,1,1.17,1.38,2.38,1.84,1.54.58,3.26,1.22,3.26,3.24,0,1.74-1.39,3.19-3.92,3.19a6.45,6.45,0,0,1-4-1.47Z"/><path class="cls-1" d="M196.22,93.09a4.86,4.86,0,0,0,3.15,1.27c1.41,0,2.11-.75,2.11-1.67,0-1.1-1.28-1.58-2.44-2-1.52-.55-3.19-1.28-3.19-3.09s1.36-3,3.67-3a5.33,5.33,0,0,1,3.32,1.21L202,86.9a4,4,0,0,0-2.45-.94c-1.34,0-1.95.72-1.95,1.54,0,1,1.16,1.38,2.37,1.84,1.54.58,3.26,1.22,3.26,3.24,0,1.74-1.39,3.19-3.92,3.19a6.45,6.45,0,0,1-4-1.47Z"/><path class="cls-1" d="M206,86.29h-1.58V84.92l1.67-.11.22-3h1.52v3h2.88v1.48h-2.88v5.94c0,1.32.42,2.07,1.65,2.07a4,4,0,0,0,1.21-.29l.35,1.36a6.52,6.52,0,0,1-2,.4c-2.29,0-3.06-1.45-3.06-3.56Z"/><path class="cls-1" d="M218.82,88.73c0-1.36-.47-2.69-2.2-2.69a5.8,5.8,0,0,0-3.2,1.15l-.72-1.26a8,8,0,0,1,4.2-1.38c2.62,0,3.72,1.74,3.72,4.4v6.56h-1.5L219,94.23h0a5.82,5.82,0,0,1-3.55,1.54,2.91,2.91,0,0,1-3.14-3C212.24,90.4,214.26,89.24,218.82,88.73Zm-2.93,5.59a4.43,4.43,0,0,0,2.93-1.43v-3c-3.59.44-4.8,1.32-4.8,2.68A1.64,1.64,0,0,0,215.89,94.32Z"/><path class="cls-1" d="M224.34,86.29h-1.59V84.92l1.68-.11.22-3h1.51v3h2.89v1.48h-2.89v5.94c0,1.32.42,2.07,1.65,2.07A3.89,3.89,0,0,0,229,94l.36,1.36a6.58,6.58,0,0,1-2,.4c-2.29,0-3.06-1.45-3.06-3.56Z"/><path class="cls-1" d="M235.25,84.55c2.73,0,4.27,2,4.27,5a5.75,5.75,0,0,1-.07,1h-7.21c.13,2.31,1.51,3.76,3.56,3.76a4.8,4.8,0,0,0,2.66-.84l.64,1.19a6.39,6.39,0,0,1-3.52,1.1c-2.86,0-5.13-2.09-5.13-5.59S232.81,84.55,235.25,84.55Zm2.68,4.82c0-2.18-1-3.39-2.64-3.39-1.49,0-2.86,1.23-3.08,3.39Z"/><path class="cls-1" d="M103.23,111c2.62,0,5,2,5,5.63s-2.33,5.59-5,5.59-5-2-5-5.59S100.61,111,103.23,111Zm0,9.72c1.85,0,3.08-1.65,3.08-4.09s-1.23-4.14-3.08-4.14-3.08,1.68-3.08,4.14S101.4,120.67,103.23,120.67Z"/><path class="cls-1" d="M115.81,107.71a3.06,3.06,0,0,0-1.21-.26c-1,0-1.49.7-1.49,2.07v1.69h2.26v1.48h-2.26v9.22H111.3v-9.22h-1.45v-1.37l1.45-.11v-1.69c0-2.18,1-3.54,3.13-3.54a4.78,4.78,0,0,1,1.78.35Z"/><path class="cls-1" d="M122.17,112.69h-1.58v-1.37l1.67-.11.22-3H124v3h2.88v1.48H124v5.94c0,1.32.41,2.07,1.65,2.07a4,4,0,0,0,1.21-.29l.35,1.36a6.52,6.52,0,0,1-2,.4c-2.29,0-3.06-1.45-3.06-3.56Z"/><path class="cls-1" d="M129.3,106.24h1.8v4.27l-.06,2.2A5.1,5.1,0,0,1,134.6,111c2.25,0,3.26,1.45,3.26,4.18v6.78h-1.81v-6.54c0-2-.61-2.86-2-2.86-1.1,0-1.85.57-2.93,1.65v7.75h-1.8Z"/><path class="cls-1" d="M145.27,111c2.73,0,4.27,2,4.27,5a5.79,5.79,0,0,1-.07,1h-7.21c.13,2.31,1.51,3.76,3.56,3.76a4.8,4.8,0,0,0,2.66-.84l.64,1.19a6.39,6.39,0,0,1-3.52,1.1c-2.86,0-5.13-2.09-5.13-5.59S142.83,111,145.27,111Zm2.69,4.82c0-2.18-1-3.39-2.65-3.39-1.49,0-2.86,1.23-3.08,3.39Z"/><path class="cls-1" d="M162.67,115.13c0-1.37-.46-2.69-2.2-2.69a5.79,5.79,0,0,0-3.19,1.15l-.72-1.26a8,8,0,0,1,4.2-1.38c2.62,0,3.72,1.74,3.72,4.4v6.56H163l-.15-1.28h-.05a5.77,5.77,0,0,1-3.54,1.54,2.92,2.92,0,0,1-3.15-3C156.09,116.8,158.12,115.63,162.67,115.13Zm-2.92,5.59a4.39,4.39,0,0,0,2.92-1.43v-3c-3.58.44-4.79,1.32-4.79,2.68A1.64,1.64,0,0,0,159.75,120.72Z"/><path class="cls-1" d="M167.89,111.21h1.49l.16,1.94h.06a3.67,3.67,0,0,1,3-2.2,2.55,2.55,0,0,1,1.14.22l-.35,1.58a3,3,0,0,0-1-.17c-.91,0-2,.66-2.71,2.46v6.87h-1.8Z"/><path class="cls-1" d="M175.83,112.69h-1.59v-1.37l1.68-.11.21-3h1.52v3h2.89v1.48h-2.89v5.94c0,1.32.42,2.07,1.65,2.07a3.89,3.89,0,0,0,1.21-.29l.36,1.36a6.58,6.58,0,0,1-2,.4c-2.29,0-3.06-1.45-3.06-3.56Z"/><path class="cls-1" d="M187.11,119.49a4.86,4.86,0,0,0,3.15,1.27c1.41,0,2.11-.75,2.11-1.67,0-1.1-1.27-1.59-2.44-2-1.52-.55-3.19-1.28-3.19-3.09s1.36-3,3.67-3a5.36,5.36,0,0,1,3.33,1.21l-.86,1.14a4,4,0,0,0-2.44-.94c-1.35,0-2,.72-2,1.54,0,1,1.16,1.38,2.37,1.85,1.54.57,3.26,1.21,3.26,3.23,0,1.74-1.39,3.19-3.92,3.19a6.45,6.45,0,0,1-4-1.47Z"/><path class="cls-1" d="M200.78,111c2.61,0,4.95,2,4.95,5.63s-2.34,5.59-4.95,5.59-5-2-5-5.59S198.16,111,200.78,111Zm0,9.72c1.84,0,3.08-1.65,3.08-4.09s-1.24-4.14-3.08-4.14-3.08,1.68-3.08,4.14S199,120.67,200.78,120.67Z"/><path class="cls-1" d="M219.52,121.77a6.52,6.52,0,0,1-2,.4c-2.29,0-3.06-1.45-3.06-3.56v-5.92h-3.83v9.22h-1.8v-9.22H207.4v-1.37l1.45-.11v-1.69c0-2.18,1-3.54,3.12-3.54a4.78,4.78,0,0,1,1.78.35l-.39,1.38a3.14,3.14,0,0,0-1.21-.26c-1,0-1.5.7-1.5,2.07v1.69h3.92l.22-3h1.5v3h2.9v1.48h-2.9v5.94c0,1.32.44,2.07,1.67,2.07a4,4,0,0,0,1.21-.29Z"/><path class="cls-1" d="M220.33,111.21h1.85l1.59,6.19c.24,1,.44,2,.63,3h.09c.24-1,.46-2,.73-3l1.65-6.19h1.76l1.67,6.19c.26,1,.51,2,.75,3h.09c.24-1,.44-2,.66-3l1.56-6.19h1.72l-2.87,10.7H230l-1.54-5.75c-.26-1-.46-2-.72-3.08h-.09c-.24,1.08-.46,2.09-.75,3.11l-1.49,5.72H223.3Z"/><path class="cls-1" d="M243.24,115.13c0-1.37-.47-2.69-2.2-2.69a5.8,5.8,0,0,0-3.2,1.15l-.72-1.26a8,8,0,0,1,4.2-1.38c2.62,0,3.72,1.74,3.72,4.4v6.56h-1.5l-.15-1.28h0a5.77,5.77,0,0,1-3.54,1.54,2.91,2.91,0,0,1-3.14-3C236.66,116.8,238.68,115.63,243.24,115.13Zm-2.93,5.59a4.43,4.43,0,0,0,2.93-1.43v-3c-3.59.44-4.8,1.32-4.8,2.68A1.64,1.64,0,0,0,240.31,120.72Z"/><path class="cls-1" d="M248.45,111.21H250l.15,1.94h.07a3.65,3.65,0,0,1,3-2.2,2.63,2.63,0,0,1,1.15.22l-.36,1.58a3,3,0,0,0-1-.17c-.9,0-2,.66-2.71,2.46v6.87h-1.8Z"/><path class="cls-1" d="M259.87,111c2.72,0,4.26,2,4.26,5a7.15,7.15,0,0,1-.06,1h-7.22c.13,2.31,1.52,3.76,3.57,3.76a4.8,4.8,0,0,0,2.66-.84l.64,1.19a6.42,6.42,0,0,1-3.52,1.1c-2.86,0-5.13-2.09-5.13-5.59S257.42,111,259.87,111Zm2.68,4.82c0-2.18-1-3.39-2.64-3.39-1.5,0-2.86,1.23-3.08,3.39Z"/><path class="cls-1" d="M99.38,139.09H97.79v-1.37l1.68-.11.22-3h1.52v3h2.88v1.48h-2.88V145c0,1.32.41,2.07,1.65,2.07a4,4,0,0,0,1.21-.29l.35,1.36a6.58,6.58,0,0,1-2,.4c-2.29,0-3.06-1.45-3.06-3.57Z"/><path class="cls-1" d="M110.45,137.35c2.61,0,5,2,5,5.63s-2.34,5.59-5,5.59-5-2-5-5.59S107.83,137.35,110.45,137.35Zm0,9.72c1.84,0,3.08-1.65,3.08-4.09s-1.24-4.14-3.08-4.14-3.09,1.68-3.09,4.14S108.62,147.07,110.45,147.07Z"/><path class="cls-1" d="M128.71,141.53c0-1.37-.47-2.69-2.2-2.69a5.8,5.8,0,0,0-3.2,1.15l-.72-1.26a8,8,0,0,1,4.2-1.38c2.62,0,3.72,1.74,3.72,4.4v6.56H129l-.15-1.28h0a5.82,5.82,0,0,1-3.55,1.54,2.91,2.91,0,0,1-3.14-3C122.13,143.2,124.15,142,128.71,141.53Zm-2.93,5.59a4.43,4.43,0,0,0,2.93-1.43v-3c-3.59.44-4.8,1.32-4.8,2.68A1.64,1.64,0,0,0,125.78,147.12Z"/><path class="cls-1" d="M133.76,137.61h1.83v6.54c0,2,.59,2.86,2,2.86,1.1,0,1.87-.55,2.89-1.81v-7.59h1.8v10.7h-1.5l-.15-1.68h-.07a4.5,4.5,0,0,1-3.52,1.94c-2.26,0-3.28-1.45-3.28-4.18Z"/><path class="cls-1" d="M146.19,139.09h-1.58v-1.37l1.67-.11.22-3H148v3h2.88v1.48H148V145c0,1.32.42,2.07,1.65,2.07a4,4,0,0,0,1.21-.29l.35,1.36a6.52,6.52,0,0,1-2,.4c-2.29,0-3.06-1.45-3.06-3.57Z"/><path class="cls-1" d="M157.26,137.35c2.62,0,5,2,5,5.63s-2.33,5.59-5,5.59-4.95-2-4.95-5.59S154.64,137.35,157.26,137.35Zm0,9.72c1.85,0,3.08-1.65,3.08-4.09s-1.23-4.14-3.08-4.14-3.08,1.68-3.08,4.14S155.43,147.07,157.26,147.07Z"/><path class="cls-1" d="M165,137.61h1.49l.16,1.54h.06a4.72,4.72,0,0,1,3.32-1.8,2.81,2.81,0,0,1,2.95,2c1.13-1.21,2.23-2,3.52-2,2.2,0,3.26,1.45,3.26,4.18v6.78H178v-6.54c0-2-.64-2.86-2-2.86a3.93,3.93,0,0,0-2.69,1.65v7.75h-1.8v-6.54c0-2-.64-2.86-2-2.86a4,4,0,0,0-2.68,1.65v7.75H165Z"/><path class="cls-1" d="M189.32,141.53c0-1.37-.47-2.69-2.2-2.69a5.8,5.8,0,0,0-3.2,1.15l-.72-1.26a8,8,0,0,1,4.2-1.38c2.62,0,3.72,1.74,3.72,4.4v6.56h-1.5l-.15-1.28h-.05a5.77,5.77,0,0,1-3.54,1.54,2.91,2.91,0,0,1-3.14-3C182.74,143.2,184.76,142,189.32,141.53Zm-2.93,5.59a4.43,4.43,0,0,0,2.93-1.43v-3c-3.59.44-4.8,1.32-4.8,2.68A1.64,1.64,0,0,0,186.39,147.12Z"/><path class="cls-1" d="M194.84,139.09h-1.59v-1.37l1.67-.11.22-3h1.52v3h2.88v1.48h-2.88V145c0,1.32.42,2.07,1.65,2.07a3.89,3.89,0,0,0,1.21-.29l.36,1.36a6.64,6.64,0,0,1-2,.4c-2.28,0-3-1.45-3-3.57Z"/><path class="cls-1" d="M205.75,137.35c2.73,0,4.27,2,4.27,5a5.55,5.55,0,0,1-.07,1h-7.22c.14,2.32,1.52,3.77,3.57,3.77a4.8,4.8,0,0,0,2.66-.84l.64,1.19a6.42,6.42,0,0,1-3.52,1.1c-2.86,0-5.13-2.09-5.13-5.59S203.31,137.35,205.75,137.35Zm2.68,4.82c0-2.18-1-3.39-2.64-3.39-1.49,0-2.86,1.23-3.08,3.39Z"/><path class="cls-1" d="M221.1,137.35c2.73,0,4.27,2,4.27,5a6.85,6.85,0,0,1-.06,1h-7.22c.13,2.32,1.52,3.77,3.56,3.77a4.83,4.83,0,0,0,2.67-.84l.63,1.19a6.37,6.37,0,0,1-3.52,1.1c-2.86,0-5.12-2.09-5.12-5.59S218.66,137.35,221.1,137.35Zm2.69,4.82c0-2.18-1-3.39-2.64-3.39-1.5,0-2.86,1.23-3.08,3.39Z"/><path class="cls-1" d="M228,137.61h1.5l.15,1.54h.07a5,5,0,0,1,3.58-1.8c2.25,0,3.26,1.45,3.26,4.18v6.78h-1.8v-6.54c0-2-.62-2.86-2-2.86-1.1,0-1.85.57-2.92,1.65v7.75H228Z"/><path class="cls-1" d="M244.05,137.35c2.73,0,4.27,2,4.27,5a5.55,5.55,0,0,1-.07,1H241c.13,2.32,1.51,3.77,3.56,3.77a4.8,4.8,0,0,0,2.66-.84l.64,1.19a6.39,6.39,0,0,1-3.52,1.1c-2.86,0-5.13-2.09-5.13-5.59S241.61,137.35,244.05,137.35Zm2.68,4.82c0-2.18-1-3.39-2.64-3.39-1.49,0-2.86,1.23-3.08,3.39Z"/><path class="cls-1" d="M251,137.61h1.49l.16,1.94h.06a3.67,3.67,0,0,1,3-2.2,2.55,2.55,0,0,1,1.14.22l-.35,1.58a3,3,0,0,0-1-.17c-.9,0-2,.66-2.71,2.46v6.87H251Z"/><path class="cls-1" d="M259.12,147.93v-.09a2,2,0,0,1-.95-1.73,2.49,2.49,0,0,1,1.17-2V144a3.77,3.77,0,0,1,2.64-6.69,4.41,4.41,0,0,1,1.52.26h3.72V139H265a3.12,3.12,0,0,1,.88,2.2,3.86,3.86,0,0,1-5.53,3.34,1.64,1.64,0,0,0-.68,1.28c0,.68.44,1.17,1.89,1.17h2.07c2.49,0,3.74.77,3.74,2.55,0,2-2.09,3.69-5.41,3.69-2.62,0-4.42-1-4.42-2.88A3.08,3.08,0,0,1,259.12,147.93Zm3.12,4c2.05,0,3.39-1.06,3.39-2.18s-.77-1.32-2.15-1.32h-1.85a5.28,5.28,0,0,1-1.39-.17,2.24,2.24,0,0,0-1.1,1.8C259.14,151.25,260.31,152,262.24,152Zm2-10.83a2.28,2.28,0,1,0-4.54,0,2.29,2.29,0,1,0,4.54,0Z"/><path class="cls-1" d="M269.46,151.41c1.21,0,2-1,2.42-2.29l.24-.79-4.29-10.72h1.87l2.18,5.92c.33.93.7,2,1,3H273c.31-1,.62-2.06.9-3l1.92-5.92h1.76l-4,11.58c-.75,2.11-1.85,3.71-4,3.71a3.38,3.38,0,0,1-1.26-.22l.35-1.43A3,3,0,0,0,269.46,151.41Z"/><path class="cls-1" d="M105.12,167.93c0-1.37-.46-2.68-2.2-2.68a5.79,5.79,0,0,0-3.19,1.14L99,165.13a8.05,8.05,0,0,1,4.21-1.38c2.62,0,3.72,1.74,3.72,4.4v6.56h-1.5l-.15-1.28h0a5.77,5.77,0,0,1-3.54,1.54,2.92,2.92,0,0,1-3.15-3C98.54,169.6,100.57,168.44,105.12,167.93Zm-2.92,5.59a4.39,4.39,0,0,0,2.92-1.43v-3c-3.58.44-4.79,1.32-4.79,2.68A1.64,1.64,0,0,0,102.2,173.52Z"/><path class="cls-1" d="M110.05,172.29a4.83,4.83,0,0,0,3.14,1.27c1.41,0,2.12-.75,2.12-1.67,0-1.1-1.28-1.58-2.45-2-1.51-.55-3.19-1.28-3.19-3.08s1.37-3,3.68-3a5.33,5.33,0,0,1,3.32,1.21l-.86,1.14a3.94,3.94,0,0,0-2.44-.94c-1.34,0-2,.72-2,1.54,0,1,1.17,1.38,2.38,1.84,1.54.58,3.26,1.21,3.26,3.24,0,1.74-1.39,3.19-3.92,3.19a6.45,6.45,0,0,1-4-1.47Z"/><path class="cls-1" d="M119.27,172.29a4.83,4.83,0,0,0,3.14,1.27c1.41,0,2.11-.75,2.11-1.67,0-1.1-1.27-1.58-2.44-2-1.52-.55-3.19-1.28-3.19-3.08s1.37-3,3.68-3a5.33,5.33,0,0,1,3.32,1.21L125,166.1a4,4,0,0,0-2.44-.94c-1.34,0-2,.72-2,1.54,0,1,1.17,1.38,2.38,1.84,1.54.58,3.25,1.21,3.25,3.24,0,1.74-1.38,3.19-3.91,3.19a6.51,6.51,0,0,1-4-1.47Z"/><path class="cls-1" d="M132.77,163.75c2.73,0,4.27,2,4.27,5a6.85,6.85,0,0,1-.06,1h-7.22c.13,2.32,1.52,3.77,3.57,3.77a4.8,4.8,0,0,0,2.66-.84l.64,1.19a6.43,6.43,0,0,1-3.53,1.1c-2.86,0-5.12-2.09-5.12-5.59S130.33,163.75,132.77,163.75Zm2.69,4.82c0-2.18-1-3.39-2.64-3.39-1.5,0-2.86,1.23-3.08,3.39Z"/><path class="cls-1" d="M139.68,165.49H138.1v-1.37l1.67-.11.22-3h1.52v3h2.88v1.48h-2.88v5.94c0,1.32.42,2.07,1.65,2.07a4,4,0,0,0,1.21-.29l.35,1.36a6.52,6.52,0,0,1-2,.4c-2.29,0-3.06-1.45-3.06-3.56Z"/><path class="cls-1" d="M155.41,163.75c2.62,0,5,2,5,5.63s-2.33,5.59-5,5.59-4.95-2.05-4.95-5.59S152.79,163.75,155.41,163.75Zm0,9.72c1.85,0,3.08-1.65,3.08-4.09s-1.23-4.13-3.08-4.13-3.08,1.67-3.08,4.13S153.59,173.47,155.41,173.47Z"/><path class="cls-1" d="M165,175.61v3.61h-1.8V164h1.49l.16,1.24h.06a5.52,5.52,0,0,1,3.41-1.5c2.76,0,4.23,2.13,4.23,5.46,0,3.63-2.18,5.76-4.62,5.76a5,5,0,0,1-3-1.23Zm2.62-2.16c1.76,0,3.06-1.6,3.06-4.24,0-2.36-.79-3.94-2.82-3.94a4.49,4.49,0,0,0-2.86,1.45v5.61A4.27,4.27,0,0,0,167.6,173.45Z"/><path class="cls-1" d="M175.7,165.49h-1.59v-1.37l1.67-.11.22-3h1.52v3h2.88v1.48h-2.88v5.94c0,1.32.42,2.07,1.65,2.07a3.89,3.89,0,0,0,1.21-.29l.35,1.36a6.52,6.52,0,0,1-2,.4c-2.28,0-3.05-1.45-3.05-3.56Z"/><path class="cls-1" d="M182.49,160.65a1.26,1.26,0,1,1,1.26,1.16A1.17,1.17,0,0,1,182.49,160.65Zm.33,3.36h1.81v10.7h-1.81Z"/><path class="cls-1" d="M188.24,164h1.49l.15,1.54H190a4.72,4.72,0,0,1,3.32-1.8,2.81,2.81,0,0,1,2.95,2c1.12-1.21,2.22-2,3.52-2,2.2,0,3.26,1.45,3.26,4.18v6.78h-1.81v-6.54c0-2-.63-2.86-2-2.86a3.93,3.93,0,0,0-2.68,1.65v7.75h-1.8v-6.54c0-2-.64-2.86-2-2.86A4,4,0,0,0,190,167v7.75h-1.8Z"/><path class="cls-1" d="M206.14,160.65a1.26,1.26,0,1,1,1.26,1.16A1.17,1.17,0,0,1,206.14,160.65Zm.33,3.36h1.81v10.7h-1.81Z"/><path class="cls-1" d="M210.76,173.74l5.64-8.25h-5V164h7.3v1l-5.63,8.25h5.81v1.48h-8.1Z"/><path class="cls-1" d="M226.78,167.93c0-1.37-.46-2.68-2.2-2.68a5.79,5.79,0,0,0-3.19,1.14l-.73-1.26a8,8,0,0,1,4.21-1.38c2.61,0,3.71,1.74,3.71,4.4v6.56h-1.49l-.16-1.28h0a5.77,5.77,0,0,1-3.54,1.54,2.92,2.92,0,0,1-3.15-3C220.2,169.6,222.23,168.44,226.78,167.93Zm-2.93,5.59a4.39,4.39,0,0,0,2.93-1.43v-3c-3.59.44-4.8,1.32-4.8,2.68A1.64,1.64,0,0,0,223.85,173.52Z"/><path class="cls-1" d="M232.3,165.49h-1.58v-1.37l1.67-.11.22-3h1.52v3H237v1.48h-2.88v5.94c0,1.32.41,2.07,1.65,2.07a4,4,0,0,0,1.21-.29l.35,1.36a6.52,6.52,0,0,1-2,.4c-2.29,0-3.06-1.45-3.06-3.56Z"/><path class="cls-1" d="M239.1,160.65a1.26,1.26,0,0,1,2.51,0,1.26,1.26,0,0,1-2.51,0Zm.33,3.36h1.8v10.7h-1.8Z"/><path class="cls-1" d="M249,163.75c2.62,0,4.95,2,4.95,5.63S251.62,175,249,175s-4.95-2.05-4.95-5.59S246.38,163.75,249,163.75Zm0,9.72c1.85,0,3.08-1.65,3.08-4.09s-1.23-4.13-3.08-4.13-3.08,1.67-3.08,4.13S247.17,173.47,249,173.47Z"/><path class="cls-1" d="M256.76,164h1.5l.15,1.54h.07a5,5,0,0,1,3.59-1.8c2.24,0,3.25,1.45,3.25,4.18v6.78h-1.8v-6.54c0-2-.62-2.86-2-2.86-1.11,0-1.85.57-2.93,1.65v7.75h-1.81Z"/></svg>