<svg id="Layer_1" data-name="Layer 1" xmlns="http://www.w3.org/2000/svg" viewBox="0 0 300 250"><defs><style>.cls-1{fill:#d4ac76;}</style></defs><title>text</title><path class="cls-1" d="M52.59,91.6H48.93v2.72h3.91V95.5H47.69V86.61h5.08v1.18H48.93v2.63h3.66Z"/><path class="cls-1" d="M55,87.79V86.61h7.2v1.18h-3V95.5H58V87.79Z"/><path class="cls-1" d="M63.94,87.79V86.61h7.2v1.18h-3V95.5H66.92V87.79Z"/><path class="cls-1" d="M81.14,95.5l-3.47-8.89h1.39l2.67,6.83,2.66-6.83h1.38L82.29,95.5Z"/><path class="cls-1" d="M86.52,95.5l3.57-8.89h1.12l3.5,8.89H93.34l-.54-1.37H88.45L87.9,95.5Zm3.21-9.83a.58.58,0,0,1-.44.19.56.56,0,0,1-.44-.19.69.69,0,0,1-.18-.49.68.68,0,0,1,.18-.48.56.56,0,0,1,.44-.19.58.58,0,0,1,.44.19.68.68,0,0,1,.18.48A.69.69,0,0,1,89.73,85.67Zm.92,3L88.92,93h3.42Zm1.55-3a.58.58,0,0,1-.45.19.58.58,0,0,1-.44-.19.69.69,0,0,1-.18-.49.68.68,0,0,1,.18-.48.58.58,0,0,1,.44-.19.58.58,0,0,1,.45.19.68.68,0,0,1,.18.48A.69.69,0,0,1,92.2,85.67Z"/><path class="cls-1" d="M97.18,95.5V86.61h3.3a2.78,2.78,0,0,1,2,.77,2.75,2.75,0,0,1-1.56,4.74l2.58,3.38H102l-2.56-3.39h-1V95.5Zm3.14-7.71h-1.9V91h1.89a1.75,1.75,0,0,0,1.25-.44,1.48,1.48,0,0,0,.49-1.17,1.51,1.51,0,0,0-.49-1.13A1.74,1.74,0,0,0,100.32,87.79Z"/><path class="cls-1" d="M106.41,95.5V86.61h2.38a4.42,4.42,0,0,1,4.4,4.43,4.3,4.3,0,0,1-1.29,3.2,4.36,4.36,0,0,1-3.16,1.26Zm2.43-7.71h-1.19v6.53h1.22a2.86,2.86,0,0,0,2.19-1A3.28,3.28,0,0,0,112,91a3.17,3.17,0,0,0-.92-2.31A3,3,0,0,0,108.84,87.79Z"/><path class="cls-1" d="M121.15,91.6h-3.66v2.72h3.91V95.5h-5.15V86.61h5.08v1.18h-3.84v2.63h3.66Z"/><path class="cls-1" d="M124.48,95.5V86.61h4.86v1.18h-3.61v2.8h3.19v1.18h-3.19V95.5Z"/><path class="cls-1" d="M135.11,95.65a3.07,3.07,0,0,1-2.31-.93,3.2,3.2,0,0,1-.91-2.35V86.61h1.24V92.3a2.31,2.31,0,0,0,.53,1.55,1.82,1.82,0,0,0,1.45.61,1.89,1.89,0,0,0,1.48-.6,2.28,2.28,0,0,0,.53-1.55v-5.7h1.24v5.76a3.24,3.24,0,0,1-.9,2.35A3.13,3.13,0,0,1,135.11,95.65Z"/><path class="cls-1" d="M141.89,95.5V86.61h1.25v7.71h3.65V95.5Z"/><path class="cls-1" d="M149.52,95.5V86.61h1.24v7.71h3.66V95.5Z"/><path class="cls-1" d="M154.65,87.79V86.61h7.2v1.18h-3V95.5h-1.24V87.79Z"/><path class="cls-1" d="M174.25,91.6H170.6v2.72h3.91V95.5h-5.15V86.61h5.08v1.18H170.6v2.63h3.65Z"/><path class="cls-1" d="M177.59,95.5V86.61h3.3a2.79,2.79,0,0,1,2,.77,2.67,2.67,0,0,1,.81,2,2.7,2.7,0,0,1-.67,1.86,2.67,2.67,0,0,1-1.7.87l2.57,3.38h-1.53l-2.55-3.39h-1V95.5Zm3.13-7.71h-1.89V91h1.88a1.76,1.76,0,0,0,1.26-.44,1.5,1.5,0,0,0,.48-1.17,1.48,1.48,0,0,0-.49-1.13A1.72,1.72,0,0,0,180.72,87.79Z"/><path class="cls-1" d="M186.81,95.5V86.61h2.72a2.84,2.84,0,0,1,2,.69,2.27,2.27,0,0,1,.77,1.79,2.1,2.1,0,0,1-1,1.91,2.25,2.25,0,0,1,.95.8,2.07,2.07,0,0,1,.36,1.2,2.32,2.32,0,0,1-.78,1.82,2.92,2.92,0,0,1-2,.68Zm2.6-7.71h-1.36V90.5h1.59a1.3,1.3,0,0,0,1-.4,1.35,1.35,0,0,0,.4-1,1.14,1.14,0,0,0-.44-.93A1.82,1.82,0,0,0,189.41,87.79Zm.27,3.81h-1.63v2.72h1.55a1.82,1.82,0,0,0,1.22-.38,1.26,1.26,0,0,0,.46-1,1.23,1.23,0,0,0-.41-1A1.71,1.71,0,0,0,189.68,91.6Z"/><path class="cls-1" d="M197.32,95.64a3,3,0,0,1-1.76-.53,2.76,2.76,0,0,1-1.05-1.43l1.15-.57a2,2,0,0,0,.62,1,1.6,1.6,0,0,0,1,.36,1.52,1.52,0,0,0,1.21-.5,2.06,2.06,0,0,0,.44-1.38v-6h1.24v5.93a3.08,3.08,0,0,1-.81,2.29A2.79,2.79,0,0,1,197.32,95.64Z"/><path class="cls-1" d="M206.68,95.65a3.1,3.1,0,0,1-2.32-.93,3.24,3.24,0,0,1-.91-2.35V86.61h1.25V92.3a2.26,2.26,0,0,0,.53,1.55,1.8,1.8,0,0,0,1.45.61,1.88,1.88,0,0,0,1.47-.6,2.23,2.23,0,0,0,.54-1.55v-5.7h1.24v5.76a3.2,3.2,0,0,1-.91,2.35A3.11,3.11,0,0,1,206.68,95.65Z"/><path class="cls-1" d="M213.46,95.5V86.61h2.38a4.42,4.42,0,0,1,4.4,4.43,4.36,4.36,0,0,1-4.45,4.46Zm2.43-7.71H214.7v6.53h1.22a2.86,2.86,0,0,0,2.19-1A3.24,3.24,0,0,0,219,91a3.13,3.13,0,0,0-.92-2.31A3,3,0,0,0,215.89,87.79Z"/><path class="cls-1" d="M222,95.5l3.57-8.89h1.12l3.51,8.89h-1.38l-.53-1.37h-4.36l-.55,1.37Zm4.13-6.85L224.4,93h3.42Z"/><path class="cls-1" d="M232.66,95.5V86.61h.87l4.81,6.12V86.61h1.25V95.5h-.69l-5-6.35V95.5Z"/><path class="cls-1" d="M243.3,95.5V86.61h2.38a4.48,4.48,0,0,1,3.11,7.63,4.34,4.34,0,0,1-3.15,1.26Zm2.43-7.71h-1.19v6.53h1.22a2.9,2.9,0,0,0,2.2-1,3.27,3.27,0,0,0,.88-2.32,3.16,3.16,0,0,0-.91-2.31A3,3,0,0,0,245.73,87.79Z"/><path class="cls-1" d="M258,91.6h-3.65v2.72h3.91V95.5h-5.16V86.61h5.09v1.18h-3.84v2.63H258Z"/><path class="cls-1" d="M106.71,110.5l-3.47-8.89h1.4l2.66,6.83,2.67-6.83h1.37l-3.47,8.89Z"/><path class="cls-1" d="M112.1,110.5l3.57-8.89h1.12l3.5,8.89h-1.37l-.54-1.37H114l-.55,1.37Zm3.21-9.83a.58.58,0,0,1-.45.19.54.54,0,0,1-.43-.19.69.69,0,0,1-.18-.49.68.68,0,0,1,.18-.48.54.54,0,0,1,.43-.19.58.58,0,0,1,.45.19.68.68,0,0,1,.18.48A.69.69,0,0,1,115.31,100.67Zm.92,3L114.5,108h3.41Zm1.54-3a.6.6,0,0,1-.88,0,.69.69,0,0,1-.18-.49.68.68,0,0,1,.18-.48.6.6,0,0,1,.88,0,.68.68,0,0,1,.18.48A.69.69,0,0,1,117.77,100.67Z"/><path class="cls-1" d="M122.76,110.5v-8.89h.86l4.82,6.12v-6.12h1.24v8.89H129l-5-6.35v6.35Z"/><path class="cls-1" d="M132.22,102.79v-1.18h7.2v1.18h-3v7.71H135.2v-7.71Z"/><path class="cls-1" d="M140,110.5l3.57-8.89h1.12l3.5,8.89h-1.37l-.54-1.37h-4.36l-.55,1.37Zm4.13-6.85L142.4,108h3.41Z"/><path class="cls-1" d="M150.66,110.5v-8.89H154a2.81,2.81,0,0,1,2,.77,2.66,2.66,0,0,1,.8,2,2.63,2.63,0,0,1-2.36,2.73L157,110.5h-1.53l-2.55-3.39h-1v3.39Zm3.13-7.71H151.9V106h1.88a1.79,1.79,0,0,0,1.26-.44,1.5,1.5,0,0,0,.48-1.17,1.48,1.48,0,0,0-.49-1.13A1.72,1.72,0,0,0,153.79,102.79Z"/><path class="cls-1" d="M164.69,110.5v-8.89h3a2.79,2.79,0,0,1,2.06.83,2.87,2.87,0,0,1,.83,2.11,2.76,2.76,0,0,1-.85,2.08,2.85,2.85,0,0,1-2.09.83h-1.74v3Zm2.95-7.71h-1.71v3.49h1.72a1.65,1.65,0,0,0,1.72-1.73,1.78,1.78,0,0,0-.49-1.26A1.68,1.68,0,0,0,167.64,102.79Z"/><path class="cls-1" d="M171.77,110.5l3.57-8.89h1.12l3.5,8.89h-1.37l-.54-1.37H173.7l-.55,1.37Zm4.13-6.85-1.73,4.3h3.42Zm.86-2.64a1.23,1.23,0,1,1,.35-.86A1.19,1.19,0,0,1,176.76,101Zm-.86-.37a.49.49,0,0,0,.34-.14.52.52,0,0,0,.14-.35.5.5,0,0,0-.14-.35.45.45,0,0,0-.34-.14.45.45,0,0,0-.35.14.47.47,0,0,0-.15.35.5.5,0,0,0,.5.49Z"/><path class="cls-1" d="M192.29,106.6h-3.66v2.72h3.91v1.18h-5.15v-8.89h5.08v1.18h-3.84v2.63h3.66Z"/><path class="cls-1" d="M195.62,110.5v-8.89h3.3a2.78,2.78,0,0,1,2,.77,2.75,2.75,0,0,1-1.56,4.74l2.58,3.38h-1.53l-2.56-3.39h-1v3.39Zm3.14-7.71h-1.9V106h1.88a1.76,1.76,0,0,0,1.26-.44,1.48,1.48,0,0,0,.49-1.17,1.51,1.51,0,0,0-.49-1.13A1.74,1.74,0,0,0,198.76,102.79Z"/></svg>