<svg id="Layer_1" data-name="Layer 1" xmlns="http://www.w3.org/2000/svg" viewBox="0 0 300 250"><defs><style>.cls-1{fill:#010121;}</style></defs><title>text</title><path class="cls-1" d="M49.78,73.76h9.1v1.68H51.8v5.33h6v1.68h-6v7.06h-2Z"/><path class="cls-1" d="M61,74.17a1.37,1.37,0,0,1,2.74,0,1.37,1.37,0,0,1-2.74,0Zm.36,3.67h2V89.51h-2Z"/><path class="cls-1" d="M71.67,77.55c3,0,4.66,2.14,4.66,5.48a8.26,8.26,0,0,1-.07,1.08H68.38c.15,2.52,1.66,4.1,3.89,4.1a5.3,5.3,0,0,0,2.91-.91l.69,1.29A6.92,6.92,0,0,1,72,89.79c-3.12,0-5.59-2.28-5.59-6.09S69,77.55,71.67,77.55Zm2.93,5.26c0-2.38-1.06-3.7-2.88-3.7-1.63,0-3.12,1.35-3.36,3.7Z"/><path class="cls-1" d="M79.21,72.42h2V87.3c0,.62.26.86.55.86a1.59,1.59,0,0,0,.43,0l.26,1.49a2.65,2.65,0,0,1-1.13.19c-1.48,0-2.08-.93-2.08-2.64Z"/><path class="cls-1" d="M89.55,77.55a4.83,4.83,0,0,1,3.27,1.35l-.1-2V72.42h2V89.51H93.08l-.17-1.37h-.07a5.24,5.24,0,0,1-3.53,1.65c-2.93,0-4.82-2.2-4.82-6.09S86.89,77.55,89.55,77.55Zm.19,10.59a4,4,0,0,0,3-1.61v-6.1a4,4,0,0,0-2.83-1.22c-1.88,0-3.36,1.8-3.36,4.46S87.7,88.14,89.74,88.14Z"/><path class="cls-1" d="M98.65,77.84h1.63l.17,1.68h.07a5.14,5.14,0,0,1,3.62-2,3.06,3.06,0,0,1,3.22,2.24c1.22-1.33,2.42-2.24,3.84-2.24,2.4,0,3.55,1.59,3.55,4.56v7.4h-2V82.38c0-2.19-.69-3.12-2.16-3.12-.91,0-1.84.6-2.92,1.8v8.45h-2V82.38c0-2.19-.7-3.12-2.19-3.12-.86,0-1.84.6-2.92,1.8v8.45h-2Z"/><path class="cls-1" d="M125.14,82.11c0-1.48-.5-2.92-2.4-2.92a6.32,6.32,0,0,0-3.48,1.24l-.79-1.37a8.7,8.7,0,0,1,4.58-1.51c2.86,0,4.06,1.9,4.06,4.8v7.16h-1.63l-.17-1.4h0a6.29,6.29,0,0,1-3.86,1.68A3.18,3.18,0,0,1,118,86.48C118,83.94,120.17,82.67,125.14,82.11ZM122,88.21a4.76,4.76,0,0,0,3.19-1.56V83.41c-3.91.48-5.23,1.44-5.23,2.93A1.79,1.79,0,0,0,122,88.21Z"/><path class="cls-1" d="M135.05,77.55a4.81,4.81,0,0,1,3.27,1.35l-.1-2V72.42h2V89.51h-1.63l-.16-1.37h-.08a5.24,5.24,0,0,1-3.53,1.65c-2.92,0-4.82-2.2-4.82-6.09S132.39,77.55,135.05,77.55Zm.2,10.59a3.94,3.94,0,0,0,3-1.61v-6.1a4,4,0,0,0-2.83-1.22c-1.87,0-3.36,1.8-3.36,4.46S133.21,88.14,135.25,88.14Z"/><path class="cls-1" d="M148.52,77.55c3,0,4.66,2.14,4.66,5.48a6.72,6.72,0,0,1-.08,1.08h-7.87c.15,2.52,1.66,4.1,3.89,4.1a5.27,5.27,0,0,0,2.9-.91l.7,1.29a7,7,0,0,1-3.84,1.2c-3.12,0-5.59-2.28-5.59-6.09S145.85,77.55,148.52,77.55Zm2.93,5.26c0-2.38-1.06-3.7-2.88-3.7-1.64,0-3.12,1.35-3.36,3.7Z"/><path class="cls-1" d="M157.09,78.13a1.5,1.5,0,1,1-1.44,1.51A1.43,1.43,0,0,1,157.09,78.13Zm0,8.64a1.45,1.45,0,0,1,1.41,1.54,1.43,1.43,0,1,1-2.85,0A1.45,1.45,0,0,1,157.09,86.77Z"/><path class="cls-1" d="M39.34,112.71v-.91l3.29-3.86.6.5-2.95,3.82,2.95,3.86-.6.46Zm3.36,0v-.91L46,107.94l.57.5-2.93,3.82,2.93,3.86-.57.46Z"/><path class="cls-1" d="M52,102.49h8.35l-.19.89H52.81l-1.27,6.41h6.19l-.19.88H51.39l-1.53,7.64h-1Z"/><path class="cls-1" d="M69.08,108.54a5.59,5.59,0,0,1,.53,2.52c0,4.32-3,7.53-6.1,7.53a3.61,3.61,0,0,1-2.93-1.32l-1.51,1.56-.5-.48,1.63-1.68a5.35,5.35,0,0,1-.58-2.64c0-4.32,3-7.53,6.08-7.53a3.55,3.55,0,0,1,3,1.41l1.58-1.63.5.5Zm-1.06.07a2.64,2.64,0,0,0-2.4-1.25c-2.52,0-5,3-5,6.53a5.47,5.47,0,0,0,.34,2Zm-6.77,8a2.64,2.64,0,0,0,2.33,1.13c2.55,0,5-3,5-6.53a5.84,5.84,0,0,0-.28-1.92Z"/><path class="cls-1" d="M75.08,101.05h1l-3.14,15.84a2.1,2.1,0,0,0,0,.48c0,.22.1.36.34.36a.82.82,0,0,0,.41-.1l.07.8a1.74,1.74,0,0,1-.82.16,1,1,0,0,1-1.05-1,3.39,3.39,0,0,1,.11-.74Z"/><path class="cls-1" d="M83.24,106.5c2.5,0,3.46,1.7,3.46,4.08a6.68,6.68,0,0,1-.32,2h-8c-.62,3.63,1.16,5.16,3.44,5.16a5.13,5.13,0,0,0,2.88-1.12l.45.72a6.11,6.11,0,0,1-3.48,1.24c-2.66,0-4.39-1.65-4.39-4.75C77.24,109.47,80.29,106.5,83.24,106.5Zm2.4,5.3a6,6,0,0,0,.14-1.37c0-1.56-.67-3.09-2.64-3.09s-4,1.85-4.65,4.46Z"/><path class="cls-1" d="M88.21,115.93a3.86,3.86,0,0,0,3.26,1.82,2.77,2.77,0,0,0,3-2.42c0-.91-.41-1.51-2.21-2.47-2.06-1.11-2.8-1.92-2.8-3.12A3.38,3.38,0,0,1,93,106.5a4.32,4.32,0,0,1,3.19,1.39l-.64.62A3.44,3.44,0,0,0,93,107.34a2.48,2.48,0,0,0-2.64,2.25c0,1.11,1,1.68,2.13,2.31,2.5,1.34,2.88,2.23,2.88,3.26,0,2.11-1.72,3.43-4,3.43a4.89,4.89,0,0,1-3.84-2.13Z"/><path class="cls-1" d="M102.08,115.93a3.87,3.87,0,0,0,3.26,1.82,2.76,2.76,0,0,0,3-2.42c0-.91-.4-1.51-2.2-2.47-2.07-1.11-2.81-1.92-2.81-3.12a3.38,3.38,0,0,1,3.62-3.24,4.32,4.32,0,0,1,3.19,1.39l-.64.62a3.44,3.44,0,0,0-2.57-1.17,2.48,2.48,0,0,0-2.64,2.25c0,1.11,1,1.68,2.13,2.31,2.5,1.34,2.88,2.23,2.88,3.26,0,2.11-1.72,3.43-4,3.43a4.89,4.89,0,0,1-3.84-2.13Z"/><path class="cls-1" d="M111.8,114c0-4.32,3-7.53,6.07-7.53,2.38,0,3.91,1.65,3.91,4.56,0,4.29-3,7.53-6.09,7.53C113.33,118.59,111.8,116.91,111.8,114Zm1-.14c0,2.5,1.08,3.84,3,3.84,2.47,0,5-3,5-6.55,0-2.5-1.08-3.82-3-3.82C115.33,107.36,112.78,110.36,112.78,113.89Z"/><path class="cls-1" d="M126.13,106.78h.81l-.26,1.83h.09c1.3-1.2,2.72-2.11,3.84-2.11a2.35,2.35,0,0,1,2.67,2.4c1.58-1.54,3.07-2.4,4.2-2.4,1.92,0,2.71,1.12,2.71,2.8a6.57,6.57,0,0,1-.19,1.57l-1.49,7.44h-1L139,111a6.84,6.84,0,0,0,.19-1.49c0-1.42-.6-2.14-2-2.14-.74,0-2.23.72-3.84,2.43l-1.7,8.5h-1l1.47-7.3a6.84,6.84,0,0,0,.19-1.49c0-1.42-.6-2.14-2-2.14-.75,0-2.24.72-3.82,2.43l-1.7,8.5h-1Z"/><path class="cls-1" d="M153.15,106.5c2.5,0,3.46,1.7,3.46,4.08a6.68,6.68,0,0,1-.32,2h-8c-.62,3.63,1.16,5.16,3.44,5.16a5.13,5.13,0,0,0,2.88-1.12l.45.72a6.11,6.11,0,0,1-3.48,1.24c-2.66,0-4.39-1.65-4.39-4.75C147.15,109.47,150.2,106.5,153.15,106.5Zm2.4,5.3a6,6,0,0,0,.14-1.37c0-1.56-.67-3.09-2.64-3.09s-4,1.85-4.65,4.46Z"/><path class="cls-1" d="M160.73,106.78h.82l-.26,1.83h.09c1.42-1.2,2.71-2.11,4.13-2.11,2,0,2.74,1.12,2.74,2.8a6.57,6.57,0,0,1-.19,1.57l-1.49,7.44h-1l1.49-7.3a8.36,8.36,0,0,0,.19-1.49c0-1.42-.6-2.14-2.06-2.14-1,0-2.35.72-4.08,2.43l-1.71,8.5h-1Z"/><path class="cls-1" d="M39.91,135.68l1.53-.1.53-2.64c.48-2.28,1.66-3.38,3.17-3.38a3.25,3.25,0,0,1,1.8.53l-.43.74a2.56,2.56,0,0,0-1.37-.41c-1.15,0-1.9,1.13-2.18,2.52l-.53,2.64H45l-.19.87H42.24l-2.12,10.66h-1l2.11-10.66H39.76Z"/><path class="cls-1" d="M45,142.83c0-4.32,3-7.53,6.07-7.53,2.38,0,3.92,1.65,3.92,4.56,0,4.29-3,7.53-6.1,7.53C46.51,147.39,45,145.71,45,142.83Zm1-.14c0,2.5,1.08,3.84,3,3.84,2.47,0,5-3,5-6.55,0-2.5-1.08-3.82-3-3.82C48.5,136.16,46,139.16,46,142.69Z"/><path class="cls-1" d="M59.3,135.58h.82l-.36,2.19h.09c1-1.37,2.14-2.47,3.63-2.47a2.76,2.76,0,0,1,1,.19l-.39.93a2.14,2.14,0,0,0-.91-.19c-1.22,0-2.69,1.18-3.72,3.24L58,147.11H57Z"/><path class="cls-1" d="M68,129.85h1l-3.14,15.84a2.1,2.1,0,0,0,0,.48c0,.22.09.36.33.36a.82.82,0,0,0,.41-.1l.07.8a1.68,1.68,0,0,1-.81.16,1,1,0,0,1-1.06-1,3.5,3.5,0,0,1,.12-.74Z"/><path class="cls-1" d="M76.2,135.3c2.49,0,3.45,1.7,3.45,4.08a7.06,7.06,0,0,1-.31,2h-8c-.62,3.63,1.15,5.16,3.43,5.16a5.1,5.1,0,0,0,2.88-1.12l.46.72a6.13,6.13,0,0,1-3.48,1.24c-2.67,0-4.39-1.65-4.39-4.75C70.2,138.27,73.24,135.3,76.2,135.3Zm2.4,5.3a6.7,6.7,0,0,0,.14-1.37c0-1.56-.67-3.09-2.64-3.09s-4,1.84-4.66,4.46Z"/><path class="cls-1" d="M83.78,135.58h.82l-.27,1.83h.1c1.41-1.2,2.71-2.11,4.13-2.11,2,0,2.73,1.12,2.73,2.8a6.57,6.57,0,0,1-.19,1.57l-1.49,7.44h-1l1.49-7.3a8.36,8.36,0,0,0,.19-1.49c0-1.42-.6-2.14-2.07-2.14-1,0-2.35.72-4.08,2.43l-1.7,8.5h-1Z"/><path class="cls-1" d="M104.23,135.58l-2.52,12.51c-.58,2.83-2.31,4.56-5,4.56a6,6,0,0,1-3.91-1.58l.55-.72a5,5,0,0,0,3.41,1.44c2.25,0,3.5-1.61,4-4.06l.58-2.59h-.1a6.22,6.22,0,0,1-4.18,2c-2,0-3.33-1.44-3.33-4.1,0-4.27,3.07-7.75,6.12-7.75a3.29,3.29,0,0,1,3,1.87h.1l.45-1.59Zm-2.69,8.36,1.2-5.69c-.89-1.49-1.78-2.09-2.86-2.09-2.59,0-5.09,3.41-5.09,6.72,0,2.26,1,3.39,2.53,3.39A6.38,6.38,0,0,0,101.54,143.94Z"/><path class="cls-1" d="M112.24,135.3c2.5,0,3.46,1.7,3.46,4.08a7.06,7.06,0,0,1-.31,2h-8c-.63,3.63,1.15,5.16,3.43,5.16a5.13,5.13,0,0,0,2.88-1.12l.46.72a6.14,6.14,0,0,1-3.49,1.24c-2.66,0-4.39-1.65-4.39-4.75C106.24,138.27,109.29,135.3,112.24,135.3Zm2.4,5.3a6.06,6.06,0,0,0,.15-1.37c0-1.56-.67-3.09-2.64-3.09s-4,1.84-4.66,4.46Z"/><path class="cls-1" d="M121,129.85h1l-3.15,15.84a2.61,2.61,0,0,0,0,.48c0,.22.09.36.33.36a.82.82,0,0,0,.41-.1l.07.8a1.68,1.68,0,0,1-.81.16,1,1,0,0,1-1.06-1,3.5,3.5,0,0,1,.12-.74Z"/><path class="cls-1" d="M122.78,144.73a3.87,3.87,0,0,0,3.26,1.82,2.77,2.77,0,0,0,3-2.42c0-.91-.41-1.51-2.21-2.47-2.07-1.11-2.81-1.92-2.81-3.12a3.38,3.38,0,0,1,3.62-3.24,4.32,4.32,0,0,1,3.19,1.39l-.64.62a3.47,3.47,0,0,0-2.57-1.17,2.48,2.48,0,0,0-2.64,2.25c0,1.11,1,1.68,2.13,2.31,2.5,1.34,2.89,2.23,2.89,3.26,0,2.11-1.73,3.43-4,3.43a4.89,4.89,0,0,1-3.84-2.13Z"/><path class="cls-1" d="M138.45,135.3c2.5,0,3.46,1.7,3.46,4.08a7.06,7.06,0,0,1-.31,2h-8c-.62,3.63,1.16,5.16,3.44,5.16a5.13,5.13,0,0,0,2.88-1.12l.45.72a6.11,6.11,0,0,1-3.48,1.24c-2.66,0-4.39-1.65-4.39-4.75C132.45,138.27,135.5,135.3,138.45,135.3Zm2.4,5.3a6.06,6.06,0,0,0,.15-1.37c0-1.56-.68-3.09-2.65-3.09s-4,1.84-4.65,4.46Z"/><path class="cls-1" d="M154.6,135.3a3.32,3.32,0,0,1,3,1.87h.07l.46-1.59h.81l-2.3,11.53h-.84l.26-1.83H156a6.1,6.1,0,0,1-4.25,2.11c-2,0-3.36-1.46-3.36-4.15C148.34,138.8,151.41,135.3,154.6,135.3Zm1.64,8.73,1.2-5.78c-.85-1.49-1.78-2.09-2.86-2.09-2.74,0-5.23,3.43-5.23,6.89,0,2.33,1,3.48,2.57,3.48S154.87,145.62,156.24,144Z"/><path class="cls-1" d="M161.32,135.58h1l1.1,7.28c.19,1.13.31,2.33.48,3.41h.1c.57-1.13,1.2-2.28,1.8-3.41l3.91-7.28h1l-6.31,11.53h-1.27Z"/><path class="cls-1" d="M33.81,164.38h1l1.11,7.28c.19,1.13.31,2.33.48,3.41h.1c.57-1.13,1.2-2.28,1.8-3.41l3.91-7.28h1l-6.31,11.53H35.64Z"/><path class="cls-1" d="M49.8,164.1a3.32,3.32,0,0,1,3,1.87h.07l.46-1.59h.82l-2.31,11.53H51l.27-1.83h-.1a6.08,6.08,0,0,1-4.25,2.11c-2,0-3.36-1.46-3.36-4.15C43.53,167.6,46.6,164.1,49.8,164.1Zm1.63,8.73,1.2-5.78c-.84-1.49-1.78-2.09-2.86-2.09-2.73,0-5.23,3.43-5.23,6.89,0,2.33,1,3.48,2.57,3.48S50.06,174.42,51.43,172.83Zm-2.91-11.64a2.27,2.27,0,0,1,2.16-2.3,1.67,1.67,0,0,1,1.76,1.85A2.26,2.26,0,0,1,50.3,163,1.68,1.68,0,0,1,48.52,161.19Zm.72-.05c0,.77.41,1.3,1.11,1.3a1.58,1.58,0,0,0,1.39-1.65c0-.77-.41-1.3-1.1-1.3A1.58,1.58,0,0,0,49.24,161.14Z"/><path class="cls-1" d="M58.41,164.38h.82l-.36,2.19H59c1-1.37,2.14-2.47,3.63-2.47a2.94,2.94,0,0,1,1,.19l-.38.94a2,2,0,0,0-.92-.2c-1.22,0-2.69,1.18-3.72,3.24l-1.51,7.64h-1Z"/><path class="cls-1" d="M66.14,165.25h-1.8l.14-.77,1.87-.1.8-3.28H68l-.68,3.28h3.12l-.19.87H67.12l-1.56,7.56a5.2,5.2,0,0,0-.09.91c0,1.06.38,1.61,1.63,1.61a3.07,3.07,0,0,0,1.39-.41l.26.75a4,4,0,0,1-1.84.52,2.13,2.13,0,0,1-2.43-2.28,8.63,8.63,0,0,1,.1-1.15Z"/><path class="cls-1" d="M81.45,164.1c2.5,0,3.46,1.7,3.46,4.08a6.68,6.68,0,0,1-.32,2h-8c-.62,3.63,1.16,5.16,3.44,5.16a5.13,5.13,0,0,0,2.88-1.12l.45.72a6.11,6.11,0,0,1-3.48,1.24c-2.66,0-4.39-1.65-4.39-4.75C75.45,167.07,78.5,164.1,81.45,164.1Zm2.4,5.3A6,6,0,0,0,84,168c0-1.56-.68-3.09-2.65-3.09s-4,1.85-4.65,4.46Z"/><path class="cls-1" d="M97.24,164.38l-2.52,12.51c-.57,2.83-2.3,4.56-5,4.56a6,6,0,0,1-3.91-1.58l.55-.72a5,5,0,0,0,3.41,1.44c2.26,0,3.51-1.61,4-4.06l.58-2.59h-.1a6.19,6.19,0,0,1-4.17,2c-2,0-3.34-1.44-3.34-4.1,0-4.27,3.07-7.75,6.12-7.75a3.31,3.31,0,0,1,3,1.87H96l.46-1.59Zm-2.69,8.36,1.2-5.69C94.87,165.56,94,165,92.9,165c-2.59,0-5.09,3.41-5.09,6.72,0,2.26,1,3.39,2.52,3.39A6.36,6.36,0,0,0,94.55,172.74Z"/><path class="cls-1" d="M105.26,164.1c2.49,0,3.45,1.7,3.45,4.08a6.72,6.72,0,0,1-.31,2h-8c-.62,3.63,1.15,5.16,3.43,5.16a5.07,5.07,0,0,0,2.88-1.12l.46.72a6.13,6.13,0,0,1-3.48,1.24c-2.66,0-4.39-1.65-4.39-4.75C99.26,167.07,102.31,164.1,105.26,164.1Zm2.4,5.3a6.62,6.62,0,0,0,.14-1.37c0-1.56-.67-3.09-2.64-3.09s-4,1.85-4.65,4.46Z"/><path class="cls-1" d="M112.58,165.25h-1.8l.14-.77,1.87-.1.8-3.28h.84l-.68,3.28h3.13l-.2.87h-3.12L112,172.81a5.2,5.2,0,0,0-.09.91c0,1.06.38,1.61,1.63,1.61a3.07,3.07,0,0,0,1.39-.41l.26.75a4,4,0,0,1-1.84.52,2.13,2.13,0,0,1-2.43-2.28,8.63,8.63,0,0,1,.1-1.15Z"/><path class="cls-1" d="M124.29,165.25h-1.8l.14-.77,1.88-.1.79-3.28h.84l-.67,3.28h3.12l-.2.87h-3.12l-1.56,7.56a6.37,6.37,0,0,0-.09.91c0,1.06.38,1.61,1.63,1.61a3.07,3.07,0,0,0,1.39-.41l.27.75a4,4,0,0,1-1.85.52,2.13,2.13,0,0,1-2.43-2.28,8.63,8.63,0,0,1,.1-1.15Z"/><path class="cls-1" d="M134.83,164.1c2.49,0,3.45,1.7,3.45,4.08a6.72,6.72,0,0,1-.31,2h-8c-.62,3.63,1.15,5.16,3.43,5.16a5.1,5.1,0,0,0,2.88-1.12l.46.72a6.13,6.13,0,0,1-3.48,1.24c-2.67,0-4.39-1.65-4.39-4.75C128.83,167.07,131.87,164.1,134.83,164.1Zm2.4,5.3a6.62,6.62,0,0,0,.14-1.37c0-1.56-.67-3.09-2.64-3.09s-4,1.85-4.66,4.46Z"/><path class="cls-1" d="M146.44,164.1a3.33,3.33,0,0,1,3,1.87h.07l.46-1.59h.81l-2.3,11.53h-.84l.26-1.83h-.09a6.1,6.1,0,0,1-4.25,2.11c-2,0-3.36-1.46-3.36-4.15C140.18,167.6,143.25,164.1,146.44,164.1Zm1.64,8.73,1.2-5.78c-.85-1.49-1.78-2.09-2.86-2.09-2.74,0-5.23,3.43-5.23,6.89,0,2.33,1,3.48,2.56,3.48S146.71,174.42,148.08,172.83Z"/><path class="cls-1" d="M155.06,164.38h.81l-.26,1.83h.1c1.29-1.2,2.71-2.11,3.84-2.11a2.34,2.34,0,0,1,2.66,2.4c1.58-1.54,3.07-2.4,4.2-2.4,1.92,0,2.71,1.13,2.71,2.81a6.07,6.07,0,0,1-.19,1.56l-1.49,7.44h-1l1.49-7.3a6.37,6.37,0,0,0,.2-1.49c0-1.41-.61-2.13-2-2.13-.74,0-2.23.72-3.84,2.42l-1.7,8.5h-1l1.47-7.3a6.84,6.84,0,0,0,.19-1.49c0-1.41-.6-2.13-2-2.13-.75,0-2.23.72-3.82,2.42l-1.7,8.5h-1Z"/><path class="cls-1" d="M174.76,169.86,171.83,166l.58-.5,3.31,3.86v.91l-3.31,3.87-.58-.46Zm3.39,0L175.22,166l.57-.5,3.29,3.86v.91l-3.29,3.87-.57-.46Z"/></svg>