<svg id="Layer_1" data-name="Layer 1" xmlns="http://www.w3.org/2000/svg" viewBox="0 0 300 250"><defs><style>.cls-1{fill:#d4ac76;}</style></defs><title>text</title><path class="cls-1" d="M110.19,168.87a3.65,3.65,0,0,1-4.87,0,3.17,3.17,0,0,1-1-2.36v-5.73H106v5.52a2,2,0,0,0,.46,1.37,1.75,1.75,0,0,0,2.53,0,2,2,0,0,0,.46-1.35v-5.54h1.67v5.73A3.17,3.17,0,0,1,110.19,168.87Z"/><path class="cls-1" d="M113.9,169.67v-8.89h3.19a2.93,2.93,0,0,1,2.2.89,3,3,0,0,1,.88,2.18,2.82,2.82,0,0,1-.9,2.14,3.13,3.13,0,0,1-2.21.85h-1.5v2.83Zm3-7.29h-1.38v3H117a1.57,1.57,0,0,0,1.11-.39,1.38,1.38,0,0,0,.43-1.07,1.46,1.46,0,0,0-.44-1.09A1.56,1.56,0,0,0,116.94,162.38Z"/><path class="cls-1" d="M122.39,169.67v-8.89h3.19a3,3,0,0,1,3.09,3.07,2.82,2.82,0,0,1-.9,2.14,3.13,3.13,0,0,1-2.21.85h-1.5v2.83Zm3-7.29h-1.38v3h1.4a1.59,1.59,0,0,0,1.12-.39,1.42,1.42,0,0,0,.43-1.07,1.46,1.46,0,0,0-.44-1.09A1.56,1.56,0,0,0,125.44,162.38Z"/><path class="cls-1" d="M130.05,162.38v-1.6h7.33v1.6h-2.83v7.29h-1.67v-7.29Z"/><path class="cls-1" d="M137.46,169.67l3.43-8.89h1.5l3.42,8.89h-1.72l-.47-1.23h-4l-.48,1.23Zm3.41-9.81a.74.74,0,0,1-1.09,0,.78.78,0,0,1-.23-.57.8.8,0,0,1,.22-.56.82.82,0,0,1,.56-.23.77.77,0,0,1,.76.79A.77.77,0,0,1,140.87,159.86Zm.77,3.4L140.22,167h2.83Zm1.88-3.4a.82.82,0,0,1-.59.24.81.81,0,0,1-.59-.24.76.76,0,0,1,0-1.13.84.84,0,0,1,.59-.23.86.86,0,0,1,.59.23.79.79,0,0,1,0,1.13Z"/><path class="cls-1" d="M154.85,168.41a4.42,4.42,0,0,1-3.3,1.41,4.48,4.48,0,0,1-3.28-1.35,4.6,4.6,0,0,1,0-6.52,4.48,4.48,0,0,1,3.28-1.35,4.41,4.41,0,0,1,3.28,1.38l-1.17,1.14a2.79,2.79,0,0,0-2.11-.92,2.84,2.84,0,0,0-2.1.88,3.07,3.07,0,0,0,0,4.26,2.85,2.85,0,0,0,2.11.88,2.8,2.8,0,0,0,2.12-.93Z"/><path class="cls-1" d="M157,169.67v-8.89h1.54v3.92l3.41-3.92H164l-3.14,3.54,3.21,5.35h-1.93l-2.42-4.06L158.57,167v2.72Z"/><path class="cls-1" d="M170.74,169.67v-8.89h1.61l2.75,4.38,2.78-4.38h1.75v8.89H178v-6.09l-.13,0-2.76,4.26-2.69-4.2h0v6Z"/><path class="cls-1" d="M187.43,165.91h-3.29v2.27h3.61v1.49h-5.28v-8.89h5.17v1.48h-3.5v2.16h3.29Z"/><path class="cls-1" d="M190.22,169.67v-8.89h3.48a3,3,0,0,1,2.14.8,2.79,2.79,0,0,1,.86,2.11,2.68,2.68,0,0,1-.64,1.8,2.87,2.87,0,0,1-1.66.95l2.39,3.23h-1.88l-2.3-3.18h-.72v3.18Zm3.22-7.41h-1.55v2.9h1.55a1.64,1.64,0,0,0,1.16-.4,1.33,1.33,0,0,0,.43-1,1.43,1.43,0,0,0-.44-1.06A1.61,1.61,0,0,0,193.44,162.26Z"/></svg>