<svg id="Layer_1" data-name="Layer 1" xmlns="http://www.w3.org/2000/svg" viewBox="0 0 300 250"><defs><style>.cls-1{fill:#010121;}</style></defs><title>text</title><path class="cls-1" d="M62.46,87.79H64.8V103h8.63v2h-11Z"/><path class="cls-1" d="M83.28,92.79a4.72,4.72,0,0,1,1.9,1.63A5.6,5.6,0,0,1,86,96.63a14.91,14.91,0,0,1,.19,2.77H77.08a5.47,5.47,0,0,0,.89,3.07,3,3,0,0,0,2.6,1.16,3.33,3.33,0,0,0,2.61-1.1,3.6,3.6,0,0,0,.78-1.47H86a4.39,4.39,0,0,1-.54,1.54,5.54,5.54,0,0,1-1,1.39,4.81,4.81,0,0,1-2.36,1.27,7.33,7.33,0,0,1-1.71.19,5.2,5.2,0,0,1-3.94-1.71A6.67,6.67,0,0,1,74.82,99a7.24,7.24,0,0,1,1.63-4.91,5.36,5.36,0,0,1,4.26-1.88A5.75,5.75,0,0,1,83.28,92.79ZM84,97.72a5.61,5.61,0,0,0-.59-2.19A3,3,0,0,0,80.58,94a3.17,3.17,0,0,0-2.42,1,3.92,3.92,0,0,0-1,2.66Z"/><path class="cls-1" d="M90.13,101.06a3.13,3.13,0,0,0,.54,1.62,3.41,3.41,0,0,0,2.82,1,4.25,4.25,0,0,0,2.11-.51,1.7,1.7,0,0,0,.91-1.58,1.33,1.33,0,0,0-.73-1.23A8.58,8.58,0,0,0,94,99.79l-1.71-.43a8.15,8.15,0,0,1-2.4-.89,2.65,2.65,0,0,1-1.38-2.36,3.61,3.61,0,0,1,1.3-2.89,5.23,5.23,0,0,1,3.49-1.1,4.9,4.9,0,0,1,4.15,1.67,3.55,3.55,0,0,1,.77,2.27h-2a2.29,2.29,0,0,0-.52-1.29,3.3,3.3,0,0,0-2.58-.83,3.18,3.18,0,0,0-1.85.45,1.43,1.43,0,0,0-.63,1.21,1.47,1.47,0,0,0,.83,1.3,4.94,4.94,0,0,0,1.41.52l1.42.34a11.33,11.33,0,0,1,3.1,1.06,2.83,2.83,0,0,1,1.23,2.55,3.87,3.87,0,0,1-1.28,2.89,5.55,5.55,0,0,1-3.92,1.22c-1.9,0-3.23-.42-4-1.27a4.75,4.75,0,0,1-1.26-3.15Z"/><path class="cls-1" d="M107.55,87.73h2.11v6.42A6.43,6.43,0,0,1,111,92.81a4.61,4.61,0,0,1,2.55-.67,3.76,3.76,0,0,1,3.7,1.91,6.56,6.56,0,0,1,.53,2.9v8h-2.17V97.09a4.51,4.51,0,0,0-.35-2,2.26,2.26,0,0,0-2.16-1,3.61,3.61,0,0,0-2.38.9c-.71.61-1.06,1.74-1.06,3.41V105h-2.11Z"/><path class="cls-1" d="M121.93,92.45l3.35,10.22,3.5-10.22h2.3L126.36,105h-2.25l-4.63-12.55Z"/><path class="cls-1" d="M139.62,97.4a1.12,1.12,0,0,0,1-.6,1.8,1.8,0,0,0,.14-.82,1.73,1.73,0,0,0-.76-1.57,4.14,4.14,0,0,0-2.19-.48,2.77,2.77,0,0,0-2.34.89,3,3,0,0,0-.51,1.47h-2a3.63,3.63,0,0,1,1.51-3.23,6.12,6.12,0,0,1,3.35-.92,6.85,6.85,0,0,1,3.6.85,2.87,2.87,0,0,1,1.37,2.62v7.23a.93.93,0,0,0,.13.53.66.66,0,0,0,.57.2l.31,0,.38,0v1.56a5.83,5.83,0,0,1-.75.17,4.39,4.39,0,0,1-.7,0,1.76,1.76,0,0,1-1.59-.77,3.05,3.05,0,0,1-.36-1.16,5.38,5.38,0,0,1-1.85,1.46,5.76,5.76,0,0,1-2.66.62,3.93,3.93,0,0,1-2.85-1.06,3.5,3.5,0,0,1-1.11-2.65A3.4,3.4,0,0,1,133.4,99a5.14,5.14,0,0,1,2.86-1.18Zm-4.44,5.7a2.49,2.49,0,0,0,1.58.53,4.77,4.77,0,0,0,2.16-.52,2.9,2.9,0,0,0,1.76-2.79v-1.7a3.46,3.46,0,0,1-1,.41,8.65,8.65,0,0,1-1.19.24l-1.28.16a4.89,4.89,0,0,0-1.72.48,1.87,1.87,0,0,0-1,1.75A1.72,1.72,0,0,0,135.18,103.1Z"/><path class="cls-1" d="M41.88,121.25l3.35,10.22,3.49-10.22H51L46.31,133.8H44.06l-4.63-12.55Z"/><path class="cls-1" d="M59.57,126.2a1.14,1.14,0,0,0,1-.6,1.8,1.8,0,0,0,.14-.82,1.73,1.73,0,0,0-.76-1.57,4.15,4.15,0,0,0-2.2-.48,2.76,2.76,0,0,0-2.33.89,3,3,0,0,0-.51,1.47h-2a3.64,3.64,0,0,1,1.51-3.24,6.2,6.2,0,0,1,3.35-.91,6.81,6.81,0,0,1,3.59.85,2.85,2.85,0,0,1,1.37,2.62v7.23a.92.92,0,0,0,.14.53.66.66,0,0,0,.57.2l.31,0,.38,0v1.56a5.83,5.83,0,0,1-.75.17,4.39,4.39,0,0,1-.7,0,1.76,1.76,0,0,1-1.59-.77,3.05,3.05,0,0,1-.36-1.16,5.38,5.38,0,0,1-1.85,1.46,5.79,5.79,0,0,1-2.66.62,3.91,3.91,0,0,1-2.85-1.06,3.5,3.5,0,0,1-1.11-2.65,3.4,3.4,0,0,1,1.09-2.7,5.11,5.11,0,0,1,2.86-1.18Zm-4.44,5.7a2.47,2.47,0,0,0,1.58.53,4.77,4.77,0,0,0,2.16-.52,2.9,2.9,0,0,0,1.76-2.79v-1.7a3.46,3.46,0,0,1-1,.41,8.65,8.65,0,0,1-1.19.24l-1.28.16a4.83,4.83,0,0,0-1.72.48,1.87,1.87,0,0,0-1,1.75A1.72,1.72,0,0,0,55.13,131.9Zm3-17.15a2.45,2.45,0,1,1-1.73,4.17,2.45,2.45,0,0,1,0-3.45A2.35,2.35,0,0,1,58.11,114.75Zm0,3.92a1.48,1.48,0,1,0-1-2.52,1.48,1.48,0,0,0,0,2.09A1.42,1.42,0,0,0,58.11,118.67Z"/><path class="cls-1" d="M66.25,121.25h2v2.17a4.86,4.86,0,0,1,1.21-1.54,3.12,3.12,0,0,1,2.22-.91h.2l.48,0v2.22a2.35,2.35,0,0,0-.35,0l-.35,0a3,3,0,0,0-2.45,1,3.57,3.57,0,0,0-.85,2.36v7.22H66.25Z"/><path class="cls-1" d="M81.94,121.59a4.69,4.69,0,0,1,1.89,1.63,5.6,5.6,0,0,1,.84,2.21,14.07,14.07,0,0,1,.19,2.77H75.73a5.42,5.42,0,0,0,.9,3.07,3,3,0,0,0,2.59,1.16,3.33,3.33,0,0,0,2.61-1.1,3.6,3.6,0,0,0,.78-1.47h2.07a4.19,4.19,0,0,1-.54,1.54,5.52,5.52,0,0,1-1,1.39,4.9,4.9,0,0,1-2.36,1.27,7.46,7.46,0,0,1-1.71.19,5.22,5.22,0,0,1-4-1.71,6.67,6.67,0,0,1-1.62-4.78,7.24,7.24,0,0,1,1.63-4.91A5.39,5.39,0,0,1,79.36,121,5.8,5.8,0,0,1,81.94,121.59Zm.75,4.93a5.44,5.44,0,0,0-.59-2.19,3,3,0,0,0-2.87-1.52,3.17,3.17,0,0,0-2.42,1,4,4,0,0,0-1,2.66Z"/><path class="cls-1" d="M94.15,116.58h2v10l5.41-5.33h2.69l-4.82,4.67,5.09,7.88h-2.69l-4-6.39-1.73,1.68v4.71h-2Z"/><path class="cls-1" d="M108.31,121.25v8.33a3.54,3.54,0,0,0,.3,1.57,2.05,2.05,0,0,0,2,1.13,2.89,2.89,0,0,0,2.92-2,8.09,8.09,0,0,0,.42-2.9v-6.16h2.11V133.8h-2l0-1.85a4.25,4.25,0,0,1-3.87,2.19,3.7,3.7,0,0,1-3.59-1.79,5.38,5.38,0,0,1-.52-2.57v-8.53Z"/><path class="cls-1" d="M119.55,121.25h2V123a5.58,5.58,0,0,1,1.89-1.58,5,5,0,0,1,2.21-.48c1.78,0,3,.62,3.61,1.86a6.52,6.52,0,0,1,.52,2.92v8.05h-2.15v-7.91a4.22,4.22,0,0,0-.34-1.85,2.05,2.05,0,0,0-2-1.17A4.21,4.21,0,0,0,124,123a3.46,3.46,0,0,0-2.21,2.31,9.17,9.17,0,0,0-.15,1.9v6.57h-2.11Z"/><path class="cls-1" d="M139.79,121.64a5.45,5.45,0,0,1,1.27,1.23v-6.34h2V133.8h-1.9v-1.75a4.49,4.49,0,0,1-1.74,1.68,5,5,0,0,1-2.3.52,4.65,4.65,0,0,1-3.62-1.77,6.9,6.9,0,0,1-1.53-4.69,8.12,8.12,0,0,1,1.4-4.75,4.56,4.56,0,0,1,4-2A4.41,4.41,0,0,1,139.79,121.64Zm-4.71,9.41a3,3,0,0,0,2.73,1.36,2.88,2.88,0,0,0,2.4-1.26,6,6,0,0,0,.93-3.62,5.38,5.38,0,0,0-1-3.52,3,3,0,0,0-2.39-1.14,3.13,3.13,0,0,0-2.57,1.21,5.61,5.61,0,0,0-1,3.59A6.26,6.26,0,0,0,135.08,131.05Z"/><path class="cls-1" d="M154,121.59a4.65,4.65,0,0,1,1.9,1.63,5.6,5.6,0,0,1,.84,2.21,14.07,14.07,0,0,1,.19,2.77h-9.13a5.5,5.5,0,0,0,.89,3.07,3,3,0,0,0,2.6,1.16,3.33,3.33,0,0,0,2.61-1.1,3.6,3.6,0,0,0,.78-1.47h2.07a4.19,4.19,0,0,1-.54,1.54,5.54,5.54,0,0,1-1,1.39,4.81,4.81,0,0,1-2.36,1.27,7.33,7.33,0,0,1-1.71.19,5.22,5.22,0,0,1-3.94-1.71,6.67,6.67,0,0,1-1.62-4.78,7.24,7.24,0,0,1,1.63-4.91,5.39,5.39,0,0,1,4.26-1.88A5.72,5.72,0,0,1,154,121.59Zm.76,4.93a5.44,5.44,0,0,0-.59-2.19,3,3,0,0,0-2.87-1.52,3.17,3.17,0,0,0-2.42,1,4,4,0,0,0-1,2.66Z"/><path class="cls-1" d="M159.65,121.25h2v2.17a4.86,4.86,0,0,1,1.21-1.54,3.11,3.11,0,0,1,2.21-.91h.2l.48,0v2.22a2.23,2.23,0,0,0-.34,0l-.35,0a3,3,0,0,0-2.45,1,3.57,3.57,0,0,0-.85,2.36v7.22h-2.11Z"/><path class="cls-1" d="M47.45,158.66a3.13,3.13,0,0,0,.54,1.62,3.41,3.41,0,0,0,2.82,1,4.25,4.25,0,0,0,2.11-.51,1.7,1.7,0,0,0,.91-1.58A1.33,1.33,0,0,0,53.1,158a9,9,0,0,0-1.83-.6L49.56,157a8.15,8.15,0,0,1-2.4-.89,2.65,2.65,0,0,1-1.38-2.36,3.61,3.61,0,0,1,1.3-2.89,5.24,5.24,0,0,1,3.5-1.1,4.91,4.91,0,0,1,4.14,1.66,3.59,3.59,0,0,1,.77,2.28h-2a2.35,2.35,0,0,0-.52-1.3,3.34,3.34,0,0,0-2.58-.82,3.18,3.18,0,0,0-1.85.45,1.43,1.43,0,0,0-.63,1.21,1.47,1.47,0,0,0,.83,1.3,4.94,4.94,0,0,0,1.41.52l1.42.34a11,11,0,0,1,3.1,1.06A2.83,2.83,0,0,1,55.91,159a3.87,3.87,0,0,1-1.28,2.89,5.55,5.55,0,0,1-3.92,1.22c-1.9,0-3.23-.42-4-1.27a4.75,4.75,0,0,1-1.26-3.15Z"/><path class="cls-1" d="M58.2,145.38h2.14v2.4H58.2Zm0,4.73h2.14V162.6H58.2Z"/><path class="cls-1" d="M71.28,150.39a4.72,4.72,0,0,1,1.9,1.63,5.6,5.6,0,0,1,.84,2.21,14.91,14.91,0,0,1,.19,2.77H65.08a5.47,5.47,0,0,0,.89,3.07,3,3,0,0,0,2.6,1.16,3.33,3.33,0,0,0,2.61-1.1,3.6,3.6,0,0,0,.78-1.47H74a4.39,4.39,0,0,1-.54,1.54,5.54,5.54,0,0,1-1,1.39,4.81,4.81,0,0,1-2.36,1.27,7.36,7.36,0,0,1-1.71.18,5.19,5.19,0,0,1-3.94-1.7,6.67,6.67,0,0,1-1.62-4.78,7.24,7.24,0,0,1,1.63-4.91,5.36,5.36,0,0,1,4.26-1.88A5.75,5.75,0,0,1,71.28,150.39Zm.76,4.93a5.61,5.61,0,0,0-.59-2.19,3,3,0,0,0-2.87-1.52,3.17,3.17,0,0,0-2.42,1,3.92,3.92,0,0,0-1,2.66Z"/><path class="cls-1" d="M76.94,150.05h2v2.17a4.76,4.76,0,0,1,1.21-1.54,3.11,3.11,0,0,1,2.21-.91h.2l.48.05v2.22a2.23,2.23,0,0,0-.34,0l-.35,0a3,3,0,0,0-2.45,1,3.57,3.57,0,0,0-.85,2.36v7.22H76.94Z"/><path class="cls-1" d="M100.63,151.3a6.33,6.33,0,0,1,1.67,4.75,8.19,8.19,0,0,1-1.47,5,5.28,5.28,0,0,1-4.55,2,5.1,5.1,0,0,1-4.08-1.75,6.92,6.92,0,0,1-1.52-4.7,7.48,7.48,0,0,1,1.6-5,5.32,5.32,0,0,1,4.28-1.87A5.6,5.6,0,0,1,100.63,151.3Zm-1.31,8.34a7.88,7.88,0,0,0,.77-3.53,6.32,6.32,0,0,0-.55-2.85,3.12,3.12,0,0,0-3-1.73A3,3,0,0,0,93.72,153a6.88,6.88,0,0,0-.87,3.56,6,6,0,0,0,.87,3.33,3.06,3.06,0,0,0,2.76,1.34A2.86,2.86,0,0,0,99.32,159.64Z"/><path class="cls-1" d="M104.89,150.05H107v1.78a7.09,7.09,0,0,1,1.36-1.35,4.16,4.16,0,0,1,2.37-.71,3.33,3.33,0,0,1,3.35,2,4.32,4.32,0,0,1,3.79-2,3.49,3.49,0,0,1,3.44,1.83,5.89,5.89,0,0,1,.49,2.64v8.36h-2.19v-8.72a2,2,0,0,0-.62-1.72,2.51,2.51,0,0,0-1.53-.47,3,3,0,0,0-2.14.83,3.65,3.65,0,0,0-.9,2.78v7.3h-2.14v-8.19a4.36,4.36,0,0,0-.31-1.87,1.86,1.86,0,0,0-1.79-.87,3.1,3.1,0,0,0-2.18.92,4.56,4.56,0,0,0-1,3.35v6.66h-2.11Z"/><path class="cls-1" d="M140.64,151.3a6.33,6.33,0,0,1,1.66,4.75,8.18,8.18,0,0,1-1.46,5,5.29,5.29,0,0,1-4.55,2,5.12,5.12,0,0,1-4.09-1.75,7,7,0,0,1-1.51-4.7,7.48,7.48,0,0,1,1.6-5,5.32,5.32,0,0,1,4.28-1.87A5.61,5.61,0,0,1,140.64,151.3Zm-1.31,8.34a8,8,0,0,0,.77-3.53,6.32,6.32,0,0,0-.55-2.85,3.12,3.12,0,0,0-3-1.73,3,3,0,0,0-2.78,1.47,6.88,6.88,0,0,0-.87,3.56,6,6,0,0,0,.87,3.33,3.06,3.06,0,0,0,2.76,1.34A2.86,2.86,0,0,0,139.33,159.64Z"/><path class="cls-1" d="M146.15,158.66a3,3,0,0,0,.54,1.62,3.41,3.41,0,0,0,2.82,1,4.19,4.19,0,0,0,2.1-.51,1.69,1.69,0,0,0,.91-1.58,1.34,1.34,0,0,0-.72-1.23,9,9,0,0,0-1.84-.6l-1.7-.42a8.23,8.23,0,0,1-2.41-.89,2.65,2.65,0,0,1-1.38-2.36,3.64,3.64,0,0,1,1.3-2.89,5.28,5.28,0,0,1,3.5-1.1,4.92,4.92,0,0,1,4.15,1.66,3.65,3.65,0,0,1,.77,2.28h-2a2.43,2.43,0,0,0-.52-1.3,3.37,3.37,0,0,0-2.58-.82,3.16,3.16,0,0,0-1.85.45,1.43,1.43,0,0,0-.63,1.21,1.45,1.45,0,0,0,.83,1.3,4.74,4.74,0,0,0,1.4.52l1.42.34a11.1,11.1,0,0,1,3.11,1.06,2.83,2.83,0,0,1,1.23,2.55,3.85,3.85,0,0,1-1.29,2.89,5.53,5.53,0,0,1-3.92,1.22c-1.89,0-3.23-.42-4-1.27a4.85,4.85,0,0,1-1.26-3.15Z"/><path class="cls-1" d="M158.15,158.66a3,3,0,0,0,.54,1.62,3.41,3.41,0,0,0,2.82,1,4.19,4.19,0,0,0,2.1-.51,1.69,1.69,0,0,0,.91-1.58,1.34,1.34,0,0,0-.72-1.23,9,9,0,0,0-1.84-.6l-1.7-.42a8.23,8.23,0,0,1-2.41-.89,2.65,2.65,0,0,1-1.38-2.36,3.64,3.64,0,0,1,1.3-2.89,5.28,5.28,0,0,1,3.5-1.1,4.92,4.92,0,0,1,4.15,1.66,3.65,3.65,0,0,1,.77,2.28h-2a2.43,2.43,0,0,0-.52-1.3,3.37,3.37,0,0,0-2.58-.82,3.16,3.16,0,0,0-1.85.45,1.43,1.43,0,0,0-.63,1.21,1.45,1.45,0,0,0,.83,1.3,4.74,4.74,0,0,0,1.4.52l1.42.34a11.1,11.1,0,0,1,3.11,1.06,2.83,2.83,0,0,1,1.23,2.55,3.85,3.85,0,0,1-1.29,2.89,5.53,5.53,0,0,1-3.92,1.22c-1.89,0-3.23-.42-4-1.27a4.85,4.85,0,0,1-1.26-3.15Z"/></svg>