<svg id="Layer_1" data-name="Layer 1" xmlns="http://www.w3.org/2000/svg" viewBox="0 0 300 250"><defs><style>.cls-1{fill:#fff;}</style></defs><title>text</title><path class="cls-1" d="M50.25,101.27v13.89q0,.84-1.08.84t-1.08-.84V108.8H40.56v6.36q0,.84-1.08.84t-1.08-.84V101.27q0-.87,1.08-.87t1.08.87v5.57h7.53v-5.57q0-.87,1.08-.87T50.25,101.27Z"/><path class="cls-1" d="M58.72,116.12a1.84,1.84,0,0,1-1.15-.39,2.23,2.23,0,0,1-.72-1l-3.4-9.15c-.05-.25-.07-.38-.08-.39,0-.56.34-.84,1-.83a1,1,0,0,1,1.05.62l3.22,9h.11L62,105c.15-.42.54-.62,1.16-.62s.92.27.92.83c0,0,0,.14-.07.39l-3.41,9.15a2,2,0,0,1-.73,1A1.93,1.93,0,0,1,58.72,116.12Z"/><path class="cls-1" d="M66.16,110.29a14.28,14.28,0,0,1,.27-3.1A3.35,3.35,0,0,1,69,104.42a11.28,11.28,0,0,1,2.51-.23,11.12,11.12,0,0,1,2.5.23,3.42,3.42,0,0,1,1.63.91,3.79,3.79,0,0,1,.95,1.85,15,15,0,0,1,.26,3.1,14.87,14.87,0,0,1-.26,3.09,3.37,3.37,0,0,1-1,1.78A3.58,3.58,0,0,1,74,116a11.74,11.74,0,0,1-2.5.21A12.74,12.74,0,0,1,69,116a3.49,3.49,0,0,1-1.62-.83,3.22,3.22,0,0,1-.94-1.8A14.65,14.65,0,0,1,66.16,110.29Zm2.42-2.74a6.18,6.18,0,0,0-.26,2.14c0,1,0,1.84.08,2.44a3,3,0,0,0,.61,1.58,1.86,1.86,0,0,0,1.4.49l1.08,0c1.4,0,2.23-.17,2.48-.51a3.15,3.15,0,0,0,.62-1.59c0-.58.08-1.19.08-1.81,0-1.87-.17-3-.52-3.39a1.93,1.93,0,0,0-2.1-.76c-.86,0-1.41,0-1.65,0-.73,0-1.19.21-1.39.49A5.54,5.54,0,0,0,68.58,107.55Z"/><path class="cls-1" d="M82.09,109.18v6c0,.56-.36.84-1.07.84s-1.08-.28-1.09-.84V108.9a7.33,7.33,0,0,1,.39-3,3.75,3.75,0,0,1,.71-1c.51-.47,1.8-.7,3.86-.7a6.7,6.7,0,0,1,2.09.21.75.75,0,0,1,.52.76,1.09,1.09,0,0,1-.29.83,1,1,0,0,1-.74.27l-1.58-.1a6.93,6.93,0,0,0-1.84.14,1.66,1.66,0,0,0-.54.27,2.07,2.07,0,0,0-.26.54,3,3,0,0,0-.15.84C82.09,108.24,82.09,108.65,82.09,109.18Z"/><path class="cls-1" d="M97.22,100.79v9.26l5.37-5.43a1.09,1.09,0,0,1,.79-.36,1,1,0,0,1,.75.3.9.9,0,0,1,.31.71,1.09,1.09,0,0,1-.39.79L101,109l3.82,5.33a1.25,1.25,0,0,1,.23.71.91.91,0,0,1-.34.71,1.16,1.16,0,0,1-.79.32.82.82,0,0,1-.71-.38l-3.75-5.25-2.2,2v2.73c0,.56-.36.84-1.07.84s-1.08-.28-1.09-.84V100.79c0-.58.37-.87,1.09-.87S97.22,100.21,97.22,100.79Z"/><path class="cls-1" d="M109.29,100.79v14.37q0,.84-1.08.84t-1.08-.84V100.79q0-.87,1.08-.87T109.29,100.79Z"/><path class="cls-1" d="M114.07,106.47c-.5,0-.75-.29-.75-.89a1,1,0,0,1,.75-1.08,16.84,16.84,0,0,1,3.89-.31c1.81,0,3,.29,3.68.86a3.92,3.92,0,0,1,1,3v4.63q0,2.16-1,2.82a8.41,8.41,0,0,1-4,.66,8.16,8.16,0,0,1-4-.66c-.68-.44-1-1.37-1-2.81a4.27,4.27,0,0,1,.78-3c.52-.55,1.59-.82,3.2-.81h4V107.7a1.32,1.32,0,0,0-.55-1.21,4.1,4.1,0,0,0-2-.33,15.79,15.79,0,0,0-2.45.16A8.68,8.68,0,0,1,114.07,106.47Zm6.39,6.41v-2h-3.34a4.27,4.27,0,0,0-2,.31q-.45.3-.45,1.38c0,.73.19,1.19.57,1.4a6,6,0,0,0,2.29.29,6.94,6.94,0,0,0,2.32-.26A1.07,1.07,0,0,0,120.46,112.88Z"/><path class="cls-1" d="M128.09,109.18v6q0,.84-1.08.84t-1.08-.84V108.9a7.57,7.57,0,0,1,.38-3,4,4,0,0,1,.72-1c.51-.47,1.8-.7,3.86-.7a6.62,6.62,0,0,1,2.08.21.76.76,0,0,1,.53.76,1.13,1.13,0,0,1-.29.83,1,1,0,0,1-.74.27l-1.58-.1a6.88,6.88,0,0,0-1.84.14,1.47,1.47,0,0,0-.54.27,1.79,1.79,0,0,0-.26.54,3,3,0,0,0-.15.84C128.09,108.24,128.09,108.65,128.09,109.18Z"/><path class="cls-1" d="M150,113.94c.49,0,.74.29.74.89a1,1,0,0,1-.74,1.08,19.2,19.2,0,0,1-3.9.28,6.7,6.7,0,0,1-3.93-.89,3.54,3.54,0,0,1-1.19-3v-4.4a3.42,3.42,0,0,1,1.08-3,7.45,7.45,0,0,1,4-.76,7.54,7.54,0,0,1,4,.72c.69.49,1,1.49,1,3v1.9a1.33,1.33,0,0,1-.32.92,1,1,0,0,1-.81.32h-6.82v1.41c0,1.18,1,1.77,3.09,1.76a18.17,18.17,0,0,0,2.34-.14A11.28,11.28,0,0,1,150,113.94Zm-6.87-6v1.24h5.79v-1.24a1.53,1.53,0,0,0-.58-1.4,4.93,4.93,0,0,0-2.29-.36,5.17,5.17,0,0,0-2.29.34A1.51,1.51,0,0,0,143.14,107.92Z"/><path class="cls-1" d="M156.48,109.18v6c0,.56-.36.84-1.07.84s-1.08-.28-1.09-.84V108.9a7.33,7.33,0,0,1,.39-3,3.75,3.75,0,0,1,.71-1c.51-.47,1.8-.7,3.86-.7a6.7,6.7,0,0,1,2.09.21.75.75,0,0,1,.52.76,1.09,1.09,0,0,1-.29.83,1,1,0,0,1-.74.27l-1.58-.1a6.93,6.93,0,0,0-1.84.14,1.66,1.66,0,0,0-.54.27,2.07,2.07,0,0,0-.26.54,3,3,0,0,0-.15.84C156.48,108.24,156.48,108.65,156.48,109.18Z"/><path class="cls-1" d="M180,100.79v9.5a14.65,14.65,0,0,1-.26,3.07,3.29,3.29,0,0,1-1,1.78,3.4,3.4,0,0,1-1.59.84,11.63,11.63,0,0,1-2.49.21,12.74,12.74,0,0,1-2.51-.2,3.49,3.49,0,0,1-1.62-.83,3.22,3.22,0,0,1-.94-1.8,16.15,16.15,0,0,1-.26-3.07,14.28,14.28,0,0,1,.27-3.1,3.34,3.34,0,0,1,2.55-2.77,12.71,12.71,0,0,1,2.77-.23,7.24,7.24,0,0,1,2.87.47v-3.87q0-.87,1.08-.87T180,100.79Zm-8.2,6.76a6.18,6.18,0,0,0-.26,2.14c0,1,0,1.84.08,2.44a3,3,0,0,0,.61,1.58,1.86,1.86,0,0,0,1.4.49l1.08,0c1.4,0,2.23-.17,2.48-.51a3.15,3.15,0,0,0,.62-1.59c.05-.58.08-1.19.08-1.81,0-1.87-.18-3-.53-3.39a2.45,2.45,0,0,0-.4-.43,2.87,2.87,0,0,0-1.69-.33c-.87,0-1.41,0-1.65,0-.73,0-1.2.21-1.39.49A5.54,5.54,0,0,0,171.8,107.55Z"/><path class="cls-1" d="M187.05,114.21h2.23a2.81,2.81,0,0,0,.75-.13,1.39,1.39,0,0,0,.61-.37,1.49,1.49,0,0,0,.26-1c0-.48,0-1,0-1.54v-6q0-.84,1.08-.84t1.08.84v6.27a13.22,13.22,0,0,1-.19,2.59,2.27,2.27,0,0,1-.83,1.39,3.12,3.12,0,0,1-1.45.6,25.17,25.17,0,0,1-4.91,0,3.12,3.12,0,0,1-1.45-.6,2.26,2.26,0,0,1-.82-1.39,14.05,14.05,0,0,1-.19-2.59v-6.27c0-.56.37-.84,1.08-.84s1.07.28,1.07.84v6a4.93,4.93,0,0,0,.39,2.61,1.25,1.25,0,0,0,.5.26A2.88,2.88,0,0,0,187.05,114.21Z"/><path class="cls-1" d="M40.92,133.07v.12h3c.49,0,.74.31.74.95s-.25.94-.74.94h-3V144q0,.84-1.08.84c-.71,0-1.07-.28-1.07-.84v-8.88H37.22c-.49,0-.74-.31-.74-.94s.25-.95.74-.95h1.55v-.41q0-2.47.84-3.27a4.65,4.65,0,0,1,3.16-.79,6.7,6.7,0,0,1,2.09.21.75.75,0,0,1,.53.74,1,1,0,0,1-.3.81,1,1,0,0,1-.73.28l-1.59-.07a2,2,0,0,0-1.51.4A3.64,3.64,0,0,0,40.92,133.07Z"/><path class="cls-1" d="M46.52,139.09a14.28,14.28,0,0,1,.27-3.1,3.35,3.35,0,0,1,2.55-2.77,11.28,11.28,0,0,1,2.51-.23,11.12,11.12,0,0,1,2.5.23,3.42,3.42,0,0,1,1.63.91,3.83,3.83,0,0,1,1,1.85,15,15,0,0,1,.26,3.1,14.87,14.87,0,0,1-.26,3.09A3.37,3.37,0,0,1,56,144a3.58,3.58,0,0,1-1.62.83,11.74,11.74,0,0,1-2.5.21,12.74,12.74,0,0,1-2.51-.2,3.49,3.49,0,0,1-1.62-.83,3.22,3.22,0,0,1-.94-1.8A14.59,14.59,0,0,1,46.52,139.09Zm2.42-2.74a6.18,6.18,0,0,0-.26,2.14c0,1,0,1.84.08,2.44a3,3,0,0,0,.61,1.58,1.86,1.86,0,0,0,1.4.49l1.08,0c1.4,0,2.23-.17,2.48-.51a3.15,3.15,0,0,0,.62-1.59c0-.58.08-1.19.08-1.81,0-1.87-.17-3-.53-3.39a2.45,2.45,0,0,0-.4-.43,2.87,2.87,0,0,0-1.69-.33c-.86,0-1.41,0-1.65,0-.73.05-1.2.21-1.39.49A5.54,5.54,0,0,0,48.94,136.35Z"/><path class="cls-1" d="M62.45,138v6c0,.56-.36.84-1.07.84s-1.08-.28-1.09-.84V137.7a7.33,7.33,0,0,1,.39-3,3.75,3.75,0,0,1,.71-1c.51-.47,1.8-.7,3.86-.7a6.74,6.74,0,0,1,2.09.21.75.75,0,0,1,.52.76,1.09,1.09,0,0,1-.29.83,1,1,0,0,1-.74.27l-1.58-.1a6.93,6.93,0,0,0-1.84.14,1.47,1.47,0,0,0-.54.27,1.91,1.91,0,0,0-.26.54,3,3,0,0,0-.15.84C62.45,137,62.45,137.45,62.45,138Z"/><path class="cls-1" d="M76.66,135.27c-.5,0-.75-.29-.75-.89a1,1,0,0,1,.75-1.08,16.89,16.89,0,0,1,3.89-.31c1.82,0,3,.29,3.68.86a3.92,3.92,0,0,1,1,3v4.63c0,1.44-.36,2.38-1.06,2.82a8.43,8.43,0,0,1-4.05.66,8.09,8.09,0,0,1-4-.66c-.66-.44-1-1.37-1-2.81a4.38,4.38,0,0,1,.77-3c.53-.54,1.59-.81,3.19-.8h4V136.5a1.32,1.32,0,0,0-.55-1.21,4.07,4.07,0,0,0-2-.33,15.88,15.88,0,0,0-2.45.16A8.58,8.58,0,0,1,76.66,135.27Zm6.39,6.41v-2H79.73a4.19,4.19,0,0,0-2,.31c-.31.2-.46.66-.46,1.38s.19,1.19.57,1.4a6,6,0,0,0,2.29.29,6.91,6.91,0,0,0,2.31-.26A1.07,1.07,0,0,0,83.05,141.68Zm-4.18-9.91a2.26,2.26,0,0,1,0-3.17,2.14,2.14,0,0,1,1.57-.65,2.24,2.24,0,0,1,2.24,2.24,2.13,2.13,0,0,1-.66,1.58,2.17,2.17,0,0,1-1.58.64A2.11,2.11,0,0,1,78.87,131.77Zm.62-1.58a.94.94,0,0,0,.28.69.89.89,0,0,0,.69.27,1,1,0,0,0,.67-.28,1,1,0,0,0,.28-.7.89.89,0,0,0-.28-.67.94.94,0,0,0-.69-.29.91.91,0,0,0-.68.29A.86.86,0,0,0,79.49,130.19Z"/><path class="cls-1" d="M98.32,144.8a3,3,0,0,1-2.28-.7,3.55,3.55,0,0,1-.65-2.41v-6.61H93.88c-.49,0-.73-.31-.73-.94s.24-.95.73-.95h1.51v-3.06c0-.55.36-.83,1.08-.83s1.08.28,1.08.83v3.06h3c.49,0,.73.31.73.95s-.24.94-.73.94h-3v6.77c0,.65.39,1,1.17,1l2-.12q.75,0,.75.87a1.11,1.11,0,0,1-.78,1.15C100.22,144.78,99.42,144.8,98.32,144.8Z"/><path class="cls-1" d="M105,135.27c-.5,0-.75-.29-.75-.89a1,1,0,0,1,.75-1.08,16.94,16.94,0,0,1,3.9-.31c1.81,0,3,.29,3.68.86a4,4,0,0,1,1,3v4.63c0,1.44-.35,2.38-1.06,2.82a8.39,8.39,0,0,1-4,.66,8.21,8.21,0,0,1-4-.66c-.68-.44-1-1.37-1-2.81a4.32,4.32,0,0,1,.78-3c.53-.54,1.59-.81,3.2-.8h4V136.5a1.32,1.32,0,0,0-.55-1.21,4.07,4.07,0,0,0-2-.33,15.88,15.88,0,0,0-2.45.16A8.58,8.58,0,0,1,105,135.27Zm6.39,6.41v-2H108a4.21,4.21,0,0,0-2,.31c-.31.2-.46.66-.46,1.38s.19,1.19.57,1.4a6.06,6.06,0,0,0,2.3.29,6.87,6.87,0,0,0,2.31-.26A1.06,1.06,0,0,0,111.35,141.68Z"/><path class="cls-1" d="M122.68,130.4a1.11,1.11,0,0,1,.36-.83,1.14,1.14,0,0,1,.82-.37,1.1,1.1,0,0,1,.83.37,1.25,1.25,0,0,1,.34.84,1.14,1.14,0,0,1-.35.82,1.15,1.15,0,0,1-.82.35,1.18,1.18,0,0,1-1.18-1.18Zm2.25,3.62V144c0,.56-.36.84-1.07.84s-1.08-.28-1.08-.84V134c0-.56.36-.85,1.08-.85S124.93,133.46,124.93,134Z"/><path class="cls-1" d="M134.23,139.09v-9.5c0-.58.37-.87,1.08-.87s1.07.29,1.07.87v3.87a7.34,7.34,0,0,1,2.89-.47,12.82,12.82,0,0,1,2.78.23,3.44,3.44,0,0,1,1.62.91,3.86,3.86,0,0,1,.93,1.85,15.15,15.15,0,0,1,.26,3.11,15.56,15.56,0,0,1-.25,3.09,3.16,3.16,0,0,1-.94,1.77,3.69,3.69,0,0,1-1.62.83,12,12,0,0,1-2.52.21,12.49,12.49,0,0,1-2.5-.2,3.3,3.3,0,0,1-1.59-.83,3.41,3.41,0,0,1-.94-1.8A13.91,13.91,0,0,1,134.23,139.09Zm8.47.49c0-1,0-1.85-.08-2.46a3.36,3.36,0,0,0-.6-1.64c-.24-.35-1.07-.52-2.49-.52a4.41,4.41,0,0,0-2.25.33,1.86,1.86,0,0,0-.72,1.07,12.63,12.63,0,0,0-.22,2.41c0,.85,0,1.57.08,2.17a2.92,2.92,0,0,0,.62,1.59c.2.28.68.44,1.42.49l1.07,0,1.07,0a5.72,5.72,0,0,0,.8-.13,1.06,1.06,0,0,0,.62-.35,4.67,4.67,0,0,0,.42-.83A6,6,0,0,0,142.7,139.58Z"/><path class="cls-1" d="M150.15,138v6c0,.56-.36.84-1.07.84S148,144.52,148,144V137.7a7.39,7.39,0,0,1,.38-3,4,4,0,0,1,.71-1c.51-.47,1.8-.7,3.86-.7a6.7,6.7,0,0,1,2.09.21.75.75,0,0,1,.53.76,1.1,1.1,0,0,1-.3.83,1,1,0,0,1-.73.27L153,135a6.93,6.93,0,0,0-1.84.14,1.66,1.66,0,0,0-.54.27,2,2,0,0,0-.25.54,2.66,2.66,0,0,0-.16.84C150.16,137,150.15,137.45,150.15,138Z"/><path class="cls-1" d="M161.2,143h2.23a2.81,2.81,0,0,0,.75-.13,1.39,1.39,0,0,0,.61-.37,1.49,1.49,0,0,0,.26-1c0-.48,0-1,0-1.54v-6c0-.56.36-.85,1.08-.85s1.08.29,1.08.85v6.27a13.22,13.22,0,0,1-.19,2.59,2.27,2.27,0,0,1-.83,1.39,3.11,3.11,0,0,1-1.46.6,25.07,25.07,0,0,1-4.9,0,3.07,3.07,0,0,1-1.45-.6,2.26,2.26,0,0,1-.82-1.39,14.82,14.82,0,0,1-.2-2.59V134c0-.56.37-.85,1.09-.85s1.07.29,1.07.85v6a4.93,4.93,0,0,0,.39,2.61,1.18,1.18,0,0,0,.5.26A2.82,2.82,0,0,0,161.2,143Z"/><path class="cls-1" d="M172.72,129.59v9.26l5.37-5.43a1.11,1.11,0,0,1,.8-.36,1.05,1.05,0,0,1,.75.3.93.93,0,0,1,.3.71,1.09,1.09,0,0,1-.39.79l-3.09,2.89,3.82,5.33a1.19,1.19,0,0,1,.24.71,1,1,0,0,1-.34.71,1.18,1.18,0,0,1-.8.32.8.8,0,0,1-.7-.38l-3.75-5.25-2.21,2V144c0,.56-.35.84-1.07.84s-1.08-.28-1.08-.84V129.59c0-.58.37-.87,1.08-.87S172.72,129,172.72,129.59Z"/><path class="cls-1" d="M195.45,141.27V141a.88.88,0,0,0-.57-.83,5,5,0,0,0-1.95-.26,11.69,11.69,0,0,1-3.1-.43,2.53,2.53,0,0,1-1.4-.95,3,3,0,0,1-.57-1.92v-.2a2.85,2.85,0,0,1,1.21-2.7,7.52,7.52,0,0,1,3.68-.7,15.43,15.43,0,0,1,3.66.32,1,1,0,0,1,.73,1.08c0,.59-.24.89-.73.89a12.61,12.61,0,0,1-1.52-.16,16.58,16.58,0,0,0-2.4-.16,6.09,6.09,0,0,0-1.87.21c-.4.14-.6.54-.6,1.18v.23c0,.85.89,1.3,2.67,1.36.74,0,1.49.09,2.24.18a3.41,3.41,0,0,1,1.9.84,2.47,2.47,0,0,1,.77,2v.29a3.21,3.21,0,0,1-1.22,2.94,7.51,7.51,0,0,1-3.92.78,16.74,16.74,0,0,1-3.88-.31,1,1,0,0,1-.74-1.08c0-.59.25-.89.74-.89a16,16,0,0,1,1.7.16,20.81,20.81,0,0,0,2.46.15,5.14,5.14,0,0,0,2-.32A1.39,1.39,0,0,0,195.45,141.27Z"/><path class="cls-1" d="M202.72,129.59v9.26l5.37-5.43a1.11,1.11,0,0,1,.8-.36,1.05,1.05,0,0,1,.75.3.93.93,0,0,1,.3.71,1.09,1.09,0,0,1-.39.79l-3.09,2.89,3.82,5.33a1.19,1.19,0,0,1,.24.71,1,1,0,0,1-.34.71,1.18,1.18,0,0,1-.8.32.8.8,0,0,1-.7-.38l-3.75-5.25-2.21,2V144c0,.56-.35.84-1.07.84s-1.08-.28-1.08-.84V129.59c0-.58.37-.87,1.08-.87S202.72,129,202.72,129.59Z"/><path class="cls-1" d="M215.44,149.48c-.62,0-.93-.28-.94-.84l.08-.38,1.29-3.46a2,2,0,0,1-1.17-1.24l-3.41-9.15c0-.25-.07-.38-.07-.39,0-.56.31-.85.92-.85s1,.22,1.16.64l3.23,9h.11l3.22-9c.15-.42.54-.62,1.16-.62s.92.27.92.83c0,0,0,.14-.07.39l-5.27,14.44A1.09,1.09,0,0,1,215.44,149.48Z"/><path class="cls-1" d="M233,142.74c.5,0,.74.29.74.89a1,1,0,0,1-.74,1.08,19.2,19.2,0,0,1-3.9.28,6.64,6.64,0,0,1-3.92-.89,3.54,3.54,0,0,1-1.2-3v-4.4a3.42,3.42,0,0,1,1.08-3,7.45,7.45,0,0,1,4-.76,7.54,7.54,0,0,1,4,.72c.69.49,1,1.49,1,3v1.9a1.33,1.33,0,0,1-.32.92,1,1,0,0,1-.81.32h-6.81v1.41c0,1.18,1,1.77,3.08,1.76a18.06,18.06,0,0,0,2.34-.14A11.28,11.28,0,0,1,233,142.74Zm-6.86-6V138h5.79v-1.24a1.53,1.53,0,0,0-.59-1.4,4.93,4.93,0,0,0-2.29-.36,5.17,5.17,0,0,0-2.29.34A1.48,1.48,0,0,0,226.14,136.72Z"/><path class="cls-1" d="M239.87,135.37a4.79,4.79,0,0,0-.4,2.59v6c0,.57-.35.85-1.07.85s-1.08-.28-1.08-.84V137.7a12.32,12.32,0,0,1,.21-2.58,2.26,2.26,0,0,1,.84-1.41,3.07,3.07,0,0,1,1.48-.59,22.25,22.25,0,0,1,2.66-.13c2,0,3.29.24,3.82.74a3.17,3.17,0,0,1,.94,2.1c0,.51.08,1.13.08,1.87V144q0,.84-1.08.84c-.72,0-1.08-.28-1.08-.85v-6a4.66,4.66,0,0,0-.41-2.58c-.27-.28-1.1-.42-2.47-.42S240.14,135.09,239.87,135.37Z"/><path class="cls-1" d="M256.68,140.36v.22c0,.59-.36.89-1.08.89s-1.07-.3-1.08-.89v-.25a5,5,0,0,1,.34-2,2.79,2.79,0,0,1,.83-1.21,11.88,11.88,0,0,1,2.19-1.35A1.91,1.91,0,0,0,259,134c0-1.05-.18-1.7-.52-2a3.88,3.88,0,0,0-2.12-.4,26.72,26.72,0,0,0-2.94.15c-.9.11-1.49.16-1.76.16-.51,0-.76-.3-.76-.89a1,1,0,0,1,.75-1.08,18.94,18.94,0,0,1,4.22-.31c2,0,3.42.3,4.16.9s1.12,1.78,1.12,3.52a4.86,4.86,0,0,1-.32,1.91,2.21,2.21,0,0,1-.82,1.08,10.31,10.31,0,0,1-1,.58c-.37.19-.72.35-1.05.49a2,2,0,0,0-.87.76A2.48,2.48,0,0,0,256.68,140.36Zm-2.39,3.28a1.44,1.44,0,0,1,.37-1,1.25,1.25,0,0,1,.93-.41,1.46,1.46,0,0,1,1,.41,1.31,1.31,0,0,1,.45,1,1.26,1.26,0,0,1-.45,1,1.51,1.51,0,0,1-1,.39,1.27,1.27,0,0,1-.93-.38A1.37,1.37,0,0,1,254.29,143.64Z"/></svg>