<svg id="Layer_1" data-name="Layer 1" xmlns="http://www.w3.org/2000/svg" viewBox="0 0 300 250"><defs><style>.cls-1{fill:#0059ac;}</style></defs><title>text</title><path class="cls-1" d="M45.62,76.29H57.56V78.4H48v5.23H56.4v2.05H48v7.83H45.62Z"/><path class="cls-1" d="M59.78,76.29h2.14v2.39H59.78Zm0,4.72h2.14v12.5H59.78Z"/><path class="cls-1" d="M72.86,81.3a4.77,4.77,0,0,1,1.9,1.62,5.64,5.64,0,0,1,.84,2.22,14.86,14.86,0,0,1,.19,2.76H66.66A5.43,5.43,0,0,0,67.55,91a3,3,0,0,0,2.6,1.15A3.32,3.32,0,0,0,72.76,91a3.72,3.72,0,0,0,.78-1.47h2.07a4.45,4.45,0,0,1-.54,1.54,5.54,5.54,0,0,1-1,1.39,4.87,4.87,0,0,1-2.36,1.26A6.83,6.83,0,0,1,70,94,5.27,5.27,0,0,1,66,92.25a6.66,6.66,0,0,1-1.61-4.78A7.24,7.24,0,0,1,66,82.56a5.34,5.34,0,0,1,4.26-1.89A5.64,5.64,0,0,1,72.86,81.3Zm.76,4.93A5.68,5.68,0,0,0,73,84a3,3,0,0,0-2.87-1.53,3.16,3.16,0,0,0-2.42,1,4,4,0,0,0-1,2.67Z"/><path class="cls-1" d="M78.52,76.29h2.11V93.51H78.52Z"/><path class="cls-1" d="M90.69,81.34A6.13,6.13,0,0,1,92,82.57V76.23h2V93.51h-1.9V91.76a4.63,4.63,0,0,1-1.74,1.68,5,5,0,0,1-2.3.51,4.66,4.66,0,0,1-3.62-1.76,6.92,6.92,0,0,1-1.53-4.7,8.13,8.13,0,0,1,1.39-4.75,4.56,4.56,0,0,1,4-2A4.51,4.51,0,0,1,90.69,81.34ZM86,90.75a3,3,0,0,0,2.73,1.36,2.85,2.85,0,0,0,2.39-1.26A5.93,5.93,0,0,0,92,87.24a5.37,5.37,0,0,0-1-3.53,3,3,0,0,0-2.39-1.14,3.17,3.17,0,0,0-2.57,1.22,5.59,5.59,0,0,0-1,3.59A6.2,6.2,0,0,0,86,90.75Z"/><path class="cls-1" d="M97.14,81h2.08v1.78a7.09,7.09,0,0,1,1.36-1.35,4.09,4.09,0,0,1,2.37-.72,3.73,3.73,0,0,1,2.41.74,3.81,3.81,0,0,1,.94,1.24A4.55,4.55,0,0,1,108,81.16a4.71,4.71,0,0,1,2.14-.49,3.49,3.49,0,0,1,3.44,1.83,6,6,0,0,1,.49,2.65v8.36h-2.19V84.79a2.07,2.07,0,0,0-.62-1.73,2.5,2.5,0,0,0-1.53-.46,3,3,0,0,0-2.14.83,3.64,3.64,0,0,0-.9,2.78v7.3H104.5v-8.2a4.13,4.13,0,0,0-.31-1.86,1.87,1.87,0,0,0-1.79-.88,3.07,3.07,0,0,0-2.17.93,4.5,4.5,0,0,0-1,3.35v6.66H97.14Z"/><path class="cls-1" d="M123.86,85.91a1.13,1.13,0,0,0,1-.61,1.93,1.93,0,0,0,.14-.81,1.73,1.73,0,0,0-.77-1.57,4,4,0,0,0-2.19-.49,2.77,2.77,0,0,0-2.34.9,3,3,0,0,0-.5,1.47h-2a3.66,3.66,0,0,1,1.5-3.24,6.17,6.17,0,0,1,3.36-.91,6.84,6.84,0,0,1,3.59.84A2.88,2.88,0,0,1,127,84.12v7.23a1,1,0,0,0,.14.53.64.64,0,0,0,.56.2l.32,0,.38,0v1.55a4.77,4.77,0,0,1-.75.18,6.22,6.22,0,0,1-.71,0,1.74,1.74,0,0,1-1.58-.78,3,3,0,0,1-.36-1.16,5.52,5.52,0,0,1-1.85,1.47,5.83,5.83,0,0,1-2.67.62,4,4,0,0,1-2.85-1.06,3.52,3.52,0,0,1-1.11-2.65,3.44,3.44,0,0,1,1.09-2.71,5.21,5.21,0,0,1,2.86-1.18Zm-4.44,5.7a2.46,2.46,0,0,0,1.58.52,4.82,4.82,0,0,0,2.15-.51,2.89,2.89,0,0,0,1.76-2.8V87.13a3.83,3.83,0,0,1-1,.41,7.67,7.67,0,0,1-1.2.23l-1.27.17a4.77,4.77,0,0,0-1.72.48,1.84,1.84,0,0,0-1,1.75A1.72,1.72,0,0,0,119.42,91.61Z"/><path class="cls-1" d="M137.37,81.34a5.91,5.91,0,0,1,1.28,1.23V76.23h2V93.51h-1.9V91.76A4.68,4.68,0,0,1,137,93.44a5,5,0,0,1-2.3.51,4.66,4.66,0,0,1-3.62-1.76,6.92,6.92,0,0,1-1.53-4.7A8.13,8.13,0,0,1,131,82.74a4.56,4.56,0,0,1,4-2A4.45,4.45,0,0,1,137.37,81.34Zm-4.71,9.41a3,3,0,0,0,2.73,1.36,2.88,2.88,0,0,0,2.4-1.26,6,6,0,0,0,.94-3.61,5.43,5.43,0,0,0-1-3.53,3,3,0,0,0-2.39-1.14,3.16,3.16,0,0,0-2.57,1.22,5.59,5.59,0,0,0-1,3.59A6.29,6.29,0,0,0,132.66,90.75Z"/><path class="cls-1" d="M151.58,81.3a4.84,4.84,0,0,1,1.9,1.62,5.63,5.63,0,0,1,.83,2.22,14,14,0,0,1,.19,2.76h-9.13a5.43,5.43,0,0,0,.9,3.08,3,3,0,0,0,2.59,1.15A3.34,3.34,0,0,0,151.48,91a3.7,3.7,0,0,0,.77-1.47h2.08a4.5,4.5,0,0,1-.55,1.54,5.52,5.52,0,0,1-1,1.39,5,5,0,0,1-2.36,1.26,6.94,6.94,0,0,1-1.71.19,5.25,5.25,0,0,1-4-1.7,6.67,6.67,0,0,1-1.62-4.78,7.24,7.24,0,0,1,1.63-4.91A5.37,5.37,0,0,1,149,80.67,5.65,5.65,0,0,1,151.58,81.3Zm.75,4.93a5.35,5.35,0,0,0-.59-2.19,3,3,0,0,0-2.87-1.53,3.17,3.17,0,0,0-2.42,1,4,4,0,0,0-1,2.67Z"/><path class="cls-1" d="M158.29,81.12h2.45v2.55h-2.45Zm0,9.83h2.45v2.56h-2.45Z"/><path class="cls-1" d="M25.83,114.63l3.79-2.95v2.11l-2.53,1.95,2.53,1.94v2.11l-3.79-2.94Zm4.93,0,3.78-2.94v2.11L32,115.74l2.53,1.94v2.11l-3.78-2.94Z"/><path class="cls-1" d="M39,105.09H50.91v2.11H41.3v5.23h8.45v2H41.3v7.83H39Z"/><path class="cls-1" d="M52.66,122.26l1.5-1.58a6.9,6.9,0,0,1-.9-1.94,9.15,9.15,0,0,1-.32-2.55,7.9,7.9,0,0,1,1.49-4.73,5,5,0,0,1,4.35-2.07,6.11,6.11,0,0,1,2.61.53,7.7,7.7,0,0,1,1.51,1l1.49-1.65.61.59-1.51,1.68A7,7,0,0,1,64.55,114a8,8,0,0,1,.2,1.81,7.46,7.46,0,0,1-1.64,5,5.44,5.44,0,0,1-4.38,2,6.62,6.62,0,0,1-2.31-.38,4.4,4.4,0,0,1-1.65-1l-1.42,1.5Zm7.84-10.68a4,4,0,0,0-1.64-.34,3.25,3.25,0,0,0-2.75,1.43,6.09,6.09,0,0,0-1,3.67,7.18,7.18,0,0,0,.18,1.62c.08.29.2.65.37,1.1l6-6.65A2.59,2.59,0,0,0,60.5,111.58Zm-3.09,9.13a4,4,0,0,0,1.37.24A3.26,3.26,0,0,0,62,118.86a6.92,6.92,0,0,0,.57-2.88,8,8,0,0,0-.18-1.82,7.91,7.91,0,0,0-.33-1l-5.87,6.62A3,3,0,0,0,57.41,120.71Z"/><path class="cls-1" d="M67.85,105.09H70v17.22H67.85Z"/><path class="cls-1" d="M80.87,110.1a4.77,4.77,0,0,1,1.9,1.62,5.64,5.64,0,0,1,.84,2.22,14.86,14.86,0,0,1,.19,2.76H74.67a5.43,5.43,0,0,0,.89,3.08,3,3,0,0,0,2.6,1.15,3.32,3.32,0,0,0,2.61-1.09,3.72,3.72,0,0,0,.78-1.47h2.07a4.45,4.45,0,0,1-.54,1.54,5.54,5.54,0,0,1-1,1.39,4.87,4.87,0,0,1-2.36,1.26,6.83,6.83,0,0,1-1.71.19,5.27,5.27,0,0,1-4-1.7,6.66,6.66,0,0,1-1.61-4.78A7.22,7.22,0,0,1,74,111.36a5.34,5.34,0,0,1,4.26-1.89A5.64,5.64,0,0,1,80.87,110.1Zm.76,4.93a5.68,5.68,0,0,0-.59-2.19,3,3,0,0,0-2.87-1.53,3.16,3.16,0,0,0-2.42,1,4,4,0,0,0-1,2.67Z"/><path class="cls-1" d="M87.72,118.37a3.07,3.07,0,0,0,.54,1.62,3.41,3.41,0,0,0,2.82,1,4.36,4.36,0,0,0,2.11-.5,1.7,1.7,0,0,0,.91-1.58,1.35,1.35,0,0,0-.73-1.23,9,9,0,0,0-1.83-.6l-1.71-.42a8.44,8.44,0,0,1-2.4-.89,2.66,2.66,0,0,1-1.38-2.37,3.57,3.57,0,0,1,1.3-2.88,5.18,5.18,0,0,1,3.49-1.1A4.89,4.89,0,0,1,95,111.09a3.55,3.55,0,0,1,.77,2.27h-2a2.35,2.35,0,0,0-.52-1.29,3.34,3.34,0,0,0-2.58-.83,3.17,3.17,0,0,0-1.85.46,1.4,1.4,0,0,0-.63,1.2,1.48,1.48,0,0,0,.83,1.31,5,5,0,0,0,1.41.51l1.42.34a11.25,11.25,0,0,1,3.1,1.07,2.83,2.83,0,0,1,1.23,2.54,3.87,3.87,0,0,1-1.29,2.9A5.51,5.51,0,0,1,91,122.79c-1.89,0-3.22-.43-4-1.28a4.76,4.76,0,0,1-1.27-3.14Z"/><path class="cls-1" d="M106.39,118.37a3,3,0,0,0,.54,1.62,3.41,3.41,0,0,0,2.82,1,4.36,4.36,0,0,0,2.11-.5,1.7,1.7,0,0,0,.9-1.58,1.34,1.34,0,0,0-.72-1.23,9,9,0,0,0-1.84-.6l-1.7-.42a8.52,8.52,0,0,1-2.41-.89,2.66,2.66,0,0,1-1.38-2.37,3.6,3.6,0,0,1,1.3-2.88,5.22,5.22,0,0,1,3.5-1.1,4.89,4.89,0,0,1,4.15,1.66,3.6,3.6,0,0,1,.77,2.27h-2a2.43,2.43,0,0,0-.52-1.29,3.37,3.37,0,0,0-2.58-.83,3.17,3.17,0,0,0-1.85.46,1.4,1.4,0,0,0-.63,1.2,1.46,1.46,0,0,0,.83,1.31,4.77,4.77,0,0,0,1.4.51l1.43.34a11.39,11.39,0,0,1,3.1,1.07,2.83,2.83,0,0,1,1.23,2.54,3.87,3.87,0,0,1-1.29,2.9,5.51,5.51,0,0,1-3.92,1.22c-1.89,0-3.23-.43-4-1.28a4.76,4.76,0,0,1-1.27-3.14Z"/><path class="cls-1" d="M126.23,111a6.31,6.31,0,0,1,1.66,4.75,8.24,8.24,0,0,1-1.46,5,5.3,5.3,0,0,1-4.55,2,5.12,5.12,0,0,1-4.09-1.75,6.93,6.93,0,0,1-1.51-4.7,7.49,7.49,0,0,1,1.59-5,5.35,5.35,0,0,1,4.29-1.88A5.62,5.62,0,0,1,126.23,111Zm-1.31,8.34a8,8,0,0,0,.77-3.53,6.38,6.38,0,0,0-.56-2.86,3.11,3.11,0,0,0-3-1.73,3,3,0,0,0-2.78,1.48,6.87,6.87,0,0,0-.87,3.55,6,6,0,0,0,.87,3.34,3.05,3.05,0,0,0,2.76,1.33A2.86,2.86,0,0,0,124.92,119.35Z"/><path class="cls-1" d="M130.48,109.75h2.09v1.79a6.82,6.82,0,0,1,1.36-1.35,4,4,0,0,1,2.37-.72,3.73,3.73,0,0,1,2.41.74,4,4,0,0,1,.94,1.24A4.55,4.55,0,0,1,141.3,110a4.64,4.64,0,0,1,2.13-.49,3.49,3.49,0,0,1,3.45,1.83,6,6,0,0,1,.49,2.65v8.36h-2.19v-8.72a2,2,0,0,0-.63-1.73,2.5,2.5,0,0,0-1.53-.46,3,3,0,0,0-2.14.83A3.67,3.67,0,0,0,140,115v7.31h-2.15v-8.2a4.3,4.3,0,0,0-.3-1.86,1.87,1.87,0,0,0-1.79-.88,3.09,3.09,0,0,0-2.18.93,4.54,4.54,0,0,0-1,3.35v6.66h-2.11Z"/><path class="cls-1" d="M164.9,110.1a4.74,4.74,0,0,1,1.89,1.62,5.64,5.64,0,0,1,.84,2.22,14,14,0,0,1,.19,2.76h-9.13a5.43,5.43,0,0,0,.9,3.08,3,3,0,0,0,2.59,1.15,3.32,3.32,0,0,0,2.61-1.09,3.6,3.6,0,0,0,.78-1.47h2.07a4.26,4.26,0,0,1-.54,1.54,5.52,5.52,0,0,1-1,1.39,5,5,0,0,1-2.36,1.26,6.94,6.94,0,0,1-1.71.19,5.25,5.25,0,0,1-3.95-1.7,6.67,6.67,0,0,1-1.62-4.78,7.22,7.22,0,0,1,1.63-4.91,5.37,5.37,0,0,1,4.26-1.89A5.65,5.65,0,0,1,164.9,110.1Zm.75,4.93a5.35,5.35,0,0,0-.59-2.19,3,3,0,0,0-2.87-1.53,3.17,3.17,0,0,0-2.42,1,4,4,0,0,0-1,2.67Z"/><path class="cls-1" d="M170.49,109.75h2v1.79a5.57,5.57,0,0,1,1.88-1.59,5.05,5.05,0,0,1,2.22-.48,3.65,3.65,0,0,1,3.61,1.87,6.66,6.66,0,0,1,.51,2.91v8.06h-2.14V114.4a4.41,4.41,0,0,0-.34-1.86,2.07,2.07,0,0,0-2-1.17,4.21,4.21,0,0,0-1.23.15,3.23,3.23,0,0,0-1.53,1,3,3,0,0,0-.68,1.28,8.31,8.31,0,0,0-.16,1.89v6.58h-2.11Z"/><path class="cls-1" d="M30.75,134.72a3.23,3.23,0,0,1,2.85-1.08l.41,0,.48,0v1.92l-.48,0h-.28c-.65,0-1,.16-1.16.5a9.48,9.48,0,0,0-.19,2.53h2.11v1.67H32.38v10.83H30.29V140.28H28.55v-1.67h1.74v-2A3.9,3.9,0,0,1,30.75,134.72Z"/><path class="cls-1" d="M45.53,139.81a6.31,6.31,0,0,1,1.66,4.75,8.24,8.24,0,0,1-1.46,5,5.3,5.3,0,0,1-4.55,2,5.12,5.12,0,0,1-4.09-1.75,6.93,6.93,0,0,1-1.51-4.7,7.54,7.54,0,0,1,1.59-5,5.38,5.38,0,0,1,4.29-1.87A5.62,5.62,0,0,1,45.53,139.81Zm-1.31,8.34a8,8,0,0,0,.77-3.53,6.38,6.38,0,0,0-.56-2.86,3.12,3.12,0,0,0-3-1.73,3,3,0,0,0-2.78,1.48,6.87,6.87,0,0,0-.87,3.55,6,6,0,0,0,.87,3.34,3,3,0,0,0,2.75,1.33A2.87,2.87,0,0,0,44.22,148.15Z"/><path class="cls-1" d="M49.84,138.55h2v2.17a5,5,0,0,1,1.21-1.54,3.16,3.16,0,0,1,2.22-.91l.2,0,.48,0v2.23l-.35-.05h-.35a3,3,0,0,0-2.44,1,3.58,3.58,0,0,0-.86,2.36v7.22H49.84Z"/><path class="cls-1" d="M57.83,133.89h2.11v17.22H57.83Z"/><path class="cls-1" d="M70.86,138.9a4.84,4.84,0,0,1,1.9,1.62,5.64,5.64,0,0,1,.84,2.22,15.07,15.07,0,0,1,.18,2.76H64.65a5.43,5.43,0,0,0,.9,3.08,3,3,0,0,0,2.59,1.15,3.34,3.34,0,0,0,2.62-1.09,3.7,3.7,0,0,0,.77-1.47h2.08a4.5,4.5,0,0,1-.55,1.54,5.52,5.52,0,0,1-1,1.39,4.92,4.92,0,0,1-2.36,1.26,6.94,6.94,0,0,1-1.71.19,5.27,5.27,0,0,1-3.95-1.7,6.67,6.67,0,0,1-1.62-4.78A7.22,7.22,0,0,1,64,140.16a5.37,5.37,0,0,1,4.26-1.89A5.65,5.65,0,0,1,70.86,138.9Zm.75,4.93a5.35,5.35,0,0,0-.59-2.19,3,3,0,0,0-2.87-1.53,3.17,3.17,0,0,0-2.42,1,4,4,0,0,0-1,2.67Z"/><path class="cls-1" d="M76.45,138.55h2v1.79a5.57,5.57,0,0,1,1.88-1.59,5.08,5.08,0,0,1,2.22-.48,3.65,3.65,0,0,1,3.61,1.87,6.66,6.66,0,0,1,.51,2.91v8.06H84.54V143.2a4.26,4.26,0,0,0-.34-1.86,2.05,2.05,0,0,0-2-1.17,4.21,4.21,0,0,0-1.23.15,3.49,3.49,0,0,0-2.21,2.32,8.94,8.94,0,0,0-.16,1.89v6.58H76.45Z"/><path class="cls-1" d="M96.78,139.06A5.6,5.6,0,0,1,98,140.25v-1.58h2v11.42a8.39,8.39,0,0,1-.7,3.77q-1.3,2.55-4.94,2.55a6.09,6.09,0,0,1-3.4-.9,3.56,3.56,0,0,1-1.54-2.85H91.5a2.3,2.3,0,0,0,.61,1.3,3.06,3.06,0,0,0,2.23.71c1.61,0,2.67-.57,3.16-1.71a9.64,9.64,0,0,0,.41-3.6,4.06,4.06,0,0,1-1.52,1.43,5.42,5.42,0,0,1-5.9-1Q89,148.37,89,145a7.28,7.28,0,0,1,1.53-4.92,4.75,4.75,0,0,1,3.71-1.77A4.51,4.51,0,0,1,96.78,139.06Zm.26,2.26a3.06,3.06,0,0,0-2.44-1.12,3,3,0,0,0-3,2.08,8.18,8.18,0,0,0-.43,2.92,5.23,5.23,0,0,0,.85,3.23,2.78,2.78,0,0,0,2.31,1.11,3.24,3.24,0,0,0,3.18-2.06,6.64,6.64,0,0,0,.51-2.7A5.29,5.29,0,0,0,97,141.32Z"/><path class="cls-1" d="M110.9,138.9a4.77,4.77,0,0,1,1.9,1.62,5.64,5.64,0,0,1,.84,2.22,14.86,14.86,0,0,1,.19,2.76H104.7a5.43,5.43,0,0,0,.89,3.08,3,3,0,0,0,2.59,1.15,3.32,3.32,0,0,0,2.62-1.09,3.72,3.72,0,0,0,.78-1.47h2.07a4.5,4.5,0,0,1-.55,1.54,5.29,5.29,0,0,1-1,1.39,4.87,4.87,0,0,1-2.36,1.26,6.83,6.83,0,0,1-1.71.19,5.27,5.27,0,0,1-4-1.7,6.67,6.67,0,0,1-1.62-4.78,7.27,7.27,0,0,1,1.63-4.91,5.37,5.37,0,0,1,4.27-1.89A5.64,5.64,0,0,1,110.9,138.9Zm.76,4.93a5.5,5.5,0,0,0-.6-2.19,3,3,0,0,0-2.87-1.53,3.15,3.15,0,0,0-2.41,1,4,4,0,0,0-1,2.67Z"/><path class="cls-1" d="M116.56,133.89h2.11v17.22h-2.11Z"/><path class="cls-1" d="M123.08,147.17a3.16,3.16,0,0,0,.54,1.62,3.44,3.44,0,0,0,2.82,1,4.25,4.25,0,0,0,2.11-.51,1.68,1.68,0,0,0,.91-1.57,1.33,1.33,0,0,0-.73-1.23,9,9,0,0,0-1.83-.6l-1.71-.42a8.44,8.44,0,0,1-2.4-.89,2.66,2.66,0,0,1-1.38-2.37,3.57,3.57,0,0,1,1.3-2.88,5.19,5.19,0,0,1,3.5-1.1,4.88,4.88,0,0,1,4.14,1.66,3.55,3.55,0,0,1,.77,2.27h-2a2.35,2.35,0,0,0-.52-1.29A3.34,3.34,0,0,0,126,140a3.1,3.1,0,0,0-1.85.46,1.4,1.4,0,0,0-.63,1.2,1.48,1.48,0,0,0,.83,1.31,5,5,0,0,0,1.41.51l1.42.34a11.25,11.25,0,0,1,3.1,1.07,2.83,2.83,0,0,1,1.23,2.54,3.89,3.89,0,0,1-1.28,2.9,5.56,5.56,0,0,1-3.93,1.22c-1.89,0-3.22-.43-4-1.28a4.7,4.7,0,0,1-1.26-3.14Z"/><path class="cls-1" d="M141.58,138.9a4.84,4.84,0,0,1,1.9,1.62,5.64,5.64,0,0,1,.84,2.22,15.07,15.07,0,0,1,.18,2.76h-9.12a5.43,5.43,0,0,0,.89,3.08,3,3,0,0,0,2.59,1.15,3.32,3.32,0,0,0,2.62-1.09,3.7,3.7,0,0,0,.77-1.47h2.08a4.5,4.5,0,0,1-.55,1.54,5.29,5.29,0,0,1-1,1.39,4.87,4.87,0,0,1-2.36,1.26,6.83,6.83,0,0,1-1.71.19,5.27,5.27,0,0,1-4-1.7,6.67,6.67,0,0,1-1.62-4.78,7.27,7.27,0,0,1,1.63-4.91,5.37,5.37,0,0,1,4.27-1.89A5.64,5.64,0,0,1,141.58,138.9Zm.76,4.93a5.5,5.5,0,0,0-.6-2.19,3,3,0,0,0-2.87-1.53,3.15,3.15,0,0,0-2.41,1,4,4,0,0,0-1,2.67Z"/><path class="cls-1" d="M160.57,143.51a1.11,1.11,0,0,0,1-.61,1.79,1.79,0,0,0,.14-.81,1.72,1.72,0,0,0-.76-1.57,4,4,0,0,0-2.19-.49,2.77,2.77,0,0,0-2.34.9,3,3,0,0,0-.51,1.47h-2a3.63,3.63,0,0,1,1.5-3.24,6.12,6.12,0,0,1,3.35-.91,6.85,6.85,0,0,1,3.6.84,2.88,2.88,0,0,1,1.37,2.63V149a1,1,0,0,0,.13.53.66.66,0,0,0,.57.2l.31,0,.38,0v1.55a4.77,4.77,0,0,1-.75.18,6,6,0,0,1-.7,0,1.74,1.74,0,0,1-1.59-.78,3,3,0,0,1-.36-1.16,5.52,5.52,0,0,1-1.85,1.47,5.76,5.76,0,0,1-2.66.62,4,4,0,0,1-2.85-1.06,3.52,3.52,0,0,1-1.11-2.65,3.4,3.4,0,0,1,1.09-2.71,5.21,5.21,0,0,1,2.86-1.18Zm-4.44,5.7a2.48,2.48,0,0,0,1.58.52,4.89,4.89,0,0,0,2.16-.51,2.9,2.9,0,0,0,1.76-2.8v-1.69a3.77,3.77,0,0,1-1,.41,7.34,7.34,0,0,1-1.19.23l-1.28.17a4.89,4.89,0,0,0-1.72.48,1.86,1.86,0,0,0-1,1.75A1.72,1.72,0,0,0,156.13,149.21Z"/><path class="cls-1" d="M168.23,138.55l3.35,10.22,3.49-10.22h2.31l-4.72,12.56h-2.25l-4.63-12.56Z"/><path class="cls-1" d="M25.47,167.36l3.35,10.21,3.5-10.21h2.3L29.9,179.91H27.65L23,167.36Z"/><path class="cls-1" d="M43.16,172.31a1.11,1.11,0,0,0,1-.61,1.79,1.79,0,0,0,.14-.81,1.73,1.73,0,0,0-.76-1.57,4.13,4.13,0,0,0-2.19-.49,2.77,2.77,0,0,0-2.34.9,3,3,0,0,0-.51,1.47h-2A3.64,3.64,0,0,1,38,168a6.12,6.12,0,0,1,3.35-.91,6.85,6.85,0,0,1,3.6.84,2.88,2.88,0,0,1,1.37,2.63v7.23a.93.93,0,0,0,.13.53.66.66,0,0,0,.57.2l.31,0,.38-.05V180a4.77,4.77,0,0,1-.75.18,6,6,0,0,1-.7,0,1.74,1.74,0,0,1-1.59-.78,3,3,0,0,1-.36-1.16,5.52,5.52,0,0,1-1.85,1.47,5.76,5.76,0,0,1-2.66.62A4,4,0,0,1,37,179.27a3.52,3.52,0,0,1-1.11-2.65,3.42,3.42,0,0,1,1.09-2.71,5.21,5.21,0,0,1,2.86-1.18ZM38.72,178a2.49,2.49,0,0,0,1.58.53,4.9,4.9,0,0,0,2.16-.52,2.9,2.9,0,0,0,1.76-2.8v-1.69a3.77,3.77,0,0,1-1,.41,7.34,7.34,0,0,1-1.19.23l-1.28.17a4.89,4.89,0,0,0-1.72.48,1.86,1.86,0,0,0-1,1.75A1.72,1.72,0,0,0,38.72,178Zm3-17.16A2.45,2.45,0,1,1,40,165a2.46,2.46,0,0,1,0-3.46A2.35,2.35,0,0,1,41.7,160.85Zm0,3.93a1.43,1.43,0,0,0,1-.44,1.47,1.47,0,0,0,0-2.08,1.43,1.43,0,0,0-1-.44,1.39,1.39,0,0,0-1,.44,1.45,1.45,0,0,0,0,2.08A1.39,1.39,0,0,0,41.7,164.78Z"/><path class="cls-1" d="M49.84,167.36h2v2.16A5,5,0,0,1,53.05,168a3.16,3.16,0,0,1,2.22-.91l.2,0,.48,0v2.23l-.35-.05h-.35a3,3,0,0,0-2.44,1,3.58,3.58,0,0,0-.86,2.36v7.22H49.84Z"/><path class="cls-1" d="M58.2,163.85h2.13v3.51h2v1.72h-2v8.19a.9.9,0,0,0,.44.88,2,2,0,0,0,.82.13h.33l.41,0v1.68a4.53,4.53,0,0,1-.75.15,7.48,7.48,0,0,1-.85.05,2.32,2.32,0,0,1-2-.76,3.36,3.36,0,0,1-.52-2v-8.31H56.5v-1.72h1.7Z"/><path class="cls-1" d="M78.86,167.7a4.77,4.77,0,0,1,1.9,1.62,5.7,5.7,0,0,1,.84,2.22,14.86,14.86,0,0,1,.19,2.76H72.66a5.43,5.43,0,0,0,.89,3.08,3,3,0,0,0,2.6,1.16,3.33,3.33,0,0,0,2.61-1.1,3.72,3.72,0,0,0,.78-1.47h2.07a4.45,4.45,0,0,1-.54,1.54,5.54,5.54,0,0,1-1,1.39,4.79,4.79,0,0,1-2.36,1.26,6.83,6.83,0,0,1-1.71.19,5.27,5.27,0,0,1-3.95-1.7,6.66,6.66,0,0,1-1.61-4.78A7.24,7.24,0,0,1,72,169a5.34,5.34,0,0,1,4.26-1.89A5.64,5.64,0,0,1,78.86,167.7Zm.76,4.93a5.68,5.68,0,0,0-.59-2.19,3,3,0,0,0-2.87-1.53A3.16,3.16,0,0,0,73.74,170a4,4,0,0,0-1,2.67Z"/><path class="cls-1" d="M91.44,167.86a5.84,5.84,0,0,1,1.21,1.19v-1.58h1.94v11.42a8.39,8.39,0,0,1-.7,3.77c-.87,1.7-2.51,2.55-4.94,2.55a6.11,6.11,0,0,1-3.4-.9A3.59,3.59,0,0,1,84,181.46h2.15a2.43,2.43,0,0,0,.6,1.31,3.13,3.13,0,0,0,2.24.7c1.61,0,2.66-.57,3.16-1.71a9.86,9.86,0,0,0,.41-3.6,4.13,4.13,0,0,1-1.52,1.43,5.05,5.05,0,0,1-2.35.47,5,5,0,0,1-3.55-1.45c-1-1-1.52-2.56-1.52-4.79a7.28,7.28,0,0,1,1.53-4.92,4.74,4.74,0,0,1,3.71-1.77A4.61,4.61,0,0,1,91.44,167.86Zm.25,2.26A3,3,0,0,0,89.26,169a3,3,0,0,0-3,2.08,8.16,8.16,0,0,0-.44,2.92,5.22,5.22,0,0,0,.86,3.23,2.76,2.76,0,0,0,2.3,1.11,3.25,3.25,0,0,0,3.19-2.05,6.72,6.72,0,0,0,.51-2.71A5.24,5.24,0,0,0,91.69,170.12Z"/><path class="cls-1" d="M105.56,167.7a4.84,4.84,0,0,1,1.9,1.62,5.54,5.54,0,0,1,.83,2.22,14,14,0,0,1,.19,2.76H99.35a5.43,5.43,0,0,0,.9,3.08,3,3,0,0,0,2.59,1.16,3.35,3.35,0,0,0,2.62-1.1,3.7,3.7,0,0,0,.77-1.47h2.08a4.5,4.5,0,0,1-.55,1.54,5.52,5.52,0,0,1-1,1.39,4.88,4.88,0,0,1-2.36,1.26,6.94,6.94,0,0,1-1.71.19,5.25,5.25,0,0,1-4-1.7,6.67,6.67,0,0,1-1.62-4.78A7.24,7.24,0,0,1,98.72,169a5.37,5.37,0,0,1,4.26-1.89A5.65,5.65,0,0,1,105.56,167.7Zm.75,4.93a5.35,5.35,0,0,0-.59-2.19,3,3,0,0,0-2.87-1.53,3.17,3.17,0,0,0-2.42,1.05,4,4,0,0,0-1,2.67Z"/><path class="cls-1" d="M111.58,163.85h2.13v3.51h2v1.72h-2v8.19a.9.9,0,0,0,.44.88,2,2,0,0,0,.82.13h.33l.41,0v1.68a4.53,4.53,0,0,1-.75.15,7.62,7.62,0,0,1-.85.05,2.31,2.31,0,0,1-2-.76,3.36,3.36,0,0,1-.52-2v-8.31h-1.7v-1.72h1.7Z"/><path class="cls-1" d="M124.91,163.85H127v3.51h2v1.72h-2v8.19a.88.88,0,0,0,.45.88,2,2,0,0,0,.82.13h.33l.41,0v1.68a4.65,4.65,0,0,1-.76.15,7.34,7.34,0,0,1-.85.05,2.3,2.3,0,0,1-2-.76,3.36,3.36,0,0,1-.53-2v-8.31h-1.7v-1.72h1.7Z"/><path class="cls-1" d="M138.91,167.7a4.84,4.84,0,0,1,1.9,1.62,5.7,5.7,0,0,1,.84,2.22,15.07,15.07,0,0,1,.18,2.76H132.7a5.43,5.43,0,0,0,.9,3.08,3,3,0,0,0,2.59,1.16,3.33,3.33,0,0,0,2.62-1.1,3.7,3.7,0,0,0,.77-1.47h2.08a4.5,4.5,0,0,1-.55,1.54,5.52,5.52,0,0,1-1,1.39,4.84,4.84,0,0,1-2.36,1.26,6.94,6.94,0,0,1-1.71.19,5.27,5.27,0,0,1-3.95-1.7,6.67,6.67,0,0,1-1.62-4.78,7.29,7.29,0,0,1,1.63-4.91,5.37,5.37,0,0,1,4.26-1.89A5.65,5.65,0,0,1,138.91,167.7Zm.76,4.93a5.5,5.5,0,0,0-.6-2.19,3,3,0,0,0-2.87-1.53,3.15,3.15,0,0,0-2.41,1.05,4,4,0,0,0-1,2.67Z"/><path class="cls-1" d="M151.23,172.31a1.11,1.11,0,0,0,1-.61,1.79,1.79,0,0,0,.14-.81,1.73,1.73,0,0,0-.76-1.57,4.13,4.13,0,0,0-2.19-.49,2.77,2.77,0,0,0-2.34.9,3,3,0,0,0-.51,1.47h-2a3.63,3.63,0,0,1,1.5-3.24,6.12,6.12,0,0,1,3.35-.91,6.85,6.85,0,0,1,3.6.84,2.88,2.88,0,0,1,1.37,2.63v7.23a.93.93,0,0,0,.13.53.66.66,0,0,0,.57.2l.32,0,.37-.05V180a4.77,4.77,0,0,1-.75.18,6,6,0,0,1-.7,0,1.74,1.74,0,0,1-1.59-.78,3,3,0,0,1-.36-1.16,5.52,5.52,0,0,1-1.85,1.47,5.76,5.76,0,0,1-2.66.62,4,4,0,0,1-2.85-1.06,3.52,3.52,0,0,1-1.11-2.65,3.42,3.42,0,0,1,1.09-2.71,5.21,5.21,0,0,1,2.86-1.18Zm-4.44,5.7a2.49,2.49,0,0,0,1.58.53,4.9,4.9,0,0,0,2.16-.52,2.9,2.9,0,0,0,1.76-2.8v-1.69a3.77,3.77,0,0,1-1,.41,7.34,7.34,0,0,1-1.19.23l-1.28.17a4.89,4.89,0,0,0-1.72.48,1.86,1.86,0,0,0-1,1.75A1.72,1.72,0,0,0,146.79,178Z"/><path class="cls-1" d="M157.85,167.36h2.09v1.78a6.82,6.82,0,0,1,1.36-1.35,4,4,0,0,1,2.37-.72,3.73,3.73,0,0,1,2.41.74,4,4,0,0,1,.94,1.24,4.55,4.55,0,0,1,1.65-1.49,4.64,4.64,0,0,1,2.13-.49,3.49,3.49,0,0,1,3.45,1.83,6,6,0,0,1,.49,2.65v8.36h-2.19v-8.72a2,2,0,0,0-.63-1.73,2.5,2.5,0,0,0-1.53-.46,3,3,0,0,0-2.14.83,3.68,3.68,0,0,0-.89,2.78v7.3h-2.15v-8.2a4.3,4.3,0,0,0-.3-1.86,1.88,1.88,0,0,0-1.8-.88,3.09,3.09,0,0,0-2.17.93,4.54,4.54,0,0,0-1,3.35v6.66h-2.11Z"/><path class="cls-1" d="M178.56,175.28l2.48-1.94-2.48-2v-2.11l3.78,2.94v2.23l-3.78,2.94Zm4.92,0,2.47-1.94-2.47-2v-2.11l3.79,2.94v2.24l-3.79,2.93Z"/></svg>