<svg id="Layer_1" data-name="Layer 1" xmlns="http://www.w3.org/2000/svg" viewBox="0 0 160 600"><defs><style>.cls-1{fill:#fff;}</style></defs><title>text</title><path class="cls-1" d="M25.27,254H16.48q-1.08,0-1.08-.84V239.27q0-.87,1.08-.87t1.08.87V252h7.71c.49,0,.74.33.74,1S25.76,254,25.27,254Z"/><path class="cls-1" d="M37.08,251.94c.49,0,.74.29.74.89a1,1,0,0,1-.74,1.08,19.2,19.2,0,0,1-3.9.28,6.7,6.7,0,0,1-3.93-.89,3.54,3.54,0,0,1-1.19-3v-4.4a3.42,3.42,0,0,1,1.08-3,7.45,7.45,0,0,1,4-.76,7.54,7.54,0,0,1,4,.72c.69.49,1,1.49,1,3v1.9a1.33,1.33,0,0,1-.32.92,1,1,0,0,1-.81.32H30.21v1.41c0,1.18,1,1.77,3.09,1.76a18.17,18.17,0,0,0,2.34-.14A11.28,11.28,0,0,1,37.08,251.94Zm-6.87-6v1.24H36v-1.24a1.53,1.53,0,0,0-.58-1.4,4.93,4.93,0,0,0-2.29-.36,5.17,5.17,0,0,0-2.29.34A1.51,1.51,0,0,0,30.21,245.92Z"/><path class="cls-1" d="M48.17,250.47v-.27a.89.89,0,0,0-.56-.83,5,5,0,0,0-2-.26,11.75,11.75,0,0,1-3.1-.43,2.53,2.53,0,0,1-1.4-1,3,3,0,0,1-.56-1.92v-.2a2.84,2.84,0,0,1,1.2-2.7,7.52,7.52,0,0,1,3.68-.7,15.43,15.43,0,0,1,3.66.32,1,1,0,0,1,.74,1.08c0,.59-.25.89-.74.89a12.51,12.51,0,0,1-1.51-.16,16.62,16.62,0,0,0-2.41-.16,6.09,6.09,0,0,0-1.87.21c-.4.14-.6.54-.6,1.18v.23c0,.85.89,1.3,2.67,1.36.75,0,1.49.09,2.24.18a3.38,3.38,0,0,1,1.9.84,2.47,2.47,0,0,1,.77,2v.29a3.23,3.23,0,0,1-1.21,2.94,7.58,7.58,0,0,1-3.93.78,16.79,16.79,0,0,1-3.88-.31,1,1,0,0,1-.74-1.08c0-.59.25-.89.74-.89a15.77,15.77,0,0,1,1.7.16,20.81,20.81,0,0,0,2.46.15,5.11,5.11,0,0,0,2-.32A1.39,1.39,0,0,0,48.17,250.47Z"/><path class="cls-1" d="M63.46,254.12a1.84,1.84,0,0,1-1.15-.39,2.16,2.16,0,0,1-.72-1l-3.4-9.15-.08-.39c0-.56.34-.84,1-.83a1,1,0,0,1,1.05.62l3.21,9h.12l3.22-9c.16-.42.55-.62,1.16-.62s.93.27.93.83c0,0,0,.14-.07.39l-3.41,9.15a2,2,0,0,1-.73,1A1.93,1.93,0,0,1,63.46,254.12Z"/><path class="cls-1" d="M72.21,244.47c-.5,0-.75-.29-.75-.89a1,1,0,0,1,.75-1.08,16.94,16.94,0,0,1,3.9-.31c1.81,0,3,.29,3.68.86a4,4,0,0,1,1,3v4.63c0,1.44-.35,2.38-1.06,2.82a8.43,8.43,0,0,1-4,.66,8,8,0,0,1-4-.66c-.67-.44-1-1.37-1-2.81a4.33,4.33,0,0,1,.77-3c.53-.55,1.59-.82,3.19-.81h4V245.7a1.32,1.32,0,0,0-.55-1.21,4.07,4.07,0,0,0-2-.33,15.88,15.88,0,0,0-2.45.16A8.58,8.58,0,0,1,72.21,244.47Zm6.39,6.41v-2H75.28a4.19,4.19,0,0,0-2,.31c-.3.2-.46.66-.46,1.38s.19,1.19.57,1.4a6,6,0,0,0,2.29.29A6.91,6.91,0,0,0,78,252,1.07,1.07,0,0,0,78.6,250.88ZM74.42,241a2.26,2.26,0,0,1,0-3.17,2.23,2.23,0,0,1,3.15,0,2.17,2.17,0,0,1,.66,1.59A2.24,2.24,0,0,1,74.42,241Zm.62-1.58a.94.94,0,0,0,.28.69.89.89,0,0,0,.69.27.93.93,0,0,0,.67-.28,1,1,0,0,0,.28-.69.9.9,0,0,0-.28-.68,1,1,0,0,0-1.37,0A.86.86,0,0,0,75,239.39Z"/><path class="cls-1" d="M86.25,247.18v6c0,.56-.35.84-1.07.84s-1.07-.28-1.08-.84V246.9a7.57,7.57,0,0,1,.38-3,4.25,4.25,0,0,1,.71-1c.52-.47,1.8-.7,3.86-.7a6.7,6.7,0,0,1,2.09.21.76.76,0,0,1,.53.76,1.13,1.13,0,0,1-.29.83,1,1,0,0,1-.74.27l-1.59-.1a6.93,6.93,0,0,0-1.84.14,1.49,1.49,0,0,0-.53.27,1.79,1.79,0,0,0-.26.54,2.4,2.4,0,0,0-.15.84C86.26,246.24,86.25,246.65,86.25,247.18Z"/><path class="cls-1" d="M97.52,254a3,3,0,0,1-2.29-.7,3.55,3.55,0,0,1-.64-2.41v-6.6H93.07c-.48,0-.72-.32-.72-.95s.24-1,.72-1h1.52v-3.06c0-.55.36-.83,1.07-.83s1.08.28,1.08.83v3.06H99.8c.48,0,.73.31.73,1s-.25.95-.73.95H96.74v6.76c0,.65.39,1,1.17,1l2-.12q.75,0,.75.87a1.11,1.11,0,0,1-.77,1.15C99.41,254,98.61,254,97.52,254Z"/><path class="cls-1" d="M14.68,277.09v-9.5q0-.87,1.08-.87c.71,0,1.07.29,1.07.87v3.87a7.34,7.34,0,0,1,2.89-.47,12.82,12.82,0,0,1,2.78.23,3.44,3.44,0,0,1,1.62.91,3.86,3.86,0,0,1,.93,1.85,15.25,15.25,0,0,1,.25,3.11,15.68,15.68,0,0,1-.24,3.09,3.16,3.16,0,0,1-.94,1.77,3.69,3.69,0,0,1-1.62.83A12,12,0,0,1,20,283a12.49,12.49,0,0,1-2.5-.2,3.3,3.3,0,0,1-1.59-.83,3.49,3.49,0,0,1-1-1.8A14.65,14.65,0,0,1,14.68,277.09Zm8.47.49c0-1,0-1.85-.08-2.46a3.36,3.36,0,0,0-.6-1.64c-.24-.35-1.07-.52-2.49-.52a4.49,4.49,0,0,0-2.26.33,1.89,1.89,0,0,0-.71,1.07,12.71,12.71,0,0,0-.22,2.41c0,.85,0,1.57.08,2.17a2.92,2.92,0,0,0,.62,1.59c.2.28.68.44,1.42.49L20,281l1.07,0a5.72,5.72,0,0,0,.8-.13,1.11,1.11,0,0,0,.62-.34,5.29,5.29,0,0,0,.42-.84A6,6,0,0,0,23.15,277.58Z"/><path class="cls-1" d="M30.8,267.59V282q0,.84-1.08.84T28.64,282V267.59q0-.87,1.08-.87T30.8,267.59Z"/><path class="cls-1" d="M34.25,277.09a14.37,14.37,0,0,1,.26-3.1,3.35,3.35,0,0,1,2.55-2.77,11.34,11.34,0,0,1,2.51-.23,11.28,11.28,0,0,1,2.51.23,3.44,3.44,0,0,1,1.62.91,3.75,3.75,0,0,1,.95,1.85,15,15,0,0,1,.26,3.1,14.87,14.87,0,0,1-.26,3.09,3.24,3.24,0,0,1-1,1.78,3.6,3.6,0,0,1-1.61.83,11.84,11.84,0,0,1-2.51.21,12.74,12.74,0,0,1-2.51-.2,3.49,3.49,0,0,1-1.62-.83,3.28,3.28,0,0,1-.94-1.8A14.76,14.76,0,0,1,34.25,277.09Zm2.41-2.74a6.18,6.18,0,0,0-.26,2.14c0,1,0,1.84.08,2.44a3,3,0,0,0,.61,1.58c.2.28.67.44,1.41.49l1.07,0c1.41,0,2.23-.17,2.48-.51a3.15,3.15,0,0,0,.62-1.59,17.74,17.74,0,0,0,.08-1.81c0-1.87-.17-3-.52-3.39a2.89,2.89,0,0,0-.41-.43,2.87,2.87,0,0,0-1.69-.33c-.86,0-1.41,0-1.65,0-.73,0-1.19.21-1.39.49A6.59,6.59,0,0,0,36.66,274.35Z"/><path class="cls-1" d="M56.45,269.85c0-.51.36-.76,1.08-.76s1.08.26,1.08.79V275q0,2.27-1.14,3a7.37,7.37,0,0,1-3.78.72,17.54,17.54,0,0,1-3.52-.22v1.85h4.38c1.64,0,2.75.28,3.33.85a4,4,0,0,1,.87,2.88,3,3,0,0,1-1.17,2.77,8.25,8.25,0,0,1-4.16.75,9.15,9.15,0,0,1-4.19-.68c-.8-.44-1.21-1.37-1.21-2.77v-9.44a4,4,0,0,1,.66-2.62,3.65,3.65,0,0,1,2.54-.92,20.31,20.31,0,0,1,5.23.25Zm-6.28,5.06c0,.87.17,1.39.48,1.57a5.92,5.92,0,0,0,2.32.27,10.34,10.34,0,0,0,2.49-.19,1.19,1.19,0,0,0,.83-.58,3.69,3.69,0,0,0,.16-1.3v-1.43A25,25,0,0,0,53,273a4.87,4.87,0,0,0-2.22.36,1.54,1.54,0,0,0-.64,1.46Zm0,7.27v2a1.16,1.16,0,0,0,.77,1.14,7.06,7.06,0,0,0,2.54.34,5.17,5.17,0,0,0,2.36-.36,1.43,1.43,0,0,0,.61-1.36,1.51,1.51,0,0,0-.58-1.38,4.32,4.32,0,0,0-2.11-.36Z"/><path class="cls-1" d="M69.91,269.85c0-.51.36-.76,1.07-.76s1.08.26,1.08.79V275c0,1.51-.38,2.5-1.13,3a7.4,7.4,0,0,1-3.78.72,17.4,17.4,0,0,1-3.52-.22v1.85H68c1.64,0,2.75.28,3.34.85A4,4,0,0,1,72.2,284,3,3,0,0,1,71,286.78a8.2,8.2,0,0,1-4.15.75,9.09,9.09,0,0,1-4.19-.68c-.81-.44-1.21-1.37-1.22-2.77v-9.44a4,4,0,0,1,.66-2.62,3.67,3.67,0,0,1,2.54-.92,20.41,20.41,0,0,1,5.24.25Zm-6.28,5.06c0,.87.16,1.39.47,1.57a6,6,0,0,0,2.32.27,10.34,10.34,0,0,0,2.49-.19,1.17,1.17,0,0,0,.83-.58,3.64,3.64,0,0,0,.17-1.3v-1.43a25.29,25.29,0,0,0-3.43-.25,4.82,4.82,0,0,0-2.21.36,1.52,1.52,0,0,0-.64,1.46Zm0,7.27v2a1.15,1.15,0,0,0,.77,1.14,7,7,0,0,0,2.54.34,5.23,5.23,0,0,0,2.36-.36,1.45,1.45,0,0,0,.61-1.36,1.53,1.53,0,0,0-.58-1.38,4.36,4.36,0,0,0-2.12-.36Z"/><path class="cls-1" d="M75,268.4a1.1,1.1,0,0,1,.35-.83,1.16,1.16,0,0,1,.82-.37,1.09,1.09,0,0,1,.83.37,1.2,1.2,0,0,1,.34.84,1.17,1.17,0,1,1-2.34,0ZM77.28,272V282q0,.84-1.08.84T75.12,282V272c0-.56.36-.85,1.08-.85S77.28,271.46,77.28,272Z"/><path class="cls-1" d="M83.37,273.37A4.79,4.79,0,0,0,83,276v6c0,.57-.35.85-1.07.85s-1.08-.28-1.08-.84V275.7a12.32,12.32,0,0,1,.21-2.58,2.26,2.26,0,0,1,.84-1.41,3.07,3.07,0,0,1,1.48-.59A22.25,22.25,0,0,1,86,271c2,0,3.29.24,3.82.74a3.17,3.17,0,0,1,.94,2.1c0,.51.08,1.13.08,1.87V282q0,.84-1.08.84c-.72,0-1.08-.28-1.08-.85v-6a4.66,4.66,0,0,0-.41-2.58c-.27-.28-1.1-.42-2.47-.42S83.64,273.09,83.37,273.37Z"/><path class="cls-1" d="M96.75,273.37a4.83,4.83,0,0,0-.39,2.59v6c0,.57-.36.85-1.08.85s-1.07-.28-1.08-.84V275.7a12.32,12.32,0,0,1,.21-2.58,2.26,2.26,0,0,1,.84-1.41,3.11,3.11,0,0,1,1.48-.59,22.38,22.38,0,0,1,2.66-.13c2,0,3.29.24,3.82.74a3.17,3.17,0,0,1,.94,2.1c0,.51.08,1.13.08,1.87V282q0,.84-1.08.84c-.72,0-1.08-.28-1.08-.85v-6c0-1.44-.13-2.3-.41-2.58s-1.09-.42-2.46-.42S97,273.09,96.75,273.37Z"/><path class="cls-1" d="M109.94,267.59V282q0,.84-1.08.84t-1.08-.84V267.59q0-.87,1.08-.87T109.94,267.59Z"/><path class="cls-1" d="M122.41,280.74c.49,0,.73.29.73.89a1,1,0,0,1-.73,1.08,19.39,19.39,0,0,1-3.91.28,6.68,6.68,0,0,1-3.92-.89,3.54,3.54,0,0,1-1.2-3v-4.4a3.42,3.42,0,0,1,1.08-3,7.45,7.45,0,0,1,4-.76,7.52,7.52,0,0,1,4,.72c.69.49,1,1.49,1,3v1.9a1.33,1.33,0,0,1-.31.92,1.06,1.06,0,0,1-.81.32h-6.82v1.41c0,1.18,1,1.77,3.08,1.76a18,18,0,0,0,2.34-.14A11.23,11.23,0,0,1,122.41,280.74Zm-6.87-6V276h5.79v-1.24a1.53,1.53,0,0,0-.59-1.4,4.91,4.91,0,0,0-2.28-.36,5.22,5.22,0,0,0-2.3.34A1.5,1.5,0,0,0,115.54,274.72Z"/><path class="cls-1" d="M135.16,269.85c0-.51.36-.76,1.07-.76s1.08.26,1.08.79V275c0,1.51-.38,2.5-1.13,3a7.4,7.4,0,0,1-3.78.72,17.4,17.4,0,0,1-3.52-.22v1.85h4.37c1.64,0,2.75.28,3.34.85a4,4,0,0,1,.86,2.88,3,3,0,0,1-1.17,2.77,8.2,8.2,0,0,1-4.15.75,9.09,9.09,0,0,1-4.19-.68c-.81-.44-1.21-1.37-1.22-2.77v-9.44a4,4,0,0,1,.66-2.62,3.67,3.67,0,0,1,2.54-.92,20.41,20.41,0,0,1,5.24.25Zm-6.28,5.06c0,.87.16,1.39.47,1.57a6,6,0,0,0,2.32.27,10.34,10.34,0,0,0,2.49-.19A1.17,1.17,0,0,0,135,276a3.64,3.64,0,0,0,.17-1.3v-1.43a25.29,25.29,0,0,0-3.43-.25,4.82,4.82,0,0,0-2.21.36,1.52,1.52,0,0,0-.64,1.46Zm0,7.27v2a1.15,1.15,0,0,0,.77,1.14,7,7,0,0,0,2.54.34,5.23,5.23,0,0,0,2.36-.36,1.45,1.45,0,0,0,.61-1.36,1.53,1.53,0,0,0-.58-1.38,4.36,4.36,0,0,0-2.12-.36Z"/><path class="cls-1" d="M148.61,269.85c0-.51.36-.76,1.08-.76s1.08.26,1.08.79V275q0,2.27-1.14,3a7.4,7.4,0,0,1-3.78.72,17.47,17.47,0,0,1-3.52-.22v1.85h4.38a4.85,4.85,0,0,1,3.33.85,4,4,0,0,1,.87,2.88,3,3,0,0,1-1.18,2.77,8.2,8.2,0,0,1-4.15.75,9.09,9.09,0,0,1-4.19-.68c-.8-.44-1.21-1.37-1.22-2.77v-9.44a4,4,0,0,1,.67-2.62,3.65,3.65,0,0,1,2.54-.92,20.33,20.33,0,0,1,5.23.25Zm-6.28,5.06c0,.87.17,1.39.48,1.57a5.85,5.85,0,0,0,2.31.27,10.39,10.39,0,0,0,2.5-.19,1.19,1.19,0,0,0,.83-.58,4,4,0,0,0,.16-1.3v-1.43a25.18,25.18,0,0,0-3.43-.25,4.82,4.82,0,0,0-2.21.36,1.54,1.54,0,0,0-.64,1.46Zm0,7.27v2a1.16,1.16,0,0,0,.77,1.14,7,7,0,0,0,2.54.34,5.17,5.17,0,0,0,2.36-.36,1.43,1.43,0,0,0,.61-1.36,1.51,1.51,0,0,0-.58-1.38,4.34,4.34,0,0,0-2.11-.36Z"/></svg>