<svg id="Layer_1" data-name="Layer 1" xmlns="http://www.w3.org/2000/svg" viewBox="0 0 160 600"><defs><style>.cls-1{fill:#d80201;}.cls-2{fill:#fff;}</style></defs><title>text</title><rect class="cls-1" x="14.3" y="523.33" width="129.39" height="20.89" rx="10.44" ry="10.44"/><path class="cls-2" d="M39.06,537.84l-2.9-3.65-.18.18v3.46H34.39v-8.13H36v3.44l3-3.44h2l-3.44,3.75,3.62,4.38Z"/><path class="cls-2" d="M45.6,538a4.22,4.22,0,0,1-4.34-4.23A4.35,4.35,0,1,1,45.6,538Zm0-7a2.81,2.81,0,1,0,2.72,2.79A2.76,2.76,0,0,0,45.6,531Z"/><path class="cls-2" d="M58.95,537.84l-.72-5L56,537.95h-.44l-2.16-5.12-.82,5H51l1.51-8.28h1.08l2.22,5.32,2.32-5.32h1.08l1.35,8.28Z"/><path class="cls-2" d="M65,537.84v-8.13h1.58v8.13Z"/><path class="cls-2" d="M76.19,535a3.76,3.76,0,0,1-3.85,3,4.1,4.1,0,0,1-4.27-4.23,4.17,4.17,0,0,1,4.32-4.27,3.88,3.88,0,0,1,3.49,1.91l-1.38.74A2.39,2.39,0,0,0,72.37,531a2.69,2.69,0,0,0-2.67,2.82,2.66,2.66,0,0,0,2.67,2.79,2,2,0,0,0,2.12-1.73H72.58v-1.37h3.73v.2A7,7,0,0,1,76.19,535Z"/><path class="cls-2" d="M83,537.84l-.69-1.72H79l-.74,1.72H76.54l3.52-8.3h1.2l3.43,8.3Zm-2.33-5.92-1.18,2.93h2.33Zm0-3a1.13,1.13,0,1,1,1.13-1.13A1.14,1.14,0,0,1,80.61,528.91Zm0-1.6a.46.46,0,1,0,.46.46A.46.46,0,0,0,80.61,527.32Z"/><path class="cls-2" d="M92.16,538l-5-5.66v5.5H85.63v-8.31h1.1l5,5.66v-5.47h1.58V538Z"/><path class="cls-2" d="M102.82,535A3.76,3.76,0,0,1,99,538a4.1,4.1,0,0,1-4.27-4.23A4.17,4.17,0,0,1,99,529.52a3.88,3.88,0,0,1,3.49,1.91l-1.38.74A2.39,2.39,0,0,0,99,531a2.69,2.69,0,0,0-2.67,2.82A2.66,2.66,0,0,0,99,536.58a2,2,0,0,0,2.12-1.73H99.21v-1.37h3.73v.2A7,7,0,0,1,102.82,535Z"/><polygon class="cls-2" points="119.62 534.79 111.06 534.79 111.06 532.62 119.62 532.62 119.62 529.32 125.71 533.71 119.62 537.91 119.62 534.79"/></svg>