<svg id="Layer_1" data-name="Layer 1" xmlns="http://www.w3.org/2000/svg" viewBox="0 0 160 600"><defs><style>.cls-1{fill:#0ad;}</style></defs><title>text-</title><path class="cls-1" d="M23,587.08a7,7,0,0,1-.27-1.44h0a6.42,6.42,0,0,1-.28,1.44l-0.79,2.71a2,2,0,0,1-.57.07,2.14,2.14,0,0,1-.58-0.07L19,584.67a1.5,1.5,0,0,1,.5-0.07,0.79,0.79,0,0,1,.43.07l0.95,3.19a6.32,6.32,0,0,1,.21,1h0a8.24,8.24,0,0,1,.22-1l0.92-3.19a2.12,2.12,0,0,1,.54-0.07,1.33,1.33,0,0,1,.49.07l0.89,3.17a5.44,5.44,0,0,1,.2,1h0a9.15,9.15,0,0,1,.25-1l0.94-3.18A1.19,1.19,0,0,1,26,584.6a0.93,0.93,0,0,1,.43.07L25,589.79a2.12,2.12,0,0,1-.57.07,2.24,2.24,0,0,1-.58-0.07Z"/><path class="cls-1" d="M31,587.08a7,7,0,0,1-.27-1.44h0a6.42,6.42,0,0,1-.28,1.44l-0.79,2.71a2,2,0,0,1-.57.07,2.14,2.14,0,0,1-.58-0.07L27,584.67a1.5,1.5,0,0,1,.5-0.07,0.79,0.79,0,0,1,.43.07l0.95,3.19a6.32,6.32,0,0,1,.21,1h0a8.24,8.24,0,0,1,.22-1l0.92-3.19a2.12,2.12,0,0,1,.54-0.07,1.33,1.33,0,0,1,.49.07l0.89,3.17a5.44,5.44,0,0,1,.2,1h0a9.15,9.15,0,0,1,.25-1l0.94-3.18A1.19,1.19,0,0,1,34,584.6a0.93,0.93,0,0,1,.43.07l-1.51,5.12a2.12,2.12,0,0,1-.57.07,2.24,2.24,0,0,1-.58-0.07Z"/><path class="cls-1" d="M39,587.08a6.94,6.94,0,0,1-.27-1.44h0a6.36,6.36,0,0,1-.28,1.44l-0.79,2.71a2,2,0,0,1-.57.07,2.14,2.14,0,0,1-.58-0.07l-1.51-5.12a1.49,1.49,0,0,1,.5-0.07,0.79,0.79,0,0,1,.43.07l1,3.19a6.32,6.32,0,0,1,.21,1h0a8.24,8.24,0,0,1,.22-1l0.92-3.19a2.14,2.14,0,0,1,.54-0.07,1.33,1.33,0,0,1,.49.07l0.89,3.17a5.55,5.55,0,0,1,.2,1h0a9.39,9.39,0,0,1,.25-1l0.94-3.18A1.19,1.19,0,0,1,42,584.6a0.93,0.93,0,0,1,.43.07l-1.51,5.12a2.11,2.11,0,0,1-.57.07,2.25,2.25,0,0,1-.58-0.07Z"/><path class="cls-1" d="M44,589.79a1.58,1.58,0,0,1-.52.07,1.44,1.44,0,0,1-.52-0.07v-0.94a1.43,1.43,0,0,1,.52-0.07,1.56,1.56,0,0,1,.52.07v0.94Z"/><path class="cls-1" d="M47.19,584.5c1.45,0,1.91.65,1.91,1.94v3.35a0.79,0.79,0,0,1-.39.07,1,1,0,0,1-.4-0.07l-0.15-.64a1.61,1.61,0,0,1-1.57.81A1.46,1.46,0,0,1,45,588.29c0-1.09.67-1.57,1.92-1.57a10.64,10.64,0,0,1,1.14.06v-0.37a0.91,0.91,0,0,0-1-1.07,4.16,4.16,0,0,0-1.34.25,0.81,0.81,0,0,1-.23-0.3,0.86,0.86,0,0,1-.06-0.42A4.35,4.35,0,0,1,47.19,584.5Zm-0.1,2.9a0.84,0.84,0,0,0-1,.89,0.78,0.78,0,0,0,.87.9,1.22,1.22,0,0,0,1.16-1.38v-0.35C47.87,587.44,47.47,587.4,47.09,587.4Z"/><path class="cls-1" d="M50.48,584.67a1.43,1.43,0,0,1,.5-0.07,1.36,1.36,0,0,1,.5.07v3.6a0.8,0.8,0,0,0,.93.88,1.36,1.36,0,0,0,1.13-.64v-3.84a1.5,1.5,0,0,1,.5-0.07,1.3,1.3,0,0,1,.5.07v5.12a1.32,1.32,0,0,1-.5.07,1.51,1.51,0,0,1-.5-0.07v-0.46A2,2,0,0,1,52,590a1.41,1.41,0,0,1-1.55-1.51v-3.78Z"/><path class="cls-1" d="M57.34,588c0,0.91.29,1.18,1,1.18a2.8,2.8,0,0,0,.42,0,1.15,1.15,0,0,1,.07.4,1.09,1.09,0,0,1,0,.36,2.89,2.89,0,0,1-.72.09c-1.23,0-1.72-.67-1.72-1.94v-2.67H55.57a1,1,0,0,1-.06-0.37,1,1,0,0,1,.06-0.38h0.77v-0.91a1.7,1.7,0,0,1,1-.2v1.11h1.3a1,1,0,0,1,.06.37,1.11,1.11,0,0,1-.06.38h-1.3V588Z"/><path class="cls-1" d="M61.78,584.5c1.38,0,2.22.75,2.22,2.73S63.15,590,61.78,590s-2.22-.75-2.22-2.73S60.41,584.5,61.78,584.5Zm0,0.77c-0.73,0-1.2.42-1.2,2s0.47,2,1.2,2,1.19-.42,1.19-2S62.51,585.27,61.78,585.27Z"/><path class="cls-1" d="M66.88,584.5a2.85,2.85,0,0,1,1.41.27,1,1,0,0,1-.26.71,3.7,3.7,0,0,0-1-.16c-0.68,0-1,.25-1,0.72s0.63,0.61,1.26.82a1.53,1.53,0,0,1,1.33,1.5c0,1-.63,1.6-1.9,1.6A3.56,3.56,0,0,1,65,589.6a1,1,0,0,1,.27-0.74,4.27,4.27,0,0,0,1.35.25,0.77,0.77,0,0,0,1-.72c0-.55-0.55-0.67-1.14-0.84A1.54,1.54,0,0,1,65,586.07C65,585.13,65.61,584.5,66.88,584.5Z"/><path class="cls-1" d="M70.49,587.54c0.08,1.19.56,1.57,1.39,1.57a2.42,2.42,0,0,0,1.18-.29,1,1,0,0,1,.32.72,3,3,0,0,1-1.66.42c-1.54,0-2.26-1-2.26-2.76s0.89-2.7,2.22-2.7a1.8,1.8,0,0,1,2,2,4.24,4.24,0,0,1-.11,1H70.49Zm1.19-2.25c-0.65,0-1.11.43-1.19,1.54h2.14a3.56,3.56,0,0,0,0-.45A0.93,0.93,0,0,0,71.68,585.29Z"/><path class="cls-1" d="M77,584.51a1.57,1.57,0,0,1,.87.25,1.13,1.13,0,0,1-.44.84,1,1,0,0,0-.62-0.21,1.3,1.3,0,0,0-1,.76v3.64a1.45,1.45,0,0,1-.5.07,1.32,1.32,0,0,1-.5-0.07v-5.12a1.3,1.3,0,0,1,.5-0.07,1.43,1.43,0,0,1,.5.07v0.69A1.46,1.46,0,0,1,77,584.51Z"/><path class="cls-1" d="M80.35,587.82a8.18,8.18,0,0,1,.28,1.07h0s0.12-.49.31-1.07l1.09-3.15a1.22,1.22,0,0,1,.45-0.07,1.27,1.27,0,0,1,.47.07l-1.76,5.12a2.48,2.48,0,0,1-.6.07,2.28,2.28,0,0,1-.6-0.07l-1.8-5.12a1.64,1.64,0,0,1,.52-0.07,1.49,1.49,0,0,1,.52.07Z"/><path class="cls-1" d="M85,583.59a1.56,1.56,0,0,1-.52.07,1.43,1.43,0,0,1-.52-0.07v-0.94a1.43,1.43,0,0,1,.52-0.07,1.56,1.56,0,0,1,.52.07v0.94Zm0,6.2a1.44,1.44,0,0,1-.5.07,1.31,1.31,0,0,1-.5-0.07v-5.12a1.29,1.29,0,0,1,.5-0.07,1.42,1.42,0,0,1,.5.07v5.12Z"/><path class="cls-1" d="M87.23,587.23c0,1.31.42,1.88,1.38,1.88a2.57,2.57,0,0,0,.94-0.17,1,1,0,0,1,.29.72,2.71,2.71,0,0,1-1.44.3c-1.46,0-2.2-1-2.2-2.73s0.74-2.73,2.2-2.73a2.63,2.63,0,0,1,1.34.25,1,1,0,0,1-.29.72,2.42,2.42,0,0,0-.88-0.15C87.61,585.32,87.23,585.93,87.23,587.23Z"/><path class="cls-1" d="M91.7,587.54c0.08,1.19.56,1.57,1.39,1.57a2.42,2.42,0,0,0,1.18-.29,1,1,0,0,1,.32.72,3,3,0,0,1-1.66.42c-1.54,0-2.26-1-2.26-2.76s0.89-2.7,2.22-2.7a1.8,1.8,0,0,1,2,2,4.24,4.24,0,0,1-.11,1H91.7Zm1.19-2.25c-0.65,0-1.11.43-1.19,1.54h2.14a3.56,3.56,0,0,0,0-.45A0.93,0.93,0,0,0,92.89,585.29Z"/><path class="cls-1" d="M97,585.15a1.6,1.6,0,0,1,1.44-.65c1.14,0,1.88.69,1.88,2.73S99.62,590,98.48,590a1.6,1.6,0,0,1-1.44-.65v0.48a1.48,1.48,0,0,1-.51.07,1.35,1.35,0,0,1-.49-0.07v-7.36a1.33,1.33,0,0,1,.49-0.07,1.46,1.46,0,0,1,.51.07v2.72Zm1.09,0.17A1.13,1.13,0,0,0,97,586.58v1.28a1.14,1.14,0,0,0,1.09,1.28c0.8,0,1.2-.42,1.2-1.91S98.93,585.32,98.13,585.32Z"/><path class="cls-1" d="M103.59,584.5c1.38,0,2.22.75,2.22,2.73S105,590,103.59,590s-2.22-.75-2.22-2.73S102.22,584.5,103.59,584.5Zm0,0.77c-0.73,0-1.2.42-1.2,2s0.47,2,1.2,2,1.19-.42,1.19-2S104.32,585.27,103.59,585.27Z"/><path class="cls-1" d="M108.3,588c0,0.91.29,1.18,1,1.18a2.8,2.8,0,0,0,.42,0,1.15,1.15,0,0,1,.07.4,1.09,1.09,0,0,1,0,.36,2.89,2.89,0,0,1-.72.09c-1.23,0-1.72-.67-1.72-1.94v-2.67h-0.77a1,1,0,0,1-.06-0.37,1,1,0,0,1,.06-0.38h0.77v-0.91a1.7,1.7,0,0,1,1-.2v1.11h1.3a1,1,0,0,1,.06.37,1.11,1.11,0,0,1-.06.38h-1.3V588Z"/><path class="cls-1" d="M113.68,584.67a1.67,1.67,0,0,1,.51-0.07,2,2,0,0,1,.49.06L113.14,587l1.77,2.74a1.81,1.81,0,0,1-.56.08,1.59,1.59,0,0,1-.54-0.08l-1.5-2.3h-0.56v2.3a1.83,1.83,0,0,1-1,0v-7.38a2.32,2.32,0,0,1,.51,0,2.47,2.47,0,0,1,.49,0v4.33h0.57Z"/><path class="cls-1" d="M118.14,590.63c-0.36,1.1-.71,1.73-1.79,1.73a1.44,1.44,0,0,1-.55-0.1,1.16,1.16,0,0,1-.07-0.37,0.94,0.94,0,0,1,.08-0.4,2.85,2.85,0,0,0,.45,0c0.45,0,.68-0.12,1-1.06l0.21-.61a1,1,0,0,1-.32-0.07l-1.9-5.12a1.63,1.63,0,0,1,.52-0.07,1.56,1.56,0,0,1,.52.07l1.14,3a9.48,9.48,0,0,1,.35,1.17h0s0.1-.47.32-1.16l1-3a1.33,1.33,0,0,1,.49-0.07,1.4,1.4,0,0,1,.47.07Z"/><path class="cls-1" d="M123.24,584.51a1.57,1.57,0,0,1,.87.25,1.13,1.13,0,0,1-.44.84,1,1,0,0,0-.62-0.21,1.3,1.3,0,0,0-1,.76v3.64a1.45,1.45,0,0,1-.5.07,1.32,1.32,0,0,1-.5-0.07v-5.12a1.3,1.3,0,0,1,.5-0.07,1.43,1.43,0,0,1,.5.07v0.69A1.46,1.46,0,0,1,123.24,584.51Z"/><path class="cls-1" d="M126.71,584.5c1.45,0,1.91.65,1.91,1.94v3.35a0.79,0.79,0,0,1-.39.07,1,1,0,0,1-.4-0.07l-0.15-.64a1.61,1.61,0,0,1-1.57.81,1.46,1.46,0,0,1-1.55-1.67c0-1.09.67-1.57,1.92-1.57a10.64,10.64,0,0,1,1.14.06v-0.37a0.91,0.91,0,0,0-1-1.07,4.16,4.16,0,0,0-1.34.25,0.81,0.81,0,0,1-.23-0.3,0.86,0.86,0,0,1-.06-0.42A4.35,4.35,0,0,1,126.71,584.5Zm-0.1,2.9a0.84,0.84,0,0,0-1,.89,0.78,0.78,0,0,0,.87.9,1.22,1.22,0,0,0,1.16-1.38v-0.35C127.39,587.44,127,587.4,126.61,587.4Z"/><path class="cls-1" d="M131,589.79a1.58,1.58,0,0,1-.52.07,1.44,1.44,0,0,1-.52-0.07v-0.94a1.42,1.42,0,0,1,.52-0.07,1.56,1.56,0,0,1,.52.07v0.94Z"/><path class="cls-1" d="M134,584.5a2.85,2.85,0,0,1,1.41.27,1,1,0,0,1-.26.71,3.7,3.7,0,0,0-1-.16c-0.68,0-1,.25-1,0.72s0.63,0.61,1.26.82a1.53,1.53,0,0,1,1.33,1.5c0,1-.63,1.6-1.9,1.6a3.56,3.56,0,0,1-1.67-.36,1,1,0,0,1,.27-0.74,4.27,4.27,0,0,0,1.35.25,0.77,0.77,0,0,0,1-.72c0-.55-0.55-0.67-1.14-0.84a1.54,1.54,0,0,1-1.42-1.48C132.15,585.13,132.76,584.5,134,584.5Z"/><path class="cls-1" d="M137.64,587.54c0.08,1.19.56,1.57,1.39,1.57a2.42,2.42,0,0,0,1.18-.29,1,1,0,0,1,.32.72,3,3,0,0,1-1.66.42c-1.54,0-2.26-1-2.26-2.76s0.89-2.7,2.22-2.7a1.8,1.8,0,0,1,2,2,4.24,4.24,0,0,1-.11,1h-3.06Zm1.19-2.25c-0.65,0-1.11.43-1.19,1.54h2.14a3.56,3.56,0,0,0,0-.45A0.93,0.93,0,0,0,138.83,585.29Z"/></svg>