<svg id="Layer_1" data-name="Layer 1" xmlns="http://www.w3.org/2000/svg" viewBox="0 0 160 600"><defs><style>.cls-1{fill:#0ad;}</style></defs><title>text-</title><path class="cls-1" d="M46.16,266a2.89,2.89,0,0,1,.2,1.07,3.18,3.18,0,0,1-.2,1.13H41.51v15.62a3.84,3.84,0,0,1-1.27.17,3.34,3.34,0,0,1-1.28-.17V268.2H34.19a2.8,2.8,0,0,1-.2-1.1,3.12,3.12,0,0,1,.2-1.1h12Z"/><path class="cls-1" d="M51.34,268.33a3.91,3.91,0,0,1-1.3.18,3.57,3.57,0,0,1-1.3-.18V266a3.58,3.58,0,0,1,1.3-.17,3.92,3.92,0,0,1,1.3.17v2.35Zm0,15.5A3.59,3.59,0,0,1,50,284a3.26,3.26,0,0,1-1.25-.17V271a3.25,3.25,0,0,1,1.25-.18,3.58,3.58,0,0,1,1.25.18v12.8Z"/><path class="cls-1" d="M57.56,283.83a3.58,3.58,0,0,1-1.25.17,3.26,3.26,0,0,1-1.25-.17v-18.4a3.25,3.25,0,0,1,1.25-.18,3.57,3.57,0,0,1,1.25.18v18.4Z"/><path class="cls-1" d="M63.86,283.83a3.58,3.58,0,0,1-1.25.17,3.26,3.26,0,0,1-1.25-.17v-18.4a3.25,3.25,0,0,1,1.25-.18,3.57,3.57,0,0,1,1.25.18v18.4Z"/><path class="cls-1" d="M72.49,265.25a6.79,6.79,0,0,1,2.75.52,2.7,2.7,0,0,1-.65,1.75,6.29,6.29,0,0,0-1.92-.27c-1.42,0-1.85.65-1.85,2v1.62h3.12a3.69,3.69,0,0,1,.13,1,3.39,3.39,0,0,1-.12.9H70.81v11.1a3.59,3.59,0,0,1-1.25.17,3.26,3.26,0,0,1-1.25-.17v-11.1H66.66a5.16,5.16,0,0,1-.12-0.95,3.17,3.17,0,0,1,.13-0.92h1.65v-1.5C68.31,266.93,69.31,265.25,72.49,265.25Z"/><path class="cls-1" d="M80.94,270.6c3.62,0,4.77,1.62,4.77,4.85v8.37a2,2,0,0,1-1,.17,2.56,2.56,0,0,1-1-.17l-0.37-1.6c-0.65,1.32-2,2-3.92,2-2.35,0-3.87-1.4-3.87-4.17s1.67-3.92,4.8-3.92a26.86,26.86,0,0,1,2.85.15v-1.07c0-1.6-.67-2.52-2.57-2.52a10.41,10.41,0,0,0-3.35.63,2,2,0,0,1-.57-0.75,2.16,2.16,0,0,1-.15-1A10.86,10.86,0,0,1,80.94,270.6Zm-2-4.37a3.58,3.58,0,0,1,1.15.15v2a3.58,3.58,0,0,1-1.15.15,3.14,3.14,0,0,1-1.12-.15v-2A3.14,3.14,0,0,1,78.94,266.23Zm1.75,11.62c-1.67,0-2.55.67-2.55,2.22a2,2,0,0,0,2.17,2.25c2,0,2.9-1.67,2.9-3.45V278C82.64,278,81.64,277.85,80.69,277.85Zm2.5-11.62a3.32,3.32,0,0,1,1.12.15v2a3.32,3.32,0,0,1-1.12.15A3.4,3.4,0,0,1,82,268.4v-2A3.4,3.4,0,0,1,83.19,266.23Z"/><path class="cls-1" d="M91.84,283.83a3.58,3.58,0,0,1-1.25.17,3.26,3.26,0,0,1-1.25-.17v-18.4a3.25,3.25,0,0,1,1.25-.18,3.57,3.57,0,0,1,1.25.18v18.4Z"/><path class="cls-1" d="M98.14,283.83a3.58,3.58,0,0,1-1.25.17,3.26,3.26,0,0,1-1.25-.17v-18.4a3.25,3.25,0,0,1,1.25-.18,3.57,3.57,0,0,1,1.25.18v18.4Z"/><path class="cls-1" d="M104.46,268.33a3.91,3.91,0,0,1-1.3.18,3.56,3.56,0,0,1-1.3-.18V266a3.57,3.57,0,0,1,1.3-.17,3.92,3.92,0,0,1,1.3.17v2.35Zm0,15.5a3.59,3.59,0,0,1-1.25.17,3.26,3.26,0,0,1-1.25-.17V271a3.25,3.25,0,0,1,1.25-.18,3.58,3.58,0,0,1,1.25.18v12.8Z"/><path class="cls-1" d="M118.78,270.6a3,3,0,0,1,0,2l-2.07-.1a4.57,4.57,0,0,1,.7,2.62c0,2.8-1.67,4.5-4.9,4.5a7.32,7.32,0,0,1-1.1-.08,2.2,2.2,0,0,0-.47,1.45c0.27,2.3,7.82-.15,7.82,5,0,2.45-2.37,4.27-6.42,4.27-3.75,0-5.32-1.47-5.32-3.47a4.23,4.23,0,0,1,2.22-3.45,2,2,0,0,1-.55-1.45,4.5,4.5,0,0,1,1.2-2.77,4.07,4.07,0,0,1-2.27-4c0-2.8,1.7-4.5,4.9-4.5a6,6,0,0,1,2.77.57Zm-8.2,13.4a3,3,0,0,0-1.15,2.27c0,1.25.92,2.2,3,2.2,2.57,0,4-.92,4-2.25C116.38,284.17,112.84,284.7,110.59,284Zm1.92-11.65c-1.5,0-2.52.87-2.52,2.75s1,2.72,2.52,2.72,2.5-.85,2.5-2.72S114,272.35,112.51,272.35Z"/><path class="cls-1" d="M124.74,279.28c0,2.27.72,2.95,2.5,2.95a6.84,6.84,0,0,0,1-.1,2.87,2.87,0,0,1,.18,1,2.73,2.73,0,0,1-.12.9,7.2,7.2,0,0,1-1.8.23c-3.07,0-4.3-1.67-4.3-4.85v-6.67h-1.92a2.54,2.54,0,0,1-.15-0.92,2.45,2.45,0,0,1,.15-0.95h1.92v-2.27a4.25,4.25,0,0,1,2.5-.5v2.77H128a2.39,2.39,0,0,1,.15.92,2.78,2.78,0,0,1-.15.95h-3.25v6.55Z"/><path class="cls-1" d="M27.79,296a2.79,2.79,0,0,1,0,2.07h-7.6v5.8h6.35a3.25,3.25,0,0,1,.2,1,3,3,0,0,1-.2,1H20.19v6H28a3.4,3.4,0,0,1,.2,1A3.15,3.15,0,0,1,28,314H17.64V296H27.79Z"/><path class="cls-1" d="M36.69,300.63a3.94,3.94,0,0,1,2.17.62,2.83,2.83,0,0,1-1.1,2.1,2.52,2.52,0,0,0-1.55-.53,3.24,3.24,0,0,0-2.57,1.9v9.1a3.59,3.59,0,0,1-1.25.17,3.25,3.25,0,0,1-1.25-.17V301a3.24,3.24,0,0,1,1.25-.18,3.58,3.58,0,0,1,1.25.18v1.72C34.59,301.18,35.69,300.63,36.69,300.63Z"/><path class="cls-1" d="M43.49,302.23a4,4,0,0,1,3.6-1.62c2.85,0,4.7,1.72,4.7,6.82s-1.85,6.82-4.7,6.82a4,4,0,0,1-3.6-1.62v1.2a3.66,3.66,0,0,1-1.27.17,3.34,3.34,0,0,1-1.22-.17v-18.4a3.34,3.34,0,0,1,1.22-.18,3.65,3.65,0,0,1,1.27.18v6.8Zm2.72,0.42c-1.75,0-2.72,1.45-2.72,3.15V309c0,1.72,1,3.2,2.72,3.2,2,0,3-1,3-4.77S48.21,302.65,46.21,302.65Z"/><path class="cls-1" d="M54.94,301a3.25,3.25,0,0,1,1.25-.18,3.58,3.58,0,0,1,1.25.18V316.2c0,2.65-1.27,4-3.62,4a5.41,5.41,0,0,1-1.67-.22,2.21,2.21,0,0,1-.08-0.58,2.57,2.57,0,0,1,.25-1.27,4.24,4.24,0,0,0,.92.1c1.13,0,1.7-.6,1.7-2V301Zm2.55-2.72a3.91,3.91,0,0,1-1.3.18,3.56,3.56,0,0,1-1.3-.18V296a3.56,3.56,0,0,1,1.3-.18,3.91,3.91,0,0,1,1.3.18v2.35Z"/><path class="cls-1" d="M61,301a3.58,3.58,0,0,1,1.25-.18,3.41,3.41,0,0,1,1.25.18v9a2,2,0,0,0,2.32,2.2,3.39,3.39,0,0,0,2.82-1.6V301a3.75,3.75,0,0,1,1.25-.18,3.25,3.25,0,0,1,1.25.18v12.8a3.26,3.26,0,0,1-1.25.17,3.76,3.76,0,0,1-1.25-.17v-1.15a4.88,4.88,0,0,1-3.77,1.58A3.53,3.53,0,0,1,61,310.48V301Z"/><path class="cls-1" d="M83.86,295.25a3.34,3.34,0,0,1,1.23.18v18.4a3,3,0,0,1-1,.17,3.78,3.78,0,0,1-1.12-.17l-0.17-1.35A4.1,4.1,0,0,1,79,314.25c-2.85,0-4.7-1.72-4.7-6.82s1.85-6.82,4.7-6.82a4.06,4.06,0,0,1,3.6,1.62v-6.8A3.65,3.65,0,0,1,83.86,295.25Zm-4,7.4c-2,0-3,1-3,4.77s1,4.77,3,4.77c1.75,0,2.72-1.47,2.72-3.2v-3.22C82.56,304.1,81.58,302.65,79.86,302.65Z"/><path class="cls-1" d="M93.29,300.6c3.62,0,4.77,1.62,4.77,4.85v8.37a2,2,0,0,1-1,.17,2.56,2.56,0,0,1-1-.17l-0.37-1.6c-0.65,1.32-2,2-3.92,2-2.35,0-3.87-1.37-3.87-4.17s1.67-3.92,4.8-3.92a26.72,26.72,0,0,1,2.85.15v-0.92c0-1.7-.65-2.67-2.57-2.67a10.41,10.41,0,0,0-3.35.63,2,2,0,0,1-.58-0.75,2.16,2.16,0,0,1-.15-1A10.86,10.86,0,0,1,93.29,300.6ZM93,307.85c-1.67,0-2.55.65-2.55,2.22a2,2,0,0,0,2.17,2.25c2,0,2.9-1.67,2.9-3.45V308C95,308,94,307.85,93,307.85Z"/><path class="cls-1" d="M111.76,313.83a3.59,3.59,0,0,1-1.25.17,3.42,3.42,0,0,1-1.25-.17v-9a2,2,0,0,0-2.32-2.2,3.42,3.42,0,0,0-2.82,1.6v9.6a3.76,3.76,0,0,1-1.25.17,3.25,3.25,0,0,1-1.25-.17V301a3.24,3.24,0,0,1,1.25-.18,3.75,3.75,0,0,1,1.25.18v1.15a4.84,4.84,0,0,1,3.77-1.57,3.53,3.53,0,0,1,3.87,3.77v9.45Z"/><path class="cls-1" d="M124.36,295.25a3.34,3.34,0,0,1,1.23.18v18.4a3,3,0,0,1-1,.17,3.78,3.78,0,0,1-1.12-.17l-0.17-1.35a4.1,4.1,0,0,1-3.75,1.77c-2.85,0-4.7-1.72-4.7-6.82s1.85-6.82,4.7-6.82a4.06,4.06,0,0,1,3.6,1.62v-6.8A3.65,3.65,0,0,1,124.36,295.25Zm-4,7.4c-2,0-3,1-3,4.77s1,4.77,3,4.77c1.75,0,2.72-1.47,2.72-3.2v-3.22C123.06,304.1,122.08,302.65,120.36,302.65Z"/><path class="cls-1" d="M131.24,308.2c0.2,3,1.4,3.92,3.47,3.92a6.06,6.06,0,0,0,2.95-.72,2.58,2.58,0,0,1,.8,1.8,7.37,7.37,0,0,1-4.15,1c-3.85,0-5.65-2.37-5.65-6.9,0-4.72,2.22-6.75,5.55-6.75,3.07,0,4.95,1.7,4.95,5a10.68,10.68,0,0,1-.27,2.57h-7.65Zm3-5.62c-1.62,0-2.77,1.08-3,3.85h5.35a8.61,8.61,0,0,0,.08-1.12C136.66,303.83,136.06,302.58,134.21,302.58Z"/><path class="cls-1" d="M142.26,296.18a3.73,3.73,0,0,1,1.35-.17,4.09,4.09,0,0,1,1.35.17l-0.42,13a1.83,1.83,0,0,1-.9.2,2,2,0,0,1-.95-0.2Zm2.62,17.65a3.66,3.66,0,0,1-1.27.17,3.33,3.33,0,0,1-1.27-.17v-2.35a3.33,3.33,0,0,1,1.27-.17,3.66,3.66,0,0,1,1.27.17v2.35Z"/></svg>