<?xml version="1.0" encoding="utf-8"?>
<!-- Generator: Adobe Illustrator 19.2.0, SVG Export Plug-In . SVG Version: 6.00 Build 0)  -->
<svg version="1.1" id="Layer_1" xmlns="http://www.w3.org/2000/svg" xmlns:xlink="http://www.w3.org/1999/xlink" x="0px" y="0px"
	 viewBox="0 0 160 600" style="enable-background:new 0 0 160 600;" xml:space="preserve">
<style type="text/css">
	.st0{fill:#00AADD;}
	.st1{fill:#FFFFFF;}
	.st2{fill:#EF2626;}
</style>
<g>
	<path class="st0" d="M-673.8,266c0,0,0.2,0.4,0.2,1.1c0,0.6-0.2,1.1-0.2,1.1h-4.6v15.6c0,0-0.5,0.2-1.3,0.2c-0.9,0-1.3-0.2-1.3-0.2
		v-15.6h-4.8c0,0-0.2-0.4-0.2-1.1c0-0.6,0.2-1.1,0.2-1.1H-673.8z"/>
	<path class="st0" d="M-668.7,268.3c0,0-0.4,0.2-1.3,0.2c-0.9,0-1.3-0.2-1.3-0.2V266c0,0,0.4-0.2,1.3-0.2c0.9,0,1.3,0.2,1.3,0.2
		V268.3z M-668.7,283.8c0,0-0.4,0.2-1.3,0.2c-0.9,0-1.2-0.2-1.2-0.2V271c0,0,0.4-0.2,1.2-0.2c0.8,0,1.3,0.2,1.3,0.2V283.8z"/>
	<path class="st0" d="M-662.4,283.8c0,0-0.4,0.2-1.3,0.2c-0.9,0-1.3-0.2-1.3-0.2v-18.4c0,0,0.4-0.2,1.3-0.2c0.8,0,1.3,0.2,1.3,0.2
		V283.8z"/>
	<path class="st0" d="M-656.1,283.8c0,0-0.4,0.2-1.3,0.2c-0.9,0-1.3-0.2-1.3-0.2v-18.4c0,0,0.4-0.2,1.3-0.2c0.8,0,1.3,0.2,1.3,0.2
		V283.8z"/>
	<path class="st0" d="M-647.5,265.3c1.7,0,2.7,0.5,2.7,0.5c0,0.7-0.2,1.3-0.6,1.7c0,0-0.8-0.3-1.9-0.3c-1.4,0-1.8,0.6-1.8,2v1.6h3.1
		c0.1,0.3,0.1,0.6,0.1,1c0,0.3,0,0.6-0.1,0.9h-3.1v11.1c0,0-0.4,0.2-1.3,0.2c-0.9,0-1.2-0.2-1.2-0.2v-11.1h-1.6
		c-0.1-0.3-0.1-0.6-0.1-0.9c0-0.4,0-0.7,0.1-0.9h1.6v-1.5C-651.7,266.9-650.7,265.3-647.5,265.3z"/>
	<path class="st0" d="M-639.1,270.6c3.6,0,4.8,1.6,4.8,4.8v8.4c0,0-0.3,0.2-1,0.2c-0.6,0-1-0.2-1-0.2l-0.4-1.6c-0.6,1.3-2,2-3.9,2
		c-2.3,0-3.9-1.4-3.9-4.2c0-2.7,1.7-3.9,4.8-3.9c1.1,0,2.2,0.1,2.8,0.1v-1.1c0-1.6-0.7-2.5-2.6-2.5c-1.8,0-3.3,0.6-3.3,0.6
		c0,0-0.3-0.2-0.6-0.8c-0.2-0.5-0.1-1-0.1-1C-643.4,271.5-641.6,270.6-639.1,270.6z M-641.1,266.2c0.8,0,1.1,0.1,1.1,0.1v2
		c0,0-0.4,0.1-1.1,0.1c-0.8,0-1.1-0.1-1.1-0.1v-2C-642.2,266.4-641.8,266.2-641.1,266.2z M-639.3,277.9c-1.7,0-2.5,0.7-2.5,2.2
		c0,1.6,0.8,2.2,2.2,2.2c2,0,2.9-1.7,2.9-3.4V278C-637.4,278-638.4,277.9-639.3,277.9z M-636.8,266.2c0.8,0,1.1,0.1,1.1,0.1v2
		c0,0-0.4,0.1-1.1,0.1c-0.8,0-1.1-0.1-1.1-0.1v-2C-638,266.4-637.6,266.2-636.8,266.2z"/>
	<path class="st0" d="M-628.2,283.8c0,0-0.4,0.2-1.3,0.2c-0.9,0-1.3-0.2-1.3-0.2v-18.4c0,0,0.4-0.2,1.3-0.2c0.8,0,1.3,0.2,1.3,0.2
		V283.8z"/>
	<path class="st0" d="M-621.9,283.8c0,0-0.4,0.2-1.3,0.2c-0.9,0-1.3-0.2-1.3-0.2v-18.4c0,0,0.4-0.2,1.3-0.2c0.8,0,1.3,0.2,1.3,0.2
		V283.8z"/>
	<path class="st0" d="M-615.5,268.3c0,0-0.4,0.2-1.3,0.2c-0.9,0-1.3-0.2-1.3-0.2V266c0,0,0.4-0.2,1.3-0.2c0.9,0,1.3,0.2,1.3,0.2
		V268.3z M-615.6,283.8c0,0-0.4,0.2-1.3,0.2c-0.9,0-1.2-0.2-1.2-0.2V271c0,0,0.4-0.2,1.2-0.2c0.8,0,1.3,0.2,1.3,0.2V283.8z"/>
	<path class="st0" d="M-601.2,270.6c0.2,0.5,0.2,1.4,0,2l-2.1-0.1c0.5,0.7,0.7,1.6,0.7,2.6c0,2.8-1.7,4.5-4.9,4.5
		c-0.4,0-0.8,0-1.1-0.1c-0.3,0.4-0.5,0.9-0.5,1.4c0.3,2.3,7.8-0.1,7.8,5c0,2.4-2.4,4.3-6.4,4.3c-3.7,0-5.3-1.5-5.3-3.5
		c0-1.9,1.5-3,2.2-3.4c-0.3-0.4-0.5-0.8-0.5-1.4c0-1.1,0.6-2.1,1.2-2.8c-1.5-0.7-2.3-2.1-2.3-4c0-2.8,1.7-4.5,4.9-4.5
		c1.1,0,2,0.2,2.8,0.6L-601.2,270.6z M-609.4,284c-0.6,0.5-1.1,1.3-1.1,2.3c0,1.2,0.9,2.2,3,2.2c2.6,0,4-0.9,4-2.2
		C-603.6,284.2-607.2,284.7-609.4,284z M-607.5,272.4c-1.5,0-2.5,0.9-2.5,2.7s1,2.7,2.5,2.7s2.5-0.9,2.5-2.7S-606,272.4-607.5,272.4
		z"/>
	<path class="st0" d="M-595.3,279.3c0,2.3,0.7,2.9,2.5,2.9c0.5,0,1-0.1,1-0.1s0.2,0.4,0.2,1c0,0.6-0.1,0.9-0.1,0.9
		c-0.5,0.1-1.1,0.2-1.8,0.2c-3.1,0-4.3-1.7-4.3-4.8v-6.7h-1.9c0,0-0.2-0.3-0.2-0.9c0-0.6,0.2-0.9,0.2-0.9h1.9v-2.3
		c0.7-0.4,1.6-0.6,2.5-0.5v2.8h3.2c0,0,0.1,0.3,0.1,0.9c0,0.6-0.1,0.9-0.1,0.9h-3.2V279.3z"/>
	<path class="st0" d="M-692.2,296c0.1,0.3,0.2,0.6,0.2,1c0,0.4-0.1,0.8-0.2,1.1h-7.6v5.8h6.3c0.1,0.3,0.2,0.7,0.2,1s-0.1,0.7-0.2,1
		h-6.3v6h7.8c0.1,0.3,0.2,0.7,0.2,1c0,0.4-0.1,0.7-0.2,1.1h-10.4v-18H-692.2z"/>
	<path class="st0" d="M-683.3,300.6c0.9,0,1.6,0.3,2.2,0.6c-0.1,0.9-0.4,1.5-1.1,2.1c-0.5-0.3-1-0.5-1.5-0.5c-1,0-1.9,0.8-2.6,1.9
		v9.1c0,0-0.4,0.2-1.3,0.2c-0.9,0-1.2-0.2-1.2-0.2V301c0,0,0.4-0.2,1.2-0.2c0.8,0,1.3,0.2,1.3,0.2v1.7
		C-685.4,301.2-684.3,300.6-683.3,300.6z"/>
	<path class="st0" d="M-676.5,302.2c0.7-1,1.8-1.6,3.6-1.6c2.8,0,4.7,1.7,4.7,6.8c0,5.1-1.8,6.8-4.7,6.8c-1.8,0-2.9-0.6-3.6-1.6v1.2
		c0,0-0.4,0.2-1.3,0.2c-0.8,0-1.2-0.2-1.2-0.2v-18.4c0,0,0.4-0.2,1.2-0.2c0.8,0,1.3,0.2,1.3,0.2V302.2z M-673.8,302.7
		c-1.7,0-2.7,1.5-2.7,3.1v3.2c0,1.7,1,3.2,2.7,3.2c2,0,3-1,3-4.8C-670.8,303.7-671.8,302.7-673.8,302.7z"/>
	<path class="st0" d="M-665.1,301c0,0,0.4-0.2,1.2-0.2c0.8,0,1.3,0.2,1.3,0.2v15.2c0,2.6-1.3,4-3.6,4c-1,0-1.7-0.2-1.7-0.2
		s-0.1-0.3-0.1-0.6c0-0.9,0.3-1.3,0.3-1.3s0.4,0.1,0.9,0.1c1.1,0,1.7-0.6,1.7-2V301z M-662.5,298.3c0,0-0.4,0.2-1.3,0.2
		c-0.9,0-1.3-0.2-1.3-0.2V296c0,0,0.4-0.2,1.3-0.2c0.9,0,1.3,0.2,1.3,0.2V298.3z"/>
	<path class="st0" d="M-659,301c0,0,0.4-0.2,1.3-0.2c0.8,0,1.3,0.2,1.3,0.2v9c0,1.4,0.7,2.2,2.3,2.2c1.1,0,2.1-0.6,2.8-1.6V301
		c0,0,0.5-0.2,1.3-0.2c0.9,0,1.2,0.2,1.2,0.2v12.8c0,0-0.4,0.2-1.2,0.2c-0.8,0-1.3-0.2-1.3-0.2v-1.2c-0.9,1-2.2,1.6-3.8,1.6
		c-2.5,0-3.9-1.5-3.9-3.8V301z"/>
	<path class="st0" d="M-636.1,295.3c0.8,0,1.2,0.2,1.2,0.2v18.4c0,0-0.4,0.2-1,0.2c-0.6,0-1.1-0.2-1.1-0.2l-0.2-1.3
		c-0.7,1.1-1.9,1.8-3.7,1.8c-2.8,0-4.7-1.7-4.7-6.8c0-5.1,1.8-6.8,4.7-6.8c1.7,0,2.9,0.6,3.6,1.6v-6.8
		C-637.4,295.4-637,295.3-636.1,295.3z M-640.1,302.7c-2,0-3,1-3,4.8c0,3.7,1,4.8,3,4.8c1.8,0,2.7-1.5,2.7-3.2v-3.2
		C-637.4,304.1-638.4,302.7-640.1,302.7z"/>
	<path class="st0" d="M-626.7,300.6c3.6,0,4.8,1.6,4.8,4.8v8.4c0,0-0.3,0.2-1,0.2c-0.6,0-1-0.2-1-0.2l-0.4-1.6c-0.6,1.3-2,2-3.9,2
		c-2.3,0-3.9-1.4-3.9-4.2c0-2.7,1.7-3.9,4.8-3.9c1.1,0,2.2,0.1,2.8,0.2v-0.9c0-1.7-0.7-2.7-2.6-2.7c-1.8,0-3.3,0.6-3.3,0.6
		c0,0-0.3-0.2-0.6-0.8c-0.2-0.5-0.1-1-0.1-1C-631.1,301.5-629.2,300.6-626.7,300.6z M-627,307.9c-1.7,0-2.5,0.6-2.5,2.2
		c0,1.6,0.8,2.2,2.2,2.2c2,0,2.9-1.7,2.9-3.4V308C-625,308-626,307.9-627,307.9z"/>
	<path class="st0" d="M-608.2,313.8c0,0-0.4,0.2-1.3,0.2c-0.8,0-1.3-0.2-1.3-0.2v-9c0-1.4-0.7-2.2-2.3-2.2c-1.1,0-2.2,0.6-2.8,1.6
		v9.6c0,0-0.5,0.2-1.3,0.2c-0.9,0-1.2-0.2-1.2-0.2V301c0,0,0.4-0.2,1.2-0.2c0.8,0,1.3,0.2,1.3,0.2v1.1c0.9-1,2.2-1.6,3.8-1.6
		c2.5,0,3.9,1.5,3.9,3.8V313.8z"/>
	<path class="st0" d="M-595.6,295.3c0.8,0,1.2,0.2,1.2,0.2v18.4c0,0-0.4,0.2-1,0.2c-0.6,0-1.1-0.2-1.1-0.2l-0.2-1.3
		c-0.7,1.1-1.9,1.8-3.7,1.8c-2.8,0-4.7-1.7-4.7-6.8c0-5.1,1.8-6.8,4.7-6.8c1.7,0,2.9,0.6,3.6,1.6v-6.8
		C-596.9,295.4-596.5,295.3-595.6,295.3z M-599.6,302.7c-2,0-3,1-3,4.8c0,3.7,1,4.8,3,4.8c1.8,0,2.7-1.5,2.7-3.2v-3.2
		C-596.9,304.1-597.9,302.7-599.6,302.7z"/>
	<path class="st0" d="M-588.8,308.2c0.2,3,1.4,3.9,3.5,3.9c1.8,0,2.9-0.7,2.9-0.7c0.4,0.4,0.8,1.1,0.8,1.8c0,0-1.4,1-4.1,1
		c-3.8,0-5.6-2.4-5.6-6.9c0-4.7,2.2-6.7,5.5-6.7c3.1,0,4.9,1.7,4.9,5c0,1.6-0.3,2.6-0.3,2.6H-588.8z M-585.8,302.6
		c-1.6,0-2.8,1.1-3,3.8h5.3c0-0.2,0.1-0.6,0.1-1.1C-583.3,303.8-583.9,302.6-585.8,302.6z"/>
	<path class="st0" d="M-577.7,296.2c0,0,0.4-0.2,1.3-0.2c0.9,0,1.3,0.2,1.3,0.2l-0.4,13c0,0-0.3,0.2-0.9,0.2c-0.6,0-0.9-0.2-0.9-0.2
		L-577.7,296.2z M-575.1,313.8c0,0-0.4,0.2-1.3,0.2c-0.9,0-1.3-0.2-1.3-0.2v-2.3c0,0,0.4-0.2,1.3-0.2c0.8,0,1.3,0.2,1.3,0.2V313.8z"
		/>
</g>
<g>
	<path class="st0" d="M-516.1,271c0.8,0,1.3,0.2,1.3,0.2l5.5,15.5c0,0-0.4,0.2-1.2,0.2c-0.7,0-1.1-0.2-1.1-0.2l-1.4-3.9h-6.5
		l-1.4,3.9c0,0-0.4,0.2-1.1,0.2c-0.7,0-1-0.2-1-0.2l5.5-15.5C-517.5,271.1-516.9,271-516.1,271z M-516.3,273.4c0,0-0.2,0.9-0.6,2
		l-2,5.6h5.2l-2-5.6C-516,274.3-516.2,273.4-516.3,273.4L-516.3,273.4z"/>
	<path class="st0" d="M-501.6,270.8c2.4,0,3.8,0.7,3.8,0.7c0,0.7-0.3,1.2-0.7,1.7c0,0-1.3-0.5-2.8-0.5c-2.6,0-4.3,1.3-4.3,6.2
		s1.8,6.2,4.3,6.2c1.7,0,3.1-0.5,3.1-0.5c0.4,0.4,0.7,1.1,0.7,1.7c0,0-1.4,0.7-4,0.7c-4.2,0-6.4-2.8-6.4-8.1
		C-508,273.6-505.8,270.8-501.6,270.8z"/>
	<path class="st0" d="M-485,275c2.5,0,4.1,1.5,4.1,6c0,4.5-1.6,6-4.1,6c-1.6,0-2.6-0.5-3.2-1.4v6.2c0,0-0.4,0.1-1.1,0.1
		c-0.7,0-1.1-0.1-1.1-0.1v-16.4c0,0,0.4-0.2,1.1-0.2c0.7,0,1.1,0.2,1.1,0.2v1.1C-487.6,275.6-486.6,275-485,275z M-485.8,276.8
		c-1.5,0-2.4,1.3-2.4,2.8v2.8c0,1.5,0.9,2.8,2.4,2.8c1.8,0,2.6-0.9,2.6-4.2C-483.1,277.8-484,276.8-485.8,276.8z"/>
	<path class="st0" d="M-474.1,275c3.2,0,4.2,1.4,4.2,4.3v7.4c0,0-0.2,0.2-0.9,0.2c-0.5,0-0.9-0.2-0.9-0.2l-0.3-1.4
		c-0.6,1.2-1.8,1.8-3.5,1.8c-2.1,0-3.4-1.2-3.4-3.7c0-2.4,1.5-3.5,4.2-3.5c1,0,1.9,0.1,2.5,0.1v-0.9c0-1.5-0.6-2.3-2.3-2.3
		c-1.5,0-2.9,0.5-2.9,0.5c0,0-0.3-0.2-0.5-0.7c-0.2-0.5-0.1-0.9-0.1-0.9C-478,275.9-476.3,275-474.1,275z M-474,269.3
		c1.3,0,2.6,0.8,2.6,2.3c0,1.5-1.2,2.4-2.6,2.4c-1.5,0-2.6-0.9-2.6-2.4C-476.6,270.1-475.4,269.3-474,269.3z M-474.3,281.4
		c-1.5,0-2.2,0.6-2.2,2c0,1.4,0.7,2,1.9,2c1.7,0,2.6-1.5,2.6-3v-0.8C-472.6,281.5-473.5,281.4-474.3,281.4z M-474.1,270.4
		c-0.8,0-1.3,0.6-1.3,1.2c0,0.6,0.4,1.2,1.3,1.2c0.9,0,1.3-0.6,1.3-1.2C-472.8,271-473.2,270.4-474.1,270.4z"/>
	<path class="st0" d="M-462.5,270.3c1.5,0,2.4,0.5,2.4,0.5c0,0.6-0.2,1.1-0.6,1.5c0,0-0.7-0.2-1.7-0.2c-1.3,0-1.6,0.6-1.6,1.7v1.4
		h2.8c0.1,0.2,0.1,0.5,0.1,0.9c0,0.3,0,0.5-0.1,0.8h-2.8v9.8c0,0-0.4,0.2-1.1,0.2c-0.8,0-1.1-0.2-1.1-0.2v-9.8h-1.5
		c0-0.2-0.1-0.5-0.1-0.8c0-0.3,0-0.6,0.1-0.8h1.5v-1.3C-466.2,271.8-465.3,270.3-462.5,270.3z"/>
	<path class="st0" d="M-453.8,288.5c-0.8,2.4-1.6,3.8-3.9,3.8c-0.7,0-1.2-0.2-1.2-0.2c0,0-0.2-0.4-0.2-0.8c0-0.5,0.2-0.9,0.2-0.9
		c0,0,0.5,0.1,1,0.1c1,0,1.5-0.3,2.2-2.3l0.5-1.3c-0.2,0-0.5,0-0.7-0.2l-4.2-11.3c0,0,0.4-0.2,1.1-0.2c0.7,0,1.1,0.2,1.1,0.2
		l2.5,6.7c0.5,1.5,0.8,2.6,0.8,2.6h0.1c0,0,0.2-1,0.7-2.6l2.2-6.7c0,0,0.4-0.2,1.1-0.2c0.6,0,1,0.2,1,0.2L-453.8,288.5z"/>
	<path class="st0" d="M-445.2,286.7c0,0-0.4,0.2-1.1,0.2c-0.8,0-1.1-0.2-1.1-0.2v-16.2c0,0,0.3-0.2,1.1-0.2c0.7,0,1.1,0.2,1.1,0.2
		V286.7z"/>
	<path class="st0" d="M-439.7,286.7c0,0-0.4,0.2-1.1,0.2c-0.8,0-1.1-0.2-1.1-0.2v-16.2c0,0,0.3-0.2,1.1-0.2c0.7,0,1.1,0.2,1.1,0.2
		V286.7z"/>
	<path class="st0" d="M-427.5,286.7c0,0-0.4,0.2-1.1,0.2c-0.7,0-1.1-0.2-1.1-0.2v-7.9c0-1.2-0.6-1.9-2-1.9c-1,0-1.9,0.5-2.5,1.4v8.4
		c0,0-0.4,0.2-1.1,0.2c-0.8,0-1.1-0.2-1.1-0.2v-11.3c0,0,0.3-0.2,1.1-0.2c0.7,0,1.1,0.2,1.1,0.2v1c0.8-0.9,1.9-1.4,3.3-1.4
		c2.2,0,3.4,1.3,3.4,3.3V286.7z"/>
	<path class="st0" d="M-422,273c0,0-0.4,0.2-1.1,0.2c-0.8,0-1.1-0.2-1.1-0.2V271c0,0,0.4-0.2,1.1-0.2c0.7,0,1.1,0.2,1.1,0.2V273z
		 M-422.1,286.7c0,0-0.4,0.2-1.1,0.2c-0.8,0-1.1-0.2-1.1-0.2v-11.3c0,0,0.3-0.2,1.1-0.2c0.7,0,1.1,0.2,1.1,0.2V286.7z"/>
	<path class="st0" d="M-409.9,286.7c0,0-0.4,0.2-1.1,0.2c-0.7,0-1.1-0.2-1.1-0.2v-7.9c0-1.2-0.6-1.9-2-1.9c-1,0-1.9,0.5-2.5,1.4v8.4
		c0,0-0.4,0.2-1.1,0.2c-0.8,0-1.1-0.2-1.1-0.2v-11.3c0,0,0.3-0.2,1.1-0.2c0.7,0,1.1,0.2,1.1,0.2v1c0.8-0.9,1.9-1.4,3.3-1.4
		c2.2,0,3.4,1.3,3.4,3.3V286.7z"/>
	<path class="st0" d="M-397.3,275c0.2,0.5,0.2,1.3,0,1.7l-1.8-0.1c0.4,0.6,0.6,1.4,0.6,2.3c0,2.5-1.5,4-4.3,4c-0.4,0-0.7,0-1-0.1
		c-0.2,0.3-0.5,0.8-0.4,1.3c0.2,2,6.9-0.1,6.9,4.4c0,2.2-2.1,3.8-5.7,3.8c-3.3,0-4.7-1.3-4.7-3.1c0-1.7,1.4-2.7,2-3
		c-0.3-0.3-0.5-0.7-0.5-1.3c0-1,0.6-1.8,1.1-2.4c-1.3-0.6-2-1.8-2-3.5c0-2.5,1.5-4,4.3-4c1,0,1.8,0.2,2.4,0.5L-397.3,275z
		 M-404.6,286.8c-0.6,0.4-1,1.2-1,2c0,1.1,0.8,1.9,2.6,1.9c2.3,0,3.5-0.8,3.5-2C-399.5,287-402.6,287.5-404.6,286.8z M-402.9,276.6
		c-1.3,0-2.2,0.8-2.2,2.4c0,1.6,0.9,2.4,2.2,2.4c1.3,0,2.2-0.7,2.2-2.4C-400.7,277.4-401.5,276.6-402.9,276.6z"/>
	<path class="st0" d="M-509.2,296.9c0,0,0.4-0.2,1.1-0.2c0.7,0,1.1,0.2,1.1,0.2l-7.3,17.2c0,0-0.4,0.2-1.1,0.2s-1.1-0.2-1.1-0.2
		L-509.2,296.9z"/>
	<path class="st0" d="M-494.9,297.4c0.8,0,1.3,0.2,1.3,0.2l5.5,15.5c0,0-0.4,0.2-1.2,0.2c-0.7,0-1.1-0.2-1.1-0.2l-1.4-3.9h-6.5
		l-1.4,3.9c0,0-0.4,0.2-1.1,0.2c-0.7,0-1-0.2-1-0.2l5.5-15.5C-496.3,297.5-495.7,297.4-494.9,297.4z M-495.1,299.8
		c0,0-0.2,0.9-0.6,2l-2,5.6h5.2l-2-5.6C-494.8,300.7-495,299.8-495.1,299.8L-495.1,299.8z"/>
	<path class="st0" d="M-480.4,297.2c2.4,0,3.8,0.7,3.8,0.7c0,0.7-0.3,1.2-0.7,1.7c0,0-1.3-0.5-2.8-0.5c-2.6,0-4.3,1.3-4.3,6.2
		c0,4.9,1.8,6.2,4.3,6.2c1.7,0,3.1-0.5,3.1-0.5c0.4,0.4,0.7,1.1,0.7,1.7c0,0-1.4,0.7-4,0.7c-4.2,0-6.4-2.8-6.4-8.1
		C-486.8,300-484.7,297.2-480.4,297.2z"/>
	<path class="st0" d="M-465.6,301.4c2.2,0,3.1,0.6,3.1,0.6c0,0.6-0.2,1.2-0.6,1.6c0,0-1.1-0.4-2.3-0.4c-1.5,0-2.2,0.5-2.2,1.6
		c0,1.1,1.4,1.3,2.8,1.8c1.4,0.5,2.9,1.1,2.9,3.3c0,2.2-1.4,3.5-4.2,3.5c-2.3,0-3.7-0.8-3.7-0.8c0-0.6,0.2-1.3,0.6-1.6
		c0,0,1.4,0.5,3,0.5c1.3,0,2.1-0.5,2.1-1.6c0-1.2-1.2-1.5-2.5-1.8c-1.5-0.4-3.1-1.1-3.1-3.3C-469.7,302.8-468.3,301.4-465.6,301.4z"
		/>
	<path class="st0" d="M-457.6,308.1c0.2,2.6,1.2,3.5,3.1,3.5c1.6,0,2.6-0.6,2.6-0.6c0.4,0.4,0.7,0.9,0.7,1.6c0,0-1.3,0.9-3.7,0.9
		c-3.4,0-5-2.1-5-6.1c0-4.2,2-5.9,4.9-5.9c2.7,0,4.4,1.5,4.4,4.4c0,1.4-0.2,2.3-0.2,2.3H-457.6z M-455,303.2c-1.4,0-2.4,0.9-2.6,3.4
		h4.7c0-0.2,0.1-0.5,0.1-1C-452.8,304.3-453.4,303.2-455,303.2z"/>
	<path class="st0" d="M-443.2,301.5c0.8,0,1.4,0.2,1.9,0.5c-0.1,0.8-0.4,1.4-1,1.8c-0.4-0.3-0.9-0.5-1.4-0.5c-0.9,0-1.7,0.7-2.3,1.7
		v8c0,0-0.4,0.2-1.1,0.2c-0.8,0-1.1-0.2-1.1-0.2v-11.3c0,0,0.3-0.2,1.1-0.2c0.7,0,1.1,0.2,1.1,0.2v1.5
		C-445,302-444.1,301.5-443.2,301.5z"/>
	<path class="st0" d="M-435.9,308.8c0.4,1.2,0.6,2.4,0.6,2.4h0.1c0,0,0.3-1.1,0.7-2.4l2.4-6.9c0,0,0.4-0.2,1-0.2c0.7,0,1,0.2,1,0.2
		l-3.9,11.3c0,0-0.6,0.2-1.3,0.2c-0.8,0-1.3-0.2-1.3-0.2l-4-11.3c0,0,0.4-0.2,1.1-0.2c0.8,0,1.1,0.2,1.1,0.2L-435.9,308.8z"/>
	<path class="st0" d="M-425.8,299.4c0,0-0.4,0.2-1.1,0.2c-0.8,0-1.1-0.2-1.1-0.2v-2.1c0,0,0.4-0.2,1.1-0.2c0.7,0,1.1,0.2,1.1,0.2
		V299.4z M-425.8,313.1c0,0-0.4,0.2-1.1,0.2c-0.8,0-1.1-0.2-1.1-0.2v-11.3c0,0,0.3-0.2,1.1-0.2c0.7,0,1.1,0.2,1.1,0.2V313.1z"/>
	<path class="st0" d="M-420.8,307.5c0,2.9,0.9,4.1,3,4.1c1.2,0,2.1-0.4,2.1-0.4c0.4,0.3,0.6,1,0.6,1.6c0,0-1,0.7-3.2,0.7
		c-3.2,0-4.8-2.1-4.8-6c0-3.9,1.6-6,4.8-6c2.1,0,2.9,0.5,2.9,0.5c0,0.6-0.2,1.2-0.6,1.6c0,0-0.8-0.3-1.9-0.3
		C-419.9,303.2-420.8,304.6-420.8,307.5z"/>
	<path class="st0" d="M-411,308.1c0.2,2.6,1.2,3.5,3.1,3.5c1.6,0,2.6-0.6,2.6-0.6c0.4,0.4,0.7,0.9,0.7,1.6c0,0-1.3,0.9-3.7,0.9
		c-3.4,0-5-2.1-5-6.1c0-4.2,2-5.9,4.9-5.9c2.7,0,4.4,1.5,4.4,4.4c0,1.4-0.2,2.3-0.2,2.3H-411z M-408.3,303.2c-1.4,0-2.4,0.9-2.6,3.4
		h4.7c0-0.2,0.1-0.5,0.1-1C-406.2,304.3-406.7,303.2-408.3,303.2z"/>
</g>
<g>
	<path class="st0" d="M-157,587.1c-0.2-0.7-0.3-1.1-0.3-1.4h0c0,0.3-0.1,0.8-0.3,1.4l-0.8,2.7c-0.2,0-0.3,0.1-0.6,0.1
		c-0.2,0-0.4,0-0.6-0.1l-1.5-5.1c0,0,0.2-0.1,0.5-0.1c0.3,0,0.4,0.1,0.4,0.1l0.9,3.2c0.1,0.4,0.2,0.8,0.2,1h0c0-0.2,0.1-0.5,0.2-1
		l0.9-3.2c0,0,0.2-0.1,0.5-0.1c0.3,0,0.5,0.1,0.5,0.1l0.9,3.2c0.1,0.4,0.2,0.8,0.2,1h0c0-0.2,0.1-0.5,0.3-1l0.9-3.2
		c0,0,0.2-0.1,0.4-0.1c0.3,0,0.4,0.1,0.4,0.1l-1.5,5.1c-0.2,0-0.4,0.1-0.6,0.1c-0.2,0-0.4,0-0.6-0.1L-157,587.1z"/>
	<path class="st0" d="M-149,587.1c-0.2-0.7-0.3-1.1-0.3-1.4h0c0,0.3-0.1,0.8-0.3,1.4l-0.8,2.7c-0.2,0-0.3,0.1-0.6,0.1
		c-0.2,0-0.4,0-0.6-0.1l-1.5-5.1c0,0,0.2-0.1,0.5-0.1c0.3,0,0.4,0.1,0.4,0.1l0.9,3.2c0.1,0.4,0.2,0.8,0.2,1h0c0-0.2,0.1-0.5,0.2-1
		l0.9-3.2c0,0,0.2-0.1,0.5-0.1c0.3,0,0.5,0.1,0.5,0.1l0.9,3.2c0.1,0.4,0.2,0.8,0.2,1h0c0-0.2,0.1-0.5,0.3-1l0.9-3.2
		c0,0,0.2-0.1,0.4-0.1c0.3,0,0.4,0.1,0.4,0.1l-1.5,5.1c-0.2,0-0.4,0.1-0.6,0.1c-0.2,0-0.4,0-0.6-0.1L-149,587.1z"/>
	<path class="st0" d="M-141,587.1c-0.2-0.7-0.3-1.1-0.3-1.4h0c0,0.3-0.1,0.8-0.3,1.4l-0.8,2.7c-0.2,0-0.3,0.1-0.6,0.1
		c-0.2,0-0.4,0-0.6-0.1l-1.5-5.1c0,0,0.2-0.1,0.5-0.1c0.3,0,0.4,0.1,0.4,0.1l0.9,3.2c0.1,0.4,0.2,0.8,0.2,1h0c0-0.2,0.1-0.5,0.2-1
		l0.9-3.2c0,0,0.2-0.1,0.5-0.1c0.3,0,0.5,0.1,0.5,0.1l0.9,3.2c0.1,0.4,0.2,0.8,0.2,1h0c0-0.2,0.1-0.5,0.3-1l0.9-3.2
		c0,0,0.2-0.1,0.4-0.1c0.3,0,0.4,0.1,0.4,0.1l-1.5,5.1c-0.2,0-0.4,0.1-0.6,0.1c-0.2,0-0.4,0-0.6-0.1L-141,587.1z"/>
	<path class="st0" d="M-136,589.8c0,0-0.2,0.1-0.5,0.1c-0.4,0-0.5-0.1-0.5-0.1v-0.9c0,0,0.2-0.1,0.5-0.1c0.3,0,0.5,0.1,0.5,0.1
		V589.8z"/>
	<path class="st0" d="M-132.8,584.5c1.4,0,1.9,0.6,1.9,1.9v3.3c0,0-0.1,0.1-0.4,0.1c-0.3,0-0.4-0.1-0.4-0.1l-0.2-0.6
		c-0.3,0.5-0.8,0.8-1.6,0.8c-0.9,0-1.5-0.6-1.5-1.7c0-1.1,0.7-1.6,1.9-1.6c0.5,0,0.9,0,1.1,0.1v-0.4c0-0.7-0.3-1.1-1-1.1
		c-0.7,0-1.3,0.3-1.3,0.3c0,0-0.1-0.1-0.2-0.3c-0.1-0.2-0.1-0.4-0.1-0.4C-134.6,584.9-133.8,584.5-132.8,584.5z M-132.9,587.4
		c-0.7,0-1,0.3-1,0.9c0,0.7,0.3,0.9,0.9,0.9c0.8,0,1.2-0.7,1.2-1.4v-0.3C-132.1,587.4-132.5,587.4-132.9,587.4z"/>
	<path class="st0" d="M-129.5,584.7c0,0,0.2-0.1,0.5-0.1c0.3,0,0.5,0.1,0.5,0.1v3.6c0,0.6,0.3,0.9,0.9,0.9c0.4,0,0.9-0.2,1.1-0.6
		v-3.8c0,0,0.2-0.1,0.5-0.1c0.3,0,0.5,0.1,0.5,0.1v5.1c0,0-0.2,0.1-0.5,0.1c-0.3,0-0.5-0.1-0.5-0.1v-0.5c-0.4,0.4-0.9,0.6-1.5,0.6
		c-1,0-1.5-0.6-1.5-1.5V584.7z"/>
	<path class="st0" d="M-122.7,588c0,0.9,0.3,1.2,1,1.2c0.2,0,0.4,0,0.4,0s0.1,0.2,0.1,0.4s0,0.4,0,0.4c-0.2,0-0.5,0.1-0.7,0.1
		c-1.2,0-1.7-0.7-1.7-1.9v-2.7h-0.8c0,0-0.1-0.1-0.1-0.4c0-0.2,0.1-0.4,0.1-0.4h0.8v-0.9c0.3-0.2,0.6-0.2,1-0.2v1.1h1.3
		c0,0,0.1,0.1,0.1,0.4c0,0.2-0.1,0.4-0.1,0.4h-1.3V588z"/>
	<path class="st0" d="M-118.2,584.5c1.4,0,2.2,0.7,2.2,2.7c0,2-0.8,2.7-2.2,2.7c-1.4,0-2.2-0.8-2.2-2.7
		C-120.4,585.2-119.6,584.5-118.2,584.5z M-118.2,585.3c-0.7,0-1.2,0.4-1.2,2s0.5,2,1.2,2c0.7,0,1.2-0.4,1.2-2
		S-117.5,585.3-118.2,585.3z"/>
	<path class="st0" d="M-113.1,584.5c1,0,1.4,0.3,1.4,0.3c0,0.3-0.1,0.5-0.3,0.7c0,0-0.5-0.2-1-0.2c-0.7,0-1,0.3-1,0.7
		c0,0.5,0.6,0.6,1.3,0.8c0.6,0.2,1.3,0.5,1.3,1.5c0,1-0.6,1.6-1.9,1.6c-1,0-1.7-0.4-1.7-0.4c0-0.3,0.1-0.6,0.3-0.7
		c0,0,0.6,0.3,1.3,0.3c0.6,0,1-0.2,1-0.7c0-0.5-0.5-0.7-1.1-0.8c-0.7-0.2-1.4-0.5-1.4-1.5C-115,585.1-114.4,584.5-113.1,584.5z"/>
	<path class="st0" d="M-109.5,587.5c0.1,1.2,0.6,1.6,1.4,1.6c0.7,0,1.2-0.3,1.2-0.3c0.2,0.2,0.3,0.4,0.3,0.7c0,0-0.6,0.4-1.7,0.4
		c-1.5,0-2.3-1-2.3-2.8c0-1.9,0.9-2.7,2.2-2.7c1.2,0,2,0.7,2,2c0,0.6-0.1,1-0.1,1H-109.5z M-108.3,585.3c-0.6,0-1.1,0.4-1.2,1.5h2.1
		c0-0.1,0-0.2,0-0.4C-107.3,585.8-107.6,585.3-108.3,585.3z"/>
	<path class="st0" d="M-103,584.5c0.4,0,0.6,0.1,0.9,0.3c0,0.4-0.2,0.6-0.4,0.8c-0.2-0.1-0.4-0.2-0.6-0.2c-0.4,0-0.8,0.3-1,0.8v3.6
		c0,0-0.2,0.1-0.5,0.1c-0.4,0-0.5-0.1-0.5-0.1v-5.1c0,0,0.1-0.1,0.5-0.1c0.3,0,0.5,0.1,0.5,0.1v0.7
		C-103.8,584.7-103.4,584.5-103,584.5z"/>
	<path class="st0" d="M-99.7,587.8c0.2,0.6,0.3,1.1,0.3,1.1h0c0,0,0.1-0.5,0.3-1.1l1.1-3.1c0,0,0.2-0.1,0.4-0.1
		c0.3,0,0.5,0.1,0.5,0.1l-1.8,5.1c0,0-0.3,0.1-0.6,0.1c-0.4,0-0.6-0.1-0.6-0.1l-1.8-5.1c0,0,0.2-0.1,0.5-0.1c0.3,0,0.5,0.1,0.5,0.1
		L-99.7,587.8z"/>
	<path class="st0" d="M-95,583.6c0,0-0.2,0.1-0.5,0.1c-0.4,0-0.5-0.1-0.5-0.1v-0.9c0,0,0.2-0.1,0.5-0.1c0.3,0,0.5,0.1,0.5,0.1V583.6
		z M-95.1,589.8c0,0-0.2,0.1-0.5,0.1c-0.3,0-0.5-0.1-0.5-0.1v-5.1c0,0,0.2-0.1,0.5-0.1c0.3,0,0.5,0.1,0.5,0.1V589.8z"/>
	<path class="st0" d="M-92.8,587.2c0,1.3,0.4,1.9,1.4,1.9c0.5,0,0.9-0.2,0.9-0.2c0.2,0.1,0.3,0.4,0.3,0.7c0,0-0.4,0.3-1.4,0.3
		c-1.5,0-2.2-1-2.2-2.7c0-1.8,0.7-2.7,2.2-2.7c1,0,1.3,0.2,1.3,0.2c0,0.3-0.1,0.5-0.3,0.7c0,0-0.4-0.2-0.9-0.2
		C-92.4,585.3-92.8,585.9-92.8,587.2z"/>
	<path class="st0" d="M-88.3,587.5c0.1,1.2,0.6,1.6,1.4,1.6c0.7,0,1.2-0.3,1.2-0.3c0.2,0.2,0.3,0.4,0.3,0.7c0,0-0.6,0.4-1.7,0.4
		c-1.5,0-2.3-1-2.3-2.8c0-1.9,0.9-2.7,2.2-2.7c1.2,0,2,0.7,2,2c0,0.6-0.1,1-0.1,1H-88.3z M-87.1,585.3c-0.6,0-1.1,0.4-1.2,1.5h2.1
		c0-0.1,0-0.2,0-0.4C-86.1,585.8-86.4,585.3-87.1,585.3z"/>
	<path class="st0" d="M-83,585.1c0.3-0.4,0.7-0.6,1.4-0.6c1.1,0,1.9,0.7,1.9,2.7c0,2-0.7,2.7-1.9,2.7c-0.7,0-1.2-0.2-1.4-0.7v0.5
		c0,0-0.2,0.1-0.5,0.1c-0.3,0-0.5-0.1-0.5-0.1v-7.4c0,0,0.2-0.1,0.5-0.1c0.3,0,0.5,0.1,0.5,0.1V585.1z M-81.9,585.3
		c-0.7,0-1.1,0.6-1.1,1.3v1.3c0,0.7,0.4,1.3,1.1,1.3c0.8,0,1.2-0.4,1.2-1.9C-80.7,585.7-81.1,585.3-81.9,585.3z"/>
	<path class="st0" d="M-76.4,584.5c1.4,0,2.2,0.7,2.2,2.7c0,2-0.8,2.7-2.2,2.7c-1.4,0-2.2-0.8-2.2-2.7
		C-78.6,585.2-77.8,584.5-76.4,584.5z M-76.4,585.3c-0.7,0-1.2,0.4-1.2,2s0.5,2,1.2,2c0.7,0,1.2-0.4,1.2-2S-75.7,585.3-76.4,585.3z"
		/>
	<path class="st0" d="M-71.7,588c0,0.9,0.3,1.2,1,1.2c0.2,0,0.4,0,0.4,0s0.1,0.2,0.1,0.4s0,0.4,0,0.4c-0.2,0-0.5,0.1-0.7,0.1
		c-1.2,0-1.7-0.7-1.7-1.9v-2.7h-0.8c0,0-0.1-0.1-0.1-0.4c0-0.2,0.1-0.4,0.1-0.4h0.8v-0.9c0.3-0.2,0.6-0.2,1-0.2v1.1h1.3
		c0,0,0.1,0.1,0.1,0.4c0,0.2-0.1,0.4-0.1,0.4h-1.3V588z"/>
	<path class="st0" d="M-66.3,584.7c0,0,0.2-0.1,0.5-0.1c0.3,0,0.5,0.1,0.5,0.1l-1.5,2.4l1.8,2.7c0,0-0.2,0.1-0.6,0.1
		s-0.5-0.1-0.5-0.1l-1.5-2.3h-0.6v2.3c0,0-0.2,0.1-0.5,0.1c-0.3,0-0.5-0.1-0.5-0.1v-7.4c0,0,0.2,0,0.5,0c0.3,0,0.5,0,0.5,0v4.3h0.6
		L-66.3,584.7z"/>
	<path class="st0" d="M-61.9,590.6c-0.4,1.1-0.7,1.7-1.8,1.7c-0.3,0-0.5-0.1-0.5-0.1c0,0-0.1-0.2-0.1-0.4c0-0.2,0.1-0.4,0.1-0.4
		c0,0,0.2,0,0.4,0c0.5,0,0.7-0.1,1-1.1l0.2-0.6c-0.1,0-0.2,0-0.3-0.1l-1.9-5.1c0,0,0.2-0.1,0.5-0.1c0.3,0,0.5,0.1,0.5,0.1l1.1,3
		c0.3,0.7,0.3,1.2,0.3,1.2h0c0,0,0.1-0.5,0.3-1.2l1-3c0,0,0.2-0.1,0.5-0.1c0.3,0,0.5,0.1,0.5,0.1L-61.9,590.6z"/>
	<path class="st0" d="M-56.8,584.5c0.4,0,0.7,0.1,0.9,0.3c0,0.4-0.2,0.6-0.4,0.8c-0.2-0.1-0.4-0.2-0.6-0.2c-0.4,0-0.8,0.3-1,0.8v3.6
		c0,0-0.2,0.1-0.5,0.1c-0.3,0-0.5-0.1-0.5-0.1v-5.1c0,0,0.2-0.1,0.5-0.1c0.3,0,0.5,0.1,0.5,0.1v0.7
		C-57.6,584.7-57.2,584.5-56.8,584.5z"/>
	<path class="st0" d="M-53.3,584.5c1.4,0,1.9,0.6,1.9,1.9v3.3c0,0-0.1,0.1-0.4,0.1c-0.3,0-0.4-0.1-0.4-0.1l-0.1-0.6
		c-0.3,0.5-0.8,0.8-1.6,0.8c-0.9,0-1.5-0.6-1.5-1.7c0-1.1,0.7-1.6,1.9-1.6c0.4,0,0.9,0,1.1,0.1v-0.4c0-0.7-0.3-1.1-1-1.1
		c-0.7,0-1.3,0.3-1.3,0.3c0,0-0.1-0.1-0.2-0.3c-0.1-0.2-0.1-0.4-0.1-0.4C-55,584.9-54.3,584.5-53.3,584.5z M-53.4,587.4
		c-0.7,0-1,0.3-1,0.9c0,0.7,0.3,0.9,0.9,0.9c0.8,0,1.2-0.7,1.2-1.4v-0.3C-52.6,587.4-53,587.4-53.4,587.4z"/>
	<path class="st0" d="M-49,589.8c0,0-0.2,0.1-0.5,0.1c-0.4,0-0.5-0.1-0.5-0.1v-0.9c0,0,0.2-0.1,0.5-0.1c0.3,0,0.5,0.1,0.5,0.1V589.8
		z"/>
	<path class="st0" d="M-46,584.5c1,0,1.4,0.3,1.4,0.3c0,0.3-0.1,0.5-0.3,0.7c0,0-0.5-0.2-1-0.2c-0.7,0-1,0.3-1,0.7
		c0,0.5,0.6,0.6,1.3,0.8c0.7,0.2,1.3,0.5,1.3,1.5c0,1-0.6,1.6-1.9,1.6c-1,0-1.7-0.4-1.7-0.4c0-0.3,0.1-0.6,0.3-0.7
		c0,0,0.7,0.3,1.3,0.3c0.6,0,1-0.2,1-0.7c0-0.5-0.5-0.7-1.1-0.8c-0.7-0.2-1.4-0.5-1.4-1.5C-47.9,585.1-47.2,584.5-46,584.5z"/>
	<path class="st0" d="M-42.4,587.5c0.1,1.2,0.6,1.6,1.4,1.6c0.7,0,1.2-0.3,1.2-0.3c0.2,0.2,0.3,0.4,0.3,0.7c0,0-0.6,0.4-1.7,0.4
		c-1.5,0-2.3-1-2.3-2.8c0-1.9,0.9-2.7,2.2-2.7c1.2,0,2,0.7,2,2c0,0.6-0.1,1-0.1,1H-42.4z M-41.2,585.3c-0.6,0-1.1,0.4-1.2,1.5h2.1
		c0-0.1,0-0.2,0-0.4C-40.2,585.8-40.4,585.3-41.2,585.3z"/>
</g>
<g>
	<path class="st1" d="M49.9,68.8c2.1,0,3.1,1.3,3.1,3.2c0,1.3-0.7,2.1-1.3,2.4c0.7,0.4,1.6,1.1,1.6,2.7c0,1.9-1.2,3.2-3.4,3.2h-4.4
		V68.8H49.9z M49.6,73.9c1.3,0,1.8-0.8,1.8-1.9c0-1.1-0.5-1.9-1.8-1.9h-2.3v3.8H49.6z M49.7,79.1c1.4,0,2-0.7,2-2c0-1.3-0.6-2-2-2
		h-2.4v4H49.7z"/>
	<path class="st1" d="M59.7,68.6c2.8,0,4.5,1.8,4.5,5.9c0,4.1-1.7,5.9-4.5,5.9c-2.8,0-4.5-1.8-4.5-5.9C55.2,70.5,57,68.6,59.7,68.6z
		 M59.7,70c-1.7,0-2.8,1-2.8,4.6c0,3.5,1.1,4.6,2.8,4.6c1.7,0,2.8-1,2.8-4.6C62.5,71,61.4,70,59.7,70z"/>
	<path class="st1" d="M72.7,68.9c0.2,0,0.5-0.1,0.8-0.1c0.3,0,0.6,0.1,0.9,0.1l-3.6,5.3l4.1,6.1c0,0-0.3,0.1-1,0.1
		c-0.6,0-0.9-0.1-0.9-0.1L69.4,75h-1.2v5.2c0,0-0.2,0.1-0.8,0.1c-0.5,0-0.8-0.1-0.8-0.1V68.9c0,0,0.3-0.1,0.8-0.1
		c0.5,0,0.8,0.1,0.8,0.1v4.8h1.2L72.7,68.9z"/>
	<path class="st1" d="M80.3,68.8c0.6,0,1,0.1,1,0.1l4,11.3c0,0-0.3,0.1-0.9,0.1c-0.5,0-0.8-0.1-0.8-0.1l-1-2.8h-4.7l-1,2.8
		c0,0-0.3,0.1-0.8,0.1c-0.5,0-0.8-0.1-0.8-0.1l4-11.3C79.3,68.9,79.7,68.8,80.3,68.8z M80.2,70.6c0,0-0.1,0.6-0.4,1.4l-1.5,4h3.8
		l-1.5-4C80.4,71.2,80.2,70.6,80.2,70.6L80.2,70.6z"/>
	<path class="st1" d="M96.5,68.8c0,0,0.1,0.3,0.1,0.7c0,0.4-0.1,0.7-0.1,0.7h-3v10c0,0-0.3,0.1-0.8,0.1c-0.6,0-0.8-0.1-0.8-0.1v-10
		h-3.1c0,0-0.1-0.3-0.1-0.7c0-0.4,0.1-0.7,0.1-0.7H96.5z"/>
	<path class="st1" d="M98.5,68.9c0,0,0.3-0.1,0.8-0.1c0.6,0,0.8,0.1,0.8,0.1v11.3c0,0-0.3,0.1-0.8,0.1c-0.6,0-0.8-0.1-0.8-0.1V68.9z
		"/>
	<path class="st1" d="M106.5,68.8c3,0,4.7,1.5,4.7,5.8s-1.7,5.8-4.7,5.8H103V68.8H106.5z M106.4,79c1.9,0,3.1-0.8,3.1-4.4
		c0-3.6-1.2-4.4-3.1-4.4h-1.8V79H106.4z"/>
	<path class="st1" d="M70.7,92.1c-0.6-1-0.9-2.1-0.9-2.1h-0.1c0,0,0.1,1.1,0.1,2.7v6.7c0,0-0.2,0.1-0.8,0.1c-0.5,0-0.7-0.1-0.7-0.1
		V88.1c0,0,0.3-0.1,1-0.1c0.6,0,1,0.1,1,0.1l4,7.2c0.6,1,1,2.1,1,2.1h0c0,0-0.1-1.2-0.1-2.7v-6.7c0,0,0.2-0.1,0.8-0.1
		s0.7,0.1,0.7,0.1v11.3c0,0-0.3,0.1-0.9,0.1c-0.6,0-1-0.1-1-0.1L70.7,92.1z"/>
	<path class="st1" d="M87.5,95.6c0,2.6-1.6,4.1-4,4.1c-2.4,0-4-1.5-4-4.1v-7.5c0,0,0.3-0.1,0.8-0.1c0.5,0,0.8,0.1,0.8,0.1v7.8
		c0,1.5,0.9,2.4,2.4,2.4c1.6,0,2.4-0.9,2.4-2.4v-7.8c0,0,0.3-0.1,0.8-0.1s0.8,0.1,0.8,0.1V95.6z"/>
	<path class="st1" d="M90.1,88.1c0,0,0.3-0.1,0.9-0.1c0.6,0,0.9,0.1,0.9,0.1l-0.3,8.3c0,0-0.2,0.1-0.6,0.1c-0.4,0-0.6-0.1-0.6-0.1
		L90.1,88.1z M91.8,99.4c0,0-0.3,0.1-0.8,0.1c-0.6,0-0.8-0.1-0.8-0.1v-1.5c0,0,0.2-0.1,0.8-0.1c0.5,0,0.8,0.1,0.8,0.1V99.4z"/>
</g>
<g>
	<path class="st0" d="M-336.5,272.4c0.1,0.2,0.2,0.5,0.2,0.8c0,0.3-0.1,0.6-0.2,0.9h-6.1v4.6h5.1c0.1,0.2,0.2,0.5,0.2,0.8
		c0,0.3-0.1,0.6-0.2,0.8h-5.1v4.8h6.3c0.1,0.3,0.2,0.5,0.2,0.8c0,0.3-0.1,0.6-0.2,0.9h-8.3v-14.4H-336.5z"/>
	<path class="st0" d="M-325.8,286.7c0,0-0.3,0.1-1,0.1c-0.7,0-1-0.1-1-0.1v-7.2c0-1.1-0.6-1.8-1.9-1.8c-0.9,0-1.7,0.5-2.3,1.3v7.7
		c0,0-0.4,0.1-1,0.1c-0.7,0-1-0.1-1-0.1v-10.2c0,0,0.3-0.1,1-0.1c0.6,0,1,0.1,1,0.1v0.9c0.7-0.8,1.8-1.3,3-1.3c2,0,3.1,1.2,3.1,3
		V286.7z"/>
	<path class="st0" d="M-315.7,271.8c0.7,0,1,0.1,1,0.1v14.7c0,0-0.3,0.1-0.8,0.1s-0.9-0.1-0.9-0.1l-0.1-1.1c-0.6,0.9-1.5,1.4-3,1.4
		c-2.3,0-3.8-1.4-3.8-5.5c0-4.1,1.5-5.5,3.8-5.5c1.4,0,2.3,0.5,2.9,1.3V272C-316.8,272-316.4,271.8-315.7,271.8z M-318.9,277.8
		c-1.6,0-2.4,0.8-2.4,3.8c0,3,0.8,3.8,2.4,3.8c1.4,0,2.2-1.2,2.2-2.6v-2.6C-316.8,278.9-317.6,277.8-318.9,277.8z"/>
	<path class="st0" d="M-308.2,276.1c2.9,0,3.8,1.3,3.8,3.9v6.7c0,0-0.2,0.1-0.8,0.1c-0.5,0-0.8-0.1-0.8-0.1l-0.3-1.3
		c-0.5,1.1-1.6,1.6-3.1,1.6c-1.9,0-3.1-1.1-3.1-3.3c0-2.2,1.3-3.1,3.8-3.1c0.9,0,1.8,0.1,2.3,0.1v-0.7c0-1.4-0.5-2.1-2.1-2.1
		c-1.4,0-2.7,0.5-2.7,0.5c0,0-0.3-0.2-0.5-0.6c-0.2-0.4-0.1-0.8-0.1-0.8C-311.7,276.9-310.2,276.1-308.2,276.1z M-308.4,281.9
		c-1.3,0-2,0.5-2,1.8c0,1.3,0.7,1.8,1.7,1.8c1.6,0,2.3-1.3,2.3-2.8V282C-306.8,282-307.6,281.9-308.4,281.9z"/>
	<path class="st0" d="M-298.2,276.1c2,0,2.8,0.5,2.8,0.5c0,0.5-0.2,1.1-0.5,1.4c0,0-1-0.3-2.1-0.3c-1.4,0-2,0.5-2,1.4
		c0,1,1.3,1.2,2.5,1.6c1.3,0.4,2.7,1,2.7,3c0,2-1.3,3.2-3.8,3.2c-2.1,0-3.3-0.7-3.3-0.7c0-0.6,0.2-1.1,0.5-1.5c0,0,1.3,0.5,2.7,0.5
		c1.2,0,1.9-0.5,1.9-1.4c0-1.1-1.1-1.3-2.3-1.7c-1.4-0.4-2.8-1-2.8-3C-302,277.4-300.8,276.1-298.2,276.1z"/>
	<path class="st0" d="M-289.9,283.1c0,1.8,0.6,2.4,2,2.4c0.4,0,0.8-0.1,0.8-0.1s0.1,0.3,0.1,0.8s-0.1,0.7-0.1,0.7
		c-0.4,0.1-0.9,0.2-1.4,0.2c-2.5,0-3.4-1.3-3.4-3.9v-5.3h-1.5c0,0-0.1-0.3-0.1-0.7c0-0.5,0.1-0.8,0.1-0.8h1.5v-1.8
		c0.5-0.3,1.3-0.5,2-0.4v2.2h2.6c0,0,0.1,0.3,0.1,0.7c0,0.5-0.1,0.8-0.1,0.8h-2.6V283.1z"/>
	<path class="st2" d="M-276.3,269.3c0,0,0.4-0.2,1.3-0.2c0.9,0,1.3,0.2,1.3,0.2v17.3c0,0-0.4,0.2-1.3,0.2c-0.8,0-1.3-0.2-1.3-0.2
		V276c0-1.4,0.1-2.5,0.1-3.4c-1.2,1.2-2.8,2-4.4,2.4c-0.5-0.5-0.8-1.3-0.6-2.2C-279.1,272.3-277.5,271.2-276.3,269.3z"/>
	<path class="st2" d="M-265.5,269.3c0,0,0.4-0.2,1.3-0.2c0.9,0,1.3,0.2,1.3,0.2v17.3c0,0-0.4,0.2-1.3,0.2c-0.8,0-1.3-0.2-1.3-0.2
		V276c0-1.4,0.1-2.5,0.1-3.4c-1.2,1.2-2.8,2-4.4,2.4c-0.5-0.5-0.8-1.3-0.6-2.2C-268.3,272.3-266.7,271.2-265.5,269.3z"/>
	<path class="st2" d="M-257.5,284.8c3.7-0.4,6-1.9,6.8-5.4c-0.8,0.3-1.9,0.6-3.2,0.6c-3,0-5.4-1.6-5.4-5.5c0-3.8,2.3-5.5,5.8-5.5
		c3.5,0,5.8,2.1,5.8,6.9c0,7.3-3.7,10.6-9.8,11C-257.7,286.1-257.7,285.4-257.5,284.8z M-253.5,277.9c1.3,0,2.5-0.5,3.1-0.7
		c0-0.5,0.1-0.9,0.1-1.5c0-3.5-1.3-4.8-3.2-4.8s-3.1,1.1-3.1,3.5C-256.6,277-255.3,277.9-253.5,277.9z"/>
	<path class="st2" d="M-243.1,284.8c3.7-0.4,6-1.9,6.8-5.4c-0.8,0.3-1.9,0.6-3.2,0.6c-3,0-5.4-1.6-5.4-5.5c0-3.8,2.3-5.5,5.8-5.5
		c3.5,0,5.8,2.1,5.8,6.9c0,7.3-3.7,10.6-9.8,11C-243.4,286.1-243.4,285.4-243.1,284.8z M-239.1,277.9c1.3,0,2.5-0.5,3.1-0.7
		c0-0.5,0.1-0.9,0.1-1.5c0-3.5-1.3-4.8-3.2-4.8s-3.1,1.1-3.1,3.5C-242.3,277-241,277.9-239.1,277.9z"/>
	<path class="st2" d="M-222.3,273.3c0,0,0.5-0.2,1.3-0.2c0.7,0,1.3,0.2,1.3,0.2l-4,6.2l4.6,7.1c0,0-0.6,0.2-1.5,0.2
		s-1.4-0.2-1.4-0.2l-3.9-6h-1.5v6c0,0-0.5,0.2-1.3,0.2c-0.8,0-1.3-0.2-1.3-0.2v-19.2c0,0,0.5-0.1,1.3-0.1c0.7,0,1.3,0.1,1.3,0.1
		v11.3h1.5L-222.3,273.3z"/>
	<path class="st2" d="M-211.1,272.9c1,0,1.7,0.3,2.3,0.6c-0.1,0.9-0.4,1.6-1.1,2.2c-0.5-0.4-1-0.5-1.6-0.5c-1,0-2,0.8-2.7,2v9.5
		c0,0-0.4,0.2-1.3,0.2c-0.9,0-1.3-0.2-1.3-0.2v-13.3c0,0,0.4-0.2,1.3-0.2c0.9,0,1.3,0.2,1.3,0.2v1.8
		C-213.3,273.5-212.1,272.9-211.1,272.9z"/>
	<path class="st0" d="M-347,296.2c3.5,0,5.6,2.2,5.6,7.4c0,5.2-2.1,7.4-5.6,7.4s-5.6-2.2-5.6-7.4
		C-352.6,298.5-350.5,296.2-347,296.2z M-347,297.9c-2.1,0-3.5,1.3-3.5,5.7s1.4,5.7,3.5,5.7c2.1,0,3.5-1.3,3.5-5.7
		S-344.9,297.9-347,297.9z"/>
	<path class="st0" d="M-330.8,296.6c0.3-0.1,0.6-0.1,1-0.1c0.4,0,0.8,0.1,1.1,0.1l-4.5,6.6l5.1,7.6c0,0-0.4,0.1-1.2,0.1
		c-0.7,0-1.2-0.1-1.2-0.1l-4.5-6.5h-1.5v6.5c0,0-0.3,0.1-1,0.1c-0.6,0-1-0.1-1-0.1v-14.1c0,0,0.4-0.1,1-0.1c0.7,0,1,0.1,1,0.1v6h1.5
		L-330.8,296.6z"/>
	<path class="st0" d="M-321.1,296.2c3.5,0,5.6,2.2,5.6,7.4c0,3-0.7,5-2,6.1c0.7,0.6,1.7,1.1,2.7,1.3c-0.1,0.7-0.5,1.4-1.1,1.7
		c-1.2-0.4-2.2-1.2-2.9-2.2c-0.7,0.3-1.5,0.4-2.3,0.4c-3.5,0-5.6-2.2-5.6-7.4C-326.7,298.5-324.5,296.2-321.1,296.2z M-321.1,297.9
		c-2.1,0-3.5,1.3-3.5,5.7s1.4,5.7,3.5,5.7c2.1,0,3.5-1.3,3.5-5.7S-318.9,297.9-321.1,297.9z"/>
	<path class="st0" d="M-313.1,307.5c0-2,1.5-3.1,2.5-3.7c-1.2-0.7-2.1-1.6-2.1-3.3c0-2.1,1.6-3.4,4.2-3.4c2.6,0,4.2,1.2,4.2,3.3
		c0,1.7-1.1,2.8-2,3.4c1.4,0.7,2.5,1.7,2.5,3.6c0,2.4-1.7,3.7-4.8,3.7C-311.4,311-313.1,309.7-313.1,307.5z M-305.8,307.4
		c0-1.7-1.8-2.2-3.6-3c-0.6,0.4-1.9,1.4-1.9,3c0,1.3,0.9,2.1,2.8,2.1C-306.8,309.5-305.8,308.7-305.8,307.4z M-310.8,300.3
		c0,1.5,1.6,2,3.2,2.7c0.6-0.5,1.5-1.3,1.5-2.6c0-1.2-0.9-1.9-2.4-1.9C-309.9,298.5-310.8,299.2-310.8,300.3z"/>
	<path class="st0" d="M-293,300.1c2.9,0,3.8,1.3,3.8,3.9v6.7c0,0-0.2,0.1-0.8,0.1c-0.5,0-0.8-0.1-0.8-0.1l-0.3-1.3
		c-0.5,1.1-1.6,1.6-3.1,1.6c-1.9,0-3.1-1.1-3.1-3.3c0-2.1,1.3-3.1,3.8-3.1c0.9,0,1.8,0.1,2.3,0.1v-0.8c0-1.4-0.5-2.1-2.1-2.1
		c-1.4,0-2.7,0.5-2.7,0.5c0,0-0.3-0.2-0.5-0.6c-0.2-0.4-0.1-0.8-0.1-0.8C-296.5,300.9-295,300.1-293,300.1z M-293,294.9
		c1.2,0,2.4,0.7,2.4,2.1c0,1.4-1.1,2.1-2.4,2.1c-1.3,0-2.3-0.8-2.3-2.1C-295.3,295.6-294.2,294.9-293,294.9z M-293.2,305.9
		c-1.3,0-2,0.5-2,1.8c0,1.3,0.7,1.8,1.7,1.8c1.6,0,2.3-1.3,2.3-2.8V306C-291.7,306-292.5,305.9-293.2,305.9z M-293,295.9
		c-0.8,0-1.1,0.5-1.1,1.1c0,0.5,0.4,1.1,1.1,1.1c0.8,0,1.2-0.5,1.2-1.1C-291.8,296.4-292.2,295.9-293,295.9z"/>
	<path class="st0" d="M-283.7,307.1c0,1.8,0.6,2.4,2,2.4c0.4,0,0.8-0.1,0.8-0.1s0.1,0.3,0.1,0.8s-0.1,0.7-0.1,0.7
		c-0.4,0.1-0.9,0.2-1.4,0.2c-2.5,0-3.4-1.3-3.4-3.9v-5.3h-1.5c0,0-0.1-0.3-0.1-0.7c0-0.5,0.1-0.8,0.1-0.8h1.5v-1.8
		c0.5-0.3,1.3-0.5,2-0.4v2.2h2.6c0,0,0.1,0.3,0.1,0.7c0,0.5-0.1,0.8-0.1,0.8h-2.6V307.1z"/>
	<path class="st0" d="M-277.2,306.2c0.2,2.4,1.1,3.1,2.8,3.1c1.4,0,2.4-0.6,2.4-0.6c0.4,0.3,0.6,0.9,0.6,1.4c0,0-1.1,0.8-3.3,0.8
		c-3.1,0-4.5-1.9-4.5-5.5c0-3.8,1.8-5.4,4.4-5.4c2.5,0,4,1.4,4,4c0,1.3-0.2,2.1-0.2,2.1H-277.2z M-274.8,301.7
		c-1.3,0-2.2,0.9-2.4,3.1h4.3c0-0.2,0.1-0.5,0.1-0.9C-272.9,302.7-273.3,301.7-274.8,301.7z"/>
	<path class="st0" d="M-264.1,300.1c0.7,0,1.3,0.2,1.7,0.5c-0.1,0.7-0.3,1.2-0.9,1.7c-0.4-0.3-0.8-0.4-1.2-0.4
		c-0.8,0-1.5,0.6-2.1,1.5v7.3c0,0-0.3,0.1-1,0.1c-0.7,0-1-0.1-1-0.1v-10.2c0,0,0.3-0.1,1-0.1c0.7,0,1,0.1,1,0.1v1.4
		C-265.8,300.6-264.9,300.1-264.1,300.1z"/>
	<path class="st0" d="M-258.6,301.4c0.6-0.8,1.5-1.3,2.9-1.3c2.3,0,3.8,1.4,3.8,5.5c0,4.1-1.5,5.5-3.8,5.5c-1.4,0-2.3-0.5-2.9-1.3v1
		c0,0-0.3,0.1-1,0.1c-0.7,0-1-0.1-1-0.1V296c0,0,0.3-0.1,1-0.1c0.7,0,1,0.1,1,0.1V301.4z M-256.5,301.8c-1.4,0-2.2,1.2-2.2,2.5v2.6
		c0,1.4,0.8,2.6,2.2,2.6c1.6,0,2.4-0.8,2.4-3.8C-254.1,302.6-254.9,301.8-256.5,301.8z"/>
	<path class="st0" d="M-245.9,300.1c2.9,0,3.8,1.3,3.8,3.9v6.7c0,0-0.2,0.1-0.8,0.1c-0.5,0-0.8-0.1-0.8-0.1l-0.3-1.3
		c-0.5,1.1-1.6,1.6-3.1,1.6c-1.9,0-3.1-1.1-3.1-3.3c0-2.1,1.3-3.1,3.8-3.1c0.9,0,1.8,0.1,2.3,0.1v-0.9c0-1.3-0.5-2-2.1-2
		c-1.4,0-2.7,0.5-2.7,0.5c0,0-0.3-0.2-0.5-0.6c-0.2-0.4-0.1-0.8-0.1-0.8C-249.4,300.9-247.9,300.1-245.9,300.1z M-247.5,296.6
		c0.6,0,0.9,0.1,0.9,0.1v1.6c0,0-0.3,0.1-0.9,0.1c-0.6,0-0.9-0.1-0.9-0.1v-1.6C-248.4,296.7-248.1,296.6-247.5,296.6z M-246.1,305.9
		c-1.3,0-2,0.5-2,1.8c0,1.3,0.7,1.8,1.7,1.8c1.6,0,2.3-1.3,2.3-2.8V306C-244.5,306-245.3,305.9-246.1,305.9z M-244.1,296.6
		c0.6,0,0.9,0.1,0.9,0.1v1.6c0,0-0.3,0.1-0.9,0.1c-0.6,0-0.9-0.1-0.9-0.1v-1.6C-245,296.7-244.7,296.6-244.1,296.6z"/>
	<path class="st0" d="M-234.8,300.1c0.7,0,1.3,0.2,1.7,0.5c-0.1,0.7-0.3,1.2-0.9,1.7c-0.4-0.3-0.8-0.4-1.2-0.4
		c-0.8,0-1.5,0.6-2.1,1.5v7.3c0,0-0.3,0.1-1,0.1c-0.7,0-1-0.1-1-0.1v-10.2c0,0,0.3-0.1,1-0.1c0.7,0,1,0.1,1,0.1v1.4
		C-236.5,300.6-235.6,300.1-234.8,300.1z"/>
	<path class="st0" d="M-229.3,298.3c0,0-0.4,0.1-1,0.1c-0.7,0-1-0.1-1-0.1v-1.9c0,0,0.3-0.1,1-0.1c0.7,0,1,0.1,1,0.1V298.3z
		 M-229.3,310.7c0,0-0.3,0.1-1,0.1c-0.7,0-1-0.1-1-0.1v-10.2c0,0,0.3-0.1,1-0.1c0.7,0,1,0.1,1,0.1V310.7z"/>
	<path class="st0" d="M-218.2,310.7c0,0-0.3,0.1-1,0.1c-0.7,0-1-0.1-1-0.1v-7.2c0-1.1-0.6-1.8-1.9-1.8c-0.9,0-1.7,0.5-2.3,1.3v7.7
		c0,0-0.4,0.1-1,0.1c-0.7,0-1-0.1-1-0.1v-10.2c0,0,0.3-0.1,1-0.1c0.6,0,1,0.1,1,0.1v0.9c0.7-0.8,1.8-1.3,3-1.3c2,0,3.1,1.2,3.1,3
		V310.7z"/>
	<path class="st0" d="M-206.8,300.1c0.2,0.4,0.2,1.1,0,1.6l-1.7-0.1c0.4,0.6,0.6,1.3,0.6,2.1c0,2.2-1.3,3.6-3.9,3.6
		c-0.3,0-0.6,0-0.9-0.1c-0.2,0.3-0.4,0.7-0.4,1.2c0.2,1.8,6.3-0.1,6.3,4c0,2-1.9,3.4-5.1,3.4c-3,0-4.3-1.2-4.3-2.8
		c0-1.5,1.2-2.4,1.8-2.8c-0.3-0.3-0.4-0.7-0.4-1.2c0-0.9,0.5-1.7,1-2.2c-1.2-0.6-1.8-1.7-1.8-3.2c0-2.2,1.4-3.6,3.9-3.6
		c0.9,0,1.6,0.2,2.2,0.5L-206.8,300.1z M-213.4,310.8c-0.5,0.4-0.9,1.1-0.9,1.8c0,1,0.7,1.8,2.4,1.8c2.1,0,3.2-0.7,3.2-1.8
		C-208.7,311-211.6,311.4-213.4,310.8z M-211.8,301.5c-1.2,0-2,0.7-2,2.2c0,1.5,0.8,2.2,2,2.2s2-0.7,2-2.2
		C-209.8,302.2-210.6,301.5-211.8,301.5z"/>
</g>
<g>
</g>
<g>
</g>
<g>
</g>
<g>
</g>
<g>
</g>
<g>
</g>
</svg>
