<svg id="Layer_1" data-name="Layer 1" xmlns="http://www.w3.org/2000/svg" viewBox="0 0 160 600"><defs><style>.cls-1{fill:#0ad;}.cls-2{fill:#ef2626;}</style></defs><title>text-</title><path class="cls-1" d="M23.46,272.44a2.23,2.23,0,0,1,0,1.66H17.37v4.64h5.08a2.58,2.58,0,0,1,.16.8,2.42,2.42,0,0,1-.16.84H17.37v4.8h6.28a2.71,2.71,0,0,1,.16.8,2.53,2.53,0,0,1-.16.86H15.33v-14.4h8.12Z"/><path class="cls-1" d="M34.17,286.7a2.86,2.86,0,0,1-1,.14,2.73,2.73,0,0,1-1-.14v-7.2a1.61,1.61,0,0,0-1.86-1.76A2.74,2.74,0,0,0,28.05,279v7.68a3,3,0,0,1-1,.14,2.6,2.6,0,0,1-1-.14V276.46a2.6,2.6,0,0,1,1-.14,3,3,0,0,1,1,.14v0.92a3.88,3.88,0,0,1,3-1.26,2.83,2.83,0,0,1,3.1,3v7.56Z"/><path class="cls-1" d="M44.25,271.83a2.67,2.67,0,0,1,1,.14V286.7a2.4,2.4,0,0,1-.84.14,3,3,0,0,1-.9-0.14l-0.14-1.08a3.28,3.28,0,0,1-3,1.42c-2.28,0-3.76-1.38-3.76-5.46s1.48-5.46,3.76-5.46a3.25,3.25,0,0,1,2.88,1.3V272A2.92,2.92,0,0,1,44.25,271.83Zm-3.2,5.92c-1.6,0-2.4.84-2.4,3.82s0.8,3.82,2.4,3.82a2.29,2.29,0,0,0,2.18-2.56v-2.58A2.28,2.28,0,0,0,41.05,277.76Z"/><path class="cls-1" d="M51.79,276.12c2.9,0,3.82,1.3,3.82,3.88v6.7a1.57,1.57,0,0,1-.78.14,2,2,0,0,1-.8-0.14l-0.3-1.28A3.22,3.22,0,0,1,50.59,287c-1.88,0-3.1-1.1-3.1-3.34s1.34-3.14,3.84-3.14a21.44,21.44,0,0,1,2.28.12v-0.74c0-1.36-.52-2.14-2.06-2.14a8.33,8.33,0,0,0-2.68.5,1.59,1.59,0,0,1-.46-0.6,1.73,1.73,0,0,1-.12-0.84A8.68,8.68,0,0,1,51.79,276.12Zm-0.2,5.8c-1.34,0-2,.52-2,1.78a1.56,1.56,0,0,0,1.74,1.8c1.58,0,2.32-1.34,2.32-2.76V282C53.15,282,52.35,281.92,51.59,281.92Z"/><path class="cls-1" d="M61.75,276.12a5.69,5.69,0,0,1,2.82.54,2,2,0,0,1-.52,1.42,7.42,7.42,0,0,0-2.1-.32c-1.36,0-2,.5-2,1.44s1.26,1.22,2.52,1.64,2.66,1,2.66,3-1.26,3.2-3.8,3.2a7.13,7.13,0,0,1-3.34-.72,2,2,0,0,1,.54-1.48,8.54,8.54,0,0,0,2.7.5c1.22,0,1.92-.46,1.92-1.44s-1.1-1.34-2.28-1.68c-1.36-.4-2.84-1-2.84-3S59.21,276.12,61.75,276.12Z"/><path class="cls-1" d="M70.05,283.06c0,1.82.58,2.36,2,2.36a5.49,5.49,0,0,0,.84-0.08,2.32,2.32,0,0,1,.14.8,2.2,2.2,0,0,1-.1.72,5.76,5.76,0,0,1-1.44.18c-2.46,0-3.44-1.34-3.44-3.88v-5.34H66.51a2,2,0,0,1-.12-0.74,2,2,0,0,1,.12-0.76h1.54V274.5a3.4,3.4,0,0,1,2-.4v2.22h2.6a1.91,1.91,0,0,1,.12.74,2.23,2.23,0,0,1-.12.76h-2.6v5.24Z"/><path class="cls-2" d="M83.74,269.34a3.31,3.31,0,0,1,1.27-.18,3.47,3.47,0,0,1,1.27.18v17.32a3.39,3.39,0,0,1-1.3.18,4.18,4.18,0,0,1-1.33-.18V276c0-1.38.05-2.52,0.13-3.38A9.47,9.47,0,0,1,79.4,275a2.4,2.4,0,0,1-.62-2.16A8.23,8.23,0,0,0,83.74,269.34Z"/><path class="cls-2" d="M94.5,269.34a3.31,3.31,0,0,1,1.27-.18,3.47,3.47,0,0,1,1.27.18v17.32a3.39,3.39,0,0,1-1.3.18,4.18,4.18,0,0,1-1.33-.18V276c0-1.38.05-2.52,0.13-3.38A9.47,9.47,0,0,1,90.16,275a2.4,2.4,0,0,1-.62-2.16A8.23,8.23,0,0,0,94.5,269.34Z"/><path class="cls-2" d="M102.54,284.76c3.72-.39,6-1.9,6.79-5.41a9.18,9.18,0,0,1-3.22.62c-3,0-5.38-1.56-5.38-5.54,0-3.77,2.29-5.54,5.82-5.54s5.82,2.08,5.82,6.94c0,7.28-3.67,10.61-9.8,11A2.74,2.74,0,0,1,102.54,284.76Zm4-6.84a8.34,8.34,0,0,0,3.15-.73c0-.47.05-0.94,0.05-1.46,0-3.46-1.3-4.84-3.17-4.84s-3.15,1.12-3.15,3.54S104.69,277.92,106.51,277.92Z"/><path class="cls-2" d="M116.89,284.76c3.72-.39,6-1.9,6.79-5.41a9.18,9.18,0,0,1-3.22.62c-3,0-5.38-1.56-5.38-5.54,0-3.77,2.29-5.54,5.82-5.54s5.82,2.08,5.82,6.94c0,7.28-3.67,10.61-9.8,11A2.74,2.74,0,0,1,116.89,284.76Zm4-6.84a8.34,8.34,0,0,0,3.15-.73c0-.47.05-0.94,0.05-1.46,0-3.46-1.3-4.84-3.17-4.84s-3.15,1.12-3.15,3.54S119,277.92,120.87,277.92Z"/><path class="cls-2" d="M137.74,273.34a4.38,4.38,0,0,1,1.33-.18,5.11,5.11,0,0,1,1.27.16l-4,6.21,4.6,7.12a4.66,4.66,0,0,1-1.46.21,4.12,4.12,0,0,1-1.4-.21l-3.9-6h-1.46v6a4.73,4.73,0,0,1-2.6,0V267.47a6,6,0,0,1,1.33-.13,6.38,6.38,0,0,1,1.27.13v11.26h1.48Z"/><path class="cls-2" d="M148.92,272.93a4.09,4.09,0,0,1,2.26.65,2.94,2.94,0,0,1-1.14,2.18,2.62,2.62,0,0,0-1.61-.55,3.37,3.37,0,0,0-2.68,2v9.46a3.73,3.73,0,0,1-1.3.18,3.39,3.39,0,0,1-1.3-.18V273.34a3.39,3.39,0,0,1,1.3-.18,3.73,3.73,0,0,1,1.3.18v1.79C146.74,273.5,147.88,272.93,148.92,272.93Z"/><path class="cls-1" d="M13,296.24c3.46,0,5.64,2.22,5.64,7.4S16.5,311,13,311s-5.64-2.22-5.64-7.4S9.54,296.24,13,296.24Zm0,1.7c-2.12,0-3.5,1.28-3.5,5.7s1.38,5.7,3.5,5.7,3.5-1.28,3.5-5.7S15.14,297.94,13,297.94Z"/><path class="cls-1" d="M29.2,296.58a4.47,4.47,0,0,1,1-.14,5.46,5.46,0,0,1,1.1.14l-4.54,6.56,5.14,7.56a4.15,4.15,0,0,1-1.2.14,4.25,4.25,0,0,1-1.18-.14l-4.46-6.52H23.62v6.52a2.66,2.66,0,0,1-1,.14,3.21,3.21,0,0,1-1-.14V296.58a3.14,3.14,0,0,1,1-.14,2.86,2.86,0,0,1,1,.14v6h1.46Z"/><path class="cls-1" d="M38.94,296.24c3.46,0,5.64,2.22,5.64,7.4,0,3-.7,5-2,6.14A6,6,0,0,0,45.3,311a2.27,2.27,0,0,1-1.12,1.72,6.18,6.18,0,0,1-2.92-2.16,5.72,5.72,0,0,1-2.32.44c-3.5,0-5.64-2.22-5.64-7.4S35.48,296.24,38.94,296.24Zm0,1.7c-2.12,0-3.5,1.28-3.5,5.7s1.38,5.7,3.5,5.7,3.5-1.28,3.5-5.7S41.08,297.94,38.94,297.94Z"/><path class="cls-1" d="M46.88,307.48a4.34,4.34,0,0,1,2.54-3.7,3.62,3.62,0,0,1-2.14-3.32c0-2.08,1.6-3.42,4.24-3.42s4.16,1.2,4.16,3.26a4,4,0,0,1-2,3.38,4,4,0,0,1,2.54,3.62c0,2.36-1.72,3.74-4.78,3.74C48.62,311,46.88,309.74,46.88,307.48Zm7.36-.08c0-1.66-1.82-2.22-3.56-3a3.68,3.68,0,0,0-1.88,3c0,1.26.94,2.08,2.76,2.08C53.22,309.46,54.24,308.66,54.24,307.4Zm-5-7.06c0,1.46,1.56,2,3.18,2.74a3.29,3.29,0,0,0,1.46-2.6c0-1.24-.88-1.94-2.36-1.94S49.24,299.24,49.24,300.34Z"/><path class="cls-1" d="M67,300.12c2.9,0,3.82,1.3,3.82,3.88v6.7a1.57,1.57,0,0,1-.78.14,2,2,0,0,1-.8-0.14l-0.3-1.28A3.22,3.22,0,0,1,65.76,311c-1.88,0-3.1-1.12-3.1-3.34s1.34-3.14,3.84-3.14a21.31,21.31,0,0,1,2.28.12v-0.8a1.78,1.78,0,0,0-2.06-2.08,8.33,8.33,0,0,0-2.68.5,1.59,1.59,0,0,1-.46-0.6,1.73,1.73,0,0,1-.12-0.84A8.68,8.68,0,0,1,67,300.12ZM67,294.88a2.14,2.14,0,1,1,0,4.24A2.12,2.12,0,0,1,64.68,297,2.16,2.16,0,0,1,67,294.88Zm-0.28,11c-1.34,0-2,.54-2,1.78a1.56,1.56,0,0,0,1.74,1.8c1.58,0,2.32-1.34,2.32-2.76V306C68.32,306,67.52,305.92,66.76,305.92Zm0.26-10A1.06,1.06,0,1,0,67,298,1.07,1.07,0,0,0,68.2,297,1.05,1.05,0,0,0,67,295.92Z"/><path class="cls-1" d="M76.3,307.06c0,1.82.58,2.36,2,2.36a5.47,5.47,0,0,0,.84-0.08,2.31,2.31,0,0,1,.14.8,2.17,2.17,0,0,1-.1.72,5.73,5.73,0,0,1-1.44.18c-2.46,0-3.44-1.34-3.44-3.88v-5.34H72.76a2,2,0,0,1-.12-0.74,2,2,0,0,1,.12-0.76H74.3V298.5a3.41,3.41,0,0,1,2-.4v2.22h2.6a1.91,1.91,0,0,1,.12.74,2.23,2.23,0,0,1-.12.76H76.3v5.24Z"/><path class="cls-1" d="M82.8,306.2c0.16,2.38,1.12,3.14,2.78,3.14a4.85,4.85,0,0,0,2.36-.58,2.06,2.06,0,0,1,.64,1.44,5.89,5.89,0,0,1-3.32.84c-3.08,0-4.52-1.9-4.52-5.52,0-3.78,1.78-5.4,4.44-5.4,2.46,0,4,1.36,4,4a8.54,8.54,0,0,1-.22,2.06H82.8Zm2.38-4.5c-1.3,0-2.22.86-2.38,3.08h4.28a7.08,7.08,0,0,0,.06-0.9C87.14,302.7,86.66,301.7,85.18,301.7Z"/><path class="cls-1" d="M95.92,300.14a3.15,3.15,0,0,1,1.74.5,2.26,2.26,0,0,1-.88,1.68,2,2,0,0,0-1.24-.42,2.59,2.59,0,0,0-2.06,1.52v7.28a2.86,2.86,0,0,1-1,.14,2.59,2.59,0,0,1-1-.14V300.46a2.6,2.6,0,0,1,1-.14,2.87,2.87,0,0,1,1,.14v1.38A2.91,2.91,0,0,1,95.92,300.14Z"/><path class="cls-1" d="M101.36,301.42a3.2,3.2,0,0,1,2.88-1.3c2.28,0,3.76,1.38,3.76,5.46s-1.48,5.46-3.76,5.46a3.2,3.2,0,0,1-2.88-1.3v1a2.92,2.92,0,0,1-1,.14,2.66,2.66,0,0,1-1-.14V296a2.67,2.67,0,0,1,1-.14,2.93,2.93,0,0,1,1,.14v5.44Zm2.18,0.34a2.26,2.26,0,0,0-2.18,2.52v2.56a2.29,2.29,0,0,0,2.18,2.56c1.6,0,2.4-.84,2.4-3.82S105.14,301.76,103.54,301.76Z"/><path class="cls-1" d="M114.12,300.12c2.9,0,3.82,1.3,3.82,3.88v6.7a1.57,1.57,0,0,1-.78.14,2,2,0,0,1-.8-0.14l-0.3-1.28a3.22,3.22,0,0,1-3.14,1.62c-1.88,0-3.1-1.12-3.1-3.34s1.34-3.14,3.84-3.14a21.28,21.28,0,0,1,2.28.12v-0.86a1.77,1.77,0,0,0-2.06-2,8.33,8.33,0,0,0-2.68.5,1.58,1.58,0,0,1-.46-0.6,1.73,1.73,0,0,1-.12-0.84A8.69,8.69,0,0,1,114.12,300.12Zm-1.6-3.5a2.86,2.86,0,0,1,.92.12v1.62a2.88,2.88,0,0,1-.92.12,2.52,2.52,0,0,1-.9-0.12v-1.62A2.51,2.51,0,0,1,112.52,296.62Zm1.4,9.3c-1.34,0-2,.54-2,1.78a1.56,1.56,0,0,0,1.74,1.8c1.58,0,2.32-1.34,2.32-2.76V306C115.48,306,114.68,305.92,113.92,305.92Zm2-9.3a2.66,2.66,0,0,1,.9.12v1.62a2.67,2.67,0,0,1-.9.12,2.73,2.73,0,0,1-.92-0.12v-1.62A2.72,2.72,0,0,1,115.92,296.62Z"/><path class="cls-1" d="M125.22,300.14a3.14,3.14,0,0,1,1.74.5,2.26,2.26,0,0,1-.88,1.68,2,2,0,0,0-1.24-.42,2.59,2.59,0,0,0-2.06,1.52v7.28a2.85,2.85,0,0,1-1,.14,2.59,2.59,0,0,1-1-.14V300.46a2.6,2.6,0,0,1,1-.14,2.86,2.86,0,0,1,1,.14v1.38A2.92,2.92,0,0,1,125.22,300.14Z"/><path class="cls-1" d="M130.74,298.3a3.14,3.14,0,0,1-1,.14,2.86,2.86,0,0,1-1-.14v-1.88a2.85,2.85,0,0,1,1-.14,3.13,3.13,0,0,1,1,.14v1.88Zm0,12.4a2.85,2.85,0,0,1-1,.14,2.59,2.59,0,0,1-1-.14V300.46a2.6,2.6,0,0,1,1-.14,2.86,2.86,0,0,1,1,.14V310.7Z"/><path class="cls-1" d="M141.78,310.7a2.85,2.85,0,0,1-1,.14,2.72,2.72,0,0,1-1-.14v-7.2a1.61,1.61,0,0,0-1.86-1.76,2.74,2.74,0,0,0-2.26,1.28v7.68a3,3,0,0,1-1,.14,2.59,2.59,0,0,1-1-.14V300.46a2.6,2.6,0,0,1,1-.14,3,3,0,0,1,1,.14v0.92a3.87,3.87,0,0,1,3-1.26,2.83,2.83,0,0,1,3.1,3v7.56Z"/><path class="cls-1" d="M153.18,300.12a2.37,2.37,0,0,1,0,1.58l-1.66-.08a3.66,3.66,0,0,1,.56,2.1c0,2.24-1.34,3.6-3.92,3.6a5.87,5.87,0,0,1-.88-0.06,1.76,1.76,0,0,0-.38,1.16c0.22,1.84,6.26-.12,6.26,4,0,2-1.9,3.42-5.14,3.42-3,0-4.26-1.18-4.26-2.78a3.39,3.39,0,0,1,1.78-2.76,1.57,1.57,0,0,1-.44-1.16,3.6,3.6,0,0,1,1-2.22,3.26,3.26,0,0,1-1.82-3.2c0-2.24,1.36-3.6,3.92-3.6a4.81,4.81,0,0,1,2.22.46Zm-6.56,10.72a2.42,2.42,0,0,0-.92,1.82c0,1,.74,1.76,2.38,1.76,2.06,0,3.18-.74,3.18-1.8C151.26,311,148.42,311.4,146.62,310.84Zm1.54-9.32a2.2,2.2,0,0,0,0,4.38A2.2,2.2,0,0,0,148.16,301.52Z"/></svg>