<svg id="Layer_1" data-name="Layer 1" xmlns="http://www.w3.org/2000/svg" viewBox="0 0 160 600"><defs><style>.cls-1{fill:#0ad;}</style></defs><title>text-</title><path class="cls-1" d="M23.86,271a4.78,4.78,0,0,1,1.32.15l5.52,15.53a3.67,3.67,0,0,1-1.21.15,3,3,0,0,1-1.1-.15L27,282.81H20.51l-1.39,3.87a3.09,3.09,0,0,1-1.08.15,2.81,2.81,0,0,1-1-.15l5.52-15.53A5.4,5.4,0,0,1,23.86,271Zm-0.11,2.44s-0.2.88-.57,2l-2,5.57h5.24l-2-5.57a18.23,18.23,0,0,1-.57-2H23.75Z"/><path class="cls-1" d="M38.38,270.78a8.18,8.18,0,0,1,3.76.75,2.19,2.19,0,0,1-.66,1.67,8.56,8.56,0,0,0-2.84-.51c-2.55,0-4.33,1.34-4.33,6.25s1.78,6.16,4.33,6.16a9.42,9.42,0,0,0,3.06-.51,2.47,2.47,0,0,1,.68,1.72,9.29,9.29,0,0,1-4,.75c-4.2,0-6.4-2.77-6.4-8.14S34.15,270.78,38.38,270.78Z"/><path class="cls-1" d="M55,275c2.51,0,4.14,1.52,4.14,6s-1.63,6-4.14,6a3.52,3.52,0,0,1-3.17-1.43v6.16a3.72,3.72,0,0,1-1.12.13,3.38,3.38,0,0,1-1.08-.13V275.42a2.93,2.93,0,0,1,1.08-.15,3.22,3.22,0,0,1,1.12.15v1.06A3.52,3.52,0,0,1,55,275Zm-0.77,1.8a2.49,2.49,0,0,0-2.4,2.77v2.82c0,1.52.86,2.82,2.4,2.82,1.76,0,2.64-.92,2.64-4.2S56,276.85,54.22,276.85Z"/><path class="cls-1" d="M65.88,275c3.19,0,4.2,1.43,4.2,4.27v7.37a1.73,1.73,0,0,1-.86.15,2.26,2.26,0,0,1-.88-0.15L68,285.28a3.54,3.54,0,0,1-3.45,1.78c-2.07,0-3.41-1.23-3.41-3.67s1.47-3.45,4.22-3.45a23.6,23.6,0,0,1,2.51.13v-0.88c0-1.5-.57-2.29-2.27-2.29a9.17,9.17,0,0,0-2.95.55,1.74,1.74,0,0,1-.51-0.66,1.9,1.9,0,0,1-.13-0.92A9.55,9.55,0,0,1,65.88,275ZM66,269.28a2.35,2.35,0,1,1,0,4.66,2.34,2.34,0,0,1-2.57-2.35A2.38,2.38,0,0,1,66,269.28Zm-0.31,12.15c-1.47,0-2.24.59-2.24,2a1.72,1.72,0,0,0,1.91,2c1.74,0,2.55-1.47,2.55-3v-0.77C67.37,281.51,66.49,281.43,65.66,281.43Zm0.29-11a1.17,1.17,0,1,0,0,2.33,1.18,1.18,0,0,0,1.3-1.17A1.16,1.16,0,0,0,65.94,270.42Z"/><path class="cls-1" d="M77.52,270.34a6,6,0,0,1,2.42.46,2.37,2.37,0,0,1-.57,1.54,5.54,5.54,0,0,0-1.69-.24c-1.25,0-1.63.57-1.63,1.74v1.43h2.75a3.24,3.24,0,0,1,.11.86,3,3,0,0,1-.11.79H76v9.77a3.16,3.16,0,0,1-1.1.15,2.87,2.87,0,0,1-1.1-.15v-9.77H72.39a4.55,4.55,0,0,1-.11-0.84,2.8,2.8,0,0,1,.11-0.81h1.45v-1.32C73.84,271.81,74.72,270.34,77.52,270.34Z"/><path class="cls-1" d="M86.18,288.53c-0.79,2.42-1.56,3.81-3.94,3.81a3.18,3.18,0,0,1-1.21-.22,2.55,2.55,0,0,1-.15-0.81,2.08,2.08,0,0,1,.18-0.88,6.3,6.3,0,0,0,1,.09c1,0,1.5-.26,2.16-2.33l0.46-1.34a2.15,2.15,0,0,1-.7-0.15l-4.18-11.27a3.61,3.61,0,0,1,1.14-.15,3.44,3.44,0,0,1,1.14.15l2.51,6.69a21,21,0,0,1,.77,2.57h0.09s0.22-1,.7-2.55l2.18-6.71a2.94,2.94,0,0,1,1.08-.15,3.1,3.1,0,0,1,1,.15Z"/><path class="cls-1" d="M94.78,286.68a3.16,3.16,0,0,1-1.1.15,2.87,2.87,0,0,1-1.1-.15V270.49a2.86,2.86,0,0,1,1.1-.15,3.15,3.15,0,0,1,1.1.15v16.19Z"/><path class="cls-1" d="M100.33,286.68a3.16,3.16,0,0,1-1.1.15,2.87,2.87,0,0,1-1.1-.15V270.49a2.86,2.86,0,0,1,1.1-.15,3.15,3.15,0,0,1,1.1.15v16.19Z"/><path class="cls-1" d="M112.54,286.68a3.16,3.16,0,0,1-1.1.15,3,3,0,0,1-1.1-.15v-7.92a1.77,1.77,0,0,0-2-1.94,3,3,0,0,0-2.49,1.41v8.45a3.31,3.31,0,0,1-1.1.15,2.87,2.87,0,0,1-1.1-.15V275.42a2.86,2.86,0,0,1,1.1-.15,3.3,3.3,0,0,1,1.1.15v1a4.26,4.26,0,0,1,3.32-1.39,3.11,3.11,0,0,1,3.41,3.32v8.32Z"/><path class="cls-1" d="M118,273a3.45,3.45,0,0,1-1.14.15,3.15,3.15,0,0,1-1.14-.15V271a3.14,3.14,0,0,1,1.14-.15A3.44,3.44,0,0,1,118,271V273Zm0,13.64a3.16,3.16,0,0,1-1.1.15,2.87,2.87,0,0,1-1.1-.15V275.42a2.86,2.86,0,0,1,1.1-.15,3.15,3.15,0,0,1,1.1.15v11.27Z"/><path class="cls-1" d="M130.12,286.68a3.16,3.16,0,0,1-1.1.15,3,3,0,0,1-1.1-.15v-7.92a1.77,1.77,0,0,0-2-1.94,3,3,0,0,0-2.49,1.41v8.45a3.31,3.31,0,0,1-1.1.15,2.87,2.87,0,0,1-1.1-.15V275.42a2.86,2.86,0,0,1,1.1-.15,3.3,3.3,0,0,1,1.1.15v1a4.26,4.26,0,0,1,3.32-1.39,3.11,3.11,0,0,1,3.41,3.32v8.32Z"/><path class="cls-1" d="M142.66,275a2.61,2.61,0,0,1,0,1.74l-1.83-.09a4,4,0,0,1,.62,2.31c0,2.46-1.47,4-4.31,4a6.49,6.49,0,0,1-1-.07,1.93,1.93,0,0,0-.42,1.28c0.24,2,6.89-.13,6.89,4.4,0,2.16-2.09,3.76-5.65,3.76-3.3,0-4.69-1.3-4.69-3.06a3.73,3.73,0,0,1,2-3,1.73,1.73,0,0,1-.48-1.28,4,4,0,0,1,1.06-2.44,3.58,3.58,0,0,1-2-3.52c0-2.46,1.5-4,4.31-4a5.29,5.29,0,0,1,2.44.51Zm-7.22,11.79a2.66,2.66,0,0,0-1,2c0,1.1.81,1.94,2.62,1.94,2.27,0,3.5-.81,3.5-2C140.54,287,137.42,287.45,135.44,286.84Zm1.69-10.25a2.42,2.42,0,0,0,0,4.82c1.32,0,2.2-.75,2.2-2.4S138.45,276.58,137.13,276.58Z"/><path class="cls-1" d="M30.82,296.89a3.23,3.23,0,0,1,1.08-.15,3.15,3.15,0,0,1,1.1.15l-7.35,17.23a3.32,3.32,0,0,1-1.1.15,3.1,3.1,0,0,1-1.08-.15Z"/><path class="cls-1" d="M45.05,297.4a4.78,4.78,0,0,1,1.32.15l5.52,15.54a3.68,3.68,0,0,1-1.21.15,3,3,0,0,1-1.1-.15l-1.36-3.87H41.71l-1.39,3.87a3.1,3.1,0,0,1-1.08.15,2.82,2.82,0,0,1-1-.15l5.52-15.54A5.4,5.4,0,0,1,45.05,297.4Zm-0.11,2.44s-0.2.88-.57,2l-2,5.57h5.24l-2-5.57a18.26,18.26,0,0,1-.57-2H44.94Z"/><path class="cls-1" d="M59.57,297.18a8.18,8.18,0,0,1,3.76.75,2.19,2.19,0,0,1-.66,1.67,8.56,8.56,0,0,0-2.84-.51c-2.55,0-4.33,1.34-4.33,6.25s1.78,6.16,4.33,6.16A9.42,9.42,0,0,0,62.9,311a2.47,2.47,0,0,1,.68,1.72,9.3,9.3,0,0,1-4,.75c-4.2,0-6.4-2.77-6.4-8.14S55.35,297.18,59.57,297.18Z"/><path class="cls-1" d="M74.45,301.45a6.26,6.26,0,0,1,3.1.59A2.24,2.24,0,0,1,77,303.6a8.15,8.15,0,0,0-2.31-.35c-1.5,0-2.24.55-2.24,1.58s1.39,1.34,2.77,1.8,2.93,1.14,2.93,3.3-1.39,3.52-4.18,3.52a7.84,7.84,0,0,1-3.67-.79,2.25,2.25,0,0,1,.59-1.63,9.39,9.39,0,0,0,3,.55c1.34,0,2.11-.51,2.11-1.58s-1.21-1.47-2.51-1.85c-1.5-.44-3.12-1.08-3.12-3.26S71.65,301.45,74.45,301.45Z"/><path class="cls-1" d="M82.39,308.13c0.18,2.62,1.23,3.45,3.06,3.45A5.34,5.34,0,0,0,88,311a2.27,2.27,0,0,1,.7,1.58,6.49,6.49,0,0,1-3.65.92c-3.39,0-5-2.09-5-6.07,0-4.16,2-5.94,4.88-5.94,2.71,0,4.36,1.5,4.36,4.42a9.4,9.4,0,0,1-.24,2.27H82.39Zm2.62-5c-1.43,0-2.44.95-2.62,3.39H87.1a7.65,7.65,0,0,0,.07-1C87.16,304.28,86.63,303.18,85,303.18Z"/><path class="cls-1" d="M96.82,301.47a3.47,3.47,0,0,1,1.91.55,2.49,2.49,0,0,1-1,1.85,2.22,2.22,0,0,0-1.36-.46,2.85,2.85,0,0,0-2.27,1.67v8a3.17,3.17,0,0,1-1.1.15,2.87,2.87,0,0,1-1.1-.15V301.82a2.86,2.86,0,0,1,1.1-.15,3.15,3.15,0,0,1,1.1.15v1.52A3.21,3.21,0,0,1,96.82,301.47Z"/><path class="cls-1" d="M104.08,308.75a17.9,17.9,0,0,1,.62,2.35h0.09s0.26-1.08.68-2.35l2.4-6.93a2.68,2.68,0,0,1,1-.15,2.8,2.8,0,0,1,1,.15L106,313.08a5.42,5.42,0,0,1-1.32.15,5,5,0,0,1-1.32-.15l-4-11.27a3.61,3.61,0,0,1,1.14-.15,3.29,3.29,0,0,1,1.14.15Z"/><path class="cls-1" d="M114.24,299.44a3.45,3.45,0,0,1-1.14.15,3.15,3.15,0,0,1-1.14-.15v-2.07a3.15,3.15,0,0,1,1.14-.15,3.45,3.45,0,0,1,1.14.15v2.07Zm0,13.64a3.17,3.17,0,0,1-1.1.15,2.88,2.88,0,0,1-1.1-.15V301.82a2.86,2.86,0,0,1,1.1-.15,3.15,3.15,0,0,1,1.1.15v11.27Z"/><path class="cls-1" d="M119.22,307.45c0,2.88.92,4.14,3,4.14a5.66,5.66,0,0,0,2.07-.37,2.32,2.32,0,0,1,.64,1.58,6,6,0,0,1-3.17.66c-3.21,0-4.84-2.09-4.84-6s1.63-6,4.84-6a5.78,5.78,0,0,1,2.95.55,2.24,2.24,0,0,1-.64,1.58,5.35,5.35,0,0,0-1.94-.33C120.05,303.25,119.22,304.59,119.22,307.45Z"/><path class="cls-1" d="M129,308.13c0.18,2.62,1.23,3.45,3.06,3.45a5.34,5.34,0,0,0,2.6-.64,2.27,2.27,0,0,1,.7,1.58,6.49,6.49,0,0,1-3.65.92c-3.39,0-5-2.09-5-6.07,0-4.16,2-5.94,4.88-5.94,2.71,0,4.36,1.5,4.36,4.42a9.4,9.4,0,0,1-.24,2.27H129Zm2.62-5c-1.43,0-2.44.95-2.62,3.39h4.71a7.65,7.65,0,0,0,.07-1C133.82,304.28,133.3,303.18,131.67,303.18Z"/></svg>