<svg id="Layer_1" data-name="Layer 1" xmlns="http://www.w3.org/2000/svg" viewBox="0 0 160 600"><defs><style>.cls-1{fill:#fff;}</style></defs><title>text</title><path class="cls-1" d="M11.94,24.87H20.8c.53,0,.8.35.8,1.06S21.33,27,20.8,27h-10c-.78,0-1.17-.31-1.17-.94V11c0-.62.39-.94,1.17-.94h10c.53,0,.8.36.8,1.07s-.27,1.07-.8,1.07H11.94v4.83h7c.55,0,.82.36.82,1.07s-.27,1.07-.82,1.07h-7Z"/><path class="cls-1" d="M26.77,19.61v6.48c0,.61-.39.91-1.17.91s-1.16-.3-1.17-.91V19.31a8,8,0,0,1,.42-3.24A4.52,4.52,0,0,1,25.62,15c.55-.5,1.95-.76,4.18-.76a7.24,7.24,0,0,1,2.26.23.83.83,0,0,1,.57.83,1.18,1.18,0,0,1-.32.9,1.09,1.09,0,0,1-.8.29l-1.71-.11a7.88,7.88,0,0,0-2,.15,2,2,0,0,0-.59.29,2.73,2.73,0,0,0-.28.59,3.11,3.11,0,0,0-.16.91C26.77,18.6,26.77,19,26.77,19.61Z"/><path class="cls-1" d="M52.25,10.52v10.3A16.14,16.14,0,0,1,52,24.14a3.6,3.6,0,0,1-1,1.93,3.74,3.74,0,0,1-1.73.9,12.06,12.06,0,0,1-2.7.23A13.81,13.81,0,0,1,43.8,27a3.9,3.9,0,0,1-1.76-.9,3.46,3.46,0,0,1-1-1.95,16.88,16.88,0,0,1-.28-3.32A16,16,0,0,1,41,17.45a3.62,3.62,0,0,1,2.76-3,13.3,13.3,0,0,1,3-.26,7.61,7.61,0,0,1,3.12.52v-4.2c0-.62.39-.94,1.17-.94S52.25,9.9,52.25,10.52Zm-8.89,7.32a6.64,6.64,0,0,0-.28,2.33q0,1.65.09,2.64a3.15,3.15,0,0,0,.66,1.71c.22.3.72.47,1.52.52.25,0,.64,0,1.16,0,1.52,0,2.42-.18,2.69-.55a3.44,3.44,0,0,0,.67-1.72c.06-.63.09-1.29.09-2q0-3-.57-3.66a3.08,3.08,0,0,0-.44-.48,3.18,3.18,0,0,0-1.83-.35c-.94,0-1.53,0-1.78,0-.8.05-1.3.23-1.51.54A5,5,0,0,0,43.36,17.84Z"/><path class="cls-1" d="M65.44,24.77c.53,0,.8.32.8,1a1.06,1.06,0,0,1-.8,1.17,20.61,20.61,0,0,1-4.23.3,7.22,7.22,0,0,1-4.25-1A3.81,3.81,0,0,1,55.66,23V18.24q0-2.38,1.17-3.21c.78-.55,2.23-.83,4.35-.83s3.56.27,4.31.79,1.11,1.61,1.11,3.25V20.3a1.41,1.41,0,0,1-.34,1,1.16,1.16,0,0,1-.88.35H58v1.52c0,1.28,1.11,1.92,3.34,1.91a19.4,19.4,0,0,0,2.54-.15A13.61,13.61,0,0,1,65.44,24.77ZM58,18.25v1.34h6.27V18.25a1.64,1.64,0,0,0-.64-1.52,5.29,5.29,0,0,0-2.47-.39,5.63,5.63,0,0,0-2.49.37A1.64,1.64,0,0,0,58,18.25Z"/><path class="cls-1" d="M74.47,27A3.27,3.27,0,0,1,72,26.24a3.83,3.83,0,0,1-.7-2.61V16.48H69.65c-.52,0-.79-.35-.79-1s.27-1,.79-1h1.64V11.11c0-.6.39-.91,1.17-.91s1.17.31,1.17.91v3.31h3.31c.52,0,.79.34.79,1s-.27,1-.79,1H73.63V23.8c0,.71.42,1.07,1.26,1.07l2.21-.13c.55,0,.82.31.82.94a1.19,1.19,0,0,1-.84,1.24C76.52,27,75.65,27,74.47,27Z"/><path class="cls-1" d="M90.91,27a3.27,3.27,0,0,1-2.48-.76,3.83,3.83,0,0,1-.7-2.61V16.48H86.09c-.52,0-.79-.35-.79-1s.27-1,.79-1h1.64V11.11c0-.6.39-.91,1.17-.91s1.17.31,1.17.91v3.31h3.31c.52,0,.79.34.79,1s-.27,1-.79,1H90.07V23.8c0,.71.42,1.07,1.26,1.07l2.21-.13c.55,0,.82.31.82.94a1.19,1.19,0,0,1-.84,1.24C93,27,92.09,27,90.91,27Z"/><path class="cls-1" d="M99.09,19.61v6.48c0,.61-.39.91-1.16.91s-1.17-.3-1.17-.91V19.31a8,8,0,0,1,.41-3.24A4.81,4.81,0,0,1,97.94,15c.56-.5,2-.76,4.19-.76a7.33,7.33,0,0,1,2.26.23.83.83,0,0,1,.57.83,1.22,1.22,0,0,1-.32.9,1.1,1.1,0,0,1-.8.29l-1.71-.11a7.92,7.92,0,0,0-2,.15,1.9,1.9,0,0,0-.58.29,2,2,0,0,0-.28.59,3.12,3.12,0,0,0-.17.91C99.1,18.6,99.09,19,99.09,19.61Z"/><path class="cls-1" d="M110.19,32.07c-.67,0-1-.3-1-.91,0,0,0-.15.09-.41l1.4-3.75a2.16,2.16,0,0,1-1.27-1.35l-3.7-9.91c0-.26-.07-.4-.07-.42,0-.61.33-.91,1-.91s1.09.22,1.26.68l3.49,9.78h.13L115,15.09c.17-.45.59-.67,1.26-.67s1,.3,1,.9c0,0,0,.16-.07.42l-5.72,15.65C111.27,31.84,110.86,32.07,110.19,32.07Z"/><path class="cls-1" d="M128.68,13c0-.56.39-.83,1.17-.83s1.17.28,1.17.85v5.51c0,1.63-.41,2.71-1.23,3.22a8,8,0,0,1-4.1.78,18.78,18.78,0,0,1-3.81-.25v2h4.74c1.78,0,3,.31,3.61.93a4.25,4.25,0,0,1,.94,3.11,3.28,3.28,0,0,1-1.27,3,8.78,8.78,0,0,1-4.5.82,10,10,0,0,1-4.54-.74c-.87-.48-1.31-1.48-1.32-3V18.16a4.35,4.35,0,0,1,.72-2.84,4,4,0,0,1,2.76-1,21.81,21.81,0,0,1,5.66.27Zm-6.8,5.48c0,.93.18,1.5.52,1.69a6.23,6.23,0,0,0,2.51.3,11.24,11.24,0,0,0,2.7-.21,1.29,1.29,0,0,0,.9-.63,4,4,0,0,0,.17-1.41V16.65a29.48,29.48,0,0,0-3.71-.26,5.21,5.21,0,0,0-2.39.38,1.67,1.67,0,0,0-.7,1.59Zm0,7.87v2.15a1.25,1.25,0,0,0,.84,1.23,7.58,7.58,0,0,0,2.75.36,5.84,5.84,0,0,0,2.56-.38,1.59,1.59,0,0,0,.65-1.48,1.62,1.62,0,0,0-.62-1.49,4.71,4.71,0,0,0-2.29-.39Z"/><path class="cls-1" d="M138.48,27a3.27,3.27,0,0,1-2.48-.76,3.83,3.83,0,0,1-.7-2.61V16.48h-1.64c-.52,0-.79-.35-.79-1s.27-1,.79-1h1.64V11.11c0-.6.39-.91,1.17-.91s1.16.31,1.16.91v3.31H141c.52,0,.79.34.79,1s-.27,1-.79,1h-3.32V23.8c0,.71.43,1.07,1.27,1.07l2.21-.13c.54,0,.82.31.82.94a1.19,1.19,0,0,1-.84,1.24C140.53,27,139.66,27,138.48,27Z"/><path class="cls-1" d="M10.14,47.88c-.55,0-.82-.32-.82-1a1,1,0,0,1,.82-1.16,17.84,17.84,0,0,1,4.21-.35c2,0,3.29.32,4,.94a4.26,4.26,0,0,1,1.05,3.28v5q0,2.35-1.14,3.06c-.77.48-2.23.71-4.39.71s-3.6-.23-4.32-.71-1.08-1.49-1.08-3a4.65,4.65,0,0,1,.84-3.21c.57-.6,1.72-.89,3.46-.88h4.29V49.21a1.43,1.43,0,0,0-.59-1.32,4.54,4.54,0,0,0-2.12-.35,18.47,18.47,0,0,0-2.66.17A9.65,9.65,0,0,1,10.14,47.88Zm6.91,6.94V52.61H13.46a4.54,4.54,0,0,0-2.17.33c-.33.22-.49.72-.49,1.5s.2,1.29.61,1.51a6.38,6.38,0,0,0,2.48.32,7.28,7.28,0,0,0,2.5-.28A1.14,1.14,0,0,0,17.05,54.82ZM12.52,44.08a2.44,2.44,0,0,1,0-3.42,2.39,2.39,0,0,1,3.42,0,2.33,2.33,0,0,1,.71,1.71,2.41,2.41,0,0,1-2.42,2.41A2.29,2.29,0,0,1,12.52,44.08Zm.68-1.71a1,1,0,0,0,.3.75,1.06,1.06,0,0,0,1.47,0,1.05,1.05,0,0,0,.31-.75,1,1,0,0,0-.31-.74,1.06,1.06,0,0,0-1.48,0A.94.94,0,0,0,13.2,42.37Z"/><path class="cls-1" d="M31.79,41.72V57.29c0,.61-.39.91-1.16.91s-1.17-.3-1.17-.91V41.72c0-.62.39-.94,1.17-.94S31.79,41.1,31.79,41.72Z"/><path class="cls-1" d="M37,47.88c-.54,0-.81-.32-.81-1A1,1,0,0,1,37,45.75a18,18,0,0,1,4.22-.35c2,0,3.29.32,4,.94a4.22,4.22,0,0,1,1.06,3.28v5q0,2.35-1.14,3.06c-.77.48-2.22.71-4.38.71s-3.6-.23-4.33-.71-1.11-1.49-1.11-3a4.65,4.65,0,0,1,.84-3.21c.57-.6,1.73-.89,3.47-.88h4.31V49.21a1.45,1.45,0,0,0-.59-1.32,4.54,4.54,0,0,0-2.12-.35,18.47,18.47,0,0,0-2.66.17A9.63,9.63,0,0,1,37,47.88Zm6.92,6.94V52.61H40.28a4.59,4.59,0,0,0-2.18.33c-.33.22-.49.72-.49,1.5s.21,1.29.62,1.51a6.38,6.38,0,0,0,2.48.32A7.31,7.31,0,0,0,43.22,56,1.14,1.14,0,0,0,43.89,54.82Z"/><path class="cls-1" d="M59,44.18c0-.56.39-.83,1.17-.83s1.17.28,1.17.85v5.51c0,1.63-.41,2.71-1.23,3.22a8,8,0,0,1-4.1.78,18.78,18.78,0,0,1-3.81-.25v2H56.9c1.77,0,3,.31,3.61.93a4.25,4.25,0,0,1,.94,3.11,3.28,3.28,0,0,1-1.27,3,8.83,8.83,0,0,1-4.5.82,10,10,0,0,1-4.54-.74c-.87-.48-1.31-1.48-1.32-3V49.36a4.35,4.35,0,0,1,.72-2.84,4,4,0,0,1,2.75-1A21.91,21.91,0,0,1,59,45.8Zm-6.8,5.48c0,.93.18,1.5.52,1.69a6.19,6.19,0,0,0,2.51.3,11.09,11.09,0,0,0,2.69-.21,1.24,1.24,0,0,0,.9-.63A3.92,3.92,0,0,0,59,49.4V47.85a29.48,29.48,0,0,0-3.71-.26,5.29,5.29,0,0,0-2.4.38,1.69,1.69,0,0,0-.69,1.59Zm0,7.87v2.15A1.26,1.26,0,0,0,53,60.91a7.65,7.65,0,0,0,2.75.36,5.81,5.81,0,0,0,2.56-.38A1.57,1.57,0,0,0,59,59.41a1.63,1.63,0,0,0-.63-1.49,4.66,4.66,0,0,0-2.28-.39Z"/><path class="cls-1" d="M66.73,50.81v6.48c0,.61-.39.91-1.16.91s-1.17-.3-1.17-.91V50.51a8,8,0,0,1,.41-3.24,4.5,4.5,0,0,1,.77-1.1c.56-.51,2-.77,4.19-.77a7.33,7.33,0,0,1,2.26.23.83.83,0,0,1,.57.83,1.22,1.22,0,0,1-.32.9,1.1,1.1,0,0,1-.8.29l-1.71-.11a7.92,7.92,0,0,0-2,.15,1.78,1.78,0,0,0-.58.29,2,2,0,0,0-.28.59,3.12,3.12,0,0,0-.17.91C66.74,49.8,66.73,50.24,66.73,50.81Z"/><path class="cls-1" d="M84.25,56c.53,0,.8.32.8,1a1.06,1.06,0,0,1-.8,1.17,20.61,20.61,0,0,1-4.23.3,7.24,7.24,0,0,1-4.25-1,3.81,3.81,0,0,1-1.29-3.24V49.44c0-1.59.38-2.66,1.16-3.21s2.23-.83,4.36-.83,3.56.27,4.3.79,1.12,1.61,1.12,3.25V51.5a1.46,1.46,0,0,1-.34,1,1.19,1.19,0,0,1-.88.35H76.81v1.52c0,1.28,1.11,1.92,3.34,1.91a19.29,19.29,0,0,0,2.54-.15A13.61,13.61,0,0,1,84.25,56Zm-7.44-6.52v1.34h6.27V49.45a1.66,1.66,0,0,0-.63-1.52A5.34,5.34,0,0,0,80,47.54a5.63,5.63,0,0,0-2.49.37A1.64,1.64,0,0,0,76.81,49.45Z"/><path class="cls-1" d="M16.67,85.58v-.29a.94.94,0,0,0-.61-.9,5.13,5.13,0,0,0-2.12-.28,13.39,13.39,0,0,1-3.35-.47,2.82,2.82,0,0,1-1.52-1,3.33,3.33,0,0,1-.61-2.09v-.21a3.09,3.09,0,0,1,1.31-2.93,8.23,8.23,0,0,1,4-.75,16.56,16.56,0,0,1,4,.34,1.05,1.05,0,0,1,.8,1.17c0,.64-.26,1-.8,1a14.78,14.78,0,0,1-1.63-.16,17.93,17.93,0,0,0-2.61-.18,6.7,6.7,0,0,0-2,.23c-.43.15-.64.58-.64,1.28v.24c0,.93,1,1.42,2.89,1.48.8,0,1.61.1,2.43.2a3.67,3.67,0,0,1,2.05.9A2.66,2.66,0,0,1,19,85.26v.32a3.51,3.51,0,0,1-1.32,3.19,8.31,8.31,0,0,1-4.25.83,18.76,18.76,0,0,1-4.21-.33,1,1,0,0,1-.8-1.17c0-.64.27-1,.8-1,.32,0,.93.06,1.85.17a22.18,22.18,0,0,0,2.66.16,5.48,5.48,0,0,0,2.12-.35A1.48,1.48,0,0,0,16.67,85.58Z"/><path class="cls-1" d="M31.92,87.17c.53,0,.8.32.8,1a1.06,1.06,0,0,1-.8,1.17,20.61,20.61,0,0,1-4.23.3,7.24,7.24,0,0,1-4.25-1,3.81,3.81,0,0,1-1.29-3.24V80.64c0-1.59.38-2.66,1.16-3.21s2.23-.83,4.36-.83,3.56.27,4.3.79,1.12,1.61,1.12,3.25V82.7a1.46,1.46,0,0,1-.34,1,1.19,1.19,0,0,1-.88.35H24.48v1.52c0,1.28,1.11,1.92,3.34,1.91a19.29,19.29,0,0,0,2.54-.15A13.61,13.61,0,0,1,31.92,87.17Zm-7.44-6.52V82h6.27V80.65a1.66,1.66,0,0,0-.63-1.52,5.34,5.34,0,0,0-2.48-.39,5.63,5.63,0,0,0-2.49.37A1.64,1.64,0,0,0,24.48,80.65Z"/><path class="cls-1" d="M39.36,79.18c-.29.3-.43,1.24-.43,2.81v6.49c0,.61-.39.92-1.16.92s-1.17-.3-1.18-.91V81.71a13.42,13.42,0,0,1,.23-2.8,2.5,2.5,0,0,1,.92-1.52,3.4,3.4,0,0,1,1.59-.65,25.89,25.89,0,0,1,2.89-.14c2.18,0,3.56.26,4.14.8a3.44,3.44,0,0,1,1,2.29,19,19,0,0,1,.09,2v6.78c0,.61-.39.91-1.17.91s-1.17-.31-1.17-.92V82c0-1.56-.14-2.49-.44-2.8s-1.19-.45-2.67-.45S39.65,78.88,39.36,79.18Z"/><path class="cls-1" d="M59,85.58v-.29a.94.94,0,0,0-.61-.9,5.16,5.16,0,0,0-2.12-.28,13.33,13.33,0,0,1-3.35-.47,2.84,2.84,0,0,1-1.53-1,3.39,3.39,0,0,1-.6-2.09v-.21A3.09,3.09,0,0,1,52,77.38a8.25,8.25,0,0,1,4-.75A16.62,16.62,0,0,1,60,77a1.06,1.06,0,0,1,.8,1.17c0,.64-.27,1-.8,1a14.89,14.89,0,0,1-1.64-.16,17.79,17.79,0,0,0-2.6-.18,6.65,6.65,0,0,0-2,.23c-.43.15-.65.58-.65,1.28v.24c0,.93,1,1.42,2.9,1.48.8,0,1.61.1,2.42.2a3.7,3.7,0,0,1,2.06.9,2.72,2.72,0,0,1,.84,2.17v.32A3.49,3.49,0,0,1,60,88.77a8.29,8.29,0,0,1-4.25.83,18.71,18.71,0,0,1-4.2-.33,1,1,0,0,1-.8-1.17c0-.64.27-1,.8-1,.31,0,.93.06,1.84.17a22.22,22.22,0,0,0,2.67.16,5.48,5.48,0,0,0,2.12-.35A1.48,1.48,0,0,0,59,85.58Z"/><path class="cls-1" d="M64.64,73.8a1.19,1.19,0,0,1,.38-.9,1.25,1.25,0,0,1,.89-.4,1.21,1.21,0,0,1,.9.4,1.34,1.34,0,0,1,.37.91,1.32,1.32,0,0,1-1.27,1.27A1.27,1.27,0,0,1,65,74.7,1.29,1.29,0,0,1,64.64,73.8Zm2.43,3.92V88.49c0,.61-.38.91-1.16.91s-1.17-.3-1.17-.91V77.72c0-.61.39-.91,1.17-.91S67.07,77.11,67.07,77.72Z"/><path class="cls-1" d="M75.27,89.4a3.27,3.27,0,0,1-2.48-.76,3.83,3.83,0,0,1-.7-2.61V78.88H70.45c-.52,0-.79-.35-.79-1s.27-1,.79-1h1.64V73.51c0-.6.39-.91,1.17-.91s1.16.31,1.16.91v3.31h3.32c.52,0,.79.34.79,1s-.27,1-.79,1H74.42V86.2c0,.71.43,1.07,1.27,1.07l2.21-.13c.54,0,.82.31.82.94a1.19,1.19,0,0,1-.84,1.24C77.32,89.37,76.45,89.4,75.27,89.4Z"/><path class="cls-1" d="M81.23,73.8a1.23,1.23,0,0,1,.38-.9,1.25,1.25,0,0,1,.89-.4,1.18,1.18,0,0,1,.9.4,1.29,1.29,0,0,1,.37.91,1.27,1.27,0,0,1-2.54,0Zm2.44,3.92V88.49c0,.61-.39.91-1.17.91s-1.17-.3-1.17-.91V77.72c0-.61.39-.91,1.17-.91S83.67,77.11,83.67,77.72Z"/><path class="cls-1" d="M92.26,89.53A2,2,0,0,1,91,89.11a2.31,2.31,0,0,1-.79-1.06l-3.68-9.91q-.08-.39-.09-.42c0-.61.38-.91,1.13-.9a1.08,1.08,0,0,1,1.14.67l3.48,9.78h.13l3.49-9.78c.17-.45.59-.67,1.26-.67s1,.3,1,.9c0,0,0,.16-.08.42l-3.69,9.91a2.17,2.17,0,0,1-.79,1.07A2.1,2.1,0,0,1,92.26,89.53Z"/><path class="cls-1" d="M8.93,105a1.23,1.23,0,0,1,.38-.9,1.25,1.25,0,0,1,.89-.4,1.18,1.18,0,0,1,.9.4,1.29,1.29,0,0,1,.37.91,1.23,1.23,0,0,1-.38.89,1.27,1.27,0,0,1-2.16-.9Zm2.44,3.92v10.77c0,.61-.39.91-1.17.91S9,120.3,9,119.69V108.92c0-.61.39-.91,1.17-.91S11.37,108.31,11.37,108.92Z"/><path class="cls-1" d="M18,110.38c-.29.3-.43,1.24-.43,2.81v6.49c0,.61-.39.92-1.16.92s-1.17-.3-1.18-.91v-6.78a13.42,13.42,0,0,1,.23-2.8,2.49,2.49,0,0,1,.91-1.52,3.48,3.48,0,0,1,1.6-.65,25.6,25.6,0,0,1,2.89-.14c2.18,0,3.56.26,4.13.8a3.4,3.4,0,0,1,1,2.29,19,19,0,0,1,.09,2v6.78c0,.61-.39.91-1.17.91s-1.17-.31-1.17-.92v-6.49c0-1.56-.15-2.49-.44-2.8s-1.19-.45-2.67-.45S18.26,110.08,18,110.38Z"/><path class="cls-1" d="M33.22,107.89V108h3.3c.53,0,.8.34.8,1s-.27,1-.8,1h-3.3v9.61c0,.61-.39.91-1.17.91s-1.17-.3-1.17-.91v-9.61H29.2c-.53,0-.8-.35-.8-1s.27-1,.8-1h1.68v-.45c0-1.78.3-3,.91-3.54a5.09,5.09,0,0,1,3.43-.85,7.24,7.24,0,0,1,2.26.23.81.81,0,0,1,.57.8,1.08,1.08,0,0,1-.31.88,1.15,1.15,0,0,1-.8.3l-1.72-.08a2.2,2.2,0,0,0-1.64.44A3.92,3.92,0,0,0,33.22,107.89Z"/><path class="cls-1" d="M39.28,114.42a16,16,0,0,1,.29-3.37,3.62,3.62,0,0,1,2.76-3,11.73,11.73,0,0,1,2.72-.26,11.67,11.67,0,0,1,2.72.26,3.71,3.71,0,0,1,1.76,1,4.09,4.09,0,0,1,1,2,16,16,0,0,1,.29,3.37,15.57,15.57,0,0,1-.29,3.34,3.51,3.51,0,0,1-1,1.93,4,4,0,0,1-1.74.9,13.07,13.07,0,0,1-2.72.22,13.81,13.81,0,0,1-2.71-.21,3.9,3.9,0,0,1-1.76-.9,3.46,3.46,0,0,1-1-2A16.14,16.14,0,0,1,39.28,114.42Zm2.62-3a6.64,6.64,0,0,0-.28,2.33q0,1.65.09,2.64a3.15,3.15,0,0,0,.66,1.71c.22.3.72.47,1.52.53l1.16,0c1.52,0,2.42-.18,2.69-.55a3.44,3.44,0,0,0,.67-1.72c.06-.63.09-1.29.09-2q0-3-.57-3.66a3.08,3.08,0,0,0-.44-.48,3.18,3.18,0,0,0-1.83-.35c-.94,0-1.53,0-1.78,0-.8.05-1.3.23-1.51.54A5.33,5.33,0,0,0,41.9,111.44Z"/><path class="cls-1" d="M56.54,113.21v6.48c0,.61-.39.91-1.16.91s-1.17-.3-1.18-.91v-6.78a8,8,0,0,1,.42-3.24,4.52,4.52,0,0,1,.77-1.11c.55-.5,2-.76,4.18-.76a7.24,7.24,0,0,1,2.26.23.83.83,0,0,1,.57.83,1.18,1.18,0,0,1-.32.9,1.08,1.08,0,0,1-.79.29l-1.72-.11a7.88,7.88,0,0,0-2,.15,2,2,0,0,0-.59.29,2.73,2.73,0,0,0-.28.59,3.11,3.11,0,0,0-.16.91C56.54,112.2,56.54,112.64,56.54,113.21Z"/><path class="cls-1" d="M77.43,109.94a13.86,13.86,0,0,0-1.51,0,1.39,1.39,0,0,0-.81.38,1.33,1.33,0,0,0-.42.86,16.5,16.5,0,0,0-.06,1.66v6.79c0,.61-.39.92-1.17.92s-1.17-.31-1.17-.92v-7.14c0-1.19-.16-1.93-.47-2.2a3.2,3.2,0,0,0-1.95-.4c-1,0-1.62,0-1.92,0a1.24,1.24,0,0,0-.8.42,1.54,1.54,0,0,0-.38.94c0,.38,0,1,0,1.84v6.49c0,.61-.39.92-1.16.92s-1.17-.3-1.18-.91v-6.78a8.46,8.46,0,0,1,.6-3.75,2.85,2.85,0,0,1,2.45-1.27c.48,0,1.18-.08,2.08-.09,2,0,3.33.25,3.95.73.61-.48,1.93-.72,4-.73.89,0,1.58,0,2.07.08a2.9,2.9,0,0,1,2.42,1.21,8.42,8.42,0,0,1,.64,3.82v6.78c0,.61-.39.91-1.17.91s-1.17-.31-1.17-.92v-6.49c0-.84,0-1.46-.06-1.84a1.6,1.6,0,0,0-.38-.94A1.24,1.24,0,0,0,79,110,14.18,14.18,0,0,0,77.43,109.94Z"/><path class="cls-1" d="M87.51,110.28c-.54,0-.81-.32-.81-1a1,1,0,0,1,.81-1.16,18,18,0,0,1,4.22-.35c2,0,3.29.32,4,.94A4.22,4.22,0,0,1,96.77,112v5q0,2.35-1.14,3.06c-.77.48-2.22.71-4.38.71s-3.6-.23-4.33-.71-1.11-1.49-1.11-3a4.65,4.65,0,0,1,.84-3.21c.57-.6,1.73-.89,3.47-.88h4.31v-1.35a1.45,1.45,0,0,0-.59-1.32,4.54,4.54,0,0,0-2.12-.35,18.47,18.47,0,0,0-2.66.17A9.63,9.63,0,0,1,87.51,110.28Zm6.92,6.94V115H90.82a4.59,4.59,0,0,0-2.18.33c-.33.22-.49.72-.49,1.5s.21,1.29.62,1.51a6.38,6.38,0,0,0,2.48.32,7.31,7.31,0,0,0,2.51-.28A1.14,1.14,0,0,0,94.43,117.22Z"/><path class="cls-1" d="M108.22,116.78v-.29a.94.94,0,0,0-.61-.9,5.16,5.16,0,0,0-2.12-.28,13.33,13.33,0,0,1-3.35-.47,2.78,2.78,0,0,1-1.52-1,3.33,3.33,0,0,1-.61-2.09v-.21a3.09,3.09,0,0,1,1.3-2.93,8.28,8.28,0,0,1,4-.75,16.56,16.56,0,0,1,4,.34,1.06,1.06,0,0,1,.8,1.17c0,.64-.27,1-.8,1a14.89,14.89,0,0,1-1.64-.16A17.79,17.79,0,0,0,105,110a6.65,6.65,0,0,0-2,.23c-.43.15-.65.58-.65,1.28v.24c0,.93,1,1.42,2.9,1.48.8,0,1.61.1,2.42.2a3.7,3.7,0,0,1,2.06.9,2.72,2.72,0,0,1,.84,2.17v.32a3.51,3.51,0,0,1-1.32,3.19,8.36,8.36,0,0,1-4.26.83,18.71,18.71,0,0,1-4.2-.33,1,1,0,0,1-.8-1.16c0-.65.27-1,.8-1,.31,0,.93.06,1.84.17a22.34,22.34,0,0,0,2.67.16,5.48,5.48,0,0,0,2.12-.35A1.48,1.48,0,0,0,108.22,116.78Z"/><path class="cls-1" d="M112.92,125.67H112c-.53,0-.8-.36-.8-1.07s.27-1.07.8-1.07h.89a1.15,1.15,0,0,0,.76-.26,1,1,0,0,0,.36-.8V108.9c0-.61.39-.92,1.17-.92s1.16.31,1.16.92v13.39a3.86,3.86,0,0,1-.68,2.6A3.71,3.71,0,0,1,112.92,125.67Zm1-20.67a1.19,1.19,0,0,1,.38-.9,1.25,1.25,0,0,1,.89-.4,1.21,1.21,0,0,1,.9.4,1.34,1.34,0,0,1,.37.91,1.23,1.23,0,0,1-.38.89,1.27,1.27,0,0,1-2.16-.9Z"/><path class="cls-1" d="M120.08,114.42a15.31,15.31,0,0,1,.29-3.37,3.59,3.59,0,0,1,2.76-3,14.31,14.31,0,0,1,5.43,0,3.66,3.66,0,0,1,1.76,1,4.1,4.1,0,0,1,1,2,16,16,0,0,1,.28,3.37,15.67,15.67,0,0,1-.28,3.34,3.64,3.64,0,0,1-1,1.93,4,4,0,0,1-1.75.9,13,13,0,0,1-2.71.22,13.93,13.93,0,0,1-2.72-.21,3.9,3.9,0,0,1-1.76-.9,3.58,3.58,0,0,1-1-2A16.25,16.25,0,0,1,120.08,114.42Zm2.61-3a6.89,6.89,0,0,0-.28,2.33q0,1.65.09,2.64a3.15,3.15,0,0,0,.66,1.71,2.07,2.07,0,0,0,1.52.53l1.17,0c1.52,0,2.41-.18,2.68-.55a3.46,3.46,0,0,0,.68-1.72c0-.63.08-1.29.08-2q0-3-.57-3.66a2.66,2.66,0,0,0-.44-.48,3.17,3.17,0,0,0-1.82-.35c-.94,0-1.54,0-1.79,0-.8.05-1.3.23-1.51.54A6.14,6.14,0,0,0,122.69,111.44Z"/><path class="cls-1" d="M137.76,110.38c-.29.3-.43,1.24-.43,2.81v6.49c0,.61-.39.92-1.16.92s-1.17-.3-1.18-.91v-6.78a13.42,13.42,0,0,1,.23-2.8,2.5,2.5,0,0,1,.92-1.52,3.44,3.44,0,0,1,1.6-.65,25.53,25.53,0,0,1,2.88-.14c2.18,0,3.56.26,4.14.8a3.44,3.44,0,0,1,1,2.29,19,19,0,0,1,.09,2v6.78c0,.61-.39.91-1.17.91s-1.16-.31-1.16-.92v-6.49c0-1.56-.15-2.49-.45-2.8s-1.19-.45-2.67-.45S138.05,110.08,137.76,110.38Z"/><path class="cls-1" d="M8.93,136.2a1.23,1.23,0,0,1,.38-.9,1.25,1.25,0,0,1,.89-.4,1.18,1.18,0,0,1,.9.4,1.29,1.29,0,0,1,.37.91,1.27,1.27,0,0,1-2.54,0Zm2.44,3.92v10.77c0,.61-.39.91-1.17.91S9,151.5,9,150.89V140.12c0-.61.39-.91,1.17-.91S11.37,139.51,11.37,140.12Z"/><path class="cls-1" d="M29.29,148v-.29a.94.94,0,0,0-.61-.9,5.13,5.13,0,0,0-2.12-.28,13.39,13.39,0,0,1-3.35-.47,2.78,2.78,0,0,1-1.52-1,3.33,3.33,0,0,1-.61-2.09v-.21a3.09,3.09,0,0,1,1.31-2.93,8.23,8.23,0,0,1,4-.75,16.56,16.56,0,0,1,4,.34,1.05,1.05,0,0,1,.8,1.17c0,.64-.26,1-.8,1a14.57,14.57,0,0,1-1.63-.16,17.93,17.93,0,0,0-2.61-.18,6.65,6.65,0,0,0-2,.23c-.43.15-.64.58-.64,1.28v.24c0,.93,1,1.42,2.89,1.48.8,0,1.61.1,2.42.2a3.67,3.67,0,0,1,2.06.9,2.66,2.66,0,0,1,.84,2.17V148a3.51,3.51,0,0,1-1.32,3.19,8.31,8.31,0,0,1-4.25.83,18.76,18.76,0,0,1-4.21-.33,1,1,0,0,1-.8-1.17c0-.64.27-1,.8-1,.32,0,.93.06,1.84.17a24.79,24.79,0,0,0,2.67.16,5.48,5.48,0,0,0,2.12-.35A1.48,1.48,0,0,0,29.29,148Z"/><path class="cls-1" d="M37.18,135.32v10L43,139.47a1.2,1.2,0,0,1,.86-.39,1.11,1.11,0,0,1,.82.33,1,1,0,0,1,.33.76,1.18,1.18,0,0,1-.42.86l-3.35,3.13,4.14,5.77a1.44,1.44,0,0,1,.25.78,1,1,0,0,1-.37.76,1.21,1.21,0,0,1-.86.36.86.86,0,0,1-.76-.42l-4.07-5.69-2.38,2.21v3c0,.61-.39.91-1.16.91s-1.17-.3-1.18-.91V135.32c0-.63.4-.94,1.18-.94S37.18,134.69,37.18,135.32Z"/><path class="cls-1" d="M51,156.87c-.67,0-1-.31-1-.91,0,0,0-.15.08-.42l1.4-3.74a2.18,2.18,0,0,1-1.27-1.35l-3.69-9.91c-.05-.26-.08-.4-.08-.42,0-.61.34-.91,1-.91s1.09.22,1.26.68l3.49,9.78h.13l3.48-9.78c.17-.45.59-.67,1.25-.67s1,.3,1,.9c0,0,0,.16-.08.42l-5.71,15.65C52,156.64,51.62,156.87,51,156.87Z"/><path class="cls-1" d="M70,149.57c.53,0,.8.32.8,1a1.06,1.06,0,0,1-.8,1.17,20.61,20.61,0,0,1-4.23.3,7.24,7.24,0,0,1-4.25-1,3.81,3.81,0,0,1-1.29-3.24V143c0-1.59.39-2.66,1.16-3.21s2.23-.83,4.36-.83,3.56.27,4.3.79,1.12,1.61,1.12,3.25v2.06a1.46,1.46,0,0,1-.34,1,1.19,1.19,0,0,1-.88.35H62.54V148c0,1.28,1.11,1.92,3.34,1.91a19.18,19.18,0,0,0,2.54-.15A13.81,13.81,0,0,1,70,149.57Zm-7.44-6.52v1.34h6.27v-1.34a1.66,1.66,0,0,0-.63-1.52,5.34,5.34,0,0,0-2.48-.39,5.63,5.63,0,0,0-2.49.37A1.64,1.64,0,0,0,62.54,143.05Z"/><path class="cls-1" d="M77.42,141.58c-.29.3-.43,1.24-.43,2.81v6.49c0,.61-.39.92-1.16.92s-1.17-.3-1.18-.91v-6.78a13.42,13.42,0,0,1,.23-2.8,2.5,2.5,0,0,1,.92-1.52,3.4,3.4,0,0,1,1.6-.65,25.53,25.53,0,0,1,2.88-.14c2.18,0,3.56.26,4.14.8a3.44,3.44,0,0,1,1,2.29,19,19,0,0,1,.09,2v6.78c0,.61-.39.91-1.17.91s-1.17-.31-1.17-.92v-6.49c0-1.56-.14-2.49-.44-2.8s-1.19-.45-2.67-.45S77.71,141.28,77.42,141.58Z"/><path class="cls-1" d="M95.63,147v.24q0,1-1.17,1t-1.17-1V147a5.61,5.61,0,0,1,.36-2.11,3.08,3.08,0,0,1,.91-1.31,13.2,13.2,0,0,1,2.37-1.47,2.07,2.07,0,0,0,1.22-1.94c0-1.14-.19-1.85-.56-2.14a4.11,4.11,0,0,0-2.29-.43,28.58,28.58,0,0,0-3.19.16c-1,.11-1.62.17-1.91.17-.55,0-.82-.33-.82-1a1.06,1.06,0,0,1,.81-1.17,21.12,21.12,0,0,1,4.57-.33c2.2,0,3.71.33,4.51,1s1.21,1.92,1.22,3.81a5.46,5.46,0,0,1-.35,2.07,2.42,2.42,0,0,1-.89,1.17c-.35.22-.73.43-1.13.63s-.79.38-1.14.52a2.13,2.13,0,0,0-1,.83A2.72,2.72,0,0,0,95.63,147ZM93,150.54a1.55,1.55,0,0,1,.4-1.08,1.36,1.36,0,0,1,1-.44,1.57,1.57,0,0,1,1.08.44,1.4,1.4,0,0,1,.49,1.07,1.33,1.33,0,0,1-.49,1.05,1.62,1.62,0,0,1-1.09.42,1.37,1.37,0,0,1-1-.4A1.49,1.49,0,0,1,93,150.54Z"/></svg>