<svg id="Layer_1" data-name="Layer 1" xmlns="http://www.w3.org/2000/svg" viewBox="0 0 320 160"><defs><style>.cls-1{fill:#d80201;}</style></defs><title>text</title><path class="cls-1" d="M32.86,66.35c-1.62,1.75-4.17,1.47-6.35,1.47V74H23.26V57.33h4.85a6,6,0,0,1,4.4,1.27,5.31,5.31,0,0,1,1.7,4A5.48,5.48,0,0,1,32.86,66.35ZM30,60.68a3.88,3.88,0,0,0-2.37-.52H26.51V65h1.33c1.62,0,3-.52,3-2.4A2.47,2.47,0,0,0,30,60.68Z"/><path class="cls-1" d="M43.23,65.93a2.68,2.68,0,0,0-1.45-.37c-2,0-2.6,1.45-2.6,3.25V74h-3V63.18h3V64.8a3.53,3.53,0,0,1,4.47-1.72Z"/><path class="cls-1" d="M46.63,60.43a1.82,1.82,0,0,1,0-3.65,1.82,1.82,0,0,1,0,3.65ZM45.11,74V63.18h3V74Z"/><path class="cls-1" d="M54.43,74.35a5.75,5.75,0,0,1-4.12-1.8l1.6-1.85A3.51,3.51,0,0,0,54.46,72a1.27,1.27,0,0,0,1.38-1.2c0-1.85-4.82-.92-4.82-4.57,0-2.2,1.83-3.42,3.87-3.42a5.57,5.57,0,0,1,3.52,1.15l-1.5,1.77a3,3,0,0,0-1.8-.73c-.53,0-1.15.33-1.15.92,0,1.57,5,.88,5,4.57C59,73,56.76,74.35,54.43,74.35Z"/><path class="cls-1" d="M75.63,74V72.58a4.18,4.18,0,0,1-3.52,1.77c-3.25,0-5.32-2.7-5.32-5.8s2.07-5.72,5.25-5.72a4.51,4.51,0,0,1,3.6,1.72V55.28h3V74Zm-2.7-8.45a3,3,0,1,0,3,3A3,3,0,0,0,72.93,65.55Z"/><path class="cls-1" d="M83.06,60.43a1.82,1.82,0,1,1,0-3.65,1.82,1.82,0,0,1,0,3.65ZM81.53,74V63.18h3V74Z"/><path class="cls-1" d="M94.48,65.93A2.68,2.68,0,0,0,93,65.55c-2,0-2.6,1.45-2.6,3.25V74h-3V63.18h3V64.8a3.53,3.53,0,0,1,4.47-1.72Z"/><path class="cls-1" d="M98.93,69.08c0,1.67.85,2.9,2.65,2.9a2.84,2.84,0,0,0,2.57-1.45L107,71a5.3,5.3,0,0,1-5.32,3.37,5.43,5.43,0,0,1-5.8-5.77,5.36,5.36,0,0,1,5.67-5.75c3.57,0,5.52,2.4,5.52,5.85v.4Zm2.62-4.1A2.46,2.46,0,0,0,99,67.15h5.12A2.51,2.51,0,0,0,101.55,65Z"/><path class="cls-1" d="M116.78,74l-4.07-4.65-.33.33V74h-3V55.28h3V67.13l4-3.95h4.1l-5.07,4.75L120.93,74Z"/><path class="cls-1" d="M125.33,65.78V74h-3V65.78h-1.2v-2.6h1.2v-3.7h3v3.7h2.12v2.6Z"/><path class="cls-1" d="M130.71,74.32a1.95,1.95,0,1,1,1.95-1.95A2,2,0,0,1,130.71,74.32Zm-1.55-5.1V57.33h3.1v11.9Z"/><path class="cls-1" d="M34.55,99l-1.42-3.52h-6.8L24.81,99H21.36l7.22-17H31l7,17ZM29.78,86.85l-2.42,6h4.77Z"/><path class="cls-1" d="M39.53,99V80.28h3V99Z"/><path class="cls-1" d="M45.46,99V80.28h3V99Z"/><path class="cls-1" d="M59.66,99V97.58a4.18,4.18,0,0,1-3.52,1.77c-3.25,0-5.32-2.7-5.32-5.8s2.07-5.72,5.25-5.72a4.51,4.51,0,0,1,3.6,1.72V88.18h3V99ZM57,90.55a3,3,0,1,0,3,3A3,3,0,0,0,57,90.55Z"/><path class="cls-1" d="M79.26,99V93.08c0-1.5-.33-2.67-2.07-2.67s-2.3,1.45-2.3,3V99h-3V80.28h3v9.3a3.94,3.94,0,0,1,3.4-1.75,4.14,4.14,0,0,1,3.15,1.33,4.29,4.29,0,0,1,.85,3V99Z"/><path class="cls-1" d="M90.41,99.35c-3,0-5.22-1.32-5.22-4.55V88.18h3V94.3c0,1.47.62,2.47,2.2,2.47s2.2-1,2.2-2.47V88.18h3V94.8C95.65,98,93.38,99.35,90.41,99.35Z"/><path class="cls-1" d="M102,99.35a5.76,5.76,0,0,1-4.12-1.8l1.6-1.85A3.51,3.51,0,0,0,102,97a1.27,1.27,0,0,0,1.37-1.2c0-1.85-4.82-.92-4.82-4.57,0-2.2,1.82-3.42,3.87-3.42A5.58,5.58,0,0,1,106,88.93l-1.5,1.78a3,3,0,0,0-1.8-.73c-.52,0-1.15.33-1.15.92,0,1.58,5,.88,5,4.57C106.53,98,104.33,99.35,102,99.35Z"/><path class="cls-1" d="M123.21,99V97.58a4.18,4.18,0,0,1-3.52,1.77c-3.25,0-5.32-2.7-5.32-5.8s2.07-5.72,5.25-5.72a4.51,4.51,0,0,1,3.6,1.72V88.18h3V99ZM118,86.15a1.8,1.8,0,1,1,0-3.6,1.8,1.8,0,0,1,0,3.6Zm2.52,4.4a3,3,0,1,0,3,3A3,3,0,0,0,120.51,90.55Zm2.67-4.4a1.83,1.83,0,0,1-1.8-1.8,1.8,1.8,0,1,1,1.8,1.8Z"/><path class="cls-1" d="M136.23,90.93a2.67,2.67,0,0,0-1.45-.37c-2,0-2.6,1.45-2.6,3.25V99h-3V88.18h3V89.8a3.53,3.53,0,0,1,4.47-1.72Z"/><path class="cls-1" d="M149.5,99.4a6.49,6.49,0,0,1-5.72-3.17l2.1-2a3.82,3.82,0,0,0,3.5,2.22A2.37,2.37,0,0,0,152,94.08c0-3.42-7.32-1.8-7.32-7.17a4.89,4.89,0,0,1,5.2-4.85,7.31,7.31,0,0,1,4.87,1.85L153,86.13a3.37,3.37,0,0,0-2.7-1.35c-1.07,0-2.32.67-2.32,1.87,0,2.83,7.32,1.42,7.32,7.25C155.3,97.3,152.8,99.4,149.5,99.4Z"/><path class="cls-1" d="M163.21,99.22h-1.4l-5.52-11h3.4l2.85,6.1,2.85-6.1h3.4Z"/><path class="cls-1" d="M178,99V97.58a4.18,4.18,0,0,1-3.52,1.77c-3.25,0-5.32-2.7-5.32-5.8s2.07-5.72,5.25-5.72a4.51,4.51,0,0,1,3.6,1.72V88.18h3V99Zm-2.7-8.45a3,3,0,1,0,3,3A3,3,0,0,0,175.28,90.55Z"/><path class="cls-1" d="M191.33,99V93c0-1.47-.33-2.6-2-2.6-1.87,0-2.33,1.38-2.33,3V99h-3V88.18h3V89.5a4,4,0,0,1,3.4-1.67,3.74,3.74,0,0,1,4,4.3V99Z"/><path class="cls-1" d="M199.78,94.08c.05,1.67.85,2.9,2.65,2.9A2.84,2.84,0,0,0,205,95.53l2.8.45a5.31,5.31,0,0,1-5.32,3.37,5.42,5.42,0,0,1-5.8-5.77,5.36,5.36,0,0,1,5.67-5.75c3.57,0,5.52,2.4,5.52,5.85v.4Zm2.63-4.1a2.46,2.46,0,0,0-2.52,2.17H205A2.51,2.51,0,0,0,202.41,90Z"/><path class="cls-1" d="M217.6,99V93c0-1.47-.33-2.6-2-2.6s-2.32,1.38-2.32,3V99h-3V88.18h3V89.5a4,4,0,0,1,3.4-1.67,3.74,3.74,0,0,1,4,4.3V99Z"/><path class="cls-1" d="M237.35,99V93.08c0-1.27-.2-2.67-1.8-2.67-1.77,0-2.07,1.63-2.07,3V99h-3V93.25a4.83,4.83,0,0,0-.22-1.8,1.75,1.75,0,0,0-1.62-1,2,2,0,0,0-1.7,1,4.49,4.49,0,0,0-.35,2.07V99h-3V88.18h3V89.4a4.15,4.15,0,0,1,3.3-1.58,3.68,3.68,0,0,1,3.37,2,4,4,0,0,1,3.55-2,3.56,3.56,0,0,1,3,1.55,4.77,4.77,0,0,1,.58,2.62v7Z"/><path class="cls-1" d="M251.55,99V97.58A4.18,4.18,0,0,1,248,99.35c-3.25,0-5.32-2.7-5.32-5.8s2.07-5.72,5.25-5.72a4.51,4.51,0,0,1,3.6,1.72V88.18h3V99Zm-5.22-12.85a1.8,1.8,0,1,1,0-3.6,1.8,1.8,0,1,1,0,3.6Zm2.52,4.4a3,3,0,1,0,3,3A3,3,0,0,0,248.85,90.55Zm2.67-4.4a1.82,1.82,0,0,1-1.8-1.8,1.8,1.8,0,1,1,1.8,1.8Z"/><path class="cls-1" d="M264.58,90.93a2.67,2.67,0,0,0-1.45-.37c-2,0-2.6,1.45-2.6,3.25V99h-3V88.18h3V89.8A3.53,3.53,0,0,1,265,88.08Z"/><path class="cls-1" d="M273.93,99l-4.07-4.65-.33.33V99h-3V80.28h3V92.13l4-3.95h4.1l-5.07,4.75L278.08,99Z"/><path class="cls-1" d="M282.48,90.78V99h-3V90.78h-1.2v-2.6h1.2v-3.7h3v3.7h2.12v2.6Z"/><path class="cls-1" d="M294.45,99V97.58a4.18,4.18,0,0,1-3.52,1.77c-3.25,0-5.32-2.7-5.32-5.8s2.07-5.72,5.25-5.72a4.51,4.51,0,0,1,3.6,1.72V88.18h3V99Zm-2.7-8.45a3,3,0,1,0,3,3A3,3,0,0,0,291.75,90.55Z"/></svg>