<svg id="Layer_1" data-name="Layer 1" xmlns="http://www.w3.org/2000/svg" viewBox="0 0 320 160"><defs><style>.cls-1{fill:#d80201;}</style></defs><title>text</title><path class="cls-1" d="M152.52,116a4.16,4.16,0,0,1-2.93.92H148v-8h1.63a4.29,4.29,0,0,1,3,.94,3.9,3.9,0,0,1,1.37,3.07A3.84,3.84,0,0,1,152.52,116Zm-2.88-6.24h-.78v6.33h.78a3.35,3.35,0,0,0,2.29-.73A3.15,3.15,0,0,0,153,113,3.08,3.08,0,0,0,149.64,109.79Z"/><path class="cls-1" d="M155.78,110.7a.61.61,0,1,1,.61-.61A.61.61,0,0,1,155.78,110.7Zm-.43,6.25v-5h.85v5Z"/><path class="cls-1" d="M162,118.8a2.41,2.41,0,0,1-2,.92,2.24,2.24,0,0,1-2.42-2.28h.85A1.49,1.49,0,0,0,160,119c1.2,0,1.6-.9,1.6-2v-.73a2.25,2.25,0,0,1-1.75.83,2.63,2.63,0,0,1,0-5.23,2.13,2.13,0,0,1,1.72.82V112h.86v4.87A3,3,0,0,1,162,118.8Zm-2-6.18a1.71,1.71,0,0,0-1.63,1.88,1.68,1.68,0,0,0,1.63,1.81,1.86,1.86,0,0,0,0-3.69Z"/><path class="cls-1" d="M164.71,114.64a1.61,1.61,0,0,0,1.58,1.68,1.72,1.72,0,0,0,1.54-1l.72.4a2.48,2.48,0,0,1-2.28,1.42,2.63,2.63,0,0,1,0-5.24,2.38,2.38,0,0,1,2.38,2.62v.17Zm1.54-2a1.53,1.53,0,0,0-1.47,1.28h2.93A1.49,1.49,0,0,0,166.25,112.63Z"/><path class="cls-1" d="M172.25,112.84a.75.75,0,0,0-.5-.17.92.92,0,0,0-.43.11c-.55.3-.55,1-.55,1.55V117h-.85v-5h.85v.54a1.33,1.33,0,0,1,1.13-.66,1.42,1.42,0,0,1,.77.2Z"/><path class="cls-1" d="M176.58,117V114c0-.78-.11-1.39-1-1.39-1.1,0-1.24,1-1.24,1.83V117h-.85v-5h.85v.6a1.8,1.8,0,0,1,2.86,0,2.28,2.28,0,0,1,.29,1.32V117Z"/><path class="cls-1" d="M182.88,117v-.7a2.13,2.13,0,0,1-1.73.84,2.47,2.47,0,0,1-2.4-2.65,2.42,2.42,0,0,1,2.39-2.59,2.1,2.1,0,0,1,1.74.83V112h.85v5Zm-1.61-4.33a1.7,1.7,0,0,0-1.64,1.82,1.72,1.72,0,0,0,1.64,1.87,1.7,1.7,0,0,0,1.66-1.87A1.68,1.68,0,0,0,181.27,112.62Zm-1-1.67a.61.61,0,0,1-.6-.6.6.6,0,1,1,.6.6Zm2.09,0a.61.61,0,0,1-.6-.6.6.6,0,1,1,.6.6Z"/><path class="cls-1" d="M186.71,117.1a1.77,1.77,0,0,1-1.74-1.27l.74-.31c.2.44.48.8,1,.8a.77.77,0,0,0,.82-.78c0-1.08-2.24-.74-2.24-2.29a1.4,1.4,0,0,1,1.45-1.39,1.49,1.49,0,0,1,1.37.9l-.71.37a.8.8,0,0,0-.7-.49.59.59,0,0,0-.6.55c0,.88,2.3.65,2.3,2.28A1.63,1.63,0,0,1,186.71,117.1Z"/><path class="cls-1" d="M195.22,117.08a2.34,2.34,0,0,1-2.45-2.34,2.09,2.09,0,0,1,1.19-2,2,2,0,0,1-1-1.75,2.24,2.24,0,0,1,4.47,0,2.09,2.09,0,0,1-1,1.76,2.07,2.07,0,0,1,1.16,1.93A2.32,2.32,0,0,1,195.22,117.08Zm0-3.89a1.53,1.53,0,1,0,1.55,1.52A1.54,1.54,0,0,0,195.19,113.2Zm0-3.55a1.39,1.39,0,1,0,1.39,1.39A1.39,1.39,0,0,0,195.22,109.65Z"/><path class="cls-1" d="M202.61,114.25,201,116.13h3.36V117h-5.17l2.92-3.37c.54-.62,1.38-1.52,1.38-2.39a1.6,1.6,0,0,0-3.19.1h-.9a3.27,3.27,0,0,1,.17-.9,2.5,2.5,0,0,1,4.81.82C204.34,112.41,203.35,113.42,202.61,114.25Z"/><path class="cls-1" d="M206.76,117.14l-.7-.47,4.53-6.88h-4.37V109h5.89Z"/><path class="cls-1" d="M213,118.78l-.56-.23,1-2.77.79.29Z"/><path class="cls-1" d="M219.82,109.79v2.38h2.66V113h-2.66v4h-.89v-8h3.63v.84Z"/><path class="cls-1" d="M226.07,112.84a.75.75,0,0,0-.5-.17.91.91,0,0,0-.43.11c-.55.3-.55,1-.55,1.55V117h-.85v-5h.85v.54a1.33,1.33,0,0,1,1.13-.66,1.42,1.42,0,0,1,.77.2Z"/><path class="cls-1" d="M229.59,117.1a2.62,2.62,0,1,1,2.63-2.61A2.6,2.6,0,0,1,229.59,117.1Zm0-4.46a1.84,1.84,0,1,0,1.76,1.85A1.75,1.75,0,0,0,229.57,112.63Zm-1-1.68a.61.61,0,0,1-.6-.6.6.6,0,1,1,.6.6Zm2.09,0a.61.61,0,0,1-.6-.6.6.6,0,1,1,.6.6Z"/><path class="cls-1" d="M234.87,117.1a1.77,1.77,0,0,1-1.74-1.27l.74-.31c.2.44.48.8,1,.8a.77.77,0,0,0,.82-.78c0-1.08-2.24-.74-2.24-2.29a1.4,1.4,0,0,1,1.45-1.39,1.49,1.49,0,0,1,1.37.9l-.71.37a.8.8,0,0,0-.7-.49.59.59,0,0,0-.6.55c0,.88,2.3.65,2.3,2.28A1.63,1.63,0,0,1,234.87,117.1Z"/><path class="cls-1" d="M240,117.1a2.62,2.62,0,1,1,2.63-2.61A2.6,2.6,0,0,1,240,117.1Zm0-4.46a1.84,1.84,0,1,0,1.76,1.85A1.75,1.75,0,0,0,240,112.63ZM239,111a.61.61,0,0,1-.6-.6.6.6,0,1,1,.6.6Zm2.09,0a.61.61,0,0,1-.6-.6.6.6,0,1,1,.6.6Z"/><path class="cls-1" d="M247.11,117V114c0-.78-.11-1.39-1-1.39-1.1,0-1.24,1-1.24,1.83V117H244v-5h.85v.6a1.8,1.8,0,0,1,2.85,0,2.28,2.28,0,0,1,.29,1.32V117Z"/><path class="cls-1" d="M135,132.1a2.45,2.45,0,0,1-2.47-2.06l.86-.24a1.63,1.63,0,0,0,1.63,1.46,1.58,1.58,0,0,0,1.61-1.58c0-1.88-3.69-1.44-3.69-3.79a2.11,2.11,0,0,1,2.24-2.06,2.28,2.28,0,0,1,2.06,1.25l-.71.47a1.48,1.48,0,0,0-1.37-.87,1.27,1.27,0,0,0-1.33,1.22c0,1.66,3.7,1.18,3.7,3.75A2.46,2.46,0,0,1,135,132.1Z"/><path class="cls-1" d="M141.29,132.1a2.62,2.62,0,1,1,2.63-2.61A2.6,2.6,0,0,1,141.29,132.1Zm0-4.46a1.84,1.84,0,1,0,1.76,1.85A1.75,1.75,0,0,0,141.28,127.63Zm-1-1.68a.61.61,0,0,1-.6-.6.6.6,0,1,1,.6.6Zm2.09,0a.61.61,0,0,1-.6-.6.6.6,0,1,1,.6.6Z"/><path class="cls-1" d="M148.36,132V129c0-.78-.11-1.39-1-1.39-1.1,0-1.24,1-1.24,1.83V132h-.85v-5h.85v.6a1.8,1.8,0,0,1,2.85,0,2.28,2.28,0,0,1,.29,1.32V132Z"/><path class="cls-1" d="M154.66,132v-.7a2.12,2.12,0,0,1-1.73.84,2.46,2.46,0,0,1-2.4-2.64,2.44,2.44,0,0,1,2.39-2.6,2.14,2.14,0,0,1,1.74.83v-4.47h.85V132Zm-1.61-4.32a1.85,1.85,0,1,0,1.66,1.81A1.67,1.67,0,0,0,153.05,127.63Z"/><path class="cls-1" d="M160.95,132v-.7a2.13,2.13,0,0,1-1.73.84,2.47,2.47,0,0,1-2.4-2.65,2.42,2.42,0,0,1,2.39-2.59,2.1,2.1,0,0,1,1.74.83V127h.85v5Zm-1.61-4.33a1.7,1.7,0,0,0-1.64,1.82,1.72,1.72,0,0,0,1.64,1.87,1.7,1.7,0,0,0,1.66-1.87A1.68,1.68,0,0,0,159.34,127.62Z"/><path class="cls-1" d="M167.62,133.8a2.42,2.42,0,0,1-2,.92,2.24,2.24,0,0,1-2.42-2.28h.85a1.49,1.49,0,0,0,1.58,1.51c1.2,0,1.6-.9,1.6-2v-.73a2.25,2.25,0,0,1-1.75.83,2.63,2.63,0,0,1,0-5.23,2.13,2.13,0,0,1,1.71.82V127h.86v4.87A3,3,0,0,1,167.62,133.8Zm-2-6.18a1.71,1.71,0,0,0-1.63,1.88,1.68,1.68,0,0,0,1.63,1.81,1.86,1.86,0,0,0,0-3.69Z"/><path class="cls-1" d="M176,129.25l-1.64,1.87h3.36V132h-5.17l2.92-3.37c.54-.62,1.38-1.52,1.38-2.39a1.6,1.6,0,0,0-3.19.1h-.9a3.27,3.27,0,0,1,.17-.9,2.5,2.5,0,0,1,4.81.82C177.7,127.41,176.71,128.42,176,129.25Z"/><path class="cls-1" d="M181.9,132v-7.16h-1.33L181,124h1.75v8Z"/><path class="cls-1" d="M189.77,125.7a.61.61,0,1,1,.61-.61A.61.61,0,0,1,189.77,125.7Zm-.43,9.06V127h.85v7.78Z"/><path class="cls-1" d="M195.64,132v-.7a2.13,2.13,0,0,1-1.73.84,2.47,2.47,0,0,1-2.4-2.65,2.42,2.42,0,0,1,2.39-2.59,2.1,2.1,0,0,1,1.74.83V127h.85v5ZM194,127.62a1.7,1.7,0,0,0-1.64,1.82,1.72,1.72,0,0,0,1.64,1.87,1.7,1.7,0,0,0,1.66-1.87A1.68,1.68,0,0,0,194,127.62Z"/><path class="cls-1" d="M201.25,132V129c0-.78-.11-1.39-1-1.39-1.1,0-1.24,1-1.24,1.83V132h-.85v-5H199v.6a1.8,1.8,0,0,1,2.86,0,2.28,2.28,0,0,1,.29,1.32V132Z"/><path class="cls-1" d="M207.25,131.47a2.17,2.17,0,0,1-3,0,2,2,0,0,1-.46-1.5v-3h.85v2.9a1.91,1.91,0,0,0,.16.94,1.18,1.18,0,0,0,1.93,0,1.93,1.93,0,0,0,.16-.94V127h.85v3A2,2,0,0,1,207.25,131.47Z"/><path class="cls-1" d="M213.13,132v-.7a2.12,2.12,0,0,1-1.73.84,2.47,2.47,0,0,1-2.4-2.65,2.42,2.42,0,0,1,2.39-2.59,2.1,2.1,0,0,1,1.74.83V127H214v5Zm-1.61-4.33a1.7,1.7,0,0,0-1.64,1.82,1.72,1.72,0,0,0,1.64,1.87,1.7,1.7,0,0,0,1.66-1.87A1.68,1.68,0,0,0,211.53,127.62Z"/><path class="cls-1" d="M218,127.84a.75.75,0,0,0-.5-.17.92.92,0,0,0-.43.11c-.55.3-.55,1-.55,1.55V132h-.85v-5h.85v.54a1.33,1.33,0,0,1,1.13-.66,1.42,1.42,0,0,1,.77.2Z"/><path class="cls-1" d="M219.59,125.7a.61.61,0,1,1,.61-.61A.61.61,0,0,1,219.59,125.7Zm-.43,6.25v-5H220v5Z"/><path class="cls-1" d="M227.74,132l-2-2.27-.22.22V132h-.85v-8.74h.85v5.6l1.81-1.83h1.14l-2.13,2.11,2.53,2.87Z"/><path class="cls-1" d="M229.71,132v-8.74h.85V132Z"/><path class="cls-1" d="M237.55,132v-7.16h-1.33l.47-.84h1.75v8Z"/><path class="cls-1" d="M244.33,132.08a2.5,2.5,0,0,1-1.85-.79,2.11,2.11,0,0,1-.53-1.42h.86a1.53,1.53,0,0,0,.28.78,1.61,1.61,0,0,0,1.26.6,1.56,1.56,0,0,0,1.57-1.59c0-1-.73-1.51-1.7-1.51v-.78a1.85,1.85,0,0,0,.95-.19,1.38,1.38,0,1,0-1.82-2,2,2,0,0,0-.26.77h-.87a2.11,2.11,0,0,1,2.23-2.1A2.14,2.14,0,0,1,246.7,126a2,2,0,0,1-1,1.77,2,2,0,0,1,1.15,1.93A2.37,2.37,0,0,1,244.33,132.08Z"/><path class="cls-1" d="M248,129.78V129h2.17v.77Z"/><path class="cls-1" d="M253.33,132v-7.16H252l.47-.84h1.75v8Z"/><path class="cls-1" d="M259.8,132.08a2.77,2.77,0,0,1-2.45-1.43l.71-.5a2.11,2.11,0,0,0,1.81,1.1,2,2,0,0,0,2-2,1.94,1.94,0,0,0-2-2,2.83,2.83,0,0,0-1.55.55L259.5,124h3.18v.84h-2.55l-.53,1.7a1.88,1.88,0,0,1,.46,0,2.65,2.65,0,0,1,2.69,2.77A2.84,2.84,0,0,1,259.8,132.08Z"/></svg>