<svg id="Layer_1" data-name="Layer 1" xmlns="http://www.w3.org/2000/svg" viewBox="0 0 320 160"><defs><style>.cls-1{fill:#d80201;}</style></defs><title>text</title><path class="cls-1" d="M147.89,67.85a5.72,5.72,0,0,1-5-2.79l1.85-1.78a3.37,3.37,0,0,0,3.08,2A2.09,2.09,0,0,0,150,63.17c0-3-6.45-1.58-6.45-6.31a4.31,4.31,0,0,1,4.58-4.27,6.43,6.43,0,0,1,4.29,1.63l-1.5,2A3,3,0,0,0,148.6,55c-.95,0-2,.59-2,1.65,0,2.49,6.45,1.25,6.45,6.38C153,66,150.8,67.85,147.89,67.85Z"/><path class="cls-1" d="M161,67.81a3.81,3.81,0,0,1-3.19-1.56v6.34h-2.66V58h2.66v1.21a3.79,3.79,0,0,1,3.12-1.52A5.09,5.09,0,0,1,161,67.81Zm-.79-7.75a2.67,2.67,0,1,0,2.66,2.66A2.66,2.66,0,0,0,160.17,60.06Z"/><path class="cls-1" d="M174.91,67.5V66.25a3.68,3.68,0,0,1-3.1,1.56c-2.86,0-4.69-2.38-4.69-5.1a4.76,4.76,0,0,1,4.62-5,4,4,0,0,1,3.17,1.52V58h2.68V67.5Zm-4.6-11.31a1.58,1.58,0,0,1,0-3.17,1.58,1.58,0,1,1,0,3.17Zm2.22,3.87a2.67,2.67,0,1,0,2.66,2.66A2.66,2.66,0,0,0,172.53,60.06Zm2.35-3.87a1.61,1.61,0,0,1-1.58-1.58,1.58,1.58,0,1,1,1.58,1.58Z"/><path class="cls-1" d="M186.66,67.5V62.22c0-1.3-.29-2.29-1.8-2.29s-2,1.21-2,2.64V67.5h-2.66V58h2.66v1.17a3.52,3.52,0,0,1,3-1.47,3.29,3.29,0,0,1,3.52,3.78V67.5Z"/><path class="cls-1" d="M198.38,67.5V62.22c0-1.3-.29-2.29-1.8-2.29s-2,1.21-2,2.64V67.5h-2.66V58h2.66v1.17a3.52,3.52,0,0,1,3-1.47A3.29,3.29,0,0,1,201,61.45V67.5Z"/><path class="cls-1" d="M210.88,67.5V66.25a3.68,3.68,0,0,1-3.1,1.56c-2.86,0-4.69-2.38-4.69-5.1a4.76,4.76,0,0,1,4.62-5,4,4,0,0,1,3.17,1.52V58h2.68V67.5Zm-2.38-7.44a2.67,2.67,0,1,0,2.66,2.66A2.66,2.66,0,0,0,208.5,60.06Z"/><path class="cls-1" d="M222.62,67.5V62.22c0-1.3-.29-2.29-1.8-2.29s-2,1.21-2,2.64V67.5h-2.66V58h2.66v1.17a3.52,3.52,0,0,1,3-1.47,3.29,3.29,0,0,1,3.52,3.78V67.5Z"/><path class="cls-1" d="M235.12,67.5V66.25a3.68,3.68,0,0,1-3.1,1.56c-2.86,0-4.69-2.38-4.69-5.1a4.76,4.76,0,0,1,4.62-5,4,4,0,0,1,3.17,1.52V51h2.68V67.5Zm-2.38-7.44a2.67,2.67,0,1,0,2.66,2.66A2.66,2.66,0,0,0,232.74,60.06Z"/><path class="cls-1" d="M242.58,63.17c0,1.47.75,2.55,2.33,2.55a2.5,2.5,0,0,0,2.27-1.28l2.46.4a4.67,4.67,0,0,1-4.69,3,4.78,4.78,0,0,1-5.11-5.08,4.72,4.72,0,0,1,5-5.06c3.15,0,4.86,2.11,4.86,5.15v.35Zm2.31-3.61a2.16,2.16,0,0,0-2.22,1.91h4.51A2.21,2.21,0,0,0,244.89,59.56Z"/><path class="cls-1" d="M252.26,70.58l-1.69-.2,2.33-5.92,2.46.29Z"/><path class="cls-1" d="M149.83,95.5V94.25a3.68,3.68,0,0,1-3.1,1.56c-2.86,0-4.69-2.38-4.69-5.11a4.76,4.76,0,0,1,4.62-5,4,4,0,0,1,3.17,1.52V86h2.68V95.5Zm-2.38-7.44a2.67,2.67,0,1,0,2.66,2.66A2.66,2.66,0,0,0,147.45,88.06Z"/><path class="cls-1" d="M161.58,95.5V90.22c0-1.3-.29-2.29-1.8-2.29s-2,1.21-2,2.64V95.5h-2.66V86h2.66v1.17a3.52,3.52,0,0,1,3-1.47,3.29,3.29,0,0,1,3.52,3.78V95.5Z"/><path class="cls-1" d="M173.3,95.5V90.22c0-1.3-.29-2.29-1.8-2.29s-2,1.21-2,2.64V95.5h-2.66V86h2.66v1.17a3.52,3.52,0,0,1,3-1.47A3.29,3.29,0,0,1,176,89.45V95.5Z"/><path class="cls-1" d="M183.46,95.81c-3,0-5.46-1.89-5.46-5.06s2.42-5.08,5.48-5.08,5.41,1.91,5.41,5.06S186.48,95.81,183.46,95.81Zm0-7.75a2.67,2.67,0,1,0,2.71,2.68A2.69,2.69,0,0,0,183.44,88.06Z"/><path class="cls-1" d="M197.17,88.39a2.36,2.36,0,0,0-1.28-.33c-1.8,0-2.29,1.28-2.29,2.86V95.5h-2.66V86h2.66V87.4a3.11,3.11,0,0,1,3.94-1.52Z"/><path class="cls-1" d="M198.86,95.5V79h2.66V95.5Z"/><path class="cls-1" d="M208.68,95.81c-2.62,0-4.6-1.17-4.6-4V86h2.66v5.39c0,1.3.55,2.18,1.94,2.18s1.94-.88,1.94-2.18V86h2.68V91.8C213.3,94.64,211.29,95.81,208.68,95.81Z"/><path class="cls-1" d="M222.36,95.5V90.22c0-1.3-.29-2.29-1.8-2.29s-2,1.21-2,2.64V95.5h-2.66V86h2.66v1.17a3.52,3.52,0,0,1,3-1.47A3.29,3.29,0,0,1,225,89.45V95.5Z"/><path class="cls-1" d="M234.86,95.5V94.25a3.68,3.68,0,0,1-3.1,1.56c-2.86,0-4.69-2.38-4.69-5.11a4.76,4.76,0,0,1,4.62-5,4,4,0,0,1,3.17,1.52V79h2.68V95.5Zm-2.38-7.44a2.67,2.67,0,1,0,2.66,2.66A2.66,2.66,0,0,0,232.48,88.06Z"/><path class="cls-1" d="M247.37,95.5V94.25a3.68,3.68,0,0,1-3.1,1.56c-2.86,0-4.69-2.38-4.69-5.11a4.76,4.76,0,0,1,4.62-5,4,4,0,0,1,3.17,1.52V86h2.68V95.5ZM245,88.06a2.67,2.67,0,1,0,2.66,2.66A2.66,2.66,0,0,0,245,88.06Z"/><path class="cls-1" d="M254.08,95.79a1.72,1.72,0,1,1,1.72-1.72A1.72,1.72,0,0,1,254.08,95.79Zm-1.36-4.49V80.82h2.73V91.3Z"/></svg>