<svg id="Layer_1" data-name="Layer 1" xmlns="http://www.w3.org/2000/svg" viewBox="0 0 320 160"><defs><style>.cls-1{fill:#d80201;}</style></defs><title>text</title><path class="cls-1" d="M132.62,117v-8h4.14v.84H133.5v2.38h3.17V113H133.5v3.13h3.25V117Z"/><path class="cls-1" d="M139.9,117.28l-2.45-5.3h1l1.49,3.35,1.48-3.35h1Z"/><path class="cls-1" d="M146.88,117v-.7a2.13,2.13,0,0,1-1.73.84,2.47,2.47,0,0,1-2.4-2.65,2.42,2.42,0,0,1,2.39-2.59,2.1,2.1,0,0,1,1.74.83V112h.85v5Zm-1.61-4.33a1.7,1.7,0,0,0-1.64,1.82,1.72,1.72,0,0,0,1.64,1.87,1.7,1.7,0,0,0,1.65-1.87A1.68,1.68,0,0,0,145.28,112.62Z"/><path class="cls-1" d="M157.92,117l-.94-2.27h-3.42l-1,2.27h-1l3.68-8.38L158.9,117Zm-2.63-6.3-1.37,3.2h2.71Zm0-2.47a1,1,0,1,1,0-2.1,1,1,0,0,1,0,2.1Zm0-1.56a.5.5,0,1,0,.5.5A.51.51,0,0,0,155.33,106.63Z"/><path class="cls-1" d="M161.15,117.1a1.77,1.77,0,0,1-1.74-1.27l.74-.31c.2.44.48.8,1,.8a.77.77,0,0,0,.82-.78c0-1.08-2.24-.74-2.24-2.29a1.4,1.4,0,0,1,1.45-1.39,1.49,1.49,0,0,1,1.37.9l-.71.37a.8.8,0,0,0-.7-.49.59.59,0,0,0-.6.55c0,.88,2.3.65,2.3,2.28A1.63,1.63,0,0,1,161.15,117.1Z"/><path class="cls-1" d="M166.59,117.1a2.12,2.12,0,0,1-1.73-.84v.7H164v-8.74h.85v4.47a2.14,2.14,0,0,1,1.74-.83,2.44,2.44,0,0,1,2.39,2.6A2.46,2.46,0,0,1,166.59,117.1Zm-.12-4.46a1.68,1.68,0,0,0-1.66,1.84,1.66,1.66,0,1,0,1.66-1.84Z"/><path class="cls-1" d="M172.63,112.84a.75.75,0,0,0-.5-.17.91.91,0,0,0-.43.11c-.55.3-.55,1-.55,1.55V117h-.85v-5h.85v.54a1.33,1.33,0,0,1,1.13-.66,1.42,1.42,0,0,1,.77.2Z"/><path class="cls-1" d="M174.27,110.7a.61.61,0,1,1,.61-.61A.61.61,0,0,1,174.27,110.7Zm-.43,6.25v-5h.85v5Z"/><path class="cls-1" d="M179.46,117V114c0-.78-.11-1.39-1-1.39-1.1,0-1.23,1-1.23,1.83V117h-.85v-5h.85v.6a1.8,1.8,0,0,1,2.85,0,2.28,2.28,0,0,1,.29,1.32V117Z"/><path class="cls-1" d="M185,117l-2-2.27-.22.22V117H182v-8.74h.85v5.6l1.81-1.83h1.14l-2.13,2.11,2.53,2.87Z"/><path class="cls-1" d="M188.35,117.1a1.77,1.77,0,0,1-1.74-1.27l.74-.31c.2.44.48.8,1,.8a.77.77,0,0,0,.81-.78c0-1.08-2.24-.74-2.24-2.29a1.4,1.4,0,0,1,1.45-1.39,1.49,1.49,0,0,1,1.37.9l-.71.37a.8.8,0,0,0-.7-.49.59.59,0,0,0-.6.55c0,.88,2.3.65,2.3,2.28A1.63,1.63,0,0,1,188.35,117.1Z"/><path class="cls-1" d="M198.4,118.8a2.41,2.41,0,0,1-2,.92,2.24,2.24,0,0,1-2.42-2.28h.85a1.49,1.49,0,0,0,1.58,1.51c1.2,0,1.6-.9,1.6-2v-.73a2.25,2.25,0,0,1-1.75.83,2.63,2.63,0,0,1,0-5.23,2.13,2.13,0,0,1,1.72.82V112h.86v4.87A3,3,0,0,1,198.4,118.8Zm-2-6.18a1.71,1.71,0,0,0-1.63,1.88,1.68,1.68,0,0,0,1.63,1.81,1.86,1.86,0,0,0,0-3.69Z"/><path class="cls-1" d="M204.31,117v-.7a2.13,2.13,0,0,1-1.73.84,2.47,2.47,0,0,1-2.4-2.65,2.42,2.42,0,0,1,2.39-2.59,2.1,2.1,0,0,1,1.74.83V112h.85v5Zm-1.61-4.33a1.7,1.7,0,0,0-1.64,1.82,1.72,1.72,0,0,0,1.64,1.87,1.7,1.7,0,0,0,1.66-1.87A1.68,1.68,0,0,0,202.71,112.62Z"/><path class="cls-1" d="M207.66,112.77V117h-.86v-4.19h-.52V112h.52v-1.8h.86V112h.88v.79Z"/><path class="cls-1" d="M213.17,117v-.7a2.13,2.13,0,0,1-1.73.84,2.47,2.47,0,0,1-2.4-2.65,2.42,2.42,0,0,1,2.39-2.59,2.1,2.1,0,0,1,1.74.83V112H214v5Zm-1.61-4.33a1.7,1.7,0,0,0-1.64,1.82,1.72,1.72,0,0,0,1.64,1.87,1.7,1.7,0,0,0,1.66-1.87A1.68,1.68,0,0,0,211.56,112.62Z"/><path class="cls-1" d="M221,117v-7.16h-1.33l.47-.84h1.75v8Z"/><path class="cls-1" d="M230.14,113.37l-2.72,3.78-.67-.49,1.85-2.57a2.53,2.53,0,0,1-.73.11,2.58,2.58,0,0,1-2.57-2.63,2.76,2.76,0,0,1,5.52,0A3.22,3.22,0,0,1,230.14,113.37ZM228,109.65a1.88,1.88,0,1,0,1.88,1.88A1.88,1.88,0,0,0,228,109.65Z"/><path class="cls-1" d="M232.3,118.78l-.56-.23,1-2.77.79.29Z"/><path class="cls-1" d="M240.24,117.1a2.45,2.45,0,0,1-2.47-2.06l.86-.24a1.63,1.63,0,0,0,1.63,1.46,1.58,1.58,0,0,0,1.61-1.58c0-1.88-3.69-1.44-3.69-3.79a2.11,2.11,0,0,1,2.24-2.06,2.28,2.28,0,0,1,2.06,1.25l-.71.47a1.48,1.48,0,0,0-1.37-.87,1.27,1.27,0,0,0-1.33,1.22c0,1.66,3.69,1.18,3.69,3.75A2.46,2.46,0,0,1,240.24,117.1Z"/><path class="cls-1" d="M247.27,117l-2-2.27-.22.22V117h-.85v-8.74H245v5.6l1.81-1.83H248l-2.13,2.11,2.53,2.87Z"/><path class="cls-1" d="M252.78,117v-.7a2.13,2.13,0,0,1-1.73.84,2.47,2.47,0,0,1-2.4-2.65,2.42,2.42,0,0,1,2.39-2.59,2.1,2.1,0,0,1,1.74.83V112h.85v5Zm-1.61-4.33a1.7,1.7,0,0,0-1.64,1.82,1.72,1.72,0,0,0,1.64,1.87,1.7,1.7,0,0,0,1.66-1.87A1.68,1.68,0,0,0,251.17,112.62Z"/><path class="cls-1" d="M257.61,112.84a.75.75,0,0,0-.5-.17.91.91,0,0,0-.43.11c-.55.3-.55,1-.55,1.55V117h-.85v-5h.85v.54a1.33,1.33,0,0,1,1.13-.66,1.42,1.42,0,0,1,.77.2Z"/><path class="cls-1" d="M262.48,117v-.7a2.13,2.13,0,0,1-1.73.84,2.47,2.47,0,0,1-2.4-2.65,2.42,2.42,0,0,1,2.39-2.59,2.1,2.1,0,0,1,1.74.83V112h.85v5Zm-1.61-4.33a1.7,1.7,0,0,0-1.64,1.82,1.72,1.72,0,0,0,1.64,1.87,1.7,1.7,0,0,0,1.66-1.87A1.68,1.68,0,0,0,260.87,112.62Z"/><path class="cls-1" d="M133.32,132.1a2.45,2.45,0,0,1-2.47-2.06l.86-.24a1.63,1.63,0,0,0,1.63,1.46,1.58,1.58,0,0,0,1.61-1.58c0-1.88-3.69-1.44-3.69-3.79a2.11,2.11,0,0,1,2.24-2.06,2.28,2.28,0,0,1,2.06,1.25l-.71.47a1.48,1.48,0,0,0-1.37-.87,1.27,1.27,0,0,0-1.33,1.22c0,1.66,3.69,1.18,3.69,3.75A2.46,2.46,0,0,1,133.32,132.1Z"/><path class="cls-1" d="M139.59,132.1a2.62,2.62,0,1,1,2.63-2.61A2.6,2.6,0,0,1,139.59,132.1Zm0-4.46a1.84,1.84,0,1,0,1.76,1.85A1.75,1.75,0,0,0,139.58,127.63Zm-1-1.68a.61.61,0,0,1-.6-.6.6.6,0,1,1,.6.6Zm2.09,0a.61.61,0,0,1-.6-.6.6.6,0,1,1,.6.6Z"/><path class="cls-1" d="M146.65,132V129c0-.78-.11-1.39-1-1.39-1.1,0-1.24,1-1.24,1.83V132h-.85v-5h.85v.6a1.8,1.8,0,0,1,2.85,0,2.28,2.28,0,0,1,.29,1.32V132Z"/><path class="cls-1" d="M153,132v-.7a2.13,2.13,0,0,1-1.73.84,2.46,2.46,0,0,1-2.4-2.64,2.44,2.44,0,0,1,2.39-2.6,2.14,2.14,0,0,1,1.74.83v-4.47h.85V132Zm-1.61-4.32a1.85,1.85,0,1,0,1.65,1.81A1.67,1.67,0,0,0,151.35,127.63Z"/><path class="cls-1" d="M159.24,132v-.7a2.13,2.13,0,0,1-1.73.84,2.47,2.47,0,0,1-2.4-2.65,2.42,2.42,0,0,1,2.39-2.59,2.1,2.1,0,0,1,1.74.83V127h.85v5Zm-1.61-4.33a1.7,1.7,0,0,0-1.64,1.82,1.72,1.72,0,0,0,1.64,1.87,1.7,1.7,0,0,0,1.66-1.87A1.68,1.68,0,0,0,157.63,127.62Z"/><path class="cls-1" d="M165.91,133.8a2.42,2.42,0,0,1-2,.92,2.24,2.24,0,0,1-2.42-2.28h.85a1.49,1.49,0,0,0,1.58,1.51c1.2,0,1.59-.9,1.59-2v-.73a2.25,2.25,0,0,1-1.75.83,2.63,2.63,0,0,1,0-5.23,2.13,2.13,0,0,1,1.72.82V127h.86v4.87A3,3,0,0,1,165.91,133.8Zm-2-6.18a1.71,1.71,0,0,0-1.63,1.88,1.68,1.68,0,0,0,1.63,1.81,1.86,1.86,0,0,0,0-3.69Z"/><path class="cls-1" d="M174.27,129.25l-1.64,1.87H176V132h-5.17l2.91-3.37c.54-.62,1.38-1.52,1.38-2.39a1.6,1.6,0,1,0-3.19.1H171a3.35,3.35,0,0,1,.17-.9,2.5,2.5,0,0,1,4.81.82C176,127.41,175,128.42,174.27,129.25Z"/><path class="cls-1" d="M181.07,129.25l-1.64,1.87h3.36V132h-5.17l2.92-3.37c.54-.62,1.38-1.52,1.38-2.39a1.6,1.6,0,0,0-3.19.1h-.9a3.27,3.27,0,0,1,.17-.9,2.5,2.5,0,0,1,4.81.82C182.8,127.41,181.81,128.42,181.07,129.25Z"/><path class="cls-1" d="M190,132.1a2.62,2.62,0,1,1,2.63-2.61A2.6,2.6,0,0,1,190,132.1Zm0-4.46a1.84,1.84,0,1,0,1.76,1.85A1.75,1.75,0,0,0,189.94,127.63Z"/><path class="cls-1" d="M197,132l-2-2.27-.22.22V132h-.85v-8.74h.85v5.6l1.81-1.83h1.14l-2.13,2.11,2.53,2.87Z"/><path class="cls-1" d="M199.8,127.77V132h-.86v-4.19h-.52V127h.52v-1.8h.86V127h.88v.79Z"/><path class="cls-1" d="M203.82,132.1a2.62,2.62,0,1,1,2.63-2.61A2.6,2.6,0,0,1,203.82,132.1Zm0-4.46a1.84,1.84,0,1,0,1.76,1.85A1.75,1.75,0,0,0,203.81,127.63Z"/><path class="cls-1" d="M210.34,132.1a2.12,2.12,0,0,1-1.73-.84v.7h-.85v-8.74h.85v4.47a2.14,2.14,0,0,1,1.74-.83,2.44,2.44,0,0,1,2.39,2.6A2.46,2.46,0,0,1,210.34,132.1Zm-.12-4.46a1.68,1.68,0,0,0-1.66,1.84,1.66,1.66,0,1,0,1.66-1.84Z"/><path class="cls-1" d="M214.62,129.64a1.61,1.61,0,0,0,1.58,1.68,1.72,1.72,0,0,0,1.54-1l.72.4a2.48,2.48,0,0,1-2.28,1.42,2.63,2.63,0,0,1,0-5.24,2.38,2.38,0,0,1,2.38,2.62v.17Zm1.54-2a1.53,1.53,0,0,0-1.48,1.28h2.93A1.49,1.49,0,0,0,216.16,127.63Z"/><path class="cls-1" d="M222.16,127.84a.75.75,0,0,0-.5-.17.91.91,0,0,0-.43.11c-.55.3-.55,1-.55,1.55V132h-.85v-5h.85v.54a1.33,1.33,0,0,1,1.13-.66,1.42,1.42,0,0,1,.77.2Z"/><path class="cls-1" d="M229.44,132l-2-2.27-.21.22V132h-.85v-8.74h.85v5.6L229,127h1.14L228,129.09l2.53,2.87Z"/><path class="cls-1" d="M231.41,132v-8.74h.85V132Z"/><path class="cls-1" d="M239.26,132v-7.16h-1.33l.47-.84h1.75v8Z"/><path class="cls-1" d="M246,132.08a2.5,2.5,0,0,1-1.85-.79,2.12,2.12,0,0,1-.53-1.42h.86a1.54,1.54,0,0,0,.28.78,1.61,1.61,0,0,0,1.26.6,1.56,1.56,0,0,0,1.57-1.59c0-1-.73-1.51-1.7-1.51v-.78a1.85,1.85,0,0,0,.95-.19,1.38,1.38,0,1,0-1.82-2,2,2,0,0,0-.26.77h-.87a2.11,2.11,0,0,1,2.23-2.1A2.14,2.14,0,0,1,248.4,126a2,2,0,0,1-1,1.77,2,2,0,0,1,1.15,1.93A2.37,2.37,0,0,1,246,132.08Z"/><path class="cls-1" d="M249.69,129.78V129h2.17v.77Z"/><path class="cls-1" d="M255,132v-7.16h-1.33l.47-.84h1.75v8Z"/><path class="cls-1" d="M261.5,132.08a2.77,2.77,0,0,1-2.45-1.43l.71-.5a2.11,2.11,0,0,0,1.81,1.1,2,2,0,0,0,2-2,1.94,1.94,0,0,0-2-2,2.82,2.82,0,0,0-1.55.55l1.16-3.84h3.18v.84h-2.55l-.53,1.7a1.9,1.9,0,0,1,.46,0,2.65,2.65,0,0,1,2.69,2.77A2.84,2.84,0,0,1,261.5,132.08Z"/></svg>