<svg id="Layer_1" data-name="Layer 1" xmlns="http://www.w3.org/2000/svg" viewBox="0 0 320 160"><defs><style>.cls-1{fill:#d80201;}</style></defs><title>text</title><path class="cls-1" d="M135.83,117.1a2.44,2.44,0,0,1-2.47-2.06l.86-.24a1.63,1.63,0,0,0,1.63,1.46,1.58,1.58,0,0,0,1.61-1.58c0-1.88-3.69-1.44-3.69-3.79a2.11,2.11,0,0,1,2.24-2.06,2.28,2.28,0,0,1,2.06,1.25l-.71.47a1.48,1.48,0,0,0-1.37-.87,1.27,1.27,0,0,0-1.33,1.22c0,1.66,3.69,1.18,3.69,3.75A2.46,2.46,0,0,1,135.83,117.1Z"/><path class="cls-1" d="M142.86,117l-2-2.27-.21.22V117h-.85v-8.74h.85v5.6l1.81-1.83h1.14l-2.14,2.11L144,117Z"/><path class="cls-1" d="M146.56,117.28l-2.45-5.3h1l1.49,3.35L148,112h1Z"/><path class="cls-1" d="M153.54,117v-.7a2.13,2.13,0,0,1-1.73.84,2.47,2.47,0,0,1-2.4-2.65,2.42,2.42,0,0,1,2.39-2.59,2.1,2.1,0,0,1,1.74.83V112h.85v5Zm-1.61-4.33a1.7,1.7,0,0,0-1.64,1.82,1.72,1.72,0,0,0,1.64,1.87,1.7,1.7,0,0,0,1.65-1.87A1.68,1.68,0,0,0,151.93,112.62Z"/><path class="cls-1" d="M159.83,117v-.7a2.12,2.12,0,0,1-1.73.84,2.46,2.46,0,0,1-2.4-2.64,2.44,2.44,0,0,1,2.39-2.6,2.14,2.14,0,0,1,1.74.83v-4.47h.85V117Zm-1.61-4.32a1.85,1.85,0,1,0,1.66,1.81A1.67,1.67,0,0,0,158.22,112.63Z"/><path class="cls-1" d="M164.65,112.84a.75.75,0,0,0-.5-.17.92.92,0,0,0-.43.11c-.55.3-.55,1-.55,1.55V117h-.85v-5h.85v.54a1.33,1.33,0,0,1,1.13-.66,1.42,1.42,0,0,1,.77.2Z"/><path class="cls-1" d="M168,117.1a2.62,2.62,0,1,1,2.63-2.61A2.6,2.6,0,0,1,168,117.1Zm0-4.46a1.84,1.84,0,1,0,1.76,1.85A1.75,1.75,0,0,0,168,112.63Z"/><path class="cls-1" d="M175.06,117V114c0-.78-.11-1.39-1-1.39-1.1,0-1.24,1-1.24,1.83V117h-.85v-5h.85v.6a1.8,1.8,0,0,1,2.86,0,2.28,2.28,0,0,1,.29,1.32V117Z"/><path class="cls-1" d="M179.28,117.28l-2.45-5.3h1l1.49,3.35,1.47-3.35h1Z"/><path class="cls-1" d="M186.43,117v-.7a2.12,2.12,0,0,1-1.73.84,2.47,2.47,0,0,1-2.4-2.65,2.42,2.42,0,0,1,2.39-2.59,2.1,2.1,0,0,1,1.74.83V112h.85v5Zm-1.61-4.33a1.7,1.7,0,0,0-1.64,1.82,1.72,1.72,0,0,0,1.64,1.87,1.7,1.7,0,0,0,1.66-1.87A1.68,1.68,0,0,0,184.82,112.62Zm-1-1.67a.61.61,0,0,1-.6-.6.6.6,0,1,1,.6.6Zm2.09,0a.61.61,0,0,1-.6-.6.6.6,0,1,1,.6.6Z"/><path class="cls-1" d="M193.1,118.8a2.41,2.41,0,0,1-2,.92,2.24,2.24,0,0,1-2.42-2.28h.85a1.49,1.49,0,0,0,1.58,1.51c1.2,0,1.6-.9,1.6-2v-.73a2.25,2.25,0,0,1-1.75.83,2.63,2.63,0,0,1,0-5.23,2.13,2.13,0,0,1,1.72.82V112h.86v4.87A3,3,0,0,1,193.1,118.8Zm-2-6.18a1.71,1.71,0,0,0-1.63,1.88,1.68,1.68,0,0,0,1.63,1.81,1.86,1.86,0,0,0,0-3.69Z"/><path class="cls-1" d="M195.79,114.64a1.61,1.61,0,0,0,1.58,1.68,1.72,1.72,0,0,0,1.54-1l.72.4a2.48,2.48,0,0,1-2.28,1.42,2.63,2.63,0,0,1,0-5.24,2.38,2.38,0,0,1,2.38,2.62v.17Zm1.54-2a1.53,1.53,0,0,0-1.47,1.28h2.93A1.49,1.49,0,0,0,197.33,112.63Z"/><path class="cls-1" d="M204.12,117V114c0-.78-.11-1.39-1-1.39-1.1,0-1.23,1-1.23,1.83V117H201v-5h.85v.6a1.8,1.8,0,0,1,2.85,0,2.28,2.28,0,0,1,.29,1.32V117Z"/><path class="cls-1" d="M212.86,114.25l-1.64,1.87h3.36V117H209.4l2.91-3.37c.54-.62,1.38-1.52,1.38-2.39a1.6,1.6,0,1,0-3.19.1h-.9a3.35,3.35,0,0,1,.17-.9,2.5,2.5,0,0,1,4.81.82C214.58,112.41,213.6,113.42,212.86,114.25Z"/><path class="cls-1" d="M221.1,113.37l-2.72,3.78-.67-.49,1.85-2.57a2.53,2.53,0,0,1-.73.11,2.58,2.58,0,0,1-2.57-2.63,2.76,2.76,0,0,1,5.52,0A3.22,3.22,0,0,1,221.1,113.37ZM219,109.65a1.88,1.88,0,1,0,1.88,1.88A1.88,1.88,0,0,0,219,109.65Z"/><path class="cls-1" d="M223.26,118.78l-.56-.23,1-2.77.79.29Z"/><path class="cls-1" d="M231.46,117.43,228.22,109h1l2.28,6.1,2.27-6.1h1Z"/><path class="cls-1" d="M238.86,117v-.7a2.13,2.13,0,0,1-1.73.84,2.47,2.47,0,0,1-2.4-2.65,2.42,2.42,0,0,1,2.39-2.59,2.1,2.1,0,0,1,1.74.83V112h.85v5Zm-1.61-4.33a1.7,1.7,0,0,0-1.64,1.82,1.72,1.72,0,0,0,1.64,1.87,1.7,1.7,0,0,0,1.65-1.87A1.68,1.68,0,0,0,237.25,112.62Z"/><path class="cls-1" d="M241.34,117v-8.74h.85V117Z"/><path class="cls-1" d="M243.83,117v-8.74h.85V117Z"/><path class="cls-1" d="M246.89,114.64a1.61,1.61,0,0,0,1.58,1.68,1.72,1.72,0,0,0,1.54-1l.72.4a2.48,2.48,0,0,1-2.28,1.42,2.63,2.63,0,0,1,0-5.24,2.38,2.38,0,0,1,2.38,2.62v.17Zm1.54-2a1.53,1.53,0,0,0-1.48,1.28h2.93A1.49,1.49,0,0,0,248.42,112.63Z"/><path class="cls-1" d="M255.21,117V114c0-.78-.11-1.39-1-1.39-1.1,0-1.24,1-1.24,1.83V117h-.85v-5h.85v.6a1.8,1.8,0,0,1,2.85,0,2.28,2.28,0,0,1,.29,1.32V117Z"/><path class="cls-1" d="M258.58,112.77V117h-.86v-4.19h-.52V112h.52v-1.8h.86V112h.88v.79Z"/><path class="cls-1" d="M263.78,116.47a2.17,2.17,0,0,1-3,0,2,2,0,0,1-.46-1.5v-3h.85v2.9a1.9,1.9,0,0,0,.16.94,1.18,1.18,0,0,0,1.93,0,1.93,1.93,0,0,0,.16-.94V112h.85v3A2,2,0,0,1,263.78,116.47Z"/><path class="cls-1" d="M269,117V114c0-.78-.11-1.39-1-1.39-1.1,0-1.24,1-1.24,1.83V117h-.85v-5h.85v.6a1.8,1.8,0,0,1,2.86,0,2.28,2.28,0,0,1,.29,1.32V117Z"/><path class="cls-1" d="M275.29,117v-.7a2.13,2.13,0,0,1-1.73.84,2.47,2.47,0,0,1-2.4-2.65,2.42,2.42,0,0,1,2.39-2.59,2.1,2.1,0,0,1,1.74.83V112h.85v5Zm-1.61-4.33a1.7,1.7,0,0,0-1.64,1.82,1.72,1.72,0,0,0,1.64,1.87,1.7,1.7,0,0,0,1.66-1.87A1.68,1.68,0,0,0,273.68,112.62Z"/><path class="cls-1" d="M122.67,132.1a2.45,2.45,0,0,1-2.47-2.06l.86-.24a1.63,1.63,0,0,0,1.63,1.46,1.58,1.58,0,0,0,1.61-1.58c0-1.88-3.69-1.44-3.69-3.79a2.11,2.11,0,0,1,2.24-2.06,2.28,2.28,0,0,1,2.06,1.25l-.71.47a1.48,1.48,0,0,0-1.37-.87,1.27,1.27,0,0,0-1.33,1.22c0,1.66,3.69,1.18,3.69,3.75A2.46,2.46,0,0,1,122.67,132.1Z"/><path class="cls-1" d="M128.93,132.1a2.62,2.62,0,1,1,2.63-2.61A2.6,2.6,0,0,1,128.93,132.1Zm0-4.46a1.84,1.84,0,1,0,1.76,1.85A1.75,1.75,0,0,0,128.92,127.63Zm-1-1.68a.61.61,0,0,1-.6-.6.6.6,0,1,1,.6.6Zm2.09,0a.61.61,0,0,1-.6-.6.6.6,0,1,1,.6.6Z"/><path class="cls-1" d="M136,132V129c0-.78-.11-1.39-1-1.39-1.1,0-1.23,1-1.23,1.83V132h-.85v-5h.85v.6a1.8,1.8,0,0,1,2.85,0,2.28,2.28,0,0,1,.29,1.32V132Z"/><path class="cls-1" d="M142.3,132v-.7a2.12,2.12,0,0,1-1.73.84,2.46,2.46,0,0,1-2.4-2.64,2.44,2.44,0,0,1,2.39-2.6,2.14,2.14,0,0,1,1.74.83v-4.47h.85V132Zm-1.61-4.32a1.85,1.85,0,1,0,1.66,1.81A1.67,1.67,0,0,0,140.69,127.63Z"/><path class="cls-1" d="M148.58,132v-.7a2.12,2.12,0,0,1-1.73.84,2.47,2.47,0,0,1-2.4-2.65,2.42,2.42,0,0,1,2.39-2.59,2.1,2.1,0,0,1,1.74.83V127h.85v5ZM147,127.62a1.7,1.7,0,0,0-1.64,1.82,1.72,1.72,0,0,0,1.64,1.87,1.7,1.7,0,0,0,1.66-1.87A1.68,1.68,0,0,0,147,127.62Z"/><path class="cls-1" d="M155.26,133.8a2.41,2.41,0,0,1-2,.92,2.24,2.24,0,0,1-2.42-2.28h.85a1.49,1.49,0,0,0,1.58,1.51c1.2,0,1.6-.9,1.6-2v-.73a2.25,2.25,0,0,1-1.75.83,2.63,2.63,0,0,1,0-5.23,2.13,2.13,0,0,1,1.72.82V127h.86v4.87A3,3,0,0,1,155.26,133.8Zm-2-6.18a1.71,1.71,0,0,0-1.63,1.88,1.68,1.68,0,0,0,1.63,1.81,1.86,1.86,0,0,0,0-3.69Z"/><path class="cls-1" d="M162.73,132v-7.16H161.4l.47-.84h1.75v8Z"/><path class="cls-1" d="M169.82,132.08a2.34,2.34,0,0,1-2.45-2.34,2.09,2.09,0,0,1,1.19-2,2,2,0,0,1-1-1.75,2.24,2.24,0,0,1,4.47,0,2.08,2.08,0,0,1-1,1.76,2.07,2.07,0,0,1,1.16,1.93A2.32,2.32,0,0,1,169.82,132.08Zm0-3.89a1.53,1.53,0,1,0,1.55,1.52A1.54,1.54,0,0,0,169.8,128.2Zm0-3.55a1.39,1.39,0,1,0,1.39,1.39A1.39,1.39,0,0,0,169.82,124.65Z"/><path class="cls-1" d="M177.83,127.77V132H177v-4.19h-.47V127H177v-2.12a2.87,2.87,0,0,1,.13-1,1.38,1.38,0,0,1,1.34-.83,2.17,2.17,0,0,1,.62.11V124a1.52,1.52,0,0,0-.56-.12c-.62,0-.68.47-.68,1V127h1.25v.79Z"/><path class="cls-1" d="M180.42,129.64a1.61,1.61,0,0,0,1.58,1.68,1.72,1.72,0,0,0,1.54-1l.72.4A2.48,2.48,0,0,1,182,132.1a2.63,2.63,0,0,1,0-5.24,2.38,2.38,0,0,1,2.38,2.62v.17Zm1.54-2a1.53,1.53,0,0,0-1.48,1.28h2.93A1.49,1.49,0,0,0,182,127.63Z"/><path class="cls-1" d="M188.2,132.1a2.13,2.13,0,0,1-1.73-.84v.7h-.85v-8.74h.85v4.47a2.14,2.14,0,0,1,1.74-.83,2.44,2.44,0,0,1,2.39,2.6A2.46,2.46,0,0,1,188.2,132.1Zm-.12-4.46a1.68,1.68,0,0,0-1.65,1.84,1.66,1.66,0,1,0,1.65-1.84Z"/><path class="cls-1" d="M194.49,128.35v-.79h5.21v.79Z"/><path class="cls-1" d="M204.48,129.64a1.61,1.61,0,0,0,1.58,1.68,1.72,1.72,0,0,0,1.54-1l.72.4A2.48,2.48,0,0,1,206,132.1a2.63,2.63,0,0,1,0-5.24,2.38,2.38,0,0,1,2.38,2.62v.17Zm1.54-2a1.53,1.53,0,0,0-1.47,1.28h2.93A1.49,1.49,0,0,0,206,127.63Z"/><path class="cls-1" d="M212.81,132V129c0-.78-.11-1.39-1-1.39-1.1,0-1.23,1-1.23,1.83V132h-.85v-5h.85v.6a1.8,1.8,0,0,1,2.85,0,2.28,2.28,0,0,1,.29,1.32V132Z"/><path class="cls-1" d="M219.11,132v-.7a2.12,2.12,0,0,1-1.73.84,2.46,2.46,0,0,1-2.4-2.64,2.44,2.44,0,0,1,2.39-2.6,2.14,2.14,0,0,1,1.74.83v-4.47H220V132Zm-1.61-4.32a1.85,1.85,0,1,0,1.66,1.81A1.67,1.67,0,0,0,217.5,127.63Z"/><path class="cls-1" d="M225.4,132v-.7a2.13,2.13,0,0,1-1.73.84,2.47,2.47,0,0,1-2.4-2.65,2.42,2.42,0,0,1,2.39-2.59,2.1,2.1,0,0,1,1.74.83V127h.85v5Zm-1.61-4.33a1.7,1.7,0,0,0-1.64,1.82,1.72,1.72,0,0,0,1.64,1.87,1.7,1.7,0,0,0,1.66-1.87A1.68,1.68,0,0,0,223.79,127.62Z"/><path class="cls-1" d="M229.22,132.1a1.77,1.77,0,0,1-1.74-1.27l.74-.31c.2.44.48.8,1,.8a.77.77,0,0,0,.82-.78c0-1.08-2.24-.74-2.24-2.29a1.4,1.4,0,0,1,1.45-1.39,1.49,1.49,0,0,1,1.37.9l-.71.37a.8.8,0,0,0-.7-.49.59.59,0,0,0-.6.55c0,.88,2.3.65,2.3,2.28A1.63,1.63,0,0,1,229.22,132.1Z"/><path class="cls-1" d="M232.95,127.77V132h-.86v-4.19h-.52V127h.52v-1.8h.86V127h.88v.79Z"/><path class="cls-1" d="M238.5,127.77V132h-.85v-4.19h-.47V127h.47v-2.12a2.85,2.85,0,0,1,.13-1,1.38,1.38,0,0,1,1.34-.83,2.19,2.19,0,0,1,.63.11V124a1.54,1.54,0,0,0-.56-.12c-.62,0-.68.47-.68,1V127h1.25v.79Z"/><path class="cls-1" d="M242.83,132.1a2.62,2.62,0,1,1,2.63-2.61A2.6,2.6,0,0,1,242.83,132.1Zm0-4.46a1.84,1.84,0,1,0,1.76,1.85A1.75,1.75,0,0,0,242.82,127.63Zm-1-1.68a.61.61,0,0,1-.6-.6.6.6,0,1,1,.6.6Zm2.09,0a.61.61,0,0,1-.6-.6.6.6,0,1,1,.6.6Z"/><path class="cls-1" d="M249.11,127.84a.75.75,0,0,0-.5-.17.92.92,0,0,0-.43.11c-.55.3-.55,1-.55,1.55V132h-.85v-5h.85v.54a1.33,1.33,0,0,1,1.13-.66,1.42,1.42,0,0,1,.77.2Z"/><path class="cls-1" d="M254,132v-.7a2.12,2.12,0,0,1-1.73.84,2.47,2.47,0,0,1-2.4-2.65,2.42,2.42,0,0,1,2.39-2.59,2.1,2.1,0,0,1,1.74.83V127h.85v5Zm-1.61-4.33a1.7,1.7,0,0,0-1.64,1.82,1.72,1.72,0,0,0,1.64,1.87,1.7,1.7,0,0,0,1.66-1.87A1.68,1.68,0,0,0,252.37,127.62Z"/><path class="cls-1" d="M259.6,132V129c0-.78-.11-1.39-1-1.39-1.1,0-1.24,1-1.24,1.83V132h-.85v-5h.85v.6a1.8,1.8,0,0,1,2.85,0,2.28,2.28,0,0,1,.29,1.32V132Z"/><path class="cls-1" d="M267.77,132v-3c0-.64-.11-1.31-.9-1.31s-1.07.84-1.07,1.56V132h-.85v-3c0-.62-.13-1.38-.91-1.38a1,1,0,0,0-.9.54,2.36,2.36,0,0,0-.19,1.08V132h-.85v-5h.85v.53a1.42,1.42,0,0,1,1.24-.65,1.52,1.52,0,0,1,1.37.8,1.7,1.7,0,0,1,2.79-.13,2.33,2.33,0,0,1,.28,1.27V132Z"/><path class="cls-1" d="M274.05,132v-.7a2.13,2.13,0,0,1-1.73.84,2.47,2.47,0,0,1-2.4-2.65,2.42,2.42,0,0,1,2.39-2.59,2.1,2.1,0,0,1,1.74.83V127h.85v5Zm-1.61-4.33a1.7,1.7,0,0,0-1.64,1.82,1.72,1.72,0,0,0,1.64,1.87,1.7,1.7,0,0,0,1.66-1.87A1.68,1.68,0,0,0,272.45,127.62Zm-1-1.67a.61.61,0,0,1-.6-.6.6.6,0,1,1,.6.6Zm2.09,0a.61.61,0,0,1-.6-.6.6.6,0,1,1,.6.6Z"/><path class="cls-1" d="M276.54,132v-8.74h.85V132Z"/><path class="cls-1" d="M282.83,132v-.7a2.13,2.13,0,0,1-1.73.84,2.47,2.47,0,0,1-2.4-2.65,2.42,2.42,0,0,1,2.39-2.59,2.1,2.1,0,0,1,1.74.83V127h.85v5Zm-1.61-4.33a1.7,1.7,0,0,0-1.64,1.82,1.72,1.72,0,0,0,1.64,1.87,1.7,1.7,0,0,0,1.66-1.87A1.68,1.68,0,0,0,281.22,127.62Z"/><path class="cls-1" d="M288.44,132V129c0-.78-.11-1.39-1-1.39-1.1,0-1.23,1-1.23,1.83V132h-.85v-5h.85v.6a1.8,1.8,0,0,1,2.85,0,2.28,2.28,0,0,1,.29,1.32V132Z"/></svg>