<svg id="Layer_1" data-name="Layer 1" xmlns="http://www.w3.org/2000/svg" viewBox="0 0 320 160"><defs><style>.cls-1{fill:#d4ac76;}</style></defs><title>text</title><path class="cls-1" d="M137,99.92l2.79-7h.88l2.74,7h-1.08l-.42-1.07H138.5l-.43,1.07Zm3.23-5.36-1.35,3.36h2.67Z"/><path class="cls-1" d="M147.19,100a3.25,3.25,0,0,1-1.3-.28,3.44,3.44,0,0,1-1.1-.75l.68-.79a2.66,2.66,0,0,0,.8.63,2.05,2.05,0,0,0,1,.25,1.34,1.34,0,0,0,.9-.3.93.93,0,0,0,.35-.74,1.22,1.22,0,0,0-.88-1.14l-.82-.33a2.87,2.87,0,0,1-1.14-.75,1.64,1.64,0,0,1-.37-1.1,1.75,1.75,0,0,1,.57-1.31,2,2,0,0,1,1.42-.55,2.83,2.83,0,0,1,2,.77l-.58.78a1.92,1.92,0,0,0-1.43-.62,1.1,1.1,0,0,0-.74.24.8.8,0,0,0-.29.64.77.77,0,0,0,.21.54,1.94,1.94,0,0,0,.71.43L148,96a2,2,0,0,1,1.46,2,1.91,1.91,0,0,1-.61,1.46A2.33,2.33,0,0,1,147.19,100Z"/><path class="cls-1" d="M151.84,99.92V93h1v3.3l2.9-3.3H157l-2.45,2.76,2.52,4.2h-1.21l-2-3.39-1,1.16v2.23Z"/><path class="cls-1" d="M159.2,99.92V93h1v7Z"/><path class="cls-1" d="M163,99.92V93h1l2.24,3.71L168.54,93h1v7h-1V94.79l0,0-2.24,3.6-2.19-3.54H164v5.11Z"/><path class="cls-1" d="M174,100a3.25,3.25,0,0,1-1.3-.28,3.44,3.44,0,0,1-1.1-.75l.68-.79a2.66,2.66,0,0,0,.8.63,2.05,2.05,0,0,0,1,.25,1.34,1.34,0,0,0,.9-.3.93.93,0,0,0,.35-.74,1.22,1.22,0,0,0-.88-1.14l-.82-.33a2.87,2.87,0,0,1-1.14-.75,1.64,1.64,0,0,1-.37-1.1,1.75,1.75,0,0,1,.57-1.31,2,2,0,0,1,1.42-.55,2.83,2.83,0,0,1,2,.77l-.58.78a1.92,1.92,0,0,0-1.43-.62,1.1,1.1,0,0,0-.74.24.8.8,0,0,0-.29.64.77.77,0,0,0,.21.54,1.94,1.94,0,0,0,.71.43l.84.34a2,2,0,0,1,1.46,2,1.91,1.91,0,0,1-.61,1.46A2.33,2.33,0,0,1,174,100Z"/><path class="cls-1" d="M182.5,99.92V93h1v3.3l2.9-3.3h1.31l-2.45,2.76,2.52,4.2h-1.21l-2-3.39-1,1.16v2.23Z"/><path class="cls-1" d="M193.61,93h1.12l-2.31,4.16v2.8h-1V97.16L189.11,93h1.17L192,96.06Z"/><path class="cls-1" d="M196.72,99.92V93h2.58a2.18,2.18,0,0,1,1.57.61,2.15,2.15,0,0,1-1.22,3.7l2,2.65h-1.2l-2-2.66h-.77v2.66Zm2.45-6h-1.48v2.51h1.47a1.41,1.41,0,0,0,1-.34,1.26,1.26,0,0,0,0-1.8A1.36,1.36,0,0,0,199.17,93.89Z"/><path class="cls-1" d="M203.93,99.92V93h1v3.3l2.9-3.3h1.31l-2.45,2.76,2.52,4.2H208l-2-3.39-1,1.16v2.23Z"/><path class="cls-1" d="M213.33,99.92l-2.71-7h1.09l2.08,5.35L215.88,93H217l-2.72,7Z"/><path class="cls-1" d="M217.54,99.92l2.79-7h.88l2.74,7h-1.08l-.42-1.07H219l-.43,1.07Zm2.51-7.7a.45.45,0,0,1-.35.15.44.44,0,0,1-.34-.15.58.58,0,0,1,0-.76.44.44,0,0,1,.34-.15.46.46,0,0,1,.35.15.57.57,0,0,1,0,.76Zm.72,2.33-1.35,3.36h2.67ZM222,92.23a.47.47,0,0,1-.69,0,.58.58,0,0,1,0-.76.47.47,0,0,1,.69,0,.58.58,0,0,1,0,.76Z"/><path class="cls-1" d="M230.1,96.9V96h2.31v.49a3.58,3.58,0,0,1-3.6,3.58,3.41,3.41,0,0,1-2.54-1,3.75,3.75,0,0,1,0-5.14,3.41,3.41,0,0,1,2.54-1,3.75,3.75,0,0,1,1.46.29,3.57,3.57,0,0,1,1.19.81l-.72.74a2.46,2.46,0,0,0-1.93-.9,2.42,2.42,0,0,0-1.84.79,2.8,2.8,0,0,0,0,3.79,2.43,2.43,0,0,0,1.84.79,2.48,2.48,0,0,0,1.67-.61,2.64,2.64,0,0,0,.88-1.61Z"/><path class="cls-1" d="M240.15,100a2.14,2.14,0,0,1-1.52-.59A1.94,1.94,0,0,1,238,98h1a1,1,0,0,0,.36.76,1.25,1.25,0,0,0,1.68,0,1.11,1.11,0,0,0,.35-.83,1.16,1.16,0,0,0-1.19-1.19h-.4v-.86h.39a1.1,1.1,0,0,0,.81-.32A1.09,1.09,0,0,0,241,94a1.13,1.13,0,0,0-.82-.31,1.09,1.09,0,0,0-.8.32,1.06,1.06,0,0,0-.32.78h-1a1.8,1.8,0,0,1,.6-1.39,2.27,2.27,0,0,1,3,0,1.84,1.84,0,0,1,.6,1.39,1.57,1.57,0,0,1-.3.93,1.62,1.62,0,0,1-.77.59,1.68,1.68,0,0,1,.81.62,1.71,1.71,0,0,1,.3,1,2,2,0,0,1-.64,1.47A2.12,2.12,0,0,1,240.15,100Z"/><path class="cls-1" d="M246.43,100a2.37,2.37,0,0,1-1.4-.43,2.16,2.16,0,0,1-.83-1.13l.88-.34a1.41,1.41,0,0,0,1.35,1,1.36,1.36,0,0,0,1.4-1.39,1.3,1.3,0,0,0-.41-1,1.37,1.37,0,0,0-1-.39,1.3,1.3,0,0,0-1,.42h-1V93h3.9v.93h-2.92v1.87a1.85,1.85,0,0,1,1-.28,2.34,2.34,0,0,1,1.71.64,2.14,2.14,0,0,1,.65,1.6,2.21,2.21,0,0,1-.69,1.63A2.3,2.3,0,0,1,246.43,100Z"/><path class="cls-1" d="M250,101.2l.8-2.23.89.32-1.1,2.14Z"/><path class="cls-1" d="M257,99.92l2.79-7h.88l2.74,7h-1.08l-.42-1.07h-3.41l-.43,1.07Zm3.23-5.36-1.35,3.36h2.67Z"/><path class="cls-1" d="M267.21,100a3.25,3.25,0,0,1-1.3-.28,3.44,3.44,0,0,1-1.1-.75l.68-.79a2.66,2.66,0,0,0,.8.63,2.05,2.05,0,0,0,1,.25,1.34,1.34,0,0,0,.9-.3.93.93,0,0,0,.35-.74,1.22,1.22,0,0,0-.88-1.14l-.82-.33a2.87,2.87,0,0,1-1.14-.75,1.64,1.64,0,0,1-.37-1.1,1.75,1.75,0,0,1,.57-1.31,2,2,0,0,1,1.42-.55,2.83,2.83,0,0,1,2,.77l-.58.78a1.92,1.92,0,0,0-1.43-.62,1.1,1.1,0,0,0-.74.24.8.8,0,0,0-.29.64.77.77,0,0,0,.21.54,1.94,1.94,0,0,0,.71.43L268,96a2,2,0,0,1,1.46,2,1.91,1.91,0,0,1-.61,1.46A2.33,2.33,0,0,1,267.21,100Z"/><path class="cls-1" d="M271.86,99.92V93h1v3.3l2.9-3.3H277l-2.45,2.76,2.52,4.2h-1.21l-2-3.39-1,1.16v2.23Z"/><path class="cls-1" d="M279.21,99.92V93h1v7Z"/><path class="cls-1" d="M283,99.92V93h1l2.24,3.71L288.55,93h1v7h-1V94.79l0,0-2.24,3.6-2.19-3.54H284v5.11Z"/><path class="cls-1" d="M144.82,113a3.25,3.25,0,0,1-1.3-.28,3.44,3.44,0,0,1-1.1-.75l.68-.79a2.66,2.66,0,0,0,.8.63,2.05,2.05,0,0,0,1,.25,1.34,1.34,0,0,0,.9-.3.93.93,0,0,0,.35-.74,1.22,1.22,0,0,0-.88-1.14l-.82-.33a2.87,2.87,0,0,1-1.14-.75,1.64,1.64,0,0,1-.37-1.1,1.75,1.75,0,0,1,.57-1.31,2,2,0,0,1,1.42-.55,2.83,2.83,0,0,1,2,.77l-.58.78a1.92,1.92,0,0,0-1.43-.62,1.1,1.1,0,0,0-.74.24.8.8,0,0,0-.29.64.77.77,0,0,0,.21.54,1.94,1.94,0,0,0,.71.43l.84.34a2,2,0,0,1,1.46,2,1.91,1.91,0,0,1-.61,1.46A2.33,2.33,0,0,1,144.82,113Z"/><path class="cls-1" d="M152.65,113.05a3.42,3.42,0,0,1-2.51-1,3.74,3.74,0,0,1,0-5.16,3.56,3.56,0,0,1,5,0,3.71,3.71,0,0,1,0,5.15A3.42,3.42,0,0,1,152.65,113.05Zm-1.82-1.71a2.52,2.52,0,0,0,3.64,0,2.78,2.78,0,0,0,0-3.8,2.5,2.5,0,0,0-3.64,0,2.79,2.79,0,0,0,0,3.8Zm1.17-6.12a.46.46,0,0,1-.35.15.44.44,0,0,1-.34-.15.58.58,0,0,1,0-.76.45.45,0,0,1,.34-.15.46.46,0,0,1,.35.15.57.57,0,0,1,0,.76Zm1.93,0a.47.47,0,0,1-.69,0,.58.58,0,0,1,0-.76.47.47,0,0,1,.69,0,.58.58,0,0,1,0,.76Z"/><path class="cls-1" d="M158.63,112.92v-7h.68l3.77,4.79V106h1v7h-.54l-3.91-5v5Z"/><path class="cls-1" d="M167,112.92v-7h1.86a3.5,3.5,0,0,1,2.43,6,3.4,3.4,0,0,1-2.47,1Zm1.9-6h-.93V112h1a2.25,2.25,0,0,0,1.71-.75,2.57,2.57,0,0,0,.69-1.82,2.48,2.48,0,0,0-.72-1.81A2.32,2.32,0,0,0,168.86,106.89Z"/><path class="cls-1" d="M173.64,112.92l2.79-7h.88l2.74,7H179l-.42-1.07h-3.41l-.43,1.07Zm3.23-5.36-1.35,3.36h2.67Z"/><path class="cls-1" d="M186.2,109.9V109h2.31v.49a3.58,3.58,0,0,1-3.6,3.58,3.41,3.41,0,0,1-2.54-1,3.75,3.75,0,0,1,0-5.14,3.41,3.41,0,0,1,2.54-1,3.75,3.75,0,0,1,1.46.29,3.57,3.57,0,0,1,1.19.81l-.72.74a2.46,2.46,0,0,0-1.93-.9,2.42,2.42,0,0,0-1.84.79,2.8,2.8,0,0,0,0,3.79,2.43,2.43,0,0,0,1.84.79,2.48,2.48,0,0,0,1.67-.61,2.64,2.64,0,0,0,.88-1.61Z"/><path class="cls-1" d="M195.46,112.92v-5.71l-1.3.67v-.93l1.85-1h.43v7Z"/><path class="cls-1" d="M201,113a2.37,2.37,0,0,1-1.4-.43,2.16,2.16,0,0,1-.83-1.13l.88-.34a1.41,1.41,0,0,0,1.35,1,1.36,1.36,0,0,0,1.4-1.39,1.3,1.3,0,0,0-.41-1,1.37,1.37,0,0,0-1-.39,1.3,1.3,0,0,0-1,.42h-1V106h3.9v.93H200v1.87a1.85,1.85,0,0,1,1-.28,2.34,2.34,0,0,1,1.71.64,2.14,2.14,0,0,1,.65,1.6,2.21,2.21,0,0,1-.69,1.63A2.3,2.3,0,0,1,201,113Z"/><path class="cls-1" d="M208.58,112.92l2.79-7h.88l2.74,7h-1.08l-.42-1.07h-3.41l-.43,1.07Zm3.23-5.36-1.35,3.36h2.67Z"/><path class="cls-1" d="M216.92,112.92v-7h2.38a2.19,2.19,0,0,1,1.61.65,2.25,2.25,0,0,1,.65,1.66,2.18,2.18,0,0,1-.67,1.63,2.25,2.25,0,0,1-1.63.65H217.9v2.38Zm2.31-6H217.9v2.73h1.34a1.28,1.28,0,0,0,1.35-1.35,1.35,1.35,0,0,0-.38-1A1.3,1.3,0,0,0,219.23,106.89Z"/><path class="cls-1" d="M223.86,112.92v-7h2.58a2.18,2.18,0,0,1,1.57.61,2.15,2.15,0,0,1-1.22,3.7l2,2.65h-1.2l-2-2.66h-.77v2.66Zm2.45-6h-1.48v2.51h1.47a1.41,1.41,0,0,0,1-.34,1.26,1.26,0,0,0,0-1.8A1.36,1.36,0,0,0,226.32,106.89Z"/><path class="cls-1" d="M231.08,112.92v-7h1v7Z"/><path class="cls-1" d="M234.91,112.92v-7h1v6h2.86v.93Z"/><path class="cls-1" d="M244.64,112.92v-7h1v3.3l2.9-3.3h1.31l-2.45,2.76,2.52,4.2h-1.21l-2-3.39-1,1.16v2.23Z"/><path class="cls-1" d="M252,112.92v-7h1v6h2.86v.93Z"/><path class="cls-1" d="M262.51,112.92v-5.71l-1.3.67v-.93l1.85-1h.43v7Z"/><path class="cls-1" d="M265.72,112.92v-.61l2.78-3.67a1.39,1.39,0,0,0,.39-.88,1,1,0,0,0-.3-.74,1.06,1.06,0,0,0-.78-.3,1,1,0,0,0-.77.34,1.34,1.34,0,0,0-.32.88h-1a2,2,0,0,1,.58-1.48,2,2,0,0,1,1.48-.6,2.07,2.07,0,0,1,1.48.54,1.79,1.79,0,0,1,.58,1.37,2.49,2.49,0,0,1-.73,1.54L267,112.06h3v.86Z"/><path class="cls-1" d="M271.93,109.89V109h2.72v.86Z"/><path class="cls-1" d="M277.29,112.92v-5.71l-1.3.67v-.93l1.85-1h.43v7Z"/><path class="cls-1" d="M280.45,111.33v-.61l2.42-4.75h1l-2.29,4.5h1.5V109.3h1v1.17h.84v.86h-.84v1.59h-1v-1.59Z"/></svg>