<svg id="Layer_1" data-name="Layer 1" xmlns="http://www.w3.org/2000/svg" viewBox="0 0 320 160"><defs><style>.cls-1{fill:#d80201;}</style></defs><title>text</title><path class="cls-1" d="M177.78,65.72A6.08,6.08,0,0,1,173,67.83a6,6,0,0,1-4.82-2.11,6.33,6.33,0,0,1-1.08-3.92v-9h2.86v8.41a5,5,0,0,0,.46,2.64A3,3,0,0,0,173,65.23a3,3,0,0,0,2.57-1.36,4.73,4.73,0,0,0,.46-2.64V52.82h2.86v9A6.19,6.19,0,0,1,177.78,65.72Z"/><path class="cls-1" d="M187.66,67.81a3.81,3.81,0,0,1-3.19-1.56v6.34H181.8V58h2.66v1.21a3.8,3.8,0,0,1,3.13-1.52,5.09,5.09,0,0,1,.07,10.14Zm-.79-7.75a2.67,2.67,0,1,0,2.66,2.66A2.66,2.66,0,0,0,186.86,60.06Z"/><path class="cls-1" d="M200.17,67.81A3.81,3.81,0,0,1,197,66.25v6.34h-2.66V58H197v1.21a3.79,3.79,0,0,1,3.12-1.52,5.09,5.09,0,0,1,.07,10.14Zm-.79-7.75A2.67,2.67,0,1,0,202,62.73,2.66,2.66,0,0,0,199.38,60.06Z"/><path class="cls-1" d="M206.84,67.5V51h2.66V67.5Z"/><path class="cls-1" d="M214.27,63.17c0,1.47.75,2.55,2.33,2.55a2.5,2.5,0,0,0,2.27-1.28l2.46.4a4.67,4.67,0,0,1-4.69,3,4.78,4.78,0,0,1-5.11-5.08,4.72,4.72,0,0,1,5-5.06c3.15,0,4.86,2.11,4.86,5.15v.35Zm2.31-3.61a2.16,2.16,0,0,0-2.22,1.91h4.51A2.21,2.21,0,0,0,216.58,59.56Z"/><path class="cls-1" d="M227.8,67.7h-1.23L221.71,58h3l2.51,5.37L229.72,58h3Z"/><path class="cls-1" d="M155.74,95.5l-1.3-9-4,9.24h-.79l-3.89-9.24-1.47,9h-2.88l2.73-14.94h2l4,9.59,4.18-9.59h2l2.44,14.94Z"/><path class="cls-1" d="M168.32,95.83a7.61,7.61,0,0,1-7.83-7.63,7.85,7.85,0,1,1,7.83,7.63Zm0-12.72a5.06,5.06,0,1,0,4.91,5A5,5,0,0,0,168.32,83.11Z"/><path class="cls-1" d="M184.27,95.87h-1.52l-6.25-15h3.13l3.92,9.86,4-9.86h3.1Z"/><path class="cls-1" d="M192.34,95.5V80.82h8.12v2.49H195.2v3.26h5.06v2.49H195.2v4h5.26V95.5Z"/><path class="cls-1" d="M219.91,87h-2.22l-.31,2h2.25l-.37,2.4H217l-.66,4.09h-2.75l.66-4.09h-2l-.64,4.09h-2.73l.66-4.09h-2.27l.37-2.4h2.27l.31-2H208l.37-2.42h2.24l.59-3.78h2.73l-.62,3.78h2l.59-3.78h2.75l-.59,3.78h2.22Zm-7,0-.31,2h2l.31-2Z"/><path class="cls-1" d="M226,95.87a5,5,0,0,1-5.28-4.6h2.88a2.39,2.39,0,1,0,2.49-2.57,4.36,4.36,0,0,0-.53,0V86.68a2.34,2.34,0,0,0,.4,0,2,2,0,1,0-1.94-2h-2.71a4.49,4.49,0,0,1,4.91-4.2c2.44,0,4.47,1.45,4.47,4A3.28,3.28,0,0,1,229,87.62a3.61,3.61,0,0,1,2.24,3.61C231.28,94.22,228.84,95.87,226,95.87Z"/><path class="cls-1" d="M238.94,95.87c-4,0-5.68-4.27-5.68-7.7s1.61-7.72,5.68-7.72,5.68,4.25,5.68,7.7S243,95.87,238.94,95.87Zm0-12.89c-2.25,0-2.82,3.48-2.82,5.17s.57,5.21,2.82,5.21,2.82-3.52,2.82-5.21S241.18,83,238.94,83Z"/><path class="cls-1" d="M248.57,95.92l-2.29-1.36L253,83.33h-6.8V80.82h11.31Z"/></svg>