<svg id="Layer_1" data-name="Layer 1" xmlns="http://www.w3.org/2000/svg" viewBox="0 0 320 160"><defs><style>.cls-1{fill:#d80201;}</style></defs><title>text</title><path class="cls-1" d="M155,60.77c-1.43,1.54-3.67,1.3-5.59,1.3V67.5h-2.86V52.82h4.27a5.32,5.32,0,0,1,3.87,1.12,4.67,4.67,0,0,1,1.5,3.54A4.82,4.82,0,0,1,155,60.77Zm-2.51-5a3.42,3.42,0,0,0-2.09-.46h-1v4.27h1.17c1.43,0,2.66-.46,2.66-2.11A2.18,2.18,0,0,0,152.47,55.77Z"/><path class="cls-1" d="M164.11,60.39a2.36,2.36,0,0,0-1.28-.33c-1.8,0-2.29,1.28-2.29,2.86V67.5h-2.66V58h2.66V59.4a3.11,3.11,0,0,1,3.94-1.52Z"/><path class="cls-1" d="M168,63.17c0,1.47.75,2.55,2.33,2.55a2.5,2.5,0,0,0,2.27-1.28l2.46.4a4.67,4.67,0,0,1-4.69,3,4.78,4.78,0,0,1-5.11-5.08,4.72,4.72,0,0,1,5-5.06c3.15,0,4.86,2.11,4.86,5.15v.35Zm2.31-3.61a2.16,2.16,0,0,0-2.22,1.91h4.51A2.21,2.21,0,0,0,170.34,59.56Z"/><path class="cls-1" d="M189.37,67.5V62.29c0-1.12-.18-2.35-1.58-2.35-1.56,0-1.83,1.43-1.83,2.68V67.5h-2.66V62.44a4.24,4.24,0,0,0-.2-1.58,1.54,1.54,0,0,0-1.43-.92,1.74,1.74,0,0,0-1.5.86,4,4,0,0,0-.31,1.83V67.5H177.2V58h2.66v1.08a3.66,3.66,0,0,1,2.9-1.39,3.24,3.24,0,0,1,3,1.74,3.52,3.52,0,0,1,3.12-1.74A3.13,3.13,0,0,1,191.52,59a4.19,4.19,0,0,1,.51,2.31V67.5Z"/><path class="cls-1" d="M195.88,55.55a1.61,1.61,0,1,1,0-3.21,1.61,1.61,0,0,1,0,3.21ZM194.54,67.5V58h2.66V67.5Z"/><path class="cls-1" d="M207,67.5V66.25a3.68,3.68,0,0,1-3.1,1.56c-2.86,0-4.69-2.38-4.69-5.1a4.76,4.76,0,0,1,4.62-5A4,4,0,0,1,207,59.18V58h2.68V67.5Zm-4.6-11.31a1.58,1.58,0,0,1,0-3.17,1.58,1.58,0,1,1,0,3.17Zm2.22,3.87a2.67,2.67,0,1,0,2.66,2.66A2.66,2.66,0,0,0,204.61,60.06ZM207,56.19a1.61,1.61,0,0,1-1.58-1.58A1.58,1.58,0,1,1,207,56.19Z"/><path class="cls-1" d="M218.45,60.39a2.36,2.36,0,0,0-1.28-.33c-1.8,0-2.29,1.28-2.29,2.86V67.5h-2.66V58h2.66V59.4a3.11,3.11,0,0,1,3.94-1.52Z"/><path class="cls-1" d="M228.39,60.26V67.5h-2.66V60.26h-1V58h1V54.91a4.64,4.64,0,0,1,.42-2.24,3.77,3.77,0,0,1,3.3-1.91,3.15,3.15,0,0,1,1.41.33v2.44a2.65,2.65,0,0,0-1.21-.35c-1.19,0-1.25,1.23-1.25,2.13V58h2.46v2.29Z"/><path class="cls-1" d="M237,67.81c-3,0-5.46-1.89-5.46-5.06s2.42-5.08,5.48-5.08,5.41,1.91,5.41,5.06S240.05,67.81,237,67.81Zm-2.31-11.62a1.58,1.58,0,0,1,0-3.17,1.58,1.58,0,0,1,0,3.17ZM237,60.06a2.67,2.67,0,1,0,2.71,2.68A2.69,2.69,0,0,0,237,60.06Zm2.29-3.87a1.61,1.61,0,0,1-1.58-1.58,1.58,1.58,0,1,1,1.58,1.58Z"/><path class="cls-1" d="M250.75,60.39a2.35,2.35,0,0,0-1.28-.33c-1.8,0-2.29,1.28-2.29,2.86V67.5h-2.66V58h2.66V59.4a3.11,3.11,0,0,1,3.94-1.52Z"/><path class="cls-1" d="M129.78,88.26V95.5h-2.66V88.26h-1V86h1V82.91a4.64,4.64,0,0,1,.42-2.24,3.77,3.77,0,0,1,3.3-1.91,3.15,3.15,0,0,1,1.41.33v2.44a2.65,2.65,0,0,0-1.21-.35c-1.19,0-1.25,1.23-1.25,2.13V86h2.46v2.29Z"/><path class="cls-1" d="M139.7,88.39a2.35,2.35,0,0,0-1.28-.33c-1.8,0-2.29,1.28-2.29,2.86V95.5h-2.66V86h2.66V87.4a3.11,3.11,0,0,1,3.94-1.52Z"/><path class="cls-1" d="M148.68,95.5V94.25a3.68,3.68,0,0,1-3.1,1.56c-2.86,0-4.69-2.38-4.69-5.11a4.76,4.76,0,0,1,4.62-5,4,4,0,0,1,3.17,1.52V86h2.68V95.5Zm-2.38-7.44A2.67,2.67,0,1,0,149,90.73,2.66,2.66,0,0,0,146.3,88.06Z"/><path class="cls-1" d="M166.08,95.5V90.29c0-1.12-.18-2.35-1.58-2.35-1.56,0-1.83,1.43-1.83,2.68V95.5H160V90.44a4.24,4.24,0,0,0-.2-1.58,1.54,1.54,0,0,0-1.43-.92,1.74,1.74,0,0,0-1.5.86,4,4,0,0,0-.31,1.83V95.5h-2.66V86h2.66v1.08a3.66,3.66,0,0,1,2.9-1.39,3.24,3.24,0,0,1,3,1.74,3.52,3.52,0,0,1,3.13-1.74A3.13,3.13,0,0,1,168.24,87a4.19,4.19,0,0,1,.51,2.31V95.5Z"/><path class="cls-1" d="M174,88.26V95.5h-2.66V88.26h-1.06V86h1.06V82.72H174V86h1.87v2.29Z"/><path class="cls-1" d="M178.53,83.55a1.61,1.61,0,1,1,0-3.21,1.61,1.61,0,0,1,0,3.21ZM177.19,95.5V86h2.66V95.5Z"/><path class="cls-1" d="M189.64,95.5V94.25a3.68,3.68,0,0,1-3.1,1.56c-2.86,0-4.69-2.38-4.69-5.11a4.76,4.76,0,0,1,4.62-5,4,4,0,0,1,3.17,1.52V79h2.68V95.5Zm-2.38-7.44a2.67,2.67,0,1,0,2.66,2.66A2.66,2.66,0,0,0,187.27,88.06Z"/><path class="cls-1" d="M197.1,91.17c0,1.47.75,2.55,2.33,2.55a2.5,2.5,0,0,0,2.27-1.28l2.46.4a4.67,4.67,0,0,1-4.69,3,4.78,4.78,0,0,1-5.1-5.08,4.72,4.72,0,0,1,5-5.06c3.15,0,4.86,2.11,4.86,5.15v.35Zm2.31-3.61a2.16,2.16,0,0,0-2.22,1.92h4.51A2.21,2.21,0,0,0,199.41,87.56Z"/><path class="cls-1" d="M212.79,95.5V90.22c0-1.3-.29-2.29-1.8-2.29s-2,1.21-2,2.64V95.5h-2.66V86h2.66v1.17a3.52,3.52,0,0,1,3-1.47,3.29,3.29,0,0,1,3.52,3.78V95.5Z"/><path class="cls-1" d="M221,95.81a5.07,5.07,0,0,1-3.63-1.58l1.41-1.63a3.1,3.1,0,0,0,2.24,1.12,1.12,1.12,0,0,0,1.21-1.06c0-1.63-4.25-.81-4.25-4,0-1.94,1.61-3,3.41-3a4.91,4.91,0,0,1,3.1,1l-1.32,1.56a2.65,2.65,0,0,0-1.58-.64c-.46,0-1,.29-1,.81,0,1.39,4.4.77,4.4,4C225,94.62,223.08,95.81,221,95.81Z"/><path class="cls-1" d="M237.25,95.7H236L231.15,86h3l2.51,5.37L239.16,86h3Z"/><path class="cls-1" d="M244.75,83.55a1.61,1.61,0,1,1,0-3.21,1.61,1.61,0,0,1,0,3.21ZM243.41,95.5V86h2.66V95.5Z"/><path class="cls-1" d="M248.58,95.5V79h2.66V95.5Z"/><path class="cls-1" d="M253.79,95.5V79h2.66V95.5Z"/><path class="cls-1" d="M266.29,95.5V94.25a3.68,3.68,0,0,1-3.1,1.56c-2.86,0-4.69-2.38-4.69-5.11a4.76,4.76,0,0,1,4.62-5,4,4,0,0,1,3.17,1.52V86H269V95.5Zm-2.38-7.44a2.67,2.67,0,1,0,2.66,2.66A2.66,2.66,0,0,0,263.91,88.06Z"/></svg>