<svg id="Layer_1" data-name="Layer 1" xmlns="http://www.w3.org/2000/svg" viewBox="0 0 300 600"><defs><style>.cls-1{fill:#fff;}</style></defs><title>text</title><path class="cls-1" d="M80.34,206h-11Q68,206,68,205V187.59c0-.73.45-1.09,1.35-1.09s1.35.36,1.35,1.09v15.95h9.64c.61,0,.92.41.92,1.23S81,206,80.34,206Z"/><path class="cls-1" d="M95.1,203.42c.62,0,.93.37.93,1.12a1.2,1.2,0,0,1-.93,1.34,23,23,0,0,1-4.88.35c-2.28,0-3.92-.37-4.9-1.11a4.4,4.4,0,0,1-1.5-3.73v-5.5c0-1.83.45-3.07,1.35-3.7s2.57-1,5-1,4.1.31,5,.91,1.29,1.86,1.29,3.75v2.38a1.66,1.66,0,0,1-.4,1.14,1.32,1.32,0,0,1-1,.41H86.52v1.75q0,2.22,3.85,2.2a23.26,23.26,0,0,0,2.93-.17A15.36,15.36,0,0,1,95.1,203.42Zm-8.58-7.52v1.55h7.23V195.9a1.9,1.9,0,0,0-.73-1.75,6.14,6.14,0,0,0-2.85-.45,6.69,6.69,0,0,0-2.88.42A1.91,1.91,0,0,0,86.52,195.9Z"/><path class="cls-1" d="M109,201.59v-.34a1.08,1.08,0,0,0-.7-1,6,6,0,0,0-2.45-.33,15,15,0,0,1-3.87-.54,3.13,3.13,0,0,1-1.75-1.19,3.83,3.83,0,0,1-.71-2.4v-.25c0-1.68.51-2.8,1.51-3.37a9.36,9.36,0,0,1,4.6-.88,19.4,19.4,0,0,1,4.57.4,1.21,1.21,0,0,1,.92,1.35c0,.74-.3,1.11-.92,1.11a16.77,16.77,0,0,1-1.89-.19,20.38,20.38,0,0,0-3-.21,7.47,7.47,0,0,0-2.35.27c-.49.17-.74.67-.74,1.48v.28c0,1.06,1.11,1.63,3.34,1.7.93,0,1.86.11,2.8.23a4.28,4.28,0,0,1,2.37,1,3.11,3.11,0,0,1,1,2.5v.37c0,1.8-.51,3-1.53,3.68a9.52,9.52,0,0,1-4.91,1,21.11,21.11,0,0,1-4.84-.38,1.2,1.2,0,0,1-.93-1.34c0-.75.31-1.12.93-1.12.36,0,1.07.07,2.12.19a25.08,25.08,0,0,0,3.08.19,6.21,6.21,0,0,0,2.44-.4A1.72,1.72,0,0,0,109,201.59Z"/><path class="cls-1" d="M128.08,206.15a2.26,2.26,0,0,1-1.44-.49,2.73,2.73,0,0,1-.91-1.21L121.48,193a3.59,3.59,0,0,0-.1-.49c0-.7.44-1.05,1.31-1a1.24,1.24,0,0,1,1.31.78l4,11.28h.14l4-11.28c.2-.52.68-.78,1.45-.78s1.16.35,1.16,1c0,0,0,.18-.09.49l-4.26,11.44a2.5,2.5,0,0,1-.91,1.23A2.45,2.45,0,0,1,128.08,206.15Z"/><path class="cls-1" d="M139,194.09c-.63,0-.94-.37-.94-1.11a1.22,1.22,0,0,1,.94-1.35,21,21,0,0,1,4.86-.4c2.27,0,3.8.37,4.6,1.09s1.22,2,1.22,3.78v5.78c0,1.81-.44,3-1.32,3.53s-2.57.82-5.06.82-4.16-.27-5-.82-1.25-1.71-1.25-3.51.33-3,1-3.71,2-1,4-1h5v-1.55a1.66,1.66,0,0,0-.69-1.52,5,5,0,0,0-2.44-.41,19.44,19.44,0,0,0-3.06.2A11,11,0,0,1,139,194.09Zm8,8v-2.55h-4.15a5.11,5.11,0,0,0-2.5.39c-.38.25-.57.83-.57,1.72s.24,1.49.71,1.75a7.44,7.44,0,0,0,2.86.36,8.34,8.34,0,0,0,2.88-.32A1.32,1.32,0,0,0,147,202.1Zm-5.23-12.39a2.84,2.84,0,0,1,0-4,2.66,2.66,0,0,1,2-.82,2.63,2.63,0,0,1,2,.82,2.79,2.79,0,0,1,0,4,2.8,2.8,0,0,1-3.94,0Zm.78-2a1.2,1.2,0,0,0,.35.87,1.15,1.15,0,0,0,.86.33,1.11,1.11,0,0,0,.84-.35,1.21,1.21,0,0,0,.35-.86,1.17,1.17,0,0,0-.35-.85,1.14,1.14,0,0,0-.86-.35,1.15,1.15,0,0,0-.86.35A1.12,1.12,0,0,0,142.55,187.73Z"/><path class="cls-1" d="M156.57,197.47V205c0,.7-.45,1.05-1.34,1.05s-1.35-.35-1.36-1.05v-7.83a9.25,9.25,0,0,1,.48-3.73,5.21,5.21,0,0,1,.89-1.28c.64-.58,2.25-.88,4.83-.88a8.14,8.14,0,0,1,2.61.27.94.94,0,0,1,.65.95,1.41,1.41,0,0,1-.36,1,1.28,1.28,0,0,1-.92.34l-2-.13a8.93,8.93,0,0,0-2.3.17,2.2,2.2,0,0,0-.68.34,2.91,2.91,0,0,0-.32.68,3.74,3.74,0,0,0-.19,1.05C156.57,196.3,156.57,196.82,156.57,197.47Z"/><path class="cls-1" d="M170.65,206a3.76,3.76,0,0,1-2.86-.88,4.39,4.39,0,0,1-.81-3v-8.25h-1.89c-.6,0-.91-.4-.91-1.19s.31-1.19.91-1.19H167v-3.81q0-1,1.35-1t1.35,1v3.81h3.82c.61,0,.91.4.91,1.19s-.3,1.19-.91,1.19h-3.82v8.45c0,.82.49,1.23,1.46,1.23l2.55-.15c.63,0,.94.36.94,1.09a1.38,1.38,0,0,1-1,1.43C173,206,172,206,170.65,206Z"/><path class="cls-1" d="M67.09,234.87V223c0-.73.47-1.09,1.36-1.09s1.34.36,1.34,1.08v4.85a8.88,8.88,0,0,1,3.61-.6,15.06,15.06,0,0,1,3.47.3,4.11,4.11,0,0,1,2,1.14A4.68,4.68,0,0,1,80.06,231a19.17,19.17,0,0,1,.32,3.89,19.75,19.75,0,0,1-.3,3.86,4,4,0,0,1-1.18,2.21,4.56,4.56,0,0,1-2,1,14.69,14.69,0,0,1-3.15.26A15.88,15.88,0,0,1,70.6,242a4,4,0,0,1-3.17-3.29A17.6,17.6,0,0,1,67.09,234.87Zm10.6.6c0-1.29,0-2.31-.11-3.07a4.15,4.15,0,0,0-.75-2.05c-.29-.44-1.33-.65-3.11-.65a5.5,5.5,0,0,0-2.81.41,2.36,2.36,0,0,0-.9,1.34,15.63,15.63,0,0,0-.28,3c0,1.05,0,1.95.1,2.7a3.77,3.77,0,0,0,.78,2,2.44,2.44,0,0,0,1.78.6c.29,0,.74,0,1.33,0s1,0,1.34,0a6.2,6.2,0,0,0,1-.16,1.27,1.27,0,0,0,.77-.43,5.43,5.43,0,0,0,.53-1.05A7.24,7.24,0,0,0,77.69,235.47Z"/><path class="cls-1" d="M87.25,223v18q0,1.05-1.35,1.05c-.9,0-1.34-.35-1.34-1.05V223c0-.73.44-1.09,1.34-1.09S87.25,222.26,87.25,223Z"/><path class="cls-1" d="M91.56,234.87a18.44,18.44,0,0,1,.33-3.89,4.17,4.17,0,0,1,3.19-3.45,16.53,16.53,0,0,1,6.27,0,4.2,4.2,0,0,1,2,1.14,4.71,4.71,0,0,1,1.18,2.3,18.34,18.34,0,0,1,.33,3.88,18,18,0,0,1-.33,3.86,4.12,4.12,0,0,1-1.2,2.22,4.31,4.31,0,0,1-2,1,14.55,14.55,0,0,1-3.13.26,16.18,16.18,0,0,1-3.14-.24,4.48,4.48,0,0,1-2-1,4.06,4.06,0,0,1-1.17-2.25A17.79,17.79,0,0,1,91.56,234.87Zm3-3.44a7.89,7.89,0,0,0-.32,2.69c0,1.27,0,2.29.11,3a3.59,3.59,0,0,0,.76,2,2.31,2.31,0,0,0,1.75.6q.43,0,1.35,0,2.63,0,3.09-.63a4,4,0,0,0,.78-2c.07-.73.1-1.48.1-2.27q0-3.49-.66-4.23a3.38,3.38,0,0,0-.51-.54,3.5,3.5,0,0,0-2.1-.41c-1.09,0-1.77,0-2.06,0-.92.06-1.5.27-1.74.62A7.07,7.07,0,0,0,94.57,231.43Z"/><path class="cls-1" d="M119.32,225.82c0-.64.45-1,1.34-1s1.35.33,1.35,1v6.35c0,1.89-.47,3.13-1.42,3.72a9.35,9.35,0,0,1-4.72.89,21.67,21.67,0,0,1-4.41-.28v2.32h5.48c2,0,3.43.36,4.16,1.07a4.92,4.92,0,0,1,1.09,3.6c0,1.67-.49,2.83-1.47,3.45s-2.7.95-5.19.95a11.61,11.61,0,0,1-5.24-.85c-1-.56-1.51-1.72-1.52-3.47V231.8a5.06,5.06,0,0,1,.83-3.28,4.58,4.58,0,0,1,3.17-1.14,25.49,25.49,0,0,1,6.55.31Zm-7.86,6.32c0,1.08.21,1.73.6,2a7.28,7.28,0,0,0,2.9.34,12.94,12.94,0,0,0,3.11-.24,1.46,1.46,0,0,0,1-.73,4.45,4.45,0,0,0,.21-1.63v-1.78a33.56,33.56,0,0,0-4.29-.31,6.21,6.21,0,0,0-2.76.44,2,2,0,0,0-.81,1.84Zm0,9.08v2.48a1.46,1.46,0,0,0,1,1.43,8.71,8.71,0,0,0,3.17.41,6.59,6.59,0,0,0,3-.44,1.8,1.8,0,0,0,.76-1.7,1.89,1.89,0,0,0-.73-1.72,5.38,5.38,0,0,0-2.64-.46Z"/><path class="cls-1" d="M136.13,225.82q0-1,1.35-1t1.35,1v6.35c0,1.89-.48,3.13-1.42,3.72a9.39,9.39,0,0,1-4.73.89,21.56,21.56,0,0,1-4.4-.28v2.32h5.47c2.05,0,3.44.36,4.17,1.07a5,5,0,0,1,1.08,3.6c0,1.67-.48,2.83-1.46,3.45s-2.71.95-5.19.95a11.58,11.58,0,0,1-5.24-.85c-1-.56-1.51-1.72-1.52-3.47V231.8a5,5,0,0,1,.83-3.28,4.58,4.58,0,0,1,3.17-1.14,25.41,25.41,0,0,1,6.54.31Zm-7.85,6.32c0,1.08.21,1.73.6,2a7.28,7.28,0,0,0,2.9.34,13,13,0,0,0,3.11-.24,1.49,1.49,0,0,0,1-.73,4.74,4.74,0,0,0,.2-1.63v-1.78a33.54,33.54,0,0,0-4.28-.31,6.15,6.15,0,0,0-2.76.44,2,2,0,0,0-.81,1.84Zm0,9.08v2.48a1.45,1.45,0,0,0,1,1.43,8.71,8.71,0,0,0,3.17.41,6.51,6.51,0,0,0,3-.44,1.78,1.78,0,0,0,.76-1.7,1.89,1.89,0,0,0-.72-1.72,5.38,5.38,0,0,0-2.64-.46Z"/><path class="cls-1" d="M142.53,224a1.43,1.43,0,0,1,.44-1,1.46,1.46,0,0,1,1-.46,1.38,1.38,0,0,1,1,.46,1.53,1.53,0,0,1,.42,1,1.5,1.5,0,0,1-1.46,1.47,1.43,1.43,0,0,1-1-.44A1.48,1.48,0,0,1,142.53,224Zm2.82,4.52V241q0,1.05-1.35,1.05T142.65,241V228.52q0-1.05,1.35-1.05T145.35,228.52Z"/><path class="cls-1" d="M153,230.21c-.33.34-.49,1.42-.49,3.24v7.49c0,.71-.45,1.06-1.34,1.06s-1.35-.35-1.36-1.05v-7.83a15.72,15.72,0,0,1,.26-3.22,2.86,2.86,0,0,1,1.06-1.76,3.88,3.88,0,0,1,1.84-.74,27.22,27.22,0,0,1,3.33-.17c2.52,0,4.11.3,4.78.93a4,4,0,0,1,1.17,2.63,22.09,22.09,0,0,1,.1,2.33V241q0,1.05-1.35,1.05c-.9,0-1.35-.35-1.35-1.06v-7.49c0-1.8-.17-2.87-.51-3.23s-1.37-.52-3.08-.52S153.3,229.87,153,230.21Z"/><path class="cls-1" d="M169.69,230.21c-.33.34-.5,1.42-.5,3.24v7.49c0,.71-.44,1.06-1.34,1.06s-1.34-.35-1.35-1.05v-7.83a15.72,15.72,0,0,1,.26-3.22,2.86,2.86,0,0,1,1.06-1.76,3.84,3.84,0,0,1,1.84-.74,27.1,27.1,0,0,1,3.33-.17q3.78,0,4.77.93a3.92,3.92,0,0,1,1.18,2.63c.06.64.1,1.42.1,2.33V241q0,1.05-1.35,1.05c-.9,0-1.35-.35-1.35-1.06v-7.49c0-1.8-.17-2.87-.51-3.23s-1.37-.52-3.08-.52S170,229.87,169.69,230.21Z"/><path class="cls-1" d="M186.17,223v18q0,1.05-1.35,1.05c-.89,0-1.34-.35-1.34-1.05V223c0-.73.45-1.09,1.34-1.09S186.17,222.26,186.17,223Z"/><path class="cls-1" d="M201.76,239.42c.61,0,.92.37.92,1.12a1.21,1.21,0,0,1-.92,1.34,23,23,0,0,1-4.88.35c-2.29,0-3.92-.37-4.91-1.11a4.42,4.42,0,0,1-1.49-3.73v-5.5c0-1.83.45-3.07,1.35-3.7s2.57-1,5-1,4.11.31,5,.91,1.29,1.86,1.29,3.75v2.38a1.71,1.71,0,0,1-.4,1.14,1.33,1.33,0,0,1-1,.41h-8.53v1.75q0,2.22,3.86,2.2a23.26,23.26,0,0,0,2.93-.17A15.36,15.36,0,0,1,201.76,239.42Zm-8.59-7.52v1.55h7.24V231.9a1.9,1.9,0,0,0-.73-1.75,6.16,6.16,0,0,0-2.86-.45,6.67,6.67,0,0,0-2.87.42A1.89,1.89,0,0,0,193.17,231.9Z"/><path class="cls-1" d="M217.7,225.82c0-.64.44-1,1.34-1s1.35.33,1.35,1v6.35c0,1.89-.47,3.13-1.42,3.72a9.37,9.37,0,0,1-4.73.89,21.56,21.56,0,0,1-4.4-.28v2.32h5.48c2,0,3.43.36,4.16,1.07a4.92,4.92,0,0,1,1.09,3.6c0,1.67-.49,2.83-1.47,3.45s-2.71.95-5.19.95a11.61,11.61,0,0,1-5.24-.85c-1-.56-1.51-1.72-1.52-3.47V231.8a5.06,5.06,0,0,1,.83-3.28,4.58,4.58,0,0,1,3.17-1.14,25.49,25.49,0,0,1,6.55.31Zm-7.86,6.32c0,1.08.21,1.73.6,2a7.28,7.28,0,0,0,2.9.34,12.94,12.94,0,0,0,3.11-.24,1.49,1.49,0,0,0,1-.73,4.45,4.45,0,0,0,.21-1.63v-1.78a33.56,33.56,0,0,0-4.29-.31,6.18,6.18,0,0,0-2.76.44,2,2,0,0,0-.81,1.84Zm0,9.08v2.48a1.46,1.46,0,0,0,1,1.43,8.71,8.71,0,0,0,3.17.41,6.59,6.59,0,0,0,3-.44,1.8,1.8,0,0,0,.76-1.7,1.89,1.89,0,0,0-.73-1.72,5.38,5.38,0,0,0-2.64-.46Z"/><path class="cls-1" d="M234.51,225.82q0-1,1.35-1t1.35,1v6.35c0,1.89-.48,3.13-1.42,3.72a9.39,9.39,0,0,1-4.73.89,21.56,21.56,0,0,1-4.4-.28v2.32h5.47c2.05,0,3.44.36,4.17,1.07a5,5,0,0,1,1.08,3.6c0,1.67-.49,2.83-1.46,3.45s-2.71.95-5.2.95a11.56,11.56,0,0,1-5.23-.85c-1-.56-1.52-1.72-1.53-3.47V231.8a5.06,5.06,0,0,1,.83-3.28,4.63,4.63,0,0,1,3.18-1.14,25.44,25.44,0,0,1,6.54.31Zm-7.85,6.32c0,1.08.21,1.73.6,2a7.22,7.22,0,0,0,2.89.34,13,13,0,0,0,3.12-.24,1.51,1.51,0,0,0,1-.73,4.74,4.74,0,0,0,.2-1.63v-1.78a33.54,33.54,0,0,0-4.28-.31,6.23,6.23,0,0,0-2.77.44,2,2,0,0,0-.8,1.84Zm0,9.08v2.48a1.45,1.45,0,0,0,1,1.43,8.71,8.71,0,0,0,3.17.41,6.53,6.53,0,0,0,2.95-.44,1.78,1.78,0,0,0,.76-1.7,1.89,1.89,0,0,0-.72-1.72,5.44,5.44,0,0,0-2.64-.46Z"/></svg>