<svg id="Layer_1" data-name="Layer 1" xmlns="http://www.w3.org/2000/svg" viewBox="0 0 300 600"><defs><style>.cls-1{fill:#fff;}</style></defs><title>text</title><path class="cls-1" d="M80,265H69c-.89,0-1.34-.35-1.34-1.05V246.59c0-.73.45-1.09,1.34-1.09s1.35.36,1.35,1.09v16H80c.62,0,.92.41.92,1.23S80.57,265,80,265Z"/><path class="cls-1" d="M94.72,262.42c.61,0,.92.37.92,1.12a1.21,1.21,0,0,1-.92,1.34,23.09,23.09,0,0,1-4.88.35c-2.29,0-3.92-.37-4.91-1.11a4.42,4.42,0,0,1-1.49-3.73v-5.5c0-1.83.45-3.07,1.35-3.7s2.57-1,5-1,4.11.31,5,.91,1.28,1.86,1.28,3.75v2.38a1.71,1.71,0,0,1-.39,1.14,1.34,1.34,0,0,1-1,.41H86.13v1.75q0,2.22,3.86,2.2a23.26,23.26,0,0,0,2.93-.17A15.16,15.16,0,0,1,94.72,262.42Zm-8.59-7.52v1.55h7.24V254.9a1.9,1.9,0,0,0-.73-1.75,6.16,6.16,0,0,0-2.86-.45,6.64,6.64,0,0,0-2.87.42A1.89,1.89,0,0,0,86.13,254.9Z"/><path class="cls-1" d="M108.57,260.59v-.34a1.08,1.08,0,0,0-.7-1,6,6,0,0,0-2.45-.33,14.83,14.83,0,0,1-3.86-.54,3.16,3.16,0,0,1-1.76-1.19,3.82,3.82,0,0,1-.7-2.4v-.25c0-1.68.5-2.8,1.51-3.37a9.31,9.31,0,0,1,4.6-.88,19.4,19.4,0,0,1,4.57.4,1.22,1.22,0,0,1,.92,1.35c0,.74-.31,1.11-.92,1.11a16.36,16.36,0,0,1-1.89-.19,20.42,20.42,0,0,0-3-.21,7.44,7.44,0,0,0-2.34.27c-.5.17-.75.67-.75,1.48v.28c0,1.06,1.12,1.63,3.34,1.7.93,0,1.86.11,2.8.23a4.22,4.22,0,0,1,2.37,1,3.08,3.08,0,0,1,1,2.5v.37c0,1.8-.51,3-1.52,3.68a9.57,9.57,0,0,1-4.91,1,21.21,21.21,0,0,1-4.85-.38,1.21,1.21,0,0,1-.92-1.34c0-.75.31-1.12.92-1.12.36,0,1.07.07,2.12.19a25.2,25.2,0,0,0,3.08.19,6.27,6.27,0,0,0,2.45-.4A1.73,1.73,0,0,0,108.57,260.59Z"/><path class="cls-1" d="M124.89,246v4.64a20.08,20.08,0,0,1,3.76-.4,15.58,15.58,0,0,1,2.83.21,3.4,3.4,0,0,1,3,2.71,15.58,15.58,0,0,1,.27,3.27V264q0,1.05-1.35,1.05c-.9,0-1.35-.35-1.35-1.06V256.7a16.18,16.18,0,0,0-.12-2.27,1.74,1.74,0,0,0-.61-1.19,2.14,2.14,0,0,0-1.06-.47,16.81,16.81,0,0,0-1.91-.07,25.35,25.35,0,0,0-3.45.3v10.94c0,.71-.44,1.06-1.34,1.06s-1.34-.35-1.35-1.05V246c0-.73.46-1.09,1.35-1.09S124.89,245.26,124.89,246Z"/><path class="cls-1" d="M144.9,265.15a2.25,2.25,0,0,1-1.43-.49,2.65,2.65,0,0,1-.91-1.21L138.31,252c-.06-.31-.09-.47-.1-.49,0-.7.43-1.05,1.3-1a1.25,1.25,0,0,1,1.32.78l4,11.28H145l4-11.28c.19-.52.68-.78,1.45-.78s1.16.35,1.16,1c0,0,0,.18-.09.49l-4.26,11.44a2.5,2.5,0,0,1-.91,1.23A2.45,2.45,0,0,1,144.9,265.15Z"/><path class="cls-1" d="M155.87,253.09q-.93,0-.93-1.11a1.22,1.22,0,0,1,.93-1.35,21.07,21.07,0,0,1,4.87-.4c2.26,0,3.8.37,4.6,1.09s1.21,2,1.21,3.78v5.78c0,1.81-.44,3-1.32,3.53s-2.56.82-5,.82-4.16-.27-5-.82-1.27-1.71-1.27-3.51.32-3,1-3.71,2-1,4-1h5v-1.55a1.66,1.66,0,0,0-.69-1.52,5.05,5.05,0,0,0-2.45-.41,19.44,19.44,0,0,0-3.06.2A10.91,10.91,0,0,1,155.87,253.09Zm8,8v-2.55h-4.17a5.13,5.13,0,0,0-2.51.39c-.38.25-.57.83-.57,1.72s.24,1.49.71,1.75a7.53,7.53,0,0,0,2.87.36,8.41,8.41,0,0,0,2.89-.32A1.32,1.32,0,0,0,163.86,261.1Z"/><path class="cls-1" d="M183.38,265.15a2.25,2.25,0,0,1-1.43-.49,2.73,2.73,0,0,1-.91-1.21L176.79,252c-.06-.31-.09-.47-.1-.49,0-.7.43-1.05,1.3-1a1.24,1.24,0,0,1,1.32.78l4,11.28h.14l4-11.28c.2-.52.68-.78,1.45-.78s1.16.35,1.16,1c0,0,0,.18-.09.49l-4.26,11.44a2.5,2.5,0,0,1-.91,1.23A2.45,2.45,0,0,1,183.38,265.15Z"/><path class="cls-1" d="M194.33,253.09c-.63,0-.94-.37-.94-1.11a1.22,1.22,0,0,1,.94-1.35,20.91,20.91,0,0,1,4.86-.4c2.27,0,3.8.37,4.6,1.09s1.21,2,1.21,3.78v5.78c0,1.81-.44,3-1.31,3.53s-2.57.82-5.06.82-4.16-.27-5-.82-1.25-1.71-1.25-3.51.32-3,1-3.71,2-1,4-1h5v-1.55a1.66,1.66,0,0,0-.69-1.52,5,5,0,0,0-2.45-.41,19.44,19.44,0,0,0-3.06.2A10.92,10.92,0,0,1,194.33,253.09Zm8,8v-2.55h-4.15a5.08,5.08,0,0,0-2.5.39c-.38.25-.57.83-.57,1.72s.23,1.49.71,1.75a7.37,7.37,0,0,0,2.85.36,8.37,8.37,0,0,0,2.89-.32A1.33,1.33,0,0,0,202.31,261.1Zm-5.23-12.39a2.69,2.69,0,0,1-.81-2,2.79,2.79,0,1,1,4.75,2,2.69,2.69,0,0,1-2,.81A2.66,2.66,0,0,1,197.08,248.71Zm.78-2a1.16,1.16,0,0,0,.35.87,1.23,1.23,0,0,0,1.7,0,1.21,1.21,0,0,0,.35-.86,1.17,1.17,0,0,0-.35-.85,1.23,1.23,0,0,0-1.72,0A1.12,1.12,0,0,0,197.86,246.73Z"/><path class="cls-1" d="M211.88,256.47V264c0,.7-.45,1.05-1.34,1.05s-1.35-.35-1.36-1.05v-7.83a9.25,9.25,0,0,1,.48-3.73,5.21,5.21,0,0,1,.89-1.28c.64-.58,2.25-.88,4.83-.88a8.11,8.11,0,0,1,2.6.27,1,1,0,0,1,.66.95,1.41,1.41,0,0,1-.36,1,1.31,1.31,0,0,1-.93.34l-2-.13a8.88,8.88,0,0,0-2.3.17,2.09,2.09,0,0,0-.68.34,2.55,2.55,0,0,0-.32.68,3.42,3.42,0,0,0-.19,1.05C211.88,255.3,211.88,255.82,211.88,256.47Z"/><path class="cls-1" d="M232.09,262.42c.62,0,.92.37.92,1.12a1.2,1.2,0,0,1-.92,1.34,23,23,0,0,1-4.88.35q-3.42,0-4.91-1.11a4.42,4.42,0,0,1-1.49-3.73v-5.5c0-1.83.45-3.07,1.35-3.7s2.57-1,5-1,4.11.31,5,.91,1.29,1.86,1.29,3.75v2.38a1.71,1.71,0,0,1-.4,1.14,1.32,1.32,0,0,1-1,.41h-8.52v1.75q0,2.22,3.85,2.2a23.26,23.26,0,0,0,2.93-.17A15.36,15.36,0,0,1,232.09,262.42Zm-8.58-7.52v1.55h7.23V254.9a1.9,1.9,0,0,0-.73-1.75,6.16,6.16,0,0,0-2.86-.45,6.67,6.67,0,0,0-2.87.42A1.89,1.89,0,0,0,223.51,254.9Z"/><path class="cls-1" d="M26.76,282v11.57l6.7-6.78a1.39,1.39,0,0,1,1-.46,1.31,1.31,0,0,1,.94.38,1.17,1.17,0,0,1,.38.88,1.39,1.39,0,0,1-.48,1l-3.87,3.6,4.77,6.67a1.51,1.51,0,0,1,.3.89,1.16,1.16,0,0,1-.43.88,1.42,1.42,0,0,1-1,.41,1,1,0,0,1-.88-.48L29.51,294l-2.75,2.55V300c0,.7-.45,1.05-1.34,1.05s-1.35-.35-1.36-1.05V282c0-.73.46-1.09,1.36-1.09S26.76,281.26,26.76,282Z"/><path class="cls-1" d="M43.65,298.76h2.79a3.5,3.5,0,0,0,.94-.16,1.71,1.71,0,0,0,.76-.46,1.83,1.83,0,0,0,.32-1.2c0-.6,0-1.24,0-1.93v-7.48c0-.71.45-1.06,1.35-1.06s1.34.35,1.34,1v7.84A16.84,16.84,0,0,1,51,298.6a2.86,2.86,0,0,1-1,1.74,3.92,3.92,0,0,1-1.82.75,23.43,23.43,0,0,1-3.07.14,23.25,23.25,0,0,1-3.06-.14,3.89,3.89,0,0,1-1.81-.75,2.75,2.75,0,0,1-1-1.74,17.38,17.38,0,0,1-.25-3.24v-7.84q0-1,1.35-1c.9,0,1.34.35,1.34,1.06V295c0,1.83.17,2.91.49,3.26a1.5,1.5,0,0,0,.63.33A3.43,3.43,0,0,0,43.65,298.76Z"/><path class="cls-1" d="M58.59,289.21c-.34.34-.5,1.42-.5,3.24v7.49c0,.71-.45,1.06-1.34,1.06s-1.35-.35-1.36-1.05v-7.83a14.93,14.93,0,0,1,.27-3.22,2.81,2.81,0,0,1,1.05-1.76,3.88,3.88,0,0,1,1.85-.74,26.9,26.9,0,0,1,3.32-.17c2.52,0,4.11.3,4.78.93a4,4,0,0,1,1.17,2.63,22.09,22.09,0,0,1,.1,2.33V300q0,1.05-1.35,1.05c-.89,0-1.34-.35-1.34-1.06v-7.49c0-1.8-.17-2.87-.52-3.23s-1.37-.52-3.08-.52S58.92,288.87,58.59,289.21Z"/><path class="cls-1" d="M85.28,282v11.88A17.7,17.7,0,0,1,85,297.7a4.17,4.17,0,0,1-1.18,2.23,4.39,4.39,0,0,1-2,1,14.26,14.26,0,0,1-3.12.26,16.32,16.32,0,0,1-3.14-.24,4.45,4.45,0,0,1-2-1,4.06,4.06,0,0,1-1.18-2.25,20,20,0,0,1-.32-3.83,18.28,18.28,0,0,1,.34-3.89,4.16,4.16,0,0,1,3.18-3.45,15,15,0,0,1,3.46-.3,8.86,8.86,0,0,1,3.6.6V282q0-1.08,1.35-1.08C84.83,280.9,85.28,281.26,85.28,282ZM75,290.43a7.89,7.89,0,0,0-.32,2.69c0,1.27,0,2.29.1,3.05a3.67,3.67,0,0,0,.76,2,2.36,2.36,0,0,0,1.76.6c.29,0,.74,0,1.34,0,1.76,0,2.79-.21,3.1-.63a4,4,0,0,0,.78-2c.06-.73.1-1.48.1-2.27q0-3.5-.66-4.23a3.38,3.38,0,0,0-.51-.54,3.52,3.52,0,0,0-2.11-.41c-1.08,0-1.77,0-2.06,0a2.3,2.3,0,0,0-1.74.62A8.37,8.37,0,0,0,75,290.43Z"/><path class="cls-1" d="M100.5,298.42c.61,0,.92.37.92,1.12a1.21,1.21,0,0,1-.92,1.34,23.09,23.09,0,0,1-4.88.35c-2.29,0-3.92-.37-4.91-1.11a4.4,4.4,0,0,1-1.49-3.73v-5.5c0-1.83.45-3.07,1.34-3.7s2.58-1,5-1,4.11.31,5,.91,1.29,1.86,1.29,3.75v2.38a1.71,1.71,0,0,1-.39,1.14,1.36,1.36,0,0,1-1,.41H91.91v1.75c0,1.48,1.29,2.21,3.85,2.2a23.15,23.15,0,0,0,2.93-.17A15.28,15.28,0,0,1,100.5,298.42Zm-8.59-7.52v1.55h7.24V290.9a1.93,1.93,0,0,0-.73-1.75,6.16,6.16,0,0,0-2.86-.45,6.64,6.64,0,0,0-2.87.42A1.89,1.89,0,0,0,91.91,290.9Z"/><path class="cls-1" d="M108.58,292.47V300c0,.7-.45,1.05-1.34,1.05s-1.34-.35-1.35-1.05v-7.83a9.25,9.25,0,0,1,.48-3.73,5,5,0,0,1,.89-1.28c.64-.58,2.25-.88,4.82-.88a8.14,8.14,0,0,1,2.61.27,1,1,0,0,1,.66.95,1.38,1.38,0,0,1-.37,1,1.27,1.27,0,0,1-.92.34l-2-.13a8.93,8.93,0,0,0-2.3.17,2.12,2.12,0,0,0-.67.34,2.27,2.27,0,0,0-.32.68,3.42,3.42,0,0,0-.19,1.05C108.59,291.3,108.58,291.82,108.58,292.47Z"/><path class="cls-1" d="M133.89,296.59v-.34a1.08,1.08,0,0,0-.7-1,6,6,0,0,0-2.45-.33,14.83,14.83,0,0,1-3.86-.54,3.16,3.16,0,0,1-1.76-1.19,3.82,3.82,0,0,1-.7-2.4v-.25c0-1.68.5-2.8,1.51-3.37a9.29,9.29,0,0,1,4.59-.88,19.44,19.44,0,0,1,4.58.4A1.22,1.22,0,0,1,136,288c0,.74-.31,1.11-.92,1.11a16.36,16.36,0,0,1-1.89-.19,20.42,20.42,0,0,0-3-.21,7.44,7.44,0,0,0-2.34.27c-.5.17-.75.67-.75,1.48v.28c0,1.06,1.12,1.63,3.34,1.7.93,0,1.86.11,2.8.23a4.22,4.22,0,0,1,2.37,1,3.08,3.08,0,0,1,1,2.5v.37c0,1.8-.51,3-1.52,3.68a9.57,9.57,0,0,1-4.91,1,21.21,21.21,0,0,1-4.85-.38,1.2,1.2,0,0,1-.92-1.34c0-.75.3-1.12.92-1.12.36,0,1.07.07,2.12.19a25.2,25.2,0,0,0,3.08.19,6.27,6.27,0,0,0,2.45-.4A1.73,1.73,0,0,0,133.89,296.59Z"/><path class="cls-1" d="M140.46,283a1.39,1.39,0,0,1,.44-1,1.42,1.42,0,0,1,1-.46,1.38,1.38,0,0,1,1,.46,1.54,1.54,0,0,1,.43,1.05,1.46,1.46,0,0,1-2.51,1A1.47,1.47,0,0,1,140.46,283Zm2.81,4.52V300q0,1.05-1.35,1.05T140.57,300V287.52q0-1,1.35-1T143.27,287.52Z"/><path class="cls-1" d="M158.86,298.42c.61,0,.92.37.92,1.12a1.21,1.21,0,0,1-.92,1.34,23.09,23.09,0,0,1-4.88.35c-2.29,0-3.92-.37-4.91-1.11a4.4,4.4,0,0,1-1.49-3.73v-5.5c0-1.83.44-3.07,1.34-3.7s2.58-1,5-1,4.1.31,5,.91,1.29,1.86,1.29,3.75v2.38a1.71,1.71,0,0,1-.39,1.14,1.36,1.36,0,0,1-1,.41h-8.52v1.75c0,1.48,1.29,2.21,3.85,2.2a23.15,23.15,0,0,0,2.93-.17A15.28,15.28,0,0,1,158.86,298.42Zm-8.59-7.52v1.55h7.24V290.9a1.93,1.93,0,0,0-.73-1.75,6.19,6.19,0,0,0-2.86-.45,6.64,6.64,0,0,0-2.87.42A1.89,1.89,0,0,0,150.27,290.9Z"/><path class="cls-1" d="M166.94,292.47V300c0,.7-.45,1.05-1.34,1.05s-1.34-.35-1.35-1.05v-7.83a9.25,9.25,0,0,1,.48-3.73,5,5,0,0,1,.89-1.28c.64-.58,2.25-.88,4.82-.88a8.14,8.14,0,0,1,2.61.27,1,1,0,0,1,.66.95,1.38,1.38,0,0,1-.37,1,1.27,1.27,0,0,1-.92.34l-2-.13a8.93,8.93,0,0,0-2.3.17,2.12,2.12,0,0,0-.67.34,2.27,2.27,0,0,0-.32.68,3.14,3.14,0,0,0-.19,1.05C167,291.3,166.94,291.82,166.94,292.47Z"/><path class="cls-1" d="M183.07,293.87a18.44,18.44,0,0,1,.33-3.89,4.17,4.17,0,0,1,3.19-3.45,16.53,16.53,0,0,1,6.27,0,4.2,4.2,0,0,1,2,1.14,4.62,4.62,0,0,1,1.18,2.3,18.34,18.34,0,0,1,.33,3.88,18,18,0,0,1-.33,3.86,4,4,0,0,1-1.2,2.22,4.31,4.31,0,0,1-2,1,14.49,14.49,0,0,1-3.13.26,16.25,16.25,0,0,1-3.14-.24,4.48,4.48,0,0,1-2-1,4.06,4.06,0,0,1-1.17-2.25A17.79,17.79,0,0,1,183.07,293.87Zm3-3.44a7.58,7.58,0,0,0-.33,2.69c0,1.27,0,2.29.11,3.05a3.59,3.59,0,0,0,.76,2,2.31,2.31,0,0,0,1.75.6q.44,0,1.35,0c1.75,0,2.78-.21,3.1-.63a4.06,4.06,0,0,0,.77-2c.07-.73.1-1.48.1-2.27q0-3.5-.66-4.23a3.38,3.38,0,0,0-.51-.54,3.5,3.5,0,0,0-2.1-.41c-1.08,0-1.77,0-2.06,0-.92.06-1.5.27-1.74.62A6.39,6.39,0,0,0,186.09,290.43Z"/><path class="cls-1" d="M215.34,288.7c-.81,0-1.39,0-1.74.05a1.62,1.62,0,0,0-.94.44,1.51,1.51,0,0,0-.48,1,17.18,17.18,0,0,0-.08,1.91v7.84c0,.71-.45,1.06-1.35,1.06s-1.34-.35-1.34-1.06v-8.23c0-1.38-.18-2.23-.55-2.54a3.61,3.61,0,0,0-2.24-.47c-1.14,0-1.88,0-2.22.05a1.47,1.47,0,0,0-.93.49,1.76,1.76,0,0,0-.43,1.09c0,.44-.06,1.15-.06,2.12v7.49c0,.71-.45,1.06-1.34,1.06s-1.35-.35-1.36-1.05v-7.83a9.74,9.74,0,0,1,.69-4.32,3.25,3.25,0,0,1,2.83-1.46c.55-.06,1.35-.1,2.4-.11,2.32,0,3.84.28,4.55.84q1.06-.82,4.56-.84c1,0,1.82,0,2.39.09,1.45.17,2.39.63,2.8,1.39a10,10,0,0,1,.73,4.41V300q0,1.05-1.35,1.05c-.9,0-1.35-.35-1.35-1.06v-7.49c0-1,0-1.68-.07-2.12a1.83,1.83,0,0,0-.44-1.09,1.47,1.47,0,0,0-.92-.49C216.75,288.71,216.16,288.7,215.34,288.7Z"/><path class="cls-1" d="M232.49,293.87a17.71,17.71,0,0,1,.34-3.89,4.16,4.16,0,0,1,3.18-3.45,13.32,13.32,0,0,1,3.14-.3,13.17,13.17,0,0,1,3.13.3,4.15,4.15,0,0,1,2,1.14,4.72,4.72,0,0,1,1.19,2.3,19.13,19.13,0,0,1,.32,3.88,18.78,18.78,0,0,1-.32,3.86,4.12,4.12,0,0,1-1.2,2.22,4.4,4.4,0,0,1-2,1,14.43,14.43,0,0,1-3.13.26A16.25,16.25,0,0,1,236,301a4.45,4.45,0,0,1-2-1,4,4,0,0,1-1.18-2.25A18.46,18.46,0,0,1,232.49,293.87Zm3-3.44a7.64,7.64,0,0,0-.32,2.69c0,1.27,0,2.29.1,3.05a3.67,3.67,0,0,0,.76,2,2.33,2.33,0,0,0,1.75.6q.45,0,1.35,0c1.75,0,2.79-.21,3.1-.63a4,4,0,0,0,.78-2c.06-.73.1-1.48.1-2.27q0-3.5-.66-4.23a4.61,4.61,0,0,0-.51-.54,3.54,3.54,0,0,0-2.11-.41c-1.08,0-1.77,0-2.06,0-.92.06-1.5.27-1.74.62A6.39,6.39,0,0,0,235.51,290.43Z"/><path class="cls-1" d="M258.77,296.59v-.34a1.08,1.08,0,0,0-.7-1,6,6,0,0,0-2.45-.33,14.83,14.83,0,0,1-3.86-.54,3.16,3.16,0,0,1-1.76-1.19,3.83,3.83,0,0,1-.71-2.4v-.25c0-1.68.51-2.8,1.51-3.37a9.36,9.36,0,0,1,4.6-.88,19.34,19.34,0,0,1,4.57.4,1.22,1.22,0,0,1,.93,1.35q0,1.11-.93,1.11a16.77,16.77,0,0,1-1.89-.19,20.28,20.28,0,0,0-3-.21,7.4,7.4,0,0,0-2.34.27c-.5.17-.75.67-.75,1.48v.28c0,1.06,1.11,1.63,3.34,1.7.93,0,1.86.11,2.8.23a4.25,4.25,0,0,1,2.37,1,3.11,3.11,0,0,1,1,2.5v.37c0,1.8-.51,3-1.53,3.68a9.5,9.5,0,0,1-4.9,1,21.15,21.15,0,0,1-4.85-.38,1.2,1.2,0,0,1-.92-1.34c0-.75.3-1.12.92-1.12.36,0,1.07.07,2.12.19a25.2,25.2,0,0,0,3.08.19,6.21,6.21,0,0,0,2.44-.4A1.72,1.72,0,0,0,258.77,296.59Z"/><path class="cls-1" d="M273.67,296.59v-.34a1.08,1.08,0,0,0-.7-1,6,6,0,0,0-2.45-.33,15,15,0,0,1-3.87-.54,3.19,3.19,0,0,1-1.76-1.19,3.89,3.89,0,0,1-.7-2.4v-.25c0-1.68.51-2.8,1.51-3.37a9.36,9.36,0,0,1,4.6-.88,19.4,19.4,0,0,1,4.57.4,1.21,1.21,0,0,1,.92,1.35c0,.74-.3,1.11-.92,1.11a16.77,16.77,0,0,1-1.89-.19,20.38,20.38,0,0,0-3-.21,7.47,7.47,0,0,0-2.35.27c-.49.17-.74.67-.74,1.48v.28c0,1.06,1.11,1.63,3.34,1.7.92,0,1.86.11,2.8.23a4.28,4.28,0,0,1,2.37,1,3.11,3.11,0,0,1,1,2.5v.37c0,1.8-.51,3-1.53,3.68a9.52,9.52,0,0,1-4.91,1,21.11,21.11,0,0,1-4.84-.38,1.2,1.2,0,0,1-.93-1.34c0-.75.31-1.12.93-1.12.36,0,1.06.07,2.12.19a25.08,25.08,0,0,0,3.08.19,6.21,6.21,0,0,0,2.44-.4A1.72,1.72,0,0,0,273.67,296.59Z"/></svg>