<svg id="Layer_1" data-name="Layer 1" xmlns="http://www.w3.org/2000/svg" viewBox="0 0 300 600"><defs><style>.cls-1{fill:#fff;}</style></defs><title>text</title><path class="cls-1" d="M16.73,38.77V52.66q0,.84-1.08.84t-1.08-.84V38.77q0-.87,1.08-.87T16.73,38.77Zm9.65,0a1.24,1.24,0,0,1-.39.82l-5.9,6.2L26.43,52a.83.83,0,0,1,.27.65,1.05,1.05,0,0,1-.35.75,1,1,0,0,1-.75.33,1.12,1.12,0,0,1-.79-.35l-6-5.82q-1.63-1.56,0-3.36l5.7-6a1,1,0,0,1,1.53-.06A.85.85,0,0,1,26.38,38.76Z"/><path class="cls-1" d="M32.23,51.71h2.23a3,3,0,0,0,.76-.13,1.39,1.39,0,0,0,.61-.37,1.5,1.5,0,0,0,.25-1c0-.48,0-1,0-1.54v-6q0-.84,1.08-.84t1.08.84V49a14.05,14.05,0,0,1-.19,2.59A2.27,2.27,0,0,1,37.26,53a3.15,3.15,0,0,1-1.46.6,18.38,18.38,0,0,1-2.45.12,18.28,18.28,0,0,1-2.45-.12,3.07,3.07,0,0,1-1.45-.6,2.26,2.26,0,0,1-.82-1.39,14.82,14.82,0,0,1-.2-2.59V42.72c0-.56.37-.84,1.09-.84s1.07.28,1.07.84v6A4.93,4.93,0,0,0,31,51.32a1.18,1.18,0,0,0,.5.26A2.81,2.81,0,0,0,32.23,51.71Z"/><path class="cls-1" d="M44.18,44.07a4.79,4.79,0,0,0-.4,2.59v6c0,.57-.35.85-1.07.85s-1.07-.28-1.08-.84V46.4a12.32,12.32,0,0,1,.21-2.58,2.26,2.26,0,0,1,.84-1.41,3.07,3.07,0,0,1,1.48-.59,22.25,22.25,0,0,1,2.66-.13c2,0,3.29.24,3.82.74a3.17,3.17,0,0,1,.94,2.11c.05.5.08,1.12.08,1.86v6.26q0,.84-1.08.84c-.72,0-1.08-.28-1.08-.85v-6c0-1.44-.13-2.3-.41-2.58s-1.09-.42-2.46-.42S44.45,43.79,44.18,44.07Z"/><path class="cls-1" d="M65.53,38.29v9.5a14.76,14.76,0,0,1-.25,3.07,3.36,3.36,0,0,1-1,1.78,3.49,3.49,0,0,1-1.6.84,11.51,11.51,0,0,1-2.49.21,12.74,12.74,0,0,1-2.51-.2,3.49,3.49,0,0,1-1.62-.83,3.28,3.28,0,0,1-.94-1.8,15.48,15.48,0,0,1-.25-3.07,15,15,0,0,1,.26-3.1,3.35,3.35,0,0,1,2.55-2.77,12.71,12.71,0,0,1,2.77-.23,7.26,7.26,0,0,1,2.88.47V38.29q0-.87,1.08-.87C65.17,37.42,65.53,37.71,65.53,38.29Zm-8.2,6.76a6.18,6.18,0,0,0-.26,2.14c0,1,0,1.84.08,2.44a3,3,0,0,0,.61,1.58,1.89,1.89,0,0,0,1.41.49l1.07,0c1.41,0,2.23-.17,2.48-.51a3.15,3.15,0,0,0,.62-1.59,17.74,17.74,0,0,0,.08-1.81c0-1.87-.17-3-.52-3.39a1.93,1.93,0,0,0-2.1-.76c-.86,0-1.41,0-1.65,0-.73,0-1.19.21-1.39.49A6.59,6.59,0,0,0,57.33,45.05Z"/><path class="cls-1" d="M77.71,51.44c.49,0,.74.29.74.89a1,1,0,0,1-.74,1.08,19.2,19.2,0,0,1-3.9.28,6.7,6.7,0,0,1-3.93-.89,3.51,3.51,0,0,1-1.19-3v-4.4a3.45,3.45,0,0,1,1.07-3,7.45,7.45,0,0,1,4-.76,7.56,7.56,0,0,1,4,.72c.68.49,1,1.49,1,3v1.9a1.38,1.38,0,0,1-.32.92,1,1,0,0,1-.81.32H70.84V50c0,1.18,1,1.77,3.08,1.76a18.22,18.22,0,0,0,2.35-.14A11.28,11.28,0,0,1,77.71,51.44Zm-6.87-6v1.24h5.79V45.42a1.53,1.53,0,0,0-.58-1.4,4.93,4.93,0,0,0-2.29-.36,5.25,5.25,0,0,0-2.3.34A1.52,1.52,0,0,0,70.84,45.42Z"/><path class="cls-1" d="M90.47,44a5.33,5.33,0,0,1-1.19-.15A12.08,12.08,0,0,0,87,43.66,5,5,0,0,0,84.8,44a1.48,1.48,0,0,0-.72,1.44V50q0,1.78,3.09,1.77a12,12,0,0,0,2.11-.15,6.39,6.39,0,0,1,1.19-.16c.5,0,.75.3.75.89a1,1,0,0,1-.75,1.08,15.47,15.47,0,0,1-3.67.31,6.17,6.17,0,0,1-3.68-.89,3.54,3.54,0,0,1-1.19-3v-4.4a3.35,3.35,0,0,1,1.12-2.95,6.81,6.81,0,0,1,3.69-.77,13.29,13.29,0,0,1,3.73.38.94.94,0,0,1,.75,1C91.22,43.69,91,44,90.47,44Z"/><path class="cls-1" d="M94.61,44c-.5,0-.75-.29-.75-.89A1,1,0,0,1,94.61,42a16.84,16.84,0,0,1,3.89-.31c1.81,0,3,.29,3.68.86a3.92,3.92,0,0,1,1,3v4.63q0,2.16-1.05,2.82a8.44,8.44,0,0,1-4,.66,8.14,8.14,0,0,1-4-.66c-.68-.44-1-1.37-1-2.81a4.33,4.33,0,0,1,.77-3q.8-.82,3.21-.81h4V45.2a1.3,1.3,0,0,0-.55-1.21,4,4,0,0,0-2-.33,15.79,15.79,0,0,0-2.45.16A8.78,8.78,0,0,1,94.61,44ZM101,50.38v-2H97.66a4.21,4.21,0,0,0-2,.31c-.3.2-.46.66-.46,1.38s.2,1.19.58,1.4a6,6,0,0,0,2.29.29,6.83,6.83,0,0,0,2.31-.26A1,1,0,0,0,101,50.38Z"/><path class="cls-1" d="M113.72,50V49.7a.89.89,0,0,0-.56-.83,5,5,0,0,0-2-.26,11.62,11.62,0,0,1-3.09-.43,2.59,2.59,0,0,1-1.41-1,3.1,3.1,0,0,1-.56-1.92v-.2a2.83,2.83,0,0,1,1.21-2.7,7.49,7.49,0,0,1,3.68-.7,15.39,15.39,0,0,1,3.65.32,1,1,0,0,1,.74,1.08c0,.59-.25.89-.74.89a12.51,12.51,0,0,1-1.51-.16,16.58,16.58,0,0,0-2.4-.16,6.16,6.16,0,0,0-1.88.21c-.4.14-.59.54-.59,1.18v.23c0,.85.89,1.3,2.67,1.36.74,0,1.49.09,2.24.18a3.35,3.35,0,0,1,1.89.84,2.44,2.44,0,0,1,.78,2V50a3.23,3.23,0,0,1-1.22,2.94,7.53,7.53,0,0,1-3.93.78,16.85,16.85,0,0,1-3.88-.31,1,1,0,0,1-.73-1.08c0-.59.24-.89.73-.89a15.77,15.77,0,0,1,1.7.16,21.06,21.06,0,0,0,2.46.15,5.11,5.11,0,0,0,2-.32A1.39,1.39,0,0,0,113.72,50Z"/><path class="cls-1" d="M127.8,51.44c.49,0,.73.29.73.89a1,1,0,0,1-.73,1.08,19.39,19.39,0,0,1-3.91.28A6.66,6.66,0,0,1,120,52.8a3.54,3.54,0,0,1-1.2-3v-4.4a3.42,3.42,0,0,1,1.08-3,7.45,7.45,0,0,1,4-.76,7.52,7.52,0,0,1,4,.72c.69.49,1,1.49,1,3v1.9a1.33,1.33,0,0,1-.31.92,1.06,1.06,0,0,1-.81.32h-6.82V50c0,1.18,1,1.77,3.08,1.76a18,18,0,0,0,2.34-.14A11.23,11.23,0,0,1,127.8,51.44Zm-6.87-6v1.24h5.79V45.42a1.53,1.53,0,0,0-.59-1.4,4.91,4.91,0,0,0-2.28-.36,5.22,5.22,0,0,0-2.3.34A1.5,1.5,0,0,0,120.93,45.42Z"/><path class="cls-1" d="M132.54,44.07a1.33,1.33,0,0,1-.39-1,1.38,1.38,0,0,1,.4-1,1.29,1.29,0,0,1,1-.41,1.31,1.31,0,0,1,1,.41,1.34,1.34,0,0,1,.41,1,1.31,1.31,0,0,1-.41,1,1.36,1.36,0,0,1-1,.4A1.34,1.34,0,0,1,132.54,44.07Zm-.39,8.27a1.42,1.42,0,0,1,.4-1,1.33,1.33,0,0,1,1-.41,1.34,1.34,0,0,1,1,.41,1.38,1.38,0,0,1,.41,1,1.31,1.31,0,0,1-.41,1,1.4,1.4,0,0,1-1,.39,1.34,1.34,0,0,1-1-.38A1.28,1.28,0,0,1,132.15,52.34Z"/><path class="cls-1" d="M156.67,38.77V52.66q0,.84-1.08.84t-1.08-.84V46.3H147v6.36q0,.84-1.08.84t-1.08-.84V38.77q0-.87,1.08-.87t1.08.87v5.57h7.53V38.77q0-.87,1.08-.87T156.67,38.77Z"/><path class="cls-1" d="M162,44c-.5,0-.75-.29-.75-.89A1,1,0,0,1,162,42a16.84,16.84,0,0,1,3.89-.31c1.81,0,3,.29,3.68.86a3.92,3.92,0,0,1,1,3v4.63q0,2.16-1.05,2.82a8.41,8.41,0,0,1-4,.66,8.16,8.16,0,0,1-4-.66c-.68-.44-1-1.37-1-2.81a4.27,4.27,0,0,1,.78-3c.52-.55,1.59-.82,3.2-.81h4V45.2a1.32,1.32,0,0,0-.55-1.21,4.1,4.1,0,0,0-2-.33,15.79,15.79,0,0,0-2.45.16A8.68,8.68,0,0,1,162,44Zm6.39,6.41v-2H165a4.27,4.27,0,0,0-2,.31q-.45.3-.45,1.38c0,.73.19,1.19.57,1.4a6,6,0,0,0,2.29.29,6.94,6.94,0,0,0,2.32-.26A1.07,1.07,0,0,0,168.38,50.38Z"/><path class="cls-1" d="M177.1,41.77v.12h3c.5,0,.74.31.74,1s-.24.95-.74.95h-3v8.87q0,.84-1.08.84t-1.08-.84V43.79h-1.55c-.49,0-.74-.32-.74-.95s.25-1,.74-1h1.55v-.41q0-2.48.84-3.27a4.68,4.68,0,0,1,3.17-.79,6.62,6.62,0,0,1,2.08.21.74.74,0,0,1,.53.74,1,1,0,0,1-.29.81,1.05,1.05,0,0,1-.74.28L179,39.39c-.78,0-1.29.13-1.51.4A3.55,3.55,0,0,0,177.1,41.77Z"/><path class="cls-1" d="M190.05,50V49.7a.88.88,0,0,0-.57-.83,5,5,0,0,0-1.95-.26,11.69,11.69,0,0,1-3.1-.43,2.53,2.53,0,0,1-1.4-1,3,3,0,0,1-.57-1.92v-.2a2.85,2.85,0,0,1,1.21-2.7,7.52,7.52,0,0,1,3.68-.7A15.43,15.43,0,0,1,191,42a1,1,0,0,1,.73,1.08c0,.59-.24.89-.73.89a12.61,12.61,0,0,1-1.52-.16,16.58,16.58,0,0,0-2.4-.16,6.09,6.09,0,0,0-1.87.21c-.4.14-.6.54-.6,1.18v.23c0,.85.89,1.3,2.67,1.36.74,0,1.49.09,2.24.18a3.41,3.41,0,0,1,1.9.84,2.47,2.47,0,0,1,.77,2V50A3.21,3.21,0,0,1,191,52.91a7.51,7.51,0,0,1-3.92.78,16.74,16.74,0,0,1-3.88-.31,1,1,0,0,1-.74-1.08c0-.59.25-.89.74-.89a16,16,0,0,1,1.7.16,20.81,20.81,0,0,0,2.46.15,5.14,5.14,0,0,0,2-.32A1.39,1.39,0,0,0,190.05,50Z"/><path class="cls-1" d="M197.55,38.29V52.66q0,.84-1.08.84t-1.08-.84V38.29q0-.87,1.08-.87T197.55,38.29Z"/><path class="cls-1" d="M204.89,51.71h2.23a2.81,2.81,0,0,0,.75-.13,1.39,1.39,0,0,0,.61-.37,1.49,1.49,0,0,0,.26-1c0-.48,0-1,0-1.54v-6q0-.84,1.08-.84t1.08.84V49a13.22,13.22,0,0,1-.19,2.59,2.27,2.27,0,0,1-.83,1.39,3.11,3.11,0,0,1-1.46.6,25.07,25.07,0,0,1-4.9,0,3.07,3.07,0,0,1-1.45-.6,2.26,2.26,0,0,1-.82-1.39,14.82,14.82,0,0,1-.2-2.59V42.72c0-.56.37-.84,1.09-.84s1.07.28,1.07.84v6a4.93,4.93,0,0,0,.39,2.61,1.18,1.18,0,0,0,.5.26A2.82,2.82,0,0,0,204.89,51.71Z"/><path class="cls-1" d="M216.84,44.07c-.27.27-.4,1.14-.4,2.59v6c0,.57-.36.85-1.08.85s-1.07-.28-1.08-.84V46.4a12.32,12.32,0,0,1,.21-2.58,2.26,2.26,0,0,1,.84-1.41,3.11,3.11,0,0,1,1.48-.59,22.38,22.38,0,0,1,2.66-.13c2,0,3.29.24,3.82.74a3.17,3.17,0,0,1,.94,2.11c.05.5.08,1.12.08,1.86v6.26q0,.84-1.08.84c-.72,0-1.08-.28-1.08-.85v-6c0-1.44-.13-2.3-.41-2.58s-1.09-.42-2.46-.42S217.1,43.79,216.84,44.07Z"/><path class="cls-1" d="M238.19,38.29v9.5a14.65,14.65,0,0,1-.26,3.07,3.29,3.29,0,0,1-1,1.78,3.4,3.4,0,0,1-1.59.84,11.63,11.63,0,0,1-2.49.21,12.67,12.67,0,0,1-2.51-.2,3.4,3.4,0,0,1-1.62-.83,3.23,3.23,0,0,1-1-1.8,16.28,16.28,0,0,1-.25-3.07,15,15,0,0,1,.26-3.1,3.35,3.35,0,0,1,2.56-2.77,12.61,12.61,0,0,1,2.76-.23,7.26,7.26,0,0,1,2.88.47V38.29q0-.87,1.08-.87T238.19,38.29ZM230,45.05a6.24,6.24,0,0,0-.25,2.14c0,1,0,1.84.08,2.44a2.82,2.82,0,0,0,.61,1.58,1.86,1.86,0,0,0,1.4.49l1.08,0c1.4,0,2.23-.17,2.47-.51a3.07,3.07,0,0,0,.62-1.59,17.69,17.69,0,0,0,.09-1.81c0-1.87-.18-3-.53-3.39a2.45,2.45,0,0,0-.41-.43,2.85,2.85,0,0,0-1.68-.33c-.87,0-1.42,0-1.65,0-.74,0-1.2.21-1.39.49A5.39,5.39,0,0,0,230,45.05Z"/><path class="cls-1" d="M258.89,53.5c-.65,0-1-.21-1.19-.64l-1.58-4.45H250l-1.6,4.45c-.14.43-.54.64-1.2.64s-1-.3-1-.89a.85.85,0,0,1,.08-.39l4.84-13a2,2,0,0,1,.74-1,1.88,1.88,0,0,1,1.19-.38,1.81,1.81,0,0,1,1.17.38,2.21,2.21,0,0,1,.74,1l4.81,13,.07.39C259.87,53.2,259.54,53.5,258.89,53.5Zm-5.82-13.58-2.38,6.6h4.76l-2.36-6.6Z"/><path class="cls-1" d="M273.23,48.87a4.46,4.46,0,0,1-1.41,3.66c-.94.77-2.54,1.16-4.81,1.16a18.09,18.09,0,0,1-3.84-.31c-.9-.2-1.35-.59-1.35-1.18a1.08,1.08,0,0,1,.24-.72.8.8,0,0,1,.57-.29,10.63,10.63,0,0,1,1.61.27,11.65,11.65,0,0,0,2.58.26,7.1,7.1,0,0,0,3.32-.55,2.26,2.26,0,0,0,.93-2.08,2.18,2.18,0,0,0-.47-1.47,2.28,2.28,0,0,0-1.23-.69c-.53-.1-1.12-.19-1.77-.25a10.82,10.82,0,0,1-3.71-.84,3.05,3.05,0,0,1-1.32-1.34,5.09,5.09,0,0,1-.5-2.4,3.81,3.81,0,0,1,1.45-3.36c1-.68,2.62-1,4.94-1a13.35,13.35,0,0,1,3.28.29c.72.19,1.07.53,1.07,1a.9.9,0,0,1-.26.69.93.93,0,0,1-.69.25,16,16,0,0,1-1.66-.17,16.7,16.7,0,0,0-2.13-.17,5.83,5.83,0,0,0-3,.55,1.86,1.86,0,0,0-.83,1.67,2.25,2.25,0,0,0,1.92,2.44,12.58,12.58,0,0,0,1.77.29,11.69,11.69,0,0,1,3.56.82,2.67,2.67,0,0,1,1.26,1.23A4.62,4.62,0,0,1,273.23,48.87Z"/><path class="cls-1" d="M288.26,53.5c-.65,0-1.05-.21-1.2-.64l-1.58-4.45h-6.09l-1.61,4.45c-.14.43-.54.64-1.19.64s-1-.3-1-.89a1,1,0,0,1,.08-.39l4.84-13a2.08,2.08,0,0,1,.74-1,1.93,1.93,0,0,1,1.2-.38,1.81,1.81,0,0,1,1.17.38,2.29,2.29,0,0,1,.74,1l4.8,13,.07.39C289.23,53.2,288.91,53.5,288.26,53.5Zm-5.82-13.58-2.38,6.6h4.75l-2.35-6.6Z"/><path class="cls-1" d="M51.21,96.77a40.06,40.06,0,0,1,3.56-6.43l1.54-.16a45.79,45.79,0,0,0-2.65,6.32Zm4,0a40.06,40.06,0,0,1,3.56-6.43l1.54-.16a42.37,42.37,0,0,0-2.64,6.32Z"/><path class="cls-1" d="M65,90.48l-3.45,18.19H59.31l3.45-18.19Z"/><path class="cls-1" d="M65.54,108.67l1.76-9.26c.3-1.46.46-2.72.62-3.8h2l-.33,2.56h.06a5.69,5.69,0,0,1,4.83-2.86c1.56,0,3.32.89,3.32,3.64a13.12,13.12,0,0,1-.24,2.11l-1.46,7.61H73.86l1.43-7.53a8.38,8.38,0,0,0,.19-1.67c0-1.33-.52-2.3-2-2.3s-3.86,1.92-4.46,5.16l-1.19,6.34Z"/><path class="cls-1" d="M80,108.67l1.76-9.26c.29-1.46.46-2.72.62-3.8h2L84,98.17h.06a5.69,5.69,0,0,1,4.83-2.86c1.56,0,3.32.89,3.32,3.64a12.15,12.15,0,0,1-.25,2.11l-1.45,7.61H88.28l1.43-7.53a9.18,9.18,0,0,0,.19-1.67c0-1.33-.52-2.3-2.06-2.3s-3.86,1.92-4.45,5.16l-1.19,6.34Z"/><path class="cls-1" d="M106.9,100.76c0,4-2.86,8.21-7.23,8.21-3.27,0-5.1-2.43-5.1-5.37,0-4.3,3-8.29,7.23-8.29C105.34,95.31,106.9,98,106.9,100.76Zm-10,2.75c0,2.14,1.16,3.68,3.08,3.68,2.64,0,4.64-3.41,4.64-6.46,0-1.51-.7-3.64-3-3.64C98.75,97.09,96.86,100.52,96.89,103.51Z"/><path class="cls-1" d="M108.8,108.67l2.13-11.31H109.2l.33-1.75h1.75l.14-.68a7.57,7.57,0,0,1,2.13-4.56,4.59,4.59,0,0,1,3.1-1.16,3.5,3.5,0,0,1,1.78.35L118,91.34a3.24,3.24,0,0,0-1.32-.24c-1.79,0-2.65,1.73-3,3.88l-.11.63h2.92l-.35,1.75h-2.89L111,108.67Z"/><path class="cls-1" d="M124.59,108.67c0-.78.14-2,.3-3.37h-.06c-1.43,2.7-3.21,3.67-5.07,3.67-2.3,0-3.75-1.84-3.75-4.32a9.12,9.12,0,0,1,9-9.34,12.09,12.09,0,0,1,3.51.51l-1.32,6.8a29.63,29.63,0,0,0-.57,6Zm1.46-11.39a6.14,6.14,0,0,0-1.57-.19c-3.37,0-6.12,3.54-6.15,7.15,0,1.46.51,2.89,2.24,2.89s4.08-2.43,4.72-5.91Z"/><path class="cls-1" d="M139,108.16a9.14,9.14,0,0,1-3.78.78,4.7,4.7,0,0,1-5-5c0-4.45,3.29-8.55,8-8.55a6.75,6.75,0,0,1,2.72.56l-.64,1.78a5.16,5.16,0,0,0-2.22-.48c-3.4,0-5.53,3.34-5.53,6.42,0,2.11,1.11,3.48,3.24,3.48a6.92,6.92,0,0,0,3-.72Z"/><path class="cls-1" d="M147.46,92.1l-.67,3.51h3.13l-.35,1.75h-3.14l-1.21,6.34a11.1,11.1,0,0,0-.24,2.11,1.1,1.1,0,0,0,1.24,1.24,6.6,6.6,0,0,0,1.05-.08l-.11,1.75a5,5,0,0,1-1.72.25,2.44,2.44,0,0,1-2.76-2.54A12.12,12.12,0,0,1,143,104l1.3-6.61h-1.89l.35-1.75h1.86l.57-3Z"/><path class="cls-1" d="M162.47,100.76c0,4-2.86,8.21-7.23,8.21-3.27,0-5.11-2.43-5.11-5.37,0-4.3,3-8.29,7.24-8.29C160.9,95.31,162.47,98,162.47,100.76Zm-10,2.75c0,2.14,1.16,3.68,3.07,3.68,2.65,0,4.65-3.41,4.65-6.46,0-1.51-.71-3.64-3.05-3.64C154.32,97.09,152.43,100.52,152.46,103.51Z"/><path class="cls-1" d="M164,108.67l1.59-8.42c.33-1.7.54-3.43.68-4.64h2c-.11.91-.22,1.83-.35,2.83H168c.83-1.78,2.24-3.13,4-3.13a5.77,5.77,0,0,1,.62,0l-.43,2.22a2.82,2.82,0,0,0-.59-.06c-1.95,0-3.67,2.35-4.24,5.4l-1.08,5.75Z"/><path class="cls-1" d="M177.57,108.67l3.64-19.17h2.24l-3.67,19.17Z"/><path class="cls-1" d="M193.14,107.91a9,9,0,0,1-4.32,1c-3.45,0-5-2.35-5-5.24,0-3.94,2.91-8.39,7.12-8.39,2.49,0,3.83,1.48,3.83,3.35,0,3.42-3.85,4.34-8.69,4.26a5.61,5.61,0,0,0,.27,2.48,3,3,0,0,0,2.92,1.76,7.31,7.31,0,0,0,3.51-.92Zm-2.48-10.85c-2.13,0-3.73,2.08-4.27,4.13,3.51,0,6.27-.43,6.27-2.45C192.66,97.66,191.85,97.06,190.66,97.06Z"/><path class="cls-1" d="M198.87,95.61l1.13,7.45c.19,1.48.35,2.48.41,3.21h.08a30.23,30.23,0,0,1,1.37-3l4-7.61h2.45l-7.26,13.06h-2.21l-2.27-13.06Z"/><path class="cls-1" d="M217.44,107.91a9,9,0,0,1-4.32,1c-3.45,0-5-2.35-5-5.24,0-3.94,2.91-8.39,7.12-8.39,2.48,0,3.83,1.48,3.83,3.35,0,3.42-3.86,4.34-8.69,4.26a5.47,5.47,0,0,0,.27,2.48,3,3,0,0,0,2.92,1.76,7.31,7.31,0,0,0,3.51-.92ZM215,97.06c-2.13,0-3.73,2.08-4.27,4.13,3.51,0,6.27-.43,6.27-2.45C217,97.66,216.15,97.06,215,97.06Z"/><path class="cls-1" d="M220.25,108.67l1.59-8.42c.33-1.7.54-3.43.68-4.64h2c-.11.91-.22,1.83-.35,2.83h.08c.84-1.78,2.24-3.13,4-3.13a5.77,5.77,0,0,1,.62,0l-.43,2.22a2.82,2.82,0,0,0-.59-.06c-1.94,0-3.67,2.35-4.24,5.4l-1.08,5.75Z"/><path class="cls-1" d="M238.1,107.91a9,9,0,0,1-4.32,1c-3.46,0-5-2.35-5-5.24,0-3.94,2.92-8.39,7.13-8.39,2.48,0,3.83,1.48,3.83,3.35,0,3.42-3.86,4.34-8.69,4.26a5.33,5.33,0,0,0,.27,2.48,3,3,0,0,0,2.91,1.76,7.31,7.31,0,0,0,3.51-.92Zm-2.49-10.85c-2.13,0-3.72,2.08-4.26,4.13,3.51,0,6.26-.43,6.26-2.45C237.61,97.66,236.8,97.06,235.61,97.06Z"/><path class="cls-1" d="M240.91,108.67l1.59-8.42c.32-1.7.54-3.43.67-4.64h2c-.1.91-.21,1.83-.35,2.83h.08c.84-1.78,2.24-3.13,4-3.13a5.77,5.77,0,0,1,.62,0l-.43,2.22a2.93,2.93,0,0,0-.6-.06c-1.94,0-3.67,2.35-4.23,5.4l-1.08,5.75Z"/><path class="cls-1" d="M82,141.07l2.14-11.31H82.38L82.7,128h1.76l.13-.67a7.61,7.61,0,0,1,2.14-4.56,4.57,4.57,0,0,1,3.1-1.16,3.53,3.53,0,0,1,1.78.35l-.48,1.78a3.33,3.33,0,0,0-1.33-.24c-1.78,0-2.64,1.72-3,3.88l-.11.62h2.92l-.35,1.76H86.35l-2.16,11.31Z"/><path class="cls-1" d="M89.1,141.29l1.54-1.76a5.65,5.65,0,0,1-1.16-3.7c0-4.18,3-8.12,7.18-8.12a4.83,4.83,0,0,1,3.13,1l1.49-1.65.89.76-1.52,1.73a5.73,5.73,0,0,1,1.19,3.56c0,4.56-3.26,8.29-7.07,8.29a4.88,4.88,0,0,1-3.32-1.06l-1.51,1.78Zm9.37-11.07a2.67,2.67,0,0,0-2.08-.78c-2.83,0-4.62,3.48-4.64,6.12a4.21,4.21,0,0,0,.48,2.16l.06,0ZM92.8,138.8a2.81,2.81,0,0,0,2.16.84c2.4,0,4.56-3.11,4.59-6.16a5,5,0,0,0-.43-2.1h-.06Z"/><path class="cls-1" d="M103.41,141.07l1.59-8.42c.33-1.7.54-3.43.68-4.65h2c-.11.92-.22,1.84-.35,2.84h.08c.84-1.78,2.24-3.13,4-3.13.18,0,.45,0,.62.05l-.44,2.22a2.82,2.82,0,0,0-.59-.06c-1.94,0-3.67,2.35-4.24,5.4l-1.08,5.75Z"/><path class="cls-1" d="M112.11,138.8a5.9,5.9,0,0,0,2.8.81,2.26,2.26,0,0,0,2.49-2.13c0-1-.46-1.65-1.81-2.4a3.91,3.91,0,0,1-2.35-3.32c0-2.3,2-4,4.72-4a5.39,5.39,0,0,1,2.73.65l-.62,1.7a4.69,4.69,0,0,0-2.27-.6,2.1,2.1,0,0,0-2.32,2c0,.95.62,1.54,1.78,2.19,1.46.84,2.46,2,2.46,3.43,0,2.75-2.24,4.29-5,4.29a5.69,5.69,0,0,1-3.23-.89Z"/><path class="cls-1" d="M127.93,124.5l-.68,3.5h3.13l-.35,1.76H126.9l-1.21,6.34a11.13,11.13,0,0,0-.25,2.11,1.1,1.1,0,0,0,1.24,1.24,6.73,6.73,0,0,0,1.06-.08l-.11,1.75a5,5,0,0,1-1.73.25,2.43,2.43,0,0,1-2.75-2.54,12.12,12.12,0,0,1,.27-2.46l1.29-6.61h-1.89l.36-1.76H125l.56-2.94Z"/><path class="cls-1" d="M139.83,140.31a9,9,0,0,1-4.32,1c-3.45,0-5-2.35-5-5.24,0-3.94,2.91-8.39,7.12-8.39,2.49,0,3.84,1.48,3.84,3.34,0,3.43-3.86,4.35-8.7,4.27a5.61,5.61,0,0,0,.27,2.48,3,3,0,0,0,2.92,1.76,7.31,7.31,0,0,0,3.51-.92Zm-2.48-10.85c-2.13,0-3.73,2.08-4.27,4.13,3.51,0,6.27-.43,6.27-2.45C139.35,130.06,138.54,129.46,137.35,129.46Z"/><path class="cls-1" d="M142.67,141.07l3.62-19.17h2.24l-2.3,12h.06c.4-.46.89-.95,1.21-1.33l4.62-4.59h2.75l-5.7,5.38,3.92,7.69H150.6l-3.13-6.45-1.64,1.48-1,5Z"/><path class="cls-1" d="M155.17,141.07l3.64-19.17h2.24l-3.67,19.17Z"/><path class="cls-1" d="M170,141.07c0-.78.14-2,.3-3.37h-.06c-1.43,2.69-3.21,3.67-5.07,3.67-2.3,0-3.75-1.84-3.75-4.32a9.12,9.12,0,0,1,9-9.34,12.09,12.09,0,0,1,3.51.51l-1.32,6.8a28.94,28.94,0,0,0-.57,6Zm1.46-11.39a6.14,6.14,0,0,0-1.57-.19c-3.37,0-6.13,3.54-6.15,7.15,0,1.46.51,2.89,2.24,2.89s4.07-2.43,4.72-5.91Z"/><path class="cls-1" d="M175.53,138.8a5.9,5.9,0,0,0,2.8.81,2.25,2.25,0,0,0,2.49-2.13c0-1-.46-1.65-1.81-2.4a3.91,3.91,0,0,1-2.35-3.32c0-2.3,2-4,4.72-4a5.39,5.39,0,0,1,2.73.65l-.62,1.7a4.69,4.69,0,0,0-2.27-.6,2.1,2.1,0,0,0-2.32,2c0,.95.62,1.54,1.78,2.19,1.46.84,2.46,2,2.46,3.43,0,2.75-2.24,4.29-5,4.29a5.7,5.7,0,0,1-3.24-.89Z"/><path class="cls-1" d="M185.6,138.8a5.9,5.9,0,0,0,2.8.81,2.25,2.25,0,0,0,2.49-2.13c0-1-.46-1.65-1.81-2.4a3.91,3.91,0,0,1-2.35-3.32c0-2.3,2-4,4.73-4a5.34,5.34,0,0,1,2.72.65l-.62,1.7a4.69,4.69,0,0,0-2.27-.6,2.1,2.1,0,0,0-2.32,2c0,.95.62,1.54,1.78,2.19,1.46.84,2.46,2,2.46,3.43,0,2.75-2.24,4.29-5,4.29a5.7,5.7,0,0,1-3.24-.89Z"/><path class="cls-1" d="M205,140.31a9,9,0,0,1-4.32,1c-3.45,0-5-2.35-5-5.24,0-3.94,2.91-8.39,7.12-8.39,2.48,0,3.83,1.48,3.83,3.34,0,3.43-3.86,4.35-8.69,4.27a5.47,5.47,0,0,0,.27,2.48,3,3,0,0,0,2.92,1.76,7.31,7.31,0,0,0,3.51-.92Zm-2.48-10.85c-2.13,0-3.73,2.08-4.27,4.13,3.51,0,6.27-.43,6.27-2.45C204.5,130.06,203.69,129.46,202.5,129.46Z"/><path class="cls-1" d="M207.9,138.8a5.91,5.91,0,0,0,2.81.81,2.25,2.25,0,0,0,2.48-2.13c0-1-.46-1.65-1.81-2.4a3.91,3.91,0,0,1-2.35-3.32c0-2.3,2-4,4.73-4a5.34,5.34,0,0,1,2.72.65l-.62,1.7a4.65,4.65,0,0,0-2.27-.6,2.1,2.1,0,0,0-2.32,2c0,.95.62,1.54,1.78,2.19,1.46.84,2.46,2,2.46,3.43,0,2.75-2.24,4.29-5,4.29a5.7,5.7,0,0,1-3.24-.89Z"/><path class="cls-1" d="M66.31,173.47,70,154.3H72.2l-3.67,19.17Z"/><path class="cls-1" d="M72.28,173.69l1.54-1.76a5.63,5.63,0,0,1-1.16-3.7c0-4.18,3-8.12,7.18-8.12a4.85,4.85,0,0,1,3.13,1l1.48-1.65.89.76-1.51,1.73A5.73,5.73,0,0,1,85,165.48c0,4.56-3.27,8.29-7.07,8.29a4.86,4.86,0,0,1-3.32-1.06l-1.51,1.79Zm9.37-11.07a2.69,2.69,0,0,0-2.08-.78c-2.84,0-4.62,3.48-4.64,6.12a4.21,4.21,0,0,0,.48,2.16l.06,0ZM76,171.2a2.81,2.81,0,0,0,2.16.84c2.4,0,4.56-3.11,4.59-6.16a4.85,4.85,0,0,0-.44-2.1h-.05Z"/><path class="cls-1" d="M86.7,171.2a5.91,5.91,0,0,0,2.81.81A2.25,2.25,0,0,0,92,169.88c0-1-.46-1.65-1.81-2.4a3.91,3.91,0,0,1-2.35-3.32c0-2.3,2-4,4.73-4a5.34,5.34,0,0,1,2.72.65l-.62,1.7a4.65,4.65,0,0,0-2.27-.6,2.1,2.1,0,0,0-2.32,2c0,.95.62,1.54,1.78,2.19,1.46.84,2.46,2,2.46,3.43,0,2.75-2.24,4.29-5,4.29a5.7,5.7,0,0,1-3.24-.89Z"/><path class="cls-1" d="M96.66,173.47l1.76-9.26c.29-1.46.45-2.72.62-3.8h2l-.32,2.56h.05a5.71,5.71,0,0,1,4.84-2.86c1.56,0,3.32.89,3.32,3.64a12.15,12.15,0,0,1-.25,2.11l-1.45,7.61H105l1.44-7.53a9.28,9.28,0,0,0,.18-1.67c0-1.33-.51-2.3-2-2.3s-3.86,1.92-4.45,5.16l-1.19,6.34Z"/><path class="cls-1" d="M111.08,173.47l2.51-13.06h2.24l-2.51,13.06ZM114,156.76a1.49,1.49,0,0,1,1.49-1.51,1.29,1.29,0,0,1,1.32,1.4,1.49,1.49,0,0,1-1.51,1.52A1.3,1.3,0,0,1,114,156.76Z"/><path class="cls-1" d="M117.26,173.47l1.76-9.26c.29-1.46.46-2.72.62-3.8h2l-.32,2.56h0a5.72,5.72,0,0,1,4.84-2.86c1.56,0,3.32.89,3.32,3.64a12.15,12.15,0,0,1-.25,2.11l-1.45,7.61h-2.24l1.43-7.53a9.28,9.28,0,0,0,.18-1.67c0-1.33-.51-2.3-2-2.3s-3.86,1.92-4.45,5.16l-1.19,6.34Z"/><path class="cls-1" d="M131.81,176.44a7,7,0,0,0,3.46.86c2.19,0,3.91-1.13,4.7-4.67l.43-1.94h-.08a5.23,5.23,0,0,1-4.54,2.78c-2.62,0-4-2.21-4-4.54,0-4.42,3.24-8.82,8.29-8.82a10.62,10.62,0,0,1,4.19.92l-2,10.79c-.54,2.76-1.27,4.67-2.65,5.83a6.84,6.84,0,0,1-4.56,1.46,7.72,7.72,0,0,1-3.91-.92Zm10-14.09a5.49,5.49,0,0,0-2.16-.43c-3.27,0-5.51,3.4-5.53,6.64,0,1.43.51,3.13,2.51,3.13s3.86-2.43,4.34-5Z"/><path class="cls-1" d="M155.25,172.71a9,9,0,0,1-4.32,1c-3.46,0-5-2.35-5-5.24,0-3.94,2.92-8.39,7.13-8.39,2.48,0,3.83,1.48,3.83,3.35,0,3.42-3.86,4.34-8.69,4.26a5.33,5.33,0,0,0,.27,2.48,3,3,0,0,0,2.91,1.76,7.31,7.31,0,0,0,3.51-.92Zm-2.49-10.85c-2.13,0-3.72,2.08-4.26,4.13,3.51,0,6.26-.43,6.26-2.45C154.76,162.46,154,161.86,152.76,161.86Z"/><path class="cls-1" d="M158.06,173.47l1.59-8.42c.32-1.7.54-3.43.68-4.64h2c-.11.91-.22,1.83-.36,2.83H162c.83-1.78,2.24-3.13,4-3.13a5.77,5.77,0,0,1,.62,0l-.43,2.22a2.9,2.9,0,0,0-.59-.06c-2,0-3.68,2.35-4.24,5.4l-1.08,5.75Z"/><path class="cls-1" d="M171.56,173.47l2.51-13.06h2.24l-2.51,13.06Zm2.91-16.71a1.49,1.49,0,0,1,1.49-1.51,1.29,1.29,0,0,1,1.32,1.4,1.49,1.49,0,0,1-1.51,1.52A1.3,1.3,0,0,1,174.47,156.76Z"/><path class="cls-1" d="M177.74,173.47l1.75-9.26c.3-1.46.46-2.72.63-3.8h2l-.32,2.56h.05a5.71,5.71,0,0,1,4.83-2.86c1.57,0,3.32.89,3.32,3.64a12.07,12.07,0,0,1-.24,2.11l-1.46,7.61h-2.24l1.43-7.53a8.46,8.46,0,0,0,.19-1.67c0-1.33-.51-2.3-2-2.3s-3.86,1.92-4.45,5.16L180,173.47Z"/><path class="cls-1" d="M192.16,173.47l1.75-9.26c.3-1.46.46-2.72.62-3.8h2l-.32,2.56h0a5.71,5.71,0,0,1,4.83-2.86c1.57,0,3.32.89,3.32,3.64a13.12,13.12,0,0,1-.24,2.11l-1.46,7.61h-2.24l1.43-7.53a8.46,8.46,0,0,0,.19-1.67c0-1.33-.51-2.3-2.05-2.3s-3.86,1.92-4.45,5.16l-1.19,6.34Z"/><path class="cls-1" d="M216,172.71a9,9,0,0,1-4.32,1c-3.46,0-5-2.35-5-5.24,0-3.94,2.92-8.39,7.13-8.39,2.48,0,3.83,1.48,3.83,3.35,0,3.42-3.86,4.34-8.69,4.26a5.33,5.33,0,0,0,.27,2.48,3,3,0,0,0,2.91,1.76,7.31,7.31,0,0,0,3.51-.92Zm-2.49-10.85c-2.13,0-3.72,2.08-4.26,4.13,3.51,0,6.26-.43,6.26-2.45C215.51,162.46,214.7,161.86,213.51,161.86Z"/><path class="cls-1" d="M218.81,173.47l1.75-9.26c.3-1.46.46-2.72.62-3.8h2l-.33,2.56h.06a5.69,5.69,0,0,1,4.83-2.86c1.57,0,3.32.89,3.32,3.64a13.12,13.12,0,0,1-.24,2.11l-1.46,7.61h-2.24l1.43-7.53a8.46,8.46,0,0,0,.19-1.67c0-1.33-.51-2.3-2.05-2.3s-3.86,1.92-4.46,5.16l-1.18,6.34Z"/><path class="cls-1" d="M79.48,203.6a5.9,5.9,0,0,0,2.8.81,2.26,2.26,0,0,0,2.49-2.13c0-1-.46-1.65-1.81-2.4a3.91,3.91,0,0,1-2.35-3.32c0-2.3,2-4.05,4.72-4.05a5.39,5.39,0,0,1,2.73.65l-.62,1.7a4.69,4.69,0,0,0-2.27-.6,2.1,2.1,0,0,0-2.32,2c0,1,.62,1.54,1.78,2.19,1.46.84,2.46,2,2.46,3.43,0,2.75-2.24,4.29-5,4.29a5.69,5.69,0,0,1-3.23-.89Z"/><path class="cls-1" d="M89.47,205.87l3.61-19.16h2.24l-2.29,12h0c.41-.46.89-.95,1.22-1.33l4.61-4.58h2.76L96,198.18l3.92,7.69H97.4l-3.13-6.45-1.65,1.48-.94,5Z"/><path class="cls-1" d="M104.83,192.81l1.29,7c.3,1.48.46,2.46.6,3.43h0c.35-.84.73-1.76,1.41-3.19l3.32-7.28h2.37L109,202.74a24.22,24.22,0,0,1-4.5,6.85,8.13,8.13,0,0,1-3.81,2.27l-.54-1.91a8.83,8.83,0,0,0,2.4-1.27,10.07,10.07,0,0,0,2.51-3,1,1,0,0,0,.09-.59l-2.62-12.28Z"/><path class="cls-1" d="M114,203.6a5.94,5.94,0,0,0,2.81.81,2.25,2.25,0,0,0,2.48-2.13c0-1-.46-1.65-1.81-2.4a3.9,3.9,0,0,1-2.34-3.32c0-2.3,2-4.05,4.72-4.05a5.32,5.32,0,0,1,2.72.65l-.62,1.7a4.61,4.61,0,0,0-2.26-.6,2.1,2.1,0,0,0-2.32,2c0,1,.62,1.54,1.78,2.19,1.45.84,2.45,2,2.45,3.43,0,2.75-2.24,4.29-5,4.29a5.72,5.72,0,0,1-3.24-.89Z"/><path class="cls-1" d="M123.94,205.87l2.51-13.06h2.24l-2.51,13.06Zm2.92-16.71a1.48,1.48,0,0,1,1.48-1.51,1.3,1.3,0,0,1,1.33,1.4,1.49,1.49,0,0,1-1.51,1.52A1.3,1.3,0,0,1,126.86,189.16Z"/><path class="cls-1" d="M130.15,205.87l3.62-19.16H136l-2.29,12h.05c.41-.46.89-.95,1.22-1.33l4.61-4.58h2.75l-5.69,5.37,3.91,7.69h-2.48L135,199.42l-1.65,1.48-.94,5Z"/><path class="cls-1" d="M142.65,205.87l3.62-19.16h2.24l-2.29,12h.05c.41-.46.89-.95,1.22-1.33l4.61-4.58h2.76l-5.7,5.37,3.91,7.69h-2.48l-3.13-6.45-1.65,1.48-.94,5Z"/><path class="cls-1" d="M164,205.11a9,9,0,0,1-4.32,1c-3.45,0-5-2.35-5-5.24,0-3.94,2.91-8.39,7.12-8.39,2.49,0,3.84,1.48,3.84,3.35,0,3.42-3.86,4.34-8.7,4.26a5.61,5.61,0,0,0,.27,2.48,3,3,0,0,0,2.92,1.76,7.31,7.31,0,0,0,3.51-.92Zm-2.48-10.85c-2.13,0-3.73,2.08-4.27,4.13,3.51,0,6.27-.43,6.27-2.45C163.5,194.86,162.69,194.26,161.5,194.26Z"/><path class="cls-1" d="M166.79,205.87l1.59-8.42c.33-1.7.54-3.43.68-4.64h2c-.11.91-.22,1.83-.35,2.83h.08c.84-1.78,2.24-3.13,4-3.13.18,0,.45,0,.62.05l-.44,2.22a2.82,2.82,0,0,0-.59-.06c-1.94,0-3.67,2.35-4.24,5.4L169,205.87Z"/><path class="cls-1" d="M175.38,205.87,179,186.71h2.24l-1.62,8.42h.06a5.59,5.59,0,0,1,4.67-2.62,3.17,3.17,0,0,1,3.24,3.51,12.45,12.45,0,0,1-.22,2.21l-1.46,7.64h-2.24l1.46-7.53a10.84,10.84,0,0,0,.16-1.81,1.9,1.9,0,0,0-2-2.16c-1.73,0-3.92,2-4.46,5l-1.21,6.53Z"/><path class="cls-1" d="M199.22,205.11a9,9,0,0,1-4.32,1c-3.46,0-5-2.35-5-5.24,0-3.94,2.92-8.39,7.13-8.39,2.48,0,3.83,1.48,3.83,3.35,0,3.42-3.86,4.34-8.69,4.26a5.33,5.33,0,0,0,.27,2.48,3,3,0,0,0,2.91,1.76,7.31,7.31,0,0,0,3.51-.92Zm-2.49-10.85c-2.13,0-3.72,2.08-4.26,4.13,3.51,0,6.26-.43,6.26-2.45C198.73,194.86,197.92,194.26,196.73,194.26Z"/><path class="cls-1" d="M207.88,189.3l-.67,3.51h3.13l-.35,1.75h-3.13l-1.22,6.34a12,12,0,0,0-.24,2.11,1.1,1.1,0,0,0,1.24,1.24,6.73,6.73,0,0,0,1.06-.08l-.11,1.75a5,5,0,0,1-1.73.25,2.43,2.43,0,0,1-2.75-2.54,12.12,12.12,0,0,1,.27-2.46l1.29-6.61h-1.89l.35-1.75H205l.56-2.95Z"/><path class="cls-1" d="M216.93,187.38a36.84,36.84,0,0,1-3.54,6.4l-1.54.19a50.91,50.91,0,0,0,2.65-6.35Zm4,0a38.82,38.82,0,0,1-3.57,6.4l-1.53.19a50.9,50.9,0,0,0,2.64-6.35Z"/></svg>