<?xml version="1.0" encoding="utf-8"?>
<!-- Generator: Adobe Illustrator 19.1.1, SVG Export Plug-In . SVG Version: 6.00 Build 0)  -->
<svg version="1.1" id="Layer_1" xmlns="http://www.w3.org/2000/svg" xmlns:xlink="http://www.w3.org/1999/xlink" x="0px" y="0px"
	 viewBox="0 0 300 600" style="enable-background:new 0 0 300 600;" xml:space="preserve">
<style type="text/css">
	.st0{fill:#D4AC76;}
</style>
<g>
	<path class="st0" d="M117.1,213.2H112v3.8h5.4v1.6h-7.2v-12.4h7.1v1.6H112v3.6h5.1V213.2z"/>
	<path class="st0" d="M120.4,207.9v-1.6h10v1.6h-4.1v10.7h-1.7v-10.7H120.4z"/>
	<path class="st0" d="M132.9,207.9v-1.6h10v1.6h-4.1v10.7H137v-10.7H132.9z"/>
	<path class="st0" d="M161.1,218.7v-5.4h-6v5.4h-1.7v-12.4h1.7v5.4h6v-5.4h1.7v12.4H161.1z"/>
	<path class="st0" d="M172.2,218.9c-1.3,0-2.4-0.4-3.2-1.3c-0.8-0.9-1.3-2-1.3-3.3v-8h1.7v7.9c0,0.9,0.2,1.6,0.7,2.2
		c0.5,0.6,1.2,0.9,2,0.9c0.9,0,1.5-0.3,2-0.8c0.5-0.6,0.7-1.3,0.7-2.2v-7.9h1.7v8c0,1.3-0.4,2.4-1.3,3.3
		C174.6,218.4,173.5,218.9,172.2,218.9z"/>
	<path class="st0" d="M184.9,218.8c-0.8,0-1.6-0.2-2.3-0.5c-0.8-0.3-1.4-0.8-2-1.3l1.2-1.4c0.4,0.5,0.9,0.8,1.4,1.1
		c0.6,0.3,1.1,0.5,1.7,0.5c0.7,0,1.2-0.2,1.6-0.5c0.4-0.4,0.6-0.8,0.6-1.3c0-0.9-0.5-1.6-1.6-2l-1.5-0.6c-0.9-0.4-1.6-0.8-2-1.3
		s-0.7-1.2-0.7-2c0-0.9,0.3-1.7,1-2.3c0.7-0.6,1.5-1,2.5-1c1.4,0,2.6,0.5,3.6,1.4l-1,1.4c-0.7-0.7-1.6-1.1-2.6-1.1
		c-0.5,0-1,0.1-1.3,0.4c-0.3,0.3-0.5,0.7-0.5,1.1c0,0.4,0.1,0.7,0.4,1c0.2,0.3,0.7,0.5,1.3,0.8l1.5,0.6c1.8,0.7,2.7,1.9,2.6,3.5
		c0,1.1-0.4,1.9-1.1,2.6S186.1,218.8,184.9,218.8z"/>
	<path class="st0" d="M104.4,240.7v-12.4h6.8v1.6h-5v3.9h4.4v1.6h-4.4v5.2H104.4z"/>
	<path class="st0" d="M120.5,240.9c-1.7,0-3.2-0.6-4.5-1.8c-1.2-1.2-1.8-2.7-1.8-4.6c0-1.8,0.6-3.4,1.8-4.6c1.2-1.2,2.7-1.8,4.5-1.8
		c1.7,0,3.2,0.6,4.4,1.8s1.8,2.8,1.8,4.6c0,1.8-0.6,3.4-1.8,4.6S122.2,240.9,120.5,240.9z M117.3,237.9c0.9,0.9,2,1.4,3.2,1.4
		s2.4-0.5,3.2-1.4c0.9-0.9,1.3-2.1,1.3-3.4c0-1.3-0.4-2.4-1.3-3.4c-0.9-0.9-2-1.4-3.2-1.4c-1.3,0-2.4,0.5-3.2,1.4
		c-0.9,0.9-1.3,2.1-1.3,3.4C115.9,235.8,116.4,236.9,117.3,237.9z M119.3,227c-0.2,0.2-0.4,0.3-0.6,0.3c-0.2,0-0.4-0.1-0.6-0.3
		s-0.2-0.4-0.2-0.7s0.1-0.5,0.2-0.7c0.2-0.2,0.4-0.3,0.6-0.3c0.2,0,0.4,0.1,0.6,0.3c0.2,0.2,0.3,0.4,0.3,0.7S119.5,226.8,119.3,227z
		 M122.8,227c-0.2,0.2-0.4,0.3-0.6,0.3c-0.2,0-0.4-0.1-0.6-0.3s-0.2-0.4-0.2-0.7s0.1-0.5,0.2-0.7c0.2-0.2,0.4-0.3,0.6-0.3
		c0.2,0,0.4,0.1,0.6,0.3c0.2,0.2,0.2,0.4,0.2,0.7S122.9,226.8,122.8,227z"/>
	<path class="st0" d="M131.1,240.7v-12.4h4.6c1.1,0,2,0.4,2.8,1.1c0.7,0.7,1.1,1.6,1.1,2.8c0,1-0.3,1.9-0.9,2.6
		c-0.6,0.7-1.4,1.1-2.4,1.2l3.6,4.7h-2.1l-3.6-4.7h-1.4v4.7H131.1z M135.5,229.9h-2.6v4.5h2.6c0.7,0,1.3-0.2,1.7-0.6
		c0.4-0.4,0.7-1,0.7-1.6c0-0.6-0.2-1.2-0.7-1.6C136.8,230.2,136.2,229.9,135.5,229.9z"/>
	<path class="st0" d="M149.3,240.7l5-12.4h1.6l4.9,12.4h-1.9l-0.7-1.9H152l-0.8,1.9H149.3z M155,231.1l-2.4,6h4.8L155,231.1z"/>
	<path class="st0" d="M164.1,240.7v-12.4h1.7V239h5.1v1.6H164.1z"/>
	<path class="st0" d="M174.7,240.7v-12.4h1.7V239h5.1v1.6H174.7z"/>
	<path class="st0" d="M184.1,240.7l5-12.4h1.6l4.9,12.4h-1.9l-0.7-1.9h-6.1l-0.8,1.9H184.1z M189.8,231.1l-2.4,6h4.8L189.8,231.1z"
		/>
	<path class="st0" d="M101.1,262.7l5-12.4h1.6l4.9,12.4h-1.9l-0.7-1.9h-6.1l-0.8,1.9H101.1z M106.9,253.1l-2.4,6h4.8L106.9,253.1z"
		/>
	<path class="st0" d="M119.3,262.8c-0.8,0-1.6-0.2-2.3-0.5c-0.8-0.3-1.4-0.8-2-1.3l1.2-1.4c0.4,0.5,0.9,0.8,1.4,1.1
		c0.6,0.3,1.1,0.5,1.7,0.5c0.7,0,1.2-0.2,1.6-0.5c0.4-0.4,0.6-0.8,0.6-1.3c0-0.9-0.5-1.6-1.6-2l-1.5-0.6c-0.9-0.4-1.6-0.8-2-1.3
		c-0.4-0.5-0.7-1.2-0.7-2c0-0.9,0.3-1.7,1-2.3c0.7-0.6,1.5-1,2.5-1c1.4,0,2.6,0.5,3.6,1.4l-1,1.4c-0.7-0.7-1.6-1.1-2.6-1.1
		c-0.5,0-1,0.1-1.3,0.4s-0.5,0.7-0.5,1.1c0,0.4,0.1,0.7,0.4,1c0.2,0.3,0.7,0.5,1.3,0.8l1.5,0.6c1.8,0.7,2.7,1.9,2.6,3.5
		c0,1.1-0.4,1.9-1.1,2.6S120.5,262.8,119.3,262.8z"/>
	<path class="st0" d="M127.5,262.7v-12.4h4.2c1.1,0,2.1,0.4,2.9,1.2c0.8,0.8,1.1,1.8,1.1,2.9c0,1.2-0.4,2.1-1.2,2.9
		c-0.8,0.8-1.8,1.2-2.9,1.2h-2.4v4.2H127.5z M131.6,251.9h-2.4v4.8h2.4c0.7,0,1.3-0.2,1.7-0.7c0.4-0.4,0.7-1,0.7-1.7
		c0-0.7-0.2-1.3-0.7-1.8C132.9,252.2,132.3,251.9,131.6,251.9z"/>
	<path class="st0" d="M146.7,257.2h-5.1v3.8h5.4v1.6h-7.2v-12.4h7.1v1.6h-5.3v3.6h5.1V257.2z"/>
	<path class="st0" d="M151.3,262.7v-12.4h1.7v5.9l5.2-5.9h2.3l-4.4,4.9l4.5,7.5h-2.1l-3.6-6l-1.8,2.1v4H151.3z"/>
	<path class="st0" d="M163.3,251.9v-1.6h10v1.6h-4.1v10.7h-1.7v-10.7H163.3z"/>
	<path class="st0" d="M183.5,257.2h-5.1v3.8h5.4v1.6h-7.2v-12.4h7.1v1.6h-5.3v3.6h5.1V257.2z"/>
	<path class="st0" d="M188.2,262.7v-12.4h4.6c1.1,0,2,0.4,2.8,1.1c0.7,0.7,1.1,1.6,1.1,2.8c0,1-0.3,1.9-0.9,2.6
		c-0.6,0.7-1.4,1.1-2.4,1.2l3.6,4.7h-2.1l-3.6-4.7h-1.4v4.7H188.2z M192.5,251.9h-2.6v4.5h2.6c0.7,0,1.3-0.2,1.8-0.6
		c0.4-0.4,0.7-1,0.7-1.6c0-0.6-0.2-1.2-0.7-1.6C193.8,252.2,193.2,251.9,192.5,251.9z"/>
	<path class="st0" d="M115.7,284.7l5-12.4h1.6l4.9,12.4h-1.9l-0.7-1.9h-6.1l-0.8,1.9H115.7z M121.5,275.1l-2.4,6h4.8L121.5,275.1z"
		/>
	<path class="st0" d="M133.1,284.7l-4.8-12.4h1.9l3.7,9.5l3.7-9.5h1.9l-4.8,12.4H133.1z"/>
	<path class="st0" d="M149.8,284.7v-12.4h3.3c1.7,0,3.1,0.6,4.3,1.8s1.8,2.7,1.8,4.4c0,1.8-0.6,3.3-1.8,4.4
		c-1.2,1.2-2.7,1.8-4.4,1.8H149.8z M153.2,273.9h-1.7v9.1h1.7c1.2,0,2.2-0.4,3-1.3c0.8-0.9,1.2-2,1.2-3.2s-0.4-2.3-1.3-3.2
		C155.4,274.4,154.4,273.9,153.2,273.9z"/>
	<path class="st0" d="M163.5,284.7v-12.4h1.7v12.4H163.5z"/>
	<path class="st0" d="M178,279.3v-1.6h4.1v0.9c0,1.8-0.7,3.4-1.9,4.6c-1.2,1.2-2.7,1.8-4.5,1.8c-1.8,0-3.3-0.6-4.5-1.8
		c-1.2-1.2-1.8-2.8-1.8-4.6s0.6-3.3,1.8-4.6c1.2-1.2,2.7-1.8,4.5-1.8c0.9,0,1.8,0.2,2.6,0.5c0.8,0.3,1.5,0.8,2.1,1.4l-1.3,1.3
		c-0.9-1.1-2.1-1.6-3.4-1.6c-1.3,0-2.4,0.5-3.3,1.4c-0.9,0.9-1.3,2.1-1.3,3.4s0.4,2.4,1.3,3.4c0.9,0.9,2,1.4,3.3,1.4
		c1.1,0,2.1-0.4,3-1.1c0.8-0.7,1.4-1.7,1.6-2.9H178z"/>
</g>
</svg>
