<svg id="Layer_1" data-name="Layer 1" xmlns="http://www.w3.org/2000/svg" viewBox="0 0 300 600"><defs><style>.cls-1{fill:#fff;}</style></defs><title>text</title><path class="cls-1" d="M30.2,268.5H23.61q-.81,0-.81-.63V257.45c0-.43.27-.65.81-.65s.81.22.81.65V267H30.2c.37,0,.56.25.56.74S30.57,268.5,30.2,268.5Z"/><path class="cls-1" d="M39.06,267c.37,0,.56.23.56.67a.73.73,0,0,1-.56.81,14.06,14.06,0,0,1-2.93.21,4.94,4.94,0,0,1-2.94-.67,2.65,2.65,0,0,1-.9-2.24v-3.29a2.57,2.57,0,0,1,.81-2.23,5.63,5.63,0,0,1,3-.57,5.56,5.56,0,0,1,3,.55,2.63,2.63,0,0,1,.77,2.25v1.42a1,1,0,0,1-.24.68.76.76,0,0,1-.61.25H33.91v1q0,1.34,2.31,1.32a13.28,13.28,0,0,0,1.76-.1A10,10,0,0,1,39.06,267Zm-5.15-4.51v.93h4.34v-.93a1.13,1.13,0,0,0-.44-1.05,3.68,3.68,0,0,0-1.71-.27,3.77,3.77,0,0,0-1.72.26A1.12,1.12,0,0,0,33.91,262.44Z"/><path class="cls-1" d="M47.38,265.86v-.21A.66.66,0,0,0,47,265a3.62,3.62,0,0,0-1.46-.2,8.83,8.83,0,0,1-2.32-.32,1.92,1.92,0,0,1-1.06-.71,2.33,2.33,0,0,1-.42-1.45v-.14a2.14,2.14,0,0,1,.9-2,5.7,5.7,0,0,1,2.76-.52,11.52,11.52,0,0,1,2.75.24.72.72,0,0,1,.55.8c0,.45-.18.67-.55.67-.2,0-.57,0-1.14-.11a12.69,12.69,0,0,0-1.8-.13,4.76,4.76,0,0,0-1.41.16c-.29.11-.44.4-.44.89v.17c0,.64.66,1,2,1,.56,0,1.12.07,1.68.14a2.56,2.56,0,0,1,1.42.62,1.82,1.82,0,0,1,.58,1.5v.22a2.43,2.43,0,0,1-.91,2.21,5.66,5.66,0,0,1-2.95.58,12.94,12.94,0,0,1-2.9-.23.73.73,0,0,1-.56-.81c0-.44.19-.66.56-.66a11.69,11.69,0,0,1,1.27.11,14.67,14.67,0,0,0,1.85.11,3.74,3.74,0,0,0,1.46-.24A1,1,0,0,0,47.38,265.86Z"/><path class="cls-1" d="M57.17,257.09v2.79a11.66,11.66,0,0,1,2.25-.24,9.84,9.84,0,0,1,1.7.12,2.06,2.06,0,0,1,1.8,1.63,10,10,0,0,1,.15,2v4.52q0,.63-.81.63c-.53,0-.8-.21-.8-.63v-4.35a11.12,11.12,0,0,0-.07-1.36,1.14,1.14,0,0,0-.37-.72,1.3,1.3,0,0,0-.64-.28,10.07,10.07,0,0,0-1.14,0,15.21,15.21,0,0,0-2.07.18v6.57q0,.63-.81.63t-.81-.63V257.09c0-.43.28-.65.81-.65S57.17,256.66,57.17,257.09Z"/><path class="cls-1" d="M69.17,268.59a1.39,1.39,0,0,1-.86-.29,1.69,1.69,0,0,1-.54-.73l-2.55-6.87c0-.18-.06-.27-.06-.29,0-.42.26-.63.78-.62a.75.75,0,0,1,.79.47L69.14,267h.09l2.41-6.76a.82.82,0,0,1,.87-.47c.47,0,.7.21.7.62,0,0,0,.11-.06.29l-2.55,6.87a1.56,1.56,0,0,1-.55.74A1.51,1.51,0,0,1,69.17,268.59Z"/><path class="cls-1" d="M75.76,261.35q-.57,0-.57-.66a.73.73,0,0,1,.57-.81,12.27,12.27,0,0,1,2.91-.24,4.27,4.27,0,0,1,2.76.65,2.92,2.92,0,0,1,.73,2.27V266c0,1.08-.26,1.79-.79,2.12a6.34,6.34,0,0,1-3,.49,6.14,6.14,0,0,1-3-.49c-.51-.33-.76-1-.76-2.11a3.2,3.2,0,0,1,.58-2.22,3.35,3.35,0,0,1,2.4-.61h3v-.93a1,1,0,0,0-.42-.91,3,3,0,0,0-1.46-.25,12.15,12.15,0,0,0-1.84.12A6.45,6.45,0,0,1,75.76,261.35Zm4.79,4.81v-1.53h-2.5a3.19,3.19,0,0,0-1.51.23c-.23.15-.34.5-.34,1s.14.89.43,1a4.3,4.3,0,0,0,1.71.22,5.12,5.12,0,0,0,1.74-.19A.82.82,0,0,0,80.55,266.16Z"/><path class="cls-1" d="M92.26,268.59a1.39,1.39,0,0,1-.86-.29,1.69,1.69,0,0,1-.54-.73l-2.55-6.87c0-.18-.06-.27-.06-.29,0-.42.26-.63.78-.62a.75.75,0,0,1,.79.47L92.23,267h.08l2.42-6.76a.82.82,0,0,1,.87-.47c.46,0,.7.21.7.62,0,0,0,.11-.06.29l-2.55,6.87a1.56,1.56,0,0,1-.55.74A1.51,1.51,0,0,1,92.26,268.59Z"/><path class="cls-1" d="M98.83,261.35q-.57,0-.57-.66a.73.73,0,0,1,.57-.81,12.37,12.37,0,0,1,2.92-.24,4.26,4.26,0,0,1,2.75.65,2.92,2.92,0,0,1,.73,2.27V266c0,1.08-.26,1.79-.79,2.12a6.34,6.34,0,0,1-3,.49,6,6,0,0,1-3-.49c-.5-.33-.75-1-.75-2.11a3.2,3.2,0,0,1,.58-2.22,3.32,3.32,0,0,1,2.39-.61h3v-.93a1,1,0,0,0-.42-.91,3,3,0,0,0-1.46-.25,12.24,12.24,0,0,0-1.84.12A6.45,6.45,0,0,1,98.83,261.35Zm4.79,4.81v-1.53h-2.49a3.12,3.12,0,0,0-1.5.23c-.23.15-.35.5-.35,1s.15.89.43,1a4.3,4.3,0,0,0,1.71.22,5.16,5.16,0,0,0,1.74-.19A.81.81,0,0,0,103.62,266.16Zm-3.14-7.43a1.68,1.68,0,0,1,1.18-2.87,1.61,1.61,0,0,1,1.18.49,1.67,1.67,0,0,1,0,2.38,1.69,1.69,0,0,1-2.36,0Zm.47-1.19a.7.7,0,0,0,.21.52.65.65,0,0,0,.51.2.69.69,0,0,0,.51-.21.73.73,0,0,0,.21-.52.73.73,0,0,0-1.24-.51A.66.66,0,0,0,101,257.54Z"/><path class="cls-1" d="M109.36,263.38v4.49q0,.63-.81.63t-.81-.63v-4.7a5.44,5.44,0,0,1,.29-2.24,3.14,3.14,0,0,1,.53-.76c.39-.35,1.35-.53,2.9-.53a4.78,4.78,0,0,1,1.56.16.56.56,0,0,1,.4.57.85.85,0,0,1-.22.62.81.81,0,0,1-.56.21l-1.18-.08a5.5,5.5,0,0,0-1.38.1,1.16,1.16,0,0,0-.41.21,1.35,1.35,0,0,0-.19.4,2,2,0,0,0-.11.63C109.36,262.68,109.36,263,109.36,263.38Z"/><path class="cls-1" d="M121.49,267c.36,0,.55.23.55.67a.73.73,0,0,1-.55.81,14.13,14.13,0,0,1-2.93.21,5,5,0,0,1-3-.67,2.62,2.62,0,0,1-.89-2.24v-3.29a2.57,2.57,0,0,1,.81-2.23,5.59,5.59,0,0,1,3-.57,5.53,5.53,0,0,1,3,.55,2.6,2.6,0,0,1,.77,2.25v1.42a1,1,0,0,1-.23.68.79.79,0,0,1-.61.25h-5.12v1c0,.89.78,1.33,2.32,1.32a13.12,13.12,0,0,0,1.75-.1A9.91,9.91,0,0,1,121.49,267Zm-5.16-4.51v.93h4.35v-.93a1.15,1.15,0,0,0-.44-1.05,3.71,3.71,0,0,0-1.72-.27,3.79,3.79,0,0,0-1.72.26A1.14,1.14,0,0,0,116.33,262.44Z"/><path class="cls-1" d="M130.63,257.09v7l4-4.07a.81.81,0,0,1,.6-.28.77.77,0,0,1,.56.23.7.7,0,0,1,.23.53.85.85,0,0,1-.29.6l-2.32,2.16,2.86,4a.91.91,0,0,1,.18.53.66.66,0,0,1-.26.53.81.81,0,0,1-.59.25.61.61,0,0,1-.53-.29l-2.81-3.94-1.66,1.53v2.05c0,.42-.26.63-.8.63s-.81-.21-.81-.63V257.09c0-.43.27-.65.81-.65S130.63,256.66,130.63,257.09Z"/><path class="cls-1" d="M140.77,267.16h1.67a2.28,2.28,0,0,0,.57-.1,1.1,1.1,0,0,0,.46-.27,1.21,1.21,0,0,0,.19-.73c0-.36,0-.74,0-1.15v-4.49c0-.43.27-.64.81-.64s.8.21.8.63v4.71a9.81,9.81,0,0,1-.14,1.94,1.67,1.67,0,0,1-.62,1,2.35,2.35,0,0,1-1.09.45,18.85,18.85,0,0,1-3.68,0,2.35,2.35,0,0,1-1.09-.45,1.66,1.66,0,0,1-.61-1,11.45,11.45,0,0,1-.15-1.94v-4.71q0-.63.81-.63c.54,0,.81.21.81.64v4.49a3.63,3.63,0,0,0,.29,1.95.77.77,0,0,0,.38.2A2.2,2.2,0,0,0,140.77,267.16Z"/><path class="cls-1" d="M149.73,261.43a3.52,3.52,0,0,0-.3,1.94v4.5c0,.42-.26.63-.8.63s-.81-.21-.81-.63v-4.7a8.83,8.83,0,0,1,.16-1.93,1.71,1.71,0,0,1,.63-1.05,2.38,2.38,0,0,1,1.11-.45,17,17,0,0,1,2-.1,4.68,4.68,0,0,1,2.87.55,2.45,2.45,0,0,1,.7,1.59,13.54,13.54,0,0,1,.06,1.39v4.7q0,.63-.81.63t-.81-.63v-4.5a3.6,3.6,0,0,0-.3-1.94,3.2,3.2,0,0,0-1.85-.31C150.54,261.12,149.93,261.22,149.73,261.43Z"/><path class="cls-1" d="M165.75,257.09v7.13a10.75,10.75,0,0,1-.2,2.3,2.48,2.48,0,0,1-.71,1.34,2.58,2.58,0,0,1-1.19.62,8.41,8.41,0,0,1-1.87.16,9.29,9.29,0,0,1-1.88-.15,2.68,2.68,0,0,1-1.22-.62,2.51,2.51,0,0,1-.71-1.35,12.36,12.36,0,0,1-.19-2.3,11.13,11.13,0,0,1,.2-2.33,2.49,2.49,0,0,1,1.92-2.07,8.94,8.94,0,0,1,2.07-.18,5.33,5.33,0,0,1,2.16.36v-2.91c0-.43.27-.65.81-.65S165.75,256.66,165.75,257.09Zm-6.16,5.07a4.88,4.88,0,0,0-.19,1.61q0,1.16.06,1.83a2.2,2.2,0,0,0,.46,1.18c.15.21.5.33,1.05.37h.81c1.05,0,1.67-.12,1.86-.38a2.33,2.33,0,0,0,.46-1.19c0-.44.07-.89.07-1.36a4.77,4.77,0,0,0-.4-2.54,2,2,0,0,0-.31-.33,2.17,2.17,0,0,0-1.26-.24H161c-.55,0-.89.16-1,.38A3.74,3.74,0,0,0,159.59,262.16Z"/><path class="cls-1" d="M174.88,267c.37,0,.55.23.55.67a.72.72,0,0,1-.55.81,14.13,14.13,0,0,1-2.93.21A4.94,4.94,0,0,1,169,268a2.65,2.65,0,0,1-.9-2.24v-3.29a2.57,2.57,0,0,1,.81-2.23,5.59,5.59,0,0,1,3-.57,5.51,5.51,0,0,1,3,.55,2.6,2.6,0,0,1,.78,2.25v1.42a1,1,0,0,1-.24.68.78.78,0,0,1-.61.25h-5.11v1q0,1.34,2.31,1.32a13.28,13.28,0,0,0,1.76-.1A9.57,9.57,0,0,1,174.88,267Zm-5.15-4.51v.93h4.34v-.93a1.15,1.15,0,0,0-.44-1.05,3.68,3.68,0,0,0-1.71-.27,3.82,3.82,0,0,0-1.73.26A1.11,1.11,0,0,0,169.73,262.44Z"/><path class="cls-1" d="M179.73,263.38v4.49c0,.42-.27.63-.8.63s-.81-.21-.82-.63v-4.7a5.62,5.62,0,0,1,.29-2.24,3.14,3.14,0,0,1,.53-.76,5,5,0,0,1,2.9-.53,4.9,4.9,0,0,1,1.57.16.56.56,0,0,1,.39.57.81.81,0,0,1-.22.62.79.79,0,0,1-.55.21l-1.19-.08a5.5,5.5,0,0,0-1.38.1,1.1,1.1,0,0,0-.4.21,1.31,1.31,0,0,0-.2.4,2.32,2.32,0,0,0-.11.63C179.73,262.68,179.73,263,179.73,263.38Z"/><path class="cls-1" d="M194.92,265.86v-.21a.66.66,0,0,0-.42-.62,3.68,3.68,0,0,0-1.47-.2,8.83,8.83,0,0,1-2.32-.32,2,2,0,0,1-1.06-.71,2.33,2.33,0,0,1-.42-1.45v-.14a2.13,2.13,0,0,1,.91-2,5.65,5.65,0,0,1,2.76-.52,11.42,11.42,0,0,1,2.74.24.72.72,0,0,1,.55.8c0,.45-.18.67-.55.67-.19,0-.57,0-1.14-.11a12.69,12.69,0,0,0-1.8-.13,4.68,4.68,0,0,0-1.4.16c-.3.11-.45.4-.45.89v.17c0,.64.67,1,2,1,.56,0,1.12.07,1.68.14a2.63,2.63,0,0,1,1.43.62,1.88,1.88,0,0,1,.58,1.5v.22a2.43,2.43,0,0,1-.92,2.21,5.65,5.65,0,0,1-2.94.58,13,13,0,0,1-2.91-.23.73.73,0,0,1-.56-.81c0-.44.19-.66.56-.66a11.69,11.69,0,0,1,1.27.11,14.67,14.67,0,0,0,1.85.11,3.83,3.83,0,0,0,1.47-.24A1,1,0,0,0,194.92,265.86Z"/><path class="cls-1" d="M198.86,257.7a.85.85,0,0,1,.26-.63.9.9,0,0,1,.61-.27.86.86,0,0,1,.63.27.92.92,0,0,1,.25.64.81.81,0,0,1-.26.61.87.87,0,0,1-1.49-.62Zm1.68,2.71v7.46q0,.63-.81.63c-.53,0-.8-.21-.8-.63v-7.46c0-.42.27-.63.8-.63S200.54,260,200.54,260.41Z"/><path class="cls-1" d="M209.89,267c.37,0,.56.23.56.67a.73.73,0,0,1-.56.81,14,14,0,0,1-2.92.21A5,5,0,0,1,204,268a2.62,2.62,0,0,1-.89-2.24v-3.29a2.57,2.57,0,0,1,.81-2.23,8.29,8.29,0,0,1,6,0,2.6,2.6,0,0,1,.77,2.25v1.42a.92.92,0,0,1-.24.68.76.76,0,0,1-.6.25h-5.12v1c0,.89.77,1.33,2.32,1.32a13.12,13.12,0,0,0,1.75-.1A10,10,0,0,1,209.89,267Zm-5.15-4.51v.93h4.35v-.93a1.15,1.15,0,0,0-.44-1.05,3.71,3.71,0,0,0-1.72-.27,3.77,3.77,0,0,0-1.72.26A1.14,1.14,0,0,0,204.74,262.44Z"/><path class="cls-1" d="M214.75,263.38v4.49q0,.63-.81.63c-.53,0-.81-.21-.81-.63v-4.7a5.44,5.44,0,0,1,.29-2.24,3.14,3.14,0,0,1,.53-.76c.38-.35,1.35-.53,2.9-.53a4.78,4.78,0,0,1,1.56.16.57.57,0,0,1,.4.57.85.85,0,0,1-.22.62.81.81,0,0,1-.56.21l-1.18-.08a5.5,5.5,0,0,0-1.38.1,1.16,1.16,0,0,0-.41.21,1.35,1.35,0,0,0-.19.4,2.34,2.34,0,0,0-.12.63Z"/><path class="cls-1" d="M224.42,264.22a11.13,11.13,0,0,1,.2-2.33,2.49,2.49,0,0,1,1.92-2.07,9.91,9.91,0,0,1,3.76,0,2.44,2.44,0,0,1,1.21.68,2.85,2.85,0,0,1,.72,1.38,11.23,11.23,0,0,1,.19,2.33,11.06,11.06,0,0,1-.19,2.32,2.53,2.53,0,0,1-.73,1.33,2.56,2.56,0,0,1-1.2.62,8.57,8.57,0,0,1-1.88.16,9.29,9.29,0,0,1-1.88-.15,2.68,2.68,0,0,1-1.22-.62,2.44,2.44,0,0,1-.71-1.35A11.56,11.56,0,0,1,224.42,264.22Zm1.81-2.06a4.62,4.62,0,0,0-.19,1.61q0,1.16.06,1.83a2.12,2.12,0,0,0,.46,1.18c.15.21.5.33,1.05.37h.81c1.05,0,1.67-.12,1.86-.38a2.33,2.33,0,0,0,.46-1.19c0-.44.06-.89.06-1.36a4.8,4.8,0,0,0-.39-2.54,2,2,0,0,0-.31-.33,2.17,2.17,0,0,0-1.26-.24H227.6c-.55,0-.9.16-1,.38A3.74,3.74,0,0,0,226.23,262.16Z"/><path class="cls-1" d="M243.79,261.12q-.73,0-1,0a1,1,0,0,0-.56.27.9.9,0,0,0-.29.6,9.94,9.94,0,0,0,0,1.14v4.71q0,.63-.81.63c-.53,0-.8-.21-.8-.63v-4.95c0-.82-.11-1.33-.33-1.52a2.21,2.21,0,0,0-1.35-.28c-.68,0-1.12,0-1.33,0a.9.9,0,0,0-.55.29,1.1,1.1,0,0,0-.27.66c0,.26,0,.69,0,1.27v4.5q0,.63-.81.63t-.81-.63v-4.7a6,6,0,0,1,.41-2.59,2,2,0,0,1,1.7-.88q.49,0,1.44-.06a4.92,4.92,0,0,1,2.73.5,5.08,5.08,0,0,1,2.74-.5c.61,0,1.09,0,1.43.05a2,2,0,0,1,1.68.84,6,6,0,0,1,.44,2.64v4.7q0,.63-.81.63t-.81-.63v-4.5c0-.58,0-1,0-1.27a1.1,1.1,0,0,0-.27-.66.88.88,0,0,0-.55-.29Q244.52,261.12,243.79,261.12Z"/><path class="cls-1" d="M254.08,264.22a10.49,10.49,0,0,1,.2-2.33,2.48,2.48,0,0,1,1.91-2.07,9.91,9.91,0,0,1,3.76,0,2.51,2.51,0,0,1,1.22.68,2.84,2.84,0,0,1,.71,1.38,11.13,11.13,0,0,1,.2,2.33,11,11,0,0,1-.2,2.32,2.45,2.45,0,0,1-.72,1.33,2.6,2.6,0,0,1-1.21.62,8.51,8.51,0,0,1-1.88.16,9.29,9.29,0,0,1-1.88-.15,2.73,2.73,0,0,1-1.22-.62,2.43,2.43,0,0,1-.7-1.35A10.85,10.85,0,0,1,254.08,264.22Zm1.81-2.06a4.57,4.57,0,0,0-.2,1.61,17.68,17.68,0,0,0,.07,1.83,2.19,2.19,0,0,0,.45,1.18c.15.21.5.33,1.05.37h.81c1.06,0,1.67-.12,1.86-.38a2.43,2.43,0,0,0,.47-1.19c0-.44.06-.89.06-1.36a4.66,4.66,0,0,0-.4-2.54,2.57,2.57,0,0,0-.3-.33,2.23,2.23,0,0,0-1.27-.24h-1.23c-.55,0-.9.16-1.05.38A3.88,3.88,0,0,0,255.89,262.16Z"/><path class="cls-1" d="M269.84,265.86v-.21a.66.66,0,0,0-.42-.62,3.62,3.62,0,0,0-1.46-.2,8.9,8.9,0,0,1-2.33-.32,1.93,1.93,0,0,1-1.05-.71,2.33,2.33,0,0,1-.42-1.45v-.14a2.14,2.14,0,0,1,.9-2,5.7,5.7,0,0,1,2.76-.52,11.52,11.52,0,0,1,2.75.24.73.73,0,0,1,.55.8c0,.45-.19.67-.55.67-.2,0-.58,0-1.14-.11a12.69,12.69,0,0,0-1.8-.13,4.76,4.76,0,0,0-1.41.16c-.3.11-.44.4-.44.89v.17c0,.64.66,1,2,1,.56,0,1.12.07,1.68.14a2.56,2.56,0,0,1,1.42.62,1.85,1.85,0,0,1,.58,1.5v.22a2.43,2.43,0,0,1-.91,2.21,5.66,5.66,0,0,1-2.95.58,13.11,13.11,0,0,1-2.91-.23.73.73,0,0,1-.55-.81c0-.44.19-.66.55-.66a11.62,11.62,0,0,1,1.28.11,14.63,14.63,0,0,0,1.84.11,3.76,3.76,0,0,0,1.47-.24A1,1,0,0,0,269.84,265.86Z"/><path class="cls-1" d="M278.78,265.86v-.21a.66.66,0,0,0-.42-.62,3.64,3.64,0,0,0-1.47-.2,8.88,8.88,0,0,1-2.32-.32,1.93,1.93,0,0,1-1.05-.71,2.33,2.33,0,0,1-.42-1.45v-.14a2.14,2.14,0,0,1,.9-2,5.7,5.7,0,0,1,2.76-.52,11.36,11.36,0,0,1,2.74.24.72.72,0,0,1,.56.8c0,.45-.19.67-.56.67-.19,0-.57,0-1.13-.11a12.69,12.69,0,0,0-1.8-.13,4.76,4.76,0,0,0-1.41.16c-.3.11-.45.4-.45.89v.17q0,1,2,1c.55,0,1.11.07,1.68.14a2.59,2.59,0,0,1,1.42.62,1.85,1.85,0,0,1,.58,1.5v.22a2.43,2.43,0,0,1-.91,2.21,5.66,5.66,0,0,1-2.95.58,13.11,13.11,0,0,1-2.91-.23.72.72,0,0,1-.55-.81c0-.44.18-.66.55-.66a11.81,11.81,0,0,1,1.28.11,14.63,14.63,0,0,0,1.84.11,3.76,3.76,0,0,0,1.47-.24A1,1,0,0,0,278.78,265.86Z"/></svg>