<svg id="Layer_1" data-name="Layer 1" xmlns="http://www.w3.org/2000/svg" viewBox="0 0 980 120"><defs><style>.cls-1{fill:#d4ac76;}</style></defs><title>text</title><path class="cls-1" d="M297.69,84.9h-4.77v3.54H298V90H291.3V78.39h6.63v1.54h-5v3.42h4.77Z"/><path class="cls-1" d="M302,90V78.39h1.62v10h4.77V90Z"/><path class="cls-1" d="M313.61,90l-4.52-11.59h1.82l3.47,8.91,3.48-8.91h1.79L315.12,90Z"/><path class="cls-1" d="M320.64,90l4.66-11.59h1.46L331.33,90h-1.8l-.7-1.78h-5.68L322.43,90ZM326,81.05l-2.25,5.6h4.46Z"/><path class="cls-1" d="M348.27,90V85h-5.64v5H341V78.39h1.62v5h5.64v-5h1.62V90Z"/><path class="cls-1" d="M358.67,90.18a4,4,0,0,1-3-1.22,4.21,4.21,0,0,1-1.19-3.06V78.39h1.62V85.8a3,3,0,0,0,.7,2,2.34,2.34,0,0,0,1.89.8,2.46,2.46,0,0,0,1.92-.78,3,3,0,0,0,.7-2V78.39h1.62V85.9A4.2,4.2,0,0,1,361.73,89,4.09,4.09,0,0,1,358.67,90.18Z"/><path class="cls-1" d="M370.54,90.13a5.36,5.36,0,0,1-2.17-.46,5.71,5.71,0,0,1-1.84-1.25l1.14-1.31A4.59,4.59,0,0,0,369,88.17a3.42,3.42,0,0,0,1.6.42,2.24,2.24,0,0,0,1.5-.5,1.53,1.53,0,0,0,.58-1.23,2,2,0,0,0-1.47-1.9l-1.37-.54A4.68,4.68,0,0,1,368,83.17a2.71,2.71,0,0,1-.63-1.83,2.89,2.89,0,0,1,1-2.19,3.3,3.3,0,0,1,2.37-.91A4.68,4.68,0,0,1,374,79.52l-1,1.3a3.23,3.23,0,0,0-2.39-1,1.81,1.81,0,0,0-1.23.41,1.39,1.39,0,0,0-.13,2,3.2,3.2,0,0,0,1.18.71l1.39.56a3.31,3.31,0,0,1,2.44,3.32,3.14,3.14,0,0,1-1,2.43A3.82,3.82,0,0,1,370.54,90.13Z"/><path class="cls-1" d="M384.63,90V78.39h1.66L390,84.57l3.79-6.18h1.59V90h-1.62V81.42l-.05,0-3.73,6-3.66-5.91h-.1V90Z"/><path class="cls-1" d="M406.57,84.9H401.8v3.54h5.1V90h-6.72V78.39h6.63v1.54h-5v3.42h4.77Z"/><path class="cls-1" d="M410.92,90V78.39H414a5.84,5.84,0,0,1,4.06,9.94A5.68,5.68,0,0,1,414,90Zm3.17-10h-1.55v8.51h1.6A3.77,3.77,0,0,0,417,87.19a4.27,4.27,0,0,0,1.15-3,4.17,4.17,0,0,0-1.19-3A3.89,3.89,0,0,0,414.09,79.93Z"/><path class="cls-1" d="M437.44,90V85H431.8v5h-1.62V78.39h1.62v5h5.64v-5h1.62V90Z"/><path class="cls-1" d="M449,90.19a5.7,5.7,0,0,1-4.18-1.71,6.21,6.21,0,0,1,0-8.6,5.91,5.91,0,0,1,8.35,0,6.18,6.18,0,0,1,0,8.58A5.71,5.71,0,0,1,449,90.19Zm-3-2.84a4.19,4.19,0,0,0,6.07,0A4.63,4.63,0,0,0,452,81,4.18,4.18,0,0,0,446,81a4.64,4.64,0,0,0,0,6.34Zm1.95-10.19a.76.76,0,0,1-.58.25.72.72,0,0,1-.57-.25,1,1,0,0,1,0-1.26.73.73,0,0,1,.57-.26.77.77,0,0,1,.58.26.95.95,0,0,1,0,1.26Zm3.21,0a.72.72,0,0,1-.57.25.76.76,0,0,1-.58-.25,1,1,0,0,1,0-1.26.77.77,0,0,1,.58-.26.73.73,0,0,1,.57.26.95.95,0,0,1,0,1.26Z"/><path class="cls-1" d="M466.5,84.94V83.4h3.85v.81a6,6,0,0,1-6,6,5.66,5.66,0,0,1-4.23-1.74,6.26,6.26,0,0,1,0-8.56,5.69,5.69,0,0,1,4.23-1.73,6.25,6.25,0,0,1,2.44.48,6,6,0,0,1,2,1.34l-1.2,1.23a4.1,4.1,0,0,0-3.23-1.51A4,4,0,0,0,461.28,81a4.67,4.67,0,0,0,0,6.32,4,4,0,0,0,3.07,1.31,4.18,4.18,0,0,0,2.79-1,4.42,4.42,0,0,0,1.46-2.68Z"/><path class="cls-1" d="M480.61,90V78.39h1.62v5.5l4.83-5.5h2.18L485.15,83l4.19,7h-2L484,84.32l-1.73,1.94V90Z"/><path class="cls-1" d="M496.27,90l-4.53-11.59h1.82L497,87.3l3.48-8.91h1.79L497.77,90Z"/><path class="cls-1" d="M503.29,90,508,78.39h1.46L514,90h-1.79l-.7-1.78H505.8L505.09,90Zm5.39-8.93-2.26,5.6h4.46Z"/><path class="cls-1" d="M517.2,90V78.39h1.62v10h4.77V90Z"/><path class="cls-1" d="M527.14,90V78.39h1.62V90Z"/><path class="cls-1" d="M532,79.93V78.39h9.39v1.54h-3.89V90h-1.62v-10Z"/><path class="cls-1" d="M551,84.9h-4.77v3.54h5.1V90H544.6V78.39h6.63v1.54h-5v3.42H551Z"/><path class="cls-1" d="M554.11,79.93V78.39h9.39v1.54h-3.88V90H558v-10Z"/><path class="cls-1" d="M572.07,79.93V78.39h9.39v1.54h-3.89V90H576v-10Z"/><path class="cls-1" d="M584.68,90V78.39h1.62V90Z"/><path class="cls-1" d="M591.06,90V78.39h1.62v10h4.77V90Z"/><path class="cls-1" d="M601,90V78.39h1.62v10h4.77V90Z"/><path class="cls-1" d="M617.22,90V78.39h3.54a3.75,3.75,0,0,1,2.56.89,3,3,0,0,1,1,2.35A2.75,2.75,0,0,1,623,84.12a2.86,2.86,0,0,1,1.24,1,2.69,2.69,0,0,1,.47,1.56,3,3,0,0,1-1,2.37,3.75,3.75,0,0,1-2.58.89Zm3.38-10h-1.76v3.53h2.06a1.75,1.75,0,0,0,1.29-.52,1.8,1.8,0,0,0,.52-1.33,1.51,1.51,0,0,0-.58-1.22A2.44,2.44,0,0,0,620.6,79.93Zm.36,5h-2.12v3.54h2a2.39,2.39,0,0,0,1.6-.5,1.65,1.65,0,0,0,.59-1.32,1.58,1.58,0,0,0-.54-1.24A2.22,2.22,0,0,0,621,84.9Z"/><path class="cls-1" d="M628.72,90V78.39H633a3.59,3.59,0,0,1,2.61,1,3.58,3.58,0,0,1-2,6.17L637,90h-2l-3.33-4.42h-1.29V90Zm4.09-10h-2.47v4.19h2.45a2.34,2.34,0,0,0,1.65-.58,2.09,2.09,0,0,0,0-3A2.25,2.25,0,0,0,632.81,79.93Z"/><path class="cls-1" d="M639.36,90,644,78.39h1.47L650,90h-1.79l-.7-1.78h-5.68L641.15,90Zm5.38-8.93-2.25,5.6h4.45Z"/><path class="cls-1" d="M659.73,90V78.39h3.95a3.66,3.66,0,0,1,2.7,1.08,3.77,3.77,0,0,1,1.07,2.76,3.63,3.63,0,0,1-1.11,2.71A3.73,3.73,0,0,1,663.62,86h-2.27v4Zm3.84-10h-2.22v4.55h2.24a2.31,2.31,0,0,0,1.6-3.9A2.17,2.17,0,0,0,663.57,79.93Z"/><path class="cls-1" d="M671.29,90V78.39h4.31a3.59,3.59,0,0,1,2.61,1,3.58,3.58,0,0,1-2,6.17L679.53,90h-2l-3.33-4.42h-1.29V90Zm4.09-10h-2.47v4.19h2.46a2.33,2.33,0,0,0,1.64-.58,2.09,2.09,0,0,0,0-3A2.25,2.25,0,0,0,675.38,79.93Z"/><path class="cls-1" d="M683.32,90V78.39h1.62V90Z"/><path class="cls-1" d="M692.52,90.13a5.43,5.43,0,0,1-2.17-.46,5.77,5.77,0,0,1-1.83-1.25l1.14-1.31A4.46,4.46,0,0,0,691,88.17a3.39,3.39,0,0,0,1.6.42,2.24,2.24,0,0,0,1.5-.5,1.56,1.56,0,0,0,.58-1.23,2,2,0,0,0-1.47-1.9l-1.37-.54A4.68,4.68,0,0,1,690,83.17a2.71,2.71,0,0,1-.63-1.83,2.89,2.89,0,0,1,1-2.19,3.29,3.29,0,0,1,2.36-.91A4.69,4.69,0,0,1,696,79.52l-1,1.3a3.23,3.23,0,0,0-2.4-1,1.8,1.8,0,0,0-1.22.41,1.39,1.39,0,0,0-.13,2,3.2,3.2,0,0,0,1.18.71l1.39.56a3.31,3.31,0,0,1,2.44,3.32,3.14,3.14,0,0,1-1,2.43A3.85,3.85,0,0,1,692.52,90.13Z"/></svg>