<svg id="Layer_1" data-name="Layer 1" xmlns="http://www.w3.org/2000/svg" viewBox="0 0 980 140"><defs><style>.cls-1{fill:#d80201;}</style></defs><title>text</title><path class="cls-1" d="M512.79,43.73a9.09,9.09,0,0,1-8-4.45l2.94-2.84a5.35,5.35,0,0,0,4.9,3.12,3.32,3.32,0,0,0,3.6-3.29c0-4.8-10.26-2.52-10.26-10,0-4.13,3.33-6.79,7.28-6.79A10.24,10.24,0,0,1,520.07,22l-2.38,3.12a4.72,4.72,0,0,0-3.78-1.89c-1.5,0-3.26.94-3.26,2.63,0,4,10.26,2,10.26,10.15C520.91,40.79,517.41,43.73,512.79,43.73Z"/><path class="cls-1" d="M531.58,43.66c-4.17,0-7.32-1.86-7.32-6.37V28h4.24v8.58c0,2.06.88,3.47,3.08,3.47s3.08-1.4,3.08-3.47V28h4.27v9.28C538.93,41.8,535.75,43.66,531.58,43.66Z"/><path class="cls-1" d="M550.44,43.66a8,8,0,0,1-8.26-8,8.09,8.09,0,0,1,8.33-8.12,7.8,7.8,0,0,1,3.85.91v4.2a5.23,5.23,0,0,0-3.43-1.29,4.25,4.25,0,1,0,0,8.51,5.16,5.16,0,0,0,3.43-1.3v4.17A8.11,8.11,0,0,1,550.44,43.66Z"/><path class="cls-1" d="M565,43.66a8,8,0,0,1-8.26-8,8.09,8.09,0,0,1,8.33-8.12,7.8,7.8,0,0,1,3.85.91v4.2a5.23,5.23,0,0,0-3.43-1.29,4.25,4.25,0,1,0,0,8.51,5.16,5.16,0,0,0,3.43-1.3v4.17A8.11,8.11,0,0,1,565,43.66Z"/><path class="cls-1" d="M575.71,36.27c.07,2.35,1.19,4.06,3.71,4.06a4,4,0,0,0,3.61-2l3.92.63c-1.33,3.26-4,4.73-7.46,4.73-4.9,0-8.12-3.15-8.12-8.09s3.08-8.05,7.95-8.05,7.74,3.36,7.74,8.19v.56Zm3.68-5.74a3.44,3.44,0,0,0-3.54,3H583A3.51,3.51,0,0,0,579.39,30.53Zm.07-5.18-2-1.4,4.17-5.29,3.08,2Z"/><path class="cls-1" d="M598,43.48h-2L588.31,28h4.76l4,8.54,4-8.54h4.76Z"/><path class="cls-1" d="M609.94,24.16a2.56,2.56,0,0,1,0-5.11,2.56,2.56,0,0,1,0,5.11Zm-2.13,19V28H612V43.17Z"/><path class="cls-1" d="M620.86,43.66a8.06,8.06,0,0,1-5.78-2.52l2.24-2.59a4.92,4.92,0,0,0,3.57,1.79,1.78,1.78,0,0,0,1.93-1.68c0-2.59-6.76-1.29-6.76-6.41,0-3.08,2.56-4.8,5.43-4.8a7.81,7.81,0,0,1,4.94,1.61l-2.1,2.49a4.23,4.23,0,0,0-2.52-1c-.73,0-1.61.46-1.61,1.29,0,2.21,7,1.23,7,6.41C627.2,41.77,624.12,43.66,620.86,43.66Z"/><path class="cls-1" d="M640.57,43.17v-8.4c0-2.07-.46-3.64-2.87-3.64-2.63,0-3.26,1.93-3.26,4.2v7.84h-4.24V28h4.24v1.86a5.59,5.59,0,0,1,4.76-2.35,5.82,5.82,0,0,1,4.41,1.82,5.84,5.84,0,0,1,1.19,4.2v9.63Z"/><path class="cls-1" d="M650.93,24.16a2.56,2.56,0,0,1,0-5.11,2.56,2.56,0,0,1,0,5.11Zm-2.13,19V28H653V43.17Z"/><path class="cls-1" d="M667.38,43.17v-8.4c0-2.07-.46-3.64-2.87-3.64-2.63,0-3.26,1.93-3.26,4.2v7.84H657V28h4.24v1.86A5.59,5.59,0,0,1,666,27.52a5.82,5.82,0,0,1,4.41,1.82,5.83,5.83,0,0,1,1.19,4.2v9.63Z"/><path class="cls-1" d="M689.74,48.66a8.26,8.26,0,0,1-6.44,2.66c-3.89,0-7.63-2.24-8.05-6.37h4.59a3.37,3.37,0,0,0,3.6,2.77c2.66,0,3.75-1.85,3.75-4.31V41.14a6.3,6.3,0,0,1-5.11,2.52c-4.48,0-7.21-3.61-7.21-7.88s2.8-8.26,7.42-8.26a5.68,5.68,0,0,1,4.9,2.45V28h4.27v14.6C691.46,45,691.35,46.77,689.74,48.66Zm-6.27-17.33a4.25,4.25,0,1,0,4.24,4.24A4.23,4.23,0,0,0,683.48,31.34Z"/><path class="cls-1" d="M715.85,43.17v-2a5.86,5.86,0,0,1-4.94,2.49c-4.55,0-7.46-3.78-7.46-8.12s2.91-8,7.35-8a6.32,6.32,0,0,1,5,2.42V28h4.27V43.17Zm-3.78-11.83a4.25,4.25,0,1,0,4.24,4.24A4.23,4.23,0,0,0,712.07,31.34Z"/><path class="cls-1" d="M731.88,43.48h-2L722.19,28h4.76l4,8.54,4-8.54h4.76Z"/><path class="cls-1" d="M513.13,69.65V81.17H508.9V69.65h-1.65V66h1.65V61.14a7.39,7.39,0,0,1,.67-3.57,6,6,0,0,1,5.25-3,5,5,0,0,1,2.24.52v3.89a4.22,4.22,0,0,0-1.93-.56c-1.89,0-2,2-2,3.4V66h3.92v3.64Z"/><path class="cls-1" d="M528.92,69.86a3.74,3.74,0,0,0-2-.52c-2.87,0-3.64,2-3.64,4.55v7.28H519V66h4.24v2.28a4.94,4.94,0,0,1,6.27-2.42Z"/><path class="cls-1" d="M543.2,81.17v-2a5.86,5.86,0,0,1-4.94,2.49c-4.55,0-7.46-3.78-7.46-8.12s2.91-8,7.35-8a6.32,6.32,0,0,1,5,2.42V66h4.27V81.17Zm-3.78-11.83a4.25,4.25,0,1,0,4.24,4.24A4.23,4.23,0,0,0,539.42,69.34Z"/><path class="cls-1" d="M570.89,81.17v-8.3c0-1.79-.28-3.75-2.52-3.75-2.49,0-2.91,2.28-2.91,4.27v7.77h-4.24V73.12a6.76,6.76,0,0,0-.31-2.52,2.45,2.45,0,0,0-2.28-1.47,2.76,2.76,0,0,0-2.38,1.37,6.29,6.29,0,0,0-.49,2.91v7.77h-4.24V66h4.24v1.72a5.82,5.82,0,0,1,4.62-2.21,5.15,5.15,0,0,1,4.73,2.77,5.6,5.6,0,0,1,5-2.77,5,5,0,0,1,4.24,2.17,6.68,6.68,0,0,1,.81,3.68v9.8Z"/><path class="cls-1" d="M583.45,69.65V81.17h-4.24V69.65h-1.68V66h1.68V60.83h4.24V66h3v3.64Z"/><path class="cls-1" d="M590.69,62.16a2.56,2.56,0,0,1,0-5.11,2.56,2.56,0,0,1,0,5.11Zm-2.14,19V66h4.24V81.17Z"/><path class="cls-1" d="M608.37,81.17v-2a5.86,5.86,0,0,1-4.94,2.49c-4.55,0-7.46-3.78-7.46-8.12s2.91-8,7.35-8a6.32,6.32,0,0,1,5,2.42v-13h4.27V81.17Zm-3.78-11.83a4.25,4.25,0,1,0,4.24,4.24A4.23,4.23,0,0,0,604.59,69.34Z"/><path class="cls-1" d="M620.23,74.27c.07,2.35,1.19,4.06,3.71,4.06a4,4,0,0,0,3.61-2l3.92.63c-1.33,3.26-4,4.73-7.46,4.73-4.9,0-8.12-3.15-8.12-8.09s3.08-8.05,7.95-8.05,7.74,3.36,7.74,8.19v.56Zm3.68-5.74a3.44,3.44,0,0,0-3.54,3h7.18A3.51,3.51,0,0,0,623.91,68.53Z"/><path class="cls-1" d="M645.19,81.17v-8.4c0-2.07-.46-3.64-2.87-3.64-2.63,0-3.26,1.93-3.26,4.2v7.84h-4.24V66h4.24v1.86a5.59,5.59,0,0,1,4.76-2.35,5.23,5.23,0,0,1,5.6,6v9.63Z"/><path class="cls-1" d="M658.31,81.66a8.06,8.06,0,0,1-5.78-2.52l2.24-2.59a4.92,4.92,0,0,0,3.57,1.79,1.78,1.78,0,0,0,1.93-1.68c0-2.59-6.76-1.29-6.76-6.41,0-3.08,2.56-4.8,5.43-4.8a7.81,7.81,0,0,1,4.94,1.61l-2.1,2.49a4.23,4.23,0,0,0-2.52-1c-.73,0-1.61.46-1.61,1.29,0,2.21,7,1.23,7,6.41C664.65,79.77,661.57,81.66,658.31,81.66Z"/><path class="cls-1" d="M684.11,81.48h-2L674.41,66h4.76l4,8.54,4-8.54h4.76Z"/><path class="cls-1" d="M696,62.16A2.56,2.56,0,0,1,696,57a2.56,2.56,0,0,1,0,5.11Zm-2.13,19V66h4.24V81.17Z"/><path class="cls-1" d="M702.13,81.17V54.95h4.24V81.17Z"/><path class="cls-1" d="M710.43,81.17V54.95h4.24V81.17Z"/><path class="cls-1" d="M730.31,81.17v-2a5.86,5.86,0,0,1-4.94,2.49c-4.55,0-7.46-3.78-7.46-8.12s2.91-8,7.35-8a6.32,6.32,0,0,1,5,2.42V66h4.27V81.17Zm-3.78-11.83a4.25,4.25,0,1,0,4.24,4.24A4.23,4.23,0,0,0,726.53,69.34Z"/></svg>