<svg id="Layer_1" data-name="Layer 1" xmlns="http://www.w3.org/2000/svg" viewBox="0 0 980 120"><defs><style>.cls-1{fill:#d4ac76;}</style></defs><title>text</title><path class="cls-1" d="M416.11,44.49A12,12,0,1,1,395.54,36a12.05,12.05,0,0,1,20.57,8.51ZM398.6,50a7.62,7.62,0,0,0,10.91,0,8,8,0,0,0,0-11.1,7.64,7.64,0,0,0-10.91,0,8,8,0,0,0,0,11.1ZM402,30.52a1.89,1.89,0,0,1-1.42.62,1.91,1.91,0,0,1-1.43-.62,2,2,0,0,1-.59-1.48,2,2,0,0,1,2-2.07,1.89,1.89,0,0,1,1.4.6,2,2,0,0,1,.6,1.47A2.1,2.1,0,0,1,402,30.52Zm6.9,0a2.22,2.22,0,0,1-3.08,0,2,2,0,0,1-.63-1.48,2,2,0,0,1,.63-1.47,2.28,2.28,0,0,1,3.08,0,2,2,0,0,1,.64,1.47A2,2,0,0,1,408.93,30.52Z"/><path class="cls-1" d="M422.77,56.1V32.91h8.32a7.89,7.89,0,0,1,8.06,8,7.35,7.35,0,0,1-2.36,5.58A8.07,8.07,0,0,1,431,48.72h-3.9V56.1Zm8-19h-3.6v7.77h3.66a4.1,4.1,0,0,0,2.91-1A3.61,3.61,0,0,0,434.8,41a3.8,3.8,0,0,0-1.14-2.85A4.07,4.07,0,0,0,430.72,37.08Z"/><path class="cls-1" d="M445.54,56.1V32.91h8.32a7.89,7.89,0,0,1,8.06,8,7.35,7.35,0,0,1-2.36,5.58,8.09,8.09,0,0,1-5.77,2.22h-3.9V56.1Zm7.95-19h-3.6v7.77h3.66a4.1,4.1,0,0,0,2.91-1A3.61,3.61,0,0,0,457.57,41a3.8,3.8,0,0,0-1.14-2.85A4.07,4.07,0,0,0,453.49,37.08Z"/><path class="cls-1" d="M481.24,46.29h-8.58v5.94h9.42V56.1H468.31V32.91h13.5v3.87h-9.15v5.64h8.58Z"/><path class="cls-1" d="M487.06,37.08V32.91h19.11v4.17h-7.38v19h-4.35v-19Z"/><path class="cls-1" d="M524.25,56.1V32.91h4V43.13l8.88-10.22h5.37l-8.19,9.25,8.37,13.94h-5l-6.32-10.59L528.28,49V56.1Z"/><path class="cls-1" d="M569.89,44.49A12.05,12.05,0,1,1,549.32,36a12.05,12.05,0,0,1,20.57,8.51ZM552.38,50a7.62,7.62,0,0,0,10.91,0,8,8,0,0,0,0-11.1,7.64,7.64,0,0,0-10.91,0,8,8,0,0,0,0,11.1Zm3.43-19.5a1.89,1.89,0,0,1-1.42.62,1.91,1.91,0,0,1-1.43-.62,2,2,0,0,1-.59-1.48,2,2,0,0,1,2-2.07,1.89,1.89,0,0,1,1.4.6,2,2,0,0,1,.6,1.47A2.1,2.1,0,0,1,555.81,30.52Zm6.9,0a2.22,2.22,0,0,1-3.08,0A2,2,0,0,1,559,29a2,2,0,0,1,.63-1.47,2.28,2.28,0,0,1,3.08,0,2,2,0,0,1,.64,1.47A2,2,0,0,1,562.71,30.52Z"/><path class="cls-1" d="M576.54,56.1V32.91h8.33a7.88,7.88,0,0,1,8,8,7.34,7.34,0,0,1-2.35,5.58,8.09,8.09,0,0,1-5.77,2.22h-3.9V56.1Zm8-19h-3.6v7.77h3.65a4.1,4.1,0,0,0,2.91-1A3.58,3.58,0,0,0,588.58,41a3.8,3.8,0,0,0-1.14-2.85A4.09,4.09,0,0,0,584.5,37.08Z"/><path class="cls-1" d="M244.58,92.1V68.91h8.33a7.89,7.89,0,0,1,8,8,7.34,7.34,0,0,1-2.35,5.58,8.1,8.1,0,0,1-5.78,2.22h-3.9V92.1Zm7.95-19h-3.6v7.77h3.66a4.1,4.1,0,0,0,2.91-1A3.6,3.6,0,0,0,256.61,77a3.81,3.81,0,0,0-1.14-2.86A4.07,4.07,0,0,0,252.53,73.08Z"/><path class="cls-1" d="M267.35,92.1V68.91h9.08A7.83,7.83,0,0,1,282,71a7.22,7.22,0,0,1,2.23,5.5,6.94,6.94,0,0,1-1.66,4.7,7.48,7.48,0,0,1-4.33,2.47l6.23,8.42h-4.89l-6-8.28H271.7V92.1Zm8.4-19.32H271.7v7.56h4.05a4.34,4.34,0,0,0,3-1,3.47,3.47,0,0,0,1.12-2.68,3.63,3.63,0,0,0-1.15-2.75A4.13,4.13,0,0,0,275.75,72.78Z"/><path class="cls-1" d="M291,92.1V68.91h4.35V92.1Z"/><path class="cls-1" d="M309.6,92.4a11.13,11.13,0,0,1-4.37-.92A11.48,11.48,0,0,1,301.47,89l2.76-3.31a8.52,8.52,0,0,0,2.56,2.07,6.56,6.56,0,0,0,3,.82,3.79,3.79,0,0,0,2.48-.8,2.49,2.49,0,0,0,1-2c0-1.44-.85-2.52-2.54-3.22l-2.59-1a10,10,0,0,1-3.85-2.56,5.94,5.94,0,0,1-1.25-4,6,6,0,0,1,2-4.4,6.72,6.72,0,0,1,4.92-1.93,10,10,0,0,1,7.14,2.65l-2.56,3.23a6,6,0,0,0-4.58-2,3.15,3.15,0,0,0-2.09.66,2.08,2.08,0,0,0-.78,1.64,2.18,2.18,0,0,0,.61,1.59,6.29,6.29,0,0,0,2,1.19l2.71,1.09q5.16,2.05,5.25,6.69a6.5,6.5,0,0,1-2.18,5.07A8.43,8.43,0,0,1,309.6,92.4Z"/><path class="cls-1" d="M338.93,82.41V78.54h8.31l0,2a11.88,11.88,0,0,1-1.69,6.15,11.7,11.7,0,0,1-4.4,4.27,12,12,0,0,1-5.91,1.52,12,12,0,1,1,.06-24.06,11.42,11.42,0,0,1,8.64,3.74l-3,2.93a7.5,7.5,0,0,0-5.7-2.5,7.39,7.39,0,0,0-5.55,2.26,8.2,8.2,0,0,0,0,11.18A7.06,7.06,0,0,0,335,88.29a8.25,8.25,0,0,0,5.16-1.61,7.37,7.37,0,0,0,2.73-4.27Z"/><path class="cls-1" d="M350.42,92.1l8.94-23.19h3.93L372.2,92.1h-4.47l-1.23-3.21H356.13l-1.24,3.21Zm10.91-16.7L357.62,85H365Z"/><path class="cls-1" d="M377.63,92.1V68.91h9.08a7.83,7.83,0,0,1,5.58,2.1,7.22,7.22,0,0,1,2.23,5.5,6.94,6.94,0,0,1-1.66,4.7,7.48,7.48,0,0,1-4.33,2.47l6.23,8.42h-4.89l-6-8.28H382V92.1ZM386,72.78h-4v7.56h4a4.34,4.34,0,0,0,3-1,3.47,3.47,0,0,0,1.12-2.68A3.63,3.63,0,0,0,389,73.88,4.13,4.13,0,0,0,386,72.78Z"/><path class="cls-1" d="M398.72,92.1l8.94-23.19h3.93L420.5,92.1H416l-1.23-3.21H404.43l-1.24,3.21Zm10.91-16.7L405.92,85h7.4Z"/><path class="cls-1" d="M425.93,92.1V68.91H429l11.41,14.58V68.91h4.35V92.1h-2.91L430.28,77.34V92.1Z"/><path class="cls-1" d="M450.35,73.08V68.91h19.11v4.17h-7.38v19h-4.35v-19Z"/><path class="cls-1" d="M475,92.1V68.91h4.35V92.1Z"/><path class="cls-1" d="M498.74,84.66V81.18h16.08v3.48Z"/><path class="cls-1" d="M534.2,92.1V68.91h7.63a7,7,0,0,1,5.07,1.93,6.42,6.42,0,0,1,2,4.79,5.48,5.48,0,0,1-2.6,4.66,6.46,6.46,0,0,1,2.57,2.08,4.88,4.88,0,0,1,1,2.94,6.36,6.36,0,0,1-2,4.91,7.25,7.25,0,0,1-5.12,1.88Zm7.12-19.32h-3.1V78.6h3.47a3.18,3.18,0,0,0,2.3-.86,2.85,2.85,0,0,0,.89-2.14,2.47,2.47,0,0,0-1-2A4,4,0,0,0,541.32,72.78Zm.67,9.3h-3.77v6.15h3.68a3.79,3.79,0,0,0,2.62-.88,2.89,2.89,0,0,0,1-2.24,2.84,2.84,0,0,0-.9-2.2A3.68,3.68,0,0,0,542,82.08Z"/><path class="cls-1" d="M569.72,82.29h-8.58v5.94h9.42V92.1H556.79V68.91h13.5v3.87h-9.15v5.64h8.58Z"/><path class="cls-1" d="M575.54,73.08V68.91h19.11v4.17h-7.38v19h-4.35v-19Z"/><path class="cls-1" d="M595.46,92.1l8.94-23.19h3.93l8.91,23.19h-4.47l-1.23-3.21H601.17l-1.24,3.21Zm10.91-16.7L602.66,85h7.4Z"/><path class="cls-1" d="M622.67,92.1V68.91H627v19h8.52V92.1Z"/><path class="cls-1" d="M639.56,92.1l8.94-23.19h3.93l8.91,23.19h-4.47l-1.23-3.21H645.27L644,92.1Zm10.91-16.7L646.76,85h7.4Z"/><path class="cls-1" d="M685.38,92.4a11.13,11.13,0,0,1-4.37-.92A11.38,11.38,0,0,1,677.25,89L680,85.64a8.52,8.52,0,0,0,2.56,2.07,6.56,6.56,0,0,0,3,.82,3.74,3.74,0,0,0,2.47-.8,2.48,2.48,0,0,0,1-2c0-1.44-.85-2.52-2.54-3.22l-2.59-1a10.09,10.09,0,0,1-3.86-2.56,5.93,5.93,0,0,1-1.24-4,6,6,0,0,1,2-4.4,6.72,6.72,0,0,1,4.91-1.93,10,10,0,0,1,7.14,2.65l-2.56,3.23a6,6,0,0,0-4.58-2,3.14,3.14,0,0,0-2.08.66,2.08,2.08,0,0,0-.78,1.64,2.18,2.18,0,0,0,.61,1.59,6.17,6.17,0,0,0,2,1.19l2.71,1.09c3.43,1.37,5.19,3.6,5.25,6.69a6.5,6.5,0,0,1-2.18,5.07A8.43,8.43,0,0,1,685.38,92.4Z"/><path class="cls-1" d="M713,82.29h-8.58v5.94h9.42V92.1H700V68.91h13.5v3.87h-9.15v5.64H713Z"/><path class="cls-1" d="M720.86,92.1V68.91h3l11.41,14.58V68.91h4.35V92.1h-2.91L725.21,77.34V92.1Z"/></svg>