<svg id="Layer_1" data-name="Layer 1" xmlns="http://www.w3.org/2000/svg" viewBox="0 0 300 250"><defs><style>.cls-1{fill:#010121;}</style></defs><title>text</title><path class="cls-1" d="M134.41,92.29h2.34v15.17h8.63v2.05h-11Z"/><path class="cls-1" d="M147.48,92.29h2.14v2.39h-2.14Zm0,4.72h2.14v12.5h-2.14Z"/><path class="cls-1" d="M153.23,93.45h2.14V97h2v1.72h-2v8.19a.88.88,0,0,0,.44.88,2,2,0,0,0,.82.13H157l.41,0v1.68a4.45,4.45,0,0,1-.76.15,7.34,7.34,0,0,1-.85,0,2.3,2.3,0,0,1-2-.76,3.36,3.36,0,0,1-.53-2V98.68h-1.7V97h1.7Z"/><path class="cls-1" d="M167.23,97.3a4.77,4.77,0,0,1,1.9,1.62,5.64,5.64,0,0,1,.84,2.22,14.86,14.86,0,0,1,.19,2.76H161a5.43,5.43,0,0,0,.89,3.08,3,3,0,0,0,2.59,1.15,3.32,3.32,0,0,0,2.62-1.09,3.72,3.72,0,0,0,.78-1.47H170a4.5,4.5,0,0,1-.55,1.54,5.29,5.29,0,0,1-1,1.39,4.87,4.87,0,0,1-2.36,1.26,6.83,6.83,0,0,1-1.71.19,5.27,5.27,0,0,1-4-1.7,6.67,6.67,0,0,1-1.62-4.78,7.29,7.29,0,0,1,1.63-4.91,5.37,5.37,0,0,1,4.27-1.89A5.64,5.64,0,0,1,167.23,97.3Zm.76,4.93a5.5,5.5,0,0,0-.6-2.19,3,3,0,0,0-2.87-1.53,3.15,3.15,0,0,0-2.41,1,4,4,0,0,0-1,2.67Z"/><path class="cls-1" d="M94.43,121.92a3.23,3.23,0,0,1,2.85-1.08l.41,0,.48,0v1.92l-.48,0h-.28c-.65,0-1,.16-1.16.5a9.48,9.48,0,0,0-.19,2.53h2.11v1.67H96.06v10.83H94V127.48H92.23v-1.67H94v-2A3.8,3.8,0,0,1,94.43,121.92Z"/><path class="cls-1" d="M109.21,127a6.31,6.31,0,0,1,1.66,4.75,8.18,8.18,0,0,1-1.47,5,5.27,5.27,0,0,1-4.55,2,5.11,5.11,0,0,1-4.08-1.75,6.93,6.93,0,0,1-1.51-4.7,7.49,7.49,0,0,1,1.59-5,5.33,5.33,0,0,1,4.28-1.88A5.63,5.63,0,0,1,109.21,127Zm-1.31,8.34a8,8,0,0,0,.77-3.53,6.38,6.38,0,0,0-.56-2.86,3.14,3.14,0,0,0-3-1.73,3,3,0,0,0-2.78,1.48,6.87,6.87,0,0,0-.87,3.55,6,6,0,0,0,.87,3.34,3.05,3.05,0,0,0,2.76,1.33A2.88,2.88,0,0,0,107.9,135.35Z"/><path class="cls-1" d="M113.52,125.75h2v2.17a5,5,0,0,1,1.21-1.54,3.15,3.15,0,0,1,2.21-.91l.2,0,.48,0v2.23l-.34-.05h-.35a3,3,0,0,0-2.45,1,3.57,3.57,0,0,0-.85,2.36v7.22h-2.11Z"/><path class="cls-1" d="M123.56,125.75v8.34a3.57,3.57,0,0,0,.3,1.57,2,2,0,0,0,2,1.12,2.87,2.87,0,0,0,2.92-2,8,8,0,0,0,.43-2.89v-6.17h2.1v12.56h-2l0-1.86a4.26,4.26,0,0,1-1,1.21,4.32,4.32,0,0,1-2.87,1,3.69,3.69,0,0,1-3.59-1.8,5.46,5.46,0,0,1-.51-2.56v-8.54Z"/><path class="cls-1" d="M135.22,122.25h2.13v3.5h2v1.73h-2v8.19a.88.88,0,0,0,.45.88,2,2,0,0,0,.82.13H139l.41,0v1.68a4.65,4.65,0,0,1-.76.15,7.46,7.46,0,0,1-.85,0,2.29,2.29,0,0,1-2-.75,3.36,3.36,0,0,1-.53-2v-8.31h-1.7v-1.73h1.7Z"/><path class="cls-1" d="M142.72,134.37a3.07,3.07,0,0,0,.54,1.62,3.41,3.41,0,0,0,2.82,1,4.36,4.36,0,0,0,2.11-.5,1.7,1.7,0,0,0,.91-1.58,1.35,1.35,0,0,0-.73-1.23,9,9,0,0,0-1.83-.6l-1.71-.42a8.44,8.44,0,0,1-2.4-.89,2.66,2.66,0,0,1-1.38-2.37,3.57,3.57,0,0,1,1.3-2.88,5.18,5.18,0,0,1,3.49-1.1,4.89,4.89,0,0,1,4.15,1.66,3.55,3.55,0,0,1,.77,2.27h-2a2.35,2.35,0,0,0-.52-1.29,3.34,3.34,0,0,0-2.58-.83,3.17,3.17,0,0,0-1.85.46,1.4,1.4,0,0,0-.63,1.2,1.48,1.48,0,0,0,.83,1.31,5,5,0,0,0,1.41.51l1.42.34a11.25,11.25,0,0,1,3.1,1.07,2.83,2.83,0,0,1,1.23,2.54,3.87,3.87,0,0,1-1.29,2.9,5.51,5.51,0,0,1-3.92,1.22c-1.89,0-3.22-.43-4-1.28a4.76,4.76,0,0,1-1.27-3.14Z"/><path class="cls-1" d="M153.47,121.09h2.14v2.39h-2.14Zm0,4.72h2.14v12.5h-2.14Z"/><path class="cls-1" d="M165.78,126.26a5.84,5.84,0,0,1,1.21,1.19v-1.58h1.95v11.42a8.53,8.53,0,0,1-.7,3.77c-.88,1.7-2.52,2.55-5,2.55a6.08,6.08,0,0,1-3.39-.9,3.57,3.57,0,0,1-1.55-2.85h2.15a2.43,2.43,0,0,0,.6,1.31,3.15,3.15,0,0,0,2.24.7c1.61,0,2.66-.57,3.16-1.71a9.64,9.64,0,0,0,.41-3.6,4.13,4.13,0,0,1-1.52,1.43,5.05,5.05,0,0,1-2.35.47,5,5,0,0,1-3.55-1.45q-1.52-1.44-1.52-4.79a7.28,7.28,0,0,1,1.53-4.92,4.75,4.75,0,0,1,3.71-1.77A4.53,4.53,0,0,1,165.78,126.26Zm.26,2.26a3.07,3.07,0,0,0-2.44-1.12,3,3,0,0,0-3,2.08,8.18,8.18,0,0,0-.43,2.92,5.23,5.23,0,0,0,.85,3.23,2.76,2.76,0,0,0,2.3,1.11,3.25,3.25,0,0,0,3.19-2.06A6.64,6.64,0,0,0,167,132,5.29,5.29,0,0,0,166,128.52Z"/><path class="cls-1" d="M172,121H174v6.25a4.85,4.85,0,0,1,1.66-1.38,4.62,4.62,0,0,1,2.1-.47,4.88,4.88,0,0,1,3.81,1.61,6.82,6.82,0,0,1,1.47,4.75,8.13,8.13,0,0,1-1.45,5,4.69,4.69,0,0,1-4,2,4.09,4.09,0,0,1-2.42-.69,5.48,5.48,0,0,1-1.26-1.31v1.61H172ZM180,135.48a6.63,6.63,0,0,0,.85-3.58,5.89,5.89,0,0,0-.85-3.29,2.83,2.83,0,0,0-2.51-1.3,3.53,3.53,0,0,0-2.54,1.07,4.8,4.8,0,0,0-1.08,3.52,7.73,7.73,0,0,0,.44,2.87,3.1,3.1,0,0,0,3.12,2.07A2.83,2.83,0,0,0,180,135.48Z"/><path class="cls-1" d="M192.22,130.71a1.11,1.11,0,0,0,1-.61,1.79,1.79,0,0,0,.14-.81,1.72,1.72,0,0,0-.76-1.57,4,4,0,0,0-2.19-.49,2.77,2.77,0,0,0-2.34.9,3,3,0,0,0-.51,1.47h-2a3.63,3.63,0,0,1,1.5-3.24,6.12,6.12,0,0,1,3.35-.91,6.85,6.85,0,0,1,3.6.84,2.88,2.88,0,0,1,1.37,2.63v7.23a1,1,0,0,0,.13.53.66.66,0,0,0,.57.2l.32,0,.37-.05v1.55a4.77,4.77,0,0,1-.75.18,6,6,0,0,1-.7,0,1.71,1.71,0,0,1-1.58-.78,2.83,2.83,0,0,1-.37-1.16,5.4,5.4,0,0,1-1.85,1.47,5.76,5.76,0,0,1-2.66.62,3.93,3.93,0,0,1-2.85-1.06,3.52,3.52,0,0,1-1.11-2.65,3.4,3.4,0,0,1,1.09-2.71,5.21,5.21,0,0,1,2.86-1.18Zm-4.44,5.7a2.48,2.48,0,0,0,1.58.52,4.89,4.89,0,0,0,2.16-.51,2.9,2.9,0,0,0,1.76-2.8v-1.69a3.77,3.77,0,0,1-1,.41,7.34,7.34,0,0,1-1.19.23l-1.28.17a4.89,4.89,0,0,0-1.72.48,1.86,1.86,0,0,0-1,1.75A1.72,1.72,0,0,0,187.78,136.41Z"/><path class="cls-1" d="M198.9,125.75h2v2.17a4.76,4.76,0,0,1,1.2-1.54,3.16,3.16,0,0,1,2.22-.91l.2,0,.48,0v2.23l-.35-.05h-.34a3,3,0,0,0-2.45,1,3.58,3.58,0,0,0-.86,2.36v7.22H198.9Z"/><path class="cls-1" d="M214.59,126.1a4.84,4.84,0,0,1,1.9,1.62,5.63,5.63,0,0,1,.83,2.22,14,14,0,0,1,.19,2.76h-9.13a5.43,5.43,0,0,0,.9,3.08,3,3,0,0,0,2.59,1.15,3.35,3.35,0,0,0,2.62-1.09,3.7,3.7,0,0,0,.77-1.47h2.07a4.26,4.26,0,0,1-.54,1.54,5.52,5.52,0,0,1-1,1.39,5,5,0,0,1-2.36,1.26,6.94,6.94,0,0,1-1.71.19,5.25,5.25,0,0,1-3.95-1.7,6.67,6.67,0,0,1-1.62-4.78,7.22,7.22,0,0,1,1.63-4.91,5.37,5.37,0,0,1,4.26-1.89A5.65,5.65,0,0,1,214.59,126.1Zm.75,4.93a5.35,5.35,0,0,0-.59-2.19,3,3,0,0,0-2.87-1.53,3.17,3.17,0,0,0-2.42,1.05,4,4,0,0,0-1,2.67Z"/><path class="cls-1" d="M111.28,154.61h2.06v1.67a5.42,5.42,0,0,1,1.39-1.33,4.45,4.45,0,0,1,2.51-.7,4.71,4.71,0,0,1,3.63,1.63,6.67,6.67,0,0,1,1.5,4.67q0,4.11-2.16,5.86a4.84,4.84,0,0,1-3.17,1.12,4.36,4.36,0,0,1-2.39-.62,5.52,5.52,0,0,1-1.26-1.21v6.41h-2.11Zm7.94,9.84a5.9,5.9,0,0,0,1-3.7,6.8,6.8,0,0,0-.44-2.57,3.19,3.19,0,0,0-6,.11,8.7,8.7,0,0,0-.43,3,6.28,6.28,0,0,0,.43,2.47,3.2,3.2,0,0,0,5.48.71Z"/><path class="cls-1" d="M124.86,154.55h2v2.17a4.76,4.76,0,0,1,1.2-1.54,3.16,3.16,0,0,1,2.22-.91l.2,0,.48,0v2.23l-.35-.05h-.34a3,3,0,0,0-2.45,1,3.58,3.58,0,0,0-.86,2.36v7.22h-2.11Z"/><path class="cls-1" d="M141.89,155.81a6.31,6.31,0,0,1,1.66,4.75,8.24,8.24,0,0,1-1.46,5,5.3,5.3,0,0,1-4.55,2,5.12,5.12,0,0,1-4.09-1.75,6.93,6.93,0,0,1-1.51-4.7,7.54,7.54,0,0,1,1.59-5,5.38,5.38,0,0,1,4.29-1.87A5.62,5.62,0,0,1,141.89,155.81Zm-1.31,8.34a8,8,0,0,0,.77-3.53,6.25,6.25,0,0,0-.56-2.86,3.11,3.11,0,0,0-3-1.73,3,3,0,0,0-2.78,1.48,6.87,6.87,0,0,0-.87,3.55,6,6,0,0,0,.87,3.34,3.05,3.05,0,0,0,2.76,1.33A2.86,2.86,0,0,0,140.58,164.15Z"/><path class="cls-1" d="M147.4,163.17a3,3,0,0,0,.54,1.62,3.44,3.44,0,0,0,2.82,1,4.19,4.19,0,0,0,2.1-.51,1.66,1.66,0,0,0,.91-1.57,1.34,1.34,0,0,0-.72-1.23,9,9,0,0,0-1.84-.6l-1.7-.42a8.52,8.52,0,0,1-2.41-.89,2.66,2.66,0,0,1-1.38-2.37,3.6,3.6,0,0,1,1.3-2.88,5.21,5.21,0,0,1,3.5-1.1,4.86,4.86,0,0,1,4.14,1.66,3.62,3.62,0,0,1,.78,2.27h-2a2.42,2.42,0,0,0-.51-1.29,3.37,3.37,0,0,0-2.58-.83,3.08,3.08,0,0,0-1.85.46,1.4,1.4,0,0,0-.63,1.2,1.47,1.47,0,0,0,.82,1.31,5,5,0,0,0,1.41.51l1.42.34a11.36,11.36,0,0,1,3.11,1.07,2.83,2.83,0,0,1,1.23,2.54,3.87,3.87,0,0,1-1.29,2.9,5.53,5.53,0,0,1-3.92,1.22c-1.89,0-3.23-.43-4-1.28a4.75,4.75,0,0,1-1.26-3.14Z"/><path class="cls-1" d="M156.15,170.28a4.14,4.14,0,0,0,1.71-.25c.19-.14.28-.57.28-1.28V154.61h2.11V169a3.85,3.85,0,0,1-.44,2.05,3.07,3.07,0,0,1-2.8,1.15h-.33l-.53,0Zm4.1-17.95h-2.11v-2.44h2.11Z"/><path class="cls-1" d="M171.23,154.9a4.84,4.84,0,0,1,1.9,1.62,5.48,5.48,0,0,1,.83,2.22,14,14,0,0,1,.19,2.76H165a5.43,5.43,0,0,0,.9,3.08,3,3,0,0,0,2.59,1.15,3.34,3.34,0,0,0,2.62-1.09,3.7,3.7,0,0,0,.77-1.47H174a4.5,4.5,0,0,1-.55,1.54,5.52,5.52,0,0,1-1,1.39,5,5,0,0,1-2.36,1.26,6.94,6.94,0,0,1-1.71.19,5.25,5.25,0,0,1-4-1.7,6.67,6.67,0,0,1-1.62-4.78,7.22,7.22,0,0,1,1.63-4.91,5.37,5.37,0,0,1,4.26-1.89A5.65,5.65,0,0,1,171.23,154.9Zm.75,4.93a5.35,5.35,0,0,0-.59-2.19,3,3,0,0,0-2.87-1.53,3.17,3.17,0,0,0-2.42,1,4,4,0,0,0-1,2.67Z"/><path class="cls-1" d="M176.78,149.89h2v10l5.41-5.34h2.7l-4.83,4.67,5.1,7.89h-2.7l-3.94-6.39-1.74,1.67v4.72h-2Z"/><path class="cls-1" d="M189.25,151.05h2.13v3.5h2v1.73h-2v8.19a.9.9,0,0,0,.44.88,2,2,0,0,0,.82.13H193l.41,0v1.68a4.53,4.53,0,0,1-.75.15,7.69,7.69,0,0,1-.85,0,2.3,2.3,0,0,1-2-.75,3.38,3.38,0,0,1-.52-2v-8.31h-1.7v-1.73h1.7Z"/><path class="cls-1" d="M197.22,151.21a5.17,5.17,0,0,1,4-1.54,5.27,5.27,0,0,1,3.75,1.32,4.44,4.44,0,0,1,1.4,3.37,3.59,3.59,0,0,1-.51,2,14.91,14.91,0,0,1-2.09,2.27,6.88,6.88,0,0,0-1.49,1.85,5.57,5.57,0,0,0-.35,2.23h-2.08a7.79,7.79,0,0,1,.39-2.7,7.22,7.22,0,0,1,1.78-2.35l.95-.92a4.11,4.11,0,0,0,.7-.84,2.82,2.82,0,0,0,.49-1.58,3.06,3.06,0,0,0-.7-2,2.87,2.87,0,0,0-2.32-.84,2.84,2.84,0,0,0-2.76,1.45,5.51,5.51,0,0,0-.49,2.33h-2.09A5.68,5.68,0,0,1,197.22,151.21Zm2.55,13.46h2.33v2.44h-2.33Z"/></svg>