<svg id="Layer_1" data-name="Layer 1" xmlns="http://www.w3.org/2000/svg" viewBox="0 0 300 250"><defs><style>.cls-1{fill:#010121;}</style></defs><title>text</title><path class="cls-1" d="M126.08,80.29h2.33V95.46h8.64v2.05h-11Z"/><path class="cls-1" d="M139.15,80.29h2.14v2.39h-2.14Zm0,4.72h2.14v12.5h-2.14Z"/><path class="cls-1" d="M145.46,81.12A3.25,3.25,0,0,1,148.31,80l.41,0,.48,0V82l-.48,0h-.28c-.64,0-1,.16-1.16.5a10,10,0,0,0-.19,2.53h2.11v1.67h-2.11V97.51H145V86.68h-1.75V85H145V83A3.81,3.81,0,0,1,145.46,81.12Z"/><path class="cls-1" d="M151.21,80.29h2.11V97.51h-2.11Z"/><path class="cls-1" d="M156.48,80.29h2.14v2.39h-2.14Zm0,4.72h2.14v12.5h-2.14Z"/><path class="cls-1" d="M168.79,85.46A5.6,5.6,0,0,1,170,86.65V85.07H172V96.49a8.53,8.53,0,0,1-.7,3.77q-1.31,2.55-4.94,2.55a6.09,6.09,0,0,1-3.4-.9,3.56,3.56,0,0,1-1.54-2.85h2.14a2.36,2.36,0,0,0,.61,1.31,3.1,3.1,0,0,0,2.23.7c1.61,0,2.67-.57,3.16-1.71a9.64,9.64,0,0,0,.41-3.6,4.06,4.06,0,0,1-1.52,1.43,5.42,5.42,0,0,1-5.9-1Q161,94.77,161,91.42a7.28,7.28,0,0,1,1.53-4.92,4.75,4.75,0,0,1,3.71-1.77A4.51,4.51,0,0,1,168.79,85.46Zm.26,2.26a3.06,3.06,0,0,0-2.44-1.12,3,3,0,0,0-3,2.08,8.18,8.18,0,0,0-.43,2.92,5.23,5.23,0,0,0,.85,3.23,2.78,2.78,0,0,0,2.31,1.11,3.24,3.24,0,0,0,3.18-2.06,6.64,6.64,0,0,0,.51-2.7A5.29,5.29,0,0,0,169.05,87.72Z"/><path class="cls-1" d="M176.27,85.12h2.45v2.55h-2.45Zm0,9.83h2.45v2.56h-2.45Z"/><path class="cls-1" d="M92.6,109.09H95v17.22H92.6Z"/><path class="cls-1" d="M111.26,109.09v2h-5.8v15.17H103.1V111.14H97.3v-2Z"/><path class="cls-1" d="M111.26,118.54h5.88v2.16h-5.88Z"/><path class="cls-1" d="M119.86,109.09H122v17.22h-2.11Z"/><path class="cls-1" d="M124.66,126.26l1.51-1.58a6.92,6.92,0,0,1-.91-1.94,9.15,9.15,0,0,1-.32-2.55,7.84,7.84,0,0,1,1.5-4.73,5,5,0,0,1,4.35-2.07,6,6,0,0,1,2.6.53,7.42,7.42,0,0,1,1.51,1l1.49-1.65.61.59-1.5,1.68a7.42,7.42,0,0,1,1.06,2.47,8.65,8.65,0,0,1,.2,1.81,7.46,7.46,0,0,1-1.65,5,5.4,5.4,0,0,1-4.37,2,6.68,6.68,0,0,1-2.32-.38,4.28,4.28,0,0,1-1.64-1l-1.43,1.5Zm7.84-10.68a3.93,3.93,0,0,0-1.63-.34,3.25,3.25,0,0,0-2.76,1.43,6.08,6.08,0,0,0-1,3.67,7.18,7.18,0,0,0,.18,1.62,9.73,9.73,0,0,0,.36,1.1l5.95-6.65A2.53,2.53,0,0,0,132.5,115.58Zm-3.09,9.13a4.08,4.08,0,0,0,1.37.24,3.24,3.24,0,0,0,3.18-2.09,6.92,6.92,0,0,0,.57-2.88,8,8,0,0,0-.18-1.82,6.31,6.31,0,0,0-.32-1l-5.88,6.62A3,3,0,0,0,129.41,124.71Z"/><path class="cls-1" d="M141.05,122.37a3.07,3.07,0,0,0,.53,1.62,3.44,3.44,0,0,0,2.83,1,4.32,4.32,0,0,0,2.1-.5,1.69,1.69,0,0,0,.91-1.58,1.33,1.33,0,0,0-.73-1.23,9,9,0,0,0-1.83-.6l-1.7-.42a8.52,8.52,0,0,1-2.41-.89,2.66,2.66,0,0,1-1.38-2.37,3.57,3.57,0,0,1,1.3-2.88,5.21,5.21,0,0,1,3.5-1.1,4.87,4.87,0,0,1,4.14,1.66,3.55,3.55,0,0,1,.77,2.27h-2a2.42,2.42,0,0,0-.51-1.29,3.37,3.37,0,0,0-2.58-.83,3.19,3.19,0,0,0-1.86.46,1.4,1.4,0,0,0-.63,1.2,1.48,1.48,0,0,0,.83,1.31,5,5,0,0,0,1.41.51l1.42.34a11.36,11.36,0,0,1,3.11,1.07,2.83,2.83,0,0,1,1.23,2.54,3.87,3.87,0,0,1-1.29,2.9,5.55,5.55,0,0,1-3.92,1.22c-1.89,0-3.23-.43-4-1.28a4.75,4.75,0,0,1-1.26-3.14Z"/><path class="cls-1" d="M151.79,113.75h2v1.79a5.57,5.57,0,0,1,1.88-1.59,5.05,5.05,0,0,1,2.22-.48,3.65,3.65,0,0,1,3.61,1.87,6.66,6.66,0,0,1,.51,2.91v8.06h-2.14V118.4a4.41,4.41,0,0,0-.34-1.86,2.07,2.07,0,0,0-2-1.17,4.21,4.21,0,0,0-1.23.15,3.16,3.16,0,0,0-1.52,1,3,3,0,0,0-.69,1.28,8.31,8.31,0,0,0-.16,1.89v6.58h-2.11Z"/><path class="cls-1" d="M165.14,109.09h2.14v2.39h-2.14Zm0,4.72h2.14v12.5h-2.14Z"/><path class="cls-1" d="M170.47,113.75h2v1.79a5.57,5.57,0,0,1,1.88-1.59,5.05,5.05,0,0,1,2.22-.48,3.65,3.65,0,0,1,3.61,1.87,6.66,6.66,0,0,1,.51,2.91v8.06h-2.14V118.4a4.41,4.41,0,0,0-.34-1.86,2.07,2.07,0,0,0-2-1.17,4.21,4.21,0,0,0-1.23.15,3.23,3.23,0,0,0-1.53,1,3,3,0,0,0-.68,1.28,8.31,8.31,0,0,0-.16,1.89v6.58h-2.11Z"/><path class="cls-1" d="M190.8,114.26a5.84,5.84,0,0,1,1.21,1.19v-1.58h2v11.42a8.38,8.38,0,0,1-.71,3.77q-1.31,2.55-4.93,2.55a6.06,6.06,0,0,1-3.4-.9,3.57,3.57,0,0,1-1.55-2.85h2.15a2.43,2.43,0,0,0,.6,1.31,3.13,3.13,0,0,0,2.24.7c1.61,0,2.66-.57,3.16-1.71a9.64,9.64,0,0,0,.41-3.6,4.13,4.13,0,0,1-1.52,1.43,5.42,5.42,0,0,1-5.9-1q-1.51-1.44-1.52-4.79a7.28,7.28,0,0,1,1.53-4.92,4.75,4.75,0,0,1,3.71-1.77A4.51,4.51,0,0,1,190.8,114.26Zm.25,2.26a3.23,3.23,0,0,0-5.46,1,8.18,8.18,0,0,0-.43,2.92,5.23,5.23,0,0,0,.85,3.23,2.76,2.76,0,0,0,2.31,1.11,3.24,3.24,0,0,0,3.18-2.06A6.64,6.64,0,0,0,192,120,5.24,5.24,0,0,0,191.05,116.52Z"/><path class="cls-1" d="M203.83,109.09H206v2.39h-2.15Zm0,4.72H206v12.5h-2.15Z"/><path class="cls-1" d="M55.84,137.89H58v17.22H55.84Z"/><path class="cls-1" d="M61.12,137.89h2.14v2.39H61.12Zm0,4.72h2.14v12.5H61.12Z"/><path class="cls-1" d="M67.49,142.55l3.35,10.22,3.49-10.22h2.31l-4.72,12.56H69.67L65,142.55Z"/><path class="cls-1" d="M79.7,151.17a3.16,3.16,0,0,0,.54,1.62,3.45,3.45,0,0,0,2.82,1,4.25,4.25,0,0,0,2.11-.51,1.66,1.66,0,0,0,.91-1.57,1.33,1.33,0,0,0-.73-1.23,9,9,0,0,0-1.83-.6l-1.7-.42a8.52,8.52,0,0,1-2.41-.89A2.66,2.66,0,0,1,78,146.21a3.57,3.57,0,0,1,1.3-2.88,5.21,5.21,0,0,1,3.5-1.1A4.88,4.88,0,0,1,87,143.89a3.55,3.55,0,0,1,.77,2.27h-2a2.42,2.42,0,0,0-.51-1.29,3.37,3.37,0,0,0-2.58-.83,3.11,3.11,0,0,0-1.86.46,1.4,1.4,0,0,0-.63,1.2A1.48,1.48,0,0,0,81,147a5,5,0,0,0,1.41.51l1.42.34a11.25,11.25,0,0,1,3.1,1.07,2.83,2.83,0,0,1,1.24,2.54,3.87,3.87,0,0,1-1.29,2.9A5.55,5.55,0,0,1,83,155.59c-1.89,0-3.23-.43-4-1.28a4.7,4.7,0,0,1-1.26-3.14Z"/><path class="cls-1" d="M90.51,137.89h2.11v17.22H90.51Z"/><path class="cls-1" d="M95.31,155.06l1.51-1.58a6.92,6.92,0,0,1-.91-1.94,9.17,9.17,0,0,1-.32-2.56,7.83,7.83,0,0,1,1.5-4.72,5,5,0,0,1,4.35-2.07,6,6,0,0,1,2.6.53,7.42,7.42,0,0,1,1.51,1l1.49-1.65.61.59-1.5,1.68a7.22,7.22,0,0,1,1.06,2.47,8.65,8.65,0,0,1,.2,1.81,7.46,7.46,0,0,1-1.65,5,5.4,5.4,0,0,1-4.37,2,6.68,6.68,0,0,1-2.32-.38,4.28,4.28,0,0,1-1.64-1L96,155.67Zm7.84-10.68a3.93,3.93,0,0,0-1.63-.34,3.26,3.26,0,0,0-2.76,1.43,6.08,6.08,0,0,0-1,3.67,7.18,7.18,0,0,0,.18,1.62,9.73,9.73,0,0,0,.36,1.1l6-6.65A2.53,2.53,0,0,0,103.15,144.38Zm-3.09,9.13a4.08,4.08,0,0,0,1.37.24,3.24,3.24,0,0,0,3.18-2.09,6.92,6.92,0,0,0,.57-2.88A8,8,0,0,0,105,147a6.31,6.31,0,0,0-.32-1l-5.88,6.62A3,3,0,0,0,100.06,153.51Z"/><path class="cls-1" d="M110.27,142.61h2.06v1.67a5.12,5.12,0,0,1,1.39-1.33,4.45,4.45,0,0,1,2.51-.7,4.71,4.71,0,0,1,3.63,1.63,6.72,6.72,0,0,1,1.49,4.67q0,4.11-2.15,5.86a4.85,4.85,0,0,1-3.18,1.12,4.38,4.38,0,0,1-2.39-.62,5.72,5.72,0,0,1-1.25-1.21v6.41h-2.11Zm7.93,9.84a5.84,5.84,0,0,0,1-3.7,6.81,6.81,0,0,0-.43-2.57,3.19,3.19,0,0,0-6,.11,8.68,8.68,0,0,0-.44,3,6.27,6.27,0,0,0,.44,2.47,3.19,3.19,0,0,0,5.47.71Z"/><path class="cls-1" d="M125,151.17a3.16,3.16,0,0,0,.54,1.62,3.45,3.45,0,0,0,2.82,1,4.25,4.25,0,0,0,2.11-.51,1.66,1.66,0,0,0,.91-1.57,1.33,1.33,0,0,0-.73-1.23,9,9,0,0,0-1.83-.6l-1.7-.42a8.52,8.52,0,0,1-2.41-.89,2.66,2.66,0,0,1-1.38-2.37,3.57,3.57,0,0,1,1.3-2.88,5.21,5.21,0,0,1,3.5-1.1,4.88,4.88,0,0,1,4.14,1.66,3.55,3.55,0,0,1,.77,2.27h-2a2.42,2.42,0,0,0-.51-1.29A3.37,3.37,0,0,0,128,144a3.11,3.11,0,0,0-1.86.46,1.4,1.4,0,0,0-.63,1.2,1.48,1.48,0,0,0,.83,1.31,5,5,0,0,0,1.41.51l1.42.34a11.25,11.25,0,0,1,3.1,1.07,2.83,2.83,0,0,1,1.23,2.54,3.86,3.86,0,0,1-1.28,2.9,5.55,5.55,0,0,1-3.92,1.22c-1.89,0-3.23-.43-4-1.28a4.7,4.7,0,0,1-1.26-3.14Z"/><path class="cls-1" d="M135.61,142.61h2.07v1.67a5.23,5.23,0,0,1,1.38-1.33,4.48,4.48,0,0,1,2.52-.7,4.74,4.74,0,0,1,3.63,1.63,6.72,6.72,0,0,1,1.49,4.67q0,4.11-2.15,5.86a4.85,4.85,0,0,1-3.18,1.12,4.38,4.38,0,0,1-2.39-.62,6,6,0,0,1-1.26-1.21v6.41h-2.11Zm7.94,9.84a5.84,5.84,0,0,0,1-3.7,6.81,6.81,0,0,0-.43-2.57,3.19,3.19,0,0,0-6,.11,8.68,8.68,0,0,0-.44,3,6.27,6.27,0,0,0,.44,2.47,3.19,3.19,0,0,0,5.47.71Z"/><path class="cls-1" d="M156.89,142.9a4.84,4.84,0,0,1,1.9,1.62,5.64,5.64,0,0,1,.84,2.22,15.07,15.07,0,0,1,.18,2.76h-9.13a5.43,5.43,0,0,0,.9,3.08,3,3,0,0,0,2.59,1.15,3.32,3.32,0,0,0,2.62-1.09,3.7,3.7,0,0,0,.77-1.47h2.08a4.5,4.5,0,0,1-.55,1.54,5.52,5.52,0,0,1-1,1.39,4.92,4.92,0,0,1-2.36,1.26,6.88,6.88,0,0,1-1.71.19,5.27,5.27,0,0,1-4-1.7,6.67,6.67,0,0,1-1.62-4.78,7.27,7.27,0,0,1,1.63-4.91,5.37,5.37,0,0,1,4.27-1.89A5.64,5.64,0,0,1,156.89,142.9Zm.76,4.93a5.5,5.5,0,0,0-.6-2.19,3,3,0,0,0-2.87-1.53,3.15,3.15,0,0,0-2.41,1,4,4,0,0,0-1,2.67Z"/><path class="cls-1" d="M162.54,142.55h2v2.17a4.76,4.76,0,0,1,1.2-1.54,3.18,3.18,0,0,1,2.22-.91l.2,0,.48,0v2.23l-.35-.05H168a3,3,0,0,0-2.45,1,3.58,3.58,0,0,0-.86,2.36v7.22h-2.11Z"/><path class="cls-1" d="M171.73,151.17a3,3,0,0,0,.54,1.62,3.44,3.44,0,0,0,2.82,1,4.25,4.25,0,0,0,2.11-.51,1.68,1.68,0,0,0,.91-1.57,1.35,1.35,0,0,0-.73-1.23,9,9,0,0,0-1.83-.6l-1.71-.42a8.32,8.32,0,0,1-2.4-.89,2.66,2.66,0,0,1-1.38-2.37,3.57,3.57,0,0,1,1.3-2.88,5.18,5.18,0,0,1,3.49-1.1,4.89,4.89,0,0,1,4.15,1.66,3.55,3.55,0,0,1,.77,2.27h-2a2.35,2.35,0,0,0-.52-1.29,3.34,3.34,0,0,0-2.58-.83,3.1,3.1,0,0,0-1.85.46,1.4,1.4,0,0,0-.63,1.2A1.48,1.48,0,0,0,173,147a5,5,0,0,0,1.41.51l1.42.34a11.25,11.25,0,0,1,3.1,1.07,2.83,2.83,0,0,1,1.23,2.54,3.87,3.87,0,0,1-1.29,2.9,5.51,5.51,0,0,1-3.92,1.22c-1.89,0-3.23-.43-4-1.28a4.76,4.76,0,0,1-1.27-3.14Z"/><path class="cls-1" d="M182.3,142.61h2.06v1.67a5.42,5.42,0,0,1,1.39-1.33,4.45,4.45,0,0,1,2.51-.7,4.75,4.75,0,0,1,3.64,1.63,6.72,6.72,0,0,1,1.49,4.67q0,4.11-2.16,5.86a4.8,4.8,0,0,1-3.17,1.12,4.36,4.36,0,0,1-2.39-.62,5.52,5.52,0,0,1-1.26-1.21v6.41H182.3Zm7.94,9.84a5.9,5.9,0,0,0,1-3.7,6.61,6.61,0,0,0-.44-2.57,3.19,3.19,0,0,0-6,.11,8.7,8.7,0,0,0-.43,3,6.28,6.28,0,0,0,.43,2.47,3.2,3.2,0,0,0,5.48.71Z"/><path class="cls-1" d="M203.58,142.9a4.84,4.84,0,0,1,1.9,1.62,5.63,5.63,0,0,1,.83,2.22,14,14,0,0,1,.19,2.76h-9.13a5.43,5.43,0,0,0,.9,3.08,3,3,0,0,0,2.59,1.15,3.34,3.34,0,0,0,2.62-1.09,3.7,3.7,0,0,0,.77-1.47h2.08a4.5,4.5,0,0,1-.55,1.54,5.52,5.52,0,0,1-1,1.39,5,5,0,0,1-2.36,1.26,6.94,6.94,0,0,1-1.71.19,5.25,5.25,0,0,1-4-1.7,6.67,6.67,0,0,1-1.62-4.78,7.22,7.22,0,0,1,1.63-4.91,5.37,5.37,0,0,1,4.26-1.89A5.65,5.65,0,0,1,203.58,142.9Zm.75,4.93a5.35,5.35,0,0,0-.59-2.19,3,3,0,0,0-2.87-1.53,3.17,3.17,0,0,0-2.42,1,4,4,0,0,0-1,2.67Z"/><path class="cls-1" d="M209.13,137.89h2v10l5.41-5.34h2.7l-4.83,4.67,5.1,7.89h-2.7l-3.94-6.39-1.74,1.67v4.72h-2Z"/><path class="cls-1" d="M221.59,139.05h2.14v3.5h2v1.73h-2v8.19a.9.9,0,0,0,.44.88,2,2,0,0,0,.82.13h.33l.41,0v1.68a4.53,4.53,0,0,1-.75.15,7.69,7.69,0,0,1-.85,0,2.3,2.3,0,0,1-2-.75,3.38,3.38,0,0,1-.53-2v-8.31H219.9v-1.73h1.69Z"/><path class="cls-1" d="M227.84,137.89H230v2.39h-2.15Zm0,4.72H230v12.5h-2.15Z"/><path class="cls-1" d="M234.21,142.55l3.35,10.22,3.49-10.22h2.31l-4.72,12.56h-2.25l-4.63-12.56Z"/><path class="cls-1" d="M67.21,176.14h5.88v2.16H67.21Z"/><path class="cls-1" d="M89.15,176.31a1.13,1.13,0,0,0,1-.61,1.79,1.79,0,0,0,.14-.81,1.73,1.73,0,0,0-.76-1.57,4.17,4.17,0,0,0-2.2-.49,2.77,2.77,0,0,0-2.34.9,3.05,3.05,0,0,0-.5,1.47h-2A3.64,3.64,0,0,1,84,172a6.12,6.12,0,0,1,3.35-.91,6.81,6.81,0,0,1,3.59.84,2.86,2.86,0,0,1,1.37,2.63v7.23a.92.92,0,0,0,.14.53.66.66,0,0,0,.57.2l.31,0,.38-.05V184a4.77,4.77,0,0,1-.75.18,6.07,6.07,0,0,1-.71,0,1.74,1.74,0,0,1-1.58-.78,3,3,0,0,1-.36-1.16,5.52,5.52,0,0,1-1.85,1.47,5.79,5.79,0,0,1-2.66.62,4,4,0,0,1-2.86-1.06,3.55,3.55,0,0,1-1.1-2.65,3.42,3.42,0,0,1,1.09-2.71,5.18,5.18,0,0,1,2.86-1.18ZM84.71,182a2.47,2.47,0,0,0,1.58.53,4.9,4.9,0,0,0,2.16-.52,2.89,2.89,0,0,0,1.75-2.8v-1.69a3.55,3.55,0,0,1-1,.41,7.55,7.55,0,0,1-1.19.23l-1.28.17a4.83,4.83,0,0,0-1.72.48,1.86,1.86,0,0,0-1,1.75A1.72,1.72,0,0,0,84.71,182Z"/><path class="cls-1" d="M95.83,166.69h2.11v17.22H95.83Z"/><path class="cls-1" d="M101.16,166.69h2.11v17.22h-2.11Z"/><path class="cls-1" d="M106.86,167.85H109v3.51h2v1.72h-2v8.19a.9.9,0,0,0,.44.88,2,2,0,0,0,.82.13h.33l.41,0v1.68a4.53,4.53,0,0,1-.75.15,7.48,7.48,0,0,1-.85.05,2.32,2.32,0,0,1-2-.76,3.36,3.36,0,0,1-.52-2v-8.31h-1.7v-1.72h1.7Z"/><path class="cls-1" d="M113.1,166.69h2.15v2.39H113.1Zm0,4.72h2.15v12.5H113.1Z"/><path class="cls-1" d="M125.33,171.74A5.9,5.9,0,0,1,126.6,173v-6.34h2v17.28h-1.9v-1.75a4.63,4.63,0,0,1-1.74,1.68,5,5,0,0,1-2.3.51,4.67,4.67,0,0,1-3.62-1.76,6.92,6.92,0,0,1-1.53-4.7,8.14,8.14,0,0,1,1.4-4.75,4.56,4.56,0,0,1,4-2A4.51,4.51,0,0,1,125.33,171.74Zm-4.71,9.41a3,3,0,0,0,2.73,1.36,2.88,2.88,0,0,0,2.4-1.26,6,6,0,0,0,.93-3.61,5.38,5.38,0,0,0-1-3.52,3,3,0,0,0-2.39-1.15,3.14,3.14,0,0,0-2.57,1.22,5.59,5.59,0,0,0-1,3.59A6.2,6.2,0,0,0,120.62,181.15Z"/><path class="cls-1" d="M147.54,172.61a6.33,6.33,0,0,1,1.67,4.75,8.18,8.18,0,0,1-1.47,5,5.29,5.29,0,0,1-4.55,2,5.11,5.11,0,0,1-4.08-1.75,6.93,6.93,0,0,1-1.52-4.7,7.49,7.49,0,0,1,1.6-5,5.33,5.33,0,0,1,4.28-1.88A5.6,5.6,0,0,1,147.54,172.61ZM146.23,181a7.88,7.88,0,0,0,.77-3.53,6.39,6.39,0,0,0-.55-2.86,3.14,3.14,0,0,0-3-1.73,3,3,0,0,0-2.78,1.48,6.88,6.88,0,0,0-.87,3.56,6,6,0,0,0,.87,3.33,3.06,3.06,0,0,0,2.76,1.34A2.86,2.86,0,0,0,146.23,181Z"/><path class="cls-1" d="M151.62,171.41h2.06v1.67a5.42,5.42,0,0,1,1.39-1.33,4.53,4.53,0,0,1,2.51-.7,4.76,4.76,0,0,1,3.64,1.64,6.7,6.7,0,0,1,1.49,4.67q0,4.09-2.16,5.85a4.82,4.82,0,0,1-3.17,1.12,4.36,4.36,0,0,1-2.39-.62,5.52,5.52,0,0,1-1.26-1.21v6.41h-2.11Zm7.94,9.84a5.88,5.88,0,0,0,1-3.7,6.84,6.84,0,0,0-.44-2.57,3.19,3.19,0,0,0-6,.11,8.74,8.74,0,0,0-.43,3,6.28,6.28,0,0,0,.43,2.47,3.2,3.2,0,0,0,5.48.71Z"/><path class="cls-1" d="M165,171.41H167v1.67a5.42,5.42,0,0,1,1.39-1.33,4.53,4.53,0,0,1,2.51-.7,4.72,4.72,0,0,1,3.63,1.64,6.65,6.65,0,0,1,1.5,4.67q0,4.09-2.16,5.85a4.84,4.84,0,0,1-3.17,1.12,4.36,4.36,0,0,1-2.39-.62,5.52,5.52,0,0,1-1.26-1.21v6.41H165Zm7.94,9.84a5.88,5.88,0,0,0,1-3.7,6.84,6.84,0,0,0-.44-2.57,3.19,3.19,0,0,0-6,.11,8.74,8.74,0,0,0-.43,3,6.28,6.28,0,0,0,.43,2.47,3.2,3.2,0,0,0,5.48.71Z"/><path class="cls-1" d="M185.39,171.74a5.9,5.9,0,0,1,1.27,1.23v-6.34h2v17.28h-1.9v-1.75a4.63,4.63,0,0,1-1.74,1.68,5,5,0,0,1-2.3.51,4.67,4.67,0,0,1-3.62-1.76,6.92,6.92,0,0,1-1.53-4.7,8.14,8.14,0,0,1,1.4-4.75,4.56,4.56,0,0,1,4-2A4.51,4.51,0,0,1,185.39,171.74Zm-4.71,9.41a3,3,0,0,0,2.73,1.36,2.85,2.85,0,0,0,2.39-1.26,5.93,5.93,0,0,0,.94-3.61,5.38,5.38,0,0,0-1-3.52,3,3,0,0,0-2.4-1.15,3.17,3.17,0,0,0-2.57,1.22,5.65,5.65,0,0,0-1,3.59A6.2,6.2,0,0,0,180.68,181.15Z"/><path class="cls-1" d="M198.57,176.31a1.13,1.13,0,0,0,1-.61,1.93,1.93,0,0,0,.14-.81,1.75,1.75,0,0,0-.76-1.57,4.19,4.19,0,0,0-2.2-.49,2.77,2.77,0,0,0-2.34.9,3.05,3.05,0,0,0-.5,1.47h-2a3.64,3.64,0,0,1,1.51-3.24,6.12,6.12,0,0,1,3.35-.91,6.84,6.84,0,0,1,3.59.84,2.86,2.86,0,0,1,1.37,2.63v7.23a.92.92,0,0,0,.14.53.65.65,0,0,0,.56.2l.32,0,.38-.05V184a4.77,4.77,0,0,1-.75.18,6.22,6.22,0,0,1-.71,0,1.74,1.74,0,0,1-1.58-.78,3,3,0,0,1-.36-1.16,5.52,5.52,0,0,1-1.85,1.47,5.82,5.82,0,0,1-2.66.62,4,4,0,0,1-2.86-1.06,3.52,3.52,0,0,1-1.11-2.65,3.45,3.45,0,0,1,1.09-2.71,5.21,5.21,0,0,1,2.86-1.18Zm-4.44,5.7a2.47,2.47,0,0,0,1.58.53,4.83,4.83,0,0,0,2.15-.52,2.89,2.89,0,0,0,1.76-2.8v-1.69a3.83,3.83,0,0,1-1,.41,7.45,7.45,0,0,1-1.2.23l-1.27.17a4.83,4.83,0,0,0-1.72.48,1.84,1.84,0,0,0-1,1.75A1.72,1.72,0,0,0,194.13,182Z"/><path class="cls-1" d="M205.61,167.85h2.13v3.51h2v1.72h-2v8.19a.88.88,0,0,0,.45.88,2,2,0,0,0,.82.13h.33l.41,0v1.68a4.87,4.87,0,0,1-.76.15,7.34,7.34,0,0,1-.85.05,2.3,2.3,0,0,1-2-.76,3.36,3.36,0,0,1-.53-2v-8.31h-1.7v-1.72h1.7Z"/><path class="cls-1" d="M219.61,171.7a4.84,4.84,0,0,1,1.9,1.62,5.7,5.7,0,0,1,.84,2.22,15.07,15.07,0,0,1,.18,2.76H213.4a5.43,5.43,0,0,0,.9,3.08,3,3,0,0,0,2.59,1.16,3.35,3.35,0,0,0,2.62-1.1,3.7,3.7,0,0,0,.77-1.47h2.08a4.5,4.5,0,0,1-.55,1.54,5.52,5.52,0,0,1-1,1.39,4.84,4.84,0,0,1-2.36,1.26,6.94,6.94,0,0,1-1.71.19,5.27,5.27,0,0,1-4-1.7,6.67,6.67,0,0,1-1.62-4.78,7.24,7.24,0,0,1,1.63-4.91,5.37,5.37,0,0,1,4.27-1.89A5.64,5.64,0,0,1,219.61,171.7Zm.75,4.93a5.35,5.35,0,0,0-.59-2.19,3,3,0,0,0-2.87-1.53,3.17,3.17,0,0,0-2.42,1.05,4,4,0,0,0-1,2.67Z"/><path class="cls-1" d="M225.26,171.36h2v2.16a4.76,4.76,0,0,1,1.2-1.54,3.16,3.16,0,0,1,2.22-.91l.2,0,.48,0v2.23l-.35-.05h-.34a3,3,0,0,0-2.45,1,3.58,3.58,0,0,0-.86,2.36v7.22h-2.11Z"/><path class="cls-1" d="M233.62,167.85h2.13v3.51h2v1.72h-2v8.19a.88.88,0,0,0,.45.88,2,2,0,0,0,.82.13h.32l.41,0v1.68a4.53,4.53,0,0,1-.75.15,7.48,7.48,0,0,1-.85.05,2.3,2.3,0,0,1-2-.76,3.29,3.29,0,0,1-.53-2v-8.31h-1.7v-1.72h1.7Z"/></svg>