<svg id="Layer_1" data-name="Layer 1" xmlns="http://www.w3.org/2000/svg" viewBox="0 0 300 250"><defs><style>.cls-1{fill:#010121;}</style></defs><title>text</title><path class="cls-1" d="M79.88,92.79h2.36V110H79.88Z"/><path class="cls-1" d="M98.54,92.79v2h-5.8V110H90.38V94.84h-5.8v-2Z"/><path class="cls-1" d="M106.71,92.79h2.1V110h-2.1Z"/><path class="cls-1" d="M111.51,110l1.5-1.57a7,7,0,0,1-.9-1.95,9.15,9.15,0,0,1-.32-2.55,7.92,7.92,0,0,1,1.49-4.73,5.06,5.06,0,0,1,4.35-2.06,6,6,0,0,1,2.61.53,7.18,7.18,0,0,1,1.51,1L123.24,97l.61.6-1.51,1.68a7,7,0,0,1,1.06,2.47,7.88,7.88,0,0,1,.2,1.8,7.48,7.48,0,0,1-1.64,5,5.43,5.43,0,0,1-4.38,2,6.62,6.62,0,0,1-2.31-.38,4.39,4.39,0,0,1-1.65-1l-1.42,1.49Zm7.84-10.67a3.78,3.78,0,0,0-1.63-.34,3.24,3.24,0,0,0-2.76,1.42,6.11,6.11,0,0,0-1,3.67,7.18,7.18,0,0,0,.18,1.62c.08.29.2.66.37,1.1l6-6.65A2.51,2.51,0,0,0,119.35,99.28Zm-3.09,9.13a4.33,4.33,0,0,0,1.37.23,3.24,3.24,0,0,0,3.18-2.09,6.85,6.85,0,0,0,.57-2.88,7.9,7.9,0,0,0-.18-1.81,6.19,6.19,0,0,0-.33-1L115,107.51A3,3,0,0,0,116.26,108.41Z"/><path class="cls-1" d="M127.89,106.06a3.13,3.13,0,0,0,.54,1.62,3.41,3.41,0,0,0,2.82,1,4.25,4.25,0,0,0,2.11-.51,1.7,1.7,0,0,0,.91-1.58,1.33,1.33,0,0,0-.73-1.23,8.58,8.58,0,0,0-1.83-.59l-1.71-.43a8.15,8.15,0,0,1-2.4-.89,2.65,2.65,0,0,1-1.38-2.36,3.61,3.61,0,0,1,1.3-2.89,5.23,5.23,0,0,1,3.49-1.1,4.9,4.9,0,0,1,4.15,1.67,3.55,3.55,0,0,1,.77,2.27h-2a2.29,2.29,0,0,0-.52-1.29,3.3,3.3,0,0,0-2.58-.83,3.18,3.18,0,0,0-1.85.45,1.43,1.43,0,0,0-.63,1.21,1.47,1.47,0,0,0,.83,1.3,4.94,4.94,0,0,0,1.41.52l1.42.34a11.33,11.33,0,0,1,3.1,1.06,2.83,2.83,0,0,1,1.23,2.55,3.87,3.87,0,0,1-1.28,2.89,5.55,5.55,0,0,1-3.92,1.22c-1.9,0-3.23-.42-4-1.27a4.75,4.75,0,0,1-1.26-3.15Z"/><path class="cls-1" d="M138.64,97.45h2v1.78a5.77,5.77,0,0,1,1.89-1.58,5,5,0,0,1,2.21-.48c1.79,0,3,.62,3.61,1.86a6.52,6.52,0,0,1,.52,2.92v8h-2.15v-7.91a4.22,4.22,0,0,0-.34-1.85,2,2,0,0,0-2-1.17,4.21,4.21,0,0,0-1.23.15,3.14,3.14,0,0,0-1.53,1,3,3,0,0,0-.68,1.28,8.41,8.41,0,0,0-.16,1.9V110h-2.11Z"/><path class="cls-1" d="M152,92.79h2.14v2.39H152Zm0,4.72h2.14V110H152Z"/><path class="cls-1" d="M157.32,97.45h2v1.78a5.67,5.67,0,0,1,1.89-1.58,5,5,0,0,1,2.21-.48c1.79,0,3,.62,3.61,1.86a6.52,6.52,0,0,1,.52,2.92v8H165.4v-7.91a4.22,4.22,0,0,0-.34-1.85,2,2,0,0,0-2-1.17,4.33,4.33,0,0,0-1.24.15,3.16,3.16,0,0,0-1.52,1,3,3,0,0,0-.68,1.28,8.41,8.41,0,0,0-.16,1.9V110h-2.11Z"/><path class="cls-1" d="M177.64,98a5.94,5.94,0,0,1,1.22,1.2V97.57h1.94V109a8.39,8.39,0,0,1-.7,3.77q-1.31,2.56-4.94,2.56a6,6,0,0,1-3.4-.91,3.54,3.54,0,0,1-1.54-2.84h2.15a2.43,2.43,0,0,0,.6,1.3,3.09,3.09,0,0,0,2.24.7c1.61,0,2.66-.57,3.16-1.71a9.86,9.86,0,0,0,.41-3.6,4.13,4.13,0,0,1-1.52,1.43,5.43,5.43,0,0,1-5.9-1q-1.53-1.45-1.53-4.79A7.29,7.29,0,0,1,171.37,99a4.74,4.74,0,0,1,3.71-1.77A4.55,4.55,0,0,1,177.64,98Zm.26,2.26a3.06,3.06,0,0,0-2.44-1.12,3,3,0,0,0-3,2.09,8.35,8.35,0,0,0-.43,2.91,5.2,5.2,0,0,0,.86,3.23,2.76,2.76,0,0,0,2.3,1.11,3.22,3.22,0,0,0,3.18-2.05,6.52,6.52,0,0,0,.52-2.71A5.25,5.25,0,0,0,177.9,100.21Z"/><path class="cls-1" d="M191.77,97.79a4.69,4.69,0,0,1,1.89,1.63,5.6,5.6,0,0,1,.84,2.21,14.07,14.07,0,0,1,.19,2.77h-9.13a5.4,5.4,0,0,0,.9,3.07,3,3,0,0,0,2.59,1.16,3.36,3.36,0,0,0,2.62-1.1,3.7,3.7,0,0,0,.77-1.47h2.07a4.19,4.19,0,0,1-.54,1.54,5.52,5.52,0,0,1-1,1.39,4.9,4.9,0,0,1-2.36,1.27,7.46,7.46,0,0,1-1.71.19,5.22,5.22,0,0,1-4-1.71A6.67,6.67,0,0,1,183.3,104a7.24,7.24,0,0,1,1.63-4.91,5.39,5.39,0,0,1,4.26-1.88A5.76,5.76,0,0,1,191.77,97.79Zm.75,4.93a5.44,5.44,0,0,0-.59-2.19A3,3,0,0,0,189.06,99a3.17,3.17,0,0,0-2.42,1,4,4,0,0,0-1,2.66Z"/><path class="cls-1" d="M197.42,97.45h2v2.17a4.86,4.86,0,0,1,1.21-1.54,3.12,3.12,0,0,1,2.22-.91H203l.49,0v2.22a2.35,2.35,0,0,0-.35,0l-.35,0a3,3,0,0,0-2.45,1,3.57,3.57,0,0,0-.85,2.36V110h-2.11Z"/><path class="cls-1" d="M64.11,134.86a3.13,3.13,0,0,0,.54,1.62,3.41,3.41,0,0,0,2.82,1,4.25,4.25,0,0,0,2.11-.51,1.69,1.69,0,0,0,.91-1.58,1.33,1.33,0,0,0-.73-1.23,9,9,0,0,0-1.83-.6l-1.71-.42a8.15,8.15,0,0,1-2.4-.89,2.65,2.65,0,0,1-1.38-2.36,3.61,3.61,0,0,1,1.3-2.89,5.24,5.24,0,0,1,3.5-1.1,4.91,4.91,0,0,1,4.14,1.66,3.59,3.59,0,0,1,.77,2.28h-2a2.35,2.35,0,0,0-.52-1.3,3.34,3.34,0,0,0-2.58-.82,3.18,3.18,0,0,0-1.85.45,1.43,1.43,0,0,0-.63,1.21,1.47,1.47,0,0,0,.83,1.3,4.94,4.94,0,0,0,1.41.52l1.42.34a11,11,0,0,1,3.1,1.06,2.83,2.83,0,0,1,1.23,2.55,3.84,3.84,0,0,1-1.28,2.89,5.55,5.55,0,0,1-3.92,1.22c-1.89,0-3.23-.42-4-1.27a4.75,4.75,0,0,1-1.26-3.15Z"/><path class="cls-1" d="M84,127.5a6.33,6.33,0,0,1,1.67,4.75,8.19,8.19,0,0,1-1.47,5,5.29,5.29,0,0,1-4.55,2,5.1,5.1,0,0,1-4.08-1.76,6.92,6.92,0,0,1-1.52-4.7,7.53,7.53,0,0,1,1.6-5,5.32,5.32,0,0,1,4.28-1.87A5.6,5.6,0,0,1,84,127.5Zm-1.31,8.34a7.85,7.85,0,0,0,.77-3.53,6.32,6.32,0,0,0-.55-2.85,3.12,3.12,0,0,0-3-1.73A3,3,0,0,0,77,129.2a6.88,6.88,0,0,0-.87,3.56,6,6,0,0,0,.87,3.33,3.06,3.06,0,0,0,2.76,1.34A2.86,2.86,0,0,0,82.64,135.84Z"/><path class="cls-1" d="M88.21,126.25h2.08V128a7.09,7.09,0,0,1,1.36-1.35A4.16,4.16,0,0,1,94,126a3.33,3.33,0,0,1,3.35,2,4.32,4.32,0,0,1,3.79-2,3.49,3.49,0,0,1,3.44,1.83,5.89,5.89,0,0,1,.49,2.64v8.36H102.9v-8.72a2.05,2.05,0,0,0-.62-1.72,2.51,2.51,0,0,0-1.53-.47,3.06,3.06,0,0,0-2.14.83,3.65,3.65,0,0,0-.9,2.78v7.3H95.57v-8.19a4.28,4.28,0,0,0-.31-1.86,1.85,1.85,0,0,0-1.79-.88,3.1,3.1,0,0,0-2.18.92,4.56,4.56,0,0,0-1,3.35v6.66H88.21Z"/><path class="cls-1" d="M114.69,121.53h2v6.24a4.71,4.71,0,0,1,1.66-1.37,4.63,4.63,0,0,1,2.1-.48,4.92,4.92,0,0,1,3.81,1.61,6.84,6.84,0,0,1,1.47,4.75,8.16,8.16,0,0,1-1.45,4.95,4.7,4.7,0,0,1-4,2,4.09,4.09,0,0,1-2.42-.69,5.55,5.55,0,0,1-1.26-1.32v1.61h-2ZM122.76,136a6.7,6.7,0,0,0,.85-3.59,5.86,5.86,0,0,0-.85-3.28,2.81,2.81,0,0,0-2.51-1.3,3.52,3.52,0,0,0-2.54,1.06,4.81,4.81,0,0,0-1.08,3.52,7.69,7.69,0,0,0,.44,2.87,3.1,3.1,0,0,0,3.12,2.07A2.84,2.84,0,0,0,122.76,136Z"/><path class="cls-1" d="M128.27,121.58h2.11V138.8h-2.11Z"/><path class="cls-1" d="M133.55,121.58h2.14V124h-2.14Zm0,4.73h2.14V138.8h-2.14Z"/><path class="cls-1" d="M138.94,126.25h2v2.17a4.86,4.86,0,0,1,1.21-1.54,3.11,3.11,0,0,1,2.21-.91h.2l.48,0v2.22a2.23,2.23,0,0,0-.34,0l-.35,0a3,3,0,0,0-2.45,1,3.57,3.57,0,0,0-.85,2.36v7.22h-2.11Z"/><path class="cls-1" d="M160.43,126.64a5.46,5.46,0,0,1,1.28,1.23v-6.34h2V138.8h-1.89v-1.75a4.49,4.49,0,0,1-1.74,1.68,5,5,0,0,1-2.3.52,4.64,4.64,0,0,1-3.62-1.77,6.9,6.9,0,0,1-1.53-4.69A8.11,8.11,0,0,1,154,128a4.56,4.56,0,0,1,4-2A4.37,4.37,0,0,1,160.43,126.64Zm-4.7,9.41a3,3,0,0,0,2.73,1.36,2.87,2.87,0,0,0,2.39-1.26,6,6,0,0,0,.94-3.62,5.32,5.32,0,0,0-1-3.52,3,3,0,0,0-2.39-1.14,3.15,3.15,0,0,0-2.57,1.21,5.61,5.61,0,0,0-1,3.59A6.26,6.26,0,0,0,155.73,136.05Z"/><path class="cls-1" d="M174.73,126.25h2.33l-2,5.51q-1.14,3.24-1.92,5.28a35.77,35.77,0,0,1-2.57,5.85,3,3,0,0,1-2.58,1.05,5.77,5.77,0,0,1-.68,0,5.61,5.61,0,0,1-.6-.13v-1.92c.37.1.64.16.8.19l.43,0a1.5,1.5,0,0,0,.86-.19,1.79,1.79,0,0,0,.47-.48l.42-.95c.24-.58.41-1,.52-1.29l-4.64-12.92H168l3.37,10.22Z"/><path class="cls-1" d="M179,126.25h2v2.17a4.72,4.72,0,0,1,1.21-1.54,3.11,3.11,0,0,1,2.21-.91h.2l.48,0v2.22a2.23,2.23,0,0,0-.34,0l-.35,0a3,3,0,0,0-2.45,1,3.58,3.58,0,0,0-.86,2.36v7.22H179Z"/><path class="cls-1" d="M194.63,126.59a4.78,4.78,0,0,1,1.9,1.63,5.6,5.6,0,0,1,.84,2.21,15.12,15.12,0,0,1,.18,2.77h-9.12a5.34,5.34,0,0,0,.89,3.07,3,3,0,0,0,2.59,1.16,3.33,3.33,0,0,0,2.62-1.1,3.7,3.7,0,0,0,.77-1.47h2.08a4.43,4.43,0,0,1-.55,1.54,5.29,5.29,0,0,1-1,1.39,4.81,4.81,0,0,1-2.36,1.27,7.33,7.33,0,0,1-1.71.19,5.24,5.24,0,0,1-3.95-1.71,6.67,6.67,0,0,1-1.62-4.78,7.29,7.29,0,0,1,1.63-4.91,5.4,5.4,0,0,1,4.27-1.88A5.75,5.75,0,0,1,194.63,126.59Zm.76,4.93a5.6,5.6,0,0,0-.6-2.19,3,3,0,0,0-2.87-1.52,3.15,3.15,0,0,0-2.41,1.05,4,4,0,0,0-1,2.66Z"/><path class="cls-1" d="M200.29,126.25h2v2.17a4.72,4.72,0,0,1,1.21-1.54,3.11,3.11,0,0,1,2.21-.91h.2l.48,0v2.22a2.21,2.21,0,0,0-.35,0l-.34,0a3,3,0,0,0-2.45,1,3.58,3.58,0,0,0-.86,2.36v7.22h-2.1Z"/><path class="cls-1" d="M216,126.59a4.78,4.78,0,0,1,1.9,1.63,5.6,5.6,0,0,1,.84,2.21,15.12,15.12,0,0,1,.18,2.77h-9.12a5.34,5.34,0,0,0,.89,3.07,3,3,0,0,0,2.59,1.16,3.33,3.33,0,0,0,2.62-1.1,3.7,3.7,0,0,0,.77-1.47h2.08a4.43,4.43,0,0,1-.55,1.54,5.29,5.29,0,0,1-1,1.39,4.85,4.85,0,0,1-2.36,1.27,7.33,7.33,0,0,1-1.71.19,5.24,5.24,0,0,1-3.95-1.71,6.67,6.67,0,0,1-1.62-4.78,7.29,7.29,0,0,1,1.63-4.91A5.4,5.4,0,0,1,213.4,126,5.75,5.75,0,0,1,216,126.59Zm.76,4.93a5.6,5.6,0,0,0-.6-2.19,3,3,0,0,0-2.87-1.52,3.15,3.15,0,0,0-2.41,1.05,4,4,0,0,0-1,2.66Z"/><path class="cls-1" d="M81.23,155.39a4.65,4.65,0,0,1,1.9,1.63,5.6,5.6,0,0,1,.84,2.21,14.07,14.07,0,0,1,.19,2.77H75a5.47,5.47,0,0,0,.89,3.07,3,3,0,0,0,2.6,1.16,3.33,3.33,0,0,0,2.61-1.1,3.6,3.6,0,0,0,.78-1.47H84a4.19,4.19,0,0,1-.54,1.54,5.54,5.54,0,0,1-1,1.39A4.81,4.81,0,0,1,80,167.86a7.36,7.36,0,0,1-1.71.18,5.21,5.21,0,0,1-3.94-1.7,6.67,6.67,0,0,1-1.62-4.78,7.24,7.24,0,0,1,1.63-4.91,5.37,5.37,0,0,1,4.26-1.88A5.72,5.72,0,0,1,81.23,155.39Zm.76,4.93a5.61,5.61,0,0,0-.59-2.19,3,3,0,0,0-2.87-1.52,3.17,3.17,0,0,0-2.42,1,3.92,3.92,0,0,0-1,2.66Z"/><path class="cls-1" d="M86.83,155.05h2v1.78a5.77,5.77,0,0,1,1.89-1.58,5,5,0,0,1,2.22-.48q2.67,0,3.6,1.86a6.52,6.52,0,0,1,.52,2.92v8H94.92v-7.91a4.36,4.36,0,0,0-.34-1.85,2.07,2.07,0,0,0-2-1.17,4.21,4.21,0,0,0-1.23.15,3.14,3.14,0,0,0-1.53,1,3,3,0,0,0-.68,1.28,8.41,8.41,0,0,0-.16,1.9v6.57H86.83Z"/><path class="cls-1" d="M100.18,155.05h2v1.78a5.67,5.67,0,0,1,1.89-1.58,5,5,0,0,1,2.21-.48c1.78,0,3,.62,3.61,1.86a6.52,6.52,0,0,1,.52,2.92v8h-2.15v-7.91a4.22,4.22,0,0,0-.34-1.85,2.05,2.05,0,0,0-2-1.17,4.21,4.21,0,0,0-1.23.15,3.16,3.16,0,0,0-1.52,1,3,3,0,0,0-.68,1.28,8.41,8.41,0,0,0-.16,1.9v6.57h-2.11Z"/><path class="cls-1" d="M120,155.11h2.06v1.66a5.06,5.06,0,0,1,1.39-1.32,4.45,4.45,0,0,1,2.51-.71,4.72,4.72,0,0,1,3.63,1.64,6.67,6.67,0,0,1,1.49,4.67c0,2.73-.71,4.69-2.15,5.86a4.89,4.89,0,0,1-3.18,1.11,4.34,4.34,0,0,1-2.38-.62,5.31,5.31,0,0,1-1.26-1.21v6.41H120ZM128,165a5.85,5.85,0,0,0,1-3.7,6.89,6.89,0,0,0-.44-2.58,3.19,3.19,0,0,0-6,.12,8.62,8.62,0,0,0-.44,3,6.32,6.32,0,0,0,.44,2.48A3.21,3.21,0,0,0,128,165Z"/><path class="cls-1" d="M133.6,150.38h2.11V167.6H133.6Z"/><path class="cls-1" d="M145.6,160a1.14,1.14,0,0,0,1-.6,1.8,1.8,0,0,0,.14-.82A1.73,1.73,0,0,0,146,157a4.15,4.15,0,0,0-2.2-.48,2.75,2.75,0,0,0-2.33.89,3,3,0,0,0-.51,1.47h-2a3.61,3.61,0,0,1,1.51-3.23,6.12,6.12,0,0,1,3.35-.92,6.81,6.81,0,0,1,3.59.85,2.85,2.85,0,0,1,1.37,2.62v7.23a.92.92,0,0,0,.14.53.66.66,0,0,0,.57.2l.31,0,.38-.05v1.56a5.83,5.83,0,0,1-.75.17,4.39,4.39,0,0,1-.7,0,1.76,1.76,0,0,1-1.59-.77,3.05,3.05,0,0,1-.36-1.16,5.38,5.38,0,0,1-1.85,1.46,5.79,5.79,0,0,1-2.66.62,4,4,0,0,1-2.86-1.06,3.53,3.53,0,0,1-1.1-2.65,3.4,3.4,0,0,1,1.09-2.7,5.11,5.11,0,0,1,2.86-1.18Zm-4.44,5.7a2.47,2.47,0,0,0,1.58.53,4.77,4.77,0,0,0,2.16-.52,2.89,2.89,0,0,0,1.75-2.79v-1.7a3.28,3.28,0,0,1-1,.41,9,9,0,0,1-1.19.24l-1.28.16a4.83,4.83,0,0,0-1.72.48,1.87,1.87,0,0,0-1,1.75A1.72,1.72,0,0,0,141.16,165.7Z"/><path class="cls-1" d="M152.22,155.05h2v1.78a5.77,5.77,0,0,1,1.89-1.58,5.05,5.05,0,0,1,2.22-.48,3.66,3.66,0,0,1,3.61,1.86,6.68,6.68,0,0,1,.51,2.92v8h-2.14v-7.91a4.36,4.36,0,0,0-.34-1.85,2.07,2.07,0,0,0-2-1.17,4.21,4.21,0,0,0-1.23.15,3.14,3.14,0,0,0-1.53,1,3,3,0,0,0-.68,1.28,8.41,8.41,0,0,0-.16,1.9v6.57h-2.11Z"/><path class="cls-1" d="M165.63,150.38h2.11V167.6h-2.11Z"/><path class="cls-1" d="M177.63,160a1.14,1.14,0,0,0,1-.6,2,2,0,0,0,.14-.82A1.73,1.73,0,0,0,178,157a4.14,4.14,0,0,0-2.19-.48,2.77,2.77,0,0,0-2.34.89,3.05,3.05,0,0,0-.5,1.47h-2a3.63,3.63,0,0,1,1.5-3.23,6.18,6.18,0,0,1,3.36-.92,6.84,6.84,0,0,1,3.59.85,2.87,2.87,0,0,1,1.37,2.62v7.23a.92.92,0,0,0,.14.53.65.65,0,0,0,.56.2l.32,0,.38-.05v1.56a5.83,5.83,0,0,1-.75.17,4.53,4.53,0,0,1-.71,0,1.75,1.75,0,0,1-1.58-.77,3.05,3.05,0,0,1-.36-1.16,5.38,5.38,0,0,1-1.85,1.46,5.82,5.82,0,0,1-2.66.62,4,4,0,0,1-2.86-1.06,3.5,3.5,0,0,1-1.11-2.65,3.43,3.43,0,0,1,1.09-2.7,5.14,5.14,0,0,1,2.86-1.18Zm-4.44,5.7a2.47,2.47,0,0,0,1.58.53,4.7,4.7,0,0,0,2.15-.52,2.88,2.88,0,0,0,1.76-2.79v-1.7a3.51,3.51,0,0,1-1,.41,9.1,9.1,0,0,1-1.2.24l-1.27.16a4.83,4.83,0,0,0-1.72.48,1.85,1.85,0,0,0-1,1.75A1.72,1.72,0,0,0,173.19,165.7Z"/><path class="cls-1" d="M191.23,155.55a5.91,5.91,0,0,1,1.21,1.2v-1.58h1.94v11.41a8.39,8.39,0,0,1-.7,3.77c-.87,1.71-2.51,2.56-4.94,2.56a6,6,0,0,1-3.4-.91,3.57,3.57,0,0,1-1.54-2.84H186a2.43,2.43,0,0,0,.6,1.3,3.09,3.09,0,0,0,2.24.7c1.61,0,2.66-.57,3.16-1.71a9.64,9.64,0,0,0,.41-3.6,4.13,4.13,0,0,1-1.52,1.43,4.93,4.93,0,0,1-2.35.47,5,5,0,0,1-3.55-1.45c-1-1-1.52-2.56-1.52-4.78A7.28,7.28,0,0,1,185,156.6a4.74,4.74,0,0,1,3.71-1.77A4.6,4.6,0,0,1,191.23,155.55Zm.25,2.26a3,3,0,0,0-2.43-1.12,3,3,0,0,0-3,2.09,8.1,8.1,0,0,0-.44,2.91,5.2,5.2,0,0,0,.86,3.23,2.76,2.76,0,0,0,2.3,1.11,3.24,3.24,0,0,0,3.19-2.05,6.69,6.69,0,0,0,.51-2.71A5.25,5.25,0,0,0,191.48,157.81Z"/><path class="cls-1" d="M198,151.54h2.13v3.51h2v1.72h-2V165a.88.88,0,0,0,.45.88,1.8,1.8,0,0,0,.82.13h.32a3.32,3.32,0,0,0,.41,0v1.68a4.53,4.53,0,0,1-.75.15,7.48,7.48,0,0,1-.85.05,2.29,2.29,0,0,1-2-.76,3.36,3.36,0,0,1-.52-2v-8.31h-1.7v-1.72H198Z"/><path class="cls-1" d="M206,151.7a5.93,5.93,0,0,1,7.72-.22,4.41,4.41,0,0,1,1.41,3.37,3.62,3.62,0,0,1-.51,2,16,16,0,0,1-2.09,2.27A6.74,6.74,0,0,0,211,161a5.62,5.62,0,0,0-.35,2.24h-2.08a7.46,7.46,0,0,1,.4-2.7,6.93,6.93,0,0,1,1.77-2.35l1-.93a4,4,0,0,0,.69-.83,2.87,2.87,0,0,0,.49-1.58,3,3,0,0,0-.7-2,2.87,2.87,0,0,0-2.32-.84,2.84,2.84,0,0,0-2.76,1.45,5.52,5.52,0,0,0-.49,2.34h-2.09A5.75,5.75,0,0,1,206,151.7Zm2.55,13.46h2.33v2.44h-2.33Z"/></svg>