<svg id="Layer_1" data-name="Layer 1" xmlns="http://www.w3.org/2000/svg" viewBox="0 0 300 250"><defs><style>.cls-1{fill:#010121;}</style></defs><title>text</title><path class="cls-1" d="M110.16,78.37h1.2v7.51h9.16V78.37h1.2V95.51h-1.2V86.93h-9.16v8.58h-1.2Z"/><path class="cls-1" d="M125.75,92.4c0-2.78,2.5-4.1,8.06-4.71,0-1.92-.49-4-2.95-4a6.84,6.84,0,0,0-4,1.46l-.53-.85A8.38,8.38,0,0,1,131,82.71c3,0,4,2.15,4,4.82v8h-1l-.12-1.63h-.06a7.34,7.34,0,0,1-4.43,1.94C127.4,95.82,125.75,94.74,125.75,92.4Zm8.06.41V88.56c-5.13.6-6.88,1.79-6.88,3.78a2.34,2.34,0,0,0,2.64,2.48C131,94.82,132.26,94.13,133.81,92.81Z"/><path class="cls-1" d="M139.41,83h1l.13,2.33h.06c.84-1.53,2.06-2.64,3.55-2.64a2.66,2.66,0,0,1,1.24.26l-.26,1A2.84,2.84,0,0,0,144,83.8c-1.13,0-2.46.85-3.41,3.21v8.5h-1.15Z"/><path class="cls-1" d="M151.81,89.29c0-4,2.56-6.58,5.54-6.58a5.74,5.74,0,0,1,3.77,1.53L161.05,82V76.8h1.15V95.51h-1l-.12-1.62h-.06A5.88,5.88,0,0,1,157,95.82C153.85,95.82,151.81,93.5,151.81,89.29Zm9.24,3.45V85.33a5.21,5.21,0,0,0-3.63-1.6c-2.49,0-4.4,2.42-4.4,5.55,0,3.32,1.48,5.52,4.12,5.52A5.53,5.53,0,0,0,161.05,92.74Z"/><path class="cls-1" d="M166,89.29c0-4.08,2.64-6.58,5.44-6.58,3,0,4.78,2.1,4.78,5.78a5.81,5.81,0,0,1-.06.93h-9c0,3.15,1.89,5.4,4.7,5.4a5.6,5.6,0,0,0,3.35-1.1l.48.87a6.89,6.89,0,0,1-3.94,1.23C168.53,95.82,166,93.37,166,89.29Zm9.14-.81c0-3.19-1.45-4.78-3.69-4.78s-4,1.79-4.28,4.78Z"/><path class="cls-1" d="M179.56,83h1l.12,2.33h.06c.84-1.53,2.07-2.64,3.55-2.64a2.64,2.64,0,0,1,1.24.26l-.26,1a2.81,2.81,0,0,0-1.13-.21c-1.12,0-2.45.85-3.41,3.21v8.5h-1.14Z"/><path class="cls-1" d="M186.49,89.29c0-4.08,2.64-6.58,5.44-6.58,3,0,4.78,2.1,4.78,5.78a5.81,5.81,0,0,1-.06.93h-9c0,3.15,1.88,5.4,4.7,5.4a5.6,5.6,0,0,0,3.35-1.1l.48.87a6.89,6.89,0,0,1-3.94,1.23C189.07,95.82,186.49,93.37,186.49,89.29Zm9.14-.81c0-3.19-1.45-4.78-3.69-4.78s-4,1.79-4.28,4.78Z"/><path class="cls-1" d="M87.35,122.23v-8h1.14v7.86c0,2.65.84,3.9,2.85,3.9,1.49,0,2.56-.78,4-2.54v-9.22h1.15v12.49h-1l-.12-2.09h-.06c-1.23,1.43-2.52,2.4-4.24,2.4C88.54,127,87.35,125.45,87.35,122.23Z"/><path class="cls-1" d="M99.75,114.33l1.74-.11h4v1H99.75Zm1.72-2.89c0-2.47,1.11-3.75,3.09-3.75a4.77,4.77,0,0,1,1.82.42l-.31.94a3.42,3.42,0,0,0-1.49-.36c-1.35,0-2,1-2,2.83v15.19h-1.15Z"/><path class="cls-1" d="M106.82,120.49c0-4.18,2.61-6.58,5.61-6.58s5.61,2.4,5.61,6.58-2.61,6.53-5.61,6.53S106.82,124.62,106.82,120.49Zm10,0c0-3.29-1.88-5.57-4.4-5.57s-4.4,2.28-4.4,5.57,1.88,5.51,4.4,5.51S116.83,123.77,116.83,120.49Z"/><path class="cls-1" d="M121.78,114.22h1l.12,2.33h.06c.84-1.53,2.07-2.64,3.55-2.64a2.64,2.64,0,0,1,1.24.26l-.26,1a2.81,2.81,0,0,0-1.13-.21c-1.12,0-2.46.85-3.41,3.21v8.5h-1.15Z"/><path class="cls-1" d="M129.83,122.23v-8H131v7.86c0,2.65.83,3.9,2.84,3.9,1.49,0,2.57-.78,4-2.54v-9.22H139v12.49h-1l-.12-2.09h-.06c-1.23,1.43-2.51,2.4-4.24,2.4C131,127,129.83,125.45,129.83,122.23Z"/><path class="cls-1" d="M144.07,123.26v-8h-1.95v-.89l2-.11.14-3.61h1v3.61h3.62v1h-3.62v8.12c0,1.6.4,2.67,2.12,2.67a4.47,4.47,0,0,0,1.57-.39l.3.93a7.33,7.33,0,0,1-2,.47C144.77,127,144.07,125.49,144.07,123.26Z"/><path class="cls-1" d="M150.08,125.29l.66-.84a5.76,5.76,0,0,0,4,1.59c2,0,3-1.15,3-2.47,0-1.57-1.62-2.25-3.06-2.77-1.89-.67-4-1.44-4-3.57,0-1.8,1.42-3.32,4-3.32a5.86,5.86,0,0,1,3.57,1.29l-.62.83a4.75,4.75,0,0,0-3-1.14c-1.94,0-2.83,1.12-2.83,2.27,0,1.43,1.48,2,3,2.53,1.94.74,4.08,1.37,4.08,3.81,0,1.88-1.5,3.52-4.21,3.52A7.14,7.14,0,0,1,150.08,125.29Z"/><path class="cls-1" d="M161.71,110.19a1,1,0,0,1,2.09,0,1,1,0,0,1-2.09,0Zm.45,4h1.15v12.49h-1.15Z"/><path class="cls-1" d="M167.06,129.26a3.91,3.91,0,0,1,1.87-3v-.11a2.24,2.24,0,0,1-1.11-2,2.93,2.93,0,0,1,1.37-2.3v-.11a4.56,4.56,0,0,1-1.58-3.42,4.3,4.3,0,0,1,4.39-4.4,4.5,4.5,0,0,1,1.66.31h4.23v1H175a4.08,4.08,0,0,1,1.38,3.13,4.29,4.29,0,0,1-4.36,4.41,4.24,4.24,0,0,1-2.06-.53,2.25,2.25,0,0,0-1,1.8c0,.9.52,1.62,2.38,1.62H174c2.8,0,4.11.9,4.11,2.87,0,2.15-2.3,4.22-5.9,4.22C169,132.72,167.06,131.37,167.06,129.26Zm9.86-.63c0-1.38-1-1.91-2.89-1.91h-2.67a8,8,0,0,1-1.55-.2,3.25,3.25,0,0,0-1.64,2.62c0,1.58,1.51,2.65,4.14,2.65C175.13,131.79,176.92,130.2,176.92,128.63Zm-1.69-10.32a3.24,3.24,0,1,0-6.46,0,3.24,3.24,0,1,0,6.46,0Z"/><path class="cls-1" d="M181.92,125.44h-.06l-.13,1.27h-.95V108h1.15v5.43l-.06,2.43a7.12,7.12,0,0,1,4.3-2c3.35,0,5,2.51,5,6.37,0,4.24-2.56,6.74-5.5,6.74A6.33,6.33,0,0,1,181.92,125.44Zm8-5.16c0-3.06-1.09-5.35-4-5.35a6.46,6.46,0,0,0-4.06,2.06v7.4A6,6,0,0,0,185.6,126C188.14,126,190,123.67,190,120.28Z"/><path class="cls-1" d="M193.58,123.6c0-2.78,2.51-4.1,8.06-4.71,0-1.92-.49-4-2.94-4a6.87,6.87,0,0,0-4,1.46l-.53-.85a8.38,8.38,0,0,1,4.64-1.62c3,0,4,2.15,4,4.82v8h-1l-.13-1.63h-.06A7.34,7.34,0,0,1,197.2,127C195.23,127,193.58,125.94,193.58,123.6Zm8.06.41v-4.25c-5.13.6-6.88,1.79-6.88,3.78a2.34,2.34,0,0,0,2.65,2.48C198.84,126,200.1,125.33,201.64,124Z"/><path class="cls-1" d="M207.25,114.22h1l.12,2.33h.06c.84-1.53,2.07-2.64,3.55-2.64a2.64,2.64,0,0,1,1.24.26l-.26,1a2.81,2.81,0,0,0-1.13-.21c-1.12,0-2.45.85-3.41,3.21v8.5h-1.14Z"/><path class="cls-1" d="M214.18,120.49c0-4.07,2.64-6.58,5.44-6.58,3,0,4.78,2.1,4.78,5.78a5.81,5.81,0,0,1-.06.93h-9c0,3.15,1.89,5.41,4.7,5.41a5.61,5.61,0,0,0,3.35-1.11l.48.87A6.89,6.89,0,0,1,220,127C216.76,127,214.18,124.57,214.18,120.49Zm9.14-.81c0-3.19-1.45-4.78-3.69-4.78s-4,1.79-4.28,4.78Z"/><path class="cls-1" d="M97.58,140.77h1.19v17.14H97.58Z"/><path class="cls-1" d="M107.51,141.8h-5.45v-1h12.1v1h-5.45v16.11h-1.2Z"/><path class="cls-1" d="M113.94,150.91h5.71v1h-5.71Z"/><path class="cls-1" d="M123.06,145.42h1l.13,1.57h0a7.21,7.21,0,0,1,4.24-1.88c3.35,0,5,2.51,5,6.37,0,4.24-2.56,6.74-5.5,6.74a6.48,6.48,0,0,1-3.76-1.54l0,2.31v4.57h-1.15Zm9.18,6.06c0-3.06-1.09-5.35-4-5.35-1.24,0-2.55.73-4.06,2.06v7.4a6.07,6.07,0,0,0,3.67,1.61C130.42,157.2,132.24,154.87,132.24,151.48Z"/><path class="cls-1" d="M137.2,145.42h1l.13,2.33h.06c.84-1.53,2.06-2.64,3.55-2.64a2.69,2.69,0,0,1,1.24.26l-.26,1a2.84,2.84,0,0,0-1.13-.21c-1.13,0-2.46.85-3.41,3.21v8.5H137.2Z"/><path class="cls-1" d="M144.13,151.69c0-4.18,2.61-6.58,5.61-6.58s5.6,2.4,5.6,6.58-2.6,6.53-5.6,6.53S144.13,155.82,144.13,151.69Zm10,0c0-3.29-1.88-5.57-4.4-5.57s-4.4,2.28-4.4,5.57,1.88,5.51,4.4,5.51S154.14,155,154.14,151.69Z"/><path class="cls-1" d="M157.51,156.49l.67-.84a5.74,5.74,0,0,0,4,1.59c2,0,3-1.15,3-2.47,0-1.56-1.62-2.25-3.06-2.77-1.88-.67-4-1.44-4-3.57,0-1.8,1.43-3.32,4-3.32a5.86,5.86,0,0,1,3.57,1.29l-.62.83a4.75,4.75,0,0,0-3-1.14c-2,0-2.83,1.12-2.83,2.27,0,1.43,1.47,2,3,2.53,1.93.74,4.08,1.37,4.08,3.81,0,1.88-1.51,3.52-4.21,3.52A7.16,7.16,0,0,1,157.51,156.49Z"/><path class="cls-1" d="M166.35,163.55l.27-.93a4.42,4.42,0,0,0,1.31.25c1.4,0,1.67-1.13,1.67-2.72V145.42h1.15v14.81c0,2.44-.86,3.64-2.8,3.64A4.58,4.58,0,0,1,166.35,163.55Zm2.81-22.17a1,1,0,0,1,2.09,0,1,1,0,0,1-2.09,0Z"/><path class="cls-1" d="M174.5,151.69c0-4.07,2.65-6.58,5.45-6.58,3,0,4.77,2.1,4.77,5.78a5.81,5.81,0,0,1-.06.93h-9c0,3.15,1.89,5.41,4.7,5.41a5.66,5.66,0,0,0,3.36-1.11l.47.87a6.87,6.87,0,0,1-3.94,1.23C177.08,158.22,174.5,155.77,174.5,151.69Zm9.14-.81c0-3.19-1.44-4.78-3.68-4.78s-4,1.79-4.28,4.78Z"/><path class="cls-1" d="M188.11,139.2h1.14V153h.05l6.17-7.57h1.32l-4.06,4.94,4.74,7.55H196.2l-4.15-6.69-2.8,3.28v3.41h-1.14Z"/><path class="cls-1" d="M200.13,154.46v-8h-1.95v-.89l2-.11.15-3.61h1v3.61h3.61v1h-3.61v8.12c0,1.6.4,2.67,2.12,2.67a4.42,4.42,0,0,0,1.56-.39l.3.93a7.35,7.35,0,0,1-2,.47C200.83,158.22,200.13,156.69,200.13,154.46Z"/><path class="cls-1" d="M213,144.22a2.8,2.8,0,0,0-3-3,4.43,4.43,0,0,0-3.35,1.65l-.71-.64a5.53,5.53,0,0,1,4.17-2,3.78,3.78,0,0,1,4,4c0,3.54-4.36,5.15-3.86,9.11h-1.05C208.7,148.93,213,147.43,213,144.22Zm-4.23,12.84a1.11,1.11,0,1,1,2.21,0,1.11,1.11,0,1,1-2.21,0Z"/></svg>