<svg id="Layer_1" data-name="Layer 1" xmlns="http://www.w3.org/2000/svg" viewBox="0 0 300 250"><defs><style>.cls-1{fill:#d80201;}</style></defs><title>text</title><path class="cls-1" d="M40.3,124.21V102.87h4.16v17.72H51v3.62Z"/><path class="cls-1" d="M56.52,117.9c.06,2.15,1.09,3.72,3.39,3.72a3.64,3.64,0,0,0,3.3-1.86l3.58.58c-1.21,3-3.68,4.32-6.81,4.32-4.48,0-7.43-2.88-7.43-7.4s2.82-7.36,7.27-7.36,7.07,3.08,7.07,7.49v.51Zm3.36-5.24a3.14,3.14,0,0,0-3.23,2.78h6.56A3.22,3.22,0,0,0,59.88,112.66Z"/><path class="cls-1" d="M73.77,113.68v10.53H69.9V113.68H68.36v-3.33H69.9v-4.73h3.87v4.73h2.72v3.33Z"/><path class="cls-1" d="M84.87,107.92l-1.82-1.28,3.8-4.83,2.82,1.79Z"/><path class="cls-1" d="M98.92,124.66a7.39,7.39,0,0,1-5.28-2.31l2-2.37A4.49,4.49,0,0,0,99,121.62a1.63,1.63,0,0,0,1.76-1.54c0-2.37-6.17-1.18-6.17-5.86,0-2.81,2.33-4.38,5-4.38a7.16,7.16,0,0,1,4.51,1.47l-1.92,2.27a3.86,3.86,0,0,0-2.31-.92c-.67,0-1.47.41-1.47,1.18,0,2,6.4,1.12,6.4,5.86C104.71,122.93,101.9,124.66,98.92,124.66Z"/><path class="cls-1" d="M123.88,124.66a5.43,5.43,0,0,1-4.54-2.28v1.83h-3.88v-24h3.88v11.87A5.87,5.87,0,0,1,124,109.9c4.06,0,6.75,3.46,6.75,7.33S128,124.66,123.88,124.66Zm-1.06-11.27a3.89,3.89,0,1,0,3.87,3.87A3.87,3.87,0,0,0,122.82,113.39Z"/><path class="cls-1" d="M136.9,117.9c.07,2.15,1.09,3.72,3.39,3.72a3.63,3.63,0,0,0,3.3-1.86l3.58.58c-1.21,3-3.68,4.32-6.81,4.32-4.48,0-7.42-2.88-7.42-7.4s2.81-7.36,7.26-7.36,7.07,3.08,7.07,7.49v.51Zm3.36-5.24a3.14,3.14,0,0,0-3.23,2.78h6.56A3.2,3.2,0,0,0,140.26,112.66Z"/><path class="cls-1" d="M162.25,113.68v10.53h-3.87V113.68h-1.51v-3.33h1.51V105.9a6.79,6.79,0,0,1,.6-3.26,5.48,5.48,0,0,1,4.8-2.78,4.6,4.6,0,0,1,2.05.48v3.55a3.85,3.85,0,0,0-1.76-.51c-1.73,0-1.82,1.79-1.82,3.1v3.87h3.58v3.33Z"/><path class="cls-1" d="M176.68,113.87a3.45,3.45,0,0,0-1.86-.48c-2.62,0-3.33,1.86-3.33,4.16v6.66h-3.87V110.35h3.87v2.08a4.52,4.52,0,0,1,5.73-2.21Z"/><path class="cls-1" d="M181,106.83a2.34,2.34,0,1,1,0-4.67,2.34,2.34,0,0,1,0,4.67Zm-1.95,17.38V110.35H183v13.86Z"/><path class="cls-1" d="M189.83,117.9c.06,2.15,1.09,3.72,3.39,3.72a3.64,3.64,0,0,0,3.3-1.86l3.58.58a6.8,6.8,0,0,1-6.81,4.32c-4.48,0-7.43-2.88-7.43-7.4s2.82-7.36,7.27-7.36,7.07,3.08,7.07,7.49v.51Zm3.36-5.24a3.14,3.14,0,0,0-3.23,2.78h6.56A3.22,3.22,0,0,0,193.19,112.66Z"/><path class="cls-1" d="M212.64,124.21v-7.68c0-1.89-.41-3.33-2.62-3.33-2.4,0-3,1.76-3,3.84v7.17h-3.87V110.35H207v1.7a5.14,5.14,0,0,1,4.36-2.15,4.8,4.8,0,0,1,5.12,5.51v8.8Z"/><path class="cls-1" d="M230.82,124.21v-1.83a5.35,5.35,0,0,1-4.51,2.28c-4.16,0-6.82-3.46-6.82-7.43s2.66-7.33,6.72-7.33a5.78,5.78,0,0,1,4.61,2.21V100.24h3.9v24Zm-3.46-10.82a3.89,3.89,0,1,0,3.88,3.87A3.87,3.87,0,0,0,227.36,113.39Z"/><path class="cls-1" d="M242.85,124.66a7.39,7.39,0,0,1-5.28-2.31l2.05-2.37a4.49,4.49,0,0,0,3.26,1.64,1.63,1.63,0,0,0,1.76-1.54c0-2.37-6.17-1.18-6.17-5.86,0-2.81,2.33-4.38,5-4.38a7.16,7.16,0,0,1,4.51,1.47L246,113.58a3.86,3.86,0,0,0-2.3-.92c-.68,0-1.48.41-1.48,1.18,0,2,6.4,1.12,6.4,5.86C248.64,122.93,245.83,124.66,242.85,124.66Z"/><path class="cls-1" d="M37.83,153.48v-3.26H45v3.26Z"/><path class="cls-1" d="M63.3,159.66a5.43,5.43,0,0,1-4.54-2.28v1.83H54.89v-24h3.87v11.87a5.87,5.87,0,0,1,4.64-2.2c4.06,0,6.75,3.45,6.75,7.32S67.46,159.66,63.3,159.66Zm-1-11.27a3.89,3.89,0,1,0,3.87,3.87A3.86,3.86,0,0,0,62.25,148.39Z"/><path class="cls-1" d="M80.3,159.66c-4.42,0-7.94-2.76-7.94-7.36s3.52-7.39,8-7.39,7.87,2.78,7.87,7.35S84.68,159.66,80.3,159.66Zm0-11.27a3.89,3.89,0,1,0,3.94,3.91A3.92,3.92,0,0,0,80.26,148.39Z"/><path class="cls-1" d="M100.68,159.21l-5.22-6-.41.41v5.54H91.18v-24h3.87v15.17l5.18-5.06h5.25L99,151.43l7,7.78Z"/><path class="cls-1" d="M117.58,159.21v-1.83a5.36,5.36,0,0,1-4.52,2.28c-4.16,0-6.81-3.46-6.81-7.43s2.65-7.32,6.72-7.32a5.77,5.77,0,0,1,4.61,2.2v-1.76h3.9v13.86Zm-3.46-10.82a3.89,3.89,0,1,0,3.87,3.87A3.87,3.87,0,0,0,114.12,148.39Z"/><path class="cls-1" d="M150.89,159.21v-7.59c0-1.63-.26-3.42-2.31-3.42-2.27,0-2.65,2.08-2.65,3.9v7.11h-3.88v-7.36a6.35,6.35,0,0,0-.28-2.31,2.26,2.26,0,0,0-2.08-1.34,2.53,2.53,0,0,0-2.18,1.25,5.8,5.8,0,0,0-.45,2.65v7.11h-3.87V145.35h3.87v1.57a5.33,5.33,0,0,1,4.23-2,4.72,4.72,0,0,1,4.32,2.52,5.11,5.11,0,0,1,4.54-2.52,4.56,4.56,0,0,1,3.87,2,6.11,6.11,0,0,1,.74,3.36v9Z"/><path class="cls-1" d="M165.67,159.66c-4.42,0-7.93-2.76-7.93-7.36s3.51-7.39,8-7.39,7.87,2.78,7.87,7.35S170.05,159.66,165.67,159.66Zm-3.36-16.9a2.31,2.31,0,0,1,0-4.61,2.31,2.31,0,0,1,0,4.61Zm3.33,5.63a3.89,3.89,0,1,0,3.93,3.91A3.92,3.92,0,0,0,165.64,148.39Zm3.33-5.63a2.34,2.34,0,0,1-2.31-2.3,2.31,2.31,0,1,1,2.31,2.3Z"/><path class="cls-1" d="M180.45,148.68v10.53h-3.87V148.68h-1.53v-3.33h1.53v-4.73h3.87v4.73h2.72v3.33Z"/><path class="cls-1" d="M188.42,152.9c.07,2.15,1.09,3.72,3.39,3.72a3.63,3.63,0,0,0,3.3-1.86l3.58.58c-1.21,3-3.68,4.32-6.81,4.32-4.48,0-7.43-2.88-7.43-7.4s2.82-7.35,7.27-7.35,7.07,3.07,7.07,7.48v.51Zm3.36-5.24a3.14,3.14,0,0,0-3.23,2.78h6.56A3.2,3.2,0,0,0,191.78,147.66Z"/><path class="cls-1" d="M219.24,159.21v-7.68c0-1.89-.42-3.33-2.63-3.33-2.4,0-3,1.76-3,3.84v7.17h-3.87V145.35h3.87v1.7a5.12,5.12,0,0,1,4.35-2.14,4.78,4.78,0,0,1,5.12,5.5v8.8Z"/><path class="cls-1" d="M233.51,159.66c-3.81,0-6.69-1.7-6.69-5.83v-8.48h3.87v7.84c0,1.89.8,3.17,2.82,3.17s2.81-1.28,2.81-3.17v-7.84h3.91v8.48C240.23,158,237.32,159.66,233.51,159.66Z"/><path class="cls-1" d="M246.08,159.62a2.5,2.5,0,1,1,2.5-2.49A2.5,2.5,0,0,1,246.08,159.62Zm-2-6.52V137.87h4V153.1Z"/></svg>