<svg id="Layer_1" data-name="Layer 1" xmlns="http://www.w3.org/2000/svg" viewBox="0 0 300 250"><defs><style>.cls-1{fill:#fff;}</style></defs><title>text</title><path class="cls-1" d="M73.27,105H64.48q-1.08,0-1.08-.84V90.27q0-.87,1.08-.87t1.08.87V103h7.71c.49,0,.74.33.74,1S73.76,105,73.27,105Z"/><path class="cls-1" d="M85.08,102.94c.49,0,.74.29.74.89a1,1,0,0,1-.74,1.08,19.2,19.2,0,0,1-3.9.28,6.7,6.7,0,0,1-3.93-.89,3.54,3.54,0,0,1-1.19-3v-4.4a3.42,3.42,0,0,1,1.08-3,7.45,7.45,0,0,1,4-.76,7.54,7.54,0,0,1,4,.72c.69.49,1,1.49,1,3v1.9a1.33,1.33,0,0,1-.32.92,1,1,0,0,1-.81.32H78.21v1.41c0,1.18,1,1.77,3.09,1.76a18.17,18.17,0,0,0,2.34-.14A11.28,11.28,0,0,1,85.08,102.94Zm-6.87-6v1.24H84V96.92a1.53,1.53,0,0,0-.58-1.4,4.93,4.93,0,0,0-2.29-.36,5.17,5.17,0,0,0-2.29.34A1.51,1.51,0,0,0,78.21,96.92Z"/><path class="cls-1" d="M96.17,101.47v-.27a.89.89,0,0,0-.56-.83,5,5,0,0,0-2-.26,11.75,11.75,0,0,1-3.1-.43,2.53,2.53,0,0,1-1.4-1,3,3,0,0,1-.56-1.92v-.2a2.84,2.84,0,0,1,1.2-2.7,7.52,7.52,0,0,1,3.68-.7,15.43,15.43,0,0,1,3.66.32,1,1,0,0,1,.74,1.08c0,.59-.25.89-.74.89a12.51,12.51,0,0,1-1.51-.16,16.62,16.62,0,0,0-2.41-.16,6.09,6.09,0,0,0-1.87.21c-.4.14-.6.54-.6,1.18v.23c0,.85.89,1.3,2.67,1.36.75,0,1.49.09,2.24.18a3.38,3.38,0,0,1,1.9.84,2.47,2.47,0,0,1,.77,2v.29a3.23,3.23,0,0,1-1.21,2.94,7.58,7.58,0,0,1-3.93.78,16.79,16.79,0,0,1-3.88-.31,1,1,0,0,1-.74-1.08c0-.59.25-.89.74-.89a15.77,15.77,0,0,1,1.7.16,20.81,20.81,0,0,0,2.46.15,5.11,5.11,0,0,0,2-.32A1.39,1.39,0,0,0,96.17,101.47Z"/><path class="cls-1" d="M107.17,90.6a1.14,1.14,0,0,1,.35-.83,1.18,1.18,0,0,1,.82-.37,1.12,1.12,0,0,1,.84.37,1.25,1.25,0,0,1,.34.84,1.11,1.11,0,0,1-.36.82,1.12,1.12,0,0,1-.82.35,1.16,1.16,0,0,1-.83-.35A1.17,1.17,0,0,1,107.17,90.6Zm2.25,3.62v9.94q0,.84-1.08.84c-.71,0-1.07-.28-1.07-.84V94.22c0-.56.36-.84,1.07-.84S109.42,93.66,109.42,94.22Z"/><path class="cls-1" d="M115.52,95.57c-.27.27-.4,1.14-.4,2.59v6c0,.57-.36.85-1.08.85s-1.07-.28-1.08-.84V97.9a12.32,12.32,0,0,1,.21-2.58,2.27,2.27,0,0,1,.85-1.41,3.07,3.07,0,0,1,1.47-.59,22.38,22.38,0,0,1,2.66-.13c2,0,3.29.24,3.82.74a3.17,3.17,0,0,1,.94,2.11c0,.5.08,1.12.08,1.86v6.26q0,.84-1.08.84c-.71,0-1.07-.28-1.07-.85v-6q0-2.16-.42-2.58T118,95.16C116.6,95.16,115.78,95.29,115.52,95.57Z"/><path class="cls-1" d="M130.37,105a3,3,0,0,1-2.29-.7,3.55,3.55,0,0,1-.65-2.41v-6.6h-1.51c-.48,0-.72-.32-.72-1s.24-1,.72-1h1.51V90.33c0-.55.36-.83,1.08-.83s1.08.28,1.08.83v3.06h3.06c.48,0,.73.31.73,1s-.25,1-.73,1h-3.06v6.76c0,.65.39,1,1.17,1l2-.12q.75,0,.75.87a1.12,1.12,0,0,1-.77,1.15C132.26,105,131.46,105,130.37,105Z"/><path class="cls-1" d="M144.7,102.94c.49,0,.73.29.73.89a1,1,0,0,1-.73,1.08,19.39,19.39,0,0,1-3.91.28,6.66,6.66,0,0,1-3.92-.89,3.54,3.54,0,0,1-1.2-3v-4.4a3.42,3.42,0,0,1,1.08-3,11.16,11.16,0,0,1,8,0c.69.49,1,1.49,1,3v1.9a1.33,1.33,0,0,1-.31.92,1.06,1.06,0,0,1-.81.32h-6.82v1.41c0,1.18,1,1.77,3.08,1.76a18,18,0,0,0,2.34-.14A11.23,11.23,0,0,1,144.7,102.94Zm-6.87-6v1.24h5.79V96.92a1.53,1.53,0,0,0-.59-1.4,4.91,4.91,0,0,0-2.28-.36,5.22,5.22,0,0,0-2.3.34A1.5,1.5,0,0,0,137.83,96.92Z"/><path class="cls-1" d="M151.16,98.18v6c0,.56-.35.84-1.07.84s-1.07-.28-1.08-.84V97.9a7.57,7.57,0,0,1,.38-3,4.25,4.25,0,0,1,.71-1c.52-.47,1.8-.7,3.86-.7a6.7,6.7,0,0,1,2.09.21.76.76,0,0,1,.53.76,1.13,1.13,0,0,1-.29.83,1,1,0,0,1-.74.27l-1.59-.1a6.78,6.78,0,0,0-1.83.14,1.47,1.47,0,0,0-.54.27,1.79,1.79,0,0,0-.26.54,2.4,2.4,0,0,0-.15.84C151.17,97.24,151.16,97.65,151.16,98.18Z"/><path class="cls-1" d="M162.8,105.12a1.84,1.84,0,0,1-1.15-.39,2.16,2.16,0,0,1-.72-1l-3.4-9.15c-.05-.25-.08-.38-.08-.39,0-.56.34-.84,1-.83a1,1,0,0,1,1,.62l3.21,9h.12l3.22-9c.16-.42.55-.62,1.16-.62s.93.27.93.83c0,0,0,.14-.07.39l-3.41,9.15a2,2,0,0,1-.73,1A1.93,1.93,0,0,1,162.8,105.12Z"/><path class="cls-1" d="M169.76,109.68h-.84c-.49,0-.74-.33-.74-1s.25-1,.74-1h.82a1.11,1.11,0,0,0,.7-.25.88.88,0,0,0,.33-.74V94.2c0-.57.36-.85,1.08-.85s1.08.28,1.08.85v12.36a3.59,3.59,0,0,1-.64,2.4A3.42,3.42,0,0,1,169.76,109.68Zm.92-19.08a1.1,1.1,0,0,1,.35-.83,1.16,1.16,0,0,1,.82-.37,1.09,1.09,0,0,1,.83.37,1.2,1.2,0,0,1,.34.84,1.14,1.14,0,0,1-.35.82,1.15,1.15,0,0,1-1.65,0A1.13,1.13,0,0,1,170.68,90.6Z"/><path class="cls-1" d="M180.27,103.21h2.23a2.81,2.81,0,0,0,.75-.13,1.39,1.39,0,0,0,.61-.37,1.49,1.49,0,0,0,.26-1c0-.48,0-1,0-1.54v-6q0-.84,1.08-.84t1.08.84v6.27a13.22,13.22,0,0,1-.19,2.59,2.27,2.27,0,0,1-.83,1.39,3.11,3.11,0,0,1-1.46.6,25.07,25.07,0,0,1-4.9,0,3.07,3.07,0,0,1-1.45-.6,2.26,2.26,0,0,1-.82-1.39,14.82,14.82,0,0,1-.2-2.59V94.22c0-.56.37-.84,1.09-.84s1.07.28,1.07.84v6a4.93,4.93,0,0,0,.39,2.61,1.18,1.18,0,0,0,.5.26A2.82,2.82,0,0,0,180.27,103.21Z"/><path class="cls-1" d="M195.32,99.29a14.28,14.28,0,0,1,.27-3.1,3.32,3.32,0,0,1,2.55-2.77,13.76,13.76,0,0,1,5,0,3.52,3.52,0,0,1,1.63.91,3.78,3.78,0,0,1,.94,1.85,14.37,14.37,0,0,1,.26,3.1,14.21,14.21,0,0,1-.26,3.09,3.24,3.24,0,0,1-1,1.78,3.55,3.55,0,0,1-1.61.83,11.8,11.8,0,0,1-2.5.21,12.67,12.67,0,0,1-2.51-.2,3.4,3.4,0,0,1-1.62-.83,3.29,3.29,0,0,1-1-1.8A15.48,15.48,0,0,1,195.32,99.29Zm2.41-2.74a6.24,6.24,0,0,0-.25,2.14c0,1,0,1.84.08,2.44a2.9,2.9,0,0,0,.61,1.58,1.86,1.86,0,0,0,1.4.49l1.08,0c1.4,0,2.23-.17,2.48-.51a3.25,3.25,0,0,0,.62-1.59c.05-.58.08-1.19.08-1.81,0-1.87-.18-3-.53-3.39a2.45,2.45,0,0,0-.41-.43,2.85,2.85,0,0,0-1.68-.33c-.87,0-1.42,0-1.65,0-.73,0-1.2.21-1.39.49A6.36,6.36,0,0,0,197.73,96.55Z"/><path class="cls-1" d="M221.14,95.16c-.65,0-1.12,0-1.4,0a1.26,1.26,0,0,0-.75.36,1.19,1.19,0,0,0-.38.79,14,14,0,0,0-.06,1.53v6.27c0,.57-.36.85-1.08.85s-1.08-.28-1.08-.85V97.56c0-1.1-.14-1.78-.43-2a3,3,0,0,0-1.8-.37c-.91,0-1.5,0-1.77,0a1.13,1.13,0,0,0-.74.39,1.43,1.43,0,0,0-.36.87c0,.35,0,.92,0,1.7v6c0,.57-.36.85-1.08.85s-1.07-.28-1.08-.84V97.9a7.77,7.77,0,0,1,.55-3.46,2.61,2.61,0,0,1,2.26-1.17c.45,0,1.09-.07,1.92-.08,1.86,0,3.08.22,3.65.67.56-.44,1.78-.66,3.64-.67a18.78,18.78,0,0,1,1.91.07,2.68,2.68,0,0,1,2.24,1.11,7.94,7.94,0,0,1,.59,3.53v6.26q0,.84-1.08.84c-.72,0-1.08-.28-1.08-.85v-6a16.88,16.88,0,0,0-.06-1.7,1.48,1.48,0,0,0-.35-.87,1.15,1.15,0,0,0-.74-.39C222.26,95.17,221.79,95.16,221.14,95.16Z"/><path class="cls-1" d="M73.2,118.59v9.5a14.65,14.65,0,0,1-.26,3.07,3.29,3.29,0,0,1-1,1.78,3.4,3.4,0,0,1-1.59.84,11.63,11.63,0,0,1-2.49.21,12.74,12.74,0,0,1-2.51-.2,3.49,3.49,0,0,1-1.62-.83,3.22,3.22,0,0,1-.94-1.8,15.37,15.37,0,0,1-.26-3.07,14.28,14.28,0,0,1,.27-3.1,3.32,3.32,0,0,1,2.55-2.77,12.71,12.71,0,0,1,2.77-.23,7.24,7.24,0,0,1,2.87.47v-3.87q0-.87,1.08-.87T73.2,118.59ZM65,125.35a5.94,5.94,0,0,0-.26,2.14c0,1,0,1.84.08,2.44a3,3,0,0,0,.61,1.58,1.86,1.86,0,0,0,1.4.49l1.08,0c1.4,0,2.23-.17,2.48-.51a3.15,3.15,0,0,0,.62-1.59c0-.58.08-1.19.08-1.81,0-1.87-.18-3-.53-3.39a2.14,2.14,0,0,0-.41-.43,2.83,2.83,0,0,0-1.68-.33c-.87,0-1.42,0-1.65,0-.73,0-1.2.21-1.39.49A5.54,5.54,0,0,0,65,125.35Z"/><path class="cls-1" d="M77.69,124.27c-.5,0-.75-.29-.75-.89a1,1,0,0,1,.75-1.08,16.84,16.84,0,0,1,3.89-.31c1.81,0,3,.29,3.68.86a3.92,3.92,0,0,1,1,3v4.63q0,2.16-1,2.82a8.44,8.44,0,0,1-4,.66,8.21,8.21,0,0,1-4-.66c-.67-.44-1-1.37-1-2.81a4.38,4.38,0,0,1,.77-3c.53-.54,1.6-.81,3.21-.8h4V125.5a1.3,1.3,0,0,0-.55-1.21,4,4,0,0,0-2-.33,15.7,15.7,0,0,0-2.45.16A8.78,8.78,0,0,1,77.69,124.27Zm6.38,6.41v-2H80.74a4.21,4.21,0,0,0-2,.31c-.3.2-.46.66-.46,1.38s.19,1.19.58,1.4a6,6,0,0,0,2.29.29,6.94,6.94,0,0,0,2.32-.26A1.05,1.05,0,0,0,84.07,130.68Z"/><path class="cls-1" d="M93.57,133.8a3,3,0,0,1-2.29-.7,3.55,3.55,0,0,1-.64-2.41v-6.61H89.12c-.48,0-.72-.31-.72-.94s.24-1,.72-1h1.52v-3.06c0-.55.36-.83,1.07-.83s1.08.28,1.08.83v3.06h3.06c.48,0,.73.31.73,1s-.25.94-.73.94H92.79v6.77c0,.65.39,1,1.17,1l2-.12q.75,0,.75.87a1.11,1.11,0,0,1-.77,1.15C95.46,133.78,94.66,133.8,93.57,133.8Z"/><path class="cls-1" d="M100.21,124.27c-.5,0-.75-.29-.75-.89a1,1,0,0,1,.75-1.08,16.84,16.84,0,0,1,3.89-.31c1.81,0,3,.29,3.68.86a3.92,3.92,0,0,1,1,3v4.63q0,2.16-1,2.82a8.41,8.41,0,0,1-4,.66,8.16,8.16,0,0,1-4-.66c-.68-.44-1-1.37-1-2.81a4.32,4.32,0,0,1,.78-3c.52-.54,1.59-.81,3.2-.8h4V125.5a1.32,1.32,0,0,0-.55-1.21,4.07,4.07,0,0,0-2-.33,15.79,15.79,0,0,0-2.45.16A8.68,8.68,0,0,1,100.21,124.27Zm6.39,6.41v-2h-3.34a4.27,4.27,0,0,0-2,.31q-.45.3-.45,1.38c0,.73.19,1.19.57,1.4a6,6,0,0,0,2.29.29,6.94,6.94,0,0,0,2.32-.26A1.07,1.07,0,0,0,106.6,130.68Z"/><path class="cls-1" d="M113.31,124.27c-.5,0-.75-.29-.75-.89a1,1,0,0,1,.75-1.08,16.84,16.84,0,0,1,3.89-.31c1.82,0,3,.29,3.68.86a3.92,3.92,0,0,1,1,3v4.63c0,1.44-.36,2.38-1.06,2.82a8.41,8.41,0,0,1-4,.66,8.16,8.16,0,0,1-4-.66c-.68-.44-1-1.37-1-2.81a4.32,4.32,0,0,1,.78-3c.52-.54,1.59-.81,3.2-.8h4V125.5a1.32,1.32,0,0,0-.55-1.21,4.07,4.07,0,0,0-2-.33,15.88,15.88,0,0,0-2.45.16A8.68,8.68,0,0,1,113.31,124.27Zm6.39,6.41v-2h-3.33a4.29,4.29,0,0,0-2,.31q-.45.3-.45,1.38c0,.73.19,1.19.57,1.4a6,6,0,0,0,2.29.29,6.94,6.94,0,0,0,2.32-.26A1.07,1.07,0,0,0,119.7,130.68Z"/><path class="cls-1" d="M127.73,124.37c-.27.27-.4,1.14-.4,2.59v6c0,.57-.36.85-1.07.85s-1.08-.28-1.09-.84V126.7a12.32,12.32,0,0,1,.21-2.58,2.31,2.31,0,0,1,.85-1.41,3.07,3.07,0,0,1,1.47-.59,22.38,22.38,0,0,1,2.66-.13c2,0,3.29.24,3.82.74a3.13,3.13,0,0,1,.94,2.1,16.61,16.61,0,0,1,.08,1.87V133c0,.56-.36.84-1.07.84s-1.08-.28-1.08-.85v-6a4.66,4.66,0,0,0-.41-2.58,4.23,4.23,0,0,0-2.47-.42C128.81,124,128,124.09,127.73,124.37Z"/><path class="cls-1" d="M147,120.85c0-.51.36-.76,1.08-.76s1.08.26,1.08.79V126q0,2.27-1.14,3a7.4,7.4,0,0,1-3.78.72,17.54,17.54,0,0,1-3.52-.22v1.85h4.38c1.64,0,2.75.28,3.33.85a4,4,0,0,1,.87,2.88,3,3,0,0,1-1.17,2.77,8.25,8.25,0,0,1-4.16.75,9.12,9.12,0,0,1-4.19-.68c-.8-.44-1.21-1.37-1.22-2.77v-9.44a4,4,0,0,1,.67-2.62,3.65,3.65,0,0,1,2.54-.92,20.31,20.31,0,0,1,5.23.25Zm-6.28,5.06c0,.87.17,1.39.48,1.57a5.88,5.88,0,0,0,2.32.27,10.34,10.34,0,0,0,2.49-.19,1.19,1.19,0,0,0,.83-.58,3.69,3.69,0,0,0,.16-1.3v-1.43a25,25,0,0,0-3.42-.25,4.87,4.87,0,0,0-2.22.36,1.54,1.54,0,0,0-.64,1.46Zm0,7.27v2a1.16,1.16,0,0,0,.77,1.14,6.81,6.81,0,0,0,2.54.34,5.17,5.17,0,0,0,2.36-.36,1.43,1.43,0,0,0,.61-1.36,1.51,1.51,0,0,0-.58-1.38,4.32,4.32,0,0,0-2.11-.36Z"/><path class="cls-1" d="M154.16,127v6c0,.56-.35.84-1.07.84S152,133.52,152,133V126.7a7.57,7.57,0,0,1,.38-3,4.25,4.25,0,0,1,.71-1c.52-.47,1.8-.7,3.86-.7a6.7,6.7,0,0,1,2.09.21.75.75,0,0,1,.53.76,1.13,1.13,0,0,1-.29.83,1,1,0,0,1-.74.27L157,124a6.78,6.78,0,0,0-1.83.14,1.47,1.47,0,0,0-.54.27,1.79,1.79,0,0,0-.26.54,2.4,2.4,0,0,0-.15.84C154.17,126,154.16,126.45,154.16,127Z"/><path class="cls-1" d="M170.34,131.74c.49,0,.73.29.73.89a1,1,0,0,1-.73,1.08,19.39,19.39,0,0,1-3.91.28,6.68,6.68,0,0,1-3.92-.89,3.54,3.54,0,0,1-1.2-3v-4.4a3.42,3.42,0,0,1,1.08-3,11.16,11.16,0,0,1,8,0c.69.49,1,1.49,1,3v1.9a1.33,1.33,0,0,1-.31.92,1.06,1.06,0,0,1-.81.32h-6.82v1.41c0,1.18,1,1.77,3.08,1.76a18,18,0,0,0,2.34-.14A11.23,11.23,0,0,1,170.34,131.74Zm-6.87-6V127h5.79v-1.24a1.53,1.53,0,0,0-.59-1.4,4.91,4.91,0,0,0-2.28-.36,5.22,5.22,0,0,0-2.3.34A1.5,1.5,0,0,0,163.47,125.72Z"/><path class="cls-1" d="M174.65,137.64v-9.75a14,14,0,0,1,.27-3.07,3.46,3.46,0,0,1,.94-1.78,3.5,3.5,0,0,1,1.59-.84A11.67,11.67,0,0,1,180,122a12,12,0,0,1,2.52.21,3.58,3.58,0,0,1,1.62.83,3.29,3.29,0,0,1,.95,1.79,15.64,15.64,0,0,1,.24,3.08A14.31,14.31,0,0,1,185,131a3.35,3.35,0,0,1-2.54,2.76,13.63,13.63,0,0,1-2.78.22,7.34,7.34,0,0,1-2.89-.47v4.13c0,.56-.35.84-1.07.84S174.66,138.21,174.65,137.64Zm8.21-7a5.93,5.93,0,0,0,.26-2.15c0-1,0-1.85-.08-2.45a3.22,3.22,0,0,0-.6-1.6c-.25-.33-1.08-.5-2.49-.5s-2.24.17-2.49.5a3.12,3.12,0,0,0-.62,1.62c-.05.59-.08,1.19-.08,1.81s0,1.15.06,1.56.08.78.14,1.09a2,2,0,0,0,.74,1.18,1.52,1.52,0,0,0,1,.3l1.35,0,1,0a5.6,5.6,0,0,0,.79-.13,1,1,0,0,0,.62-.37A6.29,6.29,0,0,0,182.86,130.66Z"/><path class="cls-1" d="M197.35,131.74c.49,0,.74.29.74.89a1,1,0,0,1-.74,1.08,19.34,19.34,0,0,1-3.9.28,6.7,6.7,0,0,1-3.93-.89,3.54,3.54,0,0,1-1.2-3v-4.4a3.42,3.42,0,0,1,1.08-3,7.45,7.45,0,0,1,4-.76,7.59,7.59,0,0,1,4,.72c.68.49,1,1.49,1,3v1.9a1.38,1.38,0,0,1-.32.92,1.06,1.06,0,0,1-.81.32h-6.82v1.41c0,1.18,1,1.77,3.08,1.76a18.22,18.22,0,0,0,2.35-.14A11,11,0,0,1,197.35,131.74Zm-6.87-6V127h5.79v-1.24a1.53,1.53,0,0,0-.59-1.4,4.88,4.88,0,0,0-2.28-.36,5.22,5.22,0,0,0-2.3.34A1.52,1.52,0,0,0,190.48,125.72Z"/><path class="cls-1" d="M205.68,133.8a3,3,0,0,1-2.28-.7,3.55,3.55,0,0,1-.65-2.41v-6.61h-1.52c-.48,0-.72-.31-.72-.94s.24-1,.72-1h1.52v-3.06c0-.55.36-.83,1.08-.83s1.08.28,1.08.83v3.06H208c.49,0,.73.31.73,1s-.24.94-.73.94h-3.05v6.77c0,.65.39,1,1.17,1l2-.12q.75,0,.75.87a1.11,1.11,0,0,1-.78,1.15C207.58,133.78,206.77,133.8,205.68,133.8Z"/><path class="cls-1" d="M74.72,152.76c-.65,0-1.11,0-1.39,0a1.26,1.26,0,0,0-.75.36,1.25,1.25,0,0,0-.39.79,14,14,0,0,0-.06,1.53v6.27c0,.57-.36.85-1.08.85s-1.07-.28-1.07-.85v-6.59c0-1.1-.15-1.78-.44-2a3,3,0,0,0-1.79-.37c-.91,0-1.5,0-1.78,0a1.15,1.15,0,0,0-.74.39,1.48,1.48,0,0,0-.35.87c0,.35,0,.92,0,1.7v6c0,.57-.36.85-1.07.85s-1.08-.28-1.08-.84V155.5a7.77,7.77,0,0,1,.55-3.46,2.6,2.6,0,0,1,2.26-1.17,18,18,0,0,1,1.92-.08c1.86,0,3.07.22,3.64.67.57-.44,1.78-.67,3.65-.67a18.78,18.78,0,0,1,1.91.07A2.7,2.7,0,0,1,78.85,152a8,8,0,0,1,.58,3.53v6.26c0,.56-.36.84-1.07.84s-1.08-.28-1.08-.85v-6a16.88,16.88,0,0,0-.06-1.7,1.48,1.48,0,0,0-.35-.87,1.15,1.15,0,0,0-.74-.39C75.85,152.77,75.38,152.76,74.72,152.76Z"/><path class="cls-1" d="M82.69,156.89a14.28,14.28,0,0,1,.27-3.1A3.32,3.32,0,0,1,85.51,151a13.76,13.76,0,0,1,5,0,3.47,3.47,0,0,1,1.63.91,3.74,3.74,0,0,1,.94,1.85,14.28,14.28,0,0,1,.27,3.1,14.11,14.11,0,0,1-.27,3.09,3.27,3.27,0,0,1-1,1.78,3.5,3.5,0,0,1-1.61.83,11.8,11.8,0,0,1-2.5.21,12.67,12.67,0,0,1-2.51-.2,3.49,3.49,0,0,1-1.62-.83A3.22,3.22,0,0,1,83,160,14.65,14.65,0,0,1,82.69,156.89Zm2.42-2.74a5.94,5.94,0,0,0-.26,2.14c0,1,0,1.84.08,2.44a2.9,2.9,0,0,0,.61,1.58,1.83,1.83,0,0,0,1.4.48c.24,0,.59,0,1.08,0,1.4,0,2.23-.17,2.48-.51a3.25,3.25,0,0,0,.62-1.59c0-.58.08-1.19.08-1.81,0-1.87-.18-3-.53-3.39a2.45,2.45,0,0,0-.41-.43,2.83,2.83,0,0,0-1.68-.33c-.87,0-1.42,0-1.65,0-.73.05-1.2.21-1.39.49A5.54,5.54,0,0,0,85.11,154.15Z"/><path class="cls-1" d="M100.48,162.6a3,3,0,0,1-2.28-.7,3.55,3.55,0,0,1-.65-2.41v-6.61H96c-.49,0-.73-.31-.73-.94s.24-.95.73-.95h1.51v-3.06c0-.55.36-.83,1.08-.83s1.08.28,1.08.83V151h3.05c.49,0,.73.31.73.95s-.24.94-.73.94H99.71v6.77c0,.65.39,1,1.17,1l2-.12q.75,0,.75.87a1.11,1.11,0,0,1-.78,1.15C102.38,162.58,101.58,162.6,100.48,162.6Z"/><path class="cls-1" d="M123.55,160.29V147.87q0-.87,1.08-.87t1.08.87v12.67a2.1,2.1,0,0,1-.59,1.63,2,2,0,0,1-1.38.55,2.11,2.11,0,0,1-1.26-.35,3.52,3.52,0,0,1-.87-1l-6.93-12.06h-.11v12.43q0,.87-1.08.87t-1.08-.87V149.06a2.11,2.11,0,0,1,.58-1.62,1.9,1.9,0,0,1,1.36-.56,2.11,2.11,0,0,1,1.27.37,3.41,3.41,0,0,1,.86,1l7,12Z"/><path class="cls-1" d="M129.66,156.89a14.28,14.28,0,0,1,.27-3.1,3.32,3.32,0,0,1,2.55-2.77,13.76,13.76,0,0,1,5,0,3.52,3.52,0,0,1,1.63.91,3.74,3.74,0,0,1,.94,1.85,14.37,14.37,0,0,1,.26,3.1,14.21,14.21,0,0,1-.26,3.09,3.27,3.27,0,0,1-1,1.78,3.55,3.55,0,0,1-1.61.83,11.8,11.8,0,0,1-2.5.21,12.67,12.67,0,0,1-2.51-.2,3.4,3.4,0,0,1-1.62-.83,3.29,3.29,0,0,1-1-1.8A15.48,15.48,0,0,1,129.66,156.89Zm2.41-2.74a6.24,6.24,0,0,0-.25,2.14c0,1,0,1.84.08,2.44a2.9,2.9,0,0,0,.61,1.58,1.83,1.83,0,0,0,1.4.48q.34,0,1.08,0c1.4,0,2.23-.17,2.48-.51a3.25,3.25,0,0,0,.62-1.59c0-.58.08-1.19.08-1.81,0-1.87-.18-3-.53-3.39a2.45,2.45,0,0,0-.41-.43,2.85,2.85,0,0,0-1.68-.33c-.87,0-1.42,0-1.65,0-.73.05-1.2.21-1.39.49A6.36,6.36,0,0,0,132.07,154.15Z"/><path class="cls-1" d="M145.59,155.78v6q0,.84-1.08.84t-1.08-.84V155.5a7.57,7.57,0,0,1,.38-3,4,4,0,0,1,.72-1c.51-.47,1.8-.7,3.86-.7a6.62,6.62,0,0,1,2.08.21.75.75,0,0,1,.53.76,1.13,1.13,0,0,1-.29.83,1,1,0,0,1-.74.27l-1.58-.1a6.88,6.88,0,0,0-1.84.14,1.47,1.47,0,0,0-.54.27,1.67,1.67,0,0,0-.26.54,3,3,0,0,0-.15.84C145.59,154.84,145.59,155.25,145.59,155.78Z"/><path class="cls-1" d="M160.08,159.07v-.27a.89.89,0,0,0-.56-.83,5,5,0,0,0-2-.26,11.62,11.62,0,0,1-3.09-.43,2.59,2.59,0,0,1-1.41-.95,3.1,3.1,0,0,1-.56-1.92v-.2a2.83,2.83,0,0,1,1.21-2.7,7.49,7.49,0,0,1,3.68-.7,15.33,15.33,0,0,1,3.65.32,1,1,0,0,1,.74,1.08c0,.59-.24.89-.74.89-.25,0-.76-.06-1.51-.16a16.58,16.58,0,0,0-2.4-.16,6.16,6.16,0,0,0-1.88.21c-.39.14-.59.54-.59,1.18v.23c0,.85.89,1.3,2.67,1.36.74,0,1.49.09,2.24.18a3.35,3.35,0,0,1,1.89.84,2.44,2.44,0,0,1,.78,2v.29A3.23,3.23,0,0,1,161,162a7.53,7.53,0,0,1-3.93.78,16.85,16.85,0,0,1-3.88-.31,1,1,0,0,1-.73-1.08c0-.59.24-.89.73-.89a15.77,15.77,0,0,1,1.7.16,21.1,21.1,0,0,0,2.47.15,5.09,5.09,0,0,0,2-.32A1.39,1.39,0,0,0,160.08,159.07Z"/><path class="cls-1" d="M167.36,147.39v9.26l5.37-5.43a1.09,1.09,0,0,1,.79-.36,1,1,0,0,1,.75.3.9.9,0,0,1,.31.71,1.09,1.09,0,0,1-.39.79l-3.09,2.88,3.82,5.34a1.25,1.25,0,0,1,.23.71.87.87,0,0,1-.34.7,1.12,1.12,0,0,1-.79.33.82.82,0,0,1-.71-.38L169.56,157l-2.2,2v2.73c0,.56-.36.84-1.07.84s-1.08-.28-1.09-.84V147.39c0-.58.37-.87,1.09-.87S167.36,146.81,167.36,147.39Z"/><path class="cls-1" d="M195.4,147.87v13.89q0,.84-1.08.84c-.72,0-1.07-.28-1.07-.84V155.4h-7.54v6.36q0,.84-1.08.84t-1.08-.84V147.87q0-.87,1.08-.87t1.08.87v5.57h7.54v-5.57c0-.58.35-.87,1.07-.87S195.39,147.29,195.4,147.87Z"/><path class="cls-1" d="M202.48,167.28c-.62,0-.93-.28-.94-.84,0,0,0-.14.09-.38l1.28-3.46a2,2,0,0,1-1.17-1.24l-3.41-9.15c0-.25-.07-.38-.07-.39,0-.56.31-.85.93-.85a1.1,1.1,0,0,1,1.16.64l3.22,9h.12l3.21-9c.15-.42.54-.62,1.16-.62s.92.27.92.83c0,0,0,.14-.07.39l-5.27,14.44C203.48,167.07,203.1,167.28,202.48,167.28Z"/><path class="cls-1" d="M221.64,147.39v9.5a14.65,14.65,0,0,1-.26,3.07,3.29,3.29,0,0,1-.95,1.78,3.4,3.4,0,0,1-1.59.84,11.63,11.63,0,0,1-2.49.21,12.74,12.74,0,0,1-2.51-.2,3.49,3.49,0,0,1-1.62-.83,3.22,3.22,0,0,1-.94-1.8,16.15,16.15,0,0,1-.26-3.07,14.28,14.28,0,0,1,.27-3.1,3.35,3.35,0,0,1,2.55-2.77,12.71,12.71,0,0,1,2.77-.23,7.24,7.24,0,0,1,2.87.47v-3.87q0-.87,1.08-.87T221.64,147.39Zm-8.2,6.76a6.18,6.18,0,0,0-.26,2.14c0,1,0,1.84.08,2.44a3,3,0,0,0,.61,1.58,1.83,1.83,0,0,0,1.4.48q.36,0,1.08,0c1.4,0,2.23-.17,2.48-.51a3.15,3.15,0,0,0,.62-1.59c.05-.58.08-1.19.08-1.81,0-1.87-.17-3-.53-3.39a2.45,2.45,0,0,0-.4-.43,2.87,2.87,0,0,0-1.69-.33c-.87,0-1.41,0-1.65,0-.73.05-1.2.21-1.39.49A5.54,5.54,0,0,0,213.44,154.15Z"/><path class="cls-1" d="M227,155.78v6c0,.56-.35.84-1.07.84s-1.08-.28-1.08-.84V155.5a7.39,7.39,0,0,1,.38-3,4,4,0,0,1,.71-1c.52-.47,1.8-.7,3.86-.7a6.7,6.7,0,0,1,2.09.21.75.75,0,0,1,.53.76,1.1,1.1,0,0,1-.3.83,1,1,0,0,1-.73.27l-1.59-.1a6.93,6.93,0,0,0-1.84.14,1.66,1.66,0,0,0-.54.27,2,2,0,0,0-.25.54,2.66,2.66,0,0,0-.16.84C227.05,154.84,227,155.25,227,155.78Z"/><path class="cls-1" d="M233.48,156.89a15,15,0,0,1,.26-3.1,3.35,3.35,0,0,1,2.55-2.77,13.81,13.81,0,0,1,5,0,3.44,3.44,0,0,1,1.62.91,3.75,3.75,0,0,1,.95,1.85,15,15,0,0,1,.26,3.1,14.87,14.87,0,0,1-.26,3.09,3.27,3.27,0,0,1-1,1.78,3.6,3.6,0,0,1-1.61.83,11.84,11.84,0,0,1-2.51.21,12.74,12.74,0,0,1-2.51-.2,3.49,3.49,0,0,1-1.62-.83,3.28,3.28,0,0,1-.94-1.8A14.76,14.76,0,0,1,233.48,156.89Zm2.41-2.74a6.18,6.18,0,0,0-.26,2.14c0,1,0,1.84.08,2.44a3,3,0,0,0,.61,1.58,1.85,1.85,0,0,0,1.41.48c.23,0,.59,0,1.07,0,1.41,0,2.23-.17,2.48-.51a3.15,3.15,0,0,0,.62-1.59,17.74,17.74,0,0,0,.08-1.81c0-1.87-.17-3-.52-3.39a1.93,1.93,0,0,0-2.1-.76c-.86,0-1.41,0-1.65,0-.73.05-1.19.21-1.39.49A6.59,6.59,0,0,0,235.89,154.15Z"/></svg>