<svg id="Layer_1" data-name="Layer 1" xmlns="http://www.w3.org/2000/svg" viewBox="0 0 250 720"><defs><style>.cls-1{fill:#d80201;}</style></defs><title>text</title><path class="cls-1" d="M76.28,391.46c-2,2.17-5.18,1.83-7.87,1.83V401h-4V380.27h6c2,0,3.84.16,5.46,1.58a6.59,6.59,0,0,1,2.11,5A6.79,6.79,0,0,1,76.28,391.46Zm-3.53-7a4.82,4.82,0,0,0-2.95-.65h-1.4v6h1.64c2,0,3.75-.65,3.75-3A3.07,3.07,0,0,0,72.75,384.43Z"/><path class="cls-1" d="M86.7,401.39c-4.28,0-7.69-2.67-7.69-7.13s3.41-7.16,7.72-7.16,7.63,2.7,7.63,7.13S90.95,401.39,86.7,401.39Zm0-10.91a3.77,3.77,0,1,0,3.81,3.78A3.8,3.8,0,0,0,86.67,390.47Z"/><path class="cls-1" d="M105.48,401.39a5.37,5.37,0,0,1-4.5-2.2v8.93H97.24V387.53H101v1.71a5.35,5.35,0,0,1,4.4-2.14c4,0,6.64,3.32,6.64,7.16S109.42,401.39,105.48,401.39Zm-1.12-10.91a3.77,3.77,0,1,0,3.75,3.75A3.74,3.74,0,0,0,104.37,390.47Z"/><path class="cls-1" d="M121.36,401.39c-3.69,0-6.48-1.64-6.48-5.64v-8.22h3.75v7.6c0,1.83.78,3.07,2.73,3.07s2.73-1.24,2.73-3.07v-7.6h3.78v8.22C127.87,399.74,125,401.39,121.36,401.39Z"/><path class="cls-1" d="M131.46,401V377.73h3.75V401Z"/><path class="cls-1" d="M149.07,401v-1.77a5.19,5.19,0,0,1-4.37,2.2c-4,0-6.6-3.35-6.6-7.19s2.57-7.1,6.51-7.1a5.59,5.59,0,0,1,4.46,2.14v-1.71h3.78V401ZM142.59,385a2.23,2.23,0,1,1,0-4.46,2.23,2.23,0,0,1,0,4.46Zm3.13,5.46a3.77,3.77,0,1,0,3.75,3.75A3.74,3.74,0,0,0,145.72,390.47ZM149,385a2.26,2.26,0,0,1-2.23-2.23A2.23,2.23,0,1,1,149,385Z"/><path class="cls-1" d="M165.22,390.94a3.32,3.32,0,0,0-1.8-.46c-2.54,0-3.22,1.8-3.22,4V401h-3.75V387.53h3.75v2a4.38,4.38,0,0,1,5.55-2.14Z"/><path class="cls-1" d="M177.87,401v-1.77a5.19,5.19,0,0,1-4.37,2.2c-4,0-6.6-3.35-6.6-7.19s2.57-7.1,6.51-7.1a5.59,5.59,0,0,1,4.46,2.14v-1.71h3.78V401Zm-3.35-10.48a3.77,3.77,0,1,0,3.75,3.75A3.74,3.74,0,0,0,174.52,390.47Z"/><path class="cls-1" d="M61.68,438l-1.83-12.74-5.71,13H53l-5.49-13L45.47,438H41.41l3.84-21.05H48l5.64,13.52,5.89-13.52H62.3L65.75,438Z"/><path class="cls-1" d="M79.41,438.42a10.73,10.73,0,0,1-11-10.76,11.06,11.06,0,1,1,11,10.76Zm0-17.92a7.13,7.13,0,1,0,6.92,7.1A7,7,0,0,0,79.41,420.5Z"/><path class="cls-1" d="M101.89,438.48H99.75l-8.81-21.21h4.4l5.52,13.89,5.58-13.89h4.37Z"/><path class="cls-1" d="M113.26,438V417.27h11.44v3.5h-7.41v4.59h7.13v3.5h-7.13v5.58h7.41V438Z"/><path class="cls-1" d="M152.11,426H149l-.43,2.79h3.16l-.53,3.38H148l-.93,5.77h-3.88l.93-5.77h-2.85l-.9,5.77h-3.84l.93-5.77h-3.19l.53-3.38H138l.43-2.79h-3.16l.53-3.41H139l.84-5.33h3.84l-.87,5.33h2.85l.84-5.33h3.88l-.84,5.33h3.13Zm-9.86,0-.43,2.79h2.85l.43-2.79Z"/><path class="cls-1" d="M160.76,438.48c-3.84,0-7.22-2.48-7.44-6.48h4.06a3.37,3.37,0,1,0,3.5-3.63,6,6,0,0,0-.74.06v-2.91a3.44,3.44,0,0,0,.56,0,2.81,2.81,0,1,0,.09-5.61c-1.77,0-2.6,1.08-2.82,2.73h-3.81c.59-3.91,3-5.92,6.91-5.92,3.44,0,6.29,2,6.29,5.71a4.61,4.61,0,0,1-2.39,4.4,5.09,5.09,0,0,1,3.16,5.08C168.14,436.15,164.69,438.48,160.76,438.48Z"/><path class="cls-1" d="M178.92,438.48c-5.71,0-8-6-8-10.85s2.26-10.88,8-10.88,8,6,8,10.85S184.66,438.48,178.92,438.48Zm0-18.17c-3.16,0-4,4.9-4,7.29s.81,7.35,4,7.35,4-5,4-7.35S182.08,420.31,178.92,420.31Z"/><path class="cls-1" d="M188.25,438l6.11-6.91c1.67-1.89,4.74-5,4.74-7.66a3.09,3.09,0,0,0-3.13-3.07c-2,0-3,1.52-3.07,3.41h-4.31c.28-4.19,3-7,7.25-7,3.88,0,7.29,2.54,7.29,6.64,0,2.88-1.89,5.24-3.75,7.22l-3.6,3.84h7.5V438Z"/></svg>