<svg id="Layer_1" data-name="Layer 1" xmlns="http://www.w3.org/2000/svg" viewBox="0 0 250 720"><defs><style>.cls-1{fill:#d80201;}</style></defs><title>text</title><path class="cls-1" d="M78.62,391.46c-2,2.17-5.18,1.83-7.87,1.83V401h-4V380.27h6c2,0,3.84.16,5.46,1.58a6.59,6.59,0,0,1,2.11,5A6.79,6.79,0,0,1,78.62,391.46Zm-3.53-7a4.82,4.82,0,0,0-2.95-.65h-1.4v6h1.64c2,0,3.75-.65,3.75-3A3.07,3.07,0,0,0,75.08,384.43Z"/><path class="cls-1" d="M89,401.39c-4.28,0-7.69-2.67-7.69-7.13s3.41-7.16,7.72-7.16,7.63,2.7,7.63,7.13S93.28,401.39,89,401.39Zm0-10.91a3.77,3.77,0,1,0,3.81,3.78A3.8,3.8,0,0,0,89,390.47Z"/><path class="cls-1" d="M107.82,401.39a5.37,5.37,0,0,1-4.5-2.2v8.93H99.57V387.53h3.75v1.71a5.35,5.35,0,0,1,4.4-2.14c4,0,6.64,3.32,6.64,7.16S111.76,401.39,107.82,401.39Zm-1.12-10.91a3.77,3.77,0,1,0,3.75,3.75A3.74,3.74,0,0,0,106.7,390.47Z"/><path class="cls-1" d="M123.69,401.39c-3.69,0-6.48-1.64-6.48-5.64v-8.22H121v7.6c0,1.83.77,3.07,2.73,3.07s2.73-1.24,2.73-3.07v-7.6h3.78v8.22C130.2,399.74,127.38,401.39,123.69,401.39Z"/><path class="cls-1" d="M133.79,401V377.73h3.75V401Z"/><path class="cls-1" d="M151.4,401v-1.77a5.19,5.19,0,0,1-4.37,2.2c-4,0-6.6-3.35-6.6-7.19s2.57-7.1,6.51-7.1a5.59,5.59,0,0,1,4.46,2.14v-1.71h3.78V401ZM144.92,385a2.23,2.23,0,1,1,0-4.46,2.23,2.23,0,0,1,0,4.46Zm3.13,5.46a3.77,3.77,0,1,0,3.75,3.75A3.75,3.75,0,0,0,148.05,390.47Zm3.32-5.46a2.26,2.26,0,0,1-2.23-2.23,2.23,2.23,0,1,1,2.23,2.23Z"/><path class="cls-1" d="M167.55,390.94a3.32,3.32,0,0,0-1.8-.46c-2.54,0-3.22,1.8-3.22,4V401h-3.75V387.53h3.75v2a4.38,4.38,0,0,1,5.55-2.14Z"/><path class="cls-1" d="M180.2,401v-1.77a5.19,5.19,0,0,1-4.37,2.2c-4,0-6.6-3.35-6.6-7.19s2.57-7.1,6.51-7.1a5.59,5.59,0,0,1,4.46,2.14v-1.71H184V401Zm-3.35-10.48a3.77,3.77,0,1,0,3.75,3.75A3.75,3.75,0,0,0,176.85,390.47Z"/><path class="cls-1" d="M64,438l-1.83-12.74-5.71,13H55.37l-5.49-13L47.8,438H43.74l3.84-21.05h2.76L56,430.42l5.89-13.52h2.76L68.08,438Z"/><path class="cls-1" d="M81.75,438.42a10.73,10.73,0,0,1-11-10.76,11.06,11.06,0,1,1,11,10.76Zm0-17.92a7.13,7.13,0,1,0,6.91,7.1A7,7,0,0,0,81.75,420.5Z"/><path class="cls-1" d="M104.22,438.48h-2.14l-8.81-21.21h4.4l5.52,13.89,5.58-13.89h4.37Z"/><path class="cls-1" d="M115.6,438V417.27H127v3.5h-7.41v4.59h7.13v3.5h-7.13v5.58H127V438Z"/><path class="cls-1" d="M154.44,426h-3.13l-.43,2.79H154l-.53,3.38h-3.16l-.93,5.77h-3.88l.93-5.77h-2.85l-.9,5.77h-3.84l.93-5.77h-3.19l.53-3.38h3.19l.43-2.79h-3.16l.53-3.41h3.16l.84-5.33H146l-.87,5.33H148l.84-5.33h3.88l-.84,5.33H155Zm-9.86,0-.43,2.79H147l.43-2.79Z"/><path class="cls-1" d="M161.94,438V420.81h-3v-3.54h7V438Z"/><path class="cls-1" d="M181.26,438.48c-5.71,0-8-6-8-10.85s2.26-10.88,8-10.88,8,6,8,10.85S187,438.48,181.26,438.48Zm0-18.17c-3.16,0-4,4.9-4,7.29s.81,7.35,4,7.35,4-5,4-7.35S184.42,420.31,181.26,420.31Z"/><path class="cls-1" d="M198.74,438.48c-4.19,0-7.75-2.7-7.75-7.1a11.66,11.66,0,0,1,2.6-6.54c2-2.85,4.19-5.61,6.29-8.43l2.85,2.17-4.9,6.26a6.38,6.38,0,0,1,8.84,6.33C206.68,435.78,203.17,438.48,198.74,438.48Zm.12-10.91a3.86,3.86,0,1,0,3.78,3.84A3.83,3.83,0,0,0,198.86,427.57Z"/></svg>