<svg id="Layer_1" data-name="Layer 1" xmlns="http://www.w3.org/2000/svg" viewBox="0 0 250 720"><defs><style>.cls-1{fill:#d4ac76;}</style></defs><title>text</title><path class="cls-1" d="M53.3,67.84,47.69,53.16h2.87l4,10.56,4-10.56h2.79L55.8,67.84Z"/><path class="cls-1" d="M64.83,67.84V53.16h2.75V67.84Z"/><path class="cls-1" d="M76.6,68a7.06,7.06,0,0,1-2.77-.58,7.23,7.23,0,0,1-2.38-1.61l1.75-2.09a5.33,5.33,0,0,0,1.62,1.31,4.14,4.14,0,0,0,1.93.51,2.37,2.37,0,0,0,1.57-.5,1.58,1.58,0,0,0,.61-1.27,2.19,2.19,0,0,0-1.61-2l-1.64-.66a6.31,6.31,0,0,1-2.44-1.62,3.75,3.75,0,0,1-.79-2.5,3.81,3.81,0,0,1,1.25-2.79A4.26,4.26,0,0,1,76.81,53a6.32,6.32,0,0,1,4.52,1.68l-1.62,2a3.78,3.78,0,0,0-2.9-1.28,2,2,0,0,0-1.32.42,1.31,1.31,0,0,0-.5,1,1.37,1.37,0,0,0,.39,1,3.9,3.9,0,0,0,1.26.76l1.71.69q3.27,1.31,3.33,4.24A4.11,4.11,0,0,1,80.3,66.8,5.35,5.35,0,0,1,76.6,68Z"/><path class="cls-1" d="M85.88,67.84V53.16h1.93L95,62.39V53.16h2.75V67.84H95.95L88.63,58.5v9.35Z"/><path class="cls-1" d="M103,67.84V53.16h2.75V67.84Z"/><path class="cls-1" d="M111,67.84V53.16H113l7.23,9.24V53.16h2.75V67.84H121.1l-7.31-9.35v9.35Z"/><path class="cls-1" d="M137.16,61.71V59.26h5.26l0,1.25a7.53,7.53,0,0,1-1.07,3.9,7.41,7.41,0,0,1-2.78,2.71,7.59,7.59,0,0,1-3.74,1,7.62,7.62,0,1,1,0-15.24,7.24,7.24,0,0,1,5.47,2.37l-1.88,1.86a4.75,4.75,0,0,0-3.61-1.59,4.67,4.67,0,0,0-3.51,1.44,5.19,5.19,0,0,0,0,7.08,4.48,4.48,0,0,0,3.33,1.44,5.21,5.21,0,0,0,3.27-1,4.65,4.65,0,0,0,1.73-2.7Z"/><path class="cls-1" d="M150.54,68a7.05,7.05,0,0,1-2.77-.58,7.22,7.22,0,0,1-2.38-1.61l1.75-2.09a5.33,5.33,0,0,0,1.62,1.31,4.14,4.14,0,0,0,1.93.51,2.38,2.38,0,0,0,1.57-.5,1.58,1.58,0,0,0,.61-1.27,2.19,2.19,0,0,0-1.61-2l-1.64-.66a6.31,6.31,0,0,1-2.44-1.62,3.75,3.75,0,0,1-.79-2.5,3.81,3.81,0,0,1,1.25-2.79A4.26,4.26,0,0,1,150.75,53a6.32,6.32,0,0,1,4.52,1.68l-1.62,2a3.78,3.78,0,0,0-2.9-1.28,2,2,0,0,0-1.32.42,1.31,1.31,0,0,0-.5,1,1.37,1.37,0,0,0,.39,1,3.9,3.9,0,0,0,1.26.76l1.71.69q3.27,1.31,3.33,4.24a4.11,4.11,0,0,1-1.38,3.21A5.35,5.35,0,0,1,150.54,68Z"/><path class="cls-1" d="M168.87,67.84V61.71h-6.29v6.14h-2.75V53.16h2.75v5.91h6.29V53.16h2.75V67.84Z"/><path class="cls-1" d="M186.19,66.52a6,6,0,0,1-8,0,5.2,5.2,0,0,1-1.59-3.89V53.16h2.75v9.12a3.37,3.37,0,0,0,.76,2.27,2.92,2.92,0,0,0,4.18,0,3.3,3.3,0,0,0,.76-2.24V53.16h2.75v9.48A5.2,5.2,0,0,1,186.19,66.52Z"/><path class="cls-1" d="M196.66,68a7.05,7.05,0,0,1-2.77-.58,7.22,7.22,0,0,1-2.38-1.61l1.75-2.09a5.33,5.33,0,0,0,1.62,1.31,4.14,4.14,0,0,0,1.93.51,2.38,2.38,0,0,0,1.57-.5,1.58,1.58,0,0,0,.61-1.27,2.19,2.19,0,0,0-1.61-2l-1.64-.66a6.31,6.31,0,0,1-2.44-1.62,3.75,3.75,0,0,1-.79-2.5,3.81,3.81,0,0,1,1.25-2.79A4.26,4.26,0,0,1,196.87,53a6.32,6.32,0,0,1,4.52,1.68l-1.62,2a3.78,3.78,0,0,0-2.9-1.28,2,2,0,0,0-1.32.42,1.31,1.31,0,0,0-.5,1,1.37,1.37,0,0,0,.39,1,3.9,3.9,0,0,0,1.26.76l1.71.69q3.27,1.31,3.33,4.24a4.11,4.11,0,0,1-1.38,3.21A5.35,5.35,0,0,1,196.66,68Z"/><path class="cls-1" d="M54.42,90.64V76h2.75V90.64Z"/><path class="cls-1" d="M79.22,84.51V82.06h5.26l0,1.25a7.53,7.53,0,0,1-1.07,3.89,7.41,7.41,0,0,1-2.78,2.71,7.59,7.59,0,0,1-3.74,1,7.62,7.62,0,1,1,0-15.24A7.24,7.24,0,0,1,82.37,78l-1.88,1.86a4.75,4.75,0,0,0-3.61-1.59,4.68,4.68,0,0,0-3.52,1.44,5.2,5.2,0,0,0,0,7.08,4.48,4.48,0,0,0,3.33,1.44,5.21,5.21,0,0,0,3.27-1,4.66,4.66,0,0,0,1.73-2.7Z"/><path class="cls-1" d="M103.29,83.29a7.62,7.62,0,1,1-2.23-5.39A7.31,7.31,0,0,1,103.29,83.29ZM92.21,86.8a4.83,4.83,0,0,0,6.91,0,5,5,0,0,0,0-7,4.83,4.83,0,0,0-6.91,0,5.07,5.07,0,0,0,0,7Zm2.17-12.35a1.18,1.18,0,0,1-.9.39,1.21,1.21,0,0,1-.91-.39,1.31,1.31,0,0,1,.91-2.25,1.21,1.21,0,0,1,.89.38,1.28,1.28,0,0,1,.38.93A1.32,1.32,0,0,1,94.38,74.45Zm4.37,0a1.41,1.41,0,0,1-1.95,0,1.26,1.26,0,0,1-.4-.94,1.23,1.23,0,0,1,.4-.93,1.44,1.44,0,0,1,1.95,0,1.23,1.23,0,0,1,.4.93A1.26,1.26,0,0,1,98.75,74.45Z"/><path class="cls-1" d="M105.46,78.6V76h12.1V78.6h-4.67v12h-2.75v-12Z"/><path class="cls-1" d="M129.27,84.43h-5.43v3.76h6v2.45h-8.72V76h8.55v2.45h-5.79V82h5.43Z"/><path class="cls-1" d="M134.26,90.64V76h4.83a4.43,4.43,0,0,1,3.21,1.22,4.06,4.06,0,0,1,1.26,3,3.46,3.46,0,0,1-1.65,3,4.09,4.09,0,0,1,1.63,1.32,3.11,3.11,0,0,1,.61,1.87,4,4,0,0,1-1.29,3.11,4.6,4.6,0,0,1-3.25,1.18Zm4.51-12.24h-2v3.69H139a2,2,0,0,0,1.46-.54A1.81,1.81,0,0,0,141,80.2a1.57,1.57,0,0,0-.62-1.3A2.57,2.57,0,0,0,138.77,78.41Zm.42,5.89h-2.38v3.89h2.33a2.38,2.38,0,0,0,1.66-.55,1.83,1.83,0,0,0,.61-1.42,1.8,1.8,0,0,0-.57-1.39A2.34,2.34,0,0,0,139.19,84.3Z"/><path class="cls-1" d="M162.8,83.29a7.62,7.62,0,1,1-2.23-5.39A7.31,7.31,0,0,1,162.8,83.29Zm-11.09,3.5a4.83,4.83,0,0,0,6.91,0,5,5,0,0,0,0-7,4.83,4.83,0,0,0-6.91,0,5.07,5.07,0,0,0,0,7Z"/><path class="cls-1" d="M167,90.64V76h5.75a5,5,0,0,1,3.54,1.33,4.57,4.57,0,0,1,1.41,3.48,4.41,4.41,0,0,1-1.05,3,4.72,4.72,0,0,1-2.74,1.56l3.95,5.33h-3.1L171,85.4h-1.19v5.24Zm5.32-12.24h-2.56V83.2h2.56a2.72,2.72,0,0,0,1.91-.65,2.19,2.19,0,0,0,.71-1.7,2.31,2.31,0,0,0-.73-1.74A2.62,2.62,0,0,0,172.34,78.41Z"/><path class="cls-1" d="M191.24,84.51V82.06h5.26l0,1.25a7.52,7.52,0,0,1-1.07,3.89,7.4,7.4,0,0,1-2.78,2.71,7.59,7.59,0,0,1-3.74,1,7.62,7.62,0,1,1,0-15.24A7.24,7.24,0,0,1,194.4,78l-1.88,1.86a4.75,4.75,0,0,0-3.61-1.59,4.67,4.67,0,0,0-3.51,1.44,5.19,5.19,0,0,0,0,7.08,4.48,4.48,0,0,0,3.33,1.44,5.21,5.21,0,0,0,3.27-1,4.65,4.65,0,0,0,1.73-2.7Z"/></svg>