<svg id="Layer_1" data-name="Layer 1" xmlns="http://www.w3.org/2000/svg" viewBox="0 0 250 720"><defs><style>.cls-1{fill:#d4ac76;}</style></defs><title>text</title><path class="cls-1" d="M12,537.26,8.4,528H9.85l2.78,7.13L15.42,528h1.43l-3.63,9.28Z"/><path class="cls-1" d="M24.57,537.26V528H25.9l3,4.95,3-4.95H33.2v9.28H31.9v-6.85l0,0-3,4.79L26,530.45h-.08v6.81Z"/><path class="cls-1" d="M41.08,537.43a4.57,4.57,0,0,1-3.35-1.38,5,5,0,0,1,0-6.88,4.6,4.6,0,0,1,3.35-1.37,4.54,4.54,0,0,1,3.33,1.38,4.94,4.94,0,0,1,0,6.87A4.54,4.54,0,0,1,41.08,537.43Zm-2.43-2.28a3.36,3.36,0,0,0,4.86,0,3.73,3.73,0,0,0,0-5.07,3.35,3.35,0,0,0-4.85,0,3.71,3.71,0,0,0,0,5.07ZM40.21,527a.63.63,0,0,1-.46.2.61.61,0,0,1-.46-.2.76.76,0,0,1-.19-.51.74.74,0,0,1,.19-.5.58.58,0,0,1,.46-.2.59.59,0,0,1,.46.2.69.69,0,0,1,.19.5A.72.72,0,0,1,40.21,527Zm2.57,0a.63.63,0,0,1-.92,0,.72.72,0,0,1-.19-.51.69.69,0,0,1,.19-.5.63.63,0,0,1,.92,0,.69.69,0,0,1,.19.5A.72.72,0,0,1,42.78,527Z"/><path class="cls-1" d="M49.05,537.26V528h1.3v8h3.81v1.24Z"/><path class="cls-1" d="M57,537.26V528H58.3v8h3.82v1.24Z"/><path class="cls-1" d="M70.08,533.19H66.26V536h4.08v1.24H65V528h5.31v1.24h-4V532h3.82Z"/><path class="cls-1" d="M73.56,537.26V528H76a4.63,4.63,0,0,1,4.6,4.62,4.47,4.47,0,0,1-1.35,3.34A4.53,4.53,0,0,1,76,537.26Zm2.53-8H74.85V536h1.28a3,3,0,0,0,2.28-1,3.43,3.43,0,0,0,.93-2.43,3.31,3.31,0,0,0-1-2.41A3.08,3.08,0,0,0,76.09,529.22Z"/><path class="cls-1" d="M82.47,537.26,86.2,528h1.17L91,537.26H89.59L89,535.83H84.48l-.57,1.43Zm4.31-7.15L85,534.59h3.56Z"/><path class="cls-1" d="M93.6,537.26V528h1.29v8h3.82v1.24Z"/><path class="cls-1" d="M104,537.38a4.46,4.46,0,0,1-1.74-.37,4.61,4.61,0,0,1-1.47-1l.92-1a3.33,3.33,0,0,0,1.07.84,2.64,2.64,0,0,0,1.28.34,1.8,1.8,0,0,0,1.2-.39,1.25,1.25,0,0,0,.46-1,1.62,1.62,0,0,0-1.17-1.52l-1.1-.43a3.86,3.86,0,0,1-1.51-1,2.15,2.15,0,0,1-.5-1.47,2.32,2.32,0,0,1,.76-1.75,2.63,2.63,0,0,1,1.9-.73,3.75,3.75,0,0,1,2.69,1l-.78,1a2.58,2.58,0,0,0-1.91-.83,1.51,1.51,0,0,0-1,.32,1.09,1.09,0,0,0-.38.86,1.07,1.07,0,0,0,.28.72,2.72,2.72,0,0,0,.94.57L105,532a2.64,2.64,0,0,1,1.95,2.65,2.57,2.57,0,0,1-.82,2A3.1,3.1,0,0,1,104,537.38Z"/><path class="cls-1" d="M112.56,537.26,108.94,528h1.46l2.78,7.13L116,528h1.44l-3.63,9.28Z"/><path class="cls-1" d="M119.56,537.17a.71.71,0,0,1-.55.23.69.69,0,0,1-.54-.23.75.75,0,0,1-.23-.55.8.8,0,0,1,.22-.56.76.76,0,0,1,.55-.22.78.78,0,0,1,.55.22.73.73,0,0,1,.23.56A.71.71,0,0,1,119.56,537.17Z"/><path class="cls-1" d="M129.1,537.26v-7.62l-1.74.89v-1.24l2.47-1.36h.57v9.33Z"/><path class="cls-1" d="M133.32,535.13v-.81l3.22-6.34h1.36l-3.05,6h2v-1.56h1.29V534h1.12v1.15h-1.12v2.13h-1.29v-2.13Z"/><path class="cls-1" d="M141.19,537.26l3.72-9.28h1.17l3.66,9.28H148.3l-.56-1.43H143.2l-.58,1.43Zm4.31-7.15-1.81,4.48h3.57Z"/><path class="cls-1" d="M151.69,539l1.07-3,1.18.42-1.46,2.85Z"/><path class="cls-1" d="M167.9,537.26v-4h-4.51v4h-1.3V528h1.3v4h4.51v-4h1.3v9.28Z"/><path class="cls-1" d="M177.13,537.43a4.54,4.54,0,0,1-3.34-1.38,5,5,0,0,1,0-6.88,4.74,4.74,0,0,1,6.68,0,4.94,4.94,0,0,1,0,6.87A4.56,4.56,0,0,1,177.13,537.43Zm-2.42-2.28a3.35,3.35,0,0,0,4.85,0,3.51,3.51,0,0,0,1-2.54,3.56,3.56,0,0,0-1-2.53,3.27,3.27,0,0,0-2.43-1,3.23,3.23,0,0,0-2.42,1,3.71,3.71,0,0,0,0,5.07Zm1.55-8.15a.61.61,0,0,1-.46.2.63.63,0,0,1-.46-.2.76.76,0,0,1-.18-.51.73.73,0,0,1,.18-.5.59.59,0,0,1,.46-.2.58.58,0,0,1,.46.2.7.7,0,0,1,.2.5A.73.73,0,0,1,176.26,527Zm2.58,0a.64.64,0,0,1-.93,0,.76.76,0,0,1-.18-.51.73.73,0,0,1,.18-.5.6.6,0,0,1,.47-.2.59.59,0,0,1,.46.2.73.73,0,0,1,.18.5A.76.76,0,0,1,178.84,527Z"/><path class="cls-1" d="M185.11,537.26V528h1.29v8h3.82v1.24Z"/><path class="cls-1" d="M193.06,537.26V528h1.3v8h3.82v1.24Z"/><path class="cls-1" d="M202.32,537.26,198.7,528h1.46l2.78,7.13,2.78-7.13h1.44l-3.63,9.28Z"/><path class="cls-1" d="M209.71,537.26V528H211v9.28Z"/><path class="cls-1" d="M214.81,537.26V528h1.29v4.4L220,528h1.74l-3.27,3.68,3.35,5.6h-1.61l-2.7-4.53-1.38,1.55v3Z"/><path class="cls-1" d="M229.72,533.19h-3.81V536H230v1.24h-5.38V528h5.31v1.24h-4V532h3.81Z"/><path class="cls-1" d="M233.2,537.26V528h.91l5,6.39V528h1.3v9.28h-.72l-5.21-6.63v6.63Z"/><path class="cls-1" d="M12.6,557.38a4.46,4.46,0,0,1-1.74-.37,4.61,4.61,0,0,1-1.47-1l.91-1a3.44,3.44,0,0,0,1.07.84,2.71,2.71,0,0,0,1.29.34,1.78,1.78,0,0,0,1.19-.39,1.26,1.26,0,0,0,.47-1,1.62,1.62,0,0,0-1.17-1.52l-1.1-.43a3.9,3.9,0,0,1-1.52-1,2.2,2.2,0,0,1-.5-1.47,2.33,2.33,0,0,1,.77-1.75,2.62,2.62,0,0,1,1.89-.73,3.74,3.74,0,0,1,2.69,1l-.78,1a2.57,2.57,0,0,0-1.91-.83,1.48,1.48,0,0,0-1,.32,1.09,1.09,0,0,0-.38.86,1,1,0,0,0,.28.72,2.63,2.63,0,0,0,.94.57l1.11.45a2.61,2.61,0,0,1,1.95,2.65,2.54,2.54,0,0,1-.82,2A3.06,3.06,0,0,1,12.6,557.38Z"/><path class="cls-1" d="M23,557.43a4.55,4.55,0,0,1-3.35-1.38,5,5,0,0,1,0-6.88,4.74,4.74,0,0,1,8.07,3.44,4.64,4.64,0,0,1-1.39,3.44A4.54,4.54,0,0,1,23,557.43Zm-2.43-2.28a3.35,3.35,0,0,0,4.85,0,3.71,3.71,0,0,0,0-5.07,3.35,3.35,0,0,0-4.85,0,3.71,3.71,0,0,0,0,5.07ZM22.17,547a.63.63,0,0,1-.47.2.59.59,0,0,1-.45-.2.72.72,0,0,1-.19-.51.69.69,0,0,1,.19-.5.56.56,0,0,1,.45-.2.6.6,0,0,1,.47.2.74.74,0,0,1,.19.5A.76.76,0,0,1,22.17,547Zm2.57,0a.63.63,0,0,1-.46.2.6.6,0,0,1-.46-.2.72.72,0,0,1-.19-.51.69.69,0,0,1,.19-.5.57.57,0,0,1,.46-.2.59.59,0,0,1,.46.2.74.74,0,0,1,.19.5A.76.76,0,0,1,24.74,547Z"/><path class="cls-1" d="M31,557.26V548h.9l5,6.39V548h1.29v9.28h-.72l-5.2-6.63v6.63Z"/><path class="cls-1" d="M42.11,557.26V548H44.6a4.63,4.63,0,0,1,4.59,4.62,4.47,4.47,0,0,1-1.35,3.34,4.53,4.53,0,0,1-3.29,1.32Zm2.54-8H43.41V556h1.27A3,3,0,0,0,47,555a3.47,3.47,0,0,0,.92-2.43,3.3,3.3,0,0,0-1-2.41A3.09,3.09,0,0,0,44.65,549.22Z"/><path class="cls-1" d="M51,557.26,54.75,548h1.17l3.66,9.28H58.14l-.56-1.43H53l-.58,1.43Zm4.3-7.15-1.8,4.48H57.1Z"/><path class="cls-1" d="M67.77,553.23V552h3.08v.65a4.76,4.76,0,0,1-4.8,4.77A4.54,4.54,0,0,1,62.67,556a5,5,0,0,1,0-6.85,4.51,4.51,0,0,1,3.38-1.39,5.1,5.1,0,0,1,2,.38,4.87,4.87,0,0,1,1.59,1.08l-1,1a3.4,3.4,0,0,0-5-.16,3.76,3.76,0,0,0,0,5.06,3.24,3.24,0,0,0,2.46,1,3.31,3.31,0,0,0,2.23-.81,3.63,3.63,0,0,0,1.17-2.14Z"/><path class="cls-1" d="M78.41,557.26v-.82l3.71-4.89a1.88,1.88,0,0,0,.51-1.18,1.34,1.34,0,0,0-.4-1,1.41,1.41,0,0,0-1-.4,1.29,1.29,0,0,0-1,.45,1.8,1.8,0,0,0-.43,1.17H78.45a2.72,2.72,0,0,1,.77-2,2.59,2.59,0,0,1,2-.8,2.78,2.78,0,0,1,2,.72,2.42,2.42,0,0,1,.77,1.82,3.29,3.29,0,0,1-1,2l-2.9,3.69h4v1.15Z"/><path class="cls-1" d="M89.28,557.4a2.88,2.88,0,0,1-2-.78,2.65,2.65,0,0,1-.86-1.89h1.3a1.33,1.33,0,0,0,.48,1,1.56,1.56,0,0,0,1.08.43,1.61,1.61,0,0,0,1.16-.45,1.52,1.52,0,0,0,.46-1.11,1.55,1.55,0,0,0-.46-1.14,1.53,1.53,0,0,0-1.12-.45h-.54l0-1.15h.52a1.42,1.42,0,0,0,1.07-.43,1.39,1.39,0,0,0,.43-1,1.36,1.36,0,0,0-.43-1,1.6,1.6,0,0,0-2.15,0,1.44,1.44,0,0,0-.43,1H86.49a2.38,2.38,0,0,1,.8-1.85,2.81,2.81,0,0,1,2-.77,2.77,2.77,0,0,1,2,.76,2.45,2.45,0,0,1,.8,1.85,2.13,2.13,0,0,1-.39,1.25,2.23,2.23,0,0,1-1,.79,2.19,2.19,0,0,1,1.09.82,2.26,2.26,0,0,1,.4,1.34,2.63,2.63,0,0,1-.85,2A2.82,2.82,0,0,1,89.28,557.4Z"/><path class="cls-1" d="M102.68,557.38a4.46,4.46,0,0,1-1.74-.37,4.61,4.61,0,0,1-1.47-1l.92-1a3.33,3.33,0,0,0,1.07.84,2.64,2.64,0,0,0,1.28.34,1.8,1.8,0,0,0,1.2-.39,1.25,1.25,0,0,0,.46-1,1.62,1.62,0,0,0-1.17-1.52l-1.1-.43a3.86,3.86,0,0,1-1.51-1,2.15,2.15,0,0,1-.5-1.47,2.32,2.32,0,0,1,.76-1.75,2.63,2.63,0,0,1,1.9-.73,3.75,3.75,0,0,1,2.69,1l-.78,1a2.58,2.58,0,0,0-1.91-.83,1.51,1.51,0,0,0-1,.32,1.09,1.09,0,0,0-.38.86,1.07,1.07,0,0,0,.28.72,2.72,2.72,0,0,0,.94.57l1.12.45a2.64,2.64,0,0,1,2,2.65,2.57,2.57,0,0,1-.82,2A3.1,3.1,0,0,1,102.68,557.38Z"/><path class="cls-1" d="M114,553.19h-3.82V556h4.08v1.24h-5.37V548h5.3v1.24h-4V552H114Z"/><path class="cls-1" d="M117.47,557.26V548h3.16a2.92,2.92,0,0,1,2.16.87,3,3,0,0,1,.86,2.2,2.9,2.9,0,0,1-.89,2.17,3,3,0,0,1-2.18.87h-1.81v3.17Zm3.08-8h-1.78v3.63h1.79a1.7,1.7,0,0,0,1.79-1.8,1.78,1.78,0,0,0-.51-1.31A1.72,1.72,0,0,0,120.55,549.22Z"/><path class="cls-1" d="M125.56,549.22V548h7.51v1.24H130v8h-1.29v-8Z"/><path class="cls-1" d="M140.76,553.19H137V556H141v1.24h-5.38V548H141v1.24h-4V552h3.81Z"/><path class="cls-1" d="M144.24,557.26V548h1.33l3,4.95,3-4.95h1.27v9.28h-1.3v-6.85l0,0-3,4.79-2.93-4.72h-.08v6.81Z"/><path class="cls-1" d="M156.68,557.26V548h2.84a3,3,0,0,1,2,.72,2.4,2.4,0,0,1,.8,1.87,2.19,2.19,0,0,1-1.1,2,2.35,2.35,0,0,1,1,.84,2.22,2.22,0,0,1,.37,1.25,2.38,2.38,0,0,1-.81,1.89,3,3,0,0,1-2.07.72Zm2.71-8H158V552h1.65a1.42,1.42,0,0,0,1.45-1.48,1.18,1.18,0,0,0-.47-1A1.87,1.87,0,0,0,159.39,549.22Zm.29,4H158V556h1.61a1.94,1.94,0,0,0,1.28-.39,1.34,1.34,0,0,0,.47-1.07,1.27,1.27,0,0,0-.43-1A1.79,1.79,0,0,0,159.68,553.19Z"/><path class="cls-1" d="M171,553.19h-3.81V556h4.08v1.24h-5.38V548h5.3v1.24h-4V552H171Z"/><path class="cls-1" d="M174.48,557.26V548h3.44a2.88,2.88,0,0,1,2.09.81,3,3,0,0,1,.15,4,2.75,2.75,0,0,1-1.78.91l2.69,3.53h-1.6l-2.66-3.54h-1v3.54Zm3.27-8h-2v3.35h2a1.9,1.9,0,0,0,1.31-.46,1.58,1.58,0,0,0,.51-1.22,1.55,1.55,0,0,0-.52-1.19A1.81,1.81,0,0,0,177.75,549.22Z"/><path class="cls-1" d="M189.12,557.26V548h1.3v4.4l3.86-4.4H196l-3.27,3.68,3.36,5.6H194.5l-2.7-4.53-1.38,1.55v3Z"/><path class="cls-1" d="M198.92,557.26V548h1.3v8H204v1.24Z"/><path class="cls-1" d="M213,557.26v-7.62l-1.74.89v-1.24l2.46-1.36h.58v9.33Z"/><path class="cls-1" d="M218.94,557.26v-7.62l-1.74.89v-1.24l2.46-1.36h.58v9.33Z"/><path class="cls-1" d="M223.39,553.21v-1.15H227v1.15Z"/><path class="cls-1" d="M230.53,557.26v-7.62l-1.74.89v-1.24l2.46-1.36h.58v9.33Z"/><path class="cls-1" d="M237.57,557.4a2.86,2.86,0,0,1-2-.78,2.57,2.57,0,0,1-.86-1.89H236a1.35,1.35,0,0,0,.49,1,1.53,1.53,0,0,0,1.08.43,1.58,1.58,0,0,0,1.15-.45,1.48,1.48,0,0,0,.46-1.11,1.54,1.54,0,0,0-1.58-1.59h-.53v-1.15h.52a1.46,1.46,0,0,0,1.08-.43,1.39,1.39,0,0,0,.43-1,1.36,1.36,0,0,0-.43-1,1.49,1.49,0,0,0-1.09-.41,1.45,1.45,0,0,0-1.06.42,1.4,1.4,0,0,0-.43,1h-1.3a2.38,2.38,0,0,1,.8-1.85,2.83,2.83,0,0,1,2-.77,2.77,2.77,0,0,1,2,.76,2.43,2.43,0,0,1,.81,1.85,2.19,2.19,0,0,1-1.42,2,2.21,2.21,0,0,1,1.08.82,2.26,2.26,0,0,1,.41,1.34,2.66,2.66,0,0,1-.85,2A2.86,2.86,0,0,1,237.57,557.4Z"/></svg>