<svg id="Layer_1" data-name="Layer 1" xmlns="http://www.w3.org/2000/svg" viewBox="0 0 250 720"><defs><style>.cls-1{fill:#d80201;}</style></defs><title>text</title><path class="cls-1" d="M95.08,398.44a8.57,8.57,0,0,1-6.79,3,8.44,8.44,0,0,1-6.79-3A8.93,8.93,0,0,1,80,392.92V380.27h4v11.84a7,7,0,0,0,.65,3.72,4.16,4.16,0,0,0,3.63,1.92,4.27,4.27,0,0,0,3.63-1.92,6.66,6.66,0,0,0,.65-3.72V380.27h4v12.65A8.73,8.73,0,0,1,95.08,398.44Z"/><path class="cls-1" d="M109,401.39a5.37,5.37,0,0,1-4.5-2.2v8.93h-3.75V387.53h3.75v1.71a5.35,5.35,0,0,1,4.4-2.14c4,0,6.64,3.32,6.64,7.16S112.93,401.39,109,401.39Zm-1.12-10.91a3.77,3.77,0,1,0,3.75,3.75A3.74,3.74,0,0,0,107.88,390.47Z"/><path class="cls-1" d="M126.63,401.39a5.37,5.37,0,0,1-4.5-2.2v8.93h-3.75V387.53h3.75v1.71a5.35,5.35,0,0,1,4.4-2.14c4,0,6.64,3.32,6.64,7.16S130.57,401.39,126.63,401.39Zm-1.12-10.91a3.77,3.77,0,1,0,3.75,3.75A3.74,3.74,0,0,0,125.52,390.47Z"/><path class="cls-1" d="M136,401V377.73h3.75V401Z"/><path class="cls-1" d="M146.5,394.84c.06,2.08,1.05,3.6,3.29,3.6a3.52,3.52,0,0,0,3.19-1.8l3.47.56a6.58,6.58,0,0,1-6.6,4.19c-4.34,0-7.19-2.79-7.19-7.16s2.73-7.13,7-7.13,6.85,3,6.85,7.26v.5Zm3.26-5.08a3,3,0,0,0-3.13,2.7H153A3.11,3.11,0,0,0,149.76,389.76Z"/><path class="cls-1" d="M165.57,401.23h-1.74L157,387.53h4.22l3.54,7.57,3.53-7.57h4.22Z"/><path class="cls-1" d="M68.12,438l-1.83-12.74-5.71,13H59.47l-5.49-13L51.91,438H47.85l3.84-21.05h2.76l5.64,13.52L66,416.9h2.76L72.19,438Z"/><path class="cls-1" d="M82.26,438.39c-4.28,0-7.69-2.67-7.69-7.13s3.41-7.16,7.72-7.16,7.63,2.7,7.63,7.13S86.5,438.39,82.26,438.39Zm0-10.91A3.77,3.77,0,1,0,86,431.26,3.8,3.8,0,0,0,82.23,427.47Z"/><path class="cls-1" d="M98.87,438.23H97.14l-6.85-13.7H94.5L98,432.09l3.54-7.57h4.22Z"/><path class="cls-1" d="M110.06,431.84c.06,2.08,1.05,3.6,3.29,3.6a3.52,3.52,0,0,0,3.19-1.8l3.47.56a6.58,6.58,0,0,1-6.6,4.19c-4.34,0-7.19-2.79-7.19-7.16s2.73-7.13,7-7.13,6.85,3,6.85,7.26v.5Zm3.26-5.08a3,3,0,0,0-3.13,2.7h6.36A3.11,3.11,0,0,0,113.32,426.76Z"/><path class="cls-1" d="M132.17,438V430.6c0-1.86-.4-3.32-2.57-3.32-2.33,0-2.85,1.8-2.85,3.78V438H123V414.73h3.75v11.53a4.89,4.89,0,0,1,4.22-2.17,5.13,5.13,0,0,1,3.91,1.64,5.32,5.32,0,0,1,1.05,3.78V438Z"/><path class="cls-1" d="M146.49,438.39c-4.28,0-7.69-2.67-7.69-7.13s3.41-7.16,7.72-7.16,7.63,2.7,7.63,7.13S150.74,438.39,146.49,438.39Zm0-10.91a3.77,3.77,0,1,0,3.81,3.78A3.8,3.8,0,0,0,146.46,427.47Z"/><path class="cls-1" d="M174.17,438V430.6c0-1.58-.25-3.32-2.23-3.32-2.2,0-2.57,2-2.57,3.78V438h-3.75v-7.13a6,6,0,0,0-.28-2.23,2.17,2.17,0,0,0-2-1.3,2.45,2.45,0,0,0-2.11,1.21,5.57,5.57,0,0,0-.43,2.57V438H157V424.53h3.75V426a5.16,5.16,0,0,1,4.09-2,4.56,4.56,0,0,1,4.19,2.45,5,5,0,0,1,4.4-2.45,4.42,4.42,0,0,1,3.75,1.92,5.91,5.91,0,0,1,.71,3.26V438Z"/><path class="cls-1" d="M184.65,431.84c.06,2.08,1.05,3.6,3.29,3.6a3.52,3.52,0,0,0,3.19-1.8l3.47.56a6.58,6.58,0,0,1-6.6,4.19c-4.34,0-7.19-2.79-7.19-7.16s2.73-7.13,7-7.13,6.85,3,6.85,7.26v.5Zm3.26-5.08a3,3,0,0,0-3.13,2.7h6.36A3.11,3.11,0,0,0,187.9,426.76Z"/><path class="cls-1" d="M199.65,438.36a2.42,2.42,0,1,1,2.42-2.42A2.42,2.42,0,0,1,199.65,438.36ZM197.73,432V417.27h3.84V432Z"/></svg>