<svg id="Layer_1" data-name="Layer 1" xmlns="http://www.w3.org/2000/svg" viewBox="0 0 250 720"><defs><style>.cls-1{fill:#d80201;}</style></defs><title>text</title><path class="cls-1" d="M26.06,526.14a3.26,3.26,0,0,1-3.3-2.75l1.15-.32a2.17,2.17,0,0,0,2.18,2,2.11,2.11,0,0,0,2.14-2.11c0-2.51-4.93-1.92-4.93-5.06a2.82,2.82,0,0,1,3-2.75A3,3,0,0,1,29,516.76l-.94.62a2,2,0,0,0-1.82-1.17,1.69,1.69,0,0,0-1.78,1.63c0,2.21,4.93,1.57,4.93,5A3.29,3.29,0,0,1,26.06,526.14Z"/><path class="cls-1" d="M34.41,526.14a3.5,3.5,0,1,1,3.51-3.49A3.47,3.47,0,0,1,34.41,526.14Zm0-6a2.46,2.46,0,1,0,2.35,2.46A2.33,2.33,0,0,0,34.39,520.19Z"/><path class="cls-1" d="M39.65,526V514.28h1.14V526Z"/><path class="cls-1" d="M46.41,526.14A2.83,2.83,0,0,1,44.1,525V526H43V514.28H44.1v6a2.85,2.85,0,0,1,2.32-1.1,3.25,3.25,0,0,1,3.19,3.47A3.29,3.29,0,0,1,46.41,526.14Zm-.16-6A2.24,2.24,0,0,0,44,522.64a2.21,2.21,0,1,0,2.21-2.45Z"/><path class="cls-1" d="M56.42,526V525a2.84,2.84,0,0,1-2.31,1.12,3.29,3.29,0,0,1-3.2-3.54,3.23,3.23,0,0,1,3.19-3.46,2.81,2.81,0,0,1,2.32,1.1v-.94h1.14V526Zm-2.15-5.78a2.26,2.26,0,0,0-2.19,2.43,2.29,2.29,0,0,0,2.19,2.5,2.27,2.27,0,0,0,2.21-2.5A2.24,2.24,0,0,0,54.28,520.17Z"/><path class="cls-1" d="M62.84,526.14a3.5,3.5,0,1,1,0-7,3.66,3.66,0,0,1,2.06.64v1.5a2.65,2.65,0,0,0-2.08-1.1,2.37,2.37,0,0,0-2.35,2.46,2.34,2.34,0,0,0,2.32,2.45A2.69,2.69,0,0,0,65,524v1.5A3.58,3.58,0,0,1,62.84,526.14Z"/><path class="cls-1" d="M70.81,526l-2.69-3-.29.29V526H66.69V514.28h1.14v7.48l2.42-2.45h1.52l-2.85,2.82L72.3,526Z"/><path class="cls-1" d="M78.15,526V525a2.84,2.84,0,0,1-2.31,1.12,3.29,3.29,0,0,1-3.2-3.54,3.23,3.23,0,0,1,3.19-3.46,2.81,2.81,0,0,1,2.32,1.1v-.94h1.14V526ZM76,520.17a2.26,2.26,0,0,0-2.19,2.43A2.29,2.29,0,0,0,76,525.1a2.27,2.27,0,0,0,2.21-2.5A2.24,2.24,0,0,0,76,520.17Z"/><path class="cls-1" d="M88.47,526.14a3.26,3.26,0,0,1-3.3-2.75l1.15-.32a2.17,2.17,0,0,0,2.18,2,2.11,2.11,0,0,0,2.14-2.11c0-2.51-4.93-1.92-4.93-5.06a2.82,2.82,0,0,1,3-2.75,3,3,0,0,1,2.75,1.67l-.94.62a2,2,0,0,0-1.82-1.17,1.69,1.69,0,0,0-1.78,1.63c0,2.21,4.93,1.57,4.93,5A3.29,3.29,0,0,1,88.47,526.14Z"/><path class="cls-1" d="M94.89,520.37V526H93.73v-5.59H93v-1.06h.69v-2.4h1.15v2.4h1.17v1.06Z"/><path class="cls-1" d="M100.28,520.46a1,1,0,0,0-.67-.22,1.23,1.23,0,0,0-.58.14c-.74.4-.74,1.34-.74,2.07V526H97.16v-6.64h1.14V520a1.78,1.78,0,0,1,1.5-.88,1.89,1.89,0,0,1,1,.27Z"/><path class="cls-1" d="M106.78,526V525a2.84,2.84,0,0,1-2.31,1.12,3.29,3.29,0,0,1-3.2-3.54,3.23,3.23,0,0,1,3.19-3.46,2.81,2.81,0,0,1,2.32,1.1v-.94h1.14V526Zm-2.15-5.78a2.26,2.26,0,0,0-2.19,2.43,2.29,2.29,0,0,0,2.19,2.5,2.27,2.27,0,0,0,2.21-2.5A2.24,2.24,0,0,0,104.63,520.17Z"/><path class="cls-1" d="M114.26,526V522c0-1-.14-1.86-1.39-1.86-1.47,0-1.65,1.28-1.65,2.45V526h-1.14v-6.64h1.14v.8a2.41,2.41,0,0,1,3.81,0,3,3,0,0,1,.38,1.76V526Z"/><path class="cls-1" d="M122.66,526V525a2.84,2.84,0,0,1-2.31,1.12,3.29,3.29,0,0,1-3.2-3.52,3.25,3.25,0,0,1,3.19-3.47,2.85,2.85,0,0,1,2.32,1.1v-6h1.14V526Zm-2.15-5.76a2.47,2.47,0,1,0,2.21,2.42A2.23,2.23,0,0,0,120.52,520.19Z"/><path class="cls-1" d="M128.28,526.38,125,519.31h1.28l2,4.47,2-4.47h1.28Z"/><path class="cls-1" d="M137.81,526V525a2.84,2.84,0,0,1-2.3,1.12,3.29,3.29,0,0,1-3.2-3.54,3.23,3.23,0,0,1,3.18-3.46,2.81,2.81,0,0,1,2.32,1.1v-.94H139V526Zm-2.14-5.78a2.27,2.27,0,0,0-2.19,2.43,2.29,2.29,0,0,0,2.19,2.5,2.27,2.27,0,0,0,2.21-2.5A2.24,2.24,0,0,0,135.67,520.17Zm-1.33-2.22a.81.81,0,0,1-.8-.8.8.8,0,1,1,.8.8Zm2.79,0a.81.81,0,0,1-.8-.8.8.8,0,1,1,.8.8Z"/><path class="cls-1" d="M146.71,528.42a3.23,3.23,0,0,1-2.66,1.23,3,3,0,0,1-3.23-3H142a2,2,0,0,0,2.11,2c1.6,0,2.13-1.2,2.13-2.62v-1a3,3,0,0,1-2.34,1.1,3.5,3.5,0,0,1,0-7,2.84,2.84,0,0,1,2.29,1.09v-.93h1.15v6.5A4,4,0,0,1,146.71,528.42ZM144,520.17a2.28,2.28,0,0,0-2.18,2.51A2.24,2.24,0,0,0,144,525.1a2.48,2.48,0,0,0,0-4.93Z"/><path class="cls-1" d="M156.68,526V516.4H154.9l.63-1.12h2.34V526Z"/><path class="cls-1" d="M162.64,528.39l-.75-.3,1.31-3.7,1.06.38Z"/><path class="cls-1" d="M171.72,517.72V526h-1.18V514.83l8.31,8.72v-8.28H180v11.16Z"/><path class="cls-1" d="M185.59,526.14a3.5,3.5,0,1,1,3.51-3.49A3.47,3.47,0,0,1,185.59,526.14Zm0-6a2.46,2.46,0,1,0,2.35,2.46A2.33,2.33,0,0,0,185.57,520.19Z"/><path class="cls-1" d="M194,520.46a1,1,0,0,0-.67-.22,1.23,1.23,0,0,0-.58.14c-.74.4-.74,1.34-.74,2.07V526h-1.14v-6.64H192V520a1.77,1.77,0,0,1,1.5-.88,1.89,1.89,0,0,1,1,.27Z"/><path class="cls-1" d="M198.68,520.46a1,1,0,0,0-.67-.22,1.23,1.23,0,0,0-.58.14c-.74.4-.74,1.34-.74,2.07V526h-1.14v-6.64h1.14V520a1.77,1.77,0,0,1,1.5-.88,1.89,1.89,0,0,1,1,.27Z"/><path class="cls-1" d="M201.86,520.37V526h-1.15v-5.59H200v-1.06h.69v-2.4h1.15v2.4H203v1.06Z"/><path class="cls-1" d="M209.21,526V525a2.84,2.84,0,0,1-2.31,1.12,3.29,3.29,0,0,1-3.2-3.54,3.23,3.23,0,0,1,3.19-3.46,2.81,2.81,0,0,1,2.32,1.1v-.94h1.14V526Zm-2.15-5.78a2.26,2.26,0,0,0-2.19,2.43,2.29,2.29,0,0,0,2.19,2.5,2.27,2.27,0,0,0,2.21-2.5A2.24,2.24,0,0,0,207.06,520.17Zm-1.33-2.22a.81.81,0,0,1-.8-.8.8.8,0,1,1,.8.8Zm2.79,0a.81.81,0,0,1-.8-.8.8.8,0,1,1,.8.8Z"/><path class="cls-1" d="M212.52,526V514.28h1.14V526Z"/><path class="cls-1" d="M216.4,517.61a.82.82,0,1,1,.82-.82A.82.82,0,0,1,216.4,517.61Zm-.58,12.08V519.31H217V529.7Z"/><path class="cls-1" d="M219.92,522.86A2.15,2.15,0,0,0,222,525.1a2.29,2.29,0,0,0,2-1.38l1,.53a3.32,3.32,0,0,1-3,1.89,3.51,3.51,0,0,1-.06-7c2,0,3.17,1.57,3.17,3.49v.22Zm2-2.67a2,2,0,0,0-2,1.71h3.91A2,2,0,0,0,222,520.19Z"/><path class="cls-1" d="M33.93,552.14a3.26,3.26,0,0,1-3.3-2.75l1.15-.32A2.17,2.17,0,0,0,34,551a2.11,2.11,0,0,0,2.14-2.11c0-2.51-4.93-1.92-4.93-5.06a2.82,2.82,0,0,1,3-2.75,3,3,0,0,1,2.75,1.67l-.94.62a2,2,0,0,0-1.82-1.17,1.69,1.69,0,0,0-1.78,1.63c0,2.21,4.93,1.57,4.93,5A3.29,3.29,0,0,1,33.93,552.14Z"/><path class="cls-1" d="M42.28,552.14a3.5,3.5,0,1,1,3.51-3.49A3.47,3.47,0,0,1,42.28,552.14Zm0-6a2.46,2.46,0,1,0,2.35,2.46A2.33,2.33,0,0,0,42.26,546.19Zm-1.38-2.24a.81.81,0,0,1-.8-.8.8.8,0,1,1,.8.8Zm2.79,0a.81.81,0,0,1-.8-.8.8.8,0,1,1,.8.8Z"/><path class="cls-1" d="M51.7,552V548c0-1-.14-1.86-1.39-1.86-1.47,0-1.65,1.28-1.65,2.45V552H47.53v-6.64h1.14v.8a2.41,2.41,0,0,1,3.81,0,3,3,0,0,1,.38,1.76V552Z"/><path class="cls-1" d="M60.1,552V551a2.84,2.84,0,0,1-2.31,1.12,3.29,3.29,0,0,1-3.2-3.52,3.25,3.25,0,0,1,3.19-3.47,2.85,2.85,0,0,1,2.32,1.1v-6h1.14V552ZM58,546.19a2.47,2.47,0,1,0,2.21,2.42A2.23,2.23,0,0,0,58,546.19Z"/><path class="cls-1" d="M68.49,552V551a2.84,2.84,0,0,1-2.31,1.12,3.29,3.29,0,0,1-3.2-3.54,3.23,3.23,0,0,1,3.19-3.46,2.81,2.81,0,0,1,2.32,1.1v-.94h1.14V552Zm-2.15-5.78a2.26,2.26,0,0,0-2.19,2.43,2.29,2.29,0,0,0,2.19,2.5,2.27,2.27,0,0,0,2.21-2.5A2.24,2.24,0,0,0,66.34,546.17Z"/><path class="cls-1" d="M77.38,554.42a3.22,3.22,0,0,1-2.66,1.23,3,3,0,0,1-3.23-3h1.14a2,2,0,0,0,2.11,2c1.6,0,2.13-1.2,2.13-2.62v-1a3,3,0,0,1-2.34,1.1,3.5,3.5,0,0,1,0-7,2.84,2.84,0,0,1,2.29,1.09v-.93H78v6.5A4,4,0,0,1,77.38,554.42Zm-2.67-8.24a2.28,2.28,0,0,0-2.18,2.51,2.24,2.24,0,0,0,2.18,2.42,2.48,2.48,0,0,0,0-4.93Z"/><path class="cls-1" d="M87.32,552.13a3.33,3.33,0,0,1-2.46-1.06,2.82,2.82,0,0,1-.7-1.89H85.3a2,2,0,0,0,.37,1,2.15,2.15,0,0,0,1.68.8,2.08,2.08,0,0,0,2.1-2.13c0-1.39-1-2-2.27-2v-1a2.47,2.47,0,0,0,1.26-.26A1.84,1.84,0,1,0,86,542.89a2.61,2.61,0,0,0-.35,1H84.49c.24-1.73,1.15-2.8,3-2.8a2.86,2.86,0,0,1,3,2.87,2.6,2.6,0,0,1-1.38,2.37,2.72,2.72,0,0,1,1.54,2.58A3.17,3.17,0,0,1,87.32,552.13Z"/><path class="cls-1" d="M99.06,552.14a2.37,2.37,0,0,1-2.32-1.7l1-.42c.27.59.64,1.07,1.34,1.07a1,1,0,0,0,1.09-1c0-1.44-3-1-3-3.06a1.87,1.87,0,0,1,1.94-1.86,2,2,0,0,1,1.82,1.2l-.94.5a1.06,1.06,0,0,0-.93-.66.79.79,0,0,0-.8.74c0,1.17,3.07.86,3.07,3A2.18,2.18,0,0,1,99.06,552.14Z"/><path class="cls-1" d="M103.64,548.86a2.15,2.15,0,0,0,2.11,2.24,2.29,2.29,0,0,0,2-1.38l1,.53a3.32,3.32,0,0,1-3,1.89,3.51,3.51,0,0,1-.06-7c2,0,3.17,1.57,3.17,3.49v.22Zm2-2.67a2,2,0,0,0-2,1.71h3.91A2,2,0,0,0,105.69,546.19Z"/><path class="cls-1" d="M114,552.14A2.86,2.86,0,0,1,111.7,551v4.67h-1.14V545.31h1.14v.93a2.87,2.87,0,0,1,2.3-1.09,3.29,3.29,0,0,1,3.2,3.52A3.25,3.25,0,0,1,114,552.14Zm-.18-6a2.29,2.29,0,0,0-2.21,2.5,2.21,2.21,0,1,0,4.4,0A2.29,2.29,0,0,0,113.85,546.17Z"/><path class="cls-1" d="M120.1,546.37V552h-1.15v-5.59h-.69v-1.06h.69v-2.4h1.15v2.4h1.17v1.06Z"/><path class="cls-1" d="M123.14,548.86a2.15,2.15,0,0,0,2.11,2.24,2.29,2.29,0,0,0,2-1.38l1,.53a3.32,3.32,0,0,1-3,1.89,3.51,3.51,0,0,1-.06-7c2,0,3.17,1.57,3.17,3.49v.22Zm2-2.67a2,2,0,0,0-2,1.71h3.91A2,2,0,0,0,125.19,546.19Z"/><path class="cls-1" d="M137.64,552v-4c0-.85-.14-1.75-1.2-1.75s-1.42,1.12-1.42,2.08V552h-1.14V548c0-.83-.18-1.84-1.22-1.84a1.37,1.37,0,0,0-1.2.72,3.15,3.15,0,0,0-.26,1.44V552h-1.14v-6.64h1.14v.7a1.89,1.89,0,0,1,1.65-.86,2,2,0,0,1,1.82,1.07,2.26,2.26,0,0,1,3.73-.18,3.11,3.11,0,0,1,.37,1.7V552Z"/><path class="cls-1" d="M144.39,552.14a2.83,2.83,0,0,1-2.3-1.12V552h-1.14V540.28h1.14v6a2.85,2.85,0,0,1,2.32-1.1,3.25,3.25,0,0,1,3.19,3.47A3.29,3.29,0,0,1,144.39,552.14Zm-.16-6a2.24,2.24,0,0,0-2.21,2.45,2.21,2.21,0,1,0,2.21-2.45Z"/><path class="cls-1" d="M150.1,548.86a2.15,2.15,0,0,0,2.11,2.24,2.29,2.29,0,0,0,2-1.38l1,.53a3.32,3.32,0,0,1-3,1.89,3.51,3.51,0,0,1-.06-7c2,0,3.17,1.57,3.17,3.49v.22Zm2-2.67a2,2,0,0,0-2,1.71h3.91A2,2,0,0,0,152.15,546.19Z"/><path class="cls-1" d="M160.15,546.46a1,1,0,0,0-.67-.22,1.23,1.23,0,0,0-.58.14c-.74.4-.74,1.34-.74,2.07V552H157v-6.64h1.14V546a1.77,1.77,0,0,1,1.5-.88,1.89,1.89,0,0,1,1,.27Z"/><path class="cls-1" d="M169.86,552l-2.69-3-.29.29V552h-1.14V540.28h1.14v7.48l2.42-2.45h1.52L168,548.13l3.38,3.83Z"/><path class="cls-1" d="M172.48,552V540.28h1.14V552Z"/><path class="cls-1" d="M182.95,552V542.4h-1.78l.63-1.12h2.34V552Z"/><path class="cls-1" d="M194.74,550.21V552h-1.18v-1.74h-5.47l6.66-9.52v8.44h1.31v1.09Zm-1.18-5.91-3.38,4.82h3.38Z"/><path class="cls-1" d="M196.85,549.06v-1h2.9v1Z"/><path class="cls-1" d="M204,552V542.4h-1.78l.63-1.12h2.34V552Z"/><path class="cls-1" d="M213.36,552.13a3.67,3.67,0,0,1-3.7-3.62,4.27,4.27,0,0,1,.88-2.45l3.63-5,.9.67-2.45,3.41a3.37,3.37,0,0,1,1-.14,3.47,3.47,0,0,1,3.43,3.52A3.68,3.68,0,0,1,213.36,552.13Zm0-6.12a2.51,2.51,0,1,0,2.5,2.5A2.5,2.5,0,0,0,213.35,546Z"/></svg>