<svg id="Layer_1" data-name="Layer 1" xmlns="http://www.w3.org/2000/svg" viewBox="0 0 250 720"><defs><style>.cls-1{fill:#d4ac76;}</style></defs><title>text</title><path class="cls-1" d="M22.77,537.26,26.49,528h1.17l3.66,9.28H29.88l-.56-1.43H24.78l-.58,1.43Zm4.31-7.15-1.81,4.48h3.57Z"/><path class="cls-1" d="M36.37,537.38a4.46,4.46,0,0,1-1.74-.37,4.61,4.61,0,0,1-1.47-1l.92-1a3.4,3.4,0,0,0,1.06.84,2.71,2.71,0,0,0,1.29.34,1.8,1.8,0,0,0,1.2-.39,1.25,1.25,0,0,0,.46-1,1.62,1.62,0,0,0-1.17-1.52l-1.1-.43a4,4,0,0,1-1.52-1,2.19,2.19,0,0,1-.49-1.47,2.32,2.32,0,0,1,.76-1.75,2.62,2.62,0,0,1,1.89-.73,3.76,3.76,0,0,1,2.7,1l-.78,1a2.59,2.59,0,0,0-1.92-.83,1.5,1.5,0,0,0-1,.32,1.09,1.09,0,0,0-.38.86,1.07,1.07,0,0,0,.28.72,2.63,2.63,0,0,0,.94.57l1.12.45a2.64,2.64,0,0,1,2,2.65,2.57,2.57,0,0,1-.82,2A3.1,3.1,0,0,1,36.37,537.38Z"/><path class="cls-1" d="M42.57,537.26V528h1.29v4.4l3.87-4.4h1.74l-3.27,3.68,3.35,5.6H47.94l-2.7-4.53-1.38,1.55v3Z"/><path class="cls-1" d="M52.37,537.26V528h1.3v9.28Z"/><path class="cls-1" d="M57.47,537.26V528H58.8l3,4.95,3-4.95H66.1v9.28H64.8v-6.85l0,0-3,4.79-2.93-4.72h-.08v6.81Z"/><path class="cls-1" d="M72.18,537.38a4.46,4.46,0,0,1-1.74-.37A4.61,4.61,0,0,1,69,536l.91-1a3.44,3.44,0,0,0,1.07.84,2.71,2.71,0,0,0,1.29.34,1.76,1.76,0,0,0,1.19-.39,1.26,1.26,0,0,0,.47-1,1.62,1.62,0,0,0-1.17-1.52l-1.1-.43a3.9,3.9,0,0,1-1.52-1,2.2,2.2,0,0,1-.5-1.47,2.33,2.33,0,0,1,.77-1.75,2.62,2.62,0,0,1,1.89-.73,3.74,3.74,0,0,1,2.69,1l-.78,1a2.57,2.57,0,0,0-1.91-.83,1.48,1.48,0,0,0-1,.32,1.09,1.09,0,0,0-.38.86,1,1,0,0,0,.28.72,2.63,2.63,0,0,0,.94.57l1.11.45a2.61,2.61,0,0,1,2,2.65,2.56,2.56,0,0,1-.81,2A3.1,3.1,0,0,1,72.18,537.38Z"/><path class="cls-1" d="M83.45,537.26V528h1.3v4.4l3.86-4.4h1.74l-3.27,3.68,3.35,5.6h-1.6l-2.7-4.53-1.38,1.55v3Z"/><path class="cls-1" d="M98.26,528h1.5l-3.09,5.55v3.73H95.38v-3.69L92.26,528h1.55l2.24,4.12Z"/><path class="cls-1" d="M102.4,537.26V528h3.44a2.9,2.9,0,0,1,2.09.81,2.87,2.87,0,0,1-1.63,4.94l2.69,3.53h-1.6l-2.66-3.54h-1v3.54Zm3.27-8h-2v3.35h2a1.9,1.9,0,0,0,1.31-.46,1.69,1.69,0,0,0,0-2.41A1.81,1.81,0,0,0,105.67,529.22Z"/><path class="cls-1" d="M112,537.26V528h1.3v4.4l3.86-4.4h1.74l-3.27,3.68,3.36,5.6H117.4l-2.7-4.53-1.38,1.55v3Z"/><path class="cls-1" d="M124.54,537.26,120.93,528h1.45l2.78,7.13L128,528h1.43l-3.63,9.28Z"/><path class="cls-1" d="M130.17,537.26l3.72-9.28h1.17l3.65,9.28h-1.43l-.56-1.43h-4.55l-.57,1.43ZM133.52,527a.65.65,0,0,1-.47.2.63.63,0,0,1-.46-.2.76.76,0,0,1-.18-.51.73.73,0,0,1,.18-.5.59.59,0,0,1,.46-.2.61.61,0,0,1,.47.2.74.74,0,0,1,.19.5A.76.76,0,0,1,133.52,527Zm.95,3.11-1.8,4.48h3.57Zm1.62-3.11a.63.63,0,0,1-.46.2.6.6,0,0,1-.46-.2.72.72,0,0,1-.19-.51.69.69,0,0,1,.19-.5.57.57,0,0,1,.46-.2.59.59,0,0,1,.46.2.73.73,0,0,1,.18.5A.76.76,0,0,1,136.09,527Z"/><path class="cls-1" d="M146.91,533.23V532H150v.65a4.76,4.76,0,0,1-4.8,4.77,4.54,4.54,0,0,1-3.38-1.38,5,5,0,0,1,0-6.85,4.51,4.51,0,0,1,3.38-1.39,5.1,5.1,0,0,1,1.95.38,4.87,4.87,0,0,1,1.59,1.08l-1,1a3.4,3.4,0,0,0-5-.16,3.76,3.76,0,0,0,0,5.06,3.24,3.24,0,0,0,2.46,1,3.31,3.31,0,0,0,2.23-.81,3.63,3.63,0,0,0,1.17-2.14Z"/><path class="cls-1" d="M160.3,537.4a2.88,2.88,0,0,1-2-.78,2.57,2.57,0,0,1-.86-1.89h1.29a1.35,1.35,0,0,0,.49,1,1.53,1.53,0,0,0,1.08.43,1.57,1.57,0,0,0,1.15-.45,1.48,1.48,0,0,0,.46-1.11,1.54,1.54,0,0,0-1.58-1.59h-.53v-1.15h.52a1.45,1.45,0,0,0,1.08-.43,1.39,1.39,0,0,0,.43-1,1.36,1.36,0,0,0-.43-1,1.49,1.49,0,0,0-1.09-.41,1.46,1.46,0,0,0-1.06.42,1.4,1.4,0,0,0-.43,1h-1.3a2.39,2.39,0,0,1,.81-1.85,3,3,0,0,1,4,0,2.45,2.45,0,0,1,.8,1.85,2.07,2.07,0,0,1-.4,1.25,2.15,2.15,0,0,1-1,.79,2.21,2.21,0,0,1,1.08.82,2.26,2.26,0,0,1,.41,1.34,2.63,2.63,0,0,1-.85,2A2.83,2.83,0,0,1,160.3,537.4Z"/><path class="cls-1" d="M168.68,537.4a3.16,3.16,0,0,1-1.87-.57,2.87,2.87,0,0,1-1.11-1.5l1.18-.46a1.78,1.78,0,0,0,.67.93,1.87,1.87,0,0,0,1.13.37,1.83,1.83,0,0,0,1.87-1.85A1.73,1.73,0,0,0,170,533a1.82,1.82,0,0,0-1.31-.53,1.71,1.71,0,0,0-1.31.57h-1.3V528h5.2v1.24h-3.9v2.49a2.4,2.4,0,0,1,1.31-.37,3.15,3.15,0,0,1,2.28.85,2.87,2.87,0,0,1,.87,2.13,2.93,2.93,0,0,1-.92,2.18A3.06,3.06,0,0,1,168.68,537.4Z"/><path class="cls-1" d="M173.4,539l1.07-3,1.19.42-1.47,2.85Z"/><path class="cls-1" d="M182.79,537.26l3.72-9.28h1.17l3.65,9.28H189.9l-.56-1.43h-4.55l-.57,1.43Zm4.3-7.15-1.8,4.48h3.57Z"/><path class="cls-1" d="M196.39,537.38a4.46,4.46,0,0,1-1.74-.37,4.61,4.61,0,0,1-1.47-1l.91-1a3.56,3.56,0,0,0,1.07.84,2.71,2.71,0,0,0,1.29.34,1.8,1.8,0,0,0,1.2-.39,1.25,1.25,0,0,0,.46-1,1.62,1.62,0,0,0-1.17-1.52l-1.1-.43a4,4,0,0,1-1.52-1,2.19,2.19,0,0,1-.49-1.47,2.32,2.32,0,0,1,.76-1.75,2.62,2.62,0,0,1,1.89-.73,3.78,3.78,0,0,1,2.7,1l-.78,1a2.61,2.61,0,0,0-1.92-.83,1.48,1.48,0,0,0-1,.32,1.09,1.09,0,0,0-.38.86,1,1,0,0,0,.28.72,2.63,2.63,0,0,0,.94.57l1.12.45a2.64,2.64,0,0,1,1.95,2.65,2.57,2.57,0,0,1-.82,2A3.1,3.1,0,0,1,196.39,537.38Z"/><path class="cls-1" d="M202.58,537.26V528h1.3v4.4l3.87-4.4h1.74l-3.28,3.68,3.36,5.6H208l-2.7-4.53-1.38,1.55v3Z"/><path class="cls-1" d="M212.39,537.26V528h1.3v9.28Z"/><path class="cls-1" d="M217.49,537.26V528h1.33l3,4.95,3-4.95h1.27v9.28h-1.3v-6.85l0,0-3,4.79-2.92-4.72h-.08v6.81Z"/><path class="cls-1" d="M16.8,557.38a4.46,4.46,0,0,1-1.74-.37,4.61,4.61,0,0,1-1.47-1l.91-1a3.44,3.44,0,0,0,1.07.84,2.71,2.71,0,0,0,1.29.34,1.76,1.76,0,0,0,1.19-.39,1.26,1.26,0,0,0,.47-1,1.62,1.62,0,0,0-1.17-1.52l-1.1-.43a3.9,3.9,0,0,1-1.52-1,2.2,2.2,0,0,1-.5-1.47,2.33,2.33,0,0,1,.77-1.75,2.62,2.62,0,0,1,1.89-.73,3.74,3.74,0,0,1,2.69,1l-.78,1a2.57,2.57,0,0,0-1.91-.83,1.48,1.48,0,0,0-1,.32,1.09,1.09,0,0,0-.38.86,1,1,0,0,0,.28.72,2.63,2.63,0,0,0,.94.57l1.11.45a2.61,2.61,0,0,1,1.95,2.65,2.56,2.56,0,0,1-.81,2A3.1,3.1,0,0,1,16.8,557.38Z"/><path class="cls-1" d="M27.24,557.43a4.55,4.55,0,0,1-3.35-1.38,5,5,0,0,1,0-6.88A4.74,4.74,0,0,1,32,552.61a4.64,4.64,0,0,1-1.39,3.44A4.54,4.54,0,0,1,27.24,557.43Zm-2.43-2.28a3.35,3.35,0,0,0,4.85,0,3.71,3.71,0,0,0,0-5.07,3.35,3.35,0,0,0-4.85,0,3.71,3.71,0,0,0,0,5.07ZM26.37,547a.63.63,0,0,1-.47.2.59.59,0,0,1-.45-.2.72.72,0,0,1-.19-.51.69.69,0,0,1,.19-.5.56.56,0,0,1,.45-.2.6.6,0,0,1,.47.2.74.74,0,0,1,.19.5A.76.76,0,0,1,26.37,547Zm2.57,0a.63.63,0,0,1-.46.2A.6.6,0,0,1,28,547a.72.72,0,0,1-.19-.51A.69.69,0,0,1,28,546a.57.57,0,0,1,.46-.2.59.59,0,0,1,.46.2.74.74,0,0,1,.19.5A.76.76,0,0,1,28.94,547Z"/><path class="cls-1" d="M35.21,557.26V548h.9l5,6.39V548h1.29v9.28h-.72l-5.2-6.63v6.63Z"/><path class="cls-1" d="M46.31,557.26V548H48.8a4.67,4.67,0,0,1,3.24,8,4.53,4.53,0,0,1-3.29,1.32Zm2.54-8H47.61V556h1.27a3,3,0,0,0,2.29-1,3.42,3.42,0,0,0,.92-2.43,3.3,3.3,0,0,0-1-2.41A3.09,3.09,0,0,0,48.85,549.22Z"/><path class="cls-1" d="M55.23,557.26,59,548h1.17l3.66,9.28H62.34l-.56-1.43H57.24l-.58,1.43Zm4.31-7.15-1.81,4.48H61.3Z"/><path class="cls-1" d="M72,553.23V552h3.08v.65a4.76,4.76,0,0,1-4.8,4.77A4.54,4.54,0,0,1,66.87,556a5,5,0,0,1,0-6.85,4.51,4.51,0,0,1,3.38-1.39,5.1,5.1,0,0,1,2,.38,4.87,4.87,0,0,1,1.59,1.08l-1,1a3.4,3.4,0,0,0-5-.16,3.76,3.76,0,0,0,0,5.06,3.24,3.24,0,0,0,2.46,1,3.31,3.31,0,0,0,2.23-.81,3.63,3.63,0,0,0,1.17-2.14Z"/><path class="cls-1" d="M82.6,555.13v-.81L85.83,548h1.35l-3.05,6h2v-1.56h1.29V554h1.12v1.15H87.43v2.13H86.14v-2.13Z"/><path class="cls-1" d="M96.51,557.26V548h.9l5,6.39V548h1.3v9.28H103l-5.21-6.63v6.63Z"/><path class="cls-1" d="M111.67,557.43a4.57,4.57,0,0,1-3.35-1.38,5,5,0,0,1,0-6.88,4.6,4.6,0,0,1,3.35-1.37,4.54,4.54,0,0,1,3.33,1.38,4.94,4.94,0,0,1,0,6.87A4.54,4.54,0,0,1,111.67,557.43Zm-2.43-2.28a3.36,3.36,0,0,0,4.86,0,3.73,3.73,0,0,0,0-5.07,3.35,3.35,0,0,0-4.85,0,3.71,3.71,0,0,0,0,5.07Z"/><path class="cls-1" d="M121.84,557.26,118.23,548h1.45l2.78,7.13,2.79-7.13h1.43l-3.63,9.28Z"/><path class="cls-1" d="M134.34,553.19h-3.81V556h4.08v1.24h-5.38V548h5.3v1.24h-4V552h3.81Z"/><path class="cls-1" d="M137.82,557.26V548h1.33l3,4.95,3-4.95h1.27v9.28h-1.3v-6.85l0,0-3,4.79-2.93-4.72h-.08v6.81Z"/><path class="cls-1" d="M150.27,557.26V548h2.83a3,3,0,0,1,2.05.72,2.4,2.4,0,0,1,.8,1.87,2.17,2.17,0,0,1-1.1,2,2.35,2.35,0,0,1,1,.84,2.22,2.22,0,0,1,.37,1.25,2.38,2.38,0,0,1-.81,1.89,3,3,0,0,1-2.07.72Zm2.7-8h-1.41V552h1.65a1.42,1.42,0,0,0,1.45-1.48,1.18,1.18,0,0,0-.47-1A1.87,1.87,0,0,0,153,549.22Zm.29,4h-1.7V556h1.62a1.93,1.93,0,0,0,1.27-.39,1.31,1.31,0,0,0,.47-1.07,1.27,1.27,0,0,0-.43-1A1.79,1.79,0,0,0,153.26,553.19Z"/><path class="cls-1" d="M164.58,553.19h-3.81V556h4.08v1.24h-5.38V548h5.3v1.24h-4V552h3.81Z"/><path class="cls-1" d="M168.06,557.26V548h3.44a2.88,2.88,0,0,1,2.09.81,3,3,0,0,1,.15,4,2.75,2.75,0,0,1-1.78.91l2.69,3.53h-1.6l-2.66-3.54h-1v3.54Zm3.27-8h-2v3.35h2a1.9,1.9,0,0,0,1.31-.46,1.68,1.68,0,0,0,0-2.41A1.85,1.85,0,0,0,171.33,549.22Z"/><path class="cls-1" d="M182.7,557.26V548H184v4.4l3.86-4.4h1.74l-3.27,3.68,3.36,5.6h-1.61l-2.7-4.53L184,554.28v3Z"/><path class="cls-1" d="M192.5,557.26V548h1.3v8h3.82v1.24Z"/><path class="cls-1" d="M206.53,557.26v-7.62l-1.74.89v-1.24l2.46-1.36h.58v9.33Z"/><path class="cls-1" d="M210.82,557.26v-.82l3.71-4.89a1.88,1.88,0,0,0,.51-1.18,1.31,1.31,0,0,0-.41-1,1.39,1.39,0,0,0-1-.4,1.32,1.32,0,0,0-1,.45,1.85,1.85,0,0,0-.42,1.17h-1.3a2.76,2.76,0,0,1,.77-2,2.62,2.62,0,0,1,2-.8,2.76,2.76,0,0,1,2,.72,2.39,2.39,0,0,1,.78,1.82,3.35,3.35,0,0,1-1,2l-2.9,3.69h4v1.15Z"/><path class="cls-1" d="M219.1,553.21v-1.15h3.62v1.15Z"/><path class="cls-1" d="M226.24,557.26v-7.62l-1.74.89v-1.24l2.46-1.36h.57v9.33Z"/><path class="cls-1" d="M230.45,555.13v-.81l3.23-6.34H235L232,554h2v-1.56h1.3V554h1.11v1.15h-1.11v2.13H234v-2.13Z"/></svg>