<svg id="Layer_1" data-name="Layer 1" xmlns="http://www.w3.org/2000/svg" viewBox="0 0 250 720"><defs><style>.cls-1{fill:#d80201;}</style></defs><title>text</title><path class="cls-1" d="M12.14,525.22a3.75,3.75,0,0,1-2.56.74H6.92V515.28H8.84a3.68,3.68,0,0,1,2.42.67,2.89,2.89,0,0,1,1,2.22,2.45,2.45,0,0,1-1.06,2.08,2.67,2.67,0,0,1,2,2.69A2.92,2.92,0,0,1,12.14,525.22ZM9,516.4H8.1V520H9a2.22,2.22,0,0,0,1.52-.4,1.8,1.8,0,0,0,.56-1.39C11.08,516.86,10.25,516.4,9,516.4Zm2.1,4.93a3.42,3.42,0,0,0-1.7-.32H8.1v3.84H9.59a2.6,2.6,0,0,0,1.75-.46,1.87,1.87,0,0,0,.69-1.47A1.83,1.83,0,0,0,11.13,521.33Z"/><path class="cls-1" d="M15.67,517.61a.82.82,0,1,1,.82-.82A.82.82,0,0,1,15.67,517.61Zm-.58,12.08V519.31h1.14V529.7Z"/><path class="cls-1" d="M21.51,526.14A3.5,3.5,0,1,1,25,522.66,3.47,3.47,0,0,1,21.51,526.14Zm0-6a2.46,2.46,0,1,0,2.35,2.46A2.33,2.33,0,0,0,21.5,520.19Zm-1.38-2.24a.81.81,0,0,1-.8-.8.8.8,0,1,1,.8.8Zm2.79,0a.81.81,0,0,1-.8-.8.8.8,0,1,1,.8.8Z"/><path class="cls-1" d="M29.88,520.46a1,1,0,0,0-.67-.22,1.22,1.22,0,0,0-.58.14c-.74.4-.74,1.34-.74,2.06V526H26.76v-6.64H27.9V520a1.78,1.78,0,0,1,1.5-.88,1.9,1.9,0,0,1,1,.27Z"/><path class="cls-1" d="M35.59,526l-2.69-3-.29.29V526H31.48V514.28h1.14v7.47L35,519.31h1.52l-2.85,2.82L37.08,526Z"/><path class="cls-1" d="M42.41,526v-4c0-1-.24-1.73-1.38-1.73-1.49,0-1.68,1.25-1.68,2.45V526H38.21V514.28h1.14v5.79a2.35,2.35,0,0,1,1.9-.93,2.31,2.31,0,0,1,1.9.91,3.12,3.12,0,0,1,.38,1.78V526Z"/><path class="cls-1" d="M50.79,526V525a2.84,2.84,0,0,1-2.31,1.12,3.29,3.29,0,0,1-3.2-3.54,3.23,3.23,0,0,1,3.19-3.46,2.81,2.81,0,0,1,2.32,1.1v-.94h1.14V526Zm-2.15-5.78a2.26,2.26,0,0,0-2.19,2.43,2.29,2.29,0,0,0,2.19,2.5,2.27,2.27,0,0,0,2.21-2.5A2.24,2.24,0,0,0,48.65,520.17Z"/><path class="cls-1" d="M59.69,528.42A3.22,3.22,0,0,1,57,529.65a3,3,0,0,1-3.23-3h1.14a2,2,0,0,0,2.11,2c1.6,0,2.13-1.2,2.13-2.62v-1a3,3,0,0,1-2.34,1.1,3.5,3.5,0,0,1,0-7,2.84,2.84,0,0,1,2.29,1.09v-.93h1.15v6.5A4,4,0,0,1,59.69,528.42ZM57,520.17a2.28,2.28,0,0,0-2.18,2.51A2.24,2.24,0,0,0,57,525.1a2.48,2.48,0,0,0,0-4.93Z"/><path class="cls-1" d="M64.29,526.14a2.37,2.37,0,0,1-2.32-1.7l1-.42c.27.59.64,1.07,1.34,1.07a1,1,0,0,0,1.09-1c0-1.44-3-1-3-3.06a1.87,1.87,0,0,1,1.94-1.86,2,2,0,0,1,1.82,1.2l-.94.5a1.06,1.06,0,0,0-.93-.66.79.79,0,0,0-.8.74c0,1.17,3.07.86,3.07,3A2.18,2.18,0,0,1,64.29,526.14Z"/><path class="cls-1" d="M70.41,526.38l-3.27-7.07h1.28l2,4.47,2-4.47h1.28Z"/><path class="cls-1" d="M79.94,526V525a2.84,2.84,0,0,1-2.31,1.12,3.29,3.29,0,0,1-3.2-3.54,3.23,3.23,0,0,1,3.19-3.46,2.81,2.81,0,0,1,2.32,1.1v-.94h1.14V526Zm-2.15-5.78a2.26,2.26,0,0,0-2.19,2.43,2.29,2.29,0,0,0,2.19,2.5,2.27,2.27,0,0,0,2.21-2.5A2.24,2.24,0,0,0,77.8,520.17Zm-1.33-2.23a.81.81,0,0,1-.8-.8.8.8,0,1,1,.8.8Zm2.79,0a.81.81,0,0,1-.8-.8.8.8,0,1,1,.8.8Z"/><path class="cls-1" d="M88.84,528.42a3.22,3.22,0,0,1-2.66,1.23,3,3,0,0,1-3.23-3h1.14a2,2,0,0,0,2.11,2c1.6,0,2.13-1.2,2.13-2.62v-1a3,3,0,0,1-2.34,1.1,3.5,3.5,0,0,1,0-7,2.84,2.84,0,0,1,2.29,1.09v-.93h1.15v6.5A4,4,0,0,1,88.84,528.42Zm-2.67-8.24A2.28,2.28,0,0,0,84,522.69a2.24,2.24,0,0,0,2.18,2.42,2.48,2.48,0,0,0,0-4.93Z"/><path class="cls-1" d="M92.42,522.86a2.15,2.15,0,0,0,2.11,2.24,2.29,2.29,0,0,0,2-1.38l1,.53a3.31,3.31,0,0,1-3,1.89,3.51,3.51,0,0,1-.06-7c2,0,3.17,1.57,3.17,3.49v.22Zm2-2.67a2,2,0,0,0-2,1.71h3.91A2,2,0,0,0,94.47,520.19Z"/><path class="cls-1" d="M103.53,526V522c0-1-.14-1.86-1.39-1.86-1.47,0-1.65,1.28-1.65,2.45V526H99.35v-6.64h1.14v.8a2.24,2.24,0,0,1,1.92-1,2.26,2.26,0,0,1,1.89.91,3,3,0,0,1,.38,1.76V526Z"/><path class="cls-1" d="M115.17,522.35l-2.19,2.5h4.48V526h-6.9l3.89-4.5c.72-.83,1.84-2,1.84-3.19a2.13,2.13,0,0,0-4.26.13h-1.2a4.43,4.43,0,0,1,.22-1.2,3.33,3.33,0,0,1,6.42,1.09C117.48,519.89,116.17,521.23,115.17,522.35Z"/><path class="cls-1" d="M125.8,524.21V526h-1.18v-1.75h-5.47l6.66-9.52v8.44h1.31v1.09Zm-1.18-5.91-3.38,4.82h3.38Z"/><path class="cls-1" d="M129,528.39l-.75-.3,1.31-3.7,1.06.38Z"/><path class="cls-1" d="M139.64,526.14a3.26,3.26,0,0,1-3.3-2.75l1.15-.32a2.17,2.17,0,0,0,2.18,2,2.11,2.11,0,0,0,2.14-2.11c0-2.51-4.93-1.92-4.93-5.06a2.82,2.82,0,0,1,3-2.75,3,3,0,0,1,2.75,1.67l-.94.62a2,2,0,0,0-1.83-1.17,1.69,1.69,0,0,0-1.78,1.63c0,2.21,4.93,1.57,4.93,5A3.29,3.29,0,0,1,139.64,526.14Z"/><path class="cls-1" d="M145.48,517.61a.82.82,0,1,1,.82-.82A.82.82,0,0,1,145.48,517.61Zm-.58,12.08V519.31H146V529.7Z"/><path class="cls-1" d="M151.32,526.14a3.5,3.5,0,1,1,3.51-3.49A3.47,3.47,0,0,1,151.32,526.14Zm0-6a2.46,2.46,0,1,0,2.35,2.46A2.33,2.33,0,0,0,151.3,520.19Zm-1.38-2.24a.81.81,0,0,1-.8-.8.8.8,0,1,1,.8.8Zm2.79,0a.81.81,0,0,1-.8-.8.8.8,0,1,1,.8.8Z"/><path class="cls-1" d="M164.14,526v-4c0-.85-.14-1.74-1.2-1.74s-1.42,1.12-1.42,2.08V526h-1.14V522c0-.83-.18-1.84-1.22-1.84a1.37,1.37,0,0,0-1.2.72,3.15,3.15,0,0,0-.26,1.44V526h-1.14v-6.64h1.14v.7a1.89,1.89,0,0,1,1.65-.86,2,2,0,0,1,1.82,1.07,2.26,2.26,0,0,1,3.73-.18,3.11,3.11,0,0,1,.37,1.7V526Z"/><path class="cls-1" d="M172.52,526V525a2.84,2.84,0,0,1-2.31,1.12,3.29,3.29,0,0,1-3.2-3.54,3.23,3.23,0,0,1,3.19-3.46,2.81,2.81,0,0,1,2.32,1.1v-.94h1.14V526Zm-2.15-5.78a2.26,2.26,0,0,0-2.19,2.43,2.29,2.29,0,0,0,2.19,2.5,2.27,2.27,0,0,0,2.21-2.5A2.24,2.24,0,0,0,170.37,520.17Z"/><path class="cls-1" d="M178.95,520.46a1,1,0,0,0-.67-.22,1.22,1.22,0,0,0-.58.14c-.74.4-.74,1.34-.74,2.06V526h-1.14v-6.64H177V520a1.77,1.77,0,0,1,1.5-.88,1.9,1.9,0,0,1,1,.27Z"/><path class="cls-1" d="M184.66,526l-2.69-3-.29.29V526h-1.14V514.28h1.14v7.47l2.42-2.45h1.52l-2.85,2.82,3.38,3.83Z"/><path class="cls-1" d="M187.7,522.86a2.15,2.15,0,0,0,2.11,2.24,2.29,2.29,0,0,0,2-1.38l1,.53a3.31,3.31,0,0,1-3,1.89,3.51,3.51,0,0,1-.06-7c2,0,3.17,1.57,3.17,3.49v.22Zm2-2.67a2,2,0,0,0-2,1.71h3.91A2,2,0,0,0,189.75,520.19Z"/><path class="cls-1" d="M198.81,526V522c0-1-.14-1.86-1.39-1.86-1.47,0-1.65,1.28-1.65,2.45V526h-1.14v-6.64h1.14v.8a2.24,2.24,0,0,1,1.92-1,2.26,2.26,0,0,1,1.89.91,3,3,0,0,1,.38,1.76V526Z"/><path class="cls-1" d="M202.18,528.39l-.75-.3,1.31-3.7,1.06.38Z"/><path class="cls-1" d="M215.29,525.22a3.75,3.75,0,0,1-2.56.74h-2.66V515.28H212a3.68,3.68,0,0,1,2.42.67,2.89,2.89,0,0,1,1,2.22,2.45,2.45,0,0,1-1.06,2.08,2.67,2.67,0,0,1,2,2.69A2.92,2.92,0,0,1,215.29,525.22Zm-3.11-8.82h-.93V520h.9a2.21,2.21,0,0,0,1.52-.4,1.8,1.8,0,0,0,.56-1.39C214.23,516.86,213.4,516.4,212.18,516.4Zm2.1,4.93a3.42,3.42,0,0,0-1.7-.32h-1.33v3.84h1.49a2.6,2.6,0,0,0,1.75-.46,1.87,1.87,0,0,0,.69-1.47A1.83,1.83,0,0,0,214.28,521.33Z"/><path class="cls-1" d="M221.33,526.14a3.5,3.5,0,1,1,3.51-3.49A3.47,3.47,0,0,1,221.33,526.14Zm0-6a2.46,2.46,0,1,0,2.35,2.46A2.33,2.33,0,0,0,221.32,520.19Z"/><path class="cls-1" d="M229.7,520.46a1,1,0,0,0-.67-.22,1.22,1.22,0,0,0-.58.14c-.74.4-.74,1.34-.74,2.06V526h-1.14v-6.64h1.14V520a1.77,1.77,0,0,1,1.5-.88,1.9,1.9,0,0,1,1,.27Z"/><path class="cls-1" d="M236.37,526V525a2.84,2.84,0,0,1-2.3,1.12,3.29,3.29,0,0,1-3.2-3.54,3.23,3.23,0,0,1,3.18-3.46,2.81,2.81,0,0,1,2.32,1.1v-.94h1.14V526Zm-2.14-5.78a2.26,2.26,0,0,0-2.19,2.43,2.29,2.29,0,0,0,2.19,2.5,2.27,2.27,0,0,0,2.21-2.5A2.24,2.24,0,0,0,234.23,520.17Zm0-2.18a1.38,1.38,0,1,1,1.38-1.38A1.37,1.37,0,0,1,234.2,518Zm0-2a.67.67,0,1,0,.67.67A.68.68,0,0,0,234.2,515.95Z"/><path class="cls-1" d="M241.48,526.14a2.37,2.37,0,0,1-2.32-1.7l1-.42c.27.59.64,1.07,1.34,1.07a1,1,0,0,0,1.09-1c0-1.44-3-1-3-3.06a1.87,1.87,0,0,1,1.94-1.86,2,2,0,0,1,1.83,1.2l-.94.5a1.06,1.06,0,0,0-.93-.66.79.79,0,0,0-.8.74c0,1.17,3.07.86,3.07,3A2.18,2.18,0,0,1,241.48,526.14Z"/><path class="cls-1" d="M39.27,552.14a3.26,3.26,0,0,1-3.3-2.75l1.15-.32a2.17,2.17,0,0,0,2.18,2,2.11,2.11,0,0,0,2.14-2.11c0-2.51-4.93-1.92-4.93-5.06a2.82,2.82,0,0,1,3-2.75,3,3,0,0,1,2.75,1.67l-.94.62a2,2,0,0,0-1.82-1.17,1.69,1.69,0,0,0-1.78,1.63c0,2.21,4.93,1.57,4.93,5A3.29,3.29,0,0,1,39.27,552.14Z"/><path class="cls-1" d="M47.62,552.14a3.5,3.5,0,1,1,3.51-3.49A3.47,3.47,0,0,1,47.62,552.14Zm0-6A2.46,2.46,0,1,0,50,548.66,2.33,2.33,0,0,0,47.61,546.19Zm-1.38-2.24a.81.81,0,0,1-.8-.8.8.8,0,1,1,.8.8Zm2.79,0a.81.81,0,0,1-.8-.8.8.8,0,1,1,.8.8Z"/><path class="cls-1" d="M57,552V548c0-1-.14-1.86-1.39-1.86-1.47,0-1.65,1.28-1.65,2.45V552H52.87v-6.64H54v.8a2.24,2.24,0,0,1,1.92-1,2.26,2.26,0,0,1,1.89.91,3,3,0,0,1,.38,1.76V552Z"/><path class="cls-1" d="M65.45,552V551a2.84,2.84,0,0,1-2.31,1.12,3.29,3.29,0,0,1-3.2-3.52,3.25,3.25,0,0,1,3.19-3.47,2.85,2.85,0,0,1,2.32,1.1v-6h1.14V552Zm-2.15-5.76a2.47,2.47,0,1,0,2.21,2.42A2.23,2.23,0,0,0,63.3,546.19Z"/><path class="cls-1" d="M73.83,552V551a2.84,2.84,0,0,1-2.31,1.12,3.29,3.29,0,0,1-3.2-3.54,3.23,3.23,0,0,1,3.19-3.46,2.81,2.81,0,0,1,2.32,1.1v-.94H75V552Zm-2.15-5.78a2.26,2.26,0,0,0-2.19,2.43,2.29,2.29,0,0,0,2.19,2.5,2.27,2.27,0,0,0,2.21-2.5A2.24,2.24,0,0,0,71.69,546.17Z"/><path class="cls-1" d="M82.73,554.42a3.22,3.22,0,0,1-2.66,1.23,3,3,0,0,1-3.23-3H78a2,2,0,0,0,2.11,2c1.6,0,2.13-1.2,2.13-2.62v-1a3,3,0,0,1-2.34,1.1,3.5,3.5,0,0,1,0-7,2.84,2.84,0,0,1,2.29,1.09v-.93h1.15v6.5A4,4,0,0,1,82.73,554.42Zm-2.67-8.24a2.28,2.28,0,0,0-2.18,2.51,2.24,2.24,0,0,0,2.18,2.42,2.48,2.48,0,0,0,0-4.93Z"/><path class="cls-1" d="M93.86,548.35l-2.19,2.5h4.48V552h-6.9l3.89-4.5c.72-.83,1.84-2,1.84-3.19a2.13,2.13,0,0,0-4.26.13h-1.2a4.43,4.43,0,0,1,.22-1.2,3.33,3.33,0,0,1,6.42,1.09C96.17,545.89,94.86,547.23,93.86,548.35Z"/><path class="cls-1" d="M101.77,552V542.4H100l.62-1.12H103V552Z"/><path class="cls-1" d="M112.26,543.61a.82.82,0,1,1,.82-.82A.82.82,0,0,1,112.26,543.61Zm-.58,12.08V545.31h1.14V555.7Z"/><path class="cls-1" d="M120.09,552V551a2.84,2.84,0,0,1-2.31,1.12,3.29,3.29,0,0,1-3.2-3.54,3.23,3.23,0,0,1,3.19-3.46,2.81,2.81,0,0,1,2.32,1.1v-.94h1.14V552Zm-2.15-5.78a2.26,2.26,0,0,0-2.19,2.43,2.29,2.29,0,0,0,2.19,2.5,2.27,2.27,0,0,0,2.21-2.5A2.24,2.24,0,0,0,117.94,546.17Z"/><path class="cls-1" d="M127.58,552V548c0-1-.14-1.86-1.39-1.86-1.47,0-1.65,1.28-1.65,2.45V552H123.4v-6.64h1.14v.8a2.24,2.24,0,0,1,1.92-1,2.26,2.26,0,0,1,1.89.91,3,3,0,0,1,.38,1.76V552Z"/><path class="cls-1" d="M135.58,551.31a2.9,2.9,0,0,1-4.07,0,2.72,2.72,0,0,1-.61-2v-4H132v3.87a2.55,2.55,0,0,0,.21,1.25,1.57,1.57,0,0,0,2.58,0,2.58,2.58,0,0,0,.21-1.25v-3.87h1.14v4A2.71,2.71,0,0,1,135.58,551.31Z"/><path class="cls-1" d="M143.42,552V551a2.84,2.84,0,0,1-2.31,1.12,3.29,3.29,0,0,1-3.2-3.54,3.23,3.23,0,0,1,3.19-3.46,2.81,2.81,0,0,1,2.32,1.1v-.94h1.14V552Zm-2.15-5.78a2.26,2.26,0,0,0-2.19,2.43,2.29,2.29,0,0,0,2.19,2.5,2.27,2.27,0,0,0,2.21-2.5A2.24,2.24,0,0,0,141.27,546.17Z"/><path class="cls-1" d="M149.85,546.46a1,1,0,0,0-.67-.22,1.22,1.22,0,0,0-.58.14c-.74.4-.74,1.34-.74,2.06V552h-1.14v-6.64h1.14V546a1.77,1.77,0,0,1,1.5-.88,1.9,1.9,0,0,1,1,.27Z"/><path class="cls-1" d="M152,543.61a.82.82,0,1,1,.82-.82A.82.82,0,0,1,152,543.61Zm-.58,8.34v-6.64h1.14V552Z"/><path class="cls-1" d="M154.82,554.39l-.75-.3,1.31-3.7,1.06.38Z"/><path class="cls-1" d="M166.52,552l-2.69-3-.29.29V552H162.4V540.28h1.14v7.47l2.42-2.45h1.52l-2.85,2.82L168,552Z"/><path class="cls-1" d="M169.14,552V540.28h1.14V552Z"/><path class="cls-1" d="M179.61,552V542.4h-1.78l.63-1.12h2.34V552Z"/><path class="cls-1" d="M189.85,548.35l-2.19,2.5h4.48V552h-6.9l3.89-4.5c.72-.83,1.84-2,1.84-3.19a2.13,2.13,0,0,0-4.26.13h-1.2a4.44,4.44,0,0,1,.22-1.2,3.33,3.33,0,0,1,6.42,1.09C192.15,545.89,190.84,547.23,189.85,548.35Z"/><path class="cls-1" d="M193.51,549.06v-1h2.9v1Z"/><path class="cls-1" d="M200.64,552V542.4h-1.78l.62-1.12h2.34V552Z"/><path class="cls-1" d="M212.44,550.21V552h-1.18v-1.75h-5.47l6.66-9.52v8.44h1.31v1.09Zm-1.18-5.91-3.38,4.82h3.38Z"/></svg>