<?xml version="1.0" encoding="utf-8"?>
<!-- Generator: Adobe Illustrator 19.2.0, SVG Export Plug-In . SVG Version: 6.00 Build 0)  -->
<svg version="1.1" id="Layer_1" xmlns="http://www.w3.org/2000/svg" xmlns:xlink="http://www.w3.org/1999/xlink" x="0px" y="0px"
	 viewBox="0 0 300 600" enable-background="new 0 0 300 600" xml:space="preserve">
<g>
	<path fill="#00AADD" d="M-615.158,263.533c0,0,0.248,0.558,0.248,1.333c0,0.807-0.248,1.396-0.248,1.396h-5.768v19.379
		c0,0-0.558,0.217-1.581,0.217c-1.116,0-1.581-0.217-1.581-0.217v-19.379h-5.922c0,0-0.248-0.527-0.248-1.364
		c0-0.775,0.248-1.364,0.248-1.364H-615.158z"/>
	<path fill="#00AADD" d="M-608.743,266.417c0,0-0.559,0.217-1.612,0.217c-1.116,0-1.612-0.217-1.612-0.217v-2.915
		c0,0,0.496-0.217,1.612-0.217c1.054,0,1.612,0.217,1.612,0.217V266.417z M-608.805,285.641c0,0-0.527,0.217-1.55,0.217
		c-1.085,0-1.551-0.217-1.551-0.217v-15.875c0,0,0.465-0.217,1.551-0.217c1.023,0,1.55,0.217,1.55,0.217V285.641z"/>
	<path fill="#00AADD" d="M-601.024,285.641c0,0-0.527,0.217-1.55,0.217c-1.085,0-1.55-0.217-1.55-0.217v-22.82
		c0,0,0.465-0.217,1.55-0.217c1.023,0,1.55,0.217,1.55,0.217V285.641z"/>
	<path fill="#00AADD" d="M-593.212,285.641c0,0-0.527,0.217-1.55,0.217c-1.085,0-1.55-0.217-1.55-0.217v-22.82
		c0,0,0.465-0.217,1.55-0.217c1.023,0,1.55,0.217,1.55,0.217V285.641z"/>
	<path fill="#00AADD" d="M-582.516,262.603c2.077,0,3.41,0.651,3.41,0.651c-0.031,0.868-0.279,1.551-0.806,2.171
		c0,0-0.961-0.341-2.388-0.341c-1.768,0-2.294,0.806-2.294,2.45v2.015h3.875c0.093,0.341,0.155,0.744,0.155,1.209
		c0,0.403-0.062,0.775-0.155,1.116h-3.875v13.767c0,0-0.527,0.217-1.55,0.217c-1.085,0-1.55-0.217-1.55-0.217v-13.767h-2.046
		c-0.062-0.341-0.155-0.744-0.155-1.179c0-0.465,0.063-0.837,0.155-1.147h2.046v-1.86
		C-587.694,264.681-586.454,262.603-582.516,262.603z"/>
	<path fill="#00AADD" d="M-572.039,269.238c4.496,0,5.922,2.016,5.922,6.015v10.387c0,0-0.341,0.217-1.209,0.217
		c-0.775,0-1.24-0.217-1.24-0.217l-0.465-1.984c-0.806,1.643-2.511,2.511-4.868,2.511c-2.915,0-4.806-1.736-4.806-5.178
		c0-3.317,2.078-4.868,5.953-4.868c1.395,0,2.729,0.093,3.535,0.186v-1.333c0-1.984-0.837-3.132-3.193-3.132
		c-2.171,0-4.155,0.775-4.155,0.775c-0.031-0.031-0.403-0.279-0.713-0.931c-0.279-0.651-0.186-1.271-0.186-1.302
		C-577.465,270.386-575.139,269.238-572.039,269.238z M-574.519,263.813c0.93,0,1.426,0.186,1.426,0.186v2.512
		c0,0-0.496,0.186-1.426,0.186c-0.961,0-1.396-0.186-1.396-0.186v-2.512C-575.915,263.998-575.48,263.813-574.519,263.813z
		 M-572.349,278.23c-2.077,0-3.162,0.837-3.162,2.759c0,1.984,1.023,2.791,2.697,2.791c2.449,0,3.597-2.078,3.597-4.279v-1.085
		C-569.93,278.354-571.17,278.23-572.349,278.23z M-569.249,263.813c0.931,0,1.396,0.186,1.396,0.186v2.512
		c0,0-0.465,0.186-1.396,0.186c-0.961,0-1.426-0.186-1.426-0.186v-2.512C-570.674,263.998-570.209,263.813-569.249,263.813z"/>
	<path fill="#00AADD" d="M-558.523,285.641c0,0-0.527,0.217-1.55,0.217c-1.085,0-1.55-0.217-1.55-0.217v-22.82
		c0,0,0.465-0.217,1.55-0.217c1.023,0,1.55,0.217,1.55,0.217V285.641z"/>
	<path fill="#00AADD" d="M-550.711,285.641c0,0-0.527,0.217-1.55,0.217c-1.085,0-1.55-0.217-1.55-0.217v-22.82
		c0,0,0.465-0.217,1.55-0.217c1.023,0,1.55,0.217,1.55,0.217V285.641z"/>
	<path fill="#00AADD" d="M-542.869,266.417c0,0-0.558,0.217-1.612,0.217c-1.116,0-1.612-0.217-1.612-0.217v-2.915
		c0,0,0.496-0.217,1.612-0.217c1.055,0,1.612,0.217,1.612,0.217V266.417z M-542.93,285.641c0,0-0.527,0.217-1.551,0.217
		c-1.085,0-1.55-0.217-1.55-0.217v-15.875c0,0,0.465-0.217,1.55-0.217c1.023,0,1.551,0.217,1.551,0.217V285.641z"/>
	<path fill="#00AADD" d="M-525.104,269.238c0.279,0.651,0.279,1.768,0,2.449l-2.574-0.124c0.589,0.868,0.868,1.954,0.868,3.256
		c0,3.473-2.077,5.581-6.077,5.581c-0.496,0-0.961-0.031-1.364-0.093c-0.341,0.465-0.651,1.116-0.589,1.798
		c0.341,2.853,9.705-0.186,9.705,6.201c0,3.039-2.946,5.302-7.969,5.302c-4.651,0-6.604-1.83-6.604-4.31
		c0-2.356,1.923-3.782,2.76-4.278c-0.434-0.435-0.682-1.023-0.682-1.799c0-1.364,0.775-2.604,1.488-3.441
		c-1.86-0.868-2.822-2.604-2.822-4.961c0-3.473,2.108-5.581,6.077-5.581c1.396,0,2.543,0.248,3.442,0.713L-525.104,269.238z
		 M-535.273,285.857c-0.775,0.62-1.426,1.674-1.426,2.821c0,1.551,1.147,2.729,3.689,2.729c3.194,0,4.93-1.147,4.93-2.79
		C-528.08,286.074-532.483,286.726-535.273,285.857z M-532.886,271.409c-1.86,0-3.131,1.085-3.131,3.411s1.271,3.38,3.131,3.38
		s3.101-1.055,3.101-3.38S-531.026,271.409-532.886,271.409z"/>
	<path fill="#00AADD" d="M-517.728,279.997c0,2.822,0.899,3.659,3.101,3.659c0.62,0,1.303-0.124,1.303-0.124s0.217,0.527,0.217,1.24
		c0,0.713-0.155,1.116-0.155,1.116c-0.558,0.155-1.395,0.279-2.232,0.279c-3.813,0-5.333-2.078-5.333-6.015v-8.278h-2.387
		c0,0-0.186-0.435-0.186-1.147c0-0.775,0.186-1.178,0.186-1.178h2.387v-2.822c0.807-0.496,1.954-0.713,3.101-0.62v3.442h4.031
		c0,0,0.186,0.403,0.186,1.147c0,0.713-0.186,1.179-0.186,1.179h-4.031V279.997z"/>
	<path fill="#00AADD" d="M-500.678,278.664c0.248,3.689,1.736,4.868,4.31,4.868c2.202,0,3.659-0.899,3.659-0.899
		c0.558,0.496,0.961,1.333,0.992,2.232c0,0-1.768,1.302-5.147,1.302c-4.775,0-7.007-2.946-7.007-8.558
		c0-5.86,2.76-8.372,6.883-8.372c3.814,0,6.139,2.108,6.139,6.232c0,1.953-0.341,3.193-0.341,3.193H-500.678z M-496.988,271.688
		c-2.015,0-3.442,1.333-3.69,4.775h6.636c0.031-0.248,0.093-0.744,0.093-1.396C-493.95,273.238-494.694,271.688-496.988,271.688z"/>
	<path fill="#00AADD" d="M-480.341,269.27c1.147,0,2.015,0.341,2.697,0.775c-0.093,1.116-0.527,1.922-1.364,2.604
		c-0.589-0.434-1.209-0.651-1.922-0.651c-1.209,0-2.387,0.93-3.194,2.356v11.286c0,0-0.527,0.217-1.55,0.217
		c-1.085,0-1.551-0.217-1.551-0.217v-15.875c0,0,0.465-0.217,1.551-0.217c1.023,0,1.55,0.217,1.55,0.217v2.139
		C-482.946,269.951-481.582,269.27-480.341,269.27z"/>
	<path fill="#00AADD" d="M-471.911,271.254c0.868-1.271,2.264-2.016,4.465-2.016c3.535,0,5.829,2.14,5.829,8.465
		s-2.294,8.464-5.829,8.464c-2.201,0-3.597-0.744-4.465-2.015v1.488c0,0-0.527,0.217-1.581,0.217c-1.023,0-1.52-0.217-1.52-0.217
		v-22.82c0,0,0.496-0.217,1.52-0.217c1.054,0,1.581,0.217,1.581,0.217V271.254z M-468.531,271.781c-2.17,0-3.38,1.798-3.38,3.907
		v3.969c0,2.14,1.209,3.969,3.38,3.969c2.48,0,3.721-1.302,3.721-5.922C-464.81,273.083-466.05,271.781-468.531,271.781z"/>
	<path fill="#00AADD" d="M-457.713,269.766c0,0,0.465-0.217,1.551-0.217c1.023,0,1.55,0.217,1.55,0.217v18.82
		c0,3.287-1.581,5.023-4.496,5.023c-1.302,0-2.078-0.279-2.078-0.279s-0.093-0.311-0.093-0.713c0-1.085,0.31-1.582,0.31-1.582
		s0.496,0.124,1.147,0.124c1.396,0,2.108-0.744,2.108-2.449V269.766z M-454.55,266.386c0,0-0.559,0.217-1.612,0.217
		c-1.116,0-1.612-0.217-1.612-0.217v-2.915c0,0,0.496-0.217,1.612-0.217c1.054,0,1.612,0.217,1.612,0.217V266.386z"/>
	<path fill="#00AADD" d="M-450.149,269.766c0,0,0.527-0.217,1.55-0.217c1.055,0,1.551,0.217,1.551,0.217v11.162
		c0,1.736,0.899,2.729,2.883,2.729c1.364,0,2.667-0.713,3.503-1.984v-11.906c0,0,0.559-0.217,1.551-0.217
		c1.085,0,1.55,0.217,1.55,0.217v15.875c0,0-0.465,0.217-1.55,0.217c-0.992,0-1.551-0.217-1.551-0.217v-1.427
		c-1.116,1.271-2.759,1.954-4.682,1.954c-3.101,0-4.806-1.891-4.806-4.682V269.766z"/>
	<path fill="#00AADD" d="M-421.844,262.603c1.023,0,1.52,0.217,1.52,0.217v22.82c0,0-0.527,0.217-1.303,0.217
		c-0.775,0-1.395-0.217-1.395-0.217l-0.217-1.675c-0.899,1.364-2.325,2.202-4.65,2.202c-3.535,0-5.829-2.139-5.829-8.464
		s2.294-8.465,5.829-8.465c2.17,0,3.565,0.744,4.465,2.016v-8.434C-423.425,262.82-422.898,262.603-421.844,262.603z
		 M-426.805,271.781c-2.48,0-3.721,1.302-3.721,5.922c0,4.62,1.24,5.922,3.721,5.922c2.17,0,3.38-1.829,3.38-3.969v-4
		C-423.457,273.579-424.666,271.781-426.805,271.781z"/>
	<path fill="#00AADD" d="M-410.159,269.238c4.496,0,5.922,2.016,5.922,6.015v10.387c0,0-0.341,0.217-1.209,0.217
		c-0.775,0-1.24-0.217-1.24-0.217l-0.465-1.984c-0.806,1.643-2.512,2.511-4.868,2.511c-2.914,0-4.806-1.706-4.806-5.178
		c0-3.379,2.077-4.868,5.953-4.868c1.396,0,2.729,0.093,3.535,0.186v-1.147c0-2.108-0.806-3.317-3.194-3.317
		c-2.17,0-4.154,0.775-4.154,0.775c-0.031-0.031-0.403-0.279-0.713-0.931c-0.279-0.651-0.186-1.271-0.186-1.302
		C-415.584,270.386-413.259,269.238-410.159,269.238z M-410.468,278.23c-2.078,0-3.163,0.806-3.163,2.759
		c0,2.016,1.023,2.791,2.698,2.791c2.45,0,3.597-2.078,3.597-4.279v-1.085C-408.05,278.354-409.291,278.23-410.468,278.23z"/>
	<path fill="#00AADD" d="M-387.248,285.641c0,0-0.527,0.217-1.551,0.217c-1.054,0-1.55-0.217-1.55-0.217v-11.162
		c0-1.736-0.899-2.729-2.884-2.729c-1.364,0-2.697,0.744-3.504,1.984v11.906c0,0-0.558,0.217-1.55,0.217
		c-1.085,0-1.551-0.217-1.551-0.217v-15.875c0,0,0.465-0.217,1.551-0.217c0.992,0,1.55,0.217,1.55,0.217v1.426
		c1.116-1.271,2.729-1.953,4.682-1.953c3.101,0,4.806,1.892,4.806,4.682V285.641z"/>
	<path fill="#00AADD" d="M-371.625,262.603c1.023,0,1.52,0.217,1.52,0.217v22.82c0,0-0.527,0.217-1.303,0.217
		c-0.775,0-1.395-0.217-1.395-0.217l-0.217-1.675c-0.899,1.364-2.325,2.202-4.65,2.202c-3.535,0-5.829-2.139-5.829-8.464
		s2.294-8.465,5.829-8.465c2.17,0,3.565,0.744,4.465,2.016v-8.434C-373.206,262.82-372.679,262.603-371.625,262.603z
		 M-376.585,271.781c-2.48,0-3.721,1.302-3.721,5.922c0,4.62,1.24,5.922,3.721,5.922c2.17,0,3.38-1.829,3.38-3.969v-4
		C-373.237,273.579-374.446,271.781-376.585,271.781z"/>
	<path fill="#00AADD" d="M-363.101,278.664c0.248,3.689,1.736,4.868,4.31,4.868c2.202,0,3.659-0.899,3.659-0.899
		c0.558,0.496,0.961,1.333,0.992,2.232c0,0-1.768,1.302-5.147,1.302c-4.775,0-7.007-2.946-7.007-8.558
		c0-5.86,2.76-8.372,6.883-8.372c3.814,0,6.139,2.108,6.139,6.232c0,1.953-0.341,3.193-0.341,3.193H-363.101z M-359.411,271.688
		c-2.015,0-3.442,1.333-3.69,4.775h6.636c0.031-0.248,0.093-0.744,0.093-1.396C-356.373,273.238-357.117,271.688-359.411,271.688z"
		/>
	<path fill="#00AADD" d="M-601.426,300.733c4,0,6.077,2.604,6.077,6.139c0,2.574-1.364,4-2.48,4.713
		c1.333,0.682,3.132,2.108,3.132,5.178c0,3.751-2.388,6.294-6.604,6.294h-8.434v-22.324H-601.426z M-602.108,310.563
		c2.511,0,3.534-1.551,3.534-3.69c0-2.202-0.992-3.69-3.565-3.69h-4.434v7.38H-602.108z M-601.891,320.608
		c2.791,0,3.938-1.427,3.938-3.845c0-2.604-1.24-3.845-3.969-3.845h-4.65v7.689H-601.891z"/>
	<path fill="#00AADD" d="M-585.121,306.438c4.496,0,5.922,2.016,5.922,6.015v10.387c0,0-0.341,0.217-1.209,0.217
		c-0.775,0-1.24-0.217-1.24-0.217l-0.465-1.984c-0.806,1.643-2.511,2.511-4.868,2.511c-2.915,0-4.806-1.706-4.806-5.178
		c0-3.379,2.078-4.868,5.953-4.868c1.395,0,2.729,0.093,3.535,0.186v-1.147c0-2.108-0.806-3.317-3.193-3.317
		c-2.171,0-4.155,0.775-4.155,0.775c-0.031-0.031-0.403-0.279-0.713-0.931c-0.279-0.651-0.186-1.271-0.186-1.302
		C-590.547,307.586-588.221,306.438-585.121,306.438z M-585.431,315.43c-2.077,0-3.162,0.806-3.162,2.759
		c0,2.016,1.023,2.791,2.697,2.791c2.449,0,3.597-2.078,3.597-4.279v-1.085C-583.012,315.554-584.252,315.43-585.431,315.43z"/>
	<path fill="#00AADD" d="M-570.799,317.197c0,2.822,0.899,3.659,3.101,3.659c0.62,0,1.303-0.124,1.303-0.124s0.217,0.527,0.217,1.24
		c0,0.713-0.155,1.116-0.155,1.116c-0.558,0.155-1.395,0.279-2.232,0.279c-3.813,0-5.333-2.078-5.333-6.015v-8.278h-2.387
		c0,0-0.186-0.435-0.186-1.147c0-0.775,0.186-1.178,0.186-1.178h2.387v-2.822c0.807-0.496,1.954-0.713,3.101-0.62v3.442h4.031
		c0,0,0.186,0.403,0.186,1.147c0,0.713-0.186,1.179-0.186,1.179h-4.031V317.197z"/>
	<path fill="#00AADD" d="M-559.05,317.197c0,2.822,0.899,3.659,3.101,3.659c0.62,0,1.303-0.124,1.303-0.124s0.217,0.527,0.217,1.24
		c0,0.713-0.155,1.116-0.155,1.116c-0.558,0.155-1.395,0.279-2.232,0.279c-3.813,0-5.333-2.078-5.333-6.015v-8.278h-2.387
		c0,0-0.186-0.435-0.186-1.147c0-0.775,0.186-1.178,0.186-1.178h2.387v-2.822c0.807-0.496,1.954-0.713,3.101-0.62v3.442h4.031
		c0,0,0.186,0.403,0.186,1.147c0,0.713-0.186,1.179-0.186,1.179h-4.031V317.197z"/>
	<path fill="#00AADD" d="M-548.975,315.864c0.248,3.689,1.736,4.868,4.31,4.868c2.201,0,3.659-0.899,3.659-0.899
		c0.558,0.496,0.961,1.333,0.992,2.232c0,0-1.767,1.302-5.147,1.302c-4.775,0-7.007-2.946-7.007-8.558
		c0-5.86,2.759-8.372,6.883-8.372c3.813,0,6.139,2.108,6.139,6.232c0,1.953-0.341,3.193-0.341,3.193H-548.975z M-545.286,308.888
		c-2.016,0-3.441,1.333-3.689,4.775h6.635c0.031-0.248,0.093-0.744,0.093-1.396C-542.247,310.438-542.991,308.888-545.286,308.888z"
		/>
	<path fill="#00AADD" d="M-528.639,306.47c1.147,0,2.016,0.341,2.698,0.775c-0.093,1.116-0.527,1.922-1.364,2.604
		c-0.589-0.434-1.209-0.651-1.922-0.651c-1.209,0-2.388,0.93-3.193,2.356v11.286c0,0-0.527,0.217-1.551,0.217
		c-1.085,0-1.55-0.217-1.55-0.217v-15.875c0,0,0.465-0.217,1.55-0.217c1.023,0,1.551,0.217,1.551,0.217v2.139
		C-531.244,307.151-529.879,306.47-528.639,306.47z"/>
	<path fill="#00AADD" d="M-520.083,303.617c0,0-0.559,0.217-1.612,0.217c-1.116,0-1.612-0.217-1.612-0.217v-2.915
		c0,0,0.496-0.217,1.612-0.217c1.054,0,1.612,0.217,1.612,0.217V303.617z M-520.146,322.841c0,0-0.527,0.217-1.55,0.217
		c-1.085,0-1.551-0.217-1.551-0.217v-15.875c0,0,0.465-0.217,1.551-0.217c1.023,0,1.55,0.217,1.55,0.217V322.841z"/>
	<path fill="#00AADD" d="M-504.987,317.197c0,2.822,0.899,3.659,3.101,3.659c0.62,0,1.303-0.124,1.303-0.124s0.217,0.527,0.217,1.24
		c0,0.713-0.155,1.116-0.155,1.116c-0.558,0.155-1.395,0.279-2.232,0.279c-3.813,0-5.333-2.078-5.333-6.015v-8.278h-2.387
		c0,0-0.186-0.435-0.186-1.147c0-0.775,0.186-1.178,0.186-1.178h2.387v-2.822c0.807-0.496,1.954-0.713,3.101-0.62v3.442h4.031
		c0,0,0.186,0.403,0.186,1.147c0,0.713-0.186,1.179-0.186,1.179h-4.031V317.197z"/>
	<path fill="#00AADD" d="M-494.167,303.617c0,0-0.559,0.217-1.612,0.217c-1.116,0-1.612-0.217-1.612-0.217v-2.915
		c0,0,0.496-0.217,1.612-0.217c1.054,0,1.612,0.217,1.612,0.217V303.617z M-494.23,322.841c0,0-0.527,0.217-1.55,0.217
		c-1.085,0-1.551-0.217-1.551-0.217v-15.875c0,0,0.465-0.217,1.551-0.217c1.023,0,1.55,0.217,1.55,0.217V322.841z"/>
	<path fill="#00AADD" d="M-486.449,322.841c0,0-0.527,0.217-1.55,0.217c-1.085,0-1.55-0.217-1.55-0.217v-22.82
		c0,0,0.465-0.217,1.55-0.217c1.023,0,1.55,0.217,1.55,0.217V322.841z"/>
	<path fill="#00AADD" d="M-478.637,322.841c0,0-0.527,0.217-1.55,0.217c-1.085,0-1.55-0.217-1.55-0.217v-22.82
		c0,0,0.465-0.217,1.55-0.217c1.023,0,1.55,0.217,1.55,0.217V322.841z"/>
	<path fill="#00AADD" d="M-463.943,308.454c0.868-1.271,2.263-2.016,4.465-2.016c3.534,0,5.829,2.14,5.829,8.465
		s-2.295,8.464-5.829,8.464c-2.202,0-3.597-0.744-4.465-2.015v1.488c0,0-0.527,0.217-1.582,0.217c-1.023,0-1.519-0.217-1.519-0.217
		v-22.82c0,0,0.496-0.217,1.519-0.217c1.054,0,1.582,0.217,1.582,0.217V308.454z M-460.563,308.981c-2.17,0-3.379,1.798-3.379,3.907
		v3.969c0,2.14,1.209,3.969,3.379,3.969c2.48,0,3.721-1.302,3.721-5.922C-456.843,310.283-458.083,308.981-460.563,308.981z"/>
	<path fill="#00AADD" d="M-446.583,303.617c0,0-0.559,0.217-1.612,0.217c-1.116,0-1.612-0.217-1.612-0.217v-2.915
		c0,0,0.496-0.217,1.612-0.217c1.054,0,1.612,0.217,1.612,0.217V303.617z M-446.645,322.841c0,0-0.527,0.217-1.55,0.217
		c-1.085,0-1.551-0.217-1.551-0.217v-15.875c0,0,0.465-0.217,1.551-0.217c1.023,0,1.55,0.217,1.55,0.217V322.841z"/>
	<path fill="#00AADD" d="M-438.864,322.841c0,0-0.527,0.217-1.55,0.217c-1.085,0-1.55-0.217-1.55-0.217v-22.82
		c0,0,0.465-0.217,1.55-0.217c1.023,0,1.55,0.217,1.55,0.217V322.841z"/>
	<path fill="#00AADD" d="M-424.791,315.864c0.248,3.689,1.736,4.868,4.31,4.868c2.202,0,3.659-0.899,3.659-0.899
		c0.558,0.496,0.961,1.333,0.992,2.232c0,0-1.768,1.302-5.147,1.302c-4.775,0-7.007-2.946-7.007-8.558
		c0-5.86,2.76-8.372,6.883-8.372c3.814,0,6.139,2.108,6.139,6.232c0,1.953-0.341,3.193-0.341,3.193H-424.791z M-421.101,308.888
		c-2.015,0-3.442,1.333-3.69,4.775h6.636c0.031-0.248,0.093-0.744,0.093-1.396C-418.062,310.438-418.806,308.888-421.101,308.888z"
		/>
	<path fill="#00AADD" d="M-408.144,322.841c0,0-0.527,0.217-1.55,0.217c-1.085,0-1.55-0.217-1.55-0.217v-22.82
		c0,0,0.465-0.217,1.55-0.217c1.023,0,1.55,0.217,1.55,0.217V322.841z"/>
	<path fill="#00AADD" d="M-400.332,322.841c0,0-0.527,0.217-1.55,0.217c-1.085,0-1.55-0.217-1.55-0.217v-22.82
		c0,0,0.465-0.217,1.55-0.217c1.023,0,1.55,0.217,1.55,0.217V322.841z"/>
	<path fill="#00AADD" d="M-393.233,315.864c0.248,3.689,1.736,4.868,4.31,4.868c2.202,0,3.659-0.899,3.659-0.899
		c0.558,0.496,0.961,1.333,0.992,2.232c0,0-1.768,1.302-5.147,1.302c-4.775,0-7.007-2.946-7.007-8.558
		c0-5.86,2.76-8.372,6.883-8.372c3.814,0,6.139,2.108,6.139,6.232c0,1.953-0.341,3.193-0.341,3.193H-393.233z M-389.543,308.888
		c-2.015,0-3.442,1.333-3.69,4.775h6.636c0.031-0.248,0.093-0.744,0.093-1.396C-386.504,310.438-387.249,308.888-389.543,308.888z"
		/>
	<path fill="#00AADD" d="M-372.896,306.47c1.147,0,2.015,0.341,2.697,0.775c-0.093,1.116-0.527,1.922-1.364,2.604
		c-0.589-0.434-1.209-0.651-1.922-0.651c-1.209,0-2.387,0.93-3.194,2.356v11.286c0,0-0.527,0.217-1.55,0.217
		c-1.085,0-1.551-0.217-1.551-0.217v-15.875c0,0,0.465-0.217,1.551-0.217c1.023,0,1.55,0.217,1.55,0.217v2.139
		C-375.5,307.151-374.136,306.47-372.896,306.47z"/>
	<path fill="#00AADD" d="M-552.432,360.04c0,0-0.527,0.217-1.55,0.217c-1.085,0-1.55-0.217-1.55-0.217v-22.82
		c0,0,0.465-0.217,1.55-0.217c1.023,0,1.55,0.217,1.55,0.217V360.04z"/>
	<path fill="#00AADD" d="M-542.17,343.638c4.496,0,5.922,2.015,5.922,6.015v10.387c0,0-0.341,0.217-1.209,0.217
		c-0.775,0-1.24-0.217-1.24-0.217l-0.465-1.984c-0.806,1.644-2.511,2.512-4.868,2.512c-2.915,0-4.806-1.736-4.806-5.178
		c0-3.318,2.078-4.868,5.953-4.868c1.395,0,2.729,0.093,3.535,0.186v-1.333c0-1.984-0.837-3.131-3.193-3.131
		c-2.171,0-4.155,0.775-4.155,0.775c-0.031-0.031-0.403-0.279-0.713-0.93c-0.279-0.651-0.186-1.271-0.186-1.303
		C-547.597,344.785-545.271,343.638-542.17,343.638z M-544.651,338.212c0.93,0,1.426,0.187,1.426,0.187v2.511
		c0,0-0.496,0.186-1.426,0.186c-0.961,0-1.396-0.186-1.396-0.186v-2.511C-546.046,338.398-545.612,338.212-544.651,338.212z
		 M-542.481,352.63c-2.077,0-3.162,0.837-3.162,2.76c0,1.984,1.023,2.79,2.697,2.79c2.449,0,3.597-2.077,3.597-4.278v-1.085
		C-540.062,352.754-541.302,352.63-542.481,352.63z M-539.38,338.212c0.931,0,1.396,0.187,1.396,0.187v2.511
		c0,0-0.465,0.186-1.396,0.186c-0.961,0-1.426-0.186-1.426-0.186v-2.511C-540.806,338.398-540.341,338.212-539.38,338.212z"/>
	<path fill="#00AADD" d="M-527.694,354.397c0,2.821,0.899,3.658,3.101,3.658c0.62,0,1.302-0.124,1.302-0.124s0.217,0.527,0.217,1.24
		c0,0.713-0.155,1.116-0.155,1.116c-0.559,0.155-1.396,0.279-2.232,0.279c-3.814,0-5.333-2.077-5.333-6.015v-8.279h-2.388
		c0,0-0.186-0.434-0.186-1.147c0-0.775,0.186-1.178,0.186-1.178h2.388v-2.821c0.806-0.496,1.953-0.713,3.101-0.62v3.441h4.03
		c0,0,0.187,0.403,0.187,1.147c0,0.713-0.187,1.178-0.187,1.178h-4.03V354.397z"/>
	<path fill="#00AADD" d="M-515.945,354.397c0,2.821,0.899,3.658,3.101,3.658c0.62,0,1.302-0.124,1.302-0.124s0.217,0.527,0.217,1.24
		c0,0.713-0.155,1.116-0.155,1.116c-0.559,0.155-1.396,0.279-2.232,0.279c-3.814,0-5.333-2.077-5.333-6.015v-8.279h-2.388
		c0,0-0.186-0.434-0.186-1.147c0-0.775,0.186-1.178,0.186-1.178h2.388v-2.821c0.806-0.496,1.953-0.713,3.101-0.62v3.441h4.03
		c0,0,0.187,0.403,0.187,1.147c0,0.713-0.187,1.178-0.187,1.178h-4.03V354.397z"/>
	<path fill="#00AADD" d="M-509.033,352.413c0,0-0.186-0.435-0.186-1.147s0.186-1.147,0.186-1.147h6.449c0,0,0.187,0.435,0.187,1.147
		s-0.187,1.147-0.187,1.147H-509.033z"/>
	<path fill="#00AADD" d="M-494.803,360.04c0,0-0.527,0.217-1.55,0.217c-1.085,0-1.55-0.217-1.55-0.217v-22.82
		c0,0,0.465-0.217,1.55-0.217c1.023,0,1.55,0.217,1.55,0.217V360.04z"/>
	<path fill="#00AADD" d="M-484.542,343.638c4.496,0,5.922,2.015,5.922,6.015v10.387c0,0-0.341,0.217-1.209,0.217
		c-0.775,0-1.24-0.217-1.24-0.217l-0.465-1.984c-0.806,1.644-2.511,2.512-4.868,2.512c-2.915,0-4.806-1.705-4.806-5.178
		c0-3.38,2.078-4.868,5.953-4.868c1.395,0,2.729,0.093,3.535,0.186v-1.147c0-2.108-0.806-3.318-3.193-3.318
		c-2.171,0-4.155,0.775-4.155,0.775c-0.031-0.031-0.403-0.279-0.713-0.93c-0.279-0.651-0.186-1.271-0.186-1.303
		C-489.968,344.785-487.642,343.638-484.542,343.638z M-484.852,352.63c-2.077,0-3.162,0.806-3.162,2.76
		c0,2.015,1.023,2.79,2.697,2.79c2.449,0,3.597-2.077,3.597-4.278v-1.085C-482.433,352.754-483.673,352.63-484.852,352.63z"/>
	<path fill="#00AADD" d="M-469.104,343.638c3.039,0,4.372,0.837,4.372,0.837c0,0.806-0.279,1.705-0.807,2.201
		c0,0-1.488-0.496-3.255-0.496c-2.108,0-3.163,0.775-3.163,2.232c0,1.52,1.953,1.892,3.907,2.542
		c2.015,0.651,4.124,1.612,4.124,4.651c0,3.132-1.953,4.961-5.891,4.961c-3.256,0-5.178-1.116-5.178-1.116
		c0-0.899,0.279-1.768,0.837-2.294c0,0,2.015,0.775,4.186,0.775c1.892,0,2.977-0.713,2.977-2.232c0-1.705-1.705-2.077-3.535-2.604
		c-2.108-0.62-4.403-1.519-4.403-4.589C-474.933,345.592-473.042,343.638-469.104,343.638z"/>
	<path fill="#00AADD" d="M-456.239,354.397c0,2.821,0.899,3.658,3.101,3.658c0.62,0,1.302-0.124,1.302-0.124s0.217,0.527,0.217,1.24
		c0,0.713-0.155,1.116-0.155,1.116c-0.559,0.155-1.396,0.279-2.232,0.279c-3.814,0-5.333-2.077-5.333-6.015v-8.279h-2.388
		c0,0-0.186-0.434-0.186-1.147c0-0.775,0.186-1.178,0.186-1.178h2.388v-2.821c0.806-0.496,1.953-0.713,3.101-0.62v3.441h4.03
		c0,0,0.187,0.403,0.187,1.147c0,0.713-0.187,1.178-0.187,1.178h-4.03V354.397z"/>
	<path fill="#00AADD" d="M-445.544,345.653c0.868-1.271,2.263-2.015,4.465-2.015c3.534,0,5.829,2.139,5.829,8.464
		s-2.295,8.465-5.829,8.465c-2.202,0-3.597-0.744-4.465-2.016v1.488c0,0-0.527,0.217-1.582,0.217c-1.023,0-1.519-0.217-1.519-0.217
		v-22.82c0,0,0.496-0.217,1.519-0.217c1.054,0,1.582,0.217,1.582,0.217V345.653z M-442.165,346.181c-2.17,0-3.379,1.798-3.379,3.907
		v3.969c0,2.139,1.209,3.969,3.379,3.969c2.48,0,3.721-1.302,3.721-5.922C-438.444,347.483-439.685,346.181-442.165,346.181z"/>
	<path fill="#00AADD" d="M-428.184,340.816c0,0-0.559,0.217-1.612,0.217c-1.116,0-1.612-0.217-1.612-0.217v-2.914
		c0,0,0.496-0.217,1.612-0.217c1.054,0,1.612,0.217,1.612,0.217V340.816z M-428.247,360.04c0,0-0.527,0.217-1.55,0.217
		c-1.085,0-1.551-0.217-1.551-0.217v-15.875c0,0,0.465-0.217,1.551-0.217c1.023,0,1.55,0.217,1.55,0.217V360.04z"/>
	<path fill="#00AADD" d="M-420.465,360.04c0,0-0.527,0.217-1.55,0.217c-1.085,0-1.55-0.217-1.55-0.217v-22.82
		c0,0,0.465-0.217,1.55-0.217c1.023,0,1.55,0.217,1.55,0.217V360.04z"/>
</g>
<g>
	<path fill="#00AADD" d="M-280.769,332.293c0,0,0.378-0.188,1.377-0.188c0.917,0,1.376,0.188,1.376,0.188v14.09
		c0,3.671-2.105,5.426-5.209,5.426c-2.16,0-3.941-0.81-3.941-0.81c-0.027-0.836,0.216-1.539,0.729-2.078
		c0,0,1.242,0.486,2.618,0.486c1.728,0,3.05-0.729,3.05-2.942V332.293z"/>
	<path fill="#00AADD" d="M-274.072,337.53c0,0,0.459-0.189,1.35-0.189c0.918,0,1.35,0.189,1.35,0.189v9.717
		c0,1.512,0.783,2.375,2.51,2.375c1.188,0,2.321-0.621,3.05-1.728V337.53c0,0,0.486-0.189,1.35-0.189c0.944,0,1.35,0.189,1.35,0.189
		v13.82c0,0-0.405,0.189-1.35,0.189c-0.864,0-1.35-0.189-1.35-0.189v-1.242c-0.972,1.107-2.402,1.701-4.076,1.701
		c-2.699,0-4.184-1.646-4.184-4.076V337.53z"/>
	<path fill="#00AADD" d="M-254.714,337.071c2.646,0,3.806,0.729,3.806,0.729c0,0.702-0.243,1.484-0.702,1.917
		c0,0-1.295-0.432-2.834-0.432c-1.835,0-2.753,0.675-2.753,1.944c0,1.322,1.701,1.646,3.401,2.213
		c1.754,0.567,3.59,1.403,3.59,4.049c0,2.726-1.701,4.319-5.129,4.319c-2.834,0-4.508-0.972-4.508-0.972
		c0-0.783,0.243-1.539,0.729-1.998c0,0,1.754,0.675,3.644,0.675c1.646,0,2.591-0.621,2.591-1.943c0-1.485-1.484-1.809-3.077-2.268
		c-1.835-0.54-3.833-1.323-3.833-3.995C-259.789,338.771-258.142,337.071-254.714,337.071z"/>
	<path fill="#00AADD" d="M-243.509,346.438c0,2.456,0.783,3.185,2.699,3.185c0.54,0,1.134-0.108,1.134-0.108s0.189,0.459,0.189,1.08
		c0,0.621-0.135,0.972-0.135,0.972c-0.486,0.135-1.215,0.243-1.944,0.243c-3.32,0-4.643-1.809-4.643-5.237v-7.207h-2.079
		c0,0-0.162-0.378-0.162-0.999c0-0.675,0.162-1.026,0.162-1.026h2.079v-2.457c0.702-0.432,1.701-0.621,2.699-0.54v2.996H-240
		c0,0,0.162,0.351,0.162,0.999c0,0.621-0.162,1.026-0.162,1.026h-3.509V346.438z"/>
	<path fill="#00AADD" d="M-219.859,351.35c0,0-0.459,0.189-1.35,0.189c-0.918,0-1.35-0.189-1.35-0.189v-9.717
		c0-1.512-0.783-2.375-2.511-2.375c-1.188,0-2.348,0.648-3.05,1.728v10.365c0,0-0.486,0.189-1.35,0.189
		c-0.945,0-1.35-0.189-1.35-0.189v-13.82c0,0,0.405-0.189,1.35-0.189c0.864,0,1.35,0.189,1.35,0.189v1.242
		c0.972-1.107,2.375-1.701,4.076-1.701c2.699,0,4.184,1.646,4.184,4.076V351.35z"/>
	<path fill="#00AADD" d="M-216.104,337.53c0,0,0.459-0.189,1.35-0.189c0.918,0,1.35,0.189,1.35,0.189v9.717
		c0,1.512,0.783,2.375,2.51,2.375c1.188,0,2.321-0.621,3.05-1.728V337.53c0,0,0.486-0.189,1.35-0.189c0.944,0,1.35,0.189,1.35,0.189
		v13.82c0,0-0.405,0.189-1.35,0.189c-0.864,0-1.35-0.189-1.35-0.189v-1.242c-0.972,1.107-2.402,1.701-4.076,1.701
		c-2.699,0-4.184-1.646-4.184-4.076V337.53z"/>
	<path fill="#00AADD" d="M-201.011,332.293c0,0,0.432-0.188,1.458-0.188c0.972,0,1.458,0.188,1.458,0.188l-0.459,14.063
		c0,0-0.351,0.216-0.972,0.216c-0.648,0-1.026-0.216-1.026-0.216L-201.011,332.293z M-198.176,351.35c0,0-0.459,0.189-1.376,0.189
		c-0.972,0-1.377-0.189-1.377-0.189v-2.537c0,0,0.405-0.189,1.377-0.189c0.917,0,1.376,0.189,1.376,0.189V351.35z"/>
	<path fill="#00AADD" d="M-184.866,340.742c0.216-0.027,0.729-0.081,1.404-0.081c4.13,0,6.262,1.754,6.262,5.587
		c0,3.59-2.213,5.561-6.91,5.561c-3.158,0-4.508-0.891-4.508-0.891c-0.054-0.729,0.216-1.539,0.675-1.998
		c0,0,1.484,0.567,3.563,0.567c2.834,0,4.4-0.918,4.4-3.239c0-2.429-1.215-3.347-4.454-3.347c-1.188,0-2.349,0.108-3.078,0.162
		v-9.879h9.529c0.297,0.783,0.297,1.673,0,2.375h-6.883V340.742z"/>
	<path fill="#00AADD" d="M-174.146,342.361c0-6.64,2.402-9.447,6.695-9.447c4.291,0,6.748,2.726,6.748,9.447
		s-2.457,9.448-6.748,9.448C-171.744,351.809-174.146,349.083-174.146,342.361z M-171.285,342.361c0,5.588,1.35,7.153,3.833,7.153
		c2.537,0,3.833-1.565,3.833-7.153c0-5.614-1.296-7.153-3.833-7.153C-169.935,335.208-171.285,336.747-171.285,342.361z"/>
	<path fill="#00AADD" d="M-149.956,338.934c0,3.698-1.943,5.533-4.211,5.533c-2.187,0-4.076-1.754-4.104-5.291
		c0-3.509,1.917-5.479,4.238-5.479C-151.576,333.697-149.956,335.586-149.956,338.934z M-156.381,339.095
		c-0.054,2.241,0.783,3.941,2.268,3.941c1.565,0,2.268-1.673,2.268-3.995c0-2.132-0.621-3.914-2.268-3.914
		C-155.598,335.127-156.381,336.882-156.381,339.095z M-154.329,351.836l10.312-18.139h1.512l-10.312,18.139H-154.329z
		 M-138.538,346.194c0,3.698-1.943,5.534-4.185,5.534c-2.186,0-4.075-1.754-4.103-5.264c0-3.536,1.917-5.506,4.238-5.506
		C-140.131,340.958-138.538,342.847-138.538,346.194z M-144.963,346.356c-0.026,2.24,0.837,3.941,2.295,3.941
		c1.565,0,2.268-1.673,2.268-3.995c0-2.132-0.621-3.914-2.268-3.914C-144.152,342.389-144.963,344.143-144.963,346.356z"/>
	<path fill="#00AADD" d="M-124.009,337.098c0.998,0,1.754,0.297,2.348,0.675c-0.08,0.972-0.458,1.673-1.188,2.267
		c-0.513-0.378-1.053-0.567-1.673-0.567c-1.053,0-2.079,0.81-2.78,2.052v9.825c0,0-0.459,0.189-1.35,0.189
		c-0.945,0-1.35-0.189-1.35-0.189v-13.82c0,0,0.404-0.189,1.35-0.189c0.891,0,1.35,0.189,1.35,0.189v1.862
		C-126.276,337.692-125.089,337.098-124.009,337.098z"/>
	<path fill="#00AADD" d="M-114.64,337.071c3.914,0,5.155,1.755,5.155,5.237v9.042c0,0-0.297,0.189-1.053,0.189
		c-0.675,0-1.079-0.189-1.079-0.189l-0.405-1.728c-0.701,1.431-2.187,2.187-4.237,2.187c-2.538,0-4.185-1.485-4.185-4.508
		c0-2.942,1.809-4.238,5.183-4.238c1.215,0,2.376,0.081,3.077,0.162v-0.999c0-1.835-0.701-2.888-2.78-2.888
		c-1.889,0-3.616,0.675-3.616,0.675c-0.027-0.027-0.352-0.243-0.621-0.81c-0.243-0.566-0.162-1.106-0.162-1.133
		C-119.363,338.07-117.339,337.071-114.64,337.071z M-114.909,344.899c-1.809,0-2.754,0.702-2.754,2.402
		c0,1.754,0.891,2.429,2.349,2.429c2.133,0,3.131-1.809,3.131-3.725v-0.945C-112.804,345.007-113.884,344.899-114.909,344.899z"/>
	<path fill="#00AADD" d="M-102.948,338.826c0.756-1.107,1.971-1.755,3.887-1.755c3.077,0,5.075,1.863,5.075,7.369
		s-1.998,7.369-5.075,7.369c-1.916,0-3.131-0.648-3.887-1.754v1.295c0,0-0.459,0.189-1.377,0.189c-0.891,0-1.322-0.189-1.322-0.189
		v-19.867c0,0,0.432-0.189,1.322-0.189c0.918,0,1.377,0.189,1.377,0.189V338.826z M-100.006,339.284
		c-1.89,0-2.942,1.566-2.942,3.401v3.455c0,1.862,1.053,3.455,2.942,3.455c2.159,0,3.239-1.134,3.239-5.156
		S-97.847,339.284-100.006,339.284z"/>
	<path fill="#00AADD" d="M-85.723,337.071c3.914,0,5.155,1.755,5.155,5.237v9.042c0,0-0.297,0.189-1.053,0.189
		c-0.675,0-1.079-0.189-1.079-0.189l-0.405-1.728c-0.701,1.431-2.187,2.187-4.237,2.187c-2.538,0-4.185-1.485-4.185-4.508
		c0-2.942,1.809-4.238,5.183-4.238c1.215,0,2.376,0.081,3.077,0.162v-0.999c0-1.835-0.701-2.888-2.78-2.888
		c-1.889,0-3.616,0.675-3.616,0.675c-0.027-0.027-0.352-0.243-0.621-0.81c-0.243-0.566-0.162-1.106-0.162-1.133
		C-90.446,338.07-88.422,337.071-85.723,337.071z M-85.992,344.899c-1.809,0-2.754,0.702-2.754,2.402
		c0,1.754,0.891,2.429,2.349,2.429c2.133,0,3.131-1.809,3.131-3.725v-0.945C-83.887,345.007-84.967,344.899-85.992,344.899z"/>
	<path fill="#00AADD" d="M-73.248,346.438c0,2.456,0.782,3.185,2.699,3.185c0.54,0,1.134-0.108,1.134-0.108s0.188,0.459,0.188,1.08
		c0,0.621-0.135,0.972-0.135,0.972c-0.485,0.135-1.215,0.243-1.943,0.243c-3.32,0-4.643-1.809-4.643-5.237v-7.207h-2.079
		c0,0-0.161-0.378-0.161-0.999c0-0.675,0.161-1.026,0.161-1.026h2.079v-2.457c0.701-0.432,1.7-0.621,2.699-0.54v2.996h3.509
		c0,0,0.162,0.351,0.162,0.999c0,0.621-0.162,1.026-0.162,1.026h-3.509V346.438z"/>
	<path fill="#00AADD" d="M-63.016,346.438c0,2.456,0.783,3.185,2.699,3.185c0.54,0,1.134-0.108,1.134-0.108s0.189,0.459,0.189,1.08
		c0,0.621-0.135,0.972-0.135,0.972c-0.486,0.135-1.215,0.243-1.944,0.243c-3.319,0-4.643-1.809-4.643-5.237v-7.207h-2.078
		c0,0-0.162-0.378-0.162-0.999c0-0.675,0.162-1.026,0.162-1.026h2.078v-2.457c0.702-0.432,1.701-0.621,2.699-0.54v2.996h3.51
		c0,0,0.161,0.351,0.161,0.999c0,0.621-0.161,1.026-0.161,1.026h-3.51V346.438z"/>
	<path fill="#00AADD" d="M-305.771,369.471c3.077,0,5.075,1.863,5.075,7.369s-1.998,7.369-5.075,7.369
		c-1.917,0-3.131-0.648-3.887-1.754v7.558c0,0-0.459,0.162-1.377,0.162c-0.891,0-1.322-0.162-1.322-0.162V369.93
		c0,0,0.432-0.189,1.322-0.189c0.918,0,1.377,0.189,1.377,0.189v1.296C-308.902,370.119-307.688,369.471-305.771,369.471z
		 M-306.716,371.684c-1.889,0-2.942,1.566-2.942,3.401v3.455c0,1.862,1.053,3.455,2.942,3.455c2.16,0,3.239-1.134,3.239-5.156
		S-304.557,371.684-306.716,371.684z"/>
	<path fill="#00AADD" d="M-292.406,369.471c3.914,0,5.155,1.755,5.155,5.237v9.042c0,0-0.297,0.189-1.053,0.189
		c-0.675,0-1.08-0.189-1.08-0.189l-0.405-1.728c-0.702,1.431-2.187,2.187-4.238,2.187c-2.538,0-4.184-1.512-4.184-4.508
		c0-2.888,1.809-4.238,5.183-4.238c1.215,0,2.375,0.081,3.077,0.162v-1.08c0-1.835-0.702-2.807-2.78-2.807
		c-1.889,0-3.617,0.675-3.617,0.675c-0.027-0.027-0.351-0.243-0.621-0.81c-0.243-0.566-0.162-1.106-0.162-1.133
		C-297.13,370.47-295.105,369.471-292.406,369.471z M-292.298,362.399c1.592,0,3.212,0.944,3.212,2.834
		c0,1.863-1.484,2.888-3.239,2.888c-1.782,0-3.158-1.053-3.158-2.888C-295.483,363.371-293.918,362.399-292.298,362.399z
		 M-292.676,377.299c-1.809,0-2.753,0.729-2.753,2.402c0,1.728,0.891,2.429,2.349,2.429c2.132,0,3.131-1.809,3.131-3.725v-0.944
		C-290.571,377.407-291.65,377.299-292.676,377.299z M-292.325,363.802c-1.026,0-1.539,0.702-1.539,1.431s0.513,1.431,1.539,1.431
		c1.08,0,1.592-0.729,1.592-1.431C-290.733,364.477-291.246,363.802-292.325,363.802z"/>
	<path fill="#00AADD" d="M-266.38,383.75c0,0-0.459,0.189-1.35,0.189c-0.918,0-1.35-0.189-1.35-0.189v-9.717
		c0-1.512-0.783-2.375-2.511-2.375c-1.188,0-2.348,0.648-3.05,1.728v10.365c0,0-0.486,0.189-1.35,0.189
		c-0.945,0-1.35-0.189-1.35-0.189v-19.867c0,0,0.405-0.189,1.35-0.189c0.864,0,1.35,0.189,1.35,0.189v7.288
		c0.972-1.107,2.375-1.701,4.076-1.701c2.699,0,4.184,1.646,4.184,4.076V383.75z"/>
	<path fill="#00AADD" d="M-260.357,377.677c0.216,3.212,1.512,4.238,3.752,4.238c1.917,0,3.185-0.783,3.185-0.783
		c0.486,0.432,0.837,1.161,0.864,1.943c0,0-1.539,1.134-4.48,1.134c-4.157,0-6.101-2.564-6.101-7.45
		c0-5.102,2.402-7.288,5.993-7.288c3.32,0,5.344,1.835,5.344,5.426c0,1.7-0.297,2.78-0.297,2.78H-260.357z M-257.145,371.603
		c-1.755,0-2.997,1.161-3.212,4.157h5.776c0.027-0.216,0.081-0.648,0.081-1.215C-254.5,372.953-255.147,371.603-257.145,371.603z"/>
	<path fill="#00AADD" d="M-245.858,383.75c0,0-0.458,0.189-1.35,0.189c-0.944,0-1.35-0.189-1.35-0.189v-19.867
		c0,0,0.405-0.189,1.35-0.189c0.891,0,1.35,0.189,1.35,0.189V383.75z"/>
	<path fill="#00AADD" d="M-236.922,369.471c3.914,0,5.155,1.755,5.155,5.237v9.042c0,0-0.297,0.189-1.053,0.189
		c-0.675,0-1.08-0.189-1.08-0.189l-0.405-1.728c-0.702,1.431-2.187,2.187-4.238,2.187c-2.538,0-4.184-1.485-4.184-4.508
		c0-2.942,1.809-4.238,5.183-4.238c1.215,0,2.375,0.081,3.077,0.162v-0.999c0-1.835-0.702-2.888-2.78-2.888
		c-1.889,0-3.617,0.675-3.617,0.675c-0.027-0.027-0.351-0.243-0.621-0.81c-0.243-0.566-0.162-1.106-0.162-1.133
		C-241.646,370.47-239.621,369.471-236.922,369.471z M-237.192,377.299c-1.809,0-2.753,0.702-2.753,2.402
		c0,1.754,0.891,2.429,2.349,2.429c2.132,0,3.131-1.809,3.131-3.725v-0.944C-235.086,377.407-236.166,377.299-237.192,377.299z"/>
	<path fill="#00AADD" d="M-216.942,369.471c3.914,0,5.155,1.755,5.155,5.237v9.042c0,0-0.297,0.189-1.053,0.189
		c-0.675,0-1.08-0.189-1.08-0.189l-0.405-1.728c-0.702,1.431-2.187,2.187-4.238,2.187c-2.538,0-4.184-1.485-4.184-4.508
		c0-2.942,1.809-4.238,5.183-4.238c1.215,0,2.375,0.081,3.077,0.162v-0.999c0-1.835-0.702-2.888-2.78-2.888
		c-1.889,0-3.617,0.675-3.617,0.675c-0.027-0.027-0.351-0.243-0.621-0.81c-0.243-0.566-0.162-1.106-0.162-1.133
		C-221.666,370.47-219.641,369.471-216.942,369.471z M-217.212,377.299c-1.809,0-2.753,0.702-2.753,2.402
		c0,1.754,0.891,2.429,2.349,2.429c2.132,0,3.131-1.809,3.131-3.725v-0.944C-215.106,377.407-216.186,377.299-217.212,377.299z"/>
	<path fill="#00AADD" d="M-201.958,369.498c0.999,0,1.754,0.297,2.348,0.675c-0.081,0.972-0.458,1.673-1.188,2.267
		c-0.513-0.378-1.053-0.567-1.673-0.567c-1.053,0-2.079,0.81-2.78,2.052v9.825c0,0-0.459,0.189-1.35,0.189
		c-0.945,0-1.35-0.189-1.35-0.189v-13.82c0,0,0.405-0.189,1.35-0.189c0.891,0,1.35,0.189,1.35,0.189v1.862
		C-204.225,370.092-203.037,369.498-201.958,369.498z"/>
	<path fill="#00AADD" d="M-194.612,371.226c0.756-1.107,1.97-1.755,3.887-1.755c3.077,0,5.075,1.863,5.075,7.369
		s-1.998,7.369-5.075,7.369c-1.917,0-3.131-0.648-3.887-1.754v1.295c0,0-0.459,0.189-1.377,0.189c-0.891,0-1.322-0.189-1.322-0.189
		v-19.867c0,0,0.432-0.189,1.322-0.189c0.918,0,1.377,0.189,1.377,0.189V371.226z M-191.67,371.684
		c-1.889,0-2.942,1.566-2.942,3.401v3.455c0,1.862,1.053,3.455,2.942,3.455c2.16,0,3.239-1.134,3.239-5.156
		S-189.511,371.684-191.67,371.684z"/>
	<path fill="#00AADD" d="M-180.141,377.677c0.216,3.212,1.512,4.238,3.752,4.238c1.917,0,3.185-0.783,3.185-0.783
		c0.486,0.432,0.837,1.161,0.864,1.943c0,0-1.539,1.134-4.48,1.134c-4.157,0-6.101-2.564-6.101-7.45
		c0-5.102,2.402-7.288,5.992-7.288c3.32,0,5.345,1.835,5.345,5.426c0,1.7-0.297,2.78-0.297,2.78H-180.141z M-176.929,371.603
		c-1.754,0-2.996,1.161-3.212,4.157h5.776c0.027-0.216,0.081-0.648,0.081-1.215C-174.283,372.953-174.931,371.603-176.929,371.603z"
		/>
	<path fill="#00AADD" d="M-164.805,378.837c0,2.456,0.782,3.185,2.699,3.185c0.54,0,1.134-0.108,1.134-0.108s0.188,0.459,0.188,1.08
		c0,0.621-0.135,0.972-0.135,0.972c-0.485,0.135-1.215,0.243-1.943,0.243c-3.32,0-4.643-1.809-4.643-5.237v-7.207h-2.079
		c0,0-0.162-0.378-0.162-0.999c0-0.675,0.162-1.026,0.162-1.026h2.079v-2.457c0.701-0.432,1.7-0.621,2.699-0.54v2.996h3.509
		c0,0,0.162,0.351,0.162,0.999c0,0.621-0.162,1.026-0.162,1.026h-3.509V378.837z"/>
	<path fill="#00AADD" d="M-153.735,369.471c2.646,0,3.807,0.729,3.807,0.729c0,0.702-0.243,1.484-0.702,1.917
		c0,0-1.296-0.432-2.834-0.432c-1.836,0-2.754,0.675-2.754,1.944c0,1.322,1.701,1.646,3.401,2.213
		c1.755,0.567,3.59,1.403,3.59,4.049c0,2.726-1.7,4.319-5.129,4.319c-2.834,0-4.508-0.972-4.508-0.972
		c0-0.783,0.243-1.539,0.729-1.998c0,0,1.754,0.675,3.644,0.675c1.646,0,2.592-0.621,2.592-1.943c0-1.485-1.484-1.809-3.077-2.268
		c-1.836-0.54-3.833-1.323-3.833-3.995C-158.81,371.171-157.163,369.471-153.735,369.471z"/>
	<path fill="#00AADD" d="M-138.238,369.93c0,0,0.54-0.189,1.377-0.189c0.756,0,1.322,0.162,1.322,0.162l-4.156,6.451l4.777,7.396
		c0,0-0.594,0.216-1.512,0.216s-1.457-0.216-1.457-0.216l-4.05-6.208h-1.511v6.208c0,0-0.54,0.189-1.323,0.189
		c-0.863,0-1.376-0.189-1.376-0.189v-19.921c0,0,0.539-0.135,1.376-0.135c0.729,0,1.323,0.135,1.323,0.135v11.688h1.538
		L-138.238,369.93z"/>
	<path fill="#00AADD" d="M-127.734,369.471c3.725,0,5.992,2.024,5.992,7.369s-2.294,7.369-5.992,7.369s-5.992-2.024-5.992-7.369
		S-131.433,369.471-127.734,369.471z M-127.734,371.549c-1.971,0-3.239,1.134-3.239,5.291s1.269,5.291,3.239,5.291
		s3.212-1.134,3.212-5.291S-125.764,371.549-127.734,371.549z"/>
	<path fill="#00AADD" d="M-113.964,369.471c2.645,0,3.806,0.729,3.806,0.729c0,0.702-0.243,1.484-0.702,1.917
		c0,0-1.295-0.432-2.834-0.432c-1.835,0-2.753,0.675-2.753,1.944c0,1.322,1.7,1.646,3.4,2.213c1.755,0.567,3.591,1.403,3.591,4.049
		c0,2.726-1.701,4.319-5.129,4.319c-2.834,0-4.508-0.972-4.508-0.972c0-0.783,0.243-1.539,0.729-1.998c0,0,1.755,0.675,3.645,0.675
		c1.646,0,2.591-0.621,2.591-1.943c0-1.485-1.484-1.809-3.077-2.268c-1.835-0.54-3.833-1.323-3.833-3.995
		C-119.039,371.171-117.393,369.471-113.964,369.471z"/>
	<path fill="#00AADD" d="M-102.759,378.837c0,2.456,0.782,3.185,2.699,3.185c0.54,0,1.134-0.108,1.134-0.108s0.188,0.459,0.188,1.08
		c0,0.621-0.135,0.972-0.135,0.972c-0.485,0.135-1.215,0.243-1.943,0.243c-3.32,0-4.643-1.809-4.643-5.237v-7.207h-2.079
		c0,0-0.161-0.378-0.161-0.999c0-0.675,0.161-1.026,0.161-1.026h2.079v-2.457c0.701-0.432,1.7-0.621,2.699-0.54v2.996h3.509
		c0,0,0.162,0.351,0.162,0.999c0,0.621-0.162,1.026-0.162,1.026h-3.509V378.837z"/>
	<path fill="#00AADD" d="M-85.184,383.75c0,0-0.459,0.189-1.35,0.189c-0.918,0-1.35-0.189-1.35-0.189v-9.717
		c0-1.512-0.783-2.375-2.511-2.375c-1.188,0-2.349,0.648-3.05,1.728v10.365c0,0-0.486,0.189-1.35,0.189
		c-0.945,0-1.35-0.189-1.35-0.189v-13.82c0,0,0.404-0.189,1.35-0.189c0.863,0,1.35,0.189,1.35,0.189v1.242
		c0.972-1.107,2.375-1.701,4.075-1.701c2.699,0,4.185,1.646,4.185,4.076V383.75z"/>
	<path fill="#00AADD" d="M-76.407,369.471c3.913,0,5.155,1.755,5.155,5.237v9.042c0,0-0.297,0.189-1.053,0.189
		c-0.675,0-1.08-0.189-1.08-0.189l-0.404-1.728c-0.702,1.431-2.187,2.187-4.238,2.187c-2.537,0-4.184-1.485-4.184-4.508
		c0-2.942,1.809-4.238,5.183-4.238c1.215,0,2.375,0.081,3.077,0.162v-0.999c0-1.835-0.702-2.888-2.78-2.888
		c-1.89,0-3.617,0.675-3.617,0.675c-0.027-0.027-0.351-0.243-0.621-0.81c-0.242-0.566-0.162-1.106-0.162-1.133
		C-81.132,370.47-79.106,369.471-76.407,369.471z M-76.678,377.299c-1.809,0-2.753,0.702-2.753,2.402
		c0,1.754,0.891,2.429,2.349,2.429c2.132,0,3.131-1.809,3.131-3.725v-0.944C-74.572,377.407-75.651,377.299-76.678,377.299z"/>
	<path fill="#00AADD" d="M-57.671,363.694c0.891,0,1.322,0.189,1.322,0.189v19.867c0,0-0.459,0.189-1.134,0.189
		s-1.215-0.189-1.215-0.189l-0.188-1.458c-0.783,1.188-2.024,1.917-4.049,1.917c-3.077,0-5.075-1.863-5.075-7.369
		s1.998-7.369,5.075-7.369c1.89,0,3.104,0.648,3.887,1.755v-7.342C-59.048,363.883-58.589,363.694-57.671,363.694z M-61.99,371.684
		c-2.159,0-3.239,1.134-3.239,5.156s1.08,5.156,3.239,5.156c1.89,0,2.942-1.593,2.942-3.455v-3.482
		C-59.075,373.25-60.128,371.684-61.99,371.684z"/>
	<path fill="#00AADD" d="M-50.244,377.677c0.216,3.212,1.512,4.238,3.752,4.238c1.917,0,3.186-0.783,3.186-0.783
		c0.485,0.432,0.837,1.161,0.863,1.943c0,0-1.538,1.134-4.48,1.134c-4.157,0-6.101-2.564-6.101-7.45
		c0-5.102,2.402-7.288,5.992-7.288c3.32,0,5.345,1.835,5.345,5.426c0,1.7-0.297,2.78-0.297,2.78H-50.244z M-47.032,371.603
		c-1.754,0-2.996,1.161-3.212,4.157h5.776c0.027-0.216,0.081-0.648,0.081-1.215C-44.387,372.953-45.034,371.603-47.032,371.603z"/>
	<path fill="#00AADD" d="M-27.566,383.75c0,0-0.459,0.189-1.35,0.189c-0.918,0-1.35-0.189-1.35-0.189v-9.717
		c0-1.512-0.783-2.375-2.511-2.375c-1.188,0-2.348,0.648-3.05,1.728v10.365c0,0-0.485,0.189-1.35,0.189
		c-0.944,0-1.35-0.189-1.35-0.189v-13.82c0,0,0.405-0.189,1.35-0.189c0.864,0,1.35,0.189,1.35,0.189v1.242
		c0.972-1.107,2.375-1.701,4.076-1.701c2.699,0,4.184,1.646,4.184,4.076V383.75z"/>
</g>
<g>
	<path fill="#00AADD" d="M109.441,336.972c3.145,0,5.161,2.04,5.161,5.064c0,2.376-1.272,4.177-3.385,4.801l4.177,7.249
		c0,0-0.505,0.168-1.44,0.168c-0.888,0-1.393-0.168-1.393-0.168l-3.984-7.009h-2.832v7.009c0,0-0.408,0.168-1.2,0.168
		c-0.888,0-1.248-0.168-1.248-0.168v-17.113H109.441z M105.745,345.037h3.385c1.872,0,2.928-1.104,2.928-3
		c0-1.92-1.056-3.024-2.928-3.024h-3.385V345.037z"/>
	<path fill="#00AADD" d="M120.337,339.204c0,0-0.432,0.168-1.248,0.168c-0.864,0-1.248-0.168-1.248-0.168v-2.256
		c0,0,0.384-0.168,1.248-0.168c0.816,0,1.248,0.168,1.248,0.168V339.204z M120.289,354.085c0,0-0.408,0.168-1.2,0.168
		c-0.84,0-1.2-0.168-1.2-0.168v-12.289c0,0,0.36-0.168,1.2-0.168c0.792,0,1.2,0.168,1.2,0.168V354.085z"/>
	<path fill="#00AADD" d="M133.586,354.085c0,0-0.408,0.168-1.2,0.168c-0.816,0-1.2-0.168-1.2-0.168v-8.641
		c0-1.344-0.696-2.112-2.232-2.112c-1.056,0-2.088,0.576-2.712,1.536v9.217c0,0-0.433,0.168-1.2,0.168c-0.84,0-1.2-0.168-1.2-0.168
		v-12.289c0,0,0.36-0.168,1.2-0.168c0.768,0,1.2,0.168,1.2,0.168v1.104c0.864-0.984,2.112-1.512,3.624-1.512
		c2.4,0,3.721,1.464,3.721,3.625V354.085z"/>
	<path fill="#00AADD" d="M147.266,341.388c0.216,0.504,0.216,1.368,0,1.896l-1.992-0.096c0.456,0.672,0.672,1.512,0.672,2.52
		c0,2.688-1.608,4.32-4.704,4.32c-0.385,0-0.744-0.024-1.057-0.072c-0.264,0.36-0.504,0.864-0.456,1.392
		c0.265,2.208,7.513-0.144,7.513,4.8c0,2.353-2.28,4.104-6.168,4.104c-3.601,0-5.112-1.416-5.112-3.336
		c0-1.824,1.487-2.928,2.136-3.312c-0.336-0.336-0.528-0.792-0.528-1.392c0-1.056,0.601-2.016,1.152-2.665
		c-1.44-0.672-2.185-2.016-2.185-3.84c0-2.688,1.633-4.32,4.705-4.32c1.08,0,1.968,0.192,2.664,0.552L147.266,341.388z
		 M139.393,354.253c-0.6,0.48-1.104,1.296-1.104,2.184c0,1.2,0.888,2.112,2.855,2.112c2.473,0,3.816-0.888,3.816-2.16
		C144.961,354.421,141.553,354.925,139.393,354.253z M141.241,343.068c-1.44,0-2.425,0.84-2.425,2.64c0,1.8,0.984,2.616,2.425,2.616
		c1.439,0,2.4-0.816,2.4-2.616C143.642,343.909,142.681,343.068,141.241,343.068z"/>
	<path fill="#00AADD" d="M155.544,337.14c0,0,0.408-0.168,1.2-0.168c0.84,0,1.248,0.168,1.248,0.168v16.945
		c0,0-0.432,0.168-1.224,0.168c-0.864,0-1.225-0.168-1.225-0.168V337.14z"/>
	<path fill="#00AADD" d="M170.377,336.252c0.792,0,1.176,0.168,1.176,0.168v17.666c0,0-0.407,0.168-1.008,0.168
		c-0.6,0-1.08-0.168-1.08-0.168l-0.168-1.296c-0.696,1.056-1.8,1.705-3.601,1.705c-2.735,0-4.512-1.656-4.512-6.553
		s1.776-6.553,4.512-6.553c1.681,0,2.761,0.576,3.457,1.56v-6.528C169.153,336.42,169.562,336.252,170.377,336.252z
		 M166.537,343.356c-1.921,0-2.881,1.008-2.881,4.584s0.96,4.584,2.881,4.584c1.68,0,2.616-1.416,2.616-3.072v-3.096
		C169.129,344.749,168.193,343.356,166.537,343.356z"/>
	<path fill="#00AADD" d="M179.425,341.388c3.48,0,4.585,1.56,4.585,4.657v8.041c0,0-0.265,0.168-0.937,0.168
		c-0.6,0-0.96-0.168-0.96-0.168l-0.36-1.536c-0.624,1.272-1.944,1.944-3.769,1.944c-2.256,0-3.72-1.32-3.72-4.009
		c0-2.616,1.608-3.768,4.608-3.768c1.08,0,2.112,0.072,2.736,0.144v-0.888c0-1.632-0.624-2.568-2.473-2.568
		c-1.68,0-3.216,0.6-3.216,0.6c-0.024-0.024-0.313-0.216-0.553-0.72c-0.216-0.504-0.144-0.984-0.144-1.008
		C175.225,342.276,177.024,341.388,179.425,341.388z M179.185,348.349c-1.607,0-2.448,0.624-2.448,2.136
		c0,1.561,0.793,2.161,2.089,2.161c1.896,0,2.784-1.608,2.784-3.313v-0.84C181.057,348.445,180.097,348.349,179.185,348.349z"/>
	<path fill="#00AADD" d="M197.665,341.388c0.217,0.504,0.217,1.368,0,1.896l-1.992-0.096c0.456,0.672,0.673,1.512,0.673,2.52
		c0,2.688-1.608,4.32-4.705,4.32c-0.384,0-0.744-0.024-1.056-0.072c-0.265,0.36-0.504,0.864-0.456,1.392
		c0.264,2.208,7.513-0.144,7.513,4.8c0,2.353-2.28,4.104-6.169,4.104c-3.601,0-5.112-1.416-5.112-3.336
		c0-1.824,1.488-2.928,2.136-3.312c-0.336-0.336-0.527-0.792-0.527-1.392c0-1.056,0.6-2.016,1.152-2.665
		c-1.44-0.672-2.185-2.016-2.185-3.84c0-2.688,1.632-4.32,4.704-4.32c1.08,0,1.969,0.192,2.664,0.552L197.665,341.388z
		 M189.793,354.253c-0.601,0.48-1.104,1.296-1.104,2.184c0,1.2,0.888,2.112,2.856,2.112c2.472,0,3.816-0.888,3.816-2.16
		C195.361,354.421,191.953,354.925,189.793,354.253z M191.641,343.068c-1.439,0-2.424,0.84-2.424,2.64
		c0,1.8,0.984,2.616,2.424,2.616c1.44,0,2.4-0.816,2.4-2.616C194.041,343.909,193.081,343.068,191.641,343.068z"/>
	<path fill="#00AADD" d="M200.328,337.14c0,0,0.384-0.168,1.296-0.168c0.864,0,1.296,0.168,1.296,0.168l-0.407,12.505
		c0,0-0.313,0.192-0.864,0.192c-0.576,0-0.912-0.192-0.912-0.192L200.328,337.14z M202.849,354.085c0,0-0.408,0.168-1.225,0.168
		c-0.864,0-1.224-0.168-1.224-0.168v-2.256c0,0,0.359-0.168,1.224-0.168c0.816,0,1.225,0.168,1.225,0.168V354.085z"/>
	<path fill="#00AADD" d="M58.105,365.052c1.608,0,2.641,0.504,2.641,0.504c-0.024,0.672-0.216,1.2-0.624,1.68
		c0,0-0.744-0.264-1.849-0.264c-1.368,0-1.775,0.624-1.775,1.896v1.56h3c0.072,0.264,0.12,0.576,0.12,0.936
		c0,0.312-0.048,0.6-0.12,0.864h-3v10.657c0,0-0.408,0.168-1.2,0.168c-0.841,0-1.2-0.168-1.2-0.168v-10.657h-1.584
		c-0.049-0.264-0.12-0.576-0.12-0.912c0-0.36,0.048-0.648,0.12-0.888h1.584v-1.44C54.098,366.66,55.058,365.052,58.105,365.052z"/>
	<path fill="#00AADD" d="M66.626,370.188c3.312,0,5.328,1.8,5.328,6.553s-2.04,6.553-5.328,6.553c-3.289,0-5.329-1.8-5.329-6.553
		S63.337,370.188,66.626,370.188z M64.489,365.988c0.696,0,1.08,0.144,1.08,0.144v1.968c0,0-0.384,0.12-1.08,0.12
		c-0.744,0-1.104-0.12-1.104-0.12v-1.968C63.385,366.132,63.745,365.988,64.489,365.988z M66.626,372.036
		c-1.753,0-2.881,1.008-2.881,4.705s1.128,4.705,2.881,4.705c1.752,0,2.855-1.008,2.855-4.705S68.378,372.036,66.626,372.036z
		 M68.546,365.988c0.72,0,1.104,0.144,1.104,0.144v1.968c0,0-0.384,0.12-1.104,0.12c-0.744,0-1.08-0.12-1.08-0.12v-1.968
		C67.466,366.132,67.802,365.988,68.546,365.988z"/>
	<path fill="#00AADD" d="M80.233,370.212c0.888,0,1.56,0.264,2.088,0.6c-0.072,0.864-0.408,1.488-1.056,2.016
		c-0.456-0.336-0.937-0.504-1.488-0.504c-0.937,0-1.849,0.72-2.473,1.824v8.737c0,0-0.408,0.168-1.2,0.168
		c-0.84,0-1.2-0.168-1.2-0.168v-12.289c0,0,0.36-0.168,1.2-0.168c0.792,0,1.2,0.168,1.2,0.168v1.656
		C78.217,370.74,79.273,370.212,80.233,370.212z"/>
	<path fill="#00AADD" d="M96.289,370.596c0,0,0.48-0.168,1.225-0.168c0.672,0,1.176,0.144,1.176,0.144l-3.696,5.736l4.248,6.577
		c0,0-0.527,0.192-1.344,0.192s-1.296-0.192-1.296-0.192l-3.601-5.521h-1.344v5.521c0,0-0.48,0.168-1.177,0.168
		c-0.768,0-1.224-0.168-1.224-0.168v-17.713c0,0,0.48-0.12,1.224-0.12c0.648,0,1.177,0.12,1.177,0.12v10.393h1.368L96.289,370.596z"
		/>
	<path fill="#00AADD" d="M105.625,370.188c3.313,0,5.328,1.8,5.328,6.553s-2.04,6.553-5.328,6.553s-5.328-1.8-5.328-6.553
		S102.337,370.188,105.625,370.188z M105.625,372.036c-1.752,0-2.88,1.008-2.88,4.705s1.128,4.705,2.88,4.705
		s2.856-1.008,2.856-4.705S107.377,372.036,105.625,372.036z"/>
	<path fill="#00AADD" d="M117.864,370.188c2.353,0,3.385,0.648,3.385,0.648c0,0.625-0.216,1.32-0.624,1.705
		c0,0-1.152-0.384-2.521-0.384c-1.632,0-2.448,0.6-2.448,1.728c0,1.176,1.513,1.464,3.024,1.968
		c1.561,0.504,3.192,1.248,3.192,3.601c0,2.424-1.513,3.84-4.561,3.84c-2.521,0-4.008-0.864-4.008-0.864
		c0-0.696,0.216-1.368,0.647-1.776c0,0,1.561,0.6,3.24,0.6c1.464,0,2.305-0.552,2.305-1.728c0-1.32-1.32-1.608-2.736-2.016
		c-1.633-0.48-3.408-1.176-3.408-3.552C113.353,371.7,114.816,370.188,117.864,370.188z"/>
	<path fill="#00AADD" d="M127.824,378.517c0,2.185,0.696,2.833,2.4,2.833c0.48,0,1.009-0.096,1.009-0.096s0.168,0.408,0.168,0.96
		c0,0.552-0.12,0.864-0.12,0.864c-0.433,0.12-1.08,0.216-1.729,0.216c-2.952,0-4.128-1.608-4.128-4.657v-6.408h-1.849
		c0,0-0.144-0.336-0.144-0.888c0-0.6,0.144-0.912,0.144-0.912h1.849v-2.184c0.624-0.384,1.512-0.552,2.399-0.48v2.665h3.121
		c0,0,0.144,0.312,0.144,0.888c0,0.552-0.144,0.912-0.144,0.912h-3.121V378.517z"/>
	<path fill="#00AADD" d="M143.449,382.885c0,0-0.408,0.168-1.2,0.168c-0.815,0-1.2-0.168-1.2-0.168v-8.641
		c0-1.344-0.695-2.112-2.231-2.112c-1.057,0-2.089,0.576-2.713,1.536v9.217c0,0-0.432,0.168-1.2,0.168c-0.84,0-1.2-0.168-1.2-0.168
		v-12.289c0,0,0.36-0.168,1.2-0.168c0.769,0,1.2,0.168,1.2,0.168v1.104c0.864-0.984,2.112-1.512,3.625-1.512
		c2.399,0,3.72,1.464,3.72,3.625V382.885z"/>
	<path fill="#00AADD" d="M151.249,370.188c3.48,0,4.584,1.56,4.584,4.657v8.041c0,0-0.264,0.168-0.936,0.168
		c-0.601,0-0.961-0.168-0.961-0.168l-0.359-1.536c-0.624,1.272-1.944,1.944-3.769,1.944c-2.256,0-3.721-1.32-3.721-4.009
		c0-2.616,1.608-3.768,4.608-3.768c1.08,0,2.112,0.072,2.736,0.144v-0.888c0-1.632-0.624-2.568-2.472-2.568
		c-1.681,0-3.217,0.6-3.217,0.6c-0.023-0.024-0.312-0.216-0.552-0.72c-0.216-0.504-0.144-0.984-0.144-1.008
		C147.049,371.076,148.849,370.188,151.249,370.188z M151.009,377.149c-1.608,0-2.448,0.624-2.448,2.136
		c0,1.561,0.792,2.161,2.088,2.161c1.896,0,2.784-1.608,2.784-3.313v-0.84C152.881,377.245,151.921,377.149,151.009,377.149z"/>
	<path fill="#00AADD" d="M167.905,365.052c0.792,0,1.176,0.168,1.176,0.168v17.666c0,0-0.408,0.168-1.008,0.168
		c-0.601,0-1.08-0.168-1.08-0.168l-0.168-1.296c-0.696,1.056-1.801,1.705-3.601,1.705c-2.736,0-4.513-1.656-4.513-6.553
		s1.776-6.553,4.513-6.553c1.68,0,2.76,0.576,3.456,1.56v-6.528C166.681,365.22,167.089,365.052,167.905,365.052z M164.064,372.156
		c-1.92,0-2.88,1.008-2.88,4.584s0.96,4.584,2.88,4.584c1.681,0,2.616-1.416,2.616-3.072v-3.096
		C166.657,373.548,165.721,372.156,164.064,372.156z"/>
	<path fill="#00AADD" d="M176.545,370.188c2.353,0,3.384,0.648,3.384,0.648c0,0.625-0.216,1.32-0.624,1.705
		c0,0-1.151-0.384-2.52-0.384c-1.633,0-2.448,0.6-2.448,1.728c0,1.176,1.512,1.464,3.024,1.968c1.56,0.504,3.191,1.248,3.191,3.601
		c0,2.424-1.512,3.84-4.56,3.84c-2.521,0-4.009-0.864-4.009-0.864c0-0.696,0.216-1.368,0.648-1.776c0,0,1.56,0.6,3.24,0.6
		c1.464,0,2.304-0.552,2.304-1.728c0-1.32-1.32-1.608-2.736-2.016c-1.632-0.48-3.408-1.176-3.408-3.552
		C172.032,371.7,173.496,370.188,176.545,370.188z"/>
	<path fill="#00AADD" d="M187.992,365.052c1.608,0,2.641,0.504,2.641,0.504c-0.024,0.672-0.216,1.2-0.624,1.68
		c0,0-0.744-0.264-1.849-0.264c-1.368,0-1.775,0.624-1.775,1.896v1.56h3c0.072,0.264,0.12,0.576,0.12,0.936
		c0,0.312-0.048,0.6-0.12,0.864h-3v10.657c0,0-0.408,0.168-1.2,0.168c-0.841,0-1.2-0.168-1.2-0.168v-10.657H182.4
		c-0.049-0.264-0.12-0.576-0.12-0.912c0-0.36,0.048-0.648,0.12-0.888h1.584v-1.44C183.984,366.66,184.944,365.052,187.992,365.052z"
		/>
	<path fill="#00AADD" d="M196.513,370.188c3.313,0,5.328,1.8,5.328,6.553s-2.04,6.553-5.328,6.553s-5.328-1.8-5.328-6.553
		S193.225,370.188,196.513,370.188z M194.377,365.988c0.695,0,1.08,0.144,1.08,0.144v1.968c0,0-0.385,0.12-1.08,0.12
		c-0.744,0-1.104-0.12-1.104-0.12v-1.968C193.272,366.132,193.633,365.988,194.377,365.988z M196.513,372.036
		c-1.752,0-2.88,1.008-2.88,4.705s1.128,4.705,2.88,4.705s2.856-1.008,2.856-4.705S198.265,372.036,196.513,372.036z
		 M198.433,365.988c0.721,0,1.104,0.144,1.104,0.144v1.968c0,0-0.384,0.12-1.104,0.12c-0.744,0-1.08-0.12-1.08-0.12v-1.968
		C197.353,366.132,197.688,365.988,198.433,365.988z"/>
	<path fill="#00AADD" d="M210.12,370.212c0.889,0,1.561,0.264,2.089,0.6c-0.072,0.864-0.408,1.488-1.057,2.016
		c-0.456-0.336-0.936-0.504-1.488-0.504c-0.936,0-1.848,0.72-2.472,1.824v8.737c0,0-0.408,0.168-1.2,0.168
		c-0.84,0-1.2-0.168-1.2-0.168v-12.289c0,0,0.36-0.168,1.2-0.168c0.792,0,1.2,0.168,1.2,0.168v1.656
		C208.104,370.74,209.16,370.212,210.12,370.212z"/>
	<path fill="#00AADD" d="M218.208,370.188c2.353,0,3.385,0.648,3.385,0.648c0,0.625-0.216,1.32-0.624,1.705
		c0,0-1.152-0.384-2.521-0.384c-1.632,0-2.448,0.6-2.448,1.728c0,1.176,1.513,1.464,3.024,1.968
		c1.561,0.504,3.192,1.248,3.192,3.601c0,2.424-1.513,3.84-4.561,3.84c-2.521,0-4.008-0.864-4.008-0.864
		c0-0.696,0.216-1.368,0.647-1.776c0,0,1.561,0.6,3.24,0.6c1.464,0,2.305-0.552,2.305-1.728c0-1.32-1.32-1.608-2.736-2.016
		c-1.633-0.48-3.408-1.176-3.408-3.552C213.696,371.7,215.16,370.188,218.208,370.188z"/>
	<path fill="#00AADD" d="M227.424,382.885c0,0-0.408,0.168-1.2,0.168c-0.84,0-1.2-0.168-1.2-0.168V365.22c0,0,0.36-0.168,1.2-0.168
		c0.792,0,1.2,0.168,1.2,0.168V382.885z"/>
	<path fill="#00AADD" d="M235.368,370.188c3.48,0,4.585,1.56,4.585,4.657v8.041c0,0-0.265,0.168-0.937,0.168
		c-0.6,0-0.96-0.168-0.96-0.168l-0.36-1.536c-0.624,1.272-1.944,1.944-3.769,1.944c-2.256,0-3.72-1.32-3.72-4.009
		c0-2.616,1.608-3.768,4.608-3.768c1.08,0,2.112,0.072,2.736,0.144v-0.888c0-1.632-0.624-2.568-2.473-2.568
		c-1.68,0-3.216,0.6-3.216,0.6c-0.024-0.024-0.313-0.216-0.553-0.72c-0.216-0.504-0.144-0.984-0.144-1.008
		C231.168,371.076,232.968,370.188,235.368,370.188z M235.128,377.149c-1.607,0-2.448,0.624-2.448,2.136
		c0,1.561,0.793,2.161,2.089,2.161c1.896,0,2.784-1.608,2.784-3.313v-0.84C237,377.245,236.04,377.149,235.128,377.149z"/>
	<path fill="#00AADD" d="M253.608,370.188c0.217,0.504,0.217,1.368,0,1.896l-1.992-0.096c0.456,0.672,0.673,1.512,0.673,2.52
		c0,2.688-1.608,4.32-4.705,4.32c-0.384,0-0.744-0.024-1.056-0.072c-0.265,0.36-0.504,0.864-0.456,1.392
		c0.264,2.208,7.513-0.144,7.513,4.8c0,2.353-2.28,4.104-6.169,4.104c-3.601,0-5.112-1.416-5.112-3.336
		c0-1.824,1.488-2.928,2.136-3.312c-0.336-0.336-0.527-0.792-0.527-1.392c0-1.056,0.6-2.016,1.152-2.665
		c-1.44-0.672-2.185-2.016-2.185-3.84c0-2.688,1.632-4.32,4.704-4.32c1.08,0,1.969,0.192,2.664,0.552L253.608,370.188z
		 M245.736,383.053c-0.601,0.48-1.104,1.296-1.104,2.184c0,1.2,0.888,2.112,2.856,2.112c2.472,0,3.816-0.888,3.816-2.16
		C251.305,383.221,247.896,383.725,245.736,383.053z M247.584,371.868c-1.439,0-2.424,0.84-2.424,2.64
		c0,1.8,0.984,2.616,2.424,2.616c1.44,0,2.4-0.816,2.4-2.616C249.984,372.708,249.024,371.868,247.584,371.868z"/>
	<path fill="#00AADD" d="M28.299,411.686c0,0-0.432,0.168-1.32,0.168c-0.815,0-1.2-0.168-1.2-0.168l-1.487-4.225h-7.105
		l-1.512,4.225c0,0-0.408,0.168-1.176,0.168c-0.744,0-1.128-0.168-1.128-0.168l5.832-16.394c-0.769-0.408-1.296-1.176-1.296-2.256
		c0-1.728,1.416-2.64,2.88-2.64c1.416,0,2.904,0.888,2.904,2.64c0,1.032-0.528,1.776-1.248,2.185L28.299,411.686z M21.41,399.396
		c-0.432-1.248-0.624-2.16-0.624-2.16h-0.072c0,0-0.216,0.96-0.624,2.16l-2.208,6.072h5.713L21.41,399.396z M20.763,391.62
		c-1.009,0-1.488,0.72-1.488,1.416c0,0.744,0.479,1.44,1.488,1.44c1.031,0,1.536-0.72,1.536-1.44
		C22.299,392.316,21.794,391.62,20.763,391.62z"/>
	<path fill="#00AADD" d="M33.649,407.317c0,2.185,0.696,2.833,2.4,2.833c0.48,0,1.009-0.096,1.009-0.096s0.168,0.408,0.168,0.96
		c0,0.552-0.12,0.864-0.12,0.864c-0.433,0.12-1.08,0.216-1.729,0.216c-2.952,0-4.128-1.608-4.128-4.657v-6.408h-1.849
		c0,0-0.144-0.336-0.144-0.888c0-0.6,0.144-0.912,0.144-0.912h1.849v-2.184c0.624-0.384,1.512-0.552,2.399-0.48v2.665h3.121
		c0,0,0.144,0.312,0.144,0.888c0,0.552-0.144,0.912-0.144,0.912h-3.121V407.317z"/>
	<path fill="#00AADD" d="M41.449,406.285c0.192,2.856,1.345,3.768,3.337,3.768c1.704,0,2.832-0.696,2.832-0.696
		c0.432,0.384,0.744,1.032,0.768,1.728c0,0-1.368,1.008-3.984,1.008c-3.696,0-5.424-2.28-5.424-6.625c0-4.536,2.136-6.48,5.328-6.48
		c2.952,0,4.752,1.632,4.752,4.825c0,1.512-0.264,2.472-0.264,2.472H41.449z M44.306,400.885c-1.561,0-2.664,1.032-2.856,3.696
		h5.137c0.024-0.192,0.072-0.576,0.072-1.08C46.658,402.084,46.082,400.885,44.306,400.885z"/>
	<path fill="#00AADD" d="M57.193,399.012c0.889,0,1.561,0.264,2.089,0.6c-0.072,0.864-0.408,1.488-1.057,2.016
		c-0.456-0.336-0.936-0.504-1.488-0.504c-0.936,0-1.848,0.72-2.472,1.824v8.737c0,0-0.408,0.168-1.2,0.168
		c-0.84,0-1.2-0.168-1.2-0.168v-12.289c0,0,0.36-0.168,1.2-0.168c0.792,0,1.2,0.168,1.2,0.168v1.656
		C55.178,399.541,56.233,399.012,57.193,399.012z"/>
	<path fill="#00AADD" d="M63.722,400.548c0.672-0.984,1.752-1.56,3.456-1.56c2.736,0,4.513,1.656,4.513,6.553
		s-1.776,6.553-4.513,6.553c-1.704,0-2.784-0.576-3.456-1.561v1.152c0,0-0.408,0.168-1.225,0.168c-0.792,0-1.176-0.168-1.176-0.168
		V394.02c0,0,0.384-0.168,1.176-0.168c0.816,0,1.225,0.168,1.225,0.168V400.548z M66.338,400.957c-1.681,0-2.616,1.392-2.616,3.024
		v3.072c0,1.656,0.936,3.072,2.616,3.072c1.92,0,2.88-1.008,2.88-4.584S68.258,400.957,66.338,400.957z"/>
	<path fill="#00AADD" d="M79.033,398.988c3.48,0,4.585,1.56,4.585,4.657v8.041c0,0-0.265,0.168-0.937,0.168
		c-0.6,0-0.96-0.168-0.96-0.168l-0.36-1.536c-0.624,1.272-1.944,1.944-3.769,1.944c-2.256,0-3.72-1.344-3.72-4.009
		c0-2.568,1.608-3.768,4.608-3.768c1.08,0,2.112,0.072,2.736,0.144v-1.032c0-1.536-0.648-2.424-2.473-2.424
		c-1.68,0-3.216,0.6-3.216,0.6c-0.024-0.024-0.313-0.216-0.553-0.72c-0.216-0.504-0.144-0.984-0.144-1.008
		C74.833,399.876,76.633,398.988,79.033,398.988z M77.113,394.788c0.72,0,1.104,0.144,1.104,0.144v1.944
		c0,0-0.385,0.144-1.104,0.144c-0.744,0-1.08-0.144-1.08-0.144v-1.944C76.033,394.932,76.369,394.788,77.113,394.788z
		 M78.793,405.949c-1.607,0-2.448,0.648-2.448,2.136c0,1.536,0.793,2.161,2.089,2.161c1.896,0,2.784-1.608,2.784-3.313v-0.84
		C80.665,406.045,79.705,405.949,78.793,405.949z M81.193,394.788c0.721,0,1.08,0.144,1.08,0.144v1.944c0,0-0.359,0.144-1.08,0.144
		c-0.744,0-1.104-0.144-1.104-0.144v-1.944C80.09,394.932,80.449,394.788,81.193,394.788z"/>
	<path fill="#00AADD" d="M92.354,399.012c0.889,0,1.561,0.264,2.089,0.6c-0.072,0.864-0.408,1.488-1.057,2.016
		c-0.456-0.336-0.936-0.504-1.488-0.504c-0.936,0-1.848,0.72-2.472,1.824v8.737c0,0-0.408,0.168-1.2,0.168
		c-0.84,0-1.2-0.168-1.2-0.168v-12.289c0,0,0.36-0.168,1.2-0.168c0.792,0,1.2,0.168,1.2,0.168v1.656
		C90.338,399.541,91.394,399.012,92.354,399.012z"/>
	<path fill="#00AADD" d="M98.978,396.804c0,0-0.432,0.168-1.248,0.168c-0.864,0-1.248-0.168-1.248-0.168v-2.256
		c0,0,0.384-0.168,1.248-0.168c0.816,0,1.248,0.168,1.248,0.168V396.804z M98.93,411.686c0,0-0.408,0.168-1.2,0.168
		c-0.84,0-1.2-0.168-1.2-0.168v-12.289c0,0,0.36-0.168,1.2-0.168c0.792,0,1.2,0.168,1.2,0.168V411.686z"/>
	<path fill="#00AADD" d="M112.227,411.686c0,0-0.408,0.168-1.2,0.168c-0.816,0-1.2-0.168-1.2-0.168v-8.641
		c0-1.344-0.696-2.112-2.232-2.112c-1.056,0-2.088,0.576-2.712,1.536v9.217c0,0-0.433,0.168-1.2,0.168c-0.84,0-1.2-0.168-1.2-0.168
		v-12.289c0,0,0.36-0.168,1.2-0.168c0.768,0,1.2,0.168,1.2,0.168v1.104c0.864-0.984,2.112-1.512,3.624-1.512
		c2.4,0,3.721,1.464,3.721,3.625V411.686z"/>
	<path fill="#00AADD" d="M125.906,398.988c0.216,0.504,0.216,1.368,0,1.896l-1.992-0.096c0.456,0.672,0.672,1.512,0.672,2.52
		c0,2.688-1.608,4.321-4.704,4.321c-0.385,0-0.744-0.024-1.057-0.072c-0.264,0.36-0.504,0.864-0.456,1.392
		c0.265,2.208,7.513-0.144,7.513,4.8c0,2.353-2.28,4.104-6.168,4.104c-3.601,0-5.112-1.416-5.112-3.336
		c0-1.824,1.487-2.928,2.136-3.312c-0.336-0.336-0.528-0.792-0.528-1.392c0-1.056,0.601-2.016,1.152-2.665
		c-1.44-0.672-2.185-2.016-2.185-3.84c0-2.688,1.633-4.32,4.705-4.32c1.08,0,1.968,0.192,2.664,0.552L125.906,398.988z
		 M118.033,411.854c-0.6,0.48-1.104,1.296-1.104,2.184c0,1.2,0.888,2.112,2.855,2.112c2.473,0,3.816-0.888,3.816-2.16
		C123.602,412.021,120.193,412.525,118.033,411.854z M119.882,400.668c-1.44,0-2.425,0.84-2.425,2.64c0,1.8,0.984,2.616,2.425,2.616
		c1.439,0,2.4-0.816,2.4-2.616C122.282,401.509,121.321,400.668,119.882,400.668z"/>
	<path fill="#00AADD" d="M146.689,398.988c2.28,0,3.577,1.464,3.577,3.625v9.073c0,0-0.408,0.168-1.2,0.168
		c-0.841,0-1.2-0.168-1.2-0.168v-8.641c0-1.344-0.624-2.112-2.089-2.112c-0.983,0-1.943,0.528-2.567,1.536v9.217
		c0,0-0.408,0.168-1.177,0.168c-0.84,0-1.2-0.168-1.2-0.168v-8.641c0-1.344-0.624-2.112-2.088-2.112
		c-0.984,0-1.944,0.576-2.568,1.512v9.241c0,0-0.408,0.168-1.176,0.168c-0.84,0-1.2-0.168-1.2-0.168v-12.289
		c0,0,0.36-0.168,1.2-0.168c0.768,0,1.176,0.168,1.176,0.168v1.08c0.84-0.96,2.064-1.488,3.456-1.488
		c1.393,0,2.473,0.504,3.121,1.752C143.737,399.564,145.034,398.988,146.689,398.988z"/>
	<path fill="#00AADD" d="M155.616,406.285c0.192,2.856,1.345,3.768,3.337,3.768c1.704,0,2.832-0.696,2.832-0.696
		c0.432,0.384,0.744,1.032,0.768,1.728c0,0-1.368,1.008-3.984,1.008c-3.696,0-5.424-2.28-5.424-6.625c0-4.536,2.136-6.48,5.328-6.48
		c2.952,0,4.752,1.632,4.752,4.825c0,1.512-0.264,2.472-0.264,2.472H155.616z M158.473,400.885c-1.561,0-2.664,1.032-2.856,3.696
		h5.137c0.024-0.192,0.072-0.576,0.072-1.08C160.825,402.084,160.249,400.885,158.473,400.885z"/>
	<path fill="#00AADD" d="M174.697,393.852c0.792,0,1.176,0.168,1.176,0.168v17.666c0,0-0.408,0.168-1.008,0.168
		c-0.601,0-1.08-0.168-1.08-0.168l-0.168-1.296c-0.696,1.056-1.801,1.705-3.601,1.705c-2.736,0-4.513-1.656-4.513-6.553
		s1.776-6.553,4.513-6.553c1.68,0,2.76,0.576,3.456,1.56v-6.528C173.473,394.02,173.881,393.852,174.697,393.852z M170.856,400.957
		c-1.92,0-2.88,1.008-2.88,4.584s0.96,4.584,2.88,4.584c1.681,0,2.616-1.416,2.616-3.072v-3.096
		C173.449,402.349,172.513,400.957,170.856,400.957z"/>
	<path fill="#00AADD" d="M191.185,394.332c4.152,0,6.769,2.664,6.769,8.881c0,6.216-2.568,8.881-6.769,8.881
		s-6.769-2.665-6.769-8.881C184.416,397.044,187.032,394.332,191.185,394.332z M191.185,396.372c-2.544,0-4.2,1.536-4.2,6.841
		c0,5.304,1.656,6.84,4.2,6.84c2.568,0,4.2-1.536,4.2-6.84C195.385,397.908,193.753,396.372,191.185,396.372z"/>
	<path fill="#00AADD" d="M210.624,394.74c0.313-0.072,0.744-0.168,1.225-0.168c0.504,0,0.96,0.096,1.32,0.168l-5.448,7.873
		l6.168,9.073c0,0-0.504,0.168-1.44,0.168c-0.888,0-1.416-0.168-1.416-0.168l-5.353-7.825h-1.752v7.825c0,0-0.359,0.168-1.224,0.168
		c-0.769,0-1.225-0.168-1.225-0.168V394.74c0,0,0.433-0.168,1.248-0.168c0.792,0,1.2,0.168,1.2,0.168v7.152h1.752L210.624,394.74z"
		/>
	<path fill="#00AADD" d="M222.313,394.332c4.152,0,6.769,2.664,6.769,8.881c0,3.576-0.84,5.977-2.353,7.369
		c0.889,0.768,2.064,1.272,3.217,1.512c-0.097,0.84-0.624,1.704-1.345,2.064c-1.439-0.48-2.688-1.488-3.504-2.592
		c-0.816,0.36-1.752,0.528-2.784,0.528c-4.2,0-6.769-2.665-6.769-8.881C215.544,397.044,218.16,394.332,222.313,394.332z
		 M222.313,396.372c-2.544,0-4.2,1.536-4.2,6.841c0,5.304,1.656,6.84,4.2,6.84c2.568,0,4.2-1.536,4.2-6.84
		C226.513,397.908,224.881,396.372,222.313,396.372z"/>
	<path fill="#00AADD" d="M231.84,407.821c0-2.353,1.775-3.745,3.048-4.44c-1.44-0.816-2.568-1.944-2.568-3.984
		c0-2.496,1.921-4.104,5.089-4.104c3.096,0,4.992,1.44,4.992,3.913c0,2.088-1.296,3.336-2.353,4.056
		c1.656,0.864,3.049,2.064,3.049,4.344c0,2.833-2.064,4.489-5.736,4.489C233.928,412.094,231.84,410.533,231.84,407.821z
		 M240.672,407.725c0-1.992-2.184-2.664-4.271-3.576c-0.721,0.456-2.257,1.632-2.257,3.552c0,1.512,1.128,2.496,3.313,2.496
		C239.448,410.197,240.672,409.237,240.672,407.725z M234.672,399.252c0,1.752,1.872,2.448,3.816,3.288
		c0.744-0.576,1.752-1.56,1.752-3.12c0-1.488-1.056-2.328-2.832-2.328C235.68,397.092,234.672,397.932,234.672,399.252z"/>
	<path fill="#00AADD" d="M258.6,399.396c0,0,0.48-0.168,1.225-0.168c0.672,0,1.176,0.144,1.176,0.144l-3.696,5.736l4.248,6.577
		c0,0-0.527,0.192-1.344,0.192s-1.296-0.192-1.296-0.192l-3.601-5.521h-1.344v5.521c0,0-0.48,0.168-1.177,0.168
		c-0.768,0-1.224-0.168-1.224-0.168v-17.713c0,0,0.48-0.12,1.224-0.12c0.648,0,1.177,0.12,1.177,0.12v10.393h1.368L258.6,399.396z"
		/>
	<path fill="#00AADD" d="M267.936,398.988c3.313,0,5.328,1.8,5.328,6.553s-2.04,6.553-5.328,6.553s-5.328-1.8-5.328-6.553
		S264.647,398.988,267.936,398.988z M267.936,400.836c-1.752,0-2.88,1.008-2.88,4.705s1.128,4.705,2.88,4.705
		s2.856-1.008,2.856-4.705S269.688,400.836,267.936,400.836z"/>
	<path fill="#00AADD" d="M281.543,399.012c0.889,0,1.561,0.264,2.089,0.6c-0.072,0.864-0.408,1.488-1.057,2.016
		c-0.456-0.336-0.936-0.504-1.488-0.504c-0.936,0-1.848,0.72-2.472,1.824v8.737c0,0-0.408,0.168-1.2,0.168
		c-0.84,0-1.2-0.168-1.2-0.168v-12.289c0,0,0.36-0.168,1.2-0.168c0.792,0,1.2,0.168,1.2,0.168v1.656
		C279.527,399.541,280.583,399.012,281.543,399.012z"/>
	<path fill="#00AADD" d="M288.887,407.317c0,2.185,0.696,2.833,2.4,2.833c0.48,0,1.009-0.096,1.009-0.096s0.168,0.408,0.168,0.96
		c0,0.552-0.12,0.864-0.12,0.864c-0.433,0.12-1.08,0.216-1.729,0.216c-2.952,0-4.128-1.608-4.128-4.657v-6.408h-1.849
		c0,0-0.144-0.336-0.144-0.888c0-0.6,0.144-0.912,0.144-0.912h1.849v-2.184c0.624-0.384,1.512-0.552,2.399-0.48v2.665h3.121
		c0,0,0.144,0.312,0.144,0.888c0,0.552-0.144,0.912-0.144,0.912h-3.121V407.317z"/>
</g>
<g>
	<path fill="#01AADD" d="M-586.832,1202.324c-0.323-1.155-0.425-1.921-0.459-2.447h-0.068c-0.034,0.526-0.136,1.309-0.476,2.447
		l-1.343,4.606c-0.272,0.085-0.595,0.119-0.969,0.119c-0.357,0-0.697-0.034-0.986-0.119l-2.567-8.703c0,0,0.306-0.118,0.85-0.118
		c0.578,0,0.731,0.118,0.731,0.118l1.615,5.423c0.221,0.73,0.306,1.309,0.357,1.666h0.051c0.068-0.374,0.153-0.918,0.374-1.666
		l1.564-5.423c0,0,0.408-0.118,0.918-0.118c0.561,0,0.833,0.118,0.833,0.118l1.513,5.389c0.221,0.765,0.306,1.343,0.34,1.7h0.051
		c0.068-0.357,0.187-0.901,0.425-1.683l1.598-5.406c0,0,0.272-0.118,0.748-0.118c0.527,0,0.731,0.118,0.731,0.118l-2.566,8.703
		c-0.306,0.085-0.612,0.119-0.969,0.119s-0.663-0.034-0.986-0.119L-586.832,1202.324z"/>
	<path fill="#01AADD" d="M-573.283,1202.324c-0.323-1.155-0.425-1.921-0.459-2.447h-0.068c-0.034,0.526-0.136,1.309-0.476,2.447
		l-1.343,4.606c-0.272,0.085-0.595,0.119-0.969,0.119c-0.357,0-0.697-0.034-0.986-0.119l-2.567-8.703c0,0,0.306-0.118,0.85-0.118
		c0.578,0,0.731,0.118,0.731,0.118l1.615,5.423c0.221,0.73,0.306,1.309,0.357,1.666h0.051c0.068-0.374,0.153-0.918,0.374-1.666
		l1.564-5.423c0,0,0.408-0.118,0.918-0.118c0.561,0,0.833,0.118,0.833,0.118l1.513,5.389c0.221,0.765,0.306,1.343,0.34,1.7h0.051
		c0.068-0.357,0.187-0.901,0.425-1.683l1.598-5.406c0,0,0.272-0.118,0.748-0.118c0.527,0,0.731,0.118,0.731,0.118l-2.566,8.703
		c-0.306,0.085-0.612,0.119-0.969,0.119s-0.663-0.034-0.986-0.119L-573.283,1202.324z"/>
	<path fill="#01AADD" d="M-559.734,1202.324c-0.323-1.155-0.425-1.921-0.459-2.447h-0.068c-0.034,0.526-0.136,1.309-0.476,2.447
		l-1.343,4.606c-0.272,0.085-0.595,0.119-0.969,0.119c-0.357,0-0.697-0.034-0.986-0.119l-2.567-8.703c0,0,0.306-0.118,0.85-0.118
		c0.578,0,0.731,0.118,0.731,0.118l1.615,5.423c0.221,0.73,0.306,1.309,0.357,1.666h0.051c0.068-0.374,0.153-0.918,0.374-1.666
		l1.564-5.423c0,0,0.408-0.118,0.918-0.118c0.561,0,0.833,0.118,0.833,0.118l1.513,5.389c0.221,0.765,0.306,1.343,0.34,1.7h0.051
		c0.068-0.357,0.187-0.901,0.425-1.683l1.598-5.406c0,0,0.272-0.118,0.748-0.118c0.527,0,0.731,0.118,0.731,0.118l-2.566,8.703
		c-0.306,0.085-0.612,0.119-0.969,0.119s-0.663-0.034-0.986-0.119L-559.734,1202.324z"/>
	<path fill="#01AADD" d="M-551.217,1206.931c0,0-0.306,0.119-0.884,0.119c-0.612,0-0.884-0.119-0.884-0.119v-1.598
		c0,0,0.272-0.119,0.884-0.119c0.578,0,0.884,0.119,0.884,0.119V1206.931z"/>
	<path fill="#01AADD" d="M-545.777,1197.938c2.465,0,3.247,1.105,3.247,3.298v5.694c0,0-0.187,0.119-0.663,0.119
		c-0.425,0-0.68-0.119-0.68-0.119l-0.255-1.088c-0.442,0.901-1.377,1.377-2.669,1.377c-1.598,0-2.634-0.935-2.634-2.839
		c0-1.853,1.139-2.668,3.264-2.668c0.765,0,1.496,0.051,1.938,0.102v-0.629c0-1.156-0.442-1.818-1.751-1.818
		c-1.189,0-2.277,0.425-2.277,0.425c-0.017-0.018-0.221-0.153-0.391-0.51c-0.153-0.357-0.102-0.697-0.102-0.714
		C-548.751,1198.568-547.477,1197.938-545.777,1197.938z M-545.947,1202.868c-1.139,0-1.734,0.442-1.734,1.513
		c0,1.105,0.561,1.53,1.479,1.53c1.343,0,1.972-1.139,1.972-2.346v-0.595C-544.621,1202.937-545.301,1202.868-545.947,1202.868z"/>
	<path fill="#01AADD" d="M-540.184,1198.228c0,0,0.289-0.118,0.85-0.118c0.578,0,0.85,0.118,0.85,0.118v6.12
		c0,0.951,0.493,1.495,1.581,1.495c0.748,0,1.462-0.391,1.921-1.088v-6.527c0,0,0.306-0.118,0.85-0.118
		c0.595,0,0.85,0.118,0.85,0.118v8.703c0,0-0.255,0.119-0.85,0.119c-0.544,0-0.85-0.119-0.85-0.119v-0.781
		c-0.612,0.696-1.513,1.07-2.567,1.07c-1.7,0-2.635-1.036-2.635-2.566V1198.228z"/>
	<path fill="#01AADD" d="M-528.522,1203.837c0,1.547,0.493,2.006,1.7,2.006c0.34,0,0.714-0.067,0.714-0.067s0.119,0.289,0.119,0.68
		s-0.085,0.612-0.085,0.612c-0.306,0.085-0.765,0.152-1.224,0.152c-2.091,0-2.924-1.139-2.924-3.298v-4.538h-1.309
		c0,0-0.102-0.238-0.102-0.629c0-0.425,0.102-0.646,0.102-0.646h1.309v-1.547c0.442-0.272,1.071-0.392,1.7-0.341v1.888h2.21
		c0,0,0.102,0.221,0.102,0.629c0,0.391-0.102,0.646-0.102,0.646h-2.21V1203.837z"/>
	<path fill="#01AADD" d="M-520.974,1197.938c2.346,0,3.773,1.275,3.773,4.641c0,3.366-1.445,4.641-3.773,4.641
		s-3.773-1.274-3.773-4.641C-524.748,1199.214-523.303,1197.938-520.974,1197.938z M-520.974,1199.248
		c-1.241,0-2.04,0.714-2.04,3.331c0,2.618,0.799,3.332,2.04,3.332s2.023-0.714,2.023-3.332
		C-518.951,1199.962-519.733,1199.248-520.974,1199.248z"/>
	<path fill="#01AADD" d="M-512.304,1197.938c1.666,0,2.397,0.459,2.397,0.459c0,0.442-0.153,0.936-0.442,1.207
		c0,0-0.816-0.271-1.785-0.271c-1.156,0-1.733,0.425-1.733,1.224c0,0.833,1.071,1.037,2.142,1.394
		c1.105,0.357,2.261,0.884,2.261,2.55c0,1.717-1.071,2.72-3.229,2.72c-1.785,0-2.839-0.611-2.839-0.611
		c0-0.493,0.153-0.969,0.459-1.258c0,0,1.105,0.425,2.295,0.425c1.037,0,1.632-0.392,1.632-1.224c0-0.936-0.935-1.14-1.938-1.429
		c-1.156-0.34-2.414-0.833-2.414-2.516C-515.5,1199.01-514.463,1197.938-512.304,1197.938z"/>
	<path fill="#01AADD" d="M-506.167,1203.106c0.136,2.022,0.952,2.669,2.363,2.669c1.207,0,2.006-0.493,2.006-0.493
		c0.306,0.271,0.527,0.73,0.544,1.224c0,0-0.969,0.714-2.822,0.714c-2.618,0-3.841-1.614-3.841-4.691c0-3.213,1.513-4.59,3.773-4.59
		c2.091,0,3.366,1.156,3.366,3.417c0,1.071-0.187,1.751-0.187,1.751H-506.167z M-504.144,1199.282c-1.105,0-1.887,0.73-2.023,2.617
		h3.638c0.017-0.136,0.051-0.408,0.051-0.765C-502.478,1200.132-502.886,1199.282-504.144,1199.282z"/>
	<path fill="#01AADD" d="M-495.015,1197.956c0.629,0,1.104,0.187,1.479,0.425c-0.051,0.612-0.289,1.054-0.748,1.428
		c-0.323-0.238-0.663-0.356-1.054-0.356c-0.663,0-1.309,0.51-1.75,1.292v6.187c0,0-0.289,0.119-0.85,0.119
		c-0.595,0-0.85-0.119-0.85-0.119v-8.703c0,0,0.255-0.118,0.85-0.118c0.561,0,0.85,0.118,0.85,0.118v1.173
		C-496.443,1198.33-495.695,1197.956-495.015,1197.956z"/>
	<path fill="#01AADD" d="M-489.405,1203.582c0.323,0.952,0.476,1.819,0.476,1.819h0.068c0,0,0.204-0.833,0.527-1.819l1.853-5.354
		c0,0,0.272-0.118,0.765-0.118c0.527,0,0.799,0.118,0.799,0.118l-2.992,8.703c0,0-0.425,0.119-1.02,0.119
		c-0.629,0-1.02-0.119-1.02-0.119l-3.06-8.703c0,0,0.323-0.118,0.884-0.118c0.595,0,0.884,0.118,0.884,0.118L-489.405,1203.582z"/>
	<path fill="#01AADD" d="M-481.551,1196.393c0,0-0.306,0.118-0.884,0.118c-0.612,0-0.884-0.118-0.884-0.118v-1.599
		c0,0,0.272-0.119,0.884-0.119c0.578,0,0.884,0.119,0.884,0.119V1196.393z M-481.585,1206.931c0,0-0.289,0.119-0.85,0.119
		c-0.595,0-0.85-0.119-0.85-0.119v-8.703c0,0,0.255-0.118,0.85-0.118c0.561,0,0.85,0.118,0.85,0.118V1206.931z"/>
	<path fill="#01AADD" d="M-477.709,1202.579c0,2.228,0.714,3.196,2.346,3.196c0.935,0,1.598-0.289,1.598-0.289
		c0.289,0.255,0.476,0.748,0.493,1.224c0,0-0.748,0.51-2.448,0.51c-2.481,0-3.739-1.614-3.739-4.641
		c0-3.025,1.258-4.641,3.739-4.641c1.632,0,2.278,0.426,2.278,0.426c0,0.459-0.187,0.935-0.493,1.224c0,0-0.595-0.255-1.496-0.255
		C-477.063,1199.333-477.709,1200.37-477.709,1202.579z"/>
	<path fill="#01AADD" d="M-470.111,1203.106c0.136,2.022,0.952,2.669,2.363,2.669c1.207,0,2.006-0.493,2.006-0.493
		c0.306,0.271,0.527,0.73,0.544,1.224c0,0-0.969,0.714-2.822,0.714c-2.618,0-3.841-1.614-3.841-4.691c0-3.213,1.513-4.59,3.773-4.59
		c2.091,0,3.366,1.156,3.366,3.417c0,1.071-0.187,1.751-0.187,1.751H-470.111z M-468.088,1199.282c-1.105,0-1.887,0.73-2.023,2.617
		h3.638c0.017-0.136,0.051-0.408,0.051-0.765C-466.422,1200.132-466.83,1199.282-468.088,1199.282z"/>
	<path fill="#01AADD" d="M-461.033,1199.044c0.476-0.697,1.241-1.105,2.448-1.105c1.938,0,3.195,1.174,3.195,4.641
		c0,3.468-1.258,4.641-3.195,4.641c-1.207,0-1.972-0.407-2.448-1.104v0.815c0,0-0.289,0.119-0.867,0.119
		c-0.561,0-0.833-0.119-0.833-0.119v-12.511c0,0,0.272-0.118,0.833-0.118c0.578,0,0.867,0.118,0.867,0.118V1199.044z
		 M-459.18,1199.333c-1.19,0-1.853,0.985-1.853,2.142v2.176c0,1.173,0.663,2.176,1.853,2.176c1.36,0,2.04-0.714,2.04-3.247
		C-457.14,1200.047-457.82,1199.333-459.18,1199.333z"/>
	<path fill="#01AADD" d="M-449.898,1197.938c2.346,0,3.773,1.275,3.773,4.641c0,3.366-1.445,4.641-3.773,4.641
		s-3.773-1.274-3.773-4.641C-453.671,1199.214-452.227,1197.938-449.898,1197.938z M-449.898,1199.248
		c-1.241,0-2.04,0.714-2.04,3.331c0,2.618,0.799,3.332,2.04,3.332s2.023-0.714,2.023-3.332
		C-447.875,1199.962-448.657,1199.248-449.898,1199.248z"/>
	<path fill="#01AADD" d="M-441.891,1203.837c0,1.547,0.493,2.006,1.7,2.006c0.34,0,0.714-0.067,0.714-0.067s0.119,0.289,0.119,0.68
		s-0.085,0.612-0.085,0.612c-0.306,0.085-0.765,0.152-1.224,0.152c-2.091,0-2.924-1.139-2.924-3.298v-4.538h-1.309
		c0,0-0.102-0.238-0.102-0.629c0-0.425,0.102-0.646,0.102-0.646h1.309v-1.547c0.442-0.272,1.071-0.392,1.7-0.341v1.888h2.21
		c0,0,0.102,0.221,0.102,0.629c0,0.391-0.102,0.646-0.102,0.646h-2.21V1203.837z"/>
	<path fill="#01AADD" d="M-432.746,1198.228c0,0,0.34-0.118,0.867-0.118c0.476,0,0.833,0.102,0.833,0.102l-2.618,4.063l3.009,4.657
		c0,0-0.374,0.137-0.952,0.137c-0.578,0-0.918-0.137-0.918-0.137l-2.55-3.909h-0.952v3.909c0,0-0.34,0.119-0.833,0.119
		c-0.544,0-0.867-0.119-0.867-0.119v-12.544c0,0,0.34-0.085,0.867-0.085c0.459,0,0.833,0.085,0.833,0.085v7.359h0.969
		L-432.746,1198.228z"/>
	<path fill="#01AADD" d="M-425.163,1208.359c-0.612,1.869-1.207,2.94-3.043,2.94c-0.561,0-0.935-0.17-0.935-0.17
		c0-0.018-0.119-0.289-0.119-0.629c0-0.374,0.119-0.663,0.136-0.681c0,0,0.374,0.068,0.765,0.068c0.765,0,1.156-0.204,1.666-1.802
		l0.357-1.037c-0.17-0.017-0.357-0.034-0.544-0.119l-3.23-8.703c0,0,0.323-0.118,0.884-0.118c0.578,0,0.884,0.118,0.884,0.118
		l1.938,5.168c0.425,1.173,0.595,1.988,0.595,1.988h0.068c0,0,0.17-0.799,0.544-1.972l1.683-5.185c0,0,0.271-0.118,0.833-0.118
		c0.493,0,0.799,0.118,0.799,0.118L-425.163,1208.359z"/>
	<path fill="#01AADD" d="M-416.493,1197.956c0.629,0,1.105,0.187,1.479,0.425c-0.051,0.612-0.289,1.054-0.748,1.428
		c-0.323-0.238-0.663-0.356-1.054-0.356c-0.663,0-1.309,0.51-1.75,1.292v6.187c0,0-0.289,0.119-0.85,0.119
		c-0.595,0-0.85-0.119-0.85-0.119v-8.703c0,0,0.255-0.118,0.85-0.118c0.561,0,0.85,0.118,0.85,0.118v1.173
		C-417.921,1198.33-417.173,1197.956-416.493,1197.956z"/>
	<path fill="#01AADD" d="M-410.594,1197.938c2.465,0,3.247,1.105,3.247,3.298v5.694c0,0-0.187,0.119-0.663,0.119
		c-0.425,0-0.68-0.119-0.68-0.119l-0.255-1.088c-0.442,0.901-1.377,1.377-2.669,1.377c-1.598,0-2.634-0.935-2.634-2.839
		c0-1.853,1.139-2.668,3.264-2.668c0.765,0,1.496,0.051,1.938,0.102v-0.629c0-1.156-0.442-1.818-1.751-1.818
		c-1.189,0-2.277,0.425-2.277,0.425c-0.017-0.018-0.221-0.153-0.391-0.51c-0.153-0.357-0.102-0.697-0.102-0.714
		C-413.569,1198.568-412.294,1197.938-410.594,1197.938z M-410.764,1202.868c-1.139,0-1.734,0.442-1.734,1.513
		c0,1.105,0.561,1.53,1.479,1.53c1.343,0,1.972-1.139,1.972-2.346v-0.595C-409.438,1202.937-410.118,1202.868-410.764,1202.868z"/>
	<path fill="#01AADD" d="M-403.301,1206.931c0,0-0.306,0.119-0.884,0.119c-0.612,0-0.884-0.119-0.884-0.119v-1.598
		c0,0,0.272-0.119,0.884-0.119c0.578,0,0.884,0.119,0.884,0.119V1206.931z"/>
	<path fill="#01AADD" d="M-398.15,1197.938c1.666,0,2.397,0.459,2.397,0.459c0,0.442-0.153,0.936-0.442,1.207
		c0,0-0.816-0.271-1.785-0.271c-1.156,0-1.734,0.425-1.734,1.224c0,0.833,1.071,1.037,2.142,1.394
		c1.105,0.357,2.261,0.884,2.261,2.55c0,1.717-1.071,2.72-3.229,2.72c-1.785,0-2.839-0.611-2.839-0.611
		c0-0.493,0.153-0.969,0.459-1.258c0,0,1.105,0.425,2.295,0.425c1.037,0,1.632-0.392,1.632-1.224c0-0.936-0.935-1.14-1.938-1.429
		c-1.156-0.34-2.414-0.833-2.414-2.516C-401.346,1199.01-400.309,1197.938-398.15,1197.938z"/>
	<path fill="#01AADD" d="M-392.013,1203.106c0.136,2.022,0.952,2.669,2.363,2.669c1.207,0,2.006-0.493,2.006-0.493
		c0.306,0.271,0.527,0.73,0.544,1.224c0,0-0.969,0.714-2.822,0.714c-2.618,0-3.841-1.614-3.841-4.691c0-3.213,1.513-4.59,3.773-4.59
		c2.091,0,3.366,1.156,3.366,3.417c0,1.071-0.187,1.751-0.187,1.751H-392.013z M-389.99,1199.282c-1.105,0-1.887,0.73-2.023,2.617
		h3.638c0.017-0.136,0.051-0.408,0.051-0.765C-388.324,1200.132-388.732,1199.282-389.99,1199.282z"/>
</g>
<g>
	<path fill="#FFFFFF" d="M-115.752,679.2c1.965,0,3.225,1.275,3.225,3.165c0,1.484-0.795,2.609-2.115,3l2.61,4.529
		c0,0-0.315,0.105-0.9,0.105c-0.555,0-0.87-0.105-0.87-0.105l-2.489-4.379h-1.771v4.379c0,0-0.255,0.105-0.75,0.105
		c-0.555,0-0.779-0.105-0.779-0.105V679.2H-115.752z M-118.063,684.24h2.115c1.17,0,1.83-0.689,1.83-1.875
		c0-1.199-0.66-1.89-1.83-1.89h-2.115V684.24z"/>
	<path fill="#FFFFFF" d="M-110.202,679.306c0,0,0.255-0.105,0.75-0.105c0.524,0,0.779,0.105,0.779,0.105v10.589
		c0,0-0.27,0.105-0.765,0.105c-0.54,0-0.765-0.105-0.765-0.105V679.306z"/>
	<path fill="#FFFFFF" d="M-103.752,683.07c-0.556-0.975-0.886-1.936-0.886-1.936h-0.06c0,0,0.105,1.006,0.105,2.521v6.239
		c0,0-0.226,0.105-0.721,0.105c-0.479,0-0.689-0.105-0.689-0.105v-10.589c0,0,0.314-0.105,0.915-0.105
		c0.6,0,0.899,0.105,0.899,0.105l3.735,6.765c0.54,0.975,0.93,1.994,0.93,1.994h0.045c0,0-0.104-1.109-0.104-2.504v-6.255
		c0,0,0.225-0.105,0.72-0.105s0.689,0.105,0.689,0.105v10.589c0,0-0.284,0.105-0.885,0.105c-0.6,0-0.915-0.105-0.915-0.105
		L-103.752,683.07z"/>
	<path fill="#FFFFFF" d="M-91.362,679.051c1.785,0,2.805,0.51,2.805,0.51c0,0.42-0.165,0.855-0.45,1.125
		c0,0-1.005-0.346-2.189-0.346c-1.83,0-3.18,0.931-3.18,4.275s1.35,4.215,3.18,4.215c0.689,0,1.229-0.09,1.365-0.12v-3.465h-2.176
		c0,0-0.119-0.226-0.119-0.614c0-0.406,0.119-0.631,0.119-0.631h3.615v5.641c0,0-1.11,0.51-2.97,0.51
		c-2.985,0-4.604-1.891-4.604-5.551C-95.967,680.971-94.348,679.051-91.362,679.051z"/>
	<path fill="#FFFFFF" d="M-78.928,679.051c2.596,0,4.23,1.664,4.23,5.549s-1.605,5.551-4.23,5.551c-2.624,0-4.229-1.666-4.229-5.551
		C-83.157,680.746-81.522,679.051-78.928,679.051z M-78.928,680.325c-1.59,0-2.624,0.96-2.624,4.274
		c0,3.315,1.034,4.275,2.624,4.275c1.605,0,2.625-0.96,2.625-4.275C-76.303,681.285-77.322,680.325-78.928,680.325z"/>
	<path fill="#FFFFFF" d="M-69.343,679.051c1.8,0,2.94,0.42,2.94,0.42c0,0.435-0.136,0.9-0.42,1.199c0,0-1.021-0.33-2.311-0.33
		c-1.59,0-2.354,0.615-2.354,1.711c0,1.154,1.29,1.424,2.685,1.875c1.396,0.479,2.805,1.125,2.805,3.09
		c0,2.01-1.305,3.135-3.765,3.135c-1.979,0-3.239-0.631-3.239-0.631c-0.016-0.404,0.135-0.869,0.359-1.215
		c0,0,1.41,0.465,2.805,0.465c1.545,0,2.28-0.584,2.28-1.709c0-1.065-0.855-1.44-1.89-1.771c-1.561-0.524-3.555-0.899-3.555-3.165
		C-73.002,680.28-71.787,679.051-69.343,679.051z"/>
	<path fill="#FFFFFF" d="M-60.822,679.051c1.8,0,2.939,0.42,2.939,0.42c0,0.435-0.135,0.9-0.42,1.199c0,0-1.02-0.33-2.31-0.33
		c-1.59,0-2.355,0.615-2.355,1.711c0,1.154,1.29,1.424,2.686,1.875c1.395,0.479,2.805,1.125,2.805,3.09
		c0,2.01-1.305,3.135-3.765,3.135c-1.98,0-3.24-0.631-3.24-0.631c-0.015-0.404,0.135-0.869,0.36-1.215c0,0,1.409,0.465,2.805,0.465
		c1.545,0,2.279-0.584,2.279-1.709c0-1.065-0.854-1.44-1.89-1.771c-1.56-0.524-3.555-0.899-3.555-3.165
		C-64.482,680.28-63.268,679.051-60.822,679.051z"/>
	<path fill="#FFFFFF" d="M-106.114,697.306c0,0,0.255-0.105,0.75-0.105c0.524,0,0.779,0.105,0.779,0.105v10.589
		c0,0-0.27,0.105-0.765,0.105c-0.54,0-0.765-0.105-0.765-0.105V697.306z"/>
	<path fill="#FFFFFF" d="M-98.584,697.2c2.774,0,4.409,1.425,4.409,5.399c0,3.976-1.635,5.4-4.409,5.4h-3.33v-10.8H-98.584z
		 M-98.689,706.725c1.755,0,2.88-0.75,2.88-4.125c0-3.389-1.125-4.124-2.88-4.124h-1.695v8.249H-98.689z"/>
	<path fill="#FFFFFF" d="M-88.624,697.2c0.569,0,0.899,0.105,0.899,0.105l3.766,10.589c0,0-0.271,0.105-0.825,0.105
		c-0.51,0-0.75-0.105-0.75-0.105l-0.93-2.64h-4.44l-0.944,2.64c0,0-0.256,0.105-0.735,0.105c-0.465,0-0.705-0.105-0.705-0.105
		l3.765-10.589C-89.524,697.306-89.149,697.2-88.624,697.2z M-88.699,698.865c0,0-0.135,0.6-0.39,1.35l-1.38,3.795h3.569
		l-1.365-3.795c-0.27-0.779-0.39-1.35-0.39-1.35H-88.699z"/>
	<path fill="#FFFFFF" d="M-78.244,697.051c1.785,0,2.805,0.51,2.805,0.51c0,0.42-0.165,0.855-0.45,1.125
		c0,0-1.005-0.346-2.189-0.346c-1.83,0-3.18,0.931-3.18,4.275s1.35,4.215,3.18,4.215c0.689,0,1.229-0.09,1.365-0.12v-3.465h-2.176
		c0,0-0.119-0.226-0.119-0.614c0-0.406,0.119-0.631,0.119-0.631h3.615v5.641c0,0-1.11,0.51-2.97,0.51
		c-2.985,0-4.604-1.891-4.604-5.551C-82.849,698.971-81.229,697.051-78.244,697.051z"/>
	<path fill="#FFFFFF" d="M-73.084,697.306c0,0,0.24-0.105,0.81-0.105c0.54,0,0.811,0.105,0.811,0.105l-0.255,7.814
		c0,0-0.195,0.12-0.54,0.12c-0.36,0-0.57-0.12-0.57-0.12L-73.084,697.306z M-71.509,707.895c0,0-0.255,0.105-0.766,0.105
		c-0.54,0-0.765-0.105-0.765-0.105v-1.41c0,0,0.225-0.104,0.765-0.104c0.511,0,0.766,0.104,0.766,0.104V707.895z"/>
</g>
<g>
</g>
<g>
</g>
<g>
</g>
<g>
</g>
<g>
</g>
<g>
</g>
</svg>
