<?xml version="1.0" encoding="utf-8"?>
<!-- Generator: Adobe Illustrator 19.1.1, SVG Export Plug-In . SVG Version: 6.00 Build 0)  -->
<svg version="1.1" id="Layer_1" xmlns="http://www.w3.org/2000/svg" xmlns:xlink="http://www.w3.org/1999/xlink" x="0px" y="0px"
	 viewBox="0 0 300 600" style="enable-background:new 0 0 300 600;" xml:space="preserve">
<style type="text/css">
	.st0{fill:#D4AC76;}
</style>
<g>
	<path class="st0" d="M81.7,236.7v-12.4H85c1.7,0,3.1,0.6,4.3,1.8c1.2,1.2,1.8,2.7,1.8,4.4c0,1.8-0.6,3.3-1.8,4.4
		c-1.2,1.2-2.7,1.8-4.4,1.8H81.7z M85,225.9h-1.7v9.1h1.7c1.2,0,2.2-0.4,3-1.3c0.8-0.9,1.2-2,1.2-3.2s-0.4-2.3-1.3-3.2
		C87.3,226.4,86.2,225.9,85,225.9z"/>
	<path class="st0" d="M95.4,236.7v-12.4h1.7v12.4H95.4z"/>
	<path class="st0" d="M100.5,225.9v-1.6h10v1.6h-4.1v10.7h-1.7v-10.7H100.5z"/>
	<path class="st0" d="M113,225.9v-1.6h10v1.6h-4.1v10.7h-1.7v-10.7H113z"/>
	<path class="st0" d="M133.5,236.7v-12.4h1.2l6.7,8.5v-8.5h1.7v12.4h-1l-6.9-8.8v8.8H133.5z"/>
	<path class="st0" d="M154.7,224.3h2l-4.1,7.4v5h-1.7v-4.9l-4.2-7.5h2.1l3,5.5L154.7,224.3z"/>
	<path class="st0" d="M157.4,236.7l5-12.4h1.6l4.9,12.4h-1.9l-0.7-1.9h-6.1l-0.8,1.9H157.4z M163.2,227.1l-2.4,6h4.8L163.2,227.1z"
		/>
	<path class="st0" d="M186.9,236.7v-5.4h-6v5.4h-1.7v-12.4h1.7v5.4h6v-5.4h1.7v12.4H186.9z"/>
	<path class="st0" d="M200.6,231.2h-5.1v3.8h5.4v1.6h-7.2v-12.4h7.1v1.6h-5.3v3.6h5.1V231.2z"/>
	<path class="st0" d="M205.2,236.7v-12.4h1.8l4,6.6l4-6.6h1.7v12.4H215v-9.1l-0.1,0l-4,6.4l-3.9-6.3H207v9.1H205.2z"/>
	<path class="st0" d="M79.1,257.6l-4.8-12.4h1.9l3.7,9.5l3.7-9.5h1.9l-4.8,12.4H79.1z"/>
	<path class="st0" d="M86.6,257.6l5-12.4h1.6l4.9,12.4H96l-0.7-1.9h-6.1l-0.8,1.9H86.6z M91,243.9c-0.2,0.2-0.4,0.3-0.6,0.3
		c-0.2,0-0.4-0.1-0.6-0.3s-0.2-0.4-0.2-0.7s0.1-0.5,0.2-0.7c0.2-0.2,0.4-0.3,0.6-0.3c0.2,0,0.4,0.1,0.6,0.3c0.2,0.2,0.3,0.4,0.3,0.7
		S91.2,243.7,91,243.9z M92.3,248l-2.4,6h4.8L92.3,248z M94.5,243.9c-0.2,0.2-0.4,0.3-0.6,0.3c-0.2,0-0.4-0.1-0.6-0.3
		s-0.2-0.4-0.2-0.7s0.1-0.5,0.2-0.7c0.2-0.2,0.4-0.3,0.6-0.3c0.2,0,0.4,0.1,0.6,0.3c0.2,0.2,0.2,0.4,0.2,0.7S94.6,243.7,94.5,243.9z
		"/>
	<path class="st0" d="M101.4,257.6v-12.4h1.2l6.7,8.5v-8.5h1.7v12.4h-1l-6.9-8.8v8.8H101.4z"/>
	<path class="st0" d="M114.6,246.8v-1.6h10v1.6h-4.1v10.7h-1.7v-10.7H114.6z"/>
	<path class="st0" d="M125.4,257.6l5-12.4h1.6l4.9,12.4h-1.9l-0.7-1.9h-6.1l-0.8,1.9H125.4z M131.1,248l-2.4,6h4.8L131.1,248z"/>
	<path class="st0" d="M140.2,257.6v-12.4h4.6c1.1,0,2,0.4,2.8,1.1c0.7,0.7,1.1,1.6,1.1,2.8c0,1-0.3,1.9-0.9,2.6
		c-0.6,0.7-1.4,1.1-2.4,1.2l3.6,4.7h-2.1l-3.6-4.7h-1.4v4.7H140.2z M144.6,246.8h-2.6v4.5h2.6c0.7,0,1.3-0.2,1.7-0.6
		c0.4-0.4,0.7-1,0.7-1.6c0-0.6-0.2-1.2-0.7-1.6C145.8,247,145.3,246.8,144.6,246.8z"/>
	<path class="st0" d="M159.7,257.6v-12.4h4.2c1.1,0,2.1,0.4,2.9,1.2c0.8,0.8,1.1,1.8,1.1,2.9c0,1.2-0.4,2.1-1.2,2.9
		c-0.8,0.8-1.8,1.2-2.9,1.2h-2.4v4.2H159.7z M163.8,246.8h-2.4v4.8h2.4c0.7,0,1.3-0.2,1.7-0.7c0.4-0.4,0.7-1,0.7-1.7
		c0-0.7-0.2-1.3-0.7-1.8C165.1,247.1,164.5,246.8,163.8,246.8z"/>
	<path class="st0" d="M169.6,257.6l5-12.4h1.6l4.9,12.4h-1.9l-0.7-1.9h-6.1l-0.8,1.9H169.6z M175.3,248l-2.4,6h4.8L175.3,248z
		 M176.5,244.3c-0.3,0.3-0.7,0.5-1.2,0.5c-0.5,0-0.9-0.2-1.2-0.5s-0.5-0.7-0.5-1.2c0-0.5,0.2-0.9,0.5-1.2s0.7-0.5,1.2-0.5
		c0.5,0,0.9,0.2,1.2,0.5c0.3,0.3,0.5,0.7,0.5,1.2C177,243.6,176.8,244,176.5,244.3z M175.3,243.8c0.2,0,0.3-0.1,0.5-0.2
		s0.2-0.3,0.2-0.5c0-0.2-0.1-0.4-0.2-0.5c-0.1-0.1-0.3-0.2-0.5-0.2c-0.2,0-0.4,0.1-0.5,0.2c-0.1,0.1-0.2,0.3-0.2,0.5
		c0,0.2,0.1,0.3,0.2,0.5S175.1,243.8,175.3,243.8z"/>
	<path class="st0" d="M191.3,257.6v-12.4h3.3c1.7,0,3.1,0.6,4.3,1.8s1.8,2.7,1.8,4.4c0,1.8-0.6,3.3-1.8,4.4
		c-1.2,1.2-2.7,1.8-4.4,1.8H191.3z M194.7,246.8H193v9.1h1.7c1.2,0,2.2-0.4,3-1.3c0.8-0.9,1.2-2,1.2-3.2s-0.4-2.3-1.3-3.2
		C196.9,247.3,195.9,246.8,194.7,246.8z"/>
	<path class="st0" d="M205,257.6v-12.4h1.7v12.4H205z"/>
	<path class="st0" d="M219.5,252.2v-1.6h4.1v0.9c0,1.8-0.7,3.4-1.9,4.6c-1.2,1.2-2.7,1.8-4.5,1.8c-1.8,0-3.3-0.6-4.5-1.8
		c-1.2-1.2-1.8-2.8-1.8-4.6s0.6-3.3,1.8-4.6c1.2-1.2,2.7-1.8,4.5-1.8c0.9,0,1.8,0.2,2.6,0.5c0.8,0.3,1.5,0.8,2.1,1.4l-1.3,1.3
		c-0.9-1.1-2.1-1.6-3.4-1.6c-1.3,0-2.4,0.5-3.3,1.4c-0.9,0.9-1.3,2.1-1.3,3.4s0.4,2.4,1.3,3.4c0.9,0.9,2,1.4,3.3,1.4
		c1.1,0,2.1-0.4,3-1.1c0.8-0.7,1.4-1.7,1.6-2.9H219.5z"/>
</g>
</svg>
