<svg id="Layer_1" data-name="Layer 1" xmlns="http://www.w3.org/2000/svg" viewBox="0 0 300 600"><defs><style>.cls-1{fill:#fff;}</style></defs><title>text</title><path class="cls-1" d="M204.65,59.2a2.74,2.74,0,0,1,2.94,3,2.58,2.58,0,0,1-1.2,2.28,2.64,2.64,0,0,1,1.52,2.5,2.89,2.89,0,0,1-3.2,3h-4.08V59.2h4ZM204.32,64a1.79,1.79,0,0,0,0-3.57h-2.14V64h2.16Zm0.1,4.86a1.86,1.86,0,1,0,0-3.72h-2.25v3.72h2.26Z"/><path class="cls-1" d="M213.82,59.05c2.6,0,4.23,1.66,4.23,5.55s-1.61,5.55-4.23,5.55-4.23-1.67-4.23-5.55S211.22,59.05,213.82,59.05Zm0,1.27c-1.59,0-2.62,1-2.62,4.27s1,4.28,2.62,4.28,2.63-1,2.63-4.28S215.42,60.33,213.82,60.33Z"/><path class="cls-1" d="M226,59.31a3.3,3.3,0,0,1,.76-0.11,4,4,0,0,1,.83.11l-3.41,4.92L228,69.89a3.12,3.12,0,0,1-.9.11,3.18,3.18,0,0,1-.88-0.11L222.88,65h-1.1v4.89A2,2,0,0,1,221,70a2.4,2.4,0,0,1-.76-0.11V59.31A2.34,2.34,0,0,1,221,59.2a2.14,2.14,0,0,1,.75.11v4.47h1.1Z"/><path class="cls-1" d="M233.08,59.2a3.24,3.24,0,0,1,.9.11l3.76,10.59a2.49,2.49,0,0,1-.83.11,2,2,0,0,1-.75-0.11l-0.93-2.64H230.8l-0.95,2.64a2.1,2.1,0,0,1-.74.11,1.9,1.9,0,0,1-.7-0.11l3.76-10.59A3.66,3.66,0,0,1,233.08,59.2ZM233,60.87s-0.13.6-.39,1.35L231.23,66h3.57l-1.37-3.79a12.14,12.14,0,0,1-.39-1.35h0Z"/><path class="cls-1" d="M248.32,59.2a1.74,1.74,0,0,1,.12.65,1.91,1.91,0,0,1-.12.67h-2.79v9.37a2.29,2.29,0,0,1-.76.11,2,2,0,0,1-.76-0.11V60.52h-2.87a1.68,1.68,0,0,1-.12-0.66,1.87,1.87,0,0,1,.12-0.66h7.18Z"/><path class="cls-1" d="M250.16,59.31a2.14,2.14,0,0,1,.75-0.11,2.23,2.23,0,0,1,.78.11V69.89a2.29,2.29,0,0,1-.76.11,2,2,0,0,1-.76-0.11V59.31Z"/><path class="cls-1" d="M257.69,59.2c2.78,0,4.41,1.42,4.41,5.4s-1.63,5.4-4.41,5.4h-3.33V59.2h3.33Zm-0.1,9.52c1.75,0,2.88-.75,2.88-4.12s-1.12-4.12-2.88-4.12h-1.7v8.25h1.7Z"/><path class="cls-1" d="M222.43,81.07a12.87,12.87,0,0,1-.88-1.94h-0.06s0.1,1,.1,2.52v6.24a1.85,1.85,0,0,1-.72.11,1.68,1.68,0,0,1-.69-0.11V77.31a3.17,3.17,0,0,1,.92-0.11,3,3,0,0,1,.9.11l3.73,6.76a17.82,17.82,0,0,1,.93,2h0s-0.11-1.11-.11-2.5V77.31a1.85,1.85,0,0,1,.72-0.11,1.6,1.6,0,0,1,.69.11V87.89a2.81,2.81,0,0,1-.88.11,3.16,3.16,0,0,1-.92-0.11Z"/><path class="cls-1" d="M238.16,84.34a3.78,3.78,0,1,1-7.56,0v-7a2.15,2.15,0,0,1,.75-0.11,2.19,2.19,0,0,1,.77.11v7.27a2.27,2.27,0,1,0,4.54,0V77.31a2,2,0,0,1,.73-0.11,2.3,2.3,0,0,1,.77.11v7Z"/><path class="cls-1" d="M240.62,77.31a2.23,2.23,0,0,1,.81-0.11,2.45,2.45,0,0,1,.81.11L242,85.12a1.1,1.1,0,0,1-.54.12,1.23,1.23,0,0,1-.57-0.12Zm1.58,10.59a2.19,2.19,0,0,1-.77.11,2,2,0,0,1-.76-0.11V86.48a2,2,0,0,1,.76-0.1,2.21,2.21,0,0,1,.77.1v1.41Z"/></svg>