<svg id="Layer_1" data-name="Layer 1" xmlns="http://www.w3.org/2000/svg" viewBox="0 0 300 600"><defs><style>.cls-1{fill:#01aadd;}</style></defs><title>text</title><path class="cls-1" d="M53.17,582.32a11.79,11.79,0,0,1-.46-2.45H52.64a10.87,10.87,0,0,1-.48,2.45l-1.34,4.61a3.28,3.28,0,0,1-1,.12,3.56,3.56,0,0,1-1-.12l-2.57-8.7a2.57,2.57,0,0,1,.85-0.12,1.35,1.35,0,0,1,.73.12l1.61,5.42a10.61,10.61,0,0,1,.36,1.67H49.9a14,14,0,0,1,.37-1.67l1.56-5.42a3.67,3.67,0,0,1,.92-0.12,2.28,2.28,0,0,1,.83.12l1.51,5.39a9.31,9.31,0,0,1,.34,1.7H55.5a15.84,15.84,0,0,1,.42-1.68l1.6-5.41a2,2,0,0,1,.75-0.12,1.6,1.6,0,0,1,.73.12l-2.57,8.7a3.53,3.53,0,0,1-1,.12,3.73,3.73,0,0,1-1-.12Z"/><path class="cls-1" d="M66.72,582.32a11.79,11.79,0,0,1-.46-2.45H66.19a10.87,10.87,0,0,1-.48,2.45l-1.34,4.61a3.28,3.28,0,0,1-1,.12,3.56,3.56,0,0,1-1-.12l-2.57-8.7a2.57,2.57,0,0,1,.85-0.12,1.35,1.35,0,0,1,.73.12L63,583.65a10.61,10.61,0,0,1,.36,1.67h0.05a14,14,0,0,1,.37-1.67l1.56-5.42a3.67,3.67,0,0,1,.92-0.12,2.28,2.28,0,0,1,.83.12l1.51,5.39a9.31,9.31,0,0,1,.34,1.7H69a15.84,15.84,0,0,1,.42-1.68l1.6-5.41a2,2,0,0,1,.75-0.12,1.6,1.6,0,0,1,.73.12L70,586.93a3.53,3.53,0,0,1-1,.12,3.73,3.73,0,0,1-1-.12Z"/><path class="cls-1" d="M80.27,582.32a11.79,11.79,0,0,1-.46-2.45H79.74a10.87,10.87,0,0,1-.48,2.45l-1.34,4.61a3.28,3.28,0,0,1-1,.12,3.56,3.56,0,0,1-1-.12l-2.57-8.7a2.57,2.57,0,0,1,.85-0.12,1.35,1.35,0,0,1,.73.12l1.61,5.42a10.61,10.61,0,0,1,.36,1.67H77a14,14,0,0,1,.37-1.67l1.56-5.42a3.67,3.67,0,0,1,.92-0.12,2.28,2.28,0,0,1,.83.12l1.51,5.39a9.31,9.31,0,0,1,.34,1.7H82.6a15.84,15.84,0,0,1,.42-1.68l1.6-5.41a2,2,0,0,1,.75-0.12,1.6,1.6,0,0,1,.73.12l-2.57,8.7a3.53,3.53,0,0,1-1,.12,3.73,3.73,0,0,1-1-.12Z"/><path class="cls-1" d="M88.78,586.93a2.66,2.66,0,0,1-.88.12,2.43,2.43,0,0,1-.88-0.12v-1.6a2.43,2.43,0,0,1,.88-0.12,2.66,2.66,0,0,1,.88.12v1.6Z"/><path class="cls-1" d="M94.22,577.94c2.46,0,3.25,1.11,3.25,3.3v5.69a1.33,1.33,0,0,1-.66.12,1.74,1.74,0,0,1-.68-0.12l-0.25-1.09a2.73,2.73,0,0,1-2.67,1.38c-1.6,0-2.63-.93-2.63-2.84s1.14-2.67,3.26-2.67a18.29,18.29,0,0,1,1.94.1v-0.63A1.54,1.54,0,0,0,94,579.37a7.08,7.08,0,0,0-2.28.42,1.35,1.35,0,0,1-.39-0.51,1.47,1.47,0,0,1-.1-0.71A7.37,7.37,0,0,1,94.22,577.94Zm-0.17,4.93c-1.14,0-1.73.44-1.73,1.51a1.32,1.32,0,0,0,1.48,1.53,2.07,2.07,0,0,0,2-2.35V583C95.38,582.94,94.7,582.87,94.05,582.87Z"/><path class="cls-1" d="M99.82,578.23a2.45,2.45,0,0,1,.85-0.12,2.34,2.34,0,0,1,.85.12v6.12a1.37,1.37,0,0,0,1.58,1.5,2.31,2.31,0,0,0,1.92-1.09v-6.53a2.57,2.57,0,0,1,.85-0.12,2.23,2.23,0,0,1,.85.12v8.7a2.21,2.21,0,0,1-.85.12,2.55,2.55,0,0,1-.85-0.12v-0.78a3.32,3.32,0,0,1-2.57,1.07,2.4,2.4,0,0,1-2.63-2.57v-6.43Z"/><path class="cls-1" d="M111.48,583.84c0,1.55.49,2,1.7,2a4.7,4.7,0,0,0,.71-0.07,2,2,0,0,1,.12.68,1.87,1.87,0,0,1-.08.61,4.89,4.89,0,0,1-1.22.15c-2.09,0-2.92-1.14-2.92-3.3v-4.54h-1.31a1.74,1.74,0,0,1-.1-0.63,1.68,1.68,0,0,1,.1-0.65h1.31v-1.55a2.89,2.89,0,0,1,1.7-.34v1.89h2.21a1.62,1.62,0,0,1,.1.63,1.89,1.89,0,0,1-.1.65h-2.21v4.45Z"/><path class="cls-1" d="M119,577.94c2.35,0,3.77,1.28,3.77,4.64s-1.44,4.64-3.77,4.64-3.77-1.27-3.77-4.64S116.7,577.94,119,577.94Zm0,1.31c-1.24,0-2,.71-2,3.33s0.8,3.33,2,3.33,2-.71,2-3.33S120.27,579.25,119,579.25Z"/><path class="cls-1" d="M127.7,577.94a4.83,4.83,0,0,1,2.4.46,1.73,1.73,0,0,1-.44,1.21,6.31,6.31,0,0,0-1.79-.27c-1.16,0-1.73.42-1.73,1.22s1.07,1,2.14,1.39,2.26,0.88,2.26,2.55-1.07,2.72-3.23,2.72a6.07,6.07,0,0,1-2.84-.61,1.73,1.73,0,0,1,.46-1.26,7.25,7.25,0,0,0,2.29.42c1,0,1.63-.39,1.63-1.22s-0.94-1.14-1.94-1.43c-1.16-.34-2.41-0.83-2.41-2.52S125.54,577.94,127.7,577.94Z"/><path class="cls-1" d="M133.83,583.11c0.14,2,1,2.67,2.36,2.67a4.12,4.12,0,0,0,2-.49,1.75,1.75,0,0,1,.54,1.22,5,5,0,0,1-2.82.71c-2.62,0-3.84-1.61-3.84-4.69s1.51-4.59,3.77-4.59a3.07,3.07,0,0,1,3.37,3.42,7.25,7.25,0,0,1-.19,1.75h-5.2Zm2-3.82c-1.1,0-1.89.73-2,2.62h3.64a5.88,5.88,0,0,0,.05-0.76A1.59,1.59,0,0,0,135.86,579.28Z"/><path class="cls-1" d="M145,578a2.67,2.67,0,0,1,1.48.42,1.92,1.92,0,0,1-.75,1.43,1.71,1.71,0,0,0-1.05-.36,2.2,2.2,0,0,0-1.75,1.29v6.19a2.43,2.43,0,0,1-.85.12,2.21,2.21,0,0,1-.85-0.12v-8.7a2.23,2.23,0,0,1,.85-0.12,2.45,2.45,0,0,1,.85.12v1.17A2.48,2.48,0,0,1,145,578Z"/><path class="cls-1" d="M150.6,583.58a13.88,13.88,0,0,1,.48,1.82h0.07s0.2-.83.53-1.82l1.85-5.35a2.08,2.08,0,0,1,.77-0.12,2.18,2.18,0,0,1,.8.12l-3,8.7a4.16,4.16,0,0,1-1,.12,3.83,3.83,0,0,1-1-.12l-3.06-8.7a2.81,2.81,0,0,1,.88-0.12,2.56,2.56,0,0,1,.88.12Z"/><path class="cls-1" d="M158.45,576.39a2.68,2.68,0,0,1-.88.12,2.45,2.45,0,0,1-.88-0.12v-1.6a2.43,2.43,0,0,1,.88-0.12,2.66,2.66,0,0,1,.88.12v1.6Zm0,10.54a2.43,2.43,0,0,1-.85.12,2.21,2.21,0,0,1-.85-0.12v-8.7a2.23,2.23,0,0,1,.85-0.12,2.45,2.45,0,0,1,.85.12v8.7Z"/><path class="cls-1" d="M162.29,582.58c0,2.23.71,3.2,2.35,3.2a4.37,4.37,0,0,0,1.6-.29,1.79,1.79,0,0,1,.49,1.22,4.62,4.62,0,0,1-2.45.51c-2.48,0-3.74-1.61-3.74-4.64s1.26-4.64,3.74-4.64a4.46,4.46,0,0,1,2.28.43,1.74,1.74,0,0,1-.49,1.22,4.14,4.14,0,0,0-1.5-.25C162.94,579.33,162.29,580.37,162.29,582.58Z"/><path class="cls-1" d="M169.89,583.11c0.14,2,1,2.67,2.36,2.67a4.12,4.12,0,0,0,2-.49,1.75,1.75,0,0,1,.54,1.22,5,5,0,0,1-2.82.71c-2.62,0-3.84-1.61-3.84-4.69s1.51-4.59,3.77-4.59a3.07,3.07,0,0,1,3.37,3.42,7.25,7.25,0,0,1-.19,1.75h-5.2Zm2-3.82c-1.1,0-1.89.73-2,2.62h3.64a5.88,5.88,0,0,0,.05-0.76A1.59,1.59,0,0,0,171.91,579.28Z"/><path class="cls-1" d="M179,579a2.72,2.72,0,0,1,2.45-1.11c1.94,0,3.2,1.17,3.2,4.64s-1.26,4.64-3.2,4.64a2.72,2.72,0,0,1-2.45-1.1v0.82a2.49,2.49,0,0,1-.87.12,2.27,2.27,0,0,1-.83-0.12V574.42a2.28,2.28,0,0,1,.83-0.12,2.51,2.51,0,0,1,.87.12V579Zm1.85,0.29a1.92,1.92,0,0,0-1.85,2.14v2.18a1.94,1.94,0,0,0,1.85,2.18c1.36,0,2-.71,2-3.25S182.18,579.33,180.82,579.33Z"/><path class="cls-1" d="M190.1,577.94c2.35,0,3.77,1.28,3.77,4.64s-1.44,4.64-3.77,4.64-3.77-1.27-3.77-4.64S187.77,577.94,190.1,577.94Zm0,1.31c-1.24,0-2,.71-2,3.33s0.8,3.33,2,3.33,2-.71,2-3.33S191.34,579.25,190.1,579.25Z"/><path class="cls-1" d="M198.11,583.84c0,1.55.49,2,1.7,2a4.7,4.7,0,0,0,.71-0.07,2,2,0,0,1,.12.68,1.87,1.87,0,0,1-.08.61,4.89,4.89,0,0,1-1.22.15c-2.09,0-2.92-1.14-2.92-3.3v-4.54H195.1a1.73,1.73,0,0,1-.1-0.63,1.67,1.67,0,0,1,.1-0.65h1.31v-1.55a2.89,2.89,0,0,1,1.7-.34v1.89h2.21a1.62,1.62,0,0,1,.1.63,1.89,1.89,0,0,1-.1.65h-2.21v4.45Z"/><path class="cls-1" d="M207.25,578.23a2.89,2.89,0,0,1,.87-0.12,3.36,3.36,0,0,1,.83.1l-2.62,4.06,3,4.66a3,3,0,0,1-1,.14,2.68,2.68,0,0,1-.92-0.14L204.93,583h-1v3.91a2.76,2.76,0,0,1-.83.12,2.74,2.74,0,0,1-.87-0.12V574.39a3.94,3.94,0,0,1,.87-0.08,4.19,4.19,0,0,1,.83.08v7.36h1Z"/><path class="cls-1" d="M214.84,588.36c-0.61,1.87-1.21,2.94-3,2.94a2.46,2.46,0,0,1-.93-0.17,2,2,0,0,1-.12-0.63,1.63,1.63,0,0,1,.14-0.68,4.84,4.84,0,0,0,.77.07c0.76,0,1.16-.2,1.67-1.8l0.36-1a1.64,1.64,0,0,1-.54-0.12l-3.23-8.7a2.81,2.81,0,0,1,.88-0.12,2.68,2.68,0,0,1,.88.12l1.94,5.17a16.13,16.13,0,0,1,.6,2h0.07s0.17-.8.54-2l1.68-5.18a2.28,2.28,0,0,1,.83-0.12,2.42,2.42,0,0,1,.8.12Z"/><path class="cls-1" d="M223.51,578a2.67,2.67,0,0,1,1.48.42,1.92,1.92,0,0,1-.75,1.43,1.71,1.71,0,0,0-1.05-.36,2.2,2.2,0,0,0-1.75,1.29v6.19a2.43,2.43,0,0,1-.85.12,2.21,2.21,0,0,1-.85-0.12v-8.7a2.23,2.23,0,0,1,.85-0.12,2.45,2.45,0,0,1,.85.12v1.17A2.48,2.48,0,0,1,223.51,578Z"/><path class="cls-1" d="M229.41,577.94c2.46,0,3.25,1.11,3.25,3.3v5.69a1.33,1.33,0,0,1-.66.12,1.74,1.74,0,0,1-.68-0.12l-0.25-1.09a2.73,2.73,0,0,1-2.67,1.38c-1.6,0-2.63-.93-2.63-2.84s1.14-2.67,3.26-2.67a18.29,18.29,0,0,1,1.94.1v-0.63a1.54,1.54,0,0,0-1.75-1.82,7.08,7.08,0,0,0-2.28.42,1.35,1.35,0,0,1-.39-0.51,1.47,1.47,0,0,1-.1-0.71A7.37,7.37,0,0,1,229.41,577.94Zm-0.17,4.93c-1.14,0-1.73.44-1.73,1.51a1.32,1.32,0,0,0,1.48,1.53,2.07,2.07,0,0,0,2-2.35V583C230.56,582.94,229.88,582.87,229.24,582.87Z"/><path class="cls-1" d="M236.7,586.93a2.66,2.66,0,0,1-.88.12,2.43,2.43,0,0,1-.88-0.12v-1.6a2.43,2.43,0,0,1,.88-0.12,2.66,2.66,0,0,1,.88.12v1.6Z"/><path class="cls-1" d="M241.85,577.94a4.83,4.83,0,0,1,2.4.46,1.73,1.73,0,0,1-.44,1.21,6.31,6.31,0,0,0-1.78-.27c-1.16,0-1.73.42-1.73,1.22s1.07,1,2.14,1.39,2.26,0.88,2.26,2.55-1.07,2.72-3.23,2.72a6.07,6.07,0,0,1-2.84-.61,1.73,1.73,0,0,1,.46-1.26,7.25,7.25,0,0,0,2.29.42c1,0,1.63-.39,1.63-1.22s-0.94-1.14-1.94-1.43c-1.16-.34-2.41-0.83-2.41-2.52S239.69,577.94,241.85,577.94Z"/><path class="cls-1" d="M248,583.11c0.14,2,1,2.67,2.36,2.67a4.12,4.12,0,0,0,2-.49,1.75,1.75,0,0,1,.54,1.22,5,5,0,0,1-2.82.71c-2.62,0-3.84-1.61-3.84-4.69s1.51-4.59,3.77-4.59a3.07,3.07,0,0,1,3.37,3.42,7.25,7.25,0,0,1-.19,1.75H248Zm2-3.82c-1.1,0-1.89.73-2,2.62h3.64a5.88,5.88,0,0,0,.05-0.76A1.59,1.59,0,0,0,250,579.28Z"/></svg>