<?xml version="1.0" encoding="utf-8"?>
<!-- Generator: Adobe Illustrator 19.1.1, SVG Export Plug-In . SVG Version: 6.00 Build 0)  -->
<svg version="1.1" id="Layer_1" xmlns="http://www.w3.org/2000/svg" xmlns:xlink="http://www.w3.org/1999/xlink" x="0px" y="0px"
	 viewBox="0 0 300 600" style="enable-background:new 0 0 300 600;" xml:space="preserve">
<style type="text/css">
	.st0{fill:#D4AC76;}
</style>
<g>
	<path class="st0" d="M94.6,94.2V59.4h9.9c4.8,0,8.9,1.7,12.3,5c3.4,3.3,5.1,7.5,5.1,12.5s-1.7,9.2-5.2,12.4
		c-3.5,3.2-7.7,4.9-12.6,4.9H94.6z M104.6,65.2h-4v23.2h4c3.1,0,5.6-1.1,7.7-3.4c2.1-2.2,3.1-5,3.1-8.3c0-3.3-1-6-3.1-8.2
		C110.2,66.3,107.7,65.2,104.6,65.2z"/>
	<path class="st0" d="M132.2,94.2V59.4h6.5v34.8H132.2z"/>
	<path class="st0" d="M147.1,65.6v-6.3h28.7v6.3h-11.1v28.5h-6.5V65.6H147.1z"/>
	<path class="st0" d="M181.9,65.6v-6.3h28.7v6.3h-11.1v28.5H193V65.6H181.9z"/>
	<path class="st0" d="M100.2,142.2v-34.8h6.5v28.5h12.8v6.3H100.2z"/>
	<path class="st0" d="M128.9,142.2v-34.8h6.5v34.8H128.9z"/>
	<path class="st0" d="M156.9,142.2l-13.3-34.8h6.8l9.6,25l9.4-25h6.6l-13.2,34.8H156.9z"/>
	<path class="st0" d="M192.1,142.6c-2.2,0-4.4-0.5-6.6-1.4c-2.2-0.9-4-2.2-5.6-3.8l4.1-5c1,1.3,2.3,2.3,3.8,3.1
		c1.5,0.8,3.1,1.2,4.6,1.2c1.5,0,2.7-0.4,3.7-1.2s1.4-1.8,1.4-3c0-2.2-1.3-3.8-3.8-4.8l-3.9-1.6c-2.6-1.1-4.5-2.4-5.8-3.8
		c-1.2-1.5-1.9-3.4-1.9-5.9c0-2.5,1-4.7,3-6.6s4.4-2.9,7.4-2.9c4.3,0,7.9,1.3,10.7,4l-3.8,4.9c-1.9-2-4.1-3-6.9-3
		c-1.3,0-2.3,0.3-3.1,1c-0.8,0.7-1.2,1.5-1.2,2.5c0,1,0.3,1.8,0.9,2.4c0.6,0.6,1.6,1.2,3,1.8l4.1,1.6c5.2,2.1,7.8,5.4,7.9,10
		c0,3.1-1.1,5.7-3.3,7.6C198.7,141.7,195.7,142.6,192.1,142.6z"/>
	<path class="st0" d="M96.2,190.2l-13.3-34.8h6.8l9.6,25l9.4-25h6.6l-13.2,34.8H96.2z"/>
	<path class="st0" d="M142.9,175.5h-12.9v8.9h14.1v5.8h-20.7v-34.8h20.3v5.8h-13.7v8.5h12.9V175.5z"/>
	<path class="st0" d="M154.8,190.2v-34.8h13.6c3.4,0,6.1,1.1,8.4,3.2c2.2,2.1,3.3,4.9,3.3,8.3c0,2.8-0.8,5.1-2.5,7s-3.8,3.2-6.5,3.7
		l9.3,12.6h-7.3l-9-12.4h-2.8v12.4H154.8z M167.4,161.2h-6.1v11.3h6.1c1.9,0,3.4-0.5,4.5-1.5c1.1-1,1.7-2.4,1.7-4s-0.6-3-1.7-4.1
		C170.7,161.8,169.2,161.2,167.4,161.2z"/>
	<path class="st0" d="M190.3,190.2v-34.8h6v15.3l13.3-15.3h8.1l-12.3,13.9l12.5,20.9h-7.5l-9.5-15.9l-4.7,5.3v10.6H190.3z"/>
</g>
</svg>
