<svg id="Layer_1" data-name="Layer 1" xmlns="http://www.w3.org/2000/svg" viewBox="0 0 300 600"><defs><style>.cls-1{fill:#fff;}</style></defs><title>text</title><path class="cls-1" d="M122.3,324.66V327H108.5V305.67H122V308H111.17v6.78h8.6V317h-8.6v7.69Z"/><path class="cls-1" d="M128.27,327h-2.46V311.22H128v3.69a7.94,7.94,0,0,1,2.29-3.39,4.19,4.19,0,0,1,2.35-.77c.25,0,.57,0,1,.06v2.35h-.5a4.32,4.32,0,0,0-3.38,1.51,6.17,6.17,0,0,0-1.43,4Z"/><path class="cls-1" d="M156.69,305.67V327h-2.22v-2.7a5.35,5.35,0,0,1-5,3.14,5.53,5.53,0,0,1-4.56-2.32,9.43,9.43,0,0,1-1.78-5.88,9.94,9.94,0,0,1,1.77-6,5.52,5.52,0,0,1,4.68-2.42,5.42,5.42,0,0,1,4.64,2.6v-7.71Zm-2.46,11.64A4.5,4.5,0,0,0,153,314a4.08,4.08,0,0,0-2.95-1.25,3.58,3.58,0,0,0-3,1.63,7.61,7.61,0,0,0-1.18,4.56,8.86,8.86,0,0,0,1.08,4.83,3.41,3.41,0,0,0,3,1.66,4,4,0,0,0,3-1.44,4.82,4.82,0,0,0,1.31-3.38Z"/><path class="cls-1" d="M164.13,305.67v2.74h-2.65v-2.74Zm-.08,5.55V327h-2.46V311.22Z"/><path class="cls-1" d="M176.09,325.33v1.94a18.14,18.14,0,0,1-2.25.17q-4.58,0-4.57-4.79v-9.51h-2.8v-1.92h2.8l.11-4,2.28-.22v4.19h3.53v1.92h-3.53v9.92c0,1.63.84,2.44,2.53,2.44A12.47,12.47,0,0,0,176.09,325.33Z"/><path class="cls-1" d="M185.94,325.33v1.94a18.42,18.42,0,0,1-2.25.17q-4.58,0-4.58-4.79v-9.51h-2.8v-1.92h2.8l.11-4,2.28-.22v4.19H185v1.92H181.5v9.92c0,1.63.84,2.44,2.53,2.44A12.7,12.7,0,0,0,185.94,325.33Z"/><path class="cls-1" d="M111.57,344.07V365.4h-2.22v-2.7a5.34,5.34,0,0,1-5,3.14,5.5,5.5,0,0,1-4.55-2.33A9.33,9.33,0,0,1,98,357.64a9.94,9.94,0,0,1,1.77-6,5.54,5.54,0,0,1,4.69-2.42,5.46,5.46,0,0,1,4.64,2.59v-7.7Zm-2.45,11.64a4.47,4.47,0,0,0-1.27-3.33,4.08,4.08,0,0,0-2.95-1.25,3.6,3.6,0,0,0-3,1.63,7.61,7.61,0,0,0-1.18,4.56,8.77,8.77,0,0,0,1.09,4.83,3.38,3.38,0,0,0,3,1.66,4,4,0,0,0,3-1.44,4.83,4.83,0,0,0,1.32-3.38Z"/><path class="cls-1" d="M119,344.07v2.74h-2.64v-2.74Zm-.08,5.55V365.4h-2.45V349.62Z"/><path class="cls-1" d="M136.71,347.15v2a4.44,4.44,0,0,0-2.26.39,2,2,0,0,0-.75,1.41,5.71,5.71,0,0,1,1.51,3.81,4.92,4.92,0,0,1-1.65,3.71,6.21,6.21,0,0,1-4.43,1.54,5.74,5.74,0,0,1-1.08-.09,7,7,0,0,0-1.07-.17,1.87,1.87,0,0,0-1,.41,1.24,1.24,0,0,0-.59,1.07,1.16,1.16,0,0,0,.86,1.22,18.27,18.27,0,0,0,4,.36,22.07,22.07,0,0,1,4,.37,4.07,4.07,0,0,1,2.18,1.28,3.52,3.52,0,0,1,.89,2.43q0,4.52-7.94,4.51a10.32,10.32,0,0,1-5.49-1.13,3.47,3.47,0,0,1-1.73-3,3.18,3.18,0,0,1,2.41-3.16,3,3,0,0,1-1.55-2.54c0-1.22.73-2.15,2.19-2.8a5.12,5.12,0,0,1-2-4.17,4.82,4.82,0,0,1,1.75-3.84,6.34,6.34,0,0,1,4.27-1.5,7.74,7.74,0,0,1,3.23.67,3,3,0,0,1,1.09-2.14,4.58,4.58,0,0,1,2.58-.59Zm-10.44,17.61a2.38,2.38,0,0,0-1.72,2.17A2.07,2.07,0,0,0,126,368.8a8.51,8.51,0,0,0,3.6.66,11.61,11.61,0,0,0,3.72-.57c1.12-.38,1.69-1,1.69-1.93a1.58,1.58,0,0,0-.5-1.2,2.47,2.47,0,0,0-1.37-.59,28.28,28.28,0,0,0-3-.19C128.37,364.94,127.1,364.86,126.27,364.76Zm2.94-6.67a3.51,3.51,0,0,0,2.55-1,3.35,3.35,0,0,0,1-2.5,3.4,3.4,0,0,0-1-2.55,3.43,3.43,0,0,0-2.48-1,3.67,3.67,0,0,0-2.47.93,3.74,3.74,0,0,0-.11,5.12A3.51,3.51,0,0,0,129.21,358.09Z"/><path class="cls-1" d="M142.07,344.07v2.74h-2.64v-2.74Zm-.08,5.55V365.4h-2.45V349.62Z"/><path class="cls-1" d="M154,363.73v1.94a18.42,18.42,0,0,1-2.25.17q-4.57,0-4.58-4.79v-9.51h-2.8v-1.92h2.8l.11-4,2.28-.22v4.19h3.53v1.92H149.6v9.92c0,1.63.85,2.44,2.53,2.44A12.59,12.59,0,0,0,154,363.73Z"/><path class="cls-1" d="M169.07,365.4h-2.42a26.42,26.42,0,0,1-.28-2.84,5.7,5.7,0,0,1-5.53,3.28,5.54,5.54,0,0,1-4.08-1.41,4.59,4.59,0,0,1-1.42-3.38,4.73,4.73,0,0,1,2-3.94q2-1.55,6.9-1.54.66,0,2.1.06a9.17,9.17,0,0,0-.29-2.71,2.4,2.4,0,0,0-1.23-1.33,5.16,5.16,0,0,0-2.47-.5c-2.49,0-3.93,1-4.34,2.84l-2.27-.39q.84-4.37,7-4.36c2.18,0,3.72.48,4.64,1.45s1.36,2.63,1.36,5v6.71A13.29,13.29,0,0,0,169.07,365.4Zm-2.7-7.89q-1.5-.09-2.28-.09a8.87,8.87,0,0,0-4.52.95,3.07,3.07,0,0,0-1.61,2.79,2.6,2.6,0,0,0,.87,2,3.54,3.54,0,0,0,2.51.82,4.64,4.64,0,0,0,3.64-1.62,5.49,5.49,0,0,0,1.43-3.79C166.41,358.25,166.4,357.91,166.37,357.51Z"/><path class="cls-1" d="M176.1,365.4h-2.45V344.07h2.45Z"/><path class="cls-1" d="M191.43,360.7l2.28.47a6.44,6.44,0,0,1-2.44,3.34,7,7,0,0,1-4.26,1.33,6.65,6.65,0,0,1-5.24-2.28,8.72,8.72,0,0,1-2-6,8.82,8.82,0,0,1,2.08-6.09,6.75,6.75,0,0,1,5.22-2.32,6.31,6.31,0,0,1,5,2.14c1.25,1.43,1.9,3.56,1.93,6.41H182.51q0,3.57,1.5,4.83a4.89,4.89,0,0,0,3.17,1.25A4.34,4.34,0,0,0,191.43,360.7Zm-.14-4.8a6.84,6.84,0,0,0-.44-2.36,4.07,4.07,0,0,0-1.37-1.76,3.82,3.82,0,0,0-2.33-.72,4.13,4.13,0,0,0-3.1,1.31,5.39,5.39,0,0,0-1.43,3.53Z"/><path class="cls-1" d="M81.47,404.24a6,6,0,0,1-5.07-2.41,9.6,9.6,0,0,1-1.82-6,8.58,8.58,0,0,1,2-6,6.59,6.59,0,0,1,5.09-2.25A6.23,6.23,0,0,1,86.87,390a9.24,9.24,0,0,1,1.88,5.92,8.89,8.89,0,0,1-2,6A6.65,6.65,0,0,1,81.47,404.24Zm.19-2a3.92,3.92,0,0,0,3.14-1.55,7.56,7.56,0,0,0,1.26-4.81q0-3.28-1.33-4.76a4,4,0,0,0-3.1-1.48,3.94,3.94,0,0,0-3.1,1.49,7.27,7.27,0,0,0-1.26,4.73c0,2.28.42,3.92,1.26,4.9A4,4,0,0,0,81.66,402.21Z"/><path class="cls-1" d="M113.58,403.8h-2.39V394a9.23,9.23,0,0,0-.21-2.28,2.8,2.8,0,0,0-1-1.39,2.9,2.9,0,0,0-1.82-.63,3.87,3.87,0,0,0-2.72,1.29,5.31,5.31,0,0,0-1.3,3.93v8.89h-2.38V393.41a3.72,3.72,0,0,0-1-2.94,3.15,3.15,0,0,0-2.08-.86A3.47,3.47,0,0,0,95.94,391a5,5,0,0,0-1.16,3.4v9.44H92.44V388h2.11v3q1.76-3.46,4.86-3.47a4.1,4.1,0,0,1,2.89,1.11,5.09,5.09,0,0,1,1.53,2.67q1.62-3.78,5-3.78a4.52,4.52,0,0,1,2.82.92,4.22,4.22,0,0,1,1.58,2.12,11.83,11.83,0,0,1,.37,3.37Z"/><path class="cls-1" d="M130.81,382.47V403.8h-2.22v-2.7a5.34,5.34,0,0,1-5,3.14,5.53,5.53,0,0,1-4.55-2.32,9.37,9.37,0,0,1-1.78-5.88,9.93,9.93,0,0,1,1.76-6,5.54,5.54,0,0,1,4.69-2.42,5.46,5.46,0,0,1,4.64,2.59v-7.7Zm-2.45,11.64a4.47,4.47,0,0,0-1.27-3.33,4.06,4.06,0,0,0-3-1.25,3.6,3.6,0,0,0-3,1.63,7.68,7.68,0,0,0-1.18,4.56,8.77,8.77,0,0,0,1.09,4.83,3.39,3.39,0,0,0,3,1.66,4,4,0,0,0,3-1.44,4.86,4.86,0,0,0,1.31-3.38Z"/><path class="cls-1" d="M136.14,401.59a9.65,9.65,0,0,1-1.66-5.75,8.63,8.63,0,0,1,2.05-6,6.91,6.91,0,0,1,9.13-1l1.4-1.88h2.19l-2.35,3.12a9.31,9.31,0,0,1,1.76,5.76,8.89,8.89,0,0,1-2,6,6.62,6.62,0,0,1-5.26,2.34,6,6,0,0,1-4.06-1.37l-1.35,1.8h-2.13Zm1.6-2.14,6.54-8.74a4,4,0,0,0-2.75-1.1,3.94,3.94,0,0,0-3.09,1.49,7.32,7.32,0,0,0-1.27,4.77A9.92,9.92,0,0,0,137.74,399.45Zm7.6-7.26L138.7,401a4,4,0,0,0,2.87,1.18,3.89,3.89,0,0,0,3.13-1.55,7.5,7.5,0,0,0,1.27-4.81A8.92,8.92,0,0,0,145.34,392.19Z"/><path class="cls-1" d="M173.48,403.8h-2.39V394a9.23,9.23,0,0,0-.21-2.28,2.78,2.78,0,0,0-1-1.39,2.9,2.9,0,0,0-1.83-.63,3.85,3.85,0,0,0-2.71,1.29,5.31,5.31,0,0,0-1.3,3.93v8.89h-2.38V393.41a3.72,3.72,0,0,0-1-2.94,3.17,3.17,0,0,0-2.09-.86,3.49,3.49,0,0,0-2.72,1.35,5,5,0,0,0-1.15,3.4v9.44h-2.35V388h2.11v3q1.77-3.46,4.86-3.47a4.07,4.07,0,0,1,2.89,1.11,5.09,5.09,0,0,1,1.53,2.67q1.64-3.78,5-3.78a4.56,4.56,0,0,1,2.82.92,4.28,4.28,0,0,1,1.58,2.12,12.27,12.27,0,0,1,.36,3.37Z"/><path class="cls-1" d="M199.53,403.8h-2.39V394a9.23,9.23,0,0,0-.21-2.28,2.78,2.78,0,0,0-1-1.39,2.94,2.94,0,0,0-1.83-.63,3.85,3.85,0,0,0-2.71,1.29,5.31,5.31,0,0,0-1.31,3.93v8.89h-2.37V393.41a3.72,3.72,0,0,0-1-2.94,3.19,3.19,0,0,0-2.09-.86,3.49,3.49,0,0,0-2.72,1.35,5,5,0,0,0-1.16,3.4v9.44h-2.34V388h2.11v3q1.77-3.46,4.86-3.47a4.08,4.08,0,0,1,2.89,1.11,5.09,5.09,0,0,1,1.53,2.67c1.08-2.52,2.75-3.78,5-3.78a4.56,4.56,0,0,1,2.82.92,4.26,4.26,0,0,1,1.57,2.12,11.83,11.83,0,0,1,.37,3.37Z"/><path class="cls-1" d="M214.86,399.1l2.28.47a6.44,6.44,0,0,1-2.44,3.34,7,7,0,0,1-4.26,1.33A6.65,6.65,0,0,1,205.2,402a8.71,8.71,0,0,1-2-6,8.83,8.83,0,0,1,2.08-6.1,6.75,6.75,0,0,1,5.22-2.32,6.31,6.31,0,0,1,5,2.14c1.25,1.43,1.9,3.56,1.93,6.41H205.94q0,3.57,1.5,4.83a4.89,4.89,0,0,0,3.17,1.25A4.34,4.34,0,0,0,214.86,399.1Zm-.14-4.8a6.84,6.84,0,0,0-.44-2.36,4.07,4.07,0,0,0-1.37-1.76,3.82,3.82,0,0,0-2.33-.72,4.13,4.13,0,0,0-3.1,1.31,5.39,5.39,0,0,0-1.43,3.53Z"/><path class="cls-1" d="M91,420.87v2.74H88.33v-2.74Zm-.08,5.55V442.2H88.44V426.42Z"/><path class="cls-1" d="M107.34,426.42l-5.45,15.78H99.36L93.7,426.42h2.72l4.4,12.83,4.34-12.83Z"/><path class="cls-1" d="M122.22,442.2H119.8a26.42,26.42,0,0,1-.28-2.84,5.71,5.71,0,0,1-5.54,3.28,5.52,5.52,0,0,1-4.07-1.41,4.6,4.6,0,0,1-1.43-3.38,4.74,4.74,0,0,1,2-3.94q2-1.55,6.9-1.54.66,0,2.1.06a9.17,9.17,0,0,0-.29-2.71,2.43,2.43,0,0,0-1.23-1.33,5.16,5.16,0,0,0-2.47-.5c-2.49,0-3.94.94-4.34,2.84l-2.27-.39c.55-2.91,2.88-4.36,7-4.36q3.27,0,4.63,1.45t1.37,5v6.71A13.29,13.29,0,0,0,122.22,442.2Zm-2.7-7.89c-1-.06-1.77-.1-2.29-.1a8.84,8.84,0,0,0-4.51,1,3.07,3.07,0,0,0-1.61,2.79,2.6,2.6,0,0,0,.87,2,3.52,3.52,0,0,0,2.5.82,4.65,4.65,0,0,0,3.65-1.62,5.49,5.49,0,0,0,1.43-3.79C119.56,435.05,119.55,434.71,119.52,434.31Z"/><path class="cls-1" d="M129.25,442.2H126.8V426.42H129v3.69a8,8,0,0,1,2.29-3.39,4.21,4.21,0,0,1,2.35-.77c.25,0,.58,0,1,.06v2.35h-.5a4.3,4.3,0,0,0-3.37,1.51,6.13,6.13,0,0,0-1.44,4Z"/><path class="cls-1" d="M147.77,437.5l2.28.46a6.43,6.43,0,0,1-2.44,3.35,7,7,0,0,1-4.27,1.33,6.63,6.63,0,0,1-5.23-2.28,9.93,9.93,0,0,1,.08-12.06,6.69,6.69,0,0,1,5.22-2.32,6.28,6.28,0,0,1,5,2.14c1.26,1.43,1.9,3.56,1.93,6.41H138.84q0,3.57,1.5,4.83a4.91,4.91,0,0,0,3.18,1.25A4.34,4.34,0,0,0,147.77,437.5Zm-.14-4.8a7.08,7.08,0,0,0-.44-2.36,4,4,0,0,0-1.38-1.76,3.78,3.78,0,0,0-2.33-.72,4.15,4.15,0,0,0-3.1,1.31A5.44,5.44,0,0,0,139,432.7Z"/><path class="cls-1" d="M161,440.53v1.93a16.56,16.56,0,0,1-2.25.18q-4.58,0-4.58-4.79v-9.51h-2.79v-1.92h2.79l.11-4,2.28-.22v4.19h3.53v1.92h-3.53v9.92c0,1.63.85,2.44,2.53,2.44A12.59,12.59,0,0,0,161,440.53Z"/><path class="cls-1" d="M176,442.2h-2.42c-.09-.5-.19-1.45-.28-2.84a5.7,5.7,0,0,1-5.53,3.28,5.56,5.56,0,0,1-4.08-1.41,4.59,4.59,0,0,1-1.42-3.38,4.73,4.73,0,0,1,2-3.94q2-1.55,6.9-1.54.66,0,2.1.06a9.17,9.17,0,0,0-.29-2.71,2.4,2.4,0,0,0-1.23-1.33,5.16,5.16,0,0,0-2.47-.5c-2.49,0-3.93.94-4.34,2.84l-2.27-.39q.84-4.36,7-4.36c2.18,0,3.72.48,4.64,1.45s1.36,2.63,1.36,5v6.71A13.29,13.29,0,0,0,176,442.2Zm-2.7-7.89c-1-.06-1.76-.1-2.28-.1a8.86,8.86,0,0,0-4.52,1,3.07,3.07,0,0,0-1.61,2.79,2.6,2.6,0,0,0,.87,2,3.54,3.54,0,0,0,2.51.82,4.66,4.66,0,0,0,3.65-1.62,5.54,5.54,0,0,0,1.43-3.79C173.38,435.05,173.36,434.71,173.33,434.31Z"/><path class="cls-1" d="M187.77,440.53v1.93a16.81,16.81,0,0,1-2.25.18c-3.06,0-4.58-1.6-4.58-4.79v-9.51h-2.8v-1.92h2.8l.11-4,2.28-.22v4.19h3.53v1.92h-3.53v9.92c0,1.63.84,2.44,2.53,2.44A12.7,12.7,0,0,0,187.77,440.53Z"/><path class="cls-1" d="M197.61,440.53v1.93a16.81,16.81,0,0,1-2.25.18q-4.58,0-4.58-4.79v-9.51H188v-1.92h2.8l.11-4,2.28-.22v4.19h3.53v1.92h-3.53v9.92c0,1.63.85,2.44,2.53,2.44A12.59,12.59,0,0,0,197.61,440.53Z"/><path class="cls-1" d="M206.23,436.89H204c0-1.63,0-2.64.07-3a3.74,3.74,0,0,1,.34-1.21,3.14,3.14,0,0,1,.63-.93,9.72,9.72,0,0,1,1.67-1.07,14,14,0,0,0,2-1.25,3.7,3.7,0,0,0,.94-1.23,3.85,3.85,0,0,0,.39-1.73,3.37,3.37,0,0,0-1.28-2.79,4.77,4.77,0,0,0-3-1c-2.65,0-4.26,1.54-4.85,4.61l-2.33-.5q1.19-6.3,7.3-6.3a7.32,7.32,0,0,1,5.05,1.71,5.64,5.64,0,0,1,1.92,4.39c0,2.32-1.33,4.18-4,5.56a7.29,7.29,0,0,0-2.14,1.45,2.72,2.72,0,0,0-.39,1.63Zm.54,2.23v3.08h-3.16v-3.08Z"/></svg>