<svg id="Layer_1" data-name="Layer 1" xmlns="http://www.w3.org/2000/svg" viewBox="0 0 160 600"><defs><style>.cls-1{fill:#d80201;}</style></defs><title>text</title><path class="cls-1" d="M50.46,273.78a7.09,7.09,0,0,1-7.27,5.66,7.74,7.74,0,0,1-8-8,7.87,7.87,0,0,1,8.14-8A7.34,7.34,0,0,1,49.86,267l-2.6,1.41a4.51,4.51,0,0,0-4-2.28,5.3,5.3,0,0,0,0,10.58,3.79,3.79,0,0,0,4-3.27H43.65v-2.57h7v.37A13.2,13.2,0,0,1,50.46,273.78Z"/><path class="cls-1" d="M53,279.1V261.87H55.8V279.1Z"/><path class="cls-1" d="M63.64,279.42c-3.18,0-5.7-2-5.7-5.29s2.52-5.31,5.72-5.31,5.66,2,5.66,5.29S66.79,279.42,63.64,279.42Zm-2.42-12.14a1.66,1.66,0,0,1,0-3.31,1.66,1.66,0,1,1,0,3.31Zm2.39,4a2.8,2.8,0,1,0,2.83,2.81A2.82,2.82,0,0,0,63.61,271.32Zm2.4-4a1.68,1.68,0,0,1-1.66-1.66A1.66,1.66,0,1,1,66,267.28Z"/><path class="cls-1" d="M84.17,279.1v-5.45c0-1.18-.18-2.46-1.65-2.46-1.63,0-1.91,1.49-1.91,2.8v5.11H77.83v-5.29a4.39,4.39,0,0,0-.21-1.66,1.6,1.6,0,0,0-1.49-1,1.83,1.83,0,0,0-1.57.89,4.12,4.12,0,0,0-.32,1.91v5.11H71.46v-10h2.78v1.13a3.81,3.81,0,0,1,3-1.45,3.38,3.38,0,0,1,3.1,1.81,3.69,3.69,0,0,1,3.27-1.81,3.28,3.28,0,0,1,2.78,1.42,4.41,4.41,0,0,1,.53,2.42v6.44Z"/><path class="cls-1" d="M92.43,271.53v7.57H89.65v-7.57h-1.1v-2.39h1.1v-3.4h2.78v3.4h2v2.39Z"/><path class="cls-1" d="M109.2,279.1v-1.31a3.85,3.85,0,0,1-3.24,1.63c-3,0-4.9-2.48-4.9-5.34a5,5,0,0,1,4.83-5.26,4.16,4.16,0,0,1,3.31,1.58v-1.26H112v10Zm-2.48-7.78a2.8,2.8,0,1,0,2.78,2.79A2.79,2.79,0,0,0,106.72,271.32Z"/><path class="cls-1" d="M117.48,271.53v7.57H114.7v-7.57h-1.11v-2.39h1.11v-3.4h2.78v3.4h2v2.39Z"/><path class="cls-1" d="M123.69,271.53v7.57h-2.78v-7.57H119.8v-2.39h1.11v-3.4h2.78v3.4h2v2.39Z"/><path class="cls-1" d="M26.07,299.53v7.57H23.29v-7.57H22.21v-2.39h1.08v-3.2a4.86,4.86,0,0,1,.43-2.34,4,4,0,0,1,3.45-2,3.27,3.27,0,0,1,1.47.34v2.55a2.82,2.82,0,0,0-1.26-.36c-1.24,0-1.31,1.28-1.31,2.23v2.78h2.57v2.39Z"/><path class="cls-1" d="M35.11,307.42c-3.18,0-5.71-2-5.71-5.29s2.53-5.31,5.73-5.31,5.66,2,5.66,5.29S38.26,307.42,35.11,307.42Zm0-8.1a2.8,2.8,0,1,0,2.83,2.81A2.82,2.82,0,0,0,35.08,299.32Z"/><path class="cls-1" d="M49.44,299.67a2.51,2.51,0,0,0-1.34-.35c-1.88,0-2.39,1.34-2.39,3v4.79H42.93v-10h2.78v1.49a3.2,3.2,0,0,1,2.9-1.81,3.26,3.26,0,0,1,1.22.23Z"/><path class="cls-1" d="M63.92,307.1v-5.45c0-1.18-.18-2.46-1.65-2.46-1.63,0-1.91,1.49-1.91,2.8v5.11H57.58v-5.29a4.39,4.39,0,0,0-.21-1.66,1.6,1.6,0,0,0-1.49-1,1.81,1.81,0,0,0-1.57.89A4.12,4.12,0,0,0,54,302v5.11H51.21v-10H54v1.13a3.8,3.8,0,0,1,3-1.45,3.4,3.4,0,0,1,3.11,1.81,3.68,3.68,0,0,1,3.26-1.81,3.28,3.28,0,0,1,2.79,1.42,4.41,4.41,0,0,1,.53,2.42v6.44Z"/><path class="cls-1" d="M77,307.1v-1.31a3.85,3.85,0,0,1-3.24,1.63c-3,0-4.9-2.48-4.9-5.34a5,5,0,0,1,4.83-5.26A4.16,4.16,0,0,1,77,298.4v-1.26h2.8v10Zm-2.49-7.78a2.8,2.8,0,1,0,2.79,2.79A2.78,2.78,0,0,0,74.5,299.32Z"/><path class="cls-1" d="M95,307.1l-3.74-4.28-.3.3v4H88.21V289.87H91v10.9l3.72-3.63h3.77l-4.67,4.37,5,5.59Z"/><path class="cls-1" d="M100.1,307.1V289.87h2.79V307.1Z"/><path class="cls-1" d="M113.17,307.1v-1.31a3.85,3.85,0,0,1-3.25,1.63c-3,0-4.89-2.48-4.89-5.34a5,5,0,0,1,4.83-5.26,4.16,4.16,0,0,1,3.31,1.58v-1.26H116v10Zm-2.49-7.78a2.8,2.8,0,1,0,2.79,2.79A2.78,2.78,0,0,0,110.68,299.32Z"/><path class="cls-1" d="M125.15,299.67a2.48,2.48,0,0,0-1.33-.35c-1.89,0-2.4,1.34-2.4,3v4.79h-2.78v-10h2.78v1.49a3.22,3.22,0,0,1,2.9-1.81,3.19,3.19,0,0,1,1.22.23Z"/><path class="cls-1" d="M130.23,299.53v7.57h-2.78v-7.57h-1.1v-2.39h1.1v-3.4h2.78v3.4h2v2.39Z"/><path class="cls-1" d="M26.86,335.1v-1.31a3.85,3.85,0,0,1-3.24,1.63c-3,0-4.9-2.48-4.9-5.34a5,5,0,0,1,4.83-5.26,4.16,4.16,0,0,1,3.31,1.58v-8.53h2.81V335.1Zm-2.48-7.78a2.8,2.8,0,1,0,2.78,2.79A2.79,2.79,0,0,0,24.38,327.32Z"/><path class="cls-1" d="M33.69,322.61a1.68,1.68,0,1,1,0-3.36,1.68,1.68,0,0,1,0,3.36Zm-1.4,12.49v-10h2.78v10Z"/><path class="cls-1" d="M40.5,327.53v7.57H37.72v-7.57H36.61v-2.39h1.11v-3.4H40.5v3.4h2v2.39Z"/><path class="cls-1" d="M46.71,327.53v7.57H43.93v-7.57H42.82v-2.39h1.11v-3.4h2.78v3.4h1.95v2.39Z"/><path class="cls-1" d="M62.67,335.1v-5.52c0-1.36-.3-2.39-1.89-2.39s-2.13,1.26-2.13,2.76v5.15H55.86v-10h2.79v1.22a3.66,3.66,0,0,1,3.12-1.54,3.43,3.43,0,0,1,3.68,3.95v6.33Z"/><path class="cls-1" d="M70.51,340.43H67.36L71,333.6l-4.71-8.46h3.24l3,5.66,2.85-5.66h3.17Z"/><path class="cls-1" d="M87,335.1v-1.31a3.85,3.85,0,0,1-3.24,1.63c-3,0-4.9-2.48-4.9-5.34a5,5,0,0,1,4.83-5.26A4.16,4.16,0,0,1,87,326.4v-1.26h2.81v10Zm-2.48-7.78a2.8,2.8,0,1,0,2.78,2.79A2.78,2.78,0,0,0,84.5,327.32Z"/><path class="cls-1" d="M105,335.1v-5.45c0-1.38-.3-2.46-1.91-2.46S101,328.52,101,330v5.11H98.21V317.87H101v8.56a3.62,3.62,0,0,1,3.13-1.61A3.78,3.78,0,0,1,107,326a3.9,3.9,0,0,1,.79,2.8v6.26Z"/><path class="cls-1" d="M115.27,335.42c-2.73,0-4.8-1.22-4.8-4.19v-6.09h2.78v5.63c0,1.36.57,2.28,2,2.28s2-.92,2-2.28v-5.63h2.81v6.09C120.1,334.2,118,335.42,115.27,335.42Z"/><path class="cls-1" d="M125.94,335.42a5.28,5.28,0,0,1-3.79-1.66l1.47-1.7a3.22,3.22,0,0,0,2.35,1.17,1.17,1.17,0,0,0,1.26-1.1c0-1.7-4.44-.85-4.44-4.21,0-2,1.68-3.15,3.57-3.15a5.11,5.11,0,0,1,3.24,1.06l-1.38,1.63a2.75,2.75,0,0,0-1.66-.67,1,1,0,0,0-1,.86c0,1.45,4.6.8,4.6,4.2C130.11,334.18,128.08,335.42,125.94,335.42Z"/><path class="cls-1" d="M137.26,328v2h-2.83v-4.05a4.18,4.18,0,0,0,.81.09c1.4,0,2.89-.71,2.89-2.3a1.73,1.73,0,0,0-1.77-1.77,1.63,1.63,0,0,0-1.65,1.64c0,.09,0,.18,0,.27h-3v-.27c0-2.51,2.35-4.12,4.69-4.12a4.45,4.45,0,0,1,4.65,4.32C141.08,326.11,139.37,327.51,137.26,328Zm-1.36,7.39a1.8,1.8,0,1,1,1.8-1.8A1.8,1.8,0,0,1,135.9,335.4Z"/></svg>