<svg id="Layer_1" data-name="Layer 1" xmlns="http://www.w3.org/2000/svg" viewBox="0 0 300 600"><defs><style>.cls-1{fill:#fff;}</style></defs><title>text</title><path class="cls-1" d="M137.68,302.14v2.34H125.09V283.15h2.73v19Z"/><path class="cls-1" d="M151,299.78l2.28.47a6.35,6.35,0,0,1-2.44,3.34,7,7,0,0,1-4.26,1.33,6.65,6.65,0,0,1-5.24-2.28,8.7,8.7,0,0,1-2-6,8.83,8.83,0,0,1,2.08-6.1,6.75,6.75,0,0,1,5.22-2.32,6.34,6.34,0,0,1,5,2.14c1.25,1.43,1.9,3.57,1.93,6.41H142c0,2.39.5,4,1.5,4.83a4.91,4.91,0,0,0,3.17,1.25A4.34,4.34,0,0,0,151,299.78Zm-.14-4.8a6.89,6.89,0,0,0-.44-2.36,4.07,4.07,0,0,0-1.37-1.76,3.8,3.8,0,0,0-2.33-.72,4.17,4.17,0,0,0-3.1,1.31,5.41,5.41,0,0,0-1.43,3.53Z"/><path class="cls-1" d="M155.07,300.39l2.34-.49q.78,3,4.94,3a4.69,4.69,0,0,0,2.6-.69,2.19,2.19,0,0,0,1.06-1.93c0-1.24-.9-2-2.71-2.36l-3.32-.63a6,6,0,0,1-3.11-1.47,3.8,3.8,0,0,1-1.16-2.89,4.19,4.19,0,0,1,1.58-3.32,6.37,6.37,0,0,1,4.25-1.34q5.15,0,6.34,4l-2.25.48a3.85,3.85,0,0,0-4-2.47,4.49,4.49,0,0,0-2.46.62,1.94,1.94,0,0,0-1,1.72c0,1.17.81,1.9,2.45,2.21l3.08.55q4.83.87,4.83,4.68a4.17,4.17,0,0,1-1.8,3.51,7.83,7.83,0,0,1-4.78,1.34Q156.4,304.92,155.07,300.39Z"/><path class="cls-1" d="M64.91,342.88H62.37l-4.61-8.81L54.34,338v4.87H51.88V321.55h2.46v13.68l7.33-8.13h2.62l-4.93,5.54Z"/><path class="cls-1" d="M79.54,342.88H77.32v-3c-1.12,2.3-2.8,3.45-5,3.45a4.73,4.73,0,0,1-3.8-1.6,6.7,6.7,0,0,1-1.38-4.53V327.1h2.45v10.08a4.27,4.27,0,0,0,1,3.23,3.16,3.16,0,0,0,2.15.88,3.69,3.69,0,0,0,2.14-.67,5.23,5.23,0,0,0,1.61-1.92,5.91,5.91,0,0,0,.64-2.71V327.1h2.45Z"/><path class="cls-1" d="M96.88,342.88H94.59V332.74a4.09,4.09,0,0,0-1-3.08,3.26,3.26,0,0,0-2.31-.89,4,4,0,0,0-3.15,1.5,5.9,5.9,0,0,0-1.27,4v8.65H84.45V327.1h2.28V330q1.92-3.35,5-3.35a4.94,4.94,0,0,1,3,.92,4.84,4.84,0,0,1,1.7,2.05,12.45,12.45,0,0,1,.46,4.13Z"/><path class="cls-1" d="M114.12,321.55v21.33H111.9v-2.7a5.35,5.35,0,0,1-5,3.14,5.53,5.53,0,0,1-4.56-2.32,9.43,9.43,0,0,1-1.78-5.88,10,10,0,0,1,1.77-6,5.52,5.52,0,0,1,4.68-2.42,5.42,5.42,0,0,1,4.64,2.6v-7.71Zm-2.46,11.64a4.46,4.46,0,0,0-1.26-3.32,4.06,4.06,0,0,0-3-1.25,3.57,3.57,0,0,0-3,1.62,7.63,7.63,0,0,0-1.18,4.56,8.86,8.86,0,0,0,1.08,4.83,3.39,3.39,0,0,0,3,1.66,4,4,0,0,0,3-1.44,4.81,4.81,0,0,0,1.31-3.37Z"/><path class="cls-1" d="M129.45,338.18l2.28.47a6.4,6.4,0,0,1-2.44,3.34,7,7,0,0,1-4.27,1.33,6.63,6.63,0,0,1-5.23-2.28,9.92,9.92,0,0,1,.08-12.05,6.69,6.69,0,0,1,5.22-2.33,6.31,6.31,0,0,1,5,2.14q1.89,2.15,1.93,6.41H120.52q0,3.59,1.5,4.83a4.91,4.91,0,0,0,3.18,1.25A4.34,4.34,0,0,0,129.45,338.18Zm-.15-4.8a6.89,6.89,0,0,0-.43-2.36,4,4,0,0,0-1.38-1.76,3.78,3.78,0,0,0-2.33-.72,4.19,4.19,0,0,0-3.1,1.31,5.46,5.46,0,0,0-1.43,3.53Z"/><path class="cls-1" d="M148.05,342.88H145.6V333.3a11.3,11.3,0,0,0-.21-2.53,2.64,2.64,0,0,0-1-1.46,2.88,2.88,0,0,0-1.82-.62,3.93,3.93,0,0,0-3.16,1.55,6.3,6.3,0,0,0-1.28,4.14v8.5h-2.45V321.55h2.45V330q1.68-3.35,4.78-3.35a5.49,5.49,0,0,1,2.48.55,4.05,4.05,0,0,1,1.66,1.44,5.57,5.57,0,0,1,.79,1.76,13.74,13.74,0,0,1,.21,2.89Z"/><path class="cls-1" d="M155.49,321.55v2.74h-2.64v-2.74Zm-.08,5.55v15.78H153V327.1Z"/><path class="cls-1" d="M158.18,338.79l2.34-.49q.78,3,4.94,3a4.63,4.63,0,0,0,2.59-.69,2.18,2.18,0,0,0,1.07-1.93c0-1.24-.9-2-2.71-2.36l-3.32-.63a6,6,0,0,1-3.11-1.47,3.8,3.8,0,0,1-1.16-2.89A4.19,4.19,0,0,1,160.4,328a6.37,6.37,0,0,1,4.25-1.34q5.15,0,6.34,4l-2.25.48a3.85,3.85,0,0,0-4-2.47,4.49,4.49,0,0,0-2.46.62,2,2,0,0,0-1,1.73c0,1.16.81,1.89,2.45,2.2l3.08.55q4.83.87,4.83,4.68a4.17,4.17,0,0,1-1.8,3.51,7.83,7.83,0,0,1-4.78,1.34C161.38,343.32,159.06,341.81,158.18,338.79Z"/><path class="cls-1" d="M182.3,341.21v1.94a18.14,18.14,0,0,1-2.25.17q-4.58,0-4.57-4.79V329h-2.8V327.1h2.8l.11-4,2.28-.22v4.19h3.53V329h-3.53v9.92c0,1.63.84,2.44,2.53,2.44A12.47,12.47,0,0,0,182.3,341.21Z"/><path class="cls-1" d="M190.16,343.32a6,6,0,0,1-5.07-2.41,9.66,9.66,0,0,1-1.82-6,8.61,8.61,0,0,1,2-6,6.57,6.57,0,0,1,5.09-2.26,6.21,6.21,0,0,1,5.15,2.37,9.19,9.19,0,0,1,1.89,5.92,8.84,8.84,0,0,1-2,6A6.62,6.62,0,0,1,190.16,343.32Zm.19-2a3.9,3.9,0,0,0,3.14-1.55,7.48,7.48,0,0,0,1.27-4.81c0-2.19-.45-3.77-1.33-4.76a4.09,4.09,0,0,0-3.11-1.48,3.89,3.89,0,0,0-3.09,1.5,7.18,7.18,0,0,0-1.27,4.72c0,2.28.42,3.92,1.27,4.9A3.93,3.93,0,0,0,190.35,341.29Z"/><path class="cls-1" d="M203.59,342.88h-2.46V327.1h2.16v3.69a7.82,7.82,0,0,1,2.29-3.38,4.13,4.13,0,0,1,2.35-.78c.25,0,.57,0,1,.06V329h-.5a4.32,4.32,0,0,0-3.38,1.51,6.17,6.17,0,0,0-1.43,4Z"/><path class="cls-1" d="M214.21,321.55v2.74h-2.64v-2.74Zm-.08,5.55v15.78h-2.45V327.1Z"/><path class="cls-1" d="M229.45,338.18l2.28.47a6.4,6.4,0,0,1-2.44,3.34,7,7,0,0,1-4.27,1.33,6.63,6.63,0,0,1-5.23-2.28,9.92,9.92,0,0,1,.08-12.05,6.69,6.69,0,0,1,5.22-2.33,6.31,6.31,0,0,1,5,2.14q1.89,2.15,1.93,6.41H220.52q0,3.59,1.5,4.83a4.91,4.91,0,0,0,3.18,1.25A4.34,4.34,0,0,0,229.45,338.18Zm-.15-4.8a6.89,6.89,0,0,0-.43-2.36,4,4,0,0,0-1.38-1.76,3.78,3.78,0,0,0-2.33-.72,4.19,4.19,0,0,0-3.1,1.31,5.46,5.46,0,0,0-1.43,3.53Z"/><path class="cls-1" d="M248.12,342.88h-2.3V332.74a4.13,4.13,0,0,0-.95-3.08,3.3,3.3,0,0,0-2.32-.89,3.94,3.94,0,0,0-3.14,1.5,5.91,5.91,0,0,0-1.28,4v8.65h-2.45V327.1H238V330q1.92-3.35,5-3.35a5.1,5.1,0,0,1,4.71,3,12.73,12.73,0,0,1,.46,4.13Z"/><path class="cls-1" d="M85.91,381.28h-2.6l-11-18.59,0,1.4c0,.54,0,1,0,1.35v15.84H70.2V360h3.35l10.31,17.38,0-1.48c0-.58,0-1.1,0-1.55V360h2.11Z"/><path class="cls-1" d="M96.67,381.72a6,6,0,0,1-5.07-2.41,9.64,9.64,0,0,1-1.82-6,8.61,8.61,0,0,1,2-6,6.59,6.59,0,0,1,5.09-2.25,6.23,6.23,0,0,1,5.15,2.37,9.2,9.2,0,0,1,1.88,5.92,8.84,8.84,0,0,1-2,6A6.62,6.62,0,0,1,96.67,381.72Zm.19-2a3.9,3.9,0,0,0,3.14-1.55,7.54,7.54,0,0,0,1.27-4.81c0-2.19-.45-3.78-1.33-4.76a4.09,4.09,0,0,0-3.11-1.48,3.92,3.92,0,0,0-3.1,1.5,7.24,7.24,0,0,0-1.26,4.72c0,2.28.42,3.92,1.26,4.9A4,4,0,0,0,96.86,379.69Z"/><path class="cls-1" d="M110.09,381.28h-2.45V365.5h2.16v3.69a7.94,7.94,0,0,1,2.29-3.39,4.16,4.16,0,0,1,2.35-.77c.25,0,.57,0,1,.06v2.35h-.5a4.32,4.32,0,0,0-3.38,1.51,6.18,6.18,0,0,0-1.44,4Z"/><path class="cls-1" d="M116.25,377.19l2.34-.49q.78,3,4.94,3a4.69,4.69,0,0,0,2.6-.69,2.19,2.19,0,0,0,1.06-1.93c0-1.24-.9-2-2.71-2.36l-3.32-.63a6,6,0,0,1-3.11-1.47,3.8,3.8,0,0,1-1.16-2.89,4.19,4.19,0,0,1,1.58-3.32,6.37,6.37,0,0,1,4.25-1.34q5.15,0,6.34,4l-2.25.48a3.85,3.85,0,0,0-4-2.47,4.49,4.49,0,0,0-2.46.62,1.94,1.94,0,0,0-1,1.72c0,1.17.81,1.9,2.45,2.21l3.08.55q4.83.87,4.83,4.68a4.17,4.17,0,0,1-1.8,3.51,7.83,7.83,0,0,1-4.78,1.34C119.45,381.72,117.13,380.21,116.25,377.19Z"/><path class="cls-1" d="M146.25,381.28h-2.54l-4.62-8.81-3.42,3.94v4.87h-2.45V360h2.45v13.68L143,365.5h2.63L140.69,371Z"/><path class="cls-1" d="M172.7,381.28H170V371.13h-9.89v10.15h-2.67V360h2.67v8.83H170V360h2.67Z"/><path class="cls-1" d="M188.64,365.5l-6.32,17.63c-.92,2.54-2.38,3.81-4.4,3.81a7.78,7.78,0,0,1-2.11-.33v-1.92a7.91,7.91,0,0,0,1.64.22,2.9,2.9,0,0,0,2-.68A7.44,7.44,0,0,0,181,381l-5.46-15.46H178l4.24,11.86,4.31-11.86Z"/><path class="cls-1" d="M203.42,360v21.33H201.2v-2.7a5.34,5.34,0,0,1-5,3.14,5.53,5.53,0,0,1-4.55-2.32,9.37,9.37,0,0,1-1.78-5.88,9.93,9.93,0,0,1,1.76-6,5.54,5.54,0,0,1,4.69-2.42,5.45,5.45,0,0,1,4.64,2.6V360ZM201,371.59a4.43,4.43,0,0,0-1.27-3.32,4,4,0,0,0-2.95-1.25,3.59,3.59,0,0,0-3,1.62,7.71,7.71,0,0,0-1.18,4.56,8.77,8.77,0,0,0,1.09,4.83,3.37,3.37,0,0,0,3,1.66,4,4,0,0,0,3-1.44,4.86,4.86,0,0,0,1.31-3.37Z"/><path class="cls-1" d="M210.78,381.28h-2.45V365.5h2.15v3.69a8,8,0,0,1,2.29-3.39,4.22,4.22,0,0,1,2.36-.77q.38,0,1,.06v2.35h-.5a4.3,4.3,0,0,0-3.37,1.51,6.13,6.13,0,0,0-1.44,4Z"/><path class="cls-1" d="M224,381.72a6,6,0,0,1-5.07-2.41,9.64,9.64,0,0,1-1.82-6,8.61,8.61,0,0,1,2.05-6,6.59,6.59,0,0,1,5.09-2.25,6.21,6.21,0,0,1,5.15,2.37,9.2,9.2,0,0,1,1.88,5.92,8.84,8.84,0,0,1-2,6A6.62,6.62,0,0,1,224,381.72Zm.19-2a3.9,3.9,0,0,0,3.14-1.55,7.48,7.48,0,0,0,1.27-4.81c0-2.19-.45-3.78-1.33-4.76a4.09,4.09,0,0,0-3.11-1.48,3.89,3.89,0,0,0-3.09,1.5,7.18,7.18,0,0,0-1.27,4.72c0,2.28.42,3.92,1.27,4.9A3.93,3.93,0,0,0,224.14,379.69Z"/><path class="cls-1" d="M66.77,410.73v1.9H59.71v-1.9Z"/><path class="cls-1" d="M80.59,419.68H77.91V398.35H91v2.35H80.59v6.73H89.2v2.16H80.59Z"/><path class="cls-1" d="M105.27,419.68h-2.22v-3q-1.68,3.45-5,3.45a4.75,4.75,0,0,1-3.8-1.6A6.7,6.7,0,0,1,92.85,414V403.9H95.3V414a4.27,4.27,0,0,0,1,3.23,3.18,3.18,0,0,0,2.15.88,3.72,3.72,0,0,0,2.15-.67,5.21,5.21,0,0,0,1.6-1.92,5.79,5.79,0,0,0,.64-2.71V403.9h2.45Z"/><path class="cls-1" d="M112.63,419.68h-2.45V398.35h2.45Z"/><path class="cls-1" d="M120,419.68h-2.45V398.35H120Z"/><path class="cls-1" d="M135.35,419.68H132.9V403.9h2.15v3.69a7.91,7.91,0,0,1,2.29-3.38,4.16,4.16,0,0,1,2.36-.78q.38,0,1,.06v2.35h-.5a4.3,4.3,0,0,0-3.37,1.51,6.13,6.13,0,0,0-1.44,4Z"/><path class="cls-1" d="M155.87,419.68h-2.22v-3c-1.12,2.3-2.8,3.45-5,3.45a4.73,4.73,0,0,1-3.8-1.6,6.7,6.7,0,0,1-1.38-4.53V403.9h2.45V414a4.23,4.23,0,0,0,1,3.23,3.15,3.15,0,0,0,2.14.88,3.72,3.72,0,0,0,2.15-.67,5.12,5.12,0,0,0,1.6-1.92,5.79,5.79,0,0,0,.64-2.71V403.9h2.46Z"/><path class="cls-1" d="M158.65,415.59l2.34-.49q.78,3,4.94,3a4.65,4.65,0,0,0,2.59-.69,2.18,2.18,0,0,0,1.07-1.93c0-1.24-.91-2-2.71-2.36l-3.33-.63a6,6,0,0,1-3.1-1.47,3.76,3.76,0,0,1-1.16-2.89,4.16,4.16,0,0,1,1.58-3.32,6.37,6.37,0,0,1,4.25-1.34c3.42,0,5.54,1.34,6.34,4l-2.25.48a3.86,3.86,0,0,0-4-2.47,4.49,4.49,0,0,0-2.46.62,2,2,0,0,0-1,1.72c0,1.17.82,1.9,2.46,2.21l3.08.55q4.82.87,4.82,4.68a4.18,4.18,0,0,1-1.79,3.51,7.83,7.83,0,0,1-4.78,1.34C161.85,420.12,159.53,418.61,158.65,415.59Z"/><path class="cls-1" d="M182.77,418V420a18.14,18.14,0,0,1-2.25.17q-4.58,0-4.57-4.79v-9.51h-2.8V403.9H176l.1-4,2.29-.22v4.19h3.53v1.92h-3.53v9.92c0,1.63.84,2.44,2.53,2.44A11.4,11.4,0,0,0,182.77,418Z"/><path class="cls-1" d="M197.9,419.68h-2.3V409.54a4.13,4.13,0,0,0-.95-3.08,3.29,3.29,0,0,0-2.31-.89,4,4,0,0,0-3.15,1.5,5.91,5.91,0,0,0-1.28,4v8.65h-2.45V403.9h2.28v2.91q1.92-3.35,5-3.35a5.1,5.1,0,0,1,4.71,3,12.73,12.73,0,0,1,.46,4.13Z"/><path class="cls-1" d="M205.34,398.35v2.74H202.7v-2.74Zm-.08,5.55v15.78H202.8V403.9Z"/><path class="cls-1" d="M222.59,419.68h-2.3V409.54a4.13,4.13,0,0,0-.95-3.08,3.3,3.3,0,0,0-2.32-.89,3.94,3.94,0,0,0-3.14,1.5,5.91,5.91,0,0,0-1.28,4v8.65h-2.45V403.9h2.28v2.91q1.92-3.35,5-3.35a4.94,4.94,0,0,1,3,.92,4.87,4.87,0,0,1,1.71,2.05,12.73,12.73,0,0,1,.46,4.13Z"/><path class="cls-1" d="M240.38,401.43v1.95a4.34,4.34,0,0,0-2.25.4,2,2,0,0,0-.76,1.4,5.71,5.71,0,0,1,1.51,3.81,4.91,4.91,0,0,1-1.65,3.71,6.21,6.21,0,0,1-4.43,1.54,5.55,5.55,0,0,1-1.07-.09,9,9,0,0,0-1.08-.17,2,2,0,0,0-1,.41,1.28,1.28,0,0,0-.59,1.07,1.17,1.17,0,0,0,.86,1.22,18.31,18.31,0,0,0,4,.36,23,23,0,0,1,4,.37,4.07,4.07,0,0,1,2.18,1.28,3.52,3.52,0,0,1,.89,2.43q0,4.51-7.94,4.51c-2.51,0-4.34-.37-5.49-1.13a3.47,3.47,0,0,1-1.73-3,3.18,3.18,0,0,1,2.41-3.16,3,3,0,0,1-1.55-2.54c0-1.22.73-2.15,2.19-2.8a5.12,5.12,0,0,1-2.05-4.17A4.82,4.82,0,0,1,228.6,405a6.34,6.34,0,0,1,4.27-1.5,7.74,7.74,0,0,1,3.23.67,3,3,0,0,1,1.09-2.14,4.58,4.58,0,0,1,2.58-.59ZM230,419a2.37,2.37,0,0,0-1.72,2.17,2.06,2.06,0,0,0,1.41,1.87,8.51,8.51,0,0,0,3.6.66,11.52,11.52,0,0,0,3.72-.57c1.13-.38,1.69-1,1.69-1.93a1.58,1.58,0,0,0-.5-1.2,2.47,2.47,0,0,0-1.37-.59,28.08,28.08,0,0,0-3-.19C232,419.22,230.77,419.15,230,419Zm2.93-6.67a3.51,3.51,0,0,0,2.55-1,3.31,3.31,0,0,0,1-2.49,3.44,3.44,0,0,0-3.5-3.55,3.65,3.65,0,0,0-2.46.93,3.71,3.71,0,0,0-.11,5.12A3.47,3.47,0,0,0,232.88,412.37Z"/><path class="cls-1" d="M108.46,436.75v2.74h-2.64v-2.74Zm-.08,5.55v15.78h-2.45V442.3Z"/><path class="cls-1" d="M119.15,454l2.34-.49q.78,3,4.94,3a4.65,4.65,0,0,0,2.59-.69,2.18,2.18,0,0,0,1.07-1.93c0-1.24-.91-2-2.71-2.36l-3.33-.63a6,6,0,0,1-3.1-1.47,3.76,3.76,0,0,1-1.16-2.89,4.16,4.16,0,0,1,1.58-3.32,6.37,6.37,0,0,1,4.25-1.34c3.42,0,5.54,1.34,6.34,4l-2.25.48a3.86,3.86,0,0,0-4-2.47,4.49,4.49,0,0,0-2.46.62,2,2,0,0,0-1,1.73c0,1.16.82,1.89,2.46,2.2l3.08.55q4.82.87,4.82,4.68a4.18,4.18,0,0,1-1.79,3.51,7.83,7.83,0,0,1-4.78,1.34C122.35,458.52,120,457,119.15,454Z"/><path class="cls-1" d="M149.15,458.08h-2.54L142,449.27l-3.42,3.94v4.87h-2.45V436.75h2.45v13.68l7.33-8.13h2.62l-4.93,5.54Z"/><path class="cls-1" d="M163,442.3l-6.33,17.63c-.91,2.54-2.38,3.81-4.39,3.81a7.72,7.72,0,0,1-2.11-.33v-1.92a7.82,7.82,0,0,0,1.64.22,3,3,0,0,0,2-.67,7.58,7.58,0,0,0,1.57-3.28l-5.46-15.46h2.5l4.23,11.86,4.32-11.86Z"/><path class="cls-1" d="M175.4,453.38l2.28.47a6.46,6.46,0,0,1-2.44,3.35,7,7,0,0,1-4.26,1.32,6.65,6.65,0,0,1-5.24-2.28,9.92,9.92,0,0,1,.08-12.05,6.72,6.72,0,0,1,5.22-2.33,6.34,6.34,0,0,1,5,2.14q1.88,2.14,1.93,6.41H166.48q0,3.58,1.5,4.83a4.89,4.89,0,0,0,3.17,1.25A4.34,4.34,0,0,0,175.4,453.38Zm-.14-4.8a6.89,6.89,0,0,0-.44-2.36,4.13,4.13,0,0,0-1.37-1.76,3.82,3.82,0,0,0-2.33-.72,4.15,4.15,0,0,0-3.1,1.31,5.41,5.41,0,0,0-1.43,3.53Z"/><path class="cls-1" d="M194.07,458.08h-2.3V447.94a4.09,4.09,0,0,0-1-3.08,3.29,3.29,0,0,0-2.31-.89,4,4,0,0,0-3.15,1.5,5.9,5.9,0,0,0-1.27,4v8.65h-2.46V442.3h2.28v2.91q1.93-3.34,5-3.35a5.07,5.07,0,0,1,4.71,3,12.45,12.45,0,0,1,.46,4.13Z"/></svg>