<svg id="Layer_1" data-name="Layer 1" xmlns="http://www.w3.org/2000/svg" viewBox="0 0 300 300"><defs><style>.cls-1{fill:#fff;}</style></defs><title>text</title><path class="cls-1" d="M10.85,37.79v8.68c0,.35-.23.53-.67.53s-.68-.18-.68-.53V37.79c0-.36.23-.54.68-.54S10.85,37.43,10.85,37.79Zm6,0a.79.79,0,0,1-.24.51L13,42.17l4,3.87a.48.48,0,0,1,.17.4.63.63,0,0,1-.22.47.62.62,0,0,1-.47.21.73.73,0,0,1-.49-.22l-3.73-3.64a1.32,1.32,0,0,1,0-2.1l3.56-3.76a.65.65,0,0,1,.49-.23.64.64,0,0,1,.47.19A.56.56,0,0,1,16.88,37.79Z"/><path class="cls-1" d="M20.54,45.88h1.4a2,2,0,0,0,.47-.08,1,1,0,0,0,.38-.23A1,1,0,0,0,23,45c0-.3,0-.62,0-1V40.26c0-.35.23-.53.67-.53s.68.18.68.53v3.92a8.35,8.35,0,0,1-.12,1.62,1.43,1.43,0,0,1-.52.87,1.84,1.84,0,0,1-.91.37,11.26,11.26,0,0,1-1.53.08A11.26,11.26,0,0,1,19.71,47a1.84,1.84,0,0,1-.91-.37,1.42,1.42,0,0,1-.51-.87,8.35,8.35,0,0,1-.12-1.62V40.26c0-.35.23-.53.67-.53s.67.18.67.53V44a3,3,0,0,0,.25,1.63.73.73,0,0,0,.31.16A1.93,1.93,0,0,0,20.54,45.88Z"/><path class="cls-1" d="M28,41.1a3,3,0,0,0-.25,1.63v3.74c0,.35-.22.53-.67.53s-.67-.18-.68-.53V42.56A8.24,8.24,0,0,1,26.54,41a1.44,1.44,0,0,1,.53-.88A2,2,0,0,1,28,39.7a12.67,12.67,0,0,1,1.66-.08,3.88,3.88,0,0,1,2.39.46,2,2,0,0,1,.58,1.32,9.6,9.6,0,0,1,0,1.16v3.91c0,.35-.22.53-.67.53s-.68-.18-.68-.53V42.73a3,3,0,0,0-.25-1.62,2.68,2.68,0,0,0-1.54-.26A2.67,2.67,0,0,0,28,41.1Z"/><path class="cls-1" d="M41.35,37.49v5.94a9,9,0,0,1-.16,1.92,2.05,2.05,0,0,1-.59,1.12,2.25,2.25,0,0,1-1,.52,7.89,7.89,0,0,1-1.56.13A7.3,7.3,0,0,1,36.48,47a2.09,2.09,0,0,1-1-.52,1.93,1.93,0,0,1-.59-1.12,9.68,9.68,0,0,1-.16-1.92,9.25,9.25,0,0,1,.16-1.94,2.1,2.1,0,0,1,1.6-1.73,8.22,8.22,0,0,1,1.73-.14,4.63,4.63,0,0,1,1.8.29V37.49c0-.36.22-.54.67-.54S41.35,37.13,41.35,37.49Zm-5.12,4.23a3.77,3.77,0,0,0-.16,1.34c0,.64,0,1.14,0,1.52a1.8,1.8,0,0,0,.38,1c.12.17.42.27.88.3l.67,0c.87,0,1.39-.11,1.55-.32a1.89,1.89,0,0,0,.38-1A10.6,10.6,0,0,0,40,43.44a3.91,3.91,0,0,0-.33-2.11,2.49,2.49,0,0,0-.26-.28,1.84,1.84,0,0,0-1.05-.2h-1a1.15,1.15,0,0,0-.87.31A2.53,2.53,0,0,0,36.23,41.72Z"/><path class="cls-1" d="M49,45.71c.31,0,.47.19.47.56a.61.61,0,0,1-.47.67,11.32,11.32,0,0,1-2.43.18,4.17,4.17,0,0,1-2.46-.56,2.23,2.23,0,0,1-.75-1.87V42A2.15,2.15,0,0,1,44,40.09a4.75,4.75,0,0,1,2.51-.47,4.69,4.69,0,0,1,2.48.45A2.19,2.19,0,0,1,49.64,42v1.18a.82.82,0,0,1-.2.57.66.66,0,0,1-.51.21H44.67v.88c0,.74.64,1.1,1.93,1.1a10.58,10.58,0,0,0,1.46-.09A7.68,7.68,0,0,1,49,45.71ZM44.67,42v.77h3.62V42a.93.93,0,0,0-.37-.87,2.88,2.88,0,0,0-1.42-.23,3.31,3.31,0,0,0-1.44.21A1,1,0,0,0,44.67,42Z"/><path class="cls-1" d="M56.94,41.05a3.86,3.86,0,0,1-.75-.1,7.32,7.32,0,0,0-1.43-.1,3.11,3.11,0,0,0-1.36.22A.93.93,0,0,0,53,42v2.8c0,.74.64,1.11,1.93,1.11a7.5,7.5,0,0,0,1.31-.1,4.7,4.7,0,0,1,.75-.09c.31,0,.47.18.47.55a.62.62,0,0,1-.47.68,10.37,10.37,0,0,1-2.29.19,3.83,3.83,0,0,1-2.3-.56,2.2,2.2,0,0,1-.75-1.87V42a2.1,2.1,0,0,1,.7-1.85,4.28,4.28,0,0,1,2.31-.48,8.14,8.14,0,0,1,2.33.24.59.59,0,0,1,.47.65C57.41,40.87,57.25,41.05,56.94,41.05Z"/><path class="cls-1" d="M59.53,41.05c-.32,0-.47-.19-.47-.56a.61.61,0,0,1,.47-.68A10.54,10.54,0,0,1,62,39.62a3.56,3.56,0,0,1,2.3.54,2.46,2.46,0,0,1,.61,1.89v2.89c0,.91-.22,1.49-.66,1.77a5.37,5.37,0,0,1-2.53.41,5.19,5.19,0,0,1-2.5-.41A2,2,0,0,1,58.54,45,2.7,2.7,0,0,1,59,43.1a2.8,2.8,0,0,1,2-.51h2.49v-.77a.85.85,0,0,0-.35-.77,2.63,2.63,0,0,0-1.22-.2,9.72,9.72,0,0,0-1.53.1A6.43,6.43,0,0,1,59.53,41.05Zm4,4V43.78H61.43a2.59,2.59,0,0,0-1.25.19c-.19.12-.29.41-.29.86s.12.75.36.87a3.48,3.48,0,0,0,1.43.19,4.52,4.52,0,0,0,1.45-.16A.69.69,0,0,0,63.52,45.05Z"/><path class="cls-1" d="M71.47,44.8v-.17a.55.55,0,0,0-.35-.52A3,3,0,0,0,69.9,44,7.56,7.56,0,0,1,68,43.67a1.58,1.58,0,0,1-.88-.59,2,2,0,0,1-.35-1.2v-.12a1.76,1.76,0,0,1,.76-1.69,4.72,4.72,0,0,1,2.3-.44,9.62,9.62,0,0,1,2.28.2.6.6,0,0,1,.46.67c0,.37-.15.56-.46.56a7.59,7.59,0,0,1-.94-.1,11.8,11.8,0,0,0-1.5-.1,4.11,4.11,0,0,0-1.18.13c-.24.09-.37.34-.37.74v.14c0,.54.56.82,1.67.85.46,0,.93.06,1.4.12a2.16,2.16,0,0,1,1.19.52,1.58,1.58,0,0,1,.48,1.25v.19a2,2,0,0,1-.76,1.83,4.68,4.68,0,0,1-2.46.49,11.24,11.24,0,0,1-2.42-.19.61.61,0,0,1-.46-.68c0-.37.15-.55.46-.55s.53,0,1.06.09a13.71,13.71,0,0,0,1.54.1,3.2,3.2,0,0,0,1.22-.2A.86.86,0,0,0,71.47,44.8Z"/><path class="cls-1" d="M80.27,45.71c.31,0,.46.19.46.56a.6.6,0,0,1-.46.67,11.49,11.49,0,0,1-2.44.18,4.15,4.15,0,0,1-2.45-.56,2.17,2.17,0,0,1-.75-1.87V42a2.15,2.15,0,0,1,.67-1.86,4.75,4.75,0,0,1,2.51-.47,4.74,4.74,0,0,1,2.49.45A2.19,2.19,0,0,1,80.94,42v1.18a.77.77,0,0,1-.2.57.63.63,0,0,1-.5.21H76v.88c0,.74.64,1.1,1.92,1.1a10.73,10.73,0,0,0,1.47-.09A7.68,7.68,0,0,1,80.27,45.71ZM76,42v.77h3.61V42a1,1,0,0,0-.36-.87,3,3,0,0,0-1.43-.23,3.38,3.38,0,0,0-1.44.21A1,1,0,0,0,76,42Z"/><path class="cls-1" d="M83.23,41.1a.81.81,0,0,1-.24-.6.89.89,0,0,1,.25-.63.87.87,0,0,1,1.48.62.8.8,0,0,1-.26.61.87.87,0,0,1-.62.25A.82.82,0,0,1,83.23,41.1ZM83,46.27a.89.89,0,0,1,.25-.62.87.87,0,0,1,1.48.62.8.8,0,0,1-.26.61.91.91,0,0,1-1.23,0A.81.81,0,0,1,83,46.27Z"/><path class="cls-1" d="M98.31,37.79v8.68c0,.35-.23.53-.67.53s-.67-.18-.67-.53v-4H92.26v4c0,.35-.23.53-.68.53s-.67-.18-.67-.53V37.79c0-.36.22-.54.67-.54s.68.18.68.54v3.48H97V37.79c0-.36.22-.54.67-.54S98.31,37.43,98.31,37.79Z"/><path class="cls-1" d="M101.64,41.05c-.31,0-.47-.19-.47-.56a.62.62,0,0,1,.47-.68,10.66,10.66,0,0,1,2.43-.19,3.56,3.56,0,0,1,2.3.54,2.42,2.42,0,0,1,.61,1.89v2.89c0,.91-.22,1.49-.66,1.77a5.32,5.32,0,0,1-2.52.41,5.22,5.22,0,0,1-2.51-.41,2,2,0,0,1-.63-1.76,2.7,2.7,0,0,1,.48-1.85,2.81,2.81,0,0,1,2-.51h2.48v-.77a.85.85,0,0,0-.34-.77,2.68,2.68,0,0,0-1.23-.2,9.72,9.72,0,0,0-1.53.1A6.28,6.28,0,0,1,101.64,41.05Zm4,4V43.78h-2.08a2.61,2.61,0,0,0-1.26.19c-.19.12-.28.41-.28.86s.12.75.35.87a3.57,3.57,0,0,0,1.44.19,4.44,4.44,0,0,0,1.44-.16A.66.66,0,0,0,105.63,45.05Z"/><path class="cls-1" d="M111.08,39.67v.07H113c.3,0,.46.2.46.59s-.16.6-.46.6h-1.91v5.54c0,.35-.22.53-.67.53s-.68-.18-.68-.53V40.93h-1c-.31,0-.46-.2-.46-.6s.15-.59.46-.59h1v-.25a2.88,2.88,0,0,1,.53-2.05,3,3,0,0,1,2-.49,4.08,4.08,0,0,1,1.3.13.47.47,0,0,1,.33.46.59.59,0,0,1-.18.51.65.65,0,0,1-.46.18l-1,0a1.3,1.3,0,0,0-.95.25A2.27,2.27,0,0,0,111.08,39.67Z"/><path class="cls-1" d="M119.17,44.8v-.17a.53.53,0,0,0-.35-.52A3,3,0,0,0,117.6,44a7.43,7.43,0,0,1-1.93-.28,1.51,1.51,0,0,1-.88-.59,1.9,1.9,0,0,1-.35-1.2v-.12a1.77,1.77,0,0,1,.75-1.69,4.72,4.72,0,0,1,2.3-.44,9.78,9.78,0,0,1,2.29.2.61.61,0,0,1,.46.67c0,.37-.16.56-.46.56a7.51,7.51,0,0,1-1-.1,11.8,11.8,0,0,0-1.5-.1,4.08,4.08,0,0,0-1.17.13c-.25.09-.38.34-.38.74v.14c0,.54.56.82,1.67.85.47,0,.93.06,1.4.12a2.13,2.13,0,0,1,1.19.52,1.51,1.51,0,0,1,.48,1.25v.19a2,2,0,0,1-.76,1.83,4.64,4.64,0,0,1-2.45.49,11.28,11.28,0,0,1-2.43-.19.62.62,0,0,1-.46-.68c0-.37.16-.55.46-.55s.54,0,1.07.09a13.39,13.39,0,0,0,1.53.1,3.26,3.26,0,0,0,1.23-.2A.87.87,0,0,0,119.17,44.8Z"/><path class="cls-1" d="M123.86,37.49v9c0,.35-.22.53-.67.53s-.68-.18-.68-.53v-9c0-.36.23-.54.68-.54S123.86,37.13,123.86,37.49Z"/><path class="cls-1" d="M128.45,45.88h1.39a1.85,1.85,0,0,0,.47-.08.94.94,0,0,0,.39-.23,1,1,0,0,0,.16-.6c0-.3,0-.62,0-1V40.26c0-.35.22-.53.67-.53s.68.18.68.53v3.92a8.35,8.35,0,0,1-.12,1.62,1.43,1.43,0,0,1-.52.87,1.88,1.88,0,0,1-.91.37,11.26,11.26,0,0,1-1.53.08,11.54,11.54,0,0,1-1.54-.08,1.8,1.8,0,0,1-.9-.37,1.42,1.42,0,0,1-.51-.87,9.06,9.06,0,0,1-.13-1.62V40.26c0-.35.23-.53.68-.53s.67.18.67.53V44a3.13,3.13,0,0,0,.24,1.63.78.78,0,0,0,.32.16A1.93,1.93,0,0,0,128.45,45.88Z"/><path class="cls-1" d="M135.92,41.1a3,3,0,0,0-.25,1.63v3.74c0,.35-.22.53-.67.53s-.67-.18-.68-.53V42.56a8.24,8.24,0,0,1,.13-1.61,1.44,1.44,0,0,1,.53-.88,2,2,0,0,1,.92-.37,12.85,12.85,0,0,1,1.67-.08,3.82,3.82,0,0,1,2.38.46,1.94,1.94,0,0,1,.59,1.32c0,.31.05.7.05,1.16v3.91c0,.35-.22.53-.67.53s-.68-.18-.68-.53V42.73a3,3,0,0,0-.25-1.62,2.73,2.73,0,0,0-1.55-.26C136.59,40.85,136.08,40.93,135.92,41.1Z"/><path class="cls-1" d="M149.26,37.49v5.94a9,9,0,0,1-.16,1.92,2.12,2.12,0,0,1-.59,1.12,2.29,2.29,0,0,1-1,.52,7.78,7.78,0,0,1-1.55.13,7.23,7.23,0,0,1-1.57-.13,2.12,2.12,0,0,1-1-.52,2,2,0,0,1-.58-1.12,9,9,0,0,1-.16-1.92,9.25,9.25,0,0,1,.16-1.94,2.1,2.1,0,0,1,1.6-1.73,8.22,8.22,0,0,1,1.73-.14,4.63,4.63,0,0,1,1.8.29V37.49c0-.36.22-.54.67-.54S149.26,37.13,149.26,37.49Zm-5.13,4.23a4,4,0,0,0-.16,1.34,15.12,15.12,0,0,0,.06,1.52,1.8,1.8,0,0,0,.38,1q.18.26.87.3l.68,0c.87,0,1.39-.11,1.54-.32a2,2,0,0,0,.39-1,10.63,10.63,0,0,0,.05-1.14,4.05,4.05,0,0,0-.32-2.11,2.49,2.49,0,0,0-.26-.28,1.84,1.84,0,0,0-1.05-.2h-1a1.15,1.15,0,0,0-.87.31A3,3,0,0,0,144.13,41.72Z"/><path class="cls-1" d="M162.2,47c-.4,0-.65-.13-.74-.4l-1-2.78h-3.81l-1,2.78c-.09.27-.34.4-.75.4s-.62-.19-.62-.56a.49.49,0,0,1,.05-.24l3-8.16a1.33,1.33,0,0,1,.46-.62,1.16,1.16,0,0,1,.75-.24,1.07,1.07,0,0,1,.73.24,1.43,1.43,0,0,1,.47.62l3,8.16,0,.24C162.81,46.81,162.61,47,162.2,47Zm-3.64-8.49-1.48,4.12h3l-1.47-4.12Z"/><path class="cls-1" d="M171.16,44.1a2.81,2.81,0,0,1-.88,2.3,4.8,4.8,0,0,1-3,.72,12.11,12.11,0,0,1-2.4-.19c-.57-.13-.85-.38-.84-.74a.67.67,0,0,1,.14-.45.45.45,0,0,1,.36-.18,5.76,5.76,0,0,1,1,.17,8,8,0,0,0,1.62.16,4.33,4.33,0,0,0,2.07-.35,1.37,1.37,0,0,0,.58-1.29,1.3,1.3,0,0,0-.29-.92,1.45,1.45,0,0,0-.77-.44c-.33-.06-.7-.11-1.1-.15a6.91,6.91,0,0,1-2.33-.53,1.93,1.93,0,0,1-.82-.83,3.15,3.15,0,0,1-.31-1.5,2.36,2.36,0,0,1,.91-2.1,5.5,5.5,0,0,1,3.08-.64,8.57,8.57,0,0,1,2,.18c.45.12.68.34.68.64a.58.58,0,0,1-.17.43.53.53,0,0,1-.43.15,9.2,9.2,0,0,1-1-.1,10.28,10.28,0,0,0-1.33-.11,3.55,3.55,0,0,0-1.88.35,1.16,1.16,0,0,0-.52,1,1.4,1.4,0,0,0,1.2,1.52,7,7,0,0,0,1.1.19,7.32,7.32,0,0,1,2.23.5,1.77,1.77,0,0,1,.79.77A2.93,2.93,0,0,1,171.16,44.1Z"/><path class="cls-1" d="M180.56,47c-.41,0-.66-.13-.75-.4l-1-2.78H175l-1,2.78c-.09.27-.34.4-.75.4s-.61-.19-.62-.56a.64.64,0,0,1,.05-.24l3-8.16a1.21,1.21,0,0,1,.46-.62,1.13,1.13,0,0,1,.75-.24,1.09,1.09,0,0,1,.73.24,1.41,1.41,0,0,1,.46.62l3,8.16,0,.24C181.17,46.81,181,47,180.56,47Zm-3.64-8.49-1.49,4.12h3l-1.48-4.12Z"/><path class="cls-1" d="M31,82.84a27,27,0,0,1,2.38-4.29l1-.1a31.32,31.32,0,0,0-1.77,4.21Zm2.69,0A26.29,26.29,0,0,1,36,78.55l1-.1a28.93,28.93,0,0,0-1.77,4.21Z"/><path class="cls-1" d="M40.17,78.64l-2.3,12.14h-1.5l2.31-12.14Z"/><path class="cls-1" d="M40.53,90.78,41.7,84.6c.2-1,.31-1.81.41-2.53h1.34l-.22,1.71h0a3.79,3.79,0,0,1,3.22-1.91A2.14,2.14,0,0,1,48.7,84.3a8.35,8.35,0,0,1-.16,1.4l-1,5.08H46.08l1-5a6,6,0,0,0,.13-1.12c0-.88-.35-1.53-1.37-1.53s-2.58,1.28-3,3.44L42,90.78Z"/><path class="cls-1" d="M50.14,90.78l1.17-6.18c.2-1,.31-1.81.42-2.53h1.33l-.22,1.71h0a3.79,3.79,0,0,1,3.22-1.91,2.14,2.14,0,0,1,2.22,2.43,8.44,8.44,0,0,1-.17,1.4l-1,5.08H55.69l1-5a6,6,0,0,0,.13-1.12c0-.88-.34-1.53-1.37-1.53s-2.58,1.28-3,3.44l-.79,4.23Z"/><path class="cls-1" d="M68.11,85.5c0,2.69-1.91,5.48-4.83,5.48a3.32,3.32,0,0,1-3.4-3.59c0-2.86,2-5.52,4.83-5.52A3.32,3.32,0,0,1,68.11,85.5Zm-6.68,1.84c0,1.42.77,2.45,2,2.45,1.77,0,3.1-2.27,3.1-4.3a2.16,2.16,0,0,0-2-2.43C62.67,83.06,61.41,85.34,61.43,87.34Z"/><path class="cls-1" d="M69.37,90.78l1.42-7.54H69.64l.21-1.17H71l.09-.45a5.1,5.1,0,0,1,1.42-3.05,3.11,3.11,0,0,1,2.08-.77,2.39,2.39,0,0,1,1.18.23l-.32,1.19a2.1,2.1,0,0,0-.88-.16c-1.19,0-1.77,1.15-2,2.59l-.07.42h1.94l-.23,1.17H72.28l-1.44,7.54Z"/><path class="cls-1" d="M79.9,90.78a22,22,0,0,1,.2-2.25h0c-1,1.8-2.14,2.45-3.39,2.45a2.58,2.58,0,0,1-2.5-2.88,6.08,6.08,0,0,1,6-6.23,8,8,0,0,1,2.34.34l-.88,4.54a20.21,20.21,0,0,0-.38,4Zm1-7.6a4.31,4.31,0,0,0-1-.12c-2.26,0-4.09,2.35-4.11,4.77,0,1,.34,1.92,1.49,1.92s2.72-1.62,3.16-3.94Z"/><path class="cls-1" d="M89.51,90.44A6.12,6.12,0,0,1,87,91a3.13,3.13,0,0,1-3.35-3.37A5.51,5.51,0,0,1,89,81.89a4.55,4.55,0,0,1,1.82.37l-.43,1.19a3.46,3.46,0,0,0-1.48-.32c-2.27,0-3.69,2.23-3.69,4.28a2.06,2.06,0,0,0,2.16,2.33,4.55,4.55,0,0,0,2-.49Z"/><path class="cls-1" d="M95.14,79.72l-.45,2.35h2.09l-.23,1.17H94.46l-.81,4.23a7.51,7.51,0,0,0-.16,1.4.73.73,0,0,0,.82.83,4.93,4.93,0,0,0,.71,0l-.08,1.17a3.7,3.7,0,0,1-1.15.16A1.61,1.61,0,0,1,92,89.29a7.81,7.81,0,0,1,.18-1.64L93,83.24H91.74L92,82.07h1.25l.37-2Z"/><path class="cls-1" d="M105.15,85.5c0,2.69-1.91,5.48-4.82,5.48a3.33,3.33,0,0,1-3.41-3.59c0-2.86,2-5.52,4.83-5.52A3.32,3.32,0,0,1,105.15,85.5Zm-6.68,1.84c0,1.42.78,2.45,2,2.45,1.77,0,3.1-2.27,3.1-4.3a2.15,2.15,0,0,0-2-2.43C99.71,83.06,98.45,85.34,98.47,87.34Z"/><path class="cls-1" d="M106.19,90.78l1.07-5.62c.21-1.13.36-2.28.45-3.09H109c-.07.61-.14,1.22-.23,1.89h0a3.14,3.14,0,0,1,2.66-2.09l.42,0-.29,1.48a1.9,1.9,0,0,0-.4,0c-1.29,0-2.44,1.57-2.82,3.6l-.72,3.84Z"/><path class="cls-1" d="M115.21,90.78,117.64,78h1.5l-2.45,12.78Z"/><path class="cls-1" d="M125.6,90.28a6.11,6.11,0,0,1-2.88.68c-2.31,0-3.32-1.57-3.32-3.49,0-2.63,1.95-5.6,4.76-5.6a2.26,2.26,0,0,1,2.55,2.23c0,2.29-2.57,2.9-5.79,2.84a3.63,3.63,0,0,0,.18,1.66A2,2,0,0,0,123,89.77a4.83,4.83,0,0,0,2.34-.61ZM123.94,83c-1.42,0-2.48,1.38-2.84,2.75,2.34,0,4.17-.29,4.17-1.64C125.27,83.43,124.73,83,123.94,83Z"/><path class="cls-1" d="M129.41,82.07l.76,5c.13,1,.23,1.66.27,2.15h.05a20.55,20.55,0,0,1,.92-2l2.67-5.07h1.63l-4.84,8.71H129.4l-1.52-8.71Z"/><path class="cls-1" d="M141.8,90.28a6.11,6.11,0,0,1-2.88.68c-2.31,0-3.32-1.57-3.32-3.49,0-2.63,2-5.6,4.76-5.6a2.26,2.26,0,0,1,2.55,2.23c0,2.29-2.57,2.9-5.79,2.84a3.5,3.5,0,0,0,.18,1.66,2,2,0,0,0,1.94,1.17,4.83,4.83,0,0,0,2.34-.61ZM140.14,83c-1.42,0-2.48,1.38-2.84,2.75,2.34,0,4.17-.29,4.17-1.64C141.47,83.43,140.93,83,140.14,83Z"/><path class="cls-1" d="M143.67,90.78l1.06-5.62c.22-1.13.36-2.28.45-3.09h1.32c-.08.61-.15,1.22-.24,1.89h.05A3.16,3.16,0,0,1,149,81.87l.41,0-.28,1.48a2,2,0,0,0-.4,0c-1.3,0-2.45,1.57-2.83,3.6l-.72,3.84Z"/><path class="cls-1" d="M155.57,90.28a6.11,6.11,0,0,1-2.88.68c-2.31,0-3.32-1.57-3.32-3.49,0-2.63,1.95-5.6,4.76-5.6a2.26,2.26,0,0,1,2.55,2.23c0,2.29-2.57,2.9-5.79,2.84a3.5,3.5,0,0,0,.18,1.66A2,2,0,0,0,153,89.77a4.83,4.83,0,0,0,2.34-.61ZM153.91,83c-1.42,0-2.48,1.38-2.84,2.75,2.34,0,4.17-.29,4.17-1.64C155.24,83.43,154.7,83,153.91,83Z"/><path class="cls-1" d="M157.44,90.78l1.06-5.62c.22-1.13.36-2.28.45-3.09h1.32c-.08.61-.15,1.22-.24,1.89h.05a3.16,3.16,0,0,1,2.67-2.09l.41,0-.28,1.48a2,2,0,0,0-.4,0c-1.3,0-2.45,1.57-2.83,3.6l-.72,3.84Z"/><path class="cls-1" d="M16.39,112.38l1.43-7.54H16.66l.22-1.17h1.17l.09-.45a5.1,5.1,0,0,1,1.42-3,3.1,3.1,0,0,1,2.07-.77,2.44,2.44,0,0,1,1.19.23l-.32,1.19a2.15,2.15,0,0,0-.89-.16c-1.18,0-1.76,1.15-2,2.59l-.07.42h1.94l-.23,1.17H19.31l-1.44,7.54Z"/><path class="cls-1" d="M21.14,112.52l1-1.17a3.75,3.75,0,0,1-.77-2.46c0-2.79,2-5.42,4.79-5.42a3.17,3.17,0,0,1,2.08.65l1-1.1.59.5-1,1.15a3.82,3.82,0,0,1,.79,2.38c0,3-2.18,5.53-4.71,5.53a3.28,3.28,0,0,1-2.22-.7l-1,1.18Zm6.25-7.38a1.79,1.79,0,0,0-1.38-.52c-1.89,0-3.08,2.32-3.1,4.09a2.86,2.86,0,0,0,.32,1.44l0,0Zm-3.78,5.73a1.88,1.88,0,0,0,1.44.56c1.6,0,3-2.08,3.06-4.11a3.22,3.22,0,0,0-.29-1.4h0Z"/><path class="cls-1" d="M30.68,112.38l1.07-5.62c.21-1.13.36-2.28.45-3.09h1.31c-.07.61-.14,1.22-.23,1.89h0A3.16,3.16,0,0,1,36,103.47l.41,0L36.12,105a1.87,1.87,0,0,0-.39,0c-1.3,0-2.45,1.57-2.83,3.6l-.72,3.84Z"/><path class="cls-1" d="M36.48,110.87a4,4,0,0,0,1.87.54A1.51,1.51,0,0,0,40,110c0-.69-.31-1.1-1.21-1.61a2.59,2.59,0,0,1-1.56-2.21,2.87,2.87,0,0,1,3.15-2.7,3.62,3.62,0,0,1,1.82.43L41.79,105a3.09,3.09,0,0,0-1.51-.39A1.4,1.4,0,0,0,38.73,106c0,.63.42,1,1.19,1.46a2.75,2.75,0,0,1,1.64,2.29c0,1.83-1.5,2.86-3.33,2.86a3.85,3.85,0,0,1-2.16-.59Z"/><path class="cls-1" d="M47,101.32l-.45,2.35h2.09l-.24,1.17H46.35l-.81,4.23a6.78,6.78,0,0,0-.17,1.4.74.74,0,0,0,.83.83,4.79,4.79,0,0,0,.7,0l-.07,1.17a3.7,3.7,0,0,1-1.15.16,1.62,1.62,0,0,1-1.84-1.69,8.53,8.53,0,0,1,.18-1.64l.87-4.41H43.63l.23-1.17H45.1l.38-2Z"/><path class="cls-1" d="M55,111.88a6.11,6.11,0,0,1-2.88.68c-2.31,0-3.32-1.57-3.32-3.49,0-2.63,1.95-5.6,4.76-5.6a2.26,2.26,0,0,1,2.55,2.23c0,2.29-2.57,2.9-5.79,2.84a3.5,3.5,0,0,0,.18,1.66,2,2,0,0,0,1.94,1.17,4.83,4.83,0,0,0,2.34-.61Zm-1.66-7.24c-1.42,0-2.48,1.38-2.84,2.75,2.34,0,4.17-.29,4.17-1.64C54.64,105,54.1,104.64,53.31,104.64Z"/><path class="cls-1" d="M56.86,112.38,59.27,99.6h1.49l-1.53,8h0c.27-.31.59-.63.81-.88l3.08-3.06H65l-3.79,3.58,2.61,5.13H62.15l-2.09-4.3-1.1,1-.63,3.31Z"/><path class="cls-1" d="M65.19,112.38,67.62,99.6h1.49l-2.44,12.78Z"/><path class="cls-1" d="M75.07,112.38a22,22,0,0,1,.2-2.25h0c-1,1.8-2.14,2.45-3.38,2.45a2.58,2.58,0,0,1-2.5-2.88,6.08,6.08,0,0,1,6-6.23,8,8,0,0,1,2.34.34l-.88,4.54a19.49,19.49,0,0,0-.38,4Zm1-7.6a4.42,4.42,0,0,0-1-.12c-2.25,0-4.09,2.35-4.1,4.77,0,1,.34,1.92,1.49,1.92s2.72-1.62,3.15-3.94Z"/><path class="cls-1" d="M78.76,110.87a4,4,0,0,0,1.87.54A1.51,1.51,0,0,0,82.29,110c0-.69-.31-1.1-1.21-1.61a2.61,2.61,0,0,1-1.56-2.21,2.87,2.87,0,0,1,3.15-2.7,3.62,3.62,0,0,1,1.82.43L84.07,105a3.09,3.09,0,0,0-1.51-.39A1.4,1.4,0,0,0,81,106c0,.63.42,1,1.19,1.46a2.75,2.75,0,0,1,1.64,2.29c0,1.83-1.5,2.86-3.33,2.86a3.85,3.85,0,0,1-2.16-.59Z"/><path class="cls-1" d="M85.48,110.87a4,4,0,0,0,1.87.54A1.5,1.5,0,0,0,89,110c0-.69-.3-1.1-1.2-1.61a2.6,2.6,0,0,1-1.57-2.21,2.87,2.87,0,0,1,3.15-2.7,3.59,3.59,0,0,1,1.82.43L90.79,105a3.16,3.16,0,0,0-1.52-.39A1.39,1.39,0,0,0,87.73,106c0,.63.41,1,1.18,1.46a2.73,2.73,0,0,1,1.64,2.29c0,1.83-1.49,2.86-3.33,2.86a3.9,3.9,0,0,1-2.16-.59Z"/><path class="cls-1" d="M98.4,111.88a6.11,6.11,0,0,1-2.88.68c-2.3,0-3.31-1.57-3.31-3.49,0-2.63,1.94-5.6,4.75-5.6a2.27,2.27,0,0,1,2.56,2.23c0,2.29-2.58,2.9-5.8,2.84a3.63,3.63,0,0,0,.18,1.66,2,2,0,0,0,1.94,1.17,4.83,4.83,0,0,0,2.34-.61Zm-1.66-7.24c-1.42,0-2.48,1.38-2.84,2.75,2.34,0,4.18-.29,4.18-1.64C98.08,105,97.54,104.64,96.74,104.64Z"/><path class="cls-1" d="M100.34,110.87a4,4,0,0,0,1.88.54,1.5,1.5,0,0,0,1.65-1.42c0-.69-.3-1.1-1.2-1.61a2.6,2.6,0,0,1-1.57-2.21,2.87,2.87,0,0,1,3.15-2.7,3.62,3.62,0,0,1,1.82.43l-.42,1.13a3.09,3.09,0,0,0-1.51-.39,1.4,1.4,0,0,0-1.55,1.31c0,.63.42,1,1.19,1.46a2.75,2.75,0,0,1,1.64,2.29c0,1.83-1.49,2.86-3.33,2.86a3.85,3.85,0,0,1-2.16-.59Z"/><path class="cls-1" d="M110.28,112.38l2.43-12.78h1.49l-2.45,12.78Z"/><path class="cls-1" d="M114.26,112.52l1-1.17a3.75,3.75,0,0,1-.77-2.46c0-2.79,2-5.42,4.79-5.42a3.2,3.2,0,0,1,2.09.65l1-1.1.59.5-1,1.15a3.82,3.82,0,0,1,.79,2.38c0,3-2.17,5.53-4.71,5.53a3.28,3.28,0,0,1-2.22-.7l-1,1.18Zm6.24-7.38a1.78,1.78,0,0,0-1.38-.52c-1.89,0-3.08,2.32-3.1,4.09a2.86,2.86,0,0,0,.32,1.44l0,0Zm-3.78,5.73a1.88,1.88,0,0,0,1.44.56c1.61,0,3-2.08,3.06-4.11a3.37,3.37,0,0,0-.28-1.4h0Z"/><path class="cls-1" d="M123.87,110.87a4,4,0,0,0,1.87.54A1.51,1.51,0,0,0,127.4,110c0-.69-.31-1.1-1.21-1.61a2.6,2.6,0,0,1-1.57-2.21,2.87,2.87,0,0,1,3.16-2.7,3.54,3.54,0,0,1,1.81.43l-.41,1.13a3.12,3.12,0,0,0-1.51-.39,1.4,1.4,0,0,0-1.55,1.31c0,.63.41,1,1.19,1.46A2.75,2.75,0,0,1,129,109.7c0,1.83-1.5,2.86-3.34,2.86a3.9,3.9,0,0,1-2.16-.59Z"/><path class="cls-1" d="M130.51,112.38l1.17-6.18c.2-1,.31-1.81.41-2.53h1.34l-.22,1.71h0a3.79,3.79,0,0,1,3.22-1.91,2.14,2.14,0,0,1,2.21,2.43,8.35,8.35,0,0,1-.16,1.4l-1,5.08h-1.49l.95-5a6,6,0,0,0,.13-1.12c0-.88-.35-1.53-1.37-1.53s-2.58,1.28-3,3.44l-.8,4.23Z"/><path class="cls-1" d="M140.12,112.38l1.68-8.71h1.49l-1.67,8.71Zm1.95-11.15a1,1,0,0,1,1-1,.86.86,0,0,1,.88.93,1,1,0,0,1-1,1A.86.86,0,0,1,142.07,101.23Z"/><path class="cls-1" d="M144.24,112.38l1.17-6.18c.2-1,.31-1.81.42-2.53h1.33l-.22,1.71h0a3.79,3.79,0,0,1,3.22-1.91,2.14,2.14,0,0,1,2.22,2.43,8.35,8.35,0,0,1-.16,1.4l-1,5.08h-1.49l1-5a5.27,5.27,0,0,0,.13-1.12c0-.88-.34-1.53-1.37-1.53s-2.57,1.28-3,3.44l-.79,4.23Z"/><path class="cls-1" d="M154,114.36a4.63,4.63,0,0,0,2.3.58c1.46,0,2.61-.76,3.13-3.12l.29-1.29h0a3.48,3.48,0,0,1-3,1.85,2.75,2.75,0,0,1-2.64-3,5.68,5.68,0,0,1,5.52-5.88,7.14,7.14,0,0,1,2.79.61l-1.33,7.2c-.36,1.84-.85,3.12-1.76,3.89a4.6,4.6,0,0,1-3,1,5.18,5.18,0,0,1-2.61-.61Zm6.68-9.4a3.8,3.8,0,0,0-1.45-.29c-2.17,0-3.67,2.27-3.69,4.43,0,1,.35,2.09,1.68,2.09s2.57-1.62,2.9-3.33Z"/><path class="cls-1" d="M169.57,111.88a6.11,6.11,0,0,1-2.88.68c-2.31,0-3.31-1.57-3.31-3.49,0-2.63,1.94-5.6,4.75-5.6a2.27,2.27,0,0,1,2.56,2.23c0,2.29-2.58,2.9-5.8,2.84a3.63,3.63,0,0,0,.18,1.66,2,2,0,0,0,1.94,1.17,4.83,4.83,0,0,0,2.34-.61Zm-1.66-7.24c-1.42,0-2.48,1.38-2.84,2.75,2.34,0,4.18-.29,4.18-1.64C169.25,105,168.71,104.64,167.91,104.64Z"/><path class="cls-1" d="M171.44,112.38l1.06-5.62c.22-1.13.36-2.28.45-3.09h1.32c-.07.61-.15,1.22-.24,1.89h.06a3.14,3.14,0,0,1,2.66-2.09l.42,0-.29,1.48a2,2,0,0,0-.4,0c-1.29,0-2.45,1.57-2.82,3.6l-.72,3.84Z"/><path class="cls-1" d="M27.55,134l1.68-8.72h1.49L29.05,134Zm1.95-11.15a1,1,0,0,1,1-1,.86.86,0,0,1,.88.93,1,1,0,0,1-1,1A.86.86,0,0,1,29.5,122.83Z"/><path class="cls-1" d="M31.67,134l1.17-6.18c.2-1,.31-1.81.42-2.54h1.33L34.38,127h0a3.81,3.81,0,0,1,3.22-1.91,2.14,2.14,0,0,1,2.22,2.43,8.35,8.35,0,0,1-.16,1.4l-1,5.08H37.22l1-5a5.27,5.27,0,0,0,.13-1.12c0-.88-.34-1.53-1.37-1.53s-2.57,1.28-3,3.44L33.17,134Z"/><path class="cls-1" d="M41.29,134l1.17-6.18c.19-1,.3-1.81.41-2.54H44.2L44,127h0a3.82,3.82,0,0,1,3.23-1.91,2.14,2.14,0,0,1,2.21,2.43,8.35,8.35,0,0,1-.16,1.4l-1,5.08h-1.5l1-5a6,6,0,0,0,.12-1.12c0-.88-.34-1.53-1.37-1.53s-2.57,1.28-3,3.44L42.78,134Z"/><path class="cls-1" d="M57.18,133.48a6.11,6.11,0,0,1-2.88.68c-2.3,0-3.31-1.57-3.31-3.49,0-2.63,1.94-5.6,4.75-5.6a2.27,2.27,0,0,1,2.56,2.23c0,2.29-2.58,2.9-5.8,2.84a3.63,3.63,0,0,0,.18,1.66,2,2,0,0,0,2,1.17,4.86,4.86,0,0,0,2.34-.61Zm-1.66-7.24c-1.42,0-2.48,1.38-2.84,2.75,2.34,0,4.18-.29,4.18-1.64C56.86,126.63,56.32,126.24,55.52,126.24Z"/><path class="cls-1" d="M59.05,134l1.17-6.18c.2-1,.31-1.81.42-2.54H62L61.75,127h0A3.79,3.79,0,0,1,65,125.07a2.14,2.14,0,0,1,2.22,2.43,8.44,8.44,0,0,1-.17,1.4l-1,5.08H64.6l1-5a6,6,0,0,0,.13-1.12c0-.88-.34-1.53-1.37-1.53s-2.58,1.28-3,3.44L60.55,134Z"/><path class="cls-1" d="M72,132.47a4,4,0,0,0,1.87.54,1.51,1.51,0,0,0,1.66-1.43c0-.68-.31-1.09-1.21-1.6a2.61,2.61,0,0,1-1.56-2.21,2.87,2.87,0,0,1,3.15-2.7,3.62,3.62,0,0,1,1.82.43l-.42,1.13a3.09,3.09,0,0,0-1.51-.39,1.4,1.4,0,0,0-1.55,1.31c0,.63.42,1,1.19,1.46a2.75,2.75,0,0,1,1.64,2.29c0,1.83-1.5,2.86-3.33,2.86a3.85,3.85,0,0,1-2.16-.59Z"/><path class="cls-1" d="M78.67,134l2.41-12.78h1.5l-1.53,8h0c.27-.31.6-.63.81-.88L85,125.26h1.84L83,128.85,85.62,134H84l-2.08-4.3-1.1,1L80.15,134Z"/><path class="cls-1" d="M88.91,125.26l.87,4.7c.2,1,.3,1.64.39,2.29h0c.23-.56.49-1.17.94-2.12l2.21-4.87H95l-3.26,6.63a16.25,16.25,0,0,1-3,4.57A5.48,5.48,0,0,1,86.14,138l-.36-1.28a5.87,5.87,0,0,0,1.6-.85,6.69,6.69,0,0,0,1.68-2,.59.59,0,0,0,0-.39l-1.74-8.2Z"/><path class="cls-1" d="M95,132.47a4,4,0,0,0,1.87.54,1.5,1.5,0,0,0,1.65-1.43c0-.68-.3-1.09-1.2-1.6a2.6,2.6,0,0,1-1.57-2.21,2.87,2.87,0,0,1,3.15-2.7,3.59,3.59,0,0,1,1.82.43l-.41,1.13a3.16,3.16,0,0,0-1.52-.39,1.39,1.39,0,0,0-1.54,1.31c0,.63.41,1,1.18,1.46a2.73,2.73,0,0,1,1.64,2.29c0,1.83-1.49,2.86-3.33,2.86a3.9,3.9,0,0,1-2.16-.59Z"/><path class="cls-1" d="M101.66,134l1.67-8.72h1.5L103.15,134Zm1.94-11.15a1,1,0,0,1,1-1,.86.86,0,0,1,.88.93,1,1,0,0,1-1,1A.87.87,0,0,1,103.6,122.83Z"/><path class="cls-1" d="M105.8,134l2.41-12.78h1.49l-1.53,8h0c.27-.31.59-.63.81-.88l3.08-3.07h1.84l-3.8,3.59,2.61,5.13h-1.66l-2.09-4.3-1.1,1-.63,3.31Z"/><path class="cls-1" d="M114.13,134l2.41-12.78H118l-1.53,8h0c.27-.31.6-.63.81-.88l3.08-3.07h1.84l-3.8,3.59,2.61,5.13h-1.66l-2.09-4.3-1.09,1-.63,3.31Z"/><path class="cls-1" d="M128.35,133.48a6.11,6.11,0,0,1-2.88.68c-2.3,0-3.31-1.57-3.31-3.49,0-2.63,1.94-5.6,4.75-5.6a2.27,2.27,0,0,1,2.56,2.23c0,2.29-2.58,2.9-5.8,2.84a3.63,3.63,0,0,0,.18,1.66,2,2,0,0,0,2,1.17,4.86,4.86,0,0,0,2.34-.61Zm-1.65-7.24c-1.43,0-2.49,1.38-2.85,2.75,2.34,0,4.18-.29,4.18-1.64C128,126.63,127.49,126.24,126.7,126.24Z"/><path class="cls-1" d="M130.22,134l1.06-5.62c.22-1.13.37-2.28.45-3.1h1.32c-.07.62-.14,1.23-.23,1.9h.05a3.14,3.14,0,0,1,2.66-2.09,2.77,2.77,0,0,1,.42,0l-.29,1.48a1.9,1.9,0,0,0-.4,0c-1.29,0-2.44,1.57-2.82,3.6l-.72,3.84Z"/><path class="cls-1" d="M136,134l2.43-12.78h1.49l-1.08,5.61h0a3.73,3.73,0,0,1,3.11-1.74,2.11,2.11,0,0,1,2.16,2.34,8,8,0,0,1-.14,1.47l-1,5.1h-1.5l1-5a6.58,6.58,0,0,0,.11-1.21,1.27,1.27,0,0,0-1.35-1.44c-1.15,0-2.61,1.35-3,3.31l-.81,4.36Z"/><path class="cls-1" d="M151.84,133.48a6.11,6.11,0,0,1-2.88.68c-2.3,0-3.31-1.57-3.31-3.49,0-2.63,1.94-5.6,4.75-5.6A2.27,2.27,0,0,1,153,127.3c0,2.29-2.58,2.9-5.8,2.84a3.63,3.63,0,0,0,.18,1.66,2,2,0,0,0,1.95,1.17,4.86,4.86,0,0,0,2.34-.61Zm-1.65-7.24c-1.43,0-2.49,1.38-2.85,2.75,2.34,0,4.18-.29,4.18-1.64C151.52,126.63,151,126.24,150.19,126.24Z"/><path class="cls-1" d="M157.62,122.92l-.45,2.34h2.09l-.24,1.18h-2.09l-.8,4.23a6.78,6.78,0,0,0-.17,1.4.74.74,0,0,0,.83.83,3.73,3.73,0,0,0,.7-.06l-.07,1.18a3.7,3.7,0,0,1-1.15.16,1.62,1.62,0,0,1-1.84-1.69,8.53,8.53,0,0,1,.18-1.64l.87-4.41h-1.26l.23-1.18h1.24l.38-2Z"/><path class="cls-1" d="M163.65,121.65a25.18,25.18,0,0,1-2.36,4.26l-1,.13a35.15,35.15,0,0,0,1.77-4.23Zm2.7,0a26.57,26.57,0,0,1-2.38,4.26l-1,.13a33.59,33.59,0,0,0,1.76-4.23Z"/></svg>