<svg id="Layer_1" data-name="Layer 1" xmlns="http://www.w3.org/2000/svg" viewBox="0 0 300 250"><defs><style>.cls-1{fill:#fff;}</style></defs><title>text</title><path class="cls-1" d="M154.18,26.2h7.5c.45,0,.67.3.67.9s-.22.9-.67.9h-8.49c-.66,0-1-.26-1-.79V14.5c0-.53.33-.8,1-.8h8.49c.45,0,.67.3.67.9s-.22.91-.67.91h-7.5V19.6h6q.69,0,.69.9t-.69.9h-6Z"/><path class="cls-1" d="M166.73,21.75v5.48c0,.51-.33.77-1,.77s-1-.26-1-.77V21.49a6.92,6.92,0,0,1,.35-2.74,3.63,3.63,0,0,1,.65-.93c.47-.43,1.65-.65,3.54-.65a6.49,6.49,0,0,1,1.92.19.7.7,0,0,1,.48.7,1,1,0,0,1-.27.76.89.89,0,0,1-.68.25L169.29,19a6.3,6.3,0,0,0-1.68.13,1.42,1.42,0,0,0-.5.25,1.6,1.6,0,0,0-.23.49,2.23,2.23,0,0,0-.14.77C166.73,20.89,166.73,21.26,166.73,21.75Z"/><path class="cls-1" d="M188.29,14.06v8.71a13.14,13.14,0,0,1-.24,2.81,3.09,3.09,0,0,1-.87,1.64,3.21,3.21,0,0,1-1.46.76,10.58,10.58,0,0,1-2.28.19,11.71,11.71,0,0,1-2.31-.18,3.23,3.23,0,0,1-1.48-.76,2.92,2.92,0,0,1-.86-1.65,14.59,14.59,0,0,1-.24-2.81,12.88,12.88,0,0,1,.25-2.85,3,3,0,0,1,2.33-2.53,10.88,10.88,0,0,1,2.54-.22,6.52,6.52,0,0,1,2.64.44V14.06c0-.53.33-.8,1-.8S188.29,13.53,188.29,14.06Zm-7.52,6.19a5.6,5.6,0,0,0-.24,2c0,.93,0,1.68.07,2.23a2.69,2.69,0,0,0,.56,1.45,1.78,1.78,0,0,0,1.29.45l1,0c1.28,0,2-.16,2.27-.47a3,3,0,0,0,.57-1.46c.05-.53.07-1.08.07-1.66,0-1.71-.16-2.74-.48-3.1a2.48,2.48,0,0,0-.38-.4A2.61,2.61,0,0,0,184,19c-.79,0-1.3,0-1.51,0-.67,0-1.1.19-1.28.45A4.58,4.58,0,0,0,180.77,20.25Z"/><path class="cls-1" d="M199.45,26.11c.45,0,.67.27.67.82a.88.88,0,0,1-.67,1,16.62,16.62,0,0,1-3.58.26,6.13,6.13,0,0,1-3.6-.81,3.27,3.27,0,0,1-1.1-2.74v-4a3.14,3.14,0,0,1,1-2.72,10.15,10.15,0,0,1,7.33,0c.63.44.94,1.36.94,2.75v1.74a1.17,1.17,0,0,1-.29.84,1,1,0,0,1-.74.3h-6.25v1.28c0,1.09.94,1.62,2.83,1.62a17.12,17.12,0,0,0,2.15-.13A10.51,10.51,0,0,1,199.45,26.11Zm-6.3-5.52v1.14h5.31V20.59a1.39,1.39,0,0,0-.54-1.28,4.47,4.47,0,0,0-2.09-.33,4.79,4.79,0,0,0-2.11.31A1.4,1.4,0,0,0,193.15,20.59Z"/><path class="cls-1" d="M207.09,28a2.78,2.78,0,0,1-2.1-.64,3.29,3.29,0,0,1-.59-2.21V19.09H203q-.66,0-.66-.87t.66-.87h1.39V14.56c0-.52.33-.77,1-.77s1,.25,1,.77v2.79h2.8q.66,0,.66.87t-.66.87h-2.8V25.3c0,.6.35.9,1.07.9l1.87-.11c.46,0,.69.26.69.79a1,1,0,0,1-.71,1.06C208.82,28,208.09,28,207.09,28Z"/><path class="cls-1" d="M221,28a2.79,2.79,0,0,1-2.1-.64,3.29,3.29,0,0,1-.59-2.21V19.09h-1.39q-.66,0-.66-.87t.66-.87h1.39V14.56c0-.52.33-.77,1-.77s1,.25,1,.77v2.79h2.8c.44,0,.67.29.67.87s-.23.87-.67.87h-2.8V25.3c0,.6.35.9,1.07.9l1.87-.11c.46,0,.69.26.69.79a1,1,0,0,1-.71,1.06C222.74,28,222,28,221,28Z"/><path class="cls-1" d="M227.92,21.75v5.48c0,.51-.32.77-1,.77s-1-.26-1-.77V21.49a6.74,6.74,0,0,1,.35-2.74,3.63,3.63,0,0,1,.65-.93c.47-.43,1.65-.65,3.54-.65a6.4,6.4,0,0,1,1.91.19.7.7,0,0,1,.49.7,1,1,0,0,1-.27.76.89.89,0,0,1-.68.25L230.49,19a6.44,6.44,0,0,0-1.69.13,1.44,1.44,0,0,0-.49.25,1.82,1.82,0,0,0-.24.49,2.83,2.83,0,0,0-.14.77C227.93,20.89,227.92,21.26,227.92,21.75Z"/><path class="cls-1" d="M237.31,32.29c-.56,0-.85-.26-.86-.77l.08-.35L237.71,28a1.84,1.84,0,0,1-1.07-1.14l-3.13-8.39c0-.22-.06-.34-.06-.35q0-.78.84-.78a1,1,0,0,1,1.07.58l2.95,8.28h.11l2.94-8.28c.15-.38.5-.57,1.07-.57s.84.26.84.77c0,0,0,.13-.06.35l-4.83,13.25C238.23,32.1,237.88,32.29,237.31,32.29Z"/><path class="cls-1" d="M253,16.13c0-.46.33-.7,1-.7s1,.24,1,.73v4.65c0,1.39-.35,2.29-1,2.73a6.79,6.79,0,0,1-3.47.66,15.55,15.55,0,0,1-3.22-.21v1.7h4a4.47,4.47,0,0,1,3.06.78,3.69,3.69,0,0,1,.79,2.64A2.8,2.8,0,0,1,254,31.65a7.55,7.55,0,0,1-3.81.69,8.47,8.47,0,0,1-3.84-.62,2.68,2.68,0,0,1-1.12-2.55V20.52a3.63,3.63,0,0,1,.61-2.4,3.34,3.34,0,0,1,2.33-.84,18.74,18.74,0,0,1,4.79.22Zm-5.75,4.64c0,.79.15,1.27.44,1.44a5.44,5.44,0,0,0,2.12.25,9.28,9.28,0,0,0,2.28-.18,1.1,1.1,0,0,0,.76-.53,3.41,3.41,0,0,0,.15-1.2v-1.3a22.33,22.33,0,0,0-3.14-.23,4.55,4.55,0,0,0-2,.32,1.42,1.42,0,0,0-.59,1.35Zm0,6.66v1.82a1.05,1.05,0,0,0,.7,1,6.29,6.29,0,0,0,2.33.31,4.82,4.82,0,0,0,2.17-.33A1.3,1.3,0,0,0,253,29a1.35,1.35,0,0,0-.53-1.26,3.82,3.82,0,0,0-1.93-.34Z"/><path class="cls-1" d="M261.25,28a2.79,2.79,0,0,1-2.1-.64,3.29,3.29,0,0,1-.59-2.21V19.09h-1.39q-.66,0-.66-.87t.66-.87h1.39V14.56c0-.52.33-.77,1-.77s1,.25,1,.77v2.79h2.8c.44,0,.67.29.67.87s-.23.87-.67.87h-2.8V25.3c0,.6.36.9,1.07.9l1.87-.11c.46,0,.69.26.69.79a1,1,0,0,1-.71,1.06C263,28,262.25,28,261.25,28Z"/><path class="cls-1" d="M152.65,45.67c-.45,0-.68-.28-.68-.82a.9.9,0,0,1,.68-1,15.56,15.56,0,0,1,3.57-.29,5.17,5.17,0,0,1,3.37.8,3.56,3.56,0,0,1,.89,2.77v4.24c0,1.33-.32,2.19-1,2.59a7.83,7.83,0,0,1-3.71.6,7.46,7.46,0,0,1-3.66-.6c-.61-.4-.91-1.26-.91-2.58a3.9,3.9,0,0,1,.71-2.71c.48-.51,1.45-.75,2.92-.75h3.64V46.8a1.23,1.23,0,0,0-.51-1.12,3.73,3.73,0,0,0-1.79-.3,14.58,14.58,0,0,0-2.25.15A9.33,9.33,0,0,1,152.65,45.67Zm5.86,5.87V49.67h-3a3.91,3.91,0,0,0-1.83.28c-.28.19-.42.61-.42,1.27s.17,1.09.52,1.28a5.39,5.39,0,0,0,2.1.27,6.12,6.12,0,0,0,2.11-.24A1,1,0,0,0,158.51,51.54Zm-3.84-9.09a2,2,0,0,1-.59-1.45,2,2,0,0,1,.59-1.45,2,2,0,0,1,1.45-.6,1.93,1.93,0,0,1,1.44.6,2,2,0,0,1,.6,1.45,1.94,1.94,0,0,1-.6,1.45,2,2,0,0,1-2.89,0Zm.57-1.45a.87.87,0,0,0,.26.64.88.88,0,0,0,.63.25.85.85,0,0,0,.62-.26A.89.89,0,0,0,157,41a.84.84,0,0,0-.25-.62.89.89,0,0,0-1.26,0A.81.81,0,0,0,155.24,41Z"/><path class="cls-1" d="M171,40.46V53.63c0,.51-.33.77-1,.77s-1-.26-1-.77V40.46c0-.53.33-.8,1-.8S171,39.93,171,40.46Z"/><path class="cls-1" d="M175.36,45.67c-.46,0-.69-.28-.69-.82a.9.9,0,0,1,.69-1,15.56,15.56,0,0,1,3.57-.29,5.19,5.19,0,0,1,3.37.8,3.56,3.56,0,0,1,.89,2.77v4.24c0,1.33-.32,2.19-1,2.59a7.78,7.78,0,0,1-3.7.6,7.53,7.53,0,0,1-3.67-.6c-.63-.4-.94-1.26-.94-2.58a4,4,0,0,1,.71-2.71,4.14,4.14,0,0,1,2.94-.75h3.65V46.8a1.23,1.23,0,0,0-.51-1.12,3.75,3.75,0,0,0-1.79-.3,14.58,14.58,0,0,0-2.25.15A9.33,9.33,0,0,1,175.36,45.67Zm5.86,5.87V49.67h-3.06a3.93,3.93,0,0,0-1.84.28c-.28.19-.42.61-.42,1.27s.17,1.09.52,1.28a5.42,5.42,0,0,0,2.11.27,6.19,6.19,0,0,0,2.12-.24A1,1,0,0,0,181.22,51.54Z"/><path class="cls-1" d="M194,42.53c0-.46.33-.7,1-.7s1,.24,1,.73v4.65c0,1.39-.34,2.29-1,2.73a6.75,6.75,0,0,1-3.46.66,15.67,15.67,0,0,1-3.23-.21v1.7h4a4.47,4.47,0,0,1,3.06.78,3.64,3.64,0,0,1,.79,2.64A2.8,2.8,0,0,1,195,58.05a7.55,7.55,0,0,1-3.81.69,8.53,8.53,0,0,1-3.84-.62,2.68,2.68,0,0,1-1.12-2.55V46.92a3.69,3.69,0,0,1,.61-2.4,3.34,3.34,0,0,1,2.33-.84,18.85,18.85,0,0,1,4.8.22Zm-5.76,4.64c0,.79.15,1.27.44,1.44a5.48,5.48,0,0,0,2.12.25,9.44,9.44,0,0,0,2.29-.18,1.12,1.12,0,0,0,.76-.53A3.41,3.41,0,0,0,194,47v-1.3a22.44,22.44,0,0,0-3.14-.23,4.6,4.6,0,0,0-2,.32,1.44,1.44,0,0,0-.59,1.35Zm0,6.66v1.82a1.06,1.06,0,0,0,.71,1,6.23,6.23,0,0,0,2.32.31,4.76,4.76,0,0,0,2.17-.33,1.31,1.31,0,0,0,.56-1.24,1.37,1.37,0,0,0-.53-1.26,3.86,3.86,0,0,0-1.94-.34Z"/><path class="cls-1" d="M200.54,48.15v5.48c0,.51-.33.77-1,.77s-1-.26-1-.77V47.89a6.74,6.74,0,0,1,.35-2.74,3.4,3.4,0,0,1,.65-.93c.47-.43,1.65-.65,3.54-.65a6.4,6.4,0,0,1,1.91.19.7.7,0,0,1,.48.7,1,1,0,0,1-.26.76.9.9,0,0,1-.68.25l-1.45-.09a6.44,6.44,0,0,0-1.69.13,1.35,1.35,0,0,0-.49.25,1.82,1.82,0,0,0-.24.49,2.83,2.83,0,0,0-.14.77C200.55,47.29,200.54,47.66,200.54,48.15Z"/><path class="cls-1" d="M215.37,52.51c.45,0,.67.27.67.82a.88.88,0,0,1-.67,1,16.62,16.62,0,0,1-3.58.26,6.13,6.13,0,0,1-3.6-.81,3.27,3.27,0,0,1-1.1-2.74V47a3.14,3.14,0,0,1,1-2.72,10.15,10.15,0,0,1,7.33,0c.63.44.94,1.36.94,2.75v1.74a1.17,1.17,0,0,1-.29.84,1,1,0,0,1-.74.3h-6.25v1.28c0,1.09.94,1.62,2.83,1.62a16.83,16.83,0,0,0,2.14-.13A10.79,10.79,0,0,1,215.37,52.51ZM209.07,47v1.14h5.31V47a1.39,1.39,0,0,0-.54-1.28,4.47,4.47,0,0,0-2.09-.33,4.79,4.79,0,0,0-2.11.31A1.4,1.4,0,0,0,209.07,47Z"/><path class="cls-1" d="M158.19,77.57v-.25a.81.81,0,0,0-.52-.76,4.29,4.29,0,0,0-1.79-.24,10.89,10.89,0,0,1-2.84-.4,2.27,2.27,0,0,1-1.29-.87,2.83,2.83,0,0,1-.51-1.76v-.18a2.6,2.6,0,0,1,1.1-2.48,7,7,0,0,1,3.37-.64,14.36,14.36,0,0,1,3.36.29.9.9,0,0,1,.67,1c0,.55-.22.82-.67.82a13.76,13.76,0,0,1-1.39-.14,15.31,15.31,0,0,0-2.2-.15,5.6,5.6,0,0,0-1.72.19c-.37.13-.55.49-.55,1.09v.2c0,.78.82,1.2,2.45,1.25a20.23,20.23,0,0,1,2.05.17,3.08,3.08,0,0,1,1.74.76,2.27,2.27,0,0,1,.71,1.84v.27A3,3,0,0,1,159,80.26a6.84,6.84,0,0,1-3.59.71,15.6,15.6,0,0,1-3.56-.28.89.89,0,0,1-.68-1c0-.54.23-.81.68-.81a14.22,14.22,0,0,1,1.56.14,19.41,19.41,0,0,0,2.25.14,4.56,4.56,0,0,0,1.8-.3A1.25,1.25,0,0,0,158.19,77.57Z"/><path class="cls-1" d="M171.09,78.91c.45,0,.67.27.67.82a.88.88,0,0,1-.67,1,16.56,16.56,0,0,1-3.58.26,6.13,6.13,0,0,1-3.6-.81,3.23,3.23,0,0,1-1.09-2.74v-4a3.14,3.14,0,0,1,1-2.72,10.15,10.15,0,0,1,7.33,0c.63.44,1,1.36,1,2.75v1.74a1.22,1.22,0,0,1-.3.84,1,1,0,0,1-.74.3h-6.25v1.28c0,1.09.94,1.62,2.83,1.62a17.24,17.24,0,0,0,2.15-.13A10.68,10.68,0,0,1,171.09,78.91Zm-6.3-5.52v1.14h5.31V73.39a1.39,1.39,0,0,0-.54-1.28,4.47,4.47,0,0,0-2.09-.33,4.82,4.82,0,0,0-2.11.31A1.4,1.4,0,0,0,164.79,73.39Z"/><path class="cls-1" d="M177.38,72.15a4.43,4.43,0,0,0-.36,2.38V80q0,.78-1,.78c-.65,0-1-.26-1-.77V74.29a11.09,11.09,0,0,1,.19-2.36,2.08,2.08,0,0,1,.78-1.29,2.79,2.79,0,0,1,1.35-.55A21.38,21.38,0,0,1,179.8,70c1.85,0,3,.22,3.5.68a2.92,2.92,0,0,1,.86,1.93,16.36,16.36,0,0,1,.08,1.71V80c0,.51-.33.77-1,.77s-1-.26-1-.78V74.53a4.27,4.27,0,0,0-.38-2.37,3.91,3.91,0,0,0-2.26-.38C178.37,71.78,177.63,71.9,177.38,72.15Z"/><path class="cls-1" d="M194,77.57v-.25a.8.8,0,0,0-.52-.76,4.29,4.29,0,0,0-1.79-.24,10.89,10.89,0,0,1-2.84-.4,2.34,2.34,0,0,1-1.29-.87,2.83,2.83,0,0,1-.51-1.76v-.18a2.62,2.62,0,0,1,1.1-2.48,7,7,0,0,1,3.38-.64,14.32,14.32,0,0,1,3.35.29.9.9,0,0,1,.67,1c0,.55-.22.82-.67.82a13.76,13.76,0,0,1-1.39-.14,15.31,15.31,0,0,0-2.2-.15,5.6,5.6,0,0,0-1.72.19c-.36.13-.55.49-.55,1.09v.2c0,.78.82,1.2,2.45,1.25a20.23,20.23,0,0,1,2,.17,3.08,3.08,0,0,1,1.74.76,2.27,2.27,0,0,1,.71,1.84v.27a3,3,0,0,1-1.11,2.69,6.9,6.9,0,0,1-3.6.71,15.6,15.6,0,0,1-3.56-.28.88.88,0,0,1-.67-1c0-.54.22-.81.67-.81a14,14,0,0,1,1.56.14,19.58,19.58,0,0,0,2.26.14,4.54,4.54,0,0,0,1.79-.3A1.25,1.25,0,0,0,194,77.57Z"/><path class="cls-1" d="M198.77,67.6a1.07,1.07,0,0,1,.32-.77,1.12,1.12,0,0,1,.75-.33,1,1,0,0,1,.77.33,1.17,1.17,0,0,1,.31.78,1,1,0,0,1-.32.75,1.06,1.06,0,0,1-1.52,0A1,1,0,0,1,198.77,67.6Zm2.06,3.32V80c0,.51-.33.77-1,.77s-1-.26-1-.77V70.92c0-.52.32-.78,1-.78S200.83,70.4,200.83,70.92Z"/><path class="cls-1" d="M207.76,80.8a2.75,2.75,0,0,1-2.09-.64,3.23,3.23,0,0,1-.59-2.21V71.89h-1.39c-.45,0-.67-.29-.67-.87s.22-.87.67-.87h1.39V67.36c0-.52.32-.77,1-.77s1,.25,1,.77v2.79h2.8c.45,0,.67.29.67.87s-.22.87-.67.87h-2.8V78.1q0,.9,1.08.9l1.87-.11c.45,0,.68.26.68.79a1,1,0,0,1-.71,1.06C209.5,80.78,208.76,80.8,207.76,80.8Z"/><path class="cls-1" d="M212.81,67.6a1.07,1.07,0,0,1,.32-.77,1.12,1.12,0,0,1,.75-.33,1,1,0,0,1,.77.33,1.17,1.17,0,0,1,.31.78,1,1,0,0,1-.32.75,1.06,1.06,0,0,1-1.52,0A1,1,0,0,1,212.81,67.6Zm2.06,3.32V80c0,.51-.33.77-1,.77s-1-.26-1-.77V70.92c0-.52.32-.78,1-.78S214.87,70.4,214.87,70.92Z"/><path class="cls-1" d="M222.14,80.91a1.67,1.67,0,0,1-1-.36,1.88,1.88,0,0,1-.66-.89l-3.12-8.39c0-.22-.07-.34-.07-.35,0-.52.31-.77.95-.77a.93.93,0,0,1,1,.57L222.1,79h.11l2.95-8.28c.15-.38.5-.57,1.07-.57s.85.26.85.77c0,0,0,.13-.07.35l-3.13,8.39a1.83,1.83,0,0,1-1.74,1.25Z"/><path class="cls-1" d="M151.63,94a1,1,0,0,1,.33-.76,1,1,0,0,1,.75-.34,1,1,0,0,1,.76.34,1.08,1.08,0,0,1,.31.77,1,1,0,0,1-.32.75,1,1,0,0,1-.75.32,1,1,0,0,1-.77-.32A1.08,1.08,0,0,1,151.63,94Zm2.07,3.32v9.11c0,.51-.33.77-1,.77s-1-.26-1-.77V97.32q0-.78,1-.78T153.7,97.32Z"/><path class="cls-1" d="M159.28,98.55a4.43,4.43,0,0,0-.36,2.38v5.49q0,.78-1,.78c-.65,0-1-.26-1-.77v-5.74a11.09,11.09,0,0,1,.19-2.36,2,2,0,0,1,.78-1.29,2.79,2.79,0,0,1,1.35-.55,21.38,21.38,0,0,1,2.44-.12c1.85,0,3,.22,3.5.68a2.92,2.92,0,0,1,.86,1.93,16.68,16.68,0,0,1,.07,1.71v5.74c0,.51-.33.77-1,.77s-1-.26-1-.78v-5.49a4.27,4.27,0,0,0-.38-2.37,3.91,3.91,0,0,0-2.26-.38C160.27,98.18,159.53,98.3,159.28,98.55Z"/><path class="cls-1" d="M172.18,96.45v.1H175c.45,0,.67.29.67.87s-.22.87-.67.87h-2.8v8.14c0,.51-.33.77-1,.77s-1-.26-1-.77V98.29h-1.42c-.45,0-.68-.29-.68-.87s.23-.87.68-.87h1.42v-.37c0-1.51.25-2.51.77-3a4.3,4.3,0,0,1,2.9-.72,6.4,6.4,0,0,1,1.91.19.7.7,0,0,1,.49.68.9.9,0,0,1-.95,1l-1.45-.06a1.83,1.83,0,0,0-1.39.37A3.3,3.3,0,0,0,172.18,96.45Z"/><path class="cls-1" d="M177.32,102a13.62,13.62,0,0,1,.24-2.85,3.06,3.06,0,0,1,2.34-2.53,12.13,12.13,0,0,1,4.6,0,3.12,3.12,0,0,1,1.48.83,3.36,3.36,0,0,1,.87,1.7,16.86,16.86,0,0,1,0,5.67,3,3,0,0,1-.88,1.63,3.24,3.24,0,0,1-1.47.76,10.85,10.85,0,0,1-2.3.19,11.6,11.6,0,0,1-2.3-.18,3.26,3.26,0,0,1-1.49-.76,3,3,0,0,1-.86-1.65A13.24,13.24,0,0,1,177.32,102Zm2.21-2.52a5.6,5.6,0,0,0-.24,2c0,.93,0,1.68.08,2.24a2.69,2.69,0,0,0,.56,1.44,1.74,1.74,0,0,0,1.28.45l1,0c1.29,0,2-.16,2.27-.47a3,3,0,0,0,.57-1.46c.05-.53.08-1.08.08-1.66,0-1.71-.16-2.74-.49-3.1a2.48,2.48,0,0,0-.37-.4,2.65,2.65,0,0,0-1.55-.3c-.79,0-1.29,0-1.51,0-.67,0-1.09.19-1.27.45A5.26,5.26,0,0,0,179.53,99.45Z"/><path class="cls-1" d="M191.92,101v5.48c0,.51-.33.77-1,.77s-1-.26-1-.77v-5.74a6.92,6.92,0,0,1,.35-2.74,3.63,3.63,0,0,1,.65-.93c.47-.43,1.65-.65,3.54-.65a6.49,6.49,0,0,1,1.92.19.7.7,0,0,1,.48.7,1,1,0,0,1-.27.76.89.89,0,0,1-.68.25l-1.45-.09a6.3,6.3,0,0,0-1.68.13,1.42,1.42,0,0,0-.5.25,1.6,1.6,0,0,0-.23.49,2.28,2.28,0,0,0-.14.77C191.92,100.09,191.92,100.46,191.92,101Z"/><path class="cls-1" d="M209.6,98.18c-.6,0-1,0-1.28,0a1.23,1.23,0,0,0-.69.32,1.13,1.13,0,0,0-.35.74,11.54,11.54,0,0,0-.06,1.39v5.75c0,.52-.33.78-1,.78s-1-.26-1-.78v-6c0-1-.14-1.63-.4-1.86a2.73,2.73,0,0,0-1.65-.34c-.83,0-1.37,0-1.62,0a1.06,1.06,0,0,0-.68.36,1.29,1.29,0,0,0-.33.79c0,.33,0,.85,0,1.56v5.49c0,.52-.33.78-1,.78s-1-.26-1-.77v-5.74a7.09,7.09,0,0,1,.51-3.17,2.4,2.4,0,0,1,2.07-1.07c.41,0,1-.07,1.76-.08a6,6,0,0,1,3.35.62c.51-.41,1.62-.61,3.34-.62a15.88,15.88,0,0,1,1.75.07,2.47,2.47,0,0,1,2,1,7.2,7.2,0,0,1,.54,3.23v5.74c0,.51-.33.77-1,.77s-1-.26-1-.78v-5.49c0-.71,0-1.23-.05-1.56a1.29,1.29,0,0,0-.33-.79,1.07,1.07,0,0,0-.67-.36C210.63,98.19,210.2,98.18,209.6,98.18Z"/><path class="cls-1" d="M218.13,98.47c-.46,0-.69-.28-.69-.82a.9.9,0,0,1,.69-1,15.4,15.4,0,0,1,3.56-.29,5.22,5.22,0,0,1,3.38.8,3.59,3.59,0,0,1,.89,2.77v4.24c0,1.33-.32,2.19-1,2.59a7.75,7.75,0,0,1-3.7.6,7.56,7.56,0,0,1-3.67-.6q-.93-.6-.93-2.58a3.9,3.9,0,0,1,.71-2.71c.48-.51,1.46-.75,2.93-.75H224V99.6a1.22,1.22,0,0,0-.5-1.12,3.77,3.77,0,0,0-1.8-.3,14.53,14.53,0,0,0-2.24.15A9.48,9.48,0,0,1,218.13,98.47Zm5.85,5.87v-1.87h-3a4,4,0,0,0-1.85.28c-.28.19-.42.61-.42,1.27s.18,1.09.53,1.28a5.39,5.39,0,0,0,2.1.27,6.19,6.19,0,0,0,2.12-.24A1,1,0,0,0,224,104.34Z"/><path class="cls-1" d="M235.65,104v-.25a.81.81,0,0,0-.52-.76,4.29,4.29,0,0,0-1.79-.24,10.94,10.94,0,0,1-2.84-.4,2.34,2.34,0,0,1-1.29-.87,2.83,2.83,0,0,1-.51-1.76v-.18A2.62,2.62,0,0,1,229.8,97a7,7,0,0,1,3.38-.64,14.32,14.32,0,0,1,3.35.29.9.9,0,0,1,.68,1c0,.55-.23.82-.68.82a13.76,13.76,0,0,1-1.39-.14,15.21,15.21,0,0,0-2.2-.15,5.6,5.6,0,0,0-1.72.19c-.36.13-.55.49-.55,1.09v.2c0,.78.82,1.2,2.45,1.25.68,0,1.37.08,2,.17a3.14,3.14,0,0,1,1.75.76,2.3,2.3,0,0,1,.7,1.84V104a3,3,0,0,1-1.11,2.69,6.9,6.9,0,0,1-3.6.71,15.6,15.6,0,0,1-3.56-.28.88.88,0,0,1-.67-1c0-.54.22-.81.67-.81a14,14,0,0,1,1.56.14,19.58,19.58,0,0,0,2.26.14,4.54,4.54,0,0,0,1.79-.3A1.25,1.25,0,0,0,235.65,104Z"/><path class="cls-1" d="M239.62,111.49h-.77c-.45,0-.68-.3-.68-.91s.23-.9.68-.9h.75a1,1,0,0,0,.65-.22.83.83,0,0,0,.3-.68V97.3c0-.52.33-.78,1-.78s1,.26,1,.78v11.33a3.26,3.26,0,0,1-.58,2.2A3.14,3.14,0,0,1,239.62,111.49ZM240.46,94a1,1,0,0,1,.32-.76,1.09,1.09,0,0,1,.75-.34,1,1,0,0,1,.77.34,1.12,1.12,0,0,1,.31.77,1,1,0,0,1-.32.75,1.06,1.06,0,0,1-1.52,0A1,1,0,0,1,240.46,94Z"/><path class="cls-1" d="M245.68,102a13.62,13.62,0,0,1,.24-2.85,3.06,3.06,0,0,1,2.34-2.53,12.13,12.13,0,0,1,4.6,0,3.15,3.15,0,0,1,1.49.83,3.52,3.52,0,0,1,.87,1.7,16.86,16.86,0,0,1,0,5.67,3.1,3.1,0,0,1-.88,1.63,3.28,3.28,0,0,1-1.48.76,10.78,10.78,0,0,1-2.3.19,11.67,11.67,0,0,1-2.3-.18,3.23,3.23,0,0,1-1.48-.76,3,3,0,0,1-.87-1.65A13.93,13.93,0,0,1,245.68,102Zm2.21-2.52a5.92,5.92,0,0,0-.23,2c0,.93,0,1.68.07,2.24a2.69,2.69,0,0,0,.56,1.44,1.76,1.76,0,0,0,1.29.45l1,0c1.29,0,2.05-.16,2.28-.47a2.85,2.85,0,0,0,.56-1.46c0-.53.08-1.08.08-1.66,0-1.71-.16-2.74-.48-3.1a2.48,2.48,0,0,0-.38-.4,2.61,2.61,0,0,0-1.54-.3c-.8,0-1.3,0-1.51,0-.68,0-1.1.19-1.28.45A5.26,5.26,0,0,0,247.89,99.45Z"/><path class="cls-1" d="M260.65,98.55a4.3,4.3,0,0,0-.37,2.38v5.49c0,.52-.33.78-1,.78s-1-.26-1-.77v-5.74a11,11,0,0,1,.2-2.36,2.07,2.07,0,0,1,.77-1.29,2.79,2.79,0,0,1,1.35-.55,21.38,21.38,0,0,1,2.44-.12c1.85,0,3,.22,3.5.68a2.88,2.88,0,0,1,.86,1.93,16.36,16.36,0,0,1,.08,1.71v5.74c0,.51-.33.77-1,.77s-1-.26-1-.78v-5.49c0-1.32-.12-2.11-.38-2.37a3.91,3.91,0,0,0-2.26-.38C261.64,98.18,260.89,98.3,260.65,98.55Z"/><path class="cls-1" d="M151.63,120.4a1,1,0,0,1,.33-.77,1.08,1.08,0,0,1,.75-.33,1,1,0,0,1,.76.33,1.12,1.12,0,0,1,.31.78,1,1,0,0,1-.32.75,1,1,0,0,1-.75.32,1,1,0,0,1-.77-.32A1.08,1.08,0,0,1,151.63,120.4Zm2.07,3.32v9.11c0,.51-.33.77-1,.77s-1-.26-1-.77v-9.11q0-.78,1-.78T153.7,123.72Z"/><path class="cls-1" d="M168.86,130.37v-.25a.8.8,0,0,0-.51-.76,4.34,4.34,0,0,0-1.8-.24,10.87,10.87,0,0,1-2.83-.4,2.27,2.27,0,0,1-1.29-.87,2.77,2.77,0,0,1-.52-1.76v-.18a2.6,2.6,0,0,1,1.11-2.48,7,7,0,0,1,3.37-.64,14.26,14.26,0,0,1,3.35.29.89.89,0,0,1,.68,1c0,.55-.22.82-.68.82-.23,0-.69,0-1.38-.14a15.31,15.31,0,0,0-2.2-.15,5.55,5.55,0,0,0-1.72.19c-.37.13-.55.49-.55,1.09v.2c0,.78.82,1.2,2.45,1.25a20.47,20.47,0,0,1,2,.17,3.08,3.08,0,0,1,1.74.76,2.27,2.27,0,0,1,.71,1.84v.27a3,3,0,0,1-1.12,2.69,6.85,6.85,0,0,1-3.6.71,15.5,15.5,0,0,1-3.55-.28.89.89,0,0,1-.68-1c0-.54.23-.81.68-.81a14.43,14.43,0,0,1,1.56.14,19.41,19.41,0,0,0,2.25.14,4.56,4.56,0,0,0,1.8-.3A1.26,1.26,0,0,0,168.86,130.37Z"/><path class="cls-1" d="M175.53,119.66v8.48l4.92-5a1,1,0,0,1,.73-.33.9.9,0,0,1,.69.28.81.81,0,0,1,.28.64,1,1,0,0,1-.35.73L179,127.13l3.5,4.89a1.11,1.11,0,0,1,.22.66.87.87,0,0,1-.31.64,1.06,1.06,0,0,1-.73.3.75.75,0,0,1-.65-.35l-3.44-4.82-2,1.87v2.51c0,.51-.32.77-1,.77s-1-.26-1-.77V119.66c0-.53.34-.8,1-.8S175.53,119.13,175.53,119.66Z"/><path class="cls-1" d="M187.19,137.89c-.57,0-.85-.26-.86-.77l.08-.35,1.18-3.17a1.85,1.85,0,0,1-1.08-1.14l-3.12-8.39c0-.22-.07-.34-.07-.35,0-.52.29-.78.85-.78s.92.2,1.06.58l3,8.27h.11l2.94-8.27c.14-.38.5-.57,1.06-.57s.85.26.85.77c0,0,0,.13-.06.35l-4.84,13.25C188.11,137.7,187.75,137.89,187.19,137.89Z"/><path class="cls-1" d="M203.29,131.71c.45,0,.68.27.68.82a.88.88,0,0,1-.68,1,16.56,16.56,0,0,1-3.58.26,6.11,6.11,0,0,1-3.59-.81,3.24,3.24,0,0,1-1.1-2.74v-4a3.14,3.14,0,0,1,1-2.72,10.15,10.15,0,0,1,7.33,0c.62.44.94,1.36.94,2.75v1.74a1.22,1.22,0,0,1-.29.84,1,1,0,0,1-.74.3H197v1.28c0,1.09.94,1.62,2.82,1.62a17.12,17.12,0,0,0,2.15-.13A10.68,10.68,0,0,1,203.29,131.71ZM197,126.19v1.14h5.3v-1.14a1.39,1.39,0,0,0-.53-1.28,4.55,4.55,0,0,0-2.1-.33,4.76,4.76,0,0,0-2.1.31A1.36,1.36,0,0,0,197,126.19Z"/><path class="cls-1" d="M209.59,125a4.3,4.3,0,0,0-.37,2.38v5.49c0,.52-.33.78-1,.78s-1-.26-1-.77v-5.74a11.09,11.09,0,0,1,.19-2.36,2.07,2.07,0,0,1,.77-1.29,2.87,2.87,0,0,1,1.36-.55,21.17,21.17,0,0,1,2.43-.12c1.85,0,3,.22,3.51.68a2.92,2.92,0,0,1,.86,1.93,16.68,16.68,0,0,1,.07,1.71v5.74c0,.51-.33.77-1,.77s-1-.26-1-.78v-5.49a4.3,4.3,0,0,0-.37-2.37,3.93,3.93,0,0,0-2.26-.38C210.58,124.58,209.83,124.7,209.59,125Z"/><path class="cls-1" d="M225,129.53v.2c0,.55-.33.82-1,.82s-1-.27-1-.82v-.23a4.8,4.8,0,0,1,.31-1.78,2.58,2.58,0,0,1,.77-1.11,10.73,10.73,0,0,1,2-1.24,1.76,1.76,0,0,0,1-1.65c0-1-.16-1.56-.48-1.81a3.55,3.55,0,0,0-1.94-.36,22.74,22.74,0,0,0-2.7.14c-.82.09-1.36.14-1.61.14-.46,0-.69-.28-.69-.82a.9.9,0,0,1,.68-1,17.65,17.65,0,0,1,3.87-.28,6.33,6.33,0,0,1,3.81.83c.68.55,1,1.63,1,3.22a4.47,4.47,0,0,1-.3,1.75,2,2,0,0,1-.75,1,10.92,10.92,0,0,1-1,.54c-.34.17-.67.32-1,.44a1.88,1.88,0,0,0-.8.7A2.27,2.27,0,0,0,225,129.53Zm-2.19,3a1.31,1.31,0,0,1,.34-.92,1.14,1.14,0,0,1,.86-.37,1.31,1.31,0,0,1,.91.37,1.16,1.16,0,0,1,.41.91,1.14,1.14,0,0,1-.41.89,1.39,1.39,0,0,1-.92.35,1.17,1.17,0,0,1-.86-.34A1.27,1.27,0,0,1,222.8,132.54Z"/></svg>