<svg id="Layer_1" data-name="Layer 1" xmlns="http://www.w3.org/2000/svg" viewBox="0 0 740 160"><defs><style>.cls-1{fill:#d4ac76;}</style></defs><title>2text</title><path class="cls-1" d="M330.85,121.93v-10h1.4v4.77l4.19-4.77h1.88l-3.54,4,3.63,6.06h-1.74l-2.92-4.9-1.5,1.68v3.22Z"/><path class="cls-1" d="M341.48,121.93v-10h3.73a3.14,3.14,0,0,1,2.26.87,3.11,3.11,0,0,1-1.76,5.35l2.91,3.82h-1.73L344,118.09h-1.12v3.83Zm3.54-8.71h-2.14v3.63H345a2,2,0,0,0,1.42-.5,1.82,1.82,0,0,0,0-2.61A2,2,0,0,0,345,113.22Z"/><path class="cls-1" d="M356.43,122.11a4.94,4.94,0,0,1-3.62-1.49,5.4,5.4,0,0,1,0-7.45,5.14,5.14,0,0,1,7.24,0,5.36,5.36,0,0,1,0,7.44A4.94,4.94,0,0,1,356.43,122.11Zm-2.63-2.46a3.64,3.64,0,0,0,5.26,0,4,4,0,0,0,0-5.49,3.61,3.61,0,0,0-5.25,0,4,4,0,0,0,0,5.49Zm1.69-8.83a.66.66,0,0,1-.5.22.64.64,0,0,1-.5-.22.84.84,0,0,1,0-1.09.64.64,0,0,1,.5-.22.66.66,0,0,1,.5.22.82.82,0,0,1,0,1.09Zm2.79,0a.67.67,0,0,1-1,0,.84.84,0,0,1,0-1.09.68.68,0,0,1,1,0,.84.84,0,0,1,0,1.09Z"/><path class="cls-1" d="M365.07,121.93v-10h1l5.44,6.92v-6.92h1.4v10h-.78l-5.64-7.17v7.17Z"/><path class="cls-1" d="M379.74,121.93l-3.92-10h1.58l3,7.72,3-7.72H385l-3.93,10Z"/><path class="cls-1" d="M385.83,121.93l4-10h1.27l4,10h-1.55l-.61-1.55H388l-.62,1.55Zm3.63-11.12a.66.66,0,0,1-.5.22.64.64,0,0,1-.5-.22.84.84,0,0,1,0-1.09.64.64,0,0,1,.5-.22.66.66,0,0,1,.5.22.83.83,0,0,1,0,1.09Zm1,3.37-2,4.86h3.86Zm1.75-3.37a.67.67,0,0,1-1,0,.84.84,0,0,1,0-1.09.68.68,0,0,1,1,0,.84.84,0,0,1,0,1.09Z"/><path class="cls-1" d="M404,117.56v-1.34h3.34v.7a5.17,5.17,0,0,1-5.2,5.17,4.92,4.92,0,0,1-3.67-1.5,5.42,5.42,0,0,1,0-7.42,4.92,4.92,0,0,1,3.67-1.5,5.4,5.4,0,0,1,2.11.42,5.14,5.14,0,0,1,1.72,1.16l-1,1.06a3.56,3.56,0,0,0-2.79-1.3,3.5,3.5,0,0,0-2.67,1.13,4.05,4.05,0,0,0,0,5.48,3.5,3.5,0,0,0,2.67,1.14,3.57,3.57,0,0,0,2.41-.88,3.81,3.81,0,0,0,1.27-2.32Z"/><path class="cls-1" d="M416.3,117.52h-4.13v3.07h4.42v1.34h-5.82v-10h5.75v1.34h-4.34v3h4.13Z"/><path class="cls-1" d="M420.07,121.93v-10h1l5.44,6.92v-6.92h1.4v10h-.78l-5.64-7.17v7.17Z"/><path class="cls-1" d="M438.68,121.93v-8.25l-1.88,1v-1.34l2.67-1.47h.62v10.1Z"/><path class="cls-1" d="M445.16,121.93v-8.25l-1.88,1v-1.34l2.67-1.47h.62v10.1Z"/><path class="cls-1" d="M449.21,123.77l1.16-3.22,1.29.46-1.59,3.09Z"/><path class="cls-1" d="M463.09,122.06a4.69,4.69,0,0,1-1.88-.4,5,5,0,0,1-1.59-1.08l1-1.14a3.81,3.81,0,0,0,1.16.92,3,3,0,0,0,1.39.37,1.94,1.94,0,0,0,1.3-.43,1.35,1.35,0,0,0,.5-1.07,1.76,1.76,0,0,0-1.27-1.64l-1.19-.47a4.14,4.14,0,0,1-1.64-1.08,2.37,2.37,0,0,1-.54-1.59,2.53,2.53,0,0,1,.83-1.9,2.86,2.86,0,0,1,2-.79,4.09,4.09,0,0,1,2.92,1.11l-.84,1.13a2.77,2.77,0,0,0-2.07-.9,1.59,1.59,0,0,0-1.06.35,1.16,1.16,0,0,0-.41.93,1.12,1.12,0,0,0,.3.78,2.8,2.8,0,0,0,1,.62l1.21.49a2.85,2.85,0,0,1,2.11,2.87,2.75,2.75,0,0,1-.89,2.11A3.37,3.37,0,0,1,463.09,122.06Z"/><path class="cls-1" d="M468.64,121.93l4-10h1.27l4,10h-1.55l-.61-1.55h-4.93l-.62,1.55Zm4.67-7.74-2,4.86h3.86Z"/><path class="cls-1" d="M480.69,121.93v-10h1.4v8.71h4.13v1.34Z"/><path class="cls-1" d="M486.49,113.22v-1.34h8.14v1.34h-3.37v8.71h-1.4v-8.71Z"/><path class="cls-1" d="M499.85,122.06a4.69,4.69,0,0,1-1.88-.4,5,5,0,0,1-1.59-1.08l1-1.14a3.81,3.81,0,0,0,1.16.92,3,3,0,0,0,1.39.37,1.94,1.94,0,0,0,1.3-.43,1.35,1.35,0,0,0,.5-1.07,1.76,1.76,0,0,0-1.27-1.64l-1.19-.47a4.14,4.14,0,0,1-1.64-1.08,2.37,2.37,0,0,1-.54-1.59,2.53,2.53,0,0,1,.83-1.9,2.86,2.86,0,0,1,2-.79,4.09,4.09,0,0,1,2.92,1.11L502,114a2.77,2.77,0,0,0-2.07-.9,1.59,1.59,0,0,0-1.06.35,1.16,1.16,0,0,0-.41.93,1.12,1.12,0,0,0,.3.78,2.8,2.8,0,0,0,1,.62l1.21.49a2.85,2.85,0,0,1,2.11,2.87,2.75,2.75,0,0,1-.89,2.11A3.37,3.37,0,0,1,499.85,122.06Z"/><path class="cls-1" d="M508.73,122.08a3.39,3.39,0,0,1-2-.6,3.13,3.13,0,0,1-1.19-1.62l1.3-.64a2.22,2.22,0,0,0,.71,1.11,1.79,1.79,0,0,0,1.18.41,1.72,1.72,0,0,0,1.36-.57,2.28,2.28,0,0,0,.5-1.55v-6.74H512v6.71a3.5,3.5,0,0,1-.91,2.59A3.18,3.18,0,0,1,508.73,122.08Z"/><path class="cls-1" d="M520.43,122.11a4.94,4.94,0,0,1-3.62-1.49,5.4,5.4,0,0,1,0-7.45,5.14,5.14,0,0,1,7.24,0,5.36,5.36,0,0,1,0,7.44A4.94,4.94,0,0,1,520.43,122.11Zm-2.63-2.46a3.64,3.64,0,0,0,5.26,0,4,4,0,0,0,0-5.49,3.61,3.61,0,0,0-5.25,0,4,4,0,0,0,0,5.49Zm1.69-8.83a.66.66,0,0,1-.5.22.64.64,0,0,1-.5-.22.84.84,0,0,1,0-1.09.64.64,0,0,1,.5-.22.66.66,0,0,1,.5.22.82.82,0,0,1,0,1.09Zm2.79,0a.67.67,0,0,1-1,0,.84.84,0,0,1,0-1.09.68.68,0,0,1,1,0,.84.84,0,0,1,0,1.09Z"/><path class="cls-1" d="M528.67,117.54V116.3h3.93v1.25Z"/><path class="cls-1" d="M536.11,121.93v-10h3.07a3.21,3.21,0,0,1,2.21.78,2.59,2.59,0,0,1,.87,2,2.37,2.37,0,0,1-1.2,2.16,2.56,2.56,0,0,1,1.08.9,2.36,2.36,0,0,1,.4,1.35,2.6,2.6,0,0,1-.88,2.06,3.27,3.27,0,0,1-2.24.77Zm2.93-8.71h-1.53v3.05h1.79a1.53,1.53,0,0,0,1.12-.44,1.55,1.55,0,0,0,.45-1.15,1.29,1.29,0,0,0-.5-1.06A2.06,2.06,0,0,0,539,113.22Zm.31,4.3h-1.84v3.07h1.75a2.08,2.08,0,0,0,1.38-.43,1.43,1.43,0,0,0,.51-1.15,1.38,1.38,0,0,0-.46-1.07A1.94,1.94,0,0,0,539.35,117.52Z"/><path class="cls-1" d="M550.44,122.11a4.94,4.94,0,0,1-3.62-1.49,5.4,5.4,0,0,1,0-7.45,5.14,5.14,0,0,1,7.24,0,5.36,5.36,0,0,1,0,7.44A4.94,4.94,0,0,1,550.44,122.11Zm-2.63-2.46a3.64,3.64,0,0,0,5.26,0,4,4,0,0,0,0-5.49,3.61,3.61,0,0,0-5.25,0,4,4,0,0,0,0,5.49Z"/><path class="cls-1" d="M563.74,122.11a4.94,4.94,0,0,1-3.62-1.49,5.4,5.4,0,0,1,0-7.45,5.14,5.14,0,0,1,7.24,0,5.36,5.36,0,0,1,0,7.44A4.94,4.94,0,0,1,563.74,122.11Zm-2.63-2.46a3.64,3.64,0,0,0,5.26,0,4,4,0,0,0,0-5.49,3.61,3.61,0,0,0-5.25,0,4,4,0,0,0,0,5.49Z"/><path class="cls-1" d="M336.26,142.06a4.69,4.69,0,0,1-1.88-.4,5,5,0,0,1-1.59-1.08l1-1.14a3.81,3.81,0,0,0,1.16.92,3,3,0,0,0,1.39.37,1.94,1.94,0,0,0,1.3-.43,1.35,1.35,0,0,0,.5-1.07,1.76,1.76,0,0,0-1.27-1.64l-1.19-.47A4.14,4.14,0,0,1,334,136a2.37,2.37,0,0,1-.54-1.59,2.53,2.53,0,0,1,.83-1.9,2.86,2.86,0,0,1,2-.79,4.09,4.09,0,0,1,2.92,1.11l-.84,1.13a2.77,2.77,0,0,0-2.07-.9,1.59,1.59,0,0,0-1.06.35,1.16,1.16,0,0,0-.41.93,1.12,1.12,0,0,0,.3.78,2.8,2.8,0,0,0,1,.62l1.21.49a2.85,2.85,0,0,1,2.11,2.87,2.75,2.75,0,0,1-.89,2.11A3.37,3.37,0,0,1,336.26,142.06Z"/><path class="cls-1" d="M347.57,142.11a4.94,4.94,0,0,1-3.62-1.49,5.4,5.4,0,0,1,0-7.45,5.14,5.14,0,0,1,7.24,0,5.36,5.36,0,0,1,0,7.44A4.94,4.94,0,0,1,347.57,142.11Zm-2.63-2.46a3.64,3.64,0,0,0,5.26,0,4,4,0,0,0,0-5.49,3.61,3.61,0,0,0-5.25,0,4,4,0,0,0,0,5.49Zm1.69-8.83a.66.66,0,0,1-.5.22.64.64,0,0,1-.5-.22.84.84,0,0,1,0-1.09.64.64,0,0,1,.5-.22.66.66,0,0,1,.5.22.82.82,0,0,1,0,1.09Zm2.79,0a.67.67,0,0,1-1,0,.84.84,0,0,1,0-1.09.68.68,0,0,1,1,0,.84.84,0,0,1,0,1.09Z"/><path class="cls-1" d="M356.21,141.93v-10h1l5.44,6.92v-6.92H364v10h-.78l-5.64-7.17v7.17Z"/><path class="cls-1" d="M368.23,141.93v-10h2.69a5.06,5.06,0,0,1,3.52,8.62,4.91,4.91,0,0,1-3.57,1.43Zm2.75-8.71h-1.34v7.37H371a3.25,3.25,0,0,0,2.48-1.08,3.72,3.72,0,0,0,1-2.63,3.58,3.58,0,0,0-1-2.61A3.35,3.35,0,0,0,371,133.22Z"/><path class="cls-1" d="M377.89,141.93l4-10h1.27l4,10H385.6l-.61-1.55h-4.93l-.62,1.55Zm4.67-7.74-2,4.86h3.86Z"/><path class="cls-1" d="M396,137.56v-1.34h3.34v.7a5.17,5.17,0,0,1-5.2,5.17,4.92,4.92,0,0,1-3.67-1.5,5.42,5.42,0,0,1,0-7.42,4.92,4.92,0,0,1,3.67-1.5,5.4,5.4,0,0,1,2.11.42,5.14,5.14,0,0,1,1.72,1.16l-1,1.06a3.56,3.56,0,0,0-2.79-1.3,3.5,3.5,0,0,0-2.67,1.13,4.05,4.05,0,0,0,0,5.48,3.5,3.5,0,0,0,2.67,1.14,3.57,3.57,0,0,0,2.41-.88,3.81,3.81,0,0,0,1.27-2.32Z"/><path class="cls-1" d="M409.4,141.93v-8.25l-1.88,1v-1.34l2.67-1.47h.62v10.1Z"/><path class="cls-1" d="M415.89,141.93v-8.25l-1.88,1v-1.34l2.67-1.47h.62v10.1Z"/><path class="cls-1" d="M426.66,141.93v-10h5.49v1.34h-4.08v3.16h3.61v1.34h-3.61v4.21Z"/><path class="cls-1" d="M440.81,137.52h-4.13v3.07h4.42v1.34h-5.82v-10H441v1.34h-4.34v3h4.13Z"/><path class="cls-1" d="M444.58,141.93v-10h3.07a3.21,3.21,0,0,1,2.21.78,2.59,2.59,0,0,1,.87,2,2.37,2.37,0,0,1-1.2,2.16,2.56,2.56,0,0,1,1.08.9,2.36,2.36,0,0,1,.4,1.35,2.6,2.6,0,0,1-.88,2.06,3.27,3.27,0,0,1-2.24.77Zm2.93-8.71H446v3.05h1.79a1.53,1.53,0,0,0,1.12-.44,1.55,1.55,0,0,0,.45-1.15,1.29,1.29,0,0,0-.5-1.06A2.06,2.06,0,0,0,447.51,133.22Zm.31,4.3H446v3.07h1.75a2.08,2.08,0,0,0,1.38-.43,1.43,1.43,0,0,0,.51-1.15,1.38,1.38,0,0,0-.46-1.07A1.94,1.94,0,0,0,447.82,137.52Z"/><path class="cls-1" d="M454.55,141.93v-10h3.73a3.14,3.14,0,0,1,2.26.87,3.11,3.11,0,0,1-1.76,5.35l2.91,3.82H460l-2.88-3.83H456v3.83Zm3.54-8.71H456v3.63h2.13a2,2,0,0,0,1.42-.5,1.82,1.82,0,0,0,0-2.61A2,2,0,0,0,458.09,133.22Z"/><path class="cls-1" d="M468.39,142.09a3.5,3.5,0,0,1-2.62-1.05,3.65,3.65,0,0,1-1-2.65v-6.51h1.4v6.43a2.59,2.59,0,0,0,.6,1.76,2.05,2.05,0,0,0,1.64.7,2.11,2.11,0,0,0,1.66-.68,2.55,2.55,0,0,0,.61-1.76v-6.44h1.4v6.51a3.65,3.65,0,0,1-1,2.65A3.53,3.53,0,0,1,468.39,142.09Z"/><path class="cls-1" d="M474.49,141.93l4-10h1.27l4,10H482.2l-.61-1.55h-4.93l-.62,1.55Zm4.67-7.74-2,4.86h3.86Z"/><path class="cls-1" d="M486.54,141.93v-10h3.73a3.14,3.14,0,0,1,2.26.87,3.11,3.11,0,0,1-1.76,5.35l2.91,3.82h-1.73l-2.88-3.83h-1.12v3.83Zm3.54-8.71h-2.14v3.63h2.13a2,2,0,0,0,1.42-.5,1.82,1.82,0,0,0,0-2.61A2,2,0,0,0,490.08,133.22Z"/><path class="cls-1" d="M497,141.93v-10h1.4v10Z"/><path class="cls-1" d="M507.93,141.93v-10h1.4v4.77l4.19-4.77h1.88l-3.54,4,3.63,6.06h-1.74l-2.92-4.9-1.5,1.68v3.22Z"/><path class="cls-1" d="M518.55,141.93v-10H520v8.71h4.13v1.34Z"/><path class="cls-1" d="M533.74,141.93v-8.25l-1.88,1v-1.34l2.67-1.47h.62v10.1Z"/><path class="cls-1" d="M538.31,139.62v-.88l3.5-6.86h1.47l-3.31,6.5h2.17v-1.69h1.4v1.69h1.21v1.25h-1.21v2.3h-1.4v-2.3Z"/><path class="cls-1" d="M547.42,137.54V136.3h3.93v1.25Z"/><path class="cls-1" d="M555.16,141.93v-8.25l-1.88,1v-1.34l2.67-1.47h.62v10.1Z"/><path class="cls-1" d="M563.34,142.08a3,3,0,0,1-2.2-.88,2.87,2.87,0,0,1-.9-2.12v-4.25a3,3,0,0,1,.9-2.25,3.27,3.27,0,0,1,4.35-.08,2.65,2.65,0,0,1,.87,2.06h-1.4a1.55,1.55,0,0,0-.45-1.15,1.58,1.58,0,0,0-1.15-.45,1.61,1.61,0,0,0-1.21.5,1.79,1.79,0,0,0-.49,1.3v2.14a2.21,2.21,0,0,1,1.74-.8,3,3,0,0,1,2.2.86,2.94,2.94,0,0,1,0,4.24A3.08,3.08,0,0,1,563.34,142.08Zm0-1.25a1.64,1.64,0,0,0,1.22-.52,1.71,1.71,0,0,0,.5-1.23,1.7,1.7,0,0,0-2.88-1.25,1.63,1.63,0,0,0-.51,1.25,1.74,1.74,0,0,0,.49,1.23A1.56,1.56,0,0,0,563.34,140.83Z"/></svg>