<svg id="Layer_1" data-name="Layer 1" xmlns="http://www.w3.org/2000/svg" viewBox="0 0 740 160"><defs><style>.cls-1{fill:#d80201;}</style></defs><title>text</title><path class="cls-1" d="M346.71,108.68v4h4.44V114h-4.44v6.6h-1.48V107.28h6.06v1.4Z"/><path class="cls-1" d="M359.85,120.62v-1.16a3.54,3.54,0,0,1-2.88,1.4c-2.48,0-4-2.08-4-4.42a4,4,0,0,1,4-4.32,3.51,3.51,0,0,1,2.9,1.38v-1.18h1.42v8.3Zm-2.68-7.22a2.83,2.83,0,0,0-2.74,3,2.86,2.86,0,0,0,2.74,3.12,2.83,2.83,0,0,0,2.76-3.12A2.8,2.8,0,0,0,357.17,113.4Zm0-2.72a1.72,1.72,0,1,1,1.72-1.72A1.71,1.71,0,0,1,357.13,110.68Zm0-2.56a.84.84,0,1,0,.84.84A.85.85,0,0,0,357.13,108.12Z"/><path class="cls-1" d="M371,123.7a4,4,0,0,1-3.32,1.54,3.74,3.74,0,0,1-4-3.8H365a2.48,2.48,0,0,0,2.64,2.52c2,0,2.66-1.5,2.66-3.28v-1.22a3.75,3.75,0,0,1-2.92,1.38,4.38,4.38,0,0,1,.06-8.72,3.55,3.55,0,0,1,2.86,1.36v-1.16h1.44v8.12A5,5,0,0,1,371,123.7Zm-3.34-10.3a2.85,2.85,0,0,0-2.72,3.14,2.8,2.8,0,0,0,2.72,3,3.1,3.1,0,0,0,0-6.16Z"/><path class="cls-1" d="M375.45,116.76a2.69,2.69,0,0,0,2.64,2.8,2.86,2.86,0,0,0,2.56-1.72l1.2.66a4.14,4.14,0,0,1-3.8,2.36,4,4,0,0,1-4.1-4.34c0-2.4,1.5-4.4,4-4.4s4,2,4,4.36v.28Zm2.56-3.34a2.55,2.55,0,0,0-2.46,2.14h4.88A2.49,2.49,0,0,0,378,113.42Z"/><path class="cls-1" d="M384.11,120.62V106h1.42v14.58Z"/><path class="cls-1" d="M391.13,121.16l-4.08-8.84h1.6l2.48,5.58,2.46-5.58h1.6Z"/><path class="cls-1" d="M397.43,110.2a1,1,0,1,1,1-1A1,1,0,0,1,397.43,110.2Zm-.72,10.42v-8.3h1.42v8.3Z"/><path class="cls-1" d="M406,120.62l-3.36-3.78-.36.36v3.42h-1.42V106h1.42v9.34l3-3.06h1.9l-3.56,3.52,4.22,4.78Z"/><path class="cls-1" d="M411.53,120.86a3,3,0,0,1-2.9-2.12l1.24-.52c.34.74.8,1.34,1.68,1.34a1.29,1.29,0,0,0,1.36-1.3c0-1.8-3.74-1.24-3.74-3.82a2.33,2.33,0,0,1,2.42-2.32,2.49,2.49,0,0,1,2.28,1.5l-1.18.62a1.33,1.33,0,0,0-1.16-.82,1,1,0,0,0-1,.92c0,1.46,3.84,1.08,3.84,3.8A2.73,2.73,0,0,1,411.53,120.86Z"/><path class="cls-1" d="M419.17,121.16l-4.08-8.84h1.6l2.48,5.58,2.46-5.58h1.6Z"/><path class="cls-1" d="M431.09,120.62v-1.16a3.54,3.54,0,0,1-2.88,1.4c-2.48,0-4-2.08-4-4.42a4,4,0,0,1,4-4.32,3.51,3.51,0,0,1,2.9,1.38v-1.18h1.42v8.3Zm-2.68-7.22a2.83,2.83,0,0,0-2.74,3,2.86,2.86,0,0,0,2.74,3.12,2.83,2.83,0,0,0,2.76-3.12A2.8,2.8,0,0,0,428.41,113.4Zm-1.66-2.78a1,1,0,0,1-1-1,1,1,0,1,1,1,1Zm3.48,0a1,1,0,0,1-1-1,1,1,0,1,1,1,1Z"/><path class="cls-1" d="M442.21,123.7a4,4,0,0,1-3.32,1.54,3.74,3.74,0,0,1-4-3.8h1.42a2.48,2.48,0,0,0,2.64,2.52c2,0,2.66-1.5,2.66-3.28v-1.22a3.75,3.75,0,0,1-2.92,1.38,4.38,4.38,0,0,1,.06-8.72,3.55,3.55,0,0,1,2.86,1.36v-1.16H443v8.12A5,5,0,0,1,442.21,123.7Zm-3.34-10.3a2.85,2.85,0,0,0-2.72,3.14,2.8,2.8,0,0,0,2.72,3,3.1,3.1,0,0,0,0-6.16Z"/><path class="cls-1" d="M446.69,116.76a2.69,2.69,0,0,0,2.64,2.8,2.86,2.86,0,0,0,2.56-1.72l1.2.66a4.14,4.14,0,0,1-3.8,2.36,4,4,0,0,1-4.1-4.34c0-2.4,1.5-4.4,4-4.4s4,2,4,4.36v.28Zm2.56-3.34a2.55,2.55,0,0,0-2.46,2.14h4.88A2.49,2.49,0,0,0,449.25,113.42Z"/><path class="cls-1" d="M460.57,120.62v-4.9c0-1.3-.18-2.32-1.74-2.32-1.84,0-2.06,1.6-2.06,3.06v4.16h-1.42v-8.3h1.42v1a3,3,0,0,1,4.76-.06,3.8,3.8,0,0,1,.48,2.2v5.16Z"/><path class="cls-1" d="M477.53,114.64l-4.54,6.3-1.12-.82,3.08-4.28a4.19,4.19,0,0,1-1.22.18,4.31,4.31,0,0,1-4.28-4.38,4.6,4.6,0,0,1,9.2-.06A5.36,5.36,0,0,1,477.53,114.64Zm-3.48-6.2a3.13,3.13,0,1,0,3.14,3.14A3.13,3.13,0,0,0,474.05,108.44Z"/><path class="cls-1" d="M484.45,120.84a4.63,4.63,0,0,1-4.08-2.38l1.18-.84a3.51,3.51,0,0,0,3,1.84,3.31,3.31,0,0,0,3.3-3.38,3.24,3.24,0,0,0-3.28-3.32,4.7,4.7,0,0,0-2.58.92l1.94-6.4h5.3v1.4H485l-.88,2.84a3.16,3.16,0,0,1,.76-.08,4.42,4.42,0,0,1,4.48,4.62A4.73,4.73,0,0,1,484.45,120.84Z"/><path class="cls-1" d="M492.47,123.66l-.94-.38,1.64-4.62,1.32.48Z"/><path class="cls-1" d="M502.33,120.62V107.28h1.48v13.34Z"/><path class="cls-1" d="M512.13,120.62v-4.9c0-1.3-.18-2.32-1.74-2.32-1.84,0-2.06,1.6-2.06,3.06v4.16h-1.42v-8.3h1.42v1a3,3,0,0,1,4.76-.06,3.8,3.8,0,0,1,.48,2.2v5.16Z"/><path class="cls-1" d="M523.27,123.7a4,4,0,0,1-3.32,1.54,3.74,3.74,0,0,1-4-3.8h1.42A2.48,2.48,0,0,0,520,124c2,0,2.66-1.5,2.66-3.28v-1.22a3.75,3.75,0,0,1-2.92,1.38,4.38,4.38,0,0,1,.06-8.72,3.55,3.55,0,0,1,2.86,1.36v-1.16h1.44v8.12A5,5,0,0,1,523.27,123.7Zm-3.34-10.3a2.85,2.85,0,0,0-2.72,3.14,2.8,2.8,0,0,0,2.72,3,3.1,3.1,0,0,0,0-6.16Z"/><path class="cls-1" d="M533.13,120.62v-1.16a3.54,3.54,0,0,1-2.88,1.4c-2.48,0-4-2.08-4-4.42a4,4,0,0,1,4-4.32,3.51,3.51,0,0,1,2.9,1.38v-1.18h1.42v8.3Zm-2.68-7.22a2.83,2.83,0,0,0-2.74,3,2.86,2.86,0,0,0,2.74,3.12,2.83,2.83,0,0,0,2.76-3.12A2.8,2.8,0,0,0,530.45,113.4Z"/><path class="cls-1" d="M541.17,113.76a1.26,1.26,0,0,0-.84-.28,1.54,1.54,0,0,0-.72.18c-.92.5-.92,1.68-.92,2.58v4.38h-1.42v-8.3h1.42v.9a2.22,2.22,0,0,1,1.88-1.1,2.36,2.36,0,0,1,1.28.34Z"/><path class="cls-1" d="M547,120.86a4.37,4.37,0,1,1,4.38-4.36A4.34,4.34,0,0,1,547,120.86Zm0-7.44A3.07,3.07,0,1,0,550,116.5,2.91,2.91,0,0,0,547,113.42Zm-1.72-2.8a1,1,0,0,1-1-1,1,1,0,1,1,1,1Zm3.48,0a1,1,0,0,1-1-1,1,1,0,1,1,1,1Z"/><path class="cls-1" d="M339.76,141.86a4.08,4.08,0,0,1-4.12-3.44l1.44-.4a2.71,2.71,0,0,0,2.72,2.44,2.63,2.63,0,0,0,2.68-2.64c0-3.14-6.16-2.4-6.16-6.32a3.52,3.52,0,0,1,3.74-3.44,3.8,3.8,0,0,1,3.44,2.08l-1.18.78a2.47,2.47,0,0,0-2.28-1.46,2.12,2.12,0,0,0-2.22,2c0,2.76,6.16,2,6.16,6.26A4.11,4.11,0,0,1,339.76,141.86Z"/><path class="cls-1" d="M350.2,141.86a4.37,4.37,0,1,1,4.38-4.36A4.34,4.34,0,0,1,350.2,141.86Zm0-7.44a3.07,3.07,0,1,0,2.94,3.08A2.91,2.91,0,0,0,350.18,134.42Zm-1.72-2.8a1,1,0,0,1-1-1,1,1,0,1,1,1,1Zm3.48,0a1,1,0,0,1-1-1,1,1,0,1,1,1,1Z"/><path class="cls-1" d="M362,141.62v-4.9c0-1.3-.18-2.32-1.74-2.32-1.84,0-2.06,1.6-2.06,3.06v4.16h-1.42v-8.3h1.42v1a3,3,0,0,1,4.76-.06,3.8,3.8,0,0,1,.48,2.2v5.16Z"/><path class="cls-1" d="M372.48,141.62v-1.16a3.54,3.54,0,0,1-2.88,1.4,4.11,4.11,0,0,1-4-4.4,4.06,4.06,0,0,1,4-4.34,3.56,3.56,0,0,1,2.9,1.38V127h1.42v14.58Zm-2.68-7.2a3.09,3.09,0,1,0,2.76,3A2.78,2.78,0,0,0,369.8,134.42Z"/><path class="cls-1" d="M383,141.62v-1.16a3.54,3.54,0,0,1-2.88,1.4c-2.48,0-4-2.08-4-4.42a4,4,0,0,1,4-4.32,3.51,3.51,0,0,1,2.9,1.38v-1.18h1.42v8.3Zm-2.68-7.22a2.83,2.83,0,0,0-2.74,3,2.86,2.86,0,0,0,2.74,3.12,2.83,2.83,0,0,0,2.76-3.12A2.8,2.8,0,0,0,380.28,134.4Z"/><path class="cls-1" d="M394.08,144.7a4,4,0,0,1-3.32,1.54,3.74,3.74,0,0,1-4-3.8h1.42a2.48,2.48,0,0,0,2.64,2.52c2,0,2.66-1.5,2.66-3.28v-1.22a3.75,3.75,0,0,1-2.92,1.38,4.38,4.38,0,0,1,.06-8.72,3.55,3.55,0,0,1,2.86,1.36v-1.16h1.44v8.12A5,5,0,0,1,394.08,144.7Zm-3.34-10.3a2.85,2.85,0,0,0-2.72,3.14,2.8,2.8,0,0,0,2.72,3,3.1,3.1,0,0,0,0-6.16Z"/><path class="cls-1" d="M406.54,141.62V129.68h-2.22l.78-1.4H408v13.34Z"/><path class="cls-1" d="M422.66,137.66c-.58,2-2.08,4.18-4.42,4.18s-3.74-2-4.34-4a9.9,9.9,0,0,1-.42-2.86,10.36,10.36,0,0,1,.36-2.72c.58-2,2.08-4.18,4.42-4.18s3.74,2,4.34,4a9.9,9.9,0,0,1,.42,2.86A10.63,10.63,0,0,1,422.66,137.66Zm-4.46-8.22c-1.7,0-2.66,1.94-3,3.36a9.07,9.07,0,0,0-.26,2.2,8.84,8.84,0,0,0,.28,2.3c.38,1.42,1.36,3.16,3,3.16s2.62-1.82,3-3.22a8.79,8.79,0,0,0,.28-2.28C421.54,133,420.72,129.44,418.2,129.44Z"/><path class="cls-1" d="M431.7,134.64v7h-1.42v-7h-.78v-1.32h.78v-3.54a4.77,4.77,0,0,1,.22-1.6,2.31,2.31,0,0,1,2.24-1.38,3.66,3.66,0,0,1,1,.18v1.44a2.56,2.56,0,0,0-.94-.2c-1,0-1.14.78-1.14,1.62v3.48h2.08v1.32Z"/><path class="cls-1" d="M436,137.76a2.69,2.69,0,0,0,2.64,2.8,2.86,2.86,0,0,0,2.56-1.72l1.2.66a4.14,4.14,0,0,1-3.8,2.36,4,4,0,0,1-4.1-4.34c0-2.4,1.5-4.4,4-4.4s4,2,4,4.36v.28Zm2.56-3.34a2.55,2.55,0,0,0-2.46,2.14H441A2.49,2.49,0,0,0,438.58,134.42Z"/><path class="cls-1" d="M449,141.86a3.54,3.54,0,0,1-2.88-1.4v1.16h-1.42V127h1.42v7.46a3.56,3.56,0,0,1,2.9-1.38,4.06,4.06,0,0,1,4,4.34A4.11,4.11,0,0,1,449,141.86Zm-.2-7.44a2.79,2.79,0,0,0-2.76,3.06,2.76,2.76,0,1,0,2.76-3.06Z"/><path class="cls-1" d="M459.06,134.76a1.26,1.26,0,0,0-.84-.28,1.54,1.54,0,0,0-.72.18c-.92.5-.92,1.68-.92,2.58v4.38h-1.42v-8.3h1.42v.9a2.22,2.22,0,0,1,1.88-1.1,2.36,2.36,0,0,1,1.28.34Z"/><path class="cls-1" d="M466.9,140.82a3.62,3.62,0,0,1-5.08,0,3.4,3.4,0,0,1-.76-2.5v-5h1.42v4.84a3.18,3.18,0,0,0,.26,1.56,2,2,0,0,0,3.22,0,3.22,3.22,0,0,0,.26-1.56v-4.84h1.42v5A3.39,3.39,0,0,1,466.9,140.82Z"/><path class="cls-1" d="M476.7,141.62v-1.16a3.54,3.54,0,0,1-2.88,1.4c-2.48,0-4-2.08-4-4.42a4,4,0,0,1,4-4.32,3.51,3.51,0,0,1,2.9,1.38v-1.18h1.42v8.3ZM474,134.4a2.83,2.83,0,0,0-2.74,3,2.86,2.86,0,0,0,2.74,3.12,2.83,2.83,0,0,0,2.76-3.12A2.8,2.8,0,0,0,474,134.4Z"/><path class="cls-1" d="M484.74,134.76a1.26,1.26,0,0,0-.84-.28,1.54,1.54,0,0,0-.72.18c-.92.5-.92,1.68-.92,2.58v4.38h-1.42v-8.3h1.42v.9a2.22,2.22,0,0,1,1.88-1.1,2.36,2.36,0,0,1,1.28.34Z"/><path class="cls-1" d="M487.46,131.2a1,1,0,1,1,1-1A1,1,0,0,1,487.46,131.2Zm-.72,10.42v-8.3h1.42v8.3Z"/><path class="cls-1" d="M501,141.62l-3.36-3.78-.36.36v3.42H495.9V127h1.42v9.34l3-3.06h1.9l-3.56,3.52,4.22,4.78Z"/><path class="cls-1" d="M504.32,141.62V127h1.42v14.58Z"/><path class="cls-1" d="M517.4,141.62V129.68h-2.22l.78-1.4h2.92v13.34Z"/><path class="cls-1" d="M532.14,139.44v2.18h-1.48v-2.18h-6.84l8.32-11.9v10.54h1.64v1.36Zm-1.48-7.38-4.22,6h4.22Z"/><path class="cls-1" d="M534.78,138v-1.28h3.62V138Z"/><path class="cls-1" d="M543.7,141.62V129.68h-2.22l.78-1.4h2.92v13.34Z"/><path class="cls-1" d="M555.42,141.84a4.59,4.59,0,0,1-4.62-4.52,5.34,5.34,0,0,1,1.1-3.06l4.54-6.3,1.12.84-3.06,4.26a4.19,4.19,0,0,1,1.22-.18,4.34,4.34,0,0,1,4.28,4.4A4.6,4.6,0,0,1,555.42,141.84Zm0-7.64a3.13,3.13,0,1,0,3.12,3.12A3.12,3.12,0,0,0,555.4,134.2Z"/></svg>