<svg id="Layer_1" data-name="Layer 1" xmlns="http://www.w3.org/2000/svg" viewBox="0 0 740 160"><defs><style>.cls-1{fill:#d80201;}</style></defs><title>text</title><path class="cls-1" d="M416.14,44.49a9.11,9.11,0,0,1-7.22,3.17,9,9,0,0,1-7.23-3.17,9.46,9.46,0,0,1-1.62-5.87V25.15h4.29V37.76a7.48,7.48,0,0,0,.69,4,4.47,4.47,0,0,0,3.87,2.05,4.57,4.57,0,0,0,3.86-2.05,7.08,7.08,0,0,0,.69-4V25.15h4.29V38.62A9.27,9.27,0,0,1,416.14,44.49Z"/><path class="cls-1" d="M431,47.63a5.73,5.73,0,0,1-4.79-2.34v9.5h-4V32.88h4v1.81a5.69,5.69,0,0,1,4.69-2.28c4.26,0,7.06,3.54,7.06,7.63S435.15,47.63,431,47.63ZM429.77,36a4,4,0,1,0,4,4A4,4,0,0,0,429.77,36Z"/><path class="cls-1" d="M449.73,47.63A5.73,5.73,0,0,1,445,45.29v9.5h-4V32.88h4v1.81a5.69,5.69,0,0,1,4.69-2.28c4.25,0,7.06,3.54,7.06,7.63S453.93,47.63,449.73,47.63ZM448.55,36a4,4,0,1,0,4,4A4,4,0,0,0,448.55,36Z"/><path class="cls-1" d="M459.73,47.17V22.45h4V47.17Z"/><path class="cls-1" d="M470.89,40.67c.06,2.21,1.12,3.82,3.49,3.82a3.73,3.73,0,0,0,3.4-1.91l3.7.59c-1.25,3.07-3.79,4.46-7,4.46-4.62,0-7.66-3-7.66-7.63s2.91-7.59,7.5-7.59,7.29,3.17,7.29,7.73v.53Zm3.46-5.42A3.24,3.24,0,0,0,471,38.12h6.76A3.31,3.31,0,0,0,474.35,35.25Z"/><path class="cls-1" d="M491.18,47.46h-1.85L482,32.88h4.49l3.76,8,3.76-8h4.49Z"/><path class="cls-1" d="M391.58,85.17,389.63,71.6l-6.08,13.86h-1.18L376.53,71.6l-2.22,13.57H370l4.09-22.41H377l6,14.39,6.27-14.39h2.94l3.66,22.41Z"/><path class="cls-1" d="M406.62,85.63c-4.55,0-8.18-2.84-8.18-7.59s3.63-7.63,8.21-7.63,8.12,2.88,8.12,7.59S411.14,85.63,406.62,85.63Zm0-11.62a4,4,0,1,0,4.06,4A4.05,4.05,0,0,0,406.59,74Z"/><path class="cls-1" d="M424.31,85.46h-1.85l-7.29-14.58h4.49l3.76,8.05,3.76-8.05h4.49Z"/><path class="cls-1" d="M436.22,78.67c.07,2.21,1.12,3.82,3.5,3.82a3.74,3.74,0,0,0,3.4-1.91l3.7.59c-1.26,3.07-3.8,4.46-7,4.46-4.62,0-7.66-3-7.66-7.63s2.9-7.59,7.49-7.59,7.3,3.17,7.3,7.73v.53Zm3.47-5.42a3.25,3.25,0,0,0-3.34,2.87h6.77A3.31,3.31,0,0,0,439.69,73.25Z"/><path class="cls-1" d="M459.75,85.17V77.34c0-2-.43-3.53-2.74-3.53-2.47,0-3,1.92-3,4v7.33h-4V60.45h4V72.72a5.19,5.19,0,0,1,4.48-2.31,5.48,5.48,0,0,1,4.16,1.75,5.66,5.66,0,0,1,1.13,4v9Z"/><path class="cls-1" d="M475,85.63c-4.56,0-8.19-2.84-8.19-7.59s3.63-7.63,8.22-7.63,8.12,2.88,8.12,7.59S479.52,85.63,475,85.63ZM475,74A4,4,0,1,0,479,78,4,4,0,0,0,475,74Z"/><path class="cls-1" d="M504.47,85.17V77.34c0-1.68-.27-3.53-2.38-3.53-2.34,0-2.74,2.15-2.74,4v7.33h-4V77.58a6.32,6.32,0,0,0-.3-2.38,2.31,2.31,0,0,0-2.14-1.39,2.61,2.61,0,0,0-2.25,1.29,5.92,5.92,0,0,0-.46,2.74v7.33h-4V70.88h4v1.61a5.5,5.5,0,0,1,4.36-2.08A4.87,4.87,0,0,1,499,73a5.3,5.3,0,0,1,4.69-2.61,4.71,4.71,0,0,1,4,2,6.3,6.3,0,0,1,.76,3.47v9.24Z"/><path class="cls-1" d="M515.62,78.67c.06,2.21,1.12,3.82,3.5,3.82a3.74,3.74,0,0,0,3.4-1.91l3.69.59c-1.25,3.07-3.79,4.46-7,4.46-4.62,0-7.65-3-7.65-7.63s2.9-7.59,7.49-7.59,7.29,3.17,7.29,7.73v.53Zm3.46-5.42a3.25,3.25,0,0,0-3.33,2.87h6.77A3.32,3.32,0,0,0,519.08,73.25Z"/></svg>