<svg id="Layer_1" data-name="Layer 1" xmlns="http://www.w3.org/2000/svg" viewBox="0 0 740 160"><defs><style>.cls-1{fill:#d80201;}</style></defs><title>text</title><path class="cls-1" d="M398.62,37.07c-2.15,2.31-5.51,1.94-8.38,1.94v8.16H386v-22h6.4c2.18,0,4.09.17,5.81,1.69a7,7,0,0,1,2.24,5.31A7.24,7.24,0,0,1,398.62,37.07Zm-3.76-7.49a5.14,5.14,0,0,0-3.14-.7h-1.48v6.41H392c2.14,0,4-.7,4-3.17A3.24,3.24,0,0,0,394.86,29.58Z"/><path class="cls-1" d="M409.71,47.63c-4.56,0-8.19-2.84-8.19-7.59s3.63-7.63,8.22-7.63,8.12,2.88,8.12,7.59S414.23,47.63,409.71,47.63Zm0-11.62a4,4,0,1,0,4.06,4A4,4,0,0,0,409.67,36Z"/><path class="cls-1" d="M429.71,47.63a5.73,5.73,0,0,1-4.79-2.34v9.5h-4V32.88h4v1.81a5.69,5.69,0,0,1,4.69-2.28c4.25,0,7.06,3.54,7.06,7.63S433.9,47.63,429.71,47.63ZM428.52,36a4,4,0,1,0,4,4A4,4,0,0,0,428.52,36Z"/><path class="cls-1" d="M446.6,47.63c-3.93,0-6.9-1.75-6.9-6V32.88h4V41c0,1.95.82,3.27,2.9,3.27s2.9-1.32,2.9-3.27V32.88h4v8.74C453.53,45.88,450.53,47.63,446.6,47.63Z"/><path class="cls-1" d="M457.36,47.17V22.45h4V47.17Z"/><path class="cls-1" d="M476.1,47.17V45.29a5.52,5.52,0,0,1-4.65,2.34c-4.29,0-7-3.57-7-7.66s2.74-7.56,6.93-7.56a6,6,0,0,1,4.75,2.28V32.88h4V47.17Zm-6.9-17a2.38,2.38,0,0,1,0-4.75,2.38,2.38,0,1,1,0,4.75ZM472.54,36a4,4,0,1,0,4,4A4,4,0,0,0,472.54,36Zm3.53-5.81a2.41,2.41,0,0,1-2.38-2.37,2.38,2.38,0,1,1,2.38,2.37Z"/><path class="cls-1" d="M493.29,36.51a3.46,3.46,0,0,0-1.91-.5c-2.71,0-3.43,1.92-3.43,4.29v6.87h-4V32.88h4V35a4.58,4.58,0,0,1,4.16-2.61,4.64,4.64,0,0,1,1.75.33Z"/><path class="cls-1" d="M506.76,47.17V45.29a5.52,5.52,0,0,1-4.66,2.34c-4.29,0-7-3.57-7-7.66s2.73-7.56,6.93-7.56a6,6,0,0,1,4.75,2.28V32.88h4V47.17ZM503.19,36a4,4,0,1,0,4,4A4,4,0,0,0,503.19,36Z"/><path class="cls-1" d="M383.08,85.17,381.13,71.6l-6.07,13.86h-1.19L368,71.6l-2.21,13.57h-4.33l4.09-22.41h2.94l6,14.39,6.27-14.39h2.94l3.66,22.41Z"/><path class="cls-1" d="M402,85.66A11.42,11.42,0,0,1,390.2,74.21,11.77,11.77,0,1,1,402,85.66Zm0-19.07a7.59,7.59,0,1,0,7.36,7.55A7.46,7.46,0,0,0,402,66.59Z"/><path class="cls-1" d="M425.88,85.73H423.6l-9.37-22.58h4.68l5.88,14.79,5.94-14.79h4.65Z"/><path class="cls-1" d="M438,85.17v-22h12.18v3.73h-7.89v4.89h7.59V75.5h-7.59v5.94h7.89v3.73Z"/><path class="cls-1" d="M479.34,72.46H476l-.46,3h3.37l-.56,3.6H475l-1,6.14h-4.12l1-6.14h-3l-1,6.14h-4.09l1-6.14h-3.4l.56-3.6h3.4l.46-3h-3.36l.56-3.63h3.36l.9-5.68h4.09l-.93,5.68h3l.89-5.68h4.13l-.89,5.68h3.33Zm-10.5,0-.46,3h3l.46-3Z"/><path class="cls-1" d="M487.32,85.17V66.92h-3.17V63.15h7.46v22Z"/><path class="cls-1" d="M507.88,85.73c-6.07,0-8.51-6.4-8.51-11.55s2.4-11.59,8.51-11.59S516.4,69,516.4,74.14,514,85.73,507.88,85.73Zm0-19.34c-3.37,0-4.22,5.21-4.22,7.75s.85,7.83,4.22,7.83,4.23-5.29,4.23-7.83S511.25,66.39,507.88,66.39Z"/><path class="cls-1" d="M525.14,85.73a9.4,9.4,0,0,1-7-2.87l1.42-3.7A7.38,7.38,0,0,0,525.07,82a4.36,4.36,0,0,0,4.39-4.26c0-2.71-2.51-4.39-5-4.39a7.23,7.23,0,0,0-4.23,1.39H520l2.61-11.56h10.16v3.77H525.5l-.86,3.4a12.65,12.65,0,0,1,1.62-.14,7.39,7.39,0,0,1,7.49,7.69C533.75,82.86,529.86,85.73,525.14,85.73Z"/></svg>