<svg id="Layer_1" data-name="Layer 1" xmlns="http://www.w3.org/2000/svg" viewBox="0 0 740 160"><defs><style>.cls-1{fill:#d4ac76;}</style></defs><title>text</title><path class="cls-1" d="M322.85,41.58a7.26,7.26,0,0,1-9.73,0,6.3,6.3,0,0,1-1.92-4.7V25.4h3.33v11a4.07,4.07,0,0,0,.92,2.74,3.51,3.51,0,0,0,5.06,0,3.93,3.93,0,0,0,.92-2.7V25.4h3.34V36.88A6.3,6.3,0,0,1,322.85,41.58Z"/><path class="cls-1" d="M330.72,43.18V25.4h6.39a6,6,0,0,1,6.17,6.14,5.63,5.63,0,0,1-1.8,4.28,6.23,6.23,0,0,1-4.43,1.7h-3v5.66Zm6.1-14.58h-2.76v5.95h2.81a3.14,3.14,0,0,0,2.23-.79,2.8,2.8,0,0,0,.85-2.13,2.87,2.87,0,0,0-.88-2.18A3.07,3.07,0,0,0,336.82,28.6Z"/><path class="cls-1" d="M348.18,43.18V25.4h6.38a6,6,0,0,1,6.18,6.14,5.63,5.63,0,0,1-1.8,4.28,6.24,6.24,0,0,1-4.43,1.7h-3v5.66Zm6.1-14.58h-2.76v5.95h2.8a3.12,3.12,0,0,0,2.23-.79,2.77,2.77,0,0,0,.85-2.13,2.9,2.9,0,0,0-.87-2.18A3.07,3.07,0,0,0,354.28,28.6Z"/><path class="cls-1" d="M365.64,43.18V25.4H369V40h6.53v3.2Z"/><path class="cls-1" d="M390.22,35.66h-6.57v4.55h7.22v3H380.31V25.4h10.35v3h-7v4.32h6.57Z"/><path class="cls-1" d="M401.18,43.18,394.39,25.4h3.47l4.88,12.78,4.83-12.78h3.37l-6.73,17.78Z"/><path class="cls-1" d="M423,28.6V25.4h14.65v3.2H432V43.18h-3.33V28.6Z"/><path class="cls-1" d="M441.93,43.18V25.4h6.95A6,6,0,0,1,453.17,27a5.55,5.55,0,0,1,1.71,4.22,5.32,5.32,0,0,1-1.28,3.6,5.74,5.74,0,0,1-3.31,1.9l4.77,6.45h-3.75l-4.61-6.35h-1.44v6.35Zm6.44-14.81h-3.11v5.79h3.11a3.29,3.29,0,0,0,2.31-.79,2.66,2.66,0,0,0,.86-2,2.81,2.81,0,0,0-.88-2.11A3.2,3.2,0,0,0,448.37,28.37Z"/><path class="cls-1" d="M460.07,43.18V25.4h3.34V43.18Z"/><path class="cls-1" d="M474.35,43.18l-6.8-17.78H471l4.89,12.78,4.82-12.78h3.37l-6.73,17.78Z"/><path class="cls-1" d="M492.35,43.41a8.92,8.92,0,0,1-6.23-2.65l2.12-2.53a6.53,6.53,0,0,0,2,1.59,5.06,5.06,0,0,0,2.34.62,2.84,2.84,0,0,0,1.89-.61,1.89,1.89,0,0,0,.74-1.53,2.65,2.65,0,0,0-1.95-2.47l-2-.79a7.71,7.71,0,0,1-3-2,4.83,4.83,0,0,1,.56-6.39,5.15,5.15,0,0,1,3.77-1.49,7.66,7.66,0,0,1,5.47,2l-2,2.48a4.58,4.58,0,0,0-3.51-1.54,2.38,2.38,0,0,0-1.6.51,1.59,1.59,0,0,0-.6,1.25,1.66,1.66,0,0,0,.47,1.22,4.54,4.54,0,0,0,1.53.92l2.07.83q4,1.57,4,5.13a5,5,0,0,1-1.68,3.89A6.45,6.45,0,0,1,492.35,43.41Z"/><path class="cls-1" d="M513.5,35.66h-6.57v4.55h7.22v3H503.59V25.4h10.35v3h-7v4.32h6.57Z"/><path class="cls-1" d="M519.55,43.18V25.4h3.34V40h6.53v3.2Z"/><path class="cls-1" d="M545.17,43.18V35.75h-7.61v7.43h-3.33V25.4h3.33v7.15h7.61V25.4h3.34V43.18Z"/><path class="cls-1" d="M566.14,41.58a7.26,7.26,0,0,1-9.73,0,6.3,6.3,0,0,1-1.92-4.7V25.4h3.33v11a4.07,4.07,0,0,0,.92,2.74,3.53,3.53,0,0,0,5.07,0,4,4,0,0,0,.91-2.7V25.4h3.34V36.88A6.3,6.3,0,0,1,566.14,41.58Z"/><path class="cls-1" d="M578.81,43.41a8.64,8.64,0,0,1-3.35-.7,8.73,8.73,0,0,1-2.88-2l2.11-2.53a6.65,6.65,0,0,0,2,1.59,5.06,5.06,0,0,0,2.34.62,2.87,2.87,0,0,0,1.9-.61,1.92,1.92,0,0,0,.74-1.53,2.65,2.65,0,0,0-2-2.47l-2-.79a7.63,7.63,0,0,1-3-2,4.5,4.5,0,0,1-1-3,4.6,4.6,0,0,1,1.5-3.37,5.18,5.18,0,0,1,3.77-1.49,7.69,7.69,0,0,1,5.48,2l-2,2.48a4.59,4.59,0,0,0-3.52-1.54,2.37,2.37,0,0,0-1.59.51,1.59,1.59,0,0,0-.6,1.25,1.62,1.62,0,0,0,.47,1.22,4.58,4.58,0,0,0,1.52.92l2.08.83c2.63,1,4,2.76,4,5.13a5,5,0,0,1-1.67,3.89A6.47,6.47,0,0,1,578.81,43.41Z"/><path class="cls-1" d="M328,70.78,321.21,53h3.48l4.88,12.78L334.39,53h3.38L331,70.78Z"/><path class="cls-1" d="M342,70.78V53h3.33V70.78Z"/><path class="cls-1" d="M356.21,71a8.72,8.72,0,0,1-3.36-.7,9,9,0,0,1-2.88-2l2.12-2.53a6.53,6.53,0,0,0,2,1.59,5.06,5.06,0,0,0,2.34.62,2.89,2.89,0,0,0,1.9-.61A1.92,1.92,0,0,0,359,65.9a2.65,2.65,0,0,0-1.95-2.47l-2-.79a7.59,7.59,0,0,1-2.95-2,4.5,4.5,0,0,1-1-3,4.65,4.65,0,0,1,1.51-3.38,5.2,5.2,0,0,1,3.77-1.48,7.66,7.66,0,0,1,5.47,2l-2,2.48a4.55,4.55,0,0,0-3.51-1.54,2.37,2.37,0,0,0-1.59.51,1.57,1.57,0,0,0-.61,1.25,1.66,1.66,0,0,0,.47,1.22,4.76,4.76,0,0,0,1.53.92l2.07.83q4,1.57,4,5.13a5,5,0,0,1-1.67,3.89A6.47,6.47,0,0,1,356.21,71Z"/><path class="cls-1" d="M367.44,70.78V53h2.34l8.75,11.18V53h3.33V70.78h-2.23l-8.85-11.32V70.78Z"/><path class="cls-1" d="M388.21,70.78V53h3.34V70.78Z"/><path class="cls-1" d="M397.89,70.78V53h2.34L409,64.18V53h3.34V70.78h-2.24l-8.85-11.32V70.78Z"/><path class="cls-1" d="M429.52,63.35v-3h6.37l0,1.52a9.15,9.15,0,0,1-1.3,4.71,8.91,8.91,0,0,1-3.37,3.28,9.15,9.15,0,0,1-4.53,1.16,9.22,9.22,0,1,1,0-18.44,8.79,8.79,0,0,1,6.63,2.87l-2.28,2.25a5.76,5.76,0,0,0-4.37-1.92,5.66,5.66,0,0,0-4.25,1.73,6.29,6.29,0,0,0,0,8.57,5.39,5.39,0,0,0,4,1.75,6.26,6.26,0,0,0,4-1.24,5.61,5.61,0,0,0,2.09-3.27Z"/><path class="cls-1" d="M450.27,70.78V53h3.33V70.78Z"/><path class="cls-1" d="M480.05,70.78V63.35h-7.61v7.43H469.1V53h3.34v7.15h7.61V53h3.34V70.78Z"/><path class="cls-1" d="M499.65,63.26h-6.58v4.55h7.22v3H489.73V53h10.35v3h-7v4.32h6.58Z"/><path class="cls-1" d="M505.7,70.78V53H509V67.58h6.53v3.2Z"/><path class="cls-1" d="M530.26,63.35v-3h6.37l0,1.52a9.15,9.15,0,0,1-1.3,4.71,8.91,8.91,0,0,1-3.37,3.28,9.15,9.15,0,0,1-4.53,1.16,9.22,9.22,0,1,1,0-18.44,8.79,8.79,0,0,1,6.63,2.87l-2.28,2.25a5.76,5.76,0,0,0-4.37-1.92,5.7,5.7,0,0,0-4.26,1.73,6,6,0,0,0-1.67,4.29,5.9,5.9,0,0,0,1.69,4.28,5.39,5.39,0,0,0,4,1.75,6.26,6.26,0,0,0,4-1.24,5.61,5.61,0,0,0,2.09-3.27Z"/><path class="cls-1" d="M551.76,63.26h-6.57v4.55h7.22v3H541.85V53H552.2v3h-7v4.32h6.57Z"/><path class="cls-1" d="M557.81,70.78V53h2.34l8.75,11.18V53h3.33V70.78H570l-8.85-11.32V70.78Z"/></svg>