<svg id="Layer_1" data-name="Layer 1" xmlns="http://www.w3.org/2000/svg" viewBox="0 0 300 600"><defs><style>.cls-1{fill:#d5ad77;}</style></defs><title>text</title><path class="cls-1" d="M112.4,74.19V42.5h17.26v5.29H118.35v8.65h10.08v5.29H118.35V74.19Z"/><path class="cls-1" d="M169.48,58.33A16.47,16.47,0,1,1,141.37,46.7a16.47,16.47,0,0,1,28.11,11.63Zm-23.93,7.56a10.42,10.42,0,0,0,14.91,0,10.91,10.91,0,0,0,0-15.17,10.42,10.42,0,0,0-14.91,0,11,11,0,0,0,0,15.17Zm4.68-26.65a2.54,2.54,0,0,1-1.93.84,2.62,2.62,0,0,1-2-.84,2.82,2.82,0,0,1-.81-2,2.78,2.78,0,0,1,.79-2,2.84,2.84,0,0,1,2-.82,2.61,2.61,0,0,1,1.91.82,2.76,2.76,0,0,1,.81,2A2.85,2.85,0,0,1,150.23,39.24Zm9.44,0a3.06,3.06,0,0,1-4.21,0,2.72,2.72,0,0,1-.87-2,2.67,2.67,0,0,1,.87-2,3.11,3.11,0,0,1,4.21,0,2.67,2.67,0,0,1,.87,2A2.72,2.72,0,0,1,159.67,39.24Z"/><path class="cls-1" d="M178.58,74.19V42.5H191a10.68,10.68,0,0,1,7.63,2.88,9.87,9.87,0,0,1,3,7.52,9.53,9.53,0,0,1-2.27,6.42,10.24,10.24,0,0,1-5.92,3.37L202,74.19h-6.68l-8.23-11.31h-2.56V74.19Zm11.48-26.4h-5.54V58.12h5.54a5.87,5.87,0,0,0,4.12-1.41,4.72,4.72,0,0,0,1.54-3.65,5,5,0,0,0-1.58-3.76A5.67,5.67,0,0,0,190.06,47.79Z"/><path class="cls-1" d="M106.11,123.39,94,91.7h6.2l8.7,22.79,8.6-22.79h6l-12,31.69Z"/><path class="cls-1" d="M148.65,110H136.92v8.11H149.8v5.29H131V91.7h18.45V97H136.92v7.71h11.73Z"/><path class="cls-1" d="M159.43,123.39V91.7h12.4a10.66,10.66,0,0,1,7.63,2.88,9.83,9.83,0,0,1,3,7.52,9.48,9.48,0,0,1-2.27,6.42,10.22,10.22,0,0,1-5.91,3.37l8.51,11.5h-6.68l-8.23-11.31h-2.55v11.31ZM170.91,97h-5.53v10.33h5.53a5.85,5.85,0,0,0,4.12-1.41,4.69,4.69,0,0,0,1.54-3.65A5,5,0,0,0,175,98.5,5.64,5.64,0,0,0,170.91,97Z"/><path class="cls-1" d="M191.78,123.39V91.7h5.49v14l12.14-14h7.34l-11.19,12.64,11.43,19h-6.84l-8.64-14.47-4.24,4.8v9.67Z"/><path class="cls-1" d="M103.55,172.59V140.9h5.94v26h11.65v5.7Z"/><path class="cls-1" d="M129.71,172.59V140.9h5.94v31.69Z"/><path class="cls-1" d="M166.32,159.35v-5.29h11.35l0,2.71a16.2,16.2,0,0,1-2.31,8.4,16,16,0,0,1-6,5.85,16.39,16.39,0,0,1-8.08,2.07,16.45,16.45,0,1,1,.09-32.89,15.6,15.6,0,0,1,11.8,5.13l-4.06,4a10.22,10.22,0,0,0-7.79-3.43,10.1,10.1,0,0,0-7.58,3.1,11.23,11.23,0,0,0,0,15.28,9.69,9.69,0,0,0,7.2,3.11,11.31,11.31,0,0,0,7.05-2.2,10.11,10.11,0,0,0,3.73-5.84Z"/><path class="cls-1" d="M182,172.59l12.22-31.69h5.37l12.18,31.69h-6.11L204,168.21H189.82l-1.69,4.38Zm14.91-22.82-5.07,13.15H202Z"/><path class="cls-1" d="M104.65,221.79V190.1h9a15.53,15.53,0,0,1,11.22,4.53,15.25,15.25,0,0,1,4.66,11.42,14.84,14.84,0,0,1-4.72,11.32,16.19,16.19,0,0,1-11.49,4.42Zm9.12-26.4h-3.62V216.5h3.66a9.12,9.12,0,0,0,7-3.07,10.73,10.73,0,0,0,2.82-7.55,10.45,10.45,0,0,0-2.86-7.48A9.28,9.28,0,0,0,113.77,195.39Z"/><path class="cls-1" d="M138.85,221.79V190.1h5.94v31.69Z"/><path class="cls-1" d="M152.46,195.8v-5.7h26.12v5.7H168.49v26h-5.94v-26Z"/><path class="cls-1" d="M184.15,195.8v-5.7h26.12v5.7H200.18v26h-5.94v-26Z"/><path class="cls-1" d="M109.74,271V239.3h5.94v26h11.65V271Z"/><path class="cls-1" d="M135.9,271V239.3h5.94V271Z"/><path class="cls-1" d="M161.34,271,149.22,239.3h6.19l8.71,22.79,8.59-22.79h6l-12,31.69Z"/><path class="cls-1" d="M193.44,271.4a15.1,15.1,0,0,1-6-1.25,15.48,15.48,0,0,1-5.13-3.46l3.77-4.52a11.27,11.27,0,0,0,3.49,2.83,8.93,8.93,0,0,0,4.18,1.11,5.12,5.12,0,0,0,3.37-1.08,3.41,3.41,0,0,0,1.32-2.74q0-3-3.47-4.4l-3.54-1.41a13.59,13.59,0,0,1-5.27-3.5,8.1,8.1,0,0,1-1.7-5.39,8.22,8.22,0,0,1,2.69-6,9.17,9.17,0,0,1,6.72-2.65,13.67,13.67,0,0,1,9.76,3.62l-3.5,4.42a8.18,8.18,0,0,0-6.26-2.75,4.21,4.21,0,0,0-2.84.91,2.81,2.81,0,0,0-1.07,2.24,3,3,0,0,0,.83,2.17,8.53,8.53,0,0,0,2.72,1.63l3.7,1.48q7.05,2.82,7.18,9.15a8.88,8.88,0,0,1-3,6.94A11.55,11.55,0,0,1,193.44,271.4Z"/><path class="cls-1" d="M106.11,320.19,94,288.5h6.2l8.7,22.79,8.6-22.79h6l-12,31.69Z"/><path class="cls-1" d="M148.65,306.79H136.92v8.11H149.8v5.29H131V288.5h18.45v5.29H136.92v7.71h11.73Z"/><path class="cls-1" d="M159.43,320.19V288.5h12.4a10.66,10.66,0,0,1,7.63,2.88,9.83,9.83,0,0,1,3,7.52,9.48,9.48,0,0,1-2.27,6.42,10.16,10.16,0,0,1-5.91,3.37l8.51,11.5h-6.68l-8.23-11.31h-2.55v11.31Zm11.48-26.4h-5.53v10.33h5.53a5.85,5.85,0,0,0,4.12-1.41,4.69,4.69,0,0,0,1.54-3.65A5,5,0,0,0,175,295.3,5.64,5.64,0,0,0,170.91,293.79Z"/><path class="cls-1" d="M191.78,320.19V288.5h5.49v14l12.14-14h7.34l-11.19,12.64L217,320.19h-6.84l-8.64-14.47-4.24,4.8v9.67Z"/></svg>