<svg id="Layer_1" data-name="Layer 1" xmlns="http://www.w3.org/2000/svg" viewBox="0 0 980 120"><defs><style>.cls-1{fill:#d4ac76;}</style></defs><title>text</title><path class="cls-1" d="M873,50.75v-8.5h2.79a2.53,2.53,0,0,1,1.86.71,2.32,2.32,0,0,1,.73,1.75,2,2,0,0,1-1,1.71,2.36,2.36,0,0,1,.94.76,1.8,1.8,0,0,1,.36,1.08,2.3,2.3,0,0,1-.75,1.8,2.64,2.64,0,0,1-1.88.69Zm2.61-7.08h-1.14V45.8h1.27a1.13,1.13,0,0,0,.84-.31,1,1,0,0,0,.33-.79.91.91,0,0,0-.36-.75A1.46,1.46,0,0,0,875.57,43.67Zm.24,3.41h-1.38v2.25h1.35a1.41,1.41,0,0,0,1-.32,1.07,1.07,0,0,0,.35-.82,1,1,0,0,0-.33-.81A1.37,1.37,0,0,0,875.81,47.08Z"/><path class="cls-1" d="M881,50.75v-8.5h1.59v7h3.13v1.53Z"/><path class="cls-1" d="M887.82,50.75v-8.5h1.59v8.5Z"/><path class="cls-1" d="M830.86,64.88a3,3,0,0,1-1.75-.53,2.78,2.78,0,0,1-1-1.41l1.35-.71a1.65,1.65,0,0,0,.53.82,1.53,1.53,0,0,0,1,.3,1.17,1.17,0,0,0,1-.43,1.78,1.78,0,0,0,.36-1.15V56.25h1.6v5.57a2.84,2.84,0,0,1-3,3.06Z"/><path class="cls-1" d="M841.86,64a3.48,3.48,0,0,1-4.65,0,3,3,0,0,1-.92-2.25V56.25h1.6v5.28a1.91,1.91,0,0,0,.44,1.31,1.69,1.69,0,0,0,2.42,0,1.9,1.9,0,0,0,.44-1.29v-5.3h1.59v5.49A3,3,0,0,1,841.86,64Z"/><path class="cls-1" d="M845.41,64.75v-8.5h2.8a2.54,2.54,0,0,1,1.86.71,2.32,2.32,0,0,1,.73,1.75,2,2,0,0,1-.95,1.71,2.43,2.43,0,0,1,.94.76,1.85,1.85,0,0,1,.35,1.08,2.33,2.33,0,0,1-.74,1.8,2.66,2.66,0,0,1-1.88.69ZM848,57.67h-1.14V59.8h1.28a1.16,1.16,0,0,0,.84-.31,1,1,0,0,0,.33-.79A.91.91,0,0,0,849,58,1.49,1.49,0,0,0,848,57.67Zm.25,3.41h-1.39v2.25h1.35a1.37,1.37,0,0,0,1-.32,1.14,1.14,0,0,0,0-1.63A1.39,1.39,0,0,0,848.27,61.08Z"/><path class="cls-1" d="M853.47,64.75v-8.5h1.6v8.5Z"/><path class="cls-1" d="M857.88,64.75v-8.5h1.6v7h3.12v1.53Z"/><path class="cls-1" d="M869.42,61.15h-3.14v2.18h3.45v1.42h-5.05v-8.5h5v1.42h-3.35v2.06h3.14Z"/><path class="cls-1" d="M877.49,64a3.48,3.48,0,0,1-4.65,0,3,3,0,0,1-.92-2.25V56.25h1.6v5.28a2,2,0,0,0,.43,1.31,1.7,1.7,0,0,0,2.43,0,1.9,1.9,0,0,0,.44-1.29v-5.3h1.59v5.49A3,3,0,0,1,877.49,64Z"/><path class="cls-1" d="M881,64.75v-8.5h1.54l2.63,4.19,2.66-4.19h1.67v8.5H888V58.93l-.13,0L885.18,63l-2.57-4h0v5.78Z"/><path class="cls-1" d="M894.44,64.86a4,4,0,0,1-1.6-.34,4.1,4.1,0,0,1-1.38-.93l1-1.21a3,3,0,0,0,.94.76,2.38,2.38,0,0,0,1.12.3,1.42,1.42,0,0,0,.91-.29.93.93,0,0,0,.35-.73,1.26,1.26,0,0,0-.93-1.18l-1-.38a3.64,3.64,0,0,1-1.41-.94,2.14,2.14,0,0,1-.46-1.45,2.2,2.2,0,0,1,.72-1.61,2.43,2.43,0,0,1,1.8-.71,3.64,3.64,0,0,1,2.62,1l-.94,1.19a2.16,2.16,0,0,0-1.68-.74,1.15,1.15,0,0,0-.76.24.76.76,0,0,0-.29.6.78.78,0,0,0,.23.58,2.09,2.09,0,0,0,.73.44l1,.4a2.64,2.64,0,0,1,1.93,2.45,2.37,2.37,0,0,1-.8,1.86A3.1,3.1,0,0,1,894.44,64.86Z"/><path class="cls-1" d="M899.6,64.75v-8.5h1.47V60l3.26-3.75h2l-3,3.39,3.07,5.11h-1.84l-2.31-3.88-1.14,1.29v2.59Z"/><path class="cls-1" d="M913.72,64a3.49,3.49,0,0,1-4.66,0,3,3,0,0,1-.92-2.25V56.25h1.6v5.28a1.91,1.91,0,0,0,.44,1.31,1.69,1.69,0,0,0,2.42,0,1.9,1.9,0,0,0,.44-1.29v-5.3h1.59v5.49A3,3,0,0,1,913.72,64Z"/><path class="cls-1" d="M917.26,64.75v-8.5h1.12l4.18,5.34V56.25h1.6v8.5h-1.07l-4.23-5.41v5.41Z"/><path class="cls-1" d="M927,64.75v-8.5h2.42a4.16,4.16,0,0,1,3,1.21,4.07,4.07,0,0,1,1.25,3.07,4,4,0,0,1-1.26,3,4.38,4.38,0,0,1-3.09,1.19Zm2.44-7.08h-1v5.66h1a2.43,2.43,0,0,0,1.88-.82,2.88,2.88,0,0,0,.76-2,2.82,2.82,0,0,0-.77-2A2.48,2.48,0,0,0,929.42,57.67Z"/><path class="cls-1" d="M873.26,78.75v-8.5h1.12l4.19,5.34V70.25h1.59v8.5h-1.07l-4.23-5.41v5.41Z"/><path class="cls-1" d="M888.37,78a3.48,3.48,0,0,1-4.65,0,3,3,0,0,1-.92-2.25V70.25h1.59v5.28a2,2,0,0,0,.44,1.31,1.7,1.7,0,0,0,2.43,0,1.9,1.9,0,0,0,.44-1.29v-5.3h1.59v5.49A3,3,0,0,1,888.37,78Z"/></svg>