<svg id="Layer_1" data-name="Layer 1" xmlns="http://www.w3.org/2000/svg" viewBox="0 0 320 160"><defs><style>.cls-1{fill:#d80201;}</style></defs><title>text</title><path class="cls-1" d="M171.16,67.87h-1.52l-6.25-15.05h3.13l3.92,9.86,4-9.86h3.1Z"/><path class="cls-1" d="M180.12,55.55a1.61,1.61,0,1,1,0-3.21,1.61,1.61,0,0,1,0,3.21ZM178.77,67.5V58h2.66V67.5Z"/><path class="cls-1" d="M187,67.81a5.07,5.07,0,0,1-3.63-1.58l1.41-1.63A3.09,3.09,0,0,0,187,65.72a1.12,1.12,0,0,0,1.21-1.06c0-1.63-4.25-.81-4.25-4,0-1.94,1.61-3,3.41-3a4.91,4.91,0,0,1,3.1,1l-1.32,1.56a2.66,2.66,0,0,0-1.58-.64c-.46,0-1,.29-1,.81,0,1.39,4.4.77,4.4,4C191,66.62,189,67.81,187,67.81Z"/><path class="cls-1" d="M199.37,67.5V62.22c0-1.3-.29-2.29-1.8-2.29s-2,1.21-2,2.64V67.5h-2.66V58h2.66v1.17a3.52,3.52,0,0,1,3-1.47A3.29,3.29,0,0,1,202,61.45V67.5Z"/><path class="cls-1" d="M205.88,55.55a1.61,1.61,0,0,1,0-3.21,1.61,1.61,0,0,1,0,3.21ZM204.53,67.5V58h2.66V67.5Z"/><path class="cls-1" d="M216.22,67.5V62.22c0-1.3-.29-2.29-1.8-2.29s-2,1.21-2,2.64V67.5H209.7V58h2.66v1.17a3.52,3.52,0,0,1,3-1.47,3.29,3.29,0,0,1,3.52,3.78V67.5Z"/><path class="cls-1" d="M230.28,71a5.2,5.2,0,0,1-4,1.67c-2.44,0-4.8-1.41-5.06-4H224a2.12,2.12,0,0,0,2.27,1.74c1.67,0,2.35-1.17,2.35-2.71V66.22a4,4,0,0,1-3.21,1.58c-2.82,0-4.53-2.27-4.53-5s1.76-5.19,4.66-5.19a3.57,3.57,0,0,1,3.08,1.54V58h2.68v9.18A5.13,5.13,0,0,1,230.28,71Zm-3.94-10.89A2.67,2.67,0,1,0,229,62.73,2.66,2.66,0,0,0,226.34,60.06Z"/><path class="cls-1" d="M163.3,83.55a1.61,1.61,0,0,1,0-3.21,1.61,1.61,0,0,1,0,3.21ZM162,95.5V86h2.66V95.5Z"/><path class="cls-1" d="M179.14,95.5V90.29c0-1.32-.29-2.35-1.83-2.35s-2,1.28-2,2.68V95.5h-2.66V79h2.66v8.19a3.47,3.47,0,0,1,3-1.54,3.64,3.64,0,0,1,2.77,1.17,3.78,3.78,0,0,1,.75,2.68v6Z"/><path class="cls-1" d="M186.57,91.17c0,1.47.75,2.55,2.33,2.55a2.5,2.5,0,0,0,2.27-1.28l2.46.4a4.67,4.67,0,0,1-4.69,3,4.78,4.78,0,0,1-5.1-5.08,4.72,4.72,0,0,1,5-5.06c3.15,0,4.86,2.11,4.86,5.15v.35Zm2.31-3.61a2.16,2.16,0,0,0-2.22,1.92h4.51A2.21,2.21,0,0,0,188.88,87.56Z"/><path class="cls-1" d="M195.75,95.5V79h2.66V95.5Z"/><path class="cls-1" d="M209.8,99a5.2,5.2,0,0,1-4,1.67c-2.44,0-4.8-1.41-5.06-4h2.88a2.12,2.12,0,0,0,2.27,1.74c1.67,0,2.35-1.17,2.35-2.71V94.22A4,4,0,0,1,205,95.81c-2.82,0-4.53-2.27-4.53-5s1.76-5.19,4.67-5.19a3.57,3.57,0,0,1,3.08,1.54V86h2.68v9.18A5.13,5.13,0,0,1,209.8,99Zm-3.94-10.89a2.67,2.67,0,1,0,2.66,2.66A2.66,2.66,0,0,0,205.87,88.06Z"/><path class="cls-1" d="M215.66,91.17c0,1.47.75,2.55,2.33,2.55a2.5,2.5,0,0,0,2.27-1.28l2.46.4a4.67,4.67,0,0,1-4.69,3,4.78,4.78,0,0,1-5.11-5.08,4.72,4.72,0,0,1,5-5.06c3.15,0,4.86,2.11,4.86,5.15v.35ZM218,87.56a2.16,2.16,0,0,0-2.22,1.92h4.51A2.21,2.21,0,0,0,218,87.56Z"/><path class="cls-1" d="M231.34,95.5V90.22c0-1.3-.29-2.29-1.8-2.29s-2,1.21-2,2.64V95.5h-2.66V86h2.66v1.17a3.52,3.52,0,0,1,3-1.47A3.29,3.29,0,0,1,234,89.45V95.5Z"/></svg>