<svg id="Layer_1" data-name="Layer 1" xmlns="http://www.w3.org/2000/svg" viewBox="0 0 320 160"><defs><style>.cls-1{fill:#d80201;}</style></defs><title>text</title><path class="cls-1" d="M177.78,65.72A6.08,6.08,0,0,1,173,67.83a6,6,0,0,1-4.82-2.11,6.33,6.33,0,0,1-1.08-3.92v-9h2.86v8.41a5,5,0,0,0,.46,2.64A3,3,0,0,0,173,65.23a3,3,0,0,0,2.57-1.36,4.73,4.73,0,0,0,.46-2.64V52.82h2.86v9A6.19,6.19,0,0,1,177.78,65.72Z"/><path class="cls-1" d="M187.66,67.81a3.81,3.81,0,0,1-3.19-1.56v6.34H181.8V58h2.66v1.21a3.8,3.8,0,0,1,3.13-1.52,5.09,5.09,0,0,1,.07,10.14Zm-.79-7.75a2.67,2.67,0,1,0,2.66,2.66A2.66,2.66,0,0,0,186.86,60.06Z"/><path class="cls-1" d="M200.17,67.81A3.81,3.81,0,0,1,197,66.25v6.34h-2.66V58H197v1.21a3.79,3.79,0,0,1,3.12-1.52,5.09,5.09,0,0,1,.07,10.14Zm-.79-7.75A2.67,2.67,0,1,0,202,62.73,2.66,2.66,0,0,0,199.38,60.06Z"/><path class="cls-1" d="M206.84,67.5V51h2.66V67.5Z"/><path class="cls-1" d="M214.27,63.17c0,1.47.75,2.55,2.33,2.55a2.5,2.5,0,0,0,2.27-1.28l2.46.4a4.67,4.67,0,0,1-4.69,3,4.78,4.78,0,0,1-5.11-5.08,4.72,4.72,0,0,1,5-5.06c3.15,0,4.86,2.11,4.86,5.15v.35Zm2.31-3.61a2.16,2.16,0,0,0-2.22,1.91h4.51A2.21,2.21,0,0,0,216.58,59.56Z"/><path class="cls-1" d="M227.8,67.7h-1.23L221.71,58h3l2.51,5.37L229.72,58h3Z"/><path class="cls-1" d="M153,95.5l-1.3-9-4,9.24h-.79L143,86.46l-1.47,9H138.6l2.73-14.94h2l4,9.59,4.18-9.59h2l2.44,14.94Z"/><path class="cls-1" d="M165.57,95.83a7.61,7.61,0,0,1-7.83-7.63,7.85,7.85,0,1,1,7.83,7.63Zm0-12.72a5.06,5.06,0,1,0,4.91,5A5,5,0,0,0,165.57,83.11Z"/><path class="cls-1" d="M181.52,95.87H180l-6.25-15h3.13l3.92,9.86,4-9.86h3.1Z"/><path class="cls-1" d="M189.59,95.5V80.82h8.12v2.49h-5.26v3.26h5.06v2.49h-5.06v4h5.26V95.5Z"/><path class="cls-1" d="M217.16,87h-2.22l-.31,2h2.25l-.37,2.4h-2.25l-.66,4.09h-2.75l.66-4.09h-2l-.64,4.09h-2.73l.66-4.09h-2.27l.37-2.4h2.27l.31-2h-2.24l.37-2.42h2.24l.59-3.78h2.73l-.62,3.78h2l.59-3.78h2.75l-.59,3.78h2.22Zm-7,0-.31,2h2l.31-2Z"/><path class="cls-1" d="M222.48,95.5V83.33h-2.11V80.82h5V95.5Z"/><path class="cls-1" d="M236.19,95.87c-4,0-5.68-4.27-5.68-7.7s1.61-7.72,5.68-7.72,5.68,4.25,5.68,7.7S240.26,95.87,236.19,95.87Zm0-12.89c-2.25,0-2.82,3.48-2.82,5.17s.57,5.21,2.82,5.21S239,89.85,239,88.15,238.43,83,236.19,83Z"/><path class="cls-1" d="M247.69,95.87A6.27,6.27,0,0,1,243,94L244,91.5a4.92,4.92,0,0,0,3.7,1.87,2.91,2.91,0,0,0,2.93-2.84,3.14,3.14,0,0,0-3.34-2.93,4.85,4.85,0,0,0-2.82.92h-.15l1.74-7.7h6.78v2.51h-4.84l-.57,2.27a8.9,8.9,0,0,1,1.08-.09,4.93,4.93,0,0,1,5,5.13C253.44,94,250.84,95.87,247.69,95.87Z"/><path class="cls-1" d="M257.66,95.79a1.72,1.72,0,1,1,1.72-1.72A1.72,1.72,0,0,1,257.66,95.79Zm-1.36-4.49V80.82H259V91.3Z"/></svg>