<svg id="Layer_1" data-name="Layer 1" xmlns="http://www.w3.org/2000/svg" viewBox="0 0 740 160"><defs><style>.cls-1{fill:#d4ac76;}</style></defs><title>text</title><path class="cls-1" d="M359.5,43.18,352.7,25.4h3.47l4.89,12.78,4.82-12.78h3.37l-6.73,17.78Z"/><path class="cls-1" d="M373.45,43.18V25.4h3.33V43.18Z"/><path class="cls-1" d="M387.69,43.41a8.92,8.92,0,0,1-6.23-2.65l2.12-2.53a6.53,6.53,0,0,0,2,1.59,5.06,5.06,0,0,0,2.34.62,2.84,2.84,0,0,0,1.89-.61,1.89,1.89,0,0,0,.74-1.53,2.65,2.65,0,0,0-1.95-2.47l-2-.79a7.71,7.71,0,0,1-3-2,4.83,4.83,0,0,1,.56-6.39A5.15,5.15,0,0,1,388,25.19a7.66,7.66,0,0,1,5.47,2l-2,2.48A4.58,4.58,0,0,0,388,28.16a2.38,2.38,0,0,0-1.6.51,1.59,1.59,0,0,0-.6,1.25,1.66,1.66,0,0,0,.47,1.22,4.54,4.54,0,0,0,1.53.92l2.07.83q4,1.57,4,5.13a5,5,0,0,1-1.68,3.89A6.45,6.45,0,0,1,387.69,43.41Z"/><path class="cls-1" d="M398.93,43.18V25.4h2.34L410,36.58V25.4h3.33V43.18h-2.23l-8.86-11.32V43.18Z"/><path class="cls-1" d="M419.7,43.18V25.4H423V43.18Z"/><path class="cls-1" d="M429.38,43.18V25.4h2.34l8.75,11.18V25.4h3.33V43.18h-2.23l-8.85-11.32V43.18Z"/><path class="cls-1" d="M461,35.75v-3h6.37l0,1.52a9.15,9.15,0,0,1-1.3,4.71,8.91,8.91,0,0,1-3.37,3.28,9.15,9.15,0,0,1-4.53,1.16,9.18,9.18,0,0,1-9.25-9.21A9.22,9.22,0,0,1,458.2,25a8.79,8.79,0,0,1,6.63,2.87l-2.28,2.25a5.77,5.77,0,0,0-4.37-1.93,5.67,5.67,0,0,0-4.26,1.74,6.29,6.29,0,0,0,0,8.57,5.42,5.42,0,0,0,4,1.75,6.28,6.28,0,0,0,4-1.24A5.61,5.61,0,0,0,464,35.75Z"/><path class="cls-1" d="M477.21,43.41a8.64,8.64,0,0,1-3.35-.7,8.73,8.73,0,0,1-2.88-2l2.11-2.53a6.65,6.65,0,0,0,2,1.59,5.06,5.06,0,0,0,2.34.62,2.87,2.87,0,0,0,1.9-.61A1.92,1.92,0,0,0,480,38.3a2.65,2.65,0,0,0-1.95-2.47l-2-.79a7.66,7.66,0,0,1-2.95-2,4.5,4.5,0,0,1-.95-3,4.6,4.6,0,0,1,1.5-3.37,5.18,5.18,0,0,1,3.77-1.49,7.69,7.69,0,0,1,5.48,2l-2,2.48a4.55,4.55,0,0,0-3.51-1.54,2.37,2.37,0,0,0-1.59.51,1.59,1.59,0,0,0-.6,1.25,1.62,1.62,0,0,0,.47,1.22,4.58,4.58,0,0,0,1.52.92l2.08.83q3.95,1.57,4,5.13a5,5,0,0,1-1.67,3.89A6.47,6.47,0,0,1,477.21,43.41Z"/><path class="cls-1" d="M499.39,43.18V35.75h-7.61v7.43h-3.33V25.4h3.33v7.15h7.61V25.4h3.34V43.18Z"/><path class="cls-1" d="M520.36,41.58a7.26,7.26,0,0,1-9.73,0,6.3,6.3,0,0,1-1.92-4.7V25.4H512v11a4.07,4.07,0,0,0,.92,2.74,3.53,3.53,0,0,0,5.07,0,4,4,0,0,0,.91-2.71V25.4h3.34V36.88A6.3,6.3,0,0,1,520.36,41.58Z"/><path class="cls-1" d="M533,43.41a8.64,8.64,0,0,1-3.35-.7,8.73,8.73,0,0,1-2.88-2l2.11-2.53a6.65,6.65,0,0,0,2,1.59,5.06,5.06,0,0,0,2.34.62,2.87,2.87,0,0,0,1.9-.61,1.92,1.92,0,0,0,.74-1.53,2.65,2.65,0,0,0-2-2.47l-2-.79a7.63,7.63,0,0,1-3-2,4.5,4.5,0,0,1-1-3,4.6,4.6,0,0,1,1.5-3.37,5.18,5.18,0,0,1,3.77-1.49,7.69,7.69,0,0,1,5.48,2l-2,2.48a4.55,4.55,0,0,0-3.51-1.54,2.37,2.37,0,0,0-1.59.51,1.59,1.59,0,0,0-.6,1.25,1.62,1.62,0,0,0,.47,1.22,4.58,4.58,0,0,0,1.52.92l2.08.83q3.95,1.57,4,5.13a5,5,0,0,1-1.67,3.89A6.47,6.47,0,0,1,533,43.41Z"/><path class="cls-1" d="M360.85,70.78V53h3.34V70.78Z"/><path class="cls-1" d="M390.87,63.35v-3h6.37l0,1.52a9.15,9.15,0,0,1-1.3,4.71,8.91,8.91,0,0,1-3.37,3.28A9.15,9.15,0,0,1,388,71.05a9.22,9.22,0,1,1,0-18.44,8.79,8.79,0,0,1,6.63,2.87l-2.28,2.25A5.77,5.77,0,0,0,388,55.8a5.67,5.67,0,0,0-4.26,1.74,6,6,0,0,0-1.67,4.29,5.9,5.9,0,0,0,1.69,4.28,5.39,5.39,0,0,0,4,1.75,6.28,6.28,0,0,0,4-1.24,5.61,5.61,0,0,0,2.09-3.27Z"/><path class="cls-1" d="M420,61.88a9.24,9.24,0,1,1-2.7-6.52A8.87,8.87,0,0,1,420,61.88Zm-13.42,4.24a5.61,5.61,0,0,0,4.17,1.76A5.67,5.67,0,0,0,415,66.12a6.12,6.12,0,0,0,0-8.51,5.67,5.67,0,0,0-4.19-1.76,5.61,5.61,0,0,0-4.17,1.76,6.15,6.15,0,0,0,0,8.51Zm2.63-15a1.46,1.46,0,0,1-1.09.47,1.48,1.48,0,0,1-1.1-.47,1.67,1.67,0,0,1,0-2.27,1.6,1.6,0,0,1,1.11-.46,1.52,1.52,0,0,1,1.08.46,1.57,1.57,0,0,1,.45,1.13A1.61,1.61,0,0,1,409.22,51.17Zm5.29,0a1.66,1.66,0,0,1-1.18.47,1.65,1.65,0,0,1-1.18-.47,1.56,1.56,0,0,1,0-2.27,1.68,1.68,0,0,1,1.18-.46,1.7,1.7,0,0,1,1.18.46,1.56,1.56,0,0,1,0,2.27Z"/><path class="cls-1" d="M422.63,56.2V53h14.65v3.2h-5.66V70.78h-3.33V56.2Z"/><path class="cls-1" d="M451.45,63.26h-6.58v4.55h7.22v3H441.54V53h10.35v3h-7v4.32h6.58Z"/><path class="cls-1" d="M457.5,70.78V53h5.85a5.36,5.36,0,0,1,3.89,1.48,4.91,4.91,0,0,1,1.53,3.67,4.21,4.21,0,0,1-2,3.58,5,5,0,0,1,2,1.59,3.77,3.77,0,0,1,.73,2.26,4.89,4.89,0,0,1-1.55,3.76A5.57,5.57,0,0,1,464,70.78ZM463,56h-2.38v4.46h2.66a2.42,2.42,0,0,0,1.76-.66,2.17,2.17,0,0,0,.69-1.64,1.88,1.88,0,0,0-.75-1.57A3.07,3.07,0,0,0,463,56Zm.51,7.13h-2.89v4.71h2.82a2.86,2.86,0,0,0,2-.67,2.23,2.23,0,0,0,.74-1.72,2.17,2.17,0,0,0-.7-1.69A2.84,2.84,0,0,0,463.47,63.1Z"/><path class="cls-1" d="M492,61.88a9.24,9.24,0,1,1-2.7-6.52A8.87,8.87,0,0,1,492,61.88Zm-13.41,4.24a5.61,5.61,0,0,0,4.17,1.76A5.68,5.68,0,0,0,487,66.12a6.12,6.12,0,0,0,0-8.51,5.68,5.68,0,0,0-4.19-1.76,5.61,5.61,0,0,0-4.17,1.76,6.12,6.12,0,0,0,0,8.51Z"/><path class="cls-1" d="M497.15,70.78V53h7a6,6,0,0,1,4.28,1.61,5.55,5.55,0,0,1,1.71,4.22,5.33,5.33,0,0,1-1.27,3.6,5.77,5.77,0,0,1-3.32,1.9l4.77,6.45h-3.74l-4.62-6.35h-1.43v6.35ZM503.59,56h-3.1v5.79h3.1A3.26,3.26,0,0,0,505.9,61a2.63,2.63,0,0,0,.87-2,2.82,2.82,0,0,0-.89-2.11A3.18,3.18,0,0,0,503.59,56Z"/><path class="cls-1" d="M526.48,63.35v-3h6.37l0,1.52a9.15,9.15,0,0,1-1.3,4.71,9,9,0,0,1-3.37,3.28,9.15,9.15,0,0,1-4.53,1.16,9.22,9.22,0,1,1,0-18.44,8.75,8.75,0,0,1,6.62,2.87L528,57.73a5.77,5.77,0,0,0-4.37-1.93,5.67,5.67,0,0,0-4.26,1.74,6.29,6.29,0,0,0,0,8.57,5.42,5.42,0,0,0,4,1.75,6.3,6.3,0,0,0,4-1.24,5.61,5.61,0,0,0,2.09-3.27Z"/></svg>