<svg id="Layer_1" data-name="Layer 1" xmlns="http://www.w3.org/2000/svg" viewBox="0 0 740 160"><defs><style>.cls-1{fill:#d80201;}</style></defs><title>text</title><path class="cls-1" d="M332.6,44.49a9.11,9.11,0,0,1-7.22,3.17,9,9,0,0,1-7.23-3.17,9.46,9.46,0,0,1-1.62-5.87V25.15h4.29V37.76a7.48,7.48,0,0,0,.69,4,4.47,4.47,0,0,0,3.87,2.05,4.57,4.57,0,0,0,3.86-2.05,7.08,7.08,0,0,0,.69-4V25.15h4.29V38.62A9.27,9.27,0,0,1,332.6,44.49Z"/><path class="cls-1" d="M347.42,47.63a5.73,5.73,0,0,1-4.79-2.34v9.5h-4V32.88h4v1.81a5.69,5.69,0,0,1,4.69-2.28c4.26,0,7.06,3.54,7.06,7.63S351.61,47.63,347.42,47.63ZM346.23,36a4,4,0,1,0,4,4A4,4,0,0,0,346.23,36Z"/><path class="cls-1" d="M366.2,47.63a5.73,5.73,0,0,1-4.79-2.34v9.5h-4V32.88h4v1.81a5.69,5.69,0,0,1,4.69-2.28c4.25,0,7.06,3.54,7.06,7.63S370.39,47.63,366.2,47.63ZM365,36a4,4,0,1,0,4,4A4,4,0,0,0,365,36Z"/><path class="cls-1" d="M376.19,47.17V22.45h4V47.17Z"/><path class="cls-1" d="M387.35,40.67c.06,2.21,1.12,3.82,3.5,3.82a3.74,3.74,0,0,0,3.4-1.91l3.69.59c-1.25,3.07-3.79,4.46-7,4.46-4.62,0-7.65-3-7.65-7.63s2.9-7.59,7.49-7.59S398,35.58,398,40.14v.53Zm3.46-5.42a3.24,3.24,0,0,0-3.33,2.87h6.77A3.32,3.32,0,0,0,390.81,35.25Z"/><path class="cls-1" d="M407.64,47.46H405.8l-7.3-14.58H403l3.76,8,3.77-8H415Z"/><path class="cls-1" d="M446.22,47.17,444.28,33.6,438.2,47.46H437L431.17,33.6,429,47.17h-4.32l4.09-22.41h2.94l6,14.39L444,24.76h2.93l3.67,22.41Z"/><path class="cls-1" d="M461.27,47.63c-4.56,0-8.19-2.84-8.19-7.59s3.63-7.63,8.22-7.63,8.12,2.88,8.12,7.59S465.79,47.63,461.27,47.63Zm0-11.62a4,4,0,1,0,4.05,4A4,4,0,0,0,461.24,36Z"/><path class="cls-1" d="M479,47.46h-1.85l-7.3-14.58h4.49l3.77,8,3.76-8h4.49Z"/><path class="cls-1" d="M490.87,40.67c.07,2.21,1.12,3.82,3.5,3.82a3.74,3.74,0,0,0,3.4-1.91l3.69.59c-1.25,3.07-3.79,4.46-7,4.46-4.62,0-7.65-3-7.65-7.63s2.9-7.59,7.49-7.59,7.29,3.17,7.29,7.73v.53Zm3.46-5.42A3.24,3.24,0,0,0,491,38.12h6.77A3.32,3.32,0,0,0,494.33,35.25Z"/><path class="cls-1" d="M514.4,47.17V39.34c0-2-.43-3.53-2.74-3.53-2.48,0-3,1.92-3,4v7.33h-4V22.45h4V34.72a5.21,5.21,0,0,1,4.49-2.31,5.49,5.49,0,0,1,4.16,1.75,5.68,5.68,0,0,1,1.12,4v9Z"/><path class="cls-1" d="M529.64,47.63c-4.55,0-8.18-2.84-8.18-7.59s3.63-7.63,8.22-7.63,8.12,2.88,8.12,7.59S534.17,47.63,529.64,47.63Zm0-11.62a4,4,0,1,0,4.06,4A4.05,4.05,0,0,0,529.61,36Z"/><path class="cls-1" d="M559.11,47.17V39.34c0-1.68-.26-3.53-2.37-3.53-2.35,0-2.74,2.15-2.74,4v7.33h-4V39.58a6.52,6.52,0,0,0-.29-2.38,2.32,2.32,0,0,0-2.15-1.39,2.61,2.61,0,0,0-2.24,1.29,5.92,5.92,0,0,0-.46,2.74v7.33h-4V32.88h4v1.61a5.48,5.48,0,0,1,4.35-2.08A4.88,4.88,0,0,1,553.67,35a5.3,5.3,0,0,1,4.69-2.61,4.71,4.71,0,0,1,4,2.05,6.3,6.3,0,0,1,.76,3.47v9.24Z"/><path class="cls-1" d="M570.27,40.67c.06,2.21,1.12,3.82,3.49,3.82a3.73,3.73,0,0,0,3.4-1.91l3.7.59c-1.25,3.07-3.8,4.46-7,4.46-4.62,0-7.66-3-7.66-7.63s2.91-7.59,7.5-7.59S581,35.58,581,40.14v.53Zm3.46-5.42a3.24,3.24,0,0,0-3.33,2.87h6.76A3.31,3.31,0,0,0,573.73,35.25Z"/><path class="cls-1" d="M327.42,85.17,325.48,71.6,319.4,85.46h-1.18L312.37,71.6l-2.21,13.57h-4.32l4.09-22.41h2.94l6,14.39,6.27-14.39h2.93l3.67,22.41Z"/><path class="cls-1" d="M346.3,85.66a11.42,11.42,0,0,1-11.75-11.45A11.77,11.77,0,1,1,346.3,85.66Zm0-19.07a7.59,7.59,0,1,0,7.36,7.55A7.46,7.46,0,0,0,346.3,66.59Z"/><path class="cls-1" d="M370.22,85.73H368l-9.38-22.58h4.69l5.87,14.79,5.95-14.79h4.65Z"/><path class="cls-1" d="M382.33,85.17v-22h12.18v3.73h-7.89v4.89h7.59V75.5h-7.59v5.94h7.89v3.73Z"/><path class="cls-1" d="M423.68,72.46h-3.33l-.46,3h3.37l-.57,3.6h-3.36l-1,6.14h-4.13l1-6.14h-3l-1,6.14h-4.09l1-6.14h-3.4l.56-3.6h3.4l.46-3h-3.37l.56-3.63h3.37l.89-5.68h4.09l-.92,5.68h3l.89-5.68h4.12l-.89,5.68h3.34Zm-10.49,0-.46,3h3l.47-3Z"/><path class="cls-1" d="M424.74,85.17l6.5-7.36c1.78-2,5.05-5.35,5.05-8.15A3.29,3.29,0,0,0,433,66.39c-2.18,0-3.21,1.61-3.27,3.63H425.1c.3-4.46,3.2-7.43,7.72-7.43,4.13,0,7.76,2.71,7.76,7.07,0,3.06-2,5.57-4,7.68l-3.83,4.1h8v3.73Z"/><path class="cls-1" d="M452.23,85.73c-6.08,0-8.52-6.4-8.52-11.55s2.41-11.59,8.52-11.59,8.51,6.37,8.51,11.55S458.33,85.73,452.23,85.73Zm0-19.34c-3.37,0-4.23,5.21-4.23,7.75s.86,7.83,4.23,7.83,4.22-5.29,4.22-7.83S455.59,66.39,452.23,66.39Z"/><path class="cls-1" d="M462.16,85.17l6.5-7.36c1.78-2,5-5.35,5-8.15a3.29,3.29,0,0,0-3.33-3.27c-2.18,0-3.21,1.61-3.27,3.63h-4.59c.3-4.46,3.2-7.43,7.73-7.43,4.12,0,7.75,2.71,7.75,7.07,0,3.06-2,5.57-4,7.68l-3.83,4.1h8v3.73Z"/><path class="cls-1" d="M492.42,67.25a2.41,2.41,0,0,1,0-4.82,2.41,2.41,0,0,1,0,4.82Zm-2,17.92V70.88h4V85.17Z"/><path class="cls-1" d="M511.33,66.88v4.89h6.9V75.5h-6.9v9.67H507v-22h11.65v3.73Z"/><path class="cls-1" d="M532.75,85.17V83.29a5.54,5.54,0,0,1-4.66,2.34c-4.29,0-7-3.57-7-7.66s2.74-7.56,6.93-7.56a6,6,0,0,1,4.76,2.28V70.88h4V85.17ZM529.18,74a4,4,0,1,0,4,4A4,4,0,0,0,529.18,74Z"/><path class="cls-1" d="M549.94,74.51A3.5,3.5,0,0,0,548,74c-2.7,0-3.43,1.92-3.43,4.29v6.87h-4V70.88h4V73a4.66,4.66,0,0,1,5.91-2.28Z"/><path class="cls-1" d="M557,85.63a7.59,7.59,0,0,1-5.44-2.38l2.11-2.44a4.62,4.62,0,0,0,3.37,1.68,1.68,1.68,0,0,0,1.81-1.58c0-2.44-6.37-1.22-6.37-6,0-2.9,2.41-4.52,5.12-4.52a7.34,7.34,0,0,1,4.65,1.52l-2,2.34a4,4,0,0,0-2.38-1c-.69,0-1.51.43-1.51,1.22,0,2.08,6.6,1.16,6.6,6C563,83.85,560.1,85.63,557,85.63Z"/><path class="cls-1" d="M569.87,74.31V85.17h-4V74.31h-1.59V70.88h1.59V66h4v4.89h2.8v3.43Z"/><path class="cls-1" d="M585.68,85.17V83.29A5.54,5.54,0,0,1,581,85.63c-4.29,0-7-3.57-7-7.66s2.74-7.56,6.93-7.56a6,6,0,0,1,4.76,2.28V70.88h4V85.17ZM582.11,74a4,4,0,1,0,4,4A4,4,0,0,0,582.11,74Z"/></svg>