<svg id="Layer_1" data-name="Layer 1" xmlns="http://www.w3.org/2000/svg" viewBox="0 0 740 160"><defs><style>.cls-1{fill:#d4ac76;}</style></defs><title>text</title><path class="cls-1" d="M369.59,122.11a5,5,0,0,1-3.62-1.49,5.4,5.4,0,0,1,0-7.45,5.13,5.13,0,0,1,7.24,0,5.35,5.35,0,0,1,0,7.43A4.94,4.94,0,0,1,369.59,122.11ZM367,119.64a3.63,3.63,0,0,0,5.26,0,4,4,0,0,0,0-5.49,3.63,3.63,0,0,0-5.26,0,4,4,0,0,0,0,5.49Z"/><path class="cls-1" d="M378.23,121.93V111.88h2.69a5,5,0,0,1,5,5,4.84,4.84,0,0,1-1.46,3.62,4.91,4.91,0,0,1-3.57,1.43Zm2.75-8.71h-1.34v7.37H381a3.22,3.22,0,0,0,2.47-1.08,3.73,3.73,0,0,0,1-2.63,3.61,3.61,0,0,0-1-2.61A3.36,3.36,0,0,0,381,113.22Z"/><path class="cls-1" d="M394.9,117.52h-4.14v3.07h4.42v1.34h-5.82V111.88h5.75v1.34h-4.35v3h4.14Z"/><path class="cls-1" d="M398.67,121.93V111.88h1l5.44,6.92v-6.92h1.4v10.05h-.78l-5.64-7.18v7.18Z"/><path class="cls-1" d="M413.14,122.06a4.69,4.69,0,0,1-1.88-.41,5,5,0,0,1-1.59-1.08l1-1.14a3.67,3.67,0,0,0,1.16.92,3,3,0,0,0,1.39.37,2,2,0,0,0,1.3-.43,1.37,1.37,0,0,0,.5-1.07,1.77,1.77,0,0,0-1.27-1.65l-1.19-.47a4,4,0,0,1-1.64-1.08,2.36,2.36,0,0,1-.54-1.59,2.51,2.51,0,0,1,.83-1.9,2.86,2.86,0,0,1,2.05-.78,4.06,4.06,0,0,1,2.91,1.11l-.84,1.13a2.78,2.78,0,0,0-2.07-.9,1.62,1.62,0,0,0-1.07.34,1.2,1.2,0,0,0-.41.94,1.11,1.11,0,0,0,.3.77,2.75,2.75,0,0,0,1,.62l1.21.49a2.85,2.85,0,0,1,2.11,2.87,2.73,2.73,0,0,1-.88,2.11A3.39,3.39,0,0,1,413.14,122.06Z"/><path class="cls-1" d="M422.45,121.93l-3.92-10.05h1.58l3,7.72,3-7.72h1.55l-3.93,10.05Z"/><path class="cls-1" d="M428.54,121.93l4-10.05h1.27l3.95,10.05h-1.55l-.61-1.55h-4.92l-.62,1.55Zm3.63-11.12a.68.68,0,0,1-1,0,.84.84,0,0,1,0-1.09.68.68,0,0,1,1,0,.81.81,0,0,1,0,1.09Zm1,3.37L431.26,119h3.86Zm1.75-3.37a.65.65,0,0,1-.5.22.63.63,0,0,1-.5-.22.81.81,0,0,1,0-1.09.63.63,0,0,1,.5-.22.65.65,0,0,1,.5.22.84.84,0,0,1,0,1.09Z"/><path class="cls-1" d="M446.68,117.56v-1.34H450v.7a5.15,5.15,0,0,1-5.2,5.17,4.92,4.92,0,0,1-3.67-1.5,5.42,5.42,0,0,1,0-7.42,4.92,4.92,0,0,1,3.67-1.5,5.37,5.37,0,0,1,2.11.42,5,5,0,0,1,1.72,1.16l-1,1.06a3.68,3.68,0,0,0-5.46-.17,4.07,4.07,0,0,0,0,5.48,3.5,3.5,0,0,0,2.67,1.14,3.6,3.6,0,0,0,2.41-.88,3.85,3.85,0,0,0,1.27-2.32Z"/><path class="cls-1" d="M459,117.52h-4.13v3.07h4.42v1.34h-5.82V111.88h5.74v1.34h-4.34v3H459Z"/><path class="cls-1" d="M462.78,121.93V111.88h1l5.45,6.92v-6.92h1.4v10.05h-.78l-5.64-7.18v7.18Z"/><path class="cls-1" d="M482.85,122.08a3.39,3.39,0,0,1-2-.62,3,3,0,0,1-1.19-1.63l1.27-.49a2,2,0,0,0,2,1.4,2,2,0,0,0,2-2,1.89,1.89,0,0,0-.59-1.41,2,2,0,0,0-1.42-.57,1.86,1.86,0,0,0-1.42.62H480v-5.5h5.62v1.34h-4.22v2.7a2.63,2.63,0,0,1,1.42-.4,3.34,3.34,0,0,1,2.47.92,3.07,3.07,0,0,1,.94,2.3,3.2,3.2,0,0,1-1,2.36A3.33,3.33,0,0,1,482.85,122.08Z"/><path class="cls-1" d="M488,123.77l1.16-3.22,1.29.45-1.59,3.1Z"/><path class="cls-1" d="M498.17,113.22v-1.34h8.14v1.34h-3.37v8.71h-1.4v-8.71Z"/><path class="cls-1" d="M507,121.93l4-10.05h1.27l4,10.05h-1.55l-.61-1.55h-4.93l-.62,1.55Zm3.63-11.12a.67.67,0,0,1-.51.22.63.63,0,0,1-.49-.22.84.84,0,0,1,0-1.09.63.63,0,0,1,.49-.22.67.67,0,0,1,.51.22.84.84,0,0,1,0,1.09Zm1,3.37L509.67,119h3.86Zm1.75-3.37a.63.63,0,0,1-.5.22.65.65,0,0,1-.5-.22.84.84,0,0,1,0-1.09.65.65,0,0,1,.5-.22.63.63,0,0,1,.5.22.76.76,0,0,1,.2.54A.76.76,0,0,1,513.37,110.81Z"/><path class="cls-1" d="M519,121.93V111.88h3.07a3.28,3.28,0,0,1,2.22.77,2.6,2.6,0,0,1,.87,2,2.38,2.38,0,0,1-1.2,2.16,2.52,2.52,0,0,1,1.08.9,2.37,2.37,0,0,1,.41,1.36,2.61,2.61,0,0,1-.88,2.05,3.28,3.28,0,0,1-2.25.78Zm2.93-8.71h-1.53v3h1.79a1.52,1.52,0,0,0,1.57-1.6,1.28,1.28,0,0,0-.51-1.06A2.07,2.07,0,0,0,521.94,113.22Zm.31,4.3h-1.84v3.07h1.75a2.11,2.11,0,0,0,1.38-.43,1.43,1.43,0,0,0,.51-1.15,1.39,1.39,0,0,0-.46-1.08A2,2,0,0,0,522.25,117.52Z"/><path class="cls-1" d="M533.75,111.88h1.63l-3.35,6v4.05h-1.4v-4l-3.38-6.05h1.68l2.43,4.46Z"/><path class="cls-1" d="M326.45,142.06a4.69,4.69,0,0,1-1.88-.41,5,5,0,0,1-1.59-1.08l1-1.14a3.67,3.67,0,0,0,1.16.92,3,3,0,0,0,1.39.37,2,2,0,0,0,1.3-.43,1.37,1.37,0,0,0,.5-1.07,1.76,1.76,0,0,0-1.27-1.65l-1.19-.47a4,4,0,0,1-1.64-1.08,2.36,2.36,0,0,1-.54-1.59,2.55,2.55,0,0,1,.83-1.9,2.86,2.86,0,0,1,2.05-.78,4.1,4.1,0,0,1,2.92,1.11l-.85,1.13a2.78,2.78,0,0,0-2.07-.9,1.62,1.62,0,0,0-1.07.34,1.2,1.2,0,0,0-.41.94,1.11,1.11,0,0,0,.3.77,2.75,2.75,0,0,0,1,.62l1.21.49a2.84,2.84,0,0,1,2.11,2.87,2.73,2.73,0,0,1-.88,2.11A3.39,3.39,0,0,1,326.45,142.06Z"/><path class="cls-1" d="M337.76,142.11a5,5,0,0,1-3.62-1.49,5.4,5.4,0,0,1,0-7.45,5.13,5.13,0,0,1,7.24,0,5.35,5.35,0,0,1,0,7.43A4.94,4.94,0,0,1,337.76,142.11Zm-2.63-2.47a3.63,3.63,0,0,0,5.26,0,4,4,0,0,0,0-5.49,3.63,3.63,0,0,0-5.26,0,4,4,0,0,0,0,5.49Zm1.69-8.83a.63.63,0,0,1-.5.22.61.61,0,0,1-.49-.22.76.76,0,0,1-.2-.55.76.76,0,0,1,.2-.54.61.61,0,0,1,.49-.22.63.63,0,0,1,.5.22.81.81,0,0,1,0,1.09Zm2.79,0a.65.65,0,0,1-.5.22.63.63,0,0,1-.5-.22.84.84,0,0,1,0-1.09.63.63,0,0,1,.5-.22.65.65,0,0,1,.5.22.84.84,0,0,1,0,1.09Z"/><path class="cls-1" d="M346.4,141.93V131.88h1l5.45,6.92v-6.92h1.4v10.05h-.78l-5.64-7.18v7.18Z"/><path class="cls-1" d="M358.43,141.93V131.88h2.69a5,5,0,0,1,5,5,4.88,4.88,0,0,1-1.46,3.62,4.94,4.94,0,0,1-3.57,1.43Zm2.74-8.71h-1.34v7.37h1.38a3.24,3.24,0,0,0,2.48-1.08,3.72,3.72,0,0,0,1-2.63,3.6,3.6,0,0,0-1-2.61A3.37,3.37,0,0,0,361.17,133.22Z"/><path class="cls-1" d="M368.09,141.93l4-10.05h1.27l4,10.05h-1.56l-.6-1.55h-4.93l-.62,1.55Zm4.66-7.75L370.8,139h3.86Z"/><path class="cls-1" d="M386.22,137.56v-1.34h3.34v.7a5,5,0,0,1-1.56,3.71,5.08,5.08,0,0,1-3.64,1.46,4.92,4.92,0,0,1-3.66-1.5,5.42,5.42,0,0,1,0-7.42,4.92,4.92,0,0,1,3.66-1.5,5.33,5.33,0,0,1,2.11.42,5,5,0,0,1,1.73,1.16l-1,1.06a3.57,3.57,0,0,0-2.8-1.3,3.52,3.52,0,0,0-2.66,1.13,4,4,0,0,0,0,5.48,3.49,3.49,0,0,0,2.66,1.14,3.6,3.6,0,0,0,2.41-.88,3.8,3.8,0,0,0,1.27-2.32Z"/><path class="cls-1" d="M397.75,141.93V141l4-5.3a2,2,0,0,0,.56-1.28,1.46,1.46,0,0,0-.44-1.07,1.55,1.55,0,0,0-1.13-.43,1.4,1.4,0,0,0-1.1.48,1.91,1.91,0,0,0-.46,1.27h-1.41a3,3,0,0,1,.84-2.13,2.82,2.82,0,0,1,2.13-.87,3,3,0,0,1,2.14.78,2.64,2.64,0,0,1,.83,2,3.61,3.61,0,0,1-1.05,2.22l-3.14,4h4.32v1.25Z"/><path class="cls-1" d="M406.54,141.93V141l4-5.3a2,2,0,0,0,.56-1.28,1.46,1.46,0,0,0-.44-1.07,1.55,1.55,0,0,0-1.13-.43,1.43,1.43,0,0,0-1.11.48,2,2,0,0,0-.46,1.27h-1.4a3,3,0,0,1,.83-2.13,2.84,2.84,0,0,1,2.14-.87,3,3,0,0,1,2.13.78,2.61,2.61,0,0,1,.84,2,3.61,3.61,0,0,1-1,2.22l-3.14,4h4.32v1.25Z"/><path class="cls-1" d="M424.08,142.06a4.69,4.69,0,0,1-1.88-.41,5,5,0,0,1-1.59-1.08l1-1.14a3.67,3.67,0,0,0,1.16.92,3,3,0,0,0,1.39.37,2,2,0,0,0,1.3-.43,1.37,1.37,0,0,0,.5-1.07,1.76,1.76,0,0,0-1.27-1.65l-1.19-.47a4,4,0,0,1-1.64-1.08,2.36,2.36,0,0,1-.54-1.59,2.51,2.51,0,0,1,.83-1.9,2.86,2.86,0,0,1,2.05-.78,4.06,4.06,0,0,1,2.91,1.11l-.84,1.13a2.78,2.78,0,0,0-2.07-.9,1.62,1.62,0,0,0-1.07.34,1.2,1.2,0,0,0-.41.94,1.11,1.11,0,0,0,.3.77,2.75,2.75,0,0,0,1,.62l1.21.49a2.84,2.84,0,0,1,2.11,2.87,2.73,2.73,0,0,1-.88,2.11A3.39,3.39,0,0,1,424.08,142.06Z"/><path class="cls-1" d="M436.34,137.52H432.2v3.07h4.42v1.34H430.8V131.88h5.74v1.34H432.2v3h4.14Z"/><path class="cls-1" d="M440.11,141.93V131.88h3.43a3.17,3.17,0,0,1,2.33.93,3.27,3.27,0,0,1,.93,2.39,3.13,3.13,0,0,1-1,2.35,3.24,3.24,0,0,1-2.36.94h-2v3.44Zm3.33-8.71h-1.93v3.93h1.94a1.94,1.94,0,0,0,1.41-.53,1.91,1.91,0,0,0,.54-1.42,1.94,1.94,0,0,0-.56-1.42A1.85,1.85,0,0,0,443.44,133.22Z"/><path class="cls-1" d="M448.87,133.22v-1.34H457v1.34h-3.37v8.71h-1.4v-8.71Z"/><path class="cls-1" d="M465.34,137.52h-4.13v3.07h4.42v1.34H459.8V131.88h5.75v1.34h-4.34v3h4.13Z"/><path class="cls-1" d="M469.11,141.93V131.88h1.44l3.24,5.35,3.29-5.35h1.38v10.05h-1.41V134.5l0,0-3.24,5.2-3.17-5.12h-.09v7.38Z"/><path class="cls-1" d="M482.59,141.93V131.88h3.07a3.26,3.26,0,0,1,2.22.77,2.6,2.6,0,0,1,.87,2,2.39,2.39,0,0,1-1.19,2.16,2.65,2.65,0,0,1,1.08.9,2.44,2.44,0,0,1,.4,1.36,2.61,2.61,0,0,1-.88,2.05,3.27,3.27,0,0,1-2.24.78Zm2.93-8.71H484v3.05h1.79a1.52,1.52,0,0,0,1.57-1.6,1.28,1.28,0,0,0-.51-1.06A2.07,2.07,0,0,0,485.52,133.22Zm.31,4.3H484v3.07h1.75a2.14,2.14,0,0,0,1.39-.43,1.46,1.46,0,0,0,.5-1.15,1.39,1.39,0,0,0-.46-1.08A2,2,0,0,0,485.83,137.52Z"/><path class="cls-1" d="M498.1,137.52H494v3.07h4.42v1.34h-5.82V131.88h5.75v1.34H494v3h4.14Z"/><path class="cls-1" d="M501.87,141.93V131.88h3.73a3.15,3.15,0,0,1,2.26.87,3,3,0,0,1,.91,2.27,3,3,0,0,1-.75,2.1,2.94,2.94,0,0,1-1.92,1l2.91,3.83h-1.73l-2.89-3.84h-1.12v3.84Zm3.54-8.71h-2.14v3.62h2.13a2,2,0,0,0,1.42-.49,1.71,1.71,0,0,0,.55-1.33,1.69,1.69,0,0,0-.56-1.28A1.94,1.94,0,0,0,505.41,133.22Z"/><path class="cls-1" d="M517.73,141.93V131.88h1.4v4.76l4.19-4.76h1.88l-3.54,4,3.63,6.07h-1.74L520.63,137l-1.5,1.68v3.23Z"/><path class="cls-1" d="M528.35,141.93V131.88h1.4v8.71h4.14v1.34Z"/><path class="cls-1" d="M543.55,141.93v-8.26l-1.89,1v-1.34l2.67-1.47H545v10.11Z"/><path class="cls-1" d="M548.11,139.62v-.88l3.5-6.86h1.47l-3.31,6.5h2.17v-1.69h1.41v1.69h1.21v1.24h-1.21v2.31h-1.41v-2.31Z"/><path class="cls-1" d="M557.22,137.54V136.3h3.93v1.24Z"/><path class="cls-1" d="M565,141.93v-8.26l-1.89,1v-1.34l2.67-1.47h.62v10.11Z"/><path class="cls-1" d="M573.14,142.08a3,3,0,0,1-2.2-.88,2.87,2.87,0,0,1-.9-2.12v-4.25a3,3,0,0,1,.9-2.25,3.27,3.27,0,0,1,4.34-.09,2.65,2.65,0,0,1,.87,2.06h-1.4a1.54,1.54,0,0,0-1.61-1.59,1.59,1.59,0,0,0-1.21.5,1.81,1.81,0,0,0-.49,1.3v2.14a2.24,2.24,0,0,1,1.74-.8,3.07,3.07,0,0,1,2.2.86,2.95,2.95,0,0,1,0,4.24A3.07,3.07,0,0,1,573.14,142.08Zm0-1.25a1.63,1.63,0,0,0,1.22-.52,1.67,1.67,0,0,0,.5-1.23,1.63,1.63,0,0,0-.5-1.22,1.65,1.65,0,0,0-1.22-.51,1.69,1.69,0,0,0-1.16.47,1.65,1.65,0,0,0-.51,1.26,1.7,1.7,0,0,0,.49,1.23A1.53,1.53,0,0,0,573.14,140.83Z"/></svg>