<svg id="Layer_1" data-name="Layer 1" xmlns="http://www.w3.org/2000/svg" viewBox="0 0 740 160"><defs><style>.cls-1{fill:#d80201;}</style></defs><title>text</title><path class="cls-1" d="M354.09,120.62V107.28H361v1.4h-5.42v4h5.28V114h-5.28v5.22H361v1.38Z"/><path class="cls-1" d="M368.57,120.62v-4.9c0-1.3-.18-2.32-1.74-2.32-1.84,0-2.06,1.6-2.06,3.06v4.16h-1.42v-8.3h1.42v1a3,3,0,0,1,4.76-.06,3.8,3.8,0,0,1,.48,2.2v5.16Z"/><path class="cls-1" d="M375,120.86a3,3,0,0,1-2.9-2.12l1.24-.52c.34.74.8,1.34,1.68,1.34a1.29,1.29,0,0,0,1.36-1.3c0-1.8-3.74-1.24-3.74-3.82a2.33,2.33,0,0,1,2.42-2.32,2.49,2.49,0,0,1,2.28,1.5l-1.18.62a1.33,1.33,0,0,0-1.16-.82,1,1,0,0,0-1,.92c0,1.46,3.84,1.08,3.84,3.8A2.73,2.73,0,0,1,375,120.86Z"/><path class="cls-1" d="M384.87,120.62l-3.36-3.78-.36.36v3.42h-1.42V106h1.42v9.34l3-3.06h1.9l-3.56,3.52,4.22,4.78Z"/><path class="cls-1" d="M388.87,110.2a1,1,0,1,1,1-1A1,1,0,0,1,388.87,110.2Zm-.72,10.42v-8.3h1.42v8.3Z"/><path class="cls-1" d="M393.73,113.64v7h-1.42v-7h-.78v-1.32h.78v-3.54a4.77,4.77,0,0,1,.22-1.6,2.31,2.31,0,0,1,2.24-1.38,3.66,3.66,0,0,1,1,.18v1.44a2.56,2.56,0,0,0-.94-.2c-1,0-1.14.78-1.14,1.62v3.48h2.08v1.32Z"/><path class="cls-1" d="M399.09,113.64v7h-1.44v-7h-.86v-1.32h.86v-3h1.44v3h1.46v1.32Z"/><path class="cls-1" d="M402.89,116.76a2.69,2.69,0,0,0,2.64,2.8,2.86,2.86,0,0,0,2.56-1.72l1.2.66a4.14,4.14,0,0,1-3.8,2.36,4,4,0,0,1-4.1-4.34c0-2.4,1.5-4.4,4-4.4s4,2,4,4.36v.28Zm2.56-3.34a2.55,2.55,0,0,0-2.46,2.14h4.88A2.49,2.49,0,0,0,405.45,113.42Z"/><path class="cls-1" d="M413.79,120.86a3,3,0,0,1-2.9-2.12l1.24-.52c.34.74.8,1.34,1.68,1.34a1.29,1.29,0,0,0,1.36-1.3c0-1.8-3.74-1.24-3.74-3.82a2.33,2.33,0,0,1,2.42-2.32,2.49,2.49,0,0,1,2.28,1.5l-1.18.62a1.33,1.33,0,0,0-1.16-.82,1,1,0,0,0-1,.92c0,1.46,3.84,1.08,3.84,3.8A2.73,2.73,0,0,1,413.79,120.86Z"/><path class="cls-1" d="M421.43,121.16l-4.08-8.84H419l2.48,5.58,2.46-5.58h1.6Z"/><path class="cls-1" d="M433.35,120.62v-1.16a3.54,3.54,0,0,1-2.88,1.4c-2.48,0-4-2.08-4-4.42a4,4,0,0,1,4-4.32,3.51,3.51,0,0,1,2.9,1.38v-1.18h1.42v8.3Zm-2.68-7.22a2.83,2.83,0,0,0-2.74,3,2.86,2.86,0,0,0,2.74,3.12,2.83,2.83,0,0,0,2.76-3.12A2.8,2.8,0,0,0,430.67,113.4ZM429,110.62a1,1,0,0,1-1-1,1,1,0,1,1,1,1Zm3.48,0a1,1,0,0,1-1-1,1,1,0,1,1,1,1Z"/><path class="cls-1" d="M444.47,123.7a4,4,0,0,1-3.32,1.54,3.74,3.74,0,0,1-4-3.8h1.42a2.48,2.48,0,0,0,2.64,2.52c2,0,2.66-1.5,2.66-3.28v-1.22a3.75,3.75,0,0,1-2.92,1.38,4.38,4.38,0,0,1,.06-8.72,3.55,3.55,0,0,1,2.86,1.36v-1.16h1.44v8.12A5,5,0,0,1,444.47,123.7Zm-3.34-10.3a2.85,2.85,0,0,0-2.72,3.14,2.8,2.8,0,0,0,2.72,3,3.1,3.1,0,0,0,0-6.16Z"/><path class="cls-1" d="M449,116.76a2.69,2.69,0,0,0,2.64,2.8,2.86,2.86,0,0,0,2.56-1.72l1.2.66a4.14,4.14,0,0,1-3.8,2.36,4,4,0,0,1-4.1-4.34c0-2.4,1.5-4.4,4-4.4s4,2,4,4.36v.28Zm2.56-3.34a2.55,2.55,0,0,0-2.46,2.14h4.88A2.49,2.49,0,0,0,451.51,113.42Z"/><path class="cls-1" d="M462.83,120.62v-4.9c0-1.3-.18-2.32-1.74-2.32-1.84,0-2.06,1.6-2.06,3.06v4.16h-1.42v-8.3H459v1a3,3,0,0,1,4.76-.06,3.8,3.8,0,0,1,.48,2.2v5.16Z"/><path class="cls-1" d="M475.89,120.84a4.16,4.16,0,0,1-3.08-1.32,3.53,3.53,0,0,1-.88-2.36h1.44a2.55,2.55,0,0,0,.46,1.3,2.68,2.68,0,0,0,2.1,1,2.6,2.6,0,0,0,2.62-2.66c0-1.74-1.22-2.52-2.84-2.52V113a3.08,3.08,0,0,0,1.58-.32,2.29,2.29,0,1,0-3-3.36,3.25,3.25,0,0,0-.44,1.28h-1.46c.3-2.16,1.44-3.5,3.72-3.5a3.57,3.57,0,0,1,3.76,3.58,3.25,3.25,0,0,1-1.72,3,3.41,3.41,0,0,1,1.92,3.22A4,4,0,0,1,475.89,120.84Z"/><path class="cls-1" d="M483.39,123.66l-.94-.38,1.64-4.62,1.32.48Z"/><path class="cls-1" d="M496,114.78h-1.3v5.84h-1.48V107.28h2.42a4.91,4.91,0,0,1,3.36.94,3.75,3.75,0,0,1,1.22,2.82C500.25,113.58,498.39,114.78,496,114.78Zm-.2-6.1h-1.1v4.74H496c1.56,0,2.84-.68,2.84-2.4S497.41,108.68,495.83,108.68Z"/><path class="cls-1" d="M507.81,120.62v-1.16a3.54,3.54,0,0,1-2.88,1.4c-2.48,0-4-2.08-4-4.42a4,4,0,0,1,4-4.32,3.51,3.51,0,0,1,2.9,1.38v-1.18h1.42v8.3Zm-2.68-7.22a2.83,2.83,0,0,0-2.74,3,2.86,2.86,0,0,0,2.74,3.12,2.83,2.83,0,0,0,2.76-3.12A2.8,2.8,0,0,0,505.13,113.4Z"/><path class="cls-1" d="M515.85,113.76a1.26,1.26,0,0,0-.84-.28,1.54,1.54,0,0,0-.72.18c-.92.5-.92,1.68-.92,2.58v4.38H512v-8.3h1.42v.9a2.22,2.22,0,0,1,1.88-1.1,2.36,2.36,0,0,1,1.28.34Z"/><path class="cls-1" d="M519.83,113.64v7h-1.44v-7h-.86v-1.32h.86v-3h1.44v3h1.46v1.32Z"/><path class="cls-1" d="M523.39,110.2a1,1,0,1,1,1-1A1,1,0,0,1,523.39,110.2Zm-.72,10.42v-8.3h1.42v8.3Z"/><path class="cls-1" d="M526.83,120.62V106h1.42v14.58Z"/><path class="cls-1" d="M531,120.62V106h1.42v14.58Z"/><path class="cls-1" d="M536.07,116.76a2.69,2.69,0,0,0,2.64,2.8,2.86,2.86,0,0,0,2.56-1.72l1.2.66a4.14,4.14,0,0,1-3.8,2.36,4,4,0,0,1-4.1-4.34c0-2.4,1.5-4.4,4-4.4s4,2,4,4.36v.28Zm2.56-3.34a2.55,2.55,0,0,0-2.46,2.14h4.88A2.49,2.49,0,0,0,538.63,113.42Z"/><path class="cls-1" d="M329.77,141.86a4.08,4.08,0,0,1-4.12-3.44l1.44-.4a2.71,2.71,0,0,0,2.72,2.44,2.63,2.63,0,0,0,2.68-2.64c0-3.14-6.16-2.4-6.16-6.32a3.52,3.52,0,0,1,3.74-3.44,3.8,3.8,0,0,1,3.44,2.08l-1.18.78a2.47,2.47,0,0,0-2.28-1.46,2.12,2.12,0,0,0-2.22,2c0,2.76,6.16,2,6.16,6.26A4.11,4.11,0,0,1,329.77,141.86Z"/><path class="cls-1" d="M340.21,141.86a4.37,4.37,0,1,1,4.38-4.36A4.34,4.34,0,0,1,340.21,141.86Zm0-7.44a3.07,3.07,0,1,0,2.94,3.08A2.91,2.91,0,0,0,340.19,134.42Zm-1.72-2.8a1,1,0,0,1-1-1,1,1,0,1,1,1,1Zm3.48,0a1,1,0,0,1-1-1,1,1,0,1,1,1,1Z"/><path class="cls-1" d="M352,141.62v-4.9c0-1.3-.18-2.32-1.74-2.32-1.84,0-2.06,1.6-2.06,3.06v4.16h-1.42v-8.3h1.42v1a3,3,0,0,1,4.76-.06,3.8,3.8,0,0,1,.48,2.2v5.16Z"/><path class="cls-1" d="M362.49,141.62v-1.16a3.54,3.54,0,0,1-2.88,1.4,4.11,4.11,0,0,1-4-4.4,4.06,4.06,0,0,1,4-4.34,3.56,3.56,0,0,1,2.9,1.38V127h1.42v14.58Zm-2.68-7.2a3.09,3.09,0,1,0,2.76,3A2.78,2.78,0,0,0,359.81,134.42Z"/><path class="cls-1" d="M373,141.62v-1.16a3.54,3.54,0,0,1-2.88,1.4c-2.48,0-4-2.08-4-4.42a4,4,0,0,1,4-4.32,3.51,3.51,0,0,1,2.9,1.38v-1.18h1.42v8.3Zm-2.68-7.22a2.83,2.83,0,0,0-2.74,3,2.86,2.86,0,0,0,2.74,3.12,2.83,2.83,0,0,0,2.76-3.12A2.8,2.8,0,0,0,370.29,134.4Z"/><path class="cls-1" d="M384.09,144.7a4,4,0,0,1-3.32,1.54,3.74,3.74,0,0,1-4-3.8h1.42a2.48,2.48,0,0,0,2.64,2.52c2,0,2.66-1.5,2.66-3.28v-1.22a3.75,3.75,0,0,1-2.92,1.38,4.38,4.38,0,0,1,.06-8.72,3.55,3.55,0,0,1,2.86,1.36v-1.16h1.44v8.12A5,5,0,0,1,384.09,144.7Zm-3.34-10.3a2.85,2.85,0,0,0-2.72,3.14,2.8,2.8,0,0,0,2.72,3,3.1,3.1,0,0,0,0-6.16Z"/><path class="cls-1" d="M396.55,141.62V129.68h-2.22l.78-1.4H398v13.34Z"/><path class="cls-1" d="M407.33,141.84a4.63,4.63,0,0,1-4.08-2.38l1.18-.84a3.51,3.51,0,0,0,3,1.84,3.31,3.31,0,0,0,3.3-3.38,3.24,3.24,0,0,0-3.28-3.32,4.7,4.7,0,0,0-2.58.92l1.94-6.4h5.3v1.4h-4.26l-.88,2.84a3.16,3.16,0,0,1,.76-.08,4.42,4.42,0,0,1,4.48,4.62A4.73,4.73,0,0,1,407.33,141.84Z"/><path class="cls-1" d="M422.53,141.86a3,3,0,0,1-2.9-2.12l1.24-.52c.34.74.8,1.34,1.68,1.34a1.29,1.29,0,0,0,1.36-1.3c0-1.8-3.74-1.24-3.74-3.82a2.33,2.33,0,0,1,2.42-2.32,2.49,2.49,0,0,1,2.28,1.5l-1.18.62a1.33,1.33,0,0,0-1.16-.82,1,1,0,0,0-1,.92c0,1.46,3.84,1.08,3.84,3.8A2.73,2.73,0,0,1,422.53,141.86Z"/><path class="cls-1" d="M428.25,137.76a2.69,2.69,0,0,0,2.64,2.8,2.86,2.86,0,0,0,2.56-1.72l1.2.66a4.14,4.14,0,0,1-3.8,2.36,4,4,0,0,1-4.1-4.34c0-2.4,1.5-4.4,4-4.4s4,2,4,4.36v.28Zm2.56-3.34a2.55,2.55,0,0,0-2.46,2.14h4.88A2.49,2.49,0,0,0,430.81,134.42Z"/><path class="cls-1" d="M441.23,141.86a3.58,3.58,0,0,1-2.9-1.4v5.84h-1.42v-13h1.42v1.16a3.59,3.59,0,0,1,2.88-1.36,4.11,4.11,0,0,1,4,4.4A4.06,4.06,0,0,1,441.23,141.86ZM441,134.4a2.86,2.86,0,0,0-2.76,3.12,2.76,2.76,0,1,0,5.5,0A2.86,2.86,0,0,0,441,134.4Z"/><path class="cls-1" d="M448.83,134.64v7h-1.44v-7h-.86v-1.32h.86v-3h1.44v3h1.46v1.32Z"/><path class="cls-1" d="M452.63,137.76a2.69,2.69,0,0,0,2.64,2.8,2.86,2.86,0,0,0,2.56-1.72l1.2.66a4.14,4.14,0,0,1-3.8,2.36,4,4,0,0,1-4.1-4.34c0-2.4,1.5-4.4,4-4.4s4,2,4,4.36v.28Zm2.56-3.34a2.55,2.55,0,0,0-2.46,2.14h4.88A2.49,2.49,0,0,0,455.19,134.42Z"/><path class="cls-1" d="M470.75,141.62v-5c0-1.06-.18-2.18-1.5-2.18-1.5,0-1.78,1.4-1.78,2.6v4.62h-1.42V136.7c0-1-.22-2.3-1.52-2.3a1.72,1.72,0,0,0-1.5.9,4,4,0,0,0-.32,1.8v4.52h-1.42v-8.3h1.42v.88a2.37,2.37,0,0,1,2.06-1.08,2.53,2.53,0,0,1,2.28,1.34,2.83,2.83,0,0,1,4.66-.22,3.88,3.88,0,0,1,.46,2.12v5.26Z"/><path class="cls-1" d="M479.19,141.86a3.54,3.54,0,0,1-2.88-1.4v1.16h-1.42V127h1.42v7.46a3.56,3.56,0,0,1,2.9-1.38,4.06,4.06,0,0,1,4,4.34A4.11,4.11,0,0,1,479.19,141.86Zm-.2-7.44a2.79,2.79,0,0,0-2.76,3.06,2.76,2.76,0,1,0,2.76-3.06Z"/><path class="cls-1" d="M486.33,137.76a2.69,2.69,0,0,0,2.64,2.8,2.86,2.86,0,0,0,2.56-1.72l1.2.66a4.14,4.14,0,0,1-3.8,2.36,4,4,0,0,1-4.1-4.34c0-2.4,1.5-4.4,4-4.4s4,2,4,4.36v.28Zm2.56-3.34a2.55,2.55,0,0,0-2.46,2.14h4.88A2.49,2.49,0,0,0,488.89,134.42Z"/><path class="cls-1" d="M498.89,134.76a1.26,1.26,0,0,0-.84-.28,1.54,1.54,0,0,0-.72.18c-.92.5-.92,1.68-.92,2.58v4.38H495v-8.3h1.42v.9a2.22,2.22,0,0,1,1.88-1.1,2.36,2.36,0,0,1,1.28.34Z"/><path class="cls-1" d="M511,141.62l-3.36-3.78-.36.36v3.42h-1.42V127h1.42v9.34l3-3.06h1.9l-3.56,3.52,4.22,4.78Z"/><path class="cls-1" d="M514.31,141.62V127h1.42v14.58Z"/><path class="cls-1" d="M527.39,141.62V129.68h-2.22l.78-1.4h2.92v13.34Z"/><path class="cls-1" d="M538.69,141.84a4.16,4.16,0,0,1-3.08-1.32,3.53,3.53,0,0,1-.88-2.36h1.44a2.55,2.55,0,0,0,.46,1.3,2.68,2.68,0,0,0,2.1,1,2.6,2.6,0,0,0,2.62-2.66c0-1.74-1.22-2.52-2.84-2.52V134a3.08,3.08,0,0,0,1.58-.32,2.29,2.29,0,1,0-3-3.36,3.25,3.25,0,0,0-.44,1.28h-1.46c.3-2.16,1.44-3.5,3.72-3.5a3.57,3.57,0,0,1,3.76,3.58,3.25,3.25,0,0,1-1.72,3,3.41,3.41,0,0,1,1.92,3.22A4,4,0,0,1,538.69,141.84Z"/><path class="cls-1" d="M544.77,138v-1.28h3.62V138Z"/><path class="cls-1" d="M553.69,141.62V129.68h-2.22l.78-1.4h2.92v13.34Z"/><path class="cls-1" d="M564.47,141.84a4.63,4.63,0,0,1-4.08-2.38l1.18-.84a3.51,3.51,0,0,0,3,1.84,3.31,3.31,0,0,0,3.3-3.38,3.24,3.24,0,0,0-3.28-3.32,4.7,4.7,0,0,0-2.58.92l1.94-6.4h5.3v1.4H565l-.88,2.84a3.16,3.16,0,0,1,.76-.08,4.42,4.42,0,0,1,4.48,4.62A4.73,4.73,0,0,1,564.47,141.84Z"/></svg>