<svg id="Layer_1" data-name="Layer 1" xmlns="http://www.w3.org/2000/svg" viewBox="0 0 740 160"><defs><style>.cls-1{fill:#d80201;}</style></defs><title>text</title><path class="cls-1" d="M381.07,47.73H378.8l-9.38-22.58h4.69L380,39.94l5.94-14.79h4.66Z"/><path class="cls-1" d="M394.5,29.25a2.41,2.41,0,0,1,0-4.82,2.41,2.41,0,0,1,0,4.82Zm-2,17.92V32.88h4V47.17Z"/><path class="cls-1" d="M400.24,47.17V22.45h4V47.17Z"/><path class="cls-1" d="M408.06,47.17V22.45h4V47.17Z"/><path class="cls-1" d="M426.81,47.17V45.29a5.52,5.52,0,0,1-4.65,2.34c-4.29,0-7-3.57-7-7.66s2.74-7.56,6.93-7.56a6,6,0,0,1,4.75,2.28V32.88h4V47.17ZM423.25,36a4,4,0,1,0,4,4A4,4,0,0,0,423.25,36Z"/><path class="cls-1" d="M441.92,47.46h-1.84l-7.3-14.58h4.49l3.76,8,3.77-8h4.48Z"/><path class="cls-1" d="M453.18,29.25a2.41,2.41,0,0,1,0-4.82,2.41,2.41,0,0,1,0,4.82Zm-2,17.92V32.88h4V47.17Z"/><path class="cls-1" d="M463.47,47.63A7.59,7.59,0,0,1,458,45.25l2.11-2.44a4.62,4.62,0,0,0,3.36,1.68,1.68,1.68,0,0,0,1.82-1.58c0-2.44-6.37-1.22-6.37-6,0-2.9,2.41-4.52,5.12-4.52a7.34,7.34,0,0,1,4.65,1.52l-2,2.34a4,4,0,0,0-2.38-1c-.69,0-1.52.43-1.52,1.22,0,2.08,6.61,1.16,6.61,6C469.45,45.85,466.54,47.63,463.47,47.63Z"/><path class="cls-1" d="M482.05,47.17V39.25c0-2-.43-3.44-2.7-3.44-2.48,0-3.07,1.82-3.07,4v7.4h-4V32.88h4v1.75a5.27,5.27,0,0,1,4.48-2.22,5.48,5.48,0,0,1,4.16,1.72,5.48,5.48,0,0,1,1.13,4v9.08Z"/><path class="cls-1" d="M491.82,29.25a2.41,2.41,0,1,1,0-4.82,2.41,2.41,0,0,1,0,4.82Zm-2,17.92V32.88h4V47.17Z"/><path class="cls-1" d="M507.33,47.17V39.25c0-2-.43-3.44-2.71-3.44-2.47,0-3.07,1.82-3.07,4v7.4h-4V32.88h4v1.75A5.29,5.29,0,0,1,506,32.41a5.48,5.48,0,0,1,4.16,1.72,5.52,5.52,0,0,1,1.12,4v9.08Z"/><path class="cls-1" d="M528.42,52.35a7.81,7.81,0,0,1-6.08,2.51c-3.66,0-7.19-2.12-7.59-6h4.33a3.17,3.17,0,0,0,3.4,2.61c2.5,0,3.53-1.75,3.53-4.06V45.25a6,6,0,0,1-4.82,2.38c-4.23,0-6.8-3.4-6.8-7.43s2.64-7.79,7-7.79A5.38,5.38,0,0,1,526,34.72V32.88h4V46.64C530,48.88,529.93,50.57,528.42,52.35ZM522.51,36a4,4,0,1,0,4,4A4,4,0,0,0,522.51,36Z"/><path class="cls-1" d="M326.72,82.49a9.11,9.11,0,0,1-7.22,3.17,9,9,0,0,1-7.23-3.17,9.46,9.46,0,0,1-1.62-5.87V63.15h4.29V75.76a7.48,7.48,0,0,0,.69,4,4.47,4.47,0,0,0,3.87,2,4.57,4.57,0,0,0,3.86-2,7.08,7.08,0,0,0,.69-4V63.15h4.29V76.62A9.27,9.27,0,0,1,326.72,82.49Z"/><path class="cls-1" d="M341.54,85.63a5.73,5.73,0,0,1-4.79-2.34v9.5h-4V70.88h4v1.81a5.69,5.69,0,0,1,4.69-2.28c4.26,0,7.06,3.54,7.06,7.63S345.73,85.63,341.54,85.63ZM340.35,74a4,4,0,1,0,4,4A4,4,0,0,0,340.35,74Z"/><path class="cls-1" d="M360.31,85.63a5.73,5.73,0,0,1-4.78-2.34v9.5h-4V70.88h4v1.81a5.69,5.69,0,0,1,4.69-2.28c4.25,0,7.06,3.54,7.06,7.63S364.51,85.63,360.31,85.63ZM359.13,74a4,4,0,1,0,4,4A4,4,0,0,0,359.13,74Z"/><path class="cls-1" d="M370.31,85.17V60.45h4V85.17Z"/><path class="cls-1" d="M381.47,78.67c.06,2.21,1.12,3.82,3.5,3.82a3.72,3.72,0,0,0,3.39-1.91l3.7.59c-1.25,3.07-3.79,4.46-7,4.46-4.62,0-7.66-3-7.66-7.63s2.91-7.59,7.5-7.59,7.29,3.17,7.29,7.73v.53Zm3.46-5.42a3.24,3.24,0,0,0-3.33,2.87h6.76A3.31,3.31,0,0,0,384.93,73.25Z"/><path class="cls-1" d="M401.76,85.46h-1.85l-7.29-14.58h4.49l3.76,8.05,3.76-8.05h4.49Z"/><path class="cls-1" d="M440.34,85.17,438.39,71.6l-6.07,13.86h-1.19L425.29,71.6l-2.21,13.57h-4.32l4.09-22.41h2.94l6,14.39,6.27-14.39H441l3.67,22.41Z"/><path class="cls-1" d="M459.22,85.66a11.42,11.42,0,0,1-11.75-11.45,11.77,11.77,0,1,1,11.75,11.45Zm0-19.07a7.59,7.59,0,1,0,7.36,7.55A7.46,7.46,0,0,0,459.22,66.59Z"/><path class="cls-1" d="M483.14,85.73h-2.28l-9.37-22.58h4.69l5.87,14.79L488,63.15h4.66Z"/><path class="cls-1" d="M495.25,85.17v-22h12.18v3.73h-7.89v4.89h7.59V75.5h-7.59v5.94h7.89v3.73Z"/><path class="cls-1" d="M536.6,72.46h-3.33l-.46,3h3.36l-.56,3.6h-3.36l-1,6.14h-4.12l1-6.14h-3l-1,6.14H520L521,79h-3.4l.57-3.6h3.39l.47-3h-3.37l.56-3.63h3.37l.89-5.68h4.09l-.92,5.68h3l.89-5.68h4.13l-.89,5.68h3.33Zm-10.49,0-.47,3h3l.46-3Z"/><path class="cls-1" d="M545.81,85.73c-4.1,0-7.69-2.64-7.92-6.9h4.32A3.59,3.59,0,1,0,545.94,75a6.83,6.83,0,0,0-.79.06v-3.1a2.88,2.88,0,0,0,.59,0,3,3,0,0,0,.1-6c-1.88,0-2.77,1.16-3,2.91h-4.06c.62-4.16,3.17-6.31,7.36-6.31,3.66,0,6.7,2.18,6.7,6.07a4.92,4.92,0,0,1-2.54,4.69,5.42,5.42,0,0,1,3.36,5.41C553.66,83.25,550,85.73,545.81,85.73Z"/><path class="cls-1" d="M565.14,85.73c-6.07,0-8.51-6.4-8.51-11.55s2.41-11.59,8.51-11.59,8.52,6.37,8.52,11.55S571.25,85.73,565.14,85.73Zm0-19.34c-3.36,0-4.22,5.21-4.22,7.75s.86,7.83,4.22,7.83,4.23-5.29,4.23-7.83S568.51,66.39,565.14,66.39Z"/><path class="cls-1" d="M579.6,85.79l-3.44-2,10.07-16.83H576V63.15h17Z"/></svg>