<svg id="Layer_1" data-name="Layer 1" xmlns="http://www.w3.org/2000/svg" viewBox="0 0 740 160"><defs><style>.cls-1{fill:#d80201;}</style></defs><title>text</title><path class="cls-1" d="M355.6,47.6,342.2,32.28V47.17h-4.29V24.66h3L354.28,40V25.15h4.29V47.6Z"/><path class="cls-1" d="M367.15,54.82h-4.52l5.25-9.8-6.77-12.15h4.65L370.05,41l4.09-8.12h4.55Z"/><path class="cls-1" d="M384.67,36.31V47.17h-4V36.31h-1.58V32.88h1.58V28h4v4.88h2.81v3.43Z"/><path class="cls-1" d="M393.58,36.31V47.17h-4V36.31H388V32.88h1.58V28h4v4.88h2.81v3.43Z"/><path class="cls-1" d="M414,47.46h-1.85l-7.29-14.59h4.49l3.76,8.05,3.76-8.05h4.49Z"/><path class="cls-1" d="M425.23,29.25a2.41,2.41,0,0,1,0-4.82,2.41,2.41,0,0,1,0,4.82Zm-2,17.92V32.88h4V47.17Z"/><path class="cls-1" d="M435.52,47.63a7.6,7.6,0,0,1-5.45-2.38l2.11-2.44a4.64,4.64,0,0,0,3.37,1.68,1.68,1.68,0,0,0,1.82-1.58c0-2.44-6.37-1.22-6.37-6,0-2.9,2.41-4.52,5.12-4.52a7.36,7.36,0,0,1,4.65,1.52l-2,2.34a4,4,0,0,0-2.38-1c-.69,0-1.52.43-1.52,1.22,0,2.08,6.6,1.15,6.6,6C441.5,45.85,438.59,47.63,435.52,47.63Z"/><path class="cls-1" d="M454.1,47.17V39.25c0-1.95-.43-3.43-2.71-3.43-2.48,0-3.07,1.81-3.07,4v7.39h-4V32.88h4v1.75a5.28,5.28,0,0,1,4.49-2.21A5.48,5.48,0,0,1,457,34.13a5.5,5.5,0,0,1,1.12,4v9.08Z"/><path class="cls-1" d="M463.87,29.25a2.41,2.41,0,0,1,0-4.82,2.41,2.41,0,0,1,0,4.82Zm-2,17.92V32.88h4V47.17Z"/><path class="cls-1" d="M479.38,47.17V39.25c0-1.95-.43-3.43-2.71-3.43-2.48,0-3.07,1.81-3.07,4v7.39h-4V32.88h4v1.75a5.28,5.28,0,0,1,4.49-2.21,5.48,5.48,0,0,1,4.16,1.72,5.5,5.5,0,0,1,1.12,4v9.08Z"/><path class="cls-1" d="M500.47,52.35a7.79,7.79,0,0,1-6.07,2.51c-3.66,0-7.2-2.11-7.59-6h4.32a3.18,3.18,0,0,0,3.4,2.61c2.51,0,3.53-1.75,3.53-4.06V45.25a5.94,5.94,0,0,1-4.82,2.38c-4.22,0-6.8-3.4-6.8-7.43s2.64-7.79,7-7.79a5.36,5.36,0,0,1,4.62,2.31V32.88h4V46.64C502.08,48.88,502,50.57,500.47,52.35ZM494.56,36a4,4,0,1,0,4,4A4,4,0,0,0,494.56,36Z"/><path class="cls-1" d="M510.46,47.63A7.6,7.6,0,0,1,505,45.25l2.11-2.44a4.64,4.64,0,0,0,3.37,1.68,1.68,1.68,0,0,0,1.82-1.58c0-2.44-6.37-1.22-6.37-6,0-2.9,2.41-4.52,5.12-4.52a7.36,7.36,0,0,1,4.65,1.52l-2,2.34a4,4,0,0,0-2.38-1c-.69,0-1.52.43-1.52,1.22,0,2.08,6.6,1.15,6.6,6C516.44,45.85,513.53,47.63,510.46,47.63Z"/><path class="cls-1" d="M529,47.17V39.34c0-2-.43-3.53-2.74-3.53-2.48,0-3,1.91-3,4v7.33h-4V22.45h4V34.72a5.2,5.2,0,0,1,4.49-2.31,5.46,5.46,0,0,1,4.16,1.75,5.67,5.67,0,0,1,1.12,4v9Z"/><path class="cls-1" d="M543.76,47.63c-3.93,0-6.9-1.75-6.9-6V32.88h4V41c0,1.95.83,3.27,2.9,3.27s2.9-1.32,2.9-3.27V32.88h4v8.75C550.69,45.88,547.69,47.63,543.76,47.63Z"/><path class="cls-1" d="M559.07,47.63a7.6,7.6,0,0,1-5.45-2.38l2.11-2.44a4.64,4.64,0,0,0,3.37,1.68,1.68,1.68,0,0,0,1.82-1.58c0-2.44-6.37-1.22-6.37-6,0-2.9,2.41-4.52,5.12-4.52a7.36,7.36,0,0,1,4.65,1.52l-2,2.34a4,4,0,0,0-2.38-1c-.69,0-1.52.43-1.52,1.22,0,2.08,6.6,1.15,6.6,6C565,45.85,562.14,47.63,559.07,47.63Z"/><path class="cls-1" d="M385.69,85.17,383.75,71.6l-6.07,13.86h-1.19L370.64,71.6l-2.21,13.56h-4.32l4.09-22.41h2.94l6,14.39,6.27-14.39h2.94L390,85.17Z"/><path class="cls-1" d="M404.57,85.66a11.42,11.42,0,0,1-11.75-11.45,11.77,11.77,0,1,1,11.75,11.45Zm0-19.08a7.59,7.59,0,1,0,7.36,7.56A7.47,7.47,0,0,0,404.57,66.59Z"/><path class="cls-1" d="M428.49,85.73h-2.28l-9.37-22.58h4.69l5.88,14.79,5.94-14.79H438Z"/><path class="cls-1" d="M440.6,85.17v-22h12.18v3.73h-7.89v4.88h7.59V75.5h-7.59v5.94h7.89v3.73Z"/><path class="cls-1" d="M482,72.46h-3.33l-.46,3h3.37L481,79H477.6l-1,6.14h-4.13l1-6.14h-3l-1,6.14h-4.09l1-6.14H463l.56-3.6h3.4l.46-3H464l.56-3.63H468l.89-5.68h4.09L472,68.83h3l.89-5.68h4.13l-.89,5.68h3.33Zm-10.5,0-.46,3h3l.46-3Z"/><path class="cls-1" d="M491.16,85.73c-4.09,0-7.69-2.64-7.92-6.9h4.32A3.59,3.59,0,1,0,491.29,75a6.37,6.37,0,0,0-.79.07v-3.1a3.56,3.56,0,0,0,.59,0,3,3,0,0,0,.1-6c-1.88,0-2.77,1.16-3,2.9h-4.06c.63-4.16,3.17-6.3,7.36-6.3,3.66,0,6.7,2.18,6.7,6.07a4.91,4.91,0,0,1-2.54,4.69A5.42,5.42,0,0,1,499,78.76C499,83.25,495.35,85.73,491.16,85.73Z"/><path class="cls-1" d="M510.5,85.73c-6.07,0-8.52-6.4-8.52-11.55s2.41-11.58,8.52-11.58S519,69,519,74.14,516.6,85.73,510.5,85.73Zm0-19.34c-3.37,0-4.22,5.21-4.22,7.76S507.13,82,510.5,82s4.22-5.28,4.22-7.82S513.86,66.39,510.5,66.39Z"/><path class="cls-1" d="M527.76,85.73a9.41,9.41,0,0,1-7-2.87l1.42-3.7A7.38,7.38,0,0,0,527.69,82a4.36,4.36,0,0,0,4.39-4.26c0-2.71-2.51-4.39-5-4.39a7.27,7.27,0,0,0-4.22,1.39h-.23l2.61-11.55h10.17v3.76h-7.26l-.86,3.4a13.38,13.38,0,0,1,1.62-.13,7.39,7.39,0,0,1,7.49,7.69C536.37,82.86,532.48,85.73,527.76,85.73Z"/></svg>