<svg id="Layer_1" data-name="Layer 1" xmlns="http://www.w3.org/2000/svg" viewBox="0 0 740 160"><defs><style>.cls-1{fill:#d80201;}</style></defs><title>text</title><path class="cls-1" d="M414.63,44.49a9.13,9.13,0,0,1-7.23,3.17,9,9,0,0,1-7.23-3.17,9.51,9.51,0,0,1-1.62-5.87V25.15h4.29V37.76a7.44,7.44,0,0,0,.69,4,4.44,4.44,0,0,0,3.86,2,4.55,4.55,0,0,0,3.86-2,7.09,7.09,0,0,0,.69-4V25.15h4.29V38.62A9.3,9.3,0,0,1,414.63,44.49Z"/><path class="cls-1" d="M429.45,47.63a5.72,5.72,0,0,1-4.79-2.34v9.51h-4V32.88h4v1.82a5.69,5.69,0,0,1,4.69-2.28c4.26,0,7.06,3.53,7.06,7.62S433.64,47.63,429.45,47.63ZM428.26,36a4,4,0,1,0,4,4A4,4,0,0,0,428.26,36Z"/><path class="cls-1" d="M448.23,47.63a5.72,5.72,0,0,1-4.79-2.34v9.51h-4V32.88h4v1.82a5.69,5.69,0,0,1,4.69-2.28c4.26,0,7.06,3.53,7.06,7.62S452.42,47.63,448.23,47.63ZM447,36a4,4,0,1,0,4,4A4,4,0,0,0,447,36Z"/><path class="cls-1" d="M458.22,47.17V22.45h4V47.17Z"/><path class="cls-1" d="M469.38,40.67c.07,2.21,1.12,3.83,3.5,3.83a3.74,3.74,0,0,0,3.4-1.91l3.7.59c-1.25,3.07-3.8,4.46-7,4.46-4.62,0-7.66-3-7.66-7.62s2.9-7.59,7.49-7.59,7.29,3.17,7.29,7.72v.53Zm3.47-5.41a3.24,3.24,0,0,0-3.33,2.87h6.77A3.31,3.31,0,0,0,472.84,35.25Z"/><path class="cls-1" d="M489.67,47.46h-1.85l-7.29-14.59H485l3.76,8.05,3.76-8.05H497Z"/><path class="cls-1" d="M385.69,85.17,383.75,71.6l-6.07,13.86h-1.19L370.64,71.6l-2.21,13.56h-4.32l4.09-22.41h2.94l6,14.39,6.27-14.39h2.94L390,85.17Z"/><path class="cls-1" d="M404.57,85.66a11.42,11.42,0,0,1-11.75-11.45,11.77,11.77,0,1,1,11.75,11.45Zm0-19.08a7.59,7.59,0,1,0,7.36,7.56A7.47,7.47,0,0,0,404.57,66.59Z"/><path class="cls-1" d="M428.49,85.73h-2.28l-9.37-22.58h4.69l5.88,14.79,5.94-14.79H438Z"/><path class="cls-1" d="M440.6,85.17v-22h12.18v3.73h-7.89v4.88h7.59V75.5h-7.59v5.94h7.89v3.73Z"/><path class="cls-1" d="M482,72.46h-3.33l-.46,3h3.37L481,79H477.6l-1,6.14h-4.13l1-6.14h-3l-1,6.14h-4.09l1-6.14H463l.56-3.6h3.4l.46-3H464l.56-3.63H468l.89-5.68h4.09L472,68.83h3l.89-5.68h4.13l-.89,5.68h3.33Zm-10.5,0-.46,3h3l.46-3Z"/><path class="cls-1" d="M491.16,85.73c-4.09,0-7.69-2.64-7.92-6.9h4.32A3.59,3.59,0,1,0,491.29,75a6.37,6.37,0,0,0-.79.07v-3.1a3.56,3.56,0,0,0,.59,0,3,3,0,0,0,.1-6c-1.88,0-2.77,1.16-3,2.9h-4.06c.63-4.16,3.17-6.3,7.36-6.3,3.66,0,6.7,2.18,6.7,6.07a4.91,4.91,0,0,1-2.54,4.69A5.42,5.42,0,0,1,499,78.76C499,83.25,495.35,85.73,491.16,85.73Z"/><path class="cls-1" d="M510.5,85.73c-6.07,0-8.52-6.4-8.52-11.55s2.41-11.58,8.52-11.58S519,69,519,74.14,516.6,85.73,510.5,85.73Zm0-19.34c-3.37,0-4.22,5.21-4.22,7.76S507.13,82,510.5,82s4.22-5.28,4.22-7.82S513.86,66.39,510.5,66.39Z"/><path class="cls-1" d="M527.76,85.73a9.41,9.41,0,0,1-7-2.87l1.42-3.7A7.38,7.38,0,0,0,527.69,82a4.36,4.36,0,0,0,4.39-4.26c0-2.71-2.51-4.39-5-4.39a7.27,7.27,0,0,0-4.22,1.39h-.23l2.61-11.55h10.17v3.76h-7.26l-.86,3.4a13.38,13.38,0,0,1,1.62-.13,7.39,7.39,0,0,1,7.49,7.69C536.37,82.86,532.48,85.73,527.76,85.73Z"/></svg>