<svg id="Layer_1" data-name="Layer 1" xmlns="http://www.w3.org/2000/svg" viewBox="0 0 740 160"><defs><style>.cls-1{fill:#d80201;}</style></defs><title>text</title><path class="cls-1" d="M372.3,119.08a6.94,6.94,0,0,1-4.88,1.54h-2.7V107.28h2.72a7.16,7.16,0,0,1,4.92,1.56,6.51,6.51,0,0,1,2.28,5.12A6.41,6.41,0,0,1,372.3,119.08Zm-4.8-10.4h-1.3v10.56h1.3a5.58,5.58,0,0,0,3.82-1.22,5.26,5.26,0,0,0,1.82-4.06C373.14,110.6,370.74,108.68,367.5,108.68Z"/><path class="cls-1" d="M377.72,110.2a1,1,0,1,1,1-1A1,1,0,0,1,377.72,110.2ZM377,120.62v-8.3h1.42v8.3Z"/><path class="cls-1" d="M388.14,123.7a4,4,0,0,1-3.32,1.54,3.74,3.74,0,0,1-4-3.8h1.42a2.48,2.48,0,0,0,2.64,2.52c2,0,2.66-1.5,2.66-3.28v-1.22a3.75,3.75,0,0,1-2.92,1.38,4.38,4.38,0,0,1,.06-8.72,3.55,3.55,0,0,1,2.86,1.36v-1.16h1.44v8.12A5,5,0,0,1,388.14,123.7Zm-3.34-10.3a2.85,2.85,0,0,0-2.72,3.14,2.8,2.8,0,0,0,2.72,3,3.1,3.1,0,0,0,0-6.16Z"/><path class="cls-1" d="M392.62,116.76a2.69,2.69,0,0,0,2.64,2.8,2.86,2.86,0,0,0,2.56-1.72l1.2.66a4.14,4.14,0,0,1-3.8,2.36,4,4,0,0,1-4.1-4.34c0-2.4,1.5-4.4,4-4.4s4,2,4,4.36v.28Zm2.56-3.34a2.55,2.55,0,0,0-2.46,2.14h4.88A2.49,2.49,0,0,0,395.18,113.42Z"/><path class="cls-1" d="M405.18,113.76a1.26,1.26,0,0,0-.84-.28,1.54,1.54,0,0,0-.72.18c-.92.5-.92,1.68-.92,2.58v4.38h-1.42v-8.3h1.42v.9a2.22,2.22,0,0,1,1.88-1.1,2.36,2.36,0,0,1,1.28.34Z"/><path class="cls-1" d="M412.4,120.62v-4.9c0-1.3-.18-2.32-1.74-2.32-1.84,0-2.06,1.6-2.06,3.06v4.16h-1.42v-8.3h1.42v1a3,3,0,0,1,4.76-.06,3.8,3.8,0,0,1,.48,2.2v5.16Z"/><path class="cls-1" d="M422.9,120.62v-1.16a3.54,3.54,0,0,1-2.88,1.4c-2.48,0-4-2.08-4-4.42a4,4,0,0,1,4-4.32,3.51,3.51,0,0,1,2.9,1.38v-1.18h1.42v8.3Zm-2.68-7.22a2.83,2.83,0,0,0-2.74,3,2.86,2.86,0,0,0,2.74,3.12,2.83,2.83,0,0,0,2.76-3.12A2.8,2.8,0,0,0,420.22,113.4Zm-1.66-2.78a1,1,0,0,1-1-1,1,1,0,1,1,1,1Zm3.48,0a1,1,0,0,1-1-1,1,1,0,1,1,1,1Z"/><path class="cls-1" d="M429.28,120.86a3,3,0,0,1-2.9-2.12l1.24-.52c.34.74.8,1.34,1.68,1.34a1.29,1.29,0,0,0,1.36-1.3c0-1.8-3.74-1.24-3.74-3.82a2.33,2.33,0,0,1,2.42-2.32,2.49,2.49,0,0,1,2.28,1.5l-1.18.62a1.33,1.33,0,0,0-1.16-.82,1,1,0,0,0-1,.92c0,1.46,3.84,1.08,3.84,3.8A2.73,2.73,0,0,1,429.28,120.86Z"/><path class="cls-1" d="M443.46,120.84a3.91,3.91,0,0,1-4.08-3.9,3.48,3.48,0,0,1,2-3.26,3.35,3.35,0,0,1-1.62-2.92,3.73,3.73,0,0,1,7.46,0,3.48,3.48,0,0,1-1.68,2.94,3.46,3.46,0,0,1,1.94,3.22A3.88,3.88,0,0,1,443.46,120.84Zm0-6.48A2.55,2.55,0,1,0,446,116.9,2.56,2.56,0,0,0,443.42,114.36Zm0-5.92a2.32,2.32,0,1,0,2.32,2.32A2.32,2.32,0,0,0,443.46,108.44Z"/><path class="cls-1" d="M455.78,116.12,453,119.24h5.6v1.38H450l4.86-5.62c.9-1,2.3-2.54,2.3-4a2.66,2.66,0,0,0-5.32.16h-1.5a5.54,5.54,0,0,1,.28-1.5,4.17,4.17,0,0,1,8,1.36C458.66,113,457,114.72,455.78,116.12Z"/><path class="cls-1" d="M462.7,120.94l-1.16-.78,7.56-11.48h-7.28v-1.4h9.82Z"/><path class="cls-1" d="M473.12,123.66l-.94-.38,1.64-4.62,1.32.48Z"/><path class="cls-1" d="M484.46,108.68v4h4.44V114h-4.44v6.6H483V107.28H489v1.4Z"/><path class="cls-1" d="M494.88,113.76a1.26,1.26,0,0,0-.84-.28,1.54,1.54,0,0,0-.72.18c-.92.5-.92,1.68-.92,2.58v4.38H491v-8.3h1.42v.9a2.22,2.22,0,0,1,1.88-1.1,2.36,2.36,0,0,1,1.28.34Z"/><path class="cls-1" d="M500.74,120.86a4.37,4.37,0,1,1,4.38-4.36A4.34,4.34,0,0,1,500.74,120.86Zm0-7.44a3.07,3.07,0,1,0,2.94,3.08A2.91,2.91,0,0,0,500.72,113.42Zm-1.72-2.8a1,1,0,0,1-1-1,1,1,0,1,1,1,1Zm3.48,0a1,1,0,0,1-1-1,1,1,0,1,1,1,1Z"/><path class="cls-1" d="M509.54,120.86a3,3,0,0,1-2.9-2.12l1.24-.52c.34.74.8,1.34,1.68,1.34a1.29,1.29,0,0,0,1.36-1.3c0-1.8-3.74-1.24-3.74-3.82a2.33,2.33,0,0,1,2.42-2.32,2.49,2.49,0,0,1,2.28,1.5l-1.18.62a1.33,1.33,0,0,0-1.16-.82,1,1,0,0,0-1,.92c0,1.46,3.84,1.08,3.84,3.8A2.73,2.73,0,0,1,509.54,120.86Z"/><path class="cls-1" d="M518.16,120.86a4.37,4.37,0,1,1,4.38-4.36A4.34,4.34,0,0,1,518.16,120.86Zm0-7.44a3.07,3.07,0,1,0,2.94,3.08A2.91,2.91,0,0,0,518.14,113.42Zm-1.72-2.8a1,1,0,0,1-1-1,1,1,0,1,1,1,1Zm3.48,0a1,1,0,0,1-1-1,1,1,0,1,1,1,1Z"/><path class="cls-1" d="M529.94,120.62v-4.9c0-1.3-.18-2.32-1.74-2.32-1.84,0-2.06,1.6-2.06,3.06v4.16h-1.42v-8.3h1.42v1a3,3,0,0,1,4.76-.06,3.8,3.8,0,0,1,.48,2.2v5.16Z"/><path class="cls-1" d="M343.14,141.86a4.08,4.08,0,0,1-4.12-3.44l1.44-.4a2.72,2.72,0,0,0,2.72,2.44,2.63,2.63,0,0,0,2.68-2.64c0-3.14-6.16-2.4-6.16-6.32a3.53,3.53,0,0,1,3.74-3.44,3.8,3.8,0,0,1,3.44,2.08l-1.18.78a2.47,2.47,0,0,0-2.28-1.46,2.12,2.12,0,0,0-2.22,2c0,2.76,6.16,2,6.16,6.26A4.11,4.11,0,0,1,343.14,141.86Z"/><path class="cls-1" d="M353.58,141.86A4.37,4.37,0,1,1,358,137.5,4.34,4.34,0,0,1,353.58,141.86Zm0-7.44a3.07,3.07,0,1,0,2.94,3.08A2.91,2.91,0,0,0,353.56,134.42Zm-1.72-2.8a1,1,0,0,1-1-1,1,1,0,1,1,1,1Zm3.48,0a1,1,0,0,1-1-1,1,1,0,1,1,1,1Z"/><path class="cls-1" d="M365.36,141.62v-4.9c0-1.3-.18-2.32-1.74-2.32-1.84,0-2.06,1.6-2.06,3.06v4.16h-1.42v-8.3h1.42v1a3,3,0,0,1,4.76-.06,3.8,3.8,0,0,1,.48,2.2v5.16Z"/><path class="cls-1" d="M375.86,141.62v-1.16a3.54,3.54,0,0,1-2.88,1.4,4.11,4.11,0,0,1-4-4.4,4.07,4.07,0,0,1,4-4.34,3.56,3.56,0,0,1,2.9,1.38V127h1.42v14.58Zm-2.68-7.2a3.09,3.09,0,1,0,2.76,3A2.78,2.78,0,0,0,373.18,134.42Z"/><path class="cls-1" d="M386.34,141.62v-1.16a3.54,3.54,0,0,1-2.88,1.4c-2.48,0-4-2.08-4-4.42a4,4,0,0,1,4-4.32,3.51,3.51,0,0,1,2.9,1.38v-1.18h1.42v8.3Zm-2.68-7.22a2.83,2.83,0,0,0-2.74,3,2.86,2.86,0,0,0,2.74,3.12,2.83,2.83,0,0,0,2.76-3.12A2.8,2.8,0,0,0,383.66,134.4Z"/><path class="cls-1" d="M397.46,144.7a4,4,0,0,1-3.32,1.54,3.74,3.74,0,0,1-4-3.8h1.42a2.48,2.48,0,0,0,2.64,2.52c2,0,2.66-1.5,2.66-3.28v-1.22a3.75,3.75,0,0,1-2.92,1.38,4.38,4.38,0,0,1,.06-8.72,3.55,3.55,0,0,1,2.86,1.36v-1.16h1.44v8.12A5,5,0,0,1,397.46,144.7Zm-3.34-10.3a2.85,2.85,0,0,0-2.72,3.14,2.8,2.8,0,0,0,2.72,3,3.1,3.1,0,0,0,0-6.16Z"/><path class="cls-1" d="M411.38,137.12l-2.74,3.12h5.6v1.38h-8.62l4.86-5.62c.9-1,2.3-2.54,2.3-4a2.66,2.66,0,0,0-5.32.16H406a5.54,5.54,0,0,1,.28-1.5,4.17,4.17,0,0,1,8,1.36C414.26,134,412.62,135.72,411.38,137.12Z"/><path class="cls-1" d="M421.26,141.62V129.68H419l.78-1.4h2.92v13.34Z"/><path class="cls-1" d="M434.38,131.2a1,1,0,1,1,1-1A1,1,0,0,1,434.38,131.2Zm-.72,15.1v-13h1.42v13Z"/><path class="cls-1" d="M444.16,141.62v-1.16a3.54,3.54,0,0,1-2.88,1.4c-2.48,0-4-2.08-4-4.42a4,4,0,0,1,4-4.32,3.51,3.51,0,0,1,2.9,1.38v-1.18h1.42v8.3Zm-2.68-7.22a2.83,2.83,0,0,0-2.74,3,2.86,2.86,0,0,0,2.74,3.12,2.83,2.83,0,0,0,2.76-3.12A2.8,2.8,0,0,0,441.48,134.4Z"/><path class="cls-1" d="M453.52,141.62v-4.9c0-1.3-.18-2.32-1.74-2.32-1.84,0-2.06,1.6-2.06,3.06v4.16H448.3v-8.3h1.42v1a3,3,0,0,1,4.76-.06,3.8,3.8,0,0,1,.48,2.2v5.16Z"/><path class="cls-1" d="M463.52,140.82a3.62,3.62,0,0,1-5.08,0,3.4,3.4,0,0,1-.76-2.5v-5h1.42v4.84a3.18,3.18,0,0,0,.26,1.56,2,2,0,0,0,3.22,0,3.22,3.22,0,0,0,.26-1.56v-4.84h1.42v5A3.39,3.39,0,0,1,463.52,140.82Z"/><path class="cls-1" d="M473.32,141.62v-1.16a3.54,3.54,0,0,1-2.88,1.4c-2.48,0-4-2.08-4-4.42a4,4,0,0,1,4-4.32,3.51,3.51,0,0,1,2.9,1.38v-1.18h1.42v8.3Zm-2.68-7.22a2.83,2.83,0,0,0-2.74,3,2.86,2.86,0,0,0,2.74,3.12,2.83,2.83,0,0,0,2.76-3.12A2.8,2.8,0,0,0,470.64,134.4Z"/><path class="cls-1" d="M481.36,134.76a1.26,1.26,0,0,0-.84-.28,1.54,1.54,0,0,0-.72.18c-.92.5-.92,1.68-.92,2.58v4.38h-1.42v-8.3h1.42v.9a2.22,2.22,0,0,1,1.88-1.1,2.36,2.36,0,0,1,1.28.34Z"/><path class="cls-1" d="M484.08,131.2a1,1,0,1,1,1-1A1,1,0,0,1,484.08,131.2Zm-.72,10.42v-8.3h1.42v8.3Z"/><path class="cls-1" d="M497.66,141.62l-3.36-3.78-.36.36v3.42h-1.42V127h1.42v9.34l3-3.06h1.9l-3.56,3.52,4.22,4.78Z"/><path class="cls-1" d="M500.94,141.62V127h1.42v14.58Z"/><path class="cls-1" d="M514,141.62V129.68H511.8l.78-1.4h2.92v13.34Z"/><path class="cls-1" d="M525.32,141.84a4.16,4.16,0,0,1-3.08-1.32,3.53,3.53,0,0,1-.88-2.36h1.44a2.55,2.55,0,0,0,.46,1.3,2.68,2.68,0,0,0,2.1,1A2.6,2.6,0,0,0,528,137.8c0-1.74-1.22-2.52-2.84-2.52V134a3.08,3.08,0,0,0,1.58-.32,2.3,2.3,0,1,0-3-3.36,3.26,3.26,0,0,0-.44,1.28h-1.46c.3-2.16,1.44-3.5,3.72-3.5a3.57,3.57,0,0,1,3.76,3.58,3.25,3.25,0,0,1-1.72,3,3.41,3.41,0,0,1,1.92,3.22A4,4,0,0,1,525.32,141.84Z"/><path class="cls-1" d="M531.4,138v-1.28H535V138Z"/><path class="cls-1" d="M540.32,141.62V129.68H538.1l.78-1.4h2.92v13.34Z"/><path class="cls-1" d="M551.1,141.84a4.63,4.63,0,0,1-4.08-2.38l1.18-.84a3.52,3.52,0,0,0,3,1.84,3.31,3.31,0,0,0,3.3-3.38,3.24,3.24,0,0,0-3.28-3.32,4.71,4.71,0,0,0-2.58.92l1.94-6.4h5.3v1.4h-4.26l-.88,2.84a3.16,3.16,0,0,1,.76-.08,4.42,4.42,0,0,1,4.48,4.62A4.73,4.73,0,0,1,551.1,141.84Z"/></svg>