<svg id="Layer_1" data-name="Layer 1" xmlns="http://www.w3.org/2000/svg" viewBox="0 0 740 160"><defs><style>.cls-1{fill:#d4ac76;}</style></defs><title>text</title><path class="cls-1" d="M369.59,122.11a5,5,0,0,1-3.62-1.49,5.4,5.4,0,0,1,0-7.45,5.13,5.13,0,0,1,7.24,0,5.35,5.35,0,0,1,0,7.43A4.94,4.94,0,0,1,369.59,122.11ZM367,119.64a3.63,3.63,0,0,0,5.26,0,4,4,0,0,0,0-5.49,3.63,3.63,0,0,0-5.26,0,4,4,0,0,0,0,5.49Z"/><path class="cls-1" d="M378.23,121.93V111.88h2.69a5,5,0,0,1,5,5,4.84,4.84,0,0,1-1.46,3.62,4.91,4.91,0,0,1-3.57,1.43Zm2.75-8.71h-1.34v7.37H381a3.22,3.22,0,0,0,2.47-1.08,3.73,3.73,0,0,0,1-2.63,3.61,3.61,0,0,0-1-2.61A3.36,3.36,0,0,0,381,113.22Z"/><path class="cls-1" d="M394.9,117.52h-4.14v3.07h4.42v1.34h-5.82V111.88h5.75v1.34h-4.35v3h4.14Z"/><path class="cls-1" d="M398.67,121.93V111.88h1l5.44,6.92v-6.92h1.4v10.05h-.78l-5.64-7.18v7.18Z"/><path class="cls-1" d="M413.14,122.06a4.69,4.69,0,0,1-1.88-.41,5,5,0,0,1-1.59-1.08l1-1.14a3.67,3.67,0,0,0,1.16.92,3,3,0,0,0,1.39.37,2,2,0,0,0,1.3-.43,1.37,1.37,0,0,0,.5-1.07,1.77,1.77,0,0,0-1.27-1.65l-1.19-.47a4,4,0,0,1-1.64-1.08,2.36,2.36,0,0,1-.54-1.59,2.51,2.51,0,0,1,.83-1.9,2.86,2.86,0,0,1,2.05-.78,4.06,4.06,0,0,1,2.91,1.11l-.84,1.13a2.78,2.78,0,0,0-2.07-.9,1.62,1.62,0,0,0-1.07.34,1.2,1.2,0,0,0-.41.94,1.11,1.11,0,0,0,.3.77,2.75,2.75,0,0,0,1,.62l1.21.49a2.85,2.85,0,0,1,2.11,2.87,2.73,2.73,0,0,1-.88,2.11A3.39,3.39,0,0,1,413.14,122.06Z"/><path class="cls-1" d="M422.45,121.93l-3.92-10.05h1.58l3,7.72,3-7.72h1.55l-3.93,10.05Z"/><path class="cls-1" d="M428.54,121.93l4-10.05h1.27l3.95,10.05h-1.55l-.61-1.55h-4.92l-.62,1.55Zm3.63-11.12a.68.68,0,0,1-1,0,.84.84,0,0,1,0-1.09.68.68,0,0,1,1,0,.81.81,0,0,1,0,1.09Zm1,3.37L431.26,119h3.86Zm1.75-3.37a.65.65,0,0,1-.5.22.63.63,0,0,1-.5-.22.81.81,0,0,1,0-1.09.63.63,0,0,1,.5-.22.65.65,0,0,1,.5.22.84.84,0,0,1,0,1.09Z"/><path class="cls-1" d="M446.68,117.56v-1.34H450v.7a5.15,5.15,0,0,1-5.2,5.17,4.92,4.92,0,0,1-3.67-1.5,5.42,5.42,0,0,1,0-7.42,4.92,4.92,0,0,1,3.67-1.5,5.37,5.37,0,0,1,2.11.42,5,5,0,0,1,1.72,1.16l-1,1.06a3.68,3.68,0,0,0-5.46-.17,4.07,4.07,0,0,0,0,5.48,3.5,3.5,0,0,0,2.67,1.14,3.6,3.6,0,0,0,2.41-.88,3.85,3.85,0,0,0,1.27-2.32Z"/><path class="cls-1" d="M459,117.52h-4.13v3.07h4.42v1.34h-5.82V111.88h5.74v1.34h-4.34v3H459Z"/><path class="cls-1" d="M462.78,121.93V111.88h1l5.45,6.92v-6.92h1.4v10.05h-.78l-5.64-7.18v7.18Z"/><path class="cls-1" d="M482.85,122.08a3.39,3.39,0,0,1-2-.62,3,3,0,0,1-1.19-1.63l1.27-.49a2,2,0,0,0,2,1.4,2,2,0,0,0,2-2,1.89,1.89,0,0,0-.59-1.41,2,2,0,0,0-1.42-.57,1.86,1.86,0,0,0-1.42.62H480v-5.5h5.62v1.34h-4.22v2.7a2.63,2.63,0,0,1,1.42-.4,3.34,3.34,0,0,1,2.47.92,3.07,3.07,0,0,1,.94,2.3,3.2,3.2,0,0,1-1,2.36A3.33,3.33,0,0,1,482.85,122.08Z"/><path class="cls-1" d="M488,123.77l1.16-3.22,1.29.45-1.59,3.1Z"/><path class="cls-1" d="M498.17,113.22v-1.34h8.14v1.34h-3.37v8.71h-1.4v-8.71Z"/><path class="cls-1" d="M507,121.93l4-10.05h1.27l4,10.05h-1.55l-.61-1.55h-4.93l-.62,1.55Zm3.63-11.12a.67.67,0,0,1-.51.22.63.63,0,0,1-.49-.22.84.84,0,0,1,0-1.09.63.63,0,0,1,.49-.22.67.67,0,0,1,.51.22.84.84,0,0,1,0,1.09Zm1,3.37L509.67,119h3.86Zm1.75-3.37a.63.63,0,0,1-.5.22.65.65,0,0,1-.5-.22.84.84,0,0,1,0-1.09.65.65,0,0,1,.5-.22.63.63,0,0,1,.5.22.76.76,0,0,1,.2.54A.76.76,0,0,1,513.37,110.81Z"/><path class="cls-1" d="M519,121.93V111.88h3.07a3.28,3.28,0,0,1,2.22.77,2.6,2.6,0,0,1,.87,2,2.38,2.38,0,0,1-1.2,2.16,2.52,2.52,0,0,1,1.08.9,2.37,2.37,0,0,1,.41,1.36,2.61,2.61,0,0,1-.88,2.05,3.28,3.28,0,0,1-2.25.78Zm2.93-8.71h-1.53v3h1.79a1.52,1.52,0,0,0,1.57-1.6,1.28,1.28,0,0,0-.51-1.06A2.07,2.07,0,0,0,521.94,113.22Zm.31,4.3h-1.84v3.07h1.75a2.11,2.11,0,0,0,1.38-.43,1.43,1.43,0,0,0,.51-1.15,1.39,1.39,0,0,0-.46-1.08A2,2,0,0,0,522.25,117.52Z"/><path class="cls-1" d="M533.75,111.88h1.63l-3.35,6v4.05h-1.4v-4l-3.38-6.05h1.68l2.43,4.46Z"/><path class="cls-1" d="M362.55,142.06a4.69,4.69,0,0,1-1.88-.41,5.08,5.08,0,0,1-1.59-1.08l1-1.14a3.78,3.78,0,0,0,1.16.92,3,3,0,0,0,1.39.37,2,2,0,0,0,1.3-.43,1.37,1.37,0,0,0,.5-1.07,1.76,1.76,0,0,0-1.27-1.65L362,137.1a4,4,0,0,1-1.64-1.08,2.36,2.36,0,0,1-.54-1.59,2.55,2.55,0,0,1,.83-1.9,2.86,2.86,0,0,1,2.05-.78,4.1,4.1,0,0,1,2.92,1.11l-.85,1.13a2.78,2.78,0,0,0-2.07-.9,1.62,1.62,0,0,0-1.07.34,1.2,1.2,0,0,0-.41.94,1.11,1.11,0,0,0,.3.77,2.75,2.75,0,0,0,1,.62l1.21.49a2.84,2.84,0,0,1,2.11,2.87,2.73,2.73,0,0,1-.88,2.11A3.37,3.37,0,0,1,362.55,142.06Z"/><path class="cls-1" d="M373.86,142.11a5,5,0,0,1-3.62-1.49,5.4,5.4,0,0,1,0-7.45,5.13,5.13,0,0,1,7.24,0,5.35,5.35,0,0,1,0,7.43A4.94,4.94,0,0,1,373.86,142.11Zm-2.63-2.47a3.63,3.63,0,0,0,5.26,0,4,4,0,0,0,0-5.49,3.63,3.63,0,0,0-5.26,0,4,4,0,0,0,0,5.49Zm1.69-8.83a.63.63,0,0,1-.5.22.61.61,0,0,1-.49-.22.76.76,0,0,1-.2-.55.76.76,0,0,1,.2-.54.61.61,0,0,1,.49-.22.63.63,0,0,1,.5.22.81.81,0,0,1,0,1.09Zm2.79,0a.65.65,0,0,1-.5.22.63.63,0,0,1-.5-.22.84.84,0,0,1,0-1.09.63.63,0,0,1,.5-.22.65.65,0,0,1,.5.22.84.84,0,0,1,0,1.09Z"/><path class="cls-1" d="M382.5,141.93V131.88h1l5.45,6.92v-6.92h1.4v10.05h-.78l-5.64-7.18v7.18Z"/><path class="cls-1" d="M394.53,141.93V131.88h2.69a5,5,0,0,1,5,5,4.88,4.88,0,0,1-1.46,3.62,4.94,4.94,0,0,1-3.57,1.43Zm2.74-8.71h-1.34v7.37h1.38a3.24,3.24,0,0,0,2.48-1.08,3.72,3.72,0,0,0,1-2.63,3.6,3.6,0,0,0-1-2.61A3.37,3.37,0,0,0,397.27,133.22Z"/><path class="cls-1" d="M404.19,141.93l4-10.05h1.27l4,10.05H411.9l-.61-1.55h-4.93l-.62,1.55Zm4.66-7.75-2,4.86h3.86Z"/><path class="cls-1" d="M422.32,137.56v-1.34h3.34v.7a5.15,5.15,0,0,1-5.2,5.17,4.92,4.92,0,0,1-3.66-1.5,5.42,5.42,0,0,1,0-7.42,4.92,4.92,0,0,1,3.66-1.5,5.42,5.42,0,0,1,2.12.42,5.07,5.07,0,0,1,1.72,1.16l-1,1.06a3.57,3.57,0,0,0-2.8-1.3,3.52,3.52,0,0,0-2.66,1.13,4,4,0,0,0,0,5.48,3.49,3.49,0,0,0,2.66,1.14,3.6,3.6,0,0,0,2.41-.88,3.8,3.8,0,0,0,1.27-2.32Z"/><path class="cls-1" d="M435.7,141.93v-8.26l-1.89,1v-1.34l2.67-1.47h.62v10.11Z"/><path class="cls-1" d="M440.26,139.62v-.88l3.5-6.86h1.47l-3.31,6.5h2.18v-1.69h1.4v1.69h1.21v1.24H445.5v2.31h-1.4v-2.31Z"/><path class="cls-1" d="M454.22,141.93l4-10.05h1.27l4,10.05h-1.56l-.6-1.55H456.4l-.62,1.55Zm4.67-7.75L456.94,139h3.86Z"/><path class="cls-1" d="M466.28,141.93V131.88h3.42a3.17,3.17,0,0,1,2.34.93,3.27,3.27,0,0,1,.93,2.39,3.13,3.13,0,0,1-1,2.35,3.24,3.24,0,0,1-2.36.94h-2v3.44Zm3.33-8.71h-1.93v3.93h1.94a1.92,1.92,0,0,0,1.4-.53,1.88,1.88,0,0,0,.55-1.42,1.94,1.94,0,0,0-.56-1.42A1.87,1.87,0,0,0,469.61,133.22Z"/><path class="cls-1" d="M476.3,141.93V131.88H480a3.15,3.15,0,0,1,2.26.87,3,3,0,0,1,.91,2.27,3,3,0,0,1-.75,2.1,2.94,2.94,0,0,1-1.92,1l2.9,3.83h-1.72l-2.89-3.84H477.7v3.84Zm3.54-8.71H477.7v3.62h2.13a2,2,0,0,0,1.42-.49,1.75,1.75,0,0,0,.55-1.33,1.69,1.69,0,0,0-.56-1.28A1.94,1.94,0,0,0,479.84,133.22Z"/><path class="cls-1" d="M486.72,141.93V131.88h1.41v10.05Z"/><path class="cls-1" d="M492.25,141.93V131.88h1.4v8.71h4.14v1.34Z"/><path class="cls-1" d="M507.45,141.93v-8.26l-1.89,1v-1.34l2.67-1.47h.62v10.11Z"/><path class="cls-1" d="M512,139.62v-.88l3.49-6.86H517l-3.3,6.5h2.17v-1.69h1.41v1.69h1.21v1.24h-1.21v2.31h-1.41v-2.31Z"/><path class="cls-1" d="M521.12,137.54V136.3h3.93v1.24Z"/><path class="cls-1" d="M528.86,141.93v-8.26l-1.89,1v-1.34l2.67-1.47h.62v10.11Z"/><path class="cls-1" d="M537,142.08a3,3,0,0,1-2.2-.88,2.87,2.87,0,0,1-.9-2.12v-4.25a3,3,0,0,1,.9-2.25,3.27,3.27,0,0,1,4.34-.09,2.65,2.65,0,0,1,.87,2.06h-1.4A1.54,1.54,0,0,0,537,133a1.59,1.59,0,0,0-1.21.5,1.81,1.81,0,0,0-.49,1.3v2.14a2.24,2.24,0,0,1,1.74-.8,3.07,3.07,0,0,1,2.2.86,2.85,2.85,0,0,1,.89,2.12,2.82,2.82,0,0,1-.92,2.12A3,3,0,0,1,537,142.08Zm0-1.25a1.64,1.64,0,0,0,1.22-.52,1.71,1.71,0,0,0,.5-1.23,1.72,1.72,0,0,0-1.72-1.73,1.69,1.69,0,0,0-1.16.47,1.65,1.65,0,0,0-.51,1.26,1.7,1.7,0,0,0,.49,1.23A1.53,1.53,0,0,0,537,140.83Z"/></svg>