<svg id="Layer_1" data-name="Layer 1" xmlns="http://www.w3.org/2000/svg" viewBox="0 0 740 160"><defs><style>.cls-1{fill:#d4ac76;}</style></defs><title>text</title><path class="cls-1" d="M338,121.93l4-10.05h1.27l4,10.05h-1.56l-.6-1.55h-4.93l-.62,1.55Zm4.67-7.75L340.72,119h3.86Z"/><path class="cls-1" d="M352.74,122.06a4.65,4.65,0,0,1-1.88-.41,5,5,0,0,1-1.59-1.08l1-1.14a3.62,3.62,0,0,0,1.15.92,3,3,0,0,0,1.39.37,2,2,0,0,0,1.3-.43,1.33,1.33,0,0,0,.5-1.07,1.76,1.76,0,0,0-1.27-1.65l-1.18-.47A4,4,0,0,1,350.5,116a2.36,2.36,0,0,1-.54-1.59,2.55,2.55,0,0,1,.83-1.9,2.9,2.9,0,0,1,2-.78,4.09,4.09,0,0,1,2.92,1.11l-.84,1.13a2.79,2.79,0,0,0-2.08-.9,1.59,1.59,0,0,0-1.06.34,1.2,1.2,0,0,0-.41.94,1.11,1.11,0,0,0,.3.77,2.75,2.75,0,0,0,1,.62l1.21.49a2.87,2.87,0,0,1,2.11,2.87,2.74,2.74,0,0,1-.89,2.11A3.36,3.36,0,0,1,352.74,122.06Z"/><path class="cls-1" d="M359.45,121.93V111.88h1.41v4.76l4.18-4.76h1.89l-3.54,4,3.63,6.07h-1.74L362.35,117l-1.49,1.68v3.23Z"/><path class="cls-1" d="M370.08,121.93V111.88h1.4v10.05Z"/><path class="cls-1" d="M375.6,121.93V111.88H377l3.24,5.35,3.29-5.35H385v10.05h-1.41V114.5l0,0-3.24,5.2-3.17-5.12H377v7.38Z"/><path class="cls-1" d="M391.53,122.06a4.69,4.69,0,0,1-1.88-.41,5,5,0,0,1-1.59-1.08l1-1.14a3.67,3.67,0,0,0,1.16.92,3,3,0,0,0,1.39.37,1.93,1.93,0,0,0,1.29-.43,1.34,1.34,0,0,0,.51-1.07,1.77,1.77,0,0,0-1.27-1.65l-1.19-.47a4,4,0,0,1-1.65-1.08,2.4,2.4,0,0,1-.53-1.59,2.54,2.54,0,0,1,.82-1.9,2.9,2.9,0,0,1,2.05-.78,4.09,4.09,0,0,1,2.92,1.11l-.84,1.13a2.79,2.79,0,0,0-2.08-.9,1.59,1.59,0,0,0-1.06.34,1.2,1.2,0,0,0-.41.94,1.11,1.11,0,0,0,.3.77,2.75,2.75,0,0,0,1,.62l1.21.49a2.85,2.85,0,0,1,2.11,2.87,2.74,2.74,0,0,1-.89,2.11A3.35,3.35,0,0,1,391.53,122.06Z"/><path class="cls-1" d="M403.75,121.93V111.88h1.4v4.76l4.18-4.76h1.89l-3.54,4,3.63,6.07h-1.74L406.64,117l-1.49,1.68v3.23Z"/><path class="cls-1" d="M419.79,111.88h1.62l-3.34,6v4.05h-1.4v-4l-3.38-6.05H415l2.43,4.46Z"/><path class="cls-1" d="M424.27,121.93V111.88H428a3.13,3.13,0,0,1,2.26.87,3,3,0,0,1,.91,2.27,3,3,0,0,1-.75,2.1,2.94,2.94,0,0,1-1.92,1l2.91,3.83h-1.73l-2.89-3.84h-1.11v3.84Zm3.54-8.71h-2.13v3.62h2.12a2,2,0,0,0,1.42-.49,1.71,1.71,0,0,0,.55-1.33,1.68,1.68,0,0,0-.55-1.28A2,2,0,0,0,427.81,113.22Z"/><path class="cls-1" d="M434.7,121.93V111.88h1.4v4.76l4.19-4.76h1.88l-3.54,4,3.63,6.07h-1.74L437.6,117l-1.5,1.68v3.23Z"/><path class="cls-1" d="M448.26,121.93l-3.92-10.05h1.58l3,7.72,3-7.72h1.55l-3.93,10.05Z"/><path class="cls-1" d="M454.35,121.93l4-10.05h1.27l4,10.05h-1.56l-.6-1.55h-4.93l-.62,1.55ZM458,110.81a.65.65,0,0,1-.5.22.61.61,0,0,1-.49-.22.81.81,0,0,1,0-1.09.61.61,0,0,1,.49-.22.65.65,0,0,1,.5.22.81.81,0,0,1,0,1.09Zm1,3.37L457.07,119h3.86Zm1.75-3.37a.65.65,0,0,1-.5.22.63.63,0,0,1-.5-.22.76.76,0,0,1-.2-.55.76.76,0,0,1,.2-.54.63.63,0,0,1,.5-.22.65.65,0,0,1,.5.22.84.84,0,0,1,0,1.09Z"/><path class="cls-1" d="M472.49,117.56v-1.34h3.34v.7a5.15,5.15,0,0,1-5.2,5.17,4.94,4.94,0,0,1-3.67-1.5,5.42,5.42,0,0,1,0-7.42,4.94,4.94,0,0,1,3.67-1.5,5.33,5.33,0,0,1,2.11.42,4.89,4.89,0,0,1,1.72,1.16l-1,1.06a3.68,3.68,0,0,0-5.46-.17,4.07,4.07,0,0,0,0,5.48,3.5,3.5,0,0,0,2.67,1.14,3.6,3.6,0,0,0,2.41-.88,3.85,3.85,0,0,0,1.27-2.32Z"/><path class="cls-1" d="M487,122.08a3.09,3.09,0,0,1-2.19-.85,2.79,2.79,0,0,1-.93-2h1.4a1.5,1.5,0,0,0,.52,1.11,1.82,1.82,0,0,0,2.43,0,1.61,1.61,0,0,0,.5-1.2,1.68,1.68,0,0,0-.5-1.24,1.66,1.66,0,0,0-1.22-.48h-.57v-1.25H487a1.59,1.59,0,0,0,1.17-.47,1.56,1.56,0,0,0,0-2.23,1.62,1.62,0,0,0-1.18-.45,1.56,1.56,0,0,0-1.15.47,1.51,1.51,0,0,0-.47,1.12H484a2.6,2.6,0,0,1,.87-2,3.25,3.25,0,0,1,4.33,0,2.64,2.64,0,0,1,.87,2,2.24,2.24,0,0,1-.43,1.35,2.31,2.31,0,0,1-1.1.85,2.39,2.39,0,0,1,1.17.9,2.46,2.46,0,0,1,.44,1.45,2.86,2.86,0,0,1-.92,2.13A3.06,3.06,0,0,1,487,122.08Z"/><path class="cls-1" d="M496.08,122.08a3.37,3.37,0,0,1-2-.62,3.12,3.12,0,0,1-1.2-1.63l1.28-.49a2,2,0,0,0,.72,1,2,2,0,0,0,1.23.39,2,2,0,0,0,2-2,1.89,1.89,0,0,0-.59-1.41,2,2,0,0,0-1.42-.57,1.86,1.86,0,0,0-1.42.62h-1.41v-5.5h5.63v1.34h-4.22v2.7a2.61,2.61,0,0,1,1.42-.4,3.36,3.36,0,0,1,2.47.92,3.07,3.07,0,0,1,.94,2.3,3.2,3.2,0,0,1-1,2.36A3.33,3.33,0,0,1,496.08,122.08Z"/><path class="cls-1" d="M501.19,123.77l1.16-3.22,1.29.45-1.59,3.1Z"/><path class="cls-1" d="M511.36,121.93l4-10.05h1.27l4,10.05h-1.55l-.61-1.55h-4.93l-.62,1.55Zm4.67-7.75-2,4.86h3.86Z"/><path class="cls-1" d="M526.09,122.06a4.69,4.69,0,0,1-1.88-.41,5,5,0,0,1-1.59-1.08l1-1.14a3.67,3.67,0,0,0,1.16.92,3,3,0,0,0,1.39.37,2,2,0,0,0,1.3-.43,1.37,1.37,0,0,0,.5-1.07,1.76,1.76,0,0,0-1.27-1.65l-1.19-.47a4,4,0,0,1-1.64-1.08,2.36,2.36,0,0,1-.54-1.59,2.51,2.51,0,0,1,.83-1.9,2.86,2.86,0,0,1,2.05-.78,4.06,4.06,0,0,1,2.91,1.11l-.84,1.13a2.78,2.78,0,0,0-2.07-.9,1.62,1.62,0,0,0-1.07.34,1.2,1.2,0,0,0-.41.94,1.11,1.11,0,0,0,.3.77,2.75,2.75,0,0,0,1,.62l1.21.49a2.85,2.85,0,0,1,2.11,2.87,2.73,2.73,0,0,1-.88,2.11A3.39,3.39,0,0,1,526.09,122.06Z"/><path class="cls-1" d="M532.81,121.93V111.88h1.4v4.76l4.19-4.76h1.88l-3.54,4,3.63,6.07h-1.74L535.71,117l-1.5,1.68v3.23Z"/><path class="cls-1" d="M543.43,121.93V111.88h1.4v10.05Z"/><path class="cls-1" d="M549,121.93V111.88h1.45l3.23,5.35,3.29-5.35h1.38v10.05h-1.4V114.5l0,0-3.23,5.2-3.17-5.12h-.09v7.38Z"/><path class="cls-1" d="M327.4,142.06a4.69,4.69,0,0,1-1.88-.41,5,5,0,0,1-1.59-1.08l1-1.14a3.67,3.67,0,0,0,1.16.92,3,3,0,0,0,1.39.37,2,2,0,0,0,1.3-.43,1.37,1.37,0,0,0,.5-1.07,1.77,1.77,0,0,0-1.27-1.65l-1.19-.47a4,4,0,0,1-1.64-1.08,2.36,2.36,0,0,1-.54-1.59,2.51,2.51,0,0,1,.83-1.9,2.86,2.86,0,0,1,2.05-.78,4.06,4.06,0,0,1,2.91,1.11l-.84,1.13a2.78,2.78,0,0,0-2.07-.9,1.62,1.62,0,0,0-1.07.34,1.2,1.2,0,0,0-.41.94,1.11,1.11,0,0,0,.3.77,2.75,2.75,0,0,0,1,.62l1.21.49a2.85,2.85,0,0,1,2.11,2.87,2.71,2.71,0,0,1-.89,2.11A3.35,3.35,0,0,1,327.4,142.06Z"/><path class="cls-1" d="M338.71,142.11a4.94,4.94,0,0,1-3.62-1.49,5.4,5.4,0,0,1,0-7.45,5.13,5.13,0,0,1,7.24,0,5.35,5.35,0,0,1,0,7.43A5,5,0,0,1,338.71,142.11Zm-2.63-2.47a3.63,3.63,0,0,0,5.26,0,4,4,0,0,0,0-5.49,3.63,3.63,0,0,0-5.26,0,4,4,0,0,0,0,5.49Zm1.69-8.83a.68.68,0,0,1-1,0,.84.84,0,0,1,0-1.09.68.68,0,0,1,1,0,.81.81,0,0,1,0,1.09Zm2.79,0a.65.65,0,0,1-.5.22.63.63,0,0,1-.5-.22.76.76,0,0,1-.2-.55.76.76,0,0,1,.2-.54.63.63,0,0,1,.5-.22.65.65,0,0,1,.5.22.84.84,0,0,1,0,1.09Z"/><path class="cls-1" d="M347.35,141.93V131.88h1l5.44,6.92v-6.92h1.41v10.05h-.78l-5.64-7.18v7.18Z"/><path class="cls-1" d="M359.38,141.93V131.88h2.69a5.06,5.06,0,0,1,3.51,8.62,4.9,4.9,0,0,1-3.56,1.43Zm2.74-8.71h-1.34v7.37h1.38a3.26,3.26,0,0,0,2.48-1.08,3.72,3.72,0,0,0,1-2.63,3.6,3.6,0,0,0-1-2.61A3.39,3.39,0,0,0,362.12,133.22Z"/><path class="cls-1" d="M369,141.93l4-10.05h1.27l4,10.05h-1.56l-.6-1.55h-4.93l-.62,1.55Zm4.67-7.75L371.75,139h3.86Z"/><path class="cls-1" d="M387.17,137.56v-1.34h3.34v.7a5.15,5.15,0,0,1-5.2,5.17,4.94,4.94,0,0,1-3.67-1.5,5.42,5.42,0,0,1,0-7.42,4.94,4.94,0,0,1,3.67-1.5,5.33,5.33,0,0,1,2.11.42,5,5,0,0,1,1.73,1.16l-1,1.06a3.57,3.57,0,0,0-2.8-1.3,3.51,3.51,0,0,0-2.66,1.13,4,4,0,0,0,0,5.48,3.48,3.48,0,0,0,2.66,1.14,3.6,3.6,0,0,0,2.41-.88,3.85,3.85,0,0,0,1.27-2.32Z"/><path class="cls-1" d="M398.7,141.93V141l4-5.3a2,2,0,0,0,.56-1.28,1.46,1.46,0,0,0-.44-1.07,1.55,1.55,0,0,0-1.13-.43,1.43,1.43,0,0,0-1.11.48,2,2,0,0,0-.46,1.27h-1.4a3,3,0,0,1,.84-2.13,2.8,2.8,0,0,1,2.13-.87,3,3,0,0,1,2.13.78,2.61,2.61,0,0,1,.84,2,3.61,3.61,0,0,1-1.05,2.22l-3.14,4h4.32v1.25Z"/><path class="cls-1" d="M407,139.62v-.88l3.49-6.86h1.47l-3.3,6.5h2.17v-1.69h1.4v1.69h1.21v1.24h-1.21v2.31h-1.4v-2.31Z"/><path class="cls-1" d="M422,141.93V131.88h1l5.44,6.92v-6.92h1.41v10.05h-.78l-5.64-7.18v7.18Z"/><path class="cls-1" d="M438.45,142.11a4.94,4.94,0,0,1-3.62-1.49,5.38,5.38,0,0,1,0-7.45,5.12,5.12,0,0,1,7.23,0,5.35,5.35,0,0,1,0,7.43A4.92,4.92,0,0,1,438.45,142.11Zm-2.63-2.47a3.63,3.63,0,0,0,5.26,0,4,4,0,0,0,0-5.49,3.61,3.61,0,0,0-5.25,0,4,4,0,0,0,0,5.49Z"/><path class="cls-1" d="M449.47,141.93l-3.92-10.05h1.58l3,7.72,3-7.72h1.55l-3.93,10.05Z"/><path class="cls-1" d="M463,137.52h-4.13v3.07h4.42v1.34h-5.83V131.88h5.75v1.34h-4.34v3H463Z"/><path class="cls-1" d="M466.78,141.93V131.88h1.44l3.24,5.35,3.29-5.35h1.38v10.05h-1.41V134.5l0,0-3.24,5.2-3.17-5.12h-.09v7.38Z"/><path class="cls-1" d="M480.26,141.93V131.88h3.08a3.23,3.23,0,0,1,2.21.77,2.6,2.6,0,0,1,.87,2,2.37,2.37,0,0,1-1.19,2.16,2.65,2.65,0,0,1,1.08.9,2.36,2.36,0,0,1,.4,1.36,2.58,2.58,0,0,1-.88,2.05,3.25,3.25,0,0,1-2.24.78Zm2.93-8.71h-1.52v3.05h1.78a1.55,1.55,0,0,0,1.12-.44,1.58,1.58,0,0,0,.45-1.16,1.3,1.3,0,0,0-.5-1.06A2.12,2.12,0,0,0,483.19,133.22Zm.32,4.3h-1.84v3.07h1.74a2.12,2.12,0,0,0,1.39-.43,1.43,1.43,0,0,0,.51-1.15,1.39,1.39,0,0,0-.47-1.08A2,2,0,0,0,483.51,137.52Z"/><path class="cls-1" d="M495.77,137.52h-4.13v3.07h4.42v1.34h-5.83V131.88H496v1.34h-4.34v3h4.13Z"/><path class="cls-1" d="M499.54,141.93V131.88h3.73a3.13,3.13,0,0,1,2.26.87,3,3,0,0,1,.91,2.27,3,3,0,0,1-.75,2.1,2.94,2.94,0,0,1-1.92,1l2.91,3.83H505l-2.89-3.84h-1.12v3.84Zm3.54-8.71h-2.14v3.62h2.13a2,2,0,0,0,1.42-.49,1.82,1.82,0,0,0,0-2.61A2,2,0,0,0,503.08,133.22Z"/><path class="cls-1" d="M515.4,141.93V131.88h1.4v4.76l4.19-4.76h1.89l-3.55,4,3.64,6.07h-1.75L518.3,137l-1.5,1.68v3.23Z"/><path class="cls-1" d="M526,141.93V131.88h1.41v8.71h4.13v1.34Z"/><path class="cls-1" d="M541.22,141.93v-8.26l-1.89,1v-1.34l2.67-1.47h.62v10.11Z"/><path class="cls-1" d="M545.86,141.93V141l4-5.3a2,2,0,0,0,.55-1.28,1.46,1.46,0,0,0-.43-1.07,1.55,1.55,0,0,0-1.13-.43,1.43,1.43,0,0,0-1.11.48,2,2,0,0,0-.46,1.27h-1.4a3,3,0,0,1,.83-2.13,2.84,2.84,0,0,1,2.14-.87,3,3,0,0,1,2.13.78,2.61,2.61,0,0,1,.84,2,3.61,3.61,0,0,1-1.05,2.22l-3.14,4H552v1.25Z"/><path class="cls-1" d="M554.83,137.54V136.3h3.92v1.24Z"/><path class="cls-1" d="M562.56,141.93v-8.26l-1.88,1v-1.34l2.67-1.47H564v10.11Z"/><path class="cls-1" d="M567.13,139.62v-.88l3.49-6.86h1.47l-3.3,6.5H571v-1.69h1.41v1.69h1.21v1.24h-1.21v2.31H571v-2.31Z"/></svg>