<svg id="Layer_1" data-name="Layer 1" xmlns="http://www.w3.org/2000/svg" viewBox="0 0 740 160"><defs><style>.cls-1{fill:#d80201;}</style></defs><title>text</title><path class="cls-1" d="M321,47.17,319.06,33.6,313,47.46H311.8L306,33.6l-2.21,13.56h-4.32l4.09-22.41h2.94l6,14.39,6.27-14.39h2.94l3.66,22.41Z"/><path class="cls-1" d="M336.05,47.63c-4.55,0-8.18-2.84-8.18-7.59s3.63-7.62,8.22-7.62,8.12,2.87,8.12,7.59S340.57,47.63,336.05,47.63ZM332.59,30.2a2.38,2.38,0,1,1,0-4.75,2.38,2.38,0,0,1,0,4.75ZM336,36a4,4,0,1,0,4.06,4A4,4,0,0,0,336,36Zm3.43-5.81a2.41,2.41,0,0,1-2.38-2.38,2.38,2.38,0,1,1,2.38,2.38Z"/><path class="cls-1" d="M356,47.63a5.63,5.63,0,0,1-4.69-2.34v1.88h-4V22.45h4V34.69a6.07,6.07,0,0,1,4.79-2.28c4.19,0,7,3.56,7,7.56S360.24,47.63,356,47.63ZM354.86,36a4,4,0,1,0,4,4A4,4,0,0,0,354.86,36Z"/><path class="cls-1" d="M366,47.17V22.45h4V47.17Z"/><path class="cls-1" d="M377.2,40.67c.07,2.21,1.12,3.83,3.5,3.83a3.74,3.74,0,0,0,3.4-1.91l3.7.59c-1.25,3.07-3.8,4.46-7,4.46-4.62,0-7.66-3-7.66-7.62s2.9-7.59,7.49-7.59,7.29,3.17,7.29,7.72v.53Zm3.47-5.41a3.24,3.24,0,0,0-3.33,2.87h6.77A3.31,3.31,0,0,0,380.67,35.25Z"/><path class="cls-1" d="M400.3,36.51a3.54,3.54,0,0,0-1.91-.5c-2.71,0-3.43,1.91-3.43,4.29v6.86h-4V32.88h4V35a4.66,4.66,0,0,1,5.91-2.28Z"/><path class="cls-1" d="M413.77,47.17V45.29a5.52,5.52,0,0,1-4.65,2.34c-4.29,0-7-3.56-7-7.66s2.74-7.56,6.93-7.56a6,6,0,0,1,4.75,2.28V32.88h4V47.17ZM410.2,36a4,4,0,1,0,4,4A4,4,0,0,0,410.2,36Z"/><path class="cls-1" d="M425.65,36.31V47.17h-4V36.31h-1.58V32.88h1.58V28h4v4.88h2.8v3.43Z"/><path class="cls-1" d="M446,47.46h-1.85L436.9,32.88h4.49l3.76,8.05,3.76-8.05h4.49Z"/><path class="cls-1" d="M457.29,29.25a2.41,2.41,0,0,1,0-4.82,2.41,2.41,0,0,1,0,4.82Zm-2,17.92V32.88h4V47.17Z"/><path class="cls-1" d="M467.59,47.63a7.6,7.6,0,0,1-5.45-2.38l2.11-2.44a4.64,4.64,0,0,0,3.37,1.68,1.68,1.68,0,0,0,1.82-1.58c0-2.44-6.37-1.22-6.37-6,0-2.9,2.41-4.52,5.12-4.52a7.36,7.36,0,0,1,4.65,1.52l-2,2.34a4,4,0,0,0-2.38-1c-.69,0-1.52.43-1.52,1.22,0,2.08,6.6,1.15,6.6,6C473.56,45.85,470.66,47.63,467.59,47.63Z"/><path class="cls-1" d="M486.17,47.17V39.25c0-1.95-.43-3.43-2.71-3.43-2.47,0-3.07,1.81-3.07,4v7.39h-4V32.88h4v1.75a5.28,5.28,0,0,1,4.49-2.21A5.48,5.48,0,0,1,489,34.13a5.5,5.5,0,0,1,1.12,4v9.08Z"/><path class="cls-1" d="M495.93,29.25a2.41,2.41,0,0,1,0-4.82,2.41,2.41,0,0,1,0,4.82Zm-2,17.92V32.88h4V47.17Z"/><path class="cls-1" d="M511.44,47.17V39.25c0-1.95-.43-3.43-2.71-3.43-2.47,0-3.07,1.81-3.07,4v7.39h-4V32.88h4v1.75a5.28,5.28,0,0,1,4.49-2.21,5.48,5.48,0,0,1,4.16,1.72,5.5,5.5,0,0,1,1.12,4v9.08Z"/><path class="cls-1" d="M532.53,52.35a7.79,7.79,0,0,1-6.07,2.51c-3.66,0-7.2-2.11-7.59-6h4.32a3.18,3.18,0,0,0,3.4,2.61c2.51,0,3.53-1.75,3.53-4.06V45.25a5.94,5.94,0,0,1-4.82,2.38c-4.22,0-6.8-3.4-6.8-7.43s2.64-7.79,7-7.79a5.35,5.35,0,0,1,4.62,2.31V32.88h4V46.64C534.15,48.88,534,50.57,532.53,52.35ZM526.62,36a4,4,0,1,0,4,4A4,4,0,0,0,526.62,36Z"/><path class="cls-1" d="M542.53,47.63a7.6,7.6,0,0,1-5.45-2.38l2.11-2.44a4.64,4.64,0,0,0,3.37,1.68,1.68,1.68,0,0,0,1.82-1.58c0-2.44-6.37-1.22-6.37-6,0-2.9,2.41-4.52,5.12-4.52a7.36,7.36,0,0,1,4.65,1.52l-2,2.34a4,4,0,0,0-2.38-1c-.69,0-1.52.43-1.52,1.22,0,2.08,6.6,1.15,6.6,6C548.5,45.85,545.6,47.63,542.53,47.63Z"/><path class="cls-1" d="M561.11,47.17V39.34c0-2-.43-3.53-2.74-3.53-2.48,0-3,1.91-3,4v7.33h-4V22.45h4V34.72a5.2,5.2,0,0,1,4.49-2.31A5.46,5.46,0,0,1,564,34.16a5.67,5.67,0,0,1,1.12,4v9Z"/><path class="cls-1" d="M575.83,47.63c-3.93,0-6.9-1.75-6.9-6V32.88h4V41c0,1.95.83,3.27,2.9,3.27s2.9-1.32,2.9-3.27V32.88h4v8.75C582.76,45.88,579.75,47.63,575.83,47.63Z"/><path class="cls-1" d="M591.14,47.63a7.6,7.6,0,0,1-5.45-2.38l2.11-2.44a4.64,4.64,0,0,0,3.37,1.68A1.68,1.68,0,0,0,593,42.91c0-2.44-6.37-1.22-6.37-6,0-2.9,2.41-4.52,5.12-4.52a7.36,7.36,0,0,1,4.65,1.52l-2,2.34a4,4,0,0,0-2.38-1c-.69,0-1.52.43-1.52,1.22,0,2.08,6.6,1.15,6.6,6C597.11,45.85,594.21,47.63,591.14,47.63Z"/><path class="cls-1" d="M330.25,85.17,328.3,71.6l-6.07,13.86H321L315.2,71.6,313,85.17h-4.32l4.09-22.41h2.94l6,14.39L328,62.76h2.94l3.66,22.41Z"/><path class="cls-1" d="M349.12,85.66a11.42,11.42,0,0,1-11.75-11.45,11.77,11.77,0,1,1,11.75,11.45Zm0-19.08a7.59,7.59,0,1,0,7.36,7.56A7.47,7.47,0,0,0,349.12,66.59Z"/><path class="cls-1" d="M373,85.73h-2.28l-9.37-22.58h4.69L372,77.94l5.94-14.79h4.65Z"/><path class="cls-1" d="M385.16,85.17v-22h12.18v3.73h-7.89v4.88H397V75.5h-7.59v5.94h7.89v3.73Z"/><path class="cls-1" d="M426.51,72.46h-3.33l-.46,3h3.37l-.56,3.6h-3.37l-1,6.14H417L418,79h-3l-1,6.14h-4.09l1-6.14h-3.4l.56-3.6h3.4l.46-3h-3.37l.56-3.63h3.37l.89-5.68h4.09l-.92,5.68h3l.89-5.68h4.13l-.89,5.68h3.33Zm-10.5,0-.46,3h3l.46-3Z"/><path class="cls-1" d="M435.71,85.73c-4.09,0-7.69-2.64-7.92-6.9h4.32A3.59,3.59,0,1,0,435.84,75a6.39,6.39,0,0,0-.79.07v-3.1a3.57,3.57,0,0,0,.59,0,3,3,0,0,0,.1-6c-1.88,0-2.77,1.16-3,2.9h-4.06c.63-4.16,3.17-6.3,7.36-6.3,3.66,0,6.7,2.18,6.7,6.07a4.91,4.91,0,0,1-2.54,4.69,5.42,5.42,0,0,1,3.37,5.41C443.57,83.25,439.9,85.73,435.71,85.73Z"/><path class="cls-1" d="M455,85.73c-6.07,0-8.52-6.4-8.52-11.55s2.41-11.58,8.52-11.58,8.51,6.37,8.51,11.55S461.15,85.73,455,85.73Zm0-19.34c-3.37,0-4.22,5.21-4.22,7.76S451.68,82,455,82s4.22-5.28,4.22-7.82S458.42,66.39,455,66.39Z"/><path class="cls-1" d="M465,85.17l6.5-7.36c1.78-2,5-5.35,5-8.15a3.29,3.29,0,0,0-3.33-3.27C471,66.39,470,68,469.93,70h-4.59c.3-4.46,3.2-7.43,7.72-7.43,4.13,0,7.76,2.71,7.76,7.06,0,3.07-2,5.58-4,7.69L473,81.44h8v3.73Z"/><path class="cls-1" d="M495.24,67.25a2.41,2.41,0,0,1,0-4.82,2.41,2.41,0,0,1,0,4.82Zm-2,17.92V70.88h4V85.17Z"/><path class="cls-1" d="M517.25,85.17h-7.39v-22h5.45c1.78,0,4,.17,5.38,1.32a5.88,5.88,0,0,1,2,4.52,4.61,4.61,0,0,1-2.41,4.42,5,5,0,0,1,2.87,1.39,5.93,5.93,0,0,1,1.58,4.13C524.71,83.32,521.21,85.17,517.25,85.17ZM515.4,66.65h-1.25v5.68h1.22c1.91,0,3.33-.76,3.33-2.84S517.32,66.65,515.4,66.65Zm.73,8.94h-2V81.7H516c2.11,0,4.29-.5,4.29-3.07S518.18,75.6,516.13,75.6Z"/><path class="cls-1" d="M535.47,85.63c-4.55,0-8.18-2.84-8.18-7.59s3.63-7.62,8.22-7.62,8.12,2.87,8.12,7.59S540,85.63,535.47,85.63Zm0-11.62a4,4,0,1,0,4.06,4A4,4,0,0,0,535.43,74Z"/><path class="cls-1" d="M556,74.51a3.53,3.53,0,0,0-1.91-.5c-2.71,0-3.43,1.91-3.43,4.29v6.86h-4V70.88h4V73a4.66,4.66,0,0,1,5.91-2.28Z"/><path class="cls-1" d="M569.49,85.17V83.29a5.52,5.52,0,0,1-4.65,2.34c-4.29,0-7-3.56-7-7.66s2.74-7.56,6.93-7.56a6,6,0,0,1,4.75,2.28V70.88h4V85.17ZM565.93,74a4,4,0,1,0,4,4A4,4,0,0,0,565.93,74Zm-.56-5.64a3,3,0,0,1,0-5.94,3,3,0,0,1,0,5.94Zm0-4.13a1.16,1.16,0,1,0,1.16,1.16A1.13,1.13,0,0,0,565.37,64.24Z"/><path class="cls-1" d="M581.9,85.63a7.6,7.6,0,0,1-5.45-2.38l2.11-2.44a4.64,4.64,0,0,0,3.37,1.68,1.68,1.68,0,0,0,1.82-1.58c0-2.44-6.37-1.22-6.37-6,0-2.9,2.41-4.52,5.12-4.52a7.37,7.37,0,0,1,4.65,1.52l-2,2.34a4,4,0,0,0-2.38-1c-.69,0-1.52.43-1.52,1.22,0,2.08,6.6,1.16,6.6,6C587.87,83.85,585,85.63,581.9,85.63Z"/></svg>