<svg id="Layer_1" data-name="Layer 1" xmlns="http://www.w3.org/2000/svg" viewBox="0 0 740 160"><defs><style>.cls-1{fill:#d80201;}</style></defs><title>text</title><path class="cls-1" d="M371.07,120.62l-5.46-6.12-.38.38v5.74h-1.48V107.28h1.48V113l5.68-5.72h2l-6.24,6.22,6.44,7.12Z"/><path class="cls-1" d="M374.75,120.62V106h1.42v14.58Z"/><path class="cls-1" d="M379.61,110.2a1,1,0,1,1,1-1A1,1,0,0,1,379.61,110.2Zm-.72,10.42v-8.3h1.42v8.3Z"/><path class="cls-1" d="M386.93,120.86a4.37,4.37,0,1,1,0-8.74,4.57,4.57,0,0,1,2.58.8v1.88a3.31,3.31,0,0,0-2.6-1.38A3,3,0,0,0,384,116.5a2.93,2.93,0,0,0,2.9,3.06,3.36,3.36,0,0,0,2.7-1.44V120A4.48,4.48,0,0,1,386.93,120.86Z"/><path class="cls-1" d="M396.89,120.62l-3.36-3.78-.36.36v3.42h-1.42V106h1.42v9.34l3-3.06h1.9l-3.56,3.52,4.22,4.78Z"/><path class="cls-1" d="M406.07,120.62v-1.16a3.54,3.54,0,0,1-2.88,1.4c-2.48,0-4-2.08-4-4.42a4,4,0,0,1,4-4.32,3.51,3.51,0,0,1,2.9,1.38v-1.18h1.42v8.3Zm-2.68-7.22a2.83,2.83,0,0,0-2.74,3,2.86,2.86,0,0,0,2.74,3.12,2.83,2.83,0,0,0,2.76-3.12A2.8,2.8,0,0,0,403.39,113.4Z"/><path class="cls-1" d="M416.63,113.64v7h-1.42v-7h-.78v-1.32h.78v-3.54a4.77,4.77,0,0,1,.22-1.6,2.31,2.31,0,0,1,2.24-1.38,3.66,3.66,0,0,1,1,.18v1.44a2.56,2.56,0,0,0-.94-.2c-1,0-1.14.78-1.14,1.62v3.48h2.08v1.32Z"/><path class="cls-1" d="M423.85,120.86a4.37,4.37,0,1,1,4.38-4.36A4.34,4.34,0,0,1,423.85,120.86Zm0-7.44a3.07,3.07,0,1,0,2.94,3.08A2.91,2.91,0,0,0,423.83,113.42Zm-1.72-2.8a1,1,0,0,1-1-1,1,1,0,1,1,1,1Zm3.48,0a1,1,0,0,1-1-1,1,1,0,1,1,1,1Z"/><path class="cls-1" d="M434.31,113.76a1.26,1.26,0,0,0-.84-.28,1.54,1.54,0,0,0-.72.18c-.92.5-.92,1.68-.92,2.58v4.38h-1.42v-8.3h1.42v.9a2.22,2.22,0,0,1,1.88-1.1,2.36,2.36,0,0,1,1.28.34Z"/><path class="cls-1" d="M447.65,120.62v-1.16a3.54,3.54,0,0,1-2.88,1.4c-2.48,0-4-2.08-4-4.42a4,4,0,0,1,4-4.32,3.51,3.51,0,0,1,2.9,1.38v-1.18h1.42v8.3ZM445,113.4a2.83,2.83,0,0,0-2.74,3,2.86,2.86,0,0,0,2.74,3.12,2.83,2.83,0,0,0,2.76-3.12A2.8,2.8,0,0,0,445,113.4Z"/><path class="cls-1" d="M453.23,113.64v7h-1.44v-7h-.86v-1.32h.86v-3h1.44v3h1.46v1.32Z"/><path class="cls-1" d="M457.51,113.64v7h-1.44v-7h-.86v-1.32h.86v-3h1.44v3H459v1.32Z"/><path class="cls-1" d="M467.59,120.86a3,3,0,0,1-2.9-2.12l1.24-.52c.34.74.8,1.34,1.68,1.34a1.29,1.29,0,0,0,1.36-1.3c0-1.8-3.74-1.24-3.74-3.82a2.33,2.33,0,0,1,2.42-2.32,2.49,2.49,0,0,1,2.28,1.5l-1.18.62a1.33,1.33,0,0,0-1.16-.82,1,1,0,0,0-1,.92c0,1.46,3.84,1.08,3.84,3.8A2.73,2.73,0,0,1,467.59,120.86Z"/><path class="cls-1" d="M473.31,116.76a2.69,2.69,0,0,0,2.64,2.8,2.86,2.86,0,0,0,2.56-1.72l1.2.66a4.14,4.14,0,0,1-3.8,2.36,4,4,0,0,1-4.1-4.34c0-2.4,1.5-4.4,4-4.4s4,2,4,4.36v.28Zm2.56-3.34a2.55,2.55,0,0,0-2.46,2.14h4.88A2.49,2.49,0,0,0,475.87,113.42Z"/><path class="cls-1" d="M488.41,113.64v7H487v-7h-.86v-1.32H487v-3h1.44v3h1.46v1.32Z"/><path class="cls-1" d="M495.11,120.86a4.37,4.37,0,1,1,4.38-4.36A4.34,4.34,0,0,1,495.11,120.86Zm0-7.44A3.07,3.07,0,1,0,498,116.5,2.91,2.91,0,0,0,495.09,113.42Z"/><path class="cls-1" d="M511.13,120.62v-5c0-1.06-.18-2.18-1.5-2.18-1.5,0-1.78,1.4-1.78,2.6v4.62h-1.42V115.7c0-1-.22-2.3-1.52-2.3a1.72,1.72,0,0,0-1.5.9,4,4,0,0,0-.32,1.8v4.52h-1.42v-8.3h1.42v.88a2.37,2.37,0,0,1,2.06-1.08,2.53,2.53,0,0,1,2.28,1.34,2.83,2.83,0,0,1,4.66-.22,3.88,3.88,0,0,1,.46,2.12v5.26Z"/><path class="cls-1" d="M516.71,113.64v7h-1.44v-7h-.86v-1.32h.86v-3h1.44v3h1.46v1.32Z"/><path class="cls-1" d="M520.51,116.76a2.69,2.69,0,0,0,2.64,2.8,2.86,2.86,0,0,0,2.56-1.72l1.2.66a4.14,4.14,0,0,1-3.8,2.36,4,4,0,0,1-4.1-4.34c0-2.4,1.5-4.4,4-4.4s4,2,4,4.36v.28Zm2.56-3.34a2.55,2.55,0,0,0-2.46,2.14h4.88A2.49,2.49,0,0,0,523.07,113.42Z"/><path class="cls-1" d="M533.07,113.76a1.26,1.26,0,0,0-.84-.28,1.54,1.54,0,0,0-.72.18c-.92.5-.92,1.68-.92,2.58v4.38h-1.42v-8.3h1.42v.9a2.22,2.22,0,0,1,1.88-1.1,2.36,2.36,0,0,1,1.28.34Z"/><path class="cls-1" d="M364.07,141.62v-5c0-1.06-.18-2.18-1.5-2.18-1.5,0-1.78,1.4-1.78,2.6v4.62h-1.42V136.7c0-1-.22-2.3-1.52-2.3a1.72,1.72,0,0,0-1.5.9,4,4,0,0,0-.32,1.8v4.52h-1.42v-8.3H356v.88a2.37,2.37,0,0,1,2.06-1.08,2.53,2.53,0,0,1,2.28,1.34,2.83,2.83,0,0,1,4.66-.22,3.88,3.88,0,0,1,.46,2.12v5.26Z"/><path class="cls-1" d="M369.17,137.76a2.69,2.69,0,0,0,2.64,2.8,2.86,2.86,0,0,0,2.56-1.72l1.2.66a4.14,4.14,0,0,1-3.8,2.36,4,4,0,0,1-4.1-4.34c0-2.4,1.5-4.4,4-4.4s4,2,4,4.36v.28Zm2.56-3.34a2.55,2.55,0,0,0-2.46,2.14h4.88A2.49,2.49,0,0,0,371.73,134.42Z"/><path class="cls-1" d="M384.17,141.62v-1.16a3.54,3.54,0,0,1-2.88,1.4,4.11,4.11,0,0,1-4-4.4,4.06,4.06,0,0,1,4-4.34,3.56,3.56,0,0,1,2.9,1.38V127h1.42v14.58Zm-2.68-7.2a3.09,3.09,0,1,0,2.76,3A2.78,2.78,0,0,0,381.49,134.42Z"/><path class="cls-1" d="M398.55,141.62v-5c0-1.24-.3-2.16-1.72-2.16-1.86,0-2.1,1.56-2.1,3.06v4.14h-1.42V127h1.42v7.24a2.94,2.94,0,0,1,2.38-1.16,2.89,2.89,0,0,1,2.38,1.14,3.9,3.9,0,0,1,.48,2.22v5.14Z"/><path class="cls-1" d="M408.53,140.82a3.62,3.62,0,0,1-5.08,0,3.4,3.4,0,0,1-.76-2.5v-5h1.42v4.84a3.18,3.18,0,0,0,.26,1.56,2,2,0,0,0,3.22,0,3.22,3.22,0,0,0,.26-1.56v-4.84h1.42v5A3.39,3.39,0,0,1,408.53,140.82Z"/><path class="cls-1" d="M414.23,141.86a3,3,0,0,1-2.9-2.12l1.24-.52c.34.74.8,1.34,1.68,1.34a1.29,1.29,0,0,0,1.36-1.3c0-1.8-3.74-1.24-3.74-3.82a2.33,2.33,0,0,1,2.42-2.32,2.49,2.49,0,0,1,2.28,1.5l-1.18.62a1.33,1.33,0,0,0-1.16-.82,1,1,0,0,0-1,.92c0,1.46,3.84,1.08,3.84,3.8A2.73,2.73,0,0,1,414.23,141.86Z"/><path class="cls-1" d="M420.41,134.64v7H419v-7h-.78v-1.32H419v-3.54a4.77,4.77,0,0,1,.22-1.6,2.31,2.31,0,0,1,2.24-1.38,3.66,3.66,0,0,1,1,.18v1.44a2.56,2.56,0,0,0-.94-.2c-1,0-1.14.78-1.14,1.62v3.48h2.08v1.32Z"/><path class="cls-1" d="M427.63,141.86A4.37,4.37,0,1,1,432,137.5,4.34,4.34,0,0,1,427.63,141.86Zm0-7.44a3.07,3.07,0,1,0,2.94,3.08A2.91,2.91,0,0,0,427.61,134.42Zm-1.72-2.8a1,1,0,0,1-1-1,1,1,0,1,1,1,1Zm3.48,0a1,1,0,0,1-1-1,1,1,0,1,1,1,1Z"/><path class="cls-1" d="M438.09,134.76a1.26,1.26,0,0,0-.84-.28,1.54,1.54,0,0,0-.72.18c-.92.5-.92,1.68-.92,2.58v4.38h-1.42v-8.3h1.42v.9a2.22,2.22,0,0,1,1.88-1.1,2.36,2.36,0,0,1,1.28.34Z"/><path class="cls-1" d="M442.33,141.86a3,3,0,0,1-2.9-2.12l1.24-.52c.34.74.8,1.34,1.68,1.34a1.29,1.29,0,0,0,1.36-1.3c0-1.8-3.74-1.24-3.74-3.82a2.33,2.33,0,0,1,2.42-2.32,2.49,2.49,0,0,1,2.28,1.5l-1.18.62a1.33,1.33,0,0,0-1.16-.82,1,1,0,0,0-1,.92c0,1.46,3.84,1.08,3.84,3.8A2.73,2.73,0,0,1,442.33,141.86Z"/><path class="cls-1" d="M447.09,141.62V127h1.42v14.58Z"/><path class="cls-1" d="M457.57,141.62v-1.16a3.54,3.54,0,0,1-2.88,1.4c-2.48,0-4-2.08-4-4.42a4,4,0,0,1,4-4.32,3.51,3.51,0,0,1,2.9,1.38v-1.18H459v8.3Zm-2.68-7.22a2.83,2.83,0,0,0-2.74,3,2.86,2.86,0,0,0,2.74,3.12,2.83,2.83,0,0,0,2.76-3.12A2.8,2.8,0,0,0,454.89,134.4Z"/><path class="cls-1" d="M468.69,144.7a4,4,0,0,1-3.32,1.54,3.74,3.74,0,0,1-4-3.8h1.42a2.48,2.48,0,0,0,2.64,2.52c2,0,2.66-1.5,2.66-3.28v-1.22a3.75,3.75,0,0,1-2.92,1.38,4.38,4.38,0,0,1,.06-8.72,3.55,3.55,0,0,1,2.86,1.36v-1.16h1.44v8.12A5,5,0,0,1,468.69,144.7Zm-3.34-10.3a2.85,2.85,0,0,0-2.72,3.14,2.8,2.8,0,0,0,2.72,3,3.1,3.1,0,0,0,0-6.16Z"/><path class="cls-1" d="M481.07,141.86a4.37,4.37,0,1,1,4.38-4.36A4.34,4.34,0,0,1,481.07,141.86Zm0-7.44A3.07,3.07,0,1,0,484,137.5,2.91,2.91,0,0,0,481.05,134.42Z"/><path class="cls-1" d="M491.51,141.86a4.37,4.37,0,1,1,0-8.74,4.57,4.57,0,0,1,2.58.8v1.88a3.31,3.31,0,0,0-2.6-1.38,3,3,0,0,0-2.94,3.08,2.93,2.93,0,0,0,2.9,3.06,3.36,3.36,0,0,0,2.7-1.44V141A4.48,4.48,0,0,1,491.51,141.86Z"/><path class="cls-1" d="M501.57,141.62v-5c0-1.24-.3-2.16-1.72-2.16-1.86,0-2.1,1.56-2.1,3.06v4.14h-1.42V127h1.42v7.24a2.94,2.94,0,0,1,2.38-1.16,2.89,2.89,0,0,1,2.38,1.14,3.9,3.9,0,0,1,.48,2.22v5.14Z"/><path class="cls-1" d="M515,141.86a3.58,3.58,0,0,1-2.9-1.4v5.84h-1.42v-13h1.42v1.16a3.59,3.59,0,0,1,2.88-1.36,4.11,4.11,0,0,1,4,4.4A4.06,4.06,0,0,1,515,141.86Zm-.22-7.46a2.86,2.86,0,0,0-2.76,3.12,2.76,2.76,0,1,0,5.5,0A2.86,2.86,0,0,0,514.81,134.4Z"/><path class="cls-1" d="M525.09,134.76a1.26,1.26,0,0,0-.84-.28,1.54,1.54,0,0,0-.72.18c-.92.5-.92,1.68-.92,2.58v4.38h-1.42v-8.3h1.42v.9a2.22,2.22,0,0,1,1.88-1.1,2.36,2.36,0,0,1,1.28.34Z"/><path class="cls-1" d="M527.81,131.2a1,1,0,1,1,1-1A1,1,0,0,1,527.81,131.2Zm-.72,10.42v-8.3h1.42v8.3Z"/><path class="cls-1" d="M533.49,141.86a3,3,0,0,1-2.9-2.12l1.24-.52c.34.74.8,1.34,1.68,1.34a1.29,1.29,0,0,0,1.36-1.3c0-1.8-3.74-1.24-3.74-3.82a2.33,2.33,0,0,1,2.42-2.32,2.49,2.49,0,0,1,2.28,1.5l-1.18.62a1.33,1.33,0,0,0-1.16-.82,1,1,0,0,0-1,.92c0,1.46,3.84,1.08,3.84,3.8A2.73,2.73,0,0,1,533.49,141.86Z"/><path class="cls-1" d="M539.67,141.82a1,1,0,0,1-1-1,1,1,0,1,1,1,1Zm-.72-2.9V128.28h1.44v10.64Z"/></svg>