<svg id="Layer_1" data-name="Layer 1" xmlns="http://www.w3.org/2000/svg" viewBox="0 0 740 160"><defs><style>.cls-1{fill:#d80201;}</style></defs><title>text</title><path class="cls-1" d="M369.37,120.86a4.08,4.08,0,0,1-4.12-3.44l1.44-.4a2.72,2.72,0,0,0,2.72,2.44,2.63,2.63,0,0,0,2.68-2.64c0-3.14-6.16-2.4-6.16-6.32a3.53,3.53,0,0,1,3.74-3.44,3.8,3.8,0,0,1,3.44,2.08l-1.18.78a2.47,2.47,0,0,0-2.28-1.46,2.12,2.12,0,0,0-2.22,2c0,2.76,6.16,2,6.16,6.26A4.11,4.11,0,0,1,369.37,120.86Z"/><path class="cls-1" d="M377.39,113.64v7H376v-7h-.86v-1.32H376v-3h1.44v3h1.46v1.32Z"/><path class="cls-1" d="M384.09,120.86a4.37,4.37,0,1,1,4.38-4.36A4.34,4.34,0,0,1,384.09,120.86Zm0-7.44A3.07,3.07,0,1,0,387,116.5,2.91,2.91,0,0,0,384.07,113.42Z"/><path class="cls-1" d="M393.19,121.16l-4.08-8.84h1.6l2.48,5.58,2.46-5.58h1.6Z"/><path class="cls-1" d="M405.11,120.62v-1.16a3.54,3.54,0,0,1-2.88,1.4c-2.48,0-4-2.08-4-4.42a4,4,0,0,1,4-4.32,3.51,3.51,0,0,1,2.9,1.38v-1.18h1.42v8.3Zm-2.68-7.22a2.83,2.83,0,0,0-2.74,3,2.86,2.86,0,0,0,2.74,3.12,2.83,2.83,0,0,0,2.76-3.12A2.8,2.8,0,0,0,402.43,113.4Zm-1.66-2.78a1,1,0,0,1-1-1,1,1,0,1,1,1,1Zm3.48,0a1,1,0,0,1-1-1,1,1,0,1,1,1,1Z"/><path class="cls-1" d="M416.23,123.7a4,4,0,0,1-3.32,1.54,3.74,3.74,0,0,1-4-3.8h1.42a2.48,2.48,0,0,0,2.64,2.52c2,0,2.66-1.5,2.66-3.28v-1.22a3.75,3.75,0,0,1-2.92,1.38,4.38,4.38,0,0,1,.06-8.72,3.55,3.55,0,0,1,2.86,1.36v-1.16H417v8.12A5,5,0,0,1,416.23,123.7Zm-3.34-10.3a2.85,2.85,0,0,0-2.72,3.14,2.8,2.8,0,0,0,2.72,3,3.1,3.1,0,0,0,0-6.16Z"/><path class="cls-1" d="M420.71,116.76a2.69,2.69,0,0,0,2.64,2.8,2.86,2.86,0,0,0,2.56-1.72l1.2.66a4.14,4.14,0,0,1-3.8,2.36,4,4,0,0,1-4.1-4.34c0-2.4,1.5-4.4,4-4.4s4,2,4,4.36v.28Zm2.56-3.34a2.55,2.55,0,0,0-2.46,2.14h4.88A2.49,2.49,0,0,0,423.27,113.42Z"/><path class="cls-1" d="M434.59,120.62v-4.9c0-1.3-.18-2.32-1.74-2.32-1.84,0-2.06,1.6-2.06,3.06v4.16h-1.42v-8.3h1.42v1a3,3,0,0,1,4.76-.06,3.8,3.8,0,0,1,.48,2.2v5.16Z"/><path class="cls-1" d="M448.07,120.84a4.59,4.59,0,0,1-4.62-4.52,5.34,5.34,0,0,1,1.1-3.06l4.54-6.3,1.12.84-3.06,4.26a4.2,4.2,0,0,1,1.22-.18,4.34,4.34,0,0,1,4.28,4.4A4.6,4.6,0,0,1,448.07,120.84Zm0-7.64a3.13,3.13,0,1,0,3.12,3.12A3.12,3.12,0,0,0,448.05,113.2Z"/><path class="cls-1" d="M455.15,123.66l-.94-.38,1.64-4.62,1.32.48Z"/><path class="cls-1" d="M477.65,120.62l-1.26-9.28-4.54,9.84-4.48-9.84-1.32,9.28h-1.52l2.22-14.08,5.12,11.26,5.22-11.28,2.08,14.1Z"/><path class="cls-1" d="M488.23,120.62v-1.16a3.54,3.54,0,0,1-2.88,1.4c-2.48,0-4-2.08-4-4.42a4,4,0,0,1,4-4.32,3.51,3.51,0,0,1,2.9,1.38v-1.18h1.42v8.3Zm-2.68-7.22a2.83,2.83,0,0,0-2.74,3,2.86,2.86,0,0,0,2.74,3.12,2.83,2.83,0,0,0,2.76-3.12A2.8,2.8,0,0,0,485.55,113.4Z"/><path class="cls-1" d="M497.59,120.62v-4.9c0-1.3-.18-2.32-1.74-2.32-1.84,0-2.06,1.6-2.06,3.06v4.16h-1.42v-8.3h1.42v1a3,3,0,0,1,4.76-.06,3.8,3.8,0,0,1,.48,2.2v5.16Z"/><path class="cls-1" d="M503.19,113.64v7h-1.44v-7h-.86v-1.32h.86v-3h1.44v3h1.46v1.32Z"/><path class="cls-1" d="M509.89,120.86a4.37,4.37,0,1,1,4.38-4.36A4.34,4.34,0,0,1,509.89,120.86Zm0-7.44a3.07,3.07,0,1,0,2.94,3.08A2.91,2.91,0,0,0,509.87,113.42Z"/><path class="cls-1" d="M520.35,113.76a1.26,1.26,0,0,0-.84-.28,1.54,1.54,0,0,0-.72.18c-.92.5-.92,1.68-.92,2.58v4.38h-1.42v-8.3h1.42v.9a2.22,2.22,0,0,1,1.88-1.1,2.36,2.36,0,0,1,1.28.34Z"/><path class="cls-1" d="M526.67,120.86a3.58,3.58,0,0,1-2.9-1.4v5.84h-1.42v-13h1.42v1.16a3.59,3.59,0,0,1,2.88-1.36,4.11,4.11,0,0,1,4,4.4A4.07,4.07,0,0,1,526.67,120.86Zm-.22-7.46a2.86,2.86,0,0,0-2.76,3.12,2.76,2.76,0,1,0,5.5,0A2.86,2.86,0,0,0,526.45,113.4Z"/><path class="cls-1" d="M352.49,141.86a4.08,4.08,0,0,1-4.12-3.44l1.44-.4a2.72,2.72,0,0,0,2.72,2.44,2.63,2.63,0,0,0,2.68-2.64c0-3.14-6.16-2.4-6.16-6.32a3.53,3.53,0,0,1,3.74-3.44,3.8,3.8,0,0,1,3.44,2.08l-1.18.78a2.47,2.47,0,0,0-2.28-1.46,2.12,2.12,0,0,0-2.22,2c0,2.76,6.16,2,6.16,6.26A4.11,4.11,0,0,1,352.49,141.86Z"/><path class="cls-1" d="M362.93,141.86a4.37,4.37,0,1,1,4.38-4.36A4.34,4.34,0,0,1,362.93,141.86Zm0-7.44a3.07,3.07,0,1,0,2.94,3.08A2.91,2.91,0,0,0,362.91,134.42Zm-1.72-2.8a1,1,0,0,1-1-1,1,1,0,1,1,1,1Zm3.48,0a1,1,0,0,1-1-1,1,1,0,1,1,1,1Z"/><path class="cls-1" d="M374.71,141.62v-4.9c0-1.3-.18-2.32-1.74-2.32-1.84,0-2.06,1.6-2.06,3.06v4.16h-1.42v-8.3h1.42v1a3,3,0,0,1,4.76-.06,3.8,3.8,0,0,1,.48,2.2v5.16Z"/><path class="cls-1" d="M385.21,141.62v-1.16a3.54,3.54,0,0,1-2.88,1.4,4.11,4.11,0,0,1-4-4.4,4.07,4.07,0,0,1,4-4.34,3.56,3.56,0,0,1,2.9,1.38V127h1.42v14.58Zm-2.68-7.2a3.09,3.09,0,1,0,2.76,3A2.78,2.78,0,0,0,382.53,134.42Z"/><path class="cls-1" d="M395.69,141.62v-1.16a3.54,3.54,0,0,1-2.88,1.4c-2.48,0-4-2.08-4-4.42a4,4,0,0,1,4-4.32,3.51,3.51,0,0,1,2.9,1.38v-1.18h1.42v8.3ZM393,134.4a2.83,2.83,0,0,0-2.74,3,2.86,2.86,0,0,0,2.74,3.12,2.83,2.83,0,0,0,2.76-3.12A2.8,2.8,0,0,0,393,134.4Z"/><path class="cls-1" d="M406.81,144.7a4,4,0,0,1-3.32,1.54,3.74,3.74,0,0,1-4-3.8h1.42a2.48,2.48,0,0,0,2.64,2.52c2,0,2.66-1.5,2.66-3.28v-1.22a3.75,3.75,0,0,1-2.92,1.38,4.38,4.38,0,0,1,.06-8.72,3.55,3.55,0,0,1,2.86,1.36v-1.16h1.44v8.12A5,5,0,0,1,406.81,144.7Zm-3.34-10.3a2.85,2.85,0,0,0-2.72,3.14,2.8,2.8,0,0,0,2.72,3,3.1,3.1,0,0,0,0-6.16Z"/><path class="cls-1" d="M419.27,141.62V129.68h-2.22l.78-1.4h2.92v13.34Z"/><path class="cls-1" d="M430.05,141.84a4.63,4.63,0,0,1-4.08-2.38l1.18-.84a3.52,3.52,0,0,0,3,1.84,3.31,3.31,0,0,0,3.3-3.38,3.24,3.24,0,0,0-3.28-3.32,4.71,4.71,0,0,0-2.58.92l1.94-6.4h5.3v1.4h-4.26l-.88,2.84a3.16,3.16,0,0,1,.76-.08,4.42,4.42,0,0,1,4.48,4.62A4.73,4.73,0,0,1,430.05,141.84Z"/><path class="cls-1" d="M449.35,141.62v-1.16a3.54,3.54,0,0,1-2.88,1.4c-2.48,0-4-2.08-4-4.42a4,4,0,0,1,4-4.32,3.51,3.51,0,0,1,2.9,1.38v-1.18h1.42v8.3Zm-2.68-7.22a2.83,2.83,0,0,0-2.74,3,2.86,2.86,0,0,0,2.74,3.12,2.83,2.83,0,0,0,2.76-3.12A2.8,2.8,0,0,0,446.67,134.4Z"/><path class="cls-1" d="M457.81,141.86a3.58,3.58,0,0,1-2.9-1.4v5.84h-1.42v-13h1.42v1.16a3.59,3.59,0,0,1,2.88-1.36,4.11,4.11,0,0,1,4,4.4A4.07,4.07,0,0,1,457.81,141.86Zm-.22-7.46a2.86,2.86,0,0,0-2.76,3.12,2.76,2.76,0,1,0,5.5,0A2.86,2.86,0,0,0,457.59,134.4Z"/><path class="cls-1" d="M467.87,134.76a1.26,1.26,0,0,0-.84-.28,1.54,1.54,0,0,0-.72.18c-.92.5-.92,1.68-.92,2.58v4.38H464v-8.3h1.42v.9a2.22,2.22,0,0,1,1.88-1.1,2.36,2.36,0,0,1,1.28.34Z"/><path class="cls-1" d="M470.59,131.2a1,1,0,1,1,1-1A1,1,0,0,1,470.59,131.2Zm-.72,10.42v-8.3h1.42v8.3Z"/><path class="cls-1" d="M474,141.62V127h1.42v14.58Z"/><path class="cls-1" d="M488.31,141.62,485,137.84l-.36.36v3.42h-1.42V127h1.42v9.34l3-3.06h1.9L486,136.84l4.22,4.78Z"/><path class="cls-1" d="M491.59,141.62V127H493v14.58Z"/><path class="cls-1" d="M504.67,141.62V129.68h-2.22l.78-1.4h2.92v13.34Z"/><path class="cls-1" d="M517.47,137.12l-2.74,3.12h5.6v1.38h-8.62l4.86-5.62c.9-1,2.3-2.54,2.3-4a2.66,2.66,0,0,0-5.32.16H512a5.54,5.54,0,0,1,.28-1.5,4.17,4.17,0,0,1,8,1.36C520.35,134,518.71,135.72,517.47,137.12Z"/><path class="cls-1" d="M522,138v-1.28h3.62V138Z"/><path class="cls-1" d="M531,141.62V129.68h-2.22l.78-1.4h2.92v13.34Z"/><path class="cls-1" d="M545.71,139.44v2.18h-1.48v-2.18h-6.84l8.32-11.9v10.54h1.64v1.36Zm-1.48-7.38-4.22,6h4.22Z"/></svg>