<svg id="Layer_1" data-name="Layer 1" xmlns="http://www.w3.org/2000/svg" viewBox="0 0 740 160"><defs><style>.cls-1{fill:#d80201;}</style></defs><title>text</title><path class="cls-1" d="M403.67,47.73h-2.28L392,25.15h4.69l5.88,14.79,5.94-14.79h4.65Z"/><path class="cls-1" d="M417.1,29.25a2.41,2.41,0,0,1,0-4.82,2.41,2.41,0,0,1,0,4.82Zm-2,17.92V32.88h4V47.17Z"/><path class="cls-1" d="M427.39,47.63a7.6,7.6,0,0,1-5.45-2.38l2.11-2.44a4.64,4.64,0,0,0,3.37,1.68,1.68,1.68,0,0,0,1.82-1.58c0-2.44-6.37-1.22-6.37-6,0-2.9,2.41-4.52,5.12-4.52a7.36,7.36,0,0,1,4.65,1.52l-2,2.34a4,4,0,0,0-2.38-1c-.69,0-1.52.43-1.52,1.22,0,2.08,6.6,1.15,6.6,6C433.37,45.85,430.46,47.63,427.39,47.63Z"/><path class="cls-1" d="M446,47.17V39.25c0-1.95-.43-3.43-2.71-3.43-2.48,0-3.07,1.81-3.07,4v7.39h-4V32.88h4v1.75a5.28,5.28,0,0,1,4.49-2.21,5.48,5.48,0,0,1,4.16,1.72,5.51,5.51,0,0,1,1.12,4v9.08Z"/><path class="cls-1" d="M455.74,29.25a2.41,2.41,0,0,1,0-4.82,2.41,2.41,0,0,1,0,4.82Zm-2,17.92V32.88h4V47.17Z"/><path class="cls-1" d="M471.25,47.17V39.25c0-1.95-.43-3.43-2.71-3.43-2.47,0-3.07,1.81-3.07,4v7.39h-4V32.88h4v1.75A5.28,5.28,0,0,1,470,32.41a5.48,5.48,0,0,1,4.16,1.72,5.5,5.5,0,0,1,1.12,4v9.08Z"/><path class="cls-1" d="M492.34,52.35a7.79,7.79,0,0,1-6.07,2.51c-3.66,0-7.2-2.11-7.59-6H483a3.18,3.18,0,0,0,3.4,2.61c2.51,0,3.53-1.75,3.53-4.06V45.25a5.94,5.94,0,0,1-4.82,2.38c-4.22,0-6.8-3.4-6.8-7.43s2.64-7.79,7-7.79a5.35,5.35,0,0,1,4.62,2.31V32.88h4V46.64C494,48.88,493.86,50.57,492.34,52.35ZM486.43,36a4,4,0,1,0,4,4A4,4,0,0,0,486.43,36Z"/><path class="cls-1" d="M396,67.25a2.41,2.41,0,0,1,0-4.82,2.41,2.41,0,0,1,0,4.82Zm-2,17.92V70.88h4V85.17Z"/><path class="cls-1" d="M419.75,85.17V77.34c0-2-.43-3.53-2.74-3.53-2.48,0-3,1.91-3,4v7.33h-4V60.45h4V72.72a5.2,5.2,0,0,1,4.49-2.31,5.47,5.47,0,0,1,4.16,1.75,5.67,5.67,0,0,1,1.12,4v9Z"/><path class="cls-1" d="M430.91,78.67c.07,2.21,1.12,3.83,3.5,3.83a3.74,3.74,0,0,0,3.4-1.92l3.7.59c-1.25,3.07-3.8,4.46-7,4.46-4.62,0-7.66-3-7.66-7.62s2.9-7.59,7.49-7.59,7.29,3.17,7.29,7.72v.53Zm3.47-5.41A3.24,3.24,0,0,0,431,76.12h6.77A3.31,3.31,0,0,0,434.37,73.25Z"/><path class="cls-1" d="M444.67,85.17V60.45h4V85.17Z"/><path class="cls-1" d="M465.76,90.35a7.79,7.79,0,0,1-6.07,2.51c-3.66,0-7.2-2.11-7.59-6h4.32a3.18,3.18,0,0,0,3.4,2.61c2.51,0,3.53-1.75,3.53-4.06V83.25a5.94,5.94,0,0,1-4.82,2.38c-4.22,0-6.8-3.4-6.8-7.43s2.64-7.79,7-7.79a5.35,5.35,0,0,1,4.62,2.31V70.88h4V84.64C467.37,86.88,467.28,88.57,465.76,90.35ZM459.85,74a4,4,0,1,0,4,4A4,4,0,0,0,459.85,74Z"/><path class="cls-1" d="M474.53,78.67c.07,2.21,1.12,3.83,3.5,3.83a3.74,3.74,0,0,0,3.4-1.92l3.7.59c-1.25,3.07-3.8,4.46-7,4.46-4.62,0-7.66-3-7.66-7.62s2.9-7.59,7.49-7.59,7.29,3.17,7.29,7.72v.53ZM478,73.25a3.24,3.24,0,0,0-3.33,2.87h6.77A3.31,3.31,0,0,0,478,73.25Z"/><path class="cls-1" d="M498.06,85.17V77.25c0-1.95-.43-3.43-2.71-3.43-2.48,0-3.07,1.82-3.07,4v7.39h-4V70.88h4v1.75a5.28,5.28,0,0,1,4.49-2.21,4.94,4.94,0,0,1,5.28,5.68v9.08Z"/></svg>