<svg id="Layer_1" data-name="Layer 1" xmlns="http://www.w3.org/2000/svg" viewBox="0 0 740 160"><defs><style>.cls-1{fill:#d80201;}</style></defs><title>text</title><path class="cls-1" d="M420.56,47.17V37.36h-9.31v9.81H407v-22h4.29v8.52h9.31V25.15h4.29v22Z"/><path class="cls-1" d="M440.19,47.17V45.29a5.52,5.52,0,0,1-4.65,2.34c-4.29,0-7-3.57-7-7.66s2.74-7.56,6.93-7.56a6,6,0,0,1,4.75,2.28V32.88h4V47.17Zm-6.9-17a2.38,2.38,0,0,1,0-4.75,2.38,2.38,0,1,1,0,4.75ZM436.63,36a4,4,0,1,0,4,4A4,4,0,0,0,436.63,36Zm3.53-5.81a2.41,2.41,0,0,1-2.38-2.37,2.38,2.38,0,1,1,2.38,2.37Z"/><path class="cls-1" d="M457.38,36.51a3.46,3.46,0,0,0-1.91-.5c-2.71,0-3.43,1.92-3.43,4.29v6.87h-4V32.88h4V35a4.58,4.58,0,0,1,4.16-2.61,4.64,4.64,0,0,1,1.75.33Z"/><path class="cls-1" d="M479.1,47.17V45.29a5.52,5.52,0,0,1-4.66,2.34c-4.29,0-7-3.57-7-7.66s2.74-7.56,6.94-7.56a6,6,0,0,1,4.75,2.28V32.88h4V47.17Zm-6.9-17a2.38,2.38,0,1,1,0-4.75,2.38,2.38,0,1,1,0,4.75ZM475.53,36a4,4,0,1,0,4,4A4,4,0,0,0,475.53,36Zm3.53-5.81a2.41,2.41,0,0,1-2.37-2.37,2.38,2.38,0,1,1,2.37,2.37Z"/><path class="cls-1" d="M496.29,36.51a3.46,3.46,0,0,0-1.91-.5c-2.71,0-3.44,1.92-3.44,4.29v6.87h-4V32.88h4V35a4.66,4.66,0,0,1,5.91-2.28Z"/><path class="cls-1" d="M379.42,82.66a11.71,11.71,0,0,1-7.88,2.51H365.3v-22h6.27c6.53,0,11.85,4.16,11.85,11A11,11,0,0,1,379.42,82.66Zm-2.8-14c-1.68-1.51-3.7-1.78-5.88-1.78h-1.15V81.44h1.15c2.18,0,4.2-.27,5.88-1.75a7.58,7.58,0,0,0,0-11Z"/><path class="cls-1" d="M396.09,74.51a3.5,3.5,0,0,0-1.92-.5c-2.7,0-3.43,1.92-3.43,4.29v6.87h-4V70.88h4V73a4.66,4.66,0,0,1,5.91-2.28Z"/><path class="cls-1" d="M406.05,85.63c-4.55,0-8.18-2.84-8.18-7.59s3.63-7.63,8.22-7.63,8.12,2.88,8.12,7.59S410.57,85.63,406.05,85.63ZM402.59,68.2a2.38,2.38,0,1,1,0-4.75,2.38,2.38,0,0,1,0,4.75ZM406,74a4,4,0,1,0,4.06,4A4.05,4.05,0,0,0,406,74Zm3.43-5.81a2.41,2.41,0,0,1-2.37-2.37,2.38,2.38,0,1,1,2.37,2.37Z"/><path class="cls-1" d="M435.52,85.17V77.34c0-1.68-.26-3.53-2.37-3.53-2.35,0-2.74,2.15-2.74,4v7.33h-4V77.58a6.52,6.52,0,0,0-.29-2.38A2.32,2.32,0,0,0,424,73.81a2.61,2.61,0,0,0-2.24,1.29,5.92,5.92,0,0,0-.46,2.74v7.33h-4V70.88h4v1.61a5.48,5.48,0,0,1,4.35-2.08A4.88,4.88,0,0,1,430.08,73a5.29,5.29,0,0,1,4.68-2.61,4.71,4.71,0,0,1,4,2,6.3,6.3,0,0,1,.76,3.47v9.24Z"/><path class="cls-1" d="M443.34,85.17V60.45h4V85.17Z"/><path class="cls-1" d="M462.09,85.17V83.29a5.54,5.54,0,0,1-4.66,2.34c-4.29,0-7-3.57-7-7.66s2.74-7.56,6.93-7.56a6,6,0,0,1,4.76,2.28V70.88h4V85.17Zm-6.9-17a2.38,2.38,0,1,1,0-4.75,2.38,2.38,0,1,1,0,4.75ZM458.52,74a4,4,0,1,0,4,4A4,4,0,0,0,458.52,74Zm3.53-5.81a2.41,2.41,0,0,1-2.37-2.37,2.38,2.38,0,1,1,2.37,2.37Z"/><path class="cls-1" d="M483.21,90.35a7.81,7.81,0,0,1-6.08,2.51c-3.66,0-7.19-2.12-7.59-6h4.33a3.18,3.18,0,0,0,3.4,2.61c2.5,0,3.53-1.75,3.53-4.06V83.25A6,6,0,0,1,476,85.63c-4.23,0-6.8-3.4-6.8-7.43s2.64-7.79,7-7.79a5.38,5.38,0,0,1,4.62,2.31V70.88h4V84.64C484.82,86.88,484.73,88.57,483.21,90.35ZM477.3,74a4,4,0,1,0,4,4A4,4,0,0,0,477.3,74Z"/><path class="cls-1" d="M498.42,85.17V77.34c0-2-.43-3.53-2.74-3.53-2.48,0-3,1.92-3,4v7.33h-4V60.45h4V72.72a5.21,5.21,0,0,1,4.49-2.31,5.49,5.49,0,0,1,4.16,1.75,5.68,5.68,0,0,1,1.12,4v9Z"/><path class="cls-1" d="M509.57,78.67c.07,2.21,1.12,3.82,3.5,3.82a3.73,3.73,0,0,0,3.4-1.91l3.7.59c-1.26,3.07-3.8,4.46-7,4.46-4.62,0-7.66-3-7.66-7.63s2.9-7.59,7.49-7.59,7.3,3.17,7.3,7.73v.53ZM513,73.25a3.24,3.24,0,0,0-3.34,2.87h6.77A3.31,3.31,0,0,0,513,73.25Z"/><path class="cls-1" d="M527.36,74.31V85.17h-4V74.31h-1.59V70.88h1.59V66h4v4.89h2.8v3.43Z"/><path class="cls-1" d="M534.45,85.6A2.58,2.58,0,1,1,537,83,2.58,2.58,0,0,1,534.45,85.6Zm-2-6.74V63.15h4.09V78.86Z"/></svg>