<svg id="Layer_1" data-name="Layer 1" xmlns="http://www.w3.org/2000/svg" viewBox="0 0 740 160"><defs><style>.cls-1{fill:#d80201;}</style></defs><title>text</title><path class="cls-1" d="M408.33,47.17,406.39,33.6l-6.08,13.86h-1.19L393.28,33.6l-2.21,13.57h-4.32l4.09-22.41h2.94l6,14.39,6.28-14.39H409l3.67,22.41Z"/><path class="cls-1" d="M423.38,47.63c-4.56,0-8.19-2.84-8.19-7.59s3.63-7.63,8.22-7.63,8.12,2.88,8.12,7.59S427.9,47.63,423.38,47.63ZM419.91,30.2a2.38,2.38,0,0,1,0-4.75,2.38,2.38,0,1,1,0,4.75ZM423.35,36a4,4,0,1,0,4.06,4A4,4,0,0,0,423.35,36Zm3.43-5.81a2.41,2.41,0,0,1-2.38-2.37,2.38,2.38,0,1,1,2.38,2.37Z"/><path class="cls-1" d="M443.28,47.63a5.63,5.63,0,0,1-4.69-2.34v1.88h-4V22.45h4V34.69a6.09,6.09,0,0,1,4.79-2.28c4.19,0,7,3.57,7,7.56S447.57,47.63,443.28,47.63ZM442.19,36a4,4,0,1,0,4,4A4,4,0,0,0,442.19,36Z"/><path class="cls-1" d="M453.37,47.17V22.45h4V47.17Z"/><path class="cls-1" d="M464.53,40.67c.06,2.21,1.12,3.82,3.5,3.82a3.75,3.75,0,0,0,3.4-1.91l3.69.59c-1.25,3.07-3.79,4.46-7,4.46-4.62,0-7.65-3-7.65-7.63s2.9-7.59,7.49-7.59,7.29,3.17,7.29,7.73v.53ZM468,35.25a3.24,3.24,0,0,0-3.33,2.87h6.77A3.32,3.32,0,0,0,468,35.25Z"/><path class="cls-1" d="M487.63,36.51a3.5,3.5,0,0,0-1.92-.5c-2.7,0-3.43,1.92-3.43,4.29v6.87h-4V32.88h4V35a4.66,4.66,0,0,1,5.91-2.28Z"/><path class="cls-1" d="M501.09,47.17V45.29a5.52,5.52,0,0,1-4.65,2.34c-4.29,0-7-3.57-7-7.66s2.74-7.56,6.93-7.56a6,6,0,0,1,4.75,2.28V32.88h4V47.17ZM497.53,36a4,4,0,1,0,4,4A4,4,0,0,0,497.53,36Z"/><path class="cls-1" d="M513,36.31V47.17h-4V36.31h-1.59V32.88H509V28h4v4.89h2.81v3.43Z"/><path class="cls-1" d="M379.26,85.46h-1.85l-7.29-14.58h4.48l3.77,8.05,3.76-8.05h4.49Z"/><path class="cls-1" d="M390.51,67.25a2.41,2.41,0,1,1,0-4.82,2.41,2.41,0,0,1,0,4.82Zm-2,17.92V70.88h4V85.17Z"/><path class="cls-1" d="M400.81,85.63a7.59,7.59,0,0,1-5.45-2.38l2.11-2.44a4.64,4.64,0,0,0,3.37,1.68,1.68,1.68,0,0,0,1.81-1.58c0-2.44-6.37-1.22-6.37-6,0-2.9,2.41-4.52,5.12-4.52a7.32,7.32,0,0,1,4.65,1.52l-2,2.34a4,4,0,0,0-2.37-1c-.7,0-1.52.43-1.52,1.22,0,2.08,6.6,1.16,6.6,6C406.78,83.85,403.88,85.63,400.81,85.63Z"/><path class="cls-1" d="M419.39,85.17V77.25c0-2-.43-3.44-2.71-3.44-2.48,0-3.07,1.82-3.07,4v7.4h-4V70.88h4v1.75a5.28,5.28,0,0,1,4.49-2.22,4.94,4.94,0,0,1,5.28,5.68v9.08Z"/><path class="cls-1" d="M429.15,67.25a2.41,2.41,0,1,1,0-4.82,2.41,2.41,0,0,1,0,4.82Zm-2,17.92V70.88h4V85.17Z"/><path class="cls-1" d="M444.66,85.17V77.25c0-2-.43-3.44-2.7-3.44-2.48,0-3.07,1.82-3.07,4v7.4h-4V70.88h4v1.75a5.28,5.28,0,0,1,4.49-2.22,5,5,0,0,1,5.28,5.68v9.08Z"/><path class="cls-1" d="M465.75,90.35a7.81,7.81,0,0,1-6.07,2.51c-3.67,0-7.2-2.12-7.59-6h4.32a3.19,3.19,0,0,0,3.4,2.61c2.51,0,3.53-1.75,3.53-4.06V83.25a5.94,5.94,0,0,1-4.82,2.38c-4.22,0-6.8-3.4-6.8-7.43s2.64-7.79,7-7.79a5.35,5.35,0,0,1,4.62,2.31V70.88h4V84.64C467.37,86.88,467.27,88.57,465.75,90.35ZM459.84,74a4,4,0,1,0,4,4A4,4,0,0,0,459.84,74Z"/><path class="cls-1" d="M475.75,85.63a7.59,7.59,0,0,1-5.45-2.38l2.11-2.44a4.64,4.64,0,0,0,3.37,1.68,1.69,1.69,0,0,0,1.82-1.58c0-2.44-6.37-1.22-6.37-6,0-2.9,2.4-4.52,5.11-4.52A7.36,7.36,0,0,1,481,71.87l-2,2.34a4,4,0,0,0-2.37-1c-.69,0-1.52.43-1.52,1.22,0,2.08,6.6,1.16,6.6,6C481.72,83.85,478.82,85.63,475.75,85.63Z"/><path class="cls-1" d="M494.33,85.17V77.34c0-2-.43-3.53-2.74-3.53-2.48,0-3,1.92-3,4v7.33h-4V60.45h4V72.72A5.21,5.21,0,0,1,493,70.41a5.49,5.49,0,0,1,4.16,1.75,5.68,5.68,0,0,1,1.12,4v9Z"/><path class="cls-1" d="M509,85.63c-3.92,0-6.89-1.75-6.89-6V70.88h4V79c0,2,.82,3.27,2.9,3.27S512,80.91,512,79V70.88h4v8.74C516,83.88,513,85.63,509,85.63Z"/><path class="cls-1" d="M524.36,85.63a7.59,7.59,0,0,1-5.45-2.38L521,80.81a4.64,4.64,0,0,0,3.37,1.68,1.68,1.68,0,0,0,1.81-1.58c0-2.44-6.37-1.22-6.37-6,0-2.9,2.41-4.52,5.12-4.52a7.32,7.32,0,0,1,4.65,1.52l-2,2.34a4,4,0,0,0-2.37-1c-.7,0-1.52.43-1.52,1.22,0,2.08,6.6,1.16,6.6,6C530.33,83.85,527.43,85.63,524.36,85.63Z"/></svg>