<svg id="Layer_1" data-name="Layer 1" xmlns="http://www.w3.org/2000/svg" viewBox="0 0 740 160"><defs><style>.cls-1{fill:#d80201;}</style></defs><title>text</title><path class="cls-1" d="M333.41,47.17H326v-22h5.45c1.78,0,4,.17,5.38,1.32a5.89,5.89,0,0,1,2,4.52,4.62,4.62,0,0,1-2.41,4.43,5.07,5.07,0,0,1,2.87,1.38,5.91,5.91,0,0,1,1.58,4.13C340.86,45.32,337.37,47.17,333.41,47.17Zm-1.85-18.52H330.3v5.68h1.22c1.92,0,3.34-.76,3.34-2.84S333.47,28.65,331.56,28.65Zm.72,9h-2v6.1h1.85c2.11,0,4.29-.49,4.29-3.07S334.33,37.6,332.28,37.6Z"/><path class="cls-1" d="M347.53,40.67c.06,2.21,1.12,3.82,3.5,3.82a3.75,3.75,0,0,0,3.4-1.91l3.69.59c-1.25,3.07-3.79,4.46-7,4.46-4.62,0-7.65-3-7.65-7.63s2.9-7.59,7.49-7.59,7.29,3.17,7.29,7.73v.53ZM351,35.25a3.24,3.24,0,0,0-3.33,2.87h6.77A3.32,3.32,0,0,0,351,35.25Z"/><path class="cls-1" d="M365.84,47.63a7.59,7.59,0,0,1-5.44-2.38l2.11-2.44a4.62,4.62,0,0,0,3.37,1.68,1.68,1.68,0,0,0,1.81-1.58c0-2.44-6.37-1.22-6.37-6,0-2.9,2.41-4.52,5.12-4.52a7.34,7.34,0,0,1,4.65,1.52l-2,2.34a4,4,0,0,0-2.38-1c-.69,0-1.51.43-1.51,1.22,0,2.08,6.6,1.16,6.6,6C371.82,45.85,368.91,47.63,365.84,47.63Z"/><path class="cls-1" d="M382.08,47.63c-4.56,0-8.19-2.84-8.19-7.59s3.63-7.63,8.22-7.63,8.12,2.88,8.12,7.59S386.6,47.63,382.08,47.63ZM378.61,30.2a2.38,2.38,0,0,1,0-4.75,2.38,2.38,0,1,1,0,4.75ZM382.05,36a4,4,0,1,0,4.06,4A4.05,4.05,0,0,0,382.05,36Zm3.43-5.81a2.41,2.41,0,0,1-2.38-2.37,2.38,2.38,0,1,1,2.38,2.37Z"/><path class="cls-1" d="M403.1,47.17,397.72,41l-.43.43v5.71h-4V22.45h4V38.09l5.35-5.21h5.41l-6.7,6.27,7.23,8Z"/><path class="cls-1" d="M425.87,47.46H424l-7.29-14.58h4.49l3.76,8,3.76-8h4.49Z"/><path class="cls-1" d="M437.12,29.25a2.41,2.41,0,0,1,0-4.82,2.41,2.41,0,0,1,0,4.82Zm-2,17.92V32.88h4V47.17Z"/><path class="cls-1" d="M447.42,47.63A7.59,7.59,0,0,1,442,45.25l2.11-2.44a4.66,4.66,0,0,0,3.37,1.68,1.68,1.68,0,0,0,1.82-1.58c0-2.44-6.37-1.22-6.37-6,0-2.9,2.41-4.52,5.11-4.52a7.36,7.36,0,0,1,4.66,1.52l-2,2.34a4,4,0,0,0-2.38-1c-.69,0-1.52.43-1.52,1.22,0,2.08,6.6,1.16,6.6,6C453.39,45.85,450.49,47.63,447.42,47.63Z"/><path class="cls-1" d="M466,47.17V39.25c0-2-.43-3.44-2.71-3.44-2.47,0-3.07,1.82-3.07,4v7.4h-4V32.88h4v1.75a5.28,5.28,0,0,1,4.49-2.22,5.48,5.48,0,0,1,4.16,1.72,5.52,5.52,0,0,1,1.12,4v9.08Z"/><path class="cls-1" d="M475.76,29.25a2.41,2.41,0,1,1,0-4.82,2.41,2.41,0,0,1,0,4.82Zm-2,17.92V32.88h4V47.17Z"/><path class="cls-1" d="M491.27,47.17V39.25c0-2-.42-3.44-2.7-3.44-2.48,0-3.07,1.82-3.07,4v7.4h-4V32.88h4v1.75A5.28,5.28,0,0,1,490,32.41a5.49,5.49,0,0,1,4.16,1.72,5.52,5.52,0,0,1,1.12,4v9.08Z"/><path class="cls-1" d="M512.36,52.35a7.79,7.79,0,0,1-6.07,2.51c-3.66,0-7.2-2.12-7.59-6H503a3.19,3.19,0,0,0,3.4,2.61c2.51,0,3.53-1.75,3.53-4.06V45.25a5.94,5.94,0,0,1-4.82,2.38c-4.22,0-6.79-3.4-6.79-7.43s2.64-7.79,7-7.79A5.35,5.35,0,0,1,510,34.72V32.88h4V46.64C514,48.88,513.88,50.57,512.36,52.35ZM506.45,36a4,4,0,1,0,4,4A4,4,0,0,0,506.45,36Z"/><path class="cls-1" d="M522.36,47.63a7.59,7.59,0,0,1-5.45-2.38L519,42.81a4.62,4.62,0,0,0,3.36,1.68,1.68,1.68,0,0,0,1.82-1.58c0-2.44-6.37-1.22-6.37-6,0-2.9,2.41-4.52,5.11-4.52a7.36,7.36,0,0,1,4.66,1.52l-2,2.34a4,4,0,0,0-2.38-1c-.69,0-1.52.43-1.52,1.22,0,2.08,6.6,1.16,6.6,6C528.33,45.85,525.43,47.63,522.36,47.63Z"/><path class="cls-1" d="M540.94,47.17V39.34c0-2-.43-3.53-2.74-3.53-2.48,0-3,1.92-3,4v7.33h-4V22.45h4V34.72a5.21,5.21,0,0,1,4.49-2.31,5.49,5.49,0,0,1,4.16,1.75,5.68,5.68,0,0,1,1.12,4v9Z"/><path class="cls-1" d="M555.66,47.63c-3.93,0-6.9-1.75-6.9-6V32.88h4V41c0,1.95.83,3.27,2.91,3.27s2.9-1.32,2.9-3.27V32.88h4v8.74C562.59,45.88,559.58,47.63,555.66,47.63Z"/><path class="cls-1" d="M571,47.63a7.59,7.59,0,0,1-5.45-2.38l2.11-2.44A4.64,4.64,0,0,0,571,44.49a1.69,1.69,0,0,0,1.82-1.58c0-2.44-6.37-1.22-6.37-6,0-2.9,2.4-4.52,5.11-4.52a7.36,7.36,0,0,1,4.66,1.52l-2,2.34a4,4,0,0,0-2.37-1c-.69,0-1.52.43-1.52,1.22,0,2.08,6.6,1.16,6.6,6C576.94,45.85,574,47.63,571,47.63Z"/><path class="cls-1" d="M311.2,85.17,309.25,71.6l-6.07,13.86H302L296.15,71.6l-2.21,13.57h-4.33l4.1-22.41h2.93l6,14.39,6.27-14.39h2.94l3.66,22.41Z"/><path class="cls-1" d="M330.07,85.66a11.42,11.42,0,0,1-11.75-11.45,11.77,11.77,0,1,1,11.75,11.45Zm0-19.07a7.59,7.59,0,1,0,7.36,7.55A7.46,7.46,0,0,0,330.07,66.59Z"/><path class="cls-1" d="M354,85.73h-2.28l-9.37-22.58H347l5.88,14.79,5.94-14.79h4.65Z"/><path class="cls-1" d="M366.11,85.17v-22h12.18v3.73H370.4v4.89H378V75.5H370.4v5.94h7.89v3.73Z"/><path class="cls-1" d="M407.46,72.46h-3.33l-.47,3H407l-.56,3.6H403.1l-1,6.14H398L399,79h-3l-1,6.14h-4.09l1-6.14h-3.4l.56-3.6h3.4l.46-3h-3.36l.56-3.63h3.36l.9-5.68h4.09l-.93,5.68h3l.89-5.68h4.13l-.89,5.68H408Zm-10.5,0-.46,3h3l.46-3Z"/><path class="cls-1" d="M416.66,85.73c-4.09,0-7.69-2.64-7.92-6.9h4.33A3.38,3.38,0,0,0,416.7,82a3.5,3.5,0,0,0,.1-7,7.18,7.18,0,0,0-.8.06v-3.1a3,3,0,0,0,.6,0,3,3,0,0,0,.1-6c-1.88,0-2.78,1.16-3,2.91h-4.06c.63-4.16,3.17-6.31,7.36-6.31,3.67,0,6.7,2.18,6.7,6.07a4.9,4.9,0,0,1-2.54,4.69,5.43,5.43,0,0,1,3.37,5.41C424.52,83.25,420.86,85.73,416.66,85.73Z"/><path class="cls-1" d="M436,85.73c-6.07,0-8.51-6.4-8.51-11.55S429.9,62.59,436,62.59s8.52,6.37,8.52,11.55S442.11,85.73,436,85.73Zm0-19.34c-3.37,0-4.22,5.21-4.22,7.75S432.63,82,436,82s4.23-5.29,4.23-7.83S439.37,66.39,436,66.39Z"/><path class="cls-1" d="M450.45,85.79l-3.43-2,10.07-16.83h-10.2V63.15h17Z"/><path class="cls-1" d="M483,85.63a5.73,5.73,0,0,1-4.79-2.34v9.5h-4V70.88h4v1.81a5.69,5.69,0,0,1,4.69-2.28C487.18,70.41,490,74,490,78S487.22,85.63,483,85.63ZM481.84,74a4,4,0,1,0,4,4A4,4,0,0,0,481.84,74Z"/><path class="cls-1" d="M504,85.17V83.29a5.52,5.52,0,0,1-4.66,2.34c-4.29,0-7-3.57-7-7.66s2.74-7.56,6.93-7.56A6,6,0,0,1,504,72.69V70.88h4V85.17ZM500.38,74a4,4,0,1,0,4,4A4,4,0,0,0,500.38,74Zm-.56-5.64a3,3,0,1,1,0-5.94,3,3,0,1,1,0,5.94Zm0-4.13A1.16,1.16,0,1,0,501,65.4,1.14,1.14,0,0,0,499.82,64.24Z"/><path class="cls-1" d="M520.68,85.17v-22H525v22Z"/><path class="cls-1" d="M539.16,85.17V77.25c0-2-.43-3.44-2.71-3.44-2.47,0-3.07,1.82-3.07,4v7.4h-4V70.88h4v1.75a5.28,5.28,0,0,1,4.49-2.22,4.94,4.94,0,0,1,5.28,5.68v9.08Z"/><path class="cls-1" d="M560.24,90.35a7.78,7.78,0,0,1-6.07,2.51c-3.66,0-7.19-2.12-7.59-6h4.32a3.19,3.19,0,0,0,3.4,2.61c2.51,0,3.54-1.75,3.54-4.06V83.25A6,6,0,0,1,553,85.63c-4.23,0-6.8-3.4-6.8-7.43s2.64-7.79,7-7.79a5.38,5.38,0,0,1,4.63,2.31V70.88h4V84.64C561.86,86.88,561.76,88.57,560.24,90.35ZM554.34,74a4,4,0,1,0,4,4A4,4,0,0,0,554.34,74Z"/><path class="cls-1" d="M576.61,85.17V83.29A5.52,5.52,0,0,1,572,85.63c-4.29,0-7-3.57-7-7.66s2.74-7.56,6.93-7.56a6,6,0,0,1,4.75,2.28V70.88h4V85.17ZM573.05,74a4,4,0,1,0,4,4A4,4,0,0,0,573.05,74Z"/><path class="cls-1" d="M593.8,74.51a3.46,3.46,0,0,0-1.91-.5c-2.71,0-3.43,1.92-3.43,4.29v6.87h-4V70.88h4V73a4.65,4.65,0,0,1,5.9-2.28Z"/><path class="cls-1" d="M603.77,85.63c-4.55,0-8.19-2.84-8.19-7.59s3.64-7.63,8.22-7.63,8.12,2.88,8.12,7.59S608.29,85.63,603.77,85.63ZM600.3,68.2a2.38,2.38,0,0,1,0-4.75,2.38,2.38,0,1,1,0,4.75ZM603.74,74a4,4,0,1,0,4.06,4A4,4,0,0,0,603.74,74Zm3.43-5.81a2.41,2.41,0,0,1-2.38-2.37,2.38,2.38,0,1,1,2.38,2.37Z"/></svg>