<svg id="Layer_1" data-name="Layer 1" xmlns="http://www.w3.org/2000/svg" viewBox="0 0 320 240"><defs><style>.cls-1{fill:#d80201;}</style></defs><title>text</title><path class="cls-1" d="M96.72,191.08a2.24,2.24,0,0,1-2.27-1.89l.79-.22a1.49,1.49,0,0,0,1.5,1.34,1.45,1.45,0,0,0,1.47-1.45c0-1.73-3.39-1.32-3.39-3.48a1.94,1.94,0,0,1,2.06-1.89,2.09,2.09,0,0,1,1.89,1.14l-.65.43a1.36,1.36,0,0,0-1.25-.8,1.16,1.16,0,0,0-1.22,1.12c0,1.52,3.39,1.08,3.39,3.44A2.26,2.26,0,0,1,96.72,191.08Z"/><path class="cls-1" d="M103.17,191l-1.85-2.08-.2.2V191h-.78v-8h.78v5.14l1.66-1.68h1l-2,1.94,2.32,2.63Z"/><path class="cls-1" d="M106.56,191.25l-2.24-4.86h.88l1.36,3.07,1.35-3.07h.88Z"/><path class="cls-1" d="M113,191v-.64a2,2,0,0,1-1.58.77,2.26,2.26,0,0,1-2.2-2.43,2.22,2.22,0,0,1,2.19-2.38,1.93,1.93,0,0,1,1.6.76v-.65h.78V191Zm-1.47-4a1.56,1.56,0,0,0-1.51,1.67,1.58,1.58,0,0,0,1.51,1.72,1.56,1.56,0,0,0,1.52-1.72A1.54,1.54,0,0,0,111.49,187Z"/><path class="cls-1" d="M118.72,191v-.64a2,2,0,0,1-1.58.77,2.26,2.26,0,0,1-2.2-2.42,2.24,2.24,0,0,1,2.19-2.39,2,2,0,0,1,1.6.76v-4.1h.78v8Zm-1.47-4a1.7,1.7,0,1,0,1.52,1.66A1.53,1.53,0,0,0,117.25,187Z"/><path class="cls-1" d="M123.15,187.18a.69.69,0,0,0-.46-.15.85.85,0,0,0-.4.1c-.51.28-.51.92-.51,1.42V191H121v-4.57h.78v.49a1.22,1.22,0,0,1,1-.6,1.3,1.3,0,0,1,.7.19Z"/><path class="cls-1" d="M126.2,191.08a2.4,2.4,0,1,1,2.41-2.4A2.39,2.39,0,0,1,126.2,191.08Zm0-4.09a1.69,1.69,0,1,0,1.62,1.69A1.6,1.6,0,0,0,126.19,187Z"/><path class="cls-1" d="M132.68,191v-2.7c0-.72-.1-1.28-1-1.28-1,0-1.13.88-1.13,1.68V191h-.78v-4.57h.78v.55a1.65,1.65,0,0,1,2.62,0,2.09,2.09,0,0,1,.26,1.21V191Z"/><path class="cls-1" d="M136.55,191.25l-2.24-4.86h.88l1.36,3.07,1.35-3.07h.88Z"/><path class="cls-1" d="M143.11,191v-.64a2,2,0,0,1-1.58.77,2.26,2.26,0,0,1-2.2-2.43,2.22,2.22,0,0,1,2.19-2.38,1.93,1.93,0,0,1,1.6.76v-.65h.78V191Zm-1.47-4a1.56,1.56,0,0,0-1.51,1.67,1.58,1.58,0,0,0,1.51,1.72,1.56,1.56,0,0,0,1.52-1.72A1.54,1.54,0,0,0,141.64,187Zm-.91-1.53a.56.56,0,0,1-.55-.55.55.55,0,1,1,.55.55Zm1.91,0a.56.56,0,0,1-.55-.55.55.55,0,1,1,.55.55Z"/><path class="cls-1" d="M149.23,192.65a2.22,2.22,0,0,1-1.83.85,2.06,2.06,0,0,1-2.22-2.09H146a1.36,1.36,0,0,0,1.45,1.39c1.1,0,1.46-.83,1.46-1.8v-.67a2.06,2.06,0,0,1-1.61.76,2.41,2.41,0,0,1,0-4.8,2,2,0,0,1,1.57.75v-.64h.79v4.47A2.78,2.78,0,0,1,149.23,192.65ZM147.39,187a1.57,1.57,0,0,0-1.5,1.73,1.54,1.54,0,0,0,1.5,1.66,1.7,1.7,0,0,0,0-3.39Z"/><path class="cls-1" d="M151.69,188.83a1.48,1.48,0,0,0,1.45,1.54,1.57,1.57,0,0,0,1.41-.95l.66.36a2.28,2.28,0,0,1-2.09,1.3,2.41,2.41,0,0,1,0-4.81,2.18,2.18,0,0,1,2.18,2.4v.15ZM153.1,187a1.4,1.4,0,0,0-1.35,1.18h2.68A1.37,1.37,0,0,0,153.1,187Z"/><path class="cls-1" d="M159.32,191v-2.7c0-.72-.1-1.28-1-1.28-1,0-1.13.88-1.13,1.68V191h-.78v-4.57h.78v.55a1.65,1.65,0,0,1,2.62,0,2.09,2.09,0,0,1,.26,1.21V191Z"/><path class="cls-1" d="M167.33,188.48l-1.51,1.72h3.08V191h-4.74l2.67-3.09c.5-.57,1.26-1.4,1.26-2.19a1.46,1.46,0,0,0-2.93.09h-.82a3,3,0,0,1,.15-.83,2.29,2.29,0,0,1,4.41.75C168.92,186.78,168,187.71,167.33,188.48Z"/><path class="cls-1" d="M174.89,187.66l-2.5,3.47-.62-.45,1.69-2.35a2.3,2.3,0,0,1-.67.1,2.37,2.37,0,0,1-2.35-2.41,2.53,2.53,0,0,1,5.06,0A3,3,0,0,1,174.89,187.66ZM173,184.25A1.72,1.72,0,1,0,174.7,186,1.72,1.72,0,0,0,173,184.25Z"/><path class="cls-1" d="M176.87,192.63l-.52-.21.9-2.54.73.26Z"/><path class="cls-1" d="M184.38,191.39l-3-7.78h.89l2.09,5.6,2.08-5.6h.88Z"/><path class="cls-1" d="M191.17,191v-.64a2,2,0,0,1-1.58.77,2.26,2.26,0,0,1-2.2-2.43,2.22,2.22,0,0,1,2.19-2.38,1.93,1.93,0,0,1,1.59.76v-.65h.78V191Zm-1.47-4a1.56,1.56,0,0,0-1.51,1.67,1.58,1.58,0,0,0,1.51,1.72,1.56,1.56,0,0,0,1.52-1.72A1.54,1.54,0,0,0,189.69,187Z"/><path class="cls-1" d="M193.44,191v-8h.78v8Z"/><path class="cls-1" d="M195.72,191v-8h.78v8Z"/><path class="cls-1" d="M198.53,188.83a1.48,1.48,0,0,0,1.45,1.54,1.58,1.58,0,0,0,1.41-.95l.66.36a2.28,2.28,0,0,1-2.09,1.3,2.41,2.41,0,0,1,0-4.81,2.18,2.18,0,0,1,2.18,2.4v.15Zm1.41-1.84a1.4,1.4,0,0,0-1.35,1.18h2.68A1.37,1.37,0,0,0,199.94,187Z"/><path class="cls-1" d="M206.16,191v-2.7c0-.72-.1-1.28-1-1.28-1,0-1.13.88-1.13,1.68V191h-.78v-4.57h.78v.55a1.54,1.54,0,0,1,1.32-.66,1.56,1.56,0,0,1,1.3.63,2.09,2.09,0,0,1,.26,1.21V191Z"/><path class="cls-1" d="M209.24,187.11V191h-.79v-3.84H208v-.73h.47v-1.65h.79v1.65h.8v.73Z"/><path class="cls-1" d="M214,190.51a2,2,0,0,1-2.79,0,1.87,1.87,0,0,1-.42-1.37v-2.75h.78V189a1.76,1.76,0,0,0,.14.86,1.08,1.08,0,0,0,1.77,0,1.78,1.78,0,0,0,.14-.86v-2.66h.78v2.75A1.86,1.86,0,0,1,214,190.51Z"/><path class="cls-1" d="M218.79,191v-2.7c0-.72-.1-1.28-1-1.28-1,0-1.13.88-1.13,1.68V191h-.78v-4.57h.78v.55a1.54,1.54,0,0,1,1.32-.66,1.56,1.56,0,0,1,1.3.63,2.09,2.09,0,0,1,.26,1.21V191Z"/><path class="cls-1" d="M224.56,191v-.64a2,2,0,0,1-1.58.77,2.26,2.26,0,0,1-2.2-2.43,2.22,2.22,0,0,1,2.19-2.38,1.93,1.93,0,0,1,1.6.76v-.65h.78V191Zm-1.47-4a1.56,1.56,0,0,0-1.51,1.67,1.58,1.58,0,0,0,1.51,1.72,1.56,1.56,0,0,0,1.52-1.72A1.54,1.54,0,0,0,223.09,187Z"/><path class="cls-1" d="M81.83,206.08a2.24,2.24,0,0,1-2.27-1.89l.79-.22a1.49,1.49,0,0,0,1.5,1.34,1.45,1.45,0,0,0,1.47-1.45c0-1.73-3.39-1.32-3.39-3.48A1.94,1.94,0,0,1,82,198.49a2.09,2.09,0,0,1,1.89,1.14l-.65.43a1.36,1.36,0,0,0-1.25-.8,1.16,1.16,0,0,0-1.22,1.12c0,1.52,3.39,1.08,3.39,3.44A2.26,2.26,0,0,1,81.83,206.08Z"/><path class="cls-1" d="M87.57,206.08a2.4,2.4,0,1,1,2.41-2.4A2.39,2.39,0,0,1,87.57,206.08Zm0-4.09a1.69,1.69,0,1,0,1.62,1.69A1.6,1.6,0,0,0,87.56,202Zm-.95-1.54a.56.56,0,0,1-.55-.55.55.55,0,1,1,.55.55Zm1.91,0a.56.56,0,0,1-.55-.55.55.55,0,1,1,.55.55Z"/><path class="cls-1" d="M94.05,206v-2.7c0-.72-.1-1.28-1-1.28-1,0-1.13.88-1.13,1.68V206h-.78v-4.57H92v.55a1.65,1.65,0,0,1,2.62,0,2.09,2.09,0,0,1,.26,1.21V206Z"/><path class="cls-1" d="M99.83,206v-.64a2,2,0,0,1-1.58.77,2.26,2.26,0,0,1-2.2-2.42,2.24,2.24,0,0,1,2.19-2.39,2,2,0,0,1,1.6.76v-4.1h.78v8Zm-1.47-4a1.7,1.7,0,1,0,1.52,1.66A1.53,1.53,0,0,0,98.35,202Z"/><path class="cls-1" d="M105.59,206v-.64a2,2,0,0,1-1.58.77,2.26,2.26,0,0,1-2.2-2.43,2.22,2.22,0,0,1,2.19-2.38,1.93,1.93,0,0,1,1.6.76v-.65h.78V206Zm-1.47-4a1.56,1.56,0,0,0-1.51,1.67,1.58,1.58,0,0,0,1.51,1.72,1.56,1.56,0,0,0,1.52-1.72A1.54,1.54,0,0,0,104.12,202Z"/><path class="cls-1" d="M111.71,207.65a2.22,2.22,0,0,1-1.83.85,2.06,2.06,0,0,1-2.22-2.09h.78a1.36,1.36,0,0,0,1.45,1.39c1.1,0,1.46-.83,1.46-1.8v-.67a2.06,2.06,0,0,1-1.61.76,2.41,2.41,0,0,1,0-4.8,2,2,0,0,1,1.57.75v-.64h.79v4.47A2.78,2.78,0,0,1,111.71,207.65ZM109.87,202a1.57,1.57,0,0,0-1.5,1.73,1.54,1.54,0,0,0,1.5,1.66,1.7,1.7,0,0,0,0-3.39Z"/><path class="cls-1" d="M119.36,203.48l-1.51,1.72h3.08V206h-4.74l2.67-3.09c.5-.57,1.27-1.4,1.27-2.19a1.46,1.46,0,0,0-2.93.09h-.82a3,3,0,0,1,.15-.83,2.29,2.29,0,0,1,4.41.75C120.95,201.78,120,202.71,119.36,203.48Z"/><path class="cls-1" d="M126.92,202.66l-2.5,3.47-.62-.45,1.69-2.35a2.29,2.29,0,0,1-.67.1,2.37,2.37,0,0,1-2.35-2.41,2.53,2.53,0,0,1,5.06,0A3,3,0,0,1,126.92,202.66ZM125,199.25a1.72,1.72,0,1,0,1.73,1.73A1.72,1.72,0,0,0,125,199.25Z"/><path class="cls-1" d="M135.1,206v-.64a2,2,0,0,1-1.58.77,2.26,2.26,0,0,1-2.2-2.43,2.22,2.22,0,0,1,2.19-2.38,1.93,1.93,0,0,1,1.6.76v-.65h.78V206Zm-1.47-4a1.56,1.56,0,0,0-1.51,1.67,1.58,1.58,0,0,0,1.51,1.72,1.56,1.56,0,0,0,1.52-1.72A1.54,1.54,0,0,0,133.63,202Z"/><path class="cls-1" d="M139.76,206.08a2,2,0,0,1-1.6-.77v3.21h-.78v-7.14h.78V202a2,2,0,0,1,1.58-.75,2.26,2.26,0,0,1,2.2,2.42A2.24,2.24,0,0,1,139.76,206.08Zm-.12-4.1a1.57,1.57,0,0,0-1.52,1.72,1.52,1.52,0,1,0,3,0A1.58,1.58,0,0,0,139.63,202Z"/><path class="cls-1" d="M145.29,202.18a.69.69,0,0,0-.46-.15.85.85,0,0,0-.4.1c-.51.28-.51.92-.51,1.42V206h-.78v-4.57h.78v.49a1.22,1.22,0,0,1,1-.6,1.3,1.3,0,0,1,.7.19Z"/><path class="cls-1" d="M146.78,200.22a.56.56,0,1,1,.56-.56A.56.56,0,0,1,146.78,200.22Zm-.4,5.73v-4.57h.78V206Z"/><path class="cls-1" d="M148.68,206v-8h.78v8Z"/><path class="cls-1" d="M153.32,202.65v-.73h4.77v.73Z"/><path class="cls-1" d="M162.48,203.83a1.48,1.48,0,0,0,1.45,1.54,1.57,1.57,0,0,0,1.41-.95l.66.36a2.28,2.28,0,0,1-2.09,1.3,2.41,2.41,0,0,1,0-4.81,2.18,2.18,0,0,1,2.18,2.4v.15Zm1.41-1.84a1.4,1.4,0,0,0-1.35,1.18h2.68A1.37,1.37,0,0,0,163.89,202Z"/><path class="cls-1" d="M170.11,206v-2.7c0-.72-.1-1.28-1-1.28-1,0-1.13.88-1.13,1.68V206h-.78v-4.57H168v.55a1.65,1.65,0,0,1,2.62,0,2.09,2.09,0,0,1,.26,1.21V206Z"/><path class="cls-1" d="M175.89,206v-.64a2,2,0,0,1-1.58.77,2.26,2.26,0,0,1-2.2-2.42,2.24,2.24,0,0,1,2.19-2.39,2,2,0,0,1,1.6.76v-4.1h.78v8Zm-1.47-4a1.7,1.7,0,1,0,1.52,1.66A1.53,1.53,0,0,0,174.42,202Z"/><path class="cls-1" d="M181.65,206v-.64a2,2,0,0,1-1.58.77,2.26,2.26,0,0,1-2.2-2.43,2.22,2.22,0,0,1,2.19-2.38,1.93,1.93,0,0,1,1.6.76v-.65h.78V206Zm-1.47-4a1.56,1.56,0,0,0-1.51,1.67,1.58,1.58,0,0,0,1.51,1.72,1.56,1.56,0,0,0,1.52-1.72A1.54,1.54,0,0,0,180.18,202Z"/><path class="cls-1" d="M185.16,206.08a1.63,1.63,0,0,1-1.59-1.17l.68-.29c.19.41.44.74.92.74a.71.71,0,0,0,.75-.72c0-1-2.06-.68-2.06-2.1a1.28,1.28,0,0,1,1.33-1.28,1.37,1.37,0,0,1,1.25.83l-.65.34a.73.73,0,0,0-.64-.45.54.54,0,0,0-.55.51c0,.8,2.11.59,2.11,2.09A1.5,1.5,0,0,1,185.16,206.08Z"/><path class="cls-1" d="M188.57,202.11V206h-.79v-3.84h-.47v-.73h.47v-1.65h.79v1.65h.8v.73Z"/><path class="cls-1" d="M193.66,202.11V206h-.78v-3.84h-.43v-.73h.43v-1.95a2.63,2.63,0,0,1,.12-.88,1.27,1.27,0,0,1,1.23-.76,2,2,0,0,1,.57.1v.79a1.42,1.42,0,0,0-.52-.11c-.57,0-.63.43-.63.89v1.92h1.14v.73Z"/><path class="cls-1" d="M197.64,206.08a2.4,2.4,0,1,1,2.41-2.4A2.39,2.39,0,0,1,197.64,206.08Zm0-4.09a1.69,1.69,0,1,0,1.62,1.69A1.6,1.6,0,0,0,197.62,202Zm-.95-1.54a.56.56,0,0,1-.55-.55.55.55,0,1,1,.55.55Zm1.92,0a.56.56,0,0,1-.55-.55.55.55,0,1,1,.55.55Z"/><path class="cls-1" d="M203.39,202.18a.69.69,0,0,0-.46-.15.85.85,0,0,0-.4.1c-.51.28-.51.92-.51,1.42V206h-.78v-4.57H202v.49a1.22,1.22,0,0,1,1-.6,1.3,1.3,0,0,1,.7.19Z"/><path class="cls-1" d="M207.86,206v-.64a2,2,0,0,1-1.58.77,2.26,2.26,0,0,1-2.2-2.43,2.22,2.22,0,0,1,2.19-2.38,1.93,1.93,0,0,1,1.59.76v-.65h.78V206Zm-1.47-4a1.56,1.56,0,0,0-1.51,1.67,1.58,1.58,0,0,0,1.51,1.72,1.56,1.56,0,0,0,1.52-1.72A1.54,1.54,0,0,0,206.38,202Z"/><path class="cls-1" d="M213,206v-2.7c0-.72-.1-1.28-1-1.28-1,0-1.13.88-1.13,1.68V206h-.78v-4.57h.78v.55a1.54,1.54,0,0,1,1.32-.66,1.56,1.56,0,0,1,1.3.63,2.09,2.09,0,0,1,.26,1.21V206Z"/><path class="cls-1" d="M220.49,206v-2.77c0-.58-.1-1.2-.82-1.2s-1,.77-1,1.43V206h-.78v-2.71c0-.57-.12-1.26-.84-1.26a1,1,0,0,0-.83.5,2.17,2.17,0,0,0-.18,1V206h-.78v-4.57h.78v.48a1.3,1.3,0,0,1,1.13-.59,1.39,1.39,0,0,1,1.25.74,1.56,1.56,0,0,1,2.56-.12,2.13,2.13,0,0,1,.25,1.17V206Z"/><path class="cls-1" d="M226.26,206v-.64a2,2,0,0,1-1.58.77,2.26,2.26,0,0,1-2.2-2.43,2.22,2.22,0,0,1,2.19-2.38,1.93,1.93,0,0,1,1.6.76v-.65H227V206Zm-1.47-4a1.56,1.56,0,0,0-1.51,1.67,1.58,1.58,0,0,0,1.51,1.72,1.56,1.56,0,0,0,1.52-1.72A1.54,1.54,0,0,0,224.78,202Zm-.91-1.53a.56.56,0,0,1-.55-.55.55.55,0,1,1,.55.55Zm1.91,0a.56.56,0,0,1-.55-.55.55.55,0,1,1,.55.55Z"/><path class="cls-1" d="M228.53,206v-8h.78v8Z"/><path class="cls-1" d="M234.3,206v-.64a2,2,0,0,1-1.58.77,2.26,2.26,0,0,1-2.2-2.43,2.22,2.22,0,0,1,2.19-2.38,1.93,1.93,0,0,1,1.59.76v-.65h.78V206Zm-1.47-4a1.56,1.56,0,0,0-1.51,1.67,1.58,1.58,0,0,0,1.51,1.72,1.56,1.56,0,0,0,1.52-1.72A1.54,1.54,0,0,0,232.82,202Z"/><path class="cls-1" d="M239.45,206v-2.7c0-.72-.1-1.28-1-1.28-1,0-1.13.88-1.13,1.68V206h-.78v-4.57h.78v.55a1.65,1.65,0,0,1,2.62,0,2.09,2.09,0,0,1,.26,1.21V206Z"/></svg>