<svg id="Layer_1" data-name="Layer 1" xmlns="http://www.w3.org/2000/svg" viewBox="0 0 320 240"><defs><style>.cls-1{fill:#d80201;}</style></defs><title>text</title><path class="cls-1" d="M69.83,139.42a7.54,7.54,0,0,1-6.64-3.68l2.44-2.35A4.44,4.44,0,0,0,69.69,136a2.75,2.75,0,0,0,3-2.73c0-4-8.5-2.09-8.5-8.33,0-3.42,2.76-5.63,6-5.63a8.48,8.48,0,0,1,5.66,2.15l-2,2.58a3.91,3.91,0,0,0-3.13-1.57c-1.25,0-2.7.78-2.7,2.17,0,3.28,8.5,1.65,8.5,8.41C76.56,137,73.66,139.42,69.83,139.42Z"/><path class="cls-1" d="M85.41,139.36c-3.45,0-6.06-1.54-6.06-5.28v-7.69h3.51v7.11c0,1.71.73,2.87,2.55,2.87S88,135.21,88,133.5v-7.11H91.5v7.69C91.5,137.82,88.86,139.36,85.41,139.36Z"/><path class="cls-1" d="M101,139.36a6.62,6.62,0,0,1-6.85-6.64,6.7,6.7,0,0,1,6.9-6.73,6.46,6.46,0,0,1,3.19.75v3.48a4.34,4.34,0,0,0-2.84-1.07,3.53,3.53,0,1,0,0,7,4.28,4.28,0,0,0,2.84-1.07v3.45A6.72,6.72,0,0,1,101,139.36Z"/><path class="cls-1" d="M113.13,139.36a6.62,6.62,0,0,1-6.85-6.64,6.7,6.7,0,0,1,6.9-6.73,6.46,6.46,0,0,1,3.19.75v3.48a4.34,4.34,0,0,0-2.84-1.07,3.53,3.53,0,1,0,0,7,4.28,4.28,0,0,0,2.84-1.07v3.45A6.72,6.72,0,0,1,113.13,139.36Z"/><path class="cls-1" d="M122,133.24c.06,1.94,1,3.37,3.07,3.37a3.29,3.29,0,0,0,3-1.68l3.25.52a6.16,6.16,0,0,1-6.18,3.92c-4.06,0-6.73-2.61-6.73-6.7S120.93,126,125,126s6.41,2.79,6.41,6.79v.46Zm3-4.76a2.85,2.85,0,0,0-2.93,2.52H128A2.91,2.91,0,0,0,125,128.48Zm.06-4.29L123.43,123l3.45-4.38,2.55,1.62Z"/><path class="cls-1" d="M140.45,139.21h-1.62l-6.41-12.82h3.95l3.31,7.08,3.31-7.08h3.95Z"/><path class="cls-1" d="M150.34,123.2a2.12,2.12,0,1,1,0-4.23,2.12,2.12,0,0,1,0,4.23ZM148.57,139V126.39h3.51V139Z"/><path class="cls-1" d="M159.39,139.36a6.68,6.68,0,0,1-4.79-2.09l1.86-2.15a4.08,4.08,0,0,0,3,1.48,1.48,1.48,0,0,0,1.6-1.39c0-2.15-5.6-1.07-5.6-5.31,0-2.55,2.12-4,4.5-4a6.47,6.47,0,0,1,4.09,1.33l-1.74,2.06a3.5,3.5,0,0,0-2.09-.84c-.61,0-1.33.38-1.33,1.07,0,1.83,5.8,1,5.8,5.31C164.64,137.79,162.08,139.36,159.39,139.36Z"/><path class="cls-1" d="M175.71,139v-7c0-1.71-.38-3-2.38-3-2.18,0-2.7,1.6-2.7,3.48V139h-3.51V126.39h3.51v1.54a4.64,4.64,0,0,1,3.94-1.94,4.34,4.34,0,0,1,4.64,5v8Z"/><path class="cls-1" d="M184.3,123.2a2.12,2.12,0,1,1,0-4.23,2.12,2.12,0,0,1,0,4.23ZM182.53,139V126.39H186V139Z"/><path class="cls-1" d="M197.93,139v-7c0-1.71-.38-3-2.38-3-2.18,0-2.7,1.6-2.7,3.48V139h-3.51V126.39h3.51v1.54A4.64,4.64,0,0,1,196.8,126a4.34,4.34,0,0,1,4.64,5v8Z"/><path class="cls-1" d="M216.46,143.51a6.85,6.85,0,0,1-5.34,2.21c-3.22,0-6.32-1.86-6.67-5.28h3.8a2.8,2.8,0,0,0,3,2.29c2.2,0,3.1-1.54,3.1-3.57v-1.89a5.22,5.22,0,0,1-4.23,2.09c-3.71,0-6-3-6-6.53s2.32-6.85,6.15-6.85a4.71,4.71,0,0,1,4.06,2v-1.63h3.54v12.1C217.88,140.46,217.79,141.94,216.46,143.51Zm-5.19-14.36a3.52,3.52,0,1,0,3.51,3.51A3.5,3.5,0,0,0,211.27,129.15Z"/><path class="cls-1" d="M238.09,139V137.3a4.85,4.85,0,0,1-4.09,2.06c-3.77,0-6.18-3.13-6.18-6.73s2.41-6.64,6.09-6.64a5.23,5.23,0,0,1,4.18,2v-1.6h3.54V139Zm-3.13-9.8a3.52,3.52,0,1,0,3.51,3.51A3.5,3.5,0,0,0,235,129.15Z"/><path class="cls-1" d="M251.37,139.21h-1.62l-6.41-12.82h3.95l3.31,7.08,3.31-7.08h3.95Z"/><path class="cls-1" d="M70.12,164.41V174H66.62v-9.54H65.25v-3h1.36v-4a6.12,6.12,0,0,1,.55-3,5,5,0,0,1,4.35-2.52,4.16,4.16,0,0,1,1.86.43v3.22a3.5,3.5,0,0,0-1.6-.46c-1.57,0-1.65,1.62-1.65,2.81v3.51h3.25v3Z"/><path class="cls-1" d="M83.21,164.58a3.11,3.11,0,0,0-1.68-.44c-2.38,0-3,1.68-3,3.77v6H75V161.39h3.51v1.89a4.1,4.1,0,0,1,5.19-2Z"/><path class="cls-1" d="M95,174V172.3a4.85,4.85,0,0,1-4.09,2.06c-3.77,0-6.18-3.13-6.18-6.73S87.18,161,90.86,161A5.23,5.23,0,0,1,95,163v-1.6h3.54V174Zm-3.13-9.8a3.52,3.52,0,1,0,3.51,3.51A3.5,3.5,0,0,0,91.9,164.15Z"/><path class="cls-1" d="M118,174v-6.87c0-1.48-.23-3.1-2.09-3.1-2.06,0-2.41,1.89-2.41,3.54V174H110v-6.67a5.6,5.6,0,0,0-.26-2.09,2,2,0,0,0-1.89-1.22,2.29,2.29,0,0,0-2,1.13,5.22,5.22,0,0,0-.41,2.41V174h-3.51V161.39h3.51v1.42a4.82,4.82,0,0,1,3.83-1.83,4.27,4.27,0,0,1,3.92,2.29,4.64,4.64,0,0,1,4.12-2.29,4.13,4.13,0,0,1,3.51,1.8,5.54,5.54,0,0,1,.67,3V174Z"/><path class="cls-1" d="M128.38,164.41V174h-3.51v-9.54h-1.39v-3h1.39V157.1h3.51v4.29h2.47v3Z"/><path class="cls-1" d="M134.39,158.2a2.12,2.12,0,1,1,0-4.24,2.12,2.12,0,0,1,0,4.24ZM132.62,174V161.39h3.51V174Z"/><path class="cls-1" d="M149,174V172.3a4.85,4.85,0,0,1-4.09,2.06c-3.77,0-6.18-3.13-6.18-6.73s2.41-6.64,6.09-6.64a5.23,5.23,0,0,1,4.18,2V152.23h3.54V174Zm-3.13-9.8a3.52,3.52,0,1,0,3.51,3.51A3.5,3.5,0,0,0,145.9,164.15Z"/><path class="cls-1" d="M158.86,168.24c.06,1.94,1,3.37,3.07,3.37a3.29,3.29,0,0,0,3-1.68l3.25.52a6.16,6.16,0,0,1-6.18,3.92c-4.06,0-6.73-2.61-6.73-6.7s2.55-6.67,6.58-6.67,6.41,2.79,6.41,6.79v.46Zm3-4.76A2.85,2.85,0,0,0,159,166h5.95A2.91,2.91,0,0,0,161.91,163.48Z"/><path class="cls-1" d="M179.54,174v-7c0-1.71-.38-3-2.38-3-2.18,0-2.7,1.6-2.7,3.48V174H171V161.39h3.51v1.54a4.64,4.64,0,0,1,3.94-1.94,4.34,4.34,0,0,1,4.64,5v8Z"/><path class="cls-1" d="M190.41,174.36a6.68,6.68,0,0,1-4.79-2.09l1.86-2.15a4.08,4.08,0,0,0,3,1.48,1.48,1.48,0,0,0,1.6-1.39c0-2.15-5.6-1.07-5.6-5.31,0-2.55,2.12-4,4.5-4a6.47,6.47,0,0,1,4.09,1.33l-1.74,2.06a3.5,3.5,0,0,0-2.09-.84c-.61,0-1.33.38-1.33,1.07,0,1.83,5.8,1,5.8,5.31C195.66,172.79,193.11,174.36,190.41,174.36Z"/><path class="cls-1" d="M211.79,174.21h-1.62l-6.41-12.82h3.95l3.31,7.08,3.31-7.08h3.95Z"/><path class="cls-1" d="M221.68,158.2a2.12,2.12,0,1,1,0-4.24,2.12,2.12,0,0,1,0,4.24ZM219.91,174V161.39h3.51V174Z"/><path class="cls-1" d="M226.72,174V152.23h3.51V174Z"/><path class="cls-1" d="M233.59,174V152.23h3.51V174Z"/><path class="cls-1" d="M250.07,174V172.3a4.85,4.85,0,0,1-4.09,2.06c-3.77,0-6.18-3.13-6.18-6.73s2.41-6.64,6.09-6.64a5.23,5.23,0,0,1,4.18,2v-1.6h3.54V174Zm-3.13-9.8a3.52,3.52,0,1,0,3.51,3.51A3.5,3.5,0,0,0,246.94,164.15Z"/></svg>