<svg id="Layer_1" data-name="Layer 1" xmlns="http://www.w3.org/2000/svg" viewBox="0 0 320 320"><defs><style>.cls-1{fill:#d80201;}</style></defs><title>text</title><path class="cls-1" d="M76.49,151.26H74.07l-9.94-23.94h5L75.33,143l6.3-15.68h4.94Z"/><path class="cls-1" d="M98.43,150.67v-2a5.84,5.84,0,0,1-4.93,2.49C89,151.16,86,147.38,86,143s2.91-8,7.35-8a6.32,6.32,0,0,1,5,2.41v-1.92h4.27v15.16Zm-3.78-11.84a4.26,4.26,0,1,0,4.24,4.24A4.23,4.23,0,0,0,94.65,138.83Z"/><path class="cls-1" d="M106.76,150.67V124.45H111v26.22Z"/><path class="cls-1" d="M119.43,139.15v11.52H115.2V139.15h-1.65v-3.64h1.65v-4.87a7.45,7.45,0,0,1,.66-3.57,6,6,0,0,1,5.25-3,5,5,0,0,1,2.24.52v3.89a4.14,4.14,0,0,0-1.92-.56c-1.89,0-2,2-2,3.39v4.24h3.92v3.64Z"/><path class="cls-1" d="M135.22,139.36a3.72,3.72,0,0,0-2-.53c-2.87,0-3.64,2-3.64,4.56v7.28h-4.24V135.51h4.24v2.27A4.87,4.87,0,0,1,134,135a4.75,4.75,0,0,1,1.85.35Z"/><path class="cls-1" d="M140,131.66a2.56,2.56,0,1,1,0-5.11,2.56,2.56,0,0,1,0,5.11Zm-2.14,19V135.51h4.24v15.16Z"/><path class="cls-1" d="M157.65,150.67v-2a5.84,5.84,0,0,1-4.93,2.49c-4.55,0-7.46-3.78-7.46-8.12s2.91-8,7.35-8a6.32,6.32,0,0,1,5,2.41v-1.92h4.27v15.16Zm-3.78-11.84a4.26,4.26,0,1,0,4.24,4.24A4.23,4.23,0,0,0,153.87,138.83Z"/><path class="cls-1" d="M179,139.15v11.52h-4.23V139.15h-1.69v-3.64h1.69v-5.18H179v5.18h3v3.64Z"/><path class="cls-1" d="M186.24,131.66a2.56,2.56,0,0,1,0-5.11,2.56,2.56,0,0,1,0,5.11Zm-2.13,19V135.51h4.23v15.16Z"/><path class="cls-1" d="M192.33,150.67V124.45h4.24v26.22Z"/><path class="cls-1" d="M200.63,150.67V124.45h4.23v26.22Z"/><path class="cls-1" d="M216.63,151h-2l-7.74-15.47h4.76l4,8.54,4-8.54h4.76Z"/><path class="cls-1" d="M237.31,150.67v-2a5.84,5.84,0,0,1-4.93,2.49c-4.56,0-7.46-3.78-7.46-8.12s2.9-8,7.35-8a6.32,6.32,0,0,1,5,2.41v-1.92h4.27v15.16Zm-3.78-11.84a4.26,4.26,0,1,0,4.24,4.24A4.24,4.24,0,0,0,233.53,138.83Z"/><path class="cls-1" d="M245.64,150.67V124.45h4.23v26.22Z"/><path class="cls-1" d="M65,176.15v11.52H60.77V176.15H59.13v-3.64h1.64v-4.87a7.35,7.35,0,0,1,.67-3.57,6,6,0,0,1,5.25-3,5,5,0,0,1,2.24.52v3.89a4.18,4.18,0,0,0-1.93-.56c-1.89,0-2,2-2,3.39v4.24h3.92v3.64Z"/><path class="cls-1" d="M78.76,188.16c-4.83,0-8.68-3-8.68-8S73.93,172,78.8,172s8.61,3,8.61,8S83.56,188.16,78.76,188.16Zm-3.67-18.49a2.52,2.52,0,0,1,0-5,2.52,2.52,0,0,1,0,5Zm3.64,6.16a4.26,4.26,0,1,0,4.3,4.28A4.29,4.29,0,0,0,78.73,175.83Zm3.64-6.16a2.55,2.55,0,0,1-2.52-2.52,2.52,2.52,0,1,1,2.52,2.52Z"/><path class="cls-1" d="M100.57,176.36a3.72,3.72,0,0,0-2-.53c-2.87,0-3.64,2-3.64,4.56v7.28H90.66V172.51H94.9v2.28A4.86,4.86,0,0,1,99.31,172a4.94,4.94,0,0,1,1.85.35Z"/><path class="cls-1" d="M118.35,188.26a10,10,0,0,1-7.46-3l1.51-3.92a7.82,7.82,0,0,0,5.88,3,4.62,4.62,0,0,0,4.65-4.51c0-2.88-2.66-4.66-5.32-4.66a7.74,7.74,0,0,0-4.48,1.47h-.24l2.76-12.25h10.78v4h-7.7l-.91,3.61a12.48,12.48,0,0,1,1.72-.15,7.84,7.84,0,0,1,7.94,8.16C127.48,185.22,123.35,188.26,118.35,188.26Z"/><path class="cls-1" d="M139.73,188.26c-6.44,0-9-6.79-9-12.25s2.56-12.29,9-12.29,9,6.76,9,12.25S146.21,188.26,139.73,188.26Zm0-20.51c-3.57,0-4.48,5.53-4.48,8.22s.91,8.3,4.48,8.3,4.48-5.6,4.48-8.3S143.3,167.75,139.73,167.75Z"/><path class="cls-1" d="M168.33,188.26c-6.44,0-9-6.79-9-12.25s2.56-12.29,9-12.29,9,6.76,9,12.25S174.8,188.26,168.33,188.26Zm0-20.51c-3.57,0-4.48,5.53-4.48,8.22s.91,8.3,4.48,8.3,4.48-5.6,4.48-8.3S171.9,167.75,168.33,167.75Z"/><path class="cls-1" d="M188.17,188.26c-6.44,0-9-6.79-9-12.25s2.56-12.29,9-12.29,9,6.76,9,12.25S194.65,188.26,188.17,188.26Zm0-20.51c-3.57,0-4.48,5.53-4.48,8.22s.91,8.3,4.48,8.3,4.48-5.6,4.48-8.3S191.74,167.75,188.17,167.75Z"/><path class="cls-1" d="M208,188.26c-6.45,0-9-6.79-9-12.25s2.56-12.29,9-12.29,9,6.76,9,12.25S214.49,188.26,208,188.26Zm0-20.51c-3.58,0-4.48,5.53-4.48,8.22s.9,8.3,4.48,8.3,4.48-5.6,4.48-8.3S211.59,167.75,208,167.75Z"/><path class="cls-1" d="M239.13,187.67l-5.71-6.51-.45.45v6.06h-4.24V161.45H233V178l5.67-5.53h5.74l-7.1,6.65,7.66,8.51Z"/><path class="cls-1" d="M256.73,176.36a3.66,3.66,0,0,0-2-.53c-2.88,0-3.65,2-3.65,4.56v7.28h-4.23V172.51h4.23v2.28a4.86,4.86,0,0,1,4.41-2.77,5,5,0,0,1,1.86.35Z"/></svg>