<svg id="Layer_1" data-name="Layer 1" xmlns="http://www.w3.org/2000/svg" viewBox="0 0 320 320"><defs><style>.cls-1{fill:#d80201;}</style></defs><title>text</title><path class="cls-1" d="M76.75,151.26H74.34L64.4,127.32h5L75.6,143l6.3-15.68h4.93Z"/><path class="cls-1" d="M100.52,150.67v-2a5.86,5.86,0,0,1-4.94,2.49c-4.55,0-7.45-3.78-7.45-8.12s2.9-8,7.35-8a6.33,6.33,0,0,1,5,2.41v-1.92h4.27v15.16Zm-7.32-18a2.52,2.52,0,0,1,0-5,2.52,2.52,0,0,1,0,5Zm3.54,6.16a4.26,4.26,0,1,0,4.23,4.24A4.24,4.24,0,0,0,96.74,138.83Zm3.74-6.16A2.56,2.56,0,0,1,98,130.15a2.52,2.52,0,1,1,2.52,2.52Z"/><path class="cls-1" d="M108.85,150.67V124.45h4.23v26.22Z"/><path class="cls-1" d="M119.21,131.66a2.56,2.56,0,1,1,0-5.11,2.56,2.56,0,0,1,0,5.11Zm-2.14,27.09V135.51h4.24v23.24Z"/><path class="cls-1" d="M138.88,151.16a8.1,8.1,0,0,1-5.78-2.52l2.24-2.59a5,5,0,0,0,3.57,1.78,1.79,1.79,0,0,0,1.93-1.68c0-2.59-6.76-1.29-6.76-6.41,0-3.08,2.56-4.79,5.43-4.79a7.78,7.78,0,0,1,4.93,1.61l-2.1,2.48a4.2,4.2,0,0,0-2.52-1c-.73,0-1.61.45-1.61,1.29,0,2.21,7,1.23,7,6.41C145.21,149.27,142.13,151.16,138.88,151.16Z"/><path class="cls-1" d="M156.1,151.16c-4.83,0-8.68-3-8.68-8.06s3.85-8.08,8.71-8.08,8.61,3,8.61,8S160.89,151.16,156.1,151.16Zm0-12.33a4.26,4.26,0,1,0,4.31,4.27A4.29,4.29,0,0,0,156.06,138.83Z"/><path class="cls-1" d="M168,150.67V124.45h4.23v26.22Z"/><path class="cls-1" d="M183.75,151.16a8,8,0,0,1-8.26-8,8.09,8.09,0,0,1,8.33-8.12,7.78,7.78,0,0,1,3.85.91v4.2a5.24,5.24,0,0,0-3.43-1.3,4.26,4.26,0,1,0,0,8.51,5.17,5.17,0,0,0,3.43-1.29v4.16A8.08,8.08,0,0,1,183.75,151.16Z"/><path class="cls-1" d="M194.42,143.77c.07,2.35,1.19,4.06,3.71,4.06a4,4,0,0,0,3.61-2l3.92.63c-1.33,3.26-4,4.73-7.46,4.73-4.9,0-8.12-3.15-8.12-8.09s3.08-8,7.95-8,7.73,3.36,7.73,8.19v.56ZM198.1,138a3.44,3.44,0,0,0-3.54,3.05h7.18A3.52,3.52,0,0,0,198.1,138Z"/><path class="cls-1" d="M209,150.67V124.45h4.23v26.22Z"/><path class="cls-1" d="M217.31,150.67V124.45h4.24v26.22Z"/><path class="cls-1" d="M229.14,143.77c.07,2.35,1.19,4.06,3.71,4.06a4,4,0,0,0,3.61-2l3.92.63c-1.33,3.26-4,4.73-7.46,4.73-4.9,0-8.12-3.15-8.12-8.09s3.08-8,7.95-8,7.73,3.36,7.73,8.19v.56Zm3.68-5.74a3.44,3.44,0,0,0-3.54,3.05h7.18A3.52,3.52,0,0,0,232.82,138Z"/><path class="cls-1" d="M253.64,139.36a3.7,3.7,0,0,0-2-.53c-2.87,0-3.64,2-3.64,4.56v7.28h-4.23V135.51H248v2.27a4.87,4.87,0,0,1,4.41-2.76,4.77,4.77,0,0,1,1.86.35Z"/><path class="cls-1" d="M85.08,188.16c-4.83,0-8.68-3-8.68-8S80.25,172,85.12,172s8.61,3,8.61,8S89.88,188.16,85.08,188.16Zm0-12.33a4.26,4.26,0,1,0,4.3,4.28A4.29,4.29,0,0,0,85.05,175.83Z"/><path class="cls-1" d="M104.44,188.16a8,8,0,0,1-8.26-8,8.09,8.09,0,0,1,8.33-8.12,7.78,7.78,0,0,1,3.85.91v4.2a5.24,5.24,0,0,0-3.43-1.3,4.26,4.26,0,1,0,0,8.51,5.17,5.17,0,0,0,3.43-1.29v4.16A8.08,8.08,0,0,1,104.44,188.16Z"/><path class="cls-1" d="M122.43,187.67v-8.3c0-2.1-.46-3.74-2.91-3.74-2.62,0-3.22,2-3.22,4.27v7.77h-4.23V161.45h4.23v13a5.54,5.54,0,0,1,4.76-2.45,5.75,5.75,0,0,1,4.41,1.86,6,6,0,0,1,1.19,4.27v9.52Z"/><path class="cls-1" d="M143.85,176.15v11.52h-4.24V176.15H138v-3.64h1.64v-4.87a7.35,7.35,0,0,1,.67-3.57,6,6,0,0,1,5.25-3,5,5,0,0,1,2.24.52v3.89a4.18,4.18,0,0,0-1.93-.56c-1.89,0-2,2-2,3.39v4.24h3.92v3.64Z"/><path class="cls-1" d="M161.31,187.67v-2a5.84,5.84,0,0,1-4.93,2.49c-4.55,0-7.46-3.78-7.46-8.12s2.91-8,7.35-8a6.32,6.32,0,0,1,5,2.41v-1.92h4.27v15.16Zm-3.78-11.84a4.26,4.26,0,1,0,4.24,4.24A4.23,4.23,0,0,0,157.53,175.83Zm-.59-6a3.15,3.15,0,0,1,0-6.3,3.15,3.15,0,1,1,0,6.3Zm0-4.38a1.23,1.23,0,1,0,1.22,1.23A1.2,1.2,0,0,0,156.94,165.47Z"/><path class="cls-1" d="M197.75,187.67v-8.3c0-1.79-.28-3.74-2.52-3.74-2.49,0-2.91,2.27-2.91,4.27v7.77h-4.23v-8a6.71,6.71,0,0,0-.32-2.53,2.45,2.45,0,0,0-2.27-1.46,2.75,2.75,0,0,0-2.38,1.36,6.24,6.24,0,0,0-.49,2.91v7.77h-4.24V172.51h4.24v1.71a5.82,5.82,0,0,1,4.62-2.2,5.13,5.13,0,0,1,4.72,2.77,5.59,5.59,0,0,1,5-2.77,5,5,0,0,1,4.24,2.17,6.7,6.7,0,0,1,.8,3.68v9.8Z"/><path class="cls-1" d="M209.58,180.77c.07,2.35,1.19,4.06,3.71,4.06a4,4,0,0,0,3.6-2l3.92.63c-1.33,3.26-4,4.73-7.45,4.73-4.9,0-8.12-3.15-8.12-8.09s3.08-8,7.94-8,7.74,3.36,7.74,8.19v.56Zm3.67-5.74a3.44,3.44,0,0,0-3.53,3.05h7.17A3.51,3.51,0,0,0,213.25,175Z"/><path class="cls-1" d="M234.08,176.36a3.72,3.72,0,0,0-2-.53c-2.87,0-3.64,2-3.64,4.56v7.28h-4.24V172.51h4.24v2.28a4.86,4.86,0,0,1,4.41-2.77,4.94,4.94,0,0,1,1.85.35Z"/><path class="cls-1" d="M239.12,188.12a2.73,2.73,0,1,1,2.73-2.73A2.74,2.74,0,0,1,239.12,188.12ZM237,181V164.32h4.34V181Z"/></svg>