<svg id="Layer_1" data-name="Layer 1" xmlns="http://www.w3.org/2000/svg" viewBox="0 0 320 240"><defs><style>.cls-1{fill:#d80201;}</style></defs><title>text</title><path class="cls-1" d="M103.35,130.08c-1.89,2-4.84,1.71-7.37,1.71V139H92.21V119.61h5.63c1.91,0,3.6.15,5.11,1.48a6.16,6.16,0,0,1,2,4.67A6.36,6.36,0,0,1,103.35,130.08ZM100,123.49a4.51,4.51,0,0,0-2.76-.61H96v5.63h1.54c1.89,0,3.51-.61,3.51-2.79A2.87,2.87,0,0,0,100,123.49Z"/><path class="cls-1" d="M115.38,129.58a3.11,3.11,0,0,0-1.68-.44c-2.38,0-3,1.68-3,3.77v6h-3.51V126.39h3.51v1.89a4.1,4.1,0,0,1,5.19-2Z"/><path class="cls-1" d="M120.54,133.24c.06,1.94,1,3.37,3.07,3.37a3.29,3.29,0,0,0,3-1.68l3.25.52a6.16,6.16,0,0,1-6.18,3.92c-4.06,0-6.73-2.61-6.73-6.7s2.55-6.67,6.58-6.67,6.41,2.79,6.41,6.79v.46Zm3-4.76a2.85,2.85,0,0,0-2.93,2.52h5.95A2.91,2.91,0,0,0,123.59,128.48Z"/><path class="cls-1" d="M148.67,139v-6.87c0-1.48-.23-3.1-2.09-3.1-2.06,0-2.41,1.89-2.41,3.54V139h-3.51v-6.67a5.6,5.6,0,0,0-.26-2.09,2,2,0,0,0-1.89-1.22,2.29,2.29,0,0,0-2,1.13,5.22,5.22,0,0,0-.41,2.41V139h-3.51V126.39h3.51v1.42A4.82,4.82,0,0,1,140,126a4.27,4.27,0,0,1,3.92,2.29A4.64,4.64,0,0,1,148,126a4.13,4.13,0,0,1,3.51,1.8,5.54,5.54,0,0,1,.67,3V139Z"/><path class="cls-1" d="M157.25,123.2a2.12,2.12,0,1,1,0-4.23,2.12,2.12,0,0,1,0,4.23ZM155.48,139V126.39H159V139Z"/><path class="cls-1" d="M171.9,139V137.3a4.85,4.85,0,0,1-4.09,2.06c-3.77,0-6.18-3.13-6.18-6.73S164,126,167.72,126a5.23,5.23,0,0,1,4.18,2v-1.6h3.54V139ZM165.84,124a2.09,2.09,0,1,1,0-4.18,2.09,2.09,0,1,1,0,4.18Zm2.93,5.11a3.52,3.52,0,1,0,3.51,3.51A3.5,3.5,0,0,0,168.77,129.15Zm3.1-5.11a2.12,2.12,0,0,1-2.09-2.09,2.09,2.09,0,1,1,2.09,2.09Z"/><path class="cls-1" d="M187,129.58a3.11,3.11,0,0,0-1.68-.44c-2.38,0-3,1.68-3,3.77v6H178.8V126.39h3.51v1.89a4.1,4.1,0,0,1,5.19-2Z"/><path class="cls-1" d="M200.11,129.41V139H196.6v-9.54h-1.36v-3h1.36v-4a6.12,6.12,0,0,1,.55-3,5,5,0,0,1,4.35-2.52,4.15,4.15,0,0,1,1.86.44v3.22a3.49,3.49,0,0,0-1.6-.46c-1.57,0-1.65,1.62-1.65,2.81v3.51h3.25v3Z"/><path class="cls-1" d="M211.51,139.36c-4,0-7.19-2.5-7.19-6.67s3.19-6.7,7.22-6.7,7.14,2.52,7.14,6.67S215.49,139.36,211.51,139.36Zm-3-15.32a2.09,2.09,0,1,1,0-4.18,2.09,2.09,0,1,1,0,4.18Zm3,5.11a3.52,3.52,0,1,0,3.57,3.54A3.55,3.55,0,0,0,211.48,129.15Zm3-5.11a2.12,2.12,0,0,1-2.09-2.09A2.09,2.09,0,1,1,214.5,124Z"/><path class="cls-1" d="M229.58,129.58a3.11,3.11,0,0,0-1.68-.44c-2.38,0-3,1.68-3,3.77v6h-3.51V126.39h3.51v1.89a4.1,4.1,0,0,1,5.19-2Z"/><path class="cls-1" d="M70.12,164.41V174H66.62v-9.54H65.25v-3h1.36v-4a6.12,6.12,0,0,1,.55-3,5,5,0,0,1,4.35-2.52,4.16,4.16,0,0,1,1.86.43v3.22a3.5,3.5,0,0,0-1.6-.46c-1.57,0-1.65,1.62-1.65,2.81v3.51h3.25v3Z"/><path class="cls-1" d="M83.21,164.58a3.11,3.11,0,0,0-1.68-.44c-2.38,0-3,1.68-3,3.77v6H75V161.39h3.51v1.89a4.1,4.1,0,0,1,5.19-2Z"/><path class="cls-1" d="M95,174V172.3a4.85,4.85,0,0,1-4.09,2.06c-3.77,0-6.18-3.13-6.18-6.73S87.18,161,90.86,161A5.23,5.23,0,0,1,95,163v-1.6h3.54V174Zm-3.13-9.8a3.52,3.52,0,1,0,3.51,3.51A3.5,3.5,0,0,0,91.9,164.15Z"/><path class="cls-1" d="M118,174v-6.87c0-1.48-.23-3.1-2.09-3.1-2.06,0-2.41,1.89-2.41,3.54V174H110v-6.67a5.6,5.6,0,0,0-.26-2.09,2,2,0,0,0-1.89-1.22,2.29,2.29,0,0,0-2,1.13,5.22,5.22,0,0,0-.41,2.41V174h-3.51V161.39h3.51v1.42a4.82,4.82,0,0,1,3.83-1.83,4.27,4.27,0,0,1,3.92,2.29,4.64,4.64,0,0,1,4.12-2.29,4.13,4.13,0,0,1,3.51,1.8,5.54,5.54,0,0,1,.67,3V174Z"/><path class="cls-1" d="M128.38,164.41V174h-3.51v-9.54h-1.39v-3h1.39V157.1h3.51v4.29h2.47v3Z"/><path class="cls-1" d="M134.39,158.2a2.12,2.12,0,1,1,0-4.24,2.12,2.12,0,0,1,0,4.24ZM132.62,174V161.39h3.51V174Z"/><path class="cls-1" d="M149,174V172.3a4.85,4.85,0,0,1-4.09,2.06c-3.77,0-6.18-3.13-6.18-6.73s2.41-6.64,6.09-6.64a5.23,5.23,0,0,1,4.18,2V152.23h3.54V174Zm-3.13-9.8a3.52,3.52,0,1,0,3.51,3.51A3.5,3.5,0,0,0,145.9,164.15Z"/><path class="cls-1" d="M158.86,168.24c.06,1.94,1,3.37,3.07,3.37a3.29,3.29,0,0,0,3-1.68l3.25.52a6.16,6.16,0,0,1-6.18,3.92c-4.06,0-6.73-2.61-6.73-6.7s2.55-6.67,6.58-6.67,6.41,2.79,6.41,6.79v.46Zm3-4.76A2.85,2.85,0,0,0,159,166h5.95A2.91,2.91,0,0,0,161.91,163.48Z"/><path class="cls-1" d="M179.54,174v-7c0-1.71-.38-3-2.38-3-2.18,0-2.7,1.6-2.7,3.48V174H171V161.39h3.51v1.54a4.64,4.64,0,0,1,3.94-1.94,4.34,4.34,0,0,1,4.64,5v8Z"/><path class="cls-1" d="M190.41,174.36a6.68,6.68,0,0,1-4.79-2.09l1.86-2.15a4.08,4.08,0,0,0,3,1.48,1.48,1.48,0,0,0,1.6-1.39c0-2.15-5.6-1.07-5.6-5.31,0-2.55,2.12-4,4.5-4a6.47,6.47,0,0,1,4.09,1.33l-1.74,2.06a3.5,3.5,0,0,0-2.09-.84c-.61,0-1.33.38-1.33,1.07,0,1.83,5.8,1,5.8,5.31C195.66,172.79,193.11,174.36,190.41,174.36Z"/><path class="cls-1" d="M211.79,174.21h-1.62l-6.41-12.82h3.95l3.31,7.08,3.31-7.08h3.95Z"/><path class="cls-1" d="M221.68,158.2a2.12,2.12,0,1,1,0-4.24,2.12,2.12,0,0,1,0,4.24ZM219.91,174V161.39h3.51V174Z"/><path class="cls-1" d="M226.72,174V152.23h3.51V174Z"/><path class="cls-1" d="M233.59,174V152.23h3.51V174Z"/><path class="cls-1" d="M250.07,174V172.3a4.85,4.85,0,0,1-4.09,2.06c-3.77,0-6.18-3.13-6.18-6.73s2.41-6.64,6.09-6.64a5.23,5.23,0,0,1,4.18,2v-1.6h3.54V174Zm-3.13-9.8a3.52,3.52,0,1,0,3.51,3.51A3.5,3.5,0,0,0,246.94,164.15Z"/></svg>