<svg id="Layer_1" data-name="Layer 1" xmlns="http://www.w3.org/2000/svg" viewBox="0 0 320 320"><defs><style>.cls-1{fill:#d80201;}</style></defs><title>text</title><path class="cls-1" d="M27.44,151.67V128.32H40.35v4H32v5.18H40v4H32v6.3h8.36v4Z"/><path class="cls-1" d="M56.31,151.67,52,146.38l-4.41,5.29H42.1l7.21-8.26-5.81-6.9h5.36L52,140.43l3.19-3.92h5.39l-5.95,6.9,7.1,8.26Z"/><path class="cls-1" d="M68,140.15v11.52H63.8V140.15H62.12v-3.64H63.8v-5.18H68v5.18h3v3.64Z"/><path class="cls-1" d="M83.12,140.36a3.7,3.7,0,0,0-2-.53c-2.87,0-3.64,2-3.64,4.56v7.28H73.21V136.51h4.24v2.27A4.87,4.87,0,0,1,81.86,136a4.77,4.77,0,0,1,1.86.35Z"/><path class="cls-1" d="M97.4,151.67v-2a5.84,5.84,0,0,1-4.93,2.49c-4.55,0-7.46-3.78-7.46-8.12s2.91-8,7.35-8a6.32,6.32,0,0,1,5,2.41v-1.92h4.27v15.16Zm-3.78-11.84a4.26,4.26,0,1,0,4.24,4.24A4.24,4.24,0,0,0,93.62,139.83Z"/><path class="cls-1" d="M123.69,152.16a6,6,0,0,1-5-2.49v2h-4.23V125.45h4.23v13a6.45,6.45,0,0,1,5.08-2.41c4.45,0,7.39,3.78,7.39,8S128.24,152.16,123.69,152.16Zm-1.16-12.33a4.26,4.26,0,1,0,4.24,4.24A4.24,4.24,0,0,0,122.53,139.83Z"/><path class="cls-1" d="M144.3,140.36a3.72,3.72,0,0,0-2-.53c-2.87,0-3.64,2-3.64,4.56v7.28h-4.24V136.51h4.24v2.27A4.87,4.87,0,0,1,143,136a4.75,4.75,0,0,1,1.85.35Z"/><path class="cls-1" d="M158.58,151.67v-2a5.86,5.86,0,0,1-4.94,2.49c-4.55,0-7.45-3.78-7.45-8.12s2.9-8,7.35-8a6.33,6.33,0,0,1,5,2.41v-1.92h4.27v15.16Zm-3.78-11.84a4.26,4.26,0,1,0,4.23,4.24A4.24,4.24,0,0,0,154.8,139.83Z"/><path class="cls-1" d="M187.24,151.67v-2a5.84,5.84,0,0,1-4.93,2.49c-4.55,0-7.46-3.78-7.46-8.12s2.91-8,7.35-8a6.32,6.32,0,0,1,5,2.41v-13h4.27v26.22Zm-3.78-11.84a4.26,4.26,0,1,0,4.24,4.24A4.23,4.23,0,0,0,183.46,139.83Z"/><path class="cls-1" d="M199.11,144.77c.07,2.35,1.19,4.06,3.71,4.06a4,4,0,0,0,3.6-2l3.92.63c-1.33,3.26-4,4.73-7.45,4.73-4.9,0-8.12-3.15-8.12-8.09s3.08-8,7.94-8,7.74,3.36,7.74,8.19v.56Zm3.67-5.74a3.44,3.44,0,0,0-3.53,3.05h7.17A3.51,3.51,0,0,0,202.78,139Z"/><path class="cls-1" d="M225.29,151.67v-2a5.86,5.86,0,0,1-4.94,2.49c-4.55,0-7.45-3.78-7.45-8.12s2.9-8,7.35-8a6.33,6.33,0,0,1,5,2.41v-1.92h4.27v15.16Zm-3.78-11.84a4.26,4.26,0,1,0,4.23,4.24A4.24,4.24,0,0,0,221.51,139.83Z"/><path class="cls-1" d="M233.62,151.67V125.45h4.23v26.22Z"/><path class="cls-1" d="M255,140.15v11.52H250.8V140.15h-1.64v-3.64h1.64v-4.87a7.35,7.35,0,0,1,.67-3.57,6,6,0,0,1,5.25-3,5,5,0,0,1,2.24.52v3.89a4.18,4.18,0,0,0-1.93-.56c-1.89,0-2,2-2,3.39v4.24H259v3.64Z"/><path class="cls-1" d="M268.79,152.16c-4.83,0-8.68-3-8.68-8.06S264,136,268.83,136s8.61,3,8.61,8S273.59,152.16,268.79,152.16Zm-3.67-18.49a2.52,2.52,0,1,1,0-5,2.52,2.52,0,0,1,0,5Zm3.64,6.16a4.26,4.26,0,1,0,4.3,4.27A4.29,4.29,0,0,0,268.76,139.83Zm3.64-6.16a2.55,2.55,0,0,1-2.52-2.52,2.52,2.52,0,1,1,2.52,2.52Z"/><path class="cls-1" d="M290.6,140.36a3.72,3.72,0,0,0-2-.53c-2.87,0-3.64,2-3.64,4.56v7.28h-4.24V136.51h4.24v2.27a4.87,4.87,0,0,1,4.41-2.76,4.75,4.75,0,0,1,1.85.35Z"/><path class="cls-1" d="M54.05,188.67v-2a5.84,5.84,0,0,1-4.93,2.49c-4.55,0-7.46-3.78-7.46-8.12s2.91-8,7.35-8a6.32,6.32,0,0,1,5,2.41v-1.92h4.27v15.16Zm-3.78-11.84a4.26,4.26,0,1,0,4.24,4.24A4.23,4.23,0,0,0,50.27,176.83Z"/><path class="cls-1" d="M62.38,188.67V162.45h4.24v26.22Z"/><path class="cls-1" d="M70.68,188.67V162.45h4.23v26.22Z"/><path class="cls-1" d="M90.56,188.67v-2a5.86,5.86,0,0,1-4.94,2.49c-4.55,0-7.45-3.78-7.45-8.12s2.9-8,7.35-8a6.33,6.33,0,0,1,5,2.41v-1.92h4.27v15.16Zm-3.78-11.84A4.26,4.26,0,1,0,91,181.07,4.24,4.24,0,0,0,86.78,176.83Z"/><path class="cls-1" d="M118,188.67v-8.4c0-2.07-.46-3.64-2.87-3.64-2.63,0-3.26,1.92-3.26,4.2v7.84h-4.23V173.51h4.23v1.86a5.57,5.57,0,0,1,4.76-2.35,5.23,5.23,0,0,1,5.6,6v9.63Z"/><path class="cls-1" d="M129.93,196.79h-4.79l5.56-10.4-7.17-12.88h4.93l4.55,8.61,4.34-8.61h4.83Z"/><path class="cls-1" d="M155,188.67v-2a5.84,5.84,0,0,1-4.93,2.49c-4.55,0-7.46-3.78-7.46-8.12s2.91-8,7.35-8a6.32,6.32,0,0,1,5,2.41v-1.92h4.27v15.16Zm-3.78-11.84a4.26,4.26,0,1,0,4.24,4.24A4.23,4.23,0,0,0,151.21,176.83Z"/><path class="cls-1" d="M179.77,189h-2l-7.73-15.47h4.76l4,8.54,4-8.54h4.76Z"/><path class="cls-1" d="M201.23,188.67v-2a5.86,5.86,0,0,1-4.94,2.49c-4.55,0-7.45-3.78-7.45-8.12s2.9-8,7.35-8a6.33,6.33,0,0,1,5,2.41v-1.92h4.27v15.16Zm-7.32-18a2.52,2.52,0,0,1,0-5,2.52,2.52,0,1,1,0,5Zm3.54,6.16a4.26,4.26,0,1,0,4.23,4.24A4.24,4.24,0,0,0,197.45,176.83Zm3.74-6.16a2.56,2.56,0,0,1-2.52-2.52,2.52,2.52,0,1,1,2.52,2.52Z"/><path class="cls-1" d="M219.92,188.67v-8.4c0-2.07-.46-3.64-2.87-3.64-2.63,0-3.26,1.92-3.26,4.2v7.84h-4.23V173.51h4.23v1.86a5.57,5.57,0,0,1,4.76-2.35,5.23,5.23,0,0,1,5.6,6v9.63Z"/><path class="cls-1" d="M238.57,188.67v-8.4c0-2.07-.45-3.64-2.87-3.64-2.62,0-3.25,1.92-3.25,4.2v7.84h-4.24V173.51h4.24v1.86a5.57,5.57,0,0,1,4.76-2.35,5.23,5.23,0,0,1,5.6,6v9.63Z"/><path class="cls-1" d="M250.4,181.77c.07,2.35,1.19,4.06,3.71,4.06a4,4,0,0,0,3.61-2l3.92.63c-1.33,3.26-4,4.73-7.46,4.73-4.9,0-8.12-3.15-8.12-8.09s3.08-8,7.94-8,7.74,3.36,7.74,8.19v.56Zm3.68-5.74a3.44,3.44,0,0,0-3.54,3.05h7.18A3.52,3.52,0,0,0,254.08,176Z"/><path class="cls-1" d="M274.9,177.36a3.72,3.72,0,0,0-2-.53c-2.87,0-3.64,2-3.64,4.56v7.28H265V173.51h4.24v2.28a4.86,4.86,0,0,1,4.41-2.77,5,5,0,0,1,1.86.35Z"/></svg>