<svg id="Layer_1" data-name="Layer 1" xmlns="http://www.w3.org/2000/svg" viewBox="0 0 980 240"><defs><style>.cls-1{fill:#fff;}</style></defs><title>text</title><path class="cls-1" d="M231.65,142.45c-6.27,0-10.73-2.73-14.2-7.87l5.21-5a9.46,9.46,0,0,0,8.68,5.51c3.47,0,6.38-2.17,6.38-5.82,0-8.5-18.16-4.47-18.16-17.8,0-7.31,5.89-12,12.89-12A18.15,18.15,0,0,1,244.54,104l-4.21,5.52a8.38,8.38,0,0,0-6.7-3.35c-2.67,0-5.77,1.68-5.77,4.65,0,7,18.17,3.54,18.17,18C246,137.24,239.83,142.45,231.65,142.45Z"/><path class="cls-1" d="M265.62,142h-3.47l-13.7-27.4h8.43L264,129.74,271,114.62h8.43Z"/><path class="cls-1" d="M302.26,141.46v-3.53a10.36,10.36,0,0,1-8.74,4.4c-8.06,0-13.2-6.7-13.2-14.39,0-7.5,5.14-14.19,13-14.19a11.16,11.16,0,0,1,8.92,4.28v-3.41h7.57v26.84Zm-6.69-21a7.54,7.54,0,1,0,7.5,7.51A7.49,7.49,0,0,0,295.57,120.5Z"/><path class="cls-1" d="M335.37,141.46V126.58c0-3.66-.81-6.45-5.08-6.45-4.65,0-5.77,3.41-5.77,7.44v13.89H317V114.62h7.5v3.28c2.48-2.85,4.59-4.15,8.43-4.15a10.3,10.3,0,0,1,7.81,3.22c1.93,2.23,2.11,4.65,2.11,7.44v17.05Z"/><path class="cls-1" d="M370.59,141.46v-3.53a10.39,10.39,0,0,1-8.75,4.4c-8,0-13.2-6.7-13.2-14.39,0-7.5,5.15-14.19,13-14.19a11.2,11.2,0,0,1,8.93,4.28v-3.41h7.56v26.84Zm-6.7-21a7.54,7.54,0,1,0,7.5,7.51A7.49,7.49,0,0,0,363.89,120.5Z"/><path class="cls-1" d="M401.83,105.87l5.71,5.58-4.65,3.35-3.6-7.13-3.53,7.19-4.65-3.34,5.64-5.65-7.87-1.17,1.79-5.46,7.07,3.6L396.44,95h5.77l-1.31,7.82L408,99.18l1.74,5.45Z"/><path class="cls-1" d="M456.52,141.46v-3.53a10.39,10.39,0,0,1-8.75,4.4c-8.06,0-13.2-6.7-13.2-14.39,0-7.5,5.14-14.19,13-14.19a11.2,11.2,0,0,1,8.93,4.28V95h7.56v46.44Zm-6.7-21a7.54,7.54,0,1,0,7.5,7.51A7.49,7.49,0,0,0,449.82,120.5Z"/><path class="cls-1" d="M474.93,107.8a4.53,4.53,0,0,1,0-9.06,4.53,4.53,0,0,1,0,9.06Zm-3.78,33.66V114.62h7.5v26.84Z"/><path class="cls-1" d="M504.07,141.46V126.58c0-3.66-.81-6.45-5.09-6.45-4.65,0-5.76,3.41-5.76,7.44v13.89h-7.5V114.62h7.5v3.28c2.48-2.85,4.59-4.15,8.43-4.15a10.3,10.3,0,0,1,7.81,3.22c1.92,2.23,2.11,4.65,2.11,7.44v17.05Z"/><path class="cls-1" d="M552.61,141.46V126.77c0-3.72-.8-6.64-5.14-6.64-4.65,0-5.71,3.6-5.71,7.57v13.76h-7.5V95h7.5v23.07a9.77,9.77,0,0,1,8.44-4.34A10.26,10.26,0,0,1,558,117c1.92,2.23,2.11,4.78,2.11,7.57v16.86Z"/><path class="cls-1" d="M580.27,142.33c-7.38,0-13-3.29-13-11.29V114.62h7.5V129.8c0,3.66,1.55,6.14,5.46,6.14s5.45-2.48,5.45-6.14V114.62h7.57V131C593.29,139,587.64,142.33,580.27,142.33Z"/><path class="cls-1" d="M609,142.33a14.3,14.3,0,0,1-10.23-4.47l4-4.58a8.76,8.76,0,0,0,6.33,3.16,3.16,3.16,0,0,0,3.4-3c0-4.59-12-2.29-12-11.34,0-5.46,4.53-8.5,9.61-8.5a13.8,13.8,0,0,1,8.74,2.86l-3.72,4.4a7.43,7.43,0,0,0-4.46-1.8c-1.3,0-2.85.8-2.85,2.29,0,3.91,12.39,2.17,12.39,11.35C620.25,139,614.8,142.33,609,142.33Z"/><path class="cls-1" d="M646.11,141.46v-3.53a10.39,10.39,0,0,1-8.74,4.4c-8.06,0-13.21-6.7-13.21-14.39,0-7.5,5.15-14.19,13-14.19a11.2,11.2,0,0,1,8.93,4.28V95h7.56v46.44Zm-6.7-21a7.54,7.54,0,1,0,7.5,7.51A7.49,7.49,0,0,0,639.41,120.5Z"/><path class="cls-1" d="M678.41,121.43a6.66,6.66,0,0,0-3.6-.93c-5.08,0-6.44,3.6-6.44,8.06v12.9h-7.51V114.62h7.51v4c1.73-3,4.21-4.89,7.81-4.89a8.42,8.42,0,0,1,3.28.62Z"/><path class="cls-1" d="M697.13,142.33c-8.55,0-15.37-5.33-15.37-14.26s6.82-14.32,15.44-14.32,15.25,5.39,15.25,14.26S705.63,142.33,697.13,142.33Zm-6.51-32.74a4.46,4.46,0,0,1,0-8.92,4.46,4.46,0,1,1,0,8.92Zm6.45,10.91a7.54,7.54,0,1,0,7.63,7.57A7.6,7.6,0,0,0,697.07,120.5Zm6.45-10.91a4.53,4.53,0,0,1-4.47-4.46,4.47,4.47,0,1,1,4.47,4.46Z"/><path class="cls-1" d="M752.5,141.46V126.77c0-3.17-.5-6.64-4.47-6.64-4.4,0-5.14,4-5.14,7.57v13.76h-7.5V127.2a11.91,11.91,0,0,0-.56-4.46,4.36,4.36,0,0,0-4-2.61,4.9,4.9,0,0,0-4.22,2.42,11.24,11.24,0,0,0-.87,5.15v13.76h-7.5V114.62h7.5v3c2.3-2.54,4.72-3.9,8.19-3.9,3.84,0,6.38,1.67,8.37,4.89a9.93,9.93,0,0,1,8.8-4.89,8.82,8.82,0,0,1,7.5,3.84A11.83,11.83,0,0,1,760,124.1v17.36Z"/></svg>