<svg id="Layer_1" data-name="Layer 1" xmlns="http://www.w3.org/2000/svg" viewBox="0 0 980 240"><defs><style>.cls-1{fill:#d80201;}</style></defs><title>text</title><path class="cls-1" d="M363.42,132.73h-2.9L348.59,104h6L362,122.82,369.59,104h5.92Z"/><path class="cls-1" d="M391.93,132v-2.4a7,7,0,0,1-5.92,3c-5.46,0-8.95-4.54-8.95-9.75s3.49-9.62,8.83-9.62a7.55,7.55,0,0,1,6,2.9v-2.31h5.13V132Zm-8.78-21.59a3,3,0,0,1,0-6.05,3,3,0,1,1,0,6.05Zm4.25,7.39a5.11,5.11,0,1,0,5.08,5.08A5.08,5.08,0,0,0,387.4,117.82Zm4.49-7.39a3.07,3.07,0,0,1-3-3,3,3,0,1,1,3,3Z"/><path class="cls-1" d="M401.93,132V100.56H407V132Z"/><path class="cls-1" d="M414.36,109.21a3.07,3.07,0,1,1,0-6.13,3.07,3.07,0,0,1,0,6.13Zm-2.56,32.51V113.83h5.08v27.89Z"/><path class="cls-1" d="M438,132.61a9.69,9.69,0,0,1-6.93-3l2.69-3.11a5.9,5.9,0,0,0,4.29,2.15,2.15,2.15,0,0,0,2.31-2c0-3.11-8.11-1.55-8.11-7.69,0-3.69,3.06-5.75,6.51-5.75a9.39,9.39,0,0,1,5.92,1.93l-2.52,3a5.08,5.08,0,0,0-3-1.22c-.88,0-1.93.55-1.93,1.56,0,2.64,8.4,1.47,8.4,7.69C445.57,130.34,441.87,132.61,438,132.61Z"/><path class="cls-1" d="M458.63,132.61c-5.8,0-10.42-3.62-10.42-9.67s4.62-9.7,10.46-9.7S469,116.9,469,122.9,464.38,132.61,458.63,132.61Zm0-14.79a5.11,5.11,0,1,0,5.16,5.12A5.14,5.14,0,0,0,458.59,117.82Z"/><path class="cls-1" d="M472.91,132V100.56H478V132Z"/><path class="cls-1" d="M491.81,132.61a9.59,9.59,0,0,1-9.92-9.62,9.71,9.71,0,0,1,10-9.75,9.45,9.45,0,0,1,4.62,1.09v5a6.31,6.31,0,0,0-4.11-1.55,5.11,5.11,0,1,0,0,10.21,6.19,6.19,0,0,0,4.11-1.56v5A9.69,9.69,0,0,1,491.81,132.61Z"/><path class="cls-1" d="M504.62,123.74c.08,2.82,1.42,4.88,4.45,4.88a4.77,4.77,0,0,0,4.33-2.44l4.7.76c-1.6,3.9-4.83,5.67-9,5.67-5.88,0-9.74-3.78-9.74-9.71s3.69-9.66,9.53-9.66c6,0,9.29,4,9.29,9.83v.67Zm4.41-6.89a4.14,4.14,0,0,0-4.25,3.66h8.62A4.23,4.23,0,0,0,509,116.85Z"/><path class="cls-1" d="M522.13,132V100.56h5.08V132Z"/><path class="cls-1" d="M532.08,132V100.56h5.09V132Z"/><path class="cls-1" d="M546.28,123.74c.08,2.82,1.43,4.88,4.45,4.88a4.76,4.76,0,0,0,4.33-2.44l4.7.76c-1.59,3.9-4.83,5.67-8.94,5.67-5.88,0-9.75-3.78-9.75-9.71s3.7-9.66,9.54-9.66c6,0,9.28,4,9.28,9.83v.67Zm4.41-6.89a4.13,4.13,0,0,0-4.24,3.66h8.61A4.23,4.23,0,0,0,550.69,116.85Z"/><path class="cls-1" d="M575.68,118.45a4.52,4.52,0,0,0-2.44-.63c-3.44,0-4.36,2.44-4.36,5.46V132h-5.09V113.83h5.09v2.73a5.92,5.92,0,0,1,7.51-2.9Z"/><path class="cls-1" d="M598.86,132.61c-5.79,0-10.41-3.62-10.41-9.67s4.62-9.7,10.46-9.7,10.33,3.66,10.33,9.66S604.62,132.61,598.86,132.61Zm0-14.79a5.11,5.11,0,1,0,5.17,5.12A5.14,5.14,0,0,0,598.82,117.82Z"/><path class="cls-1" d="M622.09,132.61a9.59,9.59,0,0,1-9.92-9.62,9.71,9.71,0,0,1,10-9.75,9.45,9.45,0,0,1,4.62,1.09v5a6.31,6.31,0,0,0-4.11-1.55,5.11,5.11,0,1,0,0,10.21,6.17,6.17,0,0,0,4.11-1.56v5A9.69,9.69,0,0,1,622.09,132.61Z"/><path class="cls-1" d="M643.68,132v-10c0-2.52-.55-4.49-3.49-4.49-3.15,0-3.86,2.43-3.86,5.12V132h-5.09V100.56h5.09v15.62a6.63,6.63,0,0,1,5.71-2.94,7,7,0,0,1,5.29,2.23c1.3,1.51,1.43,3.23,1.43,5.12V132Z"/><path class="cls-1" d="M669.38,118.2V132H664.3V118.2h-2v-4.37h2V108a8.88,8.88,0,0,1,.79-4.28,7.22,7.22,0,0,1,6.31-3.66,6,6,0,0,1,2.68.63v4.66a5.14,5.14,0,0,0-2.31-.67c-2.27,0-2.39,2.35-2.39,4.08v5.08h4.7v4.37Z"/><path class="cls-1" d="M690.34,132v-2.4a7,7,0,0,1-5.92,3c-5.46,0-8.95-4.54-8.95-9.75s3.49-9.62,8.82-9.62a7.59,7.59,0,0,1,6.05,2.9v-2.31h5.12V132Zm-4.54-14.2a5.11,5.11,0,1,0,5.08,5.08A5.07,5.07,0,0,0,685.8,117.82Zm-.71-7.18a3.78,3.78,0,0,1,0-7.56,3.78,3.78,0,0,1,0,7.56Zm0-5.25a1.47,1.47,0,1,0,1.47,1.47A1.44,1.44,0,0,0,685.09,105.39Z"/><path class="cls-1" d="M734.06,132v-10c0-2.14-.33-4.49-3-4.49-3,0-3.49,2.73-3.49,5.12V132h-5.08v-9.66a8.08,8.08,0,0,0-.38-3,2.94,2.94,0,0,0-2.73-1.76,3.33,3.33,0,0,0-2.86,1.64,7.59,7.59,0,0,0-.58,3.48V132h-5.09V113.83h5.09v2.06a7,7,0,0,1,5.54-2.65,6.19,6.19,0,0,1,5.67,3.32,6.74,6.74,0,0,1,6-3.32,6,6,0,0,1,5.08,2.61,8,8,0,0,1,1,4.41V132Z"/><path class="cls-1" d="M748.25,123.74c.09,2.82,1.43,4.88,4.46,4.88a4.76,4.76,0,0,0,4.32-2.44l4.71.76c-1.6,3.9-4.83,5.67-9,5.67-5.88,0-9.74-3.78-9.74-9.71s3.69-9.66,9.53-9.66c6,0,9.29,4,9.29,9.83v.67Zm4.42-6.89a4.13,4.13,0,0,0-4.25,3.66H757A4.21,4.21,0,0,0,752.67,116.85Z"/><path class="cls-1" d="M777.66,118.45a4.52,4.52,0,0,0-2.44-.63c-3.45,0-4.37,2.44-4.37,5.46V132h-5.08V113.83h5.08v2.73a5.85,5.85,0,0,1,5.29-3.32,5.92,5.92,0,0,1,2.23.42Z"/><path class="cls-1" d="M783.7,132.56a3.28,3.28,0,1,1,3.28-3.27A3.28,3.28,0,0,1,783.7,132.56ZM781.1,124V104h5.21v20Z"/></svg>