<svg id="Layer_1" data-name="Layer 1" xmlns="http://www.w3.org/2000/svg" viewBox="0 0 250 360"><defs><style>.cls-1{fill:#fff;}</style></defs><title>text</title><path class="cls-1" d="M32.51,45.2a2.74,2.74,0,0,1,2.94,3,2.58,2.58,0,0,1-1.2,2.28A2.64,2.64,0,0,1,35.77,53a2.89,2.89,0,0,1-3.2,3H28.49V45.2h4ZM32.18,50a1.79,1.79,0,0,0,0-3.57H30V50h2.16Zm0.1,4.86a1.86,1.86,0,1,0,0-3.72H30v3.72h2.27Z"/><path class="cls-1" d="M41.67,45.05c2.6,0,4.23,1.66,4.23,5.55s-1.6,5.55-4.23,5.55-4.23-1.67-4.23-5.55S39.08,45.05,41.67,45.05Zm0,1.27c-1.59,0-2.62,1-2.62,4.27s1,4.28,2.62,4.28,2.63-1,2.63-4.28S43.28,46.33,41.67,46.33Z"/><path class="cls-1" d="M53.82,45.31a3.3,3.3,0,0,1,.76-0.11,4,4,0,0,1,.83.11L52,50.22l3.85,5.67A3.12,3.12,0,0,1,55,56a3.18,3.18,0,0,1-.88-0.11L50.73,51h-1.1v4.89a2,2,0,0,1-.76.11,2.41,2.41,0,0,1-.77-0.11V45.31a2.34,2.34,0,0,1,.78-0.11,2.14,2.14,0,0,1,.75.11v4.47h1.1Z"/><path class="cls-1" d="M60.93,45.2a3.24,3.24,0,0,1,.9.11L65.6,55.89a2.49,2.49,0,0,1-.83.11A2,2,0,0,1,64,55.89l-0.93-2.64H58.65l-0.95,2.64A2.09,2.09,0,0,1,57,56a1.9,1.9,0,0,1-.7-0.11L60,45.31A3.66,3.66,0,0,1,60.93,45.2Zm-0.08,1.67s-0.13.6-.39,1.35L59.09,52h3.57l-1.37-3.79a12.28,12.28,0,0,1-.39-1.35h0Z"/><path class="cls-1" d="M76.17,45.2a1.75,1.75,0,0,1,.12.65,1.91,1.91,0,0,1-.12.67H73.38v9.37a2.29,2.29,0,0,1-.77.11,2,2,0,0,1-.76-0.11V46.52H69a1.68,1.68,0,0,1-.12-0.66A1.88,1.88,0,0,1,69,45.2h7.19Z"/><path class="cls-1" d="M78,45.31a2.14,2.14,0,0,1,.75-0.11,2.23,2.23,0,0,1,.78.11V55.89a2.29,2.29,0,0,1-.76.11A2,2,0,0,1,78,55.89V45.31Z"/><path class="cls-1" d="M85.55,45.2c2.77,0,4.41,1.42,4.41,5.4S88.32,56,85.55,56H82.22V45.2h3.33Zm-0.1,9.52c1.75,0,2.88-.75,2.88-4.12s-1.12-4.12-2.88-4.12h-1.7v8.25h1.7Z"/><path class="cls-1" d="M50.29,67.07a12.85,12.85,0,0,1-.89-1.94H49.34s0.1,1,.1,2.52v6.24a1.86,1.86,0,0,1-.72.11A1.68,1.68,0,0,1,48,73.89V63.31A3.17,3.17,0,0,1,49,63.2a3,3,0,0,1,.9.11l3.73,6.76a17.82,17.82,0,0,1,.93,2h0s-0.1-1.11-.1-2.5V63.31a1.85,1.85,0,0,1,.72-0.11,1.59,1.59,0,0,1,.69.11V73.89A2.81,2.81,0,0,1,55,74a3.17,3.17,0,0,1-.92-0.11Z"/><path class="cls-1" d="M66,70.34a3.78,3.78,0,1,1-7.56,0v-7a2.14,2.14,0,0,1,.75-0.11,2.19,2.19,0,0,1,.77.11v7.27a2.27,2.27,0,1,0,4.54,0V63.31a2,2,0,0,1,.73-0.11,2.29,2.29,0,0,1,.77.11v7Z"/><path class="cls-1" d="M68.48,63.31a2.23,2.23,0,0,1,.81-0.11,2.44,2.44,0,0,1,.81.11l-0.25,7.81a1.1,1.1,0,0,1-.54.12,1.23,1.23,0,0,1-.57-0.12Zm1.58,10.59a2.19,2.19,0,0,1-.77.11,2,2,0,0,1-.76-0.11V72.48a2,2,0,0,1,.76-0.1,2.21,2.21,0,0,1,.77.1v1.41Z"/></svg>