<svg id="Layer_1" data-name="Layer 1" xmlns="http://www.w3.org/2000/svg" viewBox="0 0 250 360"><defs><style>.cls-1{fill:#d80201;}</style></defs><title>text</title><path class="cls-1" d="M43.88,173.1V156.43h3.25v13.84h5.12v2.83Z"/><path class="cls-1" d="M56.56,168.17c0,1.68.84,2.9,2.64,2.9a2.84,2.84,0,0,0,2.58-1.45l2.8.45a5.31,5.31,0,0,1-5.33,3.38,5.43,5.43,0,0,1-5.79-5.78,5.36,5.36,0,0,1,5.67-5.75c3.57,0,5.52,2.4,5.52,5.85v.4Zm2.62-4.1a2.44,2.44,0,0,0-2.52,2.18h5.12A2.52,2.52,0,0,0,59.18,164.07Z"/><path class="cls-1" d="M70,164.87v8.23H67v-8.23h-1.2v-2.6H67v-3.69h3v3.69h2.12v2.6Z"/><path class="cls-1" d="M78.7,160.38l-1.42-1,3-3.78,2.2,1.4Z"/><path class="cls-1" d="M89.68,173.45a5.76,5.76,0,0,1-4.12-1.8l1.6-1.85a3.51,3.51,0,0,0,2.54,1.27,1.28,1.28,0,0,0,1.38-1.2c0-1.85-4.82-.92-4.82-4.57,0-2.2,1.82-3.43,3.87-3.43A5.55,5.55,0,0,1,93.65,163l-1.5,1.78a3,3,0,0,0-1.8-.73c-.52,0-1.15.33-1.15.93,0,1.57,5,.87,5,4.57C94.2,172.1,92,173.45,89.68,173.45Z"/><path class="cls-1" d="M109.18,173.45a4.24,4.24,0,0,1-3.55-1.78v1.43h-3V154.38h3v9.27a4.58,4.58,0,0,1,3.62-1.73c3.18,0,5.28,2.7,5.28,5.73S112.43,173.45,109.18,173.45Zm-.83-8.8a3,3,0,1,0,3,3A3,3,0,0,0,108.35,164.65Z"/><path class="cls-1" d="M119.35,168.17c.05,1.68.85,2.9,2.65,2.9a2.84,2.84,0,0,0,2.58-1.45l2.8.45a5.31,5.31,0,0,1-5.33,3.38,5.42,5.42,0,0,1-5.79-5.78,5.35,5.35,0,0,1,5.67-5.75c3.57,0,5.52,2.4,5.52,5.85v.4Zm2.63-4.1a2.46,2.46,0,0,0-2.53,2.18h5.13A2.52,2.52,0,0,0,122,164.07Z"/><path class="cls-1" d="M139.15,164.87v8.23h-3v-8.23H135v-2.6h1.17V158.8a5.34,5.34,0,0,1,.47-2.55,4.28,4.28,0,0,1,3.75-2.17,3.54,3.54,0,0,1,1.6.37v2.78a2.94,2.94,0,0,0-1.37-.4c-1.35,0-1.43,1.4-1.43,2.42v3H142v2.6Z"/><path class="cls-1" d="M150.43,165a2.73,2.73,0,0,0-1.45-.37c-2,0-2.6,1.45-2.6,3.25v5.2h-3V162.27h3v1.63a3.47,3.47,0,0,1,3.15-2,3.56,3.56,0,0,1,1.32.25Z"/><path class="cls-1" d="M153.83,159.52a1.82,1.82,0,1,1,0-3.64,1.82,1.82,0,0,1,0,3.64ZM152.3,173.1V162.27h3V173.1Z"/><path class="cls-1" d="M160.7,168.17c.05,1.68.85,2.9,2.65,2.9a2.84,2.84,0,0,0,2.58-1.45l2.8.45a5.31,5.31,0,0,1-5.33,3.38,5.43,5.43,0,0,1-5.8-5.78,5.36,5.36,0,0,1,5.68-5.75c3.57,0,5.52,2.4,5.52,5.85v.4Zm2.63-4.1a2.46,2.46,0,0,0-2.53,2.18h5.13A2.52,2.52,0,0,0,163.33,164.07Z"/><path class="cls-1" d="M178.53,173.1v-6c0-1.48-.33-2.6-2.05-2.6-1.88,0-2.33,1.37-2.33,3v5.6h-3V162.27h3v1.33a4,4,0,0,1,3.4-1.68,3.74,3.74,0,0,1,4,4.3v6.88Z"/><path class="cls-1" d="M192.73,173.1v-1.43a4.18,4.18,0,0,1-3.53,1.78c-3.25,0-5.32-2.7-5.32-5.8s2.07-5.73,5.25-5.73a4.51,4.51,0,0,1,3.6,1.73v-9.27h3.05V173.1Zm-2.7-8.45a3,3,0,1,0,3,3A3,3,0,0,0,190,164.65Z"/><path class="cls-1" d="M202.13,173.45a5.8,5.8,0,0,1-4.13-1.8l1.6-1.85a3.55,3.55,0,0,0,2.55,1.27,1.28,1.28,0,0,0,1.38-1.2c0-1.85-4.83-.92-4.83-4.57,0-2.2,1.83-3.43,3.88-3.43A5.55,5.55,0,0,1,206.1,163l-1.5,1.78a3,3,0,0,0-1.8-.73c-.52,0-1.15.33-1.15.93,0,1.57,5,.87,5,4.57C206.65,172.1,204.45,173.45,202.13,173.45Z"/><path class="cls-1" d="M42,198.62v-2.55h5.62v2.55Z"/><path class="cls-1" d="M61.85,203.45a4.23,4.23,0,0,1-3.54-1.78v1.43h-3V184.38h3v9.27a4.56,4.56,0,0,1,3.62-1.73c3.17,0,5.27,2.7,5.27,5.73S65.1,203.45,61.85,203.45Zm-.82-8.8a3,3,0,1,0,3,3A3,3,0,0,0,61,194.65Z"/><path class="cls-1" d="M75.13,203.45c-3.45,0-6.2-2.15-6.2-5.75s2.75-5.78,6.22-5.78,6.15,2.18,6.15,5.75S78.55,203.45,75.13,203.45Zm0-8.8a3,3,0,1,0,3.08,3A3.05,3.05,0,0,0,75.1,194.65Z"/><path class="cls-1" d="M91.05,203.1,87,198.45l-.33.32v4.33h-3V184.38h3v11.84l4-3.95h4.1L89.73,197l5.47,6.08Z"/><path class="cls-1" d="M104.25,203.1v-1.43a4.17,4.17,0,0,1-3.52,1.78c-3.25,0-5.32-2.7-5.32-5.8s2.07-5.73,5.24-5.73a4.49,4.49,0,0,1,3.6,1.73v-1.38h3V203.1Zm-2.7-8.45a3,3,0,1,0,3,3A3,3,0,0,0,101.55,194.65Z"/><path class="cls-1" d="M130.28,203.1v-5.93c0-1.27-.2-2.67-1.8-2.67-1.78,0-2.08,1.62-2.08,3.05v5.55h-3v-5.75a4.72,4.72,0,0,0-.23-1.8,1.74,1.74,0,0,0-1.62-1.05,2,2,0,0,0-1.7,1,4.46,4.46,0,0,0-.35,2.08v5.55h-3V192.27h3v1.23a4.14,4.14,0,0,1,3.3-1.58,3.67,3.67,0,0,1,3.37,2,4,4,0,0,1,3.55-2,3.57,3.57,0,0,1,3,1.55,4.79,4.79,0,0,1,.57,2.63v7Z"/><path class="cls-1" d="M141.83,203.45c-3.45,0-6.2-2.15-6.2-5.75s2.75-5.78,6.22-5.78,6.15,2.18,6.15,5.75S145.25,203.45,141.83,203.45Zm-2.63-13.2a1.8,1.8,0,1,1,0-3.6,1.8,1.8,0,1,1,0,3.6Zm2.6,4.4a3,3,0,1,0,3.08,3A3.06,3.06,0,0,0,141.8,194.65Zm2.6-4.4a1.83,1.83,0,0,1-1.8-1.8,1.8,1.8,0,1,1,1.8,1.8Z"/><path class="cls-1" d="M153.38,194.87v8.23h-3v-8.23h-1.2v-2.6h1.2v-3.69h3v3.69h2.12v2.6Z"/><path class="cls-1" d="M159.6,198.17c.05,1.68.85,2.9,2.65,2.9a2.84,2.84,0,0,0,2.58-1.45l2.8.45a5.31,5.31,0,0,1-5.33,3.38,5.43,5.43,0,0,1-5.8-5.78,5.36,5.36,0,0,1,5.68-5.75c3.57,0,5.52,2.4,5.52,5.85v.4Zm2.63-4.1a2.46,2.46,0,0,0-2.53,2.18h5.13A2.52,2.52,0,0,0,162.23,194.07Z"/><path class="cls-1" d="M183.68,203.1v-6c0-1.48-.33-2.6-2.05-2.6-1.88,0-2.33,1.37-2.33,3v5.6h-3V192.27h3v1.33a4,4,0,0,1,3.4-1.68,3.74,3.74,0,0,1,4,4.3v6.88Z"/><path class="cls-1" d="M194.83,203.45c-3,0-5.23-1.33-5.23-4.55v-6.63h3v6.13c0,1.47.62,2.47,2.2,2.47s2.2-1,2.2-2.47v-6.13h3.05v6.63C200.08,202.12,197.8,203.45,194.83,203.45Z"/><path class="cls-1" d="M204.65,203.42a1.95,1.95,0,1,1,1.95-1.95A2,2,0,0,1,204.65,203.42Zm-1.55-5.1V186.43h3.1v11.89Z"/></svg>