<svg id="Layer_1" data-name="Layer 1" xmlns="http://www.w3.org/2000/svg" viewBox="0 0 250 360"><defs><style>.cls-1{fill:#01aadd;}</style></defs><title>text</title><path class="cls-1" d="M47.56,348.16a10.43,10.43,0,0,1-.4-2.16H47.1a9.6,9.6,0,0,1-.42,2.16l-1.19,4.07a2.89,2.89,0,0,1-.85.1,3.13,3.13,0,0,1-.87-0.1l-2.27-7.68a2.25,2.25,0,0,1,.75-0.11,1.18,1.18,0,0,1,.65.11l1.42,4.78a9.45,9.45,0,0,1,.31,1.47h0a12.41,12.41,0,0,1,.33-1.47l1.38-4.78a3.2,3.2,0,0,1,.81-0.11,2,2,0,0,1,.73.11l1.33,4.75a8.26,8.26,0,0,1,.3,1.5h0a14.06,14.06,0,0,1,.38-1.49l1.41-4.77a1.78,1.78,0,0,1,.66-0.11,1.4,1.4,0,0,1,.65.11l-2.27,7.68a3.1,3.1,0,0,1-.85.1,3.28,3.28,0,0,1-.87-0.1Z"/><path class="cls-1" d="M59.52,348.16a10.43,10.43,0,0,1-.4-2.16H59.05a9.6,9.6,0,0,1-.42,2.16l-1.19,4.07a2.89,2.89,0,0,1-.85.1,3.13,3.13,0,0,1-.87-0.1l-2.27-7.68a2.25,2.25,0,0,1,.75-0.11,1.18,1.18,0,0,1,.65.11l1.42,4.78a9.45,9.45,0,0,1,.31,1.47h0a12.41,12.41,0,0,1,.33-1.47l1.38-4.78a3.2,3.2,0,0,1,.81-0.11,2,2,0,0,1,.73.11l1.33,4.75a8.26,8.26,0,0,1,.3,1.5h0a14.06,14.06,0,0,1,.38-1.49l1.41-4.77a1.78,1.78,0,0,1,.66-0.11,1.4,1.4,0,0,1,.65.11l-2.27,7.68a3.1,3.1,0,0,1-.85.1,3.28,3.28,0,0,1-.87-0.1Z"/><path class="cls-1" d="M71.47,348.16a10.43,10.43,0,0,1-.4-2.16H71a9.6,9.6,0,0,1-.42,2.16l-1.19,4.07a2.89,2.89,0,0,1-.85.1,3.14,3.14,0,0,1-.87-0.1l-2.26-7.68a2.25,2.25,0,0,1,.75-0.11,1.18,1.18,0,0,1,.65.11l1.42,4.78a9.45,9.45,0,0,1,.31,1.47h0a12.41,12.41,0,0,1,.33-1.47l1.38-4.78a3.2,3.2,0,0,1,.81-0.11,2,2,0,0,1,.73.11l1.33,4.75a8.26,8.26,0,0,1,.3,1.5h0a14.06,14.06,0,0,1,.38-1.49l1.41-4.77a1.78,1.78,0,0,1,.66-0.11,1.4,1.4,0,0,1,.65.11l-2.27,7.68a3.1,3.1,0,0,1-.85.1,3.28,3.28,0,0,1-.87-0.1Z"/><path class="cls-1" d="M79,352.23a2.36,2.36,0,0,1-.78.1,2.15,2.15,0,0,1-.78-0.1v-1.41a2.13,2.13,0,0,1,.78-0.11,2.34,2.34,0,0,1,.78.11v1.41Z"/><path class="cls-1" d="M83.79,344.29c2.17,0,2.87,1,2.87,2.91v5a1.18,1.18,0,0,1-.58.1,1.54,1.54,0,0,1-.6-0.1l-0.23-1a2.41,2.41,0,0,1-2.35,1.21,2.19,2.19,0,0,1-2.32-2.5c0-1.63,1-2.36,2.88-2.36a15.81,15.81,0,0,1,1.71.09v-0.56a1.36,1.36,0,0,0-1.54-1.6,6.25,6.25,0,0,0-2,.38,1.19,1.19,0,0,1-.34-0.45,1.3,1.3,0,0,1-.09-0.63A6.52,6.52,0,0,1,83.79,344.29Zm-0.15,4.35A1.26,1.26,0,0,0,82.11,350a1.17,1.17,0,0,0,1.3,1.35,1.83,1.83,0,0,0,1.74-2.07v-0.53C84.81,348.7,84.21,348.64,83.64,348.64Z"/><path class="cls-1" d="M88.72,344.55a2.14,2.14,0,0,1,.75-0.11,2,2,0,0,1,.75.11v5.4a1.21,1.21,0,0,0,1.4,1.32,2,2,0,0,0,1.7-1v-5.76a2.24,2.24,0,0,1,.75-0.11,1.94,1.94,0,0,1,.75.11v7.68a2,2,0,0,1-.75.1,2.26,2.26,0,0,1-.75-0.1v-0.69a2.93,2.93,0,0,1-2.27.95,2.12,2.12,0,0,1-2.32-2.26v-5.67Z"/><path class="cls-1" d="M99,349.5c0,1.37.44,1.77,1.5,1.77a4.08,4.08,0,0,0,.63-0.06,1.73,1.73,0,0,1,.1.6,1.64,1.64,0,0,1-.08.54,4.35,4.35,0,0,1-1.08.13c-1.85,0-2.58-1-2.58-2.91v-4H96.36a1.52,1.52,0,0,1-.09-0.55,1.47,1.47,0,0,1,.09-0.57h1.15v-1.36a2.55,2.55,0,0,1,1.5-.3v1.67H101a1.43,1.43,0,0,1,.09.56,1.66,1.66,0,0,1-.09.57H99v3.93Z"/><path class="cls-1" d="M105.67,344.29c2.07,0,3.33,1.13,3.33,4.09s-1.27,4.09-3.33,4.09-3.33-1.12-3.33-4.09S103.62,344.29,105.67,344.29Zm0,1.15c-1.09,0-1.8.63-1.8,2.94s0.71,2.94,1.8,2.94,1.79-.63,1.79-2.94S106.77,345.45,105.67,345.45Z"/><path class="cls-1" d="M113.32,344.29a4.27,4.27,0,0,1,2.11.4,1.53,1.53,0,0,1-.39,1.07,5.56,5.56,0,0,0-1.58-.24c-1,0-1.53.38-1.53,1.08s0.94,0.92,1.89,1.23,2,0.78,2,2.25-0.94,2.4-2.85,2.4a5.35,5.35,0,0,1-2.51-.54,1.53,1.53,0,0,1,.41-1.11,6.4,6.4,0,0,0,2,.38c0.92,0,1.44-.34,1.44-1.08s-0.83-1-1.71-1.26-2.13-.73-2.13-2.22S111.42,344.29,113.32,344.29Z"/><path class="cls-1" d="M118.74,348.85c0.12,1.79.84,2.35,2.08,2.35a3.64,3.64,0,0,0,1.77-.43,1.55,1.55,0,0,1,.48,1.08,4.42,4.42,0,0,1-2.49.63c-2.31,0-3.39-1.42-3.39-4.14s1.33-4,3.33-4a2.71,2.71,0,0,1,3,3,6.4,6.4,0,0,1-.17,1.54h-4.59Zm1.78-3.37c-1,0-1.66.64-1.78,2.31h3.21a5.18,5.18,0,0,0,0-.67A1.4,1.4,0,0,0,120.52,345.48Z"/><path class="cls-1" d="M128.58,344.31a2.36,2.36,0,0,1,1.31.38,1.7,1.7,0,0,1-.66,1.26,1.51,1.51,0,0,0-.93-0.31,1.94,1.94,0,0,0-1.54,1.14v5.46a2.16,2.16,0,0,1-.75.1,2,2,0,0,1-.75-0.1v-7.68a2,2,0,0,1,.75-0.11,2.14,2.14,0,0,1,.75.11v1A2.19,2.19,0,0,1,128.58,344.31Z"/><path class="cls-1" d="M133.52,349.27a12.2,12.2,0,0,1,.42,1.6H134s0.18-.73.46-1.6l1.64-4.72a1.82,1.82,0,0,1,.67-0.11,1.91,1.91,0,0,1,.71.11l-2.64,7.68a3.69,3.69,0,0,1-.9.1,3.4,3.4,0,0,1-.9-0.1l-2.7-7.68a2.45,2.45,0,0,1,.78-0.11,2.23,2.23,0,0,1,.78.11Z"/><path class="cls-1" d="M140.46,342.93a2.36,2.36,0,0,1-.78.1,2.16,2.16,0,0,1-.78-0.1v-1.41a2.16,2.16,0,0,1,.78-0.1,2.36,2.36,0,0,1,.78.1v1.41Zm0,9.3a2.16,2.16,0,0,1-.75.1,2,2,0,0,1-.75-0.1v-7.68a2,2,0,0,1,.75-0.11,2.14,2.14,0,0,1,.75.11v7.68Z"/><path class="cls-1" d="M143.85,348.39c0,2,.63,2.82,2.07,2.82a3.86,3.86,0,0,0,1.41-.25,1.58,1.58,0,0,1,.44,1.08,4.08,4.08,0,0,1-2.16.45c-2.19,0-3.3-1.42-3.3-4.09s1.11-4.09,3.3-4.09a3.94,3.94,0,0,1,2,.38,1.53,1.53,0,0,1-.43,1.08,3.66,3.66,0,0,0-1.32-.22C144.42,345.52,143.85,346.44,143.85,348.39Z"/><path class="cls-1" d="M150.55,348.85c0.12,1.79.84,2.35,2.08,2.35a3.64,3.64,0,0,0,1.77-.43,1.55,1.55,0,0,1,.48,1.08,4.42,4.42,0,0,1-2.49.63c-2.31,0-3.39-1.42-3.39-4.14s1.33-4,3.33-4a2.71,2.71,0,0,1,3,3,6.4,6.4,0,0,1-.17,1.54h-4.59Zm1.78-3.37c-1,0-1.66.64-1.78,2.31h3.21a5.18,5.18,0,0,0,0-.67A1.4,1.4,0,0,0,152.33,345.48Z"/><path class="cls-1" d="M158.56,345.27a2.4,2.4,0,0,1,2.16-1c1.71,0,2.82,1,2.82,4.09s-1.11,4.09-2.82,4.09a2.4,2.4,0,0,1-2.16-1v0.72a2.2,2.2,0,0,1-.76.1,2,2,0,0,1-.74-0.1v-11a2,2,0,0,1,.74-0.1,2.2,2.2,0,0,1,.76.1v4.08Zm1.64,0.25a1.7,1.7,0,0,0-1.64,1.89v1.92a1.72,1.72,0,0,0,1.64,1.92c1.2,0,1.8-.63,1.8-2.86S161.39,345.52,160.19,345.52Z"/><path class="cls-1" d="M168.38,344.29c2.07,0,3.33,1.13,3.33,4.09s-1.27,4.09-3.33,4.09-3.33-1.12-3.33-4.09S166.33,344.29,168.38,344.29Zm0,1.15c-1.09,0-1.8.63-1.8,2.94s0.71,2.94,1.8,2.94,1.79-.63,1.79-2.94S169.48,345.45,168.38,345.45Z"/><path class="cls-1" d="M175.45,349.5c0,1.37.44,1.77,1.5,1.77a4.08,4.08,0,0,0,.63-0.06,1.73,1.73,0,0,1,.1.6,1.64,1.64,0,0,1-.08.54,4.35,4.35,0,0,1-1.08.13c-1.85,0-2.58-1-2.58-2.91v-4h-1.15a1.52,1.52,0,0,1-.09-0.55,1.47,1.47,0,0,1,.09-0.57h1.15v-1.36a2.55,2.55,0,0,1,1.5-.3v1.67h1.95a1.43,1.43,0,0,1,.09.56,1.66,1.66,0,0,1-.09.57h-1.95v3.93Z"/><path class="cls-1" d="M183.52,344.55a2.52,2.52,0,0,1,.77-0.11,3,3,0,0,1,.73.09l-2.31,3.58,2.65,4.11a2.68,2.68,0,0,1-.84.12,2.37,2.37,0,0,1-.81-0.12l-2.25-3.45h-0.84v3.45a2.74,2.74,0,0,1-1.5,0V341.16a3.46,3.46,0,0,1,.77-0.08,3.68,3.68,0,0,1,.73.08v6.49h0.85Z"/><path class="cls-1" d="M190.21,353.49c-0.54,1.65-1.06,2.59-2.69,2.59a2.17,2.17,0,0,1-.83-0.15,1.74,1.74,0,0,1-.1-0.55,1.41,1.41,0,0,1,.12-0.6,4.32,4.32,0,0,0,.67.06c0.68,0,1-.18,1.47-1.59l0.31-.92a1.45,1.45,0,0,1-.48-0.1l-2.85-7.68a2.45,2.45,0,0,1,.78-0.11,2.34,2.34,0,0,1,.78.11l1.71,4.56a14.26,14.26,0,0,1,.52,1.75h0.06s0.15-.71.48-1.74l1.48-4.57a2,2,0,0,1,.73-0.11,2.11,2.11,0,0,1,.71.11Z"/><path class="cls-1" d="M197.86,344.31a2.36,2.36,0,0,1,1.31.38,1.7,1.7,0,0,1-.66,1.26,1.51,1.51,0,0,0-.93-0.31,1.94,1.94,0,0,0-1.54,1.14v5.46a2.16,2.16,0,0,1-.75.1,2,2,0,0,1-.75-0.1v-7.68a2,2,0,0,1,.75-0.11,2.14,2.14,0,0,1,.75.11v1A2.19,2.19,0,0,1,197.86,344.31Z"/><path class="cls-1" d="M203.06,344.29c2.18,0,2.87,1,2.87,2.91v5a1.18,1.18,0,0,1-.58.1,1.54,1.54,0,0,1-.6-0.1l-0.23-1a2.41,2.41,0,0,1-2.35,1.21,2.19,2.19,0,0,1-2.32-2.5c0-1.63,1-2.36,2.88-2.36a15.81,15.81,0,0,1,1.71.09v-0.56a1.36,1.36,0,0,0-1.54-1.6,6.25,6.25,0,0,0-2,.38,1.19,1.19,0,0,1-.34-0.45,1.29,1.29,0,0,1-.09-0.63A6.51,6.51,0,0,1,203.06,344.29Zm-0.15,4.35a1.26,1.26,0,0,0-1.53,1.33,1.17,1.17,0,0,0,1.3,1.35,1.83,1.83,0,0,0,1.74-2.07v-0.53C204.08,348.7,203.48,348.64,202.91,348.64Z"/><path class="cls-1" d="M209.5,352.23a2.36,2.36,0,0,1-.78.1,2.15,2.15,0,0,1-.78-0.1v-1.41a2.13,2.13,0,0,1,.78-0.11,2.34,2.34,0,0,1,.78.11v1.41Z"/><path class="cls-1" d="M214,344.29a4.27,4.27,0,0,1,2.11.4,1.53,1.53,0,0,1-.39,1.07,5.56,5.56,0,0,0-1.58-.24c-1,0-1.53.38-1.53,1.08s0.94,0.92,1.89,1.23,2,0.78,2,2.25-0.94,2.4-2.85,2.4a5.35,5.35,0,0,1-2.5-.54,1.53,1.53,0,0,1,.4-1.11,6.4,6.4,0,0,0,2,.38c0.92,0,1.44-.34,1.44-1.08s-0.83-1-1.71-1.26-2.13-.73-2.13-2.22S212.14,344.29,214,344.29Z"/><path class="cls-1" d="M219.46,348.85c0.12,1.79.84,2.35,2.08,2.35a3.64,3.64,0,0,0,1.77-.43,1.55,1.55,0,0,1,.48,1.08,4.42,4.42,0,0,1-2.49.63c-2.31,0-3.39-1.42-3.39-4.14s1.33-4,3.33-4a2.71,2.71,0,0,1,3,3,6.4,6.4,0,0,1-.17,1.54h-4.59Zm1.79-3.37c-1,0-1.67.64-1.79,2.31h3.21a5.28,5.28,0,0,0,0-.67A1.4,1.4,0,0,0,221.24,345.48Z"/></svg>