<svg id="Layer_1" data-name="Layer 1" xmlns="http://www.w3.org/2000/svg" viewBox="0 0 250 360"><defs><style>.cls-1{fill:#d80201;}.cls-2{fill:#fff;}</style></defs><title>text</title><rect class="cls-1" x="60.3" y="286" width="129.39" height="20.89" rx="10.44"/><path class="cls-2" d="M84.64,300.7a3.18,3.18,0,0,1-2.79-1.55l1-1a1.87,1.87,0,0,0,1.7,1.09,1.16,1.16,0,0,0,1.26-1.15c0-1.67-3.57-.88-3.57-3.5a2.37,2.37,0,0,1,2.53-2.36,3.55,3.55,0,0,1,2.38.9l-.83,1.09a1.62,1.62,0,0,0-1.32-.66c-.52,0-1.13.33-1.13.91,0,1.38,3.57.7,3.57,3.54A2.63,2.63,0,0,1,84.64,300.7Z"/><path class="cls-2" d="M88.87,300.5v-8.13h4.5v1.38H90.46v1.8h2.8v1.38h-2.8v2.2h2.91v1.37Z"/><path class="cls-2" d="M105.48,300.5l-.72-5-2.24,5.12h-.44l-2.16-5.12-.81,5h-1.6L99,292.23h1.09l2.22,5.31,2.31-5.31h1.09l1.35,8.27Z"/><path class="cls-2" d="M108.53,300.5v-8.13H113v1.38h-2.91v1.8h2.81v1.38h-2.81v2.2H113v1.37Z"/><path class="cls-2" d="M118.53,300.5l-2.19-3.26h-.2v3.26h-1.58v-8.13h2.35A3.35,3.35,0,0,1,119,293a2.36,2.36,0,0,1,.81,1.83,2.6,2.6,0,0,1-.47,1.48,2.06,2.06,0,0,1-1.39.81l2.56,3.42Zm-1.91-6.84h-.48v2.46h.45c.82,0,1.56-.3,1.56-1.24S117.43,293.66,116.62,293.66Z"/><path class="cls-2" d="M129.63,300.5v-3.62h-3.44v3.62h-1.58v-8.13h1.58v3.15h3.44v-3.15h1.59v8.13Z"/><path class="cls-2" d="M138.59,300.5l-.7-1.71h-3.31l-.75,1.71h-1.68l3.52-8.3h1.2l3.43,8.3Zm-3.73-9a.89.89,0,0,1-.88-.88.88.88,0,1,1,.88.88Zm1.4,3.1-1.18,2.92h2.33Zm1.33-3.1a.89.89,0,0,1-.88-.88.88.88,0,1,1,.88.88Z"/><path class="cls-2" d="M145.22,300.5l-2.2-3.26h-.19v3.26h-1.59v-8.13h2.36a3.37,3.37,0,0,1,2.07.59,2.38,2.38,0,0,1,.8,1.83,2.67,2.67,0,0,1-.46,1.48,2.08,2.08,0,0,1-1.39.81l2.56,3.42Zm-1.92-6.84h-.47v2.46h.45c.82,0,1.56-.3,1.56-1.24S144.12,293.66,143.3,293.66Z"/><polygon class="cls-2" points="165.62 297.46 157.06 297.46 157.06 295.28 165.62 295.28 165.62 291.98 171.71 296.37 165.62 300.58 165.62 297.46"/></svg>