<svg id="Layer_1" data-name="Layer 1" xmlns="http://www.w3.org/2000/svg" viewBox="0 0 160 600"><defs><style>.cls-1{fill:#d80201;}</style></defs><title>text</title><path class="cls-1" d="M25.66,258.58v4.15h5.85v3.16H25.66v8.21H22V255.42h9.89v3.16Z"/><path class="cls-1" d="M40.87,274.49c-3.87,0-6.95-2.41-6.95-6.44s3.08-6.47,7-6.47S47.78,264,47.78,268,44.7,274.49,40.87,274.49Zm0-9.86a3.41,3.41,0,1,0,3.44,3.42A3.43,3.43,0,0,0,40.84,264.63Z"/><path class="cls-1" d="M58.31,265.05a3,3,0,0,0-1.62-.42c-2.3,0-2.92,1.63-2.92,3.64v5.83H50.39V262h3.38v1.82a3.91,3.91,0,0,1,3.53-2.21,3.86,3.86,0,0,1,1.49.28Z"/><path class="cls-1" d="M76,274.1v-6.64c0-1.43-.22-3-2-3-2,0-2.32,1.82-2.32,3.42v6.22H68.22v-6.44a5.45,5.45,0,0,0-.25-2,2,2,0,0,0-1.82-1.18,2.18,2.18,0,0,0-1.9,1.1,4.93,4.93,0,0,0-.4,2.32v6.22H60.47V262h3.38v1.37a4.69,4.69,0,0,1,3.7-1.76,4.13,4.13,0,0,1,3.78,2.21,4.49,4.49,0,0,1,4-2.21,4,4,0,0,1,3.38,1.74,5.33,5.33,0,0,1,.65,2.94v7.84Z"/><path class="cls-1" d="M91.85,274.1v-1.6a4.67,4.67,0,0,1-3.95,2c-3.63,0-6-3-6-6.5s2.33-6.41,5.88-6.41a5,5,0,0,1,4,1.93V262h3.42V274.1Zm-3-9.47A3.41,3.41,0,1,0,92.22,268,3.38,3.38,0,0,0,88.83,264.63Z"/><path class="cls-1" d="M114.78,274.1v-1.6a4.66,4.66,0,0,1-3.94,2c-3.64,0-6-3-6-6.5s2.33-6.41,5.88-6.41a5,5,0,0,1,4,1.93V253.13h3.42v21Zm-3-9.47a3.41,3.41,0,1,0,3.39,3.39A3.38,3.38,0,0,0,111.76,264.63Z"/><path class="cls-1" d="M123.1,258.89a2,2,0,1,1,2-2A2,2,0,0,1,123.1,258.89Zm-1.71,15.21V262h3.39V274.1Z"/><path class="cls-1" d="M131.39,264.88v9.22H128v-9.22h-1.34V262H128v-4.14h3.39V262h2.38v2.91Z"/><path class="cls-1" d="M139,264.88v9.22h-3.39v-9.22h-1.34V262h1.34v-4.14H139V262h2.38v2.91Z"/><path class="cls-1" d="M24.61,307.7v-6.64c0-1.68-.36-3-2.32-3s-2.58,1.63-2.58,3.42v6.22H16.32v-21h3.39v10.41a4.41,4.41,0,0,1,3.81-2,4.63,4.63,0,0,1,3.53,1.49,4.77,4.77,0,0,1,.95,3.41v7.62Z"/><path class="cls-1" d="M37.1,308.09c-3.33,0-5.85-1.48-5.85-5.1v-7.42h3.39v6.86c0,1.65.7,2.78,2.46,2.78s2.46-1.13,2.46-2.78v-6.86H43V303C43,306.61,40.43,308.09,37.1,308.09Z"/><path class="cls-1" d="M50.09,308.09a6.44,6.44,0,0,1-4.62-2L47.26,304a4,4,0,0,0,2.86,1.43,1.43,1.43,0,0,0,1.54-1.35c0-2.07-5.41-1-5.41-5.12,0-2.46,2-3.83,4.35-3.83a6.25,6.25,0,0,1,3.94,1.28l-1.68,2a3.37,3.37,0,0,0-2-.81c-.59,0-1.29.36-1.29,1,0,1.76,5.6,1,5.6,5.12C55.16,306.58,52.69,308.09,50.09,308.09Z"/><path class="cls-1" d="M72,308.09a4.81,4.81,0,0,1-4.05-2v8.06H64.57V295.57H68v1.54a4.79,4.79,0,0,1,4-1.93c3.61,0,6,3,6,6.47S75.57,308.09,72,308.09Zm-1-9.86a3.41,3.41,0,1,0,3.39,3.39A3.38,3.38,0,0,0,71,298.23Z"/><path class="cls-1" d="M89.77,307.7v-1.6a4.7,4.7,0,0,1-4,2c-3.64,0-6-3-6-6.5s2.33-6.41,5.88-6.41a5.08,5.08,0,0,1,4,1.93v-1.54h3.41V307.7Zm-3-9.47a3.41,3.41,0,1,0,3.39,3.39A3.39,3.39,0,0,0,86.74,298.23Zm-.47-4.79a2.52,2.52,0,0,1,0-5,2.52,2.52,0,0,1,0,5Zm0-3.5a1,1,0,1,0,1,1A1,1,0,0,0,86.27,289.94Z"/><path class="cls-1" d="M106.93,298.48v9.22h-3.39v-9.22h-1.31v-2.91h1.31v-3.89a6,6,0,0,1,.53-2.86,4.81,4.81,0,0,1,4.2-2.43,4.06,4.06,0,0,1,1.8.42v3.11a3.43,3.43,0,0,0-1.54-.45c-1.52,0-1.6,1.57-1.6,2.72v3.38h3.14v2.91Z"/><path class="cls-1" d="M114.46,302.18c.06,1.88,1,3.25,3,3.25a3.16,3.16,0,0,0,2.88-1.63l3.14.51a5.94,5.94,0,0,1-6,3.78,6.08,6.08,0,0,1-6.5-6.47c0-3.86,2.46-6.44,6.36-6.44s6.18,2.69,6.18,6.55v.45Zm2.94-4.59a2.75,2.75,0,0,0-2.83,2.43h5.74A2.8,2.8,0,0,0,117.4,297.59Z"/><path class="cls-1" d="M141.62,307.7v-6.64c0-1.43-.22-3-2-3-2,0-2.33,1.82-2.33,3.42v6.22h-3.39v-6.44a5.45,5.45,0,0,0-.25-2,2,2,0,0,0-1.82-1.18,2.2,2.2,0,0,0-1.9,1.1,4.93,4.93,0,0,0-.39,2.32v6.22h-3.39V295.57h3.39v1.37a4.65,4.65,0,0,1,3.69-1.76,4.12,4.12,0,0,1,3.78,2.21,4.49,4.49,0,0,1,4-2.21,4,4,0,0,1,3.39,1.74,5.32,5.32,0,0,1,.64,2.94v7.84Z"/><path class="cls-1" d="M49.55,341.3v-6.64c0-1.43-.23-3-2-3-2,0-2.32,1.81-2.32,3.41v6.22H41.82v-6.44a5.45,5.45,0,0,0-.25-2,2,2,0,0,0-1.82-1.17,2.2,2.2,0,0,0-1.91,1.09,5.06,5.06,0,0,0-.39,2.32v6.22H34.06V329.17h3.39v1.37a4.69,4.69,0,0,1,3.7-1.76A4.14,4.14,0,0,1,44.93,331a4.49,4.49,0,0,1,4-2.21,4,4,0,0,1,3.39,1.74,5.32,5.32,0,0,1,.64,2.94v7.84Z"/><path class="cls-1" d="M57.83,326.09a2,2,0,1,1,2-2A2,2,0,0,1,57.83,326.09Zm-1.7,15.21V329.17h3.38V341.3Z"/><path class="cls-1" d="M71,341.3v-6.72c0-1.66-.36-2.91-2.29-2.91-2.1,0-2.61,1.54-2.61,3.36v6.27H62.71V329.17h3.38v1.49a4.48,4.48,0,0,1,3.81-1.88,4.19,4.19,0,0,1,4.48,4.82v7.7Z"/><path class="cls-1" d="M83.48,341.69c-3.33,0-5.85-1.48-5.85-5.1v-7.42H81V336c0,1.66.7,2.77,2.46,2.77s2.46-1.11,2.46-2.77v-6.86h3.42v7.42C89.36,340.21,86.81,341.69,83.48,341.69Z"/><path class="cls-1" d="M96,332.08v9.22H92.64v-9.22H91.29v-2.91h1.35V325H96v4.14H98.4v2.91Z"/><path class="cls-1" d="M103,335.78c0,1.88,1,3.25,3,3.25a3.17,3.17,0,0,0,2.89-1.63l3.13.51a5.94,5.94,0,0,1-6,3.78,6.08,6.08,0,0,1-6.5-6.47c0-3.86,2.47-6.44,6.36-6.44s6.19,2.69,6.19,6.55v.45Zm2.94-4.59a2.75,2.75,0,0,0-2.83,2.44h5.74A2.81,2.81,0,0,0,105.94,331.19Z"/><path class="cls-1" d="M122.6,332.25a3.08,3.08,0,0,0-1.63-.42c-2.29,0-2.91,1.63-2.91,3.64v5.83h-3.39V329.17h3.39V331a3.89,3.89,0,0,1,3.53-2.21,4,4,0,0,1,1.48.28Z"/><path class="cls-1" d="M125.4,341.66a2.19,2.19,0,1,1,2.18-2.18A2.19,2.19,0,0,1,125.4,341.66Z"/></svg>