<svg id="Layer_1" data-name="Layer 1" xmlns="http://www.w3.org/2000/svg" viewBox="0 0 160 600"><defs><style>.cls-1{fill:#fff;}</style></defs><title>text</title><path class="cls-1" d="M44.56,524.12V510.8h-5c-.52,0-.77-.34-.77-1s.25-1,.77-1h12.3c.51,0,.77.34.77,1s-.26,1-.77,1h-5v13.32c0,.59-.37.88-1.12.88S44.56,524.71,44.56,524.12Z"/><path class="cls-1" d="M52.88,515.08q-.78,0-.78-.93a1,1,0,0,1,.78-1.12,16.77,16.77,0,0,1,4-.33q2.84,0,3.84.9a4.09,4.09,0,0,1,1,3.15v4.82c0,1.51-.37,2.49-1.1,2.94a8.72,8.72,0,0,1-4.21.69c-2.07,0-3.46-.23-4.16-.69s-1.07-1.43-1.07-2.93a4.46,4.46,0,0,1,.81-3.08c.55-.58,1.66-.86,3.34-.85h4.14v-1.29a1.4,1.4,0,0,0-.57-1.27,4.24,4.24,0,0,0-2-.34,15.83,15.83,0,0,0-2.55.17A11.4,11.4,0,0,1,52.88,515.08Zm6.65,6.67v-2.12H56.06A4.24,4.24,0,0,0,54,520q-.48.31-.48,1.44c0,.75.2,1.24.6,1.45a6.21,6.21,0,0,0,2.39.3,7.46,7.46,0,0,0,2.41-.26A1.12,1.12,0,0,0,59.53,521.75Z"/><path class="cls-1" d="M75.81,525.12a1.91,1.91,0,0,1-1.2-.4,2.36,2.36,0,0,1-.76-1l-3.54-9.54c0-.25-.08-.38-.08-.4q0-.88,1.08-.87a1,1,0,0,1,1.1.65l3.35,9.4h.12l3.36-9.4c.16-.43.56-.65,1.2-.65s1,.29,1,.87c0,0,0,.15-.08.4l-3.55,9.54a2.07,2.07,0,0,1-.75,1A2,2,0,0,1,75.81,525.12Z"/><path class="cls-1" d="M84.92,515.08q-.78,0-.78-.93a1,1,0,0,1,.78-1.12A16.92,16.92,0,0,1,89,512.7c1.88,0,3.16.3,3.83.9a4.09,4.09,0,0,1,1,3.15v4.82c0,1.51-.36,2.49-1.1,2.94a8.75,8.75,0,0,1-4.21.69c-2.08,0-3.47-.23-4.16-.69s-1-1.43-1-2.93a4.46,4.46,0,0,1,.81-3.08c.55-.58,1.65-.86,3.32-.85h4.14v-1.29a1.38,1.38,0,0,0-.58-1.27,4.22,4.22,0,0,0-2-.34,15.83,15.83,0,0,0-2.55.17A11.24,11.24,0,0,1,84.92,515.08Zm6.66,6.67v-2.12H88.12A4.26,4.26,0,0,0,86,520c-.31.21-.47.69-.47,1.44s.2,1.24.59,1.45a6.19,6.19,0,0,0,2.38.3,7.42,7.42,0,0,0,2.41-.26A1.14,1.14,0,0,0,91.58,521.75Zm-4.36-10.32a2.37,2.37,0,0,1,0-3.3,2.32,2.32,0,0,1,3.28,0,2.32,2.32,0,0,1,0,3.3,2.27,2.27,0,0,1-1.64.67A2.24,2.24,0,0,1,87.22,511.43Zm.65-1.65a1,1,0,0,0,.29.72,1,1,0,0,0,.71.28,1,1,0,0,0,.71-.29,1,1,0,0,0,.29-.72,1,1,0,0,0-1.73-.71A.93.93,0,0,0,87.87,509.78Z"/><path class="cls-1" d="M99.55,517.9v6.22c0,.59-.37.88-1.12.88s-1.12-.29-1.13-.88V517.6a7.86,7.86,0,0,1,.4-3.11,4.37,4.37,0,0,1,.74-1.06c.54-.49,1.88-.73,4-.73a7.24,7.24,0,0,1,2.17.21.81.81,0,0,1,.55.8,1.1,1.1,0,0,1-.31.86,1.07,1.07,0,0,1-.77.29l-1.64-.11a7.48,7.48,0,0,0-1.92.14,1.63,1.63,0,0,0-.56.29,2.06,2.06,0,0,0-.27.56,2.86,2.86,0,0,0-.16.88C99.55,516.92,99.55,517.35,99.55,517.9Z"/><path class="cls-1" d="M43.94,555a3.16,3.16,0,0,1-2.39-.73,3.74,3.74,0,0,1-.67-2.51v-6.88H39.3q-.75,0-.75-1t.75-1h1.58v-3.18c0-.58.37-.87,1.12-.87s1.13.29,1.13.87v3.18h3.18c.51,0,.76.33.76,1s-.25,1-.76,1H43.13v7c0,.68.4,1,1.22,1l2.12-.12q.78,0,.78.9a1.17,1.17,0,0,1-.8,1.2C45.91,555,45.07,555,43.94,555Z"/><path class="cls-1" d="M58.86,552.85c.51,0,.77.31.77.93a1,1,0,0,1-.77,1.12,19,19,0,0,1-4.06.3,6.91,6.91,0,0,1-4.09-.93,3.7,3.7,0,0,1-1.25-3.12v-4.57c0-1.53.38-2.56,1.13-3.09s2.14-.79,4.18-.79,3.43.25,4.14.75S60,545,60,546.58v2a1.33,1.33,0,0,1-.33,1,1.11,1.11,0,0,1-.84.34h-7.1v1.46q0,1.85,3.21,1.83a18,18,0,0,0,2.44-.14A12.93,12.93,0,0,1,58.86,552.85Zm-7.15-6.27v1.29h6v-1.29a1.57,1.57,0,0,0-.61-1.45,5,5,0,0,0-2.38-.38,5.57,5.57,0,0,0-2.39.35A1.57,1.57,0,0,0,51.71,546.58Z"/><path class="cls-1" d="M70.41,551.33V551a.92.92,0,0,0-.59-.86,5,5,0,0,0-2-.27,12.32,12.32,0,0,1-3.23-.45,2.64,2.64,0,0,1-1.46-1,3.22,3.22,0,0,1-.59-2v-.2a2.94,2.94,0,0,1,1.26-2.81,7.8,7.8,0,0,1,3.83-.73,16,16,0,0,1,3.81.33,1,1,0,0,1,.77,1.12c0,.62-.26.93-.77.93a13.52,13.52,0,0,1-1.57-.16,18.12,18.12,0,0,0-2.51-.17,6.26,6.26,0,0,0-2,.22c-.41.15-.62.56-.62,1.23v.24c0,.88.93,1.35,2.78,1.41.77,0,1.55.1,2.33.2a3.51,3.51,0,0,1,2,.86,2.61,2.61,0,0,1,.81,2.09v.31a3.39,3.39,0,0,1-1.27,3.06,7.87,7.87,0,0,1-4.09.81,18,18,0,0,1-4-.32,1,1,0,0,1-.77-1.13c0-.61.25-.92.77-.92A17.25,17.25,0,0,1,65,553a22.63,22.63,0,0,0,2.56.15,5.3,5.3,0,0,0,2-.33A1.43,1.43,0,0,0,70.41,551.33Z"/><path class="cls-1" d="M79.71,555a3.15,3.15,0,0,1-2.38-.73,3.68,3.68,0,0,1-.67-2.51v-6.88H75.08q-.75,0-.75-1t.75-1h1.58v-3.18c0-.58.37-.87,1.12-.87s1.13.29,1.13.87v3.18h3.18c.51,0,.76.33.76,1s-.25,1-.76,1H78.91v7c0,.68.4,1,1.22,1l2.12-.12q.78,0,.78.9a1.17,1.17,0,0,1-.8,1.2C81.69,555,80.85,555,79.71,555Z"/><path class="cls-1" d="M93.58,539.16V543a15.59,15.59,0,0,1,3.13-.33,12.76,12.76,0,0,1,2.36.17,2.81,2.81,0,0,1,2.49,2.26,12.94,12.94,0,0,1,.22,2.72v6.27c0,.59-.37.88-1.12.88s-1.12-.29-1.12-.88v-6a14.67,14.67,0,0,0-.1-1.9,1.49,1.49,0,0,0-.52-1,1.74,1.74,0,0,0-.88-.39,14.29,14.29,0,0,0-1.59-.06,20.45,20.45,0,0,0-2.87.25v9.12c0,.59-.37.88-1.12.88s-1.12-.29-1.13-.88v-15c0-.61.39-.91,1.13-.91S93.58,538.55,93.58,539.16Z"/><path class="cls-1" d="M115,552.85c.51,0,.77.31.77.93a1,1,0,0,1-.77,1.12,19.08,19.08,0,0,1-4.07.3,7,7,0,0,1-4.09-.93,3.7,3.7,0,0,1-1.24-3.12v-4.57c0-1.53.37-2.56,1.12-3.09s2.15-.79,4.19-.79,3.42.25,4.14.75,1.07,1.55,1.07,3.13v2a1.43,1.43,0,0,1-.33,1,1.11,1.11,0,0,1-.84.34h-7.11v1.46q0,1.85,3.21,1.83a18,18,0,0,0,2.45-.14A12.54,12.54,0,0,1,115,552.85Zm-7.16-6.27v1.29h6v-1.29a1.57,1.57,0,0,0-.61-1.45,4.94,4.94,0,0,0-2.38-.38,5.57,5.57,0,0,0-2.39.35A1.59,1.59,0,0,0,107.82,546.58Z"/><path class="cls-1" d="M121.72,547.9v6.22c0,.59-.38.88-1.12.88s-1.12-.29-1.13-.88V547.6a7.67,7.67,0,0,1,.4-3.11,4.11,4.11,0,0,1,.74-1.06c.54-.49,1.88-.73,4-.73a7.27,7.27,0,0,1,2.18.21.81.81,0,0,1,.55.8,1.14,1.14,0,0,1-.31.86,1.07,1.07,0,0,1-.77.29l-1.65-.11a7.38,7.38,0,0,0-1.91.14,1.63,1.63,0,0,0-.56.29,1.6,1.6,0,0,0-.27.56,2.86,2.86,0,0,0-.16.88C121.72,546.92,121.72,547.35,121.72,547.9Z"/></svg>