<svg id="Layer_1" data-name="Layer 1" xmlns="http://www.w3.org/2000/svg" viewBox="0 0 980 120"><defs><style>.cls-1{fill:#d4ac76;}</style></defs><title>text</title><path class="cls-1" d="M856.51,56.87a4.37,4.37,0,0,1-1.75-.37,4.46,4.46,0,0,1-1.5-1l1.1-1.32a3.61,3.61,0,0,0,1,.83,2.72,2.72,0,0,0,1.23.32,1.43,1.43,0,0,0,1-.32,1,1,0,0,0,.39-.8,1.38,1.38,0,0,0-1-1.28l-1-.42a4,4,0,0,1-1.54-1,2.34,2.34,0,0,1-.5-1.58,2.39,2.39,0,0,1,.79-1.76,2.66,2.66,0,0,1,2-.77,4,4,0,0,1,2.86,1.06l-1,1.29a2.37,2.37,0,0,0-1.83-.81,1.24,1.24,0,0,0-.83.27.83.83,0,0,0-.31.65.88.88,0,0,0,.24.64,2.4,2.4,0,0,0,.8.48l1.08.43a2.85,2.85,0,0,1,2.1,2.68,2.6,2.6,0,0,1-.87,2A3.38,3.38,0,0,1,856.51,56.87Z"/><path class="cls-1" d="M867.3,52.83h-3.43V55.2h3.77v1.55h-5.51V47.47h5.4V49h-3.66v2.26h3.43Z"/><path class="cls-1" d="M877.32,56.75l-3.55-9.28h1.81l2.55,6.67,2.52-6.67h1.76l-3.51,9.28Z"/><path class="cls-1" d="M882.62,56.75l3.57-9.28h1.57l3.57,9.28h-1.79l-.49-1.28H884.9l-.5,1.28ZM887,50.07l-1.48,3.85h3Zm1.35-4.18a1.28,1.28,0,0,1-.39.94,1.3,1.3,0,0,1-1,.39,1.33,1.33,0,0,1-1-.38,1.35,1.35,0,0,1,0-1.9,1.33,1.33,0,0,1,1-.38,1.3,1.3,0,0,1,1,.39A1.28,1.28,0,0,1,888.33,45.89Zm-1.68.35a.5.5,0,0,0,.35.14.48.48,0,0,0,.34-.14.5.5,0,0,0,.14-.35.47.47,0,0,0-.15-.35.48.48,0,0,0-.34-.14.49.49,0,0,0-.34.14.48.48,0,0,0,0,.7Z"/><path class="cls-1" d="M893.26,56.75V47.47h3.63a3.07,3.07,0,0,1,2.23.85,2.86,2.86,0,0,1,.9,2.2,2.83,2.83,0,0,1-.67,1.88,3,3,0,0,1-1.73,1l2.49,3.37h-2l-2.41-3.31H895v3.31ZM896.62,49H895v3h1.62a1.7,1.7,0,0,0,1.21-.42,1.37,1.37,0,0,0,.45-1.07,1.49,1.49,0,0,0-.46-1.1A1.69,1.69,0,0,0,896.62,49Z"/><path class="cls-1" d="M901.56,49.14V47.47h7.65v1.67h-3v7.61h-1.74V49.14Z"/><path class="cls-1" d="M842.13,66.83H838.7V69.2h3.76v1.55H837V61.47h5.4V63H838.7v2.26h3.43Z"/><path class="cls-1" d="M845,70.75V61.47h3.63a3.11,3.11,0,0,1,2.24.85,2.89,2.89,0,0,1,.89,2.2,2.82,2.82,0,0,1-.66,1.88,3,3,0,0,1-1.73,1l2.49,3.37h-2l-2.41-3.31h-.74v3.31ZM848.41,63h-1.62v3h1.62a1.69,1.69,0,0,0,1.2-.42,1.37,1.37,0,0,0,.45-1.07,1.46,1.46,0,0,0-.46-1.1A1.68,1.68,0,0,0,848.41,63Z"/><path class="cls-1" d="M854.27,70.75V61.47h3.06a2.76,2.76,0,0,1,2,.78,2.52,2.52,0,0,1,.8,1.91,2.19,2.19,0,0,1-1,1.87,2.56,2.56,0,0,1,1,.83,1.94,1.94,0,0,1,.39,1.18,2.55,2.55,0,0,1-.82,2,2.89,2.89,0,0,1-2.05.75ZM857.12,63h-1.24v2.33h1.39a1.28,1.28,0,0,0,.92-.34,1.14,1.14,0,0,0,.35-.86,1,1,0,0,0-.39-.82A1.64,1.64,0,0,0,857.12,63Zm.27,3.72h-1.51V69.2h1.47a1.48,1.48,0,0,0,1-.35,1.23,1.23,0,0,0,0-1.78A1.47,1.47,0,0,0,857.39,66.74Z"/><path class="cls-1" d="M865,70.89a3.17,3.17,0,0,1-1.9-.58A3,3,0,0,1,862,68.77l1.48-.77a1.72,1.72,0,0,0,.58.89,1.61,1.61,0,0,0,1.05.34,1.27,1.27,0,0,0,1-.48,1.94,1.94,0,0,0,.4-1.26v-6h1.74v6.09a3.23,3.23,0,0,1-.93,2.46A3.28,3.28,0,0,1,865,70.89Z"/><path class="cls-1" d="M877,69.92a3.81,3.81,0,0,1-5.08,0,3.33,3.33,0,0,1-1-2.46v-6h1.74v5.76a2.16,2.16,0,0,0,.48,1.44,1.84,1.84,0,0,0,2.64,0,2.08,2.08,0,0,0,.48-1.41V61.47H878v6A3.29,3.29,0,0,1,877,69.92Z"/><path class="cls-1" d="M880.9,70.75V61.47h2.65a4.55,4.55,0,0,1,3.28,1.33,4.46,4.46,0,0,1,1.37,3.34,4.3,4.3,0,0,1-1.39,3.31,4.71,4.71,0,0,1-3.36,1.3ZM883.57,63h-1.06V69.2h1.07a2.66,2.66,0,0,0,2-.9,3.13,3.13,0,0,0,.83-2.21,3.06,3.06,0,0,0-.84-2.19A2.75,2.75,0,0,0,883.57,63Z"/><path class="cls-1" d="M889.38,70.75,893,61.47h1.57l3.57,9.28h-1.79l-.49-1.28h-4.15l-.5,1.28Zm4.37-6.68-1.49,3.85h3Z"/><path class="cls-1" d="M900,70.75V61.47h1.22l4.56,5.84V61.47h1.74v9.28h-1.16l-4.62-5.9v5.9Z"/><path class="cls-1" d="M910.63,70.75V61.47h2.64a4.58,4.58,0,0,1,3.29,1.33,4.45,4.45,0,0,1,1.36,3.34,4.32,4.32,0,0,1-1.38,3.31,4.71,4.71,0,0,1-3.36,1.3ZM913.29,63h-1.06V69.2h1.07a2.68,2.68,0,0,0,2.06-.9,3.12,3.12,0,0,0,.82-2.21,3.06,3.06,0,0,0-.84-2.19A2.73,2.73,0,0,0,913.29,63Z"/><path class="cls-1" d="M925.56,66.83h-3.43V69.2h3.77v1.55h-5.51V61.47h5.4V63h-3.66v2.26h3.43Z"/></svg>