<svg id="Layer_1" data-name="Layer 1" xmlns="http://www.w3.org/2000/svg" viewBox="0 0 160 600"><defs><style>.cls-1{fill:#001012;}</style></defs><title>text</title><path class="cls-1" d="M20.77,101.94h9.86v1.82H23v5.78h6.5v1.81H23V119H20.77Z"/><path class="cls-1" d="M33,102.38a1.49,1.49,0,0,1,3,0,1.49,1.49,0,0,1-3,0Zm.39,4h2.14V119H33.35Z"/><path class="cls-1" d="M44.48,106.05c3.23,0,5.05,2.32,5.05,5.93a7.76,7.76,0,0,1-.08,1.17H40.92c.16,2.73,1.79,4.45,4.21,4.45a5.71,5.71,0,0,0,3.15-1L49,118a7.52,7.52,0,0,1-4.16,1.3c-3.38,0-6.06-2.47-6.06-6.6S41.6,106.05,44.48,106.05Zm3.17,5.7c0-2.58-1.14-4-3.12-4-1.76,0-3.38,1.46-3.63,4Z"/><path class="cls-1" d="M52.65,100.49h2.13v16.12c0,.67.28.93.6.93a1.79,1.79,0,0,0,.46-.05l.29,1.61a2.87,2.87,0,0,1-1.22.21c-1.61,0-2.26-1-2.26-2.86Z"/><path class="cls-1" d="M63.85,106.05a5.22,5.22,0,0,1,3.54,1.46l-.11-2.16v-4.86h2.16V119H67.67l-.18-1.48h-.08a5.69,5.69,0,0,1-3.82,1.79c-3.17,0-5.22-2.39-5.22-6.6S61,106.05,63.85,106.05Zm.21,11.47a4.27,4.27,0,0,0,3.22-1.74v-6.61a4.37,4.37,0,0,0-3.06-1.32c-2,0-3.64,2-3.64,4.83S61.85,117.52,64.06,117.52Z"/><path class="cls-1" d="M73.71,106.36h1.76l.19,1.82h.07a5.59,5.59,0,0,1,3.93-2.13,3.31,3.31,0,0,1,3.48,2.42c1.33-1.43,2.63-2.42,4.16-2.42,2.6,0,3.85,1.72,3.85,4.94v8H89v-7.72c0-2.37-.75-3.38-2.34-3.38-1,0-2,.65-3.17,1.95V119H81.38v-7.72c0-2.37-.76-3.38-2.37-3.38-.94,0-2,.65-3.17,1.95V119H73.71Z"/><path class="cls-1" d="M102.41,111c0-1.61-.55-3.17-2.6-3.17A6.85,6.85,0,0,0,96,109.17l-.86-1.48a9.42,9.42,0,0,1,5-1.64c3.09,0,4.39,2,4.39,5.2V119h-1.77l-.18-1.51h0a6.86,6.86,0,0,1-4.19,1.82,3.44,3.44,0,0,1-3.71-3.59C94.64,113,97,111.59,102.41,111ZM99,117.6a5.19,5.19,0,0,0,3.46-1.69V112.4c-4.24.52-5.67,1.56-5.67,3.17A1.94,1.94,0,0,0,99,117.6Z"/><path class="cls-1" d="M113.15,106.05a5.19,5.19,0,0,1,3.53,1.46l-.1-2.16v-4.86h2.16V119H117l-.18-1.48h-.08a5.71,5.71,0,0,1-3.82,1.79c-3.17,0-5.23-2.39-5.23-6.6S110.26,106.05,113.15,106.05Zm.21,11.47a4.27,4.27,0,0,0,3.22-1.74v-6.61a4.41,4.41,0,0,0-3.07-1.32c-2,0-3.64,2-3.64,4.83S111.15,117.52,113.36,117.52Z"/><path class="cls-1" d="M127.73,106.05c3.23,0,5,2.32,5,5.93a7.76,7.76,0,0,1-.08,1.17h-8.53c.16,2.73,1.8,4.45,4.21,4.45a5.71,5.71,0,0,0,3.15-1l.75,1.4a7.52,7.52,0,0,1-4.16,1.3c-3.38,0-6.06-2.47-6.06-6.6S124.85,106.05,127.73,106.05Zm3.18,5.7c0-2.58-1.15-4-3.12-4-1.77,0-3.38,1.46-3.64,4Z"/><path class="cls-1" d="M137,106.68a1.63,1.63,0,1,1-1.56,1.63A1.54,1.54,0,0,1,137,106.68Zm0,9.36a1.64,1.64,0,1,1-1.56,1.66A1.57,1.57,0,0,1,137,116Z"/><path class="cls-1" d="M51.4,144.14v-1L55,139l.65.54-3.2,4.14,3.2,4.18-.65.5Zm3.64,0v-1L58.63,139l.62.54-3.17,4.14,3.17,4.18-.62.5Z"/><path class="cls-1" d="M65.07,133.06h9.05l-.21,1H66L64.61,141h6.7l-.2,1H64.45l-1.66,8.27H61.67Z"/><path class="cls-1" d="M83.61,139.62a6.06,6.06,0,0,1,.57,2.73c0,4.68-3.19,8.16-6.6,8.16a3.88,3.88,0,0,1-3.17-1.43l-1.64,1.69-.55-.52L74,148.43a5.94,5.94,0,0,1-.62-2.86c0-4.68,3.2-8.16,6.58-8.16a3.84,3.84,0,0,1,3.25,1.53l1.71-1.77.55.55Zm-1.14.08a2.87,2.87,0,0,0-2.6-1.36c-2.73,0-5.46,3.31-5.46,7.08a6.16,6.16,0,0,0,.36,2.21Zm-7.33,8.65a2.85,2.85,0,0,0,2.52,1.23c2.75,0,5.46-3.31,5.46-7.08a6.51,6.51,0,0,0-.31-2.08Z"/><path class="cls-1" d="M90.11,131.5h1.07l-3.41,17.17a2.45,2.45,0,0,0,0,.52c0,.23.1.39.36.39a.9.9,0,0,0,.45-.11l.07.86a1.82,1.82,0,0,1-.88.18,1,1,0,0,1-1.14-1.12,3.54,3.54,0,0,1,.13-.8Z"/><path class="cls-1" d="M99,137.41c2.71,0,3.75,1.84,3.75,4.42a7.71,7.71,0,0,1-.34,2.18H93.65c-.68,3.93,1.25,5.59,3.72,5.59a5.59,5.59,0,0,0,3.12-1.22l.49.78a6.6,6.6,0,0,1-3.77,1.35c-2.89,0-4.76-1.79-4.76-5.15C92.45,140.63,95.75,137.41,99,137.41Zm2.6,5.74a6.4,6.4,0,0,0,.16-1.48c0-1.69-.73-3.35-2.86-3.35s-4.37,2-5,4.83Z"/><path class="cls-1" d="M104.33,147.63a4.22,4.22,0,0,0,3.54,2c1.72,0,3.2-1.19,3.2-2.62,0-1-.44-1.64-2.39-2.68-2.24-1.2-3.05-2.08-3.05-3.38a3.66,3.66,0,0,1,3.93-3.51,4.72,4.72,0,0,1,3.46,1.51l-.7.67a3.74,3.74,0,0,0-2.79-1.27,2.69,2.69,0,0,0-2.86,2.44c0,1.2,1.1,1.82,2.32,2.5,2.7,1.45,3.12,2.42,3.12,3.53,0,2.29-1.87,3.72-4.37,3.72a5.29,5.29,0,0,1-4.16-2.31Z"/><path class="cls-1" d="M43.29,178.83a4.2,4.2,0,0,0,3.53,2c1.72,0,3.2-1.19,3.2-2.62,0-1-.44-1.64-2.39-2.68-2.24-1.2-3-2.08-3-3.38a3.66,3.66,0,0,1,3.92-3.51,4.73,4.73,0,0,1,3.46,1.5l-.7.68a3.74,3.74,0,0,0-2.78-1.27A2.69,2.69,0,0,0,45.63,172c0,1.2,1.09,1.82,2.31,2.5,2.7,1.45,3.12,2.42,3.12,3.53,0,2.29-1.87,3.72-4.37,3.72a5.29,5.29,0,0,1-4.16-2.31Z"/><path class="cls-1" d="M53.82,176.77c0-4.68,3.19-8.16,6.57-8.16,2.58,0,4.24,1.79,4.24,4.94,0,4.65-3.2,8.16-6.6,8.16C55.48,181.71,53.82,179.89,53.82,176.77Zm1.06-.15c0,2.7,1.17,4.16,3.25,4.16,2.68,0,5.41-3.25,5.41-7.1,0-2.71-1.17-4.14-3.22-4.14C57.64,169.54,54.88,172.79,54.88,176.62Z"/><path class="cls-1" d="M69.34,168.92h.88l-.28,2H70c1.4-1.3,2.94-2.29,4.16-2.29a2.54,2.54,0,0,1,2.89,2.6c1.71-1.67,3.32-2.6,4.55-2.6,2.08,0,2.93,1.22,2.93,3a7.1,7.1,0,0,1-.2,1.69l-1.62,8.06H81.66l1.61-7.9a7,7,0,0,0,.21-1.62c0-1.53-.65-2.31-2.16-2.31-.8,0-2.41.78-4.16,2.62l-1.84,9.21H74.25l1.59-7.9a7.61,7.61,0,0,0,.21-1.62c0-1.53-.65-2.31-2.16-2.31-.81,0-2.42.78-4.14,2.62l-1.84,9.21H66.82Z"/><path class="cls-1" d="M98.61,168.61c2.71,0,3.75,1.84,3.75,4.42a7.37,7.37,0,0,1-.34,2.18H93.31c-.68,3.93,1.25,5.59,3.72,5.59a5.56,5.56,0,0,0,3.12-1.22l.49.78a6.6,6.6,0,0,1-3.77,1.35c-2.88,0-4.76-1.79-4.76-5.15C92.11,171.83,95.42,168.61,98.61,168.61Zm2.6,5.74a6.4,6.4,0,0,0,.16-1.48c0-1.69-.73-3.35-2.86-3.35s-4.37,2-5,4.83Z"/><path class="cls-1" d="M106.83,168.92h.88l-.28,2h.1c1.54-1.3,2.94-2.29,4.47-2.29,2.14,0,3,1.22,3,3a6.66,6.66,0,0,1-.21,1.69l-1.61,8.06h-1.07l1.61-7.9a9.18,9.18,0,0,0,.21-1.62c0-1.53-.65-2.31-2.23-2.31-1.1,0-2.55.78-4.42,2.62l-1.85,9.21h-1.09Z"/><path class="cls-1" d="M24.87,200.22l1.66-.1.57-2.86c.52-2.47,1.8-3.67,3.43-3.67a3.47,3.47,0,0,1,1.95.58L32,195a2.77,2.77,0,0,0-1.49-.44c-1.24,0-2.05,1.22-2.36,2.73l-.57,2.86h2.75l-.21.94H27.39L25.1,212.6H24l2.29-11.54H24.71Z"/><path class="cls-1" d="M30.35,208c0-4.68,3.2-8.16,6.58-8.16,2.57,0,4.24,1.79,4.24,4.94,0,4.65-3.2,8.16-6.61,8.16C32,212.91,30.35,211.09,30.35,208Zm1.07-.15c0,2.7,1.17,4.16,3.25,4.16,2.68,0,5.41-3.25,5.41-7.1,0-2.71-1.17-4.14-3.23-4.14C34.17,200.74,31.42,204,31.42,207.82Z"/><path class="cls-1" d="M45.87,200.12h.89l-.39,2.37h.1c1-1.49,2.32-2.68,3.93-2.68a3,3,0,0,1,1.12.21l-.42,1a2.28,2.28,0,0,0-1-.21c-1.32,0-2.91,1.28-4,3.51l-1.64,8.27H43.35Z"/><path class="cls-1" d="M55.34,193.9H56.4L53,211.07a2.45,2.45,0,0,0,0,.52c0,.23.1.39.36.39a.87.87,0,0,0,.44-.11l.08.86a1.85,1.85,0,0,1-.88.18,1,1,0,0,1-1.15-1.12,3.54,3.54,0,0,1,.13-.8Z"/><path class="cls-1" d="M64.18,199.81c2.7,0,3.74,1.84,3.74,4.42a7.37,7.37,0,0,1-.34,2.18H58.87c-.67,3.93,1.25,5.59,3.72,5.59a5.53,5.53,0,0,0,3.12-1.22l.5.78a6.63,6.63,0,0,1-3.77,1.35c-2.89,0-4.76-1.79-4.76-5.15C57.68,203,61,199.81,64.18,199.81Zm2.6,5.74a7,7,0,0,0,.15-1.48c0-1.69-.72-3.35-2.86-3.35s-4.36,2-5,4.83Z"/><path class="cls-1" d="M72.39,200.12h.89l-.29,2h.11c1.53-1.3,2.93-2.29,4.47-2.29,2.13,0,3,1.22,3,3a6.66,6.66,0,0,1-.21,1.69l-1.61,8.06H77.65l1.61-7.9a9.18,9.18,0,0,0,.21-1.62c0-1.53-.65-2.31-2.24-2.31-1.09,0-2.55.78-4.42,2.63L71,212.6H69.87Z"/><path class="cls-1" d="M94.55,200.12l-2.74,13.55c-.62,3.06-2.49,4.94-5.38,4.94a6.52,6.52,0,0,1-4.24-1.72l.6-.78a5.42,5.42,0,0,0,3.69,1.56c2.45,0,3.8-1.74,4.37-4.39l.63-2.81h-.11a6.75,6.75,0,0,1-4.52,2.18c-2.13,0-3.62-1.56-3.62-4.44,0-4.63,3.33-8.4,6.64-8.4a3.55,3.55,0,0,1,3.19,2h.11l.49-1.72Zm-2.92,9,1.3-6.16c-1-1.62-1.92-2.27-3.09-2.27-2.81,0-5.51,3.7-5.51,7.28,0,2.45,1,3.67,2.73,3.67A6.87,6.87,0,0,0,91.63,209.17Z"/><path class="cls-1" d="M103.23,199.81c2.7,0,3.74,1.84,3.74,4.42a7.76,7.76,0,0,1-.33,2.18H97.92c-.67,3.93,1.25,5.59,3.72,5.59a5.53,5.53,0,0,0,3.12-1.22l.5.78a6.63,6.63,0,0,1-3.77,1.35c-2.89,0-4.76-1.79-4.76-5.15C96.73,203,100,199.81,103.23,199.81Zm2.6,5.74a7,7,0,0,0,.15-1.48c0-1.69-.72-3.35-2.85-3.35s-4.37,2-5,4.83Z"/><path class="cls-1" d="M112.67,193.9h1.06l-3.4,17.17a2.05,2.05,0,0,0-.06.52.34.34,0,0,0,.37.39.87.87,0,0,0,.44-.11l.08.86a1.89,1.89,0,0,1-.89.18,1,1,0,0,1-1.14-1.12,3.54,3.54,0,0,1,.13-.8Z"/><path class="cls-1" d="M114.64,210a4.2,4.2,0,0,0,3.54,2c1.71,0,3.2-1.19,3.2-2.62,0-1-.45-1.64-2.4-2.68-2.23-1.2-3-2.08-3-3.38a3.66,3.66,0,0,1,3.93-3.51,4.75,4.75,0,0,1,3.46,1.5l-.71.68a3.7,3.7,0,0,0-2.78-1.27,2.69,2.69,0,0,0-2.86,2.44c0,1.2,1.09,1.82,2.32,2.5,2.7,1.45,3.12,2.42,3.12,3.53,0,2.29-1.88,3.72-4.37,3.72a5.29,5.29,0,0,1-4.16-2.31Z"/><path class="cls-1" d="M131.62,199.81c2.7,0,3.74,1.84,3.74,4.42a7.76,7.76,0,0,1-.33,2.18h-8.71c-.68,3.93,1.24,5.59,3.71,5.59a5.53,5.53,0,0,0,3.12-1.22l.5.78a6.63,6.63,0,0,1-3.77,1.35c-2.89,0-4.76-1.79-4.76-5.15C125.12,203,128.42,199.81,131.62,199.81Zm2.6,5.74a7,7,0,0,0,.16-1.48c0-1.69-.73-3.35-2.86-3.35s-4.37,2-5.05,4.83Z"/><path class="cls-1" d="M52.41,231a3.61,3.61,0,0,1,3.23,2h.07l.5-1.71h.88L54.6,243.8h-.91l.28-2h-.1a6.62,6.62,0,0,1-4.6,2.29c-2.19,0-3.64-1.58-3.64-4.5C45.63,234.8,49,231,52.41,231Zm1.77,9.46,1.3-6.26c-.91-1.62-1.92-2.27-3.09-2.27-3,0-5.67,3.72-5.67,7.47,0,2.52,1.06,3.77,2.78,3.77S52.7,242.19,54.18,240.47Z"/><path class="cls-1" d="M59.69,231.32h1.07L62,239.2c.21,1.22.34,2.52.52,3.69h.11c.62-1.22,1.3-2.47,2-3.69l4.24-7.88h1.11L63.05,243.8H61.67Z"/><path class="cls-1" d="M75.5,231.32h1.07l1.19,7.88c.21,1.22.34,2.52.52,3.69h.11c.62-1.22,1.3-2.47,2-3.69l4.23-7.88h1.12L78.85,243.8H77.48Z"/><path class="cls-1" d="M92.82,231A3.61,3.61,0,0,1,96,233h.08l.49-1.71h.89L95,243.8h-.91l.29-2h-.11a6.58,6.58,0,0,1-4.6,2.29c-2.18,0-3.64-1.58-3.64-4.5C86,234.8,89.36,231,92.82,231Zm1.76,9.46,1.3-6.26c-.91-1.62-1.92-2.27-3.09-2.27-3,0-5.67,3.72-5.67,7.47,0,2.52,1.07,3.77,2.78,3.77S93.1,242.19,94.58,240.47Zm-3.14-12.61a2.45,2.45,0,0,1,2.34-2.5,1.81,1.81,0,0,1,1.9,2,2.45,2.45,0,0,1-2.32,2.49A1.82,1.82,0,0,1,91.44,227.86Zm.78-.05c0,.83.44,1.4,1.19,1.4a1.7,1.7,0,0,0,1.51-1.79c0-.83-.44-1.41-1.19-1.41A1.71,1.71,0,0,0,92.22,227.81Z"/><path class="cls-1" d="M102.15,231.32H103l-.39,2.37h.11c1-1.49,2.31-2.68,3.92-2.68a3.2,3.2,0,0,1,1.12.2l-.41,1a2.32,2.32,0,0,0-1-.21c-1.33,0-2.91,1.27-4,3.51l-1.64,8.27H99.63Z"/><path class="cls-1" d="M110.52,232.25h-2l.16-.83,2-.1.85-3.56h.91l-.72,3.56h3.38l-.21.93h-3.38l-1.69,8.2a5.87,5.87,0,0,0-.11,1c0,1.15.42,1.75,1.77,1.75a3.31,3.31,0,0,0,1.51-.45l.29.81a4.38,4.38,0,0,1-2,.57,2.29,2.29,0,0,1-2.62-2.47,10.2,10.2,0,0,1,.1-1.25Z"/><path class="cls-1" d="M32.35,262.21c2.71,0,3.75,1.84,3.75,4.42a7.37,7.37,0,0,1-.34,2.18H27.05c-.68,3.93,1.25,5.59,3.72,5.59a5.56,5.56,0,0,0,3.12-1.22l.49.78a6.6,6.6,0,0,1-3.77,1.35c-2.88,0-4.76-1.79-4.76-5.15C25.85,265.43,29.16,262.21,32.35,262.21ZM35,268a6.4,6.4,0,0,0,.16-1.48c0-1.69-.73-3.35-2.86-3.35s-4.37,2-5,4.83Z"/><path class="cls-1" d="M49.46,262.52l-2.73,13.55c-.62,3.06-2.5,4.94-5.38,4.94a6.5,6.5,0,0,1-4.24-1.72l.6-.78a5.42,5.42,0,0,0,3.69,1.56c2.45,0,3.8-1.74,4.37-4.39l.62-2.81h-.1a6.75,6.75,0,0,1-4.52,2.18c-2.14,0-3.62-1.56-3.62-4.44,0-4.63,3.33-8.4,6.63-8.4a3.57,3.57,0,0,1,3.2,2h.1l.5-1.71Zm-2.91,9.05,1.3-6.16c-1-1.62-1.92-2.27-3.09-2.27-2.81,0-5.52,3.7-5.52,7.28,0,2.45,1,3.67,2.73,3.67A6.89,6.89,0,0,0,46.55,271.57Z"/><path class="cls-1" d="M58.15,262.21c2.7,0,3.74,1.84,3.74,4.42a7.37,7.37,0,0,1-.34,2.18H52.84c-.68,3.93,1.25,5.59,3.72,5.59a5.56,5.56,0,0,0,3.12-1.22l.49.78a6.6,6.6,0,0,1-3.77,1.35c-2.88,0-4.75-1.79-4.75-5.15C51.65,265.43,55,262.21,58.15,262.21Zm2.6,5.74a7,7,0,0,0,.15-1.48c0-1.69-.73-3.35-2.86-3.35s-4.37,2-5,4.83Z"/><path class="cls-1" d="M66.07,263.46H64.13l.15-.84,2-.1.86-3.56h.91l-.73,3.56h3.38l-.21.94H67.14l-1.69,8.19a5.9,5.9,0,0,0-.1,1c0,1.15.41,1.75,1.76,1.75a3.28,3.28,0,0,0,1.51-.45l.29.81a4.34,4.34,0,0,1-2,.57,2.3,2.3,0,0,1-2.63-2.47,10.2,10.2,0,0,1,.1-1.25Z"/><path class="cls-1" d="M78.76,263.46h-2l.16-.84,2-.1.85-3.56h.92L80,262.52h3.38l-.21.94H79.83l-1.69,8.19a5.87,5.87,0,0,0-.11,1c0,1.15.42,1.75,1.77,1.75a3.28,3.28,0,0,0,1.51-.45l.29.81a4.38,4.38,0,0,1-2,.57A2.3,2.3,0,0,1,77,272.84a10.2,10.2,0,0,1,.1-1.25Z"/><path class="cls-1" d="M90.18,262.21c2.7,0,3.74,1.84,3.74,4.42a7.37,7.37,0,0,1-.34,2.18H84.87c-.67,3.93,1.25,5.59,3.72,5.59a5.53,5.53,0,0,0,3.12-1.22l.5.78a6.63,6.63,0,0,1-3.77,1.35c-2.89,0-4.76-1.79-4.76-5.15C83.68,265.43,87,262.21,90.18,262.21Zm2.6,5.74a7,7,0,0,0,.15-1.48c0-1.69-.72-3.35-2.86-3.35s-4.36,2-5,4.83Z"/><path class="cls-1" d="M102.76,262.21a3.59,3.59,0,0,1,3.22,2h.08l.5-1.71h.88L104.94,275H104l.29-2h-.1a6.62,6.62,0,0,1-4.61,2.29c-2.18,0-3.64-1.58-3.64-4.5C96,266,99.3,262.21,102.76,262.21Zm1.77,9.46,1.3-6.26c-.91-1.62-1.93-2.27-3.1-2.27-3,0-5.66,3.72-5.66,7.47,0,2.52,1.06,3.77,2.78,3.77S103.05,273.39,104.53,271.67Z"/><path class="cls-1" d="M112.09,262.52H113l-.29,2h.11c1.4-1.31,2.93-2.29,4.16-2.29a2.54,2.54,0,0,1,2.88,2.6c1.72-1.67,3.33-2.6,4.55-2.6,2.08,0,2.94,1.22,2.94,3a6.66,6.66,0,0,1-.21,1.69L125.51,275h-1.09l1.61-7.9a7,7,0,0,0,.21-1.62c0-1.53-.65-2.31-2.16-2.31-.81,0-2.42.78-4.16,2.63l-1.85,9.2H117l1.58-7.9a7,7,0,0,0,.21-1.62c0-1.53-.65-2.31-2.16-2.31-.8,0-2.41.78-4.13,2.63l-1.85,9.2h-1.09Z"/><path class="cls-1" d="M133.44,268.45l-3.17-4.14.62-.54,3.59,4.18v1l-3.59,4.19-.62-.5Zm3.67,0-3.18-4.14.63-.54,3.56,4.18v1l-3.56,4.19-.63-.5Z"/></svg>