<svg id="Layer_1" data-name="Layer 1" xmlns="http://www.w3.org/2000/svg" viewBox="0 0 300 600"><defs><style>.cls-1{fill:#d5ad77;}</style></defs><title>text</title><path class="cls-1" d="M114.35,316.52l-4.83-12.37h1.94l3.71,9.5,3.71-9.5h1.91L116,316.52Z"/><path class="cls-1" d="M124.19,316.52V304.15h1.73v12.37Z"/><path class="cls-1" d="M137.68,316.52V304.15h6.75v1.65h-5v3.89h4.45v1.65h-4.45v5.18Z"/><path class="cls-1" d="M148.27,316.52V304.15H150v12.37Z"/><path class="cls-1" d="M155.07,316.52V304.15h4.59a3.87,3.87,0,0,1,2.79,1.08,4,4,0,0,1,.19,5.37,3.6,3.6,0,0,1-2.36,1.21l3.58,4.71h-2.13l-3.55-4.72H156.8v4.72Zm4.36-10.72H156.8v4.46h2.62a2.51,2.51,0,0,0,1.75-.61,2.25,2.25,0,0,0,0-3.21A2.42,2.42,0,0,0,159.43,305.8Z"/><path class="cls-1" d="M166.42,316.52l5-12.37H173l4.87,12.37H175.9l-.74-1.9H169.1l-.77,1.9Zm5.74-9.53-2.4,6h4.75Z"/><path class="cls-1" d="M181.25,316.52V304.15h4.59a3.87,3.87,0,0,1,2.79,1.08,3.73,3.73,0,0,1,1.12,2.79,3.68,3.68,0,0,1-.93,2.58,3.64,3.64,0,0,1-2.37,1.21l3.58,4.71h-2.12l-3.56-4.72H183v4.72Zm4.36-10.72H183v4.46h2.61a2.49,2.49,0,0,0,1.75-.61,2.22,2.22,0,0,0,0-3.21A2.4,2.4,0,0,0,185.61,305.8Z"/><path class="cls-1" d="M107.66,337.52v-1.09l4.94-6.53a2.45,2.45,0,0,0,.69-1.56,1.76,1.76,0,0,0-.54-1.32,1.89,1.89,0,0,0-1.39-.54,1.73,1.73,0,0,0-1.36.6,2.36,2.36,0,0,0-.57,1.56h-1.72a3.65,3.65,0,0,1,1-2.62,3.48,3.48,0,0,1,2.63-1.08,3.73,3.73,0,0,1,2.63,1,3.23,3.23,0,0,1,1,2.43,4.46,4.46,0,0,1-1.3,2.74l-3.86,4.9h5.32v1.54Z"/><path class="cls-1" d="M122.55,337.71a4.2,4.2,0,0,1-2.5-.76,3.72,3.72,0,0,1-1.47-2l1.56-.6a2.52,2.52,0,0,0,.9,1.24,2.47,2.47,0,0,0,1.51.48A2.41,2.41,0,0,0,125,333.6a2.34,2.34,0,0,0-.72-1.74,2.46,2.46,0,0,0-1.75-.69,2.3,2.3,0,0,0-1.75.75h-1.73v-6.77H126v1.65h-5.2v3.32a3.23,3.23,0,0,1,1.75-.49,4.17,4.17,0,0,1,3,1.13,3.79,3.79,0,0,1,1.16,2.84,3.94,3.94,0,0,1-1.22,2.9A4.08,4.08,0,0,1,122.55,337.71Z"/><path class="cls-1" d="M136.09,337.52l5-12.37h1.57l4.87,12.37h-1.91l-.75-1.9h-6.06l-.77,1.9Zm5.74-9.53-2.4,6h4.75Zm1.2-3.68a1.63,1.63,0,0,1-1.2.49,1.61,1.61,0,0,1-1.19-.49,1.69,1.69,0,0,1,0-2.38,1.61,1.61,0,0,1,1.19-.49,1.69,1.69,0,0,1,1.2,2.87Zm-1.2-.5a.62.62,0,0,0,.47-.21.65.65,0,0,0,.2-.48.64.64,0,0,0-.2-.49.65.65,0,0,0-.47-.2.7.7,0,0,0-.49.2.68.68,0,0,0-.2.49.69.69,0,0,0,.2.48A.67.67,0,0,0,141.83,323.81Z"/><path class="cls-1" d="M150.92,337.52V325.15h4.59a3.87,3.87,0,0,1,2.79,1.08,3.73,3.73,0,0,1,1.12,2.79,3.68,3.68,0,0,1-.93,2.58,3.6,3.6,0,0,1-2.36,1.21l3.58,4.71h-2.13L154,332.8h-1.38v4.72Zm4.36-10.72h-2.63v4.46h2.62a2.46,2.46,0,0,0,1.74-.61,2.23,2.23,0,0,0,0-3.21A2.42,2.42,0,0,0,155.28,326.8Z"/><path class="cls-1" d="M169.08,337.52l5-12.37h1.56l4.87,12.37h-1.91l-.75-1.9h-6.06l-.77,1.9Zm5.75-9.53-2.41,6h4.75Z"/><path class="cls-1" d="M186.39,337.52l-4.83-12.37h1.94l3.71,9.5,3.71-9.5h1.91L188,337.52Z"/><path class="cls-1" d="M89.34,358.52v-5.36h-6v5.36H81.59V346.15h1.73v5.36h6v-5.36h1.73v12.37Z"/><path class="cls-1" d="M100.43,358.73a4.29,4.29,0,0,1-3.22-1.3A4.48,4.48,0,0,1,96,354.17v-8h1.72v7.91a3.2,3.2,0,0,0,.74,2.16,2.54,2.54,0,0,0,2,.86,2.6,2.6,0,0,0,2-.84,3.12,3.12,0,0,0,.75-2.16v-7.93H105v8a4.48,4.48,0,0,1-1.26,3.26A4.3,4.3,0,0,1,100.43,358.73Z"/><path class="cls-1" d="M113.09,358.68a5.84,5.84,0,0,1-2.32-.5,6,6,0,0,1-2-1.33l1.21-1.4a4.74,4.74,0,0,0,1.43,1.13,3.64,3.64,0,0,0,1.71.45,2.41,2.41,0,0,0,1.6-.52,1.66,1.66,0,0,0,.61-1.32,2.17,2.17,0,0,0-1.56-2l-1.46-.58a5,5,0,0,1-2-1.33,2.87,2.87,0,0,1-.67-1.95,3.12,3.12,0,0,1,1-2.34,3.55,3.55,0,0,1,2.53-1,5.06,5.06,0,0,1,3.59,1.37l-1,1.39a3.43,3.43,0,0,0-2.55-1.11,1.92,1.92,0,0,0-1.31.43,1.43,1.43,0,0,0-.51,1.14,1.36,1.36,0,0,0,.37,1,3.55,3.55,0,0,0,1.26.77l1.48.59c1.81.73,2.67,1.91,2.6,3.54a3.37,3.37,0,0,1-1.09,2.6A4.17,4.17,0,0,1,113.09,358.68Z"/><path class="cls-1" d="M121.35,358.52V346.15h3.32A6.23,6.23,0,0,1,129,356.76a6,6,0,0,1-4.39,1.76Zm3.38-10.72h-1.65v9.07h1.7a4,4,0,0,0,3-1.32,4.61,4.61,0,0,0,1.23-3.24,4.41,4.41,0,0,0-1.27-3.21A4.12,4.12,0,0,0,124.73,347.8Z"/><path class="cls-1" d="M135.05,358.52V346.15h4.59a3.83,3.83,0,0,1,2.78,1.08,4.06,4.06,0,0,1,.2,5.37,3.64,3.64,0,0,1-2.37,1.21l3.58,4.71h-2.12l-3.56-4.72h-1.37v4.72Zm4.36-10.72h-2.63v4.46h2.61a2.49,2.49,0,0,0,1.75-.61,2.22,2.22,0,0,0,0-3.21A2.38,2.38,0,0,0,139.41,347.8Z"/><path class="cls-1" d="M153.46,358.74a6.07,6.07,0,0,1-4.46-1.83,6.63,6.63,0,0,1,0-9.17,6.31,6.31,0,0,1,8.9,0,6.59,6.59,0,0,1,0,9.16A6.08,6.08,0,0,1,153.46,358.74Zm-3.24-3a4.46,4.46,0,0,0,6.47,0,4.93,4.93,0,0,0,0-6.76,4.46,4.46,0,0,0-6.47,0,5,5,0,0,0,0,6.76Zm2.08-10.87a.83.83,0,0,1-.62.27.8.8,0,0,1-.61-.27,1,1,0,0,1-.24-.67,1,1,0,0,1,.24-.67.78.78,0,0,1,.61-.28.8.8,0,0,1,.62.28.93.93,0,0,1,.25.67A1,1,0,0,1,152.3,344.84Zm3.43,0a.81.81,0,0,1-.62.27.79.79,0,0,1-.61-.27,1,1,0,0,1-.25-.67.93.93,0,0,1,.25-.67.77.77,0,0,1,.61-.28.79.79,0,0,1,.62.28,1,1,0,0,1,.25.67A1,1,0,0,1,155.73,344.84Z"/><path class="cls-1" d="M164.09,358.52V346.15h1.78l4,6.59,4.05-6.59h1.69v12.37h-1.72v-9.14l-.06,0-4,6.39-3.9-6.3h-.11v9.08Z"/><path class="cls-1" d="M180.68,358.52V346.15h1.78l4,6.59,4.05-6.59h1.69v12.37h-1.72v-9.14l-.06,0-4,6.39-3.9-6.3h-.11v9.08Z"/><path class="cls-1" d="M195.71,358.52l5-12.37h1.56l4.87,12.37h-1.91l-.74-1.9h-6.07l-.76,1.9Zm5.74-9.53-2.4,6h4.75Z"/><path class="cls-1" d="M210.54,358.52V346.15h4.59a3.83,3.83,0,0,1,2.78,1.08,4.06,4.06,0,0,1,.2,5.37,3.64,3.64,0,0,1-2.37,1.21l3.58,4.71h-2.13l-3.55-4.72h-1.37v4.72Zm4.36-10.72h-2.63v4.46h2.61a2.49,2.49,0,0,0,1.75-.61,2.25,2.25,0,0,0,0-3.21A2.4,2.4,0,0,0,214.9,347.8Z"/></svg>