<svg id="Layer_1" data-name="Layer 1" xmlns="http://www.w3.org/2000/svg" viewBox="0 0 300 250"><defs><style>.cls-1{fill:#010121;}</style></defs><title>text</title><path class="cls-1" d="M107.13,92.29h2.36V99.4h8.84V92.29h2.36v17.22h-2.36v-8.05h-8.84v8.05h-2.36Z"/><path class="cls-1" d="M130.85,101.91a1.13,1.13,0,0,0,1-.61,1.79,1.79,0,0,0,.14-.81,1.73,1.73,0,0,0-.76-1.57,4.05,4.05,0,0,0-2.2-.49,2.76,2.76,0,0,0-2.33.9,3,3,0,0,0-.51,1.47h-2a3.64,3.64,0,0,1,1.51-3.24,6.12,6.12,0,0,1,3.35-.91,6.81,6.81,0,0,1,3.59.84,2.86,2.86,0,0,1,1.37,2.63v7.23a1,1,0,0,0,.14.53.66.66,0,0,0,.57.2l.31,0,.38,0v1.55a4.77,4.77,0,0,1-.75.18,6,6,0,0,1-.7,0,1.74,1.74,0,0,1-1.59-.78,3,3,0,0,1-.36-1.16,5.52,5.52,0,0,1-1.85,1.47,5.79,5.79,0,0,1-2.66.62,4,4,0,0,1-2.85-1.06,3.52,3.52,0,0,1-1.11-2.65,3.4,3.4,0,0,1,1.09-2.71,5.18,5.18,0,0,1,2.86-1.18Zm-4.44,5.7a2.46,2.46,0,0,0,1.58.52,4.89,4.89,0,0,0,2.16-.51,2.9,2.9,0,0,0,1.76-2.8v-1.69a3.77,3.77,0,0,1-1,.41,7.34,7.34,0,0,1-1.19.23l-1.28.17a4.83,4.83,0,0,0-1.72.48,1.86,1.86,0,0,0-1,1.75A1.72,1.72,0,0,0,126.41,107.61Z"/><path class="cls-1" d="M137.53,97h2v2.16a5,5,0,0,1,1.21-1.54,3.16,3.16,0,0,1,2.22-.91l.2,0,.48,0V99l-.35,0h-.35a3,3,0,0,0-2.44,1,3.53,3.53,0,0,0-.86,2.36v7.22h-2.11Z"/><path class="cls-1" d="M159,97.34a5.9,5.9,0,0,1,1.27,1.23V92.23h2v17.28h-1.9v-1.75a4.63,4.63,0,0,1-1.74,1.68,5,5,0,0,1-2.3.51,4.67,4.67,0,0,1-3.62-1.76,6.92,6.92,0,0,1-1.53-4.7,8.14,8.14,0,0,1,1.4-4.75,5,5,0,0,1,6.39-1.4Zm-4.71,9.41a3,3,0,0,0,2.73,1.36,2.85,2.85,0,0,0,2.39-1.26,5.93,5.93,0,0,0,.94-3.61,5.37,5.37,0,0,0-1-3.53A3,3,0,0,0,157,98.57a3.17,3.17,0,0,0-2.57,1.22,5.65,5.65,0,0,0-1,3.59A6.2,6.2,0,0,0,154.32,106.75Z"/><path class="cls-1" d="M173.23,97.3a4.77,4.77,0,0,1,1.9,1.62,5.64,5.64,0,0,1,.84,2.22,14.86,14.86,0,0,1,.19,2.76H167a5.43,5.43,0,0,0,.89,3.08,3,3,0,0,0,2.59,1.15,3.32,3.32,0,0,0,2.62-1.09,3.72,3.72,0,0,0,.78-1.47H176a4.5,4.5,0,0,1-.55,1.54,5.29,5.29,0,0,1-1,1.39,4.87,4.87,0,0,1-2.36,1.26,6.83,6.83,0,0,1-1.71.19,5.27,5.27,0,0,1-4-1.7,6.67,6.67,0,0,1-1.62-4.78,7.29,7.29,0,0,1,1.63-4.91,5.37,5.37,0,0,1,4.27-1.89A5.64,5.64,0,0,1,173.23,97.3Zm.76,4.93a5.5,5.5,0,0,0-.6-2.19,3,3,0,0,0-2.87-1.53,3.15,3.15,0,0,0-2.41,1,4,4,0,0,0-1,2.67Z"/><path class="cls-1" d="M178.89,97h2v2.16a4.82,4.82,0,0,1,1.21-1.54,3.15,3.15,0,0,1,2.21-.91l.2,0,.48,0V99l-.34,0h-.35a3,3,0,0,0-2.45,1,3.57,3.57,0,0,0-.85,2.36v7.22h-2.11Z"/><path class="cls-1" d="M194.57,97.3a4.77,4.77,0,0,1,1.9,1.62,5.64,5.64,0,0,1,.84,2.22,14.86,14.86,0,0,1,.19,2.76h-9.13a5.43,5.43,0,0,0,.89,3.08,3,3,0,0,0,2.59,1.15,3.32,3.32,0,0,0,2.62-1.09,3.85,3.85,0,0,0,.78-1.47h2.07a4.5,4.5,0,0,1-.55,1.54,5.29,5.29,0,0,1-1,1.39,4.87,4.87,0,0,1-2.36,1.26,6.83,6.83,0,0,1-1.71.19,5.27,5.27,0,0,1-3.95-1.7,6.67,6.67,0,0,1-1.62-4.78,7.29,7.29,0,0,1,1.63-4.91A5.37,5.37,0,0,1,192,96.67,5.64,5.64,0,0,1,194.57,97.3Zm.76,4.93a5.5,5.5,0,0,0-.6-2.19,3,3,0,0,0-2.87-1.53,3.15,3.15,0,0,0-2.41,1,4,4,0,0,0-1,2.67Z"/><path class="cls-1" d="M88.88,125.75v8.34a3.57,3.57,0,0,0,.3,1.57,2,2,0,0,0,2,1.12,2.88,2.88,0,0,0,2.92-2,8,8,0,0,0,.42-2.89v-6.17h2.11v12.56h-2l0-1.86a4.07,4.07,0,0,1-1,1.21,4.32,4.32,0,0,1-2.87,1,3.69,3.69,0,0,1-3.59-1.8,5.46,5.46,0,0,1-.52-2.56v-8.54Z"/><path class="cls-1" d="M101.1,121.92a3.23,3.23,0,0,1,2.85-1.08l.41,0,.48,0v1.92l-.48,0h-.28c-.65,0-1,.16-1.16.5a9.48,9.48,0,0,0-.19,2.53h2.11v1.67h-2.11v10.83h-2.08V127.48H98.9v-1.67h1.75v-2A3.81,3.81,0,0,1,101.1,121.92Z"/><path class="cls-1" d="M115.88,127a6.31,6.31,0,0,1,1.66,4.75,8.24,8.24,0,0,1-1.46,5,5.3,5.3,0,0,1-4.55,2,5.12,5.12,0,0,1-4.09-1.75,6.93,6.93,0,0,1-1.51-4.7,7.49,7.49,0,0,1,1.59-5,5.35,5.35,0,0,1,4.29-1.88A5.62,5.62,0,0,1,115.88,127Zm-1.31,8.34a8,8,0,0,0,.77-3.53,6.25,6.25,0,0,0-.56-2.86,3.11,3.11,0,0,0-3-1.73,3,3,0,0,0-2.78,1.48,6.87,6.87,0,0,0-.87,3.55,6,6,0,0,0,.87,3.34,3.05,3.05,0,0,0,2.76,1.33A2.86,2.86,0,0,0,114.57,135.35Z"/><path class="cls-1" d="M120.19,125.75h2v2.17a4.76,4.76,0,0,1,1.2-1.54,3.16,3.16,0,0,1,2.22-.91l.2,0,.48,0v2.23l-.35-.05h-.34a3,3,0,0,0-2.45,1,3.58,3.58,0,0,0-.86,2.36v7.22h-2.11Z"/><path class="cls-1" d="M130.24,125.75v8.34a3.58,3.58,0,0,0,.29,1.57,2.07,2.07,0,0,0,2.05,1.12,2.89,2.89,0,0,0,2.92-2,8,8,0,0,0,.42-2.89v-6.17H138v12.56h-2l0-1.86a4.23,4.23,0,0,1-1,1.21,4.34,4.34,0,0,1-2.88,1,3.67,3.67,0,0,1-3.58-1.8,5.34,5.34,0,0,1-.52-2.56v-8.54Z"/><path class="cls-1" d="M141.9,122.25H144v3.5h2v1.73h-2v8.19a.9.9,0,0,0,.44.88,2,2,0,0,0,.82.13h.33l.41,0v1.68a4.53,4.53,0,0,1-.75.15,7.69,7.69,0,0,1-.85,0,2.3,2.3,0,0,1-2-.75,3.36,3.36,0,0,1-.52-2v-8.31h-1.7v-1.73h1.7Z"/><path class="cls-1" d="M149.4,134.37a3.07,3.07,0,0,0,.53,1.62,3.44,3.44,0,0,0,2.83,1,4.35,4.35,0,0,0,2.1-.5,1.69,1.69,0,0,0,.91-1.58,1.33,1.33,0,0,0-.73-1.23,9,9,0,0,0-1.83-.6l-1.7-.42a8.52,8.52,0,0,1-2.41-.89,2.66,2.66,0,0,1-1.38-2.37,3.57,3.57,0,0,1,1.3-2.88,5.21,5.21,0,0,1,3.5-1.1,4.87,4.87,0,0,1,4.14,1.66,3.55,3.55,0,0,1,.77,2.27h-2a2.42,2.42,0,0,0-.51-1.29,3.37,3.37,0,0,0-2.58-.83,3.19,3.19,0,0,0-1.86.46,1.4,1.4,0,0,0-.63,1.2,1.48,1.48,0,0,0,.83,1.31,5,5,0,0,0,1.41.51l1.42.34a11.36,11.36,0,0,1,3.11,1.07,2.83,2.83,0,0,1,1.23,2.54,3.87,3.87,0,0,1-1.29,2.9,5.55,5.55,0,0,1-3.92,1.22c-1.89,0-3.23-.43-4-1.28a4.7,4.7,0,0,1-1.26-3.14Z"/><path class="cls-1" d="M160.14,121.09h2.15v2.39h-2.15Zm0,4.72h2.15v12.5h-2.15Z"/><path class="cls-1" d="M172.45,126.26a5.86,5.86,0,0,1,1.22,1.19v-1.58h1.94v11.42a8.39,8.39,0,0,1-.7,3.77q-1.31,2.55-4.94,2.55a6.09,6.09,0,0,1-3.4-.9,3.56,3.56,0,0,1-1.54-2.85h2.14a2.43,2.43,0,0,0,.61,1.31,3.11,3.11,0,0,0,2.24.7q2.41,0,3.15-1.71a9.43,9.43,0,0,0,.41-3.6,4.11,4.11,0,0,1-1.51,1.43,5.11,5.11,0,0,1-2.35.47,5,5,0,0,1-3.55-1.45q-1.53-1.44-1.53-4.79a7.23,7.23,0,0,1,1.54-4.92,4.73,4.73,0,0,1,3.7-1.77A4.51,4.51,0,0,1,172.45,126.26Zm.26,2.26a3.06,3.06,0,0,0-2.44-1.12,3,3,0,0,0-3,2.08,8.18,8.18,0,0,0-.43,2.92,5.16,5.16,0,0,0,.86,3.23,2.74,2.74,0,0,0,2.3,1.11,3.23,3.23,0,0,0,3.18-2.06,6.63,6.63,0,0,0,.52-2.7A5.24,5.24,0,0,0,172.71,128.52Z"/><path class="cls-1" d="M178.65,121h2v6.25a4.73,4.73,0,0,1,1.65-1.38,4.68,4.68,0,0,1,2.1-.47,4.91,4.91,0,0,1,3.82,1.61,6.87,6.87,0,0,1,1.46,4.75,8.13,8.13,0,0,1-1.45,5,4.69,4.69,0,0,1-4,2,4.13,4.13,0,0,1-2.42-.69,5.89,5.89,0,0,1-1.26-1.31v1.61h-1.94Zm8.06,14.45a6.63,6.63,0,0,0,.85-3.58,5.89,5.89,0,0,0-.85-3.29,2.82,2.82,0,0,0-2.51-1.3,3.5,3.5,0,0,0-2.53,1.07,4.76,4.76,0,0,0-1.09,3.52,7.71,7.71,0,0,0,.45,2.87,3.07,3.07,0,0,0,3.11,2.07A2.82,2.82,0,0,0,186.71,135.48Z"/><path class="cls-1" d="M198.9,130.71a1.14,1.14,0,0,0,1-.61,1.93,1.93,0,0,0,.14-.81,1.72,1.72,0,0,0-.77-1.57,4,4,0,0,0-2.19-.49,2.77,2.77,0,0,0-2.34.9,3,3,0,0,0-.5,1.47h-2a3.66,3.66,0,0,1,1.5-3.24,6.17,6.17,0,0,1,3.36-.91,6.84,6.84,0,0,1,3.59.84,2.88,2.88,0,0,1,1.37,2.63v7.23a1,1,0,0,0,.13.53.66.66,0,0,0,.57.2l.32,0,.37-.05v1.55a4.3,4.3,0,0,1-.75.18,5.88,5.88,0,0,1-.7,0,1.73,1.73,0,0,1-1.58-.78,3,3,0,0,1-.36-1.16,5.35,5.35,0,0,1-1.86,1.47,5.76,5.76,0,0,1-2.66.62,3.94,3.94,0,0,1-2.85-1.06,3.52,3.52,0,0,1-1.11-2.65,3.44,3.44,0,0,1,1.09-2.71,5.21,5.21,0,0,1,2.86-1.18Zm-4.45,5.7a2.51,2.51,0,0,0,1.59.52,4.82,4.82,0,0,0,2.15-.51,2.9,2.9,0,0,0,1.76-2.8v-1.69a3.83,3.83,0,0,1-1,.41,7.67,7.67,0,0,1-1.2.23l-1.27.17a4.89,4.89,0,0,0-1.73.48,1.85,1.85,0,0,0-1,1.75A1.74,1.74,0,0,0,194.45,136.41Z"/><path class="cls-1" d="M205.58,125.75h2v2.17a4.82,4.82,0,0,1,1.21-1.54,3.15,3.15,0,0,1,2.21-.91l.2,0,.48,0v2.23l-.35-.05H211a3,3,0,0,0-2.45,1,3.58,3.58,0,0,0-.86,2.36v7.22h-2.1Z"/><path class="cls-1" d="M221.26,126.1a4.84,4.84,0,0,1,1.9,1.62,5.64,5.64,0,0,1,.84,2.22,15.07,15.07,0,0,1,.18,2.76h-9.12a5.35,5.35,0,0,0,.89,3.08,3,3,0,0,0,2.59,1.15,3.32,3.32,0,0,0,2.62-1.09,3.7,3.7,0,0,0,.77-1.47H224a4.5,4.5,0,0,1-.55,1.54,5.29,5.29,0,0,1-1,1.39,4.92,4.92,0,0,1-2.36,1.26,6.83,6.83,0,0,1-1.71.19,5.27,5.27,0,0,1-4-1.7,6.67,6.67,0,0,1-1.62-4.78,7.27,7.27,0,0,1,1.63-4.91,5.37,5.37,0,0,1,4.27-1.89A5.64,5.64,0,0,1,221.26,126.1ZM222,131a5.5,5.5,0,0,0-.6-2.19,3,3,0,0,0-2.87-1.53,3.15,3.15,0,0,0-2.41,1.05,4,4,0,0,0-1,2.67Z"/><path class="cls-1" d="M94.93,149.89h2.35v17.22H94.93Z"/><path class="cls-1" d="M113.58,149.89v2.05h-5.8v15.17h-2.35V151.94h-5.8v-2.05Z"/><path class="cls-1" d="M113.58,159.34h5.89v2.16h-5.89Z"/><path class="cls-1" d="M122,154.61H124v1.67A5.42,5.42,0,0,1,125.4,155a4.45,4.45,0,0,1,2.51-.7,4.71,4.71,0,0,1,3.63,1.63,6.67,6.67,0,0,1,1.5,4.67q0,4.11-2.16,5.86a4.84,4.84,0,0,1-3.17,1.12,4.36,4.36,0,0,1-2.39-.62,5.52,5.52,0,0,1-1.26-1.21v6.41H122Zm7.94,9.84a5.9,5.9,0,0,0,1-3.7,6.8,6.8,0,0,0-.44-2.57,3.19,3.19,0,0,0-6,.11,8.7,8.7,0,0,0-.43,3,6.28,6.28,0,0,0,.43,2.47,3.2,3.2,0,0,0,5.48.71Z"/><path class="cls-1" d="M135.53,154.55h2v2.17a4.76,4.76,0,0,1,1.2-1.54,3.16,3.16,0,0,1,2.22-.91l.2,0,.48,0v2.23l-.35-.05H141a3,3,0,0,0-2.45,1,3.58,3.58,0,0,0-.86,2.36v7.22h-2.11Z"/><path class="cls-1" d="M152.56,155.81a6.31,6.31,0,0,1,1.66,4.75,8.24,8.24,0,0,1-1.46,5,5.3,5.3,0,0,1-4.55,2,5.12,5.12,0,0,1-4.09-1.75,6.93,6.93,0,0,1-1.51-4.7,7.54,7.54,0,0,1,1.59-5,5.38,5.38,0,0,1,4.29-1.87A5.62,5.62,0,0,1,152.56,155.81Zm-1.31,8.34a8,8,0,0,0,.77-3.53,6.38,6.38,0,0,0-.56-2.86,3.11,3.11,0,0,0-3-1.73,3,3,0,0,0-2.78,1.48,6.87,6.87,0,0,0-.87,3.55,6,6,0,0,0,.87,3.34,3.05,3.05,0,0,0,2.76,1.33A2.86,2.86,0,0,0,151.25,164.15Z"/><path class="cls-1" d="M158.07,163.17a3,3,0,0,0,.54,1.62,3.44,3.44,0,0,0,2.82,1,4.19,4.19,0,0,0,2.1-.51,1.66,1.66,0,0,0,.91-1.57,1.34,1.34,0,0,0-.72-1.23,9.2,9.2,0,0,0-1.84-.6l-1.7-.42a8.52,8.52,0,0,1-2.41-.89,2.66,2.66,0,0,1-1.38-2.37,3.6,3.6,0,0,1,1.3-2.88,5.21,5.21,0,0,1,3.5-1.1,4.86,4.86,0,0,1,4.14,1.66,3.62,3.62,0,0,1,.78,2.27h-2a2.42,2.42,0,0,0-.51-1.29A3.37,3.37,0,0,0,161,156a3.08,3.08,0,0,0-1.85.46,1.4,1.4,0,0,0-.63,1.2,1.47,1.47,0,0,0,.82,1.31,5,5,0,0,0,1.41.51l1.42.34a11.36,11.36,0,0,1,3.11,1.07,2.83,2.83,0,0,1,1.23,2.54,3.87,3.87,0,0,1-1.29,2.9,5.53,5.53,0,0,1-3.92,1.22c-1.89,0-3.23-.43-4-1.28a4.75,4.75,0,0,1-1.26-3.14Z"/><path class="cls-1" d="M166.82,170.28a4.18,4.18,0,0,0,1.71-.25c.19-.14.28-.57.28-1.28V154.61h2.11V169a3.85,3.85,0,0,1-.44,2.05,3.07,3.07,0,0,1-2.8,1.15h-.33l-.53,0Zm4.1-17.95h-2.11v-2.44h2.11Z"/><path class="cls-1" d="M181.9,154.9a4.84,4.84,0,0,1,1.9,1.62,5.48,5.48,0,0,1,.83,2.22,14,14,0,0,1,.19,2.76h-9.13a5.43,5.43,0,0,0,.9,3.08,3,3,0,0,0,2.59,1.15,3.34,3.34,0,0,0,2.62-1.09,3.7,3.7,0,0,0,.77-1.47h2.08a4.5,4.5,0,0,1-.55,1.54,5.52,5.52,0,0,1-1,1.39,5,5,0,0,1-2.36,1.26,6.94,6.94,0,0,1-1.71.19,5.25,5.25,0,0,1-3.95-1.7,6.67,6.67,0,0,1-1.62-4.78,7.22,7.22,0,0,1,1.63-4.91,5.37,5.37,0,0,1,4.26-1.89A5.65,5.65,0,0,1,181.9,154.9Zm.75,4.93a5.35,5.35,0,0,0-.59-2.19,3,3,0,0,0-2.87-1.53,3.17,3.17,0,0,0-2.42,1,4,4,0,0,0-1,2.67Z"/><path class="cls-1" d="M187.45,149.89h2v10l5.41-5.34h2.7l-4.83,4.67,5.1,7.89h-2.7l-3.94-6.39-1.74,1.67v4.72h-2Z"/><path class="cls-1" d="M199.92,151.05h2.13v3.5h2v1.73h-2v8.19a.9.9,0,0,0,.44.88,2,2,0,0,0,.82.13h.33l.41,0v1.68a4.53,4.53,0,0,1-.75.15,7.69,7.69,0,0,1-.85,0,2.3,2.3,0,0,1-2-.75,3.38,3.38,0,0,1-.52-2v-8.31h-1.7v-1.73h1.7Z"/><path class="cls-1" d="M207.89,151.21a5.17,5.17,0,0,1,4-1.54,5.27,5.27,0,0,1,3.75,1.32,4.44,4.44,0,0,1,1.4,3.37,3.59,3.59,0,0,1-.51,2,14.91,14.91,0,0,1-2.09,2.27,6.88,6.88,0,0,0-1.49,1.85,5.57,5.57,0,0,0-.35,2.23h-2.08a7.79,7.79,0,0,1,.39-2.7,7.22,7.22,0,0,1,1.78-2.35l1-.92a4.11,4.11,0,0,0,.7-.84,2.82,2.82,0,0,0,.49-1.58,3.06,3.06,0,0,0-.7-2,2.87,2.87,0,0,0-2.32-.84A2.84,2.84,0,0,0,209,153a5.51,5.51,0,0,0-.49,2.33h-2.09A5.68,5.68,0,0,1,207.89,151.21Zm2.55,13.46h2.33v2.44h-2.33Z"/></svg>