<svg id="Layer_1" data-name="Layer 1" xmlns="http://www.w3.org/2000/svg" viewBox="0 0 300 250"><defs><style>.cls-1{fill:#d80201;}</style></defs><title>text</title><path class="cls-1" d="M44.08,109.82V115h7.32v4H44.08v10.26H39.53V105.86H51.88v4Z"/><path class="cls-1" d="M63.08,129.7c-4.83,0-8.68-3-8.68-8.05s3.85-8.09,8.72-8.09,8.61,3,8.61,8.05S67.88,129.7,63.08,129.7Zm0-12.32a4.25,4.25,0,1,0,4.31,4.27A4.29,4.29,0,0,0,63,117.38Z"/><path class="cls-1" d="M84.89,117.9a3.74,3.74,0,0,0-2-.52c-2.87,0-3.64,2-3.64,4.55v7.28H75V114.05h4.24v2.28a4.94,4.94,0,0,1,6.27-2.42Z"/><path class="cls-1" d="M106.94,129.21v-8.3c0-1.79-.28-3.75-2.52-3.75-2.49,0-2.91,2.28-2.91,4.27v7.77H97.28v-8.05a6.76,6.76,0,0,0-.31-2.52,2.45,2.45,0,0,0-2.28-1.47,2.76,2.76,0,0,0-2.38,1.37,6.29,6.29,0,0,0-.49,2.91v7.77H87.58V114.05h4.24v1.72a5.82,5.82,0,0,1,4.62-2.21,5.15,5.15,0,0,1,4.73,2.77,5.6,5.6,0,0,1,5-2.77,5,5,0,0,1,4.24,2.17,6.68,6.68,0,0,1,.81,3.68v9.8Z"/><path class="cls-1" d="M126.82,129.21v-2a5.86,5.86,0,0,1-4.94,2.49c-4.55,0-7.46-3.78-7.46-8.12s2.91-8,7.35-8a6.32,6.32,0,0,1,5,2.42v-1.93h4.27v15.16ZM123,117.38a4.25,4.25,0,1,0,4.24,4.24A4.23,4.23,0,0,0,123,117.38Z"/><path class="cls-1" d="M155.48,129.21v-2a5.86,5.86,0,0,1-4.94,2.49c-4.55,0-7.46-3.78-7.46-8.12s2.91-8,7.35-8a6.32,6.32,0,0,1,5,2.42V103h4.27v26.22Zm-3.78-11.83a4.25,4.25,0,1,0,4.24,4.24A4.23,4.23,0,0,0,151.7,117.38Z"/><path class="cls-1" d="M165.88,110.2a2.56,2.56,0,1,1,0-5.11,2.56,2.56,0,0,1,0,5.11Zm-2.14,19V114.05H168v15.16Z"/><path class="cls-1" d="M176.24,117.69v11.52H172V117.69h-1.68v-3.64H172v-5.18h4.24v5.18h3v3.64Z"/><path class="cls-1" d="M185.68,117.69v11.52h-4.24V117.69h-1.68v-3.64h1.68v-5.18h4.24v5.18h3v3.64Z"/><path class="cls-1" d="M210,129.21v-8.3c0-2.1-.46-3.75-2.91-3.75-2.63,0-3.22,2-3.22,4.27v7.77h-4.24V103h4.24v13a5.52,5.52,0,0,1,4.76-2.45,5.79,5.79,0,0,1,4.41,1.85,6,6,0,0,1,1.19,4.27v9.52Z"/><path class="cls-1" d="M225.58,129.7c-4.17,0-7.32-1.86-7.32-6.37v-9.28h4.24v8.58c0,2.06.88,3.47,3.08,3.47s3.08-1.4,3.08-3.47v-8.58h4.27v9.28C232.93,127.84,229.75,129.7,225.58,129.7Z"/><path class="cls-1" d="M241.82,129.7a8.06,8.06,0,0,1-5.78-2.52l2.24-2.59a4.92,4.92,0,0,0,3.57,1.79,1.79,1.79,0,0,0,1.93-1.68c0-2.59-6.76-1.29-6.76-6.41,0-3.08,2.55-4.8,5.43-4.8a7.81,7.81,0,0,1,4.94,1.61l-2.1,2.49a4.23,4.23,0,0,0-2.52-1c-.74,0-1.61.46-1.61,1.29,0,2.21,7,1.23,7,6.41C248.16,127.81,245.08,129.7,241.82,129.7Z"/><path class="cls-1" d="M48.17,166.7a6.07,6.07,0,0,1-5.08-2.49v10.08H38.86V151.05H43.1V153a6,6,0,0,1,5-2.42c4.52,0,7.49,3.75,7.49,8.08S52.62,166.7,48.17,166.7Zm-1.26-12.32a4.25,4.25,0,1,0,4.24,4.24A4.23,4.23,0,0,0,46.91,154.38Z"/><path class="cls-1" d="M70.36,166.21v-2a5.86,5.86,0,0,1-4.94,2.49c-4.55,0-7.46-3.78-7.46-8.12s2.91-8,7.35-8a6.32,6.32,0,0,1,5,2.42v-1.93h4.27v15.16Zm-3.78-11.83a4.25,4.25,0,1,0,4.24,4.24A4.23,4.23,0,0,0,66.58,154.38Zm-.59-6a3.15,3.15,0,1,1,0-6.3,3.15,3.15,0,0,1,0,6.3ZM66,144a1.23,1.23,0,1,0,1.23,1.22A1.2,1.2,0,0,0,66,144Z"/><path class="cls-1" d="M91.82,154.69v11.52H87.58V154.69H85.94v-3.64h1.65v-4.87a7.39,7.39,0,0,1,.67-3.57,6,6,0,0,1,5.25-3,5,5,0,0,1,2.24.52V144a4.22,4.22,0,0,0-1.93-.56c-1.89,0-2,2-2,3.4v4.24h3.92v3.64Z"/><path class="cls-1" d="M101.23,159.31c.07,2.34,1.19,4.06,3.71,4.06a4,4,0,0,0,3.61-2l3.92.63c-1.33,3.25-4,4.73-7.46,4.73-4.9,0-8.12-3.15-8.12-8.09s3.08-8.05,7.95-8.05,7.74,3.36,7.74,8.19v.56Zm3.68-5.74a3.44,3.44,0,0,0-3.54,3h7.18A3.51,3.51,0,0,0,104.91,153.57Z"/><path class="cls-1" d="M135.18,166.21v-8.3c0-1.79-.28-3.75-2.52-3.75-2.49,0-2.91,2.28-2.91,4.27v7.77h-4.24v-8.05a6.75,6.75,0,0,0-.31-2.52,2.45,2.45,0,0,0-2.28-1.47,2.76,2.76,0,0,0-2.38,1.37,6.3,6.3,0,0,0-.49,2.91v7.77h-4.24V151.05h4.24v1.72a5.82,5.82,0,0,1,4.62-2.21,5.15,5.15,0,0,1,4.73,2.76,5.6,5.6,0,0,1,5-2.76,5,5,0,0,1,4.24,2.17,6.67,6.67,0,0,1,.81,3.67v9.8Z"/><path class="cls-1" d="M171.58,166.21v-8.3c0-1.79-.28-3.75-2.52-3.75-2.49,0-2.91,2.28-2.91,4.27v7.77h-4.24v-8.05a6.76,6.76,0,0,0-.31-2.52,2.45,2.45,0,0,0-2.28-1.47,2.76,2.76,0,0,0-2.38,1.37,6.3,6.3,0,0,0-.49,2.91v7.77h-4.24V151.05h4.24v1.72a5.82,5.82,0,0,1,4.62-2.21,5.15,5.15,0,0,1,4.73,2.76,5.6,5.6,0,0,1,5-2.76,5,5,0,0,1,4.24,2.17,6.67,6.67,0,0,1,.8,3.67v9.8Z"/><path class="cls-1" d="M181.94,147.2a2.56,2.56,0,1,1,0-5.11,2.56,2.56,0,0,1,0,5.11Zm-2.14,19V151.05H184v15.16Z"/><path class="cls-1" d="M198.39,166.21v-8.4c0-2.07-.46-3.64-2.87-3.64-2.63,0-3.26,1.93-3.26,4.2v7.84H188V151.05h4.24v1.86a5.59,5.59,0,0,1,4.76-2.34,5.23,5.23,0,0,1,5.6,6v9.63Z"/><path class="cls-1" d="M214,166.7c-4.17,0-7.32-1.86-7.32-6.37v-9.28h4.24v8.58c0,2.07.88,3.47,3.08,3.47s3.08-1.4,3.08-3.47v-8.58h4.27v9.28C221.35,164.84,218.17,166.7,214,166.7Z"/><path class="cls-1" d="M229.68,154.69v11.52h-4.24V154.69h-1.68v-3.64h1.68v-5.18h4.24v5.18h3v3.64Z"/><path class="cls-1" d="M238.39,159.31c.07,2.34,1.19,4.06,3.71,4.06a4,4,0,0,0,3.61-2l3.92.63c-1.33,3.25-4,4.73-7.46,4.73-4.9,0-8.12-3.15-8.12-8.09s3.08-8.05,7.95-8.05,7.74,3.36,7.74,8.19v.56Zm3.68-5.74a3.44,3.44,0,0,0-3.54,3h7.18A3.51,3.51,0,0,0,242.07,153.57Z"/><path class="cls-1" d="M262.9,154.9a3.75,3.75,0,0,0-2-.52c-2.87,0-3.64,2-3.64,4.55v7.28H253V151.05h4.24v2.28a4.95,4.95,0,0,1,6.27-2.42Z"/><path class="cls-1" d="M266.39,166.66a2.73,2.73,0,1,1,2.73-2.73A2.73,2.73,0,0,1,266.39,166.66Z"/></svg>