<svg id="Layer_1" data-name="Layer 1" xmlns="http://www.w3.org/2000/svg" viewBox="0 0 300 250"><defs><style>.cls-1{fill:#d80201;}</style></defs><title>text</title><path class="cls-1" d="M41.15,108.58c-1.08,5.39-5.67,8.61-11.06,8.61-7.07,0-12.25-5-12.25-12.15A12,12,0,0,1,30.23,92.79a11.14,11.14,0,0,1,10,5.5l-4,2.13A6.85,6.85,0,0,0,30.19,97c-4.55,0-7.67,3.67-7.67,8.09s3.12,8,7.67,8c3,0,5.71-1.82,6.09-5h-5.5v-3.92H41.5v.56A20.2,20.2,0,0,1,41.15,108.58Z"/><path class="cls-1" d="M45,116.67V90.45h4.24v26.22Z"/><path class="cls-1" d="M61.2,117.16c-4.83,0-8.68-3-8.68-8.05S56.37,101,61.24,101s8.61,3,8.61,8.05S66,117.16,61.2,117.16ZM57.53,98.67a2.52,2.52,0,1,1,0-5,2.52,2.52,0,1,1,0,5Zm3.64,6.16a4.25,4.25,0,1,0,4.31,4.27A4.29,4.29,0,0,0,61.17,104.84Zm3.64-6.16a2.56,2.56,0,0,1-2.52-2.52,2.52,2.52,0,1,1,2.52,2.52Z"/><path class="cls-1" d="M92.46,116.67v-8.3c0-1.79-.28-3.75-2.52-3.75-2.49,0-2.91,2.28-2.91,4.27v7.77H82.8v-8.05a6.75,6.75,0,0,0-.31-2.52,2.45,2.45,0,0,0-2.28-1.47A2.76,2.76,0,0,0,77.83,106a6.3,6.3,0,0,0-.49,2.91v7.77H73.1V101.51h4.24v1.72A5.82,5.82,0,0,1,82,101a5.15,5.15,0,0,1,4.73,2.76,5.6,5.6,0,0,1,5-2.76,5,5,0,0,1,4.24,2.17,6.67,6.67,0,0,1,.81,3.67v9.8Z"/><path class="cls-1" d="M105,105.15v11.52h-4.24V105.15H99.11v-3.64h1.68V96.33H105v5.18h3v3.64Z"/><path class="cls-1" d="M130.54,116.67v-2a5.86,5.86,0,0,1-4.94,2.49c-4.55,0-7.46-3.78-7.46-8.12s2.91-8,7.35-8a6.32,6.32,0,0,1,5,2.42v-1.93h4.27v15.16Zm-3.78-11.83a4.25,4.25,0,1,0,4.24,4.24A4.23,4.23,0,0,0,126.76,104.84Z"/><path class="cls-1" d="M143.14,105.15v11.52H138.9V105.15h-1.68v-3.64h1.68V96.33h4.23v5.18h3v3.64Z"/><path class="cls-1" d="M152.59,105.15v11.52h-4.24V105.15h-1.68v-3.64h1.68V96.33h4.24v5.18h3v3.64Z"/><path class="cls-1" d="M170.89,105.15v11.52h-4.24V105.15H165v-3.64h1.64V96.64a7.39,7.39,0,0,1,.67-3.57,6,6,0,0,1,5.25-3,5,5,0,0,1,2.24.52v3.89a4.22,4.22,0,0,0-1.92-.56c-1.89,0-2,2-2,3.4v4.24h3.92v3.64Z"/><path class="cls-1" d="M184.65,117.16c-4.83,0-8.68-3-8.68-8.05s3.85-8.08,8.72-8.08,8.61,3,8.61,8.05S189.44,117.16,184.65,117.16Zm0-12.32a4.25,4.25,0,1,0,4.31,4.27A4.29,4.29,0,0,0,184.61,104.84Z"/><path class="cls-1" d="M206.45,105.36a3.75,3.75,0,0,0-2-.52c-2.87,0-3.64,2-3.64,4.55v7.28h-4.24V101.51h4.24v2.28a4.95,4.95,0,0,1,6.27-2.42Z"/><path class="cls-1" d="M228.5,116.67v-8.3c0-1.79-.28-3.75-2.52-3.75-2.49,0-2.91,2.28-2.91,4.27v7.77h-4.24v-8.05a6.75,6.75,0,0,0-.32-2.52,2.45,2.45,0,0,0-2.28-1.47,2.76,2.76,0,0,0-2.38,1.37,6.3,6.3,0,0,0-.49,2.91v7.77h-4.24V101.51h4.24v1.72A5.82,5.82,0,0,1,218,101a5.15,5.15,0,0,1,4.73,2.76,5.6,5.6,0,0,1,5-2.76,5,5,0,0,1,4.24,2.17,6.68,6.68,0,0,1,.81,3.67v9.8Z"/><path class="cls-1" d="M248.38,116.67v-2a5.86,5.86,0,0,1-4.94,2.49c-4.55,0-7.46-3.78-7.46-8.12s2.91-8,7.35-8a6.32,6.32,0,0,1,5,2.42v-1.93h4.27v15.16Zm-3.78-11.83a4.25,4.25,0,1,0,4.24,4.24A4.23,4.23,0,0,0,244.6,104.84Z"/><path class="cls-1" d="M28.76,153.67l-5.71-6.51-.46.46v6.06H18.36V127.45H22.6V144l5.67-5.53H34l-7.11,6.65,7.67,8.51Z"/><path class="cls-1" d="M36.46,153.67V127.45h4.24v26.22Z"/><path class="cls-1" d="M56.34,153.67v-2a5.86,5.86,0,0,1-4.94,2.49c-4.55,0-7.46-3.78-7.46-8.12s2.91-8,7.35-8a6.32,6.32,0,0,1,5,2.42v-1.93h4.27v15.16Zm-3.78-11.83a4.25,4.25,0,1,0,4.24,4.24A4.23,4.23,0,0,0,52.56,141.84Z"/><path class="cls-1" d="M74.57,142.36a3.75,3.75,0,0,0-2-.52c-2.87,0-3.64,2-3.64,4.55v7.28H64.67V138.51H68.9v2.28a4.95,4.95,0,0,1,6.27-2.42Z"/><path class="cls-1" d="M82.31,142.15v11.52H78.07V142.15H76.39v-3.64h1.68v-5.18h4.24v5.18h3v3.64Z"/><path class="cls-1" d="M107.82,153.67v-2a5.86,5.86,0,0,1-4.94,2.49c-4.55,0-7.46-3.78-7.46-8.12s2.91-8,7.35-8a6.32,6.32,0,0,1,5,2.42v-13h4.27v26.22ZM104,141.84a4.25,4.25,0,1,0,4.24,4.24A4.23,4.23,0,0,0,104,141.84Z"/><path class="cls-1" d="M118.22,134.66a2.56,2.56,0,0,1,0-5.11,2.56,2.56,0,0,1,0,5.11Zm-2.14,19V138.51h4.24v15.16Z"/><path class="cls-1" d="M128.58,142.15v11.52h-4.24V142.15h-1.68v-3.64h1.68v-5.18h4.24v5.18h3v3.64Z"/><path class="cls-1" d="M138,142.15v11.52h-4.24V142.15h-1.68v-3.64h1.68v-5.18H138v5.18h3v3.64Z"/><path class="cls-1" d="M162.32,153.67v-8.4c0-2.07-.46-3.64-2.87-3.64-2.63,0-3.26,1.93-3.26,4.2v7.84H152V138.51h4.24v1.86A5.59,5.59,0,0,1,161,138a5.23,5.23,0,0,1,5.6,6v9.63Z"/><path class="cls-1" d="M174.25,161.79h-4.79l5.57-10.4-7.18-12.88h4.94l4.55,8.61,4.34-8.61h4.83Z"/><path class="cls-1" d="M199.31,153.67v-2a5.86,5.86,0,0,1-4.94,2.49c-4.55,0-7.46-3.78-7.46-8.12s2.91-8,7.35-8a6.32,6.32,0,0,1,5,2.42v-1.93h4.27v15.16Zm-3.78-11.83a4.25,4.25,0,1,0,4.24,4.24A4.23,4.23,0,0,0,195.53,141.84Z"/><path class="cls-1" d="M226.75,153.67v-8.3c0-2.1-.46-3.75-2.91-3.75-2.63,0-3.22,2-3.22,4.27v7.77h-4.24V127.45h4.24v13a5.52,5.52,0,0,1,4.76-2.45,5.79,5.79,0,0,1,4.41,1.85,6,6,0,0,1,1.19,4.27v9.52Z"/><path class="cls-1" d="M242.36,154.16c-4.17,0-7.32-1.86-7.32-6.37v-9.28h4.24v8.58c0,2.07.88,3.47,3.08,3.47s3.08-1.4,3.08-3.47v-8.58h4.27v9.28C249.71,152.3,246.53,154.16,242.36,154.16Z"/><path class="cls-1" d="M258.6,154.16a8.06,8.06,0,0,1-5.78-2.52l2.24-2.59a4.92,4.92,0,0,0,3.57,1.79,1.79,1.79,0,0,0,1.93-1.68c0-2.59-6.76-1.29-6.76-6.41,0-3.08,2.55-4.79,5.43-4.79a7.81,7.81,0,0,1,4.94,1.61l-2.1,2.49a4.23,4.23,0,0,0-2.52-1c-.74,0-1.61.46-1.61,1.29,0,2.21,7,1.23,7,6.41C264.93,152.27,261.85,154.16,258.6,154.16Z"/><path class="cls-1" d="M275.82,142.89v3h-4.31V139.7a6.87,6.87,0,0,0,1.23.14c2.13,0,4.41-1.08,4.41-3.5a2.63,2.63,0,0,0-2.7-2.7,2.48,2.48,0,0,0-2.52,2.49c0,.14,0,.28,0,.42h-4.55v-.42c0-3.82,3.57-6.27,7.14-6.27,3.75,0,7.07,2.7,7.07,6.58C281.63,140,279,142.12,275.82,142.89Zm-2.07,11.24a2.73,2.73,0,1,1,2.73-2.73A2.74,2.74,0,0,1,273.75,154.12Z"/></svg>