<svg id="Layer_1" data-name="Layer 1" xmlns="http://www.w3.org/2000/svg" viewBox="0 0 300 250"><defs><style>.cls-1{fill:#0059ac;}</style></defs><title>text</title><path class="cls-1" d="M72.75,76.29h2.33V91.46h8.64v2.05h-11Z"/><path class="cls-1" d="M85.82,76.29H88v2.39H85.82Zm0,4.72H88v12.5H85.82Z"/><path class="cls-1" d="M92.13,77.12A3.25,3.25,0,0,1,95,76l.41,0,.48,0V78l-.48,0h-.28c-.64,0-1,.16-1.16.5A10,10,0,0,0,93.76,81h2.11v1.67H93.76V93.51H91.68V82.68H89.93V81h1.75V79A3.81,3.81,0,0,1,92.13,77.12Z"/><path class="cls-1" d="M97.88,76.29H100V93.51H97.88Z"/><path class="cls-1" d="M103.15,76.29h2.14v2.39h-2.14Zm0,4.72h2.14v12.5h-2.14Z"/><path class="cls-1" d="M115.46,81.46a5.6,5.6,0,0,1,1.21,1.19V81.07h2V92.49a8.53,8.53,0,0,1-.7,3.77C117,98,115.4,98.81,113,98.81a6.09,6.09,0,0,1-3.4-.9A3.56,3.56,0,0,1,108,95.06h2.14a2.36,2.36,0,0,0,.61,1.31,3.1,3.1,0,0,0,2.23.7c1.61,0,2.67-.57,3.16-1.71a9.64,9.64,0,0,0,.41-3.6,4.06,4.06,0,0,1-1.52,1.43,5.42,5.42,0,0,1-5.9-1q-1.52-1.44-1.52-4.79a7.28,7.28,0,0,1,1.53-4.92,4.75,4.75,0,0,1,3.71-1.77A4.51,4.51,0,0,1,115.46,81.46Zm.26,2.26a3.06,3.06,0,0,0-2.44-1.12,3,3,0,0,0-3,2.08,8.18,8.18,0,0,0-.43,2.92,5.23,5.23,0,0,0,.85,3.23A2.78,2.78,0,0,0,113,91.94a3.24,3.24,0,0,0,3.18-2.06,6.64,6.64,0,0,0,.51-2.7A5.29,5.29,0,0,0,115.72,83.72Z"/><path class="cls-1" d="M128,85.74h5.88V87.9H128Z"/><path class="cls-1" d="M17.16,105.09h2.11v17.22H17.16Z"/><path class="cls-1" d="M30.18,110.1a4.77,4.77,0,0,1,1.9,1.62,5.64,5.64,0,0,1,.84,2.22,14.86,14.86,0,0,1,.19,2.76H24a5.43,5.43,0,0,0,.89,3.08,3,3,0,0,0,2.6,1.15,3.32,3.32,0,0,0,2.61-1.09,3.72,3.72,0,0,0,.78-1.47h2.07a4.45,4.45,0,0,1-.54,1.54,5.54,5.54,0,0,1-1,1.39A4.87,4.87,0,0,1,29,122.56a6.83,6.83,0,0,1-1.71.19,5.27,5.27,0,0,1-4-1.7,6.66,6.66,0,0,1-1.61-4.78,7.22,7.22,0,0,1,1.63-4.91,5.34,5.34,0,0,1,4.26-1.89A5.64,5.64,0,0,1,30.18,110.1Zm.76,4.93a5.51,5.51,0,0,0-.59-2.19,3,3,0,0,0-2.87-1.53,3.16,3.16,0,0,0-2.42,1A4,4,0,0,0,24,115Z"/><path class="cls-1" d="M36.82,109.75,40.17,120l3.49-10.22H46l-4.73,12.56H39l-4.63-12.56Z"/><path class="cls-1" d="M55.53,110.1a4.84,4.84,0,0,1,1.9,1.62,5.64,5.64,0,0,1,.84,2.22,15.07,15.07,0,0,1,.18,2.76H49.33a5.35,5.35,0,0,0,.89,3.08,3,3,0,0,0,2.59,1.15,3.32,3.32,0,0,0,2.62-1.09,3.7,3.7,0,0,0,.77-1.47h2.08a4.5,4.5,0,0,1-.55,1.54,5.52,5.52,0,0,1-1,1.39,4.92,4.92,0,0,1-2.36,1.26,6.88,6.88,0,0,1-1.71.19,5.27,5.27,0,0,1-4-1.7,6.67,6.67,0,0,1-1.62-4.78,7.27,7.27,0,0,1,1.63-4.91A5.37,5.37,0,0,1,53,109.47,5.64,5.64,0,0,1,55.53,110.1Zm.76,4.93a5.5,5.5,0,0,0-.6-2.19,3,3,0,0,0-2.87-1.53,3.15,3.15,0,0,0-2.41,1,4,4,0,0,0-1,2.67Z"/><path class="cls-1" d="M61.18,109.75h2v2.17a4.68,4.68,0,0,1,1.21-1.54,3.14,3.14,0,0,1,2.21-.91l.2,0,.48,0v2.23l-.35-.05H66.6a3,3,0,0,0-2.45,1,3.58,3.58,0,0,0-.86,2.36v7.22H61.18Z"/><path class="cls-1" d="M75.84,114.71a1.16,1.16,0,0,0,1-.61,1.93,1.93,0,0,0,.14-.81,1.72,1.72,0,0,0-.77-1.57,4,4,0,0,0-2.19-.49,2.77,2.77,0,0,0-2.34.9,3,3,0,0,0-.5,1.47h-2a3.66,3.66,0,0,1,1.5-3.24,6.15,6.15,0,0,1,3.36-.91,6.84,6.84,0,0,1,3.59.84A2.88,2.88,0,0,1,79,112.92v7.23a1,1,0,0,0,.13.53.66.66,0,0,0,.57.2l.32,0,.37,0v1.55a4.3,4.3,0,0,1-.75.18,5.88,5.88,0,0,1-.7,0,1.73,1.73,0,0,1-1.58-.78,3.16,3.16,0,0,1-.37-1.16,5.33,5.33,0,0,1-1.85,1.47,5.76,5.76,0,0,1-2.66.62,4,4,0,0,1-2.85-1.06A3.52,3.52,0,0,1,68.53,119a3.44,3.44,0,0,1,1.09-2.71,5.21,5.21,0,0,1,2.86-1.18Zm-4.44,5.7a2.51,2.51,0,0,0,1.59.52,4.82,4.82,0,0,0,2.15-.51,2.9,2.9,0,0,0,1.76-2.8v-1.69a3.83,3.83,0,0,1-1,.41,7.67,7.67,0,0,1-1.2.23l-1.27.17a4.89,4.89,0,0,0-1.73.48,1.85,1.85,0,0,0-1,1.75A1.74,1.74,0,0,0,71.4,120.41Z"/><path class="cls-1" d="M82.47,109.75h2v1.79A5.5,5.5,0,0,1,86.36,110a5,5,0,0,1,2.21-.48c1.78,0,3,.62,3.61,1.87a6.64,6.64,0,0,1,.52,2.91v8.06H90.55V114.4a4.26,4.26,0,0,0-.34-1.86,2.05,2.05,0,0,0-2-1.17,4.21,4.21,0,0,0-1.23.15,3.21,3.21,0,0,0-1.52,1,3.16,3.16,0,0,0-.69,1.28,9.06,9.06,0,0,0-.15,1.89v6.58H82.47Z"/><path class="cls-1" d="M97.07,118.37a3,3,0,0,0,.54,1.62,3.41,3.41,0,0,0,2.82,1,4.29,4.29,0,0,0,2.1-.5,1.69,1.69,0,0,0,.91-1.58,1.34,1.34,0,0,0-.72-1.23,9.2,9.2,0,0,0-1.84-.6l-1.7-.42a8.52,8.52,0,0,1-2.41-.89,2.66,2.66,0,0,1-1.38-2.37,3.6,3.6,0,0,1,1.3-2.88,5.21,5.21,0,0,1,3.5-1.1,4.86,4.86,0,0,1,4.14,1.66,3.62,3.62,0,0,1,.78,2.27h-2a2.42,2.42,0,0,0-.51-1.29,3.37,3.37,0,0,0-2.58-.83,3.15,3.15,0,0,0-1.85.46,1.4,1.4,0,0,0-.63,1.2,1.47,1.47,0,0,0,.82,1.31,5,5,0,0,0,1.41.51l1.42.34a11.36,11.36,0,0,1,3.11,1.07,2.83,2.83,0,0,1,1.23,2.54,3.87,3.87,0,0,1-1.29,2.9,5.53,5.53,0,0,1-3.92,1.22c-1.89,0-3.23-.43-4-1.28A4.75,4.75,0,0,1,95,118.37Z"/><path class="cls-1" d="M115.57,110.1a4.74,4.74,0,0,1,1.89,1.62,5.64,5.64,0,0,1,.84,2.22,14,14,0,0,1,.19,2.76h-9.13a5.43,5.43,0,0,0,.9,3.08,3,3,0,0,0,2.59,1.15,3.32,3.32,0,0,0,2.61-1.09,3.6,3.6,0,0,0,.78-1.47h2.07a4.26,4.26,0,0,1-.54,1.54,5.52,5.52,0,0,1-1,1.39,5,5,0,0,1-2.36,1.26,6.94,6.94,0,0,1-1.71.19,5.25,5.25,0,0,1-4-1.7,6.67,6.67,0,0,1-1.62-4.78,7.22,7.22,0,0,1,1.63-4.91,5.37,5.37,0,0,1,4.26-1.89A5.68,5.68,0,0,1,115.57,110.1Zm.75,4.93a5.35,5.35,0,0,0-.59-2.19,3,3,0,0,0-2.87-1.53,3.17,3.17,0,0,0-2.42,1,4,4,0,0,0-1,2.67Z"/><path class="cls-1" d="M121.16,109.75h2.09v1.79a6.82,6.82,0,0,1,1.36-1.35,4,4,0,0,1,2.36-.72,3.76,3.76,0,0,1,2.42.74,4.11,4.11,0,0,1,.94,1.24A4.4,4.4,0,0,1,132,110a4.64,4.64,0,0,1,2.13-.49,3.49,3.49,0,0,1,3.45,1.83,6.11,6.11,0,0,1,.49,2.65v8.36h-2.19v-8.72a2,2,0,0,0-.63-1.73,2.5,2.5,0,0,0-1.53-.46,3,3,0,0,0-2.14.83,3.63,3.63,0,0,0-.89,2.77v7.31h-2.15v-8.2a4.3,4.3,0,0,0-.3-1.86,1.88,1.88,0,0,0-1.8-.88,3.09,3.09,0,0,0-2.17.93,4.54,4.54,0,0,0-1,3.35v6.66h-2.11Z"/><path class="cls-1" d="M150.25,111a6.31,6.31,0,0,1,1.66,4.75,8.18,8.18,0,0,1-1.47,5,5.27,5.27,0,0,1-4.54,2,5.12,5.12,0,0,1-4.09-1.75,6.93,6.93,0,0,1-1.51-4.7,7.49,7.49,0,0,1,1.59-5,5.35,5.35,0,0,1,4.28-1.88A5.63,5.63,0,0,1,150.25,111Zm-1.31,8.34a8,8,0,0,0,.77-3.53,6.38,6.38,0,0,0-.56-2.86,3.13,3.13,0,0,0-3-1.73,3,3,0,0,0-2.79,1.48,7,7,0,0,0-.86,3.55,6.07,6.07,0,0,0,.86,3.34,3.05,3.05,0,0,0,2.76,1.33A2.87,2.87,0,0,0,148.94,119.35Z"/><path class="cls-1" d="M161.4,110.14a6.13,6.13,0,0,1,1.27,1.23V105h2v17.28h-1.9v-1.75a4.63,4.63,0,0,1-1.74,1.68,5,5,0,0,1-2.3.51,4.67,4.67,0,0,1-3.62-1.76,6.92,6.92,0,0,1-1.53-4.7,8.21,8.21,0,0,1,1.39-4.75,4.58,4.58,0,0,1,4-2A4.51,4.51,0,0,1,161.4,110.14Zm-4.71,9.41a3,3,0,0,0,2.73,1.36,2.85,2.85,0,0,0,2.39-1.26,5.93,5.93,0,0,0,.94-3.61,5.37,5.37,0,0,0-1-3.53,3,3,0,0,0-2.39-1.14,3.17,3.17,0,0,0-2.57,1.22,5.65,5.65,0,0,0-1,3.59A6.2,6.2,0,0,0,156.69,119.55Z"/><path class="cls-1" d="M175.6,110.1a4.84,4.84,0,0,1,1.9,1.62,5.64,5.64,0,0,1,.84,2.22,15.07,15.07,0,0,1,.18,2.76H169.4a5.35,5.35,0,0,0,.89,3.08,3,3,0,0,0,2.59,1.15,3.32,3.32,0,0,0,2.62-1.09,3.7,3.7,0,0,0,.77-1.47h2.08a4.5,4.5,0,0,1-.55,1.54,5.29,5.29,0,0,1-1,1.39,4.92,4.92,0,0,1-2.36,1.26,6.83,6.83,0,0,1-1.71.19,5.27,5.27,0,0,1-3.95-1.7,6.67,6.67,0,0,1-1.62-4.78,7.27,7.27,0,0,1,1.63-4.91,5.37,5.37,0,0,1,4.27-1.89A5.64,5.64,0,0,1,175.6,110.1Zm.76,4.93a5.5,5.5,0,0,0-.6-2.19,3,3,0,0,0-2.87-1.53,3.15,3.15,0,0,0-2.41,1,4,4,0,0,0-1,2.67Z"/><path class="cls-1" d="M181.25,105.09h2.11v17.22h-2.11Z"/><path class="cls-1" d="M186.59,105.09h2.11v17.22h-2.11Z"/><path class="cls-1" d="M16.09,134.72a3.23,3.23,0,0,1,2.85-1.08l.41,0,.48,0v1.92l-.48,0h-.28c-.65,0-1,.16-1.16.5a9.48,9.48,0,0,0-.19,2.53h2.11v1.67H17.72v10.83H15.63V140.28H13.89v-1.67h1.74v-2A3.9,3.9,0,0,1,16.09,134.72Z"/><path class="cls-1" d="M30.87,139.81a6.31,6.31,0,0,1,1.66,4.75,8.24,8.24,0,0,1-1.46,5,5.3,5.3,0,0,1-4.55,2,5.12,5.12,0,0,1-4.09-1.75,6.93,6.93,0,0,1-1.51-4.7,7.54,7.54,0,0,1,1.59-5,5.37,5.37,0,0,1,4.28-1.87A5.63,5.63,0,0,1,30.87,139.81Zm-1.31,8.34a8,8,0,0,0,.77-3.53,6.38,6.38,0,0,0-.56-2.86,3.12,3.12,0,0,0-3-1.73A3,3,0,0,0,24,141.51a6.87,6.87,0,0,0-.87,3.55A6,6,0,0,0,24,148.4a3,3,0,0,0,2.75,1.33A2.87,2.87,0,0,0,29.56,148.15Z"/><path class="cls-1" d="M35.18,138.55h2v2.17a5,5,0,0,1,1.21-1.54,3.16,3.16,0,0,1,2.22-.91l.2,0,.48,0v2.23l-.35-.05h-.35a3,3,0,0,0-2.44,1,3.58,3.58,0,0,0-.86,2.36v7.22H35.18Z"/><path class="cls-1" d="M51,147.17a3.07,3.07,0,0,0,.53,1.62,3.47,3.47,0,0,0,2.83,1,4.21,4.21,0,0,0,2.1-.51,1.66,1.66,0,0,0,.91-1.57,1.33,1.33,0,0,0-.73-1.23,8.82,8.82,0,0,0-1.83-.6l-1.7-.42a8.52,8.52,0,0,1-2.41-.89,2.66,2.66,0,0,1-1.38-2.37,3.57,3.57,0,0,1,1.3-2.88,5.21,5.21,0,0,1,3.5-1.1,4.87,4.87,0,0,1,4.14,1.66,3.62,3.62,0,0,1,.78,2.27h-2a2.42,2.42,0,0,0-.51-1.29A3.37,3.37,0,0,0,54,140a3.11,3.11,0,0,0-1.86.46,1.4,1.4,0,0,0-.63,1.2,1.48,1.48,0,0,0,.83,1.31,5,5,0,0,0,1.41.51l1.42.34a11.36,11.36,0,0,1,3.11,1.07,2.83,2.83,0,0,1,1.23,2.54,3.87,3.87,0,0,1-1.29,2.9,5.55,5.55,0,0,1-3.92,1.22c-1.89,0-3.23-.43-4-1.28A4.75,4.75,0,0,1,49,147.17Z"/><path class="cls-1" d="M61.74,133.89h2v10l5.41-5.34h2.7L67,143.22l5.1,7.89h-2.7l-4-6.39-1.73,1.67v4.72h-2Z"/><path class="cls-1" d="M73.84,138.55h2v2.17a5,5,0,0,1,1.21-1.54,3.16,3.16,0,0,1,2.22-.91l.2,0,.48,0v2.23l-.35-.05h-.35a3,3,0,0,0-2.44,1,3.58,3.58,0,0,0-.86,2.36v7.22H73.84Z"/><path class="cls-1" d="M89.53,138.9a4.74,4.74,0,0,1,1.89,1.62,5.64,5.64,0,0,1,.84,2.22,14,14,0,0,1,.19,2.76H83.32a5.43,5.43,0,0,0,.9,3.08,3,3,0,0,0,2.59,1.15,3.35,3.35,0,0,0,2.62-1.09,3.7,3.7,0,0,0,.77-1.47h2.07a4.26,4.26,0,0,1-.54,1.54,5.52,5.52,0,0,1-1,1.39,5,5,0,0,1-2.36,1.26,6.94,6.94,0,0,1-1.71.19,5.25,5.25,0,0,1-3.95-1.7,6.67,6.67,0,0,1-1.62-4.78,7.22,7.22,0,0,1,1.63-4.91A5.37,5.37,0,0,1,87,138.27,5.65,5.65,0,0,1,89.53,138.9Zm.75,4.93a5.35,5.35,0,0,0-.59-2.19,3,3,0,0,0-2.87-1.53,3.17,3.17,0,0,0-2.42,1,4,4,0,0,0-1,2.67Z"/><path class="cls-1" d="M102,138.94a5.9,5.9,0,0,1,1.27,1.23v-6.34h2v17.28h-1.9v-1.75a4.63,4.63,0,0,1-1.74,1.68,5,5,0,0,1-2.3.51,4.67,4.67,0,0,1-3.62-1.76,6.92,6.92,0,0,1-1.53-4.7,8.14,8.14,0,0,1,1.4-4.75,5,5,0,0,1,6.39-1.4Zm-4.71,9.41a3,3,0,0,0,2.73,1.36,2.85,2.85,0,0,0,2.39-1.26,5.93,5.93,0,0,0,.94-3.61,5.37,5.37,0,0,0-1-3.53,3,3,0,0,0-2.39-1.14,3.17,3.17,0,0,0-2.57,1.22,5.65,5.65,0,0,0-1,3.59A6.2,6.2,0,0,0,97.31,148.35Z"/><path class="cls-1" d="M115.37,138.94a6.13,6.13,0,0,1,1.27,1.23v-6.34h2v17.28h-1.9v-1.75A4.63,4.63,0,0,1,115,151a5,5,0,0,1-2.3.51,4.66,4.66,0,0,1-3.62-1.76,6.92,6.92,0,0,1-1.53-4.7,8.13,8.13,0,0,1,1.39-4.75,4.56,4.56,0,0,1,4-2A4.51,4.51,0,0,1,115.37,138.94Zm-4.71,9.41a3,3,0,0,0,2.72,1.36,2.86,2.86,0,0,0,2.4-1.26,5.93,5.93,0,0,0,.94-3.61,5.37,5.37,0,0,0-1-3.53,3,3,0,0,0-2.39-1.14,3.16,3.16,0,0,0-2.57,1.22,5.59,5.59,0,0,0-1,3.59A6.2,6.2,0,0,0,110.66,148.35Z"/><path class="cls-1" d="M129.57,138.9a4.84,4.84,0,0,1,1.9,1.62,5.64,5.64,0,0,1,.84,2.22,15.07,15.07,0,0,1,.18,2.76h-9.13a5.43,5.43,0,0,0,.9,3.08,3,3,0,0,0,2.59,1.15,3.32,3.32,0,0,0,2.62-1.09,3.7,3.7,0,0,0,.77-1.47h2.08a4.5,4.5,0,0,1-.55,1.54,5.52,5.52,0,0,1-1,1.39,4.92,4.92,0,0,1-2.36,1.26,6.94,6.94,0,0,1-1.71.19,5.27,5.27,0,0,1-4-1.7,6.67,6.67,0,0,1-1.62-4.78,7.27,7.27,0,0,1,1.63-4.91,5.37,5.37,0,0,1,4.27-1.89A5.64,5.64,0,0,1,129.57,138.9Zm.76,4.93a5.5,5.5,0,0,0-.6-2.19,3,3,0,0,0-2.87-1.53,3.15,3.15,0,0,0-2.41,1,4,4,0,0,0-1,2.67Z"/><path class="cls-1" d="M135.22,138.55h2v2.17a4.76,4.76,0,0,1,1.2-1.54,3.18,3.18,0,0,1,2.22-.91l.2,0,.48,0v2.23l-.35-.05h-.34a3,3,0,0,0-2.45,1,3.58,3.58,0,0,0-.86,2.36v7.22h-2.11Z"/><path class="cls-1" d="M144.41,147.17a3,3,0,0,0,.54,1.62,3.44,3.44,0,0,0,2.82,1,4.25,4.25,0,0,0,2.11-.51,1.68,1.68,0,0,0,.91-1.57,1.35,1.35,0,0,0-.73-1.23,9,9,0,0,0-1.83-.6l-1.71-.42a8.32,8.32,0,0,1-2.4-.89,2.66,2.66,0,0,1-1.38-2.37,3.57,3.57,0,0,1,1.3-2.88,5.18,5.18,0,0,1,3.49-1.1,4.89,4.89,0,0,1,4.15,1.66,3.55,3.55,0,0,1,.77,2.27h-2a2.35,2.35,0,0,0-.52-1.29,3.34,3.34,0,0,0-2.58-.83,3.1,3.1,0,0,0-1.85.46,1.4,1.4,0,0,0-.63,1.2,1.48,1.48,0,0,0,.83,1.31,5,5,0,0,0,1.41.51l1.42.34a11.25,11.25,0,0,1,3.1,1.07,2.83,2.83,0,0,1,1.23,2.54,3.87,3.87,0,0,1-1.29,2.9,5.51,5.51,0,0,1-3.92,1.22c-1.89,0-3.23-.43-4-1.28a4.76,4.76,0,0,1-1.27-3.14Z"/><path class="cls-1" d="M163,138.55h2.33l-2,5.52q-1.14,3.23-1.92,5.27a36.5,36.5,0,0,1-2.57,5.86,3,3,0,0,1-2.58,1.05,4,4,0,0,1-.68,0,5.25,5.25,0,0,1-.6-.12v-1.93a5.54,5.54,0,0,0,.8.19,2.37,2.37,0,0,0,.43,0,1.49,1.49,0,0,0,.86-.2,1.62,1.62,0,0,0,.47-.47l.42-1c.24-.58.41-1,.52-1.29l-4.64-12.92h2.39l3.37,10.23Z"/><path class="cls-1" d="M174.05,138.94a5.91,5.91,0,0,1,1.28,1.23v-6.34h2v17.28h-1.9v-1.75a4.63,4.63,0,0,1-1.74,1.68,5,5,0,0,1-2.29.51,4.66,4.66,0,0,1-3.62-1.76,6.92,6.92,0,0,1-1.53-4.7,8.13,8.13,0,0,1,1.39-4.75,4.56,4.56,0,0,1,4-2A4.45,4.45,0,0,1,174.05,138.94Zm-4.71,9.41a3,3,0,0,0,2.73,1.36,2.88,2.88,0,0,0,2.4-1.26,6,6,0,0,0,.94-3.61,5.43,5.43,0,0,0-1-3.53,3,3,0,0,0-2.39-1.14,3.14,3.14,0,0,0-2.57,1.22,5.59,5.59,0,0,0-1,3.59A6.29,6.29,0,0,0,169.34,148.35Z"/><path class="cls-1" d="M187.4,138.94a5.9,5.9,0,0,1,1.27,1.23v-6.34h2v17.28h-1.9v-1.75a4.63,4.63,0,0,1-1.74,1.68,5,5,0,0,1-2.3.51,4.67,4.67,0,0,1-3.62-1.76,6.92,6.92,0,0,1-1.53-4.7,8.14,8.14,0,0,1,1.4-4.75,4.56,4.56,0,0,1,4-2A4.5,4.5,0,0,1,187.4,138.94Zm-4.71,9.41a3,3,0,0,0,2.73,1.36,2.88,2.88,0,0,0,2.4-1.26,6,6,0,0,0,.93-3.61,5.43,5.43,0,0,0-1-3.53,3,3,0,0,0-2.39-1.14,3.14,3.14,0,0,0-2.57,1.22,5.59,5.59,0,0,0-1,3.59A6.2,6.2,0,0,0,182.69,148.35Z"/><path class="cls-1" d="M63.72,176a3.07,3.07,0,0,0,.53,1.62,3.44,3.44,0,0,0,2.83,1,4.21,4.21,0,0,0,2.1-.51,1.69,1.69,0,0,0,.91-1.58,1.33,1.33,0,0,0-.73-1.23,9,9,0,0,0-1.83-.6l-1.7-.42a8.52,8.52,0,0,1-2.41-.89A2.66,2.66,0,0,1,62,171a3.57,3.57,0,0,1,1.3-2.88,5.21,5.21,0,0,1,3.5-1.1A4.87,4.87,0,0,1,71,168.69a3.55,3.55,0,0,1,.77,2.27h-2a2.42,2.42,0,0,0-.51-1.29,3.37,3.37,0,0,0-2.58-.83,3.19,3.19,0,0,0-1.86.46,1.4,1.4,0,0,0-.63,1.2,1.48,1.48,0,0,0,.83,1.31,5,5,0,0,0,1.41.51l1.42.34A11.36,11.36,0,0,1,71,173.73a2.83,2.83,0,0,1,1.23,2.54,3.85,3.85,0,0,1-1.29,2.9A5.55,5.55,0,0,1,67,180.39c-1.89,0-3.23-.43-4-1.27A4.8,4.8,0,0,1,61.69,176Z"/><path class="cls-1" d="M83.56,168.61a6.33,6.33,0,0,1,1.66,4.75,8.18,8.18,0,0,1-1.47,5,5.27,5.27,0,0,1-4.55,2,5.11,5.11,0,0,1-4.08-1.75,6.93,6.93,0,0,1-1.51-4.7,7.49,7.49,0,0,1,1.59-5A5.33,5.33,0,0,1,79.48,167,5.63,5.63,0,0,1,83.56,168.61ZM82.25,177a8,8,0,0,0,.77-3.53,6.38,6.38,0,0,0-.56-2.86,3.14,3.14,0,0,0-3-1.73,3,3,0,0,0-2.78,1.48,6.88,6.88,0,0,0-.87,3.56,6,6,0,0,0,.87,3.33,3.06,3.06,0,0,0,2.76,1.34A2.89,2.89,0,0,0,82.25,177Z"/><path class="cls-1" d="M88.79,163.52a3.25,3.25,0,0,1,2.85-1.07h.41l.48,0v1.92l-.48,0h-.28c-.64,0-1,.16-1.16.5a10,10,0,0,0-.19,2.53h2.11v1.67H90.42v10.83H88.34V169.08H86.59v-1.67h1.75v-2A3.82,3.82,0,0,1,88.79,163.52Z"/><path class="cls-1" d="M94.9,163.85H97v3.51h2v1.72H97v8.19a.88.88,0,0,0,.45.88,2,2,0,0,0,.82.13h.33l.41,0v1.68a4.87,4.87,0,0,1-.76.15,7.34,7.34,0,0,1-.85.05,2.3,2.3,0,0,1-2-.76,3.36,3.36,0,0,1-.53-2v-8.31H93.2v-1.72h1.7Z"/><path class="cls-1" d="M102.12,167.36l2.42,9.89,2.45-9.89h2.36l2.47,9.83,2.56-9.83h2.11l-3.64,12.55h-2.19l-2.56-9.72-2.47,9.72h-2.19l-3.62-12.55Z"/><path class="cls-1" d="M125.2,172.31a1.14,1.14,0,0,0,1-.61,1.93,1.93,0,0,0,.14-.81,1.73,1.73,0,0,0-.77-1.57,4.13,4.13,0,0,0-2.19-.49,2.77,2.77,0,0,0-2.34.9,2.86,2.86,0,0,0-.5,1.47h-2a3.66,3.66,0,0,1,1.5-3.24,6.15,6.15,0,0,1,3.36-.91,6.84,6.84,0,0,1,3.59.84,2.88,2.88,0,0,1,1.37,2.63v7.23a.93.93,0,0,0,.13.53.66.66,0,0,0,.57.2l.32,0,.37-.05V180a4.77,4.77,0,0,1-.75.18,5.88,5.88,0,0,1-.7,0,1.73,1.73,0,0,1-1.58-.78,3,3,0,0,1-.37-1.16,5.42,5.42,0,0,1-1.85,1.47,5.76,5.76,0,0,1-2.66.62,4,4,0,0,1-2.85-1.06,3.52,3.52,0,0,1-1.11-2.65,3.42,3.42,0,0,1,1.09-2.71,5.21,5.21,0,0,1,2.86-1.18Zm-4.44,5.7a2.51,2.51,0,0,0,1.58.53,4.84,4.84,0,0,0,2.16-.52,2.9,2.9,0,0,0,1.76-2.8v-1.69a3.77,3.77,0,0,1-1,.41,7.34,7.34,0,0,1-1.19.23l-1.27.17a4.89,4.89,0,0,0-1.73.48,1.86,1.86,0,0,0-1,1.75A1.75,1.75,0,0,0,120.76,178Z"/><path class="cls-1" d="M131.88,167.36h2v2.16a4.76,4.76,0,0,1,1.2-1.54,3.18,3.18,0,0,1,2.22-.91l.2,0,.48,0v2.23l-.35-.05h-.34a3,3,0,0,0-2.45,1,3.58,3.58,0,0,0-.86,2.36v7.22h-2.11Z"/><path class="cls-1" d="M147.57,167.7a4.84,4.84,0,0,1,1.9,1.62,5.7,5.7,0,0,1,.84,2.22,15.07,15.07,0,0,1,.18,2.76h-9.13a5.43,5.43,0,0,0,.9,3.08,3,3,0,0,0,2.59,1.16,3.33,3.33,0,0,0,2.62-1.1,3.7,3.7,0,0,0,.77-1.47h2.08a4.5,4.5,0,0,1-.55,1.54,5.52,5.52,0,0,1-1,1.39,4.84,4.84,0,0,1-2.36,1.26,6.88,6.88,0,0,1-1.71.19,5.27,5.27,0,0,1-3.95-1.7,6.67,6.67,0,0,1-1.62-4.78,7.29,7.29,0,0,1,1.63-4.91,5.37,5.37,0,0,1,4.27-1.89A5.64,5.64,0,0,1,147.57,167.7Zm.76,4.93a5.5,5.5,0,0,0-.6-2.19,3,3,0,0,0-2.87-1.53,3.15,3.15,0,0,0-2.41,1.05,4,4,0,0,0-1,2.67Z"/></svg>