<svg id="Layer_1" data-name="Layer 1" xmlns="http://www.w3.org/2000/svg" viewBox="0 0 300 250"><defs><style>.cls-1{fill:#fff;}</style></defs><title>text</title><path class="cls-1" d="M97.74,71.88h7.56v1.4H99.42V77.4h5v1.42h-5v4.76h6.08V85H97.74Z"/><path class="cls-1" d="M108.08,75.28h1.36l.14,1.4h.06A4.58,4.58,0,0,1,112.9,75c2,0,3,1.32,3,3.8V85h-1.64V79.06c0-1.82-.56-2.6-1.84-2.6-1,0-1.68.52-2.66,1.5v7h-1.64Z"/><path class="cls-1" d="M122.66,75c2.48,0,3.88,1.78,3.88,4.56a5.8,5.8,0,0,1-.06.9h-6.56c.12,2.1,1.38,3.42,3.24,3.42a4.39,4.39,0,0,0,2.42-.76l.58,1.08a5.79,5.79,0,0,1-3.2,1c-2.6,0-4.66-1.9-4.66-5.08S120.44,75,122.66,75Zm2.44,4.38c0-2-.88-3.08-2.4-3.08-1.36,0-2.6,1.12-2.8,3.08Z"/><path class="cls-1" d="M128.94,70.76h1.64v12.4c0,.52.22.72.46.72a1.38,1.38,0,0,0,.36,0l.22,1.24a2.21,2.21,0,0,1-.94.16c-1.24,0-1.74-.78-1.74-2.2Z"/><path class="cls-1" d="M136.92,75.28h1.68L140,80.9c.22.92.4,1.8.58,2.7h.08c.22-.9.42-1.8.66-2.7l1.5-5.62h1.6L146,80.9c.24.92.46,1.8.68,2.7h.08c.22-.9.4-1.78.6-2.7l1.42-5.62h1.56L147.72,85h-2l-1.4-5.22c-.24-.92-.42-1.82-.66-2.8h-.08c-.22,1-.42,1.9-.68,2.82L141.54,85h-1.92Z"/><path class="cls-1" d="M152.14,72.22a1.14,1.14,0,0,1,2.28,0,1.14,1.14,0,0,1-2.28,0Zm.3,3.06h1.64V85h-1.64Z"/><path class="cls-1" d="M157.36,70.76H159v12.4c0,.52.22.72.46.72a1.38,1.38,0,0,0,.36,0l.22,1.24a2.21,2.21,0,0,1-.94.16c-1.24,0-1.74-.78-1.74-2.2Z"/><path class="cls-1" d="M162.46,70.76h1.64v12.4c0,.52.22.72.46.72a1.38,1.38,0,0,0,.36,0l.22,1.24a2.21,2.21,0,0,1-.94.16c-1.24,0-1.74-.78-1.74-2.2Z"/><path class="cls-1" d="M171.46,75.28h1.66v5.94c0,1.82.54,2.6,1.82,2.6,1,0,1.7-.5,2.62-1.64v-6.9h1.64V85h-1.36l-.14-1.52h-.06a4.11,4.11,0,0,1-3.2,1.76c-2.06,0-3-1.32-3-3.8Z"/><path class="cls-1" d="M182.22,82.8A4.37,4.37,0,0,0,185.08,84c1.28,0,1.92-.68,1.92-1.52,0-1-1.16-1.44-2.22-1.84-1.38-.5-2.9-1.16-2.9-2.8S183.12,75,185.22,75a4.85,4.85,0,0,1,3,1.1l-.78,1a3.61,3.61,0,0,0-2.22-.86c-1.22,0-1.78.66-1.78,1.4,0,.9,1.06,1.26,2.16,1.68,1.4.52,3,1.1,3,2.94,0,1.58-1.26,2.9-3.56,2.9a5.85,5.85,0,0,1-3.62-1.34Z"/><path class="cls-1" d="M194.5,75c2.48,0,3.88,1.78,3.88,4.56a5.8,5.8,0,0,1-.06.9h-6.56c.12,2.1,1.38,3.42,3.24,3.42a4.39,4.39,0,0,0,2.42-.76l.58,1.08a5.79,5.79,0,0,1-3.2,1c-2.6,0-4.66-1.9-4.66-5.08S192.28,75,194.5,75Zm2.44,4.38c0-2-.88-3.08-2.4-3.08-1.36,0-2.6,1.12-2.8,3.08Z"/><path class="cls-1" d="M97.74,95.88h4c2.9,0,4.84,1,4.84,3.86s-2,4.06-4.84,4.06H99.42V109H97.74Zm3.82,6.56c2.3,0,3.4-.84,3.4-2.7s-1.14-2.52-3.4-2.52H99.42v5.22Z"/><path class="cls-1" d="M112.36,99c2.38,0,4.5,1.86,4.5,5.12s-2.12,5.08-4.5,5.08-4.5-1.86-4.5-5.08S110,99,112.36,99Zm0,8.84c1.68,0,2.8-1.5,2.8-3.72s-1.12-3.76-2.8-3.76-2.8,1.52-2.8,3.76S110.7,107.88,112.36,107.88Z"/><path class="cls-1" d="M118.18,99.28h1.68l1.44,5.62c.22.92.4,1.8.58,2.7H122c.22-.9.42-1.8.66-2.7l1.5-5.62h1.6l1.52,5.62c.24.92.46,1.8.68,2.7H128c.22-.9.4-1.78.6-2.7L130,99.28h1.56L129,109h-2l-1.4-5.22c-.24-.92-.42-1.82-.66-2.8h-.08c-.22,1-.42,1.9-.68,2.82L122.8,109h-1.92Z"/><path class="cls-1" d="M137.26,99c2.48,0,3.88,1.78,3.88,4.56a5.8,5.8,0,0,1-.06.9h-6.56c.12,2.1,1.38,3.42,3.24,3.42a4.39,4.39,0,0,0,2.42-.76l.58,1.08a5.79,5.79,0,0,1-3.2,1c-2.6,0-4.66-1.9-4.66-5.08S135,99,137.26,99Zm2.44,4.38c0-2-.88-3.08-2.4-3.08-1.36,0-2.6,1.12-2.8,3.08Z"/><path class="cls-1" d="M143.54,94.76h1.64v12.4c0,.52.22.72.46.72a1.38,1.38,0,0,0,.36,0l.22,1.24a2.21,2.21,0,0,1-.94.16c-1.24,0-1.74-.78-1.74-2.2Z"/><path class="cls-1" d="M152.42,106.8a4.37,4.37,0,0,0,2.86,1.16c1.28,0,1.92-.68,1.92-1.52,0-1-1.16-1.44-2.22-1.84-1.38-.5-2.9-1.16-2.9-2.8S153.32,99,155.42,99a4.85,4.85,0,0,1,3,1.1l-.78,1a3.61,3.61,0,0,0-2.22-.86c-1.22,0-1.78.66-1.78,1.4,0,.9,1.06,1.26,2.16,1.68,1.4.52,3,1.1,3,2.94,0,1.58-1.26,2.9-3.56,2.9a5.85,5.85,0,0,1-3.62-1.34Z"/><path class="cls-1" d="M164.84,99c2.38,0,4.5,1.86,4.5,5.12s-2.12,5.08-4.5,5.08-4.5-1.86-4.5-5.08S162.46,99,164.84,99Zm0,8.84c1.68,0,2.8-1.5,2.8-3.72s-1.12-3.76-2.8-3.76-2.8,1.52-2.8,3.76S163.18,107.88,164.84,107.88Z"/><path class="cls-1" d="M181.88,108.88a6,6,0,0,1-1.8.36c-2.08,0-2.78-1.32-2.78-3.24v-5.38h-3.48V109h-1.64v-8.38h-1.32V99.38l1.32-.1V97.74c0-2,.9-3.22,2.84-3.22a4.4,4.4,0,0,1,1.62.32l-.36,1.26a2.73,2.73,0,0,0-1.1-.24c-.92,0-1.36.64-1.36,1.88v1.54h3.56l.2-2.72h1.36v2.72h2.64v1.34h-2.64V106c0,1.2.4,1.88,1.52,1.88a3.53,3.53,0,0,0,1.1-.26Z"/><path class="cls-1" d="M182.62,99.28h1.68l1.44,5.62c.22.92.4,1.8.58,2.7h.08c.22-.9.42-1.8.66-2.7l1.5-5.62h1.6l1.52,5.62c.24.92.46,1.8.68,2.7h.08c.22-.9.4-1.78.6-2.7l1.42-5.62H196l-2.6,9.72h-2l-1.4-5.22c-.24-.92-.42-1.82-.66-2.8h-.08c-.22,1-.42,1.9-.68,2.82l-1.36,5.2h-1.92Z"/><path class="cls-1" d="M203.44,102.84c0-1.24-.42-2.44-2-2.44a5.23,5.23,0,0,0-2.9,1l-.66-1.14A7.21,7.21,0,0,1,201.7,99c2.38,0,3.38,1.58,3.38,4v6h-1.36l-.14-1.16h0a5.28,5.28,0,0,1-3.22,1.4,2.65,2.65,0,0,1-2.86-2.76C197.46,104.36,199.3,103.3,203.44,102.84Zm-2.66,5.08a4,4,0,0,0,2.66-1.3v-2.7c-3.26.4-4.36,1.2-4.36,2.44A1.49,1.49,0,0,0,200.78,107.92Z"/><path class="cls-1" d="M208.18,99.28h1.36l.14,1.76h.06a3.32,3.32,0,0,1,2.76-2,2.41,2.41,0,0,1,1,.2l-.32,1.44a2.72,2.72,0,0,0-.94-.16c-.82,0-1.8.6-2.46,2.24V109h-1.64Z"/><path class="cls-1" d="M218.56,99c2.48,0,3.88,1.78,3.88,4.56a5.8,5.8,0,0,1-.06.9h-6.56c.12,2.1,1.38,3.42,3.24,3.42a4.39,4.39,0,0,0,2.42-.76l.58,1.08a5.79,5.79,0,0,1-3.2,1c-2.6,0-4.66-1.9-4.66-5.08S216.34,99,218.56,99Zm2.44,4.38c0-2-.88-3.08-2.4-3.08-1.36,0-2.6,1.12-2.8,3.08Z"/><path class="cls-1" d="M229.16,100.62h-1.44V99.38l1.52-.1.2-2.72h1.38v2.72h2.62v1.34h-2.62V106c0,1.2.38,1.88,1.5,1.88a3.53,3.53,0,0,0,1.1-.26l.32,1.24a6,6,0,0,1-1.8.36c-2.08,0-2.78-1.32-2.78-3.24Z"/><path class="cls-1" d="M239.22,99c2.38,0,4.5,1.86,4.5,5.12s-2.12,5.08-4.5,5.08-4.5-1.86-4.5-5.08S236.84,99,239.22,99Zm0,8.84c1.68,0,2.8-1.5,2.8-3.72s-1.12-3.76-2.8-3.76-2.8,1.52-2.8,3.76S237.56,107.88,239.22,107.88Z"/><path class="cls-1" d="M97.34,120.22a1.14,1.14,0,0,1,2.28,0,1.14,1.14,0,0,1-2.28,0Zm.3,3.06h1.64V133H97.64Z"/><path class="cls-1" d="M102.56,123.28h1.36l.14,1.4h.06a4.58,4.58,0,0,1,3.26-1.64c2,0,3,1.32,3,3.8V133H108.7v-5.94c0-1.82-.56-2.6-1.84-2.6-1,0-1.68.52-2.66,1.5v7h-1.64Z"/><path class="cls-1" d="M117.46,123a4,4,0,0,1,2.84,1.16l-.82,1.06a2.94,2.94,0,0,0-2-.86c-1.76,0-3,1.52-3,3.76s1.22,3.72,3,3.72a3.47,3.47,0,0,0,2.28-1l.74,1.08a4.81,4.81,0,0,1-3.16,1.26c-2.58,0-4.56-1.86-4.56-5.08S115,123,117.46,123Z"/><path class="cls-1" d="M122.62,123.28H124l.14,1.76h.06a3.32,3.32,0,0,1,2.76-2,2.41,2.41,0,0,1,1,.2l-.32,1.44a2.72,2.72,0,0,0-.94-.16c-.82,0-1.8.6-2.46,2.24V133h-1.64Z"/><path class="cls-1" d="M133,123c2.48,0,3.88,1.78,3.88,4.56a5.8,5.8,0,0,1-.06.9h-6.56c.12,2.1,1.38,3.42,3.24,3.42a4.39,4.39,0,0,0,2.42-.76l.58,1.08a5.79,5.79,0,0,1-3.2,1c-2.6,0-4.66-1.9-4.66-5.08S130.78,123,133,123Zm2.44,4.38c0-2-.88-3.08-2.4-3.08-1.36,0-2.6,1.12-2.8,3.08Z"/><path class="cls-1" d="M144.5,126.84c0-1.24-.42-2.44-2-2.44a5.23,5.23,0,0,0-2.9,1l-.66-1.14a7.21,7.21,0,0,1,3.82-1.26c2.38,0,3.38,1.58,3.38,4v6h-1.36l-.14-1.16h0a5.28,5.28,0,0,1-3.22,1.4,2.65,2.65,0,0,1-2.86-2.76C138.52,128.36,140.36,127.3,144.5,126.84Zm-2.66,5.08a4,4,0,0,0,2.66-1.3v-2.7c-3.26.4-4.36,1.2-4.36,2.44A1.49,1.49,0,0,0,141.84,131.92Z"/><path class="cls-1" d="M149,130.8a4.37,4.37,0,0,0,2.86,1.16c1.28,0,1.92-.68,1.92-1.52,0-1-1.16-1.44-2.22-1.84-1.38-.5-2.9-1.16-2.9-2.8S149.88,123,152,123a4.85,4.85,0,0,1,3,1.1l-.78,1a3.61,3.61,0,0,0-2.22-.86c-1.22,0-1.78.66-1.78,1.4,0,.9,1.06,1.26,2.16,1.68,1.4.52,3,1.1,3,2.94,0,1.58-1.26,2.9-3.56,2.9a5.85,5.85,0,0,1-3.62-1.34Z"/><path class="cls-1" d="M161.26,123c2.48,0,3.88,1.78,3.88,4.56a5.8,5.8,0,0,1-.06.9h-6.56c.12,2.1,1.38,3.42,3.24,3.42a4.39,4.39,0,0,0,2.42-.76l.58,1.08a5.79,5.79,0,0,1-3.2,1c-2.6,0-4.66-1.9-4.66-5.08S159,123,161.26,123Zm2.44,4.38c0-2-.88-3.08-2.4-3.08-1.36,0-2.6,1.12-2.8,3.08Z"/><path class="cls-1" d="M171.58,123.28h1.36l.14,1.76h.06a3.32,3.32,0,0,1,2.76-2,2.41,2.41,0,0,1,1,.2l-.32,1.44a2.72,2.72,0,0,0-.94-.16c-.82,0-1.8.6-2.46,2.24V133h-1.64Z"/><path class="cls-1" d="M182,123c2.48,0,3.88,1.78,3.88,4.56a5.8,5.8,0,0,1-.06.9h-6.56c.12,2.1,1.38,3.42,3.24,3.42a4.39,4.39,0,0,0,2.42-.76l.58,1.08a5.79,5.79,0,0,1-3.2,1c-2.6,0-4.66-1.9-4.66-5.08S179.74,123,182,123Zm2.44,4.38c0-2-.88-3.08-2.4-3.08-1.36,0-2.6,1.12-2.8,3.08Z"/><path class="cls-1" d="M186.94,123.28h1.7l1.84,5.52c.28,1,.6,1.94.9,2.86h.08c.28-.92.6-1.9.88-2.86l1.84-5.52h1.62L192.36,133h-1.92Z"/><path class="cls-1" d="M201.24,123c2.48,0,3.88,1.78,3.88,4.56a5.8,5.8,0,0,1-.06.9H198.5c.12,2.1,1.38,3.42,3.24,3.42a4.39,4.39,0,0,0,2.42-.76l.58,1.08a5.79,5.79,0,0,1-3.2,1c-2.6,0-4.66-1.9-4.66-5.08S199,123,201.24,123Zm2.44,4.38c0-2-.88-3.08-2.4-3.08-1.36,0-2.6,1.12-2.8,3.08Z"/><path class="cls-1" d="M207.52,123.28h1.36l.14,1.4h.06a4.58,4.58,0,0,1,3.26-1.64c2,0,3,1.32,3,3.8V133h-1.64v-5.94c0-1.82-.56-2.6-1.84-2.6-1,0-1.68.52-2.66,1.5v7h-1.64Z"/><path class="cls-1" d="M218.32,123.28H220v5.94c0,1.82.54,2.6,1.82,2.6,1,0,1.7-.5,2.62-1.64v-6.9h1.64V133H224.7l-.14-1.52h-.06a4.11,4.11,0,0,1-3.2,1.76c-2.06,0-3-1.32-3-3.8Z"/><path class="cls-1" d="M233,123c2.48,0,3.88,1.78,3.88,4.56a5.8,5.8,0,0,1-.06.9h-6.56c.12,2.1,1.38,3.42,3.24,3.42a4.39,4.39,0,0,0,2.42-.76l.58,1.08a5.79,5.79,0,0,1-3.2,1c-2.6,0-4.66-1.9-4.66-5.08S230.76,123,233,123Zm2.44,4.38c0-2-.88-3.08-2.4-3.08-1.36,0-2.6,1.12-2.8,3.08Z"/><path class="cls-1" d="M239,130.8a4.37,4.37,0,0,0,2.86,1.16c1.28,0,1.92-.68,1.92-1.52,0-1-1.16-1.44-2.22-1.84-1.38-.5-2.9-1.16-2.9-2.8S239.9,123,242,123a4.85,4.85,0,0,1,3,1.1l-.78,1a3.61,3.61,0,0,0-2.22-.86c-1.22,0-1.78.66-1.78,1.4,0,.9,1.06,1.26,2.16,1.68,1.4.52,3,1.1,3,2.94,0,1.58-1.26,2.9-3.56,2.9a5.85,5.85,0,0,1-3.62-1.34Z"/><path class="cls-1" d="M102,144.1a2.73,2.73,0,0,0-1.1-.24c-.92,0-1.36.64-1.36,1.88v1.54h2.06v1.34H99.56V157H97.92v-8.38H96.6v-1.24l1.32-.1v-1.54c0-2,.9-3.22,2.84-3.22a4.4,4.4,0,0,1,1.62.32Z"/><path class="cls-1" d="M103.48,147.28h1.36L105,149H105a3.32,3.32,0,0,1,2.76-2,2.41,2.41,0,0,1,1,.2l-.32,1.44a2.72,2.72,0,0,0-.94-.16c-.82,0-1.8.6-2.46,2.24V157h-1.64Z"/><path class="cls-1" d="M114,147c2.38,0,4.5,1.86,4.5,5.12s-2.12,5.08-4.5,5.08-4.5-1.86-4.5-5.08S111.62,147,114,147Zm0,8.84c1.68,0,2.8-1.5,2.8-3.72s-1.12-3.76-2.8-3.76-2.8,1.52-2.8,3.76S112.34,155.88,114,155.88Z"/><path class="cls-1" d="M121.06,147.28h1.36l.14,1.4h.06a4.27,4.27,0,0,1,3-1.64,2.55,2.55,0,0,1,2.68,1.86,4.59,4.59,0,0,1,3.2-1.86c2,0,3,1.32,3,3.8V157h-1.64v-5.94c0-1.82-.58-2.6-1.8-2.6a3.57,3.57,0,0,0-2.44,1.5v7H127v-5.94c0-1.82-.58-2.6-1.82-2.6a3.65,3.65,0,0,0-2.44,1.5v7h-1.64Z"/><path class="cls-1" d="M143.32,157.82v3.28h-1.64V147.28H143l.14,1.12h.06a5,5,0,0,1,3.1-1.36c2.5,0,3.84,1.94,3.84,5,0,3.3-2,5.24-4.2,5.24a4.51,4.51,0,0,1-2.7-1.12Zm2.38-2c1.6,0,2.78-1.46,2.78-3.86,0-2.14-.72-3.58-2.56-3.58a4.09,4.09,0,0,0-2.6,1.32v5.1A3.85,3.85,0,0,0,145.7,155.86Z"/><path class="cls-1" d="M156.56,147c2.38,0,4.5,1.86,4.5,5.12s-2.12,5.08-4.5,5.08-4.5-1.86-4.5-5.08S154.18,147,156.56,147Zm0,8.84c1.68,0,2.8-1.5,2.8-3.72s-1.12-3.76-2.8-3.76-2.8,1.52-2.8,3.76S154.9,155.88,156.56,155.88Z"/><path class="cls-1" d="M162.38,147.28h1.68l1.44,5.62c.22.92.4,1.8.58,2.7h.08c.22-.9.42-1.8.66-2.7l1.5-5.62h1.6l1.52,5.62c.24.92.46,1.8.68,2.7h.08c.22-.9.4-1.78.6-2.7l1.42-5.62h1.56l-2.6,9.72h-2l-1.4-5.22c-.24-.92-.42-1.82-.66-2.8H169c-.22,1-.42,1.9-.68,2.82L167,157h-1.92Z"/><path class="cls-1" d="M181.46,147c2.48,0,3.88,1.78,3.88,4.56a5.8,5.8,0,0,1-.06.9h-6.56c.12,2.1,1.38,3.42,3.24,3.42a4.39,4.39,0,0,0,2.42-.76l.58,1.08a5.79,5.79,0,0,1-3.2,1c-2.6,0-4.66-1.9-4.66-5.08S179.24,147,181.46,147Zm2.44,4.38c0-2-.88-3.08-2.4-3.08-1.36,0-2.6,1.12-2.8,3.08Z"/><path class="cls-1" d="M187.74,147.28h1.36l.14,1.76h.06a3.32,3.32,0,0,1,2.76-2,2.41,2.41,0,0,1,1,.2l-.32,1.44a2.72,2.72,0,0,0-.94-.16c-.82,0-1.8.6-2.46,2.24V157h-1.64Z"/><path class="cls-1" d="M199.4,156.66v-.08a1.79,1.79,0,0,1-.86-1.58,2.28,2.28,0,0,1,1.06-1.8v-.08A3.43,3.43,0,0,1,202,147a3.88,3.88,0,0,1,1.38.24h3.38v1.26h-2a2.82,2.82,0,0,1,.8,2,3.34,3.34,0,0,1-3.56,3.38,3.4,3.4,0,0,1-1.46-.34,1.47,1.47,0,0,0-.62,1.16c0,.62.4,1.06,1.72,1.06h1.88c2.26,0,3.4.7,3.4,2.32,0,1.8-1.9,3.36-4.92,3.36-2.38,0-4-.94-4-2.62A2.81,2.81,0,0,1,199.4,156.66Zm2.84,3.68c1.86,0,3.08-1,3.08-2s-.7-1.2-2-1.2h-1.68a4.73,4.73,0,0,1-1.26-.16,2,2,0,0,0-1,1.64C199.42,159.68,200.48,160.34,202.24,160.34Zm1.82-9.84a2.07,2.07,0,1,0-4.12,0,2.07,2.07,0,1,0,4.12,0Z"/><path class="cls-1" d="M212.16,147c2.48,0,3.88,1.78,3.88,4.56a5.8,5.8,0,0,1-.06.9h-6.56c.12,2.1,1.38,3.42,3.24,3.42a4.39,4.39,0,0,0,2.42-.76l.58,1.08a5.79,5.79,0,0,1-3.2,1c-2.6,0-4.66-1.9-4.66-5.08S209.94,147,212.16,147Zm2.44,4.38c0-2-.88-3.08-2.4-3.08-1.36,0-2.6,1.12-2.8,3.08Z"/><path class="cls-1" d="M218.44,147.28h1.36l.14,1.4H220a4.58,4.58,0,0,1,3.26-1.64c2,0,3,1.32,3,3.8V157h-1.64v-5.94c0-1.82-.56-2.6-1.84-2.6-1,0-1.68.52-2.66,1.5v7h-1.64Z"/><path class="cls-1" d="M233,147c2.48,0,3.88,1.78,3.88,4.56a5.8,5.8,0,0,1-.06.9h-6.56c.12,2.1,1.38,3.42,3.24,3.42a4.39,4.39,0,0,0,2.42-.76l.58,1.08a5.79,5.79,0,0,1-3.2,1c-2.6,0-4.66-1.9-4.66-5.08S230.8,147,233,147Zm2.44,4.38c0-2-.88-3.08-2.4-3.08-1.36,0-2.6,1.12-2.8,3.08Z"/><path class="cls-1" d="M239.3,147.28h1.36l.14,1.76h.06a3.32,3.32,0,0,1,2.76-2,2.41,2.41,0,0,1,1,.2l-.32,1.44a2.72,2.72,0,0,0-.94-.16c-.82,0-1.8.6-2.46,2.24V157H239.3Z"/><path class="cls-1" d="M251.24,150.84c0-1.24-.42-2.44-2-2.44a5.23,5.23,0,0,0-2.9,1l-.66-1.14A7.21,7.21,0,0,1,249.5,147c2.38,0,3.38,1.58,3.38,4v6h-1.36l-.14-1.16h0a5.28,5.28,0,0,1-3.22,1.4,2.65,2.65,0,0,1-2.86-2.76C245.26,152.36,247.1,151.3,251.24,150.84Zm-2.66,5.08a4,4,0,0,0,2.66-1.3v-2.7c-3.26.4-4.36,1.2-4.36,2.44A1.49,1.49,0,0,0,248.58,155.92Z"/><path class="cls-1" d="M256.26,148.62h-1.44v-1.24l1.52-.1.2-2.72h1.38v2.72h2.62v1.34h-2.62V154c0,1.2.38,1.88,1.5,1.88a3.53,3.53,0,0,0,1.1-.26l.32,1.24a6,6,0,0,1-1.8.36c-2.08,0-2.78-1.32-2.78-3.24Z"/><path class="cls-1" d="M262.44,144.22a1.14,1.14,0,0,1,2.28,0,1.14,1.14,0,0,1-2.28,0Zm.3,3.06h1.64V157h-1.64Z"/><path class="cls-1" d="M271.44,147c2.38,0,4.5,1.86,4.5,5.12s-2.12,5.08-4.5,5.08-4.5-1.86-4.5-5.08S269.06,147,271.44,147Zm0,8.84c1.68,0,2.8-1.5,2.8-3.72s-1.12-3.76-2.8-3.76-2.8,1.52-2.8,3.76S269.78,155.88,271.44,155.88Z"/><path class="cls-1" d="M278.5,147.28h1.36l.14,1.4h.06a4.58,4.58,0,0,1,3.26-1.64c2,0,3,1.32,3,3.8V157h-1.64v-5.94c0-1.82-.56-2.6-1.84-2.6-1,0-1.68.52-2.66,1.5v7H278.5Z"/></svg>