<svg id="Layer_1" data-name="Layer 1" xmlns="http://www.w3.org/2000/svg" viewBox="0 0 300 250"><defs><style>.cls-1{fill:#fff;}</style></defs><title>text</title><path class="cls-1" d="M105.72,125.51a8.33,8.33,0,0,1-7.33-4.06l2.69-2.59a4.88,4.88,0,0,0,4.48,2.84,3,3,0,0,0,3.29-3c0-4.39-9.37-2.31-9.37-9.19,0-3.77,3-6.2,6.65-6.2a9.37,9.37,0,0,1,6.24,2.36l-2.17,2.85a4.33,4.33,0,0,0-3.46-1.73c-1.37,0-3,.87-3,2.4,0,3.62,9.37,1.83,9.37,9.28C113.14,122.82,109.94,125.51,105.72,125.51Z"/><path class="cls-1" d="M123.25,125.29h-1.79l-7.07-14.15h4.35l3.65,7.81,3.65-7.81h4.35Z"/><path class="cls-1" d="M142.17,125v-1.82a5.37,5.37,0,0,1-4.52,2.27c-4.16,0-6.81-3.46-6.81-7.43s2.65-7.32,6.72-7.32a5.77,5.77,0,0,1,4.61,2.2v-1.76h3.9V125Zm-3.46-10.82a3.89,3.89,0,1,0,3.87,3.88A3.87,3.87,0,0,0,138.71,114.18Z"/><path class="cls-1" d="M159.25,125v-7.68c0-1.89-.41-3.33-2.62-3.33-2.4,0-3,1.76-3,3.84V125h-3.87V111.14h3.87v1.7A5.12,5.12,0,0,1,158,110.7a4.77,4.77,0,0,1,5.12,5.5V125Z"/><path class="cls-1" d="M177.43,125v-1.82a5.37,5.37,0,0,1-4.51,2.27c-4.16,0-6.82-3.46-6.82-7.43s2.66-7.32,6.72-7.32a5.77,5.77,0,0,1,4.61,2.2v-1.76h3.9V125ZM174,114.18a3.89,3.89,0,1,0,3.87,3.88A3.87,3.87,0,0,0,174,114.18Z"/><path class="cls-1" d="M193.56,106.63l2.94,2.88-2.4,1.73-1.86-3.68-1.82,3.71-2.4-1.73,2.91-2.91-4.06-.6.93-2.82,3.64,1.86-.67-4h3l-.67,4,3.64-1.89.9,2.81Z"/><path class="cls-1" d="M76.31,160v-1.82a5.37,5.37,0,0,1-4.51,2.27C67.64,160.45,65,157,65,153s2.66-7.32,6.72-7.32a5.77,5.77,0,0,1,4.61,2.2V136h3.9v24Zm-3.46-10.82a3.89,3.89,0,1,0,3.88,3.88A3.87,3.87,0,0,0,72.85,149.18Z"/><path class="cls-1" d="M85.81,142.63a2.34,2.34,0,1,1,2.31-2.34A2.35,2.35,0,0,1,85.81,142.63Zm-2,17.37V146.14h3.87V160Z"/><path class="cls-1" d="M100.85,160v-7.68c0-1.89-.41-3.33-2.62-3.33-2.4,0-3,1.76-3,3.84V160H91.38V146.14h3.87v1.7a5.12,5.12,0,0,1,4.36-2.14,4.77,4.77,0,0,1,5.11,5.5V160Z"/><path class="cls-1" d="M125.91,160v-7.58c0-1.92-.42-3.43-2.66-3.43-2.4,0-2.94,1.86-2.94,3.91V160h-3.87V136h3.87v11.91a5,5,0,0,1,4.35-2.24,5.28,5.28,0,0,1,4,1.69,5.52,5.52,0,0,1,1.09,3.91V160Z"/><path class="cls-1" d="M140.18,160.45c-3.81,0-6.69-1.7-6.69-5.82v-8.49h3.88V154c0,1.89.8,3.17,2.81,3.17S143,155.87,143,154v-7.84h3.9v8.49C146.9,158.75,144,160.45,140.18,160.45Z"/><path class="cls-1" d="M155,160.45a7.37,7.37,0,0,1-5.28-2.31l2.05-2.36a4.52,4.52,0,0,0,3.26,1.63,1.63,1.63,0,0,0,1.76-1.54c0-2.37-6.18-1.18-6.18-5.85,0-2.82,2.34-4.39,5-4.39a7.14,7.14,0,0,1,4.52,1.48l-1.92,2.27a3.9,3.9,0,0,0-2.31-.93c-.67,0-1.47.42-1.47,1.18,0,2,6.4,1.12,6.4,5.86C160.82,158.72,158,160.45,155,160.45Z"/><path class="cls-1" d="M174.16,160v-1.82a5.34,5.34,0,0,1-4.51,2.27c-4.16,0-6.81-3.46-6.81-7.43s2.65-7.32,6.72-7.32a5.74,5.74,0,0,1,4.6,2.2V136h3.91v24Zm-3.45-10.82a3.89,3.89,0,1,0,3.87,3.88A3.86,3.86,0,0,0,170.71,149.18Z"/><path class="cls-1" d="M190.84,149.66a3.45,3.45,0,0,0-1.86-.48c-2.62,0-3.33,1.86-3.33,4.16V160h-3.87V146.14h3.87v2.08a4.47,4.47,0,0,1,4-2.52,4.35,4.35,0,0,1,1.7.32Z"/><path class="cls-1" d="M200.5,160.45c-4.42,0-7.94-2.75-7.94-7.36s3.52-7.39,8-7.39,7.87,2.78,7.87,7.36S204.88,160.45,200.5,160.45Zm-3.36-16.9a2.3,2.3,0,1,1,0-4.6,2.3,2.3,0,0,1,0,4.6Zm3.33,5.63a3.89,3.89,0,1,0,3.93,3.91A3.93,3.93,0,0,0,200.47,149.18Zm3.32-5.63a2.33,2.33,0,0,1-2.3-2.3,2.31,2.31,0,1,1,2.3,2.3Z"/><path class="cls-1" d="M229.07,160v-7.58c0-1.63-.25-3.43-2.3-3.43-2.27,0-2.66,2.08-2.66,3.91V160h-3.87v-7.36a6.33,6.33,0,0,0-.28-2.3,2.25,2.25,0,0,0-2.08-1.35,2.53,2.53,0,0,0-2.18,1.25,5.71,5.71,0,0,0-.45,2.66V160h-3.87V146.14h3.87v1.57a5.33,5.33,0,0,1,4.22-2,4.7,4.7,0,0,1,4.32,2.52,5.13,5.13,0,0,1,4.55-2.52,4.56,4.56,0,0,1,3.87,2A6.11,6.11,0,0,1,233,151v9Z"/></svg>