<svg id="Layer_1" data-name="Layer 1" xmlns="http://www.w3.org/2000/svg" viewBox="0 0 300 250"><defs><style>.cls-1{fill:#d80201;}</style></defs><title>text</title><path class="cls-1" d="M30.63,122V100.66h11.8v3.61H34.79V109h7.36v3.62H34.79v5.75h7.64V122Z"/><path class="cls-1" d="M57,122l-4-4.83L49,122H44l6.6-7.55-5.32-6.31h4.9l2.85,3.59L56,108.14H60.9l-5.44,6.31L62,122Z"/><path class="cls-1" d="M67.75,111.47V122H63.87V111.47H62.34v-3.33h1.53v-4.73h3.88v4.73h2.72v3.33Z"/><path class="cls-1" d="M81.54,111.66a3.45,3.45,0,0,0-1.86-.48c-2.62,0-3.33,1.86-3.33,4.16V122H72.48V108.14h3.87v2.08a4.47,4.47,0,0,1,4-2.52,4.3,4.3,0,0,1,1.69.32Z"/><path class="cls-1" d="M94.59,122v-1.82a5.36,5.36,0,0,1-4.51,2.27c-4.16,0-6.81-3.46-6.81-7.43s2.65-7.32,6.71-7.32a5.77,5.77,0,0,1,4.61,2.2v-1.76H98.5V122Zm-3.45-10.82A3.89,3.89,0,1,0,95,115.06,3.86,3.86,0,0,0,91.14,111.18Z"/><path class="cls-1" d="M118.62,122.45a5.45,5.45,0,0,1-4.54-2.27V122h-3.87V98h3.87V109.9a5.87,5.87,0,0,1,4.64-2.2c4.06,0,6.75,3.45,6.75,7.32S122.78,122.45,118.62,122.45Zm-1.05-11.27a3.89,3.89,0,1,0,3.87,3.88A3.86,3.86,0,0,0,117.57,111.18Z"/><path class="cls-1" d="M137.47,111.66a3.44,3.44,0,0,0-1.85-.48c-2.63,0-3.33,1.86-3.33,4.16V122h-3.87V108.14h3.87v2.08a4.44,4.44,0,0,1,4-2.52,4.35,4.35,0,0,1,1.7.32Z"/><path class="cls-1" d="M150.53,122v-1.82a5.37,5.37,0,0,1-4.51,2.27c-4.16,0-6.82-3.46-6.82-7.43s2.66-7.32,6.72-7.32a5.77,5.77,0,0,1,4.61,2.2v-1.76h3.9V122Zm-3.46-10.82a3.89,3.89,0,1,0,3.87,3.88A3.87,3.87,0,0,0,147.07,111.18Z"/><path class="cls-1" d="M176.73,122v-1.82a5.34,5.34,0,0,1-4.51,2.27c-4.16,0-6.81-3.46-6.81-7.43s2.65-7.32,6.72-7.32a5.74,5.74,0,0,1,4.6,2.2V98h3.91v24Zm-3.45-10.82a3.89,3.89,0,1,0,3.87,3.88A3.86,3.86,0,0,0,173.28,111.18Z"/><path class="cls-1" d="M187.58,115.7c.07,2.14,1.09,3.71,3.39,3.71a3.63,3.63,0,0,0,3.3-1.86l3.58.58c-1.21,3-3.68,4.32-6.81,4.32-4.48,0-7.42-2.88-7.42-7.39s2.81-7.36,7.26-7.36,7.07,3.07,7.07,7.48v.52Zm3.36-5.25a3.14,3.14,0,0,0-3.23,2.78h6.56A3.2,3.2,0,0,0,190.94,110.45Z"/><path class="cls-1" d="M211.52,122v-1.82a5.37,5.37,0,0,1-4.51,2.27c-4.16,0-6.82-3.46-6.82-7.43s2.66-7.32,6.72-7.32a5.77,5.77,0,0,1,4.61,2.2v-1.76h3.9V122Zm-3.46-10.82a3.89,3.89,0,1,0,3.87,3.88A3.87,3.87,0,0,0,208.06,111.18Z"/><path class="cls-1" d="M219.13,122V98H223v24Z"/><path class="cls-1" d="M238.72,111.47V122h-3.87V111.47h-1.51v-3.33h1.51V103.7a6.81,6.81,0,0,1,.6-3.27,5.5,5.5,0,0,1,4.8-2.78,4.57,4.57,0,0,1,2.05.48v3.55a3.81,3.81,0,0,0-1.76-.51c-1.73,0-1.82,1.79-1.82,3.1v3.87h3.58v3.33Z"/><path class="cls-1" d="M251.29,122.45c-4.41,0-7.93-2.75-7.93-7.36s3.52-7.39,8-7.39,7.87,2.78,7.87,7.36S255.68,122.45,251.29,122.45Zm-3.36-16.9a2.3,2.3,0,0,1,0-4.6,2.3,2.3,0,1,1,0,4.6Zm3.33,5.63a3.89,3.89,0,1,0,3.94,3.91A3.93,3.93,0,0,0,251.26,111.18Zm3.33-5.63a2.33,2.33,0,0,1-2.3-2.3,2.3,2.3,0,1,1,2.3,2.3Z"/><path class="cls-1" d="M271.23,111.66a3.45,3.45,0,0,0-1.86-.48c-2.62,0-3.33,1.86-3.33,4.16V122h-3.87V108.14H266v2.08a4.47,4.47,0,0,1,4-2.52,4.27,4.27,0,0,1,1.69.32Z"/><path class="cls-1" d="M55,157v-1.82a5.37,5.37,0,0,1-4.51,2.27c-4.16,0-6.82-3.46-6.82-7.43s2.66-7.32,6.72-7.32A5.77,5.77,0,0,1,55,144.9v-1.76h3.9V157ZM51.5,146.18a3.89,3.89,0,1,0,3.88,3.88A3.87,3.87,0,0,0,51.5,146.18Z"/><path class="cls-1" d="M62.58,157V133h3.87v24Z"/><path class="cls-1" d="M70.16,157V133H74v24Z"/><path class="cls-1" d="M88.34,157v-1.82a5.37,5.37,0,0,1-4.52,2.27C79.67,157.45,77,154,77,150s2.66-7.32,6.72-7.32a5.77,5.77,0,0,1,4.61,2.2v-1.76h3.9V157Zm-3.46-10.82a3.89,3.89,0,1,0,3.87,3.88A3.87,3.87,0,0,0,84.88,146.18Z"/><path class="cls-1" d="M113.42,157v-7.68c0-1.89-.41-3.33-2.62-3.33-2.4,0-3,1.76-3,3.84V157H104V143.14h3.87v1.7a5.12,5.12,0,0,1,4.36-2.14,4.78,4.78,0,0,1,5.12,5.5V157Z"/><path class="cls-1" d="M124.34,164.42H120l5.09-9.5-6.56-11.78H123l4.16,7.88,4-7.88h4.42Z"/><path class="cls-1" d="M147.25,157v-1.82a5.37,5.37,0,0,1-4.51,2.27c-4.16,0-6.82-3.46-6.82-7.43s2.66-7.32,6.72-7.32a5.77,5.77,0,0,1,4.61,2.2v-1.76h3.9V157Zm-3.46-10.82a3.89,3.89,0,1,0,3.87,3.88A3.87,3.87,0,0,0,143.79,146.18Z"/><path class="cls-1" d="M169.9,157.29h-1.79L161,143.14h4.35L169,151l3.65-7.81H177Z"/><path class="cls-1" d="M189.52,157v-1.82a5.37,5.37,0,0,1-4.51,2.27c-4.16,0-6.82-3.46-6.82-7.43s2.66-7.32,6.72-7.32a5.77,5.77,0,0,1,4.61,2.2v-1.76h3.9V157Zm-6.69-16.45a2.3,2.3,0,0,1,0-4.6,2.3,2.3,0,1,1,0,4.6Zm3.23,5.63a3.89,3.89,0,1,0,3.88,3.88A3.87,3.87,0,0,0,186.06,146.18Zm3.43-5.63a2.34,2.34,0,0,1-2.31-2.3,2.31,2.31,0,1,1,2.31,2.3Z"/><path class="cls-1" d="M206.61,157v-7.68c0-1.89-.42-3.33-2.63-3.33-2.4,0-3,1.76-3,3.84V157h-3.87V143.14H201v1.7a5.12,5.12,0,0,1,4.35-2.14,4.78,4.78,0,0,1,5.12,5.5V157Z"/><path class="cls-1" d="M223.66,157v-7.68c0-1.89-.41-3.33-2.62-3.33-2.4,0-3,1.76-3,3.84V157h-3.87V143.14h3.87v1.7a5.12,5.12,0,0,1,4.35-2.14,4.77,4.77,0,0,1,5.12,5.5V157Z"/><path class="cls-1" d="M234.48,150.7c.06,2.14,1.09,3.71,3.39,3.71a3.64,3.64,0,0,0,3.3-1.86l3.58.58c-1.22,3-3.68,4.32-6.82,4.32-4.47,0-7.42-2.88-7.42-7.39s2.82-7.36,7.26-7.36,7.08,3.07,7.08,7.48v.52Zm3.36-5.25a3.14,3.14,0,0,0-3.23,2.78h6.56A3.22,3.22,0,0,0,237.84,145.45Z"/><path class="cls-1" d="M256.88,146.66a3.45,3.45,0,0,0-1.86-.48c-2.62,0-3.33,1.86-3.33,4.16V157h-3.87V143.14h3.87v2.08a4.47,4.47,0,0,1,4-2.52,4.3,4.3,0,0,1,1.69.32Z"/></svg>