<svg id="Layer_1" data-name="Layer 1" xmlns="http://www.w3.org/2000/svg" viewBox="0 0 300 250"><defs><style>.cls-1{fill:#d80201;}</style></defs><title>text</title><path class="cls-1" d="M43.65,121.12c-1.08,5.39-5.67,8.61-11.06,8.61-7.07,0-12.25-5-12.25-12.15a12,12,0,0,1,12.39-12.25,11.14,11.14,0,0,1,10,5.5l-4,2.14a6.85,6.85,0,0,0-6.09-3.47c-4.55,0-7.67,3.68-7.67,8.09s3.12,8,7.67,8c3,0,5.71-1.82,6.09-5h-5.5v-3.92H44v.56A20.2,20.2,0,0,1,43.65,121.12Z"/><path class="cls-1" d="M47.53,129.21V103h4.24v26.22Z"/><path class="cls-1" d="M63.7,129.7c-4.83,0-8.68-3-8.68-8.05s3.85-8.09,8.72-8.09,8.61,3,8.61,8.05S68.5,129.7,63.7,129.7ZM60,111.22a2.52,2.52,0,0,1,0-5,2.52,2.52,0,1,1,0,5Zm3.64,6.16A4.25,4.25,0,1,0,68,121.65,4.29,4.29,0,0,0,63.67,117.38Zm3.64-6.16a2.56,2.56,0,0,1-2.52-2.52,2.52,2.52,0,1,1,2.52,2.52Z"/><path class="cls-1" d="M95,129.21v-8.3c0-1.79-.28-3.75-2.52-3.75-2.49,0-2.91,2.28-2.91,4.27v7.77H85.3v-8.05a6.76,6.76,0,0,0-.31-2.52,2.45,2.45,0,0,0-2.28-1.47,2.76,2.76,0,0,0-2.38,1.37,6.29,6.29,0,0,0-.49,2.91v7.77H75.6V114.05h4.24v1.72a5.82,5.82,0,0,1,4.62-2.21,5.15,5.15,0,0,1,4.73,2.77,5.6,5.6,0,0,1,5-2.77,5,5,0,0,1,4.24,2.17,6.68,6.68,0,0,1,.81,3.68v9.8Z"/><path class="cls-1" d="M107.52,117.69v11.52h-4.24V117.69h-1.68v-3.64h1.68v-5.18h4.24v5.18h3v3.64Z"/><path class="cls-1" d="M133,129.21v-2a5.86,5.86,0,0,1-4.94,2.49c-4.55,0-7.46-3.78-7.46-8.12s2.91-8,7.35-8a6.32,6.32,0,0,1,5,2.42v-1.93h4.27v15.16Zm-3.78-11.83a4.25,4.25,0,1,0,4.24,4.24A4.23,4.23,0,0,0,129.26,117.38Z"/><path class="cls-1" d="M145.64,117.69v11.52H141.4V117.69h-1.68v-3.64h1.68v-5.18h4.23v5.18h3v3.64Z"/><path class="cls-1" d="M155.09,117.69v11.52h-4.23V117.69h-1.68v-3.64h1.68v-5.18h4.23v5.18h3v3.64Z"/><path class="cls-1" d="M173.39,117.69v11.52h-4.24V117.69h-1.64v-3.64h1.64v-4.87a7.39,7.39,0,0,1,.67-3.57,6,6,0,0,1,5.25-3,5,5,0,0,1,2.24.52V107a4.22,4.22,0,0,0-1.92-.56c-1.89,0-2,2-2,3.4v4.24h3.92v3.64Z"/><path class="cls-1" d="M187.15,129.7c-4.83,0-8.68-3-8.68-8.05s3.85-8.09,8.72-8.09,8.61,3,8.61,8.05S191.94,129.7,187.15,129.7Zm0-12.32a4.25,4.25,0,1,0,4.31,4.27A4.29,4.29,0,0,0,187.11,117.38Z"/><path class="cls-1" d="M209,117.9a3.75,3.75,0,0,0-2-.52c-2.87,0-3.64,2-3.64,4.55v7.28H199V114.05h4.24v2.28a4.94,4.94,0,0,1,6.27-2.42Z"/><path class="cls-1" d="M231,129.21v-8.3c0-1.79-.28-3.75-2.52-3.75-2.49,0-2.91,2.28-2.91,4.27v7.77h-4.24v-8.05a6.75,6.75,0,0,0-.32-2.52,2.45,2.45,0,0,0-2.28-1.47,2.76,2.76,0,0,0-2.38,1.37,6.29,6.29,0,0,0-.49,2.91v7.77h-4.24V114.05h4.24v1.72a5.82,5.82,0,0,1,4.62-2.21,5.15,5.15,0,0,1,4.73,2.77,5.61,5.61,0,0,1,5-2.77,5,5,0,0,1,4.24,2.17,6.68,6.68,0,0,1,.81,3.68v9.8Z"/><path class="cls-1" d="M250.88,129.21v-2a5.86,5.86,0,0,1-4.94,2.49c-4.55,0-7.46-3.78-7.46-8.12s2.91-8,7.35-8a6.32,6.32,0,0,1,5,2.42v-1.93h4.27v15.16Zm-3.78-11.83a4.25,4.25,0,1,0,4.24,4.24A4.23,4.23,0,0,0,247.1,117.38Z"/><path class="cls-1" d="M31.26,166.21l-5.71-6.51-.46.46v6.06H20.86V140H25.1v16.59l5.67-5.53h5.74L29.4,157.7l7.67,8.51Z"/><path class="cls-1" d="M39,166.21V140h4.24v26.22Z"/><path class="cls-1" d="M58.84,166.21v-2a5.86,5.86,0,0,1-4.94,2.49c-4.55,0-7.46-3.78-7.46-8.12s2.91-8,7.35-8a6.32,6.32,0,0,1,5,2.42v-1.93h4.27v15.16Zm-3.78-11.83a4.25,4.25,0,1,0,4.24,4.24A4.23,4.23,0,0,0,55.06,154.38Z"/><path class="cls-1" d="M77.07,154.9a3.75,3.75,0,0,0-2-.52c-2.87,0-3.64,2-3.64,4.55v7.28H67.17V151.05H71.4v2.28a4.95,4.95,0,0,1,6.27-2.42Z"/><path class="cls-1" d="M84.81,154.69v11.52H80.57V154.69H78.89v-3.64h1.68v-5.18h4.24v5.18h3v3.64Z"/><path class="cls-1" d="M110.32,166.21v-2a5.86,5.86,0,0,1-4.94,2.49c-4.55,0-7.46-3.78-7.46-8.12s2.91-8,7.35-8a6.32,6.32,0,0,1,5,2.42V140h4.27v26.22Zm-3.78-11.83a4.25,4.25,0,1,0,4.24,4.24A4.23,4.23,0,0,0,106.54,154.38Z"/><path class="cls-1" d="M120.72,147.2a2.56,2.56,0,0,1,0-5.11,2.56,2.56,0,0,1,0,5.11Zm-2.14,19V151.05h4.24v15.16Z"/><path class="cls-1" d="M131.08,154.69v11.52h-4.24V154.69h-1.68v-3.64h1.68v-5.18h4.24v5.18h3v3.64Z"/><path class="cls-1" d="M140.53,154.69v11.52h-4.24V154.69h-1.68v-3.64h1.68v-5.18h4.24v5.18h3v3.64Z"/><path class="cls-1" d="M164.82,166.21v-8.4c0-2.07-.46-3.64-2.87-3.64-2.63,0-3.26,1.93-3.26,4.2v7.84h-4.24V151.05h4.24v1.86a5.59,5.59,0,0,1,4.76-2.34,5.23,5.23,0,0,1,5.6,6v9.63Z"/><path class="cls-1" d="M176.75,174.33H172l5.57-10.4-7.18-12.88h4.94l4.55,8.61,4.34-8.61H189Z"/><path class="cls-1" d="M201.81,166.21v-2a5.86,5.86,0,0,1-4.94,2.49c-4.55,0-7.46-3.78-7.46-8.12s2.91-8,7.35-8a6.32,6.32,0,0,1,5,2.42v-1.93h4.27v15.16ZM198,154.38a4.25,4.25,0,1,0,4.24,4.24A4.23,4.23,0,0,0,198,154.38Z"/><path class="cls-1" d="M229.25,166.21v-8.3c0-2.1-.46-3.75-2.91-3.75-2.63,0-3.22,2-3.22,4.27v7.77h-4.24V140h4.24v13a5.52,5.52,0,0,1,4.76-2.45,5.79,5.79,0,0,1,4.41,1.85,6,6,0,0,1,1.19,4.27v9.52Z"/><path class="cls-1" d="M244.86,166.7c-4.17,0-7.32-1.86-7.32-6.37v-9.28h4.24v8.58c0,2.07.88,3.47,3.08,3.47s3.08-1.4,3.08-3.47v-8.58h4.27v9.28C252.21,164.84,249,166.7,244.86,166.7Z"/><path class="cls-1" d="M261.1,166.7a8.06,8.06,0,0,1-5.78-2.52l2.24-2.59a4.92,4.92,0,0,0,3.57,1.79,1.79,1.79,0,0,0,1.93-1.68c0-2.59-6.76-1.29-6.76-6.41,0-3.08,2.55-4.79,5.43-4.79a7.81,7.81,0,0,1,4.94,1.61l-2.1,2.49a4.23,4.23,0,0,0-2.52-1c-.74,0-1.61.46-1.61,1.29,0,2.21,7,1.23,7,6.41C267.43,164.81,264.35,166.7,261.1,166.7Z"/><path class="cls-1" d="M278.32,155.43v3H274v-6.16a6.87,6.87,0,0,0,1.23.14c2.13,0,4.41-1.08,4.41-3.5a2.63,2.63,0,0,0-2.7-2.7,2.48,2.48,0,0,0-2.52,2.49c0,.14,0,.28,0,.42h-4.55v-.42c0-3.82,3.57-6.27,7.14-6.27,3.75,0,7.07,2.7,7.07,6.58C284.13,152.52,281.54,154.66,278.32,155.43Zm-2.07,11.24a2.73,2.73,0,1,1,2.73-2.73A2.74,2.74,0,0,1,276.25,166.66Z"/></svg>