<svg id="Layer_1" data-name="Layer 1" xmlns="http://www.w3.org/2000/svg" viewBox="0 0 300 250"><defs><style>.cls-1{fill:#d80201;}.cls-2{fill:#fff;}</style></defs><title>text</title><rect class="cls-1" x="75" y="208" width="148.67" height="24" rx="12"/><path class="cls-2" d="M101.22,224.67H98.08v-9.35h2.31a3.67,3.67,0,0,1,2.28.56,2.52,2.52,0,0,1,.84,1.92,2,2,0,0,1-1,1.88,2.1,2.1,0,0,1,1.22.59,2.51,2.51,0,0,1,.67,1.75C104.38,223.88,102.9,224.67,101.22,224.67Zm-.79-7.86H99.9v2.41h.52c.81,0,1.41-.32,1.41-1.21S101.24,216.81,100.43,216.81Zm.31,3.79H99.9v2.6h.78c.9,0,1.82-.21,1.82-1.31S101.61,220.6,100.74,220.6Z"/><path class="cls-2" d="M106.06,224.67v-9.35h5.17v1.59h-3.35V219h3.22v1.58h-3.22v2.52h3.35v1.59Z"/><path class="cls-2" d="M115.58,224.89a3.66,3.66,0,0,1-3.21-1.78l1.18-1.13a2.14,2.14,0,0,0,2,1.24,1.33,1.33,0,0,0,1.44-1.31c0-1.92-4.1-1-4.1-4a2.74,2.74,0,0,1,2.91-2.72,4,4,0,0,1,2.73,1l-.95,1.24a1.91,1.91,0,0,0-1.51-.75c-.6,0-1.3.38-1.3,1.05,0,1.58,4.1.8,4.1,4.06A3,3,0,0,1,115.58,224.89Z"/><path class="cls-2" d="M123.36,216.91v7.76h-1.82v-7.76h-2.08v-1.59h6v1.59Z"/><path class="cls-2" d="M132.49,224.67l-.8-2h-3.8l-.86,2H125.1l4.05-9.54h1.37l3.93,9.54Zm-4.28-10.37a1,1,0,0,1-1-1,1,1,0,0,1,2,0A1,1,0,0,1,128.21,214.3Zm1.61,3.56-1.36,3.36h2.67Zm1.52-3.56a1,1,0,0,1-1-1,1,1,0,1,1,1,1Z"/><path class="cls-2" d="M135.54,224.67v-9.35h1.82v7.76h2.87v1.59Z"/><path class="cls-2" d="M141.49,224.67v-9.35h1.82v7.76h2.87v1.59Z"/><path class="cls-2" d="M156.71,224.67v-4.16h-4v4.16h-1.82v-9.35h1.82v3.62h4v-3.62h1.82v9.35Z"/><path class="cls-2" d="M167,224.67l-.8-2h-3.81l-.85,2h-1.93l4-9.54H165l3.93,9.54Zm-4.28-10.37a1,1,0,0,1-1-1,1,1,0,0,1,2,0A1,1,0,0,1,162.72,214.3Zm1.61,3.56L163,221.22h2.67Zm1.52-3.56a1,1,0,0,1-1-1,1,1,0,1,1,1,1Z"/><path class="cls-2" d="M174.62,224.67l-2.52-3.76h-.23v3.76h-1.82v-9.35h2.7a3.87,3.87,0,0,1,2.39.68,2.72,2.72,0,0,1,.92,2.1,3.16,3.16,0,0,1-.53,1.71,2.43,2.43,0,0,1-1.6.92l2.94,3.94Zm-2.2-7.86h-.55v2.81h.52c.94,0,1.79-.33,1.79-1.41S173.36,216.81,172.42,216.81Z"/><polygon class="cls-2" points="196 221.17 186.17 221.17 186.17 218.67 196 218.67 196 214.88 203 219.92 196 224.75 196 221.17"/></svg>