<svg id="Layer_1" data-name="Layer 1" xmlns="http://www.w3.org/2000/svg" viewBox="0 0 300 250"><defs><style>.cls-1{fill:#d80201;}</style></defs><title>text</title><path class="cls-1" d="M58.9,106.48v4.74h6.69v3.61H58.9v9.38H54.74V102.87H66v3.61Z"/><path class="cls-1" d="M76.28,124.66c-4.42,0-7.94-2.76-7.94-7.36s3.52-7.4,8-7.4,7.87,2.79,7.87,7.36S80.66,124.66,76.28,124.66Zm0-11.27a3.89,3.89,0,1,0,3.93,3.91A3.92,3.92,0,0,0,76.25,113.39Z"/><path class="cls-1" d="M96.21,113.87a3.44,3.44,0,0,0-1.85-.48c-2.63,0-3.33,1.86-3.33,4.16v6.66H87.16V110.35H91v2.08a4.46,4.46,0,0,1,4-2.53,4.54,4.54,0,0,1,1.7.32Z"/><path class="cls-1" d="M116.37,124.21v-7.59c0-1.63-.25-3.42-2.3-3.42-2.27,0-2.66,2.08-2.66,3.9v7.11h-3.87v-7.36a6.15,6.15,0,0,0-.29-2.31,2.24,2.24,0,0,0-2.08-1.34,2.51,2.51,0,0,0-2.17,1.25,5.67,5.67,0,0,0-.45,2.65v7.11H98.68V110.35h3.87v1.57a5.32,5.32,0,0,1,4.22-2,4.71,4.71,0,0,1,4.32,2.53,5.14,5.14,0,0,1,4.55-2.53,4.57,4.57,0,0,1,3.87,2,6.1,6.1,0,0,1,.73,3.36v9Z"/><path class="cls-1" d="M134.55,124.21v-1.83a5.35,5.35,0,0,1-4.51,2.28c-4.16,0-6.82-3.46-6.82-7.43s2.66-7.33,6.72-7.33a5.78,5.78,0,0,1,4.61,2.21v-1.76h3.9v13.86Zm-3.46-10.82a3.89,3.89,0,1,0,3.87,3.87A3.87,3.87,0,0,0,131.09,113.39Z"/><path class="cls-1" d="M160.76,124.21v-1.83a5.35,5.35,0,0,1-4.51,2.28c-4.17,0-6.82-3.46-6.82-7.43s2.65-7.33,6.72-7.33a5.78,5.78,0,0,1,4.61,2.21V100.24h3.9v24Zm-3.46-10.82a3.89,3.89,0,1,0,3.87,3.87A3.87,3.87,0,0,0,157.3,113.39Z"/><path class="cls-1" d="M170.26,106.83a2.34,2.34,0,1,1,0-4.67,2.34,2.34,0,0,1,0,4.67Zm-1.95,17.38V110.35h3.87v13.86Z"/><path class="cls-1" d="M179.73,113.68v10.53h-3.87V113.68h-1.54v-3.33h1.54v-4.73h3.87v4.73h2.72v3.33Z"/><path class="cls-1" d="M188.37,113.68v10.53H184.5V113.68H183v-3.33h1.54v-4.73h3.87v4.73h2.72v3.33Z"/><path class="cls-1" d="M210.58,124.21v-7.59c0-1.92-.42-3.42-2.66-3.42-2.4,0-2.94,1.86-2.94,3.9v7.11h-3.87v-24H205v11.9a5,5,0,0,1,4.35-2.24,5.31,5.31,0,0,1,4,1.7,5.49,5.49,0,0,1,1.09,3.9v8.71Z"/><path class="cls-1" d="M224.85,124.66c-3.81,0-6.69-1.7-6.69-5.83v-8.48H222v7.84c0,1.89.79,3.17,2.81,3.17s2.82-1.28,2.82-3.17v-7.84h3.9v8.48C231.57,123,228.66,124.66,224.85,124.66Z"/><path class="cls-1" d="M239.7,124.66a7.36,7.36,0,0,1-5.28-2.31l2.05-2.37a4.49,4.49,0,0,0,3.26,1.64,1.63,1.63,0,0,0,1.76-1.54c0-2.37-6.18-1.18-6.18-5.86,0-2.81,2.34-4.38,5-4.38a7.19,7.19,0,0,1,4.52,1.47l-1.92,2.27a3.89,3.89,0,0,0-2.31-.92c-.67,0-1.47.41-1.47,1.18,0,2,6.4,1.12,6.4,5.86C245.49,122.93,242.67,124.66,239.7,124.66Z"/><path class="cls-1" d="M52.76,159.66a5.54,5.54,0,0,1-4.64-2.28v9.22H44.25V145.35h3.87v1.76a5.52,5.52,0,0,1,4.54-2.2c4.13,0,6.85,3.42,6.85,7.39S56.82,159.66,52.76,159.66Zm-1.15-11.27a3.89,3.89,0,1,0,3.87,3.87A3.87,3.87,0,0,0,51.61,148.39Z"/><path class="cls-1" d="M73.05,159.21v-1.83a5.36,5.36,0,0,1-4.52,2.28c-4.16,0-6.81-3.46-6.81-7.43s2.65-7.32,6.72-7.32a5.77,5.77,0,0,1,4.61,2.2v-1.76H77v13.86Zm-3.46-10.82a3.89,3.89,0,1,0,3.87,3.87A3.87,3.87,0,0,0,69.59,148.39Zm-.54-5.47a2.88,2.88,0,1,1,0-5.76,2.88,2.88,0,1,1,0,5.76Zm0-4A1.12,1.12,0,1,0,70.17,140,1.09,1.09,0,0,0,69.05,138.92Z"/><path class="cls-1" d="M92.66,148.68v10.53H88.79V148.68h-1.5v-3.33h1.5v-4.44a6.7,6.7,0,0,1,.61-3.27,5.47,5.47,0,0,1,4.8-2.78,4.6,4.6,0,0,1,2,.48v3.55a3.85,3.85,0,0,0-1.76-.51c-1.73,0-1.83,1.79-1.83,3.1v3.87h3.59v3.33Z"/><path class="cls-1" d="M101.27,152.9c.06,2.15,1.09,3.72,3.39,3.72a3.64,3.64,0,0,0,3.3-1.86l3.58.58c-1.21,3-3.68,4.32-6.81,4.32-4.48,0-7.43-2.88-7.43-7.4s2.82-7.35,7.27-7.35,7.07,3.07,7.07,7.48v.51Zm3.36-5.24a3.14,3.14,0,0,0-3.23,2.78H108A3.22,3.22,0,0,0,104.63,147.66Z"/><path class="cls-1" d="M132.31,159.21v-7.59c0-1.63-.26-3.42-2.31-3.42-2.27,0-2.65,2.08-2.65,3.9v7.11h-3.87v-7.36a6.15,6.15,0,0,0-.29-2.31,2.24,2.24,0,0,0-2.08-1.34,2.54,2.54,0,0,0-2.18,1.25,5.79,5.79,0,0,0-.44,2.65v7.11h-3.88V145.35h3.88v1.57a5.31,5.31,0,0,1,4.22-2,4.72,4.72,0,0,1,4.32,2.52,5.13,5.13,0,0,1,4.54-2.52,4.54,4.54,0,0,1,3.87,2,6.11,6.11,0,0,1,.74,3.36v9Z"/><path class="cls-1" d="M165.59,159.21v-7.59c0-1.63-.26-3.42-2.31-3.42-2.27,0-2.65,2.08-2.65,3.9v7.11h-3.87v-7.36a6.15,6.15,0,0,0-.29-2.31,2.24,2.24,0,0,0-2.08-1.34,2.54,2.54,0,0,0-2.18,1.25,5.79,5.79,0,0,0-.44,2.65v7.11h-3.88V145.35h3.88v1.57a5.31,5.31,0,0,1,4.22-2,4.71,4.71,0,0,1,4.32,2.52,5.13,5.13,0,0,1,4.54-2.52,4.54,4.54,0,0,1,3.87,2,6.11,6.11,0,0,1,.74,3.36v9Z"/><path class="cls-1" d="M175.06,141.83a2.34,2.34,0,1,1,2.31-2.33A2.34,2.34,0,0,1,175.06,141.83Zm-1.95,17.38V145.35H177v13.86Z"/><path class="cls-1" d="M190.1,159.21v-7.68c0-1.89-.42-3.33-2.62-3.33-2.4,0-3,1.76-3,3.84v7.17h-3.87V145.35h3.87v1.7a5.12,5.12,0,0,1,4.35-2.14,4.78,4.78,0,0,1,5.12,5.5v8.8Z"/><path class="cls-1" d="M204.37,159.66c-3.81,0-6.69-1.7-6.69-5.83v-8.48h3.88v7.84c0,1.89.8,3.17,2.81,3.17s2.82-1.28,2.82-3.17v-7.84h3.9v8.48C211.09,158,208.18,159.66,204.37,159.66Z"/><path class="cls-1" d="M218.71,148.68v10.53h-3.87V148.68H213.3v-3.33h1.54v-4.73h3.87v4.73h2.72v3.33Z"/><path class="cls-1" d="M226.68,152.9c.06,2.15,1.08,3.72,3.39,3.72a3.62,3.62,0,0,0,3.29-1.86l3.59.58c-1.22,3-3.68,4.32-6.82,4.32-4.48,0-7.42-2.88-7.42-7.4s2.81-7.35,7.26-7.35S237,148,237,152.39v.51Zm3.36-5.24a3.14,3.14,0,0,0-3.24,2.78h6.56A3.2,3.2,0,0,0,230,147.66Z"/><path class="cls-1" d="M249.08,148.87a3.45,3.45,0,0,0-1.86-.48c-2.62,0-3.33,1.86-3.33,4.16v6.66H240V145.35h3.87v2.08a4.45,4.45,0,0,1,4-2.52,4.53,4.53,0,0,1,1.7.31Z"/><path class="cls-1" d="M252.28,159.62a2.5,2.5,0,1,1,2.49-2.49A2.5,2.5,0,0,1,252.28,159.62Z"/></svg>