<svg id="Layer_1" data-name="Layer 1" xmlns="http://www.w3.org/2000/svg" viewBox="0 0 300 250"><defs><style>.cls-1{fill:#d80201;}</style></defs><title>text</title><path class="cls-1" d="M49.38,124.63l6.3-7.14c1.73-1.95,4.9-5.18,4.9-7.9a3.2,3.2,0,0,0-3.24-3.17c-2.11,0-3.1,1.57-3.16,3.52H49.73c.29-4.32,3.1-7.2,7.49-7.2,4,0,7.52,2.63,7.52,6.85,0,3-2,5.41-3.88,7.45l-3.71,4H64.9v3.62Z"/><path class="cls-1" d="M76,125.17c-5.89,0-8.25-6.21-8.25-11.2s2.33-11.23,8.25-11.23,8.26,6.18,8.26,11.2S82,125.17,76,125.17Zm0-18.75c-3.26,0-4.09,5.06-4.09,7.52s.83,7.58,4.09,7.58,4.1-5.12,4.1-7.58S79.3,106.42,76,106.42Z"/><path class="cls-1" d="M104.45,124.63V117c0-1.91-.42-3.42-2.66-3.42-2.4,0-2.94,1.86-2.94,3.9v7.11H95v-24h3.87v11.9a5,5,0,0,1,4.35-2.23,5.3,5.3,0,0,1,4,1.69,5.49,5.49,0,0,1,1.09,3.9v8.71Z"/><path class="cls-1" d="M118.72,125.08c-3.81,0-6.69-1.7-6.69-5.83v-8.48h3.87v7.84c0,1.89.8,3.17,2.82,3.17s2.81-1.28,2.81-3.17v-7.84h3.91v8.48C125.44,123.38,122.53,125.08,118.72,125.08Z"/><path class="cls-1" d="M133.57,125.08a7.36,7.36,0,0,1-5.28-2.31l2-2.37A4.53,4.53,0,0,0,133.6,122a1.64,1.64,0,0,0,1.76-1.54c0-2.37-6.18-1.18-6.18-5.86,0-2.81,2.34-4.38,5-4.38a7.14,7.14,0,0,1,4.51,1.47L136.73,114a3.86,3.86,0,0,0-2.3-.92c-.67,0-1.47.41-1.47,1.18,0,2,6.4,1.12,6.4,5.86C139.36,123.35,136.54,125.08,133.57,125.08Z"/><path class="cls-1" d="M159.81,124.63V117c0-1.63-.26-3.42-2.31-3.42-2.27,0-2.65,2.08-2.65,3.9v7.11H151v-7.36a6.35,6.35,0,0,0-.28-2.31,2.26,2.26,0,0,0-2.08-1.34,2.53,2.53,0,0,0-2.18,1.25,5.67,5.67,0,0,0-.45,2.65v7.11h-3.87V110.77H146v1.57a5.33,5.33,0,0,1,4.23-2,4.72,4.72,0,0,1,4.32,2.52,5.11,5.11,0,0,1,4.54-2.52,4.56,4.56,0,0,1,3.87,2,6.11,6.11,0,0,1,.74,3.36v9Z"/><path class="cls-1" d="M174.59,125.08c-4.42,0-7.93-2.76-7.93-7.36s3.51-7.39,8-7.39,7.87,2.78,7.87,7.35S179,125.08,174.59,125.08Zm0-11.27a3.89,3.89,0,1,0,3.93,3.91A3.92,3.92,0,0,0,174.56,113.81Z"/><path class="cls-1" d="M196.06,124.63V122.8a5.34,5.34,0,0,1-4.51,2.28c-4.16,0-6.82-3.46-6.82-7.43s2.66-7.32,6.72-7.32a5.77,5.77,0,0,1,4.61,2.2V100.66H200v24Zm-3.45-10.82a3.89,3.89,0,1,0,3.87,3.87A3.87,3.87,0,0,0,192.61,113.81Z"/><path class="cls-1" d="M206.91,118.32C207,120.47,208,122,210.3,122a3.64,3.64,0,0,0,3.3-1.86l3.58.58a6.8,6.8,0,0,1-6.81,4.32c-4.48,0-7.43-2.88-7.43-7.4s2.82-7.35,7.27-7.35,7.07,3.07,7.07,7.48v.51Zm3.36-5.24a3.14,3.14,0,0,0-3.23,2.78h6.56A3.22,3.22,0,0,0,210.27,113.08Z"/><path class="cls-1" d="M220.25,124.63v-24h3.88v24Z"/><path class="cls-1" d="M227.84,124.63v-24h3.87v24Z"/><path class="cls-1" d="M238.65,118.32c.07,2.15,1.09,3.72,3.39,3.72a3.63,3.63,0,0,0,3.3-1.86l3.58.58c-1.21,3-3.68,4.32-6.81,4.32-4.48,0-7.42-2.88-7.42-7.4s2.81-7.35,7.26-7.35,7.07,3.07,7.07,7.48v.51Zm3.36-5.24a3.14,3.14,0,0,0-3.23,2.78h6.56A3.2,3.2,0,0,0,242,113.08Z"/><path class="cls-1" d="M261.05,114.29a3.44,3.44,0,0,0-1.85-.48c-2.63,0-3.33,1.86-3.33,4.16v6.66H252V110.77h3.87v2.08a4.44,4.44,0,0,1,4-2.52,4.53,4.53,0,0,1,1.7.31Z"/><path class="cls-1" d="M58.78,150.57v5h-3.9v-5h-5V147h5v-5h3.9v5h5v3.58Z"/><path class="cls-1" d="M76.58,142.25a2.34,2.34,0,1,1,0-4.67,2.34,2.34,0,0,1,0,4.67Zm-2,17.38V145.77H78.5v13.86Z"/><path class="cls-1" d="M91.62,159.63V152c0-1.89-.42-3.33-2.63-3.33-2.4,0-3,1.76-3,3.84v7.17H82.14V145.77H86v1.7a5.11,5.11,0,0,1,4.35-2.14,4.78,4.78,0,0,1,5.12,5.5v8.8Z"/><path class="cls-1" d="M103.62,160.08a7.36,7.36,0,0,1-5.28-2.31l2-2.37a4.53,4.53,0,0,0,3.27,1.64,1.64,1.64,0,0,0,1.76-1.54c0-2.37-6.18-1.18-6.18-5.86,0-2.81,2.34-4.38,5-4.38a7.16,7.16,0,0,1,4.51,1.47L106.78,149a3.86,3.86,0,0,0-2.3-.92c-.67,0-1.47.41-1.47,1.18,0,2,6.4,1.12,6.4,5.86C109.41,158.35,106.59,160.08,103.62,160.08Z"/><path class="cls-1" d="M120.67,160.08A5.55,5.55,0,0,1,116,157.8V167h-3.87V145.77H116v1.76a5.52,5.52,0,0,1,4.55-2.2c4.12,0,6.84,3.42,6.84,7.39S124.73,160.08,120.67,160.08Zm-1.15-11.27a3.89,3.89,0,1,0,3.87,3.87A3.87,3.87,0,0,0,119.52,148.81Z"/><path class="cls-1" d="M132.25,142.25a2.34,2.34,0,1,1,2.31-2.33A2.32,2.32,0,0,1,132.25,142.25Zm-1.95,17.38V145.77h3.87v13.86Z"/><path class="cls-1" d="M146.88,149.29a3.45,3.45,0,0,0-1.86-.48c-2.62,0-3.33,1.86-3.33,4.16v6.66h-3.87V145.77h3.87v2.08a4.56,4.56,0,0,1,5.73-2.21Z"/><path class="cls-1" d="M159.93,159.63V157.8a5.33,5.33,0,0,1-4.51,2.28c-4.16,0-6.81-3.46-6.81-7.43s2.65-7.32,6.72-7.32a5.74,5.74,0,0,1,4.6,2.2v-1.76h3.91v13.86Zm-3.45-10.82a3.89,3.89,0,1,0,3.87,3.87A3.86,3.86,0,0,0,156.48,148.81Z"/><path class="cls-1" d="M171.45,149.1v10.53h-3.87V149.1h-1.53v-3.33h1.53V141h3.87v4.73h2.72v3.33Z"/><path class="cls-1" d="M178.08,142.25a2.34,2.34,0,1,1,0-4.67,2.34,2.34,0,0,1,0,4.67Zm-2,17.38V145.77H180v13.86Z"/><path class="cls-1" d="M190.84,160.08c-4.41,0-7.93-2.76-7.93-7.36s3.52-7.39,8-7.39,7.87,2.78,7.87,7.35S195.23,160.08,190.84,160.08Zm0-11.27a3.89,3.89,0,1,0,3.94,3.91A3.92,3.92,0,0,0,190.81,148.81Z"/><path class="cls-1" d="M211.2,159.63V152c0-1.89-.42-3.33-2.63-3.33-2.4,0-3,1.76-3,3.84v7.17h-3.88V145.77h3.88v1.7a5.11,5.11,0,0,1,4.35-2.14,4.78,4.78,0,0,1,5.12,5.5v8.8Z"/></svg>