<svg id="Layer_1" data-name="Layer 1" xmlns="http://www.w3.org/2000/svg" viewBox="0 0 300 250"><defs><style>.cls-1{fill:#fff;}</style></defs><title>text</title><path class="cls-1" d="M92.42,125l-1.82-4.51H81.89l-2,4.51H75.53l9.24-21.79h3.14l9,21.79Zm-6.11-15.55-3.1,7.68h6.11Z"/><path class="cls-1" d="M98.79,125V101h3.87v24Z"/><path class="cls-1" d="M106.37,125V101h3.88v24Z"/><path class="cls-1" d="M124.55,125v-1.82a5.37,5.37,0,0,1-4.51,2.27c-4.16,0-6.82-3.46-6.82-7.43s2.66-7.32,6.72-7.32a5.75,5.75,0,0,1,4.61,2.21v-1.76h3.9V125Zm-3.46-10.82a3.89,3.89,0,1,0,3.88,3.88A3.87,3.87,0,0,0,121.09,114.18Z"/><path class="cls-1" d="M149.64,125v-7.58c0-1.92-.42-3.43-2.66-3.43-2.4,0-2.94,1.86-2.94,3.91V125h-3.87V101H144v11.91a5,5,0,0,1,4.35-2.24,5.3,5.3,0,0,1,4,1.69,5.52,5.52,0,0,1,1.09,3.91V125Z"/><path class="cls-1" d="M163.91,125.45c-3.81,0-6.69-1.7-6.69-5.82v-8.48h3.87V119c0,1.89.8,3.17,2.82,3.17s2.81-1.28,2.81-3.17v-7.83h3.91v8.48C170.63,123.75,167.72,125.45,163.91,125.45Z"/><path class="cls-1" d="M178.76,125.45a7.36,7.36,0,0,1-5.28-2.31l2-2.36a4.56,4.56,0,0,0,3.27,1.63,1.64,1.64,0,0,0,1.76-1.54c0-2.37-6.18-1.18-6.18-5.85,0-2.82,2.34-4.39,5-4.39a7.09,7.09,0,0,1,4.51,1.48l-1.92,2.27a3.87,3.87,0,0,0-2.3-.93c-.67,0-1.47.42-1.47,1.18,0,2,6.4,1.12,6.4,5.86C184.55,123.72,181.73,125.45,178.76,125.45Z"/><path class="cls-1" d="M205.89,125v-1.82a5.36,5.36,0,0,1-4.51,2.27c-4.16,0-6.81-3.46-6.81-7.43s2.65-7.32,6.71-7.32a5.75,5.75,0,0,1,4.61,2.21v-1.76h3.91V125Zm-6.68-16.45a2.3,2.3,0,1,1,0-4.6,2.3,2.3,0,0,1,0,4.6Zm3.23,5.63a3.89,3.89,0,1,0,3.87,3.88A3.87,3.87,0,0,0,202.44,114.18Zm3.42-5.63a2.33,2.33,0,0,1-2.3-2.3,2.3,2.3,0,1,1,2.3,2.3Z"/><path class="cls-1" d="M222.56,114.67a3.36,3.36,0,0,0-1.85-.49c-2.63,0-3.33,1.86-3.33,4.16V125h-3.87V111.15h3.87v2.08a4.46,4.46,0,0,1,4-2.53,4.35,4.35,0,0,1,1.7.32Z"/><path class="cls-1" d="M57.88,160.51a8.33,8.33,0,0,1-7.33-4.06l2.69-2.59a4.88,4.88,0,0,0,4.48,2.84,3,3,0,0,0,3.29-3c0-4.39-9.37-2.31-9.37-9.19,0-3.77,3-6.2,6.65-6.2a9.35,9.35,0,0,1,6.24,2.36l-2.17,2.85a4.33,4.33,0,0,0-3.46-1.73c-1.37,0-3,.87-3,2.4,0,3.62,9.37,1.83,9.37,9.28C65.3,157.82,62.1,160.51,57.88,160.51Z"/><path class="cls-1" d="M75.41,160.29H73.62l-7.07-14.14H70.9l3.65,7.8,3.65-7.8h4.35Z"/><path class="cls-1" d="M94.33,160v-1.82a5.37,5.37,0,0,1-4.52,2.27C85.66,160.45,83,157,83,153s2.66-7.32,6.72-7.32a5.75,5.75,0,0,1,4.61,2.21v-1.76h3.9V160Zm-3.46-10.82a3.89,3.89,0,1,0,3.87,3.88A3.87,3.87,0,0,0,90.87,149.18Z"/><path class="cls-1" d="M111.41,160v-7.68c0-1.89-.41-3.33-2.62-3.33-2.4,0-3,1.76-3,3.84V160h-3.87V146.15h3.87v1.69a5.12,5.12,0,0,1,4.36-2.14,4.78,4.78,0,0,1,5.12,5.5V160Z"/><path class="cls-1" d="M122.23,153.7c.06,2.14,1.09,3.71,3.39,3.71a3.64,3.64,0,0,0,3.3-1.86l3.58.58c-1.21,3-3.68,4.32-6.81,4.32-4.48,0-7.43-2.88-7.43-7.39s2.82-7.36,7.27-7.36,7.07,3.07,7.07,7.48v.52Zm3.36-5.25a3.14,3.14,0,0,0-3.23,2.78h6.56A3.22,3.22,0,0,0,125.59,148.45Z"/><path class="cls-1" d="M145.05,160v-7.68c0-1.89-.42-3.33-2.63-3.33-2.4,0-3,1.76-3,3.84V160h-3.88V146.15h3.88v1.69a5.11,5.11,0,0,1,4.35-2.14,4.78,4.78,0,0,1,5.12,5.5V160Z"/><path class="cls-1" d="M170.32,160v-7.58c0-1.63-.25-3.43-2.3-3.43-2.27,0-2.66,2.08-2.66,3.91V160h-3.87v-7.36a6.33,6.33,0,0,0-.28-2.3,2.25,2.25,0,0,0-2.08-1.35,2.53,2.53,0,0,0-2.18,1.25,5.71,5.71,0,0,0-.45,2.66V160h-3.87V146.15h3.87v1.56a5.33,5.33,0,0,1,4.22-2,4.69,4.69,0,0,1,4.32,2.53,5.12,5.12,0,0,1,4.55-2.53,4.56,4.56,0,0,1,3.87,2,6.11,6.11,0,0,1,.74,3.36v9Z"/><path class="cls-1" d="M188.5,160v-1.82a5.37,5.37,0,0,1-4.51,2.27c-4.16,0-6.82-3.46-6.82-7.43s2.66-7.32,6.72-7.32a5.75,5.75,0,0,1,4.61,2.21v-1.76h3.9V160Zm-6.69-16.45a2.3,2.3,0,0,1,0-4.6,2.3,2.3,0,1,1,0,4.6Zm3.23,5.63a3.89,3.89,0,1,0,3.88,3.88A3.87,3.87,0,0,0,185,149.18Zm3.43-5.63a2.33,2.33,0,0,1-2.3-2.3,2.3,2.3,0,1,1,2.3,2.3Z"/><path class="cls-1" d="M205.17,149.67a3.36,3.36,0,0,0-1.85-.49c-2.63,0-3.33,1.86-3.33,4.16V160h-3.87V146.15H200v2.08a4.44,4.44,0,0,1,4-2.53,4.35,4.35,0,0,1,1.7.32Z"/><path class="cls-1" d="M217.14,160l-5.22-5.95-.41.41V160h-3.87V136h3.87V151.2l5.18-5h5.25l-6.5,6.07,7,7.78Z"/><path class="cls-1" d="M228.08,149.47V160h-3.87V149.47h-1.53v-3.32h1.53v-4.74h3.87v4.74h2.72v3.32Z"/><path class="cls-1" d="M243.41,160v-1.82a5.36,5.36,0,0,1-4.51,2.27c-4.16,0-6.82-3.46-6.82-7.43s2.66-7.32,6.72-7.32a5.75,5.75,0,0,1,4.61,2.21v-1.76h3.9V160ZM240,149.18a3.89,3.89,0,1,0,3.87,3.88A3.87,3.87,0,0,0,240,149.18Z"/></svg>