<?xml version="1.0" encoding="utf-8"?>
<!-- Generator: Adobe Illustrator 19.1.1, SVG Export Plug-In . SVG Version: 6.00 Build 0)  -->
<svg version="1.1" id="Layer_1" xmlns="http://www.w3.org/2000/svg" xmlns:xlink="http://www.w3.org/1999/xlink" x="0px" y="0px"
	 viewBox="0 0 580 400" style="enable-background:new 0 0 580 400;" xml:space="preserve">
<style type="text/css">
	.st0{fill:#D80201;}
	.st1{fill:#FFFFFF;}
</style>
<g>
	<path class="st0" d="M88.9,151.3v7.4h10.5v5.7H88.9V179h-6.5v-33.4H100v5.7H88.9z"/>
	<path class="st0" d="M116,179.7c-6.9,0-12.4-4.3-12.4-11.5c0-7.3,5.5-11.6,12.5-11.6c6.9,0,12.3,4.4,12.3,11.5
		S122.9,179.7,116,179.7z M116,162.1c-3.4,0-6.1,2.8-6.1,6.1c0,3.3,2.8,6.1,6.1,6.1c3.4,0,6.2-2.7,6.2-6.1
		C122.1,164.8,119.4,162.1,116,162.1z"/>
	<path class="st0" d="M147.2,162.8c-1-0.6-1.8-0.8-2.9-0.8c-4.1,0-5.2,2.9-5.2,6.5V179H133v-21.7h6.1v3.3c1.4-2.5,3.4-4,6.3-4
		c1,0,1.8,0.2,2.6,0.5L147.2,162.8z"/>
	<path class="st0" d="M178.7,179v-11.9c0-2.5-0.4-5.4-3.6-5.4c-3.6,0-4.2,3.3-4.2,6.1V179h-6.1v-11.5c0-1.1,0-2.6-0.5-3.6
		c-0.5-1.3-1.9-2.1-3.3-2.1c-1.4,0-2.8,0.8-3.4,2c-0.6,1.2-0.7,2.9-0.7,4.2V179H151v-21.7h6.1v2.5c1.9-2,3.8-3.2,6.6-3.2
		c3.1,0,5.2,1.4,6.8,4c1.7-2.6,4-4,7.1-4c2.4,0,4.8,1.1,6.1,3.1c1,1.5,1.1,3.5,1.1,5.3v14H178.7z"/>
	<path class="st0" d="M207.1,179v-2.8c-1.7,2.3-4.2,3.5-7.1,3.5c-6.5,0-10.7-5.4-10.7-11.6c0-6.1,4.2-11.5,10.5-11.5
		c3,0,5.3,1.2,7.2,3.5v-2.8h6.1V179H207.1z M201.7,162.1c-3.4,0-6.1,2.7-6.1,6c0,3.4,2.7,6.1,6.1,6.1c3.4,0,6.1-2.8,6.1-6.1
		C207.7,164.8,205,162.1,201.7,162.1z"/>
	<path class="st0" d="M248,179v-2.8c-1.7,2.3-4.2,3.5-7.1,3.5c-6.5,0-10.7-5.4-10.7-11.6c0-6.1,4.2-11.5,10.5-11.5
		c3,0,5.3,1.2,7.2,3.5v-18.6h6.1V179H248z M242.6,162.1c-3.4,0-6,2.7-6,6c0,3.4,2.7,6.1,6,6.1s6.1-2.8,6.1-6.1
		C248.7,164.8,246,162.1,242.6,162.1z"/>
	<path class="st0" d="M262.9,151.8c-2,0-3.7-1.7-3.7-3.7s1.7-3.7,3.7-3.7s3.6,1.7,3.6,3.7S264.9,151.8,262.9,151.8z M259.8,179
		v-21.7h6.1V179H259.8z"/>
	<path class="st0" d="M277.7,162.5V179h-6.1v-16.5h-2.4v-5.2h2.4v-7.4h6.1v7.4h4.3v5.2H277.7z"/>
	<path class="st0" d="M291.2,162.5V179h-6.1v-16.5h-2.4v-5.2h2.4v-7.4h6.1v7.4h4.3v5.2H291.2z"/>
	<path class="st0" d="M325.9,179v-11.9c0-3-0.7-5.4-4.2-5.4c-3.8,0-4.6,2.9-4.6,6.1V179h-6v-37.5h6v18.6c1.8-2.4,3.9-3.5,6.8-3.5
		c2.4,0,4.8,0.9,6.3,2.7c1.5,1.8,1.7,3.9,1.7,6.1V179H325.9z"/>
	<path class="st0" d="M348.2,179.7c-6,0-10.5-2.7-10.5-9.1v-13.3h6v12.3c0,3,1.3,5,4.4,5s4.4-2,4.4-5v-12.3h6.1v13.3
		C358.7,177,354.1,179.7,348.2,179.7z"/>
	<path class="st0" d="M371.4,179.7c-3.1,0-6.1-1.3-8.3-3.6l3.2-3.7c1.4,1.5,3.1,2.6,5.1,2.6c1.4,0,2.8-0.9,2.8-2.4
		c0-3.7-9.7-1.8-9.7-9.2c0-4.4,3.7-6.9,7.8-6.9c2.6,0,5,0.7,7.1,2.3l-3,3.6c-1-0.8-2.3-1.5-3.6-1.5c-1,0-2.3,0.7-2.3,1.8
		c0,3.2,10,1.8,10,9.2C380.4,177,376,179.7,371.4,179.7z"/>
	<path class="st0" d="M94.7,240.7c-3.2,0-5.3-1.2-7.3-3.5v14.4h-6.1v-33.2h6.1v2.8c2-2.3,4-3.5,7.1-3.5c6.5,0,10.7,5.4,10.7,11.6
		C105.3,235.3,101.1,240.7,94.7,240.7z M92.9,223.1c-3.4,0-6.1,2.7-6.1,6c0,3.4,2.7,6.1,6.1,6.1s6.1-2.8,6.1-6.1
		C99,225.8,96.3,223.1,92.9,223.1z"/>
	<path class="st0" d="M126.4,240v-2.8c-1.6,2.3-4.2,3.5-7.1,3.5c-6.5,0-10.7-5.4-10.7-11.6c0-6.1,4.2-11.5,10.5-11.5
		c3,0,5.3,1.2,7.2,3.5v-2.8h6.1V240H126.4z M121,223.1c-3.4,0-6.1,2.7-6.1,6c0,3.4,2.7,6.1,6.1,6.1s6.1-2.8,6.1-6.1
		C127.1,225.8,124.4,223.1,121,223.1z M120.2,214.5c-2.5,0-4.5-2-4.5-4.5s2-4.5,4.5-4.5c2.5,0,4.5,2,4.5,4.5
		C124.7,212.5,122.7,214.5,120.2,214.5z M120.2,208.3c-0.9,0-1.8,0.8-1.8,1.8c0,0.9,0.8,1.8,1.8,1.8c1,0,1.8-0.8,1.8-1.8
		C121.9,209,121.2,208.3,120.2,208.3z"/>
	<path class="st0" d="M157.1,223.5V240H151v-16.5h-2.4v-5.2h2.4v-7c0-1.8,0.1-3.5,1-5.1c1.4-2.7,4.5-4.3,7.5-4.3
		c1.3,0,2.1,0.3,3.2,0.8v5.5c-0.9-0.5-1.8-0.8-2.8-0.8c-2.7,0-2.9,2.8-2.9,4.9v6h5.6v5.2H157.1z"/>
	<path class="st0" d="M170.5,230.1c0.1,3.4,1.7,5.8,5.3,5.8c2.3,0,3.9-1,5.2-2.9l5.6,0.9c-1.9,4.7-5.8,6.8-10.7,6.8
		c-7,0-11.6-4.5-11.6-11.6c0-6.9,4.4-11.5,11.4-11.5c7.2,0,11.1,4.8,11.1,11.7v0.8H170.5z M175.8,221.9c-2.8,0-4.6,1.7-5.1,4.4H181
		C180.4,223.6,178.6,221.9,175.8,221.9z"/>
	<path class="st0" d="M219,240v-11.9c0-2.5-0.4-5.4-3.6-5.4c-3.5,0-4.1,3.3-4.1,6.1V240h-6.1v-11.5c0-1.1,0-2.6-0.5-3.6
		c-0.5-1.3-1.9-2.1-3.3-2.1c-1.4,0-2.8,0.8-3.4,2c-0.6,1.2-0.7,2.9-0.7,4.2V240h-6.1v-21.7h6.1v2.5c1.9-2,3.8-3.2,6.6-3.2
		c3.1,0,5.2,1.4,6.8,4c1.7-2.6,4-4,7.1-4c2.4,0,4.8,1.1,6.1,3.1c1,1.5,1.2,3.5,1.2,5.3v14H219z"/>
	<path class="st0" d="M271,240v-11.9c0-2.5-0.4-5.4-3.6-5.4c-3.5,0-4.1,3.3-4.1,6.1V240h-6.1v-11.5c0-1.1,0-2.6-0.5-3.6
		c-0.5-1.3-1.8-2.1-3.3-2.1c-1.3,0-2.8,0.8-3.4,2c-0.6,1.2-0.7,2.9-0.7,4.2V240h-6v-21.7h6v2.5c1.9-2,3.8-3.2,6.6-3.2
		c3.1,0,5.2,1.4,6.8,4c1.7-2.6,4-4,7.1-4c2.4,0,4.8,1.1,6.1,3.1c1,1.5,1.2,3.5,1.2,5.3v14H271z"/>
	<path class="st0" d="M285.8,212.8c-2,0-3.7-1.7-3.7-3.7s1.7-3.7,3.7-3.7s3.6,1.7,3.6,3.7S287.8,212.8,285.8,212.8z M282.8,240
		v-21.7h6.1V240H282.8z"/>
	<path class="st0" d="M309.3,240v-12c0-3-0.7-5.2-4.1-5.2c-3.8,0-4.7,2.8-4.7,6V240h-6v-21.7h6v2.7c2-2.3,3.7-3.4,6.8-3.4
		c2.3,0,4.8,0.8,6.3,2.6c1.5,1.8,1.7,3.8,1.7,6V240H309.3z"/>
	<path class="st0" d="M331.6,240.7c-6,0-10.5-2.7-10.5-9.1v-13.3h6v12.3c0,3,1.3,5,4.4,5s4.4-2,4.4-5v-12.3h6.1v13.3
		C342.1,238,337.6,240.7,331.6,240.7z"/>
	<path class="st0" d="M354,223.5V240H348v-16.5h-2.4v-5.2h2.4v-7.4h6.1v7.4h4.3v5.2H354z"/>
	<path class="st0" d="M366.5,230.1c0.1,3.4,1.7,5.8,5.3,5.8c2.3,0,3.9-1,5.2-2.9l5.6,0.9c-1.9,4.7-5.8,6.8-10.7,6.8
		c-7,0-11.6-4.5-11.6-11.6c0-6.9,4.4-11.5,11.4-11.5c7.2,0,11.1,4.8,11.1,11.7v0.8H366.5z M371.7,221.9c-2.8,0-4.6,1.7-5.1,4.4h10.3
		C376.3,223.6,374.6,221.9,371.7,221.9z"/>
	<path class="st0" d="M401.5,223.8c-1-0.6-1.8-0.8-2.9-0.8c-4.1,0-5.2,2.9-5.2,6.5V240h-6v-21.7h6v3.3c1.4-2.5,3.4-4,6.3-4
		c1,0,1.8,0.2,2.7,0.5L401.5,223.8z"/>
	<path class="st0" d="M406.5,240.7c-2.1,0-3.9-1.8-3.9-3.9s1.8-3.9,3.9-3.9c2.2,0,3.9,1.8,3.9,3.9S408.6,240.7,406.5,240.7z"/>
</g>
</svg>
