<?xml version="1.0" encoding="utf-8"?>
<!-- Generator: Adobe Illustrator 19.1.1, SVG Export Plug-In . SVG Version: 6.00 Build 0)  -->
<svg version="1.1" id="Layer_1" xmlns="http://www.w3.org/2000/svg" xmlns:xlink="http://www.w3.org/1999/xlink" x="0px" y="0px"
	 viewBox="0 0 580 400" style="enable-background:new 0 0 580 400;" xml:space="preserve">
<style type="text/css">
	.st0{fill:#D80201;}
	.st1{fill:#FFFFFF;}
</style>
<path class="st0" d="M368.8,355.6H210.4c-8.4,0-15.2-6.9-15.2-15.2v0c0-8.4,6.9-15.2,15.2-15.2h158.3c8.4,0,15.2,6.9,15.2,15.2v0
	C384,348.7,377.1,355.6,368.8,355.6z"/>
<g>
	<path class="st1" d="M231.3,346.3l-4.2-5.3l-0.3,0.3v5h-2.3v-11.9h2.3v5l4.4-5h2.9l-5,5.5l5.3,6.4H231.3z"/>
	<path class="st1" d="M240.8,346.6c-3.5,0-6.3-2.6-6.3-6.2c0-3.6,2.8-6.2,6.4-6.2c3.5,0,6.3,2.7,6.3,6.2
		C247.2,343.9,244.3,346.6,240.8,346.6z M240.8,336.3c-2.2,0-3.9,1.9-3.9,4.1s1.7,4.1,3.9,4.1c2.3,0,4-1.9,4-4.1
		S243.1,336.3,240.8,336.3z"/>
	<path class="st1" d="M260.3,346.3l-1-7.3l-3.3,7.5h-0.6l-3.1-7.5l-1.2,7.3h-2.3l2.2-12.1h1.6l3.2,7.8l3.4-7.8h1.6l2,12.1H260.3z"/>
	<path class="st1" d="M269.2,346.3v-11.9h2.3v11.9H269.2z"/>
	<path class="st1" d="M285.5,342.2c-0.6,2.7-2.9,4.4-5.6,4.4c-3.6,0-6.2-2.6-6.2-6.2c0-3.6,2.7-6.2,6.3-6.2c2.2,0,4,0.9,5.1,2.8
		l-2,1.1c-0.7-1.1-1.8-1.8-3.1-1.8c-2.3,0-3.9,1.9-3.9,4.1c0,2.3,1.6,4.1,3.9,4.1c1.5,0,2.9-0.9,3.1-2.5h-2.8v-2h5.4v0.3
		C285.7,340.9,285.6,341.5,285.5,342.2z"/>
	<path class="st1" d="M295.4,346.3l-1-2.5h-4.8l-1.1,2.5H286l5.1-12.1h1.7l5,12.1H295.4z M292,337.6l-1.7,4.3h3.4L292,337.6z
		 M291.9,333.3c-0.9,0-1.7-0.7-1.7-1.7c0-0.9,0.7-1.6,1.7-1.6c0.9,0,1.7,0.7,1.7,1.6C293.6,332.5,292.8,333.3,291.9,333.3z
		 M291.9,330.9c-0.4,0-0.7,0.3-0.7,0.7c0,0.4,0.3,0.7,0.7,0.7c0.4,0,0.7-0.3,0.7-0.7C292.6,331.2,292.3,330.9,291.9,330.9z"/>
	<path class="st1" d="M308.8,346.5l-7.2-8.2v8h-2.3v-12.1h1.6l7.2,8.2v-8h2.3v12.1H308.8z"/>
	<path class="st1" d="M324.3,342.2c-0.6,2.7-2.9,4.4-5.6,4.4c-3.6,0-6.2-2.6-6.2-6.2c0-3.6,2.7-6.2,6.3-6.2c2.2,0,4,0.9,5.1,2.8
		l-2,1.1c-0.7-1.1-1.8-1.8-3.1-1.8c-2.3,0-3.9,1.9-3.9,4.1c0,2.3,1.6,4.1,3.9,4.1c1.5,0,2.9-0.9,3.1-2.5h-2.8v-2h5.4v0.3
		C324.5,340.9,324.5,341.5,324.3,342.2z"/>
</g>
<polygon class="st1" points="348.9,341.8 336.4,341.8 336.4,338.7 348.9,338.7 348.9,333.9 357.8,340.3 348.9,346.4 "/>
</svg>
