<svg id="Layer_1" data-name="Layer 1" xmlns="http://www.w3.org/2000/svg" viewBox="0 0 300 250"><defs><style>.cls-1{fill:#d80201;}</style></defs><title>text</title><path class="cls-1" d="M57.88,103.14a8.33,8.33,0,0,1-7.33-4.06l2.69-2.6a4.89,4.89,0,0,0,4.48,2.85,3,3,0,0,0,3.29-3c0-4.38-9.37-2.3-9.37-9.18,0-3.77,3-6.21,6.65-6.21a9.36,9.36,0,0,1,6.24,2.37l-2.17,2.85a4.33,4.33,0,0,0-3.46-1.73c-1.37,0-3,.87-3,2.4,0,3.62,9.37,1.82,9.37,9.28C65.3,100.45,62.1,103.14,57.88,103.14Z"/><path class="cls-1" d="M75.41,102.92H73.62L66.55,88.77H70.9l3.65,7.81,3.65-7.81h4.35Z"/><path class="cls-1" d="M94.33,102.63V100.8a5.36,5.36,0,0,1-4.52,2.28c-4.15,0-6.81-3.46-6.81-7.43s2.66-7.32,6.72-7.32a5.77,5.77,0,0,1,4.61,2.2V88.77h3.9v13.86ZM90.87,91.81a3.89,3.89,0,1,0,3.87,3.87A3.87,3.87,0,0,0,90.87,91.81Z"/><path class="cls-1" d="M111.41,102.63V95c0-1.89-.41-3.33-2.62-3.33-2.4,0-3,1.76-3,3.84v7.17h-3.87V88.77h3.87v1.7a5.12,5.12,0,0,1,4.36-2.14,4.78,4.78,0,0,1,5.12,5.5v8.8Z"/><path class="cls-1" d="M122.23,96.32c.06,2.15,1.09,3.72,3.39,3.72a3.64,3.64,0,0,0,3.3-1.86l3.58.58c-1.21,3-3.68,4.32-6.81,4.32-4.48,0-7.43-2.88-7.43-7.4s2.82-7.35,7.27-7.35,7.07,3.07,7.07,7.48v.51Zm3.36-5.24a3.14,3.14,0,0,0-3.23,2.78h6.56A3.22,3.22,0,0,0,125.59,91.08Z"/><path class="cls-1" d="M145.05,102.63V95c0-1.89-.42-3.33-2.63-3.33-2.4,0-3,1.76-3,3.84v7.17h-3.88V88.77h3.88v1.7a5.11,5.11,0,0,1,4.35-2.14,4.78,4.78,0,0,1,5.12,5.5v8.8Z"/><path class="cls-1" d="M170.32,102.63V95c0-1.63-.25-3.42-2.3-3.42-2.27,0-2.66,2.08-2.66,3.9v7.11h-3.87V95.27a6.35,6.35,0,0,0-.28-2.31,2.26,2.26,0,0,0-2.08-1.34A2.53,2.53,0,0,0,157,92.87a5.67,5.67,0,0,0-.45,2.65v7.11h-3.87V88.77h3.87v1.57a5.33,5.33,0,0,1,4.22-2A4.7,4.7,0,0,1,165,90.85a5.13,5.13,0,0,1,4.55-2.52,4.56,4.56,0,0,1,3.87,2,6.11,6.11,0,0,1,.74,3.36v9Z"/><path class="cls-1" d="M188.5,102.63V100.8a5.35,5.35,0,0,1-4.51,2.28c-4.16,0-6.82-3.46-6.82-7.43s2.66-7.32,6.72-7.32a5.77,5.77,0,0,1,4.61,2.2V88.77h3.9v13.86Zm-6.69-16.45a2.31,2.31,0,0,1,0-4.61,2.31,2.31,0,1,1,0,4.61ZM185,91.81a3.89,3.89,0,1,0,3.88,3.87A3.87,3.87,0,0,0,185,91.81Zm3.43-5.63a2.33,2.33,0,0,1-2.3-2.3,2.3,2.3,0,1,1,2.3,2.3Z"/><path class="cls-1" d="M205.17,92.29a3.44,3.44,0,0,0-1.85-.48c-2.63,0-3.33,1.86-3.33,4.16v6.66h-3.87V88.77H200v2.08a4.44,4.44,0,0,1,4-2.52,4.53,4.53,0,0,1,1.7.31Z"/><path class="cls-1" d="M217.14,102.63l-5.22-5.95-.41.41v5.54h-3.87v-24h3.87V93.83l5.18-5.06h5.25l-6.5,6.08,7,7.78Z"/><path class="cls-1" d="M228.08,92.1v10.53h-3.87V92.1h-1.53V88.77h1.53V84h3.87v4.73h2.72V92.1Z"/><path class="cls-1" d="M243.41,102.63V100.8a5.34,5.34,0,0,1-4.51,2.28c-4.16,0-6.82-3.46-6.82-7.43s2.66-7.32,6.72-7.32a5.77,5.77,0,0,1,4.61,2.2V88.77h3.9v13.86ZM240,91.81a3.89,3.89,0,1,0,3.87,3.87A3.87,3.87,0,0,0,240,91.81Z"/><path class="cls-1" d="M56.12,137.63V130c0-1.91-.42-3.42-2.66-3.42-2.4,0-2.94,1.86-2.94,3.9v7.11H46.65v-24h3.87v11.9a5,5,0,0,1,4.35-2.23,5.3,5.3,0,0,1,4,1.69,5.49,5.49,0,0,1,1.09,3.9v8.71Z"/><path class="cls-1" d="M70.39,138.08c-3.81,0-6.69-1.7-6.69-5.83v-8.48h3.87v7.84c0,1.89.8,3.17,2.82,3.17s2.82-1.28,2.82-3.17v-7.84h3.9v8.48C77.11,136.38,74.2,138.08,70.39,138.08Z"/><path class="cls-1" d="M85.24,138.08A7.36,7.36,0,0,1,80,135.77L82,133.4A4.49,4.49,0,0,0,85.27,135,1.63,1.63,0,0,0,87,133.5c0-2.37-6.18-1.18-6.18-5.86,0-2.81,2.34-4.38,5-4.38a7.19,7.19,0,0,1,4.52,1.47L88.41,127a3.89,3.89,0,0,0-2.31-.92c-.67,0-1.47.41-1.47,1.18,0,2,6.4,1.12,6.4,5.86C91,136.35,88.21,138.08,85.24,138.08Z"/><path class="cls-1" d="M105.78,127.1v10.53h-3.87V127.1h-1.5v-3.33h1.5v-4.44a6.7,6.7,0,0,1,.61-3.27,5.47,5.47,0,0,1,4.8-2.78,4.6,4.6,0,0,1,2.05.48v3.55a3.85,3.85,0,0,0-1.76-.51c-1.73,0-1.83,1.79-1.83,3.1v3.87h3.59v3.33Z"/><path class="cls-1" d="M118.36,138.08c-4.42,0-7.94-2.76-7.94-7.36s3.52-7.39,8-7.39,7.87,2.78,7.87,7.35S122.74,138.08,118.36,138.08ZM115,121.18a2.31,2.31,0,1,1,0-4.61,2.31,2.31,0,0,1,0,4.61Zm3.33,5.63a3.89,3.89,0,1,0,3.93,3.91A3.92,3.92,0,0,0,118.33,126.81Zm3.32-5.63a2.33,2.33,0,0,1-2.3-2.3,2.31,2.31,0,1,1,2.3,2.3Z"/><path class="cls-1" d="M138.29,127.29a3.44,3.44,0,0,0-1.85-.48c-2.63,0-3.33,1.86-3.33,4.16v6.66h-3.87V123.77h3.87v2.08a4.47,4.47,0,0,1,4-2.52,4.53,4.53,0,0,1,1.7.31Z"/><path class="cls-1" d="M152,131.32c.06,2.15,1.09,3.72,3.39,3.72a3.64,3.64,0,0,0,3.3-1.86l3.58.58c-1.22,3-3.68,4.32-6.82,4.32-4.48,0-7.42-2.88-7.42-7.4s2.82-7.35,7.26-7.35,7.08,3.07,7.08,7.48v.51Zm3.36-5.24a3.14,3.14,0,0,0-3.23,2.78h6.56A3.22,3.22,0,0,0,155.35,126.08Z"/><path class="cls-1" d="M174.8,137.63V130c0-1.89-.41-3.33-2.62-3.33-2.4,0-3,1.76-3,3.84v7.17h-3.87V123.77h3.87v1.7a5.12,5.12,0,0,1,4.36-2.14,4.78,4.78,0,0,1,5.12,5.5v8.8Z"/><path class="cls-1" d="M194.8,138.08a7.39,7.39,0,0,1-5.28-2.31l2-2.37a4.51,4.51,0,0,0,3.27,1.64,1.64,1.64,0,0,0,1.76-1.54c0-2.37-6.18-1.18-6.18-5.86,0-2.81,2.34-4.38,5-4.38a7.16,7.16,0,0,1,4.51,1.47L198,127a3.86,3.86,0,0,0-2.3-.92c-.67,0-1.47.41-1.47,1.18,0,2,6.4,1.12,6.4,5.86C200.6,136.35,197.78,138.08,194.8,138.08Z"/><path class="cls-1" d="M210,138.08c-3.81,0-6.69-1.7-6.69-5.83v-8.48h3.87v7.84c0,1.89.8,3.17,2.82,3.17s2.81-1.28,2.81-3.17v-7.84h3.9v8.48C216.75,136.38,213.84,138.08,210,138.08Z"/><path class="cls-1" d="M229.94,137.63V130c0-1.89-.42-3.33-2.62-3.33-2.4,0-3,1.76-3,3.84v7.17h-3.87V123.77h3.87v1.7a5.12,5.12,0,0,1,4.35-2.14,4.78,4.78,0,0,1,5.12,5.5v8.8Z"/><path class="cls-1" d="M248.12,137.63V135.8a5.36,5.36,0,0,1-4.52,2.28c-4.16,0-6.81-3.46-6.81-7.43s2.65-7.32,6.72-7.32a5.77,5.77,0,0,1,4.61,2.2V113.66H252v24Zm-3.46-10.82a3.89,3.89,0,1,0,3.87,3.87A3.87,3.87,0,0,0,244.66,126.81Z"/><path class="cls-1" d="M87.08,155.25a2.34,2.34,0,1,1,0-4.67,2.34,2.34,0,0,1,0,4.67Zm-2,17.38V158.77H89v13.86Z"/><path class="cls-1" d="M102.12,172.63V165c0-1.89-.42-3.33-2.63-3.33-2.4,0-3,1.76-3,3.84v7.17H92.65V158.77h3.87v1.7a5.12,5.12,0,0,1,4.35-2.14,4.78,4.78,0,0,1,5.12,5.5v8.8Z"/><path class="cls-1" d="M119.17,172.63V165c0-1.89-.41-3.33-2.62-3.33-2.4,0-3,1.76-3,3.84v7.17H109.7V158.77h3.87v1.7a5.12,5.12,0,0,1,4.36-2.14,4.77,4.77,0,0,1,5.11,5.5v8.8Z"/><path class="cls-1" d="M130,166.32c.06,2.15,1.09,3.72,3.39,3.72a3.64,3.64,0,0,0,3.3-1.86l3.58.58a6.8,6.8,0,0,1-6.81,4.32c-4.48,0-7.43-2.88-7.43-7.4s2.82-7.35,7.27-7.35,7.07,3.07,7.07,7.48v.51Zm3.36-5.24a3.14,3.14,0,0,0-3.23,2.78h6.56A3.22,3.22,0,0,0,133.35,161.08Z"/><path class="cls-1" d="M161,172.63V165c0-1.63-.26-3.42-2.31-3.42-2.27,0-2.65,2.08-2.65,3.9v7.11H152.2v-7.36a6.15,6.15,0,0,0-.29-2.31,2.24,2.24,0,0,0-2.08-1.34,2.53,2.53,0,0,0-2.18,1.25,5.79,5.79,0,0,0-.44,2.65v7.11h-3.88V158.77h3.88v1.57a5.31,5.31,0,0,1,4.22-2,4.72,4.72,0,0,1,4.32,2.52,5.13,5.13,0,0,1,4.54-2.52,4.54,4.54,0,0,1,3.87,2,6.11,6.11,0,0,1,.74,3.36v9Z"/><path class="cls-1" d="M170.5,155.25a2.34,2.34,0,1,1,2.3-2.33A2.31,2.31,0,0,1,170.5,155.25Zm-1.95,17.38V158.77h3.87v13.86Z"/><path class="cls-1" d="M176.07,172.63v-24h3.87v24Z"/><path class="cls-1" d="M185.54,155.25a2.34,2.34,0,1,1,0-4.67,2.34,2.34,0,0,1,0,4.67ZM183.59,180V158.77h3.87V180Z"/><path class="cls-1" d="M198.31,173.08c-4.42,0-7.94-2.76-7.94-7.36s3.52-7.39,8-7.39,7.87,2.78,7.87,7.35S202.69,173.08,198.31,173.08ZM195,156.18a2.31,2.31,0,1,1,0-4.61,2.31,2.31,0,0,1,0,4.61Zm3.33,5.63a3.89,3.89,0,1,0,3.93,3.91A3.92,3.92,0,0,0,198.28,161.81Zm3.32-5.63a2.33,2.33,0,0,1-2.3-2.3,2.31,2.31,0,1,1,2.3,2.3Z"/><path class="cls-1" d="M211.33,173a2.5,2.5,0,1,1,2.5-2.49A2.5,2.5,0,0,1,211.33,173Zm-2-6.52V151.29h4v15.23Z"/></svg>