<svg id="Layer_1" data-name="Layer 1" xmlns="http://www.w3.org/2000/svg" viewBox="0 0 300 250"><defs><style>.cls-1{fill:#fff;}</style></defs><title>text</title><path class="cls-1" d="M136.76,32.59,138.7,36h-1.28l-1.95-3.49,2.79-3.5h1.39Zm3.11,0L141.81,36h-1.27l-2-3.49,2.82-3.5h1.38Z"/><path class="cls-1" d="M150.65,24.53l-2.43,12.81h-1.58l2.43-12.81Z"/><path class="cls-1" d="M151,37.34l1.23-6.52c.21-1,.32-1.92.44-2.68h1.4L153.88,30h0a4,4,0,0,1,3.4-2,2.27,2.27,0,0,1,2.34,2.57,8.4,8.4,0,0,1-.17,1.48l-1,5.36h-1.58l1-5.3a5.85,5.85,0,0,0,.14-1.18c0-.93-.36-1.62-1.45-1.62s-2.71,1.35-3.13,3.63l-.84,4.47Z"/><path class="cls-1" d="M161.17,37.34l1.24-6.52c.21-1,.32-1.92.43-2.68h1.41L164,30h0a4,4,0,0,1,3.4-2,2.27,2.27,0,0,1,2.34,2.57,9.47,9.47,0,0,1-.17,1.48l-1,5.36H167l1-5.3a5.84,5.84,0,0,0,.13-1.18c0-.93-.36-1.62-1.44-1.62s-2.72,1.35-3.14,3.63l-.83,4.47Z"/><path class="cls-1" d="M180.13,31.77c0,2.83-2,5.77-5.09,5.77a3.51,3.51,0,0,1-3.59-3.78c0-3,2.11-5.83,5.09-5.83C179,27.93,180.13,29.81,180.13,31.77Zm-7,1.94c0,1.5.81,2.58,2.16,2.58,1.86,0,3.27-2.39,3.27-4.54,0-1.06-.49-2.56-2.15-2.56C174.4,29.19,173.07,31.6,173.09,33.71Z"/><path class="cls-1" d="M181.46,37.34l1.51-8h-1.22l.23-1.24h1.23l.1-.47a5.32,5.32,0,0,1,1.5-3.21,3.21,3.21,0,0,1,2.18-.82,2.43,2.43,0,0,1,1.26.25l-.34,1.25A2.39,2.39,0,0,0,187,25c-1.25,0-1.86,1.21-2.12,2.73l-.08.44h2l-.24,1.24h-2l-1.52,8Z"/><path class="cls-1" d="M192.58,37.34a22,22,0,0,1,.21-2.38h0c-1,1.9-2.26,2.58-3.57,2.58-1.62,0-2.64-1.29-2.64-3a6.41,6.41,0,0,1,6.36-6.57,8.47,8.47,0,0,1,2.47.36l-.93,4.79a21.21,21.21,0,0,0-.4,4.26Zm1-8a4.19,4.19,0,0,0-1.11-.13c-2.37,0-4.31,2.48-4.33,5,0,1,.36,2,1.58,2s2.87-1.71,3.32-4.16Z"/><path class="cls-1" d="M202.73,37a6.33,6.33,0,0,1-2.66.56A3.31,3.31,0,0,1,196.53,34a5.83,5.83,0,0,1,5.63-6,4.67,4.67,0,0,1,1.91.4l-.45,1.25a3.61,3.61,0,0,0-1.56-.34c-2.39,0-3.89,2.36-3.89,4.52a2.16,2.16,0,0,0,2.28,2.45,4.76,4.76,0,0,0,2.12-.51Z"/><path class="cls-1" d="M208.67,25.67l-.47,2.47h2.2l-.25,1.24H208l-.86,4.46a8.5,8.5,0,0,0-.17,1.48.78.78,0,0,0,.88.88,4.18,4.18,0,0,0,.74-.06l-.08,1.23a3.49,3.49,0,0,1-1.21.17,1.71,1.71,0,0,1-1.94-1.78A8.77,8.77,0,0,1,205.5,34l.91-4.65h-1.33l.25-1.24h1.31l.4-2.07Z"/><path class="cls-1" d="M219.24,31.77c0,2.83-2,5.77-5.1,5.77a3.51,3.51,0,0,1-3.59-3.78c0-3,2.11-5.83,5.09-5.83C218.13,27.93,219.24,29.81,219.24,31.77Zm-7.05,1.94c0,1.5.81,2.58,2.16,2.58,1.86,0,3.27-2.39,3.27-4.54,0-1.06-.49-2.56-2.15-2.56C213.5,29.19,212.17,31.6,212.19,33.71Z"/><path class="cls-1" d="M220.34,37.34l1.12-5.93c.23-1.2.38-2.41.47-3.27h1.39c-.08.65-.15,1.29-.25,2h.06a3.32,3.32,0,0,1,2.81-2.21,3,3,0,0,1,.44,0l-.3,1.56a2.21,2.21,0,0,0-.42,0c-1.37,0-2.59,1.65-3,3.8l-.76,4.05Z"/><path class="cls-1" d="M226.46,35.74a4.1,4.1,0,0,0,2,.57,1.58,1.58,0,0,0,1.75-1.5c0-.72-.32-1.16-1.27-1.69a2.75,2.75,0,0,1-1.66-2.34c0-1.61,1.39-2.85,3.33-2.85a3.84,3.84,0,0,1,1.92.46l-.44,1.19a3.28,3.28,0,0,0-1.6-.41,1.47,1.47,0,0,0-1.63,1.38c0,.67.44,1.09,1.25,1.54a2.89,2.89,0,0,1,1.73,2.41c0,1.94-1.57,3-3.51,3A4.05,4.05,0,0,1,226,36.9Z"/><path class="cls-1" d="M245.83,36.92a8.45,8.45,0,0,1-3.32.61c-3.23,0-5.19-2-5.19-5.3a8,8,0,0,1,2.74-6.18,7.24,7.24,0,0,1,4.82-1.73,5.11,5.11,0,0,1,2.78.63l-.52,1.27a5.29,5.29,0,0,0-2.52-.53A5.42,5.42,0,0,0,241,27.13,6.72,6.72,0,0,0,239,32c0,2.3,1,4.18,3.89,4.18a6.5,6.5,0,0,0,2.74-.55Z"/><path class="cls-1" d="M247.49,37.34l2.56-13.49h1.58l-2.58,13.49Z"/><path class="cls-1" d="M260.63,31.77c0,2.83-2,5.77-5.09,5.77A3.51,3.51,0,0,1,252,33.76c0-3,2.11-5.83,5.09-5.83C259.53,27.93,260.63,29.81,260.63,31.77Zm-7,1.94c0,1.5.81,2.58,2.16,2.58,1.86,0,3.27-2.39,3.27-4.54,0-1.06-.49-2.56-2.15-2.56C254.9,29.19,253.57,31.6,253.59,33.71Z"/><path class="cls-1" d="M270.71,28.14l-1.24,6.52c-.19,1-.32,1.92-.42,2.68h-1.42l.24-1.73h0a4.12,4.12,0,0,1-3.25,1.93c-1.18,0-2.42-.57-2.42-2.66a7.92,7.92,0,0,1,.18-1.53l1-5.21h1.58l-1,5.13a6.46,6.46,0,0,0-.17,1.35c0,1,.4,1.59,1.48,1.59s2.61-1.33,3-3.36l.89-4.71Z"/><path class="cls-1" d="M281.51,23.85l-2,10.58a23.59,23.59,0,0,0-.4,2.91h-1.44l.25-1.83h0a3.93,3.93,0,0,1-3.31,2c-1.78,0-2.75-1.46-2.75-3.34,0-3.27,2.43-6.27,5.68-6.27a4.15,4.15,0,0,1,1.63.32l.82-4.4Zm-2.64,5.73a2.93,2.93,0,0,0-1.52-.38c-2.2,0-3.91,2.34-3.91,4.79,0,1.1.38,2.26,1.73,2.26s2.68-1.38,3.08-3.46Z"/><path class="cls-1" d="M138.05,58.67a4.23,4.23,0,0,0,1.62.27c1.34,0,2.18-.7,2.62-3l1.63-8.65h1.58l-1.67,8.82c-.57,3-1.83,4.19-4.22,4.19a5.41,5.41,0,0,1-1.9-.32Z"/><path class="cls-1" d="M154.62,54.57c0,2.83-2,5.77-5.09,5.77a3.51,3.51,0,0,1-3.59-3.78c0-3,2.1-5.83,5.09-5.83C153.51,50.73,154.62,52.61,154.62,54.57Zm-7.05,1.94c0,1.5.82,2.58,2.16,2.58,1.87,0,3.27-2.39,3.27-4.54,0-1.06-.49-2.56-2.14-2.56C148.88,52,147.55,54.4,147.57,56.51Z"/><path class="cls-1" d="M164.69,50.94l-1.24,6.52c-.19,1-.32,1.92-.42,2.68h-1.42l.25-1.73h0a4.1,4.1,0,0,1-3.25,1.93c-1.18,0-2.41-.57-2.41-2.66a7.82,7.82,0,0,1,.17-1.53l1-5.21h1.57l-1,5.13a6.46,6.46,0,0,0-.17,1.35c0,.95.4,1.59,1.48,1.59s2.61-1.33,3-3.36l.89-4.71Z"/><path class="cls-1" d="M165.71,60.14l1.12-5.93c.23-1.2.38-2.41.48-3.27h1.39c-.08.65-.16,1.29-.25,2h.06a3.31,3.31,0,0,1,2.81-2.21,2.86,2.86,0,0,1,.43,0l-.3,1.56a2.12,2.12,0,0,0-.42,0c-1.36,0-2.58,1.65-3,3.8l-.76,4Z"/><path class="cls-1" d="M171.76,60.14,173,53.62c.21-1,.32-1.92.44-2.68h1.4l-.22,1.81h0a4,4,0,0,1,3.4-2,2.27,2.27,0,0,1,2.34,2.57,9.47,9.47,0,0,1-.17,1.48l-1,5.36h-1.57l1-5.31a5.67,5.67,0,0,0,.14-1.17c0-.93-.36-1.62-1.45-1.62s-2.71,1.35-3.13,3.63l-.84,4.47Z"/><path class="cls-1" d="M188.53,59.6a6.3,6.3,0,0,1-3,.73c-2.43,0-3.49-1.66-3.49-3.69,0-2.77,2.05-5.91,5-5.91a2.39,2.39,0,0,1,2.7,2.36c0,2.41-2.72,3.06-6.12,3a3.9,3.9,0,0,0,.19,1.75,2.09,2.09,0,0,0,2.05,1.23,5.16,5.16,0,0,0,2.47-.64ZM186.78,52c-1.5,0-2.62,1.46-3,2.9,2.47,0,4.41-.3,4.41-1.73C188.19,52.38,187.62,52,186.78,52Z"/><path class="cls-1" d="M192.52,50.94l.91,5c.21,1,.33,1.73.42,2.41h0c.25-.59.51-1.23,1-2.24l2.33-5.13h1.68l-3.44,7a17.29,17.29,0,0,1-3.17,4.83,5.77,5.77,0,0,1-2.68,1.59L189.22,63a6.19,6.19,0,0,0,1.69-.89A6.88,6.88,0,0,0,192.67,60a.62.62,0,0,0,.06-.42l-1.84-8.64Z"/><path class="cls-1" d="M202.44,62.23a4.88,4.88,0,0,0,2.43.6c1.54,0,2.76-.79,3.31-3.28l.3-1.37h-.06a3.65,3.65,0,0,1-3.19,2c-1.84,0-2.79-1.56-2.79-3.2a6,6,0,0,1,5.83-6.21,7.51,7.51,0,0,1,2.95.65L209.81,59c-.38,1.93-.89,3.28-1.86,4.1a4.84,4.84,0,0,1-3.21,1,5.48,5.48,0,0,1-2.76-.65Zm7.05-9.92A3.92,3.92,0,0,0,208,52c-2.3,0-3.88,2.4-3.9,4.68,0,1,.37,2.2,1.77,2.2s2.72-1.71,3.06-3.51Z"/><path class="cls-1" d="M215.72,50.94,214,60.1a6.27,6.27,0,0,1-1.16,3.11,2.85,2.85,0,0,1-2.1.9,3.37,3.37,0,0,1-1.05-.12l.19-1.23a3.85,3.85,0,0,0,.72.07c.8,0,1.43-.49,1.79-2.39l1.78-9.5Zm-1.37-2.56a1.07,1.07,0,0,1,1.05-1.07.91.91,0,0,1,.93,1,1,1,0,0,1-1.07,1.06A.9.9,0,0,1,214.35,48.38Z"/><path class="cls-1" d="M216.48,60.29l1.08-1.24a4,4,0,0,1-.81-2.6c0-2.94,2.11-5.72,5.05-5.72a3.36,3.36,0,0,1,2.2.69l1.05-1.16.63.53L224.61,52a4.05,4.05,0,0,1,.84,2.51c0,3.21-2.3,5.83-5,5.83a3.44,3.44,0,0,1-2.34-.74l-1.06,1.26Zm6.59-7.79a1.87,1.87,0,0,0-1.46-.55c-2,0-3.25,2.45-3.27,4.31a3,3,0,0,0,.34,1.52l0,0Zm-4,6a2,2,0,0,0,1.52.59c1.69,0,3.21-2.19,3.23-4.33a3.41,3.41,0,0,0-.3-1.48h0Z"/><path class="cls-1" d="M226.55,60.14l1.12-5.93c.23-1.2.38-2.41.48-3.27h1.38c-.07.65-.15,1.29-.24,2h.05a3.32,3.32,0,0,1,2.81-2.21,2.87,2.87,0,0,1,.44,0l-.3,1.56a2.21,2.21,0,0,0-.42,0c-1.37,0-2.58,1.65-3,3.8l-.76,4Z"/><path class="cls-1" d="M245.83,46.65l-2,10.58a23.59,23.59,0,0,0-.4,2.91H242l.24-1.83h0a3.93,3.93,0,0,1-3.31,2c-1.78,0-2.75-1.46-2.75-3.34,0-3.27,2.43-6.27,5.68-6.27a4.15,4.15,0,0,1,1.63.32l.82-4.4Zm-2.64,5.73a2.93,2.93,0,0,0-1.52-.38c-2.2,0-3.91,2.34-3.91,4.79,0,1.1.38,2.26,1.73,2.26s2.68-1.38,3.08-3.46Z"/><path class="cls-1" d="M252.66,59.6a6.36,6.36,0,0,1-3,.73c-2.44,0-3.5-1.66-3.5-3.69,0-2.77,2-5.91,5-5.91a2.39,2.39,0,0,1,2.69,2.36c0,2.41-2.71,3.06-6.11,3a3.76,3.76,0,0,0,.19,1.75A2.09,2.09,0,0,0,250,59.07a5.19,5.19,0,0,0,2.47-.64ZM250.91,52c-1.5,0-2.62,1.46-3,2.9,2.47,0,4.4-.3,4.4-1.73C252.31,52.38,251.74,52,250.91,52Z"/><path class="cls-1" d="M258.75,48.47l-.47,2.47h2.2l-.24,1.24H258l-.85,4.46a7.64,7.64,0,0,0-.17,1.48.78.78,0,0,0,.87.88,4.1,4.1,0,0,0,.74-.06l-.08,1.23a3.45,3.45,0,0,1-1.21.17,1.71,1.71,0,0,1-1.94-1.78,8.77,8.77,0,0,1,.19-1.73l.91-4.65h-1.33l.25-1.24h1.31l.4-2.07Z"/><path class="cls-1" d="M135.37,82.94l1.24-6.52c.19-1,.32-1.92.41-2.68h1.39l-.25,1.73h.06a3.94,3.94,0,0,1,3.23-1.94,2,2,0,0,1,2.15,2,3.93,3.93,0,0,1,3.38-2,2.19,2.19,0,0,1,2.22,2.41,9.88,9.88,0,0,1-.15,1.56l-1,5.44h-1.53l1-5.3a5.88,5.88,0,0,0,.14-1.2c0-1-.36-1.6-1.39-1.6s-2.49,1.33-2.87,3.38l-.89,4.72h-1.52l1-5.4a5.63,5.63,0,0,0,.12-1.12c0-.78-.21-1.58-1.37-1.58s-2.58,1.52-2.94,3.48l-.86,4.62Z"/><path class="cls-1" d="M159.6,73.74l-1.24,6.52c-.19,1-.32,1.92-.42,2.68h-1.42l.24-1.73h0a4.12,4.12,0,0,1-3.25,1.93c-1.18,0-2.41-.57-2.41-2.66a7.82,7.82,0,0,1,.17-1.53l1-5.21h1.58l-1,5.13a6.46,6.46,0,0,0-.17,1.35c0,1,.4,1.59,1.48,1.59s2.61-1.33,3-3.36l.89-4.71Z"/><path class="cls-1" d="M160.64,82.94l2.57-13.49h1.57L162.2,82.94Z"/><path class="cls-1" d="M165,82.94l1.77-9.2h1.58l-1.77,9.2ZM167,71.18a1.05,1.05,0,0,1,1-1.07.91.91,0,0,1,.93,1,1,1,0,0,1-1.06,1.06A.91.91,0,0,1,167,71.18Z"/><path class="cls-1" d="M169.42,85a4.78,4.78,0,0,0,2.43.61c1.54,0,2.76-.8,3.31-3.28l.3-1.37h-.06a3.66,3.66,0,0,1-3.19,2c-1.84,0-2.79-1.56-2.79-3.2a6,6,0,0,1,5.83-6.21,7.55,7.55,0,0,1,2.95.65l-1.41,7.6c-.38,1.93-.89,3.28-1.86,4.1a4.84,4.84,0,0,1-3.21,1,5.48,5.48,0,0,1-2.76-.65Zm7.05-9.91A3.92,3.92,0,0,0,175,74.8c-2.3,0-3.88,2.4-3.9,4.68,0,1,.36,2.2,1.77,2.2s2.72-1.71,3.06-3.51Z"/><path class="cls-1" d="M183,82.94l1.5-8h-1.22l.23-1.24h1.23l.1-.47a5.32,5.32,0,0,1,1.5-3.21,3.21,3.21,0,0,1,2.18-.82,2.56,2.56,0,0,1,1.26.24l-.34,1.26a2.18,2.18,0,0,0-.93-.17c-1.26,0-1.87,1.21-2.13,2.73l-.08.44h2L188.08,75h-2l-1.52,8Z"/><path class="cls-1" d="M196.93,77.37c0,2.83-2,5.77-5.09,5.77a3.51,3.51,0,0,1-3.59-3.78c0-3,2.11-5.83,5.09-5.83C195.83,73.53,196.93,75.41,196.93,77.37Zm-7.05,1.94c0,1.5.82,2.58,2.17,2.58,1.86,0,3.26-2.39,3.26-4.54,0-1.06-.49-2.56-2.14-2.56C191.19,74.79,189.86,77.2,189.88,79.31Z"/><path class="cls-1" d="M198,82.94,199.15,77c.23-1.2.38-2.41.48-3.27H201c-.07.65-.15,1.29-.24,2h0a3.33,3.33,0,0,1,2.82-2.2,2.86,2.86,0,0,1,.43,0l-.3,1.56a2.21,2.21,0,0,0-.42,0c-1.37,0-2.58,1.65-3,3.8l-.76,4Z"/><path class="cls-1" d="M209.47,82.94l-.63-12.81h1.6l.26,7.68c.06,1.65,0,2.52,0,3.34h0c.31-.84.61-1.67,1.33-3.25l3.54-7.77h1.69l.26,7.37c.06,1.65.06,2.78,0,3.61h0c.38-1.1.76-2.13,1.25-3.29l3.44-7.69H224L218,82.94h-1.66L216,75.66a34.86,34.86,0,0,1,0-3.69H216a32.53,32.53,0,0,1-1.29,3.37l-3.57,7.6Z"/><path class="cls-1" d="M228.68,82.94a22,22,0,0,1,.21-2.38h0c-1,1.9-2.26,2.58-3.57,2.58-1.62,0-2.64-1.29-2.64-3A6.41,6.41,0,0,1,229,73.53a8.53,8.53,0,0,1,2.47.36l-.93,4.79a21.21,21.21,0,0,0-.4,4.26Zm1-8a4.1,4.1,0,0,0-1.1-.13c-2.37,0-4.31,2.48-4.33,5,0,1,.36,2,1.58,2s2.87-1.71,3.32-4.16Z"/><path class="cls-1" d="M232.52,82.94l2.56-13.49h1.58l-2.59,13.49Z"/><path class="cls-1" d="M236.87,82.94l2.56-13.49H241l-2.59,13.49Z"/><path class="cls-1" d="M247.83,82.4a6.3,6.3,0,0,1-3,.73c-2.43,0-3.5-1.66-3.5-3.69,0-2.77,2.06-5.91,5-5.91a2.39,2.39,0,0,1,2.7,2.36c0,2.41-2.72,3.06-6.12,3a3.76,3.76,0,0,0,.19,1.75,2.09,2.09,0,0,0,2,1.23,5.19,5.19,0,0,0,2.47-.64Zm-1.75-7.63c-1.5,0-2.62,1.46-3,2.9,2.47,0,4.41-.3,4.41-1.73C247.49,75.18,246.92,74.77,246.08,74.77Z"/><path class="cls-1" d="M249.81,82.94,251,76.42c.21-1,.32-1.92.44-2.68h1.4l-.22,1.81h0a4,4,0,0,1,3.4-2,2.27,2.27,0,0,1,2.34,2.57,8.51,8.51,0,0,1-.17,1.48l-1,5.36h-1.57l1-5.3a5.85,5.85,0,0,0,.14-1.18c0-.93-.36-1.62-1.45-1.62s-2.71,1.35-3.13,3.63l-.84,4.47Z"/><path class="cls-1" d="M260,82.94l1.77-9.2h1.57l-1.76,9.2ZM262,71.18a1.05,1.05,0,0,1,1.05-1.07.91.91,0,0,1,.93,1,1,1,0,0,1-1.06,1.06A.9.9,0,0,1,262,71.18Z"/><path class="cls-1" d="M273.27,73.74,272,80.26c-.19,1-.33,1.92-.42,2.68h-1.43l.25-1.73h0a4.1,4.1,0,0,1-3.25,1.93c-1.17,0-2.41-.57-2.41-2.66a8.67,8.67,0,0,1,.17-1.53l1-5.21h1.58l-1,5.13a5.85,5.85,0,0,0-.17,1.35c0,1,.4,1.59,1.48,1.59s2.6-1.33,3-3.36l.89-4.71Z"/><path class="cls-1" d="M274.37,81.34a4.29,4.29,0,0,0,2,.57,1.59,1.59,0,0,0,1.75-1.5c0-.72-.33-1.16-1.28-1.69a2.76,2.76,0,0,1-1.65-2.34c0-1.61,1.39-2.85,3.33-2.85a3.77,3.77,0,0,1,1.91.46L280,75.18a3.35,3.35,0,0,0-1.6-.41,1.47,1.47,0,0,0-1.63,1.38c0,.67.43,1.09,1.25,1.54a2.89,2.89,0,0,1,1.73,2.41c0,1.94-1.58,3-3.52,3a4,4,0,0,1-2.27-.63Z"/><path class="cls-1" d="M137.31,105.74l-.63-12.81h1.6l.26,7.68c.06,1.65,0,2.52,0,3.34h0c.31-.84.61-1.67,1.33-3.25l3.54-7.77h1.69l.26,7.37c.06,1.66.06,2.78,0,3.61h0c.38-1.1.76-2.13,1.25-3.28l3.44-7.7h1.65l-5.94,12.81h-1.66l-.34-7.28a34.86,34.86,0,0,1,0-3.69h-.06a32.53,32.53,0,0,1-1.29,3.37l-3.57,7.6Z"/><path class="cls-1" d="M151,105.74l1.77-9.2h1.57l-1.76,9.2ZM153,94a1.05,1.05,0,0,1,1-1.07.91.91,0,0,1,.93,1A1,1,0,0,1,153.93,95,.9.9,0,0,1,153,94Z"/><path class="cls-1" d="M155.34,105.74l2.57-13.49h1.57l-2.58,13.49Z"/><path class="cls-1" d="M159.67,105.74l2.57-13.49h1.57l-1.14,5.93h0A3.94,3.94,0,0,1,166,96.33a2.23,2.23,0,0,1,2.28,2.47,9,9,0,0,1-.15,1.56l-1,5.38h-1.58l1-5.3a7.35,7.35,0,0,0,.11-1.28,1.34,1.34,0,0,0-1.42-1.52c-1.22,0-2.76,1.43-3.14,3.5l-.85,4.6Z"/><path class="cls-1" d="M176.45,105.2a6.36,6.36,0,0,1-3,.73c-2.43,0-3.5-1.66-3.5-3.69,0-2.77,2.05-5.91,5-5.91a2.39,2.39,0,0,1,2.7,2.36c0,2.41-2.72,3.06-6.12,3a3.76,3.76,0,0,0,.19,1.75,2.09,2.09,0,0,0,2.05,1.23,5.19,5.19,0,0,0,2.47-.64Zm-1.75-7.63c-1.5,0-2.62,1.46-3,2.9,2.47,0,4.41-.3,4.41-1.73C176.11,98,175.54,97.57,174.7,97.57Z"/><path class="cls-1" d="M178.44,105.74,181,92.25h1.58L180,105.74Z"/><path class="cls-1" d="M182.78,105.74,184,99.22c.19-1,.32-1.92.42-2.68h1.39l-.25,1.73h.06a3.92,3.92,0,0,1,3.23-1.94,2,2,0,0,1,2.14,2,4,4,0,0,1,3.38-2,2.19,2.19,0,0,1,2.23,2.41,8.88,8.88,0,0,1-.16,1.56l-1,5.44h-1.54l1-5.3a6.68,6.68,0,0,0,.13-1.2c0-1-.36-1.6-1.39-1.6S191.13,99,190.75,101l-.89,4.72h-1.52l1-5.4a6.43,6.43,0,0,0,.11-1.12c0-.78-.21-1.58-1.37-1.58s-2.58,1.52-2.94,3.48l-.86,4.62Z"/><path class="cls-1" d="M198.2,104.14a4.17,4.17,0,0,0,2,.57,1.59,1.59,0,0,0,1.75-1.5c0-.72-.33-1.16-1.28-1.69A2.76,2.76,0,0,1,199,99.18c0-1.61,1.39-2.85,3.33-2.85a3.84,3.84,0,0,1,1.92.46L203.81,98a3.43,3.43,0,0,0-1.6-.41A1.47,1.47,0,0,0,200.58,99c0,.67.44,1.09,1.25,1.54a2.89,2.89,0,0,1,1.73,2.41c0,1.94-1.58,3-3.51,3a4,4,0,0,1-2.28-.63Z"/><path class="cls-1" d="M211.84,105.2a6.3,6.3,0,0,1-3,.73c-2.43,0-3.49-1.66-3.49-3.69,0-2.77,2.05-5.91,5-5.91A2.39,2.39,0,0,1,213,98.69c0,2.41-2.71,3.06-6.11,3a3.76,3.76,0,0,0,.19,1.75,2.09,2.09,0,0,0,2.05,1.23,5.19,5.19,0,0,0,2.47-.64Zm-1.74-7.63c-1.5,0-2.62,1.46-3,2.9,2.46,0,4.4-.3,4.4-1.73C211.5,98,210.93,97.57,210.1,97.57Z"/><path class="cls-1" d="M213.82,105.74l1.24-6.52c.2-1,.32-1.92.43-2.68h1.41l-.23,1.81h0a4,4,0,0,1,3.4-2,2.27,2.27,0,0,1,2.34,2.57,8.49,8.49,0,0,1-.18,1.48l-1,5.36h-1.58l1-5.3a6.66,6.66,0,0,0,.13-1.18c0-.93-.36-1.62-1.44-1.62s-2.72,1.35-3.14,3.63l-.83,4.47Z"/><path class="cls-1" d="M233.52,105.74c0-.55.1-1.43.21-2.38h0c-1,1.9-2.26,2.58-3.57,2.58-1.61,0-2.64-1.29-2.64-3a6.42,6.42,0,0,1,6.37-6.57,8.58,8.58,0,0,1,2.47.36l-.93,4.79a20.5,20.5,0,0,0-.4,4.26Zm1-8a4.17,4.17,0,0,0-1.1-.13c-2.38,0-4.32,2.48-4.33,5,0,1,.36,2,1.57,2s2.87-1.71,3.33-4.16Zm.7-3.93a1.88,1.88,0,0,1-2,1.8,1.72,1.72,0,0,1-1.83-1.67,1.86,1.86,0,0,1,2-1.86A1.7,1.7,0,0,1,235.25,93.79Zm-2.85.09a.94.94,0,0,0,.91,1,1,1,0,0,0,1-1.12.92.92,0,0,0-.93-1A1,1,0,0,0,232.4,93.88Z"/><path class="cls-1" d="M240.88,104.14a4.1,4.1,0,0,0,2,.57,1.58,1.58,0,0,0,1.75-1.5c0-.72-.32-1.16-1.27-1.69a2.75,2.75,0,0,1-1.66-2.34c0-1.61,1.39-2.85,3.33-2.85a3.81,3.81,0,0,1,1.92.46L246.48,98a3.4,3.4,0,0,0-1.6-.41A1.47,1.47,0,0,0,243.25,99c0,.67.44,1.09,1.25,1.54a2.89,2.89,0,0,1,1.73,2.41c0,1.94-1.57,3-3.51,3a4.05,4.05,0,0,1-2.28-.63Z"/><path class="cls-1" d="M247.91,105.74l2.54-13.49H252l-1.62,8.45h0c.29-.32.63-.66.86-.93l3.25-3.23h1.93l-4,3.78,2.76,5.42h-1.75l-2.2-4.54-1.16,1-.67,3.5Z"/><path class="cls-1" d="M262.38,105.74c0-.55.1-1.43.21-2.38h0c-1,1.9-2.26,2.58-3.57,2.58-1.61,0-2.64-1.29-2.64-3a6.42,6.42,0,0,1,6.37-6.57,8.58,8.58,0,0,1,2.47.36l-.93,4.79a20.5,20.5,0,0,0-.4,4.26Zm1-8a4.17,4.17,0,0,0-1.1-.13c-2.38,0-4.31,2.48-4.33,5,0,1,.36,2,1.57,2s2.87-1.71,3.33-4.16Z"/><path class="cls-1" d="M266.22,105.74l2.57-13.49h1.57l-2.58,13.49Z"/><path class="cls-1" d="M277.18,105.2a6.3,6.3,0,0,1-3,.73c-2.43,0-3.49-1.66-3.49-3.69,0-2.77,2.05-5.91,5-5.91a2.39,2.39,0,0,1,2.69,2.36c0,2.41-2.71,3.06-6.11,3a3.76,3.76,0,0,0,.19,1.75,2.09,2.09,0,0,0,2.05,1.23A5.19,5.19,0,0,0,277,104Zm-1.74-7.63c-1.5,0-2.62,1.46-3,2.9,2.46,0,4.4-.3,4.4-1.73C276.84,98,276.27,97.57,275.44,97.57Z"/><path class="cls-1" d="M279.16,105.74l1.12-5.93c.23-1.2.38-2.41.48-3.27h1.38c-.07.65-.15,1.29-.24,2H282a3.32,3.32,0,0,1,2.81-2.21,2.87,2.87,0,0,1,.44,0l-.3,1.56a2.21,2.21,0,0,0-.42,0c-1.37,0-2.58,1.65-3,3.8l-.76,4Z"/><path class="cls-1" d="M291.72,105.2a6.33,6.33,0,0,1-3,.73c-2.43,0-3.5-1.66-3.5-3.69,0-2.77,2.06-5.91,5-5.91a2.39,2.39,0,0,1,2.7,2.36c0,2.41-2.72,3.06-6.12,3a3.76,3.76,0,0,0,.19,1.75,2.09,2.09,0,0,0,2,1.23,5.19,5.19,0,0,0,2.47-.64ZM290,97.57c-1.5,0-2.62,1.46-3,2.9,2.47,0,4.41-.3,4.41-1.73C291.38,98,290.81,97.57,290,97.57Z"/><path class="cls-1" d="M142,128a6.3,6.3,0,0,1-3,.73c-2.43,0-3.49-1.66-3.49-3.69,0-2.77,2.05-5.91,5-5.91a2.39,2.39,0,0,1,2.7,2.36c0,2.41-2.72,3.06-6.12,3a3.9,3.9,0,0,0,.19,1.75,2.09,2.09,0,0,0,2.05,1.23,5.16,5.16,0,0,0,2.47-.64Zm-1.75-7.63c-1.5,0-2.62,1.46-3,2.9,2.47,0,4.41-.3,4.41-1.73C141.66,120.78,141.09,120.37,140.25,120.37Z"/><path class="cls-1" d="M148.1,116.87l-.47,2.47h2.2l-.25,1.24h-2.2l-.86,4.46a8.5,8.5,0,0,0-.17,1.48.78.78,0,0,0,.88.88,4.18,4.18,0,0,0,.74-.06l-.08,1.23a3.49,3.49,0,0,1-1.21.17,1.71,1.71,0,0,1-1.94-1.78,8.84,8.84,0,0,1,.19-1.73l.91-4.65h-1.33l.25-1.24h1.31l.4-2.07Z"/><path class="cls-1" d="M154.05,116.87l-.48,2.47h2.21l-.25,1.24h-2.2l-.86,4.46a8.5,8.5,0,0,0-.17,1.48.78.78,0,0,0,.87.88,4.22,4.22,0,0,0,.75-.06l-.08,1.23a3.55,3.55,0,0,1-1.22.17,1.7,1.7,0,0,1-1.93-1.78,8.14,8.14,0,0,1,.19-1.73l.91-4.65h-1.33l.24-1.24H152l.4-2.07Z"/><path class="cls-1" d="M162.43,128a6.36,6.36,0,0,1-3,.73c-2.43,0-3.5-1.66-3.5-3.69,0-2.77,2.05-5.91,5-5.91a2.39,2.39,0,0,1,2.69,2.36c0,2.41-2.71,3.06-6.11,3a3.76,3.76,0,0,0,.19,1.75,2.09,2.09,0,0,0,2,1.23,5.19,5.19,0,0,0,2.47-.64Zm-1.75-7.63c-1.5,0-2.62,1.46-3,2.9,2.47,0,4.4-.3,4.4-1.73C162.08,120.78,161.51,120.37,160.68,120.37Z"/><path class="cls-1" d="M164.4,128.54l1.12-5.93c.23-1.2.38-2.41.48-3.27h1.39c-.08.65-.16,1.29-.25,2h.06a3.3,3.3,0,0,1,2.81-2.21,2.86,2.86,0,0,1,.43,0l-.3,1.56a2.21,2.21,0,0,0-.42,0c-1.37,0-2.58,1.65-3,3.8l-.76,4Z"/><path class="cls-1" d="M178,115.05l-1.22,6h0a3.9,3.9,0,0,1,3.23-1.88c2,0,2.77,1.67,2.77,3.31,0,2.81-2,6.3-5.71,6.3-1.62,0-2.83-.66-2.83-2.37a8.68,8.68,0,0,1,.15-1.43l2-9.89ZM176,125a4.3,4.3,0,0,0-.11,1.16c0,.88.49,1.37,1.48,1.37,2.38,0,3.82-2.83,3.82-4.86,0-1.14-.49-2.21-1.75-2.21s-2.77,1.41-3.23,3.57Z"/><path class="cls-1" d="M190.56,128a6.3,6.3,0,0,1-3,.73c-2.43,0-3.49-1.66-3.49-3.69,0-2.77,2.05-5.91,5-5.91a2.39,2.39,0,0,1,2.7,2.36c0,2.41-2.71,3.06-6.11,3a3.76,3.76,0,0,0,.19,1.75,2.09,2.09,0,0,0,2.05,1.23,5.19,5.19,0,0,0,2.47-.64Zm-1.74-7.63c-1.5,0-2.62,1.46-3,2.9,2.46,0,4.4-.3,4.4-1.73C190.22,120.78,189.65,120.37,188.82,120.37Z"/><path class="cls-1" d="M192.54,128.54l2.57-13.49h1.57L195.54,121h0a3.94,3.94,0,0,1,3.29-1.85,2.23,2.23,0,0,1,2.28,2.47,8.09,8.09,0,0,1-.16,1.56l-1,5.38h-1.58l1-5.3a8.48,8.48,0,0,0,.11-1.28,1.34,1.34,0,0,0-1.42-1.52c-1.22,0-2.76,1.43-3.14,3.5l-.85,4.6Z"/><path class="cls-1" d="M211.5,123c0,2.83-2,5.77-5.09,5.77a3.5,3.5,0,0,1-3.59-3.78c0-3,2.11-5.83,5.09-5.83C210.4,119.13,211.5,121,211.5,123Zm-7.05,1.94c0,1.5.82,2.58,2.17,2.58,1.86,0,3.27-2.39,3.27-4.54a2.28,2.28,0,0,0-2.15-2.56C205.76,120.39,204.43,122.8,204.45,124.91Z"/><path class="cls-1" d="M214.52,119.34l.8,5.24c.14,1,.25,1.75.29,2.27h0a20.28,20.28,0,0,1,1-2.15l2.81-5.36h1.73l-5.11,9.2H214.5l-1.59-9.2Z"/><path class="cls-1" d="M225.13,120.25h1.27l2,3.5-2.81,3.49h-1.38l2.88-3.55Zm3.11,0h1.27l2,3.5-2.81,3.49h-1.39l2.89-3.55Z"/></svg>