<?xml version="1.0" encoding="utf-8"?>
<!-- Generator: Adobe Illustrator 19.1.1, SVG Export Plug-In . SVG Version: 6.00 Build 0)  -->
<svg version="1.1" id="Layer_1" xmlns="http://www.w3.org/2000/svg" xmlns:xlink="http://www.w3.org/1999/xlink" x="0px" y="0px"
	 viewBox="0 0 300 250" style="enable-background:new 0 0 300 250;" xml:space="preserve">
<style type="text/css">
	.st0{fill:#D4AC76;}
</style>
<g>
	<path class="st0" d="M105.7,44.2V17.1h7.7c3.7,0,6.9,1.3,9.6,3.9c2.7,2.6,4,5.8,4,9.7s-1.3,7.1-4,9.7s-6,3.8-9.8,3.8H105.7z
		 M113.4,21.6h-3.1v18h3.1c2.4,0,4.4-0.9,6-2.6c1.6-1.7,2.4-3.9,2.4-6.4s-0.8-4.7-2.4-6.4C117.8,22.5,115.8,21.6,113.4,21.6z"/>
	<path class="st0" d="M134.9,44.2V17.1h5.1v27.1H134.9z"/>
	<path class="st0" d="M146.5,22v-4.9h22.3V22h-8.6v22.2h-5.1V22H146.5z"/>
	<path class="st0" d="M173.5,22v-4.9h22.3V22h-8.6v22.2h-5.1V22H173.5z"/>
	<path class="st0" d="M55.3,86.2V59.1h5.1v22.2h9.9v4.9H55.3z"/>
	<path class="st0" d="M77.6,86.2V59.1h5.1v27.1H77.6z"/>
	<path class="st0" d="M99.4,86.2L89,59.1h5.3l7.4,19.5l7.3-19.5h5.1L104,86.2H99.4z"/>
	<path class="st0" d="M126.8,86.5c-1.7,0-3.4-0.4-5.1-1.1c-1.7-0.7-3.1-1.7-4.4-3l3.2-3.9c0.8,1,1.8,1.8,3,2.4
		c1.2,0.6,2.4,0.9,3.6,0.9c1.2,0,2.1-0.3,2.9-0.9c0.8-0.6,1.1-1.4,1.1-2.3c0-1.7-1-2.9-3-3.8l-3-1.2c-2-0.8-3.5-1.8-4.5-3
		c-1-1.1-1.5-2.7-1.5-4.6s0.8-3.6,2.3-5.1c1.5-1.5,3.4-2.3,5.7-2.3c3.4,0,6.1,1,8.3,3.1l-3,3.8c-1.4-1.6-3.2-2.3-5.3-2.3
		c-1,0-1.8,0.3-2.4,0.8c-0.6,0.5-0.9,1.2-0.9,1.9c0,0.8,0.2,1.4,0.7,1.9c0.5,0.5,1.3,0.9,2.3,1.4l3.2,1.3c4,1.6,6.1,4.2,6.1,7.8
		c0,2.4-0.8,4.4-2.5,5.9S129.6,86.5,126.8,86.5z"/>
	<path class="st0" d="M151,86.2l-10.3-27.1h5.3l7.4,19.5l7.3-19.5h5.1l-10.2,27.1H151z"/>
	<path class="st0" d="M187.3,74.7h-10v6.9h11v4.5h-16.1V59.1H188v4.5h-10.7v6.6h10V74.7z"/>
	<path class="st0" d="M196.5,86.2V59.1h10.6c2.6,0,4.8,0.8,6.5,2.5c1.7,1.6,2.6,3.8,2.6,6.4c0,2.2-0.6,4-1.9,5.5
		c-1.3,1.5-3,2.5-5,2.9l7.3,9.8h-5.7l-7-9.7h-2.2v9.7H196.5z M206.3,63.6h-4.7v8.8h4.7c1.5,0,2.6-0.4,3.5-1.2s1.3-1.8,1.3-3.1
		c0-1.3-0.4-2.4-1.3-3.2C208.9,64.1,207.8,63.6,206.3,63.6z"/>
	<path class="st0" d="M224.2,86.2V59.1h4.7v11.9l10.4-11.9h6.3l-9.5,10.8l9.8,16.3h-5.8l-7.4-12.4l-3.6,4.1v8.3H224.2z"/>
</g>
</svg>
