<?xml version="1.0" encoding="utf-8"?>
<!-- Generator: Adobe Illustrator 19.2.0, SVG Export Plug-In . SVG Version: 6.00 Build 0)  -->
<svg version="1.1" id="Layer_1" xmlns="http://www.w3.org/2000/svg" xmlns:xlink="http://www.w3.org/1999/xlink" x="0px" y="0px"
	 viewBox="0 0 300 250" enable-background="new 0 0 300 250" xml:space="preserve">
<g>
	<path fill="#FFFFFF" d="M24.955,39.197c1.935,0,2.939,1.26,2.939,2.97c0,1.245-0.66,1.936-1.2,2.28
		c0.645,0.33,1.515,1.02,1.515,2.505c0,1.814-1.155,3.045-3.195,3.045h-4.08v-10.8H24.955z M24.625,43.952
		c1.215,0,1.71-0.75,1.71-1.785c0-1.064-0.48-1.785-1.725-1.785h-2.145v3.57H24.625z M24.729,48.812c1.35,0,1.905-0.689,1.905-1.859
		c0-1.26-0.6-1.86-1.92-1.86h-2.25v3.72H24.729z"/>
	<path fill="#FFFFFF" d="M34.119,39.047c2.595,0,4.23,1.665,4.23,5.55s-1.605,5.55-4.23,5.55c-2.625,0-4.229-1.665-4.229-5.55
		C29.89,40.742,31.524,39.047,34.119,39.047z M34.119,40.322c-1.59,0-2.625,0.96-2.625,4.274c0,3.315,1.035,4.275,2.625,4.275
		c1.605,0,2.625-0.96,2.625-4.275C36.744,41.282,35.724,40.322,34.119,40.322z"/>
	<path fill="#FFFFFF" d="M46.269,39.303c0.195-0.046,0.465-0.105,0.765-0.105c0.315,0,0.6,0.06,0.825,0.105l-3.405,4.919l3.855,5.67
		c0,0-0.315,0.105-0.9,0.105c-0.555,0-0.885-0.105-0.885-0.105l-3.345-4.89h-1.095v4.89c0,0-0.225,0.105-0.765,0.105
		c-0.48,0-0.765-0.105-0.765-0.105V39.303c0,0,0.27-0.105,0.78-0.105c0.495,0,0.75,0.105,0.75,0.105v4.47h1.095L46.269,39.303z"/>
	<path fill="#FFFFFF" d="M53.379,39.197c0.57,0,0.9,0.105,0.9,0.105l3.765,10.589c0,0-0.27,0.105-0.825,0.105
		c-0.51,0-0.75-0.105-0.75-0.105l-0.93-2.64h-4.44l-0.945,2.64c0,0-0.255,0.105-0.735,0.105c-0.465,0-0.705-0.105-0.705-0.105
		l3.765-10.589C52.479,39.303,52.854,39.197,53.379,39.197z M53.304,40.862c0,0-0.135,0.6-0.39,1.35l-1.38,3.795h3.57l-1.365-3.795
		c-0.27-0.779-0.39-1.35-0.39-1.35H53.304z"/>
	<path fill="#FFFFFF" d="M68.619,39.197c0,0,0.12,0.27,0.12,0.645c0,0.391-0.12,0.676-0.12,0.676h-2.79v9.374
		c0,0-0.27,0.105-0.765,0.105c-0.54,0-0.765-0.105-0.765-0.105v-9.374h-2.865c0,0-0.12-0.255-0.12-0.66c0-0.375,0.12-0.66,0.12-0.66
		H68.619z"/>
	<path fill="#FFFFFF" d="M70.464,39.303c0,0,0.255-0.105,0.75-0.105c0.525,0,0.78,0.105,0.78,0.105v10.589
		c0,0-0.27,0.105-0.765,0.105c-0.54,0-0.765-0.105-0.765-0.105V39.303z"/>
	<path fill="#FFFFFF" d="M77.994,39.197c2.775,0,4.41,1.425,4.41,5.399c0,3.976-1.635,5.4-4.41,5.4h-3.33v-10.8H77.994z
		 M77.889,48.722c1.755,0,2.88-0.75,2.88-4.125c0-3.39-1.125-4.124-2.88-4.124h-1.695v8.249H77.889z"/>
	<path fill="#FFFFFF" d="M42.729,61.067c-0.555-0.976-0.885-1.936-0.885-1.936h-0.06c0,0,0.105,1.005,0.105,2.521v6.239
		c0,0-0.225,0.105-0.72,0.105c-0.48,0-0.69-0.105-0.69-0.105V57.303c0,0,0.315-0.105,0.915-0.105s0.9,0.105,0.9,0.105l3.735,6.765
		c0.54,0.975,0.93,1.994,0.93,1.994h0.045c0,0-0.105-1.109-0.105-2.505v-6.254c0,0,0.225-0.105,0.72-0.105s0.69,0.105,0.69,0.105
		v10.589c0,0-0.285,0.105-0.885,0.105c-0.6,0-0.915-0.105-0.915-0.105L42.729,61.067z"/>
	<path fill="#FFFFFF" d="M58.464,64.337c0,2.445-1.5,3.81-3.795,3.81c-2.28,0-3.765-1.395-3.765-3.81v-7.034
		c0,0,0.255-0.105,0.75-0.105c0.51,0,0.765,0.105,0.765,0.105v7.274c0,1.439,0.84,2.279,2.28,2.279c1.455,0,2.265-0.84,2.265-2.279
		v-7.274c0,0,0.24-0.105,0.735-0.105s0.765,0.105,0.765,0.105V64.337z"/>
	<path fill="#FFFFFF" d="M60.924,57.303c0,0,0.24-0.105,0.81-0.105c0.54,0,0.81,0.105,0.81,0.105l-0.255,7.814
		c0,0-0.195,0.12-0.54,0.12c-0.36,0-0.57-0.12-0.57-0.12L60.924,57.303z M62.5,67.892c0,0-0.255,0.105-0.765,0.105
		c-0.54,0-0.765-0.105-0.765-0.105v-1.41c0,0,0.225-0.104,0.765-0.104c0.51,0,0.765,0.104,0.765,0.104V67.892z"/>
</g>
</svg>
