<svg id="Layer_1" data-name="Layer 1" xmlns="http://www.w3.org/2000/svg" viewBox="0 0 300 250"><defs><style>.cls-1{fill:#d4ac76;}</style></defs><title>text</title><path class="cls-1" d="M76.88,169.67v-8.89h2.93a2.65,2.65,0,0,1,1.94.74,2.45,2.45,0,0,1,.77,1.83,2.09,2.09,0,0,1-1,1.79,2.53,2.53,0,0,1,1,.8,1.91,1.91,0,0,1,.37,1.13A2.44,2.44,0,0,1,82.1,169a2.8,2.8,0,0,1-2,.72Zm2.73-7.41H78.42v2.23h1.33a1.24,1.24,0,0,0,.89-.33,1.12,1.12,0,0,0,.34-.82.93.93,0,0,0-.38-.78A1.54,1.54,0,0,0,79.61,162.26Zm.26,3.57H78.42v2.35h1.41a1.46,1.46,0,0,0,1-.33,1.14,1.14,0,0,0,.37-.86,1.12,1.12,0,0,0-.35-.85A1.42,1.42,0,0,0,79.87,165.83Z"/><path class="cls-1" d="M90.27,165.91H87v2.27h3.61v1.49H85.31v-8.89h5.18v1.48H87v2.16h3.29Z"/><path class="cls-1" d="M95.43,169.78a4.32,4.32,0,0,1-1.68-.35,4.46,4.46,0,0,1-1.44-1l1.06-1.27a3.22,3.22,0,0,0,1,.8,2.56,2.56,0,0,0,1.17.31,1.43,1.43,0,0,0,1-.31,1,1,0,0,0,.37-.76,1.33,1.33,0,0,0-1-1.24l-1-.4a3.71,3.71,0,0,1-1.48-1,2.24,2.24,0,0,1-.48-1.51,2.3,2.3,0,0,1,.76-1.68,2.56,2.56,0,0,1,1.88-.75,3.83,3.83,0,0,1,2.74,1l-1,1.24a2.27,2.27,0,0,0-1.76-.77,1.17,1.17,0,0,0-.79.25.8.8,0,0,0-.3.63.81.81,0,0,0,.23.61,2.44,2.44,0,0,0,.76.46l1,.41a2.74,2.74,0,0,1,2,2.57,2.5,2.5,0,0,1-.83,1.94A3.24,3.24,0,0,1,95.43,169.78Z"/><path class="cls-1" d="M99.93,162.38v-1.6h7.32v1.6h-2.82v7.29h-1.67v-7.29Z"/><path class="cls-1" d="M107.34,169.67l3.42-8.89h1.51l3.42,8.89H114l-.47-1.23h-4l-.47,1.23Zm3.41-9.81a.74.74,0,0,1-1.09,0,.74.74,0,0,1-.23-.57.76.76,0,0,1,.22-.56.8.8,0,0,1,.55-.23.74.74,0,0,1,.54.23.82.82,0,0,1,0,1.13Zm.77,3.4L110.1,167h2.83Zm1.87-3.4a.81.81,0,0,1-.59.24.82.82,0,0,1-.59-.24.79.79,0,0,1,0-1.13.86.86,0,0,1,.59-.23.84.84,0,0,1,.59.23.76.76,0,0,1,0,1.13Z"/><path class="cls-1" d="M117.54,169.67v-8.89h1.66v7.29h3.27v1.6Z"/><path class="cls-1" d="M124.64,169.67v-8.89h1.67v7.29h3.27v1.6Z"/><path class="cls-1" d="M141.57,169.67V166h-3.81v3.72H136.1v-8.89h1.66v3.57h3.81v-3.57h1.67v8.89Z"/><path class="cls-1" d="M151.82,168.87a3.64,3.64,0,0,1-4.86,0,3.17,3.17,0,0,1-1-2.36v-5.73h1.67v5.52a2.07,2.07,0,0,0,.45,1.37,1.76,1.76,0,0,0,2.54,0,2,2,0,0,0,.46-1.35v-5.54h1.66v5.73A3.17,3.17,0,0,1,151.82,168.87Z"/><path class="cls-1" d="M157.93,169.78a4.32,4.32,0,0,1-1.68-.35,4.46,4.46,0,0,1-1.44-1l1.06-1.27a3.22,3.22,0,0,0,1,.8,2.59,2.59,0,0,0,1.17.31A1.41,1.41,0,0,0,159,168a1,1,0,0,0,.37-.76,1.33,1.33,0,0,0-1-1.24l-1-.4a3.71,3.71,0,0,1-1.48-1,2.42,2.42,0,0,1,.28-3.19,2.56,2.56,0,0,1,1.88-.75,3.83,3.83,0,0,1,2.74,1l-1,1.24a2.27,2.27,0,0,0-1.76-.77,1.17,1.17,0,0,0-.79.25.8.8,0,0,0-.3.63.85.85,0,0,0,.23.61,2.39,2.39,0,0,0,.77.46l1,.41a2.76,2.76,0,0,1,2,2.57,2.47,2.47,0,0,1-.84,1.94A3.24,3.24,0,0,1,157.93,169.78Z"/><path class="cls-1" d="M163.32,169.67v-8.89h1.54v3.92l3.4-3.92h2.06l-3.14,3.54,3.21,5.35h-1.92l-2.42-4.06L164.86,167v2.72Z"/><path class="cls-1" d="M171.78,169.67l3.43-8.89h1.5l3.42,8.89h-1.71l-.48-1.23h-4l-.48,1.23Zm4.18-6.41L174.54,167h2.84Z"/><path class="cls-1" d="M180.24,162.38v-1.6h7.33v1.6h-2.83v7.29h-1.67v-7.29Z"/><path class="cls-1" d="M187.65,169.67l3.43-8.89h1.5l3.42,8.89h-1.71l-.48-1.23h-4l-.48,1.23Zm4.18-6.41L190.41,167h2.84Z"/><path class="cls-1" d="M197.85,169.67v-8.89h1.67v7.29h3.27v1.6Z"/><path class="cls-1" d="M213.09,165.22a4.63,4.63,0,1,1-1.35-3.26A4.42,4.42,0,0,1,213.09,165.22Zm-6.71,2.12a2.92,2.92,0,0,0,4.18,0,3.07,3.07,0,0,0,0-4.26,2.92,2.92,0,0,0-4.18,0,3.07,3.07,0,0,0,0,4.26Z"/><path class="cls-1" d="M221.16,166v-1.48h3.19v.76a4.61,4.61,0,0,1-.65,2.35,4.43,4.43,0,0,1-1.69,1.64,4.56,4.56,0,0,1-2.26.58,4.61,4.61,0,1,1,0-9.22,4.37,4.37,0,0,1,3.31,1.44l-1.14,1.12a2.87,2.87,0,0,0-2.18-1,2.83,2.83,0,0,0-2.13.87,3,3,0,0,0-.84,2.14,2.93,2.93,0,0,0,.85,2.14,2.67,2.67,0,0,0,2,.88,3.16,3.16,0,0,0,2-.62,2.8,2.8,0,0,0,1-1.64Z"/></svg>