<?xml version="1.0" encoding="utf-8"?>
<!-- Generator: Adobe Illustrator 19.1.1, SVG Export Plug-In . SVG Version: 6.00 Build 0)  -->
<svg version="1.1" id="Layer_1" xmlns="http://www.w3.org/2000/svg" xmlns:xlink="http://www.w3.org/1999/xlink" x="0px" y="0px"
	 viewBox="0 0 300 250" style="enable-background:new 0 0 300 250;" xml:space="preserve">
<style type="text/css">
	.st0{fill:#D4AC76;}
</style>
<g>
	<path class="st0" d="M104.2,108.5v-8.9h2.4c1.2,0,2.2,0.4,3.1,1.3c0.9,0.9,1.3,1.9,1.3,3.1c0,1.3-0.4,2.4-1.3,3.2
		c-0.9,0.8-1.9,1.3-3.2,1.3H104.2z M106.6,100.8h-1.2v6.5h1.2c0.9,0,1.6-0.3,2.2-1c0.6-0.6,0.9-1.4,0.9-2.3s-0.3-1.7-0.9-2.3
		C108.2,101.1,107.4,100.8,106.6,100.8z"/>
	<path class="st0" d="M114,108.5v-8.9h1.2v8.9H114z"/>
	<path class="st0" d="M117.7,100.8v-1.2h7.2v1.2h-3v7.7h-1.2v-7.7H117.7z"/>
	<path class="st0" d="M126.7,100.8v-1.2h7.2v1.2h-3v7.7h-1.2v-7.7H126.7z"/>
	<path class="st0" d="M141.4,108.5v-8.9h0.9l4.8,6.1v-6.1h1.2v8.9h-0.7l-5-6.3v6.3H141.4z"/>
	<path class="st0" d="M156.7,99.6h1.4l-3,5.3v3.6h-1.2V105l-3-5.4h1.5l2.1,3.9L156.7,99.6z"/>
	<path class="st0" d="M158.6,108.5l3.6-8.9h1.1l3.5,8.9h-1.4l-0.5-1.4h-4.4l-0.5,1.4H158.6z M162.7,101.7l-1.7,4.3h3.4L162.7,101.7z
		"/>
	<path class="st0" d="M179.8,108.5v-3.9h-4.3v3.9h-1.2v-8.9h1.2v3.9h4.3v-3.9h1.2v8.9H179.8z"/>
	<path class="st0" d="M189.6,104.6H186v2.7h3.9v1.2h-5.2v-8.9h5.1v1.2H186v2.6h3.7V104.6z"/>
	<path class="st0" d="M193,108.5v-8.9h1.3l2.9,4.7l2.9-4.7h1.2v8.9H200v-6.6l0,0l-2.9,4.6l-2.8-4.5h-0.1v6.5H193z"/>
	<path class="st0" d="M102.3,123.5l-3.5-8.9h1.4l2.7,6.8l2.7-6.8h1.4l-3.5,8.9H102.3z"/>
	<path class="st0" d="M107.7,123.5l3.6-8.9h1.1l3.5,8.9h-1.4l-0.5-1.4h-4.4l-0.6,1.4H107.7z M110.9,113.7c-0.1,0.1-0.3,0.2-0.4,0.2
		c-0.2,0-0.3-0.1-0.4-0.2c-0.1-0.1-0.2-0.3-0.2-0.5s0.1-0.4,0.2-0.5c0.1-0.1,0.3-0.2,0.4-0.2c0.2,0,0.3,0.1,0.4,0.2
		c0.1,0.1,0.2,0.3,0.2,0.5S111,113.5,110.9,113.7z M111.8,116.7l-1.7,4.3h3.4L111.8,116.7z M113.4,113.7c-0.1,0.1-0.3,0.2-0.4,0.2
		s-0.3-0.1-0.4-0.2c-0.1-0.1-0.2-0.3-0.2-0.5s0.1-0.4,0.2-0.5c0.1-0.1,0.3-0.2,0.4-0.2s0.3,0.1,0.4,0.2c0.1,0.1,0.2,0.3,0.2,0.5
		S113.5,113.5,113.4,113.7z"/>
	<path class="st0" d="M118.3,123.5v-8.9h0.9l4.8,6.1v-6.1h1.2v8.9h-0.7l-5-6.3v6.3H118.3z"/>
	<path class="st0" d="M127.8,115.8v-1.2h7.2v1.2h-3v7.7h-1.2v-7.7H127.8z"/>
	<path class="st0" d="M135.6,123.5l3.6-8.9h1.1l3.5,8.9h-1.4l-0.5-1.4h-4.4l-0.6,1.4H135.6z M139.7,116.7l-1.7,4.3h3.4L139.7,116.7z
		"/>
	<path class="st0" d="M146.2,123.5v-8.9h3.3c0.8,0,1.5,0.3,2,0.8c0.5,0.5,0.8,1.2,0.8,2c0,0.7-0.2,1.4-0.7,1.9
		c-0.4,0.5-1,0.8-1.7,0.9l2.6,3.4H151l-2.6-3.4h-1v3.4H146.2z M149.4,115.8h-1.9v3.2h1.9c0.5,0,0.9-0.1,1.3-0.4
		c0.3-0.3,0.5-0.7,0.5-1.2c0-0.4-0.2-0.8-0.5-1.1C150.3,115.9,149.9,115.8,149.4,115.8z"/>
	<path class="st0" d="M160.3,123.5v-8.9h3c0.8,0,1.5,0.3,2.1,0.8c0.5,0.6,0.8,1.3,0.8,2.1c0,0.8-0.3,1.5-0.8,2.1s-1.3,0.8-2.1,0.8
		h-1.7v3H160.3z M163.2,115.8h-1.7v3.5h1.7c0.5,0,0.9-0.2,1.2-0.5c0.3-0.3,0.5-0.7,0.5-1.3c0-0.5-0.2-0.9-0.5-1.3
		C164.1,116,163.7,115.8,163.2,115.8z"/>
	<path class="st0" d="M167.3,123.5l3.6-8.9h1.1l3.5,8.9h-1.4l-0.5-1.4h-4.4l-0.5,1.4H167.3z M171.5,116.7l-1.7,4.3h3.4L171.5,116.7z
		 M172.3,114c-0.2,0.2-0.5,0.4-0.9,0.4s-0.6-0.1-0.9-0.4c-0.2-0.2-0.4-0.5-0.4-0.9c0-0.3,0.1-0.6,0.4-0.9c0.2-0.2,0.5-0.4,0.9-0.4
		s0.6,0.1,0.9,0.4c0.2,0.2,0.4,0.5,0.4,0.9C172.7,113.5,172.6,113.8,172.3,114z M171.5,113.6c0.1,0,0.2,0,0.3-0.1s0.1-0.2,0.1-0.3
		c0-0.1,0-0.3-0.1-0.4c-0.1-0.1-0.2-0.1-0.3-0.1c-0.1,0-0.3,0-0.4,0.1c-0.1,0.1-0.1,0.2-0.1,0.4c0,0.1,0,0.2,0.1,0.3
		S171.3,113.6,171.5,113.6z"/>
	<path class="st0" d="M183,123.5v-8.9h2.4c1.2,0,2.2,0.4,3.1,1.3s1.3,1.9,1.3,3.1c0,1.3-0.4,2.4-1.3,3.2c-0.9,0.8-1.9,1.3-3.2,1.3
		H183z M185.4,115.8h-1.2v6.5h1.2c0.9,0,1.6-0.3,2.2-1c0.6-0.6,0.9-1.4,0.9-2.3s-0.3-1.7-0.9-2.3C187,116.1,186.2,115.8,185.4,115.8
		z"/>
	<path class="st0" d="M192.8,123.5v-8.9h1.2v8.9H192.8z"/>
	<path class="st0" d="M203.3,119.6v-1.2h3v0.6c0,1.3-0.5,2.4-1.4,3.3c-0.9,0.9-2,1.3-3.2,1.3c-1.3,0-2.4-0.4-3.2-1.3
		c-0.9-0.9-1.3-2-1.3-3.3s0.4-2.4,1.3-3.3c0.9-0.9,1.9-1.3,3.2-1.3c0.7,0,1.3,0.1,1.9,0.4c0.6,0.2,1.1,0.6,1.5,1l-0.9,0.9
		c-0.7-0.8-1.5-1.2-2.5-1.2c-0.9,0-1.7,0.3-2.4,1s-0.9,1.5-0.9,2.4s0.3,1.8,0.9,2.4c0.6,0.7,1.4,1,2.4,1c0.8,0,1.5-0.3,2.1-0.8
		c0.6-0.5,1-1.2,1.1-2.1H203.3z"/>
</g>
</svg>
