<?xml version="1.0" encoding="utf-8"?>
<!-- Generator: Adobe Illustrator 19.2.0, SVG Export Plug-In . SVG Version: 6.00 Build 0)  -->
<svg version="1.1" id="Layer_1" xmlns="http://www.w3.org/2000/svg" xmlns:xlink="http://www.w3.org/1999/xlink" x="0px" y="0px"
	 viewBox="0 0 300 250" enable-background="new 0 0 300 250" xml:space="preserve">
<g>
	<path fill="#00A8DC" d="M46.975,235.277c-0.209-0.748-0.275-1.243-0.297-1.584h-0.044c-0.022,0.341-0.088,0.847-0.308,1.584
		l-0.869,2.981c-0.176,0.055-0.385,0.077-0.627,0.077c-0.231,0-0.451-0.022-0.638-0.077l-1.662-5.633c0,0,0.198-0.077,0.55-0.077
		c0.374,0,0.473,0.077,0.473,0.077l1.045,3.51c0.143,0.473,0.198,0.847,0.231,1.078h0.033c0.044-0.242,0.099-0.595,0.242-1.078
		l1.012-3.51c0,0,0.264-0.077,0.594-0.077c0.363,0,0.539,0.077,0.539,0.077l0.979,3.487c0.143,0.495,0.198,0.869,0.22,1.101h0.033
		c0.044-0.231,0.121-0.583,0.275-1.09l1.034-3.498c0,0,0.176-0.077,0.484-0.077c0.341,0,0.473,0.077,0.473,0.077l-1.661,5.633
		c-0.198,0.055-0.396,0.077-0.627,0.077c-0.231,0-0.429-0.022-0.638-0.077L46.975,235.277z"/>
	<path fill="#00A8DC" d="M55.742,235.277c-0.209-0.748-0.275-1.243-0.297-1.584h-0.044c-0.022,0.341-0.088,0.847-0.308,1.584
		l-0.869,2.981c-0.176,0.055-0.385,0.077-0.627,0.077c-0.231,0-0.451-0.022-0.638-0.077l-1.661-5.633c0,0,0.198-0.077,0.55-0.077
		c0.374,0,0.473,0.077,0.473,0.077l1.045,3.51c0.143,0.473,0.198,0.847,0.231,1.078h0.033c0.044-0.242,0.099-0.595,0.242-1.078
		l1.012-3.51c0,0,0.264-0.077,0.594-0.077c0.363,0,0.539,0.077,0.539,0.077l0.979,3.487c0.143,0.495,0.198,0.869,0.22,1.101h0.033
		c0.044-0.231,0.121-0.583,0.275-1.09l1.034-3.498c0,0,0.176-0.077,0.484-0.077c0.341,0,0.473,0.077,0.473,0.077l-1.661,5.633
		c-0.198,0.055-0.396,0.077-0.627,0.077c-0.231,0-0.429-0.022-0.638-0.077L55.742,235.277z"/>
	<path fill="#00A8DC" d="M64.509,235.277c-0.209-0.748-0.275-1.243-0.297-1.584h-0.044c-0.022,0.341-0.088,0.847-0.308,1.584
		l-0.869,2.981c-0.176,0.055-0.385,0.077-0.627,0.077c-0.231,0-0.451-0.022-0.638-0.077l-1.662-5.633c0,0,0.198-0.077,0.55-0.077
		c0.374,0,0.473,0.077,0.473,0.077l1.045,3.51c0.143,0.473,0.198,0.847,0.231,1.078h0.033c0.044-0.242,0.099-0.595,0.242-1.078
		l1.012-3.51c0,0,0.264-0.077,0.594-0.077c0.363,0,0.539,0.077,0.539,0.077l0.979,3.487c0.143,0.495,0.198,0.869,0.22,1.101h0.033
		c0.044-0.231,0.121-0.583,0.275-1.09l1.034-3.498c0,0,0.176-0.077,0.484-0.077c0.341,0,0.473,0.077,0.473,0.077l-1.661,5.633
		c-0.198,0.055-0.396,0.077-0.627,0.077c-0.231,0-0.429-0.022-0.638-0.077L64.509,235.277z"/>
	<path fill="#00A8DC" d="M70.02,238.259c0,0-0.198,0.077-0.572,0.077c-0.396,0-0.572-0.077-0.572-0.077v-1.034
		c0,0,0.176-0.077,0.572-0.077c0.374,0,0.572,0.077,0.572,0.077V238.259z"/>
	<path fill="#00A8DC" d="M73.54,232.438c1.596,0,2.102,0.716,2.102,2.135v3.686c0,0-0.121,0.077-0.429,0.077
		c-0.275,0-0.44-0.077-0.44-0.077l-0.165-0.704c-0.286,0.583-0.891,0.891-1.727,0.891c-1.034,0-1.706-0.604-1.706-1.837
		c0-1.199,0.737-1.728,2.112-1.728c0.495,0,0.968,0.033,1.254,0.066v-0.407c0-0.748-0.286-1.177-1.133-1.177
		c-0.77,0-1.474,0.274-1.474,0.274c-0.011-0.011-0.143-0.099-0.253-0.33c-0.099-0.23-0.066-0.451-0.066-0.462
		C71.615,232.846,72.439,232.438,73.54,232.438z M73.43,235.629c-0.737,0-1.122,0.286-1.122,0.979c0,0.715,0.363,0.99,0.957,0.99
		c0.869,0,1.276-0.737,1.276-1.519v-0.385C74.288,235.673,73.848,235.629,73.43,235.629z"/>
	<path fill="#00A8DC" d="M77.159,232.626c0,0,0.187-0.077,0.55-0.077c0.374,0,0.55,0.077,0.55,0.077v3.961
		c0,0.615,0.319,0.968,1.023,0.968c0.484,0,0.946-0.253,1.243-0.704v-4.225c0,0,0.198-0.077,0.55-0.077
		c0.385,0,0.55,0.077,0.55,0.077v5.633c0,0-0.165,0.077-0.55,0.077c-0.352,0-0.55-0.077-0.55-0.077v-0.506
		c-0.396,0.451-0.979,0.692-1.661,0.692c-1.1,0-1.705-0.671-1.705-1.661V232.626z"/>
	<path fill="#00A8DC" d="M84.705,236.257c0,1.001,0.319,1.298,1.1,1.298c0.22,0,0.462-0.044,0.462-0.044s0.077,0.187,0.077,0.439
		c0,0.254-0.055,0.396-0.055,0.396c-0.198,0.055-0.495,0.099-0.792,0.099c-1.353,0-1.892-0.736-1.892-2.134v-2.938h-0.847
		c0,0-0.066-0.154-0.066-0.407c0-0.275,0.066-0.418,0.066-0.418h0.847v-1.001c0.286-0.176,0.693-0.253,1.1-0.22v1.221h1.43
		c0,0,0.066,0.143,0.066,0.407c0,0.253-0.066,0.418-0.066,0.418h-1.43V236.257z"/>
	<path fill="#00A8DC" d="M89.588,232.438c1.519,0,2.442,0.825,2.442,3.004c0,2.178-0.935,3.003-2.442,3.003
		c-1.507,0-2.442-0.825-2.442-3.003C87.146,233.264,88.082,232.438,89.588,232.438z M89.588,233.286c-0.803,0-1.32,0.462-1.32,2.156
		s0.517,2.156,1.32,2.156c0.803,0,1.31-0.462,1.31-2.156S90.392,233.286,89.588,233.286z"/>
	<path fill="#00A8DC" d="M95.198,232.438c1.079,0,1.551,0.298,1.551,0.298c0,0.285-0.099,0.604-0.286,0.78
		c0,0-0.528-0.176-1.155-0.176c-0.748,0-1.122,0.275-1.122,0.792c0,0.539,0.693,0.671,1.386,0.902
		c0.715,0.231,1.463,0.572,1.463,1.65c0,1.111-0.693,1.76-2.09,1.76c-1.155,0-1.837-0.396-1.837-0.396
		c0-0.319,0.099-0.627,0.297-0.814c0,0,0.715,0.275,1.485,0.275c0.671,0,1.056-0.253,1.056-0.792c0-0.605-0.605-0.737-1.254-0.925
		c-0.748-0.22-1.562-0.539-1.562-1.628C93.13,233.132,93.801,232.438,95.198,232.438z"/>
	<path fill="#00A8DC" d="M99.169,235.783c0.088,1.31,0.616,1.728,1.529,1.728c0.781,0,1.298-0.319,1.298-0.319
		c0.198,0.176,0.341,0.474,0.352,0.792c0,0-0.627,0.462-1.826,0.462c-1.694,0-2.486-1.045-2.486-3.036
		c0-2.079,0.979-2.971,2.442-2.971c1.354,0,2.179,0.748,2.179,2.212c0,0.693-0.121,1.133-0.121,1.133H99.169z M100.478,233.308
		c-0.715,0-1.221,0.474-1.309,1.694h2.354c0.011-0.088,0.033-0.264,0.033-0.495C101.557,233.858,101.292,233.308,100.478,233.308z"
		/>
	<path fill="#00A8DC" d="M106.386,232.45c0.407,0,0.715,0.121,0.957,0.274c-0.033,0.396-0.187,0.683-0.484,0.925
		c-0.209-0.154-0.429-0.231-0.682-0.231c-0.429,0-0.847,0.33-1.133,0.836v4.005c0,0-0.187,0.077-0.55,0.077
		c-0.385,0-0.55-0.077-0.55-0.077v-5.633c0,0,0.165-0.077,0.55-0.077c0.363,0,0.55,0.077,0.55,0.077v0.759
		C105.461,232.691,105.945,232.45,106.386,232.45z"/>
	<path fill="#00A8DC" d="M110.016,236.092c0.209,0.615,0.308,1.177,0.308,1.177h0.044c0,0,0.132-0.539,0.341-1.177l1.199-3.466
		c0,0,0.176-0.077,0.495-0.077c0.341,0,0.517,0.077,0.517,0.077l-1.937,5.633c0,0-0.275,0.077-0.66,0.077
		c-0.407,0-0.66-0.077-0.66-0.077l-1.98-5.633c0,0,0.209-0.077,0.572-0.077c0.385,0,0.572,0.077,0.572,0.077L110.016,236.092z"/>
	<path fill="#00A8DC" d="M115.097,231.438c0,0-0.198,0.077-0.572,0.077c-0.396,0-0.572-0.077-0.572-0.077v-1.034
		c0,0,0.176-0.077,0.572-0.077c0.374,0,0.572,0.077,0.572,0.077V231.438z M115.075,238.259c0,0-0.187,0.077-0.55,0.077
		c-0.385,0-0.55-0.077-0.55-0.077v-5.633c0,0,0.165-0.077,0.55-0.077c0.363,0,0.55,0.077,0.55,0.077V238.259z"/>
	<path fill="#00A8DC" d="M117.583,235.442c0,1.441,0.462,2.068,1.519,2.068c0.605,0,1.034-0.188,1.034-0.188
		c0.187,0.165,0.308,0.484,0.319,0.792c0,0-0.484,0.33-1.584,0.33c-1.606,0-2.42-1.045-2.42-3.003s0.814-3.004,2.42-3.004
		c1.056,0,1.475,0.275,1.475,0.275c0,0.297-0.121,0.605-0.319,0.792c0,0-0.385-0.165-0.968-0.165
		C118.001,233.341,117.583,234.012,117.583,235.442z"/>
	<path fill="#00A8DC" d="M122.5,235.783c0.088,1.31,0.616,1.728,1.529,1.728c0.781,0,1.298-0.319,1.298-0.319
		c0.198,0.176,0.341,0.474,0.352,0.792c0,0-0.627,0.462-1.826,0.462c-1.694,0-2.486-1.045-2.486-3.036
		c0-2.079,0.979-2.971,2.442-2.971c1.354,0,2.179,0.748,2.179,2.212c0,0.693-0.121,1.133-0.121,1.133H122.5z M123.809,233.308
		c-0.715,0-1.221,0.474-1.309,1.694h2.354c0.011-0.088,0.033-0.264,0.033-0.495C124.888,233.858,124.624,233.308,123.809,233.308z"
		/>
	<path fill="#00A8DC" d="M128.374,233.154c0.308-0.451,0.803-0.716,1.584-0.716c1.254,0,2.068,0.76,2.068,3.004
		s-0.814,3.003-2.068,3.003c-0.781,0-1.276-0.264-1.584-0.715v0.528c0,0-0.187,0.077-0.561,0.077c-0.363,0-0.539-0.077-0.539-0.077
		v-8.098c0,0,0.176-0.076,0.539-0.076c0.374,0,0.561,0.076,0.561,0.076V233.154z M129.573,233.341c-0.77,0-1.199,0.639-1.199,1.387
		v1.408c0,0.759,0.429,1.408,1.199,1.408c0.88,0,1.32-0.463,1.32-2.102C130.894,233.803,130.453,233.341,129.573,233.341z"/>
	<path fill="#00A8DC" d="M135.579,232.438c1.519,0,2.442,0.825,2.442,3.004c0,2.178-0.935,3.003-2.442,3.003
		c-1.507,0-2.442-0.825-2.442-3.003C133.137,233.264,134.072,232.438,135.579,232.438z M135.579,233.286
		c-0.803,0-1.32,0.462-1.32,2.156s0.517,2.156,1.32,2.156c0.803,0,1.31-0.462,1.31-2.156S136.382,233.286,135.579,233.286z"/>
	<path fill="#00A8DC" d="M140.76,236.257c0,1.001,0.319,1.298,1.1,1.298c0.22,0,0.462-0.044,0.462-0.044s0.077,0.187,0.077,0.439
		c0,0.254-0.055,0.396-0.055,0.396c-0.198,0.055-0.495,0.099-0.792,0.099c-1.353,0-1.892-0.736-1.892-2.134v-2.938h-0.847
		c0,0-0.066-0.154-0.066-0.407c0-0.275,0.066-0.418,0.066-0.418h0.847v-1.001c0.286-0.176,0.693-0.253,1.1-0.22v1.221h1.43
		c0,0,0.066,0.143,0.066,0.407c0,0.253-0.066,0.418-0.066,0.418h-1.43V236.257z"/>
	<path fill="#00A8DC" d="M146.678,232.626c0,0,0.22-0.077,0.562-0.077c0.308,0,0.539,0.066,0.539,0.066l-1.694,2.629l1.947,3.015
		c0,0-0.242,0.088-0.616,0.088s-0.594-0.088-0.594-0.088l-1.65-2.53h-0.616v2.53c0,0-0.22,0.077-0.539,0.077
		c-0.352,0-0.561-0.077-0.561-0.077v-8.119c0,0,0.22-0.055,0.561-0.055c0.297,0,0.539,0.055,0.539,0.055v4.764h0.627
		L146.678,232.626z"/>
	<path fill="#00A8DC" d="M151.584,239.183c-0.396,1.21-0.781,1.903-1.969,1.903c-0.363,0-0.605-0.109-0.605-0.109
		c0-0.012-0.077-0.188-0.077-0.407c0-0.242,0.077-0.43,0.088-0.44c0,0,0.242,0.044,0.495,0.044c0.495,0,0.748-0.132,1.078-1.166
		l0.231-0.671c-0.11-0.012-0.231-0.022-0.352-0.077l-2.09-5.633c0,0,0.209-0.077,0.572-0.077c0.374,0,0.572,0.077,0.572,0.077
		l1.254,3.345c0.275,0.759,0.385,1.287,0.385,1.287h0.044c0,0,0.11-0.518,0.352-1.276l1.089-3.355c0,0,0.176-0.077,0.539-0.077
		c0.319,0,0.517,0.077,0.517,0.077L151.584,239.183z"/>
	<path fill="#00A8DC" d="M157.194,232.45c0.407,0,0.715,0.121,0.957,0.274c-0.033,0.396-0.187,0.683-0.484,0.925
		c-0.209-0.154-0.429-0.231-0.682-0.231c-0.429,0-0.847,0.33-1.133,0.836v4.005c0,0-0.187,0.077-0.55,0.077
		c-0.385,0-0.55-0.077-0.55-0.077v-5.633c0,0,0.165-0.077,0.55-0.077c0.363,0,0.55,0.077,0.55,0.077v0.759
		C156.27,232.691,156.753,232.45,157.194,232.45z"/>
	<path fill="#00A8DC" d="M161.011,232.438c1.595,0,2.102,0.716,2.102,2.135v3.686c0,0-0.121,0.077-0.429,0.077
		c-0.275,0-0.44-0.077-0.44-0.077l-0.165-0.704c-0.286,0.583-0.891,0.891-1.727,0.891c-1.034,0-1.706-0.604-1.706-1.837
		c0-1.199,0.737-1.728,2.112-1.728c0.495,0,0.968,0.033,1.254,0.066v-0.407c0-0.748-0.286-1.177-1.133-1.177
		c-0.77,0-1.474,0.274-1.474,0.274c-0.011-0.011-0.143-0.099-0.253-0.33c-0.099-0.23-0.066-0.451-0.066-0.462
		C159.085,232.846,159.911,232.438,161.011,232.438z M160.901,235.629c-0.737,0-1.122,0.286-1.122,0.979
		c0,0.715,0.363,0.99,0.957,0.99c0.869,0,1.276-0.737,1.276-1.519v-0.385C161.759,235.673,161.319,235.629,160.901,235.629z"/>
	<path fill="#00A8DC" d="M165.73,238.259c0,0-0.198,0.077-0.572,0.077c-0.396,0-0.572-0.077-0.572-0.077v-1.034
		c0,0,0.176-0.077,0.572-0.077c0.374,0,0.572,0.077,0.572,0.077V238.259z"/>
	<path fill="#00A8DC" d="M169.063,232.438c1.079,0,1.551,0.298,1.551,0.298c0,0.285-0.099,0.604-0.286,0.78
		c0,0-0.528-0.176-1.155-0.176c-0.748,0-1.122,0.275-1.122,0.792c0,0.539,0.693,0.671,1.386,0.902
		c0.715,0.231,1.463,0.572,1.463,1.65c0,1.111-0.693,1.76-2.09,1.76c-1.155,0-1.837-0.396-1.837-0.396
		c0-0.319,0.099-0.627,0.297-0.814c0,0,0.715,0.275,1.485,0.275c0.671,0,1.056-0.253,1.056-0.792c0-0.605-0.605-0.737-1.254-0.925
		c-0.748-0.22-1.562-0.539-1.562-1.628C166.995,233.132,167.666,232.438,169.063,232.438z"/>
	<path fill="#00A8DC" d="M173.033,235.783c0.088,1.31,0.616,1.728,1.529,1.728c0.781,0,1.298-0.319,1.298-0.319
		c0.198,0.176,0.341,0.474,0.352,0.792c0,0-0.627,0.462-1.826,0.462c-1.694,0-2.486-1.045-2.486-3.036
		c0-2.079,0.979-2.971,2.442-2.971c1.354,0,2.179,0.748,2.179,2.212c0,0.693-0.121,1.133-0.121,1.133H173.033z M174.342,233.308
		c-0.715,0-1.221,0.474-1.309,1.694h2.354c0.011-0.088,0.033-0.264,0.033-0.495C175.421,233.858,175.157,233.308,174.342,233.308z"
		/>
</g>
</svg>
