<?xml version="1.0" encoding="utf-8"?>
<!-- Generator: Adobe Illustrator 19.1.1, SVG Export Plug-In . SVG Version: 6.00 Build 0)  -->
<svg version="1.1" id="Layer_1" xmlns="http://www.w3.org/2000/svg" xmlns:xlink="http://www.w3.org/1999/xlink" x="0px" y="0px"
	 viewBox="0 0 580 400" style="enable-background:new 0 0 580 400;" xml:space="preserve">
<style type="text/css">
	.st0{fill:#D4AC76;}
</style>
<g>
	<path class="st0" d="M84.7,144.6h-6v4.5h6.5v2h-8.5v-14.7H85v2h-6.3v4.3h6V144.6z"/>
	<path class="st0" d="M88.6,138.3v-2h11.9v2h-4.9v12.7h-2.1v-12.7H88.6z"/>
	<path class="st0" d="M103.4,138.3v-2h11.9v2h-4.9v12.7h-2.1v-12.7H103.4z"/>
	<path class="st0" d="M136.9,151.1v-6.4h-7.1v6.4h-2.1v-14.7h2.1v6.4h7.1v-6.4h2.1v14.7H136.9z"/>
	<path class="st0" d="M150.1,151.3c-1.6,0-2.8-0.5-3.8-1.5c-1-1-1.5-2.3-1.5-3.9v-9.5h2.1v9.4c0,1,0.3,1.9,0.9,2.6
		c0.6,0.7,1.4,1,2.4,1c1,0,1.8-0.3,2.4-1c0.6-0.7,0.9-1.5,0.9-2.6v-9.4h2.1v9.5c0,1.6-0.5,2.8-1.5,3.9
		C153,150.8,151.7,151.3,150.1,151.3z"/>
	<path class="st0" d="M165.1,151.3c-0.9,0-1.8-0.2-2.7-0.6s-1.7-0.9-2.3-1.6l1.4-1.7c0.5,0.5,1,1,1.7,1.3c0.7,0.4,1.4,0.5,2,0.5
		c0.8,0,1.4-0.2,1.9-0.6s0.7-0.9,0.7-1.6c0-1.1-0.6-1.9-1.9-2.4l-1.7-0.7c-1.1-0.4-1.9-1-2.4-1.6c-0.5-0.6-0.8-1.4-0.8-2.3
		c0-1.1,0.4-2,1.2-2.8c0.8-0.8,1.8-1.2,3-1.2c1.7,0,3.1,0.5,4.3,1.6l-1.2,1.7c-0.8-0.9-1.9-1.3-3-1.3c-0.6,0-1.2,0.2-1.6,0.5
		c-0.4,0.3-0.6,0.8-0.6,1.4c0,0.4,0.1,0.8,0.4,1.1s0.8,0.6,1.5,0.9l1.8,0.7c2.1,0.9,3.2,2.3,3.1,4.2c0,1.3-0.4,2.3-1.3,3.1
		C167.8,150.9,166.6,151.3,165.1,151.3z"/>
	<path class="st0" d="M183,151.1v-14.7h8v2h-6v4.6h5.3v2H185v6.2H183z"/>
	<path class="st0" d="M202.1,151.3c-2.1,0-3.8-0.7-5.3-2.2c-1.5-1.4-2.2-3.3-2.2-5.4c0-2.2,0.7-4,2.2-5.4c1.5-1.4,3.2-2.2,5.3-2.2
		c2.1,0,3.8,0.7,5.3,2.2c1.5,1.5,2.2,3.3,2.2,5.4c0,2.2-0.7,4-2.2,5.4C205.9,150.6,204.2,151.3,202.1,151.3z M198.2,147.7
		c1.1,1.1,2.3,1.6,3.8,1.6c1.5,0,2.8-0.5,3.8-1.6c1.1-1.1,1.6-2.4,1.6-4c0-1.6-0.5-2.9-1.6-4c-1.1-1.1-2.3-1.7-3.8-1.7
		c-1.5,0-2.8,0.6-3.8,1.7s-1.6,2.4-1.6,4C196.7,145.3,197.2,146.6,198.2,147.7z M200.7,134.8c-0.2,0.2-0.4,0.3-0.7,0.3
		c-0.3,0-0.5-0.1-0.7-0.3c-0.2-0.2-0.3-0.5-0.3-0.8s0.1-0.6,0.3-0.8s0.4-0.3,0.7-0.3c0.3,0,0.5,0.1,0.7,0.3c0.2,0.2,0.3,0.5,0.3,0.8
		S200.9,134.6,200.7,134.8z M204.8,134.8c-0.2,0.2-0.4,0.3-0.7,0.3c-0.3,0-0.5-0.1-0.7-0.3c-0.2-0.2-0.3-0.5-0.3-0.8
		s0.1-0.6,0.3-0.8s0.4-0.3,0.7-0.3c0.3,0,0.5,0.1,0.7,0.3c0.2,0.2,0.3,0.5,0.3,0.8S205,134.6,204.8,134.8z"/>
	<path class="st0" d="M214.7,151.1v-14.7h5.5c1.3,0,2.4,0.4,3.3,1.3c0.9,0.9,1.3,2,1.3,3.3c0,1.2-0.4,2.2-1.1,3.1
		c-0.7,0.8-1.7,1.3-2.8,1.4l4.3,5.6h-2.5l-4.2-5.6h-1.6v5.6H214.7z M219.9,138.3h-3.1v5.3h3.1c0.9,0,1.5-0.2,2.1-0.7
		c0.5-0.5,0.8-1.1,0.8-1.9c0-0.7-0.3-1.4-0.8-1.9S220.7,138.3,219.9,138.3z"/>
	<path class="st0" d="M236.3,151.1l5.9-14.7h1.9l5.8,14.7h-2.3l-0.9-2.3h-7.2l-0.9,2.3H236.3z M243.1,139.8l-2.9,7.1h5.6
		L243.1,139.8z"/>
	<path class="st0" d="M253.9,151.1v-14.7h2.1v12.7h6v2H253.9z"/>
	<path class="st0" d="M266.5,151.1v-14.7h2.1v12.7h6v2H266.5z"/>
	<path class="st0" d="M277.6,151.1l5.9-14.7h1.9l5.8,14.7h-2.3l-0.9-2.3h-7.2l-0.9,2.3H277.6z M284.4,139.8l-2.9,7.1h5.6
		L284.4,139.8z"/>
	<path class="st0" d="M301.8,151.1l5.9-14.7h1.9l5.8,14.7H313l-0.9-2.3h-7.2l-0.9,2.3H301.8z M308.6,139.8l-2.9,7.1h5.6L308.6,139.8
		z"/>
	<path class="st0" d="M323.3,151.3c-0.9,0-1.8-0.2-2.7-0.6s-1.7-0.9-2.3-1.6l1.4-1.7c0.5,0.5,1,1,1.7,1.3c0.7,0.4,1.4,0.5,2,0.5
		c0.8,0,1.4-0.2,1.9-0.6c0.5-0.4,0.7-0.9,0.7-1.6c0-1.1-0.6-1.9-1.9-2.4l-1.7-0.7c-1.1-0.4-1.9-1-2.4-1.6s-0.8-1.4-0.8-2.3
		c0-1.1,0.4-2,1.2-2.8c0.8-0.8,1.8-1.2,3-1.2c1.7,0,3.1,0.5,4.3,1.6l-1.2,1.7c-0.8-0.9-1.9-1.3-3-1.3c-0.6,0-1.2,0.2-1.6,0.5
		s-0.6,0.8-0.6,1.4c0,0.4,0.1,0.8,0.4,1.1c0.3,0.3,0.8,0.6,1.5,0.9l1.8,0.7c2.1,0.9,3.2,2.3,3.1,4.2c0,1.3-0.4,2.3-1.3,3.1
		C325.9,150.9,324.8,151.3,323.3,151.3z"/>
	<path class="st0" d="M333.1,151.1v-14.7h5c1.4,0,2.5,0.5,3.4,1.4s1.4,2.1,1.4,3.5c0,1.4-0.5,2.5-1.4,3.4s-2.1,1.4-3.4,1.4h-2.9v5
		H333.1z M338,138.3h-2.8v5.8h2.8c0.8,0,1.5-0.3,2-0.8s0.8-1.2,0.8-2.1c0-0.8-0.3-1.5-0.8-2.1S338.8,138.3,338,138.3z"/>
	<path class="st0" d="M355.9,144.6h-6v4.5h6.5v2h-8.5v-14.7h8.4v2h-6.3v4.3h6V144.6z"/>
	<path class="st0" d="M361.4,151.1v-14.7h2.1v7l6.1-7h2.8l-5.2,5.8l5.3,8.9h-2.5l-4.3-7.2l-2.2,2.5v4.7H361.4z"/>
	<path class="st0" d="M375.5,138.3v-2h11.9v2h-4.9v12.7h-2.1v-12.7H375.5z"/>
	<path class="st0" d="M399.6,144.6h-6v4.5h6.5v2h-8.5v-14.7h8.4v2h-6.3v4.3h6V144.6z"/>
	<path class="st0" d="M405.1,151.1v-14.7h5.5c1.3,0,2.4,0.4,3.3,1.3c0.9,0.9,1.3,2,1.3,3.3c0,1.2-0.4,2.2-1.1,3.1s-1.7,1.3-2.8,1.4
		l4.3,5.6H413l-4.2-5.6h-1.6v5.6H405.1z M410.3,138.3h-3.1v5.3h3.1c0.9,0,1.5-0.2,2.1-0.7c0.5-0.5,0.8-1.1,0.8-1.9
		c0-0.7-0.3-1.4-0.8-1.9S411.1,138.3,410.3,138.3z"/>
	<path class="st0" d="M426.7,151.1l5.9-14.7h1.9l5.8,14.7h-2.3l-0.9-2.3h-7.2l-0.9,2.3H426.7z M433.5,139.8l-2.9,7.1h5.6
		L433.5,139.8z"/>
	<path class="st0" d="M447.2,151.1l-5.7-14.7h2.3l4.4,11.3l4.4-11.3h2.3l-5.7,14.7H447.2z"/>
	<path class="st0" d="M467.1,151.1v-14.7h3.9c2,0,3.7,0.7,5.1,2.1c1.4,1.4,2.1,3.1,2.1,5.2c0,2.1-0.7,3.9-2.1,5.3s-3.2,2.1-5.2,2.1
		H467.1z M471.1,138.3h-2v10.8h2c1.4,0,2.6-0.5,3.6-1.6c1-1,1.5-2.3,1.5-3.8s-0.5-2.8-1.5-3.8C473.7,138.9,472.5,138.3,471.1,138.3z
		"/>
	<path class="st0" d="M483.4,151.1v-14.7h2.1v14.7H483.4z"/>
	<path class="st0" d="M500.6,144.7v-2h4.9v1c0,2.2-0.8,4-2.3,5.4c-1.5,1.4-3.3,2.1-5.3,2.1c-2.1,0-3.9-0.7-5.4-2.2
		c-1.4-1.5-2.1-3.3-2.1-5.4s0.7-4,2.1-5.4c1.4-1.5,3.2-2.2,5.4-2.2c1.1,0,2.1,0.2,3.1,0.6s1.8,1,2.5,1.7l-1.5,1.6
		c-1.1-1.3-2.5-1.9-4.1-1.9c-1.6,0-2.9,0.6-3.9,1.7c-1,1.1-1.6,2.4-1.6,4c0,1.6,0.5,2.9,1.6,4c1,1.1,2.3,1.7,3.9,1.7
		c1.4,0,2.5-0.4,3.5-1.3c1-0.9,1.6-2,1.9-3.4H500.6z"/>
</g>
</svg>
