<?xml version="1.0" encoding="utf-8"?>
<!-- Generator: Adobe Illustrator 19.1.1, SVG Export Plug-In . SVG Version: 6.00 Build 0)  -->
<svg version="1.1" id="Lager_1" xmlns="http://www.w3.org/2000/svg" xmlns:xlink="http://www.w3.org/1999/xlink" x="0px" y="0px"
	 viewBox="0 0 427.8 85" enable-background="new 0 0 427.8 85" xml:space="preserve">
<g>
	<path fill="#D5AD76" d="M363.7,7.9c-17.9,0-32.5,14.5-32.5,32.5c0,17.9,14.5,32.5,32.5,32.5c17.9,0,32.5-14.5,32.5-32.5
		C396.1,22.5,381.6,7.9,363.7,7.9z M369.2,44l3.4-3.8V13c11.5,3.8,19.9,14.6,19.9,27.4c0,1.2-0.1,2.4-0.2,3.6H369.2z M391.7,47
		c-2.3,9.8-9.6,17.7-19.1,20.8V47H391.7z M334.9,40.4c0-3.6,0.7-7.1,1.9-10.2h12.4v35.1C340.6,60.2,334.9,51,334.9,40.4z
		 M339.2,25.3c5.1-8.2,14.2-13.7,24.5-13.7c1.4,0,2.7,0.1,4,0.3v13.4H339.2z M367.7,26.8v42.1c-1.3,0.2-2.7,0.3-4,0.3
		c-4.1,0-8.1-0.9-11.6-2.5l0-36.6h12.6L367.7,26.8z"/>
	<g>
		<polygon fill="#D5AD76" points="31.7,29.7 57,29.7 57,34.1 46.7,34.1 46.7,61.3 42,61.3 42,34.1 31.7,34.1 		"/>
		<path fill="#D5AD76" d="M78.2,49.1c5.1-0.6,8.9-4.3,8.9-9.6c0-5.9-4.5-9.9-10.3-9.9H64.7v31.7h4.7V49.2h3.5L82,61.3h5.4L78.2,49.1
			z M69.4,45.3V33.8h6.7c3.6,0,6.1,2.5,6.1,5.7c0,3.5-2.6,5.8-6.2,5.8H69.4z"/>
		<rect x="96.3" y="29.7" fill="#D5AD76" width="4.7" height="31.7"/>
		<polygon fill="#D5AD76" points="125.3,61.3 137.7,29.7 132.7,29.7 123.2,54 113.8,29.7 108.8,29.7 121.2,61.3 		"/>
		<path fill="#D5AD76" d="M152.1,57.4c-3.1,0-6.2-1.8-8.1-4l-3.1,3.6c2.7,2.8,6.9,4.7,11,4.7c6.5,0,10.5-3.9,10.5-9.3
			c0-3.9-2-7.1-6.9-9.1l-3.8-1.5c-3-1.2-4-2.5-4-4.3c0-2.4,1.9-4,4.6-4c2.7,0,4.7,1,6.6,2.8l2.8-3.6c-2.4-2.3-5.3-3.6-9.3-3.6
			c-5.3,0-9.2,3.9-9.2,8.5c0,4.1,2.4,6.5,6.9,8.3l3.7,1.5c3,1.2,4.1,3.1,4.1,5.1C157.8,55.4,155.5,57.4,152.1,57.4z"/>
		<polygon fill="#D5AD76" points="189.6,33.9 189.6,29.7 171.5,29.7 171.5,61.3 189.9,61.3 189.9,57.1 176.2,57.1 176.2,47.4 
			189,47.4 189,43.2 176.2,43.2 176.2,33.9 		"/>
		<polygon fill="#D5AD76" points="200.8,29.7 200.8,61.3 218.2,61.3 218.2,56.9 205.5,56.9 205.5,29.7 		"/>
		<polygon fill="#D5AD76" points="245.7,43.1 230.3,43.1 230.3,29.7 225.6,29.7 225.6,61.3 230.3,61.3 230.3,47.6 245.7,47.6 
			245.7,61.3 250.4,61.3 250.4,29.7 245.7,29.7 		"/>
		<path fill="#D5AD76" d="M279.4,49.8c0,4.3-2.6,7.6-7.1,7.6c-4.5,0-7-3.4-7-7.7V29.7h-4.8v20.5c0,6.6,4.8,11.7,11.8,11.7
			c7,0,11.8-5,11.8-11.7V29.7h-4.7V49.8z"/>
		<path fill="#D5AD76" d="M305.5,43.4l-3.8-1.5c-3-1.2-4.1-2.5-4.1-4.3c0-2.4,1.9-4,4.6-4c2.7,0,4.7,1,6.5,2.8l2.8-3.6
			c-2.4-2.3-5.3-3.6-9.3-3.6c-5.3,0-9.2,3.9-9.2,8.5c0,4.1,2.4,6.5,6.9,8.3l3.7,1.5c3,1.2,4.1,3.1,4.1,5.1c0,2.7-2.2,4.7-5.6,4.7
			c-3.1,0-6.2-1.8-8.1-4l-3.1,3.6c2.7,2.8,6.9,4.7,11,4.7c6.5,0,10.5-3.9,10.5-9.3C312.4,48.5,310.4,45.3,305.5,43.4z"/>
	</g>
</g>
</svg>
