<svg id="Layer_1" data-name="Layer 1" xmlns="http://www.w3.org/2000/svg" viewBox="0 0 320 320"><defs><style>.cls-1{fill:#d4ac76;}</style></defs><title>text</title><path class="cls-1" d="M29.75,195.84a6.92,6.92,0,0,1-5.07,2,7,7,0,0,1-5.08-2,6.55,6.55,0,0,1-2-4.91V179h3.48v11.52a4.29,4.29,0,0,0,1,2.86,3.29,3.29,0,0,0,2.65,1.12,3.31,3.31,0,0,0,2.64-1.11,4.16,4.16,0,0,0,1-2.82V179h3.48v12A6.56,6.56,0,0,1,29.75,195.84Z"/><path class="cls-1" d="M38,197.51V179h6.66a6.32,6.32,0,0,1,6.45,6.41,5.86,5.86,0,0,1-1.89,4.46,6.44,6.44,0,0,1-4.62,1.78H41.45v5.9Zm6.36-15.22H41.45v6.22h2.93a3.29,3.29,0,0,0,2.33-.83,2.89,2.89,0,0,0,.89-2.22,3,3,0,0,0-.92-2.28A3.22,3.22,0,0,0,44.33,182.29Z"/><path class="cls-1" d="M56.19,197.51V179h6.66a6.32,6.32,0,0,1,6.44,6.41,5.88,5.88,0,0,1-1.88,4.46,6.46,6.46,0,0,1-4.62,1.78H59.67v5.9Zm6.36-15.22H59.67v6.22H62.6a3.26,3.26,0,0,0,2.32-.83,2.86,2.86,0,0,0,.89-2.22,3,3,0,0,0-.91-2.28A3.24,3.24,0,0,0,62.55,182.29Z"/><path class="cls-1" d="M74.4,197.51V179h3.48v15.21H84.7v3.34Z"/><path class="cls-1" d="M100.06,189.66H93.2v4.75h7.53v3.1h-11V179h10.8v3.09H93.2v4.52h6.86Z"/><path class="cls-1" d="M111.5,197.51,104.4,179H108l5.09,13.34,5-13.34h3.52l-7,18.55Z"/><path class="cls-1" d="M134.28,182.29V179h15.29v3.33h-5.9v15.22h-3.48V182.29Z"/><path class="cls-1" d="M154,197.51V179h7.26a6.27,6.27,0,0,1,4.47,1.68,5.78,5.78,0,0,1,1.78,4.4,5.54,5.54,0,0,1-1.33,3.76,6,6,0,0,1-3.46,2l5,6.73H163.8L159,190.89h-1.5v6.62Zm6.72-15.46h-3.24v6h3.24a3.42,3.42,0,0,0,2.41-.82,2.76,2.76,0,0,0,.9-2.14,2.9,2.9,0,0,0-.92-2.2A3.32,3.32,0,0,0,160.73,182.05Z"/><path class="cls-1" d="M173,197.51V179h3.48v18.55Z"/><path class="cls-1" d="M187.84,197.51,180.75,179h3.62l5.1,13.34,5-13.34H198l-7,18.55Z"/><path class="cls-1" d="M206.63,197.75a8.86,8.86,0,0,1-3.5-.73,9.2,9.2,0,0,1-3-2l2.2-2.64a6.78,6.78,0,0,0,2,1.65,5.13,5.13,0,0,0,2.44.65,3,3,0,0,0,2-.63,2,2,0,0,0,.77-1.6,2.76,2.76,0,0,0-2-2.58l-2.07-.83a8,8,0,0,1-3.09-2,5.07,5.07,0,0,1,.58-6.68,5.4,5.4,0,0,1,3.94-1.55,8,8,0,0,1,5.71,2.12l-2.05,2.59a4.79,4.79,0,0,0-3.66-1.61,2.51,2.51,0,0,0-1.67.53,1.66,1.66,0,0,0-.63,1.31,1.75,1.75,0,0,0,.49,1.27,5,5,0,0,0,1.6,1l2.16.86q4.13,1.65,4.2,5.36a5.21,5.21,0,0,1-1.74,4.06A6.78,6.78,0,0,1,206.63,197.75Z"/><path class="cls-1" d="M228.7,189.66h-6.87v4.75h7.54v3.1h-11V179h10.79v3.09h-7.32v4.52h6.87Z"/><path class="cls-1" d="M235,197.51V179h3.48v15.21h6.82v3.34Z"/><path class="cls-1" d="M261.75,197.51v-7.75H253.8v7.75h-3.48V179h3.48v7.46h7.95V179h3.48v18.55Z"/><path class="cls-1" d="M283.62,195.84a7.55,7.55,0,0,1-10.15,0,6.55,6.55,0,0,1-2-4.91V179H275v11.52a4.29,4.29,0,0,0,.95,2.86,3.69,3.69,0,0,0,5.29,0,4.16,4.16,0,0,0,1-2.82V179h3.48v12A6.56,6.56,0,0,1,283.62,195.84Z"/><path class="cls-1" d="M296.84,197.75a8.85,8.85,0,0,1-3.49-.73,9.24,9.24,0,0,1-3-2l2.21-2.64a6.62,6.62,0,0,0,2,1.65,5.17,5.17,0,0,0,2.45.65,3,3,0,0,0,2-.63,2,2,0,0,0,.78-1.6,2.76,2.76,0,0,0-2-2.58l-2.07-.83a7.9,7.9,0,0,1-3.08-2,4.71,4.71,0,0,1-1-3.16,4.82,4.82,0,0,1,1.58-3.52,5.38,5.38,0,0,1,3.93-1.55,8,8,0,0,1,5.71,2.12l-2.05,2.59a4.76,4.76,0,0,0-3.66-1.61,2.53,2.53,0,0,0-1.67.53,1.68,1.68,0,0,0-.62,1.31,1.71,1.71,0,0,0,.49,1.27,5,5,0,0,0,1.59,1l2.16.86q4.14,1.65,4.21,5.36a5.22,5.22,0,0,1-1.75,4.06A6.75,6.75,0,0,1,296.84,197.75Z"/><path class="cls-1" d="M9.88,224.51V206.73h7a6,6,0,0,1,4.28,1.62,5.52,5.52,0,0,1,1.71,4.21,5.39,5.39,0,0,1-1.27,3.61,5.81,5.81,0,0,1-3.32,1.89L23,224.51H19.26l-4.61-6.35H13.22v6.35Zm6.44-14.81h-3.1v5.79h3.1a3.26,3.26,0,0,0,2.31-.79,2.62,2.62,0,0,0,.86-2,2.81,2.81,0,0,0-.88-2.11A3.18,3.18,0,0,0,16.32,209.7Z"/><path class="cls-1" d="M37,206.73h3.59L34.7,217.29v7.22H31.36V217.4l-6-10.67h3.67l4,7.37Z"/><path class="cls-1" d="M44.73,224.51V206.73h3.21l5.5,8.76L59,206.73H62.5v17.78H59.17V212.34l-.27,0-5.51,8.52L48,212.42h.05v12.09Z"/><path class="cls-1" d="M68.65,224.51V206.73H72v14.58h6.53v3.2Z"/><path class="cls-1" d="M83.32,224.51V206.73h3.33v17.78Z"/><path class="cls-1" d="M103.86,217.08v-3h6.37l0,1.52a9.19,9.19,0,0,1-1.3,4.72,9,9,0,0,1-3.37,3.27,9.16,9.16,0,0,1-4.53,1.17,9.23,9.23,0,1,1,0-18.45,8.79,8.79,0,0,1,6.63,2.87l-2.28,2.25a5.76,5.76,0,0,0-4.37-1.92,5.67,5.67,0,0,0-4.26,1.74,6.29,6.29,0,0,0,0,8.56,5.39,5.39,0,0,0,4,1.75,6.28,6.28,0,0,0,4-1.24,5.61,5.61,0,0,0,2.09-3.27Z"/><path class="cls-1" d="M123.55,224.51v-2l6.8-9a3.18,3.18,0,0,0,1-2.06,2.24,2.24,0,0,0-.65-1.63,2.31,2.31,0,0,0-1.71-.66,2,2,0,0,0-1.68.8,3.32,3.32,0,0,0-.65,2.07h-3.08A5.45,5.45,0,0,1,125.1,208a5.18,5.18,0,0,1,3.89-1.61,5.42,5.42,0,0,1,3.84,1.41,4.48,4.48,0,0,1,1.5,3.41,6.81,6.81,0,0,1-2.05,4.33l-4.91,6.26h7v2.67Z"/><path class="cls-1" d="M138.93,217V214.3h7V217Z"/><path class="cls-1" d="M151.49,224.51V206.73h6.38a6,6,0,0,1,6.18,6.14,5.61,5.61,0,0,1-1.81,4.28,6.16,6.16,0,0,1-4.42,1.7h-3v5.66Zm6.1-14.58h-2.76v5.95h2.8a3.14,3.14,0,0,0,2.23-.79,2.77,2.77,0,0,0,.85-2.13,2.9,2.9,0,0,0-.87-2.18A3.07,3.07,0,0,0,157.59,209.93Z"/><path class="cls-1" d="M169,224.51V206.73h3.33v14.58h6.53v3.2Z"/><path class="cls-1" d="M181.9,224.51l6.85-17.78h3l6.84,17.78h-3.43l-.95-2.46h-7.95l-1,2.46Zm8.36-12.8-2.84,7.37h5.67Z"/><path class="cls-1" d="M202.76,224.51V206.73h2.33l8.75,11.18V206.73h3.34v17.78H215l-8.86-11.32v11.32Z"/><path class="cls-1" d="M228.09,224.74a8.46,8.46,0,0,1-3.35-.7,8.73,8.73,0,0,1-2.88-1.95l2.11-2.53a6.35,6.35,0,0,0,2,1.59,4.94,4.94,0,0,0,2.34.62,2.87,2.87,0,0,0,1.9-.61,1.92,1.92,0,0,0,.74-1.53,2.65,2.65,0,0,0-1.95-2.47l-2-.79a7.74,7.74,0,0,1-3-2,4.54,4.54,0,0,1-1-3,4.62,4.62,0,0,1,1.5-3.37,5.18,5.18,0,0,1,3.77-1.49,7.69,7.69,0,0,1,5.48,2l-2,2.48a4.62,4.62,0,0,0-3.52-1.54,2.37,2.37,0,0,0-1.59.51,1.59,1.59,0,0,0-.6,1.26,1.61,1.61,0,0,0,.47,1.21,4.58,4.58,0,0,0,1.52.92l2.08.83q3.94,1.59,4,5.13a4.94,4.94,0,0,1-1.67,3.89A6.47,6.47,0,0,1,228.09,224.74Z"/><path class="cls-1" d="M244,224.51l-6.8-17.78h3.48l4.88,12.78,4.82-12.78h3.38l-6.74,17.78Z"/><path class="cls-1" d="M258,224.51V206.73h3.33v17.78Z"/><path class="cls-1" d="M267.66,224.51V206.73H271v14.58h6.53v3.2Z"/><path class="cls-1" d="M282.34,224.51V206.73h3.33v14.58h6.53v3.2Z"/><path class="cls-1" d="M295.28,224.51l6.86-17.78h3L312,224.51h-3.42l-.95-2.46h-7.95l-1,2.46Zm8.37-12.8-2.85,7.37h5.68Z"/></svg>