<svg id="Layer_1" data-name="Layer 1" xmlns="http://www.w3.org/2000/svg" viewBox="0 0 320 320"><defs><style>.cls-1{fill:#d4ac76;}</style></defs><title>text</title><path class="cls-1" d="M95.25,252.75a4.17,4.17,0,0,1-3.07-1.26,4.58,4.58,0,0,1,0-6.31,4.33,4.33,0,0,1,6.12,0,4.53,4.53,0,0,1,0,6.29A4.17,4.17,0,0,1,95.25,252.75ZM93,250.66a3.08,3.08,0,0,0,4.45,0,3.39,3.39,0,0,0,0-4.64A3.06,3.06,0,0,0,93,246a3.41,3.41,0,0,0,0,4.64Z"/><path class="cls-1" d="M102.55,252.59v-8.5h2.28a4.23,4.23,0,0,1,4.22,4.23,4.18,4.18,0,0,1-4.26,4.27Zm2.33-7.37h-1.14v6.24h1.17a2.79,2.79,0,0,0,2.1-.91,3.18,3.18,0,0,0,.85-2.23,3,3,0,0,0-.88-2.2A2.81,2.81,0,0,0,104.88,245.22Z"/><path class="cls-1" d="M116.66,248.86h-3.5v2.6h3.74v1.13H112v-8.5h4.86v1.13h-3.67v2.51h3.5Z"/><path class="cls-1" d="M119.85,252.59v-8.5h.83l4.6,5.86v-5.86h1.19v8.5h-.66L121,246.52v6.07Z"/><path class="cls-1" d="M132.09,252.7a4,4,0,0,1-1.59-.34,4.24,4.24,0,0,1-1.34-.91l.83-1a3.45,3.45,0,0,0,1,.78,2.63,2.63,0,0,0,1.18.31,1.64,1.64,0,0,0,1.1-.36,1.16,1.16,0,0,0,.42-.91,1.48,1.48,0,0,0-1.07-1.39l-1-.4a3.51,3.51,0,0,1-1.4-.91,2,2,0,0,1-.45-1.35,2.15,2.15,0,0,1,.7-1.61,2.43,2.43,0,0,1,1.73-.66,3.43,3.43,0,0,1,2.47.94l-.71,1a2.37,2.37,0,0,0-1.76-.77,1.34,1.34,0,0,0-.9.3,1,1,0,0,0-.34.79.91.91,0,0,0,.25.65,2.45,2.45,0,0,0,.86.53l1,.41a2.42,2.42,0,0,1,1.79,2.43,2.34,2.34,0,0,1-.75,1.79A2.86,2.86,0,0,1,132.09,252.7Z"/><path class="cls-1" d="M140,252.59l-3.31-8.5H138l2.55,6.53,2.55-6.53h1.31l-3.32,8.5Z"/><path class="cls-1" d="M145.13,252.59l3.41-8.5h1.07l3.35,8.5h-1.31l-.52-1.31H147l-.53,1.31Zm3.07-9.4a.58.58,0,0,1-.43.18.56.56,0,0,1-.42-.18.7.7,0,0,1-.17-.47.69.69,0,0,1,.17-.46.56.56,0,0,1,.42-.18.58.58,0,0,1,.43.18.69.69,0,0,1,.17.46A.7.7,0,0,1,148.2,243.19Zm.87,2.85-1.65,4.11h3.27Zm1.48-2.85a.58.58,0,0,1-.84,0,.65.65,0,0,1-.17-.47.64.64,0,0,1,.17-.46.58.58,0,0,1,.84,0,.64.64,0,0,1,.17.46A.65.65,0,0,1,150.55,243.19Z"/><path class="cls-1" d="M160.47,248.89v-1.13h2.83v.6a4.37,4.37,0,0,1-4.4,4.37,4.13,4.13,0,0,1-3.1-1.27,4.57,4.57,0,0,1,0-6.28,4.17,4.17,0,0,1,3.1-1.27,4.46,4.46,0,0,1,1.78.36,4.22,4.22,0,0,1,1.46,1l-.88.9a3.09,3.09,0,0,0-4.62-.14,3.43,3.43,0,0,0,0,4.63,3,3,0,0,0,2.26,1,3.07,3.07,0,0,0,2-.74,3.25,3.25,0,0,0,1.07-2Z"/><path class="cls-1" d="M170.91,248.86h-3.5v2.6h3.74v1.13h-4.93v-8.5h4.87v1.13h-3.68v2.51h3.5Z"/><path class="cls-1" d="M174.1,252.59v-8.5h.83l4.6,5.86v-5.86h1.19v8.5h-.66l-4.77-6.07v6.07Z"/><path class="cls-1" d="M191.08,252.72a2.91,2.91,0,0,1-1.72-.52,2.64,2.64,0,0,1-1-1.38l1.08-.42a1.63,1.63,0,0,0,.61.85,1.78,1.78,0,0,0,2.27-.15,1.64,1.64,0,0,0,.48-1.2,1.61,1.61,0,0,0-.5-1.2,1.66,1.66,0,0,0-1.2-.48,1.63,1.63,0,0,0-1.21.52H188.7v-4.65h4.76v1.13h-3.58v2.29a2.24,2.24,0,0,1,1.21-.34,2.86,2.86,0,0,1,2.09.78,2.61,2.61,0,0,1,.8,2,2.7,2.7,0,0,1-.84,2A2.8,2.8,0,0,1,191.08,252.72Z"/><path class="cls-1" d="M195.41,254.15l1-2.72,1.09.38-1.34,2.62Z"/><path class="cls-1" d="M204,245.22v-1.13h6.89v1.13h-2.85v7.37h-1.19v-7.37Z"/><path class="cls-1" d="M211.48,252.59l3.41-8.5H216l3.35,8.5H218l-.51-1.31h-4.17l-.53,1.31Zm3.07-9.4a.58.58,0,0,1-.43.18.58.58,0,0,1-.42-.18.7.7,0,0,1-.17-.47.69.69,0,0,1,.17-.46.58.58,0,0,1,.42-.18.58.58,0,0,1,.43.18.69.69,0,0,1,.17.46A.7.7,0,0,1,214.55,243.19Zm.88,2.85-1.66,4.11H217Zm1.47-2.85a.58.58,0,0,1-.84,0,.65.65,0,0,1-.17-.47.64.64,0,0,1,.17-.46.58.58,0,0,1,.84,0,.64.64,0,0,1,.17.46A.65.65,0,0,1,216.9,243.19Z"/><path class="cls-1" d="M221.67,252.59v-8.5h2.61a2.72,2.72,0,0,1,1.87.66,2.18,2.18,0,0,1,.74,1.71,2,2,0,0,1-1,1.83,2.18,2.18,0,0,1,.91.76,2,2,0,0,1,.34,1.15,2.23,2.23,0,0,1-.74,1.74,2.81,2.81,0,0,1-1.9.65Zm2.48-7.37h-1.29v2.59h1.51a1.3,1.3,0,0,0,.95-.38,1.33,1.33,0,0,0,.38-1,1.09,1.09,0,0,0-.42-.89A1.75,1.75,0,0,0,224.15,245.22Zm.27,3.64h-1.56v2.6h1.48a1.78,1.78,0,0,0,1.17-.36,1.22,1.22,0,0,0,.43-1,1.18,1.18,0,0,0-.39-.91A1.66,1.66,0,0,0,224.42,248.86Z"/><path class="cls-1" d="M234.15,244.09h1.37l-2.82,5.08v3.42h-1.19v-3.38l-2.86-5.12h1.42l2.06,3.77Z"/><path class="cls-1" d="M67.4,265.7a4,4,0,0,1-1.59-.34,4.24,4.24,0,0,1-1.34-.91l.83-1a3.31,3.31,0,0,0,1,.78,2.6,2.6,0,0,0,1.18.31,1.66,1.66,0,0,0,1.1-.36,1.16,1.16,0,0,0,.42-.91,1.48,1.48,0,0,0-1.07-1.39l-1-.4a3.54,3.54,0,0,1-1.39-.91,2,2,0,0,1-.45-1.35,2.15,2.15,0,0,1,.7-1.61,2.41,2.41,0,0,1,1.73-.66,3.44,3.44,0,0,1,2.47.94l-.71,1a2.37,2.37,0,0,0-1.76-.77,1.32,1.32,0,0,0-.9.3,1,1,0,0,0-.35.79.92.92,0,0,0,.26.65,2.45,2.45,0,0,0,.86.53l1,.41a2.42,2.42,0,0,1,1.79,2.43,2.34,2.34,0,0,1-.75,1.79A2.86,2.86,0,0,1,67.4,265.7Z"/><path class="cls-1" d="M77,265.75a4.17,4.17,0,0,1-3.06-1.26,4.58,4.58,0,0,1,0-6.31,4.33,4.33,0,0,1,6.12,0,4.53,4.53,0,0,1,0,6.29A4.18,4.18,0,0,1,77,265.75Zm-2.22-2.09a3.08,3.08,0,0,0,4.45,0,3.39,3.39,0,0,0,0-4.64,3,3,0,0,0-2.23-1,3,3,0,0,0-2.22,1,3.39,3.39,0,0,0,0,4.64Zm1.43-7.47a.58.58,0,0,1-.43.18.54.54,0,0,1-.41-.18.65.65,0,0,1-.17-.47.64.64,0,0,1,.17-.46.54.54,0,0,1,.41-.18.58.58,0,0,1,.43.18.64.64,0,0,1,.17.46A.65.65,0,0,1,76.18,256.19Zm2.36,0a.58.58,0,0,1-.43.18.56.56,0,0,1-.42-.18.7.7,0,0,1-.17-.47.69.69,0,0,1,.17-.46.56.56,0,0,1,.42-.18.58.58,0,0,1,.43.18.69.69,0,0,1,.17.46A.7.7,0,0,1,78.54,256.19Z"/><path class="cls-1" d="M84.28,265.59v-8.5h.83L89.72,263v-5.86h1.19v8.5h-.66l-4.78-6.07v6.07Z"/><path class="cls-1" d="M94.46,265.59v-8.5h2.28a4.28,4.28,0,0,1,3,7.29,4.13,4.13,0,0,1-3,1.21Zm2.32-7.37H95.65v6.24h1.17a2.77,2.77,0,0,0,2.09-.91,3.14,3.14,0,0,0,.85-2.23,3,3,0,0,0-.88-2.2A2.81,2.81,0,0,0,96.78,258.22Z"/><path class="cls-1" d="M102.63,265.59l3.42-8.5h1.07l3.35,8.5h-1.31l-.52-1.31h-4.17l-.52,1.31Zm4-6.55-1.65,4.11h3.27Z"/><path class="cls-1" d="M118,261.89v-1.13h2.82v.6a4.37,4.37,0,0,1-4.4,4.37,4.16,4.16,0,0,1-3.1-1.27,4.6,4.6,0,0,1,0-6.28,4.2,4.2,0,0,1,3.1-1.27,4.47,4.47,0,0,1,1.79.36,4.32,4.32,0,0,1,1.46,1l-.88.9A3,3,0,0,0,116.4,258a3,3,0,0,0-2.25,1,3.43,3.43,0,0,0,0,4.63,3,3,0,0,0,2.25,1,3,3,0,0,0,2-.74,3.22,3.22,0,0,0,1.08-2Z"/><path class="cls-1" d="M127.73,265.59v-.75l3.4-4.48a1.72,1.72,0,0,0,.48-1.08,1.24,1.24,0,0,0-.38-.91,1.31,1.31,0,0,0-.95-.37,1.23,1.23,0,0,0-.94.41,1.73,1.73,0,0,0-.39,1.08h-1.18a2.52,2.52,0,0,1,.7-1.81,2.4,2.4,0,0,1,1.81-.73,2.57,2.57,0,0,1,1.81.66,2.19,2.19,0,0,1,.7,1.67,3,3,0,0,1-.89,1.88l-2.65,3.38h3.65v1Z"/><path class="cls-1" d="M138.32,265.71a2.72,2.72,0,0,1-2.78-2.78v-3.22a2.64,2.64,0,0,1,.81-2,2.68,2.68,0,0,1,2-.79,2.75,2.75,0,0,1,2,.78,2.66,2.66,0,0,1,.8,1.95v3.26a2.66,2.66,0,0,1-.81,2A2.69,2.69,0,0,1,138.32,265.71Zm-1.14-1.59a1.64,1.64,0,0,0,2.28,0,1.6,1.6,0,0,0,.45-1.17V259.7a1.58,1.58,0,0,0-.45-1.16,1.64,1.64,0,0,0-2.28,0,1.61,1.61,0,0,0-.45,1.17V263A1.6,1.6,0,0,0,137.18,264.12Z"/><path class="cls-1" d="M150.45,265.72a2.91,2.91,0,0,1-1.69-.5,2.68,2.68,0,0,1-1-1.37l1.1-.55a1.87,1.87,0,0,0,.6.94,1.56,1.56,0,0,0,1,.35,1.46,1.46,0,0,0,1.15-.48,1.94,1.94,0,0,0,.42-1.32v-5.7h1.19v5.67a3,3,0,0,1-.77,2.19A2.67,2.67,0,0,1,150.45,265.72Z"/><path class="cls-1" d="M155.3,265.59l3.41-8.5h1.08l3.35,8.5h-1.32l-.51-1.31h-4.17l-.53,1.31Zm3.95-6.55-1.65,4.11h3.26Z"/><path class="cls-1" d="M165.5,265.59v-8.5h.83l4.6,5.86v-5.86h1.19v8.5h-.66l-4.78-6.07v6.07Z"/><path class="cls-1" d="M178.56,265.73a3,3,0,0,1-2.22-.89,3.07,3.07,0,0,1-.87-2.24v-5.51h1.19v5.44a2.16,2.16,0,0,0,.51,1.48,1.72,1.72,0,0,0,1.39.59A1.8,1.8,0,0,0,180,264a2.15,2.15,0,0,0,.51-1.48v-5.45h1.19v5.51a3.07,3.07,0,0,1-.87,2.24A3,3,0,0,1,178.56,265.73Z"/><path class="cls-1" d="M183.72,265.59l3.42-8.5h1.07l3.35,8.5h-1.31l-.52-1.31h-4.17l-.52,1.31Zm3.95-6.55L186,263.15h3.27Z"/><path class="cls-1" d="M193.92,265.59v-8.5h3.16a2.66,2.66,0,0,1,1.91.74,2.55,2.55,0,0,1,.77,1.92,2.52,2.52,0,0,1-.64,1.77,2.47,2.47,0,0,1-1.62.84l2.46,3.23H198.5l-2.45-3.24h-.94v3.24Zm3-7.37h-1.81v3.07h1.8a1.72,1.72,0,0,0,1.2-.42,1.55,1.55,0,0,0,0-2.21A1.66,1.66,0,0,0,196.92,258.22Z"/><path class="cls-1" d="M202.74,265.59v-8.5h1.19v8.5Z"/><path class="cls-1" d="M212,265.59v-8.5h1.19v4l3.54-4h1.6l-3,3.37,3.08,5.13h-1.48l-2.47-4.15-1.27,1.43v2.72Z"/><path class="cls-1" d="M221,265.59v-8.5h1.19v7.37h3.5v1.13Z"/><path class="cls-1" d="M233.86,265.59v-7l-1.59.81v-1.13l2.25-1.25h.53v8.55Z"/><path class="cls-1" d="M240.31,265.72a2.61,2.61,0,0,1-1.85-.72,2.34,2.34,0,0,1-.79-1.73h1.19a1.2,1.2,0,0,0,.44.93,1.51,1.51,0,0,0,2,0,1.35,1.35,0,0,0,.42-1,1.42,1.42,0,0,0-.42-1.05,1.41,1.41,0,0,0-1-.41h-.49v-1.06h.48a1.34,1.34,0,0,0,1-.39,1.34,1.34,0,0,0,0-1.89,1.4,1.4,0,0,0-1-.38,1.33,1.33,0,0,0-1,.39,1.27,1.27,0,0,0-.4.95h-1.19a2.24,2.24,0,0,1,.74-1.7,2.61,2.61,0,0,1,1.83-.7,2.54,2.54,0,0,1,1.84.7,2.21,2.21,0,0,1,.73,1.7,1.93,1.93,0,0,1-.36,1.14,2,2,0,0,1-.94.72,2,2,0,0,1,1,.76,2.13,2.13,0,0,1,.37,1.23,2.41,2.41,0,0,1-.78,1.8A2.63,2.63,0,0,1,240.31,265.72Z"/><path class="cls-1" d="M245.35,261.88v-1.05h3.32v1.05Z"/><path class="cls-1" d="M251.89,265.59v-7l-1.6.81v-1.13l2.26-1.25h.53v8.55Z"/><path class="cls-1" d="M258.81,265.72A2.56,2.56,0,0,1,257,265a2.39,2.39,0,0,1-.76-1.79v-3.59a2.53,2.53,0,0,1,.76-1.91,2.79,2.79,0,0,1,3.68-.07,2.22,2.22,0,0,1,.73,1.74h-1.19a1.29,1.29,0,0,0-.38-1,1.44,1.44,0,0,0-2,.05,1.53,1.53,0,0,0-.41,1.1v1.81a1.87,1.87,0,0,1,1.47-.68,2.62,2.62,0,0,1,1.86.73,2.5,2.5,0,0,1,0,3.59A2.6,2.6,0,0,1,258.81,265.72Zm0-1.05a1.38,1.38,0,0,0,1-.44,1.44,1.44,0,0,0,.43-1.05,1.38,1.38,0,0,0-.43-1,1.37,1.37,0,0,0-1-.43,1.42,1.42,0,0,0-1.41,1.46,1.51,1.51,0,0,0,.41,1.05A1.34,1.34,0,0,0,258.81,264.67Z"/></svg>