<svg id="Layer_1" data-name="Layer 1" xmlns="http://www.w3.org/2000/svg" viewBox="0 0 320 320"><defs><style>.cls-1{fill:#d80201;}</style></defs><title>text</title><path class="cls-1" d="M43.56,184c-2,2.17-5.18,1.83-7.87,1.83v7.66h-4V172.82h6c2,0,3.85.15,5.46,1.58a6.61,6.61,0,0,1,2.11,5A6.77,6.77,0,0,1,43.56,184ZM40,177a4.84,4.84,0,0,0-3-.65H35.69v6h1.64c2,0,3.75-.65,3.75-3A3.08,3.08,0,0,0,40,177Z"/><path class="cls-1" d="M56.43,183.49a3.26,3.26,0,0,0-1.8-.47c-2.55,0-3.23,1.8-3.23,4v6.45H47.65V180.08H51.4v2a4.32,4.32,0,0,1,3.91-2.45A4.23,4.23,0,0,1,57,180Z"/><path class="cls-1" d="M61.94,187.39C62,189.47,63,191,65.23,191a3.5,3.5,0,0,0,3.19-1.8l3.48.56c-1.18,2.88-3.57,4.18-6.61,4.18-4.34,0-7.19-2.79-7.19-7.16s2.73-7.13,7-7.13,6.85,3,6.85,7.26v.49Zm3.26-5.08A3,3,0,0,0,62.07,185h6.35A3.1,3.1,0,0,0,65.2,182.31Z"/><path class="cls-1" d="M92,193.5v-7.35c0-1.58-.24-3.32-2.23-3.32-2.2,0-2.57,2-2.57,3.79v6.88H83.46v-7.13a6,6,0,0,0-.28-2.23,2.18,2.18,0,0,0-2-1.31A2.48,2.48,0,0,0,79.05,184a5.65,5.65,0,0,0-.43,2.58v6.88H74.87V180.08h3.75v1.51a5.16,5.16,0,0,1,4.09-2,4.56,4.56,0,0,1,4.19,2.45,5,5,0,0,1,4.4-2.45,4.4,4.4,0,0,1,3.75,1.92,5.93,5.93,0,0,1,.72,3.26v8.68Z"/><path class="cls-1" d="M101.19,176.66a2.26,2.26,0,1,1,0-4.52,2.26,2.26,0,0,1,0,4.52ZM99.3,193.5V180.08h3.75V193.5Z"/><path class="cls-1" d="M116.84,193.5v-1.77a5.17,5.17,0,0,1-4.37,2.2c-4,0-6.6-3.34-6.6-7.19s2.57-7.1,6.51-7.1a5.57,5.57,0,0,1,4.46,2.14v-1.7h3.79V193.5Zm-6.48-15.94a2.23,2.23,0,0,1,0-4.46,2.23,2.23,0,1,1,0,4.46ZM113.5,183a3.77,3.77,0,1,0,3.75,3.75A3.75,3.75,0,0,0,113.5,183Zm3.31-5.46a2.26,2.26,0,0,1-2.23-2.23,2.23,2.23,0,1,1,2.23,2.23Z"/><path class="cls-1" d="M133,183.49a3.23,3.23,0,0,0-1.79-.47c-2.55,0-3.23,1.8-3.23,4v6.45h-3.75V180.08H128v2a4.32,4.32,0,0,1,3.91-2.45,4.23,4.23,0,0,1,1.64.31Z"/><path class="cls-1" d="M150,193.78h-1.74l-6.85-13.7h4.22l3.53,7.56,3.54-7.56h4.22Z"/><path class="cls-1" d="M160.52,176.66a2.26,2.26,0,0,1,0-4.52,2.26,2.26,0,0,1,0,4.52Zm-1.89,16.84V180.08h3.75V193.5Z"/><path class="cls-1" d="M170.19,193.93a7.11,7.11,0,0,1-5.11-2.23l2-2.29a4.36,4.36,0,0,0,3.16,1.58,1.59,1.59,0,0,0,1.71-1.49c0-2.29-6-1.15-6-5.67,0-2.73,2.27-4.25,4.81-4.25a6.92,6.92,0,0,1,4.37,1.42l-1.86,2.21a3.7,3.7,0,0,0-2.23-.9c-.65,0-1.43.4-1.43,1.15,0,1.95,6.2,1.08,6.2,5.67C175.8,192.26,173.08,193.93,170.19,193.93Z"/><path class="cls-1" d="M187.65,193.5v-7.44c0-1.83-.41-3.23-2.55-3.23-2.32,0-2.88,1.71-2.88,3.73v6.94h-3.75V180.08h3.75v1.64a4.94,4.94,0,0,1,4.22-2.08,4.64,4.64,0,0,1,5,5.33v8.53Z"/><path class="cls-1" d="M196.82,176.66a2.26,2.26,0,0,1,0-4.52,2.26,2.26,0,0,1,0,4.52Zm-1.89,16.84V180.08h3.75V193.5Z"/><path class="cls-1" d="M211.39,193.5v-7.44c0-1.83-.4-3.23-2.54-3.23-2.33,0-2.88,1.71-2.88,3.73v6.94h-3.76V180.08H206v1.64a4.94,4.94,0,0,1,4.21-2.08,4.63,4.63,0,0,1,5,5.33v8.53Z"/><path class="cls-1" d="M231.2,198.37a7.32,7.32,0,0,1-5.7,2.35c-3.45,0-6.76-2-7.14-5.64h4.07a3,3,0,0,0,3.19,2.45c2.36,0,3.32-1.64,3.32-3.81v-2a5.58,5.58,0,0,1-4.53,2.23c-4,0-6.39-3.19-6.39-7s2.48-7.32,6.58-7.32a5,5,0,0,1,4.34,2.17v-1.73h3.78V193C232.72,195.11,232.63,196.69,231.2,198.37ZM225.65,183a3.77,3.77,0,1,0,3.75,3.75A3.74,3.74,0,0,0,225.65,183Z"/><path class="cls-1" d="M240.59,193.93a7.11,7.11,0,0,1-5.11-2.23l2-2.29a4.36,4.36,0,0,0,3.16,1.58,1.59,1.59,0,0,0,1.71-1.49c0-2.29-6-1.15-6-5.67,0-2.73,2.27-4.25,4.81-4.25a6.92,6.92,0,0,1,4.37,1.42l-1.86,2.21a3.7,3.7,0,0,0-2.23-.9c-.65,0-1.43.4-1.43,1.15,0,1.95,6.2,1.08,6.2,5.67C246.2,192.26,243.48,193.93,240.59,193.93Z"/><path class="cls-1" d="M258.05,193.5v-7.35c0-1.86-.41-3.32-2.58-3.32-2.32,0-2.85,1.8-2.85,3.79v6.88h-3.75V170.28h3.75v11.53a4.89,4.89,0,0,1,4.22-2.17,5.15,5.15,0,0,1,3.9,1.64,5.35,5.35,0,0,1,1.06,3.79v8.43Z"/><path class="cls-1" d="M271.87,193.93c-3.69,0-6.48-1.64-6.48-5.64v-8.21h3.75v7.59c0,1.83.78,3.07,2.73,3.07s2.73-1.24,2.73-3.07v-7.59h3.78v8.21C278.38,192.29,275.56,193.93,271.87,193.93Z"/><path class="cls-1" d="M286.25,193.93a7.11,7.11,0,0,1-5.11-2.23l2-2.29a4.36,4.36,0,0,0,3.17,1.58,1.58,1.58,0,0,0,1.7-1.49c0-2.29-6-1.15-6-5.67,0-2.73,2.26-4.25,4.8-4.25a6.92,6.92,0,0,1,4.37,1.42l-1.86,2.21a3.7,3.7,0,0,0-2.23-.9c-.65,0-1.42.4-1.42,1.15,0,1.95,6.2,1.08,6.2,5.67C291.87,192.26,289.14,193.93,286.25,193.93Z"/><path class="cls-1" d="M44,226.5H37V205.82h5.11c1.68,0,3.72.15,5.06,1.24a5.53,5.53,0,0,1,1.86,4.25,4.32,4.32,0,0,1-2.27,4.15,4.74,4.74,0,0,1,2.7,1.3A5.61,5.61,0,0,1,51,220.64C51,224.76,47.68,226.5,44,226.5Zm-1.73-17.39H41.05v5.33H42.2c1.79,0,3.13-.71,3.13-2.67S44,209.11,42.23,209.11Zm.68,8.4H41.05v5.74h1.74c2,0,4-.47,4-2.89S44.83,217.51,42.91,217.51Z"/><path class="cls-1" d="M57.23,220.39c.06,2.08,1.05,3.6,3.29,3.6a3.51,3.51,0,0,0,3.19-1.8l3.47.56a6.58,6.58,0,0,1-6.6,4.18c-4.34,0-7.19-2.79-7.19-7.16s2.72-7.13,7-7.13,6.86,3,6.86,7.26v.49Zm3.26-5.08A3,3,0,0,0,57.35,218h6.36A3.11,3.11,0,0,0,60.49,215.31Z"/><path class="cls-1" d="M74.43,226.93a7.11,7.11,0,0,1-5.11-2.23l2-2.29A4.36,4.36,0,0,0,74.47,224a1.58,1.58,0,0,0,1.7-1.49c0-2.29-6-1.15-6-5.67,0-2.73,2.26-4.25,4.8-4.25A7,7,0,0,1,79.37,214l-1.87,2.21a3.7,3.7,0,0,0-2.23-.9c-.65,0-1.42.4-1.42,1.15,0,1.95,6.2,1.08,6.2,5.67C80.05,225.26,77.32,226.93,74.43,226.93Z"/><path class="cls-1" d="M89.69,226.93c-4.28,0-7.69-2.66-7.69-7.13s3.41-7.16,7.72-7.16,7.63,2.7,7.63,7.13S93.93,226.93,89.69,226.93Zm-3.26-16.37a2.23,2.23,0,0,1,0-4.46,2.23,2.23,0,0,1,0,4.46ZM89.66,216a3.77,3.77,0,1,0,3.81,3.78A3.8,3.8,0,0,0,89.66,216Zm3.22-5.46a2.26,2.26,0,0,1-2.23-2.23,2.23,2.23,0,1,1,2.23,2.23Z"/><path class="cls-1" d="M109.43,226.5l-5.05-5.77-.4.41v5.36h-3.75V203.28H104V218l5-4.89h5.08L107.79,219l6.79,7.53Z"/><path class="cls-1" d="M143.75,226.5l-1.83-12.74-5.7,13H135.1l-5.49-13-2.07,12.74h-4.06l3.84-21.05h2.76L135.72,219l5.89-13.52h2.76l3.44,21.05Z"/><path class="cls-1" d="M161.48,227a10.73,10.73,0,0,1-11-10.76,11.05,11.05,0,1,1,11,10.76Zm0-17.93a7.14,7.14,0,1,0,6.92,7.1A7,7,0,0,0,161.48,209Z"/><path class="cls-1" d="M184,227h-2.14L173,205.82h4.41l5.52,13.89,5.58-13.89h4.37Z"/><path class="cls-1" d="M195.33,226.5V205.82h11.44v3.5h-7.41v4.59h7.14v3.51h-7.14V223h7.41v3.5Z"/><path class="cls-1" d="M234.18,214.56h-3.13l-.44,2.79h3.17l-.53,3.38h-3.16l-.93,5.77h-3.88l.93-5.77h-2.85l-.9,5.77h-3.85l.93-5.77h-3.19l.53-3.38h3.19l.44-2.79h-3.17l.53-3.41H221l.84-5.33h3.84l-.86,5.33h2.85l.84-5.33h3.87l-.83,5.33h3.13Zm-9.86,0-.43,2.79h2.85l.43-2.79Z"/><path class="cls-1" d="M242.83,227c-3.85,0-7.23-2.48-7.45-6.48h4.07a3.37,3.37,0,0,0,6.72-.34,3.2,3.2,0,0,0-3.22-3.29,6,6,0,0,0-.74.06v-2.91a3.38,3.38,0,0,0,.55,0,2.81,2.81,0,1,0,.1-5.61c-1.77,0-2.61,1.08-2.82,2.72h-3.82c.59-3.9,3-5.92,6.92-5.92,3.44,0,6.29,2.05,6.29,5.71a4.61,4.61,0,0,1-2.39,4.4,5.1,5.1,0,0,1,3.17,5.09C250.21,224.7,246.76,227,242.83,227Z"/><path class="cls-1" d="M261,227c-5.7,0-8-6-8-10.85s2.27-10.89,8-10.89,8,6,8,10.85S266.73,227,261,227Zm0-18.17c-3.16,0-4,4.9-4,7.28s.81,7.35,4,7.35,4-5,4-7.35S264.15,208.86,261,208.86Z"/><path class="cls-1" d="M274.57,227.09l-3.23-1.92,9.46-15.82h-9.58v-3.53h15.94Z"/></svg>