<svg id="Layer_1" data-name="Layer 1" xmlns="http://www.w3.org/2000/svg" viewBox="0 0 320 320"><defs><style>.cls-1{fill:#d80201;}</style></defs><title>text</title><path class="cls-1" d="M91.39,132.11v5.18H98.7v4H91.39V151.5H86.84V128.15H99.19v4Z"/><path class="cls-1" d="M112.42,140.19a3.78,3.78,0,0,0-2-.52c-2.87,0-3.64,2-3.64,4.55v7.28h-4.23V136.34h4.23v2.28a4.86,4.86,0,0,1,4.41-2.77,5,5,0,0,1,1.86.35Z"/><path class="cls-1" d="M117.18,132.49a2.56,2.56,0,1,1,2.52-2.55A2.54,2.54,0,0,1,117.18,132.49Zm-2.13,19V136.34h4.23V151.5Z"/><path class="cls-1" d="M134.86,151.5v-2a5.86,5.86,0,0,1-4.94,2.49c-4.55,0-7.45-3.78-7.45-8.12s2.9-8,7.35-8a6.31,6.31,0,0,1,5,2.42v-1.93h4.27V151.5Zm-3.78-11.83a4.25,4.25,0,1,0,4.23,4.23A4.23,4.23,0,0,0,131.08,139.67Z"/><path class="cls-1" d="M156.21,140V151.5H152V140h-1.68v-3.64H152v-5.18h4.24v5.18h3V140Z"/><path class="cls-1" d="M163.45,132.49a2.56,2.56,0,1,1,0-5.11,2.56,2.56,0,0,1,0,5.11Zm-2.13,19V136.34h4.23V151.5Z"/><path class="cls-1" d="M169.54,151.5V125.28h4.24V151.5Z"/><path class="cls-1" d="M177.83,151.5V125.28h4.24V151.5Z"/><path class="cls-1" d="M193.83,151.81h-2l-7.74-15.47h4.76l4,8.54,4-8.54h4.76Z"/><path class="cls-1" d="M214.52,151.5v-2a5.86,5.86,0,0,1-4.94,2.49c-4.55,0-7.45-3.78-7.45-8.12s2.9-8,7.35-8a6.31,6.31,0,0,1,5,2.42v-1.93h4.27V151.5Zm-3.78-11.83A4.25,4.25,0,1,0,215,143.9,4.23,4.23,0,0,0,210.74,139.67Z"/><path class="cls-1" d="M222.84,151.5V125.28h4.24V151.5Z"/><path class="cls-1" d="M35.2,189.09a10,10,0,0,1-7.46-3l1.51-3.92a7.82,7.82,0,0,0,5.88,3,4.62,4.62,0,0,0,4.65-4.51c0-2.87-2.66-4.66-5.32-4.66A7.74,7.74,0,0,0,30,177.4h-.24l2.76-12.25H43.28v4h-7.7l-.91,3.61a14.24,14.24,0,0,1,1.72-.14,7.84,7.84,0,0,1,7.94,8.15C44.33,186.05,40.2,189.09,35.2,189.09Z"/><path class="cls-1" d="M56.58,189.09c-6.44,0-9-6.79-9-12.25s2.56-12.28,9-12.28,9,6.75,9,12.25S63.06,189.09,56.58,189.09Zm0-20.51c-3.57,0-4.48,5.53-4.48,8.23s.91,8.29,4.48,8.29,4.48-5.6,4.48-8.29S60.15,168.58,56.58,168.58Z"/><path class="cls-1" d="M85.18,189.09c-6.45,0-9-6.79-9-12.25s2.56-12.28,9-12.28,9,6.75,9,12.25S91.65,189.09,85.18,189.09Zm0-20.51c-3.58,0-4.48,5.53-4.48,8.23s.9,8.29,4.48,8.29,4.48-5.6,4.48-8.29S88.75,168.58,85.18,168.58Z"/><path class="cls-1" d="M105,189.09c-6.44,0-9-6.79-9-12.25s2.55-12.28,9-12.28,9,6.75,9,12.25S111.5,189.09,105,189.09Zm0-20.51c-3.57,0-4.48,5.53-4.48,8.23s.91,8.29,4.48,8.29,4.48-5.6,4.48-8.29S108.59,168.58,105,168.58Z"/><path class="cls-1" d="M124.86,189.09c-6.44,0-9-6.79-9-12.25s2.56-12.28,9-12.28,9,6.75,9,12.25S131.34,189.09,124.86,189.09Zm0-20.51c-3.57,0-4.48,5.53-4.48,8.23s.91,8.29,4.48,8.29,4.48-5.6,4.48-8.29S128.43,168.58,124.86,168.58Z"/><path class="cls-1" d="M156,188.5,150.27,182l-.45.45v6.06h-4.24V162.28h4.24v16.59l5.67-5.53h5.74L154.12,180l7.67,8.51Z"/><path class="cls-1" d="M173.58,177.19a3.78,3.78,0,0,0-2-.52c-2.87,0-3.64,2-3.64,4.55v7.28h-4.23V173.34h4.23v2.28a4.86,4.86,0,0,1,4.41-2.77,5,5,0,0,1,1.86.35Z"/><path class="cls-1" d="M192.73,188.81h-2L183,173.34h4.76l4,8.54,4-8.54h4.76Z"/><path class="cls-1" d="M204.66,169.49a2.56,2.56,0,1,1,2.52-2.55A2.54,2.54,0,0,1,204.66,169.49Zm-2.13,19V173.34h4.23V188.5Z"/><path class="cls-1" d="M222.34,188.5v-2A5.86,5.86,0,0,1,217.4,189c-4.55,0-7.45-3.78-7.45-8.12s2.9-8,7.35-8a6.31,6.31,0,0,1,5,2.42v-13h4.27V188.5Zm-3.78-11.83a4.25,4.25,0,1,0,4.23,4.23A4.23,4.23,0,0,0,218.56,176.67Z"/><path class="cls-1" d="M249.81,188.5l-5.7-6.51-.46.45v6.06h-4.23V162.28h4.23v16.59l5.67-5.53h5.74L248,180l7.66,8.51Z"/><path class="cls-1" d="M265.39,189c-4.83,0-8.68-3-8.68-8.05s3.85-8.09,8.71-8.09S274,175.9,274,180.9,270.18,189,265.39,189Zm-3.68-18.48a2.52,2.52,0,0,1,0-5,2.52,2.52,0,1,1,0,5Zm3.64,6.16a4.25,4.25,0,1,0,4.31,4.27A4.29,4.29,0,0,0,265.35,176.67Zm3.64-6.16a2.56,2.56,0,0,1-2.52-2.52,2.52,2.52,0,1,1,2.52,2.52Z"/><path class="cls-1" d="M286.6,189a6.07,6.07,0,0,1-5.08-2.49v10.09h-4.23V173.34h4.23v1.93a6,6,0,0,1,5-2.42c4.52,0,7.49,3.75,7.49,8.09S291,189,286.6,189Zm-1.26-12.32a4.25,4.25,0,1,0,4.23,4.23A4.23,4.23,0,0,0,285.34,176.67Z"/></svg>