<svg id="Layer_1" data-name="Layer 1" xmlns="http://www.w3.org/2000/svg" viewBox="0 0 320 320"><defs><style>.cls-1{fill:#d80201;}.cls-2{fill:#fff;}</style></defs><title>text</title><rect class="cls-1" x="84" y="252" width="148.67" height="24" rx="12"/><path class="cls-2" d="M113.72,268.67h-3.14v-9.35h2.31a3.67,3.67,0,0,1,2.28.56,2.52,2.52,0,0,1,.84,1.92,2,2,0,0,1-1,1.88,2.13,2.13,0,0,1,1.22.59,2.51,2.51,0,0,1,.67,1.75C116.88,267.88,115.4,268.67,113.72,268.67Zm-.79-7.86h-.53v2.41h.52c.81,0,1.41-.32,1.41-1.21S113.74,260.81,112.93,260.81Zm.31,3.79h-.84v2.6h.78c.9,0,1.82-.21,1.82-1.31S114.11,264.6,113.24,264.6Z"/><path class="cls-2" d="M118.56,268.67v-9.35h5.17v1.59h-3.35V263h3.22v1.58h-3.22v2.52h3.35v1.59Z"/><path class="cls-2" d="M128.08,268.89a3.66,3.66,0,0,1-3.21-1.78l1.18-1.13a2.14,2.14,0,0,0,2,1.24,1.33,1.33,0,0,0,1.44-1.31c0-1.92-4.1-1-4.1-4a2.74,2.74,0,0,1,2.91-2.72,4,4,0,0,1,2.73,1l-1,1.24a1.91,1.91,0,0,0-1.51-.75c-.6,0-1.31.38-1.31,1.05,0,1.58,4.11.8,4.11,4.06A3,3,0,0,1,128.08,268.89Z"/><path class="cls-2" d="M135.86,260.91v7.76H134v-7.76H132v-1.59h6v1.59Z"/><path class="cls-2" d="M145,268.67l-.8-2h-3.81l-.85,2H137.6l4.05-9.54H143l3.93,9.54Zm-4.28-10.37a1,1,0,0,1-1-1,1,1,0,0,1,2,0A1,1,0,0,1,140.71,258.3Zm1.61,3.56L141,265.22h2.67Zm1.52-3.56a1,1,0,0,1-1-1,1,1,0,1,1,1,1Z"/><path class="cls-2" d="M148,268.67v-9.35h1.82v7.76h2.87v1.59Z"/><path class="cls-2" d="M154,268.67v-9.35h1.82v7.76h2.87v1.59Z"/><path class="cls-2" d="M169.21,268.67v-4.16h-4v4.16h-1.82v-9.35h1.82v3.62h4v-3.62H171v9.35Z"/><path class="cls-2" d="M179.5,268.67l-.8-2h-3.81l-.85,2h-1.93l4-9.54h1.37l3.93,9.54Zm-4.28-10.37a1,1,0,0,1-1-1,1,1,0,0,1,2,0A1,1,0,0,1,175.22,258.3Zm1.61,3.56-1.36,3.36h2.67Zm1.52-3.56a1,1,0,0,1-1-1,1,1,0,1,1,1,1Z"/><path class="cls-2" d="M187.12,268.67l-2.52-3.76h-.23v3.76h-1.82v-9.35h2.7a3.87,3.87,0,0,1,2.39.68,2.72,2.72,0,0,1,.92,2.1,3.16,3.16,0,0,1-.53,1.71,2.43,2.43,0,0,1-1.6.92l2.94,3.94Zm-2.2-7.86h-.55v2.81h.52c.94,0,1.79-.33,1.79-1.41S185.86,260.81,184.92,260.81Z"/><polygon class="cls-2" points="205 265.17 195.17 265.17 195.17 262.67 205 262.67 205 258.88 212 263.92 205 268.75 205 265.17"/></svg>