<svg id="Layer_1" data-name="Layer 1" xmlns="http://www.w3.org/2000/svg" viewBox="0 0 320 320"><defs><style>.cls-1{fill:#d4ac76;}</style></defs><title>text</title><path class="cls-1" d="M56.38,197.51V179H63a6.3,6.3,0,0,1,6.44,6.41,5.85,5.85,0,0,1-1.88,4.46A6.44,6.44,0,0,1,63,191.61H59.86v5.9Zm6.36-15.22H59.86v6.22h2.93a3.26,3.26,0,0,0,2.33-.83,2.89,2.89,0,0,0,.88-2.22,3,3,0,0,0-.91-2.28A3.24,3.24,0,0,0,62.74,182.29Z"/><path class="cls-1" d="M74.6,197.51V179h7.26a6.26,6.26,0,0,1,4.46,1.68,5.79,5.79,0,0,1,1.79,4.4,5.54,5.54,0,0,1-1.33,3.76,6,6,0,0,1-3.46,2l5,6.73H84.39l-4.82-6.62H78.08v6.62Zm6.72-15.46H78.08v6h3.24a3.44,3.44,0,0,0,2.41-.82,2.76,2.76,0,0,0,.9-2.14,2.91,2.91,0,0,0-.93-2.2A3.29,3.29,0,0,0,81.32,182.05Z"/><path class="cls-1" d="M103.88,189.66H97v4.75h7.54v3.1h-11V179h10.8v3.09H97v4.52h6.87Z"/><path class="cls-1" d="M110.19,197.51V179h3.36l5.73,9.14,5.81-9.14h3.65v18.55h-3.48v-12.7l-.28,0-5.75,8.89-5.62-8.77h.06v12.62Z"/><path class="cls-1" d="M135.15,197.51V179h3.48v18.55Z"/><path class="cls-1" d="M143,197.51,150.1,179h3.14l7.13,18.55H156.8l-1-2.57h-8.3l-1,2.57Zm7.12-20.46a1.49,1.49,0,0,1-1.13.49,1.54,1.54,0,0,1-1.15-.49,1.66,1.66,0,0,1,1.14-2.84,1.54,1.54,0,0,1,1.13.48,1.62,1.62,0,0,1,.47,1.17A1.66,1.66,0,0,1,150.07,177.05Zm1.61,7.1-3,7.7h5.91Zm3.91-7.1a1.79,1.79,0,0,1-2.46,0,1.59,1.59,0,0,1-.51-1.19,1.55,1.55,0,0,1,.51-1.17,1.82,1.82,0,0,1,2.46,0,1.55,1.55,0,0,1,.51,1.17A1.59,1.59,0,0,1,155.59,177.05Z"/><path class="cls-1" d="M164.72,197.51V179H172a6.27,6.27,0,0,1,4.47,1.68,5.79,5.79,0,0,1,1.79,4.4,5.59,5.59,0,0,1-1.33,3.76,6,6,0,0,1-3.46,2l5,6.73h-3.91l-4.82-6.62H168.2v6.62Zm6.72-15.46H168.2v6h3.24a3.44,3.44,0,0,0,2.41-.82,2.76,2.76,0,0,0,.9-2.14,2.91,2.91,0,0,0-.93-2.2A3.29,3.29,0,0,0,171.44,182.05Z"/><path class="cls-1" d="M193.2,197.51V179h2.44l9.13,11.67V179h3.48v18.55h-2.33l-9.24-11.81v11.81Z"/><path class="cls-1" d="M224.67,179h3.74l-6.14,11v7.54h-3.48v-7.42L212.57,179h3.82l4.19,7.69Z"/><path class="cls-1" d="M231.48,182.29V179h15.29v3.33h-5.9v15.22h-3.48V182.29Z"/><path class="cls-1" d="M250,182.29V179h15.29v3.33h-5.9v15.22h-3.48V182.29Z"/><path class="cls-1" d="M64.34,224.51,57.24,206h3.63L66,219.3,71,206h3.52l-7,18.55Z"/><path class="cls-1" d="M78.89,224.51V206h3.48v18.55Z"/><path class="cls-1" d="M93.76,224.75a8.86,8.86,0,0,1-3.5-.73,9.24,9.24,0,0,1-3-2l2.21-2.64A7,7,0,0,0,91.51,221a5.23,5.23,0,0,0,2.44.64,3,3,0,0,0,2-.63,2,2,0,0,0,.77-1.6,2.76,2.76,0,0,0-2-2.58L92.6,216a8,8,0,0,1-3.09-2,5.07,5.07,0,0,1,.58-6.68A5.39,5.39,0,0,1,94,205.74a8,8,0,0,1,5.72,2.12l-2,2.59A4.8,4.8,0,0,0,94,208.84a2.5,2.5,0,0,0-1.66.53,1.66,1.66,0,0,0-.63,1.31,1.75,1.75,0,0,0,.49,1.27,5.09,5.09,0,0,0,1.59,1l2.17.86c2.75,1.11,4.15,2.89,4.2,5.36a5.17,5.17,0,0,1-1.75,4.06A6.74,6.74,0,0,1,93.76,224.75Z"/><path class="cls-1" d="M105.48,224.51V206h2.44l9.13,11.67V206h3.48v18.55H118.2L109,212.7v11.81Z"/><path class="cls-1" d="M127.16,224.51V206h3.48v18.55Z"/><path class="cls-1" d="M137.26,224.51V206h2.44l9.13,11.67V206h3.48v18.55H150l-9.24-11.81v11.81Z"/><path class="cls-1" d="M170.26,216.76v-3.1h6.65l0,1.59a9.52,9.52,0,0,1-4.87,8.34,9.65,9.65,0,0,1-4.73,1.21,9.63,9.63,0,1,1,.05-19.25,9.13,9.13,0,0,1,6.91,3l-2.37,2.34a6,6,0,0,0-4.56-2,5.89,5.89,0,0,0-4.44,1.81,6.57,6.57,0,0,0,0,8.94,5.64,5.64,0,0,0,4.21,1.82,6.59,6.59,0,0,0,4.13-1.29,5.8,5.8,0,0,0,2.18-3.41Z"/><path class="cls-1" d="M187.17,224.75a8.86,8.86,0,0,1-3.5-.73,9.24,9.24,0,0,1-3-2l2.21-2.64a6.84,6.84,0,0,0,2,1.66,5.2,5.2,0,0,0,2.44.64,3.05,3.05,0,0,0,2-.63,2,2,0,0,0,.77-1.6,2.76,2.76,0,0,0-2-2.58L186,216a7.9,7.9,0,0,1-3.08-2,4.77,4.77,0,0,1-1-3.16,4.82,4.82,0,0,1,1.58-3.52,5.39,5.39,0,0,1,3.93-1.55,8,8,0,0,1,5.71,2.12l-2,2.59a4.8,4.8,0,0,0-3.67-1.61,2.49,2.49,0,0,0-1.66.53,1.66,1.66,0,0,0-.63,1.31,1.71,1.71,0,0,0,.49,1.27,5.09,5.09,0,0,0,1.59,1l2.17.86c2.75,1.11,4.15,2.89,4.2,5.36a5.17,5.17,0,0,1-1.75,4.06A6.74,6.74,0,0,1,187.17,224.75Z"/><path class="cls-1" d="M210.32,224.51v-7.75h-7.95v7.75h-3.48V206h3.48v7.46h7.95V206h3.48v18.55Z"/><path class="cls-1" d="M232.19,222.84a7.55,7.55,0,0,1-10.15,0,6.55,6.55,0,0,1-2-4.91V206h3.48v11.52a4.24,4.24,0,0,0,.95,2.86,3.69,3.69,0,0,0,5.29,0,4.16,4.16,0,0,0,1-2.82V206h3.48v12A6.56,6.56,0,0,1,232.19,222.84Z"/><path class="cls-1" d="M245.41,224.75a8.93,8.93,0,0,1-3.5-.73,9.3,9.3,0,0,1-3-2l2.21-2.64a6.79,6.79,0,0,0,2,1.66,5.27,5.27,0,0,0,2.45.64,3,3,0,0,0,2-.63,2,2,0,0,0,.78-1.6,2.76,2.76,0,0,0-2-2.58l-2.07-.83a7.9,7.9,0,0,1-3.08-2,4.71,4.71,0,0,1-1-3.16,4.85,4.85,0,0,1,1.57-3.52,5.41,5.41,0,0,1,3.94-1.55,8,8,0,0,1,5.71,2.12l-2,2.59a4.78,4.78,0,0,0-3.66-1.61,2.53,2.53,0,0,0-1.67.53,1.68,1.68,0,0,0-.62,1.31,1.71,1.71,0,0,0,.49,1.27,5,5,0,0,0,1.59,1l2.16.86c2.75,1.11,4.15,2.89,4.21,5.36a5.2,5.2,0,0,1-1.75,4.06A6.75,6.75,0,0,1,245.41,224.75Z"/><path class="cls-1" d="M260.1,224.28a1.63,1.63,0,0,1-1.23.54,1.61,1.61,0,0,1-1.22-.54,1.83,1.83,0,0,1-.51-1.31,1.88,1.88,0,0,1,.51-1.32,1.62,1.62,0,0,1,1.22-.55,1.66,1.66,0,0,1,1.23.53,1.91,1.91,0,0,1,.52,1.34A1.79,1.79,0,0,1,260.1,224.28Zm-2.53-4.9-.31-12.92h3.29l-.29,12.92Z"/></svg>