<svg id="Layer_1" data-name="Layer 1" xmlns="http://www.w3.org/2000/svg" viewBox="0 0 320 320"><defs><style>.cls-1{fill:#d80201;}</style></defs><title>text</title><path class="cls-1" d="M54.15,142.58c-1.08,5.39-5.67,8.61-11.06,8.61-7.07,0-12.25-5-12.25-12.14a12,12,0,0,1,12.39-12.26,11.12,11.12,0,0,1,10,5.5l-4,2.13a6.86,6.86,0,0,0-6.1-3.46c-4.55,0-7.66,3.67-7.66,8.09s3.11,8,7.66,8c3.05,0,5.71-1.82,6.1-5h-5.5v-3.92H54.5v.56A19.77,19.77,0,0,1,54.15,142.58Z"/><path class="cls-1" d="M58,150.67V124.45h4.24v26.22Z"/><path class="cls-1" d="M74.2,151.16c-4.83,0-8.68-3-8.68-8S69.37,135,74.24,135s8.61,3,8.61,8S79,151.16,74.2,151.16Zm-3.67-18.49a2.52,2.52,0,0,1,0-5,2.52,2.52,0,0,1,0,5Zm3.64,6.17a4.25,4.25,0,1,0,4.3,4.27A4.28,4.28,0,0,0,74.17,138.84Zm3.64-6.17a2.55,2.55,0,0,1-2.52-2.52,2.52,2.52,0,1,1,2.52,2.52Z"/><path class="cls-1" d="M105.46,150.67v-8.3c0-1.78-.28-3.74-2.52-3.74-2.49,0-2.91,2.27-2.91,4.27v7.77H95.8v-8a6.65,6.65,0,0,0-.32-2.52,2.44,2.44,0,0,0-2.27-1.47A2.75,2.75,0,0,0,90.83,140a6.26,6.26,0,0,0-.49,2.91v7.77H86.1V135.51h4.24v1.72A5.8,5.8,0,0,1,95,135a5.13,5.13,0,0,1,4.72,2.77,5.59,5.59,0,0,1,5-2.77,5,5,0,0,1,4.24,2.17,6.71,6.71,0,0,1,.81,3.68v9.8Z"/><path class="cls-1" d="M118,139.15v11.52h-4.23V139.15h-1.68v-3.64h1.68v-5.18H118v5.18h3v3.64Z"/><path class="cls-1" d="M143.54,150.67v-2a5.86,5.86,0,0,1-4.94,2.49c-4.55,0-7.45-3.78-7.45-8.12s2.9-8,7.35-8a6.31,6.31,0,0,1,5,2.42v-1.93h4.27v15.16Zm-3.78-11.83a4.25,4.25,0,1,0,4.23,4.23A4.23,4.23,0,0,0,139.76,138.84Z"/><path class="cls-1" d="M156.14,139.15v11.52H151.9V139.15h-1.68v-3.64h1.68v-5.18h4.24v5.18h3v3.64Z"/><path class="cls-1" d="M165.59,139.15v11.52h-4.24V139.15h-1.68v-3.64h1.68v-5.18h4.24v5.18h3v3.64Z"/><path class="cls-1" d="M183.89,139.15v11.52h-4.23V139.15H178v-3.64h1.65v-4.87a7.45,7.45,0,0,1,.66-3.57,6,6,0,0,1,5.25-3,5,5,0,0,1,2.24.52v3.89a4.14,4.14,0,0,0-1.92-.56c-1.89,0-2,2-2,3.39v4.24h3.92v3.64Z"/><path class="cls-1" d="M197.65,151.16c-4.83,0-8.68-3-8.68-8s3.85-8.09,8.71-8.09,8.61,3,8.61,8S202.44,151.16,197.65,151.16Zm0-12.32a4.25,4.25,0,1,0,4.31,4.27A4.29,4.29,0,0,0,197.61,138.84Z"/><path class="cls-1" d="M219.45,139.36a3.78,3.78,0,0,0-2-.52c-2.87,0-3.64,2-3.64,4.55v7.28h-4.23V135.51h4.23v2.28a4.86,4.86,0,0,1,4.41-2.77,5,5,0,0,1,1.86.35Z"/><path class="cls-1" d="M241.5,150.67v-8.3c0-1.78-.28-3.74-2.52-3.74-2.48,0-2.9,2.27-2.9,4.27v7.77h-4.24v-8a6.85,6.85,0,0,0-.31-2.52,2.47,2.47,0,0,0-2.28-1.47,2.77,2.77,0,0,0-2.38,1.36,6.39,6.39,0,0,0-.49,2.91v7.77h-4.23V135.51h4.23v1.72A5.82,5.82,0,0,1,231,135a5.14,5.14,0,0,1,4.73,2.77,5.59,5.59,0,0,1,5-2.77,5,5,0,0,1,4.23,2.17,6.71,6.71,0,0,1,.81,3.68v9.8Z"/><path class="cls-1" d="M261.38,150.67v-2a5.84,5.84,0,0,1-4.93,2.49c-4.55,0-7.46-3.78-7.46-8.12s2.91-8,7.35-8a6.3,6.3,0,0,1,5,2.42v-1.93h4.27v15.16Zm-3.78-11.83a4.25,4.25,0,1,0,4.24,4.23A4.23,4.23,0,0,0,257.6,138.84Z"/><path class="cls-1" d="M41.76,187.67l-5.71-6.51-.45.45v6.06H31.36V161.45H35.6V178l5.67-5.53H47l-7.11,6.65,7.67,8.51Z"/><path class="cls-1" d="M49.46,187.67V161.45h4.23v26.22Z"/><path class="cls-1" d="M69.34,187.67v-2a5.84,5.84,0,0,1-4.94,2.49c-4.55,0-7.45-3.78-7.45-8.12s2.9-8,7.35-8a6.32,6.32,0,0,1,5,2.41v-1.92h4.27v15.16Zm-3.78-11.84a4.26,4.26,0,1,0,4.23,4.24A4.24,4.24,0,0,0,65.56,175.83Z"/><path class="cls-1" d="M87.57,176.36a3.7,3.7,0,0,0-2-.53c-2.87,0-3.64,2-3.64,4.56v7.28H77.67V172.51H81.9v2.28A4.86,4.86,0,0,1,86.31,172a5,5,0,0,1,1.86.35Z"/><path class="cls-1" d="M95.31,176.15v11.52H91.07V176.15H89.39v-3.64h1.68v-5.18h4.24v5.18h3v3.64Z"/><path class="cls-1" d="M120.82,187.67v-2a5.84,5.84,0,0,1-4.93,2.49c-4.55,0-7.46-3.78-7.46-8.12s2.91-8,7.35-8a6.32,6.32,0,0,1,5,2.41v-13h4.27v26.22ZM117,175.83a4.26,4.26,0,1,0,4.24,4.24A4.23,4.23,0,0,0,117,175.83Z"/><path class="cls-1" d="M131.22,168.66a2.56,2.56,0,1,1,0-5.11,2.56,2.56,0,0,1,0,5.11Zm-2.14,19V172.51h4.24v15.16Z"/><path class="cls-1" d="M141.58,176.15v11.52h-4.24V176.15h-1.68v-3.64h1.68v-5.18h4.24v5.18h3v3.64Z"/><path class="cls-1" d="M151,176.15v11.52h-4.24V176.15h-1.68v-3.64h1.68v-5.18H151v5.18h3v3.64Z"/><path class="cls-1" d="M175.32,187.67v-8.4c0-2.07-.46-3.64-2.87-3.64-2.63,0-3.26,1.92-3.26,4.2v7.84H165V172.51h4.23v1.86A5.57,5.57,0,0,1,174,172a5.23,5.23,0,0,1,5.6,6v9.63Z"/><path class="cls-1" d="M187.25,195.79h-4.79l5.56-10.4-7.18-12.88h4.94l4.55,8.61,4.34-8.61h4.83Z"/><path class="cls-1" d="M212.31,187.67v-2a5.84,5.84,0,0,1-4.93,2.49c-4.55,0-7.46-3.78-7.46-8.12s2.91-8,7.35-8a6.32,6.32,0,0,1,5,2.41v-1.92h4.27v15.16Zm-3.78-11.84a4.26,4.26,0,1,0,4.24,4.24A4.23,4.23,0,0,0,208.53,175.83Z"/><path class="cls-1" d="M239.75,187.67v-8.3c0-2.1-.45-3.74-2.9-3.74-2.63,0-3.22,2-3.22,4.27v7.77h-4.24V161.45h4.24v13a5.52,5.52,0,0,1,4.76-2.45,5.78,5.78,0,0,1,4.41,1.86,6,6,0,0,1,1.19,4.27v9.52Z"/><path class="cls-1" d="M255.36,188.16c-4.17,0-7.32-1.86-7.32-6.37v-9.28h4.24v8.58c0,2.06.87,3.46,3.08,3.46s3.08-1.4,3.08-3.46v-8.58h4.27v9.28C262.71,186.3,259.53,188.16,255.36,188.16Z"/><path class="cls-1" d="M271.6,188.16a8.1,8.1,0,0,1-5.78-2.52l2.24-2.59a5,5,0,0,0,3.57,1.78,1.79,1.79,0,0,0,1.93-1.68c0-2.59-6.76-1.29-6.76-6.4,0-3.08,2.56-4.8,5.43-4.8a7.83,7.83,0,0,1,4.94,1.61L275.06,176a4.26,4.26,0,0,0-2.52-1c-.73,0-1.61.46-1.61,1.3,0,2.2,7,1.22,7,6.4C277.93,186.27,274.85,188.16,271.6,188.16Z"/><path class="cls-1" d="M288.82,176.88v3h-4.31V173.7a7,7,0,0,0,1.23.14c2.13,0,4.41-1.09,4.41-3.5a2.64,2.64,0,0,0-2.7-2.7,2.48,2.48,0,0,0-2.52,2.49c0,.14,0,.28,0,.42h-4.55v-.42c0-3.82,3.57-6.27,7.14-6.27,3.74,0,7.07,2.7,7.07,6.58C294.63,174,292,176.12,288.82,176.88Zm-2.07,11.24a2.73,2.73,0,1,1,2.73-2.73A2.74,2.74,0,0,1,286.75,188.12Z"/></svg>