<svg id="Layer_1" data-name="Layer 1" xmlns="http://www.w3.org/2000/svg" viewBox="0 0 320 320"><defs><style>.cls-1{fill:#d80201;}</style></defs><title>text</title><path class="cls-1" d="M61.5,135.23a9.08,9.08,0,0,1-8-4.45L56.43,128a5.35,5.35,0,0,0,4.9,3.11,3.32,3.32,0,0,0,3.6-3.29c0-4.79-10.25-2.52-10.25-10,0-4.14,3.32-6.8,7.28-6.8a10.27,10.27,0,0,1,6.83,2.59l-2.39,3.12a4.72,4.72,0,0,0-3.78-1.89c-1.5,0-3.25.94-3.25,2.63,0,4,10.26,2,10.26,10.15C69.63,132.29,66.13,135.23,61.5,135.23Z"/><path class="cls-1" d="M80.68,135h-2L71,119.51h4.76l4,8.54,4-8.54h4.76Z"/><path class="cls-1" d="M101.37,134.67v-2a5.86,5.86,0,0,1-4.94,2.49c-4.55,0-7.45-3.78-7.45-8.12s2.9-8,7.35-8a6.31,6.31,0,0,1,5,2.42v-1.93h4.27v15.16Zm-3.78-11.83a4.25,4.25,0,1,0,4.24,4.23A4.23,4.23,0,0,0,97.59,122.84Z"/><path class="cls-1" d="M120.06,134.67v-8.4c0-2.07-.46-3.64-2.87-3.64-2.63,0-3.26,1.92-3.26,4.2v7.84H109.7V119.51h4.23v1.86a5.6,5.6,0,0,1,4.76-2.35,5.23,5.23,0,0,1,5.6,6v9.63Z"/><path class="cls-1" d="M131.89,127.77c.07,2.35,1.19,4.06,3.71,4.06a4,4,0,0,0,3.6-2l3.92.63c-1.33,3.26-4,4.73-7.45,4.73-4.9,0-8.12-3.15-8.12-8.09s3.08-8,7.94-8,7.74,3.36,7.74,8.19v.56Zm3.67-5.74a3.44,3.44,0,0,0-3.53,3h7.17A3.51,3.51,0,0,0,135.56,122Z"/><path class="cls-1" d="M156.84,134.67v-8.4c0-2.07-.45-3.64-2.87-3.64-2.62,0-3.25,1.92-3.25,4.2v7.84h-4.24V119.51h4.24v1.86a5.6,5.6,0,0,1,4.76-2.35,5.23,5.23,0,0,1,5.6,6v9.63Z"/><path class="cls-1" d="M184.5,134.67v-8.3c0-1.78-.29-3.74-2.53-3.74-2.48,0-2.9,2.27-2.9,4.27v7.77h-4.24v-8a6.85,6.85,0,0,0-.31-2.52,2.47,2.47,0,0,0-2.28-1.47,2.77,2.77,0,0,0-2.38,1.36,6.39,6.39,0,0,0-.49,2.91v7.77h-4.23V119.51h4.23v1.72A5.82,5.82,0,0,1,174,119a5.16,5.16,0,0,1,4.73,2.77,5.61,5.61,0,0,1,5-2.77,5,5,0,0,1,4.23,2.17,6.62,6.62,0,0,1,.81,3.68v9.8Z"/><path class="cls-1" d="M204.37,134.67v-2a5.84,5.84,0,0,1-4.93,2.49c-4.55,0-7.46-3.78-7.46-8.12s2.91-8,7.35-8a6.3,6.3,0,0,1,5,2.42v-1.93h4.27v15.16Zm-7.31-18a2.53,2.53,0,0,1,0-5.05,2.53,2.53,0,0,1,0,5.05Zm3.53,6.16a4.25,4.25,0,1,0,4.24,4.23A4.23,4.23,0,0,0,200.59,122.84Zm3.75-6.16a2.56,2.56,0,0,1-2.52-2.53,2.52,2.52,0,1,1,2.52,2.53Z"/><path class="cls-1" d="M222.61,123.36a3.8,3.8,0,0,0-2-.52c-2.87,0-3.64,2-3.64,4.55v7.28H212.7V119.51h4.24v2.28a4.86,4.86,0,0,1,4.41-2.77,4.94,4.94,0,0,1,1.85.35Z"/><path class="cls-1" d="M235.7,134.67,230,128.16l-.45.45v6.06H225.3V108.45h4.24V125l5.67-5.53H241l-7.11,6.65,7.67,8.51Z"/><path class="cls-1" d="M247.67,123.15v11.52h-4.24V123.15h-1.68v-3.64h1.68v-5.18h4.24v5.18h3v3.64Z"/><path class="cls-1" d="M264.43,134.67v-2a5.84,5.84,0,0,1-4.93,2.49c-4.55,0-7.46-3.78-7.46-8.12s2.91-8,7.35-8a6.3,6.3,0,0,1,5,2.42v-1.93h4.27v15.16Zm-3.78-11.83a4.25,4.25,0,1,0,4.24,4.23A4.23,4.23,0,0,0,260.65,122.84Z"/><path class="cls-1" d="M64.72,170.67v-8.3c0-2.1-.45-3.74-2.9-3.74-2.63,0-3.22,2-3.22,4.27v7.77H54.36V144.45H58.6v13A5.52,5.52,0,0,1,63.36,155a5.81,5.81,0,0,1,4.41,1.86A6,6,0,0,1,69,161.15v9.52Z"/><path class="cls-1" d="M80.33,171.16c-4.16,0-7.31-1.86-7.31-6.37v-9.28h4.23v8.58c0,2.06.88,3.46,3.08,3.46s3.08-1.4,3.08-3.46v-8.58h4.27v9.28C87.68,169.3,84.5,171.16,80.33,171.16Z"/><path class="cls-1" d="M96.57,171.16a8.06,8.06,0,0,1-5.77-2.52L93,166.05a4.92,4.92,0,0,0,3.57,1.78,1.78,1.78,0,0,0,1.92-1.68c0-2.59-6.75-1.29-6.75-6.4,0-3.08,2.55-4.8,5.42-4.8a7.83,7.83,0,0,1,4.94,1.61l-2.1,2.49a4.26,4.26,0,0,0-2.52-1c-.74,0-1.61.46-1.61,1.3,0,2.2,7,1.22,7,6.4C102.91,169.27,99.83,171.16,96.57,171.16Z"/><path class="cls-1" d="M119,159.15v11.52h-4.23V159.15h-1.65v-3.64h1.65v-4.86a7.47,7.47,0,0,1,.66-3.58,6,6,0,0,1,5.25-3,5,5,0,0,1,2.24.52v3.89a4.14,4.14,0,0,0-1.92-.56c-1.89,0-2,2-2,3.39v4.24H123v3.64Z"/><path class="cls-1" d="M132.8,171.16c-4.83,0-8.68-3-8.68-8S128,155,132.83,155s8.61,3,8.61,8S137.59,171.16,132.8,171.16Zm-3.68-18.48a2.53,2.53,0,0,1,0-5.05,2.53,2.53,0,0,1,0,5.05Zm3.64,6.16a4.25,4.25,0,1,0,4.31,4.27A4.29,4.29,0,0,0,132.76,158.84Zm3.64-6.16a2.56,2.56,0,0,1-2.52-2.53,2.52,2.52,0,1,1,2.52,2.53Z"/><path class="cls-1" d="M154.6,159.36a3.78,3.78,0,0,0-2-.52c-2.87,0-3.64,2-3.64,4.55v7.28H144.7V155.51h4.23v2.28a4.86,4.86,0,0,1,4.41-2.77,5,5,0,0,1,1.86.35Z"/><path class="cls-1" d="M169.58,163.77c.07,2.35,1.19,4.06,3.71,4.06a4,4,0,0,0,3.61-2l3.92.63c-1.33,3.26-4,4.73-7.46,4.73-4.9,0-8.12-3.15-8.12-8.09s3.08-8,7.95-8,7.73,3.36,7.73,8.19v.56Zm3.68-5.74a3.44,3.44,0,0,0-3.54,3.05h7.18A3.52,3.52,0,0,0,173.26,158Z"/><path class="cls-1" d="M194.54,170.67v-8.4c0-2.07-.46-3.64-2.87-3.64-2.63,0-3.26,1.92-3.26,4.2v7.84h-4.23V155.51h4.23v1.86a5.6,5.6,0,0,1,4.76-2.35,5.23,5.23,0,0,1,5.6,6v9.63Z"/><path class="cls-1" d="M216.41,171.16a8.06,8.06,0,0,1-5.77-2.52l2.24-2.59a4.92,4.92,0,0,0,3.57,1.78,1.78,1.78,0,0,0,1.92-1.68c0-2.59-6.75-1.29-6.75-6.4,0-3.08,2.55-4.8,5.42-4.8a7.83,7.83,0,0,1,4.94,1.61l-2.1,2.49a4.26,4.26,0,0,0-2.52-1c-.74,0-1.61.46-1.61,1.3,0,2.2,7,1.22,7,6.4C222.75,169.27,219.67,171.16,216.41,171.16Z"/><path class="cls-1" d="M233.07,171.16c-4.16,0-7.31-1.86-7.31-6.37v-9.28H230v8.58c0,2.06.88,3.46,3.08,3.46s3.08-1.4,3.08-3.46v-8.58h4.27v9.28C240.42,169.3,237.24,171.16,233.07,171.16Z"/><path class="cls-1" d="M254.84,170.67v-8.4c0-2.07-.45-3.64-2.87-3.64-2.62,0-3.25,1.92-3.25,4.2v7.84h-4.24V155.51h4.24v1.86a5.6,5.6,0,0,1,4.76-2.35,5.23,5.23,0,0,1,5.6,6v9.63Z"/><path class="cls-1" d="M274.72,170.67v-2a5.84,5.84,0,0,1-4.93,2.49c-4.55,0-7.46-3.78-7.46-8.12s2.91-8,7.35-8a6.3,6.3,0,0,1,5,2.42v-13H279v26.22Zm-3.78-11.83a4.25,4.25,0,1,0,4.24,4.23A4.23,4.23,0,0,0,270.94,158.84Z"/><path class="cls-1" d="M56.43,187.66a2.56,2.56,0,1,1,0-5.11,2.56,2.56,0,0,1,0,5.11Zm-2.14,19V191.51h4.24v15.16Z"/><path class="cls-1" d="M72.88,206.67v-8.4c0-2.07-.46-3.64-2.87-3.64-2.63,0-3.26,1.92-3.26,4.2v7.84H62.52V191.51h4.23v1.86A5.57,5.57,0,0,1,71.51,191a5.23,5.23,0,0,1,5.6,6v9.63Z"/><path class="cls-1" d="M91.53,206.67v-8.4c0-2.07-.45-3.64-2.87-3.64-2.62,0-3.25,1.92-3.25,4.2v7.84H81.17V191.51h4.24v1.86A5.57,5.57,0,0,1,90.17,191a5.23,5.23,0,0,1,5.6,6v9.63Z"/><path class="cls-1" d="M103.36,199.77c.07,2.35,1.19,4.06,3.71,4.06a4,4,0,0,0,3.61-2l3.92.63c-1.33,3.26-4,4.73-7.46,4.73-4.9,0-8.12-3.15-8.12-8.09s3.08-8,8-8,7.73,3.36,7.73,8.19v.56ZM107,194a3.44,3.44,0,0,0-3.54,3.05h7.18A3.52,3.52,0,0,0,107,194Z"/><path class="cls-1" d="M137.31,206.67v-8.3c0-1.78-.28-3.74-2.52-3.74-2.48,0-2.9,2.27-2.9,4.27v7.77h-4.24v-8a6.85,6.85,0,0,0-.31-2.52,2.47,2.47,0,0,0-2.28-1.47,2.77,2.77,0,0,0-2.38,1.36,6.39,6.39,0,0,0-.49,2.91v7.77H118V191.51h4.23v1.72a5.82,5.82,0,0,1,4.62-2.21,5.14,5.14,0,0,1,4.73,2.77,5.59,5.59,0,0,1,5-2.77,5,5,0,0,1,4.23,2.17,6.71,6.71,0,0,1,.81,3.68v9.8Z"/><path class="cls-1" d="M147.67,187.66a2.56,2.56,0,0,1,0-5.11,2.56,2.56,0,0,1,0,5.11Zm-2.13,19V191.51h4.23v15.16Z"/><path class="cls-1" d="M153.76,206.67V180.45H158v26.22Z"/><path class="cls-1" d="M164.12,187.66a2.56,2.56,0,0,1,0-5.11,2.56,2.56,0,0,1,0,5.11ZM162,214.75V191.51h4.23v23.24Z"/><path class="cls-1" d="M178.09,207.16c-4.83,0-8.68-3-8.68-8s3.85-8.09,8.71-8.09,8.61,3,8.61,8S182.88,207.16,178.09,207.16Zm-3.68-18.49a2.52,2.52,0,0,1,0-5,2.52,2.52,0,1,1,0,5Zm3.64,6.17a4.25,4.25,0,1,0,4.31,4.27A4.29,4.29,0,0,0,178.05,194.84Zm3.64-6.17a2.56,2.56,0,0,1-2.52-2.52,2.52,2.52,0,1,1,2.52,2.52Z"/><path class="cls-1" d="M192.33,207.12a2.73,2.73,0,1,1,2.73-2.73A2.73,2.73,0,0,1,192.33,207.12ZM190.16,200V183.32h4.34V200Z"/></svg>