<?xml version="1.0" encoding="utf-8"?>
<!-- Generator: Adobe Illustrator 19.1.1, SVG Export Plug-In . SVG Version: 6.00 Build 0)  -->
<svg version="1.1" id="Layer_1" xmlns="http://www.w3.org/2000/svg" xmlns:xlink="http://www.w3.org/1999/xlink" x="0px" y="0px"
	 viewBox="0 0 980 120" style="enable-background:new 0 0 980 120;" xml:space="preserve">
<style type="text/css">
	.st0{fill:#D80201;}
	.st1{fill:#FFFFFF;}
</style>
<g>
	<path class="st0" d="M376.1,70.5c-3,2.4-6.3,3.2-10,3.2h-7.9v-28h8c8.3,0,15.1,5.3,15.1,14C381.2,63.8,379.3,67.8,376.1,70.5z
		 M372.5,52.7c-2.1-1.9-4.7-2.3-7.5-2.3h-1.5v18.5h1.5c2.8,0,5.3-0.3,7.5-2.2c2-1.7,3-4.5,3-7.1C375.5,57,374.4,54.4,372.5,52.7z"/>
	<path class="st0" d="M394.2,74.3c-5,0-8.8-2.2-8.8-7.6V55.5h5.1v10.3c0,2.5,1,4.2,3.7,4.2s3.7-1.7,3.7-4.2V55.5h5.1v11.1
		C403,72,399.2,74.3,394.2,74.3z"/>
	<path class="st0" d="M423.6,59.8v13.8h-5.1V59.8h-2v-4.4h2v-5.8c0-1.5,0.1-2.9,0.8-4.3c1.2-2.3,3.8-3.7,6.3-3.7
		c1.1,0,1.7,0.2,2.7,0.6V47c-0.8-0.4-1.5-0.7-2.3-0.7c-2.3,0-2.4,2.4-2.4,4.1v5.1h4.7v4.4H423.6z"/>
	<path class="st0" d="M440.1,74.3c-5.8,0-10.4-3.6-10.4-9.7c0-6.1,4.6-9.7,10.5-9.7c5.8,0,10.3,3.7,10.3,9.7
		C450.5,70.6,445.9,74.3,440.1,74.3z M440.1,59.5c-2.8,0-5.1,2.3-5.1,5.1c0,2.8,2.4,5.1,5.1,5.1c2.8,0,5.2-2.2,5.2-5.1
		S442.9,59.5,440.1,59.5z"/>
	<path class="st0" d="M466.3,60.1c-0.8-0.5-1.5-0.6-2.4-0.6c-3.4,0-4.4,2.4-4.4,5.5v8.7h-5.1V55.5h5.1v2.7c1.2-2.1,2.9-3.3,5.3-3.3
		c0.8,0,1.5,0.1,2.2,0.4L466.3,60.1z"/>
	<path class="st0" d="M492.7,73.7v-10c0-2.1-0.3-4.5-3-4.5c-3,0-3.5,2.7-3.5,5.1v9.3h-5.1V64c0-0.9,0-2.2-0.4-3
		c-0.5-1.1-1.6-1.8-2.7-1.8c-1.1,0-2.3,0.6-2.9,1.6c-0.5,1-0.6,2.4-0.6,3.5v9.3h-5.1V55.5h5.1v2.1c1.6-1.7,3.2-2.6,5.5-2.6
		c2.6,0,4.3,1.1,5.7,3.3c1.4-2.2,3.4-3.3,6-3.3c2,0,4,0.9,5.1,2.6c0.8,1.3,1,2.9,1,4.4v11.8H492.7z"/>
	<path class="st0" d="M516.6,73.7v-2.4c-1.4,2-3.5,3-5.9,3c-5.5,0-8.9-4.5-8.9-9.7c0-5.1,3.5-9.6,8.8-9.6c2.5,0,4.4,1,6,2.9v-2.3
		h5.1v18.2H516.6z M512.1,59.5c-2.8,0-5.1,2.3-5.1,5.1s2.3,5.1,5.1,5.1s5.1-2.3,5.1-5.1S514.9,59.5,512.1,59.5z"/>
	<path class="st0" d="M538.5,60.1c-0.8-0.5-1.5-0.6-2.4-0.6c-3.4,0-4.4,2.4-4.4,5.5v8.7h-5.1V55.5h5.1v2.7c1.2-2.1,2.9-3.3,5.3-3.3
		c0.8,0,1.5,0.1,2.2,0.4L538.5,60.1z"/>
	<path class="st0" d="M542.7,74.2c-1.8,0-3.3-1.5-3.3-3.3c0-1.8,1.5-3.3,3.3-3.3s3.3,1.5,3.3,3.3C546,72.7,544.5,74.2,542.7,74.2z"
		/>
	<path class="st0" d="M573.3,74.4h-2.9l-11.9-28.7h6l7.5,18.8l7.6-18.8h5.9L573.3,74.4z"/>
	<path class="st0" d="M590.4,50.9c-1.7,0-3.1-1.4-3.1-3.1s1.4-3.1,3.1-3.1c1.7,0,3,1.4,3,3.1S592.1,50.9,590.4,50.9z M587.8,73.7
		V55.5h5.1v18.2H587.8z"/>
	<path class="st0" d="M619.2,74.3c-2.5,0-4.4-1-6-3v2.4h-5.1V42.2h5.1v15.6c1.8-1.9,3.4-2.9,6.1-2.9c5.3,0,8.9,4.5,8.9,9.6
		C628.2,69.7,624.7,74.3,619.2,74.3z M617.9,59.5c-2.8,0-5.1,2.3-5.1,5.1s2.3,5.1,5.1,5.1c2.8,0,5.1-2.3,5.1-5.1
		S620.7,59.5,617.9,59.5z"/>
	<path class="st0" d="M636.3,83.4h-5.8l6.7-12.5l-8.6-15.5h5.9l5.5,10.3l5.2-10.3h5.8L636.3,83.4z"/>
	<path class="st0" d="M670.4,80.3c-1.9,2.3-4.8,3.2-7.7,3.2c-4.7,0-9.2-2.7-9.7-7.6h5.5c0.5,2.2,2.1,3.3,4.3,3.3
		c3.2,0,4.5-2.2,4.5-5.2v-2.7c-1.7,2-3.5,3-6.1,3c-5.4,0-8.7-4.3-8.7-9.5c0-5.2,3.4-9.9,8.9-9.9c2.6,0,4.3,0.9,5.9,2.9v-2.4h5.1V73
		C672.5,75.9,672.3,78,670.4,80.3z M662.9,59.5c-2.8,0-5.1,2.3-5.1,5.1s2.3,5.1,5.1,5.1s5.1-2.3,5.1-5.1S665.7,59.5,662.9,59.5z"/>
	<path class="st0" d="M694.2,80.3c-1.9,2.3-4.8,3.2-7.7,3.2c-4.7,0-9.2-2.7-9.7-7.6h5.5c0.5,2.2,2.1,3.3,4.3,3.3
		c3.2,0,4.5-2.2,4.5-5.2v-2.7c-1.7,2-3.5,3-6.1,3c-5.4,0-8.7-4.3-8.7-9.5c0-5.2,3.4-9.9,8.9-9.9c2.6,0,4.3,0.9,5.9,2.9v-2.4h5.1V73
		C696.3,75.9,696.2,78,694.2,80.3z M686.7,59.5c-2.8,0-5.1,2.3-5.1,5.1s2.3,5.1,5.1,5.1s5.1-2.3,5.1-5.1S689.5,59.5,686.7,59.5z"/>
	<path class="st0" d="M705.4,65.4c0.1,2.8,1.4,4.9,4.5,4.9c1.9,0,3.3-0.8,4.3-2.4l4.7,0.8c-1.6,3.9-4.8,5.7-8.9,5.7
		c-5.9,0-9.7-3.8-9.7-9.7c0-5.8,3.7-9.7,9.5-9.7c6,0,9.3,4,9.3,9.8v0.7H705.4z M709.8,58.5c-2.3,0-3.8,1.4-4.2,3.7h8.6
		C713.7,59.9,712.2,58.5,709.8,58.5z"/>
	<path class="st0" d="M734.8,60.1c-0.8-0.5-1.5-0.6-2.4-0.6c-3.4,0-4.4,2.4-4.4,5.5v8.7h-5.1V55.5h5.1v2.7c1.2-2.1,2.9-3.3,5.3-3.3
		c0.8,0,1.5,0.1,2.2,0.4L734.8,60.1z"/>
	<path class="st0" d="M739,74.2c-1.8,0-3.3-1.5-3.3-3.3c0-1.8,1.5-3.3,3.3-3.3s3.3,1.5,3.3,3.3C742.3,72.7,740.8,74.2,739,74.2z"/>
</g>
</svg>
