<svg id="Layer_1" data-name="Layer 1" xmlns="http://www.w3.org/2000/svg" viewBox="0 0 980 120"><defs><style>.cls-1{fill:#d4ac76;}</style></defs><title>text</title><path class="cls-1" d="M854.29,56.75v-10h3.31a3,3,0,0,1,2.2.84,2.79,2.79,0,0,1,.86,2.07,2.36,2.36,0,0,1-1.12,2,2.91,2.91,0,0,1,1.11.9,2.13,2.13,0,0,1,.42,1.28,2.78,2.78,0,0,1-.88,2.13,3.16,3.16,0,0,1-2.22.81Zm3.09-8.37H856V50.9h1.51a1.37,1.37,0,0,0,1-.37,1.27,1.27,0,0,0,.38-.93,1.08,1.08,0,0,0-.42-.89A1.8,1.8,0,0,0,857.38,48.38Zm.29,4H856v2.66h1.6a1.58,1.58,0,0,0,1.13-.38,1.34,1.34,0,0,0,0-1.92A1.6,1.6,0,0,0,857.67,52.41Z"/><path class="cls-1" d="M869.42,52.5h-3.71v2.57h4.08v1.68h-6v-10h5.85v1.68h-4v2.44h3.71Z"/><path class="cls-1" d="M875.25,56.88a4.72,4.72,0,0,1-1.89-.4,4.84,4.84,0,0,1-1.63-1.1l1.2-1.43a3.49,3.49,0,0,0,1.11.9,2.72,2.72,0,0,0,1.32.35,1.63,1.63,0,0,0,1.07-.34,1.08,1.08,0,0,0,.42-.87,1.49,1.49,0,0,0-1.1-1.39l-1.12-.45A4.34,4.34,0,0,1,873,51a2.58,2.58,0,0,1-.54-1.71,2.62,2.62,0,0,1,.86-1.91,2.89,2.89,0,0,1,2.13-.84,4.34,4.34,0,0,1,3.09,1.15l-1.11,1.4a2.57,2.57,0,0,0-2-.87,1.33,1.33,0,0,0-.9.29.88.88,0,0,0-.34.71,1,1,0,0,0,.26.69,2.85,2.85,0,0,0,.86.52l1.18.46a3.1,3.1,0,0,1,2.27,2.9,2.79,2.79,0,0,1-.94,2.2A3.65,3.65,0,0,1,875.25,56.88Z"/><path class="cls-1" d="M880.34,48.51V46.7h8.29v1.81h-3.2v8.24h-1.89V48.51Z"/><path class="cls-1" d="M888.72,56.75l3.87-10h1.7l3.87,10h-1.94l-.54-1.39h-4.49l-.54,1.39Zm3.85-11.08a.78.78,0,0,1-.61.26.82.82,0,0,1-.62-.26.91.91,0,0,1-.26-.65.87.87,0,0,1,.88-.89.81.81,0,0,1,.61.26.85.85,0,0,1,.25.63A.9.9,0,0,1,892.57,45.67Zm.87,3.84-1.6,4.17H895Zm2.12-3.84a.89.89,0,0,1-.66.26.93.93,0,0,1-.67-.26A.88.88,0,0,1,894,45a.83.83,0,0,1,.27-.63.93.93,0,0,1,.67-.26.89.89,0,0,1,.66.26.81.81,0,0,1,.28.63A.85.85,0,0,1,895.56,45.67Z"/><path class="cls-1" d="M900.25,56.75v-10h1.88v8.24h3.69v1.81Z"/><path class="cls-1" d="M908.28,56.75v-10h1.89v8.24h3.69v1.81Z"/><path class="cls-1" d="M837.81,71.75v-4.2h-4.3v4.2h-1.89v-10h1.89v4h4.3v-4h1.88v10Z"/><path class="cls-1" d="M849.4,70.85a4.1,4.1,0,0,1-5.5,0,3.56,3.56,0,0,1-1.09-2.66V61.7h1.89v6.24a2.27,2.27,0,0,0,.52,1.55,1.76,1.76,0,0,0,1.43.61,1.79,1.79,0,0,0,1.43-.6A2.24,2.24,0,0,0,848.6,68V61.7h1.88v6.49A3.59,3.59,0,0,1,849.4,70.85Z"/><path class="cls-1" d="M856.3,71.88a4.77,4.77,0,0,1-1.9-.4,4.9,4.9,0,0,1-1.62-1.1L854,69a3.49,3.49,0,0,0,1.11.9,2.78,2.78,0,0,0,1.32.35,1.64,1.64,0,0,0,1.08-.34,1.1,1.1,0,0,0,.41-.87,1.48,1.48,0,0,0-1.1-1.39l-1.12-.45A4.38,4.38,0,0,1,854,66a2.58,2.58,0,0,1-.54-1.71,2.61,2.61,0,0,1,.85-1.91,2.92,2.92,0,0,1,2.13-.84,4.35,4.35,0,0,1,3.1,1.15l-1.11,1.4a2.61,2.61,0,0,0-2-.87,1.37,1.37,0,0,0-.9.29.91.91,0,0,0-.34.71.93.93,0,0,0,.27.69,2.61,2.61,0,0,0,.86.52l1.17.46a3.13,3.13,0,0,1,2.28,2.9,2.8,2.8,0,0,1-.95,2.2A3.62,3.62,0,0,1,856.3,71.88Z"/><path class="cls-1" d="M862.39,71.75v-10h1.74v4.43L868,61.7h2.33l-3.55,4,3.63,6h-2.17l-2.74-4.59-1.35,1.52v3.07Z"/><path class="cls-1" d="M872,71.75l3.87-10h1.71l3.86,10h-1.94l-.53-1.39h-4.5l-.53,1.39Zm4.73-7.24-1.61,4.17h3.2Z"/><path class="cls-1" d="M881.53,63.51V61.7h8.28v1.81h-3.2v8.24h-1.88V63.51Z"/><path class="cls-1" d="M889.9,71.75l3.87-10h1.71l3.86,10H897.4l-.53-1.39h-4.5l-.53,1.39Zm4.73-7.24L893,68.68h3.2Z"/><path class="cls-1" d="M901.43,71.75v-10h1.89v8.24H907v1.81Z"/><path class="cls-1" d="M918.66,66.72a5,5,0,0,1-1.53,3.68,5.2,5.2,0,1,1,1.53-3.68Zm-7.59,2.4a3.32,3.32,0,0,0,4.73,0,3.33,3.33,0,0,0,1-2.41,3.29,3.29,0,0,0-1-2.4,3.3,3.3,0,0,0-4.73,0,3.29,3.29,0,0,0-1,2.4A3.33,3.33,0,0,0,911.07,69.12Z"/><path class="cls-1" d="M927.78,67.55V65.87h3.6v.86a5.19,5.19,0,0,1-2.64,4.52,5.17,5.17,0,0,1-2.56.66,5.22,5.22,0,1,1,0-10.43,5,5,0,0,1,3.74,1.62l-1.29,1.27a3.25,3.25,0,0,0-2.47-1.08,3.2,3.2,0,0,0-2.4,1,3.56,3.56,0,0,0,0,4.84,3.07,3.07,0,0,0,2.29,1,3.54,3.54,0,0,0,2.23-.7,3.13,3.13,0,0,0,1.18-1.85Z"/></svg>