<svg id="Layer_1" data-name="Layer 1" xmlns="http://www.w3.org/2000/svg" viewBox="0 0 980 240"><defs><style>.cls-1{fill:#d80201;}</style></defs><title>text</title><path class="cls-1" d="M299.51,123.31c-1.31,6.47-6.81,10.34-13.28,10.34-8.48,0-14.7-6.05-14.7-14.58s6.39-14.7,14.87-14.7a13.36,13.36,0,0,1,12,6.59l-4.74,2.57a8.22,8.22,0,0,0-7.31-4.16c-5.46,0-9.2,4.41-9.2,9.7s3.74,9.62,9.2,9.62c3.65,0,6.85-2.18,7.31-6h-6.6V118h12.86v.67A24.51,24.51,0,0,1,299.51,123.31Z"/><path class="cls-1" d="M304.16,133V101.56h5.09V133Z"/><path class="cls-1" d="M323.57,133.61c-5.8,0-10.42-3.62-10.42-9.67s4.62-9.7,10.46-9.7S334,117.9,334,123.9,329.32,133.61,323.57,133.61Zm-4.41-22.18a3,3,0,1,1,0-6.05,3,3,0,0,1,0,6.05Zm4.37,7.39a5.11,5.11,0,1,0,5.16,5.12A5.14,5.14,0,0,0,323.53,118.82Zm4.37-7.39a3.07,3.07,0,0,1-3-3,3,3,0,1,1,3,3Z"/><path class="cls-1" d="M361.08,133v-10c0-2.14-.34-4.49-3-4.49-3,0-3.48,2.73-3.48,5.12V133h-5.09v-9.66a8.08,8.08,0,0,0-.38-3,2.94,2.94,0,0,0-2.73-1.76,3.3,3.3,0,0,0-2.85,1.64,7.47,7.47,0,0,0-.59,3.48V133h-5.08V114.83h5.08v2.06a7,7,0,0,1,5.55-2.65,6.2,6.2,0,0,1,5.67,3.32,6.72,6.72,0,0,1,6-3.32,6,6,0,0,1,5.08,2.61,8,8,0,0,1,1,4.41V133Z"/><path class="cls-1" d="M376.15,119.2V133h-5.08V119.2h-2v-4.37h2v-6.22h5.08v6.22h3.57v4.37Z"/><path class="cls-1" d="M406.77,133v-2.4a7,7,0,0,1-5.92,3c-5.46,0-9-4.54-9-9.75s3.49-9.62,8.82-9.62a7.59,7.59,0,0,1,6,2.9v-2.31h5.13V133Zm-4.54-14.2a5.11,5.11,0,1,0,5.09,5.08A5.07,5.07,0,0,0,402.23,118.82Z"/><path class="cls-1" d="M421.89,119.2V133h-5.08V119.2h-2v-4.37h2v-6.22h5.08v6.22h3.57v4.37Z"/><path class="cls-1" d="M433.23,119.2V133h-5.08V119.2h-2v-4.37h2v-6.22h5.08v6.22h3.57v4.37Z"/><path class="cls-1" d="M455.19,119.2V133h-5.08V119.2h-2v-4.37h2V109a8.77,8.77,0,0,1,.8-4.28,7.2,7.2,0,0,1,6.3-3.66,6,6,0,0,1,2.69.63v4.66a5.18,5.18,0,0,0-2.31-.67c-2.27,0-2.4,2.35-2.4,4.08v5.08h4.71v4.37Z"/><path class="cls-1" d="M471.7,133.61c-5.8,0-10.42-3.62-10.42-9.67s4.62-9.7,10.46-9.7,10.34,3.66,10.34,9.66S477.46,133.61,471.7,133.61Zm0-14.79a5.11,5.11,0,1,0,5.17,5.12A5.14,5.14,0,0,0,471.66,118.82Z"/><path class="cls-1" d="M497.87,119.45a4.52,4.52,0,0,0-2.44-.63c-3.44,0-4.37,2.44-4.37,5.46V133H486V114.83h5.08v2.73a5.85,5.85,0,0,1,5.29-3.32,5.92,5.92,0,0,1,2.23.42Z"/><path class="cls-1" d="M524.33,133v-10c0-2.14-.34-4.49-3-4.49-3,0-3.48,2.73-3.48,5.12V133h-5.09v-9.66a8.28,8.28,0,0,0-.37-3,3,3,0,0,0-2.73-1.76,3.3,3.3,0,0,0-2.86,1.64,7.47,7.47,0,0,0-.59,3.48V133H501.1V114.83h5.08v2.06a7,7,0,0,1,5.55-2.65,6.2,6.2,0,0,1,5.67,3.32,6.72,6.72,0,0,1,6-3.32,6,6,0,0,1,5.08,2.61,8,8,0,0,1,1,4.41V133Z"/><path class="cls-1" d="M548.18,133v-2.4a7,7,0,0,1-5.92,3c-5.46,0-9-4.54-9-9.75s3.49-9.62,8.82-9.62a7.59,7.59,0,0,1,6,2.9v-2.31h5.13V133Zm-4.54-14.2a5.11,5.11,0,1,0,5.09,5.08A5.07,5.07,0,0,0,543.64,118.82Z"/><path class="cls-1" d="M581.15,133l-6.85-7.81-.54.54V133h-5.09V101.56h5.09v19.91l6.8-6.64h6.89l-8.53,8,9.2,10.21Z"/><path class="cls-1" d="M590.39,133V101.56h5.08V133Z"/><path class="cls-1" d="M614.25,133v-2.4a7,7,0,0,1-5.93,3c-5.46,0-8.94-4.54-8.94-9.75s3.48-9.62,8.82-9.62a7.59,7.59,0,0,1,6,2.9v-2.31h5.12V133Zm-4.54-14.2a5.11,5.11,0,1,0,5.08,5.08A5.07,5.07,0,0,0,609.71,118.82Z"/><path class="cls-1" d="M636.13,119.45a4.52,4.52,0,0,0-2.44-.63c-3.44,0-4.37,2.44-4.37,5.46V133h-5.08V114.83h5.08v2.73a5.93,5.93,0,0,1,7.52-2.9Z"/><path class="cls-1" d="M645.41,119.2V133h-5.08V119.2h-2v-4.37h2v-6.22h5.08v6.22H649v4.37Z"/><path class="cls-1" d="M676,133v-2.4a7,7,0,0,1-5.93,3c-5.46,0-8.94-4.54-8.94-9.75s3.48-9.62,8.82-9.62a7.59,7.59,0,0,1,6,2.9V101.56h5.12V133Zm-4.54-14.2a5.11,5.11,0,1,0,5.08,5.08A5.07,5.07,0,0,0,671.49,118.82Z"/><path class="cls-1" d="M688.5,110.21a3.07,3.07,0,1,1,0-6.13,3.07,3.07,0,0,1,0,6.13ZM685.94,133V114.83H691V133Z"/><path class="cls-1" d="M700.93,119.2V133h-5.08V119.2h-2v-4.37h2v-6.22h5.08v6.22h3.57v4.37Z"/><path class="cls-1" d="M712.27,119.2V133h-5.08V119.2h-2v-4.37h2v-6.22h5.08v6.22h3.57v4.37Z"/><path class="cls-1" d="M741.42,133V122.94c0-2.48-.55-4.37-3.45-4.37-3.15,0-3.9,2.31-3.9,5V133H729V114.83h5.09v2.23c1.68-1.94,3.11-2.82,5.71-2.82a7,7,0,0,1,5.29,2.19c1.31,1.51,1.43,3.15,1.43,5V133Z"/><path class="cls-1" d="M755.74,142.76H750l6.68-12.47-8.61-15.46H754l5.47,10.33,5.2-10.33h5.8Z"/><path class="cls-1" d="M785.81,133v-2.4a7,7,0,0,1-5.92,3c-5.46,0-8.95-4.54-8.95-9.75s3.49-9.62,8.82-9.62a7.59,7.59,0,0,1,6,2.9v-2.31h5.13V133Zm-4.53-14.2a5.11,5.11,0,1,0,5.08,5.08A5.08,5.08,0,0,0,781.28,118.82Z"/><path class="cls-1" d="M818.74,133v-10c0-2.52-.55-4.49-3.49-4.49-3.15,0-3.86,2.43-3.86,5.12V133h-5.08V101.56h5.08v15.62a6.63,6.63,0,0,1,5.71-2.94,7,7,0,0,1,5.29,2.23c1.31,1.51,1.43,3.23,1.43,5.12V133Z"/><path class="cls-1" d="M837.47,133.61c-5,0-8.78-2.23-8.78-7.65V114.83h5.08v10.29c0,2.48,1.05,4.16,3.7,4.16s3.7-1.68,3.7-4.16V114.83h5.12V126C846.29,131.38,842.47,133.61,837.47,133.61Z"/><path class="cls-1" d="M857,133.61a9.66,9.66,0,0,1-6.93-3l2.68-3.11a5.94,5.94,0,0,0,4.29,2.15,2.14,2.14,0,0,0,2.31-2c0-3.11-8.11-1.55-8.11-7.69,0-3.69,3.07-5.75,6.51-5.75a9.42,9.42,0,0,1,5.93,1.93l-2.52,3a5.11,5.11,0,0,0-3-1.22c-.88,0-1.93.55-1.93,1.56,0,2.64,8.4,1.47,8.4,7.69C864.56,131.34,860.86,133.61,857,133.61Z"/><path class="cls-1" d="M877.62,120.08v3.57h-5.16v-7.39a8.58,8.58,0,0,0,1.47.17c2.56,0,5.29-1.31,5.29-4.2A3.17,3.17,0,0,0,876,109a3,3,0,0,0-3,3c0,.17,0,.34,0,.51h-5.46V112c0-4.58,4.29-7.52,8.57-7.52,4.5,0,8.49,3.24,8.49,7.9C884.6,116.59,881.49,119.16,877.62,120.08Zm-2.48,13.48a3.28,3.28,0,1,1,3.28-3.27A3.28,3.28,0,0,1,875.14,133.56Z"/></svg>