<?xml version="1.0" encoding="utf-8"?>
<!-- Generator: Adobe Illustrator 19.1.1, SVG Export Plug-In . SVG Version: 6.00 Build 0)  -->
<svg version="1.1" id="Layer_1" xmlns="http://www.w3.org/2000/svg" xmlns:xlink="http://www.w3.org/1999/xlink" x="0px" y="0px"
	 viewBox="0 0 980 120" style="enable-background:new 0 0 980 120;" xml:space="preserve">
<style type="text/css">
	.st0{fill:#D80201;}
	.st1{fill:#FFFFFF;}
</style>
<g>
	<path class="st0" d="M289.5,64.7c-1.2,6-6.3,9.6-12.3,9.6c-7.9,0-13.7-5.6-13.7-13.5c0-7.9,5.9-13.7,13.8-13.7
		c4.7,0,8.7,2,11.2,6.1l-4.4,2.4c-1.5-2.5-3.9-3.9-6.8-3.9c-5.1,0-8.5,4.1-8.5,9c0,5,3.5,8.9,8.5,8.9c3.4,0,6.4-2,6.8-5.5H278v-4.4
		h11.9v0.6C289.9,61.8,289.8,63.3,289.5,64.7z"/>
	<path class="st0" d="M293.8,73.7V44.5h4.7v29.2H293.8z"/>
	<path class="st0" d="M311.9,74.2c-5.4,0-9.7-3.4-9.7-9c0-5.7,4.3-9,9.7-9c5.3,0,9.6,3.4,9.6,9S317.2,74.2,311.9,74.2z M307.8,53.6
		c-1.5,0-2.8-1.3-2.8-2.8s1.3-2.8,2.8-2.8c1.6,0,2.8,1.2,2.8,2.8S309.3,53.6,307.8,53.6z M311.8,60.5c-2.6,0-4.8,2.1-4.8,4.8
		c0,2.6,2.2,4.7,4.8,4.7c2.6,0,4.8-2.1,4.8-4.7S314.5,60.5,311.8,60.5z M315.9,53.6c-1.5,0-2.8-1.3-2.8-2.8c0-1.6,1.2-2.8,2.8-2.8
		s2.8,1.2,2.8,2.8S317.4,53.6,315.9,53.6z"/>
	<path class="st0" d="M346.7,73.7v-9.2c0-2-0.3-4.2-2.8-4.2c-2.8,0-3.2,2.5-3.2,4.8v8.7h-4.7v-9c0-0.9,0-2-0.4-2.8
		c-0.4-1-1.4-1.6-2.5-1.6c-1.1,0-2.1,0.6-2.7,1.5c-0.5,0.9-0.5,2.2-0.5,3.2v8.7h-4.7V56.8h4.7v1.9c1.4-1.6,3-2.5,5.1-2.5
		c2.4,0,4,1.1,5.3,3.1c1.3-2,3.1-3.1,5.5-3.1c1.8,0,3.7,0.8,4.7,2.4c0.8,1.2,0.9,2.7,0.9,4.1v10.9H346.7z"/>
	<path class="st0" d="M360.7,60.8v12.8H356V60.8h-1.9v-4.1h1.9V51h4.7v5.8h3.3v4.1H360.7z"/>
	<path class="st0" d="M389.1,73.7v-2.2c-1.3,1.8-3.3,2.8-5.5,2.8c-5.1,0-8.3-4.2-8.3-9c0-4.7,3.2-8.9,8.2-8.9c2.3,0,4.1,0.9,5.6,2.7
		v-2.1h4.8v16.9H389.1z M384.9,60.5c-2.6,0-4.7,2.1-4.7,4.7s2.1,4.8,4.7,4.8c2.6,0,4.7-2.1,4.7-4.8S387.5,60.5,384.9,60.5z"/>
	<path class="st0" d="M403.2,60.8v12.8h-4.7V60.8h-1.9v-4.1h1.9V51h4.7v5.8h3.3v4.1H403.2z"/>
	<path class="st0" d="M413.7,60.8v12.8H409V60.8h-1.9v-4.1h1.9V51h4.7v5.8h3.3v4.1H413.7z"/>
	<path class="st0" d="M434.1,60.8v12.8h-4.7V60.8h-1.8v-4.1h1.8v-5.4c0-1.4,0.1-2.7,0.7-4c1.1-2.1,3.5-3.4,5.9-3.4
		c1,0,1.6,0.2,2.5,0.6v4.3c-0.7-0.4-1.4-0.6-2.1-0.6c-2.1,0-2.2,2.2-2.2,3.8v4.7h4.4v4.1H434.1z"/>
	<path class="st0" d="M449.4,74.2c-5.4,0-9.7-3.4-9.7-9c0-5.7,4.3-9,9.7-9c5.3,0,9.6,3.4,9.6,9S454.8,74.2,449.4,74.2z M449.4,60.5
		c-2.6,0-4.8,2.1-4.8,4.8c0,2.6,2.2,4.7,4.8,4.7c2.6,0,4.8-2.1,4.8-4.7S452,60.5,449.4,60.5z"/>
	<path class="st0" d="M473.7,61.1c-0.8-0.4-1.4-0.6-2.3-0.6c-3.2,0-4.1,2.3-4.1,5.1v8.1h-4.7V56.8h4.7v2.5c1.1-1.9,2.7-3.1,4.9-3.1
		c0.7,0,1.4,0.1,2.1,0.4L473.7,61.1z"/>
	<path class="st0" d="M498.3,73.7v-9.2c0-2-0.3-4.2-2.8-4.2c-2.8,0-3.2,2.5-3.2,4.8v8.7h-4.7v-9c0-0.9,0-2-0.4-2.8
		c-0.4-1-1.4-1.6-2.5-1.6c-1.1,0-2.1,0.6-2.7,1.5c-0.5,0.9-0.5,2.2-0.5,3.2v8.7h-4.7V56.8h4.7v1.9c1.4-1.6,3-2.5,5.1-2.5
		c2.4,0,4,1.1,5.3,3.1c1.3-2,3.1-3.1,5.5-3.1c1.8,0,3.7,0.8,4.7,2.4c0.8,1.2,0.9,2.7,0.9,4.1v10.9H498.3z"/>
	<path class="st0" d="M520.4,73.7v-2.2c-1.3,1.8-3.3,2.8-5.5,2.8c-5.1,0-8.3-4.2-8.3-9c0-4.7,3.2-8.9,8.2-8.9c2.3,0,4.1,0.9,5.6,2.7
		v-2.1h4.8v16.9H520.4z M516.2,60.5c-2.6,0-4.7,2.1-4.7,4.7s2.1,4.8,4.7,4.8c2.6,0,4.7-2.1,4.7-4.8S518.8,60.5,516.2,60.5z"/>
	<path class="st0" d="M551,73.7l-6.4-7.3l-0.5,0.5v6.7h-4.7V44.5h4.7v18.5l6.3-6.2h6.4l-7.9,7.4l8.5,9.5H551z"/>
	<path class="st0" d="M559.6,73.7V44.5h4.7v29.2H559.6z"/>
	<path class="st0" d="M581.8,73.7v-2.2c-1.3,1.8-3.3,2.8-5.5,2.8c-5.1,0-8.3-4.2-8.3-9c0-4.7,3.2-8.9,8.2-8.9c2.3,0,4.1,0.9,5.6,2.7
		v-2.1h4.8v16.9H581.8z M577.6,60.5c-2.6,0-4.7,2.1-4.7,4.7s2.1,4.8,4.7,4.8c2.6,0,4.7-2.1,4.7-4.8S580.2,60.5,577.6,60.5z"/>
	<path class="st0" d="M602.1,61.1c-0.8-0.4-1.4-0.6-2.3-0.6c-3.2,0-4.1,2.3-4.1,5.1v8.1h-4.7V56.8h4.7v2.5c1.1-1.9,2.7-3.1,4.9-3.1
		c0.7,0,1.4,0.1,2.1,0.4L602.1,61.1z"/>
	<path class="st0" d="M610.7,60.8v12.8H606V60.8h-1.9v-4.1h1.9V51h4.7v5.8h3.3v4.1H610.7z"/>
	<path class="st0" d="M639.1,73.7v-2.2c-1.3,1.8-3.3,2.8-5.5,2.8c-5.1,0-8.3-4.2-8.3-9c0-4.7,3.2-8.9,8.2-8.9c2.3,0,4.1,0.9,5.6,2.7
		V44.5h4.8v29.2H639.1z M634.9,60.5c-2.6,0-4.7,2.1-4.7,4.7s2.1,4.8,4.7,4.8c2.6,0,4.7-2.1,4.7-4.8S637.5,60.5,634.9,60.5z"/>
	<path class="st0" d="M650.7,52.5c-1.6,0-2.8-1.3-2.8-2.8s1.3-2.8,2.8-2.8c1.6,0,2.8,1.3,2.8,2.8S652.3,52.5,650.7,52.5z
		 M648.3,73.7V56.8h4.7v16.9H648.3z"/>
	<path class="st0" d="M662.3,60.8v12.8h-4.7V60.8h-1.9v-4.1h1.9V51h4.7v5.8h3.3v4.1H662.3z"/>
	<path class="st0" d="M672.8,60.8v12.8h-4.7V60.8h-1.9v-4.1h1.9V51h4.7v5.8h3.3v4.1H672.8z"/>
	<path class="st0" d="M699.9,73.7v-9.4c0-2.3-0.5-4.1-3.2-4.1c-2.9,0-3.6,2.1-3.6,4.7v8.7h-4.7V56.8h4.7v2.1
		c1.6-1.8,2.9-2.6,5.3-2.6c1.8,0,3.7,0.6,4.9,2c1.2,1.4,1.3,2.9,1.3,4.7v10.7H699.9z"/>
	<path class="st0" d="M713.2,82.7h-5.3l6.2-11.6l-8-14.4h5.5l5.1,9.6l4.8-9.6h5.4L713.2,82.7z"/>
	<path class="st0" d="M741.1,73.7v-2.2c-1.3,1.8-3.3,2.8-5.5,2.8c-5.1,0-8.3-4.2-8.3-9c0-4.7,3.2-8.9,8.2-8.9c2.3,0,4.1,0.9,5.6,2.7
		v-2.1h4.8v16.9H741.1z M736.9,60.5c-2.6,0-4.7,2.1-4.7,4.7s2.1,4.8,4.7,4.8c2.6,0,4.7-2.1,4.7-4.8S739.5,60.5,736.9,60.5z"/>
	<path class="st0" d="M771.7,73.7v-9.2c0-2.3-0.5-4.2-3.2-4.2c-2.9,0-3.6,2.3-3.6,4.8v8.7h-4.7V44.5h4.7V59c1.4-1.8,3-2.7,5.3-2.7
		c1.8,0,3.7,0.7,4.9,2.1c1.2,1.4,1.3,3,1.3,4.8v10.6H771.7z"/>
	<path class="st0" d="M789.1,74.2c-4.6,0-8.2-2.1-8.2-7.1V56.8h4.7v9.6c0,2.3,1,3.9,3.4,3.9s3.4-1.6,3.4-3.9v-9.6h4.8v10.3
		C797.2,72.1,793.7,74.2,789.1,74.2z"/>
	<path class="st0" d="M807.1,74.2c-2.4,0-4.8-1.1-6.4-2.8l2.5-2.9c1.1,1.1,2.4,2,4,2c1.1,0,2.1-0.7,2.1-1.9c0-2.9-7.5-1.4-7.5-7.1
		c0-3.4,2.8-5.3,6-5.3c2,0,3.9,0.5,5.5,1.8l-2.3,2.8c-0.8-0.6-1.8-1.1-2.8-1.1c-0.8,0-1.8,0.5-1.8,1.4c0,2.5,7.8,1.4,7.8,7.1
		C814.2,72.1,810.8,74.2,807.1,74.2z"/>
	<path class="st0" d="M826.3,61.7V65h-4.8v-6.9c0.4,0.1,0.9,0.2,1.4,0.2c2.4,0,4.9-1.2,4.9-3.9c0-1.7-1.3-3-3-3
		c-1.6,0-2.8,1.2-2.8,2.8c0,0.2,0,0.3,0,0.5H817v-0.5c0-4.3,4-7,8-7c4.2,0,7.9,3,7.9,7.3C832.8,58.4,829.9,60.8,826.3,61.7z
		 M824,74.2c-1.7,0-3.1-1.3-3.1-3c0-1.7,1.4-3,3-3c1.7,0,3.1,1.3,3.1,3C827.1,72.8,825.7,74.2,824,74.2z"/>
</g>
</svg>
