<svg id="Layer_1" data-name="Layer 1" xmlns="http://www.w3.org/2000/svg" viewBox="0 0 980 120"><defs><style>.cls-1{fill:#d4ac76;}</style></defs><title>text</title><path class="cls-1" d="M851.84,56.75v-10h3.3a3,3,0,0,1,2.2.84,2.76,2.76,0,0,1,.87,2.07,2.37,2.37,0,0,1-1.13,2,2.91,2.91,0,0,1,1.11.9,2.13,2.13,0,0,1,.42,1.28,2.75,2.75,0,0,1-.88,2.13,3.16,3.16,0,0,1-2.22.81Zm3.08-8.37h-1.34V50.9h1.5a1.37,1.37,0,0,0,1-.37,1.27,1.27,0,0,0,.38-.93,1.08,1.08,0,0,0-.42-.89A1.78,1.78,0,0,0,854.92,48.38Zm.29,4h-1.63v2.66h1.59a1.6,1.6,0,0,0,1.14-.38,1.26,1.26,0,0,0,.41-1,1.24,1.24,0,0,0-.39-.95A1.59,1.59,0,0,0,855.21,52.41Z"/><path class="cls-1" d="M867,52.5h-3.72v2.57h4.08v1.68h-6v-10h5.85v1.68h-4v2.44H867Z"/><path class="cls-1" d="M872.8,56.88a4.77,4.77,0,0,1-1.9-.4,4.94,4.94,0,0,1-1.63-1.1l1.2-1.43a3.49,3.49,0,0,0,1.11.9,2.75,2.75,0,0,0,1.32.35,1.62,1.62,0,0,0,1.07-.34,1.08,1.08,0,0,0,.42-.87,1.49,1.49,0,0,0-1.1-1.39l-1.12-.45A4.3,4.3,0,0,1,870.5,51a2.58,2.58,0,0,1-.54-1.71,2.61,2.61,0,0,1,.85-1.91,2.92,2.92,0,0,1,2.13-.84,4.38,4.38,0,0,1,3.1,1.15l-1.11,1.4a2.61,2.61,0,0,0-2-.87,1.37,1.37,0,0,0-.9.29.88.88,0,0,0-.34.71A1,1,0,0,0,872,50a2.79,2.79,0,0,0,.87.52l1.17.46a3.13,3.13,0,0,1,2.28,2.9,2.8,2.8,0,0,1-.95,2.2A3.64,3.64,0,0,1,872.8,56.88Z"/><path class="cls-1" d="M877.89,48.51V46.7h8.28v1.81H883v8.24h-1.89V48.51Z"/><path class="cls-1" d="M886.26,56.75l3.87-10h1.71l3.86,10h-1.94l-.53-1.39h-4.5l-.53,1.39Zm3.86-11.08a.8.8,0,0,1-.62.26.82.82,0,0,1-.62-.26.9.9,0,0,1-.25-.65.87.87,0,0,1,.87-.89.8.8,0,0,1,.61.26.86.86,0,0,1,.26.63A.94.94,0,0,1,890.12,45.67Zm.87,3.84-1.61,4.17h3.2Zm2.12-3.84a1,1,0,0,1-1.34,0,.88.88,0,0,1-.27-.65.83.83,0,0,1,.27-.63,1,1,0,0,1,1.34,0,.83.83,0,0,1,.27.63A.88.88,0,0,1,893.11,45.67Z"/><path class="cls-1" d="M897.79,56.75v-10h1.89v8.24h3.69v1.81Z"/><path class="cls-1" d="M905.82,56.75v-10h1.89v8.24h3.69v1.81Z"/><path class="cls-1" d="M851.91,71.75l-3.84-10h2l2.76,7.23,2.72-7.23h1.91l-3.8,10Z"/><path class="cls-1" d="M857.65,71.75l3.87-10h1.7l3.86,10h-1.93l-.54-1.39h-4.49l-.54,1.39Zm4.72-7.24-1.6,4.17H864ZM863.83,60a1.42,1.42,0,0,1-.42,1,1.45,1.45,0,1,1,0-2A1.43,1.43,0,0,1,863.83,60Zm-1.82.37a.51.51,0,0,0,.38.16.47.47,0,0,0,.37-.16.51.51,0,0,0,.15-.37.52.52,0,0,0-.15-.38.51.51,0,0,0-.38-.16.5.5,0,0,0-.37.16.52.52,0,0,0-.15.38A.51.51,0,0,0,862,60.36Z"/><path class="cls-1" d="M869.18,71.75v-10h3.93a3.39,3.39,0,0,1,2.42.91,3.16,3.16,0,0,1,1,2.39,3,3,0,0,1-.72,2,3.21,3.21,0,0,1-1.88,1.07l2.7,3.65h-2.12l-2.61-3.59h-.81v3.59Zm3.64-8.37h-1.76v3.27h1.76a1.88,1.88,0,0,0,1.3-.44,1.5,1.5,0,0,0,.49-1.16,1.57,1.57,0,0,0-.5-1.19A1.77,1.77,0,0,0,872.82,63.38Z"/><path class="cls-1" d="M884.09,71.75v-10h3.31a3,3,0,0,1,2.19.84,2.76,2.76,0,0,1,.87,2.07,2.37,2.37,0,0,1-1.13,2,2.76,2.76,0,0,1,1.11.9,2.13,2.13,0,0,1,.42,1.28,2.75,2.75,0,0,1-.88,2.13,3.13,3.13,0,0,1-2.22.81Zm3.09-8.37h-1.35V65.9h1.5a1.37,1.37,0,0,0,1-.37,1.24,1.24,0,0,0,.39-.93,1.06,1.06,0,0,0-.43-.89A1.75,1.75,0,0,0,887.18,63.38Zm.28,4h-1.63v2.66h1.59a1.6,1.6,0,0,0,1.14-.38,1.24,1.24,0,0,0,.42-1,1.21,1.21,0,0,0-.4-1A1.59,1.59,0,0,0,887.46,67.41Z"/><path class="cls-1" d="M903.35,66.72A5.19,5.19,0,1,1,901.83,63,5,5,0,0,1,903.35,66.72Zm-7.58,2.4a3.31,3.31,0,0,0,4.72,0,3.34,3.34,0,0,0,1-2.41,3.3,3.3,0,0,0-1-2.4,3.28,3.28,0,0,0-4.72,0,3.29,3.29,0,0,0-1,2.4A3.33,3.33,0,0,0,895.77,69.12Z"/><path class="cls-1" d="M906,71.75v-10h1.74v4.43l3.85-4.43h2.33l-3.55,4,3.63,6H911.8l-2.73-4.59-1.35,1.52v3.07Z"/></svg>