<svg id="Layer_1" data-name="Layer 1" xmlns="http://www.w3.org/2000/svg" viewBox="0 0 300 250"><defs><style>.cls-1{fill:#fff;}</style></defs><title>text</title><path class="cls-1" d="M151.8,13.72V25.3c0,.47-.3.7-.9.7s-.9-.23-.9-.7V13.72q0-.72.9-.72T151.8,13.72Zm8,0a1,1,0,0,1-.33.69l-4.92,5.16,5.28,5.16a.65.65,0,0,1,.23.54.86.86,0,0,1-.29.62.89.89,0,0,1-.63.28.91.91,0,0,1-.65-.3l-5-4.84a1.76,1.76,0,0,1,0-2.8l4.74-5a.9.9,0,0,1,.66-.31.84.84,0,0,1,.62.26A.71.71,0,0,1,159.85,13.71Z"/><path class="cls-1" d="M161.48,21.24a11.94,11.94,0,0,1,.22-2.58,2.79,2.79,0,0,1,2.12-2.31,9.16,9.16,0,0,1,2.1-.19,9,9,0,0,1,2.08.19,2.83,2.83,0,0,1,1.36.76,3.27,3.27,0,0,1,.79,1.54,12.72,12.72,0,0,1,.21,2.58,12.58,12.58,0,0,1-.21,2.58,2.83,2.83,0,0,1-.8,1.48A3.05,3.05,0,0,1,168,26a9.53,9.53,0,0,1-2.08.18,10.53,10.53,0,0,1-2.1-.17,2.91,2.91,0,0,1-1.35-.69,2.64,2.64,0,0,1-.78-1.5A12.37,12.37,0,0,1,161.48,21.24Zm2-2.28a4.9,4.9,0,0,0-.22,1.78c0,.86,0,1.53.07,2a2.48,2.48,0,0,0,.51,1.31,1.57,1.57,0,0,0,1.17.41l.9,0c1.16,0,1.85-.14,2.06-.43a2.63,2.63,0,0,0,.52-1.32c0-.49.07-1,.07-1.52,0-1.55-.15-2.49-.44-2.81a3.3,3.3,0,0,0-.34-.37,2.45,2.45,0,0,0-1.41-.27c-.72,0-1.18,0-1.37,0-.61,0-1,.17-1.16.41A4.07,4.07,0,0,0,163.49,19Z"/><path class="cls-1" d="M175.08,18.14a4,4,0,0,0-.33,2.16v5c0,.47-.3.7-.9.7s-.89-.23-.9-.7V20.08a10,10,0,0,1,.18-2.15,1.89,1.89,0,0,1,.7-1.17,2.68,2.68,0,0,1,1.23-.5,18.67,18.67,0,0,1,2.22-.1c1.68,0,2.74.19,3.18.61a2.63,2.63,0,0,1,.78,1.76,13.61,13.61,0,0,1,.07,1.55V25.3c0,.47-.3.7-.9.7s-.9-.23-.9-.7v-5a3.84,3.84,0,0,0-.34-2.15c-.23-.24-.91-.35-2-.35S175.3,17.91,175.08,18.14Z"/><path class="cls-1" d="M190.15,23.06v-.23a.75.75,0,0,0-.47-.69,4,4,0,0,0-1.63-.21,10.56,10.56,0,0,1-2.58-.36,2.14,2.14,0,0,1-1.17-.8,2.56,2.56,0,0,1-.47-1.6V19a2.36,2.36,0,0,1,1-2.25,6.26,6.26,0,0,1,3.06-.58,12.65,12.65,0,0,1,3,.26.8.8,0,0,1,.61.9c0,.49-.2.74-.61.74a10.4,10.4,0,0,1-1.26-.13,14.1,14.1,0,0,0-2-.13,5.32,5.32,0,0,0-1.56.17c-.34.12-.5.45-.5,1v.18q0,1.07,2.22,1.14c.62,0,1.24.08,1.87.15a2.83,2.83,0,0,1,1.58.7,2.06,2.06,0,0,1,.65,1.67v.24a2.68,2.68,0,0,1-1,2.45,6.32,6.32,0,0,1-3.27.65,14.17,14.17,0,0,1-3.23-.26.81.81,0,0,1-.62-.9c0-.49.21-.74.62-.74a13.25,13.25,0,0,1,1.41.13,18.2,18.2,0,0,0,2,.13,4.13,4.13,0,0,0,1.63-.27A1.15,1.15,0,0,0,190.15,23.06Z"/><path class="cls-1" d="M197.6,24.51h1.86a2.78,2.78,0,0,0,.63-.11,1.19,1.19,0,0,0,.51-.31,1.22,1.22,0,0,0,.21-.8c0-.4,0-.82,0-1.28V17c0-.47.3-.71.9-.71s.9.24.9.71v5.22a10.91,10.91,0,0,1-.16,2.16,1.9,1.9,0,0,1-.69,1.16,2.6,2.6,0,0,1-1.21.5,16.71,16.71,0,0,1-2.05.1,16.53,16.53,0,0,1-2-.1,2.6,2.6,0,0,1-1.21-.5,1.89,1.89,0,0,1-.68-1.16,11.74,11.74,0,0,1-.16-2.16V17c0-.47.3-.71.9-.71s.89.24.89.71v5a4,4,0,0,0,.33,2.17,1,1,0,0,0,.42.22A2.6,2.6,0,0,0,197.6,24.51Z"/><path class="cls-1" d="M207.39,13.32v12c0,.47-.3.7-.89.7s-.9-.23-.9-.7v-12q0-.72.9-.72C207.09,12.6,207.39,12.84,207.39,13.32Z"/><path class="cls-1" d="M217.79,24.28c.41,0,.61.25.61.74a.8.8,0,0,1-.61.9,15.31,15.31,0,0,1-3.26.24,5.51,5.51,0,0,1-3.27-.75,2.9,2.9,0,0,1-1-2.49V19.26a2.87,2.87,0,0,1,.89-2.47,9.32,9.32,0,0,1,6.66,0,2.9,2.9,0,0,1,.86,2.5v1.58a1.1,1.1,0,0,1-.26.77.9.9,0,0,1-.68.27h-5.68v1.17c0,1,.86,1.47,2.57,1.47a14.15,14.15,0,0,0,2-.12A10.42,10.42,0,0,1,217.79,24.28Zm-5.73-5v1h4.83v-1a1.29,1.29,0,0,0-.49-1.17,4.11,4.11,0,0,0-1.91-.3,4.38,4.38,0,0,0-1.91.28A1.27,1.27,0,0,0,212.06,19.27Z"/><path class="cls-1" d="M223.51,18.14a4,4,0,0,0-.33,2.16v5c0,.47-.3.7-.9.7s-.89-.23-.9-.7V20.08a10.81,10.81,0,0,1,.17-2.15,2,2,0,0,1,.71-1.17,2.68,2.68,0,0,1,1.23-.5,18.67,18.67,0,0,1,2.22-.1c1.67,0,2.74.19,3.18.61a2.63,2.63,0,0,1,.78,1.76,13.61,13.61,0,0,1,.07,1.55V25.3c0,.47-.3.7-.9.7s-.9-.23-.9-.7v-5a3.84,3.84,0,0,0-.34-2.15c-.23-.24-.91-.35-2.06-.35S223.73,17.91,223.51,18.14Z"/><path class="cls-1" d="M235.88,26a2.51,2.51,0,0,1-1.9-.58,3,3,0,0,1-.54-2V17.9h-1.26c-.4,0-.61-.26-.61-.79s.21-.79.61-.79h1.26V13.78c0-.47.3-.7.9-.7s.9.23.9.7v2.54h2.54c.41,0,.61.27.61.79s-.2.79-.61.79h-2.54v5.64c0,.55.32.82,1,.82l1.7-.1q.63,0,.63.72a.93.93,0,0,1-.65,1Q237.25,26,235.88,26Z"/><path class="cls-1" d="M247.82,24.28c.41,0,.62.25.62.74a.81.81,0,0,1-.62.9,15.13,15.13,0,0,1-3.25.24,5.51,5.51,0,0,1-3.27-.75,2.93,2.93,0,0,1-1-2.49V19.26a2.85,2.85,0,0,1,.9-2.47,9.32,9.32,0,0,1,6.66,0,2.9,2.9,0,0,1,.86,2.5v1.58a1.1,1.1,0,0,1-.26.77.9.9,0,0,1-.68.27H242.1v1.17c0,1,.86,1.47,2.57,1.47a14.15,14.15,0,0,0,2-.12A10.51,10.51,0,0,1,247.82,24.28Zm-5.72-5v1h4.83v-1a1.29,1.29,0,0,0-.49-1.17,4.11,4.11,0,0,0-1.91-.3,4.38,4.38,0,0,0-1.91.28A1.27,1.27,0,0,0,242.1,19.27Z"/><path class="cls-1" d="M253.55,18.14a4,4,0,0,0-.34,2.16v5c0,.47-.29.7-.89.7s-.9-.23-.9-.7V20.08a10.81,10.81,0,0,1,.17-2.15,1.91,1.91,0,0,1,.71-1.17,2.68,2.68,0,0,1,1.23-.5,18.59,18.59,0,0,1,2.21-.1c1.68,0,2.75.19,3.19.61a2.63,2.63,0,0,1,.78,1.76c0,.42.07.94.07,1.55V25.3c0,.47-.3.7-.9.7s-.9-.23-.9-.7v-5a3.84,3.84,0,0,0-.34-2.15c-.23-.24-.92-.35-2.06-.35S253.77,17.91,253.55,18.14Z"/><path class="cls-1" d="M270,24.28c.41,0,.62.25.62.74a.81.81,0,0,1-.62.9,15.2,15.2,0,0,1-3.25.24,5.51,5.51,0,0,1-3.27-.75,2.93,2.93,0,0,1-1-2.49V19.26a2.85,2.85,0,0,1,.9-2.47,9.32,9.32,0,0,1,6.66,0,2.93,2.93,0,0,1,.86,2.5v1.58a1.15,1.15,0,0,1-.26.77.9.9,0,0,1-.68.27h-5.68v1.17c0,1,.86,1.47,2.57,1.47a14.15,14.15,0,0,0,1.95-.12A10.11,10.11,0,0,1,270,24.28Zm-5.72-5v1h4.82v-1a1.28,1.28,0,0,0-.48-1.17,4.14,4.14,0,0,0-1.91-.3,4.35,4.35,0,0,0-1.91.28A1.27,1.27,0,0,0,264.29,19.27Z"/><path class="cls-1" d="M149.48,38a1,1,0,0,1,.3-.7,1,1,0,0,1,.68-.3.92.92,0,0,1,.69.3,1,1,0,0,1,.29.71.91.91,0,0,1-.3.68,1,1,0,0,1-1.37,0A.94.94,0,0,1,149.48,38Zm1.88,3V49.3c0,.47-.3.7-.9.7s-.9-.23-.9-.7V41c0-.47.3-.71.9-.71S151.36,40.55,151.36,41Z"/><path class="cls-1" d="M164,50h-4.89c-.41,0-.61-.26-.61-.79s.2-.79.61-.79h1.55V38.58h-1.55c-.41,0-.61-.26-.61-.79s.2-.79.61-.79H164c.41,0,.61.27.61.79s-.2.79-.61.79h-1.55v9.84H164c.41,0,.61.26.61.79S164.38,50,164,50Z"/><path class="cls-1" d="M168.87,42.14a4,4,0,0,0-.33,2.16v5c0,.47-.3.7-.9.7s-.89-.23-.9-.7V44.08a10,10,0,0,1,.18-2.15,1.89,1.89,0,0,1,.7-1.17,2.68,2.68,0,0,1,1.23-.5,18.67,18.67,0,0,1,2.22-.1c1.68,0,2.74.19,3.18.61a2.63,2.63,0,0,1,.78,1.76,13.61,13.61,0,0,1,.07,1.55V49.3c0,.47-.3.7-.9.7s-.9-.23-.9-.7v-5a3.84,3.84,0,0,0-.34-2.15c-.23-.24-.91-.35-2.05-.35S169.09,41.91,168.87,42.14Z"/><path class="cls-1" d="M180,42.14a4,4,0,0,0-.33,2.16v5c0,.47-.3.7-.89.7s-.9-.23-.91-.7V44.08a10,10,0,0,1,.18-2.15,1.89,1.89,0,0,1,.7-1.17,2.68,2.68,0,0,1,1.23-.5,18.67,18.67,0,0,1,2.22-.1c1.68,0,2.74.19,3.18.61a2.63,2.63,0,0,1,.78,1.76,13.61,13.61,0,0,1,.07,1.55V49.3c0,.47-.3.7-.9.7s-.89-.23-.89-.7v-5a3.8,3.8,0,0,0-.35-2.15c-.23-.24-.91-.35-2.05-.35S180.24,41.91,180,42.14Z"/><path class="cls-1" d="M189,45.24a11.94,11.94,0,0,1,.22-2.58,2.79,2.79,0,0,1,2.12-2.31,9.16,9.16,0,0,1,2.1-.19,9,9,0,0,1,2.08.19,2.83,2.83,0,0,1,1.36.76,3.27,3.27,0,0,1,.79,1.54,12.72,12.72,0,0,1,.21,2.58,12.58,12.58,0,0,1-.21,2.58,2.83,2.83,0,0,1-.8,1.48,3.05,3.05,0,0,1-1.35.69,9.53,9.53,0,0,1-2.08.18,10.53,10.53,0,0,1-2.1-.17A2.91,2.91,0,0,1,190,49.3a2.64,2.64,0,0,1-.78-1.5A12.37,12.37,0,0,1,189,45.24ZM191,43a4.9,4.9,0,0,0-.22,1.78c0,.86,0,1.53.07,2a2.48,2.48,0,0,0,.51,1.31,1.57,1.57,0,0,0,1.17.41l.9,0c1.17,0,1.85-.14,2.06-.43a2.63,2.63,0,0,0,.52-1.32c0-.49.07-1,.07-1.52,0-1.55-.15-2.49-.44-2.81a3.3,3.3,0,0,0-.34-.37,2.45,2.45,0,0,0-1.41-.27c-.72,0-1.18,0-1.37,0-.61,0-1,.17-1.16.41A4.07,4.07,0,0,0,191,43Z"/><path class="cls-1" d="M203.15,40.22v.1h2.54c.41,0,.61.27.61.79s-.2.79-.61.79h-2.54v7.4c0,.47-.3.7-.9.7s-.9-.23-.9-.7V41.9h-1.29c-.41,0-.61-.26-.61-.79s.2-.79.61-.79h1.29V40a3.8,3.8,0,0,1,.7-2.72,3.91,3.91,0,0,1,2.64-.66,5.44,5.44,0,0,1,1.74.18.62.62,0,0,1,.44.61.88.88,0,0,1-.25.68.89.89,0,0,1-.61.23l-1.32-.06a1.65,1.65,0,0,0-1.26.34A2.94,2.94,0,0,0,203.15,40.22Z"/><path class="cls-1" d="M208.93,42.06c-.42,0-.63-.25-.63-.74a.81.81,0,0,1,.63-.9,13.7,13.7,0,0,1,3.24-.26,4.76,4.76,0,0,1,3.07.72,3.25,3.25,0,0,1,.81,2.52v3.86a2.61,2.61,0,0,1-.88,2.35,7.12,7.12,0,0,1-3.37.55,6.85,6.85,0,0,1-3.33-.55c-.57-.36-.85-1.15-.85-2.34a3.54,3.54,0,0,1,.65-2.47,3.68,3.68,0,0,1,2.66-.68h3.32v-1a1.13,1.13,0,0,0-.46-1,3.43,3.43,0,0,0-1.63-.27,13.35,13.35,0,0,0-2,.13A7.4,7.4,0,0,1,208.93,42.06Zm5.32,5.34V45.7h-2.78a3.45,3.45,0,0,0-1.67.26c-.26.17-.38.55-.38,1.15s.16,1,.47,1.16a5,5,0,0,0,1.91.25,5.73,5.73,0,0,0,1.93-.22A.89.89,0,0,0,214.25,47.4Z"/><path class="cls-1" d="M225.85,42.06a4.45,4.45,0,0,1-1-.13A10.29,10.29,0,0,0,223,41.8a4.16,4.16,0,0,0-1.82.3,1.23,1.23,0,0,0-.6,1.2V47c0,1,.86,1.48,2.57,1.48a10.22,10.22,0,0,0,1.76-.13,5.33,5.33,0,0,1,1-.13c.42,0,.63.25.63.74a.81.81,0,0,1-.63.9,13.17,13.17,0,0,1-3.06.26,5.07,5.07,0,0,1-3.06-.75,2.93,2.93,0,0,1-1-2.49V43.26a2.78,2.78,0,0,1,.94-2.46,5.63,5.63,0,0,1,3.08-.64,10.58,10.58,0,0,1,3.1.32.78.78,0,0,1,.63.86Q226.48,42.06,225.85,42.06Z"/><path class="cls-1" d="M232,50a2.54,2.54,0,0,1-1.91-.58,3,3,0,0,1-.54-2V41.9h-1.26c-.4,0-.6-.26-.6-.79s.2-.79.6-.79h1.26V37.78c0-.47.3-.7.9-.7s.9.23.9.7v2.54h2.55c.4,0,.6.27.6.79s-.2.79-.6.79h-2.55v5.64c0,.55.32.82,1,.82l1.69-.1q.63,0,.63.72a.92.92,0,0,1-.64,1Q233.39,50,232,50Z"/><path class="cls-1" d="M236.24,45.24a12.61,12.61,0,0,1,.22-2.58,2.79,2.79,0,0,1,2.13-2.31,11.59,11.59,0,0,1,4.18,0,2.8,2.8,0,0,1,1.35.76,3.1,3.1,0,0,1,.79,1.54,11.94,11.94,0,0,1,.22,2.58,11.82,11.82,0,0,1-.22,2.58,2.69,2.69,0,0,1-.8,1.48,3,3,0,0,1-1.34.69,9.63,9.63,0,0,1-2.09.18,10.42,10.42,0,0,1-2.09-.17,2.91,2.91,0,0,1-1.35-.69,2.71,2.71,0,0,1-.79-1.5A12.37,12.37,0,0,1,236.24,45.24Zm2-2.28a5.2,5.2,0,0,0-.21,1.78c0,.86,0,1.53.07,2a2.39,2.39,0,0,0,.5,1.31,1.57,1.57,0,0,0,1.17.41l.9,0c1.17,0,1.86-.14,2.07-.43a2.62,2.62,0,0,0,.51-1.32,14.91,14.91,0,0,0,.07-1.52c0-1.55-.14-2.49-.44-2.81a2.1,2.1,0,0,0-.34-.37,2.39,2.39,0,0,0-1.4-.27c-.72,0-1.18,0-1.38,0-.61,0-1,.17-1.16.41A6.15,6.15,0,0,0,238.25,43Z"/><path class="cls-1" d="M249.51,44.32v5c0,.47-.29.7-.89.7s-.9-.23-.9-.7V44.08a6.09,6.09,0,0,1,.32-2.49,3.3,3.3,0,0,1,.59-.85c.43-.39,1.5-.58,3.22-.58a5.57,5.57,0,0,1,1.74.17A.65.65,0,0,1,254,41a.94.94,0,0,1-.25.69.8.8,0,0,1-.61.22l-1.32-.08a6,6,0,0,0-1.54.12,1.17,1.17,0,0,0-.44.22,1.54,1.54,0,0,0-.22.45,2.4,2.4,0,0,0-.13.7C249.52,43.54,249.51,43.88,249.51,44.32Z"/><path class="cls-1" d="M159.15,74q-.81,0-1-.54l-1.32-3.7h-5.08l-1.34,3.7q-.18.54-1,.54c-.55,0-.83-.25-.83-.74a.79.79,0,0,1,.06-.32l4-10.88a1.62,1.62,0,0,1,.61-.83,1.58,1.58,0,0,1,1-.33,1.53,1.53,0,0,1,1,.33,1.81,1.81,0,0,1,.61.83l4,10.88.06.32C160,73.75,159.69,74,159.15,74ZM154.3,62.68l-2,5.5h4l-2-5.5Z"/><path class="cls-1" d="M171.1,70.14a3.7,3.7,0,0,1-1.18,3,6.42,6.42,0,0,1-4,1,15.27,15.27,0,0,1-3.19-.26c-.76-.17-1.13-.5-1.12-1a.9.9,0,0,1,.19-.6.6.6,0,0,1,.48-.24,8.8,8.8,0,0,1,1.34.22,10.25,10.25,0,0,0,2.15.22,5.79,5.79,0,0,0,2.77-.47,1.86,1.86,0,0,0,.77-1.72,1.8,1.8,0,0,0-.39-1.23,2,2,0,0,0-1-.58c-.44-.08-.93-.15-1.47-.2a9,9,0,0,1-3.1-.71,2.49,2.49,0,0,1-1.09-1.11,4.18,4.18,0,0,1-.42-2A3.18,3.18,0,0,1,163,61.7a7.51,7.51,0,0,1,4.11-.84,11.48,11.48,0,0,1,2.74.24c.6.16.89.44.89.85a.79.79,0,0,1-.21.57.76.76,0,0,1-.58.2,11.25,11.25,0,0,1-1.39-.14,14.12,14.12,0,0,0-1.77-.14,4.87,4.87,0,0,0-2.51.46,1.58,1.58,0,0,0-.69,1.4,1.87,1.87,0,0,0,1.6,2,10.21,10.21,0,0,0,1.47.25,9.88,9.88,0,0,1,3,.68,2.24,2.24,0,0,1,1.05,1A3.84,3.84,0,0,1,171.1,70.14Z"/><path class="cls-1" d="M186.11,72.28c.41,0,.61.25.61.74a.8.8,0,0,1-.61.9,15.31,15.31,0,0,1-3.26.24,5.51,5.51,0,0,1-3.27-.75,2.9,2.9,0,0,1-1-2.49V67.26a2.85,2.85,0,0,1,.89-2.47,9.32,9.32,0,0,1,6.66,0,2.9,2.9,0,0,1,.86,2.5v1.58a1.1,1.1,0,0,1-.26.77.9.9,0,0,1-.68.27h-5.68v1.17c0,1,.86,1.47,2.57,1.47a14.15,14.15,0,0,0,2-.12A10.42,10.42,0,0,1,186.11,72.28Zm-5.73-5v1h4.83v-1a1.29,1.29,0,0,0-.49-1.17,4.11,4.11,0,0,0-1.91-.3,4.38,4.38,0,0,0-1.91.28A1.27,1.27,0,0,0,180.38,67.27Z"/><path class="cls-1" d="M191.5,68.32v5c0,.47-.3.7-.9.7s-.89-.23-.9-.7V68.08a6.27,6.27,0,0,1,.32-2.49,3.3,3.3,0,0,1,.59-.85c.43-.39,1.5-.58,3.22-.58a5.49,5.49,0,0,1,1.74.17A.65.65,0,0,1,196,65a.9.9,0,0,1-.25.69.8.8,0,0,1-.61.22l-1.32-.08a5.81,5.81,0,0,0-1.53.12,1.32,1.32,0,0,0-.45.22,1.54,1.54,0,0,0-.22.45,2.1,2.1,0,0,0-.12.7C191.5,67.54,191.5,67.88,191.5,68.32Z"/><path class="cls-1" d="M206,74.1a1.56,1.56,0,0,1-1-.32,1.81,1.81,0,0,1-.6-.82l-2.84-7.62c0-.2-.06-.31-.06-.32,0-.47.29-.7.86-.7a.84.84,0,0,1,.88.52L206,72.36h.1l2.68-7.52c.13-.34.45-.52,1-.52s.77.23.77.7c0,0,0,.12-.06.32L207.57,73a1.69,1.69,0,0,1-.61.83A1.65,1.65,0,0,1,206,74.1Z"/><path class="cls-1" d="M219.9,72.28c.41,0,.62.25.62.74a.81.81,0,0,1-.62.9,15.13,15.13,0,0,1-3.25.24,5.51,5.51,0,0,1-3.27-.75,2.93,2.93,0,0,1-1-2.49V67.26a2.85,2.85,0,0,1,.9-2.47,9.32,9.32,0,0,1,6.66,0,2.9,2.9,0,0,1,.86,2.5v1.58a1.1,1.1,0,0,1-.26.77.9.9,0,0,1-.68.27h-5.68v1.17c0,1,.86,1.47,2.57,1.47a14.15,14.15,0,0,0,1.95-.12A10.51,10.51,0,0,1,219.9,72.28Zm-5.72-5v1H219v-1a1.29,1.29,0,0,0-.49-1.17,4.11,4.11,0,0,0-1.91-.3,4.38,4.38,0,0,0-1.91.28A1.27,1.27,0,0,0,214.18,67.27Z"/><path class="cls-1" d="M225.46,61.32v12c0,.47-.3.7-.9.7s-.9-.23-.9-.7v-12q0-.72.9-.72T225.46,61.32Z"/><path class="cls-1" d="M237.18,61.32v7.92A11.62,11.62,0,0,1,237,71.8a2.71,2.71,0,0,1-.79,1.49,3,3,0,0,1-1.32.69,9.46,9.46,0,0,1-2.08.18,10.42,10.42,0,0,1-2.09-.17,2.91,2.91,0,0,1-1.35-.69,2.71,2.71,0,0,1-.79-1.5,14,14,0,0,1-.21-2.56,12.61,12.61,0,0,1,.22-2.58,2.79,2.79,0,0,1,2.13-2.31,10.27,10.27,0,0,1,2.31-.19,6,6,0,0,1,2.39.39V61.32q0-.72.9-.72T237.18,61.32ZM230.34,67a5.2,5.2,0,0,0-.21,1.78c0,.85,0,1.53.07,2a2.39,2.39,0,0,0,.5,1.31,1.57,1.57,0,0,0,1.17.41l.9,0c1.17,0,1.86-.14,2.07-.43a2.62,2.62,0,0,0,.51-1.32,14.91,14.91,0,0,0,.07-1.52c0-1.55-.14-2.49-.44-2.81a2.1,2.1,0,0,0-.34-.37,2.39,2.39,0,0,0-1.4-.27c-.72,0-1.18,0-1.38,0-.61,0-1,.17-1.16.41A6.15,6.15,0,0,0,230.34,67Z"/><path class="cls-1" d="M240,62a1,1,0,0,1,.3-.7A1,1,0,0,1,241,61a.92.92,0,0,1,.69.3,1,1,0,0,1,.29.71.91.91,0,0,1-.3.68,1,1,0,0,1-1.37,0A1,1,0,0,1,240,62Zm1.88,3V73.3c0,.47-.3.7-.9.7s-.9-.23-.9-.7V65c0-.47.3-.71.9-.71S241.85,64.55,241.85,65Z"/><path class="cls-1" d="M251.83,63.21c0-.42.3-.64.9-.64s.9.22.9.66v4.24a2.71,2.71,0,0,1-.95,2.47,6.15,6.15,0,0,1-3.15.6,15.15,15.15,0,0,1-2.94-.18V71.9h3.65a4.06,4.06,0,0,1,2.78.71,3.31,3.31,0,0,1,.72,2.4,2.54,2.54,0,0,1-1,2.31,6.86,6.86,0,0,1-3.47.63,7.64,7.64,0,0,1-3.49-.57,2.41,2.41,0,0,1-1-2.32V67.2a3.32,3.32,0,0,1,.55-2.18,3.06,3.06,0,0,1,2.12-.77,17.25,17.25,0,0,1,4.36.21Zm-5.24,4.22c0,.72.14,1.15.4,1.3a4.9,4.9,0,0,0,1.93.23A8.53,8.53,0,0,0,251,68.8a1,1,0,0,0,.69-.49,3,3,0,0,0,.14-1.08V66a21.19,21.19,0,0,0-2.86-.2,4,4,0,0,0-1.84.29,1.3,1.3,0,0,0-.54,1.22Zm0,6v1.65a1,1,0,0,0,.65,1,6,6,0,0,0,2.11.27,4.51,4.51,0,0,0,2-.29,1.21,1.21,0,0,0,.51-1.14,1.24,1.24,0,0,0-.48-1.14,3.52,3.52,0,0,0-1.77-.31Z"/><path class="cls-1" d="M158.17,85.32v7.92A12.26,12.26,0,0,1,158,95.8a2.78,2.78,0,0,1-.79,1.49,3,3,0,0,1-1.33.69,9.36,9.36,0,0,1-2.07.18,10.35,10.35,0,0,1-2.09-.17,2.86,2.86,0,0,1-1.35-.69,2.65,2.65,0,0,1-.79-1.5,14,14,0,0,1-.21-2.56,11.94,11.94,0,0,1,.22-2.58,2.79,2.79,0,0,1,2.13-2.31,10.23,10.23,0,0,1,2.3-.19,6.06,6.06,0,0,1,2.4.39V85.32q0-.72.9-.72T158.17,85.32ZM151.33,91a5.2,5.2,0,0,0-.21,1.78q0,1.28.06,2a2.48,2.48,0,0,0,.51,1.31,1.57,1.57,0,0,0,1.17.41l.9,0c1.17,0,1.86-.14,2.06-.43a2.54,2.54,0,0,0,.52-1.32c0-.49.07-1,.07-1.52,0-1.55-.15-2.49-.44-2.81a2.56,2.56,0,0,0-.34-.37,2.43,2.43,0,0,0-1.41-.27c-.72,0-1.18,0-1.37,0-.61,0-1,.17-1.16.41A4.07,4.07,0,0,0,151.33,91Z"/><path class="cls-1" d="M163.37,101.9c-.51,0-.77-.23-.78-.7,0,0,0-.12.07-.32L163.73,98a1.65,1.65,0,0,1-1-1l-2.85-7.62c0-.2,0-.31,0-.32,0-.47.25-.71.77-.71a.9.9,0,0,1,1,.53l2.69,7.52h.1l2.67-7.52a.92.92,0,0,1,1-.52c.51,0,.77.23.77.7,0,0,0,.12-.06.32l-4.39,12A.92.92,0,0,1,163.37,101.9Z"/><path class="cls-1" d="M172.35,85.32V93l4.47-4.52a.93.93,0,0,1,.66-.31.86.86,0,0,1,.63.26.76.76,0,0,1,.25.58.94.94,0,0,1-.32.67l-2.58,2.4,3.18,4.44a1,1,0,0,1,.2.6.78.78,0,0,1-.28.59,1,1,0,0,1-.67.27.66.66,0,0,1-.58-.32l-3.13-4.38L172.35,95V97.3c0,.47-.3.7-.9.7s-.9-.23-.9-.7v-12c0-.48.31-.72.9-.72S172.35,84.84,172.35,85.32Z"/><path class="cls-1" d="M183.79,98a2.55,2.55,0,0,1-1.9-.58,3,3,0,0,1-.54-2V89.9h-1.26c-.4,0-.61-.26-.61-.79s.21-.79.61-.79h1.26V85.78c0-.47.3-.7.9-.7s.9.23.9.7v2.54h2.54c.41,0,.61.27.61.79s-.2.79-.61.79h-2.54v5.64c0,.55.32.82,1,.82l1.7-.1q.63,0,.63.72a.92.92,0,0,1-.65,1Q185.16,98,183.79,98Z"/><path class="cls-1" d="M188.38,86a1,1,0,0,1,.29-.7,1,1,0,0,1,.69-.3.93.93,0,0,1,.69.3,1,1,0,0,1,.28.71,1,1,0,0,1-1,1,.94.94,0,0,1-.7-.29A1,1,0,0,1,188.38,86Zm1.88,3V97.3c0,.47-.3.7-.9.7s-.9-.23-.9-.7V89c0-.47.3-.71.9-.71S190.26,88.55,190.26,89Z"/><path class="cls-1" d="M200.24,87.21c0-.42.3-.64.89-.64s.9.22.9.66v4.24a2.71,2.71,0,0,1-.94,2.47,6.2,6.2,0,0,1-3.15.6,15.15,15.15,0,0,1-2.94-.18V95.9h3.65a4.08,4.08,0,0,1,2.78.71,3.31,3.31,0,0,1,.72,2.4,2.52,2.52,0,0,1-1,2.31,6.79,6.79,0,0,1-3.46.63,7.61,7.61,0,0,1-3.49-.57,2.41,2.41,0,0,1-1-2.32V91.2a3.32,3.32,0,0,1,.55-2.18,3,3,0,0,1,2.12-.77,17.28,17.28,0,0,1,4.36.21ZM195,91.43c0,.72.14,1.15.4,1.3a4.86,4.86,0,0,0,1.93.23,8.53,8.53,0,0,0,2.08-.16,1,1,0,0,0,.69-.49,3,3,0,0,0,.14-1.08V90a21.19,21.19,0,0,0-2.86-.2,4,4,0,0,0-1.84.29,1.3,1.3,0,0,0-.54,1.22Zm0,6v1.65a1,1,0,0,0,.65,1,6,6,0,0,0,2.11.27,4.51,4.51,0,0,0,2-.29,1.55,1.55,0,0,0,0-2.28,3.48,3.48,0,0,0-1.76-.31Z"/><path class="cls-1" d="M211.86,96.28c.41,0,.61.25.61.74a.8.8,0,0,1-.61.9,15.26,15.26,0,0,1-3.25.24,5.52,5.52,0,0,1-3.28-.75,2.93,2.93,0,0,1-1-2.49V91.26a2.85,2.85,0,0,1,.9-2.47,6.23,6.23,0,0,1,3.35-.63,6.31,6.31,0,0,1,3.31.6,2.93,2.93,0,0,1,.86,2.5v1.58a1.16,1.16,0,0,1-.27.77.87.87,0,0,1-.67.27h-5.69v1.17c0,1,.86,1.47,2.57,1.47a14.41,14.41,0,0,0,2-.12A10.11,10.11,0,0,1,211.86,96.28Zm-5.73-5v1H211v-1a1.27,1.27,0,0,0-.49-1.17,4.09,4.09,0,0,0-1.9-.3,4.41,4.41,0,0,0-1.92.28A1.27,1.27,0,0,0,206.13,91.27Z"/><path class="cls-1" d="M215.75,99.72v-3a.86.86,0,0,1,.27-.63.78.78,0,0,1,.63-.27.87.87,0,0,1,.64.27.85.85,0,0,1,.26.63v3a.83.83,0,0,1-.27.63.93.93,0,0,1-.65.25.85.85,0,0,1-.62-.26A.84.84,0,0,1,215.75,99.72Z"/><path class="cls-1" d="M151.17,109.32V117l4.48-4.52a.93.93,0,0,1,.66-.31.86.86,0,0,1,.63.26.76.76,0,0,1,.25.58.94.94,0,0,1-.32.67l-2.58,2.4,3.18,4.44a1.05,1.05,0,0,1,.2.6.8.8,0,0,1-.29.59.93.93,0,0,1-.66.27.69.69,0,0,1-.59-.32L153,117.32l-1.84,1.7v2.28c0,.47-.29.7-.89.7s-.9-.23-.9-.7v-12q0-.72.9-.72C150.88,108.6,151.17,108.84,151.17,109.32Z"/><path class="cls-1" d="M160.3,114.06c-.41,0-.62-.25-.62-.74a.81.81,0,0,1,.62-.9,13.86,13.86,0,0,1,3.25-.26,4.71,4.71,0,0,1,3.06.72,3.25,3.25,0,0,1,.81,2.52v3.86c0,1.2-.29,2-.88,2.35a7,7,0,0,1-3.36.55,6.92,6.92,0,0,1-3.34-.55c-.56-.36-.84-1.15-.84-2.34a3.59,3.59,0,0,1,.64-2.47,3.71,3.71,0,0,1,2.67-.68h3.32v-1a1.13,1.13,0,0,0-.46-1,3.46,3.46,0,0,0-1.63-.27,13.35,13.35,0,0,0-2,.13A7.49,7.49,0,0,1,160.3,114.06Zm5.33,5.34v-1.7h-2.78a3.53,3.53,0,0,0-1.68.26c-.25.17-.38.55-.38,1.15s.16,1,.48,1.16a5,5,0,0,0,1.91.25,5.77,5.77,0,0,0,1.93-.22A.89.89,0,0,0,165.63,119.4Z"/><path class="cls-1" d="M170.19,125.2v-8.12a11.68,11.68,0,0,1,.22-2.56,2.74,2.74,0,0,1,2.12-2.19,9.5,9.5,0,0,1,2.08-.17,9.66,9.66,0,0,1,2.09.17,3.09,3.09,0,0,1,1.36.69,2.71,2.71,0,0,1,.78,1.5,12.52,12.52,0,0,1,.2,2.57,11.88,11.88,0,0,1-.22,2.58,2.77,2.77,0,0,1-2.11,2.3,11.08,11.08,0,0,1-2.32.19,6.08,6.08,0,0,1-2.41-.39v3.44c0,.46-.29.7-.89.7S170.19,125.67,170.19,125.2Zm6.84-5.82a4.89,4.89,0,0,0,.22-1.79c0-.86,0-1.54-.07-2a2.6,2.6,0,0,0-.5-1.33q-.31-.42-2.07-.42c-1.18,0-1.87.14-2.08.42a2.62,2.62,0,0,0-.52,1.35c0,.49-.06,1-.06,1.51s0,1,0,1.3.08.65.12.9a1.73,1.73,0,0,0,.62,1,1.31,1.31,0,0,0,.8.25l1.13,0,.85,0a4.9,4.9,0,0,0,.65-.11.81.81,0,0,0,.52-.31A4.86,4.86,0,0,0,177,119.38Z"/><path class="cls-1" d="M182.7,114.06c-.42,0-.63-.25-.63-.74a.81.81,0,0,1,.63-.9,13.7,13.7,0,0,1,3.24-.26,4.76,4.76,0,0,1,3.07.72,3.25,3.25,0,0,1,.81,2.52v3.86a2.6,2.6,0,0,1-.88,2.35,7.12,7.12,0,0,1-3.37.55,6.85,6.85,0,0,1-3.33-.55c-.57-.36-.85-1.15-.85-2.34a3.54,3.54,0,0,1,.65-2.47,3.67,3.67,0,0,1,2.66-.68H188v-1a1.13,1.13,0,0,0-.46-1,3.43,3.43,0,0,0-1.63-.27,13.35,13.35,0,0,0-2,.13A7.4,7.4,0,0,1,182.7,114.06ZM188,119.4v-1.7h-2.78a3.45,3.45,0,0,0-1.67.26c-.26.17-.38.55-.38,1.15s.15,1,.47,1.16a5,5,0,0,0,1.91.25,5.73,5.73,0,0,0,1.93-.22A.89.89,0,0,0,188,119.4Z"/><path class="cls-1" d="M192.58,117.24v-7.92q0-.72.9-.72t.9.72v3.23a6,6,0,0,1,2.4-.39,10.43,10.43,0,0,1,2.32.19,2.84,2.84,0,0,1,1.35.76,3.17,3.17,0,0,1,.78,1.54,12.87,12.87,0,0,1,.21,2.6,13.42,13.42,0,0,1-.2,2.57,2.69,2.69,0,0,1-.79,1.47,2.91,2.91,0,0,1-1.35.69,9.73,9.73,0,0,1-2.1.18,10.17,10.17,0,0,1-2.08-.17,2.79,2.79,0,0,1-1.33-.69,2.91,2.91,0,0,1-.79-1.5A11.62,11.62,0,0,1,192.58,117.24Zm7.06.41c0-.86,0-1.54-.07-2.05a2.68,2.68,0,0,0-.5-1.37c-.19-.29-.88-.43-2.07-.43a3.78,3.78,0,0,0-1.88.27,1.6,1.6,0,0,0-.6.9,10.89,10.89,0,0,0-.18,2c0,.7,0,1.3.07,1.8a2.53,2.53,0,0,0,.51,1.33,1.61,1.61,0,0,0,1.19.41l.89,0,.89,0a4.76,4.76,0,0,0,.66-.11.86.86,0,0,0,.52-.29,4.65,4.65,0,0,0,.36-.7A5,5,0,0,0,199.64,117.65Z"/><path class="cls-1" d="M206,109.32v12c0,.47-.3.7-.9.7s-.9-.23-.9-.7v-12q0-.72.9-.72T206,109.32Z"/><path class="cls-1" d="M216.41,120.28c.41,0,.61.25.61.74a.8.8,0,0,1-.61.9,15.26,15.26,0,0,1-3.25.24,5.52,5.52,0,0,1-3.28-.75,3,3,0,0,1-1-2.49v-3.66a2.85,2.85,0,0,1,.9-2.47,9.32,9.32,0,0,1,6.66,0,2.93,2.93,0,0,1,.86,2.5v1.58a1.16,1.16,0,0,1-.27.77.87.87,0,0,1-.67.27h-5.68v1.17c0,1,.85,1.47,2.56,1.47a14.41,14.41,0,0,0,2-.12A10.11,10.11,0,0,1,216.41,120.28Zm-5.72-5v1h4.82v-1a1.27,1.27,0,0,0-.49-1.17,4.09,4.09,0,0,0-1.9-.3,4.41,4.41,0,0,0-1.92.28A1.25,1.25,0,0,0,210.69,115.27Z"/><path class="cls-1" d="M224.72,117.24a11.94,11.94,0,0,1,.22-2.58,2.79,2.79,0,0,1,2.13-2.31,9.07,9.07,0,0,1,2.09-.19,9,9,0,0,1,2.08.19,2.83,2.83,0,0,1,1.36.76,3.18,3.18,0,0,1,.79,1.54,12.61,12.61,0,0,1,.22,2.58,12.48,12.48,0,0,1-.22,2.58,2.76,2.76,0,0,1-.8,1.48,3,3,0,0,1-1.35.69,9.53,9.53,0,0,1-2.08.18,10.35,10.35,0,0,1-2.09-.17,2.91,2.91,0,0,1-1.35-.69,2.65,2.65,0,0,1-.79-1.5A12.37,12.37,0,0,1,224.72,117.24Zm2-2.28a5.2,5.2,0,0,0-.21,1.78q0,1.28.06,2a2.48,2.48,0,0,0,.51,1.31,1.57,1.57,0,0,0,1.17.41l.9,0c1.17,0,1.86-.14,2.06-.43a2.54,2.54,0,0,0,.52-1.32,14.91,14.91,0,0,0,.07-1.52c0-1.55-.15-2.49-.44-2.81a2.56,2.56,0,0,0-.34-.37,2.41,2.41,0,0,0-1.4-.27c-.73,0-1.18,0-1.38,0-.61,0-1,.17-1.16.41A4.07,4.07,0,0,0,226.73,115Z"/><path class="cls-1" d="M243.22,111.21c0-.42.3-.64.9-.64s.9.22.9.66v4.24a2.69,2.69,0,0,1-1,2.47,6.15,6.15,0,0,1-3.15.6,15.1,15.1,0,0,1-2.93-.18v1.54h3.65a4.08,4.08,0,0,1,2.78.71,3.31,3.31,0,0,1,.72,2.4,2.54,2.54,0,0,1-1,2.31,6.79,6.79,0,0,1-3.46.63,7.61,7.61,0,0,1-3.49-.57,2.44,2.44,0,0,1-1-2.32V115.2a3.32,3.32,0,0,1,.56-2.18,3,3,0,0,1,2.11-.77,17.23,17.23,0,0,1,4.36.21ZM238,115.43c0,.72.14,1.15.4,1.3a4.86,4.86,0,0,0,1.93.23,8.53,8.53,0,0,0,2.08-.16,1,1,0,0,0,.69-.49,3.05,3.05,0,0,0,.13-1.08V114a20.94,20.94,0,0,0-2.85-.2,4,4,0,0,0-1.84.29,1.3,1.3,0,0,0-.54,1.22Zm0,6v1.65a1,1,0,0,0,.64,1,6,6,0,0,0,2.12.27,4.55,4.55,0,0,0,2-.29,1.21,1.21,0,0,0,.5-1.14,1.24,1.24,0,0,0-.48-1.14,3.48,3.48,0,0,0-1.76-.31Z"/><path class="cls-1" d="M254.16,109.32v12c0,.47-.3.7-.9.7s-.89-.23-.89-.7v-12c0-.48.3-.72.89-.72S254.16,108.84,254.16,109.32Z"/><path class="cls-1" d="M264.55,120.28c.41,0,.62.25.62.74a.81.81,0,0,1-.62.9,15.2,15.2,0,0,1-3.25.24,5.51,5.51,0,0,1-3.27-.75,2.93,2.93,0,0,1-1-2.49v-3.66a2.85,2.85,0,0,1,.9-2.47,9.32,9.32,0,0,1,6.66,0,2.9,2.9,0,0,1,.86,2.5v1.58a1.15,1.15,0,0,1-.26.77.9.9,0,0,1-.68.27h-5.68v1.17c0,1,.86,1.47,2.57,1.47a14.15,14.15,0,0,0,2-.12A10.3,10.3,0,0,1,264.55,120.28Zm-5.72-5v1h4.82v-1a1.28,1.28,0,0,0-.48-1.17,4.14,4.14,0,0,0-1.91-.3,4.35,4.35,0,0,0-1.91.28A1.27,1.27,0,0,0,258.83,115.27Z"/><path class="cls-1" d="M271.5,122a2.58,2.58,0,0,1-1.91-.58,3,3,0,0,1-.54-2V113.9h-1.26c-.4,0-.6-.26-.6-.79s.2-.79.6-.79h1.26v-2.54c0-.47.3-.7.9-.7s.9.23.9.7v2.54h2.55c.4,0,.61.27.61.79s-.21.79-.61.79h-2.55v5.64c0,.55.33.82,1,.82l1.7-.1c.41,0,.62.24.62.72a.91.91,0,0,1-.64,1Q272.87,122,271.5,122Z"/><path class="cls-1" d="M279,122a2.58,2.58,0,0,1-1.91-.58,3,3,0,0,1-.53-2V113.9h-1.27c-.4,0-.6-.26-.6-.79s.2-.79.6-.79h1.27v-2.54c0-.47.3-.7.89-.7s.9.23.9.7v2.54h2.55c.4,0,.61.27.61.79s-.21.79-.61.79H278.3v5.64c0,.55.33.82,1,.82l1.7-.1c.42,0,.62.24.62.72a.91.91,0,0,1-.64,1Q280.31,122,279,122Z"/><path class="cls-1" d="M290.89,120.28c.41,0,.62.25.62.74a.81.81,0,0,1-.62.9,15.2,15.2,0,0,1-3.25.24,5.49,5.49,0,0,1-3.27-.75,2.93,2.93,0,0,1-1-2.49v-3.66a2.85,2.85,0,0,1,.9-2.47,9.32,9.32,0,0,1,6.66,0,2.93,2.93,0,0,1,.86,2.5v1.58a1.16,1.16,0,0,1-.27.77.87.87,0,0,1-.67.27h-5.68v1.17c0,1,.85,1.47,2.57,1.47a14.15,14.15,0,0,0,1.95-.12A10.11,10.11,0,0,1,290.89,120.28Zm-5.72-5v1H290v-1a1.27,1.27,0,0,0-.49-1.17,4.07,4.07,0,0,0-1.9-.3,4.33,4.33,0,0,0-1.91.28A1.25,1.25,0,0,0,285.17,115.27Z"/><path class="cls-1" d="M150.41,138.06c-.41,0-.62-.25-.62-.74a.81.81,0,0,1,.62-.9,13.7,13.7,0,0,1,3.24-.26,4.74,4.74,0,0,1,3.07.72,3.25,3.25,0,0,1,.81,2.52v3.86c0,1.2-.29,2-.88,2.35a7.12,7.12,0,0,1-3.37.55,6.85,6.85,0,0,1-3.33-.55,2.66,2.66,0,0,1-.83-2.34,3.59,3.59,0,0,1,.65-2.47,3.68,3.68,0,0,1,2.66-.68h3.3v-1a1.12,1.12,0,0,0-.45-1,3.48,3.48,0,0,0-1.64-.27,13.53,13.53,0,0,0-2,.13A7.4,7.4,0,0,1,150.41,138.06Zm5.32,5.34v-1.7H153a3.45,3.45,0,0,0-1.67.26c-.25.17-.38.55-.38,1.15s.16,1,.47,1.16a5,5,0,0,0,1.91.25,5.66,5.66,0,0,0,1.92-.22A.87.87,0,0,0,155.73,143.4Zm-3.48-8.26a1.88,1.88,0,0,1,0-2.64,1.77,1.77,0,0,1,1.31-.54,1.8,1.8,0,0,1,1.32.54,1.83,1.83,0,0,1,.54,1.32,1.8,1.8,0,0,1-.54,1.32,1.83,1.83,0,0,1-1.32.54A1.76,1.76,0,0,1,152.25,135.14Zm.52-1.32a.78.78,0,0,0,.23.58.76.76,0,0,0,.57.22.77.77,0,0,0,.56-.23.8.8,0,0,0,.24-.58.81.81,0,0,0-1.38-.56A.7.7,0,0,0,152.77,133.82Z"/><path class="cls-1" d="M164.44,149.9h-.71c-.41,0-.61-.28-.61-.82s.2-.82.61-.82h.69a.92.92,0,0,0,.58-.21.74.74,0,0,0,.28-.61V137c0-.47.29-.71.89-.71s.9.24.9.71v10.3a2.94,2.94,0,0,1-.53,2A2.85,2.85,0,0,1,164.44,149.9Zm.76-15.9a.94.94,0,0,1,.29-.7,1,1,0,0,1,.68-.3,1,1,0,0,1,.7.3,1,1,0,0,1,.28.71,1,1,0,0,1-1.67.68A1,1,0,0,1,165.2,134Z"/><path class="cls-1" d="M169.94,141.24a11.85,11.85,0,0,1,.23-2.58,2.77,2.77,0,0,1,2.12-2.31,11.59,11.59,0,0,1,4.18,0,2.76,2.76,0,0,1,1.35.76,3.1,3.1,0,0,1,.79,1.54,11.94,11.94,0,0,1,.22,2.58,11.82,11.82,0,0,1-.22,2.58,2.69,2.69,0,0,1-.8,1.48,3,3,0,0,1-1.34.69,9.56,9.56,0,0,1-2.09.18,10.42,10.42,0,0,1-2.09-.17,2.91,2.91,0,0,1-1.35-.69,2.71,2.71,0,0,1-.79-1.5A12.37,12.37,0,0,1,169.94,141.24Zm2-2.28a4.9,4.9,0,0,0-.22,1.78c0,.85,0,1.53.07,2a2.33,2.33,0,0,0,.51,1.31c.16.23.55.37,1.16.41l.9,0c1.17,0,1.86-.14,2.07-.43a2.62,2.62,0,0,0,.51-1.32,14.91,14.91,0,0,0,.07-1.52c0-1.55-.14-2.49-.44-2.81a2.1,2.1,0,0,0-.34-.37,2.39,2.39,0,0,0-1.4-.27c-.72,0-1.18,0-1.38,0-.61,0-1,.17-1.15.41A4.07,4.07,0,0,0,172,139Z"/><path class="cls-1" d="M181.42,141.24v-7.92c0-.48.31-.72.9-.72s.89.24.89.72v3.23a6.08,6.08,0,0,1,2.41-.39,10.27,10.27,0,0,1,2.31.19,2.82,2.82,0,0,1,1.36.76,3.08,3.08,0,0,1,.77,1.54,12.08,12.08,0,0,1,.22,2.6,12.54,12.54,0,0,1-.21,2.57,2.62,2.62,0,0,1-.78,1.47,2.89,2.89,0,0,1-1.36.69,9.56,9.56,0,0,1-2.09.18,10.17,10.17,0,0,1-2.08-.17,2.79,2.79,0,0,1-1.33-.69,2.84,2.84,0,0,1-.79-1.5A11.62,11.62,0,0,1,181.42,141.24Zm7.06.41c0-.86,0-1.54-.07-2.05a2.78,2.78,0,0,0-.5-1.37c-.19-.29-.89-.43-2.07-.43a3.78,3.78,0,0,0-1.88.27,1.6,1.6,0,0,0-.6.9,10.89,10.89,0,0,0-.18,2q0,1.05.06,1.8a2.54,2.54,0,0,0,.52,1.33,1.61,1.61,0,0,0,1.19.41l.89,0,.89,0a5,5,0,0,0,.66-.11.89.89,0,0,0,.52-.29,4,4,0,0,0,.35-.7A4.73,4.73,0,0,0,188.48,141.65Z"/><path class="cls-1" d="M192.89,141.24v-7.92c0-.48.31-.72.91-.72s.89.24.89.72v3.23a6.08,6.08,0,0,1,2.41-.39,10.39,10.39,0,0,1,2.31.19,2.84,2.84,0,0,1,1.35.76,3.17,3.17,0,0,1,.78,1.54,12.87,12.87,0,0,1,.21,2.6,13.42,13.42,0,0,1-.2,2.57,2.69,2.69,0,0,1-.79,1.47,2.91,2.91,0,0,1-1.35.69,9.73,9.73,0,0,1-2.1.18,10.24,10.24,0,0,1-2.08-.17,2.72,2.72,0,0,1-1.32-.69,2.84,2.84,0,0,1-.79-1.5A11.52,11.52,0,0,1,192.89,141.24Zm7.06.41c0-.86,0-1.54-.07-2.05a2.77,2.77,0,0,0-.49-1.37c-.2-.29-.89-.43-2.08-.43a3.78,3.78,0,0,0-1.88.27,1.53,1.53,0,0,0-.59.9,10.08,10.08,0,0,0-.19,2c0,.7,0,1.3.07,1.8a2.46,2.46,0,0,0,.52,1.33,1.58,1.58,0,0,0,1.18.41l.89,0,.89,0a4.89,4.89,0,0,0,.67-.11.89.89,0,0,0,.52-.29,4.87,4.87,0,0,0,.35-.7A5,5,0,0,0,200,141.65Z"/><path class="cls-1" d="M211.81,144.28c.41,0,.61.25.61.74a.8.8,0,0,1-.61.9,15.26,15.26,0,0,1-3.25.24,5.47,5.47,0,0,1-3.27-.75,2.93,2.93,0,0,1-1-2.49v-3.66a2.85,2.85,0,0,1,.9-2.47,9.32,9.32,0,0,1,6.66,0,2.93,2.93,0,0,1,.86,2.5v1.58a1.16,1.16,0,0,1-.27.77.87.87,0,0,1-.67.27h-5.68v1.17c0,1,.85,1.47,2.56,1.47a14.41,14.41,0,0,0,2-.12A10.11,10.11,0,0,1,211.81,144.28Zm-5.72-5v1h4.82v-1a1.27,1.27,0,0,0-.49-1.17,4.07,4.07,0,0,0-1.9-.3,4.41,4.41,0,0,0-1.92.28A1.25,1.25,0,0,0,206.09,139.27Z"/><path class="cls-1" d="M230.24,137.8a11,11,0,0,0-1.17,0,1,1,0,0,0-.62.29,1,1,0,0,0-.32.66,10.27,10.27,0,0,0,0,1.28v5.22c0,.48-.3.71-.9.71s-.9-.23-.9-.71V139.8c0-.92-.12-1.48-.36-1.69a2.45,2.45,0,0,0-1.5-.31c-.76,0-1.25,0-1.48,0a.92.92,0,0,0-.61.32,1.24,1.24,0,0,0-.3.72c0,.3,0,.77,0,1.42v5c0,.48-.29.71-.89.71s-.9-.23-.9-.7v-5.22a6.47,6.47,0,0,1,.46-2.88,2.17,2.17,0,0,1,1.88-1c.37,0,.91-.06,1.6-.06a5.41,5.41,0,0,1,3,.56,5.45,5.45,0,0,1,3-.56c.68,0,1.21,0,1.59.05a2.25,2.25,0,0,1,1.86.93,6.52,6.52,0,0,1,.49,2.94v5.22c0,.47-.3.7-.9.7s-.89-.23-.89-.71v-5c0-.65,0-1.12-.05-1.42a1.24,1.24,0,0,0-.3-.72.92.92,0,0,0-.61-.32A11,11,0,0,0,230.24,137.8Z"/><path class="cls-1" d="M244.4,144.28c.41,0,.61.25.61.74a.8.8,0,0,1-.61.9,15.31,15.31,0,0,1-3.26.24,5.51,5.51,0,0,1-3.27-.75,2.93,2.93,0,0,1-1-2.49v-3.66a2.85,2.85,0,0,1,.9-2.47,6.23,6.23,0,0,1,3.35-.63,6.31,6.31,0,0,1,3.31.6,2.93,2.93,0,0,1,.85,2.5v1.58a1.1,1.1,0,0,1-.26.77.88.88,0,0,1-.68.27h-5.68v1.17c0,1,.86,1.47,2.57,1.47a14.41,14.41,0,0,0,2-.12A10.11,10.11,0,0,1,244.4,144.28Zm-5.73-5v1h4.83v-1a1.29,1.29,0,0,0-.49-1.17,4.09,4.09,0,0,0-1.9-.3,4.41,4.41,0,0,0-1.92.28A1.27,1.27,0,0,0,238.67,139.27Z"/><path class="cls-1" d="M256.76,133.32v7.92a11.62,11.62,0,0,1-.22,2.56,2.71,2.71,0,0,1-.79,1.49,3,3,0,0,1-1.32.69,9.46,9.46,0,0,1-2.08.18,10.42,10.42,0,0,1-2.09-.17,2.91,2.91,0,0,1-1.35-.69,2.71,2.71,0,0,1-.79-1.5,14,14,0,0,1-.21-2.56,12.61,12.61,0,0,1,.22-2.58,2.79,2.79,0,0,1,2.13-2.31,10.27,10.27,0,0,1,2.31-.19,6,6,0,0,1,2.39.39v-3.23q0-.72.9-.72T256.76,133.32ZM249.92,139a5.2,5.2,0,0,0-.21,1.78c0,.85,0,1.53.07,2a2.39,2.39,0,0,0,.5,1.31,1.57,1.57,0,0,0,1.17.41l.9,0c1.17,0,1.86-.14,2.07-.43a2.62,2.62,0,0,0,.51-1.32,14.91,14.91,0,0,0,.07-1.52c0-1.55-.14-2.49-.44-2.81a2.1,2.1,0,0,0-.34-.37,2.39,2.39,0,0,0-1.4-.27c-.72,0-1.18,0-1.38,0-.61,0-1,.17-1.16.41A6.15,6.15,0,0,0,249.92,139Z"/></svg>