<svg id="Layer_1" data-name="Layer 1" xmlns="http://www.w3.org/2000/svg" viewBox="0 0 320 320"><defs><style>.cls-1{fill:#d80201;}</style></defs><title>text</title><path class="cls-1" d="M82.82,150.67,74.49,140.2l-.52.53v9.94H69.42V127.32H74v9.87l8.57-9.87h5.74L78.41,138.1l10.4,12.57Z"/><path class="cls-1" d="M98.92,151.16c-4.83,0-8.68-3-8.68-8.06S94.09,135,99,135s8.61,3,8.61,8S103.72,151.16,98.92,151.16Zm-3.67-18.49a2.52,2.52,0,0,1,0-5,2.52,2.52,0,0,1,0,5Zm3.64,6.16a4.26,4.26,0,1,0,4.3,4.27A4.29,4.29,0,0,0,98.89,138.83Zm3.64-6.16a2.55,2.55,0,0,1-2.52-2.52,2.52,2.52,0,1,1,2.52,2.52Z"/><path class="cls-1" d="M120.13,151.16a6.06,6.06,0,0,1-5.07-2.49v10.08h-4.24V135.51h4.24v1.92a6,6,0,0,1,5-2.41c4.51,0,7.49,3.74,7.49,8.08S124.58,151.16,120.13,151.16Zm-1.26-12.33a4.26,4.26,0,1,0,4.24,4.24A4.23,4.23,0,0,0,118.87,138.83Z"/><path class="cls-1" d="M149.85,150.67v-8.4c0-2.07-.46-3.65-2.87-3.65-2.63,0-3.26,1.93-3.26,4.21v7.84h-4.23V135.51h4.23v1.85a5.59,5.59,0,0,1,4.76-2.34,5.23,5.23,0,0,1,5.6,6v9.63Z"/><path class="cls-1" d="M165.46,151.16c-4.17,0-7.32-1.86-7.32-6.37v-9.28h4.24v8.58c0,2.06.87,3.46,3.08,3.46s3.08-1.4,3.08-3.46v-8.58h4.27v9.28C172.81,149.3,169.62,151.16,165.46,151.16Z"/><path class="cls-1" d="M205,150.67v-8.3c0-1.79-.28-3.75-2.52-3.75-2.48,0-2.9,2.28-2.9,4.28v7.77h-4.24v-8a6.91,6.91,0,0,0-.31-2.53,2.48,2.48,0,0,0-2.28-1.47,2.78,2.78,0,0,0-2.38,1.37,6.35,6.35,0,0,0-.49,2.91v7.77h-4.24V135.51h4.24v1.71a5.84,5.84,0,0,1,4.62-2.2,5.15,5.15,0,0,1,4.73,2.76,5.6,5.6,0,0,1,5-2.76,5,5,0,0,1,4.23,2.17,6.65,6.65,0,0,1,.81,3.67v9.81Z"/><path class="cls-1" d="M216.8,143.77c.07,2.35,1.19,4.06,3.71,4.06a4,4,0,0,0,3.61-2l3.92.63c-1.33,3.26-4,4.73-7.46,4.73-4.9,0-8.12-3.15-8.12-8.09s3.08-8,7.95-8,7.73,3.36,7.73,8.19v.56Zm3.68-5.74a3.44,3.44,0,0,0-3.54,3.05h7.18A3.52,3.52,0,0,0,220.48,138Z"/><path class="cls-1" d="M243,150.67v-2a5.84,5.84,0,0,1-4.93,2.49c-4.55,0-7.46-3.78-7.46-8.12s2.91-8,7.35-8a6.32,6.32,0,0,1,5,2.41v-13h4.27v26.22Zm-3.78-11.84a4.26,4.26,0,1,0,4.24,4.24A4.24,4.24,0,0,0,239.2,138.83Z"/><path class="cls-1" d="M45.11,176.36a3.7,3.7,0,0,0-2-.53c-2.87,0-3.64,2-3.64,4.56v7.28H35.21V172.51h4.23v2.28A4.86,4.86,0,0,1,43.85,172a5,5,0,0,1,1.86.35Z"/><path class="cls-1" d="M53.16,195.79H48.37l5.56-10.4-7.17-12.88h4.93l4.55,8.61,4.34-8.61h4.83Z"/><path class="cls-1" d="M81.55,193.16a8.27,8.27,0,0,1-6.44,2.66c-3.89,0-7.63-2.24-8-6.37h4.58a3.38,3.38,0,0,0,3.61,2.77c2.66,0,3.74-1.86,3.74-4.31v-2.27a6.3,6.3,0,0,1-5.11,2.52c-4.48,0-7.21-3.61-7.21-7.88s2.8-8.26,7.42-8.26a5.68,5.68,0,0,1,4.9,2.45v-2h4.27v14.6C83.26,189.49,83.16,191.27,81.55,193.16Zm-6.27-17.33a4.26,4.26,0,1,0,4.24,4.24A4.23,4.23,0,0,0,75.28,175.83Z"/><path class="cls-1" d="M101.39,193.16A8.26,8.26,0,0,1,95,195.82c-3.89,0-7.63-2.24-8-6.37h4.58a3.38,3.38,0,0,0,3.61,2.77c2.66,0,3.75-1.86,3.75-4.31v-2.27a6.33,6.33,0,0,1-5.11,2.52c-4.49,0-7.22-3.61-7.22-7.88s2.8-8.26,7.43-8.26a5.69,5.69,0,0,1,4.9,2.45v-2h4.27v14.6C103.11,189.49,103,191.27,101.39,193.16Zm-6.26-17.33a4.26,4.26,0,1,0,4.23,4.24A4.24,4.24,0,0,0,95.13,175.83Z"/><path class="cls-1" d="M117.52,187.67v-8.3c0-2.1-.45-3.74-2.9-3.74-2.63,0-3.22,2-3.22,4.27v7.77h-4.24V161.45h4.24v13a5.52,5.52,0,0,1,4.76-2.45,5.75,5.75,0,0,1,4.41,1.86,6,6,0,0,1,1.19,4.27v9.52Z"/><path class="cls-1" d="M129.35,180.77c.07,2.35,1.19,4.06,3.71,4.06a4,4,0,0,0,3.61-2l3.92.63c-1.33,3.26-4,4.73-7.46,4.73-4.9,0-8.12-3.15-8.12-8.09s3.08-8,8-8,7.73,3.36,7.73,8.19v.56ZM133,175a3.44,3.44,0,0,0-3.54,3.05h7.18A3.52,3.52,0,0,0,133,175Z"/><path class="cls-1" d="M148.22,176.15v11.52H144V176.15H142.3v-3.64H144v-5.18h4.24v5.18h3v3.64Z"/><path class="cls-1" d="M158.23,188.16a8.1,8.1,0,0,1-5.78-2.52l2.24-2.59a5,5,0,0,0,3.57,1.78,1.79,1.79,0,0,0,1.93-1.68c0-2.59-6.76-1.29-6.76-6.4,0-3.08,2.56-4.8,5.43-4.8a7.78,7.78,0,0,1,4.93,1.61l-2.1,2.48a4.26,4.26,0,0,0-2.52-1c-.73,0-1.61.46-1.61,1.3,0,2.2,7,1.22,7,6.4C164.56,186.27,161.48,188.16,158.23,188.16Z"/><path class="cls-1" d="M181.64,193.16a8.26,8.26,0,0,1-6.44,2.66c-3.88,0-7.63-2.24-8-6.37h4.59a3.36,3.36,0,0,0,3.6,2.77c2.66,0,3.75-1.86,3.75-4.31v-2.27a6.33,6.33,0,0,1-5.11,2.52c-4.48,0-7.21-3.61-7.21-7.88s2.8-8.26,7.42-8.26a5.68,5.68,0,0,1,4.9,2.45v-2h4.27v14.6C183.36,189.49,183.25,191.27,181.64,193.16Zm-6.26-17.33a4.26,4.26,0,1,0,4.23,4.24A4.24,4.24,0,0,0,175.38,175.83Z"/><path class="cls-1" d="M199,187.67v-2a5.84,5.84,0,0,1-4.93,2.49c-4.55,0-7.46-3.78-7.46-8.12s2.91-8,7.35-8a6.32,6.32,0,0,1,5,2.41v-1.92h4.27v15.16Zm-3.78-11.84a4.26,4.26,0,1,0,4.24,4.24A4.23,4.23,0,0,0,195.22,175.83Z"/><path class="cls-1" d="M217.24,176.36a3.72,3.72,0,0,0-2-.53c-2.87,0-3.64,2-3.64,4.56v7.28h-4.24V172.51h4.24v2.28A4.86,4.86,0,0,1,216,172a4.94,4.94,0,0,1,1.85.35Z"/><path class="cls-1" d="M231.52,187.67v-2a5.86,5.86,0,0,1-4.94,2.49c-4.55,0-7.45-3.78-7.45-8.12s2.9-8,7.35-8a6.33,6.33,0,0,1,5,2.41v-1.92h4.27v15.16Zm-3.78-11.84a4.26,4.26,0,1,0,4.23,4.24A4.24,4.24,0,0,0,227.74,175.83Z"/><path class="cls-1" d="M250.21,187.67v-8.4c0-2.07-.46-3.64-2.87-3.64-2.63,0-3.26,1.92-3.26,4.2v7.84h-4.23V172.51h4.23v1.86a5.57,5.57,0,0,1,4.76-2.35,5.23,5.23,0,0,1,5.6,6v9.63Z"/><path class="cls-1" d="M262.77,176.15v11.52h-4.23V176.15h-1.68v-3.64h1.68v-5.18h4.23v5.18h3v3.64Z"/><path class="cls-1" d="M270,168.66a2.56,2.56,0,1,1,0-5.11,2.56,2.56,0,0,1,0,5.11Zm-2.14,19V172.51h4.24v15.16Z"/><path class="cls-1" d="M278.45,188.12a2.73,2.73,0,1,1,2.73-2.73A2.73,2.73,0,0,1,278.45,188.12ZM276.28,181V164.32h4.34V181Z"/></svg>