<svg id="Layer_1" data-name="Layer 1" xmlns="http://www.w3.org/2000/svg" viewBox="0 0 320 320"><defs><style>.cls-1{fill:#d80201;}.cls-2{fill:#fff;}</style></defs><title>text</title><rect class="cls-1" x="84" y="252" width="148.67" height="24" rx="12"/><path class="cls-2" d="M122.08,268.67v-9.35h1.82v7.76h2.87v1.59Z"/><path class="cls-2" d="M134.85,268.67l-.8-2h-3.81l-.85,2h-1.94l4-9.54h1.37l3.94,9.54Zm-4.29-10.37a1,1,0,0,1-1-1,1,1,0,1,1,1,1Zm1.61,3.56-1.35,3.36h2.67Zm1.53-3.56a1,1,0,0,1-1-1,1,1,0,0,1,2,0A1,1,0,0,1,133.7,258.3Z"/><path class="cls-2" d="M140.49,268.89a3.66,3.66,0,0,1-3.21-1.78l1.18-1.13a2.14,2.14,0,0,0,2,1.24,1.33,1.33,0,0,0,1.44-1.31c0-1.92-4.1-1-4.1-4a2.74,2.74,0,0,1,2.91-2.72,4,4,0,0,1,2.73,1l-1,1.24a1.91,1.91,0,0,0-1.51-.75c-.6,0-1.31.38-1.31,1.05,0,1.58,4.11.8,4.11,4.06A3,3,0,0,1,140.49,268.89Z"/><path class="cls-2" d="M157.5,268.67l-.82-5.76-2.58,5.88h-.51l-2.47-5.88-.94,5.76h-1.84l1.74-9.51h1.25l2.55,6.1,2.66-6.1h1.24l1.56,9.51Z"/><path class="cls-2" d="M161,268.67v-9.35h5.17v1.59h-3.35V263H166v1.58h-3.22v2.52h3.35v1.59Z"/><path class="cls-2" d="M172.49,268.67,170,264.91h-.22v3.76h-1.82v-9.35h2.7A3.84,3.84,0,0,1,173,260a2.7,2.7,0,0,1,.93,2.1,3.16,3.16,0,0,1-.53,1.71,2.48,2.48,0,0,1-1.6.92l2.94,3.94Zm-2.2-7.86h-.54v2.81h.52c.94,0,1.79-.33,1.79-1.41S171.23,260.81,170.29,260.81Z"/><polygon class="cls-2" points="205 265.17 195.17 265.17 195.17 262.67 205 262.67 205 258.88 212 263.92 205 268.75 205 265.17"/></svg>