<svg id="Layer_1" data-name="Layer 1" xmlns="http://www.w3.org/2000/svg" viewBox="0 0 300 600"><defs><style>.cls-1{fill:#fff;}</style></defs><title>text</title><path class="cls-1" d="M75.13,209v25.46c0,1-.68,1.55-2,1.55s-2-.52-2-1.55V222.81H57.36v11.64c0,1-.66,1.55-2,1.55s-2-.52-2-1.55V209q0-1.59,2-1.59t2,1.59V219.2H71.17V209c0-1.06.66-1.59,2-1.59S75.11,207.93,75.13,209Z"/><path class="cls-1" d="M90.66,236.21a3.39,3.39,0,0,1-2.11-.7,4.06,4.06,0,0,1-1.33-1.79L81,216.94c-.09-.44-.14-.68-.15-.71,0-1,.64-1.54,1.91-1.52a1.85,1.85,0,0,1,1.94,1.14l5.88,16.54h.22l5.91-16.54c.28-.76,1-1.14,2.12-1.14s1.7.51,1.7,1.52c0,0,0,.27-.13.71l-6.25,16.78a3.67,3.67,0,0,1-1.33,1.81A3.55,3.55,0,0,1,90.66,236.21Z"/><path class="cls-1" d="M104.3,225.54a26.42,26.42,0,0,1,.49-5.7,6.13,6.13,0,0,1,4.67-5.07,24.82,24.82,0,0,1,9.2,0,6.27,6.27,0,0,1,3,1.67,6.84,6.84,0,0,1,1.74,3.39,27,27,0,0,1,.48,5.69,26.63,26.63,0,0,1-.48,5.66,6,6,0,0,1-1.76,3.26,6.56,6.56,0,0,1-3,1.52,21.46,21.46,0,0,1-4.59.38,23.39,23.39,0,0,1-4.61-.36,6.32,6.32,0,0,1-3-1.53,5.89,5.89,0,0,1-1.72-3.28A27.16,27.16,0,0,1,104.3,225.54Zm4.43-5a11.17,11.17,0,0,0-.48,3.94q0,2.81.15,4.47a5.44,5.44,0,0,0,1.12,2.9c.37.5,1.23.79,2.57.88.43,0,1.09,0,2,0,2.57,0,4.08-.31,4.54-.92a6,6,0,0,0,1.14-2.92q.15-1.6.15-3.33,0-5.12-1-6.2a5,5,0,0,0-.75-.8c-.47-.41-1.5-.61-3.09-.61s-2.59,0-3,.05c-1.34.08-2.19.39-2.55.9A9.39,9.39,0,0,0,108.73,220.5Z"/><path class="cls-1" d="M133.5,223.5v10.95c0,1-.66,1.55-2,1.55s-2-.52-2-1.55V223c0-2.78.24-4.6.71-5.48a7.66,7.66,0,0,1,1.3-1.87q1.41-1.29,7.08-1.29a12.14,12.14,0,0,1,3.83.39,1.39,1.39,0,0,1,1,1.4,2.07,2.07,0,0,1-.53,1.52,1.91,1.91,0,0,1-1.36.5l-2.9-.2a13.21,13.21,0,0,0-3.37.26,3.14,3.14,0,0,0-1,.5,3.6,3.6,0,0,0-.47,1,4.93,4.93,0,0,0-.28,1.53C133.5,221.78,133.5,222.53,133.5,223.5Z"/><path class="cls-1" d="M161.23,208.11v17l9.84-10a2,2,0,0,1,1.47-.67,1.87,1.87,0,0,1,1.37.56,1.7,1.7,0,0,1,.56,1.29,2,2,0,0,1-.71,1.46l-5.67,5.29,7,9.77a2.25,2.25,0,0,1,.43,1.31,1.66,1.66,0,0,1-.62,1.29,2.09,2.09,0,0,1-1.46.6,1.45,1.45,0,0,1-1.29-.71l-6.88-9.62-4,3.74v5c0,1-.65,1.55-2,1.55s-2-.52-2-1.55V208.11c0-1.06.68-1.59,2-1.59S161.23,207.05,161.23,208.11Z"/><path class="cls-1" d="M183.36,208.11v26.34c0,1-.66,1.55-2,1.55s-2-.52-2-1.55V208.11q0-1.59,2-1.59C182.7,206.52,183.36,207.05,183.36,208.11Z"/><path class="cls-1" d="M192.13,218.53c-.92,0-1.38-.54-1.38-1.63a1.79,1.79,0,0,1,1.38-2,31,31,0,0,1,7.13-.58q5,0,6.75,1.59t1.78,5.55V230q0,4-1.93,5.18t-7.41,1.2c-3.64,0-6.09-.4-7.33-1.2s-1.87-2.52-1.87-5.15.47-4.45,1.42-5.44,2.92-1.5,5.87-1.48h7.3v-2.28a2.45,2.45,0,0,0-1-2.23,7.5,7.5,0,0,0-3.59-.61,29.11,29.11,0,0,0-4.49.3A16.08,16.08,0,0,1,192.13,218.53Zm11.71,11.76v-3.74h-6.11a7.65,7.65,0,0,0-3.69.56c-.56.37-.84,1.21-.84,2.53s.35,2.19,1.05,2.56a10.86,10.86,0,0,0,4.21.53,12.45,12.45,0,0,0,4.24-.47A2,2,0,0,0,203.84,230.29Z"/><path class="cls-1" d="M217.82,223.5v10.95c0,1-.65,1.55-2,1.55s-2-.52-2-1.55V223c0-2.78.24-4.6.71-5.48a7.66,7.66,0,0,1,1.3-1.87q1.41-1.29,7.08-1.29a12.06,12.06,0,0,1,3.82.39,1.39,1.39,0,0,1,1,1.4,2,2,0,0,1-.54,1.52,1.87,1.87,0,0,1-1.35.5L223,218a13.15,13.15,0,0,0-3.37.26,3.14,3.14,0,0,0-1,.5,3.33,3.33,0,0,0-.47,1,4.66,4.66,0,0,0-.28,1.53C217.83,221.78,217.82,222.53,217.82,223.5Z"/><path class="cls-1" d="M68.44,285c.91,0,1.36.54,1.36,1.63a1.78,1.78,0,0,1-1.36,2,34.56,34.56,0,0,1-7.15.51q-5,0-7.2-1.63c-1.44-1.09-2.18-2.91-2.19-5.48v-8q0-4.05,2-5.44t7.37-1.4q5.39,0,7.28,1.34c1.26.88,1.89,2.72,1.89,5.5v3.48a2.43,2.43,0,0,1-.58,1.67,2,2,0,0,1-1.49.6H55.85v2.58c0,2.16,1.89,3.24,5.65,3.22a32.47,32.47,0,0,0,4.3-.25A21.36,21.36,0,0,1,68.44,285ZM55.85,274v2.26H66.47V274a2.8,2.8,0,0,0-1.08-2.57,9,9,0,0,0-4.19-.67,9.57,9.57,0,0,0-4.21.63A2.8,2.8,0,0,0,55.85,274Z"/><path class="cls-1" d="M80.3,276.3v10.95c0,1-.65,1.55-2,1.55s-2-.52-2-1.55V275.78c0-2.78.23-4.6.7-5.48a7.64,7.64,0,0,1,1.31-1.87q1.41-1.29,7.08-1.29a12.06,12.06,0,0,1,3.82.39,1.39,1.39,0,0,1,1,1.4,2,2,0,0,1-.54,1.52,1.87,1.87,0,0,1-1.35.5l-2.9-.2a13.31,13.31,0,0,0-3.38.26,3.18,3.18,0,0,0-1,.5,3.55,3.55,0,0,0-.48,1,5.24,5.24,0,0,0-.28,1.53C80.31,274.58,80.3,275.33,80.3,276.3Z"/><path class="cls-1" d="M123.42,260.91v17.43A27.16,27.16,0,0,1,123,284a6.14,6.14,0,0,1-1.74,3.26,6.38,6.38,0,0,1-2.92,1.53,21.86,21.86,0,0,1-4.57.38,23.27,23.27,0,0,1-4.6-.36,6.32,6.32,0,0,1-3-1.53,5.9,5.9,0,0,1-1.73-3.28,29.54,29.54,0,0,1-.46-5.63,27.17,27.17,0,0,1,.48-5.7c.64-2.77,2.2-4.47,4.68-5.07a22.82,22.82,0,0,1,5.07-.43,13.12,13.12,0,0,1,5.28.87v-7.1q0-1.59,2-1.59C122.76,259.32,123.42,259.85,123.42,260.91Zm-15,12.39a11.47,11.47,0,0,0-.47,3.94q0,2.81.15,4.47a5.3,5.3,0,0,0,1.12,2.89c.37.51,1.22.8,2.57.89.43,0,1.08,0,2,0,2.57,0,4.09-.31,4.55-.93a5.77,5.77,0,0,0,1.13-2.91q.15-1.6.15-3.33,0-5.12-1-6.2a4.57,4.57,0,0,0-.75-.8c-.47-.41-1.5-.61-3.09-.61s-2.59,0-3,.05c-1.35.08-2.2.39-2.55.9A10.05,10.05,0,0,0,108.38,273.3Z"/><path class="cls-1" d="M136.34,285.51c.46,0,1.14,0,2,0s1.58,0,2,0a5.11,5.11,0,0,0,1.38-.23,2.67,2.67,0,0,0,1.12-.67,2.76,2.76,0,0,0,.47-1.77c0-.87.07-1.81.07-2.82V269c0-1,.66-1.55,2-1.55s2,.51,2,1.54v11.5a25.09,25.09,0,0,1-.34,4.75,4.23,4.23,0,0,1-1.53,2.55,5.61,5.61,0,0,1-2.67,1.1,48.21,48.21,0,0,1-9,0,5.54,5.54,0,0,1-2.65-1.1,4.1,4.1,0,0,1-1.5-2.55,26.37,26.37,0,0,1-.37-4.75V269c0-1,.68-1.54,2-1.54s2,.51,2,1.55v11c0,2.67.23,4.27.71,4.78a2.18,2.18,0,0,0,.92.48A5.11,5.11,0,0,0,136.34,285.51Z"/><path class="cls-1" d="M170.06,267.29v.22h5.59q1.35,0,1.35,1.74T175.65,271h-5.59v16.27c0,1-.65,1.54-2,1.54s-2-.51-2-1.54V271h-2.83c-.91,0-1.36-.58-1.36-1.74s.45-1.74,1.36-1.74h2.83v-.75c0-3,.52-5,1.55-6s3-1.45,5.8-1.44a12.06,12.06,0,0,1,3.82.39,1.35,1.35,0,0,1,1,1.35,1.87,1.87,0,0,1-.54,1.49,1.92,1.92,0,0,1-1.35.51l-2.9-.13c-1.43,0-2.36.25-2.77.74S170.06,265.37,170.06,267.29Z"/><path class="cls-1" d="M180.33,278.34a27.08,27.08,0,0,1,.49-5.7c.64-2.77,2.19-4.47,4.68-5.07a24.77,24.77,0,0,1,9.19,0,6.35,6.35,0,0,1,3,1.67,7,7,0,0,1,1.74,3.39,27.1,27.1,0,0,1,.47,5.69,26.73,26.73,0,0,1-.47,5.66,6.1,6.1,0,0,1-1.76,3.26,6.6,6.6,0,0,1-3,1.52,21.46,21.46,0,0,1-4.59.38,23.2,23.2,0,0,1-4.6-.36,6.23,6.23,0,0,1-3-1.53A5.84,5.84,0,0,1,180.8,284,27.16,27.16,0,0,1,180.33,278.34Zm4.43-5a11.23,11.23,0,0,0-.47,3.94q0,2.81.15,4.47a5.37,5.37,0,0,0,1.11,2.89c.37.51,1.23.8,2.58.89.42,0,1.08,0,2,0,2.57,0,4.09-.31,4.55-.93a5.77,5.77,0,0,0,1.13-2.91q.15-1.6.15-3.33,0-5.12-1-6.2a5.47,5.47,0,0,0-.75-.8,5.2,5.2,0,0,0-3.09-.61c-1.59,0-2.6,0-3,.05-1.34.08-2.19.39-2.55.9A10.22,10.22,0,0,0,184.76,273.3Z"/><path class="cls-1" d="M209.53,276.3v10.95c0,1-.65,1.55-2,1.55s-2-.52-2-1.55V275.78c0-2.78.23-4.6.7-5.48a7.64,7.64,0,0,1,1.31-1.87q1.41-1.29,7.08-1.29a12.06,12.06,0,0,1,3.82.39,1.4,1.4,0,0,1,1,1.4,2,2,0,0,1-.54,1.52,1.87,1.87,0,0,1-1.35.5l-2.9-.2a13.25,13.25,0,0,0-3.38.26,3.39,3.39,0,0,0-1,.5,3.6,3.6,0,0,0-.47,1,5.24,5.24,0,0,0-.28,1.53C209.54,274.58,209.53,275.33,209.53,276.3Z"/><path class="cls-1" d="M235.59,271.33c-.92,0-1.37-.54-1.37-1.63a1.78,1.78,0,0,1,1.37-2,31,31,0,0,1,7.13-.58q5,0,6.75,1.59t1.78,5.55v8.48q0,4-1.93,5.18c-1.29.8-3.77,1.2-7.42,1.2s-6.1-.4-7.32-1.2-1.82-2.52-1.82-5.15.47-4.45,1.42-5.44,2.91-1.5,5.85-1.48h7.27v-2.28a2.43,2.43,0,0,0-1-2.23,7.48,7.48,0,0,0-3.59-.61,29.11,29.11,0,0,0-4.49.3A16.08,16.08,0,0,1,235.59,271.33Zm11.71,11.75v-3.73h-6.09a7.58,7.58,0,0,0-3.67.56c-.55.37-.83,1.21-.83,2.53s.35,2.19,1,2.56a10.74,10.74,0,0,0,4.19.53,12.34,12.34,0,0,0,4.23-.47A1.94,1.94,0,0,0,247.3,283.08Zm-7.67-18.17a4.15,4.15,0,0,1,0-5.8,4.08,4.08,0,0,1,5.78,0,4.08,4.08,0,0,1-2.89,7A3.91,3.91,0,0,1,239.63,264.91Zm1.14-2.9a1.75,1.75,0,0,0,.51,1.27,1.68,1.68,0,0,0,1.26.49,1.65,1.65,0,0,0,1.24-.52,1.76,1.76,0,0,0,.51-1.26,1.78,1.78,0,0,0-3-1.25A1.64,1.64,0,0,0,240.77,262Z"/><path class="cls-1" d="M59.45,341.6c-2,0-3.4-.43-4.19-1.29s-1.19-2.33-1.19-4.41V323.79H51.29q-1.32,0-1.32-1.74t1.32-1.74h2.78v-5.6q0-1.53,2-1.53c1.31,0,2,.51,2,1.53v5.6h5.61c.89,0,1.33.58,1.33,1.74s-.44,1.74-1.33,1.74H58v12.4c0,1.2.72,1.8,2.15,1.8l3.74-.21q1.38,0,1.38,1.59a2,2,0,0,1-1.42,2.1C62.92,341.56,61.45,341.6,59.45,341.6Z"/><path class="cls-1" d="M71.62,324.13c-.91,0-1.37-.54-1.37-1.63a1.79,1.79,0,0,1,1.37-2,31.06,31.06,0,0,1,7.14-.58q5,0,6.74,1.59t1.79,5.55v8.48q0,4-1.94,5.18t-7.4,1.2c-3.65,0-6.09-.4-7.34-1.2s-1.87-2.52-1.87-5.15.48-4.45,1.43-5.44,2.92-1.5,5.87-1.48h7.29v-2.28a2.43,2.43,0,0,0-1-2.23,7.48,7.48,0,0,0-3.59-.61,29.11,29.11,0,0,0-4.49.3A16.08,16.08,0,0,1,71.62,324.13Zm11.71,11.75v-3.73H77.22a7.65,7.65,0,0,0-3.69.56c-.55.37-.83,1.21-.83,2.53s.35,2.19,1,2.56a10.76,10.76,0,0,0,4.2.53,12.52,12.52,0,0,0,4.25-.47A1.94,1.94,0,0,0,83.33,335.88Z"/><path class="cls-1" d="M104.11,315.2a2.09,2.09,0,0,1,.64-1.53,2.17,2.17,0,0,1,1.51-.67,2.07,2.07,0,0,1,1.52.67,2.22,2.22,0,0,1,.62,1.55,2.2,2.2,0,0,1-2.14,2.15,2.17,2.17,0,0,1-2.15-2.17Zm4.12,6.63v18.22c0,1-.66,1.55-2,1.55s-2-.52-2-1.55V321.83c0-1,.66-1.54,2-1.54S108.23,320.8,108.23,321.83Z"/><path class="cls-1" d="M125.27,331.14V313.71c0-1.06.68-1.59,2-1.59s2,.53,2,1.59v7.1a13.2,13.2,0,0,1,5.3-.87,23,23,0,0,1,5.09.43,6.12,6.12,0,0,1,3,1.68,7,7,0,0,1,1.71,3.39,27.9,27.9,0,0,1,.47,5.7,28.21,28.21,0,0,1-.45,5.66,5.79,5.79,0,0,1-1.73,3.25,6.78,6.78,0,0,1-3,1.51,21.77,21.77,0,0,1-4.62.38,22.84,22.84,0,0,1-4.58-.36,6,6,0,0,1-2.91-1.53,6.31,6.31,0,0,1-1.74-3.28A25.65,25.65,0,0,1,125.27,331.14Zm15.53.89c0-1.9-.05-3.4-.15-4.51a6,6,0,0,0-1.1-3q-.65-1-4.56-1c-2.27,0-3.64.21-4.13.61a3.39,3.39,0,0,0-1.31,2,22.78,22.78,0,0,0-.41,4.42c0,1.55.05,2.87.15,4a5.53,5.53,0,0,0,1.14,2.93c.37.5,1.24.8,2.6.88.43,0,1.09.05,2,.05s1.53,0,2-.05a7.94,7.94,0,0,0,1.46-.23,1.89,1.89,0,0,0,1.14-.63,9.93,9.93,0,0,0,.78-1.54A11,11,0,0,0,140.8,332Z"/><path class="cls-1" d="M154.47,329.1v10.95c0,1-.66,1.55-2,1.55s-2-.52-2-1.55V328.58c0-2.78.24-4.6.71-5.48a7.66,7.66,0,0,1,1.3-1.87q1.41-1.29,7.08-1.29a12.14,12.14,0,0,1,3.83.39,1.39,1.39,0,0,1,1,1.4,2.07,2.07,0,0,1-.53,1.52,1.91,1.91,0,0,1-1.36.5l-2.9-.2a13.21,13.21,0,0,0-3.37.26,3.14,3.14,0,0,0-1,.5,3.6,3.6,0,0,0-.47,1,4.93,4.93,0,0,0-.28,1.53C154.47,327.38,154.47,328.13,154.47,329.1Z"/><path class="cls-1" d="M174.71,338.31c.46,0,1.14,0,2,0s1.58,0,2,0a5.11,5.11,0,0,0,1.38-.23,2.67,2.67,0,0,0,1.12-.67,2.76,2.76,0,0,0,.47-1.77c0-.87.07-1.81.07-2.82v-11c0-1,.66-1.55,2-1.55s2,.51,2,1.54v11.5a25.09,25.09,0,0,1-.34,4.75,4.23,4.23,0,0,1-1.53,2.55,5.57,5.57,0,0,1-2.67,1.1,48.21,48.21,0,0,1-9,0,5.54,5.54,0,0,1-2.65-1.1,4.1,4.1,0,0,1-1.5-2.55,26.37,26.37,0,0,1-.37-4.75v-11.5c0-1,.68-1.54,2-1.54s2,.51,2,1.55v11c0,2.67.23,4.27.71,4.78a2.13,2.13,0,0,0,.92.48A5.11,5.11,0,0,0,174.71,338.31Z"/><path class="cls-1" d="M195.85,313.71v17l9.84-9.95a2,2,0,0,1,1.46-.67,1.87,1.87,0,0,1,1.37.56,1.68,1.68,0,0,1,.56,1.29,2,2,0,0,1-.71,1.46l-5.67,5.29,7,9.77a2.25,2.25,0,0,1,.43,1.31,1.66,1.66,0,0,1-.62,1.29,2.09,2.09,0,0,1-1.46.6,1.45,1.45,0,0,1-1.29-.71l-6.88-9.62-4,3.74v5c0,1-.66,1.55-2,1.55s-2-.52-2-1.55V313.71c0-1.06.68-1.59,2-1.59S195.85,312.65,195.85,313.71Z"/><path class="cls-1" d="M65.37,387.94v-.5a1.61,1.61,0,0,0-1-1.52,9,9,0,0,0-3.59-.48,21.4,21.4,0,0,1-5.67-.8,4.61,4.61,0,0,1-2.58-1.74,5.6,5.6,0,0,1-1-3.52V379q0-3.69,2.21-4.95c1.48-.86,3.73-1.28,6.75-1.28a28,28,0,0,1,6.7.58,1.77,1.77,0,0,1,1.36,2c0,1.09-.45,1.64-1.36,1.64a27.7,27.7,0,0,1-2.77-.28,30.53,30.53,0,0,0-4.4-.3,11.47,11.47,0,0,0-3.44.38c-.73.26-1.1,1-1.1,2.17v.41c0,1.56,1.64,2.39,4.9,2.49,1.36.06,2.73.18,4.11.35a6.29,6.29,0,0,1,3.48,1.52,4.53,4.53,0,0,1,1.41,3.68v.53q0,4-2.23,5.4t-7.2,1.41a31.85,31.85,0,0,1-7.11-.55,1.78,1.78,0,0,1-1.35-2c0-1.09.45-1.63,1.35-1.63.53,0,1.57.09,3.12.28a38.93,38.93,0,0,0,4.51.27,9.12,9.12,0,0,0,3.59-.59A2.52,2.52,0,0,0,65.37,387.94Z"/><path class="cls-1" d="M78.71,366.51v17l9.84-9.95a2,2,0,0,1,1.46-.67,1.88,1.88,0,0,1,1.38.56,1.71,1.71,0,0,1,.56,1.29,2,2,0,0,1-.71,1.46l-5.67,5.29,7,9.77a2.25,2.25,0,0,1,.43,1.31,1.69,1.69,0,0,1-.62,1.29,2.09,2.09,0,0,1-1.46.6,1.45,1.45,0,0,1-1.29-.71l-6.88-9.62-4,3.74v5c0,1-.65,1.55-2,1.55s-2-.52-2-1.55V366.51c0-1.06.68-1.59,2-1.59S78.71,365.45,78.71,366.51Z"/><path class="cls-1" d="M102,403c-1.13,0-1.7-.51-1.72-1.52,0,0,0-.27.16-.71l2.36-6.34a3.69,3.69,0,0,1-2.15-2.28l-6.25-16.78c-.09-.44-.13-.68-.13-.71,0-1,.56-1.54,1.7-1.54s1.84.38,2.12,1.16L104,390.79h.22l5.88-16.54q.43-1.14,2.13-1.14c1.13,0,1.7.51,1.7,1.52,0,0,0,.27-.13.71l-9.67,26.49Q103.72,403,102,403Z"/><path class="cls-1" d="M134.23,390.62c.9,0,1.35.54,1.35,1.63a1.78,1.78,0,0,1-1.35,2,34.67,34.67,0,0,1-7.16.51q-5,0-7.19-1.63c-1.45-1.09-2.18-2.91-2.19-5.48v-8.05c0-2.7.65-4.51,2-5.44s3.78-1.4,7.37-1.4,6,.45,7.29,1.34,1.89,2.72,1.89,5.5v3.48a2.43,2.43,0,0,1-.59,1.67,1.93,1.93,0,0,1-1.48.6h-12.5v2.58c0,2.16,1.88,3.24,5.65,3.22a32.57,32.57,0,0,0,4.3-.25A23.61,23.61,0,0,1,134.23,390.62Zm-12.59-11v2.26h10.61v-2.26a2.78,2.78,0,0,0-1.07-2.56,8.83,8.83,0,0,0-4.19-.68,9.54,9.54,0,0,0-4.21.63A2.76,2.76,0,0,0,121.64,379.59Z"/><path class="cls-1" d="M146.82,377.11c-.49.5-.73,2.09-.73,4.76v11c0,1-.66,1.55-2,1.55s-2-.52-2-1.55V381.38a22.3,22.3,0,0,1,.39-4.73,4.11,4.11,0,0,1,1.55-2.57,5.76,5.76,0,0,1,2.71-1.1,42.55,42.55,0,0,1,4.87-.24c3.7,0,6,.44,7,1.36a5.82,5.82,0,0,1,1.72,3.86,32.9,32.9,0,0,1,.15,3.42v11.47c0,1-.66,1.55-2,1.55s-2-.52-2-1.55v-11c0-2.65-.25-4.22-.75-4.74s-2-.78-4.52-.78S147.31,376.6,146.82,377.11Z"/><path class="cls-1" d="M177.63,386.26v.41c0,1.08-.66,1.63-2,1.63s-2-.55-2-1.64v-.45a9.47,9.47,0,0,1,.62-3.58,5.17,5.17,0,0,1,1.53-2.21,21.54,21.54,0,0,1,4-2.48,3.51,3.51,0,0,0,2.07-3.3c0-1.92-.32-3.13-1-3.61s-1.93-.74-3.87-.74a50.14,50.14,0,0,0-5.4.28c-1.65.19-2.73.28-3.22.28-.93,0-1.39-.54-1.39-1.63a1.78,1.78,0,0,1,1.37-2,36,36,0,0,1,7.74-.55q5.58,0,7.62,1.65t2.07,6.45a9,9,0,0,1-.6,3.5,4,4,0,0,1-1.49,2c-.61.38-1.25.73-1.93,1.08s-1.33.63-1.93.88a3.64,3.64,0,0,0-1.6,1.4A4.58,4.58,0,0,0,177.63,386.26Zm-4.39,6a2.6,2.6,0,0,1,.69-1.82,2.26,2.26,0,0,1,1.71-.75,2.66,2.66,0,0,1,1.83.75,2.34,2.34,0,0,1,.82,1.8,2.31,2.31,0,0,1-.82,1.79,2.78,2.78,0,0,1-1.85.7,2.35,2.35,0,0,1-1.71-.68A2.55,2.55,0,0,1,173.24,392.27Z"/></svg>