<svg id="Layer_1" data-name="Layer 1" xmlns="http://www.w3.org/2000/svg" viewBox="0 0 300 600"><defs><style>.cls-1{fill:#fff;}</style></defs><title>text</title><path class="cls-1" d="M79.94,152.93v2.57H66.17V132.17h3v20.76Z"/><path class="cls-1" d="M94.47,150.35l2.49.51a7,7,0,0,1-2.66,3.66A7.7,7.7,0,0,1,89.63,156a7.23,7.23,0,0,1-5.72-2.49A9.49,9.49,0,0,1,81.72,147,9.62,9.62,0,0,1,84,140.3a7.33,7.33,0,0,1,5.71-2.54,6.89,6.89,0,0,1,5.44,2.34c1.37,1.56,2.08,3.89,2.11,7H84.71q0,3.92,1.64,5.28a5.3,5.3,0,0,0,3.47,1.37A4.74,4.74,0,0,0,94.47,150.35Zm-.16-5.25a7.41,7.41,0,0,0-.48-2.58,4.33,4.33,0,0,0-1.5-1.92,4.12,4.12,0,0,0-2.55-.79,4.57,4.57,0,0,0-3.39,1.43,5.93,5.93,0,0,0-1.56,3.86Z"/><path class="cls-1" d="M99,151l2.56-.53q.86,3.25,5.41,3.26a5.1,5.1,0,0,0,2.83-.75,2.37,2.37,0,0,0,1.16-2.12c0-1.35-1-2.21-3-2.57l-3.64-.69a6.64,6.64,0,0,1-3.4-1.61,4.13,4.13,0,0,1-1.27-3.16,4.56,4.56,0,0,1,1.73-3.63,6.93,6.93,0,0,1,4.65-1.46c3.74,0,6.06,1.46,6.94,4.39l-2.47.53a4.2,4.2,0,0,0-4.35-2.7,4.94,4.94,0,0,0-2.7.67,2.13,2.13,0,0,0-1,1.89c0,1.27.9,2.07,2.69,2.4l3.36.61c3.52.64,5.28,2.34,5.28,5.12a4.57,4.57,0,0,1-2,3.84,8.52,8.52,0,0,1-5.23,1.46Q100.42,156,99,151Z"/><path class="cls-1" d="M139.81,155.5h-2.69V145a12,12,0,0,0-.23-2.77,2.94,2.94,0,0,0-1.09-1.6,3.15,3.15,0,0,0-2-.67,4.3,4.3,0,0,0-3.46,1.69,6.91,6.91,0,0,0-1.4,4.53v9.3h-2.68V132.17H129v9.24c1.22-2.43,3-3.65,5.23-3.65a6,6,0,0,1,2.71.59,4.56,4.56,0,0,1,1.82,1.58,6.51,6.51,0,0,1,.87,1.92,15.37,15.37,0,0,1,.23,3.17Z"/><path class="cls-1" d="M157.82,138.23l-6,17.27h-2.76l-6.19-17.27h3l4.8,14,4.75-14Z"/><path class="cls-1" d="M166.62,156a6.55,6.55,0,0,1-5.55-2.63,10.6,10.6,0,0,1-2-6.54,9.42,9.42,0,0,1,2.24-6.58,7.22,7.22,0,0,1,5.57-2.46,6.82,6.82,0,0,1,5.64,2.59,10.08,10.08,0,0,1,2.05,6.47,9.72,9.72,0,0,1-2.22,6.6A7.25,7.25,0,0,1,166.62,156Zm.21-2.22a4.26,4.26,0,0,0,3.43-1.69q1.38-1.69,1.38-5.26c0-2.4-.48-4.13-1.45-5.21a4.46,4.46,0,0,0-3.4-1.61,4.26,4.26,0,0,0-3.38,1.63q-1.4,1.63-1.39,5.17,0,3.74,1.39,5.36A4.34,4.34,0,0,0,166.83,153.75Z"/><path class="cls-1" d="M181.3,155.5h-2.68V138.23H181v4a8.61,8.61,0,0,1,2.5-3.7,4.51,4.51,0,0,1,2.57-.85,9.44,9.44,0,0,1,1.06.07v2.56h-.55a4.74,4.74,0,0,0-3.69,1.66,6.75,6.75,0,0,0-1.57,4.36Z"/><path class="cls-1" d="M198.44,138.23v2.11h-4.1V155.5h-2.68V140.34h-2.94v-2.11h2.94c0-2.76.57-4.55,1.59-5.34a5.88,5.88,0,0,1,3.74-1.2,14.53,14.53,0,0,1,2.46.24v2.13a7.09,7.09,0,0,0-1.66-.22,3.72,3.72,0,0,0-2.6.78,3.87,3.87,0,0,0-.85,2.91v.7Z"/><path class="cls-1" d="M207.16,156a6.55,6.55,0,0,1-5.55-2.63,10.53,10.53,0,0,1-2-6.54,9.42,9.42,0,0,1,2.24-6.58,7.22,7.22,0,0,1,5.57-2.46,6.79,6.79,0,0,1,5.63,2.59,10.09,10.09,0,0,1,2.06,6.47,9.72,9.72,0,0,1-2.22,6.6A7.27,7.27,0,0,1,207.16,156Zm.2-2.22a4.26,4.26,0,0,0,3.44-1.69q1.38-1.69,1.38-5.26c0-2.4-.48-4.13-1.45-5.21a4.46,4.46,0,0,0-3.4-1.61,4.3,4.3,0,0,0-3.39,1.63q-1.38,1.63-1.38,5.17,0,3.74,1.38,5.36A4.37,4.37,0,0,0,207.36,153.75Z"/><path class="cls-1" d="M221.84,155.5h-2.69V138.23h2.36v4a8.61,8.61,0,0,1,2.51-3.7,4.48,4.48,0,0,1,2.57-.85,9.59,9.59,0,0,1,1.06.07v2.56h-.55a4.74,4.74,0,0,0-3.69,1.66,6.75,6.75,0,0,0-1.57,4.36Z"/><path class="cls-1" d="M81.52,174.17V197.5H79.09v-3A5.83,5.83,0,0,1,73.64,198a6,6,0,0,1-5-2.54,10.22,10.22,0,0,1-2-6.42,10.88,10.88,0,0,1,1.94-6.61,6,6,0,0,1,5.12-2.64,5.94,5.94,0,0,1,5.08,2.83v-8.42ZM78.84,186.9a4.85,4.85,0,0,0-1.39-3.64,4.46,4.46,0,0,0-3.23-1.37,3.91,3.91,0,0,0-3.29,1.78,8.37,8.37,0,0,0-1.29,5,9.69,9.69,0,0,0,1.19,5.28,3.7,3.7,0,0,0,3.26,1.81,4.35,4.35,0,0,0,3.31-1.57,5.29,5.29,0,0,0,1.44-3.69Z"/><path class="cls-1" d="M98.29,192.35l2.49.51a7,7,0,0,1-2.66,3.66A7.7,7.7,0,0,1,93.45,198a7.27,7.27,0,0,1-5.73-2.49,10.87,10.87,0,0,1,.09-13.18,7.33,7.33,0,0,1,5.71-2.54A6.89,6.89,0,0,1,99,182.1c1.37,1.56,2.08,3.89,2.11,7H88.53c0,2.61.54,4.37,1.64,5.28a5.3,5.3,0,0,0,3.47,1.37A4.74,4.74,0,0,0,98.29,192.35Zm-.16-5.25a7.41,7.41,0,0,0-.48-2.58,4.33,4.33,0,0,0-1.5-1.92,4.14,4.14,0,0,0-2.55-.79,4.57,4.57,0,0,0-3.39,1.43,5.93,5.93,0,0,0-1.56,3.86Z"/><path class="cls-1" d="M112.76,195.67v2.12a19.76,19.76,0,0,1-2.46.18q-5,0-5-5.23v-10.4h-3.06v-2.11h3.06l.12-4.34,2.5-.24v4.58h3.86v2.11h-3.86v10.85c0,1.77.92,2.66,2.77,2.66A13.71,13.71,0,0,0,112.76,195.67Z"/><path class="cls-1" d="M135.85,192.35l2.49.51a7,7,0,0,1-2.66,3.66A7.67,7.67,0,0,1,131,198a7.25,7.25,0,0,1-5.72-2.49A9.49,9.49,0,0,1,123.1,189a9.62,9.62,0,0,1,2.27-6.66,7.33,7.33,0,0,1,5.71-2.54,6.88,6.88,0,0,1,5.44,2.34c1.38,1.56,2.08,3.89,2.12,7H126.09q0,3.92,1.64,5.28a5.31,5.31,0,0,0,3.47,1.37A4.74,4.74,0,0,0,135.85,192.35Zm-.15-5.25a7.9,7.9,0,0,0-.48-2.58,4.42,4.42,0,0,0-1.51-1.92,4.09,4.09,0,0,0-2.54-.79,4.58,4.58,0,0,0-3.4,1.43,6,6,0,0,0-1.56,3.86Z"/><path class="cls-1" d="M145.35,197.5h-2.68V180.23H145v4a8.61,8.61,0,0,1,2.5-3.7,4.53,4.53,0,0,1,2.57-.85,9.3,9.3,0,0,1,1.06.07v2.56h-.54a4.75,4.75,0,0,0-3.7,1.66,6.75,6.75,0,0,0-1.57,4.36Z"/><path class="cls-1" d="M164.25,197.5H163V174.17h2.69v8.94c1.23-2.24,2.92-3.35,5.09-3.35a6.31,6.31,0,0,1,5,2.34q2,2.34,2,6.81a10.45,10.45,0,0,1-2,6.46,6.18,6.18,0,0,1-5.14,2.6,5.9,5.9,0,0,1-5.4-3.33Zm1.39-6.77a5.25,5.25,0,0,0,1.63,3.86,4.75,4.75,0,0,0,3.06,1.2,3.89,3.89,0,0,0,3.31-1.78,8.34,8.34,0,0,0,1.26-4.88,9.7,9.7,0,0,0-1.22-5.24,3.78,3.78,0,0,0-3.37-1.91,4.19,4.19,0,0,0-3.05,1.36,5.71,5.71,0,0,0-1.62,3.51Z"/><path class="cls-1" d="M195.25,197.5h-2.64a29,29,0,0,1-.31-3.12,6.21,6.21,0,0,1-6.05,3.59,6,6,0,0,1-4.46-1.54,5,5,0,0,1-1.56-3.69,5.2,5.2,0,0,1,2.22-4.31q2.22-1.68,7.56-1.68c.48,0,1.24,0,2.29.06a9.93,9.93,0,0,0-.32-3,2.63,2.63,0,0,0-1.34-1.46,5.65,5.65,0,0,0-2.7-.55c-2.72,0-4.31,1-4.75,3.11l-2.48-.43c.6-3.17,3.15-4.76,7.62-4.76,2.38,0,4.07.52,5.07,1.58s1.49,2.88,1.49,5.47v7.34A14.64,14.64,0,0,0,195.25,197.5Zm-2.95-8.64c-1.1-.06-1.93-.1-2.5-.1a9.7,9.7,0,0,0-4.94,1.05,3.34,3.34,0,0,0-1.76,3.05,2.88,2.88,0,0,0,1,2.16,3.88,3.88,0,0,0,2.74.89,5.11,5.11,0,0,0,4-1.77,6.06,6.06,0,0,0,1.56-4.14C192.35,189.68,192.33,189.3,192.3,188.86Zm-1.13-14a2.94,2.94,0,0,1-2.94,2.94,2.89,2.89,0,0,1-2.1-.87,2.81,2.81,0,0,1-.89-2.08,2.86,2.86,0,0,1,.88-2.09,3,3,0,0,1,2.18-.89,2.77,2.77,0,0,1,2,.88A2.93,2.93,0,0,1,191.17,174.83Zm-1.42,0a1.57,1.57,0,0,0-.44-1.11,1.38,1.38,0,0,0-1-.46,1.58,1.58,0,0,0-1.19.46,1.48,1.48,0,0,0-.45,1.07,1.51,1.51,0,0,0,.46,1.11,1.54,1.54,0,0,0,1.11.45,1.44,1.44,0,0,0,1.08-.45A1.5,1.5,0,0,0,189.75,174.83Z"/><path class="cls-1" d="M213.75,174.17V197.5h-2.43v-3a5.84,5.84,0,0,1-5.46,3.43,6,6,0,0,1-5-2.54,10.22,10.22,0,0,1-1.95-6.42,10.87,10.87,0,0,1,1.93-6.61,6.06,6.06,0,0,1,5.13-2.64,5.93,5.93,0,0,1,5.07,2.83v-8.42Zm-2.69,12.73a4.88,4.88,0,0,0-1.38-3.64,4.47,4.47,0,0,0-3.23-1.37,3.91,3.91,0,0,0-3.29,1.78,8.37,8.37,0,0,0-1.29,5,9.6,9.6,0,0,0,1.19,5.28,3.68,3.68,0,0,0,3.25,1.81,4.38,4.38,0,0,0,3.32-1.57,5.33,5.33,0,0,0,1.43-3.69Z"/><path class="cls-1" d="M230.51,192.35l2.5.51a7,7,0,0,1-2.67,3.66,7.67,7.67,0,0,1-4.67,1.45,7.26,7.26,0,0,1-5.72-2.49,9.49,9.49,0,0,1-2.19-6.52A9.62,9.62,0,0,1,220,182.3a7.33,7.33,0,0,1,5.71-2.54,6.92,6.92,0,0,1,5.45,2.34q2.06,2.34,2.11,7H220.75q0,3.92,1.64,5.28a5.31,5.31,0,0,0,3.47,1.37A4.74,4.74,0,0,0,230.51,192.35Zm-.15-5.25a7.9,7.9,0,0,0-.48-2.58,4.42,4.42,0,0,0-1.51-1.92,4.09,4.09,0,0,0-2.54-.79,4.54,4.54,0,0,0-3.39,1.43,6,6,0,0,0-1.57,3.86Z"/><path class="cls-1" d="M104.61,222.23l-6,17.27H95.88l-6.19-17.27h3l4.8,14,4.75-14Z"/><path class="cls-1" d="M110.49,216.17v3H107.6v-3Zm-.09,6.06V239.5h-2.68V222.23Z"/><path class="cls-1" d="M130,239.5h-2.78l-5-9.64-3.74,4.3v5.34h-2.69V216.17h2.69v15l8-8.89h2.87l-5.39,6.06Z"/><path class="cls-1" d="M141.11,237.67v2.12a19.76,19.76,0,0,1-2.46.18c-3.34,0-5-1.74-5-5.23v-10.4h-3.06v-2.11h3.06l.11-4.34,2.5-.24v4.58h3.86v2.11h-3.86v10.85c0,1.77.92,2.66,2.77,2.66A13.71,13.71,0,0,0,141.11,237.67Z"/><path class="cls-1" d="M146.82,216.17v3h-2.89v-3Zm-.08,6.06V239.5h-2.69V222.23Z"/><path class="cls-1" d="M166.18,219.53v2.14a4.78,4.78,0,0,0-2.47.43,2.25,2.25,0,0,0-.82,1.54,6.24,6.24,0,0,1,1.65,4.17,5.37,5.37,0,0,1-1.8,4.05,6.83,6.83,0,0,1-4.84,1.69,6.58,6.58,0,0,1-1.18-.1,8.07,8.07,0,0,0-1.18-.19,2.06,2.06,0,0,0-1.11.45,1.35,1.35,0,0,0-.65,1.17,1.27,1.27,0,0,0,.94,1.33,20,20,0,0,0,4.42.4,24.64,24.64,0,0,1,4.37.4,4.44,4.44,0,0,1,2.38,1.4,3.83,3.83,0,0,1,1,2.66q0,4.94-8.68,4.94c-2.75,0-4.75-.42-6-1.24a3.8,3.8,0,0,1-1.89-3.31,3.48,3.48,0,0,1,2.63-3.46,3.25,3.25,0,0,1-1.69-2.78c0-1.34.8-2.36,2.39-3.06a5.64,5.64,0,0,1-2.24-4.56,5.27,5.27,0,0,1,1.92-4.2,6.87,6.87,0,0,1,4.66-1.64,8.33,8.33,0,0,1,3.54.73,3.29,3.29,0,0,1,1.19-2.34,5,5,0,0,1,2.83-.65Zm-11.41,19.26a2.6,2.6,0,0,0-1.88,2.38,2.23,2.23,0,0,0,1.55,2,9.16,9.16,0,0,0,3.93.73,12.5,12.5,0,0,0,4.07-.63c1.23-.41,1.85-1.11,1.85-2.11a1.73,1.73,0,0,0-.55-1.31,2.67,2.67,0,0,0-1.5-.65q-.94-.13-3.3-.21A41.43,41.43,0,0,1,154.77,238.79ZM158,231.5a3.83,3.83,0,0,0,2.79-1.05,4,4,0,0,0-.05-5.52,3.71,3.71,0,0,0-2.7-1.09,4,4,0,0,0-2.71,1,4.08,4.08,0,0,0-.11,5.6A3.8,3.8,0,0,0,158,231.5Z"/><path class="cls-1" d="M184.21,240a6.54,6.54,0,0,1-5.54-2.63,10.53,10.53,0,0,1-2-6.54,9.38,9.38,0,0,1,2.24-6.58,7.22,7.22,0,0,1,5.57-2.46,6.79,6.79,0,0,1,5.63,2.59,10.09,10.09,0,0,1,2.06,6.47,9.72,9.72,0,0,1-2.22,6.6A7.29,7.29,0,0,1,184.21,240Zm.21-2.22a4.25,4.25,0,0,0,3.43-1.69q1.4-1.69,1.39-5.26c0-2.4-.49-4.13-1.45-5.21a4.48,4.48,0,0,0-3.41-1.61,4.26,4.26,0,0,0-3.38,1.63q-1.38,1.63-1.38,5.17,0,3.74,1.38,5.36A4.34,4.34,0,0,0,184.42,237.75Z"/><path class="cls-1" d="M210.31,219.53v2.14a4.78,4.78,0,0,0-2.47.43,2.25,2.25,0,0,0-.83,1.54,6.2,6.2,0,0,1,1.66,4.17,5.37,5.37,0,0,1-1.8,4.05,6.85,6.85,0,0,1-4.85,1.69,6.66,6.66,0,0,1-1.18-.1,8.07,8.07,0,0,0-1.18-.19,2.09,2.09,0,0,0-1.11.45,1.37,1.37,0,0,0-.65,1.17,1.28,1.28,0,0,0,.94,1.33,20.22,20.22,0,0,0,4.43.4,24.41,24.41,0,0,1,4.36.4,4.43,4.43,0,0,1,2.39,1.4,3.83,3.83,0,0,1,1,2.66q0,4.94-8.68,4.94c-2.74,0-4.75-.42-6-1.24a3.81,3.81,0,0,1-1.88-3.31,3.47,3.47,0,0,1,2.63-3.46,3.25,3.25,0,0,1-1.69-2.78c0-1.34.79-2.36,2.39-3.06a5.64,5.64,0,0,1-2.24-4.56,5.29,5.29,0,0,1,1.91-4.2,6.92,6.92,0,0,1,4.67-1.64,8.33,8.33,0,0,1,3.54.73,3.28,3.28,0,0,1,1.18-2.34,5,5,0,0,1,2.83-.65Zm-11.42,19.26a2.61,2.61,0,0,0-1.88,2.38,2.25,2.25,0,0,0,1.55,2,9.18,9.18,0,0,0,3.94.73,12.54,12.54,0,0,0,4.07-.63c1.23-.41,1.84-1.11,1.84-2.11a1.73,1.73,0,0,0-.54-1.31,2.73,2.73,0,0,0-1.5-.65c-.63-.09-1.73-.16-3.31-.21A41.43,41.43,0,0,1,198.89,238.79Zm3.22-7.29a3.81,3.81,0,0,0,2.78-1.05,3.64,3.64,0,0,0,1.08-2.73,3.69,3.69,0,0,0-1.12-2.79,3.74,3.74,0,0,0-2.71-1.09,4,4,0,0,0-2.7,1,3.6,3.6,0,0,0-1.18,2.89,3.64,3.64,0,0,0,1.06,2.71A3.84,3.84,0,0,0,202.11,231.5Z"/><path class="cls-1" d="M86.44,281.5H83.76V258.17h2.68Z"/><path class="cls-1" d="M92.27,279.08a10.53,10.53,0,0,1-1.81-6.29,9.41,9.41,0,0,1,2.24-6.56,7.57,7.57,0,0,1,10-1.07l1.54-2.05h2.39L104,266.52a10.17,10.17,0,0,1,1.92,6.3,9.77,9.77,0,0,1-2.21,6.6A7.28,7.28,0,0,1,98,282a6.55,6.55,0,0,1-4.44-1.49l-1.48,2H89.74ZM94,276.74l7.15-9.56a4.37,4.37,0,0,0-3-1.2,4.3,4.3,0,0,0-3.38,1.62q-1.4,1.63-1.39,5.22A10.78,10.78,0,0,0,94,276.74Zm8.31-7.94-7.26,9.66a4.41,4.41,0,0,0,3.14,1.29,4.24,4.24,0,0,0,3.42-1.69q1.4-1.69,1.39-5.26A9.68,9.68,0,0,0,102.33,268.8Z"/><path class="cls-1" d="M123.6,281.5h-2.52V270.4a4.45,4.45,0,0,0-1-3.36,3.57,3.57,0,0,0-2.53-1,4.36,4.36,0,0,0-3.44,1.64,6.47,6.47,0,0,0-1.39,4.33v9.47H110V264.23h2.5v3.18q2.1-3.65,5.45-3.65a5.38,5.38,0,0,1,3.29,1,5.25,5.25,0,0,1,1.86,2.24,13.59,13.59,0,0,1,.51,4.52Z"/><path class="cls-1" d="M142.57,281.5h-2.52V270.4a4.45,4.45,0,0,0-1-3.36,3.57,3.57,0,0,0-2.53-1A4.35,4.35,0,0,0,133,267.7a6.47,6.47,0,0,0-1.39,4.33v9.47H129V264.23h2.5v3.18q2.1-3.65,5.45-3.65a5.38,5.38,0,0,1,3.29,1,5.25,5.25,0,0,1,1.86,2.24,13.59,13.59,0,0,1,.51,4.52Z"/><path class="cls-1" d="M145.61,277l2.56-.53q.86,3.25,5.4,3.26a5.14,5.14,0,0,0,2.84-.75,2.38,2.38,0,0,0,1.16-2.11c0-1.36-1-2.22-3-2.58l-3.64-.69a6.72,6.72,0,0,1-3.4-1.61,4.16,4.16,0,0,1-1.26-3.16,4.55,4.55,0,0,1,1.72-3.63,7,7,0,0,1,4.65-1.46q5.63,0,6.94,4.39l-2.46.53a4.21,4.21,0,0,0-4.36-2.7,4.9,4.9,0,0,0-2.69.67,2.13,2.13,0,0,0-1.05,1.89c0,1.27.89,2.08,2.68,2.4l3.37.61q5.28,1,5.28,5.12a4.57,4.57,0,0,1-2,3.84A8.54,8.54,0,0,1,153.2,282Q147.07,282,145.61,277Z"/><path class="cls-1" d="M170.35,282a6.52,6.52,0,0,1-5.54-2.63,10.5,10.5,0,0,1-2-6.53,9.39,9.39,0,0,1,2.24-6.59,7.22,7.22,0,0,1,5.57-2.46,6.8,6.8,0,0,1,5.63,2.59,10.09,10.09,0,0,1,2.06,6.47,9.72,9.72,0,0,1-2.22,6.6A7.27,7.27,0,0,1,170.35,282Zm.21-2.22a4.25,4.25,0,0,0,3.43-1.69q1.39-1.69,1.39-5.26c0-2.4-.49-4.13-1.45-5.21a4.48,4.48,0,0,0-3.4-1.61,4.27,4.27,0,0,0-3.39,1.63q-1.38,1.63-1.38,5.17,0,3.74,1.38,5.36A4.34,4.34,0,0,0,170.56,279.75Z"/><path class="cls-1" d="M205.47,281.5h-2.61V270.76a10.1,10.1,0,0,0-.23-2.48,3,3,0,0,0-1.12-1.52,3.13,3.13,0,0,0-2-.7,4.24,4.24,0,0,0-3,1.41,5.82,5.82,0,0,0-1.42,4.3v9.73h-2.6V270.13a4,4,0,0,0-1.09-3.21,3.41,3.41,0,0,0-2.28-.94,3.8,3.8,0,0,0-3,1.47,5.52,5.52,0,0,0-1.27,3.72V281.5h-2.56V264.23h2.31v3.32q1.93-3.8,5.31-3.79a4.44,4.44,0,0,1,3.16,1.21,5.52,5.52,0,0,1,1.68,2.92q1.77-4.12,5.45-4.13a4.94,4.94,0,0,1,3.09,1,4.64,4.64,0,0,1,1.72,2.31,13.05,13.05,0,0,1,.4,3.68Z"/><path class="cls-1" d="M218.67,279.67v2.12a20,20,0,0,1-2.46.18q-5,0-5-5.23v-10.4h-3.06v-2.11h3.06l.12-4.34,2.49-.24v4.58h3.87v2.11h-3.87v10.85c0,1.78.93,2.66,2.77,2.66A13.83,13.83,0,0,0,218.67,279.67Z"/><path class="cls-1" d="M116,323.5h-2.65q-.15-.83-.3-3.12a6.22,6.22,0,0,1-6,3.59,6,6,0,0,1-4.46-1.54,5,5,0,0,1-1.56-3.69,5.2,5.2,0,0,1,2.22-4.31q2.22-1.68,7.56-1.68c.47,0,1.24,0,2.29.06a9.93,9.93,0,0,0-.32-3,2.63,2.63,0,0,0-1.34-1.46,5.71,5.71,0,0,0-2.7-.55q-4.1,0-4.75,3.11l-2.48-.42q.9-4.77,7.62-4.77c2.38,0,4.07.52,5.07,1.58s1.49,2.88,1.49,5.47v7.34A14.58,14.58,0,0,0,116,323.5Zm-3-8.63c-1.1-.07-1.93-.11-2.5-.11a9.7,9.7,0,0,0-4.94,1.05,3.34,3.34,0,0,0-1.76,3.05,2.88,2.88,0,0,0,1,2.16,3.88,3.88,0,0,0,2.74.89,5.08,5.08,0,0,0,4-1.77,6,6,0,0,0,1.57-4.14C113.08,315.68,113.06,315.3,113,314.87Zm-1.13-14a2.82,2.82,0,0,1-.87,2.08,2.79,2.79,0,0,1-2.07.86,2.89,2.89,0,0,1-2.1-.87,2.78,2.78,0,0,1-.89-2.08,2.86,2.86,0,0,1,.88-2.09,2.94,2.94,0,0,1,2.18-.89,2.73,2.73,0,0,1,2,.88A2.9,2.9,0,0,1,111.9,300.83Zm-1.42,0a1.57,1.57,0,0,0-.44-1.11,1.41,1.41,0,0,0-1-.46,1.62,1.62,0,0,0-1.19.46,1.48,1.48,0,0,0-.45,1.07,1.51,1.51,0,0,0,.46,1.11,1.55,1.55,0,0,0,1.11.46,1.44,1.44,0,0,0,1.08-.46A1.46,1.46,0,0,0,110.48,300.83Z"/><path class="cls-1" d="M143.84,303.54v2.13a4.78,4.78,0,0,0-2.47.43,2.25,2.25,0,0,0-.83,1.54,6.2,6.2,0,0,1,1.66,4.17,5.37,5.37,0,0,1-1.8,4.05,6.85,6.85,0,0,1-4.85,1.69,6.58,6.58,0,0,1-1.18-.1,8.07,8.07,0,0,0-1.18-.19,2.06,2.06,0,0,0-1.11.45,1.37,1.37,0,0,0-.65,1.17,1.27,1.27,0,0,0,.94,1.33,20.13,20.13,0,0,0,4.43.4,24.51,24.51,0,0,1,4.36.4,4.47,4.47,0,0,1,2.39,1.4,3.83,3.83,0,0,1,1,2.66q0,4.94-8.68,4.94c-2.75,0-4.75-.42-6-1.24a3.79,3.79,0,0,1-1.88-3.31,3.47,3.47,0,0,1,2.63-3.46,3.25,3.25,0,0,1-1.69-2.78c0-1.34.79-2.35,2.39-3.06A5.64,5.64,0,0,1,129,311.6a5.29,5.29,0,0,1,1.91-4.2,6.9,6.9,0,0,1,4.67-1.64,8.33,8.33,0,0,1,3.54.73,3.28,3.28,0,0,1,1.18-2.34,5,5,0,0,1,2.83-.65C143.3,303.5,143.52,303.51,143.84,303.54Zm-11.42,19.25a2.61,2.61,0,0,0-1.88,2.38,2.25,2.25,0,0,0,1.55,2,9.18,9.18,0,0,0,3.94.73,12.54,12.54,0,0,0,4.07-.63c1.23-.41,1.84-1.11,1.84-2.1a1.73,1.73,0,0,0-.54-1.32,2.73,2.73,0,0,0-1.5-.65,32.65,32.65,0,0,0-3.31-.2C134.71,323,133.32,322.91,132.42,322.79Zm3.22-7.29a3.83,3.83,0,0,0,2.78-1.05,3.64,3.64,0,0,0,1.08-2.73,3.78,3.78,0,0,0-3.83-3.88,4,4,0,0,0-2.7,1,4.06,4.06,0,0,0-.12,5.6A3.82,3.82,0,0,0,135.64,315.5Z"/><path class="cls-1" d="M149.62,306.05v18c0,2-.49,3.44-1.45,4.23a5.34,5.34,0,0,1-3.53,1.2,11,11,0,0,1-2.51-.36V327a9,9,0,0,0,2,.26,2.77,2.77,0,0,0,2.17-.73,3.69,3.69,0,0,0,.66-2.5v-18Zm.13-5.88v3h-3v-3Z"/><path class="cls-1" d="M155.4,321.08a10.6,10.6,0,0,1-1.8-6.29,9.36,9.36,0,0,1,2.24-6.56,7.57,7.57,0,0,1,10-1.07l1.54-2.05h2.39l-2.57,3.41a10.17,10.17,0,0,1,1.92,6.3,9.72,9.72,0,0,1-2.22,6.6,7.25,7.25,0,0,1-5.75,2.55,6.55,6.55,0,0,1-4.44-1.49l-1.48,2h-2.33Zm1.75-2.34,7.16-9.56a4.38,4.38,0,0,0-3-1.2,4.29,4.29,0,0,0-3.37,1.62q-1.4,1.63-1.39,5.22A11,11,0,0,0,157.15,318.74Zm8.32-7.94-7.26,9.66a4.39,4.39,0,0,0,3.14,1.29,4.24,4.24,0,0,0,3.42-1.69q1.39-1.69,1.39-5.26A9.68,9.68,0,0,0,165.47,310.8Z"/><path class="cls-1" d="M175.81,323.5h-2.68V306.23h2.36v4a8.7,8.7,0,0,1,2.5-3.7,4.53,4.53,0,0,1,2.57-.85c.28,0,.63,0,1.07.07v2.56h-.55a4.74,4.74,0,0,0-3.69,1.66,6.76,6.76,0,0,0-1.58,4.36Z"/><path class="cls-1" d="M196.07,318.35l2.49.52a7,7,0,0,1-2.67,3.66,7.7,7.7,0,0,1-4.66,1.44,7.29,7.29,0,0,1-5.73-2.48,10.89,10.89,0,0,1,.09-13.19,7.31,7.31,0,0,1,5.71-2.54,6.89,6.89,0,0,1,5.44,2.34c1.37,1.56,2.08,3.89,2.11,7H186.31c0,2.6.54,4.36,1.64,5.27a5.3,5.3,0,0,0,3.47,1.37A4.74,4.74,0,0,0,196.07,318.35Zm-.16-5.24a7.32,7.32,0,0,0-.48-2.58,4.37,4.37,0,0,0-1.5-1.93,4.14,4.14,0,0,0-2.55-.79,4.57,4.57,0,0,0-3.39,1.43,5.93,5.93,0,0,0-1.56,3.87Z"/><path class="cls-1" d="M112.34,342.17V365.5h-2.42v-3a5.84,5.84,0,0,1-5.46,3.43,6,6,0,0,1-5-2.54,10.22,10.22,0,0,1-2-6.42,10.89,10.89,0,0,1,1.93-6.61,6,6,0,0,1,5.12-2.64,5.94,5.94,0,0,1,5.08,2.83v-8.42Zm-2.68,12.73a4.85,4.85,0,0,0-1.39-3.64,4.44,4.44,0,0,0-3.23-1.37,3.89,3.89,0,0,0-3.28,1.78,8.32,8.32,0,0,0-1.3,5,9.69,9.69,0,0,0,1.19,5.28,3.7,3.7,0,0,0,3.26,1.81,4.35,4.35,0,0,0,3.31-1.57,5.29,5.29,0,0,0,1.44-3.69Z"/><path class="cls-1" d="M120.48,342.17v3h-2.89v-3Zm-.09,6.06V365.5h-2.68V348.23Z"/><path class="cls-1" d="M139.84,345.54v2.13a4.78,4.78,0,0,0-2.47.43,2.25,2.25,0,0,0-.83,1.54,6.2,6.2,0,0,1,1.66,4.17,5.37,5.37,0,0,1-1.8,4.05,6.85,6.85,0,0,1-4.85,1.69,6.66,6.66,0,0,1-1.18-.1,7.87,7.87,0,0,0-1.18-.19,2.09,2.09,0,0,0-1.11.45,1.37,1.37,0,0,0-.65,1.17,1.28,1.28,0,0,0,.94,1.33,20.13,20.13,0,0,0,4.43.4,24.64,24.64,0,0,1,4.37.4,4.44,4.44,0,0,1,2.38,1.4,3.83,3.83,0,0,1,1,2.66q0,4.94-8.68,4.94c-2.74,0-4.75-.42-6-1.24a3.81,3.81,0,0,1-1.88-3.31,3.47,3.47,0,0,1,2.63-3.46,3.25,3.25,0,0,1-1.69-2.78c0-1.34.79-2.35,2.39-3.06A5.64,5.64,0,0,1,125,353.6a5.29,5.29,0,0,1,1.91-4.2,6.92,6.92,0,0,1,4.67-1.64,8.33,8.33,0,0,1,3.54.73,3.28,3.28,0,0,1,1.18-2.34,5,5,0,0,1,2.83-.65C139.3,345.5,139.52,345.51,139.84,345.54Zm-11.42,19.25a2.61,2.61,0,0,0-1.88,2.38,2.25,2.25,0,0,0,1.55,2,9.18,9.18,0,0,0,3.94.73,12.54,12.54,0,0,0,4.07-.63c1.23-.41,1.84-1.11,1.84-2.1a1.73,1.73,0,0,0-.54-1.32,2.73,2.73,0,0,0-1.5-.65,32.65,32.65,0,0,0-3.31-.2C130.71,365,129.32,364.91,128.42,364.79Zm3.22-7.29a3.81,3.81,0,0,0,2.78-1.05,3.64,3.64,0,0,0,1.08-2.73,3.69,3.69,0,0,0-1.12-2.79,3.74,3.74,0,0,0-2.71-1.09,4,4,0,0,0-2.7,1,4.06,4.06,0,0,0-.12,5.6A3.84,3.84,0,0,0,131.64,357.5Z"/><path class="cls-1" d="M145.7,342.17v3h-2.89v-3Zm-.08,6.06V365.5h-2.69V348.23Z"/><path class="cls-1" d="M158.79,363.67v2.12a19.76,19.76,0,0,1-2.46.18q-5,0-5-5.23v-10.4h-3v-2.11h3l.12-4.34,2.5-.24v4.58h3.86v2.11h-3.86v10.85c0,1.77.92,2.67,2.77,2.67A13.82,13.82,0,0,0,158.79,363.67Z"/><path class="cls-1" d="M175.23,365.5h-2.65q-.15-.83-.3-3.12a6.22,6.22,0,0,1-6.05,3.59,6,6,0,0,1-4.46-1.54,5,5,0,0,1-1.56-3.69,5.2,5.2,0,0,1,2.22-4.31q2.22-1.68,7.56-1.68c.47,0,1.24,0,2.29.06a9.93,9.93,0,0,0-.32-3,2.63,2.63,0,0,0-1.34-1.46,5.65,5.65,0,0,0-2.7-.55c-2.72,0-4.31,1-4.75,3.11l-2.48-.42q.9-4.77,7.62-4.77c2.38,0,4.07.52,5.07,1.58s1.49,2.88,1.49,5.47v7.34A14.58,14.58,0,0,0,175.23,365.5Zm-2.95-8.63c-1.1-.07-1.93-.11-2.5-.11a9.7,9.7,0,0,0-4.94,1.05,3.34,3.34,0,0,0-1.76,3.05A2.88,2.88,0,0,0,164,363a3.88,3.88,0,0,0,2.74.89,5.08,5.08,0,0,0,4-1.77,6,6,0,0,0,1.57-4.14C172.33,357.68,172.31,357.3,172.28,356.87Z"/><path class="cls-1" d="M182.92,365.5h-2.68V342.17h2.68Z"/><path class="cls-1" d="M199.69,360.35l2.49.52a7,7,0,0,1-2.66,3.66,7.73,7.73,0,0,1-4.67,1.44,7.26,7.26,0,0,1-5.72-2.48,10.87,10.87,0,0,1,.08-13.19,7.33,7.33,0,0,1,5.71-2.54,6.88,6.88,0,0,1,5.44,2.34c1.38,1.56,2.08,3.89,2.11,7H189.93q0,3.9,1.64,5.27a5.3,5.3,0,0,0,3.47,1.37A4.74,4.74,0,0,0,199.69,360.35Zm-.15-5.24a7.8,7.8,0,0,0-.48-2.58,4.39,4.39,0,0,0-1.51-1.93,4.09,4.09,0,0,0-2.54-.79,4.58,4.58,0,0,0-3.4,1.43,5.93,5.93,0,0,0-1.56,3.87Z"/><path class="cls-1" d="M95.34,405.67v2.12a20,20,0,0,1-2.46.18q-5,0-5-5.23v-10.4H84.81v-2.11h3.06l.12-4.34,2.49-.24v4.58h3.87v2.11H90.48v10.85c0,1.77.93,2.67,2.77,2.67A14,14,0,0,0,95.34,405.67Z"/><path class="cls-1" d="M101,390.05v18c0,2-.48,3.44-1.44,4.23a5.35,5.35,0,0,1-3.53,1.2,10.92,10.92,0,0,1-2.51-.36V411a8.9,8.9,0,0,0,2,.26,2.81,2.81,0,0,0,2.18-.73,3.69,3.69,0,0,0,.66-2.5v-18Zm.14-5.88v3h-3v-3Z"/><path class="cls-1" d="M117.69,402.35l2.5.52a7.1,7.1,0,0,1-2.67,3.66,7.73,7.73,0,0,1-4.67,1.44,7.28,7.28,0,0,1-5.72-2.48,10.85,10.85,0,0,1,.09-13.19,7.29,7.29,0,0,1,5.7-2.54,6.92,6.92,0,0,1,5.45,2.34c1.37,1.56,2.07,3.89,2.11,7H107.93q0,3.9,1.64,5.27a5.31,5.31,0,0,0,3.47,1.37A4.74,4.74,0,0,0,117.69,402.35Zm-.15-5.24a7.8,7.8,0,0,0-.48-2.58,4.44,4.44,0,0,0-1.5-1.93,4.14,4.14,0,0,0-2.55-.79,4.56,4.56,0,0,0-3.39,1.43,6,6,0,0,0-1.57,3.87Z"/><path class="cls-1" d="M138.11,407.5H135.6V396.4a4.49,4.49,0,0,0-1-3.36,3.58,3.58,0,0,0-2.53-1,4.31,4.31,0,0,0-3.44,1.65,6.43,6.43,0,0,0-1.4,4.32v9.47h-2.68V390.23H127v3.18c1.4-2.43,3.21-3.65,5.45-3.65a5.4,5.4,0,0,1,3.29,1,5.32,5.32,0,0,1,1.86,2.24,13.66,13.66,0,0,1,.5,4.52Z"/><path class="cls-1" d="M154.88,402.35l2.49.52a7,7,0,0,1-2.66,3.66A7.73,7.73,0,0,1,150,408a7.27,7.27,0,0,1-5.72-2.48,10.87,10.87,0,0,1,.08-13.19,7.33,7.33,0,0,1,5.71-2.54,6.88,6.88,0,0,1,5.44,2.34c1.38,1.56,2.08,3.89,2.11,7H145.12q0,3.9,1.64,5.27a5.3,5.3,0,0,0,3.47,1.37A4.74,4.74,0,0,0,154.88,402.35Zm-.16-5.24a7.55,7.55,0,0,0-.47-2.58,4.39,4.39,0,0,0-1.51-1.93,4.09,4.09,0,0,0-2.54-.79,4.58,4.58,0,0,0-3.4,1.43,6,6,0,0,0-1.56,3.87Z"/><path class="cls-1" d="M159.37,403l2.57-.53q.85,3.25,5.4,3.26a5.1,5.1,0,0,0,2.83-.75,2.38,2.38,0,0,0,1.17-2.12c0-1.35-1-2.21-3-2.57l-3.64-.69a6.68,6.68,0,0,1-3.4-1.61,4.16,4.16,0,0,1-1.27-3.16,4.56,4.56,0,0,1,1.73-3.63,6.93,6.93,0,0,1,4.65-1.46q5.63,0,6.94,4.39l-2.46.53a4.21,4.21,0,0,0-4.36-2.7,4.88,4.88,0,0,0-2.69.67,2.13,2.13,0,0,0-1,1.89c0,1.27.89,2.08,2.68,2.41l3.37.6c3.52.64,5.28,2.34,5.28,5.12a4.57,4.57,0,0,1-2,3.84A8.52,8.52,0,0,1,167,408Q160.82,408,159.37,403Z"/><path class="cls-1" d="M185.76,405.67v2.12a20,20,0,0,1-2.46.18q-5,0-5-5.23v-10.4h-3.06v-2.11h3.06l.12-4.34,2.5-.24v4.58h3.86v2.11h-3.86v10.85c0,1.77.92,2.67,2.77,2.67A13.82,13.82,0,0,0,185.76,405.67Z"/><path class="cls-1" d="M199.5,402.35l2.5.52a7.1,7.1,0,0,1-2.67,3.66,7.73,7.73,0,0,1-4.67,1.44,7.28,7.28,0,0,1-5.72-2.48A10.87,10.87,0,0,1,189,392.3a7.33,7.33,0,0,1,5.71-2.54,6.92,6.92,0,0,1,5.45,2.34c1.37,1.56,2.07,3.89,2.11,7H189.74q0,3.9,1.64,5.27a5.31,5.31,0,0,0,3.47,1.37A4.74,4.74,0,0,0,199.5,402.35Zm-.15-5.24a7.8,7.8,0,0,0-.48-2.58,4.39,4.39,0,0,0-1.51-1.93,4.09,4.09,0,0,0-2.54-.79,4.54,4.54,0,0,0-3.39,1.43,6,6,0,0,0-1.57,3.87Z"/><path class="cls-1" d="M209,407.5h-2.68V390.23h2.36v4a8.61,8.61,0,0,1,2.5-3.7,4.53,4.53,0,0,1,2.57-.85c.28,0,.63,0,1.06.07v2.56h-.54a4.76,4.76,0,0,0-3.7,1.66,6.75,6.75,0,0,0-1.57,4.36Z"/><path class="cls-1" d="M94.06,449.5H91.64v-3.3Q89.79,450,86.14,450A5.21,5.21,0,0,1,82,448.23a7.34,7.34,0,0,1-1.51-5v-11h2.68v11c0,1.71.36,2.88,1.07,3.53a3.45,3.45,0,0,0,2.35,1,4,4,0,0,0,2.35-.73,5.66,5.66,0,0,0,1.75-2.1,6.3,6.3,0,0,0,.7-3v-9.73h2.68Z"/><path class="cls-1" d="M113,449.5h-2.51V438.4a4.49,4.49,0,0,0-1-3.36,3.58,3.58,0,0,0-2.53-1,4.33,4.33,0,0,0-3.44,1.65,6.43,6.43,0,0,0-1.4,4.32v9.47H99.43V432.23h2.5v3.18c1.4-2.43,3.21-3.65,5.45-3.65a5.38,5.38,0,0,1,3.29,1,5.32,5.32,0,0,1,1.86,2.24,13.66,13.66,0,0,1,.5,4.52Z"/><path class="cls-1" d="M121.17,426.17v3h-2.89v-3Zm-.09,6.06V449.5H118.4V432.23Z"/><path class="cls-1" d="M139.08,432.23l-6,17.27h-2.76l-6.19-17.27h3l4.8,14,4.75-14Z"/><path class="cls-1" d="M153.06,444.35l2.49.52a7,7,0,0,1-2.66,3.66,7.73,7.73,0,0,1-4.67,1.44,7.27,7.27,0,0,1-5.72-2.48,10.87,10.87,0,0,1,.08-13.19,7.33,7.33,0,0,1,5.71-2.54,6.88,6.88,0,0,1,5.44,2.34c1.38,1.56,2.08,3.89,2.11,7H143.3q0,3.9,1.64,5.27a5.31,5.31,0,0,0,3.47,1.37A4.74,4.74,0,0,0,153.06,444.35Zm-.15-5.24a7.8,7.8,0,0,0-.48-2.58,4.39,4.39,0,0,0-1.51-1.93,4.09,4.09,0,0,0-2.54-.79,4.58,4.58,0,0,0-3.4,1.43,6,6,0,0,0-1.56,3.87Z"/><path class="cls-1" d="M162.56,449.5h-2.68V432.23h2.36v4a8.61,8.61,0,0,1,2.5-3.7,4.51,4.51,0,0,1,2.57-.85c.28,0,.63,0,1.06.07v2.56h-.55a4.74,4.74,0,0,0-3.69,1.66,6.75,6.75,0,0,0-1.57,4.36Z"/><path class="cls-1" d="M169.29,445l2.57-.53q.85,3.25,5.4,3.26a5.14,5.14,0,0,0,2.84-.75,2.4,2.4,0,0,0,1.16-2.12c0-1.35-1-2.21-3-2.57l-3.64-.69a6.68,6.68,0,0,1-3.4-1.61,4.16,4.16,0,0,1-1.26-3.16,4.55,4.55,0,0,1,1.72-3.63,6.93,6.93,0,0,1,4.65-1.46q5.63,0,6.94,4.39l-2.46.53a4.21,4.21,0,0,0-4.36-2.7,4.9,4.9,0,0,0-2.69.67,2.13,2.13,0,0,0-1.05,1.89c0,1.27.89,2.08,2.68,2.41l3.37.6c3.52.64,5.28,2.34,5.28,5.12a4.57,4.57,0,0,1-2,3.84,8.52,8.52,0,0,1-5.23,1.46Q170.75,450,169.29,445Z"/><path class="cls-1" d="M199.25,444.35l2.5.52a7.1,7.1,0,0,1-2.67,3.66,7.7,7.7,0,0,1-4.66,1.44,7.29,7.29,0,0,1-5.73-2.48,10.85,10.85,0,0,1,.09-13.19,7.31,7.31,0,0,1,5.7-2.54,6.92,6.92,0,0,1,5.45,2.34c1.37,1.56,2.07,3.89,2.11,7H189.49q0,3.9,1.64,5.27a5.31,5.31,0,0,0,3.47,1.37A4.74,4.74,0,0,0,199.25,444.35Zm-.15-5.24a7.32,7.32,0,0,0-.48-2.58,4.44,4.44,0,0,0-1.5-1.93,4.14,4.14,0,0,0-2.55-.79,4.57,4.57,0,0,0-3.39,1.43,6,6,0,0,0-1.57,3.87Z"/><path class="cls-1" d="M208.75,449.5h-2.68V426.17h2.68Z"/><path class="cls-1" d="M222,447.67v2.12a20,20,0,0,1-2.46.18q-5,0-5-5.23v-10.4h-3.06v-2.11h3.06l.12-4.34,2.49-.24v4.58H221v2.11h-3.87v10.85c0,1.77.93,2.67,2.77,2.67A14,14,0,0,0,222,447.67Z"/><path class="cls-1" d="M103.05,491.5h-2.42v-3.3Q98.79,492,95.13,492A5.2,5.2,0,0,1,91,490.23a7.34,7.34,0,0,1-1.51-5v-11h2.68v11c0,1.71.36,2.88,1.07,3.53a3.43,3.43,0,0,0,2.35,1,4,4,0,0,0,2.35-.73,5.66,5.66,0,0,0,1.75-2.1,6.3,6.3,0,0,0,.7-3v-9.73h2.68Z"/><path class="cls-1" d="M116.25,489.67v2.12a20,20,0,0,1-2.46.18q-5,0-5-5.23v-10.4h-3.06v-2.11h3.06l.12-4.34,2.49-.24v4.58h3.87v2.11h-3.87v10.85c0,1.77.93,2.67,2.77,2.67A14,14,0,0,0,116.25,489.67Z"/><path class="cls-1" d="M126.35,474.23v2.11h-4.1V491.5h-2.69V476.34h-2.94v-2.11h2.94c0-2.76.58-4.55,1.6-5.34a5.88,5.88,0,0,1,3.74-1.2,14.72,14.72,0,0,1,2.46.24v2.13a7.23,7.23,0,0,0-1.66-.22,3.75,3.75,0,0,0-2.61.78,3.93,3.93,0,0,0-.84,2.92v.69Z"/><path class="cls-1" d="M135.06,492a6.52,6.52,0,0,1-5.54-2.63,10.51,10.51,0,0,1-2-6.54,9.38,9.38,0,0,1,2.24-6.58,7.22,7.22,0,0,1,5.57-2.46,6.8,6.8,0,0,1,5.63,2.59,10.09,10.09,0,0,1,2.06,6.47,9.72,9.72,0,0,1-2.22,6.6A7.29,7.29,0,0,1,135.06,492Zm.21-2.22a4.25,4.25,0,0,0,3.43-1.69q1.4-1.69,1.39-5.26c0-2.4-.49-4.13-1.45-5.21a4.48,4.48,0,0,0-3.41-1.61,4.26,4.26,0,0,0-3.38,1.63q-1.38,1.63-1.38,5.17c0,2.5.46,4.28,1.38,5.36A4.34,4.34,0,0,0,135.27,489.75Z"/><path class="cls-1" d="M149.74,491.5h-2.68V474.23h2.36v4a8.7,8.7,0,0,1,2.5-3.7,4.53,4.53,0,0,1,2.57-.85c.28,0,.63,0,1.06.07v2.56H155a4.73,4.73,0,0,0-3.69,1.66,6.76,6.76,0,0,0-1.58,4.36Z"/><path class="cls-1" d="M181.72,491.5H179.1V480.76a9.63,9.63,0,0,0-.23-2.48,2.88,2.88,0,0,0-1.12-1.52,3.13,3.13,0,0,0-2-.7,4.22,4.22,0,0,0-3,1.41,5.82,5.82,0,0,0-1.43,4.3v9.73h-2.6V480.13a4.07,4.07,0,0,0-1.08-3.21,3.41,3.41,0,0,0-2.28-.94,3.84,3.84,0,0,0-3,1.47,5.51,5.51,0,0,0-1.26,3.72V491.5H158.6V474.23h2.3v3.32q1.93-3.8,5.32-3.79a4.46,4.46,0,0,1,3.16,1.21,5.5,5.5,0,0,1,1.67,2.92c1.19-2.76,3-4.13,5.46-4.13a4.89,4.89,0,0,1,3.08,1,4.67,4.67,0,0,1,1.73,2.31,13.43,13.43,0,0,1,.4,3.68Z"/><path class="cls-1" d="M198.48,486.35l2.5.52a7.1,7.1,0,0,1-2.67,3.66,7.7,7.7,0,0,1-4.66,1.44,7.29,7.29,0,0,1-5.73-2.48A10.85,10.85,0,0,1,188,476.3a7.31,7.31,0,0,1,5.71-2.54,6.89,6.89,0,0,1,5.44,2.34c1.37,1.56,2.08,3.89,2.11,7H188.73c0,2.6.54,4.36,1.64,5.27a5.3,5.3,0,0,0,3.47,1.37A4.73,4.73,0,0,0,198.48,486.35Zm-.15-5.24a7.32,7.32,0,0,0-.48-2.58,4.44,4.44,0,0,0-1.5-1.93,4.14,4.14,0,0,0-2.55-.79,4.57,4.57,0,0,0-3.39,1.43,5.93,5.93,0,0,0-1.56,3.87Z"/><path class="cls-1" d="M213,489.67v2.12a20,20,0,0,1-2.46.18q-5,0-5-5.23v-10.4h-3.06v-2.11h3.06l.12-4.34,2.5-.24v4.58H212v2.11h-3.86v10.85c0,1.77.92,2.67,2.76,2.67A14,14,0,0,0,213,489.67Z"/></svg>