<svg id="Layer_1" data-name="Layer 1" xmlns="http://www.w3.org/2000/svg" viewBox="0 0 300 600"><defs><style>.cls-1{fill:#fff;}</style></defs><title>text</title><path class="cls-1" d="M70.57,325.5V302.17h9.22q3.49,0,5.17,1.71a5.45,5.45,0,0,1,1.69,4q0,4-4.14,5.26a6.26,6.26,0,0,1,3.66,2.26,6,6,0,0,1,1.2,3.67,6.23,6.23,0,0,1-1.86,4.61c-1.24,1.24-3.14,1.86-5.72,1.86Zm2.82-13.33h5.07c2.11,0,3.52-.4,4.22-1.21a4.11,4.11,0,0,0,1.06-2.83,3.28,3.28,0,0,0-1.13-2.59,5.05,5.05,0,0,0-3.4-1H73.39Zm0,10.76h6.25a5.14,5.14,0,0,0,3.54-1.11,3.68,3.68,0,0,0,1.25-2.88,4.83,4.83,0,0,0-.57-2.32A4,4,0,0,0,82.27,315a6.31,6.31,0,0,0-3.06-.58H73.39Z"/><path class="cls-1" d="M94.17,325.5H91.48V302.17h2.69Z"/><path class="cls-1" d="M102.3,302.17v3H99.41v-3Zm-.08,6.07V325.5H99.53V308.24Z"/><path class="cls-1" d="M117.61,325.5h-1.29V302.17H119v8.94q1.84-3.35,5.09-3.35a6.31,6.31,0,0,1,5,2.34c1.34,1.57,2,3.83,2,6.81a10.43,10.43,0,0,1-2,6.46A6.16,6.16,0,0,1,124,326a5.9,5.9,0,0,1-5.4-3.34Zm1.39-6.77a5.25,5.25,0,0,0,1.63,3.86,4.75,4.75,0,0,0,3.06,1.2A3.87,3.87,0,0,0,127,322a8.32,8.32,0,0,0,1.26-4.88,9.7,9.7,0,0,0-1.21-5.24,3.81,3.81,0,0,0-3.38-1.91,4.19,4.19,0,0,0-3,1.36,5.76,5.76,0,0,0-1.62,3.51Z"/><path class="cls-1" d="M146.51,320.35l2.5.52a7.1,7.1,0,0,1-2.67,3.66,7.71,7.71,0,0,1-4.66,1.45,7.27,7.27,0,0,1-5.73-2.49A10.85,10.85,0,0,1,136,310.3a7.34,7.34,0,0,1,5.71-2.54,6.89,6.89,0,0,1,5.44,2.34c1.37,1.56,2.08,3.9,2.11,7H136.76c0,2.61.54,4.37,1.64,5.28a5.33,5.33,0,0,0,3.47,1.36A4.73,4.73,0,0,0,146.51,320.35Zm-.15-5.24a7.32,7.32,0,0,0-.48-2.58,4.5,4.5,0,0,0-1.5-1.93,4.14,4.14,0,0,0-2.55-.79,4.54,4.54,0,0,0-3.39,1.44,5.89,5.89,0,0,0-1.56,3.86Z"/><path class="cls-1" d="M151,321l2.56-.53c.57,2.18,2.37,3.26,5.4,3.26a5.14,5.14,0,0,0,2.84-.75,2.38,2.38,0,0,0,1.16-2.11c0-1.36-1-2.22-3-2.58l-3.64-.69A6.64,6.64,0,0,1,153,316a4.14,4.14,0,0,1-1.26-3.16,4.55,4.55,0,0,1,1.73-3.63,7,7,0,0,1,4.64-1.46q5.63,0,6.94,4.39l-2.46.53a4.21,4.21,0,0,0-4.36-2.7,4.9,4.9,0,0,0-2.69.68,2.1,2.1,0,0,0-1,1.88c0,1.28.89,2.08,2.68,2.41l3.37.6q5.28,1,5.28,5.12a4.55,4.55,0,0,1-2,3.84A8.54,8.54,0,0,1,158.6,326Q152.46,326,151,321Z"/><path class="cls-1" d="M177.4,323.67v2.12a20.25,20.25,0,0,1-2.47.19q-5,0-5-5.24v-10.4h-3.06v-2.1h3.06l.12-4.34,2.49-.24v4.58h3.86v2.1h-3.86v10.85c0,1.78.92,2.67,2.77,2.67A14,14,0,0,0,177.4,323.67Z"/><path class="cls-1" d="M191.77,331.33h-2.69V308.24h2.43v3.35c1.22-2.55,3-3.83,5.45-3.83a5.83,5.83,0,0,1,4.93,2.56,12.38,12.38,0,0,1-.06,13.18,6,6,0,0,1-5,2.48,5.7,5.7,0,0,1-5.11-3.1Zm0-17v4.87a5.1,5.1,0,0,0,1.66,3.24,4.28,4.28,0,0,0,2.92,1.27,4.09,4.09,0,0,0,3.12-1.53c.9-1,1.36-2.8,1.36-5.32a8.67,8.67,0,0,0-1.24-5,3.78,3.78,0,0,0-3.26-1.77,4,4,0,0,0-2.88,1.25A6,6,0,0,0,191.77,314.37Z"/><path class="cls-1" d="M221.28,325.5h-2.65c-.1-.55-.2-1.58-.3-3.11a6.23,6.23,0,0,1-6.05,3.59,6.12,6.12,0,0,1-4.47-1.54,5,5,0,0,1-1.55-3.7,5.2,5.2,0,0,1,2.22-4.31q2.22-1.68,7.56-1.68c.47,0,1.24,0,2.29.07a10,10,0,0,0-.32-3,2.66,2.66,0,0,0-1.34-1.46,5.83,5.83,0,0,0-2.7-.55q-4.09,0-4.75,3.11l-2.48-.42q.9-4.77,7.62-4.77,3.57,0,5.07,1.58t1.49,5.48v7.33A14.58,14.58,0,0,0,221.28,325.5Zm-2.95-8.63c-1.1-.07-1.93-.1-2.5-.1a9.68,9.68,0,0,0-4.94,1,3.35,3.35,0,0,0-1.76,3.05,2.87,2.87,0,0,0,1,2.16,3.88,3.88,0,0,0,2.74.89,5.08,5.08,0,0,0,4-1.77,6,6,0,0,0,1.57-4.14C218.38,317.68,218.36,317.3,218.33,316.87Zm-1.13-14a3,3,0,0,1-2.94,2.94,2.89,2.89,0,0,1-2.1-.87,2.9,2.9,0,0,1,0-4.17,2.9,2.9,0,0,1,2.18-.89,2.7,2.7,0,0,1,2,.88A2.88,2.88,0,0,1,217.2,302.84Zm-1.42,0a1.54,1.54,0,0,0-.45-1.11,1.38,1.38,0,0,0-1-.46,1.62,1.62,0,0,0-1.19.46,1.53,1.53,0,0,0,0,2.18,1.48,1.48,0,0,0,1.11.46,1.44,1.44,0,0,0,1.07-.45A1.47,1.47,0,0,0,215.78,302.83Z"/><path class="cls-1" d="M91.05,367.5H88.62v-3.3Q86.78,368,83.13,368A5.19,5.19,0,0,1,79,366.23a7.37,7.37,0,0,1-1.51-5v-11h2.69v11c0,1.71.35,2.89,1.06,3.53a3.45,3.45,0,0,0,2.35,1,4,4,0,0,0,2.35-.73,5.61,5.61,0,0,0,1.75-2.09,6.38,6.38,0,0,0,.71-3v-9.72h2.68Z"/><path class="cls-1" d="M110,367.5h-2.51V356.41a4.46,4.46,0,0,0-1.05-3.37,3.54,3.54,0,0,0-2.53-1,4.33,4.33,0,0,0-3.44,1.64A6.43,6.43,0,0,0,99.1,358v9.47H96.41V350.24h2.5v3.18q2.1-3.66,5.45-3.66a5.36,5.36,0,0,1,3.29,1,5.15,5.15,0,0,1,1.86,2.25,13.48,13.48,0,0,1,.51,4.51Z"/><path class="cls-1" d="M118.15,344.17v3h-2.89v-3Zm-.08,6.07V367.5h-2.69V350.24Z"/><path class="cls-1" d="M136.06,350.24l-6,17.26h-2.77l-6.19-17.26h3l4.81,14,4.75-14Z"/><path class="cls-1" d="M150,362.35l2.5.52a7.1,7.1,0,0,1-2.67,3.66,7.73,7.73,0,0,1-4.66,1.45,7.27,7.27,0,0,1-5.73-2.49,10.85,10.85,0,0,1,.09-13.19,7.32,7.32,0,0,1,5.7-2.54,6.92,6.92,0,0,1,5.45,2.34q2.06,2.34,2.11,7H140.28q0,3.92,1.64,5.28a5.35,5.35,0,0,0,3.47,1.36A4.74,4.74,0,0,0,150,362.35Zm-.15-5.24a7.32,7.32,0,0,0-.48-2.58,4.5,4.5,0,0,0-1.5-1.93,4.14,4.14,0,0,0-2.55-.79,4.54,4.54,0,0,0-3.39,1.44,5.94,5.94,0,0,0-1.57,3.86Z"/><path class="cls-1" d="M159.54,367.5h-2.68V350.24h2.36v4a8.7,8.7,0,0,1,2.5-3.7,4.61,4.61,0,0,1,2.58-.85c.27,0,.62,0,1,.07v2.57h-.54a4.73,4.73,0,0,0-3.69,1.65,6.76,6.76,0,0,0-1.58,4.36Z"/><path class="cls-1" d="M166.28,363l2.56-.53c.57,2.18,2.37,3.26,5.4,3.26a5.14,5.14,0,0,0,2.84-.75,2.38,2.38,0,0,0,1.16-2.11c0-1.36-1-2.22-3-2.58l-3.64-.69a6.64,6.64,0,0,1-3.4-1.61,4.14,4.14,0,0,1-1.26-3.16,4.57,4.57,0,0,1,1.72-3.63,7,7,0,0,1,4.65-1.46q5.63,0,6.94,4.39l-2.46.53a4.21,4.21,0,0,0-4.36-2.7,4.9,4.9,0,0,0-2.69.68,2.1,2.1,0,0,0-1.05,1.88c0,1.28.89,2.08,2.68,2.41l3.37.6q5.28,1,5.28,5.12a4.55,4.55,0,0,1-2,3.84,8.56,8.56,0,0,1-5.23,1.47Q167.74,368,166.28,363Z"/><path class="cls-1" d="M196.24,362.35l2.49.52a7,7,0,0,1-2.66,3.66A7.76,7.76,0,0,1,191.4,368a7.27,7.27,0,0,1-5.73-2.49,10.89,10.89,0,0,1,.09-13.19,7.36,7.36,0,0,1,5.71-2.54,6.89,6.89,0,0,1,5.44,2.34c1.37,1.56,2.08,3.9,2.11,7H186.48c0,2.61.54,4.37,1.64,5.28a5.33,5.33,0,0,0,3.47,1.36A4.74,4.74,0,0,0,196.24,362.35Zm-.16-5.24a7.32,7.32,0,0,0-.48-2.58,4.35,4.35,0,0,0-1.5-1.93,4.14,4.14,0,0,0-2.55-.79,4.54,4.54,0,0,0-3.39,1.44,5.89,5.89,0,0,0-1.56,3.86Z"/><path class="cls-1" d="M205.74,367.5h-2.68V344.17h2.68Z"/><path class="cls-1" d="M213.79,367.5H211.1V344.17h2.69Z"/><path class="cls-1" d="M95.36,409.5H92.94v-3.3Q91.1,410,87.44,410a5.17,5.17,0,0,1-4.15-1.75,7.32,7.32,0,0,1-1.51-5v-11h2.68v11c0,1.71.36,2.89,1.07,3.53a3.43,3.43,0,0,0,2.35,1,4,4,0,0,0,2.35-.73A5.71,5.71,0,0,0,92,404.93a6.37,6.37,0,0,0,.7-3v-9.72h2.68Z"/><path class="cls-1" d="M108.56,407.67v2.12a20.25,20.25,0,0,1-2.46.19q-5,0-5-5.24v-10.4H98v-2.1h3.06l.12-4.34,2.49-.24v4.58h3.87v2.1H103.7v10.85c0,1.78.93,2.67,2.77,2.67A14,14,0,0,0,108.56,407.67Z"/><path class="cls-1" d="M118.66,392.24v2.1h-4.1V409.5h-2.69V394.34h-2.94v-2.1h2.94q.07-4.15,1.6-5.35a5.85,5.85,0,0,1,3.73-1.2,14.73,14.73,0,0,1,2.47.24v2.14a6.72,6.72,0,0,0-1.66-.22,3.75,3.75,0,0,0-2.61.77,3.93,3.93,0,0,0-.84,2.92v.7Z"/><path class="cls-1" d="M127.37,410a6.53,6.53,0,0,1-5.54-2.64,10.48,10.48,0,0,1-2-6.53,9.39,9.39,0,0,1,2.24-6.59,7.21,7.21,0,0,1,5.57-2.46,6.8,6.8,0,0,1,5.63,2.59,10.12,10.12,0,0,1,2.06,6.48,9.7,9.7,0,0,1-2.22,6.59A7.3,7.3,0,0,1,127.37,410Zm.21-2.23a4.25,4.25,0,0,0,3.43-1.69c.93-1.12,1.39-2.88,1.39-5.26s-.49-4.13-1.46-5.2a4.42,4.42,0,0,0-3.4-1.62,4.29,4.29,0,0,0-3.38,1.63q-1.38,1.63-1.38,5.17c0,2.5.46,4.28,1.38,5.36A4.31,4.31,0,0,0,127.58,407.75Z"/><path class="cls-1" d="M142.05,409.5h-2.68V392.24h2.36v4a8.7,8.7,0,0,1,2.5-3.7,4.61,4.61,0,0,1,2.57-.85c.28,0,.63,0,1.06.07v2.57h-.54a4.72,4.72,0,0,0-3.69,1.65,6.76,6.76,0,0,0-1.58,4.36Z"/><path class="cls-1" d="M174,409.5h-2.62V398.77a9.67,9.67,0,0,0-.23-2.49,2.92,2.92,0,0,0-1.12-1.52,3.17,3.17,0,0,0-2-.69,4.22,4.22,0,0,0-3,1.41,5.8,5.8,0,0,0-1.43,4.29v9.73h-2.6V398.13a4.09,4.09,0,0,0-1.08-3.21,3.43,3.43,0,0,0-2.28-.94,3.84,3.84,0,0,0-3,1.47,5.52,5.52,0,0,0-1.26,3.73V409.5h-2.56V392.24h2.3v3.31q1.93-3.8,5.32-3.79a4.46,4.46,0,0,1,3.16,1.21,5.54,5.54,0,0,1,1.67,2.92q1.78-4.12,5.46-4.13a5,5,0,0,1,3.08,1,4.67,4.67,0,0,1,1.73,2.31,13.47,13.47,0,0,1,.4,3.69Z"/><path class="cls-1" d="M182.16,386.17v3h-2.89v-3Zm-.08,6.07V409.5h-2.69V392.24Z"/><path class="cls-1" d="M201,409.5h-2.51V398.41a4.5,4.5,0,0,0-1-3.37,3.58,3.58,0,0,0-2.53-1,4.33,4.33,0,0,0-3.45,1.64,6.43,6.43,0,0,0-1.39,4.32v9.47h-2.68V392.24h2.49v3.18q2.1-3.66,5.45-3.66a5.36,5.36,0,0,1,3.29,1,5.24,5.24,0,0,1,1.87,2.25,13.82,13.82,0,0,1,.5,4.51Z"/><path class="cls-1" d="M220.5,389.54v2.13a4.86,4.86,0,0,0-2.47.43,2.24,2.24,0,0,0-.83,1.54,6.26,6.26,0,0,1,1.65,4.17,5.37,5.37,0,0,1-1.8,4.05,6.78,6.78,0,0,1-4.84,1.69,5.77,5.77,0,0,1-1.18-.1,8.07,8.07,0,0,0-1.18-.19,2.06,2.06,0,0,0-1.11.45,1.38,1.38,0,0,0-.65,1.17,1.28,1.28,0,0,0,.94,1.34,21,21,0,0,0,4.42.39,25.54,25.54,0,0,1,4.37.4,4.47,4.47,0,0,1,2.39,1.4,3.89,3.89,0,0,1,1,2.66q0,4.94-8.68,4.94-4.12,0-6-1.24a3.8,3.8,0,0,1-1.89-3.31,3.48,3.48,0,0,1,2.63-3.46,3.28,3.28,0,0,1-1.69-2.78c0-1.33.8-2.35,2.39-3.06a5.63,5.63,0,0,1-2.23-4.56,5.26,5.26,0,0,1,1.91-4.2,7,7,0,0,1,4.67-1.64,8.32,8.32,0,0,1,3.53.73,3.33,3.33,0,0,1,1.19-2.34,5,5,0,0,1,2.83-.65C220,389.5,220.18,389.51,220.5,389.54ZM209.08,408.8a2.6,2.6,0,0,0-1.88,2.37,2.23,2.23,0,0,0,1.55,2,9.18,9.18,0,0,0,3.94.73,12.76,12.76,0,0,0,4.06-.62c1.23-.42,1.85-1.12,1.85-2.11a1.71,1.71,0,0,0-.55-1.32,2.66,2.66,0,0,0-1.49-.65,33.09,33.09,0,0,0-3.31-.2Q210.43,409,209.08,408.8Zm3.21-7.3a3.83,3.83,0,0,0,2.79-1.05,3.63,3.63,0,0,0,1.07-2.73,3.72,3.72,0,0,0-1.11-2.79,3.78,3.78,0,0,0-2.71-1.09,4,4,0,0,0-2.7,1,4.08,4.08,0,0,0-.12,5.61A3.79,3.79,0,0,0,212.29,401.5Z"/></svg>