<svg id="Layer_1" data-name="Layer 1" xmlns="http://www.w3.org/2000/svg" viewBox="0 0 300 600"><defs><style>.cls-1{fill:#001012;}</style></defs><title>text</title><path class="cls-1" d="M62,129.84h18v4.43H67.18v5.79H78.34v4.38H67.18V155H62Z"/><path class="cls-1" d="M88,134.15H83v-4.49H88ZM83,136.37H88V155H83Z"/><path class="cls-1" d="M104.8,136.75A7.55,7.55,0,0,1,108,139.5a9.17,9.17,0,0,1,1.49,3.86,24.33,24.33,0,0,1,.16,3.69H96.1a4.44,4.44,0,0,0,2,3.93,4.91,4.91,0,0,0,2.68.7,4.15,4.15,0,0,0,2.71-.85,4,4,0,0,0,1-1.28h5a6.11,6.11,0,0,1-1.8,3.37,9.06,9.06,0,0,1-7,2.71A10.13,10.13,0,0,1,94,153.34c-1.9-1.53-2.85-4-2.85-7.46,0-3.22.86-5.7,2.57-7.42a9,9,0,0,1,6.66-2.58A10.64,10.64,0,0,1,104.8,136.75ZM97.52,141a5.07,5.07,0,0,0-1.3,2.88h8.39a4.06,4.06,0,0,0-1.3-2.94,4.26,4.26,0,0,0-2.89-1A3.85,3.85,0,0,0,97.52,141Z"/><path class="cls-1" d="M117.1,155h-4.87V129.81h4.87Z"/><path class="cls-1" d="M131.73,136.67a6,6,0,0,1,2.14,2.06v-8.89h4.94V155h-4.74v-2.58a6.84,6.84,0,0,1-2.37,2.41,6.71,6.71,0,0,1-3.32.75,6.93,6.93,0,0,1-5.49-2.64,10.13,10.13,0,0,1-2.23-6.78,11.71,11.71,0,0,1,2.19-7.5,7.16,7.16,0,0,1,5.87-2.73A6.08,6.08,0,0,1,131.73,136.67Zm1.2,13.27a6.76,6.76,0,0,0,1.07-4q0-3.42-1.72-4.89a3.74,3.74,0,0,0-2.46-.89,3.42,3.42,0,0,0-3.14,1.62,7.55,7.55,0,0,0-1,4,7.37,7.37,0,0,0,1,4.12,3.44,3.44,0,0,0,3.08,1.55A3.6,3.6,0,0,0,132.93,149.94Z"/><path class="cls-1" d="M166.48,136.44a5.47,5.47,0,0,1,2.17,1.68,5.4,5.4,0,0,1,1.06,2.39,16.9,16.9,0,0,1,.17,2.75l0,11.74h-5V143.14a3.82,3.82,0,0,0-.34-1.74,2.42,2.42,0,0,0-2.39-1.3,2.8,2.8,0,0,0-2.79,1.67,5.35,5.35,0,0,0-.39,2.14V155H154V143.91a6.18,6.18,0,0,0-.34-2.41,2.38,2.38,0,0,0-2.41-1.35,2.87,2.87,0,0,0-2.8,1.35,5.24,5.24,0,0,0-.39,2.29V155h-4.94V136.41h4.73v2.71a8,8,0,0,1,1.71-2.06,6.75,6.75,0,0,1,7.13-.16,5.48,5.48,0,0,1,1.6,2.24,6.2,6.2,0,0,1,2.38-2.41,7.28,7.28,0,0,1,3.35-.77A6.49,6.49,0,0,1,166.48,136.44Z"/><path class="cls-1" d="M181.73,143.67a7.56,7.56,0,0,0,2-.43,1.46,1.46,0,0,0,1-1.38,1.63,1.63,0,0,0-.81-1.58,5.08,5.08,0,0,0-2.36-.44,3.1,3.1,0,0,0-2.48.86,3.43,3.43,0,0,0-.69,1.7h-4.7a7.13,7.13,0,0,1,1.37-4q1.94-2.46,6.66-2.46a11.86,11.86,0,0,1,5.46,1.21q2.38,1.22,2.38,4.58v8.55c0,.59,0,1.31,0,2.15a2.66,2.66,0,0,0,.29,1.3,1.74,1.74,0,0,0,.72.56V155h-5.3a5.62,5.62,0,0,1-.31-1.06c-.06-.33-.1-.71-.14-1.13a10.13,10.13,0,0,1-2.33,1.87,7.13,7.13,0,0,1-3.58.9,6.16,6.16,0,0,1-4.2-1.44,5.14,5.14,0,0,1-1.66-4.1,5.3,5.3,0,0,1,2.67-5,11.85,11.85,0,0,1,4.3-1.2Zm3,2.27a5.16,5.16,0,0,1-.94.47,8.93,8.93,0,0,1-1.31.34l-1.11.2a7.24,7.24,0,0,0-2.24.67,2.21,2.21,0,0,0-1.15,2.07,2.15,2.15,0,0,0,.7,1.8,2.68,2.68,0,0,0,1.71.55,5,5,0,0,0,2.94-.92,3.91,3.91,0,0,0,1.4-3.37Z"/><path class="cls-1" d="M203.7,136.67a5.92,5.92,0,0,1,2.13,2.06v-8.89h4.94V155H206v-2.58a6.94,6.94,0,0,1-2.38,2.41,6.67,6.67,0,0,1-3.31.75,6.93,6.93,0,0,1-5.5-2.64,10.18,10.18,0,0,1-2.23-6.78,11.65,11.65,0,0,1,2.2-7.5,7.14,7.14,0,0,1,5.87-2.73A6.08,6.08,0,0,1,203.7,136.67Zm1.19,13.27a6.76,6.76,0,0,0,1.08-4q0-3.42-1.73-4.89a3.7,3.7,0,0,0-2.46-.89,3.41,3.41,0,0,0-3.13,1.62,8.72,8.72,0,0,0,0,8.13,3.45,3.45,0,0,0,3.09,1.55A3.57,3.57,0,0,0,204.89,149.94Z"/><path class="cls-1" d="M227.34,136.75a7.6,7.6,0,0,1,3.22,2.75,9.3,9.3,0,0,1,1.48,3.86,24.33,24.33,0,0,1,.16,3.69H218.63a4.48,4.48,0,0,0,2,3.93,4.94,4.94,0,0,0,2.69.7,4.1,4.1,0,0,0,2.7-.85,4,4,0,0,0,1-1.28h5a6.13,6.13,0,0,1-1.81,3.37,9,9,0,0,1-7,2.71,10.14,10.14,0,0,1-6.56-2.29c-1.89-1.53-2.84-4-2.84-7.46,0-3.22.85-5.7,2.56-7.42a9,9,0,0,1,6.67-2.58A10.64,10.64,0,0,1,227.34,136.75ZM220.05,141a5.07,5.07,0,0,0-1.3,2.88h8.39a4,4,0,0,0-1.29-2.94,4.28,4.28,0,0,0-2.89-1A3.87,3.87,0,0,0,220.05,141Z"/><path class="cls-1" d="M236.36,137.09h5.17v5.11h-5.17Zm0,12.8h5.17V155h-5.17Z"/><path class="cls-1" d="M66,185.82l6.41-4.29-.65,3.08-4.29,2.84,3.08,2.83-.65,3.08-4.6-4.29Zm7.16,0,6.43-4.29-.65,3.08-4.31,2.84,3.1,2.83L77,193.36l-4.62-4.29Z"/><path class="cls-1" d="M88.05,171.9h17.41L104.8,175h-14l-1.6,7.62H101.5l-.65,3H88.53L86.12,197h-3.4Z"/><path class="cls-1" d="M102.68,196.93l2.68-2.31a8.35,8.35,0,0,1-.71-2.83,13.22,13.22,0,0,1,.34-3.73,14.27,14.27,0,0,1,3.62-6.89,9.1,9.1,0,0,1,6.94-3,7.43,7.43,0,0,1,3.6.79,8.1,8.1,0,0,1,1.87,1.5l2.66-2.43.7.86-2.71,2.46a8.58,8.58,0,0,1,.78,3.6,13.14,13.14,0,0,1-.27,2.64,13.87,13.87,0,0,1-3.92,7.27,9.7,9.7,0,0,1-6.93,2.86,8.46,8.46,0,0,1-3.23-.55,4.61,4.61,0,0,1-2-1.52l-2.55,2.19Zm12.41-16.08a5.84,5.84,0,0,0-4.41,2.08,11,11,0,0,0-2.64,5.34,10.25,10.25,0,0,0-.23,2.36,11.36,11.36,0,0,0,.17,1.6l10.64-9.64a2.66,2.66,0,0,0-1.28-1.24A4.85,4.85,0,0,0,115.09,180.85ZM111.94,195a6,6,0,0,0,5.23-3,11.89,11.89,0,0,0,1.71-4.21,12.06,12.06,0,0,0,.31-2.65,7.06,7.06,0,0,0-.16-1.4l-10.52,9.64a3.2,3.2,0,0,0,1.53,1.32A5.43,5.43,0,0,0,111.94,195Z"/><path class="cls-1" d="M130.16,171.9h3.08L127.9,197h-3.07Z"/><path class="cls-1" d="M150,181.57a6.9,6.9,0,0,1,.54,3.23,20.25,20.25,0,0,1-.58,4H136.52a6.9,6.9,0,0,0,.36,4.47c.59,1.12,1.74,1.68,3.46,1.68a6,6,0,0,0,4.17-1.59,6.88,6.88,0,0,0,1.63-2.13h3a8,8,0,0,1-1.27,2.24,10.52,10.52,0,0,1-1.94,2,9.24,9.24,0,0,1-3.86,1.85,11.61,11.61,0,0,1-2.58.27,6.17,6.17,0,0,1-5.27-2.49q-1.85-2.49-.88-7a13.17,13.17,0,0,1,3.91-7.16,9.74,9.74,0,0,1,6.83-2.75,7.23,7.23,0,0,1,3.59.91A5,5,0,0,1,150,181.57Zm-2.69,4.82a7.28,7.28,0,0,0-.18-3.2q-.79-2.22-3.75-2.22a5.8,5.8,0,0,0-3.88,1.53,7.37,7.37,0,0,0-2.35,3.89Z"/><path class="cls-1" d="M155,191.26a3.86,3.86,0,0,0,.27,2.36c.56,1,1.79,1.48,3.71,1.48a6.85,6.85,0,0,0,3.17-.74,3.2,3.2,0,0,0,1.78-2.3,1.57,1.57,0,0,0-.66-1.79,10.21,10.21,0,0,0-2.45-.87l-2.3-.62a9.44,9.44,0,0,1-3.18-1.3,3.1,3.1,0,0,1-1.25-3.45,6.77,6.77,0,0,1,2.76-4.21,8.9,8.9,0,0,1,5.37-1.6q4.14,0,5.46,2.43a4.66,4.66,0,0,1,.41,3.31h-2.91a3,3,0,0,0-.34-1.9c-.54-.81-1.68-1.21-3.42-1.21a5,5,0,0,0-2.78.67,2.73,2.73,0,0,0-1.27,1.76,1.73,1.73,0,0,0,.77,1.91,5.55,5.55,0,0,0,1.86.75l1.93.5a12.76,12.76,0,0,1,4.12,1.55c1,.79,1.36,2,1,3.71a7.19,7.19,0,0,1-2.74,4.22,9.36,9.36,0,0,1-6,1.78c-2.73,0-4.52-.62-5.39-1.85a5.92,5.92,0,0,1-.85-4.59Z"/><path class="cls-1" d="M182.25,191.26a3.86,3.86,0,0,0,.27,2.36c.56,1,1.8,1.48,3.71,1.48a6.82,6.82,0,0,0,3.17-.74,3.21,3.21,0,0,0,1.79-2.3,1.56,1.56,0,0,0-.67-1.79,10.08,10.08,0,0,0-2.44-.87l-2.31-.62a9.63,9.63,0,0,1-3.18-1.3,3.1,3.1,0,0,1-1.25-3.45,6.86,6.86,0,0,1,2.76-4.21,8.93,8.93,0,0,1,5.38-1.6c2.76,0,4.57.81,5.45,2.43a4.6,4.6,0,0,1,.41,3.31h-2.91a2.94,2.94,0,0,0-.34-1.9c-.53-.81-1.67-1.21-3.42-1.21a5,5,0,0,0-2.77.67,2.7,2.7,0,0,0-1.27,1.76,1.71,1.71,0,0,0,.76,1.91,5.53,5.53,0,0,0,1.87.75l1.93.5a12.86,12.86,0,0,1,4.12,1.55c1,.79,1.35,2,1,3.71a7.21,7.21,0,0,1-2.75,4.22,9.34,9.34,0,0,1-6,1.78q-4.08,0-5.39-1.85a6,6,0,0,1-.85-4.59Z"/><path class="cls-1" d="M214.53,187.46a14.64,14.64,0,0,1-3.71,7.32,9.65,9.65,0,0,1-7.29,2.89c-2.52,0-4.34-.86-5.46-2.56s-1.37-4-.76-6.86a13.65,13.65,0,0,1,3.91-7.35,9.74,9.74,0,0,1,6.87-2.73,6.68,6.68,0,0,1,5.48,2.36Q215.51,182.89,214.53,187.46Zm-3.23.09a8.55,8.55,0,0,0,.07-4.17q-.76-2.53-4-2.53a5.56,5.56,0,0,0-4.55,2.15,12.28,12.28,0,0,0-2.39,5.2,8,8,0,0,0,.25,4.87c.58,1.3,1.79,2,3.65,2a5.38,5.38,0,0,0,4.69-2.32A13.74,13.74,0,0,0,211.3,187.55Z"/><path class="cls-1" d="M220.05,178.7h3l-.54,2.59a14.28,14.28,0,0,1,2.39-2,7,7,0,0,1,3.67-1,4.6,4.6,0,0,1,3.3,1.07,4.3,4.3,0,0,1,1,1.81,9.26,9.26,0,0,1,2.88-2.17,7.52,7.52,0,0,1,3.25-.71q3.69,0,4.46,2.66a8.22,8.22,0,0,1-.1,3.86L240.8,197h-3.2l2.7-12.71q.38-1.83-.39-2.52a3,3,0,0,0-2.08-.68,5.39,5.39,0,0,0-3.38,1.21,6.68,6.68,0,0,0-2.16,4L230,197h-3.12l2.52-11.95a5.92,5.92,0,0,0,.14-2.71c-.28-.86-1.06-1.28-2.34-1.28a5.58,5.58,0,0,0-3.46,1.35c-1.15.9-2,2.52-2.47,4.88L219.25,197h-3.08Z"/><path class="cls-1" d="M61.43,223.57A6.89,6.89,0,0,1,62,226.8a20.25,20.25,0,0,1-.58,4H48a6.9,6.9,0,0,0,.37,4.47c.59,1.12,1.74,1.68,3.46,1.68A6,6,0,0,0,56,235.39a6.7,6.7,0,0,0,1.62-2.13h3a8.31,8.31,0,0,1-1.27,2.24,10.52,10.52,0,0,1-1.94,2,9.27,9.27,0,0,1-3.87,1.85,11.48,11.48,0,0,1-2.58.27,6.16,6.16,0,0,1-5.26-2.49q-1.85-2.49-.89-7A13.18,13.18,0,0,1,48.74,223a9.74,9.74,0,0,1,6.83-2.75,7.23,7.23,0,0,1,3.59.91A5,5,0,0,1,61.43,223.57Zm-2.68,4.82a7.11,7.11,0,0,0-.19-3.2C58,223.71,56.79,223,54.82,223a5.78,5.78,0,0,0-3.88,1.53,7.45,7.45,0,0,0-2.36,3.89Z"/><path class="cls-1" d="M67.33,220.7h2.92l-.55,2.59a11.13,11.13,0,0,1,3.24-2.3,8.29,8.29,0,0,1,3.38-.7q3.9,0,4.68,2.71a9.07,9.07,0,0,1-.14,4.26L78.37,239H75.24l2.45-11.54a6.11,6.11,0,0,0,.08-2.7,2.36,2.36,0,0,0-2.61-1.7,6.56,6.56,0,0,0-1.85.22,6.14,6.14,0,0,0-2.55,1.5,6.26,6.26,0,0,0-1.39,1.87,14.27,14.27,0,0,0-.81,2.76l-2,9.59H63.45Z"/><path class="cls-1" d="M99.15,215.11a5.71,5.71,0,0,1,4.48-1.57h.6l.68,0-.6,2.81-.67,0h-.41c-.93,0-1.54.24-1.82.72a16,16,0,0,0-1.06,3.7h3l-.51,2.43H99.8L96.45,239h-3l3.35-15.79H94.21l.51-2.43h2.55l.62-2.87A6.66,6.66,0,0,1,99.15,215.11Z"/><path class="cls-1" d="M120.19,229.46a14.72,14.72,0,0,1-3.71,7.32,9.68,9.68,0,0,1-7.3,2.89c-2.52,0-4.33-.86-5.45-2.56s-1.37-4-.77-6.86a13.66,13.66,0,0,1,3.92-7.35,9.71,9.71,0,0,1,6.87-2.73,6.66,6.66,0,0,1,5.47,2.36C120.51,224.1,120.84,226.41,120.19,229.46Zm-3.23.09a8.8,8.8,0,0,0,.07-4.17c-.52-1.69-1.83-2.53-4-2.53a5.59,5.59,0,0,0-4.56,2.15,12.27,12.27,0,0,0-2.38,5.2,7.88,7.88,0,0,0,.25,4.87c.57,1.3,1.79,2,3.65,2a5.38,5.38,0,0,0,4.69-2.32A13.74,13.74,0,0,0,117,229.55Z"/><path class="cls-1" d="M125.79,220.7h2.93l-.67,3.16a9.17,9.17,0,0,1,2.23-2.25,5.61,5.61,0,0,1,3.51-1.32h.29l.69.07-.69,3.25a3.39,3.39,0,0,0-.49-.07l-.5,0a5.41,5.41,0,0,0-3.89,1.5,6.73,6.73,0,0,0-2,3.44L125,239h-3.08Z"/><path class="cls-1" d="M138.9,213.9H142L136.65,239h-3.08Z"/><path class="cls-1" d="M158.71,223.57a6.9,6.9,0,0,1,.54,3.23,19.52,19.52,0,0,1-.58,4H145.26a6.9,6.9,0,0,0,.37,4.47c.58,1.12,1.74,1.68,3.46,1.68a6,6,0,0,0,4.17-1.59,7,7,0,0,0,1.62-2.13h3a8.37,8.37,0,0,1-1.28,2.24,10.52,10.52,0,0,1-1.94,2,9.24,9.24,0,0,1-3.86,1.85,11.61,11.61,0,0,1-2.58.27,6.15,6.15,0,0,1-5.26-2.49c-1.24-1.66-1.53-4-.89-7A13.17,13.17,0,0,1,146,223a9.74,9.74,0,0,1,6.84-2.75,7.26,7.26,0,0,1,3.59.91A5,5,0,0,1,158.71,223.57ZM156,228.39a7.41,7.41,0,0,0-.19-3.2c-.53-1.48-1.77-2.22-3.75-2.22a5.8,5.8,0,0,0-3.88,1.53,7.37,7.37,0,0,0-2.35,3.89Z"/><path class="cls-1" d="M164.6,220.7h2.93l-.55,2.59a10.87,10.87,0,0,1,3.24-2.3,8.24,8.24,0,0,1,3.37-.7q3.9,0,4.69,2.71a9.2,9.2,0,0,1-.14,4.26L175.64,239h-3.12L175,227.46a6,6,0,0,0,.09-2.7,2.36,2.36,0,0,0-2.62-1.7,6.48,6.48,0,0,0-1.84.22,6.66,6.66,0,0,0-3.94,3.37,14.17,14.17,0,0,0-.82,2.76l-2,9.59h-3.08Z"/><path class="cls-1" d="M194.14,221.43a6.11,6.11,0,0,1,1.4,1.74l.49-2.3h2.84l-3.54,16.64a14.53,14.53,0,0,1-2.19,5.51c-1.81,2.48-4.48,3.72-8,3.72a7.57,7.57,0,0,1-4.69-1.32c-1.16-.89-1.61-2.27-1.38-4.15h3.13a2.83,2.83,0,0,0,.5,1.9,3.75,3.75,0,0,0,3.06,1,5.71,5.71,0,0,0,5.16-2.5,16.16,16.16,0,0,0,1.71-5.25,8.19,8.19,0,0,1-2.66,2.09,8.44,8.44,0,0,1-3.58.68,5.91,5.91,0,0,1-4.76-2.11c-1.19-1.41-1.44-3.73-.74-7a13.15,13.15,0,0,1,3.77-7.18,8.68,8.68,0,0,1,6-2.58A5.73,5.73,0,0,1,194.14,221.43Zm-3.56,1.66a5.66,5.66,0,0,0-5.08,3,13.33,13.33,0,0,0-1.53,4.26c-.45,2.06-.36,3.63.24,4.7a3.21,3.21,0,0,0,3,1.62,6.1,6.1,0,0,0,5.3-3,11.46,11.46,0,0,0,1.59-3.95q.74-3.41-.33-5A3.59,3.59,0,0,0,190.58,223.09Z"/><path class="cls-1" d="M217.1,223.57a6.77,6.77,0,0,1,.55,3.23,20.25,20.25,0,0,1-.58,4H203.65a6.9,6.9,0,0,0,.37,4.47c.59,1.12,1.74,1.68,3.46,1.68a6,6,0,0,0,4.17-1.59,6.88,6.88,0,0,0,1.63-2.13h3A8.31,8.31,0,0,1,215,235.5a10.52,10.52,0,0,1-1.94,2,9.29,9.29,0,0,1-3.86,1.85,11.61,11.61,0,0,1-2.58.27,6.17,6.17,0,0,1-5.27-2.49q-1.84-2.49-.89-7a13.18,13.18,0,0,1,3.92-7.16,9.74,9.74,0,0,1,6.83-2.75,7.23,7.23,0,0,1,3.59.91A5,5,0,0,1,217.1,223.57Zm-2.68,4.82a7.11,7.11,0,0,0-.19-3.2c-.52-1.48-1.77-2.22-3.74-2.22a5.78,5.78,0,0,0-3.88,1.53,7.45,7.45,0,0,0-2.36,3.89Z"/><path class="cls-1" d="M224.54,213.9h3.07L222.28,239h-3.07Z"/><path class="cls-1" d="M229.94,233.26a3.86,3.86,0,0,0,.27,2.36c.56,1,1.8,1.48,3.71,1.48a6.82,6.82,0,0,0,3.17-.74,3.24,3.24,0,0,0,1.79-2.3,1.56,1.56,0,0,0-.67-1.79,10.08,10.08,0,0,0-2.44-.87l-2.31-.62a9.63,9.63,0,0,1-3.18-1.3A3.1,3.1,0,0,1,229,226a6.86,6.86,0,0,1,2.76-4.21,8.93,8.93,0,0,1,5.38-1.6q4.13,0,5.45,2.43A4.6,4.6,0,0,1,243,226h-2.91a3,3,0,0,0-.34-1.9c-.53-.81-1.67-1.21-3.42-1.21a5,5,0,0,0-2.77.67,2.75,2.75,0,0,0-1.28,1.76,1.73,1.73,0,0,0,.77,1.91,5.53,5.53,0,0,0,1.87.75l1.93.5A12.86,12.86,0,0,1,241,230c1,.79,1.35,2,1,3.71a7.21,7.21,0,0,1-2.75,4.22,9.34,9.34,0,0,1-6,1.78q-4.08,0-5.39-1.85a6,6,0,0,1-.85-4.59Z"/><path class="cls-1" d="M261.85,223.57a6.9,6.9,0,0,1,.54,3.23,20.25,20.25,0,0,1-.58,4H248.4a6.9,6.9,0,0,0,.36,4.47c.59,1.12,1.74,1.68,3.46,1.68a6,6,0,0,0,4.17-1.59,6.88,6.88,0,0,0,1.63-2.13h3a8.31,8.31,0,0,1-1.27,2.24,10.52,10.52,0,0,1-1.94,2,9.29,9.29,0,0,1-3.86,1.85,11.61,11.61,0,0,1-2.58.27,6.17,6.17,0,0,1-5.27-2.49c-1.23-1.66-1.52-4-.89-7a13.25,13.25,0,0,1,3.92-7.16,9.74,9.74,0,0,1,6.83-2.75,7.23,7.23,0,0,1,3.59.91A5,5,0,0,1,261.85,223.57Zm-2.69,4.82a7.11,7.11,0,0,0-.19-3.2c-.52-1.48-1.77-2.22-3.74-2.22a5.8,5.8,0,0,0-3.88,1.53,7.45,7.45,0,0,0-2.36,3.89Z"/><path class="cls-1" d="M113.56,269.91a2.2,2.2,0,0,0,1.62-.89,3.3,3.3,0,0,0,.45-1.18,2.05,2.05,0,0,0-.64-2.28,5.27,5.27,0,0,0-3.06-.71,5,5,0,0,0-3.69,1.3,5.31,5.31,0,0,0-1.18,2.14h-2.87a6.82,6.82,0,0,1,3.2-4.71,10.43,10.43,0,0,1,5.18-1.33,8.54,8.54,0,0,1,5,1.23q1.74,1.23,1.2,3.83l-2.24,10.55a1.27,1.27,0,0,0,0,.76c.09.2.34.3.76.3l.47,0c.18,0,.37,0,.58-.08l-.5,2.28a9.56,9.56,0,0,1-1.14.25,7.17,7.17,0,0,1-1,.05,2,2,0,0,1-2.07-1.12,3.7,3.7,0,0,1-.17-1.7,10.68,10.68,0,0,1-3.16,2.14,9.63,9.63,0,0,1-4.07.91,4.72,4.72,0,0,1-3.84-1.55,4.32,4.32,0,0,1-.79-3.87,6.35,6.35,0,0,1,2.44-3.95,9.42,9.42,0,0,1,4.53-1.73Zm-6.1,9.09a8.14,8.14,0,0,0,3.31-.75,5.59,5.59,0,0,0,3.44-4.09l.51-2.47a6.06,6.06,0,0,1-1.57.59,14.17,14.17,0,0,1-1.82.35l-1.91.24a8.23,8.23,0,0,0-2.67.7,3.57,3.57,0,0,0-2,2.56,2.09,2.09,0,0,0,.52,2.1A3,3,0,0,0,107.46,279Z"/><path class="cls-1" d="M126.25,262.7,128,277.6l8.27-14.9h3.37L128.83,281h-3.28l-2.87-18.3Z"/><path class="cls-1" d="M153.48,262.7l1.73,14.9,8.27-14.9h3.36L156.06,281h-3.28l-2.87-18.3Z"/><path class="cls-1" d="M177.75,269.91a2.2,2.2,0,0,0,1.62-.89,3.13,3.13,0,0,0,.44-1.18,2,2,0,0,0-.63-2.28,5.27,5.27,0,0,0-3.06-.71,5,5,0,0,0-3.69,1.3,5.31,5.31,0,0,0-1.18,2.14h-2.87a6.82,6.82,0,0,1,3.2-4.71,10.42,10.42,0,0,1,5.17-1.33,8.56,8.56,0,0,1,5,1.23q1.74,1.23,1.19,3.83l-2.23,10.55a1.27,1.27,0,0,0,0,.76c.09.2.34.3.76.3l.47,0c.18,0,.37,0,.57-.08l-.49,2.28a9.56,9.56,0,0,1-1.14.25,7.17,7.17,0,0,1-1,.05,2,2,0,0,1-2.07-1.12,3.7,3.7,0,0,1-.17-1.7,10.68,10.68,0,0,1-3.16,2.14,9.63,9.63,0,0,1-4.07.91,4.72,4.72,0,0,1-3.84-1.55,4.32,4.32,0,0,1-.79-3.87,6.38,6.38,0,0,1,2.43-3.95,9.5,9.5,0,0,1,4.54-1.73Zm-6.1,9.09a8.14,8.14,0,0,0,3.31-.75,5.59,5.59,0,0,0,3.44-4.09l.51-2.47a6.06,6.06,0,0,1-1.57.59,14.17,14.17,0,0,1-1.82.35l-1.91.24a8.23,8.23,0,0,0-2.67.7,3.55,3.55,0,0,0-2,2.56,2.09,2.09,0,0,0,.52,2.1A3,3,0,0,0,171.65,279Zm7.62-25.79a2.69,2.69,0,0,1,2.27,1,2.86,2.86,0,0,1,.46,2.52,4.75,4.75,0,0,1-1.69,2.52,4.36,4.36,0,0,1-2.77,1.06,2.67,2.67,0,0,1-2.26-1.06,2.75,2.75,0,0,1-.4-2.52,4.48,4.48,0,0,1,1.63-2.52A4.3,4.3,0,0,1,179.27,253.21Zm-1.37,5.73a2.62,2.62,0,0,0,1.68-.64,2.78,2.78,0,0,0,1-1.52,1.71,1.71,0,0,0-.29-1.52,1.66,1.66,0,0,0-1.38-.63,2.54,2.54,0,0,0-1.64.63,2.72,2.72,0,0,0-1,1.52,1.73,1.73,0,0,0,.26,1.52A1.58,1.58,0,0,0,177.9,258.94Z"/><path class="cls-1" d="M189,262.7H192l-.67,3.16a9.36,9.36,0,0,1,2.23-2.25,5.61,5.61,0,0,1,3.51-1.32h.29l.69.07-.69,3.25a3.2,3.2,0,0,0-.49-.07l-.5,0a5.41,5.41,0,0,0-3.89,1.5,6.73,6.73,0,0,0-2,3.44L188.22,281h-3.07Z"/><path class="cls-1" d="M202.3,257.59h3.12l-1.1,5.11h2.92l-.53,2.51h-2.92l-2.54,11.94c-.14.64,0,1.07.37,1.29a2.61,2.61,0,0,0,1.16.18h.48c.17,0,.38,0,.62-.05l-.52,2.43a7.3,7.3,0,0,1-1.15.22,10,10,0,0,1-1.26.07c-1.43,0-2.33-.37-2.69-1.1a4.4,4.4,0,0,1-.16-2.86l2.58-12.12H198.2l.53-2.51h2.48Z"/><path class="cls-1" d="M88.67,307.57a6.77,6.77,0,0,1,.55,3.23,20.25,20.25,0,0,1-.58,4H75.22a6.9,6.9,0,0,0,.37,4.47c.59,1.12,1.74,1.68,3.46,1.68a6,6,0,0,0,4.17-1.59,6.88,6.88,0,0,0,1.63-2.13h3a8.31,8.31,0,0,1-1.27,2.24,10.52,10.52,0,0,1-1.94,2,9.29,9.29,0,0,1-3.86,1.85,11.64,11.64,0,0,1-2.59.27A6.16,6.16,0,0,1,73,321.16q-1.85-2.49-.89-7A13.18,13.18,0,0,1,76,307a9.74,9.74,0,0,1,6.83-2.75,7.23,7.23,0,0,1,3.59.91A5,5,0,0,1,88.67,307.57ZM86,312.39a7.11,7.11,0,0,0-.19-3.2C85.28,307.71,84,307,82.06,307a5.78,5.78,0,0,0-3.88,1.53,7.45,7.45,0,0,0-2.36,3.89Z"/><path class="cls-1" d="M104.64,305.43a6.11,6.11,0,0,1,1.4,1.74l.49-2.3h2.84l-3.54,16.64a14.53,14.53,0,0,1-2.19,5.51c-1.81,2.48-4.48,3.72-8,3.72a7.57,7.57,0,0,1-4.69-1.32c-1.16-.89-1.61-2.27-1.37-4.15h3.12a2.89,2.89,0,0,0,.5,1.9,3.77,3.77,0,0,0,3.06,1,5.71,5.71,0,0,0,5.16-2.5,16.16,16.16,0,0,0,1.71-5.25,8.19,8.19,0,0,1-2.66,2.09,8.44,8.44,0,0,1-3.58.68,5.91,5.91,0,0,1-4.76-2.11q-1.78-2.1-.74-7A13.15,13.15,0,0,1,95.13,307a8.68,8.68,0,0,1,6-2.58A5.73,5.73,0,0,1,104.64,305.43Zm-3.56,1.66a5.64,5.64,0,0,0-5.07,3,13.08,13.08,0,0,0-1.54,4.26c-.45,2.06-.36,3.63.24,4.7a3.22,3.22,0,0,0,3,1.62,6.1,6.1,0,0,0,5.3-3,11.46,11.46,0,0,0,1.59-4q.73-3.4-.33-5A3.59,3.59,0,0,0,101.08,307.09Z"/><path class="cls-1" d="M127.6,307.57a6.77,6.77,0,0,1,.55,3.23,20.25,20.25,0,0,1-.58,4H114.16a6.9,6.9,0,0,0,.36,4.47c.59,1.12,1.74,1.68,3.46,1.68a6,6,0,0,0,4.17-1.59,6.88,6.88,0,0,0,1.63-2.13h3a8.31,8.31,0,0,1-1.27,2.24,10.52,10.52,0,0,1-1.94,2,9.29,9.29,0,0,1-3.86,1.85,11.61,11.61,0,0,1-2.58.27,6.17,6.17,0,0,1-5.27-2.49c-1.23-1.66-1.52-4-.89-7a13.18,13.18,0,0,1,3.92-7.16,9.74,9.74,0,0,1,6.83-2.75,7.23,7.23,0,0,1,3.59.91A5,5,0,0,1,127.6,307.57Zm-2.68,4.82a7.11,7.11,0,0,0-.19-3.2C124.21,307.71,123,307,121,307a5.8,5.8,0,0,0-3.88,1.53,7.45,7.45,0,0,0-2.36,3.89Z"/><path class="cls-1" d="M135.21,299.59h3.11l-1.09,5.11h2.92l-.53,2.51H136.7l-2.55,11.94c-.14.64,0,1.07.38,1.29a2.55,2.55,0,0,0,1.16.19h.48c.17,0,.37,0,.61-.05l-.51,2.43a7.53,7.53,0,0,1-1.15.22,10.19,10.19,0,0,1-1.26.07c-1.44,0-2.33-.37-2.69-1.1a4.33,4.33,0,0,1-.16-2.86l2.58-12.12h-2.48l.53-2.51h2.48Z"/><path class="cls-1" d="M154.66,299.59h3.11l-1.1,5.11h2.93l-.53,2.51h-2.93l-2.54,11.94c-.14.64,0,1.07.37,1.29a2.63,2.63,0,0,0,1.17.19h.48c.17,0,.37,0,.61-.05l-.51,2.43a7.43,7.43,0,0,1-1.16.22,9.91,9.91,0,0,1-1.25.07c-1.44,0-2.34-.37-2.69-1.1a4.39,4.39,0,0,1-.17-2.86L153,307.21h-2.47l.53-2.51h2.47Z"/><path class="cls-1" d="M176.24,307.57a6.89,6.89,0,0,1,.55,3.23,20.25,20.25,0,0,1-.58,4H162.79a6.9,6.9,0,0,0,.37,4.47c.59,1.12,1.74,1.68,3.46,1.68a6,6,0,0,0,4.17-1.59,6.85,6.85,0,0,0,1.62-2.13h3a8.31,8.31,0,0,1-1.27,2.24,10.83,10.83,0,0,1-1.94,2,9.27,9.27,0,0,1-3.87,1.85,11.48,11.48,0,0,1-2.58.27,6.15,6.15,0,0,1-5.26-2.49q-1.85-2.49-.89-7a13.23,13.23,0,0,1,3.91-7.16,9.78,9.78,0,0,1,6.84-2.75,7.23,7.23,0,0,1,3.59.91A5,5,0,0,1,176.24,307.57Zm-2.68,4.82a7.11,7.11,0,0,0-.19-3.2c-.52-1.48-1.77-2.22-3.74-2.22a5.78,5.78,0,0,0-3.88,1.53,7.45,7.45,0,0,0-2.36,3.89Z"/><path class="cls-1" d="M190.41,311.91A2.2,2.2,0,0,0,192,311a3,3,0,0,0,.45-1.18,2,2,0,0,0-.63-2.28,5.27,5.27,0,0,0-3.06-.71,5,5,0,0,0-3.7,1.3,5.31,5.31,0,0,0-1.17,2.14H181a6.85,6.85,0,0,1,3.2-4.71,10.43,10.43,0,0,1,5.18-1.33,8.54,8.54,0,0,1,5,1.23q1.74,1.23,1.2,3.83l-2.24,10.55a1.22,1.22,0,0,0,0,.77c.08.19.33.29.76.29l.47,0c.17,0,.36,0,.57-.08l-.5,2.28a9.94,9.94,0,0,1-1.13.25,7.41,7.41,0,0,1-1,.05,2,2,0,0,1-2.07-1.12,3.84,3.84,0,0,1-.17-1.7,10.68,10.68,0,0,1-3.16,2.14,9.59,9.59,0,0,1-4.07.91,4.71,4.71,0,0,1-3.83-1.55,4.33,4.33,0,0,1-.8-3.87,6.4,6.4,0,0,1,2.44-3.95,9.46,9.46,0,0,1,4.54-1.73Zm-6.1,9.09a8.1,8.1,0,0,0,3.31-.75,5.59,5.59,0,0,0,3.44-4.09l.51-2.47a5.93,5.93,0,0,1-1.57.59,14.37,14.37,0,0,1-1.81.35l-1.92.24a8.09,8.09,0,0,0-2.66.7,3.56,3.56,0,0,0-2,2.56,2.09,2.09,0,0,0,.52,2.1A3,3,0,0,0,184.31,321Z"/><path class="cls-1" d="M201.6,304.7h3.05l-.55,2.59a14.28,14.28,0,0,1,2.39-2,7,7,0,0,1,3.68-1,4.59,4.59,0,0,1,3.29,1.07,4.3,4.3,0,0,1,1,1.81,9.26,9.26,0,0,1,2.88-2.17,7.52,7.52,0,0,1,3.25-.71q3.69,0,4.46,2.66a8.22,8.22,0,0,1-.1,3.86L222.35,323h-3.19l2.7-12.71c.25-1.22.11-2.06-.4-2.52a3,3,0,0,0-2.08-.68A5.39,5.39,0,0,0,216,308.3a6.68,6.68,0,0,0-2.16,4.05L211.58,323h-3.12L211,311.05a6,6,0,0,0,.13-2.71q-.42-1.29-2.34-1.29a5.61,5.61,0,0,0-3.46,1.36c-1.14.9-2,2.52-2.47,4.88l-2,9.71h-3.08Z"/><path class="cls-1" d="M229.36,316.28l4.2-2.83-3-2.84.65-3.08,4.6,4.29-.7,3.25-6.41,4.29Zm7.16,0,4.2-2.83-3-2.84.65-3.08,4.62,4.29-.71,3.25-6.42,4.29Z"/></svg>