<svg id="Layer_1" data-name="Layer 1" xmlns="http://www.w3.org/2000/svg" viewBox="0 0 300 600"><defs><style>.cls-1{fill:#fff;}</style></defs><title>text</title><path class="cls-1" d="M41.84,335H38.92V323.89H28.1V335H25.18V311.67H28.1v9.66H38.92v-9.66h2.92Z"/><path class="cls-1" d="M58.83,329.86l2.49.51A7,7,0,0,1,58.65,334,7.64,7.64,0,0,1,54,335.48,7.27,7.27,0,0,1,48.26,333a10.89,10.89,0,0,1,.09-13.19,7.34,7.34,0,0,1,5.71-2.54,6.89,6.89,0,0,1,5.44,2.34c1.37,1.56,2.08,3.9,2.11,7H49.07c0,2.61.54,4.37,1.64,5.28a5.35,5.35,0,0,0,3.47,1.37A4.75,4.75,0,0,0,58.83,329.86Zm-.16-5.25a7.32,7.32,0,0,0-.48-2.58,4.33,4.33,0,0,0-1.5-1.92,4.15,4.15,0,0,0-2.55-.8,4.54,4.54,0,0,0-3.39,1.44,5.89,5.89,0,0,0-1.56,3.86Z"/><path class="cls-1" d="M79.25,335H76.74V323.91a4.46,4.46,0,0,0-1-3.37,3.54,3.54,0,0,0-2.53-1,4.36,4.36,0,0,0-3.44,1.64,6.43,6.43,0,0,0-1.39,4.32V335H65.64V317.74h2.5v3.18q2.1-3.66,5.45-3.66a5.36,5.36,0,0,1,3.29,1,5.26,5.26,0,0,1,1.86,2.25,13.48,13.48,0,0,1,.51,4.51Z"/><path class="cls-1" d="M98.71,315v2.14a4.91,4.91,0,0,0-2.47.42,2.27,2.27,0,0,0-.82,1.54,6.27,6.27,0,0,1,1.65,4.17,5.37,5.37,0,0,1-1.8,4.05,6.79,6.79,0,0,1-4.85,1.69,5.73,5.73,0,0,1-1.17-.1,9.89,9.89,0,0,0-1.18-.19,2.06,2.06,0,0,0-1.11.45,1.38,1.38,0,0,0-.65,1.18,1.27,1.27,0,0,0,.94,1.33,21,21,0,0,0,4.42.39,25.65,25.65,0,0,1,4.37.4,4.4,4.4,0,0,1,2.38,1.41,3.81,3.81,0,0,1,1,2.65q0,4.95-8.68,4.94-4.12,0-6-1.24A3.8,3.8,0,0,1,82.82,337a3.48,3.48,0,0,1,2.63-3.46,3.24,3.24,0,0,1-1.69-2.78c0-1.33.8-2.35,2.39-3.06a5.62,5.62,0,0,1-2.24-4.56,5.27,5.27,0,0,1,1.92-4.2,6.92,6.92,0,0,1,4.66-1.64A8.34,8.34,0,0,1,94,318a3.34,3.34,0,0,1,1.19-2.35,5,5,0,0,1,2.83-.65ZM87.3,334.3a2.59,2.59,0,0,0-1.88,2.37A2.26,2.26,0,0,0,87,338.72a9.4,9.4,0,0,0,3.94.72,12.55,12.55,0,0,0,4.07-.62c1.23-.42,1.85-1.12,1.85-2.11a1.74,1.74,0,0,0-.55-1.32,2.7,2.7,0,0,0-1.5-.65,32.61,32.61,0,0,0-3.3-.2Q88.65,334.47,87.3,334.3Zm3.21-7.3A3.83,3.83,0,0,0,93.3,326a3.67,3.67,0,0,0,1.07-2.73,3.71,3.71,0,0,0-1.12-2.79,3.75,3.75,0,0,0-2.71-1.08,4.06,4.06,0,0,0-2.7,1,4.1,4.1,0,0,0-.12,5.61A3.83,3.83,0,0,0,90.51,327Z"/><path class="cls-1" d="M113.21,329.86l2.49.51A7,7,0,0,1,113,334a7.64,7.64,0,0,1-4.66,1.45,7.27,7.27,0,0,1-5.73-2.49,10.89,10.89,0,0,1,.09-13.19,7.34,7.34,0,0,1,5.71-2.54,6.89,6.89,0,0,1,5.44,2.34c1.37,1.56,2.08,3.9,2.11,7H103.45c0,2.61.54,4.37,1.64,5.28a5.35,5.35,0,0,0,3.47,1.37A4.75,4.75,0,0,0,113.21,329.86Zm-.16-5.25a7.32,7.32,0,0,0-.48-2.58,4.33,4.33,0,0,0-1.5-1.92,4.15,4.15,0,0,0-2.55-.8,4.54,4.54,0,0,0-3.39,1.44,5.89,5.89,0,0,0-1.56,3.86Z"/><path class="cls-1" d="M122.71,335H120V317.74h2.36v4a8.68,8.68,0,0,1,2.51-3.7,4.55,4.55,0,0,1,2.57-.84c.27,0,.62,0,1.06.06v2.57H128a4.71,4.71,0,0,0-3.69,1.66,6.7,6.7,0,0,0-1.57,4.35Z"/><path class="cls-1" d="M143.08,311.67v3h-2.89v-3Zm-.09,6.07V335h-2.68V317.74Z"/><path class="cls-1" d="M162.6,335h-2.79l-5-9.64L151,329.67V335h-2.69V311.67H151v15l8-8.89h2.87l-5.39,6.06Z"/><path class="cls-1" d="M180.13,335h-2.78l-5-9.64-3.74,4.31V335h-2.68V311.67h2.68v15l8-8.89h2.87l-5.4,6.06Z"/><path class="cls-1" d="M194,329.86l2.5.51a7.1,7.1,0,0,1-2.67,3.66,7.67,7.67,0,0,1-4.67,1.45,7.26,7.26,0,0,1-5.72-2.49,9.51,9.51,0,0,1-2.19-6.53,9.62,9.62,0,0,1,2.27-6.66,7.36,7.36,0,0,1,5.71-2.54,6.92,6.92,0,0,1,5.45,2.34q2.06,2.34,2.11,7H184.28q0,3.92,1.64,5.28a5.37,5.37,0,0,0,3.47,1.37A4.75,4.75,0,0,0,194,329.86Zm-.15-5.25a7.8,7.8,0,0,0-.48-2.58,4.42,4.42,0,0,0-1.51-1.92,4.1,4.1,0,0,0-2.54-.8,4.51,4.51,0,0,0-3.39,1.44,5.94,5.94,0,0,0-1.57,3.86Z"/><path class="cls-1" d="M223.09,311.67V335h-2.42v-3a5.85,5.85,0,0,1-5.46,3.44,6,6,0,0,1-5-2.54,10.26,10.26,0,0,1-1.95-6.42,10.93,10.93,0,0,1,1.93-6.62,6,6,0,0,1,5.12-2.64,6,6,0,0,1,5.08,2.84v-8.43Zm-2.68,12.73a4.92,4.92,0,0,0-1.38-3.64,4.46,4.46,0,0,0-3.23-1.36,3.91,3.91,0,0,0-3.29,1.77,8.39,8.39,0,0,0-1.29,5,9.71,9.71,0,0,0,1.18,5.29,3.73,3.73,0,0,0,3.26,1.81,4.36,4.36,0,0,0,3.31-1.58,5.26,5.26,0,0,0,1.44-3.69Z"/><path class="cls-1" d="M231.23,311.67v3h-2.89v-3Zm-.09,6.07V335h-2.68V317.74Z"/><path class="cls-1" d="M250.1,335h-2.52V323.91a4.46,4.46,0,0,0-1-3.37,3.56,3.56,0,0,0-2.53-1,4.35,4.35,0,0,0-3.44,1.64,6.43,6.43,0,0,0-1.4,4.32V335h-2.68V317.74H239v3.18q2.1-3.66,5.45-3.66a5.51,5.51,0,0,1,5.15,3.25,13.48,13.48,0,0,1,.51,4.51Z"/><path class="cls-1" d="M266.86,329.86l2.5.51a7.1,7.1,0,0,1-2.67,3.66,7.67,7.67,0,0,1-4.67,1.45A7.26,7.26,0,0,1,256.3,333a9.51,9.51,0,0,1-2.19-6.53,9.62,9.62,0,0,1,2.27-6.66,7.36,7.36,0,0,1,5.71-2.54,6.92,6.92,0,0,1,5.45,2.34q2.06,2.34,2.11,7H257.1q0,3.92,1.64,5.28a5.37,5.37,0,0,0,3.47,1.37A4.75,4.75,0,0,0,266.86,329.86Zm-.15-5.25a7.8,7.8,0,0,0-.48-2.58,4.42,4.42,0,0,0-1.51-1.92,4.1,4.1,0,0,0-2.54-.8,4.51,4.51,0,0,0-3.39,1.44,5.94,5.94,0,0,0-1.57,3.86Z"/><path class="cls-1" d="M49.07,353.67V377H46.64v-3a5.85,5.85,0,0,1-5.46,3.44,6,6,0,0,1-5-2.54,10.26,10.26,0,0,1-2-6.42,10.93,10.93,0,0,1,1.93-6.62,6.06,6.06,0,0,1,5.13-2.64,6,6,0,0,1,5.07,2.84v-8.43ZM46.38,366.4A4.92,4.92,0,0,0,45,362.76a4.45,4.45,0,0,0-3.23-1.36,3.92,3.92,0,0,0-3.29,1.77,8.39,8.39,0,0,0-1.29,5,9.7,9.7,0,0,0,1.19,5.29,3.7,3.7,0,0,0,3.25,1.81A4.38,4.38,0,0,0,45,373.68,5.25,5.25,0,0,0,46.38,370Z"/><path class="cls-1" d="M57.2,353.67v3H54.31v-3Zm-.08,6.07V377H54.43V359.74Z"/><path class="cls-1" d="M76.57,357v2.14a4.86,4.86,0,0,0-2.47.42,2.24,2.24,0,0,0-.83,1.54,6.27,6.27,0,0,1,1.65,4.17,5.37,5.37,0,0,1-1.8,4.05,6.78,6.78,0,0,1-4.84,1.69,5.77,5.77,0,0,1-1.18-.1,9.89,9.89,0,0,0-1.18-.19,2.06,2.06,0,0,0-1.11.45,1.38,1.38,0,0,0-.65,1.18,1.27,1.27,0,0,0,.94,1.33,21,21,0,0,0,4.42.39,25.54,25.54,0,0,1,4.37.4,4.36,4.36,0,0,1,2.38,1.41,3.81,3.81,0,0,1,1,2.65q0,4.95-8.68,4.94-4.12,0-6-1.24A3.8,3.8,0,0,1,60.67,379a3.48,3.48,0,0,1,2.63-3.46,3.26,3.26,0,0,1-1.69-2.78c0-1.33.8-2.35,2.39-3.06a5.61,5.61,0,0,1-2.23-4.56,5.26,5.26,0,0,1,1.91-4.2,7,7,0,0,1,4.67-1.64,8.33,8.33,0,0,1,3.53.74,3.34,3.34,0,0,1,1.19-2.35A5,5,0,0,1,75.9,357ZM65.15,376.3a2.61,2.61,0,0,0-1.88,2.37,2.25,2.25,0,0,0,1.55,2.05,9.34,9.34,0,0,0,3.94.72,12.49,12.49,0,0,0,4.06-.62c1.23-.42,1.85-1.12,1.85-2.11a1.71,1.71,0,0,0-.55-1.32,2.66,2.66,0,0,0-1.49-.65,33.09,33.09,0,0,0-3.31-.2Q66.5,376.47,65.15,376.3Zm3.21-7.3A3.83,3.83,0,0,0,71.15,368a3.63,3.63,0,0,0,1.07-2.73,3.74,3.74,0,0,0-3.82-3.87,4,4,0,0,0-2.7,1,4.08,4.08,0,0,0-.12,5.61A3.79,3.79,0,0,0,68.36,369Z"/><path class="cls-1" d="M82.43,353.67v3H79.54v-3Zm-.09,6.07V377H79.66V359.74Z"/><path class="cls-1" d="M95.52,375.17v2.12a18.41,18.41,0,0,1-2.46.19q-5,0-5-5.24v-10.4H85v-2.1h3.06l.12-4.34,2.49-.24v4.58h3.87v2.1H90.66v10.85c0,1.78.93,2.67,2.77,2.67A12.74,12.74,0,0,0,95.52,375.17Z"/><path class="cls-1" d="M112,377h-2.65c-.1-.55-.21-1.58-.31-3.11a6.22,6.22,0,0,1-6,3.59,6.11,6.11,0,0,1-4.46-1.54,5,5,0,0,1-1.55-3.7,5.18,5.18,0,0,1,2.22-4.3q2.22-1.69,7.55-1.69c.48,0,1.24,0,2.29.07a10,10,0,0,0-.31-3,2.68,2.68,0,0,0-1.35-1.46,5.78,5.78,0,0,0-2.7-.54c-2.72,0-4.3,1-4.75,3.11L97.42,364q.9-4.77,7.62-4.77,3.57,0,5.06,1.58c1,1.06,1.5,2.88,1.5,5.48v7.33A14.52,14.52,0,0,0,112,377Zm-3-8.63c-1.09-.07-1.92-.1-2.49-.1a9.79,9.79,0,0,0-4.94,1,3.34,3.34,0,0,0-1.76,3.05,2.82,2.82,0,0,0,1,2.16,3.86,3.86,0,0,0,2.74.89,5.1,5.1,0,0,0,4-1.76,6.07,6.07,0,0,0,1.56-4.15C109.05,369.18,109,368.8,109,368.37Z"/><path class="cls-1" d="M119.65,377H117V353.67h2.68Z"/><path class="cls-1" d="M136.41,371.86l2.5.51a7.1,7.1,0,0,1-2.67,3.66,7.64,7.64,0,0,1-4.66,1.45,7.27,7.27,0,0,1-5.73-2.49,10.89,10.89,0,0,1,.09-13.19,7.34,7.34,0,0,1,5.71-2.54,6.89,6.89,0,0,1,5.44,2.34c1.37,1.56,2.08,3.9,2.11,7H126.66c0,2.61.54,4.37,1.64,5.28a5.35,5.35,0,0,0,3.47,1.37A4.75,4.75,0,0,0,136.41,371.86Zm-.15-5.25a7.32,7.32,0,0,0-.48-2.58,4.4,4.4,0,0,0-1.5-1.92,4.15,4.15,0,0,0-2.55-.8,4.54,4.54,0,0,0-3.39,1.44,5.89,5.89,0,0,0-1.56,3.86Z"/><path class="cls-1" d="M166.24,377h-2.79l-5-9.64-3.74,4.31V377H152V353.67h2.69v15l8-8.89h2.87l-5.39,6.06Z"/><path class="cls-1" d="M182.74,377H180.1a28.75,28.75,0,0,1-.31-3.11,6.23,6.23,0,0,1-6,3.59,6.08,6.08,0,0,1-4.46-1.54,5,5,0,0,1-1.56-3.7,5.18,5.18,0,0,1,2.22-4.3c1.49-1.13,4-1.69,7.56-1.69.48,0,1.24,0,2.29.07a10,10,0,0,0-.32-3,2.66,2.66,0,0,0-1.34-1.46,5.78,5.78,0,0,0-2.7-.54c-2.72,0-4.31,1-4.75,3.11L168.2,364c.6-3.18,3.15-4.77,7.62-4.77q3.57,0,5.07,1.58c1,1.06,1.5,2.88,1.5,5.48v7.33A15.11,15.11,0,0,0,182.74,377Zm-3-8.63c-1.1-.07-1.93-.1-2.5-.1a9.81,9.81,0,0,0-4.94,1,3.36,3.36,0,0,0-1.76,3.05,2.85,2.85,0,0,0,.95,2.16,3.89,3.89,0,0,0,2.75.89,5.13,5.13,0,0,0,4-1.76,6.07,6.07,0,0,0,1.56-4.15C179.84,369.18,179.82,368.8,179.79,368.37Z"/><path class="cls-1" d="M201.36,377h-2.52V365.91a4.46,4.46,0,0,0-1-3.37,3.56,3.56,0,0,0-2.53-1,4.35,4.35,0,0,0-3.44,1.64,6.43,6.43,0,0,0-1.39,4.32V377h-2.69V359.74h2.5v3.18q2.1-3.66,5.45-3.66a5.51,5.51,0,0,1,5.15,3.25,13.48,13.48,0,0,1,.51,4.51Z"/><path class="cls-1" d="M220.22,377h-2.65c-.1-.55-.2-1.58-.3-3.11a6.23,6.23,0,0,1-6.05,3.59,6.08,6.08,0,0,1-4.46-1.54,5,5,0,0,1-1.56-3.7,5.18,5.18,0,0,1,2.22-4.3q2.22-1.69,7.56-1.69c.47,0,1.24,0,2.29.07a10,10,0,0,0-.32-3,2.66,2.66,0,0,0-1.34-1.46,5.84,5.84,0,0,0-2.7-.54c-2.72,0-4.31,1-4.75,3.11l-2.48-.43q.9-4.77,7.62-4.77,3.57,0,5.07,1.58c1,1.06,1.49,2.88,1.49,5.48v7.33A14.52,14.52,0,0,0,220.22,377Zm-2.95-8.63c-1.1-.07-1.93-.1-2.5-.1a9.81,9.81,0,0,0-4.94,1,3.36,3.36,0,0,0-1.76,3.05,2.85,2.85,0,0,0,1,2.16,3.88,3.88,0,0,0,2.74.89,5.1,5.1,0,0,0,4-1.76,6,6,0,0,0,1.57-4.15C217.32,369.18,217.3,368.8,217.27,368.37Z"/><path class="cls-1" d="M227.91,377h-2.68V353.67h2.68Z"/><path class="cls-1" d="M244.68,371.86l2.49.51a7,7,0,0,1-2.66,3.66,7.67,7.67,0,0,1-4.67,1.45,7.23,7.23,0,0,1-5.72-2.49,9.51,9.51,0,0,1-2.19-6.53,9.62,9.62,0,0,1,2.27-6.66,7.36,7.36,0,0,1,5.71-2.54,6.88,6.88,0,0,1,5.44,2.34q2.07,2.34,2.11,7H234.92q0,3.92,1.64,5.28a5.35,5.35,0,0,0,3.47,1.37A4.75,4.75,0,0,0,244.68,371.86Zm-.16-5.25a7.55,7.55,0,0,0-.47-2.58,4.42,4.42,0,0,0-1.51-1.92,4.1,4.1,0,0,0-2.54-.8,4.55,4.55,0,0,0-3.4,1.44,5.89,5.89,0,0,0-1.56,3.86Z"/><path class="cls-1" d="M254.18,377H251.5V359.74h2.36v4a8.68,8.68,0,0,1,2.5-3.7,4.57,4.57,0,0,1,2.57-.84c.27,0,.63,0,1.06.06v2.57h-.55a4.71,4.71,0,0,0-3.69,1.66,6.7,6.7,0,0,0-1.57,4.35Z"/><path class="cls-1" d="M85,419H82.38V408.27a9.67,9.67,0,0,0-.23-2.49A2.92,2.92,0,0,0,81,404.26a3.17,3.17,0,0,0-2-.69,4.22,4.22,0,0,0-3,1.41,5.81,5.81,0,0,0-1.43,4.3V419H72V407.63A4.09,4.09,0,0,0,71,404.42a3.46,3.46,0,0,0-2.28-.94,3.84,3.84,0,0,0-3,1.47,5.52,5.52,0,0,0-1.26,3.73V419H61.88V401.74h2.3v3.31c1.29-2.52,3.06-3.79,5.32-3.79a4.5,4.5,0,0,1,3.16,1.21,5.53,5.53,0,0,1,1.67,2.93q1.78-4.14,5.46-4.14a5,5,0,0,1,3.08,1,4.67,4.67,0,0,1,1.73,2.31,13.52,13.52,0,0,1,.4,3.69Z"/><path class="cls-1" d="M101.76,413.86l2.5.51a7.1,7.1,0,0,1-2.67,3.66,7.64,7.64,0,0,1-4.66,1.45A7.27,7.27,0,0,1,91.2,417a10.89,10.89,0,0,1,.09-13.19A7.34,7.34,0,0,1,97,401.26a6.89,6.89,0,0,1,5.44,2.34c1.37,1.56,2.08,3.9,2.11,7H92c0,2.61.54,4.37,1.64,5.28a5.35,5.35,0,0,0,3.47,1.37A4.75,4.75,0,0,0,101.76,413.86Zm-.15-5.25a7.32,7.32,0,0,0-.48-2.58,4.4,4.4,0,0,0-1.5-1.92,4.15,4.15,0,0,0-2.55-.8,4.54,4.54,0,0,0-3.39,1.44,5.89,5.89,0,0,0-1.56,3.86Z"/><path class="cls-1" d="M122.07,395.67V419h-2.43v-3a5.85,5.85,0,0,1-5.46,3.44,6,6,0,0,1-5-2.54,10.26,10.26,0,0,1-2-6.42,10.93,10.93,0,0,1,1.93-6.62,6.06,6.06,0,0,1,5.13-2.64,6,6,0,0,1,5.07,2.84v-8.43Zm-2.69,12.73a4.92,4.92,0,0,0-1.38-3.64,4.45,4.45,0,0,0-3.23-1.36,3.92,3.92,0,0,0-3.29,1.77,8.39,8.39,0,0,0-1.29,5,9.62,9.62,0,0,0,1.19,5.29,3.7,3.7,0,0,0,3.25,1.81,4.38,4.38,0,0,0,3.32-1.58,5.25,5.25,0,0,0,1.43-3.69Z"/><path class="cls-1" d="M139,395.67v3h-2.89v-3Zm-.08,6.07V419h-2.69V401.74Z"/><path class="cls-1" d="M160.79,417.17v2.12a18.18,18.18,0,0,1-2.46.19q-5,0-5-5.24v-10.4h-3v-2.1h3l.12-4.34,2.5-.24v4.58h3.86v2.1h-3.86v10.85c0,1.78.92,2.67,2.77,2.67A12.63,12.63,0,0,0,160.79,417.17Z"/><path class="cls-1" d="M166.5,395.67v3h-2.89v-3Zm-.08,6.07V419h-2.69V401.74Z"/><path class="cls-1" d="M185.25,395.67V419h-2.43v-3a5.85,5.85,0,0,1-5.46,3.44,6,6,0,0,1-5-2.54,10.26,10.26,0,0,1-1.95-6.42,10.93,10.93,0,0,1,1.93-6.62,6.06,6.06,0,0,1,5.13-2.64,6,6,0,0,1,5.07,2.84v-8.43Zm-2.69,12.73a4.92,4.92,0,0,0-1.38-3.64A4.45,4.45,0,0,0,178,403.4a3.92,3.92,0,0,0-3.29,1.77,8.39,8.39,0,0,0-1.29,5,9.7,9.7,0,0,0,1.19,5.29,3.72,3.72,0,0,0,3.25,1.81,4.38,4.38,0,0,0,3.32-1.58,5.25,5.25,0,0,0,1.43-3.69Z"/><path class="cls-1" d="M202,413.86l2.5.51a7.1,7.1,0,0,1-2.67,3.66,7.64,7.64,0,0,1-4.66,1.45,7.27,7.27,0,0,1-5.73-2.49,10.85,10.85,0,0,1,.09-13.19,7.34,7.34,0,0,1,5.71-2.54,6.91,6.91,0,0,1,5.44,2.34q2.06,2.34,2.11,7H192.25q0,3.92,1.65,5.28a5.34,5.34,0,0,0,3.46,1.37A4.75,4.75,0,0,0,202,413.86Zm-.15-5.25a7.32,7.32,0,0,0-.48-2.58,4.47,4.47,0,0,0-1.5-1.92,4.15,4.15,0,0,0-2.55-.8,4.54,4.54,0,0,0-3.39,1.44,5.94,5.94,0,0,0-1.57,3.86Z"/><path class="cls-1" d="M222.44,419h-2.52V407.91a4.46,4.46,0,0,0-1-3.37,3.56,3.56,0,0,0-2.53-1,4.35,4.35,0,0,0-3.44,1.64,6.43,6.43,0,0,0-1.39,4.32V419h-2.69V401.74h2.5v3.18q2.1-3.66,5.45-3.66a5.51,5.51,0,0,1,5.15,3.25,13.48,13.48,0,0,1,.51,4.51Z"/><path class="cls-1" d="M234.3,413.19h-2.47c0-1.78,0-2.89.08-3.32a3.86,3.86,0,0,1,.37-1.32,3.48,3.48,0,0,1,.69-1,11.56,11.56,0,0,1,1.82-1.17,17.18,17.18,0,0,0,2.15-1.35,4.22,4.22,0,0,0,1-1.36,4.1,4.1,0,0,0,.44-1.88A3.68,3.68,0,0,0,237,398.7a5.22,5.22,0,0,0-3.33-1.11c-2.89,0-4.66,1.68-5.29,5l-2.55-.55q1.27-6.88,8-6.89a8,8,0,0,1,5.52,1.88,6.11,6.11,0,0,1,2.1,4.79q0,3.81-4.37,6.08a8,8,0,0,0-2.34,1.58,3,3,0,0,0-.43,1.79Zm.58,2.44V419h-3.46v-3.37Z"/></svg>