<svg id="Layer_1" data-name="Layer 1" xmlns="http://www.w3.org/2000/svg" xmlns:xlink="http://www.w3.org/1999/xlink" viewBox="0 0 980 300"><defs><style>.cls-1{fill:url(#linear-gradient);}.cls-2,.cls-7{fill:none;}.cls-3{clip-path:url(#clip-path);}.cls-4{opacity:0.25;}.cls-5{clip-path:url(#clip-path-2);}.cls-6{mask:url(#mask);}.cls-7{stroke:#fff;stroke-miterlimit:10;stroke-width:0.78px;}.cls-8{filter:url(#luminosity-noclip);}</style><linearGradient id="linear-gradient" x1="-192.77" y1="6.55" x2="-191.77" y2="6.55" gradientTransform="translate(78456.52 -2464.61) scale(405.45)" gradientUnits="userSpaceOnUse"><stop offset="0" stop-color="#fff"/><stop offset="1"/></linearGradient><clipPath id="clip-path"><rect class="cls-2" x="-136.5" width="1116.5" height="385.25"/></clipPath><clipPath id="clip-path-2"><rect class="cls-2" x="-145.5" y="-7" width="1134.5" height="393.25"/></clipPath><filter id="luminosity-noclip" x="-394.5" y="-1214.75" width="2319.67" height="2319.67" filterUnits="userSpaceOnUse" color-interpolation-filters="sRGB"><feFlood flood-color="#fff" result="bg"/><feBlend in="SourceGraphic" in2="bg"/></filter><mask id="mask" x="-394.5" y="-1214.75" width="2319.67" height="2319.67" maskUnits="userSpaceOnUse"><g class="cls-8"><rect class="cls-1" x="-9.51" y="-405.35" width="862.53" height="1189.95" transform="translate(62.34 480.58) rotate(-63.2)"/></g></mask></defs><title>text</title><g class="cls-3"><g class="cls-4"><g class="cls-5"><g class="cls-6"><g class="cls-5"><g class="cls-3"><path class="cls-7" d="M-394.11-54.92c0,640.35,519.1,1159.45,1159.45,1159.45S1924.78,585.43,1924.78-54.92,1405.68-1214.36,765.34-1214.36-394.11-695.26-394.11-54.92Zm6.31,0c0,636.87,516.27,1153.14,1153.14,1153.14S1918.48,582,1918.48-54.92,1402.2-1208.06,765.34-1208.06-387.8-691.78-387.8-54.92Zm6.3,0c0,633.38,513.46,1146.84,1146.84,1146.84S1912.17,578.46,1912.17-54.92,1398.71-1201.75,765.34-1201.75-381.5-688.29-381.5-54.92Zm6.31,0c0,629.9,510.63,1140.53,1140.53,1140.53S1905.86,575,1905.86-54.92,1395.23-1195.44,765.34-1195.44-375.19-684.81-375.19-54.92Zm6.3,0c0,626.42,507.81,1134.23,1134.23,1134.23S1899.56,571.5,1899.56-54.92,1391.75-1189.14,765.34-1189.14-368.89-681.33-368.89-54.92Zm6.31,0C-362.58,568,142.4,1073,765.34,1073S1893.25,568,1893.25-54.92s-505-1127.91-1127.91-1127.91S-362.58-677.85-362.58-54.92Zm6.3,0c0,619.45,502.17,1121.62,1121.62,1121.62S1887,564.53,1887-54.92,1384.78-1176.53,765.34-1176.53-356.28-674.36-356.28-54.92Zm6.31,0c0,616,499.34,1115.31,1115.31,1115.31S1880.64,561.05,1880.64-54.92s-499.34-1115.3-1115.3-1115.3S-350-670.88-350-54.92Zm6.31,0c0,612.49,496.51,1109,1109,1109s1109-496.51,1109-1109-496.51-1109-1109-1109S-343.66-667.4-343.66-54.92Zm6.3,0c0,609,493.69,1102.7,1102.7,1102.7S1868,554.09,1868-54.92,1374.34-1157.61,765.34-1157.61-337.36-663.92-337.36-54.92Zm6.31,0c0,605.52,490.87,1096.39,1096.39,1096.39S1861.72,550.6,1861.72-54.92,1370.85-1151.3,765.34-1151.3-331-660.43-331-54.92Zm6.3,0c0,602,488.05,1090.09,1090.09,1090.09S1855.42,547.12,1855.42-54.92,1367.37-1145,765.34-1145-324.75-656.95-324.75-54.92Zm6.31,0c0,598.56,485.22,1083.78,1083.78,1083.78S1849.11,543.64,1849.11-54.92,1363.89-1138.69,765.34-1138.69-318.44-653.47-318.44-54.92Zm6.31,0c0,595.07,482.4,1077.47,1077.47,1077.47S1842.81,540.15,1842.81-54.92,1360.41-1132.39,765.34-1132.39-312.13-650-312.13-54.92Zm6.3,0c0,591.59,479.58,1071.17,1071.17,1071.17S1836.5,536.67,1836.5-54.92,1356.92-1126.08,765.34-1126.08-305.83-646.5-305.83-54.92Zm6.31,0c0,588.11,476.75,1064.86,1064.86,1064.86S1830.19,533.19,1830.19-54.92,1353.44-1119.77,765.34-1119.77-299.52-643-299.52-54.92Zm6.3,0c0,584.63,473.93,1058.56,1058.56,1058.56S1823.89,529.71,1823.89-54.92,1350-1113.47,765.34-1113.47-293.22-639.54-293.22-54.92Zm6.31,0c0,581.14,471.11,1052.25,1052.25,1052.25S1817.58,526.22,1817.58-54.92,1346.48-1107.16,765.34-1107.16-286.91-636.06-286.91-54.92Zm6.3,0c0,577.66,468.29,1046,1046,1046S1811.28,522.74,1811.28-54.92,1343-1100.86,765.34-1100.86-280.61-632.57-280.61-54.92Zm6.31,0c0,574.18,465.46,1039.64,1039.64,1039.64S1805,519.26,1805-54.92,1339.51-1094.55,765.34-1094.55-274.3-629.09-274.3-54.92Zm6.31,0c0,570.7,462.63,1033.33,1033.33,1033.33S1798.66,515.78,1798.66-54.92,1336-1088.24,765.34-1088.24-268-625.61-268-54.92Zm6.3,0c0,567.21,459.82,1027,1027,1027s1027-459.82,1027-1027-459.82-1027-1027-1027S-261.69-622.12-261.69-54.92Zm6.31,0c0,563.73,457,1020.72,1020.72,1020.72s1020.71-457,1020.71-1020.72-457-1020.71-1020.71-1020.71S-255.38-618.64-255.38-54.92Zm6.3,0c0,560.25,454.17,1014.42,1014.42,1014.42S1779.75,505.33,1779.75-54.92,1325.58-1069.33,765.34-1069.33-249.08-615.16-249.08-54.92Zm6.31,0c0,556.77,451.34,1008.11,1008.11,1008.11S1773.44,501.85,1773.44-54.92,1322.1-1063,765.34-1063-242.77-611.68-242.77-54.92Zm6.31,0c0,553.28,448.52,1001.8,1001.8,1001.8s1001.8-448.52,1001.8-1001.8-448.53-1001.8-1001.8-1001.8S-236.46-608.19-236.46-54.92Zm6.3,0c0,549.8,445.7,995.5,995.5,995.5s995.49-445.7,995.49-995.5-445.7-995.49-995.49-995.49S-230.16-604.71-230.16-54.92Zm6.31,0c0,546.32,442.87,989.19,989.19,989.19S1754.52,491.4,1754.52-54.92,1311.65-1044.1,765.34-1044.1-223.85-601.23-223.85-54.92Zm6.3,0C-217.55,487.92,222.5,928,765.34,928s982.88-440,982.88-982.89-440-982.88-982.88-982.88S-217.55-597.75-217.55-54.92Zm6.31,0c0,539.35,437.23,976.58,976.58,976.58s976.57-437.23,976.57-976.58-437.23-976.57-976.57-976.57S-211.24-594.26-211.24-54.92Zm6.3,0c0,535.87,434.41,970.28,970.28,970.28S1735.61,481,1735.61-54.92s-434.41-970.27-970.27-970.27S-204.94-590.78-204.94-54.92Zm6.31,0c0,532.39,431.58,964,964,964s964-431.58,964-964-431.58-964-964-964S-198.63-587.3-198.63-54.92Zm6.31,0c0,528.91,428.75,957.66,957.66,957.66S1723,474,1723-54.92s-428.75-957.65-957.65-957.65S-192.32-583.82-192.32-54.92Zm6.3,0c0,525.42,425.94,951.36,951.36,951.36S1716.69,470.5,1716.69-54.92s-425.94-951.35-951.35-951.35S-186-580.33-186-54.92Zm6.31,0c0,521.94,423.11,945.05,945.05,945.05s945-423.11,945-945-423.11-945-945-945S-179.71-576.85-179.71-54.92Zm6.3,0c0,518.46,420.29,938.75,938.75,938.75s938.74-420.29,938.74-938.75S1283.79-993.66,765.34-993.66-173.41-573.37-173.41-54.92Zm6.31,0c0,515,417.47,932.44,932.44,932.44s932.43-417.47,932.43-932.44S1280.31-987.35,765.34-987.35-167.1-569.89-167.1-54.92Zm6.31,0c0,511.49,414.64,926.13,926.13,926.13s926.13-414.64,926.13-926.13S1276.82-981,765.34-981-160.79-566.4-160.79-54.92Zm6.3,0c0,508,411.82,919.83,919.83,919.83s919.82-411.82,919.82-919.83S1273.34-974.74,765.34-974.74-154.49-562.92-154.49-54.92Zm6.31,0c0,504.53,409,913.52,913.52,913.52s913.51-409,913.51-913.52-409-913.51-913.51-913.51S-148.18-559.44-148.18-54.92Zm6.3,0c0,501,406.18,907.22,907.22,907.22s907.21-406.18,907.21-907.22S1266.38-962.13,765.34-962.13-141.88-556-141.88-54.92Zm6.31,0C-135.57,442.64,267.78,846,765.34,846s900.9-403.35,900.9-900.91-403.35-900.9-900.9-900.9S-135.57-552.47-135.57-54.92Zm6.3,0c0,494.08,400.53,894.61,894.61,894.61s894.6-400.53,894.6-894.61-400.53-894.6-894.6-894.6S-129.27-549-129.27-54.92Zm6.31,0c0,490.6,397.7,888.3,888.3,888.3s888.29-397.7,888.29-888.3-397.7-888.29-888.29-888.29S-123-545.51-123-54.92Zm6.31,0c0,487.11,394.88,882,882,882s882-394.88,882-882-394.88-882-882-882S-116.65-542-116.65-54.92Zm6.3,0c0,483.63,392.06,875.69,875.69,875.69S1641,428.71,1641-54.92,1249-930.6,765.34-930.6-110.35-538.54-110.35-54.92Zm6.31,0c0,480.15,389.23,869.38,869.38,869.38s869.37-389.23,869.37-869.38S1245.48-924.29,765.34-924.29-104-535.06-104-54.92Zm6.3,0c0,476.67,386.41,863.08,863.08,863.08s863.07-386.41,863.07-863.08S1242-918,765.34-918-97.74-531.58-97.74-54.92Zm6.31,0c0,473.18,383.59,856.77,856.77,856.77S1622.1,418.26,1622.1-54.92,1238.51-911.68,765.34-911.68-91.43-528.09-91.43-54.92Zm6.3,0c0,469.7,380.77,850.46,850.47,850.46S1615.8,414.78,1615.8-54.92,1235-905.38,765.34-905.38-85.13-524.61-85.13-54.92Zm6.31,0c0,466.22,377.94,844.16,844.16,844.16S1609.49,411.3,1609.49-54.92,1231.55-899.07,765.34-899.07-78.82-521.13-78.82-54.92Zm6.31,0c0,462.74,375.11,837.85,837.85,837.85s837.84-375.11,837.84-837.85S1228.07-892.76,765.34-892.76-72.51-517.65-72.51-54.92Zm6.3,0c0,459.25,372.3,831.55,831.55,831.55s831.54-372.3,831.54-831.55-372.3-831.54-831.54-831.54S-66.21-514.16-66.21-54.92Zm6.31,0c0,455.77,369.47,825.24,825.24,825.24s825.23-369.47,825.23-825.24S1221.1-880.15,765.34-880.15-59.9-510.68-59.9-54.92Zm6.3,0C-53.6,397.37,313.05,764,765.34,764s818.93-366.65,818.93-818.94S1217.62-873.85,765.34-873.85-53.6-507.2-53.6-54.92Zm6.31,0c0,448.81,363.82,812.63,812.63,812.63S1578,393.89,1578-54.92,1214.14-867.54,765.34-867.54-47.29-503.72-47.29-54.92Zm6.31,0C-41,390.4,320,751.4,765.34,751.4s806.31-361,806.31-806.32-361-806.32-806.31-806.32S-41-500.23-41-54.92Zm6.3,0c0,441.84,358.18,800,800,800s800-358.18,800-800-358.18-800-800-800S-34.68-496.75-34.68-54.92Zm6.31,0c0,438.36,355.35,793.71,793.71,793.71S1559,383.44,1559-54.92s-355.35-793.7-793.7-793.7S-28.37-493.27-28.37-54.92Zm6.3,0c0,434.87,352.54,787.41,787.41,787.41S1552.74,380,1552.74-54.92s-352.53-787.4-787.4-787.4S-22.07-489.79-22.07-54.92Zm6.31,0c0,431.39,349.71,781.1,781.1,781.1s781.09-349.71,781.09-781.1S1196.72-836,765.34-836-15.76-486.3-15.76-54.92Zm6.3,0c0,427.91,346.89,774.8,774.8,774.8S1540.13,373,1540.13-54.92,1193.24-829.71,765.34-829.71-9.46-482.82-9.46-54.92Zm6.31,0c0,424.43,344.06,768.49,768.49,768.49s768.48-344.06,768.48-768.49S1189.76-823.4,765.34-823.4-3.15-479.34-3.15-54.92Zm6.31,0C3.16,366,344.4,707.26,765.34,707.26S1527.51,366,1527.51-54.92,1186.28-817.09,765.34-817.09,3.16-475.86,3.16-54.92Zm6.3,0C9.46,362.54,347.88,701,765.34,701s755.87-338.42,755.87-755.88S1182.79-810.79,765.34-810.79,9.46-472.37,9.46-54.92Zm6.31,0c0,414,335.59,749.57,749.57,749.57S1514.9,359.06,1514.9-54.92,1179.31-804.48,765.34-804.48,15.77-468.89,15.77-54.92Zm6.3,0c0,410.5,332.77,743.27,743.27,743.27S1508.6,355.58,1508.6-54.92,1175.83-798.18,765.34-798.18,22.07-465.41,22.07-54.92Zm6.31,0c0,407,330,737,737,737s736.95-329.95,736.95-737-330-736.95-736.95-736.95S28.38-461.92,28.38-54.92Zm6.31,0c0,403.53,327.12,730.65,730.65,730.65S1496,348.61,1496-54.92,1168.86-785.57,765.34-785.57,34.69-458.44,34.69-54.92Zm6.3,0c0,400.05,324.3,724.35,724.35,724.35s724.34-324.3,724.34-724.35-324.3-724.34-724.34-724.34S41-455,41-54.92Zm6.31,0c0,396.57,321.47,718,718,718s718-321.47,718-718-321.47-718-718-718S47.3-451.48,47.3-54.92Zm6.3,0c0,393.08,318.66,711.74,711.74,711.74s711.73-318.66,711.73-711.74S1158.41-766.65,765.34-766.65,53.6-448,53.6-54.92Zm6.31,0c0,389.6,315.83,705.43,705.43,705.43s705.42-315.83,705.42-705.43S1154.93-760.34,765.34-760.34,59.91-444.51,59.91-54.92Zm6.3,0c0,386.12,313,699.13,699.13,699.13s699.12-313,699.12-699.13S1151.45-754,765.34-754,66.21-441,66.21-54.92Zm6.31,0c0,382.64,310.18,692.82,692.82,692.82s692.81-310.18,692.81-692.82S1148-747.73,765.34-747.73,72.52-437.55,72.52-54.92Zm6.31,0c0,379.15,307.36,686.51,686.51,686.51s686.5-307.36,686.5-686.51-307.36-686.5-686.5-686.5S78.83-434.06,78.83-54.92Zm6.3,0c0,375.67,304.54,680.21,680.21,680.21s680.2-304.54,680.2-680.21S1141-735.12,765.34-735.12,85.13-430.58,85.13-54.92Zm6.31,0c0,372.19,301.71,673.9,673.9,673.9s673.89-301.71,673.89-673.9S1137.52-728.81,765.34-728.81,91.44-427.1,91.44-54.92Zm6.3,0c0,368.71,298.89,667.6,667.6,667.6s667.59-298.89,667.59-667.6S1134-722.51,765.34-722.51,97.74-423.62,97.74-54.92Zm6.31,0c0,365.22,296.07,661.29,661.29,661.29S1426.62,310.3,1426.62-54.92,1130.55-716.2,765.34-716.2,104.05-420.13,104.05-54.92Zm6.31,0c0,361.74,293.24,655,655,655s655-293.24,655-655-293.25-655-655-655S110.36-416.65,110.36-54.92Zm6.3,0c0,358.26,290.42,648.68,648.68,648.68S1414,303.34,1414-54.92,1123.59-703.59,765.34-703.59,116.66-413.17,116.66-54.92Zm6.31,0c0,354.77,287.6,642.37,642.37,642.37S1407.7,299.85,1407.7-54.92,1120.11-697.28,765.34-697.28,123-409.69,123-54.92Zm6.3,0c0,351.29,284.78,636.07,636.07,636.07S1401.4,296.37,1401.4-54.92,1116.62-691,765.34-691,129.27-406.2,129.27-54.92Zm6.31,0c0,347.81,281.95,629.76,629.76,629.76s629.75-282,629.75-629.76S1113.14-684.67,765.34-684.67,135.58-402.72,135.58-54.92Zm6.3,0c0,344.33,279.13,623.46,623.46,623.46s623.45-279.13,623.45-623.46S1109.66-678.37,765.34-678.37,141.88-399.24,141.88-54.92Zm6.31,0c0,340.84,276.31,617.15,617.15,617.15s617.14-276.31,617.14-617.15-276.3-617.14-617.14-617.14S148.19-395.76,148.19-54.92Zm6.31,0c0,337.36,273.48,610.84,610.84,610.84s610.83-273.48,610.83-610.84S1102.69-665.75,765.34-665.75,154.5-392.27,154.5-54.92Zm6.3,0c0,333.88,270.66,604.54,604.54,604.54S1369.87,279,1369.87-54.92,1099.21-659.45,765.34-659.45,160.8-388.79,160.8-54.92Zm6.31,0c0,330.4,267.83,598.23,598.23,598.23s598.22-267.83,598.22-598.23S1095.73-653.14,765.34-653.14,167.11-385.31,167.11-54.92Zm6.3,0C173.41,272,438.43,537,765.34,537s591.92-265,591.92-591.93-265-591.92-591.92-591.92S173.41-381.82,173.41-54.92Zm6.31,0c0,323.43,262.19,585.62,585.62,585.62S1351,268.51,1351-54.92,1088.76-640.53,765.34-640.53,179.72-378.34,179.72-54.92Zm6.31,0c0,320,259.36,579.31,579.31,579.31S1344.65,265,1344.65-54.92,1085.28-634.23,765.34-634.23,186-374.86,186-54.92Zm6.3,0c0,316.47,256.54,573,573,573s573-256.54,573-573-256.54-573-573-573S192.33-371.38,192.33-54.92Zm6.31,0c0,313,253.72,566.7,566.7,566.7S1332,258.06,1332-54.92,1078.31-621.61,765.34-621.61,198.64-367.89,198.64-54.92Zm6.3,0c0,309.5,250.9,560.4,560.4,560.4s560.39-250.9,560.39-560.4-250.9-560.39-560.39-560.39S204.94-364.41,204.94-54.92Zm6.31,0c0,306,248.07,554.09,554.09,554.09S1319.42,251.1,1319.42-54.92,1071.35-609,765.34-609,211.25-360.93,211.25-54.92Zm6.3,0c0,302.54,245.25,547.79,547.79,547.79s547.78-245.25,547.78-547.79S1067.87-602.7,765.34-602.7,217.55-357.45,217.55-54.92Zm6.31,0c0,299.05,242.43,541.48,541.48,541.48s541.47-242.43,541.47-541.48S1064.38-596.39,765.34-596.39,223.86-354,223.86-54.92Zm6.31,0c0,295.57,239.6,535.17,535.17,535.17S1300.5,240.65,1300.5-54.92,1060.9-590.08,765.34-590.08,230.17-350.48,230.17-54.92Zm6.3,0C236.47,237.17,473.25,474,765.34,474S1294.2,237.17,1294.2-54.92,1057.42-583.78,765.34-583.78,236.47-347,236.47-54.92Zm6.31,0c0,288.61,234,522.56,522.56,522.56s522.55-233.95,522.55-522.56-234-522.55-522.55-522.55S242.78-343.52,242.78-54.92Zm6.3,0c0,285.12,231.14,516.26,516.26,516.26S1281.59,230.2,1281.59-54.92,1050.45-571.17,765.34-571.17,249.08-340,249.08-54.92Zm6.31,0c0,281.64,228.31,510,510,510s509.94-228.31,509.94-509.95S1047-564.86,765.34-564.86,255.39-336.55,255.39-54.92Zm6.31,0c0,278.16,225.48,503.64,503.64,503.64S1269,223.24,1269-54.92,1043.49-558.56,765.34-558.56,261.7-333.07,261.7-54.92Zm6.3,0c0,274.67,222.67,497.34,497.34,497.34s497.33-222.67,497.33-497.34S1040-552.25,765.34-552.25,268-329.59,268-54.92Zm6.31,0c0,271.19,219.84,491,491,491s491-219.84,491-491-219.84-491-491-491S274.31-326.1,274.31-54.92Zm6.3,0c0,267.71,217,484.73,484.73,484.73s484.72-217,484.72-484.73S1033-539.64,765.34-539.64,280.61-322.62,280.61-54.92Zm6.31,0c0,264.23,214.19,478.42,478.42,478.42s478.41-214.19,478.41-478.42S1029.56-533.33,765.34-533.33,286.92-319.14,286.92-54.92Zm6.3,0c0,260.74,211.38,472.12,472.12,472.12s472.11-211.38,472.11-472.12S1026.08-527,765.34-527,293.22-315.66,293.22-54.92Zm6.31,0c0,257.26,208.55,465.81,465.81,465.81s465.8-208.55,465.8-465.81-208.55-465.8-465.8-465.8S299.53-312.17,299.53-54.92Zm6.31,0c0,253.78,205.72,459.5,459.5,459.5s459.49-205.72,459.49-459.5S1019.11-514.41,765.34-514.41,305.84-308.69,305.84-54.92Zm6.3,0c0,250.3,202.9,453.2,453.2,453.2s453.19-202.9,453.19-453.2-202.9-453.19-453.19-453.19S312.14-305.21,312.14-54.92Zm6.31,0C318.45,191.89,518.53,392,765.34,392s446.88-200.08,446.88-446.89S1012.14-501.8,765.34-501.8,318.45-301.72,318.45-54.92Zm6.3,0c0,243.33,197.26,440.59,440.59,440.59s440.58-197.26,440.58-440.59S1008.66-495.5,765.34-495.5,324.75-298.24,324.75-54.92Zm6.31,0c0,239.85,194.43,434.28,434.28,434.28s434.27-194.43,434.27-434.28S1005.18-489.19,765.34-489.19,331.06-294.76,331.06-54.92Zm6.3,0c0,236.37,191.61,428,428,428s428-191.6,428-428-191.61-428-428-428S337.36-291.28,337.36-54.92Zm6.31,0c0,232.88,188.79,421.67,421.67,421.67S1187,178,1187-54.92,998.21-476.58,765.34-476.58,343.67-287.79,343.67-54.92Zm6.31,0c0,229.4,186,415.36,415.36,415.36s415.35-186,415.35-415.36-186-415.35-415.35-415.35S350-284.31,350-54.92Zm6.3,0c0,225.92,183.14,409.06,409.06,409.06S1174.39,171,1174.39-54.92,991.25-464,765.34-464,356.28-280.83,356.28-54.92Zm6.31,0c0,222.44,180.31,402.75,402.75,402.75s402.74-180.31,402.74-402.75S987.77-457.66,765.34-457.66,362.59-277.35,362.59-54.92Zm6.3,0c0,219,177.5,396.45,396.45,396.45S1161.78,164,1161.78-54.92,984.28-451.36,765.34-451.36,368.89-273.86,368.89-54.92Zm6.31,0c0,215.47,174.67,390.14,390.14,390.14s390.13-174.67,390.13-390.14S980.8-445,765.34-445,375.2-270.38,375.2-54.92Zm6.31,0c0,212,171.84,383.83,383.83,383.83s383.82-171.84,383.82-383.83S977.32-438.75,765.34-438.75,381.51-266.9,381.51-54.92Zm6.3,0c0,208.51,169,377.53,377.53,377.53s377.52-169,377.52-377.53-169-377.52-377.52-377.52S387.81-263.42,387.81-54.92Zm6.31,0c0,205,166.2,371.22,371.22,371.22s371.21-166.2,371.21-371.22S970.35-426.13,765.34-426.13,394.12-259.93,394.12-54.92Zm6.3,0C400.42,146.62,563.8,310,765.34,310s364.91-163.38,364.91-364.92S966.87-419.83,765.34-419.83,400.42-256.45,400.42-54.92Zm6.31,0c0,198.06,160.55,358.61,358.61,358.61s358.6-160.55,358.6-358.61-160.55-358.6-358.6-358.6S406.73-253,406.73-54.92Zm6.3,0c0,194.57,157.74,352.3,352.31,352.3s352.3-157.73,352.3-352.3-157.73-352.3-352.3-352.3S413-249.49,413-54.92Zm6.31,0c0,191.09,154.91,346,346,346s346-154.91,346-346-154.91-346-346-346S419.34-246,419.34-54.92Zm6.31,0c0,187.61,152.08,339.69,339.69,339.69S1105,132.69,1105-54.92,952.94-394.6,765.34-394.6,425.65-242.52,425.65-54.92Zm6.3,0c0,184.13,149.26,333.39,333.39,333.39s333.38-149.26,333.38-333.39S949.46-388.3,765.34-388.3,432-239,432-54.92Zm6.31,0c0,180.64,146.44,327.08,327.08,327.08s327.07-146.44,327.07-327.08S946-382,765.34-382,438.26-235.56,438.26-54.92Zm6.3,0c0,177.16,143.62,320.78,320.78,320.78s320.77-143.62,320.77-320.78S942.49-375.69,765.34-375.69,444.56-232.07,444.56-54.92Zm6.31,0c0,173.68,140.79,314.47,314.47,314.47S1079.8,118.76,1079.8-54.92,939-369.38,765.34-369.38,450.87-228.59,450.87-54.92Zm6.31,0c0,170.2,138,308.16,308.16,308.16s308.15-138,308.15-308.16-138-308.16-308.15-308.16S457.18-225.11,457.18-54.92Zm6.3,0c0,166.71,135.15,301.86,301.86,301.86s301.85-135.15,301.85-301.86S932-356.77,765.34-356.77,463.48-221.62,463.48-54.92Zm6.31,0c0,163.23,132.32,295.55,295.55,295.55s295.54-132.32,295.54-295.55S928.56-350.46,765.34-350.46,469.79-218.14,469.79-54.92Zm6.3,0c0,159.75,129.5,289.25,289.25,289.25s289.24-129.5,289.24-289.25S925.08-344.16,765.34-344.16,476.09-214.66,476.09-54.92Zm6.31,0C482.4,101.35,609.07,228,765.34,228s282.93-126.67,282.93-282.94S921.6-337.85,765.34-337.85,482.4-211.18,482.4-54.92Zm6.3,0c0,152.78,123.86,276.64,276.64,276.64S1042,97.86,1042-54.92,918.11-331.55,765.34-331.55,488.7-207.69,488.7-54.92Zm6.31,0c0,149.3,121,270.33,270.33,270.33s270.32-121,270.32-270.33-121-270.32-270.32-270.32S495-204.21,495-54.92Zm6.31,0c0,145.82,118.2,264,264,264s264-118.2,264-264-118.2-264-264-264S501.32-200.73,501.32-54.92Zm6.3,0C507.62,87.42,623,202.8,765.34,202.8S1023.05,87.42,1023.05-54.92,907.67-312.63,765.34-312.63,507.62-197.25,507.62-54.92Zm6.31,0c0,138.85,112.56,251.41,251.41,251.41s251.4-112.56,251.4-251.41-112.56-251.4-251.4-251.4S513.93-193.76,513.93-54.92Zm6.3,0c0,135.37,109.74,245.11,245.11,245.11s245.1-109.74,245.1-245.11S900.7-300,765.34-300,520.23-190.28,520.23-54.92Zm6.31,0c0,131.89,106.91,238.8,238.8,238.8S1004.13,77,1004.13-54.92,897.22-293.71,765.34-293.71,526.54-186.8,526.54-54.92Zm6.31,0c0,128.41,104.08,232.49,232.49,232.49S997.83,73.49,997.83-54.92,893.74-287.41,765.34-287.41,532.85-183.32,532.85-54.92Zm6.3,0c0,124.92,101.27,226.19,226.19,226.19S991.52,70,991.52-54.92,890.25-281.1,765.34-281.1,539.15-179.83,539.15-54.92Zm6.31,0C545.46,66.52,643.9,165,765.34,165S985.21,66.52,985.21-54.92,886.77-274.79,765.34-274.79,545.46-176.35,545.46-54.92Zm6.3,0c0,118,95.62,213.58,213.58,213.58S978.91,63,978.91-54.92,883.29-268.49,765.34-268.49,551.76-172.87,551.76-54.92Zm6.31,0c0,114.47,92.8,207.27,207.27,207.27S972.6,59.55,972.6-54.92,879.81-262.18,765.34-262.18,558.07-169.39,558.07-54.92Zm6.3,0c0,111,90,201,201,201s201-90,201-201-90-201-201-201S564.37-165.9,564.37-54.92Zm6.31,0c0,107.51,87.15,194.66,194.66,194.66S960,52.59,960-54.92,872.84-249.57,765.34-249.57,570.68-162.42,570.68-54.92Zm6.31,0c0,104,84.32,188.35,188.35,188.35S953.68,49.11,953.68-54.92,869.36-243.26,765.34-243.26,577-158.94,577-54.92Zm6.3,0A182.05,182.05,0,0,0,765.34,127.13c100.54,0,182-81.51,182-182a182,182,0,0,0-182-182C664.8-237,583.29-155.46,583.29-54.92Zm6.31,0A175.74,175.74,0,0,0,765.34,120.82,175.74,175.74,0,0,0,941.07-54.92,175.73,175.73,0,0,0,765.34-230.65,175.74,175.74,0,0,0,589.6-54.92Zm6.3,0A169.44,169.44,0,0,0,765.34,114.52,169.44,169.44,0,0,0,934.77-54.92,169.43,169.43,0,0,0,765.34-224.35,169.44,169.44,0,0,0,595.9-54.92Zm6.31,0A163.12,163.12,0,0,0,765.34,108.21,163.12,163.12,0,0,0,928.46-54.92,163.12,163.12,0,0,0,765.34-218,163.12,163.12,0,0,0,602.21-54.92Zm6.31,0A156.82,156.82,0,0,0,765.34,101.9,156.83,156.83,0,0,0,922.16-54.92,156.83,156.83,0,0,0,765.34-211.74,156.83,156.83,0,0,0,608.52-54.92Zm6.3,0A150.52,150.52,0,0,0,765.34,95.6,150.52,150.52,0,0,0,915.85-54.92,150.52,150.52,0,0,0,765.34-205.43,150.52,150.52,0,0,0,614.82-54.92Zm6.31,0A144.2,144.2,0,0,0,765.34,89.29,144.2,144.2,0,0,0,909.54-54.92a144.2,144.2,0,0,0-144.2-144.2A144.2,144.2,0,0,0,621.13-54.92Zm6.3,0A137.9,137.9,0,0,0,765.34,83,137.9,137.9,0,0,0,903.24-54.92a137.9,137.9,0,0,0-137.9-137.9A137.9,137.9,0,0,0,627.43-54.92Zm6.31,0a131.6,131.6,0,0,0,131.6,131.6A131.6,131.6,0,0,0,896.93-54.92,131.6,131.6,0,0,0,765.34-186.51,131.6,131.6,0,0,0,633.74-54.92Zm6.3,0a125.3,125.3,0,0,0,125.3,125.3A125.3,125.3,0,0,0,890.63-54.92,125.3,125.3,0,0,0,765.34-180.21,125.3,125.3,0,0,0,640-54.92Zm6.31,0a119,119,0,0,0,119,119,119,119,0,0,0,119-119,119,119,0,0,0-119-119A119,119,0,0,0,646.35-54.92Zm6.31,0A112.67,112.67,0,0,0,765.34,57.76,112.67,112.67,0,0,0,878-54.92,112.66,112.66,0,0,0,765.34-167.59,112.67,112.67,0,0,0,652.66-54.92Zm6.3,0A106.38,106.38,0,0,0,765.34,51.46,106.38,106.38,0,0,0,871.71-54.92,106.38,106.38,0,0,0,765.34-161.29,106.38,106.38,0,0,0,659-54.92Zm6.31,0A100.07,100.07,0,0,0,765.34,45.15,100.06,100.06,0,0,0,865.4-54.92,100.06,100.06,0,0,0,765.34-155,100.06,100.06,0,0,0,665.27-54.92Zm6.3,0a93.77,93.77,0,0,0,93.77,93.77A93.76,93.76,0,0,0,859.1-54.92a93.76,93.76,0,0,0-93.76-93.76A93.76,93.76,0,0,0,671.57-54.92Zm6.31,0a87.45,87.45,0,0,0,87.46,87.46,87.45,87.45,0,0,0,87.45-87.46,87.45,87.45,0,0,0-87.45-87.45A87.45,87.45,0,0,0,677.88-54.92Zm6.31,0a81.15,81.15,0,0,0,81.15,81.15,81.15,81.15,0,0,0,81.15-81.15,81.16,81.16,0,0,0-81.15-81.15A81.15,81.15,0,0,0,684.19-54.92Zm6.3,0a74.85,74.85,0,0,0,74.85,74.85,74.85,74.85,0,0,0,74.84-74.85,74.84,74.84,0,0,0-74.84-74.84A74.85,74.85,0,0,0,690.49-54.92Zm6.31,0a68.53,68.53,0,0,0,68.54,68.54,68.53,68.53,0,0,0,68.53-68.54,68.53,68.53,0,0,0-68.53-68.53A68.53,68.53,0,0,0,696.8-54.92Zm6.3,0A62.25,62.25,0,0,0,765.34,7.32a62.24,62.24,0,0,0,62.23-62.24,62.23,62.23,0,0,0-62.23-62.23A62.24,62.24,0,0,0,703.1-54.92Zm6.31,0A55.93,55.93,0,0,0,765.34,1a55.93,55.93,0,0,0,55.92-55.93,55.92,55.92,0,0,0-55.92-55.92A55.93,55.93,0,0,0,709.41-54.92Zm6.3,0A49.63,49.63,0,0,0,765.34-5.29,49.63,49.63,0,0,0,815-54.92a49.63,49.63,0,0,0-49.62-49.62A49.63,49.63,0,0,0,715.71-54.92Zm6.31,0A43.31,43.31,0,0,0,765.34-11.6a43.31,43.31,0,0,0,43.31-43.32,43.31,43.31,0,0,0-43.31-43.31A43.31,43.31,0,0,0,722-54.92Zm6.31,0a37,37,0,0,0,37,37,37,37,0,0,0,37-37,37,37,0,0,0-37-37A37,37,0,0,0,728.33-54.92Zm6.3,0a30.71,30.71,0,0,0,30.71,30.71A30.71,30.71,0,0,0,796-54.92a30.71,30.71,0,0,0-30.7-30.7A30.71,30.71,0,0,0,734.63-54.92Zm6.31,0a24.39,24.39,0,0,0,24.4,24.4,24.39,24.39,0,0,0,24.39-24.4,24.39,24.39,0,0,0-24.39-24.39A24.39,24.39,0,0,0,740.94-54.92Z"/></g></g></g></g></g></g></svg>