<svg id="Layer_1" data-name="Layer 1" xmlns="http://www.w3.org/2000/svg" viewBox="0 0 300 250"><defs><style>.cls-1{fill:#d4ac76;}</style></defs><title>text</title><path class="cls-1" d="M100.56,36.71A8,8,0,1,1,86.85,31a8,8,0,0,1,13.71,5.67ZM88.89,40.4a4.86,4.86,0,0,0,3.63,1.53,4.92,4.92,0,0,0,3.64-1.53,5.31,5.31,0,0,0,0-7.4,4.92,4.92,0,0,0-3.64-1.53A4.86,4.86,0,0,0,88.89,33a5.34,5.34,0,0,0,0,7.4Zm2.28-13a1.26,1.26,0,0,1-.94.41,1.28,1.28,0,0,1-1-.41,1.37,1.37,0,0,1-.39-1,1.34,1.34,0,0,1,.38-1,1.36,1.36,0,0,1,1-.4,1.24,1.24,0,0,1,.93.4,1.36,1.36,0,0,1,.4,1A1.37,1.37,0,0,1,91.17,27.4Zm4.6,0a1.42,1.42,0,0,1-1,.41,1.44,1.44,0,0,1-1-.41,1.32,1.32,0,0,1-.42-1,1.3,1.3,0,0,1,.42-1,1.43,1.43,0,0,1,1-.4,1.41,1.41,0,0,1,1,.4,1.31,1.31,0,0,1,.43,1A1.33,1.33,0,0,1,95.77,27.4Z"/><path class="cls-1" d="M105.5,44.45V29h5.55a5.28,5.28,0,0,1,5.37,5.34,4.9,4.9,0,0,1-1.57,3.72A5.39,5.39,0,0,1,111,39.53h-2.6v4.92Zm5.3-12.68h-2.4V37h2.44a2.74,2.74,0,0,0,1.94-.69,2.42,2.42,0,0,0,.74-1.85,2.55,2.55,0,0,0-.76-1.9A2.71,2.71,0,0,0,110.8,31.77Z"/><path class="cls-1" d="M121.18,44.45V29h5.55a5.28,5.28,0,0,1,5.37,5.34,4.9,4.9,0,0,1-1.57,3.72,5.39,5.39,0,0,1-3.85,1.48h-2.6v4.92Zm5.3-12.68h-2.4V37h2.44a2.74,2.74,0,0,0,1.94-.69,2.42,2.42,0,0,0,.74-1.85,2.55,2.55,0,0,0-.76-1.9A2.71,2.71,0,0,0,126.48,31.77Z"/><path class="cls-1" d="M145.48,37.91h-5.72v4H146v2.58h-9.18V29h9v2.58h-6.1v3.76h5.72Z"/><path class="cls-1" d="M149.86,31.77V29H162.6v2.78h-4.92V44.45h-2.9V31.77Z"/><path class="cls-1" d="M175.66,44.45V29h2.68V35.8L184.26,29h3.58l-5.46,6.17L188,44.45h-3.34l-4.22-7.06-2.06,2.34v4.72Z"/><path class="cls-1" d="M206.58,36.71A8,8,0,1,1,192.87,31a8,8,0,0,1,13.71,5.67ZM194.91,40.4a4.86,4.86,0,0,0,3.63,1.53,4.92,4.92,0,0,0,3.64-1.53,5.31,5.31,0,0,0,0-7.4,4.92,4.92,0,0,0-3.64-1.53A4.86,4.86,0,0,0,194.91,33a5.34,5.34,0,0,0,0,7.4Zm2.28-13a1.26,1.26,0,0,1-.94.41,1.28,1.28,0,0,1-1-.41,1.37,1.37,0,0,1-.39-1A1.33,1.33,0,0,1,196.25,25a1.24,1.24,0,0,1,.93.4,1.36,1.36,0,0,1,.4,1A1.37,1.37,0,0,1,197.19,27.4Zm4.6,0a1.42,1.42,0,0,1-1,.41,1.44,1.44,0,0,1-1-.41,1.32,1.32,0,0,1-.42-1,1.3,1.3,0,0,1,.42-1,1.43,1.43,0,0,1,1-.4,1.41,1.41,0,0,1,1,.4,1.31,1.31,0,0,1,.43,1A1.33,1.33,0,0,1,201.79,27.4Z"/><path class="cls-1" d="M211.52,44.45V29h5.55a5.28,5.28,0,0,1,5.37,5.34,4.9,4.9,0,0,1-1.57,3.72A5.39,5.39,0,0,1,217,39.53h-2.6v4.92Zm5.3-12.68h-2.4V37h2.44a2.74,2.74,0,0,0,1.94-.69,2.42,2.42,0,0,0,.74-1.85,2.55,2.55,0,0,0-.76-1.9A2.71,2.71,0,0,0,216.82,31.77Z"/><path class="cls-1" d="M72.48,68.45V53H78a5.28,5.28,0,0,1,5.37,5.34,4.9,4.9,0,0,1-1.57,3.72A5.39,5.39,0,0,1,78,63.53h-2.6v4.92Zm5.3-12.68h-2.4V61h2.44a2.74,2.74,0,0,0,1.94-.69,2.42,2.42,0,0,0,.74-1.85,2.55,2.55,0,0,0-.76-1.9A2.71,2.71,0,0,0,77.78,55.77Z"/><path class="cls-1" d="M88.16,68.45V53h6a5.23,5.23,0,0,1,3.72,1.4,4.83,4.83,0,0,1,1.49,3.67,4.63,4.63,0,0,1-1.11,3.13,5,5,0,0,1-2.89,1.65l4.16,5.61H96.32l-4-5.52H91.06v5.52Zm5.6-12.88h-2.7v5h2.7a2.85,2.85,0,0,0,2-.69,2.29,2.29,0,0,0,.75-1.78,2.44,2.44,0,0,0-.77-1.83A2.78,2.78,0,0,0,93.76,55.57Z"/><path class="cls-1" d="M104.44,68.45V53h2.9V68.45Z"/><path class="cls-1" d="M117.32,68.65a7.34,7.34,0,0,1-2.91-.61,7.77,7.77,0,0,1-2.51-1.69l1.84-2.2a5.65,5.65,0,0,0,1.71,1.38,4.35,4.35,0,0,0,2,.54,2.53,2.53,0,0,0,1.65-.53,1.67,1.67,0,0,0,.65-1.33,2.31,2.31,0,0,0-1.7-2.15l-1.72-.69a6.54,6.54,0,0,1-2.57-1.71A3.88,3.88,0,0,1,113,57a4,4,0,0,1,1.31-2.94,4.46,4.46,0,0,1,3.27-1.29,6.67,6.67,0,0,1,4.77,1.77l-1.71,2.15a4,4,0,0,0-3.06-1.34,2.09,2.09,0,0,0-1.38.44,1.38,1.38,0,0,0-.52,1.09A1.42,1.42,0,0,0,116,58a4.07,4.07,0,0,0,1.33.8l1.8.72c2.3.92,3.46,2.41,3.51,4.47a4.34,4.34,0,0,1-1.46,3.38A5.62,5.62,0,0,1,117.32,68.65Z"/><path class="cls-1" d="M137.38,62V59.41h5.54l0,1.32a8,8,0,0,1-1.13,4.1,7.77,7.77,0,0,1-2.93,2.85,8.05,8.05,0,0,1-3.94,1A8,8,0,0,1,129.2,55a7.81,7.81,0,0,1,5.74-2.35,7.63,7.63,0,0,1,5.76,2.5l-2,2a5,5,0,0,0-3.8-1.67,4.9,4.9,0,0,0-3.7,1.51,5.47,5.47,0,0,0,0,7.45,4.73,4.73,0,0,0,3.51,1.52,5.53,5.53,0,0,0,3.44-1.07A4.94,4.94,0,0,0,140,62Z"/><path class="cls-1" d="M145.54,68.45l6-15.46h2.62l5.94,15.46h-3l-.82-2.14h-6.92l-.82,2.14Zm7.27-11.13-2.47,6.41h4.93Z"/><path class="cls-1" d="M164.18,68.45V53h6a5.23,5.23,0,0,1,3.72,1.4,4.83,4.83,0,0,1,1.49,3.67,4.63,4.63,0,0,1-1.11,3.13,5,5,0,0,1-2.89,1.65l4.16,5.61h-3.26l-4-5.52h-1.24v5.52Zm5.6-12.88h-2.7v5h2.7a2.85,2.85,0,0,0,2-.69,2.29,2.29,0,0,0,.75-1.78,2.44,2.44,0,0,0-.77-1.83A2.78,2.78,0,0,0,169.78,55.57Z"/><path class="cls-1" d="M178.74,68.45l6-15.46h2.62l5.94,15.46h-3l-.82-2.14h-6.92l-.82,2.14ZM186,57.32l-2.47,6.41h4.93Z"/><path class="cls-1" d="M197.38,68.45V53h2L207,62.71V53h2.9V68.45H208l-7.7-9.84v9.84Z"/><path class="cls-1" d="M214.16,55.77V53H226.9v2.78H222V68.45h-2.9V55.77Z"/><path class="cls-1" d="M231.1,68.45V53H234V68.45Z"/><path class="cls-1" d="M82.5,92.45V77h5.08A4.68,4.68,0,0,1,91,78.28a4.29,4.29,0,0,1,1.33,3.19,3.64,3.64,0,0,1-1.74,3.11A4.29,4.29,0,0,1,92.28,86a3.34,3.34,0,0,1,.64,2,4.21,4.21,0,0,1-1.36,3.27,4.84,4.84,0,0,1-3.41,1.25Zm4.75-12.88H85.18v3.88h2.31A2.1,2.1,0,0,0,89,82.88a1.89,1.89,0,0,0,.6-1.43A1.66,1.66,0,0,0,89,80.08,2.68,2.68,0,0,0,87.25,79.57Zm.44,6.2H85.18v4.1h2.45a2.47,2.47,0,0,0,1.74-.58,1.94,1.94,0,0,0,.65-1.5,1.88,1.88,0,0,0-.61-1.47A2.48,2.48,0,0,0,87.69,85.77Z"/><path class="cls-1" d="M106.68,85.91H101v4h6.28v2.58H98.06V77h9v2.58H101v3.76h5.72Z"/><path class="cls-1" d="M111.06,79.77V77H123.8v2.78h-4.92V92.45H116V79.77Z"/><path class="cls-1" d="M124.84,92.45l6-15.46h2.62l5.94,15.46h-3l-.82-2.14h-6.92l-.82,2.14Zm7.27-11.13-2.47,6.41h4.93Z"/><path class="cls-1" d="M143.48,92.45V77h2.9V89.67h5.68v2.78Z"/><path class="cls-1" d="M155.24,92.45l6-15.46h2.62l5.94,15.46h-3L166,90.31H159l-.82,2.14Zm7.27-11.13L160,87.73H165Z"/><path class="cls-1" d="M186.78,92.65a7.34,7.34,0,0,1-2.91-.61,7.77,7.77,0,0,1-2.51-1.69l1.84-2.2a5.65,5.65,0,0,0,1.71,1.38,4.35,4.35,0,0,0,2,.54,2.53,2.53,0,0,0,1.65-.53,1.67,1.67,0,0,0,.65-1.33,2.31,2.31,0,0,0-1.7-2.15l-1.72-.69a6.54,6.54,0,0,1-2.57-1.71,3.88,3.88,0,0,1-.83-2.62,4,4,0,0,1,1.31-2.94A4.46,4.46,0,0,1,187,76.81a6.67,6.67,0,0,1,4.77,1.77l-1.71,2.15A4,4,0,0,0,187,79.39a2.09,2.09,0,0,0-1.38.44,1.38,1.38,0,0,0-.52,1.09,1.42,1.42,0,0,0,.4,1.06,4.07,4.07,0,0,0,1.33.8l1.8.72c2.3.92,3.46,2.41,3.51,4.47a4.34,4.34,0,0,1-1.46,3.38A5.62,5.62,0,0,1,186.78,92.65Z"/><path class="cls-1" d="M205.68,85.91H200v4h6.28v2.58h-9.18V77h9v2.58H200v3.76h5.72Z"/><path class="cls-1" d="M211.44,92.45V77h2l7.61,9.72V77H224V92.45H222l-7.7-9.84v9.84Z"/></svg>