<svg id="Layer_1" data-name="Layer 1" xmlns="http://www.w3.org/2000/svg" viewBox="0 0 300 250"><defs><style>.cls-1{fill:#d4ac76;}</style></defs><title>text</title><path class="cls-1" d="M93.2,104.6H89.55v2.71h3.91v1.18H88.3V99.61h5.08v1.18H89.55v2.62H93.2Z"/><path class="cls-1" d="M95.6,100.79V99.61h7.2v1.18h-3v7.71H98.57v-7.71Z"/><path class="cls-1" d="M104.55,100.79V99.61h7.2v1.18h-3v7.71h-1.24v-7.71Z"/><path class="cls-1" d="M124.83,108.5v-3.85H120.5v3.85h-1.24V99.61h1.24v3.85h4.32V99.61h1.24v8.89Z"/><path class="cls-1" d="M132.8,108.65a3.1,3.1,0,0,1-2.32-.93,3.22,3.22,0,0,1-.91-2.35V99.61h1.24v5.69a2.3,2.3,0,0,0,.53,1.55,1.82,1.82,0,0,0,1.45.61,1.87,1.87,0,0,0,1.47-.6,2.25,2.25,0,0,0,.54-1.55v-5.7h1.24v5.76a3.23,3.23,0,0,1-.9,2.35A3.12,3.12,0,0,1,132.8,108.65Z"/><path class="cls-1" d="M141.9,108.62a4.15,4.15,0,0,1-1.66-.36,4.37,4.37,0,0,1-1.41-1l.87-1a3.38,3.38,0,0,0,1,.81,2.62,2.62,0,0,0,1.23.32,1.71,1.71,0,0,0,1.15-.38,1.19,1.19,0,0,0,.44-.95,1.55,1.55,0,0,0-1.12-1.45l-1-.42a3.67,3.67,0,0,1-1.45-1,2.1,2.1,0,0,1-.48-1.41,2.24,2.24,0,0,1,.73-1.68,2.53,2.53,0,0,1,1.81-.7,3.62,3.62,0,0,1,2.58,1l-.75,1a2.46,2.46,0,0,0-1.83-.8,1.4,1.4,0,0,0-.94.31,1,1,0,0,0-.36.82,1,1,0,0,0,.27.69,2.47,2.47,0,0,0,.9.55l1.07.43a2.52,2.52,0,0,1,1.87,2.54,2.43,2.43,0,0,1-.79,1.87A3,3,0,0,1,141.9,108.62Z"/><path class="cls-1" d="M152.7,108.5V99.61h4.85v1.18h-3.61v2.79h3.2v1.18h-3.2v3.73Z"/><path class="cls-1" d="M164.27,108.66a4.37,4.37,0,0,1-3.21-1.32,4.77,4.77,0,0,1,0-6.59,4.55,4.55,0,0,1,6.4,0,4.74,4.74,0,0,1,0,6.58A4.37,4.37,0,0,1,164.27,108.66Zm-2.33-2.18a3.22,3.22,0,0,0,4.65,0,3.55,3.55,0,0,0,0-4.86,3.19,3.19,0,0,0-4.65,0,3.56,3.56,0,0,0,0,4.86Zm1.5-7.81a.59.59,0,0,1-.44.2.57.57,0,0,1-.44-.2.75.75,0,0,1,0-1,.57.57,0,0,1,.44-.2.59.59,0,0,1,.44.2.73.73,0,0,1,0,1Zm2.46,0a.6.6,0,0,1-.88,0,.74.74,0,0,1,0-1,.6.6,0,0,1,.88,0,.75.75,0,0,1,0,1Z"/><path class="cls-1" d="M171.91,108.5V99.61h3.3a2.78,2.78,0,0,1,2,.77,2.91,2.91,0,0,1,.14,3.86,2.63,2.63,0,0,1-1.7.87l2.57,3.38h-1.53l-2.55-3.39h-1v3.39Zm3.13-7.71h-1.89V104H175a1.8,1.8,0,0,0,1.26-.44,1.61,1.61,0,0,0,0-2.31A1.73,1.73,0,0,0,175,100.79Z"/><path class="cls-1" d="M185,108.5l3.57-8.89h1.12l3.5,8.89h-1.37l-.54-1.37h-4.36l-.55,1.37Zm4.13-6.85-1.73,4.3h3.41Z"/><path class="cls-1" d="M195.62,108.5V99.61h1.24v7.71h3.66v1.18Z"/><path class="cls-1" d="M203.25,108.5V99.61h1.24v7.71h3.66v1.18Z"/><path class="cls-1" d="M210,108.5l3.57-8.89h1.12l3.5,8.89h-1.37l-.54-1.37h-4.36l-.55,1.37Zm4.13-6.85-1.73,4.3h3.42Z"/><path class="cls-1" d="M90.86,123.5l3.57-8.89h1.12l3.5,8.89H97.68l-.54-1.37H92.78l-.55,1.37ZM95,116.65l-1.73,4.3h3.42Z"/><path class="cls-1" d="M103.89,123.62a4.15,4.15,0,0,1-1.66-.36,4.37,4.37,0,0,1-1.41-1l.87-1a3.38,3.38,0,0,0,1,.81,2.62,2.62,0,0,0,1.23.32,1.71,1.71,0,0,0,1.15-.38,1.19,1.19,0,0,0,.44-.95,1.55,1.55,0,0,0-1.12-1.45l-1-.42a3.67,3.67,0,0,1-1.45-1,2.1,2.1,0,0,1-.48-1.41,2.24,2.24,0,0,1,.73-1.68,2.53,2.53,0,0,1,1.81-.7,3.62,3.62,0,0,1,2.58,1l-.75,1a2.46,2.46,0,0,0-1.83-.8,1.4,1.4,0,0,0-.94.31,1,1,0,0,0-.36.82,1,1,0,0,0,.27.69,2.47,2.47,0,0,0,.9.55l1.07.43a2.52,2.52,0,0,1,1.87,2.54,2.43,2.43,0,0,1-.79,1.87A3,3,0,0,1,103.89,123.62Z"/><path class="cls-1" d="M109.83,123.5v-8.89h3a2.79,2.79,0,0,1,2.06.83,2.87,2.87,0,0,1,.83,2.11,2.79,2.79,0,0,1-.85,2.08,2.87,2.87,0,0,1-2.09.83h-1.74v3Zm2.95-7.71h-1.71v3.48h1.72a1.64,1.64,0,0,0,1.72-1.72,1.72,1.72,0,0,0-.49-1.26A1.66,1.66,0,0,0,112.78,115.79Z"/><path class="cls-1" d="M123.6,119.6h-3.66v2.71h3.91v1.18H118.7v-8.89h5.08v1.18h-3.84v2.62h3.66Z"/><path class="cls-1" d="M126.93,123.5v-8.89h1.24v4.22l3.7-4.22h1.67l-3.14,3.53,3.22,5.36h-1.54l-2.59-4.34-1.32,1.49v2.85Z"/><path class="cls-1" d="M135.5,115.79v-1.18h7.2v1.18h-3v7.71h-1.24v-7.71Z"/><path class="cls-1" d="M150.07,119.6h-3.66v2.71h3.91v1.18h-5.15v-8.89h5.08v1.18h-3.84v2.62h3.66Z"/><path class="cls-1" d="M153.41,123.5v-8.89h3.3a2.78,2.78,0,0,1,2,.77,2.75,2.75,0,0,1-1.56,4.73l2.57,3.38h-1.53l-2.55-3.39h-1v3.39Zm3.13-7.71h-1.89V119h1.88a1.8,1.8,0,0,0,1.26-.44,1.61,1.61,0,0,0,0-2.31A1.73,1.73,0,0,0,156.54,115.79Z"/><path class="cls-1" d="M166.46,123.5l3.57-8.89h1.12l3.5,8.89h-1.37l-.54-1.37h-4.36l-.55,1.37Zm4.13-6.85-1.73,4.3h3.42Z"/><path class="cls-1" d="M178.9,123.5l-3.47-8.89h1.4l2.66,6.83,2.67-6.83h1.37l-3.48,8.89Z"/><path class="cls-1" d="M190.93,123.5v-8.89h2.38a4.48,4.48,0,0,1,3.11,7.63,4.34,4.34,0,0,1-3.16,1.26Zm2.43-7.71h-1.19v6.52h1.22a2.87,2.87,0,0,0,2.19-1,3.28,3.28,0,0,0,.89-2.32,3.17,3.17,0,0,0-.92-2.31A3,3,0,0,0,193.36,115.79Z"/><path class="cls-1" d="M200.77,123.5v-8.89H202v8.89Z"/><path class="cls-1" d="M211.22,119.64v-1.18h3v.62a4.58,4.58,0,0,1-4.6,4.58,4.35,4.35,0,0,1-3.24-1.33,4.8,4.8,0,0,1,0-6.56,4.35,4.35,0,0,1,3.24-1.33,4.79,4.79,0,0,1,1.87.37,4.56,4.56,0,0,1,1.52,1l-.92.94a3.15,3.15,0,0,0-2.47-1.15,3.1,3.1,0,0,0-2.36,1,3.59,3.59,0,0,0,0,4.85,3.1,3.1,0,0,0,2.36,1,3.17,3.17,0,0,0,2.13-.78,3.37,3.37,0,0,0,1.12-2.05Z"/></svg>