<svg id="Layer_1" data-name="Layer 1" xmlns="http://www.w3.org/2000/svg" viewBox="0 0 300 250"><defs><style>.cls-1{fill:#fff;}</style></defs><title>text</title><path class="cls-1" d="M50,161V145h6.33a4.79,4.79,0,0,1,3.55,1.17A3.77,3.77,0,0,1,61,148.89a3.56,3.56,0,0,1-2.83,3.61,4.26,4.26,0,0,1,2.5,1.55,4.11,4.11,0,0,1,.82,2.52,4.28,4.28,0,0,1-1.27,3.16A5.33,5.33,0,0,1,56.33,161Zm1.94-9.14h3.48a3.82,3.82,0,0,0,2.89-.83,2.81,2.81,0,0,0,.73-1.94,2.26,2.26,0,0,0-.78-1.78,3.48,3.48,0,0,0-2.33-.68h-4Zm0,7.38h4.29a3.51,3.51,0,0,0,2.42-.76,2.54,2.54,0,0,0,.86-2,3.34,3.34,0,0,0-.39-1.59A2.76,2.76,0,0,0,58,153.78a4.44,4.44,0,0,0-2.1-.4h-4Z"/><path class="cls-1" d="M66.19,161H64.35V145h1.84Z"/><path class="cls-1" d="M71.77,145v2.05h-2V145Zm-.06,4.16V161H69.87V149.16Z"/><path class="cls-1" d="M82.27,161h-.89V145h1.83v6.13a3.87,3.87,0,0,1,3.5-2.29,4.29,4.29,0,0,1,3.41,1.6,7,7,0,0,1,1.38,4.67,7.14,7.14,0,0,1-1.35,4.43,4.24,4.24,0,0,1-3.52,1.79A4.05,4.05,0,0,1,82.92,159Zm.94-4.64A3.57,3.57,0,0,0,84.34,159a3.23,3.23,0,0,0,2.09.83,2.66,2.66,0,0,0,2.27-1.22,5.69,5.69,0,0,0,.87-3.35,6.6,6.6,0,0,0-.84-3.59,2.58,2.58,0,0,0-2.31-1.31,2.92,2.92,0,0,0-2.1.93,4,4,0,0,0-1.11,2.41Z"/><path class="cls-1" d="M102.08,157.47l1.71.35a4.74,4.74,0,0,1-1.83,2.51,5.2,5.2,0,0,1-3.19,1,5,5,0,0,1-3.93-1.71,7.44,7.44,0,0,1,.06-9,5,5,0,0,1,3.91-1.74,4.71,4.71,0,0,1,3.73,1.6,7.16,7.16,0,0,1,1.45,4.81h-8.6c0,1.79.38,3,1.13,3.62a3.67,3.67,0,0,0,2.37.93A3.25,3.25,0,0,0,102.08,157.47Zm-.1-3.59a5.26,5.26,0,0,0-.33-1.77,3,3,0,0,0-1-1.32,2.81,2.81,0,0,0-1.75-.55,3.13,3.13,0,0,0-2.33,1,4.11,4.11,0,0,0-1.07,2.65Z"/><path class="cls-1" d="M105.16,157.93l1.76-.36c.39,1.49,1.63,2.23,3.71,2.23a3.53,3.53,0,0,0,1.94-.51,1.64,1.64,0,0,0,.8-1.45c0-.93-.68-1.52-2-1.77l-2.5-.47a4.66,4.66,0,0,1-2.33-1.1,2.85,2.85,0,0,1-.87-2.17,3.14,3.14,0,0,1,1.19-2.49,4.76,4.76,0,0,1,3.19-1q3.86,0,4.75,3l-1.68.36a2.9,2.9,0,0,0-3-1.85,3.36,3.36,0,0,0-1.85.46,1.46,1.46,0,0,0-.72,1.3c0,.87.61,1.42,1.84,1.65l2.31.41q3.61.66,3.62,3.51a3.11,3.11,0,0,1-1.35,2.63,5.85,5.85,0,0,1-3.58,1C107.56,161.33,105.83,160.2,105.16,157.93Z"/><path class="cls-1" d="M123.26,159.75v1.45a12.42,12.42,0,0,1-1.69.13q-3.43,0-3.43-3.59v-7.13H116v-1.45h2.1l.08-3,1.71-.17v3.14h2.65v1.45h-2.65V158a1.65,1.65,0,0,0,1.9,1.84A9.84,9.84,0,0,0,123.26,159.75Z"/><path class="cls-1" d="M133.11,165h-1.84V149.16h1.67v2.3a4,4,0,0,1,7.11-.87,8.48,8.48,0,0,1,0,9,4.15,4.15,0,0,1-3.4,1.7,3.93,3.93,0,0,1-3.51-2.12Zm0-11.63v3.34a3.52,3.52,0,0,0,1.14,2.22,3,3,0,0,0,2,.87,2.79,2.79,0,0,0,2.14-1.05,5.53,5.53,0,0,0,.93-3.64,6,6,0,0,0-.84-3.46,2.62,2.62,0,0,0-2.24-1.21,2.75,2.75,0,0,0-2,.86A4.19,4.19,0,0,0,133.11,153.37Z"/><path class="cls-1" d="M153.35,161h-1.81a18.36,18.36,0,0,1-.22-2.13,4.25,4.25,0,0,1-4.14,2.46,4.14,4.14,0,0,1-3.06-1.06,3.44,3.44,0,0,1-1.07-2.53,3.56,3.56,0,0,1,1.52-3c1-.78,2.75-1.16,5.18-1.16.33,0,.86,0,1.57.05a7.07,7.07,0,0,0-.21-2,1.82,1.82,0,0,0-.92-1,4,4,0,0,0-1.85-.37c-1.87,0-3,.71-3.26,2.13l-1.7-.29c.41-2.18,2.16-3.27,5.23-3.27a4.64,4.64,0,0,1,3.47,1.08,5.44,5.44,0,0,1,1,3.76v5A10.28,10.28,0,0,0,153.35,161Zm-2-5.92c-.75,0-1.32-.07-1.71-.07a6.61,6.61,0,0,0-3.38.72,2.28,2.28,0,0,0-1.21,2.09,2,2,0,0,0,.65,1.48,2.63,2.63,0,0,0,1.88.61,3.5,3.5,0,0,0,2.74-1.21,4.17,4.17,0,0,0,1.07-2.84C151.36,155.64,151.35,155.38,151.32,155.08Zm-.77-9.62a2,2,0,0,1-2,2,2,2,0,0,1-1.45-.6,2,2,0,0,1,0-2.86,2,2,0,0,1,1.49-.61,1.88,1.88,0,0,1,1.38.6A2,2,0,0,1,150.55,145.46Zm-1,0a1,1,0,0,0-.31-.76.93.93,0,0,0-.69-.32,1.08,1.08,0,0,0-.81.32,1,1,0,0,0-.31.73,1,1,0,0,0,.31.76,1,1,0,0,0,.77.31,1,1,0,0,0,1-1Z"/><path class="cls-1" d="M59.16,189.8H57.49v-2.26a4,4,0,0,1-3.77,2.59,3.56,3.56,0,0,1-2.84-1.2,5,5,0,0,1-1-3.4V178h1.84v7.56a3.18,3.18,0,0,0,.73,2.42,2.37,2.37,0,0,0,1.61.66,2.7,2.7,0,0,0,1.61-.5,3.82,3.82,0,0,0,1.21-1.43,4.41,4.41,0,0,0,.48-2V178h1.84Z"/><path class="cls-1" d="M72.16,189.8H70.44v-7.61a3.07,3.07,0,0,0-.71-2.3,2.45,2.45,0,0,0-1.74-.67,3,3,0,0,0-2.36,1.12,4.41,4.41,0,0,0-.95,3v6.49H62.84V178h1.71v2.18a4.25,4.25,0,0,1,3.74-2.5,3.78,3.78,0,0,1,3.53,2.22,9.43,9.43,0,0,1,.34,3.1Z"/><path class="cls-1" d="M77.74,173.8v2h-2v-2ZM77.68,178V189.8H75.84V178Z"/><path class="cls-1" d="M90,178,85.93,189.8H84L79.79,178h2l3.3,9.62L88.39,178Z"/><path class="cls-1" d="M99.61,186.27l1.71.35a4.78,4.78,0,0,1-1.83,2.51,5.21,5.21,0,0,1-3.2,1,5,5,0,0,1-3.92-1.71,7.44,7.44,0,0,1,.06-9,5,5,0,0,1,3.91-1.74,4.71,4.71,0,0,1,3.73,1.6,7.21,7.21,0,0,1,1.45,4.81h-8.6c0,1.78.37,3,1.12,3.62a3.7,3.7,0,0,0,2.38.93A3.25,3.25,0,0,0,99.61,186.27Zm-.11-3.6a5,5,0,0,0-.32-1.76,3,3,0,0,0-1-1.32A2.76,2.76,0,0,0,96.4,179a3.11,3.11,0,0,0-2.33,1A4.1,4.1,0,0,0,93,182.67Z"/><path class="cls-1" d="M106.13,189.8h-1.84V178h1.61v2.77a5.89,5.89,0,0,1,1.72-2.54,3.16,3.16,0,0,1,1.76-.58c.19,0,.43,0,.73,0v1.76h-.38a3.28,3.28,0,0,0-2.53,1.13,4.6,4.6,0,0,0-1.07,3Z"/><path class="cls-1" d="M110.74,186.73l1.76-.36c.39,1.49,1.63,2.23,3.7,2.23a3.54,3.54,0,0,0,2-.51,1.64,1.64,0,0,0,.8-1.45c0-.93-.68-1.52-2-1.77l-2.5-.47a4.66,4.66,0,0,1-2.33-1.1,2.85,2.85,0,0,1-.87-2.17,3.14,3.14,0,0,1,1.19-2.49,4.75,4.75,0,0,1,3.18-1q3.85,0,4.76,3l-1.69.36a2.88,2.88,0,0,0-3-1.85,3.36,3.36,0,0,0-1.85.46,1.46,1.46,0,0,0-.72,1.3c0,.87.61,1.42,1.84,1.65l2.31.41q3.61.66,3.62,3.51a3.14,3.14,0,0,1-1.35,2.64,5.91,5.91,0,0,1-3.58,1C113.14,190.13,111.41,189,110.74,186.73Z"/><path class="cls-1" d="M131.29,186.27l1.71.35a4.89,4.89,0,0,1-1.83,2.51,5.23,5.23,0,0,1-3.2,1,5,5,0,0,1-3.93-1.71,7.44,7.44,0,0,1,.06-9,5,5,0,0,1,3.92-1.74,4.73,4.73,0,0,1,3.73,1.6,7.26,7.26,0,0,1,1.45,4.81h-8.61c0,1.78.38,3,1.13,3.62a3.68,3.68,0,0,0,2.38.93A3.25,3.25,0,0,0,131.29,186.27Zm-.11-3.6a5.25,5.25,0,0,0-.33-1.76,3,3,0,0,0-1-1.32,2.79,2.79,0,0,0-1.75-.55,3.09,3.09,0,0,0-2.32,1,4,4,0,0,0-1.07,2.64Z"/><path class="cls-1" d="M137.8,189.8H136v-16h1.84Z"/><path class="cls-1" d="M143.32,189.8h-1.84v-16h1.84Z"/><path class="cls-1" d="M162.32,189.8h-1.67v-2.26a4,4,0,0,1-3.77,2.59,3.56,3.56,0,0,1-2.84-1.2,5,5,0,0,1-1-3.4V178h1.84v7.56a3.18,3.18,0,0,0,.73,2.42,2.37,2.37,0,0,0,1.61.66,2.7,2.7,0,0,0,1.61-.5,3.82,3.82,0,0,0,1.21-1.43,4.41,4.41,0,0,0,.48-2V178h1.84Z"/><path class="cls-1" d="M171.36,188.55V190a14.28,14.28,0,0,1-1.68.13q-3.44,0-3.44-3.59v-7.13h-2.1V178h2.1l.08-3,1.72-.17V178h2.64v1.45H168v7.43a1.64,1.64,0,0,0,1.89,1.83A9.6,9.6,0,0,0,171.36,188.55Z"/><path class="cls-1" d="M178.29,178v1.45h-2.81V189.8h-1.84V179.41h-2V178h2c0-1.89.39-3.12,1.09-3.66a4,4,0,0,1,2.56-.82,9.86,9.86,0,0,1,1.69.16v1.46a4.7,4.7,0,0,0-1.14-.15,2.53,2.53,0,0,0-1.78.54,2.64,2.64,0,0,0-.58,2V178Z"/><path class="cls-1" d="M184.27,190.13a4.49,4.49,0,0,1-3.81-1.81,7.21,7.21,0,0,1-1.36-4.48,6.5,6.5,0,0,1,1.53-4.52,5,5,0,0,1,3.82-1.68,4.66,4.66,0,0,1,3.86,1.77,6.89,6.89,0,0,1,1.42,4.44,6.64,6.64,0,0,1-1.53,4.53A5,5,0,0,1,184.27,190.13Zm.14-1.53a2.91,2.91,0,0,0,2.35-1.16,5.65,5.65,0,0,0,1-3.61,5.19,5.19,0,0,0-1-3.56,3,3,0,0,0-2.33-1.11,2.94,2.94,0,0,0-2.32,1.12,5.43,5.43,0,0,0-.95,3.54,5.68,5.68,0,0,0,.95,3.68A3,3,0,0,0,184.41,188.6Z"/><path class="cls-1" d="M194.33,189.8h-1.84V178h1.62v2.77a5.89,5.89,0,0,1,1.72-2.54,3.16,3.16,0,0,1,1.76-.58c.19,0,.43,0,.73,0v1.76h-.38a3.26,3.26,0,0,0-2.53,1.13,4.66,4.66,0,0,0-1.08,3Z"/><path class="cls-1" d="M216.26,189.8h-1.8v-7.36a7.08,7.08,0,0,0-.15-1.7,2.08,2.08,0,0,0-.77-1.05,2.21,2.21,0,0,0-1.37-.47,2.92,2.92,0,0,0-2,1,4,4,0,0,0-1,2.95v6.67h-1.78V182a2.79,2.79,0,0,0-.75-2.21,2.37,2.37,0,0,0-1.56-.64,2.63,2.63,0,0,0-2,1,3.76,3.76,0,0,0-.87,2.55v7.08H200.4V178H202v2.28c.89-1.74,2.1-2.6,3.65-2.6a3.05,3.05,0,0,1,2.17.83,3.86,3.86,0,0,1,1.15,2q1.22-2.83,3.73-2.83a3.41,3.41,0,0,1,2.12.69,3.18,3.18,0,0,1,1.18,1.59,8.65,8.65,0,0,1,.28,2.52Z"/><path class="cls-1" d="M221.84,173.8v2h-2v-2Zm-.06,4.16V189.8h-1.84V178Z"/><path class="cls-1" d="M234.77,189.8h-1.72v-7.61a3.07,3.07,0,0,0-.71-2.3,2.45,2.45,0,0,0-1.74-.67,3,3,0,0,0-2.36,1.12,4.41,4.41,0,0,0-1,3v6.49h-1.84V178h1.71v2.18a4.24,4.24,0,0,1,3.73-2.5,3.78,3.78,0,0,1,3.54,2.22,9.43,9.43,0,0,1,.34,3.1Z"/><path class="cls-1" d="M248.12,176.11v1.47a3.25,3.25,0,0,0-1.69.29,1.54,1.54,0,0,0-.57,1,4.29,4.29,0,0,1,1.14,2.86,3.69,3.69,0,0,1-1.24,2.78,4.66,4.66,0,0,1-3.32,1.16,3.88,3.88,0,0,1-.81-.07,7.22,7.22,0,0,0-.81-.13,1.48,1.48,0,0,0-.76.31,1,1,0,0,0-.45.81.88.88,0,0,0,.65.91,14.06,14.06,0,0,0,3,.27,18.11,18.11,0,0,1,3,.27,3.05,3.05,0,0,1,1.63,1,2.59,2.59,0,0,1,.67,1.82c0,2.26-2,3.38-6,3.38a7.65,7.65,0,0,1-4.12-.85,2.58,2.58,0,0,1-1.3-2.27,2.39,2.39,0,0,1,1.81-2.37,2.21,2.21,0,0,1-1.16-1.9,2.28,2.28,0,0,1,1.64-2.1,3.85,3.85,0,0,1-1.54-3.13,3.61,3.61,0,0,1,1.32-2.88,4.72,4.72,0,0,1,3.19-1.12,5.65,5.65,0,0,1,2.43.5,2.32,2.32,0,0,1,.81-1.61,3.5,3.5,0,0,1,1.94-.44Zm-7.83,13.21A1.78,1.78,0,0,0,239,191a1.55,1.55,0,0,0,1.06,1.4,6.43,6.43,0,0,0,2.71.5,8.76,8.76,0,0,0,2.78-.43c.85-.29,1.27-.77,1.27-1.45a1.16,1.16,0,0,0-.37-.9,1.88,1.88,0,0,0-1-.45c-.43-.06-1.19-.11-2.27-.14C241.86,189.45,240.91,189.4,240.29,189.32Zm2.21-5a2.6,2.6,0,0,0,1.91-.73,2.49,2.49,0,0,0,.73-1.86,2.56,2.56,0,0,0-2.62-2.66,2.76,2.76,0,0,0-1.85.69,2.79,2.79,0,0,0-.08,3.85A2.62,2.62,0,0,0,242.5,184.32Z"/></svg>