<svg id="Layer_1" data-name="Layer 1" xmlns="http://www.w3.org/2000/svg" viewBox="0 0 300 250"><defs><style>.cls-1{fill:#010121;}</style></defs><title>text</title><path class="cls-1" d="M136.15,93.73h2.14v13.9h7.92v1.88H136.15Z"/><path class="cls-1" d="M148.13,93.73h2v2.19h-2Zm0,4.32h2v11.46h-2Z"/><path class="cls-1" d="M153.4,94.79h2V98h1.83v1.58h-1.83v7.51a.79.79,0,0,0,.41.8,1.7,1.7,0,0,0,.75.12h.3l.37,0v1.54a5,5,0,0,1-.69.14c-.24,0-.5,0-.78,0a2.09,2.09,0,0,1-1.83-.69,3.06,3.06,0,0,1-.49-1.8V99.58h-1.56V98h1.56Z"/><path class="cls-1" d="M166.23,98.32A4.22,4.22,0,0,1,168,99.81a4.91,4.91,0,0,1,.77,2,12.82,12.82,0,0,1,.17,2.53h-8.36a5,5,0,0,0,.82,2.82,2.72,2.72,0,0,0,2.37,1.06,3,3,0,0,0,2.4-1,3.37,3.37,0,0,0,.71-1.35h1.9a3.88,3.88,0,0,1-.5,1.41,4.93,4.93,0,0,1-.94,1.27,4.45,4.45,0,0,1-2.17,1.16,6.21,6.21,0,0,1-1.56.17,4.8,4.8,0,0,1-3.62-1.56,6.1,6.1,0,0,1-1.49-4.38,6.65,6.65,0,0,1,1.5-4.5,4.92,4.92,0,0,1,3.91-1.73A5.2,5.2,0,0,1,166.23,98.32Zm.7,4.51a5,5,0,0,0-.55-2,2.77,2.77,0,0,0-2.63-1.4,2.89,2.89,0,0,0-2.21,1,3.66,3.66,0,0,0-.95,2.44Z"/><path class="cls-1" d="M99.5,120.89a3,3,0,0,1,2.61-1h.37l.44,0v1.77l-.43,0h-.26c-.59,0-1,.16-1.06.46a8.63,8.63,0,0,0-.18,2.33h1.93V126H101v9.93H99.08V126h-1.6v-1.52h1.6v-1.81A3.46,3.46,0,0,1,99.5,120.89Z"/><path class="cls-1" d="M113,125.55a5.8,5.8,0,0,1,1.53,4.36,7.54,7.54,0,0,1-1.34,4.59,4.86,4.86,0,0,1-4.18,1.81,4.69,4.69,0,0,1-3.74-1.6,6.4,6.4,0,0,1-1.39-4.31,6.84,6.84,0,0,1,1.47-4.61,4.86,4.86,0,0,1,3.92-1.72A5.13,5.13,0,0,1,113,125.55Zm-1.2,7.65a7.33,7.33,0,0,0,.71-3.24,5.82,5.82,0,0,0-.51-2.62,2.87,2.87,0,0,0-2.78-1.59,2.74,2.74,0,0,0-2.55,1.36,6.3,6.3,0,0,0-.8,3.26,5.53,5.53,0,0,0,.8,3.06,2.8,2.8,0,0,0,2.53,1.22A2.62,2.62,0,0,0,111.84,133.2Z"/><path class="cls-1" d="M117,124.4h1.83v2a4.28,4.28,0,0,1,1.11-1.41,2.85,2.85,0,0,1,2-.84h.18l.44,0v2a1.88,1.88,0,0,0-.31,0l-.32,0a2.81,2.81,0,0,0-2.25.94,3.31,3.31,0,0,0-.78,2.17v6.62H117Z"/><path class="cls-1" d="M126.2,124.4V132a3.16,3.16,0,0,0,.28,1.44,1.87,1.87,0,0,0,1.87,1,2.65,2.65,0,0,0,2.68-1.8,7.58,7.58,0,0,0,.38-2.66V124.4h1.94v11.51h-1.83l0-1.7a4,4,0,0,1-.91,1.11,4,4,0,0,1-2.64.9,3.38,3.38,0,0,1-3.29-1.65,4.9,4.9,0,0,1-.47-2.35V124.4Z"/><path class="cls-1" d="M136.89,121.19h2v3.21h1.83V126h-1.83v7.51a.8.8,0,0,0,.4.8,1.78,1.78,0,0,0,.76.12h.3l.37,0v1.54a5,5,0,0,1-.69.14c-.24,0-.5,0-.78,0a2.09,2.09,0,0,1-1.83-.69,3.06,3.06,0,0,1-.49-1.8V126h-1.56V124.4h1.56Z"/><path class="cls-1" d="M143.77,132.3a2.78,2.78,0,0,0,.49,1.48,3.15,3.15,0,0,0,2.59.93,3.91,3.91,0,0,0,1.93-.46,1.57,1.57,0,0,0,.83-1.45,1.23,1.23,0,0,0-.67-1.13,8,8,0,0,0-1.68-.54l-1.56-.39a7.6,7.6,0,0,1-2.2-.82,2.42,2.42,0,0,1-1.27-2.17,3.3,3.3,0,0,1,1.19-2.64,4.84,4.84,0,0,1,3.21-1,4.49,4.49,0,0,1,3.8,1.53,3.32,3.32,0,0,1,.71,2.08h-1.83a2.24,2.24,0,0,0-.47-1.19,3.12,3.12,0,0,0-2.37-.75,2.88,2.88,0,0,0-1.7.41,1.31,1.31,0,0,0-.57,1.11,1.33,1.33,0,0,0,.76,1.19,4.61,4.61,0,0,0,1.29.48l1.3.31a9.8,9.8,0,0,1,2.84,1,2.57,2.57,0,0,1,1.13,2.33,3.53,3.53,0,0,1-1.18,2.65,5.06,5.06,0,0,1-3.59,1.12,4.85,4.85,0,0,1-3.68-1.17,4.39,4.39,0,0,1-1.16-2.88Z"/><path class="cls-1" d="M153.62,120.13h2v2.19h-2Zm0,4.33h2v11.45h-2Z"/><path class="cls-1" d="M164.9,124.86A5.2,5.2,0,0,1,166,126v-1.45h1.79V135a7.73,7.73,0,0,1-.65,3.46q-1.18,2.34-4.52,2.34a5.58,5.58,0,0,1-3.12-.83,3.26,3.26,0,0,1-1.41-2.61h2a2.25,2.25,0,0,0,.56,1.2,3.5,3.5,0,0,0,4.94-.93,8.62,8.62,0,0,0,.38-3.29,3.93,3.93,0,0,1-1.39,1.31,4.69,4.69,0,0,1-2.15.43,4.61,4.61,0,0,1-3.26-1.33c-.93-.89-1.4-2.35-1.4-4.39a6.64,6.64,0,0,1,1.41-4.51,4.35,4.35,0,0,1,3.4-1.62A4.18,4.18,0,0,1,164.9,124.86Zm.24,2.08a2.81,2.81,0,0,0-2.24-1,2.74,2.74,0,0,0-2.77,1.91,7.36,7.36,0,0,0-.4,2.67,4.73,4.73,0,0,0,.79,3,2.51,2.51,0,0,0,2.11,1,3,3,0,0,0,2.91-1.88,6,6,0,0,0,.47-2.48A4.82,4.82,0,0,0,165.14,126.94Z"/><path class="cls-1" d="M170.58,120.07h1.88v5.73a4.26,4.26,0,0,1,3.44-1.7,4.5,4.5,0,0,1,3.5,1.48,6.27,6.27,0,0,1,1.34,4.35,7.51,7.51,0,0,1-1.32,4.54,4.33,4.33,0,0,1-3.68,1.8,3.78,3.78,0,0,1-2.22-.63,5.21,5.21,0,0,1-1.16-1.21v1.48h-1.78ZM178,133.32a6.14,6.14,0,0,0,.78-3.29,5.41,5.41,0,0,0-.78-3,2.58,2.58,0,0,0-2.3-1.19,3.22,3.22,0,0,0-2.32,1,4.34,4.34,0,0,0-1,3.22,7.15,7.15,0,0,0,.41,2.63,2.83,2.83,0,0,0,2.86,1.9A2.58,2.58,0,0,0,178,133.32Z"/><path class="cls-1" d="M189.14,128.94a1,1,0,0,0,.89-.55,1.68,1.68,0,0,0,.13-.75,1.58,1.58,0,0,0-.7-1.44,3.74,3.74,0,0,0-2-.45,2.53,2.53,0,0,0-2.14.83,2.73,2.73,0,0,0-.47,1.34H183a3.33,3.33,0,0,1,1.38-3,5.61,5.61,0,0,1,3.07-.84,6.25,6.25,0,0,1,3.3.78,2.62,2.62,0,0,1,1.25,2.4v6.63a.78.78,0,0,0,.13.48c.08.13.25.19.52.19l.29,0,.34-.05V136a4.46,4.46,0,0,1-.69.16,5.25,5.25,0,0,1-.64,0,1.57,1.57,0,0,1-1.45-.71,2.6,2.6,0,0,1-.33-1.06,4.92,4.92,0,0,1-1.7,1.34,5.25,5.25,0,0,1-2.44.57,3.63,3.63,0,0,1-2.62-1,3.25,3.25,0,0,1-1-2.43,3.13,3.13,0,0,1,1-2.48,4.81,4.81,0,0,1,2.62-1.08Zm-4.07,5.23a2.28,2.28,0,0,0,1.45.48,4.5,4.5,0,0,0,2-.47,2.67,2.67,0,0,0,1.61-2.57v-1.55a3.37,3.37,0,0,1-.91.38,7.34,7.34,0,0,1-1.1.21l-1.16.15a4.44,4.44,0,0,0-1.58.44,1.71,1.71,0,0,0-.9,1.61A1.58,1.58,0,0,0,185.07,134.17Z"/><path class="cls-1" d="M195.27,124.4h1.83v2a4.28,4.28,0,0,1,1.11-1.41,2.85,2.85,0,0,1,2-.84h.18l.44,0v2a1.88,1.88,0,0,0-.31,0l-.32,0a2.79,2.79,0,0,0-2.25.94,3.31,3.31,0,0,0-.78,2.17v6.62h-1.93Z"/><path class="cls-1" d="M209.64,124.72a4.22,4.22,0,0,1,1.74,1.49,4.91,4.91,0,0,1,.77,2,12.82,12.82,0,0,1,.17,2.53H204a5,5,0,0,0,.82,2.82,2.72,2.72,0,0,0,2.37,1.06,3.06,3.06,0,0,0,2.4-1,3.37,3.37,0,0,0,.71-1.35h1.9a3.88,3.88,0,0,1-.5,1.41,4.93,4.93,0,0,1-.94,1.27,4.45,4.45,0,0,1-2.17,1.16,6.21,6.21,0,0,1-1.56.17,4.8,4.8,0,0,1-3.62-1.56,6.1,6.1,0,0,1-1.49-4.38,6.65,6.65,0,0,1,1.5-4.5,4.92,4.92,0,0,1,3.91-1.73A5.07,5.07,0,0,1,209.64,124.72Zm.7,4.52a5,5,0,0,0-.55-2,2.77,2.77,0,0,0-2.63-1.4,2.89,2.89,0,0,0-2.21,1,3.62,3.62,0,0,0-.95,2.45Z"/><path class="cls-1" d="M115,150.85h1.89v1.53a4.51,4.51,0,0,1,1.27-1.21,4.08,4.08,0,0,1,2.3-.65,4.33,4.33,0,0,1,3.33,1.5,6.15,6.15,0,0,1,1.37,4.28q0,3.76-2,5.37a4.45,4.45,0,0,1-2.91,1,4,4,0,0,1-2.19-.57,5,5,0,0,1-1.15-1.1v5.87H115Zm7.27,9a5.36,5.36,0,0,0,.9-3.39,6.23,6.23,0,0,0-.4-2.36,2.93,2.93,0,0,0-5.52.11,8,8,0,0,0-.4,2.73,5.86,5.86,0,0,0,.4,2.26,2.93,2.93,0,0,0,5,.65Z"/><path class="cls-1" d="M127.4,150.8h1.83v2a4.28,4.28,0,0,1,1.11-1.41,2.85,2.85,0,0,1,2-.84h.18l.44,0v2l-.31,0h-.32a2.79,2.79,0,0,0-2.25.94,3.31,3.31,0,0,0-.78,2.17v6.62H127.4Z"/><path class="cls-1" d="M143,152a5.8,5.8,0,0,1,1.53,4.36,7.54,7.54,0,0,1-1.34,4.59,4.86,4.86,0,0,1-4.18,1.81,4.69,4.69,0,0,1-3.74-1.6,6.4,6.4,0,0,1-1.39-4.31,6.88,6.88,0,0,1,1.47-4.62,4.89,4.89,0,0,1,3.92-1.71A5.13,5.13,0,0,1,143,152Zm-1.2,7.64a7.26,7.26,0,0,0,.71-3.23,5.85,5.85,0,0,0-.51-2.62,2.87,2.87,0,0,0-2.78-1.59,2.73,2.73,0,0,0-2.55,1.36,6.33,6.33,0,0,0-.8,3.26,5.53,5.53,0,0,0,.8,3.06,2.8,2.8,0,0,0,2.53,1.22A2.63,2.63,0,0,0,141.8,159.59Z"/><path class="cls-1" d="M148.05,158.7a2.82,2.82,0,0,0,.5,1.48,3.13,3.13,0,0,0,2.58.93,3.88,3.88,0,0,0,1.93-.46,1.56,1.56,0,0,0,.84-1.45,1.25,1.25,0,0,0-.67-1.13,8,8,0,0,0-1.68-.54l-1.56-.39a7.68,7.68,0,0,1-2.21-.82,2.43,2.43,0,0,1-1.26-2.17,3.27,3.27,0,0,1,1.19-2.64,4.8,4.8,0,0,1,3.21-1,4.45,4.45,0,0,1,3.79,1.53,3.2,3.2,0,0,1,.71,2.08H153.6a2.22,2.22,0,0,0-.48-1.19,3.08,3.08,0,0,0-2.36-.75,2.86,2.86,0,0,0-1.7.41,1.29,1.29,0,0,0-.58,1.1,1.37,1.37,0,0,0,.76,1.2,4.61,4.61,0,0,0,1.29.48l1.3.31a10.17,10.17,0,0,1,2.85,1,2.62,2.62,0,0,1,1.13,2.34,3.53,3.53,0,0,1-1.18,2.65,5.11,5.11,0,0,1-3.6,1.12,4.85,4.85,0,0,1-3.68-1.17,4.44,4.44,0,0,1-1.16-2.88Z"/><path class="cls-1" d="M156.08,165.22a4,4,0,0,0,1.56-.23c.18-.13.26-.52.26-1.18v-13h1.94V164a3.47,3.47,0,0,1-.41,1.88,2.81,2.81,0,0,1-2.57,1.06h-.29l-.49-.05Zm3.76-16.46H157.9v-2.23h1.94Z"/><path class="cls-1" d="M169.9,151.12a4.35,4.35,0,0,1,1.74,1.49,5.21,5.21,0,0,1,.77,2,13.66,13.66,0,0,1,.17,2.53h-8.37A5,5,0,0,0,165,160a2.72,2.72,0,0,0,2.38,1.06,3,3,0,0,0,2.39-1,3.16,3.16,0,0,0,.71-1.34h1.91a4.07,4.07,0,0,1-.5,1.41,5.2,5.2,0,0,1-.95,1.27,4.37,4.37,0,0,1-2.16,1.16,6.35,6.35,0,0,1-1.57.17,4.81,4.81,0,0,1-3.62-1.56,6.1,6.1,0,0,1-1.48-4.38,6.64,6.64,0,0,1,1.49-4.5,4.94,4.94,0,0,1,3.91-1.73A5.11,5.11,0,0,1,169.9,151.12Zm.69,4.51a5.13,5.13,0,0,0-.54-2,2.79,2.79,0,0,0-2.63-1.4,2.92,2.92,0,0,0-2.22,1,3.66,3.66,0,0,0-.95,2.44Z"/><path class="cls-1" d="M175,146.53h1.86v9.16l5-4.89h2.47l-4.42,4.28,4.67,7.23h-2.47l-3.62-5.86L176.84,158v4.32H175Z"/><path class="cls-1" d="M186.41,147.59h2v3.21h1.84v1.58h-1.84v7.51a.79.79,0,0,0,.41.8,1.7,1.7,0,0,0,.75.12h.3l.38,0v1.54a5.42,5.42,0,0,1-.7.14c-.24,0-.5,0-.78,0a2.09,2.09,0,0,1-1.83-.69,3.06,3.06,0,0,1-.49-1.8v-7.62h-1.55V150.8h1.55Z"/><path class="cls-1" d="M193.72,147.73a5.45,5.45,0,0,1,7.08-.2,4,4,0,0,1,1.29,3.09,3.34,3.34,0,0,1-.47,1.85,14.26,14.26,0,0,1-1.92,2.08,6.23,6.23,0,0,0-1.37,1.69,5.18,5.18,0,0,0-.31,2H196.1a7,7,0,0,1,.37-2.48,6.56,6.56,0,0,1,1.62-2.15l.88-.85a3.69,3.69,0,0,0,.64-.76,2.65,2.65,0,0,0,.45-1.45,2.81,2.81,0,0,0-.64-1.83,3.18,3.18,0,0,0-4.66.56,5.18,5.18,0,0,0-.45,2.14H192.4A5.27,5.27,0,0,1,193.72,147.73Zm2.34,12.34h2.14v2.24h-2.14Z"/></svg>