<svg id="Layer_1" data-name="Layer 1" xmlns="http://www.w3.org/2000/svg" viewBox="0 0 320 160"><defs><style>.cls-1{fill:#d4ac76;}</style></defs><title>text</title><path class="cls-1" d="M169.83,47.27h-4.29v3h4.71v1.94h-6.88V40.58h6.75v1.94h-4.58v2.82h4.29Z"/><path class="cls-1" d="M173.78,52.18V40.58h3.31a5.68,5.68,0,0,1,4.11,1.66,5.58,5.58,0,0,1,1.71,4.18,5.42,5.42,0,0,1-1.73,4.14,5.92,5.92,0,0,1-4.2,1.62Zm3.33-9.66h-1.32v7.73h1.34a3.34,3.34,0,0,0,2.56-1.12,3.93,3.93,0,0,0,1-2.76,3.82,3.82,0,0,0-1-2.74A3.4,3.4,0,0,0,177.11,42.52Z"/><path class="cls-1" d="M189.28,52.33a5.56,5.56,0,0,1-2.19-.46,5.72,5.72,0,0,1-1.88-1.27l1.38-1.65a4.2,4.2,0,0,0,1.28,1,3.27,3.27,0,0,0,1.53.41,1.88,1.88,0,0,0,1.24-.4,1.24,1.24,0,0,0,.48-1,1.73,1.73,0,0,0-1.27-1.61l-1.29-.52a5,5,0,0,1-1.93-1.28,3,3,0,0,1-.62-2,3,3,0,0,1,1-2.2,3.36,3.36,0,0,1,2.46-1A5,5,0,0,1,193,41.77l-1.28,1.62a3,3,0,0,0-2.29-1,1.55,1.55,0,0,0-1,.33,1,1,0,0,0-.39.82,1.08,1.08,0,0,0,.31.79,3.08,3.08,0,0,0,1,.6l1.35.54a3.59,3.59,0,0,1,2.63,3.35,3.24,3.24,0,0,1-1.09,2.54A4.22,4.22,0,0,1,189.28,52.33Z"/><path class="cls-1" d="M203.94,47.33V45.4h4.16v1a6,6,0,0,1-.85,3.08A5.86,5.86,0,0,1,205,51.6a6,6,0,0,1-3,.76,6,6,0,1,1,0-12,5.72,5.72,0,0,1,4.32,1.87l-1.49,1.47a3.75,3.75,0,0,0-2.85-1.25,3.7,3.7,0,0,0-2.78,1.13,4.1,4.1,0,0,0,0,5.59A3.54,3.54,0,0,0,202,50.27a4.12,4.12,0,0,0,2.58-.81,3.67,3.67,0,0,0,1.36-2.14Z"/><path class="cls-1" d="M209.69,52.18l4.47-11.6h2l4.46,11.6h-2.24l-.62-1.61h-5.19l-.62,1.61Zm5.46-8.35-1.85,4.81H217Z"/><path class="cls-1" d="M221,42.67V40.58h9.56v2.09h-3.69v9.51h-2.17V42.67Z"/><path class="cls-1" d="M231,52.18l4.47-11.6h2l4.46,11.6h-2.24L239,50.57h-5.19l-.62,1.61Zm5.45-8.35-1.85,4.81h3.7Z"/><path class="cls-1" d="M244.59,52.18V40.58h1.52l5.71,7.29V40.58H254v11.6h-1.46l-5.78-7.38v7.38Z"/><path class="cls-1" d="M188.62,70.18V58.58h1.52l5.71,7.29V58.58H198V70.18h-1.46l-5.77-7.38v7.38Z"/><path class="cls-1" d="M200.89,70.18l4.47-11.59h2l4.46,11.59h-2.24l-.62-1.61h-5.19l-.62,1.61Zm4.45-12.79a.93.93,0,0,1-.71.31,1,1,0,0,1-.72-.31,1,1,0,0,1-.3-.74,1,1,0,0,1,1-1,1,1,0,0,1,.7.3,1,1,0,0,1,.3.73A1,1,0,0,1,205.34,57.39Zm1,4.44-1.86,4.81h3.7Zm2.45-4.44a1.12,1.12,0,0,1-1.54,0,1,1,0,0,1-.32-.74,1,1,0,0,1,.32-.73,1.13,1.13,0,0,1,1.54,0,1,1,0,0,1,.32.73A1,1,0,0,1,208.79,57.39Z"/><path class="cls-1" d="M214.5,70.18V58.58H219a3.91,3.91,0,0,1,2.79,1.05,3.61,3.61,0,0,1,1.12,2.75,3.48,3.48,0,0,1-.83,2.35A3.73,3.73,0,0,1,219.95,66l3.12,4.21h-2.45l-3-4.14h-.94v4.14Zm4.2-9.66h-2V64.3h2a2.15,2.15,0,0,0,1.51-.51,1.73,1.73,0,0,0,.56-1.34,1.83,1.83,0,0,0-.58-1.37A2.07,2.07,0,0,0,218.7,60.52Z"/><path class="cls-1" d="M225,70.18l4.47-11.59h2l4.46,11.59h-2.24l-.62-1.61h-5.19l-.62,1.61Zm5.45-8.35-1.85,4.81h3.7Z"/></svg>