<svg id="Layer_1" data-name="Layer 1" xmlns="http://www.w3.org/2000/svg" viewBox="0 0 320 160"><defs><style>.cls-1{fill:#d80201;}</style></defs><title>text</title><path class="cls-1" d="M140.38,67.76l-8.12-9.28v9h-2.6V53.86h1.8l8.12,9.28v-9h2.6v13.6Z"/><path class="cls-1" d="M147.38,72.14h-2.74l3.18-5.94-4.1-7.36h2.82l2.6,4.92,2.48-4.92h2.76Z"/><path class="cls-1" d="M158,60.92V67.5h-2.42V60.92h-1V58.84h1v-3H158v3h1.7v2.08Z"/><path class="cls-1" d="M163.4,60.92V67.5H161V60.92h-1V58.84h1v-3h2.42v3h1.7v2.08Z"/><path class="cls-1" d="M175.76,67.68h-1.12l-4.42-8.84h2.72l2.28,4.88,2.28-4.88h2.72Z"/><path class="cls-1" d="M182.58,56.64a1.46,1.46,0,0,1,0-2.92,1.46,1.46,0,0,1,0,2.92ZM181.36,67.5V58.84h2.42V67.5Z"/><path class="cls-1" d="M188.82,67.78a4.61,4.61,0,0,1-3.3-1.44l1.28-1.48a2.81,2.81,0,0,0,2,1,1,1,0,0,0,1.1-1c0-1.48-3.86-.74-3.86-3.66a2.82,2.82,0,0,1,3.1-2.74,4.46,4.46,0,0,1,2.82.92l-1.2,1.42a2.42,2.42,0,0,0-1.44-.58c-.42,0-.92.26-.92.74,0,1.26,4,.7,4,3.66C192.44,66.7,190.68,67.78,188.82,67.78Z"/><path class="cls-1" d="M200.08,67.5V62.7c0-1.18-.26-2.08-1.64-2.08s-1.86,1.1-1.86,2.4V67.5h-2.42V58.84h2.42V59.9a3.2,3.2,0,0,1,2.72-1.34A3,3,0,0,1,202.5,62v5.5Z"/><path class="cls-1" d="M206,56.64a1.46,1.46,0,0,1,0-2.92,1.46,1.46,0,0,1,0,2.92ZM204.78,67.5V58.84h2.42V67.5Z"/><path class="cls-1" d="M215.4,67.5V62.7c0-1.18-.26-2.08-1.64-2.08s-1.86,1.1-1.86,2.4V67.5h-2.42V58.84h2.42V59.9a3.2,3.2,0,0,1,2.72-1.34,3,3,0,0,1,3.2,3.44v5.5Z"/><path class="cls-1" d="M228.18,70.64a4.73,4.73,0,0,1-3.68,1.52c-2.22,0-4.36-1.28-4.6-3.64h2.62a1.93,1.93,0,0,0,2.06,1.58c1.52,0,2.14-1.06,2.14-2.46v-1.3a3.6,3.6,0,0,1-2.92,1.44c-2.56,0-4.12-2.06-4.12-4.5s1.6-4.72,4.24-4.72a3.24,3.24,0,0,1,2.8,1.4V58.84h2.44v8.34A4.66,4.66,0,0,1,228.18,70.64Zm-3.58-9.9A2.43,2.43,0,1,0,227,63.16,2.42,2.42,0,0,0,224.6,60.74Z"/><path class="cls-1" d="M234.24,67.78a4.61,4.61,0,0,1-3.3-1.44l1.28-1.48a2.81,2.81,0,0,0,2,1,1,1,0,0,0,1.1-1c0-1.48-3.86-.74-3.86-3.66a2.82,2.82,0,0,1,3.1-2.74,4.46,4.46,0,0,1,2.82.92l-1.2,1.42a2.42,2.42,0,0,0-1.44-.58c-.42,0-.92.26-.92.74,0,1.26,4,.7,4,3.66C237.86,66.7,236.1,67.78,234.24,67.78Z"/><path class="cls-1" d="M245.5,67.5V62.76c0-1.2-.26-2.14-1.66-2.14S242,61.78,242,63.06V67.5h-2.42v-15H242V60a3.15,3.15,0,0,1,2.72-1.4,3.31,3.31,0,0,1,2.52,1.06,3.44,3.44,0,0,1,.68,2.44V67.5Z"/><path class="cls-1" d="M254.42,67.78c-2.38,0-4.18-1.06-4.18-3.64v-5.3h2.42v4.9c0,1.18.5,2,1.76,2s1.76-.8,1.76-2v-4.9h2.44v5.3C258.62,66.72,256.8,67.78,254.42,67.78Z"/><path class="cls-1" d="M263.7,67.78a4.61,4.61,0,0,1-3.3-1.44l1.28-1.48a2.82,2.82,0,0,0,2,1,1,1,0,0,0,1.1-1c0-1.48-3.86-.74-3.86-3.66a2.82,2.82,0,0,1,3.1-2.74,4.46,4.46,0,0,1,2.82.92l-1.2,1.42a2.42,2.42,0,0,0-1.44-.58c-.42,0-.92.26-.92.74,0,1.26,4,.7,4,3.66C267.32,66.7,265.56,67.78,263.7,67.78Z"/><path class="cls-1" d="M158.62,92.5l-1.18-8.22-3.68,8.4H153l-3.54-8.4-1.34,8.22h-2.62L148,78.92h1.78l3.64,8.72,3.8-8.72H159l2.22,13.58Z"/><path class="cls-1" d="M170.06,92.8a6.92,6.92,0,0,1-7.12-6.94,7.13,7.13,0,1,1,7.12,6.94Zm0-11.56a4.6,4.6,0,1,0,4.46,4.58A4.53,4.53,0,0,0,170.06,81.24Z"/><path class="cls-1" d="M184.56,92.84h-1.38L177.5,79.16h2.84l3.56,9,3.6-9h2.82Z"/><path class="cls-1" d="M191.9,92.5V79.16h7.38v2.26H194.5v3h4.6v2.26h-4.6v3.6h4.78V92.5Z"/><path class="cls-1" d="M217,84.8h-2l-.28,1.8h2l-.34,2.18h-2l-.6,3.72h-2.5l.6-3.72H210l-.58,3.72h-2.48l.6-3.72h-2.06l.34-2.18h2.06l.28-1.8h-2l.34-2.2h2l.54-3.44h2.48l-.56,3.44h1.84l.54-3.44h2.5l-.54,3.44h2Zm-6.36,0-.28,1.8h1.84l.28-1.8Z"/><path class="cls-1" d="M222.54,92.84a4.53,4.53,0,0,1-4.8-4.18h2.62a2.17,2.17,0,1,0,2.26-2.34,3.8,3.8,0,0,0-.48,0V84.48a2.12,2.12,0,0,0,.36,0,1.81,1.81,0,0,0,.06-3.62,1.74,1.74,0,0,0-1.82,1.76h-2.46a4.09,4.09,0,0,1,4.46-3.82c2.22,0,4.06,1.32,4.06,3.68a3,3,0,0,1-1.54,2.84,3.28,3.28,0,0,1,2,3.28C227.3,91.34,225.08,92.84,222.54,92.84Z"/><path class="cls-1" d="M234.26,92.84c-3.68,0-5.16-3.88-5.16-7s1.46-7,5.16-7,5.16,3.86,5.16,7S238,92.84,234.26,92.84Zm0-11.72c-2,0-2.56,3.16-2.56,4.7s.52,4.74,2.56,4.74,2.56-3.2,2.56-4.74S236.3,81.12,234.26,81.12Z"/><path class="cls-1" d="M244.72,92.84a5.71,5.71,0,0,1-4.26-1.74l.86-2.24a4.47,4.47,0,0,0,3.36,1.7A2.64,2.64,0,0,0,247.34,88a2.85,2.85,0,0,0-3-2.66,4.41,4.41,0,0,0-2.56.84h-.14l1.58-7h6.16v2.28h-4.4l-.52,2.06a8.09,8.09,0,0,1,1-.08,4.48,4.48,0,0,1,4.54,4.66C249.94,91.1,247.58,92.84,244.72,92.84Z"/></svg>