<svg id="Layer_1" data-name="Layer 1" xmlns="http://www.w3.org/2000/svg" viewBox="0 0 320 160"><defs><style>.cls-1{fill:#d80201;}</style></defs><title>text</title><path class="cls-1" d="M150.77,117.1a2.44,2.44,0,0,1-2.47-2.06l.86-.24a1.63,1.63,0,0,0,1.63,1.46,1.58,1.58,0,0,0,1.61-1.58c0-1.88-3.69-1.44-3.69-3.79a2.11,2.11,0,0,1,2.24-2.06,2.28,2.28,0,0,1,2.06,1.25l-.71.47a1.48,1.48,0,0,0-1.37-.87,1.27,1.27,0,0,0-1.33,1.22c0,1.66,3.69,1.18,3.69,3.75A2.46,2.46,0,0,1,150.77,117.1Z"/><path class="cls-1" d="M155.58,112.77V117h-.86v-4.19h-.52V112h.52v-1.8h.86V112h.88v.79Z"/><path class="cls-1" d="M159.6,117.1a2.62,2.62,0,1,1,2.63-2.61A2.6,2.6,0,0,1,159.6,117.1Zm0-4.46a1.84,1.84,0,1,0,1.76,1.85A1.75,1.75,0,0,0,159.58,112.63Z"/><path class="cls-1" d="M165.06,117.28l-2.45-5.3h1l1.49,3.35,1.48-3.35h1Z"/><path class="cls-1" d="M172.21,117v-.7a2.13,2.13,0,0,1-1.73.84,2.47,2.47,0,0,1-2.4-2.65,2.42,2.42,0,0,1,2.39-2.59,2.1,2.1,0,0,1,1.74.83V112h.85v5Zm-1.61-4.33a1.7,1.7,0,0,0-1.64,1.82,1.72,1.72,0,0,0,1.64,1.87,1.7,1.7,0,0,0,1.66-1.87A1.68,1.68,0,0,0,170.6,112.62Zm-1-1.67a.61.61,0,0,1-.6-.6.6.6,0,1,1,.6.6Zm2.09,0a.61.61,0,0,1-.6-.6.6.6,0,1,1,.6.6Z"/><path class="cls-1" d="M178.88,118.8a2.42,2.42,0,0,1-2,.92,2.24,2.24,0,0,1-2.42-2.28h.85A1.49,1.49,0,0,0,176.9,119c1.2,0,1.6-.9,1.6-2v-.73a2.25,2.25,0,0,1-1.75.83,2.63,2.63,0,0,1,0-5.23,2.13,2.13,0,0,1,1.71.82V112h.86v4.87A3,3,0,0,1,178.88,118.8Zm-2-6.18a1.71,1.71,0,0,0-1.63,1.88,1.68,1.68,0,0,0,1.63,1.81,1.86,1.86,0,0,0,0-3.69Z"/><path class="cls-1" d="M181.57,114.64a1.61,1.61,0,0,0,1.58,1.68,1.71,1.71,0,0,0,1.54-1l.72.4a2.48,2.48,0,0,1-2.28,1.42,2.63,2.63,0,0,1,0-5.24,2.38,2.38,0,0,1,2.38,2.62v.17Zm1.54-2a1.53,1.53,0,0,0-1.48,1.28h2.93A1.49,1.49,0,0,0,183.1,112.63Z"/><path class="cls-1" d="M189.9,117V114c0-.78-.11-1.39-1-1.39-1.1,0-1.24,1-1.24,1.83V117h-.85v-5h.85v.6a1.8,1.8,0,0,1,2.85,0,2.28,2.28,0,0,1,.29,1.32V117Z"/><path class="cls-1" d="M198,117.08a2.75,2.75,0,0,1-2.77-2.71,3.21,3.21,0,0,1,.66-1.83l2.72-3.78.67.5-1.83,2.55a2.53,2.53,0,0,1,.73-.11,2.6,2.6,0,0,1,2.57,2.64A2.76,2.76,0,0,1,198,117.08Zm0-4.58a1.88,1.88,0,1,0,1.87,1.87A1.87,1.87,0,0,0,198,112.5Z"/><path class="cls-1" d="M202.23,118.78l-.56-.23,1-2.77.79.29Z"/><path class="cls-1" d="M215.73,117l-.75-5.57-2.72,5.9-2.69-5.9-.79,5.57h-.91l1.33-8.44,3.07,6.75,3.13-6.76,1.25,8.46Z"/><path class="cls-1" d="M222.08,117v-.7a2.13,2.13,0,0,1-1.73.84,2.47,2.47,0,0,1-2.4-2.65,2.42,2.42,0,0,1,2.39-2.59,2.1,2.1,0,0,1,1.74.83V112h.85v5Zm-1.61-4.33a1.7,1.7,0,0,0-1.64,1.82,1.72,1.72,0,0,0,1.64,1.87,1.7,1.7,0,0,0,1.65-1.87A1.68,1.68,0,0,0,220.47,112.62Z"/><path class="cls-1" d="M227.7,117V114c0-.78-.11-1.39-1-1.39-1.1,0-1.24,1-1.24,1.83V117h-.85v-5h.85v.6a1.8,1.8,0,0,1,2.86,0,2.28,2.28,0,0,1,.29,1.32V117Z"/><path class="cls-1" d="M231.06,112.77V117h-.86v-4.19h-.52V112h.52v-1.8h.86V112h.88v.79Z"/><path class="cls-1" d="M235.08,117.1a2.62,2.62,0,1,1,2.63-2.61A2.6,2.6,0,0,1,235.08,117.1Zm0-4.46a1.84,1.84,0,1,0,1.76,1.85A1.75,1.75,0,0,0,235.06,112.63Z"/><path class="cls-1" d="M241.35,112.84a.75.75,0,0,0-.5-.17.92.92,0,0,0-.43.11c-.55.3-.55,1-.55,1.55V117H239v-5h.85v.54a1.33,1.33,0,0,1,1.13-.66,1.42,1.42,0,0,1,.77.2Z"/><path class="cls-1" d="M245.14,117.1a2.15,2.15,0,0,1-1.74-.84v3.5h-.85V112h.85v.7a2.16,2.16,0,0,1,1.73-.82,2.46,2.46,0,0,1,2.4,2.64A2.44,2.44,0,0,1,245.14,117.1Zm-.13-4.47a1.71,1.71,0,0,0-1.66,1.87,1.66,1.66,0,1,0,3.3,0A1.72,1.72,0,0,0,245,112.62Z"/><path class="cls-1" d="M140.64,132.1a2.45,2.45,0,0,1-2.47-2.06l.86-.24a1.63,1.63,0,0,0,1.63,1.46,1.58,1.58,0,0,0,1.61-1.58c0-1.88-3.69-1.44-3.69-3.79a2.11,2.11,0,0,1,2.24-2.06,2.28,2.28,0,0,1,2.06,1.25l-.71.47a1.48,1.48,0,0,0-1.37-.87,1.27,1.27,0,0,0-1.33,1.22c0,1.66,3.69,1.18,3.69,3.75A2.46,2.46,0,0,1,140.64,132.1Z"/><path class="cls-1" d="M146.9,132.1a2.62,2.62,0,1,1,2.63-2.61A2.6,2.6,0,0,1,146.9,132.1Zm0-4.46a1.84,1.84,0,1,0,1.76,1.85A1.75,1.75,0,0,0,146.89,127.63Zm-1-1.68a.61.61,0,0,1-.6-.6.6.6,0,1,1,.6.6Zm2.09,0a.61.61,0,0,1-.6-.6.6.6,0,1,1,.6.6Z"/><path class="cls-1" d="M154,132V129c0-.78-.11-1.39-1-1.39-1.1,0-1.24,1-1.24,1.83V132h-.85v-5h.85v.6a1.8,1.8,0,0,1,2.86,0,2.28,2.28,0,0,1,.29,1.32V132Z"/><path class="cls-1" d="M160.27,132v-.7a2.13,2.13,0,0,1-1.73.84,2.46,2.46,0,0,1-2.4-2.64,2.44,2.44,0,0,1,2.39-2.6,2.14,2.14,0,0,1,1.74.83v-4.47h.85V132Zm-1.61-4.32a1.85,1.85,0,1,0,1.66,1.81A1.67,1.67,0,0,0,158.66,127.63Z"/><path class="cls-1" d="M166.56,132v-.7a2.13,2.13,0,0,1-1.73.84,2.47,2.47,0,0,1-2.4-2.65,2.42,2.42,0,0,1,2.39-2.59,2.1,2.1,0,0,1,1.74.83V127h.85v5Zm-1.61-4.33a1.7,1.7,0,0,0-1.64,1.82,1.72,1.72,0,0,0,1.64,1.87,1.7,1.7,0,0,0,1.65-1.87A1.68,1.68,0,0,0,164.95,127.62Z"/><path class="cls-1" d="M173.23,133.8a2.42,2.42,0,0,1-2,.92,2.24,2.24,0,0,1-2.42-2.28h.85a1.49,1.49,0,0,0,1.58,1.51c1.2,0,1.59-.9,1.59-2v-.73a2.24,2.24,0,0,1-1.75.83,2.63,2.63,0,0,1,0-5.23,2.13,2.13,0,0,1,1.71.82V127h.86v4.87A3,3,0,0,1,173.23,133.8Zm-2-6.18a1.71,1.71,0,0,0-1.63,1.88,1.68,1.68,0,0,0,1.63,1.81,1.86,1.86,0,0,0,0-3.69Z"/><path class="cls-1" d="M180.71,132v-7.16h-1.33l.47-.84h1.75v8Z"/><path class="cls-1" d="M187.17,132.08a2.77,2.77,0,0,1-2.45-1.43l.71-.5a2.11,2.11,0,0,0,1.81,1.1,2,2,0,0,0,2-2,1.94,1.94,0,0,0-2-2,2.83,2.83,0,0,0-1.55.55l1.16-3.84h3.18v.84H187.5l-.53,1.7a1.88,1.88,0,0,1,.46,0,2.65,2.65,0,0,1,2.69,2.77A2.84,2.84,0,0,1,187.17,132.08Z"/><path class="cls-1" d="M198.75,132v-.7a2.13,2.13,0,0,1-1.73.84,2.47,2.47,0,0,1-2.4-2.65,2.42,2.42,0,0,1,2.39-2.59,2.1,2.1,0,0,1,1.74.83V127h.85v5Zm-1.61-4.33a1.7,1.7,0,0,0-1.64,1.82,1.72,1.72,0,0,0,1.64,1.87,1.7,1.7,0,0,0,1.65-1.87A1.68,1.68,0,0,0,197.14,127.62Z"/><path class="cls-1" d="M203.83,132.1a2.15,2.15,0,0,1-1.74-.84v3.5h-.85V127h.85v.7a2.15,2.15,0,0,1,1.73-.82,2.46,2.46,0,0,1,2.4,2.64A2.44,2.44,0,0,1,203.83,132.1Zm-.13-4.47a1.71,1.71,0,0,0-1.66,1.87,1.66,1.66,0,1,0,3.3,0A1.72,1.72,0,0,0,203.7,127.62Z"/><path class="cls-1" d="M209.86,127.84a.75.75,0,0,0-.5-.17.92.92,0,0,0-.43.11c-.55.3-.55,1-.55,1.55V132h-.85v-5h.85v.54a1.33,1.33,0,0,1,1.13-.66,1.42,1.42,0,0,1,.77.2Z"/><path class="cls-1" d="M211.5,125.7a.61.61,0,1,1,.61-.61A.61.61,0,0,1,211.5,125.7Zm-.43,6.25v-5h.85v5Z"/><path class="cls-1" d="M213.56,132v-8.74h.85V132Z"/><path class="cls-1" d="M222.13,132l-2-2.27-.22.22V132H219v-8.74h.85v5.6l1.81-1.83h1.14l-2.14,2.11,2.53,2.87Z"/><path class="cls-1" d="M224.1,132v-8.74h.85V132Z"/><path class="cls-1" d="M231.94,132v-7.16h-1.33l.47-.84h1.75v8Z"/><path class="cls-1" d="M240.79,130.65V132h-.89v-1.31h-4.1l5-7.14v6.32h1v.82Zm-.89-4.43-2.53,3.61h2.53Z"/><path class="cls-1" d="M242.37,129.78V129h2.17v.77Z"/><path class="cls-1" d="M247.72,132v-7.16h-1.33l.47-.84h1.75v8Z"/><path class="cls-1" d="M254.75,132.08a2.75,2.75,0,0,1-2.77-2.71,3.2,3.2,0,0,1,.66-1.83l2.72-3.78.67.5-1.83,2.55a2.54,2.54,0,0,1,.73-.11,2.6,2.6,0,0,1,2.57,2.64A2.76,2.76,0,0,1,254.75,132.08Zm0-4.58a1.88,1.88,0,1,0,1.87,1.87A1.87,1.87,0,0,0,254.74,127.5Z"/></svg>