<svg id="Layer_1" data-name="Layer 1" xmlns="http://www.w3.org/2000/svg" viewBox="0 0 320 160"><defs><style>.cls-1{fill:#d80201;}</style></defs><title>text</title><path class="cls-1" d="M166.1,60.77c-1.43,1.54-3.67,1.3-5.59,1.3V67.5h-2.86V52.82h4.27a5.32,5.32,0,0,1,3.87,1.12,4.68,4.68,0,0,1,1.5,3.54A4.82,4.82,0,0,1,166.1,60.77Zm-2.51-5a3.42,3.42,0,0,0-2.09-.46h-1v4.27h1.17c1.43,0,2.66-.46,2.66-2.11A2.18,2.18,0,0,0,163.59,55.77Z"/><path class="cls-1" d="M173.49,67.81c-3,0-5.46-1.89-5.46-5.06s2.42-5.08,5.48-5.08,5.41,1.91,5.41,5.06S176.5,67.81,173.49,67.81Zm0-7.75a2.67,2.67,0,1,0,2.71,2.68A2.69,2.69,0,0,0,173.47,60.06Z"/><path class="cls-1" d="M186.82,67.81a3.81,3.81,0,0,1-3.19-1.56v6.34H181V58h2.66v1.21a3.8,3.8,0,0,1,3.13-1.52,5.09,5.09,0,0,1,.07,10.14ZM186,60.06a2.67,2.67,0,1,0,2.66,2.66A2.66,2.66,0,0,0,186,60.06Z"/><path class="cls-1" d="M198.08,67.81c-2.62,0-4.6-1.17-4.6-4V58h2.66v5.39c0,1.3.55,2.18,1.94,2.18s1.94-.88,1.94-2.18V58h2.68V63.8C202.7,66.64,200.7,67.81,198.08,67.81Z"/><path class="cls-1" d="M205.25,67.5V51h2.66V67.5Z"/><path class="cls-1" d="M217.75,67.5V66.25a3.68,3.68,0,0,1-3.1,1.56c-2.86,0-4.69-2.38-4.69-5.1a4.76,4.76,0,0,1,4.62-5,4,4,0,0,1,3.17,1.52V58h2.68V67.5Zm-4.6-11.31a1.58,1.58,0,0,1,0-3.17,1.58,1.58,0,1,1,0,3.17Zm2.22,3.87A2.67,2.67,0,1,0,218,62.73,2.66,2.66,0,0,0,215.38,60.06Zm2.35-3.87a1.61,1.61,0,0,1-1.58-1.58,1.58,1.58,0,1,1,1.58,1.58Z"/><path class="cls-1" d="M229.21,60.39a2.35,2.35,0,0,0-1.28-.33c-1.8,0-2.29,1.28-2.29,2.86V67.5H223V58h2.66V59.4a3.11,3.11,0,0,1,3.94-1.52Z"/><path class="cls-1" d="M238.19,67.5V66.25a3.68,3.68,0,0,1-3.1,1.56c-2.86,0-4.69-2.38-4.69-5.1a4.76,4.76,0,0,1,4.62-5,4,4,0,0,1,3.17,1.52V58h2.68V67.5Zm-2.38-7.44a2.67,2.67,0,1,0,2.66,2.66A2.66,2.66,0,0,0,235.81,60.06Z"/><path class="cls-1" d="M155.74,95.5l-1.3-9-4,9.24h-.79l-3.89-9.24-1.47,9h-2.88l2.73-14.94h2l4,9.59,4.18-9.59h2l2.44,14.94Z"/><path class="cls-1" d="M168.32,95.83a7.61,7.61,0,0,1-7.83-7.63,7.85,7.85,0,1,1,7.83,7.63Zm0-12.72a5.06,5.06,0,1,0,4.91,5A5,5,0,0,0,168.32,83.11Z"/><path class="cls-1" d="M184.27,95.87h-1.52l-6.25-15h3.13l3.92,9.86,4-9.86h3.1Z"/><path class="cls-1" d="M192.34,95.5V80.82h8.12v2.49H195.2v3.26h5.06v2.49H195.2v4h5.26V95.5Z"/><path class="cls-1" d="M219.91,87h-2.22l-.31,2h2.25l-.37,2.4H217l-.66,4.09h-2.75l.66-4.09h-2l-.64,4.09h-2.73l.66-4.09h-2.27l.37-2.4h2.27l.31-2H208l.37-2.42h2.24l.59-3.78h2.73l-.62,3.78h2l.59-3.78h2.75l-.59,3.78h2.22Zm-7,0-.31,2h2l.31-2Z"/><path class="cls-1" d="M226,95.87a5,5,0,0,1-5.28-4.6h2.88a2.39,2.39,0,1,0,2.49-2.57,4.36,4.36,0,0,0-.53,0V86.68a2.34,2.34,0,0,0,.4,0,2,2,0,1,0-1.94-2h-2.71a4.49,4.49,0,0,1,4.91-4.2c2.44,0,4.47,1.45,4.47,4A3.28,3.28,0,0,1,229,87.62a3.61,3.61,0,0,1,2.24,3.61C231.28,94.22,228.84,95.87,226,95.87Z"/><path class="cls-1" d="M238.94,95.87c-4,0-5.68-4.27-5.68-7.7s1.61-7.72,5.68-7.72,5.68,4.25,5.68,7.7S243,95.87,238.94,95.87Zm0-12.89c-2.25,0-2.82,3.48-2.82,5.17s.57,5.21,2.82,5.21,2.82-3.52,2.82-5.21S241.18,83,238.94,83Z"/><path class="cls-1" d="M245.56,95.5l4.33-4.91c1.19-1.34,3.37-3.56,3.37-5.43A2.19,2.19,0,0,0,251,83c-1.45,0-2.13,1.08-2.18,2.42H245.8a4.92,4.92,0,0,1,5.15-5c2.75,0,5.17,1.8,5.17,4.71,0,2-1.34,3.72-2.66,5.13L250.91,93h5.32V95.5Z"/></svg>