<svg id="Layer_1" data-name="Layer 1" xmlns="http://www.w3.org/2000/svg" viewBox="0 0 320 160"><defs><style>.cls-1{fill:#d4ac76;}</style></defs><title>text</title><path class="cls-1" d="M114.84,99.92l-2.41-6.18h1l1.85,4.75,1.86-4.75h1l-2.42,6.18Z"/><path class="cls-1" d="M119.76,99.92V93.74h.86v6.18Z"/><path class="cls-1" d="M124.67,100a2.89,2.89,0,0,1-1.16-.25,3,3,0,0,1-1-.67l.61-.7a2.36,2.36,0,0,0,.71.56,1.82,1.82,0,0,0,.86.23,1.19,1.19,0,0,0,.8-.26.83.83,0,0,0,.31-.66,1.08,1.08,0,0,0-.78-1l-.73-.29a2.56,2.56,0,0,1-1-.66,1.46,1.46,0,0,1-.33-1,1.56,1.56,0,0,1,.51-1.17,1.76,1.76,0,0,1,1.26-.48,2.52,2.52,0,0,1,1.8.68L126,95a1.71,1.71,0,0,0-1.28-.56,1,1,0,0,0-.65.22.71.71,0,0,0-.25.57.69.69,0,0,0,.18.48,1.73,1.73,0,0,0,.63.38l.74.3a1.75,1.75,0,0,1,1.3,1.77,1.69,1.69,0,0,1-.55,1.3A2.07,2.07,0,0,1,124.67,100Z"/><path class="cls-1" d="M128.8,99.92V93.74h.6L132.76,98V93.74h.86v6.18h-.48l-3.47-4.42v4.42Z"/><path class="cls-1" d="M136.2,99.92V93.74h.86v6.18Z"/><path class="cls-1" d="M139.6,99.92V93.74h.6L143.56,98V93.74h.86v6.18h-.48l-3.47-4.42v4.42Z"/><path class="cls-1" d="M150.87,97.24v-.82h2.06v.43a3.18,3.18,0,0,1-3.2,3.18,3,3,0,0,1-2.26-.92,3.34,3.34,0,0,1,0-4.57,3,3,0,0,1,2.26-.92,3.33,3.33,0,0,1,1.3.26,3.17,3.17,0,0,1,1.06.72l-.64.65a2.19,2.19,0,0,0-1.72-.8,2.16,2.16,0,0,0-1.64.7,2.49,2.49,0,0,0,0,3.37,2.16,2.16,0,0,0,1.64.7,2.2,2.2,0,0,0,1.48-.54,2.34,2.34,0,0,0,.78-1.43Z"/><path class="cls-1" d="M158.4,99.92V93.74h.86V99.1h2.54v.82Z"/><path class="cls-1" d="M163.06,99.92l2.48-6.18h.78l2.44,6.18h-1l-.37-1h-3l-.38,1Zm2.23-6.84a.4.4,0,0,1-.31.14.4.4,0,0,1-.31-.14.52.52,0,0,1,0-.67.4.4,0,0,1,.31-.14.41.41,0,0,1,.31.14.51.51,0,0,1,0,.67Zm.64,2.08-1.2,3h2.38ZM167,93.08a.42.42,0,0,1-.62,0,.52.52,0,0,1,0-.67.41.41,0,0,1,.62,0,.51.51,0,0,1,0,.67Z"/><path class="cls-1" d="M174.22,97.24v-.82h2.06v.43a3.18,3.18,0,0,1-3.2,3.18,3,3,0,0,1-2.26-.92,3.34,3.34,0,0,1,0-4.57,3,3,0,0,1,2.26-.92,3.33,3.33,0,0,1,1.3.26,3.17,3.17,0,0,1,1.06.72l-.64.65a2.19,2.19,0,0,0-1.72-.8,2.16,2.16,0,0,0-1.64.7,2.49,2.49,0,0,0,0,3.37,2.16,2.16,0,0,0,1.64.7,2.2,2.2,0,0,0,1.48-.54,2.34,2.34,0,0,0,.78-1.43Z"/><path class="cls-1" d="M181.81,97.21h-2.54V99.1H182v.82H178.4V93.74h3.54v.82h-2.67v1.82h2.54Z"/><path class="cls-1" d="M184.13,99.92V93.74h.6L188.08,98V93.74h.86v6.18h-.48L185,95.51v4.42Z"/><path class="cls-1" d="M195.4,99.92V97.24h-3v2.68h-.86V93.74h.86v2.68h3V93.74h.86v6.18Z"/><path class="cls-1" d="M202.26,97.21h-2.54V99.1h2.72v.82h-3.58V93.74h3.54v.82h-2.67v1.82h2.54Z"/><path class="cls-1" d="M203.92,94.56v-.82h5v.82h-2.07v5.36H206V94.56Z"/><path class="cls-1" d="M216.25,100a2.16,2.16,0,0,1-1.61-.65,2.24,2.24,0,0,1-.63-1.63v-4h.86v4a1.6,1.6,0,0,0,.37,1.08,1.27,1.27,0,0,0,1,.43,1.3,1.3,0,0,0,1-.42,1.57,1.57,0,0,0,.37-1.08v-4h.86v4a2.25,2.25,0,0,1-.63,1.63A2.17,2.17,0,0,1,216.25,100Z"/><path class="cls-1" d="M221,99.92V93.74h.6L224.92,98V93.74h.86v6.18h-.48l-3.47-4.42v4.42Z"/><path class="cls-1" d="M228.37,99.92V93.74H230a3.11,3.11,0,0,1,2.16,5.3,3,3,0,0,1-2.2.88Zm1.69-5.36h-.83V99.1h.85a2,2,0,0,0,1.52-.66,2.28,2.28,0,0,0,.62-1.62,2.2,2.2,0,0,0-.64-1.6A2.07,2.07,0,0,0,230.06,94.56Z"/><path class="cls-1" d="M238.63,97.21h-2.54V99.1h2.72v.82h-3.58V93.74h3.54v.82h-2.67v1.82h2.54Z"/><path class="cls-1" d="M240.95,99.92V93.74h2.3a1.93,1.93,0,0,1,1.39.54,1.91,1.91,0,0,1-1.09,3.29l1.79,2.35h-1.06l-1.78-2.36h-.69v2.36Zm2.18-5.36h-1.32V96.8h1.31a1.25,1.25,0,0,0,.87-.31,1.12,1.12,0,0,0,0-1.6A1.21,1.21,0,0,0,243.13,94.56Z"/><path class="cls-1" d="M250.71,99.92V93.74h1.89a2,2,0,0,1,1.36.48,1.59,1.59,0,0,1,.54,1.25,1.46,1.46,0,0,1-.74,1.33,1.57,1.57,0,0,1,.66.55,1.45,1.45,0,0,1,.25.83,1.6,1.6,0,0,1-.54,1.27,2,2,0,0,1-1.38.48Zm1.8-5.36h-.94v1.88h1.1a.94.94,0,0,0,.69-.27,1,1,0,0,0,.28-.71.79.79,0,0,0-.31-.65A1.27,1.27,0,0,0,252.51,94.56Zm.19,2.65h-1.13V99.1h1.08a1.28,1.28,0,0,0,.85-.26.88.88,0,0,0,.31-.71.85.85,0,0,0-.29-.66A1.19,1.19,0,0,0,252.7,97.21Z"/><path class="cls-1" d="M259.78,93.74h1l-2.06,3.7v2.49h-.86V97.47l-2.08-3.73h1l1.5,2.74Z"/><path class="cls-1" d="M266.1,97.24v-.82h2.06v.43A3.18,3.18,0,0,1,265,100a3,3,0,0,1-2.26-.92,3.34,3.34,0,0,1,0-4.57,3,3,0,0,1,2.26-.92,3.33,3.33,0,0,1,1.3.26,3.17,3.17,0,0,1,1.06.72l-.64.65a2.19,2.19,0,0,0-1.72-.8,2.16,2.16,0,0,0-1.64.7,2.49,2.49,0,0,0,0,3.37,2.16,2.16,0,0,0,1.64.7,2.2,2.2,0,0,0,1.48-.54,2.34,2.34,0,0,0,.78-1.43Z"/><path class="cls-1" d="M274.23,97.24v-.82h2.06v.43a3.18,3.18,0,0,1-3.2,3.18,3,3,0,0,1-2.26-.92,3.34,3.34,0,0,1,0-4.57,3,3,0,0,1,2.26-.92,3.33,3.33,0,0,1,1.3.26,3.17,3.17,0,0,1,1.06.72l-.64.65a2.19,2.19,0,0,0-1.72-.8,2.16,2.16,0,0,0-1.64.7,2.49,2.49,0,0,0,0,3.37,2.16,2.16,0,0,0,1.64.7,2.2,2.2,0,0,0,1.48-.54,2.34,2.34,0,0,0,.78-1.43Z"/><path class="cls-1" d="M278.41,99.92V93.74h.6L282.36,98V93.74h.86v6.18h-.48l-3.47-4.42v4.42Z"/><path class="cls-1" d="M285.09,99.92l2.48-6.18h.78l2.44,6.18h-1l-.37-1h-3l-.38,1ZM288,95.16l-1.2,3h2.38Z"/><path class="cls-1" d="M291.16,94.56v-.82h5v.82h-2.07v5.36h-.86V94.56Z"/><path class="cls-1" d="M297.88,99.92V93.74h.86v6.18Z"/><path class="cls-1" d="M304,100a3,3,0,0,1-2.23-.92,3.32,3.32,0,0,1,0-4.59,3.16,3.16,0,0,1,4.45,0,3.29,3.29,0,0,1,0,4.58A3,3,0,0,1,304,100Zm-1.62-1.52a2.24,2.24,0,0,0,3.24,0,2.47,2.47,0,0,0,0-3.38,2.22,2.22,0,0,0-3.23,0,2.47,2.47,0,0,0,0,3.38Z"/><path class="cls-1" d="M309.31,99.92V93.74h.6L313.26,98V93.74h.86v6.18h-.48l-3.47-4.42v4.42Z"/><path class="cls-1" d="M125.2,112.92v-6.18h.86v5.36h2.54v.82Z"/><path class="cls-1" d="M132.81,113a3,3,0,0,1-2.23-.92,3.32,3.32,0,0,1,0-4.59,3.16,3.16,0,0,1,4.45,0,3.29,3.29,0,0,1,0,4.58A3,3,0,0,1,132.81,113Zm-1.62-1.52a2.24,2.24,0,0,0,3.24,0,2.47,2.47,0,0,0,0-3.38,2.22,2.22,0,0,0-3.23,0,2.47,2.47,0,0,0,0,3.38Zm1-5.43a.41.41,0,0,1-.31.14.39.39,0,0,1-.3-.14.52.52,0,0,1,0-.67.39.39,0,0,1,.3-.14.41.41,0,0,1,.31.14.51.51,0,0,1,0,.67Zm1.71,0a.42.42,0,0,1-.62,0,.52.52,0,0,1,0-.67.41.41,0,0,1,.62,0,.52.52,0,0,1,0,.67Z"/><path class="cls-1" d="M138.12,112.92v-6.18h2.3a1.93,1.93,0,0,1,1.39.54,1.91,1.91,0,0,1-1.09,3.29l1.79,2.35h-1.06l-1.78-2.36H139v2.36Zm2.18-5.36H139v2.23h1.31a1.25,1.25,0,0,0,.87-.31,1.12,1.12,0,0,0,0-1.6A1.21,1.21,0,0,0,140.3,107.56Z"/><path class="cls-1" d="M144.54,112.92v-6.18h1.66a3.11,3.11,0,0,1,2.16,5.3,3,3,0,0,1-2.2.88Zm1.69-5.36h-.83v4.54h.85a2,2,0,0,0,1.52-.66,2.28,2.28,0,0,0,.62-1.62,2.2,2.2,0,0,0-.64-1.6A2.07,2.07,0,0,0,146.23,107.56Z"/><path class="cls-1" d="M150.48,112.92l2.48-6.18h.78l2.44,6.18h-1l-.37-1h-3l-.38,1Zm2.87-4.76-1.2,3h2.38Z"/><path class="cls-1" d="M161.64,110.24v-.82h2.06v.43a3.18,3.18,0,0,1-3.2,3.18,3,3,0,0,1-2.26-.92,3.34,3.34,0,0,1,0-4.57,3,3,0,0,1,2.26-.92,3.33,3.33,0,0,1,1.3.26,3.17,3.17,0,0,1,1.06.72l-.64.65a2.19,2.19,0,0,0-1.72-.8,2.16,2.16,0,0,0-1.64.7,2.49,2.49,0,0,0,0,3.37,2.16,2.16,0,0,0,1.64.7,2.2,2.2,0,0,0,1.48-.54,2.34,2.34,0,0,0,.78-1.43Z"/><path class="cls-1" d="M169.88,112.92v-5.08l-1.16.59v-.82l1.64-.9h.38v6.22Z"/><path class="cls-1" d="M174.71,113a1.88,1.88,0,0,1-1.37-.55,1.83,1.83,0,0,1-.57-1.35,1.7,1.7,0,0,1,.24-.89,1.9,1.9,0,0,1,.65-.66,1.53,1.53,0,0,1-.21-2.46,1.87,1.87,0,0,1,2.5,0,1.52,1.52,0,0,1-.21,2.46,1.88,1.88,0,0,1,.66.65,1.68,1.68,0,0,1,.24.89,1.83,1.83,0,0,1-.57,1.35A1.89,1.89,0,0,1,174.71,113Zm0-.82a1,1,0,0,0,.77-.32,1.07,1.07,0,0,0,.31-.77,1,1,0,0,0-.31-.76,1.05,1.05,0,0,0-.77-.3,1,1,0,0,0-.76.3,1,1,0,0,0-.31.76,1.07,1.07,0,0,0,.31.77A1,1,0,0,0,174.71,112.2Zm0-4.79a.88.88,0,0,0-.64.26.86.86,0,0,0-.26.64.89.89,0,0,0,.26.65.87.87,0,0,0,.65.26.91.91,0,0,0,.91-.92.86.86,0,0,0-.27-.64A.88.88,0,0,0,174.71,107.4Z"/><path class="cls-1" d="M182.08,112.92v-6.18h.6L186,111v-4.26h.86v6.18h-.48l-3.47-4.42v4.42Z"/><path class="cls-1" d="M192.19,113a3,3,0,0,1-2.23-.92,3.32,3.32,0,0,1,0-4.59,3.16,3.16,0,0,1,4.45,0,3.29,3.29,0,0,1,0,4.58A3,3,0,0,1,192.19,113Zm-1.62-1.52a2.24,2.24,0,0,0,3.24,0,2.47,2.47,0,0,0,0-3.38,2.22,2.22,0,0,0-3.23,0,2.47,2.47,0,0,0,0,3.38Z"/><path class="cls-1" d="M199,112.92l-2.41-6.18h1l1.85,4.75,1.86-4.75h1l-2.42,6.18Z"/><path class="cls-1" d="M207.31,110.21h-2.54v1.89h2.72v.82H203.9v-6.18h3.54v.82h-2.67v1.82h2.54Z"/><path class="cls-1" d="M209.63,112.92v-6.18h.89l2,3.3,2-3.3h.85v6.18h-.86v-4.57l0,0-2,3.2-2-3.15h-.05v4.54Z"/><path class="cls-1" d="M217.92,112.92v-6.18h1.89a2,2,0,0,1,1.36.48,1.59,1.59,0,0,1,.54,1.25,1.46,1.46,0,0,1-.74,1.33,1.57,1.57,0,0,1,.66.55,1.45,1.45,0,0,1,.25.83,1.6,1.6,0,0,1-.54,1.27,2,2,0,0,1-1.38.48Zm1.8-5.36h-.94v1.88h1.1a.94.94,0,0,0,.69-.27,1,1,0,0,0,.28-.71.79.79,0,0,0-.31-.65A1.27,1.27,0,0,0,219.73,107.56Zm.19,2.65h-1.13v1.89h1.08a1.28,1.28,0,0,0,.85-.26.88.88,0,0,0,.31-.71.85.85,0,0,0-.29-.66A1.19,1.19,0,0,0,219.92,110.21Z"/><path class="cls-1" d="M227.47,110.21h-2.54v1.89h2.72v.82h-3.58v-6.18h3.54v.82h-2.67v1.82h2.54Z"/><path class="cls-1" d="M229.79,112.92v-6.18h2.3a1.93,1.93,0,0,1,1.39.54,1.91,1.91,0,0,1-1.09,3.29l1.79,2.35h-1.06l-1.78-2.36h-.69v2.36Zm2.18-5.36h-1.32v2.23H232a1.25,1.25,0,0,0,.87-.31,1.12,1.12,0,0,0,0-1.6A1.21,1.21,0,0,0,232,107.56Z"/><path class="cls-1" d="M239.55,112.92v-6.18h.86v2.93l2.58-2.93h1.16L242,109.19l2.24,3.73h-1.07l-1.8-3-.92,1v2Z"/><path class="cls-1" d="M246.08,112.92v-6.18h.86v5.36h2.54v.82Z"/><path class="cls-1" d="M255.43,112.92v-5.08l-1.16.59v-.82l1.64-.9h.38v6.22Z"/><path class="cls-1" d="M259.43,112.92v-5.08l-1.16.59v-.82l1.64-.9h.38v6.22Z"/><path class="cls-1" d="M263.2,112.87a.51.51,0,0,1-.37.15.49.49,0,0,1-.36-.15.54.54,0,0,1,0-.74.49.49,0,0,1,.37-.15.51.51,0,0,1,.37.15.5.5,0,0,1,.15.37A.51.51,0,0,1,263.2,112.87Z"/><path class="cls-1" d="M267,113a1.9,1.9,0,0,1-1.35-.52,1.72,1.72,0,0,1-.58-1.26h.86a.9.9,0,0,0,.32.68,1.05,1.05,0,0,0,.72.28,1.06,1.06,0,0,0,.77-.3,1,1,0,0,0,.31-.74A1,1,0,0,0,267,110.1h-.35v-.77H267a1,1,0,0,0,.72-.29,1,1,0,0,0,0-1.37,1,1,0,0,0-.73-.28,1,1,0,0,0-.71.29.94.94,0,0,0-.29.69h-.86a1.61,1.61,0,0,1,.54-1.24,2,2,0,0,1,2.67,0,1.63,1.63,0,0,1,.53,1.24,1.39,1.39,0,0,1-.26.83,1.45,1.45,0,0,1-.68.53,1.49,1.49,0,0,1,.72.55,1.51,1.51,0,0,1,.27.9,1.75,1.75,0,0,1-.57,1.31A1.89,1.89,0,0,1,267,113Z"/><path class="cls-1" d="M272.83,113a2,2,0,0,1-2-2v-2.34a1.93,1.93,0,0,1,.59-1.43,2.08,2.08,0,0,1,2.87,0,1.91,1.91,0,0,1,.58,1.42V111a1.93,1.93,0,0,1-.59,1.44A2,2,0,0,1,272.83,113Zm-.83-1.16a1.2,1.2,0,0,0,1.66,0A1.17,1.17,0,0,0,274,111v-2.36a1.16,1.16,0,0,0-.33-.85,1.19,1.19,0,0,0-1.66,0,1.17,1.17,0,0,0-.33.85V111A1.17,1.17,0,0,0,272,111.85Z"/><path class="cls-1" d="M276.85,110.23v-.77h2.42v.77Z"/><path class="cls-1" d="M281.61,112.92v-5.08l-1.16.59v-.82l1.64-.9h.38v6.22Z"/><path class="cls-1" d="M286.3,113a1.9,1.9,0,0,1-1.35-.52,1.72,1.72,0,0,1-.58-1.26h.86a.9.9,0,0,0,.32.68,1.05,1.05,0,0,0,.72.28,1.06,1.06,0,0,0,.77-.3,1,1,0,0,0,.31-.74,1,1,0,0,0-1.05-1.06H286v-.77h.35A1,1,0,0,0,287,109a1,1,0,0,0,0-1.37,1,1,0,0,0-.73-.28,1,1,0,0,0-.71.29.94.94,0,0,0-.29.69h-.86a1.61,1.61,0,0,1,.54-1.24,2,2,0,0,1,2.67,0,1.63,1.63,0,0,1,.53,1.24,1.39,1.39,0,0,1-.26.83,1.45,1.45,0,0,1-.68.53,1.49,1.49,0,0,1,.72.55,1.51,1.51,0,0,1,.27.9,1.75,1.75,0,0,1-.57,1.31A1.89,1.89,0,0,1,286.3,113Z"/><path class="cls-1" d="M290.64,112.87a.51.51,0,0,1-.37.15.49.49,0,0,1-.36-.15.54.54,0,0,1,0-.74.49.49,0,0,1,.37-.15.51.51,0,0,1,.37.15.5.5,0,0,1,.15.37A.51.51,0,0,1,290.64,112.87Z"/><path class="cls-1" d="M294.44,113a1.9,1.9,0,0,1-1.35-.52,1.72,1.72,0,0,1-.58-1.26h.86a.9.9,0,0,0,.32.68,1.05,1.05,0,0,0,.72.28,1.06,1.06,0,0,0,.77-.3,1,1,0,0,0,.31-.74,1,1,0,0,0-1.05-1.06h-.35v-.77h.35a1,1,0,0,0,.72-.29,1,1,0,0,0,0-1.37,1,1,0,0,0-.73-.28,1,1,0,0,0-.71.29.94.94,0,0,0-.29.69h-.86a1.61,1.61,0,0,1,.54-1.24,2,2,0,0,1,2.67,0,1.63,1.63,0,0,1,.53,1.24,1.39,1.39,0,0,1-.26.83,1.45,1.45,0,0,1-.68.53,1.49,1.49,0,0,1,.72.55,1.51,1.51,0,0,1,.27.9,1.75,1.75,0,0,1-.57,1.31A1.89,1.89,0,0,1,294.44,113Z"/><path class="cls-1" d="M300.28,113a2,2,0,0,1-2-2v-2.34a1.93,1.93,0,0,1,.59-1.43,2.08,2.08,0,0,1,2.87,0,1.91,1.91,0,0,1,.58,1.42V111a1.93,1.93,0,0,1-.59,1.44A2,2,0,0,1,300.28,113Zm-.83-1.16a1.2,1.2,0,0,0,1.66,0,1.17,1.17,0,0,0,.33-.85v-2.36a1.16,1.16,0,0,0-.33-.85,1.19,1.19,0,0,0-1.66,0,1.17,1.17,0,0,0-.33.85V111A1.17,1.17,0,0,0,299.45,111.85Z"/></svg>