<svg id="Layer_1" data-name="Layer 1" xmlns="http://www.w3.org/2000/svg" viewBox="0 0 580 400"><defs><style>.cls-1{fill:#d4ac76;}</style></defs><title>text</title><path class="cls-1" d="M104,168.07l-5.73-14.69h2.31l4.4,11.29,4.41-11.29h2.26l-5.74,14.69Z"/><path class="cls-1" d="M115.66,168.07V153.38h2v14.69Z"/><path class="cls-1" d="M131.67,168.07V153.38h8v2h-6V160H139v1.95h-5.29v6.16Z"/><path class="cls-1" d="M144.25,168.07V153.38h2.05v14.69Z"/><path class="cls-1" d="M152.32,168.07V153.38h5.46a4.58,4.58,0,0,1,3.3,1.28,4.54,4.54,0,0,1-2.58,7.82l4.26,5.59h-2.53L156,162.46h-1.63v5.61Zm5.18-12.73h-3.12v5.3h3.1a3,3,0,0,0,2.08-.72,2.67,2.67,0,0,0,0-3.82A2.86,2.86,0,0,0,157.5,155.34Z"/><path class="cls-1" d="M165.79,168.07l5.9-14.69h1.86l5.78,14.69h-2.27l-.89-2.26H169l-.91,2.26Zm6.83-11.32-2.86,7.1h5.64Z"/><path class="cls-1" d="M183.41,168.07V153.38h5.45a4.61,4.61,0,0,1,3.31,1.28,4.54,4.54,0,0,1-2.58,7.82l4.25,5.59h-2.53l-4.21-5.61h-1.64v5.61Zm5.18-12.73h-3.13v5.3h3.11a3,3,0,0,0,2.08-.72,2.67,2.67,0,0,0,0-3.82A2.87,2.87,0,0,0,188.59,155.34Z"/><path class="cls-1" d="M205.56,168.07v-1.29l5.87-7.75a2.94,2.94,0,0,0,.82-1.87,2.09,2.09,0,0,0-.64-1.56A2.23,2.23,0,0,0,210,155a2.09,2.09,0,0,0-1.62.71,2.9,2.9,0,0,0-.67,1.86h-2a4.36,4.36,0,0,1,1.22-3.12,4.12,4.12,0,0,1,3.12-1.27,4.37,4.37,0,0,1,3.12,1.15,3.78,3.78,0,0,1,1.22,2.88,5.25,5.25,0,0,1-1.54,3.25l-4.58,5.83h6.31v1.82Z"/><path class="cls-1" d="M223.24,168.3a5,5,0,0,1-3-.9,4.61,4.61,0,0,1-1.75-2.39l1.86-.72a3,3,0,0,0,2.85,2.05,2.87,2.87,0,0,0,3-2.92,2.75,2.75,0,0,0-.87-2.07,2.87,2.87,0,0,0-2.07-.82,2.74,2.74,0,0,0-2.08.89h-2.05v-8h8.22v2h-6.17v3.95a3.87,3.87,0,0,1,2.08-.59,4.92,4.92,0,0,1,3.61,1.35,4.5,4.5,0,0,1,1.38,3.37,4.68,4.68,0,0,1-1.45,3.44A4.87,4.87,0,0,1,223.24,168.3Z"/><path class="cls-1" d="M239.32,168.07l5.9-14.69h1.86l5.78,14.69h-2.27l-.89-2.26h-7.19l-.91,2.26Zm6.83-11.32-2.86,7.1h5.64Zm1.41-4.36a2,2,0,0,1-2.83,0,2,2,0,0,1,0-2.84,2,2,0,0,1,2.83,0,2,2,0,0,1,0,2.84Zm-1.41-.6a.75.75,0,0,0,.56-.25.83.83,0,0,0,0-1.15.8.8,0,0,0-1.14,0,.81.81,0,0,0,0,1.15A.74.74,0,0,0,246.15,151.79Z"/><path class="cls-1" d="M256.94,168.07V153.38h5.45a4.61,4.61,0,0,1,3.31,1.28,4.54,4.54,0,0,1-2.58,7.82l4.25,5.59h-2.53l-4.21-5.61H259v5.61Zm5.18-12.73H259v5.3h3.11a3,3,0,0,0,2.07-.72,2.66,2.66,0,0,0,0-3.82A2.87,2.87,0,0,0,262.12,155.34Z"/><path class="cls-1" d="M278.5,168.07l5.9-14.69h1.85L292,168.07h-2.27l-.89-2.26h-7.2l-.91,2.26Zm6.82-11.32-2.85,7.1h5.64Z"/><path class="cls-1" d="M299.05,168.07l-5.73-14.69h2.31l4.4,11.29,4.41-11.29h2.26L301,168.07Z"/><path class="cls-1" d="M328.13,168.07v-6.36H321v6.36h-2.06V153.38H321v6.37h7.14v-6.37h2.05v14.69Z"/><path class="cls-1" d="M341.31,168.32a5.13,5.13,0,0,1-3.83-1.54,5.34,5.34,0,0,1-1.5-3.88v-9.52h2v9.4a3.74,3.74,0,0,0,.88,2.56,3,3,0,0,0,2.4,1,3.07,3.07,0,0,0,2.43-1,3.71,3.71,0,0,0,.88-2.57v-9.41h2.05v9.52a5.33,5.33,0,0,1-1.49,3.88A5.19,5.19,0,0,1,341.31,168.32Z"/><path class="cls-1" d="M356.33,168.26a6.86,6.86,0,0,1-2.74-.59,7.22,7.22,0,0,1-2.33-1.58l1.44-1.66a5.84,5.84,0,0,0,1.7,1.34,4.27,4.27,0,0,0,2,.53,2.86,2.86,0,0,0,1.9-.62,2,2,0,0,0,.73-1.57,2.58,2.58,0,0,0-1.85-2.4l-1.74-.69a5.93,5.93,0,0,1-2.4-1.58,3.42,3.42,0,0,1-.79-2.32,3.7,3.7,0,0,1,1.21-2.78,4.23,4.23,0,0,1,3-1.15,6,6,0,0,1,4.26,1.62l-1.23,1.66a4.07,4.07,0,0,0-3-1.32,2.33,2.33,0,0,0-1.56.51,1.7,1.7,0,0,0-.6,1.36,1.65,1.65,0,0,0,.44,1.14,4.21,4.21,0,0,0,1.49.91l1.77.71c2.14.86,3.17,2.25,3.08,4.19a4,4,0,0,1-1.29,3.09A5,5,0,0,1,356.33,168.26Z"/><path class="cls-1" d="M366.15,168.07V153.38h3.93a7.4,7.4,0,0,1,5.14,12.6,7.17,7.17,0,0,1-5.21,2.09Zm4-12.73h-2v10.77h2a4.74,4.74,0,0,0,3.62-1.57,5.42,5.42,0,0,0,1.47-3.84,5.23,5.23,0,0,0-1.52-3.81A4.91,4.91,0,0,0,370.16,155.34Z"/><path class="cls-1" d="M382.41,168.07V153.38h5.46a4.58,4.58,0,0,1,3.3,1.28,4.54,4.54,0,0,1-2.58,7.82l4.25,5.59h-2.52l-4.22-5.61h-1.63v5.61Zm5.18-12.73h-3.12v5.3h3.1a3,3,0,0,0,2.08-.72,2.67,2.67,0,0,0,0-3.82A2.86,2.86,0,0,0,387.59,155.34Z"/><path class="cls-1" d="M404.27,168.34a7.22,7.22,0,0,1-5.29-2.18,7.89,7.89,0,0,1,0-10.89,7.51,7.51,0,0,1,10.57,0,7.81,7.81,0,0,1,0,10.87A7.2,7.2,0,0,1,404.27,168.34Zm-3.84-3.61a5.31,5.31,0,0,0,7.69,0,5.87,5.87,0,0,0,0-8,5.29,5.29,0,0,0-7.68,0,5.88,5.88,0,0,0,0,8Zm2.47-12.9a1,1,0,0,1-.74.32,1,1,0,0,1-.72-.32,1.19,1.19,0,0,1-.29-.8,1.17,1.17,0,0,1,.29-.8.93.93,0,0,1,.72-.32,1,1,0,0,1,.74.32,1.14,1.14,0,0,1,.3.8A1.15,1.15,0,0,1,402.9,151.83Zm4.07,0a1,1,0,0,1-1.46,0,1.15,1.15,0,0,1-.3-.8,1.14,1.14,0,0,1,.3-.8,1,1,0,0,1,1.46,0,1.13,1.13,0,0,1,.29.8A1.14,1.14,0,0,1,407,151.83Z"/><path class="cls-1" d="M416.9,168.07V153.38H419l4.73,7.83,4.8-7.83h2v14.69h-2.05V157.22l-.07,0-4.73,7.59-4.63-7.48H419v10.78Z"/><path class="cls-1" d="M436.6,168.07V153.38h2.11l4.73,7.83,4.81-7.83h2v14.69h-2.05V157.22l-.06,0-4.73,7.59-4.64-7.48h-.13v10.78Z"/><path class="cls-1" d="M454.44,168.07l5.9-14.69h1.85L468,168.07h-2.27l-.89-2.26h-7.2l-.91,2.26Zm6.82-11.32-2.85,7.1h5.64Z"/><path class="cls-1" d="M472.06,168.07V153.38h5.45a4.58,4.58,0,0,1,3.3,1.28,4.54,4.54,0,0,1-2.58,7.82l4.26,5.59H480l-4.22-5.61h-1.63v5.61Zm5.17-12.73h-3.12v5.3h3.1a3,3,0,0,0,2.08-.72,2.67,2.67,0,0,0,0-3.82A2.86,2.86,0,0,0,477.23,155.34Z"/></svg>