<svg id="Layer_1" data-name="Layer 1" xmlns="http://www.w3.org/2000/svg" viewBox="0 0 580 400"><defs><style>.cls-1{fill:#d4ac76;}</style></defs><title>text</title><path class="cls-1" d="M187.34,248.84a6.42,6.42,0,0,1-2.48-.52,6.57,6.57,0,0,1-2.13-1.44l1.56-1.87a4.73,4.73,0,0,0,1.45,1.17,3.71,3.71,0,0,0,1.73.46,2.17,2.17,0,0,0,1.41-.45,1.42,1.42,0,0,0,.54-1.13,2,2,0,0,0-1.44-1.83l-1.46-.58a5.6,5.6,0,0,1-2.19-1.45,3.36,3.36,0,0,1-.7-2.24,3.41,3.41,0,0,1,1.11-2.49,3.81,3.81,0,0,1,2.79-1.1,5.66,5.66,0,0,1,4,1.5l-1.45,1.84a3.38,3.38,0,0,0-2.59-1.14,1.76,1.76,0,0,0-1.18.37,1.16,1.16,0,0,0-.45.93,1.22,1.22,0,0,0,.35.9,3.63,3.63,0,0,0,1.13.68l1.53.61c2,.78,2.94,2.05,3,3.79a3.67,3.67,0,0,1-1.24,2.88A4.77,4.77,0,0,1,187.34,248.84Z"/><path class="cls-1" d="M202.63,243.11h-4.86v3.36h5.34v2.2H195.3V235.53H203v2.19h-5.18v3.19h4.86Z"/><path class="cls-1" d="M216.82,248.67l-5-13.14h2.57L218,245l3.56-9.44H224l-5,13.14Z"/><path class="cls-1" d="M224.32,248.67l5.07-13.14h2.23l5,13.14h-2.54l-.69-1.82h-5.88l-.7,1.82Zm6.19-9.47-2.11,5.45h4.19Zm1.91-5.92a1.89,1.89,0,0,1-1.9,1.89,1.89,1.89,0,0,1-1.34-3.23,1.9,1.9,0,0,1,2.68,0A1.8,1.8,0,0,1,232.42,233.28Zm-2.38.49a.65.65,0,0,0,.49.21.63.63,0,0,0,.48-.21.68.68,0,0,0,.2-.49.65.65,0,0,0-.21-.49.65.65,0,0,0-1,0,.68.68,0,0,0,0,1Z"/><path class="cls-1" d="M239.4,248.67V235.53h5.14a4.41,4.41,0,0,1,3.17,1.19,4.08,4.08,0,0,1,1.26,3.11,3.94,3.94,0,0,1-.94,2.67,4.21,4.21,0,0,1-2.45,1.4l3.53,4.77h-2.77l-3.41-4.7h-1.06v4.7Zm4.76-10.95h-2.29V242h2.29a2.41,2.41,0,0,0,1.71-.58,2,2,0,0,0,.64-1.52,2.07,2.07,0,0,0-.66-1.56A2.36,2.36,0,0,0,244.16,237.72Z"/><path class="cls-1" d="M251.17,237.89v-2.36H262v2.36h-4.18v10.78h-2.46V237.89Z"/><path class="cls-1" d="M278.89,243.11H274v3.36h5.34v2.2h-7.8V235.53h7.65v2.19H274v3.19h4.86Z"/><path class="cls-1" d="M283,248.67V235.53h5.15a4.4,4.4,0,0,1,3.16,1.19,4.08,4.08,0,0,1,1.26,3.11,3.94,3.94,0,0,1-.94,2.67,4.18,4.18,0,0,1-2.45,1.4l3.53,4.77H290l-3.41-4.7h-1.06v4.7Zm4.76-10.95h-2.29V242h2.29a2.41,2.41,0,0,0,1.71-.58,2,2,0,0,0,.64-1.52,2.1,2.1,0,0,0-.65-1.56A2.39,2.39,0,0,0,287.78,237.72Z"/><path class="cls-1" d="M296.1,248.67V235.53h4.32a4,4,0,0,1,2.87,1.09,3.62,3.62,0,0,1,1.14,2.71A3.11,3.11,0,0,1,303,242a3.69,3.69,0,0,1,1.46,1.17,2.82,2.82,0,0,1,.54,1.67,3.61,3.61,0,0,1-1.15,2.79,4.13,4.13,0,0,1-2.9,1.06Zm4-10.95h-1.75V241h2a1.81,1.81,0,0,0,1.3-.49,1.6,1.6,0,0,0,.51-1.21,1.43,1.43,0,0,0-.56-1.17A2.29,2.29,0,0,0,300.13,237.72Zm.38,5.27h-2.13v3.48h2.08a2.12,2.12,0,0,0,1.48-.49,1.63,1.63,0,0,0,.55-1.27,1.61,1.61,0,0,0-.51-1.25A2.08,2.08,0,0,0,300.51,243Z"/><path class="cls-1" d="M311.33,248.87a4.53,4.53,0,0,1-2.7-.83,4.31,4.31,0,0,1-1.59-2.18l2.09-1.1A2.51,2.51,0,0,0,310,246a2.28,2.28,0,0,0,1.49.48,1.81,1.81,0,0,0,1.46-.68,2.71,2.71,0,0,0,.56-1.78v-8.52h2.47v8.61a4.56,4.56,0,0,1-1.32,3.49A4.61,4.61,0,0,1,311.33,248.87Z"/><path class="cls-1" d="M328.34,247.48a5.36,5.36,0,0,1-7.2,0,4.66,4.66,0,0,1-1.41-3.47v-8.48h2.46v8.16a3,3,0,0,0,.68,2,2.6,2.6,0,0,0,3.74,0,2.91,2.91,0,0,0,.68-2v-8.19h2.47V244A4.67,4.67,0,0,1,328.34,247.48Z"/><path class="cls-1" d="M333.82,248.67V235.53h3.75a6.44,6.44,0,0,1,4.65,1.87,6.36,6.36,0,0,1,1.94,4.74,6.16,6.16,0,0,1-2,4.69,6.75,6.75,0,0,1-4.77,1.84Zm3.78-10.95h-1.5v8.75h1.52a3.78,3.78,0,0,0,2.9-1.27,4.45,4.45,0,0,0,1.17-3.13A4.36,4.36,0,0,0,340.5,239,3.83,3.83,0,0,0,337.6,237.72Z"/><path class="cls-1" d="M345.84,248.67l5.07-13.14h2.22l5.05,13.14h-2.53l-.7-1.82h-5.88l-.7,1.82ZM352,239.2l-2.1,5.45h4.19Z"/><path class="cls-1" d="M360.92,248.67V235.53h1.72l6.47,8.26v-8.26h2.47v13.14h-1.65l-6.55-8.37v8.37Z"/><path class="cls-1" d="M375.93,248.67V235.53h3.75a6.44,6.44,0,0,1,4.65,1.87,6.35,6.35,0,0,1,1.93,4.74,6.13,6.13,0,0,1-2,4.69,6.71,6.71,0,0,1-4.76,1.84Zm3.78-10.95h-1.5v8.75h1.51a3.78,3.78,0,0,0,2.91-1.27,4.45,4.45,0,0,0,1.17-3.13,4.36,4.36,0,0,0-1.19-3.11A3.83,3.83,0,0,0,379.71,237.72Z"/><path class="cls-1" d="M397.09,243.11h-4.86v3.36h5.34v2.2h-7.8V235.53h7.65v2.19h-5.19v3.19h4.86Z"/></svg>