<svg id="Layer_1" data-name="Layer 1" xmlns="http://www.w3.org/2000/svg" viewBox="0 0 320 160"><defs><style>.cls-1{fill:#d80201;}</style></defs><title>text</title><path class="cls-1" d="M120.19,67.84h-1.38l-5.68-13.68H116l3.56,9,3.6-9H126Z"/><path class="cls-1" d="M128.33,56.64a1.46,1.46,0,0,1,0-2.92,1.46,1.46,0,0,1,0,2.92ZM127.11,67.5V58.84h2.42V67.5Z"/><path class="cls-1" d="M134.57,67.78a4.61,4.61,0,0,1-3.3-1.44l1.28-1.48a2.82,2.82,0,0,0,2,1,1,1,0,0,0,1.1-1c0-1.48-3.86-.74-3.86-3.66a2.82,2.82,0,0,1,3.1-2.74,4.46,4.46,0,0,1,2.82.92l-1.2,1.42a2.42,2.42,0,0,0-1.44-.58c-.42,0-.92.26-.92.74,0,1.26,4,.7,4,3.66C138.19,66.7,136.43,67.78,134.57,67.78Z"/><path class="cls-1" d="M145.83,67.5V62.7c0-1.18-.26-2.08-1.64-2.08s-1.86,1.1-1.86,2.4V67.5h-2.42V58.84h2.42V59.9a3.2,3.2,0,0,1,2.72-1.34,3,3,0,0,1,3.2,3.44v5.5Z"/><path class="cls-1" d="M151.75,56.64a1.46,1.46,0,0,1,0-2.92,1.46,1.46,0,0,1,0,2.92ZM150.53,67.5V58.84H153V67.5Z"/><path class="cls-1" d="M161.15,67.5V62.7c0-1.18-.26-2.08-1.64-2.08s-1.86,1.1-1.86,2.4V67.5h-2.42V58.84h2.42V59.9a3.2,3.2,0,0,1,2.72-1.34,3,3,0,0,1,3.2,3.44v5.5Z"/><path class="cls-1" d="M173.93,70.64a4.73,4.73,0,0,1-3.68,1.52c-2.22,0-4.36-1.28-4.6-3.64h2.62a1.93,1.93,0,0,0,2.06,1.58c1.52,0,2.14-1.06,2.14-2.46v-1.3a3.6,3.6,0,0,1-2.92,1.44c-2.56,0-4.12-2.06-4.12-4.5s1.6-4.72,4.24-4.72a3.24,3.24,0,0,1,2.8,1.4V58.84h2.44v8.34A4.66,4.66,0,0,1,173.93,70.64Zm-3.58-9.9a2.43,2.43,0,1,0,2.42,2.42A2.42,2.42,0,0,0,170.35,60.74Z"/><path class="cls-1" d="M180,67.78a4.61,4.61,0,0,1-3.3-1.44L178,64.86a2.82,2.82,0,0,0,2,1,1,1,0,0,0,1.1-1c0-1.48-3.86-.74-3.86-3.66a2.82,2.82,0,0,1,3.1-2.74,4.46,4.46,0,0,1,2.82.92L182,60.86a2.42,2.42,0,0,0-1.44-.58c-.42,0-.92.26-.92.74,0,1.26,4,.7,4,3.66C183.61,66.7,181.85,67.78,180,67.78Z"/><path class="cls-1" d="M191.25,67.5V62.76c0-1.2-.26-2.14-1.66-2.14s-1.84,1.16-1.84,2.44V67.5h-2.42v-15h2.42V60a3.15,3.15,0,0,1,2.72-1.4A3.31,3.31,0,0,1,193,59.62a3.44,3.44,0,0,1,.68,2.44V67.5Z"/><path class="cls-1" d="M200.17,67.78c-2.38,0-4.18-1.06-4.18-3.64v-5.3h2.42v4.9c0,1.18.5,2,1.76,2s1.76-.8,1.76-2v-4.9h2.44v5.3C204.37,66.72,202.55,67.78,200.17,67.78Z"/><path class="cls-1" d="M209.45,67.78a4.61,4.61,0,0,1-3.3-1.44l1.28-1.48a2.81,2.81,0,0,0,2,1,1,1,0,0,0,1.1-1c0-1.48-3.86-.74-3.86-3.66a2.82,2.82,0,0,1,3.1-2.74,4.46,4.46,0,0,1,2.82.92l-1.2,1.42a2.42,2.42,0,0,0-1.44-.58c-.42,0-.92.26-.92.74,0,1.26,4,.7,4,3.66C213.07,66.7,211.31,67.78,209.45,67.78Z"/><path class="cls-1" d="M224.35,56.42V67.5h-2.6V56.42h-3V54.16h8.58v2.26Z"/><path class="cls-1" d="M232.41,67.78c-2.76,0-5-1.72-5-4.6s2.2-4.62,5-4.62,4.92,1.74,4.92,4.6S235.15,67.78,232.41,67.78Zm0-7a2.43,2.43,0,1,0,2.46,2.44A2.45,2.45,0,0,0,232.39,60.74Z"/><path class="cls-1" d="M244.87,61a2.14,2.14,0,0,0-1.16-.3c-1.64,0-2.08,1.16-2.08,2.6V67.5h-2.42V58.84h2.42v1.3a2.83,2.83,0,0,1,3.58-1.38Z"/><path class="cls-1" d="M249.17,67.78a4.61,4.61,0,0,1-3.3-1.44l1.28-1.48a2.81,2.81,0,0,0,2,1,1,1,0,0,0,1.1-1c0-1.48-3.86-.74-3.86-3.66a2.82,2.82,0,0,1,3.1-2.74,4.46,4.46,0,0,1,2.82.92l-1.2,1.42a2.42,2.42,0,0,0-1.44-.58c-.42,0-.92.26-.92.74,0,1.26,4,.7,4,3.66C252.79,66.7,251,67.78,249.17,67.78Z"/><path class="cls-1" d="M254.51,67.5v-15h2.42v15Z"/><path class="cls-1" d="M265.87,67.5V66.36a3.35,3.35,0,0,1-2.82,1.42,4.63,4.63,0,0,1-.06-9.22,3.61,3.61,0,0,1,2.88,1.38v-1.1h2.44V67.5Zm-2.16-6.76a2.43,2.43,0,1,0,2.42,2.42A2.42,2.42,0,0,0,263.71,60.74Z"/><path class="cls-1" d="M276.55,67.5V62.7c0-1.18-.26-2.08-1.64-2.08S273,61.72,273,63V67.5h-2.42V58.84H273V59.9a3.2,3.2,0,0,1,2.72-1.34A3,3,0,0,1,279,62v5.5Z"/><path class="cls-1" d="M287.91,67.5V66.36a3.35,3.35,0,0,1-2.82,1.42,4.63,4.63,0,0,1-.06-9.22,3.61,3.61,0,0,1,2.88,1.38V52.52h2.44v15Zm-2.16-6.76a2.43,2.43,0,1,0,2.42,2.42A2.42,2.42,0,0,0,285.75,60.74Z"/><path class="cls-1" d="M299.29,67.5V66.36a3.35,3.35,0,0,1-2.82,1.42,4.63,4.63,0,0,1-.06-9.22,3.61,3.61,0,0,1,2.88,1.38v-1.1h2.44V67.5Zm-2.16-6.76a2.43,2.43,0,1,0,2.42,2.42A2.42,2.42,0,0,0,297.13,60.74Z"/><path class="cls-1" d="M132.88,90.88a5.53,5.53,0,0,1-4.38,1.92,5.44,5.44,0,0,1-4.38-1.92,5.76,5.76,0,0,1-1-3.56V79.16h2.6V86.8a4.51,4.51,0,0,0,.42,2.4,2.69,2.69,0,0,0,2.34,1.24,2.76,2.76,0,0,0,2.34-1.24,4.3,4.3,0,0,0,.42-2.4V79.16h2.6v8.16A5.64,5.64,0,0,1,132.88,90.88Z"/><path class="cls-1" d="M141.86,92.78a3.47,3.47,0,0,1-2.9-1.42v5.76h-2.42V83.84H139v1.1a3.45,3.45,0,0,1,2.84-1.38,4.63,4.63,0,0,1,.06,9.22Zm-.72-7a2.43,2.43,0,1,0,2.42,2.42A2.42,2.42,0,0,0,141.14,85.74Z"/><path class="cls-1" d="M153.24,92.78a3.47,3.47,0,0,1-2.9-1.42v5.76h-2.42V83.84h2.42v1.1a3.45,3.45,0,0,1,2.84-1.38,4.63,4.63,0,0,1,.06,9.22Zm-.72-7a2.43,2.43,0,1,0,2.42,2.42A2.42,2.42,0,0,0,152.52,85.74Z"/><path class="cls-1" d="M159.3,92.5v-15h2.42v15Z"/><path class="cls-1" d="M166.06,88.56c0,1.34.68,2.32,2.12,2.32a2.27,2.27,0,0,0,2.06-1.16l2.24.36a4.25,4.25,0,0,1-4.26,2.7,4.34,4.34,0,0,1-4.64-4.62,4.29,4.29,0,0,1,4.54-4.6c2.86,0,4.42,1.92,4.42,4.68v.32Zm2.1-3.28a2,2,0,0,0-2,1.74h4.1A2,2,0,0,0,168.16,85.28Z"/><path class="cls-1" d="M178.36,92.68h-1.12l-4.42-8.84h2.72l2.28,4.88,2.28-4.88h2.72Z"/><path class="cls-1" d="M201.74,92.5l-1.18-8.22-3.68,8.4h-.72l-3.54-8.4-1.34,8.22h-2.62l2.48-13.58h1.78l3.64,8.72,3.8-8.72h1.78l2.22,13.58Z"/><path class="cls-1" d="M213.18,92.8a6.92,6.92,0,0,1-7.12-6.94,7.13,7.13,0,1,1,7.12,6.94Zm0-11.56a4.6,4.6,0,1,0,4.46,4.58A4.53,4.53,0,0,0,213.18,81.24Z"/><path class="cls-1" d="M227.68,92.84H226.3l-5.68-13.68h2.84l3.56,9,3.6-9h2.82Z"/><path class="cls-1" d="M235,92.5V79.16h7.38v2.26h-4.78v3h4.6v2.26h-4.6v3.6h4.78V92.5Z"/><path class="cls-1" d="M260.08,84.8h-2l-.28,1.8h2l-.34,2.18h-2l-.6,3.72h-2.5l.6-3.72H253.1l-.58,3.72H250l.6-3.72h-2.06l.34-2.18H251l.28-1.8h-2l.34-2.2h2l.54-3.44h2.48l-.56,3.44h1.84l.54-3.44h2.5l-.54,3.44h2Zm-6.36,0-.28,1.8h1.84l.28-1.8Z"/><path class="cls-1" d="M265.66,92.84a4.53,4.53,0,0,1-4.8-4.18h2.62a2.17,2.17,0,1,0,2.26-2.34,3.8,3.8,0,0,0-.48,0V84.48a2.12,2.12,0,0,0,.36,0,1.81,1.81,0,1,0-1.76-1.86H261.4a4.09,4.09,0,0,1,4.46-3.82c2.22,0,4.06,1.32,4.06,3.68a3,3,0,0,1-1.54,2.84,3.28,3.28,0,0,1,2,3.28C270.42,91.34,268.2,92.84,265.66,92.84Z"/><path class="cls-1" d="M277.38,92.84c-3.68,0-5.16-3.88-5.16-7s1.46-7,5.16-7,5.16,3.86,5.16,7S281.08,92.84,277.38,92.84Zm0-11.72c-2,0-2.56,3.16-2.56,4.7s.52,4.74,2.56,4.74,2.56-3.2,2.56-4.74S279.42,81.12,277.38,81.12Z"/><path class="cls-1" d="M287.84,92.84a5.7,5.7,0,0,1-4.26-1.74l.86-2.24a4.47,4.47,0,0,0,3.36,1.7A2.64,2.64,0,0,0,290.46,88a2.85,2.85,0,0,0-3-2.66,4.41,4.41,0,0,0-2.56.84h-.14l1.58-7h6.16v2.28h-4.4l-.52,2.06a8.09,8.09,0,0,1,1-.08,4.48,4.48,0,0,1,4.54,4.66C293.06,91.1,290.7,92.84,287.84,92.84Z"/></svg>