<svg id="Layer_1" data-name="Layer 1" xmlns="http://www.w3.org/2000/svg" viewBox="0 0 320 160"><defs><style>.cls-1{fill:#d80201;}</style></defs><title>text</title><path class="cls-1" d="M131.94,67.5H127V52.82h3.63a5.79,5.79,0,0,1,3.59.88,3.92,3.92,0,0,1,1.32,3,3.08,3.08,0,0,1-1.61,2.95,3.34,3.34,0,0,1,1.92.92,4,4,0,0,1,1.06,2.75C136.91,66.27,134.58,67.5,131.94,67.5Zm-1.23-12.34h-.84v3.78h.81c1.28,0,2.22-.51,2.22-1.89S132,55.16,130.71,55.16Zm.48,6h-1.32v4.07h1.23c1.41,0,2.86-.33,2.86-2S132.56,61.12,131.19,61.12Z"/><path class="cls-1" d="M141.36,63.17c0,1.47.75,2.55,2.33,2.55A2.5,2.5,0,0,0,146,64.44l2.46.4a4.67,4.67,0,0,1-4.69,3,4.78,4.78,0,0,1-5.1-5.08,4.72,4.72,0,0,1,5-5.06c3.15,0,4.86,2.11,4.86,5.15v.35Zm2.31-3.61a2.16,2.16,0,0,0-2.22,1.91H146A2.21,2.21,0,0,0,143.67,59.56Z"/><path class="cls-1" d="M153.57,67.81a5.07,5.07,0,0,1-3.63-1.58l1.41-1.63a3.09,3.09,0,0,0,2.24,1.12,1.12,1.12,0,0,0,1.21-1.06c0-1.63-4.25-.81-4.25-4,0-1.94,1.61-3,3.41-3a4.91,4.91,0,0,1,3.1,1l-1.32,1.56a2.66,2.66,0,0,0-1.58-.64c-.46,0-1,.29-1,.81,0,1.39,4.4.77,4.4,4C157.55,66.62,155.61,67.81,153.57,67.81Z"/><path class="cls-1" d="M164.39,67.81c-3,0-5.46-1.89-5.46-5.06s2.42-5.08,5.48-5.08,5.41,1.91,5.41,5.06S167.41,67.81,164.39,67.81Zm-2.31-11.62a1.58,1.58,0,0,1,0-3.17,1.58,1.58,0,0,1,0,3.17Zm2.29,3.87a2.67,2.67,0,1,0,2.71,2.68A2.69,2.69,0,0,0,164.37,60.06Zm2.29-3.87a1.61,1.61,0,0,1-1.58-1.58,1.58,1.58,0,1,1,1.58,1.58Z"/><path class="cls-1" d="M178.41,67.5l-3.59-4.09-.29.29V67.5h-2.66V51h2.66V61.45L178.1,58h3.61l-4.47,4.18,4.82,5.35Z"/><path class="cls-1" d="M200.91,67.5V62.29c0-1.12-.18-2.35-1.58-2.35-1.56,0-1.83,1.43-1.83,2.68V67.5h-2.66V62.44a4.24,4.24,0,0,0-.2-1.58,1.54,1.54,0,0,0-1.43-.92,1.74,1.74,0,0,0-1.5.86,4,4,0,0,0-.31,1.83V67.5h-2.66V58h2.66v1.08a3.66,3.66,0,0,1,2.9-1.39,3.24,3.24,0,0,1,3,1.74,3.52,3.52,0,0,1,3.13-1.74A3.13,3.13,0,0,1,203.07,59a4.19,4.19,0,0,1,.51,2.31V67.5Z"/><path class="cls-1" d="M211.08,67.81c-3,0-5.46-1.89-5.46-5.06s2.42-5.08,5.48-5.08,5.41,1.91,5.41,5.06S214.09,67.81,211.08,67.81Zm-2.31-11.62a1.58,1.58,0,0,1,0-3.17,1.58,1.58,0,0,1,0,3.17Zm2.29,3.87a2.67,2.67,0,1,0,2.71,2.68A2.69,2.69,0,0,0,211.05,60.06Zm2.29-3.87a1.61,1.61,0,0,1-1.58-1.58,1.58,1.58,0,1,1,1.58,1.58Z"/><path class="cls-1" d="M224.34,67.81a3.75,3.75,0,0,1-3.12-1.56V67.5h-2.66V51h2.66v8.16a4,4,0,0,1,3.19-1.52,5.09,5.09,0,0,1-.07,10.14Zm-.73-7.75a2.67,2.67,0,1,0,2.66,2.66A2.66,2.66,0,0,0,223.61,60.06Z"/><path class="cls-1" d="M231.07,67.5V51h2.66V67.5Z"/><path class="cls-1" d="M238.51,63.17c0,1.47.75,2.55,2.33,2.55a2.5,2.5,0,0,0,2.27-1.28l2.46.4a4.67,4.67,0,0,1-4.69,3,4.78,4.78,0,0,1-5.1-5.08,4.72,4.72,0,0,1,5-5.06c3.15,0,4.86,2.11,4.86,5.15v.35Zm2.31-3.61a2.16,2.16,0,0,0-2.22,1.91h4.51A2.21,2.21,0,0,0,240.82,59.56Z"/><path class="cls-1" d="M253.91,60.39a2.36,2.36,0,0,0-1.28-.33c-1.8,0-2.29,1.28-2.29,2.86V67.5h-2.66V58h2.66V59.4a3.11,3.11,0,0,1,3.94-1.52Z"/><path class="cls-1" d="M262.88,67.5V66.25a3.68,3.68,0,0,1-3.1,1.56c-2.86,0-4.69-2.38-4.69-5.1a4.76,4.76,0,0,1,4.62-5,4,4,0,0,1,3.17,1.52V58h2.68V67.5Zm-2.38-7.44a2.67,2.67,0,1,0,2.66,2.66A2.66,2.66,0,0,0,260.51,60.06Z"/><path class="cls-1" d="M270.8,60.26V67.5h-2.66V60.26h-1.06V58h1.06V54.72h2.66V58h1.87v2.29Z"/><path class="cls-1" d="M155.74,95.5l-1.3-9-4,9.24h-.79l-3.89-9.24-1.47,9h-2.88l2.73-14.94h2l4,9.59,4.18-9.59h2l2.44,14.94Z"/><path class="cls-1" d="M168.32,95.83a7.61,7.61,0,0,1-7.83-7.63,7.85,7.85,0,1,1,7.83,7.63Zm0-12.72a5.06,5.06,0,1,0,4.91,5A5,5,0,0,0,168.32,83.11Z"/><path class="cls-1" d="M184.27,95.87h-1.52l-6.25-15h3.13l3.92,9.86,4-9.86h3.1Z"/><path class="cls-1" d="M192.34,95.5V80.82h8.12v2.49H195.2v3.26h5.06v2.49H195.2v4h5.26V95.5Z"/><path class="cls-1" d="M219.91,87h-2.22l-.31,2h2.25l-.37,2.4H217l-.66,4.09h-2.75l.66-4.09h-2l-.64,4.09h-2.73l.66-4.09h-2.27l.37-2.4h2.27l.31-2H208l.37-2.42h2.24l.59-3.78h2.73l-.62,3.78h2l.59-3.78h2.75l-.59,3.78h2.22Zm-7,0-.31,2h2l.31-2Z"/><path class="cls-1" d="M226,95.87a5,5,0,0,1-5.28-4.6h2.88a2.39,2.39,0,1,0,2.49-2.57,4.36,4.36,0,0,0-.53,0V86.68a2.34,2.34,0,0,0,.4,0,2,2,0,1,0-1.94-2h-2.71a4.49,4.49,0,0,1,4.91-4.2c2.44,0,4.47,1.45,4.47,4A3.28,3.28,0,0,1,229,87.62a3.61,3.61,0,0,1,2.24,3.61C231.28,94.22,228.84,95.87,226,95.87Z"/><path class="cls-1" d="M238.94,95.87c-4,0-5.68-4.27-5.68-7.7s1.61-7.72,5.68-7.72,5.68,4.25,5.68,7.7S243,95.87,238.94,95.87Zm0-12.89c-2.25,0-2.82,3.48-2.82,5.17s.57,5.21,2.82,5.21,2.82-3.52,2.82-5.21S241.18,83,238.94,83Z"/><path class="cls-1" d="M248.57,95.92l-2.29-1.36L253,83.33h-6.8V80.82h11.31Z"/></svg>