<svg id="Layer_1" data-name="Layer 1" xmlns="http://www.w3.org/2000/svg" viewBox="0 0 320 160"><defs><style>.cls-1{fill:#d4ac76;}</style></defs><title>text</title><path class="cls-1" d="M167.77,52.18V40.58h2v5.11l4.44-5.11h2.69l-4.09,4.63,4.18,7h-2.5l-3.16-5.29-1.55,1.75v3.54Z"/><path class="cls-1" d="M179.11,52.18l4.47-11.59h2L190,52.18h-2.24l-.62-1.61H182l-.62,1.61Zm5.46-8.35-1.86,4.81h3.7Z"/><path class="cls-1" d="M192.71,52.18V40.58h4.54A3.91,3.91,0,0,1,200,41.64a3.61,3.61,0,0,1,1.12,2.75,3.48,3.48,0,0,1-.83,2.35A3.73,3.73,0,0,1,198.16,48l3.11,4.21h-2.44l-3-4.14h-.94v4.14Zm4.2-9.66h-2V46.3h2a2.15,2.15,0,0,0,1.51-.51,1.73,1.73,0,0,0,.56-1.34,1.82,1.82,0,0,0-.58-1.37A2.07,2.07,0,0,0,196.91,42.52Z"/><path class="cls-1" d="M204.55,52.18V40.58h2.17v9.51H211v2.08Z"/><path class="cls-1" d="M217.24,52.33a5.56,5.56,0,0,1-2.19-.46,5.7,5.7,0,0,1-1.88-1.27L214.56,49a4.2,4.2,0,0,0,1.28,1,3.28,3.28,0,0,0,1.53.41,1.87,1.87,0,0,0,1.24-.4,1.24,1.24,0,0,0,.48-1,1.73,1.73,0,0,0-1.27-1.61l-1.29-.52a5,5,0,0,1-1.93-1.28,3,3,0,0,1-.62-2,3,3,0,0,1,1-2.2,3.36,3.36,0,0,1,2.46-1A5,5,0,0,1,221,41.77l-1.28,1.62a3,3,0,0,0-2.29-1,1.55,1.55,0,0,0-1,.33,1,1,0,0,0-.39.82,1.09,1.09,0,0,0,.31.79,3.08,3.08,0,0,0,1,.6l1.35.54a3.59,3.59,0,0,1,2.63,3.35,3.24,3.24,0,0,1-1.09,2.54A4.22,4.22,0,0,1,217.24,52.33Z"/><path class="cls-1" d="M223.42,42.67V40.58H233v2.08h-3.69v9.51h-2.17V42.67Z"/><path class="cls-1" d="M233.38,52.18l4.47-11.59h2l4.46,11.59H242l-.62-1.61h-5.19l-.62,1.61Zm5.45-8.35L237,48.64h3.7Z"/><path class="cls-1" d="M247,52.18V40.58h3.31a5.68,5.68,0,0,1,4.11,1.66,5.58,5.58,0,0,1,1.71,4.18,5.42,5.42,0,0,1-1.73,4.14,5.92,5.92,0,0,1-4.2,1.62Zm3.33-9.66H249v7.73h1.34a3.34,3.34,0,0,0,2.57-1.12,3.93,3.93,0,0,0,1-2.76,3.82,3.82,0,0,0-1-2.74A3.4,3.4,0,0,0,250.32,42.52Z"/><path class="cls-1" d="M179.6,68.54a5.79,5.79,0,0,1-4.3,1.83A5.86,5.86,0,0,1,171,68.62a6,6,0,0,1,0-8.51,6,6,0,0,1,8.56,0L178,61.64a3.63,3.63,0,0,0-2.75-1.2,3.68,3.68,0,0,0-2.75,1.15,4,4,0,0,0,0,5.55,3.82,3.82,0,0,0,5.53-.07Z"/><path class="cls-1" d="M189.21,65.27h-4.29v3h4.71v1.93h-6.89V58.58h6.75v1.93h-4.57v2.82h4.29Z"/><path class="cls-1" d="M193.16,70.18V58.58h1.52l5.71,7.29V58.58h2.18V70.18h-1.46l-5.78-7.38v7.38Z"/><path class="cls-1" d="M205.37,60.67V58.58h9.56v2.08h-3.69v9.51h-2.17V60.67Z"/><path class="cls-1" d="M217.7,70.18V58.58h4.54A3.91,3.91,0,0,1,225,59.64a3.61,3.61,0,0,1,1.12,2.75,3.48,3.48,0,0,1-.83,2.35A3.73,3.73,0,0,1,223.15,66l3.12,4.21h-2.45l-3-4.14h-.94v4.14Zm4.2-9.66h-2V64.3h2a2.15,2.15,0,0,0,1.51-.51,1.73,1.73,0,0,0,.56-1.34,1.83,1.83,0,0,0-.58-1.37A2.07,2.07,0,0,0,221.9,60.52Z"/><path class="cls-1" d="M236.89,69.14a4.73,4.73,0,0,1-6.35,0,4.11,4.11,0,0,1-1.25-3.07V58.58h2.18v7.2a2.66,2.66,0,0,0,.6,1.79,2.31,2.31,0,0,0,3.3,0,2.61,2.61,0,0,0,.6-1.77V58.58h2.17v7.48A4.11,4.11,0,0,1,236.89,69.14Z"/><path class="cls-1" d="M242,70.18V58.58h2.1l3.59,5.71,3.63-5.71h2.28V70.18h-2.17V62.24l-.17,0-3.6,5.55-3.51-5.48h0v7.89Z"/></svg>