<svg id="Layer_1" data-name="Layer 1" xmlns="http://www.w3.org/2000/svg" viewBox="0 0 160 600"><defs><style>.cls-1{fill:#d80201;}.cls-2{fill:#fff;}</style></defs><title>text</title><rect class="cls-1" x="14.3" y="523.33" width="129.39" height="20.89" rx="10.44"/><path class="cls-2" d="M37.12,537.84H34.39v-8.13h2a3.27,3.27,0,0,1,2,.48,2.16,2.16,0,0,1,.73,1.67,1.71,1.71,0,0,1-.89,1.64,1.8,1.8,0,0,1,1.06.51,2.18,2.18,0,0,1,.59,1.52C39.88,537.15,38.58,537.84,37.12,537.84ZM36.44,531H36v2.09h.45c.71,0,1.24-.28,1.24-1S37.14,531,36.44,531Zm.27,3.3H36v2.26h.69c.78,0,1.58-.19,1.58-1.14S37.46,534.3,36.71,534.3Z"/><path class="cls-2" d="M41.33,537.84v-8.13h4.5v1.37H42.92v1.81h2.8v1.37h-2.8v2.2h2.91v1.38Z"/><path class="cls-2" d="M49.62,538a3.15,3.15,0,0,1-2.79-1.55l1-1a1.86,1.86,0,0,0,1.71,1.08,1.16,1.16,0,0,0,1.26-1.14c0-1.68-3.58-.88-3.58-3.5a2.39,2.39,0,0,1,2.54-2.37,3.6,3.6,0,0,1,2.38.9l-.83,1.09A1.65,1.65,0,0,0,50,530.9c-.52,0-1.13.33-1.13.91,0,1.38,3.57.7,3.57,3.54A2.62,2.62,0,0,1,49.62,538Z"/><path class="cls-2" d="M56.4,531.08v6.76H54.81v-6.76H53v-1.37h5.23v1.37Z"/><path class="cls-2" d="M64.34,537.84l-.69-1.72H60.33l-.74,1.72H57.9l3.53-8.31h1.19l3.43,8.31Zm-3.73-9a.9.9,0,0,1-.88-.88.88.88,0,1,1,.88.88Zm1.4,3.09-1.18,2.93h2.33Zm1.33-3.09a.9.9,0,0,1-.88-.88.88.88,0,1,1,.88.88Z"/><path class="cls-2" d="M67,537.84v-8.13h1.58v6.75h2.5v1.38Z"/><path class="cls-2" d="M72.17,537.84v-8.13h1.59v6.75h2.5v1.38Z"/><path class="cls-2" d="M85.42,537.84v-3.62H82v3.62H80.4v-8.13H82v3.14h3.44v-3.14H87v8.13Z"/><path class="cls-2" d="M94.38,537.84l-.7-1.72H90.37l-.75,1.72H87.94l3.52-8.31h1.2l3.42,8.31Zm-3.73-9a.89.89,0,0,1-.88-.88.88.88,0,0,1,1.76,0A.89.89,0,0,1,90.65,528.82Zm1.4,3.09-1.18,2.93H93.2Zm1.33-3.09a.89.89,0,0,1-.88-.88.88.88,0,1,1,.88.88Z"/><path class="cls-2" d="M101,537.84l-2.2-3.27h-.19v3.27H97v-8.13h2.35a3.37,3.37,0,0,1,2.08.58,2.39,2.39,0,0,1,.8,1.83,2.73,2.73,0,0,1-.46,1.49,2.11,2.11,0,0,1-1.39.8l2.56,3.43ZM99.09,531h-.47v2.45h.45c.81,0,1.56-.29,1.56-1.23S99.91,531,99.09,531Z"/><polygon class="cls-2" points="119.62 534.79 111.06 534.79 111.06 532.62 119.62 532.62 119.62 529.32 125.71 533.71 119.62 537.91 119.62 534.79"/></svg>