<svg id="Layer_1" data-name="Layer 1" xmlns="http://www.w3.org/2000/svg" viewBox="0 0 160 600"><defs><style>.cls-1{fill:#d80201;}.cls-2{fill:#fff;}</style></defs><title>text</title><rect class="cls-1" x="14.3" y="523.33" width="129.39" height="20.89" rx="10.44"/><path class="cls-2" d="M39.69,538a3.15,3.15,0,0,1-2.79-1.55l1-1a1.86,1.86,0,0,0,1.71,1.08,1.15,1.15,0,0,0,1.25-1.14c0-1.68-3.57-.88-3.57-3.5a2.39,2.39,0,0,1,2.54-2.37,3.6,3.6,0,0,1,2.38.9l-.83,1.09a1.65,1.65,0,0,0-1.32-.66c-.52,0-1.13.33-1.13.91,0,1.38,3.57.7,3.57,3.54A2.62,2.62,0,0,1,39.69,538Z"/><path class="cls-2" d="M43.92,537.84v-8.13h4.5v1.37H45.5v1.81h2.81v1.37H45.5v2.2h2.92v1.38Z"/><path class="cls-2" d="M60.53,537.84l-.72-5L57.57,538h-.44L55,532.83l-.82,5H52.56l1.51-8.28h1.08l2.22,5.31,2.32-5.31h1.08l1.36,8.28Z"/><path class="cls-2" d="M63.57,537.84v-8.13h4.5v1.37H65.16v1.81H68v1.37h-2.8v2.2h2.91v1.38Z"/><path class="cls-2" d="M73.58,537.84l-2.2-3.27h-.19v3.27H69.6v-8.13H72a3.36,3.36,0,0,1,2.07.58,2.36,2.36,0,0,1,.8,1.83,2.73,2.73,0,0,1-.46,1.49,2.11,2.11,0,0,1-1.39.8l2.56,3.43ZM71.66,531h-.47v2.45h.45c.82,0,1.56-.29,1.56-1.23S72.48,531,71.66,531Z"/><path class="cls-2" d="M84.68,537.84v-3.62H81.24v3.62H79.66v-8.13h1.58v3.14h3.44v-3.14h1.58v8.13Z"/><path class="cls-2" d="M93.63,537.84l-.69-1.72H89.62l-.74,1.72H87.2l3.52-8.31h1.2l3.42,8.31Zm-3.73-9a.89.89,0,0,1-.87-.88.88.88,0,0,1,1.75,0A.88.88,0,0,1,89.9,528.82Zm1.41,3.09-1.19,2.93h2.33Zm1.33-3.09a.89.89,0,0,1-.88-.88.88.88,0,1,1,.88.88Z"/><path class="cls-2" d="M100.26,537.84l-2.19-3.27h-.2v3.27H96.29v-8.13h2.35a3.34,3.34,0,0,1,2.07.58,2.37,2.37,0,0,1,.81,1.83,2.73,2.73,0,0,1-.46,1.49,2.14,2.14,0,0,1-1.39.8l2.56,3.43ZM98.35,531h-.48v2.45h.45c.82,0,1.56-.29,1.56-1.23S99.17,531,98.35,531Z"/><polygon class="cls-2" points="119.62 534.79 111.06 534.79 111.06 532.62 119.62 532.62 119.62 529.32 125.71 533.71 119.62 537.91 119.62 534.79"/></svg>