<svg id="Layer_1" data-name="Layer 1" xmlns="http://www.w3.org/2000/svg" viewBox="0 0 160 600"><defs><style>.cls-1{fill:#d80201;}</style></defs><title>text</title><path class="cls-1" d="M54.67,261.51H52.94l-7.09-17.1H49.4l4.44,11.2,4.5-11.2h3.53Z"/><path class="cls-1" d="M70.34,261.08v-1.42a4.17,4.17,0,0,1-3.52,1.77c-3.25,0-5.32-2.7-5.32-5.79s2.07-5.73,5.25-5.73a4.48,4.48,0,0,1,3.59,1.73v-1.38h3v10.82Zm-2.69-8.44a3,3,0,1,0,3,3A3,3,0,0,0,67.65,252.64Z"/><path class="cls-1" d="M76.3,261.08V242.36h3v18.72Z"/><path class="cls-1" d="M85.34,252.86v8.22h-3v-8.22H81.15v-2.6h1.17v-3.47a5.21,5.21,0,0,1,.48-2.55,4.28,4.28,0,0,1,3.74-2.18,3.55,3.55,0,0,1,1.6.38v2.77a3.06,3.06,0,0,0-1.37-.4c-1.35,0-1.43,1.4-1.43,2.43v3h2.8v2.6Z"/><path class="cls-1" d="M96.62,253a2.73,2.73,0,0,0-1.45-.37c-2,0-2.6,1.45-2.6,3.25v5.19h-3V250.26h3v1.63a3.47,3.47,0,0,1,3.15-2,3.56,3.56,0,0,1,1.32.25Z"/><path class="cls-1" d="M100,247.51a1.83,1.83,0,1,1,1.8-1.82A1.83,1.83,0,0,1,100,247.51ZM98.5,261.08V250.26h3v10.82Z"/><path class="cls-1" d="M112.64,261.08v-1.42a4.18,4.18,0,0,1-3.52,1.77c-3.25,0-5.32-2.7-5.32-5.79s2.07-5.73,5.24-5.73a4.49,4.49,0,0,1,3.6,1.73v-1.38h3v10.82Zm-2.7-8.44a3,3,0,1,0,3,3A3,3,0,0,0,109.94,252.64Z"/><path class="cls-1" d="M57.7,282.86v8.22h-3v-8.22h-1.2v-2.6h1.2v-3.7h3v3.7h2.12v2.6Z"/><path class="cls-1" d="M62.87,277.51a1.83,1.83,0,1,1,1.8-1.82A1.83,1.83,0,0,1,62.87,277.51Zm-1.52,13.57V280.26h3v10.82Z"/><path class="cls-1" d="M67.22,291.08V272.36h3v18.72Z"/><path class="cls-1" d="M73.15,291.08V272.36h3v18.72Z"/><path class="cls-1" d="M84.57,291.31h-1.4l-5.52-11.05H81l2.85,6.1,2.85-6.1h3.4Z"/><path class="cls-1" d="M99.34,291.08v-1.42a4.18,4.18,0,0,1-3.52,1.77c-3.25,0-5.32-2.7-5.32-5.79s2.07-5.73,5.25-5.73a4.49,4.49,0,0,1,3.59,1.73v-1.38h3v10.82Zm-2.7-8.44a3,3,0,1,0,3,3A3,3,0,0,0,96.64,282.64Z"/><path class="cls-1" d="M105.3,291.08V272.36h3v18.72Z"/><path class="cls-1" d="M70.83,312.86v8.22h-3v-8.22H66.63v-2.6h1.18v-3.47a5.32,5.32,0,0,1,.47-2.55A4.29,4.29,0,0,1,72,302.06a3.55,3.55,0,0,1,1.6.38v2.77a3.06,3.06,0,0,0-1.37-.4c-1.35,0-1.43,1.4-1.43,2.43v3h2.8v2.6Z"/><path class="cls-1" d="M80.66,321.43c-3.45,0-6.2-2.14-6.2-5.74s2.75-5.78,6.22-5.78,6.15,2.18,6.15,5.75S84.08,321.43,80.66,321.43ZM78,308.24a1.8,1.8,0,1,1,0-3.6,1.8,1.8,0,0,1,0,3.6Zm2.6,4.4a3,3,0,1,0,3.08,3.05A3.06,3.06,0,0,0,80.63,312.64Zm2.6-4.4a1.83,1.83,0,0,1-1.8-1.8,1.8,1.8,0,1,1,1.8,1.8Z"/><path class="cls-1" d="M96.23,313a2.71,2.71,0,0,0-1.45-.37c-2,0-2.6,1.45-2.6,3.25v5.19h-3V310.26h3v1.63a3.47,3.47,0,0,1,3.15-2,3.57,3.57,0,0,1,1.33.25Z"/><path class="cls-1" d="M34.81,351.51a7.15,7.15,0,0,1-5.33-2.18l1.08-2.79a5.58,5.58,0,0,0,4.2,2.12,3.3,3.3,0,0,0,3.32-3.22,3.57,3.57,0,0,0-3.8-3.33,5.54,5.54,0,0,0-3.2,1.05h-.17l2-8.75h7.7v2.85h-5.5l-.65,2.58a10.2,10.2,0,0,1,1.23-.1,5.6,5.6,0,0,1,5.67,5.82C41.33,349.33,38.38,351.51,34.81,351.51Z"/><path class="cls-1" d="M50.08,351.51c-4.6,0-6.45-4.85-6.45-8.75S45.46,334,50.08,334s6.45,4.82,6.45,8.75S54.71,351.51,50.08,351.51Zm0-14.65c-2.55,0-3.2,3.95-3.2,5.88s.65,5.92,3.2,5.92,3.2-4,3.2-5.92S52.63,336.86,50.08,336.86Z"/><path class="cls-1" d="M70.51,351.51c-4.6,0-6.45-4.85-6.45-8.75S65.88,334,70.51,334,77,338.81,77,342.74,75.13,351.51,70.51,351.51Zm0-14.65c-2.55,0-3.2,3.95-3.2,5.88s.65,5.92,3.2,5.92,3.2-4,3.2-5.92S73.06,336.86,70.51,336.86Z"/><path class="cls-1" d="M84.68,351.51c-4.6,0-6.45-4.85-6.45-8.75S80.06,334,84.68,334s6.45,4.82,6.45,8.75S89.31,351.51,84.68,351.51Zm0-14.65c-2.55,0-3.2,3.95-3.2,5.88s.65,5.92,3.2,5.92,3.2-4,3.2-5.92S87.23,336.86,84.68,336.86Z"/><path class="cls-1" d="M98.86,351.51c-4.6,0-6.45-4.85-6.45-8.75S94.23,334,98.86,334s6.44,4.82,6.44,8.75S103.48,351.51,98.86,351.51Zm0-14.65c-2.55,0-3.2,3.95-3.2,5.88s.65,5.92,3.2,5.92,3.2-4,3.2-5.92S101.41,336.86,98.86,336.86Z"/><path class="cls-1" d="M121.08,351.08,117,346.44l-.33.32v4.32h-3V332.36h3v11.85l4-3.95h4.1L119.76,345l5.47,6.07Z"/><path class="cls-1" d="M133.66,343a2.73,2.73,0,0,0-1.45-.37c-2.05,0-2.6,1.45-2.6,3.25v5.19h-3V340.26h3v1.63a3.47,3.47,0,0,1,3.15-2,3.56,3.56,0,0,1,1.32.25Z"/></svg>