<svg id="Layer_1" data-name="Layer 1" xmlns="http://www.w3.org/2000/svg" viewBox="0 0 300 600"><defs><style>.cls-1{fill:#d5ad77;}</style></defs><title>text</title><path class="cls-1" d="M63.25,84.79H51.52V92.9H64.39v5.29H45.57V66.5H64v5.29H51.52V79.5H63.25Z"/><path class="cls-1" d="M74,98.19V66.5h4.16l15.6,19.93V66.5h5.94V98.19h-4L80,78V98.19Z"/><path class="cls-1" d="M111.05,98.19V66.5h5.49v14l12.14-14H136L124.84,79.14l11.43,19h-6.85l-8.63-14.47-4.25,4.8v9.67Z"/><path class="cls-1" d="M144.67,98.19V66.5h6v26h11.64v5.7Z"/><path class="cls-1" d="M167.75,98.19,180,66.5h5.37l12.18,31.69h-6.11l-1.68-4.38H175.55l-1.69,4.38Zm14.91-22.82-5.07,13.15H187.7Z"/><path class="cls-1" d="M204.94,98.19V66.5h12.4A10.66,10.66,0,0,1,225,69.38,9.83,9.83,0,0,1,228,76.89a9.48,9.48,0,0,1-2.27,6.43,10.22,10.22,0,0,1-5.91,3.37l8.51,11.5h-6.68l-8.23-11.31h-2.56V98.19Zm11.48-26.4h-5.54V82.12h5.54a5.85,5.85,0,0,0,4.12-1.41,4.69,4.69,0,0,0,1.54-3.65,5,5,0,0,0-1.58-3.76A5.64,5.64,0,0,0,216.42,71.79Z"/><path class="cls-1" d="M255,84.79H243.23V92.9h12.88v5.29H237.29V66.5h18.45v5.29H243.23V79.5H255Z"/><path class="cls-1" d="M63.65,147.39V134.15H50.08v13.24H44.14V115.7h5.94v12.75H63.65V115.7H69.6v31.69Z"/><path class="cls-1" d="M101,144.54a12.91,12.91,0,0,1-17.35,0,11.22,11.22,0,0,1-3.42-8.38V115.7H86.2v19.68a7.28,7.28,0,0,0,1.64,4.89,6.29,6.29,0,0,0,9,0,7.11,7.11,0,0,0,1.63-4.83V115.7h6v20.46A11.22,11.22,0,0,1,101,144.54Z"/><path class="cls-1" d="M123.61,147.8a15.09,15.09,0,0,1-6-1.25,15.63,15.63,0,0,1-5.14-3.46l3.77-4.52a11.6,11.6,0,0,0,3.5,2.84,9,9,0,0,0,4.17,1.1,5.1,5.1,0,0,0,3.38-1.09,3.38,3.38,0,0,0,1.32-2.73q0-3-3.48-4.4l-3.53-1.41a13.51,13.51,0,0,1-5.27-3.5,8.1,8.1,0,0,1-1.7-5.39,8.2,8.2,0,0,1,2.69-6,9.17,9.17,0,0,1,6.72-2.65,13.69,13.69,0,0,1,9.76,3.62l-3.5,4.42a8.19,8.19,0,0,0-6.26-2.75,4.26,4.26,0,0,0-2.85.91,2.84,2.84,0,0,0-1.07,2.24,3,3,0,0,0,.84,2.17,8.42,8.42,0,0,0,2.72,1.63l3.7,1.48c4.69,1.88,7.09,4.93,7.17,9.15a8.87,8.87,0,0,1-3,6.94A11.58,11.58,0,0,1,123.61,147.8Z"/><path class="cls-1" d="M143.65,147.39V115.7h12.4a10.68,10.68,0,0,1,7.63,2.88,9.86,9.86,0,0,1,3,7.51,9.53,9.53,0,0,1-2.27,6.43,10.24,10.24,0,0,1-5.92,3.37l8.52,11.5h-6.69l-8.22-11.31h-2.56v11.31ZM155.13,121h-5.54v10.33h5.54a5.87,5.87,0,0,0,4.12-1.41,4.71,4.71,0,0,0,1.53-3.65,5,5,0,0,0-1.58-3.76A5.63,5.63,0,0,0,155.13,121Z"/><path class="cls-1" d="M193.67,134H181.94v8.11h12.87v5.29H176V115.7h18.45V121h-12.5v7.71h11.73Z"/><path class="cls-1" d="M212.87,147.8a15.17,15.17,0,0,1-6-1.25,15.69,15.69,0,0,1-5.13-3.46l3.77-4.52a11.48,11.48,0,0,0,3.5,2.84,9,9,0,0,0,4.17,1.1,5.12,5.12,0,0,0,3.38-1.09,3.38,3.38,0,0,0,1.32-2.73q0-3-3.48-4.4l-3.54-1.41a13.54,13.54,0,0,1-5.26-3.5,8,8,0,0,1-1.7-5.39,8.22,8.22,0,0,1,2.68-6,9.2,9.2,0,0,1,6.72-2.65,13.67,13.67,0,0,1,9.76,3.62l-3.5,4.42a8.16,8.16,0,0,0-6.26-2.75,4.21,4.21,0,0,0-2.84.91,2.84,2.84,0,0,0-1.07,2.24,3,3,0,0,0,.84,2.17,8.31,8.31,0,0,0,2.72,1.63l3.69,1.48q7.05,2.82,7.18,9.15a8.87,8.87,0,0,1-3,6.94A11.58,11.58,0,0,1,212.87,147.8Z"/><path class="cls-1" d="M229.42,147.39l12.22-31.69H247l12.17,31.69h-6.11L251.39,143H237.22l-1.7,4.38Zm14.91-22.82-5.07,13.15h10.1Z"/></svg>