<svg id="Layer_1" data-name="Layer 1" xmlns="http://www.w3.org/2000/svg" viewBox="0 0 160 600"><defs><style>.cls-1{fill:#d80201;}</style></defs><title>text</title><path class="cls-1" d="M64.69,261.52H63l-7.1-17.09h3.55l4.45,11.19,4.5-11.19h3.52Z"/><path class="cls-1" d="M81.66,261.1v-1.43a4.17,4.17,0,0,1-3.52,1.78c-3.25,0-5.33-2.7-5.33-5.8s2.08-5.73,5.25-5.73a4.49,4.49,0,0,1,3.6,1.73v-1.38h3V261.1Zm-5.22-12.85a1.8,1.8,0,0,1,0-3.6,1.8,1.8,0,1,1,0,3.6Zm2.52,4.4a3,3,0,1,0,3,3A3,3,0,0,0,79,252.65Zm2.68-4.4a1.83,1.83,0,0,1-1.8-1.8,1.8,1.8,0,1,1,1.8,1.8Z"/><path class="cls-1" d="M87.61,261.1V242.38h3V261.1Z"/><path class="cls-1" d="M95,247.52a1.82,1.82,0,1,1,1.8-1.82A1.83,1.83,0,0,1,95,247.52Zm-1.52,19.35v-16.6h3v16.6Z"/><path class="cls-1" d="M41.22,291.45a5.78,5.78,0,0,1-4.12-1.8l1.6-1.85a3.53,3.53,0,0,0,2.55,1.27,1.27,1.27,0,0,0,1.37-1.2c0-1.85-4.82-.92-4.82-4.57,0-2.2,1.83-3.43,3.87-3.43A5.6,5.6,0,0,1,45.2,281l-1.5,1.78a3.05,3.05,0,0,0-1.8-.73c-.53,0-1.15.33-1.15.93,0,1.57,5,.87,5,4.57C45.75,290.1,43.55,291.45,41.22,291.45Z"/><path class="cls-1" d="M53.52,291.45c-3.45,0-6.19-2.15-6.19-5.75s2.74-5.78,6.22-5.78,6.15,2.18,6.15,5.75S57,291.45,53.52,291.45Zm0-8.8a3,3,0,1,0,3.07,3.05A3.06,3.06,0,0,0,53.5,282.65Z"/><path class="cls-1" d="M62,291.1V272.38h3V291.1Z"/><path class="cls-1" d="M73.27,291.45a5.7,5.7,0,0,1-5.89-5.73,5.77,5.77,0,0,1,5.94-5.8,5.6,5.6,0,0,1,2.75.65v3a3.73,3.73,0,0,0-2.45-.92,3,3,0,1,0,0,6.07,3.67,3.67,0,0,0,2.45-.92v3A5.71,5.71,0,0,1,73.27,291.45Z"/><path class="cls-1" d="M80.9,286.17c0,1.68.85,2.9,2.65,2.9a2.81,2.81,0,0,0,2.57-1.45l2.8.45a5.3,5.3,0,0,1-5.32,3.38,5.43,5.43,0,0,1-5.8-5.78,5.36,5.36,0,0,1,5.67-5.75c3.58,0,5.53,2.4,5.53,5.85v.4Zm2.62-4.1A2.45,2.45,0,0,0,81,284.25h5.12A2.51,2.51,0,0,0,83.52,282.07Z"/><path class="cls-1" d="M91.32,291.1V272.38h3V291.1Z"/><path class="cls-1" d="M97.25,291.1V272.38h3V291.1Z"/><path class="cls-1" d="M105.7,286.17c0,1.68.85,2.9,2.65,2.9a2.81,2.81,0,0,0,2.57-1.45l2.8.45a5.3,5.3,0,0,1-5.32,3.38,5.43,5.43,0,0,1-5.8-5.78,5.36,5.36,0,0,1,5.67-5.75c3.58,0,5.53,2.4,5.53,5.85v.4Zm2.62-4.1a2.45,2.45,0,0,0-2.52,2.18h5.12A2.51,2.51,0,0,0,108.32,282.07Z"/><path class="cls-1" d="M123.2,283a2.73,2.73,0,0,0-1.45-.37c-2,0-2.6,1.45-2.6,3.25v5.2h-3V280.27h3v1.63a3.47,3.47,0,0,1,3.15-2,3.56,3.56,0,0,1,1.32.25Z"/><path class="cls-1" d="M68,321.45c-3.45,0-6.2-2.15-6.2-5.75s2.75-5.78,6.23-5.78,6.14,2.18,6.14,5.75S71.39,321.45,68,321.45Zm0-8.8A3,3,0,1,0,71,315.7,3.06,3.06,0,0,0,67.94,312.65Z"/><path class="cls-1" d="M81.79,321.45a5.7,5.7,0,0,1-5.9-5.73,5.78,5.78,0,0,1,6-5.8,5.66,5.66,0,0,1,2.75.65v3a3.73,3.73,0,0,0-2.45-.92,3,3,0,1,0,0,6.07,3.69,3.69,0,0,0,2.45-.92v3A5.77,5.77,0,0,1,81.79,321.45Z"/><path class="cls-1" d="M94.64,321.1v-5.93c0-1.5-.33-2.67-2.08-2.67s-2.3,1.45-2.3,3.05v5.55h-3V302.38h3v9.29a4,4,0,0,1,3.4-1.75,4.13,4.13,0,0,1,3.15,1.33,4.31,4.31,0,0,1,.85,3.05v6.8Z"/><path class="cls-1" d="M46.7,342.87v8.23h-3v-8.23H42.5v-2.6h1.18V336.8a5.34,5.34,0,0,1,.47-2.55,4.28,4.28,0,0,1,3.75-2.17,3.61,3.61,0,0,1,1.6.37v2.78a3,3,0,0,0-1.38-.4c-1.35,0-1.42,1.39-1.42,2.42v3h2.8v2.6Z"/><path class="cls-1" d="M59.17,351.1v-1.43a4.17,4.17,0,0,1-3.52,1.78c-3.25,0-5.32-2.7-5.32-5.8s2.07-5.73,5.24-5.73a4.49,4.49,0,0,1,3.6,1.73v-1.38h3V351.1Zm-2.7-8.45a3,3,0,1,0,3,3A3,3,0,0,0,56.47,342.65Zm-.42-4.27a2.25,2.25,0,0,1,0-4.5,2.25,2.25,0,1,1,0,4.5Zm0-3.13a.88.88,0,1,0,.87.88A.85.85,0,0,0,56.05,335.25Z"/><path class="cls-1" d="M85.2,351.1v-5.93c0-1.27-.2-2.67-1.8-2.67-1.78,0-2.08,1.62-2.08,3.05v5.55h-3v-5.75a4.72,4.72,0,0,0-.23-1.8,1.74,1.74,0,0,0-1.62-1.05,2,2,0,0,0-1.7,1,4.46,4.46,0,0,0-.35,2.08v5.55h-3V340.27h3v1.23a4.14,4.14,0,0,1,3.3-1.58,3.67,3.67,0,0,1,3.37,2,4,4,0,0,1,3.55-2,3.57,3.57,0,0,1,3,1.55,4.79,4.79,0,0,1,.57,2.63v7Z"/><path class="cls-1" d="M93.65,346.17c0,1.68.85,2.9,2.65,2.9a2.81,2.81,0,0,0,2.57-1.45l2.8.45a5.3,5.3,0,0,1-5.32,3.38,5.43,5.43,0,0,1-5.8-5.78,5.36,5.36,0,0,1,5.67-5.75c3.58,0,5.53,2.4,5.53,5.85v.4Zm2.62-4.1a2.45,2.45,0,0,0-2.52,2.18h5.12A2.51,2.51,0,0,0,96.27,342.07Z"/><path class="cls-1" d="M111.15,343a2.73,2.73,0,0,0-1.45-.37c-2,0-2.6,1.45-2.6,3.25v5.2h-3V340.27h3v1.63a3.47,3.47,0,0,1,3.15-2,3.56,3.56,0,0,1,1.32.25Z"/><path class="cls-1" d="M114.75,351.42a1.95,1.95,0,1,1,2-1.95A1.95,1.95,0,0,1,114.75,351.42Zm-1.55-5.1V334.43h3.1v11.89Z"/></svg>