<svg id="Layer_1" data-name="Layer 1" xmlns="http://www.w3.org/2000/svg" viewBox="0 0 160 600"><defs><style>.cls-1{fill:#d80201;}</style></defs><title>text</title><path class="cls-1" d="M9.66,292.43,14,287.52c1.19-1.34,3.37-3.56,3.37-5.43a2.2,2.2,0,0,0-2.23-2.18c-1.45,0-2.13,1.08-2.18,2.42H9.91a4.91,4.91,0,0,1,5.14-4.95c2.76,0,5.18,1.8,5.18,4.71,0,2-1.35,3.72-2.67,5.13L15,289.94h5.33v2.49Z"/><path class="cls-1" d="M28,292.8c-4,0-5.68-4.26-5.68-7.7s1.61-7.72,5.68-7.72,5.68,4.25,5.68,7.7S32.06,292.8,28,292.8Zm0-12.89c-2.24,0-2.82,3.48-2.82,5.17s.58,5.22,2.82,5.22,2.82-3.52,2.82-5.22S30.24,279.91,28,279.91Z"/><path class="cls-1" d="M47.53,292.43v-5.21c0-1.32-.29-2.36-1.83-2.36s-2,1.28-2,2.69v4.88H41V276h2.67v8.18a3.47,3.47,0,0,1,3-1.54,3.65,3.65,0,0,1,2.77,1.17,3.8,3.8,0,0,1,.75,2.69v6Z"/><path class="cls-1" d="M57.34,292.74c-2.62,0-4.6-1.17-4.6-4V282.9H55.4v5.39c0,1.3.55,2.18,1.94,2.18s1.93-.88,1.93-2.18V282.9H62v5.83C62,291.57,60,292.74,57.34,292.74Z"/><path class="cls-1" d="M67.55,292.74a5.05,5.05,0,0,1-3.63-1.59l1.4-1.62a3.15,3.15,0,0,0,2.25,1.12,1.13,1.13,0,0,0,1.21-1.06c0-1.63-4.25-.81-4.25-4,0-1.94,1.61-3,3.41-3a4.91,4.91,0,0,1,3.1,1l-1.32,1.57a2.6,2.6,0,0,0-1.58-.64c-.46,0-1,.28-1,.81,0,1.39,4.4.77,4.4,4C71.53,291.55,69.59,292.74,67.55,292.74Z"/><path class="cls-1" d="M85.59,292.43v-5.21c0-1.13-.18-2.36-1.59-2.36-1.56,0-1.82,1.43-1.82,2.69v4.88H79.51v-5.06a4.4,4.4,0,0,0-.19-1.58,1.55,1.55,0,0,0-1.43-.93,1.74,1.74,0,0,0-1.5.86,3.91,3.91,0,0,0-.31,1.83v4.88H73.42V282.9h2.66V284A3.68,3.68,0,0,1,79,282.59a3.26,3.26,0,0,1,3,1.74,3.53,3.53,0,0,1,3.12-1.74A3.13,3.13,0,0,1,87.74,284a4.2,4.2,0,0,1,.51,2.31v6.16Z"/><path class="cls-1" d="M95.75,292.74c-3,0-5.46-1.89-5.46-5.06s2.42-5.09,5.48-5.09,5.41,1.92,5.41,5.07S98.76,292.74,95.75,292.74Zm0-7.75a2.68,2.68,0,1,0,2.7,2.69A2.7,2.7,0,0,0,95.73,285Z"/><path class="cls-1" d="M110.51,292.43v-1.25a3.68,3.68,0,0,1-3.1,1.56c-2.86,0-4.69-2.38-4.69-5.11a4.77,4.77,0,0,1,4.62-5,4,4,0,0,1,3.17,1.52V276h2.69v16.48ZM108.14,285a2.68,2.68,0,1,0,2.66,2.67A2.66,2.66,0,0,0,108.14,285Z"/><path class="cls-1" d="M118,288.1c0,1.47.75,2.55,2.33,2.55a2.5,2.5,0,0,0,2.27-1.28l2.46.4a4.67,4.67,0,0,1-4.68,3,5.08,5.08,0,0,1-.11-10.15c3.14,0,4.86,2.12,4.86,5.15v.36Zm2.31-3.61a2.16,2.16,0,0,0-2.22,1.91h4.51A2.21,2.21,0,0,0,120.28,284.49Z"/><path class="cls-1" d="M127.14,292.43V276h2.66v16.48Z"/><path class="cls-1" d="M132.36,292.43V276H135v16.48Z"/><path class="cls-1" d="M139.79,288.1c.05,1.47.75,2.55,2.34,2.55a2.49,2.49,0,0,0,2.26-1.28l2.47.4a4.68,4.68,0,0,1-4.69,3,4.78,4.78,0,0,1-5.11-5.08,4.73,4.73,0,0,1,5-5.07c3.15,0,4.86,2.12,4.86,5.15v.36Zm2.31-3.61a2.16,2.16,0,0,0-2.22,1.91h4.51A2.2,2.2,0,0,0,142.1,284.49Z"/><path class="cls-1" d="M155.19,285.32a2.37,2.37,0,0,0-1.27-.33c-1.81,0-2.29,1.28-2.29,2.86v4.58H149V282.9h2.66v1.43a3.07,3.07,0,0,1,2.77-1.74,3.15,3.15,0,0,1,1.17.22Z"/><path class="cls-1" d="M16.13,312.6V316H13.45V312.6H10v-2.46h3.43v-3.43h2.68v3.43h3.44v2.46Z"/><path class="cls-1" d="M28.36,306.88a1.61,1.61,0,1,1,1.59-1.6A1.6,1.6,0,0,1,28.36,306.88ZM27,318.83V309.3h2.66v9.53Z"/><path class="cls-1" d="M38.71,318.83v-5.28c0-1.3-.29-2.29-1.81-2.29s-2,1.21-2,2.64v4.93H32.19V309.3h2.66v1.17a3.53,3.53,0,0,1,3-1.48,3.3,3.3,0,0,1,3.52,3.79v6.05Z"/><path class="cls-1" d="M47,319.14a5.09,5.09,0,0,1-3.63-1.59l1.41-1.62A3.13,3.13,0,0,0,47,317.05,1.13,1.13,0,0,0,48.19,316c0-1.63-4.25-.81-4.25-4,0-1.93,1.61-3,3.41-3a4.91,4.91,0,0,1,3.1,1l-1.32,1.56a2.65,2.65,0,0,0-1.58-.63c-.46,0-1,.28-1,.81,0,1.39,4.4.77,4.4,4C50.94,318,49,319.14,47,319.14Z"/><path class="cls-1" d="M58.68,319.14a3.82,3.82,0,0,1-3.19-1.56v6.33H52.83V309.3h2.66v1.21A3.8,3.8,0,0,1,58.61,309a5.09,5.09,0,0,1,.07,10.15Zm-.79-7.75a2.68,2.68,0,1,0,2.66,2.66A2.65,2.65,0,0,0,57.89,311.39Z"/><path class="cls-1" d="M66.64,306.88a1.61,1.61,0,1,1,1.59-1.6A1.6,1.6,0,0,1,66.64,306.88ZM65.3,318.83V309.3H68v9.53Z"/><path class="cls-1" d="M76.7,311.72a2.38,2.38,0,0,0-1.28-.33c-1.8,0-2.29,1.28-2.29,2.86v4.58H70.47V309.3h2.66v1.43A3.07,3.07,0,0,1,75.91,309a3.1,3.1,0,0,1,1.16.22Z"/><path class="cls-1" d="M85.67,318.83v-1.25a3.67,3.67,0,0,1-3.1,1.56c-2.86,0-4.69-2.38-4.69-5.11a4.77,4.77,0,0,1,4.63-5,4,4,0,0,1,3.16,1.52V309.3h2.69v9.53Zm-2.37-7.44A2.68,2.68,0,1,0,86,314.05,2.65,2.65,0,0,0,83.3,311.39Z"/><path class="cls-1" d="M93.59,311.59v7.24H90.93v-7.24H89.88V309.3h1.05v-3.25h2.66v3.25h1.87v2.29Z"/><path class="cls-1" d="M98.15,306.88a1.61,1.61,0,1,1,0-3.21,1.61,1.61,0,0,1,0,3.21ZM96.8,318.83V309.3h2.67v9.53Z"/><path class="cls-1" d="M106.92,319.14c-3,0-5.45-1.89-5.45-5.06S103.89,309,107,309s5.41,1.92,5.41,5.06S109.94,319.14,106.92,319.14Zm0-7.75a2.68,2.68,0,1,0,2.71,2.69A2.7,2.7,0,0,0,106.9,311.39Z"/><path class="cls-1" d="M120.92,318.83v-5.28c0-1.3-.29-2.29-1.81-2.29s-2,1.21-2,2.64v4.93H114.4V309.3h2.67v1.17a3.52,3.52,0,0,1,3-1.48,3.3,3.3,0,0,1,3.52,3.79v6.05Z"/></svg>