<svg id="Layer_1" data-name="Layer 1" xmlns="http://www.w3.org/2000/svg" viewBox="0 0 300 600"><defs><style>.cls-1{fill:#d5ad77;}</style></defs><title>text</title><path class="cls-1" d="M85.7,248l-5.43-13.91h2.18l4.17,10.69,4.18-10.69H93L87.5,248Z"/><path class="cls-1" d="M94.13,248l5.59-13.91h1.75L107,248H104.8l-.84-2.14H97.14L96.28,248Zm5-15.39a.92.92,0,0,1-1.38,0,1.1,1.1,0,0,1-.27-.76,1.08,1.08,0,0,1,.27-.75.92.92,0,0,1,1.38,0,1.05,1.05,0,0,1,.29.75A1.07,1.07,0,0,1,99.15,232.61Zm1.44,4.67L97.89,244h5.34Zm2.42-4.67a.93.93,0,0,1-.69.31.9.9,0,0,1-.69-.31,1.07,1.07,0,0,1-.28-.76,1,1,0,0,1,.28-.75.86.86,0,0,1,.69-.31.89.89,0,0,1,.69.31,1,1,0,0,1,.28.75A1.07,1.07,0,0,1,103,232.61Z"/><path class="cls-1" d="M110.81,248V234.09H116a4.32,4.32,0,0,1,3.13,1.21,4.31,4.31,0,0,1-2.44,7.41l4,5.29h-2.4l-4-5.31h-1.55V248Zm4.91-12.06h-3v5h2.94a2.8,2.8,0,0,0,2-.69,2.31,2.31,0,0,0,.76-1.83,2.38,2.38,0,0,0-.77-1.78A2.72,2.72,0,0,0,115.72,235.94Z"/><path class="cls-1" d="M125.25,248V234.09H129A7,7,0,0,1,133.85,246a6.81,6.81,0,0,1-4.94,2Zm3.8-12.06H127.2v10.21h1.91a4.5,4.5,0,0,0,3.43-1.5,5.14,5.14,0,0,0,1.39-3.63,5,5,0,0,0-1.44-3.62A4.65,4.65,0,0,0,129.05,235.94Z"/><path class="cls-1" d="M148.33,241.9H142.6v4.25h6.12V248h-8.06V234.09h8v1.85h-6V240h5.73Z"/><path class="cls-1" d="M153.55,248V234.09h7.59v1.85h-5.65v4.37h5v1.86h-5V248Z"/><path class="cls-1" d="M170.19,248.23a4.84,4.84,0,0,1-3.63-1.45,5.06,5.06,0,0,1-1.42-3.68v-9h1.94V243a3.63,3.63,0,0,0,.83,2.44,2.86,2.86,0,0,0,2.28,1,2.92,2.92,0,0,0,2.3-.94,3.53,3.53,0,0,0,.84-2.44v-8.91h1.94v9a5.09,5.09,0,0,1-1.41,3.68A4.9,4.9,0,0,1,170.19,248.23Z"/><path class="cls-1" d="M180.8,248V234.09h1.94v12.06h5.73V248Z"/><path class="cls-1" d="M192.73,248V234.09h2v12.06h5.72V248Z"/><path class="cls-1" d="M200.76,235.94v-1.85H212v1.85h-4.66V248h-2V235.94Z"/><path class="cls-1" d="M88.44,262.9H82.72v4.25h6.12V269H80.77V255.09h8v1.85h-6V261h5.72Z"/><path class="cls-1" d="M93.66,269V255.09h5.16A4.35,4.35,0,0,1,102,256.3a4.14,4.14,0,0,1,1.26,3.14,4.14,4.14,0,0,1-3.71,4.27l4,5.29h-2.39l-4-5.31H95.61V269Zm4.91-12.06h-3v5h2.94a2.82,2.82,0,0,0,2-.69,2.35,2.35,0,0,0,.76-1.83,2.38,2.38,0,0,0-.77-1.78A2.72,2.72,0,0,0,98.57,256.94Z"/><path class="cls-1" d="M108.1,269V255.09h4.25a4.49,4.49,0,0,1,3.07,1.07,3.62,3.62,0,0,1,1.21,2.81,3.28,3.28,0,0,1-1.66,3,3.54,3.54,0,0,1,1.5,1.25,3.27,3.27,0,0,1,.56,1.87,3.6,3.6,0,0,1-1.22,2.85A4.57,4.57,0,0,1,112.7,269Zm4.06-12.06H110v4.23h2.48a2.14,2.14,0,0,0,2.17-2.21,1.8,1.8,0,0,0-.7-1.47A2.85,2.85,0,0,0,112.16,256.94Zm.43,6H110v4.25h2.42a2.87,2.87,0,0,0,1.92-.6,2,2,0,0,0,.7-1.59,1.91,1.91,0,0,0-.64-1.49A2.71,2.71,0,0,0,112.59,262.9Z"/><path class="cls-1" d="M124.55,269.22a4.67,4.67,0,0,1-2.76-.83,4.33,4.33,0,0,1-1.65-2.24l1.8-.89a3.06,3.06,0,0,0,1,1.53,2.47,2.47,0,0,0,1.63.57,2.36,2.36,0,0,0,1.88-.79,3.14,3.14,0,0,0,.69-2.15v-9.33h1.95v9.28a4.86,4.86,0,0,1-1.26,3.59A4.42,4.42,0,0,1,124.55,269.22Z"/><path class="cls-1" d="M139.19,269.23a4.86,4.86,0,0,1-3.63-1.45,5.1,5.1,0,0,1-1.42-3.68v-9h2V264a3.58,3.58,0,0,0,.83,2.44,2.84,2.84,0,0,0,2.27,1,2.91,2.91,0,0,0,2.3-.94,3.53,3.53,0,0,0,.84-2.44v-8.91h1.95v9a5.1,5.1,0,0,1-1.42,3.68A4.89,4.89,0,0,1,139.19,269.23Z"/><path class="cls-1" d="M149.8,269V255.09h3.73A7,7,0,0,1,158.4,267a6.81,6.81,0,0,1-4.94,2Zm3.81-12.06h-1.86v10.21h1.91a4.5,4.5,0,0,0,3.43-1.5,5.1,5.1,0,0,0,1.39-3.63A5,5,0,0,0,157,258.4,4.64,4.64,0,0,0,153.61,256.94Z"/><path class="cls-1" d="M163.18,269l5.58-13.91h1.76L176,269h-2.15l-.84-2.14h-6.82l-.86,2.14Zm6.46-10.72L166.93,265h5.35Z"/><path class="cls-1" d="M179.86,269V255.09h1.36l7.53,9.58v-9.58h1.95V269h-1.08l-7.81-9.93V269Z"/><path class="cls-1" d="M196.51,269V255.09h3.73A7,7,0,0,1,205.11,267a6.81,6.81,0,0,1-4.94,2Zm3.81-12.06h-1.86v10.21h1.91a4.5,4.5,0,0,0,3.43-1.5,5.14,5.14,0,0,0,1.39-3.63,5,5,0,0,0-1.44-3.62A4.64,4.64,0,0,0,200.32,256.94Z"/><path class="cls-1" d="M219.59,262.9h-5.73v4.25H220V269h-8.06V255.09h8v1.85h-6V261h5.73Z"/><path class="cls-1" d="M109.37,290l-5.43-13.91h2.18l4.17,10.69,4.18-10.69h2.15L111.17,290Z"/><path class="cls-1" d="M117.8,290l5.59-13.91h1.75L130.62,290h-2.15l-.84-2.14h-6.82L120,290Zm5-15.39a.92.92,0,0,1-1.38,0,1.11,1.11,0,0,1-.28-.76,1.09,1.09,0,0,1,.28-.75.92.92,0,0,1,1.38,0,1.05,1.05,0,0,1,.29.75A1.07,1.07,0,0,1,122.82,274.61Zm1.44,4.67-2.7,6.72h5.34Zm2.42-4.67a.93.93,0,0,1-.69.31.9.9,0,0,1-.69-.31,1.07,1.07,0,0,1-.28-.76,1,1,0,0,1,.28-.75.86.86,0,0,1,.69-.31.89.89,0,0,1,.69.31,1,1,0,0,1,.28.75A1.07,1.07,0,0,1,126.68,274.61Z"/><path class="cls-1" d="M134.48,290V276.09h1.36l7.54,9.58v-9.58h1.94V290h-1.08l-7.81-9.93V290Z"/><path class="cls-1" d="M149.3,277.94v-1.85h11.27v1.85H155.9V290H154V277.94Z"/><path class="cls-1" d="M161.47,290l5.58-13.91h1.76L174.29,290h-2.15l-.84-2.14h-6.82l-.86,2.14Zm6.46-10.72L165.22,286h5.35Z"/><path class="cls-1" d="M178.15,290V276.09h5.17a4.32,4.32,0,0,1,3.13,1.21,4.14,4.14,0,0,1,1.26,3.14,4.14,4.14,0,0,1-3.7,4.27l4,5.29h-2.4l-4-5.31H180.1V290Zm4.91-12.06h-3v5H183a2.82,2.82,0,0,0,2-.69,2.35,2.35,0,0,0,.76-1.83,2.38,2.38,0,0,0-.77-1.78A2.72,2.72,0,0,0,183.06,277.94Z"/></svg>