<svg id="Layer_1" data-name="Layer 1" xmlns="http://www.w3.org/2000/svg" viewBox="0 0 160 600"><defs><style>.cls-1{fill:#d80201;}</style></defs><title>text</title><path class="cls-1" d="M6.21,292.43l4.34-4.91c1.19-1.34,3.37-3.56,3.37-5.43a2.2,2.2,0,0,0-2.23-2.18c-1.45,0-2.13,1.08-2.18,2.42h-3a4.92,4.92,0,0,1,5.15-4.95c2.75,0,5.17,1.8,5.17,4.71,0,2-1.35,3.72-2.67,5.12l-2.55,2.73h5.33v2.49Z"/><path class="cls-1" d="M24.54,292.8c-4.05,0-5.68-4.26-5.68-7.7s1.61-7.72,5.68-7.72,5.68,4.25,5.68,7.7S28.61,292.8,24.54,292.8Zm0-12.89c-2.24,0-2.82,3.48-2.82,5.17s.58,5.22,2.82,5.22,2.82-3.53,2.82-5.22S26.79,279.91,24.54,279.91Z"/><path class="cls-1" d="M44.08,292.43v-5.22c0-1.32-.29-2.35-1.83-2.35s-2,1.28-2,2.68v4.89H37.56V276h2.67v8.18a3.47,3.47,0,0,1,3-1.54A3.65,3.65,0,0,1,46,283.76a3.78,3.78,0,0,1,.75,2.68v6Z"/><path class="cls-1" d="M53.89,292.74c-2.62,0-4.6-1.17-4.6-4V282.9H52v5.39c0,1.3.55,2.18,1.94,2.18s1.94-.88,1.94-2.18V282.9h2.68v5.83C58.51,291.57,56.51,292.74,53.89,292.74Z"/><path class="cls-1" d="M64.1,292.74a5.05,5.05,0,0,1-3.63-1.59l1.4-1.62a3.15,3.15,0,0,0,2.25,1.12,1.13,1.13,0,0,0,1.21-1.06c0-1.63-4.25-.81-4.25-4,0-1.93,1.61-3,3.41-3a4.91,4.91,0,0,1,3.1,1l-1.32,1.56a2.65,2.65,0,0,0-1.58-.63c-.46,0-1,.28-1,.81,0,1.39,4.4.77,4.4,4C68.08,291.55,66.14,292.74,64.1,292.74Z"/><path class="cls-1" d="M82.14,292.43v-5.22c0-1.12-.18-2.35-1.59-2.35-1.56,0-1.82,1.43-1.82,2.68v4.89H76.06v-5.06a4.43,4.43,0,0,0-.19-1.59,1.55,1.55,0,0,0-1.43-.92,1.74,1.74,0,0,0-1.5.86,3.87,3.87,0,0,0-.31,1.82v4.89H70V282.9h2.66V284a3.68,3.68,0,0,1,2.91-1.39,3.26,3.26,0,0,1,3,1.74,3.52,3.52,0,0,1,3.12-1.74A3.13,3.13,0,0,1,84.29,284a4.2,4.2,0,0,1,.51,2.31v6.16Z"/><path class="cls-1" d="M92.3,292.74c-3,0-5.46-1.89-5.46-5.06s2.42-5.09,5.48-5.09,5.42,1.92,5.42,5.06S95.31,292.74,92.3,292.74Zm0-7.75a2.68,2.68,0,1,0,2.7,2.69A2.7,2.7,0,0,0,92.28,285Z"/><path class="cls-1" d="M107.06,292.43v-1.25a3.68,3.68,0,0,1-3.1,1.56c-2.86,0-4.69-2.38-4.69-5.11a4.77,4.77,0,0,1,4.62-5,4,4,0,0,1,3.17,1.52V276h2.69v16.48ZM104.69,285a2.68,2.68,0,1,0,2.66,2.66A2.66,2.66,0,0,0,104.69,285Z"/><path class="cls-1" d="M114.52,288.1c0,1.47.75,2.55,2.33,2.55a2.5,2.5,0,0,0,2.27-1.28l2.46.4a4.67,4.67,0,0,1-4.68,3,4.78,4.78,0,0,1-5.11-5.09,4.72,4.72,0,0,1,5-5.06c3.14,0,4.86,2.12,4.86,5.15v.36Zm2.31-3.61a2.15,2.15,0,0,0-2.22,1.91h4.51A2.21,2.21,0,0,0,116.83,284.49Z"/><path class="cls-1" d="M123.69,292.43V276h2.66v16.48Z"/><path class="cls-1" d="M128.91,292.43V276h2.66v16.48Z"/><path class="cls-1" d="M136.34,288.1c0,1.47.75,2.55,2.34,2.55a2.49,2.49,0,0,0,2.26-1.28l2.47.4a4.68,4.68,0,0,1-4.69,3,4.78,4.78,0,0,1-5.11-5.09,4.72,4.72,0,0,1,5-5.06c3.15,0,4.86,2.12,4.86,5.15v.36Zm2.31-3.61a2.15,2.15,0,0,0-2.22,1.91h4.51A2.2,2.2,0,0,0,138.65,284.49Z"/><path class="cls-1" d="M151.74,285.32a2.37,2.37,0,0,0-1.27-.33c-1.81,0-2.29,1.28-2.29,2.86v4.58h-2.66V282.9h2.66v1.43a3,3,0,0,1,2.77-1.74,3.15,3.15,0,0,1,1.17.22Z"/><path class="cls-1" d="M28.06,312.6V316H25.38V312.6H21.94v-2.46h3.44v-3.43h2.68v3.43h3.43v2.46Z"/><path class="cls-1" d="M40.29,306.88a1.61,1.61,0,1,1,1.59-1.6A1.6,1.6,0,0,1,40.29,306.88ZM39,318.83V309.3h2.66v9.53Z"/><path class="cls-1" d="M50.63,318.83v-5.28c0-1.3-.28-2.29-1.8-2.29s-2,1.21-2,2.64v4.93H44.12V309.3h2.66v1.17a3.53,3.53,0,0,1,3-1.48,3.3,3.3,0,0,1,3.52,3.79v6.05Z"/><path class="cls-1" d="M58.88,319.14a5.09,5.09,0,0,1-3.63-1.59l1.41-1.62a3.11,3.11,0,0,0,2.24,1.12A1.13,1.13,0,0,0,60.12,316c0-1.63-4.25-.81-4.25-4,0-1.93,1.6-3,3.41-3a4.93,4.93,0,0,1,3.1,1l-1.32,1.56a2.65,2.65,0,0,0-1.58-.63c-.47,0-1,.28-1,.81,0,1.39,4.41.77,4.41,4C62.87,318,60.93,319.14,58.88,319.14Z"/><path class="cls-1" d="M70.61,319.14a3.82,3.82,0,0,1-3.19-1.56v6.33H64.76V309.3h2.66v1.21A3.8,3.8,0,0,1,70.54,309a5.09,5.09,0,0,1,.07,10.15Zm-.79-7.75a2.68,2.68,0,1,0,2.66,2.66A2.66,2.66,0,0,0,69.82,311.39Z"/><path class="cls-1" d="M78.57,306.88a1.61,1.61,0,1,1,1.59-1.6A1.6,1.6,0,0,1,78.57,306.88Zm-1.34,11.95V309.3h2.66v9.53Z"/><path class="cls-1" d="M88.63,311.72a2.38,2.38,0,0,0-1.28-.33c-1.8,0-2.29,1.28-2.29,2.86v4.58H82.4V309.3h2.66v1.43A3.07,3.07,0,0,1,87.83,309a3.15,3.15,0,0,1,1.17.22Z"/><path class="cls-1" d="M97.6,318.83v-1.25a3.68,3.68,0,0,1-3.1,1.56c-2.86,0-4.69-2.38-4.69-5.11a4.77,4.77,0,0,1,4.62-5,4,4,0,0,1,3.17,1.52V309.3h2.69v9.53Zm-2.37-7.44a2.68,2.68,0,1,0,2.66,2.66A2.66,2.66,0,0,0,95.23,311.39Z"/><path class="cls-1" d="M105.52,311.59v7.24h-2.66v-7.24H101.8V309.3h1.06v-3.25h2.66v3.25h1.87v2.29Z"/><path class="cls-1" d="M110.07,306.88a1.61,1.61,0,1,1,1.59-1.6A1.6,1.6,0,0,1,110.07,306.88Zm-1.34,11.95V309.3h2.66v9.53Z"/><path class="cls-1" d="M118.85,319.14c-3,0-5.45-1.89-5.45-5.06s2.42-5.09,5.48-5.09,5.41,1.92,5.41,5.06S121.87,319.14,118.85,319.14Zm0-7.75a2.68,2.68,0,1,0,2.71,2.69A2.7,2.7,0,0,0,118.83,311.39Z"/><path class="cls-1" d="M132.84,318.83v-5.28c0-1.3-.28-2.29-1.8-2.29s-2,1.21-2,2.64v4.93h-2.66V309.3H129v1.17a3.55,3.55,0,0,1,3-1.48,3.3,3.3,0,0,1,3.52,3.79v6.05Z"/></svg>