<svg id="Layer_1" data-name="Layer 1" xmlns="http://www.w3.org/2000/svg" viewBox="0 0 160 600"><defs><style>.cls-1{fill:#d80201;}</style></defs><title>text</title><path class="cls-1" d="M20.75,258.58v4.14H26.6v3.16H20.75v8.2H17.11V255.42H27v3.16Z"/><path class="cls-1" d="M36,274.49c-3.86,0-6.94-2.41-6.94-6.44s3.08-6.47,7-6.47S42.87,264,42.87,268,39.79,274.49,36,274.49Zm0-9.86A3.4,3.4,0,1,0,39.37,268,3.43,3.43,0,0,0,35.93,264.63Z"/><path class="cls-1" d="M53.4,265.05a3,3,0,0,0-1.62-.42c-2.3,0-2.91,1.62-2.91,3.64v5.82H45.48V262h3.39v1.82a4,4,0,0,1,5-1.93Z"/><path class="cls-1" d="M71,274.1v-6.64c0-1.43-.22-3-2-3-2,0-2.32,1.82-2.32,3.42v6.22H63.31v-6.44a5.4,5.4,0,0,0-.25-2,2,2,0,0,0-1.82-1.18,2.21,2.21,0,0,0-1.9,1.09,5,5,0,0,0-.39,2.32v6.22H55.56V262h3.39v1.37a4.65,4.65,0,0,1,3.7-1.76,4.12,4.12,0,0,1,3.78,2.21,4.48,4.48,0,0,1,4-2.21,4,4,0,0,1,3.39,1.74,5.34,5.34,0,0,1,.64,2.94v7.84Z"/><path class="cls-1" d="M86.94,274.1v-1.6a4.68,4.68,0,0,1-3.95,2c-3.64,0-6-3-6-6.5s2.32-6.41,5.88-6.41a5.05,5.05,0,0,1,4,1.93V262h3.42V274.1Zm-3-9.46A3.4,3.4,0,1,0,87.31,268,3.38,3.38,0,0,0,83.92,264.63Z"/><path class="cls-1" d="M109.88,274.1v-1.6a4.68,4.68,0,0,1-3.95,2c-3.64,0-6-3-6-6.5s2.32-6.41,5.88-6.41a5.05,5.05,0,0,1,4,1.93V253.13h3.42v21Zm-3-9.46a3.4,3.4,0,1,0,3.39,3.39A3.38,3.38,0,0,0,106.85,264.63Z"/><path class="cls-1" d="M118.19,258.89a2,2,0,1,1,0-4.09,2,2,0,0,1,0,4.09Zm-1.71,15.2V262h3.39V274.1Z"/><path class="cls-1" d="M126.48,264.88v9.21h-3.39v-9.21h-1.34V262h1.34v-4.14h3.39V262h2.38v2.91Z"/><path class="cls-1" d="M134,264.88v9.21h-3.39v-9.21h-1.34V262h1.34v-4.14H134V262h2.38v2.91Z"/><path class="cls-1" d="M24.87,307.7v-6.64c0-1.68-.36-3-2.32-3S20,299.69,20,301.48v6.22H16.58v-21H20v10.42a4.42,4.42,0,0,1,3.81-2,4.63,4.63,0,0,1,3.53,1.48,4.81,4.81,0,0,1,1,3.42v7.62Z"/><path class="cls-1" d="M37.36,308.09c-3.33,0-5.85-1.48-5.85-5.1v-7.42h3.39v6.86c0,1.65.7,2.77,2.46,2.77s2.46-1.12,2.46-2.77v-6.86h3.42V303C43.24,306.61,40.69,308.09,37.36,308.09Z"/><path class="cls-1" d="M50.35,308.09a6.44,6.44,0,0,1-4.62-2L47.52,304a3.94,3.94,0,0,0,2.86,1.43,1.43,1.43,0,0,0,1.54-1.34c0-2.07-5.4-1-5.4-5.12,0-2.46,2-3.84,4.34-3.84a6.24,6.24,0,0,1,3.95,1.29l-1.68,2a3.38,3.38,0,0,0-2-.81c-.59,0-1.29.36-1.29,1,0,1.76,5.6,1,5.6,5.12C55.42,306.58,53,308.09,50.35,308.09Z"/><path class="cls-1" d="M72.27,308.09a4.85,4.85,0,0,1-4.06-2v8.06H64.82V295.57h3.39v1.54a4.83,4.83,0,0,1,4-1.93c3.61,0,6,3,6,6.47S75.83,308.09,72.27,308.09Zm-1-9.86a3.4,3.4,0,1,0,3.39,3.39A3.38,3.38,0,0,0,71.26,298.23Z"/><path class="cls-1" d="M90,307.7v-1.6a4.68,4.68,0,0,1-3.95,2c-3.64,0-6-3-6-6.5s2.32-6.41,5.88-6.41a5.05,5.05,0,0,1,4,1.93v-1.54h3.42V307.7Zm-3-9.46a3.4,3.4,0,1,0,3.39,3.39A3.38,3.38,0,0,0,87,298.23Zm-.48-4.79a2.52,2.52,0,0,1,0-5,2.52,2.52,0,1,1,0,5Zm0-3.5a1,1,0,1,0,1,1A1,1,0,0,0,86.52,289.94Z"/><path class="cls-1" d="M107.19,298.48v9.21H103.8v-9.21h-1.32v-2.91h1.32v-3.89a5.92,5.92,0,0,1,.53-2.86,4.8,4.8,0,0,1,4.2-2.44,4,4,0,0,1,1.79.42v3.11a3.38,3.38,0,0,0-1.54-.45c-1.51,0-1.6,1.57-1.6,2.72v3.39h3.14v2.91Z"/><path class="cls-1" d="M114.72,302.18c.06,1.88,1,3.25,3,3.25a3.18,3.18,0,0,0,2.88-1.62l3.14.5a5.94,5.94,0,0,1-6,3.78,6.08,6.08,0,0,1-6.5-6.47c0-3.86,2.46-6.44,6.36-6.44s6.19,2.69,6.19,6.55v.45Zm2.94-4.59a2.75,2.75,0,0,0-2.83,2.44h5.74A2.81,2.81,0,0,0,117.66,297.59Z"/><path class="cls-1" d="M141.88,307.7v-6.64c0-1.43-.22-3-2-3-2,0-2.32,1.82-2.32,3.42v6.22h-3.39v-6.44a5.4,5.4,0,0,0-.25-2,2,2,0,0,0-1.82-1.18,2.21,2.21,0,0,0-1.9,1.09,5,5,0,0,0-.39,2.32v6.22h-3.39V295.57h3.39v1.37a4.65,4.65,0,0,1,3.7-1.76,4.12,4.12,0,0,1,3.78,2.21,4.48,4.48,0,0,1,4-2.21,4,4,0,0,1,3.39,1.74,5.34,5.34,0,0,1,.64,2.94v7.84Z"/><path class="cls-1" d="M32.06,341.3v-6.64c0-1.43-.22-3-2-3-2,0-2.32,1.82-2.32,3.42v6.22H24.34v-6.44a5.4,5.4,0,0,0-.25-2,2,2,0,0,0-1.82-1.18,2.21,2.21,0,0,0-1.9,1.09,5,5,0,0,0-.39,2.32v6.22H16.58V329.17H20v1.37a4.65,4.65,0,0,1,3.7-1.76A4.12,4.12,0,0,1,27.44,331a4.48,4.48,0,0,1,4-2.21,4,4,0,0,1,3.39,1.74,5.33,5.33,0,0,1,.64,2.94v7.84Z"/><path class="cls-1" d="M40.35,326.09a2,2,0,1,1,0-4.09,2,2,0,0,1,0,4.09Zm-1.71,15.2V329.17H42V341.3Z"/><path class="cls-1" d="M53.51,341.3v-6.72c0-1.65-.36-2.91-2.3-2.91-2.1,0-2.6,1.54-2.6,3.36v6.27H45.22V329.17h3.39v1.48a4.48,4.48,0,0,1,3.81-1.87,4.19,4.19,0,0,1,4.48,4.82v7.7Z"/><path class="cls-1" d="M66,341.69c-3.33,0-5.85-1.48-5.85-5.1v-7.42h3.39V336c0,1.65.7,2.77,2.46,2.77s2.46-1.12,2.46-2.77v-6.86h3.42v7.42C71.88,340.21,69.33,341.69,66,341.69Z"/><path class="cls-1" d="M78.54,332.08v9.21H75.16v-9.21H73.81v-2.91h1.34V325h3.39v4.14h2.38v2.91Z"/><path class="cls-1" d="M85.52,335.78c.06,1.88,1,3.25,3,3.25a3.18,3.18,0,0,0,2.88-1.62l3.14.5a5.94,5.94,0,0,1-6,3.78,6.08,6.08,0,0,1-6.5-6.47c0-3.86,2.46-6.44,6.36-6.44s6.19,2.69,6.19,6.55v.45Zm2.94-4.59a2.75,2.75,0,0,0-2.83,2.44h5.74A2.81,2.81,0,0,0,88.46,331.19Z"/><path class="cls-1" d="M105.12,332.25a3,3,0,0,0-1.62-.42c-2.3,0-2.91,1.62-2.91,3.64v5.82H97.19V329.17h3.39V331a4,4,0,0,1,5-1.93Z"/><path class="cls-1" d="M107.92,341.66a2.18,2.18,0,1,1,2.18-2.18A2.19,2.19,0,0,1,107.92,341.66Z"/></svg>