<svg xmlns="http://www.w3.org/2000/svg" viewBox="0 0 100.86 57.28"><defs><style>.cls-1{fill:#78c0a8;}</style></defs><title>Asset 1aaa</title><g id="Layer_2" data-name="Layer 2"><g id="Layer_1-2" data-name="Layer 1"><rect class="cls-1" width="4.59" height="3.15"/><rect class="cls-1" x="9.63" width="4.59" height="3.15"/><rect class="cls-1" x="19.25" width="4.59" height="3.15"/><rect class="cls-1" x="28.88" width="4.59" height="3.15"/><rect class="cls-1" x="38.51" width="4.59" height="3.15"/><rect class="cls-1" y="8.22" width="4.59" height="5.75"/><rect class="cls-1" x="9.63" y="8.22" width="4.59" height="5.75"/><rect class="cls-1" x="19.25" y="8.22" width="4.59" height="5.75"/><rect class="cls-1" x="28.88" y="8.22" width="4.59" height="5.75"/><rect class="cls-1" x="38.51" y="8.22" width="4.59" height="5.75"/><rect class="cls-1" y="19.05" width="4.59" height="5.75"/><rect class="cls-1" x="9.63" y="19.05" width="4.59" height="5.75"/><rect class="cls-1" x="19.25" y="19.05" width="4.59" height="5.75"/><rect class="cls-1" x="28.88" y="19.05" width="4.59" height="5.75"/><rect class="cls-1" x="38.51" y="19.05" width="4.59" height="5.75"/><rect class="cls-1" y="29.88" width="4.59" height="5.75"/><rect class="cls-1" x="9.63" y="29.88" width="4.59" height="5.75"/><rect class="cls-1" x="19.25" y="29.88" width="4.59" height="5.75"/><rect class="cls-1" x="28.88" y="29.88" width="4.59" height="5.75"/><rect class="cls-1" x="38.51" y="29.88" width="4.59" height="5.75"/><rect class="cls-1" y="40.7" width="4.59" height="5.75"/><rect class="cls-1" x="9.63" y="40.7" width="4.59" height="5.75"/><rect class="cls-1" x="19.25" y="40.7" width="4.59" height="5.75"/><rect class="cls-1" x="28.88" y="40.7" width="4.59" height="5.75"/><rect class="cls-1" x="38.51" y="40.7" width="4.59" height="5.75"/><rect class="cls-1" x="48.13" y="40.7" width="4.59" height="5.75"/><rect class="cls-1" x="57.76" y="40.7" width="4.59" height="5.75"/><rect class="cls-1" x="67.39" y="40.7" width="4.59" height="5.75"/><rect class="cls-1" x="77.01" y="40.7" width="4.59" height="5.75"/><rect class="cls-1" x="86.64" y="40.7" width="4.59" height="5.75"/><rect class="cls-1" x="96.27" y="40.7" width="4.59" height="5.75"/><rect class="cls-1" y="51.53" width="4.59" height="5.75"/><rect class="cls-1" x="9.63" y="51.53" width="4.59" height="5.75"/><rect class="cls-1" x="19.25" y="51.53" width="4.59" height="5.75"/><rect class="cls-1" x="28.88" y="51.53" width="4.59" height="5.75"/><rect class="cls-1" x="38.51" y="51.53" width="4.59" height="5.75"/><rect class="cls-1" x="48.13" y="51.53" width="4.59" height="5.75"/><rect class="cls-1" x="57.76" y="51.53" width="4.59" height="5.75"/><rect class="cls-1" x="67.39" y="51.53" width="4.59" height="5.75"/><rect class="cls-1" x="77.01" y="51.53" width="4.59" height="5.75"/><rect class="cls-1" x="86.64" y="51.53" width="4.59" height="5.75"/><rect class="cls-1" x="96.27" y="51.53" width="4.59" height="5.75"/></g></g></svg>