<svg id="Layer_1" data-name="Layer 1" xmlns="http://www.w3.org/2000/svg" viewBox="0 0 251.45 127.02"><title>Capra-logo_black</title><path d="M330.7,344.38c-3.83,3.37-10.27,5.07-15.81,5.29-14.29.57-19.26-7.27-19.65-15.49s5.81-16.94,19.71-17.5A22.25,22.25,0,0,1,329.26,321l-4.68,4a14.88,14.88,0,0,0-9.4-2.61c-9.29.37-13.07,6.23-12.8,11.51s4.17,10.56,13.67,10.18a16,16,0,0,0,9.54-3.6Z" transform="translate(-295.22 -222.68)"/><path d="M360.78,317.56l-7.72,14.22-9.44,17.3h7.86l3.3-6H374.9l3.25,6h7.91l-17.18-31.52Zm-3.08,20,7.14-13.47L372,337.54Z" transform="translate(-295.22 -222.68)"/><path d="M521.38,317.56l-7.72,14.22-9.43,17.3h7.86l3.3-6h20.12l3.24,6h7.92l-17.19-31.52Zm-3.08,20,7.15-13.47,7.14,13.47Z" transform="translate(-295.22 -222.68)"/><path d="M424.53,317.56H405.27l0,8.81v22.7h7.26v-9.31h10.88c16.62,0,18.54-17.37,5.9-21.5a15.63,15.63,0,0,0-4.8-.7m-1.1,16.73H412.55V323.07h10.88c9.24,0,9.29,11.22,0,11.22" transform="translate(-295.22 -222.68)"/><path d="M491.37,349.07,480.49,339c11.28-3.38,11.39-17.06.42-20.7a15.59,15.59,0,0,0-4.89-.73H456.78v8.81h0v22.7h7.26v-9.31h8.37l9.87,9.31Zm-16.44-14.78H464.05V323.07h10.88c9.24,0,9.3,11.22,0,11.22" transform="translate(-295.22 -222.68)"/><path d="M418.16,276A17.35,17.35,0,1,1,434,270.24c.1-.1,18.94-7.14,23-8.67.07-.89.1-1.79.1-2.71A36.18,36.18,0,1,0,420.94,295c17.66,0,32.37-12.05,35.55-28.78-7.42,3.06-12.17,4.81-12.17,4.81s-3.16,1.2-10.17,3.6A34.41,34.41,0,0,1,418.16,276Z" transform="translate(-295.22 -222.68)"/><path d="M421,317.56" transform="translate(-295.22 -222.68)"/></svg>