<svg id="Layer_1" data-name="Layer 1" xmlns="http://www.w3.org/2000/svg" viewBox="0 0 300 600"><defs><style>.cls-1{fill:#d5ad77;}</style></defs><title>text</title><path class="cls-1" d="M122.08,103.19V68.41h4.58l17.11,21.87V68.41h6.53v34.78h-4.37L128.61,81.05v22.14Z"/><path class="cls-1" d="M181.09,68.41h7L176.58,89.06v14.13h-6.53V89.29L158.4,68.41h7.16l7.85,14.42Z"/><path class="cls-1" d="M32,157.19V122.41h6v15.33l13.32-15.33H59.4L47.13,136.29l12.54,20.9H52.15l-9.47-15.88L38,146.58v10.61Z"/><path class="cls-1" d="M66,157.19l13.42-34.78h5.89l13.37,34.78H92l-1.85-4.81H74.57l-1.85,4.81Zm16.37-25.05-5.57,14.43h11.1Z"/><path class="cls-1" d="M100,128.66v-6.25H128.7v6.25H117.63v28.53H111.1V128.66Z"/><path class="cls-1" d="M129.91,157.19l13.42-34.78h5.89l13.37,34.78h-6.71L154,152.38H138.48l-1.86,4.81Zm16.37-25.05-5.57,14.43h11.1Z"/><path class="cls-1" d="M170.73,157.19V122.41h6.52v28.53H190v6.25Z"/><path class="cls-1" d="M231.25,139.78A18,18,0,1,1,226,127,17.31,17.31,0,0,1,231.25,139.78ZM205,148.08a11.43,11.43,0,0,0,16.35,0,11.94,11.94,0,0,0,0-16.65,11.43,11.43,0,0,0-16.35,0,12,12,0,0,0,0,16.65Z"/><path class="cls-1" d="M263.74,142.66v-5.81h12.47l0,3a17.8,17.8,0,0,1-2.54,9.23,17.46,17.46,0,0,1-6.59,6.41,17.94,17.94,0,0,1-8.87,2.27,18,18,0,1,1,.09-36.09,17.18,17.18,0,0,1,13,5.62l-4.45,4.4a11.25,11.25,0,0,0-8.55-3.76,11.08,11.08,0,0,0-8.33,3.4,12.32,12.32,0,0,0,0,16.77,10.61,10.61,0,0,0,7.89,3.41,12.35,12.35,0,0,0,7.74-2.42,11,11,0,0,0,4.1-6.4Z"/></svg>