<svg id="Layer_1" data-name="Layer 1" xmlns="http://www.w3.org/2000/svg" viewBox="0 0 300 600"><defs><style>.cls-1{fill:#fff;}</style></defs><title>text</title><path class="cls-1" d="M17.7,33.54H27.92q.93,0,.93,1.23T27.92,36H16.35Q15,36,15,34.92V17.59c0-.73.45-1.09,1.35-1.09H27.92q.93,0,.93,1.23T27.92,19H17.7v5.58h8.13c.62,0,.94.42.94,1.24S26.45,27,25.83,27H17.7Z"/><path class="cls-1" d="M34.81,27.47V35c0,.7-.45,1-1.34,1s-1.35-.35-1.36-1V27.12a9.25,9.25,0,0,1,.48-3.73,5.21,5.21,0,0,1,.89-1.28c.64-.58,2.25-.88,4.83-.88a8.14,8.14,0,0,1,2.61.27,1,1,0,0,1,.66.95,1.42,1.42,0,0,1-.37,1,1.27,1.27,0,0,1-.92.34l-2-.13a8.93,8.93,0,0,0-2.3.17,2.2,2.2,0,0,0-.68.34,2.91,2.91,0,0,0-.32.68,3.74,3.74,0,0,0-.19,1.05C34.81,26.3,34.81,26.82,34.81,27.47Z"/><path class="cls-1" d="M64.21,17V28.87a17.7,17.7,0,0,1-.33,3.83,4.17,4.17,0,0,1-1.18,2.23,4.39,4.39,0,0,1-2,1,14.26,14.26,0,0,1-3.12.26A16.14,16.14,0,0,1,54.46,36a4.48,4.48,0,0,1-2-1,4.06,4.06,0,0,1-1.18-2.25,20.09,20.09,0,0,1-.31-3.83A18.38,18.38,0,0,1,51.27,25a4.16,4.16,0,0,1,3.19-3.45,14.9,14.9,0,0,1,3.46-.3,8.81,8.81,0,0,1,3.59.6V17q0-1.08,1.35-1.08C63.76,15.9,64.21,16.26,64.21,17ZM54,25.43a7.89,7.89,0,0,0-.32,2.69c0,1.27,0,2.29.1,3.05a3.67,3.67,0,0,0,.76,2,2.36,2.36,0,0,0,1.76.6c.29,0,.74,0,1.34,0,1.76,0,2.79-.21,3.1-.63a4,4,0,0,0,.78-2c.07-.73.1-1.48.1-2.27q0-3.49-.66-4.23a3.38,3.38,0,0,0-.51-.54,3.52,3.52,0,0,0-2.11-.41c-1.08,0-1.76,0-2.06,0a2.3,2.3,0,0,0-1.74.62A8.37,8.37,0,0,0,54,25.43Z"/><path class="cls-1" d="M79.43,33.42c.61,0,.92.37.92,1.12a1.21,1.21,0,0,1-.92,1.34,23.09,23.09,0,0,1-4.88.35c-2.29,0-3.92-.37-4.91-1.11a4.42,4.42,0,0,1-1.49-3.73v-5.5c0-1.83.45-3.07,1.35-3.7s2.57-1,5-1,4.11.31,5,.91,1.28,1.86,1.28,3.75v2.38a1.71,1.71,0,0,1-.39,1.14,1.34,1.34,0,0,1-1,.41H70.84v1.75q0,2.22,3.86,2.2a23.26,23.26,0,0,0,2.93-.17A15,15,0,0,1,79.43,33.42ZM70.84,25.9v1.55h7.24V25.9a1.93,1.93,0,0,0-.73-1.75,6.16,6.16,0,0,0-2.86-.45,6.64,6.64,0,0,0-2.87.42A1.89,1.89,0,0,0,70.84,25.9Z"/><path class="cls-1" d="M89.84,36A3.75,3.75,0,0,1,87,35.12a4.39,4.39,0,0,1-.81-3V23.86H84.29c-.61,0-.91-.4-.91-1.19s.3-1.19.91-1.19h1.89V17.67q0-1.05,1.35-1.05t1.35,1.05v3.81h3.81c.61,0,.92.4.92,1.19s-.31,1.19-.92,1.19H88.88v8.45c0,.82.48,1.23,1.46,1.23l2.55-.15c.62,0,.94.36.94,1.09a1.39,1.39,0,0,1-1,1.43C92.21,36,91.21,36,89.84,36Z"/><path class="cls-1" d="M108.81,36a3.75,3.75,0,0,1-2.85-.88,4.39,4.39,0,0,1-.81-3V23.86h-1.89c-.61,0-.91-.4-.91-1.19s.3-1.19.91-1.19h1.89V17.67q0-1.05,1.35-1.05c.9,0,1.34.35,1.34,1.05v3.81h3.82c.61,0,.92.4.92,1.19s-.31,1.19-.92,1.19h-3.82v8.45q0,1.23,1.47,1.23l2.55-.15c.62,0,.94.36.94,1.09a1.39,1.39,0,0,1-1,1.43C111.18,36,110.18,36,108.81,36Z"/><path class="cls-1" d="M118.26,27.47V35c0,.7-.45,1-1.34,1s-1.35-.35-1.36-1V27.12a9.25,9.25,0,0,1,.48-3.73,5.49,5.49,0,0,1,.89-1.28c.65-.58,2.25-.88,4.83-.88a8.14,8.14,0,0,1,2.61.27,1,1,0,0,1,.66.95,1.38,1.38,0,0,1-.37,1,1.27,1.27,0,0,1-.92.34l-2-.13a8.93,8.93,0,0,0-2.3.17,2,2,0,0,0-.67.34,2.5,2.5,0,0,0-.33.68,3.74,3.74,0,0,0-.19,1.05C118.26,26.3,118.26,26.82,118.26,27.47Z"/><path class="cls-1" d="M131.06,41.84c-.77,0-1.16-.34-1.17-1,0,0,0-.18.1-.48L131.6,36a2.5,2.5,0,0,1-1.46-1.55L125.88,23c-.06-.31-.09-.47-.09-.49,0-.7.38-1.05,1.16-1.05s1.25.26,1.45.79l4,11.28h.15l4-11.28c.2-.52.68-.78,1.46-.78s1.15.35,1.15,1c0,0,0,.18-.09.49l-6.59,18.06C132.32,41.59,131.83,41.84,131.06,41.84Z"/><path class="cls-1" d="M152.41,19.82c0-.64.44-1,1.34-1s1.35.33,1.35,1V26.2c0,1.89-.47,3.13-1.42,3.72a9.37,9.37,0,0,1-4.73.89,21.56,21.56,0,0,1-4.4-.28v2.32H150c2,0,3.43.36,4.16,1.07a4.92,4.92,0,0,1,1.09,3.6c0,1.67-.49,2.83-1.47,3.45s-2.71,1-5.19,1a11.61,11.61,0,0,1-5.24-.85c-1-.56-1.51-1.72-1.52-3.47V25.8a5.06,5.06,0,0,1,.83-3.28,4.58,4.58,0,0,1,3.17-1.14,25.49,25.49,0,0,1,6.55.31Zm-7.86,6.32c0,1.08.21,1.73.6,2a7.28,7.28,0,0,0,2.9.34,12.94,12.94,0,0,0,3.11-.24,1.49,1.49,0,0,0,1-.73,4.45,4.45,0,0,0,.21-1.63V24.06a33.56,33.56,0,0,0-4.29-.31,6.18,6.18,0,0,0-2.76.44,2,2,0,0,0-.81,1.84Zm0,9.08V37.7a1.46,1.46,0,0,0,1,1.43,8.71,8.71,0,0,0,3.17.41,6.59,6.59,0,0,0,3-.44,1.8,1.8,0,0,0,.76-1.7,1.89,1.89,0,0,0-.73-1.72,5.38,5.38,0,0,0-2.64-.46Z"/><path class="cls-1" d="M163.7,36a3.74,3.74,0,0,1-2.85-.88,4.39,4.39,0,0,1-.81-3V23.86h-1.9c-.6,0-.9-.4-.9-1.19s.3-1.19.9-1.19H160V17.67c0-.7.45-1.05,1.34-1.05s1.35.35,1.35,1.05v3.81h3.82c.61,0,.91.4.91,1.19s-.3,1.19-.91,1.19h-3.82v8.45q0,1.23,1.47,1.23l2.55-.15c.62,0,.93.36.93,1.09a1.38,1.38,0,0,1-1,1.43C166.07,36,165.07,36,163.7,36Z"/><path class="cls-1" d="M179.17,24.09c-.63,0-.94-.37-.94-1.11a1.22,1.22,0,0,1,.94-1.35,21,21,0,0,1,4.86-.4c2.27,0,3.8.37,4.6,1.09s1.22,2,1.22,3.78v5.78c0,1.81-.44,3-1.32,3.53s-2.57.82-5.06.82-4.16-.27-5-.82-1.25-1.71-1.25-3.51.33-3,1-3.71,2-1,4-1h5V25.63a1.66,1.66,0,0,0-.69-1.52A5,5,0,0,0,184,23.7a19.27,19.27,0,0,0-3.06.2A11,11,0,0,1,179.17,24.09Zm8,8V29.55H183a5.11,5.11,0,0,0-2.5.39c-.38.25-.57.83-.57,1.72s.24,1.49.71,1.75a7.44,7.44,0,0,0,2.86.36,8.34,8.34,0,0,0,2.88-.32A1.32,1.32,0,0,0,187.15,32.1Zm-5.23-12.39a2.68,2.68,0,0,1-.8-2,2.78,2.78,0,1,1,4.74,2,2.8,2.8,0,0,1-3.94,0Zm.78-2a1.16,1.16,0,0,0,1.21,1.2,1.11,1.11,0,0,0,.84-.35,1.21,1.21,0,0,0,.35-.86,1.17,1.17,0,0,0-.35-.85,1.14,1.14,0,0,0-.86-.35,1.15,1.15,0,0,0-.86.35A1.12,1.12,0,0,0,182.7,17.73Z"/><path class="cls-1" d="M204.16,17V35q0,1-1.35,1t-1.35-1V17c0-.73.45-1.09,1.35-1.09S204.16,16.26,204.16,17Z"/><path class="cls-1" d="M210.13,24.09q-.93,0-.93-1.11a1.22,1.22,0,0,1,.93-1.35,21.07,21.07,0,0,1,4.87-.4c2.26,0,3.8.37,4.6,1.09s1.21,2,1.21,3.78v5.78c0,1.81-.44,3-1.31,3.53s-2.57.82-5.05.82-4.16-.27-5-.82-1.27-1.71-1.27-3.51.33-3,1-3.71,2-1,4-1h5V25.63a1.66,1.66,0,0,0-.69-1.52A5,5,0,0,0,215,23.7a19.44,19.44,0,0,0-3.06.2A10.91,10.91,0,0,1,210.13,24.09Zm8,8V29.55H214a5.16,5.16,0,0,0-2.51.39c-.38.25-.57.83-.57,1.72s.24,1.49.71,1.75a7.53,7.53,0,0,0,2.87.36,8.41,8.41,0,0,0,2.89-.32A1.32,1.32,0,0,0,218.12,32.1Z"/><path class="cls-1" d="M235.51,19.82c0-.64.45-1,1.34-1s1.35.33,1.35,1V26.2c0,1.89-.47,3.13-1.42,3.72a9.35,9.35,0,0,1-4.72.89,21.67,21.67,0,0,1-4.41-.28v2.32h5.48c2,0,3.43.36,4.16,1.07a4.92,4.92,0,0,1,1.09,3.6c0,1.67-.49,2.83-1.47,3.45s-2.71,1-5.19,1a11.61,11.61,0,0,1-5.24-.85c-1-.56-1.51-1.72-1.52-3.47V25.8a5.06,5.06,0,0,1,.83-3.28A4.58,4.58,0,0,1,229,21.38a25.49,25.49,0,0,1,6.55.31Zm-7.86,6.32c0,1.08.21,1.73.6,2a7.28,7.28,0,0,0,2.9.34,12.94,12.94,0,0,0,3.11-.24,1.49,1.49,0,0,0,1-.73,4.45,4.45,0,0,0,.21-1.63V24.06a33.56,33.56,0,0,0-4.29-.31,6.18,6.18,0,0,0-2.76.44,2,2,0,0,0-.81,1.84Zm0,9.08V37.7a1.46,1.46,0,0,0,1,1.43,8.71,8.71,0,0,0,3.17.41,6.59,6.59,0,0,0,3-.44,1.8,1.8,0,0,0,.76-1.7,1.89,1.89,0,0,0-.73-1.72,5.38,5.38,0,0,0-2.64-.46Z"/><path class="cls-1" d="M244.47,27.47V35c0,.7-.45,1-1.34,1s-1.34-.35-1.35-1V27.12a9.25,9.25,0,0,1,.48-3.73,5,5,0,0,1,.89-1.28c.64-.58,2.25-.88,4.82-.88a8.14,8.14,0,0,1,2.61.27,1,1,0,0,1,.66.95,1.38,1.38,0,0,1-.37,1,1.27,1.27,0,0,1-.92.34l-2-.13a8.93,8.93,0,0,0-2.3.17,2.12,2.12,0,0,0-.67.34,2.27,2.27,0,0,0-.32.68,3.42,3.42,0,0,0-.19,1.05C244.48,26.3,244.47,26.82,244.47,27.47Z"/><path class="cls-1" d="M264.69,33.42c.61,0,.92.37.92,1.12a1.21,1.21,0,0,1-.92,1.34,23.09,23.09,0,0,1-4.88.35c-2.29,0-3.92-.37-4.91-1.11a4.4,4.4,0,0,1-1.49-3.73v-5.5c0-1.83.45-3.07,1.34-3.7s2.58-1,5-1,4.11.31,5,.91S266,24,266,25.89v2.38a1.71,1.71,0,0,1-.39,1.14,1.36,1.36,0,0,1-1,.41H256.1v1.75c0,1.48,1.29,2.21,3.85,2.2a23.15,23.15,0,0,0,2.93-.17A15.28,15.28,0,0,1,264.69,33.42ZM256.1,25.9v1.55h7.24V25.9a1.93,1.93,0,0,0-.73-1.75,6.16,6.16,0,0,0-2.86-.45,6.64,6.64,0,0,0-2.87.42A1.89,1.89,0,0,0,256.1,25.9Z"/><path class="cls-1" d="M23.16,67.59v-.34a1.08,1.08,0,0,0-.7-1A6,6,0,0,0,20,65.89a14.83,14.83,0,0,1-3.86-.54,3.16,3.16,0,0,1-1.76-1.19,3.83,3.83,0,0,1-.71-2.4v-.25c0-1.68.51-2.8,1.51-3.37a9.36,9.36,0,0,1,4.6-.88,19.34,19.34,0,0,1,4.57.4A1.22,1.22,0,0,1,25.29,59q0,1.11-.93,1.11a16.77,16.77,0,0,1-1.89-.19,20.18,20.18,0,0,0-3-.21,7.44,7.44,0,0,0-2.34.27c-.5.17-.75.67-.75,1.48v.28c0,1.06,1.11,1.63,3.34,1.7.93,0,1.86.11,2.8.23a4.22,4.22,0,0,1,2.37,1,3.11,3.11,0,0,1,1,2.5v.37c0,1.8-.51,3-1.53,3.68a9.5,9.5,0,0,1-4.9,1,21.15,21.15,0,0,1-4.85-.38,1.2,1.2,0,0,1-.92-1.34c0-.75.3-1.12.92-1.12.36,0,1.07.07,2.12.19a25.2,25.2,0,0,0,3.08.19,6.21,6.21,0,0,0,2.44-.4A1.72,1.72,0,0,0,23.16,67.59Z"/><path class="cls-1" d="M40.75,69.42c.62,0,.93.37.93,1.12a1.2,1.2,0,0,1-.93,1.34,22.91,22.91,0,0,1-4.87.35c-2.29,0-3.92-.37-4.91-1.11a4.4,4.4,0,0,1-1.49-3.73v-5.5c0-1.83.44-3.07,1.34-3.7s2.58-1,5-1,4.11.31,5,.91S42.1,60,42.1,61.89v2.38a1.71,1.71,0,0,1-.39,1.14,1.36,1.36,0,0,1-1,.41H32.17v1.75c0,1.48,1.29,2.21,3.85,2.2A23.15,23.15,0,0,0,39,69.6,15.36,15.36,0,0,1,40.75,69.42ZM32.17,61.9v1.55h7.24V61.9a1.91,1.91,0,0,0-.74-1.75,6.11,6.11,0,0,0-2.85-.45,6.64,6.64,0,0,0-2.87.42A1.89,1.89,0,0,0,32.17,61.9Z"/><path class="cls-1" d="M49.34,60.21c-.33.34-.5,1.42-.5,3.24v7.49c0,.71-.45,1.06-1.34,1.06s-1.34-.35-1.35-1V63.12a15,15,0,0,1,.26-3.22,2.89,2.89,0,0,1,1.05-1.76,3.92,3.92,0,0,1,1.85-.74,26.9,26.9,0,0,1,3.32-.17c2.52,0,4.12.3,4.78.93a4,4,0,0,1,1.17,2.63,22.09,22.09,0,0,1,.1,2.33V71c0,.7-.44,1-1.34,1S56,71.65,56,70.94V63.45c0-1.8-.17-2.87-.51-3.23s-1.37-.52-3.09-.52S49.67,59.87,49.34,60.21Z"/><path class="cls-1" d="M71.94,67.59v-.34a1.08,1.08,0,0,0-.7-1,6,6,0,0,0-2.45-.33,15,15,0,0,1-3.87-.54,3.17,3.17,0,0,1-1.75-1.19,3.83,3.83,0,0,1-.71-2.4v-.25c0-1.68.51-2.8,1.51-3.37a9.36,9.36,0,0,1,4.6-.88,19.34,19.34,0,0,1,4.57.4A1.22,1.22,0,0,1,74.07,59q0,1.11-.93,1.11a16.77,16.77,0,0,1-1.89-.19,20.28,20.28,0,0,0-3-.21,7.4,7.4,0,0,0-2.34.27c-.5.17-.75.67-.75,1.48v.28c0,1.06,1.11,1.63,3.34,1.7.93,0,1.86.11,2.8.23a4.25,4.25,0,0,1,2.37,1,3.11,3.11,0,0,1,1,2.5v.37c0,1.8-.51,3-1.53,3.68a9.5,9.5,0,0,1-4.9,1,21.15,21.15,0,0,1-4.85-.38,1.2,1.2,0,0,1-.93-1.34c0-.75.31-1.12.93-1.12.36,0,1.07.07,2.12.19a25.2,25.2,0,0,0,3.08.19,6.21,6.21,0,0,0,2.44-.4A1.72,1.72,0,0,0,71.94,67.59Z"/><path class="cls-1" d="M78.5,54a1.43,1.43,0,0,1,.44-1,1.46,1.46,0,0,1,1-.46A1.38,1.38,0,0,1,81,53a1.53,1.53,0,0,1,.42,1A1.5,1.5,0,0,1,80,55.48a1.43,1.43,0,0,1-1-.44A1.48,1.48,0,0,1,78.5,54Zm2.82,4.52V71q0,1-1.35,1t-1.35-1V58.52q0-1.05,1.35-1.05T81.32,58.52Z"/><path class="cls-1" d="M90.77,72a3.76,3.76,0,0,1-2.86-.88,4.39,4.39,0,0,1-.81-3V59.86H85.21c-.6,0-.91-.4-.91-1.19s.31-1.19.91-1.19H87.1V53.67q0-1.05,1.35-1.05t1.35,1.05v3.81h3.82c.61,0,.91.4.91,1.19s-.3,1.19-.91,1.19H89.8v8.45c0,.82.49,1.23,1.46,1.23l2.55-.15c.63,0,.94.36.94,1.09a1.38,1.38,0,0,1-1,1.43C93.14,72,92.13,72,90.77,72Z"/><path class="cls-1" d="M97.65,54a1.54,1.54,0,0,1,1.46-1.5,1.38,1.38,0,0,1,1,.46,1.49,1.49,0,0,1,.43,1,1.44,1.44,0,0,1-.44,1,1.42,1.42,0,0,1-1,.44,1.45,1.45,0,0,1-1-.44A1.47,1.47,0,0,1,97.65,54Zm2.81,4.52V71q0,1-1.35,1c-.89,0-1.34-.35-1.34-1V58.52c0-.7.45-1.05,1.34-1.05S100.46,57.82,100.46,58.52Z"/><path class="cls-1" d="M110.38,72.15a2.26,2.26,0,0,1-1.44-.49,2.63,2.63,0,0,1-.9-1.21L103.79,59a4.61,4.61,0,0,0-.11-.49c0-.7.44-1.05,1.31-1a1.26,1.26,0,0,1,1.32.78l4,11.28h.15l4-11.28c.19-.52.67-.78,1.45-.78s1.15.35,1.15,1c0,0,0,.18-.09.49l-4.26,11.44a2.5,2.5,0,0,1-2.37,1.7Z"/><path class="cls-1" d="M127.42,54a1.42,1.42,0,0,1,.43-1,1.46,1.46,0,0,1,1-.46,1.38,1.38,0,0,1,1,.46,1.53,1.53,0,0,1,.42,1,1.46,1.46,0,0,1-2.5,1A1.47,1.47,0,0,1,127.42,54Zm2.81,4.52V71q0,1-1.35,1t-1.35-1V58.52q0-1.05,1.35-1.05T130.23,58.52Z"/><path class="cls-1" d="M137.85,60.21c-.34.34-.5,1.42-.5,3.24v7.49c0,.71-.45,1.06-1.34,1.06s-1.35-.35-1.36-1V63.12a14.93,14.93,0,0,1,.27-3.22A2.81,2.81,0,0,1,136,58.14a3.88,3.88,0,0,1,1.85-.74,26.9,26.9,0,0,1,3.32-.17c2.52,0,4.11.3,4.78.93a4,4,0,0,1,1.17,2.63,22.09,22.09,0,0,1,.1,2.33V71q0,1-1.35,1c-.9,0-1.34-.35-1.34-1.06V63.45c0-1.8-.18-2.87-.52-3.23s-1.37-.52-3.08-.52S138.18,59.87,137.85,60.21Z"/><path class="cls-1" d="M155.44,57.34v.14h3.81c.61,0,.92.4.92,1.19s-.31,1.19-.92,1.19h-3.81V71q0,1-1.35,1t-1.35-1V59.86h-1.93c-.62,0-.92-.4-.92-1.19s.3-1.19.92-1.19h1.93V57c0-2.06.35-3.42,1.06-4.09s2-1,3.95-1a8.55,8.55,0,0,1,2.61.26,1,1,0,0,1,.66.93,1.24,1.24,0,0,1-.37,1,1.28,1.28,0,0,1-.92.35l-2-.09a2.51,2.51,0,0,0-1.89.51A4.46,4.46,0,0,0,155.44,57.34Z"/><path class="cls-1" d="M162.44,64.87a18.44,18.44,0,0,1,.33-3.89A4.18,4.18,0,0,1,166,57.53a16.53,16.53,0,0,1,6.27,0,4.2,4.2,0,0,1,2,1.14,4.62,4.62,0,0,1,1.18,2.3,18.34,18.34,0,0,1,.33,3.88,18,18,0,0,1-.33,3.86,4,4,0,0,1-1.2,2.22,4.31,4.31,0,0,1-2,1,14.49,14.49,0,0,1-3.13.26A16.25,16.25,0,0,1,166,72a4.4,4.4,0,0,1-2-1,4,4,0,0,1-1.18-2.25A18.46,18.46,0,0,1,162.44,64.87Zm3-3.44a7.58,7.58,0,0,0-.33,2.69c0,1.27,0,2.29.11,3a3.67,3.67,0,0,0,.76,2,2.33,2.33,0,0,0,1.75.6q.44,0,1.35,0c1.75,0,2.78-.21,3.1-.63a4,4,0,0,0,.77-2c.07-.73.1-1.48.1-2.27,0-2.33-.22-3.74-.65-4.23a3.9,3.9,0,0,0-.52-.54,3.5,3.5,0,0,0-2.1-.41c-1.08,0-1.77,0-2.06,0-.92.06-1.5.27-1.74.62A6.39,6.39,0,0,0,165.46,61.43Z"/><path class="cls-1" d="M182.35,63.47V71c0,.7-.45,1-1.34,1s-1.35-.35-1.36-1V63.12a9.25,9.25,0,0,1,.48-3.73,5.21,5.21,0,0,1,.89-1.28c.64-.58,2.25-.88,4.83-.88a8.14,8.14,0,0,1,2.61.27,1,1,0,0,1,.65,1,1.41,1.41,0,0,1-.36,1,1.28,1.28,0,0,1-.92.34l-2-.13a8.93,8.93,0,0,0-2.3.17,2.2,2.2,0,0,0-.68.34,2.91,2.91,0,0,0-.32.68,3.42,3.42,0,0,0-.19,1C182.35,62.3,182.35,62.82,182.35,63.47Z"/><path class="cls-1" d="M206.46,59.7c-.81,0-1.39,0-1.75,0a1.62,1.62,0,0,0-.93.44,1.57,1.57,0,0,0-.49,1c0,.41-.07,1.05-.07,1.91v7.84c0,.71-.45,1.06-1.35,1.06s-1.34-.35-1.34-1.06V62.71c0-1.38-.19-2.23-.55-2.54a3.61,3.61,0,0,0-2.24-.47c-1.14,0-1.88,0-2.22,0a1.47,1.47,0,0,0-.93.49,1.83,1.83,0,0,0-.44,1.09c0,.44-.06,1.15-.06,2.12v7.49c0,.71-.44,1.06-1.34,1.06s-1.34-.35-1.35-1V63.12a9.74,9.74,0,0,1,.69-4.32,3.25,3.25,0,0,1,2.83-1.46c.55-.06,1.35-.1,2.4-.11,2.32,0,3.84.28,4.55.84.71-.55,2.22-.83,4.56-.84,1,0,1.82,0,2.39.09,1.45.17,2.38.63,2.79,1.39a9.87,9.87,0,0,1,.74,4.41V71q0,1-1.35,1c-.9,0-1.35-.35-1.35-1.06V63.45c0-1,0-1.68-.07-2.12a1.83,1.83,0,0,0-.44-1.09,1.47,1.47,0,0,0-.92-.49C207.86,59.71,207.28,59.7,206.46,59.7Z"/><path class="cls-1" d="M218.09,60.09c-.63,0-.94-.37-.94-1.11a1.22,1.22,0,0,1,.94-1.35,21,21,0,0,1,4.86-.4c2.27,0,3.8.37,4.6,1.09s1.22,2,1.22,3.78v5.78c0,1.81-.44,3-1.32,3.53s-2.56.82-5,.82-4.15-.27-5-.82-1.27-1.71-1.27-3.51.32-3,1-3.71,2-1,4-1h5V61.63a1.66,1.66,0,0,0-.69-1.52,5,5,0,0,0-2.44-.41,19.44,19.44,0,0,0-3.06.2A11,11,0,0,1,218.09,60.09Zm8,8V65.55h-4.16a5.18,5.18,0,0,0-2.52.39c-.38.25-.57.83-.57,1.72s.24,1.49.72,1.75a7.44,7.44,0,0,0,2.86.36,8.48,8.48,0,0,0,2.9-.32A1.33,1.33,0,0,0,226.07,68.1Z"/><path class="cls-1" d="M242,67.59v-.34a1.08,1.08,0,0,0-.7-1,6,6,0,0,0-2.45-.33,15,15,0,0,1-3.87-.54,3.13,3.13,0,0,1-1.75-1.19,3.83,3.83,0,0,1-.71-2.4v-.25c0-1.68.51-2.8,1.51-3.37a9.36,9.36,0,0,1,4.6-.88,19.34,19.34,0,0,1,4.57.4A1.21,1.21,0,0,1,244.1,59c0,.74-.3,1.11-.92,1.11a16.77,16.77,0,0,1-1.89-.19,20.38,20.38,0,0,0-3-.21A7.35,7.35,0,0,0,236,60c-.5.17-.75.67-.75,1.48v.28c0,1.06,1.11,1.63,3.34,1.7.93,0,1.86.11,2.8.23a4.28,4.28,0,0,1,2.37,1,3.11,3.11,0,0,1,1,2.5v.37c0,1.8-.51,3-1.53,3.68a9.5,9.5,0,0,1-4.9,1,21.15,21.15,0,0,1-4.85-.38,1.2,1.2,0,0,1-.93-1.34c0-.75.31-1.12.93-1.12.36,0,1.07.07,2.12.19a25.2,25.2,0,0,0,3.08.19,6.21,6.21,0,0,0,2.44-.4A1.72,1.72,0,0,0,242,67.59Z"/><path class="cls-1" d="M247.4,77.84h-1.05q-.93,0-.93-1.23t.93-1.23h1a1.34,1.34,0,0,0,.88-.3,1.14,1.14,0,0,0,.41-.93V58.49q0-1.05,1.35-1.05t1.35,1.05V74a4.46,4.46,0,0,1-.8,3C250,77.54,249,77.83,247.4,77.84ZM248.54,54a1.43,1.43,0,0,1,.44-1,1.46,1.46,0,0,1,1-.46,1.39,1.39,0,0,1,1,.46,1.53,1.53,0,0,1,.42,1A1.5,1.5,0,0,1,250,55.48,1.49,1.49,0,0,1,248.54,54Z"/><path class="cls-1" d="M255.66,64.87A18.44,18.44,0,0,1,256,61a4.18,4.18,0,0,1,3.19-3.45,13.32,13.32,0,0,1,3.14-.3,13.17,13.17,0,0,1,3.13.3,4.15,4.15,0,0,1,2,1.14,4.72,4.72,0,0,1,1.19,2.3,19.13,19.13,0,0,1,.32,3.88,18.78,18.78,0,0,1-.32,3.86,4.12,4.12,0,0,1-1.2,2.22,4.4,4.4,0,0,1-2,1,14.43,14.43,0,0,1-3.13.26,16.25,16.25,0,0,1-3.14-.24,4.45,4.45,0,0,1-2-1A4,4,0,0,1,256,68.7,18.46,18.46,0,0,1,255.66,64.87Zm3-3.44a7.64,7.64,0,0,0-.32,2.69c0,1.27,0,2.29.1,3a3.67,3.67,0,0,0,.76,2,2.33,2.33,0,0,0,1.75.6q.45,0,1.35,0c1.75,0,2.79-.21,3.1-.63a3.88,3.88,0,0,0,.77-2c.07-.73.11-1.48.11-2.27q0-3.49-.66-4.23a4.61,4.61,0,0,0-.51-.54A3.54,3.54,0,0,0,263,59.7c-1.08,0-1.77,0-2.06,0-.92.06-1.5.27-1.74.62A6.39,6.39,0,0,0,258.68,61.43Z"/><path class="cls-1" d="M276.07,60.21c-.33.34-.5,1.42-.5,3.24v7.49c0,.71-.45,1.06-1.34,1.06s-1.35-.35-1.36-1V63.12a14.93,14.93,0,0,1,.27-3.22,2.85,2.85,0,0,1,1.05-1.76A3.88,3.88,0,0,1,276,57.4a26.9,26.9,0,0,1,3.32-.17c2.52,0,4.11.3,4.78.93a4,4,0,0,1,1.17,2.63,22.09,22.09,0,0,1,.1,2.33V71c0,.7-.45,1-1.34,1s-1.35-.35-1.35-1.06V63.45c0-1.8-.17-2.87-.52-3.23s-1.37-.52-3.08-.52S276.4,59.87,276.07,60.21Z"/><path class="cls-1" d="M14.23,90a1.39,1.39,0,0,1,.44-1,1.42,1.42,0,0,1,1-.46,1.38,1.38,0,0,1,1,.46A1.54,1.54,0,0,1,17.16,90a1.46,1.46,0,0,1-2.51,1A1.47,1.47,0,0,1,14.23,90ZM17,94.52V107q0,1-1.35,1t-1.35-1V94.52q0-1,1.35-1T17,94.52Z"/><path class="cls-1" d="M37.72,103.59v-.34a1.08,1.08,0,0,0-.7-1,6,6,0,0,0-2.45-.33,14.83,14.83,0,0,1-3.86-.54A3.16,3.16,0,0,1,29,100.16a3.82,3.82,0,0,1-.7-2.4v-.25c0-1.68.5-2.8,1.5-3.37a9.36,9.36,0,0,1,4.6-.88,19.34,19.34,0,0,1,4.57.4A1.22,1.22,0,0,1,39.85,95q0,1.11-.93,1.11A16.77,16.77,0,0,1,37,95.93a20.18,20.18,0,0,0-3-.21,7.44,7.44,0,0,0-2.34.27c-.5.17-.75.67-.75,1.48v.28c0,1.06,1.11,1.63,3.34,1.7.93,0,1.86.11,2.8.23a4.22,4.22,0,0,1,2.37,1,3.08,3.08,0,0,1,1,2.5v.37c0,1.8-.51,3-1.53,3.68a9.5,9.5,0,0,1-4.9,1,21.21,21.21,0,0,1-4.85-.38,1.2,1.2,0,0,1-.92-1.34c0-.75.3-1.12.92-1.12.36,0,1.07.07,2.12.19a25.2,25.2,0,0,0,3.08.19,6.3,6.3,0,0,0,2.45-.4A1.73,1.73,0,0,0,37.72,103.59Z"/><path class="cls-1" d="M46.82,89v11.57l6.71-6.78a1.35,1.35,0,0,1,1-.46,1.27,1.27,0,0,1,.94.38,1.14,1.14,0,0,1,.38.88,1.39,1.39,0,0,1-.48,1l-3.87,3.6,4.78,6.67a1.57,1.57,0,0,1,.29.89,1.15,1.15,0,0,1-.42.88,1.46,1.46,0,0,1-1,.41,1,1,0,0,1-.88-.48L49.57,101l-2.75,2.55V107c0,.7-.45,1-1.34,1s-1.35-.35-1.36-1V89c0-.73.47-1.09,1.36-1.09S46.82,88.26,46.82,89Z"/><path class="cls-1" d="M62.71,113.84c-.77,0-1.16-.34-1.17-1,0,0,0-.18.1-.48L63.25,108a2.5,2.5,0,0,1-1.46-1.55L57.53,95c-.06-.31-.09-.47-.09-.49,0-.7.39-1,1.16-1s1.25.26,1.45.79l4,11.28h.14l4-11.28c.19-.52.67-.78,1.45-.78s1.15.35,1.15,1c0,0,0,.18-.09.49l-6.59,18.06C64,113.59,63.48,113.84,62.71,113.84Z"/><path class="cls-1" d="M84.67,105.42c.62,0,.92.37.92,1.12a1.2,1.2,0,0,1-.92,1.34,23,23,0,0,1-4.88.35c-2.28,0-3.92-.37-4.9-1.11a4.4,4.4,0,0,1-1.5-3.73v-5.5c0-1.83.45-3.07,1.35-3.7s2.57-1,5-1,4.11.31,5,.91S86,96,86,97.89v2.38a1.66,1.66,0,0,1-.4,1.14,1.32,1.32,0,0,1-1,.41H76.09v1.75q0,2.22,3.85,2.2a23.26,23.26,0,0,0,2.93-.17A15.36,15.36,0,0,1,84.67,105.42ZM76.09,97.9v1.55h7.23V97.9a1.9,1.9,0,0,0-.73-1.75,6.16,6.16,0,0,0-2.86-.45,6.67,6.67,0,0,0-2.87.42A1.91,1.91,0,0,0,76.09,97.9Z"/><path class="cls-1" d="M93.26,96.21c-.34.34-.5,1.42-.5,3.24v7.49c0,.71-.45,1.06-1.34,1.06s-1.35-.35-1.36-1V99.12a14.93,14.93,0,0,1,.27-3.22,2.81,2.81,0,0,1,1-1.76,3.88,3.88,0,0,1,1.85-.74,26.9,26.9,0,0,1,3.32-.17c2.52,0,4.11.3,4.78.93a4,4,0,0,1,1.17,2.63,22.09,22.09,0,0,1,.1,2.33V107q0,1-1.35,1c-.9,0-1.34-.35-1.34-1.06V99.45c0-1.8-.18-2.87-.52-3.23S98,95.7,96.31,95.7,93.59,95.87,93.26,96.21Z"/><path class="cls-1" d="M114.26,102.45v.28c0,.74-.45,1.11-1.34,1.11s-1.35-.37-1.35-1.12v-.3A6.42,6.42,0,0,1,112,100a3.43,3.43,0,0,1,1-1.51,14.8,14.8,0,0,1,2.73-1.69,2.39,2.39,0,0,0,1.42-2.25c0-1.31-.22-2.13-.66-2.47a4.74,4.74,0,0,0-2.64-.5,34.75,34.75,0,0,0-3.68.19c-1.13.13-1.86.2-2.2.2-.63,0-1-.38-1-1.12a1.23,1.23,0,0,1,.94-1.35,24.65,24.65,0,0,1,5.27-.38c2.54,0,4.28.38,5.2,1.13s1.4,2.22,1.41,4.4a6.17,6.17,0,0,1-.4,2.38,2.74,2.74,0,0,1-1,1.35,13.72,13.72,0,0,1-1.32.73,13.32,13.32,0,0,1-1.31.6,2.53,2.53,0,0,0-1.09,1A3.16,3.16,0,0,0,114.26,102.45Zm-3,4.1a1.81,1.81,0,0,1,.47-1.25,1.55,1.55,0,0,1,1.17-.51,1.8,1.8,0,0,1,1.24.51,1.62,1.62,0,0,1,.56,1.24,1.54,1.54,0,0,1-.56,1.21,1.87,1.87,0,0,1-1.26.48,1.58,1.58,0,0,1-1.16-.46A1.7,1.7,0,0,1,111.27,106.55Z"/></svg>