<svg id="Layer_1" data-name="Layer 1" xmlns="http://www.w3.org/2000/svg" viewBox="0 0 300 600"><defs><style>.cls-1{fill:#fff;}</style></defs><title>text</title><path class="cls-1" d="M75.75,197H68.59l-1.89,6H64.15l6.66-19.68h2.82L80.29,203H77.65Zm-.62-2-.93-3c-.69-2.19-1.32-4.35-2-6.63h-.12c-.63,2.28-1.26,4.44-1.95,6.63l-1,3Z"/><path class="cls-1" d="M82.75,188.42h2l.21,2.64h.08c1-1.83,2.5-3,4.14-3a3.67,3.67,0,0,1,1.57.3l-.49,2.16a4,4,0,0,0-1.4-.24c-1.23,0-2.7.9-3.69,3.36V203H82.75Z"/><path class="cls-1" d="M98.32,188.06c3.72,0,5.81,2.67,5.81,6.84a8.69,8.69,0,0,1-.09,1.35H94.21c.17,3.15,2.07,5.13,4.85,5.13a6.54,6.54,0,0,0,3.63-1.14l.87,1.62a8.66,8.66,0,0,1-4.8,1.5c-3.89,0-7-2.85-7-7.62S95,188.06,98.32,188.06Zm3.65,6.57c0-3-1.31-4.62-3.59-4.62-2,0-3.9,1.68-4.21,4.62Z"/><path class="cls-1" d="M113.92,207.23c1.64,0,2.69-1.32,3.29-3.12l.33-1.08-5.85-14.61h2.55l3,8.07c.45,1.26,1,2.76,1.41,4.11h.12c.42-1.32.84-2.82,1.23-4.11l2.61-8.07H125l-5.49,15.78c-1,2.88-2.52,5.07-5.46,5.07a4.88,4.88,0,0,1-1.71-.3l.48-1.95A4.28,4.28,0,0,0,113.92,207.23Z"/><path class="cls-1" d="M133.35,188.06c3.57,0,6.75,2.79,6.75,7.68s-3.18,7.62-6.75,7.62-6.75-2.79-6.75-7.62S129.79,188.06,133.35,188.06Zm0,13.26c2.52,0,4.2-2.25,4.2-5.58s-1.68-5.64-4.2-5.64-4.2,2.28-4.2,5.64S130.86,201.32,133.35,201.32Z"/><path class="cls-1" d="M143.73,188.42h2.49v8.91c0,2.73.81,3.9,2.73,3.9,1.5,0,2.55-.75,3.93-2.46V188.42h2.46V203h-2l-.21-2.28H153c-1.35,1.59-2.79,2.64-4.8,2.64-3.09,0-4.47-2-4.47-5.7Z"/><path class="cls-1" d="M160.26,188.42h2l.21,2.64h.09c1-1.83,2.49-3,4.14-3a3.62,3.62,0,0,1,1.56.3l-.48,2.16a4.08,4.08,0,0,0-1.41-.24c-1.23,0-2.7.9-3.69,3.36V203h-2.46Z"/><path class="cls-1" d="M177.15,190.43H175v-1.86l2.28-.15.3-4.08h2.07v4.08h3.93v2h-3.93v8.1c0,1.8.57,2.82,2.25,2.82a5.3,5.3,0,0,0,1.65-.39l.48,1.86a9,9,0,0,1-2.7.54c-3.12,0-4.17-2-4.17-4.86Z"/><path class="cls-1" d="M192.24,188.06c3.57,0,6.75,2.79,6.75,7.68s-3.18,7.62-6.75,7.62-6.75-2.79-6.75-7.62S188.67,188.06,192.24,188.06Zm0,13.26c2.52,0,4.2-2.25,4.2-5.58s-1.68-5.64-4.2-5.64-4.2,2.28-4.2,5.64S189.75,201.32,192.24,201.32Z"/><path class="cls-1" d="M208.5,188.06c3.57,0,6.75,2.79,6.75,7.68s-3.18,7.62-6.75,7.62-6.75-2.79-6.75-7.62S204.93,188.06,208.5,188.06Zm0,13.26c2.52,0,4.2-2.25,4.2-5.58s-1.68-5.64-4.2-5.64-4.2,2.28-4.2,5.64S206,201.32,208.5,201.32Z"/><path class="cls-1" d="M219.09,181.64h2.46v18.6c0,.78.33,1.08.69,1.08a2.07,2.07,0,0,0,.54-.06l.33,1.86a3.31,3.31,0,0,1-1.41.24c-1.86,0-2.61-1.17-2.61-3.3Z"/><path class="cls-1" d="M226.35,199.7a6.56,6.56,0,0,0,4.29,1.74c1.92,0,2.88-1,2.88-2.28,0-1.5-1.74-2.16-3.33-2.76-2.07-.75-4.35-1.74-4.35-4.2s1.86-4.14,5-4.14a7.28,7.28,0,0,1,4.53,1.65l-1.17,1.56a5.41,5.41,0,0,0-3.33-1.29c-1.83,0-2.67,1-2.67,2.1,0,1.35,1.59,1.89,3.24,2.52,2.1.78,4.44,1.65,4.44,4.41,0,2.37-1.89,4.35-5.34,4.35a8.78,8.78,0,0,1-5.43-2Z"/><path class="cls-1" d="M82.47,219.65a4.05,4.05,0,0,0-1.64-.36c-1.38,0-2,1-2,2.82v2.31h3.09v2H78.79V239H76.33V226.43h-2v-1.86l2-.15v-2.31c0-3,1.34-4.83,4.25-4.83a6.61,6.61,0,0,1,2.43.48Z"/><path class="cls-1" d="M92.31,229.76c0-1.86-.63-3.66-3-3.66A7.9,7.9,0,0,0,85,227.66L84,226a10.82,10.82,0,0,1,5.73-1.89c3.56,0,5.06,2.37,5.06,6V239h-2l-.21-1.74h-.06a7.92,7.92,0,0,1-4.83,2.1,4,4,0,0,1-4.29-4.14C83.34,232,86.11,230.45,92.31,229.76Zm-4,7.62c1.41,0,2.58-.69,4-1.95v-4.05c-4.89.6-6.53,1.8-6.53,3.66C85.78,236.69,86.88,237.38,88.33,237.38Z"/><path class="cls-1" d="M99,235.7a6.52,6.52,0,0,0,4.29,1.74c1.92,0,2.88-1,2.88-2.28,0-1.5-1.75-2.16-3.33-2.76-2.08-.75-4.35-1.74-4.35-4.2s1.85-4.14,5-4.14a7.23,7.23,0,0,1,4.52,1.65l-1.17,1.56a5.41,5.41,0,0,0-3.33-1.29c-1.82,0-2.67,1-2.67,2.1,0,1.35,1.6,1.89,3.24,2.52,2.1.78,4.44,1.65,4.44,4.41,0,2.37-1.89,4.35-5.34,4.35a8.8,8.8,0,0,1-5.43-2Z"/><path class="cls-1" d="M112.42,226.43h-2.17v-1.86l2.29-.15.29-4.08h2.07v4.08h3.93v2H114.9v8.1c0,1.8.57,2.82,2.25,2.82a5.23,5.23,0,0,0,1.65-.39l.48,1.86a9,9,0,0,1-2.7.54c-3.12,0-4.16-2-4.16-4.86Z"/><path class="cls-1" d="M133.65,224.06c3.72,0,5.82,2.67,5.82,6.84a8.69,8.69,0,0,1-.09,1.35h-9.84c.18,3.15,2.07,5.13,4.86,5.13a6.59,6.59,0,0,0,3.63-1.14l.87,1.62a8.68,8.68,0,0,1-4.8,1.5c-3.9,0-7-2.85-7-7.62S130.32,224.06,133.65,224.06Zm3.66,6.57c0-3-1.32-4.62-3.6-4.62-2,0-3.9,1.68-4.2,4.62Z"/><path class="cls-1" d="M143.07,224.42h2l.21,2.1h.09a6.87,6.87,0,0,1,4.89-2.46c3.06,0,4.44,2,4.44,5.7V239h-2.46v-8.91c0-2.73-.84-3.9-2.76-3.9-1.5,0-2.52.78-4,2.25V239h-2.46Z"/><path class="cls-1" d="M165.15,224.06c3.57,0,6.75,2.79,6.75,7.68s-3.18,7.62-6.75,7.62-6.75-2.79-6.75-7.62S161.58,224.06,165.15,224.06Zm0,13.26c2.52,0,4.2-2.25,4.2-5.58s-1.68-5.64-4.2-5.64-4.2,2.28-4.2,5.64S162.66,237.32,165.15,237.32Z"/><path class="cls-1" d="M175.53,224.42H178v8.91c0,2.73.81,3.9,2.73,3.9,1.5,0,2.55-.75,3.93-2.46V224.42h2.46V239h-2l-.21-2.28h-.09c-1.35,1.59-2.79,2.64-4.8,2.64-3.09,0-4.47-2-4.47-5.7Z"/><path class="cls-1" d="M193.08,238.49v-.12a2.69,2.69,0,0,1-1.29-2.37,3.42,3.42,0,0,1,1.59-2.7v-.12a5.15,5.15,0,0,1,3.6-9.12,5.82,5.82,0,0,1,2.07.36h5.07v1.89h-3a4.23,4.23,0,0,1,1.2,3,5,5,0,0,1-5.34,5.07,5.09,5.09,0,0,1-2.19-.51,2.21,2.21,0,0,0-.93,1.74c0,.93.6,1.59,2.58,1.59h2.82c3.39,0,5.1,1.05,5.1,3.48,0,2.7-2.85,5-7.38,5-3.57,0-6-1.41-6-3.93A4.21,4.21,0,0,1,193.08,238.49Zm4.26,5.52c2.79,0,4.62-1.44,4.62-3,0-1.35-1.05-1.8-2.94-1.8H196.5a7.1,7.1,0,0,1-1.89-.24,3.07,3.07,0,0,0-1.5,2.46C193.11,243,194.7,244,197.34,244Zm2.73-14.76a3.1,3.1,0,1,0-6.18,0,3.11,3.11,0,1,0,6.18,0Z"/><path class="cls-1" d="M207.18,217.64h2.46v5.82l-.09,3c1.38-1.32,2.85-2.4,4.86-2.4,3.06,0,4.44,2,4.44,5.7V239h-2.46v-8.91c0-2.73-.84-3.9-2.76-3.9-1.5,0-2.52.78-4,2.25V239h-2.46Z"/><path class="cls-1" d="M229.77,223.49a2.74,2.74,0,0,0-2.91-2.91,4.58,4.58,0,0,0-3.45,1.74L222,221a6.6,6.6,0,0,1,5-2.49c3.09,0,5.13,1.83,5.13,4.8,0,3.93-4.83,5.52-4.35,9.72h-2.16C225,228.38,229.77,226.67,229.77,223.49Zm-3,12.09a1.89,1.89,0,0,1,0,3.78,1.89,1.89,0,0,1,0-3.78Z"/></svg>