<svg id="Layer_1" data-name="Layer 1" xmlns="http://www.w3.org/2000/svg" viewBox="0 0 300 600"><defs><style>.cls-1{fill:#fff;}</style></defs><title>text</title><path class="cls-1" d="M103.87,523.94V508h-6c-.61,0-.92-.41-.92-1.23s.31-1.23.92-1.23H112.6c.61,0,.92.41.92,1.23s-.31,1.23-.92,1.23h-6v16c0,.71-.45,1.06-1.35,1.06S103.87,524.65,103.87,523.94Z"/><path class="cls-1" d="M113.86,513.09c-.63,0-.94-.37-.94-1.11a1.22,1.22,0,0,1,.94-1.35,20.91,20.91,0,0,1,4.86-.4c2.27,0,3.8.37,4.6,1.09s1.22,2,1.22,3.78v5.78c0,1.81-.44,3-1.32,3.53s-2.56.82-5,.82-4.16-.27-5-.82-1.28-1.71-1.28-3.51.33-3,1-3.71,2-1,4-1h5v-1.55a1.66,1.66,0,0,0-.69-1.52,5,5,0,0,0-2.44-.41,19.49,19.49,0,0,0-3.07.2A10.92,10.92,0,0,1,113.86,513.09Zm8,8v-2.55h-4.17a5.16,5.16,0,0,0-2.51.39c-.38.25-.57.83-.57,1.72s.24,1.49.71,1.75a7.53,7.53,0,0,0,2.87.36,8.41,8.41,0,0,0,2.89-.32A1.32,1.32,0,0,0,121.84,521.1Z"/><path class="cls-1" d="M141.37,525.15a2.26,2.26,0,0,1-1.44-.49,2.73,2.73,0,0,1-.91-1.21L134.77,512a3.59,3.59,0,0,0-.1-.49c0-.7.44-1,1.31-1a1.24,1.24,0,0,1,1.31.78l4,11.28h.14l4-11.28c.2-.52.68-.78,1.45-.78s1.16.35,1.16,1c0,0,0,.18-.09.49l-4.26,11.44a2.5,2.5,0,0,1-.91,1.23A2.45,2.45,0,0,1,141.37,525.15Z"/><path class="cls-1" d="M152.31,513.09c-.63,0-.94-.37-.94-1.11a1.22,1.22,0,0,1,.94-1.35,21,21,0,0,1,4.86-.4c2.27,0,3.8.37,4.6,1.09s1.22,2,1.22,3.78v5.78c0,1.81-.44,3-1.32,3.53s-2.57.82-5.06.82-4.16-.27-5-.82-1.24-1.71-1.24-3.51.32-3,1-3.71,2-1,4-1h5v-1.55a1.66,1.66,0,0,0-.69-1.52,5,5,0,0,0-2.44-.41,19.44,19.44,0,0,0-3.06.2A11,11,0,0,1,152.31,513.09Zm8,8v-2.55h-4.15a5.11,5.11,0,0,0-2.5.39c-.38.25-.57.83-.57,1.72s.24,1.49.71,1.75a7.44,7.44,0,0,0,2.86.36,8.34,8.34,0,0,0,2.88-.32A1.32,1.32,0,0,0,160.29,521.1Zm-5.23-12.39a2.84,2.84,0,0,1,0-3.95,2.66,2.66,0,0,1,2-.82,2.63,2.63,0,0,1,2,.82,2.79,2.79,0,0,1,0,3.95,2.8,2.8,0,0,1-3.94,0Zm.78-2a1.2,1.2,0,0,0,.35.87,1.15,1.15,0,0,0,.86.33,1.11,1.11,0,0,0,.84-.35,1.17,1.17,0,0,0,.35-.86,1.2,1.2,0,0,0-1.21-1.2,1.15,1.15,0,0,0-.86.35A1.12,1.12,0,0,0,155.84,506.73Z"/><path class="cls-1" d="M169.86,516.47V524c0,.7-.45,1-1.34,1s-1.35-.35-1.36-1v-7.83a9.25,9.25,0,0,1,.48-3.73,5.21,5.21,0,0,1,.89-1.28c.64-.58,2.25-.88,4.83-.88a8.14,8.14,0,0,1,2.61.27,1,1,0,0,1,.66.95,1.42,1.42,0,0,1-.37,1,1.28,1.28,0,0,1-.92.34l-2-.13a8.93,8.93,0,0,0-2.3.17,2.2,2.2,0,0,0-.68.34,2.91,2.91,0,0,0-.32.68,3.74,3.74,0,0,0-.19,1.05C169.86,515.3,169.86,515.82,169.86,516.47Z"/><path class="cls-1" d="M103.12,561a3.74,3.74,0,0,1-2.85-.88,4.39,4.39,0,0,1-.81-3v-8.25h-1.9c-.6,0-.9-.4-.9-1.19s.3-1.19.9-1.19h1.9v-3.81c0-.7.45-1,1.34-1s1.35.35,1.35,1v3.81H106c.61,0,.91.4.91,1.19s-.3,1.19-.91,1.19h-3.82v8.45q0,1.23,1.47,1.23l2.55-.15c.62,0,.93.36.93,1.09a1.38,1.38,0,0,1-1,1.43C105.49,561,104.49,561,103.12,561Z"/><path class="cls-1" d="M121,558.42c.62,0,.93.37.93,1.12a1.2,1.2,0,0,1-.93,1.34,22.91,22.91,0,0,1-4.87.35c-2.29,0-3.92-.37-4.91-1.11a4.4,4.4,0,0,1-1.5-3.73v-5.5c0-1.83.45-3.07,1.35-3.7s2.58-1,5-1,4.1.31,5,.91,1.29,1.86,1.29,3.75v2.38a1.71,1.71,0,0,1-.39,1.14,1.36,1.36,0,0,1-1,.41h-8.52v1.75q0,2.22,3.85,2.2a23.15,23.15,0,0,0,2.93-.17A15.36,15.36,0,0,1,121,558.42Zm-8.58-7.52v1.55h7.24V550.9a1.91,1.91,0,0,0-.74-1.75,6.11,6.11,0,0,0-2.85-.45,6.42,6.42,0,0,0-2.87.43A1.86,1.86,0,0,0,112.45,550.9Z"/><path class="cls-1" d="M134.89,556.59v-.34a1.08,1.08,0,0,0-.7-1,6,6,0,0,0-2.45-.33,14.83,14.83,0,0,1-3.86-.54,3.16,3.16,0,0,1-1.76-1.19,3.83,3.83,0,0,1-.71-2.4v-.25c0-1.68.51-2.8,1.51-3.37a9.36,9.36,0,0,1,4.6-.88,19.34,19.34,0,0,1,4.57.4A1.22,1.22,0,0,1,137,548q0,1.11-.93,1.11a16.77,16.77,0,0,1-1.89-.19,20.28,20.28,0,0,0-3-.21,7.4,7.4,0,0,0-2.34.27c-.5.17-.75.67-.75,1.48v.28c0,1.06,1.11,1.63,3.34,1.7.93,0,1.86.11,2.8.23a4.25,4.25,0,0,1,2.37,1,3.11,3.11,0,0,1,1,2.5v.37c0,1.8-.51,3-1.53,3.68a9.5,9.5,0,0,1-4.9,1,21.15,21.15,0,0,1-4.85-.38,1.2,1.2,0,0,1-.93-1.34c0-.75.31-1.12.93-1.12.36,0,1.07.07,2.12.19a25.2,25.2,0,0,0,3.08.19,6.21,6.21,0,0,0,2.44-.4A1.72,1.72,0,0,0,134.89,556.59Z"/><path class="cls-1" d="M146.06,561a3.76,3.76,0,0,1-2.86-.88,4.39,4.39,0,0,1-.81-3v-8.25H140.5c-.61,0-.91-.4-.91-1.19s.3-1.19.91-1.19h1.89v-3.81q0-1,1.35-1t1.35,1v3.81h3.82c.6,0,.91.4.91,1.19s-.31,1.19-.91,1.19h-3.82v8.45c0,.82.49,1.23,1.46,1.23l2.55-.15c.63,0,.94.36.94,1.09a1.38,1.38,0,0,1-1,1.43C148.43,561,147.42,561,146.06,561Z"/><path class="cls-1" d="M162.69,542v4.64a20.08,20.08,0,0,1,3.76-.4,15.5,15.5,0,0,1,2.83.21,3.39,3.39,0,0,1,3,2.71,15.58,15.58,0,0,1,.27,3.27V560q0,1-1.35,1c-.9,0-1.35-.35-1.35-1.06V552.7a18.27,18.27,0,0,0-.11-2.27,1.79,1.79,0,0,0-.62-1.19,2.1,2.1,0,0,0-1.06-.47,16.81,16.81,0,0,0-1.91-.07,25.35,25.35,0,0,0-3.45.3v10.94c0,.71-.44,1.06-1.34,1.06s-1.34-.35-1.35-1V542c0-.73.46-1.09,1.35-1.09S162.69,541.26,162.69,542Z"/><path class="cls-1" d="M188.37,558.42c.62,0,.93.37.93,1.12a1.2,1.2,0,0,1-.93,1.34,22.91,22.91,0,0,1-4.87.35q-3.44,0-4.91-1.11a4.4,4.4,0,0,1-1.5-3.73v-5.5c0-1.83.45-3.07,1.35-3.7s2.57-1,5-1,4.1.31,5,.91,1.29,1.86,1.29,3.75v2.38a1.66,1.66,0,0,1-.4,1.14,1.32,1.32,0,0,1-1,.41h-8.52v1.75q0,2.22,3.85,2.2a23.15,23.15,0,0,0,2.93-.17A15.36,15.36,0,0,1,188.37,558.42Zm-8.58-7.52v1.55H187V550.9a1.91,1.91,0,0,0-.74-1.75,6.14,6.14,0,0,0-2.85-.45,6.42,6.42,0,0,0-2.87.43A1.86,1.86,0,0,0,179.79,550.9Z"/><path class="cls-1" d="M196.46,552.47V560c0,.7-.45,1-1.34,1s-1.35-.35-1.36-1v-7.83a9.25,9.25,0,0,1,.48-3.73,5.21,5.21,0,0,1,.89-1.28c.64-.58,2.25-.88,4.83-.88a8.14,8.14,0,0,1,2.61.27,1,1,0,0,1,.66,1,1.42,1.42,0,0,1-.37,1,1.27,1.27,0,0,1-.92.34l-2-.13a8.93,8.93,0,0,0-2.3.17,2,2,0,0,0-.67.34,2.5,2.5,0,0,0-.33.68,3.74,3.74,0,0,0-.19,1.05C196.46,551.3,196.46,551.82,196.46,552.47Z"/></svg>