<svg id="Layer_1" data-name="Layer 1" xmlns="http://www.w3.org/2000/svg" viewBox="0 0 250 720"><defs><style>.cls-1{fill:#d80201;}</style></defs><title>text</title><path class="cls-1" d="M52.37,521.28h-1V526H50.14V515.28h1.94a3.91,3.91,0,0,1,2.69.75,3,3,0,0,1,1,2.26C55.74,520.32,54.26,521.28,52.37,521.28Zm-.16-4.88h-.88v3.79h1c1.25,0,2.28-.54,2.28-1.92S53.47,516.4,52.21,516.4Z"/><path class="cls-1" d="M61.79,526V525a2.82,2.82,0,0,1-2.3,1.12,3.28,3.28,0,0,1-3.2-3.53,3.23,3.23,0,0,1,3.18-3.46,2.8,2.8,0,0,1,2.32,1.1v-.94h1.14V526Zm-2.14-5.78a2.48,2.48,0,1,0,2.21,2.44A2.24,2.24,0,0,0,59.65,520.17Z"/><path class="cls-1" d="M65.1,526V514.28h1.14V526Z"/><path class="cls-1" d="M73.49,526V525a2.84,2.84,0,0,1-2.31,1.12,3.29,3.29,0,0,1-3.2-3.53,3.23,3.23,0,0,1,3.19-3.46,2.82,2.82,0,0,1,2.32,1.1v-.94h1.13V526Zm-2.15-5.78a2.48,2.48,0,1,0,2.21,2.44A2.24,2.24,0,0,0,71.34,520.17Z"/><path class="cls-1" d="M81,526V522c0-1-.15-1.86-1.4-1.86-1.47,0-1.65,1.28-1.65,2.45V526H76.8v-6.64h1.13v.8a2.41,2.41,0,0,1,3.81-.05,3,3,0,0,1,.39,1.76V526Z"/><path class="cls-1" d="M89.38,526V525a2.84,2.84,0,0,1-2.31,1.12,3.51,3.51,0,0,1,0-7,2.87,2.87,0,0,1,2.32,1.1v-6h1.13V526Zm-2.15-5.76a2.47,2.47,0,1,0,2.21,2.42A2.23,2.23,0,0,0,87.23,520.19Z"/><path class="cls-1" d="M93.45,522.86a2.16,2.16,0,0,0,2.12,2.24,2.3,2.3,0,0,0,2.05-1.37l1,.53a3.32,3.32,0,0,1-3,1.88,3.5,3.5,0,0,1-.06-7,3.18,3.18,0,0,1,3.17,3.49v.22Zm2-2.67a2,2,0,0,0-2,1.71h3.91A2,2,0,0,0,95.5,520.19Z"/><path class="cls-1" d="M103.5,520.46a1,1,0,0,0-.67-.22,1.34,1.34,0,0,0-.58.14c-.73.4-.73,1.35-.73,2.07V526h-1.14v-6.64h1.14V520a1.77,1.77,0,0,1,1.5-.88,1.94,1.94,0,0,1,1,.27Z"/><path class="cls-1" d="M106.89,526.14a2.37,2.37,0,0,1-2.32-1.69l1-.42c.27.59.64,1.07,1.34,1.07a1,1,0,0,0,1.09-1c0-1.44-3-1-3-3a1.87,1.87,0,0,1,1.94-1.86,2,2,0,0,1,1.83,1.2l-1,.5a1.05,1.05,0,0,0-.93-.66.79.79,0,0,0-.8.74c0,1.16,3.08.86,3.08,3A2.18,2.18,0,0,1,106.89,526.14Z"/><path class="cls-1" d="M117,526.38l-3.27-7.07H115l2,4.47,2-4.47h1.28Z"/><path class="cls-1" d="M126.54,526V525a2.82,2.82,0,0,1-2.3,1.12,3.28,3.28,0,0,1-3.2-3.53,3.23,3.23,0,0,1,3.18-3.46,2.8,2.8,0,0,1,2.32,1.1v-.94h1.14V526Zm-2.14-5.78a2.48,2.48,0,1,0,2.21,2.44A2.24,2.24,0,0,0,124.4,520.17ZM123.07,518a.82.82,0,0,1-.8-.8.8.8,0,1,1,.8.8Zm2.78,0a.82.82,0,0,1-.8-.8.8.8,0,1,1,.8.8Z"/><path class="cls-1" d="M135.44,528.42a3.22,3.22,0,0,1-2.66,1.23,3,3,0,0,1-3.23-3h1.13a2,2,0,0,0,2.12,2c1.6,0,2.13-1.21,2.13-2.63v-1a3,3,0,0,1-2.34,1.11,3.5,3.5,0,0,1,0-7,2.86,2.86,0,0,1,2.29,1.09v-.93h1.15v6.5A4.05,4.05,0,0,1,135.44,528.42Zm-2.67-8.25a2.29,2.29,0,0,0-2.18,2.52,2.24,2.24,0,0,0,2.18,2.41,2.48,2.48,0,0,0,0-4.93Z"/><path class="cls-1" d="M146.57,522.35l-2.19,2.5h4.48V526H142l3.89-4.5c.72-.83,1.84-2,1.84-3.18a2.13,2.13,0,1,0-4.25.13h-1.2a4.46,4.46,0,0,1,.22-1.2,3.33,3.33,0,0,1,6.42,1.09C148.88,519.89,147.57,521.23,146.57,522.35Z"/><path class="cls-1" d="M156.85,525.22a3.76,3.76,0,0,1-2.56.73h-2.66V515.28h1.92A3.7,3.7,0,0,1,156,516a2.9,2.9,0,0,1,1,2.22,2.43,2.43,0,0,1-1.06,2.08,2.68,2.68,0,0,1,2,2.69A3,3,0,0,1,156.85,525.22Zm-3.11-8.82h-.93V520h.9a2.21,2.21,0,0,0,1.52-.4,1.79,1.79,0,0,0,.56-1.39C155.79,516.86,155,516.4,153.74,516.4Zm2.1,4.93a3.42,3.42,0,0,0-1.7-.32h-1.33v3.84h1.49a2.6,2.6,0,0,0,1.75-.47,1.89,1.89,0,0,0,.68-1.47A1.82,1.82,0,0,0,155.84,521.33Z"/><path class="cls-1" d="M159.85,528.39l-.75-.31,1.31-3.7,1.06.39Z"/><path class="cls-1" d="M170.78,526.59l-4.32-11.31h1.3l3,8.14,3-8.14h1.28Z"/><path class="cls-1" d="M176.35,522.86a2.14,2.14,0,0,0,2.11,2.24,2.3,2.3,0,0,0,2-1.37l1,.53a3.31,3.31,0,0,1-3,1.88,3.5,3.5,0,0,1-.06-7c2,0,3.16,1.57,3.16,3.49v.22Zm2.05-2.67a2,2,0,0,0-2,1.71h3.9A2,2,0,0,0,178.4,520.19Z"/><path class="cls-1" d="M188.86,528.42a3.21,3.21,0,0,1-2.66,1.23,3,3,0,0,1-3.23-3h1.14a2,2,0,0,0,2.11,2c1.6,0,2.13-1.21,2.13-2.63v-1a3,3,0,0,1-2.34,1.11,3.5,3.5,0,0,1,.05-7,2.84,2.84,0,0,1,2.29,1.09v-.93h1.15v6.5A4.05,4.05,0,0,1,188.86,528.42Zm-2.67-8.25a2.29,2.29,0,0,0-2.18,2.52,2.24,2.24,0,0,0,2.18,2.41,2.48,2.48,0,0,0,0-4.93Z"/><path class="cls-1" d="M196.75,526V525a2.82,2.82,0,0,1-2.31,1.12,3.29,3.29,0,0,1-3.2-3.53,3.23,3.23,0,0,1,3.19-3.46,2.8,2.8,0,0,1,2.32,1.1v-.94h1.14V526Zm-2.15-5.78a2.48,2.48,0,1,0,2.21,2.44A2.24,2.24,0,0,0,194.6,520.17Z"/><path class="cls-1" d="M30.89,552.14a3.25,3.25,0,0,1-3.3-2.75l1.15-.32A2.17,2.17,0,0,0,30.92,551a2.1,2.1,0,0,0,2.14-2.11c0-2.51-4.93-1.92-4.93-5.06a2.83,2.83,0,0,1,3-2.75,3,3,0,0,1,2.75,1.66l-.94.63a2,2,0,0,0-1.83-1.17,1.7,1.7,0,0,0-1.78,1.63c0,2.21,4.94,1.57,4.94,5A3.29,3.29,0,0,1,30.89,552.14Z"/><path class="cls-1" d="M39.24,552.14a3.5,3.5,0,1,1,3.51-3.48A3.47,3.47,0,0,1,39.24,552.14Zm0-5.95a2.46,2.46,0,1,0,2.36,2.47A2.32,2.32,0,0,0,39.22,546.19ZM37.85,544a.82.82,0,0,1-.8-.8.8.8,0,1,1,.8.8Zm2.78,0a.82.82,0,0,1-.8-.8.8.8,0,1,1,.8.8Z"/><path class="cls-1" d="M48.66,552V548c0-1-.14-1.86-1.39-1.86-1.47,0-1.65,1.28-1.65,2.45V552H44.49v-6.64h1.13v.8a2.41,2.41,0,0,1,3.81-.05,3,3,0,0,1,.39,1.76V552Z"/><path class="cls-1" d="M57.06,552V551a2.82,2.82,0,0,1-2.3,1.12,3.51,3.51,0,0,1,0-7,2.85,2.85,0,0,1,2.32,1.1v-6H58.2V552Zm-2.14-5.76a2.47,2.47,0,1,0,2.21,2.42A2.23,2.23,0,0,0,54.92,546.19Z"/><path class="cls-1" d="M65.45,552V551a2.84,2.84,0,0,1-2.31,1.12,3.29,3.29,0,0,1-3.2-3.53,3.23,3.23,0,0,1,3.19-3.46,2.82,2.82,0,0,1,2.32,1.1v-.94h1.13V552Zm-2.15-5.78a2.48,2.48,0,1,0,2.21,2.44A2.24,2.24,0,0,0,63.3,546.17Z"/><path class="cls-1" d="M74.34,554.42a3.2,3.2,0,0,1-2.65,1.23,3,3,0,0,1-3.24-3h1.14a2,2,0,0,0,2.11,2c1.6,0,2.13-1.21,2.13-2.63v-1a3,3,0,0,1-2.33,1.11,3.5,3.5,0,0,1,0-7,2.84,2.84,0,0,1,2.29,1.09v-.93H75v6.5A4,4,0,0,1,74.34,554.42Zm-2.67-8.25a2.29,2.29,0,0,0-2.18,2.52,2.24,2.24,0,0,0,2.18,2.41,2.48,2.48,0,0,0,0-4.93Z"/><path class="cls-1" d="M84.31,552V542.4H82.53l.63-1.12H85.5V552Z"/><path class="cls-1" d="M91,552.21l-.92-.63,6-9.18H90.31v-1.12h7.86Z"/><path class="cls-1" d="M107.48,552V548c0-1-.15-1.86-1.39-1.86-1.48,0-1.65,1.28-1.65,2.45V552H103.3v-6.64h1.14v.8a2.23,2.23,0,0,1,1.92-1,2.26,2.26,0,0,1,1.89.91,3,3,0,0,1,.38,1.76V552Z"/><path class="cls-1" d="M113.89,552.14a3.5,3.5,0,1,1,3.51-3.48A3.47,3.47,0,0,1,113.89,552.14Zm0-5.95a2.46,2.46,0,1,0,2.35,2.47A2.33,2.33,0,0,0,113.88,546.19Z"/><path class="cls-1" d="M121.17,552.38l-3.26-7.07h1.28l2,4.47,2-4.47h1.28Z"/><path class="cls-1" d="M126.18,548.86a2.15,2.15,0,0,0,2.11,2.24,2.29,2.29,0,0,0,2.05-1.37l1,.53a3.31,3.31,0,0,1-3,1.88,3.5,3.5,0,0,1-.06-7,3.18,3.18,0,0,1,3.17,3.49v.22Zm2-2.67a2,2,0,0,0-2,1.71h3.91A2,2,0,0,0,128.23,546.19Z"/><path class="cls-1" d="M140.68,552v-4c0-.85-.14-1.75-1.2-1.75s-1.43,1.12-1.43,2.08V552h-1.13V548c0-.83-.18-1.84-1.22-1.84a1.39,1.39,0,0,0-1.2.72,3.23,3.23,0,0,0-.25,1.44V552h-1.14v-6.64h1.14v.7a1.9,1.9,0,0,1,1.64-.86,2,2,0,0,1,1.83,1.07,2.26,2.26,0,0,1,3.73-.17,3.09,3.09,0,0,1,.37,1.69V552Z"/><path class="cls-1" d="M147.43,552.14a2.82,2.82,0,0,1-2.3-1.12V552H144V540.28h1.14v6a2.85,2.85,0,0,1,2.32-1.1,3.51,3.51,0,0,1,0,7Zm-.16-5.95a2.24,2.24,0,0,0-2.21,2.45,2.21,2.21,0,1,0,2.21-2.45Z"/><path class="cls-1" d="M153.14,548.86a2.15,2.15,0,0,0,2.11,2.24,2.29,2.29,0,0,0,2.05-1.37l1,.53a3.31,3.31,0,0,1-3,1.88,3.5,3.5,0,0,1-.06-7,3.18,3.18,0,0,1,3.17,3.49v.22Zm2.05-2.67a2,2,0,0,0-2,1.71h3.91A2,2,0,0,0,155.19,546.19Z"/><path class="cls-1" d="M163.19,546.46a1,1,0,0,0-.67-.22,1.34,1.34,0,0,0-.58.14c-.73.4-.73,1.35-.73,2.07V552h-1.14v-6.64h1.14V546a1.76,1.76,0,0,1,1.5-.88,1.88,1.88,0,0,1,1,.27Z"/><path class="cls-1" d="M172.9,552l-2.69-3-.29.28V552h-1.13V540.28h1.13v7.48l2.42-2.45h1.52L171,548.13l3.38,3.82Z"/><path class="cls-1" d="M175.52,552V540.28h1.14V552Z"/><path class="cls-1" d="M186,552V542.4h-1.78l.63-1.12h2.33V552Z"/><path class="cls-1" d="M197.78,550.21V552H196.6v-1.74h-5.48l6.66-9.53v8.44h1.31v1.09Zm-1.18-5.91-3.38,4.82h3.38Z"/><path class="cls-1" d="M199.89,549.06v-1h2.9v1Z"/><path class="cls-1" d="M207,552V542.4h-1.78l.63-1.12h2.33V552Z"/><path class="cls-1" d="M216.4,552.13a3.67,3.67,0,0,1-3.69-3.62,4.3,4.3,0,0,1,.88-2.45l3.63-5,.9.67-2.45,3.41a3.55,3.55,0,0,1,1-.14,3.47,3.47,0,0,1,3.43,3.52A3.68,3.68,0,0,1,216.4,552.13Zm0-6.12a2.51,2.51,0,1,0,2.5,2.5A2.5,2.5,0,0,0,216.39,546Z"/></svg>