<svg id="Layer_1" data-name="Layer 1" xmlns="http://www.w3.org/2000/svg" viewBox="0 0 250 720"><defs><style>.cls-1{fill:#d4ac76;}</style></defs><title>text</title><path class="cls-1" d="M21.36,537.37a4.18,4.18,0,0,1-2.93-1.26l.83-1a3.13,3.13,0,0,0,1,.77,2.48,2.48,0,0,0,1.18.31,1.66,1.66,0,0,0,1.1-.36,1.14,1.14,0,0,0,.42-.9,1.48,1.48,0,0,0-1.07-1.39l-1-.4a3.55,3.55,0,0,1-1.39-.92,2,2,0,0,1-.45-1.34,2.14,2.14,0,0,1,.7-1.61,2.42,2.42,0,0,1,1.73-.67,3.49,3.49,0,0,1,2.47.94l-.71,1a2.36,2.36,0,0,0-1.76-.76,1.37,1.37,0,0,0-.9.29,1,1,0,0,0-.35.79,1,1,0,0,0,.26.66,2.31,2.31,0,0,0,.86.52l1,.42a2.4,2.4,0,0,1,1.79,2.42,2.33,2.33,0,0,1-.75,1.79A2.82,2.82,0,0,1,21.36,537.37Z"/><path class="cls-1" d="M30.93,537.41a4.17,4.17,0,0,1-3.06-1.26,4.57,4.57,0,0,1,0-6.3,4.35,4.35,0,0,1,6.12,0,4.54,4.54,0,0,1,0,6.3A4.17,4.17,0,0,1,30.93,537.41Zm-2.22-2.08a3.08,3.08,0,0,0,4.45,0,3.4,3.4,0,0,0,0-4.65,3,3,0,0,0-2.23-1,3,3,0,0,0-2.22,1,3.4,3.4,0,0,0,0,4.65Zm1.43-7.48a.56.56,0,0,1-.43.19.55.55,0,0,1-.42-.19.74.74,0,0,1,0-.92.55.55,0,0,1,.42-.19.56.56,0,0,1,.43.19.71.71,0,0,1,0,.92Zm2.36,0a.56.56,0,0,1-.43.19.54.54,0,0,1-.42-.19.71.71,0,0,1,0-.92.54.54,0,0,1,.42-.19.56.56,0,0,1,.43.19.71.71,0,0,1,0,.92Z"/><path class="cls-1" d="M38.24,537.26v-8.51h.83l4.61,5.86v-5.86h1.19v8.51h-.66l-4.78-6.07v6.07Z"/><path class="cls-1" d="M48.42,537.26v-8.51H50.7a4.29,4.29,0,0,1,3,7.3,4.17,4.17,0,0,1-3,1.21Zm2.32-7.37H49.61v6.24h1.17a2.75,2.75,0,0,0,2.09-.92,3.11,3.11,0,0,0,.85-2.22,3,3,0,0,0-.88-2.21A2.84,2.84,0,0,0,50.74,529.89Z"/><path class="cls-1" d="M56.59,537.26,60,528.75h1.07l3.35,8.51H63.12L62.6,536H58.43l-.52,1.31Zm3.95-6.55-1.65,4.11h3.27Z"/><path class="cls-1" d="M71.94,533.56v-1.13h2.82V533a4.37,4.37,0,0,1-4.4,4.38,4.16,4.16,0,0,1-3.1-1.27,4.6,4.6,0,0,1,0-6.28,4.16,4.16,0,0,1,3.1-1.27,4.64,4.64,0,0,1,1.79.35,4.49,4.49,0,0,1,1.46,1l-.88.89a3,3,0,0,0-2.37-1.1,3,3,0,0,0-2.25,1,3.44,3.44,0,0,0,0,4.64,3,3,0,0,0,2.25,1,3,3,0,0,0,2-.75,3.19,3.19,0,0,0,1.08-2Z"/><path class="cls-1" d="M81.69,537.26v-.75l3.4-4.49a1.68,1.68,0,0,0,.48-1.08,1.2,1.2,0,0,0-.38-.9,1.27,1.27,0,0,0-1-.37,1.23,1.23,0,0,0-.94.41,1.7,1.7,0,0,0-.39,1.07H81.73a2.5,2.5,0,0,1,.7-1.8,2.41,2.41,0,0,1,1.81-.74,2.49,2.49,0,0,1,1.8.67,2.16,2.16,0,0,1,.71,1.67,3,3,0,0,1-.89,1.88l-2.65,3.37h3.65v1.06Z"/><path class="cls-1" d="M88.68,535.31v-.75l3-5.81h1.24l-2.8,5.5h1.84v-1.42h1.19v1.42h1v1.06h-1v2H91.92v-2Z"/><path class="cls-1" d="M101.43,537.26v-8.51h.83l4.6,5.86v-5.86h1.19v8.51h-.66l-4.77-6.07v6.07Z"/><path class="cls-1" d="M115.33,537.41a4.17,4.17,0,0,1-3.07-1.26,4.57,4.57,0,0,1,0-6.3,4.35,4.35,0,0,1,6.12,0,4.54,4.54,0,0,1,0,6.3A4.16,4.16,0,0,1,115.33,537.41Zm-2.23-2.08a3.08,3.08,0,0,0,4.45,0,3.4,3.4,0,0,0,0-4.65,3.06,3.06,0,0,0-4.45,0,3.43,3.43,0,0,0,0,4.65Z"/><path class="cls-1" d="M124.66,537.26l-3.32-8.51h1.33l2.55,6.54,2.55-6.54h1.31l-3.32,8.51Z"/><path class="cls-1" d="M136.11,533.53h-3.5v2.6h3.74v1.13h-4.93v-8.51h4.87v1.14h-3.68v2.51h3.5Z"/><path class="cls-1" d="M139.3,537.26v-8.51h1.22l2.74,4.54,2.78-4.54h1.17v8.51H146V531l0,0-2.73,4.4L140.56,531h-.07v6.24Z"/><path class="cls-1" d="M150.71,537.26v-8.51h2.6a2.7,2.7,0,0,1,1.87.66,2.2,2.2,0,0,1,.74,1.72,1.32,1.32,0,0,0-.1,2.59,2,2,0,0,1,.34,1.14,2.17,2.17,0,0,1-.74,1.74,2.76,2.76,0,0,1-1.9.66Zm2.48-7.37H151.9v2.58h1.51a1.28,1.28,0,0,0,.94-.37,1.3,1.3,0,0,0,.38-1,1.08,1.08,0,0,0-.42-.89A1.74,1.74,0,0,0,153.19,529.89Zm.26,3.64H151.9v2.6h1.48a1.73,1.73,0,0,0,1.16-.37,1.26,1.26,0,0,0,0-1.88A1.64,1.64,0,0,0,153.45,533.53Z"/><path class="cls-1" d="M163.83,533.53h-3.5v2.6h3.74v1.13h-4.93v-8.51H164v1.14h-3.68v2.51h3.5Z"/><path class="cls-1" d="M167,537.26v-8.51h3.16a2.62,2.62,0,0,1,1.91.75,2.55,2.55,0,0,1,.77,1.92,2.53,2.53,0,0,1-2.26,2.6l2.46,3.24H171.6L169.15,534h-.94v3.25Zm3-7.37h-1.81V533H170a1.72,1.72,0,0,0,1.2-.42,1.44,1.44,0,0,0,.46-1.12,1.42,1.42,0,0,0-.47-1.09A1.66,1.66,0,0,0,170,529.89Z"/><path class="cls-1" d="M180.44,537.26v-8.51h1.19v4l3.54-4h1.59l-3,3.38,3.07,5.13h-1.47l-2.48-4.15-1.26,1.42v2.73Z"/><path class="cls-1" d="M189.43,537.26v-8.51h1.19v7.38h3.49v1.13Z"/><path class="cls-1" d="M202.29,537.26v-7l-1.6.82V530l2.26-1.24h.52v8.55Z"/><path class="cls-1" d="M206.21,537.26v-.75l3.4-4.49a1.66,1.66,0,0,0,.47-1.08,1.19,1.19,0,0,0-.37-.9,1.27,1.27,0,0,0-1-.37,1.23,1.23,0,0,0-.94.41,1.7,1.7,0,0,0-.39,1.07h-1.18a2.5,2.5,0,0,1,.7-1.8,2.41,2.41,0,0,1,1.81-.74,2.49,2.49,0,0,1,1.8.67,2.16,2.16,0,0,1,.71,1.67,3,3,0,0,1-.89,1.88l-2.65,3.37h3.65v1.06Z"/><path class="cls-1" d="M213.8,533.55v-1h3.33v1Z"/><path class="cls-1" d="M220.35,537.26v-7l-1.6.82V530l2.26-1.24h.53v8.55Z"/><path class="cls-1" d="M227.08,537.39a2.87,2.87,0,0,1-1.72-.52,2.64,2.64,0,0,1-1-1.38l1.07-.42a1.69,1.69,0,0,0,.62.85,1.64,1.64,0,0,0,1,.34,1.66,1.66,0,0,0,1.7-1.7,1.59,1.59,0,0,0-.49-1.19,1.69,1.69,0,0,0-1.2-.48,1.56,1.56,0,0,0-1.21.52h-1.19v-4.66h4.77v1.14h-3.58v2.28a2.33,2.33,0,0,1,1.21-.34,2.86,2.86,0,0,1,2.09.78,2.62,2.62,0,0,1,.79,1.95,2.7,2.7,0,0,1-.84,2A2.81,2.81,0,0,1,227.08,537.39Z"/><path class="cls-1" d="M15,557.26l-3-7.73h1.21l2.32,5.94,2.32-5.94H19l-3,7.73Z"/><path class="cls-1" d="M19.68,557.26l3.11-7.73h1l3,7.73H25.61l-.47-1.19H21.35l-.47,1.19Zm2.79-8.55a.5.5,0,0,1-.38.17.49.49,0,0,1-.38-.17.6.6,0,0,1-.16-.42.57.57,0,0,1,.16-.42.46.46,0,0,1,.38-.17.47.47,0,0,1,.38.17.57.57,0,0,1,.16.42A.6.6,0,0,1,22.47,548.71Zm.8,2.59L21.77,555h3Zm1.35-2.59a.54.54,0,0,1-.39.17.5.5,0,0,1-.38-.17.6.6,0,0,1-.16-.42.57.57,0,0,1,.16-.42.47.47,0,0,1,.38-.17.5.5,0,0,1,.39.17.6.6,0,0,1,.15.42A.64.64,0,0,1,24.62,548.71Z"/><path class="cls-1" d="M29,557.26v-7.73H30v6.7h3.18v1Z"/><path class="cls-1" d="M35.58,557.26v-7.73h1.08v3.66l3.22-3.66h1.45l-2.73,3.06,2.8,4.67H40.06l-2.25-3.77-1.15,1.29v2.48Z"/><path class="cls-1" d="M46.69,557.4a3.77,3.77,0,0,1-2.79-1.15,4.14,4.14,0,0,1,0-5.73,4,4,0,0,1,5.57,0,4,4,0,0,1-2.78,6.87Zm-2-1.9a2.79,2.79,0,0,0,4.05,0,3,3,0,0,0,.83-2.11,2.92,2.92,0,0,0-.84-2.11,2.68,2.68,0,0,0-2-.87,2.71,2.71,0,0,0-2,.87,3.1,3.1,0,0,0,0,4.22Z"/><path class="cls-1" d="M53.33,557.26v-7.73h1.11l2.49,4.12,2.53-4.12h1.06v7.73H59.44v-5.71l0,0-2.49,4-2.44-3.94h-.07v5.68Z"/><path class="cls-1" d="M63.7,557.26v-7.73h1.11l2.49,4.12,2.53-4.12h1.06v7.73H69.81v-5.71l0,0-2.49,4-2.44-3.94h-.07v5.68Z"/><path class="cls-1" d="M78.33,553.87H75.15v2.36h3.4v1H74.07v-7.73h4.42v1H75.15v2.28h3.18Z"/><path class="cls-1" d="M81.23,557.26v-7.73H82l4.19,5.32v-5.32h1.08v7.73h-.6l-4.34-5.52v5.52Z"/><path class="cls-1" d="M91.54,557.19a.61.61,0,0,1-.43.19.72.72,0,0,1-.47-.19.6.6,0,0,1-.21-.46.63.63,0,0,1,.19-.47.69.69,0,0,1,.49-.18.58.58,0,0,1,.43.18.66.66,0,0,1,.18.47A.65.65,0,0,1,91.54,557.19Zm-.88-1.94-.19-5.51h1.21l-.12,5.51Z"/><path class="cls-1" d="M99,557.26v-7.73h4.22v1H100V553h2.78v1H100v3.24Z"/><path class="cls-1" d="M109,557.4a3.76,3.76,0,0,1-2.78-1.15,4.14,4.14,0,0,1,0-5.73,4,4,0,0,1,5.57,0,4.13,4.13,0,0,1,0,5.72A3.85,3.85,0,0,1,109,557.4Zm-2-1.9a2.79,2.79,0,0,0,4,0,3,3,0,0,0,.83-2.11,2.92,2.92,0,0,0-.84-2.11,2.78,2.78,0,0,0-4,0,3.1,3.1,0,0,0,0,4.22Zm1.3-6.79a.52.52,0,0,1-.38.17.52.52,0,0,1-.39-.17.64.64,0,0,1-.15-.42.6.6,0,0,1,.15-.42.49.49,0,0,1,.39-.17.48.48,0,0,1,.38.17.57.57,0,0,1,.16.42A.6.6,0,0,1,108.28,548.71Zm2.14,0a.51.51,0,0,1-.76,0,.6.6,0,0,1-.16-.42.57.57,0,0,1,.16-.42.51.51,0,0,1,.76,0,.57.57,0,0,1,.16.42A.6.6,0,0,1,110.42,548.71Z"/><path class="cls-1" d="M115.65,557.26v-7.73h2.87a2.42,2.42,0,0,1,1.74.67,2.4,2.4,0,0,1-1.36,4.12l2.24,2.94h-1.33l-2.22-3h-.86v3Zm2.73-6.7h-1.65v2.79h1.64a1.59,1.59,0,0,0,1.09-.38,1.33,1.33,0,0,0,.42-1,1.3,1.3,0,0,0-.43-1A1.48,1.48,0,0,0,118.38,550.56Z"/><path class="cls-1" d="M122.74,557.26l3.1-7.73h1l3,7.73h-1.19l-.47-1.19h-3.79l-.47,1.19Zm3.59-6-1.5,3.74h3Z"/><path class="cls-1" d="M132,557.26v-7.73h.75l4.19,5.32v-5.32H138v7.73h-.6l-4.34-5.52v5.52Z"/><path class="cls-1" d="M141.26,557.26v-7.73h1.11l2.49,4.12,2.53-4.12h1.06v7.73h-1.08v-5.71l0,0-2.49,4-2.44-3.94h-.07v5.68Z"/><path class="cls-1" d="M150.65,557.26l3.1-7.73h1l3,7.73h-1.19l-.47-1.19h-3.79l-.48,1.19Zm2.79-8.55a.52.52,0,0,1-.39.17.52.52,0,0,1-.38-.17.64.64,0,0,1-.15-.42.6.6,0,0,1,.15-.42.48.48,0,0,1,.38-.17.49.49,0,0,1,.39.17.57.57,0,0,1,.16.42A.6.6,0,0,1,153.44,548.71Zm.8,2.59-1.5,3.74h3Zm1.34-2.59a.51.51,0,0,1-.76,0,.6.6,0,0,1-.16-.42.57.57,0,0,1,.16-.42.51.51,0,0,1,.76,0,.57.57,0,0,1,.16.42A.6.6,0,0,1,155.58,548.71Z"/><path class="cls-1" d="M159.92,557.26v-7.73H161v6.7h3.18v1Z"/><path class="cls-1" d="M165.75,557.26l3.1-7.73h1l3,7.73h-1.19l-.47-1.19h-3.79l-.47,1.19Zm3.59-6-1.5,3.74h3Z"/><path class="cls-1" d="M175,557.26v-7.73h.75l4.19,5.32v-5.32H181v7.73h-.6l-4.34-5.52v5.52Z"/><path class="cls-1" d="M191.93,557.4a3.76,3.76,0,0,1-2.78-1.15,4.14,4.14,0,0,1,0-5.73,3.95,3.95,0,0,1,5.56,0,4.11,4.11,0,0,1,0,5.72A3.81,3.81,0,0,1,191.93,557.4Zm-2-1.9a2.79,2.79,0,0,0,4.05,0,3,3,0,0,0,.83-2.11,2.92,2.92,0,0,0-.84-2.11,2.78,2.78,0,0,0-4,0,3.1,3.1,0,0,0,0,4.22Zm1.3-6.79a.52.52,0,0,1-.38.17.52.52,0,0,1-.39-.17.64.64,0,0,1-.15-.42.6.6,0,0,1,.15-.42.49.49,0,0,1,.39-.17.48.48,0,0,1,.38.17.57.57,0,0,1,.16.42A.6.6,0,0,1,191.21,548.71Zm2.14,0a.5.5,0,0,1-.38.17.54.54,0,0,1-.39-.17.64.64,0,0,1-.15-.42.6.6,0,0,1,.15-.42.5.5,0,0,1,.39-.17.47.47,0,0,1,.38.17.57.57,0,0,1,.16.42A.6.6,0,0,1,193.35,548.71Z"/><path class="cls-1" d="M198.58,557.26v-7.73h.75l4.19,5.32v-5.32h1.08v7.73H204l-4.34-5.52v5.52Z"/><path class="cls-1" d="M209.71,557.36a3.7,3.7,0,0,1-1.44-.31,4,4,0,0,1-1.23-.83l.76-.88a3.13,3.13,0,0,0,.89.71,2.41,2.41,0,0,0,1.07.28,1.49,1.49,0,0,0,1-.33,1,1,0,0,0,.39-.83,1.36,1.36,0,0,0-1-1.26l-.91-.36a3.29,3.29,0,0,1-1.27-.83,1.87,1.87,0,0,1-.41-1.22,1.94,1.94,0,0,1,.64-1.47,2.2,2.2,0,0,1,1.57-.6,3.15,3.15,0,0,1,2.25.85l-.65.87a2.16,2.16,0,0,0-1.6-.69,1.2,1.2,0,0,0-.81.27.86.86,0,0,0-.32.71.88.88,0,0,0,.23.6,2.15,2.15,0,0,0,.79.48l.92.37a2.2,2.2,0,0,1,1.63,2.21,2.16,2.16,0,0,1-.68,1.63A2.62,2.62,0,0,1,209.71,557.36Z"/><path class="cls-1" d="M214.88,557.26v-7.73H216v3.66l3.22-3.66h1.45l-2.73,3.06,2.8,4.67h-1.34l-2.25-3.77L216,554.78v2.48Z"/><path class="cls-1" d="M222.32,557.26l3.1-7.73h1l3,7.73h-1.19l-.47-1.19H224l-.47,1.19Zm3.59-6-1.5,3.74h3Z"/><path class="cls-1" d="M233.65,557.36a3.7,3.7,0,0,1-1.44-.31,4,4,0,0,1-1.23-.83l.76-.88a3.13,3.13,0,0,0,.89.71,2.41,2.41,0,0,0,1.07.28,1.47,1.47,0,0,0,1-.33,1,1,0,0,0,.39-.83,1.36,1.36,0,0,0-1-1.26l-.91-.36a3.29,3.29,0,0,1-1.27-.83,1.87,1.87,0,0,1-.41-1.22,1.94,1.94,0,0,1,.64-1.47,2.2,2.2,0,0,1,1.57-.6,3.13,3.13,0,0,1,2.25.85l-.65.87a2.16,2.16,0,0,0-1.6-.69,1.2,1.2,0,0,0-.81.27.92.92,0,0,0-.09,1.31,2.15,2.15,0,0,0,.79.48l.92.37a2.2,2.2,0,0,1,1.63,2.21,2.16,2.16,0,0,1-.68,1.63A2.62,2.62,0,0,1,233.65,557.36Z"/></svg>