<svg id="Layer_1" data-name="Layer 1" xmlns="http://www.w3.org/2000/svg" viewBox="0 0 250 720"><defs><style>.cls-1{fill:#d4ac76;}</style></defs><title>text</title><path class="cls-1" d="M22.76,67.84V53.16h2.66L30,60.4l4.6-7.24h2.89V67.84H34.69V57.79l-.22,0-4.55,7-4.45-6.94h.05v10Z"/><path class="cls-1" d="M56.75,60.49a7.31,7.31,0,0,1-2.23,5.38,7.67,7.67,0,0,1-10.79,0,7.62,7.62,0,0,1,0-10.77,7.63,7.63,0,0,1,13,5.39ZM45.67,64a4.83,4.83,0,0,0,6.9,0,5,5,0,0,0,0-7,4.81,4.81,0,0,0-6.9,0,5.06,5.06,0,0,0,0,7Z"/><path class="cls-1" d="M61,67.84V53.16h4.19a7.19,7.19,0,0,1,5.2,2.1,7.06,7.06,0,0,1,2.16,5.29,6.86,6.86,0,0,1-2.19,5.24,7.48,7.48,0,0,1-5.32,2Zm4.22-12.23H63.52v9.78h1.69A4.22,4.22,0,0,0,68.46,64a5,5,0,0,0,1.31-3.5A4.82,4.82,0,0,0,68.44,57,4.29,4.29,0,0,0,65.19,55.61Z"/><path class="cls-1" d="M85,61.63H79.57v3.76h6v2.45H76.82V53.16h8.55v2.45h-5.8v3.57H85Z"/><path class="cls-1" d="M90,67.84V53.16h5.75a5,5,0,0,1,3.54,1.33A4.57,4.57,0,0,1,100.7,58a4.43,4.43,0,0,1-1,3,4.71,4.71,0,0,1-2.74,1.56l3.94,5.33h-3.1L93.94,62.6H92.76v5.24Zm5.32-12.23H92.76V60.4h2.56a2.69,2.69,0,0,0,1.91-.66,2.16,2.16,0,0,0,.71-1.69,2.28,2.28,0,0,0-.73-1.74A2.58,2.58,0,0,0,95.32,55.61Z"/><path class="cls-1" d="M105,67.84V53.16h1.93l7.23,9.23V53.16h2.76V67.84h-1.85l-7.31-9.34v9.34Z"/><path class="cls-1" d="M133.77,67.84l-5.62-14.68H131l4,10.56,4-10.56h2.79l-5.56,14.68Z"/><path class="cls-1" d="M153.48,61.63h-5.43v3.76h6v2.45h-8.72V53.16h8.55v2.45h-5.79v3.57h5.43Z"/><path class="cls-1" d="M158.48,67.84V53.16h5.74a4.94,4.94,0,0,1,3.54,1.33A4.57,4.57,0,0,1,169.17,58a4.43,4.43,0,0,1-1,3,4.65,4.65,0,0,1-2.74,1.56l4,5.33h-3.1l-3.81-5.24h-1.19v5.24Zm5.32-12.23h-2.57V60.4h2.57a2.7,2.7,0,0,0,1.91-.66,2.2,2.2,0,0,0,.71-1.69,2.28,2.28,0,0,0-.73-1.74A2.61,2.61,0,0,0,163.8,55.61Z"/><path class="cls-1" d="M177.31,68a7,7,0,0,1-2.77-.58,7.19,7.19,0,0,1-2.37-1.6l1.74-2.09a5.34,5.34,0,0,0,1.62,1.31,4.2,4.2,0,0,0,1.94.51,2.34,2.34,0,0,0,1.56-.5,1.58,1.58,0,0,0,.61-1.27,2.19,2.19,0,0,0-1.61-2l-1.63-.65A6.36,6.36,0,0,1,174,59.5a3.78,3.78,0,0,1-.78-2.5,3.82,3.82,0,0,1,1.24-2.79A4.25,4.25,0,0,1,177.53,53a6.33,6.33,0,0,1,4.52,1.67l-1.62,2.05a3.79,3.79,0,0,0-2.9-1.27,2,2,0,0,0-1.32.42,1.32,1.32,0,0,0-.5,1,1.37,1.37,0,0,0,.39,1,3.92,3.92,0,0,0,1.26.76l1.71.68q3.27,1.32,3.33,4.24A4.13,4.13,0,0,1,181,66.8,5.38,5.38,0,0,1,177.31,68Z"/><path class="cls-1" d="M186.6,67.84V53.16h2.75V67.84Z"/><path class="cls-1" d="M208.83,60.49a7.63,7.63,0,1,1-13-5.39,7.64,7.64,0,0,1,13,5.39ZM197.74,64a4.61,4.61,0,0,0,3.45,1.45A4.67,4.67,0,0,0,204.65,64a5.06,5.06,0,0,0,0-7,4.68,4.68,0,0,0-3.46-1.46A4.62,4.62,0,0,0,197.74,57a5.09,5.09,0,0,0,0,7Z"/><path class="cls-1" d="M213.05,67.84V53.16H215l7.22,9.23V53.16H225V67.84h-1.84L215.8,58.5v9.34Z"/><path class="cls-1" d="M29,90.64,34.64,76h2.49l5.64,14.68H39.94l-.78-2H32.59l-.78,2Zm6.91-10.57-2.35,6.09h4.69Z"/><path class="cls-1" d="M49.07,90.64,43.45,76h2.87l4,10.56,4-10.56h2.79L51.57,90.64Z"/><path class="cls-1" d="M72.38,90.83a7,7,0,0,1-2.77-.58,7.13,7.13,0,0,1-2.38-1.6L69,86.55a5.23,5.23,0,0,0,1.62,1.32,4.13,4.13,0,0,0,1.93.51,2.42,2.42,0,0,0,1.57-.5,1.61,1.61,0,0,0,.61-1.27,2.2,2.2,0,0,0-1.61-2l-1.64-.65A6.32,6.32,0,0,1,69,82.3a3.75,3.75,0,0,1-.79-2.5A3.82,3.82,0,0,1,69.47,77a4.25,4.25,0,0,1,3.12-1.22,6.3,6.3,0,0,1,4.52,1.67l-1.62,2.05a3.78,3.78,0,0,0-2.9-1.27,2,2,0,0,0-1.32.42,1.32,1.32,0,0,0-.5,1,1.37,1.37,0,0,0,.39,1,3.92,3.92,0,0,0,1.26.76l1.72.68c2.17.87,3.28,2.29,3.32,4.24a4.13,4.13,0,0,1-1.38,3.22A5.37,5.37,0,0,1,72.38,90.83Z"/><path class="cls-1" d="M81.66,90.64V76h2.55v6.47L89.83,76h3.4l-5.18,5.86,5.3,8.82H90.17l-4-6.7-2,2.22v4.48Z"/><path class="cls-1" d="M96,90.64,101.69,76h2.49l5.64,14.68H107l-.78-2H99.64l-.78,2Zm6.91-10.57-2.35,6.09h4.69Zm2.14-6.62a2.12,2.12,0,1,1-4.24,0,2,2,0,0,1,.62-1.5,2.13,2.13,0,0,1,3.62,1.5Zm-2.66.55a.75.75,0,0,0,.55.23.71.71,0,0,0,.54-.23.78.78,0,0,0,0-1.1.77.77,0,0,0-1.31.55A.76.76,0,0,0,102.41,74Z"/><path class="cls-1" d="M113.26,90.64V76h1.93l7.23,9.23V76h2.75V90.64h-1.84L116,81.3v9.34Z"/><path class="cls-1" d="M138.6,84.43h-5.43v3.76h6v2.45h-8.72V76H139v2.45h-5.79V82h5.43Z"/><path class="cls-1" d="M143.6,90.64V76h2.76V88h5.39v2.64Z"/><path class="cls-1" d="M154.3,90.64,160,76h2.49l5.64,14.68h-2.83l-.78-2h-6.57l-.78,2Zm5.63-16.19a1.17,1.17,0,0,1-.89.39,1.21,1.21,0,0,1-.91-.39,1.32,1.32,0,0,1-.38-.94A1.28,1.28,0,0,1,159,72.19a1.24,1.24,0,0,1,.89.38,1.3,1.3,0,0,1,.37.94A1.31,1.31,0,0,1,159.93,74.45Zm1.28,5.62-2.35,6.09h4.68Zm3.1-5.62a1.37,1.37,0,0,1-1,.39,1.34,1.34,0,0,1-1-.39,1.27,1.27,0,0,1-.41-.94,1.26,1.26,0,0,1,.41-.94,1.38,1.38,0,0,1,1-.38,1.4,1.4,0,0,1,1,.38,1.29,1.29,0,0,1,.4.94A1.3,1.3,0,0,1,164.31,74.45Z"/><path class="cls-1" d="M171.53,90.64V76h1.93l7.23,9.23V76h2.75V90.64H181.6l-7.31-9.34v9.34Z"/><path class="cls-1" d="M197.66,84.51V82.06h5.26l0,1.25a7.5,7.5,0,0,1-1.07,3.89A7.4,7.4,0,0,1,199,89.91a7.57,7.57,0,0,1-3.74,1,7.62,7.62,0,1,1,0-15.24A7.23,7.23,0,0,1,200.81,78l-1.88,1.85a4.75,4.75,0,0,0-3.61-1.59,4.69,4.69,0,0,0-3.52,1.44,5.22,5.22,0,0,0,0,7.08,4.5,4.5,0,0,0,3.34,1.44,5.23,5.23,0,0,0,3.27-1,4.64,4.64,0,0,0,1.72-2.7Z"/><path class="cls-1" d="M204.93,90.64,210.6,76h2.48l5.65,14.68H215.9l-.78-2h-6.57l-.79,2Zm6.91-10.57-2.35,6.09h4.69Z"/></svg>