<svg id="Layer_1" data-name="Layer 1" xmlns="http://www.w3.org/2000/svg" viewBox="0 0 250 720"><defs><style>.cls-1{fill:#d80201;}</style></defs><title>text</title><path class="cls-1" d="M24.76,401l-6.43-8.07-.4.41V401H14.42V383h3.51v7.61L24.54,383H29l-7.61,8.31,8,9.69Z"/><path class="cls-1" d="M31.11,401V380.74h3.26V401Z"/><path class="cls-1" d="M39.1,386.3a2,2,0,1,1,1.94-2A2,2,0,0,1,39.1,386.3ZM37.45,401V389.26h3.27V401Z"/><path class="cls-1" d="M58.72,401v-6.39c0-1.38-.21-2.89-1.94-2.89-1.92,0-2.24,1.75-2.24,3.29v6H51.27v-6.21A5.26,5.26,0,0,0,51,392.8a1.89,1.89,0,0,0-1.75-1.13,2.13,2.13,0,0,0-1.84,1.05,4.87,4.87,0,0,0-.38,2.24v6H43.8V389.26h3.26v1.33a4.48,4.48,0,0,1,3.57-1.7A4,4,0,0,1,54.27,391a4.33,4.33,0,0,1,3.83-2.13,3.84,3.84,0,0,1,3.27,1.67,5.14,5.14,0,0,1,.62,2.83V401Z"/><path class="cls-1" d="M74.06,401v-1.54a4.52,4.52,0,0,1-3.81,1.92c-3.5,0-5.75-2.91-5.75-6.26s2.25-6.18,5.67-6.18a4.88,4.88,0,0,1,3.89,1.86v-1.49h3.29V401Zm-2.91-9.12a3.28,3.28,0,1,0,3.26,3.27A3.26,3.26,0,0,0,71.15,391.83Z"/><path class="cls-1" d="M83.78,392.07V401H80.52v-8.88h-1.3v-2.81h1.3v-4h3.26v4h2.3v2.81Z"/><path class="cls-1" d="M91.5,401.33a6.23,6.23,0,0,1-4.45-1.94l1.73-2a3.8,3.8,0,0,0,2.75,1.38,1.37,1.37,0,0,0,1.48-1.3c0-2-5.2-1-5.2-4.94,0-2.37,2-3.7,4.18-3.7a6,6,0,0,1,3.8,1.25L94.18,392a3.29,3.29,0,0,0-2-.78c-.56,0-1.24.35-1.24,1,0,1.7,5.4.94,5.4,4.94C96.39,399.87,94,401.33,91.5,401.33Z"/><path class="cls-1" d="M113.64,401v-6.39c0-1.38-.22-2.89-1.94-2.89-1.92,0-2.24,1.75-2.24,3.29v6h-3.27v-6.21a5.26,5.26,0,0,0-.24-1.94,1.9,1.9,0,0,0-1.76-1.13,2.11,2.11,0,0,0-1.83,1.05A4.87,4.87,0,0,0,102,395v6H98.71V389.26H102v1.33a4.48,4.48,0,0,1,3.56-1.7,4,4,0,0,1,3.65,2.13,4.32,4.32,0,0,1,3.83-2.13,3.85,3.85,0,0,1,3.27,1.67,5.14,5.14,0,0,1,.62,2.83V401Z"/><path class="cls-1" d="M129,401v-1.54a4.52,4.52,0,0,1-3.81,1.92c-3.51,0-5.75-2.91-5.75-6.26s2.24-6.18,5.67-6.18a4.9,4.9,0,0,1,3.89,1.86v-1.49h3.29V401Zm-2.92-9.12a3.28,3.28,0,1,0,3.27,3.27A3.26,3.26,0,0,0,126.06,391.83Z"/><path class="cls-1" d="M143,392.23a2.93,2.93,0,0,0-1.56-.4c-2.21,0-2.81,1.56-2.81,3.51V401h-3.26V389.26h3.26V391a3.77,3.77,0,0,1,3.4-2.13,3.67,3.67,0,0,1,1.43.27Z"/><path class="cls-1" d="M149,392.07V401h-3.26v-8.88h-1.3v-2.81h1.3v-4H149v4h2.3v2.81Z"/><path class="cls-1" d="M166.86,401.33a4.61,4.61,0,0,1-3.84-1.92V401h-3.26V380.74H163v10a5,5,0,0,1,3.92-1.86c3.43,0,5.69,2.91,5.69,6.18S170.37,401.33,166.86,401.33Zm-.89-9.5a3.28,3.28,0,1,0,3.26,3.27A3.26,3.26,0,0,0,166,391.83Z"/><path class="cls-1" d="M181.19,401.33c-3.72,0-6.69-2.32-6.69-6.21s3-6.23,6.72-6.23,6.64,2.35,6.64,6.21S184.89,401.33,181.19,401.33Zm0-9.5a3.28,3.28,0,1,0,3.32,3.29A3.31,3.31,0,0,0,181.17,391.83Z"/><path class="cls-1" d="M194.1,401.33a6.23,6.23,0,0,1-4.45-1.94l1.72-2a3.82,3.82,0,0,0,2.76,1.38,1.38,1.38,0,0,0,1.48-1.3c0-2-5.21-1-5.21-4.94,0-2.37,2-3.7,4.19-3.7a6,6,0,0,1,3.8,1.25L196.77,392a3.24,3.24,0,0,0-1.94-.78c-.57,0-1.24.35-1.24,1,0,1.7,5.4.94,5.4,4.94C199,399.87,196.61,401.33,194.1,401.33Z"/><path class="cls-1" d="M204.6,392.07V401h-3.26v-8.88H200v-2.81h1.3v-4h3.26v4h2.3v2.81Z"/><path class="cls-1" d="M217.53,401v-1.54a4.5,4.5,0,0,1-3.8,1.92c-3.51,0-5.75-2.91-5.75-6.26s2.24-6.18,5.67-6.18a4.86,4.86,0,0,1,3.88,1.86v-1.49h3.3V401Zm-2.91-9.12a3.28,3.28,0,1,0,3.27,3.27A3.26,3.26,0,0,0,214.62,391.83Z"/><path class="cls-1" d="M232.9,401v-1.54a4.52,4.52,0,0,1-3.81,1.92c-3.51,0-5.75-2.91-5.75-6.26s2.24-6.18,5.67-6.18a4.9,4.9,0,0,1,3.89,1.86v-10h3.29V401ZM230,391.83a3.28,3.28,0,1,0,3.27,3.27A3.26,3.26,0,0,0,230,391.83Z"/><path class="cls-1" d="M29.66,438h-5.6V421.28h4.13a6.59,6.59,0,0,1,4.07,1,4.47,4.47,0,0,1,1.5,3.43,3.48,3.48,0,0,1-1.82,3.34,3.89,3.89,0,0,1,2.17,1.05,4.49,4.49,0,0,1,1.2,3.13C35.31,436.55,32.66,438,29.66,438Zm-1.4-14h-1v4.3h.93c1.45,0,2.52-.57,2.52-2.15S29.71,423.93,28.26,423.93Zm.55,6.78h-1.5v4.62h1.4c1.6,0,3.25-.38,3.25-2.33S30.36,430.71,28.81,430.71Z"/><path class="cls-1" d="M40.36,433c0,1.67.85,2.9,2.65,2.9a2.86,2.86,0,0,0,2.58-1.45l2.8.45a5.32,5.32,0,0,1-5.33,3.37,5.43,5.43,0,0,1-5.8-5.77,5.36,5.36,0,0,1,5.68-5.75c3.57,0,5.52,2.4,5.52,5.85v.4Zm2.63-4.1a2.46,2.46,0,0,0-2.53,2.17h5.13A2.51,2.51,0,0,0,43,428.93Z"/><path class="cls-1" d="M54.24,438.3a5.76,5.76,0,0,1-4.13-1.8l1.6-1.85a3.52,3.52,0,0,0,2.55,1.28,1.28,1.28,0,0,0,1.38-1.2c0-1.85-4.83-.93-4.83-4.58,0-2.19,1.83-3.42,3.88-3.42a5.55,5.55,0,0,1,3.52,1.15l-1.5,1.78a2.94,2.94,0,0,0-1.8-.73c-.52,0-1.15.32-1.15.92,0,1.58,5,.88,5,4.58C58.76,437,56.56,438.3,54.24,438.3Z"/><path class="cls-1" d="M66.54,438.3c-3.45,0-6.2-2.15-6.2-5.75s2.75-5.77,6.22-5.77,6.15,2.18,6.15,5.75S70,438.3,66.54,438.3Zm-2.63-13.19a1.8,1.8,0,1,1,0-3.6,1.8,1.8,0,0,1,0,3.6Zm2.6,4.39a3,3,0,1,0,3.08,3.05A3.07,3.07,0,0,0,66.51,429.5Zm2.6-4.39a1.83,1.83,0,0,1-1.8-1.8,1.8,1.8,0,1,1,1.8,1.8Z"/><path class="cls-1" d="M82.46,438l-4.07-4.65-.33.33V438H75V419.23h3v11.85l4-3.95h4.1l-5.07,4.75L86.61,438Z"/><path class="cls-1" d="M105,438v-7.42h-7V438H94.69V421.28h3.25v6.45h7v-6.45h3.24V438Z"/><path class="cls-1" d="M120.11,438.33a8.71,8.71,0,1,1,8.92-8.7A8.66,8.66,0,0,1,120.11,438.33Zm0-14.45a5.75,5.75,0,1,0,5.58,5.72A5.66,5.66,0,0,0,120.11,423.88Z"/><path class="cls-1" d="M147.48,438,146,427.68l-4.6,10.5h-.9l-4.42-10.5L134.41,438h-3.27l3.1-17h2.22l4.55,10.9,4.75-10.9H148l2.78,17Z"/><path class="cls-1" d="M153.74,438V421.28H163v2.83h-6v3.7h5.75v2.82H157v4.5h6V438Z"/><path class="cls-1" d="M185.06,428.33h-2.52l-.35,2.25h2.54l-.42,2.72h-2.55L181,438h-3.12l.75-4.65h-2.3l-.73,4.65h-3.1l.75-4.65h-2.57l.42-2.72h2.58l.35-2.25h-2.55l.42-2.75h2.55l.68-4.3h3.1l-.7,4.3h2.3l.67-4.3h3.13l-.68,4.3h2.52Zm-7.95,0-.35,2.25h2.3l.35-2.25Z"/><path class="cls-1" d="M192.44,438.38c-3.38,0-6.25-2.18-6.25-5.73a9.42,9.42,0,0,1,2.1-5.27c1.65-2.3,3.37-4.52,5.07-6.8l2.3,1.75-3.95,5.05a5.14,5.14,0,0,1,7.12,5.1C198.83,436.2,196,438.38,192.44,438.38Zm.1-8.8a3.11,3.11,0,1,0,3.05,3.1A3.08,3.08,0,0,0,192.54,429.58Z"/><path class="cls-1" d="M206.69,438.38c-4.6,0-6.45-4.85-6.45-8.75s1.82-8.77,6.45-8.77,6.44,4.82,6.44,8.74S211.31,438.38,206.69,438.38Zm0-14.65c-2.55,0-3.2,3.95-3.2,5.87s.65,5.93,3.2,5.93,3.2-4,3.2-5.93S209.24,423.73,206.69,423.73Z"/><path class="cls-1" d="M219.46,438V424.13h-2.4v-2.85h5.65V438Z"/></svg>