<svg id="Layer_1" data-name="Layer 1" xmlns="http://www.w3.org/2000/svg" viewBox="0 0 1250 240"><defs><style>.cls-1{fill:#d4ac76;}</style></defs><title>text</title><path class="cls-1" d="M1051,128.75V113.29h5.09a4.66,4.66,0,0,1,3.38,1.29,4.25,4.25,0,0,1,1.33,3.19,3.65,3.65,0,0,1-1.73,3.11,4.33,4.33,0,0,1,1.71,1.38,3.29,3.29,0,0,1,.64,2,4.24,4.24,0,0,1-1.35,3.27,4.85,4.85,0,0,1-3.42,1.25Zm4.75-12.88h-2.07v3.88H1056a2.12,2.12,0,0,0,1.54-.57,1.89,1.89,0,0,0,.59-1.43,1.65,1.65,0,0,0-.65-1.37A2.73,2.73,0,0,0,1055.78,115.87Zm.44,6.2h-2.51v4.1h2.45a2.5,2.5,0,0,0,1.75-.58,1.93,1.93,0,0,0,.64-1.5,1.91,1.91,0,0,0-.6-1.47A2.46,2.46,0,0,0,1056.22,122.07Z"/><path class="cls-1" d="M1074.31,122.21h-5.72v4h6.28v2.58h-9.18V113.29h9v2.58h-6.1v3.76h5.72Z"/><path class="cls-1" d="M1083.28,129a7.34,7.34,0,0,1-2.91-.61,7.66,7.66,0,0,1-2.51-1.69l1.84-2.2a5.53,5.53,0,0,0,1.71,1.38,4.32,4.32,0,0,0,2,.54,2.53,2.53,0,0,0,1.65-.53,1.67,1.67,0,0,0,.64-1.34,2.29,2.29,0,0,0-1.69-2.14l-1.73-.69a6.62,6.62,0,0,1-2.57-1.71,3.94,3.94,0,0,1-.83-2.62,4,4,0,0,1,1.31-2.94,4.5,4.5,0,0,1,3.28-1.29,6.65,6.65,0,0,1,4.76,1.77l-1.7,2.15a4,4,0,0,0-3.06-1.34,2.08,2.08,0,0,0-1.38.44,1.39,1.39,0,0,0-.53,1.09,1.43,1.43,0,0,0,.41,1.06,4,4,0,0,0,1.33.8l1.8.72q3.43,1.38,3.5,4.47a4.33,4.33,0,0,1-1.45,3.38A5.62,5.62,0,0,1,1083.28,129Z"/><path class="cls-1" d="M1091.11,116.07v-2.78h12.74v2.78h-4.92v12.68H1096V116.07Z"/><path class="cls-1" d="M1104,128.75l6-15.46h2.62l5.94,15.46h-3l-.82-2.14h-6.91l-.83,2.14Zm5.94-17a1.26,1.26,0,0,1-1,.41,1.28,1.28,0,0,1-1-.41,1.38,1.38,0,0,1,1-2.37,1.28,1.28,0,0,1,.94.4,1.35,1.35,0,0,1,.39,1A1.41,1.41,0,0,1,1109.93,111.7Zm1.34,5.92-2.48,6.41h4.93Zm3.26-5.92a1.44,1.44,0,0,1-1,.41,1.42,1.42,0,0,1-1-.41,1.3,1.3,0,0,1-.43-1,1.28,1.28,0,0,1,.43-1,1.41,1.41,0,0,1,1-.4,1.43,1.43,0,0,1,1,.4,1.3,1.3,0,0,1,.42,1A1.32,1.32,0,0,1,1114.53,111.7Z"/><path class="cls-1" d="M1121.73,128.75V113.29h2.9V126h5.68v2.78Z"/><path class="cls-1" d="M1134.09,128.75V113.29h2.9V126h5.68v2.78Z"/><path class="cls-1" d="M1043.6,150.75V135.29h2.68v6.82l5.92-6.82h3.58l-5.45,6.17,5.57,9.29h-3.34l-4.21-7.06-2.07,2.34v4.72Z"/><path class="cls-1" d="M1058.32,150.75l6-15.46h2.62l5.94,15.46h-3l-.82-2.14h-6.91l-.83,2.14Zm7.28-11.13-2.48,6.41h4.93Z"/><path class="cls-1" d="M1073,138.07v-2.78h12.74v2.78h-4.92v12.68H1078V138.07Z"/><path class="cls-1" d="M1085.92,150.75l6-15.46h2.62l5.94,15.46h-3l-.82-2.14h-6.91l-.83,2.14Zm7.28-11.13-2.48,6.41h4.93Z"/><path class="cls-1" d="M1103.66,150.75V135.29h2.9V148h5.68v2.78Z"/><path class="cls-1" d="M1130.16,143a8,8,0,1,1-2.35-5.67A7.69,7.69,0,0,1,1130.16,143Zm-11.67,3.69a5.08,5.08,0,0,0,7.27,0,5.31,5.31,0,0,0,0-7.4,5.08,5.08,0,0,0-7.27,0,5.34,5.34,0,0,0,0,7.4Z"/><path class="cls-1" d="M1144.2,144.29v-2.58h5.54l0,1.32a7.89,7.89,0,0,1-1.13,4.1,7.7,7.7,0,0,1-2.93,2.85,8,8,0,0,1-3.94,1,8,8,0,1,1,0-16,7.6,7.6,0,0,1,5.76,2.5l-2,2a5,5,0,0,0-3.8-1.67,4.93,4.93,0,0,0-3.7,1.51,5.47,5.47,0,0,0,0,7.45,4.69,4.69,0,0,0,3.51,1.52,5.51,5.51,0,0,0,3.44-1.07,4.89,4.89,0,0,0,1.82-2.85Z"/></svg>