<svg id="Layer_1" data-name="Layer 1" xmlns="http://www.w3.org/2000/svg" viewBox="0 0 160 600"><defs><style>.cls-1{fill:#fff;}</style></defs><title>text</title><path class="cls-1" d="M46.2,67,40.81,83H38.88L33.49,67h2.1L40,80.19,44.46,67Z"/><path class="cls-1" d="M50,67V69H48V67ZM50,71.15V83H48.12V71.15Z"/><path class="cls-1" d="M69.41,83H67.5L64,76.38l-2.57,3V83H59.63V67h1.84V77.25l5.5-6.1h2l-3.7,4.16Z"/><path class="cls-1" d="M75.39,83.32a4.49,4.49,0,0,1-3.8-1.81A7.21,7.21,0,0,1,70.23,77a6.5,6.5,0,0,1,1.53-4.52,5,5,0,0,1,3.82-1.68,4.67,4.67,0,0,1,3.86,1.77A6.94,6.94,0,0,1,80.85,77a6.59,6.59,0,0,1-1.52,4.52A5,5,0,0,1,75.39,83.32Zm.14-1.53a2.91,2.91,0,0,0,2.36-1.16,5.64,5.64,0,0,0,1-3.6,5.22,5.22,0,0,0-1-3.57,3,3,0,0,0-2.33-1.11,2.92,2.92,0,0,0-2.32,1.12,5.43,5.43,0,0,0-1,3.54,5.68,5.68,0,0,0,1,3.68A2.94,2.94,0,0,0,75.53,81.79Z"/><path class="cls-1" d="M84.51,83h-.89V67h1.84v6.13A3.86,3.86,0,0,1,89,70.83a4.33,4.33,0,0,1,3.42,1.6,7,7,0,0,1,1.38,4.67,7.14,7.14,0,0,1-1.36,4.43,4.21,4.21,0,0,1-3.52,1.79A4,4,0,0,1,85.17,81Zm.95-4.64A3.64,3.64,0,0,0,86.58,81a3.28,3.28,0,0,0,2.1.82A2.67,2.67,0,0,0,91,80.6a5.77,5.77,0,0,0,.86-3.35A6.69,6.69,0,0,0,91,73.66a2.62,2.62,0,0,0-2.31-1.31,2.9,2.9,0,0,0-2.1.93,4,4,0,0,0-1.11,2.41Z"/><path class="cls-1" d="M98.35,83H96.51V67h1.84Z"/><path class="cls-1" d="M109.85,79.46l1.71.35a4.74,4.74,0,0,1-1.83,2.51,5.23,5.23,0,0,1-3.2,1,5,5,0,0,1-3.93-1.71,7.44,7.44,0,0,1,.06-9,5,5,0,0,1,3.92-1.74,4.73,4.73,0,0,1,3.73,1.6,7.26,7.26,0,0,1,1.45,4.81h-8.6c0,1.79.37,3,1.12,3.62a3.68,3.68,0,0,0,2.38.93A3.25,3.25,0,0,0,109.85,79.46Zm-.11-3.59a4.81,4.81,0,0,0-.33-1.77,2.92,2.92,0,0,0-1-1.32,2.76,2.76,0,0,0-1.74-.55,3.11,3.11,0,0,0-2.33,1,4.05,4.05,0,0,0-1.07,2.65Z"/><path class="cls-1" d="M116.36,83h-1.84V71.15h1.62v2.77a6,6,0,0,1,1.72-2.54,3.16,3.16,0,0,1,1.76-.58c.19,0,.43,0,.73,0v1.76H120a3.26,3.26,0,0,0-2.53,1.13,4.66,4.66,0,0,0-1.08,3Z"/><path class="cls-1" d="M43,95.79v2h-2v-2ZM43,100v11.84H41.14V100Z"/><path class="cls-1" d="M56,111.79H54.25v-7.61a3,3,0,0,0-.71-2.3,2.45,2.45,0,0,0-1.74-.67,3,3,0,0,0-2.36,1.12,4.47,4.47,0,0,0-.95,3v6.49H46.65V100h1.71v2.18a4.26,4.26,0,0,1,3.74-2.5,3.78,3.78,0,0,1,3.53,2.22A9.36,9.36,0,0,1,56,105Z"/><path class="cls-1" d="M69,111.79H67.26v-7.61a3.07,3.07,0,0,0-.71-2.3,2.45,2.45,0,0,0-1.74-.67,3,3,0,0,0-2.36,1.12,4.41,4.41,0,0,0-1,3v6.49H59.66V100h1.71v2.18a4.24,4.24,0,0,1,3.73-2.5,3.78,3.78,0,0,1,3.54,2.22A9.43,9.43,0,0,1,69,105Z"/><path class="cls-1" d="M81.94,111.79H80.1v-7.18a8.85,8.85,0,0,0-.15-1.9,2.07,2.07,0,0,0-.75-1.1,2.16,2.16,0,0,0-1.37-.46,3,3,0,0,0-2.37,1.16,4.72,4.72,0,0,0-1,3.11v6.37H72.66v-16H74.5v6.34a3.9,3.9,0,0,1,3.59-2.5A4,4,0,0,1,80,100a3,3,0,0,1,1.24,1.07,4.52,4.52,0,0,1,.6,1.32,11,11,0,0,1,.15,2.18Z"/><path class="cls-1" d="M89.87,112.12a4.49,4.49,0,0,1-3.81-1.81,7.21,7.21,0,0,1-1.36-4.48,6.5,6.5,0,0,1,1.53-4.52,5,5,0,0,1,3.82-1.68,4.69,4.69,0,0,1,3.87,1.77,6.94,6.94,0,0,1,1.41,4.44,6.6,6.6,0,0,1-1.53,4.52A5,5,0,0,1,89.87,112.12Zm.14-1.53a2.91,2.91,0,0,0,2.35-1.16,5.58,5.58,0,0,0,1-3.6,5.27,5.27,0,0,0-1-3.57A3.07,3.07,0,0,0,90,101.15a2.94,2.94,0,0,0-2.32,1.12,5.43,5.43,0,0,0-1,3.54,5.68,5.68,0,0,0,1,3.68A3,3,0,0,0,90,110.59Z"/><path class="cls-1" d="M99.93,111.79H98.09v-16h1.84Z"/><path class="cls-1" d="M112.86,95.79v16h-1.67v-2a4,4,0,0,1-3.74,2.36,4.12,4.12,0,0,1-3.41-1.74A7,7,0,0,1,102.7,106a7.5,7.5,0,0,1,1.32-4.53,4.16,4.16,0,0,1,3.52-1.81,4.07,4.07,0,0,1,3.48,1.94V95.79ZM111,104.52a3.35,3.35,0,0,0-1-2.49,3,3,0,0,0-2.22-.94,2.69,2.69,0,0,0-2.25,1.22,5.73,5.73,0,0,0-.89,3.42,6.64,6.64,0,0,0,.82,3.62,2.53,2.53,0,0,0,2.23,1.24,3,3,0,0,0,2.27-1.07,3.64,3.64,0,0,0,1-2.53Z"/><path class="cls-1" d="M119,109.12v2.4l-1.75,3.28h-1l1.39-3h-1.2v-2.67Z"/><path class="cls-1" d="M42.61,137.06l1.71.35a4.74,4.74,0,0,1-1.83,2.51,5.21,5.21,0,0,1-3.2,1,5,5,0,0,1-3.92-1.71,7.44,7.44,0,0,1,.06-9,5,5,0,0,1,3.91-1.74,4.71,4.71,0,0,1,3.73,1.6,7.16,7.16,0,0,1,1.45,4.81h-8.6c0,1.79.37,3,1.12,3.62a3.7,3.7,0,0,0,2.38.93A3.25,3.25,0,0,0,42.61,137.06Zm-.1-3.6a5.25,5.25,0,0,0-.33-1.76,3.06,3.06,0,0,0-1-1.32,2.81,2.81,0,0,0-1.75-.55,3.13,3.13,0,0,0-2.33,1A4.1,4.1,0,0,0,36,133.46Z"/><path class="cls-1" d="M51.1,133.88v1.42H45.8v-1.42Z"/><path class="cls-1" d="M62.57,140.59H60.73v-7.18a8.12,8.12,0,0,0-.16-1.9,2.07,2.07,0,0,0-.75-1.1,2.14,2.14,0,0,0-1.37-.46,3,3,0,0,0-2.37,1.16,4.71,4.71,0,0,0-.95,3.1v6.38H53.29v-16h1.84v6.34a3.89,3.89,0,0,1,3.58-2.5,4,4,0,0,1,1.86.41,3.14,3.14,0,0,1,1.25,1.07,4.48,4.48,0,0,1,.59,1.32,10.1,10.1,0,0,1,.16,2.18Z"/><path class="cls-1" d="M75.51,140.59H73.69q-.1-.57-.21-2.13a4.27,4.27,0,0,1-4.15,2.46,4.14,4.14,0,0,1-3.06-1.06,3.44,3.44,0,0,1-1.07-2.53,3.54,3.54,0,0,1,1.53-3c1-.78,2.74-1.16,5.18-1.16.33,0,.85,0,1.57.05a6.66,6.66,0,0,0-.22-2,1.78,1.78,0,0,0-.92-1,3.92,3.92,0,0,0-1.85-.37c-1.87,0-2.95.71-3.26,2.13l-1.7-.29q.63-3.27,5.23-3.27a4.64,4.64,0,0,1,3.47,1.08,5.39,5.39,0,0,1,1,3.76v5A9.71,9.71,0,0,0,75.51,140.59Zm-2-5.92c-.75,0-1.32-.07-1.71-.07a6.65,6.65,0,0,0-3.39.72,2.3,2.3,0,0,0-1.21,2.09,2,2,0,0,0,.65,1.48,2.64,2.64,0,0,0,1.88.61,3.48,3.48,0,0,0,2.74-1.21,4.12,4.12,0,0,0,1.07-2.84Q73.51,135.12,73.48,134.67Z"/><path class="cls-1" d="M88.27,140.59H86.54V133a3,3,0,0,0-.71-2.3A2.44,2.44,0,0,0,84.1,130a3,3,0,0,0-2.37,1.12,4.47,4.47,0,0,0-1,3v6.49H78.94V128.75h1.71v2.18a4.26,4.26,0,0,1,3.74-2.5,3.66,3.66,0,0,1,2.25.68,3.59,3.59,0,0,1,1.28,1.54,9.36,9.36,0,0,1,.35,3.1Z"/><path class="cls-1" d="M101.19,124.59v16H99.53v-2a4,4,0,0,1-3.74,2.36,4.13,4.13,0,0,1-3.42-1.74A7.06,7.06,0,0,1,91,134.77a7.44,7.44,0,0,1,1.33-4.53,4.13,4.13,0,0,1,3.51-1.81,4.07,4.07,0,0,1,3.48,1.94v-5.78Zm-1.84,8.73a3.32,3.32,0,0,0-.95-2.49,3,3,0,0,0-2.21-.94,2.69,2.69,0,0,0-2.26,1.22,5.73,5.73,0,0,0-.88,3.42,6.65,6.65,0,0,0,.81,3.62,2.55,2.55,0,0,0,2.24,1.24,3,3,0,0,0,2.27-1.07,3.67,3.67,0,0,0,1-2.53Z"/><path class="cls-1" d="M112.69,137.06l1.71.35a4.74,4.74,0,0,1-1.83,2.51,5.21,5.21,0,0,1-3.2,1,5,5,0,0,1-3.92-1.71,7.44,7.44,0,0,1,.06-9,5,5,0,0,1,3.91-1.74,4.71,4.71,0,0,1,3.73,1.6,7.21,7.21,0,0,1,1.45,4.81H106c0,1.79.37,3,1.12,3.62a3.7,3.7,0,0,0,2.38.93A3.25,3.25,0,0,0,112.69,137.06Zm-.11-3.6a5,5,0,0,0-.32-1.76,3,3,0,0,0-1-1.32,2.76,2.76,0,0,0-1.74-.55,3.11,3.11,0,0,0-2.33,1,4.1,4.1,0,0,0-1.07,2.64Z"/><path class="cls-1" d="M119.2,140.59h-1.84v-16h1.84Z"/><path class="cls-1" d="M37.29,169.72a4.49,4.49,0,0,1-3.8-1.81,7.22,7.22,0,0,1-1.37-4.48,6.41,6.41,0,0,1,1.54-4.51,4.92,4.92,0,0,1,3.82-1.69A4.67,4.67,0,0,1,41.34,159a6.94,6.94,0,0,1,1.41,4.44A6.64,6.64,0,0,1,41.23,168,5,5,0,0,1,37.29,169.72Zm.14-1.53A2.92,2.92,0,0,0,39.79,167a5.65,5.65,0,0,0,1-3.61,5.24,5.24,0,0,0-1-3.56,3,3,0,0,0-2.33-1.11,2.91,2.91,0,0,0-2.32,1.12,5.37,5.37,0,0,0-1,3.54,5.62,5.62,0,0,0,1,3.68A2.94,2.94,0,0,0,37.43,168.19Z"/><path class="cls-1" d="M55.19,155.7v1.47a3.29,3.29,0,0,0-1.7.29,1.62,1.62,0,0,0-.57,1,4.29,4.29,0,0,1,1.14,2.86,3.66,3.66,0,0,1-1.24,2.78,4.66,4.66,0,0,1-3.32,1.16,3.88,3.88,0,0,1-.81-.07,7.22,7.22,0,0,0-.81-.13,1.48,1.48,0,0,0-.76.31,1,1,0,0,0-.44.81.87.87,0,0,0,.64.91,14.1,14.1,0,0,0,3,.27,17.85,17.85,0,0,1,3,.27,3.08,3.08,0,0,1,1.64,1,2.63,2.63,0,0,1,.66,1.82c0,2.26-2,3.38-5.95,3.38a7.68,7.68,0,0,1-4.12-.85,2.59,2.59,0,0,1-1.29-2.27,2.38,2.38,0,0,1,1.8-2.37,2.23,2.23,0,0,1-1.16-1.9,2.29,2.29,0,0,1,1.64-2.1A3.87,3.87,0,0,1,45,161.23a3.61,3.61,0,0,1,1.31-2.88,4.73,4.73,0,0,1,3.2-1.12,5.6,5.6,0,0,1,2.42.5,2.29,2.29,0,0,1,.82-1.61,3.46,3.46,0,0,1,1.94-.44Zm-7.83,13.21a1.78,1.78,0,0,0-1.29,1.63,1.54,1.54,0,0,0,1.06,1.4,6.41,6.41,0,0,0,2.7.5,8.82,8.82,0,0,0,2.79-.43c.84-.29,1.26-.77,1.26-1.45a1.16,1.16,0,0,0-.37-.9,1.85,1.85,0,0,0-1-.45c-.43-.06-1.19-.11-2.26-.14C48.93,169,48,169,47.36,168.91Zm2.2-5a2.59,2.59,0,0,0,1.91-.73,2.49,2.49,0,0,0,.74-1.86,2.58,2.58,0,0,0-2.63-2.66,2.78,2.78,0,0,0-1.85.69,2.49,2.49,0,0,0-.81,2,2.52,2.52,0,0,0,.73,1.86A2.62,2.62,0,0,0,49.56,163.91Z"/><path class="cls-1" d="M72.55,153.39v16H70.89v-2a4,4,0,0,1-3.74,2.36A4.13,4.13,0,0,1,63.73,168a7.06,7.06,0,0,1-1.34-4.41A7.44,7.44,0,0,1,63.72,159a4.13,4.13,0,0,1,3.51-1.81,4.07,4.07,0,0,1,3.48,1.94v-5.78Zm-1.84,8.73a3.3,3.3,0,0,0-.95-2.49,3,3,0,0,0-2.21-.94,2.69,2.69,0,0,0-2.26,1.22,5.73,5.73,0,0,0-.88,3.42,6.65,6.65,0,0,0,.81,3.62,2.54,2.54,0,0,0,2.23,1.24,3,3,0,0,0,2.28-1.07,3.68,3.68,0,0,0,1-2.54Z"/><path class="cls-1" d="M78.13,153.39v2.05h-2v-2.05Zm-.06,4.16v11.84H76.23V157.55Z"/><path class="cls-1" d="M91.41,155.7v1.47a3.29,3.29,0,0,0-1.7.29,1.57,1.57,0,0,0-.56,1,4.32,4.32,0,0,1,1.13,2.86,3.68,3.68,0,0,1-1.23,2.78,4.7,4.7,0,0,1-3.33,1.16,3.72,3.72,0,0,1-.8-.07,7.22,7.22,0,0,0-.81-.13,1.45,1.45,0,0,0-.76.31,1,1,0,0,0-.45.81.87.87,0,0,0,.64.91,14.18,14.18,0,0,0,3,.27,17.85,17.85,0,0,1,3,.27,3.08,3.08,0,0,1,1.64,1,2.64,2.64,0,0,1,.67,1.82c0,2.26-2,3.38-6,3.38A7.7,7.7,0,0,1,81.8,173a2.59,2.59,0,0,1-1.29-2.27,2.38,2.38,0,0,1,1.8-2.37,2.23,2.23,0,0,1-1.16-1.9,2.29,2.29,0,0,1,1.64-2.1,3.87,3.87,0,0,1-1.53-3.13,3.64,3.64,0,0,1,1.31-2.88,4.75,4.75,0,0,1,3.2-1.12,5.68,5.68,0,0,1,2.43.5,2.28,2.28,0,0,1,.81-1.61,3.48,3.48,0,0,1,1.94-.44Zm-7.83,13.21a1.78,1.78,0,0,0-1.29,1.63,1.54,1.54,0,0,0,1.06,1.4,6.41,6.41,0,0,0,2.7.5,8.78,8.78,0,0,0,2.79-.43c.85-.29,1.27-.77,1.27-1.45a1.17,1.17,0,0,0-.38-.9,1.85,1.85,0,0,0-1-.45c-.44-.06-1.19-.11-2.27-.14C85.15,169,84.2,169,83.58,168.91Zm2.2-5a2.59,2.59,0,0,0,1.91-.73,2.46,2.46,0,0,0,.74-1.86,2.58,2.58,0,0,0-2.62-2.66,2.79,2.79,0,0,0-1.86.69,2.82,2.82,0,0,0-.08,3.85A2.64,2.64,0,0,0,85.78,163.91Z"/><path class="cls-1" d="M95.43,153.39v2.05h-2v-2.05Zm-.06,4.16v11.84H93.53V157.55Z"/><path class="cls-1" d="M104.4,168.14v1.45a14.13,14.13,0,0,1-1.68.13q-3.43,0-3.44-3.59V159H97.19v-1.45h2.09l.08-3,1.72-.17v3.14h2.64V159h-2.64v7.43a1.64,1.64,0,0,0,1.89,1.83A9.6,9.6,0,0,0,104.4,168.14Z"/><path class="cls-1" d="M115.68,169.39h-1.82q-.1-.57-.21-2.13a4.27,4.27,0,0,1-4.15,2.46,4.14,4.14,0,0,1-3.06-1.06,3.43,3.43,0,0,1-1.06-2.53,3.56,3.56,0,0,1,1.52-3c1-.77,2.74-1.15,5.18-1.15.33,0,.85,0,1.57,0a6.66,6.66,0,0,0-.22-2,1.78,1.78,0,0,0-.92-1,3.92,3.92,0,0,0-1.85-.37c-1.87,0-3,.71-3.26,2.13l-1.7-.29q.63-3.27,5.23-3.27a4.68,4.68,0,0,1,3.48,1.08,5.44,5.44,0,0,1,1,3.76v5A9.71,9.71,0,0,0,115.68,169.39Zm-2-5.92c-.75-.05-1.32-.07-1.71-.07a6.67,6.67,0,0,0-3.39.72,2.29,2.29,0,0,0-1.2,2.09,1.94,1.94,0,0,0,.65,1.48,2.63,2.63,0,0,0,1.88.61,3.46,3.46,0,0,0,2.73-1.21,4.13,4.13,0,0,0,1.08-2.84C113.69,164,113.67,163.77,113.65,163.47Z"/><path class="cls-1" d="M121,169.39h-1.84v-16H121Z"/><path class="cls-1" d="M21.72,198.19H19.93v-7.36a6.5,6.5,0,0,0-.16-1.7,2,2,0,0,0-.77-1,2.19,2.19,0,0,0-1.37-.47,2.9,2.9,0,0,0-2,1,4,4,0,0,0-1,3v6.67H12.84V190.4a2.83,2.83,0,0,0-.74-2.21,2.37,2.37,0,0,0-1.57-.64,2.6,2.6,0,0,0-2,1,3.76,3.76,0,0,0-.87,2.55v7.08H5.87V186.35H7.45v2.28c.88-1.74,2.1-2.6,3.64-2.6a3,3,0,0,1,2.17.83,3.8,3.8,0,0,1,1.15,2Q15.63,186,18.15,186a3.38,3.38,0,0,1,2.11.69,3.22,3.22,0,0,1,1.19,1.58,9.21,9.21,0,0,1,.27,2.53Z"/><path class="cls-1" d="M34.66,198.19H32.84q-.11-.57-.21-2.13a4.26,4.26,0,0,1-4.15,2.46,4.13,4.13,0,0,1-3.05-1.06,3.4,3.4,0,0,1-1.07-2.53,3.59,3.59,0,0,1,1.52-3c1-.77,2.74-1.15,5.18-1.15.33,0,.85,0,1.57.05a7.07,7.07,0,0,0-.21-2,1.85,1.85,0,0,0-.92-1,4,4,0,0,0-1.86-.37c-1.86,0-2.95.71-3.25,2.13l-1.7-.3q.61-3.25,5.22-3.26a4.66,4.66,0,0,1,3.48,1.08,5.44,5.44,0,0,1,1,3.76v5A10.26,10.26,0,0,0,34.66,198.19Zm-2-5.92c-.75-.05-1.32-.07-1.71-.07a6.67,6.67,0,0,0-3.39.72,2.29,2.29,0,0,0-1.2,2.09,1.94,1.94,0,0,0,.65,1.48,2.63,2.63,0,0,0,1.88.61,3.5,3.5,0,0,0,2.74-1.21,4.17,4.17,0,0,0,1.07-2.84C32.67,192.83,32.66,192.57,32.63,192.27Z"/><path class="cls-1" d="M39.93,198.19H38.09V186.35h1.62v2.77a5.89,5.89,0,0,1,1.72-2.54,3.16,3.16,0,0,1,1.76-.58c.19,0,.43,0,.73.05v1.76h-.38A3.26,3.26,0,0,0,41,188.94a4.66,4.66,0,0,0-1.08,3Z"/><path class="cls-1" d="M55.66,198.19H53.75l-3.46-6.61-2.56,2.95v3.66H45.89v-16h1.84v10.26l5.49-6.1h2l-3.7,4.16Z"/><path class="cls-1" d="M65.2,194.66l1.71.35a4.74,4.74,0,0,1-1.83,2.51,5.21,5.21,0,0,1-3.2,1A5,5,0,0,1,58,196.81a7.44,7.44,0,0,1,.06-9A5,5,0,0,1,61.93,186a4.71,4.71,0,0,1,3.73,1.6,7.21,7.21,0,0,1,1.45,4.81h-8.6c0,1.78.37,3,1.12,3.62A3.7,3.7,0,0,0,62,197,3.25,3.25,0,0,0,65.2,194.66Zm-.11-3.6a5.12,5.12,0,0,0-.32-1.77,3,3,0,0,0-1-1.31,2.76,2.76,0,0,0-1.74-.55,3.11,3.11,0,0,0-2.33,1,4,4,0,0,0-1.07,2.64Z"/><path class="cls-1" d="M79.12,182.19v16H77.46v-2a4,4,0,0,1-3.75,2.36,4.12,4.12,0,0,1-3.41-1.74A7.06,7.06,0,0,1,69,192.37a7.5,7.5,0,0,1,1.32-4.53A4.16,4.16,0,0,1,73.8,186,4.07,4.07,0,0,1,77.28,188v-5.78Zm-1.84,8.73a3.34,3.34,0,0,0-1-2.49,3,3,0,0,0-2.21-.94,2.69,2.69,0,0,0-2.26,1.22,5.73,5.73,0,0,0-.88,3.42,6.65,6.65,0,0,0,.81,3.62A2.53,2.53,0,0,0,74,197a3,3,0,0,0,2.28-1.07,3.68,3.68,0,0,0,1-2.54Z"/><path class="cls-1" d="M81.21,195.12l1.75-.36c.39,1.49,1.63,2.23,3.71,2.23a3.53,3.53,0,0,0,1.94-.51,1.64,1.64,0,0,0,.8-1.45c0-.93-.68-1.52-2-1.77l-2.49-.47a4.65,4.65,0,0,1-2.34-1.1,2.88,2.88,0,0,1-.86-2.17A3.13,3.13,0,0,1,82.87,187a4.76,4.76,0,0,1,3.19-1c2.57,0,4.15,1,4.76,3l-1.69.36a2.9,2.9,0,0,0-3-1.85,3.36,3.36,0,0,0-1.85.46,1.46,1.46,0,0,0-.72,1.29c0,.88.62,1.43,1.84,1.66l2.31.41c2.42.44,3.62,1.61,3.62,3.51A3.14,3.14,0,0,1,90,197.51a5.88,5.88,0,0,1-3.59,1C83.6,198.52,81.87,197.38,81.21,195.12Z"/><path class="cls-1" d="M98.84,186.35v1.44H96v10.4H94.19v-10.4h-2v-1.44h2c0-1.89.4-3.12,1.1-3.66a4,4,0,0,1,2.56-.82,9.84,9.84,0,0,1,1.68.16v1.46a4.56,4.56,0,0,0-1.13-.15,2.55,2.55,0,0,0-1.79.54,2.64,2.64,0,0,0-.58,2v.48Z"/><path class="cls-1" d="M101.44,196.53a7.25,7.25,0,0,1-1.24-4.31,6.42,6.42,0,0,1,1.54-4.5,5.19,5.19,0,0,1,6.84-.73l1.06-1.41h1.64l-1.76,2.34a7,7,0,0,1,1.31,4.32,6.61,6.61,0,0,1-1.52,4.52,5,5,0,0,1-3.94,1.76,4.53,4.53,0,0,1-3.05-1l-1,1.35h-1.6Zm1.2-1.6,4.91-6.56a3,3,0,0,0-2.06-.82,3,3,0,0,0-2.32,1.11,5.52,5.52,0,0,0-1,3.58A7.6,7.6,0,0,0,102.64,194.93Zm5.7-5.45-5,6.63a3,3,0,0,0,2.16.88,2.92,2.92,0,0,0,2.35-1.16,5.65,5.65,0,0,0,.95-3.61A6.57,6.57,0,0,0,108.34,189.48Z"/><path class="cls-1" d="M115.44,198.19H113.6V186.35h1.61v2.77a6,6,0,0,1,1.72-2.54,3.18,3.18,0,0,1,1.76-.58c.19,0,.43,0,.73.05v1.76h-.37a3.25,3.25,0,0,0-2.53,1.13,4.55,4.55,0,0,0-1.08,3Z"/><path class="cls-1" d="M123.41,182.19v2.05h-2v-2.05Zm-.06,4.16v11.84h-1.84V186.35Z"/><path class="cls-1" d="M136.34,198.19h-1.72v-7.61a3.07,3.07,0,0,0-.71-2.3,2.45,2.45,0,0,0-1.74-.67,3,3,0,0,0-2.36,1.12,4.42,4.42,0,0,0-1,3v6.49H127V186.35h1.71v2.18a4.24,4.24,0,0,1,3.73-2.5,3.78,3.78,0,0,1,3.54,2.22,9.43,9.43,0,0,1,.34,3.1Z"/><path class="cls-1" d="M149.69,184.5V186a3.25,3.25,0,0,0-1.69.29,1.54,1.54,0,0,0-.57,1.05,4.29,4.29,0,0,1,1.14,2.86,3.69,3.69,0,0,1-1.24,2.78,4.66,4.66,0,0,1-3.32,1.16,3.81,3.81,0,0,1-.81-.07,7.22,7.22,0,0,0-.81-.13,1.48,1.48,0,0,0-.76.31,1,1,0,0,0-.45.81.88.88,0,0,0,.65.91,14.06,14.06,0,0,0,3,.27,18.11,18.11,0,0,1,3,.27,3.05,3.05,0,0,1,1.63,1,2.59,2.59,0,0,1,.67,1.82c0,2.26-2,3.38-5.95,3.38a7.65,7.65,0,0,1-4.12-.85,2.58,2.58,0,0,1-1.3-2.27,2.38,2.38,0,0,1,1.81-2.37,2.21,2.21,0,0,1-1.16-1.91,2.28,2.28,0,0,1,1.64-2.09,3.85,3.85,0,0,1-1.54-3.13,3.64,3.64,0,0,1,1.31-2.88,4.77,4.77,0,0,1,3.2-1.12,5.68,5.68,0,0,1,2.43.5,2.32,2.32,0,0,1,.81-1.61,3.5,3.5,0,0,1,1.94-.44Zm-7.83,13.21a1.78,1.78,0,0,0-1.29,1.63,1.55,1.55,0,0,0,1.06,1.4,6.43,6.43,0,0,0,2.71.5,8.76,8.76,0,0,0,2.78-.43c.85-.29,1.27-.77,1.27-1.45a1.16,1.16,0,0,0-.37-.9,1.88,1.88,0,0,0-1-.45c-.43-.06-1.19-.11-2.27-.14C143.43,197.84,142.48,197.79,141.86,197.71Zm2.21-5A2.64,2.64,0,0,0,146,192a2.49,2.49,0,0,0,.73-1.86,2.56,2.56,0,0,0-2.62-2.66,2.76,2.76,0,0,0-1.85.69,2.79,2.79,0,0,0-.08,3.85A2.62,2.62,0,0,0,144.07,192.71Z"/><path class="cls-1" d="M37.29,211v2h-2v-2Zm-.06,4.16V227H35.39V215.15Z"/><path class="cls-1" d="M45.31,223.92l1.75-.36c.39,1.49,1.63,2.23,3.71,2.23a3.53,3.53,0,0,0,1.94-.51,1.64,1.64,0,0,0,.8-1.45c0-.93-.68-1.52-2-1.77L49,221.59a4.65,4.65,0,0,1-2.34-1.1,2.88,2.88,0,0,1-.86-2.17A3.13,3.13,0,0,1,47,215.83a4.76,4.76,0,0,1,3.19-1c2.57,0,4.15,1,4.76,3l-1.69.36a2.9,2.9,0,0,0-3-1.85,3.36,3.36,0,0,0-1.85.46,1.46,1.46,0,0,0-.72,1.3c0,.87.62,1.42,1.84,1.65l2.31.41c2.42.44,3.62,1.61,3.62,3.51a3.12,3.12,0,0,1-1.34,2.63,5.88,5.88,0,0,1-3.59,1Q46.3,227.32,45.31,223.92Z"/><path class="cls-1" d="M67.29,227H65.47c-.07-.37-.14-1.09-.21-2.13a4.26,4.26,0,0,1-4.15,2.46,4.13,4.13,0,0,1-3-1.06A3.44,3.44,0,0,1,57,223.73a3.56,3.56,0,0,1,1.52-2.95c1-.78,2.75-1.16,5.18-1.16.33,0,.85,0,1.57,0a7.07,7.07,0,0,0-.21-2,1.82,1.82,0,0,0-.92-1,4,4,0,0,0-1.86-.37c-1.86,0-3,.71-3.25,2.13l-1.7-.29q.61-3.27,5.22-3.27A4.65,4.65,0,0,1,66,215.91a5.44,5.44,0,0,1,1,3.76v5A10.26,10.26,0,0,0,67.29,227Zm-2-5.92c-.75,0-1.32-.07-1.71-.07a6.61,6.61,0,0,0-3.38.72A2.28,2.28,0,0,0,59,223.81a2,2,0,0,0,.65,1.48,2.63,2.63,0,0,0,1.88.61,3.5,3.5,0,0,0,2.74-1.21,4.17,4.17,0,0,0,1.07-2.84C65.3,221.63,65.29,221.37,65.26,221.07Z"/><path class="cls-1" d="M86.58,227H84.79v-7.36a7,7,0,0,0-.16-1.7,2.08,2.08,0,0,0-.77-1.05,2.21,2.21,0,0,0-1.37-.47,2.87,2.87,0,0,0-2,1,3.92,3.92,0,0,0-1,2.94V227H77.7V219.2A2.79,2.79,0,0,0,77,217a2.33,2.33,0,0,0-1.56-.64,2.63,2.63,0,0,0-2,1,3.76,3.76,0,0,0-.87,2.55V227H70.72V215.15h1.59v2.28c.88-1.74,2.09-2.6,3.64-2.6a3.05,3.05,0,0,1,2.17.83,3.8,3.8,0,0,1,1.15,2q1.22-2.83,3.74-2.83a3.38,3.38,0,0,1,2.11.69,3.12,3.12,0,0,1,1.18,1.59,8.65,8.65,0,0,1,.28,2.52Z"/><path class="cls-1" d="M106.11,227h-1.79v-7.36a6.5,6.5,0,0,0-.16-1.7,2.05,2.05,0,0,0-.76-1.05,2.24,2.24,0,0,0-1.38-.47,2.87,2.87,0,0,0-2,1,4,4,0,0,0-1,2.94V227H97.23V219.2a2.83,2.83,0,0,0-.74-2.21,2.37,2.37,0,0,0-1.57-.64,2.63,2.63,0,0,0-2,1,3.8,3.8,0,0,0-.86,2.55V227H90.26V215.15h1.58v2.28c.88-1.74,2.1-2.6,3.65-2.6a3,3,0,0,1,2.16.83,3.73,3.73,0,0,1,1.15,2q1.22-2.83,3.74-2.83a3.41,3.41,0,0,1,2.12.69,3.18,3.18,0,0,1,1.18,1.59,9.08,9.08,0,0,1,.27,2.52Z"/><path class="cls-1" d="M117.61,223.46l1.71.35a4.81,4.81,0,0,1-1.83,2.52,5.27,5.27,0,0,1-3.2,1,5,5,0,0,1-3.92-1.71,7.44,7.44,0,0,1,.06-9,5,5,0,0,1,3.91-1.74,4.71,4.71,0,0,1,3.73,1.6,7.16,7.16,0,0,1,1.45,4.81h-8.6c0,1.79.37,3,1.12,3.62a3.7,3.7,0,0,0,2.38.93A3.25,3.25,0,0,0,117.61,223.46Zm-.1-3.59a5.26,5.26,0,0,0-.33-1.77,3.06,3.06,0,0,0-1-1.32,2.81,2.81,0,0,0-1.75-.55,3.13,3.13,0,0,0-2.33,1,4.11,4.11,0,0,0-1.07,2.65Z"/><path class="cls-1" d="M47.46,255.79H45.62v-16h1.84Z"/><path class="cls-1" d="M51.46,254.13a7.18,7.18,0,0,1-1.24-4.31,6.46,6.46,0,0,1,1.53-4.5,5.2,5.2,0,0,1,6.85-.73l1-1.41h1.64l-1.76,2.34a7,7,0,0,1,1.32,4.32,6.64,6.64,0,0,1-1.52,4.52,5,5,0,0,1-3.95,1.76,4.55,4.55,0,0,1-3.05-1l-1,1.35h-1.6Zm1.19-1.6L57.56,246a3,3,0,0,0-2.06-.82,2.92,2.92,0,0,0-2.31,1.11,5.45,5.45,0,0,0-1,3.58A7.6,7.6,0,0,0,52.65,252.53Zm5.71-5.45-5,6.63a3,3,0,0,0,2.15.88,2.91,2.91,0,0,0,2.35-1.16,5.64,5.64,0,0,0,.95-3.6A6.8,6.8,0,0,0,58.36,247.08Z"/><path class="cls-1" d="M62,252.72l1.75-.36c.4,1.49,1.63,2.23,3.71,2.23a3.53,3.53,0,0,0,1.94-.51,1.64,1.64,0,0,0,.8-1.45c0-.93-.68-1.52-2-1.77l-2.49-.47a4.65,4.65,0,0,1-2.34-1.1,2.88,2.88,0,0,1-.86-2.17,3.13,3.13,0,0,1,1.18-2.49,4.76,4.76,0,0,1,3.19-1c2.57,0,4.15,1,4.76,3l-1.69.36a2.9,2.9,0,0,0-3-1.85,3.38,3.38,0,0,0-1.85.46,1.46,1.46,0,0,0-.72,1.3c0,.87.62,1.42,1.85,1.65l2.3.41c2.42.44,3.62,1.61,3.62,3.51a3.12,3.12,0,0,1-1.34,2.63,5.88,5.88,0,0,1-3.59,1C64.42,256.12,62.68,255,62,252.72Z"/><path class="cls-1" d="M84.07,255.79H82.35v-7.61a3,3,0,0,0-.72-2.3,2.41,2.41,0,0,0-1.73-.67,3,3,0,0,0-2.36,1.12,4.42,4.42,0,0,0-1,3v6.49H74.74V244h1.71v2.18a4.27,4.27,0,0,1,3.74-2.5,3.78,3.78,0,0,1,3.54,2.22,9.43,9.43,0,0,1,.34,3.1Z"/><path class="cls-1" d="M89.65,239.79v2.05h-2v-2.05ZM89.59,244v11.84H87.75V244Z"/><path class="cls-1" d="M102.59,255.79h-1.73v-7.61a3,3,0,0,0-.71-2.3,2.42,2.42,0,0,0-1.73-.67,3,3,0,0,0-2.37,1.12,4.47,4.47,0,0,0-1,3v6.49H93.26V244H95v2.18a4.26,4.26,0,0,1,3.74-2.5,3.66,3.66,0,0,1,2.25.68,3.59,3.59,0,0,1,1.28,1.54,9.36,9.36,0,0,1,.35,3.1Z"/><path class="cls-1" d="M115.94,242.1v1.47a3.4,3.4,0,0,0-1.7.29,1.62,1.62,0,0,0-.57,1.06,4.24,4.24,0,0,1,1.14,2.85,3.66,3.66,0,0,1-1.24,2.78,4.62,4.62,0,0,1-3.32,1.16,3.88,3.88,0,0,1-.81-.07,7.22,7.22,0,0,0-.81-.13,1.48,1.48,0,0,0-.76.31,1,1,0,0,0-.44.81.87.87,0,0,0,.64.91,14.1,14.1,0,0,0,3,.27,17.85,17.85,0,0,1,3,.27,3.08,3.08,0,0,1,1.64,1,2.63,2.63,0,0,1,.66,1.82c0,2.26-2,3.38-6,3.38a7.68,7.68,0,0,1-4.12-.85,2.59,2.59,0,0,1-1.29-2.27,2.39,2.39,0,0,1,1.8-2.37,2.23,2.23,0,0,1-1.16-1.9,2.29,2.29,0,0,1,1.64-2.1,3.87,3.87,0,0,1-1.53-3.13,3.61,3.61,0,0,1,1.31-2.88,4.73,4.73,0,0,1,3.2-1.12,5.6,5.6,0,0,1,2.42.5,2.29,2.29,0,0,1,.82-1.61,3.46,3.46,0,0,1,1.94-.44Zm-7.83,13.21a1.78,1.78,0,0,0-1.29,1.63,1.54,1.54,0,0,0,1.06,1.4,6.41,6.41,0,0,0,2.7.5,8.82,8.82,0,0,0,2.79-.43c.84-.29,1.26-.77,1.26-1.45a1.16,1.16,0,0,0-.37-.9,1.92,1.92,0,0,0-1-.45c-.43-.06-1.19-.11-2.26-.14C109.68,255.44,108.72,255.39,108.11,255.31Zm2.2-5a2.59,2.59,0,0,0,1.91-.73,2.49,2.49,0,0,0,.74-1.86,2.58,2.58,0,0,0-2.63-2.66,2.78,2.78,0,0,0-1.85.69,2.49,2.49,0,0,0-.81,2,2.52,2.52,0,0,0,.73,1.86A2.62,2.62,0,0,0,110.31,250.31Z"/></svg>