<svg id="Layer_1" data-name="Layer 1" xmlns="http://www.w3.org/2000/svg" viewBox="0 0 160 600"><defs><style>.cls-1{fill:#fff;}</style></defs><title>text</title><path class="cls-1" d="M20.06,112.24V114H9.71V98H19.84v1.75H11.71v5.09h6.45v1.63H11.71v5.77Z"/><path class="cls-1" d="M32,114H30.3v-7.6a3.08,3.08,0,0,0-.71-2.31,2.45,2.45,0,0,0-1.74-.67,3,3,0,0,0-2.36,1.13,4.39,4.39,0,0,0-.95,3V114H22.7V102.16h1.71v2.18a4.25,4.25,0,0,1,3.73-2.51,3.74,3.74,0,0,1,2.26.68,3.69,3.69,0,0,1,1.28,1.55,9.4,9.4,0,0,1,.34,3.09Z"/><path class="cls-1" d="M48.7,109.84l1.66.3a5.23,5.23,0,0,1-1.56,3.07,4.26,4.26,0,0,1-3,1.11,4.3,4.3,0,0,1-3.73-1.8,7.49,7.49,0,0,1-1.28-4.42,7.23,7.23,0,0,1,1.35-4.48,4.38,4.38,0,0,1,3.69-1.79,4.21,4.21,0,0,1,3.1,1.15,5.18,5.18,0,0,1,1.44,3l-1.66.31c-.31-2-1.26-2.93-2.83-2.93a2.6,2.6,0,0,0-2.34,1.3,6.14,6.14,0,0,0-.82,3.35,6.53,6.53,0,0,0,.81,3.54,2.59,2.59,0,0,0,2.29,1.26C47.33,112.8,48.29,111.81,48.7,109.84Z"/><path class="cls-1" d="M57.13,114.32a4.51,4.51,0,0,1-3.81-1.8A7.24,7.24,0,0,1,52,108a6.45,6.45,0,0,1,1.53-4.51,5,5,0,0,1,3.82-1.69,4.64,4.64,0,0,1,3.86,1.78,6.85,6.85,0,0,1,1.42,4.44,6.63,6.63,0,0,1-1.53,4.52A5,5,0,0,1,57.13,114.32Zm.14-1.52a2.93,2.93,0,0,0,2.35-1.16,5.69,5.69,0,0,0,1-3.61,5.23,5.23,0,0,0-1-3.57,3,3,0,0,0-2.33-1.11,3,3,0,0,0-2.32,1.12A5.46,5.46,0,0,0,54,108a5.65,5.65,0,0,0,1,3.67A3,3,0,0,0,57.27,112.8Z"/><path class="cls-1" d="M81.21,114h-1.8v-7.36a7.19,7.19,0,0,0-.15-1.7,2.07,2.07,0,0,0-.77-1,2.16,2.16,0,0,0-1.37-.48,2.89,2.89,0,0,0-2,1,4,4,0,0,0-1,3V114H72.32V106.2a2.77,2.77,0,0,0-.74-2.2,2.38,2.38,0,0,0-1.56-.65,2.6,2.6,0,0,0-2,1,3.77,3.77,0,0,0-.87,2.56V114H65.35V102.16h1.58v2.27c.89-1.73,2.1-2.6,3.65-2.6a3.1,3.1,0,0,1,2.17.83,3.81,3.81,0,0,1,1.14,2c.82-1.9,2.06-2.84,3.74-2.84a3.41,3.41,0,0,1,2.12.69,3.18,3.18,0,0,1,1.18,1.59,8.75,8.75,0,0,1,.28,2.52Z"/><path class="cls-1" d="M100.74,114H99v-7.36a6.6,6.6,0,0,0-.16-1.7,2,2,0,0,0-.77-1,2.14,2.14,0,0,0-1.37-.48,2.87,2.87,0,0,0-2,1,4,4,0,0,0-1,3V114H91.86V106.2a2.8,2.8,0,0,0-.74-2.2,2.38,2.38,0,0,0-1.57-.65,2.63,2.63,0,0,0-2,1,3.77,3.77,0,0,0-.87,2.56V114H84.89V102.16h1.58v2.27c.88-1.73,2.1-2.6,3.64-2.6a3.08,3.08,0,0,1,2.17.83,3.76,3.76,0,0,1,1.15,2c.81-1.9,2.06-2.84,3.74-2.84a3.38,3.38,0,0,1,2.11.69,3.2,3.2,0,0,1,1.19,1.59,9.18,9.18,0,0,1,.27,2.52Z"/><path class="cls-1" d="M112.24,110.47l1.71.35a4.78,4.78,0,0,1-1.83,2.51,5.29,5.29,0,0,1-3.2,1,5,5,0,0,1-3.92-1.7,6.54,6.54,0,0,1-1.5-4.48,6.62,6.62,0,0,1,1.55-4.57,5,5,0,0,1,3.92-1.74,4.71,4.71,0,0,1,3.73,1.6,7.23,7.23,0,0,1,1.45,4.81h-8.6c0,1.79.37,3,1.12,3.62a3.64,3.64,0,0,0,2.38.94A3.26,3.26,0,0,0,112.24,110.47Zm-.11-3.6a4.81,4.81,0,0,0-.33-1.77,2.92,2.92,0,0,0-1-1.32,2.82,2.82,0,0,0-1.74-.54,3.11,3.11,0,0,0-2.33,1,4.08,4.08,0,0,0-1.07,2.65Z"/><path class="cls-1" d="M118.75,114h-1.84V102.16h1.62v2.76a5.84,5.84,0,0,1,1.72-2.53,3.08,3.08,0,0,1,1.76-.58c.19,0,.43,0,.73,0v1.76h-.38a3.24,3.24,0,0,0-2.53,1.14,4.62,4.62,0,0,0-1.08,3Z"/><path class="cls-1" d="M131.46,109.84l1.66.3a5.23,5.23,0,0,1-1.56,3.07,4.71,4.71,0,0,1-6.74-.69,7.42,7.42,0,0,1-1.28-4.42,7.23,7.23,0,0,1,1.35-4.48,4.37,4.37,0,0,1,3.68-1.79,4.2,4.2,0,0,1,3.1,1.15,5.19,5.19,0,0,1,1.45,3l-1.66.31c-.31-2-1.26-2.93-2.83-2.93a2.59,2.59,0,0,0-2.34,1.3,6.14,6.14,0,0,0-.82,3.35,6.53,6.53,0,0,0,.81,3.54,2.58,2.58,0,0,0,2.29,1.26C130.09,112.8,131.05,111.81,131.46,109.84Z"/><path class="cls-1" d="M143.46,110.47l1.71.35a4.78,4.78,0,0,1-1.83,2.51,5.29,5.29,0,0,1-3.2,1,5,5,0,0,1-3.93-1.7,7.46,7.46,0,0,1,.06-9.05,5,5,0,0,1,3.92-1.74,4.73,4.73,0,0,1,3.73,1.6,7.28,7.28,0,0,1,1.45,4.81h-8.6c0,1.79.37,3,1.12,3.62a3.64,3.64,0,0,0,2.38.94A3.26,3.26,0,0,0,143.46,110.47Zm-.11-3.6a4.81,4.81,0,0,0-.33-1.77,2.92,2.92,0,0,0-1-1.32,2.82,2.82,0,0,0-1.74-.54,3.11,3.11,0,0,0-2.33,1,4.08,4.08,0,0,0-1.07,2.65Z"/><path class="cls-1" d="M19,142.79H17.15v-16H19Z"/><path class="cls-1" d="M23,141.14a7.23,7.23,0,0,1-1.24-4.32,6.42,6.42,0,0,1,1.54-4.5,5.19,5.19,0,0,1,6.84-.73l1.05-1.41h1.64l-1.76,2.35a6.93,6.93,0,0,1,1.32,4.31,6.69,6.69,0,0,1-1.52,4.53,5,5,0,0,1-3.94,1.75,4.53,4.53,0,0,1-3.05-1l-1,1.35H21.25Zm1.2-1.61L29.09,133a3.05,3.05,0,0,0-2.07-.82,2.93,2.93,0,0,0-2.31,1.12,5.42,5.42,0,0,0-.95,3.58A7.54,7.54,0,0,0,24.18,139.53Zm5.7-5.44-5,6.62a3,3,0,0,0,2.16.89,2.92,2.92,0,0,0,2.34-1.16,5.63,5.63,0,0,0,1-3.61A6.55,6.55,0,0,0,29.88,134.09Z"/><path class="cls-1" d="M33.54,139.72l1.76-.36c.39,1.49,1.62,2.24,3.7,2.24a3.46,3.46,0,0,0,2-.52,1.62,1.62,0,0,0,.79-1.45c0-.93-.67-1.52-2-1.77l-2.5-.47a4.54,4.54,0,0,1-2.33-1.1,2.85,2.85,0,0,1-.87-2.17,3.14,3.14,0,0,1,1.19-2.49,4.73,4.73,0,0,1,3.18-1q3.86,0,4.76,3l-1.69.36a2.89,2.89,0,0,0-3-1.85,3.33,3.33,0,0,0-1.84.47,1.44,1.44,0,0,0-.72,1.29c0,.87.61,1.42,1.84,1.65l2.31.41q3.61.66,3.62,3.51a3.14,3.14,0,0,1-1.35,2.64,5.86,5.86,0,0,1-3.59,1Q34.54,143.12,33.54,139.72Z"/><path class="cls-1" d="M55.6,142.79H53.87v-7.6a3.08,3.08,0,0,0-.71-2.31,2.45,2.45,0,0,0-1.74-.67,3,3,0,0,0-2.36,1.13,4.44,4.44,0,0,0-1,3v6.49H46.27V131H48v2.18a4.25,4.25,0,0,1,3.74-2.51,3.73,3.73,0,0,1,2.25.68,3.69,3.69,0,0,1,1.28,1.55A9.33,9.33,0,0,1,55.6,136Z"/><path class="cls-1" d="M61.17,126.8v2h-2v-2ZM61.12,131v11.83H59.28V131Z"/><path class="cls-1" d="M74.11,142.79H72.39v-7.6a3,3,0,0,0-.72-2.31,2.41,2.41,0,0,0-1.73-.67,3,3,0,0,0-2.36,1.13,4.39,4.39,0,0,0-1,3v6.49H64.78V131h1.71v2.18a4.26,4.26,0,0,1,3.74-2.51,3.74,3.74,0,0,1,2.26.68,3.69,3.69,0,0,1,1.28,1.55,9.4,9.4,0,0,1,.34,3.09Z"/><path class="cls-1" d="M87.46,129.11v1.46a3.35,3.35,0,0,0-1.69.29,1.54,1.54,0,0,0-.57,1.06,4.26,4.26,0,0,1,1.13,2.86,3.66,3.66,0,0,1-1.23,2.77,4.63,4.63,0,0,1-3.32,1.16,3.75,3.75,0,0,1-.81-.07,6.31,6.31,0,0,0-.81-.12,1.37,1.37,0,0,0-.76.31.92.92,0,0,0-.45.8.87.87,0,0,0,.65.91,14.06,14.06,0,0,0,3,.27,16.86,16.86,0,0,1,3,.28,3,3,0,0,1,1.63,1,2.59,2.59,0,0,1,.67,1.82q0,3.39-6,3.39a7.73,7.73,0,0,1-4.11-.85,2.6,2.6,0,0,1-1.3-2.27,2.38,2.38,0,0,1,1.81-2.37,2.23,2.23,0,0,1-1.16-1.91,2.3,2.3,0,0,1,1.64-2.1,3.85,3.85,0,0,1-1.54-3.13,3.64,3.64,0,0,1,1.31-2.88,4.75,4.75,0,0,1,3.2-1.12,5.83,5.83,0,0,1,2.43.5,2.27,2.27,0,0,1,.81-1.6,3.39,3.39,0,0,1,1.94-.45Zm-7.83,13.2a1.79,1.79,0,0,0-1.29,1.63,1.55,1.55,0,0,0,1.06,1.4,6.41,6.41,0,0,0,2.7.5,8.51,8.51,0,0,0,2.79-.43c.85-.28,1.27-.77,1.27-1.45a1.2,1.2,0,0,0-.38-.9,1.84,1.84,0,0,0-1-.44,20.8,20.8,0,0,0-2.27-.14C81.2,142.45,80.25,142.39,79.63,142.31Zm2.2-5a2.6,2.6,0,0,0,1.91-.72,2.48,2.48,0,0,0,.74-1.87,2.54,2.54,0,0,0-.77-1.92,2.58,2.58,0,0,0-1.85-.74,2.7,2.7,0,0,0-1.85.7,2.46,2.46,0,0,0-.81,2,2.49,2.49,0,0,0,.72,1.86A2.64,2.64,0,0,0,81.83,137.31Z"/><path class="cls-1" d="M111.44,142.79h-1.8v-7.36a6.6,6.6,0,0,0-.16-1.7,2,2,0,0,0-.76-1,2.18,2.18,0,0,0-1.37-.48,2.88,2.88,0,0,0-2,1,4,4,0,0,0-1,2.95v6.66h-1.78V135a2.8,2.8,0,0,0-.74-2.2,2.38,2.38,0,0,0-1.57-.65,2.6,2.6,0,0,0-2,1,3.76,3.76,0,0,0-.87,2.55v7.08H95.58V131h1.58v2.27q1.32-2.59,3.65-2.6a3.06,3.06,0,0,1,2.16.83,3.77,3.77,0,0,1,1.15,2c.82-1.89,2.06-2.83,3.74-2.83a3.41,3.41,0,0,1,2.12.69,3.18,3.18,0,0,1,1.18,1.59,9.12,9.12,0,0,1,.28,2.52Z"/><path class="cls-1" d="M122.93,139.27l1.71.35a4.78,4.78,0,0,1-1.83,2.51,5.26,5.26,0,0,1-3.19,1,5,5,0,0,1-3.93-1.7,7.46,7.46,0,0,1,.06-9,5,5,0,0,1,3.91-1.74,4.71,4.71,0,0,1,3.73,1.6,7.17,7.17,0,0,1,1.45,4.81h-8.6c0,1.79.38,3,1.13,3.62a3.63,3.63,0,0,0,2.37.94A3.26,3.26,0,0,0,122.93,139.27Zm-.1-3.6a5.26,5.26,0,0,0-.33-1.77,3.06,3.06,0,0,0-1-1.32,2.87,2.87,0,0,0-1.75-.54,3.12,3.12,0,0,0-2.33,1,4.13,4.13,0,0,0-1.07,2.65Z"/><path class="cls-1" d="M136.85,126.8v16h-1.66v-2a4,4,0,0,1-3.74,2.35,4.13,4.13,0,0,1-3.42-1.74,7,7,0,0,1-1.34-4.41,7.44,7.44,0,0,1,1.33-4.53,4.13,4.13,0,0,1,3.51-1.81,4.07,4.07,0,0,1,3.48,1.94V126.8ZM135,135.53a3.34,3.34,0,0,0-.95-2.5,3.07,3.07,0,0,0-2.21-.94,2.7,2.7,0,0,0-2.26,1.22,5.77,5.77,0,0,0-.88,3.42,6.69,6.69,0,0,0,.81,3.63,2.57,2.57,0,0,0,2.24,1.24,3,3,0,0,0,2.27-1.08,3.61,3.61,0,0,0,1-2.53Z"/><path class="cls-1" d="M37.06,171.59H35.14v-3.8H27.22v-1.35l7.35-11.17h2.49V166.2h2.59v1.59H37.06Zm-1.92-5.39v-7.56c0-.54,0-1.13,0-1.76-.34.61-.63,1.11-.87,1.49l-5,7.83Z"/><path class="cls-1" d="M45.2,164.07v-1.58H47a4.08,4.08,0,0,0,2.87-.83,2.66,2.66,0,0,0,.86-2,2.48,2.48,0,0,0-1-2,4,4,0,0,0-6.14,1.85L41.84,159a5.7,5.7,0,0,1,5.72-3.68,5.59,5.59,0,0,1,3.79,1.25,3.84,3.84,0,0,1,1.44,3,3.54,3.54,0,0,1-.87,2.37,3.74,3.74,0,0,1-2.22,1.27,4.68,4.68,0,0,1,2.61,1.28,3.65,3.65,0,0,1,1.1,2.73,4.25,4.25,0,0,1-1.63,3.38,6.71,6.71,0,0,1-4.46,1.36,6.77,6.77,0,0,1-3.85-1.06A5.47,5.47,0,0,1,41.26,168l1.86-.62q.84,2.9,4.16,2.89a4.3,4.3,0,0,0,3.1-.92,3,3,0,0,0,.94-2.2,2.67,2.67,0,0,0-1.13-2.24,5.15,5.15,0,0,0-3.17-.86Z"/><path class="cls-1" d="M59.27,164.07v-1.58H61.1a4.05,4.05,0,0,0,2.86-.83,2.62,2.62,0,0,0,.86-2,2.48,2.48,0,0,0-1-2,4,4,0,0,0-6.14,1.85l-1.8-.51a5.69,5.69,0,0,1,5.72-3.68,5.58,5.58,0,0,1,3.78,1.25,3.84,3.84,0,0,1,1.44,3A3.58,3.58,0,0,1,66,161.9a3.73,3.73,0,0,1-2.23,1.27,4.68,4.68,0,0,1,2.62,1.28,3.64,3.64,0,0,1,1.09,2.73,4.27,4.27,0,0,1-1.62,3.38,7.79,7.79,0,0,1-8.32.3A5.52,5.52,0,0,1,55.33,168l1.87-.62c.56,1.93,1.94,2.89,4.16,2.89a4.32,4.32,0,0,0,3.1-.92,3,3,0,0,0,.94-2.2,2.69,2.69,0,0,0-1.13-2.24,5.17,5.17,0,0,0-3.17-.86Z"/><path class="cls-1" d="M72.89,163.75a2.82,2.82,0,0,1-2.42-1.21,4.92,4.92,0,0,1-.89-3,5,5,0,0,1,.86-3,3,3,0,0,1,4.9.07,5.17,5.17,0,0,1,.84,2.93,4.91,4.91,0,0,1-.87,2.89A2.79,2.79,0,0,1,72.89,163.75Zm0-.91a1.63,1.63,0,0,0,1.51-.88,4.5,4.5,0,0,0,.5-2.22,5,5,0,0,0-.52-2.44,1.67,1.67,0,0,0-1.56-1c-1.34,0-2,1.06-2,3.19S71.53,162.84,72.92,162.84Zm.33,8.75H71.77l9.7-16h1.45Zm8.58.17a2.81,2.81,0,0,1-2.43-1.23,4.94,4.94,0,0,1-.88-3,5,5,0,0,1,.85-2.93,3.06,3.06,0,0,1,4.9.06,5.26,5.26,0,0,1,.83,2.93,5,5,0,0,1-.86,2.89A2.79,2.79,0,0,1,81.83,171.76Zm0-.94a1.62,1.62,0,0,0,1.5-.87,4.38,4.38,0,0,0,.49-2.21,5.15,5.15,0,0,0-.5-2.41,1.65,1.65,0,0,0-1.56-1c-1.35,0-2,1.07-2,3.19S80.45,170.82,81.85,170.82Z"/><path class="cls-1" d="M105.5,171.59h-2.1l-3-6.92H95.87v6.92H94v-16h6.31a4.78,4.78,0,0,1,3.8,1.4,4.54,4.54,0,0,1,1.24,3.06,4.68,4.68,0,0,1-.7,2.45,3.89,3.89,0,0,1-2.28,1.68ZM95.87,163h4.18a3.24,3.24,0,0,0,2.47-.87,3.05,3.05,0,0,0,.81-2.14,2.41,2.41,0,0,0-.86-2,3.31,3.31,0,0,0-2.17-.7H95.87Z"/><path class="cls-1" d="M113.9,171.92a5.58,5.58,0,0,1-4.8-2.4,9.81,9.81,0,0,1-1.72-5.88,9.64,9.64,0,0,1,1.8-6,6,6,0,0,1,9.54,0,9.37,9.37,0,0,1,1.79,5.87,10.17,10.17,0,0,1-1.74,5.92A5.57,5.57,0,0,1,113.9,171.92Zm0-1.63a3.66,3.66,0,0,0,3.28-1.91,9.22,9.22,0,0,0,1.18-4.92,8.22,8.22,0,0,0-1.22-4.83,3.8,3.8,0,0,0-3.25-1.72,3.71,3.71,0,0,0-3.26,1.86,8.91,8.91,0,0,0-1.21,4.88,8.61,8.61,0,0,0,1.22,4.8A3.73,3.73,0,0,0,114,170.29Z"/><path class="cls-1" d="M125.53,171.59h-2v-16h2Z"/><path class="cls-1" d="M35.26,204.39H33.42V188.56h1.66v2.29A4,4,0,0,1,42.2,190a8.51,8.51,0,0,1,0,9,4.13,4.13,0,0,1-3.4,1.7,3.93,3.93,0,0,1-3.5-2.12Zm0-11.63v3.34a3.51,3.51,0,0,0,1.13,2.22,3,3,0,0,0,2,.88,2.78,2.78,0,0,0,2.14-1.06,5.51,5.51,0,0,0,.93-3.64,6,6,0,0,0-.84-3.45,2.62,2.62,0,0,0-2.24-1.22,2.76,2.76,0,0,0-2,.86A4.17,4.17,0,0,0,35.26,192.76Z"/><path class="cls-1" d="M55.5,200.39H53.68q-.1-.55-.21-2.13a4.27,4.27,0,0,1-4.15,2.46,4.18,4.18,0,0,1-3.06-1.05,3.45,3.45,0,0,1-1.06-2.54,3.53,3.53,0,0,1,1.52-2.95Q48.24,193,51.9,193c.33,0,.85,0,1.57,0a6.54,6.54,0,0,0-.22-2,1.8,1.8,0,0,0-.92-1,3.92,3.92,0,0,0-1.85-.37c-1.87,0-2.95.71-3.26,2.13l-1.7-.29q.63-3.27,5.23-3.27a4.64,4.64,0,0,1,3.47,1.08,5.42,5.42,0,0,1,1,3.76v5A9.62,9.62,0,0,0,55.5,200.39Zm-2-5.91c-.75,0-1.32-.07-1.71-.07a6.66,6.66,0,0,0-3.39.71,2.31,2.31,0,0,0-1.21,2.09,2,2,0,0,0,.65,1.48,2.67,2.67,0,0,0,1.89.61,3.48,3.48,0,0,0,2.73-1.21,4.1,4.1,0,0,0,1.07-2.84C53.5,195,53.49,194.77,53.47,194.48Zm-.77-9.63a2,2,0,0,1-2,2,2,2,0,0,1-1.44-.6,1.91,1.91,0,0,1-.61-1.43,2,2,0,0,1,.6-1.43,2,2,0,0,1,1.5-.61,1.83,1.83,0,0,1,1.37.61A2,2,0,0,1,52.7,184.85Zm-1,0a1.06,1.06,0,0,0-.3-.76,1,1,0,0,0-.69-.31,1.1,1.1,0,0,0-.82.31,1.06,1.06,0,1,0,1.81.76Z"/><path class="cls-1" d="M74.25,200.39H72.58v-2.26a4,4,0,0,1-3.77,2.59A3.58,3.58,0,0,1,66,199.53a5,5,0,0,1-1-3.41v-7.56h1.84v7.56a3.2,3.2,0,0,0,.73,2.42,2.37,2.37,0,0,0,1.61.66,2.71,2.71,0,0,0,1.61-.51,3.74,3.74,0,0,0,1.21-1.43,4.37,4.37,0,0,0,.48-2v-6.67h1.84Z"/><path class="cls-1" d="M87.25,200.39H85.53v-7.6a3.08,3.08,0,0,0-.71-2.31,2.45,2.45,0,0,0-1.74-.67,3,3,0,0,0-2.36,1.13,4.39,4.39,0,0,0-1,3v6.49H77.93V188.56h1.71v2.18a4.26,4.26,0,0,1,3.74-2.51,3.67,3.67,0,0,1,2.25.69,3.61,3.61,0,0,1,1.28,1.54,9.4,9.4,0,0,1,.34,3.09Z"/><path class="cls-1" d="M100.18,184.4v16H98.52v-2a4,4,0,0,1-3.75,2.35A4.12,4.12,0,0,1,91.36,199a7,7,0,0,1-1.34-4.4A7.51,7.51,0,0,1,91.34,190a4.16,4.16,0,0,1,3.52-1.81,4.09,4.09,0,0,1,3.48,1.94V184.4Zm-1.84,8.73a3.38,3.38,0,0,0-1-2.5,3.07,3.07,0,0,0-2.21-.94,2.69,2.69,0,0,0-2.26,1.22,5.77,5.77,0,0,0-.88,3.42,6.69,6.69,0,0,0,.81,3.63,2.55,2.55,0,0,0,2.23,1.24,3,3,0,0,0,2.28-1.08,3.65,3.65,0,0,0,1-2.53Z"/><path class="cls-1" d="M111.68,196.87l1.71.35a4.89,4.89,0,0,1-1.83,2.51,5.29,5.29,0,0,1-3.2,1,5,5,0,0,1-3.93-1.71,6.5,6.5,0,0,1-1.5-4.47,6.6,6.6,0,0,1,1.56-4.57,5,5,0,0,1,3.92-1.74,4.73,4.73,0,0,1,3.73,1.6,7.3,7.3,0,0,1,1.45,4.81H105c0,1.79.38,3,1.13,3.62a3.64,3.64,0,0,0,2.38.94A3.26,3.26,0,0,0,111.68,196.87Zm-.11-3.6a5,5,0,0,0-.33-1.77,2.92,2.92,0,0,0-1-1.32,2.85,2.85,0,0,0-1.75-.54,3.1,3.1,0,0,0-2.32,1,4,4,0,0,0-1.07,2.65Z"/><path class="cls-1" d="M118.19,200.39h-1.84V188.56H118v2.76a5.84,5.84,0,0,1,1.72-2.53,3.08,3.08,0,0,1,1.76-.58c.19,0,.43,0,.73,0V190h-.38a3.24,3.24,0,0,0-2.53,1.14,4.64,4.64,0,0,0-1.08,3Z"/><path class="cls-1" d="M37.29,216.47l-1.8.49a3.39,3.39,0,0,0-3.38-2.44q-4.5,0-4.6,7.44a5.12,5.12,0,0,1,2-2.45,5.28,5.28,0,0,1,2.78-.79A5,5,0,0,1,36,220.27,5.16,5.16,0,0,1,37.55,224a5.34,5.34,0,0,1-1.6,3.88,5.45,5.45,0,0,1-4.1,1.64,5.42,5.42,0,0,1-4.51-2.14,9.12,9.12,0,0,1-1.69-5.82,11.39,11.39,0,0,1,1.59-6.15,5.4,5.4,0,0,1,4.92-2.54A5,5,0,0,1,37.29,216.47Zm-5.47,11.45a3.69,3.69,0,0,0,2.78-1.13,3.87,3.87,0,0,0,0-5.35A3.51,3.51,0,0,0,32,220.33a3.93,3.93,0,0,0-2.82,1.17A3.67,3.67,0,0,0,28,224.22,3.61,3.61,0,0,0,29,226.79,3.69,3.69,0,0,0,31.82,227.92Z"/><path class="cls-1" d="M62.21,229.19h-1.8v-7.36a6.6,6.6,0,0,0-.16-1.7,2,2,0,0,0-.76-1,2.18,2.18,0,0,0-1.37-.48,2.88,2.88,0,0,0-2,1,4,4,0,0,0-1,2.95v6.66H53.32V221.4a2.8,2.8,0,0,0-.74-2.2,2.38,2.38,0,0,0-1.57-.65,2.63,2.63,0,0,0-2,1,3.81,3.81,0,0,0-.86,2.56v7.07H46.35V217.36h1.58v2.27q1.32-2.59,3.65-2.6a3.06,3.06,0,0,1,2.16.83,3.76,3.76,0,0,1,1.15,2C55.71,218,57,217,58.63,217a3.41,3.41,0,0,1,2.12.69,3.18,3.18,0,0,1,1.18,1.59,9.12,9.12,0,0,1,.28,2.52Z"/><path class="cls-1" d="M75.14,229.19H73.33q-.1-.56-.21-2.13A4.28,4.28,0,0,1,69,229.52a4.14,4.14,0,0,1-3.06-1.06,3.42,3.42,0,0,1-1.07-2.53,3.54,3.54,0,0,1,1.53-3c1-.77,2.74-1.16,5.17-1.16.33,0,.86,0,1.58.05a6.87,6.87,0,0,0-.22-2,1.83,1.83,0,0,0-.92-1,4,4,0,0,0-1.85-.37c-1.87,0-3,.71-3.26,2.13l-1.7-.29c.41-2.18,2.16-3.27,5.23-3.27a4.64,4.64,0,0,1,3.47,1.08,5.47,5.47,0,0,1,1,3.76v5A10.19,10.19,0,0,0,75.14,229.19Zm-2-5.91c-.75-.05-1.33-.07-1.72-.07a6.62,6.62,0,0,0-3.38.71A2.29,2.29,0,0,0,66.81,226a2,2,0,0,0,.65,1.48,2.63,2.63,0,0,0,1.88.61,3.5,3.5,0,0,0,2.74-1.21,4.15,4.15,0,0,0,1.07-2.84C73.15,223.83,73.14,223.57,73.12,223.28Zm-.78-9.63a2,2,0,0,1-.59,1.43,2,2,0,0,1-1.42.59,2,2,0,0,1-1.45-.6,1.94,1.94,0,0,1-.6-1.43,2,2,0,0,1,.6-1.43,2,2,0,0,1,1.49-.61,1.84,1.84,0,0,1,1.38.61A2,2,0,0,1,72.34,213.65Zm-1,0a1,1,0,0,0-.31-.76.92.92,0,0,0-.69-.31,1.09,1.09,0,0,0-.81.31,1.05,1.05,0,0,0,0,1.49,1.07,1.07,0,0,0,.77.32,1.06,1.06,0,0,0,1-1Z"/><path class="cls-1" d="M87.9,229.19H86.18v-7.6a3.08,3.08,0,0,0-.71-2.31,2.45,2.45,0,0,0-1.74-.67,3,3,0,0,0-2.36,1.13,4.39,4.39,0,0,0-1,3v6.49H78.58V217.36h1.71v2.18A4.26,4.26,0,0,1,84,217a3.73,3.73,0,0,1,2.25.68,3.69,3.69,0,0,1,1.28,1.55,9.4,9.4,0,0,1,.34,3.09Z"/><path class="cls-1" d="M99.4,225.67l1.71.35a4.78,4.78,0,0,1-1.83,2.51,5.27,5.27,0,0,1-3.2,1,5,5,0,0,1-3.92-1.71,6.5,6.5,0,0,1-1.5-4.47,6.6,6.6,0,0,1,1.56-4.57A5,5,0,0,1,96.13,217a4.71,4.71,0,0,1,3.73,1.6,7.25,7.25,0,0,1,1.45,4.81h-8.6c0,1.79.37,3,1.12,3.62a3.66,3.66,0,0,0,2.38.94A3.26,3.26,0,0,0,99.4,225.67Zm-.11-3.6A5,5,0,0,0,99,220.3a3.06,3.06,0,0,0-1-1.32,2.87,2.87,0,0,0-1.75-.54,3.12,3.12,0,0,0-2.33,1,4.13,4.13,0,0,0-1.07,2.65Z"/><path class="cls-1" d="M113.32,213.2v16h-1.66v-2a4,4,0,0,1-3.74,2.35,4.13,4.13,0,0,1-3.42-1.74,7,7,0,0,1-1.34-4.4,7.45,7.45,0,0,1,1.33-4.54,4.2,4.2,0,0,1,7,.13V213.2Zm-1.84,8.73a3.34,3.34,0,0,0-1-2.5,3.07,3.07,0,0,0-2.21-.94,2.69,2.69,0,0,0-2.26,1.22,5.77,5.77,0,0,0-.88,3.42,6.69,6.69,0,0,0,.81,3.63,2.56,2.56,0,0,0,2.23,1.24,3,3,0,0,0,2.28-1.08,3.65,3.65,0,0,0,1-2.53Z"/><path class="cls-1" d="M124.82,225.67l1.71.35a4.78,4.78,0,0,1-1.83,2.51,5.29,5.29,0,0,1-3.2,1,5,5,0,0,1-3.92-1.71,6.5,6.5,0,0,1-1.5-4.47,6.64,6.64,0,0,1,1.55-4.57,5,5,0,0,1,3.92-1.74,4.71,4.71,0,0,1,3.73,1.6,7.25,7.25,0,0,1,1.45,4.81h-8.6c0,1.79.37,3,1.12,3.62a3.64,3.64,0,0,0,2.38.94A3.26,3.26,0,0,0,124.82,225.67Zm-.11-3.6a4.81,4.81,0,0,0-.33-1.77,2.92,2.92,0,0,0-1-1.32,2.82,2.82,0,0,0-1.74-.54,3.11,3.11,0,0,0-2.33,1,4.08,4.08,0,0,0-1.07,2.65Z"/><path class="cls-1" d="M131.33,229.19h-1.84V217.36h1.62v2.76a5.84,5.84,0,0,1,1.72-2.53,3.08,3.08,0,0,1,1.76-.58c.19,0,.43,0,.73,0v1.76h-.38a3.24,3.24,0,0,0-2.53,1.14,4.64,4.64,0,0,0-1.08,3Z"/></svg>