<svg id="Layer_1" data-name="Layer 1" xmlns="http://www.w3.org/2000/svg" viewBox="0 0 980 120"><defs><style>.cls-1{fill:#d4ac76;}</style></defs><title>text</title><path class="cls-1" d="M272,46.61H259.43v8.71h13.82V61h-20.2V27h19.8v5.67H259.43v8.28H272Z"/><path class="cls-1" d="M283.59,61V27h4.47L304.8,48.38V27h6.38V61h-4.27L290,39.35V61Z"/><path class="cls-1" d="M323.32,61V27h5.9V42l13-15h7.88l-12,13.57L350.38,61H343l-9.26-15.53-4.55,5.15V61Z"/><path class="cls-1" d="M359.4,61V27h6.38V54.88h12.5V61Z"/><path class="cls-1" d="M384.17,61l13.12-34h5.76l13.07,34h-6.56l-1.81-4.71H392.54L390.73,61Zm16-24.49-5.44,14.11h10.85Z"/><path class="cls-1" d="M424.08,61V27h13.31a11.46,11.46,0,0,1,8.19,3.09,10.59,10.59,0,0,1,3.27,8.06,10.2,10.2,0,0,1-2.44,6.9,11,11,0,0,1-6.34,3.62L449.2,61H442l-8.82-12.14h-2.75V61ZM436.4,32.66h-5.94V43.75h5.94a6.27,6.27,0,0,0,4.42-1.51,5.05,5.05,0,0,0,1.65-3.92,5.36,5.36,0,0,0-1.69-4A6.08,6.08,0,0,0,436.4,32.66Z"/><path class="cls-1" d="M477.76,46.61H465.17v8.71H479V61h-20.2V27h19.8v5.67H465.17v8.28h12.59Z"/><path class="cls-1" d="M527.79,61V46.79H513.22V61h-6.38V27h6.38V40.67h14.57V27h6.38V61Z"/><path class="cls-1" d="M567.89,57.94a13.85,13.85,0,0,1-18.61,0,12,12,0,0,1-3.67-9V27H552V48.11a7.8,7.8,0,0,0,1.75,5.25,6.77,6.77,0,0,0,9.69,0,7.65,7.65,0,0,0,1.76-5.18V27h6.38v22A12.06,12.06,0,0,1,567.89,57.94Z"/><path class="cls-1" d="M592.13,61.44a16.38,16.38,0,0,1-6.41-1.34,16.86,16.86,0,0,1-5.51-3.72l4-4.85a12,12,0,0,0,3.75,3,9.49,9.49,0,0,0,4.48,1.19,5.48,5.48,0,0,0,3.62-1.16,3.67,3.67,0,0,0,1.42-2.94q0-3.18-3.74-4.72L590,45.42a14.63,14.63,0,0,1-5.65-3.75,8.65,8.65,0,0,1-1.83-5.78,8.82,8.82,0,0,1,2.89-6.46,9.86,9.86,0,0,1,7.21-2.84,14.63,14.63,0,0,1,10.47,3.89l-3.75,4.74a8.76,8.76,0,0,0-6.72-2.95,4.49,4.49,0,0,0-3,1,3,3,0,0,0-1.15,2.39,3.2,3.2,0,0,0,.9,2.34,9.11,9.11,0,0,0,2.92,1.75l4,1.59c5,2,7.61,5.29,7.71,9.82a9.53,9.53,0,0,1-3.2,7.44A12.41,12.41,0,0,1,592.13,61.44Z"/><path class="cls-1" d="M613.63,61V27h13.31a11.46,11.46,0,0,1,8.19,3.09,10.59,10.59,0,0,1,3.27,8.06A10.2,10.2,0,0,1,636,45a11,11,0,0,1-6.34,3.62L638.75,61h-7.17l-8.82-12.14H620V61ZM626,32.66H620V43.75H626a6.27,6.27,0,0,0,4.42-1.51A5.05,5.05,0,0,0,632,38.32a5.36,5.36,0,0,0-1.69-4A6.08,6.08,0,0,0,626,32.66Z"/><path class="cls-1" d="M667.31,46.61H654.72v8.71h13.82V61h-20.2V27h19.81v5.67H654.72v8.28h12.59Z"/><path class="cls-1" d="M687.92,61.44a16.46,16.46,0,0,1-6.42-1.34,16.92,16.92,0,0,1-5.5-3.72l4-4.85a12.27,12.27,0,0,0,3.75,3,9.55,9.55,0,0,0,4.48,1.19,5.49,5.49,0,0,0,3.63-1.16,3.66,3.66,0,0,0,1.41-2.94q0-3.18-3.73-4.72l-3.79-1.52a14.55,14.55,0,0,1-5.65-3.75,8.65,8.65,0,0,1-1.83-5.78,8.84,8.84,0,0,1,2.88-6.46,9.9,9.9,0,0,1,7.22-2.84,14.67,14.67,0,0,1,10.47,3.89l-3.76,4.74a8.73,8.73,0,0,0-6.71-2.95,4.54,4.54,0,0,0-3.06,1,3,3,0,0,0-1.14,2.39A3.19,3.19,0,0,0,685.1,38,9.22,9.22,0,0,0,688,39.73l4,1.59q7.56,3,7.7,9.82a9.5,9.5,0,0,1-3.2,7.44A12.36,12.36,0,0,1,687.92,61.44Z"/><path class="cls-1" d="M705.68,61l13.11-34h5.76l13.07,34h-6.56l-1.8-4.71H714.05L712.23,61Zm16-24.49-5.44,14.11h10.84Z"/></svg>