<svg id="Layer_1" data-name="Layer 1" xmlns="http://www.w3.org/2000/svg" viewBox="0 0 980 240"><defs><style>.cls-1{fill:#d80201;}</style></defs><title>text</title><path class="cls-1" d="M288.51,132V104H294v23.27h8.61V132Z"/><path class="cls-1" d="M309.8,123.74c.09,2.82,1.43,4.88,4.45,4.88a4.76,4.76,0,0,0,4.33-2.44l4.71.76c-1.6,3.9-4.83,5.67-9,5.67-5.88,0-9.75-3.78-9.75-9.71s3.7-9.66,9.54-9.66c6,0,9.28,4,9.28,9.83v.67Zm4.41-6.89a4.13,4.13,0,0,0-4.24,3.66h8.61A4.21,4.21,0,0,0,314.21,116.85Z"/><path class="cls-1" d="M332.44,118.2V132h-5.08V118.2h-2v-4.37h2v-6.22h5.08v6.22H336v4.37Z"/><path class="cls-1" d="M347,110.64,344.62,109l5-6.35,3.7,2.36Z"/><path class="cls-1" d="M365.45,132.61a9.69,9.69,0,0,1-6.93-3l2.69-3.11a5.9,5.9,0,0,0,4.28,2.15,2.14,2.14,0,0,0,2.31-2c0-3.11-8.1-1.55-8.1-7.69,0-3.69,3.06-5.75,6.51-5.75a9.39,9.39,0,0,1,5.92,1.93l-2.52,3a5.08,5.08,0,0,0-3-1.22c-.89,0-1.94.55-1.94,1.56,0,2.64,8.41,1.47,8.41,7.69C373.06,130.34,369.36,132.61,365.45,132.61Z"/><path class="cls-1" d="M398.21,132.61a7.14,7.14,0,0,1-6-3V132h-5.09V100.56h5.09v15.58c1.8-1.89,3.44-2.9,6.09-2.9,5.33,0,8.86,4.54,8.86,9.62S403.67,132.61,398.21,132.61Zm-1.38-14.79a5.11,5.11,0,1,0,5.08,5.08A5.08,5.08,0,0,0,396.83,117.82Z"/><path class="cls-1" d="M415.3,123.74c.09,2.82,1.43,4.88,4.46,4.88a4.76,4.76,0,0,0,4.32-2.44l4.71.76c-1.6,3.9-4.83,5.67-9,5.67-5.88,0-9.74-3.78-9.74-9.71s3.69-9.66,9.53-9.66c6,0,9.29,4,9.29,9.83v.67Zm4.42-6.89a4.14,4.14,0,0,0-4.25,3.66h8.61A4.21,4.21,0,0,0,419.72,116.85Z"/><path class="cls-1" d="M448.57,118.2V132h-5.08V118.2h-2v-4.37h2V108a8.88,8.88,0,0,1,.79-4.28,7.21,7.21,0,0,1,6.3-3.66,6,6,0,0,1,2.69.63v4.66a5.14,5.14,0,0,0-2.31-.67c-2.27,0-2.39,2.35-2.39,4.08v5.08h4.7v4.37Z"/><path class="cls-1" d="M467.51,118.45a4.51,4.51,0,0,0-2.43-.63c-3.45,0-4.37,2.44-4.37,5.46V132h-5.09V113.83h5.09v2.73a5.83,5.83,0,0,1,5.29-3.32,5.92,5.92,0,0,1,2.23.42Z"/><path class="cls-1" d="M473.22,109.21a3.07,3.07,0,1,1,0-6.13,3.07,3.07,0,0,1,0,6.13ZM470.66,132V113.83h5.08V132Z"/><path class="cls-1" d="M484.77,123.74c.08,2.82,1.43,4.88,4.45,4.88a4.76,4.76,0,0,0,4.33-2.44l4.7.76c-1.59,3.9-4.83,5.67-8.94,5.67-5.88,0-9.75-3.78-9.75-9.71s3.7-9.66,9.54-9.66c6,0,9.28,4,9.28,9.83v.67Zm4.41-6.89a4.13,4.13,0,0,0-4.24,3.66h8.61A4.21,4.21,0,0,0,489.18,116.85Z"/><path class="cls-1" d="M514.72,132V121.94c0-2.48-.55-4.37-3.45-4.37-3.15,0-3.9,2.31-3.9,5V132h-5.09V113.83h5.09v2.23c1.68-1.94,3.1-2.82,5.71-2.82a7,7,0,0,1,5.29,2.19c1.3,1.51,1.43,3.15,1.43,5V132Z"/><path class="cls-1" d="M538.57,132v-2.4a7,7,0,0,1-5.92,3c-5.46,0-8.95-4.54-8.95-9.75s3.49-9.62,8.82-9.62a7.57,7.57,0,0,1,6.05,2.9V100.56h5.13V132ZM534,117.82a5.11,5.11,0,1,0,5.08,5.08A5.08,5.08,0,0,0,534,117.82Z"/><path class="cls-1" d="M554.36,132.61a9.69,9.69,0,0,1-6.93-3l2.69-3.11a5.9,5.9,0,0,0,4.29,2.15,2.15,2.15,0,0,0,2.31-2c0-3.11-8.11-1.55-8.11-7.69,0-3.69,3.06-5.75,6.51-5.75a9.39,9.39,0,0,1,5.92,1.93l-2.52,3a5.08,5.08,0,0,0-3-1.22c-.88,0-1.93.55-1.93,1.56,0,2.64,8.4,1.47,8.4,7.69C562,130.34,558.27,132.61,554.36,132.61Z"/><path class="cls-1" d="M573.64,124.5v-4.29h9.45v4.29Z"/><path class="cls-1" d="M607.07,132.61a7.14,7.14,0,0,1-6-3V132H596V100.56h5.08v15.58c1.81-1.89,3.44-2.9,6.09-2.9,5.34,0,8.86,4.54,8.86,9.62S612.54,132.61,607.07,132.61Zm-1.38-14.79a5.11,5.11,0,1,0,5.08,5.08A5.08,5.08,0,0,0,605.69,117.82Z"/><path class="cls-1" d="M629.38,132.61c-5.8,0-10.42-3.62-10.42-9.67s4.62-9.7,10.46-9.7,10.33,3.66,10.33,9.66S635.13,132.61,629.38,132.61Zm0-14.79a5.11,5.11,0,1,0,5.17,5.12A5.14,5.14,0,0,0,629.33,117.82Z"/><path class="cls-1" d="M656.13,132l-6.85-7.81-.54.54V132h-5.09V100.56h5.09v19.91l6.8-6.64h6.89l-8.53,8L663.1,132Z"/><path class="cls-1" d="M678.31,132v-2.4a7,7,0,0,1-5.93,3c-5.46,0-9-4.54-9-9.75s3.49-9.62,8.83-9.62a7.59,7.59,0,0,1,6,2.9v-2.31h5.12V132Zm-4.54-14.2a5.11,5.11,0,1,0,5.08,5.08A5.07,5.07,0,0,0,673.77,117.82Z"/><path class="cls-1" d="M722,132v-10c0-2.14-.34-4.49-3-4.49-3,0-3.48,2.73-3.48,5.12V132h-5.09v-9.66a8.28,8.28,0,0,0-.37-3,3,3,0,0,0-2.73-1.76,3.32,3.32,0,0,0-2.86,1.64,7.47,7.47,0,0,0-.59,3.48V132H698.8V113.83h5.08v2.06a7,7,0,0,1,5.55-2.65,6.2,6.2,0,0,1,5.67,3.32,6.74,6.74,0,0,1,6-3.32,6,6,0,0,1,5.09,2.61,8,8,0,0,1,1,4.41V132Z"/><path class="cls-1" d="M741.43,132.61c-5.8,0-10.42-3.62-10.42-9.67s4.62-9.7,10.46-9.7,10.34,3.66,10.34,9.66S747.19,132.61,741.43,132.61ZM737,110.43a3,3,0,0,1,0-6.05,3,3,0,0,1,0,6.05Zm4.37,7.39a5.11,5.11,0,1,0,5.16,5.12A5.14,5.14,0,0,0,741.39,117.82Zm4.37-7.39a3.07,3.07,0,0,1-3-3,3,3,0,1,1,3,3Z"/><path class="cls-1" d="M760.83,118.2V132h-5.08V118.2h-2v-4.37h2v-6.22h5.08v6.22h3.57v4.37Z"/><path class="cls-1" d="M771.29,123.74c.09,2.82,1.43,4.88,4.45,4.88a4.76,4.76,0,0,0,4.33-2.44l4.7.76c-1.59,3.9-4.83,5.67-8.94,5.67-5.88,0-9.75-3.78-9.75-9.71s3.7-9.66,9.54-9.66c6,0,9.28,4,9.28,9.83v.67Zm4.41-6.89a4.13,4.13,0,0,0-4.24,3.66h8.61A4.21,4.21,0,0,0,775.7,116.85Z"/><path class="cls-1" d="M811.74,132V121.94c0-2.48-.55-4.37-3.45-4.37-3.15,0-3.9,2.31-3.9,5V132H799.3V113.83h5.09v2.23c1.68-1.94,3.1-2.82,5.71-2.82a7,7,0,0,1,5.29,2.19c1.3,1.51,1.43,3.15,1.43,5V132Z"/><path class="cls-1" d="M830.47,132.61c-5,0-8.78-2.23-8.78-7.65V113.83h5.08v10.29c0,2.48,1.05,4.16,3.7,4.16s3.7-1.68,3.7-4.16V113.83h5.12V125C839.29,130.38,835.47,132.61,830.47,132.61Z"/><path class="cls-1" d="M847,132.56a3.28,3.28,0,1,1,3.28-3.27A3.28,3.28,0,0,1,847,132.56Zm-2.6-8.56V104h5.21v20Z"/></svg>