<svg id="Layer_1" data-name="Layer 1" xmlns="http://www.w3.org/2000/svg" viewBox="0 0 980 120"><defs><style>.cls-1{fill:#d4ac76;}</style></defs><title>text-02</title><path class="cls-1" d="M351.84,89V77.41h3.31a5.68,5.68,0,0,1,4.11,1.66A5.58,5.58,0,0,1,361,83.24a5.42,5.42,0,0,1-1.73,4.14A5.92,5.92,0,0,1,355,89h-3.19Zm3.33-9.66h-1.32v7.73h1.34a3.34,3.34,0,0,0,2.56-1.12,3.93,3.93,0,0,0,1-2.76,3.82,3.82,0,0,0-1-2.74A3.4,3.4,0,0,0,355.18,79.34Z"/><path class="cls-1" d="M364.65,89V77.41h2.18V89h-2.18Z"/><path class="cls-1" d="M369.93,79.49V77.41h9.56v2.08H375.8V89h-2.17V79.49h-3.69Z"/><path class="cls-1" d="M381.83,79.49V77.41h9.56v2.08h-3.69V89h-2.17V79.49h-3.69Z"/><path class="cls-1" d="M401,89V77.41h1.52l5.71,7.29V77.41h2.18V89H409l-5.77-7.38V89H401Z"/><path class="cls-1" d="M421,77.41h2.34l-3.84,6.88V89h-2.17V84.36l-3.89-7h2.39l2.62,4.81Z"/><path class="cls-1" d="M423.75,89l4.47-11.59h2L434.64,89h-2.24l-0.62-1.61h-5.19L426,89h-2.23Zm5.46-8.35-1.86,4.81h3.7Z"/><path class="cls-1" d="M451.28,89V84.16h-5V89h-2.18V77.41h2.18v4.67h5V77.41h2.17V89h-2.17Z"/><path class="cls-1" d="M464.36,84.09h-4.29v3h4.71V89h-6.89V77.41h6.75v1.93h-4.57v2.82h4.29v1.93Z"/><path class="cls-1" d="M468.6,89V77.41h2.1l3.59,5.71,3.63-5.71h2.28V89H478V81.07l-0.17,0-3.6,5.55-3.51-5.48h0V89H468.6Z"/><path class="cls-1" d="M494,89l-4.43-11.59h2.26L495,85.74l3.15-8.34h2.2L495.95,89h-2Z"/><path class="cls-1" d="M501.2,89l4.47-11.59h2L512.09,89h-2.24l-0.62-1.61h-5.19L503.43,89H501.2Zm4.45-12.79a0.93,0.93,0,0,1-.71.31,1,1,0,0,1-.72-0.31,1,1,0,0,1-.3-0.74,1,1,0,0,1,1-1,1,1,0,0,1,.7.3,1,1,0,0,1,.3.73A1,1,0,0,1,505.65,76.21Zm1,4.44-1.86,4.81h3.7Zm2.45-4.44a1.12,1.12,0,0,1-1.54,0,1,1,0,0,1-.32-0.74,1,1,0,0,1,.32-0.73,1.13,1.13,0,0,1,1.54,0,1,1,0,0,1,.32.73A1,1,0,0,1,509.1,76.21Z"/><path class="cls-1" d="M515.1,89V77.41h1.52l5.71,7.29V77.41h2.18V89h-1.46l-5.78-7.38V89H515.1Z"/><path class="cls-1" d="M527.61,79.49V77.41h9.55v2.08h-3.69V89H531.3V79.49h-3.69Z"/><path class="cls-1" d="M537.87,89l4.47-11.59h2L548.76,89h-2.24l-0.62-1.61h-5.19L540.11,89h-2.24Zm5.46-8.35-1.86,4.81h3.7Z"/><path class="cls-1" d="M551.78,89V77.41h4.54a3.91,3.91,0,0,1,2.79,1.05,3.61,3.61,0,0,1,1.12,2.75,3.48,3.48,0,0,1-.83,2.35,3.73,3.73,0,0,1-2.16,1.23L560.34,89H557.9l-3-4.14H554V89h-2.18Zm4.2-9.66h-2v3.78h2a2.15,2.15,0,0,0,1.51-.51,1.73,1.73,0,0,0,.56-1.34,1.82,1.82,0,0,0-.58-1.37A2.07,2.07,0,0,0,556,79.34Z"/><path class="cls-1" d="M570.18,89V77.41h4.16a3.94,3.94,0,0,1,4,4,3.67,3.67,0,0,1-1.18,2.79,4.05,4.05,0,0,1-2.89,1.11h-2V89h-2.17Zm4-9.51h-1.8v3.88h1.83a2,2,0,0,0,1.46-.52,1.81,1.81,0,0,0,.55-1.39,1.9,1.9,0,0,0-.57-1.43A2,2,0,0,0,574.16,79.49Z"/><path class="cls-1" d="M579.65,89l4.47-11.59h2L590.54,89H588.3l-0.62-1.61H582.5L581.88,89h-2.23Zm5.45-8.35-1.85,4.81h3.7Zm1.69-5.22a1.66,1.66,0,0,1-1.67,1.67,1.63,1.63,0,0,1-1.18-.48,1.68,1.68,0,0,1,0-2.37A1.68,1.68,0,0,1,586.79,75.42Zm-2.1.44a0.59,0.59,0,0,0,.43.18,0.57,0.57,0,0,0,.43-0.18,0.61,0.61,0,0,0,.17-0.44,0.59,0.59,0,0,0-.18-0.43,0.6,0.6,0,0,0-.85,0A0.61,0.61,0,0,0,584.69,75.86Z"/><path class="cls-1" d="M600,89V77.41h3.31a5.68,5.68,0,0,1,4.11,1.66,5.58,5.58,0,0,1,1.71,4.18,5.42,5.42,0,0,1-1.73,4.14,5.92,5.92,0,0,1-4.2,1.62H600Zm3.33-9.66H602v7.73h1.34a3.34,3.34,0,0,0,2.57-1.12,3.93,3.93,0,0,0,1-2.76,3.82,3.82,0,0,0-1-2.74A3.4,3.4,0,0,0,603.37,79.34Z"/><path class="cls-1" d="M612.84,89V77.41H615V89h-2.17Z"/><path class="cls-1" d="M626.54,84.16V82.22h4.16l0,1a5.94,5.94,0,0,1-.85,3.08,5.86,5.86,0,0,1-2.2,2.14,6,6,0,0,1-3,.76,6,6,0,1,1,0-12A5.72,5.72,0,0,1,629,79l-1.49,1.46a3.75,3.75,0,0,0-2.85-1.25,3.69,3.69,0,0,0-2.78,1.13,4.1,4.1,0,0,0,0,5.59,3.54,3.54,0,0,0,2.63,1.14,4.11,4.11,0,0,0,2.58-.8,3.67,3.67,0,0,0,1.37-2.13h-2Z"/></svg>