<?xml version="1.0" encoding="utf-8"?>
<!-- Generator: Adobe Illustrator 19.1.1, SVG Export Plug-In . SVG Version: 6.00 Build 0)  -->
<svg version="1.1" id="Layer_1" xmlns="http://www.w3.org/2000/svg" xmlns:xlink="http://www.w3.org/1999/xlink" x="0px" y="0px"
	 viewBox="0 0 980 120" style="enable-background:new 0 0 980 120;" xml:space="preserve">
<style type="text/css">
	.st0{fill:#D4AC76;}
</style>
<g>
	<path class="st0" d="M305.2,61V27h9.7c4.7,0,8.7,1.6,12,4.9c3.3,3.2,5,7.3,5,12.3s-1.7,9-5.1,12.1c-3.4,3.2-7.5,4.8-12.3,4.8H305.2
		z M315,32.7h-3.9v22.7h3.9c3,0,5.5-1.1,7.5-3.3c2-2.2,3-4.9,3-8.1s-1-5.9-3.1-8S318,32.7,315,32.7z"/>
	<path class="st0" d="M341.9,61V27h6.4v34H341.9z"/>
	<path class="st0" d="M356.5,33.1V27h28v6.1h-10.8V61h-6.4V33.1H356.5z"/>
	<path class="st0" d="M390.5,33.1V27h28v6.1h-10.8V61h-6.4V33.1H390.5z"/>
	<path class="st0" d="M445.1,61V27h6.4v27.9H464V61H445.1z"/>
	<path class="st0" d="M473.2,61V27h6.4v34H473.2z"/>
	<path class="st0" d="M500.5,61l-13-34h6.6l9.3,24.5l9.2-24.5h6.5l-12.9,34H500.5z"/>
	<path class="st0" d="M534.9,61.4c-2.2,0-4.3-0.4-6.4-1.3c-2.1-0.9-4-2.1-5.5-3.7l4-4.8c1,1.2,2.3,2.2,3.8,3c1.5,0.8,3,1.2,4.5,1.2
		c1.5,0,2.7-0.4,3.6-1.2s1.4-1.8,1.4-2.9c0-2.1-1.2-3.7-3.7-4.7l-3.8-1.5c-2.6-1.1-4.4-2.3-5.7-3.8c-1.2-1.4-1.8-3.4-1.8-5.8
		s1-4.6,2.9-6.5c1.9-1.9,4.3-2.8,7.2-2.8c4.2,0,7.7,1.3,10.5,3.9l-3.8,4.7c-1.8-2-4-3-6.7-3c-1.3,0-2.3,0.3-3.1,1s-1.1,1.5-1.1,2.4
		c0,0.9,0.3,1.7,0.9,2.3c0.6,0.6,1.6,1.2,2.9,1.8l4,1.6c5,2,7.6,5.3,7.7,9.8c0,3.1-1.1,5.5-3.2,7.4
		C541.4,60.5,538.5,61.4,534.9,61.4z"/>
	<path class="st0" d="M565.4,61l-13-34h6.6l9.3,24.5l9.2-24.5h6.5l-12.9,34H565.4z"/>
	<path class="st0" d="M611.1,46.6h-12.6v8.7h13.8V61h-20.2V27h19.8v5.7h-13.4v8.3h12.6V46.6z"/>
	<path class="st0" d="M622.6,61V27h13.3c3.3,0,6,1,8.2,3.1c2.2,2.1,3.3,4.7,3.3,8.1c0,2.7-0.8,5-2.4,6.9c-1.6,1.9-3.7,3.1-6.3,3.6
		l9.1,12.3h-7.2l-8.8-12.1H629V61H622.6z M634.9,32.7H629v11.1h5.9c1.8,0,3.3-0.5,4.4-1.5c1.1-1,1.7-2.3,1.7-3.9c0-1.6-0.6-3-1.7-4
		C638.2,33.2,636.7,32.7,634.9,32.7z"/>
	<path class="st0" d="M657.3,61V27h5.9v15l13-15h7.9l-12,13.6L684.4,61h-7.3l-9.3-15.5l-4.6,5.1V61H657.3z"/>
</g>
</svg>
