<svg id="Layer_1" data-name="Layer 1" xmlns="http://www.w3.org/2000/svg" viewBox="0 0 980 120"><defs><style>.cls-1{fill:#d4ac76;}</style></defs><title>text</title><path class="cls-1" d="M355.15,49.56h-10v6.92h11V61H340.07V33.94h15.75v4.52H345.14V45h10Z"/><path class="cls-1" d="M364.36,61V33.94h10.58a9.13,9.13,0,0,1,6.52,2.46,8.45,8.45,0,0,1,2.6,6.42,8.13,8.13,0,0,1-1.94,5.48,8.61,8.61,0,0,1-5.05,2.88L384.34,61h-5.7l-7-9.66h-2.19V61Zm9.8-22.54h-4.73v8.82h4.73a5,5,0,0,0,3.51-1.2A4,4,0,0,0,379,43a4.26,4.26,0,0,0-1.35-3.21A4.83,4.83,0,0,0,374.16,38.46Z"/><path class="cls-1" d="M389.28,38.81V33.94h22.29v4.87H403V61h-5.07V38.81Z"/><path class="cls-1" d="M432.68,61V33.94h5.07V56.13h9.94V61Z"/><path class="cls-1" d="M455,61V33.94h5.08V61Z"/><path class="cls-1" d="M476.72,61,466.38,33.94h5.28L479.1,53.4l7.34-19.46h5.13L481.32,61Z"/><path class="cls-1" d="M504.13,61.35A13.09,13.09,0,0,1,499,60.28a13.53,13.53,0,0,1-4.38-3l3.22-3.86a9.82,9.82,0,0,0,3,2.42,7.65,7.65,0,0,0,3.57.94,4.37,4.37,0,0,0,2.88-.92,2.92,2.92,0,0,0,1.13-2.34q0-2.52-3-3.75l-3-1.21a11.67,11.67,0,0,1-4.5-3A6.92,6.92,0,0,1,496.48,41a7,7,0,0,1,2.3-5.13,7.81,7.81,0,0,1,5.73-2.26,11.65,11.65,0,0,1,8.33,3.09l-3,3.77a7,7,0,0,0-5.35-2.34,3.61,3.61,0,0,0-2.43.77,2.45,2.45,0,0,0-.91,1.91,2.58,2.58,0,0,0,.71,1.86,7.41,7.41,0,0,0,2.33,1.39l3.15,1.26q6,2.41,6.13,7.81a7.55,7.55,0,0,1-2.55,5.92A9.82,9.82,0,0,1,504.13,61.35Z"/><path class="cls-1" d="M528.38,61,518,33.94h5.28l7.43,19.46,7.34-19.46h5.14L533,61Z"/><path class="cls-1" d="M564.7,49.56h-10v6.92h11V61H549.61V33.94h15.75v4.52H554.68V45h10Z"/><path class="cls-1" d="M573.9,61V33.94h10.59A9.11,9.11,0,0,1,591,36.4a8.41,8.41,0,0,1,2.6,6.42,8.12,8.12,0,0,1-1.93,5.48,8.67,8.67,0,0,1-5,2.88L593.88,61h-5.7l-7-9.66H579V61Zm9.8-22.54H579v8.82h4.73a5,5,0,0,0,3.52-1.2A4,4,0,0,0,588.53,43a4.26,4.26,0,0,0-1.35-3.21A4.83,4.83,0,0,0,583.7,38.46Z"/><path class="cls-1" d="M601.51,61V33.94h4.69V45.87l10.36-11.93h6.27l-9.55,10.8L623,61h-5.85l-7.37-12.35-3.62,4.09V61Z"/></svg>