<svg id="Layer_1" data-name="Layer 1" xmlns="http://www.w3.org/2000/svg" viewBox="0 0 980 120"><defs><style>.cls-1{fill:#d4ac76;}</style></defs><title>text</title><path class="cls-1" d="M288.73,90l4.66-11.59h1.46L299.42,90h-1.79l-.7-1.78h-5.68L290.53,90Zm5.39-8.93-2.25,5.6h4.45Zm1.12-3.45a1.59,1.59,0,0,1-2.24,0,1.56,1.56,0,0,1-.46-1.12,1.58,1.58,0,1,1,3.15,0A1.55,1.55,0,0,1,295.24,77.6Zm-1.12-.47a.59.59,0,0,0,.44-.2.61.61,0,0,0,.19-.45.58.58,0,0,0-.19-.45.58.58,0,0,0-.44-.19.65.65,0,0,0-.65.64.65.65,0,0,0,.19.45A.63.63,0,0,0,294.12,77.13Z"/><path class="cls-1" d="M300.1,79.93V78.39h9.39v1.54h-3.88V90H304v-10Z"/><path class="cls-1" d="M311.79,79.93V78.39h9.39v1.54h-3.89V90h-1.62v-10Z"/><path class="cls-1" d="M321.93,90l4.66-11.59h1.46L332.62,90h-1.8l-.7-1.78h-5.68L323.72,90Zm5.38-8.93-2.25,5.6h4.46Z"/><path class="cls-1" d="M349.56,90V85h-5.64v5H342.3V78.39h1.62v5h5.64v-5h1.62V90Z"/><path class="cls-1" d="M360,90.18a4,4,0,0,1-3-1.22,4.21,4.21,0,0,1-1.19-3.06V78.39h1.62V85.8a3,3,0,0,0,.7,2,2.34,2.34,0,0,0,1.89.8,2.46,2.46,0,0,0,1.92-.78,3,3,0,0,0,.7-2V78.39h1.62V85.9A4.2,4.2,0,0,1,363,89,4.09,4.09,0,0,1,360,90.18Z"/><path class="cls-1" d="M371.83,90.13a5.36,5.36,0,0,1-2.17-.46,5.71,5.71,0,0,1-1.84-1.25L369,87.11a4.59,4.59,0,0,0,1.34,1.06,3.42,3.42,0,0,0,1.6.42,2.24,2.24,0,0,0,1.5-.5,1.53,1.53,0,0,0,.58-1.23,2,2,0,0,0-1.47-1.9l-1.37-.54a4.68,4.68,0,0,1-1.89-1.25,2.71,2.71,0,0,1-.63-1.83,2.89,2.89,0,0,1,1-2.19,3.3,3.3,0,0,1,2.37-.91,4.68,4.68,0,0,1,3.36,1.28l-1,1.3a3.23,3.23,0,0,0-2.39-1,1.81,1.81,0,0,0-1.23.41,1.39,1.39,0,0,0-.13,2,3.2,3.2,0,0,0,1.18.71l1.39.56a3.31,3.31,0,0,1,2.44,3.32,3.14,3.14,0,0,1-1,2.43A3.82,3.82,0,0,1,371.83,90.13Z"/><path class="cls-1" d="M385.92,90V78.39h1.66l3.74,6.18,3.79-6.18h1.59V90h-1.62V81.42l-.05,0-3.73,6-3.66-5.91h-.1V90Z"/><path class="cls-1" d="M407.86,84.9h-4.77v3.54h5.1V90h-6.72V78.39h6.63v1.54h-5v3.42h4.77Z"/><path class="cls-1" d="M412.21,90V78.39h3.11a5.84,5.84,0,0,1,4.06,9.94A5.68,5.68,0,0,1,415.26,90Zm3.17-10h-1.55v8.51h1.6a3.77,3.77,0,0,0,2.86-1.25,4.27,4.27,0,0,0,1.15-3,4.17,4.17,0,0,0-1.19-3A3.89,3.89,0,0,0,415.38,79.93Z"/><path class="cls-1" d="M438.73,90V85h-5.64v5h-1.62V78.39h1.62v5h5.64v-5h1.62V90Z"/><path class="cls-1" d="M450.28,90.19a5.7,5.7,0,0,1-4.18-1.71,6.21,6.21,0,0,1,0-8.6,5.91,5.91,0,0,1,8.35,0,6.18,6.18,0,0,1,0,8.58A5.71,5.71,0,0,1,450.28,90.19Zm-3-2.84a4.19,4.19,0,0,0,6.07,0,4.63,4.63,0,0,0,0-6.34,4.18,4.18,0,0,0-6.06,0,4.64,4.64,0,0,0,0,6.34Zm1.95-10.19a.76.76,0,0,1-.58.25.72.72,0,0,1-.57-.25,1,1,0,0,1,0-1.26.73.73,0,0,1,.57-.26.77.77,0,0,1,.58.26.95.95,0,0,1,0,1.26Zm3.21,0a.72.72,0,0,1-.57.25.76.76,0,0,1-.58-.25,1,1,0,0,1,0-1.26.77.77,0,0,1,.58-.26.73.73,0,0,1,.57.26.95.95,0,0,1,0,1.26Z"/><path class="cls-1" d="M467.79,84.94V83.4h3.85v.81a6,6,0,0,1-6,6,5.66,5.66,0,0,1-4.23-1.74,6.26,6.26,0,0,1,0-8.56,5.69,5.69,0,0,1,4.23-1.73,6.25,6.25,0,0,1,2.44.48,6,6,0,0,1,2,1.34l-1.2,1.23a4.1,4.1,0,0,0-3.23-1.51A4,4,0,0,0,462.57,81a4.67,4.67,0,0,0,0,6.32,4,4,0,0,0,3.07,1.31,4.18,4.18,0,0,0,2.79-1,4.42,4.42,0,0,0,1.46-2.68Z"/><path class="cls-1" d="M481.9,90V78.39h1.62v5.5l4.83-5.5h2.18L486.44,83l4.19,7h-2l-3.37-5.66-1.73,1.94V90Z"/><path class="cls-1" d="M497.56,90,493,78.39h1.82l3.48,8.91,3.48-8.91h1.79L499.06,90Z"/><path class="cls-1" d="M504.58,90l4.66-11.59h1.46L515.27,90h-1.79l-.7-1.78h-5.69L506.38,90ZM510,81.05l-2.26,5.6h4.46Z"/><path class="cls-1" d="M518.49,90V78.39h1.62v10h4.77V90Z"/><path class="cls-1" d="M528.43,90V78.39h1.62V90Z"/><path class="cls-1" d="M533.28,79.93V78.39h9.39v1.54h-3.89V90h-1.62v-10Z"/><path class="cls-1" d="M552.28,84.9h-4.77v3.54h5.1V90h-6.72V78.39h6.63v1.54h-5v3.42h4.77Z"/><path class="cls-1" d="M555.4,79.93V78.39h9.39v1.54h-3.88V90h-1.62v-10Z"/><path class="cls-1" d="M573.36,79.93V78.39h9.39v1.54h-3.89V90h-1.62v-10Z"/><path class="cls-1" d="M586,90V78.39h1.62V90Z"/><path class="cls-1" d="M592.35,90V78.39H594v10h4.77V90Z"/><path class="cls-1" d="M602.29,90V78.39h1.62v10h4.77V90Z"/><path class="cls-1" d="M618.51,90V78.39h3.54a3.75,3.75,0,0,1,2.56.89,3,3,0,0,1,1,2.35,2.75,2.75,0,0,1-1.38,2.49,2.86,2.86,0,0,1,1.24,1,2.69,2.69,0,0,1,.47,1.56,3,3,0,0,1-1,2.37,3.75,3.75,0,0,1-2.58.89Zm3.38-10h-1.76v3.53h2.06a1.75,1.75,0,0,0,1.29-.52,1.8,1.8,0,0,0,.52-1.33,1.51,1.51,0,0,0-.58-1.22A2.44,2.44,0,0,0,621.89,79.93Zm.36,5h-2.12v3.54h2a2.39,2.39,0,0,0,1.6-.5,1.65,1.65,0,0,0,.59-1.32,1.58,1.58,0,0,0-.54-1.24A2.22,2.22,0,0,0,622.25,84.9Z"/><path class="cls-1" d="M630,90V78.39h4.31a3.59,3.59,0,0,1,2.61,1,3.58,3.58,0,0,1-2,6.17L638.25,90h-2l-3.33-4.42h-1.29V90Zm4.09-10h-2.47v4.19h2.45a2.34,2.34,0,0,0,1.65-.58,2.09,2.09,0,0,0,0-3A2.25,2.25,0,0,0,634.1,79.93Z"/><path class="cls-1" d="M640.65,90l4.65-11.59h1.47L651.33,90h-1.79l-.7-1.78h-5.68L642.44,90ZM646,81.05l-2.25,5.6h4.45Z"/><path class="cls-1" d="M661,90V78.39h4a3.66,3.66,0,0,1,2.7,1.08,3.77,3.77,0,0,1,1.07,2.76,3.63,3.63,0,0,1-1.11,2.71A3.73,3.73,0,0,1,664.91,86h-2.27v4Zm3.84-10h-2.22v4.55h2.24a2.31,2.31,0,0,0,1.6-3.9A2.17,2.17,0,0,0,664.86,79.93Z"/><path class="cls-1" d="M672.58,90V78.39h4.31a3.59,3.59,0,0,1,2.61,1,3.58,3.58,0,0,1-2,6.17L680.82,90h-2l-3.33-4.42H674.2V90Zm4.09-10H674.2v4.19h2.46a2.33,2.33,0,0,0,1.64-.58,2.09,2.09,0,0,0,0-3A2.25,2.25,0,0,0,676.67,79.93Z"/><path class="cls-1" d="M684.61,90V78.39h1.62V90Z"/><path class="cls-1" d="M693.81,90.13a5.43,5.43,0,0,1-2.17-.46,5.77,5.77,0,0,1-1.83-1.25L691,87.11a4.46,4.46,0,0,0,1.34,1.06,3.39,3.39,0,0,0,1.6.42,2.24,2.24,0,0,0,1.5-.5,1.56,1.56,0,0,0,.58-1.23A2,2,0,0,0,694.5,85l-1.37-.54a4.68,4.68,0,0,1-1.89-1.25,2.71,2.71,0,0,1-.63-1.83,2.89,2.89,0,0,1,1-2.19,3.29,3.29,0,0,1,2.36-.91,4.69,4.69,0,0,1,3.37,1.28l-1,1.3a3.23,3.23,0,0,0-2.4-1,1.8,1.8,0,0,0-1.22.41,1.39,1.39,0,0,0-.13,2,3.2,3.2,0,0,0,1.18.71l1.39.56a3.31,3.31,0,0,1,2.44,3.32,3.14,3.14,0,0,1-1,2.43A3.85,3.85,0,0,1,693.81,90.13Z"/></svg>