<svg id="Layer_1" data-name="Layer 1" xmlns="http://www.w3.org/2000/svg" viewBox="0 0 980 240"><defs><style>.cls-1{fill:#d80201;}.cls-2{fill:#fff;}</style></defs><title>text</title><rect class="cls-1" x="50.65" y="104.54" width="186.99" height="30.19" rx="15.09" ry="15.09"/><path class="cls-2" d="M82.94,125.79a4.58,4.58,0,0,1-4-2.24l1.48-1.43a2.69,2.69,0,0,0,2.47,1.57A1.67,1.67,0,0,0,84.66,122c0-2.41-5.16-1.27-5.16-5.05a3.45,3.45,0,0,1,3.66-3.42,5.15,5.15,0,0,1,3.43,1.3l-1.2,1.57a2.38,2.38,0,0,0-1.9-1c-.76,0-1.64.48-1.64,1.32,0,2,5.16,1,5.16,5.11A3.79,3.79,0,0,1,82.94,125.79Z"/><path class="cls-2" d="M89,125.5V113.76h6.5v2H91.33v2.61h4v2h-4v3.17h4.21v2Z"/><path class="cls-2" d="M108.91,125.5l-4.19-5.26-.26.26v5h-2.29V113.76h2.29v5l4.31-5h2.89l-5,5.42,5.23,6.32Z"/><path class="cls-2" d="M121.34,125.5l-1-2.48h-4.79l-1.07,2.48H112l5.09-12h1.73l4.95,12ZM118,116.95l-1.71,4.23h3.36Z"/><path class="cls-2" d="M136.06,125.5l-1-7.24-3.24,7.4h-.63l-3.12-7.4-1.18,7.24h-2.31l2.18-12h1.57l3.2,7.68,3.35-7.68h1.57l2,12Z"/><path class="cls-2" d="M147.23,120.12c-1.14,1.23-2.94,1-4.47,1v4.35h-2.29V113.76h3.42a4.26,4.26,0,0,1,3.1.9,3.74,3.74,0,0,1,1.2,2.83A3.86,3.86,0,0,1,147.23,120.12Zm-2-4a2.74,2.74,0,0,0-1.67-.37h-.79v3.42h.93c1.14,0,2.13-.37,2.13-1.69A1.74,1.74,0,0,0,145.22,116.12Z"/><path class="cls-2" d="M157.14,125.5l-1-2.48h-4.79l-1.07,2.48h-2.43l5.09-12h1.73l4.95,12Zm-3.36-8.56-1.71,4.23h3.36Z"/><path class="cls-2" d="M170.42,125.73l-7.15-8.17v7.94H161v-12h1.58l7.15,8.17v-7.91H172v12Z"/><path class="cls-2" d="M178.25,124.45a3.13,3.13,0,0,1-2.64,1.34,4,4,0,0,1-2.75-1.11l1.39-1.67a1.37,1.37,0,0,0,1.13.65c1.29,0,1.18-1.41,1.18-2.32v-7.57h2.29v7.92A5,5,0,0,1,178.25,124.45Z"/><polygon class="cls-2" points="202.85 121.11 190.48 121.11 190.48 117.96 202.85 117.96 202.85 113.19 211.65 119.53 202.85 125.61 202.85 121.11"/></svg>