<svg id="Layer_1" data-name="Layer 1" xmlns="http://www.w3.org/2000/svg" viewBox="0 0 980 120"><defs><style>.cls-1{fill:#d4ac76;}</style></defs><title>text</title><path class="cls-1" d="M227.47,61V27h9.7a16.66,16.66,0,0,1,12,4.86,16.37,16.37,0,0,1,5,12.25,15.91,15.91,0,0,1-5.07,12.14A17.37,17.37,0,0,1,236.82,61Zm9.78-28.34h-3.88V55.32h3.93A9.79,9.79,0,0,0,244.81,52a11.54,11.54,0,0,0,3-8.1,11.21,11.21,0,0,0-3.07-8A10,10,0,0,0,237.25,32.66Z"/><path class="cls-1" d="M264.16,61V27h6.38V61Z"/><path class="cls-1" d="M278.77,33.1V27h28V33.1H296V61h-6.38V33.1Z"/><path class="cls-1" d="M312.78,33.1V27h28V33.1H330V61h-6.38V33.1Z"/><path class="cls-1" d="M388.29,61V46.79H373.72V61h-6.38V27h6.38V40.67h14.56V27h6.38V61Z"/><path class="cls-1" d="M402.59,61,415.7,27h5.76l13.07,34H428l-1.8-4.71H411L409.14,61Zm16-24.49-5.44,14.11H424Zm4.94-15.33a4.88,4.88,0,0,1-4.91,4.88,4.76,4.76,0,0,1-3.48-1.41,4.94,4.94,0,0,1,0-7,5,5,0,0,1,7,0A4.71,4.71,0,0,1,423.53,21.18Zm-6.16,1.28a1.74,1.74,0,0,0,1.28.53,1.67,1.67,0,0,0,1.25-.53,1.78,1.78,0,0,0,.51-1.28,1.74,1.74,0,0,0-.53-1.28,1.75,1.75,0,0,0-2.51,0,1.81,1.81,0,0,0,0,2.55Z"/><path class="cls-1" d="M442.49,61V27h6.38v27.9h12.5V61Z"/><path class="cls-1" d="M470.57,61V27h6.38v27.9h12.5V61Z"/><path class="cls-1" d="M498.64,61V27h11.19a10.25,10.25,0,0,1,7.44,2.84,9.39,9.39,0,0,1,2.93,7,8,8,0,0,1-3.82,6.83,9.47,9.47,0,0,1,3.77,3A7.2,7.2,0,0,1,521.56,51a9.34,9.34,0,0,1-3,7.21A10.66,10.66,0,0,1,511.07,61Zm10.45-28.34h-4.55V41.2h5.08A4.67,4.67,0,0,0,513,39.94a4.18,4.18,0,0,0,1.3-3.14,3.64,3.64,0,0,0-1.44-3A5.93,5.93,0,0,0,509.09,32.66Zm1,13.64h-5.52v9h5.39A5.51,5.51,0,0,0,513.77,54a4.25,4.25,0,0,0,1.41-3.29,4.17,4.17,0,0,0-1.33-3.23A5.42,5.42,0,0,0,510.06,46.3Z"/><path class="cls-1" d="M527.15,61l13.11-34H546L559.1,61h-6.56l-1.8-4.71H535.52L533.7,61Zm16-24.49-5.44,14.11h10.85Z"/><path class="cls-1" d="M567.06,61V27h13.31a11.47,11.47,0,0,1,8.19,3.09,10.58,10.58,0,0,1,3.27,8.07A10.21,10.21,0,0,1,589.39,45,11,11,0,0,1,583,48.66L592.18,61H585l-8.83-12.14h-2.75V61Zm12.32-28.34h-5.94V43.75h5.94a6.3,6.3,0,0,0,4.42-1.51,5.07,5.07,0,0,0,1.65-3.93,5.35,5.35,0,0,0-1.69-4A6.08,6.08,0,0,0,579.38,32.66Z"/><path class="cls-1" d="M598,61,611.1,27h5.76l13.07,34h-6.56l-1.8-4.71H606.36L604.54,61Zm16-24.49-5.44,14.11H619.4Z"/><path class="cls-1" d="M677,61V46.79H662.4V61H656V27h6.38V40.67H677V27h6.38V61Z"/><path class="cls-1" d="M714.46,46.61H701.87v8.71h13.82V61h-20.2V27h19.8v5.68H701.87v8.27h12.58Z"/><path class="cls-1" d="M726,61V27h6.16L742.7,43.75,753.35,27H760V61h-6.38V37.72l-.51-.07L742.6,53.93,732.31,37.86h.1V61Z"/></svg>