<svg id="Layer_1" data-name="Layer 1" xmlns="http://www.w3.org/2000/svg" viewBox="0 0 980 240"><defs><style>.cls-1{fill:#d80201;}</style></defs><title>text</title><path class="cls-1" d="M383,109.53v24.93h-5.85V109.53h-6.7v-5.08h19.3v5.08Z"/><path class="cls-1" d="M395.3,110a3.28,3.28,0,1,1,0-6.57,3.28,3.28,0,0,1,0,6.57Zm-2.74,24.43V115H398v19.48Z"/><path class="cls-1" d="M403.13,134.46v-33.7h5.44v33.7Z"/><path class="cls-1" d="M413.79,134.46v-33.7h5.44v33.7Z"/><path class="cls-1" d="M434.36,134.87h-2.52L421.89,115H428l5.13,11,5.13-11h6.12Z"/><path class="cls-1" d="M461,134.46V131.9a7.53,7.53,0,0,1-6.34,3.2c-5.85,0-9.58-4.86-9.58-10.44s3.73-10.3,9.45-10.3a8.12,8.12,0,0,1,6.48,3.1V115h5.49v19.48Zm-4.86-15.21a5.47,5.47,0,1,0,5.44,5.45A5.44,5.44,0,0,0,456.09,119.25Z"/><path class="cls-1" d="M471.66,134.46v-33.7h5.44v33.7Z"/><path class="cls-1" d="M499.2,119.66v14.8h-5.44v-14.8h-2.12V115h2.12v-6.25a9.5,9.5,0,0,1,.85-4.59,7.72,7.72,0,0,1,6.75-3.92,6.46,6.46,0,0,1,2.88.67v5a5.42,5.42,0,0,0-2.47-.72c-2.43,0-2.57,2.52-2.57,4.36V115h5v4.68Z"/><path class="cls-1" d="M516.89,135.09c-6.21,0-11.16-3.87-11.16-10.35s4.95-10.39,11.2-10.39S528,118.26,528,124.7,523.05,135.09,516.89,135.09Zm-4.72-23.76a3.24,3.24,0,1,1,0-6.48,3.24,3.24,0,1,1,0,6.48Zm4.68,7.92a5.47,5.47,0,1,0,5.54,5.49A5.51,5.51,0,0,0,516.84,119.25Zm4.68-7.92a3.28,3.28,0,0,1-3.24-3.24,3.24,3.24,0,1,1,3.24,3.24Z"/><path class="cls-1" d="M544.92,119.93a4.82,4.82,0,0,0-2.61-.68c-3.69,0-4.68,2.61-4.68,5.85v9.36h-5.44V115h5.44v2.92a6.36,6.36,0,0,1,8.05-3.1Z"/><path class="cls-1" d="M567.78,135.23a12.83,12.83,0,0,1-9.58-3.92l1.93-5a10.06,10.06,0,0,0,7.56,3.82,6,6,0,0,0,6-5.8c0-3.69-3.42-6-6.84-6a9.91,9.91,0,0,0-5.76,1.89h-.32l3.56-15.75h13.86v5.13h-9.9l-1.17,4.63a18,18,0,0,1,2.2-.18c6,0,10.21,4.59,10.21,10.48C579.52,131.31,574.21,135.23,567.78,135.23Z"/><path class="cls-1" d="M595.27,135.23c-8.28,0-11.61-8.73-11.61-15.75s3.29-15.79,11.61-15.79,11.61,8.68,11.61,15.75S603.6,135.23,595.27,135.23Zm0-26.37c-4.59,0-5.76,7.11-5.76,10.58s1.17,10.66,5.76,10.66,5.76-7.2,5.76-10.66S599.86,108.86,595.27,108.86Z"/><path class="cls-1" d="M632,135.23c-8.28,0-11.61-8.73-11.61-15.75s3.29-15.79,11.61-15.79,11.61,8.68,11.61,15.75S640.36,135.23,632,135.23Zm0-26.37c-4.59,0-5.76,7.11-5.76,10.58s1.17,10.66,5.76,10.66,5.76-7.2,5.76-10.66S636.63,108.86,632,108.86Z"/><path class="cls-1" d="M657.55,135.23c-8.28,0-11.61-8.73-11.61-15.75s3.29-15.79,11.61-15.79,11.61,8.68,11.61,15.75S665.88,135.23,657.55,135.23Zm0-26.37c-4.59,0-5.76,7.11-5.76,10.58s1.17,10.66,5.76,10.66,5.76-7.2,5.76-10.66S662.14,108.86,657.55,108.86Z"/><path class="cls-1" d="M683.07,135.23c-8.28,0-11.61-8.73-11.61-15.75s3.29-15.79,11.61-15.79,11.61,8.68,11.61,15.75S691.39,135.23,683.07,135.23Zm0-26.37c-4.59,0-5.76,7.11-5.76,10.58s1.17,10.66,5.76,10.66,5.76-7.2,5.76-10.66S687.66,108.86,683.07,108.86Z"/><path class="cls-1" d="M723.07,134.46l-7.33-8.37-.58.58v7.79h-5.44v-33.7h5.44v21.33l7.29-7.11h7.38l-9.13,8.55,9.85,10.93Z"/><path class="cls-1" d="M745.71,119.93a4.82,4.82,0,0,0-2.61-.68c-3.69,0-4.68,2.61-4.68,5.85v9.36H733V115h5.44v2.92a6.36,6.36,0,0,1,8.05-3.1Z"/></svg>