<svg id="Layer_1" data-name="Layer 1" xmlns="http://www.w3.org/2000/svg" viewBox="0 0 980 120"><defs><style>.cls-1{fill:#d4ac76;}</style></defs><title>text</title><path class="cls-1" d="M834.36,56.75v-10h3.31a3,3,0,0,1,2.2.84,2.78,2.78,0,0,1,.86,2.08,2.37,2.37,0,0,1-1.13,2,2.79,2.79,0,0,1,1.11.9,2.12,2.12,0,0,1,.42,1.28,2.76,2.76,0,0,1-.88,2.13,3.15,3.15,0,0,1-2.22.81Zm3.09-8.37H836.1V50.9h1.5a1.38,1.38,0,0,0,1-.37,1.23,1.23,0,0,0,.39-.93,1.08,1.08,0,0,0-.42-.89A1.75,1.75,0,0,0,837.44,48.38Zm.29,4H836.1v2.67h1.59a1.63,1.63,0,0,0,1.14-.38,1.26,1.26,0,0,0,.42-1,1.24,1.24,0,0,0-.39-1A1.61,1.61,0,0,0,837.73,52.41Z"/><path class="cls-1" d="M849.49,52.5h-3.72v2.57h4.08v1.68h-6v-10h5.85v1.68h-4v2.44h3.72Z"/><path class="cls-1" d="M855.32,56.88a4.83,4.83,0,0,1-1.9-.4,5,5,0,0,1-1.63-1.1L853,54a3.64,3.64,0,0,0,1.11.9,2.83,2.83,0,0,0,1.32.35,1.63,1.63,0,0,0,1.07-.35,1.08,1.08,0,0,0,.42-.87,1.49,1.49,0,0,0-1.1-1.39l-1.12-.45A4.3,4.3,0,0,1,853,51a2.56,2.56,0,0,1-.54-1.71,2.61,2.61,0,0,1,.85-1.91,2.91,2.91,0,0,1,2.13-.84,4.33,4.33,0,0,1,3.09,1.15l-1.11,1.4a2.59,2.59,0,0,0-2-.87,1.35,1.35,0,0,0-.9.29.9.9,0,0,0-.34.71.94.94,0,0,0,.27.69,2.66,2.66,0,0,0,.86.52l1.17.47a3.11,3.11,0,0,1,2.28,2.9,2.81,2.81,0,0,1-.95,2.2A3.66,3.66,0,0,1,855.32,56.88Z"/><path class="cls-1" d="M860.41,48.51V46.7h8.28v1.81h-3.2v8.24h-1.89V48.51Z"/><path class="cls-1" d="M868.78,56.75l3.88-10h1.7l3.86,10h-1.94l-.53-1.39h-4.5l-.54,1.39Zm3.86-11.08a.81.81,0,0,1-.61.27.83.83,0,0,1-.62-.27.9.9,0,0,1,.62-1.54.83.83,0,0,1,.61.26.87.87,0,0,1,.26.64A.91.91,0,0,1,872.64,45.67Zm.87,3.84-1.61,4.17h3.21Zm2.12-3.84a1,1,0,0,1-1.33,0A.86.86,0,0,1,874,45a.84.84,0,0,1,.28-.64,1,1,0,0,1,1.33,0,.84.84,0,0,1,.28.64A.86.86,0,0,1,875.63,45.67Z"/><path class="cls-1" d="M880.31,56.75v-10h1.88v8.24h3.69v1.81Z"/><path class="cls-1" d="M888.35,56.75v-10h1.88v8.24h3.69v1.81Z"/><path class="cls-1" d="M904.07,56.75l-3.84-10h2L905,53.93l2.73-7.22h1.91l-3.8,10Z"/><path class="cls-1" d="M909.81,56.75l3.88-10h1.7l3.86,10h-1.94l-.53-1.39h-4.5l-.54,1.39Zm4.73-7.24-1.61,4.17h3.21ZM916,45a1.44,1.44,0,0,1-1.45,1.44,1.41,1.41,0,0,1-1-.42,1.46,1.46,0,0,1,0-2.05,1.47,1.47,0,0,1,2.05,0A1.39,1.39,0,0,1,916,45Zm-1.82.38a.51.51,0,0,0,.38.16.49.49,0,0,0,.37-.16.53.53,0,0,0,.15-.38.51.51,0,0,0-.16-.38.52.52,0,0,0-.74,0,.53.53,0,0,0,0,.75Z"/><path class="cls-1" d="M921.34,56.75v-10h3.93a3.39,3.39,0,0,1,2.42.91,3.13,3.13,0,0,1,1,2.38,3,3,0,0,1-.72,2,3.24,3.24,0,0,1-1.87,1.07l2.7,3.65h-2.12L924,53.16h-.81v3.59ZM925,48.38h-1.75v3.28H925a1.86,1.86,0,0,0,1.31-.45,1.5,1.5,0,0,0,.49-1.16,1.58,1.58,0,0,0-.5-1.19A1.79,1.79,0,0,0,925,48.38Z"/><path class="cls-1" d="M849,71.75v-10h1.32L855.23,68V61.7h1.89v10h-1.26l-5-6.4v6.4Z"/><path class="cls-1" d="M865.76,61.7h2l-3.33,6v4.08h-1.89v-4l-3.37-6h2.07l2.27,4.17Z"/><path class="cls-1" d="M867.62,71.75l3.88-10h1.7l3.86,10h-1.94l-.53-1.39h-4.5l-.54,1.39Zm4.73-7.24-1.61,4.17h3.21Z"/><path class="cls-1" d="M884.25,71.75v-10h3.31a3,3,0,0,1,2.2.84,2.78,2.78,0,0,1,.86,2.08,2.37,2.37,0,0,1-1.13,2,2.79,2.79,0,0,1,1.11.9,2.12,2.12,0,0,1,.42,1.28,2.76,2.76,0,0,1-.88,2.13,3.15,3.15,0,0,1-2.22.81Zm3.09-8.37H886V65.9h1.5a1.38,1.38,0,0,0,1-.37,1.23,1.23,0,0,0,.39-.93,1.08,1.08,0,0,0-.42-.89A1.75,1.75,0,0,0,887.34,63.38Zm.29,4H886v2.67h1.59a1.63,1.63,0,0,0,1.14-.38,1.26,1.26,0,0,0,.42-1,1.24,1.24,0,0,0-.39-1A1.61,1.61,0,0,0,887.62,67.41Z"/><path class="cls-1" d="M903.52,66.72A5.21,5.21,0,1,1,902,63,5,5,0,0,1,903.52,66.72Zm-7.58,2.4a3.3,3.3,0,0,0,4.73,0,3.45,3.45,0,0,0,0-4.81,3.3,3.3,0,0,0-4.73,0,3.47,3.47,0,0,0,0,4.81Z"/><path class="cls-1" d="M906.14,71.75v-10h1.74v4.43l3.85-4.43h2.33l-3.55,4,3.62,6H912l-2.74-4.59-1.34,1.52v3.07Z"/></svg>