<svg id="Layer_1" data-name="Layer 1" xmlns="http://www.w3.org/2000/svg" viewBox="0 0 300 250"><defs><style>.cls-1{fill:#d4ac76;}</style></defs><title>text</title><path class="cls-1" d="M55.75,108.62a4.11,4.11,0,0,1-1.66-.36,4.4,4.4,0,0,1-1.41-1l.88-1a3.45,3.45,0,0,0,1,.81,2.68,2.68,0,0,0,1.23.32,1.73,1.73,0,0,0,1.15-.38,1.18,1.18,0,0,0,.44-1,1.55,1.55,0,0,0-1.12-1.45l-1.05-.42a3.62,3.62,0,0,1-1.45-1,2.1,2.1,0,0,1-.48-1.41,2.24,2.24,0,0,1,.73-1.68,2.56,2.56,0,0,1,1.82-.69,3.61,3.61,0,0,1,2.58,1l-.75,1a2.46,2.46,0,0,0-1.83-.8,1.41,1.41,0,0,0-1,.31,1,1,0,0,0-.36.82,1,1,0,0,0,.27.69,2.28,2.28,0,0,0,.9.55l1.07.43A2.53,2.53,0,0,1,58.65,106a2.46,2.46,0,0,1-.79,1.87A3,3,0,0,1,55.75,108.62Z"/><path class="cls-1" d="M66.59,104.6H62.94v2.72h3.91v1.18H61.69V99.61h5.09v1.18H62.94v2.63h3.65Z"/><path class="cls-1" d="M69.93,108.5V99.61h3.3a2.81,2.81,0,0,1,2,.77,2.66,2.66,0,0,1,.8,2,2.63,2.63,0,0,1-2.36,2.73l2.57,3.38H74.71l-2.55-3.39h-1v3.39Zm3.13-7.71H71.17V104h1.88a1.78,1.78,0,0,0,1.26-.44,1.5,1.5,0,0,0,.48-1.17,1.48,1.48,0,0,0-.49-1.13A1.72,1.72,0,0,0,73.06,100.79Z"/><path class="cls-1" d="M79.15,108.5V99.61h1.24v8.89Z"/><path class="cls-1" d="M88.94,104.6H85.28v2.72h3.91v1.18H84V99.61h5.08v1.18H85.28v2.63h3.66Z"/><path class="cls-1" d="M99.4,108.62a4.12,4.12,0,0,1-1.67-.36,4.52,4.52,0,0,1-1.41-1l.88-1a3.45,3.45,0,0,0,1,.81,2.68,2.68,0,0,0,1.23.32,1.71,1.71,0,0,0,1.15-.38,1.19,1.19,0,0,0,.45-1,1.56,1.56,0,0,0-1.13-1.45l-1-.42a3.69,3.69,0,0,1-1.45-1,2.1,2.1,0,0,1-.48-1.41,2.28,2.28,0,0,1,.73-1.68,2.56,2.56,0,0,1,1.82-.69,3.61,3.61,0,0,1,2.58,1l-.75,1a2.46,2.46,0,0,0-1.83-.8,1.37,1.37,0,0,0-.94.31,1,1,0,0,0-.37.82,1,1,0,0,0,.27.69,2.44,2.44,0,0,0,.9.55l1.07.43a2.53,2.53,0,0,1,1.87,2.54,2.43,2.43,0,0,1-.79,1.87A3,3,0,0,1,99.4,108.62Z"/><path class="cls-1" d="M104.22,100.79V99.61h7.2v1.18h-3v7.71H107.2v-7.71Z"/><path class="cls-1" d="M118.79,104.6h-3.66v2.72H119v1.18h-5.15V99.61H119v1.18h-3.85v2.63h3.66Z"/><path class="cls-1" d="M122.13,108.5V99.61h1.24v7.71H127v1.18Z"/><path class="cls-1" d="M129.75,108.5V99.61H131v7.71h3.66v1.18Z"/><path class="cls-1" d="M136.45,108.5,140,99.61h1.13l3.5,8.89h-1.38l-.53-1.37h-4.36l-.55,1.37Zm4.13-6.85-1.72,4.3h3.41Z"/><path class="cls-1" d="M151.09,108.5l3.57-8.89h1.13l3.5,8.89h-1.38l-.53-1.37H153l-.55,1.37Zm3.21-9.83a.56.56,0,0,1-.44.19.58.58,0,0,1-.44-.19.69.69,0,0,1-.18-.49.68.68,0,0,1,.18-.48.58.58,0,0,1,.44-.19.56.56,0,0,1,.44.19.65.65,0,0,1,.19.48A.66.66,0,0,1,154.3,98.67Zm.92,3L153.5,106h3.41Zm1.55-3a.58.58,0,0,1-.44.19.58.58,0,0,1-.45-.19.73.73,0,0,1-.17-.49.72.72,0,0,1,.17-.48.58.58,0,0,1,.45-.19.58.58,0,0,1,.44.19.68.68,0,0,1,.18.48A.69.69,0,0,1,156.77,98.67Z"/><path class="cls-1" d="M161.75,108.5V99.61h3.3a2.82,2.82,0,0,1,2,.77,2.75,2.75,0,0,1-1.57,4.74l2.58,3.38h-1.53L164,105.11h-1v3.39Zm3.14-7.71H163V104h1.88a1.75,1.75,0,0,0,1.25-.44,1.59,1.59,0,0,0,0-2.3A1.74,1.74,0,0,0,164.89,100.79Z"/><path class="cls-1" d="M176.8,108.5v-7.3l-1.67.85v-1.19l2.36-1.3H178v8.94Z"/><path class="cls-1" d="M182.54,108.5v-7.3l-1.67.85v-1.19l2.36-1.3h.55v8.94Z"/><path class="cls-1" d="M197.63,108.5v-3.85h-4.32v3.85h-1.24V99.61h1.24v3.85h4.32V99.61h1.25v8.89Z"/><path class="cls-1" d="M205.61,108.65a3.11,3.11,0,0,1-2.32-.93,3.24,3.24,0,0,1-.91-2.35V99.61h1.25v5.69a2.26,2.26,0,0,0,.53,1.55,1.8,1.8,0,0,0,1.45.61,1.88,1.88,0,0,0,1.47-.6,2.23,2.23,0,0,0,.54-1.55v-5.7h1.24v5.76a3.2,3.2,0,0,1-.91,2.35A3.11,3.11,0,0,1,205.61,108.65Z"/><path class="cls-1" d="M214.71,108.62a4.12,4.12,0,0,1-1.67-.36,4.52,4.52,0,0,1-1.41-1l.88-1a3.45,3.45,0,0,0,1,.81,2.68,2.68,0,0,0,1.23.32,1.71,1.71,0,0,0,1.15-.38,1.19,1.19,0,0,0,.45-1,1.56,1.56,0,0,0-1.13-1.45l-1-.42a3.69,3.69,0,0,1-1.45-1,2.1,2.1,0,0,1-.48-1.41,2.28,2.28,0,0,1,.73-1.68,2.56,2.56,0,0,1,1.82-.69,3.61,3.61,0,0,1,2.58,1l-.75,1a2.46,2.46,0,0,0-1.83-.8,1.37,1.37,0,0,0-.94.31,1,1,0,0,0-.37.82,1,1,0,0,0,.27.69,2.44,2.44,0,0,0,.9.55l1.07.43A2.53,2.53,0,0,1,217.6,106a2.43,2.43,0,0,1-.79,1.87A3,3,0,0,1,214.71,108.62Z"/><path class="cls-1" d="M225.51,108.5V99.61h1.28l2.86,4.74,2.91-4.74h1.22v8.89h-1.24v-6.57l0,0-2.86,4.59L226.83,102h-.08v6.53Z"/><path class="cls-1" d="M242.33,104.6h-3.65v2.72h3.91v1.18h-5.15V99.61h5.08v1.18h-3.84v2.63h3.65Z"/><path class="cls-1" d="M245.67,108.5V99.61h2.38a4.48,4.48,0,0,1,3.11,7.63A4.34,4.34,0,0,1,248,108.5Zm2.43-7.71h-1.19v6.53h1.22a2.86,2.86,0,0,0,2.19-1,3.24,3.24,0,0,0,.89-2.32,3.13,3.13,0,0,0-.92-2.31A3,3,0,0,0,248.1,100.79Z"/><path class="cls-1" d="M58.94,123.5v-3.85H54.62v3.85H53.37v-8.89h1.25v3.85h4.32v-3.85h1.24v8.89Z"/><path class="cls-1" d="M67.79,123.66a4.4,4.4,0,0,1-3.21-1.31,4.78,4.78,0,0,1,0-6.6,4.56,4.56,0,0,1,6.41,0,4.76,4.76,0,0,1,0,6.58A4.4,4.4,0,0,1,67.79,123.66Zm-2.33-2.18a3.21,3.21,0,0,0,4.66,0,3.39,3.39,0,0,0,.95-2.43,3.35,3.35,0,0,0-1-2.42,3.18,3.18,0,0,0-4.65,0,3.57,3.57,0,0,0,0,4.85Zm1.5-7.81a.6.6,0,0,1-.45.19.58.58,0,0,1-.44-.19.73.73,0,0,1-.17-.49.72.72,0,0,1,.17-.48.58.58,0,0,1,.44-.19.6.6,0,0,1,.45.19.68.68,0,0,1,.18.48A.69.69,0,0,1,67,113.67Zm2.46,0a.58.58,0,0,1-.44.19.56.56,0,0,1-.44-.19.69.69,0,0,1-.18-.49.68.68,0,0,1,.18-.48.56.56,0,0,1,.44-.19.58.58,0,0,1,.44.19.68.68,0,0,1,.18.48A.69.69,0,0,1,69.42,113.67Z"/><path class="cls-1" d="M81.21,119.64v-1.19h3v.62a4.57,4.57,0,0,1-4.6,4.58,4.31,4.31,0,0,1-3.24-1.33,4.79,4.79,0,0,1,0-6.56,4.31,4.31,0,0,1,3.24-1.33,4.9,4.9,0,0,1,1.87.36,4.47,4.47,0,0,1,1.52,1l-.92.93a3.16,3.16,0,0,0-2.47-1.15,3.11,3.11,0,0,0-2.36,1,3.59,3.59,0,0,0,0,4.84,3.11,3.11,0,0,0,2.36,1,3.14,3.14,0,0,0,2.13-.77,3.32,3.32,0,0,0,1.12-2Z"/><path class="cls-1" d="M92,123.5v-8.89h1.24v4.22l3.7-4.22h1.67l-3.14,3.53,3.22,5.36H97.19l-2.59-4.34-1.32,1.49v2.85Z"/><path class="cls-1" d="M104,123.5l-3.47-8.89H102l2.67,6.83,2.67-6.83h1.37l-3.48,8.89Z"/><path class="cls-1" d="M109.42,123.5l3.57-8.89h1.13l3.5,8.89h-1.38l-.53-1.37h-4.36l-.55,1.37Zm4.13-6.85-1.72,4.3h3.41Z"/><path class="cls-1" d="M120.08,123.5v-8.89h1.25v7.71H125v1.18Z"/><path class="cls-1" d="M127.71,123.5v-8.89H129v8.89Z"/><path class="cls-1" d="M131.42,115.79v-1.18h7.2v1.18h-3v7.71H134.4v-7.71Z"/><path class="cls-1" d="M146,119.6h-3.65v2.72h3.91v1.18H141.1v-8.89h5.08v1.18h-3.84v2.63H146Z"/><path class="cls-1" d="M148.39,115.79v-1.18h7.19v1.18h-3v7.71h-1.24v-7.71Z"/><path class="cls-1" d="M162.15,115.79v-1.18h7.2v1.18h-3v7.71h-1.24v-7.71Z"/><path class="cls-1" d="M171.82,123.5v-8.89h1.24v8.89Z"/><path class="cls-1" d="M176.71,123.5v-8.89H178v7.71h3.66v1.18Z"/><path class="cls-1" d="M184.33,123.5v-8.89h1.25v7.71h3.65v1.18Z"/><path class="cls-1" d="M196.77,123.5v-8.89h2.72a2.8,2.8,0,0,1,1.95.69,2.28,2.28,0,0,1,.78,1.79,2.11,2.11,0,0,1-1.06,1.91,2.19,2.19,0,0,1,1,.8,2.07,2.07,0,0,1,.36,1.2,2.32,2.32,0,0,1-.78,1.82,2.92,2.92,0,0,1-2,.68Zm2.59-7.71H198v2.71h1.58a1.34,1.34,0,0,0,1-.4,1.38,1.38,0,0,0,.39-1,1.12,1.12,0,0,0-.44-.93A1.82,1.82,0,0,0,199.36,115.79Zm.27,3.81H198v2.72h1.54a1.86,1.86,0,0,0,1.23-.38,1.29,1.29,0,0,0,.45-1,1.23,1.23,0,0,0-.41-1A1.71,1.71,0,0,0,199.63,119.6Z"/><path class="cls-1" d="M205.59,123.5v-8.89h3.3a2.81,2.81,0,0,1,2,.77,2.75,2.75,0,0,1-1.56,4.74l2.57,3.38h-1.53l-2.55-3.39h-1v3.39Zm3.13-7.71h-1.89V119h1.88a1.79,1.79,0,0,0,1.26-.44,1.5,1.5,0,0,0,.48-1.17,1.48,1.48,0,0,0-.49-1.13A1.74,1.74,0,0,0,208.72,115.79Z"/><path class="cls-1" d="M213.74,123.5l3.57-8.89h1.12l3.5,8.89h-1.37l-.54-1.37h-4.35l-.55,1.37Zm4.13-6.85-1.73,4.3h3.42Z"/><path class="cls-1" d="M229.36,123.5v-8.89h3a2.79,2.79,0,0,1,2.06.83,2.87,2.87,0,0,1,.83,2.11,2.76,2.76,0,0,1-.85,2.08,2.85,2.85,0,0,1-2.09.83H230.6v3Zm2.95-7.71H230.6v3.49h1.72a1.65,1.65,0,0,0,1.72-1.73,1.78,1.78,0,0,0-.49-1.26A1.68,1.68,0,0,0,232.31,115.79Z"/><path class="cls-1" d="M238.22,123.5v-8.89h3.3a2.78,2.78,0,0,1,2,.77,2.67,2.67,0,0,1,.81,2,2.7,2.7,0,0,1-.66,1.86,2.72,2.72,0,0,1-1.71.87l2.58,3.38H243l-2.55-3.39h-1v3.39Zm3.14-7.71h-1.89V119h1.88a1.75,1.75,0,0,0,1.25-.44,1.48,1.48,0,0,0,.49-1.17,1.51,1.51,0,0,0-.49-1.13A1.74,1.74,0,0,0,241.36,115.79Z"/><path class="cls-1" d="M247.45,123.5v-8.89h1.24v8.89Z"/><path class="cls-1" d="M254.5,123.62a4.07,4.07,0,0,1-1.66-.36,4.4,4.4,0,0,1-1.41-1l.87-1a3.63,3.63,0,0,0,1,.81,2.68,2.68,0,0,0,1.23.32,1.73,1.73,0,0,0,1.15-.38,1.21,1.21,0,0,0,.44-1,1.55,1.55,0,0,0-1.12-1.45l-1.05-.42a3.74,3.74,0,0,1-1.46-1,2.14,2.14,0,0,1-.47-1.41,2.24,2.24,0,0,1,.73-1.68,2.54,2.54,0,0,1,1.81-.69,3.58,3.58,0,0,1,2.58,1l-.74,1a2.48,2.48,0,0,0-1.84-.8,1.38,1.38,0,0,0-.94.31,1,1,0,0,0-.36.82,1,1,0,0,0,.26.69,2.41,2.41,0,0,0,.91.55l1.06.43a2.52,2.52,0,0,1,1.87,2.54,2.45,2.45,0,0,1-.78,1.87A3,3,0,0,1,254.5,123.62Z"/></svg>