<svg id="Layer_1" data-name="Layer 1" xmlns="http://www.w3.org/2000/svg" viewBox="0 0 300 250"><defs><style>.cls-1{fill:#d4ac76;}</style></defs><title>text</title><path class="cls-1" d="M101.79,168.87a3.65,3.65,0,0,1-4.87,0,3.17,3.17,0,0,1-1-2.36v-5.73h1.67v5.52a2,2,0,0,0,.46,1.37,1.75,1.75,0,0,0,2.53,0,2,2,0,0,0,.46-1.35v-5.54h1.67v5.73A3.17,3.17,0,0,1,101.79,168.87Z"/><path class="cls-1" d="M105.5,169.67v-8.89h3.19a2.93,2.93,0,0,1,2.2.89,3,3,0,0,1,.88,2.18,2.82,2.82,0,0,1-.9,2.14,3.13,3.13,0,0,1-2.21.85h-1.5v2.83Zm3-7.29h-1.38v3h1.41a1.57,1.57,0,0,0,1.11-.39,1.38,1.38,0,0,0,.43-1.07,1.46,1.46,0,0,0-.44-1.09A1.56,1.56,0,0,0,108.54,162.38Z"/><path class="cls-1" d="M114,169.67v-8.89h3.19a3,3,0,0,1,3.09,3.07,2.82,2.82,0,0,1-.9,2.14,3.13,3.13,0,0,1-2.21.85h-1.5v2.83Zm3.05-7.29h-1.38v3h1.4a1.59,1.59,0,0,0,1.12-.39,1.41,1.41,0,0,0,.42-1.07,1.45,1.45,0,0,0-.43-1.09A1.56,1.56,0,0,0,117,162.38Z"/><path class="cls-1" d="M121.65,162.38v-1.6H129v1.6h-2.83v7.29h-1.67v-7.29Z"/><path class="cls-1" d="M129.06,169.67l3.43-8.89H134l3.42,8.89h-1.72l-.47-1.23h-4l-.48,1.23Zm3.41-9.81a.74.74,0,0,1-1.09,0,.78.78,0,0,1-.23-.57.8.8,0,0,1,.22-.56.82.82,0,0,1,.56-.23.78.78,0,0,1,.54.23.84.84,0,0,1,0,1.13Zm.77,3.4L131.82,167h2.83Zm1.88-3.4a.82.82,0,0,1-.59.24.81.81,0,0,1-.59-.24.76.76,0,0,1,0-1.13.84.84,0,0,1,.59-.23.86.86,0,0,1,.59.23.79.79,0,0,1,0,1.13Z"/><path class="cls-1" d="M146.45,168.41a4.61,4.61,0,1,1,0-6.43l-1.17,1.14a2.79,2.79,0,0,0-2.11-.92,2.84,2.84,0,0,0-2.1.88,3.07,3.07,0,0,0,0,4.26,2.85,2.85,0,0,0,2.11.88,2.8,2.8,0,0,0,2.12-.93Z"/><path class="cls-1" d="M148.63,169.67v-8.89h1.54v3.92l3.41-3.92h2l-3.13,3.54,3.21,5.35h-1.93l-2.42-4.06L150.17,167v2.72Z"/><path class="cls-1" d="M167.81,169.67V166H164v3.72h-1.67v-8.89H164v3.57h3.8v-3.57h1.67v8.89Z"/><path class="cls-1" d="M178.07,168.87a3.65,3.65,0,0,1-4.87,0,3.17,3.17,0,0,1-1-2.36v-5.73h1.67v5.52a2,2,0,0,0,.46,1.37,1.56,1.56,0,0,0,1.26.54,1.58,1.58,0,0,0,1.27-.54,2,2,0,0,0,.46-1.35v-5.54H179v5.73A3.17,3.17,0,0,1,178.07,168.87Z"/><path class="cls-1" d="M184.17,169.78a4.4,4.4,0,0,1-1.68-.35,4.46,4.46,0,0,1-1.44-1l1.06-1.27a3.48,3.48,0,0,0,1,.8,2.63,2.63,0,0,0,1.17.31,1.41,1.41,0,0,0,1-.31.94.94,0,0,0,.37-.76,1.32,1.32,0,0,0-1-1.24l-1-.4a3.73,3.73,0,0,1-1.47-1,2.24,2.24,0,0,1-.48-1.51,2.29,2.29,0,0,1,.75-1.68,2.58,2.58,0,0,1,1.89-.75,3.83,3.83,0,0,1,2.74,1l-1,1.24a2.25,2.25,0,0,0-1.75-.77,1.2,1.2,0,0,0-.8.25.8.8,0,0,0-.3.63.82.82,0,0,0,.24.61,2.32,2.32,0,0,0,.76.46l1,.41a2.76,2.76,0,0,1,2,2.57,2.47,2.47,0,0,1-.84,1.94A3.23,3.23,0,0,1,184.17,169.78Z"/><path class="cls-1" d="M194.52,165.91h-3.29v2.27h3.61v1.49h-5.28v-8.89h5.17v1.48h-3.5v2.16h3.29Z"/><path class="cls-1" d="M197.31,169.67v-8.89h1.17l4.37,5.59v-5.59h1.67v8.89h-1.11L199,164v5.66Z"/></svg>