<?xml version="1.0" encoding="utf-8"?>
<!-- Generator: Adobe Illustrator 19.1.1, SVG Export Plug-In . SVG Version: 6.00 Build 0)  -->
<svg version="1.1" id="Layer_1" xmlns="http://www.w3.org/2000/svg" xmlns:xlink="http://www.w3.org/1999/xlink" x="0px" y="0px"
	 viewBox="0 0 300 250" style="enable-background:new 0 0 300 250;" xml:space="preserve">
<style type="text/css">
	.st0{fill:#D80201;}
	.st1{fill:#FFFFFF;}
</style>
<g>
	<path class="st0" d="M43,114c-2.5,2-5.2,2.7-8.4,2.7H28V93.3h6.7c6.9,0,12.6,4.4,12.6,11.7C47.2,108.4,45.7,111.8,43,114z M40,99.2
		c-1.8-1.6-3.9-1.9-6.2-1.9h-1.2v15.4h1.2c2.3,0,4.4-0.3,6.2-1.9c1.6-1.4,2.5-3.7,2.5-5.9S41.6,100.6,40,99.2z"/>
	<path class="st0" d="M58.1,117.2c-4.2,0-7.3-1.9-7.3-6.4v-9.3H55v8.6c0,2.1,0.9,3.5,3.1,3.5c2.2,0,3.1-1.4,3.1-3.5v-8.6h4.3v9.3
		C65.4,115.3,62.3,117.2,58.1,117.2z"/>
	<path class="st0" d="M82.6,105.2v11.5h-4.2v-11.5h-1.6v-3.6h1.6v-4.9c0-1.3,0.1-2.4,0.7-3.6c1-1.9,3.2-3,5.3-3
		c0.9,0,1.4,0.2,2.2,0.5v3.9c-0.6-0.3-1.2-0.6-1.9-0.6c-1.9,0-2,2-2,3.4v4.2h3.9v3.6H82.6z"/>
	<path class="st0" d="M96.4,117.2c-4.8,0-8.7-3-8.7-8.1c0-5.1,3.9-8.1,8.7-8.1c4.8,0,8.6,3,8.6,8.1
		C105,114.1,101.2,117.2,96.4,117.2z M96.3,104.8c-2.3,0-4.3,1.9-4.3,4.3c0,2.3,2,4.2,4.3,4.2c2.3,0,4.3-1.9,4.3-4.2
		C100.7,106.7,98.7,104.8,96.3,104.8z"/>
	<path class="st0" d="M118.2,105.4c-0.7-0.4-1.2-0.5-2-0.5c-2.9,0-3.6,2-3.6,4.5v7.3h-4.2v-15.2h4.2v2.3c1-1.7,2.4-2.8,4.4-2.8
		c0.7,0,1.2,0.1,1.9,0.3L118.2,105.4z"/>
	<path class="st0" d="M140.2,116.7v-8.3c0-1.8-0.3-3.7-2.5-3.7c-2.5,0-2.9,2.3-2.9,4.3v7.8h-4.2v-8.1c0-0.8,0-1.8-0.3-2.5
		c-0.4-0.9-1.3-1.5-2.3-1.5c-0.9,0-1.9,0.5-2.4,1.4c-0.5,0.8-0.5,2-0.5,2.9v7.8h-4.2v-15.2h4.2v1.7c1.3-1.4,2.7-2.2,4.6-2.2
		c2.2,0,3.6,0.9,4.7,2.8c1.2-1.8,2.8-2.8,5-2.8c1.6,0,3.3,0.7,4.2,2.2c0.7,1.1,0.8,2.4,0.8,3.7v9.8H140.2z"/>
	<path class="st0" d="M160.1,116.7v-2c-1.2,1.6-2.9,2.5-4.9,2.5c-4.6,0-7.5-3.8-7.5-8.1c0-4.2,2.9-8,7.4-8c2.1,0,3.7,0.8,5,2.4v-1.9
		h4.3v15.2H160.1z M156.3,104.8c-2.3,0-4.2,1.9-4.2,4.2c0,2.3,1.9,4.3,4.2,4.3c2.3,0,4.2-1.9,4.2-4.3
		C160.6,106.7,158.7,104.8,156.3,104.8z"/>
	<path class="st0" d="M178.4,105.4c-0.7-0.4-1.2-0.5-2-0.5c-2.9,0-3.6,2-3.6,4.5v7.3h-4.2v-15.2h4.2v2.3c1-1.7,2.4-2.8,4.4-2.8
		c0.7,0,1.2,0.1,1.9,0.3L178.4,105.4z"/>
	<path class="st0" d="M181.9,117.1c-1.5,0-2.7-1.2-2.7-2.7s1.2-2.7,2.7-2.7c1.5,0,2.7,1.2,2.7,2.7S183.4,117.1,181.9,117.1z"/>
	<path class="st0" d="M37.7,154.3h-2.4l-9.9-23.9h5l6.2,15.7l6.3-15.7h4.9L37.7,154.3z"/>
	<path class="st0" d="M52,134.7c-1.4,0-2.6-1.2-2.6-2.6s1.2-2.6,2.6-2.6c1.4,0,2.5,1.2,2.5,2.6S53.4,134.7,52,134.7z M49.8,153.7
		v-15.2h4.2v15.2H49.8z"/>
	<path class="st0" d="M76,154.2c-2.1,0-3.7-0.8-5-2.5v2h-4.2v-26.2H71v13c1.5-1.6,2.9-2.4,5.1-2.4c4.4,0,7.4,3.8,7.4,8
		C83.5,150.4,80.6,154.2,76,154.2z M74.9,141.8c-2.3,0-4.2,1.9-4.2,4.2c0,2.3,1.9,4.3,4.2,4.3s4.2-1.9,4.2-4.3
		C79.1,143.7,77.2,141.8,74.9,141.8z"/>
	<path class="st0" d="M90.3,161.8h-4.8l5.6-10.4l-7.2-12.9h4.9l4.6,8.6l4.3-8.6h4.8L90.3,161.8z"/>
	<path class="st0" d="M118.6,159.2c-1.6,1.9-4,2.7-6.4,2.7c-3.9,0-7.6-2.2-8.1-6.4h4.6c0.5,1.9,1.7,2.8,3.6,2.8
		c2.7,0,3.7-1.9,3.7-4.3v-2.3c-1.4,1.6-2.9,2.5-5.1,2.5c-4.5,0-7.2-3.6-7.2-7.9c0-4.3,2.8-8.3,7.4-8.3c2.2,0,3.6,0.8,4.9,2.5v-2h4.3
		v14.6C120.4,155.5,120.3,157.3,118.6,159.2z M112.4,141.8c-2.3,0-4.2,1.9-4.2,4.2c0,2.3,1.9,4.3,4.2,4.3s4.2-1.9,4.2-4.3
		C116.6,143.7,114.7,141.8,112.4,141.8z"/>
	<path class="st0" d="M138.5,159.2c-1.6,1.9-4,2.7-6.4,2.7c-3.9,0-7.6-2.2-8.1-6.4h4.6c0.5,1.9,1.7,2.8,3.6,2.8
		c2.7,0,3.7-1.9,3.7-4.3v-2.3c-1.4,1.6-2.9,2.5-5.1,2.5c-4.5,0-7.2-3.6-7.2-7.9c0-4.3,2.8-8.3,7.4-8.3c2.2,0,3.6,0.8,4.9,2.5v-2h4.3
		v14.6C140.2,155.5,140.1,157.3,138.5,159.2z M132.2,141.8c-2.3,0-4.2,1.9-4.2,4.2c0,2.3,1.9,4.3,4.2,4.3s4.2-1.9,4.2-4.3
		C136.5,143.7,134.6,141.8,132.2,141.8z"/>
	<path class="st0" d="M147.8,146.8c0.1,2.3,1.2,4.1,3.7,4.1c1.6,0,2.7-0.7,3.6-2l3.9,0.6c-1.3,3.3-4,4.7-7.5,4.7
		c-4.9,0-8.1-3.2-8.1-8.1c0-4.8,3.1-8.1,7.9-8.1c5,0,7.7,3.4,7.7,8.2v0.6H147.8z M151.5,141c-1.9,0-3.2,1.2-3.5,3h7.2
		C154.7,142.2,153.5,141,151.5,141z"/>
	<path class="st0" d="M172.3,142.4c-0.7-0.4-1.2-0.5-2-0.5c-2.9,0-3.6,2-3.6,4.5v7.3h-4.2v-15.2h4.2v2.3c1-1.7,2.4-2.8,4.4-2.8
		c0.7,0,1.2,0.1,1.9,0.3L172.3,142.4z"/>
	<path class="st0" d="M175.8,154.1c-1.5,0-2.7-1.2-2.7-2.7s1.2-2.7,2.7-2.7c1.5,0,2.7,1.2,2.7,2.7S177.3,154.1,175.8,154.1z"/>
</g>
</svg>
