<svg id="Layer_1" data-name="Layer 1" xmlns="http://www.w3.org/2000/svg" viewBox="0 0 320 320"><defs><style>.cls-1{fill:#d80201;}.cls-2{fill:#fff;}</style></defs><title>text</title><rect class="cls-1" x="84" y="252" width="148.67" height="24" rx="12"/><path class="cls-2" d="M109.67,268.89a3.65,3.65,0,0,1-3.21-1.78l1.18-1.13a2.14,2.14,0,0,0,2,1.24,1.33,1.33,0,0,0,1.44-1.31c0-1.92-4.1-1-4.1-4a2.74,2.74,0,0,1,2.91-2.72,4,4,0,0,1,2.73,1l-1,1.24a1.91,1.91,0,0,0-1.51-.75c-.6,0-1.3.38-1.3,1.05,0,1.58,4.1.8,4.1,4.06A3,3,0,0,1,109.67,268.89Z"/><path class="cls-2" d="M114.53,268.67v-9.35h5.17v1.59h-3.35V263h3.22v1.58h-3.22v2.52h3.35v1.59Z"/><path class="cls-2" d="M130.32,268.67,127,264.48l-.21.21v4H125v-9.35h1.82v3.95l3.43-3.95h2.3l-3.95,4.32,4.16,5Z"/><path class="cls-2" d="M140.21,268.67l-.8-2H135.6l-.86,2h-1.93l4.05-9.54h1.37l3.94,9.54Zm-2.68-6.81-1.36,3.36h2.68Z"/><path class="cls-2" d="M151.91,268.67l-.83-5.76-2.57,5.88H148l-2.48-5.88-.94,5.76h-1.83l1.74-9.51h1.24l2.55,6.1,2.66-6.1h1.25l1.56,9.51Z"/><path class="cls-2" d="M160.79,264.38c-.92,1-2.34.83-3.56.83v3.46h-1.82v-9.35h2.71a3.37,3.37,0,0,1,2.47.72,3,3,0,0,1,.95,2.25A3.1,3.1,0,0,1,160.79,264.38Zm-1.6-3.18a2.18,2.18,0,0,0-1.33-.29h-.63v2.71H158c.91,0,1.69-.29,1.69-1.34A1.39,1.39,0,0,0,159.19,261.2Z"/><path class="cls-2" d="M168.67,268.67l-.8-2h-3.81l-.85,2h-1.94l4-9.54h1.37l3.94,9.54ZM166,261.86l-1.36,3.36h2.68Z"/><path class="cls-2" d="M179.22,268.85l-5.68-6.5v6.32h-1.82v-9.56H173l5.68,6.5v-6.29h1.82v9.53Z"/><path class="cls-2" d="M185.45,267.83a2.49,2.49,0,0,1-2.1,1.06,3.16,3.16,0,0,1-2.18-.88l1.1-1.33a1.09,1.09,0,0,0,.9.52c1,0,.94-1.12.94-1.85v-6h1.82v6.31A4,4,0,0,1,185.45,267.83Z"/><polygon class="cls-2" points="205 265.17 195.17 265.17 195.17 262.67 205 262.67 205 258.88 212 263.92 205 268.75 205 265.17"/></svg>