<svg id="Layer_1" data-name="Layer 1" xmlns="http://www.w3.org/2000/svg" viewBox="0 0 300 250"><defs><style>.cls-1{fill:#d4ac76;}</style></defs><title>text</title><path class="cls-1" d="M113.71,90.68a5,5,0,0,1-3.63-1.48,5.41,5.41,0,0,1,0-7.46,5.15,5.15,0,0,1,7.24,0,5.36,5.36,0,0,1,0,7.44A5,5,0,0,1,113.71,90.68Zm-2.64-2.46a3.66,3.66,0,0,0,5.27,0,4,4,0,0,0,0-5.49,3.6,3.6,0,0,0-5.26,0,4,4,0,0,0,0,5.49Zm1.69-8.84a.65.65,0,0,1-1,0,.72.72,0,0,1-.2-.54.76.76,0,0,1,.2-.55.67.67,0,0,1,1,0,.77.77,0,0,1,.21.55A.73.73,0,0,1,112.76,79.38Zm2.79,0a.64.64,0,0,1-.5.23.66.66,0,0,1-.5-.23.77.77,0,0,1-.2-.54.81.81,0,0,1,.2-.55.68.68,0,0,1,.5-.22.67.67,0,0,1,.5.22.76.76,0,0,1,.2.55A.72.72,0,0,1,115.55,79.38Z"/><path class="cls-1" d="M122.34,90.5v-10h3.43a3.12,3.12,0,0,1,2.33.94,3.21,3.21,0,0,1,.94,2.39,3.16,3.16,0,0,1-1,2.35,3.28,3.28,0,0,1-2.36.94h-2V90.5Zm3.34-8.71h-1.93v3.94h1.94a1.85,1.85,0,0,0,1.94-2,2,2,0,0,0-.55-1.43A1.91,1.91,0,0,0,125.68,81.79Z"/><path class="cls-1" d="M132.37,90.5v-10h3.43a3.14,3.14,0,0,1,2.33.94,3.24,3.24,0,0,1,.93,2.39,3.16,3.16,0,0,1-1,2.35,3.28,3.28,0,0,1-2.36.94h-2V90.5Zm3.33-8.71h-1.93v3.94h1.94a1.85,1.85,0,0,0,1.95-2,2,2,0,0,0-.56-1.43A1.89,1.89,0,0,0,135.7,81.79Z"/><path class="cls-1" d="M147.93,86.09h-4.14v3.07h4.42V90.5h-5.82v-10h5.75v1.34h-4.35v3h4.14Z"/><path class="cls-1" d="M150.63,81.79V80.45h8.14v1.34H155.4V90.5H154V81.79Z"/><path class="cls-1" d="M167.26,90.5v-10h1.4v4.77l4.19-4.77h1.88l-3.54,4,3.63,6.06h-1.74l-2.92-4.9-1.5,1.68V90.5Z"/><path class="cls-1" d="M181.7,90.68a5,5,0,0,1-3.63-1.48,5.41,5.41,0,0,1,0-7.46,5.15,5.15,0,0,1,7.24,0,5.36,5.36,0,0,1,0,7.44A5,5,0,0,1,181.7,90.68Zm-2.64-2.46a3.66,3.66,0,0,0,5.27,0,4,4,0,0,0,0-5.49,3.6,3.6,0,0,0-5.26,0,4,4,0,0,0,0,5.49Zm1.69-8.84a.65.65,0,0,1-1,0,.72.72,0,0,1-.2-.54.76.76,0,0,1,.2-.55.67.67,0,0,1,1,0,.77.77,0,0,1,.21.55A.73.73,0,0,1,180.75,79.38Zm2.79,0a.66.66,0,0,1-1,0,.77.77,0,0,1-.2-.54.81.81,0,0,1,.2-.55.68.68,0,0,1,1,0,.81.81,0,0,1,.2.55A.77.77,0,0,1,183.54,79.38Z"/><path class="cls-1" d="M190.33,90.5v-10h3.43a3.12,3.12,0,0,1,2.33.94,3.21,3.21,0,0,1,.94,2.39,3.16,3.16,0,0,1-1,2.35,3.28,3.28,0,0,1-2.36.94h-2V90.5Zm3.34-8.71h-1.93v3.94h1.94a1.85,1.85,0,0,0,1.94-2,2,2,0,0,0-.55-1.43A1.91,1.91,0,0,0,193.67,81.79Z"/><path class="cls-1" d="M35.09,102.13v-1.25h6.83v1.25Z"/><path class="cls-1" d="M50.93,105.5v-10h3.43a3.14,3.14,0,0,1,2.33.94,3.24,3.24,0,0,1,.93,2.39,3.16,3.16,0,0,1-1,2.35,3.26,3.26,0,0,1-2.36.94h-2v3.43Zm3.33-8.71H52.33v3.94h2a1.85,1.85,0,0,0,1.94-2,2,2,0,0,0-.56-1.43A1.89,1.89,0,0,0,54.26,96.79Z"/><path class="cls-1" d="M61,105.5v-10h3.73a3.1,3.1,0,0,1,2.26.88,3.11,3.11,0,0,1-1.76,5.35l2.91,3.82H66.36l-2.89-3.83H62.35v3.83Zm3.54-8.71H62.35v3.63h2.13a2,2,0,0,0,1.42-.5,1.68,1.68,0,0,0,.55-1.32,1.74,1.74,0,0,0-.55-1.29A2,2,0,0,0,64.49,96.79Z"/><path class="cls-1" d="M71.38,105.5v-10h1.4v10Z"/><path class="cls-1" d="M79.35,105.63a4.68,4.68,0,0,1-1.88-.4,5,5,0,0,1-1.59-1.08l1-1.14a3.64,3.64,0,0,0,1.16.91,2.87,2.87,0,0,0,1.39.37,1.88,1.88,0,0,0,1.29-.43,1.33,1.33,0,0,0,.51-1.07A1.77,1.77,0,0,0,80,101.15l-1.19-.47a4.18,4.18,0,0,1-1.64-1.08A2.39,2.39,0,0,1,76.58,98a2.5,2.5,0,0,1,.83-1.9,2.83,2.83,0,0,1,2-.79,4.06,4.06,0,0,1,2.91,1.11l-.84,1.13a2.78,2.78,0,0,0-2.07-.9,1.62,1.62,0,0,0-1.07.35,1.16,1.16,0,0,0-.41.93,1.12,1.12,0,0,0,.3.78,2.75,2.75,0,0,0,1,.62l1.21.48a2.85,2.85,0,0,1,2.11,2.87,2.73,2.73,0,0,1-.89,2.12A3.34,3.34,0,0,1,79.35,105.63Z"/><path class="cls-1" d="M92.54,101.13V99.79h3.34v.71a5.17,5.17,0,0,1-5.2,5.17,4.9,4.9,0,0,1-3.66-1.5,5.42,5.42,0,0,1,0-7.42,4.87,4.87,0,0,1,3.66-1.51,5.41,5.41,0,0,1,3.84,1.58l-1,1.06a3.6,3.6,0,0,0-2.8-1.3A3.49,3.49,0,0,0,88,97.72a4,4,0,0,0,0,5.47,3.49,3.49,0,0,0,2.66,1.14,3.55,3.55,0,0,0,2.41-.88,3.8,3.8,0,0,0,1.27-2.32Z"/><path class="cls-1" d="M97.74,105.5l4-10H103l4,10h-1.55l-.61-1.55H99.92l-.63,1.55Zm4.67-7.74-2,4.85h3.86Z"/><path class="cls-1" d="M109.79,105.5v-10h3.73a3.1,3.1,0,0,1,2.26.88,3.11,3.11,0,0,1-1.76,5.35l2.91,3.82H115.2l-2.89-3.83H111.2v3.83Zm3.54-8.71H111.2v3.63h2.12a2,2,0,0,0,1.42-.5,1.68,1.68,0,0,0,.55-1.32,1.7,1.7,0,0,0-.55-1.29A2,2,0,0,0,113.33,96.79Z"/><path class="cls-1" d="M119,105.5l4-10h1.27l4,10h-1.55l-.61-1.55h-4.92l-.63,1.55Zm4.67-7.74-2,4.85h3.86Z"/><path class="cls-1" d="M131.06,105.5v-10h1l5.44,6.92V95.45h1.41v10h-.78l-5.65-7.17v7.17Z"/><path class="cls-1" d="M141.76,96.79V95.45h8.14v1.34h-3.37v8.71h-1.4V96.79Z"/><path class="cls-1" d="M152.69,105.5v-10h1.41v10Z"/><path class="cls-1" d="M163.2,102.13v-1.25H170v1.25Z"/><path class="cls-1" d="M179,105.5v-10h3.07a3.22,3.22,0,0,1,2.22.78,2.59,2.59,0,0,1,.87,2,2.39,2.39,0,0,1-1.19,2.16,2.5,2.5,0,0,1,1.08.9,2.38,2.38,0,0,1,.4,1.35,2.63,2.63,0,0,1-.88,2.06,3.31,3.31,0,0,1-2.24.77ZM182,96.79h-1.53v3h1.79a1.51,1.51,0,0,0,1.12-.44,1.55,1.55,0,0,0,.45-1.15,1.3,1.3,0,0,0-.5-1.06A2.07,2.07,0,0,0,182,96.79Zm.31,4.3h-1.84v3.07h1.75a2,2,0,0,0,1.38-.43,1.42,1.42,0,0,0,.51-1.15,1.38,1.38,0,0,0-.46-1.07A1.92,1.92,0,0,0,182.27,101.09Z"/><path class="cls-1" d="M194.54,101.09H190.4v3.07h4.42v1.34H189v-10h5.75v1.34H190.4v3h4.14Z"/><path class="cls-1" d="M197.24,96.79V95.45h8.14v1.34H202v8.71h-1.4V96.79Z"/><path class="cls-1" d="M206,105.5l4-10h1.26l4,10h-1.55l-.61-1.55h-4.92l-.63,1.55Zm4.67-7.74-2,4.85h3.87Z"/><path class="cls-1" d="M218.08,105.5v-10h1.41v8.71h4.13v1.34Z"/><path class="cls-1" d="M225.66,105.5l4-10H231l4,10h-1.55l-.61-1.55h-4.92l-.63,1.55Zm4.67-7.74-2,4.85h3.86Z"/><path class="cls-1" d="M245.93,105.63a4.68,4.68,0,0,1-1.88-.4,5,5,0,0,1-1.59-1.08l1-1.14a3.64,3.64,0,0,0,1.16.91,2.87,2.87,0,0,0,1.39.37,1.92,1.92,0,0,0,1.3-.43,1.35,1.35,0,0,0,.5-1.07,1.76,1.76,0,0,0-1.27-1.64l-1.19-.47a4.25,4.25,0,0,1-1.64-1.08,2.39,2.39,0,0,1-.54-1.59,2.5,2.5,0,0,1,.83-1.9,2.83,2.83,0,0,1,2-.79A4.06,4.06,0,0,1,249,96.43l-.84,1.13a2.78,2.78,0,0,0-2.07-.9A1.62,1.62,0,0,0,245,97a1.16,1.16,0,0,0-.41.93,1.12,1.12,0,0,0,.3.78,2.75,2.75,0,0,0,1,.62l1.21.48a2.85,2.85,0,0,1,2.11,2.87,2.75,2.75,0,0,1-.88,2.12A3.39,3.39,0,0,1,245.93,105.63Z"/><path class="cls-1" d="M258.19,101.09h-4.14v3.07h4.42v1.34h-5.82v-10h5.74v1.34h-4.34v3h4.14Z"/><path class="cls-1" d="M262,105.5v-10h1l5.44,6.92V95.45h1.4v10H269l-5.64-7.17v7.17Z"/></svg>