<svg id="Layer_1" data-name="Layer 1" xmlns="http://www.w3.org/2000/svg" viewBox="0 0 300 250"><defs><style>.cls-1{fill:#d4ac76;}</style></defs><title>text</title><path class="cls-1" d="M87.93,35.35a8.84,8.84,0,1,1-15.09-6.24,8.84,8.84,0,0,1,15.09,6.24ZM75.09,39.41a5.36,5.36,0,0,0,4,1.68,5.42,5.42,0,0,0,4-1.68,5.84,5.84,0,0,0,0-8.14,5.42,5.42,0,0,0-4-1.68,5.36,5.36,0,0,0-4,1.68,5.87,5.87,0,0,0,0,8.14Zm2.51-14.3a1.37,1.37,0,0,1-1,.45,1.41,1.41,0,0,1-1-.45A1.5,1.5,0,0,1,75.08,24a1.47,1.47,0,0,1,1.48-1.52,1.41,1.41,0,0,1,1,.44A1.5,1.5,0,0,1,78,24,1.54,1.54,0,0,1,77.6,25.11Zm5.06,0a1.63,1.63,0,0,1-2.25,0,1.49,1.49,0,0,1,0-2.17,1.66,1.66,0,0,1,2.25,0,1.49,1.49,0,0,1,0,2.17Z"/><path class="cls-1" d="M93.36,43.87v-17h6.1a5.77,5.77,0,0,1,5.91,5.87,5.38,5.38,0,0,1-1.72,4.1,6,6,0,0,1-4.24,1.62H96.55v5.42Zm5.83-13.95H96.55v5.7h2.68a3,3,0,0,0,2.14-.76,2.67,2.67,0,0,0,.81-2,2.81,2.81,0,0,0-.83-2.09A3,3,0,0,0,99.19,29.92Z"/><path class="cls-1" d="M110.61,43.87v-17h6.1a5.77,5.77,0,0,1,5.91,5.87,5.39,5.39,0,0,1-1.73,4.1,6,6,0,0,1-4.23,1.62H113.8v5.42Zm5.83-13.95H113.8v5.7h2.68a3.06,3.06,0,0,0,2.14-.76,2.67,2.67,0,0,0,.81-2,2.78,2.78,0,0,0-.84-2.09A2.94,2.94,0,0,0,116.44,29.92Z"/><path class="cls-1" d="M137.34,36.67h-6.29V41H138v2.84H127.86v-17h9.9V29.7h-6.71v4.13h6.29Z"/><path class="cls-1" d="M142.16,29.92V26.86h14v3.06h-5.41V43.87h-3.19V29.92Z"/><path class="cls-1" d="M170.54,43.87v-17h2.94v7.5l6.52-7.5h3.93l-6,6.78,6.14,10.23h-3.68l-4.63-7.77-2.28,2.57v5.2Z"/><path class="cls-1" d="M204.55,35.35A8.45,8.45,0,0,1,202,41.58a8.87,8.87,0,0,1-12.49,0,8.8,8.8,0,0,1,0-12.47,8.84,8.84,0,0,1,15.08,6.24Zm-12.84,4.06a5.36,5.36,0,0,0,4,1.68,5.42,5.42,0,0,0,4-1.68,5.84,5.84,0,0,0,0-8.14,5.42,5.42,0,0,0-4-1.68,5.36,5.36,0,0,0-4,1.68,5.87,5.87,0,0,0,0,8.14Zm2.51-14.3a1.37,1.37,0,0,1-1,.45,1.41,1.41,0,0,1-1.05-.45A1.5,1.5,0,0,1,191.7,24a1.47,1.47,0,0,1,1.48-1.52,1.41,1.41,0,0,1,1,.44,1.57,1.57,0,0,1,0,2.17Zm5.06,0a1.55,1.55,0,0,1-1.12.45,1.57,1.57,0,0,1-1.13-.45,1.49,1.49,0,0,1,0-2.17,1.6,1.6,0,0,1,1.13-.44,1.58,1.58,0,0,1,1.12.44,1.49,1.49,0,0,1,0,2.17Z"/><path class="cls-1" d="M210,43.87v-17h6.11a5.77,5.77,0,0,1,5.9,5.87,5.38,5.38,0,0,1-1.72,4.1A6,6,0,0,1,216,38.45h-2.86v5.42Zm5.83-13.95h-2.64v5.7h2.69a3,3,0,0,0,2.13-.76,2.67,2.67,0,0,0,.81-2,2.81,2.81,0,0,0-.83-2.09A3,3,0,0,0,215.81,29.92Z"/><path class="cls-1" d="M61.69,70.27v-17h6.1a5.77,5.77,0,0,1,5.91,5.87A5.38,5.38,0,0,1,72,63.23a6,6,0,0,1-4.24,1.62H64.88v5.42Zm5.83-13.95H64.88V62h2.68a3,3,0,0,0,2.14-.76,2.67,2.67,0,0,0,.81-2,2.81,2.81,0,0,0-.83-2.09A3,3,0,0,0,67.52,56.32Z"/><path class="cls-1" d="M78.94,70.27v-17h6.65a5.74,5.74,0,0,1,4.1,1.54,5.3,5.3,0,0,1,1.63,4,5.09,5.09,0,0,1-1.21,3.44,5.49,5.49,0,0,1-3.18,1.81l4.57,6.18H87.91L83.5,64.19H82.13v6.08ZM85.1,56.1h-3v5.54h3a3.17,3.17,0,0,0,2.21-.75,2.55,2.55,0,0,0,.82-2,2.68,2.68,0,0,0-.84-2A3.06,3.06,0,0,0,85.1,56.1Z"/><path class="cls-1" d="M96.85,70.27v-17H100v17Z"/><path class="cls-1" d="M111,70.49a8.07,8.07,0,0,1-3.2-.68A8.32,8.32,0,0,1,105.06,68l2-2.43A6.08,6.08,0,0,0,109,67.05a4.77,4.77,0,0,0,2.24.6,2.74,2.74,0,0,0,1.81-.59,1.83,1.83,0,0,0,.71-1.46,2.52,2.52,0,0,0-1.87-2.36L110,62.48a7.3,7.3,0,0,1-2.83-1.88,4.31,4.31,0,0,1-.91-2.89,4.42,4.42,0,0,1,1.44-3.23,4.91,4.91,0,0,1,3.61-1.42A7.34,7.34,0,0,1,116.5,55l-1.87,2.38a4.38,4.38,0,0,0-3.36-1.48,2.25,2.25,0,0,0-1.53.49,1.51,1.51,0,0,0-.57,1.2,1.58,1.58,0,0,0,.45,1.16,4.23,4.23,0,0,0,1.46.88l2,.79q3.78,1.52,3.85,4.91a4.74,4.74,0,0,1-1.6,3.72A6.18,6.18,0,0,1,111,70.49Z"/><path class="cls-1" d="M133.08,63.16V60.32h6.09l0,1.45a8.76,8.76,0,0,1-4.46,7.65,8.82,8.82,0,0,1-4.34,1.11,8.82,8.82,0,1,1,.05-17.64,8.38,8.38,0,0,1,6.33,2.74l-2.18,2.15a5.51,5.51,0,0,0-4.18-1.84,5.42,5.42,0,0,0-4.07,1.67,6,6,0,0,0,0,8.19,5.18,5.18,0,0,0,3.87,1.67A6,6,0,0,0,134,66.29a5.38,5.38,0,0,0,2-3.13Z"/><path class="cls-1" d="M142.06,70.27l6.55-17h2.88l6.54,17h-3.28l-.9-2.36h-7.61l-.91,2.36Zm8-12.25-2.72,7h5.42Z"/><path class="cls-1" d="M162.56,70.27v-17h6.65a5.74,5.74,0,0,1,4.1,1.54,5.31,5.31,0,0,1,1.64,4,5.1,5.1,0,0,1-1.22,3.44,5.46,5.46,0,0,1-3.18,1.81l4.57,6.18h-3.58l-4.42-6.08h-1.37v6.08Zm6.16-14.17h-3v5.54h3a3.17,3.17,0,0,0,2.21-.75,2.56,2.56,0,0,0,.83-2,2.69,2.69,0,0,0-.85-2A3.06,3.06,0,0,0,168.72,56.1Z"/><path class="cls-1" d="M178.58,70.27l6.55-17H188l6.54,17h-3.28l-.9-2.36h-7.61l-.91,2.36Zm8-12.25-2.72,7h5.42Z"/><path class="cls-1" d="M199.08,70.27v-17h2.24L209.68,64V53.26h3.19v17h-2.13l-8.47-10.83V70.27Z"/><path class="cls-1" d="M217.54,56.32V53.26h14v3.06h-5.41V70.27H223V56.32Z"/><path class="cls-1" d="M236.17,70.27v-17h3.19v17Z"/><path class="cls-1" d="M72.71,96.67v-17h5.6A5.12,5.12,0,0,1,82,81.08a4.69,4.69,0,0,1,1.46,3.51A4,4,0,0,1,81.59,88a4.71,4.71,0,0,1,1.88,1.52,3.61,3.61,0,0,1,.71,2.16,4.66,4.66,0,0,1-1.49,3.6,5.34,5.34,0,0,1-3.76,1.38ZM77.94,82.5H75.66v4.27H78.2a2.33,2.33,0,0,0,1.69-.63,2.07,2.07,0,0,0,.65-1.57,1.82,1.82,0,0,0-.71-1.51A3,3,0,0,0,77.94,82.5Zm.48,6.82H75.66v4.51h2.7a2.78,2.78,0,0,0,1.92-.64,2.13,2.13,0,0,0,.7-1.65,2.07,2.07,0,0,0-.66-1.61A2.68,2.68,0,0,0,78.42,89.32Z"/><path class="cls-1" d="M99.31,89.47H93v4.36h6.91v2.84H89.83v-17h9.9V82.5H93v4.13h6.29Z"/><path class="cls-1" d="M104.13,82.72V79.66h14v3.06h-5.41v14h-3.19v-14Z"/><path class="cls-1" d="M119.29,96.67l6.55-17h2.89l6.53,17H132l-.9-2.36h-7.61l-.91,2.36Zm8-12.25-2.72,7H130Z"/><path class="cls-1" d="M139.79,96.67v-17H143v14h6.25v3.06Z"/><path class="cls-1" d="M152.73,96.67l6.55-17h2.88l6.54,17h-3.28l-.9-2.36h-7.61L156,96.67Zm8-12.25-2.72,7h5.42Z"/><path class="cls-1" d="M187.43,96.89a8.65,8.65,0,0,1-6-2.53l2-2.43a6.08,6.08,0,0,0,1.88,1.52,4.74,4.74,0,0,0,2.24.6,2.75,2.75,0,0,0,1.81-.59,1.83,1.83,0,0,0,.71-1.46,2.53,2.53,0,0,0-1.87-2.36l-1.9-.76A7.33,7.33,0,0,1,183.54,87a4.32,4.32,0,0,1-.92-2.89,4.4,4.4,0,0,1,1.45-3.23,4.91,4.91,0,0,1,3.6-1.42,7.35,7.35,0,0,1,5.24,1.94L191,83.78a4.35,4.35,0,0,0-3.36-1.48,2.24,2.24,0,0,0-1.52.49,1.49,1.49,0,0,0-.58,1.2,1.58,1.58,0,0,0,.45,1.16,4.43,4.43,0,0,0,1.46.88l2,.79c2.53,1,3.81,2.65,3.86,4.91a4.77,4.77,0,0,1-1.6,3.72A6.18,6.18,0,0,1,187.43,96.89Z"/><path class="cls-1" d="M208.21,89.47h-6.29v4.36h6.91v2.84h-10.1v-17h9.9V82.5h-6.71v4.13h6.29Z"/><path class="cls-1" d="M214.55,96.67v-17h2.23l8.37,10.69V79.66h3.19v17h-2.13l-8.47-10.83V96.67Z"/></svg>