<?xml version="1.0" encoding="utf-8"?>
<!-- Generator: Adobe Illustrator 19.1.1, SVG Export Plug-In . SVG Version: 6.00 Build 0)  -->
<svg version="1.1" id="Layer_1" xmlns="http://www.w3.org/2000/svg" xmlns:xlink="http://www.w3.org/1999/xlink" x="0px" y="0px"
	 viewBox="0 0 728 90" style="enable-background:new 0 0 728 90;" xml:space="preserve">
<style type="text/css">
	.st0{fill:#D4AC76;}
</style>
<g>
	<path class="st0" d="M241.4,65.5h-3.7v2.7h3.9v1.2h-5.2v-8.9h5.1v1.2h-3.8v2.6h3.7V65.5z"/>
	<path class="st0" d="M243.7,61.7v-1.2h7.2v1.2h-3v7.7h-1.2v-7.7H243.7z"/>
	<path class="st0" d="M252.7,61.7v-1.2h7.2v1.2h-3v7.7h-1.2v-7.7H252.7z"/>
	<path class="st0" d="M273,69.4v-3.9h-4.3v3.9h-1.2v-8.9h1.2v3.9h4.3v-3.9h1.2v8.9H273z"/>
	<path class="st0" d="M281,69.6c-0.9,0-1.7-0.3-2.3-0.9s-0.9-1.4-0.9-2.3v-5.8h1.2v5.7c0,0.6,0.2,1.1,0.5,1.6
		c0.4,0.4,0.8,0.6,1.5,0.6c0.6,0,1.1-0.2,1.5-0.6c0.4-0.4,0.5-0.9,0.5-1.6v-5.7h1.2v5.8c0,0.9-0.3,1.7-0.9,2.3
		C282.7,69.2,281.9,69.6,281,69.6z"/>
	<path class="st0" d="M290,69.5c-0.6,0-1.1-0.1-1.7-0.4s-1-0.6-1.4-1l0.9-1c0.3,0.3,0.6,0.6,1,0.8s0.8,0.3,1.2,0.3
		c0.5,0,0.9-0.1,1.1-0.4s0.4-0.6,0.4-0.9c0-0.7-0.4-1.1-1.1-1.5l-1-0.4c-0.7-0.3-1.1-0.6-1.5-1c-0.3-0.4-0.5-0.8-0.5-1.4
		c0-0.7,0.2-1.2,0.7-1.7s1.1-0.7,1.8-0.7c1,0,1.9,0.3,2.6,1l-0.7,1c-0.5-0.5-1.1-0.8-1.8-0.8c-0.4,0-0.7,0.1-0.9,0.3
		c-0.2,0.2-0.4,0.5-0.4,0.8c0,0.3,0.1,0.5,0.3,0.7c0.2,0.2,0.5,0.4,0.9,0.5l1.1,0.4c1.3,0.5,1.9,1.4,1.9,2.5c0,0.8-0.3,1.4-0.8,1.9
		C291.6,69.3,290.9,69.5,290,69.5z"/>
	<path class="st0" d="M300.9,69.4v-8.9h4.9v1.2h-3.6v2.8h3.2v1.2h-3.2v3.7H300.9z"/>
	<path class="st0" d="M312.4,69.6c-1.3,0-2.3-0.4-3.2-1.3s-1.3-2-1.3-3.3s0.4-2.4,1.3-3.3s1.9-1.3,3.2-1.3c1.2,0,2.3,0.4,3.2,1.3
		c0.9,0.9,1.3,2,1.3,3.3s-0.4,2.4-1.3,3.3C314.7,69.1,313.7,69.6,312.4,69.6z M310.1,67.4c0.6,0.7,1.4,1,2.3,1c0.9,0,1.7-0.3,2.3-1
		c0.6-0.7,1-1.5,1-2.4c0-0.9-0.3-1.8-1-2.4c-0.6-0.7-1.4-1-2.3-1c-0.9,0-1.7,0.3-2.3,1c-0.6,0.7-1,1.5-1,2.4
		C309.1,65.9,309.5,66.7,310.1,67.4z M311.6,59.6c-0.1,0.1-0.3,0.2-0.4,0.2c-0.2,0-0.3-0.1-0.4-0.2c-0.1-0.1-0.2-0.3-0.2-0.5
		s0.1-0.4,0.2-0.5c0.1-0.1,0.3-0.2,0.4-0.2c0.2,0,0.3,0.1,0.4,0.2c0.1,0.1,0.2,0.3,0.2,0.5S311.7,59.4,311.6,59.6z M314,59.6
		c-0.1,0.1-0.3,0.2-0.4,0.2c-0.2,0-0.3-0.1-0.4-0.2c-0.1-0.1-0.2-0.3-0.2-0.5s0.1-0.4,0.2-0.5c0.1-0.1,0.3-0.2,0.4-0.2
		c0.2,0,0.3,0.1,0.4,0.2c0.1,0.1,0.2,0.3,0.2,0.5S314.2,59.4,314,59.6z"/>
	<path class="st0" d="M320.1,69.4v-8.9h3.3c0.8,0,1.5,0.3,2,0.8c0.5,0.5,0.8,1.2,0.8,2c0,0.7-0.2,1.4-0.7,1.9
		c-0.4,0.5-1,0.8-1.7,0.9l2.6,3.4h-1.5l-2.6-3.4h-1v3.4H320.1z M323.2,61.7h-1.9v3.2h1.9c0.5,0,0.9-0.1,1.3-0.4
		c0.3-0.3,0.5-0.7,0.5-1.2c0-0.4-0.2-0.8-0.5-1.1C324.1,61.9,323.7,61.7,323.2,61.7z"/>
	<path class="st0" d="M333.1,69.4l3.6-8.9h1.1l3.5,8.9h-1.4l-0.5-1.4H335l-0.6,1.4H333.1z M337.2,62.6l-1.7,4.3h3.4L337.2,62.6z"/>
	<path class="st0" d="M343.8,69.4v-8.9h1.2v7.7h3.7v1.2H343.8z"/>
	<path class="st0" d="M351.4,69.4v-8.9h1.2v7.7h3.7v1.2H351.4z"/>
	<path class="st0" d="M358.1,69.4l3.6-8.9h1.1l3.5,8.9h-1.4l-0.5-1.4H360l-0.6,1.4H358.1z M362.2,62.6l-1.7,4.3h3.4L362.2,62.6z"/>
	<path class="st0" d="M372.7,69.4l3.6-8.9h1.1l3.5,8.9h-1.4L379,68h-4.4l-0.6,1.4H372.7z M376.9,62.6l-1.7,4.3h3.4L376.9,62.6z"/>
	<path class="st0" d="M385.8,69.5c-0.6,0-1.1-0.1-1.7-0.4c-0.5-0.2-1-0.6-1.4-1l0.9-1c0.3,0.3,0.6,0.6,1,0.8s0.8,0.3,1.2,0.3
		c0.5,0,0.9-0.1,1.1-0.4c0.3-0.3,0.4-0.6,0.4-0.9c0-0.7-0.4-1.1-1.1-1.5l-1-0.4c-0.7-0.3-1.1-0.6-1.5-1c-0.3-0.4-0.5-0.8-0.5-1.4
		c0-0.7,0.2-1.2,0.7-1.7c0.5-0.5,1.1-0.7,1.8-0.7c1,0,1.9,0.3,2.6,1l-0.7,1c-0.5-0.5-1.1-0.8-1.8-0.8c-0.4,0-0.7,0.1-0.9,0.3
		c-0.2,0.2-0.4,0.5-0.4,0.8c0,0.3,0.1,0.5,0.3,0.7c0.2,0.2,0.5,0.4,0.9,0.5l1.1,0.4c1.3,0.5,1.9,1.4,1.9,2.5c0,0.8-0.3,1.4-0.8,1.9
		S386.7,69.5,385.8,69.5z"/>
	<path class="st0" d="M391.7,69.4v-8.9h3c0.8,0,1.5,0.3,2.1,0.8c0.5,0.6,0.8,1.3,0.8,2.1c0,0.8-0.3,1.5-0.8,2.1s-1.3,0.8-2.1,0.8
		H393v3H391.7z M394.7,61.7H393v3.5h1.7c0.5,0,0.9-0.2,1.2-0.5c0.3-0.3,0.5-0.7,0.5-1.3c0-0.5-0.2-0.9-0.5-1.3
		C395.6,61.9,395.2,61.7,394.7,61.7z"/>
	<path class="st0" d="M405.5,65.5h-3.7v2.7h3.9v1.2h-5.2v-8.9h5.1v1.2h-3.8v2.6h3.7V65.5z"/>
	<path class="st0" d="M408.8,69.4v-8.9h1.2v4.2l3.7-4.2h1.7l-3.1,3.5l3.2,5.4H414l-2.6-4.3l-1.3,1.5v2.9H408.8z"/>
	<path class="st0" d="M417.4,61.7v-1.2h7.2v1.2h-3v7.7h-1.2v-7.7H417.4z"/>
	<path class="st0" d="M432,65.5h-3.7v2.7h3.9v1.2h-5.2v-8.9h5.1v1.2h-3.8v2.6h3.7V65.5z"/>
	<path class="st0" d="M435.3,69.4v-8.9h3.3c0.8,0,1.5,0.3,2,0.8c0.5,0.5,0.8,1.2,0.8,2c0,0.7-0.2,1.4-0.7,1.9
		c-0.4,0.5-1,0.8-1.7,0.9l2.6,3.4h-1.5l-2.6-3.4h-1v3.4H435.3z M438.4,61.7h-1.9v3.2h1.9c0.5,0,0.9-0.1,1.3-0.4
		c0.3-0.3,0.5-0.7,0.5-1.2c0-0.4-0.2-0.8-0.5-1.1C439.3,61.9,438.9,61.7,438.4,61.7z"/>
	<path class="st0" d="M448.3,69.4l3.6-8.9h1.1l3.5,8.9h-1.4l-0.5-1.4h-4.4l-0.5,1.4H448.3z M452.5,62.6l-1.7,4.3h3.4L452.5,62.6z"/>
	<path class="st0" d="M460.8,69.4l-3.5-8.9h1.4l2.7,6.8l2.7-6.8h1.4l-3.5,8.9H460.8z"/>
	<path class="st0" d="M472.8,69.4v-8.9h2.4c1.2,0,2.2,0.4,3.1,1.3c0.9,0.9,1.3,1.9,1.3,3.1c0,1.3-0.4,2.4-1.3,3.2
		c-0.9,0.8-1.9,1.3-3.2,1.3H472.8z M475.2,61.7h-1.2v6.5h1.2c0.9,0,1.6-0.3,2.2-1c0.6-0.6,0.9-1.4,0.9-2.3s-0.3-1.7-0.9-2.3
		C476.8,62,476.1,61.7,475.2,61.7z"/>
	<path class="st0" d="M482.7,69.4v-8.9h1.2v8.9H482.7z"/>
	<path class="st0" d="M493.1,65.5v-1.2h3V65c0,1.3-0.5,2.4-1.4,3.3c-0.9,0.9-2,1.3-3.2,1.3c-1.3,0-2.4-0.4-3.2-1.3
		c-0.9-0.9-1.3-2-1.3-3.3s0.4-2.4,1.3-3.3c0.9-0.9,1.9-1.3,3.2-1.3c0.7,0,1.3,0.1,1.9,0.4c0.6,0.2,1.1,0.6,1.5,1l-0.9,0.9
		c-0.7-0.8-1.5-1.2-2.5-1.2c-0.9,0-1.7,0.3-2.4,1c-0.6,0.7-0.9,1.5-0.9,2.4s0.3,1.8,0.9,2.4c0.6,0.7,1.4,1,2.4,1
		c0.8,0,1.5-0.3,2.1-0.8c0.6-0.5,1-1.2,1.1-2.1H493.1z"/>
</g>
</svg>
