<svg id="Layer_1" data-name="Layer 1" xmlns="http://www.w3.org/2000/svg" viewBox="0 0 980 240"><defs><style>.cls-1{fill:#d80201;}.cls-2{fill:#fff;}</style></defs><title>text</title><rect class="cls-1" x="50.65" y="104.54" width="186.99" height="30.19" rx="15.09"/><path class="cls-2" d="M104.68,125.5V113.76H107v9.75h3.61v2Z"/><path class="cls-2" d="M120.74,125.5l-1-2.48h-4.79l-1.07,2.48h-2.43l5.09-12h1.72l5,12Zm-5.39-13a1.28,1.28,0,0,1-1.27-1.26,1.27,1.27,0,1,1,1.27,1.26Zm2,4.48-1.7,4.22H119Zm1.92-4.48a1.29,1.29,0,0,1-1.27-1.26,1.27,1.27,0,1,1,1.27,1.26Z"/><path class="cls-2" d="M127.83,125.79a4.58,4.58,0,0,1-4-2.24l1.48-1.43a2.7,2.7,0,0,0,2.47,1.57,1.67,1.67,0,0,0,1.81-1.65c0-2.42-5.16-1.27-5.16-5.06a3.44,3.44,0,0,1,3.66-3.41,5.15,5.15,0,0,1,3.44,1.3l-1.2,1.57a2.37,2.37,0,0,0-1.9-1c-.76,0-1.64.47-1.64,1.32,0,2,5.16,1,5.16,5.1A3.79,3.79,0,0,1,127.83,125.79Z"/><path class="cls-2" d="M149.23,125.5l-1-7.23L145,125.66h-.63l-3.12-7.39L140,125.5h-2.31l2.19-12h1.56l3.21,7.68,3.34-7.68h1.57l2,12Z"/><path class="cls-2" d="M153.63,125.5V113.76h6.5v2h-4.21v2.61H160v2h-4.05v3.16h4.21v2Z"/><path class="cls-2" d="M168.09,125.5l-3.17-4.71h-.28v4.71h-2.29V113.76h3.4a4.78,4.78,0,0,1,3,.85,3.42,3.42,0,0,1,1.16,2.64,3.79,3.79,0,0,1-.67,2.14,3,3,0,0,1-2,1.17l3.69,4.94Zm-2.77-9.87h-.68v3.54h.65c1.18,0,2.25-.43,2.25-1.78S166.5,115.63,165.32,115.63Z"/><polygon class="cls-2" points="202.85 121.11 190.48 121.11 190.48 117.96 202.85 117.96 202.85 113.19 211.65 119.53 202.85 125.61 202.85 121.11"/></svg>