<svg id="Layer_1" data-name="Layer 1" xmlns="http://www.w3.org/2000/svg" viewBox="0 0 980 120"><defs><style>.cls-1{fill:#d4ac76;}</style></defs><title>text</title><path class="cls-1" d="M306.85,90V80.46l-2.17,1.11V80l3.08-1.69h.71V90Z"/><path class="cls-1" d="M314.34,90V80.46l-2.18,1.11V80l3.08-1.69H316V90Z"/><path class="cls-1" d="M334,90V85h-5.64v5h-1.62V78.39h1.62v5H334v-5h1.62V90Z"/><path class="cls-1" d="M344.44,90.18a4.05,4.05,0,0,1-3-1.22,4.2,4.2,0,0,1-1.18-3.06V78.39h1.62V85.8a3,3,0,0,0,.69,2,2.35,2.35,0,0,0,1.9.8,2.42,2.42,0,0,0,1.91-.78,3,3,0,0,0,.7-2V78.39h1.62V85.9A4.2,4.2,0,0,1,347.49,89,4.05,4.05,0,0,1,344.44,90.18Z"/><path class="cls-1" d="M356.3,90.13a5.39,5.39,0,0,1-2.17-.46,5.82,5.82,0,0,1-1.84-1.25l1.14-1.31a4.73,4.73,0,0,0,1.34,1.06,3.45,3.45,0,0,0,1.61.42,2.2,2.2,0,0,0,1.49-.5,1.53,1.53,0,0,0,.58-1.23A2,2,0,0,0,357,85l-1.37-.54a4.8,4.8,0,0,1-1.9-1.25,2.76,2.76,0,0,1-.62-1.83,2.89,2.89,0,0,1,1-2.19,3.26,3.26,0,0,1,2.36-.91,4.71,4.71,0,0,1,3.37,1.28l-1,1.3a3.21,3.21,0,0,0-2.39-1,1.84,1.84,0,0,0-1.23.41,1.34,1.34,0,0,0-.47,1.07,1.31,1.31,0,0,0,.34.9,3.38,3.38,0,0,0,1.18.71l1.4.56c1.69.68,2.5,1.79,2.43,3.32a3.16,3.16,0,0,1-1,2.43A3.85,3.85,0,0,1,356.3,90.13Z"/><path class="cls-1" d="M370.39,90V78.39h1.67l3.73,6.18,3.8-6.18h1.59V90h-1.62V81.42l-.05,0-3.74,6-3.65-5.91H372V90Z"/><path class="cls-1" d="M392.34,84.9h-4.77v3.54h5.1V90H386V78.39h6.63v1.54h-5v3.42h4.77Z"/><path class="cls-1" d="M396.69,90V78.39h3.11a5.83,5.83,0,0,1,4.05,9.94A5.64,5.64,0,0,1,399.74,90Zm3.17-10h-1.55v8.51h1.59a3.74,3.74,0,0,0,2.86-1.25,4.28,4.28,0,0,0,1.16-3,4.14,4.14,0,0,0-1.2-3A3.86,3.86,0,0,0,399.86,79.93Z"/><path class="cls-1" d="M423.21,90V85h-5.64v5H416V78.39h1.62v5h5.64v-5h1.62V90Z"/><path class="cls-1" d="M434.75,90.19a5.71,5.71,0,0,1-4.18-1.71,6.24,6.24,0,0,1,0-8.6,5.91,5.91,0,0,1,8.35,0,6.18,6.18,0,0,1,0,8.58A5.68,5.68,0,0,1,434.75,90.19Zm-3-2.84a4.19,4.19,0,0,0,6.07,0,4.66,4.66,0,0,0,0-6.34,4.18,4.18,0,0,0-6.06,0,4.64,4.64,0,0,0,0,6.34Zm1.95-10.19a.77.77,0,0,1-.58.25.76.76,0,0,1-.58-.25,1,1,0,0,1,0-1.26.77.77,0,0,1,.58-.26.78.78,0,0,1,.58.26,1,1,0,0,1,0,1.26Zm3.21,0a.76.76,0,0,1-.58.25.72.72,0,0,1-.57-.25.95.95,0,0,1,0-1.26.73.73,0,0,1,.57-.26.77.77,0,0,1,.58.26,1,1,0,0,1,0,1.26Z"/><path class="cls-1" d="M452.26,84.94V83.4h3.86v.81a6,6,0,0,1-6,6,5.66,5.66,0,0,1-4.23-1.74,6.24,6.24,0,0,1,0-8.56,5.69,5.69,0,0,1,4.23-1.73,6.28,6.28,0,0,1,2.44.48,6,6,0,0,1,2,1.34l-1.2,1.23A4.23,4.23,0,0,0,447,81a4.67,4.67,0,0,0,0,6.32,4,4,0,0,0,3.08,1.31,4.14,4.14,0,0,0,2.78-1,4.37,4.37,0,0,0,1.46-2.68Z"/><path class="cls-1" d="M466.38,90V78.39H468v5.5l4.83-5.5H475L470.91,83l4.2,7h-2l-3.38-5.66L468,86.26V90Z"/><path class="cls-1" d="M482,90l-4.52-11.59h1.82l3.47,8.91,3.48-8.91h1.79L483.54,90Z"/><path class="cls-1" d="M489.06,90l4.65-11.59h1.47L499.74,90H498l-.7-1.78h-5.68L490.85,90Zm5.38-8.93-2.25,5.6h4.45Z"/><path class="cls-1" d="M503,90V78.39h1.62v10h4.77V90Z"/><path class="cls-1" d="M512.91,90V78.39h1.62V90Z"/><path class="cls-1" d="M517.75,79.93V78.39h9.39v1.54h-3.88V90h-1.62v-10Z"/><path class="cls-1" d="M536.76,84.9H532v3.54h5.1V90h-6.72V78.39H537v1.54h-5v3.42h4.77Z"/><path class="cls-1" d="M539.88,79.93V78.39h9.39v1.54h-3.89V90h-1.62v-10Z"/><path class="cls-1" d="M557.83,79.93V78.39h9.39v1.54h-3.88V90h-1.62v-10Z"/><path class="cls-1" d="M570.45,90V78.39h1.62V90Z"/><path class="cls-1" d="M576.82,90V78.39h1.62v10h4.77V90Z"/><path class="cls-1" d="M586.77,90V78.39h1.62v10h4.77V90Z"/><path class="cls-1" d="M603,90V78.39h3.55a3.72,3.72,0,0,1,2.55.89,3,3,0,0,1,1,2.35,2.75,2.75,0,0,1-1.38,2.49,2.89,2.89,0,0,1,1.25,1,2.68,2.68,0,0,1,.46,1.56,3,3,0,0,1-1,2.37,3.76,3.76,0,0,1-2.59.89Zm3.38-10H604.6v3.53h2.07a1.71,1.71,0,0,0,1.28-.52,1.76,1.76,0,0,0,.52-1.33,1.48,1.48,0,0,0-.58-1.22A2.4,2.4,0,0,0,606.36,79.93Zm.36,5H604.6v3.54h2a2.38,2.38,0,0,0,1.59-.5,1.74,1.74,0,0,0,.06-2.56A2.25,2.25,0,0,0,606.72,84.9Z"/><path class="cls-1" d="M614.49,90V78.39h4.3a3.59,3.59,0,0,1,2.61,1,3.8,3.8,0,0,1,.18,5,3.42,3.42,0,0,1-2.21,1.13L622.72,90h-2l-3.33-4.42h-1.29V90Zm4.09-10h-2.47v4.19h2.45a2.32,2.32,0,0,0,1.64-.58,2,2,0,0,0,.63-1.52,1.93,1.93,0,0,0-.64-1.48A2.21,2.21,0,0,0,618.58,79.93Z"/><path class="cls-1" d="M625.12,90l4.66-11.59h1.46L635.81,90H634l-.7-1.78h-5.69L626.92,90Zm5.39-8.93-2.26,5.6h4.46Z"/><path class="cls-1" d="M645.49,90V78.39h4a3.64,3.64,0,0,1,2.69,1.08,3.74,3.74,0,0,1,1.08,2.76,3.63,3.63,0,0,1-1.11,2.71A3.76,3.76,0,0,1,649.39,86h-2.28v4Zm3.85-10h-2.23v4.55h2.25a2.14,2.14,0,0,0,2.24-2.25,2.29,2.29,0,0,0-.64-1.65A2.2,2.2,0,0,0,649.34,79.93Z"/><path class="cls-1" d="M657.06,90V78.39h4.3a3.59,3.59,0,0,1,2.61,1,3.8,3.8,0,0,1,.18,5,3.42,3.42,0,0,1-2.21,1.13L665.29,90h-2L660,85.56h-1.29V90Zm4.08-10h-2.46v4.19h2.45a2.32,2.32,0,0,0,1.64-.58A2,2,0,0,0,663.4,82a1.93,1.93,0,0,0-.64-1.48A2.22,2.22,0,0,0,661.14,79.93Z"/><path class="cls-1" d="M669.09,90V78.39h1.62V90Z"/><path class="cls-1" d="M678.29,90.13a5.39,5.39,0,0,1-2.17-.46,5.71,5.71,0,0,1-1.84-1.25l1.14-1.31a4.59,4.59,0,0,0,1.34,1.06,3.42,3.42,0,0,0,1.6.42,2.21,2.21,0,0,0,1.5-.5,1.53,1.53,0,0,0,.58-1.23A2,2,0,0,0,679,85l-1.37-.54a4.8,4.8,0,0,1-1.9-1.25,2.71,2.71,0,0,1-.62-1.83,2.92,2.92,0,0,1,.95-2.19,3.3,3.3,0,0,1,2.37-.91,4.71,4.71,0,0,1,3.37,1.28l-1,1.3a3.21,3.21,0,0,0-2.39-1,1.84,1.84,0,0,0-1.23.41,1.34,1.34,0,0,0-.47,1.07,1.31,1.31,0,0,0,.34.9,3.29,3.29,0,0,0,1.18.71l1.39.56c1.69.68,2.51,1.79,2.44,3.32a3.16,3.16,0,0,1-1,2.43A3.87,3.87,0,0,1,678.29,90.13Z"/></svg>