<?xml version="1.0" encoding="utf-8"?>
<!-- Generator: Adobe Illustrator 19.1.1, SVG Export Plug-In . SVG Version: 6.00 Build 0)  -->
<svg version="1.1" id="Layer_1" xmlns="http://www.w3.org/2000/svg" xmlns:xlink="http://www.w3.org/1999/xlink" x="0px" y="0px"
	 viewBox="0 0 728 90" style="enable-background:new 0 0 728 90;" xml:space="preserve">
<style type="text/css">
	.st0{fill:#D4AC76;}
</style>
<g>
	<path class="st0" d="M616.9,45v-7.7h2.5c0.7,0,1.2,0.2,1.7,0.6c0.4,0.4,0.7,1,0.7,1.6c0,0.6-0.3,1.2-0.9,1.6
		c0.4,0.2,0.6,0.4,0.9,0.7s0.3,0.6,0.3,1c0,0.7-0.2,1.2-0.7,1.6c-0.5,0.4-1,0.6-1.7,0.6H616.9z M619.3,38.6h-1v1.9h1.2
		c0.3,0,0.6-0.1,0.8-0.3c0.2-0.2,0.3-0.4,0.3-0.7c0-0.3-0.1-0.5-0.3-0.7C620,38.6,619.7,38.6,619.3,38.6z M619.5,41.7h-1.3v2h1.2
		c0.4,0,0.7-0.1,0.9-0.3c0.2-0.2,0.3-0.4,0.3-0.7c0-0.3-0.1-0.5-0.3-0.7S619.9,41.7,619.5,41.7z"/>
	<path class="st0" d="M628.6,41.7h-2.9v2h3.1V45h-4.6v-7.7h4.5v1.3h-3v1.9h2.9V41.7z"/>
	<path class="st0" d="M633.1,45.1c-0.5,0-1-0.1-1.5-0.3c-0.5-0.2-0.9-0.5-1.3-0.8l0.9-1.1c0.2,0.3,0.5,0.5,0.9,0.7
		c0.3,0.2,0.7,0.3,1,0.3s0.6-0.1,0.8-0.3c0.2-0.2,0.3-0.4,0.3-0.7c0-0.5-0.3-0.8-0.8-1.1l-0.9-0.3c-0.6-0.2-1-0.5-1.3-0.9
		c-0.3-0.3-0.4-0.8-0.4-1.3c0-0.5,0.2-1,0.7-1.5c0.4-0.4,1-0.6,1.6-0.6c1,0,1.8,0.3,2.4,0.9l-0.9,1.1c-0.4-0.4-0.9-0.7-1.5-0.7
		c-0.3,0-0.5,0.1-0.7,0.2c-0.2,0.1-0.3,0.3-0.3,0.5c0,0.2,0.1,0.4,0.2,0.5c0.1,0.1,0.4,0.3,0.7,0.4l0.9,0.4c1.1,0.5,1.7,1.2,1.8,2.2
		c0,0.7-0.2,1.3-0.7,1.7C634.5,44.9,633.9,45.1,633.1,45.1z"/>
	<path class="st0" d="M637,38.7v-1.4h6.4v1.4h-2.5V45h-1.5v-6.3H637z"/>
	<path class="st0" d="M643.4,45l3-7.7h1.3l3,7.7h-1.5l-0.4-1.1h-3.5l-0.4,1.1H643.4z M646.4,36.5c-0.1,0.1-0.3,0.2-0.5,0.2
		c-0.2,0-0.3-0.1-0.5-0.2c-0.1-0.1-0.2-0.3-0.2-0.5s0.1-0.4,0.2-0.5c0.1-0.1,0.3-0.2,0.5-0.2c0.2,0,0.3,0.1,0.5,0.2
		c0.1,0.1,0.2,0.3,0.2,0.5S646.5,36.3,646.4,36.5z M647.1,39.4l-1.2,3.2h2.5L647.1,39.4z M648.7,36.5c-0.1,0.1-0.3,0.2-0.5,0.2
		s-0.4-0.1-0.5-0.2c-0.1-0.1-0.2-0.3-0.2-0.5s0.1-0.4,0.2-0.5c0.1-0.1,0.3-0.2,0.5-0.2s0.4,0.1,0.5,0.2c0.1,0.1,0.2,0.3,0.2,0.5
		S648.8,36.3,648.7,36.5z"/>
	<path class="st0" d="M652.3,45v-7.7h1.5v6.3h2.8V45H652.3z"/>
	<path class="st0" d="M658.5,45v-7.7h1.5v6.3h2.8V45H658.5z"/>
	<path class="st0" d="M670.6,45l-3-7.7h1.5l2.1,5.6l2.1-5.6h1.5l-2.9,7.7H670.6z"/>
	<path class="st0" d="M675,45l3-7.7h1.3l3,7.7h-1.5l-0.4-1.1h-3.5l-0.4,1.1H675z M678.6,39.4l-1.2,3.2h2.5L678.6,39.4z M679.7,36
		c0,0.3-0.1,0.6-0.3,0.8s-0.5,0.3-0.8,0.3c-0.3,0-0.6-0.1-0.8-0.3c-0.2-0.2-0.3-0.5-0.3-0.8s0.1-0.6,0.3-0.8
		c0.2-0.2,0.5-0.3,0.8-0.3c0.3,0,0.6,0.1,0.8,0.3S679.7,35.6,679.7,36z M678.3,36.2c0.1,0.1,0.2,0.1,0.3,0.1s0.2,0,0.3-0.1
		c0.1-0.1,0.1-0.2,0.1-0.3s0-0.2-0.1-0.3s-0.2-0.1-0.3-0.1c-0.1,0-0.2,0-0.3,0.1c-0.1,0.1-0.1,0.2-0.1,0.3S678.3,36.2,678.3,36.2z"
		/>
	<path class="st0" d="M683.8,45v-7.7h3c0.7,0,1.4,0.2,1.9,0.7c0.5,0.5,0.7,1.1,0.7,1.8c0,0.6-0.2,1.1-0.6,1.6
		c-0.4,0.4-0.9,0.7-1.4,0.8l2.1,2.8h-1.6l-2-2.8h-0.6V45H683.8z M686.6,38.6h-1.3v2.5h1.3c0.4,0,0.8-0.1,1-0.3
		c0.3-0.2,0.4-0.5,0.4-0.9s-0.1-0.7-0.4-0.9S687.1,38.6,686.6,38.6z"/>
	<path class="st0" d="M690.8,38.7v-1.4h6.4v1.4h-2.5V45h-1.5v-6.3H690.8z"/>
	<path class="st0" d="M630.5,56v-7.7h1.4l2.4,3.8l2.4-3.8h1.5V56h-1.4v-5.3l-0.1,0l-2.4,3.7l-2.3-3.7h0V56H630.5z"/>
	<path class="st0" d="M639.7,56l3-7.7h1.3l3,7.7h-1.5l-0.4-1.1h-3.5l-0.4,1.1H639.7z M643.4,50.4l-1.2,3.2h2.5L643.4,50.4z"/>
	<path class="st0" d="M653.2,52.8v-1.3h2.8l0,0.7c0,0.8-0.2,1.4-0.6,2.1s-0.9,1.1-1.5,1.4s-1.3,0.5-2,0.5c-1.1,0-2.1-0.4-2.9-1.2
		c-0.8-0.8-1.2-1.7-1.2-2.8s0.4-2.1,1.2-2.8c0.8-0.8,1.7-1.2,2.9-1.2c1.1,0,2.1,0.4,2.9,1.2l-1,1c-0.5-0.6-1.2-0.8-1.9-0.8
		s-1.4,0.3-1.8,0.8c-0.5,0.5-0.7,1.1-0.7,1.9c0,0.7,0.2,1.4,0.7,1.9s1.1,0.8,1.8,0.8s1.3-0.2,1.7-0.5s0.8-0.8,0.9-1.4H653.2z"/>
	<path class="st0" d="M656.8,56l3-7.7h1.3l3,7.7h-1.5l-0.4-1.1h-3.5l-0.4,1.1H656.8z M660.5,50.4l-1.2,3.2h2.5L660.5,50.4z"/>
	<path class="st0" d="M667.9,56.1c-0.5,0-1-0.1-1.5-0.3c-0.5-0.2-0.9-0.5-1.3-0.8l0.9-1.1c0.2,0.3,0.5,0.5,0.9,0.7
		c0.3,0.2,0.7,0.3,1,0.3s0.6-0.1,0.8-0.3c0.2-0.2,0.3-0.4,0.3-0.7c0-0.5-0.3-0.8-0.8-1.1l-0.9-0.3c-0.6-0.2-1-0.5-1.3-0.9
		c-0.3-0.3-0.4-0.8-0.4-1.3c0-0.5,0.2-1,0.7-1.5c0.4-0.4,1-0.6,1.6-0.6c1,0,1.8,0.3,2.4,0.9l-0.9,1.1c-0.4-0.4-0.9-0.7-1.5-0.7
		c-0.3,0-0.5,0.1-0.7,0.2c-0.2,0.1-0.3,0.3-0.3,0.5c0,0.2,0.1,0.4,0.2,0.5c0.1,0.1,0.4,0.3,0.7,0.4l0.9,0.4c1.1,0.5,1.7,1.2,1.8,2.2
		c0,0.7-0.2,1.3-0.7,1.7C669.4,55.9,668.7,56.1,667.9,56.1z"/>
	<path class="st0" d="M672.6,56v-7.7h1.5V56H672.6z"/>
	<path class="st0" d="M676.6,56v-7.7h1l3.8,4.9v-4.9h1.5V56h-1l-3.9-4.9V56H676.6z"/>
</g>
</svg>
