<svg id="Layer_1" data-name="Layer 1" xmlns="http://www.w3.org/2000/svg" viewBox="0 0 980 120"><defs><style>.cls-1{fill:#d4ac76;}</style></defs><title>text</title><path class="cls-1" d="M854.27,55.85a4.1,4.1,0,0,1-5.5,0,3.56,3.56,0,0,1-1.09-2.66V46.7h1.89v6.24a2.32,2.32,0,0,0,.51,1.55,2,2,0,0,0,2.87,0,2.29,2.29,0,0,0,.52-1.53V46.7h1.88v6.49A3.59,3.59,0,0,1,854.27,55.85Z"/><path class="cls-1" d="M858.46,56.75v-10h3.61a3.43,3.43,0,0,1,3.49,3.47,3.17,3.17,0,0,1-1,2.42,3.53,3.53,0,0,1-2.51,1h-1.69v3.2Zm3.44-8.24h-1.56v3.37h1.59a1.77,1.77,0,0,0,1.26-.45,1.57,1.57,0,0,0,.48-1.21,1.63,1.63,0,0,0-.49-1.23A1.77,1.77,0,0,0,861.9,48.51Z"/><path class="cls-1" d="M868.07,56.75v-10h3.6a3.42,3.42,0,0,1,3.49,3.47,3.17,3.17,0,0,1-1,2.42,3.51,3.51,0,0,1-2.5,1H870v3.2Zm3.44-8.24H870v3.37h1.59a1.77,1.77,0,0,0,1.26-.45,1.57,1.57,0,0,0,.48-1.21,1.67,1.67,0,0,0-.49-1.23A1.77,1.77,0,0,0,871.51,48.51Z"/><path class="cls-1" d="M876.72,48.51V46.7H885v1.81h-3.19v8.24h-1.89V48.51Z"/><path class="cls-1" d="M885.1,56.75l3.87-10h1.7l3.87,10H892.6l-.54-1.39h-4.49L887,56.75ZM889,45.67a.78.78,0,0,1-.61.26.82.82,0,0,1-.62-.26.91.91,0,0,1-.26-.65.87.87,0,0,1,.88-.89.81.81,0,0,1,.61.26.85.85,0,0,1,.25.63A.9.9,0,0,1,889,45.67Zm.87,3.84-1.6,4.17h3.2Zm2.12-3.84a.89.89,0,0,1-.66.26.91.91,0,0,1-.67-.26.88.88,0,0,1-.28-.65.84.84,0,0,1,.28-.63.91.91,0,0,1,.67-.26.89.89,0,0,1,.66.26.81.81,0,0,1,.28.63A.85.85,0,0,1,891.94,45.67Z"/><path class="cls-1" d="M904.75,55.33A5,5,0,0,1,901,56.92a5.09,5.09,0,0,1-3.71-1.52,5.21,5.21,0,1,1,7.41-7.33l-1.33,1.28a3.29,3.29,0,0,0-4.76,0,3.29,3.29,0,0,0-1,2.4,3.33,3.33,0,0,0,1,2.41,3.32,3.32,0,0,0,4.79-.06Z"/><path class="cls-1" d="M907.22,56.75v-10H909v4.43l3.85-4.43h2.33l-3.55,4,3.63,6h-2.17l-2.74-4.59L909,53.68v3.07Z"/><path class="cls-1" d="M863.53,71.75v-4.2h-4.3v4.2h-1.89v-10h1.89v4h4.3v-4h1.88v10Z"/><path class="cls-1" d="M875.12,70.85a4.1,4.1,0,0,1-5.5,0,3.6,3.6,0,0,1-1.09-2.66V61.7h1.89v6.24a2.27,2.27,0,0,0,.52,1.55,1.76,1.76,0,0,0,1.43.61,1.78,1.78,0,0,0,1.43-.6,2.24,2.24,0,0,0,.52-1.53V61.7h1.88v6.49A3.59,3.59,0,0,1,875.12,70.85Z"/><path class="cls-1" d="M882,71.88a4.69,4.69,0,0,1-1.89-.4,4.84,4.84,0,0,1-1.63-1.1L879.69,69a3.49,3.49,0,0,0,1.11.9,2.78,2.78,0,0,0,1.32.35,1.64,1.64,0,0,0,1.08-.34,1.1,1.1,0,0,0,.41-.87,1.48,1.48,0,0,0-1.1-1.39l-1.12-.45A4.38,4.38,0,0,1,879.72,66a2.58,2.58,0,0,1-.54-1.71,2.61,2.61,0,0,1,.85-1.91,2.92,2.92,0,0,1,2.13-.84,4.35,4.35,0,0,1,3.1,1.15l-1.11,1.4a2.61,2.61,0,0,0-2-.87,1.37,1.37,0,0,0-.9.29.91.91,0,0,0-.34.71.93.93,0,0,0,.27.69,2.72,2.72,0,0,0,.86.52l1.17.46a3.13,3.13,0,0,1,2.28,2.9,2.8,2.8,0,0,1-1,2.2A3.62,3.62,0,0,1,882,71.88Z"/><path class="cls-1" d="M893.71,67.5H890v2.57h4.08v1.68h-6v-10H894v1.68h-4v2.44h3.71Z"/><path class="cls-1" d="M896.87,71.75v-10h1.32L903.14,68V61.7H905v10h-1.26l-5-6.4v6.4Z"/></svg>