<svg id="Layer_1" data-name="Layer 1" xmlns="http://www.w3.org/2000/svg" viewBox="0 0 980 120"><defs><style>.cls-1{fill:#d4ac76;}</style></defs><title>text</title><path class="cls-1" d="M228.76,90.13a5.43,5.43,0,0,1-2.17-.46,5.77,5.77,0,0,1-1.83-1.25l1.14-1.31a4.55,4.55,0,0,0,1.33,1.06,3.45,3.45,0,0,0,1.61.42,2.24,2.24,0,0,0,1.5-.5,1.56,1.56,0,0,0,.58-1.23,2,2,0,0,0-1.47-1.9l-1.37-.54a4.8,4.8,0,0,1-1.9-1.25,2.76,2.76,0,0,1-.62-1.83,2.89,2.89,0,0,1,1-2.19,3.28,3.28,0,0,1,2.36-.91,4.69,4.69,0,0,1,3.37,1.28l-1,1.3a3.23,3.23,0,0,0-2.4-1,1.8,1.8,0,0,0-1.22.41,1.39,1.39,0,0,0-.13,2,3.2,3.2,0,0,0,1.18.71l1.39.56a3.31,3.31,0,0,1,2.44,3.32,3.14,3.14,0,0,1-1,2.43A3.85,3.85,0,0,1,228.76,90.13Z"/><path class="cls-1" d="M242.9,84.9h-4.77v3.54h5.1V90h-6.72V78.39h6.63v1.54h-5v3.42h4.77Z"/><path class="cls-1" d="M247.25,90V78.39h4.31a3.59,3.59,0,0,1,2.61,1,3.58,3.58,0,0,1-2,6.17L255.49,90h-2l-3.33-4.42h-1.29V90Zm4.09-10h-2.47v4.19h2.45a2.3,2.3,0,0,0,1.64-.58A1.93,1.93,0,0,0,253.6,82a2,2,0,0,0-.64-1.48A2.25,2.25,0,0,0,251.34,79.93Z"/><path class="cls-1" d="M259.28,90V78.39h1.62V90Z"/><path class="cls-1" d="M272.05,84.9h-4.77v3.54h5.1V90h-6.72V78.39h6.63v1.54h-5v3.42h4.77Z"/><path class="cls-1" d="M285.69,90.13a5.39,5.39,0,0,1-2.17-.46,5.71,5.71,0,0,1-1.84-1.25l1.14-1.31a4.59,4.59,0,0,0,1.34,1.06,3.42,3.42,0,0,0,1.6.42,2.21,2.21,0,0,0,1.5-.5,1.53,1.53,0,0,0,.58-1.23,2,2,0,0,0-1.46-1.9L285,84.42a4.72,4.72,0,0,1-1.9-1.25,2.71,2.71,0,0,1-.62-1.83,2.92,2.92,0,0,1,.95-2.19,3.3,3.3,0,0,1,2.37-.91,4.67,4.67,0,0,1,3.36,1.28l-1,1.3a3.21,3.21,0,0,0-2.39-1,1.84,1.84,0,0,0-1.23.41,1.41,1.41,0,0,0-.13,2,3.29,3.29,0,0,0,1.18.71l1.39.56c1.69.68,2.51,1.79,2.44,3.32a3.16,3.16,0,0,1-1,2.43A3.87,3.87,0,0,1,285.69,90.13Z"/><path class="cls-1" d="M292,79.93V78.39h9.39v1.54h-3.88V90h-1.62v-10Z"/><path class="cls-1" d="M311,84.9h-4.77v3.54h5.1V90H304.6V78.39h6.63v1.54h-5v3.42H311Z"/><path class="cls-1" d="M315.34,90V78.39H317v10h4.77V90Z"/><path class="cls-1" d="M325.28,90V78.39h1.62v10h4.77V90Z"/><path class="cls-1" d="M334,90l4.65-11.59h1.47L344.71,90h-1.79l-.7-1.78h-5.68L335.82,90Zm5.38-8.93-2.25,5.6h4.45Z"/><path class="cls-1" d="M353.12,90l4.66-11.59h1.46L363.81,90H362l-.7-1.78h-5.69L354.91,90Zm4.19-12.82a.76.76,0,0,1-.58.25.72.72,0,0,1-.57-.25,1,1,0,0,1,0-1.26.73.73,0,0,1,.57-.26.77.77,0,0,1,.58.26.95.95,0,0,1,0,1.26Zm1.2,3.89-2.26,5.6h4.46Zm2-3.89a.74.74,0,0,1-.57.25.76.76,0,0,1-.58-.25,1,1,0,0,1,0-1.26.77.77,0,0,1,.58-.26.75.75,0,0,1,.57.26.95.95,0,0,1,0,1.26Z"/><path class="cls-1" d="M367,90V78.39h4.3a3.59,3.59,0,0,1,2.61,1,3.58,3.58,0,0,1-2,6.17L375.26,90h-2l-3.33-4.42h-1.29V90Zm4.08-10h-2.46v4.19h2.45a2.32,2.32,0,0,0,1.64-.58,2,2,0,0,0,.63-1.52,1.93,1.93,0,0,0-.64-1.48A2.22,2.22,0,0,0,371.11,79.93Z"/><path class="cls-1" d="M386.65,90V80.46l-2.18,1.11V80l3.08-1.69h.72V90Z"/><path class="cls-1" d="M394.13,90V80.46L392,81.57V80L395,78.33h.72V90Z"/><path class="cls-1" d="M413.83,90V85h-5.64v5h-1.62V78.39h1.62v5h5.64v-5h1.62V90Z"/><path class="cls-1" d="M424.23,90.18a4.05,4.05,0,0,1-3-1.22A4.24,4.24,0,0,1,420,85.9V78.39h1.62V85.8a3,3,0,0,0,.69,2,2.37,2.37,0,0,0,1.9.8,2.46,2.46,0,0,0,1.92-.78,3,3,0,0,0,.7-2V78.39h1.62V85.9A4.24,4.24,0,0,1,427.29,89,4.09,4.09,0,0,1,424.23,90.18Z"/><path class="cls-1" d="M436.09,90.13a5.43,5.43,0,0,1-2.17-.46,5.77,5.77,0,0,1-1.83-1.25l1.14-1.31a4.55,4.55,0,0,0,1.33,1.06,3.45,3.45,0,0,0,1.61.42,2.24,2.24,0,0,0,1.5-.5,1.56,1.56,0,0,0,.58-1.23,2,2,0,0,0-1.47-1.9l-1.37-.54a4.8,4.8,0,0,1-1.9-1.25,2.76,2.76,0,0,1-.62-1.83,2.89,2.89,0,0,1,1-2.19,3.26,3.26,0,0,1,2.36-.91,4.71,4.71,0,0,1,3.37,1.28l-1,1.3a3.2,3.2,0,0,0-2.39-1,1.8,1.8,0,0,0-1.22.41,1.39,1.39,0,0,0-.13,2,3.23,3.23,0,0,0,1.17.71l1.4.56a3.31,3.31,0,0,1,2.44,3.32,3.17,3.17,0,0,1-1,2.43A3.85,3.85,0,0,1,436.09,90.13Z"/><path class="cls-1" d="M450.19,90V78.39h1.66l3.74,6.18,3.79-6.18H461V90h-1.62V81.42l-.05,0-3.73,6-3.66-5.91h-.1V90Z"/><path class="cls-1" d="M472.13,84.9h-4.77v3.54h5.1V90h-6.72V78.39h6.63v1.54h-5v3.42h4.77Z"/><path class="cls-1" d="M476.48,90V78.39h3.11a5.83,5.83,0,0,1,4.05,9.94A5.64,5.64,0,0,1,479.53,90Zm3.17-10H478.1v8.51h1.59a3.74,3.74,0,0,0,2.86-1.25,4.28,4.28,0,0,0,1.16-3,4.14,4.14,0,0,0-1.2-3A3.86,3.86,0,0,0,479.65,79.93Z"/><path class="cls-1" d="M503,90V85h-5.64v5h-1.62V78.39h1.62v5H503v-5h1.62V90Z"/><path class="cls-1" d="M514.54,90.19a5.71,5.71,0,0,1-4.18-1.71,6.23,6.23,0,0,1,0-8.6,5.91,5.91,0,0,1,8.35,0,6.16,6.16,0,0,1,0,8.58A5.68,5.68,0,0,1,514.54,90.19Zm-3-2.84a4.19,4.19,0,0,0,6.07,0,4.63,4.63,0,0,0,0-6.34,4.18,4.18,0,0,0-6.06,0,4.64,4.64,0,0,0,0,6.34Zm2-10.19a.76.76,0,0,1-.58.25.72.72,0,0,1-.57-.25,1,1,0,0,1,0-1.26.73.73,0,0,1,.57-.26.77.77,0,0,1,.58.26.95.95,0,0,1,0,1.26Zm3.21,0a.79.79,0,0,1-1.15,0,1,1,0,0,1,0-1.26.77.77,0,0,1,1.15,0,.95.95,0,0,1,0,1.26Z"/><path class="cls-1" d="M532.05,84.94V83.4h3.86v.81a6,6,0,0,1-6,6,5.66,5.66,0,0,1-4.23-1.74,6.24,6.24,0,0,1,0-8.56,5.69,5.69,0,0,1,4.23-1.73,6.28,6.28,0,0,1,2.44.48,6,6,0,0,1,2,1.34l-1.2,1.23a4.23,4.23,0,0,0-6.3-.2,4.67,4.67,0,0,0,0,6.32,4,4,0,0,0,3.08,1.31,4.14,4.14,0,0,0,2.78-1,4.37,4.37,0,0,0,1.46-2.68Z"/><path class="cls-1" d="M546.17,90V78.39h1.62v5.5l4.83-5.5h2.17L550.71,83l4.19,7h-2l-3.38-5.66-1.72,1.94V90Z"/><path class="cls-1" d="M561.82,90,557.3,78.39h1.82l3.47,8.91,3.49-8.91h1.78L563.33,90Z"/><path class="cls-1" d="M568.85,90l4.66-11.59H575L579.54,90h-1.8L577,88.2h-5.68L570.64,90Zm5.39-8.93L572,86.65h4.46Z"/><path class="cls-1" d="M582.76,90V78.39h1.62v10h4.77V90Z"/><path class="cls-1" d="M592.7,90V78.39h1.62V90Z"/><path class="cls-1" d="M597.54,79.93V78.39h9.39v1.54h-3.88V90h-1.62v-10Z"/><path class="cls-1" d="M616.55,84.9h-4.77v3.54h5.1V90h-6.72V78.39h6.63v1.54h-5v3.42h4.77Z"/><path class="cls-1" d="M619.67,79.93V78.39h9.39v1.54h-3.89V90h-1.62v-10Z"/><path class="cls-1" d="M637.63,79.93V78.39H647v1.54h-3.88V90h-1.62v-10Z"/><path class="cls-1" d="M650.24,90V78.39h1.62V90Z"/><path class="cls-1" d="M656.62,90V78.39h1.61v10H663V90Z"/><path class="cls-1" d="M666.56,90V78.39h1.62v10H673V90Z"/><path class="cls-1" d="M682.77,90V78.39h3.55a3.76,3.76,0,0,1,2.56.89,3,3,0,0,1,1,2.35,2.75,2.75,0,0,1-1.38,2.49,2.84,2.84,0,0,1,1.25,1,2.68,2.68,0,0,1,.46,1.56,3,3,0,0,1-1,2.37,3.76,3.76,0,0,1-2.59.89Zm3.39-10h-1.77v3.53h2.07a1.71,1.71,0,0,0,1.28-.52,1.76,1.76,0,0,0,.52-1.33,1.48,1.48,0,0,0-.58-1.22A2.39,2.39,0,0,0,686.16,79.93Zm.36,5h-2.13v3.54h2a2.41,2.41,0,0,0,1.6-.5,1.64,1.64,0,0,0,.58-1.32,1.57,1.57,0,0,0-.53-1.24A2.24,2.24,0,0,0,686.52,84.9Z"/><path class="cls-1" d="M694.28,90V78.39h4.3a3.59,3.59,0,0,1,2.61,1,3.46,3.46,0,0,1,1,2.62,3.53,3.53,0,0,1-.86,2.42,3.46,3.46,0,0,1-2.22,1.13L702.51,90h-2l-3.33-4.42H695.9V90Zm4.09-10H695.9v4.19h2.45a2.32,2.32,0,0,0,1.64-.58,2,2,0,0,0,.63-1.52,1.93,1.93,0,0,0-.64-1.48A2.21,2.21,0,0,0,698.37,79.93Z"/><path class="cls-1" d="M704.91,90l4.66-11.59H711L715.6,90h-1.79l-.7-1.78h-5.69L706.71,90Zm5.39-8.93-2.25,5.6h4.45Z"/><path class="cls-1" d="M725.28,90V78.39h4a3.64,3.64,0,0,1,2.69,1.08A3.74,3.74,0,0,1,733,82.23a3.63,3.63,0,0,1-1.11,2.71A3.76,3.76,0,0,1,729.18,86H726.9v4Zm3.85-10H726.9v4.55h2.25a2.14,2.14,0,0,0,2.24-2.25,2.25,2.25,0,0,0-.64-1.65A2.2,2.2,0,0,0,729.13,79.93Z"/><path class="cls-1" d="M736.85,90V78.39h4.3a3.59,3.59,0,0,1,2.61,1,3.46,3.46,0,0,1,1,2.62,3.53,3.53,0,0,1-.86,2.42,3.46,3.46,0,0,1-2.22,1.13L745.08,90h-2l-3.33-4.42h-1.29V90Zm4.09-10h-2.47v4.19h2.45a2.32,2.32,0,0,0,1.64-.58,2,2,0,0,0,.63-1.52,1.93,1.93,0,0,0-.64-1.48A2.21,2.21,0,0,0,740.94,79.93Z"/><path class="cls-1" d="M748.88,90V78.39h1.62V90Z"/><path class="cls-1" d="M758.08,90.13a5.43,5.43,0,0,1-2.17-.46,5.66,5.66,0,0,1-1.83-1.25l1.13-1.31a4.73,4.73,0,0,0,1.34,1.06,3.45,3.45,0,0,0,1.61.42,2.2,2.2,0,0,0,1.49-.5,1.53,1.53,0,0,0,.58-1.23,2,2,0,0,0-1.46-1.9l-1.37-.54a4.8,4.8,0,0,1-1.9-1.25,2.76,2.76,0,0,1-.62-1.83,2.89,2.89,0,0,1,1-2.19,3.26,3.26,0,0,1,2.36-.91,4.71,4.71,0,0,1,3.37,1.28l-1,1.3a3.21,3.21,0,0,0-2.39-1,1.84,1.84,0,0,0-1.23.41,1.34,1.34,0,0,0-.47,1.07,1.28,1.28,0,0,0,.35.9,3.23,3.23,0,0,0,1.17.71l1.4.56c1.69.68,2.5,1.79,2.43,3.32a3.16,3.16,0,0,1-1,2.43A3.85,3.85,0,0,1,758.08,90.13Z"/></svg>