<svg id="Layer_1" data-name="Layer 1" xmlns="http://www.w3.org/2000/svg" viewBox="0 0 160 600"><defs><style>.cls-1{fill:#d80201;}</style></defs><title>text</title><path class="cls-1" d="M30.68,271.32a7.7,7.7,0,0,1-7.9,6.15A8.41,8.41,0,0,1,14,268.8a8.55,8.55,0,0,1,8.85-8.75A8,8,0,0,1,30,264L27.2,265.5A4.89,4.89,0,0,0,22.85,263a5.51,5.51,0,0,0-5.47,5.77,5.45,5.45,0,0,0,5.47,5.72A4.12,4.12,0,0,0,27.2,271H23.28v-2.8h7.65v.4A14.44,14.44,0,0,1,30.68,271.32Z"/><path class="cls-1" d="M33.46,277.1V258.38h3V277.1Z"/><path class="cls-1" d="M45,277.45c-3.45,0-6.2-2.15-6.2-5.75s2.75-5.77,6.22-5.77,6.15,2.17,6.15,5.75S48.43,277.45,45,277.45Zm-2.62-13.2a1.8,1.8,0,0,1,0-3.6,1.8,1.8,0,1,1,0,3.6Zm2.6,4.4a3,3,0,1,0,3.07,3A3.06,3.06,0,0,0,45,268.65Zm2.6-4.4a1.82,1.82,0,0,1-1.8-1.8,1.8,1.8,0,1,1,1.8,1.8Z"/><path class="cls-1" d="M67.33,277.1v-5.92c0-1.27-.2-2.67-1.8-2.67-1.77,0-2.07,1.63-2.07,3v5.55h-3v-5.75a4.82,4.82,0,0,0-.23-1.8,1.75,1.75,0,0,0-1.62-1,2,2,0,0,0-1.7,1,4.5,4.5,0,0,0-.35,2.07v5.55h-3V266.27h3v1.22a4.16,4.16,0,0,1,3.3-1.57,3.68,3.68,0,0,1,3.37,2,4,4,0,0,1,3.55-2,3.56,3.56,0,0,1,3,1.55,4.77,4.77,0,0,1,.57,2.62v7Z"/><path class="cls-1" d="M76.31,268.87v8.22h-3v-8.22h-1.2v-2.6h1.2v-3.7h3v3.7h2.12v2.6Z"/><path class="cls-1" d="M94.53,277.1v-1.42A4.18,4.18,0,0,1,91,277.45c-3.25,0-5.32-2.7-5.32-5.8s2.07-5.72,5.25-5.72a4.51,4.51,0,0,1,3.6,1.72v-1.37h3V277.1Zm-2.7-8.45a3,3,0,1,0,3,3A3,3,0,0,0,91.83,268.65Z"/><path class="cls-1" d="M103.53,268.87v8.22h-3v-8.22h-1.2v-2.6h1.2v-3.7h3v3.7h2.12v2.6Z"/><path class="cls-1" d="M110.28,268.87v8.22h-3v-8.22h-1.2v-2.6h1.2v-3.7h3v3.7h2.12v2.6Z"/><path class="cls-1" d="M17.53,298.87v8.22h-3v-8.22H13.33v-2.6h1.17V292.8a5.28,5.28,0,0,1,.47-2.55,4.28,4.28,0,0,1,3.75-2.17,3.58,3.58,0,0,1,1.6.38v2.77a3,3,0,0,0-1.37-.4c-1.35,0-1.42,1.4-1.42,2.42v3h2.8v2.6Z"/><path class="cls-1" d="M27.36,307.45c-3.45,0-6.2-2.15-6.2-5.75s2.75-5.77,6.22-5.77,6.15,2.17,6.15,5.75S30.78,307.45,27.36,307.45Zm0-8.8a3,3,0,1,0,3.07,3A3.06,3.06,0,0,0,27.33,298.65Z"/><path class="cls-1" d="M42.93,299a2.68,2.68,0,0,0-1.45-.37c-2,0-2.6,1.45-2.6,3.25v5.2h-3V296.27h3v1.62a3.53,3.53,0,0,1,4.47-1.72Z"/><path class="cls-1" d="M58.68,307.1v-5.92c0-1.28-.2-2.68-1.8-2.68-1.77,0-2.07,1.63-2.07,3v5.55h-3v-5.75a4.82,4.82,0,0,0-.23-1.8,1.75,1.75,0,0,0-1.62-1,2,2,0,0,0-1.7,1,4.5,4.5,0,0,0-.35,2.07v5.55h-3V296.27h3v1.22a4.16,4.16,0,0,1,3.3-1.57,3.68,3.68,0,0,1,3.37,2,4,4,0,0,1,3.55-2,3.56,3.56,0,0,1,3,1.55,4.77,4.77,0,0,1,.57,2.62v7Z"/><path class="cls-1" d="M72.88,307.1v-1.42a4.18,4.18,0,0,1-3.52,1.78c-3.25,0-5.32-2.7-5.32-5.8s2.07-5.72,5.25-5.72a4.51,4.51,0,0,1,3.6,1.72v-1.37h3V307.1Zm-2.7-8.45a3,3,0,1,0,3,3A3,3,0,0,0,70.18,298.65Z"/><path class="cls-1" d="M92.5,307.1l-4.07-4.65-.32.33v4.32h-3V288.38h3v11.85l4-3.95h4.1L91.18,301l5.47,6.07Z"/><path class="cls-1" d="M98,307.1V288.38h3V307.1Z"/><path class="cls-1" d="M112.2,307.1v-1.42a4.18,4.18,0,0,1-3.52,1.78c-3.25,0-5.32-2.7-5.32-5.8s2.07-5.72,5.25-5.72a4.51,4.51,0,0,1,3.6,1.72v-1.37h3V307.1Zm-2.7-8.45a3,3,0,1,0,3,3A3,3,0,0,0,109.5,298.65Z"/><path class="cls-1" d="M125.23,299a2.68,2.68,0,0,0-1.45-.37c-2,0-2.6,1.45-2.6,3.25v5.2h-3V296.27h3v1.62a3.53,3.53,0,0,1,4.47-1.72Z"/><path class="cls-1" d="M130.75,298.87v8.22h-3v-8.22h-1.2v-2.6h1.2v-3.7h3v3.7h2.12v2.6Z"/><path class="cls-1" d="M22.68,337.1v-1.42a4.18,4.18,0,0,1-3.52,1.78c-3.25,0-5.32-2.7-5.32-5.8s2.07-5.72,5.25-5.72a4.51,4.51,0,0,1,3.6,1.72v-9.27h3V337.1ZM20,328.65a3,3,0,1,0,3,3A3,3,0,0,0,20,328.65Z"/><path class="cls-1" d="M30.11,323.53a1.82,1.82,0,1,1,0-3.65,1.82,1.82,0,0,1,0,3.65ZM28.58,337.1V326.27h3V337.1Z"/><path class="cls-1" d="M37.51,328.87v8.22h-3v-8.22h-1.2v-2.6h1.2v-3.7h3v3.7h2.12v2.6Z"/><path class="cls-1" d="M44.25,328.87v8.22h-3v-8.22H40v-2.6h1.2v-3.7h3v3.7h2.12v2.6Z"/><path class="cls-1" d="M61.6,337.1v-6c0-1.47-.32-2.6-2-2.6s-2.32,1.38-2.32,3v5.6h-3V326.27h3v1.33a4,4,0,0,1,3.4-1.68,3.74,3.74,0,0,1,4,4.3v6.87Z"/><path class="cls-1" d="M70.13,342.89H66.71l4-7.42-5.12-9.2h3.52l3.25,6.15,3.1-6.15h3.45Z"/><path class="cls-1" d="M88,337.1v-1.42a4.18,4.18,0,0,1-3.52,1.78c-3.25,0-5.32-2.7-5.32-5.8s2.07-5.72,5.25-5.72a4.51,4.51,0,0,1,3.6,1.72v-1.37h3V337.1Zm-2.7-8.45a3,3,0,1,0,3,3A3,3,0,0,0,85.33,328.65Z"/><path class="cls-1" d="M107.63,337.1v-5.92c0-1.5-.32-2.68-2.07-2.68s-2.3,1.45-2.3,3v5.55h-3V318.38h3v9.3a3.94,3.94,0,0,1,3.4-1.75,4.14,4.14,0,0,1,3.15,1.33,4.29,4.29,0,0,1,.85,3v6.8Z"/><path class="cls-1" d="M118.78,337.45c-3,0-5.22-1.33-5.22-4.55v-6.62h3v6.12c0,1.47.62,2.47,2.2,2.47s2.2-1,2.2-2.47v-6.12h3v6.62C124,336.12,121.75,337.45,118.78,337.45Z"/><path class="cls-1" d="M130.38,337.45a5.76,5.76,0,0,1-4.12-1.8l1.6-1.85a3.51,3.51,0,0,0,2.55,1.28,1.27,1.27,0,0,0,1.37-1.2c0-1.85-4.82-.93-4.82-4.57,0-2.2,1.82-3.42,3.87-3.42a5.58,5.58,0,0,1,3.52,1.15l-1.5,1.78a3,3,0,0,0-1.8-.72c-.52,0-1.15.32-1.15.92,0,1.58,5,.88,5,4.57C134.9,336.1,132.7,337.45,130.38,337.45Z"/><path class="cls-1" d="M142.68,329.4v2.13H139.6v-4.4a5,5,0,0,0,.88.1c1.52,0,3.15-.78,3.15-2.5a1.88,1.88,0,0,0-1.92-1.92,1.77,1.77,0,0,0-1.8,1.77c0,.1,0,.2,0,.3h-3.25v-.3c0-2.72,2.55-4.47,5.1-4.47a4.84,4.84,0,0,1,5,4.7C146.83,327.32,145,328.85,142.68,329.4Zm-1.47,8a1.95,1.95,0,1,1,1.95-1.95A2,2,0,0,1,141.2,337.42Z"/></svg>