<svg id="Layer_1" data-name="Layer 1" xmlns="http://www.w3.org/2000/svg" viewBox="0 0 300 600"><defs><style>.cls-1{fill:#d5ad77;}</style></defs><title>text</title><path class="cls-1" d="M23.19,119.19V87.5h4.16L43,107.43V87.5H48.9v31.69h-4L29.13,99v20.17Z"/><path class="cls-1" d="M56.73,119.19,69,87.5h5.37l12.17,31.69H80.38l-1.68-4.38H64.53l-1.7,4.38ZM68.89,84.24a2.55,2.55,0,0,1-1.93.84,2.62,2.62,0,0,1-2-.84,2.82,2.82,0,0,1-.81-2,2.78,2.78,0,0,1,.79-2,2.84,2.84,0,0,1,2-.82,2.63,2.63,0,0,1,1.91.82,2.76,2.76,0,0,1,.81,2A2.85,2.85,0,0,1,68.89,84.24Zm2.75,12.13-5.07,13.15h10.1Zm6.68-12.13a3,3,0,0,1-4.2,0,2.72,2.72,0,0,1-.87-2,2.67,2.67,0,0,1,.87-2,3.1,3.1,0,0,1,4.2,0,2.67,2.67,0,0,1,.87,2A2.72,2.72,0,0,1,78.32,84.24Z"/><path class="cls-1" d="M93.91,119.19V87.5h12.4A10.7,10.7,0,0,1,114,90.38a9.87,9.87,0,0,1,3,7.52,9.53,9.53,0,0,1-2.27,6.42,10.24,10.24,0,0,1-5.92,3.37l8.51,11.5h-6.68l-8.22-11.31H99.86v11.31Zm11.48-26.4H99.86v10.33h5.53a5.84,5.84,0,0,0,4.12-1.41,4.69,4.69,0,0,0,1.54-3.65,5,5,0,0,0-1.58-3.76A5.64,5.64,0,0,0,105.39,92.79Z"/><path class="cls-1" d="M126.26,119.19V87.5H132l9.8,15.62,9.92-15.62H158v31.69h-6V97.5l-.48-.06-9.83,15.17-9.58-15h.09v21.56Z"/><path class="cls-1" d="M165,119.19,177.19,87.5h5.37l12.17,31.69h-6.11l-1.68-4.38H172.77l-1.7,4.38Zm14.91-22.82-5.07,13.15h10.1Z"/><path class="cls-1" d="M211.11,119.6a15.13,15.13,0,0,1-6-1.25,15.69,15.69,0,0,1-5.13-3.46l3.77-4.52a11.56,11.56,0,0,0,3.49,2.84,9,9,0,0,0,4.18,1.1,5.17,5.17,0,0,0,3.38-1.08,3.43,3.43,0,0,0,1.31-2.74c0-2-1.15-3.44-3.47-4.4l-3.54-1.41a13.67,13.67,0,0,1-5.27-3.5,8.1,8.1,0,0,1-1.7-5.39,8.23,8.23,0,0,1,2.69-6,9.17,9.17,0,0,1,6.72-2.65,13.67,13.67,0,0,1,9.76,3.62l-3.5,4.42a8.18,8.18,0,0,0-6.26-2.75,4.21,4.21,0,0,0-2.84.91,2.81,2.81,0,0,0-1.07,2.24,3,3,0,0,0,.83,2.17,8.53,8.53,0,0,0,2.72,1.63l3.7,1.48q7,2.82,7.18,9.15a8.9,8.9,0,0,1-3,6.94A11.59,11.59,0,0,1,211.11,119.6Z"/><path class="cls-1" d="M228,93.2V87.5H254.1v5.7H244v26h-5.94v-26Z"/><path class="cls-1" d="M279.36,105.79H267.63v8.11H280.5v5.29H261.69V87.5h18.45v5.29H267.63v7.71h11.73Z"/><path class="cls-1" d="M80.47,168.39,68.35,136.7h6.19l8.71,22.79,8.59-22.79h6l-12,31.69Z"/><path class="cls-1" d="M99.39,168.39l12.22-31.69H117l12.18,31.69H123L121.36,164H107.19l-1.69,4.38Zm12.16-34.95a2.54,2.54,0,0,1-1.93.84,2.62,2.62,0,0,1-2-.84,2.82,2.82,0,0,1-.81-2,2.78,2.78,0,0,1,.79-2,2.84,2.84,0,0,1,2-.82,2.63,2.63,0,0,1,1.91.82,2.76,2.76,0,0,1,.81,2A2.85,2.85,0,0,1,111.55,133.44Zm2.75,12.13-5.07,13.15h10.11ZM121,133.44a3,3,0,0,1-4.2,0,2.72,2.72,0,0,1-.87-2,2.67,2.67,0,0,1,.87-2,3.1,3.1,0,0,1,4.2,0,2.67,2.67,0,0,1,.88,2A2.73,2.73,0,0,1,121,133.44Z"/><path class="cls-1" d="M155.48,155.15v-5.29h11.35l0,2.71a16.3,16.3,0,0,1-2.31,8.4,15.88,15.88,0,0,1-6,5.84,16.29,16.29,0,0,1-8.08,2.08,16.45,16.45,0,1,1,.08-32.89,15.63,15.63,0,0,1,11.81,5.12l-4.06,4a10.24,10.24,0,0,0-7.79-3.43,10.1,10.1,0,0,0-7.58,3.1,11.2,11.2,0,0,0,0,15.28,9.69,9.69,0,0,0,7.19,3.11,11.32,11.32,0,0,0,7.06-2.2,10.11,10.11,0,0,0,3.73-5.84Z"/><path class="cls-1" d="M193.81,155H182.08v8.11H195v5.29H176.14V136.7h18.45V142H182.08v7.71h11.73Z"/><path class="cls-1" d="M204.59,168.39V136.7h4.17l15.59,19.93V136.7h6v31.69h-4l-15.78-20.17v20.17Z"/></svg>