<svg id="Layer_1" data-name="Layer 1" xmlns="http://www.w3.org/2000/svg" viewBox="0 0 160 600"><defs><style>.cls-1{fill:#d80201;}</style></defs><title>text</title><path class="cls-1" d="M35.61,261.1V244.43h3.25v13.84H44v2.83Z"/><path class="cls-1" d="M48.29,256.17c.05,1.68.85,2.9,2.65,2.9a2.81,2.81,0,0,0,2.57-1.45l2.8.45A5.3,5.3,0,0,1,51,261.45a5.43,5.43,0,0,1-5.8-5.78,5.36,5.36,0,0,1,5.67-5.75c3.58,0,5.53,2.4,5.53,5.85v.4Zm2.62-4.1a2.45,2.45,0,0,0-2.52,2.18h5.12A2.51,2.51,0,0,0,50.91,252.07Z"/><path class="cls-1" d="M61.76,252.87v8.23h-3v-8.23h-1.2v-2.6h1.2v-3.69h3v3.69h2.13v2.6Z"/><path class="cls-1" d="M70.44,248.38l-1.43-1,3-3.78,2.2,1.4Z"/><path class="cls-1" d="M81.41,261.45a5.76,5.76,0,0,1-4.12-1.8l1.6-1.85a3.51,3.51,0,0,0,2.55,1.27,1.27,1.27,0,0,0,1.37-1.2C82.81,256,78,257,78,253.3c0-2.2,1.82-3.43,3.87-3.43A5.6,5.6,0,0,1,85.39,251l-1.5,1.78a3.05,3.05,0,0,0-1.8-.73c-.53,0-1.15.33-1.15.93,0,1.57,5,.87,5,4.57C85.94,260.1,83.74,261.45,81.41,261.45Z"/><path class="cls-1" d="M100.91,261.45a4.26,4.26,0,0,1-3.55-1.78v1.43h-3V242.38h3v9.27a4.6,4.6,0,0,1,3.63-1.73c3.17,0,5.27,2.7,5.27,5.73S104.16,261.45,100.91,261.45Zm-.82-8.8a3,3,0,1,0,3,3A3,3,0,0,0,100.09,252.65Z"/><path class="cls-1" d="M111.09,256.17c0,1.68.85,2.9,2.65,2.9a2.81,2.81,0,0,0,2.57-1.45l2.8.45a5.31,5.31,0,0,1-5.32,3.38,5.43,5.43,0,0,1-5.8-5.78,5.36,5.36,0,0,1,5.67-5.75c3.57,0,5.52,2.4,5.52,5.85v.4Zm2.62-4.1a2.45,2.45,0,0,0-2.52,2.18h5.12A2.51,2.51,0,0,0,113.71,252.07Z"/><path class="cls-1" d="M45.06,282.87v8.23H42v-8.23H40.86v-2.6H42V276.8a5.34,5.34,0,0,1,.47-2.55,4.28,4.28,0,0,1,3.75-2.17,3.54,3.54,0,0,1,1.6.37v2.78a2.94,2.94,0,0,0-1.37-.4c-1.35,0-1.43,1.4-1.43,2.42v3h2.8v2.6Z"/><path class="cls-1" d="M56.34,283a2.73,2.73,0,0,0-1.45-.37c-2,0-2.6,1.45-2.6,3.25v5.2h-3V280.27h3v1.63a3.47,3.47,0,0,1,3.15-2,3.56,3.56,0,0,1,1.32.25Z"/><path class="cls-1" d="M59.74,277.52a1.82,1.82,0,1,1,0-3.64,1.82,1.82,0,0,1,0,3.64ZM58.21,291.1V280.27h3V291.1Z"/><path class="cls-1" d="M66.61,286.17c0,1.68.85,2.9,2.65,2.9a2.84,2.84,0,0,0,2.58-1.45l2.79.45a5.29,5.29,0,0,1-5.32,3.38,5.43,5.43,0,0,1-5.8-5.78,5.36,5.36,0,0,1,5.68-5.75c3.57,0,5.52,2.4,5.52,5.85v.4Zm2.63-4.1a2.46,2.46,0,0,0-2.53,2.18h5.13A2.52,2.52,0,0,0,69.24,282.07Z"/><path class="cls-1" d="M84.44,291.1v-6c0-1.48-.33-2.6-2-2.6-1.88,0-2.33,1.37-2.33,3v5.6H77V280.27h3v1.33a4,4,0,0,1,3.4-1.68,3.74,3.74,0,0,1,4,4.3v6.88Z"/><path class="cls-1" d="M98.63,291.1v-1.43a4.15,4.15,0,0,1-3.52,1.78c-3.25,0-5.32-2.7-5.32-5.8s2.07-5.73,5.25-5.73a4.48,4.48,0,0,1,3.59,1.73v-9.27h3.05V291.1Zm-2.69-8.45a3,3,0,1,0,3,3A3,3,0,0,0,95.94,282.65Z"/><path class="cls-1" d="M108,291.45a5.8,5.8,0,0,1-4.13-1.8l1.6-1.85a3.55,3.55,0,0,0,2.55,1.27,1.28,1.28,0,0,0,1.38-1.2c0-1.85-4.83-.92-4.83-4.57,0-2.2,1.83-3.43,3.88-3.43A5.57,5.57,0,0,1,112,281l-1.5,1.78a3,3,0,0,0-1.8-.73c-.52,0-1.15.33-1.15.93,0,1.57,5,.87,5,4.57C112.56,290.1,110.36,291.45,108,291.45Z"/><path class="cls-1" d="M43.48,316.62v-2.55H49.1v2.55Z"/><path class="cls-1" d="M63.37,321.45a4.26,4.26,0,0,1-3.55-1.78v1.43h-3V302.38h3v9.27a4.6,4.6,0,0,1,3.63-1.73c3.17,0,5.27,2.7,5.27,5.73S66.62,321.45,63.37,321.45Zm-.82-8.8a3,3,0,1,0,3,3A3,3,0,0,0,62.55,312.65Z"/><path class="cls-1" d="M76.65,321.45c-3.45,0-6.2-2.15-6.2-5.75s2.75-5.78,6.22-5.78,6.15,2.18,6.15,5.75S80.07,321.45,76.65,321.45Zm0-8.8a3,3,0,1,0,3.08,3.05A3.06,3.06,0,0,0,76.62,312.65Z"/><path class="cls-1" d="M92.57,321.1l-4.07-4.65-.33.32v4.33h-3V302.38h3v11.84l4-4h4.1L91.25,315l5.47,6.08Z"/><path class="cls-1" d="M105.77,321.1v-1.43a4.17,4.17,0,0,1-3.52,1.78c-3.25,0-5.33-2.7-5.33-5.8s2.08-5.73,5.25-5.73a4.49,4.49,0,0,1,3.6,1.73v-1.38h3V321.1Zm-2.7-8.45a3,3,0,1,0,3,3A3,3,0,0,0,103.07,312.65Z"/><path class="cls-1" d="M48.88,351.1v-5.93c0-1.27-.2-2.67-1.8-2.67-1.77,0-2.07,1.62-2.07,3.05v5.55H42v-5.75a4.72,4.72,0,0,0-.23-1.8,1.74,1.74,0,0,0-1.62-1.05,2,2,0,0,0-1.7,1,4.46,4.46,0,0,0-.35,2.08v5.55h-3V340.27h3v1.23a4.14,4.14,0,0,1,3.3-1.58,3.67,3.67,0,0,1,3.37,2,4,4,0,0,1,3.55-2,3.57,3.57,0,0,1,3,1.55,4.8,4.8,0,0,1,.58,2.63v7Z"/><path class="cls-1" d="M60.44,351.45c-3.45,0-6.2-2.15-6.2-5.75s2.75-5.78,6.22-5.78,6.15,2.18,6.15,5.75S63.86,351.45,60.44,351.45Zm-2.63-13.2a1.8,1.8,0,1,1,0-3.6,1.8,1.8,0,0,1,0,3.6Zm2.6,4.4a3,3,0,1,0,3.08,3.05A3.06,3.06,0,0,0,60.41,342.65Zm2.6-4.4a1.83,1.83,0,0,1-1.8-1.8,1.8,1.8,0,1,1,1.8,1.8Z"/><path class="cls-1" d="M72,342.87v8.23H69v-8.23h-1.2v-2.6H69v-3.69h3v3.69h2.12v2.6Z"/><path class="cls-1" d="M78.21,346.17c.05,1.68.85,2.9,2.65,2.9a2.84,2.84,0,0,0,2.58-1.45l2.79.45a5.3,5.3,0,0,1-5.32,3.38,5.43,5.43,0,0,1-5.8-5.78,5.36,5.36,0,0,1,5.68-5.75c3.57,0,5.52,2.4,5.52,5.85v.4Zm2.63-4.1a2.46,2.46,0,0,0-2.53,2.18h5.13A2.52,2.52,0,0,0,80.84,342.07Z"/><path class="cls-1" d="M102.29,351.1v-6c0-1.48-.33-2.6-2.05-2.6-1.88,0-2.33,1.37-2.33,3v5.6h-3V340.27h3v1.33a4,4,0,0,1,3.4-1.68,4.15,4.15,0,0,1,3.15,1.3,4.2,4.2,0,0,1,.85,3v6.88Z"/><path class="cls-1" d="M113.44,351.45c-3,0-5.23-1.33-5.23-4.55v-6.63h3v6.13c0,1.47.62,2.47,2.2,2.47s2.2-1,2.2-2.47v-6.13h3v6.63C118.68,350.12,116.41,351.45,113.44,351.45Z"/><path class="cls-1" d="M123.26,351.42a1.95,1.95,0,1,1,1.95-1.95A2,2,0,0,1,123.26,351.42Zm-1.55-5.1V334.43h3.1v11.89Z"/></svg>