<svg id="Layer_1" data-name="Layer 1" xmlns="http://www.w3.org/2000/svg" viewBox="0 0 300 600"><defs><style>.cls-1{fill:#d5ad77;}</style></defs><title>text</title><path class="cls-1" d="M100.39,227.52l5-12.37h1.56l4.87,12.37h-1.91l-.75-1.9h-6.06l-.77,1.9Zm5.75-9.53-2.41,6h4.75Zm1.19-3.68a1.61,1.61,0,0,1-1.19.49,1.68,1.68,0,1,1,0-3.36,1.61,1.61,0,0,1,1.19.49,1.69,1.69,0,0,1,0,2.38Zm-1.19-.5a.64.64,0,0,0,.47-.21.69.69,0,0,0,.2-.48.68.68,0,0,0-.2-.49.68.68,0,0,0-1,0,.68.68,0,0,0-.2.49.69.69,0,0,0,.2.48A.64.64,0,0,0,106.14,213.81Z"/><path class="cls-1" d="M112.52,216.8v-1.65h10v1.65h-4.15v10.72h-1.73V216.8Z"/><path class="cls-1" d="M125,216.8v-1.65h10v1.65h-4.14v10.72h-1.73V216.8Z"/><path class="cls-1" d="M135.8,227.52l5-12.37h1.56l4.87,12.37h-1.91l-.75-1.9h-6.06l-.77,1.9Zm5.74-9.53-2.4,6h4.75Z"/><path class="cls-1" d="M157.53,227.52V215.15h1.2l6.7,8.52v-8.52h1.73v12.37h-1l-6.94-8.83v8.83Z"/><path class="cls-1" d="M178.77,215.15h2l-4.11,7.39v5h-1.73v-4.91l-4.16-7.46h2.07l3,5.49Z"/><path class="cls-1" d="M181.48,227.52l5-12.37H188l4.87,12.37H191l-.75-1.9h-6.06l-.77,1.9Zm5.74-9.53-2.4,6h4.75Z"/><path class="cls-1" d="M117.18,248.52v-5.36h-6v5.36h-1.73V236.15h1.73v5.36h6v-5.36h1.73v12.37Z"/><path class="cls-1" d="M128.28,248.73a4.31,4.31,0,0,1-3.23-1.3,4.48,4.48,0,0,1-1.26-3.26v-8h1.73v7.91a3.2,3.2,0,0,0,.74,2.16,2.52,2.52,0,0,0,2,.86,2.6,2.6,0,0,0,2.05-.84,3.16,3.16,0,0,0,.74-2.16v-7.93h1.73v8a4.48,4.48,0,0,1-1.26,3.26A4.32,4.32,0,0,1,128.28,248.73Z"/><path class="cls-1" d="M140.94,248.68a5.77,5.77,0,0,1-2.32-.5,6.12,6.12,0,0,1-2-1.33l1.22-1.4a4.7,4.7,0,0,0,1.42,1.13A3.71,3.71,0,0,0,141,247a2.36,2.36,0,0,0,1.59-.52,1.64,1.64,0,0,0,.62-1.32,2.17,2.17,0,0,0-1.56-2l-1.46-.58a5,5,0,0,1-2-1.33,2.91,2.91,0,0,1-.66-1.95,3.12,3.12,0,0,1,1-2.34,3.54,3.54,0,0,1,2.52-1,5,5,0,0,1,3.59,1.37l-1,1.39a3.45,3.45,0,0,0-2.56-1.11,2,2,0,0,0-1.31.43,1.45,1.45,0,0,0-.5,1.14,1.36,1.36,0,0,0,.37,1,3.41,3.41,0,0,0,1.25.77l1.49.59q2.7,1.09,2.6,3.54a3.37,3.37,0,0,1-1.09,2.6A4.17,4.17,0,0,1,140.94,248.68Z"/><path class="cls-1" d="M156,248.52V236.15h6.75v1.65h-5v3.89h4.44v1.65H157.7v5.18Z"/><path class="cls-1" d="M172.06,248.74a6.07,6.07,0,0,1-4.46-1.83,6.63,6.63,0,0,1,0-9.17,6.31,6.31,0,0,1,8.9,0,6.59,6.59,0,0,1,0,9.16A6.08,6.08,0,0,1,172.06,248.74Zm-3.24-3a4.46,4.46,0,0,0,6.47,0,5,5,0,0,0,0-6.76,4.46,4.46,0,0,0-6.47,0,5,5,0,0,0,0,6.76Zm2.08-10.87a.83.83,0,0,1-.62.27.8.8,0,0,1-.61-.27,1,1,0,0,1-.25-.67,1,1,0,0,1,.25-.67.78.78,0,0,1,.61-.28.8.8,0,0,1,.62.28.93.93,0,0,1,.25.67A1,1,0,0,1,170.9,234.84Zm3.43,0a.81.81,0,0,1-.62.27.79.79,0,0,1-.61-.27,1,1,0,0,1-.25-.67.93.93,0,0,1,.25-.67.77.77,0,0,1,.61-.28.79.79,0,0,1,.62.28,1,1,0,0,1,.25.67A1,1,0,0,1,174.33,234.84Z"/><path class="cls-1" d="M182.69,248.52V236.15h4.59a3.83,3.83,0,0,1,2.78,1.08,4.06,4.06,0,0,1,.2,5.37,3.64,3.64,0,0,1-2.37,1.21l3.58,4.71h-2.13l-3.55-4.72h-1.37v4.72Zm4.36-10.72h-2.63v4.46H187a2.49,2.49,0,0,0,1.75-.61,2.22,2.22,0,0,0,0-3.21A2.4,2.4,0,0,0,187.05,237.8Z"/><path class="cls-1" d="M98.94,264.1H93.85v3.77h5.44v1.65H92.12V257.15h7.07v1.65H93.85v3.65h5.09Z"/><path class="cls-1" d="M103.58,269.52V257.15h1.2l6.7,8.52v-8.52h1.73v12.37h-1l-7-8.83v8.83Z"/><path class="cls-1" d="M131.88,264.1h-5.09v3.77h5.44v1.65h-7.17V257.15h7.08v1.65h-5.35v3.65h5.09Z"/><path class="cls-1" d="M136.52,269.52V257.15h1.21l6.69,8.52v-8.52h1.73v12.37h-1l-6.94-8.83v8.83Z"/><path class="cls-1" d="M151.32,269.52V257.15h1.73V263l5.15-5.87h2.32l-4.36,4.91,4.47,7.46h-2.14l-3.6-6-1.84,2.07v4Z"/><path class="cls-1" d="M164.39,269.52V257.15h1.73v10.72h5.09v1.65Z"/><path class="cls-1" d="M173.72,269.52l5-12.37h1.56l4.87,12.37h-1.91l-.75-1.9H176.4l-.77,1.9Zm5.74-9.53-2.4,6h4.75Z"/><path class="cls-1" d="M188.55,269.52V257.15h4.59a3.87,3.87,0,0,1,2.79,1.08,3.73,3.73,0,0,1,1.12,2.79,3.68,3.68,0,0,1-.93,2.58,3.6,3.6,0,0,1-2.36,1.21l3.58,4.71h-2.13l-3.55-4.72h-1.38v4.72Zm4.36-10.72h-2.63v4.46h2.62a2.51,2.51,0,0,0,1.75-.61,2.25,2.25,0,0,0,0-3.21A2.42,2.42,0,0,0,192.91,258.8Z"/><path class="cls-1" d="M208.2,264.1h-5.09v3.77h5.44v1.65h-7.17V257.15h7.08v1.65h-5.35v3.65h5.09Z"/><path class="cls-1" d="M115.7,290.52v-5.36h-6v5.36H108V278.15h1.73v5.36h6v-5.36h1.72v12.37Z"/><path class="cls-1" d="M126.79,290.73a4.27,4.27,0,0,1-3.22-1.3,4.49,4.49,0,0,1-1.27-3.26v-8H124v7.91a3.2,3.2,0,0,0,.74,2.16,2.54,2.54,0,0,0,2,.86,2.6,2.6,0,0,0,2-.84,3.12,3.12,0,0,0,.74-2.16v-7.93h1.73v8a4.48,4.48,0,0,1-1.26,3.26A4.32,4.32,0,0,1,126.79,290.73Z"/><path class="cls-1" d="M139.45,290.68a5.8,5.8,0,0,1-2.32-.5,6.12,6.12,0,0,1-2-1.33l1.22-1.4a4.74,4.74,0,0,0,1.43,1.13,3.64,3.64,0,0,0,1.71.45,2.41,2.41,0,0,0,1.6-.52,1.66,1.66,0,0,0,.61-1.32,2.17,2.17,0,0,0-1.56-2l-1.46-.58a4.9,4.9,0,0,1-2-1.33,2.87,2.87,0,0,1-.67-1.95,3.12,3.12,0,0,1,1-2.34,3.55,3.55,0,0,1,2.53-1,5.06,5.06,0,0,1,3.59,1.37l-1,1.39a3.44,3.44,0,0,0-2.55-1.11,1.92,1.92,0,0,0-1.31.43,1.43,1.43,0,0,0-.51,1.14,1.36,1.36,0,0,0,.37,1,3.46,3.46,0,0,0,1.26.77l1.48.59q2.7,1.1,2.6,3.54a3.37,3.37,0,0,1-1.09,2.6A4.17,4.17,0,0,1,139.45,290.68Z"/><path class="cls-1" d="M147.71,290.52V278.15h4.59a3.87,3.87,0,0,1,2.79,1.08,3.73,3.73,0,0,1,1.12,2.79,3.68,3.68,0,0,1-.93,2.58,3.6,3.6,0,0,1-2.36,1.21l3.58,4.71h-2.13l-3.55-4.72h-1.38v4.72Zm4.36-10.72h-2.63v4.46h2.62a2.51,2.51,0,0,0,1.75-.61,2.25,2.25,0,0,0,0-3.21A2.42,2.42,0,0,0,152.07,279.8Z"/><path class="cls-1" d="M167.36,285.1h-5.09v3.77h5.44v1.65h-7.17V278.15h7.08v1.65h-5.35v3.65h5.09Z"/><path class="cls-1" d="M175.14,290.68a5.76,5.76,0,0,1-2.31-.5,6,6,0,0,1-2-1.33l1.22-1.4a4.7,4.7,0,0,0,1.42,1.13,3.64,3.64,0,0,0,1.71.45,2.37,2.37,0,0,0,1.6-.52,1.67,1.67,0,0,0,.62-1.32,2.17,2.17,0,0,0-1.56-2l-1.46-.58a5,5,0,0,1-2-1.33,2.91,2.91,0,0,1-.66-1.95,3.12,3.12,0,0,1,1-2.34,3.54,3.54,0,0,1,2.52-1,5,5,0,0,1,3.59,1.37l-1,1.39a3.41,3.41,0,0,0-2.55-1.11,2,2,0,0,0-1.31.43,1.45,1.45,0,0,0-.5,1.14,1.36,1.36,0,0,0,.37,1,3.41,3.41,0,0,0,1.25.77l1.49.59q2.7,1.1,2.6,3.54a3.4,3.4,0,0,1-1.09,2.6A4.18,4.18,0,0,1,175.14,290.68Z"/><path class="cls-1" d="M182,290.52l5-12.37h1.57l4.87,12.37h-1.91l-.75-1.9h-6.06l-.77,1.9Zm5.74-9.53-2.4,6h4.75Z"/></svg>