<svg id="Layer_1" data-name="Layer 1" xmlns="http://www.w3.org/2000/svg" viewBox="0 0 300 600"><defs><style>.cls-1{fill:#d5ad77;}</style></defs><title>text</title><path class="cls-1" d="M92.19,80.19V51.59h9.42A8.63,8.63,0,0,1,107.86,54a7.89,7.89,0,0,1,2.46,5.9,6.74,6.74,0,0,1-3.2,5.75,8,8,0,0,1,3.16,2.56,6,6,0,0,1,1.19,3.64,7.85,7.85,0,0,1-2.5,6.06,9,9,0,0,1-6.32,2.3ZM101,56.37H97.15v7.17h4.28a3.94,3.94,0,0,0,2.84-1,3.54,3.54,0,0,0,1.1-2.64,3.06,3.06,0,0,0-1.21-2.53A5,5,0,0,0,101,56.37Zm.82,11.47H97.15v7.58h4.53a4.65,4.65,0,0,0,3.24-1.08,3.58,3.58,0,0,0,1.19-2.77A3.52,3.52,0,0,0,105,68.86,4.56,4.56,0,0,0,101.8,67.84Z"/><path class="cls-1" d="M147.77,65.87A14.86,14.86,0,1,1,122.4,55.38a14.86,14.86,0,0,1,25.37,10.49ZM126.18,72.7a9.41,9.41,0,0,0,13.45,0,9.84,9.84,0,0,0,0-13.69,9.41,9.41,0,0,0-13.45,0,9.87,9.87,0,0,0,0,13.69Z"/><path class="cls-1" d="M156,80.19V51.59h5V64.2l10.95-12.61h6.63L168.42,63l10.32,17.19h-6.18l-7.79-13-3.83,4.32v8.73Z"/><path class="cls-1" d="M184,80.19l11-28.6h4.85l11,28.6H205.3l-1.51-4H191l-1.52,4ZM197.41,59.6l-4.58,11.86H202Z"/><path class="cls-1" d="M91.86,124.59V96H97l8.84,14.1,9-14.1h5.62v28.6H115.1V105l-.43-.06-8.88,13.69-8.65-13.51h.09v19.45Z"/><path class="cls-1" d="M158.05,110.27a14.82,14.82,0,1,1-4.34-10.49A14.28,14.28,0,0,1,158.05,110.27Zm-21.59,6.83a9.41,9.41,0,0,0,13.45,0,9.82,9.82,0,0,0,0-13.69,9.41,9.41,0,0,0-13.45,0,9.89,9.89,0,0,0,0,13.69Zm4.23-24a2.41,2.41,0,0,1-3.51,0,2.51,2.51,0,0,1-.73-1.83,2.47,2.47,0,0,1,.71-1.81,2.5,2.5,0,0,1,1.78-.74,2.32,2.32,0,0,1,1.73.74,2.45,2.45,0,0,1,.73,1.81A2.54,2.54,0,0,1,140.69,93.05Zm8.51,0a2.74,2.74,0,0,1-3.79,0,2.42,2.42,0,0,1-.79-1.83,2.36,2.36,0,0,1,.79-1.81,2.8,2.8,0,0,1,3.79,0,2.36,2.36,0,0,1,.79,1.81A2.42,2.42,0,0,1,149.2,93.05Z"/><path class="cls-1" d="M162.27,101.14V96h23.57v5.15h-9.1v23.45h-5.37V101.14Z"/><path class="cls-1" d="M208.63,112.49H198.05v7.33h11.62v4.77h-17V96h16.65v4.78H198.05v7h10.58Z"/><path class="cls-1" d="M80.74,169v-28.6H91.93a9.64,9.64,0,0,1,6.89,2.6,8.87,8.87,0,0,1,2.75,6.78,8.57,8.57,0,0,1-2,5.8,9.16,9.16,0,0,1-5.33,3L101.87,169h-6l-7.42-10.21H86.11V169ZM91.1,145.17h-5v9.32h5a5.26,5.26,0,0,0,3.72-1.27,4.26,4.26,0,0,0,1.39-3.3,4.48,4.48,0,0,0-1.43-3.39A5.09,5.09,0,0,0,91.1,145.17Z"/><path class="cls-1" d="M125.88,156.89H115.3v7.33h11.62V169h-17v-28.6h16.65v4.78H115.3v7h10.58Z"/><path class="cls-1" d="M135.61,169v-28.6h8.16a14,14,0,0,1,10.13,4.09,13.76,13.76,0,0,1,4.21,10.31A13.37,13.37,0,0,1,153.84,165a14.59,14.59,0,0,1-10.36,4Zm8.23-23.82h-3.27v19.05h3.3a8.21,8.21,0,0,0,6.33-2.77,9.69,9.69,0,0,0,2.54-6.81,9.43,9.43,0,0,0-2.58-6.76A8.38,8.38,0,0,0,143.84,145.17Z"/><path class="cls-1" d="M162.51,169l11-28.6h4.85l11,28.6h-5.52l-1.52-4H169.55L168,169ZM176,148.4l-4.58,11.86h9.12Z"/><path class="cls-1" d="M196.07,169v-28.6h3.76l14.08,18v-18h5.36V169h-3.59l-14.24-18.2V169Z"/><path class="cls-1" d="M99.24,213.39v-28.6h5.37v28.6Z"/><path class="cls-1" d="M114.82,213.39v-28.6H123a14.06,14.06,0,0,1,10.13,4.09,13.79,13.79,0,0,1,4.2,10.31,13.39,13.39,0,0,1-4.26,10.21,14.62,14.62,0,0,1-10.37,4ZM123,189.57h-3.26v19.05h3.3a8.24,8.24,0,0,0,6.33-2.77A9.73,9.73,0,0,0,132,199a9.43,9.43,0,0,0-2.58-6.76A8.39,8.39,0,0,0,123,189.57Z"/><path class="cls-1" d="M141.72,213.39l11-28.6h4.84l11,28.6h-5.51l-1.52-4H148.76l-1.53,4Zm13.45-20.59-4.57,11.86h9.12Z"/><path class="cls-1" d="M192.33,201.44v-4.77h10.25l0,2.44a14.81,14.81,0,0,1-2.09,7.59A14.49,14.49,0,0,1,195,212a14.87,14.87,0,0,1-7.29,1.87,14.84,14.84,0,1,1,.07-29.68,14.09,14.09,0,0,1,10.66,4.63l-3.67,3.61a9.24,9.24,0,0,0-7-3.09,9.11,9.11,0,0,0-6.84,2.79,10.13,10.13,0,0,0,0,13.79,8.71,8.71,0,0,0,6.49,2.8,10.14,10.14,0,0,0,6.36-2,9.07,9.07,0,0,0,3.37-5.27Z"/></svg>