<svg id="Layer_1" data-name="Layer 1" xmlns="http://www.w3.org/2000/svg" viewBox="0 0 980 120"><defs><style>.cls-1{fill:#d4ac76;}</style></defs><title>text</title><path class="cls-1" d="M856.72,55.85a4.1,4.1,0,0,1-5.5,0,3.59,3.59,0,0,1-1.08-2.66V46.7H852v6.24a2.32,2.32,0,0,0,.52,1.55,1.78,1.78,0,0,0,1.43.61,1.81,1.81,0,0,0,1.44-.6,2.28,2.28,0,0,0,.51-1.53V46.7h1.89v6.49A3.56,3.56,0,0,1,856.72,55.85Z"/><path class="cls-1" d="M860.92,56.75v-10h3.6A3.42,3.42,0,0,1,868,50.17a3.17,3.17,0,0,1-1,2.42,3.49,3.49,0,0,1-2.5,1H862.8v3.2Zm3.44-8.24H862.8v3.37h1.59a1.77,1.77,0,0,0,1.26-.45,1.57,1.57,0,0,0,.48-1.21,1.64,1.64,0,0,0-.5-1.23A1.73,1.73,0,0,0,864.36,48.51Z"/><path class="cls-1" d="M870.52,56.75v-10h3.61a3.42,3.42,0,0,1,3.49,3.47,3.17,3.17,0,0,1-1,2.42,3.51,3.51,0,0,1-2.5,1h-1.69v3.2ZM874,48.51h-1.56v3.37H874a1.77,1.77,0,0,0,1.26-.45,1.55,1.55,0,0,0,.49-1.21,1.64,1.64,0,0,0-.5-1.23A1.74,1.74,0,0,0,874,48.51Z"/><path class="cls-1" d="M879.18,48.51V46.7h8.28v1.81h-3.2v8.24h-1.88V48.51Z"/><path class="cls-1" d="M887.55,56.75l3.88-10h1.7l3.86,10h-1.94l-.53-1.39H890l-.54,1.39Zm3.86-11.08a.86.86,0,0,1-1.23,0,.87.87,0,0,1-.26-.65.87.87,0,0,1,.88-.89.79.79,0,0,1,.6.26.82.82,0,0,1,.26.63A.9.9,0,0,1,891.41,45.67Zm.87,3.84-1.61,4.17h3.21Zm2.12-3.84a1,1,0,0,1-1.33,0,.85.85,0,0,1-.28-.65.81.81,0,0,1,.28-.63,1,1,0,0,1,1.33,0,.84.84,0,0,1,.28.63A.88.88,0,0,1,894.4,45.67Z"/><path class="cls-1" d="M907.21,55.33a5,5,0,0,1-3.73,1.59,5.1,5.1,0,0,1-3.71-1.52,5.21,5.21,0,1,1,7.41-7.33l-1.32,1.28a3.3,3.3,0,0,0-4.77,0,3.33,3.33,0,0,0-1,2.4,3.37,3.37,0,0,0,1,2.41,3.21,3.21,0,0,0,2.39,1,3.18,3.18,0,0,0,2.4-1Z"/><path class="cls-1" d="M909.68,56.75v-10h1.74v4.43l3.85-4.43h2.33l-3.55,4,3.62,6H915.5l-2.73-4.59-1.35,1.52v3.07Z"/><path class="cls-1" d="M866.84,71.75v-10h1.82l3.1,5,3.15-5h2v10H875V64.87l-.15,0-3.12,4.81-3-4.75h0v6.84Z"/><path class="cls-1" d="M885.7,67.5H882v2.57h4.08v1.68h-6v-10H886v1.68h-4v2.44h3.72Z"/><path class="cls-1" d="M888.86,71.75v-10h3.93a3.37,3.37,0,0,1,2.42.91,3.13,3.13,0,0,1,1,2.39,3,3,0,0,1-.72,2,3.21,3.21,0,0,1-1.88,1.07l2.7,3.65h-2.12l-2.6-3.59h-.82v3.59Zm3.64-8.37h-1.76v3.27h1.76a1.9,1.9,0,0,0,1.31-.44,1.65,1.65,0,0,0,0-2.35A1.77,1.77,0,0,0,892.5,63.38Z"/></svg>