<svg id="Layer_1" data-name="Layer 1" xmlns="http://www.w3.org/2000/svg" viewBox="0 0 300 600"><defs><style>.cls-1{fill:#fff;}</style></defs><title>text</title><path class="cls-1" d="M74.77,294.7V271.37H84c2.32,0,4,.57,5.17,1.71a5.45,5.45,0,0,1,1.68,4q0,4-4.13,5.26a6.24,6.24,0,0,1,3.65,2.25,6.05,6.05,0,0,1,1.2,3.68,6.28,6.28,0,0,1-1.85,4.61Q87.86,294.7,84,294.7Zm2.82-13.33h5.08c2.1,0,3.51-.41,4.22-1.21A4.18,4.18,0,0,0,88,277.33a3.3,3.3,0,0,0-1.14-2.6,5,5,0,0,0-3.39-1H77.59Zm0,10.76h6.26A5.13,5.13,0,0,0,87.38,291a3.69,3.69,0,0,0,1.25-2.89,4.93,4.93,0,0,0-.56-2.31,4.08,4.08,0,0,0-1.59-1.65,6.36,6.36,0,0,0-3.06-.58H77.59Z"/><path class="cls-1" d="M98.37,294.7H95.69V277.43h2.36v4a8.61,8.61,0,0,1,2.5-3.7,4.53,4.53,0,0,1,2.57-.85,9.3,9.3,0,0,1,1.06.07v2.56h-.54a4.75,4.75,0,0,0-3.7,1.66,6.75,6.75,0,0,0-1.57,4.36Z"/><path class="cls-1" d="M120.81,294.7h-2.43v-3.3c-1.22,2.52-3.06,3.77-5.49,3.77a5.23,5.23,0,0,1-4.16-1.74,7.39,7.39,0,0,1-1.51-5v-11h2.69v11c0,1.71.35,2.88,1.07,3.53a3.43,3.43,0,0,0,2.35,1,4,4,0,0,0,2.34-.73,5.59,5.59,0,0,0,1.76-2.1,6.43,6.43,0,0,0,.7-3v-9.73h2.68Z"/><path class="cls-1" d="M140.43,294.7h-2.78l-5.05-9.64-3.74,4.3v5.34h-2.68V271.37h2.68v14.95l8-8.89h2.87l-5.4,6.07Z"/><path class="cls-1" d="M168.41,294.7h-3l-2.35-6.82h-8.66l-2.08,6.82h-2.45l7.58-23.33h3.31Zm-5.95-9-3.62-11.21-3.6,11.21Z"/><path class="cls-1" d="M174.37,294.7h-2.92V271.37h2.92Z"/><path class="cls-1" d="M194.89,295.17a6.55,6.55,0,0,1-5.54-2.63,10.53,10.53,0,0,1-2-6.54,9.38,9.38,0,0,1,2.24-6.58,7.22,7.22,0,0,1,5.57-2.46,6.79,6.79,0,0,1,5.63,2.59,10.09,10.09,0,0,1,2.06,6.47,9.72,9.72,0,0,1-2.22,6.6A7.27,7.27,0,0,1,194.89,295.17Zm.21-2.22a4.28,4.28,0,0,0,3.44-1.69q1.38-1.69,1.38-5.26c0-2.4-.48-4.13-1.45-5.21a4.46,4.46,0,0,0-3.4-1.61,4.28,4.28,0,0,0-3.39,1.63q-1.38,1.63-1.38,5.17,0,3.74,1.38,5.36A4.35,4.35,0,0,0,195.1,293Z"/><path class="cls-1" d="M221,274.73v2.14a4.78,4.78,0,0,0-2.47.43,2.29,2.29,0,0,0-.83,1.54,6.2,6.2,0,0,1,1.66,4.17,5.37,5.37,0,0,1-1.8,4.05,6.83,6.83,0,0,1-4.85,1.69,6.66,6.66,0,0,1-1.18-.1,7.87,7.87,0,0,0-1.18-.19,2.12,2.12,0,0,0-1.11.45,1.37,1.37,0,0,0-.65,1.17,1.28,1.28,0,0,0,.94,1.33,20.22,20.22,0,0,0,4.43.4,24.64,24.64,0,0,1,4.37.4,4.44,4.44,0,0,1,2.38,1.4,3.83,3.83,0,0,1,1,2.66q0,4.94-8.68,4.94c-2.74,0-4.75-.42-6-1.24a3.8,3.8,0,0,1-1.89-3.31,3.47,3.47,0,0,1,2.63-3.46,3.25,3.25,0,0,1-1.69-2.78c0-1.34.79-2.36,2.39-3.06a5.64,5.64,0,0,1-2.24-4.56,5.27,5.27,0,0,1,1.92-4.2,6.87,6.87,0,0,1,4.66-1.64,8.33,8.33,0,0,1,3.54.73,3.29,3.29,0,0,1,1.19-2.34,5,5,0,0,1,2.82-.65ZM209.58,294a2.6,2.6,0,0,0-1.88,2.38,2.23,2.23,0,0,0,1.54,2,9.21,9.21,0,0,0,3.94.73,12.54,12.54,0,0,0,4.07-.63c1.23-.41,1.84-1.11,1.84-2.11a1.73,1.73,0,0,0-.54-1.31,2.73,2.73,0,0,0-1.5-.65q-.95-.13-3.3-.21A41.23,41.23,0,0,1,209.58,294Zm3.21-7.29a3.79,3.79,0,0,0,2.78-1.05,3.64,3.64,0,0,0,1.08-2.73,3.78,3.78,0,0,0-3.83-3.88,4,4,0,0,0-2.7,1,4.06,4.06,0,0,0-.12,5.6A3.84,3.84,0,0,0,212.79,286.7Z"/><path class="cls-1" d="M80.09,336.7H77.44a29,29,0,0,1-.31-3.12,6.21,6.21,0,0,1-6,3.59,6.06,6.06,0,0,1-4.46-1.54,5,5,0,0,1-1.56-3.69,5.18,5.18,0,0,1,2.23-4.31c1.48-1.12,4-1.68,7.55-1.68.48,0,1.24,0,2.29.06a9.93,9.93,0,0,0-.32-3,2.6,2.6,0,0,0-1.34-1.46,5.65,5.65,0,0,0-2.7-.55c-2.72,0-4.31,1-4.75,3.11l-2.48-.43q.92-4.75,7.62-4.76c2.39,0,4.07.52,5.07,1.58s1.5,2.88,1.5,5.47v7.34A14.58,14.58,0,0,0,80.09,336.7Zm-3-8.63C76,328,75.2,328,74.63,328A9.66,9.66,0,0,0,69.7,329a3.32,3.32,0,0,0-1.76,3.05,2.87,2.87,0,0,0,.94,2.16,3.9,3.9,0,0,0,2.75.89,5.11,5.11,0,0,0,4-1.77,6,6,0,0,0,1.56-4.14C77.18,328.88,77.16,328.5,77.13,328.07Z"/><path class="cls-1" d="M98.68,336.7H96.25v-3.3c-1.23,2.52-3.06,3.77-5.49,3.77a5.23,5.23,0,0,1-4.16-1.74,7.39,7.39,0,0,1-1.51-5v-11h2.69v11c0,1.71.35,2.88,1.06,3.53a3.46,3.46,0,0,0,2.35,1,4,4,0,0,0,2.35-.73,5.59,5.59,0,0,0,1.76-2.1,6.43,6.43,0,0,0,.7-3v-9.73h2.68Z"/><path class="cls-1" d="M111.87,334.87V337a19.76,19.76,0,0,1-2.46.18q-5,0-5-5.23v-10.4h-3.05v-2.11h3.05l.12-4.34,2.5-.24v4.58h3.86v2.11H107v10.85c0,1.78.92,2.66,2.77,2.66A13.71,13.71,0,0,0,111.87,334.87Z"/><path class="cls-1" d="M120.47,337.17a6.55,6.55,0,0,1-5.55-2.63,10.58,10.58,0,0,1-2-6.54,9.42,9.42,0,0,1,2.24-6.58,7.22,7.22,0,0,1,5.57-2.46,6.79,6.79,0,0,1,5.63,2.59,10,10,0,0,1,2.06,6.47,9.72,9.72,0,0,1-2.22,6.6A7.25,7.25,0,0,1,120.47,337.17Zm.2-2.22a4.26,4.26,0,0,0,3.44-1.69q1.38-1.69,1.38-5.26c0-2.4-.48-4.13-1.45-5.21a4.46,4.46,0,0,0-3.4-1.61,4.26,4.26,0,0,0-3.38,1.63q-1.4,1.63-1.39,5.17,0,3.74,1.39,5.36A4.33,4.33,0,0,0,120.67,335Z"/><path class="cls-1" d="M155.59,336.7H153V326a9.63,9.63,0,0,0-.23-2.48,2.88,2.88,0,0,0-1.12-1.52,3.13,3.13,0,0,0-2-.7,4.22,4.22,0,0,0-3,1.41,5.82,5.82,0,0,0-1.43,4.3v9.73h-2.6V325.33a4.09,4.09,0,0,0-1.08-3.21,3.41,3.41,0,0,0-2.28-.94,3.84,3.84,0,0,0-3,1.47,5.51,5.51,0,0,0-1.26,3.72V336.7h-2.56V319.43h2.3v3.32q1.93-3.79,5.32-3.79a4.46,4.46,0,0,1,3.16,1.21,5.5,5.5,0,0,1,1.67,2.92c1.19-2.76,3-4.13,5.46-4.13a4.94,4.94,0,0,1,3.08,1,4.73,4.73,0,0,1,1.73,2.32,13.05,13.05,0,0,1,.4,3.68Z"/><path class="cls-1" d="M174.46,336.7h-2.65c-.1-.55-.21-1.59-.31-3.12a6.21,6.21,0,0,1-6.05,3.59,6.06,6.06,0,0,1-4.46-1.54,5,5,0,0,1-1.56-3.69,5.18,5.18,0,0,1,2.23-4.31c1.48-1.12,4-1.68,7.55-1.68.48,0,1.24,0,2.29.06a9.93,9.93,0,0,0-.32-3,2.6,2.6,0,0,0-1.34-1.46,5.65,5.65,0,0,0-2.7-.55c-2.72,0-4.31,1-4.75,3.11l-2.48-.43q.92-4.75,7.63-4.76c2.38,0,4.06.52,5.06,1.58s1.5,2.88,1.5,5.47v7.34A14.58,14.58,0,0,0,174.46,336.7Zm-3-8.63c-1.09-.07-1.93-.11-2.5-.11a9.64,9.64,0,0,0-4.93,1.05,3.33,3.33,0,0,0-1.77,3.05,2.88,2.88,0,0,0,.95,2.16,3.9,3.9,0,0,0,2.75.89,5.09,5.09,0,0,0,4-1.77,6,6,0,0,0,1.56-4.14C171.55,328.88,171.53,328.5,171.5,328.07Z"/><path class="cls-1" d="M187.29,334.87V337a20,20,0,0,1-2.46.18q-5,0-5-5.23v-10.4h-3.06v-2.11h3.06l.12-4.34,2.5-.24v4.58h3.86v2.11h-3.86v10.85c0,1.78.92,2.66,2.77,2.66A13.71,13.71,0,0,0,187.29,334.87Z"/><path class="cls-1" d="M193,313.37v3h-2.89v-3Zm-.09,6.06V336.7h-2.68V319.43Z"/><path class="cls-1" d="M195.94,332.22l2.56-.53q.85,3.26,5.4,3.26a5.14,5.14,0,0,0,2.84-.75,2.38,2.38,0,0,0,1.16-2.12c0-1.35-1-2.21-3-2.57l-3.64-.69a6.72,6.72,0,0,1-3.4-1.61,4.16,4.16,0,0,1-1.26-3.16,4.53,4.53,0,0,1,1.73-3.63A6.9,6.9,0,0,1,203,319q5.63,0,6.94,4.39l-2.46.53a4.21,4.21,0,0,0-4.36-2.7,4.9,4.9,0,0,0-2.69.67,2.13,2.13,0,0,0-1.05,1.89c0,1.27.9,2.08,2.68,2.41l3.37.6c3.52.64,5.28,2.34,5.28,5.12a4.57,4.57,0,0,1-2,3.84,8.54,8.54,0,0,1-5.23,1.46Q197.4,337.17,195.94,332.22Z"/><path class="cls-1" d="M228.75,336.7H226l-5.05-9.64-3.74,4.3v5.34H214.5V313.37h2.68v14.95l8-8.89h2.87l-5.4,6.07Z"/><path class="cls-1" d="M81,361.43v2.11H76.86V378.7H74.18V363.54H71.24v-2.11h2.94c0-2.76.58-4.55,1.6-5.34a5.85,5.85,0,0,1,3.73-1.2,14.53,14.53,0,0,1,2.46.24v2.13a7.08,7.08,0,0,0-1.65-.22,3.74,3.74,0,0,0-2.61.78,3.92,3.92,0,0,0-.85,2.91v.7Z"/><path class="cls-1" d="M89.68,379.17a6.52,6.52,0,0,1-5.54-2.63,10.51,10.51,0,0,1-2-6.54,9.42,9.42,0,0,1,2.23-6.58A7.24,7.24,0,0,1,90,361a6.8,6.8,0,0,1,5.63,2.59A10.09,10.09,0,0,1,97.65,370a9.73,9.73,0,0,1-2.23,6.6A7.25,7.25,0,0,1,89.68,379.17Zm.21-2.22a4.26,4.26,0,0,0,3.43-1.69c.92-1.13,1.39-2.88,1.39-5.26s-.49-4.13-1.46-5.21a4.46,4.46,0,0,0-3.4-1.61,4.26,4.26,0,0,0-3.38,1.63c-.92,1.09-1.39,2.81-1.39,5.17s.47,4.28,1.39,5.36A4.34,4.34,0,0,0,89.89,377Z"/><path class="cls-1" d="M104.36,378.7h-2.68V361.43H104v4a8.61,8.61,0,0,1,2.5-3.7,4.53,4.53,0,0,1,2.57-.85c.28,0,.63,0,1.06.07v2.56h-.54a4.75,4.75,0,0,0-3.7,1.66,6.75,6.75,0,0,0-1.57,4.36Z"/><path class="cls-1" d="M114.51,378.7h-1.3V355.37h2.69v8.94c1.23-2.24,2.93-3.35,5.09-3.35a6.31,6.31,0,0,1,5,2.34q2,2.34,2,6.81a10.45,10.45,0,0,1-2,6.46,6.18,6.18,0,0,1-5.14,2.6,5.9,5.9,0,0,1-5.4-3.33Zm1.39-6.77a5.25,5.25,0,0,0,1.63,3.86,4.75,4.75,0,0,0,3.06,1.2,3.89,3.89,0,0,0,3.31-1.78,8.32,8.32,0,0,0,1.26-4.88,9.7,9.7,0,0,0-1.22-5.24,3.78,3.78,0,0,0-3.37-1.91,4.19,4.19,0,0,0-3,1.36,5.71,5.71,0,0,0-1.62,3.51Z"/><path class="cls-1" d="M143.41,373.55l2.5.51a7.08,7.08,0,0,1-2.67,3.67,7.72,7.72,0,0,1-4.66,1.44,7.29,7.29,0,0,1-5.73-2.48,10.85,10.85,0,0,1,.09-13.19,7.29,7.29,0,0,1,5.7-2.54,6.92,6.92,0,0,1,5.45,2.34q2.06,2.34,2.11,7H133.65q0,3.92,1.64,5.28a5.31,5.31,0,0,0,3.47,1.37A4.74,4.74,0,0,0,143.41,373.55Zm-.15-5.25a7.41,7.41,0,0,0-.48-2.58,4.47,4.47,0,0,0-1.5-1.92,4.14,4.14,0,0,0-2.55-.79,4.57,4.57,0,0,0-3.39,1.43,6,6,0,0,0-1.57,3.86Z"/><path class="cls-1" d="M163.71,355.37V378.7h-2.42v-3a5.84,5.84,0,0,1-5.46,3.43,6,6,0,0,1-5-2.54,10.22,10.22,0,0,1-1.95-6.42,10.89,10.89,0,0,1,1.93-6.61A6.06,6.06,0,0,1,156,361a5.93,5.93,0,0,1,5.07,2.83v-8.42ZM161,368.1a4.88,4.88,0,0,0-1.38-3.64,4.47,4.47,0,0,0-3.23-1.37,3.92,3.92,0,0,0-3.29,1.78,8.37,8.37,0,0,0-1.29,5,9.6,9.6,0,0,0,1.19,5.28,3.68,3.68,0,0,0,3.25,1.81,4.38,4.38,0,0,0,3.32-1.57,5.33,5.33,0,0,0,1.43-3.69Z"/><path class="cls-1" d="M171.76,378.7h-2.68V361.43h2.36v4a8.7,8.7,0,0,1,2.5-3.7,4.54,4.54,0,0,1,2.58-.85c.27,0,.62,0,1,.07v2.56H177a4.74,4.74,0,0,0-3.69,1.66,6.76,6.76,0,0,0-1.58,4.36Z"/><path class="cls-1" d="M183.38,355.37v3H180.5v-3Zm-.08,6.06V378.7h-2.68V361.43Z"/><path class="cls-1" d="M202.25,378.7h-2.51V367.6a4.49,4.49,0,0,0-1-3.36,3.58,3.58,0,0,0-2.53-1,4.36,4.36,0,0,0-3.45,1.64,6.52,6.52,0,0,0-1.39,4.33v9.47h-2.68V361.43h2.49v3.18q2.1-3.64,5.46-3.65a5.4,5.4,0,0,1,3.29,1,5.32,5.32,0,0,1,1.86,2.24,13.91,13.91,0,0,1,.5,4.51Z"/><path class="cls-1" d="M221.72,358.73v2.14a4.75,4.75,0,0,0-2.47.43,2.25,2.25,0,0,0-.83,1.54,6.25,6.25,0,0,1,1.66,4.17,5.35,5.35,0,0,1-1.81,4.05,6.81,6.81,0,0,1-4.84,1.69,6.58,6.58,0,0,1-1.18-.1,8.07,8.07,0,0,0-1.18-.19,2.06,2.06,0,0,0-1.11.45,1.37,1.37,0,0,0-.65,1.17,1.27,1.27,0,0,0,.94,1.33,20.13,20.13,0,0,0,4.43.4,24.51,24.51,0,0,1,4.36.4,4.47,4.47,0,0,1,2.39,1.4,3.83,3.83,0,0,1,1,2.66q0,4.94-8.68,4.94c-2.75,0-4.75-.42-6-1.24a3.8,3.8,0,0,1-1.89-3.31,3.48,3.48,0,0,1,2.64-3.46,3.27,3.27,0,0,1-1.7-2.78q0-2,2.4-3.06a5.61,5.61,0,0,1-2.24-4.56,5.29,5.29,0,0,1,1.91-4.2A6.9,6.9,0,0,1,213.5,361a8.33,8.33,0,0,1,3.54.73,3.28,3.28,0,0,1,1.18-2.34,5,5,0,0,1,2.83-.65ZM210.3,378a2.59,2.59,0,0,0-1.88,2.37,2.25,2.25,0,0,0,1.55,2,9.18,9.18,0,0,0,3.94.73,12.48,12.48,0,0,0,4.06-.63c1.24-.41,1.85-1.11,1.85-2.11a1.7,1.7,0,0,0-.55-1.31,2.66,2.66,0,0,0-1.49-.65c-.63-.09-1.74-.16-3.31-.21C212.59,378.19,211.2,378.11,210.3,378Zm3.21-7.3a3.83,3.83,0,0,0,2.79-1.05,3.64,3.64,0,0,0,1.08-2.73,3.78,3.78,0,0,0-3.83-3.88,4,4,0,0,0-2.7,1,4.06,4.06,0,0,0-.12,5.6A3.81,3.81,0,0,0,213.51,370.7Z"/><path class="cls-1" d="M81.77,418.87V421a20,20,0,0,1-2.46.18q-5,0-5-5.23v-10.4H71.24v-2.1H74.3l.12-4.35,2.5-.23v4.58h3.86v2.1H76.92v10.85q0,2.67,2.76,2.67A14,14,0,0,0,81.77,418.87Z"/><path class="cls-1" d="M87.48,397.37v3H84.59v-3Zm-.09,6.07V420.7H84.71V403.44Z"/><path class="cls-1" d="M95.42,420.7H92.74V397.37h2.68Z"/><path class="cls-1" d="M123,420.7h-2.65c-.1-.55-.2-1.59-.31-3.11a6.21,6.21,0,0,1-6,3.58,6.07,6.07,0,0,1-4.46-1.54,5,5,0,0,1-1.55-3.69,5.2,5.2,0,0,1,2.22-4.31q2.22-1.68,7.55-1.68c.48,0,1.25,0,2.29.06a10,10,0,0,0-.31-3,2.63,2.63,0,0,0-1.34-1.46,5.71,5.71,0,0,0-2.7-.55q-4.1,0-4.75,3.11l-2.48-.42q.9-4.77,7.62-4.77c2.38,0,4.07.52,5.07,1.58s1.49,2.88,1.49,5.47v7.34A14.58,14.58,0,0,0,123,420.7Zm-3-8.63c-1.09-.07-1.92-.11-2.49-.11a9.68,9.68,0,0,0-4.94,1.05,3.35,3.35,0,0,0-1.76,3.05,2.88,2.88,0,0,0,1,2.16,3.88,3.88,0,0,0,2.74.89,5.08,5.08,0,0,0,4-1.77,6.06,6.06,0,0,0,1.57-4.14C120.14,412.88,120.12,412.5,120.08,412.07ZM119,398A3,3,0,0,1,116,401a2.89,2.89,0,0,1-2.1-.87A2.78,2.78,0,0,1,113,398a2.87,2.87,0,0,1,.88-2.09,2.94,2.94,0,0,1,2.18-.89,2.73,2.73,0,0,1,2,.88A2.91,2.91,0,0,1,119,398Zm-1.42,0a1.54,1.54,0,0,0-.45-1.11,1.38,1.38,0,0,0-1-.46,1.62,1.62,0,0,0-1.19.46,1.49,1.49,0,0,0-.46,1.07,1.59,1.59,0,0,0,1.58,1.57,1.44,1.44,0,0,0,1.07-.45A1.47,1.47,0,0,0,117.54,398Z"/><path class="cls-1" d="M134.47,416.22l2.57-.53c.57,2.18,2.37,3.26,5.4,3.26a5.1,5.1,0,0,0,2.83-.75,2.37,2.37,0,0,0,1.17-2.11c0-1.36-1-2.22-3-2.58l-3.64-.69a6.68,6.68,0,0,1-3.4-1.61,4.16,4.16,0,0,1-1.27-3.16,4.56,4.56,0,0,1,1.73-3.63,6.93,6.93,0,0,1,4.65-1.46q5.63,0,6.94,4.39l-2.46.53a4.21,4.21,0,0,0-4.36-2.7,4.9,4.9,0,0,0-2.69.67,2.13,2.13,0,0,0-1,1.89c0,1.27.89,2.08,2.68,2.41l3.37.6q5.28,1,5.28,5.12a4.57,4.57,0,0,1-2,3.84,8.52,8.52,0,0,1-5.23,1.46Q135.93,421.17,134.47,416.22Z"/><path class="cls-1" d="M160.86,418.87V421a19.89,19.89,0,0,1-2.46.18q-5,0-5-5.23v-10.4h-3.06v-2.1h3.06l.12-4.35,2.5-.23v4.58h3.86v2.1H156v10.85c0,1.78.92,2.67,2.77,2.67A13.82,13.82,0,0,0,160.86,418.87Z"/><path class="cls-1" d="M175.65,403.44l-6.92,19.27q-1.51,4.17-4.81,4.17a8.58,8.58,0,0,1-2.31-.36v-2.1a8.27,8.27,0,0,0,1.8.24,3.18,3.18,0,0,0,2.14-.73,8.19,8.19,0,0,0,1.72-3.59l-6-16.9H164l4.63,13,4.72-13Z"/><path class="cls-1" d="M181,420.7h-2.68V403.44h2.36v4a8.61,8.61,0,0,1,2.5-3.7,4.58,4.58,0,0,1,2.57-.85c.27,0,.63,0,1.06.07v2.56h-.55a4.74,4.74,0,0,0-3.69,1.66,6.75,6.75,0,0,0-1.57,4.36Z"/><path class="cls-1" d="M203.94,420.7h-2.78l-5-9.64-3.74,4.3v5.34h-2.69V397.37h2.69v14.95l8-8.88h2.87l-5.39,6.06Z"/><path class="cls-1" d="M217.86,415.55l2.49.52a7,7,0,0,1-2.67,3.66,7.7,7.7,0,0,1-4.66,1.44,7.26,7.26,0,0,1-5.73-2.48,10.89,10.89,0,0,1,.09-13.19,7.31,7.31,0,0,1,5.71-2.54,6.89,6.89,0,0,1,5.44,2.34c1.37,1.56,2.08,3.89,2.11,7H208.1c0,2.6.54,4.36,1.64,5.28a5.33,5.33,0,0,0,3.47,1.36A4.74,4.74,0,0,0,217.86,415.55Zm-.16-5.24a7.32,7.32,0,0,0-.48-2.58,4.3,4.3,0,0,0-1.5-1.93,4.14,4.14,0,0,0-2.55-.79,4.57,4.57,0,0,0-3.39,1.43,5.93,5.93,0,0,0-1.56,3.87Z"/><path class="cls-1" d="M60.42,439.37V462.7H58v-3a5.84,5.84,0,0,1-5.46,3.43,6,6,0,0,1-5-2.54,10.22,10.22,0,0,1-2-6.42,10.89,10.89,0,0,1,1.93-6.61A6,6,0,0,1,52.67,445a5.93,5.93,0,0,1,5.07,2.83v-8.42ZM57.74,452.1a4.9,4.9,0,0,0-1.38-3.64,4.47,4.47,0,0,0-3.23-1.37,3.92,3.92,0,0,0-3.29,1.78,8.39,8.39,0,0,0-1.29,5,9.7,9.7,0,0,0,1.18,5.28A3.71,3.71,0,0,0,53,461a4.38,4.38,0,0,0,3.32-1.57,5.33,5.33,0,0,0,1.43-3.69Z"/><path class="cls-1" d="M68.56,439.37v3H65.67v-3Zm-.09,6.07V462.7H65.79V445.44Z"/><path class="cls-1" d="M87.43,462.7H84.91V451.6a4.45,4.45,0,0,0-1-3.36,3.57,3.57,0,0,0-2.53-1,4.33,4.33,0,0,0-3.44,1.65,6.43,6.43,0,0,0-1.39,4.32v9.47H73.82V445.44h2.5v3.17q2.1-3.64,5.45-3.65a5.38,5.38,0,0,1,3.29,1,5.25,5.25,0,0,1,1.86,2.24,13.59,13.59,0,0,1,.51,4.52Z"/><path class="cls-1" d="M104.31,439.37v3h-2.89v-3Zm-.08,6.07V462.7h-2.69V445.44Z"/><path class="cls-1" d="M123.18,462.7h-2.51V451.6a4.45,4.45,0,0,0-1-3.36,3.57,3.57,0,0,0-2.53-1,4.34,4.34,0,0,0-3.44,1.65,6.43,6.43,0,0,0-1.39,4.32v9.47h-2.69V445.44h2.5v3.17q2.1-3.64,5.45-3.65a5.38,5.38,0,0,1,3.29,1,5.18,5.18,0,0,1,1.86,2.24,13.59,13.59,0,0,1,.51,4.52Z"/><path class="cls-1" d="M142.15,462.7h-2.51V451.6a4.45,4.45,0,0,0-1-3.36,3.57,3.57,0,0,0-2.53-1,4.34,4.34,0,0,0-3.44,1.65,6.43,6.43,0,0,0-1.39,4.32v9.47h-2.69V445.44H131v3.17q2.1-3.64,5.45-3.65a5.38,5.38,0,0,1,3.29,1,5.18,5.18,0,0,1,1.86,2.24,13.59,13.59,0,0,1,.51,4.52Z"/><path class="cls-1" d="M153.7,463.17a6.55,6.55,0,0,1-5.55-2.63,10.57,10.57,0,0,1-2-6.53,9.43,9.43,0,0,1,2.24-6.59A7.22,7.22,0,0,1,154,445a6.82,6.82,0,0,1,5.64,2.59,10.08,10.08,0,0,1,2,6.47,9.72,9.72,0,0,1-2.22,6.6A7.25,7.25,0,0,1,153.7,463.17Zm.21-2.22a4.26,4.26,0,0,0,3.43-1.69q1.38-1.69,1.38-5.26c0-2.4-.48-4.13-1.45-5.21a4.46,4.46,0,0,0-3.4-1.61,4.26,4.26,0,0,0-3.38,1.63q-1.4,1.63-1.39,5.17c0,2.5.46,4.28,1.39,5.36A4.31,4.31,0,0,0,153.91,461Z"/><path class="cls-1" d="M177.75,445.44l-6,17.26H169l-6.18-17.26h3l4.81,14,4.75-14Z"/><path class="cls-1" d="M194,462.7h-2.65a29.05,29.05,0,0,1-.31-3.11,6.22,6.22,0,0,1-6.05,3.58,6,6,0,0,1-4.46-1.54,5,5,0,0,1-1.56-3.69,5.2,5.2,0,0,1,2.22-4.31c1.49-1.12,4-1.68,7.56-1.68.48,0,1.24,0,2.29.06a9.93,9.93,0,0,0-.32-3,2.63,2.63,0,0,0-1.34-1.46,5.65,5.65,0,0,0-2.7-.55c-2.72,0-4.31,1-4.75,3.11l-2.48-.42q.92-4.77,7.62-4.77c2.38,0,4.07.52,5.07,1.58s1.5,2.88,1.5,5.47v7.34A14.58,14.58,0,0,0,194,462.7Zm-3-8.63c-1.1-.07-1.93-.11-2.5-.11a9.64,9.64,0,0,0-4.93,1.05,3.34,3.34,0,0,0-1.77,3.05,2.88,2.88,0,0,0,.95,2.16,3.9,3.9,0,0,0,2.75.89,5.11,5.11,0,0,0,4-1.77,6,6,0,0,0,1.56-4.14C191.11,454.88,191.09,454.5,191.06,454.07Z"/><path class="cls-1" d="M196.7,458.22l2.56-.53c.57,2.18,2.37,3.26,5.4,3.26a5.14,5.14,0,0,0,2.84-.75,2.38,2.38,0,0,0,1.16-2.11c0-1.36-1-2.22-3-2.58l-3.64-.69a6.72,6.72,0,0,1-3.4-1.61,4.16,4.16,0,0,1-1.26-3.16,4.53,4.53,0,0,1,1.73-3.63,6.92,6.92,0,0,1,4.64-1.46q5.63,0,6.94,4.39l-2.46.53a4.21,4.21,0,0,0-4.36-2.7,4.9,4.9,0,0,0-2.69.67,2.13,2.13,0,0,0-1,1.89c0,1.27.89,2.08,2.68,2.41l3.37.6q5.28,1,5.28,5.12a4.56,4.56,0,0,1-2,3.84,8.54,8.54,0,0,1-5.23,1.46Q198.15,463.17,196.7,458.22Z"/><path class="cls-1" d="M217.94,445.25v18c0,2-.48,3.44-1.44,4.23a5.35,5.35,0,0,1-3.53,1.2,10.92,10.92,0,0,1-2.51-.36v-2.12a8.9,8.9,0,0,0,2,.26,2.81,2.81,0,0,0,2.18-.73,3.69,3.69,0,0,0,.66-2.5v-18Zm.14-5.88v3h-3v-3Z"/><path class="cls-1" d="M229.46,463.17a6.55,6.55,0,0,1-5.55-2.63,10.57,10.57,0,0,1-2-6.53,9.43,9.43,0,0,1,2.24-6.59,7.22,7.22,0,0,1,5.57-2.46,6.79,6.79,0,0,1,5.63,2.59,10,10,0,0,1,2.06,6.47,9.72,9.72,0,0,1-2.22,6.6A7.25,7.25,0,0,1,229.46,463.17Zm.2-2.22a4.26,4.26,0,0,0,3.44-1.69q1.38-1.69,1.38-5.26c0-2.4-.48-4.13-1.45-5.21a4.46,4.46,0,0,0-3.4-1.61,4.26,4.26,0,0,0-3.38,1.63q-1.4,1.63-1.39,5.17c0,2.5.46,4.28,1.39,5.36A4.3,4.3,0,0,0,229.66,461Z"/><path class="cls-1" d="M255.06,462.7h-2.51V451.6a4.49,4.49,0,0,0-1-3.36,3.58,3.58,0,0,0-2.53-1,4.34,4.34,0,0,0-3.45,1.65,6.43,6.43,0,0,0-1.39,4.32v9.47h-2.68V445.44H244v3.17q2.1-3.64,5.45-3.65a5.36,5.36,0,0,1,3.29,1,5.28,5.28,0,0,1,1.87,2.24,13.94,13.94,0,0,1,.5,4.52Z"/></svg>