<svg id="Layer_1" data-name="Layer 1" xmlns="http://www.w3.org/2000/svg" viewBox="0 0 300 600"><defs><style>.cls-1{fill:#fff;}</style></defs><title>text</title><path class="cls-1" d="M85.19,107.6h9.45v1.75H87.29v5.15h6.2v1.78h-6.2v6h7.6V124h-9.7Z"/><path class="cls-1" d="M98.11,111.85h1.7l.18,1.75h.07a5.73,5.73,0,0,1,4.08-2c2.55,0,3.7,1.65,3.7,4.75V124h-2v-7.42c0-2.28-.7-3.25-2.3-3.25-1.25,0-2.1.65-3.33,1.87V124h-2Z"/><path class="cls-1" d="M116.34,111.55c3.1,0,4.85,2.23,4.85,5.7a7.2,7.2,0,0,1-.08,1.13h-8.2c.15,2.62,1.73,4.27,4,4.27a5.47,5.47,0,0,0,3-1l.72,1.35a7.2,7.2,0,0,1-4,1.25c-3.25,0-5.82-2.37-5.82-6.35S113.56,111.55,116.34,111.55Zm3,5.48c0-2.48-1.1-3.85-3-3.85-1.7,0-3.25,1.4-3.5,3.85Z"/><path class="cls-1" d="M124.19,106.2h2v15.5c0,.65.27.9.57.9a1.68,1.68,0,0,0,.45,0l.28,1.55a2.72,2.72,0,0,1-1.18.2c-1.55,0-2.17-1-2.17-2.75Z"/><path class="cls-1" d="M134.16,111.85h2.1l1.8,7c.28,1.15.5,2.25.73,3.37h.1c.27-1.12.52-2.25.82-3.37l1.88-7h2l1.89,7c.31,1.15.58,2.25.85,3.37h.11c.27-1.12.49-2.22.74-3.37l1.78-7h1.95L147.66,124h-2.5l-1.75-6.52c-.3-1.15-.52-2.28-.82-3.5h-.1c-.28,1.22-.53,2.37-.85,3.52l-1.7,6.5h-2.4Z"/><path class="cls-1" d="M153.19,108a1.43,1.43,0,0,1,2.85,0,1.43,1.43,0,0,1-2.85,0Zm.37,3.82h2.05V124h-2.05Z"/><path class="cls-1" d="M159.71,106.2h2v15.5c0,.65.28.9.58.9a1.76,1.76,0,0,0,.45,0l.27,1.55a2.64,2.64,0,0,1-1.17.2c-1.55,0-2.18-1-2.18-2.75Z"/><path class="cls-1" d="M166.09,106.2h2v15.5c0,.65.27.9.57.9a1.68,1.68,0,0,0,.45,0l.28,1.55a2.72,2.72,0,0,1-1.18.2c-1.55,0-2.17-1-2.17-2.75Z"/><path class="cls-1" d="M177.34,111.85h2.07v7.43c0,2.27.68,3.25,2.28,3.25,1.25,0,2.12-.63,3.27-2v-8.63h2V124h-1.7l-.18-1.9h-.07a5.11,5.11,0,0,1-4,2.2c-2.57,0-3.72-1.65-3.72-4.75Z"/><path class="cls-1" d="M190.79,121.25a5.45,5.45,0,0,0,3.57,1.45c1.6,0,2.4-.85,2.4-1.9,0-1.25-1.45-1.8-2.77-2.3-1.73-.62-3.63-1.45-3.63-3.5s1.55-3.45,4.18-3.45a6.08,6.08,0,0,1,3.77,1.38l-1,1.3a4.47,4.47,0,0,0-2.77-1.08c-1.52,0-2.22.83-2.22,1.75,0,1.13,1.32,1.58,2.7,2.1,1.74.65,3.69,1.38,3.69,3.68,0,2-1.57,3.62-4.44,3.62a7.31,7.31,0,0,1-4.53-1.67Z"/><path class="cls-1" d="M206.13,111.55c3.1,0,4.85,2.23,4.85,5.7a7.33,7.33,0,0,1-.07,1.13h-8.2c.15,2.62,1.73,4.27,4,4.27a5.43,5.43,0,0,0,3-1l.73,1.35a7.2,7.2,0,0,1-4,1.25c-3.25,0-5.82-2.37-5.82-6.35S203.36,111.55,206.13,111.55Zm3.05,5.48c0-2.48-1.1-3.85-3-3.85-1.7,0-3.24,1.4-3.49,3.85Z"/><path class="cls-1" d="M70.15,137.6h5c3.62,0,6,1.23,6,4.83,0,3.45-2.48,5.07-6,5.07h-3V154h-2.1Zm4.77,8.2c2.88,0,4.25-1.05,4.25-3.37s-1.42-3.15-4.25-3.15H72.25v6.52Z"/><path class="cls-1" d="M88.42,141.55c3,0,5.63,2.33,5.63,6.4s-2.65,6.35-5.63,6.35S82.8,152,82.8,148,85.45,141.55,88.42,141.55Zm0,11c2.1,0,3.5-1.87,3.5-4.65s-1.4-4.7-3.5-4.7-3.49,1.9-3.49,4.7S86.35,152.6,88.42,152.6Z"/><path class="cls-1" d="M95.7,141.85h2.1l1.8,7c.28,1.15.5,2.25.72,3.37h.1c.28-1.12.53-2.25.83-3.37l1.87-7h2l1.9,7c.3,1.15.58,2.25.85,3.37h.1c.28-1.12.5-2.22.75-3.37l1.78-7h2L109.2,154h-2.5L105,147.48c-.3-1.15-.53-2.28-.83-3.5H104c-.27,1.22-.52,2.37-.85,3.52l-1.7,6.5H99.08Z"/><path class="cls-1" d="M119.55,141.55c3.1,0,4.85,2.23,4.85,5.7a7.2,7.2,0,0,1-.08,1.13h-8.19c.15,2.62,1.72,4.27,4,4.27a5.47,5.47,0,0,0,3-1l.72,1.35a7.2,7.2,0,0,1-4,1.25c-3.24,0-5.82-2.37-5.82-6.35S116.78,141.55,119.55,141.55Zm3,5.48c0-2.48-1.1-3.85-3-3.85-1.7,0-3.25,1.4-3.5,3.85Z"/><path class="cls-1" d="M127.4,136.2h2v15.5c0,.65.27.9.57.9a1.68,1.68,0,0,0,.45,0l.28,1.55a2.72,2.72,0,0,1-1.18.2c-1.55,0-2.17-1-2.17-2.75Z"/><path class="cls-1" d="M138.5,151.25a5.45,5.45,0,0,0,3.57,1.45c1.6,0,2.4-.85,2.4-1.9,0-1.25-1.45-1.8-2.77-2.3-1.73-.62-3.62-1.45-3.62-3.5s1.54-3.45,4.17-3.45a6.05,6.05,0,0,1,3.77,1.38l-1,1.3a4.5,4.5,0,0,0-2.78-1.08c-1.52,0-2.22.83-2.22,1.75,0,1.13,1.32,1.58,2.7,2.1,1.75.65,3.7,1.38,3.7,3.68,0,2-1.58,3.62-4.45,3.62a7.28,7.28,0,0,1-4.52-1.67Z"/><path class="cls-1" d="M154,141.55c3,0,5.63,2.33,5.63,6.4S157,154.3,154,154.3,148.4,152,148.4,148,151.05,141.55,154,141.55Zm0,11c2.1,0,3.5-1.87,3.5-4.65s-1.4-4.7-3.5-4.7-3.5,1.9-3.5,4.7S152,152.6,154,152.6Z"/><path class="cls-1" d="M175.32,153.85a7.32,7.32,0,0,1-2.25.45c-2.6,0-3.47-1.65-3.47-4.05v-6.72h-4.35V154H163.2V143.53h-1.65V142l1.65-.13v-1.92c0-2.48,1.12-4,3.55-4a5.58,5.58,0,0,1,2,.4l-.45,1.58a3.39,3.39,0,0,0-1.37-.3c-1.15,0-1.7.8-1.7,2.35v1.92h4.45l.25-3.4h1.7v3.4H175v1.68h-3.3v6.75c0,1.5.5,2.35,1.9,2.35a4.43,4.43,0,0,0,1.37-.33Z"/><path class="cls-1" d="M176.25,141.85h2.1l1.8,7c.27,1.15.5,2.25.72,3.37h.1c.28-1.12.53-2.25.83-3.37l1.87-7h2l1.9,7c.3,1.15.58,2.25.85,3.37h.1c.28-1.12.5-2.22.75-3.37l1.78-7H193L189.75,154h-2.5l-1.75-6.52c-.3-1.15-.53-2.28-.83-3.5h-.1c-.27,1.22-.52,2.37-.85,3.52L182,154h-2.4Z"/><path class="cls-1" d="M202.27,146.3c0-1.55-.52-3.05-2.5-3.05a6.53,6.53,0,0,0-3.62,1.3l-.83-1.42a9,9,0,0,1,4.78-1.58c3,0,4.22,2,4.22,5V154h-1.7l-.17-1.45h0a6.63,6.63,0,0,1-4,1.75,3.31,3.31,0,0,1-3.57-3.45C194.8,148.2,197.1,146.88,202.27,146.3ZM199,152.65a5,5,0,0,0,3.32-1.62v-3.38c-4.07.5-5.45,1.5-5.45,3C196.82,152.08,197.75,152.65,199,152.65Z"/><path class="cls-1" d="M208.2,141.85h1.7l.17,2.2h.08a4.15,4.15,0,0,1,3.45-2.5,3.11,3.11,0,0,1,1.3.25l-.4,1.8a3.55,3.55,0,0,0-1.18-.2c-1,0-2.25.75-3.07,2.8V154H208.2Z"/><path class="cls-1" d="M221.17,141.55c3.1,0,4.85,2.23,4.85,5.7a7.33,7.33,0,0,1-.07,1.13h-8.2c.15,2.62,1.72,4.27,4.05,4.27a5.43,5.43,0,0,0,3-1l.73,1.35a7.2,7.2,0,0,1-4,1.25c-3.25,0-5.83-2.37-5.83-6.35S218.4,141.55,221.17,141.55Zm3.05,5.48c0-2.48-1.1-3.85-3-3.85-1.7,0-3.25,1.4-3.5,3.85Z"/><path class="cls-1" d="M42.73,173.53h-1.8V172l1.9-.13.25-3.4H44.8v3.4h3.28v1.68H44.8v6.75c0,1.5.48,2.35,1.88,2.35a4.43,4.43,0,0,0,1.37-.33l.4,1.55a7.32,7.32,0,0,1-2.25.45c-2.6,0-3.47-1.65-3.47-4.05Z"/><path class="cls-1" d="M55.3,171.55c3,0,5.62,2.33,5.62,6.4s-2.65,6.35-5.62,6.35S49.68,182,49.68,178,52.33,171.55,55.3,171.55Zm0,11c2.1,0,3.5-1.87,3.5-4.65s-1.4-4.7-3.5-4.7-3.5,1.9-3.5,4.7S53.23,182.6,55.3,182.6Z"/><path class="cls-1" d="M68.8,168a1.43,1.43,0,1,1,1.43,1.32A1.34,1.34,0,0,1,68.8,168Zm.38,3.82h2V184h-2Z"/><path class="cls-1" d="M75.33,171.85H77l.17,1.75h.08a5.71,5.71,0,0,1,4.07-2c2.55,0,3.7,1.65,3.7,4.75V184H83v-7.42c0-2.28-.7-3.25-2.3-3.25-1.25,0-2.1.65-3.32,1.87V184h-2Z"/><path class="cls-1" d="M94,171.55A5,5,0,0,1,97.5,173l-1,1.33A3.63,3.63,0,0,0,94,173.25c-2.19,0-3.79,1.9-3.79,4.7s1.52,4.65,3.75,4.65a4.31,4.31,0,0,0,2.84-1.22l.93,1.35a6,6,0,0,1-4,1.57c-3.22,0-5.7-2.32-5.7-6.35S90.83,171.55,94,171.55Z"/><path class="cls-1" d="M100.4,171.85h1.7l.18,2.2h.07a4.18,4.18,0,0,1,3.45-2.5,3.11,3.11,0,0,1,1.3.25l-.4,1.8a3.55,3.55,0,0,0-1.18-.2c-1,0-2.24.75-3.07,2.8V184h-2Z"/><path class="cls-1" d="M113.38,171.55c3.09,0,4.84,2.23,4.84,5.7a7.33,7.33,0,0,1-.07,1.13H110c.15,2.62,1.73,4.27,4,4.27a5.43,5.43,0,0,0,3-1l.73,1.35a7.2,7.2,0,0,1-4,1.25c-3.25,0-5.82-2.37-5.82-6.35S110.6,171.55,113.38,171.55Zm3,5.48c0-2.48-1.1-3.85-3-3.85-1.69,0-3.24,1.4-3.49,3.85Z"/><path class="cls-1" d="M127.75,176.3c0-1.55-.53-3.05-2.5-3.05a6.53,6.53,0,0,0-3.62,1.3l-.83-1.42a9,9,0,0,1,4.77-1.58c3,0,4.23,2,4.23,5V184h-1.7l-.18-1.45h0a6.58,6.58,0,0,1-4,1.75,3.31,3.31,0,0,1-3.57-3.45C120.28,178.2,122.58,176.88,127.75,176.3Zm-3.33,6.35a5,5,0,0,0,3.33-1.62v-3.38c-4.08.5-5.45,1.5-5.45,3A1.86,1.86,0,0,0,124.42,182.65Z"/><path class="cls-1" d="M133.35,181.25a5.47,5.47,0,0,0,3.57,1.45c1.6,0,2.4-.85,2.4-1.9,0-1.25-1.45-1.8-2.77-2.3-1.72-.62-3.62-1.45-3.62-3.5s1.55-3.45,4.17-3.45a6.05,6.05,0,0,1,3.77,1.38l-1,1.3a4.5,4.5,0,0,0-2.78-1.08c-1.52,0-2.22.83-2.22,1.75,0,1.13,1.32,1.58,2.7,2.1,1.75.65,3.7,1.38,3.7,3.68,0,2-1.58,3.62-4.45,3.62a7.31,7.31,0,0,1-4.52-1.67Z"/><path class="cls-1" d="M148.7,171.55c3.1,0,4.85,2.23,4.85,5.7a7.2,7.2,0,0,1-.08,1.13h-8.2c.15,2.62,1.73,4.27,4,4.27a5.47,5.47,0,0,0,3-1l.72,1.35a7.2,7.2,0,0,1-4,1.25c-3.25,0-5.82-2.37-5.82-6.35S145.92,171.55,148.7,171.55Zm3.05,5.48c0-2.48-1.1-3.85-3-3.85-1.7,0-3.25,1.4-3.5,3.85Z"/><path class="cls-1" d="M161.6,171.85h1.7l.17,2.2h.08a4.15,4.15,0,0,1,3.45-2.5,3.11,3.11,0,0,1,1.3.25l-.4,1.8a3.55,3.55,0,0,0-1.18-.2c-1,0-2.25.75-3.07,2.8V184H161.6Z"/><path class="cls-1" d="M174.57,171.55c3.1,0,4.85,2.23,4.85,5.7a7.33,7.33,0,0,1-.07,1.13h-8.2c.15,2.62,1.72,4.27,4,4.27a5.43,5.43,0,0,0,3-1l.73,1.35a7.2,7.2,0,0,1-4,1.25c-3.25,0-5.82-2.37-5.82-6.35S171.8,171.55,174.57,171.55Zm3.05,5.48c0-2.48-1.1-3.85-3-3.85-1.7,0-3.25,1.4-3.5,3.85Z"/><path class="cls-1" d="M180.8,171.85h2.12l2.3,6.9c.35,1.2.75,2.43,1.13,3.58h.1c.35-1.15.75-2.38,1.1-3.58l2.3-6.9h2L187.57,184h-2.4Z"/><path class="cls-1" d="M198.67,171.55c3.1,0,4.85,2.23,4.85,5.7a7.33,7.33,0,0,1-.07,1.13h-8.2c.15,2.62,1.72,4.27,4.05,4.27a5.43,5.43,0,0,0,3-1l.73,1.35a7.2,7.2,0,0,1-4,1.25c-3.25,0-5.83-2.37-5.83-6.35S195.9,171.55,198.67,171.55Zm3.05,5.48c0-2.48-1.1-3.85-3-3.85-1.7,0-3.25,1.4-3.5,3.85Z"/><path class="cls-1" d="M206.52,171.85h1.7l.18,1.75h.07a5.73,5.73,0,0,1,4.08-2c2.55,0,3.7,1.65,3.7,4.75V184H214.2v-7.42c0-2.28-.7-3.25-2.3-3.25-1.25,0-2.1.65-3.33,1.87V184h-2Z"/><path class="cls-1" d="M220,171.85h2.08v7.43c0,2.27.67,3.25,2.27,3.25,1.25,0,2.13-.63,3.28-2.05v-8.63h2V184H228l-.18-1.9h-.07a5.14,5.14,0,0,1-4,2.2c-2.58,0-3.73-1.65-3.73-4.75Z"/><path class="cls-1" d="M238.35,171.55c3.1,0,4.85,2.23,4.85,5.7a7.2,7.2,0,0,1-.08,1.13h-8.2c.15,2.62,1.73,4.27,4.05,4.27a5.47,5.47,0,0,0,3-1l.72,1.35a7.2,7.2,0,0,1-4,1.25c-3.25,0-5.82-2.37-5.82-6.35S235.57,171.55,238.35,171.55ZM241.4,177c0-2.48-1.1-3.85-3-3.85-1.7,0-3.25,1.4-3.5,3.85Z"/><path class="cls-1" d="M245.87,181.25a5.48,5.48,0,0,0,3.58,1.45c1.6,0,2.4-.85,2.4-1.9,0-1.25-1.45-1.8-2.78-2.3-1.72-.62-3.62-1.45-3.62-3.5s1.55-3.45,4.17-3.45a6.08,6.08,0,0,1,3.78,1.38l-1,1.3a4.47,4.47,0,0,0-2.77-1.08c-1.53,0-2.23.83-2.23,1.75,0,1.13,1.33,1.58,2.7,2.1,1.75.65,3.7,1.38,3.7,3.68,0,2-1.57,3.62-4.45,3.62a7.31,7.31,0,0,1-4.52-1.67Z"/><path class="cls-1" d="M37.65,197.88a3.39,3.39,0,0,0-1.37-.3c-1.15,0-1.7.8-1.7,2.35v1.92h2.57v1.68H34.58V214h-2V203.53H30.88V202l1.65-.13v-1.92c0-2.48,1.12-4,3.55-4a5.58,5.58,0,0,1,2,.4Z"/><path class="cls-1" d="M39.48,201.85h1.7l.17,2.2h.08a4.15,4.15,0,0,1,3.45-2.5,3.06,3.06,0,0,1,1.29.25l-.4,1.8a3.45,3.45,0,0,0-1.17-.2c-1,0-2.25.75-3.07,2.8V214H39.48Z"/><path class="cls-1" d="M52.63,201.55c3,0,5.62,2.33,5.62,6.4s-2.65,6.35-5.62,6.35S47,212,47,208,49.65,201.55,52.63,201.55Zm0,11c2.09,0,3.49-1.87,3.49-4.65s-1.4-4.7-3.49-4.7-3.5,1.9-3.5,4.7S50.55,212.6,52.63,212.6Z"/><path class="cls-1" d="M61.45,201.85h1.7l.18,1.75h.07a5.33,5.33,0,0,1,3.77-2,3.19,3.19,0,0,1,3.35,2.33c1.28-1.38,2.53-2.33,4-2.33,2.5,0,3.7,1.65,3.7,4.75V214h-2v-7.42c0-2.28-.72-3.25-2.25-3.25-1,0-1.92.62-3,1.87V214H68.82v-7.42c0-2.28-.72-3.25-2.27-3.25-.9,0-1.92.62-3,1.87V214h-2Z"/><path class="cls-1" d="M89.28,215v4.1h-2V201.85h1.7l.17,1.4h.08a6.27,6.27,0,0,1,3.87-1.7c3.12,0,4.8,2.43,4.8,6.2,0,4.13-2.48,6.55-5.25,6.55a5.63,5.63,0,0,1-3.37-1.4Zm3-2.44c2,0,3.47-1.83,3.47-4.83,0-2.67-.9-4.47-3.2-4.47a5.08,5.08,0,0,0-3.24,1.65v6.37A4.78,4.78,0,0,0,92.25,212.58Z"/><path class="cls-1" d="M105.82,201.55c3,0,5.63,2.33,5.63,6.4s-2.65,6.35-5.63,6.35S100.2,212,100.2,208,102.85,201.55,105.82,201.55Zm0,11c2.1,0,3.5-1.87,3.5-4.65s-1.4-4.7-3.5-4.7-3.49,1.9-3.49,4.7S103.75,212.6,105.82,212.6Z"/><path class="cls-1" d="M113.1,201.85h2.1l1.8,7c.27,1.15.5,2.25.72,3.37h.1c.28-1.12.53-2.25.83-3.37l1.87-7h2l1.9,7c.3,1.15.58,2.25.85,3.37h.1c.28-1.12.5-2.22.75-3.37l1.78-7h1.95L126.6,214h-2.5l-1.75-6.52c-.3-1.15-.53-2.28-.83-3.5h-.1c-.27,1.22-.52,2.37-.85,3.52l-1.7,6.5h-2.39Z"/><path class="cls-1" d="M137,201.55c3.1,0,4.85,2.23,4.85,5.7a7.2,7.2,0,0,1-.08,1.13h-8.2c.15,2.62,1.73,4.27,4,4.27a5.47,5.47,0,0,0,3-1l.72,1.35a7.2,7.2,0,0,1-4,1.25c-3.25,0-5.82-2.37-5.82-6.35S134.17,201.55,137,201.55ZM140,207c0-2.48-1.1-3.85-3-3.85-1.7,0-3.25,1.4-3.5,3.85Z"/><path class="cls-1" d="M144.8,201.85h1.7l.17,2.2h.08a4.15,4.15,0,0,1,3.45-2.5,3.11,3.11,0,0,1,1.3.25l-.4,1.8a3.55,3.55,0,0,0-1.18-.2c-1,0-2.25.75-3.07,2.8V214h-2Z"/><path class="cls-1" d="M159.37,213.58v-.1a2.25,2.25,0,0,1-1.07-2,2.87,2.87,0,0,1,1.32-2.25v-.1a4.29,4.29,0,0,1,3-7.6,5,5,0,0,1,1.73.3h4.22v1.58h-2.5a3.49,3.49,0,0,1,1,2.5,4.16,4.16,0,0,1-4.45,4.22,4.29,4.29,0,0,1-1.82-.42,1.82,1.82,0,0,0-.78,1.45c0,.77.5,1.32,2.15,1.32h2.35c2.83,0,4.25.88,4.25,2.9,0,2.25-2.37,4.2-6.15,4.2-3,0-5-1.18-5-3.28A3.48,3.48,0,0,1,159.37,213.58Zm3.55,4.59c2.33,0,3.85-1.2,3.85-2.47s-.87-1.5-2.45-1.5h-2.1a5.88,5.88,0,0,1-1.57-.2,2.55,2.55,0,0,0-1.25,2.05C159.4,217.35,160.72,218.17,162.92,218.17Zm2.28-12.29a2.59,2.59,0,1,0-5.15,0,2.59,2.59,0,1,0,5.15,0Z"/><path class="cls-1" d="M175.32,201.55c3.1,0,4.85,2.23,4.85,5.7a7.33,7.33,0,0,1-.07,1.13h-8.2c.15,2.62,1.72,4.27,4,4.27a5.43,5.43,0,0,0,3-1l.73,1.35a7.2,7.2,0,0,1-4,1.25c-3.25,0-5.83-2.37-5.83-6.35S172.55,201.55,175.32,201.55Zm3.05,5.48c0-2.48-1.1-3.85-3-3.85-1.7,0-3.25,1.4-3.5,3.85Z"/><path class="cls-1" d="M183.17,201.85h1.7l.18,1.75h.07a5.73,5.73,0,0,1,4.08-2c2.55,0,3.7,1.65,3.7,4.75V214h-2.05v-7.42c0-2.28-.7-3.25-2.3-3.25-1.25,0-2.1.65-3.33,1.87V214h-2.05Z"/><path class="cls-1" d="M201.4,201.55c3.1,0,4.85,2.23,4.85,5.7a7.2,7.2,0,0,1-.08,1.13H198c.15,2.62,1.73,4.27,4.05,4.27a5.47,5.47,0,0,0,3-1l.72,1.35a7.2,7.2,0,0,1-4,1.25c-3.25,0-5.82-2.37-5.82-6.35S198.62,201.55,201.4,201.55Zm3,5.48c0-2.48-1.1-3.85-3-3.85-1.7,0-3.25,1.4-3.5,3.85Z"/><path class="cls-1" d="M209.25,201.85H211l.17,2.2h.08a4.15,4.15,0,0,1,3.45-2.5,3.11,3.11,0,0,1,1.3.25l-.4,1.8a3.55,3.55,0,0,0-1.18-.2c-1,0-2.25.75-3.07,2.8V214h-2.05Z"/><path class="cls-1" d="M224.17,206.3c0-1.55-.52-3.05-2.5-3.05a6.53,6.53,0,0,0-3.62,1.3l-.83-1.42a9,9,0,0,1,4.78-1.58c3,0,4.22,2,4.22,5V214h-1.7l-.17-1.45h0a6.63,6.63,0,0,1-4,1.75,3.31,3.31,0,0,1-3.57-3.45C216.7,208.2,219,206.88,224.17,206.3Zm-3.32,6.35a5,5,0,0,0,3.32-1.62v-3.38c-4.07.5-5.45,1.5-5.45,3C218.72,212.08,219.65,212.65,220.85,212.65Z"/><path class="cls-1" d="M230.45,203.53h-1.8V202l1.9-.13.25-3.4h1.72v3.4h3.28v1.68h-3.28v6.75c0,1.5.48,2.35,1.88,2.35a4.43,4.43,0,0,0,1.37-.33l.4,1.55a7.32,7.32,0,0,1-2.25.45c-2.6,0-3.47-1.65-3.47-4.05Z"/><path class="cls-1" d="M238.17,198a1.43,1.43,0,1,1,1.43,1.32A1.34,1.34,0,0,1,238.17,198Zm.38,3.82h2V214h-2Z"/><path class="cls-1" d="M249.42,201.55c3,0,5.63,2.33,5.63,6.4s-2.65,6.35-5.63,6.35S243.8,212,243.8,208,246.45,201.55,249.42,201.55Zm0,11c2.1,0,3.5-1.87,3.5-4.65s-1.4-4.7-3.5-4.7-3.5,1.9-3.5,4.7S247.35,212.6,249.42,212.6Z"/><path class="cls-1" d="M258.25,201.85H260l.17,1.75h.08a5.73,5.73,0,0,1,4.07-2c2.55,0,3.7,1.65,3.7,4.75V214h-2.05v-7.42c0-2.28-.7-3.25-2.3-3.25-1.25,0-2.1.65-3.32,1.87V214h-2.05Z"/></svg>