<svg id="Layer_1" data-name="Layer 1" xmlns="http://www.w3.org/2000/svg" viewBox="0 0 300 600"><defs><style>.cls-1{fill:#0059ac;}</style></defs><title>text</title><path class="cls-1" d="M89.37,173.9h3.4V196h12.6v3h-16Z"/><path class="cls-1" d="M119.73,181.2a6.85,6.85,0,0,1,2.77,2.37,8.31,8.31,0,0,1,1.23,3.23,21.38,21.38,0,0,1,.27,4H110.68a8,8,0,0,0,1.31,4.48,4.33,4.33,0,0,0,3.78,1.69,4.85,4.85,0,0,0,3.82-1.6,5.51,5.51,0,0,0,1.13-2.14h3a6.3,6.3,0,0,1-.79,2.24,8.07,8.07,0,0,1-1.51,2,7.12,7.12,0,0,1-3.44,1.85,10.58,10.58,0,0,1-2.5.27,7.62,7.62,0,0,1-5.75-2.49,9.69,9.69,0,0,1-2.36-7,10.57,10.57,0,0,1,2.37-7.16,7.82,7.82,0,0,1,6.22-2.75A8.23,8.23,0,0,1,119.73,181.2Zm1.11,7.19a8.14,8.14,0,0,0-.87-3.2,4.41,4.41,0,0,0-4.18-2.22,4.63,4.63,0,0,0-3.53,1.53,5.81,5.81,0,0,0-1.51,3.89Z"/><path class="cls-1" d="M129.72,193.26a4.51,4.51,0,0,0,.79,2.36c.79,1,2.16,1.48,4.11,1.48a6.09,6.09,0,0,0,3.07-.74,2.46,2.46,0,0,0,1.33-2.3,1.94,1.94,0,0,0-1.06-1.79,12.71,12.71,0,0,0-2.67-.87l-2.49-.62a12.45,12.45,0,0,1-3.51-1.3,3.87,3.87,0,0,1-2-3.45,5.26,5.26,0,0,1,1.9-4.21,7.62,7.62,0,0,1,5.1-1.6q4.18,0,6,2.43a5.25,5.25,0,0,1,1.13,3.31h-2.91a3.54,3.54,0,0,0-.75-1.89c-.72-.8-2-1.2-3.76-1.2a4.65,4.65,0,0,0-2.71.66,2.06,2.06,0,0,0-.91,1.76,2.14,2.14,0,0,0,1.2,1.9,7,7,0,0,0,2.06.75l2.07.5a16.22,16.22,0,0,1,4.53,1.55,4.14,4.14,0,0,1,1.79,3.71,5.58,5.58,0,0,1-1.88,4.22q-1.87,1.79-5.71,1.78-4.14,0-5.86-1.85a7,7,0,0,1-1.84-4.59Z"/><path class="cls-1" d="M155.12,173.81h3.07v9.36a8.79,8.79,0,0,1,2-1.94,6.63,6.63,0,0,1,3.71-1q4,0,5.4,2.79a9.52,9.52,0,0,1,.77,4.22V199h-3.16V187.46a6.29,6.29,0,0,0-.52-3,3.28,3.28,0,0,0-3.14-1.51,5.23,5.23,0,0,0-3.47,1.32c-1,.88-1.56,2.53-1.56,5V199h-3.07Z"/><path class="cls-1" d="M176.1,180.7,181,195.6l5.1-14.9h3.36L182.55,199h-3.28l-6.75-18.3Z"/><path class="cls-1" d="M201.89,187.92a1.66,1.66,0,0,0,1.42-.88,2.7,2.7,0,0,0,.21-1.19,2.53,2.53,0,0,0-1.12-2.29,6,6,0,0,0-3.2-.71,4.05,4.05,0,0,0-3.41,1.31,4.3,4.3,0,0,0-.73,2.14h-2.87q.08-3.39,2.19-4.72a9,9,0,0,1,4.89-1.33,9.94,9.94,0,0,1,5.24,1.23,4.19,4.19,0,0,1,2,3.83v10.55a1.37,1.37,0,0,0,.19.77,1,1,0,0,0,.83.29l.46,0c.18,0,.36,0,.55-.08v2.28a8.81,8.81,0,0,1-1.09.25,7.17,7.17,0,0,1-1,0,2.53,2.53,0,0,1-2.31-1.12,4.54,4.54,0,0,1-.53-1.7,7.67,7.67,0,0,1-2.7,2.14,8.36,8.36,0,0,1-3.87.91,5.8,5.8,0,0,1-4.17-1.55,5.15,5.15,0,0,1-1.61-3.87,5,5,0,0,1,1.59-3.94,7.54,7.54,0,0,1,4.17-1.72Zm-6.47,8.31a3.55,3.55,0,0,0,2.3.77,7,7,0,0,0,3.15-.75,4.22,4.22,0,0,0,2.56-4.08V189.7a5.19,5.19,0,0,1-1.45.6,12.41,12.41,0,0,1-1.74.34l-1.86.24a7.19,7.19,0,0,0-2.51.7,2.72,2.72,0,0,0-1.43,2.56A2.52,2.52,0,0,0,195.42,196.23Z"/><path class="cls-1" d="M59.36,222.7l4.88,14.9,5.1-14.9H72.7L65.81,241H62.53l-6.75-18.3Z"/><path class="cls-1" d="M85.15,229.92a1.66,1.66,0,0,0,1.42-.88,2.7,2.7,0,0,0,.21-1.19,2.53,2.53,0,0,0-1.12-2.29,6,6,0,0,0-3.2-.71,4.05,4.05,0,0,0-3.41,1.31,4.2,4.2,0,0,0-.73,2.14H75.45q.08-3.39,2.19-4.72a9,9,0,0,1,4.89-1.33,9.94,9.94,0,0,1,5.24,1.23,4.19,4.19,0,0,1,2,3.83v10.55a1.37,1.37,0,0,0,.19.77,1,1,0,0,0,.83.29l.46,0c.17,0,.36,0,.55-.08v2.28a8.81,8.81,0,0,1-1.09.25,7.17,7.17,0,0,1-1,0,2.53,2.53,0,0,1-2.31-1.12,4.54,4.54,0,0,1-.53-1.7,7.67,7.67,0,0,1-2.7,2.14,8.37,8.37,0,0,1-3.88.91,5.79,5.79,0,0,1-4.16-1.55,5.15,5.15,0,0,1-1.61-3.87,5,5,0,0,1,1.59-3.94,7.54,7.54,0,0,1,4.17-1.72Zm-6.47,8.31A3.53,3.53,0,0,0,81,239a7.08,7.08,0,0,0,3.15-.75,4.22,4.22,0,0,0,2.56-4.08V231.7a5.32,5.32,0,0,1-1.45.6,12.41,12.41,0,0,1-1.74.34l-1.86.24a7.19,7.19,0,0,0-2.51.7,2.72,2.72,0,0,0-1.43,2.56A2.52,2.52,0,0,0,78.68,238.23Zm4.34-25a3.57,3.57,0,1,1-2.52,1A3.44,3.44,0,0,1,83,213.21Zm0,5.73a2.17,2.17,0,0,0,2.15-2.16,2.15,2.15,0,1,0-3.66,1.52A2,2,0,0,0,83,218.94Z"/><path class="cls-1" d="M94.89,222.7h2.93v3.16a6.84,6.84,0,0,1,1.76-2.25,4.56,4.56,0,0,1,3.23-1.32h.29l.7.07v3.25a3.44,3.44,0,0,0-.51-.07l-.5,0a4.38,4.38,0,0,0-3.57,1.5A5.23,5.23,0,0,0,98,230.47V241H94.89Z"/><path class="cls-1" d="M117.77,223.2a7,7,0,0,1,2.77,2.37,8.14,8.14,0,0,1,1.22,3.23,21.38,21.38,0,0,1,.27,4H108.72a8,8,0,0,0,1.3,4.48,4.36,4.36,0,0,0,3.79,1.69,4.84,4.84,0,0,0,3.81-1.6,5.38,5.38,0,0,0,1.13-2.14h3a6.34,6.34,0,0,1-.8,2.24,8,8,0,0,1-1.5,2,7.15,7.15,0,0,1-3.45,1.85,10.44,10.44,0,0,1-2.49.27,7.64,7.64,0,0,1-5.76-2.49,9.73,9.73,0,0,1-2.36-7A10.53,10.53,0,0,1,107.8,225a7.8,7.8,0,0,1,6.22-2.75A8.23,8.23,0,0,1,117.77,223.2Zm1.1,7.19a8,8,0,0,0-.86-3.2,4.44,4.44,0,0,0-4.19-2.22,4.6,4.6,0,0,0-3.52,1.53,5.76,5.76,0,0,0-1.51,3.89Z"/><path class="cls-1" d="M135.58,215.9h3v14.57l7.89-7.77h3.93l-7,6.8,7.43,11.5h-3.93l-5.75-9.31-2.53,2.44V241h-3Z"/><path class="cls-1" d="M156.23,222.7v12.15a5.23,5.23,0,0,0,.43,2.29,3,3,0,0,0,3,1.64,4.21,4.21,0,0,0,4.26-2.87,11.68,11.68,0,0,0,.62-4.22v-9h3.07V241h-2.9l0-2.7a6.13,6.13,0,0,1-1.46,1.76,6.33,6.33,0,0,1-4.19,1.44c-2.56,0-4.3-.88-5.23-2.62a7.92,7.92,0,0,1-.76-3.74V222.7Z"/><path class="cls-1" d="M172.62,222.7h2.92v2.59a8.12,8.12,0,0,1,2.75-2.3,7.32,7.32,0,0,1,3.23-.7c2.6,0,4.35.9,5.27,2.71a9.71,9.71,0,0,1,.75,4.26V241h-3.13V229.46a6.29,6.29,0,0,0-.5-2.7,3,3,0,0,0-3-1.7,5.93,5.93,0,0,0-1.79.22,4.62,4.62,0,0,0-2.23,1.5,4.69,4.69,0,0,0-1,1.87,12.93,12.93,0,0,0-.23,2.76V241h-3.07Z"/><path class="cls-1" d="M202.14,223.26a8.4,8.4,0,0,1,1.86,1.8v-9.25H207V241h-2.77v-2.55a6.63,6.63,0,0,1-2.53,2.45,7.29,7.29,0,0,1-3.36.75,6.77,6.77,0,0,1-5.27-2.57,10.09,10.09,0,0,1-2.24-6.85,11.85,11.85,0,0,1,2-6.93,6.66,6.66,0,0,1,5.81-2.93A6.49,6.49,0,0,1,202.14,223.26ZM195.27,237a4.34,4.34,0,0,0,4,2,4.21,4.21,0,0,0,3.5-1.84,8.73,8.73,0,0,0,1.36-5.27,7.83,7.83,0,0,0-1.41-5.14,4.38,4.38,0,0,0-3.48-1.66,4.61,4.61,0,0,0-3.75,1.77,8.17,8.17,0,0,0-1.44,5.23A9.16,9.16,0,0,0,195.27,237Z"/><path class="cls-1" d="M222.85,223.2a6.85,6.85,0,0,1,2.77,2.37,8.31,8.31,0,0,1,1.23,3.23,21.38,21.38,0,0,1,.27,4H213.8a8,8,0,0,0,1.31,4.48,4.33,4.33,0,0,0,3.78,1.69,4.85,4.85,0,0,0,3.82-1.6,5.51,5.51,0,0,0,1.13-2.14h3a6.3,6.3,0,0,1-.79,2.24,8.07,8.07,0,0,1-1.51,2,7.12,7.12,0,0,1-3.44,1.85,10.58,10.58,0,0,1-2.5.27,7.62,7.62,0,0,1-5.75-2.49,9.69,9.69,0,0,1-2.36-7,10.57,10.57,0,0,1,2.37-7.16,7.82,7.82,0,0,1,6.22-2.75A8.23,8.23,0,0,1,222.85,223.2Zm1.11,7.19a8.14,8.14,0,0,0-.87-3.2,4.41,4.41,0,0,0-4.18-2.22,4.63,4.63,0,0,0-3.53,1.53,5.81,5.81,0,0,0-1.51,3.89Z"/><path class="cls-1" d="M231.1,222.7H234v3.16a7,7,0,0,1,1.76-2.25,4.58,4.58,0,0,1,3.23-1.32h.29l.7.07v3.25a3.32,3.32,0,0,0-.5-.07l-.5,0a4.4,4.4,0,0,0-3.58,1.5,5.22,5.22,0,0,0-1.24,3.44V241H231.1Z"/><path class="cls-1" d="M62.62,277.26a4.42,4.42,0,0,0,.78,2.36c.79,1,2.17,1.48,4.12,1.48a6.12,6.12,0,0,0,3.07-.74,2.47,2.47,0,0,0,1.33-2.3,2,2,0,0,0-1.06-1.79,13.08,13.08,0,0,0-2.68-.87l-2.48-.62a12.2,12.2,0,0,1-3.51-1.3,3.87,3.87,0,0,1-2-3.45,5.28,5.28,0,0,1,1.89-4.21,7.65,7.65,0,0,1,5.1-1.6c2.8,0,4.81.81,6,2.43A5.18,5.18,0,0,1,74.34,270h-2.9a3.54,3.54,0,0,0-.75-1.89c-.73-.8-2-1.2-3.77-1.2a4.6,4.6,0,0,0-2.7.66,2.07,2.07,0,0,0-.92,1.76,2.15,2.15,0,0,0,1.21,1.9,6.94,6.94,0,0,0,2,.75l2.08.5A16,16,0,0,1,73.16,274,4.13,4.13,0,0,1,75,277.7a5.62,5.62,0,0,1-1.88,4.22q-1.87,1.79-5.72,1.78c-2.75,0-4.71-.62-5.85-1.85a7,7,0,0,1-1.85-4.59Z"/><path class="cls-1" d="M78.29,257.9h3.13v3.48H78.29Zm0,6.88h3.13V283H78.29Z"/><path class="cls-1" d="M97.37,265.2a6.92,6.92,0,0,1,2.77,2.37,8.14,8.14,0,0,1,1.22,3.23,21.18,21.18,0,0,1,.28,4H88.32a7.88,7.88,0,0,0,1.31,4.48A4.33,4.33,0,0,0,93.41,281a4.84,4.84,0,0,0,3.81-1.6,5.26,5.26,0,0,0,1.13-2.14h3a6.34,6.34,0,0,1-.8,2.24,8,8,0,0,1-1.5,2,7.16,7.16,0,0,1-3.44,1.85,10.58,10.58,0,0,1-2.5.27,7.65,7.65,0,0,1-5.76-2.49,9.73,9.73,0,0,1-2.36-7A10.58,10.58,0,0,1,87.4,267a7.82,7.82,0,0,1,6.22-2.75A8.23,8.23,0,0,1,97.37,265.2Zm1.1,7.19a8,8,0,0,0-.86-3.2A4.43,4.43,0,0,0,93.42,267a4.61,4.61,0,0,0-3.52,1.53,5.81,5.81,0,0,0-1.51,3.89Z"/><path class="cls-1" d="M105.62,264.7h2.92v3.16a7,7,0,0,1,1.76-2.25,4.56,4.56,0,0,1,3.23-1.32h.29l.7.07v3.25a3.32,3.32,0,0,0-.5-.07l-.51,0a4.38,4.38,0,0,0-3.57,1.5,5.23,5.23,0,0,0-1.25,3.44V283h-3.07Z"/><path class="cls-1" d="M140.17,266.52c1.62,1.57,2.43,3.89,2.43,6.94a11.9,11.9,0,0,1-2.14,7.3c-1.42,1.93-3.64,2.89-6.63,2.89a7.48,7.48,0,0,1-6-2.55,10.14,10.14,0,0,1-2.21-6.86A11,11,0,0,1,128,266.9a7.78,7.78,0,0,1,6.24-2.73A8.19,8.19,0,0,1,140.17,266.52Zm-1.91,12.17a11.62,11.62,0,0,0,1.13-5.15,9.22,9.22,0,0,0-.81-4.16,4.56,4.56,0,0,0-4.43-2.53,4.37,4.37,0,0,0-4.06,2.15,10.1,10.1,0,0,0-1.26,5.19,8.73,8.73,0,0,0,1.26,4.86,4.46,4.46,0,0,0,4,1.95A4.19,4.19,0,0,0,138.26,278.69Z"/><path class="cls-1" d="M146.38,264.7h3v2.59a10.26,10.26,0,0,1,2-2,5.92,5.92,0,0,1,3.45-1,5.47,5.47,0,0,1,3.52,1.07,5.72,5.72,0,0,1,1.37,1.81,6.39,6.39,0,0,1,5.52-2.88q3.69,0,5,2.66a8.87,8.87,0,0,1,.71,3.86V283h-3.19V270.29a3,3,0,0,0-.92-2.52,3.65,3.65,0,0,0-2.23-.68,4.43,4.43,0,0,0-3.12,1.21c-.87.81-1.3,2.16-1.3,4.05V283h-3.13V271.05a6.11,6.11,0,0,0-.45-2.71,2.68,2.68,0,0,0-2.61-1.28,4.51,4.51,0,0,0-3.17,1.35c-.95.9-1.43,2.52-1.43,4.88V283h-3.07Z"/><path class="cls-1" d="M198.52,266.52c1.62,1.57,2.42,3.89,2.42,6.94a12,12,0,0,1-2.13,7.3q-2.15,2.89-6.64,2.89a7.49,7.49,0,0,1-6-2.55,10.13,10.13,0,0,1-2.2-6.86,11,11,0,0,1,2.32-7.34,7.78,7.78,0,0,1,6.25-2.73A8.21,8.21,0,0,1,198.52,266.52Zm-1.91,12.17a11.61,11.61,0,0,0,1.12-5.15,9.22,9.22,0,0,0-.81-4.16,4.55,4.55,0,0,0-4.43-2.53,4.35,4.35,0,0,0-4.05,2.15,10,10,0,0,0-1.27,5.19,8.66,8.66,0,0,0,1.27,4.86,4.43,4.43,0,0,0,4,1.95A4.19,4.19,0,0,0,196.61,278.69Z"/><path class="cls-1" d="M206.55,277.26a4.42,4.42,0,0,0,.78,2.36c.8,1,2.17,1.48,4.12,1.48a6.12,6.12,0,0,0,3.07-.74,2.47,2.47,0,0,0,1.33-2.3,2,2,0,0,0-1.06-1.79,12.86,12.86,0,0,0-2.68-.87l-2.48-.62a12.2,12.2,0,0,1-3.51-1.3,3.87,3.87,0,0,1-2-3.45,5.28,5.28,0,0,1,1.89-4.21,7.65,7.65,0,0,1,5.1-1.6c2.8,0,4.81.81,6.05,2.43a5.18,5.18,0,0,1,1.12,3.31h-2.9a3.54,3.54,0,0,0-.75-1.89c-.73-.8-2-1.2-3.77-1.2a4.62,4.62,0,0,0-2.7.66,2.07,2.07,0,0,0-.92,1.76,2.15,2.15,0,0,0,1.21,1.9,6.91,6.91,0,0,0,2.06.75l2.07.5a16,16,0,0,1,4.52,1.55,4.13,4.13,0,0,1,1.8,3.71,5.62,5.62,0,0,1-1.88,4.22q-1.87,1.79-5.72,1.78c-2.75,0-4.71-.62-5.85-1.85a7,7,0,0,1-1.85-4.59Z"/><path class="cls-1" d="M224.05,277.26a4.42,4.42,0,0,0,.78,2.36c.8,1,2.17,1.48,4.12,1.48a6.12,6.12,0,0,0,3.07-.74,2.47,2.47,0,0,0,1.33-2.3,2,2,0,0,0-1.06-1.79,12.86,12.86,0,0,0-2.68-.87l-2.48-.62a12.2,12.2,0,0,1-3.51-1.3,3.87,3.87,0,0,1-2-3.45,5.28,5.28,0,0,1,1.89-4.21,7.65,7.65,0,0,1,5.1-1.6c2.8,0,4.81.81,6.05,2.43a5.18,5.18,0,0,1,1.12,3.31h-2.9a3.54,3.54,0,0,0-.75-1.89c-.73-.8-2-1.2-3.77-1.2a4.62,4.62,0,0,0-2.7.66,2.07,2.07,0,0,0-.92,1.76,2.15,2.15,0,0,0,1.21,1.9,6.91,6.91,0,0,0,2.06.75l2.07.5a16,16,0,0,1,4.52,1.55,4.13,4.13,0,0,1,1.8,3.71,5.62,5.62,0,0,1-1.88,4.22q-1.87,1.79-5.72,1.78c-2.75,0-4.71-.62-5.85-1.85a7,7,0,0,1-1.85-4.59Z"/></svg>