<svg id="Layer_1" data-name="Layer 1" xmlns="http://www.w3.org/2000/svg" viewBox="0 0 300 600"><defs><style>.cls-1{fill:#fff;}</style></defs><title>text</title><path class="cls-1" d="M103.38,283.71a7.65,7.65,0,0,0,5.43,2.46c2.58,0,4.11-1.29,4.11-3.21s-1.44-2.64-3.3-3.48l-2.82-1.23c-1.83-.78-4-2.19-4-5.07S105.46,268,109,268a8,8,0,0,1,5.79,2.43L113.49,272a6.33,6.33,0,0,0-4.47-1.86c-2.22,0-3.69,1.11-3.69,2.88s1.74,2.61,3.27,3.27l2.82,1.2c2.28,1,4,2.34,4,5.25,0,3.12-2.58,5.61-6.72,5.61a9.47,9.47,0,0,1-6.87-2.91Z"/><path class="cls-1" d="M124.47,273.06c3.72,0,5.82,2.67,5.82,6.84a8.69,8.69,0,0,1-.09,1.35h-9.84c.18,3.15,2.07,5.13,4.86,5.13a6.59,6.59,0,0,0,3.63-1.14l.87,1.62a8.68,8.68,0,0,1-4.8,1.5c-3.9,0-7-2.85-7-7.62S121.14,273.06,124.47,273.06Zm3.66,6.57c0-3-1.32-4.62-3.6-4.62-2,0-3.9,1.68-4.2,4.62Z"/><path class="cls-1" d="M139.35,273.06c3.72,0,5.82,2.67,5.82,6.84a8.69,8.69,0,0,1-.09,1.35h-9.84c.18,3.15,2.07,5.13,4.86,5.13a6.59,6.59,0,0,0,3.63-1.14l.87,1.62a8.68,8.68,0,0,1-4.8,1.5c-3.9,0-7-2.85-7-7.62S136,273.06,139.35,273.06Zm3.66,6.57c0-3-1.32-4.62-3.6-4.62-2,0-3.9,1.68-4.2,4.62Z"/><path class="cls-1" d="M154.83,266.64h2.46v5.82l-.09,3c1.38-1.32,2.85-2.4,4.86-2.4,3.06,0,4.44,2,4.44,5.7V288H164v-8.91c0-2.73-.84-3.9-2.76-3.9-1.5,0-2.52.78-4,2.25V288h-2.46Z"/><path class="cls-1" d="M176.82,273.06c3.57,0,6.75,2.79,6.75,7.68s-3.18,7.62-6.75,7.62-6.75-2.79-6.75-7.62S173.25,273.06,176.82,273.06Zm0,13.26c2.52,0,4.2-2.25,4.2-5.58s-1.68-5.64-4.2-5.64-4.2,2.28-4.2,5.64S174.33,286.32,176.82,286.32Z"/><path class="cls-1" d="M185.55,273.42h2.52l2.16,8.43c.33,1.38.6,2.7.87,4h.12c.33-1.35.63-2.7,1-4l2.25-8.43h2.4l2.28,8.43c.36,1.38.69,2.7,1,4h.12c.33-1.35.6-2.67.9-4l2.13-8.43h2.34L201.75,288h-3l-2.1-7.83c-.36-1.38-.63-2.73-1-4.2h-.12c-.33,1.47-.63,2.85-1,4.23l-2,7.8H189.6Z"/></svg>