<svg id="Layer_1" data-name="Layer 1" xmlns="http://www.w3.org/2000/svg" viewBox="0 0 300 600"><defs><style>.cls-1{fill:#0059ac;}</style></defs><title>text</title><path class="cls-1" d="M107.12,149.08h3.4V171.2h12.6v3h-16Z"/><path class="cls-1" d="M126.18,149.08h3.12v3.49h-3.12Zm0,6.89h3.12v18.22h-3.12Z"/><path class="cls-1" d="M135.39,150.3c.72-1.05,2.1-1.57,4.15-1.57h.6l.7,0v2.81l-.7,0h-.41c-.94,0-1.51.24-1.69.72a14.39,14.39,0,0,0-.28,3.7h3.08v2.43h-3.08v15.79h-3V158.4h-2.54V156h2.54V153.1A5.51,5.51,0,0,1,135.39,150.3Z"/><path class="cls-1" d="M143.76,149.08h3.08v25.11h-3.08Z"/><path class="cls-1" d="M151.45,149.08h3.13v3.49h-3.13Zm0,6.89h3.13v18.22h-3.13Z"/><path class="cls-1" d="M169.4,156.62a8.45,8.45,0,0,1,1.77,1.74v-2.3H174V172.7a12.36,12.36,0,0,1-1,5.51q-1.91,3.72-7.2,3.72a8.84,8.84,0,0,1-5-1.32,5.19,5.19,0,0,1-2.25-4.15h3.13a3.44,3.44,0,0,0,.88,1.9,4.5,4.5,0,0,0,3.26,1c2.35,0,3.88-.84,4.61-2.5a14,14,0,0,0,.59-5.25,5.94,5.94,0,0,1-2.21,2.09,7.39,7.39,0,0,1-3.42.68,7.27,7.27,0,0,1-5.18-2.11c-1.48-1.41-2.22-3.73-2.22-7a10.62,10.62,0,0,1,2.23-7.18,6.93,6.93,0,0,1,5.41-2.58A6.64,6.64,0,0,1,169.4,156.62Zm.38,3.3a4.46,4.46,0,0,0-3.55-1.64,4.38,4.38,0,0,0-4.42,3,12,12,0,0,0-.63,4.26,7.5,7.5,0,0,0,1.25,4.7,4,4,0,0,0,3.36,1.62,4.73,4.73,0,0,0,4.64-3,9.67,9.67,0,0,0,.74-3.95A7.64,7.64,0,0,0,169.78,159.92Z"/><path class="cls-1" d="M187.62,162.86h8.57V166h-8.57Z"/><path class="cls-1" d="M26.05,191.08h3.07v25.11H26.05Z"/><path class="cls-1" d="M45,198.39a6.85,6.85,0,0,1,2.77,2.37A8.31,8.31,0,0,1,49,204a21.38,21.38,0,0,1,.27,4H36a8,8,0,0,0,1.31,4.48,4.33,4.33,0,0,0,3.78,1.69,4.86,4.86,0,0,0,3.82-1.6A5.51,5.51,0,0,0,46,210.45h3a6.3,6.3,0,0,1-.79,2.24,8.07,8.07,0,0,1-1.51,2,7.16,7.16,0,0,1-3.44,1.85,10.58,10.58,0,0,1-2.5.27,7.62,7.62,0,0,1-5.75-2.49,9.69,9.69,0,0,1-2.36-7,10.57,10.57,0,0,1,2.37-7.16,7.82,7.82,0,0,1,6.22-2.75A8.23,8.23,0,0,1,45,198.39Zm1.11,7.19a8.14,8.14,0,0,0-.87-3.2,4.41,4.41,0,0,0-4.18-2.22,4.63,4.63,0,0,0-3.53,1.53,5.81,5.81,0,0,0-1.51,3.89Z"/><path class="cls-1" d="M54.72,197.89l4.88,14.9,5.1-14.9h3.36l-6.89,18.3H57.89l-6.75-18.3Z"/><path class="cls-1" d="M82,198.39a7,7,0,0,1,2.77,2.37A8.14,8.14,0,0,1,86,204a21.38,21.38,0,0,1,.27,4H73a7.88,7.88,0,0,0,1.31,4.48,4.33,4.33,0,0,0,3.78,1.69,4.84,4.84,0,0,0,3.81-1.6A5.38,5.38,0,0,0,83,210.45h3a6.34,6.34,0,0,1-.8,2.24,7.84,7.84,0,0,1-1.51,2,7.07,7.07,0,0,1-3.44,1.85,10.44,10.44,0,0,1-2.49.27A7.64,7.64,0,0,1,72,214.35a9.73,9.73,0,0,1-2.36-7A10.53,10.53,0,0,1,72,200.23a7.8,7.8,0,0,1,6.22-2.75A8.23,8.23,0,0,1,82,198.39Zm1.1,7.19a8,8,0,0,0-.86-3.2,4.43,4.43,0,0,0-4.19-2.22,4.6,4.6,0,0,0-3.52,1.53A5.76,5.76,0,0,0,73,205.58Z"/><path class="cls-1" d="M90.25,197.89h2.93v3.16a6.84,6.84,0,0,1,1.76-2.25,4.56,4.56,0,0,1,3.23-1.32h.29l.7.07v3.25a3.27,3.27,0,0,0-.51-.07l-.5,0a4.38,4.38,0,0,0-3.57,1.5,5.23,5.23,0,0,0-1.25,3.44v10.53H90.25Z"/><path class="cls-1" d="M111.63,205.11a1.66,1.66,0,0,0,1.42-.88,2.7,2.7,0,0,0,.21-1.19,2.53,2.53,0,0,0-1.12-2.29,6,6,0,0,0-3.2-.71,4.05,4.05,0,0,0-3.41,1.31,4.3,4.3,0,0,0-.73,2.14h-2.87q.07-3.39,2.19-4.72a9,9,0,0,1,4.89-1.33,9.94,9.94,0,0,1,5.24,1.23,4.19,4.19,0,0,1,2,3.83v10.55a1.32,1.32,0,0,0,.19.76,1,1,0,0,0,.83.29,3.78,3.78,0,0,0,.46,0c.18,0,.36,0,.55-.08v2.28a8.81,8.81,0,0,1-1.09.25,7.08,7.08,0,0,1-1,.05,2.51,2.51,0,0,1-2.3-1.12,4.21,4.21,0,0,1-.53-1.7,7.86,7.86,0,0,1-2.7,2.14,8.43,8.43,0,0,1-3.88.91,5.8,5.8,0,0,1-4.17-1.55,5.15,5.15,0,0,1-1.61-3.87,5,5,0,0,1,1.59-3.94,7.54,7.54,0,0,1,4.17-1.72Zm-6.47,8.31a3.57,3.57,0,0,0,2.3.77,7,7,0,0,0,3.15-.75,4.22,4.22,0,0,0,2.56-4.08v-2.47a5.19,5.19,0,0,1-1.45.6,12.41,12.41,0,0,1-1.74.34l-1.86.24a7.19,7.19,0,0,0-2.51.7,2.72,2.72,0,0,0-1.43,2.56A2.52,2.52,0,0,0,105.16,213.42Z"/><path class="cls-1" d="M121.29,197.89h2.92v2.59a8.12,8.12,0,0,1,2.75-2.3,7.32,7.32,0,0,1,3.23-.7c2.6,0,4.35.9,5.27,2.71a9.71,9.71,0,0,1,.75,4.26v11.74h-3.13V204.65a6.3,6.3,0,0,0-.49-2.7,3,3,0,0,0-3-1.7,6,6,0,0,0-1.79.22,4.55,4.55,0,0,0-2.22,1.5,4.46,4.46,0,0,0-1,1.87,12.3,12.3,0,0,0-.23,2.76v9.59h-3.08Z"/><path class="cls-1" d="M142.58,210.45a4.51,4.51,0,0,0,.79,2.36c.79,1,2.16,1.48,4.11,1.48a6.09,6.09,0,0,0,3.07-.74,2.46,2.46,0,0,0,1.33-2.3,1.94,1.94,0,0,0-1.06-1.79,13.17,13.17,0,0,0-2.67-.88l-2.49-.61a12.45,12.45,0,0,1-3.51-1.3,3.87,3.87,0,0,1-2-3.45A5.26,5.26,0,0,1,142,199a7.62,7.62,0,0,1,5.1-1.6c2.79,0,4.81.81,6,2.42a5.24,5.24,0,0,1,1.13,3.32H151.4a3.54,3.54,0,0,0-.75-1.89c-.72-.8-2-1.2-3.76-1.2a4.6,4.6,0,0,0-2.7.66,2.05,2.05,0,0,0-.92,1.76,2.14,2.14,0,0,0,1.2,1.9,7,7,0,0,0,2.06.75l2.07.5a16.22,16.22,0,0,1,4.53,1.55,4.14,4.14,0,0,1,1.79,3.71,5.58,5.58,0,0,1-1.88,4.22q-1.87,1.78-5.71,1.78-4.14,0-5.86-1.85a7,7,0,0,1-1.84-4.59Z"/><path class="cls-1" d="M169.56,198.39a6.92,6.92,0,0,1,2.77,2.37,8.14,8.14,0,0,1,1.22,3.23,21.38,21.38,0,0,1,.27,4H160.51a7.88,7.88,0,0,0,1.31,4.48,4.33,4.33,0,0,0,3.78,1.69,4.84,4.84,0,0,0,3.81-1.6,5.38,5.38,0,0,0,1.13-2.14h3a6.34,6.34,0,0,1-.8,2.24,8,8,0,0,1-1.5,2,7.15,7.15,0,0,1-3.45,1.85,10.44,10.44,0,0,1-2.49.27,7.65,7.65,0,0,1-5.76-2.49,9.73,9.73,0,0,1-2.36-7,10.53,10.53,0,0,1,2.38-7.16,7.82,7.82,0,0,1,6.22-2.75A8.23,8.23,0,0,1,169.56,198.39Zm1.1,7.19a8,8,0,0,0-.86-3.2,4.43,4.43,0,0,0-4.19-2.22,4.61,4.61,0,0,0-3.52,1.53,5.76,5.76,0,0,0-1.51,3.89Z"/><path class="cls-1" d="M177.72,197.89h3v2.59a10.26,10.26,0,0,1,2-2,6,6,0,0,1,3.46-1,5.49,5.49,0,0,1,3.52,1.07,5.71,5.71,0,0,1,1.36,1.81,6.76,6.76,0,0,1,2.41-2.17,6.65,6.65,0,0,1,3.11-.71c2.47,0,4.14.89,5,2.66a8.71,8.71,0,0,1,.72,3.86v12.19h-3.2V203.48a3,3,0,0,0-.91-2.52,3.67,3.67,0,0,0-2.23-.68,4.42,4.42,0,0,0-3.12,1.21,5.34,5.34,0,0,0-1.31,4v10.65h-3.13V204.24a6.28,6.28,0,0,0-.44-2.71,2.71,2.71,0,0,0-2.62-1.28,4.51,4.51,0,0,0-3.17,1.35c-.95.9-1.42,2.52-1.42,4.88v9.71h-3.08Z"/><path class="cls-1" d="M220.14,199.71c1.61,1.57,2.42,3.89,2.42,6.94a12,12,0,0,1-2.13,7.3q-2.15,2.9-6.64,2.89a7.48,7.48,0,0,1-6-2.55,10.15,10.15,0,0,1-2.2-6.86,11,11,0,0,1,2.32-7.34,7.78,7.78,0,0,1,6.25-2.73A8.21,8.21,0,0,1,220.14,199.71Zm-1.91,12.17a11.61,11.61,0,0,0,1.12-5.15,9.22,9.22,0,0,0-.81-4.16,4.55,4.55,0,0,0-4.43-2.53,4.35,4.35,0,0,0-4.05,2.15,10,10,0,0,0-1.27,5.19,8.66,8.66,0,0,0,1.27,4.86,4.43,4.43,0,0,0,4,1.95A4.19,4.19,0,0,0,218.23,211.88Z"/><path class="cls-1" d="M236.4,198.45a8.18,8.18,0,0,1,1.85,1.8V191h3v25.19h-2.77v-2.55a6.65,6.65,0,0,1-2.54,2.45,7.22,7.22,0,0,1-3.35.75,6.81,6.81,0,0,1-5.28-2.57,10.14,10.14,0,0,1-2.23-6.85,11.85,11.85,0,0,1,2-6.93,6.65,6.65,0,0,1,5.81-2.93A6.49,6.49,0,0,1,236.4,198.45Zm-6.87,13.72a4.33,4.33,0,0,0,4,2,4.18,4.18,0,0,0,3.49-1.84,8.66,8.66,0,0,0,1.37-5.27,7.83,7.83,0,0,0-1.41-5.14,4.39,4.39,0,0,0-3.49-1.66,4.57,4.57,0,0,0-3.74,1.77,8.17,8.17,0,0,0-1.44,5.23A9.07,9.07,0,0,0,229.53,212.17Z"/><path class="cls-1" d="M257.11,198.39a6.92,6.92,0,0,1,2.77,2.37A8.14,8.14,0,0,1,261.1,204a21.18,21.18,0,0,1,.28,4H248.06a7.88,7.88,0,0,0,1.31,4.48,4.33,4.33,0,0,0,3.78,1.69,4.84,4.84,0,0,0,3.81-1.6,5.26,5.26,0,0,0,1.13-2.14h3a6.34,6.34,0,0,1-.8,2.24,8,8,0,0,1-1.5,2,7.16,7.16,0,0,1-3.44,1.85,10.58,10.58,0,0,1-2.5.27,7.65,7.65,0,0,1-5.76-2.49,9.73,9.73,0,0,1-2.36-7,10.58,10.58,0,0,1,2.38-7.16,7.82,7.82,0,0,1,6.22-2.75A8.23,8.23,0,0,1,257.11,198.39Zm1.1,7.19a8,8,0,0,0-.86-3.2,4.43,4.43,0,0,0-4.19-2.22,4.61,4.61,0,0,0-3.52,1.53,5.81,5.81,0,0,0-1.51,3.89Z"/><path class="cls-1" d="M265.36,191.08h3.07v25.11h-3.07Z"/><path class="cls-1" d="M273.13,191.08h3.08v25.11h-3.08Z"/><path class="cls-1" d="M24.49,234.3c.72-1.05,2.1-1.57,4.16-1.57h.59l.7,0v2.81l-.7,0h-.4c-.95,0-1.51.24-1.7.72a14.58,14.58,0,0,0-.27,3.7h3.07v2.43H26.87v15.79h-3V242.4H21.28V240h2.55V237.1A5.42,5.42,0,0,1,24.49,234.3Z"/><path class="cls-1" d="M46,241.71c1.62,1.57,2.43,3.89,2.43,6.94a11.9,11.9,0,0,1-2.14,7.3c-1.42,1.93-3.64,2.89-6.63,2.89a7.48,7.48,0,0,1-6-2.55,10.15,10.15,0,0,1-2.21-6.86,11,11,0,0,1,2.33-7.34,7.78,7.78,0,0,1,6.24-2.73A8.19,8.19,0,0,1,46,241.71Zm-1.91,12.17a11.62,11.62,0,0,0,1.13-5.15,9.22,9.22,0,0,0-.81-4.16A4.56,4.56,0,0,0,40,242,4.37,4.37,0,0,0,36,244.19a10.1,10.1,0,0,0-1.26,5.19A8.73,8.73,0,0,0,36,254.24a4.46,4.46,0,0,0,4,1.95A4.19,4.19,0,0,0,44.13,253.88Z"/><path class="cls-1" d="M52.33,239.89h2.92v3.16A7,7,0,0,1,57,240.8a4.6,4.6,0,0,1,3.23-1.32h.3l.7.07v3.25a3.63,3.63,0,0,0-.51-.07l-.5,0a4.38,4.38,0,0,0-3.57,1.5,5.17,5.17,0,0,0-1.25,3.44v10.53H52.33Z"/><path class="cls-1" d="M75.46,252.45a4.42,4.42,0,0,0,.78,2.36c.79,1,2.16,1.48,4.12,1.48a6.15,6.15,0,0,0,3.07-.74,2.46,2.46,0,0,0,1.32-2.3,1.94,1.94,0,0,0-1.06-1.79,13.17,13.17,0,0,0-2.67-.88L78.53,250a12.24,12.24,0,0,1-3.5-1.3,3.86,3.86,0,0,1-2-3.45,5.26,5.26,0,0,1,1.9-4.21,7.62,7.62,0,0,1,5.1-1.6c2.79,0,4.81.81,6,2.42a5.24,5.24,0,0,1,1.13,3.32H84.27a3.54,3.54,0,0,0-.75-1.89c-.72-.8-2-1.2-3.76-1.2a4.6,4.6,0,0,0-2.7.66,2.05,2.05,0,0,0-.92,1.76,2.13,2.13,0,0,0,1.21,1.9,6.83,6.83,0,0,0,2.05.75l2.07.5A16.22,16.22,0,0,1,86,249.18a4.12,4.12,0,0,1,1.79,3.71,5.61,5.61,0,0,1-1.87,4.22c-1.26,1.19-3.16,1.78-5.72,1.78q-4.14,0-5.86-1.85a7,7,0,0,1-1.84-4.59Z"/><path class="cls-1" d="M91.06,233.08h3v14.58l7.89-7.77h3.93l-7,6.8,7.43,11.5H102.3l-5.76-9.31L94,251.32v6.87h-3Z"/><path class="cls-1" d="M108.71,239.89h2.92v3.16a7,7,0,0,1,1.76-2.25,4.58,4.58,0,0,1,3.23-1.32h.29l.71.07v3.25a3.63,3.63,0,0,0-.51-.07l-.5,0a4.38,4.38,0,0,0-3.57,1.5,5.17,5.17,0,0,0-1.25,3.44v10.53h-3.08Z"/><path class="cls-1" d="M131.59,240.39a7,7,0,0,1,2.77,2.37,8.3,8.3,0,0,1,1.22,3.23,21.38,21.38,0,0,1,.27,4H122.54a7.88,7.88,0,0,0,1.3,4.48,4.36,4.36,0,0,0,3.78,1.69,4.85,4.85,0,0,0,3.82-1.6,5.38,5.38,0,0,0,1.13-2.14h3a6.3,6.3,0,0,1-.79,2.24,7.84,7.84,0,0,1-1.51,2,7.07,7.07,0,0,1-3.44,1.85,10.5,10.5,0,0,1-2.49.27,7.62,7.62,0,0,1-5.76-2.49,9.73,9.73,0,0,1-2.36-7,10.53,10.53,0,0,1,2.38-7.16,7.78,7.78,0,0,1,6.21-2.75A8.27,8.27,0,0,1,131.59,240.39Zm1.1,7.19a8,8,0,0,0-.87-3.2,4.41,4.41,0,0,0-4.18-2.22,4.63,4.63,0,0,0-3.53,1.53,5.75,5.75,0,0,0-1.5,3.89Z"/><path class="cls-1" d="M149.8,240.45a8,8,0,0,1,1.86,1.8V233h3v25.19h-2.77v-2.55a6.65,6.65,0,0,1-2.54,2.45,7.28,7.28,0,0,1-3.35.75,6.78,6.78,0,0,1-5.28-2.57,10.09,10.09,0,0,1-2.23-6.85,11.92,11.92,0,0,1,2-6.93,6.68,6.68,0,0,1,5.82-2.93A6.47,6.47,0,0,1,149.8,240.45Zm-6.86,13.72a4.32,4.32,0,0,0,4,2,4.2,4.2,0,0,0,3.49-1.84,8.73,8.73,0,0,0,1.37-5.27,7.83,7.83,0,0,0-1.41-5.14,4.4,4.4,0,0,0-3.49-1.66,4.61,4.61,0,0,0-3.75,1.77,8.17,8.17,0,0,0-1.43,5.23A9.07,9.07,0,0,0,142.94,254.17Z"/><path class="cls-1" d="M169.27,240.45a8.18,8.18,0,0,1,1.85,1.8V233h3v25.19h-2.77v-2.55a6.63,6.63,0,0,1-2.53,2.45,7.29,7.29,0,0,1-3.36.75,6.81,6.81,0,0,1-5.28-2.57,10.14,10.14,0,0,1-2.23-6.85,11.85,11.85,0,0,1,2-6.93,6.65,6.65,0,0,1,5.81-2.93A6.49,6.49,0,0,1,169.27,240.45Zm-6.87,13.72a4.33,4.33,0,0,0,4,2,4.21,4.21,0,0,0,3.5-1.84,8.73,8.73,0,0,0,1.36-5.27,7.83,7.83,0,0,0-1.41-5.14,4.38,4.38,0,0,0-3.48-1.66A4.58,4.58,0,0,0,162.6,244a8.17,8.17,0,0,0-1.44,5.23A9.07,9.07,0,0,0,162.4,254.17Z"/><path class="cls-1" d="M190,240.39a6.92,6.92,0,0,1,2.77,2.37A8.14,8.14,0,0,1,194,246a20.36,20.36,0,0,1,.28,4H180.93a7.88,7.88,0,0,0,1.31,4.48,4.33,4.33,0,0,0,3.78,1.69,4.86,4.86,0,0,0,3.82-1.6,5.36,5.36,0,0,0,1.12-2.14h3a6.5,6.5,0,0,1-.79,2.24,8.32,8.32,0,0,1-1.51,2,7.16,7.16,0,0,1-3.44,1.85,10.58,10.58,0,0,1-2.5.27,7.62,7.62,0,0,1-5.75-2.49,9.69,9.69,0,0,1-2.37-7,10.58,10.58,0,0,1,2.38-7.16,7.82,7.82,0,0,1,6.22-2.75A8.23,8.23,0,0,1,190,240.39Zm1.1,7.19a8,8,0,0,0-.86-3.2,4.42,4.42,0,0,0-4.18-2.22,4.62,4.62,0,0,0-3.53,1.53,5.81,5.81,0,0,0-1.51,3.89Z"/><path class="cls-1" d="M198.23,239.89h2.92v3.16a7,7,0,0,1,1.76-2.25,4.56,4.56,0,0,1,3.23-1.32h.29l.7.07v3.25a3.32,3.32,0,0,0-.5-.07l-.51,0a4.38,4.38,0,0,0-3.57,1.5,5.23,5.23,0,0,0-1.25,3.44v10.53h-3.07Z"/><path class="cls-1" d="M211.63,252.45a4.42,4.42,0,0,0,.78,2.36c.79,1,2.16,1.48,4.12,1.48a6.15,6.15,0,0,0,3.07-.74,2.46,2.46,0,0,0,1.32-2.3,1.94,1.94,0,0,0-1.06-1.79,13.17,13.17,0,0,0-2.67-.88l-2.48-.61a12.2,12.2,0,0,1-3.51-1.3,3.86,3.86,0,0,1-2-3.45,5.26,5.26,0,0,1,1.9-4.21,7.62,7.62,0,0,1,5.1-1.6c2.79,0,4.81.81,6,2.42a5.24,5.24,0,0,1,1.13,3.32h-2.9a3.48,3.48,0,0,0-.76-1.89c-.72-.8-2-1.2-3.76-1.2a4.6,4.6,0,0,0-2.7.66,2.07,2.07,0,0,0-.92,1.76,2.13,2.13,0,0,0,1.21,1.9,6.94,6.94,0,0,0,2,.75l2.07.5a16.09,16.09,0,0,1,4.53,1.55,4.12,4.12,0,0,1,1.79,3.71,5.61,5.61,0,0,1-1.87,4.22q-1.87,1.78-5.72,1.78-4.14,0-5.86-1.85a7,7,0,0,1-1.84-4.59Z"/><path class="cls-1" d="M238.74,239.89h3.4c-.43,1.17-1.4,3.85-2.89,8-1.12,3.15-2.05,5.71-2.8,7.7q-2.67,7-3.76,8.54a4.3,4.3,0,0,1-3.75,1.53,6.47,6.47,0,0,1-1-.05,7.35,7.35,0,0,1-.86-.19v-2.8a8.91,8.91,0,0,0,1.16.27,3.8,3.8,0,0,0,.63.06,2.17,2.17,0,0,0,1.25-.29,2.32,2.32,0,0,0,.67-.69c.06-.09.27-.55.62-1.4s.61-1.46.77-1.87l-6.77-18.84h3.49l4.9,14.91Z"/><path class="cls-1" d="M254.85,240.45a8,8,0,0,1,1.86,1.8V233h3v25.19H256.9v-2.55a6.65,6.65,0,0,1-2.54,2.45,7.25,7.25,0,0,1-3.35.75,6.79,6.79,0,0,1-5.28-2.57,10.09,10.09,0,0,1-2.23-6.85,11.92,11.92,0,0,1,2-6.93,6.68,6.68,0,0,1,5.82-2.93A6.47,6.47,0,0,1,254.85,240.45ZM248,254.17a4.32,4.32,0,0,0,4,2,4.2,4.2,0,0,0,3.49-1.84,8.73,8.73,0,0,0,1.37-5.27,7.83,7.83,0,0,0-1.41-5.14,4.4,4.4,0,0,0-3.49-1.66,4.61,4.61,0,0,0-3.75,1.77,8.17,8.17,0,0,0-1.43,5.23A9.07,9.07,0,0,0,248,254.17Z"/><path class="cls-1" d="M274.32,240.45a8.18,8.18,0,0,1,1.85,1.8V233h3v25.19h-2.77v-2.55a6.63,6.63,0,0,1-2.53,2.45,7.29,7.29,0,0,1-3.36.75,6.77,6.77,0,0,1-5.27-2.57,10.09,10.09,0,0,1-2.24-6.85,11.85,11.85,0,0,1,2-6.93,6.66,6.66,0,0,1,5.81-2.93A6.49,6.49,0,0,1,274.32,240.45Zm-6.87,13.72a4.34,4.34,0,0,0,4,2,4.21,4.21,0,0,0,3.5-1.84,8.73,8.73,0,0,0,1.36-5.27,7.83,7.83,0,0,0-1.41-5.14,4.38,4.38,0,0,0-3.48-1.66,4.61,4.61,0,0,0-3.75,1.77,8.17,8.17,0,0,0-1.44,5.23A9.16,9.16,0,0,0,267.45,254.17Z"/><path class="cls-1" d="M94,294.45a4.42,4.42,0,0,0,.78,2.36c.79,1,2.16,1.48,4.12,1.48a6.15,6.15,0,0,0,3.07-.74,2.46,2.46,0,0,0,1.32-2.3,1.94,1.94,0,0,0-1.06-1.79,13.17,13.17,0,0,0-2.67-.88L97,292a12.2,12.2,0,0,1-3.51-1.3,3.86,3.86,0,0,1-2-3.45A5.26,5.26,0,0,1,93.4,283a7.62,7.62,0,0,1,5.1-1.6c2.79,0,4.81.81,6,2.42a5.24,5.24,0,0,1,1.13,3.32h-2.91a3.39,3.39,0,0,0-.75-1.89c-.72-.8-2-1.2-3.76-1.2a4.6,4.6,0,0,0-2.7.66,2.07,2.07,0,0,0-.92,1.76,2.13,2.13,0,0,0,1.21,1.9,6.94,6.94,0,0,0,2,.75l2.07.5a16.22,16.22,0,0,1,4.53,1.55,4.13,4.13,0,0,1,1.8,3.71,5.62,5.62,0,0,1-1.88,4.22q-1.87,1.78-5.72,1.78-4.14,0-5.86-1.85A7,7,0,0,1,91,294.45Z"/><path class="cls-1" d="M122.88,283.71c1.62,1.57,2.43,3.89,2.43,6.94a12,12,0,0,1-2.14,7.3q-2.15,2.9-6.64,2.89a7.46,7.46,0,0,1-6-2.55,10.15,10.15,0,0,1-2.21-6.86,11,11,0,0,1,2.32-7.34,7.8,7.8,0,0,1,6.25-2.73A8.21,8.21,0,0,1,122.88,283.71ZM121,295.88a11.61,11.61,0,0,0,1.12-5.15,9.22,9.22,0,0,0-.81-4.16,4.54,4.54,0,0,0-4.43-2.53,4.36,4.36,0,0,0-4,2.15,10,10,0,0,0-1.27,5.19,8.66,8.66,0,0,0,1.27,4.86,4.43,4.43,0,0,0,4,1.95A4.19,4.19,0,0,0,121,295.88Z"/><path class="cls-1" d="M130.52,276.3c.72-1.05,2.1-1.57,4.15-1.57h.6l.7.05v2.81l-.7-.05h-.41c-.94,0-1.51.24-1.69.72a14.39,14.39,0,0,0-.28,3.7H136v2.43h-3.08v15.79h-3V284.4H127.3V282h2.55V279.1A5.51,5.51,0,0,1,130.52,276.3Z"/><path class="cls-1" d="M139.42,276.78h3.11v5.11h2.93v2.51h-2.93v11.94a1.31,1.31,0,0,0,.65,1.29,2.89,2.89,0,0,0,1.2.18h.48a4.83,4.83,0,0,0,.6-.05v2.44a6.81,6.81,0,0,1-1.11.22,9.54,9.54,0,0,1-1.24.07,3.35,3.35,0,0,1-2.92-1.1,4.93,4.93,0,0,1-.77-2.86V284.4h-2.48v-2.51h2.48Z"/><path class="cls-1" d="M150,281.89l3.52,14.42,3.57-14.42h3.45l3.59,14.34,3.74-14.34h3.08l-5.31,18.3h-3.2L158.67,286l-3.6,14.17h-3.2l-5.28-18.3Z"/><path class="cls-1" d="M183.62,289.11a1.68,1.68,0,0,0,1.42-.88,2.87,2.87,0,0,0,.2-1.19,2.51,2.51,0,0,0-1.12-2.29,6,6,0,0,0-3.2-.71,4.05,4.05,0,0,0-3.41,1.31,4.3,4.3,0,0,0-.73,2.14h-2.87q.09-3.39,2.19-4.72a9,9,0,0,1,4.89-1.33,9.94,9.94,0,0,1,5.24,1.23,4.19,4.19,0,0,1,2,3.83v10.55a1.32,1.32,0,0,0,.2.76c.13.2.4.29.83.29a3.86,3.86,0,0,0,.46,0c.17,0,.35,0,.54-.08v2.28a8.42,8.42,0,0,1-1.09.25,7.08,7.08,0,0,1-1,.05,2.53,2.53,0,0,1-2.3-1.12,4.37,4.37,0,0,1-.53-1.7,7.86,7.86,0,0,1-2.7,2.14,8.43,8.43,0,0,1-3.88.91,5.76,5.76,0,0,1-4.16-1.55,5.13,5.13,0,0,1-1.62-3.87,5,5,0,0,1,1.59-3.94,7.54,7.54,0,0,1,4.17-1.72Zm-6.48,8.31a3.58,3.58,0,0,0,2.31.77,7,7,0,0,0,3.14-.75,4.22,4.22,0,0,0,2.56-4.08v-2.47a5.11,5.11,0,0,1-1.44.6,12.83,12.83,0,0,1-1.75.34l-1.85.24a7.18,7.18,0,0,0-2.52.7,2.72,2.72,0,0,0-1.42,2.56A2.51,2.51,0,0,0,177.14,297.42Z"/><path class="cls-1" d="M193.36,281.89h2.92v3.16A7,7,0,0,1,198,282.8a4.56,4.56,0,0,1,3.23-1.32h.29l.7.07v3.25a3.32,3.32,0,0,0-.5-.07l-.51,0a4.38,4.38,0,0,0-3.57,1.5,5.23,5.23,0,0,0-1.25,3.44v10.53h-3.07Z"/><path class="cls-1" d="M216.23,282.39a6.92,6.92,0,0,1,2.77,2.37,8.14,8.14,0,0,1,1.22,3.23,20.36,20.36,0,0,1,.28,4H207.18a7.88,7.88,0,0,0,1.31,4.48,4.33,4.33,0,0,0,3.78,1.69,4.86,4.86,0,0,0,3.82-1.6,5.36,5.36,0,0,0,1.12-2.14h3a6.5,6.5,0,0,1-.79,2.24,8.32,8.32,0,0,1-1.51,2,7.16,7.16,0,0,1-3.44,1.85,10.58,10.58,0,0,1-2.5.27,7.62,7.62,0,0,1-5.75-2.49,9.69,9.69,0,0,1-2.37-7,10.58,10.58,0,0,1,2.38-7.16,7.82,7.82,0,0,1,6.22-2.75A8.23,8.23,0,0,1,216.23,282.39Zm1.1,7.19a8,8,0,0,0-.86-3.2,4.42,4.42,0,0,0-4.18-2.22,4.62,4.62,0,0,0-3.53,1.53,5.81,5.81,0,0,0-1.51,3.89Z"/></svg>