<svg id="Layer_1" data-name="Layer 1" xmlns="http://www.w3.org/2000/svg" viewBox="0 0 300 600"><defs><style>.cls-1{fill:#010121;}</style></defs><title>text</title><path class="cls-1" d="M61.35,223.9h3.44V249H61.35Z"/><path class="cls-1" d="M88.56,223.9v3H80.1V249H76.67V226.89H68.21v-3Z"/><path class="cls-1" d="M100.47,223.9h3.08V249h-3.08Z"/><path class="cls-1" d="M107.48,248.93l2.19-2.3a10.08,10.08,0,0,1-1.32-2.83,13.25,13.25,0,0,1-.46-3.73,11.49,11.49,0,0,1,2.18-6.89,7.32,7.32,0,0,1,6.34-3,8.74,8.74,0,0,1,3.8.77,10.84,10.84,0,0,1,2.2,1.48l2.18-2.41.89.87-2.2,2.45a10.4,10.4,0,0,1,1.55,3.61,12.39,12.39,0,0,1,.29,2.63,10.93,10.93,0,0,1-2.4,7.27,7.91,7.91,0,0,1-6.38,2.86,9.59,9.59,0,0,1-3.38-.55,6.41,6.41,0,0,1-2.4-1.51l-2.07,2.18Zm11.43-15.57a5.57,5.57,0,0,0-2.38-.49,4.73,4.73,0,0,0-4,2.08,8.84,8.84,0,0,0-1.51,5.34,10.76,10.76,0,0,0,.26,2.37c.11.42.29,1,.53,1.61l8.68-9.7A3.62,3.62,0,0,0,118.91,233.36Zm-4.51,13.32a6.33,6.33,0,0,0,2,.34,4.73,4.73,0,0,0,4.63-3,10.14,10.14,0,0,0,.83-4.21,12,12,0,0,0-.26-2.65,9.18,9.18,0,0,0-.47-1.4l-8.57,9.65A4.35,4.35,0,0,0,114.4,246.68Z"/><path class="cls-1" d="M131.37,243.26a4.42,4.42,0,0,0,.79,2.36c.79,1,2.16,1.48,4.11,1.48a6.09,6.09,0,0,0,3.07-.74,2.46,2.46,0,0,0,1.33-2.3,1.94,1.94,0,0,0-1.06-1.79,12.71,12.71,0,0,0-2.67-.87l-2.49-.62a12.45,12.45,0,0,1-3.51-1.3,3.87,3.87,0,0,1-2-3.45,5.28,5.28,0,0,1,1.89-4.21,7.66,7.66,0,0,1,5.11-1.6q4.19,0,6,2.43A5.25,5.25,0,0,1,143.1,236h-2.91a3.54,3.54,0,0,0-.75-1.89c-.72-.8-2-1.2-3.76-1.2a4.65,4.65,0,0,0-2.71.66,2.06,2.06,0,0,0-.91,1.76,2.14,2.14,0,0,0,1.2,1.9,7,7,0,0,0,2.06.75l2.07.5a16.22,16.22,0,0,1,4.53,1.55,4.14,4.14,0,0,1,1.79,3.71,5.62,5.62,0,0,1-1.88,4.22q-1.87,1.79-5.71,1.78-4.14,0-5.86-1.85a7,7,0,0,1-1.84-4.59Z"/><path class="cls-1" d="M147,230.7H150v2.59a8,8,0,0,1,2.75-2.3,7.29,7.29,0,0,1,3.23-.7c2.59,0,4.35.9,5.26,2.71a9.71,9.71,0,0,1,.75,4.26V249h-3.12V237.46a6.29,6.29,0,0,0-.5-2.7,3,3,0,0,0-3-1.7,6,6,0,0,0-1.8.22,4.64,4.64,0,0,0-2.22,1.5,4.57,4.57,0,0,0-1,1.87,12.93,12.93,0,0,0-.23,2.76V249H147Z"/><path class="cls-1" d="M166.51,223.9h3.13v3.48h-3.13Zm0,6.88h3.13V249h-3.13Z"/><path class="cls-1" d="M174.28,230.7h2.93v2.59A8,8,0,0,1,180,231a7.29,7.29,0,0,1,3.23-.7q3.9,0,5.26,2.71a9.71,9.71,0,0,1,.75,4.26V249h-3.12V237.46a6.29,6.29,0,0,0-.5-2.7,3,3,0,0,0-3-1.7,6,6,0,0,0-1.8.22,4.64,4.64,0,0,0-2.22,1.5,4.69,4.69,0,0,0-1,1.87,12.93,12.93,0,0,0-.23,2.76V249h-3.08Z"/><path class="cls-1" d="M203.93,231.43a9,9,0,0,1,1.77,1.74v-2.3h2.83v16.64a12.36,12.36,0,0,1-1,5.51q-1.9,3.72-7.2,3.72a8.84,8.84,0,0,1-5-1.32,5.19,5.19,0,0,1-2.25-4.15h3.13a3.51,3.51,0,0,0,.88,1.9,4.51,4.51,0,0,0,3.27,1c2.34,0,3.88-.84,4.6-2.5a14.21,14.21,0,0,0,.6-5.25,6,6,0,0,1-2.22,2.09,7.39,7.39,0,0,1-3.42.68,7.27,7.27,0,0,1-5.18-2.11c-1.48-1.41-2.22-3.73-2.22-7a10.62,10.62,0,0,1,2.23-7.18,6.93,6.93,0,0,1,5.41-2.58A6.7,6.7,0,0,1,203.93,231.43Zm.37,3.3a4.46,4.46,0,0,0-3.55-1.64,4.38,4.38,0,0,0-4.42,3,12,12,0,0,0-.63,4.26,7.5,7.5,0,0,0,1.25,4.7,4,4,0,0,0,3.36,1.62,4.73,4.73,0,0,0,4.64-3,9.67,9.67,0,0,0,.75-3.95A7.64,7.64,0,0,0,204.3,234.73Z"/><path class="cls-1" d="M224.52,231.2a6.92,6.92,0,0,1,2.77,2.37,8.14,8.14,0,0,1,1.22,3.23,21.38,21.38,0,0,1,.27,4H215.47a7.88,7.88,0,0,0,1.31,4.48,4.33,4.33,0,0,0,3.78,1.69,4.84,4.84,0,0,0,3.81-1.6,5.38,5.38,0,0,0,1.13-2.14h3a6.34,6.34,0,0,1-.8,2.24,8,8,0,0,1-1.5,2,7.15,7.15,0,0,1-3.45,1.85,10.44,10.44,0,0,1-2.49.27,7.65,7.65,0,0,1-5.76-2.49,9.73,9.73,0,0,1-2.36-7,10.58,10.58,0,0,1,2.38-7.16,7.82,7.82,0,0,1,6.22-2.75A8.23,8.23,0,0,1,224.52,231.2Zm1.1,7.19a8,8,0,0,0-.86-3.2,4.43,4.43,0,0,0-4.19-2.22,4.61,4.61,0,0,0-3.52,1.53,5.81,5.81,0,0,0-1.51,3.89Z"/><path class="cls-1" d="M232.77,230.7h2.92v3.16a6.84,6.84,0,0,1,1.76-2.25,4.56,4.56,0,0,1,3.23-1.32H241l.7.07v3.25a3.32,3.32,0,0,0-.5-.07l-.51,0a4.38,4.38,0,0,0-3.57,1.5,5.23,5.23,0,0,0-1.25,3.44V249h-3.07Z"/><path class="cls-1" d="M88,285.26a4.51,4.51,0,0,0,.79,2.36c.79,1,2.16,1.48,4.12,1.48a6.15,6.15,0,0,0,3.07-.74,2.46,2.46,0,0,0,1.32-2.3,1.94,1.94,0,0,0-1.06-1.79,12.71,12.71,0,0,0-2.67-.87L91,282.78a12.45,12.45,0,0,1-3.51-1.3,3.87,3.87,0,0,1-2-3.45,5.26,5.26,0,0,1,1.9-4.21,7.62,7.62,0,0,1,5.1-1.6c2.79,0,4.81.81,6,2.43A5.25,5.25,0,0,1,99.69,278H96.78a3.54,3.54,0,0,0-.75-1.89c-.72-.8-2-1.2-3.76-1.2a4.6,4.6,0,0,0-2.7.66,2.05,2.05,0,0,0-.92,1.76,2.14,2.14,0,0,0,1.2,1.9,7,7,0,0,0,2.06.75l2.07.5A16.22,16.22,0,0,1,98.51,282a4.14,4.14,0,0,1,1.79,3.71,5.61,5.61,0,0,1-1.87,4.22c-1.26,1.19-3.16,1.78-5.72,1.78q-4.14,0-5.86-1.85A7,7,0,0,1,85,285.26Z"/><path class="cls-1" d="M116.9,274.52c1.61,1.57,2.42,3.89,2.42,6.94a12,12,0,0,1-2.13,7.3q-2.14,2.89-6.64,2.89a7.48,7.48,0,0,1-6-2.55,10.13,10.13,0,0,1-2.2-6.86,11,11,0,0,1,2.32-7.34,7.78,7.78,0,0,1,6.25-2.73A8.21,8.21,0,0,1,116.9,274.52ZM115,286.69a11.61,11.61,0,0,0,1.12-5.15,9.22,9.22,0,0,0-.81-4.16,4.55,4.55,0,0,0-4.43-2.53,4.35,4.35,0,0,0-4.05,2.15,10,10,0,0,0-1.27,5.19,8.66,8.66,0,0,0,1.27,4.86,4.43,4.43,0,0,0,4,1.95A4.2,4.2,0,0,0,115,286.69Z"/><path class="cls-1" d="M123.1,272.7h3v2.59a10,10,0,0,1,2-2,5.9,5.9,0,0,1,3.45-1,5.47,5.47,0,0,1,3.52,1.07,5.71,5.71,0,0,1,1.36,1.81,6.76,6.76,0,0,1,2.41-2.17,6.65,6.65,0,0,1,3.11-.71c2.47,0,4.14.89,5,2.66a8.71,8.71,0,0,1,.72,3.86V291h-3.2V278.29a3,3,0,0,0-.91-2.52,3.67,3.67,0,0,0-2.23-.68,4.42,4.42,0,0,0-3.12,1.21,5.34,5.34,0,0,0-1.31,4.05V291h-3.13V279.05a6.28,6.28,0,0,0-.44-2.71,2.71,2.71,0,0,0-2.62-1.28,4.51,4.51,0,0,0-3.17,1.35c-.95.9-1.42,2.52-1.42,4.88V291H123.1Z"/><path class="cls-1" d="M161.72,265.81h3v9.11a6.73,6.73,0,0,1,5.48-2.7,7.15,7.15,0,0,1,5.56,2.35q2.15,2.34,2.14,6.93a11.82,11.82,0,0,1-2.11,7.21,6.87,6.87,0,0,1-5.85,2.87,6,6,0,0,1-3.53-1,8.25,8.25,0,0,1-1.84-1.91V291h-2.84Zm11.77,21.07a9.8,9.8,0,0,0,1.24-5.23,8.62,8.62,0,0,0-1.24-4.78,4.1,4.1,0,0,0-3.67-1.9,5.14,5.14,0,0,0-3.69,1.55q-1.59,1.56-1.59,5.13a11.41,11.41,0,0,0,.65,4.19,4.51,4.51,0,0,0,4.55,3A4.13,4.13,0,0,0,173.49,286.88Z"/><path class="cls-1" d="M181.53,265.9h3.08V291h-3.08Z"/><path class="cls-1" d="M189.22,265.9h3.13v3.48h-3.13Zm0,6.88h3.13V291h-3.13Z"/><path class="cls-1" d="M197.08,272.7H200v3.16a6.9,6.9,0,0,1,1.77-2.25,4.56,4.56,0,0,1,3.23-1.32h.29l.7.07v3.25a3.44,3.44,0,0,0-.51-.07l-.5,0a4.38,4.38,0,0,0-3.57,1.5,5.17,5.17,0,0,0-1.25,3.44V291h-3.08Z"/><path class="cls-1" d="M107.85,315.26a8.32,8.32,0,0,1,1.85,1.79v-9.24h3V333h-2.77v-2.55a6.65,6.65,0,0,1-2.54,2.45,7.22,7.22,0,0,1-3.35.75,6.81,6.81,0,0,1-5.28-2.57,10.09,10.09,0,0,1-2.23-6.85,11.85,11.85,0,0,1,2-6.93,6.65,6.65,0,0,1,5.81-2.93A6.51,6.51,0,0,1,107.85,315.26ZM101,329a4.33,4.33,0,0,0,4,2,4.18,4.18,0,0,0,3.49-1.84,8.66,8.66,0,0,0,1.37-5.27,7.83,7.83,0,0,0-1.41-5.14,4.4,4.4,0,0,0-3.49-1.67,4.58,4.58,0,0,0-3.74,1.78,8.17,8.17,0,0,0-1.44,5.23A9.07,9.07,0,0,0,101,329Z"/><path class="cls-1" d="M128.7,314.7h3.4c-.43,1.17-1.4,3.85-2.89,8-1.12,3.15-2.05,5.71-2.8,7.7q-2.67,7-3.76,8.53a4.28,4.28,0,0,1-3.75,1.54,6.47,6.47,0,0,1-1-.05,7.45,7.45,0,0,1-.87-.19v-2.8a9.72,9.72,0,0,0,1.16.27,3.91,3.91,0,0,0,.64.06,2.2,2.2,0,0,0,1.25-.29,2.32,2.32,0,0,0,.67-.69c.06-.09.26-.55.62-1.4s.61-1.46.76-1.87l-6.76-18.84h3.48l4.91,14.91Z"/><path class="cls-1" d="M134.84,314.7h2.92v3.16a7,7,0,0,1,1.76-2.25,4.58,4.58,0,0,1,3.23-1.32H143l.71.07v3.25a3.63,3.63,0,0,0-.51-.07l-.5,0a4.38,4.38,0,0,0-3.57,1.5,5.17,5.17,0,0,0-1.25,3.44V333h-3.08Z"/><path class="cls-1" d="M157.72,315.2a7,7,0,0,1,2.77,2.37,8.3,8.3,0,0,1,1.22,3.23,21.38,21.38,0,0,1,.27,4H148.67a7.88,7.88,0,0,0,1.3,4.48,4.36,4.36,0,0,0,3.78,1.69,4.85,4.85,0,0,0,3.82-1.6,5.38,5.38,0,0,0,1.13-2.14h3a6.3,6.3,0,0,1-.79,2.24,7.84,7.84,0,0,1-1.51,2,7.07,7.07,0,0,1-3.44,1.85,10.55,10.55,0,0,1-2.49.27,7.62,7.62,0,0,1-5.76-2.49,9.73,9.73,0,0,1-2.36-7,10.53,10.53,0,0,1,2.38-7.16,7.78,7.78,0,0,1,6.21-2.75A8.3,8.3,0,0,1,157.72,315.2Zm1.1,7.19a8,8,0,0,0-.87-3.2,4.41,4.41,0,0,0-4.18-2.22,4.63,4.63,0,0,0-3.53,1.53,5.75,5.75,0,0,0-1.5,3.89Z"/><path class="cls-1" d="M166,314.7h2.92v3.16a7,7,0,0,1,1.76-2.25,4.6,4.6,0,0,1,3.23-1.32h.3l.7.07v3.25a3.44,3.44,0,0,0-.51-.07l-.5,0a4.38,4.38,0,0,0-3.57,1.5,5.17,5.17,0,0,0-1.25,3.44V333H166Z"/><path class="cls-1" d="M188.84,315.2a7,7,0,0,1,2.77,2.37,8.3,8.3,0,0,1,1.22,3.23,21.38,21.38,0,0,1,.27,4H179.79a7.88,7.88,0,0,0,1.3,4.48,4.36,4.36,0,0,0,3.78,1.69,4.85,4.85,0,0,0,3.82-1.6,5.38,5.38,0,0,0,1.13-2.14h3a6.3,6.3,0,0,1-.79,2.24,7.84,7.84,0,0,1-1.51,2,7.07,7.07,0,0,1-3.44,1.85,10.5,10.5,0,0,1-2.49.27,7.62,7.62,0,0,1-5.76-2.49,9.73,9.73,0,0,1-2.36-7,10.53,10.53,0,0,1,2.38-7.16,7.78,7.78,0,0,1,6.21-2.75A8.27,8.27,0,0,1,188.84,315.2Zm1.1,7.19a8,8,0,0,0-.87-3.2,4.41,4.41,0,0,0-4.18-2.22,4.63,4.63,0,0,0-3.53,1.53,5.8,5.8,0,0,0-1.5,3.89Z"/><path class="cls-1" d="M58.47,357.2a7,7,0,0,1,2.77,2.37,8.3,8.3,0,0,1,1.22,3.23,21.38,21.38,0,0,1,.27,4H49.42a7.88,7.88,0,0,0,1.3,4.48A4.36,4.36,0,0,0,54.5,373a4.85,4.85,0,0,0,3.82-1.6,5.38,5.38,0,0,0,1.13-2.14h3a6.3,6.3,0,0,1-.79,2.24,7.84,7.84,0,0,1-1.51,2,7.07,7.07,0,0,1-3.44,1.85,10.5,10.5,0,0,1-2.49.27,7.62,7.62,0,0,1-5.76-2.49,9.73,9.73,0,0,1-2.36-7A10.53,10.53,0,0,1,48.5,359a7.78,7.78,0,0,1,6.21-2.75A8.27,8.27,0,0,1,58.47,357.2Zm1.1,7.19a8.15,8.15,0,0,0-.86-3.2A4.44,4.44,0,0,0,54.52,359,4.63,4.63,0,0,0,51,360.5a5.8,5.8,0,0,0-1.5,3.89Z"/><path class="cls-1" d="M66.63,356.7h2.92v2.59A8.23,8.23,0,0,1,72.3,357a7.32,7.32,0,0,1,3.23-.7q3.9,0,5.26,2.71a9.55,9.55,0,0,1,.76,4.26V375H78.42V363.46a6.29,6.29,0,0,0-.5-2.7,3,3,0,0,0-3-1.71,5.9,5.9,0,0,0-1.79.23,5,5,0,0,0-3.23,3.37,12.93,12.93,0,0,0-.23,2.76V375H66.63Z"/><path class="cls-1" d="M86.09,356.7H89v2.59a8.14,8.14,0,0,1,2.75-2.3,7.26,7.26,0,0,1,3.23-.7c2.59,0,4.35.9,5.26,2.71a9.71,9.71,0,0,1,.75,4.26V375H97.88V363.46a6.3,6.3,0,0,0-.49-2.7,3,3,0,0,0-3-1.71,6,6,0,0,0-1.8.23,4.64,4.64,0,0,0-2.22,1.5,4.51,4.51,0,0,0-1,1.87,12.93,12.93,0,0,0-.23,2.76V375H86.09Z"/><path class="cls-1" d="M115,356.78h3v2.43a7.35,7.35,0,0,1,2-1.93,6.44,6.44,0,0,1,3.66-1,6.91,6.91,0,0,1,5.3,2.39q2.17,2.39,2.17,6.81c0,4-1,6.83-3.14,8.54a7.11,7.11,0,0,1-4.63,1.63,6.34,6.34,0,0,1-3.48-.91A8.1,8.1,0,0,1,118.1,373v9.35H115Zm11.57,14.35a8.58,8.58,0,0,0,1.43-5.39,10.1,10.1,0,0,0-.63-3.76,4.65,4.65,0,0,0-8.78.17,12.42,12.42,0,0,0-.64,4.34,9.1,9.1,0,0,0,.64,3.61,4.67,4.67,0,0,0,8,1Z"/><path class="cls-1" d="M134.83,349.89h3.08V375h-3.08Z"/><path class="cls-1" d="M152.33,363.92a1.66,1.66,0,0,0,1.42-.88,2.7,2.7,0,0,0,.21-1.19,2.53,2.53,0,0,0-1.12-2.29,6,6,0,0,0-3.2-.71,4.05,4.05,0,0,0-3.41,1.31,4.2,4.2,0,0,0-.73,2.14h-2.87q.08-3.39,2.19-4.72a9,9,0,0,1,4.89-1.33,9.94,9.94,0,0,1,5.24,1.23,4.19,4.19,0,0,1,2,3.83v10.55a1.37,1.37,0,0,0,.19.77,1,1,0,0,0,.83.29l.46,0c.17,0,.36,0,.55-.08v2.28a8.81,8.81,0,0,1-1.09.25,7.17,7.17,0,0,1-1,.05,2.53,2.53,0,0,1-2.31-1.12,4.54,4.54,0,0,1-.53-1.7,7.67,7.67,0,0,1-2.7,2.14,8.36,8.36,0,0,1-3.87.91,5.8,5.8,0,0,1-4.17-1.55,5.15,5.15,0,0,1-1.61-3.86,5,5,0,0,1,1.59-3.95,7.54,7.54,0,0,1,4.17-1.72Zm-6.47,8.31a3.55,3.55,0,0,0,2.3.77,7,7,0,0,0,3.15-.75,4.22,4.22,0,0,0,2.56-4.08V365.7a5.19,5.19,0,0,1-1.45.6,12.41,12.41,0,0,1-1.74.34l-1.86.24a7.19,7.19,0,0,0-2.51.7,2.71,2.71,0,0,0-1.43,2.56A2.52,2.52,0,0,0,145.86,372.23Z"/><path class="cls-1" d="M162,356.7h2.92v2.59a8.23,8.23,0,0,1,2.75-2.3,7.32,7.32,0,0,1,3.23-.7c2.6,0,4.35.9,5.27,2.71a9.71,9.71,0,0,1,.75,4.26V375h-3.13V363.46a6.3,6.3,0,0,0-.49-2.7,3,3,0,0,0-3-1.71,5.9,5.9,0,0,0-1.79.23,4.55,4.55,0,0,0-2.22,1.5,4.4,4.4,0,0,0-1,1.87,12.2,12.2,0,0,0-.24,2.76V375H162Z"/><path class="cls-1" d="M181.54,349.89h3.08V375h-3.08Z"/><path class="cls-1" d="M199,363.92a1.66,1.66,0,0,0,1.42-.88,2.87,2.87,0,0,0,.2-1.19,2.53,2.53,0,0,0-1.11-2.29,6,6,0,0,0-3.2-.71,4.05,4.05,0,0,0-3.41,1.31,4.3,4.3,0,0,0-.74,2.14h-2.87q.09-3.39,2.2-4.72a9,9,0,0,1,4.89-1.33,10,10,0,0,1,5.24,1.23,4.18,4.18,0,0,1,2,3.83v10.55a1.37,1.37,0,0,0,.2.77,1,1,0,0,0,.83.29l.46,0c.17,0,.35,0,.55-.08v2.28a8.88,8.88,0,0,1-1.1.25,7,7,0,0,1-1,.05,2.53,2.53,0,0,1-2.31-1.12,4.37,4.37,0,0,1-.53-1.7,7.86,7.86,0,0,1-2.7,2.14,8.4,8.4,0,0,1-3.88.91,5.77,5.77,0,0,1-4.16-1.55,5.11,5.11,0,0,1-1.61-3.86,5,5,0,0,1,1.58-3.95,7.54,7.54,0,0,1,4.17-1.72Zm-6.48,8.31a3.58,3.58,0,0,0,2.31.77,7,7,0,0,0,3.14-.75,4.23,4.23,0,0,0,2.57-4.08V365.7a5.32,5.32,0,0,1-1.45.6,12.41,12.41,0,0,1-1.74.34l-1.86.24a7.19,7.19,0,0,0-2.51.7,2.7,2.7,0,0,0-1.43,2.56A2.51,2.51,0,0,0,192.56,372.23Z"/><path class="cls-1" d="M218.87,357.43a8.45,8.45,0,0,1,1.77,1.74v-2.3h2.84v16.64a12.36,12.36,0,0,1-1,5.51q-1.92,3.72-7.21,3.72a8.86,8.86,0,0,1-5-1.32,5.21,5.21,0,0,1-2.24-4.15h3.12a3.52,3.52,0,0,0,.89,1.9,4.5,4.5,0,0,0,3.26,1c2.35,0,3.88-.84,4.61-2.5a14,14,0,0,0,.59-5.25,6,6,0,0,1-2.21,2.09,7.39,7.39,0,0,1-3.42.68,7.28,7.28,0,0,1-5.19-2.11q-2.22-2.1-2.22-7a10.63,10.63,0,0,1,2.24-7.18,6.91,6.91,0,0,1,5.41-2.58A6.67,6.67,0,0,1,218.87,357.43Zm.38,3.3a4.48,4.48,0,0,0-3.56-1.64,4.39,4.39,0,0,0-4.42,3,12,12,0,0,0-.63,4.26,7.57,7.57,0,0,0,1.25,4.7,4,4,0,0,0,3.36,1.62,4.71,4.71,0,0,0,4.64-3,9.67,9.67,0,0,0,.75-4A7.64,7.64,0,0,0,219.25,360.73Z"/><path class="cls-1" d="M228.78,351.59h3.11v5.11h2.92v2.51h-2.92v11.94a1.3,1.3,0,0,0,.65,1.29,2.77,2.77,0,0,0,1.19.19l.48,0a4.83,4.83,0,0,0,.6-.05V375a6.49,6.49,0,0,1-1.1.22,9.75,9.75,0,0,1-1.24.07,3.37,3.37,0,0,1-2.93-1.1,4.93,4.93,0,0,1-.76-2.86V359.21H226.3V356.7h2.48Z"/><path class="cls-1" d="M240.41,351.82a7.53,7.53,0,0,1,5.79-2.25,7.68,7.68,0,0,1,5.46,1.92,6.43,6.43,0,0,1,2.05,4.92,5.34,5.34,0,0,1-.74,2.94,22.87,22.87,0,0,1-3.05,3.31,9.85,9.85,0,0,0-2.18,2.69,8.09,8.09,0,0,0-.51,3.26h-3a11,11,0,0,1,.58-3.94,10.46,10.46,0,0,1,2.59-3.43l1.39-1.35a5.66,5.66,0,0,0,1-1.21,4.25,4.25,0,0,0,.71-2.31,4.41,4.41,0,0,0-1-2.9,5,5,0,0,0-7.41.89,8.07,8.07,0,0,0-.71,3.4h-3.05A8.31,8.31,0,0,1,240.41,351.82Zm3.71,19.63h3.4V375h-3.4Z"/></svg>