<svg id="Layer_1" data-name="Layer 1" xmlns="http://www.w3.org/2000/svg" viewBox="0 0 250 720"><defs><style>.cls-1{fill:#d4ac76;}</style></defs><title>text</title><path class="cls-1" d="M59,67.84V53.16h4.83A4.44,4.44,0,0,1,67,54.38a4.08,4.08,0,0,1,1.27,3,3.47,3.47,0,0,1-1.65,2.95,4.07,4.07,0,0,1,1.63,1.31,3.16,3.16,0,0,1,.6,1.87,4,4,0,0,1-1.28,3.11,4.61,4.61,0,0,1-3.25,1.18Zm4.51-12.23h-2v3.68h2.2a2,2,0,0,0,1.46-.54,1.81,1.81,0,0,0,.56-1.35,1.56,1.56,0,0,0-.62-1.3A2.53,2.53,0,0,0,63.47,55.61Zm.42,5.89H61.5v3.89h2.33a2.38,2.38,0,0,0,1.66-.55,2,2,0,0,0,0-2.82A2.34,2.34,0,0,0,63.89,61.5Z"/><path class="cls-1" d="M81.45,61.63H76v3.76h6v2.45H73.26V53.16h8.55v2.45H76v3.57h5.43Z"/><path class="cls-1" d="M90.35,68a7,7,0,0,1-2.77-.58,7.23,7.23,0,0,1-2.38-1.6L87,63.76a5.34,5.34,0,0,0,1.62,1.31,4.16,4.16,0,0,0,1.93.51,2.37,2.37,0,0,0,1.57-.5,1.58,1.58,0,0,0,.61-1.27,2.2,2.2,0,0,0-1.61-2l-1.64-.65A6.4,6.4,0,0,1,87,59.5,3.73,3.73,0,0,1,86.2,57a3.83,3.83,0,0,1,1.25-2.79A4.24,4.24,0,0,1,90.56,53a6.3,6.3,0,0,1,4.52,1.67l-1.62,2.05a3.78,3.78,0,0,0-2.9-1.27,2,2,0,0,0-1.32.42,1.31,1.31,0,0,0-.49,1,1.37,1.37,0,0,0,.39,1,3.71,3.71,0,0,0,1.26.76l1.71.68q3.27,1.32,3.33,4.24a4.11,4.11,0,0,1-1.39,3.22A5.35,5.35,0,0,1,90.35,68Z"/><path class="cls-1" d="M114.19,60.49A7.61,7.61,0,1,1,112,55.1,7.35,7.35,0,0,1,114.19,60.49ZM103.1,64A4.84,4.84,0,0,0,110,64a5.06,5.06,0,0,0,0-7,4.82,4.82,0,0,0-6.91,0,5.09,5.09,0,0,0,0,7Zm2.17-12.35a1.17,1.17,0,0,1-.89.39,1.21,1.21,0,0,1-.91-.39,1.32,1.32,0,0,1-.38-.94,1.26,1.26,0,0,1,.37-.93,1.28,1.28,0,0,1,.92-.39,1.18,1.18,0,0,1,.88.39,1.27,1.27,0,0,1,.38.93A1.31,1.31,0,0,1,105.27,51.65Zm4.37,0a1.34,1.34,0,0,1-1,.39,1.33,1.33,0,0,1-1-.39,1.27,1.27,0,0,1-.41-.94,1.22,1.22,0,0,1,.41-.93,1.33,1.33,0,0,1,1-.39,1.34,1.34,0,0,1,1,.39,1.22,1.22,0,0,1,.41.93A1.27,1.27,0,0,1,109.64,51.65Z"/><path class="cls-1" d="M118.41,67.84V53.16H121v6.47l5.63-6.47H130L124.8,59l5.29,8.82h-3.17l-4-6.7-2,2.22v4.48Z"/><path class="cls-1" d="M140.5,55.8V53.16h12.11V55.8h-4.68v12h-2.75v-12Z"/><path class="cls-1" d="M165.76,66.52a6,6,0,0,1-8,0,5.18,5.18,0,0,1-1.59-3.88V53.16h2.76v9.12a3.37,3.37,0,0,0,.75,2.26,2.92,2.92,0,0,0,4.19,0,3.31,3.31,0,0,0,.76-2.23V53.16h2.75v9.48A5.18,5.18,0,0,1,165.76,66.52Z"/><path class="cls-1" d="M172.27,67.84V53.16h8v2.45H175v4h4.67v2.45H175v5.77Z"/><path class="cls-1" d="M184.28,67.84V53.16h8v2.45H187v4h4.67v2.45H187v5.77Z"/><path class="cls-1" d="M41.84,90.64V79.22L39.39,80.5V78l3.94-2.13h1.05V90.64Z"/><path class="cls-1" d="M47.71,93.32l1.69-5,2.3.8-2.45,4.75Z"/><path class="cls-1" d="M59.77,90.83a5,5,0,0,1-3-.91A4.64,4.64,0,0,1,55,87.5l2.28-.9a2.52,2.52,0,0,0,.91,1.28,2.71,2.71,0,0,0,1.64.5,2.33,2.33,0,0,0,1.68-.71,2.43,2.43,0,0,0,.7-1.77,2.24,2.24,0,0,0-.73-1.73,2.5,2.5,0,0,0-1.76-.69,2.23,2.23,0,0,0-1.72.76H55.46V76h8.38v2.45H58v3.31a4,4,0,0,1,1.76-.44,5.06,5.06,0,0,1,3.65,1.3,4.42,4.42,0,0,1,1.37,3.32,4.72,4.72,0,0,1-1.47,3.47A4.84,4.84,0,0,1,59.77,90.83Z"/><path class="cls-1" d="M68.25,84.41v-2.2h5.81v2.2Z"/><path class="cls-1" d="M78.62,90.64V76h5.27A5,5,0,0,1,89,81a4.68,4.68,0,0,1-1.49,3.54A5.18,5.18,0,0,1,83.85,86H81.38v4.67Zm5-12H81.38v4.92h2.31a2.6,2.6,0,0,0,1.85-.66,2.27,2.27,0,0,0,.7-1.76,2.41,2.41,0,0,0-.72-1.8A2.54,2.54,0,0,0,83.66,78.6Z"/><path class="cls-1" d="M93,90.64V76H95.8V88h5.39v2.64Z"/><path class="cls-1" d="M103.74,90.64,109.4,76h2.49l5.64,14.68H114.7l-.78-2h-6.57l-.78,2Zm6.91-10.57-2.35,6.09H113Z"/><path class="cls-1" d="M121,90.64V76h1.93l7.23,9.23V76h2.75V90.64H131l-7.31-9.34v9.34Z"/><path class="cls-1" d="M141.9,90.83a7,7,0,0,1-2.77-.58,7.13,7.13,0,0,1-2.38-1.6l1.75-2.1a5.23,5.23,0,0,0,1.62,1.32,4.16,4.16,0,0,0,1.93.51,2.42,2.42,0,0,0,1.57-.5,1.61,1.61,0,0,0,.61-1.27,2.2,2.2,0,0,0-1.61-2L141,83.92a6.32,6.32,0,0,1-2.44-1.62,3.75,3.75,0,0,1-.79-2.5A3.79,3.79,0,0,1,139,77a4.23,4.23,0,0,1,3.11-1.22,6.3,6.3,0,0,1,4.52,1.67L145,79.51a3.78,3.78,0,0,0-2.9-1.27,2,2,0,0,0-1.32.42,1.32,1.32,0,0,0-.5,1,1.37,1.37,0,0,0,.39,1,3.92,3.92,0,0,0,1.26.76l1.72.68c2.17.87,3.28,2.29,3.32,4.24a4.13,4.13,0,0,1-1.38,3.22A5.35,5.35,0,0,1,141.9,90.83Z"/><path class="cls-1" d="M155.07,90.64,149.45,76h2.87l4,10.56,4-10.56h2.79l-5.56,14.68Z"/><path class="cls-1" d="M166.59,90.64V76h2.76V90.64Z"/><path class="cls-1" d="M174.59,90.64V76h2.75V88h5.4v2.64Z"/><path class="cls-1" d="M186.71,90.64V76h2.76V88h5.39v2.64Z"/><path class="cls-1" d="M197.41,90.64,203.07,76h2.49l5.64,14.68h-2.83l-.78-2H201l-.78,2Zm6.91-10.57L202,86.16h4.68Z"/></svg>