<svg id="Layer_1" data-name="Layer 1" xmlns="http://www.w3.org/2000/svg" viewBox="0 0 250 720"><defs><style>.cls-1{fill:#d80201;}</style></defs><title>text</title><path class="cls-1" d="M69.77,401.41H67.91L60.25,383h3.83L68.88,395,73.74,383h3.81Z"/><path class="cls-1" d="M80.76,386.29a2,2,0,1,1,1.95-2A2,2,0,0,1,80.76,386.29ZM79.12,401V389.26h3.26V401Z"/><path class="cls-1" d="M85.46,401V380.73h3.27V401Z"/><path class="cls-1" d="M91.86,401V380.73h3.27V401Z"/><path class="cls-1" d="M107.19,401v-1.54a4.5,4.5,0,0,1-3.8,1.92c-3.51,0-5.75-2.91-5.75-6.26s2.24-6.18,5.67-6.18a4.84,4.84,0,0,1,3.88,1.86v-1.49h3.3V401Zm-2.91-9.12a3.28,3.28,0,1,0,3.27,3.26A3.26,3.26,0,0,0,104.28,391.83Z"/><path class="cls-1" d="M119.56,401.2h-1.51l-6-11.94h3.68l3.07,6.59,3.08-6.59h3.67Z"/><path class="cls-1" d="M128.77,386.29a2,2,0,1,1,1.94-2A2,2,0,0,1,128.77,386.29ZM127.12,401V389.26h3.27V401Z"/><path class="cls-1" d="M137.19,401.33a6.23,6.23,0,0,1-4.45-1.94l1.73-2a3.78,3.78,0,0,0,2.75,1.38,1.38,1.38,0,0,0,1.48-1.3c0-2-5.21-1-5.21-4.94,0-2.37,2-3.7,4.19-3.7a6,6,0,0,1,3.8,1.24L139.86,392a3.24,3.24,0,0,0-1.94-.78c-.57,0-1.24.35-1.24,1,0,1.7,5.4.94,5.4,4.94C142.08,399.87,139.7,401.33,137.19,401.33Z"/><path class="cls-1" d="M152.39,401v-6.48c0-1.59-.35-2.8-2.21-2.8-2,0-2.51,1.48-2.51,3.24v6H144.4V389.26h3.27v1.44a4.3,4.3,0,0,1,3.67-1.81,4,4,0,0,1,4.32,4.64V401Z"/><path class="cls-1" d="M160.39,386.29a2,2,0,1,1,1.94-2A2,2,0,0,1,160.39,386.29ZM158.74,401V389.26H162V401Z"/><path class="cls-1" d="M173.07,401v-6.48c0-1.59-.35-2.8-2.21-2.8-2,0-2.51,1.48-2.51,3.24v6h-3.27V389.26h3.27v1.44a4.3,4.3,0,0,1,3.67-1.81,4,4,0,0,1,4.32,4.64V401Z"/><path class="cls-1" d="M190.33,405.19a6.39,6.39,0,0,1-5,2.05c-3,0-5.89-1.73-6.21-4.91h3.54a2.6,2.6,0,0,0,2.78,2.13c2.05,0,2.89-1.43,2.89-3.32v-1.75a4.87,4.87,0,0,1-4,1.94c-3.45,0-5.56-2.78-5.56-6.07s2.16-6.37,5.73-6.37a4.38,4.38,0,0,1,3.78,1.89v-1.52h3.29v11.26C191.65,402.36,191.57,403.73,190.33,405.19Zm-4.84-13.36a3.28,3.28,0,1,0,3.27,3.26A3.26,3.26,0,0,0,185.49,391.83Z"/><path class="cls-1" d="M24.78,438H18.73V420h4.46A7.05,7.05,0,0,1,27.58,421a4.78,4.78,0,0,1,1.63,3.7,3.76,3.76,0,0,1-2,3.61,4,4,0,0,1,2.35,1.14,4.81,4.81,0,0,1,1.3,3.37C30.88,436.44,28,438,24.78,438Zm-1.51-15.14h-1v4.64h1c1.56,0,2.73-.62,2.73-2.32S24.83,422.81,23.27,422.81Zm.59,7.31H22.24v5h1.51c1.73,0,3.51-.41,3.51-2.51S25.53,430.12,23.86,430.12Z"/><path class="cls-1" d="M36.33,432.63c.06,1.81.92,3.14,2.87,3.14A3.08,3.08,0,0,0,42,434.2l3,.49a5.73,5.73,0,0,1-5.75,3.64A5.86,5.86,0,0,1,33,432.09c0-3.72,2.37-6.2,6.13-6.2s6,2.59,6,6.31v.43Zm2.84-4.42a2.65,2.65,0,0,0-2.73,2.35H42A2.71,2.71,0,0,0,39.17,428.21Z"/><path class="cls-1" d="M51.32,438.33a6.23,6.23,0,0,1-4.45-1.94l1.72-2a3.82,3.82,0,0,0,2.76,1.38,1.38,1.38,0,0,0,1.48-1.3c0-2-5.21-1-5.21-4.94,0-2.37,2-3.7,4.18-3.7a6,6,0,0,1,3.81,1.24L54,429a3.26,3.26,0,0,0-1.94-.78c-.57,0-1.24.35-1.24,1,0,1.7,5.4.94,5.4,4.94C56.21,436.87,53.83,438.33,51.32,438.33Z"/><path class="cls-1" d="M64.6,438.33c-3.72,0-6.69-2.32-6.69-6.21s3-6.23,6.72-6.23,6.64,2.35,6.64,6.2S68.3,438.33,64.6,438.33Zm-2.83-14.25a1.95,1.95,0,0,1,0-3.89,1.95,1.95,0,0,1,0,3.89Zm2.81,4.75a3.28,3.28,0,1,0,3.32,3.29A3.31,3.31,0,0,0,64.58,428.83Zm2.8-4.75a2,2,0,0,1-1.94-1.95,1.95,1.95,0,1,1,1.94,1.95Z"/><path class="cls-1" d="M81.8,438l-4.4-5-.35.35V438H73.78V417.73h3.27v12.8l4.37-4.27h4.43l-5.48,5.13L86.28,438Z"/><path class="cls-1" d="M111.69,438l-1.6-11.09-5,11.34h-1l-4.78-11.34L97.57,438H94l3.35-18.33h2.4l4.92,11.77,5.12-11.77h2.41l3,18.33Z"/><path class="cls-1" d="M127.13,438.36a9.41,9.41,0,1,1,9.64-9.4A9.35,9.35,0,0,1,127.13,438.36Zm0-15.6a6.21,6.21,0,1,0,6,6.18A6.11,6.11,0,0,0,127.13,422.76Z"/><path class="cls-1" d="M146.71,438.41h-1.86L137.18,420H141L145.82,432,150.68,420h3.8Z"/><path class="cls-1" d="M156.62,438V420h10V423h-6.45v4h6.21V430h-6.21v4.86h6.45V438Z"/><path class="cls-1" d="M190.45,427.56h-2.73l-.38,2.43h2.76l-.46,2.94h-2.76l-.81,5H182.7l.81-5H181l-.79,5H176.9l.81-5h-2.78l.45-2.94h2.79l.37-2.43h-2.75l.46-3H179l.73-4.64h3.35l-.76,4.64h2.49l.72-4.64h3.38l-.73,4.64h2.73Zm-8.59,0-.37,2.43H184l.38-2.43Z"/><path class="cls-1" d="M198,438.41c-3.35,0-6.29-2.16-6.48-5.64H195a2.94,2.94,0,0,0,5.86-.3,2.79,2.79,0,0,0-2.81-2.86,4.76,4.76,0,0,0-.65.06v-2.54a2.69,2.69,0,0,0,.49,0,2.45,2.45,0,1,0-2.38-2.52h-3.32c.52-3.4,2.59-5.15,6-5.15,3,0,5.48,1.78,5.48,5a4,4,0,0,1-2.08,3.83,4.43,4.43,0,0,1,2.76,4.43C204.41,436.39,201.41,438.41,198,438.41Z"/><path class="cls-1" d="M213.8,438.41c-5,0-7-5.24-7-9.45s2-9.47,7-9.47,7,5.21,7,9.45S218.8,438.41,213.8,438.41Zm0-15.82c-2.75,0-3.45,4.27-3.45,6.35s.7,6.39,3.45,6.39,3.46-4.31,3.46-6.39S216.56,422.59,213.8,422.59Z"/><path class="cls-1" d="M225.63,438.46l-2.81-1.67L231.06,423h-8.35V420h13.88Z"/></svg>