<svg id="Layer_1" data-name="Layer 1" xmlns="http://www.w3.org/2000/svg" viewBox="0 0 250 720"><defs><style>.cls-1{fill:#d4ac76;}</style></defs><title>text</title><path class="cls-1" d="M21.75,66.52a5.5,5.5,0,0,1-4,1.55,5.5,5.5,0,0,1-4-1.55,5.18,5.18,0,0,1-1.59-3.88V53.16h2.76v9.12a3.32,3.32,0,0,0,.76,2.26,2.57,2.57,0,0,0,2.09.89,2.59,2.59,0,0,0,2.09-.88,3.26,3.26,0,0,0,.76-2.23V53.16h2.75v9.48A5.17,5.17,0,0,1,21.75,66.52Z"/><path class="cls-1" d="M28.25,67.84V53.16h5.28a5,5,0,0,1,5.1,5.07,4.68,4.68,0,0,1-1.49,3.54,5.15,5.15,0,0,1-3.66,1.4H31v4.67Zm5-12H31v4.92h2.32a2.58,2.58,0,0,0,1.84-.66,2.26,2.26,0,0,0,.7-1.75,2.42,2.42,0,0,0-.72-1.81A2.54,2.54,0,0,0,33.29,55.8Z"/><path class="cls-1" d="M42.68,67.84V53.16H48a5,5,0,0,1,5.1,5.07,4.68,4.68,0,0,1-1.49,3.54,5.15,5.15,0,0,1-3.66,1.4H45.43v4.67Zm5-12H45.43v4.92h2.32a2.58,2.58,0,0,0,1.84-.66,2.26,2.26,0,0,0,.7-1.75,2.42,2.42,0,0,0-.72-1.81A2.54,2.54,0,0,0,47.71,55.8Z"/><path class="cls-1" d="M57.1,67.84V53.16h2.75v12h5.4v2.64Z"/><path class="cls-1" d="M77.41,61.63H72v3.76h6v2.45H69.22V53.16h8.55v2.45H72v3.57h5.44Z"/><path class="cls-1" d="M86.46,67.84,80.85,53.16h2.86l4,10.56,4-10.56h2.79L89,67.84Z"/><path class="cls-1" d="M104.5,55.8V53.16h12.1V55.8h-4.67v12h-2.75v-12Z"/><path class="cls-1" d="M120.12,67.84V53.16h5.75a4.93,4.93,0,0,1,3.53,1.33A4.55,4.55,0,0,1,130.82,58a4.39,4.39,0,0,1-1.06,3A4.65,4.65,0,0,1,127,62.51l4,5.33h-3.1l-3.81-5.24h-1.19v5.24Zm5.32-12.23h-2.57V60.4h2.57a2.7,2.7,0,0,0,1.91-.66,2.2,2.2,0,0,0,.71-1.69,2.28,2.28,0,0,0-.73-1.74A2.61,2.61,0,0,0,125.44,55.61Z"/><path class="cls-1" d="M135.11,67.84V53.16h2.76V67.84Z"/><path class="cls-1" d="M146.9,67.84l-5.61-14.68h2.86l4,10.56,4-10.56H155L149.4,67.84Z"/><path class="cls-1" d="M161.77,68a7,7,0,0,1-2.77-.58,7.19,7.19,0,0,1-2.37-1.6l1.74-2.09A5.34,5.34,0,0,0,160,65.07a4.2,4.2,0,0,0,1.94.51,2.34,2.34,0,0,0,1.56-.5,1.58,1.58,0,0,0,.61-1.27,2.19,2.19,0,0,0-1.61-2l-1.63-.65a6.36,6.36,0,0,1-2.45-1.62,3.78,3.78,0,0,1-.78-2.5,3.82,3.82,0,0,1,1.24-2.79A4.25,4.25,0,0,1,162,53a6.33,6.33,0,0,1,4.52,1.67l-1.62,2.05a3.79,3.79,0,0,0-2.9-1.27,2,2,0,0,0-1.32.42,1.32,1.32,0,0,0-.5,1,1.37,1.37,0,0,0,.39,1,3.92,3.92,0,0,0,1.26.76l1.71.68q3.27,1.32,3.33,4.24a4.13,4.13,0,0,1-1.38,3.22A5.38,5.38,0,0,1,161.77,68Z"/><path class="cls-1" d="M179.25,61.63h-5.44v3.76h6v2.45h-8.72V53.16h8.55v2.45h-5.8v3.57h5.44Z"/><path class="cls-1" d="M184.24,67.84V53.16H187v12h5.39v2.64Z"/><path class="cls-1" d="M205.41,67.84V61.71h-6.29v6.13h-2.75V53.16h2.75v5.91h6.29V53.16h2.76V67.84Z"/><path class="cls-1" d="M222.73,66.52a6,6,0,0,1-8,0,5.18,5.18,0,0,1-1.59-3.88V53.16h2.76v9.12a3.32,3.32,0,0,0,.76,2.26,2.91,2.91,0,0,0,4.18,0,3.26,3.26,0,0,0,.76-2.23V53.16h2.75v9.48A5.17,5.17,0,0,1,222.73,66.52Z"/><path class="cls-1" d="M233.2,68a7,7,0,0,1-2.77-.58,7.13,7.13,0,0,1-2.38-1.6l1.74-2.09a5.34,5.34,0,0,0,1.62,1.31,4.2,4.2,0,0,0,1.94.51,2.34,2.34,0,0,0,1.56-.5,1.59,1.59,0,0,0,.62-1.27,2.2,2.2,0,0,0-1.62-2l-1.63-.65a6.36,6.36,0,0,1-2.45-1.62,3.78,3.78,0,0,1-.78-2.5,3.82,3.82,0,0,1,1.24-2.79A4.25,4.25,0,0,1,233.41,53a6.32,6.32,0,0,1,4.52,1.67l-1.62,2.05a3.78,3.78,0,0,0-2.9-1.27,2,2,0,0,0-1.32.42,1.32,1.32,0,0,0-.5,1,1.37,1.37,0,0,0,.39,1,3.92,3.92,0,0,0,1.26.76l1.71.68q3.27,1.32,3.33,4.24a4.13,4.13,0,0,1-1.38,3.22A5.37,5.37,0,0,1,233.2,68Z"/><path class="cls-1" d="M7.76,87.84V76.25h6.32v1.93H9.94v3.17h3.69v1.93H9.94v4.56Z"/><path class="cls-1" d="M15.19,87.84l4.47-11.59h2l4.46,11.59H23.84l-.61-1.6H18l-.62,1.6Zm5.45-8.35L18.79,84.3h3.7Z"/><path class="cls-1" d="M28.79,87.84V76.25h1.53L36,83.54V76.25H38.2V87.84H36.74L31,80.46v7.38Z"/><path class="cls-1" d="M41,78.33V76.25h9.56v2.08H46.87v9.51H44.69V78.33Z"/><path class="cls-1" d="M51,87.84l4.47-11.59h2l4.45,11.59H59.62L59,86.24H53.82l-.62,1.6Zm5.46-8.35L54.56,84.3h3.7Z"/><path class="cls-1" d="M67.84,88a5.64,5.64,0,0,1-2.18-.45,5.83,5.83,0,0,1-1.88-1.27l1.38-1.65a4.18,4.18,0,0,0,1.28,1,3.25,3.25,0,0,0,1.52.41,1.85,1.85,0,0,0,1.24-.4,1.25,1.25,0,0,0,.48-1,1.72,1.72,0,0,0-1.27-1.61l-1.29-.52a4.92,4.92,0,0,1-1.93-1.28,3,3,0,0,1-.62-2,3,3,0,0,1,1-2.2,3.4,3.4,0,0,1,2.46-1,5,5,0,0,1,3.57,1.33L70.3,79.06a3,3,0,0,0-2.29-1,1.56,1.56,0,0,0-1,.33,1,1,0,0,0-.39.82,1.08,1.08,0,0,0,.3.79,3.08,3.08,0,0,0,1,.6l1.35.54a3.6,3.6,0,0,1,2.63,3.35A3.27,3.27,0,0,1,70.77,87,4.23,4.23,0,0,1,67.84,88Z"/><path class="cls-1" d="M74,78.33V76.25h9.55v2.08H79.88v9.51H77.71V78.33Z"/><path class="cls-1" d="M86.35,87.84V76.25h2.17V87.84Z"/><path class="cls-1" d="M95.64,88a5.65,5.65,0,0,1-2.19-.45,5.83,5.83,0,0,1-1.88-1.27L93,84.62a4.14,4.14,0,0,0,1.27,1,3.31,3.31,0,0,0,1.53.41,1.88,1.88,0,0,0,1.24-.4,1.25,1.25,0,0,0,.48-1,1.73,1.73,0,0,0-1.27-1.61l-1.3-.52A4.8,4.8,0,0,1,93,81.25a2.91,2.91,0,0,1-.63-2,3,3,0,0,1,1-2.2,3.37,3.37,0,0,1,2.46-1,5,5,0,0,1,3.57,1.33L98.1,79.06a3,3,0,0,0-2.29-1,1.54,1.54,0,0,0-1,.33,1,1,0,0,0-.4.82,1.09,1.09,0,0,0,.31.79,3,3,0,0,0,1,.6l1.36.54a3.59,3.59,0,0,1,2.62,3.35A3.24,3.24,0,0,1,98.56,87,4.22,4.22,0,0,1,95.64,88Z"/><path class="cls-1" d="M103,87.84V76.25h2v5.11l4.44-5.11h2.68L108,80.87l4.18,7h-2.5l-3.16-5.29L105,84.3v3.54Z"/><path class="cls-1" d="M120.76,87.84V86.52l4.44-5.89a2.08,2.08,0,0,0,.63-1.34,1.44,1.44,0,0,0-.43-1.07,1.51,1.51,0,0,0-1.11-.43,1.34,1.34,0,0,0-1.1.53,2.17,2.17,0,0,0-.42,1.35h-2a3.59,3.59,0,0,1,1-2.57,3.39,3.39,0,0,1,2.54-1,3.52,3.52,0,0,1,2.5.92,2.9,2.9,0,0,1,1,2.22A4.43,4.43,0,0,1,126.46,82l-3.21,4.08h4.59v1.74Z"/><path class="cls-1" d="M130.79,82.92V81.18h4.59v1.74Z"/><path class="cls-1" d="M139,87.84V76.25h4.17a3.95,3.95,0,0,1,4,4,3.69,3.69,0,0,1-1.17,2.8,4.1,4.1,0,0,1-2.89,1.1h-2v3.69Zm4-9.51h-1.8v3.89H143a2,2,0,0,0,1.45-.52,1.81,1.81,0,0,0,.56-1.39,1.89,1.89,0,0,0-.57-1.42A2,2,0,0,0,143,78.33Z"/><path class="cls-1" d="M150.37,87.84V76.25h2.17v9.51h4.26v2.08Z"/><path class="cls-1" d="M158.81,87.84l4.47-11.59h2l4.45,11.59h-2.23l-.62-1.6h-5.18l-.62,1.6Zm5.46-8.35-1.86,4.81h3.7Z"/><path class="cls-1" d="M172.42,87.84V76.25h1.52l5.71,7.29V76.25h2.17V87.84h-1.45l-5.78-7.38v7.38Z"/><path class="cls-1" d="M188.94,88a5.65,5.65,0,0,1-2.19-.45,5.83,5.83,0,0,1-1.88-1.27l1.38-1.65a4.31,4.31,0,0,0,1.28,1,3.31,3.31,0,0,0,1.53.41,1.84,1.84,0,0,0,1.23-.4,1.24,1.24,0,0,0,.49-1,1.73,1.73,0,0,0-1.27-1.61l-1.3-.52a4.8,4.8,0,0,1-1.92-1.28,2.91,2.91,0,0,1-.63-2,3,3,0,0,1,1-2.2,3.36,3.36,0,0,1,2.45-1,5,5,0,0,1,3.57,1.33l-1.28,1.62a3,3,0,0,0-2.29-1,1.58,1.58,0,0,0-1,.33A1.1,1.1,0,0,0,188,80a2.92,2.92,0,0,0,1,.6l1.36.54A3.6,3.6,0,0,1,193,84.48,3.24,3.24,0,0,1,191.86,87,4.22,4.22,0,0,1,188.94,88Z"/><path class="cls-1" d="M199.33,87.84,194.9,76.25h2.27l3.18,8.33,3.15-8.33h2.2l-4.39,11.59Z"/><path class="cls-1" d="M208.43,87.84V76.25h2.18V87.84Z"/><path class="cls-1" d="M214.75,87.84V76.25h2.17v9.51h4.26v2.08Z"/><path class="cls-1" d="M224.32,87.84V76.25h2.17v9.51h4.26v2.08Z"/><path class="cls-1" d="M232.76,87.84l4.47-11.59h2l4.45,11.59h-2.23l-.62-1.6h-5.18l-.62,1.6Zm5.46-8.35-1.86,4.81h3.7Z"/></svg>