<svg id="Layer_1" data-name="Layer 1" xmlns="http://www.w3.org/2000/svg" viewBox="0 0 250 720"><defs><style>.cls-1{fill:#d80201;}</style></defs><title>text</title><path class="cls-1" d="M22.76,392.69c-1.75,1.89-4.51,1.6-6.86,1.6V401H12.4V383h5.23c1.78,0,3.35.13,4.75,1.38a5.73,5.73,0,0,1,1.84,4.34A5.9,5.9,0,0,1,22.76,392.69Zm-3.08-6.12a4.17,4.17,0,0,0-2.56-.57H15.9v5.24h1.43c1.76,0,3.27-.57,3.27-2.6A2.66,2.66,0,0,0,19.68,386.57Z"/><path class="cls-1" d="M34,392.23a3,3,0,0,0-1.57-.4c-2.21,0-2.81,1.56-2.81,3.51V401H26.33V389.26h3.26V391a3.77,3.77,0,0,1,3.4-2.13,3.67,3.67,0,0,1,1.43.27Z"/><path class="cls-1" d="M38.77,395.64c.06,1.8.92,3.13,2.86,3.13a3.06,3.06,0,0,0,2.78-1.57l3,.49a5.74,5.74,0,0,1-5.75,3.64,5.86,5.86,0,0,1-6.26-6.23c0-3.73,2.37-6.21,6.12-6.21s6,2.59,6,6.31v.44Zm2.84-4.43a2.65,2.65,0,0,0-2.73,2.35h5.53A2.7,2.7,0,0,0,41.61,391.21Z"/><path class="cls-1" d="M65,401v-6.39c0-1.38-.22-2.89-1.94-2.89-1.92,0-2.25,1.75-2.25,3.29v6H57.51v-6.21a5.26,5.26,0,0,0-.24-1.94,1.9,1.9,0,0,0-1.76-1.13,2.11,2.11,0,0,0-1.83,1.05A4.87,4.87,0,0,0,53.3,395v6H50V389.26H53.3v1.33a4.48,4.48,0,0,1,3.56-1.7A4,4,0,0,1,60.5,391a4.33,4.33,0,0,1,3.84-2.13,3.82,3.82,0,0,1,3.26,1.67,5.15,5.15,0,0,1,.63,2.83V401Z"/><path class="cls-1" d="M73,386.3a2,2,0,1,1,2-2A2,2,0,0,1,73,386.3ZM71.31,401V389.26h3.26V401Z"/><path class="cls-1" d="M86.59,401v-1.54a4.52,4.52,0,0,1-3.81,1.92c-3.51,0-5.75-2.91-5.75-6.26s2.24-6.18,5.67-6.18a4.9,4.9,0,0,1,3.89,1.86v-1.49h3.29V401ZM81,387.08a1.95,1.95,0,1,1,0-3.89,1.95,1.95,0,0,1,0,3.89Zm2.72,4.75a3.28,3.28,0,1,0,3.27,3.27A3.26,3.26,0,0,0,83.67,391.83Zm2.89-4.75a2,2,0,0,1-1.94-1.95,1.94,1.94,0,1,1,1.94,1.95Z"/><path class="cls-1" d="M100.65,392.23a2.93,2.93,0,0,0-1.56-.4c-2.21,0-2.81,1.56-2.81,3.51V401H93V389.26h3.26V391a3.77,3.77,0,0,1,3.4-2.13,3.67,3.67,0,0,1,1.43.27Z"/><path class="cls-1" d="M115.42,401.2h-1.51l-6-11.94h3.67l3.07,6.59,3.08-6.59h3.67Z"/><path class="cls-1" d="M124.63,386.3a2,2,0,1,1,1.94-2A2,2,0,0,1,124.63,386.3ZM123,401V389.26h3.27V401Z"/><path class="cls-1" d="M133.05,401.33a6.23,6.23,0,0,1-4.45-1.94l1.73-2a3.8,3.8,0,0,0,2.75,1.38,1.38,1.38,0,0,0,1.49-1.3c0-2-5.21-1-5.21-4.94,0-2.37,2-3.7,4.18-3.7a6,6,0,0,1,3.81,1.25L135.73,392a3.29,3.29,0,0,0-1.95-.78c-.56,0-1.24.35-1.24,1,0,1.7,5.4.94,5.4,4.94C137.94,399.87,135.56,401.33,133.05,401.33Z"/><path class="cls-1" d="M148.25,401v-6.48c0-1.59-.35-2.8-2.21-2.8-2,0-2.51,1.48-2.51,3.24v6h-3.27V389.26h3.27v1.44a4.3,4.3,0,0,1,3.67-1.81,4,4,0,0,1,4.32,4.64V401Z"/><path class="cls-1" d="M156.25,386.3a2,2,0,1,1,1.94-2A2,2,0,0,1,156.25,386.3ZM154.6,401V389.26h3.27V401Z"/><path class="cls-1" d="M168.94,401v-6.48c0-1.59-.36-2.8-2.22-2.8-2,0-2.51,1.48-2.51,3.24v6H161V389.26h3.26v1.44a4.3,4.3,0,0,1,3.67-1.81,4,4,0,0,1,4.32,4.64V401Z"/><path class="cls-1" d="M186.19,405.19a6.37,6.37,0,0,1-5,2.05c-3,0-5.88-1.73-6.21-4.91h3.54a2.6,2.6,0,0,0,2.78,2.13c2,0,2.89-1.43,2.89-3.32v-1.75a4.85,4.85,0,0,1-3.94,1.94c-3.46,0-5.56-2.78-5.56-6.07s2.15-6.37,5.72-6.37a4.38,4.38,0,0,1,3.78,1.89v-1.52h3.29v11.26C187.51,402.36,187.43,403.73,186.19,405.19Zm-4.83-13.36a3.28,3.28,0,1,0,3.26,3.27A3.26,3.26,0,0,0,181.36,391.83Z"/><path class="cls-1" d="M194.37,401.33a6.23,6.23,0,0,1-4.45-1.94l1.72-2a3.82,3.82,0,0,0,2.76,1.38,1.38,1.38,0,0,0,1.48-1.3c0-2-5.21-1-5.21-4.94,0-2.37,2-3.7,4.19-3.7a6,6,0,0,1,3.8,1.25L197,392a3.24,3.24,0,0,0-1.94-.78c-.57,0-1.24.35-1.24,1,0,1.7,5.4.94,5.4,4.94C199.26,399.87,196.88,401.33,194.37,401.33Z"/><path class="cls-1" d="M209.57,401v-6.39c0-1.62-.35-2.89-2.24-2.89s-2.48,1.56-2.48,3.29v6h-3.27V380.74h3.27v10a4.24,4.24,0,0,1,3.67-1.89,4.47,4.47,0,0,1,3.4,1.43,4.66,4.66,0,0,1,.92,3.29V401Z"/><path class="cls-1" d="M221.61,401.33c-3.21,0-5.64-1.43-5.64-4.91v-7.16h3.27v6.62c0,1.59.67,2.67,2.37,2.67s2.38-1.08,2.38-2.67v-6.62h3.29v7.16C227.28,399.9,224.82,401.33,221.61,401.33Z"/><path class="cls-1" d="M234.14,401.33a6.23,6.23,0,0,1-4.45-1.94l1.72-2a3.82,3.82,0,0,0,2.76,1.38,1.38,1.38,0,0,0,1.48-1.3c0-2-5.21-1-5.21-4.94,0-2.37,2-3.7,4.19-3.7a6,6,0,0,1,3.8,1.25L236.81,392a3.24,3.24,0,0,0-1.94-.78c-.57,0-1.24.35-1.24,1,0,1.7,5.4.94,5.4,4.94C239,399.87,236.65,401.33,234.14,401.33Z"/><path class="cls-1" d="M29.66,438h-5.6V421.28h4.13a6.59,6.59,0,0,1,4.07,1,4.47,4.47,0,0,1,1.5,3.43,3.48,3.48,0,0,1-1.82,3.34,3.89,3.89,0,0,1,2.17,1.05,4.49,4.49,0,0,1,1.2,3.13C35.31,436.55,32.66,438,29.66,438Zm-1.4-14h-1v4.3h.93c1.45,0,2.52-.57,2.52-2.15S29.71,423.93,28.26,423.93Zm.55,6.78h-1.5v4.62h1.4c1.6,0,3.25-.38,3.25-2.33S30.36,430.71,28.81,430.71Z"/><path class="cls-1" d="M40.36,433c0,1.67.85,2.9,2.65,2.9a2.86,2.86,0,0,0,2.58-1.45l2.8.45a5.32,5.32,0,0,1-5.33,3.37,5.43,5.43,0,0,1-5.8-5.77,5.36,5.36,0,0,1,5.68-5.75c3.57,0,5.52,2.4,5.52,5.85v.4Zm2.63-4.1a2.46,2.46,0,0,0-2.53,2.17h5.13A2.51,2.51,0,0,0,43,428.93Z"/><path class="cls-1" d="M54.24,438.3a5.76,5.76,0,0,1-4.13-1.8l1.6-1.85a3.52,3.52,0,0,0,2.55,1.28,1.28,1.28,0,0,0,1.38-1.2c0-1.85-4.83-.93-4.83-4.58,0-2.19,1.83-3.42,3.88-3.42a5.55,5.55,0,0,1,3.52,1.15l-1.5,1.78a2.94,2.94,0,0,0-1.8-.73c-.52,0-1.15.32-1.15.92,0,1.58,5,.88,5,4.58C58.76,437,56.56,438.3,54.24,438.3Z"/><path class="cls-1" d="M66.54,438.3c-3.45,0-6.2-2.15-6.2-5.75s2.75-5.77,6.22-5.77,6.15,2.18,6.15,5.75S70,438.3,66.54,438.3Zm-2.63-13.19a1.8,1.8,0,1,1,0-3.6,1.8,1.8,0,0,1,0,3.6Zm2.6,4.39a3,3,0,1,0,3.08,3.05A3.07,3.07,0,0,0,66.51,429.5Zm2.6-4.39a1.83,1.83,0,0,1-1.8-1.8,1.8,1.8,0,1,1,1.8,1.8Z"/><path class="cls-1" d="M82.46,438l-4.07-4.65-.33.33V438H75V419.23h3v11.85l4-3.95h4.1l-5.07,4.75L86.61,438Z"/><path class="cls-1" d="M105,438v-7.42h-7V438H94.69V421.28h3.25v6.45h7v-6.45h3.24V438Z"/><path class="cls-1" d="M120.11,438.33a8.71,8.71,0,1,1,8.92-8.7A8.66,8.66,0,0,1,120.11,438.33Zm0-14.45a5.75,5.75,0,1,0,5.58,5.72A5.66,5.66,0,0,0,120.11,423.88Z"/><path class="cls-1" d="M147.48,438,146,427.68l-4.6,10.5h-.9l-4.42-10.5L134.41,438h-3.27l3.1-17h2.22l4.55,10.9,4.75-10.9H148l2.78,17Z"/><path class="cls-1" d="M153.74,438V421.28H163v2.83h-6v3.7h5.75v2.82H157v4.5h6V438Z"/><path class="cls-1" d="M185.06,428.33h-2.52l-.35,2.25h2.54l-.42,2.72h-2.55L181,438h-3.12l.75-4.65h-2.3l-.73,4.65h-3.1l.75-4.65h-2.57l.42-2.72h2.58l.35-2.25h-2.55l.42-2.75h2.55l.68-4.3h3.1l-.7,4.3h2.3l.67-4.3h3.13l-.68,4.3h2.52Zm-7.95,0-.35,2.25h2.3l.35-2.25Z"/><path class="cls-1" d="M192.44,438.38c-3.38,0-6.25-2.18-6.25-5.73a9.42,9.42,0,0,1,2.1-5.27c1.65-2.3,3.37-4.52,5.07-6.8l2.3,1.75-3.95,5.05a5.14,5.14,0,0,1,7.12,5.1C198.83,436.2,196,438.38,192.44,438.38Zm.1-8.8a3.11,3.11,0,1,0,3.05,3.1A3.08,3.08,0,0,0,192.54,429.58Z"/><path class="cls-1" d="M206.69,438.38c-4.6,0-6.45-4.85-6.45-8.75s1.82-8.77,6.45-8.77,6.44,4.82,6.44,8.74S211.31,438.38,206.69,438.38Zm0-14.65c-2.55,0-3.2,3.95-3.2,5.87s.65,5.93,3.2,5.93,3.2-4,3.2-5.93S209.24,423.73,206.69,423.73Z"/><path class="cls-1" d="M219.46,438V424.13h-2.4v-2.85h5.65V438Z"/></svg>