<svg id="Layer_1" data-name="Layer 1" xmlns="http://www.w3.org/2000/svg" viewBox="0 0 250 720"><defs><style>.cls-1{fill:#d4ac76;}</style></defs><title>text</title><path class="cls-1" d="M58,67.84,52.34,53.16h2.87l4,10.56,4-10.56H66L60.46,67.84Z"/><path class="cls-1" d="M66.73,67.84l5.66-14.68h2.49l5.64,14.68H77.69l-.78-2H70.34l-.78,2Zm5.63-16.19a1.17,1.17,0,0,1-.89.39,1.21,1.21,0,0,1-.91-.39,1.31,1.31,0,0,1-.37-.94,1.28,1.28,0,0,1,1.28-1.32,1.21,1.21,0,0,1,.89.39,1.26,1.26,0,0,1,.37.93A1.31,1.31,0,0,1,72.36,51.65Zm1.28,5.62-2.35,6.09H76Zm3.1-5.62a1.37,1.37,0,0,1-1,.39,1.34,1.34,0,0,1-1-.39,1.27,1.27,0,0,1-.41-.94,1.22,1.22,0,0,1,.41-.93,1.34,1.34,0,0,1,1-.39,1.37,1.37,0,0,1,1,.39,1.25,1.25,0,0,1,.4.93A1.3,1.3,0,0,1,76.74,51.65Z"/><path class="cls-1" d="M84,67.84V53.16h2.76v12h5.39v2.64Z"/><path class="cls-1" d="M96.08,67.84V53.16h2.55v6.47l5.62-6.47h3.4L102.47,59l5.3,8.82h-3.18l-4-6.7-2,2.22v4.48Z"/><path class="cls-1" d="M125,60.49a7.31,7.31,0,0,1-2.23,5.38A7.62,7.62,0,1,1,125,60.49ZM113.89,64a4.84,4.84,0,0,0,6.91,0,5,5,0,0,0,0-7,4.82,4.82,0,0,0-6.91,0,5.09,5.09,0,0,0,0,7Z"/><path class="cls-1" d="M129.2,67.84V53.16h2.66l4.54,7.24,4.6-7.24h2.89V67.84h-2.76V57.79l-.22,0-4.56,7-4.44-6.94h0v10Z"/><path class="cls-1" d="M149,67.84V53.16h2.66l4.54,7.24,4.6-7.24h2.89V67.84h-2.76V57.79l-.22,0-4.56,7-4.44-6.94h0v10Z"/><path class="cls-1" d="M176.91,61.63h-5.44v3.76h6v2.45h-8.72V53.16h8.55v2.45h-5.8v3.57h5.44Z"/><path class="cls-1" d="M181.91,67.84V53.16h1.92l7.23,9.23V53.16h2.76V67.84H192l-7.31-9.34v9.34Z"/><path class="cls-1" d="M28.19,90.64V76h5.27A5,5,0,0,1,38.56,81a4.68,4.68,0,0,1-1.49,3.54A5.15,5.15,0,0,1,33.41,86H30.94v4.67Zm5-12H30.94v4.92h2.32a2.58,2.58,0,0,0,1.84-.66,2.28,2.28,0,0,0,.71-1.76,2.42,2.42,0,0,0-.73-1.8A2.54,2.54,0,0,0,33.22,78.6Z"/><path class="cls-1" d="M39.79,90.64,45.46,76H48l5.64,14.68H50.76l-.78-2H43.41l-.78,2ZM46.7,80.07l-2.35,6.09H49Zm2.14-6.62a2.12,2.12,0,1,1-4.24,0,2,2,0,0,1,.62-1.5,2.13,2.13,0,0,1,3.62,1.5ZM46.18,74a.75.75,0,0,0,.55.23.71.71,0,0,0,.54-.23.78.78,0,0,0,0-1.1.77.77,0,0,0-1.31.55A.76.76,0,0,0,46.18,74Z"/><path class="cls-1" d="M68.91,90.64,63.3,76h2.87l4,10.56,4-10.56H77L71.41,90.64Z"/><path class="cls-1" d="M80.44,90.64V76h2.75V90.64Z"/><path class="cls-1" d="M88.43,90.64V76h2.76V88h5.4v2.64Z"/><path class="cls-1" d="M100.56,90.64V76h2.75V88h5.4v2.64Z"/><path class="cls-1" d="M111.25,90.64,116.92,76h2.48l5.65,14.68h-2.83l-.78-2h-6.57l-.79,2Zm6.91-10.57-2.35,6.09h4.69Z"/><path class="cls-1" d="M131.35,90.64,125.73,76h2.87l4,10.56,4-10.56h2.79l-5.57,14.68Z"/><path class="cls-1" d="M142.87,90.64V76h2.75V90.64Z"/><path class="cls-1" d="M154.64,90.83a7,7,0,0,1-2.77-.58,7.13,7.13,0,0,1-2.38-1.6l1.75-2.1a5.23,5.23,0,0,0,1.62,1.32,4.13,4.13,0,0,0,1.93.51,2.42,2.42,0,0,0,1.57-.5,1.61,1.61,0,0,0,.61-1.27,2.2,2.2,0,0,0-1.61-2l-1.64-.65a6.32,6.32,0,0,1-2.44-1.62,3.75,3.75,0,0,1-.79-2.5A3.82,3.82,0,0,1,151.73,77a4.25,4.25,0,0,1,3.12-1.22,6.3,6.3,0,0,1,4.52,1.67l-1.62,2.05a3.78,3.78,0,0,0-2.9-1.27,2,2,0,0,0-1.32.42,1.32,1.32,0,0,0-.5,1,1.37,1.37,0,0,0,.39,1,3.92,3.92,0,0,0,1.26.76l1.72.68c2.17.87,3.28,2.29,3.32,4.24a4.13,4.13,0,0,1-1.38,3.22A5.37,5.37,0,0,1,154.64,90.83Z"/><path class="cls-1" d="M163.92,90.64V76h1.93l7.23,9.23V76h2.75V90.64H174l-7.31-9.34v9.34Z"/><path class="cls-1" d="M181.08,90.64V76h2.75V90.64Z"/><path class="cls-1" d="M189.08,90.64V76H191l7.22,9.23V76H201V90.64h-1.84l-7.32-9.34v9.34Z"/><path class="cls-1" d="M215.2,84.51V82.06h5.26v1.25a7.51,7.51,0,0,1-1.08,3.89,7.37,7.37,0,0,1-2.78,2.71,7.57,7.57,0,0,1-3.74,1,7.62,7.62,0,1,1,0-15.24A7.23,7.23,0,0,1,218.36,78l-1.89,1.85a4.74,4.74,0,0,0-3.61-1.59,4.67,4.67,0,0,0-3.51,1.44,5.19,5.19,0,0,0,0,7.08,4.48,4.48,0,0,0,3.33,1.44,5.21,5.21,0,0,0,3.27-1,4.66,4.66,0,0,0,1.73-2.7Z"/></svg>