<svg id="Layer_1" data-name="Layer 1" xmlns="http://www.w3.org/2000/svg" viewBox="0 0 250 720"><defs><style>.cls-1{fill:#d4ac76;}</style></defs><title>text</title><path class="cls-1" d="M15.7,537.26l-3-7.73h1.21l2.32,5.94,2.32-5.94h1.19l-3,7.73Z"/><path class="cls-1" d="M20.38,537.26l3.11-7.73h1l3,7.73H26.31l-.47-1.19H22.05l-.47,1.19Zm2.79-8.55a.5.5,0,0,1-.38.17.49.49,0,0,1-.38-.17.6.6,0,0,1-.16-.42.57.57,0,0,1,.16-.42.46.46,0,0,1,.38-.17.47.47,0,0,1,.38.17.57.57,0,0,1,.16.42A.6.6,0,0,1,23.17,528.71Zm.8,2.59L22.47,535h3Zm1.35-2.59a.54.54,0,0,1-.39.17.5.5,0,0,1-.38-.17.6.6,0,0,1-.16-.42.57.57,0,0,1,.16-.42.47.47,0,0,1,.38-.17.5.5,0,0,1,.39.17.6.6,0,0,1,.15.42A.64.64,0,0,1,25.32,528.71Z"/><path class="cls-1" d="M29.65,537.26v-7.73h1.08v6.7h3.18v1Z"/><path class="cls-1" d="M36.28,537.26v-7.73h1.08v3.66l3.22-3.66H42l-2.73,3.06,2.8,4.67H40.76l-2.25-3.77-1.15,1.29v2.48Z"/><path class="cls-1" d="M47.39,537.4a3.77,3.77,0,0,1-2.79-1.15,4.14,4.14,0,0,1,0-5.73,4,4,0,0,1,5.57,0,4,4,0,0,1-2.78,6.87Zm-2-1.9a2.79,2.79,0,0,0,4,0,3,3,0,0,0,.83-2.11,2.92,2.92,0,0,0-.84-2.11,2.68,2.68,0,0,0-2-.87,2.71,2.71,0,0,0-2,.87,3.1,3.1,0,0,0,0,4.22Z"/><path class="cls-1" d="M54,537.26v-7.73h1.11l2.49,4.12,2.53-4.12h1.06v7.73H60.14v-5.71l0,0-2.49,4-2.44-3.94h-.07v5.68Z"/><path class="cls-1" d="M64.4,537.26v-7.73h1.11L68,533.65l2.53-4.12h1.06v7.73H70.51v-5.71l0,0-2.49,4-2.44-3.94h-.07v5.68Z"/><path class="cls-1" d="M79,533.87H75.85v2.36h3.4v1H74.77v-7.73h4.42v1H75.85v2.28H79Z"/><path class="cls-1" d="M81.93,537.26v-7.73h.75l4.19,5.32v-5.32H88v7.73h-.6L83,531.74v5.52Z"/><path class="cls-1" d="M92.24,537.19a.61.61,0,0,1-.43.19.72.72,0,0,1-.47-.19.6.6,0,0,1-.21-.46.63.63,0,0,1,.19-.47.69.69,0,0,1,.49-.18.58.58,0,0,1,.43.18.66.66,0,0,1,.18.47A.65.65,0,0,1,92.24,537.19Zm-.88-1.94-.19-5.51h1.21l-.12,5.51Z"/><path class="cls-1" d="M99.65,537.26v-7.73h4.22v1h-3.14V533h2.78v1h-2.78v3.24Z"/><path class="cls-1" d="M109.71,537.4a3.77,3.77,0,0,1-2.79-1.15,4.14,4.14,0,0,1,0-5.73,4,4,0,0,1,5.57,0,4.13,4.13,0,0,1,0,5.72A3.85,3.85,0,0,1,109.71,537.4Zm-2-1.9a2.79,2.79,0,0,0,4,0,3,3,0,0,0,.83-2.11,2.92,2.92,0,0,0-.84-2.11,2.68,2.68,0,0,0-2-.87,2.71,2.71,0,0,0-2,.87,3.1,3.1,0,0,0,0,4.22Zm1.3-6.79a.5.5,0,0,1-.38.17.52.52,0,0,1-.39-.17.64.64,0,0,1-.15-.42.6.6,0,0,1,.15-.42.49.49,0,0,1,.39-.17.47.47,0,0,1,.38.17.57.57,0,0,1,.16.42A.6.6,0,0,1,109,528.71Zm2.14,0a.51.51,0,0,1-.76,0,.6.6,0,0,1-.16-.42.57.57,0,0,1,.16-.42.51.51,0,0,1,.76,0,.57.57,0,0,1,.16.42A.6.6,0,0,1,111.12,528.71Z"/><path class="cls-1" d="M116.35,537.26v-7.73h2.87a2.42,2.42,0,0,1,1.74.67,2.4,2.4,0,0,1-1.36,4.12l2.24,2.94h-1.33l-2.22-3h-.86v3Zm2.73-6.7h-1.65v2.79h1.64a1.59,1.59,0,0,0,1.09-.38,1.33,1.33,0,0,0,.42-1,1.3,1.3,0,0,0-.43-1A1.48,1.48,0,0,0,119.08,530.56Z"/><path class="cls-1" d="M123.44,537.26l3.1-7.73h1l3,7.73h-1.19l-.47-1.19h-3.79l-.47,1.19Zm3.59-6-1.5,3.74h3Z"/><path class="cls-1" d="M132.71,537.26v-7.73h.75l4.19,5.32v-5.32h1.08v7.73h-.6l-4.34-5.52v5.52Z"/><path class="cls-1" d="M142,537.26v-7.73h1.11l2.49,4.12,2.53-4.12h1.06v7.73h-1.08v-5.71l0,0-2.49,4-2.44-3.94H143v5.68Z"/><path class="cls-1" d="M151.35,537.26l3.1-7.73h1l3,7.73h-1.19l-.47-1.19H153l-.48,1.19Zm2.79-8.55a.51.51,0,0,1-.39.17.52.52,0,0,1-.38-.17.64.64,0,0,1-.15-.42.6.6,0,0,1,.15-.42.48.48,0,0,1,.38-.17.48.48,0,0,1,.39.17.57.57,0,0,1,.16.42A.6.6,0,0,1,154.14,528.71Zm.8,2.59-1.5,3.74h3Zm1.34-2.59a.51.51,0,0,1-.76,0,.6.6,0,0,1-.16-.42.57.57,0,0,1,.16-.42.51.51,0,0,1,.76,0,.57.57,0,0,1,.16.42A.6.6,0,0,1,156.28,528.71Z"/><path class="cls-1" d="M160.62,537.26v-7.73h1.08v6.7h3.18v1Z"/><path class="cls-1" d="M166.45,537.26l3.1-7.73h1l3,7.73h-1.19l-.47-1.19h-3.79l-.47,1.19Zm3.59-6-1.5,3.74h3Z"/><path class="cls-1" d="M175.72,537.26v-7.73h.75l4.19,5.32v-5.32h1.08v7.73h-.6l-4.34-5.52v5.52Z"/><path class="cls-1" d="M192.63,537.4a3.76,3.76,0,0,1-2.78-1.15,4.14,4.14,0,0,1,0-5.73,4,4,0,0,1,5.57,0,4.13,4.13,0,0,1,0,5.72A3.85,3.85,0,0,1,192.63,537.4Zm-2-1.9a2.79,2.79,0,0,0,4,0,3,3,0,0,0,.83-2.11,2.92,2.92,0,0,0-.84-2.11,2.78,2.78,0,0,0-4,0,3.1,3.1,0,0,0,0,4.22Zm1.3-6.79a.52.52,0,0,1-.38.17.52.52,0,0,1-.39-.17.64.64,0,0,1-.15-.42.6.6,0,0,1,.15-.42.49.49,0,0,1,.39-.17.48.48,0,0,1,.38.17.57.57,0,0,1,.16.42A.6.6,0,0,1,191.91,528.71Zm2.14,0a.51.51,0,0,1-.76,0,.6.6,0,0,1-.16-.42.57.57,0,0,1,.16-.42.51.51,0,0,1,.76,0,.57.57,0,0,1,.16.42A.6.6,0,0,1,194.05,528.71Z"/><path class="cls-1" d="M199.28,537.26v-7.73H200l4.19,5.32v-5.32h1.08v7.73h-.6l-4.34-5.52v5.52Z"/><path class="cls-1" d="M210.41,537.36a3.7,3.7,0,0,1-1.44-.31,4,4,0,0,1-1.23-.83l.76-.88a3.13,3.13,0,0,0,.89.71,2.41,2.41,0,0,0,1.07.28,1.47,1.47,0,0,0,1-.33,1,1,0,0,0,.39-.83,1.36,1.36,0,0,0-1-1.26l-.91-.36a3.29,3.29,0,0,1-1.27-.83,1.87,1.87,0,0,1-.41-1.22,1.94,1.94,0,0,1,.64-1.47,2.2,2.2,0,0,1,1.57-.6,3.15,3.15,0,0,1,2.25.85l-.65.87a2.16,2.16,0,0,0-1.6-.69,1.2,1.2,0,0,0-.81.27.86.86,0,0,0-.32.71.88.88,0,0,0,.23.6,2.15,2.15,0,0,0,.79.48l.92.37a2.2,2.2,0,0,1,1.63,2.21,2.16,2.16,0,0,1-.68,1.63A2.62,2.62,0,0,1,210.41,537.36Z"/><path class="cls-1" d="M215.58,537.26v-7.73h1.08v3.66l3.22-3.66h1.45l-2.73,3.06,2.8,4.67h-1.34l-2.25-3.77-1.15,1.29v2.48Z"/><path class="cls-1" d="M223,537.26l3.1-7.73h1l3,7.73H229l-.47-1.19h-3.79l-.48,1.19Zm3.59-6-1.5,3.74h3Z"/><path class="cls-1" d="M234.35,537.36a3.7,3.7,0,0,1-1.44-.31,4,4,0,0,1-1.23-.83l.76-.88a3.13,3.13,0,0,0,.89.71,2.41,2.41,0,0,0,1.07.28,1.47,1.47,0,0,0,1-.33,1,1,0,0,0,.39-.83,1.36,1.36,0,0,0-1-1.26l-.91-.36a3.29,3.29,0,0,1-1.27-.83,1.87,1.87,0,0,1-.41-1.22,1.94,1.94,0,0,1,.64-1.47,2.2,2.2,0,0,1,1.57-.6,3.13,3.13,0,0,1,2.25.85l-.65.87a2.16,2.16,0,0,0-1.6-.69,1.2,1.2,0,0,0-.81.27.92.92,0,0,0-.09,1.31,2.15,2.15,0,0,0,.79.48l.93.37a2.2,2.2,0,0,1,1.62,2.21,2.16,2.16,0,0,1-.68,1.63A2.62,2.62,0,0,1,234.35,537.36Z"/><path class="cls-1" d="M30.22,557.36a3.7,3.7,0,0,1-1.44-.31,4,4,0,0,1-1.23-.83l.76-.88a3,3,0,0,0,.9.71,2.33,2.33,0,0,0,1.06.28,1.47,1.47,0,0,0,1-.33,1,1,0,0,0,.39-.83,1.36,1.36,0,0,0-1-1.26l-.91-.36a3.29,3.29,0,0,1-1.27-.83,1.87,1.87,0,0,1-.41-1.22,1.94,1.94,0,0,1,.64-1.47,2.2,2.2,0,0,1,1.57-.6,3.13,3.13,0,0,1,2.25.85l-.65.87a2.16,2.16,0,0,0-1.6-.69,1.2,1.2,0,0,0-.81.27A.92.92,0,0,0,29.4,552a2.15,2.15,0,0,0,.79.48l.93.37a2.2,2.2,0,0,1,1.62,2.21,2.16,2.16,0,0,1-.68,1.63A2.62,2.62,0,0,1,30.22,557.36Z"/><path class="cls-1" d="M38.92,557.4a3.76,3.76,0,0,1-2.78-1.15,4.14,4.14,0,0,1,0-5.73,4,4,0,0,1,5.57,0,4.13,4.13,0,0,1,0,5.72A3.85,3.85,0,0,1,38.92,557.4Zm-2-1.9a2.79,2.79,0,0,0,4.05,0,3,3,0,0,0,.83-2.11,2.92,2.92,0,0,0-.84-2.11,2.78,2.78,0,0,0-4,0,3.1,3.1,0,0,0,0,4.22Zm1.3-6.79a.52.52,0,0,1-.38.17.52.52,0,0,1-.39-.17.64.64,0,0,1-.15-.42.6.6,0,0,1,.15-.42.49.49,0,0,1,.39-.17.48.48,0,0,1,.38.17.57.57,0,0,1,.16.42A.6.6,0,0,1,38.2,548.71Zm2.14,0a.51.51,0,0,1-.76,0,.6.6,0,0,1-.16-.42.57.57,0,0,1,.16-.42.51.51,0,0,1,.76,0,.57.57,0,0,1,.16.42A.6.6,0,0,1,40.34,548.71Z"/><path class="cls-1" d="M45.57,557.26v-7.73h.75l4.19,5.32v-5.32h1.08v7.73H51l-4.34-5.52v5.52Z"/><path class="cls-1" d="M54.82,557.26v-7.73h2.07a3.84,3.84,0,0,1,3.83,3.85,3.79,3.79,0,0,1-3.87,3.88Zm2.11-6.7h-1v5.67H57a2.52,2.52,0,0,0,1.91-.83,2.88,2.88,0,0,0,.77-2,2.76,2.76,0,0,0-.8-2A2.59,2.59,0,0,0,56.93,550.56Z"/><path class="cls-1" d="M62.25,557.26l3.1-7.73h1l3,7.73H68.18l-.47-1.19H63.92l-.47,1.19Zm3.59-6L64.34,555h3Z"/><path class="cls-1" d="M76.2,553.9v-1h2.57v.54a4,4,0,0,1-4,4A3.78,3.78,0,0,1,72,556.23a4.17,4.17,0,0,1,0-5.71,3.77,3.77,0,0,1,2.82-1.15,4,4,0,0,1,1.62.32,3.84,3.84,0,0,1,1.33.89l-.8.82a2.73,2.73,0,0,0-2.15-1,2.71,2.71,0,0,0-2,.87,3.11,3.11,0,0,0,0,4.21,2.68,2.68,0,0,0,2,.88,2.79,2.79,0,0,0,1.86-.68,3,3,0,0,0,1-1.78Z"/><path class="cls-1" d="M85.07,557.26v-.68l3.09-4.08a1.54,1.54,0,0,0,.43-1,1.12,1.12,0,0,0-.34-.83,1.18,1.18,0,0,0-.87-.33,1.1,1.1,0,0,0-.85.37,1.5,1.5,0,0,0-.35,1H85.1a2.25,2.25,0,0,1,.64-1.64,2.17,2.17,0,0,1,1.64-.67A2.33,2.33,0,0,1,89,550a2,2,0,0,1,.64,1.52,2.77,2.77,0,0,1-.81,1.71l-2.41,3.07h3.32v1Z"/><path class="cls-1" d="M91.83,557.26v-.68l3.09-4.08a1.54,1.54,0,0,0,.43-1,1.12,1.12,0,0,0-.34-.83,1.17,1.17,0,0,0-.86-.33,1.11,1.11,0,0,0-.86.37,1.5,1.5,0,0,0-.35,1H91.86a2.3,2.3,0,0,1,.64-1.64,2.18,2.18,0,0,1,1.65-.67,2.32,2.32,0,0,1,1.64.6,2,2,0,0,1,.64,1.52,2.77,2.77,0,0,1-.81,1.71l-2.41,3.07h3.32v1Z"/><path class="cls-1" d="M105.32,557.36a3.7,3.7,0,0,1-1.44-.31,4,4,0,0,1-1.23-.83l.76-.88a3.13,3.13,0,0,0,.89.71,2.41,2.41,0,0,0,1.07.28,1.47,1.47,0,0,0,1-.33,1,1,0,0,0,.39-.83,1.36,1.36,0,0,0-1-1.26l-.91-.36a3.29,3.29,0,0,1-1.27-.83,1.87,1.87,0,0,1-.41-1.22,1.94,1.94,0,0,1,.64-1.47,2.2,2.2,0,0,1,1.57-.6,3.15,3.15,0,0,1,2.25.85l-.65.87a2.16,2.16,0,0,0-1.6-.69,1.2,1.2,0,0,0-.81.27.92.92,0,0,0-.09,1.31,2.15,2.15,0,0,0,.79.48l.92.37a2.2,2.2,0,0,1,1.63,2.21,2.16,2.16,0,0,1-.68,1.63A2.62,2.62,0,0,1,105.32,557.36Z"/><path class="cls-1" d="M114.75,553.87h-3.18v2.36H115v1h-4.48v-7.73h4.42v1h-3.34v2.28h3.18Z"/><path class="cls-1" d="M117.65,557.26v-7.73h2.64a2.42,2.42,0,0,1,1.79.72,2.49,2.49,0,0,1,.72,1.84,2.46,2.46,0,0,1-.74,1.81,2.5,2.5,0,0,1-1.81.72h-1.52v2.64Zm2.56-6.7h-1.48v3h1.49a1.44,1.44,0,0,0,1.5-1.5,1.49,1.49,0,0,0-.43-1.1A1.43,1.43,0,0,0,120.21,550.56Z"/><path class="cls-1" d="M124.39,550.56v-1h6.26v1h-2.59v6.7H127v-6.7Z"/><path class="cls-1" d="M137.06,553.87h-3.18v2.36h3.4v1H132.8v-7.73h4.42v1h-3.34v2.28h3.18Z"/><path class="cls-1" d="M140,557.26v-7.73h1.11l2.49,4.12,2.53-4.12h1.06v7.73h-1.08v-5.71l0,0-2.49,4-2.44-3.94H141v5.68Z"/><path class="cls-1" d="M150.33,557.26v-7.73h2.36a2.48,2.48,0,0,1,1.71.6,2,2,0,0,1,.67,1.56,1.84,1.84,0,0,1-.92,1.66,1.93,1.93,0,0,1,.83.69,1.77,1.77,0,0,1,.31,1,2,2,0,0,1-.68,1.58,2.49,2.49,0,0,1-1.72.6Zm2.25-6.7h-1.17v2.35h1.38a1.19,1.19,0,0,0,.85-.34,1.21,1.21,0,0,0,.35-.89,1,1,0,0,0-.39-.81A1.53,1.53,0,0,0,152.58,550.56Zm.24,3.31h-1.41v2.36h1.34a1.61,1.61,0,0,0,1.07-.33,1.11,1.11,0,0,0,.39-.89,1,1,0,0,0-.36-.82A1.45,1.45,0,0,0,152.82,553.87Z"/><path class="cls-1" d="M162.26,553.87h-3.18v2.36h3.4v1H158v-7.73h4.42v1h-3.34v2.28h3.18Z"/><path class="cls-1" d="M165.16,557.26v-7.73H168a2.42,2.42,0,0,1,1.74.67,2.53,2.53,0,0,1,.12,3.36,2.34,2.34,0,0,1-1.48.76l2.24,2.94h-1.33l-2.22-3h-.86v3Zm2.72-6.7h-1.64v2.79h1.64A1.59,1.59,0,0,0,169,553a1.33,1.33,0,0,0,.42-1,1.3,1.3,0,0,0-.43-1A1.49,1.49,0,0,0,167.88,550.56Z"/><path class="cls-1" d="M177.36,557.26v-7.73h1.08v3.66l3.22-3.66h1.45l-2.73,3.06,2.8,4.67h-1.34l-2.25-3.77-1.15,1.29v2.48Z"/><path class="cls-1" d="M185.53,557.26v-7.73h1.08v6.7h3.18v1Z"/><path class="cls-1" d="M197.22,557.26v-6.35l-1.45.74v-1l2-1.13h.48v7.77Z"/><path class="cls-1" d="M200.79,557.26v-.68l3.09-4.08a1.54,1.54,0,0,0,.43-1,1.12,1.12,0,0,0-.34-.83,1.18,1.18,0,0,0-.87-.33,1.1,1.1,0,0,0-.85.37,1.5,1.5,0,0,0-.35,1h-1.08a2.25,2.25,0,0,1,.64-1.64,2.17,2.17,0,0,1,1.64-.67,2.33,2.33,0,0,1,1.65.6,2,2,0,0,1,.64,1.52,2.77,2.77,0,0,1-.81,1.71l-2.41,3.07h3.32v1Z"/><path class="cls-1" d="M207.69,553.89v-1h3v1Z"/><path class="cls-1" d="M213.64,557.26v-6.35l-1.45.74v-1l2.05-1.13h.48v7.77Z"/><path class="cls-1" d="M219.75,557.38a2.57,2.57,0,0,1-1.55-.48,2.38,2.38,0,0,1-.93-1.25l1-.38a1.53,1.53,0,0,0,.56.77,1.55,1.55,0,0,0,2.5-1.23,1.46,1.46,0,0,0-.45-1.09,1.53,1.53,0,0,0-1.09-.43,1.42,1.42,0,0,0-1.1.47h-1.08v-4.23h4.33v1h-3.25v2.07a2.09,2.09,0,0,1,1.1-.3,2.59,2.59,0,0,1,1.9.71,2.37,2.37,0,0,1,.72,1.77,2.49,2.49,0,0,1-.76,1.81A2.56,2.56,0,0,1,219.75,557.38Z"/></svg>