<svg id="Layer_1" data-name="Layer 1" xmlns="http://www.w3.org/2000/svg" viewBox="0 0 250 720"><defs><style>.cls-1{fill:#d4ac76;}</style></defs><title>text</title><path class="cls-1" d="M42.93,537.26v-8.51h1.19v4l3.55-4h1.59l-3,3.38,3.08,5.13H47.86l-2.47-4.15-1.27,1.42v2.73Z"/><path class="cls-1" d="M51.12,537.26l3.41-8.51h1.08L59,537.26H57.64L57.13,536H53l-.53,1.31Zm4-6.55-1.65,4.11h3.26Z"/><path class="cls-1" d="M61.32,537.26v-8.51h.82l4.61,5.86v-5.86h1.19v8.51h-.66l-4.78-6.07v6.07Z"/><path class="cls-1" d="M70.5,537.26l3.42-8.51H75l3.35,8.51H77L76.51,536H72.34l-.52,1.31Zm4-6.55-1.65,4.11h3.26Z"/><path class="cls-1" d="M80.7,537.26v-8.51h1.19v7.38h3.49v1.13Z"/><path class="cls-1" d="M89.19,537.26l-3.32-8.51H87.2l2.55,6.54,2.55-6.54h1.31l-3.32,8.51Z"/><path class="cls-1" d="M94.34,537.26l3.41-8.51h1.08l3.34,8.51h-1.31l-.51-1.31H96.18l-.53,1.31Zm3.07-9.41A.56.56,0,0,1,97,528a.55.55,0,0,1-.42-.19.71.71,0,0,1,0-.92.55.55,0,0,1,.42-.19.56.56,0,0,1,.43.19.71.71,0,0,1,0,.92Zm.88,2.86-1.66,4.11H99.9Zm1.48-2.86a.56.56,0,0,1-.43.19.52.52,0,0,1-.42-.19.71.71,0,0,1,0-.92.52.52,0,0,1,.42-.19.56.56,0,0,1,.43.19.71.71,0,0,1,0,.92Z"/><path class="cls-1" d="M109.68,533.56v-1.13h2.83V533a4.37,4.37,0,0,1-4.4,4.38,4.15,4.15,0,0,1-3.1-1.27,4.6,4.6,0,0,1,0-6.28,4.15,4.15,0,0,1,3.1-1.27,4.68,4.68,0,0,1,1.79.35,4.6,4.6,0,0,1,1.46,1l-.88.89a3,3,0,0,0-2.37-1.1,3,3,0,0,0-2.25,1,3.41,3.41,0,0,0,0,4.64,3,3,0,0,0,2.25,1,3,3,0,0,0,2-.75,3.18,3.18,0,0,0,1.07-2Z"/><path class="cls-1" d="M120.12,533.53h-3.5v2.6h3.74v1.13h-4.92v-8.51h4.86v1.14h-3.68v2.51h3.5Z"/><path class="cls-1" d="M123.31,537.26v-8.51h.83l4.61,5.86v-5.86h1.18v8.51h-.66l-4.77-6.07v6.07Z"/><path class="cls-1" d="M140.21,537.39a2.59,2.59,0,0,1-1.88-.76,2.54,2.54,0,0,1-.77-1.86,2.35,2.35,0,0,1,.33-1.22,2.43,2.43,0,0,1,.9-.9,2.06,2.06,0,0,1-1-1.79,2.11,2.11,0,0,1,.71-1.6,2.49,2.49,0,0,1,1.72-.65,2.45,2.45,0,0,1,1.71.66,2.06,2.06,0,0,1,.73,1.59,2.09,2.09,0,0,1-1,1.79,2.48,2.48,0,0,1,.9.89,2.28,2.28,0,0,1,.34,1.23,2.51,2.51,0,0,1-.78,1.86A2.58,2.58,0,0,1,140.21,537.39Zm0-1.13a1.4,1.4,0,0,0,1-.44,1.46,1.46,0,0,0,.43-1.06,1.37,1.37,0,0,0-.43-1,1.51,1.51,0,0,0-2.09,0,1.41,1.41,0,0,0-.43,1,1.51,1.51,0,0,0,.43,1.06A1.41,1.41,0,0,0,140.21,536.26Zm0-6.59a1.19,1.19,0,0,0-.88.36,1.15,1.15,0,0,0-.37.88,1.25,1.25,0,0,0,1.25,1.26,1.2,1.2,0,0,0,.88-.37,1.25,1.25,0,0,0-.88-2.13Z"/><path class="cls-1" d="M144.34,538.82l1-2.73,1.09.39-1.34,2.61Z"/><path class="cls-1" d="M153.88,537.26v-8.51h2.28a4.29,4.29,0,0,1,3,7.3,4.17,4.17,0,0,1-3,1.21Zm2.32-7.37h-1.13v6.24h1.17a2.73,2.73,0,0,0,2.09-.92,3.11,3.11,0,0,0,.85-2.22,3.06,3.06,0,0,0-.87-2.21A2.88,2.88,0,0,0,156.2,529.89Z"/><path class="cls-1" d="M162.05,537.26l3.42-8.51h1.07l3.35,8.51h-1.31l-.52-1.31h-4.17l-.52,1.31Zm3.95-6.55-1.65,4.11h3.27Z"/><path class="cls-1" d="M172.25,537.26v-8.51h1.19v7.38h3.5v1.13Z"/><path class="cls-1" d="M178.66,537.26l3.42-8.51h1.07l3.35,8.51h-1.31l-.52-1.31H180.5l-.52,1.31Zm4-6.55L181,534.82h3.27Z"/><path class="cls-1" d="M188.86,537.26v-8.51H192a2.62,2.62,0,0,1,1.91.75,2.51,2.51,0,0,1,.77,1.92,2.51,2.51,0,0,1-2.26,2.6l2.46,3.24h-1.46L191,534h-.95v3.25Zm3-7.37h-1.81V533h1.8a1.72,1.72,0,0,0,1.2-.42,1.44,1.44,0,0,0,.46-1.12,1.42,1.42,0,0,0-.47-1.09A1.66,1.66,0,0,0,191.86,529.89Z"/><path class="cls-1" d="M201.52,537.41a4.17,4.17,0,0,1-3.07-1.26,4.57,4.57,0,0,1,0-6.3,4.35,4.35,0,0,1,6.12,0,4.54,4.54,0,0,1,0,6.3A4.16,4.16,0,0,1,201.52,537.41Zm-2.23-2.08a3.08,3.08,0,0,0,4.45,0,3.4,3.4,0,0,0,0-4.65,3.06,3.06,0,0,0-4.45,0,3.43,3.43,0,0,0,0,4.65Zm1.43-7.48a.55.55,0,0,1-.42.19.52.52,0,0,1-.42-.19.71.71,0,0,1,0-.92.52.52,0,0,1,.42-.19.55.55,0,0,1,.42.19.68.68,0,0,1,0,.92Zm2.36,0a.55.55,0,0,1-.42.19.56.56,0,0,1-.43-.19.71.71,0,0,1,0-.92.56.56,0,0,1,.43-.19.55.55,0,0,1,.42.19.71.71,0,0,1,0,.92Z"/><path class="cls-1" d="M21.38,557.37a4.06,4.06,0,0,1-1.59-.34,4.25,4.25,0,0,1-1.35-.92l.84-1a3.13,3.13,0,0,0,1,.77,2.45,2.45,0,0,0,1.18.31,1.63,1.63,0,0,0,1.09-.36A1.12,1.12,0,0,0,23,555a1.48,1.48,0,0,0-1.08-1.39l-1-.4a3.47,3.47,0,0,1-1.39-.92,2,2,0,0,1-.46-1.34,2.17,2.17,0,0,1,.7-1.61,2.46,2.46,0,0,1,1.74-.67,3.5,3.5,0,0,1,2.47.94l-.72,1a2.33,2.33,0,0,0-1.75-.76,1.37,1.37,0,0,0-.9.29,1,1,0,0,0-.35.79,1,1,0,0,0,.25.66,2.28,2.28,0,0,0,.87.52l1,.42a2.4,2.4,0,0,1,1.79,2.42,2.33,2.33,0,0,1-.75,1.79A2.84,2.84,0,0,1,21.38,557.37Z"/><path class="cls-1" d="M31,557.41a4.17,4.17,0,0,1-3.06-1.26,4.54,4.54,0,0,1,0-6.3,4.35,4.35,0,0,1,6.12,0,4.54,4.54,0,0,1,0,6.3A4.2,4.2,0,0,1,31,557.41Zm-2.22-2.08a3.08,3.08,0,0,0,4.45,0,3.24,3.24,0,0,0,.91-2.33,3.2,3.2,0,0,0-.92-2.32,3,3,0,0,0-4.44,0,3.4,3.4,0,0,0,0,4.65Zm1.43-7.48a.56.56,0,0,1-.43.19.52.52,0,0,1-.42-.19.71.71,0,0,1,0-.92.52.52,0,0,1,.42-.19.56.56,0,0,1,.43.19.71.71,0,0,1,0,.92Zm2.35,0a.56.56,0,0,1-.84,0,.71.71,0,0,1,0-.92.56.56,0,0,1,.84,0,.71.71,0,0,1,0,.92Z"/><path class="cls-1" d="M38.26,557.26v-8.51h.83l4.6,5.86v-5.86h1.19v8.51h-.66l-4.77-6.07v6.07Z"/><path class="cls-1" d="M48.43,557.26v-8.51h2.28A4.23,4.23,0,0,1,54.92,553a4.12,4.12,0,0,1-1.23,3.06,4.19,4.19,0,0,1-3,1.21Zm2.33-7.37H49.62v6.24h1.17a2.77,2.77,0,0,0,2.1-.92,3.16,3.16,0,0,0,.85-2.22,3.07,3.07,0,0,0-.88-2.21A2.84,2.84,0,0,0,50.76,549.89Z"/><path class="cls-1" d="M56.61,557.26,60,548.75H61.1l3.35,8.51H63.13L62.62,556H58.45l-.53,1.31Zm4-6.55-1.65,4.11h3.26Z"/><path class="cls-1" d="M72,553.56v-1.13h2.83V553a4.37,4.37,0,0,1-4.4,4.38,4.15,4.15,0,0,1-3.1-1.27,4.6,4.6,0,0,1,0-6.28,4.15,4.15,0,0,1,3.1-1.27,4.68,4.68,0,0,1,1.79.35,4.6,4.6,0,0,1,1.46,1l-.88.89a3,3,0,0,0-2.37-1.1,3,3,0,0,0-2.25,1,3.41,3.41,0,0,0,0,4.64,3,3,0,0,0,2.25,1,3,3,0,0,0,2-.75,3.18,3.18,0,0,0,1.07-2Z"/><path class="cls-1" d="M81.71,557.26v-.75l3.4-4.49a1.71,1.71,0,0,0,.47-1.08,1.19,1.19,0,0,0-.37-.9,1.29,1.29,0,0,0-.95-.37,1.21,1.21,0,0,0-.94.41,1.7,1.7,0,0,0-.39,1.07H81.74a2.51,2.51,0,0,1,.71-1.8,2.4,2.4,0,0,1,1.81-.74,2.49,2.49,0,0,1,1.8.67,2.2,2.2,0,0,1,.71,1.67,3.08,3.08,0,0,1-.89,1.88l-2.65,3.37h3.65v1.06Z"/><path class="cls-1" d="M88.7,555.31v-.75l3-5.81H92.9l-2.8,5.5h1.84v-1.42h1.19v1.42h1v1.06h-1v2H91.94v-2Z"/><path class="cls-1" d="M101.44,557.26v-8.51h.83l4.61,5.86v-5.86h1.19v8.51h-.66l-4.78-6.07v6.07Z"/><path class="cls-1" d="M115.34,557.41a4.17,4.17,0,0,1-3.06-1.26,4.54,4.54,0,0,1,0-6.3,4.35,4.35,0,0,1,6.12,0,4.54,4.54,0,0,1,0,6.3A4.2,4.2,0,0,1,115.34,557.41Zm-2.22-2.08a3.08,3.08,0,0,0,4.45,0,3.24,3.24,0,0,0,.91-2.33,3.2,3.2,0,0,0-.92-2.32,3,3,0,0,0-4.44,0,3.4,3.4,0,0,0,0,4.65Z"/><path class="cls-1" d="M124.67,557.26l-3.32-8.51h1.34l2.55,6.54,2.55-6.54h1.31l-3.32,8.51Z"/><path class="cls-1" d="M136.13,553.53h-3.5v2.6h3.74v1.13h-4.93v-8.51h4.86v1.14h-3.67v2.51h3.5Z"/><path class="cls-1" d="M139.32,557.26v-8.51h1.22l2.74,4.54,2.78-4.54h1.17v8.51H146V551l0,0-2.74,4.4L140.58,551h-.08v6.24Z"/><path class="cls-1" d="M150.72,557.26v-8.51h2.61a2.72,2.72,0,0,1,1.87.66,2.2,2.2,0,0,1,.74,1.72,2,2,0,0,1-1,1.83,2.11,2.11,0,0,1,.91.76,2,2,0,0,1,.34,1.14,2.2,2.2,0,0,1-.74,1.74,2.76,2.76,0,0,1-1.9.66Zm2.48-7.37h-1.29v2.58h1.51a1.29,1.29,0,0,0,1-.37,1.33,1.33,0,0,0,.38-1,1.08,1.08,0,0,0-.42-.89A1.75,1.75,0,0,0,153.2,549.89Zm.27,3.64h-1.56v2.6h1.48a1.78,1.78,0,0,0,1.17-.37,1.28,1.28,0,0,0,0-1.88A1.66,1.66,0,0,0,153.47,553.53Z"/><path class="cls-1" d="M163.85,553.53h-3.5v2.6h3.74v1.13h-4.93v-8.51H164v1.14h-3.67v2.51h3.5Z"/><path class="cls-1" d="M167,557.26v-8.51h3.15a2.65,2.65,0,0,1,1.92.75,2.55,2.55,0,0,1,.77,1.92,2.52,2.52,0,0,1-2.27,2.6l2.47,3.24h-1.47L169.17,554h-.95v3.25Zm3-7.37h-1.81V553H170a1.73,1.73,0,0,0,1.21-.42,1.44,1.44,0,0,0,.46-1.12,1.46,1.46,0,0,0-.47-1.09A1.68,1.68,0,0,0,170,549.89Z"/><path class="cls-1" d="M180.46,557.26v-8.51h1.18v4l3.55-4h1.59l-3,3.38,3.08,5.13h-1.48l-2.47-4.15-1.27,1.42v2.73Z"/><path class="cls-1" d="M189.44,557.26v-8.51h1.19v7.38h3.5v1.13Z"/><path class="cls-1" d="M202.3,557.26v-7l-1.59.82V550l2.25-1.24h.53v8.55Z"/><path class="cls-1" d="M208.75,557.39a2.61,2.61,0,0,1-1.85-.72,2.36,2.36,0,0,1-.79-1.73h1.19a1.21,1.21,0,0,0,.44.93,1.44,1.44,0,0,0,1,.39,1.46,1.46,0,0,0,1.06-.41,1.36,1.36,0,0,0,.42-1,1.39,1.39,0,0,0-.42-1,1.37,1.37,0,0,0-1-.41h-.48v-1.06h.47a1.31,1.31,0,0,0,1-.4,1.3,1.3,0,0,0,0-1.88,1.34,1.34,0,0,0-1-.38,1.33,1.33,0,0,0-1,.39,1.31,1.31,0,0,0-.4,1H206.2a2.17,2.17,0,0,1,.73-1.7,2.77,2.77,0,0,1,3.67,0,2.24,2.24,0,0,1,.73,1.7,1.91,1.91,0,0,1-.36,1.14,2,2,0,0,1-.93.73,2,2,0,0,1,1.36,2,2.41,2.41,0,0,1-.78,1.8A2.6,2.6,0,0,1,208.75,557.39Z"/><path class="cls-1" d="M213.79,553.55v-1h3.32v1Z"/><path class="cls-1" d="M220.33,557.26v-7l-1.59.82V550l2.25-1.24h.53v8.55Z"/><path class="cls-1" d="M227.06,557.39a2.91,2.91,0,0,1-1.72-.52,2.64,2.64,0,0,1-1-1.38l1.08-.42a1.72,1.72,0,0,0,1.65,1.19,1.69,1.69,0,0,0,1.23-.49,1.67,1.67,0,0,0,.48-1.21,1.6,1.6,0,0,0-.5-1.19,1.66,1.66,0,0,0-1.2-.48,1.59,1.59,0,0,0-1.21.52h-1.18v-4.66h4.76v1.14h-3.58v2.28a2.33,2.33,0,0,1,1.21-.34,2.86,2.86,0,0,1,2.09.78,2.62,2.62,0,0,1,.8,1.95,2.7,2.7,0,0,1-.84,2A2.84,2.84,0,0,1,227.06,557.39Z"/></svg>