<svg id="Lager_1" data-name="Lager 1" xmlns="http://www.w3.org/2000/svg" viewBox="0 0 638 187.99"><defs><style>.cls-1{fill:none;}.cls-2{fill:#d90000;}</style></defs><title>Movehome_logo2-RGB</title><rect class="cls-1" x="91.42" y="-104.58" width="465.71" height="425.2"/><path class="cls-2" d="M102.17,86.44a20.13,20.13,0,0,0-14.91,6.9,17.18,17.18,0,0,0-14.11-6.9,17.44,17.44,0,0,0-10.79,4.09V86.09h-14v55.14h14V115c0-11.07,2.47-15.57,8.5-15.57,4.83,0,6.63,3.71,6.63,13.71v28.11h14V115c0-9.35,1.43-15.57,8.4-15.57,3.49,0,6.73,1.44,6.73,11.93v29.88h14V109.78c0-19.28-10-23.33-18.45-23.33"/><path class="cls-2" d="M161.95,129.3a14.64,14.64,0,1,1,14.33-14.63,14.49,14.49,0,0,1-14.33,14.63m0-42.86a28.23,28.23,0,1,0,28.32,28.23,28,28,0,0,0-28.32-28.23"/><polygon class="cls-2" points="235.23 87.9 222.66 113.36 210.19 87.9 194.48 87.9 222.65 144 250.94 87.9 235.23 87.9"/><path class="cls-2" d="M353.76,86.44a19.93,19.93,0,0,0-12.56,4.31V46.3h-14v94.92h14V116.54c0-11.85,1.41-17.13,9.74-17.13,7.13,0,8.4,3,8.4,11.62v30.2h14V109.88c0-15.55-6.59-23.44-19.59-23.44"/><path class="cls-2" d="M415.36,129.3a14.64,14.64,0,1,1,14.32-14.63,14.5,14.5,0,0,1-14.32,14.63m0-42.86a28.23,28.23,0,1,0,28.32,28.23,28,28,0,0,0-28.32-28.23"/><path class="cls-2" d="M509.77,86.44a20.14,20.14,0,0,0-14.92,6.9,17.16,17.16,0,0,0-14.1-6.9A17.41,17.41,0,0,0,470,90.53V86.09H456v55.14h14V115c0-11.07,2.46-15.57,8.49-15.57,4.83,0,6.63,3.71,6.63,13.71v28.11h14V115c0-9.35,1.42-15.57,8.4-15.57,3.49,0,6.73,1.44,6.73,11.93v29.88h14V109.78c0-19.28-10-23.33-18.45-23.33"/><path class="cls-2" d="M568.56,99.14c4.83,0,10.59,2.7,12.57,8.4H555.69c1.43-5.21,8-8.4,12.88-8.4m13.2,24.55c-4.43,4.95-7.62,6.38-12.81,6.38a15.1,15.1,0,0,1-14.29-11.65h40.82v-0.1c0.93-21.33-11.7-31.93-26.92-31.93-15.64,0-27.84,11.47-27.84,28.54a27.91,27.91,0,0,0,28.05,27.91c8.7,0,17.73-3.8,23.12-12.86l-10.14-6.29"/><path class="cls-2" d="M283.73,99.14c4.83,0,10.59,2.7,12.58,8.4H270.85c1.44-5.21,8.05-8.4,12.88-8.4m13.2,24.55c-4.43,4.95-7.62,6.38-12.82,6.38a15.1,15.1,0,0,1-14.29-11.65h40.82v-0.1C311.57,97,299,86.39,283.73,86.39c-15.64,0-27.85,11.47-27.85,28.54a27.92,27.92,0,0,0,28.06,27.91c8.7,0,17.73-3.8,23.12-12.86l-10.13-6.29"/></svg>