<svg id="Layer_1" data-name="Layer 1" xmlns="http://www.w3.org/2000/svg" viewBox="0 0 980 240"><defs><style>.cls-1{fill:#d80201;}</style></defs><title>text</title><path class="cls-1" d="M291.53,134.61c-8.08,0-14.6-6-14.6-14.22a14.63,14.63,0,1,1,14.6,14.22Zm0-23.69a9.43,9.43,0,1,0,9.14,9.38A9.27,9.27,0,0,0,291.53,110.92Zm-4.59-7.26a3,3,0,0,1-2.95-3,2.95,2.95,0,1,1,2.95,3Zm9.18,0a3,3,0,0,1-2.95-3,2.95,2.95,0,1,1,2.95,3Z"/><path class="cls-1" d="M321.21,134.57a7.09,7.09,0,0,1-5.94-2.91v11.81h-5V116.25h5v2.25a7.09,7.09,0,0,1,5.82-2.83c5.29,0,8.78,4.39,8.78,9.47S326.42,134.57,321.21,134.57Zm-1.47-14.43a5,5,0,1,0,5,5A5,5,0,0,0,319.74,120.14Z"/><path class="cls-1" d="M344.54,134.57a7.09,7.09,0,0,1-5.94-2.91v11.81h-5V116.25h5v2.25a7.09,7.09,0,0,1,5.82-2.83c5.29,0,8.77,4.39,8.77,9.47S349.75,134.57,344.54,134.57Zm-1.47-14.43a5,5,0,1,0,5,5A5,5,0,0,0,343.07,120.14Z"/><path class="cls-1" d="M361.11,125.92c.08,2.75,1.39,4.76,4.34,4.76a4.64,4.64,0,0,0,4.22-2.38l4.6.74c-1.56,3.81-4.72,5.53-8.74,5.53-5.74,0-9.51-3.69-9.51-9.47s3.61-9.43,9.31-9.43c5.86,0,9.06,3.94,9.06,9.6v.65Zm4.3-6.72a4,4,0,0,0-4.14,3.57h8.4A4.11,4.11,0,0,0,365.41,119.2Z"/><path class="cls-1" d="M383.2,120.51V134h-5V120.51h-2v-4.26h2v-6.07h5v6.07h3.49v4.26Z"/><path class="cls-1" d="M411.7,134,405,126.37l-.54.54V134h-5V103.29h5v19.43l6.65-6.47h6.72L409.53,124l9,10Z"/><path class="cls-1" d="M429.94,134.57c-5.65,0-10.16-3.52-10.16-9.43s4.51-9.47,10.2-9.47,10.09,3.57,10.09,9.43S435.56,134.57,429.94,134.57Zm-4.3-21.65a3,3,0,1,1,0-5.9,3,3,0,0,1,0,5.9Zm4.26,7.22a5,5,0,1,0,5.05,5A5,5,0,0,0,429.9,120.14Zm4.27-7.22a3,3,0,0,1-3-3,3,3,0,1,1,3,3Z"/><path class="cls-1" d="M454.79,134.57a7.11,7.11,0,0,1-6-2.91v11.81h-5V116.25h5v2.25a7.09,7.09,0,0,1,5.83-2.83c5.29,0,8.77,4.39,8.77,9.47S460,134.57,454.79,134.57Zm-1.48-14.43a5,5,0,1,0,5,5A5,5,0,0,0,453.31,120.14Z"/><path class="cls-1" d="M476.44,122.4v-4.6h17.79v4.6Z"/><path class="cls-1" d="M524.74,121.45c-2.67,2.87-6.85,2.42-10.42,2.42V134H509V106.65h8c2.7,0,5.08.21,7.21,2.09a8.69,8.69,0,0,1,2.79,6.6A9,9,0,0,1,524.74,121.45Zm-4.68-9.3c-1-.82-2.62-.86-3.89-.86h-1.85v7.95h2.17c2.67,0,5-.86,5-3.94A4,4,0,0,0,520.06,112.15Z"/><path class="cls-1" d="M541.75,120.76a4.33,4.33,0,0,0-2.38-.62c-3.36,0-4.26,2.38-4.26,5.33V134h-5V116.25h5v2.66a5.79,5.79,0,0,1,7.34-2.83Z"/><path class="cls-1" d="M547.33,111.74a3,3,0,1,1,0-6,3,3,0,0,1,0,6ZM544.82,134V116.25h5V134Z"/><path class="cls-1" d="M560.12,134.57a9.41,9.41,0,0,1-6.77-2.95l2.63-3a5.75,5.75,0,0,0,4.18,2.09,2.09,2.09,0,0,0,2.25-2c0-3-7.91-1.52-7.91-7.5,0-3.61,3-5.62,6.35-5.62a9.13,9.13,0,0,1,5.79,1.89l-2.46,2.91a5,5,0,0,0-3-1.19c-.86,0-1.88.53-1.88,1.51,0,2.59,8.2,1.44,8.2,7.51C567.54,132.36,563.93,134.57,560.12,134.57Z"/><path class="cls-1" d="M587.55,140.44a9.7,9.7,0,0,1-7.55,3.11c-4.55,0-8.94-2.62-9.43-7.46h5.37a4,4,0,0,0,4.23,3.24c3.11,0,4.38-2.17,4.38-5v-2.67a7.36,7.36,0,0,1-6,2.95c-5.25,0-8.45-4.22-8.45-9.22s3.28-9.68,8.69-9.68a6.65,6.65,0,0,1,5.74,2.87v-2.29h5v17.09C589.55,136.13,589.43,138.22,587.55,140.44Zm-7.34-20.3a5,5,0,1,0,5,5A5,5,0,0,0,580.21,120.14Z"/><path class="cls-1" d="M607.88,134v-2.34a6.84,6.84,0,0,1-5.78,2.91c-5.33,0-8.73-4.42-8.73-9.51s3.4-9.39,8.61-9.39a7.41,7.41,0,0,1,5.9,2.83v-2.25h5V134Zm-4.43-13.86a5,5,0,1,0,5,5A5,5,0,0,0,603.45,120.14Z"/><path class="cls-1" d="M629.24,120.76a4.31,4.31,0,0,0-2.38-.62c-3.36,0-4.26,2.38-4.26,5.33V134h-5V116.25h5v2.66a5.79,5.79,0,0,1,7.34-2.83Z"/><path class="cls-1" d="M646,134v-2.34a6.85,6.85,0,0,1-5.78,2.91c-5.33,0-8.73-4.42-8.73-9.51s3.4-9.39,8.6-9.39A7.43,7.43,0,0,1,646,118.5v-2.25h5V134Zm-4.43-13.86a5,5,0,1,0,5,5A5,5,0,0,0,641.54,120.14Z"/><path class="cls-1" d="M667.86,134v-9.84c0-2.42-.53-4.26-3.36-4.26-3.08,0-3.81,2.25-3.81,4.92V134h-5V116.25h5v2.17c1.64-1.89,3-2.75,5.57-2.75a6.83,6.83,0,0,1,5.17,2.13c1.27,1.48,1.39,3.08,1.39,4.92V134Z"/><path class="cls-1" d="M682.58,120.51V134h-5V120.51h-2v-4.26h2v-6.07h5v6.07h3.49v4.26Z"/><path class="cls-1" d="M691.07,111.74a3,3,0,1,1,0-6,3,3,0,0,1,0,6ZM688.57,134V116.25h5V134Z"/><path class="cls-1" d="M707.43,122.4v-4.6h17.79v4.6Z"/><path class="cls-1" d="M749.16,134H740V106.65h6.76c2.22,0,4.92.21,6.69,1.64a7.33,7.33,0,0,1,2.46,5.62,5.72,5.72,0,0,1-3,5.49,6.21,6.21,0,0,1,3.57,1.73,7.36,7.36,0,0,1,2,5.12C758.43,131.7,754.08,134,749.16,134Zm-2.29-23h-1.56v7h1.52c2.37,0,4.14-.94,4.14-3.53S749.25,111,746.87,111Zm.9,11.11h-2.46v7.58h2.3c2.62,0,5.33-.61,5.33-3.81C752.94,122.85,750.31,122.11,747.77,122.11Z"/><path class="cls-1" d="M766.71,125.92c.08,2.75,1.4,4.76,4.35,4.76a4.65,4.65,0,0,0,4.22-2.38l4.59.74c-1.56,3.81-4.71,5.53-8.73,5.53-5.74,0-9.51-3.69-9.51-9.47s3.61-9.43,9.3-9.43c5.87,0,9.07,3.94,9.07,9.6v.65ZM771,119.2a4,4,0,0,0-4.14,3.57h8.4A4.11,4.11,0,0,0,771,119.2Z"/><path class="cls-1" d="M788.81,120.51V134h-5V120.51h-2v-4.26h2v-6.07h5v6.07h3.48v4.26Z"/><path class="cls-1" d="M808.45,134v-2.34a6.87,6.87,0,0,1-5.78,2.91c-5.33,0-8.74-4.42-8.74-9.51s3.41-9.39,8.61-9.39a7.43,7.43,0,0,1,5.91,2.83v-2.25h5V134ZM804,120.14a5,5,0,1,0,5,5A5,5,0,0,0,804,120.14Z"/><path class="cls-1" d="M818.21,134V103.29h5V134Z"/><path class="cls-1" d="M841.49,134v-2.34a6.84,6.84,0,0,1-5.78,2.91c-5.33,0-8.73-4.42-8.73-9.51s3.4-9.39,8.61-9.39a7.39,7.39,0,0,1,5.9,2.83v-2.25h5V134Zm-4.42-13.86a5,5,0,1,0,5,5A5,5,0,0,0,837.07,120.14Z"/><path class="cls-1" d="M867.16,134.57a9.45,9.45,0,0,1-6.77-2.95l2.63-3a5.77,5.77,0,0,0,4.18,2.09,2.1,2.1,0,0,0,2.26-2c0-3-7.92-1.52-7.92-7.5,0-3.61,3-5.62,6.36-5.62a9.1,9.1,0,0,1,5.78,1.89l-2.46,2.91a4.94,4.94,0,0,0-3-1.19c-.86,0-1.89.53-1.89,1.51,0,2.59,8.2,1.44,8.2,7.51C874.58,132.36,871,134.57,867.16,134.57Z"/><path class="cls-1" d="M882.25,125.92c.08,2.75,1.39,4.76,4.34,4.76a4.66,4.66,0,0,0,4.23-2.38l4.59.74c-1.56,3.81-4.72,5.53-8.74,5.53-5.74,0-9.51-3.69-9.51-9.47s3.61-9.43,9.31-9.43c5.86,0,9.06,3.94,9.06,9.6v.65Zm4.3-6.72a4,4,0,0,0-4.14,3.57h8.41A4.12,4.12,0,0,0,886.55,119.2Z"/><path class="cls-1" d="M911.48,134v-9.84c0-2.42-.53-4.26-3.36-4.26-3.08,0-3.82,2.25-3.82,4.92V134h-5V116.25h5v2.17c1.65-1.89,3-2.75,5.58-2.75a6.83,6.83,0,0,1,5.17,2.13c1.27,1.48,1.39,3.08,1.39,4.92V134Z"/></svg>