<svg id="Layer_1" data-name="Layer 1" xmlns="http://www.w3.org/2000/svg" viewBox="0 0 980 240"><defs><style>.cls-1{fill:#d80201;}</style></defs><title>text</title><path class="cls-1" d="M347.69,132.56l-17.05-19.49v19h-5.46V103.37H329L346,122.86V104h5.46v28.56Z"/><path class="cls-1" d="M362.39,141.76h-5.76l6.68-12.47-8.61-15.46h5.93l5.46,10.33,5.21-10.33h5.79Z"/><path class="cls-1" d="M392,132v-10c0-2.52-.55-4.49-3.49-4.49-3.15,0-3.86,2.43-3.86,5.12V132h-5.08V100.56h5.08v15.62a6.63,6.63,0,0,1,5.71-2.94,7,7,0,0,1,5.3,2.23c1.3,1.51,1.42,3.23,1.42,5.12V132Z"/><path class="cls-1" d="M406.19,123.74c.09,2.82,1.43,4.88,4.46,4.88a4.76,4.76,0,0,0,4.32-2.44l4.71.76c-1.6,3.9-4.83,5.67-8.95,5.67-5.88,0-9.74-3.78-9.74-9.71s3.69-9.66,9.53-9.66c6,0,9.29,4,9.29,9.83v.67Zm4.42-6.89a4.14,4.14,0,0,0-4.25,3.66H415A4.21,4.21,0,0,0,410.61,116.85Z"/><path class="cls-1" d="M428.83,118.2V132h-5.08V118.2h-2v-4.37h2v-6.22h5.08v6.22h3.57v4.37Z"/><path class="cls-1" d="M437.86,132.56a3.28,3.28,0,1,1,3.28-3.27A3.29,3.29,0,0,1,437.86,132.56Zm-2.6-8.56V104h5.21v20Z"/><path class="cls-1" d="M454.33,132l8.27-9.37c2.27-2.56,6.43-6.8,6.43-10.38a4.18,4.18,0,0,0-4.25-4.15c-2.77,0-4.07,2-4.15,4.62h-5.84c.38-5.67,4.07-9.45,9.83-9.45,5.25,0,9.87,3.44,9.87,9,0,3.91-2.56,7.1-5.08,9.79l-4.88,5.21H474.7V132Z"/><path class="cls-1" d="M477.42,124.5v-4.29h9.46v4.29Z"/><path class="cls-1" d="M491.79,109.21a3.07,3.07,0,1,1,0-6.13,3.07,3.07,0,0,1,0,6.13ZM489.23,132V113.83h5.08V132Z"/><path class="cls-1" d="M511.53,132V121.94c0-2.48-.55-4.37-3.45-4.37-3.15,0-3.9,2.31-3.9,5V132H499.1V113.83h5.08v2.23c1.68-1.94,3.11-2.82,5.71-2.82a7,7,0,0,1,5.29,2.19c1.31,1.51,1.43,3.15,1.43,5V132Z"/><path class="cls-1" d="M519,124.5v-4.29h9.46v4.29Z"/><path class="cls-1" d="M538,132V108.79h-4V104h9.49v28Z"/><path class="cls-1" d="M577.68,132v-10c0-2.52-.55-4.49-3.49-4.49-3.15,0-3.86,2.43-3.86,5.12V132h-5.09V100.56h5.09v15.62a6.63,6.63,0,0,1,5.71-2.94,7,7,0,0,1,5.29,2.23c1.3,1.51,1.43,3.23,1.43,5.12V132Z"/><path class="cls-1" d="M596.41,132.61c-5,0-8.78-2.23-8.78-7.65V113.83h5.08v10.29c0,2.48,1,4.16,3.7,4.16s3.7-1.68,3.7-4.16V113.83h5.12V125C605.23,130.38,601.41,132.61,596.41,132.61Z"/><path class="cls-1" d="M615.9,132.61a9.7,9.7,0,0,1-6.94-3l2.69-3.11a5.94,5.94,0,0,0,4.29,2.15,2.15,2.15,0,0,0,2.31-2c0-3.11-8.11-1.55-8.11-7.69,0-3.69,3.07-5.75,6.51-5.75a9.42,9.42,0,0,1,5.93,1.93l-2.53,3a5.06,5.06,0,0,0-3-1.22c-.88,0-1.93.55-1.93,1.56,0,2.64,8.4,1.47,8.4,7.69C623.5,130.34,619.8,132.61,615.9,132.61Z"/><path class="cls-1" d="M639.58,132l-6.84-7.81-.55.54V132h-5.08V100.56h5.08v19.91l6.81-6.64h6.89l-8.53,8,9.2,10.21Z"/><path class="cls-1" d="M661.76,132v-2.4a7,7,0,0,1-5.92,3c-5.46,0-9-4.54-9-9.75s3.49-9.62,8.82-9.62a7.59,7.59,0,0,1,6,2.9v-2.31h5.13V132Zm-4.54-14.2a5.11,5.11,0,1,0,5.09,5.08A5.07,5.07,0,0,0,657.22,117.82Z"/><path class="cls-1" d="M676.88,118.2V132H671.8V118.2h-2v-4.37h2v-6.22h5.08v6.22h3.57v4.37Z"/><path class="cls-1" d="M697,132v-2.4a7,7,0,0,1-5.92,3c-5.46,0-9-4.54-9-9.75s3.49-9.62,8.82-9.62a7.59,7.59,0,0,1,6,2.9v-2.31h5.12V132Zm-4.54-14.2a5.11,5.11,0,1,0,5.08,5.08A5.07,5.07,0,0,0,692.46,117.82Z"/><path class="cls-1" d="M707,132V100.56h5.09V132Z"/><path class="cls-1" d="M726.4,132.61c-5.8,0-10.42-3.62-10.42-9.67s4.62-9.7,10.46-9.7,10.33,3.66,10.33,9.66S732.15,132.61,726.4,132.61Zm0-14.79a5.11,5.11,0,1,0,5.17,5.12A5.14,5.14,0,0,0,726.35,117.82Z"/><path class="cls-1" d="M757.56,138.61a9.91,9.91,0,0,1-7.73,3.2c-4.66,0-9.16-2.69-9.66-7.65h5.5a4.05,4.05,0,0,0,4.33,3.32c3.19,0,4.5-2.23,4.5-5.17v-2.73a7.57,7.57,0,0,1-6.14,3c-5.37,0-8.65-4.33-8.65-9.46s3.36-9.91,8.9-9.91a6.84,6.84,0,0,1,5.89,2.94v-2.35h5.12v17.52C759.62,134.2,759.49,136.35,757.56,138.61ZM750,117.82a5.11,5.11,0,1,0,5.09,5.08A5.07,5.07,0,0,0,750,117.82Z"/></svg>