<svg id="Layer_1" data-name="Layer 1" xmlns="http://www.w3.org/2000/svg" viewBox="0 0 980 120"><defs><style>.cls-1{fill:#d4ac76;}</style></defs><title>text</title><path class="cls-1" d="M416.11,24.49a12,12,0,0,1-24.09,0A11.6,11.6,0,0,1,395.54,16a12.07,12.07,0,0,1,17,0A11.61,11.61,0,0,1,416.11,24.49ZM398.6,30a7.62,7.62,0,0,0,10.91,0,7.64,7.64,0,0,0,2.25-5.55,7.64,7.64,0,0,0-2.25-5.55,7.64,7.64,0,0,0-10.91,0,7.66,7.66,0,0,0-2.23,5.55A7.66,7.66,0,0,0,398.6,30ZM402,10.52a1.89,1.89,0,0,1-1.42.62,1.91,1.91,0,0,1-1.43-.62A2,2,0,0,1,398.59,9a2,2,0,0,1,2-2.07,1.89,1.89,0,0,1,1.4.6,2,2,0,0,1,.6,1.47A2.1,2.1,0,0,1,402,10.52Zm6.9,0a2.22,2.22,0,0,1-3.08,0A2,2,0,0,1,405.22,9a2,2,0,0,1,.63-1.47,2.28,2.28,0,0,1,3.08,0A2,2,0,0,1,409.57,9,2,2,0,0,1,408.93,10.52Z"/><path class="cls-1" d="M422.77,36.1V12.91h8.32a7.89,7.89,0,0,1,8.06,8,7.35,7.35,0,0,1-2.36,5.58A8.07,8.07,0,0,1,431,28.72h-3.9V36.1Zm8-19h-3.6v7.77h3.66a4.1,4.1,0,0,0,2.91-1A3.61,3.61,0,0,0,434.8,21a3.8,3.8,0,0,0-1.14-2.85A4.07,4.07,0,0,0,430.72,17.08Z"/><path class="cls-1" d="M445.54,36.1V12.91h8.32a7.89,7.89,0,0,1,8.06,8,7.35,7.35,0,0,1-2.36,5.58,8.09,8.09,0,0,1-5.77,2.22h-3.9V36.1Zm7.95-19h-3.6v7.77h3.66a4.1,4.1,0,0,0,2.91-1A3.61,3.61,0,0,0,457.57,21a3.8,3.8,0,0,0-1.14-2.85A4.07,4.07,0,0,0,453.49,17.08Z"/><path class="cls-1" d="M481.24,26.29h-8.58v5.94h9.42V36.1H468.31V12.91h13.5v3.87h-9.15v5.64h8.58Z"/><path class="cls-1" d="M487.06,17.08V12.91h19.11v4.17h-7.38v19h-4.35v-19Z"/><path class="cls-1" d="M524.25,36.1V12.91h4V23.13l8.88-10.22h5.37l-8.19,9.25,8.37,13.94h-5l-6.32-10.59L528.28,29V36.1Z"/><path class="cls-1" d="M569.89,24.49a12.05,12.05,0,0,1-24.1,0A11.61,11.61,0,0,1,549.32,16a12.07,12.07,0,0,1,17,0A11.61,11.61,0,0,1,569.89,24.49ZM552.38,30a7.62,7.62,0,0,0,10.91,0,7.64,7.64,0,0,0,2.25-5.55,7.64,7.64,0,0,0-2.25-5.55,7.64,7.64,0,0,0-10.91,0,7.66,7.66,0,0,0-2.23,5.55A7.66,7.66,0,0,0,552.38,30Zm3.43-19.5a1.89,1.89,0,0,1-1.42.62,1.91,1.91,0,0,1-1.43-.62A2,2,0,0,1,552.37,9a2,2,0,0,1,2-2.07,1.89,1.89,0,0,1,1.4.6,2,2,0,0,1,.6,1.47A2.1,2.1,0,0,1,555.81,10.52Zm6.9,0a2.22,2.22,0,0,1-3.08,0A2,2,0,0,1,559,9a2,2,0,0,1,.63-1.47,2.28,2.28,0,0,1,3.08,0A2,2,0,0,1,563.35,9,2,2,0,0,1,562.71,10.52Z"/><path class="cls-1" d="M576.54,36.1V12.91h8.33a7.88,7.88,0,0,1,8,8,7.34,7.34,0,0,1-2.35,5.58,8.09,8.09,0,0,1-5.77,2.22h-3.9V36.1Zm8-19h-3.6v7.77h3.65a4.1,4.1,0,0,0,2.91-1A3.58,3.58,0,0,0,588.58,21a3.8,3.8,0,0,0-1.14-2.85A4.09,4.09,0,0,0,584.5,17.08Z"/><path class="cls-1" d="M374.74,72.1V48.91h8.32a7.89,7.89,0,0,1,8.06,8,7.35,7.35,0,0,1-2.36,5.58A8.09,8.09,0,0,1,383,64.72h-3.9V72.1Zm7.95-19h-3.6v7.77h3.66a4.1,4.1,0,0,0,2.91-1A3.6,3.6,0,0,0,386.77,57a3.81,3.81,0,0,0-1.14-2.86A4.07,4.07,0,0,0,382.69,53.08Z"/><path class="cls-1" d="M397.51,72.1V48.91h9.07a7.8,7.8,0,0,1,5.58,2.1,7.23,7.23,0,0,1,2.24,5.5,7,7,0,0,1-1.67,4.7,7.45,7.45,0,0,1-4.32,2.47l6.23,8.42h-4.89l-6-8.28h-1.87V72.1Zm8.4-19.32h-4.05v7.56h4.05a4.31,4.31,0,0,0,3-1,3.47,3.47,0,0,0,1.13-2.68,3.64,3.64,0,0,0-1.16-2.75A4.11,4.11,0,0,0,405.91,52.78Z"/><path class="cls-1" d="M421.18,72.1V48.91h4.35V72.1Z"/><path class="cls-1" d="M439.76,72.4a11.22,11.22,0,0,1-4.38-.92A11.44,11.44,0,0,1,431.63,69l2.76-3.31A8.28,8.28,0,0,0,437,67.71a6.53,6.53,0,0,0,3.05.82,3.76,3.76,0,0,0,2.47-.8,2.5,2.5,0,0,0,1-2c0-1.44-.85-2.52-2.55-3.22l-2.58-1a10.09,10.09,0,0,1-3.86-2.56,5.93,5.93,0,0,1-1.24-4,6,6,0,0,1,2-4.4,6.72,6.72,0,0,1,4.92-1.93,10,10,0,0,1,7.14,2.65l-2.56,3.23a6,6,0,0,0-4.58-2,3.13,3.13,0,0,0-2.08.66,2.08,2.08,0,0,0-.78,1.64,2.18,2.18,0,0,0,.61,1.59,6.17,6.17,0,0,0,2,1.19l2.7,1.09q5.16,2.05,5.26,6.69a6.47,6.47,0,0,1-2.19,5.07A8.39,8.39,0,0,1,439.76,72.4Z"/><path class="cls-1" d="M469.08,62.41V58.54h8.32l0,2a12,12,0,0,1-1.7,6.15,11.7,11.7,0,0,1-4.4,4.27,12,12,0,0,1-5.9,1.52,12,12,0,0,1-8.56-20.53,11.66,11.66,0,0,1,8.61-3.53,11.41,11.41,0,0,1,8.64,3.74l-3,2.93a7.52,7.52,0,0,0-5.7-2.5,7.36,7.36,0,0,0-5.55,2.26,8.22,8.22,0,0,0,0,11.18,7.07,7.07,0,0,0,5.27,2.28,8.27,8.27,0,0,0,5.16-1.61A7.42,7.42,0,0,0,473,62.41Z"/><path class="cls-1" d="M480.58,72.1l8.94-23.19h3.93l8.91,23.19h-4.48l-1.23-3.21H486.28L485,72.1Zm10.9-16.7L487.77,65h7.4Z"/><path class="cls-1" d="M507.79,72.1V48.91h9.07a7.8,7.8,0,0,1,5.58,2.1,7.23,7.23,0,0,1,2.24,5.5,7,7,0,0,1-1.67,4.7,7.45,7.45,0,0,1-4.32,2.47l6.23,8.42H520l-6-8.28h-1.87V72.1Zm8.4-19.32h-4.05v7.56h4.05a4.31,4.31,0,0,0,3-1,3.47,3.47,0,0,0,1.13-2.68,3.64,3.64,0,0,0-1.16-2.75A4.11,4.11,0,0,0,516.19,52.78Z"/><path class="cls-1" d="M528.88,72.1l8.94-23.19h3.93l8.91,23.19h-4.47L545,68.89H534.58l-1.24,3.21Zm10.91-16.7L536.07,65h7.4Z"/><path class="cls-1" d="M556.08,72.1V48.91h3l11.41,14.58V48.91h4.36V72.1H572L560.44,57.34V72.1Z"/><path class="cls-1" d="M580.5,53.08V48.91h19.11v4.17h-7.38v19h-4.35v-19Z"/><path class="cls-1" d="M605.17,72.1V48.91h4.35V72.1Z"/><path class="cls-1" d="M389.39,108.1V84.91H397a7,7,0,0,1,5.07,1.93,6.38,6.38,0,0,1,2,4.79,5.48,5.48,0,0,1-2.6,4.66,6.46,6.46,0,0,1,2.57,2.08,4.88,4.88,0,0,1,1,2.94,6.36,6.36,0,0,1-2,4.91,7.25,7.25,0,0,1-5.12,1.88Zm7.13-19.32h-3.11V94.6h3.47a3.18,3.18,0,0,0,2.3-.86,2.85,2.85,0,0,0,.89-2.14,2.47,2.47,0,0,0-1-2A4,4,0,0,0,396.52,88.78Zm.66,9.3h-3.77v6.15h3.68a3.79,3.79,0,0,0,2.62-.88,2.89,2.89,0,0,0,1-2.24,2.84,2.84,0,0,0-.9-2.2A3.68,3.68,0,0,0,397.18,98.08Z"/><path class="cls-1" d="M424.91,98.29h-8.58v5.94h9.42v3.87H412V84.91h13.5v3.87h-9.15v5.64h8.58Z"/><path class="cls-1" d="M430.73,89.08V84.91h19.11v4.17h-7.38v19h-4.35v-19Z"/><path class="cls-1" d="M450.65,108.1l8.94-23.19h3.93l8.91,23.19H468l-1.23-3.21H456.36l-1.24,3.21Zm10.91-16.7L457.85,101h7.4Z"/><path class="cls-1" d="M477.86,108.1V84.91h4.35v19h8.52v4.17Z"/><path class="cls-1" d="M494.75,108.1l8.94-23.19h3.93l8.91,23.19h-4.47l-1.23-3.21H500.46l-1.24,3.21Zm10.91-16.7L502,101h7.4Z"/><path class="cls-1" d="M540.57,108.4a11.13,11.13,0,0,1-4.37-.92,11.38,11.38,0,0,1-3.76-2.53l2.76-3.31a8.52,8.52,0,0,0,2.56,2.07,6.56,6.56,0,0,0,3,.82,3.79,3.79,0,0,0,2.48-.8,2.49,2.49,0,0,0,1-2c0-1.44-.85-2.52-2.54-3.22l-2.59-1a10.09,10.09,0,0,1-3.86-2.56A5.93,5.93,0,0,1,534,91a6,6,0,0,1,2-4.4,6.72,6.72,0,0,1,4.91-1.93A10,10,0,0,1,548,87.29l-2.56,3.23a6,6,0,0,0-4.58-2,3.14,3.14,0,0,0-2.08.66,2.08,2.08,0,0,0-.78,1.64,2.18,2.18,0,0,0,.61,1.59,6.17,6.17,0,0,0,2,1.19l2.71,1.09q5.16,2.05,5.25,6.69a6.5,6.5,0,0,1-2.18,5.07A8.43,8.43,0,0,1,540.57,108.4Z"/><path class="cls-1" d="M568.16,98.29h-8.58v5.94H569v3.87H555.23V84.91h13.5v3.87h-9.15v5.64h8.58Z"/><path class="cls-1" d="M576.05,108.1V84.91h3.05l11.41,14.58V84.91h4.35V108.1H592L580.4,93.34V108.1Z"/></svg>