<svg id="Layer_1" data-name="Layer 1" xmlns="http://www.w3.org/2000/svg" viewBox="0 0 980 240"><defs><style>.cls-1{fill:#d80201;}</style></defs><title>text</title><path class="cls-1" d="M389.21,112.18c-4.54,0-7.78-2-10.3-5.71l3.78-3.65a6.87,6.87,0,0,0,6.3,4c2.52,0,4.63-1.58,4.63-4.23,0-6.17-13.18-3.24-13.18-12.92,0-5.31,4.27-8.73,9.36-8.73a13.15,13.15,0,0,1,8.77,3.33l-3.06,4a6.07,6.07,0,0,0-4.86-2.43c-1.93,0-4.18,1.21-4.18,3.37,0,5.09,13.18,2.57,13.18,13C399.65,108.4,395.15,112.18,389.21,112.18Z"/><path class="cls-1" d="M413.87,111.87h-2.52L401.41,92h6.12l5.13,11,5.13-11h6.12Z"/><path class="cls-1" d="M440.47,111.46V108.9a7.55,7.55,0,0,1-6.35,3.19c-5.85,0-9.58-4.86-9.58-10.44s3.73-10.3,9.45-10.3a8.14,8.14,0,0,1,6.48,3.1V92H446v19.48Zm-4.86-15.21a5.47,5.47,0,1,0,5.44,5.45A5.44,5.44,0,0,0,435.61,96.25Z"/><path class="cls-1" d="M464.5,111.46v-10.8c0-2.65-.59-4.68-3.69-4.68-3.38,0-4.19,2.48-4.19,5.4v10.08h-5.44V92h5.44v2.38c1.8-2.07,3.33-3,6.12-3a7.47,7.47,0,0,1,5.67,2.34c1.4,1.62,1.53,3.37,1.53,5.4v12.37Z"/><path class="cls-1" d="M479.71,102.6c.09,3,1.53,5.22,4.77,5.22a5.1,5.1,0,0,0,4.63-2.61l5,.81c-1.71,4.18-5.17,6.07-9.58,6.07-6.3,0-10.44-4-10.44-10.39s4-10.35,10.21-10.35c6.44,0,10,4.32,10,10.53v.72Zm4.72-7.38a4.42,4.42,0,0,0-4.54,3.91h9.22A4.51,4.51,0,0,0,484.43,95.22Z"/><path class="cls-1" d="M511.79,111.46v-10.8c0-2.65-.58-4.68-3.69-4.68-3.37,0-4.18,2.48-4.18,5.4v10.08h-5.45V92h5.45v2.38c1.8-2.07,3.33-3,6.12-3a7.48,7.48,0,0,1,5.67,2.34c1.39,1.62,1.53,3.37,1.53,5.4v12.37Z"/><path class="cls-1" d="M547.34,111.46V100.8c0-2.3-.36-4.82-3.24-4.82-3.19,0-3.73,2.93-3.73,5.49v10h-5.45V101.11a8.78,8.78,0,0,0-.4-3.24A3.17,3.17,0,0,0,531.59,96a3.57,3.57,0,0,0-3.06,1.76,8.12,8.12,0,0,0-.63,3.73v10h-5.44V92h5.44v2.2a7.5,7.5,0,0,1,5.94-2.83,6.62,6.62,0,0,1,6.08,3.55,7.2,7.2,0,0,1,6.39-3.55,6.39,6.39,0,0,1,5.44,2.79,8.56,8.56,0,0,1,1,4.72v12.6Z"/><path class="cls-1" d="M572.9,111.46V108.9a7.53,7.53,0,0,1-6.34,3.19c-5.85,0-9.59-4.86-9.59-10.44s3.74-10.3,9.45-10.3a8.12,8.12,0,0,1,6.48,3.1V92h5.49v19.48Zm-9.4-23.13a3.24,3.24,0,0,1,0-6.48,3.24,3.24,0,1,1,0,6.48ZM568,96.25a5.47,5.47,0,1,0,5.45,5.45A5.44,5.44,0,0,0,568,96.25Zm4.82-7.92a3.28,3.28,0,0,1-3.24-3.24,3.24,3.24,0,1,1,3.24,3.24Z"/><path class="cls-1" d="M596.34,96.93a4.77,4.77,0,0,0-2.61-.68c-3.69,0-4.68,2.61-4.68,5.85v9.36h-5.44V92h5.44V94.9a6.27,6.27,0,0,1,5.67-3.55,6.15,6.15,0,0,1,2.39.45Z"/><path class="cls-1" d="M613.17,111.46l-7.33-8.37-.59.59v7.78h-5.44V77.76h5.44V99.09L612.54,92h7.38l-9.13,8.55,9.85,10.93Z"/><path class="cls-1" d="M628.56,96.66v14.8h-5.44V96.66H621V92h2.16V85.32h5.44V92h3.83v4.68Z"/><path class="cls-1" d="M650.12,111.46V108.9a7.55,7.55,0,0,1-6.35,3.19c-5.85,0-9.58-4.86-9.58-10.44s3.73-10.3,9.45-10.3a8.14,8.14,0,0,1,6.48,3.1V92h5.49v19.48Zm-4.86-15.21a5.47,5.47,0,1,0,5.44,5.45A5.44,5.44,0,0,0,645.26,96.25Z"/><path class="cls-1" d="M685.4,111.46V100.8c0-2.7-.59-4.82-3.74-4.82-3.37,0-4.14,2.61-4.14,5.49v10h-5.44V77.76h5.44V94.5a7.1,7.1,0,0,1,6.12-3.15,7.43,7.43,0,0,1,5.67,2.38c1.4,1.62,1.53,3.47,1.53,5.49v12.24Z"/><path class="cls-1" d="M705.47,112.09c-5.36,0-9.41-2.38-9.41-8.19V92h5.45v11c0,2.66,1.12,4.46,4,4.46s4-1.8,4-4.46V92h5.49V103.9C714.92,109.71,710.82,112.09,705.47,112.09Z"/><path class="cls-1" d="M726.35,112.09a10.37,10.37,0,0,1-7.43-3.24l2.88-3.33a6.34,6.34,0,0,0,4.59,2.3,2.3,2.3,0,0,0,2.48-2.16c0-3.33-8.69-1.67-8.69-8.24,0-4,3.29-6.16,7-6.16a10,10,0,0,1,6.34,2.07l-2.7,3.19a5.4,5.4,0,0,0-3.24-1.3c-.94,0-2.07.58-2.07,1.66,0,2.84,9,1.58,9,8.24C734.49,109.66,730.53,112.09,726.35,112.09Z"/><path class="cls-1" d="M371.37,148.64v13.82h-5.08V148.64h-2v-4.37h2v-5.84a8.8,8.8,0,0,1,.8-4.28,7.2,7.2,0,0,1,6.3-3.66,5.92,5.92,0,0,1,2.69.64v4.66a5.05,5.05,0,0,0-2.31-.67c-2.27,0-2.4,2.35-2.4,4.07v5.08h4.71v4.37Z"/><path class="cls-1" d="M387.88,163.05c-5.8,0-10.42-3.61-10.42-9.66s4.62-9.71,10.46-9.71,10.34,3.66,10.34,9.67S393.63,163.05,387.88,163.05Zm-4.41-22.18a3,3,0,1,1,0-6.05,3,3,0,0,1,0,6.05Zm4.37,7.39a5.11,5.11,0,1,0,5.16,5.13A5.15,5.15,0,0,0,387.84,148.26Zm4.37-7.39a3.07,3.07,0,0,1-3-3,3,3,0,1,1,3,3Z"/><path class="cls-1" d="M414.05,148.89a4.52,4.52,0,0,0-2.44-.63c-3.45,0-4.37,2.44-4.37,5.46v8.74h-5.08V144.27h5.08V147a5.87,5.87,0,0,1,5.29-3.32,5.92,5.92,0,0,1,2.23.42Z"/><path class="cls-1" d="M432,154.19c.08,2.81,1.43,4.87,4.45,4.87a4.77,4.77,0,0,0,4.33-2.44l4.7.76c-1.59,3.91-4.83,5.67-8.94,5.67-5.88,0-9.75-3.78-9.75-9.7s3.7-9.67,9.54-9.67c6,0,9.28,4,9.28,9.83v.68Zm4.41-6.89a4.13,4.13,0,0,0-4.24,3.65h8.61A4.22,4.22,0,0,0,436.43,147.3Z"/><path class="cls-1" d="M462,162.46V152.38c0-2.48-.55-4.37-3.45-4.37-3.15,0-3.9,2.31-3.9,5v9.41h-5.09V144.27h5.09v2.23c1.68-1.93,3.1-2.82,5.71-2.82a7,7,0,0,1,5.29,2.19c1.3,1.51,1.43,3.15,1.43,5v11.55Z"/><path class="cls-1" d="M488.21,163.05a9.68,9.68,0,0,1-6.93-3l2.69-3.11a5.94,5.94,0,0,0,4.29,2.14,2.15,2.15,0,0,0,2.31-2c0-3.11-8.11-1.55-8.11-7.68,0-3.7,3.07-5.76,6.51-5.76a9.37,9.37,0,0,1,5.92,1.93l-2.52,3a5,5,0,0,0-3-1.22c-.88,0-1.93.54-1.93,1.55,0,2.65,8.4,1.47,8.4,7.69C495.82,160.78,492.12,163.05,488.21,163.05Z"/><path class="cls-1" d="M508.21,163.05c-5,0-8.78-2.23-8.78-7.65V144.27h5.08v10.29c0,2.48,1.05,4.16,3.7,4.16s3.69-1.68,3.69-4.16V144.27H517V155.4C517,160.82,513.21,163.05,508.21,163.05Z"/><path class="cls-1" d="M534.33,162.46V152.38c0-2.48-.54-4.37-3.44-4.37-3.15,0-3.91,2.31-3.91,5v9.41H521.9V144.27H527v2.23c1.68-1.93,3.11-2.82,5.71-2.82a7,7,0,0,1,5.3,2.19c1.3,1.51,1.42,3.15,1.42,5v11.55Z"/><path class="cls-1" d="M558.19,162.46v-2.39a7,7,0,0,1-5.93,3c-5.46,0-8.94-4.54-8.94-9.75s3.48-9.62,8.82-9.62a7.59,7.59,0,0,1,6.05,2.9V131h5.12v31.46Zm-4.54-14.2a5.11,5.11,0,1,0,5.08,5.09A5.08,5.08,0,0,0,553.65,148.26Z"/><path class="cls-1" d="M581.16,139.65a3.07,3.07,0,1,1,0-6.13,3.07,3.07,0,0,1,0,6.13Zm-2.56,22.81V144.27h5.08v18.19Z"/><path class="cls-1" d="M600.9,162.46V152.38c0-2.48-.55-4.37-3.44-4.37-3.16,0-3.91,2.31-3.91,5v9.41h-5.08V144.27h5.08v2.23c1.68-1.93,3.11-2.82,5.71-2.82a7,7,0,0,1,5.29,2.19c1.31,1.51,1.43,3.15,1.43,5v11.55Z"/><path class="cls-1" d="M623.29,162.46V152.38c0-2.48-.55-4.37-3.45-4.37-3.15,0-3.91,2.31-3.91,5v9.41h-5.08V144.27h5.08v2.23c1.68-1.93,3.11-2.82,5.72-2.82a7,7,0,0,1,5.29,2.19c1.3,1.51,1.43,3.15,1.43,5v11.55Z"/><path class="cls-1" d="M637.48,154.19c.08,2.81,1.43,4.87,4.45,4.87a4.77,4.77,0,0,0,4.33-2.44l4.7.76c-1.59,3.91-4.83,5.67-8.94,5.67-5.89,0-9.75-3.78-9.75-9.7s3.7-9.67,9.54-9.67c6,0,9.28,4,9.28,9.83v.68Zm4.41-6.89a4.13,4.13,0,0,0-4.24,3.65h8.61A4.22,4.22,0,0,0,641.89,147.3Z"/><path class="cls-1" d="M678.22,162.46v-10c0-2.15-.33-4.5-3-4.5-3,0-3.49,2.73-3.49,5.13v9.32h-5.08V152.8a8.05,8.05,0,0,0-.38-3,2.93,2.93,0,0,0-2.73-1.77,3.33,3.33,0,0,0-2.86,1.64,7.63,7.63,0,0,0-.58,3.49v9.32H655V144.27h5.09v2.06a7,7,0,0,1,5.54-2.65,6.19,6.19,0,0,1,5.67,3.32,6.74,6.74,0,0,1,6-3.32,6,6,0,0,1,5.08,2.61,8,8,0,0,1,1,4.41v11.76Z"/><path class="cls-1" d="M690.65,139.65a3.07,3.07,0,1,1,0-6.13,3.07,3.07,0,0,1,0,6.13Zm-2.56,22.81V144.27h5.08v18.19Z"/><path class="cls-1" d="M698,162.46V131H703v31.46Z"/><path class="cls-1" d="M710.39,139.65a3.07,3.07,0,1,1,0-6.13,3.07,3.07,0,0,1,0,6.13Zm-2.56,32.52v-27.9h5.08v27.9Z"/><path class="cls-1" d="M727.15,163.05c-5.8,0-10.42-3.61-10.42-9.66s4.62-9.71,10.46-9.71,10.33,3.66,10.33,9.67S732.9,163.05,727.15,163.05Zm-4.41-22.18a3,3,0,1,1,0-6.05,3,3,0,0,1,0,6.05Zm4.37,7.39a5.11,5.11,0,1,0,5.16,5.13A5.15,5.15,0,0,0,727.11,148.26Zm4.36-7.39a3.07,3.07,0,0,1-3-3,3,3,0,1,1,3,3Z"/><path class="cls-1" d="M744.24,163a3.28,3.28,0,1,1,3.28-3.28A3.28,3.28,0,0,1,744.24,163Zm-2.6-8.57v-20h5.2v20Z"/></svg>