<svg id="Layer_1" data-name="Layer 1" xmlns="http://www.w3.org/2000/svg" viewBox="0 0 740 160"><defs><style>.cls-1{fill:#d80201;}</style></defs><title>text</title><path class="cls-1" d="M412.49,47.66a11.42,11.42,0,0,1-11.75-11.45,11.77,11.77,0,1,1,11.75,11.45Zm0-19.07a7.59,7.59,0,1,0,7.36,7.55A7.46,7.46,0,0,0,412.49,28.59Z"/><path class="cls-1" d="M437.37,47.17V39.25c0-2-.43-3.44-2.71-3.44-2.47,0-3.07,1.82-3.07,4v7.4h-4V32.88h4v1.75a5.29,5.29,0,0,1,4.49-2.22,5.48,5.48,0,0,1,4.16,1.72,5.52,5.52,0,0,1,1.12,4v9.08Z"/><path class="cls-1" d="M449.74,47.63a7.59,7.59,0,0,1-5.44-2.38l2.11-2.44a4.62,4.62,0,0,0,3.37,1.68,1.68,1.68,0,0,0,1.81-1.58c0-2.44-6.37-1.22-6.37-6,0-2.9,2.41-4.52,5.12-4.52A7.34,7.34,0,0,1,455,33.87l-2,2.34a4,4,0,0,0-2.37-1c-.7,0-1.52.43-1.52,1.22,0,2.08,6.6,1.16,6.6,6C455.72,45.85,452.81,47.63,449.74,47.63Z"/><path class="cls-1" d="M469.48,47.17V45.29a5.52,5.52,0,0,1-4.65,2.34c-4.3,0-7-3.57-7-7.66s2.73-7.56,6.93-7.56a6,6,0,0,1,4.75,2.28V32.88h4V47.17ZM465.91,36a4,4,0,1,0,4,4A4,4,0,0,0,465.91,36Z"/><path class="cls-1" d="M477.33,47.17V22.45h4V47.17Z"/><path class="cls-1" d="M496.08,47.17V45.29a5.54,5.54,0,0,1-4.66,2.34c-4.29,0-7-3.57-7-7.66s2.74-7.56,6.93-7.56a6,6,0,0,1,4.76,2.28V32.88h4V47.17ZM492.51,36a4,4,0,1,0,4,4A4,4,0,0,0,492.51,36Z"/><path class="cls-1" d="M375.46,85.17l-7.85-9.87-.5.49v9.38h-4.29v-22h4.29v9.31l8.09-9.31h5.41l-9.3,10.17,9.8,11.85Z"/><path class="cls-1" d="M393,85.17V77.25c0-2-.43-3.44-2.71-3.44-2.48,0-3.07,1.82-3.07,4v7.4h-4V70.88h4v1.75a5.28,5.28,0,0,1,4.49-2.22A4.94,4.94,0,0,1,397,76.09v9.08Z"/><path class="cls-1" d="M411.73,85.17V83.29a5.52,5.52,0,0,1-4.65,2.34c-4.29,0-7-3.57-7-7.66s2.74-7.56,6.93-7.56a6,6,0,0,1,4.75,2.28V70.88h4V85.17ZM408.17,74a4,4,0,1,0,4,4A4,4,0,0,0,408.17,74Z"/><path class="cls-1" d="M424.14,85.63a7.59,7.59,0,0,1-5.45-2.38l2.11-2.44a4.64,4.64,0,0,0,3.37,1.68A1.68,1.68,0,0,0,426,80.91c0-2.44-6.37-1.22-6.37-6,0-2.9,2.41-4.52,5.12-4.52a7.32,7.32,0,0,1,4.65,1.52l-2,2.34a4,4,0,0,0-2.37-1c-.7,0-1.52.43-1.52,1.22,0,2.08,6.6,1.16,6.6,6C430.11,83.85,427.21,85.63,424.14,85.63Z"/><path class="cls-1" d="M437,74.31V85.17h-4V74.31H431.4V70.88H433V66h4v4.89h2.81v3.43Z"/><path class="cls-1" d="M452.78,85.17V83.29a5.52,5.52,0,0,1-4.65,2.34c-4.29,0-7-3.57-7-7.66s2.74-7.56,6.93-7.56a6,6,0,0,1,4.75,2.28V70.88h4V85.17ZM449.22,74a4,4,0,1,0,4,4A4,4,0,0,0,449.22,74Zm-.56-5.64a3,3,0,0,1,0-5.94,3,3,0,0,1,0,5.94Zm0-4.13a1.16,1.16,0,1,0,1.15,1.16A1.13,1.13,0,0,0,448.66,64.24Z"/><path class="cls-1" d="M465.19,85.63a7.59,7.59,0,0,1-5.45-2.38l2.11-2.44a4.66,4.66,0,0,0,3.37,1.68A1.68,1.68,0,0,0,467,80.91c0-2.44-6.37-1.22-6.37-6,0-2.9,2.41-4.52,5.11-4.52a7.36,7.36,0,0,1,4.66,1.52l-2,2.34a4,4,0,0,0-2.38-1c-.69,0-1.52.43-1.52,1.22,0,2.08,6.6,1.16,6.6,6C471.16,83.85,468.26,85.63,465.19,85.63Z"/><path class="cls-1" d="M474,85.17V60.45h4V85.17Z"/><path class="cls-1" d="M483.77,67.25a2.41,2.41,0,1,1,0-4.82,2.41,2.41,0,0,1,0,4.82Zm-2,17.92V70.88h4V85.17Z"/><path class="cls-1" d="M500.43,85.17V83.29a5.52,5.52,0,0,1-4.65,2.34c-4.29,0-7-3.57-7-7.66s2.74-7.56,6.93-7.56a6,6,0,0,1,4.75,2.28V60.45h4V85.17ZM496.87,74a4,4,0,1,0,4,4A4,4,0,0,0,496.87,74Z"/><path class="cls-1" d="M511.62,78.67c.06,2.21,1.12,3.82,3.5,3.82a3.75,3.75,0,0,0,3.4-1.91l3.69.59c-1.25,3.07-3.79,4.46-7,4.46-4.62,0-7.66-3-7.66-7.63s2.91-7.59,7.5-7.59,7.29,3.17,7.29,7.73v.53Zm3.46-5.42a3.24,3.24,0,0,0-3.33,2.87h6.77A3.32,3.32,0,0,0,515.08,73.25Z"/><path class="cls-1" d="M535.15,85.17V77.25c0-2-.43-3.44-2.71-3.44-2.47,0-3.07,1.82-3.07,4v7.4h-4V70.88h4v1.75a5.28,5.28,0,0,1,4.49-2.22,4.94,4.94,0,0,1,5.28,5.68v9.08Z"/></svg>