<svg id="Layer_1" data-name="Layer 1" xmlns="http://www.w3.org/2000/svg" viewBox="0 0 740 160"><defs><style>.cls-1{fill:#d80201;}</style></defs><title>text</title><path class="cls-1" d="M401.59,47.17,399.64,33.6l-6.07,13.86h-1.19L386.54,33.6l-2.21,13.56H380l4.09-22.41H387l6,14.39,6.27-14.39h2.94l3.66,22.41Z"/><path class="cls-1" d="M416.64,47.63c-4.55,0-8.19-2.84-8.19-7.59s3.63-7.62,8.22-7.62,8.12,2.87,8.12,7.59S421.16,47.63,416.64,47.63ZM413.17,30.2a2.38,2.38,0,0,1,0-4.75,2.38,2.38,0,0,1,0,4.75ZM416.6,36a4,4,0,1,0,4.06,4A4,4,0,0,0,416.6,36ZM420,30.2a2.41,2.41,0,0,1-2.38-2.38A2.38,2.38,0,1,1,420,30.2Z"/><path class="cls-1" d="M436.54,47.63a5.62,5.62,0,0,1-4.69-2.34v1.88h-4V22.45h4V34.69a6.07,6.07,0,0,1,4.79-2.28c4.19,0,7,3.56,7,7.56S440.83,47.63,436.54,47.63ZM435.45,36a4,4,0,1,0,4,4A4,4,0,0,0,435.45,36Z"/><path class="cls-1" d="M446.63,47.17V22.45h4V47.17Z"/><path class="cls-1" d="M457.79,40.67c.07,2.21,1.12,3.83,3.5,3.83a3.74,3.74,0,0,0,3.4-1.91l3.7.59c-1.25,3.07-3.79,4.46-7,4.46-4.62,0-7.66-3-7.66-7.62s2.9-7.59,7.49-7.59,7.29,3.17,7.29,7.72v.53Zm3.47-5.41a3.24,3.24,0,0,0-3.33,2.87h6.77A3.31,3.31,0,0,0,461.25,35.25Z"/><path class="cls-1" d="M480.89,36.51A3.53,3.53,0,0,0,479,36c-2.71,0-3.43,1.91-3.43,4.29v6.86h-4V32.88h4V35a4.66,4.66,0,0,1,5.91-2.28Z"/><path class="cls-1" d="M494.35,47.17V45.29a5.52,5.52,0,0,1-4.65,2.34c-4.29,0-7-3.56-7-7.66s2.74-7.56,6.93-7.56a6,6,0,0,1,4.75,2.28V32.88h4V47.17ZM490.79,36a4,4,0,1,0,4,4A4,4,0,0,0,490.79,36Z"/><path class="cls-1" d="M506.23,36.31V47.17h-4V36.31h-1.58V32.88h1.58V28h4v4.88H509v3.43Z"/><path class="cls-1" d="M376.64,85.46h-1.85L367.5,70.88H372l3.76,8.05,3.76-8.05H384Z"/><path class="cls-1" d="M387.89,67.25a2.41,2.41,0,0,1,0-4.82,2.41,2.41,0,0,1,0,4.82Zm-2,17.92V70.88h4V85.17Z"/><path class="cls-1" d="M398.19,85.63a7.6,7.6,0,0,1-5.45-2.38l2.11-2.44a4.65,4.65,0,0,0,3.37,1.68A1.68,1.68,0,0,0,400,80.91c0-2.44-6.37-1.22-6.37-6,0-2.9,2.41-4.52,5.12-4.52a7.37,7.37,0,0,1,4.65,1.52l-2,2.34a4,4,0,0,0-2.38-1c-.69,0-1.52.43-1.52,1.22,0,2.08,6.6,1.16,6.6,6C404.16,83.85,401.26,85.63,398.19,85.63Z"/><path class="cls-1" d="M416.77,85.17V77.25c0-1.95-.43-3.43-2.71-3.43-2.47,0-3.07,1.82-3.07,4v7.39h-4V70.88h4v1.75a5.28,5.28,0,0,1,4.49-2.21,4.94,4.94,0,0,1,5.28,5.68v9.08Z"/><path class="cls-1" d="M426.54,67.25a2.41,2.41,0,0,1,0-4.82,2.41,2.41,0,0,1,0,4.82Zm-2,17.92V70.88h4V85.17Z"/><path class="cls-1" d="M442,85.17V77.25c0-1.95-.43-3.43-2.71-3.43-2.48,0-3.07,1.82-3.07,4v7.39h-4V70.88h4v1.75a5.28,5.28,0,0,1,4.49-2.21A4.94,4.94,0,0,1,446,76.09v9.08Z"/><path class="cls-1" d="M463.13,90.35a7.79,7.79,0,0,1-6.07,2.51c-3.66,0-7.2-2.11-7.59-6h4.32a3.18,3.18,0,0,0,3.4,2.61c2.51,0,3.53-1.75,3.53-4.06V83.25a5.94,5.94,0,0,1-4.82,2.38c-4.22,0-6.8-3.4-6.8-7.43s2.64-7.79,7-7.79a5.36,5.36,0,0,1,4.62,2.31V70.88h4V84.64C464.75,86.88,464.65,88.57,463.13,90.35ZM457.23,74a4,4,0,1,0,4,4A4,4,0,0,0,457.23,74Z"/><path class="cls-1" d="M473.13,85.63a7.6,7.6,0,0,1-5.45-2.38l2.11-2.44a4.65,4.65,0,0,0,3.37,1.68A1.68,1.68,0,0,0,475,80.91c0-2.44-6.37-1.22-6.37-6,0-2.9,2.41-4.52,5.12-4.52a7.37,7.37,0,0,1,4.65,1.52l-2,2.34a4,4,0,0,0-2.38-1c-.69,0-1.52.43-1.52,1.22,0,2.08,6.6,1.16,6.6,6C479.1,83.85,476.2,85.63,473.13,85.63Z"/><path class="cls-1" d="M491.71,85.17V77.34c0-2-.43-3.53-2.74-3.53-2.48,0-3,1.91-3,4v7.33h-4V60.45h4V72.72a5.2,5.2,0,0,1,4.49-2.31,5.47,5.47,0,0,1,4.16,1.75,5.67,5.67,0,0,1,1.12,4v9Z"/><path class="cls-1" d="M506.43,85.63c-3.93,0-6.9-1.75-6.9-6V70.88h4V79c0,1.95.83,3.27,2.9,3.27s2.9-1.32,2.9-3.27V70.88h4v8.75C513.36,83.88,510.36,85.63,506.43,85.63Z"/><path class="cls-1" d="M521.74,85.63a7.6,7.6,0,0,1-5.45-2.38l2.11-2.44a4.65,4.65,0,0,0,3.37,1.68,1.68,1.68,0,0,0,1.82-1.58c0-2.44-6.37-1.22-6.37-6,0-2.9,2.41-4.52,5.12-4.52A7.37,7.37,0,0,1,527,71.87l-2,2.34a4,4,0,0,0-2.38-1c-.69,0-1.52.43-1.52,1.22,0,2.08,6.6,1.16,6.6,6C527.71,83.85,524.81,85.63,521.74,85.63Z"/></svg>