<svg id="Layer_1" data-name="Layer 1" xmlns="http://www.w3.org/2000/svg" viewBox="0 0 740 160"><defs><style>.cls-1{fill:#d80201;}</style></defs><title>text</title><path class="cls-1" d="M323,37.07c-2.15,2.31-5.52,1.94-8.39,1.94v8.16h-4.29v-22h6.4c2.18,0,4.1.17,5.81,1.69a7,7,0,0,1,2.25,5.31A7.24,7.24,0,0,1,323,37.07Zm-3.77-7.49a5.11,5.11,0,0,0-3.13-.7h-1.49v6.41h1.75c2.15,0,4-.7,4-3.17A3.24,3.24,0,0,0,319.27,29.58Z"/><path class="cls-1" d="M336.73,36.51a3.48,3.48,0,0,0-1.91-.5c-2.71,0-3.44,1.92-3.44,4.29v6.87h-4V32.88h4V35a4.66,4.66,0,0,1,5.91-2.28Z"/><path class="cls-1" d="M342.6,40.67c.07,2.21,1.12,3.82,3.5,3.82a3.74,3.74,0,0,0,3.4-1.91l3.7.59c-1.26,3.07-3.8,4.46-7,4.46-4.62,0-7.66-3-7.66-7.63s2.9-7.59,7.49-7.59,7.3,3.17,7.3,7.73v.53Zm3.47-5.42a3.24,3.24,0,0,0-3.34,2.87h6.77A3.31,3.31,0,0,0,346.07,35.25Z"/><path class="cls-1" d="M374.61,47.17V39.34c0-1.68-.26-3.53-2.37-3.53-2.35,0-2.74,2.15-2.74,4v7.33h-4V39.58a6.52,6.52,0,0,0-.29-2.38,2.32,2.32,0,0,0-2.15-1.39,2.61,2.61,0,0,0-2.24,1.29,5.92,5.92,0,0,0-.46,2.74v7.33h-4V32.88h4v1.61a5.48,5.48,0,0,1,4.35-2.08A4.88,4.88,0,0,1,369.17,35a5.29,5.29,0,0,1,4.68-2.61,4.71,4.71,0,0,1,4,2.05,6.3,6.3,0,0,1,.76,3.47v9.24Z"/><path class="cls-1" d="M384.38,29.25a2.41,2.41,0,1,1,0-4.82,2.41,2.41,0,0,1,0,4.82Zm-2,17.92V32.88h4V47.17Z"/><path class="cls-1" d="M401,47.17V45.29a5.51,5.51,0,0,1-4.65,2.34c-4.29,0-7-3.57-7-7.66s2.74-7.56,6.93-7.56A6,6,0,0,1,401,34.69V32.88h4V47.17Zm-6.89-17a2.38,2.38,0,1,1,0-4.75,2.38,2.38,0,0,1,0,4.75ZM397.48,36a4,4,0,1,0,4,4A4,4,0,0,0,397.48,36ZM401,30.2a2.4,2.4,0,0,1-2.37-2.37A2.38,2.38,0,1,1,401,30.2Z"/><path class="cls-1" d="M418.24,36.51a3.5,3.5,0,0,0-1.92-.5c-2.7,0-3.43,1.92-3.43,4.29v6.87h-4V32.88h4V35a4.66,4.66,0,0,1,5.91-2.28Z"/><path class="cls-1" d="M436.29,47.46h-1.85l-7.29-14.58h4.48l3.77,8,3.76-8h4.49Z"/><path class="cls-1" d="M447.54,29.25a2.41,2.41,0,0,1,0-4.82,2.41,2.41,0,0,1,0,4.82Zm-2,17.92V32.88h4V47.17Z"/><path class="cls-1" d="M457.84,47.63a7.59,7.59,0,0,1-5.45-2.38l2.11-2.44a4.64,4.64,0,0,0,3.37,1.68,1.68,1.68,0,0,0,1.81-1.58c0-2.44-6.37-1.22-6.37-6,0-2.9,2.41-4.52,5.12-4.52a7.32,7.32,0,0,1,4.65,1.52l-2,2.34a4,4,0,0,0-2.37-1c-.7,0-1.52.43-1.52,1.22,0,2.08,6.6,1.16,6.6,6C463.81,45.85,460.91,47.63,457.84,47.63Z"/><path class="cls-1" d="M476.42,47.17V39.25c0-2-.43-3.44-2.71-3.44-2.48,0-3.07,1.82-3.07,4v7.4h-4V32.88h4v1.75a5.28,5.28,0,0,1,4.49-2.22,5.49,5.49,0,0,1,4.16,1.72,5.52,5.52,0,0,1,1.12,4v9.08Z"/><path class="cls-1" d="M486.18,29.25a2.41,2.41,0,0,1,0-4.82,2.41,2.41,0,0,1,0,4.82Zm-2,17.92V32.88h4V47.17Z"/><path class="cls-1" d="M501.69,47.17V39.25c0-2-.43-3.44-2.7-3.44-2.48,0-3.07,1.82-3.07,4v7.4h-4V32.88h4v1.75a5.28,5.28,0,0,1,4.49-2.22,5,5,0,0,1,5.28,5.68v9.08Z"/><path class="cls-1" d="M522.78,52.35a7.81,7.81,0,0,1-6.07,2.51c-3.67,0-7.2-2.12-7.59-6h4.32a3.19,3.19,0,0,0,3.4,2.61c2.51,0,3.53-1.75,3.53-4.06V45.25a5.94,5.94,0,0,1-4.82,2.38c-4.22,0-6.8-3.4-6.8-7.43s2.64-7.79,7-7.79a5.35,5.35,0,0,1,4.62,2.31V32.88h4V46.64C524.4,48.88,524.3,50.57,522.78,52.35ZM516.87,36a4,4,0,1,0,4,4A4,4,0,0,0,516.87,36Z"/><path class="cls-1" d="M532.78,47.63a7.59,7.59,0,0,1-5.45-2.38l2.11-2.44a4.64,4.64,0,0,0,3.37,1.68,1.69,1.69,0,0,0,1.82-1.58c0-2.44-6.38-1.22-6.38-6,0-2.9,2.41-4.52,5.12-4.52A7.32,7.32,0,0,1,538,33.87l-2,2.34a4,4,0,0,0-2.37-1c-.7,0-1.52.43-1.52,1.22,0,2.08,6.6,1.16,6.6,6C538.75,45.85,535.85,47.63,532.78,47.63Z"/><path class="cls-1" d="M551.36,47.17V39.34c0-2-.43-3.53-2.74-3.53-2.48,0-3,1.92-3,4v7.33h-4V22.45h4V34.72a5.21,5.21,0,0,1,4.49-2.31,5.49,5.49,0,0,1,4.16,1.75,5.68,5.68,0,0,1,1.12,4v9Z"/><path class="cls-1" d="M566.07,47.63c-3.92,0-6.89-1.75-6.89-6V32.88h4V41c0,1.95.83,3.27,2.9,3.27S569,42.91,569,41V32.88h4v8.74C573,45.88,570,47.63,566.07,47.63Z"/><path class="cls-1" d="M581.38,47.63a7.59,7.59,0,0,1-5.44-2.38l2.11-2.44a4.62,4.62,0,0,0,3.37,1.68,1.68,1.68,0,0,0,1.81-1.58c0-2.44-6.37-1.22-6.37-6,0-2.9,2.41-4.52,5.12-4.52a7.32,7.32,0,0,1,4.65,1.52l-2,2.34a4,4,0,0,0-2.37-1c-.7,0-1.52.43-1.52,1.22,0,2.08,6.6,1.16,6.6,6C587.36,45.85,584.45,47.63,581.38,47.63Z"/><path class="cls-1" d="M323.46,85.17h-7.39v-22h5.44c1.79,0,4,.17,5.38,1.32a5.9,5.9,0,0,1,2,4.53,4.63,4.63,0,0,1-2.41,4.42,5.07,5.07,0,0,1,2.87,1.38,6,6,0,0,1,1.58,4.13C330.92,83.32,327.42,85.17,323.46,85.17Zm-1.85-18.52h-1.25v5.68h1.22c1.92,0,3.33-.76,3.33-2.84S323.53,66.65,321.61,66.65Zm.73,8.95h-2v6.1h1.85c2.11,0,4.29-.49,4.29-3.07S324.39,75.6,322.34,75.6Z"/><path class="cls-1" d="M337.58,78.67c.07,2.21,1.13,3.82,3.5,3.82a3.73,3.73,0,0,0,3.4-1.91l3.7.59c-1.26,3.07-3.8,4.46-7,4.46-4.62,0-7.66-3-7.66-7.63s2.91-7.59,7.49-7.59,7.3,3.17,7.3,7.73v.53Zm3.47-5.42a3.25,3.25,0,0,0-3.33,2.87h6.76A3.31,3.31,0,0,0,341.05,73.25Z"/><path class="cls-1" d="M355.9,85.63a7.59,7.59,0,0,1-5.45-2.38l2.12-2.44a4.62,4.62,0,0,0,3.36,1.68,1.68,1.68,0,0,0,1.82-1.58c0-2.44-6.37-1.22-6.37-6,0-2.9,2.41-4.52,5.11-4.52a7.36,7.36,0,0,1,4.66,1.52l-2,2.34a4,4,0,0,0-2.38-1c-.69,0-1.52.43-1.52,1.22,0,2.08,6.6,1.16,6.6,6C361.87,83.85,359,85.63,355.9,85.63Z"/><path class="cls-1" d="M372.14,85.63c-4.56,0-8.19-2.84-8.19-7.59s3.63-7.63,8.22-7.63,8.12,2.88,8.12,7.59S376.66,85.63,372.14,85.63ZM368.67,68.2a2.38,2.38,0,1,1,0-4.75,2.38,2.38,0,1,1,0,4.75ZM372.1,74a4,4,0,1,0,4.06,4A4,4,0,0,0,372.1,74Zm3.44-5.81a2.41,2.41,0,0,1-2.38-2.37,2.38,2.38,0,1,1,2.38,2.37Z"/><path class="cls-1" d="M393.16,85.17,387.78,79l-.43.43v5.71h-4V60.45h4V76.09l5.35-5.21h5.41l-6.7,6.27,7.23,8Z"/><path class="cls-1" d="M429.69,85.17,427.74,71.6l-6.07,13.86h-1.19L414.64,71.6l-2.21,13.57H408.1l4.1-22.41h2.93l6,14.39,6.27-14.39h2.94L434,85.17Z"/><path class="cls-1" d="M448.56,85.66a11.42,11.42,0,0,1-11.75-11.45,11.77,11.77,0,1,1,11.75,11.45Zm0-19.07a7.59,7.59,0,1,0,7.36,7.55A7.46,7.46,0,0,0,448.56,66.59Z"/><path class="cls-1" d="M472.49,85.73h-2.28l-9.37-22.58h4.69l5.87,14.79,5.94-14.79H482Z"/><path class="cls-1" d="M484.6,85.17v-22h12.18v3.73h-7.89v4.89h7.59V75.5h-7.59v5.94h7.89v3.73Z"/><path class="cls-1" d="M526,72.46h-3.33l-.47,3h3.37L525,79h-3.37l-1,6.14h-4.12l1-6.14h-3l-1,6.14h-4.09l1-6.14H507l.56-3.6h3.4l.46-3H508l.56-3.63H512l.89-5.68h4.09L516,68.83h3l.89-5.68h4.13l-.89,5.68h3.33Zm-10.49,0-.47,3h3l.46-3Z"/><path class="cls-1" d="M535.16,85.73c-4.1,0-7.7-2.64-7.93-6.9h4.33A3.38,3.38,0,0,0,535.19,82a3.5,3.5,0,0,0,.1-7,5.16,5.16,0,0,0-.79.07V71.93a2.88,2.88,0,0,0,.59,0,3,3,0,0,0,.1-6c-1.88,0-2.77,1.16-3,2.91h-4c.62-4.16,3.16-6.31,7.36-6.31,3.66,0,6.7,2.18,6.7,6.08a4.91,4.91,0,0,1-2.55,4.68A5.43,5.43,0,0,1,543,78.76C543,83.25,539.35,85.73,535.16,85.73Z"/><path class="cls-1" d="M554.49,85.73c-6.07,0-8.51-6.4-8.51-11.55s2.41-11.59,8.51-11.59S563,69,563,74.14,560.6,85.73,554.49,85.73Zm0-19.34c-3.36,0-4.22,5.21-4.22,7.75s.86,7.83,4.22,7.83,4.23-5.29,4.23-7.83S557.86,66.39,554.49,66.39Z"/><path class="cls-1" d="M569,85.79l-3.44-2,10.07-16.83h-10.2V63.15h17Z"/></svg>