<svg id="Layer_1" data-name="Layer 1" xmlns="http://www.w3.org/2000/svg" viewBox="0 0 740 160"><defs><style>.cls-1{fill:#d80201;}</style></defs><title>text</title><path class="cls-1" d="M370.25,110.34v10.28h-1.48v-13.9l10.38,10.9V107.28h1.5v13.94Z"/><path class="cls-1" d="M385.27,125.3h-1.6l2.68-5.46-3.82-7.52h1.64l2.94,5.94,2.68-5.94h1.62Z"/><path class="cls-1" d="M397.25,120.86a3.58,3.58,0,0,1-2.9-1.4v5.84h-1.42v-13h1.42v1.16a3.59,3.59,0,0,1,2.88-1.36,4.11,4.11,0,0,1,4,4.4A4.06,4.06,0,0,1,397.25,120.86ZM397,113.4a2.86,2.86,0,0,0-2.76,3.12,2.76,2.76,0,1,0,5.5,0A2.86,2.86,0,0,0,397,113.4Z"/><path class="cls-1" d="M407.31,113.76a1.26,1.26,0,0,0-.84-.28,1.54,1.54,0,0,0-.72.18c-.92.5-.92,1.68-.92,2.58v4.38h-1.42v-8.3h1.42v.9a2.22,2.22,0,0,1,1.88-1.1,2.36,2.36,0,0,1,1.28.34Z"/><path class="cls-1" d="M412.87,120.86a4.37,4.37,0,1,1,4.38-4.36A4.34,4.34,0,0,1,412.87,120.86Zm0-7.44a3.07,3.07,0,1,0,2.94,3.08A2.91,2.91,0,0,0,412.85,113.42Z"/><path class="cls-1" d="M425.77,120.62v-1.16a3.54,3.54,0,0,1-2.88,1.4,4.11,4.11,0,0,1-4-4.4,4.06,4.06,0,0,1,4-4.34,3.56,3.56,0,0,1,2.9,1.38V106h1.42v14.58Zm-2.68-7.2a3.09,3.09,0,1,0,2.76,3A2.78,2.78,0,0,0,423.09,113.42Z"/><path class="cls-1" d="M435.75,119.82a3.62,3.62,0,0,1-5.08,0,3.4,3.4,0,0,1-.76-2.5v-5h1.42v4.84a3.18,3.18,0,0,0,.26,1.56,2,2,0,0,0,3.22,0,3.22,3.22,0,0,0,.26-1.56v-4.84h1.42v5A3.39,3.39,0,0,1,435.75,119.82Z"/><path class="cls-1" d="M444.35,120.62,441,116.84l-.36.36v3.42h-1.42V106h1.42v9.34l3-3.06h1.9L442,115.84l4.22,4.78Z"/><path class="cls-1" d="M449.07,113.64v7h-1.44v-7h-.86v-1.32h.86v-3h1.44v3h1.46v1.32Z"/><path class="cls-1" d="M452.63,110.2a1,1,0,1,1,1-1A1,1,0,0,1,452.63,110.2Zm-.72,10.42v-8.3h1.42v8.3Z"/><path class="cls-1" d="M459.93,120.86a4.37,4.37,0,1,1,4.38-4.36A4.34,4.34,0,0,1,459.93,120.86Zm0-7.44a3.07,3.07,0,1,0,2.94,3.08A2.91,2.91,0,0,0,459.91,113.42Z"/><path class="cls-1" d="M471.71,120.62v-4.9c0-1.3-.18-2.32-1.74-2.32-1.84,0-2.06,1.6-2.06,3.06v4.16h-1.42v-8.3h1.42v1a3,3,0,0,1,4.76-.06,3.8,3.8,0,0,1,.48,2.2v5.16Z"/><path class="cls-1" d="M485.19,120.86a3.58,3.58,0,0,1-2.9-1.4v5.84h-1.42v-13h1.42v1.16a3.59,3.59,0,0,1,2.88-1.36,4.11,4.11,0,0,1,4,4.4A4.06,4.06,0,0,1,485.19,120.86ZM485,113.4a2.86,2.86,0,0,0-2.76,3.12,2.76,2.76,0,1,0,5.5,0A2.86,2.86,0,0,0,485,113.4Z"/><path class="cls-1" d="M497.69,120.62v-1.16a3.54,3.54,0,0,1-2.88,1.4c-2.48,0-4-2.08-4-4.42a4,4,0,0,1,4-4.32,3.51,3.51,0,0,1,2.9,1.38v-1.18h1.42v8.3ZM495,113.4a2.83,2.83,0,0,0-2.74,3,2.86,2.86,0,0,0,2.74,3.12,2.83,2.83,0,0,0,2.76-3.12A2.8,2.8,0,0,0,495,113.4Zm0-2.72a1.72,1.72,0,1,1,1.72-1.72A1.71,1.71,0,0,1,495,110.68Zm0-2.56a.84.84,0,1,0,.84.84A.85.85,0,0,0,495,108.12Z"/><path class="cls-1" d="M508.27,113.64v7h-1.44v-7H506v-1.32h.86v-3h1.44v3h1.46v1.32Z"/><path class="cls-1" d="M514,121.16l-4.08-8.84h1.6L514,117.9l2.46-5.58h1.6Z"/><path class="cls-1" d="M525.91,120.62v-1.16a3.54,3.54,0,0,1-2.88,1.4c-2.48,0-4-2.08-4-4.42a4,4,0,0,1,4-4.32,3.51,3.51,0,0,1,2.9,1.38v-1.18h1.42v8.3Zm-2.68-7.22a2.83,2.83,0,0,0-2.74,3,2.86,2.86,0,0,0,2.74,3.12,2.83,2.83,0,0,0,2.76-3.12A2.8,2.8,0,0,0,523.23,113.4Zm0-2.72a1.72,1.72,0,1,1,1.72-1.72A1.71,1.71,0,0,1,523.19,110.68Zm0-2.56a.84.84,0,1,0,.84.84A.85.85,0,0,0,523.19,108.12Z"/><path class="cls-1" d="M326.79,134.64v7h-1.44v-7h-.86v-1.32h.86v-3h1.44v3h1.46v1.32Z"/><path class="cls-1" d="M333.49,141.86a4.37,4.37,0,1,1,4.38-4.36A4.34,4.34,0,0,1,333.49,141.86Zm0-7.44a3.07,3.07,0,1,0,2.94,3.08A2.91,2.91,0,0,0,333.47,134.42Z"/><path class="cls-1" d="M349.51,141.62v-5c0-1.06-.18-2.18-1.5-2.18-1.5,0-1.78,1.4-1.78,2.6v4.62h-1.42V136.7c0-1-.22-2.3-1.52-2.3a1.72,1.72,0,0,0-1.5.9,4,4,0,0,0-.32,1.8v4.52h-1.42v-8.3h1.42v.88a2.37,2.37,0,0,1,2.06-1.08,2.53,2.53,0,0,1,2.28,1.34,2.83,2.83,0,0,1,4.66-.22,3.88,3.88,0,0,1,.46,2.12v5.26Z"/><path class="cls-1" d="M355.09,134.64v7h-1.44v-7h-.86v-1.32h.86v-3h1.44v3h1.46v1.32Z"/><path class="cls-1" d="M358.89,137.76a2.69,2.69,0,0,0,2.64,2.8,2.86,2.86,0,0,0,2.56-1.72l1.2.66a4.14,4.14,0,0,1-3.8,2.36,4,4,0,0,1-4.1-4.34c0-2.4,1.5-4.4,4-4.4s4,2,4,4.36v.28Zm2.56-3.34a2.55,2.55,0,0,0-2.46,2.14h4.88A2.49,2.49,0,0,0,361.45,134.42Z"/><path class="cls-1" d="M371.45,134.76a1.26,1.26,0,0,0-.84-.28,1.54,1.54,0,0,0-.72.18c-.92.5-.92,1.68-.92,2.58v4.38h-1.42v-8.3H369v.9a2.22,2.22,0,0,1,1.88-1.1,2.36,2.36,0,0,1,1.28.34Z"/><path class="cls-1" d="M387.91,141.62v-5c0-1.06-.18-2.18-1.5-2.18-1.5,0-1.78,1.4-1.78,2.6v4.62h-1.42V136.7c0-1-.22-2.3-1.52-2.3a1.72,1.72,0,0,0-1.5.9,4,4,0,0,0-.32,1.8v4.52h-1.42v-8.3h1.42v.88a2.37,2.37,0,0,1,2.06-1.08,2.53,2.53,0,0,1,2.28,1.34,2.83,2.83,0,0,1,4.66-.22,3.88,3.88,0,0,1,.46,2.12v5.26Z"/><path class="cls-1" d="M393,137.76a2.69,2.69,0,0,0,2.64,2.8,2.86,2.86,0,0,0,2.56-1.72l1.2.66a4.14,4.14,0,0,1-3.8,2.36,4,4,0,0,1-4.1-4.34c0-2.4,1.5-4.4,4-4.4s4,2,4,4.36v.28Zm2.56-3.34a2.55,2.55,0,0,0-2.46,2.14H398A2.49,2.49,0,0,0,395.57,134.42Z"/><path class="cls-1" d="M408,141.62v-1.16a3.54,3.54,0,0,1-2.88,1.4,4.11,4.11,0,0,1-4-4.4,4.06,4.06,0,0,1,4-4.34,3.56,3.56,0,0,1,2.9,1.38V127h1.42v14.58Zm-2.68-7.2a3.09,3.09,0,1,0,2.76,3A2.78,2.78,0,0,0,405.33,134.42Z"/><path class="cls-1" d="M423,140.82a3.62,3.62,0,0,1-5.08,0,3.4,3.4,0,0,1-.76-2.5v-5h1.42v4.84a3.18,3.18,0,0,0,.26,1.56,2,2,0,0,0,3.22,0,3.22,3.22,0,0,0,.26-1.56v-4.84h1.42v5A3.39,3.39,0,0,1,423,140.82Z"/><path class="cls-1" d="M427.89,134.64v7h-1.44v-7h-.86v-1.32h.86v-3h1.44v3h1.46v1.32Z"/><path class="cls-1" d="M433.61,142.16l-4.08-8.84h1.6l2.48,5.58,2.46-5.58h1.6Z"/><path class="cls-1" d="M445.25,141.62v-1.16a3.54,3.54,0,0,1-2.88,1.4c-2.48,0-4-2.08-4-4.42a4,4,0,0,1,4-4.32,3.51,3.51,0,0,1,2.9,1.38v-1.18h1.42v8.3Zm-2.68-7.22a2.83,2.83,0,0,0-2.74,3,2.86,2.86,0,0,0,2.74,3.12,2.83,2.83,0,0,0,2.76-3.12A2.8,2.8,0,0,0,442.57,134.4Z"/><path class="cls-1" d="M449.39,141.62V127h1.42v14.58Z"/><path class="cls-1" d="M459.87,141.62v-1.16a3.54,3.54,0,0,1-2.88,1.4,4.11,4.11,0,0,1-4-4.4,4.06,4.06,0,0,1,4-4.34,3.56,3.56,0,0,1,2.9,1.38V127h1.42v14.58Zm-2.68-7.2a3.09,3.09,0,1,0,2.76,3A2.78,2.78,0,0,0,457.19,134.42Z"/><path class="cls-1" d="M470.35,141.62v-1.16a3.54,3.54,0,0,1-2.88,1.4c-2.48,0-4-2.08-4-4.42a4,4,0,0,1,4-4.32,3.51,3.51,0,0,1,2.9,1.38v-1.18h1.42v8.3Zm-2.68-7.22a2.83,2.83,0,0,0-2.74,3,2.86,2.86,0,0,0,2.74,3.12,2.83,2.83,0,0,0,2.76-3.12A2.8,2.8,0,0,0,467.67,134.4Z"/><path class="cls-1" d="M484.73,141.62v-5c0-1.24-.3-2.16-1.72-2.16-1.86,0-2.1,1.56-2.1,3.06v4.14h-1.42V127h1.42v7.24a2.94,2.94,0,0,1,2.38-1.16,2.89,2.89,0,0,1,2.38,1.14,3.9,3.9,0,0,1,.48,2.22v5.14Z"/><path class="cls-1" d="M494.71,140.82a3.62,3.62,0,0,1-5.08,0,3.4,3.4,0,0,1-.76-2.5v-5h1.42v4.84a3.18,3.18,0,0,0,.26,1.56,2,2,0,0,0,3.22,0,3.22,3.22,0,0,0,.26-1.56v-4.84h1.42v5A3.39,3.39,0,0,1,494.71,140.82Z"/><path class="cls-1" d="M500.41,141.86a3,3,0,0,1-2.9-2.12l1.24-.52c.34.74.8,1.34,1.68,1.34a1.29,1.29,0,0,0,1.36-1.3c0-1.8-3.74-1.24-3.74-3.82a2.33,2.33,0,0,1,2.42-2.32,2.49,2.49,0,0,1,2.28,1.5l-1.18.62a1.33,1.33,0,0,0-1.16-.82,1,1,0,0,0-1,.92c0,1.46,3.84,1.08,3.84,3.8A2.73,2.73,0,0,1,500.41,141.86Z"/><path class="cls-1" d="M514.63,141.62v-5c0-1.06-.18-2.18-1.5-2.18-1.5,0-1.78,1.4-1.78,2.6v4.62h-1.42V136.7c0-1-.22-2.3-1.52-2.3a1.72,1.72,0,0,0-1.5.9,4,4,0,0,0-.32,1.8v4.52h-1.42v-8.3h1.42v.88a2.37,2.37,0,0,1,2.06-1.08,2.53,2.53,0,0,1,2.28,1.34,2.83,2.83,0,0,1,4.66-.22,3.88,3.88,0,0,1,.46,2.12v5.26Z"/><path class="cls-1" d="M522.63,141.86A4.37,4.37,0,1,1,527,137.5,4.34,4.34,0,0,1,522.63,141.86Zm0-7.44a3.07,3.07,0,1,0,2.94,3.08A2.91,2.91,0,0,0,522.61,134.42Z"/><path class="cls-1" d="M535.53,141.62v-1.16a3.54,3.54,0,0,1-2.88,1.4,4.11,4.11,0,0,1-4-4.4,4.06,4.06,0,0,1,4-4.34,3.56,3.56,0,0,1,2.9,1.38V127H537v14.58Zm-2.68-7.2a3.09,3.09,0,1,0,2.76,3A2.78,2.78,0,0,0,532.85,134.42Z"/><path class="cls-1" d="M540.63,137.76a2.69,2.69,0,0,0,2.64,2.8,2.86,2.86,0,0,0,2.56-1.72l1.2.66a4.14,4.14,0,0,1-3.8,2.36,4,4,0,0,1-4.1-4.34c0-2.4,1.5-4.4,4-4.4s4,2,4,4.36v.28Zm2.56-3.34a2.55,2.55,0,0,0-2.46,2.14h4.88A2.49,2.49,0,0,0,543.19,134.42Z"/><path class="cls-1" d="M549.29,141.62V127h1.42v14.58Z"/><path class="cls-1" d="M553.43,141.62V127h1.42v14.58Z"/><path class="cls-1" d="M558.53,137.76a2.69,2.69,0,0,0,2.64,2.8,2.86,2.86,0,0,0,2.56-1.72l1.2.66a4.14,4.14,0,0,1-3.8,2.36,4,4,0,0,1-4.1-4.34c0-2.4,1.5-4.4,4-4.4s4,2,4,4.36v.28Zm2.56-3.34a2.55,2.55,0,0,0-2.46,2.14h4.88A2.49,2.49,0,0,0,561.09,134.42Z"/><path class="cls-1" d="M571.09,134.76a1.26,1.26,0,0,0-.84-.28,1.54,1.54,0,0,0-.72.18c-.92.5-.92,1.68-.92,2.58v4.38h-1.42v-8.3h1.42v.9a2.22,2.22,0,0,1,1.88-1.1,2.36,2.36,0,0,1,1.28.34Z"/></svg>