<svg id="Layer_1" data-name="Layer 1" xmlns="http://www.w3.org/2000/svg" viewBox="0 0 740 160"><defs><style>.cls-1{fill:#d80201;}</style></defs><title>text</title><path class="cls-1" d="M405.72,47.17l-2-13.57L397.7,47.46h-1.19L390.67,33.6l-2.21,13.57h-4.33l4.09-22.41h2.94l6,14.39,6.27-14.39h2.94L410,47.17Z"/><path class="cls-1" d="M420.76,47.63c-4.55,0-8.18-2.84-8.18-7.59s3.63-7.63,8.22-7.63,8.12,2.88,8.12,7.59S425.28,47.63,420.76,47.63ZM417.3,30.2a2.38,2.38,0,1,1,0-4.75,2.38,2.38,0,0,1,0,4.75ZM420.73,36a4,4,0,1,0,4.06,4A4.05,4.05,0,0,0,420.73,36Zm3.43-5.81a2.41,2.41,0,0,1-2.37-2.37,2.38,2.38,0,1,1,2.37,2.37Z"/><path class="cls-1" d="M440.66,47.63A5.64,5.64,0,0,1,436,45.29v1.88h-4V22.45h4V34.69a6.09,6.09,0,0,1,4.79-2.28c4.19,0,7,3.57,7,7.56S445,47.63,440.66,47.63ZM439.57,36a4,4,0,1,0,4,4A4,4,0,0,0,439.57,36Z"/><path class="cls-1" d="M450.76,47.17V22.45h4V47.17Z"/><path class="cls-1" d="M461.91,40.67c.07,2.21,1.12,3.82,3.5,3.82a3.74,3.74,0,0,0,3.4-1.91l3.7.59c-1.26,3.07-3.8,4.46-7,4.46-4.62,0-7.66-3-7.66-7.63s2.9-7.59,7.49-7.59,7.3,3.17,7.3,7.73v.53Zm3.47-5.42A3.24,3.24,0,0,0,462,38.12h6.77A3.31,3.31,0,0,0,465.38,35.25Z"/><path class="cls-1" d="M485,36.51a3.46,3.46,0,0,0-1.91-.5c-2.71,0-3.43,1.92-3.43,4.29v6.87h-4V32.88h4V35a4.65,4.65,0,0,1,5.9-2.28Z"/><path class="cls-1" d="M498.48,47.17V45.29a5.54,5.54,0,0,1-4.66,2.34c-4.29,0-7-3.57-7-7.66s2.74-7.56,6.93-7.56a6,6,0,0,1,4.76,2.28V32.88h4V47.17ZM494.91,36a4,4,0,1,0,4,4A4,4,0,0,0,494.91,36Z"/><path class="cls-1" d="M510.35,36.31V47.17h-4V36.31h-1.58V32.88h1.58V28h4v4.89h2.81v3.43Z"/><path class="cls-1" d="M376.64,85.46h-1.85L367.5,70.88H372l3.76,8.05,3.76-8.05H384Z"/><path class="cls-1" d="M387.89,67.25a2.41,2.41,0,1,1,0-4.82,2.41,2.41,0,0,1,0,4.82Zm-2,17.92V70.88h4V85.17Z"/><path class="cls-1" d="M398.19,85.63a7.59,7.59,0,0,1-5.45-2.38l2.12-2.44a4.62,4.62,0,0,0,3.36,1.68A1.68,1.68,0,0,0,400,80.91c0-2.44-6.37-1.22-6.37-6,0-2.9,2.41-4.52,5.11-4.52a7.36,7.36,0,0,1,4.66,1.52l-2,2.34a4,4,0,0,0-2.38-1c-.69,0-1.52.43-1.52,1.22,0,2.08,6.6,1.16,6.6,6C404.16,83.85,401.26,85.63,398.19,85.63Z"/><path class="cls-1" d="M416.77,85.17V77.25c0-2-.43-3.44-2.71-3.44-2.47,0-3.07,1.82-3.07,4v7.4h-4V70.88h4v1.75a5.29,5.29,0,0,1,4.49-2.22,4.94,4.94,0,0,1,5.28,5.68v9.08Z"/><path class="cls-1" d="M426.54,67.25a2.41,2.41,0,0,1,0-4.82,2.41,2.41,0,0,1,0,4.82Zm-2,17.92V70.88h4V85.17Z"/><path class="cls-1" d="M442.05,85.17V77.25c0-2-.43-3.44-2.71-3.44-2.48,0-3.07,1.82-3.07,4v7.4h-4V70.88h4v1.75a5.28,5.28,0,0,1,4.49-2.22A4.94,4.94,0,0,1,446,76.09v9.08Z"/><path class="cls-1" d="M463.13,90.35a7.78,7.78,0,0,1-6.07,2.51c-3.66,0-7.19-2.11-7.59-6h4.32a3.19,3.19,0,0,0,3.4,2.61c2.51,0,3.53-1.75,3.53-4.06V83.25a5.94,5.94,0,0,1-4.81,2.38c-4.23,0-6.8-3.4-6.8-7.43s2.64-7.79,7-7.79a5.35,5.35,0,0,1,4.62,2.31V70.88h4V84.64C464.75,86.88,464.65,88.57,463.13,90.35ZM457.23,74a4,4,0,1,0,4,4A4,4,0,0,0,457.23,74Z"/><path class="cls-1" d="M473.13,85.63a7.59,7.59,0,0,1-5.45-2.38l2.12-2.44a4.62,4.62,0,0,0,3.36,1.68A1.68,1.68,0,0,0,475,80.91c0-2.44-6.37-1.22-6.37-6,0-2.9,2.41-4.52,5.11-4.52a7.35,7.35,0,0,1,4.66,1.52l-2,2.34a4,4,0,0,0-2.38-1c-.69,0-1.52.43-1.52,1.22,0,2.08,6.6,1.16,6.6,6C479.1,83.85,476.2,85.63,473.13,85.63Z"/><path class="cls-1" d="M491.71,85.17V77.34c0-2-.43-3.53-2.74-3.53-2.47,0-3,1.92-3,4v7.33h-4V60.45h4V72.72a5.22,5.22,0,0,1,4.49-2.31,5.49,5.49,0,0,1,4.16,1.75,5.65,5.65,0,0,1,1.12,4v9Z"/><path class="cls-1" d="M506.43,85.63c-3.93,0-6.9-1.75-6.9-6V70.88h4V79c0,2,.83,3.27,2.91,3.27s2.9-1.32,2.9-3.27V70.88h4v8.74C513.36,83.88,510.36,85.63,506.43,85.63Z"/><path class="cls-1" d="M521.74,85.63a7.59,7.59,0,0,1-5.45-2.38l2.12-2.44a4.62,4.62,0,0,0,3.36,1.68,1.68,1.68,0,0,0,1.82-1.58c0-2.44-6.37-1.22-6.37-6,0-2.9,2.41-4.52,5.11-4.52A7.36,7.36,0,0,1,527,71.87l-2,2.34a4,4,0,0,0-2.38-1c-.69,0-1.52.43-1.52,1.22,0,2.08,6.6,1.16,6.6,6C527.71,83.85,524.81,85.63,521.74,85.63Z"/></svg>