<svg id="Layer_1" data-name="Layer 1" xmlns="http://www.w3.org/2000/svg" viewBox="0 0 740 160"><defs><style>.cls-1{fill:#d4ac76;}</style></defs><title>text</title><path class="cls-1" d="M345,35.66h-6.58v4.55h7.22v3H335.09V25.4h10.35v3h-7v4.32H345Z"/><path class="cls-1" d="M351.06,43.18V25.4h5.07a8.71,8.71,0,0,1,6.29,2.54A8.55,8.55,0,0,1,365,34.35a8.32,8.32,0,0,1-2.65,6.35,9.08,9.08,0,0,1-6.44,2.48Zm5.11-14.81h-2V40.21h2.05a5.12,5.12,0,0,0,3.93-1.72,6,6,0,0,0,1.58-4.24,5.86,5.86,0,0,0-1.6-4.2A5.21,5.21,0,0,0,356.17,28.37Z"/><path class="cls-1" d="M374.82,43.41a8.55,8.55,0,0,1-3.35-.7,8.77,8.77,0,0,1-2.88-1.94l2.12-2.53a6.47,6.47,0,0,0,2,1.59,5,5,0,0,0,2.34.62,2.87,2.87,0,0,0,1.9-.61,1.91,1.91,0,0,0,.74-1.53,2.64,2.64,0,0,0-2-2.47l-2-.79a7.63,7.63,0,0,1-3-2,4.53,4.53,0,0,1-1-3,4.62,4.62,0,0,1,1.51-3.38,5.16,5.16,0,0,1,3.77-1.48,7.65,7.65,0,0,1,5.47,2l-2,2.48a4.58,4.58,0,0,0-3.51-1.54,2.38,2.38,0,0,0-1.59.51,1.58,1.58,0,0,0-.6,1.25,1.66,1.66,0,0,0,.47,1.22,4.69,4.69,0,0,0,1.53.92l2.07.83q4,1.58,4,5.13a5,5,0,0,1-1.67,3.89A6.48,6.48,0,0,1,374.82,43.41Z"/><path class="cls-1" d="M397.31,35.75v-3h6.37l0,1.52a9.11,9.11,0,0,1-1.3,4.71A9,9,0,0,1,399,42.29a9.18,9.18,0,0,1-4.53,1.16,9.2,9.2,0,0,1-9.25-9.21A9.22,9.22,0,0,1,394.5,25a8.77,8.77,0,0,1,6.62,2.87l-2.28,2.25a5.76,5.76,0,0,0-4.37-1.92,5.66,5.66,0,0,0-4.25,1.74,6.29,6.29,0,0,0,0,8.57,5.43,5.43,0,0,0,4,1.74,6.31,6.31,0,0,0,4-1.23,5.63,5.63,0,0,0,2.09-3.27Z"/><path class="cls-1" d="M406.12,43.18,413,25.4h3l6.83,17.78h-3.43l-.94-2.46h-8l-.95,2.46Zm8.36-12.8-2.84,7.38h5.67Z"/><path class="cls-1" d="M423.5,28.6V25.4h14.65v3.2H432.5V43.18h-3.33V28.6Z"/><path class="cls-1" d="M438.78,43.18l6.85-17.78h3l6.83,17.78H452l-.94-2.46h-8l-.95,2.46Zm8.36-12.8-2.84,7.38H450Z"/><path class="cls-1" d="M459.64,43.18V25.4H462l8.75,11.18V25.4h3.33V43.18h-2.23L463,31.86V43.18Z"/><path class="cls-1" d="M489.56,43.18V25.4h2.34l8.75,11.18V25.4H504V43.18h-2.23L492.9,31.86V43.18Z"/><path class="cls-1" d="M508.38,43.18l6.85-17.78h3l6.83,17.78h-3.43l-.94-2.46h-8l-.95,2.46Zm6.82-19.61a1.43,1.43,0,0,1-1.09.47,1.47,1.47,0,0,1-1.1-.47,1.59,1.59,0,0,1,1.1-2.73,1.46,1.46,0,0,1,1.08.46,1.54,1.54,0,0,1,.45,1.13A1.6,1.6,0,0,1,515.2,23.57Zm1.54,6.8-2.84,7.38h5.67Zm3.75-6.8a1.71,1.71,0,0,1-2.36,0,1.53,1.53,0,0,1-.49-1.14,1.49,1.49,0,0,1,.49-1.13,1.74,1.74,0,0,1,2.36,0,1.49,1.49,0,0,1,.49,1.13A1.52,1.52,0,0,1,520.49,23.57Z"/><path class="cls-1" d="M529.24,43.18V25.4h7A6,6,0,0,1,540.47,27a5.54,5.54,0,0,1,1.71,4.22,5.34,5.34,0,0,1-1.27,3.6,5.72,5.72,0,0,1-3.32,1.89l4.78,6.45h-3.75L534,36.83h-1.44v6.35Zm6.44-14.81h-3.11v5.79h3.11a3.29,3.29,0,0,0,2.31-.79,2.65,2.65,0,0,0,.86-2.05,2.8,2.8,0,0,0-.89-2.11A3.18,3.18,0,0,0,535.68,28.37Z"/><path class="cls-1" d="M545.4,43.18l6.85-17.78h3l6.83,17.78h-3.43l-.94-2.46h-8l-.95,2.46Zm8.36-12.8-2.84,7.38h5.67Z"/><path class="cls-1" d="M308.48,70.78V53h3.08v7.84L318.37,53h4.12l-6.27,7.09,6.41,10.69h-3.84l-4.84-8.12-2.38,2.69v5.43Z"/><path class="cls-1" d="M325.87,70.78,332.73,53h3l6.83,17.78h-3.43l-.94-2.46h-8l-.95,2.46ZM334.23,58l-2.84,7.38h5.67Z"/><path class="cls-1" d="M346.73,70.78V53h7A6,6,0,0,1,358,54.61a5.53,5.53,0,0,1,1.71,4.22,5.34,5.34,0,0,1-1.27,3.6,5.72,5.72,0,0,1-3.32,1.89l4.78,6.45h-3.75l-4.61-6.35h-1.44v6.35ZM353.17,56h-3.1v5.8h3.1a3.29,3.29,0,0,0,2.31-.79,2.65,2.65,0,0,0,.86-2.05,2.8,2.8,0,0,0-.89-2.11A3.17,3.17,0,0,0,353.17,56Z"/><path class="cls-1" d="M364.88,70.78V53h3.33V67.58h6.53v3.2Z"/><path class="cls-1" d="M384.34,71a8.55,8.55,0,0,1-3.35-.7,8.77,8.77,0,0,1-2.88-1.94l2.12-2.53a6.44,6.44,0,0,0,2,1.59,5,5,0,0,0,2.34.62,2.88,2.88,0,0,0,1.9-.61,1.91,1.91,0,0,0,.74-1.53,2.64,2.64,0,0,0-2-2.47l-2-.79a7.61,7.61,0,0,1-3-2,4.53,4.53,0,0,1-1-3,4.62,4.62,0,0,1,1.51-3.38,5.16,5.16,0,0,1,3.77-1.48,7.66,7.66,0,0,1,5.47,2l-2,2.48a4.58,4.58,0,0,0-3.51-1.54,2.38,2.38,0,0,0-1.59.51,1.58,1.58,0,0,0-.6,1.25,1.66,1.66,0,0,0,.47,1.22,4.71,4.71,0,0,0,1.53.92l2.07.83q4,1.58,4,5.13a5,5,0,0,1-1.67,3.89A6.48,6.48,0,0,1,384.34,71Z"/><path class="cls-1" d="M393.81,56.2V53h14.65v3.2H402.8V70.78h-3.33V56.2Z"/><path class="cls-1" d="M409.08,70.78,415.94,53h3l6.83,17.78h-3.43l-.94-2.46h-8l-.95,2.46ZM417.45,58l-2.84,7.38h5.67Z"/><path class="cls-1" d="M429.94,70.78V53H435a8.71,8.71,0,0,1,6.29,2.54,8.56,8.56,0,0,1,2.62,6.41,8.31,8.31,0,0,1-2.65,6.35,9.08,9.08,0,0,1-6.44,2.48ZM435.06,56h-2V67.81h2.05A5.12,5.12,0,0,0,439,66.09a6,6,0,0,0,1.58-4.24,5.86,5.86,0,0,0-1.6-4.2A5.21,5.21,0,0,0,435.06,56Z"/><path class="cls-1" d="M473.55,68.27A8.87,8.87,0,0,1,467,71.08a9,9,0,0,1-6.57-2.69,9.2,9.2,0,0,1,0-13,9.26,9.26,0,0,1,13.12.07l-2.35,2.28a5.56,5.56,0,0,0-4.22-1.84,5.64,5.64,0,0,0-4.21,1.76,6.14,6.14,0,0,0,0,8.51,5.87,5.87,0,0,0,8.48-.1Z"/><path class="cls-1" d="M488.29,63.26h-6.58v4.55h7.22v3H478.38V53h10.35v3h-7v4.32h6.58Z"/><path class="cls-1" d="M494.34,70.78V53h2.34l8.75,11.18V53h3.33V70.78h-2.23l-8.86-11.32V70.78Z"/><path class="cls-1" d="M513.07,56.2V53h14.65v3.2h-5.66V70.78h-3.33V56.2Z"/><path class="cls-1" d="M532,70.78V53h7a6,6,0,0,1,4.28,1.62,5.53,5.53,0,0,1,1.71,4.22,5.34,5.34,0,0,1-1.27,3.6,5.72,5.72,0,0,1-3.32,1.89l4.78,6.45h-3.75l-4.61-6.35h-1.44v6.35ZM538.41,56h-3.11v5.8h3.11a3.29,3.29,0,0,0,2.31-.79,2.65,2.65,0,0,0,.86-2.05,2.8,2.8,0,0,0-.89-2.11A3.18,3.18,0,0,0,538.41,56Z"/><path class="cls-1" d="M561.4,69.18a7.25,7.25,0,0,1-9.73,0,6.3,6.3,0,0,1-1.92-4.7V53h3.33V64a4.08,4.08,0,0,0,.92,2.74,3.54,3.54,0,0,0,5.07,0,4,4,0,0,0,.92-2.71V53h3.33V64.48A6.3,6.3,0,0,1,561.4,69.18Z"/><path class="cls-1" d="M569.28,70.78V53h3.22l5.5,8.76L583.56,53h3.5V70.78h-3.33V58.61l-.27,0-5.52,8.51-5.38-8.4h.05V70.78Z"/></svg>