<svg id="Layer_1" data-name="Layer 1" xmlns="http://www.w3.org/2000/svg" viewBox="0 0 740 160"><defs><style>.cls-1{fill:#d80201;}</style></defs><title>text</title><path class="cls-1" d="M339,47.17V37.36h-9.31v9.81h-4.29v-22h4.29v8.52H339V25.15h4.29v22Z"/><path class="cls-1" d="M358.6,47.17V45.29A5.52,5.52,0,0,1,354,47.63c-4.29,0-7-3.57-7-7.66s2.74-7.56,6.93-7.56a6,6,0,0,1,4.75,2.28V32.88h4V47.17Zm-6.9-17a2.38,2.38,0,0,1,0-4.75,2.38,2.38,0,1,1,0,4.75ZM355,36a4,4,0,1,0,4,4A4,4,0,0,0,355,36Zm3.53-5.81a2.41,2.41,0,0,1-2.38-2.37,2.38,2.38,0,1,1,2.38,2.37Z"/><path class="cls-1" d="M375.79,36.51a3.46,3.46,0,0,0-1.91-.5c-2.71,0-3.43,1.92-3.43,4.29v6.87h-4V32.88h4V35a4.65,4.65,0,0,1,5.9-2.28Z"/><path class="cls-1" d="M397.51,47.17V45.29a5.54,5.54,0,0,1-4.66,2.34c-4.29,0-7-3.57-7-7.66s2.74-7.56,6.93-7.56a6,6,0,0,1,4.76,2.28V32.88h4V47.17Zm-6.9-17a2.38,2.38,0,1,1,0-4.75,2.38,2.38,0,1,1,0,4.75ZM393.94,36a4,4,0,1,0,4,4A4,4,0,0,0,393.94,36Zm3.53-5.81a2.41,2.41,0,0,1-2.37-2.37,2.38,2.38,0,1,1,2.37,2.37Z"/><path class="cls-1" d="M414.7,36.51a3.48,3.48,0,0,0-1.91-.5c-2.71,0-3.44,1.92-3.44,4.29v6.87h-4V32.88h4V35a4.66,4.66,0,0,1,5.91-2.28Z"/><path class="cls-1" d="M436.41,47.17V45.29a5.52,5.52,0,0,1-4.65,2.34c-4.29,0-7-3.57-7-7.66s2.74-7.56,6.93-7.56a6,6,0,0,1,4.75,2.28V22.45h4V47.17ZM432.85,36a4,4,0,1,0,4,4A4,4,0,0,0,432.85,36Z"/><path class="cls-1" d="M453.61,36.51a3.5,3.5,0,0,0-1.92-.5c-2.71,0-3.43,1.92-3.43,4.29v6.87h-4V32.88h4V35a4.58,4.58,0,0,1,4.16-2.61,4.64,4.64,0,0,1,1.75.33Z"/><path class="cls-1" d="M463.57,47.63c-4.55,0-8.18-2.84-8.18-7.59s3.63-7.63,8.21-7.63,8.12,2.88,8.12,7.59S468.09,47.63,463.57,47.63ZM460.11,30.2a2.38,2.38,0,1,1,0-4.75,2.38,2.38,0,0,1,0,4.75ZM463.54,36a4,4,0,1,0,4.06,4A4.05,4.05,0,0,0,463.54,36ZM467,30.2a2.41,2.41,0,0,1-2.38-2.37A2.38,2.38,0,1,1,467,30.2Z"/><path class="cls-1" d="M493,47.17V39.34c0-1.68-.26-3.53-2.38-3.53-2.34,0-2.73,2.15-2.73,4v7.33h-4V39.58a6.32,6.32,0,0,0-.3-2.38,2.31,2.31,0,0,0-2.14-1.39,2.6,2.6,0,0,0-2.24,1.29,5.93,5.93,0,0,0-.47,2.74v7.33h-4V32.88h4v1.61a5.5,5.5,0,0,1,4.36-2.08A4.88,4.88,0,0,1,487.6,35a5.29,5.29,0,0,1,4.68-2.61,4.73,4.73,0,0,1,4,2.05,6.3,6.3,0,0,1,.75,3.47v9.24Z"/><path class="cls-1" d="M500.86,47.17V22.45h4V47.17Z"/><path class="cls-1" d="M519.6,47.17V45.29A5.51,5.51,0,0,1,515,47.63c-4.29,0-7-3.57-7-7.66s2.74-7.56,6.93-7.56a6,6,0,0,1,4.75,2.28V32.88h4V47.17Zm-6.89-17a2.38,2.38,0,1,1,0-4.75,2.38,2.38,0,0,1,0,4.75ZM516,36a4,4,0,1,0,4,4A4,4,0,0,0,516,36Zm3.53-5.81a2.4,2.4,0,0,1-2.37-2.37,2.38,2.38,0,1,1,2.37,2.37Z"/><path class="cls-1" d="M540.72,52.35a7.78,7.78,0,0,1-6.07,2.51c-3.66,0-7.19-2.12-7.59-6h4.32a3.19,3.19,0,0,0,3.4,2.61c2.51,0,3.54-1.75,3.54-4.06V45.25a6,6,0,0,1-4.82,2.38c-4.23,0-6.8-3.4-6.8-7.43s2.64-7.79,7-7.79a5.38,5.38,0,0,1,4.63,2.31V32.88h4V46.64C542.34,48.88,542.24,50.57,540.72,52.35ZM534.82,36a4,4,0,1,0,4,4A4,4,0,0,0,534.82,36Z"/><path class="cls-1" d="M549.5,40.67c.07,2.21,1.12,3.82,3.5,3.82a3.74,3.74,0,0,0,3.4-1.91l3.7.59c-1.26,3.07-3.8,4.46-7,4.46-4.63,0-7.66-3-7.66-7.63s2.9-7.59,7.49-7.59,7.29,3.17,7.29,7.73v.53ZM553,35.25a3.24,3.24,0,0,0-3.34,2.87h6.77A3.31,3.31,0,0,0,553,35.25Z"/><path class="cls-1" d="M567.29,36.31V47.17h-4V36.31h-1.58V32.88h1.58V28h4v4.89h2.8v3.43Z"/><path class="cls-1" d="M574.38,47.6A2.58,2.58,0,1,1,577,45,2.58,2.58,0,0,1,574.38,47.6Zm-2-6.74V25.15h4.09V40.86Z"/><path class="cls-1" d="M343.19,85.17H335.8v-22h5.44c1.78,0,4,.17,5.38,1.32a5.89,5.89,0,0,1,2,4.52,4.62,4.62,0,0,1-2.41,4.43,5,5,0,0,1,2.87,1.38,5.92,5.92,0,0,1,1.59,4.13C350.65,83.32,347.15,85.17,343.19,85.17Zm-1.85-18.52h-1.25v5.68h1.22c1.91,0,3.33-.76,3.33-2.84S343.26,66.65,341.34,66.65Zm.73,8.95h-2v6.1h1.85c2.11,0,4.29-.49,4.29-3.07S344.11,75.6,342.07,75.6Z"/><path class="cls-1" d="M358.14,92.82h-4.52l5.24-9.8L352.1,70.88h4.65L361,79l4.09-8.12h4.56Z"/><path class="cls-1" d="M384.9,90.35a7.79,7.79,0,0,1-6.07,2.51c-3.66,0-7.2-2.12-7.59-6h4.32a3.19,3.19,0,0,0,3.4,2.61c2.51,0,3.53-1.75,3.53-4.06V83.25a5.94,5.94,0,0,1-4.82,2.38c-4.22,0-6.8-3.4-6.8-7.43s2.64-7.79,7-7.79a5.35,5.35,0,0,1,4.62,2.31V70.88h4V84.64C386.52,86.88,386.42,88.57,384.9,90.35ZM379,74a4,4,0,1,0,4,4A4,4,0,0,0,379,74Z"/><path class="cls-1" d="M403.61,90.35a7.79,7.79,0,0,1-6.07,2.51c-3.66,0-7.2-2.12-7.59-6h4.32a3.19,3.19,0,0,0,3.4,2.61c2.51,0,3.53-1.75,3.53-4.06V83.25a5.94,5.94,0,0,1-4.82,2.38c-4.22,0-6.8-3.4-6.8-7.43s2.65-7.79,7-7.79a5.35,5.35,0,0,1,4.62,2.31V70.88h4V84.64C405.23,86.88,405.13,88.57,403.61,90.35ZM397.7,74a4,4,0,1,0,4,4A4,4,0,0,0,397.7,74Z"/><path class="cls-1" d="M427.07,85.17V77.25c0-2-.43-3.44-2.7-3.44-2.48,0-3.07,1.82-3.07,4v7.4h-4V70.88h4v1.75a5.28,5.28,0,0,1,4.49-2.22,4.94,4.94,0,0,1,5.28,5.68v9.08Z"/><path class="cls-1" d="M438.33,92.82H433.8l5.25-9.8-6.76-12.14h4.65L441.23,79l4.09-8.12h4.56Z"/><path class="cls-1" d="M455.85,74.31V85.17h-4V74.31h-1.59V70.88h1.59V66h4v4.89h2.8v3.43Z"/><path class="cls-1" d="M464.76,74.31V85.17h-4V74.31h-1.59V70.88h1.59V66h4v4.89h2.8v3.43Z"/><path class="cls-1" d="M487.66,85.17V77.34c0-2-.43-3.53-2.74-3.53-2.47,0-3,1.92-3,4v7.33h-4V60.45h4V72.72a5.22,5.22,0,0,1,4.49-2.31,5.49,5.49,0,0,1,4.16,1.75,5.64,5.64,0,0,1,1.12,4v9Z"/><path class="cls-1" d="M502.38,85.63c-3.93,0-6.9-1.75-6.9-6V70.88h4V79c0,2,.83,3.27,2.91,3.27s2.9-1.32,2.9-3.27V70.88h4v8.74C509.31,83.88,506.31,85.63,502.38,85.63Z"/><path class="cls-1" d="M517.69,85.63a7.59,7.59,0,0,1-5.45-2.38l2.12-2.44a4.62,4.62,0,0,0,3.36,1.68,1.68,1.68,0,0,0,1.82-1.58c0-2.44-6.37-1.22-6.37-6,0-2.9,2.41-4.52,5.11-4.52a7.36,7.36,0,0,1,4.66,1.52l-2,2.34a4,4,0,0,0-2.38-1c-.69,0-1.52.43-1.52,1.22,0,2.08,6.6,1.16,6.6,6C523.66,83.85,520.76,85.63,517.69,85.63Z"/><path class="cls-1" d="M544.52,85.17V77.25c0-2-.43-3.44-2.71-3.44-2.47,0-3.07,1.82-3.07,4v7.4h-4V70.88h4v1.75a5.29,5.29,0,0,1,4.49-2.22,4.94,4.94,0,0,1,5.28,5.68v9.08Z"/><path class="cls-1" d="M559.24,85.63c-3.93,0-6.9-1.75-6.9-6V70.88h4V79c0,2,.83,3.27,2.91,3.27s2.9-1.32,2.9-3.27V70.88h4v8.74C566.17,83.88,563.16,85.63,559.24,85.63Z"/></svg>