<svg id="Layer_1" data-name="Layer 1" xmlns="http://www.w3.org/2000/svg" viewBox="0 0 740 160"><defs><style>.cls-1{fill:#d4ac76;}</style></defs><title>text</title><path class="cls-1" d="M405.27,43.18V25.4h5.85A5.36,5.36,0,0,1,415,26.88a4.91,4.91,0,0,1,1.53,3.67,4.19,4.19,0,0,1-2,3.57,5,5,0,0,1,2,1.59,3.77,3.77,0,0,1,.74,2.26,4.89,4.89,0,0,1-1.56,3.77,5.57,5.57,0,0,1-3.93,1.43Zm5.46-14.81h-2.38v4.46H411a2.44,2.44,0,0,0,1.77-.66,2.18,2.18,0,0,0,.68-1.64A1.91,1.91,0,0,0,412.7,29,3.11,3.11,0,0,0,410.73,28.37Zm.51,7.13h-2.89v4.72h2.82a2.88,2.88,0,0,0,2-.67,2.22,2.22,0,0,0,.74-1.72,2.19,2.19,0,0,0-.69-1.69A2.84,2.84,0,0,0,411.23,35.5Z"/><path class="cls-1" d="M432.5,35.66h-6.58v4.55h7.22v3H422.58V25.4h10.35v3h-7v4.32h6.58Z"/><path class="cls-1" d="M443.27,43.41a8.55,8.55,0,0,1-3.35-.7A8.76,8.76,0,0,1,437,40.76l2.12-2.53a6.47,6.47,0,0,0,2,1.59,5,5,0,0,0,2.34.62,2.87,2.87,0,0,0,1.9-.61,1.91,1.91,0,0,0,.74-1.53,2.65,2.65,0,0,0-2-2.47l-2-.79a7.64,7.64,0,0,1-3-2,4.53,4.53,0,0,1-1-3,4.62,4.62,0,0,1,1.51-3.38,5.16,5.16,0,0,1,3.77-1.48,7.65,7.65,0,0,1,5.47,2l-2,2.48a4.58,4.58,0,0,0-3.51-1.54,2.38,2.38,0,0,0-1.59.51,1.59,1.59,0,0,0-.6,1.25,1.66,1.66,0,0,0,.47,1.22,4.71,4.71,0,0,0,1.53.92l2.07.83q4,1.58,4,5.13a5,5,0,0,1-1.67,3.89A6.47,6.47,0,0,1,443.27,43.41Z"/><path class="cls-1" d="M472.13,34.28a9.23,9.23,0,1,1-15.77-6.52,9.23,9.23,0,0,1,15.77,6.52Zm-13.42,4.24a5.84,5.84,0,0,0,8.36,0,6.11,6.11,0,0,0,0-8.51,5.84,5.84,0,0,0-8.36,0,6.14,6.14,0,0,0,0,8.51Zm2.63-15a1.43,1.43,0,0,1-1.09.47,1.47,1.47,0,0,1-1.1-.47,1.58,1.58,0,0,1-.45-1.14,1.54,1.54,0,0,1,1.55-1.59,1.46,1.46,0,0,1,1.08.46,1.54,1.54,0,0,1,.46,1.13A1.6,1.6,0,0,1,461.33,23.57Zm5.29,0a1.71,1.71,0,0,1-2.36,0,1.53,1.53,0,0,1-.49-1.14,1.49,1.49,0,0,1,.49-1.13,1.74,1.74,0,0,1,2.36,0,1.49,1.49,0,0,1,.49,1.13A1.53,1.53,0,0,1,466.62,23.57Z"/><path class="cls-1" d="M477.23,43.18V25.4h3.08v7.84l6.81-7.84h4.12L485,32.49l6.41,10.69h-3.84l-4.84-8.12-2.38,2.69v5.43Z"/><path class="cls-1" d="M343.73,70.78,336.93,53h3.47l4.88,12.78L350.11,53h3.37l-6.73,17.78Z"/><path class="cls-1" d="M357.68,70.78V53H361V70.78Z"/><path class="cls-1" d="M367.36,70.78V53h3.33V67.58h6.53v3.2Z"/><path class="cls-1" d="M382,70.78V53h3.33V67.58h6.53v3.2Z"/><path class="cls-1" d="M395,70.78,401.84,53h3l6.83,17.78h-3.43l-.94-2.46h-8l-.95,2.46ZM403.35,58l-2.84,7.38h5.67Z"/><path class="cls-1" d="M425.32,70.78V53h3.22l5.5,8.76L439.6,53h3.5V70.78h-3.34V58.61l-.27,0L434,67.08l-5.38-8.4h.05V70.78Z"/><path class="cls-1" d="M466.47,61.88a9.23,9.23,0,1,1-2.7-6.52A8.85,8.85,0,0,1,466.47,61.88ZM453,66.12a5.85,5.85,0,0,0,8.36,0,6.11,6.11,0,0,0,0-8.51,5.85,5.85,0,0,0-8.36,0,6.14,6.14,0,0,0,0,8.51Zm2.63-15a1.43,1.43,0,0,1-1.09.47,1.47,1.47,0,0,1-1.1-.47A1.58,1.58,0,0,1,453,50a1.54,1.54,0,0,1,1.55-1.59,1.46,1.46,0,0,1,1.08.46,1.54,1.54,0,0,1,.46,1.13A1.6,1.6,0,0,1,455.67,51.17Zm5.29,0a1.71,1.71,0,0,1-2.36,0,1.53,1.53,0,0,1-.49-1.14,1.49,1.49,0,0,1,.49-1.13,1.74,1.74,0,0,1,2.36,0,1.49,1.49,0,0,1,.49,1.13A1.53,1.53,0,0,1,461,51.17Z"/><path class="cls-1" d="M471.57,70.78V53h7a6,6,0,0,1,4.28,1.62,5.53,5.53,0,0,1,1.71,4.22,5.34,5.34,0,0,1-1.27,3.6,5.72,5.72,0,0,1-3.32,1.89l4.78,6.45H481l-4.61-6.35h-1.44v6.35ZM478,56h-3.11v5.8H478a3.29,3.29,0,0,0,2.31-.79,2.65,2.65,0,0,0,.86-2.05,2.8,2.8,0,0,0-.89-2.11A3.18,3.18,0,0,0,478,56Z"/><path class="cls-1" d="M488,56.2V53H502.6v3.2h-5.66V70.78h-3.33V56.2Z"/><path class="cls-1" d="M506.86,70.78V53h2.34l8.75,11.18V53h3.33V70.78H519l-8.86-11.32V70.78Z"/><path class="cls-1" d="M525.67,70.78,532.53,53h3l6.83,17.78h-3.43L538,68.32h-8l-.95,2.46Zm6.82-19.61a1.43,1.43,0,0,1-1.09.47,1.47,1.47,0,0,1-1.1-.47,1.59,1.59,0,0,1,1.1-2.73,1.46,1.46,0,0,1,1.08.46,1.54,1.54,0,0,1,.45,1.13A1.6,1.6,0,0,1,532.5,51.17ZM534,58l-2.84,7.38h5.67Zm3.75-6.8a1.71,1.71,0,0,1-2.36,0,1.53,1.53,0,0,1-.49-1.14,1.49,1.49,0,0,1,.49-1.13,1.74,1.74,0,0,1,2.36,0,1.49,1.49,0,0,1,.49,1.13A1.52,1.52,0,0,1,537.79,51.17Z"/><path class="cls-1" d="M551.55,71a8.55,8.55,0,0,1-3.35-.7,8.76,8.76,0,0,1-2.88-1.94l2.12-2.53a6.43,6.43,0,0,0,2,1.59,5,5,0,0,0,2.34.62,2.87,2.87,0,0,0,1.89-.61,1.91,1.91,0,0,0,.74-1.53,2.65,2.65,0,0,0-2-2.47l-2-.79a7.61,7.61,0,0,1-3-2,4.53,4.53,0,0,1-1-3A4.62,4.62,0,0,1,548,54.27a5.16,5.16,0,0,1,3.77-1.48,7.66,7.66,0,0,1,5.47,2l-2,2.48a4.58,4.58,0,0,0-3.51-1.54,2.38,2.38,0,0,0-1.59.51,1.58,1.58,0,0,0-.6,1.25,1.66,1.66,0,0,0,.47,1.22,4.73,4.73,0,0,0,1.53.92l2.07.83q4,1.58,4,5.13A5,5,0,0,1,556,69.51,6.48,6.48,0,0,1,551.55,71Z"/></svg>