<svg id="Layer_1" data-name="Layer 1" xmlns="http://www.w3.org/2000/svg" viewBox="0 0 1250 240"><defs><style>.cls-1{fill:#d4ac76;}</style></defs><title>text</title><path class="cls-1" d="M332.69,177l6.83-17h2.15l6.69,17h-2.62l-1-2.62h-8.34L335.32,177Zm7.9-13.1-3.3,8.22h6.53Zm1.64-5.06a2.32,2.32,0,0,1-3.28-3.28,2.34,2.34,0,0,1,3.28,0,2.34,2.34,0,0,1,0,3.28Zm-1.64-.69a.89.89,0,0,0,.65-.29,1,1,0,0,0,0-1.33.91.91,0,0,0-.65-.27.92.92,0,0,0-.67.27,1,1,0,0,0,.67,1.62Z"/><path class="cls-1" d="M349.37,162.24V160h13.77v2.26h-5.7V177h-2.37V162.24Z"/><path class="cls-1" d="M366.51,162.24V160h13.77v2.26h-5.7V177H372.2V162.24Z"/><path class="cls-1" d="M381.38,177l6.83-17h2.14l6.7,17h-2.63l-1-2.62h-8.34L384,177Zm7.9-13.1L386,172.1h6.53Z"/><path class="cls-1" d="M411.25,177V160h1.66l9.21,11.71V160h2.38v17h-1.32l-9.55-12.14V177Z"/><path class="cls-1" d="M440.45,160h2.75l-5.66,10.16V177h-2.37v-6.75L429.45,160h2.84l4.12,7.54Z"/><path class="cls-1" d="M444.19,177,451,160h2.14l6.7,17h-2.63l-1-2.62h-8.34L446.82,177Zm7.9-13.1-3.31,8.22h6.53Z"/><path class="cls-1" d="M484.71,177v-7.37h-8.27V177h-2.38V160h2.38v7.37h8.27V160h2.38v17Z"/><path class="cls-1" d="M500,177.27a6,6,0,0,1-4.44-1.78A6.21,6.21,0,0,1,493.8,171V160h2.37v10.87a4.4,4.4,0,0,0,1,3A3.47,3.47,0,0,0,500,175a3.56,3.56,0,0,0,2.81-1.15,4.29,4.29,0,0,0,1-3V160h2.37v11a6.17,6.17,0,0,1-1.73,4.49A6,6,0,0,1,500,177.27Z"/><path class="cls-1" d="M517.37,177.2a7.78,7.78,0,0,1-3.18-.68,8.27,8.27,0,0,1-2.7-1.83l1.68-1.92a6.47,6.47,0,0,0,2,1.55,5,5,0,0,0,2.35.62,3.25,3.25,0,0,0,2.2-.73,2.29,2.29,0,0,0,.85-1.81,3,3,0,0,0-2.15-2.78l-2-.8a6.86,6.86,0,0,1-2.78-1.83,4,4,0,0,1-.92-2.69,4.26,4.26,0,0,1,1.41-3.21,4.82,4.82,0,0,1,3.46-1.33,6.92,6.92,0,0,1,4.94,1.87l-1.43,1.92a4.7,4.7,0,0,0-3.51-1.53,2.73,2.73,0,0,0-1.8.59,2,2,0,0,0-.69,1.58,1.9,1.9,0,0,0,.51,1.32,4.81,4.81,0,0,0,1.72,1.05l2.05.82q3.72,1.49,3.57,4.85a4.65,4.65,0,0,1-1.5,3.58A5.69,5.69,0,0,1,517.37,177.2Z"/><path class="cls-1" d="M538,177V160h9.28v2.26h-6.9v5.35h6.11v2.26h-6.11V177Z"/><path class="cls-1" d="M560.16,177.29a8.35,8.35,0,0,1-6.13-2.52,9.12,9.12,0,0,1,0-12.61,8.72,8.72,0,0,1,12.25,0,9.07,9.07,0,0,1,0,12.59A8.37,8.37,0,0,1,560.16,177.29Zm-4.45-4.17a6.16,6.16,0,0,0,8.9,0,6.8,6.8,0,0,0,0-9.29,6.11,6.11,0,0,0-8.89,0,6.81,6.81,0,0,0,0,9.29Zm2.86-15a1.14,1.14,0,0,1-.85.38,1.1,1.1,0,0,1-.84-.38,1.29,1.29,0,0,1-.34-.92,1.32,1.32,0,0,1,.34-.93,1.13,1.13,0,0,1,.84-.37,1.17,1.17,0,0,1,.85.37,1.33,1.33,0,0,1,.35.93A1.3,1.3,0,0,1,558.57,158.17Zm4.71,0a1.13,1.13,0,0,1-1.69,0,1.29,1.29,0,0,1-.34-.92,1.32,1.32,0,0,1,.34-.93,1.15,1.15,0,0,1,1.69,0,1.32,1.32,0,0,1,.34.93A1.29,1.29,0,0,1,563.28,158.17Z"/><path class="cls-1" d="M574.78,177V160h6.31a5.3,5.3,0,0,1,3.83,1.48,5.05,5.05,0,0,1,1.54,3.84,5,5,0,0,1-4.53,5.21l4.93,6.47h-2.93l-4.88-6.49h-1.9V177Zm6-14.74h-3.62v6.14h3.6a3.45,3.45,0,0,0,2.41-.84,3.09,3.09,0,0,0,0-4.41A3.34,3.34,0,0,0,580.77,162.24Z"/><path class="cls-1" d="M611,169.52h-7v5.2h7.48V177h-9.85V160h9.72v2.26H604v5h7Z"/><path class="cls-1" d="M617.37,177V160H619l9.21,11.71V160h2.37v17h-1.32l-9.54-12.14V177Z"/><path class="cls-1" d="M656.29,169.52h-7v5.2h7.48V177h-9.85V160h9.72v2.26h-7.35v5h7Z"/><path class="cls-1" d="M662.67,177V160h1.66l9.21,11.71V160h2.37v17h-1.32L665,164.84V177Z"/><path class="cls-1" d="M683,177V160h2.37V168l7.09-8.06h3.19l-6,6.74L695.82,177h-3l-5-8.3-2.53,2.85V177Z"/><path class="cls-1" d="M701,177V160h2.38v14.74h7V177Z"/><path class="cls-1" d="M713.82,177l6.83-17h2.14l6.7,17h-2.63l-1-2.62H717.5l-1,2.62Zm7.9-13.1-3.31,8.22h6.53Z"/><path class="cls-1" d="M734.21,177V160h6.31a5.28,5.28,0,0,1,3.83,1.48,5.05,5.05,0,0,1,1.54,3.84,5.12,5.12,0,0,1-1.27,3.55,5.06,5.06,0,0,1-3.25,1.66l4.92,6.47h-2.93l-4.88-6.49h-1.89V177Zm6-14.74h-3.62v6.14h3.6a3.44,3.44,0,0,0,2.4-.84,3.07,3.07,0,0,0,0-4.41A3.34,3.34,0,0,0,740.21,162.24Z"/><path class="cls-1" d="M761.23,169.52h-7v5.2h7.48V177h-9.85V160h9.72v2.26h-7.35v5h7Z"/><path class="cls-1" d="M787.45,177v-7.37h-8.27V177H776.8V160h2.38v7.37h8.27V160h2.38v17Z"/><path class="cls-1" d="M802.71,177.27a6,6,0,0,1-4.44-1.78,6.21,6.21,0,0,1-1.73-4.49V160h2.37v10.87a4.4,4.4,0,0,0,1,3,3.47,3.47,0,0,0,2.78,1.17,3.56,3.56,0,0,0,2.81-1.15,4.34,4.34,0,0,0,1-3V160h2.37v11a6.17,6.17,0,0,1-1.73,4.49A6,6,0,0,1,802.71,177.27Z"/><path class="cls-1" d="M820.11,177.2a7.78,7.78,0,0,1-3.18-.68,8.27,8.27,0,0,1-2.7-1.83l1.68-1.92a6.47,6.47,0,0,0,2,1.55,5,5,0,0,0,2.35.62,3.25,3.25,0,0,0,2.2-.73,2.29,2.29,0,0,0,.85-1.81,3,3,0,0,0-2.15-2.78l-2-.8a6.86,6.86,0,0,1-2.78-1.83,4,4,0,0,1-.92-2.69,4.26,4.26,0,0,1,1.41-3.21,4.82,4.82,0,0,1,3.46-1.33,6.92,6.92,0,0,1,4.94,1.87l-1.43,1.92a4.7,4.7,0,0,0-3.51-1.53,2.73,2.73,0,0,0-1.8.59,2,2,0,0,0-.69,1.58,1.9,1.9,0,0,0,.51,1.32,4.72,4.72,0,0,0,1.72,1.05l2.05.82c2.47,1,3.67,2.61,3.57,4.85a4.65,4.65,0,0,1-1.5,3.58A5.69,5.69,0,0,1,820.11,177.2Z"/><path class="cls-1" d="M831.47,177V160h6.31a5.28,5.28,0,0,1,3.83,1.48,5.05,5.05,0,0,1,1.54,3.84,5.12,5.12,0,0,1-1.27,3.55,5.06,5.06,0,0,1-3.25,1.66l4.92,6.47h-2.92l-4.89-6.49h-1.89V177Zm6-14.74h-3.62v6.14h3.6a3.44,3.44,0,0,0,2.4-.84,3.07,3.07,0,0,0,0-4.41A3.34,3.34,0,0,0,837.47,162.24Z"/><path class="cls-1" d="M858.49,169.52h-7v5.2H859V177h-9.85V160h9.72v2.26h-7.35v5h7Z"/><path class="cls-1" d="M869.19,177.2a7.81,7.81,0,0,1-3.18-.68,8.27,8.27,0,0,1-2.7-1.83l1.68-1.92a6.47,6.47,0,0,0,2,1.55,5,5,0,0,0,2.35.62,3.25,3.25,0,0,0,2.2-.73,2.26,2.26,0,0,0,.85-1.81,3,3,0,0,0-2.15-2.78l-2-.8a6.94,6.94,0,0,1-2.78-1.83,4,4,0,0,1-.91-2.69,4.25,4.25,0,0,1,1.4-3.21,4.82,4.82,0,0,1,3.47-1.33,6.9,6.9,0,0,1,4.93,1.87l-1.43,1.92a4.68,4.68,0,0,0-3.5-1.53,2.69,2.69,0,0,0-1.8.59,2,2,0,0,0-.7,1.58,1.9,1.9,0,0,0,.51,1.32,4.77,4.77,0,0,0,1.73,1.05l2,.82q3.72,1.49,3.57,4.85a4.65,4.65,0,0,1-1.5,3.58A5.67,5.67,0,0,1,869.19,177.2Z"/><path class="cls-1" d="M878.57,177l6.83-17h2.15l6.7,17h-2.63l-1-2.62h-8.33L881.2,177Zm7.9-13.1-3.3,8.22h6.53Z"/></svg>