<svg id="Layer_1" data-name="Layer 1" xmlns="http://www.w3.org/2000/svg" viewBox="0 0 300 250"><defs><style>.cls-1{fill:#d80201;}</style></defs><title>text</title><path class="cls-1" d="M43.46,124.63l6.31-7.14c1.72-1.95,4.89-5.18,4.89-7.9a3.19,3.19,0,0,0-3.23-3.17c-2.11,0-3.1,1.57-3.17,3.52H43.81c.29-4.32,3.11-7.2,7.49-7.2,4,0,7.52,2.63,7.52,6.85,0,3-2,5.41-3.87,7.45l-3.71,4H59v3.62Z"/><path class="cls-1" d="M70.12,125.17c-5.89,0-8.26-6.21-8.26-11.2s2.34-11.23,8.26-11.23,8.25,6.18,8.25,11.2S76,125.17,70.12,125.17Zm0-18.75c-3.27,0-4.1,5.06-4.1,7.52s.83,7.58,4.1,7.58,4.09-5.12,4.09-7.58S73.38,106.42,70.12,106.42Z"/><path class="cls-1" d="M98.53,124.63V117c0-1.91-.41-3.42-2.65-3.42-2.4,0-2.95,1.86-2.95,3.9v7.11H89.06v-24h3.87v11.9a5.06,5.06,0,0,1,4.36-2.23,5.3,5.3,0,0,1,4,1.69,5.49,5.49,0,0,1,1.08,3.9v8.71Z"/><path class="cls-1" d="M112.81,125.08c-3.81,0-6.69-1.7-6.69-5.83v-8.48H110v7.84c0,1.89.8,3.17,2.82,3.17s2.81-1.28,2.81-3.17v-7.84h3.9v8.48C119.52,123.38,116.61,125.08,112.81,125.08Z"/><path class="cls-1" d="M127.65,125.08a7.39,7.39,0,0,1-5.28-2.31l2-2.37a4.51,4.51,0,0,0,3.27,1.64,1.63,1.63,0,0,0,1.75-1.54c0-2.37-6.17-1.18-6.17-5.86,0-2.81,2.33-4.38,5-4.38a7.16,7.16,0,0,1,4.51,1.47L130.82,114a3.86,3.86,0,0,0-2.3-.92c-.68,0-1.48.41-1.48,1.18,0,2,6.4,1.12,6.4,5.86C133.44,123.35,130.63,125.08,127.65,125.08Z"/><path class="cls-1" d="M153.89,124.63V117c0-1.63-.25-3.42-2.3-3.42-2.27,0-2.66,2.08-2.66,3.9v7.11h-3.87v-7.36a6.15,6.15,0,0,0-.29-2.31,2.24,2.24,0,0,0-2.08-1.34,2.51,2.51,0,0,0-2.17,1.25,5.67,5.67,0,0,0-.45,2.65v7.11H136.2V110.77h3.87v1.57a5.31,5.31,0,0,1,4.22-2,4.7,4.7,0,0,1,4.32,2.52,5.13,5.13,0,0,1,4.55-2.52,4.56,4.56,0,0,1,3.87,2,6.1,6.1,0,0,1,.73,3.36v9Z"/><path class="cls-1" d="M168.68,125.08c-4.42,0-7.94-2.76-7.94-7.36s3.52-7.39,8-7.39,7.87,2.78,7.87,7.35S173.06,125.08,168.68,125.08Zm0-11.27a3.89,3.89,0,1,0,3.94,3.91A3.92,3.92,0,0,0,168.64,113.81Z"/><path class="cls-1" d="M190.15,124.63V122.8a5.35,5.35,0,0,1-4.51,2.28c-4.16,0-6.82-3.46-6.82-7.43s2.66-7.32,6.72-7.32a5.77,5.77,0,0,1,4.61,2.2V100.66h3.9v24Zm-3.46-10.82a3.89,3.89,0,1,0,3.87,3.87A3.87,3.87,0,0,0,186.69,113.81Z"/><path class="cls-1" d="M201,118.32c.06,2.15,1.08,3.72,3.39,3.72a3.62,3.62,0,0,0,3.29-1.86l3.59.58c-1.22,3-3.68,4.32-6.82,4.32-4.48,0-7.42-2.88-7.42-7.4s2.81-7.35,7.26-7.35,7.07,3.07,7.07,7.48v.51Zm3.36-5.24a3.14,3.14,0,0,0-3.24,2.78h6.56A3.2,3.2,0,0,0,204.36,113.08Z"/><path class="cls-1" d="M214.34,124.63v-24h3.87v24Z"/><path class="cls-1" d="M221.92,124.63v-24h3.88v24Z"/><path class="cls-1" d="M232.74,118.32c.06,2.15,1.09,3.72,3.39,3.72a3.64,3.64,0,0,0,3.3-1.86l3.58.58a6.8,6.8,0,0,1-6.81,4.32c-4.48,0-7.43-2.88-7.43-7.4s2.82-7.35,7.27-7.35,7.07,3.07,7.07,7.48v.51Zm3.36-5.24a3.14,3.14,0,0,0-3.23,2.78h6.56A3.22,3.22,0,0,0,236.1,113.08Z"/><path class="cls-1" d="M255.14,114.29a3.45,3.45,0,0,0-1.86-.48c-2.62,0-3.32,1.86-3.32,4.16v6.66h-3.88V110.77H250v2.08a4.55,4.55,0,0,1,5.72-2.21Z"/><path class="cls-1" d="M75.24,150.57v5H71.33v-5h-5V147h5v-5h3.91v5h5v3.58Z"/><path class="cls-1" d="M93,142.25a2.34,2.34,0,1,1,0-4.67,2.34,2.34,0,0,1,0,4.67Zm-2,17.38V145.77H95v13.86Z"/><path class="cls-1" d="M108.07,159.63V152c0-1.89-.42-3.33-2.62-3.33-2.4,0-3,1.76-3,3.84v7.17H98.6V145.77h3.87v1.7a5.12,5.12,0,0,1,4.35-2.14,4.78,4.78,0,0,1,5.12,5.5v8.8Z"/><path class="cls-1" d="M120.07,160.08a7.39,7.39,0,0,1-5.28-2.31l2-2.37A4.49,4.49,0,0,0,120.1,157a1.63,1.63,0,0,0,1.76-1.54c0-2.37-6.17-1.18-6.17-5.86,0-2.81,2.33-4.38,5-4.38a7.16,7.16,0,0,1,4.51,1.47L123.24,149a3.86,3.86,0,0,0-2.31-.92c-.67,0-1.47.41-1.47,1.18,0,2,6.4,1.12,6.4,5.86C125.86,158.35,123.05,160.08,120.07,160.08Z"/><path class="cls-1" d="M137.13,160.08a5.54,5.54,0,0,1-4.64-2.28V167h-3.88V145.77h3.88v1.76a5.52,5.52,0,0,1,4.54-2.2c4.13,0,6.85,3.42,6.85,7.39S141.19,160.08,137.13,160.08ZM136,148.81a3.89,3.89,0,1,0,3.88,3.87A3.87,3.87,0,0,0,136,148.81Z"/><path class="cls-1" d="M148.71,142.25a2.34,2.34,0,1,1,0-4.67,2.34,2.34,0,0,1,0,4.67Zm-2,17.38V145.77h3.87v13.86Z"/><path class="cls-1" d="M163.33,149.29a3.44,3.44,0,0,0-1.85-.48c-2.63,0-3.33,1.86-3.33,4.16v6.66h-3.87V145.77h3.87v2.08a4.45,4.45,0,0,1,4-2.52,4.53,4.53,0,0,1,1.7.31Z"/><path class="cls-1" d="M176.39,159.63V157.8a5.35,5.35,0,0,1-4.51,2.28c-4.16,0-6.82-3.46-6.82-7.43s2.66-7.32,6.72-7.32a5.77,5.77,0,0,1,4.61,2.2v-1.76h3.9v13.86Zm-3.46-10.82a3.89,3.89,0,1,0,3.87,3.87A3.87,3.87,0,0,0,172.93,148.81Z"/><path class="cls-1" d="M187.91,149.1v10.53H184V149.1H182.5v-3.33H184V141h3.87v4.73h2.72v3.33Z"/><path class="cls-1" d="M194.53,142.25a2.34,2.34,0,1,1,2.31-2.33A2.34,2.34,0,0,1,194.53,142.25Zm-1.95,17.38V145.77h3.87v13.86Z"/><path class="cls-1" d="M207.3,160.08c-4.42,0-7.94-2.76-7.94-7.36s3.52-7.39,8-7.39,7.87,2.78,7.87,7.35S211.68,160.08,207.3,160.08Zm0-11.27a3.89,3.89,0,1,0,3.93,3.91A3.92,3.92,0,0,0,207.27,148.81Z"/><path class="cls-1" d="M227.65,159.63V152c0-1.89-.42-3.33-2.62-3.33-2.4,0-3,1.76-3,3.84v7.17h-3.87V145.77h3.87v1.7a5.12,5.12,0,0,1,4.35-2.14,4.78,4.78,0,0,1,5.12,5.5v8.8Z"/></svg>