<?xml version="1.0" encoding="utf-8"?>
<!-- Generator: Adobe Illustrator 19.1.1, SVG Export Plug-In . SVG Version: 6.00 Build 0)  -->
<svg version="1.1" id="Layer_1" xmlns="http://www.w3.org/2000/svg" xmlns:xlink="http://www.w3.org/1999/xlink" x="0px" y="0px"
	 viewBox="0 0 580 400" style="enable-background:new 0 0 580 400;" xml:space="preserve">
<style type="text/css">
	.st0{fill:#D4AC76;}
</style>
<g>
	<path class="st0" d="M166,248.7v-13.9h4.6c1.2,0,2.2,0.4,3,1.2c0.8,0.8,1.2,1.7,1.2,2.9s-0.5,2.1-1.6,2.8c0.6,0.3,1.2,0.7,1.5,1.2
		s0.6,1.1,0.6,1.8c0,1.2-0.4,2.2-1.2,2.9c-0.8,0.7-1.8,1.1-3.1,1.1H166z M170.2,237.1h-1.9v3.5h2.1c0.6,0,1-0.2,1.4-0.5
		c0.4-0.3,0.5-0.8,0.5-1.3s-0.2-0.9-0.6-1.2C171.4,237.2,170.9,237.1,170.2,237.1z M170.6,242.7h-2.3v3.7h2.2c0.7,0,1.2-0.2,1.6-0.5
		c0.4-0.3,0.6-0.8,0.6-1.3s-0.2-1-0.5-1.3C171.8,242.8,171.3,242.7,170.6,242.7z"/>
	<path class="st0" d="M186.9,242.8h-5.1v3.6h5.7v2.3h-8.3v-13.9h8.1v2.3h-5.5v3.4h5.1V242.8z"/>
	<path class="st0" d="M195,248.8c-0.9,0-1.8-0.2-2.6-0.5c-0.9-0.4-1.6-0.9-2.3-1.5l1.7-2c0.4,0.5,0.9,0.9,1.5,1.2
		c0.6,0.3,1.2,0.5,1.8,0.5s1.1-0.2,1.5-0.5s0.6-0.7,0.6-1.2c0-0.9-0.5-1.5-1.5-1.9l-1.6-0.6c-1-0.4-1.8-0.9-2.3-1.5
		c-0.5-0.6-0.7-1.4-0.7-2.4c0-1,0.4-1.9,1.2-2.6c0.8-0.8,1.8-1.2,3-1.2c1.7,0,3.2,0.5,4.3,1.6l-1.5,1.9c-0.7-0.8-1.7-1.2-2.7-1.2
		c-0.5,0-0.9,0.1-1.2,0.4c-0.3,0.3-0.5,0.6-0.5,1s0.1,0.7,0.4,1c0.2,0.2,0.6,0.5,1.2,0.7l1.6,0.6c2.1,0.8,3.1,2.2,3.2,4
		c0,1.3-0.4,2.3-1.3,3C197.6,248.5,196.4,248.8,195,248.8z"/>
	<path class="st0" d="M202,237.3v-2.5h11.5v2.5h-4.4v11.4h-2.6v-11.4H202z"/>
	<path class="st0" d="M213.6,248.7l5.4-13.9h2.4l5.3,13.9H224l-0.7-1.9H217l-0.7,1.9H213.6z M219,233.3c-0.2,0.2-0.5,0.4-0.9,0.4
		c-0.3,0-0.6-0.1-0.9-0.4s-0.4-0.5-0.4-0.9c0-0.3,0.1-0.6,0.3-0.9c0.3-0.2,0.5-0.4,0.9-0.4s0.6,0.1,0.8,0.4c0.2,0.2,0.4,0.5,0.4,0.9
		C219.3,232.8,219.2,233.1,219,233.3z M220.2,238.6l-2.2,5.8h4.4L220.2,238.6z M223.1,233.3c-0.3,0.2-0.6,0.4-0.9,0.4
		s-0.7-0.1-0.9-0.4c-0.3-0.2-0.4-0.5-0.4-0.9c0-0.3,0.1-0.6,0.4-0.9c0.3-0.2,0.6-0.4,0.9-0.4s0.7,0.1,0.9,0.4
		c0.3,0.2,0.4,0.5,0.4,0.9C223.5,232.8,223.4,233.1,223.1,233.3z"/>
	<path class="st0" d="M229.6,248.7v-13.9h2.6v11.4h5.1v2.5H229.6z"/>
	<path class="st0" d="M240.7,248.7v-13.9h2.6v11.4h5.1v2.5H240.7z"/>
	<path class="st0" d="M262.5,248.7l-5.3-13.9h2.7l3.8,10l3.8-10h2.6l-5.3,13.9H262.5z"/>
	<path class="st0" d="M270.4,248.7l5.4-13.9h2.4l5.3,13.9h-2.7l-0.7-1.9h-6.2l-0.7,1.9H270.4z M277,238.6l-2.2,5.8h4.4L277,238.6z
		 M279,232.4c0,0.6-0.2,1-0.6,1.4c-0.4,0.4-0.9,0.6-1.4,0.6c-0.6,0-1-0.2-1.4-0.6c-0.4-0.4-0.6-0.9-0.6-1.4c0-0.6,0.2-1,0.6-1.4
		s0.9-0.6,1.4-0.6c0.6,0,1,0.2,1.4,0.6C278.8,231.4,279,231.8,279,232.4z M276.5,232.9c0.1,0.1,0.3,0.2,0.5,0.2s0.4-0.1,0.5-0.2
		c0.1-0.1,0.2-0.3,0.2-0.5s-0.1-0.4-0.2-0.5c-0.1-0.1-0.3-0.2-0.5-0.2c-0.2,0-0.4,0.1-0.5,0.2c-0.1,0.1-0.2,0.3-0.2,0.5
		S276.3,232.8,276.5,232.9z"/>
	<path class="st0" d="M286.4,248.7v-13.9h5.4c1.3,0,2.5,0.4,3.4,1.3s1.3,1.9,1.3,3.3c0,1.1-0.3,2-1,2.8s-1.5,1.3-2.6,1.5l3.7,5h-2.9
		l-3.6-5H289v5H286.4z M291.4,237.1H289v4.5h2.4c0.8,0,1.4-0.2,1.8-0.6c0.5-0.4,0.7-0.9,0.7-1.6c0-0.7-0.2-1.2-0.7-1.6
		S292.2,237.1,291.4,237.1z"/>
	<path class="st0" d="M298.8,237.3v-2.5h11.5v2.5h-4.4v11.4h-2.6v-11.4H298.8z"/>
	<path class="st0" d="M320.4,248.7v-13.9h2.5l4.3,6.9l4.4-6.9h2.7v13.9h-2.6v-9.5l-0.2,0l-4.3,6.7l-4.2-6.6h0v9.5H320.4z"/>
	<path class="st0" d="M337.1,248.7l5.4-13.9h2.4l5.3,13.9h-2.7l-0.7-1.9h-6.2l-0.7,1.9H337.1z M343.6,238.6l-2.2,5.8h4.4
		L343.6,238.6z"/>
	<path class="st0" d="M361.3,242.9v-2.3h5l0,1.2c0,1.4-0.4,2.6-1,3.7c-0.7,1.1-1.5,2-2.6,2.6c-1.1,0.6-2.3,0.9-3.5,0.9
		c-2,0-3.7-0.7-5.1-2.1c-1.4-1.4-2.1-3.1-2.1-5.1c0-2,0.7-3.7,2.1-5.1c1.4-1.4,3.1-2.1,5.2-2.1c2,0,3.8,0.7,5.2,2.2l-1.8,1.8
		c-0.9-1-2.1-1.5-3.4-1.5c-1.3,0-2.5,0.5-3.3,1.4s-1.3,2-1.3,3.4s0.4,2.4,1.3,3.4c0.9,0.9,1.9,1.4,3.2,1.4s2.3-0.3,3.1-1
		c0.8-0.6,1.4-1.5,1.6-2.6H361.3z"/>
	<path class="st0" d="M367.9,248.7l5.4-13.9h2.4l5.3,13.9h-2.7l-0.7-1.9h-6.2l-0.7,1.9H367.9z M374.4,238.6l-2.2,5.8h4.4
		L374.4,238.6z"/>
	<path class="st0" d="M387.8,248.8c-0.9,0-1.8-0.2-2.6-0.5c-0.9-0.4-1.6-0.9-2.3-1.5l1.7-2c0.4,0.5,0.9,0.9,1.5,1.2
		c0.6,0.3,1.2,0.5,1.8,0.5c0.6,0,1.1-0.2,1.5-0.5s0.6-0.7,0.6-1.2c0-0.9-0.5-1.5-1.5-1.9l-1.6-0.6c-1-0.4-1.8-0.9-2.3-1.5
		s-0.7-1.4-0.7-2.4c0-1,0.4-1.9,1.2-2.6c0.8-0.8,1.8-1.2,3-1.2c1.7,0,3.2,0.5,4.3,1.6l-1.5,1.9c-0.7-0.8-1.7-1.2-2.7-1.2
		c-0.5,0-0.9,0.1-1.2,0.4s-0.5,0.6-0.5,1s0.1,0.7,0.4,1c0.2,0.2,0.6,0.5,1.2,0.7l1.6,0.6c2.1,0.8,3.1,2.2,3.2,4c0,1.3-0.4,2.3-1.3,3
		C390.4,248.5,389.2,248.8,387.8,248.8z"/>
	<path class="st0" d="M396.2,248.7v-13.9h2.6v13.9H396.2z"/>
	<path class="st0" d="M403.4,248.7v-13.9h1.8l6.8,8.8v-8.8h2.6v13.9H413l-6.9-8.9v8.9H403.4z"/>
</g>
</svg>
