<?xml version="1.0" encoding="UTF-8"?><svg id="Logo" xmlns="http://www.w3.org/2000/svg" viewBox="0 0 382 100"><defs><style>.cls-1{fill:#fff;}</style></defs><title>powel-logo_hvit_RGB-2019</title><path class="cls-1" d="M97.43,70.46a50,50,0,0,0-66-66.12,1.36,1.36,0,0,0,.17,2.53,148.08,148.08,0,0,1,15.73,5.9,37.48,37.48,0,0,1,32.57,62c-4.67,4.64-20.84,1.06-37.5-8.55a3.11,3.11,0,0,0-4.34,1.3,3.24,3.24,0,0,0,1.38,4.2C69.3,88.93,97.64,95.61,102.8,86.66,104.93,83,102.78,77.18,97.43,70.46Z"/><path class="cls-1" d="M31.38,81.45a37.47,37.47,0,0,1-7.81-56.12c4.51-4.82,20.81-1.27,37.61,8.43a3.12,3.12,0,0,0,4.35-1.3,3.24,3.24,0,0,0-1.38-4.2C34.31,11.07,6,4.39.81,13.34c-2.13,3.69,0,9.48,5.37,16.2a50,50,0,0,0,66,66.12A1.36,1.36,0,0,0,72,93.13a147.94,147.94,0,0,1-15.72-5.9A37.41,37.41,0,0,1,31.38,81.45Z"/><path class="cls-1" d="M137,96.19v-70h7.32l1.06,3.85a26.37,26.37,0,0,1,7.34-4,22.43,22.43,0,0,1,7.54-1.52q10.53,0,16,7.24t5.47,18.08q0,10.84-5.57,18.08t-15.91,7.25a20.81,20.81,0,0,1-6-1,25.43,25.43,0,0,1-6.1-2.76V94.49Zm11.14-33.92a19,19,0,0,0,4.73,2.51,13.89,13.89,0,0,0,4.82.94q7,0,9.81-5A21.61,21.61,0,0,0,170.31,50a22.87,22.87,0,0,0-2.61-11.23q-2.62-4.74-10-4.73a13.54,13.54,0,0,0-4.82,1,20.54,20.54,0,0,0-4.73,2.56Z"/><path class="cls-1" d="M213,75.18q-11.13-.11-17.14-7t-6-18.28q.09-11.23,6.4-18.08t17.54-6.95q11.53,0,17.74,7.1t6.21,18.42q-.1,11.24-6.8,18T213,75.18Zm13.31-24.74q0-7.19-3-11.57t-9.21-4.39q-6.21,0-9.46,4t-3.25,11.38q0,7.5,2.76,11.68t9,4.19q6.21,0,9.66-3.85T226.27,50.44Z"/><polygon class="cls-1" points="277.08 42.36 266.24 73.99 256.59 73.99 240.53 26.2 252.15 26.2 261.22 56.95 270.78 26.2 283.39 26.2 292.95 56.95 302.01 26.2 313.64 26.2 297.58 73.99 287.92 73.99 277.08 42.36"/><path class="cls-1" d="M370.86,74V5.51L382,3.81V74Z"/><path class="cls-1" d="M357.1,33.82a19.06,19.06,0,0,0-16.76-8.9q-10.83,0-17.14,7t-6.3,18.28q0,11.34,6.79,18.18t19,6.84a30.46,30.46,0,0,0,15.76-4.92l-4.12-7.68a20.11,20.11,0,0,1-11.44,3.24q-6.51,0-10.05-3.54a15.13,15.13,0,0,1-4.24-9.17h32.66C361.87,45,360.47,38.8,357.1,33.82Zm-28.28,11.8a13.79,13.79,0,0,1,3.6-8.18,10.2,10.2,0,0,1,7.63-3,9.54,9.54,0,0,1,7.34,2.91,15,15,0,0,1,3.41,8.23Z"/></svg>
