<svg id="Layer_1" data-name="Layer 1" xmlns="http://www.w3.org/2000/svg" viewBox="0 0 980 300"><defs><style>.cls-1{fill:#fff;}</style></defs><title>text</title><path class="cls-1" d="M778.84,139.5H767.48c-.92,0-1.39-.37-1.39-1.09V120.47c0-.75.47-1.12,1.39-1.12s1.4.37,1.4,1.12V137h10c.63,0,.95.42.95,1.27S779.47,139.5,778.84,139.5Z"/><path class="cls-1" d="M794.1,136.83c.63,0,.95.39.95,1.15a1.26,1.26,0,0,1-.95,1.4,24.42,24.42,0,0,1-5.05.36q-3.54,0-5.07-1.15a4.55,4.55,0,0,1-1.54-3.86v-5.68c0-1.89.46-3.17,1.39-3.83s2.66-1,5.2-1,4.24.31,5.13.94,1.33,1.92,1.33,3.87v2.46a1.75,1.75,0,0,1-.41,1.18,1.38,1.38,0,0,1-1.05.42h-8.81v1.82q0,2.28,4,2.27a22.6,22.6,0,0,0,3-.18A14.84,14.84,0,0,1,794.1,136.83Zm-8.88-7.77v1.6h7.48v-1.6a2,2,0,0,0-.75-1.8,6.21,6.21,0,0,0-3-.48,6.61,6.61,0,0,0-3,.45A1.92,1.92,0,0,0,785.22,129.06Z"/><path class="cls-1" d="M808.41,134.94v-.35a1.14,1.14,0,0,0-.72-1.07,6.39,6.39,0,0,0-2.53-.33,15.22,15.22,0,0,1-4-.57,3.22,3.22,0,0,1-1.81-1.22,3.94,3.94,0,0,1-.73-2.49v-.25c0-1.73.52-2.9,1.56-3.49a9.77,9.77,0,0,1,4.75-.9,20.06,20.06,0,0,1,4.73.41,1.26,1.26,0,0,1,1,1.39c0,.77-.32,1.15-1,1.15a17.74,17.74,0,0,1-2-.19,20.28,20.28,0,0,0-3.1-.22,7.53,7.53,0,0,0-2.42.28c-.52.18-.77.69-.77,1.52v.29c0,1.1,1.15,1.69,3.45,1.76,1,0,1.92.12,2.89.24A4.34,4.34,0,0,1,810.2,132a3.16,3.16,0,0,1,1,2.58v.38c0,1.86-.53,3.13-1.57,3.8a9.77,9.77,0,0,1-5.08,1,22.48,22.48,0,0,1-5-.39,1.26,1.26,0,0,1-.95-1.4c0-.76.32-1.15.95-1.15.38,0,1.11.07,2.2.2a26.88,26.88,0,0,0,3.18.2,6.45,6.45,0,0,0,2.53-.42A1.79,1.79,0,0,0,808.41,134.94Z"/><path class="cls-1" d="M828.17,139.65a2.41,2.41,0,0,1-1.49-.5,2.78,2.78,0,0,1-.93-1.26l-4.39-11.82c-.06-.31-.1-.48-.11-.5,0-.72.45-1.08,1.35-1.07a1.3,1.3,0,0,1,1.36.8L828.11,137h.15l4.16-11.66c.2-.53.7-.8,1.5-.8s1.2.36,1.2,1.07c0,0,0,.19-.09.5l-4.41,11.82a2.56,2.56,0,0,1-.94,1.28A2.52,2.52,0,0,1,828.17,139.65Z"/><path class="cls-1" d="M839.47,127.19c-.64,0-1-.38-1-1.15a1.25,1.25,0,0,1,1-1.39,21.74,21.74,0,0,1,5-.41c2.34,0,3.93.37,4.75,1.12s1.26,2,1.26,3.91v6c0,1.87-.46,3.09-1.36,3.65s-2.66.85-5.23.85-4.3-.28-5.15-.85-1.29-1.77-1.29-3.63.33-3.13,1-3.83,2-1.05,4.12-1h5.12v-1.61a1.71,1.71,0,0,0-.71-1.57,5.25,5.25,0,0,0-2.52-.43,19.35,19.35,0,0,0-3.17.22A11.67,11.67,0,0,1,839.47,127.19Zm8.25,8.28v-2.63h-4.28a5.44,5.44,0,0,0-2.59.39c-.39.26-.59.86-.59,1.79s.25,1.54.74,1.8a7.57,7.57,0,0,0,3,.38,8.52,8.52,0,0,0,3-.34A1.36,1.36,0,0,0,847.72,135.47Zm-5.4-12.8a2.93,2.93,0,0,1,0-4.09,2.86,2.86,0,0,1,4.07,0,2.89,2.89,0,0,1,0,4.09,2.91,2.91,0,0,1-4.07,0Zm.8-2a1.24,1.24,0,0,0,.36.9,1.28,1.28,0,0,0,1.76,0,1.26,1.26,0,0,0,.37-.89,1.25,1.25,0,0,0-1.25-1.24,1.21,1.21,0,0,0-.89.36A1.17,1.17,0,0,0,843.12,120.62Z"/><path class="cls-1" d="M857.61,130.69v7.72c0,.72-.46,1.09-1.39,1.09s-1.39-.37-1.4-1.09v-8.08a9.56,9.56,0,0,1,.5-3.86,5.15,5.15,0,0,1,.92-1.32c.66-.61,2.32-.91,5-.91a8.62,8.62,0,0,1,2.69.27,1,1,0,0,1,.68,1,1.4,1.4,0,0,1-.38,1.07,1.3,1.3,0,0,1-1,.35l-2-.14a8.75,8.75,0,0,0-2.38.19,2.34,2.34,0,0,0-.7.35,2.4,2.4,0,0,0-.33.7,3.56,3.56,0,0,0-.2,1.08C857.61,129.48,857.61,130,857.61,130.69Z"/><path class="cls-1" d="M872.16,139.5a3.87,3.87,0,0,1-2.95-.91,4.54,4.54,0,0,1-.84-3.11V127h-2q-.93,0-.93-1.23c0-.81.31-1.22.93-1.22h2v-3.94c0-.73.46-1.09,1.39-1.09s1.4.36,1.4,1.09v3.94h3.94c.63,0,.94.41.94,1.22s-.31,1.23-.94,1.23h-3.94v8.74c0,.84.5,1.27,1.51,1.27l2.63-.16c.65,0,1,.38,1,1.12a1.44,1.44,0,0,1-1,1.49C874.61,139.47,873.57,139.5,872.16,139.5Z"/><path class="cls-1" d="M765.15,169.33V157.05c0-.75.48-1.12,1.4-1.12s1.39.37,1.39,1.12v5a9.43,9.43,0,0,1,3.73-.61,16,16,0,0,1,3.58.3,4.3,4.3,0,0,1,2.1,1.18,4.83,4.83,0,0,1,1.2,2.39,19.62,19.62,0,0,1,.33,4,20.11,20.11,0,0,1-.31,4,4.07,4.07,0,0,1-1.22,2.28,4.67,4.67,0,0,1-2.1,1.07,15.44,15.44,0,0,1-3.25.27,15.86,15.86,0,0,1-3.22-.26,4.35,4.35,0,0,1-2.06-1.07,4.49,4.49,0,0,1-1.22-2.32A18.13,18.13,0,0,1,765.15,169.33Zm11,.62c0-1.33,0-2.39-.11-3.17a4.29,4.29,0,0,0-.77-2.12c-.3-.45-1.38-.68-3.22-.68a5.82,5.82,0,0,0-2.91.43,2.45,2.45,0,0,0-.92,1.39,15.88,15.88,0,0,0-.29,3.12c0,1.08,0,2,.1,2.79a3.84,3.84,0,0,0,.81,2.06,2.43,2.43,0,0,0,1.83.63q.46,0,1.38,0t1.38,0a6.29,6.29,0,0,0,1-.17,1.36,1.36,0,0,0,.81-.44,7.22,7.22,0,0,0,.54-1.09A7.43,7.43,0,0,0,776.1,170Z"/><path class="cls-1" d="M786,157.05v18.56c0,.72-.46,1.09-1.39,1.09s-1.39-.37-1.39-1.09V157.05c0-.75.46-1.12,1.39-1.12S786,156.3,786,157.05Z"/><path class="cls-1" d="M790.43,169.33a18.64,18.64,0,0,1,.35-4,4.31,4.31,0,0,1,3.29-3.58,17.65,17.65,0,0,1,6.48,0,4.41,4.41,0,0,1,2.09,1.18,4.82,4.82,0,0,1,1.23,2.39,19.3,19.3,0,0,1,.34,4,19.06,19.06,0,0,1-.34,4,4.34,4.34,0,0,1-1.24,2.3,4.6,4.6,0,0,1-2.08,1.07,15.4,15.4,0,0,1-3.24.27,16.22,16.22,0,0,1-3.24-.26,4.5,4.5,0,0,1-2.09-1.07,4.16,4.16,0,0,1-1.22-2.32A19,19,0,0,1,790.43,169.33Zm3.12-3.55a8,8,0,0,0-.33,2.77c0,1.32,0,2.37.1,3.15a3.82,3.82,0,0,0,.79,2,2.39,2.39,0,0,0,1.81.63c.3,0,.77,0,1.39,0,1.82,0,2.88-.22,3.2-.66a4.13,4.13,0,0,0,.81-2.05c.07-.75.1-1.54.1-2.35,0-2.4-.23-3.86-.68-4.37a3.66,3.66,0,0,0-.53-.56A3.69,3.69,0,0,0,798,164q-1.68,0-2.13,0c-.95.06-1.55.28-1.8.64A7.3,7.3,0,0,0,793.55,165.78Z"/><path class="cls-1" d="M819.12,160c0-.66.46-1,1.39-1s1.39.34,1.39,1v6.56q0,2.93-1.47,3.84a9.5,9.5,0,0,1-4.88.93,22.78,22.78,0,0,1-4.55-.29v2.39h5.66c2.11,0,3.55.37,4.3,1.11a5.08,5.08,0,0,1,1.12,3.71c0,1.74-.5,2.93-1.51,3.58s-2.8,1-5.37,1-4.37-.29-5.41-.87-1.56-1.78-1.57-3.59V166.16a5.16,5.16,0,0,1,.86-3.39,4.72,4.72,0,0,1,3.28-1.18,26.22,26.22,0,0,1,6.76.32ZM811,166.51c0,1.12.22,1.79.62,2a7.67,7.67,0,0,0,3,.35,13.66,13.66,0,0,0,3.22-.25,1.52,1.52,0,0,0,1.07-.75,4.78,4.78,0,0,0,.22-1.69v-1.84a34.07,34.07,0,0,0-4.43-.32,6.42,6.42,0,0,0-2.86.46,2,2,0,0,0-.83,1.89Zm0,9.39v2.56a1.5,1.5,0,0,0,1,1.47,9,9,0,0,0,3.28.43,6.72,6.72,0,0,0,3.05-.46,1.86,1.86,0,0,0,.79-1.76,1.92,1.92,0,0,0-.75-1.77,5.49,5.49,0,0,0-2.73-.47Z"/><path class="cls-1" d="M836.49,160c0-.66.47-1,1.4-1s1.39.34,1.39,1v6.56q0,2.93-1.47,3.84a9.55,9.55,0,0,1-4.88.93,22.71,22.71,0,0,1-4.55-.29v2.39H834c2.11,0,3.54.37,4.3,1.11a5.08,5.08,0,0,1,1.12,3.71c0,1.74-.5,2.93-1.51,3.58s-2.8,1-5.37,1-4.37-.29-5.41-.87-1.56-1.78-1.58-3.59V166.16a5.22,5.22,0,0,1,.86-3.39,4.76,4.76,0,0,1,3.28-1.18,26.2,26.2,0,0,1,6.76.32Zm-8.11,6.53c0,1.12.22,1.79.62,2a7.63,7.63,0,0,0,3,.35,13.78,13.78,0,0,0,3.22-.25,1.55,1.55,0,0,0,1.07-.75,4.83,4.83,0,0,0,.21-1.69v-1.84a33.92,33.92,0,0,0-4.42-.32,6.39,6.39,0,0,0-2.86.46,2,2,0,0,0-.83,1.89Zm0,9.39v2.56a1.49,1.49,0,0,0,1,1.47,8.94,8.94,0,0,0,3.28.43,6.75,6.75,0,0,0,3.05-.46,1.86,1.86,0,0,0,.78-1.76,1.92,1.92,0,0,0-.75-1.77,5.42,5.42,0,0,0-2.72-.47Z"/><path class="cls-1" d="M843.11,158.1a1.47,1.47,0,0,1,.45-1.08,1.54,1.54,0,0,1,1.06-.47,1.47,1.47,0,0,1,1.08.47,1.59,1.59,0,0,1,.43,1.09,1.46,1.46,0,0,1-.45,1.06,1.44,1.44,0,0,1-1.06.45,1.52,1.52,0,0,1-1.51-1.52Zm2.9,4.67v12.84c0,.72-.46,1.09-1.39,1.09s-1.39-.37-1.39-1.09V162.77c0-.72.46-1.09,1.39-1.09S846,162.05,846,162.77Z"/><path class="cls-1" d="M853.89,164.51c-.35.36-.52,1.48-.52,3.36v7.74c0,.72-.46,1.09-1.38,1.09s-1.39-.37-1.4-1.09v-8.08a15.83,15.83,0,0,1,.27-3.33,2.9,2.9,0,0,1,1.09-1.82,4.09,4.09,0,0,1,1.91-.77,28.67,28.67,0,0,1,3.43-.17c2.6,0,4.25.31,4.94.95a4.14,4.14,0,0,1,1.21,2.73,23.36,23.36,0,0,1,.1,2.41v8.08c0,.72-.46,1.09-1.39,1.09s-1.39-.37-1.39-1.09v-7.74c0-1.86-.18-3-.53-3.34S858.81,164,857,164,854.23,164.16,853.89,164.51Z"/><path class="cls-1" d="M871.17,164.51q-.51.54-.51,3.36v7.74c0,.72-.46,1.09-1.39,1.09s-1.39-.37-1.4-1.09v-8.08a15.83,15.83,0,0,1,.27-3.33,3,3,0,0,1,1.09-1.82,4.13,4.13,0,0,1,1.91-.77,28.87,28.87,0,0,1,3.44-.17c2.6,0,4.25.31,4.93.95a4.09,4.09,0,0,1,1.21,2.73,23,23,0,0,1,.11,2.41v8.08c0,.72-.47,1.09-1.39,1.09s-1.4-.37-1.4-1.09v-7.74c0-1.86-.17-3-.53-3.34s-1.41-.55-3.18-.55S871.52,164.16,871.17,164.51Z"/><path class="cls-1" d="M888.2,157.05v18.56c0,.72-.46,1.09-1.39,1.09s-1.39-.37-1.39-1.09V157.05c0-.75.46-1.12,1.39-1.12S888.2,156.3,888.2,157.05Z"/><path class="cls-1" d="M904.31,174c.63,0,1,.39,1,1.15a1.26,1.26,0,0,1-1,1.4,24.37,24.37,0,0,1-5,.36q-3.56,0-5.07-1.15a4.56,4.56,0,0,1-1.55-3.86v-5.68c0-1.89.47-3.17,1.39-3.83s2.66-1,5.2-1,4.24.31,5.13.94,1.33,1.92,1.33,3.87v2.46a1.75,1.75,0,0,1-.41,1.18,1.36,1.36,0,0,1-1,.42h-8.8v1.82c0,1.52,1.32,2.28,4,2.27a22.6,22.6,0,0,0,3-.18A14.84,14.84,0,0,1,904.31,174Zm-8.87-7.77v1.6h7.47v-1.6a2,2,0,0,0-.75-1.8,6.19,6.19,0,0,0-2.95-.48,6.63,6.63,0,0,0-3,.45A1.92,1.92,0,0,0,895.44,166.26Z"/><path class="cls-1" d="M920.77,160c0-.66.47-1,1.4-1s1.39.34,1.39,1v6.56q0,2.93-1.47,3.84a9.55,9.55,0,0,1-4.88.93,22.78,22.78,0,0,1-4.55-.29v2.39h5.66c2.11,0,3.55.37,4.3,1.11a5.08,5.08,0,0,1,1.12,3.71c0,1.74-.5,2.93-1.51,3.58s-2.8,1-5.37,1-4.37-.29-5.41-.87-1.56-1.78-1.57-3.59V166.16a5.22,5.22,0,0,1,.85-3.39,4.77,4.77,0,0,1,3.29-1.18,26.12,26.12,0,0,1,6.75.32Zm-8.11,6.53c0,1.12.22,1.79.62,2a7.63,7.63,0,0,0,3,.35,13.72,13.72,0,0,0,3.22-.25,1.55,1.55,0,0,0,1.07-.75,4.83,4.83,0,0,0,.21-1.69v-1.84a33.92,33.92,0,0,0-4.42-.32,6.42,6.42,0,0,0-2.86.46,2,2,0,0,0-.83,1.89Zm0,9.39v2.56a1.49,1.49,0,0,0,1,1.47,9,9,0,0,0,3.28.43,6.75,6.75,0,0,0,3-.46,1.86,1.86,0,0,0,.78-1.76,1.91,1.91,0,0,0-.74-1.77,5.49,5.49,0,0,0-2.73-.47Z"/><path class="cls-1" d="M938.15,160c0-.66.47-1,1.39-1s1.4.34,1.4,1v6.56q0,2.93-1.47,3.84a9.55,9.55,0,0,1-4.88.93,22.71,22.71,0,0,1-4.55-.29v2.39h5.65c2.12,0,3.55.37,4.31,1.11a5.08,5.08,0,0,1,1.12,3.71c0,1.74-.51,2.93-1.52,3.58s-2.79,1-5.36,1-4.37-.29-5.41-.87-1.57-1.78-1.58-3.59V166.16a5.22,5.22,0,0,1,.86-3.39,4.74,4.74,0,0,1,3.28-1.18,26.2,26.2,0,0,1,6.76.32ZM930,166.51c0,1.12.21,1.79.62,2a7.63,7.63,0,0,0,3,.35,13.78,13.78,0,0,0,3.22-.25,1.55,1.55,0,0,0,1.07-.75,4.83,4.83,0,0,0,.21-1.69v-1.84a34.07,34.07,0,0,0-4.43-.32,6.37,6.37,0,0,0-2.85.46,2,2,0,0,0-.83,1.89Zm0,9.39v2.56a1.49,1.49,0,0,0,1,1.47,8.91,8.91,0,0,0,3.27.43,6.8,6.8,0,0,0,3.06-.46,1.86,1.86,0,0,0,.78-1.76,1.92,1.92,0,0,0-.75-1.77,5.49,5.49,0,0,0-2.73-.47Z"/></svg>