<svg id="Layer_1" data-name="Layer 1" xmlns="http://www.w3.org/2000/svg" viewBox="0 0 980 300"><defs><style>.cls-1{fill:#010121;}</style></defs><title>text</title><path class="cls-1" d="M248.47,137.84h1.7v10.7h13v-10.7h1.7v24.39h-1.7V150h-13v12.21h-1.7Z"/><path class="cls-1" d="M282.25,151.09c.08-2.7-.7-5.62-4.18-5.62a9.78,9.78,0,0,0-5.66,2.07l-.74-1.22a11.85,11.85,0,0,1,6.59-2.3c4.22,0,5.62,3,5.62,6.85v11.36h-1.37l-.18-2.3h-.08c-1.81,1.45-4,2.74-6.29,2.74-2.81,0-5.18-1.52-5.18-4.88C270.78,153.86,274.37,152,282.25,151.09Zm-6,10.18c2,0,3.85-1,6-2.89v-6c-7.29.85-9.77,2.55-9.77,5.36C272.48,160.27,274.19,161.27,276.22,161.27Z"/><path class="cls-1" d="M290.24,144.47h1.41l.15,3.29h.11c1.18-2.18,2.92-3.74,5-3.74a3.73,3.73,0,0,1,1.78.37l-.37,1.48a3.94,3.94,0,0,0-1.63-.29c-1.59,0-3.48,1.22-4.85,4.55v12.1h-1.63Z"/><path class="cls-1" d="M315.74,144c2.14,0,3.59.82,5.36,2.19L321,143v-7.33h1.63v26.61h-1.41l-.15-2.3H321a8.27,8.27,0,0,1-5.77,2.74c-4.48,0-7.37-3.29-7.37-9.29C307.85,147.65,311.52,144,315.74,144Zm-.3,17.21c2,0,3.7-1,5.59-2.92V147.76a7.49,7.49,0,0,0-5.18-2.29c-3.56,0-6.26,3.44-6.26,7.91C309.59,158.08,311.67,161.23,315.44,161.23Z"/><path class="cls-1" d="M335.72,144c4.21,0,6.8,3,6.8,8.22a8.47,8.47,0,0,1-.07,1.33h-12.8c.07,4.48,2.7,7.7,6.69,7.7a7.83,7.83,0,0,0,4.78-1.6l.66,1.26a9.87,9.87,0,0,1-5.58,1.74c-4.55,0-8.22-3.48-8.22-9.29S331.76,144,335.72,144Zm5.25,8.29c0-4.55-2-6.88-5.22-6.88-3,0-5.73,2.63-6.1,6.88Z"/><path class="cls-1" d="M347.33,144.47h1.41l.15,3.29H349c1.18-2.18,2.92-3.74,5-3.74a3.75,3.75,0,0,1,1.78.37l-.37,1.48a3.94,3.94,0,0,0-1.63-.29c-1.59,0-3.48,1.22-4.85,4.55v12.1h-1.63Z"/><path class="cls-1" d="M365,144c4.21,0,6.8,3,6.8,8.22a8.47,8.47,0,0,1-.07,1.33h-12.8c.07,4.48,2.7,7.7,6.69,7.7a7.83,7.83,0,0,0,4.78-1.6l.66,1.26a9.87,9.87,0,0,1-5.58,1.74c-4.55,0-8.22-3.48-8.22-9.29S361,144,365,144Zm5.25,8.29c0-4.55-2-6.88-5.22-6.88s-5.73,2.63-6.1,6.88Z"/><path class="cls-1" d="M383.67,144.47h1.62v11.17c0,3.78,1.19,5.55,4,5.55,2.11,0,3.66-1.11,5.73-3.62v-13.1h1.63v17.76h-1.37l-.18-3h-.08c-1.74,2-3.59,3.4-6,3.4-3.66,0-5.36-2.22-5.36-6.81Z"/><path class="cls-1" d="M410.31,137.1a4.8,4.8,0,0,0-2.15-.52c-1.89,0-2.78,1.48-2.78,4v3.85h4.11v1.4h-4.11v16.36h-1.62V145.87h-2.45v-1.26l2.45-.14v-4c0-3.52,1.59-5.33,4.4-5.33a6.58,6.58,0,0,1,2.59.59Z"/><path class="cls-1" d="M419.33,144c4.3,0,8,3.41,8,9.36s-3.7,9.29-8,9.29-7.95-3.4-7.95-9.29S415.08,144,419.33,144Zm0,17.21c3.59,0,6.29-3.18,6.29-7.85s-2.7-7.91-6.29-7.91-6.25,3.21-6.25,7.91S415.74,161.23,419.33,161.23Z"/><path class="cls-1" d="M432.65,144.47h1.41l.15,3.29h.11c1.18-2.18,2.92-3.74,5-3.74a3.75,3.75,0,0,1,1.78.37l-.37,1.48a3.94,3.94,0,0,0-1.63-.29c-1.59,0-3.48,1.22-4.85,4.55v12.1h-1.63Z"/><path class="cls-1" d="M444.12,144.47h1.63v11.17c0,3.78,1.18,5.55,4,5.55,2.11,0,3.67-1.11,5.74-3.62v-13.1h1.63v17.76h-1.37l-.19-3h-.07c-1.74,2-3.59,3.4-6,3.4-3.67,0-5.37-2.22-5.37-6.81Z"/><path class="cls-1" d="M464.36,145.87h-2.77v-1.26l2.81-.14.22-5.15H466v5.15h5.14v1.4H466v11.58c0,2.26.55,3.78,3,3.78a5.87,5.87,0,0,0,2.22-.56l.45,1.34a9.93,9.93,0,0,1-2.89.66c-3.44,0-4.44-2.18-4.44-5.36Z"/><path class="cls-1" d="M474.24,159a8.24,8.24,0,0,0,5.66,2.26c2.78,0,4.22-1.63,4.22-3.52,0-2.22-2.3-3.18-4.33-3.92-2.7-1-5.66-2-5.66-5.07,0-2.59,2-4.74,5.73-4.74a8.24,8.24,0,0,1,5.07,1.85l-.88,1.15a6.74,6.74,0,0,0-4.26-1.59c-2.74,0-4,1.59-4,3.22,0,2,2.08,2.81,4.19,3.59,2.77,1,5.8,2,5.8,5.44,0,2.66-2.14,5-6,5a10.28,10.28,0,0,1-6.51-2.44Z"/><path class="cls-1" d="M489.85,138.73a1.48,1.48,0,1,1,1.48,1.44A1.42,1.42,0,0,1,489.85,138.73Zm.63,5.74h1.63v17.76h-1.63Z"/><path class="cls-1" d="M500.1,161.56v-.15a3.15,3.15,0,0,1-1.55-2.85,4.17,4.17,0,0,1,1.92-3.25v-.15a6.63,6.63,0,0,1-2.22-4.88,6.11,6.11,0,0,1,6.26-6.26,6.2,6.2,0,0,1,2.33.45h6v1.37h-4.15a5.89,5.89,0,0,1,2,4.47,6.08,6.08,0,0,1-6.18,6.26,6.23,6.23,0,0,1-3-.74,3.21,3.21,0,0,0-1.44,2.55c0,1.29.74,2.33,3.41,2.33h3.81c4,0,5.84,1.26,5.84,4.07,0,3.07-3.29,6-8.39,6-4.48,0-7.3-1.92-7.3-4.92A5.61,5.61,0,0,1,500.1,161.56Zm4.85,7.88c4,0,6.55-2.25,6.55-4.47,0-2-1.44-2.71-4.11-2.71h-3.81a11.07,11.07,0,0,1-2.22-.29,4.64,4.64,0,0,0-2.33,3.74C499,167.93,501.18,169.44,505,169.44Zm4.14-19.16a4.62,4.62,0,1,0-9.21,0,4.62,4.62,0,1,0,9.21,0Z"/><path class="cls-1" d="M517,135.62h1.63v7.7l-.07,3.48c1.81-1.52,4-2.78,6.14-2.78,4.74,0,7.11,3.55,7.11,9.07,0,6-3.67,9.58-7.85,9.58a9.18,9.18,0,0,1-5.33-2.11h-.07l-.19,1.67H517Zm6.89,25.61c3.59,0,6.18-3.33,6.18-8.14,0-4.37-1.56-7.62-5.63-7.62-1.78,0-3.7,1-5.81,2.92v10.54A8.53,8.53,0,0,0,523.86,161.23Z"/><path class="cls-1" d="M547,151.09c.07-2.7-.7-5.62-4.18-5.62a9.75,9.75,0,0,0-5.66,2.07l-.74-1.22A11.84,11.84,0,0,1,543,144c4.22,0,5.63,3,5.63,6.85v11.36h-1.37l-.19-2.3H547c-1.81,1.45-4,2.74-6.29,2.74-2.81,0-5.18-1.52-5.18-4.88C535.55,153.86,539.14,152,547,151.09Zm-6,10.18c2,0,3.85-1,6-2.89v-6c-7.29.85-9.77,2.55-9.77,5.36C537.25,160.27,539,161.27,541,161.27Z"/><path class="cls-1" d="M555,144.47h1.41l.14,3.29h.12c1.18-2.18,2.92-3.74,5-3.74a3.71,3.71,0,0,1,1.77.37l-.37,1.48a3.87,3.87,0,0,0-1.62-.29c-1.6,0-3.48,1.22-4.85,4.55v12.1H555Z"/><path class="cls-1" d="M572.62,144c4.22,0,6.81,3,6.81,8.22a8.47,8.47,0,0,1-.07,1.33H566.55c.08,4.48,2.7,7.7,6.7,7.7a7.8,7.8,0,0,0,4.77-1.6l.67,1.26a9.9,9.9,0,0,1-5.59,1.74c-4.55,0-8.21-3.48-8.21-9.29S568.66,144,572.62,144Zm5.26,8.29c0-4.55-2-6.88-5.22-6.88-3,0-5.74,2.63-6.11,6.88Z"/><path class="cls-1" d="M591.68,137.84h1.7v24.39h-1.7Z"/><path class="cls-1" d="M605.55,139.32h-7.77v-1.48H615v1.48h-7.74v22.91h-1.7Z"/><path class="cls-1" d="M614.47,152.27h8.14v1.45h-8.14Z"/><path class="cls-1" d="M629.08,163.78v6.48h-1.62V144.47h1.4l.15,2.22h.11c1.74-1.37,3.85-2.67,6-2.67,4.74,0,7.11,3.55,7.11,9.07,0,6-3.67,9.58-7.85,9.58a9.39,9.39,0,0,1-5.33-2.18Zm5.26-2.55c3.59,0,6.18-3.33,6.18-8.14,0-4.37-1.56-7.62-5.63-7.62-1.77,0-3.66,1-5.81,2.92v10.54A8.71,8.71,0,0,0,634.34,161.23Z"/><path class="cls-1" d="M647.58,144.47H649l.14,3.29h.12c1.18-2.18,2.92-3.74,5-3.74a3.69,3.69,0,0,1,1.77.37l-.36,1.48a3.94,3.94,0,0,0-1.63-.29c-1.6,0-3.48,1.22-4.85,4.55v12.1h-1.63Z"/><path class="cls-1" d="M665.42,144c4.29,0,8,3.41,8,9.36s-3.7,9.29-8,9.29-8-3.4-8-9.29S661.16,144,665.42,144Zm0,17.21c3.59,0,6.29-3.18,6.29-7.85s-2.7-7.91-6.29-7.91-6.26,3.21-6.26,7.91S661.83,161.23,665.42,161.23Z"/><path class="cls-1" d="M677.48,159a8.2,8.2,0,0,0,5.66,2.26c2.77,0,4.22-1.63,4.22-3.52,0-2.22-2.3-3.18-4.33-3.92-2.7-1-5.66-2-5.66-5.07,0-2.59,2-4.74,5.73-4.74a8.24,8.24,0,0,1,5.07,1.85l-.89,1.15a6.69,6.69,0,0,0-4.25-1.59c-2.74,0-4,1.59-4,3.22,0,2,2.07,2.81,4.18,3.59,2.78,1,5.81,2,5.81,5.44,0,2.66-2.14,5-6,5a10.33,10.33,0,0,1-6.52-2.44Z"/><path class="cls-1" d="M693.72,144.47h1.66v21.05c0,3.48-1.25,5.18-4,5.18a6.66,6.66,0,0,1-2.29-.44l.4-1.34a6,6,0,0,0,1.85.37c2,0,2.37-1.62,2.37-3.88Zm-.63-5.74a1.44,1.44,0,0,1,1.48-1.48,1.46,1.46,0,1,1-1.48,1.48Z"/><path class="cls-1" d="M708.45,144c4.21,0,6.8,3,6.8,8.22a8.47,8.47,0,0,1-.07,1.33h-12.8c.07,4.48,2.7,7.7,6.7,7.7a7.82,7.82,0,0,0,4.77-1.6l.67,1.26a9.93,9.93,0,0,1-5.59,1.74c-4.55,0-8.22-3.48-8.22-9.29S704.49,144,708.45,144Zm5.25,8.29c0-4.55-2-6.88-5.22-6.88-3,0-5.73,2.63-6.1,6.88Z"/><path class="cls-1" d="M720.06,135.62h1.63v19.61h.08l8.77-10.76h1.88l-5.77,7,6.73,10.73h-1.81l-5.88-9.51-4,4.66v4.85h-1.63Z"/><path class="cls-1" d="M737.23,145.87h-2.77v-1.26l2.81-.14.22-5.15h1.41v5.15H744v1.4H738.9v11.58c0,2.26.55,3.78,3,3.78a5.87,5.87,0,0,0,2.22-.56l.45,1.34a9.93,9.93,0,0,1-2.89.66c-3.44,0-4.44-2.18-4.44-5.36Z"/><path class="cls-1" d="M755.55,142.76c0-2.29-1.3-4.32-4.18-4.32a6.15,6.15,0,0,0-4.78,2.36l-1-.92a7.71,7.71,0,0,1,5.89-2.89,5.41,5.41,0,0,1,5.77,5.66c0,5-6.22,7.29-5.51,12.95h-1.48C749.44,149.46,755.55,147.32,755.55,142.76Zm-4.44,16.54a1.69,1.69,0,0,1,0,3.37,1.69,1.69,0,0,1,0-3.37Z"/></svg>