<svg id="Layer_1" data-name="Layer 1" xmlns="http://www.w3.org/2000/svg" viewBox="0 0 980 300"><defs><style>.cls-1{fill:#001012;}</style></defs><title>text</title><path class="cls-1" d="M132,137.1h1.7V160h11.22v1.48H132Z"/><path class="cls-1" d="M154.76,143.28c4.22,0,6.81,3,6.81,8.22a8.53,8.53,0,0,1-.07,1.33H148.7c.07,4.48,2.7,7.7,6.69,7.7a7.85,7.85,0,0,0,4.78-1.6l.66,1.26a9.87,9.87,0,0,1-5.58,1.74c-4.56,0-8.22-3.48-8.22-9.29S150.8,143.28,154.76,143.28Zm5.26,8.29c0-4.55-2-6.88-5.22-6.88s-5.73,2.63-6.1,6.88Z"/><path class="cls-1" d="M165.12,158.27a8.24,8.24,0,0,0,5.66,2.26c2.78,0,4.22-1.63,4.22-3.52,0-2.22-2.29-3.18-4.33-3.92-2.7-1-5.66-2-5.66-5.07,0-2.59,2-4.74,5.74-4.74a8.29,8.29,0,0,1,5.07,1.85l-.89,1.15a6.72,6.72,0,0,0-4.26-1.59c-2.73,0-4,1.59-4,3.22,0,2,2.07,2.81,4.18,3.59,2.77,1,5.81,2,5.81,5.44,0,2.66-2.15,5-6,5a10.3,10.3,0,0,1-6.51-2.44Z"/><path class="cls-1" d="M188.73,134.88h1.63V146.5c1.85-1.85,3.7-3.22,6.14-3.22,3.66,0,5.36,2.22,5.36,6.81v11.4h-1.62V150.31c0-3.77-1.19-5.55-4.07-5.55-2.11,0-3.63,1.11-5.81,3.33v13.4h-1.63Z"/><path class="cls-1" d="M205.3,143.73h1.78l4,11.13c.55,1.71,1.22,3.48,1.77,5.11H213c.59-1.63,1.22-3.4,1.81-5.11l4-11.13h1.67l-6.59,17.76H212Z"/><path class="cls-1" d="M234.05,150.35c.08-2.7-.7-5.62-4.18-5.62a9.81,9.81,0,0,0-5.66,2.07l-.74-1.22a11.85,11.85,0,0,1,6.59-2.3c4.22,0,5.62,3,5.62,6.85v11.36h-1.37l-.18-2.3h-.08c-1.81,1.45-4,2.74-6.29,2.74-2.81,0-5.18-1.52-5.18-4.88C222.58,153.13,226.17,151.24,234.05,150.35Zm-6,10.18c2,0,3.85-1,6-2.89v-6c-7.28.85-9.76,2.55-9.76,5.36C224.29,159.53,226,160.53,228,160.53Z"/><path class="cls-1" d="M246.45,143.73h1.77l4,11.13c.56,1.71,1.22,3.48,1.78,5.11h.14c.6-1.63,1.23-3.4,1.82-5.11l4-11.13h1.67L255,161.49h-1.92Z"/><path class="cls-1" d="M275.2,150.35c.07-2.7-.71-5.62-4.18-5.62a9.82,9.82,0,0,0-5.67,2.07l-.74-1.22a11.85,11.85,0,0,1,6.59-2.3c4.22,0,5.63,3,5.63,6.85v11.36h-1.37l-.19-2.3h-.07c-1.82,1.45-4,2.74-6.29,2.74-2.81,0-5.18-1.52-5.18-4.88C263.73,153.13,267.32,151.24,275.2,150.35Zm-6,10.18c2,0,3.84-1,6-2.89v-6c-7.29.85-9.77,2.55-9.77,5.36C265.43,159.53,267.13,160.53,269.17,160.53ZM268,138.36a3.06,3.06,0,1,1,3.07,3.18A3,3,0,0,1,268,138.36Zm5,0a2,2,0,1,0-1.93,2.22A2,2,0,0,0,273,138.36Z"/><path class="cls-1" d="M283.19,143.73h1.41l.14,3.29h.11c1.19-2.18,2.93-3.74,5-3.74a3.71,3.71,0,0,1,1.77.37l-.37,1.48a3.88,3.88,0,0,0-1.63-.29c-1.59,0-3.47,1.22-4.84,4.55v12.1h-1.63Z"/><path class="cls-1" d="M300.8,143.28c4.22,0,6.81,3,6.81,8.22a8.53,8.53,0,0,1-.07,1.33H294.73c.08,4.48,2.7,7.7,6.7,7.7a7.82,7.82,0,0,0,4.77-1.6l.67,1.26a9.93,9.93,0,0,1-5.59,1.74c-4.55,0-8.21-3.48-8.21-9.29S296.84,143.28,300.8,143.28Zm5.26,8.29c0-4.55-2-6.88-5.22-6.88s-5.74,2.63-6.11,6.88Z"/><path class="cls-1" d="M319.78,134.88h1.63v19.61h.07l8.77-10.76h1.89l-5.77,7,6.73,10.73h-1.81L325.4,152l-4,4.66v4.85h-1.63Z"/><path class="cls-1" d="M336.28,143.73h1.63V154.9c0,3.78,1.18,5.55,4,5.55,2.11,0,3.67-1.11,5.74-3.62v-13.1h1.63v17.76h-1.37l-.19-3h-.07c-1.74,2-3.59,3.4-6,3.4-3.67,0-5.37-2.22-5.37-6.81Z"/><path class="cls-1" d="M356.11,143.73h1.41l.15,2.73h.11c1.81-1.81,3.66-3.18,6.11-3.18,3.66,0,5.36,2.22,5.36,6.81v11.4h-1.63V150.31c0-3.77-1.18-5.55-4.07-5.55-2.11,0-3.62,1.11-5.81,3.33v13.4h-1.63Z"/><path class="cls-1" d="M382.2,143.28c2.15,0,3.59.82,5.36,2.19l-.07-3.26v-7.33h1.63v26.61h-1.41l-.15-2.3h-.11a8.27,8.27,0,0,1-5.77,2.74c-4.48,0-7.36-3.29-7.36-9.29C374.32,146.91,378,143.28,382.2,143.28Zm-.3,17.21c2,0,3.7-1,5.59-2.92V147a7.49,7.49,0,0,0-5.18-2.29c-3.55,0-6.25,3.44-6.25,7.91C376.06,157.34,378.13,160.49,381.9,160.49Z"/><path class="cls-1" d="M402.18,143.28c4.22,0,6.81,3,6.81,8.22a7.48,7.48,0,0,1-.08,1.33h-12.8c.08,4.48,2.7,7.7,6.7,7.7a7.82,7.82,0,0,0,4.77-1.6l.67,1.26a9.93,9.93,0,0,1-5.59,1.74c-4.55,0-8.21-3.48-8.21-9.29S398.22,143.28,402.18,143.28Zm5.25,8.29c0-4.55-2-6.88-5.21-6.88s-5.74,2.63-6.11,6.88Z"/><path class="cls-1" d="M413.8,143.73h1.4l.15,3.29h.11c1.19-2.18,2.92-3.74,5-3.74a3.73,3.73,0,0,1,1.78.37l-.37,1.48a3.88,3.88,0,0,0-1.63-.29c-1.59,0-3.48,1.22-4.85,4.55v12.1H413.8Z"/><path class="cls-1" d="M431.63,158.27a8.24,8.24,0,0,0,5.66,2.26c2.78,0,4.22-1.63,4.22-3.52,0-2.22-2.29-3.18-4.33-3.92-2.7-1-5.66-2-5.66-5.07,0-2.59,2-4.74,5.73-4.74a8.24,8.24,0,0,1,5.07,1.85l-.88,1.15a6.74,6.74,0,0,0-4.26-1.59c-2.74,0-4,1.59-4,3.22,0,2,2.08,2.81,4.19,3.59,2.77,1,5.81,2,5.81,5.44,0,2.66-2.15,5-6,5a10.28,10.28,0,0,1-6.51-2.44Z"/><path class="cls-1" d="M447.24,138a1.48,1.48,0,1,1,1.48,1.44A1.42,1.42,0,0,1,447.24,138Zm.63,5.74h1.63v17.76h-1.63Z"/><path class="cls-1" d="M462.6,143.28c4.22,0,6.81,3,6.81,8.22a7.48,7.48,0,0,1-.08,1.33h-12.8c.07,4.48,2.7,7.7,6.7,7.7a7.82,7.82,0,0,0,4.77-1.6l.67,1.26a9.93,9.93,0,0,1-5.59,1.74c-4.55,0-8.22-3.48-8.22-9.29S458.64,143.28,462.6,143.28Zm5.25,8.29c0-4.55-2-6.88-5.21-6.88s-5.74,2.63-6.11,6.88Z"/><path class="cls-1" d="M474.22,143.73h1.4l.15,3.29h.11c1.18-2.18,2.92-3.74,5-3.74a3.73,3.73,0,0,1,1.78.37l-.37,1.48a3.91,3.91,0,0,0-1.63-.29c-1.59,0-3.48,1.22-4.85,4.55v12.1h-1.62Z"/><path class="cls-1" d="M499.78,143.28c4.29,0,8,3.41,8,9.36s-3.71,9.29-8,9.29-7.95-3.4-7.95-9.29S495.53,143.28,499.78,143.28Zm0,17.21c3.59,0,6.29-3.18,6.29-7.85s-2.7-7.91-6.29-7.91-6.25,3.21-6.25,7.91S496.19,160.49,499.78,160.49Z"/><path class="cls-1" d="M513.1,143.73h1.41l.14,2.73h.12c1.59-1.81,3.62-3.18,5.58-3.18a4.63,4.63,0,0,1,4.93,3.63c2-2.22,4-3.63,6-3.63,3.55,0,5.32,2.22,5.32,6.81v11.4H535V150.31c0-3.77-1.26-5.55-4-5.55-1.66,0-3.37,1.11-5.33,3.33v13.4h-1.63V150.31c0-3.77-1.26-5.55-4-5.55q-2.38,0-5.33,3.33v13.4H513.1Z"/><path class="cls-1" d="M557,143.28c4.3,0,8,3.41,8,9.36s-3.7,9.29-8,9.29-8-3.4-8-9.29S552.73,143.28,557,143.28Zm0,17.21c3.59,0,6.29-3.18,6.29-7.85s-2.7-7.91-6.29-7.91-6.25,3.21-6.25,7.91S553.39,160.49,557,160.49Z"/><path class="cls-1" d="M569,158.27a8.25,8.25,0,0,0,5.67,2.26c2.77,0,4.21-1.63,4.21-3.52,0-2.22-2.29-3.18-4.33-3.92-2.7-1-5.66-2-5.66-5.07,0-2.59,2-4.74,5.74-4.74a8.29,8.29,0,0,1,5.07,1.85l-.89,1.15a6.7,6.7,0,0,0-4.26-1.59c-2.73,0-4,1.59-4,3.22,0,2,2.07,2.81,4.18,3.59,2.77,1,5.81,2,5.81,5.44,0,2.66-2.15,5-6,5a10.3,10.3,0,0,1-6.51-2.44Z"/><path class="cls-1" d="M584,158.27a8.24,8.24,0,0,0,5.66,2.26c2.78,0,4.22-1.63,4.22-3.52,0-2.22-2.29-3.18-4.33-3.92-2.7-1-5.66-2-5.66-5.07,0-2.59,2-4.74,5.73-4.74a8.24,8.24,0,0,1,5.07,1.85l-.88,1.15a6.74,6.74,0,0,0-4.26-1.59c-2.74,0-4,1.59-4,3.22,0,2,2.08,2.81,4.19,3.59,2.77,1,5.8,2,5.8,5.44,0,2.66-2.14,5-6,5a10.28,10.28,0,0,1-6.51-2.44Z"/></svg>