<svg id="Layer_1" data-name="Layer 1" xmlns="http://www.w3.org/2000/svg" viewBox="0 0 980 300"><defs><style>.cls-1{fill:#010121;}</style></defs><title>text</title><path class="cls-1" d="M295.81,135.69h3.6v23.38h13.31v3.16H295.81Z"/><path class="cls-1" d="M316,135.69h3.3v3.68H316Zm0,7.28h3.3v19.26H316Z"/><path class="cls-1" d="M324.83,137.48h3.28v5.4h3.09v2.65h-3.09v12.63a1.37,1.37,0,0,0,.69,1.36,3,3,0,0,0,1.27.2l.5,0a3.9,3.9,0,0,0,.63-.06v2.59a7.22,7.22,0,0,1-1.16.23,10.8,10.8,0,0,1-1.31.07c-1.52,0-2.55-.38-3.09-1.16a5.21,5.21,0,0,1-.81-3V145.53h-2.62v-2.65h2.62Z"/><path class="cls-1" d="M346.41,143.41a7.38,7.38,0,0,1,2.92,2.5,8.74,8.74,0,0,1,1.3,3.42,22.71,22.71,0,0,1,.28,4.26H336.84a8.37,8.37,0,0,0,1.38,4.74,4.6,4.6,0,0,0,4,1.78,5.14,5.14,0,0,0,4-1.68,5.91,5.91,0,0,0,1.2-2.27h3.19a6.53,6.53,0,0,1-.84,2.37,8.11,8.11,0,0,1-1.59,2.14,7.47,7.47,0,0,1-3.64,2,11.11,11.11,0,0,1-2.63.28,8.07,8.07,0,0,1-6.09-2.62,10.31,10.31,0,0,1-2.5-7.37,11.16,11.16,0,0,1,2.52-7.57,8.25,8.25,0,0,1,6.57-2.91A8.81,8.81,0,0,1,346.41,143.41Zm1.16,7.6a8.41,8.41,0,0,0-.91-3.38,4.68,4.68,0,0,0-4.43-2.35,4.86,4.86,0,0,0-3.72,1.62,6.12,6.12,0,0,0-1.6,4.11Z"/><path class="cls-1" d="M366.83,137q1.14-1.66,4.39-1.66c.21,0,.42,0,.63,0l.74,0v3l-.74,0h-.43c-1,0-1.59.25-1.79.77a15.25,15.25,0,0,0-.29,3.91h3.25v2.56h-3.25v16.7h-3.21v-16.7h-2.7V143h2.7v-3A5.73,5.73,0,0,1,366.83,137Z"/><path class="cls-1" d="M389.61,144.81q2.56,2.49,2.57,7.33a12.66,12.66,0,0,1-2.26,7.72c-1.51,2-3.85,3-7,3a7.9,7.9,0,0,1-6.29-2.69,10.69,10.69,0,0,1-2.34-7.25,11.56,11.56,0,0,1,2.46-7.76,8.22,8.22,0,0,1,6.6-2.89A8.67,8.67,0,0,1,389.61,144.81Zm-2,12.86a12.19,12.19,0,0,0,1.19-5.44,9.63,9.63,0,0,0-.86-4.4,4.8,4.8,0,0,0-4.68-2.68,4.59,4.59,0,0,0-4.28,2.28,10.53,10.53,0,0,0-1.34,5.48,9.2,9.2,0,0,0,1.34,5.15,4.7,4.7,0,0,0,4.25,2.05A4.41,4.41,0,0,0,387.59,157.67Z"/><path class="cls-1" d="M396.26,142.88h3.09v3.34a7.38,7.38,0,0,1,1.86-2.38,4.85,4.85,0,0,1,3.42-1.4l.3,0,.74.08V146a3.69,3.69,0,0,0-.53-.07,4.44,4.44,0,0,0-.53,0,4.63,4.63,0,0,0-3.78,1.58,5.51,5.51,0,0,0-1.32,3.64v11.13h-3.25Z"/><path class="cls-1" d="M411.74,142.88v12.84a5.58,5.58,0,0,0,.46,2.42,3.17,3.17,0,0,0,3.15,1.74,4.43,4.43,0,0,0,4.5-3,12.16,12.16,0,0,0,.66-4.46v-9.5h3.25v19.35h-3.07l0-2.86a6.38,6.38,0,0,1-1.54,1.86,6.66,6.66,0,0,1-4.43,1.52q-4.06,0-5.53-2.76a8.41,8.41,0,0,1-.8-4V142.88Z"/><path class="cls-1" d="M429.72,137.48H433v5.4h3.09v2.65H433v12.63a1.38,1.38,0,0,0,.68,1.36,3,3,0,0,0,1.27.2l.5,0a3.91,3.91,0,0,0,.64-.06v2.59a7.57,7.57,0,0,1-1.17.23,10.68,10.68,0,0,1-1.31.07c-1.52,0-2.55-.38-3.09-1.16a5.21,5.21,0,0,1-.81-3V145.53H427.1v-2.65h2.62Z"/><path class="cls-1" d="M441.28,156.16a4.73,4.73,0,0,0,.83,2.49c.84,1,2.29,1.57,4.35,1.57a6.59,6.59,0,0,0,3.25-.78,2.62,2.62,0,0,0,1.4-2.43,2.06,2.06,0,0,0-1.12-1.9,13.27,13.27,0,0,0-2.83-.92l-2.62-.65a12.71,12.71,0,0,1-3.71-1.38,4.08,4.08,0,0,1-2.13-3.65,5.55,5.55,0,0,1,2-4.44,8.11,8.11,0,0,1,5.4-1.7q4.42,0,6.38,2.57a5.53,5.53,0,0,1,1.2,3.5H450.6a3.64,3.64,0,0,0-.79-2c-.77-.85-2.09-1.28-4-1.28a4.81,4.81,0,0,0-2.85.71,2.16,2.16,0,0,0-1,1.85,2.28,2.28,0,0,0,1.27,2,8.21,8.21,0,0,0,2.17.79l2.19.52a17.28,17.28,0,0,1,4.79,1.65,4.36,4.36,0,0,1,1.9,3.92,6,6,0,0,1-2,4.46c-1.32,1.25-3.34,1.88-6,1.88-2.92,0-5-.66-6.2-2a7.37,7.37,0,0,1-1.94-4.85Z"/><path class="cls-1" d="M457.85,135.69h3.31v3.68h-3.31Zm0,7.28h3.31v19.26h-3.31Z"/><path class="cls-1" d="M476.83,143.66a8.91,8.91,0,0,1,1.87,1.84v-2.44h3v17.6a13,13,0,0,1-1.08,5.81q-2,3.94-7.62,3.94a9.35,9.35,0,0,1-5.24-1.4,5.45,5.45,0,0,1-2.38-4.38h3.31a3.7,3.7,0,0,0,.93,2,4.76,4.76,0,0,0,3.45,1.08c2.48,0,4.11-.88,4.87-2.64a14.68,14.68,0,0,0,.63-5.54,6.43,6.43,0,0,1-2.34,2.2,8.38,8.38,0,0,1-9.1-1.51q-2.34-2.23-2.34-7.38c0-3.24.78-5.77,2.36-7.59a7.31,7.31,0,0,1,5.72-2.72A7,7,0,0,1,476.83,143.66Zm.39,3.48a4.71,4.71,0,0,0-3.75-1.73,4.65,4.65,0,0,0-4.68,3.21,12.81,12.81,0,0,0-.66,4.5,8,8,0,0,0,1.32,5,4.25,4.25,0,0,0,3.55,1.71,5,5,0,0,0,4.91-3.17,10.34,10.34,0,0,0,.79-4.17Q478.7,148.89,477.22,147.14Z"/><path class="cls-1" d="M486.38,135.6h3.16v9.63a7.16,7.16,0,0,1,2.56-2.13,7.28,7.28,0,0,1,3.22-.73,7.59,7.59,0,0,1,5.89,2.49c1.5,1.65,2.26,4.1,2.26,7.32a12.61,12.61,0,0,1-2.23,7.63,7.26,7.26,0,0,1-6.19,3,6.34,6.34,0,0,1-3.73-1.06,8.86,8.86,0,0,1-1.94-2v2.48h-3Zm12.43,22.27a10.24,10.24,0,0,0,1.32-5.53,9,9,0,0,0-1.32-5.05,4.34,4.34,0,0,0-3.87-2,5.43,5.43,0,0,0-3.91,1.64q-1.66,1.65-1.67,5.42a11.93,11.93,0,0,0,.69,4.43,4.75,4.75,0,0,0,4.8,3.2A4.37,4.37,0,0,0,498.81,157.87Z"/><path class="cls-1" d="M517.6,150.52a1.79,1.79,0,0,0,1.5-.94,3,3,0,0,0,.21-1.25,2.65,2.65,0,0,0-1.18-2.42,6.31,6.31,0,0,0-3.38-.76,4.28,4.28,0,0,0-3.61,1.38,4.65,4.65,0,0,0-.77,2.27h-3c.06-2.39.84-4.05,2.32-5a9.55,9.55,0,0,1,5.17-1.4,10.47,10.47,0,0,1,5.54,1.3,4.42,4.42,0,0,1,2.11,4V158.9a1.45,1.45,0,0,0,.21.82,1,1,0,0,0,.88.3l.48,0,.58-.08v2.4a10.66,10.66,0,0,1-1.15.27,8,8,0,0,1-1.09,0,2.67,2.67,0,0,1-2.44-1.19,4.72,4.72,0,0,1-.56-1.79,8.23,8.23,0,0,1-2.85,2.26,8.82,8.82,0,0,1-4.1,1,6.13,6.13,0,0,1-4.4-1.63,5.43,5.43,0,0,1-1.71-4.09A5.27,5.27,0,0,1,508,153a8,8,0,0,1,4.41-1.82Zm-6.85,8.78a3.82,3.82,0,0,0,2.44.81,7.4,7.4,0,0,0,3.32-.79,4.47,4.47,0,0,0,2.71-4.31v-2.62a5.46,5.46,0,0,1-1.53.64,12.7,12.7,0,0,1-1.84.36l-2,.25a7.58,7.58,0,0,0-2.65.74,2.88,2.88,0,0,0-1.51,2.7A2.66,2.66,0,0,0,510.75,159.3Z"/><path class="cls-1" d="M527.89,142.88H531v3.34a7.53,7.53,0,0,1,1.86-2.38,4.85,4.85,0,0,1,3.42-1.4l.3,0,.74.08V146a3.51,3.51,0,0,0-.53-.07,4.44,4.44,0,0,0-.53,0,4.63,4.63,0,0,0-3.78,1.58,5.51,5.51,0,0,0-1.32,3.64v11.13h-3.25Z"/><path class="cls-1" d="M552.07,143.41a7.34,7.34,0,0,1,2.93,2.5,8.58,8.58,0,0,1,1.29,3.42,21.68,21.68,0,0,1,.29,4.26H542.51a8.37,8.37,0,0,0,1.38,4.74,4.6,4.6,0,0,0,4,1.78,5.14,5.14,0,0,0,4-1.68,5.76,5.76,0,0,0,1.19-2.27h3.2a6.53,6.53,0,0,1-.84,2.37,8.57,8.57,0,0,1-1.59,2.14,7.47,7.47,0,0,1-3.64,2,11.2,11.2,0,0,1-2.64.28,8.06,8.06,0,0,1-6.08-2.62c-1.67-1.76-2.5-4.21-2.5-7.37a11.16,11.16,0,0,1,2.52-7.57,8.25,8.25,0,0,1,6.57-2.91A8.77,8.77,0,0,1,552.07,143.41Zm1.17,7.6a8.58,8.58,0,0,0-.91-3.38,4.68,4.68,0,0,0-4.43-2.35,4.86,4.86,0,0,0-3.72,1.62,6.12,6.12,0,0,0-1.6,4.11Z"/><path class="cls-1" d="M570.71,143h3.18v2.56a7.89,7.89,0,0,1,2.14-2,6.91,6.91,0,0,1,3.87-1.08,7.29,7.29,0,0,1,5.6,2.52q2.29,2.52,2.3,7.2,0,6.31-3.32,9a7.48,7.48,0,0,1-4.9,1.72,6.65,6.65,0,0,1-3.68-1,8.56,8.56,0,0,1-1.94-1.86v9.88h-3.25ZM583,158.14a9.14,9.14,0,0,0,1.51-5.7,10.76,10.76,0,0,0-.67-4,4.92,4.92,0,0,0-9.28.18,13.33,13.33,0,0,0-.67,4.59,9.66,9.66,0,0,0,.67,3.81,4.94,4.94,0,0,0,8.44,1.1Z"/><path class="cls-1" d="M591.65,142.88h3.09v3.34a7.38,7.38,0,0,1,1.86-2.38,4.83,4.83,0,0,1,3.41-1.4l.31,0,.74.08V146a3.69,3.69,0,0,0-.53-.07,4.44,4.44,0,0,0-.53,0,4.63,4.63,0,0,0-3.78,1.58,5.51,5.51,0,0,0-1.32,3.64v11.13h-3.25Z"/><path class="cls-1" d="M617.9,144.81q2.57,2.49,2.56,7.33a12.6,12.6,0,0,1-2.26,7.72c-1.5,2-3.84,3-7,3a7.94,7.94,0,0,1-6.3-2.69,10.74,10.74,0,0,1-2.33-7.25,11.56,11.56,0,0,1,2.46-7.76,8.22,8.22,0,0,1,6.6-2.89A8.67,8.67,0,0,1,617.9,144.81Zm-2,12.86a12.33,12.33,0,0,0,1.19-5.44,9.76,9.76,0,0,0-.86-4.4,4.82,4.82,0,0,0-4.68-2.68,4.6,4.6,0,0,0-4.29,2.28,10.62,10.62,0,0,0-1.34,5.48,9.28,9.28,0,0,0,1.34,5.15,4.7,4.7,0,0,0,4.25,2.05A4.42,4.42,0,0,0,615.88,157.67Z"/><path class="cls-1" d="M626.39,156.16a4.73,4.73,0,0,0,.83,2.49c.84,1,2.29,1.57,4.35,1.57a6.59,6.59,0,0,0,3.25-.78,2.62,2.62,0,0,0,1.4-2.43,2.06,2.06,0,0,0-1.12-1.9,13.27,13.27,0,0,0-2.83-.92l-2.62-.65a12.71,12.71,0,0,1-3.71-1.38,4.08,4.08,0,0,1-2.13-3.65,5.52,5.52,0,0,1,2-4.44,8.1,8.1,0,0,1,5.39-1.7q4.44,0,6.39,2.57a5.46,5.46,0,0,1,1.19,3.5h-3.07a3.64,3.64,0,0,0-.79-2c-.77-.85-2.09-1.28-4-1.28a4.84,4.84,0,0,0-2.86.71,2.18,2.18,0,0,0-1,1.85,2.29,2.29,0,0,0,1.28,2,8.08,8.08,0,0,0,2.17.79l2.19.52a17.28,17.28,0,0,1,4.79,1.65,4.35,4.35,0,0,1,1.89,3.92,5.94,5.94,0,0,1-2,4.46q-2,1.88-6.05,1.88c-2.91,0-5-.66-6.19-2a7.37,7.37,0,0,1-1.94-4.85Z"/><path class="cls-1" d="M639.89,167.12a6.45,6.45,0,0,0,2.63-.38c.29-.22.44-.88.44-2V143h3.25V165.1a5.81,5.81,0,0,1-.69,3.16q-1.14,1.77-4.31,1.77a4.26,4.26,0,0,1-.5,0l-.82-.07Zm6.32-27.67H643v-3.76h3.25Z"/><path class="cls-1" d="M663.13,143.41a7.41,7.41,0,0,1,2.93,2.5,8.89,8.89,0,0,1,1.29,3.42,22.51,22.51,0,0,1,.29,4.26H653.56a8.37,8.37,0,0,0,1.38,4.74,4.61,4.61,0,0,0,4,1.78,5.13,5.13,0,0,0,4-1.68,5.78,5.78,0,0,0,1.2-2.27h3.2a6.93,6.93,0,0,1-.84,2.37,8.36,8.36,0,0,1-1.6,2.14,7.47,7.47,0,0,1-3.64,2,11.05,11.05,0,0,1-2.63.28,8.08,8.08,0,0,1-6.09-2.62c-1.66-1.76-2.49-4.21-2.49-7.37a11.16,11.16,0,0,1,2.51-7.57,8.28,8.28,0,0,1,6.57-2.91A8.78,8.78,0,0,1,663.13,143.41Zm1.16,7.6a8.41,8.41,0,0,0-.91-3.38,4.66,4.66,0,0,0-4.42-2.35,4.87,4.87,0,0,0-3.73,1.62,6.22,6.22,0,0,0-1.6,4.11Z"/><path class="cls-1" d="M671.68,135.69h3.13V151.1l8.34-8.22h4.15l-7.43,7.19,7.85,12.16h-4.16l-6.08-9.85L674.81,155v7.27h-3.13Z"/><path class="cls-1" d="M690.91,137.48h3.28v5.4h3.09v2.65h-3.09v12.63a1.37,1.37,0,0,0,.69,1.36,2.92,2.92,0,0,0,1.26.2l.51,0a3.9,3.9,0,0,0,.63-.06v2.59a7.22,7.22,0,0,1-1.16.23,10.8,10.8,0,0,1-1.31.07c-1.52,0-2.55-.38-3.09-1.16a5.21,5.21,0,0,1-.81-3V145.53h-2.62v-2.65h2.62Z"/><path class="cls-1" d="M703.2,137.72a9.13,9.13,0,0,1,11.9-.34,6.81,6.81,0,0,1,2.17,5.19,5.6,5.6,0,0,1-.79,3.11,24,24,0,0,1-3.22,3.5A10.42,10.42,0,0,0,711,152a8.71,8.71,0,0,0-.53,3.44H707.2a11.65,11.65,0,0,1,.62-4.16,11,11,0,0,1,2.73-3.63l1.47-1.42A6.07,6.07,0,0,0,713.1,145a4.44,4.44,0,0,0,.75-2.43,4.67,4.67,0,0,0-1.08-3.08,5.33,5.33,0,0,0-7.83.94,8.57,8.57,0,0,0-.75,3.6H701A8.79,8.79,0,0,1,703.2,137.72Zm3.93,20.75h3.59v3.76h-3.59Z"/></svg>