<svg id="Layer_1" data-name="Layer 1" xmlns="http://www.w3.org/2000/svg" viewBox="0 0 980 300"><defs><style>.cls-1{fill:#fff;}</style></defs><title>text</title><path class="cls-1" d="M49.67,262.5H40.88c-.72,0-1.08-.28-1.08-.85V247.77q0-.87,1.08-.87t1.08.87v12.76h7.71c.49,0,.74.33.74,1S50.16,262.5,49.67,262.5Z"/><path class="cls-1" d="M61.48,260.44c.49,0,.74.29.74.89a1,1,0,0,1-.74,1.07,18.31,18.31,0,0,1-3.9.29,6.62,6.62,0,0,1-3.93-.9,3.51,3.51,0,0,1-1.19-3v-4.4c0-1.47.36-2.45,1.08-3s2.05-.76,4-.76a7.54,7.54,0,0,1,4,.72c.69.49,1,1.49,1,3v1.9a1.29,1.29,0,0,1-.32.91,1,1,0,0,1-.81.33H54.61V259c0,1.18,1,1.76,3.09,1.76a18.17,18.17,0,0,0,2.34-.14A11.28,11.28,0,0,1,61.48,260.44Zm-6.87-6v1.23H60.4v-1.23a1.53,1.53,0,0,0-.58-1.4,4.9,4.9,0,0,0-2.29-.37,5.22,5.22,0,0,0-2.3.35A1.52,1.52,0,0,0,54.61,254.42Z"/><path class="cls-1" d="M72.57,259v-.27a.88.88,0,0,0-.57-.83,4.77,4.77,0,0,0-2-.26,12.18,12.18,0,0,1-3.1-.43,2.58,2.58,0,0,1-1.4-.95A3.06,3.06,0,0,1,65,254.3v-.19a2.85,2.85,0,0,1,1.21-2.7,7.52,7.52,0,0,1,3.68-.7,14.91,14.91,0,0,1,3.66.32,1,1,0,0,1,.74,1.07c0,.6-.25.89-.74.89a14.13,14.13,0,0,1-1.51-.15,16.62,16.62,0,0,0-2.41-.16,6.09,6.09,0,0,0-1.87.21c-.4.14-.6.53-.6,1.18v.22c0,.86.89,1.31,2.67,1.36.75,0,1.49.1,2.24.19a3.47,3.47,0,0,1,1.9.83,2.49,2.49,0,0,1,.77,2V259a3.21,3.21,0,0,1-1.22,2.94,7.51,7.51,0,0,1-3.92.78,17.32,17.32,0,0,1-3.88-.31A1,1,0,0,1,65,261.3c0-.59.25-.89.74-.89.29,0,.86,0,1.7.15a18.92,18.92,0,0,0,2.46.16,5.14,5.14,0,0,0,2-.32A1.39,1.39,0,0,0,72.57,259Z"/><path class="cls-1" d="M85.62,247.29V251a15.78,15.78,0,0,1,3-.31,12.67,12.67,0,0,1,2.26.16,2.73,2.73,0,0,1,2.4,2.17,12.77,12.77,0,0,1,.21,2.61v6c0,.57-.36.85-1.08.85s-1.08-.28-1.08-.85v-5.79a13.85,13.85,0,0,0-.09-1.82,1.44,1.44,0,0,0-.5-.95,1.68,1.68,0,0,0-.84-.38,13.28,13.28,0,0,0-1.53-.06,20.53,20.53,0,0,0-2.76.25v8.75c0,.57-.36.85-1.07.85s-1.08-.28-1.08-.85V247.29q0-.87,1.08-.87C85.26,246.42,85.62,246.71,85.62,247.29Z"/><path class="cls-1" d="M101.63,262.62a1.84,1.84,0,0,1-1.15-.39,2.25,2.25,0,0,1-.73-1l-3.39-9.16a2.89,2.89,0,0,0-.09-.38c0-.57.35-.84,1-.84a1,1,0,0,1,1.05.63l3.21,9h.12l3.22-9a1.09,1.09,0,0,1,1.16-.63q.93,0,.93.84s0,.14-.07.38l-3.41,9.16a2,2,0,0,1-.73,1A1.93,1.93,0,0,1,101.63,262.62Z"/><path class="cls-1" d="M110.41,253c-.5,0-.75-.3-.75-.89a1,1,0,0,1,.75-1.08,16.78,16.78,0,0,1,3.89-.31c1.81,0,3,.28,3.68.86a3.92,3.92,0,0,1,1,3v4.63q0,2.16-1,2.82a8.44,8.44,0,0,1-4,.66,8.21,8.21,0,0,1-4-.66c-.67-.44-1-1.37-1-2.81a4.36,4.36,0,0,1,.77-3c.53-.54,1.6-.81,3.2-.81h4V254.2a1.3,1.3,0,0,0-.55-1.21,3.91,3.91,0,0,0-1.95-.34,15.58,15.58,0,0,0-2.45.17A8.78,8.78,0,0,1,110.41,253Zm6.38,6.41v-2h-3.33a4.09,4.09,0,0,0-2,.31c-.31.2-.46.66-.46,1.38s.19,1.19.58,1.39a5.75,5.75,0,0,0,2.29.3,6.83,6.83,0,0,0,2.31-.26A1,1,0,0,0,116.79,259.38Z"/><path class="cls-1" d="M132.41,262.62a1.79,1.79,0,0,1-1.14-.39,2.18,2.18,0,0,1-.73-1l-3.4-9.16c0-.24-.07-.37-.08-.38,0-.57.35-.84,1-.84a1,1,0,0,1,1.06.63l3.21,9h.11l3.23-9c.15-.42.54-.63,1.16-.63s.92.28.92.84c0,0,0,.14-.07.38l-3.41,9.16a2,2,0,0,1-.72,1A2,2,0,0,1,132.41,262.62Z"/><path class="cls-1" d="M141.17,253c-.5,0-.75-.3-.75-.89a1,1,0,0,1,.75-1.08,16.84,16.84,0,0,1,3.89-.31c1.81,0,3,.28,3.68.86a3.92,3.92,0,0,1,1,3v4.63q0,2.16-1.05,2.82a8.48,8.48,0,0,1-4,.66,8,8,0,0,1-4-.66c-.67-.44-1-1.37-1-2.81a4.3,4.3,0,0,1,.78-3c.52-.54,1.58-.81,3.19-.81h4V254.2A1.33,1.33,0,0,0,147,253a3.88,3.88,0,0,0-1.95-.34,15.67,15.67,0,0,0-2.45.17A8.78,8.78,0,0,1,141.17,253Zm6.39,6.41v-2h-3.32a4.11,4.11,0,0,0-2,.31q-.45.3-.45,1.38c0,.73.19,1.19.57,1.39a5.66,5.66,0,0,0,2.28.3,6.83,6.83,0,0,0,2.31-.26A1.07,1.07,0,0,0,147.56,259.38Zm-4.19-9.91a2.23,2.23,0,1,1,3.16,0,2.18,2.18,0,0,1-1.58.64A2.13,2.13,0,0,1,143.37,249.47Zm.62-1.59a1,1,0,0,0,.28.7,1,1,0,0,0,.69.27.9.9,0,0,0,.67-.29,1,1,0,0,0-.68-1.65,1,1,0,0,0-.69.28A.89.89,0,0,0,144,247.88Z"/><path class="cls-1" d="M155.21,255.68v6c0,.57-.36.85-1.07.85s-1.08-.28-1.09-.85V255.4a7.3,7.3,0,0,1,.39-3,3.75,3.75,0,0,1,.71-1c.51-.47,1.8-.7,3.86-.7a6.72,6.72,0,0,1,2.08.2.76.76,0,0,1,.53.77,1.13,1.13,0,0,1-.29.83,1,1,0,0,1-.74.27l-1.58-.11a6.72,6.72,0,0,0-1.84.15,1.47,1.47,0,0,0-.54.27,1.91,1.91,0,0,0-.26.54,3,3,0,0,0-.15.84C155.21,254.74,155.21,255.15,155.21,255.68Z"/><path class="cls-1" d="M171.38,260.44c.49,0,.74.29.74.89a1,1,0,0,1-.74,1.07,18.31,18.31,0,0,1-3.9.29,6.62,6.62,0,0,1-3.93-.9,3.48,3.48,0,0,1-1.19-3v-4.4c0-1.47.36-2.45,1.07-3a7.45,7.45,0,0,1,4-.76,7.56,7.56,0,0,1,4,.72c.68.49,1,1.49,1,3v1.9a1.33,1.33,0,0,1-.32.91,1,1,0,0,1-.81.33h-6.82V259c0,1.18,1,1.76,3.08,1.76a18.22,18.22,0,0,0,2.35-.14A11.28,11.28,0,0,1,171.38,260.44Zm-6.87-6v1.23h5.79v-1.23a1.53,1.53,0,0,0-.58-1.4,4.9,4.9,0,0,0-2.29-.37,5.22,5.22,0,0,0-2.3.35A1.52,1.52,0,0,0,164.51,254.42Z"/><path class="cls-1" d="M183.58,247.29v9.25l5.37-5.42a1.09,1.09,0,0,1,.79-.36,1,1,0,0,1,.75.3.9.9,0,0,1,.31.7,1.11,1.11,0,0,1-.39.8l-3.09,2.88,3.82,5.34a1.25,1.25,0,0,1,.23.71.89.89,0,0,1-.34.7,1.13,1.13,0,0,1-.8.33.8.8,0,0,1-.7-.39l-3.75-5.25-2.2,2v2.73c0,.57-.36.85-1.07.85s-1.08-.28-1.09-.85V247.29c0-.58.37-.87,1.09-.87S183.58,246.71,183.58,247.29Z"/><path class="cls-1" d="M197.09,260.71h2.23a3.27,3.27,0,0,0,.76-.13,1.39,1.39,0,0,0,.61-.37,1.55,1.55,0,0,0,.26-1c0-.48,0-1,0-1.54v-6c0-.56.36-.85,1.08-.85s1.08.28,1.08.85V258a14.13,14.13,0,0,1-.19,2.59,2.27,2.27,0,0,1-.83,1.39,3.15,3.15,0,0,1-1.46.6,25.07,25.07,0,0,1-4.9,0,3.07,3.07,0,0,1-1.45-.6,2.26,2.26,0,0,1-.82-1.39,14.91,14.91,0,0,1-.2-2.59v-6.27c0-.57.37-.85,1.09-.85s1.07.29,1.07.85v6a4.93,4.93,0,0,0,.39,2.61,1.18,1.18,0,0,0,.5.26A3.28,3.28,0,0,0,197.09,260.71Z"/><path class="cls-1" d="M209,253.07a4.83,4.83,0,0,0-.39,2.59v6c0,.57-.36.85-1.08.85s-1.07-.28-1.08-.85V255.4a12.25,12.25,0,0,1,.21-2.58,2.26,2.26,0,0,1,.84-1.41,3.23,3.23,0,0,1,1.48-.6,22.79,22.79,0,0,1,2.66-.12c2,0,3.29.23,3.82.73a3.2,3.2,0,0,1,.94,2.11c.05.51.08,1.13.08,1.87v6.25c0,.57-.36.85-1.08.85s-1.08-.28-1.08-.85v-6c0-1.44-.13-2.3-.41-2.58s-1.09-.43-2.46-.43S209.31,252.79,209,253.07Z"/><path class="cls-1" d="M230.4,247.29v9.5a14.65,14.65,0,0,1-.26,3.07,3.29,3.29,0,0,1-.95,1.78,3.39,3.39,0,0,1-1.59.83,11,11,0,0,1-2.5.22,12.74,12.74,0,0,1-2.51-.2,3.51,3.51,0,0,1-1.62-.84,3.25,3.25,0,0,1-.94-1.79,16.28,16.28,0,0,1-.25-3.07,15,15,0,0,1,.26-3.1,3.35,3.35,0,0,1,2.55-2.77,12.11,12.11,0,0,1,2.77-.23,7.08,7.08,0,0,1,2.88.47v-3.87q0-.87,1.08-.87T230.4,247.29Zm-8.21,6.76a6.14,6.14,0,0,0-.26,2.14c0,1,0,1.84.09,2.44a2.89,2.89,0,0,0,.6,1.58,1.89,1.89,0,0,0,1.41.48c.23,0,.59,0,1.07,0,1.41,0,2.23-.17,2.48-.51a3.15,3.15,0,0,0,.62-1.59,17.74,17.74,0,0,0,.09-1.82c0-1.86-.18-3-.53-3.38a3.67,3.67,0,0,0-.41-.44,2.85,2.85,0,0,0-1.68-.33q-1.3,0-1.65,0c-.74,0-1.2.21-1.4.49A6.59,6.59,0,0,0,222.19,254.05Z"/><path class="cls-1" d="M242.57,260.44c.49,0,.74.29.74.89a1,1,0,0,1-.74,1.07,18.31,18.31,0,0,1-3.9.29,6.62,6.62,0,0,1-3.93-.9,3.51,3.51,0,0,1-1.19-3v-4.4c0-1.47.36-2.45,1.08-3s2.05-.76,4-.76a7.54,7.54,0,0,1,4,.72c.69.49,1,1.49,1,3v1.9a1.29,1.29,0,0,1-.32.91,1,1,0,0,1-.81.33H235.7V259c0,1.18,1,1.76,3.09,1.76a18.17,18.17,0,0,0,2.34-.14A11.28,11.28,0,0,1,242.57,260.44Zm-6.87-6v1.23h5.79v-1.23a1.53,1.53,0,0,0-.58-1.4,4.9,4.9,0,0,0-2.29-.37,5.22,5.22,0,0,0-2.3.35A1.52,1.52,0,0,0,235.7,254.42Z"/><path class="cls-1" d="M249,255.68v6c0,.57-.36.85-1.07.85s-1.08-.28-1.09-.85V255.4a7.3,7.3,0,0,1,.39-3,3.75,3.75,0,0,1,.71-1c.51-.47,1.8-.7,3.86-.7a6.84,6.84,0,0,1,2.09.2.77.77,0,0,1,.52.77,1.09,1.09,0,0,1-.29.83,1,1,0,0,1-.74.27l-1.58-.11a6.77,6.77,0,0,0-1.84.15,1.56,1.56,0,0,0-.54.27,1.91,1.91,0,0,0-.26.54,3,3,0,0,0-.15.84C249,254.74,249,255.15,249,255.68Z"/><path class="cls-1" d="M269.29,259v-.27a.89.89,0,0,0-.56-.83,4.86,4.86,0,0,0-2-.26,12,12,0,0,1-3.09-.43,2.61,2.61,0,0,1-1.41-.95,3.12,3.12,0,0,1-.56-1.93v-.19a2.84,2.84,0,0,1,1.2-2.7,7.54,7.54,0,0,1,3.68-.7,14.91,14.91,0,0,1,3.66.32,1,1,0,0,1,.74,1.07c0,.6-.25.89-.74.89a14.13,14.13,0,0,1-1.51-.15,16.58,16.58,0,0,0-2.4-.16,6.12,6.12,0,0,0-1.88.21c-.4.14-.6.53-.6,1.18v.22c0,.86.89,1.31,2.68,1.36.74,0,1.48.1,2.23.19a3.44,3.44,0,0,1,1.9.83,2.5,2.5,0,0,1,.78,2V259a3.23,3.23,0,0,1-1.22,2.94,7.55,7.55,0,0,1-3.93.78,17.39,17.39,0,0,1-3.88-.31,1,1,0,0,1-.74-1.08c0-.59.25-.89.74-.89.29,0,.86,0,1.7.15a19.15,19.15,0,0,0,2.46.16,5.11,5.11,0,0,0,2-.32A1.39,1.39,0,0,0,269.29,259Z"/><path class="cls-1" d="M274.54,248.1a1.18,1.18,0,0,1,.35-.84,1.21,1.21,0,0,1,.82-.36,1.11,1.11,0,0,1,.83.36,1.21,1.21,0,0,1,.34.85,1.11,1.11,0,0,1-.35.82,1.15,1.15,0,0,1-1.65,0A1.15,1.15,0,0,1,274.54,248.1Zm2.25,3.62v9.93c0,.57-.36.85-1.08.85s-1.08-.28-1.08-.85v-9.93c0-.57.36-.85,1.08-.85S276.79,251.15,276.79,251.72Z"/><path class="cls-1" d="M289.26,260.44c.49,0,.74.29.74.89a1,1,0,0,1-.74,1.07,18.44,18.44,0,0,1-3.9.29,6.62,6.62,0,0,1-3.93-.9,3.51,3.51,0,0,1-1.2-3v-4.4c0-1.47.36-2.45,1.08-3a7.45,7.45,0,0,1,4-.76,7.59,7.59,0,0,1,4,.72c.68.49,1,1.49,1,3v1.9a1.33,1.33,0,0,1-.32.91,1.06,1.06,0,0,1-.81.33h-6.82V259c0,1.18,1,1.76,3.08,1.76a18.22,18.22,0,0,0,2.35-.14A11,11,0,0,1,289.26,260.44Zm-6.87-6v1.23h5.79v-1.23a1.53,1.53,0,0,0-.59-1.4,4.85,4.85,0,0,0-2.28-.37,5.19,5.19,0,0,0-2.3.35A1.52,1.52,0,0,0,282.39,254.42Z"/><path class="cls-1" d="M295.73,255.68v6c0,.57-.36.85-1.08.85s-1.07-.28-1.08-.85V255.4a7.3,7.3,0,0,1,.39-3,3.75,3.75,0,0,1,.71-1c.51-.47,1.8-.7,3.86-.7a6.72,6.72,0,0,1,2.08.2.76.76,0,0,1,.53.77,1.13,1.13,0,0,1-.29.83,1,1,0,0,1-.74.27l-1.58-.11a6.72,6.72,0,0,0-1.84.15,1.47,1.47,0,0,0-.54.27,1.67,1.67,0,0,0-.26.54,3,3,0,0,0-.15.84C295.73,254.74,295.73,255.15,295.73,255.68Z"/><path class="cls-1" d="M308.63,256.79a14.28,14.28,0,0,1,.27-3.1,3.32,3.32,0,0,1,2.55-2.77,13.76,13.76,0,0,1,5,0,3.44,3.44,0,0,1,1.62.91,3.75,3.75,0,0,1,.95,1.85,14.37,14.37,0,0,1,.26,3.1,14.21,14.21,0,0,1-.26,3.09,3.27,3.27,0,0,1-1,1.78,3.65,3.65,0,0,1-1.61.83,11.8,11.8,0,0,1-2.5.21,12.67,12.67,0,0,1-2.51-.2,3.41,3.41,0,0,1-1.62-.84,3.2,3.2,0,0,1-.95-1.79A14.76,14.76,0,0,1,308.63,256.79Zm2.41-2.74a6.2,6.2,0,0,0-.25,2.14c0,1,0,1.84.08,2.44a2.82,2.82,0,0,0,.61,1.58,1.87,1.87,0,0,0,1.4.48q.35,0,1.08,0c1.4,0,2.23-.17,2.48-.51a3.25,3.25,0,0,0,.62-1.59c.05-.58.08-1.19.08-1.82,0-1.86-.18-3-.53-3.38a3,3,0,0,0-.41-.44,2.85,2.85,0,0,0-1.68-.33q-1.31,0-1.65,0c-.74,0-1.2.21-1.39.49A5.39,5.39,0,0,0,311,254.05Z"/><path class="cls-1" d="M334.45,252.65c-.65,0-1.12,0-1.4,0a1.31,1.31,0,0,0-.75.35,1.27,1.27,0,0,0-.39.8c0,.33-.05.84-.05,1.53v6.27c0,.57-.36.85-1.08.85s-1.08-.28-1.08-.85v-6.59c0-1.1-.15-1.78-.43-2a3,3,0,0,0-1.8-.38c-.91,0-1.5,0-1.78,0a1.18,1.18,0,0,0-.74.39,1.48,1.48,0,0,0-.35.87c0,.35,0,.92,0,1.7v6c0,.57-.36.85-1.08.85s-1.07-.28-1.08-.85V255.4a7.77,7.77,0,0,1,.55-3.46,2.61,2.61,0,0,1,2.26-1.17,18.32,18.32,0,0,1,1.92-.08c1.86,0,3.08.22,3.65.67.56-.44,1.78-.67,3.64-.67a18.78,18.78,0,0,1,1.91.07,2.68,2.68,0,0,1,2.24,1.11,7.91,7.91,0,0,1,.59,3.53v6.25c0,.57-.36.85-1.08.85s-1.08-.28-1.08-.85v-6a16.88,16.88,0,0,0-.06-1.7,1.48,1.48,0,0,0-.35-.87,1.15,1.15,0,0,0-.74-.39C335.57,252.67,335.1,252.65,334.45,252.65Z"/><path class="cls-1" d="M348.17,256.79a15,15,0,0,1,.26-3.1,3.35,3.35,0,0,1,2.55-2.77,10.77,10.77,0,0,1,2.51-.23,10.65,10.65,0,0,1,2.51.23,3.44,3.44,0,0,1,1.62.91,3.75,3.75,0,0,1,.95,1.85,14.37,14.37,0,0,1,.26,3.1,14.21,14.21,0,0,1-.26,3.09,3.27,3.27,0,0,1-1,1.78,3.7,3.7,0,0,1-1.61.83,11.84,11.84,0,0,1-2.51.21,12.74,12.74,0,0,1-2.51-.2,3.51,3.51,0,0,1-1.62-.84,3.25,3.25,0,0,1-.94-1.79A14.76,14.76,0,0,1,348.17,256.79Zm2.41-2.74a6.14,6.14,0,0,0-.26,2.14c0,1,0,1.84.09,2.44a2.89,2.89,0,0,0,.6,1.58,1.89,1.89,0,0,0,1.41.48c.23,0,.59,0,1.07,0,1.41,0,2.23-.17,2.48-.51a3.07,3.07,0,0,0,.62-1.59,17.74,17.74,0,0,0,.09-1.82c0-1.86-.18-3-.53-3.38a3,3,0,0,0-.41-.44,2.85,2.85,0,0,0-1.68-.33q-1.31,0-1.65,0c-.74,0-1.2.21-1.4.49A6.59,6.59,0,0,0,350.58,254.05Z"/><path class="cls-1" d="M369.19,259v-.27a.89.89,0,0,0-.56-.83,4.86,4.86,0,0,0-2-.26,12,12,0,0,1-3.09-.43,2.64,2.64,0,0,1-1.41-.95,3.12,3.12,0,0,1-.56-1.93v-.19a2.83,2.83,0,0,1,1.21-2.7,7.49,7.49,0,0,1,3.68-.7,14.87,14.87,0,0,1,3.65.32,1,1,0,0,1,.74,1.07c0,.6-.25.89-.74.89a14.13,14.13,0,0,1-1.51-.15,16.58,16.58,0,0,0-2.4-.16,6.16,6.16,0,0,0-1.88.21c-.4.14-.59.53-.59,1.18v.22c0,.86.89,1.31,2.67,1.36.74,0,1.49.1,2.24.19a3.41,3.41,0,0,1,1.89.83,2.46,2.46,0,0,1,.78,2V259a3.23,3.23,0,0,1-1.22,2.94,7.53,7.53,0,0,1-3.93.78,17.45,17.45,0,0,1-3.88-.31,1,1,0,0,1-.73-1.08c0-.59.24-.89.73-.89.29,0,.86,0,1.7.15a19.15,19.15,0,0,0,2.46.16,5.11,5.11,0,0,0,2-.32A1.39,1.39,0,0,0,369.19,259Z"/><path class="cls-1" d="M381.11,259v-.27a.89.89,0,0,0-.56-.83,4.86,4.86,0,0,0-2-.26,12,12,0,0,1-3.09-.43,2.57,2.57,0,0,1-1.41-.95,3.05,3.05,0,0,1-.56-1.93v-.19a2.84,2.84,0,0,1,1.2-2.7,7.54,7.54,0,0,1,3.68-.7,14.91,14.91,0,0,1,3.66.32,1,1,0,0,1,.74,1.07c0,.6-.25.89-.74.89a14.13,14.13,0,0,1-1.51-.15,16.58,16.58,0,0,0-2.4-.16,6.12,6.12,0,0,0-1.88.21c-.4.14-.6.53-.6,1.18v.22c0,.86.89,1.31,2.68,1.36.74,0,1.48.1,2.23.19a3.44,3.44,0,0,1,1.9.83,2.5,2.5,0,0,1,.78,2V259a3.23,3.23,0,0,1-1.22,2.94,7.55,7.55,0,0,1-3.93.78,17.39,17.39,0,0,1-3.88-.31,1,1,0,0,1-.74-1.08c0-.59.25-.89.74-.89.29,0,.86,0,1.7.15a19.15,19.15,0,0,0,2.46.16,5.11,5.11,0,0,0,2-.32A1.39,1.39,0,0,0,381.11,259Z"/></svg>