<svg id="Layer_1" data-name="Layer 1" xmlns="http://www.w3.org/2000/svg" viewBox="0 0 980 300"><defs><style>.cls-1{fill:#001012;}</style></defs><title>text</title><path class="cls-1" d="M174.47,123.62h1.7v22.9h11.22V148H174.47Z"/><path class="cls-1" d="M190.79,124.5a1.48,1.48,0,1,1,3,0,1.48,1.48,0,0,1-3,0Zm.63,5.74H193V148h-1.62Z"/><path class="cls-1" d="M206.7,122.88a4.8,4.8,0,0,0-2.15-.52c-1.89,0-2.77,1.48-2.77,4v3.85h4.1v1.4h-4.1V148h-1.63V131.64h-2.44v-1.25l2.44-.15v-4c0-3.52,1.59-5.33,4.4-5.33a6.55,6.55,0,0,1,2.59.59Z"/><path class="cls-1" d="M209.62,121.39h1.63v24.46c0,.78.33,1.15.78,1.15a3,3,0,0,0,.66-.07l.3,1.33a3.55,3.55,0,0,1-1.19.18c-1.44,0-2.18-.88-2.18-2.81Z"/><path class="cls-1" d="M217.76,124.5a1.48,1.48,0,1,1,3,0,1.48,1.48,0,0,1-3,0Zm.63,5.74H220V148h-1.63Z"/><path class="cls-1" d="M228,147.33v-.14a3.17,3.17,0,0,1-1.56-2.85,4.19,4.19,0,0,1,1.93-3.26v-.15a6.63,6.63,0,0,1-2.22-4.88,6.11,6.11,0,0,1,6.25-6.26,6.36,6.36,0,0,1,2.33.45h6v1.37h-4.14a5.89,5.89,0,0,1,2,4.47,6.07,6.07,0,0,1-6.18,6.26,6.19,6.19,0,0,1-3-.74,3.19,3.19,0,0,0-1.44,2.55c0,1.3.74,2.33,3.4,2.33h3.81c4,0,5.85,1.26,5.85,4.07,0,3.08-3.29,6-8.4,6-4.48,0-7.29-1.93-7.29-4.92A5.61,5.61,0,0,1,228,147.33Zm4.85,7.88c4,0,6.55-2.25,6.55-4.47,0-2-1.45-2.7-4.11-2.7h-3.81a11.19,11.19,0,0,1-2.22-.3,4.64,4.64,0,0,0-2.33,3.74C226.94,153.7,229.08,155.21,232.86,155.21ZM237,136.05a4.62,4.62,0,1,0-9.21,0,4.62,4.62,0,1,0,9.21,0Z"/><path class="cls-1" d="M250.32,138.05h8.14v1.44h-8.14Z"/><path class="cls-1" d="M270.67,121.39h1.63v24.46c0,.78.33,1.15.77,1.15a3,3,0,0,0,.67-.07l.3,1.33a3.55,3.55,0,0,1-1.19.18c-1.44,0-2.18-.88-2.18-2.81Z"/><path class="cls-1" d="M285.69,129.79c4.22,0,6.81,3,6.81,8.22a8.47,8.47,0,0,1-.07,1.33H279.62c.08,4.48,2.7,7.7,6.7,7.7a7.87,7.87,0,0,0,4.77-1.59l.67,1.26a9.93,9.93,0,0,1-5.59,1.73c-4.55,0-8.21-3.47-8.21-9.28S281.73,129.79,285.69,129.79Zm5.26,8.29c0-4.55-2-6.88-5.22-6.88s-5.74,2.63-6.11,6.88Z"/><path class="cls-1" d="M294.79,130.24h1.78l4,11.14c.56,1.7,1.23,3.48,1.78,5.1h.15c.59-1.62,1.22-3.4,1.81-5.1l4-11.14H310L303.38,148h-1.93Z"/><path class="cls-1" d="M320.06,129.79c4.22,0,6.81,3,6.81,8.22a8.47,8.47,0,0,1-.07,1.33H314c.08,4.48,2.71,7.7,6.7,7.7a7.9,7.9,0,0,0,4.78-1.59l.66,1.26a9.9,9.9,0,0,1-5.59,1.73c-4.55,0-8.21-3.47-8.21-9.28S316.1,129.79,320.06,129.79Zm5.26,8.29c0-4.55-2-6.88-5.22-6.88s-5.74,2.63-6.11,6.88Z"/><path class="cls-1" d="M331.68,130.24h1.41l.14,3.29h.12c1.18-2.18,2.92-3.74,5-3.74a3.71,3.71,0,0,1,1.77.37l-.37,1.48a3.87,3.87,0,0,0-1.62-.29c-1.6,0-3.48,1.22-4.85,4.55V148h-1.63Z"/><path class="cls-1" d="M353,136.86c.07-2.7-.7-5.62-4.18-5.62a9.75,9.75,0,0,0-5.66,2.07l-.74-1.22a11.84,11.84,0,0,1,6.58-2.3c4.22,0,5.63,3,5.63,6.85V148h-1.37l-.19-2.29H353c-1.81,1.44-4,2.73-6.29,2.73-2.81,0-5.18-1.51-5.18-4.88C341.56,139.64,345.15,137.75,353,136.86ZM347,147c2,0,3.85-1,6-2.89v-6c-7.29.85-9.77,2.55-9.77,5.37C343.26,146,345,147,347,147Z"/><path class="cls-1" d="M361,130.24h1.41l.14,2.74h.12c1.81-1.82,3.66-3.19,6.1-3.19,3.66,0,5.37,2.23,5.37,6.81V148h-1.63V136.83c0-3.78-1.19-5.55-4.07-5.55-2.11,0-3.63,1.1-5.81,3.33V148H361Z"/><path class="cls-1" d="M379.45,144.78a8.2,8.2,0,0,0,5.66,2.26c2.77,0,4.22-1.63,4.22-3.52,0-2.22-2.3-3.18-4.33-3.92-2.7-1-5.66-2-5.66-5.07,0-2.59,2-4.74,5.73-4.74a8.24,8.24,0,0,1,5.07,1.85l-.89,1.15A6.69,6.69,0,0,0,385,131.2c-2.74,0-4,1.59-4,3.22,0,2,2.07,2.81,4.18,3.59,2.78,1,5.81,2,5.81,5.44,0,2.66-2.14,5-6,5a10.33,10.33,0,0,1-6.52-2.44Z"/><path class="cls-1" d="M401.94,129.79c4.22,0,6.81,3,6.81,8.22a8.47,8.47,0,0,1-.07,1.33H395.87c.08,4.48,2.71,7.7,6.7,7.7a7.9,7.9,0,0,0,4.78-1.59l.66,1.26a9.9,9.9,0,0,1-5.59,1.73c-4.55,0-8.21-3.47-8.21-9.28S398,129.79,401.94,129.79Zm5.26,8.29c0-4.55-2-6.88-5.22-6.88s-5.74,2.63-6.11,6.88Z"/><path class="cls-1" d="M413.56,130.24H415l.14,2.74h.12c1.59-1.82,3.62-3.19,5.58-3.19a4.62,4.62,0,0,1,4.92,3.63c2-2.22,4-3.63,6-3.63,3.55,0,5.32,2.23,5.32,6.81V148h-1.66V136.83c0-3.78-1.26-5.55-4-5.55-1.67,0-3.37,1.1-5.33,3.33V148h-1.63V136.83c0-3.78-1.26-5.55-4-5.55-1.59,0-3.37,1.1-5.33,3.33V148h-1.63Z"/><path class="cls-1" d="M450.08,129.79c4.29,0,8,3.41,8,9.37s-3.7,9.28-8,9.28-8-3.4-8-9.28S445.82,129.79,450.08,129.79Zm0,17.21c3.59,0,6.29-3.18,6.29-7.84s-2.7-7.92-6.29-7.92-6.25,3.22-6.25,7.92S446.49,147,450.08,147Z"/><path class="cls-1" d="M469.8,129.79c2.15,0,3.59.82,5.37,2.19l-.08-3.26v-7.33h1.63V148h-1.41l-.14-2.29h-.12a8.31,8.31,0,0,1-5.77,2.73c-4.47,0-7.36-3.29-7.36-9.28C461.92,133.42,465.58,129.79,469.8,129.79ZM469.5,147c2,0,3.7-1,5.59-2.92V133.53a7.53,7.53,0,0,0-5.18-2.29c-3.55,0-6.25,3.44-6.25,7.92C463.66,143.86,465.73,147,469.5,147Z"/><path class="cls-1" d="M489.78,129.79c4.22,0,6.81,3,6.81,8.22a7.43,7.43,0,0,1-.08,1.33h-12.8c.07,4.48,2.7,7.7,6.7,7.7a7.87,7.87,0,0,0,4.77-1.59l.67,1.26a9.93,9.93,0,0,1-5.59,1.73c-4.55,0-8.21-3.47-8.21-9.28S485.82,129.79,489.78,129.79Zm5.25,8.29c0-4.55-2-6.88-5.21-6.88s-5.74,2.63-6.11,6.88Z"/><path class="cls-1" d="M501.4,121.39H503v24.46c0,.78.33,1.15.77,1.15a3,3,0,0,0,.67-.07l.29,1.33a3.44,3.44,0,0,1-1.18.18c-1.44,0-2.18-.88-2.18-2.81Z"/><path class="cls-1" d="M510.17,121.39h1.62v24.46c0,.78.34,1.15.78,1.15a3,3,0,0,0,.67-.07l.29,1.33a3.44,3.44,0,0,1-1.18.18c-1.44,0-2.18-.88-2.18-2.81Z"/><path class="cls-1" d="M533.11,122.88a4.8,4.8,0,0,0-2.15-.52c-1.89,0-2.78,1.48-2.78,4v3.85h4.11v1.4h-4.11V148h-1.62V131.64h-2.45v-1.25l2.45-.15v-4c0-3.52,1.59-5.33,4.4-5.33a6.58,6.58,0,0,1,2.59.59Z"/><path class="cls-1" d="M542.13,129.79c4.3,0,8,3.41,8,9.37s-3.7,9.28-8,9.28-8-3.4-8-9.28S537.88,129.79,542.13,129.79Zm0,17.21c3.59,0,6.29-3.18,6.29-7.84s-2.7-7.92-6.29-7.92-6.25,3.22-6.25,7.92S538.54,147,542.13,147Z"/><path class="cls-1" d="M555.45,130.24h1.41l.15,3.29h.11c1.18-2.18,2.92-3.74,5-3.74a3.75,3.75,0,0,1,1.78.37l-.37,1.48a3.94,3.94,0,0,0-1.63-.29c-1.59,0-3.48,1.22-4.85,4.55V148h-1.63Z"/><path class="cls-1" d="M173.14,189.18a8.24,8.24,0,0,0,5.66,2.26c2.78,0,4.22-1.63,4.22-3.52,0-2.22-2.3-3.18-4.33-3.92-2.7-1-5.66-2-5.66-5.07,0-2.59,2-4.73,5.73-4.73a8.23,8.23,0,0,1,5.07,1.84l-.89,1.15a6.69,6.69,0,0,0-4.25-1.59c-2.74,0-4,1.59-4,3.22,0,2,2.08,2.81,4.18,3.59,2.78,1,5.81,2,5.81,5.44,0,2.66-2.14,5-6,5a10.28,10.28,0,0,1-6.51-2.44Z"/><path class="cls-1" d="M189.38,165.79H191v19.62h.07l8.77-10.77h1.89l-5.77,7,6.73,10.73h-1.81L195,182.89l-4,4.66v4.85h-1.63Z"/><path class="cls-1" d="M206.55,174.64H208l.14,3.29h.11c1.19-2.18,2.93-3.73,5-3.73a3.7,3.7,0,0,1,1.77.36l-.37,1.48a3.87,3.87,0,0,0-1.62-.29c-1.6,0-3.48,1.22-4.85,4.55v12.1h-1.63Z"/><path class="cls-1" d="M224.16,174.2c4.22,0,6.81,3,6.81,8.21a8.47,8.47,0,0,1-.07,1.33H218.09c.08,4.48,2.7,7.7,6.7,7.7a7.85,7.85,0,0,0,4.77-1.59l.67,1.26a9.93,9.93,0,0,1-5.59,1.73c-4.55,0-8.21-3.47-8.21-9.28S220.2,174.2,224.16,174.2Zm5.26,8.28c0-4.55-2-6.88-5.22-6.88-3,0-5.74,2.63-6.11,6.88Z"/><path class="cls-1" d="M242.18,174.2c2.15,0,3.59.81,5.37,2.18l-.08-3.26v-7.33h1.63V192.4h-1.41l-.14-2.29h-.11a8.35,8.35,0,0,1-5.78,2.73c-4.47,0-7.36-3.29-7.36-9.28C234.3,177.82,238,174.2,242.18,174.2Zm-.3,17.2c2,0,3.7-1,5.59-2.92V177.93a7.53,7.53,0,0,0-5.18-2.29c-3.55,0-6.25,3.44-6.25,7.92C236,188.26,238.11,191.4,241.88,191.4Z"/><path class="cls-1" d="M262.31,174.2a8.18,8.18,0,0,1,5.36,2.18l-.07-3.26v-7.33h1.63V192.4h-1.41l-.15-2.29h-.11a8.31,8.31,0,0,1-5.77,2.73c-4.48,0-7.36-3.29-7.36-9.28C254.43,177.82,258.09,174.2,262.31,174.2Zm-.3,17.2c2,0,3.7-1,5.59-2.92V177.93a7.53,7.53,0,0,0-5.18-2.29c-3.55,0-6.25,3.44-6.25,7.92C256.17,188.26,258.24,191.4,262,191.4Z"/><path class="cls-1" d="M282.29,174.2c4.22,0,6.81,3,6.81,8.21a7.43,7.43,0,0,1-.08,1.33h-12.8c.07,4.48,2.7,7.7,6.7,7.7a7.87,7.87,0,0,0,4.77-1.59l.67,1.26a9.93,9.93,0,0,1-5.59,1.73c-4.55,0-8.22-3.47-8.22-9.28S278.33,174.2,282.29,174.2Zm5.25,8.28c0-4.55-2-6.88-5.21-6.88s-5.74,2.63-6.11,6.88Z"/><path class="cls-1" d="M293.91,174.64h1.4l.15,3.29h.11c1.18-2.18,2.92-3.73,5-3.73a3.72,3.72,0,0,1,1.78.36L302,176a3.91,3.91,0,0,0-1.63-.29c-1.59,0-3.48,1.22-4.85,4.55v12.1h-1.62Z"/><path class="cls-1" d="M304,189.18a8.2,8.2,0,0,0,5.66,2.26c2.77,0,4.22-1.63,4.22-3.52,0-2.22-2.3-3.18-4.33-3.92-2.71-1-5.66-2-5.66-5.07,0-2.59,2-4.73,5.73-4.73A8.25,8.25,0,0,1,314.7,176l-.89,1.15a6.69,6.69,0,0,0-4.25-1.59c-2.74,0-4,1.59-4,3.22,0,2,2.07,2.81,4.18,3.59,2.78,1,5.81,2,5.81,5.44,0,2.66-2.15,5-6,5A10.33,10.33,0,0,1,303,190.4Z"/><path class="cls-1" d="M319.55,199c2.18,0,3.66-2,4.55-4.7l.48-1.56-7.29-18.09h1.77l4.3,11.17c.55,1.48,1.25,3.41,1.92,5h.15c.55-1.55,1.15-3.48,1.63-5l3.81-11.17h1.66l-7,20c-1,3-2.77,5.88-5.95,5.88a4.4,4.4,0,0,1-1.82-.37l.37-1.44A4.14,4.14,0,0,0,319.55,199Z"/><path class="cls-1" d="M342.78,174.2c2.15,0,3.59.81,5.37,2.18l-.08-3.26v-7.33h1.63V192.4h-1.4l-.15-2.29H348a8.35,8.35,0,0,1-5.78,2.73c-4.47,0-7.36-3.29-7.36-9.28C334.9,177.82,338.56,174.2,342.78,174.2Zm-.29,17.2c2,0,3.7-1,5.58-2.92V177.93a7.51,7.51,0,0,0-5.18-2.29c-3.55,0-6.25,3.44-6.25,7.92C336.64,188.26,338.71,191.4,342.49,191.4Z"/><path class="cls-1" d="M362.91,174.2c2.15,0,3.59.81,5.36,2.18l-.07-3.26v-7.33h1.63V192.4h-1.41l-.15-2.29h-.11a8.31,8.31,0,0,1-5.77,2.73c-4.48,0-7.36-3.29-7.36-9.28C355,177.82,358.69,174.2,362.91,174.2Zm-.3,17.2c2,0,3.7-1,5.59-2.92V177.93a7.53,7.53,0,0,0-5.18-2.29c-3.55,0-6.25,3.44-6.25,7.92C356.77,188.26,358.84,191.4,362.61,191.4Z"/><path class="cls-1" d="M382.74,189.18a8.24,8.24,0,0,0,5.66,2.26c2.78,0,4.22-1.63,4.22-3.52,0-2.22-2.29-3.18-4.33-3.92-2.7-1-5.66-2-5.66-5.07,0-2.59,2-4.73,5.73-4.73a8.23,8.23,0,0,1,5.07,1.84l-.88,1.15a6.74,6.74,0,0,0-4.26-1.59c-2.74,0-4,1.59-4,3.22,0,2,2.08,2.81,4.19,3.59,2.77,1,5.81,2,5.81,5.44,0,2.66-2.15,5-6,5a10.28,10.28,0,0,1-6.51-2.44Z"/><path class="cls-1" d="M405.46,174.2c4.29,0,8,3.4,8,9.36s-3.7,9.28-8,9.28-8-3.4-8-9.28S401.2,174.2,405.46,174.2Zm0,17.2c3.59,0,6.29-3.18,6.29-7.84s-2.7-7.92-6.29-7.92-6.26,3.22-6.26,7.92S401.87,191.4,405.46,191.4Z"/><path class="cls-1" d="M434.91,192.18a10.1,10.1,0,0,1-2.92.66c-3.41,0-4.41-2.18-4.41-5.36V176h-6.92V192.4H419V176h-2.45v-1.25l2.45-.15v-4c0-3.52,1.59-5.33,4.4-5.33a6.58,6.58,0,0,1,2.59.59l-.44,1.34a4.8,4.8,0,0,0-2.15-.52c-1.89,0-2.78,1.48-2.78,4v3.85h7l.22-5.14h1.37v5.14h5.18V176h-5.18v11.59c0,2.25.59,3.77,3,3.77a6.09,6.09,0,0,0,2.22-.55Z"/><path class="cls-1" d="M436.2,174.64H438l3.18,11.51c.45,1.62.85,3.14,1.22,4.73h.15c.41-1.59.85-3.11,1.3-4.73l3.22-11.51h2l3.22,11.51c.44,1.62.88,3.14,1.33,4.73h.15c.4-1.59.85-3.11,1.25-4.73l3.15-11.51h1.66l-5.1,17.76h-2.15l-3.11-11c-.51-1.7-.85-3.33-1.37-5.07h-.14c-.41,1.74-.85,3.45-1.41,5.15l-3.07,11h-2Z"/><path class="cls-1" d="M474.17,181.26c.07-2.7-.71-5.62-4.18-5.62a9.82,9.82,0,0,0-5.67,2.07l-.74-1.22a11.85,11.85,0,0,1,6.59-2.29c4.22,0,5.63,3,5.63,6.84V192.4h-1.37l-.19-2.29h-.07c-1.82,1.44-4,2.73-6.29,2.73-2.82,0-5.18-1.51-5.18-4.88C462.7,184,466.29,182.15,474.17,181.26Zm-6,10.18c2,0,3.84-1,6-2.89v-6c-7.29.85-9.77,2.55-9.77,5.37C464.4,190.44,466.1,191.44,468.14,191.44Z"/><path class="cls-1" d="M482.16,174.64h1.4l.15,3.29h.11c1.19-2.18,2.93-3.73,5-3.73a3.72,3.72,0,0,1,1.78.36l-.37,1.48a3.88,3.88,0,0,0-1.63-.29c-1.59,0-3.48,1.22-4.84,4.55v12.1h-1.63Z"/><path class="cls-1" d="M499.77,174.2c4.22,0,6.81,3,6.81,8.21a8.47,8.47,0,0,1-.07,1.33H493.7c.08,4.48,2.7,7.7,6.7,7.7a7.87,7.87,0,0,0,4.77-1.59l.67,1.26a9.93,9.93,0,0,1-5.59,1.73c-4.55,0-8.21-3.47-8.21-9.28S495.81,174.2,499.77,174.2Zm5.26,8.28c0-4.55-2-6.88-5.22-6.88s-5.74,2.63-6.11,6.88Z"/></svg>