<svg id="Layer_1" data-name="Layer 1" xmlns="http://www.w3.org/2000/svg" viewBox="0 0 980 300"><defs><style>.cls-1{fill:#010121;}</style></defs><title>text</title><path class="cls-1" d="M454.19,95.72h3.11v21.65h10.58V120H454.19Z"/><path class="cls-1" d="M471.25,96.35a2.11,2.11,0,0,1,4.21,0,2.11,2.11,0,0,1-4.21,0Zm.55,5.67h3v18h-3Z"/><path class="cls-1" d="M489,96.13a5.17,5.17,0,0,0-2-.44c-1.7,0-2.52,1.18-2.52,3.48V102h3.82v2.48h-3.82V120h-3V104.5H479v-2.3l2.44-.18V99.17c0-3.67,1.67-6,5.25-6a8.21,8.21,0,0,1,3,.59Z"/><path class="cls-1" d="M491.71,93.65h3v22.94c0,1,.41,1.34.85,1.34a2.4,2.4,0,0,0,.67-.08l.4,2.3a4.12,4.12,0,0,1-1.73.29c-2.3,0-3.22-1.44-3.22-4.07Z"/><path class="cls-1" d="M500.59,96.35a2.11,2.11,0,0,1,4.21,0,2.11,2.11,0,0,1-4.21,0Zm.55,5.67h3v18h-3Z"/><path class="cls-1" d="M511.5,119.37v-.15a3.3,3.3,0,0,1-1.59-2.92,4.22,4.22,0,0,1,2-3.33v-.15a6.37,6.37,0,0,1-2.33-4.85c0-3.92,3.11-6.4,6.77-6.4a7.1,7.1,0,0,1,2.55.45h6.26v2.33h-3.7a5.21,5.21,0,0,1,1.48,3.7c0,3.85-2.93,6.25-6.59,6.25a6.22,6.22,0,0,1-2.7-.63,2.74,2.74,0,0,0-1.15,2.15c0,1.14.74,2,3.18,2h3.48c4.18,0,6.29,1.29,6.29,4.29,0,3.33-3.51,6.22-9.1,6.22-4.4,0-7.44-1.74-7.44-4.85A5.19,5.19,0,0,1,511.5,119.37Zm5.25,6.81c3.45,0,5.7-1.78,5.7-3.66,0-1.67-1.29-2.23-3.62-2.23h-3.11a8.8,8.8,0,0,1-2.33-.29,3.77,3.77,0,0,0-1.85,3C511.54,125,513.5,126.18,516.75,126.18ZM520.12,108c0-2.62-1.7-4.18-3.81-4.18s-3.81,1.56-3.81,4.18,1.74,4.3,3.81,4.3S520.12,110.6,520.12,108Z"/><path class="cls-1" d="M530.48,102.46a2.31,2.31,0,1,1-2.22,2.33A2.19,2.19,0,0,1,530.48,102.46Zm0,13.32a2.23,2.23,0,0,1,2.18,2.37,2.2,2.2,0,1,1-4.4,0A2.24,2.24,0,0,1,530.48,115.78Z"/><path class="cls-1" d="M282.49,140h1.7V164.4h-1.7Z"/><path class="cls-1" d="M296.37,141.49H288.6V140h17.2v1.48h-7.73V164.4h-1.7Z"/><path class="cls-1" d="M305.28,154.45h8.15v1.44h-8.15Z"/><path class="cls-1" d="M318.27,137.79h1.63v24.46c0,.78.33,1.15.78,1.15a3,3,0,0,0,.66-.07l.3,1.33a3.49,3.49,0,0,1-1.18.18c-1.45,0-2.19-.88-2.19-2.81Z"/><path class="cls-1" d="M339.58,149.19a10.46,10.46,0,0,1,1.93,6.36c0,5.89-3.7,9.29-8,9.29a7.43,7.43,0,0,1-5.22-2.07l-2,2.44-1-.77,2.14-2.59a10.25,10.25,0,0,1-1.92-6.3c0-6,3.7-9.36,8-9.36a7.53,7.53,0,0,1,5.25,2.08l2-2.41,1,.78Zm-1.81.3a5.64,5.64,0,0,0-4.25-1.89c-3.59,0-6.29,3.26-6.29,7.92a9.38,9.38,0,0,0,1.33,5.07Zm-8.47,12.1a5.73,5.73,0,0,0,4.22,1.85c3.58,0,6.32-3.19,6.32-7.85a9.42,9.42,0,0,0-1.33-5.1Z"/><path class="cls-1" d="M345.58,161.18a8.22,8.22,0,0,0,5.66,2.26c2.77,0,4.22-1.63,4.22-3.52,0-2.22-2.3-3.18-4.33-3.92-2.7-1-5.66-2-5.66-5.07,0-2.59,2-4.74,5.73-4.74a8.24,8.24,0,0,1,5.07,1.85l-.89,1.15a6.69,6.69,0,0,0-4.25-1.59c-2.74,0-4,1.59-4,3.22,0,2,2.07,2.81,4.18,3.59,2.78,1,5.81,2,5.81,5.44,0,2.66-2.14,5-6,5a10.28,10.28,0,0,1-6.51-2.44Z"/><path class="cls-1" d="M361.82,146.64h1.41l.14,2.74h.12c1.81-1.82,3.66-3.19,6.1-3.19,3.66,0,5.37,2.22,5.37,6.81v11.4h-1.63V153.22c0-3.77-1.19-5.55-4.07-5.55-2.11,0-3.63,1.11-5.81,3.33v13.4h-1.63Z"/><path class="cls-1" d="M380.88,140.9a1.48,1.48,0,1,1,3,0,1.48,1.48,0,0,1-3,0Zm.62,5.74h1.63V164.4H381.5Z"/><path class="cls-1" d="M390,146.64h1.4l.15,2.74h.11c1.81-1.82,3.66-3.19,6.11-3.19,3.66,0,5.36,2.22,5.36,6.81v11.4h-1.63V153.22c0-3.77-1.18-5.55-4.07-5.55-2.11,0-3.62,1.11-5.81,3.33v13.4H390Z"/><path class="cls-1" d="M410.81,163.73v-.15a3.14,3.14,0,0,1-1.56-2.84,4.17,4.17,0,0,1,1.93-3.26v-.15a6.63,6.63,0,0,1-2.22-4.88,6.11,6.11,0,0,1,6.25-6.26,6.36,6.36,0,0,1,2.33.45h6V148h-4.14a5.89,5.89,0,0,1,2,4.47,6.07,6.07,0,0,1-6.18,6.26,6.16,6.16,0,0,1-3-.74,3.19,3.19,0,0,0-1.44,2.55c0,1.3.74,2.33,3.4,2.33H418c4,0,5.85,1.26,5.85,4.07,0,3.07-3.29,6-8.4,6-4.48,0-7.29-1.93-7.29-4.92A5.61,5.61,0,0,1,410.81,163.73Zm4.84,7.88c4,0,6.55-2.25,6.55-4.47,0-2-1.44-2.7-4.1-2.7h-3.81a11.19,11.19,0,0,1-2.22-.3,4.65,4.65,0,0,0-2.34,3.74C409.73,170.1,411.88,171.61,415.65,171.61Zm4.15-19.16a4.62,4.62,0,1,0-9.21,0,4.62,4.62,0,1,0,9.21,0Z"/><path class="cls-1" d="M434.41,140.9a1.48,1.48,0,1,1,1.48,1.45A1.44,1.44,0,0,1,434.41,140.9Zm.63,5.74h1.63V164.4H435Z"/><path class="cls-1" d="M450.88,137.79h1.63v24.46c0,.78.33,1.15.77,1.15a3,3,0,0,0,.67-.07l.29,1.33a3.44,3.44,0,0,1-1.18.18c-1.44,0-2.18-.88-2.18-2.81Z"/><path class="cls-1" d="M459,140.9a1.48,1.48,0,1,1,3,0,1.48,1.48,0,0,1-3,0Zm.63,5.74h1.62V164.4h-1.62Z"/><path class="cls-1" d="M465.16,146.64h1.78l4,11.14c.56,1.7,1.22,3.47,1.78,5.1h.15c.59-1.63,1.22-3.4,1.81-5.1l4-11.14h1.66l-6.59,17.76h-1.92Z"/><path class="cls-1" d="M482.92,161.18a8.24,8.24,0,0,0,5.66,2.26c2.78,0,4.22-1.63,4.22-3.52,0-2.22-2.3-3.18-4.33-3.92-2.7-1-5.66-2-5.66-5.07,0-2.59,2-4.74,5.73-4.74a8.24,8.24,0,0,1,5.07,1.85l-.89,1.15a6.69,6.69,0,0,0-4.25-1.59c-2.74,0-4,1.59-4,3.22,0,2,2.07,2.81,4.18,3.59,2.78,1,5.81,2,5.81,5.44,0,2.66-2.14,5-6,5A10.28,10.28,0,0,1,482,162.4Z"/><path class="cls-1" d="M499.16,137.79h1.63v24.46c0,.78.33,1.15.78,1.15a3,3,0,0,0,.66-.07l.3,1.33a3.51,3.51,0,0,1-1.19.18c-1.44,0-2.18-.88-2.18-2.81Z"/><path class="cls-1" d="M520.47,149.19a10.46,10.46,0,0,1,1.93,6.36c0,5.89-3.7,9.29-8,9.29a7.45,7.45,0,0,1-5.22-2.07l-2,2.44-1-.77,2.15-2.59a10.19,10.19,0,0,1-1.93-6.3c0-6,3.7-9.36,8-9.36a7.53,7.53,0,0,1,5.25,2.08l2-2.41,1,.78Zm-1.81.3a5.64,5.64,0,0,0-4.25-1.89c-3.59,0-6.29,3.26-6.29,7.92a9.38,9.38,0,0,0,1.33,5.07Zm-8.47,12.1a5.73,5.73,0,0,0,4.22,1.85c3.59,0,6.32-3.19,6.32-7.85a9.42,9.42,0,0,0-1.33-5.1Z"/><path class="cls-1" d="M529.35,166v6.48h-1.63V146.64h1.41l.15,2.22h.11c1.74-1.37,3.85-2.67,6-2.67,4.74,0,7.11,3.56,7.11,9.07,0,6-3.67,9.58-7.85,9.58a9.39,9.39,0,0,1-5.33-2.18Zm5.26-2.55c3.59,0,6.18-3.33,6.18-8.14,0-4.37-1.56-7.62-5.63-7.62-1.77,0-3.66,1-5.81,2.92v10.55A8.75,8.75,0,0,0,534.61,163.4Z"/><path class="cls-1" d="M546.59,161.18a8.25,8.25,0,0,0,5.67,2.26c2.77,0,4.21-1.63,4.21-3.52,0-2.22-2.29-3.18-4.33-3.92-2.7-1-5.66-2-5.66-5.07,0-2.59,2-4.74,5.74-4.74a8.26,8.26,0,0,1,5.07,1.85l-.89,1.15a6.7,6.7,0,0,0-4.26-1.59c-2.73,0-4,1.59-4,3.22,0,2,2.07,2.81,4.18,3.59,2.78,1,5.81,2,5.81,5.44,0,2.66-2.15,5-6,5a10.3,10.3,0,0,1-6.51-2.44Z"/><path class="cls-1" d="M564.47,166v6.48h-1.63V146.64h1.4l.15,2.22h.11c1.74-1.37,3.85-2.67,6-2.67,4.74,0,7.11,3.56,7.11,9.07,0,6-3.66,9.58-7.85,9.58a9.37,9.37,0,0,1-5.32-2.18Zm5.25-2.55c3.59,0,6.18-3.33,6.18-8.14,0-4.37-1.55-7.62-5.62-7.62-1.78,0-3.67,1-5.81,2.92v10.55A8.7,8.7,0,0,0,569.72,163.4Z"/><path class="cls-1" d="M589.22,146.19c4.22,0,6.81,3,6.81,8.22a7.43,7.43,0,0,1-.08,1.33h-12.8c.07,4.48,2.7,7.7,6.7,7.7a7.87,7.87,0,0,0,4.77-1.59l.67,1.25a9.85,9.85,0,0,1-5.59,1.74c-4.55,0-8.21-3.47-8.21-9.29S585.26,146.19,589.22,146.19Zm5.25,8.29c0-4.55-2-6.88-5.21-6.88s-5.74,2.63-6.11,6.88Z"/><path class="cls-1" d="M600.84,146.64h1.4l.15,3.29h.11c1.19-2.18,2.92-3.74,5-3.74a3.73,3.73,0,0,1,1.78.37l-.37,1.48a3.91,3.91,0,0,0-1.63-.29c-1.59,0-3.48,1.22-4.85,4.55v12.1h-1.62Z"/><path class="cls-1" d="M610.94,161.18a8.2,8.2,0,0,0,5.66,2.26c2.77,0,4.22-1.63,4.22-3.52,0-2.22-2.3-3.18-4.33-3.92-2.7-1-5.66-2-5.66-5.07,0-2.59,2-4.74,5.73-4.74a8.24,8.24,0,0,1,5.07,1.85l-.89,1.15a6.69,6.69,0,0,0-4.25-1.59c-2.74,0-4,1.59-4,3.22,0,2,2.07,2.81,4.18,3.59,2.78,1,5.81,2,5.81,5.44,0,2.66-2.14,5-6,5A10.33,10.33,0,0,1,610,162.4Z"/><path class="cls-1" d="M628.81,166v6.48h-1.63V146.64h1.41l.14,2.22h.12c1.73-1.37,3.84-2.67,6-2.67,4.73,0,7.1,3.56,7.1,9.07,0,6-3.66,9.58-7.84,9.58a9.37,9.37,0,0,1-5.33-2.18Zm5.25-2.55c3.59,0,6.18-3.33,6.18-8.14,0-4.37-1.55-7.62-5.62-7.62-1.78,0-3.67,1-5.81,2.92v10.55A8.7,8.7,0,0,0,634.06,163.4Z"/><path class="cls-1" d="M653.56,146.19c4.22,0,6.81,3,6.81,8.22a7.43,7.43,0,0,1-.08,1.33h-12.8c.08,4.48,2.7,7.7,6.7,7.7a7.87,7.87,0,0,0,4.77-1.59l.67,1.25a9.85,9.85,0,0,1-5.59,1.74c-4.55,0-8.21-3.47-8.21-9.29S649.6,146.19,653.56,146.19Zm5.25,8.29c0-4.55-2-6.88-5.21-6.88s-5.74,2.63-6.11,6.88Z"/><path class="cls-1" d="M665.18,137.79h1.63v19.62h.07l8.77-10.77h1.89l-5.78,7,6.74,10.73h-1.81l-5.89-9.51-4,4.66v4.85h-1.63Z"/><path class="cls-1" d="M682.35,148h-2.78v-1.25l2.81-.15.23-5.15H684v5.15h5.14V148H684v11.59c0,2.25.56,3.77,3,3.77a5.91,5.91,0,0,0,2.22-.56l.44,1.34a9.81,9.81,0,0,1-2.88.66c-3.44,0-4.44-2.18-4.44-5.36Z"/><path class="cls-1" d="M692.85,140.9a1.48,1.48,0,1,1,1.48,1.45A1.44,1.44,0,0,1,692.85,140.9Zm.63,5.74h1.63V164.4h-1.63Z"/><path class="cls-1" d="M699,146.64h1.77l4,11.14c.55,1.7,1.22,3.47,1.77,5.1h.15c.59-1.63,1.22-3.4,1.82-5.1l4-11.14h1.67l-6.59,17.76h-1.92Z"/><path class="cls-1" d="M370.59,198.36h8.51v2.34h-8.51Z"/><path class="cls-1" d="M401.26,197.4c0-2.29-.78-4.51-3.7-4.51a9.65,9.65,0,0,0-5.36,1.92L391,192.7a13.35,13.35,0,0,1,7.06-2.33c4.41,0,6.26,2.92,6.26,7.4v11h-2.52l-.26-2.15h-.07a9.76,9.76,0,0,1-6,2.59c-3,0-5.29-1.88-5.29-5.1C390.2,200.21,393.6,198.25,401.26,197.4Zm-4.92,9.4c1.74,0,3.18-.85,4.92-2.4v-5c-6,.74-8.06,2.22-8.06,4.51C393.2,206,394.56,206.8,396.34,206.8Z"/><path class="cls-1" d="M410,182.45h3v22.94c0,1,.41,1.34.86,1.34a2.34,2.34,0,0,0,.66-.08L415,209a4.21,4.21,0,0,1-1.74.29c-2.29,0-3.22-1.44-3.22-4.07Z"/><path class="cls-1" d="M419.46,182.45h3v22.94c0,1,.41,1.34.85,1.34a2.4,2.4,0,0,0,.67-.08l.4,2.3a4.14,4.14,0,0,1-1.74.29c-2.29,0-3.22-1.44-3.22-4.07Z"/><path class="cls-1" d="M429.42,193.29h-2.67V191l2.82-.18.37-5h2.55v5h4.85v2.47h-4.85v10c0,2.22.7,3.47,2.77,3.47a6.6,6.6,0,0,0,2-.48l.59,2.3a11.2,11.2,0,0,1-3.33.66c-3.85,0-5.14-2.44-5.14-6Z"/><path class="cls-1" d="M440.85,185.15a2.12,2.12,0,0,1,4.22,0,2.11,2.11,0,0,1-4.22,0Zm.56,5.67h3v18h-3Z"/><path class="cls-1" d="M457,190.37a7.43,7.43,0,0,1,5,2.07l-.15-3.07v-6.92H465V208.8h-2.52l-.26-2.11h-.11a8.11,8.11,0,0,1-5.44,2.55c-4.52,0-7.44-3.4-7.44-9.4C449.21,194,452.91,190.37,457,190.37Zm.3,16.32c1.66,0,3.1-.81,4.58-2.48v-9.4a6.23,6.23,0,0,0-4.36-1.89c-2.89,0-5.18,2.78-5.18,6.89C452.36,204.1,454.17,206.69,457.32,206.69Z"/><path class="cls-1" d="M485.51,190.37c4.4,0,8.32,3.44,8.32,9.47s-3.92,9.4-8.32,9.4-8.33-3.44-8.33-9.4S481.11,190.37,485.51,190.37Zm0,16.36c3.11,0,5.18-2.78,5.18-6.89s-2.07-7-5.18-7-5.18,2.81-5.18,7S482.44,206.73,485.51,206.73Z"/><path class="cls-1" d="M501.6,210.32v6.06h-3V190.82h2.52l.25,2.07h.12a9.27,9.27,0,0,1,5.73-2.52c4.63,0,7.1,3.59,7.1,9.18,0,6.1-3.66,9.69-7.76,9.69a8.32,8.32,0,0,1-5-2.07Zm4.41-3.63c3,0,5.14-2.7,5.14-7.14,0-4-1.33-6.63-4.74-6.63-1.51,0-3,.86-4.81,2.45v9.43A7.12,7.12,0,0,0,506,206.69Z"/><path class="cls-1" d="M522.14,210.32v6.06h-3V190.82h2.52l.26,2.07H522a9.32,9.32,0,0,1,5.74-2.52c4.62,0,7.1,3.59,7.1,9.18,0,6.1-3.66,9.69-7.77,9.69a8.32,8.32,0,0,1-5-2.07Zm4.4-3.63c3,0,5.15-2.7,5.15-7.14,0-4-1.34-6.63-4.74-6.63-1.52,0-3,.86-4.81,2.45v9.43A7.12,7.12,0,0,0,526.54,206.69Z"/><path class="cls-1" d="M546.15,190.37a7.43,7.43,0,0,1,5,2.07l-.14-3.07v-6.92h3.07V208.8h-2.52l-.26-2.11h-.11a8.11,8.11,0,0,1-5.44,2.55c-4.51,0-7.44-3.4-7.44-9.4C538.34,194,542,190.37,546.15,190.37Zm.3,16.32c1.66,0,3.1-.81,4.59-2.48v-9.4a6.27,6.27,0,0,0-4.37-1.89c-2.89,0-5.18,2.78-5.18,6.89C541.49,204.1,543.3,206.69,546.45,206.69Z"/><path class="cls-1" d="M570.35,197.4c0-2.29-.78-4.51-3.7-4.51a9.71,9.71,0,0,0-5.37,1.92l-1.22-2.11a13.39,13.39,0,0,1,7.07-2.33c4.4,0,6.25,2.92,6.25,7.4v11h-2.51l-.26-2.15h-.08a9.73,9.73,0,0,1-5.95,2.59c-3,0-5.29-1.88-5.29-5.1C559.29,200.21,562.69,198.25,570.35,197.4Zm-4.92,9.4c1.74,0,3.18-.85,4.92-2.4v-5c-6,.74-8.07,2.22-8.07,4.51C562.28,206,563.65,206.8,565.43,206.8Z"/><path class="cls-1" d="M579.63,193.29H577V191l2.81-.18.37-5h2.56v5h4.84v2.47h-4.84v10c0,2.22.7,3.47,2.77,3.47a6.66,6.66,0,0,0,2-.48l.59,2.3a11.2,11.2,0,0,1-3.33.66c-3.85,0-5.15-2.44-5.15-6Z"/><path class="cls-1" d="M598,190.37c4.59,0,7.18,3.29,7.18,8.44a9.83,9.83,0,0,1-.12,1.66H592.92c.22,3.89,2.55,6.33,6,6.33a8,8,0,0,0,4.48-1.41l1.07,2a10.7,10.7,0,0,1-5.92,1.85c-4.81,0-8.62-3.51-8.62-9.4S593.88,190.37,598,190.37Zm4.51,8.1c0-3.66-1.63-5.69-4.44-5.69-2.52,0-4.81,2.07-5.18,5.69Z"/><path class="cls-1" d="M609.6,190.82h2.52l.26,3.25h.11c1.22-2.26,3.07-3.7,5.11-3.7a4.45,4.45,0,0,1,1.92.37l-.59,2.67a4.91,4.91,0,0,0-1.74-.3c-1.52,0-3.33,1.11-4.55,4.14V208.8h-3Z"/><path class="cls-1" d="M623,193.29H620.3V191l2.81-.18.37-5H626v5h4.85v2.47H626v10c0,2.22.7,3.47,2.78,3.47a6.54,6.54,0,0,0,2-.48l.59,2.3a11.13,11.13,0,0,1-3.33.66c-3.84,0-5.14-2.44-5.14-6Z"/></svg>