<svg id="Layer_1" data-name="Layer 1" xmlns="http://www.w3.org/2000/svg" viewBox="0 0 980 300"><defs><style>.cls-1{fill:#fff;}</style></defs><title>text</title><path class="cls-1" d="M34.88,73.46V91.4c0,.73-.46,1.09-1.39,1.09s-1.39-.36-1.39-1.09V73.46c0-.74.46-1.12,1.39-1.12S34.88,72.72,34.88,73.46Zm12.47,0a1.57,1.57,0,0,1-.5,1.06l-7.62,8,8.18,8a1,1,0,0,1,.35.83,1.49,1.49,0,0,1-1.42,1.39,1.44,1.44,0,0,1-1-.45l-7.72-7.51q-2.13-2,0-4.34L45,72.65a1.36,1.36,0,0,1,1-.47,1.3,1.3,0,0,1,1,.39A1.12,1.12,0,0,1,47.35,73.45Z"/><path class="cls-1" d="M54.91,90.18h2.88a3.59,3.59,0,0,0,1-.17,1.78,1.78,0,0,0,.79-.47,2,2,0,0,0,.34-1.25c0-.61,0-1.28,0-2V78.57c0-.73.47-1.09,1.39-1.09s1.4.36,1.4,1.09v8.09A17.85,17.85,0,0,1,62.48,90a3,3,0,0,1-1.08,1.8,4,4,0,0,1-1.88.77,24.59,24.59,0,0,1-3.17.15,24.42,24.42,0,0,1-3.16-.15,3.94,3.94,0,0,1-1.87-.77A2.84,2.84,0,0,1,50.26,90,18.41,18.41,0,0,1,50,86.66V78.57c0-.73.48-1.09,1.4-1.09s1.39.36,1.39,1.09v7.74c0,1.88.16,3,.5,3.37a1.54,1.54,0,0,0,.65.33A3.66,3.66,0,0,0,54.91,90.18Z"/><path class="cls-1" d="M70.35,80.31c-.35.35-.52,1.47-.52,3.35V91.4c0,.73-.46,1.09-1.38,1.09s-1.39-.36-1.4-1.09V83.32A16,16,0,0,1,67.32,80a2.93,2.93,0,0,1,1.09-1.82,4.09,4.09,0,0,1,1.91-.77,28.67,28.67,0,0,1,3.43-.17c2.61,0,4.25.31,4.94,1a4.09,4.09,0,0,1,1.21,2.72,23.49,23.49,0,0,1,.1,2.41V91.4c0,.73-.46,1.09-1.39,1.09s-1.39-.36-1.39-1.09V83.66c0-1.86-.18-3-.53-3.34s-1.42-.54-3.19-.54S70.69,80,70.35,80.31Z"/><path class="cls-1" d="M97.93,72.84V85.12a18.92,18.92,0,0,1-.34,4,4.32,4.32,0,0,1-1.22,2.3,4.53,4.53,0,0,1-2.06,1.07,15.12,15.12,0,0,1-3.22.27,16.34,16.34,0,0,1-3.24-.25,4.42,4.42,0,0,1-2.09-1.08,4.09,4.09,0,0,1-1.22-2.31,20.5,20.5,0,0,1-.33-4,19.48,19.48,0,0,1,.34-4,4.31,4.31,0,0,1,3.3-3.57,15.82,15.82,0,0,1,3.57-.31,9.22,9.22,0,0,1,3.72.62v-5c0-.74.46-1.12,1.39-1.12S97.93,72.1,97.93,72.84Zm-10.6,8.73A8,8,0,0,0,87,84.34c0,1.32,0,2.37.1,3.16a3.74,3.74,0,0,0,.79,2,2.44,2.44,0,0,0,1.81.62c.3,0,.77,0,1.39,0,1.81,0,2.88-.22,3.2-.65a4.06,4.06,0,0,0,.8-2.06,22.12,22.12,0,0,0,.11-2.34c0-2.41-.23-3.87-.68-4.37A3.79,3.79,0,0,0,94,80.2a3.71,3.71,0,0,0-2.17-.42q-1.68,0-2.13,0c-1,.06-1.55.27-1.8.64A7.08,7.08,0,0,0,87.33,81.57Z"/><path class="cls-1" d="M113.65,89.83c.64,0,1,.38,1,1.15a1.25,1.25,0,0,1-1,1.39,24.37,24.37,0,0,1-5,.36q-3.54,0-5.07-1.15A4.54,4.54,0,0,1,102,87.72V82.05c0-1.9.46-3.18,1.39-3.83s2.66-1,5.19-1,4.25.32,5.13.94S115,80.09,115,82.05V84.5a1.73,1.73,0,0,1-.4,1.18,1.39,1.39,0,0,1-1,.42h-8.81v1.82q0,2.28,4,2.27a22.86,22.86,0,0,0,3-.18A16.44,16.44,0,0,1,113.65,89.83Zm-8.87-7.78v1.6h7.48v-1.6a2,2,0,0,0-.76-1.8,6.2,6.2,0,0,0-3-.47,6.73,6.73,0,0,0-3,.44A2,2,0,0,0,104.78,82.05Z"/><path class="cls-1" d="M130.14,80.19a7.38,7.38,0,0,1-1.55-.2,15.53,15.53,0,0,0-3-.21,6.37,6.37,0,0,0-2.83.47,1.9,1.9,0,0,0-.92,1.86v5.8c0,1.53,1.32,2.29,4,2.28a14.19,14.19,0,0,0,2.72-.2,9,9,0,0,1,1.55-.19c.64,0,1,.38,1,1.15a1.26,1.26,0,0,1-1,1.39,20.79,20.79,0,0,1-4.74.39,7.87,7.87,0,0,1-4.75-1.15,4.55,4.55,0,0,1-1.55-3.86V82.05c0-1.88.49-3.15,1.45-3.82a8.78,8.78,0,0,1,4.77-1,16.9,16.9,0,0,1,4.82.5,1.23,1.23,0,0,1,1,1.35Q131.1,80.19,130.14,80.19Z"/><path class="cls-1" d="M135.48,80.19c-.65,0-1-.39-1-1.15a1.26,1.26,0,0,1,1-1.4,21.64,21.64,0,0,1,5-.41c2.35,0,3.93.38,4.76,1.12s1.25,2.05,1.25,3.91v6c0,1.87-.45,3.08-1.36,3.65s-2.65.84-5.21.84-4.3-.28-5.17-.84-1.32-1.78-1.32-3.63.34-3.14,1-3.83,2.06-1.06,4.14-1.05h5.14v-1.6A1.74,1.74,0,0,0,143,80.2a5.35,5.35,0,0,0-2.53-.42,20.51,20.51,0,0,0-3.16.21A12.18,12.18,0,0,1,135.48,80.19Zm8.25,8.28V85.83h-4.31a5.28,5.28,0,0,0-2.59.4c-.4.26-.59.85-.59,1.78s.24,1.54.74,1.8a7.44,7.44,0,0,0,3,.38,9,9,0,0,0,3-.33A1.38,1.38,0,0,0,143.73,88.47Z"/><path class="cls-1" d="M160.17,87.94v-.35a1.13,1.13,0,0,0-.73-1.07,6.14,6.14,0,0,0-2.53-.34,15.47,15.47,0,0,1-4-.56,3.28,3.28,0,0,1-1.82-1.23,4,4,0,0,1-.73-2.48v-.25c0-1.74.52-2.9,1.56-3.49a9.8,9.8,0,0,1,4.76-.91,20,20,0,0,1,4.72.41,1.26,1.26,0,0,1,1,1.4c0,.76-.32,1.15-1,1.15a18.53,18.53,0,0,1-1.95-.2,21.83,21.83,0,0,0-3.11-.21,7.94,7.94,0,0,0-2.42.27c-.51.18-.77.69-.77,1.53v.29c0,1.1,1.15,1.68,3.45,1.75,1,0,1.92.12,2.89.24A4.41,4.41,0,0,1,162,85a3.18,3.18,0,0,1,1,2.59v.38c0,1.85-.52,3.12-1.57,3.79a9.75,9.75,0,0,1-5.07,1,22.48,22.48,0,0,1-5-.39,1.26,1.26,0,0,1-1-1.39c0-.77.32-1.15,1-1.15.37,0,1.1.06,2.19.19a24.91,24.91,0,0,0,3.18.2,6.65,6.65,0,0,0,2.53-.41A1.79,1.79,0,0,0,160.17,87.94Z"/><path class="cls-1" d="M178.35,89.83c.63,0,1,.38,1,1.15a1.25,1.25,0,0,1-1,1.39,24.37,24.37,0,0,1-5,.36c-2.36,0-4.06-.38-5.07-1.15a4.55,4.55,0,0,1-1.55-3.86V82.05c0-1.9.47-3.18,1.39-3.83s2.66-1,5.2-1,4.24.32,5.13.94,1.33,1.92,1.33,3.88V84.5a1.74,1.74,0,0,1-.41,1.18,1.36,1.36,0,0,1-1.05.42h-8.8v1.82c0,1.52,1.32,2.28,4,2.27a22.86,22.86,0,0,0,3-.18A16,16,0,0,1,178.35,89.83Zm-8.87-7.78v1.6H177v-1.6a2,2,0,0,0-.76-1.8,6.22,6.22,0,0,0-2.95-.47,6.67,6.67,0,0,0-3,.44A1.94,1.94,0,0,0,169.48,82.05Z"/><path class="cls-1" d="M184.48,80.31a1.69,1.69,0,0,1-.5-1.26,1.81,1.81,0,0,1,.51-1.29,1.69,1.69,0,0,1,1.26-.53,1.75,1.75,0,0,1,1.27.53,1.77,1.77,0,0,1,.53,1.28,1.69,1.69,0,0,1-.53,1.25,1.79,1.79,0,0,1-1.29.52A1.7,1.7,0,0,1,184.48,80.31ZM184,91a1.77,1.77,0,0,1,.51-1.28,1.66,1.66,0,0,1,1.26-.53,1.71,1.71,0,0,1,1.27.53,1.73,1.73,0,0,1,.53,1.27,1.69,1.69,0,0,1-.53,1.25,1.77,1.77,0,0,1-1.29.5,1.73,1.73,0,0,1-1.25-.48A1.64,1.64,0,0,1,184,91Z"/><path class="cls-1" d="M215.64,73.46V91.4c0,.73-.47,1.09-1.4,1.09s-1.38-.36-1.38-1.09V83.2h-9.73v8.2c0,.73-.47,1.09-1.4,1.09s-1.39-.36-1.39-1.09V73.46c0-.74.46-1.12,1.39-1.12s1.4.38,1.4,1.12v7.19h9.73V73.46c0-.74.46-1.12,1.38-1.12S215.63,72.72,215.64,73.46Z"/><path class="cls-1" d="M222.52,80.19c-.65,0-1-.39-1-1.15a1.26,1.26,0,0,1,1-1.4,21.58,21.58,0,0,1,5-.41c2.34,0,3.93.38,4.75,1.12s1.26,2.05,1.26,3.91v6c0,1.87-.45,3.08-1.36,3.65s-2.65.84-5.22.84-4.29-.28-5.17-.84-1.31-1.78-1.31-3.63.33-3.14,1-3.83,2.06-1.06,4.14-1.05h5.13v-1.6a1.72,1.72,0,0,0-.71-1.58,5.27,5.27,0,0,0-2.52-.42,20.65,20.65,0,0,0-3.17.21A12.09,12.09,0,0,1,222.52,80.19Zm8.24,8.28V85.83h-4.3a5.33,5.33,0,0,0-2.6.4c-.39.26-.59.85-.59,1.78s.25,1.54.74,1.8a7.47,7.47,0,0,0,3,.38,8.92,8.92,0,0,0,3-.33A1.37,1.37,0,0,0,230.76,88.47Z"/><path class="cls-1" d="M242,77.34v.15H246q1,0,1,1.23c0,.81-.32,1.22-1,1.22H242V91.4c0,.73-.47,1.09-1.4,1.09s-1.39-.36-1.39-1.09V79.94h-2c-.63,0-1-.41-1-1.22s.32-1.23,1-1.23h2V77c0-2.13.37-3.54,1.09-4.22s2.1-1,4.09-1a8.62,8.62,0,0,1,2.69.27,1,1,0,0,1,.68,1,1.31,1.31,0,0,1-.37,1,1.38,1.38,0,0,1-1,.36l-2-.09c-1,0-1.66.17-1.95.52A4.5,4.5,0,0,0,242,77.34Z"/><path class="cls-1" d="M258.75,87.94v-.35a1.13,1.13,0,0,0-.72-1.07,6.17,6.17,0,0,0-2.53-.34,15.6,15.6,0,0,1-4-.56,3.29,3.29,0,0,1-1.81-1.23,3.93,3.93,0,0,1-.73-2.48v-.25c0-1.74.52-2.9,1.56-3.49a9.75,9.75,0,0,1,4.75-.91,20,20,0,0,1,4.72.41,1.26,1.26,0,0,1,1,1.4c0,.76-.32,1.15-1,1.15A18.78,18.78,0,0,1,258,80a21.68,21.68,0,0,0-3.1-.21,7.89,7.89,0,0,0-2.42.27q-.78.27-.78,1.53v.29c0,1.1,1.15,1.68,3.46,1.75.95,0,1.92.12,2.89.24A4.44,4.44,0,0,1,260.54,85a3.21,3.21,0,0,1,1,2.59v.38c0,1.85-.53,3.12-1.58,3.79a9.75,9.75,0,0,1-5.07,1,22.48,22.48,0,0,1-5-.39,1.26,1.26,0,0,1-.95-1.39c0-.77.32-1.15.95-1.15.38,0,1.11.06,2.2.19a24.91,24.91,0,0,0,3.18.2,6.56,6.56,0,0,0,2.52-.41A1.78,1.78,0,0,0,258.75,87.94Z"/><path class="cls-1" d="M268.44,72.84V91.4c0,.73-.46,1.09-1.39,1.09s-1.39-.36-1.39-1.09V72.84c0-.74.46-1.12,1.39-1.12S268.44,72.1,268.44,72.84Z"/><path class="cls-1" d="M277.92,90.18h2.88a3.59,3.59,0,0,0,1-.17,1.78,1.78,0,0,0,.79-.47,2,2,0,0,0,.34-1.25c0-.61,0-1.28,0-2V78.57c0-.73.47-1.09,1.39-1.09s1.4.36,1.4,1.09v8.09a16.89,16.89,0,0,1-.25,3.35,2.94,2.94,0,0,1-1.07,1.8,4,4,0,0,1-1.88.77,33.47,33.47,0,0,1-6.33,0,3.94,3.94,0,0,1-1.87-.77,2.84,2.84,0,0,1-1.06-1.8,18.41,18.41,0,0,1-.26-3.35V78.57c0-.73.48-1.09,1.4-1.09s1.39.36,1.39,1.09v7.74c0,1.88.16,3,.5,3.37A1.54,1.54,0,0,0,277,90,3.66,3.66,0,0,0,277.92,90.18Z"/><path class="cls-1" d="M293.36,80.31c-.35.35-.52,1.47-.52,3.35V91.4c0,.73-.46,1.09-1.38,1.09s-1.39-.36-1.41-1.09V83.32a15.84,15.84,0,0,1,.28-3.33,2.93,2.93,0,0,1,1.09-1.82,4.1,4.1,0,0,1,1.9-.77,29,29,0,0,1,3.44-.17c2.6,0,4.25.31,4.94,1a4.14,4.14,0,0,1,1.21,2.72,23.49,23.49,0,0,1,.1,2.41V91.4c0,.73-.46,1.09-1.39,1.09s-1.39-.36-1.39-1.09V83.66c0-1.86-.18-3-.53-3.34s-1.42-.54-3.19-.54S293.7,80,293.36,80.31Z"/><path class="cls-1" d="M320.94,72.84V85.12a18.92,18.92,0,0,1-.34,4,4.32,4.32,0,0,1-1.22,2.3,4.53,4.53,0,0,1-2.06,1.07,15.12,15.12,0,0,1-3.22.27,16.34,16.34,0,0,1-3.24-.25,4.42,4.42,0,0,1-2.09-1.08,4.09,4.09,0,0,1-1.22-2.31,20.5,20.5,0,0,1-.33-4,19.48,19.48,0,0,1,.34-4,4.31,4.31,0,0,1,3.3-3.57,15.82,15.82,0,0,1,3.57-.31,9.22,9.22,0,0,1,3.72.62v-5c0-.74.46-1.12,1.39-1.12S320.94,72.1,320.94,72.84Zm-10.6,8.73a8,8,0,0,0-.33,2.77c0,1.32,0,2.37.1,3.16a3.74,3.74,0,0,0,.79,2,2.44,2.44,0,0,0,1.81.62c.3,0,.77,0,1.39,0,1.81,0,2.88-.22,3.2-.65a4.06,4.06,0,0,0,.8-2.06c.07-.75.11-1.53.11-2.34,0-2.41-.23-3.87-.68-4.37a3.79,3.79,0,0,0-.53-.57,3.71,3.71,0,0,0-2.17-.42q-1.68,0-2.13,0c-.95.06-1.55.27-1.8.64A7.08,7.08,0,0,0,310.34,81.57Z"/><path class="cls-1" d="M347.68,92.49c-.84,0-1.35-.28-1.54-.83l-2.05-5.74h-7.87l-2.07,5.74c-.18.55-.7.83-1.55.83s-1.27-.38-1.28-1.15a1.18,1.18,0,0,1,.1-.5L337.68,74a2.62,2.62,0,0,1,.95-1.29,2.47,2.47,0,0,1,1.54-.5,2.38,2.38,0,0,1,1.52.5,2.89,2.89,0,0,1,.95,1.29l6.21,16.86.09.5C348.94,92.11,348.52,92.49,347.68,92.49ZM340.16,75l-3.08,8.52h6.15l-3-8.52Z"/><path class="cls-1" d="M366.19,86.51q0,3.24-1.81,4.73c-1.22,1-3.29,1.49-6.22,1.49a24.14,24.14,0,0,1-5-.39q-1.75-.39-1.74-1.53a1.39,1.39,0,0,1,.3-.92,1,1,0,0,1,.74-.38,14.21,14.21,0,0,1,2.08.35,15.42,15.42,0,0,0,3.33.33,9.11,9.11,0,0,0,4.29-.71,2.9,2.9,0,0,0,1.2-2.68,2.75,2.75,0,0,0-.61-1.9,2.91,2.91,0,0,0-1.59-.9c-.68-.13-1.44-.24-2.28-.32a13.72,13.72,0,0,1-4.8-1.09,3.87,3.87,0,0,1-1.7-1.72,6.57,6.57,0,0,1-.65-3.1,4.92,4.92,0,0,1,1.88-4.34c1.25-.87,3.38-1.31,6.37-1.31a17.68,17.68,0,0,1,4.24.37c.93.25,1.39.69,1.39,1.32a1.18,1.18,0,0,1-.33.88,1.2,1.2,0,0,1-.9.32,20.75,20.75,0,0,1-2.15-.21,24,24,0,0,0-2.75-.23,7.55,7.55,0,0,0-3.89.72,2.44,2.44,0,0,0-1.07,2.16,2.91,2.91,0,0,0,2.48,3.14,16.32,16.32,0,0,0,2.29.38,15.43,15.43,0,0,1,4.6,1,3.52,3.52,0,0,1,1.63,1.59A6,6,0,0,1,366.19,86.51Z"/><path class="cls-1" d="M385.61,92.49c-.83,0-1.35-.28-1.54-.83l-2-5.74h-7.87l-2.08,5.74c-.18.55-.69.83-1.54.83s-1.28-.38-1.29-1.15a1.18,1.18,0,0,1,.11-.5L375.61,74a2.62,2.62,0,0,1,.95-1.29,2.5,2.5,0,0,1,1.55-.5,2.35,2.35,0,0,1,1.51.5,2.89,2.89,0,0,1,.95,1.29l6.21,16.86.09.5C386.87,92.11,386.45,92.49,385.61,92.49ZM378.09,75,375,83.47h6.14l-3-8.52Z"/><path class="cls-1" d="M66.54,121.06c0-.77.57-1.59,1.71-2.43l4.19-3.17a.87.87,0,0,1,.48-.09c.73,0,1.09.45,1.09,1.33a1.68,1.68,0,0,1-.8,1.37l-4,2.92v.15l4.07,3a1.6,1.6,0,0,1,.8,1.36c0,.89-.36,1.34-1.09,1.35a.72.72,0,0,1-.48-.11l-4.22-3.22Q66.54,122.23,66.54,121.06Zm6.38,0c0-.77.57-1.59,1.71-2.43l4.18-3.17a.93.93,0,0,1,.5-.09c.73,0,1.09.45,1.09,1.33a1.71,1.71,0,0,1-.8,1.37l-4,2.92v.15l4.07,3a1.63,1.63,0,0,1,.8,1.36c0,.89-.36,1.34-1.09,1.35a.81.81,0,0,1-.5-.11l-4.21-3.22Q72.92,122.23,72.92,121.06Z"/><path class="cls-1" d="M91.68,129.69H84.11c-.64,0-1-.41-1-1.22s.31-1.23,1-1.23H86.5V112H84.11c-.64,0-1-.41-1-1.23s.31-1.22,1-1.22h7.57c.63,0,.95.4.95,1.22s-.32,1.23-.95,1.23H89.29v15.24h2.39c.63,0,.95.41.95,1.23S92.31,129.69,91.68,129.69Z"/><path class="cls-1" d="M99.28,117.51c-.35.35-.52,1.47-.52,3.35v7.74c0,.73-.46,1.09-1.38,1.09S96,129.33,96,128.6v-8.08a16,16,0,0,1,.27-3.33,2.93,2.93,0,0,1,1.09-1.82,4.09,4.09,0,0,1,1.91-.77,28.67,28.67,0,0,1,3.43-.17c2.61,0,4.25.31,4.94,1a4.09,4.09,0,0,1,1.21,2.72,23.49,23.49,0,0,1,.1,2.41v8.08c0,.73-.46,1.09-1.39,1.09s-1.39-.36-1.39-1.09v-7.74c0-1.86-.18-3-.53-3.34s-1.42-.54-3.19-.54S99.62,117.15,99.28,117.51Z"/><path class="cls-1" d="M116.56,117.51c-.34.35-.51,1.47-.51,3.35v7.74c0,.73-.46,1.09-1.39,1.09s-1.39-.36-1.4-1.09v-8.08a15.19,15.19,0,0,1,.28-3.33,2.93,2.93,0,0,1,1.09-1.82,4.1,4.1,0,0,1,1.9-.77,29,29,0,0,1,3.44-.17c2.6,0,4.25.31,4.93,1a4,4,0,0,1,1.21,2.72,20.68,20.68,0,0,1,.11,2.41v8.08c0,.73-.46,1.09-1.39,1.09s-1.39-.36-1.39-1.09v-7.74c0-1.86-.18-3-.54-3.34s-1.41-.54-3.18-.54S116.91,117.15,116.56,117.51Z"/><path class="cls-1" d="M130.43,122.32a18.8,18.8,0,0,1,.34-4,4.31,4.31,0,0,1,3.3-3.57,14.06,14.06,0,0,1,3.24-.31,13.38,13.38,0,0,1,3.23.31,4.38,4.38,0,0,1,2.1,1.17,5,5,0,0,1,1.23,2.39,19.51,19.51,0,0,1,.33,4,19.3,19.3,0,0,1-.33,4,4.31,4.31,0,0,1-1.24,2.29,4.64,4.64,0,0,1-2.09,1.07,15.23,15.23,0,0,1-3.23.27,16.34,16.34,0,0,1-3.24-.25,4.5,4.5,0,0,1-2.1-1.08,4.08,4.08,0,0,1-1.21-2.31A19,19,0,0,1,130.43,122.32Zm3.12-3.55a7.8,7.8,0,0,0-.34,2.78c0,1.31,0,2.37.11,3.15a3.74,3.74,0,0,0,.79,2,2.44,2.44,0,0,0,1.81.62c.3,0,.76,0,1.39,0,1.81,0,2.88-.22,3.2-.65a4.15,4.15,0,0,0,.8-2.06c.07-.75.11-1.53.11-2.34,0-2.41-.23-3.87-.68-4.37a3.79,3.79,0,0,0-.53-.57A3.73,3.73,0,0,0,138,117q-1.67,0-2.13,0c-.94.06-1.54.27-1.79.64A6.31,6.31,0,0,0,133.55,118.77Z"/><path class="cls-1" d="M152.41,114.54v.15h3.93q1,0,1,1.23c0,.81-.32,1.22-1,1.22h-3.93V128.6c0,.73-.47,1.09-1.4,1.09s-1.39-.36-1.39-1.09V117.14h-2c-.63,0-1-.41-1-1.22s.32-1.23,1-1.23h2v-.53c0-2.13.37-3.53,1.09-4.22s2.1-1,4.09-1a8.62,8.62,0,0,1,2.69.27,1,1,0,0,1,.68,1,1.31,1.31,0,0,1-.37,1,1.38,1.38,0,0,1-1,.36l-2-.09c-1,0-1.66.17-2,.52A4.5,4.5,0,0,0,152.41,114.54Z"/><path class="cls-1" d="M161.37,117.39c-.65,0-1-.39-1-1.15a1.26,1.26,0,0,1,1-1.4,21.64,21.64,0,0,1,5-.41c2.35,0,3.93.38,4.76,1.12s1.25,2,1.25,3.91v6c0,1.87-.45,3.08-1.36,3.65s-2.65.84-5.21.84-4.3-.28-5.17-.84-1.32-1.78-1.32-3.63.33-3.14,1-3.83,2.06-1.06,4.14-1h5.14V119a1.74,1.74,0,0,0-.71-1.58,5.35,5.35,0,0,0-2.53-.42,20.74,20.74,0,0,0-3.17.21A12,12,0,0,1,161.37,117.39Zm8.25,8.28V123h-4.31a5.36,5.36,0,0,0-2.6.4c-.39.26-.58.85-.58,1.78s.24,1.54.74,1.8a7.44,7.44,0,0,0,3,.38,9,9,0,0,0,3-.33A1.38,1.38,0,0,0,169.62,125.67Z"/><path class="cls-1" d="M187.6,117.39a7.3,7.3,0,0,1-1.54-.2,15.65,15.65,0,0,0-3-.21,6.37,6.37,0,0,0-2.83.47,1.92,1.92,0,0,0-.92,1.86v5.8q0,2.3,4,2.28a14.37,14.37,0,0,0,2.73-.2,8.93,8.93,0,0,1,1.54-.19c.65,0,1,.38,1,1.15a1.25,1.25,0,0,1-1,1.39,20.79,20.79,0,0,1-4.74.39,7.89,7.89,0,0,1-4.75-1.15,4.57,4.57,0,0,1-1.55-3.86v-5.67c0-1.88.49-3.15,1.46-3.82a8.78,8.78,0,0,1,4.77-1,16.82,16.82,0,0,1,4.81.5,1.22,1.22,0,0,1,1,1.35C188.57,117,188.25,117.39,187.6,117.39Z"/><path class="cls-1" d="M197.15,129.69a3.93,3.93,0,0,1-3-.9,4.62,4.62,0,0,1-.83-3.11v-8.54h-2c-.62,0-.93-.41-.93-1.22s.31-1.23.93-1.23h2v-3.94c0-.72.46-1.08,1.39-1.08s1.39.36,1.39,1.08v3.94h3.95c.63,0,.94.41.94,1.23s-.31,1.22-.94,1.22h-3.95v8.74c0,.85.51,1.27,1.52,1.27l2.63-.15c.65,0,1,.37,1,1.12a1.43,1.43,0,0,1-1,1.48C199.6,129.66,198.57,129.69,197.15,129.69Z"/><path class="cls-1" d="M203.71,122.32a18.8,18.8,0,0,1,.34-4,4.3,4.3,0,0,1,3.29-3.57,14.19,14.19,0,0,1,3.24-.31,13.53,13.53,0,0,1,3.24.31,4.38,4.38,0,0,1,2.1,1.17,4.85,4.85,0,0,1,1.22,2.39,18.73,18.73,0,0,1,.34,4,18.53,18.53,0,0,1-.34,4,4.25,4.25,0,0,1-1.24,2.29,4.55,4.55,0,0,1-2.08,1.07,15.33,15.33,0,0,1-3.24.27,16.41,16.41,0,0,1-3.24-.25,4.42,4.42,0,0,1-2.09-1.08,4.15,4.15,0,0,1-1.22-2.31A19.12,19.12,0,0,1,203.71,122.32Zm3.11-3.55a8.1,8.1,0,0,0-.33,2.78c0,1.31,0,2.37.11,3.15a3.81,3.81,0,0,0,.78,2,2.46,2.46,0,0,0,1.82.62q.45,0,1.38,0c1.82,0,2.89-.22,3.21-.65a4.15,4.15,0,0,0,.8-2.06c.07-.75.11-1.53.11-2.34,0-2.41-.23-3.87-.69-4.37a3.79,3.79,0,0,0-.52-.57,3.75,3.75,0,0,0-2.18-.42q-1.68,0-2.13,0c-1,.06-1.55.27-1.8.64A7.08,7.08,0,0,0,206.82,118.77Z"/><path class="cls-1" d="M224.28,120.88v7.72c0,.73-.47,1.09-1.39,1.09s-1.39-.36-1.4-1.09v-8.08a9.56,9.56,0,0,1,.5-3.86,5.34,5.34,0,0,1,.92-1.32c.66-.6,2.32-.91,5-.91a8.7,8.7,0,0,1,2.7.27,1,1,0,0,1,.68,1,1.42,1.42,0,0,1-.38,1.07,1.26,1.26,0,0,1-.95.35l-2.05-.13a9.28,9.28,0,0,0-2.37.18,2.1,2.1,0,0,0-.7.35,2.55,2.55,0,0,0-.33.7,3.62,3.62,0,0,0-.2,1.09C224.28,119.67,224.28,120.2,224.28,120.88Z"/><path class="cls-1" d="M244.11,110V128.6c0,.73-.47,1.09-1.4,1.09s-1.39-.36-1.39-1.09V110c0-.74.46-1.12,1.39-1.12S244.11,109.3,244.11,110Z"/><path class="cls-1" d="M260.21,127c.64,0,1,.38,1,1.15a1.24,1.24,0,0,1-1,1.39,24.37,24.37,0,0,1-5,.36q-3.54,0-5.07-1.15a4.57,4.57,0,0,1-1.55-3.86v-5.67c0-1.9.47-3.18,1.4-3.83s2.66-1,5.19-1,4.24.32,5.13.94,1.33,1.92,1.33,3.88v2.45a1.69,1.69,0,0,1-.41,1.18,1.36,1.36,0,0,1-1,.42h-8.81v1.82q0,2.28,4,2.27a22.86,22.86,0,0,0,3-.18A16.44,16.44,0,0,1,260.21,127Zm-8.87-7.78v1.6h7.48v-1.6a2,2,0,0,0-.76-1.8,6.2,6.2,0,0,0-2.95-.47,6.88,6.88,0,0,0-3,.44A2,2,0,0,0,251.34,119.25Z"/><path class="cls-1" d="M271.46,129.84a2.35,2.35,0,0,1-1.49-.5,2.9,2.9,0,0,1-.94-1.25l-4.39-11.82c-.06-.32-.09-.48-.1-.5q0-1.09,1.35-1.08a1.3,1.3,0,0,1,1.36.8l4.15,11.66h.15l4.16-11.66c.2-.53.7-.8,1.5-.8s1.19.36,1.19,1.08c0,0,0,.18-.09.5l-4.4,11.82a2.6,2.6,0,0,1-.94,1.27A2.52,2.52,0,0,1,271.46,129.84Z"/><path class="cls-1" d="M293,127c.63,0,1,.38,1,1.15a1.25,1.25,0,0,1-1,1.39,24.37,24.37,0,0,1-5,.36c-2.36,0-4.06-.38-5.07-1.15a4.55,4.55,0,0,1-1.55-3.86v-5.67c0-1.9.47-3.18,1.39-3.83s2.66-1,5.2-1,4.24.32,5.13.94,1.33,1.92,1.33,3.88v2.45a1.74,1.74,0,0,1-.41,1.18,1.36,1.36,0,0,1-1.05.42h-8.8v1.82c0,1.52,1.32,2.28,4,2.27a22.86,22.86,0,0,0,3-.18A16,16,0,0,1,293,127Zm-8.87-7.78v1.6h7.47v-1.6a2,2,0,0,0-.75-1.8,6.22,6.22,0,0,0-2.95-.47,6.82,6.82,0,0,0-3,.44A1.94,1.94,0,0,0,284.16,119.25Z"/><path class="cls-1" d="M301.38,120.88v7.72c0,.73-.46,1.09-1.38,1.09s-1.39-.36-1.4-1.09v-8.08a9.62,9.62,0,0,1,.49-3.86,5.34,5.34,0,0,1,.92-1.32c.66-.6,2.33-.91,5-.91a8.62,8.62,0,0,1,2.69.27,1,1,0,0,1,.69,1,1.42,1.42,0,0,1-.38,1.07,1.29,1.29,0,0,1-1,.35l-2-.13a9.43,9.43,0,0,0-2.38.18,2.14,2.14,0,0,0-.69.35,2.5,2.5,0,0,0-.34.7,3.62,3.62,0,0,0-.19,1.09C301.39,119.67,301.38,120.2,301.38,120.88Z"/><path class="cls-1" d="M322.27,127c.64,0,1,.38,1,1.15a1.24,1.24,0,0,1-1,1.39,24.37,24.37,0,0,1-5,.36q-3.54,0-5.07-1.15a4.54,4.54,0,0,1-1.54-3.86v-5.67c0-1.9.46-3.18,1.39-3.83s2.66-1,5.19-1,4.24.32,5.13.94,1.33,1.92,1.33,3.88v2.45a1.69,1.69,0,0,1-.41,1.18,1.36,1.36,0,0,1-1,.42H313.4v1.82q0,2.28,4,2.27a22.86,22.86,0,0,0,3-.18A16.44,16.44,0,0,1,322.27,127Zm-8.87-7.78v1.6h7.48v-1.6a2,2,0,0,0-.76-1.8,6.2,6.2,0,0,0-2.95-.47,6.88,6.88,0,0,0-3,.44A2,2,0,0,0,313.4,119.25Z"/><path class="cls-1" d="M330.63,120.88v7.72c0,.73-.47,1.09-1.39,1.09s-1.39-.36-1.4-1.09v-8.08a9.56,9.56,0,0,1,.5-3.86,5.08,5.08,0,0,1,.92-1.32c.66-.6,2.32-.91,5-.91a8.74,8.74,0,0,1,2.7.27,1,1,0,0,1,.68,1,1.42,1.42,0,0,1-.38,1.07,1.26,1.26,0,0,1-.95.35l-2.05-.13a9.28,9.28,0,0,0-2.37.18,2.1,2.1,0,0,0-.7.35,2.55,2.55,0,0,0-.33.7,3.62,3.62,0,0,0-.2,1.09C330.63,119.67,330.63,120.2,330.63,120.88Z"/><path class="cls-1" d="M71.35,151.74v.15h3.94c.63,0,.95.41.95,1.23s-.32,1.22-.95,1.22H71.35V165.8c0,.73-.46,1.09-1.39,1.09s-1.4-.36-1.4-1.09V154.34h-2c-.64,0-1-.41-1-1.22s.32-1.23,1-1.23h2v-.53c0-2.13.37-3.54,1.09-4.22s2.1-1,4.09-1a8.74,8.74,0,0,1,2.7.27,1,1,0,0,1,.68,1,1.32,1.32,0,0,1-.38,1.05,1.36,1.36,0,0,1-.95.36l-2.05-.09c-1,0-1.66.17-1.95.52A4.59,4.59,0,0,0,71.35,151.74Z"/><path class="cls-1" d="M78.59,159.54a18.84,18.84,0,0,1,.34-4,4.31,4.31,0,0,1,3.29-3.58,17.09,17.09,0,0,1,6.48,0,4.31,4.31,0,0,1,2.1,1.18A4.85,4.85,0,0,1,92,155.51a18.86,18.86,0,0,1,.34,4,18.36,18.36,0,0,1-.34,4,4.21,4.21,0,0,1-1.24,2.29,4.46,4.46,0,0,1-2.08,1.07,15.4,15.4,0,0,1-3.24.27,16.34,16.34,0,0,1-3.24-.25,4.42,4.42,0,0,1-2.09-1.08,4.15,4.15,0,0,1-1.22-2.31A18.91,18.91,0,0,1,78.59,159.54Zm2.78-.08c0,2.24.26,3.68.77,4.33l5.14-9.48a10.18,10.18,0,0,0-2.42-.13,10.9,10.9,0,0,0-1.81.24,1.31,1.31,0,0,0-.79.46,4.44,4.44,0,0,0-.78,2.12C81.41,157.77,81.37,158.59,81.37,159.46Zm8.2,0c0-2.12-.21-3.52-.65-4.22l-5.07,9.32c.31,0,.81,0,1.49,0,1.89,0,3-.22,3.33-.65a4.15,4.15,0,0,0,.8-2.07C89.54,161.11,89.57,160.31,89.57,159.46Z"/><path class="cls-1" d="M99.16,158.08v7.72c0,.73-.47,1.09-1.39,1.09s-1.39-.36-1.4-1.09v-8.08a9.56,9.56,0,0,1,.5-3.86,5.15,5.15,0,0,1,.92-1.32c.66-.6,2.32-.91,5-.91a8.7,8.7,0,0,1,2.7.27,1,1,0,0,1,.68,1,1.42,1.42,0,0,1-.38,1.07,1.26,1.26,0,0,1-1,.35l-2-.13a9.28,9.28,0,0,0-2.37.18,2.1,2.1,0,0,0-.7.35,2.55,2.55,0,0,0-.33.7,3.62,3.62,0,0,0-.2,1.09C99.16,156.87,99.16,157.4,99.16,158.08Z"/><path class="cls-1" d="M117.88,162.34V162a1.13,1.13,0,0,0-.73-1.07,6.08,6.08,0,0,0-2.52-.34,15.49,15.49,0,0,1-4-.56,3.32,3.32,0,0,1-1.82-1.23,4,4,0,0,1-.72-2.48v-.25c0-1.74.52-2.9,1.56-3.49a9.64,9.64,0,0,1,4.75-.91,20,20,0,0,1,4.72.41,1.26,1.26,0,0,1,1,1.4c0,.76-.32,1.15-1,1.15a18.78,18.78,0,0,1-2-.2,21.68,21.68,0,0,0-3.1-.21,8,8,0,0,0-2.43.27c-.51.18-.77.69-.77,1.53v.29c0,1.1,1.15,1.68,3.45,1.75,1,0,1.93.12,2.89.24a4.47,4.47,0,0,1,2.46,1.08,3.21,3.21,0,0,1,1,2.59v.38c0,1.85-.53,3.12-1.58,3.79a9.75,9.75,0,0,1-5.07,1,22.48,22.48,0,0,1-5-.39,1.25,1.25,0,0,1-1-1.39c0-.77.31-1.15,1-1.15.37,0,1.11.06,2.2.19a24.64,24.64,0,0,0,3.17.2,6.62,6.62,0,0,0,2.53-.41A1.78,1.78,0,0,0,117.88,162.34Z"/><path class="cls-1" d="M129.42,166.89a3.91,3.91,0,0,1-2.95-.9,4.58,4.58,0,0,1-.84-3.11v-8.54h-2c-.62,0-.93-.41-.93-1.22s.31-1.23.93-1.23h2V148c0-.72.46-1.08,1.39-1.08s1.4.36,1.4,1.08v3.94h3.94c.63,0,.94.41.94,1.23s-.31,1.22-.94,1.22h-3.94v8.74c0,.85.5,1.27,1.51,1.27l2.63-.15c.65,0,1,.37,1,1.12a1.43,1.43,0,0,1-1,1.48C131.87,166.86,130.83,166.89,129.42,166.89Z"/><path class="cls-1" d="M147.93,164.23c.63,0,.95.38.95,1.15a1.25,1.25,0,0,1-.95,1.39,24.37,24.37,0,0,1-5,.36q-3.55,0-5.07-1.15a4.55,4.55,0,0,1-1.55-3.86v-5.67c0-1.9.47-3.18,1.39-3.83s2.66-1,5.2-1,4.24.32,5.13.94,1.33,1.92,1.33,3.88v2.45a1.74,1.74,0,0,1-.41,1.18,1.36,1.36,0,0,1-1,.42h-8.8v1.82c0,1.52,1.32,2.28,4,2.27a22.6,22.6,0,0,0,3-.18A16.35,16.35,0,0,1,147.93,164.23Zm-8.87-7.78v1.6h7.47v-1.6a2,2,0,0,0-.75-1.8,6.22,6.22,0,0,0-2.95-.47,6.67,6.67,0,0,0-3,.44A1.94,1.94,0,0,0,139.06,156.45Z"/><path class="cls-1" d="M156.25,147.24v12l6.93-7a1.46,1.46,0,0,1,1-.47,1.32,1.32,0,0,1,1,.4,1.16,1.16,0,0,1,.4.91,1.46,1.46,0,0,1-.5,1l-4,3.72,4.94,6.89a1.6,1.6,0,0,1,.3.92,1.2,1.2,0,0,1-.44.91,1.48,1.48,0,0,1-1,.42,1,1,0,0,1-.91-.5l-4.84-6.78-2.85,2.63v3.53c0,.73-.46,1.09-1.38,1.09s-1.39-.36-1.4-1.09V147.24c0-.74.47-1.12,1.4-1.12S156.25,146.5,156.25,147.24Z"/><path class="cls-1" d="M171.84,147.24V165.8c0,.73-.46,1.09-1.39,1.09s-1.39-.36-1.39-1.09V147.24c0-.74.46-1.12,1.39-1.12S171.84,146.5,171.84,147.24Z"/><path class="cls-1" d="M178,154.59c-.65,0-1-.39-1-1.15a1.26,1.26,0,0,1,1-1.4,21.64,21.64,0,0,1,5-.41c2.35,0,3.93.38,4.76,1.12s1.25,2.05,1.25,3.91v6c0,1.87-.45,3.08-1.36,3.65s-2.65.84-5.21.84-4.3-.28-5.17-.84-1.32-1.78-1.32-3.63.34-3.14,1-3.83,2.06-1.06,4.14-1.05h5.14v-1.6a1.74,1.74,0,0,0-.71-1.58,5.35,5.35,0,0,0-2.53-.42,20.51,20.51,0,0,0-3.16.21A12.18,12.18,0,0,1,178,154.59Zm8.25,8.28v-2.64H182a5.28,5.28,0,0,0-2.59.4c-.4.26-.59.85-.59,1.78s.24,1.54.74,1.8a7.63,7.63,0,0,0,3,.38,9,9,0,0,0,3-.33A1.38,1.38,0,0,0,186.27,162.87Z"/><path class="cls-1" d="M202.71,162.34V162a1.14,1.14,0,0,0-.73-1.07,6.14,6.14,0,0,0-2.53-.34,15.47,15.47,0,0,1-4-.56,3.28,3.28,0,0,1-1.82-1.23,3.93,3.93,0,0,1-.73-2.48v-.25c0-1.74.52-2.9,1.56-3.49a9.67,9.67,0,0,1,4.75-.91,20.06,20.06,0,0,1,4.73.41,1.26,1.26,0,0,1,1,1.4c0,.76-.32,1.15-1,1.15a18.63,18.63,0,0,1-2-.2,21.58,21.58,0,0,0-3.1-.21,7.89,7.89,0,0,0-2.42.27c-.51.18-.77.69-.77,1.53v.29c0,1.1,1.15,1.68,3.45,1.75,1,0,1.92.12,2.89.24a4.41,4.41,0,0,1,2.45,1.08,3.18,3.18,0,0,1,1,2.59v.38c0,1.85-.52,3.12-1.57,3.79a9.75,9.75,0,0,1-5.07,1,22.42,22.42,0,0,1-5-.39,1.26,1.26,0,0,1-1-1.39c0-.77.32-1.15,1-1.15.37,0,1.1.06,2.19.19a24.91,24.91,0,0,0,3.18.2,6.65,6.65,0,0,0,2.53-.41A1.79,1.79,0,0,0,202.71,162.34Z"/><path class="cls-1" d="M218.1,162.34V162a1.13,1.13,0,0,0-.73-1.07,6.08,6.08,0,0,0-2.52-.34,15.54,15.54,0,0,1-4-.56,3.32,3.32,0,0,1-1.82-1.23,4,4,0,0,1-.72-2.48v-.25c0-1.74.52-2.9,1.56-3.49a9.64,9.64,0,0,1,4.75-.91,20,20,0,0,1,4.72.41,1.25,1.25,0,0,1,.95,1.4c0,.76-.31,1.15-.95,1.15a18.78,18.78,0,0,1-2-.2,21.68,21.68,0,0,0-3.1-.21,8,8,0,0,0-2.43.27c-.51.18-.77.69-.77,1.53v.29c0,1.1,1.15,1.68,3.45,1.75,1,0,1.93.12,2.89.24a4.47,4.47,0,0,1,2.46,1.08,3.21,3.21,0,0,1,1,2.59v.38c0,1.85-.53,3.12-1.58,3.79a9.75,9.75,0,0,1-5.07,1,22.48,22.48,0,0,1-5-.39,1.25,1.25,0,0,1-.95-1.39c0-.77.31-1.15.95-1.15.37,0,1.11.06,2.2.19a24.76,24.76,0,0,0,3.17.2,6.62,6.62,0,0,0,2.53-.41A1.78,1.78,0,0,0,218.1,162.34Z"/><path class="cls-1" d="M236.28,164.23c.64,0,.95.38.95,1.15a1.24,1.24,0,0,1-.95,1.39,24.37,24.37,0,0,1-5,.36q-3.54,0-5.07-1.15a4.54,4.54,0,0,1-1.54-3.86v-5.67c0-1.9.46-3.18,1.39-3.83s2.66-1,5.19-1,4.24.32,5.13.94,1.33,1.92,1.33,3.88v2.45a1.69,1.69,0,0,1-.41,1.18,1.36,1.36,0,0,1-1,.42h-8.81v1.82q0,2.28,4,2.27a22.86,22.86,0,0,0,3-.18A16.44,16.44,0,0,1,236.28,164.23Zm-8.87-7.78v1.6h7.48v-1.6a2,2,0,0,0-.76-1.8,6.2,6.2,0,0,0-2.95-.47,6.73,6.73,0,0,0-3,.44A2,2,0,0,0,227.41,156.45Z"/><path class="cls-1" d="M250.6,162.34V162a1.13,1.13,0,0,0-.73-1.07,6.14,6.14,0,0,0-2.53-.34,15.47,15.47,0,0,1-4-.56,3.32,3.32,0,0,1-1.82-1.23,4,4,0,0,1-.73-2.48v-.25c0-1.74.53-2.9,1.56-3.49a9.68,9.68,0,0,1,4.76-.91,20,20,0,0,1,4.72.41,1.25,1.25,0,0,1,.95,1.4c0,.76-.31,1.15-.95,1.15a18.78,18.78,0,0,1-2-.2,21.83,21.83,0,0,0-3.11-.21,7.94,7.94,0,0,0-2.42.27c-.51.18-.77.69-.77,1.53v.29c0,1.1,1.15,1.68,3.45,1.75,1,0,1.92.12,2.89.24a4.41,4.41,0,0,1,2.45,1.08,3.18,3.18,0,0,1,1,2.59v.38c0,1.85-.52,3.12-1.57,3.79a9.75,9.75,0,0,1-5.07,1,22.48,22.48,0,0,1-5-.39,1.25,1.25,0,0,1-.95-1.39c0-.77.31-1.15.95-1.15.37,0,1.1.06,2.19.19a24.91,24.91,0,0,0,3.18.2,6.65,6.65,0,0,0,2.53-.41A1.78,1.78,0,0,0,250.6,162.34Z"/><path class="cls-1" d="M267.72,147.24V165.8c0,.73-.47,1.09-1.39,1.09s-1.4-.36-1.4-1.09V147.24c0-.74.47-1.12,1.4-1.12S267.72,146.5,267.72,147.24Z"/><path class="cls-1" d="M272.17,159.54a18.84,18.84,0,0,1,.34-4,4.32,4.32,0,0,1,3.3-3.58,13.53,13.53,0,0,1,3.24-.31,13.38,13.38,0,0,1,3.23.31,4.31,4.31,0,0,1,2.1,1.18,5,5,0,0,1,1.23,2.39,19.65,19.65,0,0,1,.33,4,19.12,19.12,0,0,1-.33,4,4.27,4.27,0,0,1-1.24,2.29,4.54,4.54,0,0,1-2.09,1.07,15.23,15.23,0,0,1-3.23.27,16.34,16.34,0,0,1-3.24-.25,4.46,4.46,0,0,1-2.1-1.08,4.08,4.08,0,0,1-1.21-2.31A18.81,18.81,0,0,1,272.17,159.54Zm2.78-.08c0,2.24.26,3.68.77,4.33l5.14-9.48a10.18,10.18,0,0,0-2.42-.13,11.06,11.06,0,0,0-1.81.24,1.34,1.34,0,0,0-.79.46,4.44,4.44,0,0,0-.78,2.12C275,157.77,275,158.59,275,159.46Zm8.21,0a9.09,9.09,0,0,0-.65-4.22l-5.08,9.32q.46,0,1.5,0c1.88,0,3-.22,3.32-.65a4.15,4.15,0,0,0,.8-2.07C283.12,161.11,283.16,160.31,283.16,159.46Z"/><path class="cls-1" d="M299.32,162.34V162a1.13,1.13,0,0,0-.72-1.07,6.17,6.17,0,0,0-2.53-.34,15.6,15.6,0,0,1-4-.56,3.29,3.29,0,0,1-1.81-1.23,3.93,3.93,0,0,1-.73-2.48v-.25c0-1.74.52-2.9,1.56-3.49a9.64,9.64,0,0,1,4.75-.91,20,20,0,0,1,4.72.41,1.26,1.26,0,0,1,1,1.4c0,.76-.32,1.15-1,1.15a18.78,18.78,0,0,1-1.95-.2,21.68,21.68,0,0,0-3.1-.21,7.89,7.89,0,0,0-2.42.27q-.78.27-.78,1.53v.29c0,1.1,1.15,1.68,3.46,1.75,1,0,1.92.12,2.89.24a4.44,4.44,0,0,1,2.45,1.08,3.18,3.18,0,0,1,1,2.59v.38c0,1.85-.53,3.12-1.58,3.79a9.75,9.75,0,0,1-5.07,1,22.48,22.48,0,0,1-5-.39,1.26,1.26,0,0,1-.95-1.39c0-.77.32-1.15.95-1.15.38,0,1.11.06,2.2.19a24.91,24.91,0,0,0,3.18.2,6.56,6.56,0,0,0,2.52-.41A1.78,1.78,0,0,0,299.32,162.34Z"/><path class="cls-1" d="M309.27,154.71c-.34.35-.52,1.47-.52,3.35v7.74c0,.73-.46,1.09-1.38,1.09s-1.39-.36-1.4-1.09v-8.08a16,16,0,0,1,.27-3.33,3,3,0,0,1,1.09-1.82,4.13,4.13,0,0,1,1.91-.77,28.8,28.8,0,0,1,3.43-.17c2.61,0,4.25.31,4.94,1a4,4,0,0,1,1.21,2.72,23.16,23.16,0,0,1,.11,2.41v8.08c0,.73-.47,1.09-1.4,1.09s-1.39-.36-1.39-1.09v-7.74c0-1.86-.18-3-.53-3.34s-1.42-.54-3.19-.54S309.61,154.35,309.27,154.71Z"/><path class="cls-1" d="M323.39,148.29a1.51,1.51,0,0,1,.45-1.08,1.54,1.54,0,0,1,1.06-.47,1.45,1.45,0,0,1,1.08.47,1.61,1.61,0,0,1,.44,1.09,1.57,1.57,0,0,1-1.52,1.52,1.44,1.44,0,0,1-1.07-.46A1.5,1.5,0,0,1,323.39,148.29ZM326.3,153V165.8c0,.73-.47,1.09-1.4,1.09s-1.39-.36-1.39-1.09V153c0-.73.47-1.09,1.39-1.09S326.3,152.24,326.3,153Z"/><path class="cls-1" d="M334.17,154.71c-.35.35-.52,1.47-.52,3.35v7.74c0,.73-.46,1.09-1.38,1.09s-1.39-.36-1.4-1.09v-8.08a16,16,0,0,1,.27-3.33,2.93,2.93,0,0,1,1.09-1.82,4.13,4.13,0,0,1,1.91-.77,28.67,28.67,0,0,1,3.43-.17c2.61,0,4.25.31,4.94,1a4.09,4.09,0,0,1,1.21,2.72,23.49,23.49,0,0,1,.1,2.41v8.08c0,.73-.46,1.09-1.39,1.09s-1.39-.36-1.39-1.09v-7.74c0-1.86-.18-3-.53-3.34s-1.42-.54-3.19-.54S334.51,154.35,334.17,154.71Z"/><path class="cls-1" d="M359.05,150.17c0-.66.47-1,1.4-1s1.39.34,1.39,1v6.57c0,1.95-.49,3.22-1.47,3.83a9.55,9.55,0,0,1-4.88.93,22,22,0,0,1-4.55-.29v2.4h5.65c2.12,0,3.56.36,4.31,1.1a5.12,5.12,0,0,1,1.12,3.72c0,1.73-.5,2.92-1.51,3.57s-2.8,1-5.37,1a12,12,0,0,1-5.41-.88c-1-.58-1.56-1.77-1.58-3.59V156.36A5.18,5.18,0,0,1,349,153a4.69,4.69,0,0,1,3.28-1.18,25.76,25.76,0,0,1,6.76.31Zm-8.11,6.53c0,1.12.22,1.79.62,2a7.63,7.63,0,0,0,3,.35,13.23,13.23,0,0,0,3.22-.25,1.55,1.55,0,0,0,1.07-.75,4.81,4.81,0,0,0,.21-1.68v-1.84a32.26,32.26,0,0,0-4.42-.32,6.42,6.42,0,0,0-2.86.45,2,2,0,0,0-.83,1.9Zm0,9.39v2.56a1.5,1.5,0,0,0,1,1.48,9.25,9.25,0,0,0,3.28.42,6.93,6.93,0,0,0,3-.45,1.88,1.88,0,0,0,.78-1.76,2,2,0,0,0-.75-1.78,5.53,5.53,0,0,0-2.72-.47Z"/><path class="cls-1" d="M377.07,164.23c.63,0,.95.38.95,1.15a1.25,1.25,0,0,1-.95,1.39,24.37,24.37,0,0,1-5,.36q-3.55,0-5.07-1.15a4.55,4.55,0,0,1-1.55-3.86v-5.67c0-1.9.47-3.18,1.39-3.83s2.66-1,5.2-1,4.24.32,5.13.94,1.33,1.92,1.33,3.88v2.45a1.74,1.74,0,0,1-.41,1.18,1.36,1.36,0,0,1-1.05.42h-8.8v1.82c0,1.52,1.32,2.28,4,2.27a22.6,22.6,0,0,0,3-.18A16.35,16.35,0,0,1,377.07,164.23Zm-8.87-7.78v1.6h7.47v-1.6a2,2,0,0,0-.75-1.8,6.24,6.24,0,0,0-3-.47,6.64,6.64,0,0,0-3,.44A1.94,1.94,0,0,0,368.2,156.45Z"/><path class="cls-1" d="M385.42,158.08v7.72c0,.73-.46,1.09-1.38,1.09s-1.39-.36-1.41-1.09v-8.08a9.56,9.56,0,0,1,.5-3.86,5.15,5.15,0,0,1,.92-1.32c.66-.6,2.33-.91,5-.91a8.62,8.62,0,0,1,2.69.27,1,1,0,0,1,.68,1A1.42,1.42,0,0,1,392,154a1.29,1.29,0,0,1-1,.35l-2-.13a9.38,9.38,0,0,0-2.38.18,2.34,2.34,0,0,0-.7.35,2.55,2.55,0,0,0-.33.7,3.62,3.62,0,0,0-.19,1.09C385.43,156.87,385.42,157.4,385.42,158.08Z"/><path class="cls-1" d="M67.29,185.49a1.48,1.48,0,0,1,.46-1.08,1.55,1.55,0,0,1,1.06-.47,1.45,1.45,0,0,1,1.07.47,1.61,1.61,0,0,1,.44,1.09A1.56,1.56,0,0,1,68.81,187a1.46,1.46,0,0,1-1.08-.46A1.5,1.5,0,0,1,67.29,185.49Zm2.91,4.68V203c0,.73-.46,1.09-1.39,1.09s-1.4-.36-1.4-1.09V190.17c0-.73.47-1.09,1.4-1.09S70.2,189.44,70.2,190.17Z"/><path class="cls-1" d="M78.07,191.91c-.34.35-.51,1.47-.51,3.35V203c0,.73-.47,1.09-1.39,1.09s-1.39-.36-1.4-1.09v-8.08a16,16,0,0,1,.27-3.33,3,3,0,0,1,1.09-1.82A4.13,4.13,0,0,1,78,189a28.87,28.87,0,0,1,3.44-.17c2.6,0,4.24.31,4.93,1a4,4,0,0,1,1.21,2.72,23.16,23.16,0,0,1,.11,2.41V203c0,.73-.47,1.09-1.39,1.09s-1.4-.36-1.4-1.09v-7.74c0-1.86-.17-3-.53-3.34s-1.41-.54-3.18-.54S78.42,191.55,78.07,191.91Z"/><path class="cls-1" d="M95.36,191.91c-.35.35-.52,1.47-.52,3.35V203c0,.73-.46,1.09-1.38,1.09s-1.39-.36-1.4-1.09v-8.08a16,16,0,0,1,.27-3.33,2.93,2.93,0,0,1,1.09-1.82,4.09,4.09,0,0,1,1.91-.77,28.67,28.67,0,0,1,3.43-.17c2.61,0,4.25.31,4.94,1a4.09,4.09,0,0,1,1.21,2.72,23.49,23.49,0,0,1,.1,2.41V203c0,.73-.46,1.09-1.39,1.09s-1.39-.36-1.39-1.09v-7.74c0-1.86-.18-3-.53-3.34s-1.42-.54-3.19-.54S95.7,191.55,95.36,191.91Z"/><path class="cls-1" d="M120.88,201.43c.63,0,1,.38,1,1.15a1.26,1.26,0,0,1-1,1.39,24.37,24.37,0,0,1-5,.36q-3.54,0-5.07-1.15a4.55,4.55,0,0,1-1.55-3.86v-5.67c0-1.9.47-3.18,1.39-3.83s2.66-1,5.2-1,4.24.32,5.13.94,1.33,1.92,1.33,3.88v2.45a1.74,1.74,0,0,1-.41,1.18,1.36,1.36,0,0,1-1,.42H112v1.82c0,1.52,1.32,2.28,4,2.27a22.86,22.86,0,0,0,3-.18A16,16,0,0,1,120.88,201.43ZM112,193.65v1.6h7.47v-1.6a2,2,0,0,0-.75-1.8,6.35,6.35,0,0,0-3-.47,6.82,6.82,0,0,0-3,.44A1.94,1.94,0,0,0,112,193.65Z"/><path class="cls-1" d="M129.75,191.91c-.35.35-.52,1.47-.52,3.35V203c0,.73-.46,1.09-1.38,1.09s-1.39-.36-1.4-1.09v-8.08a16,16,0,0,1,.27-3.33,2.93,2.93,0,0,1,1.09-1.82,4.09,4.09,0,0,1,1.91-.77,28.67,28.67,0,0,1,3.43-.17c2.61,0,4.25.31,4.94,1a4.09,4.09,0,0,1,1.21,2.72,23.49,23.49,0,0,1,.1,2.41V203c0,.73-.46,1.09-1.39,1.09s-1.39-.36-1.39-1.09v-7.74c0-1.86-.18-3-.53-3.34s-1.42-.54-3.19-.54S130.09,191.55,129.75,191.91Z"/><path class="cls-1" d="M160.54,199.54v-.35a1.14,1.14,0,0,0-.73-1.07,6.17,6.17,0,0,0-2.53-.34,15.47,15.47,0,0,1-4-.56,3.28,3.28,0,0,1-1.82-1.23,3.93,3.93,0,0,1-.73-2.48v-.25c0-1.74.52-2.9,1.56-3.49a9.75,9.75,0,0,1,4.75-.91,20.06,20.06,0,0,1,4.73.41,1.26,1.26,0,0,1,.95,1.4c0,.76-.32,1.15-.95,1.15a18.63,18.63,0,0,1-2-.2,21.58,21.58,0,0,0-3.1-.21,7.89,7.89,0,0,0-2.42.27c-.52.18-.77.69-.77,1.53v.29c0,1.1,1.15,1.68,3.45,1.75,1,0,1.92.12,2.89.24a4.41,4.41,0,0,1,2.45,1.08,3.18,3.18,0,0,1,1,2.59v.38c0,1.85-.52,3.12-1.57,3.8a9.87,9.87,0,0,1-5.07,1,22.35,22.35,0,0,1-5-.39,1.26,1.26,0,0,1-1-1.39c0-.77.32-1.15,1-1.15.37,0,1.1.06,2.19.19a24.91,24.91,0,0,0,3.18.2,6.65,6.65,0,0,0,2.53-.41A1.79,1.79,0,0,0,160.54,199.54Z"/><path class="cls-1" d="M169.94,184.44v12l6.93-7a1.43,1.43,0,0,1,1-.47,1.35,1.35,0,0,1,1,.4,1.18,1.18,0,0,1,.39.91,1.46,1.46,0,0,1-.5,1l-4,3.72,4.94,6.89a1.6,1.6,0,0,1,.3.92,1.17,1.17,0,0,1-.44.91,1.46,1.46,0,0,1-1,.42,1,1,0,0,1-.9-.5l-4.85-6.78-2.84,2.63V203c0,.73-.47,1.09-1.39,1.09s-1.39-.36-1.4-1.09V184.44c0-.74.48-1.12,1.4-1.12S169.94,183.7,169.94,184.44Z"/><path class="cls-1" d="M186.36,210.13c-.8,0-1.2-.36-1.21-1.07,0,0,0-.19.1-.5l1.67-4.47a2.58,2.58,0,0,1-1.51-1.6L181,190.67c-.06-.32-.09-.48-.09-.5,0-.73.4-1.09,1.2-1.09s1.29.27,1.49.81l4.17,11.66h.15l4.15-11.66c.2-.53.7-.8,1.49-.8s1.2.36,1.2,1.08c0,0,0,.18-.09.5l-6.81,18.66C187.66,209.86,187.16,210.13,186.36,210.13Z"/><path class="cls-1" d="M206.88,199.54v-.35a1.13,1.13,0,0,0-.72-1.07,6.17,6.17,0,0,0-2.53-.34,15.6,15.6,0,0,1-4-.56,3.29,3.29,0,0,1-1.81-1.23,3.93,3.93,0,0,1-.73-2.48v-.25c0-1.74.52-2.9,1.56-3.49a9.75,9.75,0,0,1,4.75-.91,20.06,20.06,0,0,1,4.73.41,1.26,1.26,0,0,1,1,1.4c0,.76-.32,1.15-1,1.15a18.63,18.63,0,0,1-2-.2,21.68,21.68,0,0,0-3.1-.21,7.89,7.89,0,0,0-2.42.27c-.52.18-.77.69-.77,1.53v.29c0,1.1,1.15,1.68,3.45,1.75,1,0,1.92.12,2.89.24a4.44,4.44,0,0,1,2.45,1.08,3.18,3.18,0,0,1,1,2.59v.38c0,1.85-.53,3.12-1.58,3.8a9.84,9.84,0,0,1-5.07,1,22.48,22.48,0,0,1-5-.39,1.26,1.26,0,0,1-.95-1.39c0-.77.32-1.15.95-1.15.38,0,1.11.06,2.2.19a24.91,24.91,0,0,0,3.18.2,6.65,6.65,0,0,0,2.53-.41A1.79,1.79,0,0,0,206.88,199.54Z"/><path class="cls-1" d="M213.67,185.49a1.51,1.51,0,0,1,.45-1.08,1.57,1.57,0,0,1,1.06-.47,1.45,1.45,0,0,1,1.07.47,1.57,1.57,0,0,1,.44,1.09,1.51,1.51,0,0,1-3,0Zm2.9,4.68V203c0,.73-.46,1.09-1.39,1.09s-1.39-.36-1.39-1.09V190.17c0-.73.46-1.09,1.39-1.09S216.57,189.44,216.57,190.17Z"/><path class="cls-1" d="M223.9,184.44v12l6.93-7a1.45,1.45,0,0,1,1-.47,1.34,1.34,0,0,1,1,.4,1.18,1.18,0,0,1,.39.91,1.42,1.42,0,0,1-.5,1l-4,3.72,4.93,6.89a1.6,1.6,0,0,1,.3.92,1.19,1.19,0,0,1-.43.91,1.5,1.5,0,0,1-1,.42,1,1,0,0,1-.91-.5l-4.85-6.78-2.84,2.63V203c0,.73-.46,1.09-1.39,1.09s-1.39-.36-1.4-1.09V184.44c0-.74.48-1.12,1.4-1.12S223.9,183.7,223.9,184.44Z"/><path class="cls-1" d="M239.2,184.44v12l6.93-7a1.46,1.46,0,0,1,1-.47,1.32,1.32,0,0,1,1,.4,1.19,1.19,0,0,1,.4.91,1.46,1.46,0,0,1-.5,1L244,195l4.93,6.89a1.54,1.54,0,0,1,.31.92,1.2,1.2,0,0,1-.44.91,1.48,1.48,0,0,1-1,.42,1,1,0,0,1-.91-.5l-4.84-6.78-2.85,2.63V203c0,.73-.46,1.09-1.38,1.09s-1.39-.36-1.4-1.09V184.44c0-.74.47-1.12,1.4-1.12S239.2,183.7,239.2,184.44Z"/><path class="cls-1" d="M263.28,201.43c.64,0,1,.38,1,1.15a1.26,1.26,0,0,1-1,1.39,24.37,24.37,0,0,1-5,.36q-3.54,0-5.07-1.15a4.54,4.54,0,0,1-1.54-3.86v-5.67c0-1.9.46-3.18,1.39-3.83s2.66-1,5.19-1,4.25.32,5.13.94,1.34,1.92,1.34,3.88v2.45a1.74,1.74,0,0,1-.41,1.18,1.39,1.39,0,0,1-1,.42h-8.81v1.82q0,2.28,4,2.27a22.86,22.86,0,0,0,3-.18A16.44,16.44,0,0,1,263.28,201.43Zm-8.87-7.78v1.6h7.48v-1.6a2,2,0,0,0-.76-1.8,6.33,6.33,0,0,0-2.95-.47,6.88,6.88,0,0,0-3,.44A2,2,0,0,0,254.41,193.65Z"/><path class="cls-1" d="M271.64,195.28V203c0,.73-.46,1.09-1.39,1.09s-1.39-.36-1.4-1.09v-8.08a9.56,9.56,0,0,1,.5-3.86,5.15,5.15,0,0,1,.92-1.32c.66-.6,2.32-.91,5-.91a8.65,8.65,0,0,1,2.7.27,1,1,0,0,1,.68,1,1.42,1.42,0,0,1-.38,1.07,1.26,1.26,0,0,1-.95.35l-2.05-.13a9.28,9.28,0,0,0-2.37.18,2.22,2.22,0,0,0-.7.35,2.55,2.55,0,0,0-.33.7,3.62,3.62,0,0,0-.2,1.09C271.64,194.07,271.64,194.6,271.64,195.28Z"/><path class="cls-1" d="M283.78,184.44v4.8a20.51,20.51,0,0,1,3.88-.41,15.69,15.69,0,0,1,2.93.22,3.51,3.51,0,0,1,3.09,2.8,16.52,16.52,0,0,1,.27,3.37V203c0,.73-.46,1.09-1.39,1.09s-1.4-.36-1.4-1.09v-7.48a17.3,17.3,0,0,0-.12-2.35,1.83,1.83,0,0,0-.63-1.23,2.26,2.26,0,0,0-1.1-.49,17.84,17.84,0,0,0-2-.07,24.28,24.28,0,0,0-3.56.32V203c0,.73-.46,1.09-1.39,1.09S281,203.73,281,203V184.44c0-.74.48-1.12,1.4-1.12S283.78,183.7,283.78,184.44Z"/><path class="cls-1" d="M310.31,201.43c.64,0,1,.38,1,1.15a1.26,1.26,0,0,1-1,1.39,24.37,24.37,0,0,1-5,.36q-3.54,0-5.07-1.15a4.54,4.54,0,0,1-1.54-3.86v-5.67c0-1.9.46-3.18,1.39-3.83s2.66-1,5.19-1,4.25.32,5.13.94,1.34,1.92,1.34,3.88v2.45a1.74,1.74,0,0,1-.42,1.18,1.36,1.36,0,0,1-1,.42h-8.81v1.82q0,2.28,4,2.27a22.86,22.86,0,0,0,3-.18A16.44,16.44,0,0,1,310.31,201.43Zm-8.87-7.78v1.6h7.48v-1.6a2,2,0,0,0-.76-1.8,6.33,6.33,0,0,0-3-.47,6.88,6.88,0,0,0-3,.44A2,2,0,0,0,301.44,193.65Z"/><path class="cls-1" d="M321.08,204.09a3.91,3.91,0,0,1-2.95-.9,4.56,4.56,0,0,1-.84-3.11v-8.54h-2c-.62,0-.93-.41-.93-1.22s.31-1.23.93-1.23h2v-3.94c0-.72.46-1.08,1.39-1.08s1.39.36,1.39,1.08v3.94H324c.63,0,.94.41.94,1.23s-.31,1.22-.94,1.22h-3.95v8.74c0,.85.51,1.27,1.52,1.27l2.63-.15c.65,0,1,.37,1,1.12a1.43,1.43,0,0,1-1,1.48C323.53,204.06,322.49,204.09,321.08,204.09Z"/><path class="cls-1" d="M334.94,195.46q0,1.17-1.71,2.43L329,201.11a1,1,0,0,1-.5.11c-.73,0-1.09-.45-1.09-1.35a1.6,1.6,0,0,1,.82-1.36l4.05-3v-.15l-4-2.92a1.73,1.73,0,0,1-.82-1.37c0-.88.36-1.33,1.09-1.33a.93.93,0,0,1,.5.09l4.18,3.17Q334.94,194.31,334.94,195.46Zm6.39,0q0,1.17-1.71,2.43l-4.21,3.22a1,1,0,0,1-.5.11c-.73,0-1.09-.45-1.09-1.35a1.6,1.6,0,0,1,.82-1.36l4.05-3v-.15l-4-2.92a1.73,1.73,0,0,1-.82-1.37c0-.88.36-1.33,1.09-1.33a.93.93,0,0,1,.5.09l4.18,3.17Q341.33,194.31,341.33,195.46Z"/></svg>