<svg id="Layer_1" data-name="Layer 1" xmlns="http://www.w3.org/2000/svg" viewBox="0 0 980 300"><defs><style>.cls-1{fill:#001012;}</style></defs><title>text</title><path class="cls-1" d="M72.31,135h3.6v23.38H89.22v3.16H72.31Z"/><path class="cls-1" d="M104.41,142.67a7.38,7.38,0,0,1,2.92,2.5,8.74,8.74,0,0,1,1.3,3.42,22.71,22.71,0,0,1,.28,4.26H94.84a8.37,8.37,0,0,0,1.38,4.74,4.6,4.6,0,0,0,4,1.78,5.14,5.14,0,0,0,4-1.68,5.91,5.91,0,0,0,1.2-2.27h3.19a6.53,6.53,0,0,1-.84,2.37,8.11,8.11,0,0,1-1.59,2.14,7.38,7.38,0,0,1-3.64,1.95,10.59,10.59,0,0,1-2.63.29,8.07,8.07,0,0,1-6.09-2.62,10.31,10.31,0,0,1-2.5-7.37,11.16,11.16,0,0,1,2.52-7.57,8.24,8.24,0,0,1,6.57-2.9A8.8,8.8,0,0,1,104.41,142.67Zm1.16,7.6a8.41,8.41,0,0,0-.91-3.38,4.68,4.68,0,0,0-4.43-2.35,4.86,4.86,0,0,0-3.72,1.62,6.12,6.12,0,0,0-1.6,4.11Z"/><path class="cls-1" d="M115,155.42a4.56,4.56,0,0,0,.83,2.49c.83,1.05,2.28,1.57,4.35,1.57a6.53,6.53,0,0,0,3.24-.78,2.6,2.6,0,0,0,1.4-2.43,2.07,2.07,0,0,0-1.12-1.9,13.12,13.12,0,0,0-2.82-.92l-2.63-.65a12.83,12.83,0,0,1-3.71-1.38,4.07,4.07,0,0,1-2.13-3.64,5.53,5.53,0,0,1,2-4.45,8.06,8.06,0,0,1,5.39-1.7q4.43,0,6.39,2.57a5.52,5.52,0,0,1,1.19,3.5h-3.07a3.66,3.66,0,0,0-.8-2c-.76-.85-2.09-1.28-4-1.28a4.92,4.92,0,0,0-2.86.7,2.19,2.19,0,0,0-1,1.86,2.26,2.26,0,0,0,1.27,2,7.61,7.61,0,0,0,2.18.8l2.19.52a17.18,17.18,0,0,1,4.78,1.65,4.33,4.33,0,0,1,1.9,3.92,5.94,5.94,0,0,1-2,4.46c-1.33,1.25-3.34,1.88-6,1.88-2.91,0-5-.65-6.19-2a7.43,7.43,0,0,1-2-4.85Z"/><path class="cls-1" d="M141.81,134.86h3.25v9.9a9.64,9.64,0,0,1,2.08-2.06,7,7,0,0,1,3.92-1q4.22,0,5.71,2.94a10.11,10.11,0,0,1,.81,4.47v12.41h-3.34v-12.2a6.81,6.81,0,0,0-.54-3.12,3.46,3.46,0,0,0-3.32-1.59,5.52,5.52,0,0,0-3.67,1.39q-1.65,1.4-1.65,5.26v10.26h-3.25Z"/><path class="cls-1" d="M164,142.14l5.17,15.75,5.38-15.75h3.56l-7.28,19.35h-3.47l-7.14-19.35Z"/><path class="cls-1" d="M191.26,149.78a1.77,1.77,0,0,0,1.5-.94,3,3,0,0,0,.22-1.25,2.67,2.67,0,0,0-1.18-2.42,6.34,6.34,0,0,0-3.38-.75,4.28,4.28,0,0,0-3.61,1.38,4.47,4.47,0,0,0-.78,2.26h-3q.09-3.59,2.32-5a9.53,9.53,0,0,1,5.17-1.4A10.49,10.49,0,0,1,194,143a4.42,4.42,0,0,1,2.11,4.05v11.14a1.45,1.45,0,0,0,.21.82c.13.2.43.3.87.3l.49,0,.58-.08v2.4a10.72,10.72,0,0,1-1.16.27,9.75,9.75,0,0,1-1.08.05,2.67,2.67,0,0,1-2.44-1.19,4.55,4.55,0,0,1-.56-1.79,8.18,8.18,0,0,1-2.86,2.26,8.79,8.79,0,0,1-4.1,1,6.11,6.11,0,0,1-4.4-1.64,5.43,5.43,0,0,1-1.7-4.08,5.27,5.27,0,0,1,1.68-4.17,8,8,0,0,1,4.41-1.82Zm-6.85,8.78a3.84,3.84,0,0,0,2.44.81,7.44,7.44,0,0,0,3.33-.79,4.47,4.47,0,0,0,2.71-4.31v-2.62a5.41,5.41,0,0,1-1.54.64,12.32,12.32,0,0,1-1.83.36l-2,.25a7.87,7.87,0,0,0-2.66.74,2.9,2.9,0,0,0-1.51,2.71A2.68,2.68,0,0,0,184.41,158.56Z"/><path class="cls-1" d="M213.35,142.14l5.16,15.75,5.39-15.75h3.56l-7.29,19.35h-3.46l-7.14-19.35Z"/><path class="cls-1" d="M240.62,149.78a1.77,1.77,0,0,0,1.5-.94,3,3,0,0,0,.21-1.25,2.65,2.65,0,0,0-1.18-2.42,6.3,6.3,0,0,0-3.38-.75,4.27,4.27,0,0,0-3.6,1.38,4.47,4.47,0,0,0-.78,2.26h-3q.09-3.59,2.32-5a9.51,9.51,0,0,1,5.17-1.4,10.49,10.49,0,0,1,5.54,1.3A4.44,4.44,0,0,1,245.5,147v11.14a1.53,1.53,0,0,0,.2.82,1,1,0,0,0,.88.3l.49,0,.58-.08v2.4a10.72,10.72,0,0,1-1.16.27,9.89,9.89,0,0,1-1.08.05,2.66,2.66,0,0,1-2.44-1.19,4.55,4.55,0,0,1-.56-1.79,8.36,8.36,0,0,1-2.86,2.26,8.82,8.82,0,0,1-4.1,1,6.11,6.11,0,0,1-4.4-1.64,5.39,5.39,0,0,1-1.7-4.08,5.24,5.24,0,0,1,1.68-4.17,8,8,0,0,1,4.4-1.82Zm-6.85,8.78a3.84,3.84,0,0,0,2.44.81,7.4,7.4,0,0,0,3.32-.79,4.46,4.46,0,0,0,2.71-4.31v-2.62a5.22,5.22,0,0,1-1.53.64,12.44,12.44,0,0,1-1.84.36l-2,.25a7.8,7.8,0,0,0-2.66.74,2.88,2.88,0,0,0-1.51,2.71A2.66,2.66,0,0,0,233.77,158.56Zm4.59-26.45a3.78,3.78,0,1,1-2.66,6.44,3.78,3.78,0,0,1,0-5.33A3.62,3.62,0,0,1,238.36,132.11Zm0,6a2.21,2.21,0,0,0,1.61-.66,2.27,2.27,0,0,0,0-3.22,2.27,2.27,0,1,0-1.61,3.88Z"/><path class="cls-1" d="M250.92,142.14H254v3.34a7.38,7.38,0,0,1,1.86-2.38,4.8,4.8,0,0,1,3.41-1.39h.31l.74.08v3.43a3.69,3.69,0,0,0-.53-.07,5.45,5.45,0,0,0-4.31,1.56,5.51,5.51,0,0,0-1.32,3.64v11.13h-3.25Z"/><path class="cls-1" d="M275.1,142.67a7.38,7.38,0,0,1,2.92,2.5,8.74,8.74,0,0,1,1.3,3.42,22.51,22.51,0,0,1,.29,4.26H265.53a8.37,8.37,0,0,0,1.38,4.74,4.6,4.6,0,0,0,4,1.78,5.14,5.14,0,0,0,4-1.68,5.91,5.91,0,0,0,1.2-2.27h3.19a6.53,6.53,0,0,1-.84,2.37,8.11,8.11,0,0,1-1.59,2.14,7.38,7.38,0,0,1-3.64,1.95,10.59,10.59,0,0,1-2.63.29,8.07,8.07,0,0,1-6.09-2.62c-1.66-1.76-2.49-4.21-2.49-7.37a11.16,11.16,0,0,1,2.51-7.57,8.26,8.26,0,0,1,6.57-2.9A8.8,8.8,0,0,1,275.1,142.67Zm1.16,7.6a8.41,8.41,0,0,0-.91-3.38,4.67,4.67,0,0,0-4.43-2.35,4.86,4.86,0,0,0-3.72,1.62,6.12,6.12,0,0,0-1.6,4.11Z"/><path class="cls-1" d="M293.93,135h3.13v15.41l8.34-8.22h4.15l-7.44,7.19L310,161.49h-4.16l-6.08-9.85-2.67,2.58v7.27h-3.13Z"/><path class="cls-1" d="M315.76,142.14V155a5.59,5.59,0,0,0,.45,2.42,3.19,3.19,0,0,0,3.15,1.74,4.45,4.45,0,0,0,4.51-3,12.4,12.4,0,0,0,.65-4.46v-9.5h3.25v19.35H324.7l0-2.86a6.23,6.23,0,0,1-1.54,1.86,6.64,6.64,0,0,1-4.43,1.52q-4.06,0-5.53-2.76a8.41,8.41,0,0,1-.8-4V142.14Z"/><path class="cls-1" d="M333.08,142.14h3.09v2.74a8.69,8.69,0,0,1,2.91-2.43,7.65,7.65,0,0,1,3.41-.74c2.75,0,4.61.95,5.57,2.87a10.22,10.22,0,0,1,.79,4.5v12.41h-3.3v-12.2a6.56,6.56,0,0,0-.53-2.85,3.16,3.16,0,0,0-3.14-1.81,6.33,6.33,0,0,0-1.9.24,4.78,4.78,0,0,0-2.34,1.59,4.6,4.6,0,0,0-1.06,2,13.53,13.53,0,0,0-.25,2.92v10.14h-3.25Z"/><path class="cls-1" d="M364.29,142.73a8.89,8.89,0,0,1,2,1.9v-9.77h3.13v26.63h-2.93V158.8a7.07,7.07,0,0,1-2.68,2.58,7.64,7.64,0,0,1-3.55.79,7.19,7.19,0,0,1-5.58-2.71,10.69,10.69,0,0,1-2.35-7.24,12.5,12.5,0,0,1,2.15-7.33,7,7,0,0,1,6.14-3.09A6.9,6.9,0,0,1,364.29,142.73ZM357,157.24a4.6,4.6,0,0,0,4.21,2.1,4.42,4.42,0,0,0,3.69-1.94,9.2,9.2,0,0,0,1.45-5.58q0-3.66-1.49-5.43a4.68,4.68,0,0,0-3.69-1.76,4.85,4.85,0,0,0-4,1.88,8.66,8.66,0,0,0-1.52,5.53A9.67,9.67,0,0,0,357,157.24Z"/><path class="cls-1" d="M386.19,142.67a7.38,7.38,0,0,1,2.92,2.5,8.74,8.74,0,0,1,1.3,3.42,22.51,22.51,0,0,1,.29,4.26H376.62a8.37,8.37,0,0,0,1.38,4.74,4.6,4.6,0,0,0,4,1.78,5.14,5.14,0,0,0,4-1.68,5.91,5.91,0,0,0,1.2-2.27h3.19a6.53,6.53,0,0,1-.84,2.37,8.11,8.11,0,0,1-1.59,2.14,7.38,7.38,0,0,1-3.64,1.95,10.59,10.59,0,0,1-2.63.29,8.07,8.07,0,0,1-6.09-2.62c-1.66-1.76-2.49-4.21-2.49-7.37a11.16,11.16,0,0,1,2.51-7.57,8.26,8.26,0,0,1,6.57-2.9A8.8,8.8,0,0,1,386.19,142.67Zm1.16,7.6a8.41,8.41,0,0,0-.91-3.38,4.67,4.67,0,0,0-4.43-2.35,4.86,4.86,0,0,0-3.72,1.62,6.12,6.12,0,0,0-1.6,4.11Z"/><path class="cls-1" d="M394.9,142.14H398v3.34a7.59,7.59,0,0,1,1.87-2.38,4.8,4.8,0,0,1,3.41-1.39h.31l.74.08v3.43a3.64,3.64,0,0,0-.54-.07,4.44,4.44,0,0,0-.53,0,4.59,4.59,0,0,0-3.77,1.58,5.51,5.51,0,0,0-1.32,3.64v11.13H394.9Z"/><path class="cls-1" d="M419.35,155.42a4.64,4.64,0,0,0,.83,2.49c.84,1.05,2.29,1.57,4.35,1.57a6.59,6.59,0,0,0,3.25-.78,2.62,2.62,0,0,0,1.4-2.43,2.09,2.09,0,0,0-1.12-1.9,13.27,13.27,0,0,0-2.83-.92l-2.63-.65a12.74,12.74,0,0,1-3.7-1.38,4.07,4.07,0,0,1-2.13-3.64,5.53,5.53,0,0,1,2-4.45,8.08,8.08,0,0,1,5.39-1.7q4.44,0,6.39,2.57a5.46,5.46,0,0,1,1.19,3.5h-3.07a3.64,3.64,0,0,0-.79-2c-.77-.85-2.09-1.28-4-1.28a4.92,4.92,0,0,0-2.86.7,2.21,2.21,0,0,0-1,1.86,2.27,2.27,0,0,0,1.28,2,7.41,7.41,0,0,0,2.17.8l2.19.52A17.28,17.28,0,0,1,430.5,152a4.35,4.35,0,0,1,1.89,3.92,5.94,5.94,0,0,1-2,4.46q-2,1.88-6.05,1.88-4.37,0-6.19-2a7.43,7.43,0,0,1-1.95-4.85Z"/><path class="cls-1" d="M435.92,135h3.3v3.68h-3.3Zm0,7.28h3.3v19.26h-3.3Z"/><path class="cls-1" d="M456.09,142.67a7.38,7.38,0,0,1,2.92,2.5,8.74,8.74,0,0,1,1.3,3.42,22.51,22.51,0,0,1,.29,4.26H446.52a8.37,8.37,0,0,0,1.38,4.74,4.6,4.6,0,0,0,4,1.78,5.14,5.14,0,0,0,4-1.68,5.91,5.91,0,0,0,1.2-2.27h3.19a6.53,6.53,0,0,1-.84,2.37,8.11,8.11,0,0,1-1.59,2.14,7.38,7.38,0,0,1-3.64,1.95,10.59,10.59,0,0,1-2.63.29,8.07,8.07,0,0,1-6.09-2.62,10.31,10.31,0,0,1-2.5-7.37,11.16,11.16,0,0,1,2.52-7.57,8.24,8.24,0,0,1,6.57-2.9A8.8,8.8,0,0,1,456.09,142.67Zm1.16,7.6a8.41,8.41,0,0,0-.91-3.38,4.68,4.68,0,0,0-4.43-2.35,4.86,4.86,0,0,0-3.72,1.62,6.12,6.12,0,0,0-1.6,4.11Z"/><path class="cls-1" d="M464.8,142.14h3.09v3.34a7.68,7.68,0,0,1,1.86-2.38,4.84,4.84,0,0,1,3.42-1.39h.31l.74.08v3.43a3.81,3.81,0,0,0-.54-.07,4.44,4.44,0,0,0-.53,0,4.63,4.63,0,0,0-3.78,1.58,5.56,5.56,0,0,0-1.31,3.64v11.13H464.8Z"/><path class="cls-1" d="M501.33,144.07q2.57,2.49,2.57,7.33a12.6,12.6,0,0,1-2.26,7.72c-1.51,2-3.85,3-7,3a7.91,7.91,0,0,1-6.3-2.69,10.69,10.69,0,0,1-2.33-7.25,11.55,11.55,0,0,1,2.45-7.76,8.22,8.22,0,0,1,6.6-2.89A8.65,8.65,0,0,1,501.33,144.07Zm-2,12.86a12.16,12.16,0,0,0,1.19-5.44,9.77,9.77,0,0,0-.85-4.4,4.81,4.81,0,0,0-4.69-2.67,4.58,4.58,0,0,0-4.28,2.27,10.53,10.53,0,0,0-1.34,5.48,9.2,9.2,0,0,0,1.34,5.15,4.7,4.7,0,0,0,4.25,2.05A4.41,4.41,0,0,0,499.31,156.93Z"/><path class="cls-1" d="M507.89,142.14h3.22v2.74a10.56,10.56,0,0,1,2.1-2.07,6.23,6.23,0,0,1,3.64-1.1,5.74,5.74,0,0,1,3.73,1.13,6,6,0,0,1,1.44,1.92,7,7,0,0,1,2.55-2.31,7.21,7.21,0,0,1,3.29-.74c2.6,0,4.37.93,5.31,2.81a9.35,9.35,0,0,1,.76,4.09v12.88h-3.38V148.05a3.12,3.12,0,0,0-1-2.66,3.83,3.83,0,0,0-2.36-.72,4.69,4.69,0,0,0-3.29,1.28c-.92.86-1.39,2.28-1.39,4.28v11.26h-3.3V148.86a6.6,6.6,0,0,0-.47-2.87,2.86,2.86,0,0,0-2.77-1.36,4.8,4.8,0,0,0-3.35,1.43c-1,.95-1.51,2.67-1.51,5.17v10.26h-3.25Z"/><path class="cls-1" d="M563,144.07q2.57,2.49,2.57,7.33a12.66,12.66,0,0,1-2.26,7.72c-1.51,2-3.85,3-7,3a7.9,7.9,0,0,1-6.29-2.69,10.69,10.69,0,0,1-2.33-7.25,11.55,11.55,0,0,1,2.45-7.76,8.22,8.22,0,0,1,6.6-2.89A8.67,8.67,0,0,1,563,144.07Zm-2,12.86a12.16,12.16,0,0,0,1.19-5.44,9.63,9.63,0,0,0-.86-4.4,4.79,4.79,0,0,0-4.68-2.67,4.58,4.58,0,0,0-4.28,2.27,10.53,10.53,0,0,0-1.34,5.48,9.2,9.2,0,0,0,1.34,5.15,4.7,4.7,0,0,0,4.25,2.05A4.41,4.41,0,0,0,561,156.93Z"/><path class="cls-1" d="M571.5,155.42a4.73,4.73,0,0,0,.83,2.49c.84,1.05,2.29,1.57,4.36,1.57a6.56,6.56,0,0,0,3.24-.78,2.6,2.6,0,0,0,1.4-2.43,2.07,2.07,0,0,0-1.12-1.9,13.27,13.27,0,0,0-2.83-.92l-2.62-.65a12.83,12.83,0,0,1-3.71-1.38,4.07,4.07,0,0,1-2.13-3.64,5.53,5.53,0,0,1,2-4.45,8.06,8.06,0,0,1,5.39-1.7q4.42,0,6.39,2.57a5.52,5.52,0,0,1,1.19,3.5h-3.07a3.73,3.73,0,0,0-.8-2c-.76-.85-2.09-1.28-4-1.28a4.89,4.89,0,0,0-2.85.7,2.19,2.19,0,0,0-1,1.86,2.26,2.26,0,0,0,1.27,2,7.53,7.53,0,0,0,2.17.8l2.2.52a17.18,17.18,0,0,1,4.78,1.65,4.33,4.33,0,0,1,1.9,3.92,5.92,5.92,0,0,1-2,4.46c-1.32,1.25-3.34,1.88-6,1.88q-4.38,0-6.19-2a7.33,7.33,0,0,1-2-4.85Z"/><path class="cls-1" d="M590,155.42a4.73,4.73,0,0,0,.83,2.49c.84,1.05,2.29,1.57,4.36,1.57a6.56,6.56,0,0,0,3.24-.78,2.6,2.6,0,0,0,1.4-2.43,2.07,2.07,0,0,0-1.12-1.9,13.27,13.27,0,0,0-2.83-.92l-2.62-.65a12.83,12.83,0,0,1-3.71-1.38,4.07,4.07,0,0,1-2.13-3.64,5.53,5.53,0,0,1,2-4.45,8.06,8.06,0,0,1,5.39-1.7q4.42,0,6.39,2.57a5.52,5.52,0,0,1,1.19,3.5h-3.07a3.73,3.73,0,0,0-.8-2c-.76-.85-2.09-1.28-4-1.28a4.89,4.89,0,0,0-2.85.7,2.19,2.19,0,0,0-1,1.86,2.26,2.26,0,0,0,1.27,2,7.53,7.53,0,0,0,2.17.8l2.2.52a17.18,17.18,0,0,1,4.78,1.65,4.33,4.33,0,0,1,1.9,3.92,5.92,5.92,0,0,1-2,4.46c-1.32,1.25-3.34,1.88-6,1.88q-4.38,0-6.19-2a7.33,7.33,0,0,1-2-4.85Z"/></svg>