<svg id="Layer_1" data-name="Layer 1" xmlns="http://www.w3.org/2000/svg" viewBox="0 0 980 300"><defs><style>.cls-1{fill:#0059ac;}</style></defs><title>text</title><path class="cls-1" d="M144.81,121.46h3.6v23.38h13.31V148H144.81Z"/><path class="cls-1" d="M165,121.46h3.3v3.69H165Zm0,7.28h3.3V148H165Z"/><path class="cls-1" d="M174.69,122.74c.76-1.11,2.23-1.66,4.39-1.66l.64,0,.74.05v3l-.74-.05h-.43c-1,0-1.6.26-1.79.77a14.65,14.65,0,0,0-.3,3.91h3.26v2.57H177.2V148H174V131.31H171.3v-2.57H174v-3A5.88,5.88,0,0,1,174.69,122.74Z"/><path class="cls-1" d="M183.55,121.46h3.25V148h-3.25Z"/><path class="cls-1" d="M191.68,121.46H195v3.69h-3.3Zm0,7.28H195V148h-3.3Z"/><path class="cls-1" d="M210.65,129.43a8.68,8.68,0,0,1,1.87,1.84v-2.44h3v17.6a13.08,13.08,0,0,1-1.08,5.82q-2,3.93-7.61,3.93a9.25,9.25,0,0,1-5.24-1.4,5.45,5.45,0,0,1-2.38-4.38h3.31a3.63,3.63,0,0,0,.93,2,4.76,4.76,0,0,0,3.45,1.08q3.72,0,4.87-2.64a15.12,15.12,0,0,0,.63-5.54,6.35,6.35,0,0,1-2.34,2.2,7.79,7.79,0,0,1-3.62.72A7.7,7.7,0,0,1,201,146c-1.56-1.48-2.35-3.94-2.35-7.38q0-4.86,2.37-7.58a7.3,7.3,0,0,1,5.71-2.73A7,7,0,0,1,210.65,129.43Zm.4,3.48a4.72,4.72,0,0,0-3.76-1.73,4.64,4.64,0,0,0-4.67,3.22,12.71,12.71,0,0,0-.66,4.49,8,8,0,0,0,1.32,5,4.25,4.25,0,0,0,3.55,1.71,5,5,0,0,0,4.9-3.16,10.25,10.25,0,0,0,.79-4.18Q212.52,134.65,211.05,132.91Z"/><path class="cls-1" d="M229.9,136H239v3.34H229.9Z"/><path class="cls-1" d="M253.44,121.46h3.26V148h-3.26Z"/><path class="cls-1" d="M273.53,129.18a7.32,7.32,0,0,1,2.92,2.51,8.64,8.64,0,0,1,1.3,3.41,22.71,22.71,0,0,1,.28,4.26H264a8.37,8.37,0,0,0,1.38,4.74,4.6,4.6,0,0,0,4,1.79,5.15,5.15,0,0,0,4-1.69,5.76,5.76,0,0,0,1.19-2.27h3.2a6.63,6.63,0,0,1-.84,2.38,8.46,8.46,0,0,1-1.59,2.14,7.54,7.54,0,0,1-3.64,2,11.17,11.17,0,0,1-2.64.29,8.07,8.07,0,0,1-6.08-2.63c-1.67-1.75-2.5-4.21-2.5-7.36a11.14,11.14,0,0,1,2.52-7.57,8.25,8.25,0,0,1,6.57-2.91A8.8,8.8,0,0,1,273.53,129.18Zm1.16,7.6a8.63,8.63,0,0,0-.91-3.38,4.69,4.69,0,0,0-4.43-2.35,4.86,4.86,0,0,0-3.72,1.62,6.12,6.12,0,0,0-1.6,4.11Z"/><path class="cls-1" d="M283.75,128.65l5.17,15.75,5.38-15.75h3.56L290.58,148h-3.47L280,128.65Z"/><path class="cls-1" d="M312.6,129.18a7.29,7.29,0,0,1,2.93,2.51,8.48,8.48,0,0,1,1.29,3.41,21.68,21.68,0,0,1,.29,4.26H303a8.37,8.37,0,0,0,1.38,4.74,4.6,4.6,0,0,0,4,1.79,5.16,5.16,0,0,0,4-1.69,5.76,5.76,0,0,0,1.19-2.27h3.2a6.63,6.63,0,0,1-.84,2.38,9,9,0,0,1-1.59,2.14,7.58,7.58,0,0,1-3.64,2,11.17,11.17,0,0,1-2.64.29,8.07,8.07,0,0,1-6.08-2.63c-1.67-1.75-2.5-4.21-2.5-7.36a11.19,11.19,0,0,1,2.51-7.57,8.28,8.28,0,0,1,6.58-2.91A8.75,8.75,0,0,1,312.6,129.18Zm1.17,7.6a8.45,8.45,0,0,0-.92-3.38,4.67,4.67,0,0,0-4.42-2.35,4.9,4.9,0,0,0-3.73,1.62,6.16,6.16,0,0,0-1.59,4.11Z"/><path class="cls-1" d="M321.32,128.65h3.09V132a7.26,7.26,0,0,1,1.86-2.37,4.81,4.81,0,0,1,3.42-1.4,2,2,0,0,1,.3,0l.74.07v3.43a3.69,3.69,0,0,0-.53-.07l-.53,0a4.66,4.66,0,0,0-3.78,1.58,5.53,5.53,0,0,0-1.32,3.64V148h-3.25Z"/><path class="cls-1" d="M343.92,136.29a1.77,1.77,0,0,0,1.5-.94,3,3,0,0,0,.22-1.25,2.67,2.67,0,0,0-1.18-2.42,6.34,6.34,0,0,0-3.38-.75,4.28,4.28,0,0,0-3.61,1.38,4.51,4.51,0,0,0-.78,2.27h-3c.06-2.39.83-4.06,2.32-5a9.45,9.45,0,0,1,5.17-1.41,10.59,10.59,0,0,1,5.54,1.3,4.42,4.42,0,0,1,2.11,4.05v11.15a1.41,1.41,0,0,0,.21.81,1,1,0,0,0,.87.31l.49,0,.58-.08v2.4a8.74,8.74,0,0,1-1.16.27,7.51,7.51,0,0,1-1.08.06,2.68,2.68,0,0,1-2.44-1.2,4.66,4.66,0,0,1-.56-1.78,8.33,8.33,0,0,1-2.85,2.25,8.86,8.86,0,0,1-4.11,1,6.11,6.11,0,0,1-4.4-1.63,5.45,5.45,0,0,1-1.7-4.09,5.27,5.27,0,0,1,1.68-4.17,8.06,8.06,0,0,1,4.41-1.82Zm-6.85,8.79a3.84,3.84,0,0,0,2.44.81,7.42,7.42,0,0,0,3.33-.8,4.47,4.47,0,0,0,2.71-4.31v-2.61a5.78,5.78,0,0,1-1.53.63,12.7,12.7,0,0,1-1.84.36l-2,.26a7.67,7.67,0,0,0-2.66.73,2.9,2.9,0,0,0-1.51,2.71A2.72,2.72,0,0,0,337.07,145.08Z"/><path class="cls-1" d="M354.13,128.65h3.09v2.75a8.54,8.54,0,0,1,2.91-2.44,7.65,7.65,0,0,1,3.41-.74c2.75,0,4.6.95,5.57,2.87a10.22,10.22,0,0,1,.79,4.5V148h-3.3V135.8a6.59,6.59,0,0,0-.53-2.85,3.18,3.18,0,0,0-3.14-1.81,6.28,6.28,0,0,0-1.9.24,4.85,4.85,0,0,0-2.35,1.59,4.78,4.78,0,0,0-1.05,2,12.79,12.79,0,0,0-.25,2.92V148h-3.25Z"/><path class="cls-1" d="M376.64,141.93a4.64,4.64,0,0,0,.83,2.49c.84,1.05,2.29,1.57,4.35,1.57a6.59,6.59,0,0,0,3.25-.78,2.61,2.61,0,0,0,1.4-2.43,2.1,2.1,0,0,0-1.12-1.9,13.89,13.89,0,0,0-2.83-.92l-2.62-.65a13,13,0,0,1-3.71-1.37,4.1,4.1,0,0,1-2.13-3.65,5.55,5.55,0,0,1,2-4.45,8.08,8.08,0,0,1,5.39-1.7q4.44,0,6.39,2.57a5.46,5.46,0,0,1,1.19,3.5H386a3.64,3.64,0,0,0-.79-2c-.77-.85-2.09-1.27-4-1.27a4.85,4.85,0,0,0-2.86.7,2.19,2.19,0,0,0-1,1.85,2.29,2.29,0,0,0,1.28,2,7.75,7.75,0,0,0,2.17.79l2.19.52a17.28,17.28,0,0,1,4.79,1.65,4.36,4.36,0,0,1,1.89,3.92,5.94,5.94,0,0,1-2,4.46q-2,1.88-6.05,1.88-4.36,0-6.19-2a7.4,7.4,0,0,1-1.95-4.85Z"/><path class="cls-1" d="M405.16,129.18a7.32,7.32,0,0,1,2.92,2.51,8.64,8.64,0,0,1,1.3,3.41,22.51,22.51,0,0,1,.29,4.26H395.59A8.37,8.37,0,0,0,397,144.1a4.6,4.6,0,0,0,4,1.79,5.15,5.15,0,0,0,4-1.69,5.91,5.91,0,0,0,1.2-2.27h3.19a6.63,6.63,0,0,1-.84,2.38,8.46,8.46,0,0,1-1.59,2.14,7.54,7.54,0,0,1-3.64,2,11.08,11.08,0,0,1-2.63.29,8.08,8.08,0,0,1-6.09-2.63,10.29,10.29,0,0,1-2.5-7.36,11.14,11.14,0,0,1,2.52-7.57,8.25,8.25,0,0,1,6.57-2.91A8.8,8.8,0,0,1,405.16,129.18Zm1.16,7.6a8.46,8.46,0,0,0-.91-3.38,4.69,4.69,0,0,0-4.43-2.35,4.86,4.86,0,0,0-3.72,1.62,6.12,6.12,0,0,0-1.6,4.11Z"/><path class="cls-1" d="M413.78,128.65H417v2.75a10.65,10.65,0,0,1,2.1-2.08,6.23,6.23,0,0,1,3.64-1.1,5.75,5.75,0,0,1,3.73,1.14,5.86,5.86,0,0,1,1.44,1.91,6.93,6.93,0,0,1,2.55-2.3,7.09,7.09,0,0,1,3.29-.75q3.9,0,5.31,2.82a9.28,9.28,0,0,1,.76,4.08V148h-3.38V134.56a3.12,3.12,0,0,0-1-2.66,3.83,3.83,0,0,0-2.36-.72,4.69,4.69,0,0,0-3.29,1.28c-.92.86-1.38,2.29-1.38,4.28V148h-3.31V135.37a6.6,6.6,0,0,0-.47-2.87,2.87,2.87,0,0,0-2.76-1.36,4.8,4.8,0,0,0-3.36,1.43c-1,1-1.5,2.68-1.5,5.17V148h-3.26Z"/><path class="cls-1" d="M458.63,130.58c1.71,1.66,2.56,4.11,2.56,7.33a12.63,12.63,0,0,1-2.26,7.73c-1.51,2-3.84,3.05-7,3.05a7.88,7.88,0,0,1-6.3-2.7,10.69,10.69,0,0,1-2.33-7.25,11.6,11.6,0,0,1,2.45-7.76,8.22,8.22,0,0,1,6.61-2.89A8.68,8.68,0,0,1,458.63,130.58Zm-2,12.86a12.3,12.3,0,0,0,1.18-5.44,9.8,9.8,0,0,0-.85-4.4,4.82,4.82,0,0,0-4.68-2.67A4.61,4.61,0,0,0,448,133.2a10.66,10.66,0,0,0-1.34,5.49,9.27,9.27,0,0,0,1.34,5.14,4.7,4.7,0,0,0,4.25,2.06A4.45,4.45,0,0,0,456.61,143.44Z"/><path class="cls-1" d="M475.81,129.25a8.59,8.59,0,0,1,2,1.89v-9.77h3.13V148H478v-2.69a7,7,0,0,1-2.68,2.58,7.63,7.63,0,0,1-3.54.8,7.17,7.17,0,0,1-5.58-2.72,10.69,10.69,0,0,1-2.36-7.24,12.52,12.52,0,0,1,2.15-7.32,7,7,0,0,1,6.15-3.1A6.78,6.78,0,0,1,475.81,129.25Zm-7.25,14.5a4.57,4.57,0,0,0,4.2,2.1,4.42,4.42,0,0,0,3.69-1.94,9.18,9.18,0,0,0,1.45-5.58q0-3.66-1.49-5.42a4.62,4.62,0,0,0-3.68-1.77,4.87,4.87,0,0,0-4,1.88,8.68,8.68,0,0,0-1.52,5.53A9.56,9.56,0,0,0,468.56,143.75Z"/><path class="cls-1" d="M497.71,129.18a7.35,7.35,0,0,1,2.93,2.51,8.63,8.63,0,0,1,1.29,3.41,22.51,22.51,0,0,1,.29,4.26H488.15a8.22,8.22,0,0,0,1.38,4.74,4.6,4.6,0,0,0,4,1.79,5.17,5.17,0,0,0,4-1.69,5.76,5.76,0,0,0,1.19-2.27H502a7,7,0,0,1-.84,2.38,9,9,0,0,1-1.59,2.14,7.58,7.58,0,0,1-3.64,2,11.17,11.17,0,0,1-2.64.29,8.11,8.11,0,0,1-6.09-2.63c-1.66-1.75-2.49-4.21-2.49-7.36a11.19,11.19,0,0,1,2.51-7.57,8.28,8.28,0,0,1,6.57-2.91A8.76,8.76,0,0,1,497.71,129.18Zm1.17,7.6a8.62,8.62,0,0,0-.92-3.38,4.68,4.68,0,0,0-4.42-2.35,4.89,4.89,0,0,0-3.73,1.62,6.16,6.16,0,0,0-1.59,4.11Z"/><path class="cls-1" d="M506.43,121.46h3.25V148h-3.25Z"/><path class="cls-1" d="M514.65,121.46h3.25V148h-3.25Z"/><path class="cls-1" d="M534.58,122.74q1.14-1.67,4.39-1.66l.63,0,.74.05v3l-.74-.05h-.43c-1,0-1.6.26-1.79.77a15.3,15.3,0,0,0-.29,3.91h3.25v2.57h-3.25V148h-3.22V131.31h-2.69v-2.57h2.69v-3A5.76,5.76,0,0,1,534.58,122.74Z"/><path class="cls-1" d="M557.36,130.58c1.71,1.66,2.56,4.11,2.56,7.33a12.63,12.63,0,0,1-2.26,7.73q-2.25,3-7,3.05a7.91,7.91,0,0,1-6.3-2.7,10.74,10.74,0,0,1-2.33-7.25,11.56,11.56,0,0,1,2.46-7.76,8.22,8.22,0,0,1,6.6-2.89A8.68,8.68,0,0,1,557.36,130.58Zm-2,12.86a12.3,12.3,0,0,0,1.19-5.44,9.79,9.79,0,0,0-.86-4.4,4.82,4.82,0,0,0-4.68-2.67,4.61,4.61,0,0,0-4.29,2.27,10.66,10.66,0,0,0-1.34,5.49,9.27,9.27,0,0,0,1.34,5.14,4.7,4.7,0,0,0,4.25,2.06A4.44,4.44,0,0,0,555.34,143.44Z"/><path class="cls-1" d="M564,128.65h3.09V132a7.26,7.26,0,0,1,1.86-2.37,4.79,4.79,0,0,1,3.41-1.4,2.16,2.16,0,0,1,.31,0l.74.07v3.43a3.69,3.69,0,0,0-.53-.07l-.54,0a4.64,4.64,0,0,0-3.77,1.58,5.53,5.53,0,0,0-1.32,3.64V148H564Z"/><path class="cls-1" d="M146.31,186.33a4.73,4.73,0,0,0,.83,2.49c.84,1.05,2.29,1.57,4.35,1.57a6.59,6.59,0,0,0,3.25-.78,2.61,2.61,0,0,0,1.4-2.43,2.07,2.07,0,0,0-1.12-1.9,13.89,13.89,0,0,0-2.83-.92l-2.62-.65a13,13,0,0,1-3.71-1.37,4.1,4.1,0,0,1-2.13-3.65,5.58,5.58,0,0,1,2-4.45,8.1,8.1,0,0,1,5.39-1.7q4.44,0,6.39,2.57a5.47,5.47,0,0,1,1.19,3.51h-3.07a3.64,3.64,0,0,0-.79-2c-.77-.85-2.09-1.27-4-1.27a4.85,4.85,0,0,0-2.86.7,2.19,2.19,0,0,0-1,1.85,2.29,2.29,0,0,0,1.28,2,7.75,7.75,0,0,0,2.17.79l2.19.52a17.28,17.28,0,0,1,4.79,1.65,4.36,4.36,0,0,1,1.89,3.92,5.94,5.94,0,0,1-2,4.46c-1.32,1.25-3.34,1.88-6,1.88-2.92,0-5-.65-6.2-2a7.35,7.35,0,0,1-1.94-4.85Z"/><path class="cls-1" d="M162.81,165.86h3.12v15.41l8.34-8.22h4.15l-7.43,7.2,7.85,12.15h-4.15l-6.09-9.85-2.67,2.59v7.26h-3.12Z"/><path class="cls-1" d="M181.47,173.05h3.09v3.34a7.26,7.26,0,0,1,1.86-2.37,4.79,4.79,0,0,1,3.41-1.4h.31l.74.08v3.43a3.69,3.69,0,0,0-.53-.07l-.54,0a4.65,4.65,0,0,0-3.77,1.58,5.51,5.51,0,0,0-1.32,3.64V192.4h-3.25Z"/><path class="cls-1" d="M205.65,173.58a7.35,7.35,0,0,1,2.93,2.51,8.78,8.78,0,0,1,1.29,3.41,22.51,22.51,0,0,1,.29,4.26H196.08a8.37,8.37,0,0,0,1.38,4.74,4.61,4.61,0,0,0,4,1.79,5.17,5.17,0,0,0,4-1.69,5.82,5.82,0,0,0,1.19-2.27h3.2a7,7,0,0,1-.84,2.38,8.72,8.72,0,0,1-1.6,2.14,7.54,7.54,0,0,1-3.64,2,11,11,0,0,1-2.63.29,8.11,8.11,0,0,1-6.09-2.63c-1.66-1.75-2.49-4.21-2.49-7.36a11.17,11.17,0,0,1,2.51-7.57,8.28,8.28,0,0,1,6.57-2.91A8.76,8.76,0,0,1,205.65,173.58Zm1.17,7.6a8.62,8.62,0,0,0-.92-3.38,4.68,4.68,0,0,0-4.42-2.35,4.89,4.89,0,0,0-3.73,1.62,6.16,6.16,0,0,0-1.59,4.11Z"/><path class="cls-1" d="M224.91,173.65a8.79,8.79,0,0,1,2,1.89v-9.77H230V192.4h-2.92v-2.69a7.07,7.07,0,0,1-2.68,2.58,7.7,7.7,0,0,1-3.55.8,7.17,7.17,0,0,1-5.58-2.72,10.69,10.69,0,0,1-2.36-7.24,12.52,12.52,0,0,1,2.15-7.32,7,7,0,0,1,6.15-3.1A6.81,6.81,0,0,1,224.91,173.65Zm-7.26,14.5a4.58,4.58,0,0,0,4.2,2.1,4.45,4.45,0,0,0,3.7-1.94,9.25,9.25,0,0,0,1.45-5.58q0-3.66-1.5-5.43a4.64,4.64,0,0,0-3.68-1.76,4.89,4.89,0,0,0-4,1.88,8.68,8.68,0,0,0-1.51,5.53A9.56,9.56,0,0,0,217.65,188.15Z"/><path class="cls-1" d="M245.49,173.65a9,9,0,0,1,2,1.89v-9.77h3.12V192.4h-2.92v-2.69a7,7,0,0,1-2.69,2.58,7.63,7.63,0,0,1-3.54.8,7.17,7.17,0,0,1-5.58-2.72,10.69,10.69,0,0,1-2.36-7.24,12.52,12.52,0,0,1,2.15-7.32,7,7,0,0,1,6.15-3.1A6.84,6.84,0,0,1,245.49,173.65Zm-7.26,14.5a4.57,4.57,0,0,0,4.2,2.1,4.45,4.45,0,0,0,3.7-1.94,9.25,9.25,0,0,0,1.44-5.58c0-2.44-.49-4.25-1.49-5.43a4.64,4.64,0,0,0-3.68-1.76,4.89,4.89,0,0,0-4,1.88,8.68,8.68,0,0,0-1.52,5.53A9.56,9.56,0,0,0,238.23,188.15Z"/><path class="cls-1" d="M267.38,173.58a7.35,7.35,0,0,1,2.93,2.51,8.48,8.48,0,0,1,1.29,3.41,22.51,22.51,0,0,1,.29,4.26H257.82a8.37,8.37,0,0,0,1.38,4.74,4.6,4.6,0,0,0,4,1.79,5.17,5.17,0,0,0,4-1.69,5.69,5.69,0,0,0,1.19-2.27h3.2a6.63,6.63,0,0,1-.84,2.38,9,9,0,0,1-1.59,2.14,7.58,7.58,0,0,1-3.64,2,11.17,11.17,0,0,1-2.64.29,8.07,8.07,0,0,1-6.08-2.63c-1.67-1.75-2.5-4.21-2.5-7.36a11.17,11.17,0,0,1,2.51-7.57,8.28,8.28,0,0,1,6.58-2.91A8.75,8.75,0,0,1,267.38,173.58Zm1.17,7.6a8.63,8.63,0,0,0-.91-3.38,4.69,4.69,0,0,0-4.43-2.35,4.9,4.9,0,0,0-3.73,1.62,6.16,6.16,0,0,0-1.59,4.11Z"/><path class="cls-1" d="M276.1,173.05h3.09v3.34a7.26,7.26,0,0,1,1.86-2.37,4.81,4.81,0,0,1,3.42-1.4h.3l.74.08v3.43a3.69,3.69,0,0,0-.53-.07l-.53,0a4.66,4.66,0,0,0-3.78,1.58,5.51,5.51,0,0,0-1.32,3.64V192.4H276.1Z"/><path class="cls-1" d="M290.26,186.33a4.73,4.73,0,0,0,.83,2.49c.84,1.05,2.29,1.57,4.35,1.57a6.57,6.57,0,0,0,3.25-.78,2.61,2.61,0,0,0,1.4-2.43,2.07,2.07,0,0,0-1.12-1.9,13.89,13.89,0,0,0-2.83-.92l-2.62-.65a13.17,13.17,0,0,1-3.71-1.37,4.1,4.1,0,0,1-2.13-3.65,5.56,5.56,0,0,1,2-4.45,8.06,8.06,0,0,1,5.39-1.7q4.43,0,6.39,2.57a5.58,5.58,0,0,1,1.19,3.51h-3.07a3.73,3.73,0,0,0-.8-2c-.76-.85-2.09-1.27-4-1.27a4.81,4.81,0,0,0-2.85.7,2.17,2.17,0,0,0-1,1.85,2.28,2.28,0,0,0,1.27,2,7.87,7.87,0,0,0,2.17.79l2.19.52a17.15,17.15,0,0,1,4.79,1.65,4.34,4.34,0,0,1,1.9,3.92,5.92,5.92,0,0,1-2,4.46c-1.32,1.25-3.34,1.88-6,1.88q-4.38,0-6.19-2a7.3,7.3,0,0,1-1.95-4.85Z"/><path class="cls-1" d="M318.93,173.05h3.59c-.46,1.24-1.47,4.07-3,8.5q-1.77,5-3,8.13-2.82,7.4-4,9c-.77,1.08-2.09,1.62-4,1.62a9,9,0,0,1-1.05-.05c-.25,0-.55-.11-.91-.2v-3a10.55,10.55,0,0,0,1.22.28,4.36,4.36,0,0,0,.67.06,2.3,2.3,0,0,0,1.32-.3,2.63,2.63,0,0,0,.72-.73c.06-.1.27-.59.65-1.48s.64-1.55.81-2l-7.16-19.92h3.69l5.18,15.76Z"/><path class="cls-1" d="M336,173.65a8.59,8.59,0,0,1,2,1.89v-9.77h3.13V192.4h-2.93v-2.69a7,7,0,0,1-2.68,2.58,7.64,7.64,0,0,1-3.55.8,7.2,7.2,0,0,1-5.58-2.72,10.69,10.69,0,0,1-2.35-7.24,12.45,12.45,0,0,1,2.15-7.32,7,7,0,0,1,6.14-3.1A6.79,6.79,0,0,1,336,173.65Zm-7.26,14.5a4.6,4.6,0,0,0,4.21,2.1,4.42,4.42,0,0,0,3.69-1.94,9.18,9.18,0,0,0,1.45-5.58q0-3.66-1.49-5.43a4.68,4.68,0,0,0-3.69-1.76,4.85,4.85,0,0,0-4,1.88,8.68,8.68,0,0,0-1.52,5.53A9.65,9.65,0,0,0,328.7,188.15Z"/><path class="cls-1" d="M356.54,173.65a8.79,8.79,0,0,1,2,1.89v-9.77h3.13V192.4H358.7v-2.69a7.07,7.07,0,0,1-2.68,2.58,7.67,7.67,0,0,1-3.55.8,7.19,7.19,0,0,1-5.58-2.72,10.69,10.69,0,0,1-2.35-7.24,12.45,12.45,0,0,1,2.15-7.32,7,7,0,0,1,6.14-3.1A6.81,6.81,0,0,1,356.54,173.65Zm-7.26,14.5a4.59,4.59,0,0,0,4.21,2.1,4.43,4.43,0,0,0,3.69-1.94,9.18,9.18,0,0,0,1.45-5.58q0-3.66-1.49-5.43a4.68,4.68,0,0,0-3.69-1.76,4.85,4.85,0,0,0-4,1.88A8.62,8.62,0,0,0,348,183,9.65,9.65,0,0,0,349.28,188.15Z"/><path class="cls-1" d="M378.7,186.33a4.64,4.64,0,0,0,.83,2.49c.83,1.05,2.28,1.57,4.35,1.57a6.59,6.59,0,0,0,3.25-.78,2.61,2.61,0,0,0,1.4-2.43,2.09,2.09,0,0,0-1.12-1.9,13.89,13.89,0,0,0-2.83-.92l-2.63-.65a13.08,13.08,0,0,1-3.7-1.37,4.1,4.1,0,0,1-2.13-3.65,5.55,5.55,0,0,1,2-4.45,8.08,8.08,0,0,1,5.39-1.7q4.44,0,6.39,2.57a5.47,5.47,0,0,1,1.19,3.51H388a3.72,3.72,0,0,0-.79-2c-.77-.85-2.09-1.27-4-1.27a4.85,4.85,0,0,0-2.86.7,2.19,2.19,0,0,0-1,1.85,2.29,2.29,0,0,0,1.28,2,7.75,7.75,0,0,0,2.17.79l2.19.52a17.28,17.28,0,0,1,4.79,1.65,4.36,4.36,0,0,1,1.89,3.92,5.94,5.94,0,0,1-2,4.46q-2,1.88-6.05,1.88c-2.91,0-5-.65-6.19-2a7.4,7.4,0,0,1-1.95-4.85Z"/><path class="cls-1" d="M409.29,175c1.71,1.66,2.56,4.11,2.56,7.33a12.63,12.63,0,0,1-2.26,7.73c-1.51,2-3.84,3.05-7,3.05a7.88,7.88,0,0,1-6.3-2.7,10.69,10.69,0,0,1-2.33-7.25,11.6,11.6,0,0,1,2.45-7.76,8.22,8.22,0,0,1,6.61-2.89A8.68,8.68,0,0,1,409.29,175Zm-2,12.86a12.3,12.3,0,0,0,1.18-5.44,9.8,9.8,0,0,0-.85-4.4,4.82,4.82,0,0,0-4.68-2.67,4.59,4.59,0,0,0-4.29,2.27,10.69,10.69,0,0,0-1.34,5.49,9.27,9.27,0,0,0,1.34,5.14,4.7,4.7,0,0,0,4.25,2.06A4.45,4.45,0,0,0,407.27,187.84Z"/><path class="cls-1" d="M417.36,167.14c.76-1.1,2.22-1.66,4.39-1.66l.63,0,.75.05v3l-.74-.05H422c-1,0-1.6.26-1.79.77a14.6,14.6,0,0,0-.3,3.91h3.26v2.57h-3.26V192.4h-3.21V175.71H414v-2.57h2.69v-3A5.88,5.88,0,0,1,417.36,167.14Z"/><path class="cls-1" d="M426.77,167.65h3.29v5.4h3.09v2.66h-3.09v12.62a1.37,1.37,0,0,0,.69,1.36,2.92,2.92,0,0,0,1.26.2h.51l.63-.06v2.58a6.27,6.27,0,0,1-1.16.23,10.72,10.72,0,0,1-1.31.08q-2.28,0-3.09-1.17a5.16,5.16,0,0,1-.82-3V175.71h-2.62v-2.66h2.62Z"/><path class="cls-1" d="M437.91,173.05l3.72,15.25,3.78-15.25h3.65l3.79,15.16,4-15.16h3.25l-5.62,19.35h-3.38l-3.93-15-3.82,15h-3.37l-5.59-19.35Z"/><path class="cls-1" d="M473.49,180.69a1.77,1.77,0,0,0,1.5-.94,2.8,2.8,0,0,0,.22-1.25,2.65,2.65,0,0,0-1.18-2.42,6.34,6.34,0,0,0-3.38-.75,4.28,4.28,0,0,0-3.61,1.38,4.61,4.61,0,0,0-.77,2.27h-3q.09-3.6,2.32-5a9.47,9.47,0,0,1,5.17-1.41,10.49,10.49,0,0,1,5.54,1.3,4.42,4.42,0,0,1,2.11,4.05v11.15a1.41,1.41,0,0,0,.21.81,1,1,0,0,0,.88.31l.48,0,.58-.08v2.4a10.66,10.66,0,0,1-1.15.27,7.76,7.76,0,0,1-1.09.06,2.68,2.68,0,0,1-2.44-1.2,4.66,4.66,0,0,1-.56-1.79,8.11,8.11,0,0,1-2.85,2.26,8.82,8.82,0,0,1-4.1,1,6.09,6.09,0,0,1-4.4-1.63,5.42,5.42,0,0,1-1.71-4.09,5.27,5.27,0,0,1,1.68-4.17,8.06,8.06,0,0,1,4.41-1.82Zm-6.84,8.78a3.77,3.77,0,0,0,2.44.82,7.41,7.41,0,0,0,3.32-.8,4.45,4.45,0,0,0,2.71-4.31v-2.61a5.78,5.78,0,0,1-1.53.63,12.7,12.7,0,0,1-1.84.36l-2,.25a7.73,7.73,0,0,0-2.65.74,2.88,2.88,0,0,0-1.51,2.71A2.64,2.64,0,0,0,466.65,189.47Z"/><path class="cls-1" d="M483.79,173.05h3.09v3.34a7.26,7.26,0,0,1,1.86-2.37,4.81,4.81,0,0,1,3.42-1.4h.3l.75.08v3.43a4,4,0,0,0-.54-.07l-.53,0a4.66,4.66,0,0,0-3.78,1.58,5.51,5.51,0,0,0-1.32,3.64V192.4h-3.25Z"/><path class="cls-1" d="M508,173.58a7.35,7.35,0,0,1,2.93,2.51,8.48,8.48,0,0,1,1.29,3.41,22.51,22.51,0,0,1,.29,4.26H498.41a8.37,8.37,0,0,0,1.38,4.74,4.6,4.6,0,0,0,4,1.79,5.16,5.16,0,0,0,4-1.69,5.69,5.69,0,0,0,1.19-2.27h3.2a6.63,6.63,0,0,1-.84,2.38,9,9,0,0,1-1.59,2.14,7.58,7.58,0,0,1-3.64,2,11.17,11.17,0,0,1-2.64.29,8.07,8.07,0,0,1-6.08-2.63c-1.67-1.75-2.5-4.21-2.5-7.36a11.17,11.17,0,0,1,2.51-7.57,8.28,8.28,0,0,1,6.58-2.91A8.75,8.75,0,0,1,508,173.58Zm1.17,7.6a8.45,8.45,0,0,0-.92-3.38,4.67,4.67,0,0,0-4.42-2.35,4.9,4.9,0,0,0-3.73,1.62,6.16,6.16,0,0,0-1.59,4.11Z"/></svg>