<svg id="Layer_1" data-name="Layer 1" xmlns="http://www.w3.org/2000/svg" viewBox="0 0 320 320"><defs><style>.cls-1{fill:#d80201;}</style></defs><title>text</title><path class="cls-1" d="M57.12,140.79c-2.27,2.45-5.84,2.06-8.89,2.06v8.65H43.68V128.15h6.79c2.31,0,4.34.18,6.16,1.79A7.42,7.42,0,0,1,59,135.57,7.66,7.66,0,0,1,57.12,140.79Zm-4-7.95a5.42,5.42,0,0,0-3.32-.73H48.23v6.79h1.86c2.27,0,4.23-.74,4.23-3.36A3.45,3.45,0,0,0,53.13,132.84Z"/><path class="cls-1" d="M72.63,151.5v-2A5.86,5.86,0,0,1,67.69,152c-4.55,0-7.46-3.78-7.46-8.12s2.91-8,7.35-8a6.32,6.32,0,0,1,5,2.42v-1.93H76.9V151.5Zm-3.78-11.83a4.25,4.25,0,1,0,4.23,4.23A4.23,4.23,0,0,0,68.85,139.67Z"/><path class="cls-1" d="M85.78,152A8.06,8.06,0,0,1,80,149.47l2.24-2.59a4.92,4.92,0,0,0,3.57,1.78A1.78,1.78,0,0,0,87.74,147c0-2.59-6.75-1.29-6.75-6.4,0-3.08,2.55-4.8,5.42-4.8a7.81,7.81,0,0,1,4.94,1.61l-2.1,2.49a4.26,4.26,0,0,0-2.52-1c-.74,0-1.61.46-1.61,1.3,0,2.2,7,1.22,7,6.4C92.12,150.1,89,152,85.78,152Z"/><path class="cls-1" d="M100,152a8.1,8.1,0,0,1-5.78-2.52l2.24-2.59a5,5,0,0,0,3.57,1.78,1.79,1.79,0,0,0,1.93-1.68c0-2.59-6.76-1.29-6.76-6.4,0-3.08,2.56-4.8,5.43-4.8a7.78,7.78,0,0,1,4.93,1.61l-2.1,2.49a4.21,4.21,0,0,0-2.52-1c-.73,0-1.61.46-1.61,1.3,0,2.2,7,1.22,7,6.4C106.29,150.1,103.21,152,100,152Z"/><path class="cls-1" d="M120.89,151.5v-2A5.84,5.84,0,0,1,116,152c-4.55,0-7.45-3.78-7.45-8.12s2.9-8,7.35-8a6.3,6.3,0,0,1,5,2.42v-1.93h4.27V151.5Zm-3.78-11.83a4.25,4.25,0,1,0,4.24,4.23A4.23,4.23,0,0,0,117.11,139.67Z"/><path class="cls-1" d="M147.28,152a6,6,0,0,1-5.08-2.49v10.09H138V136.34h4.23v1.93a6,6,0,0,1,5-2.42c4.52,0,7.5,3.75,7.5,8.09S151.72,152,147.28,152ZM146,139.67a4.25,4.25,0,1,0,4.23,4.23A4.23,4.23,0,0,0,146,139.67Z"/><path class="cls-1" d="M169.47,151.5v-2a5.86,5.86,0,0,1-4.94,2.49c-4.55,0-7.45-3.78-7.45-8.12s2.9-8,7.35-8a6.31,6.31,0,0,1,5,2.42v-1.93h4.27V151.5Zm-3.78-11.83a4.25,4.25,0,1,0,4.23,4.23A4.23,4.23,0,0,0,165.69,139.67Zm-.6-6a3.15,3.15,0,0,1,0-6.3,3.15,3.15,0,0,1,0,6.3Zm0-4.37a1.23,1.23,0,1,0,1.23,1.22A1.2,1.2,0,0,0,165.09,129.31Z"/><path class="cls-1" d="M191.38,152a8.1,8.1,0,0,1-5.78-2.52l2.24-2.59a5,5,0,0,0,3.57,1.78,1.79,1.79,0,0,0,1.93-1.68c0-2.59-6.76-1.29-6.76-6.4,0-3.08,2.56-4.8,5.43-4.8a7.78,7.78,0,0,1,4.93,1.61l-2.1,2.49a4.21,4.21,0,0,0-2.52-1c-.73,0-1.61.46-1.61,1.3,0,2.2,7,1.22,7,6.4C197.71,150.1,194.63,152,191.38,152Z"/><path class="cls-1" d="M204.26,144.6c.07,2.35,1.19,4.06,3.71,4.06a4,4,0,0,0,3.6-2l3.92.63c-1.33,3.26-4,4.73-7.45,4.73-4.9,0-8.12-3.15-8.12-8.09s3.08-8.05,7.94-8.05,7.74,3.36,7.74,8.19v.56Zm3.67-5.74a3.44,3.44,0,0,0-3.53,3h7.17A3.51,3.51,0,0,0,207.93,138.86Z"/><path class="cls-1" d="M229.21,151.5v-8.4c0-2.07-.45-3.64-2.87-3.64-2.62,0-3.25,1.92-3.25,4.2v7.84h-4.24V136.34h4.24v1.86a5.6,5.6,0,0,1,4.76-2.35,5.23,5.23,0,0,1,5.6,6v9.63Z"/><path class="cls-1" d="M249.09,151.5v-2a5.84,5.84,0,0,1-4.93,2.49c-4.55,0-7.46-3.78-7.46-8.12s2.91-8,7.35-8a6.3,6.3,0,0,1,5,2.42v-1.93h4.27V151.5Zm-3.78-11.83a4.25,4.25,0,1,0,4.24,4.23A4.23,4.23,0,0,0,245.31,139.67Z"/><path class="cls-1" d="M262.25,152a8.06,8.06,0,0,1-5.77-2.52l2.24-2.59a4.92,4.92,0,0,0,3.57,1.78,1.78,1.78,0,0,0,1.92-1.68c0-2.59-6.75-1.29-6.75-6.4,0-3.08,2.55-4.8,5.42-4.8a7.83,7.83,0,0,1,4.94,1.61l-2.1,2.49a4.26,4.26,0,0,0-2.52-1c-.74,0-1.61.46-1.61,1.3,0,2.2,7,1.22,7,6.4C268.59,150.1,265.51,152,262.25,152Z"/><path class="cls-1" d="M275.87,140V151.5h-4.24V140H270v-3.64h1.68v-5.18h4.24v5.18h3V140Z"/><path class="cls-1" d="M81.78,189.09c-4.34,0-8.16-2.8-8.4-7.31H78a3.81,3.81,0,1,0,4-4.1,7.93,7.93,0,0,0-.84.07v-3.29a3.33,3.33,0,0,0,.63,0,3.17,3.17,0,1,0,.1-6.34c-2,0-2.94,1.23-3.18,3.08H74.32c.67-4.41,3.36-6.68,7.81-6.68,3.88,0,7.1,2.31,7.1,6.44a5.2,5.2,0,0,1-2.69,5,5.74,5.74,0,0,1,3.57,5.74C90.11,186.47,86.22,189.09,81.78,189.09Z"/><path class="cls-1" d="M100.33,188.5V169.14H97v-4h7.91V188.5Z"/><path class="cls-1" d="M130.88,189c-4.83,0-8.68-3-8.68-8.05s3.85-8.09,8.72-8.09,8.61,3.05,8.61,8.05S135.68,189,130.88,189Zm0-12.32a4.25,4.25,0,1,0,4.3,4.27A4.28,4.28,0,0,0,130.85,176.67Z"/><path class="cls-1" d="M153.18,188.5,147.47,182l-.45.45v6.06h-4.24V162.28H147v16.59l5.67-5.53h5.74L151.32,180,159,188.5Z"/><path class="cls-1" d="M165.15,177V188.5h-4.24V177h-1.68v-3.64h1.68v-5.18h4.24v5.18h3V177Z"/><path class="cls-1" d="M178.2,189c-4.83,0-8.68-3-8.68-8.05s3.85-8.09,8.72-8.09,8.61,3.05,8.61,8.05S183,189,178.2,189Zm0-12.32a4.25,4.25,0,1,0,4.3,4.27A4.28,4.28,0,0,0,178.17,176.67Z"/><path class="cls-1" d="M199.31,189a6,6,0,0,1-5-2.49v2H190.1V162.28h4.23v13a6.45,6.45,0,0,1,5.08-2.42c4.45,0,7.39,3.78,7.39,8S203.86,189,199.31,189Zm-1.16-12.32a4.25,4.25,0,1,0,4.24,4.23A4.23,4.23,0,0,0,198.15,176.67Z"/><path class="cls-1" d="M213.55,181.6c.07,2.35,1.19,4.06,3.71,4.06a4,4,0,0,0,3.61-2l3.92.63c-1.33,3.26-4,4.73-7.46,4.73-4.9,0-8.12-3.15-8.12-8.09s3.08-8.05,7.94-8.05,7.74,3.36,7.74,8.19v.56Zm3.68-5.74a3.44,3.44,0,0,0-3.54,3h7.18A3.52,3.52,0,0,0,217.23,175.86Z"/><path class="cls-1" d="M238.05,177.19a3.8,3.8,0,0,0-2-.52c-2.87,0-3.64,2-3.64,4.55v7.28h-4.24V173.34h4.24v2.28a4.93,4.93,0,0,1,6.26-2.42Z"/><path class="cls-1" d="M243.09,189a2.74,2.74,0,1,1,2.73-2.74A2.74,2.74,0,0,1,243.09,189Zm-2.17-7.15V165.15h4.34v16.66Z"/></svg>