<svg id="Layer_1" data-name="Layer 1" xmlns="http://www.w3.org/2000/svg" viewBox="0 0 320 320"><defs><style>.cls-1{fill:#d80201;}</style></defs><title>text</title><path class="cls-1" d="M91,130.19a12.11,12.11,0,0,1-12.46-12.14A12.48,12.48,0,1,1,91,130.19ZM91,110a8.05,8.05,0,1,0,7.81,8A7.92,7.92,0,0,0,91,110Zm-3.92-6.2a2.56,2.56,0,0,1-2.52-2.52,2.53,2.53,0,0,1,2.52-2.48,2.5,2.5,0,1,1,0,5Zm7.84,0a2.56,2.56,0,0,1-2.52-2.52,2.53,2.53,0,0,1,2.52-2.48,2.5,2.5,0,1,1,0,5Z"/><path class="cls-1" d="M116.35,130.16a6.06,6.06,0,0,1-5.07-2.49v10.08H107V114.51h4.24v1.93a6,6,0,0,1,5-2.42c4.51,0,7.49,3.75,7.49,8.09S120.8,130.16,116.35,130.16Zm-1.26-12.32a4.25,4.25,0,1,0,4.24,4.23A4.23,4.23,0,0,0,115.09,117.84Z"/><path class="cls-1" d="M136.27,130.16a6.07,6.07,0,0,1-5.08-2.49v10.08H127V114.51h4.23v1.93a6,6,0,0,1,5-2.42c4.52,0,7.49,3.75,7.49,8.09S140.71,130.16,136.27,130.16ZM135,117.84a4.25,4.25,0,1,0,4.23,4.23A4.23,4.23,0,0,0,135,117.84Z"/><path class="cls-1" d="M150.41,122.77c.07,2.35,1.19,4.06,3.71,4.06a4,4,0,0,0,3.6-2l3.92.63c-1.33,3.26-4,4.73-7.45,4.73-4.9,0-8.12-3.15-8.12-8.09s3.08-8,7.94-8c5,0,7.74,3.36,7.74,8.19v.56Zm3.67-5.74a3.44,3.44,0,0,0-3.53,3h7.17A3.51,3.51,0,0,0,154.08,117Z"/><path class="cls-1" d="M169.27,118.15v11.52H165V118.15h-1.68v-3.64H165v-5.18h4.23v5.18h3v3.64Z"/><path class="cls-1" d="M193.6,129.67l-5.71-6.51-.45.45v6.06H183.2V103.45h4.24V120l5.67-5.53h5.74l-7.11,6.65,7.67,8.51Z"/><path class="cls-1" d="M209.17,130.16c-4.83,0-8.68-3-8.68-8s3.85-8.09,8.72-8.09,8.61,3,8.61,8S214,130.16,209.17,130.16Zm-3.67-18.49a2.52,2.52,0,1,1,0-5,2.52,2.52,0,1,1,0,5Zm3.64,6.17a4.25,4.25,0,1,0,4.3,4.27A4.28,4.28,0,0,0,209.14,117.84Zm3.64-6.17a2.55,2.55,0,0,1-2.52-2.52,2.52,2.52,0,1,1,2.52,2.52Z"/><path class="cls-1" d="M230.38,130.16a6.08,6.08,0,0,1-5.08-2.49v10.08h-4.23V114.51h4.23v1.93a6.07,6.07,0,0,1,5-2.42c4.51,0,7.49,3.75,7.49,8.09S234.83,130.16,230.38,130.16Zm-1.26-12.32a4.25,4.25,0,1,0,4.24,4.23A4.23,4.23,0,0,0,229.12,117.84Z"/><path class="cls-1" d="M64.94,162.76v-3.92H80.13v3.92Z"/><path class="cls-1" d="M106.17,162c-2.28,2.45-5.85,2.06-8.89,2.06v8.65H92.73V149.32h6.79c2.31,0,4.34.17,6.16,1.78a7.44,7.44,0,0,1,2.38,5.64A7.7,7.7,0,0,1,106.17,162Zm-4-8a5.46,5.46,0,0,0-3.33-.74H97.28v6.8h1.85c2.28,0,4.24-.74,4.24-3.36A3.47,3.47,0,0,0,102.18,154Z"/><path class="cls-1" d="M120.69,161.36a3.78,3.78,0,0,0-2-.52c-2.87,0-3.64,2-3.64,4.55v7.28h-4.23V157.51H115v2.28a4.86,4.86,0,0,1,4.41-2.77,5,5,0,0,1,1.86.35Z"/><path class="cls-1" d="M125.45,153.66a2.56,2.56,0,0,1,0-5.11,2.56,2.56,0,0,1,0,5.11Zm-2.13,19V157.51h4.23v15.16Z"/><path class="cls-1" d="M136.37,173.16a8.06,8.06,0,0,1-5.77-2.52l2.24-2.59a4.92,4.92,0,0,0,3.57,1.78,1.78,1.78,0,0,0,1.92-1.68c0-2.59-6.75-1.29-6.75-6.4,0-3.08,2.55-4.8,5.42-4.8a7.83,7.83,0,0,1,4.94,1.61l-2.1,2.49a4.26,4.26,0,0,0-2.52-1c-.74,0-1.61.46-1.61,1.3,0,2.2,7,1.22,7,6.4C142.71,171.27,139.63,173.16,136.37,173.16Z"/><path class="cls-1" d="M159.79,178.16a8.27,8.27,0,0,1-6.44,2.66c-3.89,0-7.63-2.24-8-6.37h4.58a3.38,3.38,0,0,0,3.61,2.77c2.66,0,3.74-1.86,3.74-4.31v-2.27a6.3,6.3,0,0,1-5.11,2.52c-4.48,0-7.21-3.61-7.21-7.88s2.8-8.26,7.42-8.26a5.68,5.68,0,0,1,4.9,2.45v-2h4.27v14.6C161.5,174.49,161.4,176.27,159.79,178.16Zm-6.27-17.32a4.25,4.25,0,1,0,4.24,4.23A4.23,4.23,0,0,0,153.52,160.84Z"/><path class="cls-1" d="M177.15,172.67v-2a5.86,5.86,0,0,1-4.94,2.49c-4.55,0-7.45-3.78-7.45-8.12s2.9-8,7.35-8a6.31,6.31,0,0,1,5,2.42v-1.93h4.27v15.16Zm-3.78-11.83a4.25,4.25,0,1,0,4.23,4.23A4.23,4.23,0,0,0,173.37,160.84Z"/><path class="cls-1" d="M195.38,161.36a3.78,3.78,0,0,0-2-.52c-2.87,0-3.64,2-3.64,4.55v7.28h-4.23V157.51h4.23v2.28a4.86,4.86,0,0,1,4.41-2.77,5,5,0,0,1,1.86.35Z"/><path class="cls-1" d="M209.66,172.67v-2a5.84,5.84,0,0,1-4.93,2.49c-4.56,0-7.46-3.78-7.46-8.12s2.9-8,7.35-8a6.3,6.3,0,0,1,5,2.42v-1.93h4.27v15.16Zm-3.78-11.83a4.25,4.25,0,1,0,4.24,4.23A4.23,4.23,0,0,0,205.88,160.84Z"/><path class="cls-1" d="M228.35,172.67v-8.4c0-2.07-.46-3.64-2.87-3.64-2.63,0-3.26,1.92-3.26,4.2v7.84H218V157.51h4.23v1.86A5.59,5.59,0,0,1,227,157a5.23,5.23,0,0,1,5.6,6v9.63Z"/><path class="cls-1" d="M240.91,161.15v11.52h-4.23V161.15H235v-3.64h1.68v-5.18h4.23v5.18h3v3.64Z"/><path class="cls-1" d="M248.16,153.66a2.56,2.56,0,1,1,0-5.11,2.56,2.56,0,0,1,0,5.11Zm-2.14,19V157.51h4.24v15.16Z"/><path class="cls-1" d="M68.35,199.76v-3.92H83.54v3.92Z"/><path class="cls-1" d="M104,209.67H96.14V186.32h5.78c1.89,0,4.2.17,5.7,1.4a6.24,6.24,0,0,1,2.1,4.79,4.91,4.91,0,0,1-2.55,4.7,5.29,5.29,0,0,1,3,1.47,6.28,6.28,0,0,1,1.68,4.37C111.89,207.71,108.18,209.67,104,209.67ZM102,190h-1.33v6H102c2,0,3.53-.8,3.53-3S104.05,190,102,190Zm.77,9.49h-2.1V206h2c2.24,0,4.55-.52,4.55-3.25S105,199.52,102.79,199.52Z"/><path class="cls-1" d="M119,202.77c.07,2.35,1.19,4.06,3.71,4.06a4,4,0,0,0,3.61-2l3.92.63c-1.33,3.26-4,4.73-7.46,4.73-4.9,0-8.12-3.15-8.12-8.09s3.08-8,7.94-8,7.74,3.36,7.74,8.19v.56Zm3.67-5.74a3.44,3.44,0,0,0-3.53,3.05h7.18A3.52,3.52,0,0,0,122.63,197Z"/><path class="cls-1" d="M137.82,198.15v11.52h-4.23V198.15h-1.68v-3.64h1.68v-5.18h4.23v5.18h3v3.64Z"/><path class="cls-1" d="M154.59,209.67v-2a5.86,5.86,0,0,1-4.94,2.49c-4.55,0-7.45-3.78-7.45-8.12s2.9-8,7.35-8a6.31,6.31,0,0,1,5,2.42v-1.93h4.27v15.16Zm-3.78-11.83a4.25,4.25,0,1,0,4.23,4.23A4.23,4.23,0,0,0,150.81,197.84Z"/><path class="cls-1" d="M162.92,209.67V183.45h4.23v26.22Z"/><path class="cls-1" d="M182.8,209.67v-2a5.86,5.86,0,0,1-4.94,2.49c-4.55,0-7.45-3.78-7.45-8.12s2.9-8,7.35-8a6.31,6.31,0,0,1,5,2.42v-1.93h4.27v15.16ZM179,197.84a4.25,4.25,0,1,0,4.23,4.23A4.23,4.23,0,0,0,179,197.84Z"/><path class="cls-1" d="M204.71,210.16a8.1,8.1,0,0,1-5.78-2.52l2.24-2.59a5,5,0,0,0,3.57,1.78,1.79,1.79,0,0,0,1.93-1.68c0-2.59-6.76-1.29-6.76-6.4,0-3.08,2.56-4.8,5.43-4.8a7.78,7.78,0,0,1,4.93,1.61l-2.1,2.49a4.21,4.21,0,0,0-2.52-1c-.73,0-1.61.46-1.61,1.3,0,2.2,7,1.22,7,6.4C211,208.27,208,210.16,204.71,210.16Z"/><path class="cls-1" d="M217.59,202.77c.07,2.35,1.19,4.06,3.71,4.06a4,4,0,0,0,3.6-2l3.92.63c-1.33,3.26-4,4.73-7.45,4.73-4.9,0-8.12-3.15-8.12-8.09s3.08-8,7.94-8c5,0,7.74,3.36,7.74,8.19v.56Zm3.67-5.74a3.44,3.44,0,0,0-3.53,3.05h7.17A3.51,3.51,0,0,0,221.26,197Z"/><path class="cls-1" d="M242.54,209.67v-8.4c0-2.07-.45-3.64-2.87-3.64-2.62,0-3.25,1.92-3.25,4.2v7.84h-4.24V194.51h4.24v1.86a5.57,5.57,0,0,1,4.76-2.35,5.23,5.23,0,0,1,5.6,6v9.63Z"/></svg>