<svg id="Layer_1" data-name="Layer 1" xmlns="http://www.w3.org/2000/svg" viewBox="0 0 250 240"><defs><style>.cls-1{fill:#d80201;}.cls-2{fill:#fff;}</style></defs><title>text</title><rect class="cls-1" x="59.3" y="191.89" width="129.39" height="20.89" rx="10.44" ry="10.44"/><path class="cls-2" d="M84.06,206.39l-2.9-3.65-.18.18v3.46H79.39v-8.13H81v3.44l3-3.44h2L82.52,202l3.62,4.38Z"/><path class="cls-2" d="M90.6,206.58a4.22,4.22,0,0,1-4.34-4.23,4.35,4.35,0,1,1,4.34,4.23Zm0-7a2.81,2.81,0,1,0,2.72,2.79A2.76,2.76,0,0,0,90.6,199.53Z"/><path class="cls-2" d="M103.95,206.39l-.72-5L101,206.5h-.44l-2.16-5.12-.82,5H96l1.51-8.28h1.08l2.22,5.32,2.32-5.32h1.08l1.35,8.28Z"/><path class="cls-2" d="M110,206.39v-8.13h1.58v8.13Z"/><path class="cls-2" d="M121.19,203.58a3.76,3.76,0,0,1-3.85,3,4.1,4.1,0,0,1-4.27-4.23,4.17,4.17,0,0,1,4.32-4.27,3.88,3.88,0,0,1,3.49,1.91l-1.38.74a2.39,2.39,0,0,0-2.12-1.21,2.69,2.69,0,0,0-2.67,2.82,2.66,2.66,0,0,0,2.67,2.79,2,2,0,0,0,2.12-1.73h-1.91V202h3.73v.2A7,7,0,0,1,121.19,203.58Z"/><path class="cls-2" d="M128,206.39l-.69-1.72H124l-.74,1.72h-1.68l3.52-8.3h1.2l3.43,8.3Zm-2.33-5.92-1.18,2.93h2.33Zm0-3a1.13,1.13,0,1,1,1.13-1.13A1.14,1.14,0,0,1,125.61,197.47Zm0-1.6a.46.46,0,1,0,.46.46A.46.46,0,0,0,125.61,195.87Z"/><path class="cls-2" d="M137.16,206.55l-5-5.66v5.5h-1.58v-8.31h1.1l5,5.66v-5.47h1.58v8.29Z"/><path class="cls-2" d="M147.82,203.58a3.76,3.76,0,0,1-3.85,3,4.1,4.1,0,0,1-4.27-4.23,4.17,4.17,0,0,1,4.32-4.27,3.88,3.88,0,0,1,3.49,1.91l-1.38.74a2.39,2.39,0,0,0-2.12-1.21,2.69,2.69,0,0,0-2.67,2.82,2.66,2.66,0,0,0,2.67,2.79,2,2,0,0,0,2.12-1.73h-1.91V202h3.73v.2A7,7,0,0,1,147.82,203.58Z"/><polygon class="cls-2" points="164.62 203.35 156.06 203.35 156.06 201.17 164.62 201.17 164.62 197.87 170.71 202.26 164.62 206.47 164.62 203.35"/></svg>