<svg id="Layer_1" data-name="Layer 1" xmlns="http://www.w3.org/2000/svg" viewBox="0 0 300 250"><defs><style>.cls-1{fill:#d4ac76;}</style></defs><title>text</title><path class="cls-1" d="M37.33,44.18V17.12h3.55l13.32,17v-17h5.07V44.18H55.88L42.4,27V44.18Z"/><path class="cls-1" d="M66.83,44.18,77.26,17.12h4.59L92.24,44.18H87l-1.44-3.75H73.49L72,44.18ZM77.22,14.34a2.2,2.2,0,0,1-1.66.72,2.23,2.23,0,0,1-1.67-.72,2.4,2.4,0,0,1-.69-1.73,2.35,2.35,0,0,1,.68-1.72,2.4,2.4,0,0,1,1.68-.7,2.26,2.26,0,0,1,1.64.7,2.36,2.36,0,0,1,.69,1.72A2.42,2.42,0,0,1,77.22,14.34ZM79.56,24.7,75.23,35.92h8.63Zm5.71-10.36a2.51,2.51,0,0,1-1.8.72,2.47,2.47,0,0,1-1.79-.72,2.29,2.29,0,0,1-.74-1.73,2.26,2.26,0,0,1,.74-1.72,2.53,2.53,0,0,1,1.79-.7,2.57,2.57,0,0,1,1.8.7A2.29,2.29,0,0,1,86,12.61,2.33,2.33,0,0,1,85.27,14.34Z"/><path class="cls-1" d="M99.45,44.18V17.12H110a9.09,9.09,0,0,1,6.51,2.46A8.42,8.42,0,0,1,119.16,26a8.13,8.13,0,0,1-1.94,5.48,8.67,8.67,0,0,1-5,2.88l7.27,9.82h-5.71l-7-9.66h-2.18v9.66Zm9.8-22.54h-4.72v8.82h4.72a5,5,0,0,0,3.52-1.2,4,4,0,0,0,1.31-3.12,4.24,4.24,0,0,0-1.35-3.21A4.83,4.83,0,0,0,109.25,21.64Z"/><path class="cls-1" d="M127.94,44.18V17.12h4.9l8.37,13.34,8.46-13.34H155V44.18h-5.08V25.66l-.41-.05-8.39,13-8.18-12.78H133v18.4Z"/><path class="cls-1" d="M161.86,44.18l10.43-27.06h4.58l10.4,27.06h-5.22l-1.43-3.75H168.51l-1.44,3.75ZM174.58,24.7l-4.33,11.22h8.63Z"/><path class="cls-1" d="M202.12,44.53a13,13,0,0,1-5.1-1.07,13.34,13.34,0,0,1-4.39-3l3.22-3.85a9.86,9.86,0,0,0,3,2.42,7.62,7.62,0,0,0,3.56.94,4.34,4.34,0,0,0,2.89-.93,2.89,2.89,0,0,0,1.12-2.33q0-2.52-3-3.75l-3-1.21a11.57,11.57,0,0,1-4.5-3,6.87,6.87,0,0,1-1.45-4.6,7,7,0,0,1,2.29-5.13,7.83,7.83,0,0,1,5.74-2.26,11.66,11.66,0,0,1,8.33,3.09l-3,3.77a7,7,0,0,0-5.34-2.35,3.62,3.62,0,0,0-2.43.78,2.42,2.42,0,0,0-.91,1.91,2.5,2.5,0,0,0,.71,1.85,7.15,7.15,0,0,0,2.32,1.4l3.16,1.26q6,2.41,6.13,7.81a7.57,7.57,0,0,1-2.55,5.92A9.85,9.85,0,0,1,202.12,44.53Z"/><path class="cls-1" d="M217.4,22V17.12h22.3V22h-8.62V44.18H226V22Z"/><path class="cls-1" d="M262.13,32.73h-10v6.93h11v4.52H247.05V17.12H262.8v4.52H252.12v6.58h10Z"/><path class="cls-1" d="M87.53,86.18,77.19,59.12h5.29l7.43,19.46,7.34-19.46h5.13L92.14,86.18Z"/><path class="cls-1" d="M104.56,86.18,115,59.12h4.59L130,86.18h-5.21l-1.44-3.75h-12.1l-1.45,3.75ZM115,56.34a2.2,2.2,0,0,1-1.66.72,2.23,2.23,0,0,1-1.67-.72,2.53,2.53,0,0,1,0-3.45,2.44,2.44,0,0,1,1.69-.7,2.26,2.26,0,0,1,1.64.7,2.36,2.36,0,0,1,.69,1.72A2.42,2.42,0,0,1,115,56.34Zm2.34,10.36L113,77.92h8.63ZM123,56.34a2.51,2.51,0,0,1-1.8.72,2.47,2.47,0,0,1-1.79-.72,2.29,2.29,0,0,1-.74-1.73,2.26,2.26,0,0,1,.74-1.72,2.53,2.53,0,0,1,1.79-.7,2.57,2.57,0,0,1,1.8.7,2.29,2.29,0,0,1,.74,1.72A2.33,2.33,0,0,1,123,56.34Z"/><path class="cls-1" d="M153.32,74.87V70.36H163l0,2.31a13.94,13.94,0,0,1-2,7.17,13.71,13.71,0,0,1-5.13,5A13.94,13.94,0,0,1,149,86.6a14,14,0,0,1-10-23.95,13.61,13.61,0,0,1,10.05-4.12,13.37,13.37,0,0,1,10.08,4.37l-3.47,3.42A8.76,8.76,0,0,0,149,63.39,8.62,8.62,0,0,0,142.54,66a9.57,9.57,0,0,0,0,13,8.28,8.28,0,0,0,6.15,2.65,9.62,9.62,0,0,0,6-1.87,8.62,8.62,0,0,0,3.18-5Z"/><path class="cls-1" d="M186.92,74.73h-10v6.93h11v4.52H171.83V59.12h15.75v4.52H176.91v6.58h10Z"/><path class="cls-1" d="M197,86.18V59.12h3.55l13.32,17v-17h5.07V86.18h-3.4L202.07,69V86.18Z"/></svg>