<svg id="Layer_1" data-name="Layer 1" xmlns="http://www.w3.org/2000/svg" viewBox="0 0 300 250"><defs><style>.cls-1{fill:#d4ac76;}</style></defs><title>text</title><path class="cls-1" d="M19.25,36H12.1v5H20v3.23H8.48V24.85H19.73v3.23H12.1v4.7h7.15Z"/><path class="cls-1" d="M26.45,44.18V24.85H29L38.5,37V24.85h3.63V44.18H39.7l-9.62-12.3v12.3Z"/><path class="cls-1" d="M49.65,44.18V24.85H53v8.52l7.4-8.52h4.48l-6.82,7.71,7,11.62H60.85l-5.26-8.82L53,38.28v5.9Z"/><path class="cls-1" d="M70.78,44.18V24.85H74.4V40.7h7.1v3.48Z"/><path class="cls-1" d="M85.48,44.18l7.45-19.33H96.2l7.43,19.33H99.9l-1-2.68H90.23l-1,2.68Zm9.09-13.92-3.1,8h6.17Z"/><path class="cls-1" d="M108.78,44.18V24.85h7.56A6.52,6.52,0,0,1,121,26.61a6,6,0,0,1,1.86,4.58,5.77,5.77,0,0,1-1.39,3.92,6.23,6.23,0,0,1-3.6,2.06l5.19,7H119l-5-6.9H112.4v6.9Zm7-16.1H112.4v6.3h3.38a3.59,3.59,0,0,0,2.51-.86,2.89,2.89,0,0,0,.94-2.23,3.05,3.05,0,0,0-1-2.29A3.46,3.46,0,0,0,115.78,28.08Z"/><path class="cls-1" d="M139.9,36h-7.15v5h7.85v3.23H129.13V24.85h11.25v3.23h-7.63v4.7h7.15Z"/><path class="cls-1" d="M169.58,44.18V36.1H161.3v8.08h-3.63V24.85h3.63v7.78h8.28V24.85h3.62V44.18Z"/><path class="cls-1" d="M193,42.44a7.88,7.88,0,0,1-10.58,0,6.85,6.85,0,0,1-2.09-5.11V24.85H184v12a4.42,4.42,0,0,0,1,3,3.85,3.85,0,0,0,5.5,0,4.31,4.31,0,0,0,1-2.94V24.85h3.62V37.33A6.84,6.84,0,0,1,193,42.44Z"/><path class="cls-1" d="M207.38,44.43a9.25,9.25,0,0,1-3.64-.76,9.58,9.58,0,0,1-3.13-2.12l2.3-2.75A7.08,7.08,0,0,0,205,40.53a5.46,5.46,0,0,0,2.55.67,3.16,3.16,0,0,0,2.06-.66,2.09,2.09,0,0,0,.8-1.67,2.88,2.88,0,0,0-2.12-2.68l-2.16-.86A8.23,8.23,0,0,1,203,33.2a5,5,0,0,1-1-3.29,5,5,0,0,1,1.64-3.67,5.64,5.64,0,0,1,4.1-1.61,8.33,8.33,0,0,1,6,2.21l-2.13,2.69a5,5,0,0,0-3.82-1.68,2.57,2.57,0,0,0-1.73.56,1.71,1.71,0,0,0-.66,1.36,1.79,1.79,0,0,0,.52,1.33,5.24,5.24,0,0,0,1.65,1l2.26.91q4.29,1.71,4.38,5.57a5.41,5.41,0,0,1-1.82,4.23A7,7,0,0,1,207.38,44.43Z"/><path class="cls-1" d="M220.22,44.18V24.85h7.57a6.52,6.52,0,0,1,4.65,1.76,6,6,0,0,1,1.86,4.58,5.77,5.77,0,0,1-1.39,3.92,6.23,6.23,0,0,1-3.6,2.06l5.19,7h-4.08l-5-6.9h-1.56v6.9Zm7-16.1h-3.37v6.3h3.37a3.62,3.62,0,0,0,2.52-.86,2.88,2.88,0,0,0,.93-2.23,3,3,0,0,0-1-2.29A3.46,3.46,0,0,0,227.22,28.08Z"/><path class="cls-1" d="M251.35,36H244.2v5h7.85v3.23H240.57V24.85h11.25v3.23H244.2v4.7h7.15Z"/><path class="cls-1" d="M263.68,44.43a9.25,9.25,0,0,1-3.64-.76,9.58,9.58,0,0,1-3.13-2.12l2.3-2.75a7.08,7.08,0,0,0,2.13,1.73,5.46,5.46,0,0,0,2.55.67,3.16,3.16,0,0,0,2.06-.66,2.09,2.09,0,0,0,.8-1.67,2.88,2.88,0,0,0-2.12-2.68l-2.16-.86a8.23,8.23,0,0,1-3.21-2.13,5,5,0,0,1-1-3.29,5,5,0,0,1,1.64-3.67,5.64,5.64,0,0,1,4.1-1.61,8.33,8.33,0,0,1,6,2.21l-2.13,2.69A5,5,0,0,0,264,27.85a2.57,2.57,0,0,0-1.73.56,1.71,1.71,0,0,0-.66,1.36,1.83,1.83,0,0,0,.51,1.33,5.31,5.31,0,0,0,1.66,1L266,33q4.29,1.71,4.38,5.57a5.41,5.41,0,0,1-1.82,4.23A7,7,0,0,1,263.68,44.43Z"/><path class="cls-1" d="M274.4,44.18l7.45-19.33h3.27l7.43,19.33h-3.73l-1-2.68h-8.64l-1,2.68Zm9.09-13.92-3.09,8h6.16Z"/></svg>