<svg id="Layer_1" data-name="Layer 1" xmlns="http://www.w3.org/2000/svg" viewBox="0 0 320 160"><defs><style>.cls-1{fill:#d80201;}</style></defs><title>text</title><path class="cls-1" d="M133.22,109.79v2.38h2.66V113h-2.66v4h-.89v-8H136v.84Z"/><path class="cls-1" d="M140.95,117v-.7a2.13,2.13,0,0,1-1.73.84,2.47,2.47,0,0,1-2.4-2.65,2.42,2.42,0,0,1,2.39-2.59,2.1,2.1,0,0,1,1.74.83V112h.85v5Zm-1.61-4.33a1.7,1.7,0,0,0-1.64,1.82,1.72,1.72,0,0,0,1.64,1.87,1.7,1.7,0,0,0,1.65-1.87A1.68,1.68,0,0,0,139.34,112.62Z"/><path class="cls-1" d="M146,117.1a2.13,2.13,0,0,1-1.73-.84v.7h-.85v-8.74h.85v4.47a2.14,2.14,0,0,1,1.74-.83,2.44,2.44,0,0,1,2.39,2.6A2.46,2.46,0,0,1,146,117.1Zm-.12-4.46a1.68,1.68,0,0,0-1.66,1.84,1.66,1.66,0,1,0,1.66-1.84Z"/><path class="cls-1" d="M149.72,117v-8.74h.85V117Z"/><path class="cls-1" d="M152.78,114.64a1.61,1.61,0,0,0,1.58,1.68,1.72,1.72,0,0,0,1.54-1l.72.4a2.48,2.48,0,0,1-2.28,1.42,2.63,2.63,0,0,1,0-5.24,2.38,2.38,0,0,1,2.38,2.62v.17Zm1.54-2a1.53,1.53,0,0,0-1.47,1.28h2.93A1.49,1.49,0,0,0,154.32,112.63Z"/><path class="cls-1" d="M160.32,112.84a.75.75,0,0,0-.5-.17.92.92,0,0,0-.43.11c-.55.3-.55,1-.55,1.55V117H158v-5h.85v.54a1.33,1.33,0,0,1,1.13-.66,1.42,1.42,0,0,1,.77.2Z"/><path class="cls-1" d="M164.65,117V114c0-.78-.11-1.39-1-1.39-1.1,0-1.24,1-1.24,1.83V117h-.85v-5h.85v.6a1.8,1.8,0,0,1,2.86,0,2.28,2.28,0,0,1,.29,1.32V117Z"/><path class="cls-1" d="M170.95,117v-.7a2.13,2.13,0,0,1-1.73.84,2.47,2.47,0,0,1-2.4-2.65,2.42,2.42,0,0,1,2.39-2.59,2.1,2.1,0,0,1,1.74.83V112h.85v5Zm-1.61-4.33a1.7,1.7,0,0,0-1.64,1.82,1.72,1.72,0,0,0,1.64,1.87,1.7,1.7,0,0,0,1.66-1.87A1.68,1.68,0,0,0,169.34,112.62Z"/><path class="cls-1" d="M174.78,117.1a1.77,1.77,0,0,1-1.74-1.27l.74-.31c.2.44.48.8,1,.8a.77.77,0,0,0,.82-.78c0-1.08-2.24-.74-2.24-2.29a1.4,1.4,0,0,1,1.45-1.39,1.49,1.49,0,0,1,1.37.9l-.71.37a.8.8,0,0,0-.7-.49.59.59,0,0,0-.6.55c0,.88,2.3.65,2.3,2.28A1.63,1.63,0,0,1,174.78,117.1Z"/><path class="cls-1" d="M182.36,117.28l-2.45-5.3h1l1.49,3.35,1.47-3.35h1Z"/><path class="cls-1" d="M189.51,117v-.7a2.13,2.13,0,0,1-1.73.84,2.47,2.47,0,0,1-2.4-2.65,2.42,2.42,0,0,1,2.39-2.59,2.1,2.1,0,0,1,1.74.83V112h.85v5Zm-1.61-4.33a1.7,1.7,0,0,0-1.64,1.82,1.72,1.72,0,0,0,1.64,1.87,1.7,1.7,0,0,0,1.66-1.87A1.68,1.68,0,0,0,187.9,112.62Zm-1-1.67a.61.61,0,0,1-.6-.6.6.6,0,1,1,.6.6Zm2.09,0a.61.61,0,0,1-.6-.6.6.6,0,1,1,.6.6Z"/><path class="cls-1" d="M196.18,118.8a2.42,2.42,0,0,1-2,.92,2.24,2.24,0,0,1-2.42-2.28h.85A1.49,1.49,0,0,0,194.2,119c1.2,0,1.59-.9,1.59-2v-.73a2.24,2.24,0,0,1-1.75.83,2.63,2.63,0,0,1,0-5.23,2.13,2.13,0,0,1,1.71.82V112h.86v4.87A3,3,0,0,1,196.18,118.8Zm-2-6.18a1.71,1.71,0,0,0-1.63,1.88,1.68,1.68,0,0,0,1.63,1.81,1.86,1.86,0,0,0,0-3.69Z"/><path class="cls-1" d="M204.54,114.25l-1.64,1.87h3.36V117h-5.17l2.91-3.37c.54-.62,1.38-1.52,1.38-2.39a1.6,1.6,0,1,0-3.19.1h-.9a3.35,3.35,0,0,1,.17-.9,2.5,2.5,0,0,1,4.81.82C206.26,112.41,205.28,113.42,204.54,114.25Z"/><path class="cls-1" d="M211.34,114.25l-1.64,1.87h3.36V117h-5.17l2.92-3.37c.54-.62,1.38-1.52,1.38-2.39a1.6,1.6,0,0,0-3.19.1h-.9a3.27,3.27,0,0,1,.17-.9,2.5,2.5,0,0,1,4.81.82C213.07,112.41,212.08,113.42,211.34,114.25Z"/><path class="cls-1" d="M214.94,118.78l-.56-.23,1-2.77.79.29Z"/><path class="cls-1" d="M226.18,117l-.94-2.27h-3.42l-1,2.27h-1l3.68-8.38,3.59,8.38Zm-3.71-8.79a.61.61,0,1,1,.61-.62A.62.62,0,0,1,222.48,108.16Zm1.08,2.49-1.37,3.2h2.71Zm1.2-2.49a.61.61,0,1,1,.61-.62A.62.62,0,0,1,224.75,108.16Z"/><path class="cls-1" d="M228.07,117v-8.74h.85V117Z"/><path class="cls-1" d="M232.28,117.28l-2.45-5.3h1l1.49,3.35,1.48-3.35h1Z"/><path class="cls-1" d="M239.43,117v-.7a2.13,2.13,0,0,1-1.73.84,2.47,2.47,0,0,1-2.4-2.65,2.42,2.42,0,0,1,2.39-2.59,2.1,2.1,0,0,1,1.74.83V112h.85v5Zm-1.61-4.33a1.7,1.7,0,0,0-1.64,1.82,1.72,1.72,0,0,0,1.64,1.87,1.7,1.7,0,0,0,1.66-1.87A1.68,1.68,0,0,0,237.82,112.62Zm-1-1.67a.61.61,0,0,1-.6-.6.6.6,0,1,1,.6.6Zm2.09,0a.61.61,0,0,1-.6-.6.6.6,0,1,1,.6.6Z"/><path class="cls-1" d="M245,117V114c0-.78-.11-1.39-1-1.39-1.1,0-1.24,1-1.24,1.83V117h-.85v-5h.85v.6a1.8,1.8,0,0,1,2.85,0,2.28,2.28,0,0,1,.29,1.32V117Z"/><path class="cls-1" d="M251.73,118.8a2.42,2.42,0,0,1-2,.92,2.24,2.24,0,0,1-2.42-2.28h.85a1.49,1.49,0,0,0,1.58,1.51c1.2,0,1.59-.9,1.59-2v-.73a2.24,2.24,0,0,1-1.75.83,2.63,2.63,0,0,1,0-5.23,2.13,2.13,0,0,1,1.71.82V112h.86v4.87A3,3,0,0,1,251.73,118.8Zm-2-6.18a1.71,1.71,0,0,0-1.63,1.88,1.68,1.68,0,0,0,1.63,1.81,1.86,1.86,0,0,0,0-3.69Z"/><path class="cls-1" d="M254.42,114.64a1.61,1.61,0,0,0,1.58,1.68,1.72,1.72,0,0,0,1.54-1l.72.4A2.48,2.48,0,0,1,256,117.1a2.63,2.63,0,0,1,0-5.24,2.38,2.38,0,0,1,2.37,2.62v.17Zm1.54-2a1.53,1.53,0,0,0-1.47,1.28h2.93A1.49,1.49,0,0,0,256,112.63Z"/><path class="cls-1" d="M262.75,117V114c0-.78-.11-1.39-1-1.39-1.1,0-1.24,1-1.24,1.83V117h-.85v-5h.85v.6a1.8,1.8,0,0,1,2.85,0,2.28,2.28,0,0,1,.29,1.32V117Z"/><path class="cls-1" d="M132.15,132.1a2.45,2.45,0,0,1-2.47-2.06l.86-.24a1.63,1.63,0,0,0,1.63,1.46,1.58,1.58,0,0,0,1.61-1.58c0-1.88-3.69-1.44-3.69-3.79a2.11,2.11,0,0,1,2.24-2.06,2.28,2.28,0,0,1,2.06,1.25l-.71.47a1.48,1.48,0,0,0-1.37-.87,1.27,1.27,0,0,0-1.33,1.22c0,1.66,3.69,1.18,3.69,3.75A2.46,2.46,0,0,1,132.15,132.1Z"/><path class="cls-1" d="M138.41,132.1a2.62,2.62,0,1,1,2.63-2.61A2.6,2.6,0,0,1,138.41,132.1Zm0-4.46a1.84,1.84,0,1,0,1.76,1.85A1.75,1.75,0,0,0,138.4,127.63Zm-1-1.68a.61.61,0,0,1-.6-.6.6.6,0,1,1,.6.6Zm2.09,0a.61.61,0,0,1-.6-.6.6.6,0,1,1,.6.6Z"/><path class="cls-1" d="M145.48,132V129c0-.78-.11-1.39-1-1.39-1.1,0-1.24,1-1.24,1.83V132h-.85v-5h.85v.6a1.8,1.8,0,0,1,2.85,0,2.28,2.28,0,0,1,.29,1.32V132Z"/><path class="cls-1" d="M151.78,132v-.7a2.13,2.13,0,0,1-1.73.84,2.46,2.46,0,0,1-2.4-2.64,2.44,2.44,0,0,1,2.39-2.6,2.14,2.14,0,0,1,1.74.83v-4.47h.85V132Zm-1.61-4.32a1.85,1.85,0,1,0,1.65,1.81A1.67,1.67,0,0,0,150.17,127.63Z"/><path class="cls-1" d="M158.07,132v-.7a2.13,2.13,0,0,1-1.73.84,2.47,2.47,0,0,1-2.4-2.65,2.42,2.42,0,0,1,2.39-2.59,2.1,2.1,0,0,1,1.74.83V127h.85v5Zm-1.61-4.33a1.7,1.7,0,0,0-1.64,1.82,1.72,1.72,0,0,0,1.64,1.87,1.7,1.7,0,0,0,1.66-1.87A1.68,1.68,0,0,0,156.46,127.62Z"/><path class="cls-1" d="M164.74,133.8a2.42,2.42,0,0,1-2,.92,2.24,2.24,0,0,1-2.42-2.28h.85a1.49,1.49,0,0,0,1.58,1.51c1.2,0,1.59-.9,1.59-2v-.73a2.25,2.25,0,0,1-1.75.83,2.63,2.63,0,0,1,0-5.23,2.13,2.13,0,0,1,1.72.82V127h.86v4.87A3,3,0,0,1,164.74,133.8Zm-2-6.18a1.71,1.71,0,0,0-1.63,1.88,1.68,1.68,0,0,0,1.63,1.81,1.86,1.86,0,0,0,0-3.69Z"/><path class="cls-1" d="M173.09,129.25l-1.64,1.87h3.36V132h-5.17l2.91-3.37c.54-.62,1.38-1.52,1.38-2.39a1.6,1.6,0,1,0-3.19.1h-.9a3.35,3.35,0,0,1,.17-.9,2.5,2.5,0,0,1,4.81.82C174.82,127.41,173.83,128.42,173.09,129.25Z"/><path class="cls-1" d="M179.89,129.25l-1.64,1.87h3.36V132h-5.17l2.92-3.37c.54-.62,1.38-1.52,1.38-2.39a1.6,1.6,0,0,0-3.19.1h-.9a3.27,3.27,0,0,1,.17-.9,2.5,2.5,0,0,1,4.81.82C181.62,127.41,180.64,128.42,179.89,129.25Z"/><path class="cls-1" d="M188.78,132.1a2.62,2.62,0,1,1,2.63-2.61A2.6,2.6,0,0,1,188.78,132.1Zm0-4.46a1.84,1.84,0,1,0,1.76,1.85A1.75,1.75,0,0,0,188.76,127.63Z"/><path class="cls-1" d="M195.79,132l-2-2.27-.22.22V132h-.85v-8.74h.85v5.6l1.81-1.83h1.14l-2.13,2.11,2.53,2.87Z"/><path class="cls-1" d="M198.63,127.77V132h-.86v-4.19h-.52V127h.52v-1.8h.86V127h.88v.79Z"/><path class="cls-1" d="M202.65,132.1a2.62,2.62,0,1,1,2.63-2.61A2.6,2.6,0,0,1,202.65,132.1Zm0-4.46a1.84,1.84,0,1,0,1.76,1.85A1.75,1.75,0,0,0,202.63,127.63Z"/><path class="cls-1" d="M209.16,132.1a2.12,2.12,0,0,1-1.73-.84v.7h-.85v-8.74h.85v4.47a2.14,2.14,0,0,1,1.74-.83,2.44,2.44,0,0,1,2.39,2.6A2.46,2.46,0,0,1,209.16,132.1Zm-.12-4.46a1.68,1.68,0,0,0-1.66,1.84,1.66,1.66,0,1,0,1.66-1.84Z"/><path class="cls-1" d="M213.45,129.64a1.61,1.61,0,0,0,1.58,1.68,1.72,1.72,0,0,0,1.54-1l.72.4A2.48,2.48,0,0,1,215,132.1a2.63,2.63,0,0,1,0-5.24,2.38,2.38,0,0,1,2.38,2.62v.17Zm1.54-2a1.53,1.53,0,0,0-1.48,1.28h2.93A1.49,1.49,0,0,0,215,127.63Z"/><path class="cls-1" d="M221,127.84a.75.75,0,0,0-.5-.17.91.91,0,0,0-.43.11c-.55.3-.55,1-.55,1.55V132h-.85v-5h.85v.54a1.33,1.33,0,0,1,1.13-.66,1.42,1.42,0,0,1,.77.2Z"/><path class="cls-1" d="M221.85,133.78l-.56-.23,1-2.77.79.29Z"/><path class="cls-1" d="M230.62,132l-2-2.27-.22.22V132h-.85v-8.74h.85v5.6L230.2,127h1.14l-2.14,2.11,2.53,2.87Z"/><path class="cls-1" d="M232.59,132v-8.74h.85V132Z"/><path class="cls-1" d="M240.43,132v-7.16H239.1l.47-.84h1.75v8Z"/><path class="cls-1" d="M248.11,129.25l-1.64,1.87h3.36V132h-5.17l2.92-3.37c.54-.62,1.38-1.52,1.38-2.39a1.6,1.6,0,0,0-3.19.1h-.9a3.27,3.27,0,0,1,.17-.9,2.5,2.5,0,0,1,4.81.82C249.84,127.41,248.86,128.42,248.11,129.25Z"/><path class="cls-1" d="M250.86,129.78V129H253v.77Z"/><path class="cls-1" d="M256.21,132v-7.16h-1.33l.47-.84h1.75v8Z"/><path class="cls-1" d="M265.06,130.65V132h-.89v-1.31h-4.1l5-7.14v6.32h1v.82Zm-.89-4.43-2.53,3.61h2.53Z"/></svg>