<svg id="Layer_1" data-name="Layer 1" xmlns="http://www.w3.org/2000/svg" viewBox="0 0 320 160"><defs><style>.cls-1{fill:#d80201;}</style></defs><title>text</title><path class="cls-1" d="M127.05,67.5l-1.18-8.22-3.68,8.4h-.72l-3.54-8.4-1.34,8.22H114l2.48-13.58h1.78l3.64,8.72,3.8-8.72h1.78l2.22,13.58Z"/><path class="cls-1" d="M136.17,67.78c-2.76,0-5-1.72-5-4.6s2.2-4.62,5-4.62,4.92,1.74,4.92,4.6S138.91,67.78,136.17,67.78Zm-2.1-10.56a1.44,1.44,0,0,1,0-2.88,1.44,1.44,0,1,1,0,2.88Zm2.08,3.52a2.43,2.43,0,1,0,2.46,2.44A2.45,2.45,0,0,0,136.15,60.74Zm2.08-3.52a1.46,1.46,0,0,1-1.44-1.44,1.44,1.44,0,1,1,1.44,1.44Z"/><path class="cls-1" d="M148.23,67.78a3.41,3.41,0,0,1-2.84-1.42V67.5H143v-15h2.42v7.42a3.68,3.68,0,0,1,2.9-1.38,4.63,4.63,0,0,1-.06,9.22Zm-.66-7A2.43,2.43,0,1,0,150,63.16,2.42,2.42,0,0,0,147.57,60.74Z"/><path class="cls-1" d="M154.35,67.5v-15h2.42v15Z"/><path class="cls-1" d="M161.11,63.56c0,1.34.68,2.32,2.12,2.32a2.27,2.27,0,0,0,2.06-1.16l2.24.36a4.25,4.25,0,0,1-4.26,2.7,4.34,4.34,0,0,1-4.64-4.62,4.29,4.29,0,0,1,4.54-4.6c2.86,0,4.42,1.92,4.42,4.68v.32Zm2.1-3.28a2,2,0,0,0-2,1.74h4.1A2,2,0,0,0,163.21,60.28Z"/><path class="cls-1" d="M175.11,61a2.14,2.14,0,0,0-1.16-.3c-1.64,0-2.08,1.16-2.08,2.6V67.5h-2.42V58.84h2.42v1.3a2.83,2.83,0,0,1,3.58-1.38Z"/><path class="cls-1" d="M183.27,67.5V66.36a3.35,3.35,0,0,1-2.82,1.42,4.63,4.63,0,0,1-.06-9.22,3.61,3.61,0,0,1,2.88,1.38v-1.1h2.44V67.5Zm-2.16-6.76a2.43,2.43,0,1,0,2.42,2.42A2.42,2.42,0,0,0,181.11,60.74Z"/><path class="cls-1" d="M190.47,60.92V67.5h-2.42V60.92h-1V58.84h1v-3h2.42v3h1.7v2.08Z"/><path class="cls-1" d="M202.83,67.68h-1.12l-4.42-8.84H200l2.28,4.88,2.28-4.88h2.72Z"/><path class="cls-1" d="M209.65,56.64a1.46,1.46,0,0,1,0-2.92,1.46,1.46,0,0,1,0,2.92ZM208.43,67.5V58.84h2.42V67.5Z"/><path class="cls-1" d="M215.89,67.78a4.61,4.61,0,0,1-3.3-1.44l1.28-1.48a2.82,2.82,0,0,0,2,1,1,1,0,0,0,1.1-1c0-1.48-3.86-.74-3.86-3.66a2.82,2.82,0,0,1,3.1-2.74,4.46,4.46,0,0,1,2.82.92l-1.2,1.42a2.42,2.42,0,0,0-1.44-.58c-.42,0-.92.26-.92.74,0,1.26,4,.7,4,3.66C219.51,66.7,217.75,67.78,215.89,67.78Z"/><path class="cls-1" d="M227.15,67.5V62.7c0-1.18-.26-2.08-1.64-2.08s-1.86,1.1-1.86,2.4V67.5h-2.42V58.84h2.42V59.9a3.2,3.2,0,0,1,2.72-1.34,3,3,0,0,1,3.2,3.44v5.5Z"/><path class="cls-1" d="M233.07,56.64a1.46,1.46,0,0,1,0-2.92,1.46,1.46,0,0,1,0,2.92ZM231.85,67.5V58.84h2.42V67.5Z"/><path class="cls-1" d="M242.47,67.5V62.7c0-1.18-.26-2.08-1.64-2.08S239,61.72,239,63V67.5h-2.42V58.84H239V59.9a3.2,3.2,0,0,1,2.72-1.34,3,3,0,0,1,3.2,3.44v5.5Z"/><path class="cls-1" d="M255.25,70.64a4.73,4.73,0,0,1-3.68,1.52c-2.22,0-4.36-1.28-4.6-3.64h2.62a1.93,1.93,0,0,0,2.06,1.58c1.52,0,2.14-1.06,2.14-2.46v-1.3a3.6,3.6,0,0,1-2.92,1.44c-2.56,0-4.12-2.06-4.12-4.5s1.6-4.72,4.24-4.72a3.24,3.24,0,0,1,2.8,1.4V58.84h2.44v8.34A4.66,4.66,0,0,1,255.25,70.64Zm-3.58-9.9a2.43,2.43,0,1,0,2.42,2.42A2.42,2.42,0,0,0,251.67,60.74Z"/><path class="cls-1" d="M261.31,67.78a4.61,4.61,0,0,1-3.3-1.44l1.28-1.48a2.82,2.82,0,0,0,2,1,1,1,0,0,0,1.1-1c0-1.48-3.86-.74-3.86-3.66a2.82,2.82,0,0,1,3.1-2.74,4.46,4.46,0,0,1,2.82.92l-1.2,1.42a2.42,2.42,0,0,0-1.44-.58c-.42,0-.92.26-.92.74,0,1.26,4,.7,4,3.66C264.93,66.7,263.17,67.78,261.31,67.78Z"/><path class="cls-1" d="M272.57,67.5V62.76c0-1.2-.26-2.14-1.66-2.14s-1.84,1.16-1.84,2.44V67.5h-2.42v-15h2.42V60a3.15,3.15,0,0,1,2.72-1.4,3.31,3.31,0,0,1,2.52,1.06,3.44,3.44,0,0,1,.68,2.44V67.5Z"/><path class="cls-1" d="M281.49,67.78c-2.38,0-4.18-1.06-4.18-3.64v-5.3h2.42v4.9c0,1.18.5,2,1.76,2s1.76-.8,1.76-2v-4.9h2.44v5.3C285.69,66.72,283.87,67.78,281.49,67.78Z"/><path class="cls-1" d="M290.77,67.78a4.61,4.61,0,0,1-3.3-1.44l1.28-1.48a2.82,2.82,0,0,0,2,1,1,1,0,0,0,1.1-1c0-1.48-3.86-.74-3.86-3.66a2.82,2.82,0,0,1,3.1-2.74,4.46,4.46,0,0,1,2.82.92l-1.2,1.42a2.42,2.42,0,0,0-1.44-.58c-.42,0-.92.26-.92.74,0,1.26,4,.7,4,3.66C294.39,66.7,292.63,67.78,290.77,67.78Z"/><path class="cls-1" d="M132.65,92.5l-1.18-8.22-3.68,8.4h-.72l-3.54-8.4-1.34,8.22h-2.62l2.48-13.58h1.78l3.64,8.72,3.8-8.72h1.78l2.22,13.58Z"/><path class="cls-1" d="M144.09,92.8A6.92,6.92,0,0,1,137,85.86a7.13,7.13,0,1,1,7.12,6.94Zm0-11.56a4.6,4.6,0,1,0,4.46,4.58A4.53,4.53,0,0,0,144.09,81.24Z"/><path class="cls-1" d="M158.59,92.84h-1.38l-5.68-13.68h2.84l3.56,9,3.6-9h2.82Z"/><path class="cls-1" d="M165.93,92.5V79.16h7.38v2.26h-4.78v3h4.6v2.26h-4.6v3.6h4.78V92.5Z"/><path class="cls-1" d="M191,84.8h-2l-.28,1.8h2l-.34,2.18h-2l-.6,3.72h-2.5l.6-3.72H184l-.58,3.72H181l.6-3.72h-2.06l.34-2.18h2.06l.28-1.8h-2l.34-2.2h2l.54-3.44h2.48L185,82.6h1.84l.54-3.44h2.5l-.54,3.44h2Zm-6.36,0-.28,1.8h1.84l.28-1.8Z"/><path class="cls-1" d="M196.57,92.84a4.53,4.53,0,0,1-4.8-4.18h2.62a2.17,2.17,0,1,0,2.26-2.34,3.8,3.8,0,0,0-.48,0V84.48a2.12,2.12,0,0,0,.36,0,1.81,1.81,0,1,0-1.76-1.86h-2.46a4.09,4.09,0,0,1,4.46-3.82c2.22,0,4.06,1.32,4.06,3.68a3,3,0,0,1-1.54,2.84,3.28,3.28,0,0,1,2,3.28C201.33,91.34,199.11,92.84,196.57,92.84Z"/><path class="cls-1" d="M208.29,92.84c-3.68,0-5.16-3.88-5.16-7s1.46-7,5.16-7,5.16,3.86,5.16,7S212,92.84,208.29,92.84Zm0-11.72c-2,0-2.56,3.16-2.56,4.7s.52,4.74,2.56,4.74,2.56-3.2,2.56-4.74S210.33,81.12,208.29,81.12Z"/><path class="cls-1" d="M214.31,92.5,218.25,88c1.08-1.22,3.06-3.24,3.06-4.94a2,2,0,0,0-2-2c-1.32,0-1.94,1-2,2.2h-2.78a4.47,4.47,0,0,1,4.68-4.5c2.5,0,4.7,1.64,4.7,4.28,0,1.86-1.22,3.38-2.42,4.66l-2.32,2.48H224V92.5Z"/><path class="cls-1" d="M232.65,81.64a1.46,1.46,0,0,1,0-2.92,1.46,1.46,0,0,1,0,2.92ZM231.43,92.5V83.84h2.42V92.5Z"/><path class="cls-1" d="M246,92.5h-4.48V79.16h3.3a5.27,5.27,0,0,1,3.26.8,3.57,3.57,0,0,1,1.2,2.74,2.8,2.8,0,0,1-1.46,2.68,3,3,0,0,1,1.74.84,3.59,3.59,0,0,1,1,2.5C250.51,91.38,248.39,92.5,246,92.5Zm-1.12-11.22h-.76v3.44h.74c1.16,0,2-.46,2-1.72S246,81.28,244.87,81.28Zm.44,5.42h-1.2v3.7h1.12c1.28,0,2.6-.3,2.6-1.86S246.55,86.7,245.31,86.7Z"/><path class="cls-1" d="M257,92.78c-2.76,0-5-1.72-5-4.6s2.2-4.62,5-4.62S262,85.3,262,88.16,259.77,92.78,257,92.78Zm0-7a2.43,2.43,0,1,0,2.46,2.44A2.45,2.45,0,0,0,257,85.74Z"/><path class="cls-1" d="M269.49,86a2.14,2.14,0,0,0-1.16-.3c-1.64,0-2.08,1.16-2.08,2.6V92.5h-2.42V83.84h2.42v1.3a2.83,2.83,0,0,1,3.58-1.38Z"/><path class="cls-1" d="M277.65,92.5V91.36a3.35,3.35,0,0,1-2.82,1.42,4.63,4.63,0,0,1-.06-9.22,3.61,3.61,0,0,1,2.88,1.38v-1.1h2.44V92.5Zm-2.16-6.76a2.43,2.43,0,1,0,2.42,2.42A2.42,2.42,0,0,0,275.49,85.74Zm-.34-3.42a1.8,1.8,0,0,1,0-3.6,1.8,1.8,0,1,1,0,3.6Zm0-2.5a.7.7,0,1,0,.7.7A.68.68,0,0,0,275.15,79.82Z"/><path class="cls-1" d="M285.17,92.78a4.61,4.61,0,0,1-3.3-1.44l1.28-1.48a2.82,2.82,0,0,0,2,1,1,1,0,0,0,1.1-1c0-1.48-3.86-.74-3.86-3.66a2.82,2.82,0,0,1,3.1-2.74,4.46,4.46,0,0,1,2.82.92l-1.2,1.42a2.42,2.42,0,0,0-1.44-.58c-.42,0-.92.26-.92.74,0,1.26,4,.7,4,3.66C288.79,91.7,287,92.78,285.17,92.78Z"/></svg>