<svg id="Layer_1" data-name="Layer 1" xmlns="http://www.w3.org/2000/svg" viewBox="0 0 320 160"><defs><style>.cls-1{fill:#d80201;}</style></defs><title>text</title><path class="cls-1" d="M124.5,117.1A2.45,2.45,0,0,1,122,115l.86-.24a1.63,1.63,0,0,0,1.63,1.46,1.58,1.58,0,0,0,1.61-1.58c0-1.88-3.69-1.44-3.69-3.79a2.11,2.11,0,0,1,2.24-2.06,2.28,2.28,0,0,1,2.06,1.25l-.71.47a1.48,1.48,0,0,0-1.37-.87,1.27,1.27,0,0,0-1.33,1.22c0,1.66,3.69,1.18,3.69,3.75A2.46,2.46,0,0,1,124.5,117.1Z"/><path class="cls-1" d="M130.77,117.1a2.62,2.62,0,1,1,2.63-2.61A2.6,2.6,0,0,1,130.77,117.1Zm0-4.46a1.84,1.84,0,1,0,1.76,1.85A1.75,1.75,0,0,0,130.76,112.63Z"/><path class="cls-1" d="M134.71,117v-8.74h.85V117Z"/><path class="cls-1" d="M139.77,117.1a2.13,2.13,0,0,1-1.73-.84v.7h-.85v-8.74H138v4.47a2.14,2.14,0,0,1,1.74-.83,2.44,2.44,0,0,1,2.39,2.6A2.46,2.46,0,0,1,139.77,117.1Zm-.12-4.46a1.68,1.68,0,0,0-1.66,1.84,1.66,1.66,0,1,0,1.66-1.84Z"/><path class="cls-1" d="M147.28,117v-.7a2.13,2.13,0,0,1-1.73.84,2.47,2.47,0,0,1-2.4-2.65,2.42,2.42,0,0,1,2.39-2.59,2.1,2.1,0,0,1,1.74.83V112h.85v5Zm-1.61-4.33a1.7,1.7,0,0,0-1.64,1.82,1.72,1.72,0,0,0,1.64,1.87,1.7,1.7,0,0,0,1.66-1.87A1.68,1.68,0,0,0,145.67,112.62Z"/><path class="cls-1" d="M152.09,117.1a2.62,2.62,0,1,1,0-5.24,2.75,2.75,0,0,1,1.55.48v1.13a2,2,0,0,0-1.56-.83,1.78,1.78,0,0,0-1.76,1.85,1.75,1.75,0,0,0,1.74,1.83,2,2,0,0,0,1.62-.86v1.13A2.68,2.68,0,0,1,152.09,117.1Z"/><path class="cls-1" d="M158.07,117l-2-2.27-.21.22V117H155v-8.74h.85v5.6l1.81-1.83h1.14l-2.14,2.11,2.53,2.87Z"/><path class="cls-1" d="M163.57,117v-.7a2.13,2.13,0,0,1-1.73.84,2.47,2.47,0,0,1-2.4-2.65,2.42,2.42,0,0,1,2.39-2.59,2.1,2.1,0,0,1,1.74.83V112h.85v5ZM162,112.62a1.7,1.7,0,0,0-1.64,1.82,1.72,1.72,0,0,0,1.64,1.87,1.7,1.7,0,0,0,1.66-1.87A1.68,1.68,0,0,0,162,112.62Z"/><path class="cls-1" d="M171.31,117.1a2.45,2.45,0,0,1-2.47-2.06l.86-.24a1.63,1.63,0,0,0,1.63,1.46,1.58,1.58,0,0,0,1.61-1.58c0-1.88-3.69-1.44-3.69-3.79a2.11,2.11,0,0,1,2.24-2.06,2.28,2.28,0,0,1,2.06,1.25l-.71.47a1.48,1.48,0,0,0-1.37-.87,1.27,1.27,0,0,0-1.33,1.22c0,1.66,3.7,1.18,3.7,3.75A2.46,2.46,0,0,1,171.31,117.1Z"/><path class="cls-1" d="M176.13,112.77V117h-.86v-4.19h-.52V112h.52v-1.8h.86V112H177v.79Z"/><path class="cls-1" d="M180.17,112.84a.75.75,0,0,0-.5-.17.92.92,0,0,0-.43.11c-.55.3-.55,1-.55,1.55V117h-.85v-5h.85v.54a1.33,1.33,0,0,1,1.13-.66,1.42,1.42,0,0,1,.77.2Z"/><path class="cls-1" d="M185,117v-.7a2.13,2.13,0,0,1-1.73.84,2.47,2.47,0,0,1-2.4-2.65,2.42,2.42,0,0,1,2.39-2.59,2.1,2.1,0,0,1,1.74.83V112h.85v5Zm-1.61-4.33a1.7,1.7,0,0,0-1.64,1.82,1.72,1.72,0,0,0,1.64,1.87,1.7,1.7,0,0,0,1.66-1.87A1.68,1.68,0,0,0,183.43,112.62Z"/><path class="cls-1" d="M190.66,117V114c0-.78-.11-1.39-1-1.39-1.1,0-1.24,1-1.24,1.83V117h-.85v-5h.85v.6a1.8,1.8,0,0,1,2.86,0,2.28,2.28,0,0,1,.29,1.32V117Z"/><path class="cls-1" d="M197,117v-.7a2.13,2.13,0,0,1-1.73.84,2.46,2.46,0,0,1-2.4-2.64,2.44,2.44,0,0,1,2.39-2.6,2.14,2.14,0,0,1,1.74.83v-4.47h.85V117Zm-1.61-4.32a1.85,1.85,0,1,0,1.66,1.81A1.67,1.67,0,0,0,195.35,112.63Z"/><path class="cls-1" d="M201.17,117.28l-2.45-5.3h1l1.49,3.35,1.48-3.35h1Z"/><path class="cls-1" d="M208.32,117v-.7a2.13,2.13,0,0,1-1.73.84,2.47,2.47,0,0,1-2.4-2.65,2.42,2.42,0,0,1,2.39-2.59,2.1,2.1,0,0,1,1.74.83V112h.85v5Zm-1.61-4.33a1.7,1.7,0,0,0-1.64,1.82,1.72,1.72,0,0,0,1.64,1.87,1.7,1.7,0,0,0,1.65-1.87A1.68,1.68,0,0,0,206.71,112.62Zm-1-1.67a.61.61,0,0,1-.6-.6.6.6,0,1,1,.6.6Zm2.09,0a.61.61,0,0,1-.6-.6.6.6,0,1,1,.6.6Z"/><path class="cls-1" d="M215,118.8a2.42,2.42,0,0,1-2,.92,2.24,2.24,0,0,1-2.42-2.28h.85A1.49,1.49,0,0,0,213,119c1.2,0,1.6-.9,1.6-2v-.73a2.25,2.25,0,0,1-1.75.83,2.63,2.63,0,0,1,0-5.23,2.13,2.13,0,0,1,1.71.82V112h.86v4.87A3,3,0,0,1,215,118.8Zm-2-6.18a1.71,1.71,0,0,0-1.63,1.88,1.68,1.68,0,0,0,1.63,1.81,1.86,1.86,0,0,0,0-3.69Z"/><path class="cls-1" d="M222.47,117v-7.16h-1.33l.47-.84h1.75v8Z"/><path class="cls-1" d="M226.95,118.78l-.56-.23,1-2.77.79.29Z"/><path class="cls-1" d="M233.75,110.79V117h-.89v-8.34l6.22,6.54V109h.9v8.36Z"/><path class="cls-1" d="M244.15,117.1a2.62,2.62,0,1,1,2.63-2.61A2.6,2.6,0,0,1,244.15,117.1Zm0-4.46a1.84,1.84,0,1,0,1.76,1.85A1.75,1.75,0,0,0,244.14,112.63Z"/><path class="cls-1" d="M250.43,112.84a.75.75,0,0,0-.5-.17.92.92,0,0,0-.43.11c-.55.3-.55,1-.55,1.55V117h-.85v-5h.85v.54a1.33,1.33,0,0,1,1.13-.66,1.42,1.42,0,0,1,.77.2Z"/><path class="cls-1" d="M254,112.84a.75.75,0,0,0-.5-.17.92.92,0,0,0-.43.11c-.55.3-.55,1-.55,1.55V117h-.85v-5h.85v.54a1.33,1.33,0,0,1,1.13-.66,1.42,1.42,0,0,1,.77.2Z"/><path class="cls-1" d="M256.36,112.77V117h-.86v-4.19H255V112h.52v-1.8h.86V112h.88v.79Z"/><path class="cls-1" d="M261.87,117v-.7a2.13,2.13,0,0,1-1.73.84,2.47,2.47,0,0,1-2.4-2.65,2.42,2.42,0,0,1,2.39-2.59,2.1,2.1,0,0,1,1.74.83V112h.85v5Zm-1.61-4.33a1.7,1.7,0,0,0-1.64,1.82,1.72,1.72,0,0,0,1.64,1.87,1.7,1.7,0,0,0,1.65-1.87A1.68,1.68,0,0,0,260.26,112.62Zm-1-1.67a.61.61,0,0,1-.6-.6.6.6,0,1,1,.6.6Zm2.09,0a.61.61,0,0,1-.6-.6.6.6,0,1,1,.6.6Z"/><path class="cls-1" d="M264.35,117v-8.74h.85V117Z"/><path class="cls-1" d="M267.27,110.7a.61.61,0,1,1,.61-.61A.61.61,0,0,1,267.27,110.7Zm-.43,9.06V112h.85v7.78Z"/><path class="cls-1" d="M269.91,114.64a1.61,1.61,0,0,0,1.58,1.68,1.72,1.72,0,0,0,1.54-1l.72.4a2.48,2.48,0,0,1-2.28,1.42,2.63,2.63,0,0,1,0-5.24,2.38,2.38,0,0,1,2.38,2.62v.17Zm1.54-2a1.53,1.53,0,0,0-1.48,1.28h2.93A1.49,1.49,0,0,0,271.44,112.63Z"/><path class="cls-1" d="M130.41,132.1a2.44,2.44,0,0,1-2.47-2.06l.86-.24a1.63,1.63,0,0,0,1.63,1.46,1.58,1.58,0,0,0,1.61-1.58c0-1.88-3.69-1.44-3.69-3.79a2.11,2.11,0,0,1,2.24-2.06,2.28,2.28,0,0,1,2.06,1.25l-.71.47a1.48,1.48,0,0,0-1.37-.87,1.27,1.27,0,0,0-1.33,1.22c0,1.66,3.69,1.18,3.69,3.75A2.46,2.46,0,0,1,130.41,132.1Z"/><path class="cls-1" d="M136.67,132.1a2.62,2.62,0,1,1,2.63-2.61A2.6,2.6,0,0,1,136.67,132.1Zm0-4.46a1.84,1.84,0,1,0,1.76,1.85A1.75,1.75,0,0,0,136.66,127.63Zm-1-1.68a.61.61,0,0,1-.6-.6.6.6,0,1,1,.6.6Zm2.09,0a.61.61,0,0,1-.6-.6.6.6,0,1,1,.6.6Z"/><path class="cls-1" d="M143.74,132V129c0-.78-.11-1.39-1-1.39-1.1,0-1.23,1-1.23,1.83V132h-.85v-5h.85v.6a1.8,1.8,0,0,1,2.85,0,2.28,2.28,0,0,1,.29,1.32V132Z"/><path class="cls-1" d="M150,132v-.7a2.12,2.12,0,0,1-1.73.84,2.46,2.46,0,0,1-2.4-2.64,2.44,2.44,0,0,1,2.39-2.6,2.14,2.14,0,0,1,1.74.83v-4.47h.85V132Zm-1.61-4.32a1.85,1.85,0,1,0,1.66,1.81A1.67,1.67,0,0,0,148.43,127.63Z"/><path class="cls-1" d="M156.33,132v-.7a2.12,2.12,0,0,1-1.73.84,2.47,2.47,0,0,1-2.4-2.65,2.42,2.42,0,0,1,2.39-2.59,2.1,2.1,0,0,1,1.74.83V127h.85v5Zm-1.61-4.33a1.7,1.7,0,0,0-1.64,1.82,1.72,1.72,0,0,0,1.64,1.87,1.7,1.7,0,0,0,1.66-1.87A1.68,1.68,0,0,0,154.72,127.62Z"/><path class="cls-1" d="M163,133.8a2.41,2.41,0,0,1-2,.92,2.24,2.24,0,0,1-2.42-2.28h.85A1.49,1.49,0,0,0,161,134c1.2,0,1.6-.9,1.6-2v-.73a2.25,2.25,0,0,1-1.75.83,2.63,2.63,0,0,1,0-5.23,2.13,2.13,0,0,1,1.72.82V127h.86v4.87A3,3,0,0,1,163,133.8Zm-2-6.18a1.71,1.71,0,0,0-1.63,1.88,1.68,1.68,0,0,0,1.63,1.81,1.86,1.86,0,0,0,0-3.69Z"/><path class="cls-1" d="M170.45,132.08a2.5,2.5,0,0,1-1.85-.79,2.12,2.12,0,0,1-.53-1.42h.86a1.54,1.54,0,0,0,.28.78,1.61,1.61,0,0,0,1.26.6,1.56,1.56,0,0,0,1.57-1.59c0-1-.73-1.51-1.7-1.51v-.78a1.85,1.85,0,0,0,.95-.19,1.38,1.38,0,1,0-1.82-2,2,2,0,0,0-.26.77h-.87a2.11,2.11,0,0,1,2.23-2.1,2.14,2.14,0,0,1,2.26,2.15,2,2,0,0,1-1,1.77,2,2,0,0,1,1.15,1.93A2.37,2.37,0,0,1,170.45,132.08Z"/><path class="cls-1" d="M179.26,132.1a1.77,1.77,0,0,1-1.74-1.27l.74-.31c.2.44.48.8,1,.8a.77.77,0,0,0,.82-.78c0-1.08-2.24-.74-2.24-2.29a1.4,1.4,0,0,1,1.45-1.39,1.49,1.49,0,0,1,1.37.9l-.71.37a.8.8,0,0,0-.7-.49.59.59,0,0,0-.6.55c0,.88,2.3.65,2.3,2.28A1.63,1.63,0,0,1,179.26,132.1Z"/><path class="cls-1" d="M182.69,129.64a1.61,1.61,0,0,0,1.58,1.68,1.72,1.72,0,0,0,1.54-1l.72.4a2.48,2.48,0,0,1-2.28,1.42,2.63,2.63,0,0,1,0-5.24,2.38,2.38,0,0,1,2.38,2.62v.17Zm1.54-2a1.53,1.53,0,0,0-1.47,1.28h2.93A1.49,1.49,0,0,0,184.23,127.63Z"/><path class="cls-1" d="M190.48,132.1a2.15,2.15,0,0,1-1.74-.84v3.5h-.85V127h.85v.7a2.15,2.15,0,0,1,1.73-.82,2.46,2.46,0,0,1,2.4,2.64A2.44,2.44,0,0,1,190.48,132.1Zm-.13-4.47a1.71,1.71,0,0,0-1.66,1.87,1.66,1.66,0,1,0,3.3,0A1.72,1.72,0,0,0,190.35,127.62Z"/><path class="cls-1" d="M195,127.77V132h-.86v-4.19h-.52V127h.52v-1.8H195V127h.88v.79Z"/><path class="cls-1" d="M197.32,129.64a1.61,1.61,0,0,0,1.58,1.68,1.71,1.71,0,0,0,1.54-1l.72.4a2.48,2.48,0,0,1-2.28,1.42,2.63,2.63,0,0,1,0-5.24,2.38,2.38,0,0,1,2.38,2.62v.17Zm1.54-2a1.53,1.53,0,0,0-1.48,1.28h2.93A1.49,1.49,0,0,0,198.85,127.63Z"/><path class="cls-1" d="M208.19,132v-3c0-.64-.11-1.31-.9-1.31s-1.07.84-1.07,1.56V132h-.85v-3c0-.62-.13-1.38-.91-1.38a1,1,0,0,0-.9.54,2.36,2.36,0,0,0-.19,1.08V132h-.85v-5h.85v.53a1.42,1.42,0,0,1,1.24-.65,1.52,1.52,0,0,1,1.37.8,1.7,1.7,0,0,1,2.79-.13,2.33,2.33,0,0,1,.28,1.27V132Z"/><path class="cls-1" d="M213.25,132.1a2.12,2.12,0,0,1-1.73-.84v.7h-.85v-8.74h.85v4.47a2.14,2.14,0,0,1,1.74-.83,2.44,2.44,0,0,1,2.39,2.6A2.46,2.46,0,0,1,213.25,132.1Zm-.12-4.46a1.68,1.68,0,0,0-1.66,1.84,1.66,1.66,0,1,0,1.66-1.84Z"/><path class="cls-1" d="M217.54,129.64a1.61,1.61,0,0,0,1.58,1.68,1.72,1.72,0,0,0,1.54-1l.72.4a2.48,2.48,0,0,1-2.28,1.42,2.63,2.63,0,0,1,0-5.24,2.38,2.38,0,0,1,2.37,2.62v.17Zm1.54-2a1.53,1.53,0,0,0-1.47,1.28h2.93A1.49,1.49,0,0,0,219.07,127.63Z"/><path class="cls-1" d="M225.07,127.84a.75.75,0,0,0-.5-.17.91.91,0,0,0-.43.11c-.55.3-.55,1-.55,1.55V132h-.85v-5h.85v.54a1.33,1.33,0,0,1,1.13-.66,1.42,1.42,0,0,1,.77.2Z"/><path class="cls-1" d="M232.36,132l-2-2.27-.21.22V132h-.85v-8.74h.85v5.6l1.81-1.83h1.14l-2.14,2.11,2.53,2.87Z"/><path class="cls-1" d="M234.33,132v-8.74h.85V132Z"/><path class="cls-1" d="M242.17,132v-7.16h-1.33l.47-.84h1.75v8Z"/><path class="cls-1" d="M251,130.65V132h-.89v-1.31H246l5-7.14v6.32h1v.82Zm-.89-4.43-2.53,3.61h2.53Z"/><path class="cls-1" d="M252.6,129.78V129h2.17v.77Z"/><path class="cls-1" d="M258,132v-7.16h-1.33l.47-.84h1.75v8Z"/><path class="cls-1" d="M265,132.08a2.75,2.75,0,0,1-2.77-2.71,3.2,3.2,0,0,1,.66-1.83l2.72-3.78.67.5-1.83,2.55a2.52,2.52,0,0,1,.73-.11,2.6,2.6,0,0,1,2.57,2.64A2.76,2.76,0,0,1,265,132.08Zm0-4.58a1.88,1.88,0,1,0,1.87,1.87A1.87,1.87,0,0,0,265,127.5Z"/></svg>