<svg id="Layer_1" data-name="Layer 1" xmlns="http://www.w3.org/2000/svg" viewBox="0 0 320 160"><defs><style>.cls-1{fill:#d80201;}</style></defs><title>text</title><path class="cls-1" d="M32.88,74.07a6.49,6.49,0,0,1-5.72-3.17l2.1-2a3.82,3.82,0,0,0,3.5,2.22,2.37,2.37,0,0,0,2.57-2.35c0-3.42-7.32-1.8-7.32-7.17a4.89,4.89,0,0,1,5.2-4.85,7.31,7.31,0,0,1,4.87,1.85l-1.7,2.22a3.37,3.37,0,0,0-2.7-1.35c-1.08,0-2.32.67-2.32,1.87,0,2.82,7.32,1.42,7.32,7.25C38.68,72,36.18,74.07,32.88,74.07Z"/><path class="cls-1" d="M46.58,73.89h-1.4l-5.52-11h3.4l2.85,6.1,2.85-6.1h3.4Z"/><path class="cls-1" d="M61.36,73.67V72.24A4.18,4.18,0,0,1,57.83,74c-3.25,0-5.32-2.7-5.32-5.8s2.07-5.72,5.25-5.72a4.51,4.51,0,0,1,3.6,1.72V62.84h3V73.67Zm-2.7-8.45a3,3,0,1,0,3,3A3,3,0,0,0,58.66,65.22Z"/><path class="cls-1" d="M74.71,73.67v-6c0-1.47-.33-2.6-2-2.6s-2.32,1.38-2.32,3v5.6h-3V62.84h3v1.32a4,4,0,0,1,3.4-1.67,3.74,3.74,0,0,1,4,4.3v6.87Z"/><path class="cls-1" d="M83.16,68.74c0,1.67.85,2.9,2.65,2.9a2.84,2.84,0,0,0,2.57-1.45l2.8.45A5.3,5.3,0,0,1,85.86,74a5.43,5.43,0,0,1-5.8-5.77,5.36,5.36,0,0,1,5.67-5.75c3.57,0,5.52,2.4,5.52,5.85v.4Zm2.62-4.1a2.46,2.46,0,0,0-2.52,2.17h5.12A2.51,2.51,0,0,0,85.78,64.64Z"/><path class="cls-1" d="M101,73.67v-6c0-1.47-.33-2.6-2-2.6s-2.32,1.38-2.32,3v5.6h-3V62.84h3v1.32a4,4,0,0,1,3.4-1.67,3.74,3.74,0,0,1,4,4.3v6.87Z"/><path class="cls-1" d="M120.73,73.67V67.74c0-1.27-.2-2.67-1.8-2.67-1.77,0-2.07,1.63-2.07,3v5.55h-3V67.92a4.83,4.83,0,0,0-.22-1.8,1.75,1.75,0,0,0-1.62-1,2,2,0,0,0-1.7,1,4.49,4.49,0,0,0-.35,2.07v5.55h-3V62.84h3v1.22a4.16,4.16,0,0,1,3.3-1.57,3.68,3.68,0,0,1,3.37,2,4,4,0,0,1,3.55-2,3.56,3.56,0,0,1,3,1.55,4.77,4.77,0,0,1,.58,2.62v7Z"/><path class="cls-1" d="M134.93,73.67V72.24A4.18,4.18,0,0,1,131.41,74c-3.25,0-5.32-2.7-5.32-5.8s2.07-5.72,5.25-5.72a4.51,4.51,0,0,1,3.6,1.72V62.84h3V73.67Zm-5.22-12.85a1.8,1.8,0,1,1,0-3.6,1.8,1.8,0,1,1,0,3.6Zm2.52,4.4a3,3,0,1,0,3,3A3,3,0,0,0,132.23,65.22Zm2.67-4.4a1.82,1.82,0,0,1-1.8-1.8,1.8,1.8,0,1,1,1.8,1.8Z"/><path class="cls-1" d="M148,65.59a2.68,2.68,0,0,0-1.45-.37c-2,0-2.6,1.45-2.6,3.25v5.2h-3V62.84h3v1.62a3.53,3.53,0,0,1,4.47-1.72Z"/><path class="cls-1" d="M157.3,73.67,153.23,69l-.33.33v4.32h-3V54.95h3V66.79l4-3.95h4.1L156,67.59l5.47,6.07Z"/><path class="cls-1" d="M165.86,65.44v8.22h-3V65.44h-1.2v-2.6h1.2v-3.7h3v3.7H168v2.6Z"/><path class="cls-1" d="M177.83,73.67V72.24A4.18,4.18,0,0,1,174.3,74c-3.25,0-5.32-2.7-5.32-5.8s2.07-5.72,5.25-5.72a4.51,4.51,0,0,1,3.6,1.72V62.84h3V73.67Zm-2.7-8.45a3,3,0,1,0,3,3A3,3,0,0,0,175.13,65.22Z"/><path class="cls-1" d="M35.18,98.67V92.74c0-1.5-.32-2.67-2.07-2.67s-2.3,1.45-2.3,3v5.55h-3V79.95h3v9.3a3.94,3.94,0,0,1,3.4-1.75,4.14,4.14,0,0,1,3.15,1.32,4.29,4.29,0,0,1,.85,3v6.8Z"/><path class="cls-1" d="M46.33,99c-3,0-5.22-1.33-5.22-4.55V87.84h3V94c0,1.47.63,2.47,2.2,2.47s2.2-1,2.2-2.47V87.84h3v6.62C51.58,97.69,49.31,99,46.33,99Z"/><path class="cls-1" d="M57.93,99a5.75,5.75,0,0,1-4.12-1.8l1.6-1.85A3.52,3.52,0,0,0,58,96.64a1.27,1.27,0,0,0,1.38-1.2c0-1.85-4.82-.92-4.82-4.57,0-2.2,1.83-3.42,3.87-3.42a5.57,5.57,0,0,1,3.52,1.15l-1.5,1.77a3,3,0,0,0-1.8-.72c-.53,0-1.15.33-1.15.92,0,1.57,5,.88,5,4.57C62.46,97.67,60.26,99,57.93,99Z"/><path class="cls-1" d="M74,90.44v8.22H71V90.44H69.78v-2.6H71V84.37a5.28,5.28,0,0,1,.47-2.55,4.29,4.29,0,0,1,3.75-2.17,3.58,3.58,0,0,1,1.6.38v2.77a3,3,0,0,0-1.37-.4c-1.35,0-1.42,1.4-1.42,2.42v3h2.8v2.6Z"/><path class="cls-1" d="M83.81,99c-3.45,0-6.2-2.15-6.2-5.75s2.75-5.77,6.22-5.77S90,89.67,90,93.24,87.23,99,83.81,99Zm-2.62-13.2a1.8,1.8,0,1,1,0-3.6,1.8,1.8,0,1,1,0,3.6Zm2.6,4.4a3,3,0,1,0,3.07,3A3.06,3.06,0,0,0,83.78,90.22Zm2.6-4.4a1.82,1.82,0,0,1-1.8-1.8,1.8,1.8,0,1,1,1.8,1.8Z"/><path class="cls-1" d="M99.38,90.59a2.68,2.68,0,0,0-1.45-.37c-2,0-2.6,1.45-2.6,3.25v5.2h-3V87.84h3v1.63a3.53,3.53,0,0,1,4.47-1.72Z"/><path class="cls-1" d="M110.08,93.74c0,1.67.85,2.9,2.65,2.9a2.84,2.84,0,0,0,2.57-1.45l2.8.45A5.31,5.31,0,0,1,112.78,99a5.43,5.43,0,0,1-5.8-5.77,5.36,5.36,0,0,1,5.67-5.75c3.57,0,5.52,2.4,5.52,5.85v.4Zm2.63-4.1a2.45,2.45,0,0,0-2.52,2.17h5.12A2.51,2.51,0,0,0,112.71,89.64Z"/><path class="cls-1" d="M127.9,98.67v-6c0-1.47-.32-2.6-2-2.6-1.87,0-2.32,1.38-2.32,3v5.6h-3V87.84h3v1.33a4,4,0,0,1,3.4-1.67,3.74,3.74,0,0,1,4,4.3v6.87Z"/><path class="cls-1" d="M143.53,99a5.76,5.76,0,0,1-4.12-1.8l1.6-1.85a3.52,3.52,0,0,0,2.55,1.27,1.27,1.27,0,0,0,1.37-1.2c0-1.85-4.82-.92-4.82-4.57,0-2.2,1.82-3.42,3.87-3.42a5.58,5.58,0,0,1,3.52,1.15L146,90.37a3,3,0,0,0-1.8-.72c-.52,0-1.15.33-1.15.92,0,1.57,5,.88,5,4.57C148.05,97.67,145.85,99,143.53,99Z"/><path class="cls-1" d="M155.43,99c-3,0-5.22-1.33-5.22-4.55V87.84h3V94c0,1.47.63,2.47,2.2,2.47s2.2-1,2.2-2.47V87.84h3v6.62C160.68,97.69,158.4,99,155.43,99Z"/><path class="cls-1" d="M171,98.67v-6c0-1.47-.33-2.6-2-2.6-1.87,0-2.33,1.38-2.33,3v5.6h-3V87.84h3v1.33a4,4,0,0,1,3.4-1.67,3.74,3.74,0,0,1,4,4.3v6.87Z"/><path class="cls-1" d="M185.18,98.67V97.24A4.18,4.18,0,0,1,181.65,99c-3.25,0-5.32-2.7-5.32-5.8s2.07-5.72,5.25-5.72a4.51,4.51,0,0,1,3.6,1.72V79.95h3V98.67Zm-2.7-8.45a3,3,0,1,0,3,3A3,3,0,0,0,182.48,90.22Z"/><path class="cls-1" d="M198.85,85.09a1.82,1.82,0,0,1,0-3.65,1.82,1.82,0,0,1,0,3.65Zm-1.52,13.57V87.84h3V98.67Z"/><path class="cls-1" d="M210.6,98.67v-6c0-1.47-.33-2.6-2-2.6s-2.32,1.38-2.32,3v5.6h-3V87.84h3v1.33a4,4,0,0,1,3.4-1.67,3.74,3.74,0,0,1,4,4.3v6.87Z"/><path class="cls-1" d="M223.93,98.67v-6c0-1.47-.33-2.6-2-2.6s-2.32,1.38-2.32,3v5.6h-3V87.84h3v1.33a4,4,0,0,1,3.4-1.67,3.74,3.74,0,0,1,4,4.3v6.87Z"/><path class="cls-1" d="M232.38,93.74c.05,1.67.85,2.9,2.65,2.9a2.83,2.83,0,0,0,2.57-1.45l2.8.45A5.31,5.31,0,0,1,235.08,99a5.43,5.43,0,0,1-5.8-5.77A5.36,5.36,0,0,1,235,87.49c3.57,0,5.52,2.4,5.52,5.85v.4Zm2.63-4.1a2.45,2.45,0,0,0-2.52,2.17h5.12A2.51,2.51,0,0,0,235,89.64Z"/><path class="cls-1" d="M256.63,98.67V92.74c0-1.28-.2-2.67-1.8-2.67-1.77,0-2.07,1.63-2.07,3v5.55h-3V92.92a4.83,4.83,0,0,0-.22-1.8,1.75,1.75,0,0,0-1.62-1,2,2,0,0,0-1.7,1,4.49,4.49,0,0,0-.35,2.07v5.55h-3V87.84h3v1.22a4.16,4.16,0,0,1,3.3-1.57,3.68,3.68,0,0,1,3.37,2,4,4,0,0,1,3.55-2,3.56,3.56,0,0,1,3,1.55,4.77,4.77,0,0,1,.58,2.62v7Z"/><path class="cls-1" d="M264,85.09a1.82,1.82,0,0,1,0-3.65,1.82,1.82,0,0,1,0,3.65ZM262.5,98.67V87.84h3V98.67Z"/><path class="cls-1" d="M268.38,98.67V79.95h3V98.67Z"/><path class="cls-1" d="M275.78,85.09a1.82,1.82,0,0,1,0-3.65,1.82,1.82,0,0,1,0,3.65Zm-1.52,19.34V87.84h3v16.6Z"/><path class="cls-1" d="M285.75,99c-3.45,0-6.2-2.15-6.2-5.75s2.75-5.77,6.22-5.77,6.15,2.17,6.15,5.75S289.18,99,285.75,99Zm-2.62-13.2a1.8,1.8,0,1,1,0-3.6,1.8,1.8,0,0,1,0,3.6Zm2.6,4.4a3,3,0,1,0,3.07,3A3.06,3.06,0,0,0,285.73,90.22Zm2.6-4.4a1.83,1.83,0,0,1-1.8-1.8,1.8,1.8,0,1,1,1.8,1.8Z"/><path class="cls-1" d="M295.93,99a1.95,1.95,0,1,1,2-1.95A2,2,0,0,1,295.93,99Zm-1.55-5.1V82h3.1v11.9Z"/></svg>