<svg id="Layer_1" data-name="Layer 1" xmlns="http://www.w3.org/2000/svg" viewBox="0 0 320 160"><defs><style>.cls-1{fill:#d80201;}</style></defs><title>text</title><path class="cls-1" d="M75.48,60.15V74H72.23V60.15H68.51V57.33H79.23v2.82Z"/><path class="cls-1" d="M87.26,65.93a2.68,2.68,0,0,0-1.45-.37c-2,0-2.6,1.45-2.6,3.25V74h-3V63.18h3V64.8a3.53,3.53,0,0,1,4.47-1.72Z"/><path class="cls-1" d="M97.46,74V72.57a4.18,4.18,0,0,1-3.52,1.77c-3.25,0-5.32-2.7-5.32-5.8s2.07-5.72,5.25-5.72a4.51,4.51,0,0,1,3.6,1.72V63.18h3V74Zm-2.7-8.45a3,3,0,1,0,3,3A3,3,0,0,0,94.76,65.55Zm-.43-4.27a2.25,2.25,0,0,1,0-4.5,2.25,2.25,0,0,1,0,4.5Zm0-3.12a.87.87,0,1,0,.88.88A.85.85,0,0,0,94.33,58.15Z"/><path class="cls-1" d="M110.81,74V68c0-1.47-.32-2.6-2-2.6s-2.32,1.38-2.32,3V74h-3V63.18h3V64.5a4,4,0,0,1,3.4-1.67,3.74,3.74,0,0,1,4,4.3V74Z"/><path class="cls-1" d="M126.78,77.92a5.9,5.9,0,0,1-4.6,1.9c-2.77,0-5.45-1.6-5.75-4.55h3.27a2.41,2.41,0,0,0,2.57,2c1.9,0,2.67-1.32,2.67-3.07V72.55a4.5,4.5,0,0,1-3.65,1.8c-3.2,0-5.15-2.57-5.15-5.62s2-5.9,5.3-5.9a4.06,4.06,0,0,1,3.5,1.75v-1.4h3V73.6C128,75.3,127.93,76.57,126.78,77.92Zm-4.47-12.37a3,3,0,1,0,3,3A3,3,0,0,0,122.31,65.55Z"/><path class="cls-1" d="M137.48,74.35a4.26,4.26,0,0,1-3.55-1.77V74h-3V55.28h3v9.27a4.59,4.59,0,0,1,3.62-1.72c3.17,0,5.27,2.7,5.27,5.72S140.73,74.35,137.48,74.35Zm-.82-8.8a3,3,0,1,0,3,3A3,3,0,0,0,136.66,65.55Z"/><path class="cls-1" d="M150.75,74.35c-3.45,0-6.2-2.15-6.2-5.75s2.75-5.77,6.22-5.77,6.15,2.17,6.15,5.75S154.18,74.35,150.75,74.35Zm0-8.8a3,3,0,1,0,3.07,3A3.06,3.06,0,0,0,150.73,65.55Z"/><path class="cls-1" d="M167.53,74V72.57A4.18,4.18,0,0,1,164,74.35c-3.25,0-5.32-2.7-5.32-5.8s2.07-5.72,5.25-5.72a4.51,4.51,0,0,1,3.6,1.72V55.28h3V74Zm-2.7-8.45a3,3,0,1,0,3,3A3,3,0,0,0,164.83,65.55Z"/><path class="cls-1" d="M181.75,74V72.57a4.18,4.18,0,0,1-3.52,1.77c-3.25,0-5.32-2.7-5.32-5.8s2.07-5.72,5.25-5.72a4.51,4.51,0,0,1,3.6,1.72V55.28h3V74Zm-2.7-8.45a3,3,0,1,0,3,3A3,3,0,0,0,179.05,65.55Z"/><path class="cls-1" d="M196,74V72.57a4.18,4.18,0,0,1-3.52,1.77c-3.25,0-5.32-2.7-5.32-5.8s2.07-5.72,5.25-5.72a4.51,4.51,0,0,1,3.6,1.72V63.18h3V74Zm-2.7-8.45a3,3,0,1,0,3,3A3,3,0,0,0,193.28,65.55Z"/><path class="cls-1" d="M215.58,74V68c0-1.47-.33-2.6-2-2.6s-2.32,1.38-2.32,3V74h-3V63.18h3V64.5a4,4,0,0,1,3.4-1.67,3.74,3.74,0,0,1,4,4.3V74Z"/><path class="cls-1" d="M229.78,74V72.57a4.18,4.18,0,0,1-3.52,1.77c-3.25,0-5.32-2.7-5.32-5.8s2.07-5.72,5.25-5.72a4.51,4.51,0,0,1,3.6,1.72V63.18h3V74Zm-5.22-12.85a1.8,1.8,0,1,1,0-3.6,1.8,1.8,0,1,1,0,3.6Zm2.52,4.4a3,3,0,1,0,3,3A3,3,0,0,0,227.08,65.55Zm2.67-4.4a1.82,1.82,0,0,1-1.8-1.8,1.8,1.8,0,1,1,1.8,1.8Z"/><path class="cls-1" d="M242.8,65.93a2.67,2.67,0,0,0-1.45-.37c-2,0-2.6,1.45-2.6,3.25V74h-3V63.18h3V64.8a3.53,3.53,0,0,1,4.47-1.72Z"/><path class="cls-1" d="M72.91,90.78V99h-3V90.78H68.71v-2.6h1.17V84.7a5.27,5.27,0,0,1,.47-2.55A4.28,4.28,0,0,1,74.11,80a3.58,3.58,0,0,1,1.6.38v2.77a3,3,0,0,0-1.37-.4c-1.35,0-1.42,1.4-1.42,2.42v3h2.8v2.6Z"/><path class="cls-1" d="M85.38,99V97.58a4.18,4.18,0,0,1-3.52,1.77c-3.25,0-5.32-2.7-5.32-5.8s2.07-5.72,5.25-5.72a4.51,4.51,0,0,1,3.6,1.72V88.18h3V99Zm-2.7-8.45a3,3,0,1,0,3,3A3,3,0,0,0,82.68,90.55Z"/><path class="cls-1" d="M105.15,99V93.08c0-1.27-.2-2.67-1.8-2.67-1.77,0-2.07,1.63-2.07,3V99h-3V93.25a4.82,4.82,0,0,0-.23-1.8,1.75,1.75,0,0,0-1.62-1,2,2,0,0,0-1.7,1,4.49,4.49,0,0,0-.35,2.07V99h-3V88.18h3V89.4a4.15,4.15,0,0,1,3.3-1.58,3.68,3.68,0,0,1,3.37,2,4,4,0,0,1,3.55-2,3.56,3.56,0,0,1,3,1.55,4.77,4.77,0,0,1,.57,2.62v7Z"/><path class="cls-1" d="M112.56,85.43a1.82,1.82,0,1,1,0-3.65,1.82,1.82,0,0,1,0,3.65ZM111,99V88.18h3V99Z"/><path class="cls-1" d="M116.91,99V80.28h3V99Z"/><path class="cls-1" d="M124.31,85.43a1.82,1.82,0,1,1,0-3.65,1.82,1.82,0,0,1,0,3.65Zm-1.52,19.35V88.18h3v16.6Z"/><path class="cls-1" d="M131.18,94.08c0,1.67.85,2.9,2.65,2.9a2.84,2.84,0,0,0,2.57-1.45l2.8.45a5.31,5.31,0,0,1-5.32,3.37,5.42,5.42,0,0,1-5.8-5.77,5.36,5.36,0,0,1,5.67-5.75c3.57,0,5.52,2.4,5.52,5.85v.4Zm2.62-4.1a2.46,2.46,0,0,0-2.52,2.17h5.12A2.51,2.51,0,0,0,133.81,90Z"/><path class="cls-1" d="M149,99V93c0-1.47-.32-2.6-2-2.6s-2.32,1.38-2.32,3V99h-3V88.18h3V89.5a4,4,0,0,1,3.4-1.67,3.74,3.74,0,0,1,4,4.3V99Z"/><path class="cls-1" d="M166.68,99.22h-1.4l-5.52-11h3.4l2.85,6.1,2.85-6.1h3.4Z"/><path class="cls-1" d="M182,99V97.58a4.18,4.18,0,0,1-3.52,1.77c-3.25,0-5.32-2.7-5.32-5.8s2.07-5.72,5.25-5.72a4.51,4.51,0,0,1,3.6,1.72V88.18h3V99Zm-5.22-12.85a1.8,1.8,0,1,1,0-3.6,1.8,1.8,0,0,1,0,3.6Zm2.52,4.4a3,3,0,1,0,3,3A3,3,0,0,0,179.31,90.55Zm2.67-4.4a1.82,1.82,0,0,1-1.8-1.8,1.8,1.8,0,1,1,1.8,1.8Z"/><path class="cls-1" d="M196.68,99l-3.1-3.77L190.43,99h-3.9l5.15-5.9-4.15-4.92h3.82l2.22,2.8,2.27-2.8h3.85l-4.25,4.92,5.07,5.9Z"/><path class="cls-1" d="M204,94.08c.05,1.67.85,2.9,2.65,2.9a2.84,2.84,0,0,0,2.57-1.45L212,96a5.31,5.31,0,0,1-5.32,3.37,5.42,5.42,0,0,1-5.8-5.77,5.36,5.36,0,0,1,5.67-5.75c3.57,0,5.52,2.4,5.52,5.85v.4Zm2.63-4.1a2.46,2.46,0,0,0-2.52,2.17h5.12A2.51,2.51,0,0,0,206.58,90Z"/><path class="cls-1" d="M221.45,90.93a2.67,2.67,0,0,0-1.45-.37c-2,0-2.6,1.45-2.6,3.25V99h-3V88.18h3V89.8a3.53,3.53,0,0,1,4.47-1.72Z"/><path class="cls-1" d="M229,91.3v2.12h-3.07V89a5,5,0,0,0,.88.1c1.52,0,3.15-.77,3.15-2.5A1.88,1.88,0,0,0,228,84.7a1.77,1.77,0,0,0-1.8,1.77c0,.1,0,.2,0,.3H223v-.3c0-2.72,2.55-4.47,5.1-4.47a4.84,4.84,0,0,1,5,4.7C233.15,89.23,231.3,90.75,229,91.3Zm-1.47,8a1.95,1.95,0,1,1,1.95-1.95A2,2,0,0,1,227.53,99.32Z"/></svg>