<svg id="Layer_1" data-name="Layer 1" xmlns="http://www.w3.org/2000/svg" viewBox="0 0 580 400"><defs><style>.cls-1{fill:#d4ac76;}</style></defs><title>text</title><path class="cls-1" d="M204.65,248.67V235.53H209a4,4,0,0,1,2.87,1.09,3.61,3.61,0,0,1,1.13,2.71,3.12,3.12,0,0,1-1.47,2.65,3.69,3.69,0,0,1,1.46,1.17,2.82,2.82,0,0,1,.54,1.67,3.61,3.61,0,0,1-1.15,2.79,4.14,4.14,0,0,1-2.9,1.06Zm4-10.95h-1.76V241h2a1.81,1.81,0,0,0,1.3-.49,1.6,1.6,0,0,0,.51-1.21,1.43,1.43,0,0,0-.56-1.17A2.3,2.3,0,0,0,208.69,237.72Zm.38,5.27h-2.14v3.48H209a2.13,2.13,0,0,0,1.49-.49,1.66,1.66,0,0,0,.55-1.27,1.59,1.59,0,0,0-.52-1.25A2.05,2.05,0,0,0,209.07,243Z"/><path class="cls-1" d="M224.44,243.11h-4.86v3.36h5.34v2.2h-7.81V235.53h7.65v2.19h-5.18v3.19h4.86Z"/><path class="cls-1" d="M232.06,248.84a6.37,6.37,0,0,1-2.47-.52,6.57,6.57,0,0,1-2.13-1.44L229,245a4.62,4.62,0,0,0,1.45,1.17,3.65,3.65,0,0,0,1.73.46,2.12,2.12,0,0,0,1.4-.45,1.4,1.4,0,0,0,.55-1.13,2,2,0,0,0-1.44-1.83l-1.47-.58a5.63,5.63,0,0,1-2.18-1.45,3.56,3.56,0,0,1,.41-4.73,3.81,3.81,0,0,1,2.78-1.1,5.67,5.67,0,0,1,4.05,1.5l-1.45,1.84a3.4,3.4,0,0,0-2.6-1.14,1.77,1.77,0,0,0-1.18.37,1.26,1.26,0,0,0-.09,1.83,3.56,3.56,0,0,0,1.12.68l1.54.61c1.94.78,2.94,2.05,3,3.79a3.7,3.7,0,0,1-1.23,2.88A4.79,4.79,0,0,1,232.06,248.84Z"/><path class="cls-1" d="M238.72,237.89v-2.36h10.83v2.36h-4.18v10.78H242.9V237.89Z"/><path class="cls-1" d="M249.67,248.67l5.07-13.14H257L262,248.67h-2.53l-.7-1.82H252.9l-.7,1.82Zm5-14.5a1,1,0,0,1-.8.35,1,1,0,0,1-.81-.35,1.18,1.18,0,0,1-.34-.84,1.14,1.14,0,0,1,1.15-1.17,1.08,1.08,0,0,1,.8.34,1.15,1.15,0,0,1,.33.83A1.17,1.17,0,0,1,254.71,234.17Zm1.14,5-2.1,5.45h4.19Zm2.78-5a1.21,1.21,0,0,1-.88.35,1.18,1.18,0,0,1-.87-.35,1.12,1.12,0,0,1-.36-.84,1.1,1.1,0,0,1,.36-.83,1.21,1.21,0,0,1,.87-.34,1.25,1.25,0,0,1,.88.34,1.1,1.1,0,0,1,.36.83A1.12,1.12,0,0,1,258.63,234.17Z"/><path class="cls-1" d="M264.75,248.67V235.53h2.46V246.3H272v2.37Z"/><path class="cls-1" d="M275.25,248.67V235.53h2.47V246.3h4.83v2.37Z"/><path class="cls-1" d="M295.82,248.67l-5-13.14h2.57L297,245l3.56-9.44H303l-5,13.14Z"/><path class="cls-1" d="M303.32,248.67l5.07-13.14h2.22l5.05,13.14h-2.53l-.7-1.82h-5.88l-.7,1.82Zm6.18-9.47-2.1,5.45h4.19Zm1.91-5.92a1.83,1.83,0,0,1-.55,1.34,1.87,1.87,0,0,1-1.34.55,1.9,1.9,0,0,1-1.35-3.23,1.87,1.87,0,0,1,1.35-.55,1.84,1.84,0,0,1,1.34.56A1.79,1.79,0,0,1,311.41,233.28Zm-2.38.49a.67.67,0,0,0,.5.21.63.63,0,0,0,.48-.21.68.68,0,0,0,.2-.49.65.65,0,0,0-.21-.49.63.63,0,0,0-.48-.21.67.67,0,0,0-.49.21.7.7,0,0,0,0,1Z"/><path class="cls-1" d="M318.4,248.67V235.53h5.14a4.43,4.43,0,0,1,3.17,1.19,4.08,4.08,0,0,1,1.26,3.11,3.94,3.94,0,0,1-.94,2.67,4.24,4.24,0,0,1-2.45,1.4l3.53,4.77h-2.77l-3.41-4.7h-1.06v4.7Zm4.76-10.95h-2.29V242h2.29a2.45,2.45,0,0,0,1.71-.58,2,2,0,0,0,.64-1.52,2.07,2.07,0,0,0-.66-1.56A2.36,2.36,0,0,0,323.16,237.72Z"/><path class="cls-1" d="M337.9,248.67V235.53h4.32a4,4,0,0,1,2.88,1.09,3.65,3.65,0,0,1,1.13,2.71,3.11,3.11,0,0,1-1.48,2.65,3.62,3.62,0,0,1,1.46,1.17,2.83,2.83,0,0,1,.55,1.67,3.65,3.65,0,0,1-1.15,2.79,4.17,4.17,0,0,1-2.91,1.06Zm4-10.95h-1.76V241h2a1.83,1.83,0,0,0,1.31-.49,1.63,1.63,0,0,0,.5-1.21,1.42,1.42,0,0,0-.55-1.17A2.3,2.3,0,0,0,341.94,237.72Zm.37,5.27h-2.13v3.48h2.08a2.1,2.1,0,0,0,1.48-.49,1.63,1.63,0,0,0,.55-1.27,1.61,1.61,0,0,0-.51-1.25A2.06,2.06,0,0,0,342.31,243Z"/><path class="cls-1" d="M363.09,242.09a6.55,6.55,0,0,1-2,4.81,6.86,6.86,0,0,1-9.66,0,6.82,6.82,0,1,1,11.65-4.81Zm-9.92,3.13a4.32,4.32,0,0,0,6.18,0,4.5,4.5,0,0,0,0-6.29,4.32,4.32,0,0,0-6.18,0,4.56,4.56,0,0,0,0,6.29Z"/><path class="cls-1" d="M366.53,248.67V235.53h2.27v5.79l5-5.79h3l-4.64,5.24,4.74,7.9h-2.84l-3.58-6-1.76,2v4Z"/></svg>