<svg id="Layer_1" data-name="Layer 1" xmlns="http://www.w3.org/2000/svg" viewBox="0 0 320 160"><defs><style>.cls-1{fill:#d80201;}</style></defs><title>text</title><path class="cls-1" d="M79.51,60.15v3.7h5.22v2.82H79.51V74H76.26V57.33h8.82v2.82Z"/><path class="cls-1" d="M93.08,74.35c-3.45,0-6.2-2.15-6.2-5.75s2.75-5.77,6.22-5.77,6.15,2.17,6.15,5.75S96.51,74.35,93.08,74.35Zm0-8.8a3,3,0,1,0,3.07,3A3.06,3.06,0,0,0,93.06,65.55Z"/><path class="cls-1" d="M108.66,65.93a2.68,2.68,0,0,0-1.45-.37c-2,0-2.6,1.45-2.6,3.25V74h-3V63.18h3V64.8a3.53,3.53,0,0,1,4.47-1.72Z"/><path class="cls-1" d="M124.4,74V68.08c0-1.27-.2-2.67-1.8-2.67-1.77,0-2.07,1.63-2.07,3V74h-3V68.25a4.82,4.82,0,0,0-.23-1.8,1.75,1.75,0,0,0-1.62-1,2,2,0,0,0-1.7,1,4.5,4.5,0,0,0-.35,2.07V74h-3V63.18h3V64.4a4.15,4.15,0,0,1,3.3-1.57,3.68,3.68,0,0,1,3.37,2,4,4,0,0,1,3.55-2,3.56,3.56,0,0,1,3,1.55,4.77,4.77,0,0,1,.57,2.62v7Z"/><path class="cls-1" d="M138.6,74V72.57a4.18,4.18,0,0,1-3.52,1.77c-3.25,0-5.32-2.7-5.32-5.8s2.07-5.72,5.25-5.72a4.51,4.51,0,0,1,3.6,1.72V63.18h3V74Zm-2.7-8.45a3,3,0,1,0,3,3A3,3,0,0,0,135.91,65.55Z"/><path class="cls-1" d="M159.08,74V72.57a4.18,4.18,0,0,1-3.52,1.77c-3.25,0-5.32-2.7-5.32-5.8s2.07-5.72,5.25-5.72a4.51,4.51,0,0,1,3.6,1.72V55.28h3V74Zm-2.7-8.45a3,3,0,1,0,3,3A3,3,0,0,0,156.38,65.55Z"/><path class="cls-1" d="M166.51,60.43a1.82,1.82,0,1,1,0-3.65,1.82,1.82,0,0,1,0,3.65ZM165,74V63.18h3V74Z"/><path class="cls-1" d="M173.91,65.78V74h-3V65.78h-1.2v-2.6h1.2v-3.7h3v3.7H176v2.6Z"/><path class="cls-1" d="M180.66,65.78V74h-3V65.78h-1.2v-2.6h1.2v-3.7h3v3.7h2.12v2.6Z"/><path class="cls-1" d="M198,74V68.08c0-1.5-.32-2.67-2.07-2.67s-2.3,1.45-2.3,3V74h-3V55.28h3v9.3a3.94,3.94,0,0,1,3.4-1.75,4.14,4.14,0,0,1,3.15,1.32,4.29,4.29,0,0,1,.85,3V74Z"/><path class="cls-1" d="M209.15,74.35c-3,0-5.22-1.32-5.22-4.55V63.18h3V69.3c0,1.47.63,2.47,2.2,2.47s2.2-1,2.2-2.47V63.18h3V69.8C214.4,73,212.13,74.35,209.15,74.35Z"/><path class="cls-1" d="M220.75,74.35a5.76,5.76,0,0,1-4.12-1.8l1.6-1.85A3.52,3.52,0,0,0,220.78,72a1.27,1.27,0,0,0,1.38-1.2c0-1.85-4.82-.92-4.82-4.57,0-2.2,1.82-3.42,3.87-3.42a5.58,5.58,0,0,1,3.52,1.15l-1.5,1.77a3,3,0,0,0-1.8-.73c-.52,0-1.15.33-1.15.92,0,1.57,5,.88,5,4.57C225.28,73,223.08,74.35,220.75,74.35Z"/><path class="cls-1" d="M82.43,99.35a4.33,4.33,0,0,1-3.62-1.77v7.2h-3V88.18h3v1.37a4.31,4.31,0,0,1,3.55-1.72c3.22,0,5.35,2.67,5.35,5.77S85.61,99.35,82.43,99.35Zm-.9-8.8a3,3,0,1,0,3,3A3,3,0,0,0,81.53,90.55Z"/><path class="cls-1" d="M98.28,99V97.58a4.18,4.18,0,0,1-3.52,1.77c-3.25,0-5.32-2.7-5.32-5.8s2.07-5.72,5.25-5.72a4.51,4.51,0,0,1,3.6,1.72V88.18h3V99Zm-2.7-8.45a3,3,0,1,0,3,3A3,3,0,0,0,95.58,90.55Zm-.43-4.27a2.25,2.25,0,0,1,0-4.5,2.25,2.25,0,1,1,0,4.5Zm0-3.12A.88.88,0,1,0,96,84,.85.85,0,0,0,95.16,83.15Z"/><path class="cls-1" d="M113.61,90.78V99h-3V90.78h-1.17v-2.6h1.17V84.7a5.27,5.27,0,0,1,.47-2.55A4.28,4.28,0,0,1,114.81,80a3.58,3.58,0,0,1,1.6.38v2.77a3,3,0,0,0-1.37-.4c-1.35,0-1.42,1.4-1.42,2.42v3h2.8v2.6Z"/><path class="cls-1" d="M120.33,94.08c0,1.67.85,2.9,2.65,2.9a2.84,2.84,0,0,0,2.57-1.45l2.8.45A5.31,5.31,0,0,1,123,99.35a5.42,5.42,0,0,1-5.8-5.77,5.36,5.36,0,0,1,5.67-5.75c3.57,0,5.52,2.4,5.52,5.85v.4ZM123,90a2.46,2.46,0,0,0-2.52,2.17h5.12A2.51,2.51,0,0,0,123,90Z"/><path class="cls-1" d="M144.58,99V93.08c0-1.27-.2-2.67-1.8-2.67-1.77,0-2.07,1.63-2.07,3V99h-3V93.25a4.82,4.82,0,0,0-.23-1.8,1.75,1.75,0,0,0-1.62-1,2,2,0,0,0-1.7,1,4.49,4.49,0,0,0-.35,2.07V99h-3V88.18h3V89.4a4.15,4.15,0,0,1,3.3-1.58,3.68,3.68,0,0,1,3.37,2,4,4,0,0,1,3.55-2,3.56,3.56,0,0,1,3,1.55A4.77,4.77,0,0,1,147.6,92v7Z"/><path class="cls-1" d="M170.58,99V93.08c0-1.27-.2-2.67-1.8-2.67-1.77,0-2.07,1.63-2.07,3V99h-3V93.25a4.82,4.82,0,0,0-.23-1.8,1.75,1.75,0,0,0-1.62-1,2,2,0,0,0-1.7,1,4.49,4.49,0,0,0-.35,2.07V99h-3V88.18h3V89.4a4.15,4.15,0,0,1,3.3-1.58,3.68,3.68,0,0,1,3.37,2,4,4,0,0,1,3.55-2,3.56,3.56,0,0,1,3,1.55A4.77,4.77,0,0,1,173.6,92v7Z"/><path class="cls-1" d="M178,85.43a1.82,1.82,0,1,1,0-3.65,1.82,1.82,0,0,1,0,3.65ZM176.46,99V88.18h3V99Z"/><path class="cls-1" d="M189.73,99V93c0-1.47-.32-2.6-2-2.6s-2.32,1.38-2.32,3V99h-3V88.18h3V89.5a4,4,0,0,1,3.4-1.67,3.74,3.74,0,0,1,4,4.3V99Z"/><path class="cls-1" d="M200.88,99.35c-3,0-5.22-1.32-5.22-4.55V88.18h3V94.3c0,1.47.62,2.47,2.2,2.47s2.2-1,2.2-2.47V88.18h3V94.8C206.13,98,203.85,99.35,200.88,99.35Z"/><path class="cls-1" d="M212.08,90.78V99h-3V90.78h-1.2v-2.6h1.2v-3.7h3v3.7h2.12v2.6Z"/><path class="cls-1" d="M218.3,94.08c.05,1.67.85,2.9,2.65,2.9a2.84,2.84,0,0,0,2.57-1.45l2.8.45A5.31,5.31,0,0,1,221,99.35a5.42,5.42,0,0,1-5.8-5.77,5.36,5.36,0,0,1,5.67-5.75c3.57,0,5.52,2.4,5.52,5.85v.4Zm2.63-4.1a2.46,2.46,0,0,0-2.52,2.17h5.12A2.51,2.51,0,0,0,220.93,90Z"/><path class="cls-1" d="M235.8,90.93a2.67,2.67,0,0,0-1.45-.37c-2,0-2.6,1.45-2.6,3.25V99h-3V88.18h3V89.8a3.53,3.53,0,0,1,4.47-1.72Z"/><path class="cls-1" d="M238.3,99.32a1.95,1.95,0,1,1,2-1.95A2,2,0,0,1,238.3,99.32Z"/></svg>