<?xml version="1.0" encoding="utf-8"?>
<!-- Generator: Adobe Illustrator 19.0.0, SVG Export Plug-In . SVG Version: 6.00 Build 0)  -->
<svg version="1.1" id="Lager_1" xmlns="http://www.w3.org/2000/svg" xmlns:xlink="http://www.w3.org/1999/xlink" x="0px" y="0px"
	 viewBox="0 0 525.5 283.5" enable-background="new 0 0 525.5 283.5" xml:space="preserve">
<g>
	<polygon fill="#D5AD76" points="47.9,187.7 86.2,187.7 86.2,194.4 70.6,194.4 70.6,235.6 63.5,235.6 63.5,194.4 47.9,194.4 	"/>
	<path fill="#D5AD76" d="M118.8,217.2c7.7-0.9,13.4-6.5,13.4-14.6c0-9-6.9-14.9-15.5-14.9H98.4v47.9h7.1v-18.3h5.3l13.7,18.3h8.2
		L118.8,217.2z M105.5,211.3v-17.4h10.2c5.4,0,9.3,3.8,9.3,8.7c0,5.3-3.9,8.7-9.3,8.7H105.5z"/>
	<rect x="146.2" y="187.7" fill="#D5AD76" width="7.1" height="47.9"/>
	<polygon fill="#D5AD76" points="190,235.6 208.8,187.7 201.3,187.7 187,224.5 172.7,187.7 165.1,187.7 183.8,235.6 	"/>
	<path fill="#D5AD76" d="M232.2,229.7c-4.6,0-9.4-2.7-12.3-6.1l-4.7,5.4c4.1,4.3,10.4,7.2,16.7,7.2c9.8,0,15.9-5.9,15.9-14.1
		c0-5.9-3.1-10.7-10.5-13.7l-5.8-2.3c-4.5-1.9-6.1-3.8-6.1-6.6c0-3.7,2.9-6,7-6c4.1,0,7.2,1.5,9.9,4.3l4.2-5.4
		c-3.6-3.4-8-5.4-14.1-5.4c-8,0-13.9,5.9-13.9,12.9c0,6.3,3.7,9.9,10.4,12.6l5.6,2.3c4.6,1.9,6.2,4.6,6.2,7.7
		C240.7,226.6,237.3,229.7,232.2,229.7z"/>
	<polygon fill="#D5AD76" points="288.8,194.1 288.8,187.7 261.5,187.7 261.5,235.6 289.2,235.6 289.2,229.2 268.6,229.2 
		268.6,214.6 287.9,214.6 287.9,208.2 268.6,208.2 268.6,194.1 	"/>
	<polygon fill="#D5AD76" points="305.8,187.7 305.8,235.6 332.2,235.6 332.2,228.9 312.9,228.9 312.9,187.7 	"/>
	<polygon fill="#D5AD76" points="374.7,208.1 351.5,208.1 351.5,187.7 344.3,187.7 344.3,235.6 351.5,235.6 351.5,214.8 
		374.7,214.8 374.7,235.6 381.8,235.6 381.8,187.7 374.7,187.7 	"/>
	<path fill="#D5AD76" d="M426.6,218.1c0,6.6-4,11.5-10.8,11.5c-6.8,0-10.7-5.1-10.7-11.6v-30.4H398v31c0,10,7.3,17.7,17.8,17.7
		c10.6,0,17.9-7.6,17.9-17.7v-31h-7.1V218.1z"/>
	<path fill="#D5AD76" d="M467.2,208.4l-5.8-2.3c-4.5-1.9-6.1-3.8-6.1-6.6c0-3.7,2.9-6,7-6c4.1,0,7.2,1.5,9.9,4.3l4.2-5.4
		c-3.6-3.4-8-5.4-14.1-5.4c-8,0-13.9,5.9-13.9,12.9c0,6.3,3.7,9.9,10.4,12.6l5.6,2.3c4.6,1.9,6.2,4.6,6.2,7.7c0,4-3.4,7.1-8.5,7.1
		c-4.6,0-9.4-2.7-12.3-6.1l-4.7,5.4c4.2,4.3,10.4,7.2,16.7,7.2c9.8,0,15.9-5.9,15.9-14.1C477.6,216.2,474.6,211.4,467.2,208.4z"/>
	<path fill="#D5AD76" d="M262.8,47.9c-29.7,0-53.8,24.1-53.8,53.8c0,29.7,24.1,53.8,53.8,53.8c29.7,0,53.8-24.1,53.8-53.8
		C316.5,72,292.5,47.9,262.8,47.9z M272,107.6l5.6-6.3v-45c19.1,6.2,32.9,24.2,32.9,45.3c0,2-0.1,4-0.4,5.9H272z M309.2,112.5
		c-3.8,16.3-15.9,29.3-31.6,34.4v-34.4H309.2z M215.1,101.7c0-6,1.1-11.7,3.1-17h20.5v58.1C224.6,134.5,215.1,119.2,215.1,101.7z
		 M222.2,76.6c8.4-13.6,23.4-22.6,40.5-22.6c2.3,0,4.5,0.2,6.7,0.5v22.1H222.2z M269.4,79.1v69.7c-2.2,0.3-4.4,0.5-6.7,0.5
		c-6.8,0-13.3-1.5-19.2-4.1l0-60.6h20.9L269.4,79.1z"/>
</g>
</svg>
