<svg id="Layer_1" data-name="Layer 1" xmlns="http://www.w3.org/2000/svg" viewBox="0 0 980 240"><defs><style>.cls-1{fill:#d80201;}</style></defs><title>text</title><path class="cls-1" d="M233.25,137H221.6V102.33h8.58c2.81,0,6.24.26,8.48,2.08a9.29,9.29,0,0,1,3.12,7.13c0,3.07-1,5.41-3.8,7a7.89,7.89,0,0,1,4.53,2.18,9.34,9.34,0,0,1,2.49,6.5C245,134.11,239.49,137,233.25,137Zm-2.91-29.17h-2v8.94h1.93c3,0,5.25-1.2,5.25-4.47S233.36,107.85,230.34,107.85Zm1.14,14.09h-3.12v9.62h2.92c3.32,0,6.76-.78,6.76-4.84C238,122.87,234.71,121.94,231.48,121.94Z"/><path class="cls-1" d="M256.81,149.08h-7.13L258,133.64,247.29,114.5h7.33l6.76,12.79,6.45-12.79H275Z"/><path class="cls-1" d="M299,145.18a12.28,12.28,0,0,1-9.57,4c-5.77,0-11.34-3.33-12-9.47h6.81a5,5,0,0,0,5.36,4.11c3.95,0,5.56-2.76,5.56-6.4V134c-2.13,2.45-4.31,3.75-7.59,3.75-6.66,0-10.71-5.36-10.71-11.7s4.16-12.28,11-12.28a8.44,8.44,0,0,1,7.28,3.64V114.5h6.35v21.69C301.53,139.72,301.37,142.38,299,145.18Zm-9.31-25.74a6.32,6.32,0,1,0,6.29,6.29A6.28,6.28,0,0,0,289.67,119.44Z"/><path class="cls-1" d="M328.46,145.18a12.28,12.28,0,0,1-9.57,4c-5.77,0-11.33-3.33-12-9.47h6.82a5,5,0,0,0,5.35,4.11c3.95,0,5.57-2.76,5.57-6.4V134c-2.14,2.45-4.32,3.75-7.6,3.75-6.65,0-10.71-5.36-10.71-11.7s4.16-12.28,11-12.28a8.46,8.46,0,0,1,7.28,3.64V114.5H331v21.69C331,139.72,330.85,142.38,328.46,145.18Zm-9.31-25.74a6.32,6.32,0,1,0,6.3,6.29A6.28,6.28,0,0,0,319.15,119.44Z"/><path class="cls-1" d="M365.43,137V124.54c0-3.07-.67-5.41-4.26-5.41-3.9,0-4.84,2.86-4.84,6.24V137H350V114.5h6.29v2.76c2.08-2.39,3.85-3.49,7.08-3.49a8.66,8.66,0,0,1,6.55,2.71c1.61,1.87,1.77,3.9,1.77,6.24V137Z"/><path class="cls-1" d="M383.17,149.08H376l8.27-15.44L373.65,114.5H381l6.76,12.79,6.45-12.79h7.18Z"/><path class="cls-1" d="M410.78,119.91V137h-6.3V119.91H402V114.5h2.49v-7.69h6.3v7.69h4.42v5.41Z"/><path class="cls-1" d="M424.82,119.91V137h-6.3V119.91H416V114.5h2.49v-7.69h6.3v7.69h4.42v5.41Z"/><path class="cls-1" d="M460.9,137V124.69c0-3.12-.67-5.56-4.31-5.56-3.9,0-4.79,3-4.79,6.34V137h-6.29v-39h6.29v19.34a8.22,8.22,0,0,1,7.08-3.64,8.62,8.62,0,0,1,6.55,2.76c1.61,1.87,1.77,4,1.77,6.34V137Z"/><path class="cls-1" d="M484.09,137.75c-6.18,0-10.86-2.76-10.86-9.47V114.5h6.29v12.74c0,3.07,1.3,5.15,4.57,5.15s4.58-2.08,4.58-5.15V114.5H495v13.78C495,135,490.28,137.75,484.09,137.75Z"/><path class="cls-1" d="M508.22,137.75a12,12,0,0,1-8.58-3.75l3.33-3.85a7.3,7.3,0,0,0,5.3,2.66,2.65,2.65,0,0,0,2.86-2.5c0-3.85-10-1.92-10-9.52,0-4.57,3.79-7.12,8.06-7.12a11.62,11.62,0,0,1,7.33,2.39l-3.12,3.69a6.28,6.28,0,0,0-3.74-1.5c-1.1,0-2.4.67-2.4,1.92,0,3.28,10.4,1.82,10.4,9.52C517.63,134.94,513.06,137.75,508.22,137.75Z"/><path class="cls-1" d="M563.86,137V124.69c0-2.65-.41-5.56-3.74-5.56-3.69,0-4.32,3.38-4.32,6.34V137h-6.29v-12a10,10,0,0,0-.47-3.75,3.64,3.64,0,0,0-3.38-2.18,4.09,4.09,0,0,0-3.53,2,9.27,9.27,0,0,0-.73,4.31V137h-6.29V114.5h6.29v2.55a8.65,8.65,0,0,1,6.86-3.28,7.65,7.65,0,0,1,7,4.11,8.34,8.34,0,0,1,7.39-4.11A7.41,7.41,0,0,1,569,117a9.92,9.92,0,0,1,1.2,5.46V137Z"/><path class="cls-1" d="M581.44,126.77c.1,3.49,1.77,6,5.51,6a5.91,5.91,0,0,0,5.36-3l5.82.94c-2,4.83-6,7-11.08,7-7.28,0-12.06-4.68-12.06-12,0-7.17,4.58-12,11.8-12,7.44,0,11.5,5,11.5,12.17v.83Zm5.46-8.52a5.1,5.1,0,0,0-5.25,4.52h10.66C591.68,120,589.86,118.25,586.9,118.25Z"/><path class="cls-1" d="M620.33,137v-3a8.69,8.69,0,0,1-7.33,3.7c-6.76,0-11.08-5.62-11.08-12.07,0-6.29,4.32-11.91,10.92-11.91a9.38,9.38,0,0,1,7.49,3.59V98.07h6.35v39Zm-5.61-17.58a6.32,6.32,0,1,0,6.29,6.29A6.28,6.28,0,0,0,614.72,119.44Z"/><path class="cls-1" d="M659.38,137.75a8.84,8.84,0,0,1-7.38-3.7v3h-6.29v-39H652v19.29c2.24-2.34,4.26-3.59,7.54-3.59,6.61,0,11,5.62,11,11.91C670.51,132.13,666.15,137.75,659.38,137.75Zm-1.71-18.31a6.32,6.32,0,1,0,6.29,6.29A6.28,6.28,0,0,0,657.67,119.44Z"/><path class="cls-1" d="M690,120.22a5.58,5.58,0,0,0-3-.78c-4.27,0-5.41,3-5.41,6.76V137H675.3V114.5h6.29v3.38c1.45-2.55,3.53-4.11,6.55-4.11a7.31,7.31,0,0,1,2.76.52Z"/><path class="cls-1" d="M711.23,137v-3a8.7,8.7,0,0,1-7.33,3.7c-6.76,0-11.08-5.62-11.08-12.07,0-6.29,4.32-11.91,10.92-11.91a9.39,9.39,0,0,1,7.49,3.59V114.5h6.34V137Zm-5.62-17.58a6.32,6.32,0,1,0,6.29,6.29A6.28,6.28,0,0,0,705.61,119.44Z"/><path class="cls-1" d="M730.78,137.75A12,12,0,0,1,722.2,134l3.33-3.85a7.3,7.3,0,0,0,5.3,2.66,2.65,2.65,0,0,0,2.86-2.5c0-3.85-10-1.92-10-9.52,0-4.57,3.8-7.12,8.06-7.12a11.63,11.63,0,0,1,7.34,2.39l-3.12,3.69a6.3,6.3,0,0,0-3.75-1.5c-1.09,0-2.39.67-2.39,1.92,0,3.28,10.4,1.82,10.4,9.52C740.19,134.94,735.61,137.75,730.78,137.75Z"/><path class="cls-1" d="M773.42,137V124.69c0-2.65-.42-5.56-3.75-5.56-3.69,0-4.31,3.38-4.31,6.34V137h-6.29v-12a10,10,0,0,0-.47-3.75,3.65,3.65,0,0,0-3.38-2.18,4.11,4.11,0,0,0-3.54,2,9.4,9.4,0,0,0-.73,4.31V137h-6.29V114.5H751v2.55a8.68,8.68,0,0,1,6.87-3.28,7.67,7.67,0,0,1,7,4.11,8.34,8.34,0,0,1,7.38-4.11,7.4,7.4,0,0,1,6.29,3.23,9.92,9.92,0,0,1,1.2,5.46V137Z"/><path class="cls-1" d="M791.2,149.08h-7.12l8.27-15.44L781.69,114.5H789l6.76,12.79,6.45-12.79h7.17Z"/><path class="cls-1" d="M818.45,137.75a12,12,0,0,1-8.58-3.75l3.33-3.85a7.3,7.3,0,0,0,5.3,2.66,2.65,2.65,0,0,0,2.86-2.5c0-3.85-10-1.92-10-9.52,0-4.57,3.79-7.12,8.06-7.12a11.64,11.64,0,0,1,7.33,2.39l-3.12,3.69a6.3,6.3,0,0,0-3.75-1.5c-1.09,0-2.39.67-2.39,1.92,0,3.28,10.4,1.82,10.4,9.52C827.86,134.94,823.29,137.75,818.45,137.75Z"/></svg>