<svg id="Layer_1" data-name="Layer 1" xmlns="http://www.w3.org/2000/svg" viewBox="0 0 980 240"><defs><style>.cls-1{fill:#d80201;}</style></defs><title>text</title><path class="cls-1" d="M466.49,97.69c-2.92,3.15-7.51,2.66-11.43,2.66v11.11h-5.85v-30h8.73c3,0,5.58.22,7.92,2.29A9.57,9.57,0,0,1,468.92,91,9.82,9.82,0,0,1,466.49,97.69Zm-5.13-10.21c-1.12-.9-2.88-1-4.27-1h-2v8.73h2.39c2.92,0,5.44-.94,5.44-4.32A4.42,4.42,0,0,0,461.36,87.48Z"/><path class="cls-1" d="M485.17,96.93a4.79,4.79,0,0,0-2.61-.68c-3.69,0-4.68,2.61-4.68,5.85v9.36h-5.45V92h5.45V94.9a6.26,6.26,0,0,1,5.67-3.55,6.14,6.14,0,0,1,2.38.45Z"/><path class="cls-1" d="M491.29,87a3.29,3.29,0,1,1,0-6.57,3.29,3.29,0,0,1,0,6.57Zm-2.75,24.43V92H494v19.48Z"/><path class="cls-1" d="M505.33,112.09a10.37,10.37,0,0,1-7.43-3.24l2.88-3.33a6.34,6.34,0,0,0,4.59,2.3,2.3,2.3,0,0,0,2.48-2.16c0-3.33-8.69-1.67-8.69-8.24,0-4,3.29-6.16,7-6.16a10,10,0,0,1,6.34,2.07l-2.7,3.19a5.4,5.4,0,0,0-3.24-1.3c-.94,0-2.07.58-2.07,1.66,0,2.84,9,1.58,9,8.24C513.47,109.66,509.51,112.09,505.33,112.09Z"/><path class="cls-1" d="M543.49,111.46V108.9a7.55,7.55,0,0,1-6.35,3.19c-5.85,0-9.58-4.86-9.58-10.44s3.73-10.3,9.45-10.3a8.14,8.14,0,0,1,6.48,3.1V77.76H549v33.7Zm-4.86-15.21a5.47,5.47,0,1,0,5.44,5.45A5.44,5.44,0,0,0,538.63,96.25Z"/><path class="cls-1" d="M556.85,87a3.29,3.29,0,0,1,0-6.57,3.29,3.29,0,0,1,0,6.57Zm-2.74,24.43V92h5.44v19.48Z"/><path class="cls-1" d="M577.42,96.93a4.79,4.79,0,0,0-2.61-.68c-3.69,0-4.68,2.61-4.68,5.85v9.36h-5.45V92h5.45V94.9a6.26,6.26,0,0,1,5.67-3.55,6.14,6.14,0,0,1,2.38.45Z"/><path class="cls-1" d="M585.43,102.6c.09,3,1.53,5.22,4.77,5.22a5.1,5.1,0,0,0,4.63-2.61l5,.81c-1.71,4.18-5.17,6.07-9.58,6.07-6.3,0-10.44-4-10.44-10.39s4-10.35,10.21-10.35c6.44,0,9.94,4.32,9.94,10.53v.72Zm4.72-7.38a4.42,4.42,0,0,0-4.54,3.91h9.22A4.51,4.51,0,0,0,590.15,95.22Z"/><path class="cls-1" d="M617.55,111.46l-7.33-8.37-.58.59v7.78h-5.45V77.76h5.45V99.09L616.92,92h7.38l-9.13,8.55L625,111.46Z"/><path class="cls-1" d="M633,96.66v14.8H627.5V96.66h-2.16V92h2.16V85.32H633V92h3.82v4.68Z"/><path class="cls-1" d="M642.62,112.05a3.51,3.51,0,1,1,3.51-3.51A3.52,3.52,0,0,1,642.62,112.05Zm-2.79-9.18V81.45h5.58v21.42Z"/><path class="cls-1" d="M336,162.46l-2.4-5.92H322.2l-2.56,5.92h-5.8L326,133.85h4.12l11.8,28.61Zm-8-20.41-4.08,10.08h8Z"/><path class="cls-1" d="M344.37,162.46V131h5.09v31.46Z"/><path class="cls-1" d="M354.33,162.46V131h5.08v31.46Z"/><path class="cls-1" d="M378.19,162.46v-2.39a7,7,0,0,1-5.93,3c-5.46,0-8.95-4.54-8.95-9.75s3.49-9.62,8.83-9.62a7.59,7.59,0,0,1,6.05,2.9v-2.31h5.12v18.19Zm-4.54-14.2a5.11,5.11,0,1,0,5.08,5.09A5.07,5.07,0,0,0,373.65,148.26Z"/><path class="cls-1" d="M411.11,162.46v-10c0-2.52-.54-4.5-3.48-4.5-3.15,0-3.87,2.44-3.87,5.13v9.32h-5.08V131h5.08v15.63a6.62,6.62,0,0,1,5.71-2.95,7,7,0,0,1,5.3,2.23c1.3,1.51,1.43,3.24,1.43,5.13v11.42Z"/><path class="cls-1" d="M429.84,163.05c-5,0-8.78-2.23-8.78-7.65V144.27h5.09v10.29c0,2.48,1.05,4.16,3.69,4.16s3.7-1.68,3.7-4.16V144.27h5.12V155.4C438.66,160.82,434.84,163.05,429.84,163.05Z"/><path class="cls-1" d="M449.33,163.05a9.68,9.68,0,0,1-6.93-3l2.69-3.11a5.92,5.92,0,0,0,4.28,2.14,2.14,2.14,0,0,0,2.31-2c0-3.11-8.1-1.55-8.1-7.68,0-3.7,3.06-5.76,6.51-5.76a9.39,9.39,0,0,1,5.92,1.93l-2.52,3a5,5,0,0,0-3-1.22c-.88,0-1.93.54-1.93,1.55,0,2.65,8.4,1.47,8.4,7.69C456.93,160.78,453.24,163.05,449.33,163.05Z"/><path class="cls-1" d="M485,162.46v-2.39a7,7,0,0,1-5.93,3c-5.46,0-8.94-4.54-8.94-9.75s3.48-9.62,8.82-9.62a7.59,7.59,0,0,1,6.05,2.9v-2.31h5.12v18.19Zm-8.78-21.59a3,3,0,1,1,0-6.05,3,3,0,0,1,0,6.05Zm4.24,7.39a5.11,5.11,0,1,0,5.08,5.09A5.08,5.08,0,0,0,480.41,148.26Zm4.5-7.39a3.07,3.07,0,0,1-3-3,3,3,0,1,1,3,3Z"/><path class="cls-1" d="M506.83,148.89a4.52,4.52,0,0,0-2.44-.63c-3.44,0-4.37,2.44-4.37,5.46v8.74h-5.08V144.27H500V147a5.93,5.93,0,0,1,7.52-2.9Z"/><path class="cls-1" d="M529.13,163.13c-4.24,0-7.27-1.84-9.62-5.33l3.53-3.4a6.41,6.41,0,0,0,5.88,3.73c2.35,0,4.33-1.46,4.33-3.94,0-5.76-12.31-3-12.31-12.06,0-5,4-8.15,8.74-8.15a12.28,12.28,0,0,1,8.19,3.11L535,140.83a5.66,5.66,0,0,0-4.54-2.27c-1.8,0-3.9,1.13-3.9,3.15,0,4.75,12.31,2.39,12.31,12.18C538.88,159.61,534.67,163.13,529.13,163.13Z"/><path class="cls-1" d="M552.15,162.84h-2.36l-9.28-18.57h5.71L551,154.52l4.79-10.25h5.71Z"/><path class="cls-1" d="M577,162.46v-2.39a7,7,0,0,1-5.92,3c-5.47,0-8.95-4.54-8.95-9.75s3.48-9.62,8.82-9.62a7.59,7.59,0,0,1,6.05,2.9v-2.31h5.12v18.19Zm-4.54-14.2a5.11,5.11,0,1,0,5.09,5.09A5.08,5.08,0,0,0,572.43,148.26Z"/><path class="cls-1" d="M599.4,162.46V152.38c0-2.48-.55-4.37-3.45-4.37-3.15,0-3.91,2.31-3.91,5v9.41H587V144.27H592v2.23c1.69-1.93,3.11-2.82,5.72-2.82a7,7,0,0,1,5.29,2.19c1.3,1.51,1.43,3.15,1.43,5v11.55Z"/><path class="cls-1" d="M613.59,154.19c.08,2.81,1.43,4.87,4.45,4.87a4.76,4.76,0,0,0,4.33-2.44l4.7.76c-1.59,3.91-4.83,5.67-8.94,5.67-5.88,0-9.75-3.78-9.75-9.7s3.7-9.67,9.54-9.67c6,0,9.28,4,9.28,9.83v.68ZM618,147.3a4.13,4.13,0,0,0-4.24,3.65h8.61A4.21,4.21,0,0,0,618,147.3Z"/><path class="cls-1" d="M643.54,162.46V152.38c0-2.48-.55-4.37-3.45-4.37-3.15,0-3.9,2.31-3.9,5v9.41H631.1V144.27h5.09v2.23c1.68-1.93,3.1-2.82,5.71-2.82a7,7,0,0,1,5.29,2.19c1.3,1.51,1.43,3.15,1.43,5v11.55Z"/><path class="cls-1" d="M676.72,162.46v-10c0-2.15-.34-4.5-3-4.5-3,0-3.48,2.73-3.48,5.13v9.32h-5.09V152.8a8.26,8.26,0,0,0-.37-3A3,3,0,0,0,662,148a3.32,3.32,0,0,0-2.86,1.64,7.51,7.51,0,0,0-.59,3.49v9.32h-5.08V144.27h5.08v2.06a7,7,0,0,1,5.55-2.65,6.2,6.2,0,0,1,5.67,3.32,6.74,6.74,0,0,1,6-3.32,6,6,0,0,1,5.08,2.61,8,8,0,0,1,1,4.41v11.76Z"/><path class="cls-1" d="M700.57,162.46v-2.39a7,7,0,0,1-5.92,3c-5.46,0-8.95-4.54-8.95-9.75s3.49-9.62,8.82-9.62a7.59,7.59,0,0,1,6.05,2.9v-2.31h5.13v18.19Zm-8.78-21.59a3,3,0,0,1,0-6.05,3,3,0,1,1,0,6.05Zm4.25,7.39a5.11,5.11,0,1,0,5.08,5.09A5.08,5.08,0,0,0,696,148.26Zm4.49-7.39a3.06,3.06,0,0,1-3-3,3,3,0,1,1,3,3Z"/><path class="cls-1" d="M722.45,148.89a4.51,4.51,0,0,0-2.43-.63c-3.45,0-4.37,2.44-4.37,5.46v8.74h-5.08V144.27h5.08V147a5.83,5.83,0,0,1,5.29-3.32,5.92,5.92,0,0,1,2.23.42Z"/><path class="cls-1" d="M738.16,162.46l-6.85-7.81-.54.54v7.27h-5.09V131h5.09v19.91l6.8-6.64h6.89l-8.53,8,9.2,10.21Z"/><path class="cls-1" d="M752.52,148.64v13.82h-5.08V148.64h-2v-4.37h2v-6.21h5.08v6.21h3.57v4.37Z"/><path class="cls-1" d="M772.64,162.46v-2.39a7,7,0,0,1-5.92,3c-5.46,0-9-4.54-9-9.75s3.49-9.62,8.82-9.62a7.59,7.59,0,0,1,6,2.9v-2.31h5.13v18.19Zm-4.53-14.2a5.11,5.11,0,1,0,5.08,5.09A5.08,5.08,0,0,0,768.11,148.26Z"/></svg>