<svg id="Layer_1" data-name="Layer 1" xmlns="http://www.w3.org/2000/svg" viewBox="0 0 980 240"><defs><style>.cls-1{fill:#d80201;}</style></defs><title>text</title><path class="cls-1" d="M283.7,108.75V115h8.78v4.75H283.7V132h-5.46V104h14.83v4.75Z"/><path class="cls-1" d="M306.5,132.61c-5.79,0-10.41-3.62-10.41-9.67s4.62-9.7,10.46-9.7,10.33,3.66,10.33,9.66S312.26,132.61,306.5,132.61Zm0-14.79a5.11,5.11,0,1,0,5.17,5.12A5.14,5.14,0,0,0,306.46,117.82Z"/><path class="cls-1" d="M332.67,118.45a4.52,4.52,0,0,0-2.44-.63c-3.44,0-4.36,2.44-4.36,5.46V132h-5.09V113.83h5.09v2.73a5.92,5.92,0,0,1,7.51-2.9Z"/><path class="cls-1" d="M359.13,132v-10c0-2.14-.33-4.49-3-4.49-3,0-3.49,2.73-3.49,5.12V132h-5.08v-9.66a8.08,8.08,0,0,0-.38-3,2.94,2.94,0,0,0-2.73-1.76,3.33,3.33,0,0,0-2.86,1.64,7.59,7.59,0,0,0-.58,3.48V132H335.9V113.83H341v2.06a7,7,0,0,1,5.54-2.65,6.19,6.19,0,0,1,5.67,3.32,6.74,6.74,0,0,1,6-3.32,6,6,0,0,1,5.08,2.61,8,8,0,0,1,1,4.41V132Z"/><path class="cls-1" d="M383,132v-2.4a7,7,0,0,1-5.93,3c-5.46,0-8.94-4.54-8.94-9.75s3.48-9.62,8.82-9.62a7.59,7.59,0,0,1,6.05,2.9v-2.31h5.12V132Zm-4.54-14.2a5.11,5.11,0,1,0,5.08,5.08A5.07,5.07,0,0,0,378.45,117.82Z"/><path class="cls-1" d="M417.38,132v-2.4a7,7,0,0,1-5.92,3c-5.46,0-8.95-4.54-8.95-9.75s3.49-9.62,8.82-9.62a7.57,7.57,0,0,1,6.05,2.9V100.56h5.13V132Zm-4.53-14.2a5.11,5.11,0,1,0,5.08,5.08A5.08,5.08,0,0,0,412.85,117.82Z"/><path class="cls-1" d="M429.85,109.21a3.07,3.07,0,0,1,0-6.13,3.07,3.07,0,0,1,0,6.13ZM427.29,132V113.83h5.09V132Z"/><path class="cls-1" d="M442.29,118.2V132H437.2V118.2h-2v-4.37h2v-6.22h5.09v6.22h3.57v4.37Z"/><path class="cls-1" d="M453.63,118.2V132h-5.09V118.2h-2v-4.37h2v-6.22h5.09v6.22h3.57v4.37Z"/><path class="cls-1" d="M482.77,132v-10c0-2.52-.54-4.49-3.48-4.49-3.15,0-3.87,2.43-3.87,5.12V132h-5.08V100.56h5.08v15.62a6.64,6.64,0,0,1,5.72-2.94,7,7,0,0,1,5.29,2.23c1.3,1.51,1.43,3.23,1.43,5.12V132Z"/><path class="cls-1" d="M501.51,132.61c-5,0-8.78-2.23-8.78-7.65V113.83h5.08v10.29c0,2.48,1.05,4.16,3.7,4.16s3.69-1.68,3.69-4.16V113.83h5.13V125C510.33,130.38,506.5,132.61,501.51,132.61Z"/><path class="cls-1" d="M521,132.61a9.69,9.69,0,0,1-6.93-3l2.69-3.11a5.9,5.9,0,0,0,4.29,2.15,2.15,2.15,0,0,0,2.31-2c0-3.11-8.11-1.55-8.11-7.69,0-3.69,3.06-5.75,6.51-5.75a9.39,9.39,0,0,1,5.92,1.93l-2.52,3a5.08,5.08,0,0,0-3-1.22c-.88,0-1.93.55-1.93,1.56,0,2.64,8.4,1.47,8.4,7.69C528.6,130.34,524.9,132.61,521,132.61Z"/><path class="cls-1" d="M553.88,132.61a7.27,7.27,0,0,1-6.09-3v12.1h-5.08V113.83h5.08v2.31a7.25,7.25,0,0,1,6-2.9c5.42,0,9,4.5,9,9.7S559.21,132.61,553.88,132.61Zm-1.51-14.79a5.11,5.11,0,1,0,5.08,5.08A5.08,5.08,0,0,0,552.37,117.82Z"/><path class="cls-1" d="M580.51,132v-2.4a7,7,0,0,1-5.93,3c-5.46,0-8.94-4.54-8.94-9.75s3.48-9.62,8.82-9.62a7.59,7.59,0,0,1,6,2.9v-2.31h5.12V132ZM576,117.82a5.11,5.11,0,1,0,5.08,5.08A5.07,5.07,0,0,0,576,117.82Zm-.71-7.18a3.78,3.78,0,1,1,0-7.56,3.78,3.78,0,0,1,0,7.56Zm0-5.25a1.47,1.47,0,1,0,1.47,1.47A1.44,1.44,0,0,0,575.26,105.39Z"/><path class="cls-1" d="M606.25,118.2V132h-5.08V118.2h-2v-4.37h2V108a8.77,8.77,0,0,1,.8-4.28,7.2,7.2,0,0,1,6.3-3.66,6,6,0,0,1,2.69.63v4.66a5.18,5.18,0,0,0-2.31-.67c-2.27,0-2.4,2.35-2.4,4.08v5.08H611v4.37Z"/><path class="cls-1" d="M617.55,123.74c.08,2.82,1.43,4.88,4.45,4.88a4.77,4.77,0,0,0,4.33-2.44l4.7.76c-1.59,3.9-4.83,5.67-8.94,5.67-5.88,0-9.75-3.78-9.75-9.71s3.7-9.66,9.54-9.66c6,0,9.28,4,9.28,9.83v.67Zm4.41-6.89a4.13,4.13,0,0,0-4.24,3.66h8.61A4.23,4.23,0,0,0,622,116.85Z"/><path class="cls-1" d="M658.29,132v-10c0-2.14-.33-4.49-3-4.49-3,0-3.49,2.73-3.49,5.12V132H646.7v-9.66a8.08,8.08,0,0,0-.38-3,2.94,2.94,0,0,0-2.73-1.76,3.33,3.33,0,0,0-2.86,1.64,7.59,7.59,0,0,0-.58,3.48V132h-5.09V113.83h5.09v2.06a7,7,0,0,1,5.54-2.65,6.19,6.19,0,0,1,5.67,3.32,6.74,6.74,0,0,1,6-3.32,6,6,0,0,1,5.08,2.61,8,8,0,0,1,1,4.41V132Z"/><path class="cls-1" d="M702,132v-10c0-2.14-.33-4.49-3-4.49-3,0-3.49,2.73-3.49,5.12V132h-5.08v-9.66a8.08,8.08,0,0,0-.38-3,2.94,2.94,0,0,0-2.73-1.76,3.33,3.33,0,0,0-2.86,1.64,7.59,7.59,0,0,0-.58,3.48V132h-5.09V113.83h5.09v2.06a7,7,0,0,1,5.54-2.65,6.19,6.19,0,0,1,5.67,3.32,6.74,6.74,0,0,1,6-3.32,6,6,0,0,1,5.08,2.61,8,8,0,0,1,1,4.41V132Z"/><path class="cls-1" d="M714.4,109.21a3.07,3.07,0,1,1,0-6.13,3.07,3.07,0,0,1,0,6.13ZM711.84,132V113.83h5.08V132Z"/><path class="cls-1" d="M734.14,132V121.94c0-2.48-.55-4.37-3.44-4.37-3.15,0-3.91,2.31-3.91,5V132h-5.08V113.83h5.08v2.23c1.68-1.94,3.11-2.82,5.71-2.82a7,7,0,0,1,5.3,2.19c1.3,1.51,1.42,3.15,1.42,5V132Z"/><path class="cls-1" d="M752.87,132.61c-5,0-8.78-2.23-8.78-7.65V113.83h5.09v10.29c0,2.48,1.05,4.16,3.69,4.16s3.7-1.68,3.7-4.16V113.83h5.12V125C761.69,130.38,757.87,132.61,752.87,132.61Z"/><path class="cls-1" d="M771.69,118.2V132H766.6V118.2h-2v-4.37h2v-6.22h5.09v6.22h3.57v4.37Z"/><path class="cls-1" d="M782.14,123.74c.09,2.82,1.43,4.88,4.46,4.88a4.76,4.76,0,0,0,4.32-2.44l4.71.76c-1.6,3.9-4.83,5.67-9,5.67-5.88,0-9.74-3.78-9.74-9.71s3.69-9.66,9.53-9.66c6,0,9.29,4,9.29,9.83v.67Zm4.42-6.89a4.14,4.14,0,0,0-4.25,3.66h8.61A4.21,4.21,0,0,0,786.56,116.85Z"/><path class="cls-1" d="M811.54,118.45a4.46,4.46,0,0,0-2.43-.63c-3.45,0-4.37,2.44-4.37,5.46V132h-5.08V113.83h5.08v2.73a5.85,5.85,0,0,1,5.29-3.32,5.92,5.92,0,0,1,2.23.42Z"/><path class="cls-1" d="M815.74,132.56a3.28,3.28,0,1,1,3.28-3.27A3.28,3.28,0,0,1,815.74,132.56Z"/></svg>