<?xml version="1.0" encoding="utf-8"?>
<!-- Generator: Adobe Illustrator 19.1.1, SVG Export Plug-In . SVG Version: 6.00 Build 0)  -->
<svg version="1.1" id="Layer_1" xmlns="http://www.w3.org/2000/svg" xmlns:xlink="http://www.w3.org/1999/xlink" x="0px" y="0px"
	 viewBox="0 0 468 60" style="enable-background:new 0 0 468 60;" xml:space="preserve">
<style type="text/css">
	.st0{fill:#D4AC76;}
</style>
<g>
	<path class="st0" d="M147.3,43.2h-2.5v1.9h2.7v0.8h-3.6v-6.2h3.5v0.8h-2.7v1.8h2.5V43.2z"/>
	<path class="st0" d="M149,40.6v-0.8h5v0.8h-2.1v5.4H151v-5.4H149z"/>
	<path class="st0" d="M155.2,40.6v-0.8h5v0.8h-2.1v5.4h-0.9v-5.4H155.2z"/>
	<path class="st0" d="M169.3,45.9v-2.7h-3v2.7h-0.9v-6.2h0.9v2.7h3v-2.7h0.9v6.2H169.3z"/>
	<path class="st0" d="M174.8,46c-0.7,0-1.2-0.2-1.6-0.6c-0.4-0.4-0.6-1-0.6-1.6v-4h0.9v4c0,0.4,0.1,0.8,0.4,1.1s0.6,0.4,1,0.4
		c0.4,0,0.8-0.1,1-0.4c0.2-0.3,0.4-0.6,0.4-1.1v-4h0.9v4c0,0.7-0.2,1.2-0.6,1.6C176,45.8,175.5,46,174.8,46z"/>
	<path class="st0" d="M181.2,46c-0.4,0-0.8-0.1-1.2-0.2c-0.4-0.2-0.7-0.4-1-0.7l0.6-0.7c0.2,0.2,0.4,0.4,0.7,0.6
		c0.3,0.2,0.6,0.2,0.9,0.2c0.3,0,0.6-0.1,0.8-0.3c0.2-0.2,0.3-0.4,0.3-0.7c0-0.5-0.3-0.8-0.8-1l-0.7-0.3c-0.5-0.2-0.8-0.4-1-0.7
		c-0.2-0.3-0.3-0.6-0.3-1c0-0.5,0.2-0.8,0.5-1.2c0.3-0.3,0.8-0.5,1.3-0.5c0.7,0,1.3,0.2,1.8,0.7l-0.5,0.7c-0.4-0.4-0.8-0.6-1.3-0.6
		c-0.3,0-0.5,0.1-0.7,0.2c-0.2,0.1-0.3,0.3-0.3,0.6c0,0.2,0.1,0.3,0.2,0.5c0.1,0.1,0.3,0.3,0.6,0.4l0.7,0.3c0.9,0.4,1.3,1,1.3,1.8
		c0,0.5-0.2,1-0.5,1.3C182.3,45.8,181.8,46,181.2,46z"/>
	<path class="st0" d="M188.7,45.9v-6.2h3.4v0.8h-2.5v1.9h2.2v0.8h-2.2v2.6H188.7z"/>
	<path class="st0" d="M196.7,46c-0.9,0-1.6-0.3-2.2-0.9c-0.6-0.6-0.9-1.4-0.9-2.3c0-0.9,0.3-1.7,0.9-2.3s1.4-0.9,2.2-0.9
		c0.9,0,1.6,0.3,2.2,0.9c0.6,0.6,0.9,1.4,0.9,2.3s-0.3,1.7-0.9,2.3C198.3,45.7,197.6,46,196.7,46z M195.1,44.5
		c0.4,0.5,1,0.7,1.6,0.7s1.2-0.2,1.6-0.7c0.4-0.5,0.7-1,0.7-1.7c0-0.7-0.2-1.2-0.7-1.7c-0.4-0.5-1-0.7-1.6-0.7
		c-0.6,0-1.2,0.2-1.6,0.7s-0.7,1-0.7,1.7C194.4,43.5,194.7,44.1,195.1,44.5z M196.1,39.1c-0.1,0.1-0.2,0.1-0.3,0.1
		c-0.1,0-0.2,0-0.3-0.1s-0.1-0.2-0.1-0.3c0-0.1,0-0.2,0.1-0.3s0.2-0.1,0.3-0.1c0.1,0,0.2,0,0.3,0.1c0.1,0.1,0.1,0.2,0.1,0.3
		C196.3,38.9,196.2,39,196.1,39.1z M197.9,39.1c-0.1,0.1-0.2,0.1-0.3,0.1s-0.2,0-0.3-0.1s-0.1-0.2-0.1-0.3c0-0.1,0-0.2,0.1-0.3
		s0.2-0.1,0.3-0.1s0.2,0,0.3,0.1s0.1,0.2,0.1,0.3C198,38.9,197.9,39,197.9,39.1z"/>
	<path class="st0" d="M202,45.9v-6.2h2.3c0.6,0,1,0.2,1.4,0.5c0.4,0.4,0.6,0.8,0.6,1.4c0,0.5-0.2,0.9-0.5,1.3
		c-0.3,0.3-0.7,0.5-1.2,0.6l1.8,2.4h-1.1l-1.8-2.4h-0.7v2.4H202z M204.2,40.6h-1.3v2.2h1.3c0.4,0,0.6-0.1,0.9-0.3
		c0.2-0.2,0.3-0.5,0.3-0.8c0-0.3-0.1-0.6-0.3-0.8C204.9,40.7,204.6,40.6,204.2,40.6z"/>
	<path class="st0" d="M211.1,45.9l2.5-6.2h0.8l2.4,6.2h-1l-0.4-1h-3l-0.4,1H211.1z M214,41.2l-1.2,3h2.4L214,41.2z"/>
	<path class="st0" d="M218.5,45.9v-6.2h0.9v5.4h2.5v0.8H218.5z"/>
	<path class="st0" d="M223.8,45.9v-6.2h0.9v5.4h2.5v0.8H223.8z"/>
	<path class="st0" d="M228.5,45.9l2.5-6.2h0.8l2.4,6.2h-1l-0.4-1h-3l-0.4,1H228.5z M231.4,41.2l-1.2,3h2.4L231.4,41.2z"/>
	<path class="st0" d="M238.7,45.9l2.5-6.2h0.8l2.4,6.2h-1l-0.4-1h-3l-0.4,1H238.7z M241.6,41.2l-1.2,3h2.4L241.6,41.2z"/>
	<path class="st0" d="M247.8,46c-0.4,0-0.8-0.1-1.2-0.2c-0.4-0.2-0.7-0.4-1-0.7l0.6-0.7c0.2,0.2,0.4,0.4,0.7,0.6
		c0.3,0.2,0.6,0.2,0.9,0.2c0.3,0,0.6-0.1,0.8-0.3s0.3-0.4,0.3-0.7c0-0.5-0.3-0.8-0.8-1l-0.7-0.3c-0.5-0.2-0.8-0.4-1-0.7
		c-0.2-0.3-0.3-0.6-0.3-1c0-0.5,0.2-0.8,0.5-1.2c0.3-0.3,0.8-0.5,1.3-0.5c0.7,0,1.3,0.2,1.8,0.7l-0.5,0.7c-0.4-0.4-0.8-0.6-1.3-0.6
		c-0.3,0-0.5,0.1-0.7,0.2s-0.3,0.3-0.3,0.6c0,0.2,0.1,0.3,0.2,0.5c0.1,0.1,0.3,0.3,0.6,0.4l0.7,0.3c0.9,0.4,1.3,1,1.3,1.8
		c0,0.5-0.2,1-0.5,1.3C248.9,45.8,248.4,46,247.8,46z"/>
	<path class="st0" d="M251.9,45.9v-6.2h2.1c0.6,0,1.1,0.2,1.4,0.6s0.6,0.9,0.6,1.5c0,0.6-0.2,1.1-0.6,1.4c-0.4,0.4-0.9,0.6-1.5,0.6
		h-1.2v2.1H251.9z M253.9,40.6h-1.2V43h1.2c0.4,0,0.6-0.1,0.9-0.3c0.2-0.2,0.3-0.5,0.3-0.9c0-0.4-0.1-0.6-0.3-0.9
		C254.6,40.7,254.3,40.6,253.9,40.6z"/>
	<path class="st0" d="M261.5,43.2h-2.5v1.9h2.7v0.8h-3.6v-6.2h3.5v0.8h-2.7v1.8h2.5V43.2z"/>
	<path class="st0" d="M263.8,45.9v-6.2h0.9v2.9l2.6-2.9h1.2l-2.2,2.5l2.2,3.7h-1.1l-1.8-3l-0.9,1v2H263.8z"/>
	<path class="st0" d="M269.7,40.6v-0.8h5v0.8h-2.1v5.4h-0.9v-5.4H269.7z"/>
	<path class="st0" d="M279.9,43.2h-2.5v1.9h2.7v0.8h-3.6v-6.2h3.5v0.8h-2.7v1.8h2.5V43.2z"/>
	<path class="st0" d="M282.2,45.9v-6.2h2.3c0.6,0,1,0.2,1.4,0.5c0.4,0.4,0.6,0.8,0.6,1.4c0,0.5-0.2,0.9-0.5,1.3
		c-0.3,0.3-0.7,0.5-1.2,0.6l1.8,2.4h-1.1l-1.8-2.4h-0.7v2.4H282.2z M284.4,40.6h-1.3v2.2h1.3c0.4,0,0.7-0.1,0.9-0.3s0.3-0.5,0.3-0.8
		c0-0.3-0.1-0.6-0.3-0.8C285,40.7,284.7,40.6,284.4,40.6z"/>
	<path class="st0" d="M291.3,45.9l2.5-6.2h0.8l2.4,6.2h-1l-0.4-1h-3l-0.4,1H291.3z M294.2,41.2l-1.2,3h2.4L294.2,41.2z"/>
	<path class="st0" d="M299.9,45.9l-2.4-6.2h1l1.9,4.8l1.9-4.8h1l-2.4,6.2H299.9z"/>
	<path class="st0" d="M308.3,45.9v-6.2h1.7c0.8,0,1.6,0.3,2.2,0.9c0.6,0.6,0.9,1.3,0.9,2.2c0,0.9-0.3,1.6-0.9,2.2
		c-0.6,0.6-1.3,0.9-2.2,0.9H308.3z M310,40.6h-0.8v4.5h0.8c0.6,0,1.1-0.2,1.5-0.7c0.4-0.4,0.6-1,0.6-1.6c0-0.6-0.2-1.2-0.6-1.6
		C311.1,40.8,310.6,40.6,310,40.6z"/>
	<path class="st0" d="M315.2,45.9v-6.2h0.9v6.2H315.2z"/>
	<path class="st0" d="M322.4,43.2v-0.8h2.1v0.4c0,0.9-0.3,1.7-1,2.3s-1.4,0.9-2.2,0.9c-0.9,0-1.7-0.3-2.3-0.9
		c-0.6-0.6-0.9-1.4-0.9-2.3c0-0.9,0.3-1.7,0.9-2.3c0.6-0.6,1.4-0.9,2.3-0.9c0.5,0,0.9,0.1,1.3,0.3s0.8,0.4,1.1,0.7l-0.6,0.7
		c-0.5-0.5-1-0.8-1.7-0.8c-0.7,0-1.2,0.2-1.6,0.7s-0.7,1-0.7,1.7c0,0.7,0.2,1.2,0.7,1.7s1,0.7,1.6,0.7c0.6,0,1.1-0.2,1.5-0.5
		s0.7-0.8,0.8-1.4H322.4z"/>
</g>
</svg>
