<?xml version="1.0" encoding="utf-8"?>
<!-- Generator: Adobe Illustrator 19.1.1, SVG Export Plug-In . SVG Version: 6.00 Build 0)  -->
<svg version="1.1" id="Layer_1" xmlns="http://www.w3.org/2000/svg" xmlns:xlink="http://www.w3.org/1999/xlink" x="0px" y="0px"
	 viewBox="0 0 468 60" style="enable-background:new 0 0 468 60;" xml:space="preserve">
<style type="text/css">
	.st0{fill:#D4AC76;}
</style>
<g>
	<path class="st0" d="M138.8,32V15h4.9c2.3,0,4.4,0.8,6,2.4c1.7,1.6,2.5,3.7,2.5,6.1s-0.8,4.5-2.5,6.1c-1.7,1.6-3.7,2.4-6.2,2.4
		H138.8z M143.7,17.8h-1.9v11.3h2c1.5,0,2.8-0.5,3.8-1.6c1-1.1,1.5-2.4,1.5-4.1s-0.5-2.9-1.5-4C146.5,18.4,145.2,17.8,143.7,17.8z"
		/>
	<path class="st0" d="M157.2,32V15h3.2v17H157.2z"/>
	<path class="st0" d="M164.5,18.1V15h14v3.1h-5.4V32h-3.2V18.1H164.5z"/>
	<path class="st0" d="M181.5,18.1V15h14v3.1h-5.4V32h-3.2V18.1H181.5z"/>
	<path class="st0" d="M208.8,32V15h3.2v13.9h6.2V32H208.8z"/>
	<path class="st0" d="M222.8,32V15h3.2v17H222.8z"/>
	<path class="st0" d="M236.5,32L230,15h3.3l4.7,12.2l4.6-12.2h3.2l-6.4,17H236.5z"/>
	<path class="st0" d="M253.7,32.2c-1.1,0-2.1-0.2-3.2-0.7c-1.1-0.4-2-1.1-2.8-1.9l2-2.4c0.5,0.6,1.1,1.1,1.9,1.5
		c0.8,0.4,1.5,0.6,2.2,0.6c0.7,0,1.3-0.2,1.8-0.6c0.5-0.4,0.7-0.9,0.7-1.5c0-1.1-0.6-1.8-1.9-2.4l-1.9-0.8c-1.3-0.5-2.2-1.2-2.8-1.9
		s-0.9-1.7-0.9-2.9s0.5-2.3,1.4-3.2c1-0.9,2.2-1.4,3.6-1.4c2.1,0,3.9,0.6,5.2,1.9l-1.9,2.4c-0.9-1-2-1.5-3.4-1.5
		c-0.6,0-1.1,0.2-1.5,0.5c-0.4,0.3-0.6,0.7-0.6,1.2s0.1,0.9,0.4,1.2c0.3,0.3,0.8,0.6,1.5,0.9l2,0.8c2.5,1,3.8,2.6,3.9,4.9
		c0,1.5-0.5,2.8-1.6,3.7C256.9,31.7,255.5,32.2,253.7,32.2z"/>
	<path class="st0" d="M268.9,32l-6.5-17h3.3l4.7,12.2L275,15h3.2l-6.4,17H268.9z"/>
	<path class="st0" d="M291.8,24.8h-6.3v4.4h6.9V32h-10.1V15h9.9v2.8h-6.7V22h6.3V24.8z"/>
	<path class="st0" d="M297.5,32V15h6.7c1.6,0,3,0.5,4.1,1.5s1.6,2.4,1.6,4c0,1.4-0.4,2.5-1.2,3.4c-0.8,0.9-1.9,1.5-3.2,1.8l4.6,6.2
		h-3.6l-4.4-6.1h-1.4V32H297.5z M303.7,17.8h-3v5.5h3c0.9,0,1.7-0.3,2.2-0.8c0.6-0.5,0.8-1.2,0.8-2s-0.3-1.5-0.8-2
		C305.3,18.1,304.6,17.8,303.7,17.8z"/>
	<path class="st0" d="M314.9,32V15h2.9v7.5l6.5-7.5h3.9l-6,6.8l6.1,10.2h-3.7l-4.6-7.8l-2.3,2.6V32H314.9z"/>
</g>
</svg>
