<svg id="Layer_1" data-name="Layer 1" xmlns="http://www.w3.org/2000/svg" viewBox="0 0 1250 240"><defs><style>.cls-1{fill:#d4ac76;}</style></defs><title>text</title><path class="cls-1" d="M318,152.52h-7v5.2h7.48V160h-9.86V143h9.72v2.26H311v5h7Z"/><path class="cls-1" d="M322.61,145.24V143h13.77v2.26h-5.7V160h-2.37V145.24Z"/><path class="cls-1" d="M339.75,145.24V143h13.77v2.26h-5.7V160h-2.38V145.24Z"/><path class="cls-1" d="M372.65,160,366,143h2.67l5.1,13.06,5.1-13.06h2.63l-6.65,17Z"/><path class="cls-1" d="M383,160l6.83-17h2.15l6.7,17H396l-1-2.62h-8.33L385.58,160Zm6.14-18.81a1.1,1.1,0,0,1-.84.38,1.07,1.07,0,0,1-.84-.38,1.29,1.29,0,0,1-.34-.92,1.32,1.32,0,0,1,.34-.93,1.1,1.1,0,0,1,.84-.37,1.13,1.13,0,0,1,.84.37,1.28,1.28,0,0,1,.35.93A1.26,1.26,0,0,1,389.09,141.17Zm1.76,5.71-3.3,8.22h6.53Zm3-5.71a1.13,1.13,0,0,1-1.69,0,1.3,1.3,0,0,1-.35-.92,1.33,1.33,0,0,1,.35-.93,1.15,1.15,0,0,1,1.69,0,1.32,1.32,0,0,1,.34.93A1.29,1.29,0,0,1,393.81,141.17Z"/><path class="cls-1" d="M403.35,160V143h6.31a5.3,5.3,0,0,1,3.83,1.48A5.05,5.05,0,0,1,415,148.3a5.17,5.17,0,0,1-1.27,3.55,5.08,5.08,0,0,1-3.26,1.66l4.93,6.47H412.5l-4.88-6.49h-1.9V160Zm6-14.74h-3.62v6.14h3.6a3.45,3.45,0,0,0,2.41-.84,3.09,3.09,0,0,0,0-4.41A3.34,3.34,0,0,0,409.34,145.24Z"/><path class="cls-1" d="M421,160V143h4.56a8.56,8.56,0,0,1,5.95,14.58,8.28,8.28,0,0,1-6,2.42Zm4.65-14.74h-2.27v12.48h2.34a5.5,5.5,0,0,0,4.19-1.83,6.27,6.27,0,0,0,1.7-4.44,6.09,6.09,0,0,0-1.76-4.42A5.69,5.69,0,0,0,425.64,145.24Z"/><path class="cls-1" d="M449.2,152.52h-7v5.2h7.48V160h-9.86V143h9.73v2.26H442.2v5h7Z"/><path class="cls-1" d="M455.58,160V143h9.28v2.26H458v5.35h6.12v2.26H458V160Z"/><path class="cls-1" d="M475.91,160.27a5.94,5.94,0,0,1-4.43-1.78,6.18,6.18,0,0,1-1.74-4.49V143h2.38v10.87a4.44,4.44,0,0,0,1,3,3.5,3.5,0,0,0,2.78,1.17,3.59,3.59,0,0,0,2.82-1.15,4.33,4.33,0,0,0,1-3V143h2.38v11a6.21,6.21,0,0,1-1.73,4.49A6,6,0,0,1,475.91,160.27Z"/><path class="cls-1" d="M488.88,160V143h2.38v14.74h7V160Z"/><path class="cls-1" d="M503.47,160V143h2.37v14.74h7V160Z"/><path class="cls-1" d="M513.28,145.24V143h13.77v2.26h-5.7V160H519V145.24Z"/><path class="cls-1" d="M550.79,152.52h-7v5.2h7.48V160h-9.85V143h9.72v2.26h-7.35v5h7Z"/><path class="cls-1" d="M557.17,160V143h6.31a5.3,5.3,0,0,1,3.83,1.48,5.05,5.05,0,0,1,1.54,3.84,5.12,5.12,0,0,1-1.27,3.55,5.06,5.06,0,0,1-3.26,1.66l4.93,6.47h-2.93l-4.88-6.49h-1.89V160Zm6-14.74h-3.62v6.14h3.59a3.45,3.45,0,0,0,2.41-.84,3.07,3.07,0,0,0,0-4.41A3.34,3.34,0,0,0,563.17,145.24Z"/><path class="cls-1" d="M574.81,160V143H580a5.45,5.45,0,0,1,3.74,1.31,4.37,4.37,0,0,1,1.48,3.44,4,4,0,0,1-2,3.65,4.47,4.47,0,0,1,1.83,1.52,4,4,0,0,1,.68,2.3,4.44,4.44,0,0,1-1.49,3.48,5.57,5.57,0,0,1-3.8,1.3Zm5-14.74h-2.58v5.17h3a2.56,2.56,0,0,0,1.88-.75,2.61,2.61,0,0,0,.77-1.95,2.19,2.19,0,0,0-.85-1.79A3.53,3.53,0,0,0,579.77,145.24Zm.53,7.28h-3.11v5.2h3a3.56,3.56,0,0,0,2.34-.73,2.41,2.41,0,0,0,.86-1.94,2.33,2.33,0,0,0-.78-1.82A3.3,3.3,0,0,0,580.3,152.52Z"/><path class="cls-1" d="M594.92,160.25a5.73,5.73,0,0,1-3.38-1,5.26,5.26,0,0,1-2-2.74l2.2-1.08a3.8,3.8,0,0,0,1.2,1.87,3,3,0,0,0,2,.7,2.9,2.9,0,0,0,2.3-1,3.84,3.84,0,0,0,.85-2.64V143h2.37v11.35a5.92,5.92,0,0,1-1.54,4.38A5.4,5.4,0,0,1,594.92,160.25Z"/><path class="cls-1" d="M612.82,160.27a6,6,0,0,1-4.44-1.78,6.21,6.21,0,0,1-1.73-4.49V143H609v10.87a4.4,4.4,0,0,0,1,3,3.47,3.47,0,0,0,2.78,1.17,3.56,3.56,0,0,0,2.81-1.15,4.34,4.34,0,0,0,1-3V143H619v11a6.17,6.17,0,0,1-1.73,4.49A6,6,0,0,1,612.82,160.27Z"/><path class="cls-1" d="M625.79,160V143h4.55a8.56,8.56,0,0,1,5.95,14.58,8.26,8.26,0,0,1-6,2.42Zm4.65-14.74h-2.28v12.48h2.34a5.49,5.49,0,0,0,4.19-1.83,6.23,6.23,0,0,0,1.7-4.44,6.08,6.08,0,0,0-1.75-4.42A5.69,5.69,0,0,0,630.44,145.24Z"/><path class="cls-1" d="M642.13,160,649,143h2.15l6.7,17h-2.63l-1-2.62h-8.33L644.76,160Zm7.9-13.1-3.3,8.22h6.53Z"/><path class="cls-1" d="M662.53,160V143h1.65l9.22,11.71V143h2.37v17h-1.32l-9.55-12.14V160Z"/><path class="cls-1" d="M682.88,160V143h4.55a8.56,8.56,0,0,1,6,14.58,8.26,8.26,0,0,1-6,2.42Zm4.65-14.74h-2.28v12.48h2.34a5.49,5.49,0,0,0,4.19-1.83,6.23,6.23,0,0,0,1.7-4.44,6.08,6.08,0,0,0-1.75-4.42A5.69,5.69,0,0,0,687.53,145.24Z"/><path class="cls-1" d="M711.08,152.52h-7v5.2h7.48V160h-9.85V143h9.72v2.26h-7.35v5h7Z"/><path class="cls-1" d="M731.42,160l-6.63-17h2.67L732.55,156,737.66,143h2.62l-6.65,17Z"/><path class="cls-1" d="M741.73,160l6.83-17h2.14l6.7,17h-2.63l-1-2.62h-8.34l-1,2.62Zm6.14-18.81a1.14,1.14,0,0,1-.85.38,1.1,1.1,0,0,1-.84-.38,1.29,1.29,0,0,1-.34-.92,1.32,1.32,0,0,1,.34-.93A1.13,1.13,0,0,1,747,139a1.17,1.17,0,0,1,.85.37,1.33,1.33,0,0,1,.35.93A1.3,1.3,0,0,1,747.87,141.17Zm1.76,5.71-3.31,8.22h6.53Zm3-5.71a1.13,1.13,0,0,1-1.69,0,1.29,1.29,0,0,1-.34-.92,1.32,1.32,0,0,1,.34-.93,1.15,1.15,0,0,1,1.69,0,1.32,1.32,0,0,1,.34.93A1.29,1.29,0,0,1,752.58,141.17Z"/><path class="cls-1" d="M762.12,160V143h1.66L773,154.69V143h2.38v17H774l-9.54-12.14V160Z"/><path class="cls-1" d="M780.23,145.24V143H794v2.26h-5.7V160h-2.38V145.24Z"/><path class="cls-1" d="M795.1,160l6.83-17h2.14l6.7,17h-2.63l-1-2.62h-8.34l-1,2.62Zm7.9-13.1-3.31,8.22h6.54Z"/><path class="cls-1" d="M815.49,160V143h6.31a5.28,5.28,0,0,1,3.83,1.48,5.05,5.05,0,0,1,1.54,3.84,5.12,5.12,0,0,1-1.27,3.55,5.06,5.06,0,0,1-3.25,1.66l4.92,6.47h-2.92l-4.89-6.49h-1.89V160Zm6-14.74h-3.62v6.14h3.6a3.44,3.44,0,0,0,2.4-.84,3.07,3.07,0,0,0,0-4.41A3.32,3.32,0,0,0,821.49,145.24Z"/><path class="cls-1" d="M842.33,160V143h5.81a5.36,5.36,0,0,1,3.94,1.58,5.48,5.48,0,0,1,1.58,4.05,5.35,5.35,0,0,1-1.62,4,5.51,5.51,0,0,1-4,1.58h-3.33V160ZM848,145.24h-3.27v6.67H848a3.14,3.14,0,0,0,3.29-3.3,3.31,3.31,0,0,0-.94-2.41A3.19,3.19,0,0,0,848,145.24Z"/><path class="cls-1" d="M855.88,160l6.83-17h2.15l6.7,17h-2.63l-1-2.62h-8.33L858.51,160Zm7.9-13.1-3.3,8.22H867Zm1.64-5.06a2.34,2.34,0,0,1-3.28,0,2.32,2.32,0,0,1,3.28-3.28,2.34,2.34,0,0,1,0,3.28Zm-1.64-.69a.87.87,0,0,0,.65-.29.93.93,0,0,0,0-1.33.89.89,0,0,0-.65-.27.92.92,0,0,0-.67.27,1,1,0,0,0,0,1.33A.9.9,0,0,0,863.78,141.13Z"/><path class="cls-1" d="M895.13,152.52h-7v5.2h7.48V160h-9.86V143h9.72v2.26h-7.34v5h7Z"/><path class="cls-1" d="M901.51,160V143h6.31a5.28,5.28,0,0,1,3.83,1.48,5.05,5.05,0,0,1,1.54,3.84,5.12,5.12,0,0,1-1.27,3.55,5.06,5.06,0,0,1-3.25,1.66l4.92,6.47h-2.92l-4.89-6.49h-1.89V160Zm6-14.74h-3.62v6.14h3.6a3.44,3.44,0,0,0,2.4-.84,3.07,3.07,0,0,0,0-4.41A3.34,3.34,0,0,0,907.51,145.24Z"/></svg>